<svg xmlns="http://www.w3.org/2000/svg" width="24" height="24" fill="none" viewBox="0 0 24 24"><path fill="#fff" d="M11.663 16.29c0 1.181-.98 2.139-2.189 2.139-1.208 0-2.188-.957-2.188-2.138 0-1.18.98-2.138 2.188-2.138s2.19.957 2.19 2.138m5.051 0c0 1.181-.98 2.139-2.188 2.139-1.21 0-2.19-.957-2.19-2.138 0-1.18.98-2.138 2.19-2.138 1.208 0 2.188.957 2.188 2.138m-6.061-8.064a2.13 2.13 0 0 0 1.01-1.803c0-1.18-.98-2.137-2.189-2.137-1.208 0-2.188.957-2.188 2.137 0 .757.403 1.422 1.01 1.803v.006c.204.15.337.39.337.658 0 .27-.133.508-.337.658a2.14 2.14 0 0 0-1.01 1.81c0 1.18.98 2.137 2.188 2.137s2.19-.957 2.19-2.138c0-.757-.404-1.429-1.011-1.808a.82.82 0 0 1-.337-.659c0-.269.133-.508.337-.658z"/><path fill="#fff" d="M12.68 12.508a2.2 2.2 0 0 0 1.845.987c1.21 0 2.19-.957 2.19-2.138 0-1.18-.98-2.138-2.19-2.138a2.2 2.2 0 0 0-1.844.987h-.007a.85.85 0 0 1-.674.329.85.85 0 0 1-.674-.33 2.21 2.21 0 0 0-1.851-.986c-1.21 0-2.19.957-2.19 2.138 0 1.18.98 2.138 2.19 2.138.774 0 1.463-.393 1.852-.987A.85.85 0 0 1 12 12.18c.275 0 .52.129.674.328zm0 4.934a2.2 2.2 0 0 0 1.845.986c1.21 0 2.19-.957 2.19-2.137s-.98-2.138-2.19-2.138a2.2 2.2 0 0 0-1.844.987h-.007a.85.85 0 0 1-.674.328.85.85 0 0 1-.674-.328 2.21 2.21 0 0 0-1.852-.987c-1.208 0-2.188.957-2.188 2.138 0 1.18.98 2.137 2.188 2.137.775 0 1.463-.393 1.853-.986a.85.85 0 0 1 .673-.33c.275 0 .52.13.674.33z"/><path fill="#fff" d="M15.704 13.159a2.13 2.13 0 0 0 1.01-1.802c0-1.18-.98-2.138-2.188-2.138-1.21 0-2.19.957-2.19 2.138 0 .757.404 1.422 1.01 1.802v.007c.205.15.338.389.338.658a.82.82 0 0 1-.337.658 2.14 2.14 0 0 0-1.01 1.809c0 1.18.98 2.137 2.188 2.137 1.21 0 2.19-.957 2.19-2.137 0-.757-.404-1.43-1.01-1.81a.813.813 0 0 1 0-1.315zm-5.051 0a2.12 2.12 0 0 0 1.01-1.802c0-1.18-.98-2.138-2.188-2.138-1.21 0-2.19.957-2.19 2.138 0 .757.404 1.422 1.01 1.802v.007c.205.15.338.389.338.658a.82.82 0 0 1-.337.658 2.14 2.14 0 0 0-1.01 1.809c0 1.182.98 2.137 2.188 2.137 1.21 0 2.19-.957 2.19-2.137 0-.757-.404-1.43-1.011-1.81a.82.82 0 0 1-.337-.657c0-.27.133-.508.337-.658z"/></svg>