<svg xmlns="http://www.w3.org/2000/svg" width="24" height="24" fill="none" viewBox="0 0 24 24"><path fill="#fff" fill-rule="evenodd" d="M12.446 16.234c.175-1.157.54-2.284 1.157-3.266q1.027-1.542 2.743-1.98a7.4 7.4 0 0 1 2.884-.154c.043.005.055-.008.055-.047A3.62 3.62 0 0 0 17.4 7.8c-1.183-.66-2.722-.643-3.986-.193-1.341.574-1.984 1.62-2.704 2.829-.24.402-.455.741-.737 1.011-.643.6-2.058.772-2.238-.416q.001-.03.026-.034h.172c.085 0 .167 0 .235-.008C9.291 10.8 9.78 9.39 9.917 8.413c0-.022-.004-.03-.021-.03-.502.026-1 .043-1.5.06q-.55.014-.776.098c-.377.146-.635.429-.767.866q-.01.033-.017 0a1.33 1.33 0 0 0-1.115-.964l-1.838-.129c-.017 0-.026.013-.026.03.051.986.489 2.276 1.521 2.559.129.034.296.051.455.068l.214.022c.017 0 .026.013.021.03a4.83 4.83 0 0 0 1.158 3.463q.007.003.015.003l.015-.003.012-.013c.317-.455.729-.943 1.179-1.222a2.43 2.43 0 0 1 2.537-.038q.41.253.754.587v.026l-.107.184c-.386.694-.78 1.401-1.32 1.98q-.032.032.013.039c.686.128 1.371.21 2.066.252l.038-.012a.06.06 0 0 0 .017-.035m3.557-6.458a2.87 2.87 0 0 0-1.423-.986.03.03 0 0 0-.013.013l-.214.707.004.026.021.017c.395.12.72.343.986.664a.055.055 0 0 0 .077.009l.553-.369c.03-.026.034-.051.013-.086zm2.305 4.714a4.54 4.54 0 0 1-3.222 1.783q-.683.02-2.22 0c-.018 0-.022-.009-.022-.026q.204-1.306.712-2.4.295-.643.822-1.243a4.44 4.44 0 0 1 2.739-1.294c.27-.03.501-.056.686-.069.402-.034.822.018 1.234.069l.219.021q.025.001.025.035a5.25 5.25 0 0 1-.973 3.12zM6.381 16.633a4.07 4.07 0 0 0 2.542-.3c1.05-.48 1.684-1.453 2.203-2.46a.07.07 0 0 0 .004-.056.07.07 0 0 0-.03-.043c-1.226-.703-2.344-.415-3.176.647-.497.63-.964 1.295-1.423 1.95l-.146.202c-.02.034-.012.051.026.06" clip-rule="evenodd"/></svg>