<svg xmlns="http://www.w3.org/2000/svg" width="24" height="24" fill="none" viewBox="0 0 24 24"><path fill="#fff" fill-rule="evenodd" d="M4.286 6.857h15.428v10.715H4.286zM5.57 8.143H18.43v8.143H5.57zm12 7.286h-.068a3.13 3.13 0 0 1-2.67-1.513c-.3.317-.874.754-1.522.754-.758 0-1.238-.66-1.341-.904-.103-.236-.202-.536-.309-.849-.295-.87-.625-1.843-1.088-1.843-.36 0-.737.87-.965 1.586a3.167 3.167 0 0 1-3.18 2.769V14.25h.065a2.015 2.015 0 0 0 1.997-2.036 2.014 2.014 0 0 0-2.062-2.035V9h.065a3.13 3.13 0 0 1 2.734 1.624c.244-.373.711-.848 1.346-.848.784 0 1.354.386 1.521.857l.189.557c.321.986.711 2.177 1.264 2.177.502 0 .716-.956.849-1.646A3.17 3.17 0 0 1 17.57 9v1.179h-.068a2.015 2.015 0 0 0-1.993 2.035 2.015 2.015 0 0 0 2.061 2.036z" clip-rule="evenodd"/></svg>