<svg xmlns="http://www.w3.org/2000/svg" width="24" height="24" fill="none" viewBox="0 0 24 24"><path fill="#fff" fill-rule="evenodd" d="M12 18.639a6.698 6.698 0 1 0 0-13.397 6.698 6.698 0 0 0 0 13.397m-1.594-3.94a2.7 2.7 0 0 1-.283-.89c-.08-.783-.112-1.565-.144-2.35l-.023-.548-.013-.57-.006-.402c-.013-.821-.025-1.652.019-2.47a.043.043 0 0 1 .043-.042q.258-.037.512-.066c.236-.029.47-.057.705-.097q.018-.001.017.017c.017 1.963.06 3.922.188 5.885.009.175.022.368.069.531.129.471.424.801.874.977.185.073.373.069.566.056.296-.034.57-.17.776-.386a.043.043 0 0 1 .06 0l1.015.943q.014.014 0 .021a4.6 4.6 0 0 1-.642.549 2.43 2.43 0 0 1-1.449.377 1.84 1.84 0 0 1-1.08-.266l-.099-.06c-.117-.07-.248-.148-.351-.244a2.55 2.55 0 0 1-.754-.964m3.561-.75c.257-.612.167-1.285-.3-1.765a1.24 1.24 0 0 0-.896-.364q-.622.033-1.242.09-.032-.74-.056-1.479c0-.008.004-.017.017-.017q.595-.063 1.191-.111a2.44 2.44 0 0 1 1.222.214 2.77 2.77 0 0 1 1.534 1.903c.094.57.129 1.114-.021 1.684-.11.366-.282.71-.506 1.02h-.004l-1.016-.96a.047.047 0 0 1-.009-.06c.03-.043.06-.098.086-.154m-4.161-2.108a11 11 0 0 0-.035-.634q-.007-.106-.01-.229c-.003-.115-.007-.236-.02-.35a.06.06 0 0 0-.064-.055l-1.226.124-.029.003c-.087.008-.236.021-.236.113q-.012.57.034 1.294 0 .075.077.073.704-.08 1.41-.124c.099 0 .099-.138.099-.215" clip-rule="evenodd"/><path fill="#fff" fill-rule="evenodd" d="M12 19.007a7.02 7.02 0 1 0 0-14.04 7.02 7.02 0 0 0 0 14.04m0-.274a6.795 6.795 0 1 0-6.793-6.797A6.793 6.793 0 0 0 12 18.729z" clip-rule="evenodd"/><path fill="#fff" fill-rule="evenodd" d="M19.286 12a7.285 7.285 0 1 1-14.57 0 7.285 7.285 0 0 1 14.57 0M12 19.101a7.113 7.113 0 0 0 6.573-9.836A7.116 7.116 0 0 0 6.969 6.957 7.114 7.114 0 0 0 12 19.1" clip-rule="evenodd"/></svg>