<svg xmlns="http://www.w3.org/2000/svg" width="24" height="24" fill="none" viewBox="0 0 24 24"><path fill="#fff" d="M5.94 7.53c-.278.134-.51.347-.668.613L12 12.056V19.7c.202.039.317-.012.364-.043 1.818-1.054 5.56-3.214 5.975-3.428a1 1 0 0 0 .518-.887v-2.284l-1.285.767v1.054c0 .278-.15.428-.223.463l-3.656 2.117c-.373.21-.403.021-.407-.099v-6.064c-1.65-.964-5.083-2.923-5.306-3.056-.227-.133-.094-.321 0-.398l3.712-2.152c.214-.167.445-.064.557 0l.964.566 1.243-.733a134 134 0 0 0-1.92-1.101 1.24 1.24 0 0 0-1.119 0C9.763 5.37 6.347 7.32 5.94 7.53"/><path fill="#fff" d="M5.143 15.317V8.803l1.286.707c.008 1.598.021 4.886 0 5.271-.022.386.171.609.317.678l4.586 2.657v1.41L5.983 16.43c-.746-.445-.857-.857-.836-1.114zm13.02-7.659-3.021-1.761-1.269.729q1.665.914 3.27 1.928c.356.27.429.712.429.896v3.639l1.285-.746c-.004-.892-.012-2.837 0-3.502a1.33 1.33 0 0 0-.694-1.183"/></svg>