<svg xmlns="http://www.w3.org/2000/svg" width="24" height="24" fill="none" viewBox="0 0 24 24"><path fill="#fff" d="M15.643 6.176c-.999-.643-2.155-1-3.343-1.033-1.298 1.208-1.256 3.664 0 4.787.523-2.07 1.74-3.193 3.343-3.754m1.521 1.165c-1.954-.085-3.47 1.685-3.47 3.407a4.74 4.74 0 0 1 5.035-.257c-.262-1.38-.755-2.108-1.564-3.15m1.693 4.916c-1.217-1.29-3.6-1.161-4.774.043 1.916.463 2.953 1.337 3.819 3.278a5.6 5.6 0 0 0 .955-3.32m-2.168 4.83c-.129-2.07-1.543-3.287-3.429-3.407.973 1.697 1.17 3.279.3 5.006a7.1 7.1 0 0 0 3.129-1.599m-4.993 1.77c1.26-1.251 1.346-3.278 0-4.787-.519 2.113-1.65 3.193-3.343 3.797 1.166.703 1.929.866 3.343.99M6.922 16.66c2.027-.189 3.343-1.509 3.343-3.45-1.26.99-3.386 1.118-5.036.385.463 1.342.827 2.04 1.693 3.065M5.143 11.7c1.084 1.161 3.343 1.333 4.774 0-2.04-.476-3.235-1.671-3.775-3.236a6 6 0 0 0-.999 3.236m2.169-4.744c.304 2.07 1.435 3.188 3.428 3.364-1.007-1.659-1.084-3.236-.343-5.006-1.435.343-2.19.823-3.085 1.642"/></svg>