<svg xmlns="http://www.w3.org/2000/svg" width="24" height="24" fill="none" viewBox="0 0 24 24"><path fill="#fff" d="M9.429 10.286A4.286 4.286 0 0 1 13.714 6v-.857a5.143 5.143 0 0 0-5.142 5.143zm4.285-3a3 3 0 0 0-3 3h-.857a3.857 3.857 0 0 1 3.857-3.857zm0 1.285A1.714 1.714 0 0 0 12 10.286h-.857a2.57 2.57 0 0 1 2.571-2.572zm-3.857 6a4.286 4.286 0 0 1-4.285-4.285h-.858a5.143 5.143 0 0 0 5.143 5.143zm-3-4.285a3 3 0 0 0 3 3v.857A3.857 3.857 0 0 1 6 10.286zm1.286 0A1.714 1.714 0 0 0 9.857 12v.857a2.57 2.57 0 0 1-2.571-2.571zm6-.429a4.286 4.286 0 0 1 4.286 4.286h.857A5.143 5.143 0 0 0 14.143 9zm3 4.286a3 3 0 0 0-3-3v-.857A3.857 3.857 0 0 1 18 14.143zm-1.286 0a1.714 1.714 0 0 0-1.714-1.715v-.857a2.57 2.57 0 0 1 2.571 2.572zm-4.285 0a1.714 1.714 0 0 1-1.715 1.714v.857a2.57 2.57 0 0 0 2.572-2.571zm1.285 0a3 3 0 0 1-3 3V18a3.857 3.857 0 0 0 3.857-3.857zm-3 4.285a4.286 4.286 0 0 0 4.286-4.285H15a5.143 5.143 0 0 1-5.143 5.143z"/></svg>