<svg xmlns="http://www.w3.org/2000/svg" width="24" height="24" fill="none" viewBox="0 0 24 24"><path fill="#fff" d="M17.143 13.595c0 2.906-2.303 5.262-5.143 5.262s-5.143-2.356-5.143-5.262c0-2.907 1.692-8.452 5.143-8.452s5.143 5.546 5.143 8.452"/><path fill="#fff" d="M16.756 15.602c.256-.638.388-1.32.387-2.007 0-2.907-1.693-8.452-5.143-8.452-2.235 0-3.733 2.327-4.51 4.756z"/><path fill="#fff" d="m10.55 5.497-1.155 5.574L7.49 9.9c.596-1.86 1.613-3.66 3.06-4.402"/><path fill="#fff" d="M7.49 9.899c-.423 1.32-.633 2.672-.633 3.696 0 1.338.489 2.56 1.292 3.488l1.246-6.012zM17.143 13.595c0 .71-.138 1.388-.387 2.007l-2.613-1.61V5.957c2.01 1.649 3 5.416 3 7.64"/><path fill="#fff" d="M17.143 13.595c0 .71-.138 1.388-.387 2.007l-2.628-1.618 2.911-1.767c.07.497.104.964.104 1.378M8.152 17.071l5.98-3.084-4.737-2.916z"/><path fill="#fff" d="M14.143 18.38v-4.387l2.613 1.609a5.23 5.23 0 0 1-2.613 2.778"/></svg>