<svg xmlns="http://www.w3.org/2000/svg" width="24" height="24" fill="none" viewBox="0 0 24 24"><path fill="#fff" d="M9.429 13.714H5.357A6.9 6.9 0 0 1 5.143 12c0-3.789 3.039-6.857 6.789-6.857h6.925l-2.121 2.001-.056-.025zM18.857 12A6.858 6.858 0 0 1 7.2 16.894l2.657-2.751A3.03 3.03 0 0 0 12 15a3 3 0 0 0 2.379-4.83l.193-.171 2.554-2.555A6.83 6.83 0 0 1 18.857 12"/><path fill="#fff" d="M18.857 12a6.857 6.857 0 0 1-13.371 2.143h4.371l.219.193c.651.578 1.881 1.662 3.78 1.662 2.43 0 4.573-2.425 4.573-4.855a6.8 6.8 0 0 0-.48-2.554A6.8 6.8 0 0 1 18.857 12"/></svg>