<svg xmlns="http://www.w3.org/2000/svg" width="24" height="24" fill="none" viewBox="0 0 24 24"><path fill="#fff" fill-rule="evenodd" d="M12.049 19.286h-.098zm.38-.013v-3.416h2.284c.394 0 .715-.257.715-.626 0-.373-.321-.66-.715-.66h-4.586c-.184 0-.27-.171-.27-.342v-1.05c0-.172.086-.322.266-.322h4.568c.407 0 .737-.201.737-.587s-.33-.699-.737-.699h-6.12v3.772c0 .201.172.514.386.514h2.186v3.4a7.294 7.294 0 0 1-6.429-7.244V12a7.29 7.29 0 0 1 6.429-7.237V8.57H9c-.206 0-.429.159-.429.365v.921H14.7c.39 0 .728-.197.728-.587s-.338-.699-.728-.699h-2.272V4.727h-.888q.15-.009.302-.013v.002L12 4.714a7.286 7.286 0 0 1 .428 14.56m-.997.013h.002z" clip-rule="evenodd"/></svg>