<svg xmlns="http://www.w3.org/2000/svg" width="24" height="24" fill="none" viewBox="0 0 24 24"><path fill="#fff" d="M14.143 6.163 12 4.286 9.857 6.163v5.648l1.153 1.08.583-.625-.879-.823V6.549L12 5.426l1.286 1.122v4.895L9 15.467v-4.753l-.728.729a.43.43 0 0 0-.129.304v5.7l6-5.636zm1.586 5.284c.08.08.127.187.128.3v5.687l-3.377-3.103.583-.634L15 15.48v-4.766l.729.729zM12 14.743l-.428.398v4.175l.428.394.429-.394V15.14L12 14.747zM9.857 16.8l.857-.784v2.683l-.685-.63a.51.51 0 0 1-.172-.382zm4.286-.034-.857-.84v2.828l.694-.634a.53.53 0 0 0 .163-.386z"/></svg>