<svg xmlns="http://www.w3.org/2000/svg" width="24" height="24" fill="none" viewBox="0 0 24 24"><path fill="#fff" fill-rule="evenodd" d="m17.897 7.984.051.03a.94.94 0 0 1 .468.815v6.342a.94.94 0 0 1-.463.815l-5.486 3.175a.92.92 0 0 1-.926 0l-5.395-3.124a1.14 1.14 0 0 1-.408-.411 1.13 1.13 0 0 1-.167-.562V8.83a1.01 1.01 0 0 1 .484-.814l.035-.022a.4.4 0 0 1 .06-.043l2.066-1.187 3.325-1.924a.93.93 0 0 1 .9-.013q.087.031.167.077l5.238 3.043a.4.4 0 0 1 .051.038m-6.12 1.303c.208.093.433.141.66.141h.013c.708 0 1.265-.41 1.265-.938l-.005-.013a.84.84 0 0 0-.428-.694c-.004-.005-.013-.013-.022-.013l-1.491-.874a.26.26 0 0 0-.291.017.27.27 0 0 0-.05.372.3.3 0 0 0 .08.07l1.435.843.077.043q.015.01.03.017a.32.32 0 0 1 .142.24c-.009.19-.322.4-.742.4a1.1 1.1 0 0 1-.428-.078L10.248 7.79a.257.257 0 0 0-.356.099.27.27 0 0 0 .098.36zm2.941 6.975a.2.2 0 0 0 .09.024h.004a.2.2 0 0 0 .158-.086c.035-.045.033-.104.031-.166V13.94l.89 1.299a.23.23 0 0 0 .117.094.17.17 0 0 0 .132-.013.25.25 0 0 0 .103-.107.3.3 0 0 0 .043-.167v-2.751a.35.35 0 0 0-.073-.21.2.2 0 0 0-.158-.086c-.06 0-.12.03-.163.086-.035.05-.035.119-.034.189v1.98l-.892-1.304a.22.22 0 0 0-.111-.094.2.2 0 0 0-.137.013.23.23 0 0 0-.103.107.34.34 0 0 0-.043.172v2.84c.002.077.03.151.077.21a.2.2 0 0 0 .07.063m-7.158-.568a.26.26 0 0 1-.188-.086v-.004a.33.33 0 0 1-.086-.201V12.12q0-.076.034-.141a.3.3 0 0 1 .099-.108.25.25 0 0 1 .261 0l2.04 1.252a.31.31 0 0 1 .035.48.3.3 0 0 1-.09.051.25.25 0 0 1-.202-.025L7.715 12.47v1.166l.025.013 1.608.96a.3.3 0 0 1 .115.141.31.31 0 0 1-.081.343.26.26 0 0 1-.163.06.25.25 0 0 1-.129-.038l-1.375-.823v1.11c0 .154-.013.291-.155.291" clip-rule="evenodd"/></svg>