<svg xmlns="http://www.w3.org/2000/svg" width="24" height="24" fill="none" viewBox="0 0 24 24"><path fill="#fff" d="M7.714 8.143a1.286 1.286 0 1 0 0-2.572 1.286 1.286 0 0 0 0 2.572"/><path fill="#fff" d="M7.714 7.513a.656.656 0 1 0 0-1.312.656.656 0 0 0 0 1.312M18.429 13.286a.857.857 0 1 0 0-1.715.857.857 0 0 0 0 1.715"/><path fill="#fff" d="M18.429 12.866a.437.437 0 1 0 0-.875.437.437 0 0 0 0 .875M7.2 8.494c-3.583.724-2.52 4.53-1.543 6.343-.308-2.413.622-4.144 1.959-4.269 1.341-.12 2.293.686 4.791 3.172s3.917 2.974 5.255 2.927c1.341-.047 1.855-.557 1.757-1.44-.086-.703-1.363-.553-1.989-.386.292 0 .909.125 1.029.63.128.51-.48.635-.797.635-1.878-.292-3.502-2.34-6.103-5.195-2.083-2.284-3.532-2.58-4.355-2.417z"/><path fill="#fff" d="M18.497 16.551c-1.928-.128-2.961-.9-3.917-1.615q-.249-.192-.497-.365c-.326-.231-.776-.724-1.316-1.315-1.483-1.62-3.634-3.969-5.614-3.54-1.997.428-2.057 2.987-1.8 4.5l.12.257.009-.017.124-.245c-.086-2.083.788-3.531 2.014-3.643 1.337-.12 2.289.686 4.787 3.172 2.499 2.486 3.917 2.974 5.255 2.927q.488-.019.835-.116"/><path fill="#fff" d="M9.034 17.571c-2.64-.043-2.678-2.327-2.37-3.467.335 1.684.746 2.417 2.37 2.537 1.299.099 3.648-.883 4.663-1.388l1.106.857c-1.08.364-2.473 1.508-5.769 1.457z"/><path fill="#fff" d="M6.532 15.133c.008 1.123.531 2.408 2.502 2.438 2.529.035 3.943-.63 4.946-1.11.304-.141.574-.27.823-.355l-.656-.502c-1.183.587-3.415 1.5-5.087 1.5-1.508 0-2.246-1.106-2.528-1.971M18.124 13.736c-.985-.086-2.271.514-2.785.818l1.007.892c.188-.142.771-.429 1.586-.438.822-.012 1.182.729 1.26 1.106 1.182-1.08.158-2.271-1.072-2.378z"/><path fill="#fff" d="M15.772 14.936c.608-.228 1.71-.566 2.395-.515.84.06 1.157.742 1.106 1.616 1.054-1.059.047-2.194-1.149-2.301-.985-.086-2.271.514-2.785.818l.428.382z"/></svg>