<svg xmlns="http://www.w3.org/2000/svg" width="24" height="24" fill="none" viewBox="0 0 24 24"><path fill="#fff" fill-rule="evenodd" d="m11.966 20.143-6.823-4.076v-8.13l6.823-4.08 6.891 4.08v8.134zm1.11-14.769L8.927 7.903l2.992 1.765 4.131-2.485zm-6.219 7.813V9.043l1.577-.896 2.958 1.787-1.535.9v4.003zm0 3.051v-2.545l3 1.804v2.529zm6-3.711v6.116l.857-.622v-4.843L15 12.407V17.4l.857-.622V11.88l1.286-.78v5.138l.857-.643v-6.18zM8.006 6.938l.634-.424.57.476-.638.42zm5.34 2.473-.634.42.565.472.635-.42zM9.634 5.966l.635-.42.566.47-.635.425-.566-.471zm5.336 2.472-.634.42.566.476.634-.42-.566-.471zm-3.716-3.432.635-.42.566.47-.635.425zm5.336 2.472-.634.42.566.472.634-.416-.566-.471zm-10.174.399.638-.42.566.471-.638.425-.566-.472zm-.844 1.226.857.424v.754l-.857-.428zm0 1.911.857.42v.754l-.857-.428zm.857 2.332-.857-.425v.75l.857.429zm-.857 1.487.857.42v.754l-.857-.429zm5.571-2.666-.857-.429v.755l.857.428zm0 1.907-.857-.424v.75l.857.428zm-.857 1.487.857.425v.754l-.857-.429v-.754zm.857 2.332-.857-.425v.75l.857.429zm.613-7.543-.634.424.565.472.635-.42-.566-.472z" clip-rule="evenodd"/></svg>