<svg xmlns="http://www.w3.org/2000/svg" width="24" height="24" fill="none" viewBox="0 0 24 24"><path fill="#fff" d="M12.711 6.741c.202-.634-.342-1.02-.638-1.135-.6-.129-.9.325-.999.557-.334 1.063-1.071 3.283-1.225 3.806-.185.651.184 1.092.767 1.174a.84.84 0 0 0 .865-.48z"/><path fill="#fff" d="M12.737 6.154c-.21-.643-.878-.634-1.187-.548a.926.926 0 0 0-.54 1.045c.36 1.08 1.119 3.365 1.307 3.888.232.651.896.724 1.414.441.429-.231.382-.66.322-.849zM10.521 11.143c.686.008.9-.557.918-.879a.93.93 0 0 0-.845-.835 409 409 0 0 0-3.998 0c-.703.012-1.157.561-1.046 1.144.086.48.489.566.686.57 1.135.004 3.595-.009 4.285 0"/><path fill="#fff" d="M9.244 13.599c.557.42 1.097.021 1.295-.232.308-.544 0-1.028-.193-1.2a374 374 0 0 0-3.407-2.494c-.579-.412-1.14-.112-1.393.428-.206.446.068.806.231.93l3.472 2.572z"/><path fill="#fff" d="M7.629 16.564c-.228.66.312 1.055.612 1.166.613.129.978-.313 1.08-.549.378-1.11 1.166-3.467 1.338-4.011.214-.677-.24-1.123-.832-1.2-.484-.06-.746.313-.814.506z"/><path fill="#fff" d="M7.95 16.161c-.561.416-.339 1.046-.154 1.308.428.454.977.3 1.2.162.934-.702 2.923-2.194 3.368-2.545.557-.437.437-1.063-.008-1.457-.365-.33-.785-.172-.952-.052z"/><path fill="#fff" d="M14.807 17.567c.562.416 1.097.013 1.294-.24.3-.548-.008-1.028-.201-1.2-.947-.686-2.957-2.143-3.424-2.468-.583-.408-1.145-.103-1.389.437-.206.445.073.805.236.93.93.673 2.923 2.125 3.484 2.541"/><path fill="#fff" d="M14.486 17.16c.223.664.887.643 1.195.549a.97.97 0 0 0 .519-1.093 282 282 0 0 0-1.384-3.995c-.245-.668-.875-.745-1.389-.441-.42.249-.398.699-.338.896z"/><path fill="#fff" d="M17.854 11.113c.566-.407.352-1.042.172-1.307a.964.964 0 0 0-1.2-.172c-.943.686-2.949 2.156-3.399 2.503-.566.429-.45 1.059-.008 1.457.36.33.784.18.951.06.926-.677 2.919-2.134 3.484-2.541"/><path fill="#fff" d="M17.4 11.143c.699.008.909-.532.921-.853a.97.97 0 0 0-.857-.861c-1.17-.009-3.651-.009-4.221 0-.707.008-.986.565-.874 1.152.09.48.531.558.737.562 1.148.008 3.6-.009 4.298 0z"/></svg>