<svg xmlns="http://www.w3.org/2000/svg" width="24" height="24" fill="none" viewBox="0 0 24 24"><path fill="#fff" d="M12.454 6.446a5.6 5.6 0 0 1 4.076 2.258l1.041-.758a6.88 6.88 0 0 0-5.117-2.786zm-4.692.171a6.857 6.857 0 0 0 1.654 11.73l.441-1.208a5.572 5.572 0 0 1-1.285-9.527l-.815-.995zm5.25 10.869.214 1.268A6.86 6.86 0 0 0 17.46 16.2l-.947-.878a5.6 5.6 0 0 1-3.502 2.164M10.303 7.714c.712 0 1.29-.575 1.29-1.285s-.578-1.286-1.29-1.286-1.29.576-1.29 1.286.578 1.285 1.29 1.285"/><path fill="#fff" d="M9.013 12.857A.86.86 0 0 0 9.874 12a.86.86 0 0 0-.861-.857.86.86 0 0 0-.861.857.86.86 0 0 0 .861.857M11.362 18.857c.594 0 1.075-.48 1.075-1.071 0-.592-.481-1.072-1.075-1.072-.595 0-1.076.48-1.076 1.072s.481 1.071 1.076 1.071M13.847 13.817a2.576 2.576 0 0 1-4.084-.574l-1.286.3a3.87 3.87 0 0 0 6.283 1.183zm.129-3.497a2.575 2.575 0 0 0-4.187.394H8.374a3.87 3.87 0 0 1 6.575-1.242z"/></svg>