<svg xmlns="http://www.w3.org/2000/svg" width="24" height="24" fill="none" viewBox="0 0 24 24"><path fill="#fff" d="M14.079 15.013h-7.65V9.257c0-2.04 1.671-3.69 3.737-3.69h3.913c2.635.005 4.778 2.118 4.778 4.723s-2.143 4.723-4.778 4.723"/><path fill="#fff" d="M10.252 9.347C7.912 8.19 7.723 7.033 7.929 6.305a3.67 3.67 0 0 0-1.5 2.957v5.858h7.65c1.127 0 2.16-.497 2.97-1.135-.399-2.795-3.6-3.06-6.797-4.638"/><path fill="#fff" d="M6.429 10.552v6.175c0 1.578 1.607 2.606 2.974 1.907l.45-.23c2.229-1.158 1.997-4.522-.364-5.34-1.693-.575-3.06-.96-3.06-2.512M10.74 5.572c.557.613 1.74 1.388 4.294 1.885 1.293.253 2.523.757 3.622 1.483a4.78 4.78 0 0 0-4.577-3.368z"/></svg>