<svg xmlns="http://www.w3.org/2000/svg" width="24" height="24" fill="none" viewBox="0 0 24 24"><path fill="#fff" d="M5.927 14.957c.318-.369 1.295-.814 3-.814h3.108c2.27.004 6.814-1.132 6.814-4.847.111-1.243-.617-3.725-4.432-3.725-3.814 0-5.262 1.14-5.914 2.37l-2.777 6.905a.113.113 0 0 0 .107.154.12.12 0 0 0 .094-.043m3.93-3.231.956-2.653a.3.3 0 0 1 .051-.086c.258-.304 1.42-.844 2.542-.844h.056c1.44 0 2.824 0 2.824 1.123 0 1.14-1.659 2.305-3.737 2.305h-1.843c-.326 0-.6.086-.759.129zM9.575 17.983c-.228.514-.695.441-.978.441-2.571 0-3.085-1.003-3.021-1.508.553-1.98 4.286-1.916 4.77-1.916.39 0 .394.283.347.428z"/></svg>