<svg width="24" height="24" viewBox="0 0 24 24" fill="none" xmlns="http://www.w3.org/2000/svg">
<path fill-rule="evenodd" clip-rule="evenodd" d="M22 12C22 6.47656 17.5234 2 12 2C6.47656 2 2 6.47656 2 12C2 17.5234 6.47656 22 12 22C17.5234 22 22 17.5234 22 12ZM8.48633 12C8.48633 13.9434 10.0605 15.5156 12.002 15.5156C13.7422 15.5156 15.1836 14.2461 15.4629 12.5859H19.0059C18.707 16.1953 15.6855 19.0313 12 19.0313C8.11719 19.0313 4.96875 15.8828 4.96875 12C4.96875 8.11719 8.11719 4.96875 12 4.96875C15.6855 4.96875 18.707 7.80469 19.0059 11.4141H15.4648C15.1875 9.75391 13.7422 8.48438 12.002 8.48438C10.0605 8.48438 8.48633 10.0566 8.48633 12Z" fill="white"/>
</svg>
