<svg width="24" height="24" viewBox="0 0 24 24" fill="none" xmlns="http://www.w3.org/2000/svg">
<path d="M15.083 18.0974H13.846L12.3775 16.7406V16.0463L13.9018 14.5938V12.2793L15.897 10.9785L18.1716 12.6943L15.083 18.0974ZM9.97526 14.4501L10.2067 12.2793L9.4565 10.332H13.8699L13.1357 12.2793L13.3432 14.4501H9.97526ZM10.9808 16.7406L9.51237 18.1133H8.25937L5.15483 12.6943L7.44534 10.9944L9.4565 12.2793V14.5938L10.9808 16.0463V16.7406ZM8.24342 6.32562H15.067L15.8811 9.79729H7.44534L8.24342 6.32562ZM11.6592 2L3 7.00399V17.004L11.6592 22L20.3264 17.004V7.00399L11.6592 2Z" fill="white"/>
</svg>
