<svg width="24" height="24" viewBox="0 0 24 24" fill="none" xmlns="http://www.w3.org/2000/svg">
<path fill-rule="evenodd" clip-rule="evenodd" d="M11.9942 20C9.61836 19.9982 7.7046 19.4339 6.36744 18.4203C5.01425 17.3945 4.29639 15.9388 4.29639 14.2915C4.29639 12.7044 5.01268 11.5599 5.82316 10.7863C6.45832 10.1801 7.15923 9.79183 7.64729 9.56849C7.53692 9.2332 7.39922 8.79426 7.27603 8.34089C7.11118 7.73423 6.94947 7.02244 6.94947 6.50085C6.94947 5.88348 7.08544 5.26346 7.45208 4.78169C7.83944 4.27268 8.42258 4 9.12412 4C9.67241 4 10.1379 4.20132 10.5023 4.54863C10.8507 4.88061 11.0825 5.32148 11.2426 5.78106C11.5239 6.58863 11.6334 7.60321 11.6641 8.61571H12.3361C12.3668 7.60321 12.4763 6.58863 12.7576 5.78106C12.9177 5.32148 13.1496 4.88061 13.4979 4.54863C13.8623 4.20132 14.3278 4 14.8761 4C15.5776 4 16.1608 4.27268 16.5481 4.78169C16.9148 5.26346 17.0507 5.88348 17.0507 6.50085C17.0507 7.02244 16.8891 7.73423 16.7241 8.34089C16.601 8.79426 16.4633 9.2332 16.3529 9.56849C16.841 9.79183 17.5419 10.1801 18.1771 10.7863C18.9875 11.5599 19.7039 12.7044 19.7039 14.2915C19.7039 15.9388 18.986 17.3945 17.6328 18.4203C16.2956 19.4339 14.3818 19.9982 12.0061 20H11.9942ZM9.31984 14.6884C9.77623 14.6884 10.1462 14.2807 10.1462 13.4978C10.1462 12.7149 9.77623 12.3072 9.31984 12.3072C8.86345 12.3072 8.49347 12.7149 8.49347 13.4978C8.49347 14.2807 8.86345 14.6884 9.31984 14.6884ZM14.6913 14.6884C15.1476 14.6884 15.5176 14.2807 15.5176 13.4978C15.5176 12.7149 15.1476 12.3072 14.6913 12.3072C14.2348 12.3072 13.8649 12.7149 13.8649 13.4978C13.8649 14.2807 14.2348 14.6884 14.6913 14.6884Z" fill="white"/>
</svg>
