<svg xmlns="http://www.w3.org/2000/svg" width="24" height="24" fill="none" viewBox="0 0 24 24">
    <path fill="#fff" d="M15.829 13.626V9h.93v4.626zM4.993 15H3v-4.626h1.913c.93 0 1.471.507 1.471 1.3 0 .513-.348.845-.588.955.287.13.655.423.655 1.04 0 .863-.609 1.33-1.458 1.33m-.154-3.82h-.91v1.065h.91c.395 0 .615-.214.615-.533 0-.317-.22-.532-.615-.532m.06 1.877h-.97v1.137h.97c.42 0 .622-.259.622-.571s-.201-.565-.622-.565zm4.388.046V15h-.923v-1.898l-1.431-2.728h1.01l.889 1.864.877-1.864h1.01zM13.355 15h-1.993v-4.626h1.913c.93 0 1.47.507 1.47 1.3 0 .513-.347.845-.588.955.287.13.655.423.655 1.04 0 .863-.608 1.33-1.457 1.33m-.155-3.82h-.91v1.065h.91c.395 0 .616-.214.616-.533 0-.317-.22-.532-.616-.532m.06 1.877h-.97v1.137h.97c.422 0 .622-.259.622-.571s-.2-.565-.622-.565zm6.495-1.876V15h-.929v-3.82h-1.245v-.806H21v.806z"/>
</svg>
