<svg xmlns="http://www.w3.org/2000/svg" width="24" height="24" fill="none" viewBox="0 0 24 24">
    <path fill="#fff" d="M18.028 5.023c.027-.473.091-.785.22-1.07.051-.112.1-.204.107-.204a.7.7 0 0 1-.05.185c-.094.276-.11.654-.044 1.094.082.558.129.638.72 1.241.278.283.601.64.718.792l.213.279-.213-.2c-.26-.243-.859-.717-.991-.785-.089-.045-.102-.044-.156.01-.05.05-.061.125-.069.48-.01.553-.086.908-.269 1.263-.099.193-.114.152-.025-.065.067-.162.074-.233.073-.769 0-1.076-.129-1.335-.881-1.778a8 8 0 0 0-.697-.36 3 3 0 0 1-.341-.166c.02-.021.754.192 1.05.305.438.169.511.19.564.17.036-.013.053-.117.07-.422"/>
    <path fill="#fff" d="M8.751 3.457c-.26-.04-.271-.045-.149-.063.235-.036.79.013 1.172.103.892.211 1.704.751 2.57 1.711l.231.255.33-.053c1.387-.221 2.799-.045 3.98.497.324.15.836.447.9.523.02.024.058.181.084.348.087.578.043 1.021-.134 1.353-.097.18-.103.237-.038.39a.38.38 0 0 0 .34.215c.294 0 .61-.472.756-1.129l.058-.26.115.13c.632.711 1.128 1.682 1.213 2.372l.022.18-.106-.163a2 2 0 0 0-.601-.629c-.424-.278-.872-.373-2.059-.435-1.071-.057-1.678-.148-2.28-.343-1.023-.332-1.539-.774-2.754-2.36-.54-.704-.874-1.094-1.206-1.408-.754-.713-1.495-1.087-2.444-1.234m.506 3.413c-.529-.725-.856-1.835-.785-2.665l.022-.257.12.022c.226.041.616.185.798.296.501.302.718.7.938 1.723.065.3.15.639.189.753.063.185.3.617.493.897.139.202.046.297-.26.27-.47-.042-1.105-.479-1.515-1.04m8.129 5.389c-2.471-.99-3.342-1.849-3.342-3.298 0-.213.008-.388.017-.388s.104.07.212.157c.501.4 1.062.57 2.616.795.914.133 1.428.24 1.903.397 1.508.497 2.441 1.507 2.664 2.882.064.4.026 1.149-.078 1.544-.083.312-.336.874-.403.895-.018.006-.037-.065-.041-.16-.026-.517-.288-1.02-.729-1.396-.5-.428-1.174-.77-2.82-1.428m-1.735.411a4 4 0 0 0-.118-.52l-.063-.187.117.13c.162.181.29.413.398.721.083.236.092.306.092.688 0 .376-.011.454-.088.666-.12.334-.27.571-.521.825-.452.457-1.032.71-1.87.815-.145.018-.57.049-.942.068-.94.049-1.559.15-2.115.343a.5.5 0 0 1-.158.038c-.023-.022.356-.246.668-.396.441-.211.88-.327 1.863-.49.486-.08.987-.178 1.115-.216 1.202-.367 1.82-1.314 1.623-2.485"/>
    <path fill="#fff" d="M16.784 14.67c-.329-.702-.404-1.38-.224-2.012.02-.068.05-.123.069-.123a.7.7 0 0 1 .172.093c.151.1.455.271 1.263.71 1.009.547 1.584.97 1.975 1.454.342.424.554.907.656 1.495.058.334.024 1.136-.062 1.472-.27 1.058-.901 1.89-1.8 2.375-.132.071-.25.13-.263.13s.035-.121.107-.27c.302-.629.337-1.24.108-1.921-.14-.417-.426-.926-1.002-1.785-.67-1-.835-1.266-1-1.618m-9.281 3.787c.917-.77 2.058-1.317 3.097-1.485.448-.072 1.194-.044 1.61.062.664.17 1.259.548 1.568 1 .302.441.432.826.567 1.681.053.338.111.677.129.754.101.443.298.798.543.976.388.282 1.057.3 1.715.045a1 1 0 0 1 .215-.067c.024.024-.307.244-.54.36a1.85 1.85 0 0 1-.897.217c-.603 0-1.103-.305-1.52-.926a7 7 0 0 1-.41-.815c-.442-1-.66-1.304-1.17-1.637-.446-.29-1.02-.342-1.453-.131-.567.276-.725.998-.319 1.455.162.181.463.338.71.368a.756.756 0 0 0 .856-.754c0-.3-.116-.472-.408-.603-.4-.18-.829.03-.827.403.001.16.07.26.231.331.103.047.105.05.021.033-.366-.076-.452-.515-.157-.806.353-.35 1.085-.196 1.336.282.105.2.118.6.026.842-.206.54-.806.824-1.415.67-.415-.106-.584-.22-1.083-.732-.869-.89-1.206-1.062-2.458-1.256l-.24-.038z"/>
    <path fill="#fff" fill-rule="evenodd" d="M3.427 2.532c2.9 3.501 4.898 4.946 5.12 5.25.183.253.114.48-.2.657a1.9 1.9 0 0 1-.713.199c-.203 0-.273-.078-.273-.078-.118-.112-.184-.092-.79-1.16a184 184 0 0 0-1.563-2.392c-.044-.041-.043-.04 1.478 2.666.245.565.048.772.048.852 0 .163-.044.25-.247.474-.338.375-.49.796-.598 1.668-.122.978-.466 1.668-1.419 2.85-.557.691-.649.818-.79 1.097-.176.35-.225.547-.245.99-.02.47.02.772.164 1.22.126.393.257.652.594 1.17.29.447.457.78.457.91 0 .103.02.103.47.002 1.076-.242 1.95-.667 2.442-1.188.304-.323.376-.5.378-.943.001-.289-.009-.35-.087-.516-.128-.27-.361-.495-.874-.844-.673-.457-.96-.826-1.04-1.332-.064-.415.011-.708.383-1.483.385-.803.48-1.145.545-1.954.042-.523.1-.729.25-.894.158-.173.3-.231.69-.284.635-.087 1.04-.25 1.372-.555.288-.264.41-.52.428-.903l.014-.29-.161-.187C8.676 6.857 3.036 2 3 2c-.007 0 .185.24.427.532m1.35 13.604a.51.51 0 0 0-.158-.677c-.209-.138-.533-.073-.533.107 0 .054.03.094.1.13.115.059.124.125.033.261-.093.138-.085.26.02.342.171.133.413.06.539-.163m5.044-6.515c-.299.091-.588.406-.678.735-.055.201-.024.554.058.663.133.176.26.223.608.22.679-.005 1.27-.294 1.338-.657.056-.296-.203-.708-.56-.889-.185-.093-.577-.13-.766-.072m.794.618c.104-.148.059-.308-.12-.417-.339-.206-.852-.035-.852.284 0 .158.268.332.513.332.163 0 .387-.097.459-.2" clip-rule="evenodd"/>
</svg>
