<svg width="24" height="24" viewBox="0 0 24 24" fill="none" xmlns="http://www.w3.org/2000/svg">
<path d="M12.0003 4.41384C7.81037 4.41384 4.41384 7.81037 4.41384 12.0003C4.41384 16.1898 7.81037 19.5862 12.0003 19.5862C16.1898 19.5862 19.5862 16.1898 19.5862 12.0003C19.5862 7.81037 16.1898 4.41384 12.0003 4.41384ZM3 12.0003C3 7.02975 7.02975 3 12.0003 3C16.9703 3 21 7.02975 21 12.0003C21 16.9703 16.9708 21 12.0003 21C7.02975 21 3 16.9708 3 12.0003Z" fill="white"/>
<path d="M13.2684 14.7092C13.225 14.62 13.1909 14.5267 13.1662 14.4308C13.1369 14.3213 13.1125 14.2105 13.0933 14.0988C12.9962 14.2036 12.889 14.2988 12.7735 14.3829C12.6527 14.4712 12.5181 14.55 12.3686 14.6181C12.2135 14.6858 12.0515 14.7364 11.8854 14.7692C11.6969 14.8108 11.5043 14.8312 11.3113 14.83C10.9972 14.833 10.6849 14.784 10.387 14.6847C10.1241 14.5964 9.88025 14.4592 9.66856 14.2801C9.46966 14.1104 9.30898 13.9003 9.19712 13.6641C9.08337 13.4179 9.02558 13.1497 9.0279 12.8787C9.0279 12.19 9.28333 11.6584 9.7952 11.2839C10.3108 10.905 11.0777 10.6937 12.0967 10.6937H12.8337V10.3292C12.8337 9.76255 12.4037 9.30807 11.8369 9.30807C11.4949 9.30807 11.2447 9.42674 11.0877 9.57568C10.9308 9.72045 10.8521 9.91626 10.8521 10.1616H9.17317C9.17317 9.88385 9.2333 9.61988 9.3541 9.37033C9.47914 9.12023 9.6585 8.85737 9.89156 8.66794C10.1294 8.4785 10.4173 8.32951 10.7557 8.22095C11.098 8.10814 11.4884 8.05173 11.9274 8.05173C12.3222 8.05173 12.6884 8.10015 13.0267 8.197C13.3695 8.29331 13.6653 8.43646 13.9154 8.62589C14.1644 8.81479 14.3603 9.05478 14.5008 9.34425C14.6417 9.63056 14.7125 9.96257 14.7125 10.3415V13.1441C14.7125 13.4948 14.7343 13.7848 14.779 14.0142C14.8232 14.2435 14.8876 14.441 14.9723 14.6065V14.7092H13.2684ZM12.3292 13.3133C12.5655 13.183 12.7352 13.0095 12.831 12.8424V11.7579H12.1753C11.6753 11.7579 11.0206 11.8112 10.7919 12.3348C10.6472 12.6551 10.6801 13.0584 10.943 13.3075C11.3356 13.6704 11.9146 13.5421 12.3292 13.3133Z" fill="white"/>
</svg>
