<svg width="24" height="24" viewBox="0 0 24 24" fill="none" xmlns="http://www.w3.org/2000/svg">
<path d="M11.9998 3V9.65168L17.6246 12.1675L11.9998 3ZM11.9998 3L6.375 12.1664L11.9998 9.65168V3ZM11.9998 16.4777V21L17.6246 13.2154L11.9998 16.4777ZM11.9998 21V16.4777L6.375 13.2154L11.9998 21Z" fill="white"/>
<path d="M11.9998 15.4296L17.6246 12.1673L11.9998 9.65155V15.4296ZM6.375 12.1673L11.9998 15.4296V9.65155L6.375 12.1673Z" fill="white"/>
<path fill-rule="evenodd" clip-rule="evenodd" d="M11.9998 15.4298L6.375 12.1675L11.9998 3L17.6246 12.1664L11.9998 15.4298ZM6.74985 11.9018L11.9116 3.49139V9.60654L6.74985 11.9018ZM6.6732 12.1308L11.9116 9.80394V15.1684L6.6732 12.1308ZM12.0912 9.80394V15.1684L17.3243 12.1308L12.0912 9.80394ZM12.0912 9.60654L17.2529 11.9018L12.0912 3.49139V9.60654Z" fill="white"/>
<path fill-rule="evenodd" clip-rule="evenodd" d="M11.9998 16.4073L6.375 13.2122L11.9998 21L17.6246 13.2111L11.9998 16.4073ZM7.00499 13.7739L11.9105 16.5648V20.5694L7.00499 13.7739ZM12.0901 16.5648V20.5694L16.9945 13.7739L12.0901 16.5648Z" fill="white"/>
</svg>
