<svg width="24" height="24" viewBox="0 0 24 24" fill="none" xmlns="http://www.w3.org/2000/svg">
<path d="M10.2222 5.58051L10.6495 9.74943L12.2326 4.99744L10.2222 5.58051Z" fill="#C9CED6"/>
<path d="M7.62012 3L10.2214 5.58043L12.2318 4.99671L7.62012 3Z" fill="#E1E4E8"/>
<path d="M9.65334 9.4575L10.6494 9.74935L10.2214 5.58043L7.62012 3L9.65334 9.4575Z" fill="#F1F2F4"/>
<path d="M5.49251 3.43518L7.86189 11.2523L5.44235 15.3319L2 7.65361L5.49251 3.43518Z" fill="#C9CED6"/>
<path d="M14.6926 4.81738L16.9988 8.32224L12.8008 10.3505L14.6926 4.81738Z" fill="#F1F2F4"/>
<path d="M19.5908 3.57019L16.9986 8.32219L14.6924 4.81733L19.5908 3.57019Z" fill="#F7F8F9"/>
<path d="M21.987 8.7889L16.998 8.32219L19.5896 3.57019L21.987 8.7889Z" fill="#E1E4E8"/>
<path d="M19.2215 12.5092C19.1218 12.3343 16.998 8.32227 16.998 8.32227L22 8.77098L19.2215 12.5092Z" fill="#C9CED6"/>
<path d="M12.8013 10.3505L19.2221 12.5092L16.998 8.32227L12.8013 10.3505Z" fill="#E1E4E8"/>
<path d="M10.1401 11.6606L13.4007 20.5771L17.6802 14.2771L10.1401 11.6606Z" fill="#A83C3B"/>
<path d="M11.114 21L5.44238 15.332L7.86193 11.2531L11.114 21Z" fill="#C73C38"/>
<path d="M13.0098 14.3979L13.4007 20.5777L10.1401 11.6613L13.0098 14.3979Z" fill="#F1F2F4"/>
<path d="M17.6802 14.2771L13.0092 14.3979L10.1401 11.6606L17.6802 14.2771Z" fill="#E1E4E8"/>
<path d="M13.4006 20.5776L13.0098 14.3985L17.6808 14.277L13.4006 20.5776Z" fill="#C9CED6"/>
<path d="M2 7.65422L7.86189 11.2529L5.49251 3.43579L2 7.65422Z" fill="#E1E4E8"/>
<path d="M7.86193 11.2531L5.44238 15.332L9.48538 16.1176L7.86193 11.2531Z" fill="#DB4545"/>
<path d="M11.114 21L5.44238 15.332L7.86193 11.2531L11.114 21Z" fill="#C9CED6"/>
<path d="M7.86193 11.2531L5.44238 15.332L9.48538 16.1176L7.86193 11.2531Z" fill="#E1E4E8"/>
</svg>
