<svg width="24" height="24" viewBox="0 0 24 24" fill="none" xmlns="http://www.w3.org/2000/svg">
<path d="M10.5958 5.1673L9.88457 5.56852V7.4114C9.88954 7.59018 9.9653 7.75999 10.0957 7.8847C10.226 8.00941 10.4007 8.07919 10.5826 8.07919C10.7645 8.07919 10.9392 8.00941 11.0696 7.8847C11.2 7.75999 11.2757 7.59018 11.2807 7.4114V5.55789C11.2823 5.12974 10.9733 4.95387 10.5958 5.1673Z" fill="white"/>
<path d="M13.4045 5.1673L14.1157 5.56852V7.4114C14.1107 7.59018 14.035 7.75999 13.9046 7.8847C13.7742 8.00941 13.5995 8.07919 13.4176 8.07919C13.2357 8.07919 13.061 8.00941 12.9307 7.8847C12.8003 7.75999 12.7245 7.59018 12.7195 7.4114V5.55789C12.7195 5.12974 13.0269 4.95387 13.4045 5.1673Z" fill="white"/>
<path d="M6.56484 6.75301L7.27609 7.15707L9.88401 5.67628L10.5953 5.27481C10.9727 5.06164 11.2817 5.23725 11.2817 5.6654V5.00595C11.2817 4.62365 11.101 4.29289 10.7984 4.12116C10.4957 3.94943 10.1135 3.96083 9.77707 4.15198L6.54798 5.98529C6.18867 6.20001 6.19367 6.54243 6.56484 6.75301Z" fill="white"/>
<path d="M17.4349 6.75301L16.7236 7.15707L14.1157 5.67628L13.4045 5.27481C13.0269 5.0619 12.7195 5.23725 12.7195 5.6654V5.00595C12.7195 4.62365 12.9002 4.29289 13.2029 4.12116C13.5056 3.94943 13.8879 3.96083 14.224 4.15198L17.4536 5.98529C17.8116 6.20001 17.8066 6.54243 17.4349 6.75301Z" fill="white"/>
<path d="M17.9169 6.24918L17.3571 5.93138C17.7164 6.14636 17.7114 6.48851 17.3405 6.69909L13.4708 8.89529C13.0799 9.11725 12.5396 9.22734 11.9998 9.22579C11.4601 9.22423 10.9198 9.11725 10.5289 8.89529L6.66046 6.69909C6.28929 6.48851 6.28429 6.14636 6.6436 5.93138L6.08277 6.24918C5.74611 6.44034 5.54512 6.7597 5.54512 7.10394C5.54512 7.44817 5.74611 7.76675 6.08277 7.95868L9.83051 10.0862C10.4364 10.4297 11.2125 10.6014 11.9906 10.6014H12.0106C12.7883 10.6014 13.5648 10.4297 14.1707 10.0862L17.9185 7.95868C18.2552 7.76753 18.4562 7.44842 18.4562 7.10394C18.4562 6.75944 18.2536 6.44034 17.9169 6.24918Z" fill="white"/>
<path d="M6.70781 16.5464L7.41643 16.9505L9.03941 16.0289C9.12023 15.9845 9.19129 15.9249 9.24847 15.8533C9.30565 15.7816 9.34773 15.6996 9.37237 15.6118C9.39696 15.5241 9.4036 15.4324 9.39185 15.3421C9.3801 15.2518 9.35022 15.1647 9.30393 15.0859C9.2576 15.0071 9.19586 14.9381 9.12218 14.8829C9.04854 14.8278 8.96447 14.7876 8.87488 14.7647C8.78529 14.7418 8.69195 14.7366 8.60028 14.7495C8.50866 14.7624 8.42053 14.7931 8.34106 14.8398L6.70781 15.7665C6.33138 15.9807 6.33112 16.3317 6.70781 16.5464Z" fill="white"/>
<path d="M5.30353 14.1546L5.30195 13.3503L6.92413 12.4278C7.08454 12.3367 7.27517 12.312 7.45407 12.3592C7.63299 12.4063 7.78552 12.5214 7.87812 12.6791C7.97073 12.8368 7.99582 13.0243 7.94788 13.2002C7.89993 13.3761 7.78288 13.5261 7.62247 13.6171L5.98923 14.5439C5.61358 14.7578 5.30432 14.5828 5.30353 14.1546Z" fill="white"/>
<path d="M10.12 19.1857V18.3775L7.51213 16.8965L6.80378 16.4924C6.42708 16.2777 6.42735 15.9268 6.80378 15.7128L6.22424 16.0426C5.88758 16.2334 5.68659 16.5528 5.68633 16.8973C5.68607 17.2418 5.88732 17.5601 6.22424 17.752L9.45304 19.584C9.82185 19.7824 10.12 19.6071 10.12 19.1857Z" fill="white"/>
<path d="M4.68491 9.92931L5.39616 10.3334V13.2955L5.398 14.1015C5.398 14.5297 5.70806 14.7048 6.08528 14.4901L5.50574 14.8198C5.16908 15.0109 4.78738 15.0223 4.4847 14.8506C4.18203 14.6789 4 14.3481 4 13.9656V10.299C4.00948 9.88553 4.31348 9.71873 4.68491 9.92931Z" fill="white"/>
<path d="M4 9.77072V10.4063C4.00948 9.99193 4.31348 9.82615 4.68491 10.0367L8.55385 12.2334C8.94475 12.4554 9.31174 12.8605 9.58119 13.3213C9.85068 13.7821 10.0256 14.2954 10.0256 14.7391V19.132C10.0256 19.5534 9.7266 19.7277 9.3578 19.5301L9.91758 19.8479C10.2542 20.0391 10.636 20.0505 10.9386 19.8787C11.2413 19.707 11.422 19.376 11.422 18.9939V14.7386C11.422 14.052 11.1849 13.3047 10.7961 12.6424C10.7943 12.6395 10.7925 12.637 10.7909 12.6341L10.7861 12.6255C10.3973 11.9633 9.85755 11.3875 9.25271 11.0456L5.50443 8.91672C5.16777 8.72556 4.78606 8.71418 4.48339 8.88592C4.18071 9.05765 4 9.38734 4 9.77072Z" fill="white"/>
<path d="M18.6969 14.1545L18.6992 13.3503L17.076 12.4288C16.9965 12.3827 16.9086 12.3526 16.8172 12.3402C16.7259 12.3278 16.6329 12.3333 16.5437 12.3563C16.4545 12.3795 16.3709 12.4197 16.2976 12.4748C16.2243 12.5298 16.1628 12.5986 16.1167 12.6772C16.0706 12.7557 16.0408 12.8424 16.029 12.9324C16.0172 13.0223 16.0236 13.1137 16.0479 13.2012C16.0721 13.2887 16.1138 13.3705 16.1705 13.4421C16.2271 13.5137 16.2977 13.5735 16.3779 13.6181L18.0112 14.5449C18.3868 14.7578 18.6958 14.5827 18.6969 14.1545Z" fill="white"/>
<path d="M17.2922 16.5464L16.5839 16.9507L14.9606 16.0291C14.8798 15.9847 14.8087 15.925 14.7515 15.8534C14.6944 15.7818 14.6523 15.6998 14.6277 15.612C14.603 15.5243 14.5964 15.4326 14.6082 15.3423C14.6199 15.252 14.6498 15.1649 14.6961 15.0861C14.7424 15.0073 14.8042 14.9383 14.8778 14.8831C14.9515 14.828 15.0355 14.7878 15.1252 14.7649C15.2148 14.742 15.3081 14.7368 15.3997 14.7497C15.4913 14.7626 15.5795 14.7933 15.6589 14.8399L17.2922 15.7667C17.6686 15.9807 17.6689 16.3316 17.2922 16.5464Z" fill="white"/>
<path d="M19.3156 9.92931L18.6043 10.3334V13.2955L18.6019 14.1015C18.6019 14.5297 18.2919 14.7048 17.9146 14.4901L18.4942 14.8198C18.8309 15.0109 19.2126 15.0223 19.5152 14.8506C19.8179 14.6789 19.9986 14.3481 19.9986 13.9656V10.299C19.9899 9.88553 19.6867 9.71873 19.3156 9.92931Z" fill="white"/>
<path d="M13.8803 19.1857V18.3775L16.4882 16.8965L17.1968 16.4924C17.5735 16.2777 17.573 15.9268 17.1968 15.7128L17.7763 16.0426C18.113 16.2334 18.314 16.5528 18.314 16.8973C18.314 17.2418 18.113 17.5601 17.7763 17.752L14.5467 19.5856C14.179 19.7824 13.8803 19.6071 13.8803 19.1857Z" fill="white"/>
<path d="M14.0829 19.8479L14.6424 19.5301C14.2737 19.7288 13.9747 19.5534 13.9747 19.132V14.7386C13.9747 14.2949 14.148 13.7803 14.419 13.3207C14.6901 12.8613 15.0547 12.4554 15.4464 12.2329L19.3151 10.0362C19.6863 9.82561 19.99 9.99241 20 10.4058V9.77072C20 9.38841 19.8193 9.05765 19.5166 8.88592C19.2139 8.71418 18.8317 8.72556 18.4956 8.91672L14.7478 11.045C14.1419 11.3882 13.6032 11.964 13.2144 12.6251C13.2128 12.6279 13.2115 12.6307 13.2097 12.6336L13.2046 12.6419C12.8159 13.3042 12.5785 14.0514 12.5785 14.7381V18.9939C12.5785 19.376 12.7592 19.7067 13.0619 19.8787C13.3646 20.0507 13.7468 20.0391 14.0829 19.8479Z" fill="white"/>
</svg>
