<svg width="24" height="24" viewBox="0 0 24 24" fill="none" xmlns="http://www.w3.org/2000/svg">
<path fill-rule="evenodd" clip-rule="evenodd" d="M9.318 15.6138C8.21475 14.7937 7.5 13.4803 7.5 12C7.5 9.51473 9.51473 7.5 12 7.5C14.4853 7.5 16.5 9.51473 16.5 12C16.5 13.6656 15.5951 15.1199 14.25 15.898V15.0051L10.218 17.3777V19.3312L9.318 20.2313V15.6138ZM10.218 16.3335L14.25 13.9609V9.53441L10.218 11.9116V16.3335ZM21 12C21 16.9705 16.9705 21 12 21C7.02945 21 3 16.9705 3 12C3 7.02945 7.02945 3 12 3C16.9705 3 21 7.02945 21 12Z" fill="white"/>
</svg>
