<svg width="24" height="24" viewBox="0 0 24 24" fill="none" xmlns="http://www.w3.org/2000/svg">
<path fill-rule="evenodd" clip-rule="evenodd" d="M18.2543 3.9852C19.2947 4.7712 19.8731 5.4768 20.0531 6.1812C20.1683 6.5808 20.0651 7.0608 19.8083 7.4196C19.5515 7.7784 19.1399 7.9788 18.6647 7.9788C18.4847 7.9788 18.3047 7.9524 18.1247 7.8996C18.0226 8.1938 17.9368 8.49346 17.8679 8.7972C18.6859 10.0894 19.1185 11.5879 19.1147 13.1172C19.1147 17.472 15.7091 21 11.5067 21C7.30431 21 3.8999 17.472 3.8999 13.1184C3.8999 8.7648 7.3055 5.2368 11.5079 5.2368C12.4367 5.2368 13.3271 5.4108 14.1515 5.7288C14.3413 5.6307 14.5267 5.52418 14.7071 5.4096C14.6363 5.29332 14.5722 5.17313 14.5151 5.0496C14.3723 4.704 14.4239 4.1316 14.6423 3.7056C14.8223 3.3456 15.1055 3.1056 15.4271 3.0396C15.5555 3.0132 15.6839 3 15.8255 3C16.5311 3 17.4179 3.36 18.2543 3.9852ZM14.6063 5.9196L14.6147 5.9148H14.6171C15.2121 5.57523 15.7755 5.18328 16.3007 4.7436C16.5575 4.8516 16.8911 5.0364 17.3027 5.316C17.7911 5.6496 18.2147 6.0216 18.4847 6.3156C18.0359 6.9264 17.7407 7.7628 17.5607 8.3484C16.7962 7.30246 15.7795 6.46694 14.6051 5.9196M14.3375 6.2748C13.4459 5.87893 12.481 5.67492 11.5055 5.676C7.5359 5.676 4.3223 9.0048 4.3223 13.1184C4.3223 17.232 7.5359 20.5608 11.5055 20.5608C15.4643 20.5608 18.6899 17.232 18.6899 13.1184C18.6929 11.8437 18.376 10.5885 17.7683 9.468L17.7647 9.5232C16.9885 8.10984 15.7903 6.97418 14.3375 6.2748ZM15.1559 5.1168L15.0323 5.2008C14.9659 5.10736 14.9081 5.00816 14.8595 4.9044C14.7059 4.5312 14.8859 3.5592 15.5027 3.426C16.1195 3.2928 17.0831 3.5856 18.0347 4.3044C18.9851 5.0244 19.5251 5.6628 19.6907 6.288C19.8431 6.9048 19.3847 7.8192 18.2531 7.5276L18.2915 7.434C18.3419 7.446 18.4067 7.446 18.4715 7.446C18.6422 7.45553 18.8105 7.40406 18.9467 7.3008C19.0196 7.24279 19.0768 7.16724 19.1127 7.08121C19.1485 6.99518 19.162 6.90146 19.1519 6.8088C19.1519 6.5544 18.9599 6.2352 18.5615 5.8488C18.2308 5.53616 17.8783 5.24743 17.5067 4.9848C16.4027 4.2252 15.6311 4.0128 15.2843 4.3716C15.0527 4.6116 15.0779 4.9044 15.1559 5.1168ZM18.7283 6.648C18.7667 6.714 18.7799 6.78 18.7799 6.8208C18.7799 6.9408 18.7403 6.9804 18.7151 7.0068C18.6418 7.05255 18.5567 7.07589 18.4703 7.074C18.5483 6.9144 18.6383 6.7812 18.7283 6.648ZM15.5543 4.6644C15.5927 4.6248 15.6959 4.5972 15.8627 4.6248C15.7343 4.7304 15.6047 4.824 15.4763 4.9176C15.4643 4.824 15.4763 4.7304 15.5543 4.6644Z" fill="white"/>
<path d="M13.7435 9.76285C14.3831 9.76285 14.9004 9.22643 14.9004 8.56522C14.9004 7.90282 14.3831 7.36642 13.7435 7.36642C13.104 7.36642 12.5879 7.90282 12.5879 8.56522C12.5879 9.22643 13.1051 9.76285 13.7435 9.76285ZM15.6323 10.6557C15.6976 10.6546 15.7622 10.6406 15.822 10.6145C15.8821 10.5885 15.9363 10.5508 15.9816 10.5038C16.027 10.4567 16.0626 10.4013 16.0866 10.3404C16.1104 10.2796 16.122 10.2145 16.1207 10.1493C16.122 10.0838 16.1104 10.0189 16.0866 9.95809C16.0626 9.89725 16.027 9.84169 15.9816 9.79465C15.9363 9.74761 15.8821 9.71005 15.822 9.68389C15.7622 9.65785 15.6976 9.64393 15.6323 9.64285C15.5669 9.64393 15.5025 9.65785 15.4425 9.68389C15.3826 9.71005 15.3284 9.74761 15.283 9.79465C15.2377 9.84169 15.202 9.89725 15.1781 9.95809C15.1542 10.0189 15.1426 10.0838 15.1439 10.1493C15.1439 10.4289 15.3623 10.6544 15.6323 10.6544" fill="white"/>
<path fill-rule="evenodd" clip-rule="evenodd" d="M4.80322 14.4353L4.84523 14.4809C5.21362 14.8817 5.73443 15.2405 6.37163 15.5249C7.64603 16.0925 9.43163 16.3805 11.5437 16.0709C13.1205 15.8369 14.1656 15.4133 15.0716 15.0449C15.3848 14.9177 15.6824 14.7977 15.9789 14.6933C16.2908 14.5865 16.5968 14.5061 16.8884 14.4341L17.036 14.3969C17.2712 14.3393 17.5028 14.2817 17.7033 14.2181C17.9042 14.1594 18.0966 14.0747 18.2756 13.9661C17.8412 17.4353 14.9744 20.1209 11.5076 20.1209C8.20043 20.1209 5.42843 17.6753 4.80322 14.4353ZM11.3936 18.2957C11.3936 18.5009 11.2328 18.6677 11.0336 18.6677C10.8345 18.6677 10.6736 18.5009 10.6736 18.2957C10.6736 18.0893 10.8356 17.9237 11.0336 17.9237C11.2328 17.9237 11.3936 18.0893 11.3936 18.2957ZM12.9104 18.4817C13.1084 18.4817 13.2704 18.3149 13.2704 18.1097C13.2714 18.0615 13.2628 18.0136 13.2452 17.9688C13.2276 17.924 13.2015 17.883 13.168 17.8484C13.1345 17.8136 13.0945 17.7859 13.0503 17.7667C13.0062 17.7476 12.9586 17.7372 12.9104 17.7365C12.7112 17.7365 12.5504 17.9033 12.5504 18.1085C12.5504 18.3149 12.7112 18.4817 12.9104 18.4817ZM12.254 19.0673C12.254 19.2221 12.1341 19.3469 11.984 19.3469C11.9113 19.3453 11.842 19.315 11.7914 19.2626C11.7408 19.2103 11.713 19.14 11.714 19.0673C11.714 18.9137 11.834 18.7877 11.984 18.7877C12.0568 18.7892 12.126 18.8195 12.1766 18.8719C12.2271 18.9242 12.255 18.9944 12.254 19.0673ZM13.6412 19.1477C13.714 19.1462 13.7832 19.1157 13.8338 19.0635C13.8844 19.0112 13.9122 18.9408 13.9112 18.8681C13.9112 18.7133 13.7912 18.5885 13.6412 18.5885C13.5685 18.5901 13.4993 18.6203 13.4486 18.6728C13.3981 18.7251 13.3703 18.7953 13.3712 18.8681C13.3703 18.9408 13.3981 19.0112 13.4486 19.0635C13.4993 19.1157 13.5685 19.1462 13.6412 19.1477ZM10.0952 17.9237C10.0952 18.2609 9.83121 18.5357 9.50363 18.5357C9.42462 18.5343 9.34665 18.5176 9.27417 18.4861C9.20169 18.4547 9.13615 18.4092 9.08129 18.3524C9.02643 18.2955 8.98335 18.2283 8.9545 18.1547C8.92566 18.0811 8.91164 18.0026 8.91323 17.9237C8.91323 17.5841 9.17722 17.3105 9.50363 17.3105C9.83001 17.3105 10.0952 17.5853 10.0952 17.9237ZM14.786 17.0297C14.865 17.0284 14.943 17.0115 15.0155 16.9801C15.0879 16.9487 15.1535 16.9032 15.2085 16.8463C15.2633 16.7894 15.3064 16.7223 15.3352 16.6487C15.364 16.5752 15.3779 16.4967 15.3764 16.4177C15.3779 16.3386 15.364 16.2601 15.3352 16.1866C15.3064 16.113 15.2633 16.0459 15.2085 15.9891C15.1535 15.9322 15.0879 15.8867 15.0155 15.8552C14.943 15.8237 14.865 15.8069 14.786 15.8057C14.707 15.8068 14.6289 15.8235 14.5562 15.8549C14.4836 15.8862 14.4179 15.9317 14.3629 15.9886C14.3079 16.0455 14.2647 16.1126 14.2358 16.1863C14.2069 16.2599 14.1929 16.3386 14.1944 16.4177C14.1944 16.7549 14.4584 17.0297 14.786 17.0297Z" fill="white"/>
<path d="M18.3193 13.118C18.3193 12.3055 16.9573 11.84 15.1453 11.6803C13.8349 11.5736 12.5113 11.7068 10.9945 12.1856C9.68407 12.5852 8.50205 12.5191 7.64045 12.4124C5.72645 12.1856 4.67285 12.1604 4.67285 13.118C4.67285 14.5027 7.39685 16.2331 11.4829 15.6344C13.5517 15.3284 14.6185 14.702 15.8389 14.2759C17.1625 13.8236 18.3193 13.8367 18.3193 13.118Z" fill="white"/>
</svg>
