<svg width="24" height="24" viewBox="0 0 24 24" fill="none" xmlns="http://www.w3.org/2000/svg">
<path fill-rule="evenodd" clip-rule="evenodd" d="M21 13.0393C21 13.1314 20.9803 13.219 20.9427 13.295L17.0826 20.5057C16.9189 20.8116 16.6163 21 16.2889 21H7.71114C7.38371 21 7.08116 20.8116 6.91745 20.5057L3.05694 13.2944C3.01954 13.2184 3 13.1312 3 13.0393C3 12.7408 3.22434 12.4988 3.50107 12.4988H7.73639L8.80974 14.465L8.81633 14.4768C8.95956 14.7249 9.26094 14.8057 9.49574 14.6566L9.50789 14.6486C9.61615 14.5753 9.69454 14.4601 9.72663 14.3262L11.0943 8.62411L12.2687 17.8042L12.2704 17.8169C12.3138 18.1058 12.5634 18.3058 12.8335 18.2656L12.8458 18.2636C13.0414 18.2293 13.2003 18.0734 13.2502 17.8657L14.8987 10.9925L15.5755 12.2326L15.5823 12.2445C15.6736 12.4024 15.8342 12.4988 16.0073 12.4988H20.4989C20.7757 12.4988 21 12.7408 21 13.0393ZM16.2889 3C16.6163 3 16.9189 3.18838 17.0826 3.49419L20.943 10.7053C20.9803 10.7812 21 10.8688 21 10.9607C21 11.2592 20.7757 11.5012 20.4989 11.5012H16.2497L15.1764 9.53491L15.169 9.52181C15.101 9.40505 14.9942 9.32052 14.8701 9.2859L14.8584 9.28281C14.5943 9.21621 14.3278 9.38898 14.2595 9.67374L12.8918 15.3758L11.7175 6.19579L11.7156 6.18255C11.6837 5.97159 11.5392 5.80021 11.3466 5.74647C11.0787 5.67172 10.8053 5.84536 10.736 6.1343L9.08744 13.0073L8.4106 11.7673L8.40388 11.7554C8.31252 11.5976 8.15196 11.5012 7.9788 11.5012H3.50107C3.22434 11.5012 3 11.2592 3 10.9607C3 10.8695 3.01901 10.7832 3.05572 10.7078L6.91745 3.49419C7.08116 3.18838 7.38371 3 7.71114 3H16.2889Z" fill="white"/>
</svg>
