<svg width="24" height="24" viewBox="0 0 24 24" fill="none" xmlns="http://www.w3.org/2000/svg">
<path d="M10.9493 10.021H12.299C12.5376 10.021 12.7664 9.92524 12.9351 9.75514C13.1039 9.58488 13.1986 9.35403 13.1986 9.1133V7.14679C13.1986 7.10668 13.1829 7.06819 13.1547 7.03983C13.1266 7.01146 13.0885 6.99551 13.0487 6.99551H10.9493C10.9096 6.99551 10.8714 7.01146 10.8433 7.03983C10.8152 7.06819 10.7993 7.10668 10.7993 7.14679V9.86966C10.7993 9.90983 10.8152 9.94831 10.8433 9.97666C10.8714 10.005 10.9096 10.021 10.9493 10.021Z" fill="white"/>
<path fill-rule="evenodd" clip-rule="evenodd" d="M5.57129 15.4897V4.38468C5.57129 4.01743 5.71773 3.66523 5.9784 3.40556C6.23907 3.14588 6.59261 3 6.96125 3H17.0384C17.4071 3 17.7607 3.14588 18.0213 3.40556C18.282 3.66523 18.4285 4.01743 18.4285 4.38468V15.4897C18.4283 15.6971 18.3814 15.9019 18.2911 16.0888C18.201 16.2756 18.0697 16.4401 17.9071 16.5697L12.6515 20.7722C12.4665 20.9197 12.2367 21 11.9999 21C11.7629 21 11.5332 20.9197 11.3483 20.7722L6.09252 16.5697C5.92998 16.4401 5.79876 16.2756 5.70854 16.0888C5.61832 15.9019 5.57142 15.6971 5.57129 15.4897ZM15.7477 6.99588V9.41623C15.7477 9.73678 15.6216 10.0442 15.3971 10.2712C15.1726 10.498 14.8681 10.6258 14.5504 10.6264C14.8685 10.6264 15.1736 10.754 15.3986 10.9808C15.6236 11.2078 15.7499 11.5156 15.7499 11.8366V14.0186C15.7498 14.2 15.7093 14.3788 15.6315 14.5422C15.5536 14.7056 15.4403 14.8493 15.3001 14.9625L13.4437 16.4662C13.4216 16.4841 13.395 16.4951 13.367 16.4985C13.3388 16.5017 13.3105 16.4968 13.2851 16.4845C13.2595 16.4722 13.238 16.4528 13.2231 16.4288C13.208 16.4046 13.2 16.3767 13.1999 16.3483V12.139C13.1999 11.8984 13.1052 11.6675 12.9364 11.4973C12.7677 11.3272 12.5389 11.2315 12.3002 11.2315H10.9507C10.9109 11.2315 10.8727 11.2475 10.8446 11.2758C10.8165 11.3041 10.8007 11.3426 10.8007 11.3827V16.3483C10.8007 16.3768 10.7929 16.405 10.7778 16.4292C10.7627 16.4535 10.7411 16.4728 10.7155 16.4851C10.6899 16.4976 10.6613 16.5023 10.6331 16.499C10.605 16.4956 10.5783 16.4842 10.5563 16.4662L8.69982 14.9625C8.55955 14.8493 8.44629 14.7056 8.36843 14.5422C8.29056 14.3788 8.25008 14.2 8.24996 14.0186V6.99588C8.24996 6.67493 8.37636 6.36712 8.60132 6.14018C8.8263 5.91322 9.13145 5.78573 9.44961 5.78573H14.5481C14.8663 5.78573 15.1714 5.91322 15.3964 6.14018C15.6214 6.36712 15.7477 6.67493 15.7477 6.99588Z" fill="white"/>
</svg>
