<svg width="24" height="24" viewBox="0 0 24 24" fill="none" xmlns="http://www.w3.org/2000/svg">
<path d="M13.6494 10.2287C13.2294 9.99668 12.7579 9.87172 12.2813 9.86993L13.3614 6.49599C13.6176 6.67788 13.9271 6.76004 14.2357 6.72806L13.6494 10.2287ZM17.642 12.4977L15.0465 13.0011C15.1118 12.5307 15.0531 12.0506 14.8768 11.6122L17.5357 11.6283C17.4914 11.7717 17.4776 11.9235 17.4953 12.073C17.5131 12.2226 17.562 12.3663 17.6386 12.4941L17.642 12.4977ZM13.6477 17.173C13.5884 17.2069 13.5312 17.2445 13.4762 17.2855L12.4836 15.3022C12.9566 15.2764 13.4156 15.1259 13.8174 14.8648L14.3214 17.007C14.0869 17.0014 13.8549 17.0586 13.6477 17.173ZM9.63956 17.4247C9.46024 17.1626 9.18831 16.9854 8.88355 16.932L10.2036 14.4274C10.5327 14.7898 10.9476 15.0522 11.3985 15.2022L9.63956 17.4247ZM9.52813 12.2781L6.72007 10.8589C6.91829 10.6336 7.03418 10.343 7.0475 10.0377L10.0424 10.9928C9.75785 11.3677 9.58299 11.8122 9.52813 12.2781Z" fill="white"/>
<path d="M13.8156 15.2433C12.3567 16.0377 10.4881 15.4985 9.64125 14.0383C9.43992 13.6992 9.30853 13.3202 9.25544 12.9254C9.20235 12.5306 9.22873 12.1286 9.33289 11.745C9.43704 11.3613 9.61669 11.0045 9.86044 10.697C10.1042 10.3896 10.4067 10.1383 10.7487 9.95922C12.2059 9.16482 14.0745 9.70572 14.9214 11.1642C15.7682 12.6227 15.2728 14.4489 13.8156 15.2433ZM14.8802 6.82449C14.5231 7.01459 14.1105 7.05807 13.7241 6.94632C13.3377 6.83457 13.0057 6.57573 12.7939 6.2211C12.6931 6.05167 12.6273 5.86223 12.6007 5.66486C12.5741 5.46749 12.5873 5.26651 12.6394 5.07473C12.6915 4.88294 12.7813 4.70456 12.9033 4.55094C13.0252 4.39732 13.1765 4.27183 13.3476 4.18246C13.7046 3.99262 14.1169 3.94909 14.5032 4.06047C14.8895 4.17186 15.2216 4.43006 15.434 4.78406C15.8574 5.51597 15.6105 6.4264 14.8802 6.82449ZM9.37724 19.2188C9.05243 19.3912 8.67733 19.4306 8.326 19.3292C7.97466 19.2277 7.67262 18.9928 7.47949 18.6708C7.38741 18.5167 7.32724 18.3443 7.30285 18.1646C7.27845 17.985 7.29035 17.802 7.3378 17.6274C7.38525 17.4528 7.46719 17.2904 7.57838 17.1507C7.68957 17.011 7.82755 16.897 7.9835 16.816C8.30814 16.6441 8.68283 16.605 9.03377 16.7064C9.38471 16.8079 9.68644 17.0425 9.87954 17.364C9.97168 17.518 10.0319 17.6903 10.0565 17.8699C10.081 18.0494 10.0692 18.2324 10.0219 18.407C9.97465 18.5816 9.89289 18.744 9.78188 18.8838C9.67086 19.0235 9.53305 19.1377 9.37724 19.2188ZM6.50232 11.4284C6.11269 11.6352 5.6628 11.6824 5.24136 11.5608C4.81993 11.4392 4.45755 11.1576 4.22569 10.7715C4.11565 10.5867 4.04379 10.38 4.01468 10.1647C3.98557 9.94935 3.99985 9.73007 4.05663 9.52081C4.1134 9.31155 4.21141 9.11691 4.34441 8.94927C4.47742 8.78163 4.6425 8.64469 4.82914 8.54716C5.21877 8.34038 5.66866 8.29314 6.0901 8.41475C6.51153 8.53635 6.87391 8.81798 7.10576 9.2041C7.21581 9.3889 7.28767 9.59555 7.31678 9.81088C7.34589 10.0262 7.33161 10.2455 7.27484 10.4547C7.21807 10.664 7.12005 10.8587 6.98705 11.0263C6.85404 11.1939 6.68896 11.3309 6.50232 11.4284ZM19.3083 13.1386C18.9835 13.311 18.6084 13.3504 18.2571 13.2489C17.9057 13.1475 17.6037 12.9125 17.4106 12.5905C17.3185 12.4365 17.2583 12.2641 17.2339 12.0844C17.2095 11.9047 17.2214 11.7217 17.2689 11.5471C17.3163 11.3725 17.3983 11.2102 17.5095 11.0705C17.6207 10.9307 17.7586 10.8167 17.9146 10.7358C18.2392 10.5638 18.6139 10.5248 18.9649 10.6262C19.3158 10.7276 19.6175 10.9622 19.8106 11.2838C19.9028 11.4377 19.963 11.61 19.9875 11.7896C20.0121 11.9692 20.0003 12.1522 19.953 12.3268C19.9057 12.5013 19.824 12.6637 19.713 12.8035C19.6019 12.9433 19.4641 13.0574 19.3083 13.1386ZM15.1494 19.8008C14.7596 20.0081 14.3093 20.0556 13.8874 19.934C13.4656 19.8123 13.1029 19.5304 12.871 19.1438C12.761 18.959 12.6891 18.7524 12.66 18.537C12.6309 18.3217 12.6452 18.1024 12.702 17.8932C12.7587 17.6839 12.8567 17.4893 12.9898 17.3216C13.1228 17.154 13.2878 17.0171 13.4745 16.9195C13.8641 16.7128 14.314 16.6655 14.7354 16.7871C15.1569 16.9087 15.5193 17.1904 15.7511 17.5765C15.8612 17.7613 15.933 17.9679 15.9621 18.1832C15.9912 18.3986 15.9769 18.6179 15.9202 18.8271C15.8634 19.0364 15.7654 19.231 15.6324 19.3987C15.4994 19.5663 15.336 19.7032 15.1494 19.8008Z" fill="white"/>
</svg>
