<svg width="24" height="24" viewBox="0 0 24 24" fill="none" xmlns="http://www.w3.org/2000/svg">
<path d="M17.0048 6.57359L13.0307 4.27667C12.3924 3.90778 11.6078 3.90778 10.9695 4.27667L6.99538 6.57054C6.13305 7.06987 5.6001 7.99006 5.6001 8.98771V15.0153C5.6001 16.013 6.13305 16.9332 6.99538 17.4295L10.9695 19.7233C11.6078 20.0922 12.3924 20.0922 13.0307 19.7233L17.0048 17.4295C17.8661 16.9301 18.4001 16.0099 18.4001 15.0153V8.98771C18.4001 7.99006 17.8671 7.06987 17.0048 6.57359ZM8.99727 8.93778L9.51181 8.76454C9.70105 8.69932 9.84017 8.53831 9.88109 8.34265L10.0979 7.26756C10.1041 7.24005 10.1286 7.22069 10.1573 7.22069C10.1859 7.22069 10.2105 7.23903 10.2166 7.26756L10.4335 8.34265C10.4734 8.54137 10.6166 8.69932 10.8058 8.76454L11.3204 8.93778C11.3449 8.94695 11.3603 8.96835 11.3603 8.99382C11.3603 9.0193 11.3449 9.0407 11.3204 9.04987L10.8058 9.22311C10.6135 9.28833 10.4744 9.44933 10.4335 9.64499L10.2166 10.7201C10.2105 10.7476 10.1859 10.767 10.1573 10.767C10.1286 10.767 10.1041 10.7486 10.0979 10.7201L9.88109 9.64499C9.84426 9.44628 9.70105 9.28833 9.51181 9.22311L8.99727 9.04987C8.97272 9.0407 8.95737 9.0193 8.95737 8.99382C8.95737 8.96835 8.97272 8.94695 8.99727 8.93778ZM10.2002 14.4793L9.50874 14.7117C9.25505 14.7983 9.06581 15.0123 9.01261 15.2762L8.72108 16.7172C8.71187 16.7508 8.68118 16.7793 8.64333 16.7793C8.60548 16.7793 8.57173 16.7549 8.56559 16.7172L8.27405 15.2762C8.22086 15.0123 8.03264 14.7993 7.77793 14.7117L7.08642 14.4793C7.05574 14.4702 7.03323 14.4396 7.03323 14.4049C7.03323 14.3703 7.05471 14.3397 7.08642 14.3306L7.77793 14.0982C8.03162 14.0116 8.22086 13.7976 8.27405 13.5347L8.56559 12.0938C8.57173 12.0571 8.60548 12.0316 8.64333 12.0316C8.68118 12.0316 8.71494 12.056 8.72108 12.0938L9.01261 13.5347C9.06581 13.7976 9.25403 14.0116 9.50874 14.0982L10.2002 14.3306C10.2309 14.3397 10.2534 14.3713 10.2534 14.4049C10.2534 14.4386 10.232 14.4702 10.2002 14.4793ZM16.8524 12.158L15.3927 12.6542C14.8566 12.8366 14.4567 13.2891 14.3452 13.8445L13.7283 16.8873C13.713 16.9648 13.6445 17.0208 13.5637 17.0208C13.4828 17.0208 13.4153 16.9648 13.399 16.8873L12.7821 13.8445C12.6706 13.2901 12.2707 12.8377 11.7346 12.6542L10.2749 12.158C10.2094 12.1335 10.1634 12.0713 10.1634 12C10.1634 11.9287 10.2064 11.8634 10.2749 11.842L11.7346 11.3458C12.2707 11.1634 12.6706 10.7109 12.7821 10.1555L13.399 7.11267C13.4143 7.03522 13.4828 6.97917 13.5637 6.97917C13.6445 6.97917 13.712 7.03522 13.7283 7.11267L14.3452 10.1555C14.4567 10.7099 14.8566 11.1623 15.3927 11.3458L16.8524 11.842C16.9179 11.8665 16.9639 11.9287 16.9639 12C16.9639 12.0713 16.9209 12.1366 16.8524 12.158Z" fill="white"/>
</svg>
