<svg width="24" height="24" viewBox="0 0 24 24" fill="none" xmlns="http://www.w3.org/2000/svg">
<path fill-rule="evenodd" clip-rule="evenodd" d="M10.0576 9.20958L7.86242 11.925L10.1736 14.7921L8.88762 14.7941C8.62276 14.7941 8.39232 14.6725 8.1946 14.4296L6.97775 12.9174L5.76513 14.4334C5.56943 14.6785 5.33713 14.8 5.0721 14.8H4.2242C4.09177 14.8 4.01636 14.7423 4 14.6247C4 14.567 4.02868 14.5032 4.08351 14.4334L6.08718 11.927L4.19367 9.58607C4.13867 9.51845 4.10999 9.45463 4.10999 9.39477C4.10999 9.27538 4.18135 9.21551 4.32812 9.21551H5.18429C5.44932 9.21551 5.68162 9.33705 5.88153 9.58409L6.97185 10.939L8.06234 9.58211C8.25803 9.33914 8.49033 9.21562 8.75924 9.21156H9.04266L10.0576 9.20958ZM19.89 14.3841C19.8901 14.4897 19.8472 14.5911 19.7708 14.6658C19.6944 14.7406 19.5908 14.7826 19.4828 14.7827L17.6743 14.7843C16.5229 14.7843 15.6851 14.5612 15.1593 14.1128C14.9187 13.9077 14.7374 13.6466 14.6069 13.3358C14.7495 12.9553 14.8229 12.5089 14.8209 11.9969C14.8188 11.4848 14.7475 11.0386 14.6027 10.658C14.7333 10.3453 14.9147 10.0841 15.1532 9.87895C15.677 9.42874 16.5146 9.20364 17.6662 9.20166L19.5921 9.20001C19.6456 9.19997 19.6987 9.21024 19.7482 9.23025C19.7976 9.25025 19.8426 9.27959 19.8805 9.31659C19.9184 9.35359 19.9484 9.39753 19.9689 9.44589C19.9894 9.49425 20 9.54608 20 9.59843V10.3014L17.7131 10.3034C16.9998 10.3034 16.5146 10.4309 16.2558 10.688C15.9969 10.9449 15.8685 11.3812 15.8705 11.9969C15.8705 12.6127 16.0011 13.0469 16.2579 13.302C16.5146 13.5571 17.0018 13.6826 17.7153 13.6826L19.8898 13.6804V14.3843L19.89 14.3841ZM14.3419 10.6581C14.3949 10.7858 14.4398 10.9152 14.4723 11.0467C14.5461 11.3589 14.5823 11.6785 14.5803 11.999C14.5828 12.3188 14.5473 12.6378 14.4743 12.9496C14.4419 13.0821 14.3991 13.2119 14.3461 13.3379C14.2156 13.6488 14.034 13.9098 13.7957 14.115C13.2698 14.5634 12.432 14.7885 11.2805 14.7904H10.4775L9.59094 13.6905L11.2358 13.6887C11.9491 13.6887 12.432 13.561 12.691 13.3061C12.95 13.0511 13.0761 12.6148 13.0761 11.999C13.0761 11.3833 12.9479 10.9471 12.689 10.6921C12.432 10.435 11.945 10.3095 11.2316 10.3095L9.47268 10.3115L10.3634 9.20958L11.2744 9.2076C12.426 9.20562 13.2658 9.43072 13.7896 9.88092C14.03 10.0843 14.2113 10.3475 14.3419 10.6581ZM9.31967 13.344L8.1784 11.9294L9.31562 10.5147L9.31967 13.344Z" fill="white"/>
</svg>
