<svg width="24" height="24" viewBox="0 0 24 24" fill="none" xmlns="http://www.w3.org/2000/svg">
<path d="M18.356 5.57202H6.62601L5.77701 6.11202L11.752 18.99L12.42 19.714L18.356 5.57202Z" fill="white"/>
<path d="M13.8 12.583C13.8 12.433 13.8 12.356 13.672 12.283C13.213 11.906 12.686 11.528 12.232 11.151C12.1857 11.1136 12.1284 11.0925 12.069 11.091C12.0095 11.0925 11.9522 11.1136 11.906 11.151L10.462 12.356C10.3998 12.3943 10.3493 12.449 10.316 12.514C10.2826 12.5822 10.2651 12.6571 10.265 12.733C10.2663 12.8935 10.2215 13.0511 10.136 13.187C10.1032 13.2444 10.0859 13.3094 10.0859 13.3755C10.0859 13.4416 10.1032 13.5066 10.136 13.564L12.232 18.488L14.002 13.714C14.066 13.564 14.066 13.487 13.933 13.414C13.786 13.1634 13.7402 12.8662 13.805 12.583H13.8ZM11.55 10.487L7.35999 7.34098L7.28699 7.41798C7.35999 7.57298 7.35999 7.64998 7.42899 7.80398L8.92399 11.254C9.06599 11.559 9.13899 11.867 9.56299 11.944C9.68684 11.9572 9.81167 11.9302 9.91899 11.867L11.55 10.487ZM12 9.86598C12.0549 9.9036 12.1199 9.92373 12.1865 9.92373C12.2531 9.92373 12.3181 9.9036 12.373 9.86598C13.792 8.76798 15.21 7.75298 16.556 6.65098C16.629 6.57798 16.706 6.57798 16.706 6.49698V6.42798H7.29499C7.38097 6.45799 7.45778 6.50965 7.51799 6.57798L12 9.86598ZM12.746 10.487L14.448 11.713C14.589 11.79 14.803 11.713 15.013 11.713C15.086 11.713 15.155 11.563 15.155 11.486C15.652 10.256 16.149 8.95298 16.642 7.72298C16.642 7.64998 16.715 7.57298 16.715 7.49598H16.642L12.746 10.487Z" fill="#CD0124"/>
<path d="M9.11999 13.727C9.24829 13.7253 9.37501 13.6984 9.49289 13.6477C9.61078 13.597 9.71753 13.5236 9.80705 13.4317C9.89657 13.3397 9.9671 13.2311 10.0146 13.1119C10.0621 12.9927 10.0857 12.8653 10.084 12.737C10.0857 12.6087 10.0621 12.4813 10.0146 12.3621C9.9671 12.2429 9.89657 12.1343 9.80705 12.0423C9.71753 11.9504 9.61078 11.877 9.49289 11.8263C9.37501 11.7757 9.24829 11.7487 9.11999 11.747C8.9916 11.7486 8.86478 11.7754 8.74677 11.826C8.62877 11.8767 8.5219 11.95 8.43228 12.042C8.34266 12.1339 8.27203 12.2426 8.22445 12.3619C8.17687 12.4812 8.15327 12.6086 8.15499 12.737C8.15499 13.284 8.58699 13.727 9.11999 13.727ZM15.008 13.727C15.1364 13.7254 15.2632 13.6986 15.3812 13.648C15.4992 13.5974 15.6061 13.524 15.6957 13.432C15.7853 13.3401 15.8559 13.2314 15.9035 13.1121C15.9511 12.9929 15.9747 12.8654 15.973 12.737C15.9747 12.6086 15.9511 12.4812 15.9035 12.3619C15.8559 12.2426 15.7853 12.1339 15.6957 12.042C15.6061 11.95 15.4992 11.8767 15.3812 11.826C15.2632 11.7754 15.1364 11.7486 15.008 11.747C14.8797 11.7487 14.753 11.7757 14.6351 11.8263C14.5172 11.877 14.4104 11.9504 14.3209 12.0423C14.2314 12.1343 14.1609 12.2429 14.1134 12.3621C14.0658 12.4813 14.0423 12.6087 14.044 12.737C14.044 13.284 14.476 13.727 15.008 13.727ZM6.21399 7.28601C6.49817 7.28601 6.77071 7.17312 6.97165 6.97217C7.1726 6.77123 7.28549 6.49868 7.28549 6.21451C7.28549 5.93033 7.1726 5.65779 6.97165 5.45684C6.77071 5.2559 6.49817 5.14301 6.21399 5.14301C5.92981 5.14301 5.65727 5.2559 5.45632 5.45684C5.25538 5.65779 5.14249 5.93033 5.14249 6.21451C5.14249 6.49868 5.25538 6.77123 5.45632 6.97217C5.65727 7.17312 5.92981 7.28601 6.21399 7.28601ZM17.785 7.28601C18.0692 7.28601 18.3417 7.17312 18.5427 6.97217C18.7436 6.77123 18.8565 6.49868 18.8565 6.21451C18.8565 5.93033 18.7436 5.65779 18.5427 5.45684C18.3417 5.2559 18.0692 5.14301 17.785 5.14301C17.5008 5.14301 17.2283 5.2559 17.0273 5.45684C16.8264 5.65779 16.7135 5.93033 16.7135 6.21451C16.7135 6.49868 16.8264 6.77123 17.0273 6.97217C17.2283 7.17312 17.5008 7.28601 17.785 7.28601ZM12.214 20.571C12.4982 20.571 12.7707 20.4581 12.9717 20.2572C13.1726 20.0562 13.2855 19.7837 13.2855 19.4995C13.2855 19.2153 13.1726 18.9428 12.9717 18.7418C12.7707 18.5409 12.4982 18.428 12.214 18.428C11.9298 18.428 11.6573 18.5409 11.4563 18.7418C11.2554 18.9428 11.1425 19.2153 11.1425 19.4995C11.1425 19.7837 11.2554 20.0562 11.4563 20.2572C11.6573 20.4581 11.9298 20.571 12.214 20.571Z" fill="white"/>
</svg>
