<svg width="24" height="24" viewBox="0 0 24 24" fill="none" xmlns="http://www.w3.org/2000/svg">
<path d="M7.29316 9.61013L4.86684 8.37468C4.67646 8.74734 4.51646 9.13823 4.38683 9.53721L6.97722 10.3757C7.06228 10.1124 7.16759 9.85519 7.29316 9.61013Z" fill="black"/>
<path d="M9.35291 7.43291L10.6957 9.74785C10.8922 9.63443 11.1028 9.54734 11.3195 9.48861L10.6248 6.9043C10.801 6.85772 10.9813 6.81721 11.1635 6.78886L10.7362 4.09924C10.323 4.16405 9.9119 4.26329 9.51494 4.39291L10.3453 6.94076C10.08 7.02785 9.82279 7.13519 9.5757 7.26076L8.35646 4.87696C7.98582 5.06734 7.62532 5.2881 7.28911 5.53519L8.89316 7.73266C9.04101 7.62532 9.19494 7.52608 9.35291 7.43291Z" fill="black"/>
<path d="M16.5651 9.35089L14.2501 10.6957C14.3635 10.8922 14.4527 11.1028 14.5114 11.3195L17.0957 10.6228C17.1443 10.799 17.1828 10.9792 17.2111 11.1595L19.9008 10.7322C19.836 10.319 19.7367 9.90785 19.6051 9.51089L17.0592 10.3453C16.9722 10.08 16.8648 9.82278 16.7392 9.5757L19.123 8.3524C18.9327 7.98177 18.7119 7.62127 18.4648 7.28506L16.2673 8.89114C16.3727 9.03899 16.4719 9.19291 16.5651 9.35089Z" fill="black"/>
<path d="M15.6213 4.86481C15.2486 4.67443 14.8577 4.51443 14.4587 4.38481L13.6223 6.97519C13.8835 7.06025 14.1408 7.16557 14.3878 7.29114L15.6213 4.86481Z" fill="black"/>
<path d="M14.6532 7.38633L13.2942 9.74582C13.4906 9.85924 13.6729 9.99899 13.8329 10.159L17.6446 6.33316C17.3489 6.03747 17.0268 5.76405 16.6906 5.51899L15.119 7.6881C14.9691 7.57873 14.8152 7.47747 14.6532 7.38633Z" fill="black"/>
<path d="M7.38633 9.34279L9.7438 10.7038C9.85722 10.5073 9.99696 10.3251 10.157 10.163L6.33519 6.34937C6.03949 6.64506 5.76608 6.96709 5.52101 7.30329L7.6881 8.87696C7.58076 9.02684 7.47949 9.18279 7.38633 9.34279Z" fill="black"/>
<path d="M12.8243 6.74228L13.2354 4.09519C12.8284 4.0324 12.4132 4 11.998 4H11.9919V9.39949H11.998C12.2248 9.39949 12.4516 9.42785 12.6684 9.48658L13.3671 6.8557C13.1889 6.80709 13.0086 6.77063 12.8243 6.74228Z" fill="black"/>
<path d="M9.48658 11.3296L6.8557 10.6289C6.80911 10.8071 6.77063 10.9894 6.74228 11.1716L4.09519 10.7585C4.0324 11.1656 4 11.5848 4 12H9.39949C9.39949 11.7711 9.42987 11.5463 9.48658 11.3296Z" fill="black"/>
<path d="M16.7068 14.3899L19.1332 15.6253C19.3235 15.2527 19.4835 14.8618 19.6132 14.4628L17.0228 13.6243C16.9377 13.8876 16.8324 14.1448 16.7068 14.3899Z" fill="black"/>
<path d="M14.6451 16.5651L13.3023 14.2501C13.1058 14.3635 12.8952 14.4506 12.6785 14.5094L13.3732 17.0937C13.197 17.1403 13.0167 17.1808 12.8344 17.2091L13.2618 19.8987C13.6749 19.8339 14.0861 19.7347 14.483 19.6051L13.6527 17.0572C13.918 16.9701 14.1752 16.8628 14.4223 16.7372L15.6435 19.121C16.0142 18.9306 16.3747 18.7099 16.7109 18.4628L15.1068 16.2633C14.959 16.3747 14.8051 16.4739 14.6451 16.5651Z" fill="black"/>
<path d="M7.43494 14.6491L9.74987 13.3023C9.63646 13.1058 9.54734 12.8952 9.48861 12.6785L6.9043 13.3752C6.8557 13.199 6.81722 13.0187 6.78886 12.8385L4.09924 13.2658C4.16405 13.679 4.26329 14.0901 4.39494 14.4871L6.94076 13.6547C7.02785 13.918 7.13519 14.1772 7.26076 14.4243L4.87696 15.6476C5.06734 16.0182 5.2881 16.3787 5.53519 16.7149L7.73266 15.1089C7.62734 14.961 7.5281 14.8071 7.43494 14.6491Z" fill="black"/>
<path d="M8.37873 19.1352C8.75139 19.3256 9.14228 19.4856 9.54127 19.6152L10.3777 17.0248C10.1165 16.9397 9.85924 16.8344 9.61215 16.7089L8.37873 19.1352Z" fill="black"/>
<path d="M9.34481 16.6137L10.7038 14.2542C10.5073 14.1408 10.3251 14.001 10.1651 13.841L6.35342 17.6668C6.64911 17.9625 6.97114 18.2359 7.30734 18.481L8.87899 16.3119C9.02886 16.4192 9.18481 16.5205 9.34481 16.6137Z" fill="black"/>
<path d="M16.6116 14.6572L14.2542 13.2962C14.1408 13.4927 14.001 13.6749 13.841 13.837L17.6648 17.6506C17.9605 17.3549 18.2339 17.0329 18.479 16.6967L16.3119 15.123C16.4192 14.9711 16.5205 14.8172 16.6116 14.6572Z" fill="black"/>
<path d="M11.3296 14.5134L10.6309 17.1443C10.8091 17.1909 10.9914 17.2294 11.1737 17.2577L10.7625 19.9048C11.1696 19.9676 11.5848 20 12 20H12.0061V14.6005H12C11.7732 14.6005 11.5463 14.5701 11.3296 14.5134Z" fill="black"/>
<path d="M14.6005 12C14.6005 12.2289 14.5722 12.4537 14.5134 12.6704L17.1443 13.3711C17.1909 13.1929 17.2294 13.0106 17.2577 12.8284L19.9048 13.2415C19.9676 12.8344 20 12.4152 20 12H14.6005Z" fill="black"/>
</svg>
