<svg width="24" height="24" viewBox="0 0 24 24" fill="none" xmlns="http://www.w3.org/2000/svg">
<path d="M11.85 12.66C12 12.386 12.257 12.09 12.489 11.794C13.114 11.803 13.539 11.829 14.143 11.507C14.357 11.396 14.413 11.404 14.477 11.156C13.732 11.156 13.569 11.242 12.96 11.387C13.359 10.813 14.906 10.444 15 9.71602C14.464 9.83602 14.272 9.92602 13.903 10.204L13.024 10.916C13.063 10.676 13.23 10.419 13.324 10.204C13.462 9.88302 13.423 9.76302 13.513 9.42902C13.252 9.45402 13.119 9.74202 12.956 9.97302C12.24 11.044 12.51 11.914 11.717 12.382C11.769 11.85 11.979 11.25 11.82 10.654C11.37 10.612 11.319 11.627 11.319 12.206C11.319 13.539 11.34 12.892 10.882 13.843C10.847 13.474 10.877 12.622 10.774 12.364C10.65 12.043 10.744 12.154 10.483 12.15C10.294 12.502 10.419 13.483 10.5 13.877C10.564 14.212 10.65 14.34 10.564 14.619C10.526 14.739 10.359 15.172 10.294 15.3C10.179 14.764 9.883 13.813 9.446 13.869C9.322 14.383 9.904 15.309 10.2 15.54C10.192 16.012 10.063 16.149 10.05 16.714C10.127 16.577 10.149 16.504 10.187 16.354C10.222 16.209 10.252 16.033 10.264 15.883C10.834 15.866 11.936 15.746 12.039 14.983C11.567 14.829 10.774 15.369 10.41 15.57C10.462 15.283 10.693 14.67 10.847 14.482C11.289 14.593 12.446 14.516 12.596 13.89L10.92 14.212L11.486 13.17C12.103 13.17 13.372 12.982 13.517 12.386C12.793 12.3 12.424 12.549 11.846 12.66H11.85Z" fill="#00D8C1"/>
<path d="M12.017 4.71399C16.028 4.71399 19.285 8.03099 19.285 12.12C19.285 16.243 16.097 18.377 13.864 19.286H13.851C13.311 18.6 13.508 18.729 14.074 17.344C14.485 16.337 14.417 16.196 14.571 15.741C14.631 15.571 14.747 15.441 14.815 15.313C16.774 15.287 16.928 15.266 16.915 14.456C16.915 13.903 16.881 14.1 17.113 13.749C16.95 13.491 16.993 13.393 17.048 13.209C17.147 12.887 17.035 12.926 16.963 12.647C17.203 12.433 17.425 12.424 17.571 12.099C17.408 11.833 17.164 11.709 16.92 11.511C16.491 11.161 16.294 10.886 16.285 10.663C16.273 10.363 16.547 10.153 16.551 9.97699C16.56 9.77599 16.298 9.46299 16.174 9.23599L15.788 8.37899C15.368 7.34199 14.794 7.23899 13.59 7.10199C12.613 6.98599 12.012 6.85199 11.502 6.85699C10.86 6.86199 10.354 7.22099 9.402 7.97099C8.98244 8.29646 8.52513 8.5701 8.04 8.78599C7.38 9.29099 6.454 10.072 6.445 10.916C6.432 11.28 6.437 11.64 6.428 12C6.407 12.977 7.131 13.153 7.242 13.397C7.328 13.577 7.277 13.766 7.392 14.023C7.568 14.409 7.547 14.186 7.8 14.392C8.022 14.562 8.121 15.12 8.275 15.39C8.584 15.93 9.805 16.213 10.041 16.401C10.002 17.066 9.321 18.223 8.841 18.793C7.59774 18.176 6.55216 17.2231 5.82274 16.0423C5.09332 14.8614 4.70923 13.4999 4.714 12.112C4.744 8.03199 8.001 4.71399 12.017 4.71399Z" fill="#00D8C1"/>
</svg>
