<svg width="24" height="24" viewBox="0 0 24 24" fill="none" xmlns="http://www.w3.org/2000/svg">
<path d="M17.957 11.872C18.0604 11.0231 17.9812 10.1619 17.7246 9.3461C17.4681 8.53031 17.0401 7.77879 16.4693 7.14192C15.8986 6.50505 15.1983 5.99754 14.4154 5.65342C13.6325 5.3093 12.7851 5.13652 11.9299 5.14666C11.0748 5.1568 10.2317 5.34962 9.45718 5.71221C8.68266 6.07479 7.99459 6.59875 7.43911 7.24898C6.88362 7.8992 6.47356 8.66066 6.23639 9.48231C5.99923 10.304 5.94045 11.1668 6.06399 12.013C6.9438 11.193 8.0974 10.7299 9.29999 10.714C10.5304 10.7359 11.7244 11.1357 12.72 11.859C13.5641 12.4962 14.6143 12.7983 15.668 12.707C16.4863 12.6156 17.2703 12.3274 17.953 11.867L17.957 11.872Z" fill="#F2B705"/>
<path d="M7.285 14.143C7.285 13.942 7.478 13.714 7.714 13.714C7.95 13.714 8.143 13.942 8.143 14.143V16.277C8.143 16.479 7.95 16.715 7.714 16.715C7.478 16.715 7.285 16.479 7.285 16.277V14.143ZM11.143 13.714C11.143 13.517 11.335 13.286 11.571 13.286C11.807 13.286 12 13.517 12 13.714V15.857C12 16.055 11.807 16.286 11.571 16.286C11.335 16.286 11.143 16.054 11.143 15.857V13.714ZM12.428 14.572C12.428 14.387 12.621 14.143 12.857 14.143C13.093 14.143 13.286 14.387 13.286 14.572V15C13.286 15.184 13.093 15.429 12.856 15.429C12.621 15.429 12.428 15.184 12.428 15V14.572ZM16.285 15C16.285 14.782 16.478 14.572 16.714 14.572C16.95 14.572 17.143 14.782 17.143 15V16.286C17.14 16.3987 17.0938 16.5059 17.0139 16.5856C16.9341 16.6652 16.8267 16.7112 16.714 16.714C16.6014 16.7109 16.4943 16.6649 16.4147 16.5853C16.3351 16.5056 16.289 16.3985 16.286 16.286L16.285 15ZM8.571 13.714C8.571 13.522 8.764 13.286 9 13.286C9.235 13.286 9.428 13.522 9.428 13.714V16.736C9.428 16.929 9.235 17.143 9 17.143C8.764 17.143 8.571 16.929 8.571 16.736V13.714ZM13.714 15C13.714 14.786 13.907 14.572 14.143 14.572C14.378 14.572 14.571 14.786 14.571 15V18.429C14.567 18.5412 14.5207 18.6478 14.4412 18.7272C14.3618 18.8066 14.2552 18.853 14.143 18.857C14.0306 18.8532 13.9238 18.807 13.8441 18.7275C13.7645 18.6481 13.718 18.5414 13.714 18.429V15ZM15 15.43C15 15.233 15.193 15.001 15.428 15.001C15.664 15.001 15.857 15.233 15.857 15.43V18C15.857 18.197 15.664 18.429 15.428 18.429C15.193 18.429 15 18.197 15 18V15.43ZM9.857 13.287C9.857 13.086 10.05 12.858 10.286 12.858C10.521 12.858 10.714 13.086 10.714 13.287V19.287C10.714 19.488 10.521 19.715 10.286 19.715C10.05 19.715 9.856 19.488 9.856 19.287L9.857 13.287Z" fill="#52CAC7"/>
<path d="M9.711 12.343C9.15205 12.3105 8.59225 12.3902 8.06452 12.5772C7.53679 12.7642 7.05178 13.0548 6.638 13.432C6.5896 13.4722 6.5322 13.5 6.4707 13.5132C6.40921 13.5264 6.34544 13.5245 6.28483 13.5077C6.22422 13.4909 6.16858 13.4597 6.12264 13.4167C6.0767 13.3738 6.04183 13.3204 6.021 13.261C5.99707 13.1899 5.99534 13.1131 6.01606 13.0409C6.03678 12.9688 6.07896 12.9046 6.137 12.857C6.89953 12.1672 7.85722 11.7309 8.87809 11.6083C9.89896 11.4856 10.9328 11.6825 11.837 12.172C12.1117 12.328 12.3703 12.508 12.613 12.712L12.827 12.87C13.5252 13.3377 14.3437 13.5936 15.184 13.607C16.153 13.616 16.997 13.067 17.383 12.785C17.4643 12.7234 17.5667 12.6964 17.6678 12.7099C17.7689 12.7234 17.8607 12.7763 17.923 12.857C17.9537 12.8967 17.9761 12.9421 17.9888 12.9906C18.0016 13.0391 18.0044 13.0897 17.9973 13.1393C17.9901 13.189 17.973 13.2366 17.947 13.2795C17.921 13.3224 17.8867 13.3597 17.846 13.389C17.443 13.689 16.418 14.375 15.176 14.366C14.1833 14.3479 13.2166 14.046 12.39 13.496L12.103 13.282L11.974 13.179C11.3242 12.6727 10.5338 12.3793 9.711 12.339V12.343Z" fill="#52CAC7"/>
</svg>
