<svg width="24" height="24" viewBox="0 0 24 24" fill="none" xmlns="http://www.w3.org/2000/svg">
<path d="M20.1757 11.233C20.3176 10.0677 20.2089 8.88543 19.8566 7.76551C19.5045 6.64561 18.9169 5.61393 18.1334 4.73964C17.3499 3.86536 16.3885 3.16866 15.3138 2.69625C14.239 2.22385 13.0757 1.98666 11.9017 2.00058C10.7279 2.0145 9.57047 2.2792 8.50722 2.77696C7.44397 3.2747 6.49939 3.99399 5.73684 4.88661C4.97427 5.77923 4.41135 6.82455 4.08576 7.9525C3.76019 9.0805 3.6795 10.2649 3.84909 11.4266C5.05689 10.3009 6.64053 9.66517 8.29143 9.64334C9.98052 9.67341 11.6196 10.2222 12.9864 11.2152C14.1451 12.0899 15.5868 12.5046 17.0333 12.3793C18.1567 12.2538 19.233 11.8582 20.1702 11.2262L20.1757 11.233Z" fill="#F2B705"/>
<path d="M5.52637 14.3509C5.52637 14.075 5.79132 13.762 6.11529 13.762C6.43927 13.762 6.70422 14.075 6.70422 14.3509V17.2805C6.70422 17.5578 6.43927 17.8817 6.11529 17.8817C5.79132 17.8817 5.52637 17.5578 5.52637 17.2805V14.3509ZM10.8226 13.762C10.8226 13.4916 11.0862 13.1745 11.4101 13.1745C11.7341 13.1745 11.9991 13.4916 11.9991 13.762V16.7039C11.9991 16.9757 11.7341 17.2928 11.4101 17.2928C11.0862 17.2928 10.8226 16.9743 10.8226 16.7039V13.762ZM12.5866 14.9399C12.5866 14.6859 12.8516 14.3509 13.1755 14.3509C13.4995 14.3509 13.7645 14.6859 13.7645 14.9399V15.5274C13.7645 15.78 13.4995 16.1163 13.1742 16.1163C12.8516 16.1163 12.5866 15.78 12.5866 15.5274V14.9399ZM17.8814 15.5274C17.8814 15.2282 18.1464 14.9399 18.4704 14.9399C18.7943 14.9399 19.0593 15.2282 19.0593 15.5274V17.2928C19.0552 17.4475 18.9917 17.5947 18.8821 17.7041C18.7725 17.8134 18.6251 17.8765 18.4704 17.8804C18.3158 17.8761 18.1688 17.813 18.0595 17.7037C17.9502 17.5943 17.8869 17.4473 17.8828 17.2928L17.8814 15.5274ZM7.29177 13.762C7.29177 13.4984 7.55672 13.1745 7.8807 13.1745C8.2033 13.1745 8.46825 13.4984 8.46825 13.762V17.9106C8.46825 18.1755 8.2033 18.4693 7.8807 18.4693C7.55672 18.4693 7.29177 18.1755 7.29177 17.9106V13.762ZM14.352 15.5274C14.352 15.2336 14.617 14.9399 14.9409 14.9399C15.2635 14.9399 15.5285 15.2336 15.5285 15.5274V20.2347C15.523 20.3887 15.4594 20.5351 15.3503 20.6441C15.2413 20.7531 15.095 20.8168 14.9409 20.8223C14.7866 20.817 14.64 20.7536 14.5306 20.6445C14.4213 20.5355 14.3575 20.389 14.352 20.2347V15.5274ZM16.1174 16.1177C16.1174 15.8473 16.3824 15.5288 16.705 15.5288C17.0289 15.5288 17.2939 15.8473 17.2939 16.1177V19.6458C17.2939 19.9162 17.0289 20.2347 16.705 20.2347C16.3824 20.2347 16.1174 19.9162 16.1174 19.6458V16.1177ZM9.05717 13.1758C9.05717 12.8999 9.32212 12.5869 9.6461 12.5869C9.9687 12.5869 10.2336 12.8999 10.2336 13.1758V21.4126C10.2336 21.6885 9.9687 22.0001 9.6461 22.0001C9.32212 22.0001 9.0558 21.6885 9.0558 21.4126L9.05717 13.1758Z" fill="#52CAC7"/>
<path d="M8.85673 11.8796C8.08941 11.835 7.32093 11.9444 6.59647 12.2011C5.87201 12.4578 5.20619 12.8568 4.63816 13.3746C4.57172 13.4298 4.49292 13.4679 4.40849 13.4861C4.32408 13.5042 4.23654 13.5016 4.15334 13.4785C4.07013 13.4554 3.99375 13.4126 3.93068 13.3536C3.86762 13.2947 3.81975 13.2214 3.79115 13.1398C3.7583 13.0422 3.75593 12.9368 3.78437 12.8377C3.81282 12.7387 3.87072 12.6506 3.9504 12.5852C4.99719 11.6383 6.31189 11.0393 7.71333 10.871C9.11476 10.7026 10.534 10.9729 11.7753 11.6449C12.1524 11.859 12.5074 12.1061 12.8406 12.3862L13.1343 12.6031C14.0928 13.2451 15.2164 13.5964 16.37 13.6148C17.7002 13.6272 18.8588 12.8735 19.3887 12.4864C19.5004 12.4018 19.6409 12.3648 19.7797 12.3833C19.9185 12.4018 20.0445 12.4744 20.1301 12.5852C20.1722 12.6397 20.2029 12.7021 20.2204 12.7686C20.238 12.8352 20.2418 12.9047 20.232 12.9728C20.2222 13.041 20.1987 13.1063 20.163 13.1652C20.1273 13.2241 20.0802 13.2753 20.0243 13.3156C19.4711 13.7274 18.064 14.6691 16.359 14.6568C14.9962 14.6319 13.6692 14.2175 12.5344 13.4624L12.1404 13.1687L11.9633 13.0273C11.0713 12.3322 9.98626 11.9294 8.85673 11.8741V11.8796Z" fill="#52CAC7"/>
</svg>
