<svg width="24" height="24" viewBox="0 0 24 24" fill="none" xmlns="http://www.w3.org/2000/svg">
<path fill-rule="evenodd" clip-rule="evenodd" d="M6 5.23082V15.1019C6.00012 15.2863 6.04181 15.4683 6.122 15.6345C6.2022 15.8006 6.31884 15.9468 6.46332 16.062L11.1351 19.7975C11.2995 19.9286 11.5037 20 11.7143 20C11.9248 20 12.1291 19.9286 12.2935 19.7975L16.9652 16.062C17.1097 15.9468 17.2264 15.8006 17.3065 15.6345C17.3868 15.4683 17.4285 15.2863 17.4286 15.1019V5.23082C17.4286 4.90438 17.2984 4.59132 17.0667 4.3605C16.835 4.12967 16.5207 4 16.193 4H7.23552C6.90784 4 6.59358 4.12967 6.36188 4.3605C6.13017 4.59132 6 4.90438 6 5.23082Z" fill="#004DE5"/>
<path d="M15.0457 9.70329V7.55188C15.0457 7.26659 14.9334 6.99298 14.7334 6.79125C14.5334 6.58951 14.2622 6.47618 13.9794 6.47618H9.44738C9.16457 6.47618 8.89334 6.58951 8.69336 6.79125C8.49338 6.99298 8.38104 7.26659 8.38104 7.55188V13.7943C8.38114 13.9555 8.41712 14.1145 8.48634 14.2598C8.55555 14.405 8.65623 14.5326 8.78092 14.6334L10.4311 15.9699C10.4507 15.986 10.4744 15.9961 10.4994 15.999C10.5245 16.002 10.5499 15.9978 10.5726 15.9868C10.5954 15.9758 10.6146 15.9586 10.628 15.937C10.6414 15.9155 10.6484 15.8905 10.6484 15.8651V11.4513C10.6484 11.4157 10.6624 11.3814 10.6874 11.3562C10.7124 11.331 10.7463 11.3169 10.7817 11.3169H11.9813C12.1934 11.3169 12.3968 11.4018 12.5468 11.5532C12.6968 11.7044 12.781 11.9096 12.781 12.1236V15.8651C12.7811 15.8904 12.7882 15.9152 12.8016 15.9366C12.8149 15.958 12.834 15.9752 12.8567 15.9862C12.8793 15.9972 12.9045 16.0015 12.9295 15.9986C12.9544 15.9957 12.9781 15.9858 12.9977 15.9699L14.6478 14.6334C14.7725 14.5326 14.8732 14.405 14.9424 14.2598C15.0116 14.1145 15.0476 13.9555 15.0477 13.7943V11.8547C15.0477 11.5694 14.9354 11.2958 14.7354 11.094C14.5354 10.8923 14.2642 10.779 13.9814 10.779C14.2638 10.7785 14.5345 10.6649 14.7341 10.4632C14.9336 10.2615 15.0457 9.98823 15.0457 9.70329ZM11.98 10.2412H10.7803C10.745 10.2412 10.7111 10.227 10.6861 10.2018C10.6611 10.1765 10.647 10.1424 10.647 10.1067V7.68634C10.647 7.65069 10.6611 7.61648 10.6861 7.59127C10.7111 7.56605 10.745 7.55188 10.7803 7.55188H12.6464C12.6818 7.55188 12.7157 7.56605 12.7407 7.59127C12.7657 7.61648 12.7797 7.65069 12.7797 7.68634V9.43436C12.7797 9.64833 12.6955 9.85353 12.5455 10.0049C12.3955 10.1561 12.1921 10.2412 11.98 10.2412Z" fill="url(#paint0_linear_216_9296)"/>
<defs>
<linearGradient id="paint0_linear_216_9296" x1="11.7144" y1="6.4762" x2="11.7144" y2="16" gradientUnits="userSpaceOnUse">
<stop stop-color="white"/>
<stop offset="0.458333" stop-color="white"/>
<stop offset="1" stop-color="white"/>
</linearGradient>
</defs>
</svg>
