<svg width="24" height="24" viewBox="0 0 24 24" fill="none" xmlns="http://www.w3.org/2000/svg">
<path fill-rule="evenodd" clip-rule="evenodd" d="M18.857 12C18.8586 13.6701 18.2506 15.2834 17.1471 16.5371C16.0437 17.7907 14.5206 18.5985 12.8638 18.8089C11.207 19.0193 9.53034 18.6178 8.14857 17.6797C6.7668 16.7416 5.77488 15.3315 5.359 13.714H6.249C6.66392 15.0917 7.55994 16.2745 8.77383 17.0469C9.98772 17.8194 11.4387 18.13 12.8625 17.9223C14.2862 17.7146 15.588 17.0024 16.5306 15.9154C17.4732 14.8283 17.994 13.4388 17.998 12H17.315L16.393 13.177C16.3568 13.2376 16.3035 13.2861 16.2398 13.3166C16.1761 13.347 16.1049 13.358 16.035 13.3482C15.9651 13.3384 15.8996 13.3082 15.8468 13.2614C15.794 13.2146 15.7562 13.1532 15.738 13.085L15.168 10.929L14.562 13.922C14.483 14.314 13.92 14.302 13.857 13.907L13.294 10.38L12.524 16.086C12.5167 16.1436 12.4952 16.1985 12.4614 16.2458C12.4276 16.293 12.3826 16.3311 12.3304 16.3566C12.2782 16.3821 12.2205 16.3942 12.1625 16.3918C12.1045 16.3895 12.0479 16.3727 11.998 16.343C11.9377 16.3083 11.8891 16.2563 11.8584 16.1938C11.8278 16.1312 11.8165 16.061 11.826 15.992L12.911 7.96502C12.966 7.55502 13.556 7.54902 13.621 7.95602L14.251 11.912L14.771 9.34002C14.846 8.96902 15.372 8.95302 15.469 9.32002L16.208 12.111L16.81 11.3C16.875 11.191 16.992 11.143 17.119 11.143H18.803C18.8383 11.4237 18.857 11.7094 18.857 12ZM18.64 10.286C18.2085 8.59351 17.1473 7.12947 15.6731 6.19271C14.1989 5.25594 12.4228 4.91707 10.7072 5.24525C8.99165 5.57344 7.466 6.54393 6.44163 7.95867C5.41725 9.37341 4.97138 11.1257 5.195 12.858H6.987C7.117 12.858 7.237 12.773 7.301 12.658L7.734 12.027L8.516 14.55C8.625 14.901 9.13 14.88 9.209 14.52L9.751 12.053L10.378 15.985C10.443 16.395 11.036 16.385 11.088 15.975L12.126 7.88802C12.1355 7.79668 12.1088 7.70527 12.0518 7.63327C11.9948 7.56128 11.912 7.51441 11.8209 7.50267C11.7298 7.49093 11.6378 7.51524 11.5644 7.57042C11.491 7.6256 11.442 7.70727 11.428 7.79802L10.695 13.508L10.158 10.143C10.096 9.75202 9.538 9.73602 9.454 10.123L8.802 13.095L8.166 11.045C8.14461 10.9782 8.10417 10.9191 8.04966 10.875C7.99514 10.8309 7.92892 10.8036 7.85914 10.7966C7.78935 10.7896 7.71904 10.8031 7.65684 10.8355C7.59463 10.868 7.54325 10.9178 7.509 10.979L6.784 12H6C5.99917 10.5582 6.51759 9.16425 7.46037 8.07334C8.40316 6.98243 9.70725 6.2675 11.134 6.0594C12.5608 5.85129 14.0147 6.16393 15.2298 6.94008C16.445 7.71624 17.3399 8.90401 17.751 10.286H18.64Z" fill="#27EA84"/>
</svg>
