<svg width="24" height="24" viewBox="0 0 24 24" fill="none" xmlns="http://www.w3.org/2000/svg">
<path fill-rule="evenodd" clip-rule="evenodd" d="M16.5194 6.28656C16.5194 6.13119 16.4563 5.98217 16.3439 5.87219C16.2316 5.76222 16.0791 5.70027 15.9201 5.69995H12.6204C12.4612 5.69995 12.3084 5.76175 12.1958 5.87176C12.0831 5.98178 12.0199 6.13098 12.0199 6.28656V9.38565C12.0202 9.54102 12.0836 9.68992 12.1963 9.79966C12.3089 9.90942 12.4614 9.97105 12.6204 9.97105H15.8829C15.9623 9.96777 16.0415 9.98177 16.1148 10.012C16.188 10.0423 16.2536 10.0881 16.3065 10.146C16.3595 10.204 16.3986 10.2728 16.421 10.3473C16.4435 10.4218 16.4487 10.5003 16.4363 10.5771C16.064 12.3599 14.5339 13.744 12.6193 13.9864C12.4591 14.0019 12.3101 14.0735 12.1999 14.1881C12.0896 14.3026 12.0257 14.4523 12.0199 14.6094V17.7085C12.0186 17.7849 12.0334 17.8609 12.0634 17.9316C12.0934 18.0022 12.1379 18.0662 12.1942 18.1193C12.2505 18.1725 12.3174 18.2139 12.3908 18.2407C12.464 18.2676 12.5422 18.2795 12.6204 18.2757C17.1064 17.9957 20.6951 14.5948 20.9992 10.3395C21.0034 10.2631 20.9915 10.1867 20.9642 10.115C20.9369 10.0433 20.8947 9.97788 20.8403 9.92283C20.7859 9.86778 20.7204 9.82427 20.6481 9.79503C20.5757 9.76579 20.498 9.75144 20.4197 9.7529H17.12C16.9608 9.7529 16.808 9.69108 16.6954 9.58108C16.5827 9.47107 16.5194 9.32186 16.5194 9.16628V6.28656Z" fill="white"/>
<path fill-rule="evenodd" clip-rule="evenodd" d="M7.49962 17.7133C7.49962 17.8686 7.43652 18.0177 7.32415 18.1277C7.21179 18.2377 7.05935 18.2996 6.90027 18.3H3.59944C3.44037 18.2996 3.28792 18.2377 3.17555 18.1277C3.06319 18.0177 3.00008 17.8686 3.00008 17.7133V14.6142C3.00008 14.459 3.06323 14.3101 3.17563 14.2003C3.28803 14.0905 3.44048 14.0288 3.59944 14.0288H6.86304C6.94307 14.032 7.02281 14.0178 7.09649 13.9871C7.17017 13.9564 7.23591 13.9101 7.28893 13.8515C7.34195 13.7928 7.38091 13.7234 7.40297 13.6482C7.42504 13.573 7.42966 13.4939 7.41648 13.4168C7.22284 12.531 6.75077 11.7264 6.06622 11.1154C5.38168 10.5043 4.51883 10.1174 3.5982 10.0086C3.43826 9.99289 3.28956 9.92113 3.1796 9.80661C3.06964 9.69208 3.00587 9.54254 3.00008 9.38564V6.28654C2.99879 6.21005 3.0136 6.13412 3.04359 6.06345C3.07358 5.99277 3.1181 5.92887 3.17441 5.87569C3.23072 5.82251 3.29761 5.7812 3.37093 5.7543C3.44426 5.7274 3.52245 5.7155 3.60068 5.71932C8.08658 6.00051 11.6728 9.40018 11.9793 13.6555C11.9836 13.7319 11.9717 13.8083 11.9444 13.88C11.917 13.9517 11.8749 14.0171 11.8205 14.0722C11.7661 14.1273 11.7007 14.1708 11.6283 14.2C11.5559 14.2292 11.4781 14.2436 11.3998 14.2421H8.10023C7.94116 14.2421 7.78858 14.3038 7.67598 14.4135C7.56338 14.5233 7.49996 14.6721 7.49962 14.8275V17.7133Z" fill="white"/>
</svg>
