<svg xmlns="http://www.w3.org/2000/svg" width="24" height="24" fill="none" viewBox="0 0 24 24">
    <g clip-path="url(#multis__a)">
        <path fill="#000" d="M24 0H0v24h24z"/>
        <path fill="#fff" d="M18.719 13.425q-.047 0-.098-.003a.77.77 0 0 1-.49-.2.6.6 0 0 1-.138-.181.03.03 0 0 1 0-.026.04.04 0 0 1 .019-.017.04.04 0 0 1 .027 0q.012.006.019.017s.037.08.125.162a.7.7 0 0 0 .443.179q.33.019.448-.088a.2.2 0 0 0 .063-.161c-.006-.16-.347-.204-.677-.247-.116-.015-.235-.03-.343-.05-.261-.05-.472-.16-.61-.318a.66.66 0 0 1-.166-.508c.023-.216.15-.415.355-.562.23-.163.545-.25.91-.25h.002q.534 0 .863.165.431.217.479.703a.03.03 0 0 1-.008.024.04.04 0 0 1-.024.012.04.04 0 0 1-.026-.007.03.03 0 0 1-.013-.023.8.8 0 0 0-.144-.405.8.8 0 0 0-.297-.245q-.314-.157-.83-.157h-.001c-.35 0-.65.082-.868.236a.74.74 0 0 0-.327.515.6.6 0 0 0 .15.46c.127.145.324.247.569.294.106.02.224.035.338.05.183.024.357.046.491.087q.244.074.247.223a.26.26 0 0 1-.084.21q-.12.111-.405.111"/>
        <path fill="#fff" d="M18.737 13.615q-.06 0-.126-.004a1.1 1.1 0 0 1-.428-.105.9.9 0 0 1-.263-.196c-.126-.138-.166-.27-.168-.275a.03.03 0 0 1 .003-.025.04.04 0 0 1 .021-.016.04.04 0 0 1 .027.003.03.03 0 0 1 .017.02c0 .001.039.125.156.252q.103.11.242.179.175.084.397.097.376.021.574-.084a.4.4 0 0 0 .215-.333c.014-.143-.061-.244-.238-.316-.163-.067-.392-.1-.612-.131l-.25-.039c-.232-.04-.42-.129-.544-.256a.5.5 0 0 1-.153-.41c.018-.17.124-.327.298-.44.192-.124.454-.187.757-.182.642.011 1.004.248 1.05.684a.03.03 0 0 1-.008.025.04.04 0 0 1-.025.012.04.04 0 0 1-.026-.008l-.008-.01-.004-.013a.59.59 0 0 0-.323-.483q-.246-.132-.657-.14c-.633-.011-.954.283-.983.56a.45.45 0 0 0 .134.36c.113.116.288.198.505.236q.122.02.248.037c.224.033.457.066.63.137q.307.125.28.383a.46.46 0 0 1-.251.384c-.121.065-.28.097-.487.097"/>
        <path fill="#fff" d="M18.746 13.806q-.075 0-.156-.004a1.4 1.4 0 0 1-.557-.14 1.1 1.1 0 0 1-.332-.262c-.155-.184-.197-.36-.2-.367v-.014a.03.03 0 0 1 .015-.022l.013-.005a.04.04 0 0 1 .027.005.03.03 0 0 1 .015.021c0 .002.041.171.187.343q.129.151.31.243.227.116.525.131c.665.035 1.004-.15 1.067-.582.033-.223-.052-.375-.267-.478-.195-.094-.469-.134-.733-.172l-.178-.027c-.205-.032-.372-.1-.48-.196-.103-.09-.152-.201-.14-.314.015-.124.1-.236.243-.315.154-.085.362-.124.602-.114q.325.015.518.134a.48.48 0 0 1 .236.38.03.03 0 0 1-.017.019l-.013.004a.04.04 0 0 1-.026-.007.03.03 0 0 1-.013-.022c-.023-.188-.16-.418-.689-.442-.226-.01-.42.027-.562.106-.123.067-.196.161-.208.264-.01.091.031.183.116.258.1.088.253.15.445.18l.177.026c.27.04.549.08.754.179.243.116.343.294.306.546a.66.66 0 0 1-.392.539q-.226.105-.593.105"/>
        <path fill="#fff" d="M18.762 14q-.1 0-.196-.005a1.65 1.65 0 0 1-.687-.174 1.25 1.25 0 0 1-.4-.327 1.15 1.15 0 0 1-.23-.46.03.03 0 0 1 .006-.026.03.03 0 0 1 .023-.013.04.04 0 0 1 .027.005.03.03 0 0 1 .014.022c0 .002.043.216.218.434q.155.19.378.308.28.145.655.164c.371.019.642-.014.854-.104a.8.8 0 0 0 .315-.23.9.9 0 0 0 .176-.413c.034-.203.004-.36-.091-.483-.087-.112-.23-.195-.44-.256a4.5 4.5 0 0 0-.617-.113l-.11-.016c-.425-.06-.557-.227-.541-.351.01-.08.077-.149.188-.193.115-.046.27-.062.446-.047a.6.6 0 0 1 .348.121.33.33 0 0 1 .112.194v.013l-.005.012a.04.04 0 0 1-.023.014h-.014l-.013-.005-.01-.01-.004-.012q-.045-.229-.398-.26c-.256-.023-.538.033-.557.18-.007.052.028.107.097.154a1 1 0 0 0 .385.125l.11.015c.212.029.433.06.627.115.224.066.38.157.476.28q.162.205.104.533c-.117.688-.71.809-1.223.809m-2.678-.073a.04.04 0 0 1-.033-.02l-.002-.014v-2.66q0-.013.01-.023a.04.04 0 0 1 .025-.01q.016 0 .025.01t.01.024v2.66a.03.03 0 0 1-.01.023.04.04 0 0 1-.025.01m.237 0a.04.04 0 0 1-.025-.01l-.008-.01-.002-.014v-2.66q0-.013.01-.023a.04.04 0 0 1 .05 0q.01.01.01.024v2.66a.03.03 0 0 1-.01.023.04.04 0 0 1-.025.01m.223 0a.04.04 0 0 1-.026-.01.03.03 0 0 1-.01-.024v-2.66q0-.013.01-.023a.04.04 0 0 1 .05 0q.01.01.011.024v2.66a.03.03 0 0 1-.01.023.04.04 0 0 1-.025.01m.237 0a.04.04 0 0 1-.025-.01l-.008-.01-.003-.014v-2.66q0-.013.01-.023a.04.04 0 0 1 .026-.01q.015 0 .025.01t.01.024v2.66a.03.03 0 0 1-.01.023.04.04 0 0 1-.025.01m-.32-3.01a.5.5 0 0 1-.27-.078.47.47 0 0 1-.18-.205.43.43 0 0 1-.027-.265.45.45 0 0 1 .133-.235.51.51 0 0 1 .53-.1.5.5 0 0 1 .218.17.44.44 0 0 1-.06.578.5.5 0 0 1-.344.135m0-.85a.43.43 0 0 0-.231.066.4.4 0 0 0-.153.176.37.37 0 0 0 .09.426.44.44 0 0 0 .453.085.4.4 0 0 0 .187-.144.376.376 0 0 0-.052-.495.43.43 0 0 0-.294-.114"/>
        <path fill="#fff" d="M16.46 10.748a.32.32 0 0 1-.208-.077.28.28 0 0 1-.061-.354.3.3 0 0 1 .128-.117.33.33 0 0 1 .34.036.3.3 0 0 1 .097.141.3.3 0 0 1-.002.168.3.3 0 0 1-.101.14.32.32 0 0 1-.193.063m-.236-.271a.2.2 0 0 0 .051.12q.046.053.114.074a.25.25 0 0 0 .137.002.24.24 0 0 0 .116-.071.21.21 0 0 0 .03-.247.23.23 0 0 0-.097-.093.25.25 0 0 0-.296.052.22.22 0 0 0-.055.163"/>
        <path fill="#fff" d="M16.468 10.594a.14.14 0 0 1-.093-.034.124.124 0 0 1-.015-.175.14.14 0 0 1 .085-.048.14.14 0 0 1 .098.02.13.13 0 0 1 .058.076.12.12 0 0 1-.012.093.13.13 0 0 1-.05.05.14.14 0 0 1-.071.018m0-.193a.07.07 0 0 0-.053.024.06.06 0 0 0 .007.084q.014.012.032.016a.1.1 0 0 0 .037-.002.1.1 0 0 0 .03-.02.06.06 0 0 0-.008-.085.07.07 0 0 0-.045-.017m-2.72.288a.03.03 0 0 0-.01-.023.04.04 0 0 0-.025-.01.04.04 0 0 0-.025.01.03.03 0 0 0-.01.023v.541h.07zm.222-.056a.03.03 0 0 0-.01-.023.04.04 0 0 0-.05 0 .03.03 0 0 0-.01.024v.591h.07zm.237-.041a.03.03 0 0 0-.005-.019.04.04 0 0 0-.016-.012.04.04 0 0 0-.039.007.03.03 0 0 0-.01.024v.643h.07zm.223-.056a.03.03 0 0 0-.01-.024.04.04 0 0 0-.05 0l-.008.011-.003.013v.694h.07zm1.162 3.26-.01-.01a.04.04 0 0 0-.026-.006l-.013.005c-.1.056-.306.118-.58.124a1.5 1.5 0 0 1-.732-.156.9.9 0 0 1-.345-.323 1.07 1.07 0 0 1-.138-.559v-.973h-.07v.973q-.001.346.146.591a.95.95 0 0 0 .372.349c.249.134.525.165.726.165h.043c.24-.006.476-.057.614-.134a.03.03 0 0 0 .017-.02.03.03 0 0 0-.004-.026"/>
        <path fill="#fff" d="M13.9 12.768q0 .49.28.749a.9.9 0 0 0 .369.2q.174.05.377.05h.034c.253-.005.485-.073.594-.134a.03.03 0 0 0 .016-.02.03.03 0 0 0-.004-.026.04.04 0 0 0-.022-.015.04.04 0 0 0-.027.004 1.35 1.35 0 0 1-.559.124c-.387.008-.61-.12-.729-.23q-.259-.24-.258-.702v-.87H13.9z"/>
        <path fill="#fff" d="M14.137 12.664q0 .486.256.714c.136.12.327.183.557.183a1.35 1.35 0 0 0 .593-.138.03.03 0 0 0 .015-.02.03.03 0 0 0-.005-.025.04.04 0 0 0-.021-.015.04.04 0 0 0-.026.003 1.3 1.3 0 0 1-.557.128c-.263 0-.42-.087-.507-.165q-.235-.209-.235-.665v-.766h-.07z"/>
        <path fill="#fff" d="M14.36 12.56q0 .483.228.675.146.122.378.122.057 0 .114-.007a1.4 1.4 0 0 0 .437-.136.03.03 0 0 0 .016-.028l-.003-.015a.03.03 0 0 0-.012-.013.04.04 0 0 0-.04 0 1.3 1.3 0 0 1-.406.126q-.28.03-.437-.099c-.136-.113-.205-.324-.205-.625v-.662h-.07z"/>
        <path fill="#fff" d="M15.445 11.937h-2.266a.04.04 0 0 1-.024-.01.03.03 0 0 1-.01-.024q0-.013.01-.023a.04.04 0 0 1 .024-.01h2.265q.015 0 .025.01t.01.023a.03.03 0 0 1-.01.024.04.04 0 0 1-.024.01m0-.223h-2.266a.04.04 0 0 1-.024-.01.03.03 0 0 1-.01-.024q0-.013.01-.023a.04.04 0 0 1 .024-.01h2.265q.015 0 .025.01t.01.023a.03.03 0 0 1-.01.023.04.04 0 0 1-.024.01m0-.21h-2.266a.04.04 0 0 1-.025-.01l-.008-.01a.03.03 0 0 1 0-.026l.008-.01a.04.04 0 0 1 .025-.01h2.265q.008 0 .014.002a.04.04 0 0 1 .02.018.03.03 0 0 1 0 .026.03.03 0 0 1-.02.018zm0-.223h-2.266a.04.04 0 0 1-.024-.01.03.03 0 0 1-.01-.024q0-.013.01-.023a.04.04 0 0 1 .024-.01h2.265q.015 0 .025.01t.01.024a.03.03 0 0 1-.01.023.04.04 0 0 1-.024.01m-3.348 2.644a.04.04 0 0 1-.025-.01.03.03 0 0 1-.01-.024v-3.676q0-.015.01-.024a.04.04 0 0 1 .05 0l.008.011.003.013v3.676a.03.03 0 0 1-.01.024l-.012.007zm.238 0a.04.04 0 0 1-.026-.01l-.007-.01-.003-.014v-3.676q0-.015.01-.024a.04.04 0 0 1 .026-.01q.014 0 .024.01t.01.024v3.676a.03.03 0 0 1-.01.024.04.04 0 0 1-.024.01m.222 0a.04.04 0 0 1-.025-.01l-.008-.01-.003-.014v-3.676q0-.015.01-.024a.04.04 0 0 1 .05 0l.008.011.003.013v3.676a.03.03 0 0 1-.01.024.04.04 0 0 1-.025.01m.237 0a.04.04 0 0 1-.025-.01.03.03 0 0 1-.01-.024v-3.676q0-.015.01-.024a.04.04 0 0 1 .05 0q.01.01.01.024v3.676a.03.03 0 0 1-.01.024.04.04 0 0 1-.025.01m-2.05-.325-.003-.175a.04.04 0 0 0-.023.011.03.03 0 0 0-.008.023c-.001.16-.12.262-.218.319a1.05 1.05 0 0 1-.52.123h-.003q-.197 0-.384-.058-.199-.06-.348-.178a.9.9 0 0 1-.252-.314 1.1 1.1 0 0 1-.098-.466v-1.651a.03.03 0 0 0-.006-.019.04.04 0 0 0-.016-.012.04.04 0 0 0-.038.007.03.03 0 0 0-.01.024v1.651c0 .35.13.637.375.83q.16.126.371.191.198.06.406.061h.002c.212 0 .41-.047.557-.132a.5.5 0 0 0 .218-.223z"/>
        <path fill="#fff" d="M10.715 13.104a.03.03 0 0 0-.012.024.49.49 0 0 1-.217.402.87.87 0 0 1-.5.147h-.001c-.436 0-.875-.277-.875-.894v-1.55a.03.03 0 0 0-.006-.018.04.04 0 0 0-.016-.012.04.04 0 0 0-.039.007.03.03 0 0 0-.01.024v1.55c0 .305.104.558.301.73.17.148.398.23.645.23a.94.94 0 0 0 .543-.16.6.6 0 0 0 .201-.241z"/>
        <path fill="#fff" d="m10.714 12.787-.003.01a.63.63 0 0 1-.21.49.7.7 0 0 1-.464.17c-.344 0-.69-.24-.69-.776v-1.447a.03.03 0 0 0-.01-.024.04.04 0 0 0-.026-.01.04.04 0 0 0-.025.01.03.03 0 0 0-.01.024v1.447c0 .265.082.485.237.636a.78.78 0 0 0 1.036.019.7.7 0 0 0 .174-.238 4 4 0 0 1-.01-.312"/>
        <path fill="#fff" d="m10.726 12.526.009-.026-.013-.061a.03.03 0 0 0-.012.012.03.03 0 0 0-.005.016c0 .301-.107.483-.197.583a.56.56 0 0 1-.415.193.48.48 0 0 1-.36-.16c-.107-.12-.164-.294-.164-.504v-1.345a.03.03 0 0 0-.01-.024.04.04 0 0 0-.025-.01.04.04 0 0 0-.025.01.03.03 0 0 0-.01.024v1.345c0 .226.062.415.18.546a.55.55 0 0 0 .414.184.64.64 0 0 0 .469-.216.8.8 0 0 0 .145-.237q-.002-.165.019-.33"/>
        <path fill="#fff" d="M10.734 13.928a.04.04 0 0 1-.025-.01l-.008-.01-.002-.013v-2.647q0-.015.01-.024a.037.037 0 0 1 .058.01l.002.014v2.647l-.002.013-.008.01a.04.04 0 0 1-.025.01m.237 0a.04.04 0 0 1-.025-.01l-.008-.01-.002-.013v-2.647q0-.015.01-.024a.04.04 0 0 1 .05 0q.01.01.01.024v2.647l-.002.013a.03.03 0 0 1-.02.018zm.222 0a.04.04 0 0 1-.025-.01.03.03 0 0 1-.01-.023v-2.647q0-.015.01-.024a.04.04 0 0 1 .05 0q.01.01.01.024v2.647l-.002.013a.03.03 0 0 1-.02.018zm.238 0a.04.04 0 0 1-.026-.01.03.03 0 0 1-.01-.023v-2.647q0-.015.01-.024a.04.04 0 0 1 .026-.01q.014 0 .025.01.01.01.01.024v2.647a.03.03 0 0 1-.01.024.04.04 0 0 1-.025.01m-3.14-2.173a.95.95 0 0 0-.24-.33 1.23 1.23 0 0 0-.731-.29 1.37 1.37 0 0 0-.719.134.8.8 0 0 0-.319.285.4.4 0 0 1 .052.05.6.6 0 0 1 .062-.092.8.8 0 0 1 .24-.184c.19-.099.437-.145.679-.127.269.02.513.117.687.272a.9.9 0 0 1 .224.308q.085.196.085.438v1.68q0 .015.01.024a.04.04 0 0 0 .039.008l.011-.008.008-.01.003-.013v-1.68q0-.257-.09-.465"/>
        <path fill="#fff" d="M6.634 11.55a1 1 0 0 1 .58-.142c.23.01.44.092.593.229.176.157.269.382.269.65v1.614q0 .014.01.023.011.01.025.01t.025-.01a.03.03 0 0 0 .01-.023v-1.613c0-.288-.1-.53-.29-.7a1.03 1.03 0 0 0-.64-.247 1.1 1.1 0 0 0-.621.153.7.7 0 0 0-.209.194q.02.037.034.075a.7.7 0 0 1 .214-.213"/>
        <path fill="#fff" d="M6.473 12.001a.6.6 0 0 1 .18-.231.76.76 0 0 1 .485-.154c.19.004.365.072.494.19a.72.72 0 0 1 .224.552v1.546q0 .01.006.018.006.009.016.012a.04.04 0 0 0 .039-.007.03.03 0 0 0 .01-.023v-1.546a.8.8 0 0 0-.246-.6.83.83 0 0 0-.541-.209.83.83 0 0 0-.532.17.7.7 0 0 0-.148.16q.009.053.012.107z"/>
        <path fill="#fff" d="M6.66 11.973a.56.56 0 0 1 .395-.162.57.57 0 0 1 .389.153c.116.11.178.267.178.452v1.478q0 .01.006.018.006.009.016.012a.04.04 0 0 0 .038-.007.03.03 0 0 0 .01-.023v-1.478c0-.44-.32-.671-.638-.671a.64.64 0 0 0-.446.182.7.7 0 0 0-.133.199l.008.25a.66.66 0 0 1 .177-.403"/>
        <path fill="#fff" d="M4.035 13.948a.04.04 0 0 1-.025-.01.03.03 0 0 1-.01-.023V12.19c0-.33.134-.606.388-.798.223-.169.524-.261.85-.261q.239 0 .467.067.232.07.41.202a.97.97 0 0 1 .405.804v1.693a.03.03 0 0 1-.01.024.04.04 0 0 1-.05 0 .03.03 0 0 1-.011-.024v-1.693a.9.9 0 0 0-.378-.752 1.3 1.3 0 0 0-.388-.19 1.6 1.6 0 0 0-.445-.065c-.31 0-.596.088-.806.247a.9.9 0 0 0-.361.745v1.726a.03.03 0 0 1-.01.023.04.04 0 0 1-.026.01"/>
        <path fill="#fff" d="M4.258 13.945a.04.04 0 0 1-.025-.01l-.008-.01-.003-.014V12.26c0-.285.11-.525.32-.692.185-.147.434-.228.702-.228.273 0 .528.083.72.234.216.171.33.414.33.7V13.9a.03.03 0 0 1-.01.024.04.04 0 0 1-.026.01.04.04 0 0 1-.025-.01.03.03 0 0 1-.01-.024v-1.625a.8.8 0 0 0-.305-.65 1 1 0 0 0-.314-.164 1.2 1.2 0 0 0-.36-.055c-.251 0-.484.076-.656.213a.79.79 0 0 0-.295.64v1.652q0 .007-.003.013l-.007.01a.04.04 0 0 1-.025.01"/>
        <path fill="#fff" d="M4.48 13.942q-.008 0-.014-.003l-.011-.007a.03.03 0 0 1-.01-.024v-1.577c0-.241.087-.444.251-.586a.84.84 0 0 1 .554-.196.85.85 0 0 1 .561.2.76.76 0 0 1 .257.597v1.558a.03.03 0 0 1-.01.023.04.04 0 0 1-.05 0 .03.03 0 0 1-.01-.023v-1.558a.7.7 0 0 0-.234-.548.78.78 0 0 0-.514-.182.77.77 0 0 0-.506.178.68.68 0 0 0-.229.537v1.577q0 .008-.002.013l-.008.01a.04.04 0 0 1-.025.01"/>
        <path fill="#fff" d="M5.806 13.926a.04.04 0 0 1-.025-.01.03.03 0 0 1-.01-.023v-1.49a.62.62 0 0 0-.163-.447.51.51 0 0 0-.546-.107.5.5 0 0 0-.162.105.6.6 0 0 0-.162.433v1.504a.03.03 0 0 1-.01.024.04.04 0 0 1-.026.01.04.04 0 0 1-.025-.01.03.03 0 0 1-.01-.024v-1.504c0-.196.063-.362.182-.479a.56.56 0 0 1 .406-.163.58.58 0 0 1 .405.165.68.68 0 0 1 .182.492v1.49q0 .008-.003.013l-.008.011a.04.04 0 0 1-.025.01"/>
    </g>
    <defs>
        <clipPath id="multis__a">
            <path fill="#fff" d="M0 0h24v24H0z"/>
        </clipPath>
    </defs>
</svg>
