<svg xmlns="http://www.w3.org/2000/svg" width="24" height="24" fill="none" viewBox="0 0 24 24">
    <g clip-path="url(#portal__a)">
        <path fill="#3E71F8" d="M24 0H0v24h24z"/>
        <path fill="#fff" fill-rule="evenodd" d="M18.74 15.043a4.304 4.304 0 0 0 0-6.086s-4.492-4.638-5.103-4.9c-.029-.013-.027-.024-.025-.032.004-.016.006-.025-.248-.025a.69.69 0 0 0-.688.689v1.793c0 .38.308.689.688.689h.746c1.585 0 2.87 1.092 2.87 2.677v4.304c0 1.585-1.285 2.677-2.87 2.677h-.746a.69.69 0 0 0-.688.689v1.793a.69.69 0 0 0 .96.633c.612-.264 5.103-4.9 5.103-4.9m-7.416-8.56V4.688a.688.688 0 0 0-.96-.633c-.612.264-5.103 4.9-5.103 4.9a4.304 4.304 0 0 0 0 6.087s4.49 4.637 5.102 4.9a.688.688 0 0 0 .961-.632v-1.793a.69.69 0 0 0-.688-.689H9.89c-1.585 0-2.87-1.092-2.87-2.677V9.848c0-1.584 1.285-2.677 2.87-2.677h.746c.38 0 .688-.308.688-.689" clip-rule="evenodd"/>
    </g>
    <defs>
        <clipPath id="portal__a">
            <path fill="#fff" d="M0 0h24v24H0z"/>
        </clipPath>
    </defs>
</svg>
