<svg width="24" height="24" viewBox="0 0 24 24" fill="none" xmlns="http://www.w3.org/2000/svg">
<path d="M12 4C16.4187 4 20 7.58125 20 12C20 16.4187 16.4187 20 12 20C7.58125 20 4 16.4187 4 12C4 7.58125 7.58125 4 12 4Z" fill="#0052FF"/>
<path d="M12.0016 14.8125C10.4484 14.8125 9.18906 13.5547 9.18906 12C9.18906 10.4453 10.4484 9.1875 12.0016 9.1875C13.3938 9.1875 14.55 10.2031 14.7719 11.5312H17.6047C17.3656 8.64375 14.9484 6.375 12 6.375C8.89375 6.375 6.375 8.89375 6.375 12C6.375 15.1062 8.89375 17.625 12 17.625C14.9484 17.625 17.3656 15.3562 17.6047 12.4688H14.7703C14.5469 13.7969 13.3938 14.8125 12.0016 14.8125Z" fill="white"/>
</svg>
