<svg width="24" height="24" viewBox="0 0 24 24" fill="none" xmlns="http://www.w3.org/2000/svg">
<path fill-rule="evenodd" clip-rule="evenodd" d="M14.1458 3L12.6692 3.83786V10.956L13.4756 11.4141V5.99323L16.2436 7.56447L16.2463 7.5632L16.7837 7.86782L17.2325 7.61482V7.18695L13.4756 5.05739V4.31625L14.1458 3.93603L18.0365 6.14482V8.11071L16.1688 9.16494L16.1057 9.13372C15.992 9.07778 15.8742 9.04926 15.7559 9.04926C15.3114 9.04926 14.9497 9.41559 14.9497 9.86565C14.9497 10.3157 15.3114 10.6822 15.7559 10.6822C16.1682 10.6822 16.5111 10.367 16.5533 9.94902L16.5605 9.87864L18.4455 8.81467L20.1936 9.80718V14.1984L18.4435 15.1909L11.3306 11.1518V3.8384L9.854 3L5.15731 5.66643V8.0997L3 9.32284V14.6712L5.15731 15.896V18.3336L9.854 21L11.3306 20.1618V13.0283L10.5242 12.5707V18.0069L7.21626 16.1322L6.76737 16.3852V16.8132L10.5242 18.943V19.6834L9.854 20.064L5.9635 17.8552V15.8889L7.83123 14.8352L7.89396 14.8663C8.00819 14.9222 8.12562 14.9507 8.24377 14.9507C8.68838 14.9507 9.05013 14.5846 9.05013 14.1343C9.05013 13.6839 8.68838 13.318 8.24377 13.318C7.83177 13.318 7.48926 13.633 7.44649 14.0512L7.43972 14.1214L5.55435 15.1855L3.80619 14.1928V9.80159L5.55649 8.80926L12.6692 12.8479V20.1618L14.1458 21L18.8427 18.3336V15.9003L21 14.6773V9.32879L18.8427 8.10439V5.66643L14.1458 3ZM5.9635 6.14482L9.854 3.93603L10.5242 4.31643V5.05702L5.9635 7.64243V6.14482ZM6.38174 8.34169L10.5242 5.99287V10.6938L6.38174 8.34169ZM13.4756 13.3059L17.6184 15.6585L13.4756 18.0073V13.3059ZM13.4756 19.6834V18.9432L18.0365 16.3574V17.8552L14.1458 20.064L13.4756 19.6834Z" fill="#01C38D"/>
</svg>
