<svg xmlns="http://www.w3.org/2000/svg" width="24" height="24" fill="none" viewBox="0 0 24 24">
    <path fill="#fff" d="M10.88 9.87c-.549-1.062-2.423-1.062-4.607-1.6-1.743-.424-1.457-2.308-1.088-3.193C3.434 5.5 3 6.492 3 7.385c0 3.192 3.952 3.553 4.5 4.076.434.431.18.893 0 1.077-.434 1.27 1.137 2.185 2.045 2.539v2.308c0 .538.925 1.538 2.455 1.538s2.454-1 2.454-1.538v-2.308c0-.538 2.594-1.477 2.046-2.539-.434-.861-.18-1.077 0-1.077 2.185-.523 4.5-2.923 4.5-4.076 0-1.154-.409-1.923-2.045-2.308.409.385.63 2.346-.68 3.192-1.636 1.07-4.606.539-5.154 1.6-.434.846-.18 2.485 0 3.193l1.882-.531c0 1.069-.77 1.6-1.31 1.6-.548 0-1.284.8-1.284 1.33 0 .539 0 1.539-.409 1.539-.41 0-.41-1.185-.41-1.539 0-.538-.408-1.33-1.275-1.33-.876 0-1.13-1.07-1.13-1.6l1.694.538c.36-.715.434-2.346 0-3.2"/>
</svg>
