<svg width="24" height="24" viewBox="0 0 24 24" fill="none" xmlns="http://www.w3.org/2000/svg">
<path fill-rule="evenodd" clip-rule="evenodd" d="M12.0001 2L20.888 7.00014V17.0004L12.0001 22L3.11206 16.9998V7.00014L12.0001 2ZM20.0548 7.15626L12.2778 2.78169V11.5314L20.0548 7.15626ZM20.3326 7.62516L12.5556 12.0002L20.3326 16.3748V7.62516ZM20.0548 16.8437L12.2778 12.4686V21.2188L20.0548 16.8437ZM11.7223 21.2183L3.94541 16.8437L11.7223 12.4691V21.2183ZM11.7223 11.5308L3.94541 7.15626L11.7223 2.78169V11.5308ZM3.66763 7.62516L11.4445 12.0002L3.66763 16.3743V7.62516Z" fill="white"/>
<path d="M12.001 6.61438L16.6855 14.5201L12.0005 17.1558L7.31641 14.5208L12.001 6.61438ZM12.001 7.69774L8.0753 14.3224L12.0005 16.5307L15.9267 14.3224L12.001 7.69774Z" fill="white"/>
</svg>
