<svg xmlns="http://www.w3.org/2000/svg" width="24" height="24" fill="none" viewBox="0 0 24 24">
    <path fill="#fff" d="M11.606 11.1h-.357l.976 1.8h.3l.975-1.8h-.357l-.769 1.418zm-6.168 0h.28v1.215c0 .126.128.248.23.248H6.99c.101 0 .229-.122.229-.248V11.1H7.5v1.35a.5.5 0 0 1-.11.318.35.35 0 0 1-.265.132H5.812a.35.35 0 0 1-.265-.132.5.5 0 0 1-.11-.318zm5.193 0v.338h-.6V12.9H9.75v-1.462h-.619V11.1zm-2.943 0h.28v1.463h1.22v.337h-1.5zm10.125 0a.35.35 0 0 0-.266.132.5.5 0 0 0-.11.318v.18c0 .12.04.234.11.318.07.085.166.132.265.132H18.9q.03.004.056.02a.2.2 0 0 1 .046.046q.018.028.027.062.009.035.006.07a.2.2 0 0 1-.017.068.2.2 0 0 1-.038.054.14.14 0 0 1-.051.033.13.13 0 0 1-.059.007h-1.361v.36h1.428c.1 0 .195-.047.266-.132a.5.5 0 0 0 .11-.318v-.18a.5.5 0 0 0-.11-.318.35.35 0 0 0-.265-.132h-1.08a.14.14 0 0 1-.103-.062.2.2 0 0 1-.036-.131.2.2 0 0 1 .052-.124.14.14 0 0 1 .109-.043h1.361v-.36zm-6.657 0h-.281v1.8h.281zm4.031 0v.338H13.97v.396h1.218v.337H13.97v.392h1.218v.337h-1.5v-1.8zm5.813.338V11.1h-1.5v1.8H21v-.337h-1.219v-.396H21v-.338h-1.219v-.391zm-5.531-.338v1.8h.281v-.68h.754l.262.68h.315l-.262-.684a.36.36 0 0 0 .241-.146.5.5 0 0 0 .096-.304v-.216c0-.12-.04-.234-.11-.318a.35.35 0 0 0-.265-.132zm.281.756v-.45h.986c.05 0 .098.024.133.066a.25.25 0 0 1 .055.16.25.25 0 0 1-.055.158.17.17 0 0 1-.133.066zM5.25 11.1h-.285l-.825 1.332-.855-1.323V11.1H3v1.8h.281v-1.242L4.08 12.9h.12l.765-1.215V12.9h.285z"/>
</svg>
