<svg xmlns="http://www.w3.org/2000/svg" width="24" height="24" fill="none" viewBox="0 0 24 24">
    <path fill="#fff" fill-rule="evenodd" d="M12.001 2a2.68 2.68 0 0 1 2.144 1.2l3.675 6.3 1.806-3.087c.35-.6 1.125-.813 1.738-.47.606.338.812 1.107.462 1.707l-2.544 4.356 2.544 4.35c.35.606.144 1.375-.462 1.713a1.29 1.29 0 0 1-1.738-.475l-1.806-3.088-3.675 6.3-.094.144A2.69 2.69 0 0 1 11.99 22a2.53 2.53 0 0 1-1.919-.913 1.3 1.3 0 0 1-.219-.28l-.05-.088a4 4 0 0 1-.144-.244l-.937-1.6-.587-1L6.176 14.5l-1.8 3.087a1.29 1.29 0 0 1-1.737.476 1.24 1.24 0 0 1-.463-1.713L4.72 12 2.176 7.644a1.237 1.237 0 0 1 .463-1.707 1.287 1.287 0 0 1 1.737.47L6.17 9.5l2.813-4.812.668-1.15q.077-.148.181-.307l.02-.031q.075-.131.187-.244A2.54 2.54 0 0 1 12 2m3.394 8.356.963 1.65-4.363 7.469-4.362-7.469 1.043-1.787L12.05 16.3l3.344-5.937zm-1.431-2.45-1.969-3.375-1.856 3.188 1.912 3.437z" clip-rule="evenodd"/>
    <path fill="#fff" d="M16.358 9.437c-.463 0-.82.644-.957.92L16.39 12l1.087-1.05c-.143-.812-.537-1.531-1.118-1.525zm-8.713-.012c.463.006.894.531 1.031.8l-1.043 1.781-1.107-1.062c.144-.813.538-1.525 1.12-1.519m3.412-5.538c.469.019.812.444.937.644l-.925 1.575-1.569-.9c.488-.875.963-1.338 1.55-1.313zm-.025 16.226c.475-.02.837-.438.962-.638l-1.387-2.363-1.55.876c.087.168.606 1.125.7 1.262.394.581.8.881 1.275.863"/>
</svg>
