<svg xmlns="http://www.w3.org/2000/svg" width="24" height="24" fill="none" viewBox="0 0 24 24">
    <path fill="#fff" d="M20.885 14.143H3.072c-.614 0-1.071.571-1.071 1.186 0 .614.564.957 1.171.957h1.329c-.214.621-.336 1.357-.514 1.878l-.593 1.714-.215.643a1.1 1.1 0 0 0 .686 1.414c.579.207 1.214-.1 1.414-.685l.222-.643.593-1.714L7 16.286h10l.914 2.607c.243.714.457 1.3.593 1.714l.221.643a1.113 1.113 0 0 0 2.1-.729l-.221-.643-.593-1.714-.657-1.878h1.528c.614 0 1.114-.343 1.114-.957 0-.607-.5-1.186-1.114-1.186M3.115 12h17.77C21.5 12 22 11.5 22 10.886c0-.607-.5-1.028-1.114-1.028h-3.814c-.928-2.7-1.664-5.029-1.793-5.429a3.57 3.57 0 0 0-1.22-1.785A3.34 3.34 0 0 0 12 2c-.742 0-1.457.186-2.057.643A3.54 3.54 0 0 0 8.73 4.429c-.143.4-.914 2.729-1.85 5.429H3.115c-.614 0-1.114.421-1.114 1.028 0 .614.5 1.114 1.114 1.114m7.714-6.87c.143-.4.3-.6.45-.715.143-.1.357-.193.721-.193.372 0 .586.093.722.193.216.188.37.437.443.714.128.372.87 2.357 1.692 4.729H9.143c.822-2.364 1.572-4.357 1.693-4.729z"/>
</svg>
