<svg width="24" height="24" viewBox="0 0 24 24" fill="none" xmlns="http://www.w3.org/2000/svg">
<path d="M13.2936 2.31211L19.8314 5.66847C20.2975 5.90648 20.6886 6.26905 20.9611 6.71591C21.2336 7.16276 21.377 7.6764 21.3751 8.1998V9.49992H18.8751V8.1998C18.8751 8.04355 18.8751 7.8873 18.7313 7.81855L12.1873 4.55593C12.1263 4.52516 12.0588 4.50913 11.9904 4.50913C11.9221 4.50913 11.8546 4.52516 11.7935 4.55593L5.26837 7.81229C5.12462 7.88104 5.12462 8.03731 5.12462 8.1873V9.49992H2.62453V8.1998C2.62345 7.67656 2.76707 7.1632 3.03953 6.71646C3.31197 6.26975 3.70264 5.90705 4.16833 5.66847L10.706 2.31211C11.1065 2.10697 11.55 2 11.9999 2C12.4498 2 12.8931 2.10697 13.2936 2.31211ZM13.8749 11.9999C13.8749 10.9124 13.0749 10.1248 11.9999 10.1248C11.7522 10.1197 11.5061 10.1648 11.2762 10.2573C11.0465 10.3496 10.8377 10.4875 10.6625 10.6627C10.4874 10.8378 10.3496 11.0465 10.2571 11.2764C10.1647 11.5062 10.1197 11.7522 10.1248 11.9999C10.1123 13.075 10.8623 13.8625 11.9999 13.8751C13.1374 13.8875 13.8749 13.0875 13.8749 11.9999ZM18.7313 16.1876C18.8751 16.1125 18.8751 15.9563 18.8751 15.8001V14.5H21.3751V15.8001C21.377 16.3234 21.2336 16.837 20.9611 17.284C20.6886 17.7309 20.2975 18.0934 19.8314 18.3314L13.2999 21.6878C12.8984 21.893 12.4539 22 12.0029 22C11.552 22 11.1076 21.893 10.706 21.6878L4.16833 18.3314C3.70217 18.0934 3.31112 17.7309 3.03859 17.284C2.76606 16.837 2.62273 16.3234 2.62453 15.8001V14.5H5.12462V15.8001C5.12462 15.9626 5.12462 16.1125 5.26837 16.1813L10.7498 18.8751V16.0626C9.84206 15.8464 9.0361 15.3248 8.46714 14.5852C7.89818 13.8455 7.60075 12.9328 7.62469 11.9999C7.62469 9.53113 9.36225 7.62479 11.9999 7.62479C14.6374 7.62479 16.375 9.49992 16.375 11.9999C16.375 14.1062 15.1312 15.5376 13.2499 16.0626V18.8751L18.7313 16.1876Z" fill="white"/>
</svg>
