<svg xmlns="http://www.w3.org/2000/svg" width="24" height="24" fill="none" viewBox="0 0 24 24">
    <path fill="#fff" d="M11.23 19.2a7.2 7.2 0 0 0 6.736-4.644c.442-.051.853-.2 1.213-.427a8.227 8.227 0 0 1-14.774 2.469.49.49 0 0 1 .257-.726l.01-.005a.544.544 0 0 1 .623.206 7.19 7.19 0 0 0 5.934 3.126M4.697 7.854a.54.54 0 0 0 .74-.138A7.2 7.2 0 0 1 17.73 8.915c.458.015.88.128 1.255.329A8.227 8.227 0 0 0 4.57 7.166a.49.49 0 0 0 .128.69m-1.234 5.688a.1.1 0 0 0 .098-.051l1.404-2.674a.103.103 0 0 1 .185 0l1.404 2.674a.11.11 0 0 0 .097.05h.36a.105.105 0 0 0 .093-.153L5.321 9.996a.1.1 0 0 0-.093-.052h-.34a.1.1 0 0 0-.092.052L3.012 13.39a.106.106 0 0 0 .097.154h.36zm6.222-3.6H7.732a.103.103 0 0 0-.102.103v3.394c0 .057.046.103.102.103h.309a.103.103 0 0 0 .103-.103V10.46h1.542c.252 0 .515.298.515.514 0 .344-.175.514-.515.514h-.699a.103.103 0 0 0-.103.103v.375c0 .02.01.047.026.067l1.214 1.476a.1.1 0 0 0 .077.036h.411c.088 0 .134-.103.082-.165l-1.07-1.378c.608 0 1.09-.406 1.09-1.028 0-.54-.513-1.029-1.028-1.029m2.16 3.6a.103.103 0 0 1-.103-.103v-3.394c0-.056.047-.103.103-.103h.309c.056 0 .103.047.103.103v3.394a.103.103 0 0 1-.103.103z"/>
    <path fill="#fff" fill-rule="evenodd" d="M17.657 13.03a1.286 1.286 0 1 0 0-2.573 1.286 1.286 0 0 0 0 2.573m0 .514a1.8 1.8 0 0 0 1.663-1.111 1.8 1.8 0 0 0-.39-1.962 1.8 1.8 0 1 0-1.273 3.073" clip-rule="evenodd"/>
    <path fill="#fff" d="m14.829 9.944-1.029.515v.514l.515-.257v2.828h.514z"/>
    <path fill="#fff" fill-rule="evenodd" d="M20.213 10.972a.77.77 0 0 1-.13-1.53.772.772 0 0 1 .917.758c0 .427-.633.993-.926 1.368l-.206-.164zm.015-.257a.514.514 0 1 1 .515-.515c0 .258-.252.515-.515.515" clip-rule="evenodd"/>
</svg>
