<svg xmlns="http://www.w3.org/2000/svg" width="24" height="24" fill="none" viewBox="0 0 24 24">
    <path fill="#fff" fill-rule="evenodd" d="M12 19.941a7.942 7.942 0 1 0 0-15.883 7.942 7.942 0 0 0 0 15.883M12 21a9 9 0 1 0 0-17.999A9 9 0 0 0 12 21" clip-rule="evenodd"/>
    <path fill="#fff" d="m10.942 8.293-1.06 1.059v2.117l1.854-2.117h1.588l-1.059 1.058h-.53l-1.058 1.06h3.97l-1.058 1.587h-2.647l-1.06 1.06h4.766l2.382-3.707h-2.912l2.118-2.117z"/>
    <path fill="#fff" d="m7.924 8.342.9.9v.752l-.688-.688-1.393 3.954 2.78 3.007.407-1.09h.567l-.784 2.086-3.573-3.876 1.778-5.045zm2.631 6.835-.82 2.192 5.373-.9.429-1.292h-.556l-.275.826-4.156.688.577-1.514z"/>
</svg>
