<svg xmlns="http://www.w3.org/2000/svg" width="24" height="24" fill="none" viewBox="0 0 24 24">
    <path fill="#fff" d="M11.571 18.28c0 1.502-1.246 2.72-2.785 2.72S6 19.782 6 18.28s1.247-2.722 2.786-2.722 2.785 1.219 2.785 2.721m6.429 0c0 1.502-1.247 2.72-2.786 2.72s-2.785-1.218-2.785-2.72 1.247-2.722 2.785-2.722S18 16.777 18 18.279M10.286 8.013a2.7 2.7 0 0 0 1.285-2.293c0-1.502-1.246-2.72-2.785-2.72S6 4.218 6 5.72c0 .964.513 1.81 1.286 2.294v.01a1.034 1.034 0 0 1 0 1.674A2.72 2.72 0 0 0 6 12c0 1.503 1.247 2.72 2.786 2.72S11.57 13.504 11.57 12a2.72 2.72 0 0 0-1.285-2.302 1.04 1.04 0 0 1-.43-.838c0-.342.17-.646.43-.837z"/>
    <path fill="#fff" d="M12.867 13.465a2.8 2.8 0 0 0 2.347 1.256C16.753 14.72 18 13.503 18 12s-1.247-2.72-2.786-2.72a2.8 2.8 0 0 0-2.347 1.255h-.01a1.08 1.08 0 0 1-.857.418 1.08 1.08 0 0 1-.857-.418 2.82 2.82 0 0 0-2.357-1.256C7.246 9.28 6 10.497 6 12s1.247 2.722 2.786 2.722c.986 0 1.862-.5 2.357-1.256a1.08 1.08 0 0 1 .857-.418c.35 0 .662.164.857.418zm0 6.28A2.8 2.8 0 0 0 15.214 21C16.754 21 18 19.782 18 18.28c0-1.504-1.247-2.722-2.786-2.722a2.8 2.8 0 0 0-2.347 1.256h-.01a1.08 1.08 0 0 1-.857.419 1.08 1.08 0 0 1-.857-.419 2.82 2.82 0 0 0-2.357-1.256C7.247 15.558 6 16.776 6 18.279S7.247 21 8.786 21c.986 0 1.862-.5 2.357-1.255a1.08 1.08 0 0 1 .857-.419c.35 0 .662.165.857.42z"/>
    <path fill="#fff" d="M16.714 14.293A2.7 2.7 0 0 0 18 12c0-1.503-1.247-2.72-2.786-2.72S12.43 10.496 12.43 12c0 .963.512 1.81 1.285 2.293v.01c.26.19.43.494.43.836 0 .343-.17.647-.43.838a2.72 2.72 0 0 0-1.285 2.302c0 1.503 1.247 2.72 2.785 2.72C16.754 21 18 19.783 18 18.28a2.72 2.72 0 0 0-1.286-2.302 1.03 1.03 0 0 1-.428-.838c0-.342.168-.646.428-.837zm-6.428 0A2.7 2.7 0 0 0 11.57 12c0-1.503-1.246-2.72-2.785-2.72S6 10.496 6 12c0 .963.513 1.81 1.286 2.293v.01a1.034 1.034 0 0 1 0 1.674A2.72 2.72 0 0 0 6 18.279C6 19.784 7.247 21 8.786 21s2.785-1.217 2.785-2.72a2.72 2.72 0 0 0-1.285-2.302 1.03 1.03 0 0 1-.43-.838c0-.342.17-.646.43-.837z"/>
</svg>
