<svg xmlns="http://www.w3.org/2000/svg" width="24" height="24" fill="none" viewBox="0 0 24 24">
    <path fill="#fff" d="M12 2.001A10 10 0 1 1 12 22 9.993 9.993 0 0 1 2.947 7.763a4.3 4.3 0 0 0 4.23 3.612h1.075V9.5h-1.08c-1.144.019-2.12-1.23-2.138-2.362v-.025c-.013-1.162.994-1.968 2.125-1.987 1.162-.013 2.312.856 2.337 2v6.386c0 2.319 1.406 4.125 3.75 4.113 2.424-.007 4.374-1.95 4.374-4.25A3.937 3.937 0 0 0 13.551 9.5h-.925v1.875h.931a2.23 2.23 0 0 1 2.194 2.125v.025a2.3 2.3 0 0 1-2.181 2.225c-1.107.006-2.175-1.113-2.194-2.238V7.126c0-1.163-.344-2.181-1.175-3.013A4.34 4.34 0 0 0 7.883 2.92 9.45 9.45 0 0 1 12 2"/>
</svg>
