<svg xmlns="http://www.w3.org/2000/svg" width="24" height="24" fill="none" viewBox="0 0 24 24">
    <path fill="#fff" d="M10.42 4.632H6.21v13.157h2.632V7.263h5.789c.321 0 .526.242.526.526v1.58c0 .33-.205.526-.526.526h-3.158v2.631h3.158c.321 0 .526.29.526.527v1.578c0 .264-.3.527-.526.527h-3.158V22h2.632v-4.21h1.752c1.632 0 1.932-1.074 1.932-1.79v-3.474a1.4 1.4 0 0 0-.79-1.316c.548-.284.79-1.105.79-1.578v-2.3c0-2-1.174-2.7-1.932-2.7h-2.805V2H10.42z"/>
    <path fill="#fff" d="M8.842 19.368H6.21V22h2.632z"/>
</svg>
