<svg xmlns="http://www.w3.org/2000/svg" width="24" height="24" fill="none" viewBox="0 0 24 24">
    <path fill="#fff" d="M6.317 5.061 12 2l5.683 3.061L15.6 6.194 12 4.261 8.406 6.194zm11.366 3.867L15.6 7.794 12 9.728 8.406 7.794 6.317 8.928v2.26l3.588 1.934v3.861L12 18.117l2.09-1.134v-3.86l3.593-1.934zm0 6.128v-2.267L15.6 13.922v2.261zm1.487.8-3.594 1.927v2.267l5.683-3.067v-6.122L19.17 11.99zm-2.089-8.862 2.083 1.134v2.26l2.095-1.127V6.994L19.17 5.861 17.081 7zM9.905 18.606v2.26L12 22l2.09-1.133V18.61L12 19.74l-2.09-1.134zM6.317 15.05 8.4 16.183v-2.26l-2.083-1.134v2.267zm3.588-8.056L12 8.128l2.09-1.134L12 5.861 9.91 7zM4.83 8.128l2.089-1.134-2.083-1.133L2.74 7v2.267l2.089 1.128zm0 3.861-2.09-1.128v6.122l5.684 3.067v-2.272L4.836 15.85v-3.867z"/>
</svg>
