<svg width="24" height="24" viewBox="0 0 24 24" fill="none" xmlns="http://www.w3.org/2000/svg">
<path d="M19.7174 13.2505V14.5773C19.7842 15.1123 19.3817 15.581 18.8449 15.6479C18.3074 15.7147 17.8381 15.3135 17.7706 14.7779V13.2505H16.4956C16.2937 14.0536 15.8912 14.7111 15.2869 15.313C13.5413 17.1204 10.5877 17.1204 8.77521 15.3805L8.70834 15.313C6.8959 13.4392 6.8959 10.4943 8.70834 8.68811C10.5207 6.88066 13.407 6.8138 15.2193 8.62123L15.2869 8.68811C15.8912 9.28993 16.2938 9.94747 16.4949 10.7506H21.9998C21.3286 5.26322 16.3606 1.4602 10.8564 2.0627C5.35157 2.66455 1.45794 7.68377 2.0623 13.1718C2.66603 18.659 7.70087 22.5408 13.2057 21.9384C17.838 21.4034 21.463 17.869 21.9998 13.2505H19.7174Z" fill="white"/>
<path d="M12.0006 13.8752C12.4978 13.8752 12.9747 13.6776 13.3263 13.326C13.6779 12.9744 13.8755 12.4974 13.8755 12.0002C13.8755 11.5029 13.6779 11.026 13.3263 10.6744C12.9747 10.3228 12.4978 10.1252 12.0006 10.1252C11.5033 10.1252 11.0263 10.3228 10.6747 10.6744C10.3231 11.026 10.1255 11.5029 10.1255 12.0002C10.1255 12.4974 10.3231 12.9744 10.6747 13.326C11.0263 13.6776 11.5033 13.8752 12.0006 13.8752Z" fill="white"/>
</svg>
