<svg xmlns="http://www.w3.org/2000/svg" width="24" height="24" fill="none" viewBox="0 0 24 24">
    <path fill="#fff" d="M19.717 13.25v1.327c.067.535-.335 1.004-.872 1.07-.538.068-1.007-.334-1.074-.87v-1.526h-1.275c-.202.803-.605 1.46-1.21 2.062-1.745 1.807-4.698 1.807-6.51.067l-.068-.067c-1.812-1.874-1.812-4.819 0-6.625s4.699-1.874 6.511-.067l.068.067c.604.602 1.007 1.26 1.208 2.063H22c-.671-5.488-5.64-9.29-11.144-8.688s-9.398 5.62-8.794 11.109c.604 5.487 5.639 9.369 11.144 8.766 4.632-.535 8.257-4.069 8.794-8.687z"/>
    <path fill="#fff" d="M12 13.875a1.875 1.875 0 1 0 0-3.75 1.875 1.875 0 0 0 0 3.75"/>
</svg>
