<svg width="24" height="24" viewBox="0 0 24 24" fill="none" xmlns="http://www.w3.org/2000/svg">
<path d="M6.37498 14.0938L5.47498 12.625L2 18.55L10.125 22L8.87497 20.125L4.10623 18.05L6.37498 14.0938ZM17.625 14.0938L18.5249 12.625L22 18.55L13.8749 22L15.125 20.125L19.8937 18.05L17.625 14.0938Z" fill="white"/>
<path d="M10.125 10.7501L12 7.62512L13.8749 10.7501L13.1812 12.2939L13.8749 13.8751L12 17L10.125 13.8751L10.8187 12.2939L10.125 10.7501ZM12 15.7501L13.1063 13.8751L12.7937 13.0251L12.625 13.2501V11.8876L13.025 10.7501L12 8.87511L10.9751 10.7501L11.3749 11.8876V13.2501L11.2062 13.0251L10.8937 13.8751L12 15.7501Z" fill="white"/>
<path d="M7.62524 9.2938L12.0002 2L16.3752 9.2938L15.5502 10.7499L12.0002 4.79999L8.45023 10.7499L7.62524 9.2938Z" fill="white"/>
<path d="M2 5.12499L11.9999 21.9999L22 5.12499L14.075 2L15.125 3.875L19.8812 5.61874L11.9999 19.0875L4.11873 5.625L8.87497 3.875L9.92503 2L2 5.12499Z" fill="white"/>
</svg>
