<svg xmlns="http://www.w3.org/2000/svg" width="24" height="24" fill="none" viewBox="0 0 24 24">
    <path fill="#fff" d="M9.777 9.023c-.298-.156-1.538-.449-2.124-.578 0 .178-.018.573-.098.769.707.111 1.698.422 2.107.564.04-.16.115-.533.115-.755m0 5.956c-.298.155-1.538.448-2.124.577 0-.177-.018-.573-.098-.769.707-.11 1.698-.422 2.107-.564.04.16.115.533.115.756m7.111-7.716-3.133-1.929c-.068.268-.215.51-.422.693.973.605 2.973 1.84 3.173 1.974.045-.29.276-.614.382-.738m0 9.476-3.133 1.928a1.4 1.4 0 0 0-.422-.693c.973-.604 2.973-1.84 3.173-1.973.045.289.276.613.382.737m-5.333-6.085c0-.178.067-.658.102-.876 3.302 1.725 5.16 3.676 5.676 4.436-.165.044-.534.2-.694.453-1.92-2.382-4.622-3.786-5.084-4.013"/>
    <path fill="#fff" d="M11.554 13.792c0 .178.067.658.102.875 3.303-1.724 5.16-3.675 5.676-4.435-.165-.045-.533-.2-.694-.454-1.92 2.383-4.622 3.787-5.084 4.014m.668-7.57a1.111 1.111 0 1 0 0-2.222 1.111 1.111 0 0 0 0 2.222m0 13.778a1.111 1.111 0 1 0 0-2.222 1.111 1.111 0 0 0 0 2.222M6 16.446a1.111 1.111 0 1 0 0-2.222 1.111 1.111 0 0 0 0 2.222m0-6.667a1.111 1.111 0 1 0 0-2.222 1.111 1.111 0 0 0 0 2.222m12 .001a1.111 1.111 0 1 0 0-2.223 1.111 1.111 0 0 0 0 2.222m0 6.667a1.111 1.111 0 1 0 0-2.222 1.111 1.111 0 0 0 0 2.222"/>
    <path fill="#fff" d="M9.778 11.993c0 2.733.657 5 .982 5.786.178-.115.59-.346.795-.346-.733-1.951-.889-4.427-.889-5.432 0-1.004.156-3.48.89-5.43-.205 0-.614-.232-.796-.347-.325.786-.978 3.04-.982 5.769"/>
</svg>
