<svg xmlns="http://www.w3.org/2000/svg" width="24" height="24" fill="none" viewBox="0 0 24 24">
    <path fill="#fff" fill-rule="evenodd" d="M21 12a9 9 0 0 1-11.19 8.732c2.697-3.75 2.614-6.216 2.582-7.153l-.005-.213c.513.503.619 1.148.603 1.413q.315.305.635.604c.048.042.085-.143.1-.239a.57.57 0 0 0 .117.397c.297.43.599 1.128.715 1.425l.185-.17v.249c.202.355.62 1.133.694 1.403.039.176.114.342.222.487l-.148.138c.042.275.117.815.138 1.154q.342-.152.662-.328a6 6 0 0 0 .958-1.324l.143.132c.09-.105.27-.476.27-1.111 0-.641-.276-1.255-.413-1.483h.143c.01-.878-.662-1.636-.996-1.91h.19c-.83-1.367-2.736-1.293-3.281-1.271l-.106.005c.376-.233 1.678-.402 2.281-.455l.292-.053h1.418l.255-.175.042.106h1.567l.116.069h.795c.248-.27.778-.863.984-1.181v-.024q.031.384.032.776m-.04-.856c-.582-.665-1.422-1.018-1.776-1.114v-.21c-1.202-.577-2.218-.546-2.573-.461v-.164c-1.212 0-1.996.492-2.24.741-.01-.037-.042-.127-.105-.17-.402.122-1.011.758-1.265 1.06.031-.112.09-.435.09-.81s-.149-.593-.223-.657l.006-.007c.044-.061.127-.175.127-.215-.122-.72-.7-1.589-.974-1.938h-.175c-.058-.604-1.255-1.44-1.848-1.779v.212c-.291-.175-1.101-.514-2.049-.514A4.54 4.54 0 0 0 5.126 6.19a9.001 9.001 0 0 1 15.834 4.953M5.12 6.197A8.96 8.96 0 0 0 3 12a9 9 0 0 0 4.623 7.866 11.95 11.95 0 0 0 4.027-6.426c0-.133.107-.275.165-.334-.276-.026-1.038.185-1.89 1.218l-.106.132c-.074-.085-.217-.301-.201-.54a1.7 1.7 0 0 0-.34.768c-.158.106-.772.561-.883.831a4 4 0 0 1-.244-.604 4 4 0 0 0-.063.673l-1.033.688a1.5 1.5 0 0 1-.042-.556c-.106.159-.148.498-.154.646-.349.138-1.106.493-1.36.815a1.88 1.88 0 0 1-.328-1.154c0-.582.074-1.535 1.297-2.917A4.4 4.4 0 0 1 8.543 11.8c0-.096.042-.255.064-.318l-.456.318-.916-.117-.519.37-.555-.068-.477.423-1.07.053-.185.117-.905-.074c.381-.948 1.694-2.838 3.918-2.838a5.2 5.2 0 0 1 4.452 2.457 6.3 6.3 0 0 0-.688-1.43l.143-.206h-.223a2.8 2.8 0 0 0-1.069-1.24V8.85l-.132.116A5.7 5.7 0 0 0 8.257 7.95v-.403l-.19.16a2.2 2.2 0 0 0-1.176-.424c0-.197-.07-.55-.103-.714l-.003-.012-.132.196a2.47 2.47 0 0 0-1.533-.556" clip-rule="evenodd"/>
</svg>
