<svg xmlns="http://www.w3.org/2000/svg" width="24" height="24" fill="none" viewBox="0 0 24 24">
    <path fill="#fff" fill-rule="evenodd" d="M12 21.412a9.412 9.412 0 1 0 0-18.824 9.412 9.412 0 0 0 0 18.824M12 22a10 10 0 1 0 0-20 10 10 0 0 0 0 20" clip-rule="evenodd"/>
    <path fill="#fff" d="M16.953 12.294c-.13 1.606-1.1 4.412-4.259 4.412-2.235 0-4.412-2.277-5.976-3.688-.2-.195-.6-.677-.6-1.018s.4-.824.6-1.018c1.564-1.412 3.747-3.688 5.976-3.688 3.118 0 4.106 2.8 4.253 4.412h4.465v.588zm-.994-.588a.16.16 0 0 0 .159-.189c-.2-1.347-1.077-3.635-3.53-3.635-1.006 0-2.17.9-2.74 1.294a.118.118 0 0 0-.019.177l2.1 2.353zm-5.577 0c.147 0 .218-.183.118-.294L9.076 9.765c-.64.54-1.605 1.223-2.076 1.94zm5.742.776c.017-.1-.106-.188-.2-.188-.189 0-.318.076-.453.212l-3.194 3.588q.16.025.311.023c2.489 0 3.353-2.294 3.536-3.635m-2.242.5c.206-.217.06-.688-.235-.688H7a22 22 0 0 0 4.412 3.547z"/>
</svg>
