<svg xmlns="http://www.w3.org/2000/svg" width="24" height="24" fill="none" viewBox="0 0 24 24">
    <path fill="#fff" d="M11.921 4 7.29 6.526v5.053l.77.421-.77.421v5.053L11.867 20l4.686-2.526v-2.948h-2.227l-2.405 1.28-2.105-1.12v.94l2.105 1.14 2.682-1.423h1.108v1.71l-3.79 2.105-3.79-2.105v-4.21l.73-.405 3.06 1.667 2.758-1.503-.774-.442-1.984 1.103L9.648 12l-.783-.438-.733-.404v-4.21l3.79-2.106 3.789 2.105V8h.842V6.526zm4.632 4.4h-.842v2.758l-.729.404-3.06-1.667-2.704 1.473.792.43 1.911-1.061 1.634.905 1.579.872-.008.004.585.324v1.263h.842v-1.684l-.77-.421.77-.421z"/>
    <path fill="#fff" d="M15.484 6.69c-.05-.004-.06.072-.055.106 0 .08.147 0 .164-.017.013-.017-.042-.084-.11-.089m.69-.025c-.055-.013-.11.055-.13.093 0 .105.084.042.13 0 .025-.026.06-.085 0-.093m-.539-.337c-.05-.008-.042-.063-.034-.084.03-.063.127 0 .127.038q0 .064-.093.046m.505 1.032a.106.106 0 0 1 .068-.127c.1.043.042.177.03.232-.013.05-.072-.008-.098-.105m.354.505c-.11.021-.223.152-.265.21l.265.03c.042-.088.11-.265 0-.24m-.808.038c-.06-.025-.11.105-.127.168h.257c-.017-.042-.071-.139-.126-.168zm.307-.038c-.042.025-.08-.055-.093-.097.026-.076.093-.05.131-.02.042.024.013.083-.038.117m.135-.206c-.034.017-.14-.076-.19-.127 0-.059.085-.037.123-.025.029.013.109.126.067.152m-.27.004c.021-.055-.054-.063-.092-.063l-.072.126c.042 0 .143-.013.169-.063zm-4.05 3.04c-.021-.004-.03-.06-.03-.084.06-.063.08 0 .093.02.008.018-.034.072-.063.064m-.425-.135c-.009-.05-.038-.067-.051-.071h.202c-.017.03-.05.092-.038.105.021.017-.008.093-.063.08-.055-.017-.042-.055-.05-.114m5.073-1.351c-.03 0-.113-.118-.155-.177.059.067.349 0 .357.017.013.02-.164.16-.202.16m.106-.46c-.026-.041-.148-.033-.203-.025a.3.3 0 0 0 .097.089c.042.017.135-.004.106-.063m-.687.119c-.042-.009-.08.03-.092.05.012.055.063.046.105.055.042.008.105-.025.1-.076-.003-.042-.062-.017-.113-.03m.32-.047a.113.113 0 0 0-.122-.1c0 .033-.017.121-.021.21-.008.113.072.151.118.151s.038-.155.021-.26z"/>
    <path fill="#fff" d="M16.608 9.339c.03-.068-.244-.21-.126-.181.151.033.138.256.126.18m-.345.122c-.043.02-.026-.089-.013-.148a.4.4 0 0 1 .151 0c.043.021-.084.127-.138.148m-.186.24c-.025-.047.013-.11.034-.135.084 0 .076.198.063.219-.012.017-.063-.025-.097-.084m-.252-.16-.021-.362a.5.5 0 0 1 .147-.042c.063.004.03.042.03.092 0 .042-.06.042-.089.038v.236a.3.3 0 0 0 .088-.021c.055-.025-.008-.076-.029-.135-.017-.059.025-.021.143 0 .122.021.05.16 0 .156-.046 0-.042.02-.055.071-.012.047-.155.101-.21.085-.059-.017 0-.05 0-.118zm-.13-.83c-.043-.012-.064-.076-.068-.105l.265-.03c.05.022.148.076.13.118-.016.051-.281.03-.328.017m-.047.796c-.05 0-.05-.067-.042-.105.05-.042.11.008.118.03.012.016-.013.075-.076.075m.076.173c-.017.025-.072-.055-.097-.101a.3.3 0 0 1 .097-.017c.03.008.025.084 0 .118m.619.34a.06.06 0 0 1-.021-.07c.126-.013.143.121.143.142s-.089-.042-.127-.071zm-.177.194c-.038.013-.072-.105-.085-.164a.1.1 0 0 1 .085 0c.042.021.05.152 0 .169zm-.312.068c-.042-.03.017-.114.05-.152.013 0 .043.009.06.042.016.034-.06.143-.11.11m-.194-.22c-.067 0-.063-.062-.05-.092.03-.012.093-.033.114-.017.03.017.02.11-.064.11m1.049.367c-.021-.034-.282-.038-.232-.025 0 .021.013.067.009.084 0 .025.244-.02.223-.059m-.143-.24c.012.076-.278.202-.101.177.219-.03.185-.232.1-.173z"/>
    <path fill="#fff" d="M16.258 10.483c-.03.038-.012.093 0 .118.047 0 .148-.008.186-.038.046-.034.029-.16 0-.19s-.144.068-.182.114zm-.631.105c.02-.02.075-.197.1-.282 0 .085.14.173.207.21v.072c-.11.013-.32.026-.303 0zm.56.96c-.043-.008-.102.017-.127.03 0 .03.101.063.127.055.025-.013.046-.072 0-.085m.176-.13c-.033-.063.181.03.186.034l-.03.092a.45.45 0 0 1-.155-.126m-.067-.14c-.025-.062.046-.1.088-.113v.19c0 .017-.054 0-.088-.076m-.295-.222c-.054-.047.021-.152.068-.198.046-.004.147 0 .16.042.017.055-.16.21-.228.156m-.82 1.478c-.022-.009-.01-.064 0-.093.07.017.21.059.21.093 0 .042-.185.004-.21 0m-.08-.156c-.051-.017.02-.126.058-.177.025.008.076.034.084.067.009.042-.084.127-.143.11m.357-.38c-.067 0-.076-.21-.071-.31.13-.072.18.147.202.218.025.068-.055.097-.135.093zm-.492-.247a.23.23 0 0 0 .084.197c.092-.042.03-.126.017-.185-.005-.042.151-.19.227-.257.055 0 .181-.004.236-.012s.02-.063 0-.093c-.11-.004-.329-.004-.341.034-.017.046-.202.198-.223.316m-.792.665c-.042 0-.004.071.017.11.042 0 .134-.01.126-.047-.008-.046-.097-.059-.143-.063m-.223.042c-.042-.042-.097.067-.122.126.193 0 .105.143.134.135a1 1 0 0 1 .16.021c0 .072.009.21.043.227.029.017.202-.143.286-.227-.042-.03-.135-.101-.194-.126-.076-.03-.193 0-.265-.03-.068-.025.008-.076-.042-.126m-.341-.009c.004-.067.042-.202.16-.18.118.02-.055.126-.16.18m-.29.232c-.043-.034-.173.034-.232.067l.03.047c.07.008.235.017.273 0 .05-.021-.013-.072-.068-.114zm-.123-.194c-.05-.02-.088.068-.105.114.063 0 .19-.009.194-.042.008-.042-.03-.042-.089-.072m.897-1.162a4 4 0 0 1-.324.14c.172.104.534.306.585.286.063-.026 0-.198 0-.236 0-.034-.219-.215-.261-.19m2.038 1.444c-.034-.016-.063.026-.076.047a3 3 0 0 0-.042.35c.013.08.143 0 .177-.018.033-.016-.034-.155-.06-.18q-.037-.046.026-.085c.042-.017.017-.093-.025-.114m-.337.371c-.042 0-.101-.139-.126-.21.126-.022.126.075.176.105.043.025.005.113-.046.105zm.03-.505c-.021-.072.059-.156.1-.186.08.026.043.211.03.236-.013.034-.03.16-.072.135s-.037-.093-.058-.185m.277-.236a1 1 0 0 0 .14-.164c.037.017.096.063.05.122-.055.067.084.244.097.32.012.071-.034.076-.097.05-.06-.025-.013-.193-.063-.244s-.076.05-.097.143c-.025.097-.03-.042-.05-.092-.026-.047-.03-.093.02-.135m-.442 1.263c-.042.025 0 .084.03.114l.105.012.034.114h.273l-.273-.152c0-.025 0-.084-.021-.113-.03-.034-.101-.009-.148.025m.354 1.95c0-.068.017-.064.025-.055a.1.1 0 0 1 .06.02c.012.022-.03.216-.085.199s-.004-.085 0-.169zm-1.878 2.517c-.084.005 0 .114.059.165.025 0 .072-.013.072-.064 0-.063-.03-.109-.131-.1m-.808.367c-.06.025-.005.097.03.126.033-.004.096-.038.092-.084-.009-.067-.042-.076-.122-.042m2.93-1.697c-.097-.084-.202.038-.244.11.038 0 .122.004.16.029.042.02-.038.08-.076.105-.017.03-.02.084.076.076.122-.009.21-.21.084-.32m-.311-.148.126-.172.139.172zm-2.628 2.236c-.097.034.009.148.076.198.025-.017.084-.059.097-.113.017-.068-.055-.127-.173-.085m2.569-3.78c0 .07.017.21.126.201.139-.012-.055-.223-.126-.202m-.143-.064c-.017-.017-.009-.055 0-.071.042-.072.1 0 .092.042-.008.046-.076.046-.092.03m.505-.324c-.06-.013-.026-.097 0-.139.025 0 .071.008.08.042.008.042 0 .11-.08.097m-.792.27c-.042 0-.042-.064-.03-.098.03-.071.097-.054.119 0 .02.051-.026.085-.085.093zm.177-.329c-.076 0-.05-.185-.03-.278h.072c.042 0 .05.278-.042.278m-1.39.105c-.05-.03-.1.076-.126.127 0 .075.085.029.127 0 .042-.026.063-.093 0-.127m.472.08c-.055-.03-.11.084-.135.14 0 .083.093.029.135 0s.067-.106 0-.14m-1.12.4c.004-.042-.03-.05-.05-.05a.3.3 0 0 1-.118.05c-.042 0 0 .05.063.068.063.016.097-.013.105-.068m-2.459.615c.013-.055-.025-.072-.042-.072-.021 0-.063.009-.08.05-.013.043.034.068.055.077.017.004.05 0 .067-.055m.687.345c-.089-.055-.106.063-.101.127h.126c.063 0 .084-.06-.025-.127m-.27.068c-.013-.06-.004-.169.11-.135.147.046-.068.244-.11.134m-.977-.24c0-.076.03-.21.118-.148.114.085-.042.228-.118.148m.228-.527c-.03 0-.03.055-.026.084 0 .03.017.101.055.101.042 0 .05-.063.05-.113s-.041-.076-.084-.072zm-.16.042c-.038 0-.043.05-.043.076.009.025.034.076.055.084.025 0 .068-.063.068-.084 0-.025-.03-.08-.08-.076m-.207-.164c-.038-.008-.034-.05-.03-.071s.022-.06.051-.06c.034 0 .05.034.047.068 0 .034-.017.067-.068.063m.367.067c.004-.042-.042-.071-.068-.084-.063.034-.055.127-.025.14.03.016.084-.013.093-.06zm-.763-.252c-.059.004-.084-.067-.088-.101.008-.038.038-.105.088-.097.055.008.072.067.076.097 0 .03-.012.088-.076.097zm.152-.03c-.038.009-.05-.042-.055-.063 0-.02.021-.067.06-.063.033.009.041.042.046.063 0 .021-.009.06-.047.063zm1.928 4.396c-.037 0-.054.042-.059.063 0 .021.013.072.06.072a.09.09 0 0 0 .084-.063c0-.026-.043-.072-.085-.072m-.4.038c.009-.055.038-.164.097-.147.08.017.047.155-.097.147m-.244.21c-.067.03-.092-.075-.097-.134h.127c.092 0 .05.1-.03.135m-.311-.614c-.026-.009-.03-.046-.03-.068 0-.008.009-.033.03-.046.03-.017.059.046.059.084 0 .043-.021.043-.06.03m-.703-.535c-.043.038.004.084.033.105.026-.02.072-.075.072-.105 0-.034-.046-.042-.106 0m-.746-.434c-.042 0-.126-.151-.164-.227a.17.17 0 0 1 .21.105c.017.043.009.13-.042.127zm-.345-.265v-.194c.042.017.13.064.168.11s-.096.076-.168.084m-.77-.345c.008.063.037.18.075.151.05-.042.038-.151-.076-.151m-.78-.467c-.029.105-.046.324.102.362.147.033-.009-.228-.102-.362m-.223-.628c-.03-.012.009-.076.03-.11.084-.037.113 0 .126.043.004.034-.126.08-.156.067m.026-.459c-.06-.004-.026.093 0 .143.03 0 .092-.012.126-.054.034-.05-.055-.076-.126-.085zm.231-.943c-.05-.021-.05.072-.042.126.025.009.08.026.11 0 .033-.038-.009-.097-.068-.126m.021-.707c-.063-.038-.135.13-.168.219-.021.059.11.03.143 0 .038-.03.101-.173.025-.22m2.653-1.407c-.017-.033-.093.009-.127.038.068 0 .106.16.152.164.046 0 .126-.059.126-.092 0-.038-.092-.021-.126-.03-.03-.008 0-.042-.025-.084zm.202-.42c-.017-.017-.126.003-.181.02-.042.043.122.093.181.093s.021-.092 0-.114m.261.265c-.05-.068-.135.025-.168.084a.1.1 0 0 0 .071.034c.042 0 .152-.038.093-.118zm-.021.433c-.059-.033-.025-.13 0-.177.059 0 .16.114.147.156-.017.042-.075.068-.147.021m-.299-.4c-.05-.02-.067.085-.067.135.025.008.092.021.139-.017.05-.05-.013-.084-.072-.118m-.409-.215c-.041-.008-.08.06-.092.097.11.034.03.169 0 .19s-.034.097.013.114c.042.02.16-.043.176-.076.021-.038-.071-.055-.054-.097.02-.042.05-.03.054-.13.009-.102-.042-.093-.096-.102zm-.328-1.296c-.008-.034.025-.068.046-.085.089.051.043.16 0 .173s-.033-.042-.046-.084zm.783-.303a.3.3 0 0 1-.113-.118.6.6 0 0 1 .18-.021c.068.004.14.134.11.155-.03.026-.114 0-.177-.02zm-.99 1.22c.064.026.19.085.17.144-.026.071-.199-.004-.17-.143m-2.172.679c-.017-.042-.063-.017-.084 0 .017.033.05.109.05.126s.034.193.068.227c.038.03.194.072.194.042s-.177-.21-.148-.231c.025-.025.068-.097.042-.097-.025 0-.1-.017-.122-.067m.198-.257c-.042.017-.071-.03-.084-.055.038-.042.118-.042.143 0 .021.042-.008.042-.059.059zm.29-.489c-.041-.012-.004-.063.017-.084a.2.2 0 0 1 .085.038c.033.017.042-.013.084.03.034.042.02.185 0 .21-.03.021-.084-.013-.084-.11.008-.096-.06-.067-.106-.084zm.632-.408c-.033-.042.03-.084.063-.101a.7.7 0 0 1 .135.063c.017.017.017.059-.034.084a.135.135 0 0 1-.164-.042zm.649.37c-.017-.063-.253-.252-.367-.337-.067.043.16.337.21.38.043.037 0 .164 0 .21-.008.046.013.101.051.088.034-.008.127-.27.106-.34m-1.466-.804c0-.042.026-.063.042-.071.055 0 .085.08.089.109 0 .03-.042.042-.067.042s-.055-.034-.064-.084zm.86.72c-.026-.017-.11.004-.148.021-.013.042-.034.127 0 .156.042.042.135 0 .168-.042.034-.042.017-.114-.016-.135zm-.38-.274c-.025-.092-.21-.18-.294-.21.054.13.176.4.21.408.042.009.105-.084.084-.202zm-.555-.976c-.038-.017-.017-.127 0-.173.096-.055.11 0 .143.05.038.055-.093.148-.143.127zm.24-1.184c-.03-.042.063-.117.113-.147.076.017.034.093 0 .135-.03.042-.076.067-.113.012m-.358.135c.05.148.16.421.193.312.047-.127 0-.367-.193-.312m-.021-.619c-.06-.017-.127.106-.152.169 0 .004.013.012.063 0 .063-.017.156-.148.084-.169zm.067-.113c.042-.017.413-.337.215.168.008-.076-.03-.21-.21-.168zm.232-.518c-.038.012-.11-.085-.144-.13.017-.06.093-.013.144.016.05.025.05.105 0 .114m-.45.227c-.026.004-.043.055-.043.084a.07.07 0 0 0 .076.034c.046-.004.21-.097.206-.139-.008-.042-.21.013-.24.021m.08-.434c-.026-.02-.022-.067-.014-.084.144.009.123.114.106.126-.021.017-.063-.012-.093-.042m-.178.135c0-.05.042-.097.063-.114.085-.016.072.097.072.114 0 .021-.038.114-.072.11-.042 0-.063-.043-.063-.11m.236-.358c0-.046-.084-.084-.126-.092.012.042.033.117.063.134.042.017.067.017.063-.042m.362-.74c-.03-.026-.025-.051-.02-.06.016-.012.058-.03.096 0 .042.034.013.047 0 .093-.017.05-.042 0-.076-.034m-.16.147c-.059-.017-.025-.064 0-.085.076-.067.105 0 .16.085.055.084-.084.02-.16 0m-.227.02c.008-.126-.148-.223-.223-.26-.06.037-.156.1-.047.092.135-.017.261.32.27.169m.151-.45c-.008-.021.03-.076.05-.101.043-.05.085.021.085.05 0 .034-.059.097-.084.097-.025.005-.034-.02-.05-.046m-.092-.025c-.03 0-.042-.042-.047-.063l.042-.042s.072.025.076.042c.004.016-.038.059-.071.063m.505-.215c-.055 0-.067-.059-.067-.084a.2.2 0 0 1 .067-.08c.034-.013.063.076.072.105.008.03-.005.063-.072.063zm-.421.766a.1.1 0 0 1-.042-.075l.1.025c.018-.021.106-.025.09.05-.013.072-.093.03-.144 0zm.56-1.3c-.025.02-.063-.034-.076-.064 0-.063.046-.067.076-.042s.034.08 0 .105m.58-.127c-.012-.008-.003-.072 0-.101.043 0 .11.076.102.101-.013.025-.084.008-.101 0m-.138-.088c-.055-.009-.025-.064 0-.093.03-.05.084 0 .105.055.021.05-.038.05-.105.042zm.834-.3c-.055.01-.042-.08-.03-.126a.11.11 0 0 1 .105 0c.051.034-.004.114-.075.127m-.986.577c-.05.026.009.11.043.152.033-.03.105-.097.109-.126.004-.03-.084-.06-.152-.026m4.876-1.044c-.03 0-.03.06-.025.089.101.038.042.1 0 .126.008.059.03.177.059.173.034 0 .126-.186.126-.215-.004-.034-.063-.034-.084-.084-.03-.047-.042-.08-.076-.085zm-.307.181c-.03 0-.068-.063-.084-.092.03-.038.126 0 .168.042.042.033-.046.055-.084.05m-.3-.151c-.054.025-.075-.034-.08-.068.014-.02.043-.067.08-.059.043.009.064.097 0 .127m1.45.69c0-.02-.118-.084-.177-.11-.043 0-.017.11 0 .127.016.017.168.013.176-.017m.63.333c-.041.042.014.24.043.333.038-.127.185-.22.257-.253-.038-.013-.11-.05-.114-.08s.24-.03.236-.046c0-.017-.139-.13-.21-.186.012.021.037.08.02.11-.02.042-.189.071-.235.126z"/>
    <path fill="#fff" d="M14.473 5.76c-.042-.017-.067 0-.076.013h-.017c-.03.034.085.114.144.151a2 2 0 0 0-.194.181c-.114.127.067.283.114.295.046.017.24-.24.21-.27-.025-.029-.067.09-.18.123-.115.03-.077-.101-.056-.148s.253-.105.236-.143a.6.6 0 0 0-.18-.202"/>
    <path fill="#fff" d="M14.814 5.684c-.06-.016-.156.042-.194.072l-.025.042c-.068.084.24 0 .286.084s.135.164.198.076-.194-.253-.266-.274m-.316 0a1.3 1.3 0 0 1 0-.379c.122.08.35.236.295.228-.064-.009-.261.18-.295.151m-.24-.18c-.038-.022.017-.17.046-.245l.118.042c.03.009-.118.223-.164.202m-.202-.03c-.05-.038-.042-.274-.03-.383l.21.13c-.037.101-.126.287-.18.253m-1.032-.62c-.025-.058-.198 0-.19.022a1 1 0 0 1 .072.122c.042.072.089.093.118.11.034.016.03-.194 0-.253m-.648.039c.012-.021-.143-.017-.22-.017.022.042.077.118.093.118.026 0 .114-.072.127-.101m.682-.114c-.009-.042.055-.118.088-.156.034.026.097.085.097.101 0 .021-.181.101-.19.055zm-1.01.004c-.03-.02-.043-.21-.047-.303.042-.034.118.143.156.156.033.017.21-.013.19.042-.026.063-.253.135-.295.105zm-.14-.699-.105.068c.093 0 .017.151 0 .193-.021.043.05.05.08.047.03 0 .139-.143.164-.169.025-.03.14.097.16.127.021.02.143.012.164-.017.013-.025-.303-.173-.463-.244zm2.906 2.118c-.038 0-.055.042-.06.072.026.092.106.042.11.017s-.004-.085-.05-.085zm-4.064-.939c-.059-.046-.084.122-.084.21.046-.067.16-.041.21-.02a.6.6 0 0 0-.126-.19m3.773 9.983c-.042-.042 0-.113.03-.147.105 0 .067.08.054.147-.012.072-.034.055-.084 0m-2.408 4.106c-.043-.034-.017-.068 0-.08.105-.038.113.025.096.063-.016.034-.042.063-.096.017m.176.059c-.046-.038-.02-.068 0-.085.101-.033.114.03.097.068-.017.034-.042.063-.097.017"/>
</svg>
