<svg xmlns="http://www.w3.org/2000/svg" width="24" height="24" fill="none" viewBox="0 0 24 24">
    <path fill="#fff" d="M13.16 2c3.98 0 6.737 2.431 7.687 3.737-.769 1.07-2.863 1.444-4.506.57a6.9 6.9 0 0 0-3.182-.838c-3.475 0-5.462 2.643-6.024 4.031H3.51C4.903 5 8.566 2 13.16 2m.025 20c3.98 0 6.737-2.431 7.687-3.737-.769-1.076-2.869-1.444-4.512-.57a6.9 6.9 0 0 1-3.175.838c-3.475 0-5.463-2.643-6.025-4.03H3.535C4.922 19 8.59 22 13.185 22"/>
    <path fill="#fff" d="M7.24 18.4a5.54 5.54 0 0 1-3.737-3.9h3.644a6.68 6.68 0 0 0 5.98 4.031c-.937.25-3.4.613-5.887-.131M7.216 5.6a5.54 5.54 0 0 0-3.732 3.9h3.644c1.5-3.294 4.625-4.075 6-4.031-.937-.25-3.419-.613-5.912.131m-1.588 8.275a1.875 1.875 0 1 0 0-3.75 1.875 1.875 0 0 0 0 3.75"/>
    <path fill="#fff" d="M5.003 13.875a1.875 1.875 0 1 0 0-3.75 1.875 1.875 0 0 0 0 3.75"/>
</svg>
