<svg xmlns="http://www.w3.org/2000/svg" width="24" height="24" fill="none" viewBox="0 0 24 24">
    <path fill="#fff" d="m9.582 12.638 3.26 3.274a.973.973 0 0 1 0 1.39L11.1 19.007a1.004 1.004 0 0 1-1.415 0l-6.392-6.324a.974.974 0 0 1 0-1.392l6.406-6.299a1.007 1.007 0 0 1 1.41 0l1.733 1.703a.973.973 0 0 1 0 1.396l-3.26 3.288a.88.88 0 0 0-.257.623c0 .228.087.457.257.637m6.791-2.505a.97.97 0 0 0 0-1.391l-.661-.652a1.004 1.004 0 0 0-1.416 0l-3.22 3.21a.97.97 0 0 0 0 1.396l3.22 3.201a1 1 0 0 0 1.41 0l.667-.652a.97.97 0 0 0 0-1.391l-1.518-1.44a.6.6 0 0 1-.18-.413.6.6 0 0 1 .18-.428zm1.372.083L16.43 11.32a.97.97 0 0 0-.216 1.073q.076.18.216.318l1.314 1.085c.194.194.569.292.822.292.258 0 .632-.098.827-.292l1.313-1.085a.98.98 0 0 0 .217-1.073 1 1 0 0 0-.217-.318l-1.313-1.104a1.27 1.27 0 0 0-.827-.302c-.253 0-.633.102-.827.302z"/>
</svg>
