<svg xmlns="http://www.w3.org/2000/svg" width="24" height="24" fill="none" viewBox="0 0 24 24">
    <path fill="#fff" d="m9.895 10.59 1.579-3.327 5.79 7.179v.473a15 15 0 0 1-3.69.748zm-2.632 4.062c.169.1.369.19.58.274l1.983-3.647-2.563-3.49z"/>
    <path fill="#fff" fill-rule="evenodd" d="M12 22a9.999 9.999 0 0 0 3.827-19.239A10 10 0 1 0 12 22m0-.526a9.474 9.474 0 1 0 0-18.948 9.474 9.474 0 0 0 0 18.948M7.263 15.51c4.384 1.61 8.495.668 10 0v.547c-3.879 1.552-8.284.647-10 0zm4.21-8.248v5.527l.1.136 1.911 2.748v.01c1.353-.052 3.084-.537 3.78-.773v-.469zm3.685 3.8 2.105 2.516v-5.79zm-5.332.216-1.979 3.647c1.521.6 4.021.81 5.206.758l-3.227-4.4z" clip-rule="evenodd"/>
</svg>
