<svg xmlns="http://www.w3.org/2000/svg" width="24" height="24" fill="none" viewBox="0 0 24 24">
    <path fill="#fff" d="m2.321 8.982.564 5.927 3.054 5.237L7.836 17.8l-2.442-7.63zm19.334 0-.558 5.927-3.054 5.237-1.922-2.364 2.467-7.612zm-5.618 8.897H8.043l-1.885 2.357L12.103 22l5.758-1.764zM5.376 9.933 2.303 8.824 6.4 4.34 11.915 2v3.333l-6.545 4.6zm13.248 0 3.073-1.109L17.6 4.34 12.085 2v3.333l6.545 4.6z"/>
    <path fill="#fff" fill-rule="evenodd" d="m18.46 10.267-6.448-4.63-6.448 4.63 2.46 7.49H16l2.467-7.49zM7.092 13.909l4.921 3.612 4.921-3.612-1.878-5.848H8.97z" clip-rule="evenodd"/>
</svg>
