<svg xmlns="http://www.w3.org/2000/svg" width="24" height="24" fill="none" viewBox="0 0 24 24">
    <path fill="#fff" fill-rule="evenodd" d="M12.022 4 4.889 8.022v7.951L11.999 20l7.112-4.027v-7.95zM5.546 8.156l5.822-3.302-3.88 6.635zm6.56-3.551L18.004 8h-7.889zm6.56 3.84v6.56l-4-6.56zm-.258 7.342-5.83 3.289 3.901-6.623zm-6.569 3.578L6.01 16h7.844zm-6.506-3.81V8.979l3.964 6.578zM9.51 8.952l-1.712 2.907 1.712.969zm3.875-.506H9.964v1.893zm.743.002v-.002h.004zm1.72 2.971-1.72-2.971-1.703 1.029zm-1.4 3.587 1.706-2.907-1.707-.969zm-3.885.55h3.422l-.009-1.924zm-2.462-3.008 1.72 3.009 1.689-1.05zm3.875-2.822-2 1.142v2.24l2 1.142 2.005-1.142v-2.24z" clip-rule="evenodd"/>
</svg>
