<svg width="24" height="24" viewBox="0 0 24 24" fill="none" xmlns="http://www.w3.org/2000/svg">
<path d="M18.3493 7.75115L18.3292 7.75615L8.70594 17.5744C8.57758 17.7076 8.42382 17.8138 8.25375 17.8865C8.08366 17.9594 7.90073 17.9974 7.71573 17.9983C7.53073 17.9992 7.34741 17.9631 7.17661 17.892C7.00581 17.8209 6.851 17.7164 6.7213 17.5844L2.48704 13.3001C1.45222 12.2604 2.1771 10.5006 3.62184 10.5006H6.05642C6.48133 10.5006 6.89126 10.6656 7.2012 10.9656L9.4508 13.1302L8.30101 14.3799L6.05141 12.2503H3.76682L7.71112 16.1696L17.1495 6.51137C17.3052 6.35048 17.4916 6.22246 17.6977 6.13488C17.9038 6.04729 18.1253 6.00193 18.3493 6.00146H20.1789C21.8036 6.00146 22.6135 8.02111 21.4537 9.1959L13.1752 17.5594C13.0369 17.6993 12.8718 17.81 12.6898 17.8849C12.508 17.9599 12.3128 17.9976 12.1161 17.9957C11.9194 17.9939 11.7249 17.9525 11.5445 17.8741C11.364 17.7957 11.2012 17.6819 11.0655 17.5394L10.5006 16.9545L11.7004 15.7497L12.1303 16.1996L20.2789 8.0011C20.3689 7.91112 20.3039 7.75115 20.1789 7.75115H18.3443H18.3493Z" fill="white"/>
</svg>
