<svg xmlns="http://www.w3.org/2000/svg" width="24" height="24" fill="none" viewBox="0 0 24 24">
    <path fill="#fff" d="m7.435 22 .573-1.557-.929.088-.41 1.042c-.089.203-.176.416-.437.416L4.1 22l.444-1.25H2.187c.01-.154 4.52-11.535 4.695-11.874h3.838c.35.033.547.303.438.653l-.536 1.378-2.318 6.2c3.214 0 6.254-1.885 7.633-4.8C16.977 10.34 17.262 7 14.198 7H2.158l1.585-2.644a.84.84 0 0 1 .766-.46h6.408L11.64 2h2.1a.23.23 0 0 1 .197.274l-.054.175-.472 1.25-.066.187h.875l.066-.142.614-1.59C14.954 2 14.954 2 15.097 2h1.858c.252 0 .35.142.252.394l-.504 1.36-.077.186.164.034c.853.109 1.695.295 2.482.656.602.273 1.149.623 1.597 1.126.613.678.919 1.476.962 2.384.056.875-.109 1.728-.404 2.548a14.3 14.3 0 0 1-3.095 5.195c-2.041 2.11-4.748 3.362-7.568 4.057-.131.033-.197.088-.24.219l-.552 1.48c-.11.274-.219.36-.492.36z"/>
</svg>
