<svg xmlns="http://www.w3.org/2000/svg" width="24" height="24" fill="none" viewBox="0 0 24 24">
    <path fill="#fff" d="M6.465 7.219c-.962 0-1.778.866-1.778 1.856v9.394H3V9.075c0-1.958 1.552-3.544 3.465-3.544S9.75 7.117 9.75 9.075v6.722c0 .506.422.984 1.08.984.337 0 .652-.264.804-.58l4.349-9.162a2.64 2.64 0 0 1 2.373-1.508c1.463 0 2.644 1.21 2.644 2.7V18.47h-1.688V8.23c0-.523-.45-1.012-.956-1.012-.354 0-.675.27-.832.596l-4.348 9.169a2.61 2.61 0 0 1-2.346 1.485c-1.446 0-2.768-1.193-2.768-2.672V9.075c0-.99-.63-1.856-1.597-1.856"/>
</svg>
