<svg xmlns="http://www.w3.org/2000/svg" width="24" height="24" fill="none" viewBox="0 0 24 24">
    <path fill="#fff" fill-rule="evenodd" d="M12 19.53a7.53 7.53 0 1 0 0-15.06 7.53 7.53 0 0 0 0 15.06m0 .47a8 8 0 1 0 0-16 8 8 0 0 0 0 16" clip-rule="evenodd"/>
    <path fill="#fff" fill-rule="evenodd" d="M12 19.529A7.53 7.53 0 1 0 12 4.47a7.53 7.53 0 0 0 0 15.059M9.497 7.294a.325.325 0 0 0-.32.33c0 .178.14.329.32.329h.197l.278.753h4.085l.263-.753h.179a.3.3 0 0 0 .23-.095.33.33 0 0 0 .095-.235.34.34 0 0 0-.094-.235.32.32 0 0 0-.236-.094zm0 1.882a.324.324 0 0 0-.32.33c0 .178.14.329.32.329h.197l.278.753h4.085l.263-.753h.179a.3.3 0 0 0 .221-.099.33.33 0 0 0 .094-.235.34.34 0 0 0-.094-.23.32.32 0 0 0-.221-.095H9.492zm0 1.882a.324.324 0 0 0-.32.33c0 .179.14.33.32.33h.197l.424.752h3.765l.437-.753h.179a.3.3 0 0 0 .23-.094.33.33 0 0 0 .095-.235.32.32 0 0 0-.33-.33zm4.386 1.648h-3.765v.705h3.765zm-4.386 4.282a.326.326 0 0 0-.32.33c0 .183.14.329.315.329h5.007a.3.3 0 0 0 .23-.095.33.33 0 0 0 .095-.235.34.34 0 0 0-.094-.235.32.32 0 0 0-.236-.094h-.15c-.198-.203-.461-.847-.461-2.174v-.932H12.47v3.294h-.941v-3.294h-1.412v.932c0 1.327-.259 1.971-.457 2.178h-.17z" clip-rule="evenodd"/>
</svg>
