<svg xmlns="http://www.w3.org/2000/svg" width="24" height="24" fill="none" viewBox="0 0 24 24">
    <path fill="#fff" d="m19.966 9.301-3.66 2.692a4.1 4.1 0 0 0-.867-2.52c-1.431-1.853-4.131-2.223-6.03-.827L3 13.36l1.034 1.338 3.66-2.691c0 .913.306 1.8.867 2.52 1.431 1.853 4.131 2.223 6.03.827L21 10.64zm-6.35 4.79a2.74 2.74 0 0 1-2.979.165 2.64 2.64 0 0 1-1.056-1.119 2.56 2.56 0 0 1-.24-1.501 2.6 2.6 0 0 1 .656-1.38c.356-.388.82-.663 1.33-.792a2.75 2.75 0 0 1 1.558.064c.499.168.937.48 1.26.896a2.57 2.57 0 0 1 .514 1.94 2.6 2.6 0 0 1-1.043 1.727"/>
</svg>
