<svg xmlns="http://www.w3.org/2000/svg" width="24" height="24" fill="none" viewBox="0 0 24 24">
    <path fill="#fff" d="M10.292 7.003h-2.29l3.515 5.118-3.514 5.377h2.184l2.45-3.748 2.573 3.748h2.29zm6.706 0h-2.09L13.5 9.322 14.564 11z"/>
    <path fill="#fff" fill-rule="evenodd" d="M10.021 3.774c.8-.24 1.65-.315 2.524-.315 2.24 0 4.283.794 5.833 2.194a.2.2 0 0 0 .265-.3 9.07 9.07 0 0 0-8.737-1.96.2.2 0 0 0 .115.38m9.136 2.604c.12 0 .22-.1.22-.225s-.1-.225-.22-.225c-.124 0-.224.1-.224.225s.1.225.224.225m0 .224c.245 0 .45-.2.45-.45s-.205-.45-.45-.45c-.25 0-.45.2-.45.45s.2.45.45.45M4.838 7.717c.1.05.135.17.08.265a8.6 8.6 0 0 0-.97 4.088c0 1.96.6 3.769 1.7 5.223a.2.2 0 0 1-.315.235 9.02 9.02 0 0 1-1.83-5.458c0-1.55.386-2.999 1.07-4.273a.2.2 0 0 1 .265-.08m15.564 8.357c.09.05.12.174.07.27a8.88 8.88 0 0 1-5.098 4.198.2.2 0 0 1-.146-.019.2.2 0 0 1-.089-.116.2.2 0 0 1 .125-.245 8.5 8.5 0 0 0 4.873-4.013.19.19 0 0 1 .265-.075M8.392 4.394a.15.15 0 1 0-.14-.26q-.361.195-.7.42a.15.15 0 1 0 .16.25c.22-.15.45-.286.68-.41m-1.32.869a.15.15 0 1 0-.184-.23q-.316.254-.61.545a.15.15 0 0 0 .205.21c.19-.185.39-.36.59-.525m-1.134 1.1a.15.15 0 0 0-.225-.19q-.346.402-.645.844a.15.15 0 1 0 .25.165q.286-.428.62-.82m.8 12.14a.15.15 0 0 0-.197.022.15.15 0 0 0-.003.198q.386.343.81.64a.14.14 0 0 0 .204-.036.15.15 0 0 0-.035-.2 9 9 0 0 1-.78-.63zm1.569 1.114a.15.15 0 0 0-.238.108.15.15 0 0 0 .093.152c.285.155.575.3.87.42a.15.15 0 0 0 .166-.089.15.15 0 0 0-.051-.181 8 8 0 0 1-.84-.41m1.72.725a.15.15 0 0 0-.168.105.15.15 0 0 0 .082.18 10 10 0 0 0 1 .234.15.15 0 0 0-.01-.3c-.3-.054-.605-.13-.905-.22m1.829.34a.15.15 0 0 0-.177.067.15.15 0 0 0 .089.22.2.2 0 0 0 .067.003c.16.015.32.02.48.025a.15.15 0 0 0 .166-.079.15.15 0 0 0-.156-.216c-.155 0-.315-.01-.47-.02" clip-rule="evenodd"/>
</svg>
