<svg xmlns="http://www.w3.org/2000/svg" width="24" height="24" fill="none" viewBox="0 0 24 24">
    <path fill="#fff" fill-rule="evenodd" d="M12 4.059a7.941 7.941 0 1 0 0 15.882A7.941 7.941 0 0 0 12 4.06M12 3a9 9 0 1 0 0 18 9 9 0 0 0 0-18M7.908 17.294a1.35 1.35 0 0 1-1.165-.736 1.24 1.24 0 0 1-.01-1.043l1.683-3.44v-.006l1.376-2.817c.09-.18.09-.19.09-.354V6.176h-.53a.54.54 0 0 1-.528-.529c0-.265.206-.53.513-.53h1.604v1.589H12v.53h-1.059v.529H12v.53h-1.059v.91c0 .09-.016.106-.048.174l-.026.064-1.112 2.25-1.964 4.013a.3.3 0 0 0-.026.143.424.424 0 0 0 .407.386h7.672c.296 0 .38-.233.391-.413a.3.3 0 0 0-.026-.158L13.1 9.369c-.048-.106-.048-.106-.042-.249V5.118h1.588c.27 0 .53.264.53.529 0 .254-.25.53-.53.53h-.53v2.79c0 .11.027.158.08.264l.053.106q1.485 3.008 2.965 6.02c.185.375.248.915-.085 1.36a1.27 1.27 0 0 1-1.043.556c-.254 0-5.114.021-7.242.021zm3.769-2.208a.304.304 0 1 1 .609 0 .304.304 0 0 1-.609 0m.9-.063a.1.1 0 0 1-.026-.065.1.1 0 0 1 .029-.065.09.09 0 0 1 .13.003.09.09 0 0 1-.004.123.09.09 0 0 1-.124.004zm-1.323 0a.1.1 0 0 1-.026-.065.1.1 0 0 1 .028-.065.1.1 0 0 1 .066-.025.1.1 0 0 1 .064.028.09.09 0 0 1-.127.127zm1.725-.238a.25.25 0 0 1 .032-.397.31.31 0 0 1 .339-.01c.196.115.154.386-.042.465a.3.3 0 0 1-.233 0 .3.3 0 0 1-.096-.058m-2.403-.01c-.117-.117-.08-.292.053-.377a.3.3 0 0 1 .328 0c.132.095.159.265.042.387a.3.3 0 0 1-.206.084.3.3 0 0 1-.217-.095m1.323-.36a.09.09 0 1 1 .18-.001.09.09 0 0 1-.18 0m.9-.048a.1.1 0 0 1-.042-.066.09.09 0 0 1 .097-.1.1.1 0 0 1 .067.038.09.09 0 0 1-.127.127zm-1.747 0a.09.09 0 0 1 .043-.149.09.09 0 0 1 .115.059.1.1 0 0 1 .001.047.09.09 0 0 1-.117.071.1.1 0 0 1-.042-.028m.847-.207a.09.09 0 1 1 .18-.003.09.09 0 0 1-.18.003m.715.027a.09.09 0 0 1 .026-.151.09.09 0 0 1 .124.086.09.09 0 0 1-.087.087.1.1 0 0 1-.063-.022m-1.376 0a.09.09 0 1 1 .12-.135.09.09 0 0 1-.12.135m2.282-.032a.09.09 0 1 1 .125-.13.09.09 0 0 1-.125.13m-3.22 0a.1.1 0 0 1-.028-.065.09.09 0 0 1 .055-.085.09.09 0 0 1 .1.017.092.092 0 0 1-.126.133m2.134-.148a.09.09 0 0 1-.024-.1.1.1 0 0 1 .05-.052.1.1 0 0 1 .072.003.09.09 0 0 1 .025.145.09.09 0 0 1-.123.004m-1.016 0a.09.09 0 0 1 .032-.15.09.09 0 0 1 .1.027.09.09 0 0 1-.03.14.09.09 0 0 1-.102-.017m.032-.572a.542.542 0 1 1 1.084 0 .542.542 0 0 1-1.085 0m1.958-.006a.305.305 0 1 1 .61 0 .305.305 0 0 1-.61 0m-3.44 0a.302.302 0 1 1 .513.216.304.304 0 0 1-.52-.216zm3.16 0a.09.09 0 0 1 .067-.083.09.09 0 0 1 .102.043.093.093 0 0 1-.034.125.09.09 0 0 1-.135-.08zm-.255 0a.09.09 0 0 1 .154-.063.09.09 0 1 1-.153.063m-.254 0a.09.09 0 1 1 .18 0 .09.09 0 0 1-.18 0m-1.44 0a.1.1 0 0 1 .034-.066.09.09 0 0 1 .141.104.09.09 0 0 1-.154.027.1.1 0 0 1-.02-.06zm-.254 0a.09.09 0 1 1 .18 0 .09.09 0 0 1-.18 0m-.254 0a.09.09 0 1 1 .18 0 .09.09 0 0 1-.18 0m1.763-.439a.09.09 0 1 1 .127-.127.09.09 0 0 1-.127.127m-1.016 0a.09.09 0 0 1-.004-.131.09.09 0 0 1 .101-.018.09.09 0 0 1 .053.084q-.002.036-.027.061a.09.09 0 0 1-.123.004m2.102-.159a.09.09 0 1 1 .129-.125.09.09 0 0 1-.13.125m-3.198 0a.09.09 0 0 1 .063-.148.09.09 0 1 1-.063.148m2.292-.021a.09.09 0 0 1 .037-.154.09.09 0 0 1 .086.023.09.09 0 0 1 .025.085.09.09 0 0 1-.061.065.09.09 0 0 1-.087-.019m-1.376 0a.09.09 0 0 1-.004-.13.09.09 0 0 1 .087-.024.09.09 0 0 1 .065.108.09.09 0 0 1-.061.065.09.09 0 0 1-.087-.019m.661-.106q0-.027.017-.052a.09.09 0 0 1 .142-.006.09.09 0 0 1-.035.141.09.09 0 0 1-.124-.078zm.9-.074a.09.09 0 0 1 .096-.148.09.09 0 0 1 .054.07.09.09 0 0 1-.033.083.09.09 0 0 1-.122-.005zm-1.747 0a.09.09 0 0 1 .043-.154.09.09 0 1 1-.037.154zm.847-.18a.09.09 0 1 1 .18 0 .09.09 0 0 1-.18 0m-1.328-.005a.302.302 0 1 1 .423-.016v.005a.307.307 0 0 1-.424.01m2.419-.01a.297.297 0 1 1 .328.068.31.31 0 0 1-.328-.069m-1.09-.24a.09.09 0 1 1 .18-.002.09.09 0 0 1-.18.003m-.223-.502a.307.307 0 1 1 .608-.08.307.307 0 0 1-.608.08m.9.201a.09.09 0 0 1 .003-.125.1.1 0 0 1 .04-.023.09.09 0 0 1 .089.019.09.09 0 0 1 .027.087.09.09 0 0 1-.117.071.1.1 0 0 1-.042-.029m-1.323-.005a.09.09 0 0 1-.026-.09.09.09 0 0 1 .068-.064.09.09 0 0 1 .107.046.09.09 0 0 1-.028.113.09.09 0 0 1-.116-.005zM12 14.753a.093.093 0 1 0 0-.186.093.093 0 0 0 0 .186" clip-rule="evenodd"/>
</svg>
