<svg xmlns="http://www.w3.org/2000/svg" width="24" height="24" fill="none" viewBox="0 0 24 24">
    <path fill="#fff" fill-rule="evenodd" d="M12 21a8.998 8.998 0 0 0 8.315-12.444A9 9 0 1 0 12 21m0-1a8 8 0 1 0 0-16 8 8 0 0 0 0 16" clip-rule="evenodd"/>
    <path fill="#fff" d="M11.5 6.74c0-.41.33-.74.735-.74H13v11.016c0 .545-.44.985-.985.985H11.5z"/>
    <path fill="#fff" d="M14.501 11.22h-.17c-2.38 0-4.594 0-4.594-1.55 0-1.72 3.65-1.414 5.13-.7.28.136.674.11.87-.134l.4-.5a.23.23 0 0 0-.066-.35A8.55 8.55 0 0 0 12.152 7c-2.42 0-4.47 1.125-4.47 2.675 0 1.185 1.25 1.84 1.96 2.05h-.01c-.725.185-2.36 1.08-2.36 2.39 0 1.64 2.175 2.885 4.736 2.885 1.82 0 3.584-.69 4.34-1.11a.25.25 0 0 0 .07-.375l-.415-.525c-.21-.26-.63-.285-.93-.14-1.56.75-5.49 1.095-5.49-.735 0-1.62 2.164-1.615 4.634-1.615h.285z"/>
</svg>
