<svg width="24" height="24" viewBox="0 0 24 24" fill="none" xmlns="http://www.w3.org/2000/svg">
<path fill-rule="evenodd" clip-rule="evenodd" d="M11.9999 19.4999C13.8792 19.498 15.6891 18.7906 17.0716 17.5179C18.4542 16.2452 19.3085 14.4997 19.4657 12.6272C19.6229 10.7546 19.0714 8.89129 17.9203 7.40592C16.7693 5.92057 15.1025 4.92143 13.25 4.60625V9.13747C13.908 9.42461 14.447 9.92963 14.7765 10.5675C15.1059 11.2054 15.2056 11.9373 15.0591 12.6401C14.9124 13.3429 14.5281 13.9737 13.971 14.4265C13.4139 14.8793 12.7179 15.1265 11.9999 15.1265C11.282 15.1265 10.586 14.8793 10.0289 14.4265C9.47179 13.9737 9.08752 13.3429 8.94089 12.6401C8.79421 11.9373 8.89399 11.2054 9.22344 10.5675C9.55287 9.92963 10.092 9.42461 10.75 9.13747V4.60625C8.89743 4.92143 7.23069 5.92057 6.07963 7.40592C4.92856 8.89129 4.37703 10.7546 4.5342 12.6272C4.69136 14.4997 5.54575 16.2452 6.9283 17.5179C8.31084 18.7906 10.1207 19.498 11.9999 19.4999ZM11.9999 21.9999C14.6521 21.9999 17.1957 20.9464 19.0709 19.071C20.9464 17.1956 22 14.6521 22 12C22 9.34776 20.9464 6.80429 19.0709 4.92892C17.1957 3.05357 14.6521 2 11.9999 2C9.34783 2 6.80427 3.05357 4.92892 4.92892C3.05355 6.80429 2 9.34776 2 12C2 14.6521 3.05355 17.1956 4.92892 19.071C6.80427 20.9464 9.34783 21.9999 11.9999 21.9999Z" fill="white"/>
</svg>
