<svg xmlns="http://www.w3.org/2000/svg" width="24" height="24" fill="none" viewBox="0 0 24 24">
    <path fill="#fff" d="M2.5 9.622a1.994 1.994 0 0 1 .913-2.632l9.888-4.8a1.91 1.91 0 0 1 2.575.938 1.993 1.993 0 0 1-.912 2.625l-9.888 4.806A1.914 1.914 0 0 1 2.5 9.622m.632 6.8a2.144 2.144 0 0 1 .95-2.794l6.625-3.3c1-.5 2.188-.056 2.663.994a2.143 2.143 0 0 1-.95 2.794l-6.625 3.3c-1 .5-2.188.056-2.663-.994m4.994 4.45a1.994 1.994 0 0 1 .912-2.631l9.889-4.8a1.913 1.913 0 0 1 2.575.937 1.994 1.994 0 0 1-.913 2.625l-9.888 4.807a1.91 1.91 0 0 1-2.133-.321 1.9 1.9 0 0 1-.442-.617"/>
</svg>
