<svg xmlns="http://www.w3.org/2000/svg" width="24" height="24" fill="none" viewBox="0 0 24 24">
    <path fill="#fff" d="M5.065 7.64h11.78a1.16 1.16 0 0 0 .848-.365l1.887-1.958.198-.203c.755-.778.22-2.114-.843-2.114H5.065c-.32 0-.621.128-.848.36-.22.232-.348.552-.348.877V6.41c0 .326.128.64.348.872.227.232.529.366.848.366zm13.87 2.324H5.065a1.22 1.22 0 0 0-.848.349c-.22.218-.346.514-.348.825v8.689a1.16 1.16 0 0 0 .348.83c.227.221.529.343.848.343h7.284c.32 0 .621-.122.848-.348l2.09-2.057c.756-.737.227-1.66-.841-1.66h-5.93v-2.916h8.323c.319 0 .621-.128.848-.35l1.893-1.503.198-.192c.755-.744.22-2.01-.843-2.01"/>
</svg>
