<svg width="24" height="24" viewBox="0 0 24 24" fill="none" xmlns="http://www.w3.org/2000/svg">
<path d="M22 5.52954H8.17058C7.41765 5.54719 5.75883 6.22367 5.12941 8.82365C5.12941 8.96483 4.95294 9.78836 4.71764 10.8237H2L4.1353 13.353L3.80589 14.7413C3.44117 15.9825 3.42354 18.4707 6.27058 18.4707H18.0764C18.6411 18.4707 19.1411 18.106 19.2999 17.5766L19.747 16.1177H10.4823C9.7647 16.1177 9.26469 15.4354 9.26469 14.7413C9.26469 14.0472 9.7647 13.1766 10.4823 13.1766H19.1352C19.6646 13.1766 20.1294 13.1766 20.2882 12.6825L20.9058 10.8237H11.847C11.4481 10.8252 11.0648 10.6691 10.7805 10.3893C10.4961 10.1093 10.334 9.72838 10.3294 9.32952C10.3324 9.13438 10.3743 8.94179 10.4525 8.76296C10.5307 8.58414 10.6437 8.42268 10.7849 8.28799C10.9263 8.1533 11.0929 8.04808 11.2752 7.97847C11.4576 7.90884 11.652 7.87621 11.847 7.88248H20.3529C20.6279 7.87937 20.8947 7.78874 21.1147 7.62375C21.3347 7.45874 21.4964 7.22796 21.5764 6.96484L22 5.52954Z" fill="white"/>
</svg>
