<svg xmlns="http://www.w3.org/2000/svg" width="24" height="24" fill="none" viewBox="0 0 24 24">
    <path fill="#fff" d="M12.424 14.572v6.04c0 .32-.202.474-.45.339l-3.326-1.783a1.03 1.03 0 0 1-.453-.83v-5.903q.075.06.159.106zm-3.851-2.796 6.859-3.517a.81.81 0 0 0 .377-.665V3.319c0-.265-.17-.387-.377-.281l-6.32 3.241c-.652.35-.954.515-.918 1.254v3.962c0 .252.173.387.38.28"/>
    <path fill="#fff" d="m8.573 6.883 6.859 3.518c.23.145.37.396.377.667v4.272c0 .265-.17.39-.377.284l-6.859-3.517a.81.81 0 0 1-.379-.668V7.167c0-.262.173-.39.38-.284"/>
    <path fill="#fff" d="m8.573 11.777 4.77-2.446-4.77-2.446a.24.24 0 0 0-.265 0 .95.95 0 0 0-.114.414v4.142q.004.138.056.266c.063.107.2.143.308.08z"/>
</svg>
