<svg xmlns="http://www.w3.org/2000/svg" width="24" height="24" fill="none" viewBox="0 0 24 24">
    <path fill="#fff" d="M6.351 15.937c3.307.838 4.021 2.44 3.96 3.138l-3.96 1.923h-.787a2.55 2.55 0 0 1-2.559-2.53c0-1.401 1.147-2.531 2.559-2.531zm3.116.185-6.406-3.16c-.45-2.666 1.67-3.25 3.2-3.206.4.006.788.14 1.142.32a670 670 0 0 0 6.062 3.049c1.89.928 2.024 2.384 1.856 2.997l-4.207 2.064a3.7 3.7 0 0 0-1.647-2.064"/>
    <path fill="#fff" d="M14.73 12.478 3.004 6.658c0-2.925 2.16-3.656 3.324-3.656.933 0 1.625.23 1.856.349 2.682 1.304 8.435 4.105 9.97 4.87C20.072 9.177 21 9.779 21 11.37c0 1.462-.619 2.21-1.198 2.508-.894.456-2.379 1.192-3.12 1.496a3.68 3.68 0 0 0-1.952-2.896"/>
</svg>
