<svg xmlns="http://www.w3.org/2000/svg" width="24" height="24" fill="none" viewBox="0 0 24 24">
    <path fill="#fff" d="M3.313 21v-.844c.292-.087.683-.062.994-.155l.204-.075c.31-.124.596-.335.807-.596a3.6 3.6 0 0 0 .385-.608c.155-.292.292-.596.416-.9.248-.62.497-1.241.732-1.868L9.365 9.51c.807-2.085 1.552-4.159 2.371-6.238.28-.08.528-.192.807-.273.373.943.739 1.912 1.074 2.868 1.105 3.128 2.21 6.25 3.34 9.36.31.85.62 1.7.943 2.55q.27.744.676 1.422c.26.414.669.714 1.142.838.323.08.646.13.969.186V21h-6.822v-.782s.025-.025.08-.031c.268-.037.858-.087 1.118-.155q.238-.072.46-.186c.254-.143.36-.373.335-.665a2 2 0 0 0-.069-.39c-.056-.2-.124-.398-.186-.584A1476 1476 0 0 1 11.6 6.761c-.013-.043-.019-.087-.062-.124l-.037.025a.2.2 0 0 0-.025.062c-.646 1.88-1.335 3.743-2.012 5.605a166 166 0 0 0-1.483 4.146c-.186.559-.372 1.117-.546 1.682a5 5 0 0 0-.15.658q-.036.226-.012.453a.7.7 0 0 0 .286.497c.341.248 1.595.391 1.961.478V21z"/>
</svg>
