<svg xmlns="http://www.w3.org/2000/svg" width="24" height="24" fill="none" viewBox="0 0 24 24">
    <path fill="#fff" d="M11.832 9.225a1.35 1.35 0 0 1-.6-.406 174 174 0 0 1-2.016-2.422c-.639-.783-1.4-1.56-2.466-1.616a3.27 3.27 0 0 0-3.461 2.833c-.39 2.355-.778 4.71-1.15 7.066q-.11.597-.139 1.205a3.32 3.32 0 0 0 3.355 3.322 3.35 3.35 0 0 0 3.183-2.972h-.01l-.012-.005a2.322 2.322 0 0 1-.778-4.455c1.095-.467 2.3.044 2.833 1.122.165.419.25.866.25 1.316l.017.011h2.166c.023 0 .034-.01.045-.022a.07.07 0 0 0 .022-.044c.056-1.261.872-2.533 2.167-2.572a2.25 2.25 0 0 1 2.05 1.3c.655 1.444-.223 3.144-1.784 3.316-.039 0-.055.028-.055.067.283 1.85 1.833 3.177 3.682 2.927a3.344 3.344 0 0 0 2.822-3.866 731 731 0 0 0-1.266-7.805 3.267 3.267 0 0 0-3.527-2.722c-1.028.083-1.884.956-2.511 1.728l-.473.583q-.69.876-1.422 1.717c-.239.266-.544.466-.916.4z"/>
    <path fill="#fff" d="M8.555 15.163a1.28 1.28 0 0 0 1.255-1.289 1.28 1.28 0 0 0-1.255-1.289 1.274 1.274 0 0 0-1.256 1.29 1.27 1.27 0 0 0 1.256 1.288m7.999-1.294a1.28 1.28 0 0 1-1.256 1.288 1.277 1.277 0 0 1-1.255-1.288 1.28 1.28 0 0 1 1.255-1.284 1.28 1.28 0 0 1 1.256 1.284"/>
</svg>
