<svg xmlns="http://www.w3.org/2000/svg" width="24" height="24" fill="none" viewBox="0 0 24 24">
    <path fill="#fff" fill-rule="evenodd" d="M8.013 5.685q-.27.809-.479 1.61c-.015.046-.04.072-.092.082l-.077.016q-.076.013-.052-.052l.02-.063c.098-.329.32-1.061-.256-.965-.695.113-.669 1.46-.602 1.954.015.139.015.252-.01.375a.07.07 0 0 1-.031.047.07.07 0 0 1-.062 0c-.105-.051-.167-.147-.23-.246-.046-.07-.092-.142-.156-.202a.07.07 0 0 0-.056-.02c-.437.046-.263 1.131-.196 1.44l.021.065c.027.08.06.177.056.27 0 .025-.01.03-.036.03-.678-.113-2.026-.113-2.53.463-.17.19-.324.468-.2.694.182.34.479.587.77.829l.037.03q.153.123.36.216a.09.09 0 0 1 .051.103 4.64 4.64 0 0 0-1.038 1.99q-.012.087-.034.167a.8.8 0 0 0-.033.306v.237q-.003.03.01.056a.104.104 0 0 0 .114.05.1.1 0 0 0 .04-.019 1.8 1.8 0 0 0 .288-.298q.02-.024.046-.047c.036-.034.072-.069.083-.118a.1.1 0 0 1 .041-.067l.041-.025q.047-.038.041.025-.045.361 0 .72a.7.7 0 0 1-.019.255l-.006.033a.05.05 0 0 0 .01.036q.005.009.013.014a.04.04 0 0 0 .018.007.35.35 0 0 0 .344-.129.1.1 0 0 1 .026-.015.06.06 0 0 1 .057.015.1.1 0 0 1 .015.026c.062.239.176.46.334.648a.1.1 0 0 1 .026.052 2.05 2.05 0 0 0 1.61 1.928c.106.03.12.106.134.185q.006.042.02.083.207.57.453 1.11.023.05-.031.052l-.046.004c-.705.066-1.41.13-2.099.423l-.005.015.005.02a.03.03 0 0 0 .016.016q.606-.155 1.218-.282c.047-.016.119-.016.216-.016h.009l.007.005v.031a.04.04 0 0 1-.036.036.8.8 0 0 0-.245.085 1 1 0 0 1-.11.049q-.5.168-.679.298l-.06.038q-.075.051-.115.065c-.015.005-.025.015-.015.036l.005.015c0 .01.01.01.015.01q.788-.355 1.605-.627c.255-.08.494-.085.732-.09q.148-.003.297-.013c.185-.015.19-.04.005-.092a1.3 1.3 0 0 0-.417-.01c-.126.011-.14-.05-.156-.118a.4.4 0 0 0-.019-.062 7.4 7.4 0 0 1-.406-1.132c-.01-.026 0-.03.026-.03.905.153 1.81.143 2.715-.016a.03.03 0 0 1 .016 0 2.6 2.6 0 0 1-.19 1.131.03.03 0 0 1-.021.01l-.592.093a.1.1 0 0 0-.072.046l-.051.082-.006.012a.03.03 0 0 0 .004.02l.002.003.01.007c.216-.07.444-.09.669-.062q1.002.171 1.944.396c.103.03.113.01.026-.051-.36-.247-.906-.35-1.353-.402l-.005-.01v-.02q-.001-.025.02-.026c.495-.021.885.045 1.283.111q.129.023.26.043.271.047.026-.082a3.1 3.1 0 0 0-1.46-.257q-.089.004-.19.019c-.074.01-.151.02-.227.022h-.01a.03.03 0 0 1-.016-.012.03.03 0 0 1-.005-.019l.01-.047c.075-.326.153-.669.124-.997q0-.012.006-.023a.04.04 0 0 1 .02-.013c.632-.195 1.336-.488 1.738-1.054.339-.484.416-1.07.257-1.636a5 5 0 0 0-.936-1.78q-.107-.13-.082-.215.023-.084.102-.083a19 19 0 0 1 1.68.038c.399.022.797.043 1.2.045l.01.005.007.005.001.002.001.002.002.011a5.6 5.6 0 0 0-1.111 2.047 2.4 2.4 0 0 0-.051.5l-.005.138c-.021.453.282.9.59 1.209a3.6 3.6 0 0 0 1.462.75q.024.009.038.03.015.022.013.048.003.517.134 1.018v.015l-.008.013-.013.008a3.32 3.32 0 0 0-2.006.268c-.015.005-.015.015 0 .02.062.02.108.03.144.02a5.7 5.7 0 0 1 1.379-.164h.113c.139.041.139.062-.005.072a3.1 3.1 0 0 0-1.27.365c-.032.016-.052.031-.052.047a.03.03 0 0 0 0 .025c.005.01.01.01.015.01q.73-.17 1.466-.319l.096-.02c.403-.083.701-.145 1.036-.02q.108.037.046-.057c-.07-.118-.235-.132-.394-.146-.168-.014-.33-.028-.367-.163a4.5 4.5 0 0 1-.14-.992.05.05 0 0 1 .037-.031 7.8 7.8 0 0 0 2.736 0h.005q-.177.623-.432 1.219c-.01.02-.01.04-.01.061q.006.062-.057.062-.286 0-.566.015a.066.066 0 0 0-.062.067v.016q0 .012.01.022a.03.03 0 0 0 .022.009q.146.005.29.005c.262 0 .52.002.764.077.38.12.755.27 1.122.416q.225.09.447.175c.143.052.154.037.025-.051a3.6 3.6 0 0 0-1.162-.524c-.01-.006-.015-.01-.01-.026v-.016q.645.096 1.28.247.364.092.026-.072c-.556-.267-1.363-.344-1.97-.37-.02 0-.03-.015-.02-.036l.514-1.312a.14.14 0 0 1 .113-.092c.423-.09.802-.323 1.075-.659l.014-.017.041-.052c.091-.115.183-.23.243-.367a3.8 3.8 0 0 0 .237-.787q.015-.092.139-.268c.092-.144.149-.298.17-.453a.1.1 0 0 1 .01-.03.1.1 0 0 1 .025-.02.07.07 0 0 1 .067.004l.237.154q.021.016.051.016a.1.1 0 0 0 .052-.02.1.1 0 0 0 .036-.052c.01-.015.01-.041.01-.062a.2.2 0 0 0-.02-.056c-.01-.016-.011-.031-.011-.052a1.5 1.5 0 0 0-.054-.381 2 2 0 0 1-.049-.251 1 1 0 0 0-.032-.118.45.45 0 0 1-.035-.222.04.04 0 0 1 .01-.02.04.04 0 0 1 .02-.011.04.04 0 0 1 .022 0q.098.111.2.216.035.037.074.086c.101.123.226.275.39.238a.06.06 0 0 0 .04-.04c.103-.304-.051-.767-.154-1.055a4.6 4.6 0 0 0-.813-1.528c-.03-.046-.03-.077.021-.102a3.2 3.2 0 0 0 1.147-1.014c.283-.4-.129-.874-.489-1.028l-.106-.047c-.055-.025-.11-.05-.166-.066-.772-.232-1.615-.206-2.392 0a.07.07 0 0 1-.051-.01.6.6 0 0 1-.16-.168c-.062-.082-.12-.163-.236-.193a.14.14 0 0 1-.082-.056.16.16 0 0 1-.026-.098q.024-.322.195-.591a.04.04 0 0 1 .031-.016.04.04 0 0 1 .036.01l.103.134a.07.07 0 0 0 .077.02.07.07 0 0 0 .046-.062.3.3 0 0 0-.118-.25l-.015-.016a.05.05 0 0 1 0-.047q.252-.191.499-.39c.241-.19.493-.561.154-.792-.211-.144-.473-.021-.69.087a.04.04 0 0 1-.035 0 .04.04 0 0 1-.016-.036c.047-.33.607-.792.864-.993.18-.144.252-.36.103-.565-.257-.355-.75-.17-.94.133q-.093.138-.114-.025a.5.5 0 0 1 .01-.144 3.9 3.9 0 0 0-.087-1.6 1.4 1.4 0 0 0-.288-.535.97.97 0 0 0-.422-.288c-.653-.241-1.563-.2-1.558.746.005.581.756.35 1.054.221a.08.08 0 0 1 .057 0 .08.08 0 0 1 .04.041q.248.565.248 1.183a12.5 12.5 0 0 1-.158 2.06c-.022.13-.046.267-.028.414.006.026-.005.041-.036.026l-.133-.052a.2.2 0 0 0-.052-.02.17.17 0 0 1-.118-.052.05.05 0 0 0-.041-.02h-.33a.1.1 0 0 0-.05.01l-.206.118-.016.01-.015-.01h-.02c-.546.36-.726.998-.71 1.58.005.066-.031.092-.098.066-.391-.128-.777-.221-1.173-.206-.411.005-1.224.02-1.183.669v.257c-.025.453.33.874.638 1.183q.07.068-.031.067l-1.245-.031q-.184-.006-.046-.129.239-.21.422-.565c.175-.324.267-.88 0-1.178-.442-.483-1.661-.262-2.217-.057-.066.026-.103 0-.103-.066-.02-.633-.123-1.08-.586-1.523a.08.08 0 0 1-.015-.082q.168-.168.308-.36a.377.377 0 0 0-.102-.52c-.23-.14-.418.056-.594.237-.14.145-.272.282-.41.231a.05.05 0 0 1-.035-.03.05.05 0 0 1 0-.042c.205-.481.58-.799.963-1.122q.131-.111.26-.225c.248-.221.582-.705.448-1.065-.154-.396-.807-.663-1.162-.432a1.34 1.34 0 0 0-.545.715M17.1 7.002q.037-.011.082-.067.08-.103.163-.226c.172-.249.36-.523.63-.597.344-.103.447.236.22.452q-.065.063-.134.126c-.39.363-.839.782-.807 1.237a.08.08 0 0 0 .041.062.07.07 0 0 0 .077-.01c.155-.124.648-.458.777-.144.046.113-.036.267-.123.324-.26.167-.492.375-.684.617h-.02q-.196-.078-.32.051c-.061.067-.051.103.042.103l.164.005c.026 0 .03.016.02.036-.102.2-.18.412-.22.628q-.01.03-.042.03l-.216.016c-.015 0-.026-.005-.026-.026 0-.35-.092-.673-.267-.977a.32.32 0 0 1-.03-.19c.112-.7.174-1.378.184-2.042.016-.72 0-1.265-.21-1.882-.01-.02 0-.036.02-.041.108-.041.17-.072.19-.103.031-.052.021-.077-.04-.067a3.3 3.3 0 0 0-.664.175c-.108.041-.443.087-.566-.005-.21-.175-.005-.545.16-.669.545-.396 1.26 0 1.522.525.34.689.21 1.892.041 2.623 0 .03.005.04.036.036m-9.494 1.1c.088 0 .144 0 .175-.01q.077-.023.123.123a.07.07 0 0 1-.025.077c-.412.268-.597.86-.607 1.327q0 .03-.031.031a.87.87 0 0 0-.91.437.05.05 0 0 1-.052.026l-.185-.03a.05.05 0 0 1-.036-.027c-.128-.303-.406-1.29-.185-1.563a.07.07 0 0 1 .084-.02q.015.008.024.02l.039.061c.082.133.207.334.321.356.309.061.324-.489.319-.674-.01-.34 0-.674.015-1.008.016-.288.119-.592.386-.73a.1.1 0 0 1 .093 0 .11.11 0 0 1 .066.061c.058.16.005.396-.037.583l-.02.086c-.04.154.006.36.186.396.256.051.354-.33.4-.511l.001-.003c.129-.489.257-.926.401-1.312.129-.36.412-.797.87-.689.354.087.514.298.431.669a.85.85 0 0 1-.303.524l-.121.096c-.493.388-1.124.884-1.185 1.524 0 .02-.016.036-.036.036l-.227.031a.03.03 0 0 0-.03.026v.036c.01.03.025.051.051.051zm11.983 7.175-.053.146c-.06.174-.133.382-.235.496q-.03.03-.03-.01a6 6 0 0 0-.36-1.517l.01-.051.154-.309a.03.03 0 0 1 .03-.02l.016.005.01.015.026.075c.154.449.293.854.653 1.2a.07.07 0 0 0 .072.01l.067-.025c.026-.015.046-.005.051.02a.4.4 0 0 1 .032.201l-.005.014a.04.04 0 0 1-.023.016l-.005.001h-.009l-.02-.005-.36-.273h-.01l-.007.004-.002.003zm-15.218-.01a1.05 1.05 0 0 1-.39.272h-.006l-.01-.01v-.006l-.005-.02v-.031l.02-.02a.4.4 0 0 0 .103-.073c.355-.354.49-.778.636-1.238l.007-.022.005-.005h.01l.273.494v.015a5.5 5.5 0 0 0-.278 1.286q-.001.063-.04.01c-.105-.133-.175-.34-.237-.521l-.041-.121-.006-.01a.03.03 0 0 0-.02-.009l-.01.003zM8.614 8.07c.005.026-.01.036-.036.026l-.175-.062a.06.06 0 0 0-.061.005.53.53 0 0 1-.288.103c-.01 0-.016.01-.01.02l.015.032.01.005a.84.84 0 0 1 .55.036c.02.01.036.005.047-.005.174-.17.426-.422.308-.597a.1.1 0 0 0-.067-.04.1.1 0 0 0-.077.025l-.355.308q-.036.032.01.041l.103.036a.04.04 0 0 1 .021.016l.005.026zM7.431 9.676c.041-.597.5-1.862 1.322-1.173a1.75 1.75 0 0 1 .597 1.368c-.036.545-.335 1.276-1.003 1.22a.66.66 0 0 1-.427-.191.05.05 0 0 1-.01-.057.8.8 0 0 0 .02-.617.02.02 0 0 1 .02-.015c.772.185.69-1.04.011-.833q-.309.091-.309.432 0 .016-.015.01l-.19-.113a.03.03 0 0 1-.016-.031m8.537-.309c-.637-.072-.663.977.088.844.02-.005.03 0 .02.025a.8.8 0 0 0 .01.592.076.076 0 0 1-.02.093c-.396.318-.905.195-1.162-.227a1.65 1.65 0 0 1-.154-1.47c.133-.335.488-.86.88-.906.626-.072.914.885.935 1.358 0 .015-.005.02-.015.026l-.186.113h-.01q-.046-.41-.386-.448m-7.858.324a.13.13 0 0 1-.128.134.134.134 0 1 1 0-.267.134.134 0 0 1 .128.133m8.044 0a.13.13 0 0 1-.129.134.133.133 0 0 1-.134-.134.133.133 0 0 1 .134-.133.134.134 0 0 1 .129.133m-8.383.952c.139-.91-1.085-1.255-1.363-.36v-.005c-.206.668.524 1.116 1.09.874.067-.026.062-.057-.01-.077-.345-.108-.088-.669.257-.417.01.01.026.005.026-.015m8.475.025c.345-.252.638.253.226.433h-.005c-.015.01-.015.015-.005.025.17.103.36.129.566.088.314-.067.674-.443.602-.823-.18-.982-1.533-.746-1.41.267l.004.007.003.002.002.001h.002l.007.003zm-7.596.849-.03-.01a1.5 1.5 0 0 1-.659-.35q-.037-.038.01-.015.811.331 1.276-.34c.096-.134.147-.31.195-.475l.01-.034a.1.1 0 0 1 .036-.051c.412-.324 1.183-.33 1.728-.278.72.067.597.7.36 1.172-.432.865-1.49 1.523-2.448 1.682-.036.005-.04 0-.02-.03l.308-.381a.6.6 0 0 1 .235-.157.8.8 0 0 0 .177-.1c.48-.361.858-.842 1.095-1.394q.007-.032.047-.026l.087.01a.025.025 0 0 0 .03-.01v-.03c-.261-.33-.596-.469-.992-.422q-.21.024-.288.087-.184.155.041.093c.119-.031.232-.042.355-.036q.03-.002.031.036c0 .257-.164.565-.303.802a13.2 13.2 0 0 1-1.913 2.407l-.026-.005c-1.198-.69-2.36-1.641-3.055-2.865a.03.03 0 0 1 .005-.045.03.03 0 0 1 .016-.006l.262-.047q.177-.03 0-.061c-.422-.078-1.168.144-1.389.612q-.047.108.052.046.11-.067.205-.154a.05.05 0 0 1 .057.015c.442.514 1.044 1.013 1.697 1.224a.6.6 0 0 1 .237.129q.269.23.545.437.062.039-.016.03a5.6 5.6 0 0 1-3.332-1.768c-.309-.36.216-.7.494-.813a4.13 4.13 0 0 1 2.427-.15c.041.011.062.037.051.083-.077.473.19.946.68 1.029.088.016.189.01.288.004l.082-.004c.04 0 .046.01.005.025-.237.124-.623.088-.839.062q-.015 0-.015.015l.005.042c0 .01.01.015.02.02.428.103.968.103 1.286-.298q.015-.015.031 0a1.12 1.12 0 0 0 .839.329.03.03 0 0 0 .02-.036m8.867-.062-.022.002c-.244.015-.641.041-.796-.079q-.03-.021.01-.02.053.001.106.008a1 1 0 0 0 .09.007c.617-.02.905-.478.848-1.07 0-.02.005-.036.031-.04.838-.207 1.852-.201 2.628.226.232.128.566.421.324.71a5.48 5.48 0 0 1-3.312 1.763q-.093.016-.015-.036.253-.185.498-.401a.7.7 0 0 1 .237-.139 4 4 0 0 0 1.708-1.224.06.06 0 0 1 .035-.02c.016 0 .031 0 .041.01l.201.154c.051.046.072.031.051-.036a.5.5 0 0 0-.118-.18c-.334-.34-.874-.57-1.352-.447a.026.026 0 1 0 0 .051l.298.046a.06.06 0 0 1 .041.03.06.06 0 0 1 0 .053c-.7 1.219-1.851 2.155-3.04 2.844a.04.04 0 0 1-.046-.005 14.2 14.2 0 0 1-1.79-2.238 2.3 2.3 0 0 1-.41-.987l.004-.015a.04.04 0 0 1 .031-.01l.437.05c.016 0 .026 0 .026-.02v-.036a.03.03 0 0 0-.015-.01q-.756-.332-1.296.262-.124.131.046.077l.03-.01c.021-.01.037 0 .047.02.247.566.787 1.353 1.399 1.549.026.01.041.02.051.04l.365.443c.047.052.031.072-.036.057a3.78 3.78 0 0 1-2.134-1.276c-.257-.308-.494-.71-.463-1.131q.024-.37.386-.437c.545-.103 1.42-.093 1.882.262q.024.021.031.051c.154.592.473.977 1.121.941a.67.67 0 0 0 .36-.128h.005l.016.015v.01a1.3 1.3 0 0 1-.71.36q-.016.008-.01.021l.005.016.01.01c.299.041.638-.118.854-.314.01-.015.026-.015.036 0 .298.36.823.401 1.255.288q.032-.008.041-.03c.015-.026.005-.042-.02-.037m-7.113-.92-.082.34a.08.08 0 0 0 .04.087l.155.103a.08.08 0 0 0 .067.015.08.08 0 0 0 .051-.052l.14-.329c.004-.015.01-.036 0-.051a.08.08 0 0 0-.037-.051l-.22-.114a.08.08 0 0 0-.097.021.1.1 0 0 0-.017.03m2.818.164.15.335a.077.077 0 0 0 .108.03l.17-.102a.08.08 0 0 0 .03-.083l-.082-.35a.077.077 0 0 0-.113-.052l-.227.12a.077.077 0 0 0-.036.103m-5.631.093c-.005.041-.047.062-.088.062-.046-.005-.072-.041-.072-.083a.073.073 0 0 1 .088-.056.08.08 0 0 1 .072.077m8.974-.01a.08.08 0 0 1-.077.077c-.036 0-.072-.036-.072-.077q0-.03.021-.051a.07.07 0 0 1 .05-.021.07.07 0 0 1 .055.019.07.07 0 0 1 .023.053m-11.71.267-.108-.206a.09.09 0 0 0-.113-.036l-.304.144a.1.1 0 0 0-.03.026.09.09 0 0 0 0 .108l.226.273q.013.014.03.02.027.012.055.007a.1.1 0 0 0 .048-.027l.185-.206a.09.09 0 0 0 .01-.103m14.616.303.226-.267a.1.1 0 0 0 .02-.072.09.09 0 0 0-.051-.062l-.298-.144a.09.09 0 0 0-.113.036l-.113.206a.09.09 0 0 0 .015.103l.185.206a.1.1 0 0 0 .026.02q.027.012.056.005a.1.1 0 0 0 .047-.03m-9.242-.231-.185.288-.005-.005a.04.04 0 0 0 0 .051l.113.155a.04.04 0 0 0 .024.016h.014a.04.04 0 0 0 .024-.016l.267-.32a.04.04 0 0 0 .01-.03.04.04 0 0 0-.02-.031l-.19-.118a.04.04 0 0 0-.028-.006.04.04 0 0 0-.024.016m3.286.154.278.345h-.005a.03.03 0 0 0 .051 0l.124-.18a.03.03 0 0 0 .006-.018.03.03 0 0 0-.006-.018l-.196-.283a.03.03 0 0 0-.018-.013.03.03 0 0 0-.023.003l-.206.118a.03.03 0 0 0-.013.022v.006l.002.007zm-8.496.479.14-.232a.03.03 0 0 0 0-.02l-.135-.258a.03.03 0 0 0-.015-.01h-.011l-.01.005-.236.273a.026.026 0 0 0 0 .036l.231.206a.03.03 0 0 0 .018.007.03.03 0 0 0 .018-.007m14.236-.242-.242-.273-.01-.005h-.01l-.01.004-.003.003-.002.002v.002l-.13.252-.004.012q0 .008.005.013l.128.237a.02.02 0 0 0 .018.01.02.02 0 0 0 .018-.01l.242-.211v-.01a.03.03 0 0 0 0-.026m-9.612.54.252-.396c.015-.02.025-.02.04-.005l.088.092.006.013v.013a.04.04 0 0 1-.01.02l-.356.278a.02.02 0 0 1-.016.003l-.006-.005-.003-.008v-.01zm-4.001.103a3 3 0 0 1-.474-.324v-.026l.078-.139c.015-.036.036-.036.051-.005l.36.468c.036.046.03.052-.015.026m8.454-.51.268.402v.01l-.005.01-.01.005h-.016l-.355-.282q-.023-.025 0-.041l.093-.103.007-.005h.008q.006 0 .01.005m4.244.53h-.016l-.003-.004v-.006q0-.006.003-.01l.375-.494q.031-.043.062.005l.062.129c.02.036.015.067-.026.092zm-7.37.005a.02.02 0 0 1-.013-.003.02.02 0 0 1-.008-.012.02.02 0 0 1 .01-.026l.14-.087.01-.005 1.85.041.011.005.062.062v.01a.02.02 0 0 1-.008.012l-.011.004zm3.096.86a2.4 2.4 0 0 0-.345.37.1.1 0 0 1-.087.04l-3.302-.102a.17.17 0 0 1-.118-.052l-.36-.375h-.02l-.016.01v.01c.565.787 1.157 1.615 1.47 2.515.33.937.031 1.698-.792 2.197-1.172.72-2.802.72-4.104.4-.153-.035-.306-.103-.453-.168l-.06-.027c-.968-.432-1.05-1.455-.89-2.386a9.5 9.5 0 0 1 .54-1.913c.05-.124.035-.129-.047-.026a.7.7 0 0 0-.103.206c-.051.123-.067.118-.067-.005a2 2 0 0 0-.04-.463.06.06 0 0 1 .01-.052l.226-.298a.05.05 0 0 1 .051-.015q.586.186 1.27.241a.55.55 0 0 1 .294.129c.283.221.565.442.91.55a.09.09 0 0 0 .087-.02l.777-.72a.1.1 0 0 1 .057-.031 4.4 4.4 0 0 0 1.738-.705.1.1 0 0 1 .056-.02q1.25.015 2.49 0c.058 0 .127.05.178.087l.022.015a4.5 4.5 0 0 0 1.61.618q.03.005.051.025l.772.72a.1.1 0 0 0 .056.031l.072-.005c.351-.15.678-.353.967-.602a.4.4 0 0 1 .185-.061 5.5 5.5 0 0 0 1.291-.258q.029-.008.052.016l.102.139c.01.015.016.041 0 .062q-.066.183-.061.38l-.01.01a.02.02 0 0 1-.015 0 .02.02 0 0 1-.011-.01.1.1 0 0 0-.02-.026l-.008-.002h-.004l-.004.002-.01.005v.01a.12.12 0 0 0 .025.078c.016.015.02.03.026.051q.02.11.03.219c.02.183.04.363.166.532a1 1 0 0 1 .123.232c.273.977.55 2.515-.494 3.152-.777.473-1.929.54-2.803.484a4.7 4.7 0 0 1-1.646-.38c-.498-.222-1.07-.66-1.234-1.204-.19-.597.062-1.281.33-1.805a11 11 0 0 1 1.115-1.775c.072-.098.067-.103-.025-.03m-10.09.966c.082-.123.118-.118.118.036.002.155-.028.322-.059.492a2.5 2.5 0 0 0-.06.552q.013.2.119.031.133-.222.241-.53.155-.423.324-.94a.05.05 0 0 1 .052-.042.06.06 0 0 1 .056.036l.278.622.006.01.01.004q.006 0 .011-.002l.009-.007a2.2 2.2 0 0 0-.103-1.296c-.01-.02 0-.03.02-.03h.052a.05.05 0 0 1 .052.03l.056.114q.017.03.041 0l.185-.227c.01-.015.006-.02-.01-.03l-.859-.376q-.017-.008-.037-.005a.1.1 0 0 0-.035.015c-.498.465-.742 1.07-.99 1.685l-.064.157c-.082.2-.139.416-.165.637a.03.03 0 0 0 .01.026.03.03 0 0 0 .026 0c.23-.15.469-.55.637-.831q.042-.072.078-.13m15.763-.152.01.096.133 1.028c.01.077-.02.103-.092.052q-.046-.025-.093-.134-.3-.69-.54-1.404a.04.04 0 0 0-.03-.02.04.04 0 0 0-.03.02l-.28.617q-.031.063-.056-.005c-.133-.355-.015-.89.103-1.24.01-.03 0-.04-.03-.04a.13.13 0 0 0-.12.071.04.04 0 0 1-.05.016.07.07 0 0 1-.042-.052.04.04 0 0 1 .003-.026.04.04 0 0 1 .018-.02l.843-.355q.024-.006.046.01c.428.45.632.977.842 1.52l.1.255q.109.283.149.488.038.201-.108.062c-.196-.188-.358-.45-.512-.699q-.085-.137-.167-.263c-.051-.076-.087-.072-.098.024" clip-rule="evenodd"/>
    <path fill="#fff" d="M15.523 7.83c-.245.048-.438.086-.707.298v.005q-.029.022-.005.052l.016.02v.006h.025c.249-.19.457-.221.709-.258q.09-.013.191-.03.064-.008.057-.078v-.02l-.006-.02-.014-.016a.05.05 0 0 0-.042-.005q-.12.027-.224.047"/>
</svg>
