<svg xmlns="http://www.w3.org/2000/svg" width="24" height="24" fill="none" viewBox="0 0 24 24">
    <path fill="#fff" d="M5.812 15.938V8.061h5.254c.203 0 .371-.185.371-.393V5.62a.37.37 0 0 0-.37-.371H3.37a.375.375 0 0 0-.37.372V18.38a.37.37 0 0 0 .371.37h7.695a.374.374 0 0 0 .371-.37v-7.167c0-.208-.168-.337-.37-.337H7.274c-.208 0-.338.13-.338.338v2.047c0 .208.13.427.338.427h1.35v2.25zM12.563 5.61c0-.197.174-.36.393-.36h3.15c.22 0 .394.163.394.36v.18c0 .202-.174.36-.394.36h-2.07v.9h2.07c.22 0 .394.169.394.36v.18c0 .202-.174.36-.394.36h-2.07v.9h2.07c.22 0 .394.163.394.36v.18c0 .197-.174.36-.394.36h-3.15c-.22 0-.393-.163-.393-.36zm4.5 0c0-.197.174-.36.393-.36h3.15c.22 0 .394.163.394.36v.18c0 .202-.174.36-.394.36h-2.064v.9h2.064c.22 0 .394.169.394.36v.18c0 .202-.174.36-.394.36h-2.064v.9H20.6c.225 0 .393.163.393.36v.18c0 .197-.168.36-.393.36h-3.15c-.214 0-.389-.163-.389-.36zm-3.094 11.048v.483c0 .124.095.225.225.225h.956a.225.225 0 0 0 .225-.225v-.483a.225.225 0 0 0-.225-.226h-.956a.225.225 0 0 0-.225.226m0-4.169v.484c0 .118.095.225.225.225h.483a.225.225 0 0 0 .225-.225v-.484a.225.225 0 0 0-.225-.225h-.483a.225.225 0 0 0-.225.225m-1.406-1.243c0-.208.168-.371.376-.371v.006h2.998c.209 0 .377.168.377.37v1.02h.034a.4.4 0 0 0 .236-.085.67.67 0 0 1 .428-.152c.467 0 .827.45.67.928a.7.7 0 0 1-.9.422.7.7 0 0 1-.198-.101.38.38 0 0 0-.236-.09h-.034v1.018a.37.37 0 0 1-.377.37h-1.783a.186.186 0 0 0-.185.187v.095c0 .101.084.186.185.186h2.25a.37.37 0 0 1 .377.365v.692a.8.8 0 0 0-.495.011.813.813 0 0 0-.292 1.396.83.83 0 0 0 .787.174v.692a.37.37 0 0 1-.377.371H12.94a.37.37 0 0 1-.348-.228.4.4 0 0 1-.028-.143v-3.15c0-.101.084-.18.185-.18h.096a.184.184 0 0 0 .185-.186v-.095a.186.186 0 0 0-.185-.186h-.096a.186.186 0 0 1-.185-.186zm5.624 1.727v-.484c0-.123.102-.225.225-.225h.957c.13 0 .225.096.225.225v.484a.225.225 0 0 1-.225.225h-.957a.225.225 0 0 1-.225-.225m-1.029-2.098a.376.376 0 0 0-.377.371v.692a.84.84 0 0 1 .924.328.8.8 0 0 1 .134.32.833.833 0 0 1-1.058.933v.692a.37.37 0 0 0 .377.365h1.502v.04a.37.37 0 0 1-.09.236.7.7 0 0 0-.101.191.63.63 0 0 0 .033.529c.124.23.366.394.63.394.389 0 .698-.31.698-.692a.6.6 0 0 0-.045-.23.6.6 0 0 0-.107-.192.4.4 0 0 1-.084-.236v-.04h1.03a.366.366 0 0 0 .37-.365v-2.965a.37.37 0 0 0-.37-.371zm1.502 6.266v-.483c0-.124.101-.226.225-.226h.49c.123 0 .224.102.224.226v.483a.226.226 0 0 1-.225.225h-.49a.225.225 0 0 1-.224-.225m1.271-2.092a.835.835 0 0 1-.558 1.032.83.83 0 0 1-.94-.345.83.83 0 0 1-.1-.687h-.708a.37.37 0 0 0-.377.365v1.019h-.034a.38.38 0 0 1-.236-.085.6.6 0 0 0-.197-.101.66.66 0 0 0-.534.028c-.236.124-.405.366-.405.63a.695.695 0 0 0 .612.68.7.7 0 0 0 .327-.039.7.7 0 0 0 .197-.1.37.37 0 0 1 .236-.085h.034v1.012c0 .208.169.371.377.371h2.998A.375.375 0 0 0 21 18.38v-2.965a.37.37 0 0 0-.377-.37h-.692z"/>
</svg>
