<svg xmlns="http://www.w3.org/2000/svg" width="24" height="24" fill="none" viewBox="0 0 24 24">
    <path fill="#fff" fill-rule="evenodd" d="M12 3.633 4.91 7.81v8.378L12 20.367l7.091-4.178V7.811zM19.637 7.5 12 3 4.364 7.5v9L12 21l7.637-4.5z" clip-rule="evenodd"/>
    <path fill="#fff" d="M17.592 11.114c-.356-1.779-1.61-3.058-3.023-4.053l-1.99 1.052c1.4.78 2.667 1.706 3.06 3.069h1.966zM12.01 5.53c.643.352 1.353.74 2.045 1.186L12.001 7.8a62 62 0 0 0-.772-.396q-.648-.324-1.282-.674a30 30 0 0 1 2.059-1.204zm-.572-.315a13 13 0 0 1-1.061-.643c-.64.382-1.918 1.135-1.918 1.097.256.265.585.512.962.75.79-.502 1.294-.808 2.017-1.204m6.246 7.059h-5.683l-1.091 2.181h3.65c-.88.813-2.134 1.502-3.376 2.184-.978.538-1.95 1.072-2.725 1.659.64.372 1.918 1.145 1.918 1.165q.32-.179.66-.365c2.836-1.562 6.498-3.578 6.647-6.824"/>
    <path fill="#fff" d="M6.416 11.114c.57-2.846 3.437-4.413 5.582-5.585.633-.346 1.204-.658 1.634-.958.639.382 1.917 1.135 1.917 1.097-.617.64-1.661 1.172-2.77 1.737-2.184 1.111-4.618 2.35-4.532 4.803.055 1.55 1.497 2.656 3.207 3.66-.712.399-1.213.681-1.972 1.11-2.017-1.466-3.574-3.325-3.066-5.864m3.561 6.212q1.012-.573 2.027-1.141.408.228.82.453c.41.226.819.45 1.211.678l-.295.19c-.607.388-1.06.68-1.732 1.056-.676-.381-1.37-.79-2.031-1.236m2.588 1.547.407.224.66.365c0-.02 1.278-.793 1.917-1.165a13 13 0 0 0-1.002-.676l.007.01-.514.33q-.726.474-1.475.912"/>
</svg>
