<svg xmlns="http://www.w3.org/2000/svg" width="24" height="24" fill="none" viewBox="0 0 24 24">
    <path fill="#fff" fill-rule="evenodd" d="M12 2.703 4.121 7.346v9.308L12 21.298l7.879-4.643v-9.31zM20.485 7 12 2 3.515 7v10L12 22l8.485-5z" clip-rule="evenodd"/>
    <path fill="#fff" d="M18.213 11.016c-.395-1.977-1.788-3.398-3.36-4.504l-2.21 1.17c1.555.866 2.963 1.895 3.4 3.409h2.184zM12.01 4.81c.715.391 1.503.821 2.273 1.318L12 7.335q-.432-.225-.857-.44-.72-.36-1.425-.75a34 34 0 0 1 2.287-1.337zm-.636-.35a14 14 0 0 1-1.178-.714c-.71.424-2.13 1.26-2.13 1.218.284.295.65.57 1.068.835a36 36 0 0 1 2.24-1.339m6.941 7.843H12l-1.212 2.424h4.056c-.979.903-2.372 1.668-3.752 2.427-1.087.597-2.165 1.19-3.027 1.842.71.414 2.13 1.273 2.13 1.295l.734-.406c3.152-1.735 7.22-3.976 7.386-7.582"/>
    <path fill="#fff" d="M5.795 11.016c.632-3.162 3.818-4.903 6.203-6.206.703-.384 1.337-.73 1.814-1.064.71.424 2.13 1.26 2.13 1.218-.684.712-1.845 1.303-3.077 1.93-2.426 1.235-5.131 2.612-5.035 5.337.06 1.722 1.663 2.951 3.562 4.067-.79.443-1.346.757-2.19 1.234-2.241-1.63-3.971-3.696-3.407-6.516m3.957 6.901q1.124-.636 2.252-1.268.453.254.911.505c.455.25.91.5 1.346.752l-.328.21c-.674.433-1.178.757-1.924 1.175a33 33 0 0 1-2.257-1.374m2.875 1.72.452.248.733.406c0-.022 1.42-.88 2.13-1.295a14 14 0 0 0-1.112-.75l.008.011-.572.366q-.807.528-1.639 1.013"/>
</svg>
