<svg xmlns="http://www.w3.org/2000/svg" width="24" height="24" fill="none" viewBox="0 0 24 24">
    <path fill="#fff" d="M3 3.643h1.286v7.714h.643V3.643h1.285v7.714h13.5v-.643H6.857v-7.07h1.286v5.785h11.571v-.643H8.786V3.643h1.286V7.5h3.857V3.643h1.285V7.5h.643V3.643h1.286V7.5h.643V3.643h1.285V7.5h.643V3.643H21v16.714h-1.286v-7.714h-.642v7.714h-1.286v-7.714h-13.5v.643h12.857v7.071h-1.286v-5.785H4.286v.643h10.928v5.142h-1.286V16.5h-3.857v3.857H8.787V16.5h-.643v3.857H6.857V16.5h-.643v3.857H4.93V16.5h-.643v3.857H3z"/>
</svg>
