<svg xmlns="http://www.w3.org/2000/svg" width="24" height="24" fill="none" viewBox="0 0 24 24">
    <path fill="#fff" fill-rule="evenodd" d="M14.594 21c2.828 0 5.117-2.247 5.117-5.02a5.067 5.067 0 0 0-5.117-5.013 5.065 5.065 0 0 0-5.112 5.014A5.063 5.063 0 0 0 14.594 21m.637-8.249-.576-.154-.241.843-1.44-.396-.242.844.576.159c.16.041.257.206.206.36l-.648 2.258a.3.3 0 0 1-.365.205l-.288-.082-.53.766 1.44.396-.247.849.576.154.242-.843.288.077-.242.848.576.155.242-.844.576.16a1.4 1.4 0 0 0 1.671-.967c.165-.566-.093-1.09-.566-1.399a1.168 1.168 0 0 0-.102-2.222l-.283-.082.241-.843-.576-.16-.241.844-.288-.077zm.376 1.929-.859-.237-.247.848.864.237a.445.445 0 0 0 .514-.643.44.44 0 0 0-.267-.205zm-.34 1.733-1.008-.278-.324 1.131 1.008.273a.58.58 0 0 0 .623-.2.6.6 0 0 0 .124-.433.585.585 0 0 0-.423-.498z" clip-rule="evenodd"/>
    <path fill="#fff" d="M10.367 10.966c.257-.957.489-3.425 1.06-4.86A22.3 22.3 0 0 0 13.7 9.608c-1.217.13-2.372.6-3.333 1.358"/>
    <path fill="#fff" d="M5.98 10.488C7.307 8.718 9.19 6.446 9.89 3c.483 1.301.941 5.112-1.137 9.956-1.815 4.217.16 6.85 1.62 8.043-6.063-.195-7.73-6.053-4.386-10.511z"/>
    <path fill="#fff" d="M5.841 15.98c-.113 1.147-.036 2.433.453 3.657.997.802 2.365 1.306 4.073 1.363-1.46-1.194-3.436-3.822-1.62-8.044 2.036-4.751 1.64-8.51 1.162-9.873C9.95 5.9 8.88 8.08 7.821 10.246c-.884 1.805-1.764 3.6-1.98 5.734m6.053-5.909a27 27 0 0 0-.535-3.785 20 20 0 0 0-.71 3.194c-.102.612-.19 1.142-.282 1.486.35-.298.89-.632 1.527-.895"/>
</svg>
