<svg xmlns="http://www.w3.org/2000/svg" width="24" height="24" fill="none" viewBox="0 0 24 24">
    <path fill="#fff" d="M6.98 7c2.395 0 3.9 1.55 4.35 2.32l-3.57.77.99-.77c-2.265-1.615-5.25.425-5.25 2.55 0 1.705 1.42 2.81 2.06 3.15-1.93-.27-3.21-1.58-3.34-2A4 4 0 0 1 2 11.87C2 9.48 3.985 7 6.98 7m10.04 10c-2.396 0-3.9-1.55-4.35-2.32l3.57-.77-.99.77c2.264 1.615 5.25-.425 5.25-2.55 0-1.705-1.42-2.81-2.06-3.15 1.93.27 3.21 1.58 3.34 2 .104.34.22.755.22 1.15 0 2.395-1.986 4.87-4.98 4.87"/>
    <path fill="#fff" d="M5.785 15.215a4.35 4.35 0 0 1-3.6-1.8C2.462 15.115 4.436 17 7.04 17c2.09 0 3.91-1.825 4.56-2.74l2.57-3.795c.48-.585 1.855-1.755 3.48-1.755s3.575 1.17 4.35 1.755c-.33-1.145-1.665-3.43-4.35-3.43s-4.515 1.9-5.1 2.85c-.975 1.32-3.015 4.055-3.385 4.375-.46.4-.9.955-3.38.955"/>
</svg>
