<svg xmlns="http://www.w3.org/2000/svg" width="24" height="24" fill="none" viewBox="0 0 24 24">
    <path fill="#fff" d="M5.389 3c.152 1.282 1.664 4.348 6.328 4.162.452-.016 1.39.35 1.592 1.539.246 1.489-1.489 2.11-3.25 2.11a2.7 2.7 0 0 0 .763-.414C8.929 10.331 4.838 8.182 5.389 3m11.139 4.61a5.02 5.02 0 0 0 2.564-2.002 4.1 4.1 0 0 1-1.784 3.283 4.1 4.1 0 0 0-.78-1.282m-8.03 4.2c1.364-.344 4.855-.955 7.91-.611.022-.153.054-.486-.06-.546a10.9 10.9 0 0 0-3.093 0 7.2 7.2 0 0 1 3.093-.589 5.2 5.2 0 0 0-1.353-2.81c-.218.006-.725-.032-.982-.2-.316-.22-.764-.541-.567-.765.163-.185.764-.032 1.036.066.328.136.917.507.737.9.725.436 2.16 2.051 2.105 4.74-2.056-.594-6.742-.398-8.826-.18zm4.637.622c-2.073-1.075-4.675.272-5.722 1.085.692 0 2.34-.158 3.354-.84a3.58 3.58 0 0 1-2.203 1.282c2.209.47 3.97-.818 4.576-1.527zm1.364.032c.872-.163 2.645-.381 2.689.115.038.502-1.778.13-2.695-.11zm-.819 3.344c-.398-.125-1.112-.698-.747-1.996s1.768-1.015 2.422-.71c-.164.088-.513.339-.606.71.83-.524 2.614-1.064 3.099.982.016.163.016.502-.12.605-.076.06-.125.022-.207-.043-.11-.077-.257-.191-.562-.191-.158.076-.502.234-.644.234-.174 0-.322-.507.104-.66-.131-.054-.448-.016-.677.573-.054.055-.196.175-.31.175-.137 0-.819-.442.31-1.413-.37.005-1.134.294-1.227 1.418a1.33 1.33 0 0 1-.573-1.282c-.196.087-.524.535-.262 1.598m-6.878-.6a2.37 2.37 0 0 1 1.09-.796c-.84 1.01-.616 2.466-.398 3.066a3.75 3.75 0 0 1 1.451-2.826c-.343 2.351-.141 3.644 0 3.999-2.269.163-3.638-.71-4.036-1.173.202-.131 1.516-1.713 1.893-2.27m2.716-.218c.72.655 2.52 2.046 3.955 2.39l.382 1.407.6-.562c.387.054 1.271.13 1.653 0l.61.818.17-.927c.17-.017.518.01.55.256.094.622.52 2.019 1.49 2.619-.764.06-2.39-.142-2.82-1.419a2.3 2.3 0 0 0-.6.802c-.835.262-2.76.088-3.742-2.727-.077.447-.17 1.527.109 2.215-.895-.17-2.619-1.386-2.357-4.872m6.655.704c-.72-.148-1.963.774-2.503 1.254.343 0 1.036-.19 1.336-.283l-.136.333c1.232-.944 1.374-.448 1.309-.508-.055-.054-.311.093-.431.175.25.038.818.109 1.058.076s.41-.25.464-.354v.272c.027-.01.087-.125.104-.49.01-.36-.982-.36-1.49-.317l.295-.164zm-.949 1.32c.278-.016.819-.016.764.098-.066.115-.633.338-.911.437.25-.131.633-.42.147-.535m.082.89c.393-.339 1.37-.983 2.144-.852s.469.513.218.687h-.524c-.109-.065-.638-.13-1.838.164m-3.115-4.272c-.436.747-1.434 1.15-1.882 1.26.224.3.802.873 1.31.736.496-.13.588-1.385.572-1.996"/>
</svg>
