<svg width="24" height="24" viewBox="0 0 24 24" fill="none" xmlns="http://www.w3.org/2000/svg">
<path d="M12.4435 2C15.8809 2 18.6934 4.23748 19.6747 5.35623L18.7372 6.37497L18.6685 6.30621C16.3497 4.19373 15.2435 3.19374 11.8435 2.7875C9.09356 2.45624 6.2185 4.17499 5.12476 5.08122C5.47475 4.53123 8.14974 2 12.4435 2Z" fill="white"/>
<path d="M12.0251 21.9999C8.53128 21.9999 5.66879 19.7873 4.67505 18.6873L5.62504 17.6748C8.03128 19.8061 9.13759 20.8187 12.6376 21.2248C15.4313 21.5499 18.3875 19.8499 19.5 18.9561C19.1437 19.4999 16.3875 21.9999 12.0251 21.9999Z" fill="white"/>
<path d="M8.52495 12.1562L5.71247 7.4436L5.42498 8.1436L8.03746 12.1562L2 21.9998L8.52495 12.1562Z" fill="white"/>
<path d="M12.7311 9.0938L15.7499 6.375L12.1812 10.3749L10.7312 8.24998H8.60621L10.875 11.9499L2 22L9.62489 11.9499L6.67496 6.99999H11.3874L12.7374 9.0938H12.7311Z" fill="white"/>
<path d="M15.5374 12.4562L21.9999 2.625L15.8874 12.4562L18.6373 16.7312L18.4374 17.4937L15.5374 12.4562Z" fill="white"/>
<path d="M13.2562 12.5L22 2.625L14.4688 12.5L17.5187 17.625H12.8312L11.4938 15.5874L8.25 18.2499L11.925 14.0687L13.5312 16.3749H15.6624L13.2562 12.5Z" fill="white"/>
</svg>
