<svg xmlns="http://www.w3.org/2000/svg" width="24" height="24" fill="none" viewBox="0 0 24 24">
    <path fill="#fff" d="M2.092 21.273v.726h.731l2.358-2.544v-.727h-.732zM8.954 22l1.16-2.566v-.707H9.36l-1.161 2.566V22zm13.045-5.965v-.751l-2.47-1.326h-.71v.75l2.469 1.327zm0-7.319v-.751h-.711l-2.47 1.327v.75h.712zM8.199 2v.707L9.36 5.272h.755v-.707L8.955 2zm13.709.727V2h-.732L18.82 4.545v.727h.73zm-7.053 6.415h-.715v.715h.714zm-.969 9.586v.707l1.16 2.564h.756v-.707l-1.162-2.564zM15.8 2h-.754l-1.16 2.565v.707h.754l1.16-2.565zm6.108 20v-.727l-2.357-2.546h-.733v.728l2.358 2.544zM2.001 15.285v.75h.711l2.47-1.327v-.75H4.47zM2.092 2v.727l2.357 2.545h.732v-.727L2.823 2zm7.049 12.856h.714v-.714h-.714zm-7.14-6.891v.75l2.47 1.327h.71v-.75L2.712 7.965zm7.14 1.892h.714v-.715h-.714zm5.714 4.285h-.715v.714h.714z"/>
</svg>
