<svg xmlns="http://www.w3.org/2000/svg" width="24" height="24" fill="none" viewBox="0 0 24 24">
    <path fill="#fff" d="M10.57 15.037a4.4 4.4 0 0 0-1.105.035c.359.129.796.274 1.259.452zm-.316-1.013a4.5 4.5 0 0 0-1.19.071l-.004.007c.384.118.853.25 1.347.416zm-.306-.991q-.134-.007-.267-.008l-.202.349q.304.08.625.17zm2.351 3.497a3.8 3.8 0 0 0-.992-.377l.195.63q.251.121.498.26h1.028a4 4 0 0 0-.73-.513m-2.595-4.287-.057-.181a5 5 0 0 0-1.206.085l-.032.142c.342.071.73.146 1.131.242zM9.212 9.13c.512.09 1 .2 1.412.289q.17.31.337.625l.093-.163a18 18 0 0 0-.263-.452c.025-.686-.007-1.571-.05-2.471l-.341.49c.067.733.202 1.42.38 1.953a28 28 0 0 0-.427-.686c.004-.342-.007-.74-.028-1.163l-.22.31c.067.312.152.604.245.853l-.103-.164q-.119-.181-.242-.36l-.014-.163-.043.06.028.065-.035-.054-.071.104q.027.006.05.014l.206.341a3 3 0 0 0-.36-.213l-.17.242q.327.06.612.11.164.271.32.555a3.7 3.7 0 0 0-1.039-.516z"/>
    <path fill="#fff" d="M9.383 9.966c.505.1.992.22 1.433.334l.128-.224a4.3 4.3 0 0 0-1.757-.732zm.827 1.277a5 5 0 0 0-.458-.093l.196.623.017.003.303-.523a.2.2 0 0 1-.057-.01m-.967-.47-.18-.586a2 2 0 0 0-.16-.007l-.122.512c.153.024.31.053.462.081m.434-.501a5 5 0 0 0-.21-.04l.195.63q.373.08.73.182l.259-.448a4 4 0 0 0-.974-.324m-.154 1.405-.174-.562a5 5 0 0 0-.668.007l-.09.377c.3.05.616.107.932.178m-.931 1.477.512.128.135-.235a5 5 0 0 0-.647.107m1.184-5.47.15-.21c-.057-.427-.132-.896-.207-1.365-.128-.761-.26-1.53-.437-2.109-.04.683-.01 1.49.117 2.247.086.52.22 1.014.377 1.437m2.852 9.728c.17.106.338.22.498.33l.103-.33zM10.716 6.355a26 26 0 0 0-.178-2.052 11.7 11.7 0 0 0-.174 2.553zm1.21-1.714a9 9 0 0 0-.029-.338q-.06.263-.114.54zm-.64.905a20 20 0 0 0-.125-1.334c-.11.555-.188 1.185-.227 1.835zm-1.274 1.806.285-.401-.036-.576c-.06-.85-.124-1.71-.238-2.358a11 11 0 0 0-.011 3.335M8.733 9.287a5.2 5.2 0 0 0-2.287.345c.59.043 1.37.086 2.155.203zm5.07 6.283.74-2.379a45 45 0 0 0 .149-1.13l-.214-.37a19 19 0 0 0-.497 2.276 20 20 0 0 0-.178 1.603M7.726 5.404l.125.182c.085.12.174.249.266.377.185.256.388.526.598.786.316.401.643.785.95 1.102l.092-.132a7 7 0 0 0-1.461-1.966 4 4 0 0 0-.346-.292q-.084-.064-.174-.124-.041-.027-.089-.053c-.032-.018-.06-.036-.092-.047.025.022.046.054.067.082zm1.76 2.693.131-.185a3.2 3.2 0 0 0-1.205-.505 3.5 3.5 0 0 0-1.885.146c.47.05 1.117.117 1.75.248.423.082.839.192 1.209.296m-.296.419.228-.324a3.4 3.4 0 0 0-.878-.206 4.1 4.1 0 0 0-2.045.313c.52.018 1.227.029 1.924.11.263.025.523.064.771.107m2.877.356c.025 1.273.121 2.72.324 3.719a24 24 0 0 0-.505-1.124c.068-.707.1-1.571.114-2.482l-.42.74c.064.619.16 1.195.281 1.686q-.235-.491-.49-.964l.014.003q-.012-.012-.029-.025 0-.002-.003-.003l.017-.338-.092.16q.011.038.018.071-.017-.027-.029-.053l-.103.178q.175.345.345.697a4 4 0 0 0-.537-.367l-.217.38q.476.142.89.271.17.357.326.726l.018.039a4.2 4.2 0 0 0-1.362-.807l-.291.508c.643.181 1.262.405 1.785.597q.165.389.32.786a4.2 4.2 0 0 0-1.732-1.017 4 4 0 0 0-.512-.12l-.092.163.131.427.245.07c.754.225 1.48.534 2.08.783a23 23 0 0 1 .289.81 4.1 4.1 0 0 0-1.679-1.105 4.4 4.4 0 0 0-.821-.203l.188.605q.196.061.391.135c.42.146.829.32 1.213.494q.438.204.818.391.138.42.266.846a4.1 4.1 0 0 0-1.632-1.212 4 4 0 0 0-.931-.26l.185.601q.242.09.483.192c.41.167.807.36 1.18.559.285.152.555.302.8.44.011.043.026.086.036.128.054.185.1.374.15.562l.106-.345-.081-.327v-.003c.188-.86.355-1.974.497-3.097.064-.534.125-1.07.175-1.583l-.253-.44a19 19 0 0 0-.37 2.044 16 16 0 0 0-.11 2.862q-.135-.482-.284-.953c.16-.857.288-1.966.39-3.083.04-.447.08-.896.111-1.33l-.284-.497a18 18 0 0 0-.27 1.874 15.4 15.4 0 0 0-.011 2.83q-.1-.303-.207-.608l-.117-.316c.128-.857.22-1.956.292-3.07q.032-.582.06-1.155l-.313-.544a17 17 0 0 0-.199 1.764 15 15 0 0 0 .085 2.805q-.121-.313-.248-.622a56 56 0 0 0 .142-4.263v-.068l-.139-.242zm-1.209 7.615q.091.043.188.082l-.153-.494a4 4 0 0 0-1.052-.008c.295.121.643.26 1.017.42"/>
    <path fill="#fff" d="M11.968 15.417a4 4 0 0 0-.992-.32l.188.605a13 13 0 0 1 1.668.857q.29.177.55.345l.083-.267a4 4 0 0 0-1.497-1.22m.299-7.637V5.376c-.124.861-.195 1.81-.202 2.76zm-3.855 2.855.107-.455a5.2 5.2 0 0 0-1.494.28c.399.054.879.104 1.387.175m-.828.698q.295.049.644.103l.064-.267a5 5 0 0 0-.708.164m-.946-2.451c.562.036 1.322.064 2.076.174q.044.005.09.015l.305-.43a4.4 4.4 0 0 0-2.471.242m4.274-1.399c.025.793.11 1.561.245 2.226l.235-.405a61 61 0 0 0-.07-3.158l-.413.583c-.004.253-.004.501.003.754m.583.552c0 .348.01.697.032 1.035l.484-.843v-.306c0-.928-.011-1.867-.05-2.685l-.313.441a19 19 0 0 0-.153 2.358m-.185 9.376H7.775l.338.224 4 2.364zm4.647-7.519-.732 2.35 2.18 3.787zM12.662 7.78l2.311 4.021.804-2.581-3.115-4.417zm.956 9.632L12.815 20l4.38-2.588zm1.458-4.685-1.34 4.317h3.818z"/>
</svg>
