<svg xmlns="http://www.w3.org/2000/svg" width="24" height="24" fill="none" viewBox="0 0 24 24">
    <path fill="#fff" d="M5.531 16.373a8 8 0 0 0 2.522 2.202 8.4 8.4 0 0 0 3.237 1.017c-.587-.85-1.44-1.633-2.506-2.229s-2.195-.92-3.253-.99"/>
    <path fill="#fff" d="M10.216 14.991c-2.053-1.148-4.275-1.44-5.865-.924q.23.735.604 1.412c1.382-.03 2.89.33 4.293 1.115s2.477 1.867 3.134 3.038a8.5 8.5 0 0 0 1.575-.194c-.322-1.585-1.688-3.298-3.741-4.447M20 10.331a7.7 7.7 0 0 0-1.389-2.825 8 8 0 0 0-2.425-2.078 8.4 8.4 0 0 0-3.077-1 8.4 8.4 0 0 0-3.238.239c1.757.207 3.707.842 5.62 1.911 1.912 1.07 3.453 2.386 4.51 3.753m-2.557 3.747c-.9-1.438-2.44-2.814-4.338-3.875C11.21 9.14 9.203 8.535 7.462 8.495 5.93 8.46 4.78 8.89 4.308 9.671l-.01.014a8 8 0 0 0-.111.44c.659-.25 1.422-.39 2.271-.405 1.888-.034 4.001.547 5.951 1.638s3.523 2.57 4.427 4.165c.405.718.658 1.426.759 2.102q.174-.15.342-.312l.007-.015c.472-.783.29-1.957-.5-3.22"/>
    <path fill="#fff" d="M11.662 12.595C8.756 10.97 5.544 10.715 4 11.85q.005.534.084 1.06a6.6 6.6 0 0 1 1.396-.248c1.726-.125 3.629.337 5.355 1.303s3.088 2.329 3.83 3.832c.206.412.362.845.467 1.29q.516-.193 1-.454c.258-1.853-1.563-4.412-4.47-6.038m7.276-.922c-.91-1.436-2.463-2.816-4.375-3.885-1.91-1.068-3.924-1.683-5.67-1.733-1.332-.037-2.364.274-2.899.86 2.221-.361 5.15.247 7.99 1.835s4.84 3.736 5.613 5.772c.265-.738.034-1.754-.659-2.849"/>
</svg>
