<svg width="24" height="24" viewBox="0 0 24 24" fill="none" xmlns="http://www.w3.org/2000/svg">
<path d="M11.9999 3.87499C7.51248 3.87499 3.87499 7.51248 3.87499 11.9999C3.87499 16.4875 7.51248 20.1249 11.9999 20.1249C16.4875 20.1249 20.1249 16.4875 20.1249 11.9999C20.1249 11.0375 19.958 10.1149 19.6518 9.26062C19.5707 9.02723 19.5852 8.77131 19.6918 8.54846C19.7984 8.32563 19.9887 8.15387 20.2211 8.07054C20.4537 7.9872 20.7098 7.99901 20.9337 8.10343C21.1575 8.20783 21.3312 8.39638 21.4168 8.6281C21.795 9.6831 22 10.8187 22 11.9999C22 17.5231 17.5231 22 11.9999 22C6.47685 22 2 17.5231 2 11.9999C2 6.47685 6.47685 2 11.9999 2C13.0655 2 14.0937 2.16686 15.0594 2.47687C15.1766 2.5145 15.2853 2.57486 15.3792 2.6545C15.4731 2.73412 15.5504 2.83148 15.6067 2.941C15.663 3.05051 15.6971 3.17005 15.7073 3.29276C15.7174 3.41548 15.7032 3.53899 15.6656 3.65624C15.628 3.77349 15.5676 3.88218 15.488 3.97609C15.4084 4.07001 15.3109 4.14733 15.2014 4.20362C15.0919 4.25991 14.9725 4.29408 14.8497 4.30419C14.727 4.31429 14.6035 4.30012 14.4863 4.26248C13.6826 4.00488 12.8439 3.87414 11.9999 3.87499Z" fill="white"/>
<path d="M20.1247 5.75C20.1247 6.24728 19.9273 6.72418 19.5757 7.07581C19.2239 7.42744 18.7471 7.62499 18.2498 7.62499C17.7124 7.62499 17.1229 7.67062 16.7436 8.04999L16.1598 8.63373C15.5036 9.29005 15.4848 10.3287 15.6723 11.2369C15.8359 12.0241 15.742 12.8431 15.4047 13.573C15.0674 14.3029 14.5043 14.9049 13.7986 15.2905C13.0931 15.6761 12.2823 15.8245 11.4857 15.7141C10.6893 15.6037 9.94939 15.2402 9.37525 14.6773C8.80118 14.1143 8.42319 13.3817 8.29712 12.5876C8.17105 11.7934 8.30355 10.9798 8.67512 10.2668C9.04667 9.55372 9.6376 8.97896 10.3606 8.6273C11.0838 8.27564 11.9008 8.16571 12.6911 8.31373C13.5786 8.47874 14.5829 8.44311 15.2223 7.80436L15.9867 7.03937C16.3141 6.7125 16.3748 6.21312 16.3748 5.75C16.3748 5.25271 16.5724 4.77581 16.924 4.42418C17.2756 4.07255 17.7525 3.875 18.2498 3.875C18.7471 3.875 19.2239 4.07255 19.5757 4.42418C19.9273 4.77581 20.1247 5.25271 20.1247 5.75Z" fill="white"/>
</svg>
