<svg xmlns="http://www.w3.org/2000/svg" width="24" height="24" fill="none" viewBox="0 0 24 24">
    <path fill="#fff" d="M4.125 16.72V8.134c0-.151.174-.247.31-.168l1.94 1.147v6.21l5.344 3.14v2.34a.2.2 0 0 1-.304.168zm15.75 0V8.134c0-.151-.174-.247-.31-.168l-1.94 1.147v6.21l-5.344 3.14v2.34a.2.2 0 0 0 .304.168z"/>
    <path fill="#fff" d="M6.516 8.81 4.474 7.563a.096.096 0 0 1 0-.169L11.961 3l7.498 4.393c.068.04.068.13 0 .169l-2.11 1.254a.11.11 0 0 1-.112 0L14.42 7.13c-.068-.045-.169 0-.169.079v6.31c0 .035-.01.068-.04.085l-2.193 1.378a.11.11 0 0 1-.107 0l-2.126-1.378c-.034-.017-.034-.05-.034-.084V7.208c0-.08-.107-.124-.169-.085L6.623 8.811a.11.11 0 0 1-.113 0zm2.632 5.148-1.856 1.085a.19.19 0 0 0-.074.268.2.2 0 0 0 .074.07l1.856 1.108a.34.34 0 0 0 .326 0l1.772-1.114a.2.2 0 0 0 .092-.163.19.19 0 0 0-.092-.163L9.47 13.963a.31.31 0 0 0-.321-.005m5.36 0-1.856 1.085a.19.19 0 0 0-.1.17.19.19 0 0 0 .1.168l1.857 1.108a.34.34 0 0 0 .326 0l1.772-1.114a.19.19 0 0 0 .067-.257.2.2 0 0 0-.067-.069l-1.772-1.086a.31.31 0 0 0-.326-.005M10 16.618l1.856-1.085a.32.32 0 0 1 .315 0l1.772 1.091a.186.186 0 0 1 0 .326l-1.767 1.108a.31.31 0 0 1-.326.006l-1.856-1.108a.19.19 0 0 1-.074-.267.2.2 0 0 1 .074-.07z"/>
</svg>
