<svg xmlns="http://www.w3.org/2000/svg" width="24" height="24" fill="none" viewBox="0 0 24 24">
    <path fill="#fff" d="M7.6 8.52a.86.86 0 0 1 1.378 0l4.43 5.951a.853.853 0 0 1-.53 1.347.6.6 0 0 1-.308-.043l-2.424-.934a5.17 5.17 0 0 0-3.714 0l-2.424.934a.6.6 0 0 1-.309.043.853.853 0 0 1-.529-1.347z"/>
    <path fill="#fff" d="M7.6 8.52a.86.86 0 0 1 1.378 0l4.43 5.951a.853.853 0 0 1-.53 1.347.6.6 0 0 1-.308-.043l-2.424-.934a5.17 5.17 0 0 0-3.714 0l-2.424.934a.6.6 0 0 1-.309.043.853.853 0 0 1-.529-1.347z"/>
    <path fill="#fff" fill-rule="evenodd" d="m13.207 14.202.2.27a.853.853 0 0 1-.529 1.347.6.6 0 0 1-.308-.044l-2.424-.934a5.17 5.17 0 0 0-3.303-.138l-.029-.013c1.74-.657 5.412-1.678 6.261-.64q.07.084.132.152" clip-rule="evenodd"/>
    <path fill="#fff" d="M15.022 15.48a.86.86 0 0 0 1.378 0l4.43-5.952a.853.853 0 0 0-.529-1.347.6.6 0 0 0-.31.044l-2.423.933a5.17 5.17 0 0 1-3.714 0l-2.423-.933a.6.6 0 0 0-.309-.044.853.853 0 0 0-.53 1.347z"/>
    <path fill="#fff" fill-rule="evenodd" d="m20.63 9.798.2-.27a.853.853 0 0 0-.53-1.347.6.6 0 0 0-.309.044l-2.423.933a5.17 5.17 0 0 1-3.303.139l-.029.013c1.74.657 5.412 1.677 6.261.64q.07-.084.132-.152" clip-rule="evenodd"/>
</svg>
