<svg xmlns="http://www.w3.org/2000/svg" width="24" height="24" fill="none" viewBox="0 0 24 24">
    <path fill="#fff" d="m10.718 7.374.513-1.784.512 1.784-.512 1.293zM22 8.667h-2.108l-1.994 3.184-1.995-3.185h-2.108l3.046 4.872-3.046 4.872h2.108l1.995-3.184 1.994 3.184H22l-3.046-4.872zM9.18 7.128c.359.03 1.159.385 1.538 1.539-.236-.15-1.302-.246-1.538-1.539m4.102 0c-.359.03-1.159.385-1.538 1.539.236-.15 1.303-.246 1.538-1.539M4.051 8.667H2v9.743h6.667v-2.05H4.05zm5.41 3.266-.24-.743a.8.8 0 0 1 .087-.693c.24-.39.543-.887.723-1.195a.26.26 0 0 1 .308-.107c.384.123.769.184.892.2.118-.016.508-.077.887-.205.118-.036.256.01.308.112l.472.77-1.61.307 1.974.385a.8.8 0 0 1-.02.426l-1.006 3.097-1.297.257 1.143.215-.851 2.625-1.513-4.661 1.923-.37zm-.281 6.221 2.051-.256 2.051.256-2.051.256z"/>
</svg>
