<svg xmlns="http://www.w3.org/2000/svg" width="24" height="24" fill="none" viewBox="0 0 24 24">
    <path fill="#fff" d="M16.572 5.693 14 7.493l-.983-.75 3.51-2.618 3.172 2.152a2.94 2.94 0 0 1 .105 4.808l-1.23.915 1.05.742a3.052 3.052 0 0 1 0 4.98l-3.03 2.152-10.08-7.087-1.47 1.08a1.575 1.575 0 0 0-.09 2.527l2.55 2.07 2.557-1.83.945.72-3.524 2.52-3.51-2.655a2.556 2.556 0 0 1 .067-4.064l1.463-1.088-1.095-.765a2.978 2.978 0 0 1-.045-4.83l3.083-2.257 10.05 7.035 1.372-.975a1.927 1.927 0 0 0-.09-3.195L16.572 5.7zm-.023 6.224-9.202-6.39L4.73 7.702a1.484 1.484 0 0 0 .09 2.37l1.74 1.215 3.524-2.61.998.743L7.587 12l9.134 6.359 2.288-1.65a1.89 1.89 0 0 0-.015-3.074l-1.35-.938-3.675 2.745-1.072-.93 3.645-2.58z"/>
</svg>
