<svg xmlns="http://www.w3.org/2000/svg" width="24" height="24" fill="none" viewBox="0 0 24 24">
    <path fill="#fff" fill-rule="evenodd" d="M21 8.4v4.8H5.354c.684 3.135 3.406 5.4 6.646 5.4 2.679 0 5.079-1.874 6.188-4.2H21v4.74c0 1.027-.806 1.86-1.8 1.86H4.8c-.994 0-1.8-.833-1.8-1.86V8.4zm-4.5 6c-.954 1.442-2.682 2.4-4.5 2.4s-3.545-.958-4.5-2.4zM8.062 9.6c-1.41 0-2.618.998-2.812 2.4h1.663c.168-.54.571-.99 1.15-.99.578 0 .956.45 1.124.99h1.688c-.194-1.402-1.402-2.4-2.813-2.4m7.875 0c-1.41 0-2.618.998-2.812 2.4h1.688c.168-.54.546-.99 1.124-.99.58 0 .957.45 1.126.99h1.687c-.194-1.402-1.402-2.4-2.813-2.4M19.2 3c.994 0 1.8.833 1.8 1.86V6.6H3V4.86C3 3.833 3.806 3 4.8 3z" clip-rule="evenodd"/>
</svg>
