<svg xmlns="http://www.w3.org/2000/svg" width="24" height="24" fill="none" viewBox="0 0 24 24">
    <path fill="#fff" d="M7.415 8.912a1.13 1.13 0 0 1 1.133 0l2.589 1.546 1.758 1.006 2.594 1.545c.328.201.762.201 1.127 0l2.06-1.207c.333-.2.736-.571.736-.974V8.446c0-.402-.371-.773-.741-.974l-2.023-1.176a1.13 1.13 0 0 0-1.127 0l-2.028 1.176c-.328.2-.434.572-.434.974v1.54L11.47 8.95V7.398c0-.403-.106-.773.264-.974L15.49 4.21a1.13 1.13 0 0 1 1.127 0l3.817 2.213a1.09 1.09 0 0 1 .567.979v4.468a1.1 1.1 0 0 1-.567.974l-3.817 2.213a1.13 1.13 0 0 1-1.127 0l-2.594-1.509-1.758-1.042-2.594-1.51a1.13 1.13 0 0 0-1.128 0l-2.022 1.176c-.334.201-.805.572-.805.974v2.382c0 .403.44.773.805.974l2.022 1.207c.334.202.768.202 1.133 0l2.022-1.175c.334-.201.9-.572.9-.974v-1.54l1.589 1.037v1.546c0 .402-.36.773-.725.974l-3.828 2.208c-.328.206-.763.206-1.128 0l-3.817-2.213A1.17 1.17 0 0 1 3 16.604v-4.468c0-.402.201-.773.566-.974z"/>
</svg>
