<svg xmlns="http://www.w3.org/2000/svg" width="24" height="24" fill="none" viewBox="0 0 24 24">
    <path fill="#fff" fill-rule="evenodd" d="M13.052 18.558a3.57 3.57 0 0 1-4.995-.068l-5.064-5.164a3.505 3.505 0 0 1 .069-4.958 3.57 3.57 0 0 1 5 .069l5.063 5.163a3.476 3.476 0 0 1-.068 4.958zm-7.895-7.084a1.052 1.052 0 1 0 0-2.105 1.052 1.052 0 0 0 0 2.105m7.658 4.573a1.904 1.904 0 0 1-1.911 1.895 1.904 1.904 0 0 1-1.91-1.895c0-1.047.857-1.894 1.91-1.894s1.91.847 1.91 1.894" clip-rule="evenodd"/>
    <path fill="#fff" fill-rule="evenodd" d="M8.441 18.837a4.227 4.227 0 0 1-.384-5.995l6.458-7.3a4.306 4.306 0 0 1 6.037-.379 4.23 4.23 0 0 1 .379 5.995l-6.453 7.3a4.305 4.305 0 0 1-6.037.38m2.463-.895c1.053 0 1.91-.847 1.91-1.894a1.904 1.904 0 0 0-1.91-1.895c-1.052 0-1.91.847-1.91 1.895 0 1.047.858 1.894 1.91 1.894m8.99-9.368a2.369 2.369 0 1 1-4.737 0 2.369 2.369 0 0 1 4.737 0" clip-rule="evenodd"/>
</svg>
