<svg xmlns="http://www.w3.org/2000/svg" width="24" height="24" fill="none" viewBox="0 0 24 24">
    <path fill="#fff" fill-rule="evenodd" d="M13.7 12c0 3.314-2.619 6-5.85 6S2 15.314 2 12s2.62-6 5.85-6c3.231 0 5.85 2.686 5.85 6m-3.3 0c0 1.445-1.142 2.615-2.55 2.615-1.409 0-2.55-1.17-2.55-2.615 0-1.444 1.141-2.615 2.55-2.615S10.4 10.556 10.4 12" clip-rule="evenodd"/>
    <path fill="#fff" fill-rule="evenodd" d="M22 12c0 3.314-2.62 6-5.85 6-3.231 0-5.85-2.686-5.85-6s2.619-6 5.85-6S22 8.686 22 12m-3.3 0c0 1.445-1.142 2.615-2.55 2.615-1.409 0-2.55-1.17-2.55-2.615 0-1.444 1.141-2.615 2.55-2.615S18.7 10.556 18.7 12" clip-rule="evenodd"/>
    <path fill="#fff" d="M10.29 11.96c0-2.15 1.125-3.695 1.71-4.2a5.82 5.82 0 0 1 1.73 4.2A6.42 6.42 0 0 1 12 16.24a6.1 6.1 0 0 1-1.71-4.28"/>
</svg>
