<svg xmlns="http://www.w3.org/2000/svg" width="24" height="24" fill="none" viewBox="0 0 24 24">
    <path fill="#fff" fill-rule="evenodd" d="m3.834 5.905 5.84-2.455c.854-.34 2.93-.815 4.405 0 1.474.817 1.44 1.732 1.24 2.088l5.171 1.148-2.12 1.13-4.536-1.13-1.615.637 3.393 1.865-2.79 1.514zm5.255-.296 2.008-.827c.251-.091.828-.219 1.125 0 .371.271.162.612-.174.827-.269.172-1.079.54-1.45.703z" clip-rule="evenodd"/>
    <path fill="#fff" d="M3.272 6.852v9.305l2.182 1.122v-5.51l1.553 3.614 2.265-1.998v5.926L12.545 21v-9.456l-3.07-1.442-2.077 1.589-1.942-3.695zm17.456.818-7.637 3.78v2.271l2.728-1.317v4.753l-2.728 1.336v2.252l7.637-4.027v-2.233l-2.182 1.278V11.01l2.182-1.145z"/>
</svg>
