<svg xmlns="http://www.w3.org/2000/svg" width="24" height="24" fill="none" viewBox="0 0 24 24">
    <path fill="#fff" d="M12 4.588c4.96 0 9 1.662 9 3.706 0 1.927-3.399 3.515-7.941 3.706v-.636c.042-1.778.323-1.747 1.8-2.498.842-.276 1.376-.689 1.376-1.165 0-.831-1.773-1.509-3.97-1.509s-3.97.678-3.97 1.52c0 .338.28.645.772.9 1.53.878 2.404.645 2.404 2.805V12C6.674 11.925 3 10.295 3 8.294c0-2.044 4.024-3.706 9-3.706"/>
    <path fill="#fff" d="M20.54 10.941c.296.35.46.726.46 1.107 0 1.117-1.101 1.943-3.177 2.6v-1.536c0-.424.059-.402.461-.561a5.6 5.6 0 0 0 2.255-1.61m-4.305 4.236c-1.276.28-2.684.529-4.24.529-4.96 0-8.995-1.7-8.995-3.648 0-.391.159-.767.46-1.1 1.144 1.355 4.199 2.35 8.01 2.419v.476c0 .35.265.794.747.794s.842-.46.842-.794v-.492a18 18 0 0 0 2.827-.302c.196 0 .35.17.35.36z"/>
    <path fill="#fff" d="M20.497 14.648c.323.37.503.778.503 1.19 0 1.97-4.024 3.574-9 3.574-4.96 0-9-1.604-9-3.573 0-.413.201-.821.53-1.191 1.233 1.392 4.536 2.117 8.454 2.117 1.562 0 3.193 0 4.251-.175v.456c0 .354.276.778.805.778.53 0 .784-.456.784-.794v-.794c1.334-.413 2.107-.953 2.673-1.588"/>
</svg>
