<svg xmlns="http://www.w3.org/2000/svg" width="24" height="24" fill="none" viewBox="0 0 24 24">
    <path fill="#fff" d="m3.365 4.263 6.978 3.91-1.643.922c-.123.068-.28.028-.345 0L5.163 7.294c-.275-.12-.476.073-.476.185v9.175c0 .285.381.219.506.15 3.264-1.85 9.842-5.57 10.043-5.662s.366-.038.424 0l1.244.71c.21.208.054.382-.05.443L3.507 19.776c-.445.251-.523-.035-.506-.21V4.399c.015-.254.248-.197.363-.136"/>
    <path fill="#fff" d="m20.634 19.737-6.977-3.91 1.643-.922c.123-.067.28-.028.345 0l3.192 1.801c.275.12.476-.073.476-.185V7.346c0-.285-.381-.219-.506-.15-3.264 1.849-9.842 5.57-10.043 5.662s-.367.038-.425 0l-1.243-.71c-.21-.208-.054-.382.05-.443l13.345-7.481c.445-.251.524.035.507.21v15.168c-.015.253-.248.195-.364.135"/>
</svg>
