<svg xmlns="http://www.w3.org/2000/svg" width="24" height="24" fill="none" viewBox="0 0 24 24">
    <path fill="#fff" d="M11.991 16.98c3.673 0 6.651-2.69 6.651-6.01s-2.978-6.012-6.651-6.012S5.34 7.65 5.34 10.97s2.978 6.01 6.651 6.01"/>
    <path fill="#fff" d="M15.666 4.057a7 7 0 0 0-.8-.435v13.087c.275-.125.545-.275.8-.435zm.835 11.602q.436-.376.805-.82V5.487a8 8 0 0 0-.805-.815zM9.945 3.307c.26-.08.53-.145.8-.2v14.112c-.27-.05-.54-.115-.8-.2zM12 17.339c-.14 0-.28 0-.42-.015V3.012q.405-.024.81 0v14.312l-.39.01zm1.22-.11c.275-.05.55-.115.81-.2V3.307a7 7 0 0 0-.81-.2zM6.664 5.527c.25-.295.515-.57.805-.825V15.64c-.29-.25-.56-.53-.805-.825V5.522zm2.45 11.177a7 7 0 0 1-.81-.445V4.077q.385-.249.806-.445v13.067zm9.027-3.085c.55-1.025.86-2.2.86-3.451s-.31-2.42-.86-3.446zM5 10.163c0-1.225.3-2.38.83-3.39v6.786A7.3 7.3 0 0 1 5 10.163"/>
    <path fill="#fff" d="M9.11 7.313c.27-.13.55-.235.84-.325V20.7q-.435-.136-.84-.325zM11.587 21c-.285-.02-.56-.05-.835-.1V6.783c.275-.05.55-.085.835-.1zm.8 0a7 7 0 0 0 .84-.1V6.783c-.275-.05-.55-.08-.835-.1V21zm3.286-1.05c.29-.185.57-.395.835-.62V8.358a7 7 0 0 0-.835-.62zm-.8.435V7.298a7 7 0 0 0-.84-.325V20.7c.284-.09.565-.2.835-.32zm-9.047-9.937q.354-.674.835-1.25v9.287c-.32-.38-.6-.8-.835-1.25zm2.476-2.7c-.295.19-.57.4-.836.625V19.31c.266.23.54.435.836.625zm9.851 9.536c-.24.445-.52.86-.84 1.236V9.168q.48.579.84 1.24z"/>
</svg>
