<svg xmlns="http://www.w3.org/2000/svg" width="24" height="24" fill="none" viewBox="0 0 24 24">
    <path fill="#fff" d="m12.984 13-.44 1.117h-1.112l-.412-1.138.794-1.747h.116l-.021 1.641a.317.317 0 1 0 .18 0l.021-1.641h.117z"/>
    <path fill="#fff" d="M14.748 15.003h-5.49l-.032-.148c-.016-.08-.37-1.933.418-2.68q.445-.395.953-.687c.424-.265.757-.477.757-.726v-.148c0-.249-.333-.455-.757-.72q-.511-.3-.953-.693c-.794-.742-.434-2.6-.418-2.68l.032-.147h5.49l.026.148c.016.08.37 1.932-.413 2.679-.296.264-.62.492-.958.693-.424.265-.757.477-.757.72v.148c0 .25.333.456.757.72.339.202.662.434.953.694.794.746.434 2.6.423 2.679zm-5.11-.355h4.729c.09-.582.158-1.773-.345-2.25a6 6 0 0 0-.894-.646c-.493-.307-.921-.577-.921-.99v-.148c0-.413.423-.678.92-.99a5.7 5.7 0 0 0 .895-.646c.503-.476.434-1.694.345-2.27H9.639c-.09.581-.159 1.8.344 2.27q.413.367.89.646c.497.307.92.577.92.99v.148c0 .413-.423.678-.92.99q-.477.283-.89.646c-.503.477-.434 1.673-.344 2.25m5.538-9.001H8.824v.53h6.353zm0 9.529H8.824v.53h6.353z"/>
    <path fill="#fff" d="m10.862 7.765-.46-.73.121-.085.159.264.026-.074a.2.2 0 0 1 .059-.053l.08-.031c.02 0 .041 0 .063.01a.1.1 0 0 1 .042.032l.053.085.127.196.042.074.01.053a.14.14 0 0 1-.079.116.16.16 0 0 1-.079.032.3.3 0 0 1-.069-.01l.027.052-.122.074zm.021-.514a.1.1 0 0 0-.042-.037.06.06 0 0 0-.058.011.07.07 0 0 0-.037.074c0 .005 0 .016.01.021l.127.212a.07.07 0 0 0 .074.032l.032-.01a.06.06 0 0 0 .032-.054.1.1 0 0 0-.016-.053zm.603.376a.3.3 0 0 1 .026-.063.2.2 0 0 1 .043-.048.2.2 0 0 1 .095-.032.24.24 0 0 1 .122.016.3.3 0 0 1 .095.064.24.24 0 0 1 .048.09.2.2 0 0 1 0 .058l-.021.069-.075.196a.4.4 0 0 1-.026.063.14.14 0 0 1-.042.043.2.2 0 0 1-.09.037.3.3 0 0 1-.122-.021.3.3 0 0 1-.095-.064.2.2 0 0 1-.048-.09.2.2 0 0 1 0-.053l.02-.074zm.053.26a.07.07 0 0 0 0 .053q.015.029.047.037a.05.05 0 0 0 .053 0 .07.07 0 0 0 .037-.043l.085-.227a.07.07 0 0 0 0-.053.08.08 0 0 0-.042-.037.1.1 0 0 0-.053 0 .07.07 0 0 0-.037.042l-.085.228zm.022.91a.4.4 0 0 1-.053-.048.2.2 0 0 1-.037-.053.2.2 0 0 1-.005-.095.3.3 0 0 1 .137-.19.2.2 0 0 1 .096-.022c.02 0 .042 0 .058.011l.063.037.16.122.052.047.037.053a.2.2 0 0 1 .006.096.3.3 0 0 1-.048.106.25.25 0 0 1-.09.079.2.2 0 0 1-.095.021.2.2 0 0 1-.059-.01l-.058-.038zm.265.016a.07.07 0 0 0 .053.016.08.08 0 0 0 .047-.032.08.08 0 0 0 .016-.053.07.07 0 0 0-.031-.053l-.196-.138a.07.07 0 0 0-.053-.015.1.1 0 0 0-.043.031.07.07 0 0 0-.021.053.07.07 0 0 0 .037.048zm-.154 1.15.291-.82.138.052-.175.487.26-.196.137.053-.249.18.074.413L12 10.08l-.032-.302-.095.07-.063.158zm-3.008 8.39v-2.118h.609c.116 0 .233.011.344.043a.7.7 0 0 1 .228.122.45.45 0 0 1 .132.17.5.5 0 0 1 .037.2v.074a.5.5 0 0 1-.021.149.3.3 0 0 1-.053.106.7.7 0 0 1-.212.142.37.37 0 0 1 .212.149c.053.08.08.174.074.264v.122a.53.53 0 0 1-.185.429c-.127.1-.323.148-.598.148zm.413-1.832v.583h.19c.1.01.201-.018.281-.08a.3.3 0 0 0 .074-.217.27.27 0 0 0-.08-.211.44.44 0 0 0-.29-.075zm0 .848v.677h.18a.6.6 0 0 0 .196-.026.23.23 0 0 0 .106-.075.2.2 0 0 0 .047-.11 1 1 0 0 0 0-.287.2.2 0 0 0-.052-.1.24.24 0 0 0-.112-.058.7.7 0 0 0-.185-.021zm1.302-.625a.43.43 0 0 1 .064-.223.5.5 0 0 1 .164-.158.8.8 0 0 1 .222-.096.98.98 0 0 1 .736.096q.097.061.159.159a.43.43 0 0 1 .063.222v1.101c0 .08-.02.159-.063.222a.5.5 0 0 1-.159.16 1 1 0 0 1-.73.094.7.7 0 0 1-.228-.095.5.5 0 0 1-.159-.153.4.4 0 0 1-.063-.223v-1.106zm.424 1.101c0 .032 0 .064.016.09a.2.2 0 0 0 .069.069.4.4 0 0 0 .397 0 .17.17 0 0 0 .08-.159v-1.101c0-.032 0-.058-.017-.09a.2.2 0 0 0-.063-.069.4.4 0 0 0-.397 0 .2.2 0 0 0-.07.069.2.2 0 0 0-.015.09zm1.276-1.101a.43.43 0 0 1 .063-.223.5.5 0 0 1 .16-.158.98.98 0 0 1 .952 0 .5.5 0 0 1 .164.159.43.43 0 0 1 .064.222v1.101a.36.36 0 0 1-.064.222.5.5 0 0 1-.159.16 1 1 0 0 1-.73.094.7.7 0 0 1-.223-.095.5.5 0 0 1-.164-.159.4.4 0 0 1-.063-.222zm.423 1.101a.13.13 0 0 0 .016.09.2.2 0 0 0 .064.069.4.4 0 0 0 .397 0 .16.16 0 0 0 .063-.069.16.16 0 0 0 .016-.09v-1.101a.16.16 0 0 0-.016-.09.2.2 0 0 0-.063-.069.4.4 0 0 0-.397 0 .2.2 0 0 0-.064.069.16.16 0 0 0-.021.09v1.101zm2.626-.974a.9.9 0 0 0-.381-.117l.344-.503c.085-.127-.042-.27-.238-.27l-.524.816v-.562c-.233 0-.424.133-.424.302v1.8c.239 0 .424-.132.424-.296v-.82c0-.032.01-.064.02-.09a.2.2 0 0 1 .065-.07.5.5 0 0 1 .486 0 .3.3 0 0 1 .075.085.2.2 0 0 1 .016.106v.847c0 .133.158.244.344.244v-1.09a.4.4 0 0 0-.048-.213.45.45 0 0 0-.159-.17"/>
    <path fill="#fff" d="M12 21a9 9 0 1 1 0-18 9 9 0 0 1 0 18m0-17.799A8.799 8.799 0 1 0 12 20.8a8.799 8.799 0 0 0 0-17.6"/>
</svg>
