<svg xmlns="http://www.w3.org/2000/svg" width="24" height="24" fill="none" viewBox="0 0 24 24">
    <path fill="#fff" d="M17 4.513c-.044 3.987-3.338 5-5 4.987l.006 4.294H22V4.5z"/>
    <path fill="#fff" d="M17.325 19.5H12v-5h5v-10h.444A4.544 4.544 0 0 1 22 8.981v5.794a4.77 4.77 0 0 1-4.675 4.725"/>
    <path fill="#fff" d="M7 14.5h10c-4.05 0-4.994 3.169-5 4.875-.063-3.838-3.132-4.837-4.813-4.875zm5.025-5.238v.563H6.863V4.537H7.3a4.725 4.725 0 0 1 4.725 4.725"/>
    <path fill="#fff" d="M2.119 19.5H2V9a4.5 4.5 0 0 1 4.5-4.5H7c0 3.875 3.031 4.981 4.5 5h.881A4.54 4.54 0 0 1 17 14.025v.475H7v.012A4.906 4.906 0 0 1 2.119 19.5"/>
</svg>
