<svg xmlns="http://www.w3.org/2000/svg" width="24" height="24" fill="none" viewBox="0 0 24 24">
    <path fill="#fff" fill-rule="evenodd" d="M20.892 8.622v6.75h-.005a.74.74 0 0 1-.328.623l-8.112 5.856c-.261.211-.672.194-.928-.028L3.44 15.99a.74.74 0 0 1-.333-.611v-6.75a.75.75 0 0 1 .328-.617l8.084-5.834a.734.734 0 0 1 .928-.022l8.15 5.872a.73.73 0 0 1 .295.595m-9.64-4.957c-.161-.016-.317.084-.361.173v.672h.555v-.289h1.111v.445l.056.11h.5v-.938a1 1 0 0 1-.085-.062.8.8 0 0 0-.17-.11zm-.917.556H9.78v1.667h.555zm4.445.556h-1.111v.55l1.111.005zm-3.022.227h-.512c.178.295.356.59.545.884.155 0 .311 0 .466-.011a4 4 0 0 0-.316-.57q-.094-.15-.184-.303m1.355.606h-.556v2.5h.556V6.443l.934 1.49h.177v-.578zM9.78 12h-.556v2.222h.556v-1.406l.933 1.25h.178v-.527zm5.556-6.112h-.556v.555h.556V7h2.222v-.556h-2.222zm-6.668 0H7.43v.555h.456L7 7.2l.345.356 1.322-1.112zm2.778 0h-.555v.555h.555zm-2.197.889-.253-.334v.006q0 .103-.004.205c-.005.154-.01.308.01.462.147.209.305.412.463.614q.148.19.292.38l.241-.307c.184-.231.366-.46.532-.704.016-.162.014-.324.012-.489l-.001-.167q-.239.3-.468.6l-.31.4c-.178-.222-.346-.444-.514-.666m-1.97 8.45-.833-1v.673l.833.989.834-1.006v-.661zm9.446 2.223-.834-1v.672l.834.99.833-1.006v-.662h.556v-.555h-.556v.556zM12.002 7h-.556v1.666h-.555V8.11h-.556v.912q.047.063.106.121l.072.079q.282-.004.564-.001.376.002.747-.005l.178-.2zm6.667.555h-.555v1.11h.555zm-1.666.555H15.89l-.555 1.667h.555l.406-1.111h.294l.412 1.111h.555zm-8.335 4.445-.555-1.667H7l-.555 1.667H7l.4-1.111h.295l.417 1.111zm6.668 5-.556-1.666h-1.117l-.555 1.667h.555l.406-1.111h.294l.417 1.11zM6.446 8.11H4.779v.556h1.667zm3.89 10.001H8.667v.556h1.667zm0 0v-.555h1.81c.24 0 .406.166.411.344v1.111l-.233.212h-.878v-.556h.556v-.556zm-2.223-5H6.446v.555h1.667zm8.334-.556H14.78v.556h1.667zM7.557 8.11h-.556v.556h.556zm1.667 0h-.556v1.112h.556zM11.446 12h-.555v1.11h.555zm.556 8.334h-.556v1.11h.556zm7.467-12.001h-.566l.522.889h.6zm-6.356 8.445-.556-.89h-.56l.522.89zm-2.767 2.667H9.78l.522.889h.589zm3.323-10.78h-.556v1.112h.556zm.555 0v.557h.556v-.556zm-7.014.736c-.258.163-.516.326-.764.504.244.174.499.333.753.493l.38.24h.778l-1.156-.727q.276-.188.557-.362c.2-.127.4-.253.594-.389l-.756-.005q-.192.124-.386.246m11.46-.18h-.556v.556h.555zm-12.78.556v-.555H3.668v.555h1.344l-.41.234.288.322zm5.556 0H9.78v.556h1.666zm1.111 0h-.555v.556h.555zm1.345.556c-.1 0-.233.155-.233.294h.005v1.078c0 .139.112.295.223.295h1.994v-.556h-1.667v-.556h.556v-.555zm-10 3.333c-.106 0-.234.156-.234.3h.005v1.073c0 .139.111.294.223.294H5.89v-.555H4.223v-.556h.556v-.556zm12.545-3.333h-.556v.555h.556zm2.778 0h-1.667v.555h1.667zm-9.445.555H8.668v.556H9.78zM7 16.445H5.89V17H7zm5.701-5.557H10.89v.556h1.666V12h-.555v.555h.878l.233-.211v-1.111c-.005-.178-.172-.345-.41-.345m7.356.556h-1.716l-.228.2v.911h.555V12h1.112v1.666h.555V11.8c.033-.155-.139-.283-.278-.355m-3.895 2.222h-1.705l-.234.2v.912h.556v-.556h1.111v1.667h.55v-1.867c.034-.156-.133-.283-.277-.356M5.89 11.444h-.555v1.667h.555zm5.556 3.89h-.555V17h.555zm6.112-2.779h-.555v1.667h.555zM4.78 11.444h-.556V12h.556zm4.445 3.334h-.556v.555h.556zm-1.111 2.778h-.556v.555h.556zm5 2.222h-.556v.556h.556zm1.111-7.223h-.555v.556h.555zm-1.11.556h-.557v.555h.25l-1.36 1.09v.577h2.222v-.578h-1.384l.867-.683-.344-.406h.305zm-3.64 2.3-1.361 1.034V17h2.222v-.555H8.952l.866-.645zm9.445-1.745-1.36 1.09v.577h2.222v-.578h-1.39l.873-.683zm-3.589 4.317s-.505-.288-.694-.15l-1.523.834v.555h1.667v-.555h-.711c.411-.256 1.261-.628 1.261-.628z" clip-rule="evenodd"/>
</svg>
