<svg xmlns="http://www.w3.org/2000/svg" width="24" height="24" fill="none" viewBox="0 0 24 24">
    <path fill="#fff" fill-rule="evenodd" d="M22 12 12 2 2 12l10 10zM9.222 16.444h-1.11v-3.889H5.888v-1.11H8.11v-3.89h1.111l5.556 6.978V7.555h1.11v3.89h2.223v1.11h-2.22v3.89h-1.111l-5.556-6.94v6.94" clip-rule="evenodd"/>
    <path fill="#fff" d="M9.222 16.444h-1.11v-3.889H5.888v-1.111H8.11v-.993a5 5 0 0 0-.994-.118C4.617 10.333 2 12 2 12l10 10 9.972-9.967c-.333.19-2.272 1.078-5.16 1.078q-.453-.001-.923-.07v3.403h-1.111l-4.12-5.145a27 27 0 0 0-1.436-.537z"/>
    <path fill="#fff" d="m12.923 12.204 1.855 2.33v-1.722a19 19 0 0 1-1.855-.608"/>
</svg>
