<svg xmlns="http://www.w3.org/2000/svg" width="24" height="24" fill="none" viewBox="0 0 24 24">
    <path fill="#fff" fill-rule="evenodd" d="M6.89 7.383c.755.8 2.28 2.417 2.304 2.457l-.275.343-3.028-1.371-2.79-.149a.646.646 0 0 1-.473-1.034l2.051-2.726a.636.636 0 0 1 1.086.114zm-1.245.709q-.93-.097-1.857-.229a.22.22 0 0 1-.149-.091.28.28 0 0 1 .006-.326l.977-1.28a.474.474 0 0 1 .811.074l.623 1.229a.45.45 0 0 1 0 .383.42.42 0 0 1-.417.24zM4.233 7.52l1.075.126a.24.24 0 0 0 .24-.137.25.25 0 0 0 0-.229l-.366-.708a.274.274 0 0 0-.463-.04l-.571.743a.16.16 0 0 0 0 .188c.017.029.051.046.085.057" clip-rule="evenodd"/>
    <path fill="#fff" d="M3.782 14.744c.097-.115.383-.475.583-.743a.211.211 0 0 0-.148-.343L3.53 13.6a.24.24 0 0 0-.24.331l.28.755a.14.14 0 0 0 .131.091c.035 0 .057-.017.08-.04z"/>
    <path fill="#fff" fill-rule="evenodd" d="M4.896 12.71c.932-.195 3.772-1.087 3.818-1.087l.12.36-3.355 2.115-1.377 2a.549.549 0 0 1-.972-.114l-1.04-2.766a.554.554 0 0 1 .578-.755zm-.057 1.245c-.343.463-.84 1.08-1.006 1.274a.18.18 0 0 1-.137.069.235.235 0 0 1-.228-.155l-.486-1.314a.418.418 0 0 1 .423-.56l1.177.097a.366.366 0 0 1 .263.589z" clip-rule="evenodd"/>
    <path fill="#fff" d="M19.566 11.818c-.12.04-.486.171-.75.274a.183.183 0 0 0-.04.314l.464.343c.12.097.297.029.326-.12l.13-.674a.115.115 0 0 0-.056-.126.1.1 0 0 0-.075-.011"/>
    <path fill="#fff" fill-rule="evenodd" d="M17.862 12.784c-.754-.275-5.526-1.32-5.554-1.343l.068-.315 5.68.389 1.875-.823a.469.469 0 0 1 .646.526l-.458 2.463a.467.467 0 0 1-.754.285zm.589-.875 1.291-.468a.15.15 0 0 1 .126.017.21.21 0 0 1 .103.217l-.229 1.16a.35.35 0 0 1-.554.217l-.806-.6a.313.313 0 0 1-.061-.443.3.3 0 0 1 .13-.1m-5.902-3.571c.11-.124.192-.27.24-.429a.7.7 0 0 0 .017-.149V6.017c0-.222.08-.434.24-.588l.6-.434c.137-.132.309-.126.497-.126h1.315c.154-.006.302-.012.422.091l.658.566a.8.8 0 0 1 .274.6v1.617a.8.8 0 0 1-.069.326c-.08.189-.257.309-.434.417l-.166.114a1.2 1.2 0 0 1-.36.212.9.9 0 0 1-.325.046h-1.206c-.137 0-.275.005-.4.074l-2.012 1.257-.388-.434zm.829-2.223c0-.378.308-.686.685-.686h1.486c.377 0 .686.308.686.686V7.6a.69.69 0 0 1-.686.686h-1.486a.686.686 0 0 1-.686-.686zm2.285.743a.857.857 0 1 1-1.715 0 .857.857 0 0 1 1.715 0m-7.715 8.788c-.097.16-.195.332-.183.515l.006.04.205 1.377a.67.67 0 0 1-.131.497l-.309.4a.64.64 0 0 1-.411.24l-1.154.171a.63.63 0 0 1-.423-.085l-.589-.372a.63.63 0 0 1-.286-.445l-.188-1.28a.65.65 0 0 1 .125-.486l.355-.475a.63.63 0 0 1 .434-.251l.972-.114c.022 0 .045 0 .074-.012.16-.04.28-.16.394-.28l2.709-2.783.246.194-1.852 3.15zm-.572 1.886a.514.514 0 0 1-.434.583l-1.086.166a.514.514 0 0 1-.577-.44l-.166-1.103a.514.514 0 0 1 .435-.589l1.085-.16a.514.514 0 0 1 .578.434l.165 1.103zm-1.771-.303a.65.65 0 0 1 .543-.743.656.656 0 0 1 .188 1.297.65.65 0 0 1-.731-.554M9.919 6.875a1.43 1.43 0 1 0-.857.268l.834 2.229.446-.057zm-.829-.303a.857.857 0 1 0 0-1.715.857.857 0 0 0 0 1.715m.572-.857a.571.571 0 1 1-1.143 0 .571.571 0 0 1 1.143 0m.446 8.377a1.56 1.56 0 0 0-1.028 1.48 1.583 1.583 0 0 0 2.182 1.452 1.56 1.56 0 0 0 .96-1.452 1.58 1.58 0 0 0-1.256-1.543l-.15-1.434-.445-.063zm.543.48c-.554 0-1 .451-.994 1 0 .554.457 1 1.006 1 .554 0 1-.446.994-1 0-.549-.457-1-1.006-1m-.594.994a.571.571 0 1 1 1.142 0 .571.571 0 0 1-1.142 0" clip-rule="evenodd"/>
    <path fill="#fff" d="M12.234 3.429a.56.56 0 0 1-.56.571.58.58 0 0 1-.577-.571.568.568 0 1 1 1.137 0"/>
    <path fill="#fff" fill-rule="evenodd" d="M12.108 4.794a1.42 1.42 0 0 0 .994-1.365 1.44 1.44 0 0 0-1.985-1.32 1.42 1.42 0 0 0-.872 1.32c0 .611.395 1.131.937 1.337l-.663 4.806.435.12 1.165-4.898zm-.434-.508a.856.856 0 0 0 .857-.857.873.873 0 0 0-.869-.858.85.85 0 0 0-.851.858c0 .474.394.857.863.857" clip-rule="evenodd"/>
    <path fill="#fff" d="M20.235 16.853a.573.573 0 0 1 0-1.149.59.59 0 0 1 .571.583.565.565 0 0 1-.572.566"/>
    <path fill="#fff" fill-rule="evenodd" d="M18.52 16.246a1.74 1.74 0 0 0 1.714 1.738 1.69 1.69 0 0 0 1.714-1.698 1.737 1.737 0 0 0-1.714-1.731 1.7 1.7 0 0 0-1.166.44l-6.943-3.509-.274.457 6.686 4.103-.017.206zm.571.018c0 .628.514 1.142 1.143 1.154a1.133 1.133 0 0 0 1.143-1.132 1.16 1.16 0 0 0-1.143-1.154 1.13 1.13 0 0 0-1.143 1.132" clip-rule="evenodd"/>
    <path fill="#fff" d="M14.64 17.864c-.011.051-.302.68-.577 1.257a1.14 1.14 0 0 0 .155 1.229l1.05 1.257c.247.286.63.434 1.007.383l1.257-.172c.372-.051.686-.28.857-.611l.709-1.429a1.14 1.14 0 0 0-.114-1.205l-.972-1.24a1.12 1.12 0 0 0-1.006-.43l-1.011.12-4.372-4.942-.171.285zm3.56 1.543a1.617 1.617 0 0 1-1.605 1.629 1.62 1.62 0 0 1-1.612-1.623 1.617 1.617 0 0 1 1.612-1.63 1.616 1.616 0 0 1 1.606 1.63zm-.8 0a.81.81 0 0 1-.805.817.81.81 0 0 1-.806-.811c0-.457.36-.817.8-.817a.81.81 0 0 1 .806.817zm.4-9.537c.069.062.154.142.274.274a.64.64 0 0 0 .686.165l.903-.325a.66.66 0 0 0 .417-.469l.166-.737a.68.68 0 0 0-.154-.595l-.623-.685a.65.65 0 0 0-.68-.189l-.869.274a.68.68 0 0 0-.44.475l-.143.583-5.246 1.902.115.155 5.4-1.029c.057.074.114.126.194.2m1.006-1.864a.86.86 0 0 1 0 1.72.877.877 0 0 1-.857-.868c0-.475.383-.857.857-.852m.114.355a.475.475 0 0 1-.156.916.47.47 0 0 1-.444-.28.475.475 0 0 1 .413-.667.5.5 0 0 1 .181.03zM4.77 11.069l.743.88a.64.64 0 0 0 .897.08l.806-.686 1.657-.183.057-.457-1.64-.303-.743-.84a.63.63 0 0 0-.868-.074l-.823.657a.645.645 0 0 0-.086.926m.554-.08a.326.326 0 0 1 0-.457l.515-.515a.32.32 0 0 1 .445 0l.515.515c.12.125.12.331 0 .457l-.515.514a.32.32 0 0 1-.451 0zm.303-.091a.194.194 0 0 1 0-.275l.297-.303a.2.2 0 0 1 .135-.056.2.2 0 0 1 .134.056l.303.303c.074.08.074.2 0 .275l-.303.302a.19.19 0 0 1-.269 0z"/>
    <path fill="#fff" fill-rule="evenodd" d="M10.52 13.43a2.286 2.286 0 1 0 0-4.573 2.286 2.286 0 0 0 0 4.572m0-1.144a1.143 1.143 0 1 0 0-2.287 1.143 1.143 0 0 0 0 2.287" clip-rule="evenodd"/>
</svg>
