<svg xmlns="http://www.w3.org/2000/svg" width="24" height="24" fill="none" viewBox="0 0 24 24">
    <path fill="#fff" fill-rule="evenodd" d="M10.234 9.324H8.322c-1.04.75-3.133 2.554-3.133 4.135v2.053C5.75 17.342 7.705 21 11.081 21h3.23c1.498-.574 4.5-2.17 4.5-3.985V14.56c-.195-1.897-1.581-5.998-5.536-7.18h-2.71c-.56.175-1.79.695-2.238 1.459h2.214v1.119a3 3 0 0 0-.2.19c-.204.199-.476.471-.773.637h1.444c.58-.112 1.864-.555 2.355-1.168.754.482 3.011 2.32 3.011 4.135v1.358c-.316 1.05-1.8 2.972-3.891 2.972h-1.654c-.803-.525-2.472-1.824-2.885-3.522.02-.706.005-1.966 0-2.506a6.34 6.34 0 0 1 2.286-2.729m2.253-1.46h-.973v.974h.973z" clip-rule="evenodd"/>
    <path fill="#fff" d="M12 11.27h-.487v3.065h.229v1.8H12zM11.513 3h.973v.486h-.973zm0 .973h.973v.486h-.973zm0 .973h.973v.486h-.973zm-.973.973h2.919v.486H10.54zm-.486-.487h.486v.487h-.486zm3.405 0h.486v.487h-.486zm-1.946 1.46h.973v.486h-.973z"/>
</svg>
