<svg xmlns="http://www.w3.org/2000/svg" width="24" height="24" fill="none" viewBox="0 0 24 24">
    <path fill="#fff" d="M16.75 10.032c.5.537.908 1.151 1.208 1.82a6.5 6.5 0 0 0 .47-2.34v-.16l.083.121v.04A6.4 6.4 0 0 1 18.016 12c.34.786.519 1.631.527 2.487v.025a6.2 6.2 0 0 0 1.17-1.87q.117-.315.2-.642l.012-.045a6 6 0 0 0-.212-.598 6.2 6.2 0 0 0-1.183-1.884l.001-.013-.104-.109q.004-.062.002-.124l-.033-.035q.005.08 0 .16l-.11-.117a6.4 6.4 0 0 0-1.974-1.343c.265.682.413 1.403.437 2.134z"/>
    <path fill="#fff" d="M18.544 9.32a6.5 6.5 0 0 1 1.438 2.427 6.54 6.54 0 0 0-.011-3.052l-.002-.006.002.032a6.2 6.2 0 0 0-.959-1.222 6.4 6.4 0 0 0-1.225-.985c.439.853.683 1.791.716 2.75l.04.042zm1.366 6.23.06-.216a.8.8 0 0 1-.06.216"/>
    <path fill="#fff" fill-rule="evenodd" d="M9.056 14.745a7 7 0 0 1-.51-.582 4 4 0 0 1-.095-.18l-.052-.074-.038-.106-.024-.066-.032-.078q.034.125.075.25.088.296.212.578.132.318.302.618a2 2 0 0 1-.186-.103 6.7 6.7 0 0 1-.557-1.484 6.4 6.4 0 0 1-.6-1.313q.009-.043.024-.085a.4.4 0 0 0 .027-.12q.1.326.225.642c.036.093.097.197.154.294.065.111.125.213.135.279q.007.04.018.082.05.09.103.18a4.9 4.9 0 0 1-.264-1.46L7.976 12v-.142q0-.126.006-.253a4 4 0 0 0-.02.253q.014-.516.107-1.024-.134.257-.242.523-.065.162-.129.333l-.087.229a.08.08 0 0 1-.009.08c-.051.071-.051.136-.051.206q-.013-.032-.03-.063l-.012-.024q.01.042.042.087a6.3 6.3 0 0 0-.18 1.556v.16l-.11-.121a6.6 6.6 0 0 1 .224-1.748.1.1 0 0 1 .001-.052l.007-.022a6.6 6.6 0 0 1-.232-1.785l.11-.122v.167a6.3 6.3 0 0 0 .177 1.494 6.5 6.5 0 0 1 .595-1.274.3.3 0 0 1 .025-.046l.028-.044c.06-.094.117-.184.184-.278l-.037.103c-.032.086-.064.171-.066.257.194-.46.466-.888.792-1.242a1 1 0 0 0 .12-.093l.065-.06-.057.054.034-.03.023-.024q.103-.1.21-.195a4 4 0 0 1 .861-.552q-.104.029-.212.044l-.042.028q-.29.09-.566.212a6 6 0 0 0-.623.299q-.165.301-.29.62-.137.283-.238.58c-.062.087-.115.17-.17.256l-.042.065a6.8 6.8 0 0 1 .546-1.402 6.4 6.4 0 0 0-1.189.952l-.14.078-.001.031-.11.116v.013c-.48.53-.868 1.14-1.144 1.8a6.3 6.3 0 0 0 1.144 1.8v.006l.11.122.141.11q.532.565 1.183.99.045.096.103.186c-.523-.303-1-.677-1.42-1.112.04.709.195 1.406.462 2.063v.007q.028.072.064.14c.315.723.76 1.381 1.312 1.943l.116.109H9.15a6.4 6.4 0 0 1-1.407-2.109 6.4 6.4 0 0 1-2.133-1.4c.04.732.206 1.452.493 2.127q.13.314.296.61l.01.02q.295.158.607.283a6.3 6.3 0 0 0 2.134.495l.04.038h.16l.082.078h.027l-.11-.103h.161a6.4 6.4 0 0 0 2.34-.444 6.7 6.7 0 0 1-1.812-1.202h-.013l-.008-.008a6.5 6.5 0 0 1-2.12-.436 1 1 0 0 1-.064-.141 6.4 6.4 0 0 0 2.021.46 6.5 6.5 0 0 1-1.07-1.418q-.045-.104-.077-.212.077.07.16.128.036.075.078.145l.051.016c.271.44.595.846.964 1.209l.097.14h.013l.115.11h.013c.53.481 1.14.868 1.8 1.145a6.3 6.3 0 0 0 1.8-1.145h.007l.122-.11.16-.005a6.4 6.4 0 0 0 2.077-.463h.007l.14-.064a6.4 6.4 0 0 0 1.975-1.344l.077-.116a1 1 0 0 1 0 .167v.033a6.4 6.4 0 0 1-2.11 1.407 6.4 6.4 0 0 1-1.399 2.133 6.3 6.3 0 0 0 2.127-.493q.313-.13.61-.296.096-.046.187-.103-.046.096-.103.187l-.006.003a6.5 6.5 0 0 1-2.026 2.182l-.366.103a6.2 6.2 0 0 0 1.221-.958c.377-.366.708-.777.984-1.224a6.5 6.5 0 0 1-2.748.715l-.042.04h-.014a6.5 6.5 0 0 1-2.428 1.438 6.54 6.54 0 0 0 3.053-.011l-.026.015-.159.092q.093-.052.185-.107l.366-.103-.328.206-.373.084a6.4 6.4 0 0 1-2.97-.13 6.4 6.4 0 0 1-2.97.129 5 5 0 0 1-.318-.177l-.016-.01a6.54 6.54 0 0 0 3.042.014 6.5 6.5 0 0 1-2.425-1.44h-.006l-.041-.04a6.5 6.5 0 0 1-2.746-.704q.416.666.98 1.213c.352.364.747.684 1.176.952l.02.006q.16.105.334.187l-.373-.084-.308-.194-.02-.005a6.5 6.5 0 0 1-2.005-2.192q.07.045.146.082l-.003-.005a2 2 0 0 1-.15-.084l-.003-.006a6.5 6.5 0 0 1-2.182-2.025l-.037-.104-.007-.02q.02.075.044.149-.034-.052-.074-.1a.7.7 0 0 1-.126-.209 6.5 6.5 0 0 0 4.725 4.713 6.5 6.5 0 0 0 6.686 0 6.5 6.5 0 0 0 4.733-4.731 6.5 6.5 0 0 0 0-6.686 6.5 6.5 0 0 0-4.732-4.731 6.5 6.5 0 0 0-6.684-.001l.37-.084a6.4 6.4 0 0 1 2.97.13 6.5 6.5 0 0 1 1.762-.245q.61 0 1.208.115.17.088.335.187a6.54 6.54 0 0 0-3.1 0 6.5 6.5 0 0 1 2.483 1.434h-.154l.027.025h.133c.975.03 1.93.278 2.796.727q.058.093.103.193a6.3 6.3 0 0 0-2.777-.804h-.167l-.034-.032h-.127a6.4 6.4 0 0 0-2.34.47 6.7 6.7 0 0 1 1.812 1.201h.014l.008.008a6.5 6.5 0 0 1 2.12.436q.036.069.064.141a6.4 6.4 0 0 0-2.022-.459c.42.421.78.898 1.07 1.417q.046.105.078.212a2 2 0 0 0-.161-.128 2 2 0 0 0-.077-.145l-.02-.006q.054.086.097.177a5 5 0 0 0-.643-.303 5 5 0 0 0-.438-.187q.222.181.43.38l.015.012q.291.258.553.547a7 7 0 0 1 .184.21l.025.034q.18.225.342.463l.038.107.026.07-.038-.122-.005-.016a5 5 0 0 0-.212-.578 6 6 0 0 0-.303-.617q.097.045.187.102a6.7 6.7 0 0 1 .557 1.485c.248.413.45.854.6 1.312q-.009.043-.024.084a.4.4 0 0 0-.027.122 9 9 0 0 0-.225-.643 2 2 0 0 0-.155-.294c-.065-.111-.124-.213-.135-.278l-.016-.078-.074-.13q.174.465.232.963.022.406-.003.814.01-.106.016-.213a7 7 0 0 1-.107 1.025q.133-.258.242-.524.064-.159.126-.327.047-.127.098-.256a.1.1 0 0 1 0-.06l.02-.063c.016-.047.032-.093.032-.142.13-.51.194-1.036.193-1.562v-.161l.109.129a6.6 6.6 0 0 1-.245 1.822 6.6 6.6 0 0 1 .232 1.784l-.11.122v-.167a6.3 6.3 0 0 0-.176-1.493 6.5 6.5 0 0 1-.595 1.272.3.3 0 0 1-.025.048l-.05.076q-.072.114-.151.23l-.011.034q-.3.425-.66.801l-.015.016q-.094.104-.199.2c-.676.63-2.313 1.006-2.686 1.076l-.035-.007h-.144a6 6 0 0 1-.55-.037q.261.045.528.06a7.4 7.4 0 0 1-1.026-.107q.257.132.524.242l.138.054a5 5 0 0 1 .438.188l.067-.017c.213-.064.43-.142.643-.225q.27-.102.516-.254a7.4 7.4 0 0 1-1.017.106 4.2 4.2 0 0 0 1.363-.302h.038c.122-.026.244-.064.367-.103q.296-.088.578-.212.318-.132.617-.302-.045.096-.102.186a6.7 6.7 0 0 1-1.415.54l-.064.013c-.415.25-.857.453-1.318.604l-.023-.006-.183.058a6.6 6.6 0 0 1-1.767.238h-.04l-.121-.11h.167q.732 0 1.445-.166a6.5 6.5 0 0 1-1.272-.605l.338.045-.005-.002-.333-.07a6.7 6.7 0 0 1-1.414-.54 2 2 0 0 1-.103-.185 6 6 0 0 0 1.196.514q.052.016.104.037.075.031.152.05a4 4 0 0 1-.944-.577l-.173-.159a1 1 0 0 0-.152-.202zm2.943 1.755a6.5 6.5 0 0 0 1.762.238h.038l.123-.11h-.161a6.3 6.3 0 0 1-1.556-.18zm3.215-1.286q-.105.045-.212.077.065-.072.12-.15l-.018.009q.173-.312.303-.643.123-.283.212-.579c.077-.128.14-.231.212-.296a6.7 6.7 0 0 1-.495 1.327q.635-.393 1.163-.922l.14-.078.002-.031.109-.12V13.8a6.3 6.3 0 0 0 1.144-1.8 6.3 6.3 0 0 0-1.144-1.8v-.007l-.11-.122a2 2 0 0 1-.006-.167 6.4 6.4 0 0 0-.462-2.07v-.007a2 2 0 0 0-.065-.142 6.4 6.4 0 0 0-1.343-1.94l-.116-.11h.199a6.4 6.4 0 0 1 1.408 2.109c.8.33 1.526.816 2.134 1.433a6.3 6.3 0 0 0-.495-2.16 6 6 0 0 0-.295-.61q.09.044.177.098a2 2 0 0 0-.184-.105 2 2 0 0 0-.103-.186q.099.048.193.11l.003.005a6.5 6.5 0 0 1 2.183 2.026q.016.053.037.104l.008.023-.045-.153q.034.051.073.1c.056.073.112.145.134.228l.027.096a1 1 0 0 1 .055.277 6.5 6.5 0 0 1-.128 2.97 6.54 6.54 0 0 1 .128 2.97c-.056.112-.12.22-.182.327l-.004.007a6.54 6.54 0 0 0 .012-3.046 6.5 6.5 0 0 1-1.439 2.42v.015l-.04.042a6.5 6.5 0 0 1-.725 2.755q-.09.057-.187.103a6.3 6.3 0 0 0 .797-2.778l.04-.043q.003-.061-.001-.124v-.16a6.4 6.4 0 0 0-.47-2.34 6.7 6.7 0 0 1-1.201 1.812v.013l-.008.008a6.5 6.5 0 0 1-.436 2.12l-.141.064a6.4 6.4 0 0 0 .46-2.022 6.5 6.5 0 0 1-1.418 1.07m0 0a2 2 0 0 1-.187.103 6.4 6.4 0 0 1-.99 1.183l-.115.115h.167a6.5 6.5 0 0 0 1.125-1.401m4.757.09v.011q-.407.651-.958 1.185c-.367.38-.78.712-1.228.99q-.046.096-.103.186a6.5 6.5 0 0 0 2.193-2.006l.007-.021q.101-.153.193-.306c.044-.076.054-.165.065-.255q.006-.06.017-.118a3 3 0 0 1-.186.334m-4.757-6.519q.056.09.103.187c.433.281.83.613 1.182.99l.116.115a2 2 0 0 1 0-.167 6.5 6.5 0 0 0-1.401-1.125m2.275-2.571q.097.046.187.103a6.5 6.5 0 0 0-2.006-2.193l-.02-.005-.307-.193-.374-.085c.116.058.245.123.335.187l.018.005c.43.268.825.589 1.178.953.38.367.711.78.989 1.228M7.95 12.146l.011-.065-.01.06z" clip-rule="evenodd"/>
    <path fill="#fff" d="M15.719 13.578a3 3 0 0 1-.053.2.8.8 0 0 0 .054-.203zM14.418 8.74a4 4 0 0 0-.597-.425l.088.065-.107-.038a1 1 0 0 0-.187-.058q.425.182.803.456m-1.999-.754a4 4 0 0 0-.278-.023q.516.017 1.025.107a6 6 0 0 0-.524-.242 7 7 0 0 0-.622-.22l-.02.009-.023-.006a9 9 0 0 0-.62.218q-.301.113-.572.29l-.082.016-.104.058q.386-.148.8-.213.243-.023.49-.028l.143.025h.144q.121.003.244.01"/>
    <path fill="#fff" fill-rule="evenodd" d="M8.654 3.926a6.5 6.5 0 0 0-4.728 4.728q.098-.163.204-.325l-.037.104a.8.8 0 0 0-.065.262c-.064.089-.127.215-.185.33l-.002.005q.011-.06.018-.12a.7.7 0 0 1 .054-.232 6.5 6.5 0 0 0 .011 6.663l-.028-.098a1 1 0 0 1-.055-.273A6.54 6.54 0 0 1 3.97 12a6.54 6.54 0 0 1-.13-2.97q.09-.171.188-.335a6.54 6.54 0 0 0 0 3.099A6.45 6.45 0 0 1 5.486 9.32v-.014l.007-.007a6.5 6.5 0 0 1 .72-2.79q.048-.099.11-.192l.005-.004a6.5 6.5 0 0 1 2-2.182zM6.213 6.51q.046-.097.103-.187A6.5 6.5 0 0 0 4.13 8.33q-.055.183-.102.366A6.2 6.2 0 0 1 4.985 7.5c.367-.38.78-.712 1.228-.99" clip-rule="evenodd"/>
    <path fill="#fff" d="M11.722 18.126a7 7 0 0 0 .277-.109l.008.004.008.003c.784.324 1.624.49 2.472.488h.039l.122-.116h.16l-.034.032h-.126l-.109.103h-.013a6.2 6.2 0 0 1-1.884 1.183 6 6 0 0 1-.598.212L12 19.913l-.056.016a6 6 0 0 1-.587-.215 6.2 6.2 0 0 1-1.877-1.176h-.013l-.027-.025h.028l.006.005h.039c.754 0 1.502-.133 2.21-.392"/>
    <path fill="#fff" d="M12.163 17.966a6.4 6.4 0 0 0 2.323.43h.161l.116-.108a6.4 6.4 0 0 0 1.343-1.974 6.5 6.5 0 0 1-2.133.437h-.007c-.536.5-1.15.908-1.82 1.209l.004.001a7 7 0 0 0 .543-.264 7 7 0 0 1-.53.27M8.27 10.47l-.006.007v.005zm1.91-3.211.013-.01h.006a6.3 6.3 0 0 1 1.8-1.145c.66.276 1.27.663 1.8 1.144h.008l.12.11h.02l.097.096q.548.559.946 1.234a6.7 6.7 0 0 0-1.403-.547l-.074-.015a6.5 6.5 0 0 0-1.245-.579 6.3 6.3 0 0 1 1.493-.177h.167l-.122-.109h-.039a6.5 6.5 0 0 0-1.768.238 6.5 6.5 0 0 0-1.761-.238h-.039l-.128.096z"/>
    <path fill="#fff" d="m11.794 7.55.205-.05-.182.057zM8.785 8.785c.303-.522.677-1 1.112-1.42a6.4 6.4 0 0 0-2.063.462h-.007l-.141.065a6.4 6.4 0 0 0-1.942 1.311l-.11.116a1 1 0 0 1 0-.167 6.4 6.4 0 0 1 2.11-1.408A6.4 6.4 0 0 1 9.176 5.61a6.3 6.3 0 0 0-2.159.495q-.312.13-.607.293l-.004.01-.023.01a6 6 0 0 0-.279.6 6.3 6.3 0 0 0-.495 2.166l-.007.007a1 1 0 0 0 0 .16l-.031.034v.127c.009.803.168 1.596.469 2.34.3-.666.705-1.278 1.202-1.813v-.013l.007-.008a6.5 6.5 0 0 1 .437-2.12l.141-.064a6.4 6.4 0 0 0-.46 2.021c.422-.42.899-.78 1.418-1.07"/>
    <path fill="#fff" d="M8.785 8.785q.092-.04.188-.07l.005-.007a6.7 6.7 0 0 1 1.38-.532l.053-.034.11-.015a6.4 6.4 0 0 1 1.272-.577 6.3 6.3 0 0 0-1.562-.192h-.16l-.11.142a6.4 6.4 0 0 0-.99 1.182q-.096.045-.186.103m4.802-.643.155.102-.028-.009zM8.695 4.029c-.437.268-.839.59-1.196.957-.38.367-.712.78-.99 1.228a6.5 6.5 0 0 1 2.79-.72l.006-.006h.008a6.5 6.5 0 0 1 2.435-1.47 6.54 6.54 0 0 0-3.053.01"/>
    <path fill="#fff" d="m11.999 4.086-.046-.012q-.304.09-.597.212a6.2 6.2 0 0 0-1.877 1.202h.032A6.4 6.4 0 0 1 12 5.983a6.4 6.4 0 0 1 2.487-.527h.025a6.2 6.2 0 0 0-1.87-1.17 6 6 0 0 0-.643-.2m-4.751 9.888c.025.73.172 1.452.438 2.134a6.4 6.4 0 0 1-1.974-1.344l-.11-.115v-.16c-.001-.8.148-1.595.438-2.341.3.668.708 1.283 1.208 1.82z"/>
    <path fill="#fff" d="m5.493 14.7-.006-.007a1 1 0 0 1 0-.167v-.039A6.4 6.4 0 0 1 5.981 12a6.4 6.4 0 0 1-.526-2.479 6.2 6.2 0 0 0-1.165 1.836q-.12.315-.203.643l-.014.046q.09.303.212.596a6.2 6.2 0 0 0 1.183 1.884 1 1 0 0 0 0 .167 6.5 6.5 0 0 1-1.452-2.442 6.54 6.54 0 0 0 .012 3.053v.005-.031c.267.445.588.856.957 1.222.367.38.78.712 1.228.99a6.5 6.5 0 0 1-.72-2.79m10.997-2.64-.007.018-.02.049.001.005zm-8.983-.119.021-.06.001.008-.014.034zm.384-4.255a6.5 6.5 0 0 1 2.135-.437h.006c.536-.5 1.15-.908 1.819-1.209a6.4 6.4 0 0 0-2.34-.437h-.16l-.116.11A6.4 6.4 0 0 0 7.89 7.685m1.042 1.1-.064.084q-.075.035-.145.078l-.006.02q.081-.053.168-.093.022-.045.047-.09m4.338-.681.03.02-.04-.022z"/>
</svg>
