<svg width="24" height="24" viewBox="0 0 24 24" fill="none" xmlns="http://www.w3.org/2000/svg">
<path d="M6.97827 7.15995C7.55049 6.6044 8.20049 6.16552 8.94492 5.8933C9.63412 5.64582 10.3703 5.55726 11.0985 5.63422C11.8268 5.71118 12.5282 5.95167 13.1504 6.33773C13.5949 6.62662 13.9727 6.97662 14.3171 7.37661L13.6837 7.88217C13.4632 7.58766 13.2119 7.31761 12.9338 7.07661C12.6116 6.79885 12.2227 6.57662 11.8226 6.42663C10.9983 6.11089 10.0975 6.05277 9.23936 6.25995C8.47226 6.44225 7.76342 6.81482 7.17826 7.34329C7.16161 7.35996 7.15604 7.37107 7.14493 7.3544L7.08938 7.28773L6.97827 7.15995Z" fill="white"/>
<path d="M21.1615 4.66553L19.4837 4.85441C19.306 4.87663 19.1116 4.88774 18.9838 5.02663C18.7949 5.23219 18.9726 5.4933 19.1226 5.64885L19.5671 6.12662L19.7282 6.29329C19.7394 6.3044 19.606 6.43217 19.5893 6.44884L18.8005 7.30995L18.7616 7.35439C18.391 6.82963 17.9745 6.33881 17.5171 5.88773C17.506 5.87662 17.4394 5.7933 17.4282 5.80995L17.3171 5.90996L17.2116 6.0044C17.2005 6.02107 17.2894 6.10995 17.3004 6.12106L17.6893 6.58773C17.9579 6.92221 18.2029 7.2749 18.4226 7.64328C18.4505 7.68772 18.456 7.68772 18.4172 7.73217L17.9282 8.2655C17.1839 6.8298 16.0058 5.66534 14.5616 4.93775C12.8464 4.11132 10.8752 3.99162 9.07272 4.60441C7.26881 5.22836 5.76044 6.4992 4.83942 8.17105C4.32739 9.11277 4.00861 10.1473 3.90177 11.2139C3.79492 12.2803 3.90216 13.3576 4.2172 14.3821C4.22831 14.421 4.23942 14.4376 4.2172 14.4655L4.15053 14.5321L4.0283 14.6599L3.77275 14.9322L2.93387 15.821L2.03387 16.7709C2.03387 16.7765 1.99498 16.8044 2.00054 16.8098L2.22275 17.021C2.24498 17.0487 2.26164 17.0932 2.28942 17.0655L2.38387 16.9654L3.53386 15.7933L4.39497 14.9043C4.86718 16.1154 5.62274 17.1821 6.60051 18.0209C8.02069 19.2339 9.84934 19.8608 11.715 19.774C13.5806 19.6873 15.3433 18.8937 16.6449 17.5543C17.8203 16.3677 18.5788 14.8314 18.806 13.1766C18.9775 11.8847 18.8384 10.5707 18.4004 9.34327C18.3837 9.29327 18.3448 9.24883 18.3837 9.2155L18.5059 9.09327L18.9504 8.64883C19.7845 10.4269 19.9558 12.4444 19.4337 14.3377C19.2806 14.9119 19.0722 15.4701 18.8115 16.0043C18.5727 16.4766 18.3059 16.9321 18.0171 17.371L19.0059 17.9988C19.4227 17.2599 19.7837 16.4987 20.0505 15.6876C20.4374 14.5386 20.5919 13.3241 20.5052 12.1147C20.4184 10.9054 20.092 9.72535 19.5449 8.64328L19.3894 8.35439L19.3505 8.28772C19.3338 8.25439 19.3505 8.24883 19.3838 8.22661L19.5226 8.08217L20.006 7.60439L20.5004 7.1155L21.2226 7.88772C21.3893 8.05439 21.6838 8.23216 21.8282 7.94883C21.8948 7.80995 21.8948 7.64883 21.9004 7.49328L21.967 6.14328L21.9949 5.58218C22.0059 5.40441 22.0059 5.23219 21.9226 5.06552C21.8505 4.9309 21.7389 4.82155 21.6029 4.75205C21.4669 4.68255 21.3129 4.65624 21.1615 4.67663V4.66553ZM4.83385 13.1654C4.62519 12.2816 4.59337 11.3652 4.74018 10.4689C4.88702 9.57278 5.20961 8.71437 5.6894 7.94328C6.15481 7.1888 6.77459 6.54135 7.50803 6.04345C8.24147 5.54556 9.07195 5.20849 9.94487 5.05441C11.7672 4.75441 13.6616 5.33218 15.0504 6.54329C15.8759 7.25948 16.5067 8.17306 16.8838 9.19883C16.9005 9.24326 16.9504 9.32104 16.9115 9.35993L16.7783 9.50991L15.8338 10.5322L13.8505 12.6655L12.8338 13.7599L12.4726 14.1488C12.3894 14.2377 12.2116 14.4266 12.0672 14.3598C11.8893 14.2821 11.8616 13.9488 11.8282 13.7765L11.5672 12.3599C11.3893 11.4043 11.2338 10.4377 11.0338 9.48774C10.9505 9.0766 10.7172 8.63772 10.256 8.59328C9.94487 8.55994 9.65048 8.71549 9.43388 8.92661C9.2116 9.14883 9.00605 9.3766 8.79493 9.60441L7.76717 10.6877L4.97274 13.6654L4.83942 13.1766C4.8783 13.3433 4.53942 11.9266 4.83942 13.1766L4.83385 13.1654ZM11.8671 13.9765C11.8671 13.9877 11.8671 13.9821 11.8671 13.9765ZM17.1338 12.9599C16.9566 13.8347 16.6069 14.6655 16.1052 15.4039C15.6034 16.1421 14.9597 16.773 14.2116 17.2599C13.0709 17.9828 11.7217 18.3048 10.3776 18.1751C9.0333 18.0452 7.7707 17.4711 6.7894 16.5432L6.73384 16.4877L6.71718 16.4766C6.06355 15.8538 5.54536 15.103 5.19496 14.271C5.17829 14.2266 5.12274 14.16 5.16163 14.1211L5.29496 13.9821L6.20607 13.0544L8.17272 11.0377L9.22271 9.971C9.43388 9.75996 9.63376 9.53221 9.8505 9.33216C9.94487 9.24882 10.1004 9.13216 10.2338 9.18216C10.4115 9.25439 10.445 9.52663 10.4727 9.68776L10.7282 11.1432L11.206 13.9432C11.2393 14.1544 11.2727 14.3766 11.3838 14.5599C11.5728 14.8933 11.8839 15.1043 12.2838 15.0377C12.6172 14.9821 12.8671 14.7487 13.1004 14.5154L14.156 13.46L17.2005 10.3878C17.3337 11.2433 17.3171 12.1154 17.1393 12.9599C17.3283 12.06 17.0449 13.4155 17.1393 12.9599H17.1338Z" fill="white"/>
</svg>
