<svg width="24" height="24" viewBox="0 0 24 24" fill="none" xmlns="http://www.w3.org/2000/svg">
<path fill-rule="evenodd" clip-rule="evenodd" d="M22 12C22 17.5229 17.5229 22 12 22C6.47714 22 2 17.5229 2 12C2 6.47714 6.47714 2 12 2C17.5229 2 22 6.47714 22 12ZM7.76473 7.91365C6.70697 9.01092 6.11638 10.4759 6.11737 12C6.10079 13.428 6.60535 14.8132 7.53656 15.896C8.46776 16.9787 9.76181 17.685 11.1762 17.8824L12.4527 16.0824L12.4443 16.0834L14.9408 12.5882L11.9998 14.3942L9.05853 12.5882L11.5651 16.0974C11.2845 16.0713 11.0067 16.0161 10.7362 15.932C10.1814 15.7596 9.66999 15.4701 9.23672 15.083C8.80342 14.6961 8.45825 14.2205 8.22454 13.6887C7.99084 13.1568 7.87405 12.5809 7.88207 12C7.88233 11.1654 8.13615 10.3506 8.60993 9.66368C9.08371 8.97663 9.75509 8.44979 10.535 8.15293L11.788 6.11764C10.2649 6.1725 8.8225 6.81639 7.76473 7.91365ZM16.1989 16.1204C15.1198 17.2204 13.6522 17.8531 12.1115 17.8824L13.6409 15.7765C14.509 15.3991 15.2207 14.7344 15.6559 13.8939C16.0913 13.0535 16.2239 12.0886 16.0312 11.1618C15.8385 10.2351 15.3324 9.40303 14.5981 8.80575C13.9624 8.28847 13.1889 7.97458 12.3783 7.89977L14.9408 12L11.9998 13.7647L9.05853 12L11.6138 7.91147L11.6115 7.91175L12.6998 6.11764C14.1391 6.28091 15.4667 6.97326 16.4243 8.06028C17.3819 9.14731 17.9014 10.5514 17.8821 12C17.8824 13.5408 17.278 15.0205 16.1989 16.1204Z" fill="white"/>
</svg>
