<svg xmlns="http://www.w3.org/2000/svg" width="24" height="24" fill="none" viewBox="0 0 24 24">
    <path fill="#fff" d="M4.753 12.063c-.147-1.213.388-2.714.672-3.316l.749.767a6.3 6.3 0 0 0-.455 2.819z"/>
    <path fill="#fff" d="m5.416 8.703.79.805-.009.015a6.3 6.3 0 0 0-.45 2.804v.042l-1.023-.284v-.023c-.076-.611.024-1.294.175-1.895a8.4 8.4 0 0 1 .502-1.43l.02-.034zm.019.095a8 8 0 0 0-.484 1.383 5.4 5.4 0 0 0-.175 1.857l.91.256c-.048-.488-.01-1.658.454-2.776l-.71-.72zm13.813 3.14c.147 1.213-.388 2.714-.672 3.316l-.749-.768a6.3 6.3 0 0 0 .455-2.818z"/>
    <path fill="#fff" d="m18.584 15.302-.791-.805.01-.02a6.3 6.3 0 0 0 .45-2.803v-.043l1.022.284v.024c.076.61-.023 1.293-.175 1.895a8 8 0 0 1-.502 1.43l-.019.038zm-.02-.095c.143-.308.337-.81.484-1.388.147-.592.242-1.26.175-1.857l-.91-.255c.048.487.01 1.658-.454 2.775l.71.72zM5.293 5.733H3.858l6.035 6.263-2.203 2.287-2.558-2.633L3.04 13.8l4.651 4.77L12 14.165l3.279 3.396 1.515.119-4.793-4.974-4.31 4.476-3.27-3.386.711-.74 2.558 2.696 3.657-3.757z"/>
    <path fill="#fff" d="M3.791 5.7h1.516l6.077 6.3-3.694 3.79-2.558-2.69-.673.696 3.23 3.344L12 12.668l4.841 5.03-1.577-.108-3.269-3.382-4.305 4.405L3 13.8l2.132-2.188L7.69 14.24 9.854 12 3.791 5.71zm.133.062 6.006 6.234-2.24 2.325-2.558-2.633L3.076 13.8l4.614 4.732L12 14.127l3.292 3.41 1.435.105L12 12.749 7.69 17.22l-3.307-3.424.753-.777 2.558 2.69L11.304 12l-6.02-6.238zm14.783 12.507h1.435l-6.034-6.263L16.31 9.72l2.558 2.633 2.094-2.15-4.652-4.77L12 9.837 8.722 6.441l-1.516-.119L12 11.296l4.31-4.476 3.269 3.386-.71.74L16.31 8.25l-3.657 3.756z"/>
    <path fill="#fff" d="M20.209 18.3h-1.516L12.616 12l3.695-3.79 2.558 2.691.672-.696-3.23-3.344L12 11.332 7.183 6.335l1.553.076 3.269 3.382 4.306-4.405L21 10.2l-2.132 2.189-2.558-2.63L14.146 12l6.063 6.291zm-.133-.061-6.006-6.234 2.24-2.326 2.559 2.634 2.055-2.113-4.613-4.732L12 9.873l-3.292-3.41-1.435-.104L12 11.252l4.31-4.472 3.307 3.425-.753.777-2.558-2.69L12.696 12l6.02 6.234h1.36zM7.69 17.178v1.392L12 14.165l3.292 3.415 1.507.095L12 12.711l-4.31 4.472z"/>
    <path fill="#fff" d="m12 12.67 4.841 5.035-1.596-.142L12 14.214 7.69 18.62v-1.468L12 12.665zm-4.31 4.542v1.317L12 14.134l3.34 3.443 1.44.123-4.785-4.945zm8.62-10.388V5.432L12 9.837 8.722 6.441l-1.52-.119L12 11.296l4.31-4.476z"/>
    <path fill="#fff" d="M12 11.332 7.187 6.34l1.549.07 3.268 3.383 4.306-4.405V6.85zm4.31-4.547V5.463L12 9.87 8.708 6.46l-1.436-.105L12 11.252zm-4.158 12.762a7.4 7.4 0 0 1-4.169-1.237l.735-.739a6.63 6.63 0 0 0 3.349.938c1.681-.057 2.68-.616 3.207-.938l1.515.1c-.691.706-2.35 1.776-4.642 1.876z"/>
    <path fill="#fff" d="m8.712 17.537.019.01a6.6 6.6 0 0 0 3.335.933 6.17 6.17 0 0 0 3.192-.933l1.583.156c-.697.706-2.393 1.771-4.69 1.871-1.838.08-3.553-.796-4.183-1.241l-.028-.019zm6.65.02a6.54 6.54 0 0 1-3.296.98c-.578.023-2.046-.138-3.344-.929l-.697.697c.644.45 2.326 1.288 4.121 1.212 2.236-.095 3.894-1.127 4.605-1.824zM11.848 4.455a7.4 7.4 0 0 1 4.169 1.237l-.734.739a6.63 6.63 0 0 0-3.35-.938c-1.68.057-2.794.649-3.315.976l-1.374-.114a7.06 7.06 0 0 1 4.604-1.895z"/>
    <path fill="#fff" d="m15.287 6.463-.019-.01a6.6 6.6 0 0 0-3.334-.933c-1.677.057-2.677.616-3.202.938l-1.55-.118.01-.029c.696-.71 2.36-1.785 4.656-1.885 1.838-.08 3.553.796 4.183 1.241l.029.02zm-6.65-.014a6.5 6.5 0 0 1 3.297-.986c.573-.023 2.046.138 3.344.929l.696-.696a7.4 7.4 0 0 0-4.12-1.213 7.25 7.25 0 0 0-4.596 1.862l1.374.104z"/>
</svg>
