<svg xmlns="http://www.w3.org/2000/svg" width="24" height="24" fill="none" viewBox="0 0 24 24">
    <path fill="#fff" d="M8.6 14.235a.18.18 0 0 1-.13.16.18.18 0 0 1-.194-.065L5.68 11.9a.2.2 0 0 1 .065-.354l3.634-1.46c.165-.065.27.02.225.2zm-2.15 2.31c-.135.12-.275.07-.305-.11l-.71-3.95c-.03-.18.05-.224.186-.1l2.464 2.31a.295.295 0 0 1-.01.45l-1.62 1.4zm2.975-7.244a.225.225 0 0 1-.09.375l-3.61 1.45c-.17.07-.26-.015-.194-.185l1.484-4.01a.18.18 0 0 1 .145-.15.18.18 0 0 1 .185.09zm-3.784 6.575c.035.18-.02.2-.115.05l-1.405-2.18a.52.52 0 0 1 .015-.55l.625-.84c.11-.15.23-.12.26.06zm-.44-5.18c-.065.17-.16.17-.22 0l-.475-1.45a.56.56 0 0 1 .14-.54l1.7-1.555c.14-.12.2-.085.134.09l-1.28 3.45zm-.45.555a.72.72 0 0 1-.095.58l-.485.67c-.11.15-.185.12-.165-.065l.23-2.295c.02-.18.08-.19.14-.015l.375 1.13zm1.924-5.165c.065.07 0 .23-.135.355l-.77.7c-.134.115-.16.1-.05-.05l.64-.865c.115-.15.255-.205.315-.14M11.52 18.29a.2.2 0 0 1-.175.125.19.19 0 0 1-.18-.11l-2-2.934a.18.18 0 0 1 .135-.31l4.035-.42c.18-.02.25.095.16.25zm-.84.005c.1.15.05.225-.13.17l-3.77-1.3c-.175-.05-.2-.2-.065-.32l1.615-1.4a.3.3 0 0 1 .232-.077.3.3 0 0 1 .208.127zm2.734-4.335c.12.135.07.265-.115.285l-4.094.425a.2.2 0 0 1-.165-.034.2.2 0 0 1-.09-.141.2.2 0 0 1 .01-.115l1.025-4.005c.045-.18.18-.21.3-.07l3.13 3.65zm2.94 3.43a.18.18 0 0 1 .064.202.18.18 0 0 1-.174.122l-4.16.88c-.18.035-.25-.06-.16-.22l1.966-3.38a.223.223 0 0 1 .38-.034zM9.66 19.65a.51.51 0 0 1-.54-.066l-1.935-1.72c-.135-.115-.105-.17.065-.115l3.3 1.13c.175.06.185.175.025.265l-.915.5zm4.49.16a.55.55 0 0 1-.55.06l-1.345-.69c-.165-.086-.15-.186.03-.22l3.584-.76c.18-.04.21.024.07.14zm-3.755.09c-.185-.01-.2-.09-.04-.176l.72-.395a.7.7 0 0 1 .59-.005l1.055.54c.165.08.15.145-.035.135zm6.63-1.726c.06.07-.02.2-.18.285l-.95.51c-.166.085-.18.06-.04-.05l.8-.665c.144-.115.31-.15.37-.08m-2.4-4.261c-.17.07-.275-.02-.225-.2l1.005-3.95a.185.185 0 0 1 .33-.094l2.59 2.435a.194.194 0 0 1 .034.3.2.2 0 0 1-.1.05zm3.939-2.394c.035.18-.05.225-.18.1L15.92 9.304a.29.29 0 0 1-.07-.346.3.3 0 0 1 .075-.1l1.62-1.399c.14-.12.28-.075.31.105l.71 3.95zm-1.58 5.554a.18.18 0 0 1-.33.06l-2.08-2.435a.226.226 0 0 1 .09-.38l3.615-1.45c.165-.07.25.015.19.19zm2.895-6.82a.52.52 0 0 1-.015.55l-.63.84c-.105.15-.225.12-.255-.06l-.62-3.454c-.035-.18.02-.2.115-.05zm-.38 4.5a.56.56 0 0 1-.14.54l-1.71 1.555c-.135.12-.19.085-.13-.085l1.28-3.455c.06-.175.16-.175.22 0l.48 1.45zm.26-.89c-.015.18-.08.19-.135.015l-.375-1.13a.72.72 0 0 1 .095-.58l.49-.664c.105-.145.18-.115.16.065zm-2.13 3.91c-.105.15-.245.21-.305.14-.065-.07 0-.23.135-.355l.765-.7c.135-.12.16-.1.05.045zM14.84 8.634a.18.18 0 0 1-.14.305l-4.03.42c-.185.02-.255-.095-.165-.25l1.975-3.4a.195.195 0 0 1 .355-.014zm.835-.074a.29.29 0 0 1-.44-.06l-1.92-2.795c-.1-.15-.045-.225.13-.165l3.77 1.29c.174.06.2.205.064.325l-1.604 1.4zm-1.666 5.07c-.045.174-.174.204-.3.07l-3.124-3.655c-.12-.14-.07-.27.12-.29l4.09-.425a.214.214 0 0 1 .254.175.2.2 0 0 1-.01.115zM10.11 9.004a.224.224 0 0 1-.3.11.2.2 0 0 1-.085-.075l-2.08-2.43a.18.18 0 0 1 .11-.32l4.16-.88c.18-.04.25.06.16.215zm3.33-3.885c-.17-.06-.18-.18-.02-.27l.92-.495a.51.51 0 0 1 .544.065l1.93 1.715c.135.12.105.175-.065.12zm-5.305.68c-.175.04-.21-.02-.065-.14l1.78-1.47a.55.55 0 0 1 .55-.06l1.35.695c.165.08.15.18-.025.215zm4.79-1.13a.7.7 0 0 1-.59.005l-1.06-.54c-.15-.08-.14-.14.045-.135l2.29.105c.18.015.2.09.035.175zM7.34 5.745c-.14.12-.3.15-.365.085-.06-.07.02-.2.18-.29l.95-.51c.165-.085.18-.06.04.055l-.8.66zM6.125 17.354c.07-.06.225 0 .35.135l.7.775c.115.135.1.16-.05.05l-.86-.65c-.15-.105-.215-.25-.14-.31m12.01-10.409c.07-.06.2.02.284.185l.51.95c.085.165.06.18-.055.04l-.655-.805c-.115-.145-.15-.31-.085-.37m-.396-.61c.15.11.21.25.14.31s-.23 0-.355-.135l-.7-.775c-.115-.135-.1-.155.05-.05zM5.78 16.684c.12.145.15.31.085.37-.07.06-.2-.02-.285-.18l-.51-.96c-.085-.16-.06-.175.055-.035z"/>
</svg>
