<svg xmlns="http://www.w3.org/2000/svg" width="24" height="24" fill="none" viewBox="0 0 24 24">
    <path fill="#fff" d="M6.418 20.22a2.146 2.146 0 0 1-2.104-2.015.1.1 0 0 0-.024-.024c-.47-.164-.84-.47-1.099-.899a2.22 2.22 0 0 1-.164-1.957.05.05 0 0 0-.012-.047 2.25 2.25 0 0 1-.218-2.245c.041-.106.124-.206.177-.312a.07.07 0 0 0 .005-.053 2.22 2.22 0 0 1 .247-1.857.05.05 0 0 0 0-.047 2.204 2.204 0 0 1 .735-2.85 1.93 1.93 0 0 1 .858-1.94.1.1 0 0 0 .041-.065A1.94 1.94 0 0 1 6.006 4.35l.036-.023a.1.1 0 0 0 .017-.041A1.9 1.9 0 0 1 7.964 2.71a.11.11 0 0 0 .082-.035 1.82 1.82 0 0 1 1.193-.658c.964-.118 1.699.353 2.098 1.199a.75.75 0 0 1 .077.329v16.922c0 .064-.012.13-.03.188a1.95 1.95 0 0 1-2.962.999c-.159-.117-.329-.082-.505-.135a2.23 2.23 0 0 1-1.217-.864c-.088-.118-.153-.265-.217-.4a.07.07 0 0 0-.06-.041z"/>
    <path fill="#fff" d="M8.257 18.399c.036-.576-.646-.57-.699-.06a1.3 1.3 0 0 1-.823 1.159.94.94 0 0 1-.523.058 1.37 1.37 0 0 1-1.117-.864 1.5 1.5 0 0 1-.064-.664c.011-.194-.118-.352-.318-.411-.305-.094-.588-.153-.823-.4-.47-.511-.535-1.093-.176-1.74q.053-.098.018-.258a.45.45 0 0 0-.118-.206 1.8 1.8 0 0 1-.264-.352 1.28 1.28 0 0 1-.024-1.223c.077-.159.194-.294.294-.435.147-.218-.041-.47-.094-.688a1.3 1.3 0 0 1 .1-.91c.106-.207.258-.353.358-.57a.17.17 0 0 0-.005-.154c-.236-.376-.477-.782-.359-1.252.123-.493.411-.828.876-1.01.164-.065.411-.13.588-.089.581.13.881.482 1.075 1 .059.158.235.305.412.246.176-.058.352-.217.293-.411a2.1 2.1 0 0 0-1.763-1.587c-.147-.018-.294-.006-.44-.024a.04.04 0 0 1-.03-.023.7.7 0 0 1 0-.312c.1-.423.364-.634.74-.823.218-.105.206-.352.206-.564.006-.253.17-.529.347-.705.159-.159.388-.235.605-.294.177-.059.27-.217.277-.406a1.12 1.12 0 0 1 .975-1.105c.594-.1.964.377 1.07.911.035.17.03.312.223.37.312.107.623-.029.565-.41a2.2 2.2 0 0 0-.136-.53 2.2 2.2 0 0 0-.587-.799.06.06 0 0 1 .023-.07c.276-.206.588-.236.923-.189.17.024.335.106.494.235.311.247.47.63.47 1.023v16.21c0 .724-.417 1.259-1.152 1.317-.123.012-.265 0-.411-.04-.26-.06-.418-.283-.659-.371a.3.3 0 0 0-.117-.018c-.547.012-.97-.247-1.258-.776a.12.12 0 0 1 .035-.152c.588-.388.94-.906.993-1.629z"/>
    <path fill="#fff" fill-rule="evenodd" d="M19.731 18.175a2.193 2.193 0 0 0 1.246-2.85.05.05 0 0 1 0-.047c.553-.835.57-1.687.06-2.551a.07.07 0 0 1-.013-.053c0-.047.018-.094.035-.141l.03-.118c.1-.57 0-1.105-.312-1.605a.05.05 0 0 1 0-.047 2.21 2.21 0 0 0-.717-2.827.04.04 0 0 1-.018-.017.04.04 0 0 1-.005-.024 1.95 1.95 0 0 0-.846-1.916.12.12 0 0 1-.053-.082 1.94 1.94 0 0 0-1.14-1.546.12.12 0 0 1-.06-.077 1.916 1.916 0 0 0-1.851-1.563c-.053 0-.1 0-.14-.041q-.495-.566-1.182-.647c-.641-.082-1.176.083-1.623.5-.252.235-.552.646-.552 1.017v16.916q-.001.14.059.27a1.94 1.94 0 0 0 2.074 1.246c.33-.036.644-.158.911-.353a.43.43 0 0 1 .241-.058c.06-.012.106-.012.153-.03a2.2 2.2 0 0 0 1.364-1.005l.076-.159.06-.117a.05.05 0 0 1 .04-.03 2.175 2.175 0 0 0 2.104-1.963.09.09 0 0 1 .06-.082M15.176 4.251c-.024.194-.117.364-.323.394-.27.035-.564-.065-.541-.394a2.03 2.03 0 0 1 .752-1.41.03.03 0 0 0 .005-.018.03.03 0 0 0-.005-.018l-.011-.012a1.187 1.187 0 0 0-1.822.688c-.047.159-.047.34-.047.511v15.805c0 .412.023.688.082.823a1.193 1.193 0 0 0 1.604.67c.077-.03.147-.088.218-.14.112-.083.217-.165.347-.177h.058c.118-.012.236-.018.353-.047a1.38 1.38 0 0 0 .94-.788v-.035a.05.05 0 0 0-.023-.024 2.02 2.02 0 0 1-1.046-1.68.46.46 0 0 1 .059-.289c.152-.235.493-.194.646.024.053.082.059.194.07.294v.053c.053.452.353.823.765.999.423.176.922.041 1.252-.235.317-.276.505-.647.493-1.058v-.082c-.011-.112-.023-.224.036-.318.1-.153.24-.188.4-.223l.123-.03a1.334 1.334 0 0 0 .776-1.974c-.177-.294-.036-.453.152-.659l.018-.023c.359-.394.4-.97.182-1.434a1.8 1.8 0 0 0-.276-.412c-.141-.176-.07-.34.012-.523l.006-.023a1.27 1.27 0 0 0-.118-1.211l-.1-.136c-.135-.176-.27-.352-.106-.599q.167-.245.236-.447a1.25 1.25 0 0 0-.112-1.063 1.34 1.34 0 0 0-.958-.67c-.647-.118-1.2.381-1.376.952-.076.235-.317.358-.546.252-.218-.1-.276-.288-.188-.558a2.12 2.12 0 0 1 2.204-1.464c.023 0 .035-.005.03-.029a1.09 1.09 0 0 0-.7-1.07c-.253-.117-.259-.294-.265-.493a1 1 0 0 0-.03-.241 1.08 1.08 0 0 0-.787-.823c-.152-.035-.294-.088-.376-.235a.8.8 0 0 1-.07-.324c-.012-.094-.018-.188-.06-.282a1.08 1.08 0 0 0-.998-.729c-.518-.04-.882.482-.94.94z" clip-rule="evenodd"/>
    <path fill="#fff" d="M15.529 6.114a.588.588 0 1 0 0-1.176.588.588 0 0 0 0 1.176m1.763 1.763a.588.588 0 1 0 0-1.176.588.588 0 0 0 0 1.176m-2.94 0a.588.588 0 1 0 .001-1.175.588.588 0 0 0 0 1.175m.589 3.527a1.176 1.176 0 1 0 0-2.352 1.176 1.176 0 0 0 0 2.352m2.938 0a.588.588 0 1 0 0-1.176.588.588 0 0 0 0 1.176m-2.938 1.763a.587.587 0 1 0 0-1.174.587.587 0 0 0 0 1.174m2.057 1.763a.882.882 0 1 0 0-1.764.882.882 0 0 0 0 1.764m2.057 0a.587.587 0 1 0 0-1.174.587.587 0 0 0 0 1.174m-4.408 1.764a.882.882 0 1 0 0-1.764.882.882 0 0 0 0 1.764m2.645.587a.588.588 0 1 0 0-1.175.588.588 0 0 0 0 1.175m-2.94 1.764a.587.587 0 1 0 .002-1.175.587.587 0 0 0-.001 1.175"/>
</svg>
