<svg width="24" height="24" viewBox="0 0 24 24" fill="none" xmlns="http://www.w3.org/2000/svg">
<path d="M8.4707 13.9646V18.2645L12.0001 19.888V15.5823L8.4707 13.9646Z" fill="white"/>
<path d="M15.5289 18.2645L11.9996 19.888V15.5823L15.5289 13.9646V18.2645ZM8.47014 13.9646L5.10547 19.8821L8.47014 18.2645V13.9646Z" fill="white"/>
<path d="M8.4707 22L12.0001 19.8823L8.4707 18.2646V22Z" fill="white"/>
<path d="M5.10547 19.8821L8.47014 21.9998V18.2645L5.10547 19.888V19.8821ZM15.5289 13.9646V18.2645L18.8935 19.888L15.5289 13.9646Z" fill="white"/>
<path d="M15.5288 21.9997L18.8934 19.882L15.5288 18.2703V21.9997Z" fill="white"/>
<path d="M11.9995 19.8823L15.5288 22V18.2646L11.9995 19.8882V19.8823Z" fill="white"/>
<path d="M12.0001 11.8528L8.4707 13.9705L12.0001 15.5939V11.8528Z" fill="white"/>
<path d="M15.529 13.9647L11.9997 11.847V15.5823L15.529 13.9647ZM4.94092 8.05884V11.5L7.88207 12.794L4.94092 8.05884Z" fill="white"/>
<path d="M4.94113 8.05884L2 12.7999L4.94113 11.5059V8.05884Z" fill="white"/>
<path d="M4.94092 14.4884L7.88207 12.7943L4.94092 11.5002V14.4884Z" fill="white"/>
<path d="M2 12.8002L4.94113 14.4884V11.5002L2 12.7943V12.8002ZM4.94113 15.0296V17.3707L7.88817 13.3473L4.94702 15.0296H4.94113Z" fill="white"/>
<path d="M4.94113 17.3707V15.0295L2 13.3413L4.94113 17.3707Z" fill="white"/>
<path d="M19.0586 8.05884V11.5L21.9939 12.794L19.0586 8.05884Z" fill="white"/>
<path d="M19.0587 8.05884L16.1235 12.7999L19.0646 11.5059V8.05884H19.0587Z" fill="white"/>
<path d="M19.0586 14.4884L21.9998 12.7943L19.0586 11.5002V14.4884Z" fill="white"/>
<path d="M16.1235 12.8002L19.0646 14.4884V11.5002L16.1235 12.7943V12.8002ZM19.0587 15.0296V17.3707L21.9999 13.3473L19.0587 15.0296Z" fill="white"/>
<path d="M19.0587 17.3707V15.0295L16.1235 13.3413L19.0646 17.3707H19.0587Z" fill="white"/>
<path d="M8.4707 2V5.44115L11.2294 6.73524L8.4707 2Z" fill="white"/>
<path d="M8.47071 2L5.71191 6.74113L8.4766 5.44702V2H8.47071Z" fill="white"/>
<path d="M8.4707 8.42961L11.2294 6.7355L8.4707 5.44141V8.42961Z" fill="white"/>
<path d="M5.71191 6.74139L8.4766 8.42961V5.44141L5.71191 6.7355V6.74139ZM8.47071 8.97078V11.3119L11.2353 7.28257L8.47071 8.97078Z" fill="white"/>
<path d="M8.47071 11.3118V8.97069L5.71191 7.28247L8.4766 11.3118H8.47071Z" fill="white"/>
<path d="M15.5288 2V5.44115L18.2935 6.73524L15.5288 2Z" fill="white"/>
<path d="M15.5293 2L12.7764 6.74113L15.5293 5.44702V2Z" fill="white"/>
<path d="M15.5288 8.42961L18.2935 6.7355L15.5288 5.44141V8.42961Z" fill="white"/>
<path d="M12.771 6.74139L15.5357 8.42961V5.44141L12.771 6.7355V6.74139ZM15.5298 8.97078V11.3119L18.2945 7.28257L15.5298 8.97078Z" fill="white"/>
<path d="M15.5293 11.3118V8.97069L12.7764 7.28247L15.5293 11.3118Z" fill="white"/>
</svg>
