<svg width="24" height="24" viewBox="0 0 24 24" fill="none" xmlns="http://www.w3.org/2000/svg">
<path d="M13.7142 10C13.7142 11.1028 12.7657 11.7143 12 11.7143V14C12.7912 14 13.5645 13.7653 14.2222 13.3259C14.8801 12.8863 15.3927 12.2616 15.6954 11.5307C15.9982 10.7997 16.0774 9.99548 15.9231 9.21962C15.7687 8.44369 15.3878 7.73098 14.8283 7.17157C14.269 6.61216 13.5562 6.2312 12.7804 6.07686C12.0044 5.92252 11.2001 6.00174 10.4693 6.30448C9.73838 6.60723 9.11358 7.11992 8.67412 7.77771C8.2346 8.43549 8 9.20882 8 10V19.8285L10.2857 21.9999V10C10.2857 9.25709 10.8972 8.28569 12 8.28569C12.4546 8.28569 12.8906 8.46631 13.2121 8.78776C13.5337 9.10922 13.7142 9.54535 13.7142 10Z" fill="white"/>
<path d="M11.9999 2.00002C10.8645 1.99746 9.74168 2.23782 8.70686 2.70499C7.672 3.17215 6.74906 3.8553 6 4.70858C4.70888 6.16857 3.99738 8.05098 4.00001 10V16L6.2857 18.1999V10C6.2857 7.01714 8.68569 4.28573 11.9999 4.28573C15.3142 4.28573 17.7142 7.04571 17.7142 10C17.7142 13.3142 14.9828 15.7142 11.9999 15.7142V17.9999C13.0505 17.9999 14.0909 17.793 15.0614 17.391C16.032 16.9889 16.9139 16.3997 17.6568 15.6568C18.3996 14.914 18.989 14.032 19.391 13.0614C19.793 12.0908 19.9999 11.0505 19.9999 10C19.9999 8.94947 19.793 7.90912 19.391 6.93852C18.989 5.96793 18.3996 5.08601 17.6568 4.34315C16.9139 3.60029 16.032 3.01101 15.0614 2.60898C14.0909 2.20695 13.0505 2.00002 11.9999 2.00002Z" fill="white"/>
</svg>
