<svg xmlns="http://www.w3.org/2000/svg" width="24" height="24" fill="none" viewBox="0 0 24 24">
    <path fill="#fff" fill-rule="evenodd" d="M20.982 4.404c.074-1.251-.868-2.325-2.104-2.4s-2.296.88-2.37 2.13c-.134 2.288-1.108 4.488-2.623 6.42l-3.858-3.866a9.1 9.1 0 0 0 1.201-3.508c.08-.65-.461-1.18-1.115-1.18H3.195C2.535 2 2 2.536 2 3.198v6.931c0 .655.529 1.197 1.177 1.118a9 9 0 0 0 3.55-1.233l3.78 3.787c-2.2 1.617-4.595 2.62-6.526 2.866-1.229.156-2.099 1.29-1.945 2.533s1.275 2.125 2.503 1.969c3-.381 6.335-1.902 9.188-4.143l4.278 4.287a2.337 2.337 0 0 0 3.31 0 2.347 2.347 0 0 0 0-3.316l-4.23-4.238c2.125-2.578 3.687-5.767 3.897-9.355" clip-rule="evenodd"/>
    <path fill="#fff" fill-rule="evenodd" d="M11.429 13.16q-.432.359-.878.684l3.2 3.206q.66-.514 1.281-1.078a21 21 0 0 0 2.03-2.11c-.712-.646-1.646-1.295-3.137-1.295-1.093 0-1.902.27-2.496.593" clip-rule="evenodd"/>
</svg>
