<svg xmlns="http://www.w3.org/2000/svg" width="24" height="24" fill="none" viewBox="0 0 24 24">
    <path fill="#fff" d="M4 20v-3.733h5.05L11.468 20zm0-9.6v3.2h6.736c.427 0 1.264-.266 1.264-1.6 0-1.333-.843-1.6-1.264-1.6z"/>
    <path fill="#fff" d="M4 4h12.293C17.973 4 20 4.901 20 6.848v2.79c0 .938-.523 1.765-1.28 2.287 1.003.48 1.28 1.616 1.28 2.224v3.003C20 19.056 17.44 20 15.867 20h-1.003l-2.912-4.368.453-.037c1.707-.14 2.33-2.144 2.33-3.595 0-1.872-1.023-4.267-3.167-4.267H4zm.539.539V7.2h7.034c2.448 0 3.707 2.63 3.707 4.805 0 1.584-.662 3.637-2.39 4.064l2.267 3.398h.715c1.259 0 3.595-.736 3.595-2.31v-3.002c0-.896-.555-1.76-1.483-1.883l-.064-.517c.864-.326 1.547-1.174 1.547-2.112v-2.79c0-1.637-1.798-2.309-3.168-2.309H4.539z"/>
</svg>
