<svg xmlns="http://www.w3.org/2000/svg" width="24" height="24" fill="none" viewBox="0 0 24 24">
    <path fill="#fff" d="M8.156 21.222c.66.241 1.344.417 2.04.526l-.79-1.641zM18.307 8.954h.105C20.39 8.954 22 7.43 22 5.567a3.503 3.503 0 0 0-3.588-3.409 3.513 3.513 0 0 0-3.597 3.283q1.041.704 1.935 1.589a13 13 0 0 1 1.557 1.924M10.637 21.8q.447.045.895.043h.01c.989 0 1.946-.158 2.862-.442l-.569-5.218-4.124 3.66zm3.536-5.912.579 5.387v.01a9.53 9.53 0 0 0 6.038-11.257z"/>
    <path fill="#fff" d="M14.372 4.273q.19-.473.473-.894h.011a10 10 0 0 0-2.104-.526l1.368 12.582 6.575-5.807-.189-.579q-.451.232-.936.38.105.17.179.357a.25.25 0 0 1-.096.315l-.63.442a.3.3 0 0 1-.159.053h-.063a.3.3 0 0 1-.179-.137c-.315-.526-1.125-1.862-2.314-3.05-1.178-1.2-2.44-1.979-2.915-2.263a.25.25 0 0 1-.105-.316l.232-.652a.3.3 0 0 1 .137-.157.23.23 0 0 1 .21 0c.081.027.18.08.294.141q.098.054.211.11m-4.84 15.225 4.25-3.767h.011l-.842-7.66-7.712 2.442zm-7.5-7.954L2 12.31a9.54 9.54 0 0 0 5.765 8.764l1.473-1.315-4.366-9.12zM3.341 7.45a9.2 9.2 0 0 0-1.257 3.704l2.63-.842zm9.032-4.639a11 11 0 0 0-.831-.032 9.51 9.51 0 0 0-7.964 4.283l1.505 3.124 7.816-2.494z"/>
</svg>
