<svg xmlns="http://www.w3.org/2000/svg" width="24" height="24" fill="none" viewBox="0 0 24 24">
    <path fill="#fff" d="M5.537 8.633 9.13 3 3.768 8.384c-.444.45-.238 1.218.376 1.371l2.843.72c-.572.9-1.122 1.96-1.16 3.05a2.2 2.2 0 0 0 .61 1.662c.677.678 1.53.942 2.244 1.514 1.8 1.44 2.605 4.077 5.215 4.288 1.615.133 3.584-.979 4.156-2.53a3.1 3.1 0 0 0-.005-2.012c-.376-1.239-1.155-2.319-1.536-3.558-.354-1.175-.111-1.683.043-1.884.37-.487 1.429-.625 1.9-.784l1.038-.35c.249-.084.56-.153.757-.349.45-.45.127-.9-.201-1.244A1340 1340 0 0 0 14.87 3q.922 1.446 1.837 2.896l1.779 2.806-.482.164c-.91.307-1.964.46-2.583 1.27-.509.668-.72 1.695-.265 3.177.381 1.239 1.154 2.313 1.53 3.552.132.45.143.794.032 1.096-.355.958-1.62 1.535-2.605 1.45-2.15-.174-3.07-2.646-4.542-3.827-.689-.545-1.488-.768-2.129-1.408-.127-.127-.2-.312-.19-.609.032-1.075.767-2.15 1.382-2.975a.82.82 0 0 0-.45-1.287zm5.998 5.84s-1.101 0-1.832-.673c-.73-.678 0-2.028 0-2.028s.212.133 1.022 1.08.81 1.62.81 1.62"/>
</svg>
