<svg xmlns="http://www.w3.org/2000/svg" width="24" height="24" fill="none" viewBox="0 0 24 24">
    <path fill="#fff" d="m19.94 15.457-1.695-2.849a.22.22 0 0 0-.224-.103.2.2 0 0 0-.08.03l-1.102.711a.22.22 0 0 0-.07.298l.968 1.627a.11.11 0 0 1-.035.149l-5.642 3.64a.1.1 0 0 1-.116 0l-5.645-3.64a.11.11 0 0 1-.035-.15l.967-1.626a.22.22 0 0 0-.07-.298l-1.1-.711a.216.216 0 0 0-.305.073l-1.694 2.85a.44.44 0 0 0 .14.593l7.562 4.88a.43.43 0 0 0 .47 0l7.563-4.88a.44.44 0 0 0 .142-.594m-12.842-4.71 1.067.718a.205.205 0 0 0 .296-.074l3.448-6.05a.103.103 0 0 1 .18 0l3.45 6.05a.21.21 0 0 0 .296.074l1.068-.718a.23.23 0 0 0 .067-.301l-4.12-7.23A.42.42 0 0 0 12.484 3h-.972a.42.42 0 0 0-.363.216l-4.12 7.23a.23.23 0 0 0 .067.301"/>
</svg>
