<svg xmlns="http://www.w3.org/2000/svg" width="24" height="24" fill="none" viewBox="0 0 24 24">
    <path fill="#fff" d="M4.35 9.727a1.125 1.125 0 1 0-.45 0v5.423h.45zm8.418 1.162c.446-.713.97-1.22 1.482-1.55v4.033a1.124 1.124 0 1 0 .45 0V9.091c.36-.164.7-.241.987-.241h1.263v5.422a1.126 1.126 0 1 0 .45 0V8.85h2.25v5.422a1.125 1.125 0 1 0 .45 0V8.85h.9V8.4h-5.313c-1.005 0-2.363.724-3.329 2.298a1.35 1.35 0 0 0-1.175 2.377 4.95 4.95 0 0 1-1.433 1.439v-3.887a1.125 1.125 0 1 0-.45 0v4.144c-.525.26-1.032.379-1.434.379H3v.45h4.866c1.074 0 2.67-.695 3.717-2.316a1.35 1.35 0 0 0 1.185-2.395M6.6 9.727a1.125 1.125 0 1 1 .45 0v5.423H6.6z"/>
</svg>
