<svg xmlns="http://www.w3.org/2000/svg" width="24" height="24" fill="none" viewBox="0 0 24 24">
    <path fill="#fff" d="M7.764 12.836H7.53c-.092-.21-.23-.36-.451-.418.204-.05.51-.217.606-.418h.234a1.34 1.34 0 0 0-.155-1.266c-.209-.251-.564-.406-1.112-.406h-1.73V12h-.276v.836h.276v.836h.836v-.836h.614c.268 0 .364.225.527.601l.1.23h1.1a14 14 0 0 1-.222-.551zm-2.006-1.672h.836c.18 0 .347.238.347.418S6.773 12 6.59 12h-.832zm9.658 1.672h.234l.138.334c.063.167.138.351.2.497h-1.103l-.1-.23c-.159-.376-.255-.601-.522-.601h-.565v.836h-.835v-.836h-.276V12h.276v-1.672h1.676c.723 0 1.35.372 1.337 1.137 0 .109-.025.435-.067.535h-.238c-.138.284-.322.347-.606.418.226.058.363.209.451.418m-.936-1.672h-.782V12h.782c.18 0 .347-.238.347-.418s-.167-.418-.347-.418m4.823 1.743-.247-.071.606.836H18.48l-.594-.836h.242l-.321-.43-.422.43h-.343v.836h-.836v-.836h.255V12h-.255v-1.672h.836v1.32l1.304-1.32h1.283l-1.417 1.463.117.209h.247zm-8.693-1.73.376-.849h1.233v1.526h-.192v.982h.192v.836h-.886v-.836h-.192v-.982h-.138l-.422.982h.234l-.322.836h-.368l-.334-.832h-.226l-.405-.982H9.1v.978h.188v.831h-.886v-.831h-.188v-.982h.188v-1.526h1.242l.376.849.284.677h.025zm-1.316.447v.23h.104zm2.047 0-.104.23h.104z"/>
    <path fill="#fff" d="M21 12V9.42a.347.347 0 0 0-.351-.347H3.598a.35.35 0 0 0-.347.347V12H3v.84h.25v1.738a.347.347 0 0 0 .352.347h17.047a.35.35 0 0 0 .351-.347v-1.742h-.196V12zm-.669.831v1.426H3.953v-1.421h-.284V12h.28V9.735H20.33V12h-.192v.836h.197v-.005z"/>
</svg>
