<svg xmlns="http://www.w3.org/2000/svg" width="24" height="24" fill="none" viewBox="0 0 24 24">
    <path fill="#fff" fill-rule="evenodd" d="M7.344 2h2.44c.099-.005.328.09.34.509s.006 2.487 0 3.53l-.001.018c-.011.115-.03.307.242.319.287.012 2.283.005 3.245 0 .189-.001.265-.108.265-.337v-3.64c0-.133.144-.398.406-.398H16.7a.41.41 0 0 1 .3.397v3.64c.015.117.146.338.308.338h3.028c.195 0 .414.125.414.342v2.465c-.007.105-.097.316-.414.316h-3.028c-.083.004-.308.051-.308.322v4.382c-.001.095.107.285.308.296.203.012 2.103.005 3.028 0 .137.018.414.132.414.436v2.36c-.025.107-.144.33-.414.33h-3.028c-.083.012-.308.076-.308.281v3.795c-.01.1-.028.299-.27.299h-2.538c-.084-.021-.317-.111-.317-.299v-3.795c-.01-.097-.032-.281-.316-.281h-3.178c-.092.018-.246.09-.256.28s-.005 2.58 0 3.796c-.013.1-.12.299-.32.299H7.239c-.087-.011-.24-.087-.24-.299v-3.795c.009-.097-.065-.281-.336-.281H3.51c-.09-.013-.27-.116-.26-.38s.004-1.718 0-2.424c.047-.107.204-.322.451-.322h2.962c.105-.01.337-.117.337-.46v-4.012c.004-.117-.013-.529-.423-.529H3.7c-.155 0-.45-.013-.45-.445V6.77c.02-.128.12-.396.37-.396h2.957l.032-.003c.166-.012.39-.03.39-.45V2.399C6.98 2.265 7.08 2 7.345 2m2.985 7.5h3.284c.09.024.268.129.26.352-.01.224-.004 3.02 0 4.389.014.081-.016.246-.26.255s-2.29.004-3.284 0c-.072 0-.203-.099-.203-.255V9.73c0-.111.067-.231.203-.231" clip-rule="evenodd"/>
</svg>
