<svg xmlns="http://www.w3.org/2000/svg" width="24" height="24" fill="none" viewBox="0 0 24 24">
    <path fill="#fff" d="M12 7.68c.212 0 .419-.033.612-.094a2.76 2.76 0 0 1 1.891.273 2.6 2.6 0 0 1 1.21 1.459c.042.179.113.357.212.522a1.985 1.985 0 0 0 2.635.673A1.79 1.79 0 0 0 19.266 8a1.98 1.98 0 0 0-2.16-.861 2.75 2.75 0 0 1-2.014-.25 2.6 2.6 0 0 1-1.229-1.538A1.92 1.92 0 0 0 12 4a1.92 1.92 0 0 0-1.864 1.35 2.46 2.46 0 0 1-1.228 1.54 2.72 2.72 0 0 1-2.014.249A1.98 1.98 0 0 0 4.73 8a1.793 1.793 0 0 0 .705 2.513 2 2 0 0 0 1.497.174 2.76 2.76 0 0 1 1.976.259 2.6 2.6 0 0 1 1.21 1.487A1.915 1.915 0 0 0 12 13.84c1.063 0 1.93-.824 1.93-1.84A1.886 1.886 0 0 0 12 10.16a2.2 2.2 0 0 0-.555.075 2.76 2.76 0 0 1-1.949-.259 2.6 2.6 0 0 1-.903-.823.51.51 0 0 1 .01-.48c.227-.339.534-.616.893-.81a2.72 2.72 0 0 1 1.892-.277c.188.061.395.094.612.094M19.27 16a1.79 1.79 0 0 0-.706-2.513 1.986 1.986 0 0 0-2.635.673 1.6 1.6 0 0 0-.193.438 2.46 2.46 0 0 1-1.233 1.538 2.72 2.72 0 0 1-1.948.26 2 2 0 0 0-1.11 0 2.76 2.76 0 0 1-1.949-.26 2.6 2.6 0 0 1-1.082-1.129 1.8 1.8 0 0 0-.245-.73 1.99 1.99 0 0 0-2.644-.682 1.805 1.805 0 0 0-.715 2.522 1.99 1.99 0 0 0 2.696.655c.488-.017.972.097 1.402.329a2.6 2.6 0 0 1 1.21 1.496A1.916 1.916 0 0 0 12 20a1.914 1.914 0 0 0 1.877-1.407 2.47 2.47 0 0 1 1.215-1.487 2.72 2.72 0 0 1 1.962-.26A1.98 1.98 0 0 0 19.27 16"/>
</svg>
