<svg width="24" height="24" viewBox="0 0 24 24" fill="none" xmlns="http://www.w3.org/2000/svg">
<path d="M7.9441 2L2.34411 21.3161C2.32011 21.3944 2.31465 21.4773 2.32815 21.5582C2.34166 21.639 2.37377 21.7156 2.42194 21.7819C2.47011 21.8483 2.53302 21.9025 2.60573 21.9402C2.67844 21.9782 2.75893 21.9985 2.84088 22H21.1635C21.5053 22 21.7506 21.6645 21.6602 21.3226L16.1957 2H14.5183L14.7893 3.29032H13.2925V2H10.7118V3.29032H9.38286L9.5763 2H7.93765H7.9441Z" fill="white"/>
<path d="M21.1505 19.458L12.015 14.6064V2H13.2925V3.29032H14.7957L14.5248 2H16.2022L21.1505 19.458Z" fill="white"/>
<path d="M2.8667 19.458L12.0022 14.6064V2H11.086V3.29032H9.21501L9.49245 2H7.81507L2.8667 19.458Z" fill="white"/>
</svg>
