<svg xmlns="http://www.w3.org/2000/svg" width="24" height="24" fill="none" viewBox="0 0 24 24">
    <path fill="#fff" d="M7.164 8.636a1.64 1.64 0 0 1 1.359-.739H21.55c.38 0 .523.154.415.462a1 1 0 0 1-.154.287l-.543.743c-.303.41-.841.56-1.37.56H8.487c-.252 0-.487.312-.687.569a.5.5 0 0 0-.072.133c-.057.164.01.323.215.323h11.001c.565 0 .77.144.616.6-.062.16-.134.303-.226.426l-2.482 3.354a1.82 1.82 0 0 1-1.364.749H2.445c-.374 0-.518-.154-.41-.462a1 1 0 0 1 .154-.287l1.651-2.23c.334-.452.795-.565 1.36-.611h10.6c.247 0 .482-.267.683-.513a.4.4 0 0 0 .071-.144c.052-.153-.01-.369-.205-.369H6.174c-.58 0-.79-.087-.636-.533q.069-.183.246-.436l1.385-1.882z"/>
</svg>
