<svg xmlns="http://www.w3.org/2000/svg" width="24" height="24" fill="none" viewBox="0 0 24 24">
    <path fill="#fff" fill-rule="evenodd" d="M22 12c0 5.523-4.477 10-10 10S2 17.523 2 12 6.477 2 12 2s10 4.477 10 10m-.625 0A9.375 9.375 0 0 1 12 21.374 9.375 9.375 0 1 1 21.375 12" clip-rule="evenodd"/>
    <path fill="#fff" fill-rule="evenodd" d="M18.674 16.744a8 8 0 0 0 1.451-3.508A1.32 1.32 0 0 1 19.25 12a1.31 1.31 0 0 1 .877-1.236 8.04 8.04 0 0 0-1.531-3.615 1.3 1.3 0 0 1-.54.112 1.32 1.32 0 0 1-1.329-1.314c0-.18.037-.356.108-.52a8.24 8.24 0 0 0-4.832-1.552 8.24 8.24 0 0 0-4.869 1.58q.095.228.096.492c0 .726-.595 1.314-1.33 1.314-.177 0-.347-.034-.502-.097a8 8 0 0 0-1.522 3.621c.482.198.82.667.82 1.215a1.31 1.31 0 0 1-.82 1.214 8 8 0 0 0 1.447 3.518c.178-.089.381-.138.595-.138.734 0 1.33.588 1.33 1.313 0 .22-.055.428-.152.61a8.24 8.24 0 0 0 4.907 1.608 8.24 8.24 0 0 0 4.885-1.59c-.103-.187-.16-.4-.16-.628a1.32 1.32 0 0 1 1.328-1.313c.216-.001.428.05.62.15m-5.18-5.26c.357-.436 1.056-1.543 1.004-2.486-.065-1.177-.775-2.491-2.528-3.874-.864.659-2.47 2.127-2.47 3.874 0 1.45.607 2.093.949 2.456l.027.03 2.043 2.058c.198.207.586.78.548 1.412-.046.79-.61 1.52-1.067 1.915-.36-.203-1.091-.869-1.127-1.915-.026-.258.054-.917.58-1.488l-.977-.988c-.325.283-.975 1.176-.975 2.476 0 1.627 1.265 2.842 2.5 3.92.831-.648 2.497-2.34 2.497-3.92s-1.136-2.774-1.705-3.174l-1.34-1.292c-.194-.158-.58-.675-.58-1.49 0-.814.731-1.625 1.097-1.929.366.284 1.097 1.067 1.097 1.93s-.366 1.352-.548 1.489z" clip-rule="evenodd"/>
</svg>
