<svg width="24" height="24" viewBox="0 0 24 24" fill="none" xmlns="http://www.w3.org/2000/svg">
<path d="M12.0002 22L11.9623 21.9946C9.59469 21.3783 5.51367 19.3351 5.51367 16.4594V5.9946C5.51367 5.57297 5.87043 5.23784 6.30827 5.24324H17.692C18.1245 5.24324 18.4813 5.57838 18.4866 5.9946V16.4594C18.4866 19.3621 14.4326 21.4 12.038 21.9946L12.0002 22ZM6.05422 5.78378V16.3783C6.05422 19.0162 9.85426 20.9081 12.0002 21.4757C12.4866 21.3568 17.9461 19.5081 17.9461 16.3892V5.78378H6.05422ZM10.6489 3.03243H11.6758L12.0002 2L12.3244 3.03243H13.3515L12.519 3.67027L12.8326 4.7027L12.0002 4.06487L11.1677 4.7027L11.4813 3.67027L10.6489 3.03243Z" fill="white"/>
<path d="M9.54605 18.7566L9.71896 18.5783L9.6974 18.5405L9.67028 18.5729L9.65414 18.5891L9.63787 18.6C9.63244 18.6 9.6163 18.5891 9.60545 18.5674C9.6023 18.5618 9.59864 18.5563 9.5946 18.5513L9.58388 18.535V17.827L9.56219 17.7621C9.55033 17.7421 9.53356 17.7254 9.51363 17.7134C9.50417 17.7068 9.49509 17.6996 9.48651 17.6919C9.4778 17.6861 9.46878 17.6807 9.45952 17.6756L9.29736 17.8378L9.31899 17.8756L9.37304 17.8215L9.38926 17.8324L9.42169 17.8594L9.43791 17.9405V18.5026C9.43791 18.5459 9.42169 18.5837 9.39467 18.6107L9.54605 18.7566ZM10.3028 18.4648C10.3514 18.3621 10.3785 18.2486 10.3785 18.1351C10.384 18.0391 10.3573 17.944 10.3028 17.8648C10.2449 17.7846 10.1638 17.7243 10.0704 17.6919C9.98383 17.7459 9.90815 17.827 9.85417 17.9081C9.81041 17.9757 9.78783 18.0546 9.78922 18.1351C9.78922 18.2594 9.84875 18.3567 9.96769 18.4161L10.2541 18.1783V18.2323C10.265 18.373 10.2217 18.5135 10.146 18.6216L9.92985 18.4865L9.82163 18.6107L10.0758 18.7566C10.1676 18.6757 10.2433 18.5783 10.3028 18.4648ZM10.1569 17.9405C10.2054 17.9946 10.2325 18.0648 10.2433 18.1405L10.1082 18.2486C10.1082 18.2594 10.0973 18.2647 10.0865 18.2647H10.0704C10.0465 18.2626 10.0236 18.2552 10.003 18.2429C9.98244 18.2308 9.96478 18.2143 9.95141 18.1945C9.91484 18.1444 9.89579 18.0836 9.89731 18.0216C9.89201 17.9405 9.92442 17.8702 9.98383 17.827C10.0487 17.8485 10.1082 17.8811 10.1569 17.935V17.9405ZM14.0703 18.4865C14.1081 18.3945 14.1244 18.2919 14.1244 18.1891C14.1298 18.081 14.1081 17.9729 14.0703 17.8864C14.0163 17.7945 13.9459 17.7243 13.8703 17.6756C13.7912 17.7474 13.7281 17.8349 13.6852 17.9328C13.6424 18.0307 13.6208 18.1363 13.6217 18.2432C13.6217 18.3621 13.6432 18.4756 13.6919 18.5674C13.7352 18.6594 13.8054 18.7242 13.8865 18.7566C13.9568 18.6864 14.0216 18.5946 14.0703 18.4865ZM13.9731 17.9837C14.0216 18.0594 14.0433 18.1567 14.0433 18.254C14.0433 18.3837 14.0216 18.508 13.9731 18.6053C13.9311 18.5914 13.8926 18.5688 13.8599 18.5391C13.8274 18.5093 13.8014 18.4729 13.7839 18.4324C13.7298 18.3351 13.7082 18.2216 13.7082 18.1081C13.7027 18.0087 13.7291 17.9102 13.7839 17.827C13.8596 17.8485 13.9244 17.9026 13.9731 17.9837ZM14.6433 18.4702C14.6811 18.3621 14.6974 18.254 14.6974 18.1351C14.7031 18.0371 14.6805 17.9396 14.6325 17.854C14.5862 17.7784 14.5184 17.7181 14.4378 17.681C14.3676 17.735 14.3028 17.8161 14.2541 17.8972C14.2171 17.9671 14.1985 18.0453 14.2001 18.1242C14.2001 18.254 14.2541 18.3513 14.3514 18.4108L14.6 18.1729V18.2269C14.6 18.3945 14.5676 18.5296 14.5028 18.6216L14.3243 18.4865L14.2325 18.6107L14.4487 18.7566C14.5244 18.681 14.5892 18.5783 14.6433 18.4648V18.4702ZM14.5135 17.9296C14.5514 17.9837 14.573 18.0594 14.5892 18.1351L14.4704 18.2432C14.4704 18.254 14.465 18.254 14.4595 18.2594H14.4378C14.3947 18.2594 14.3569 18.2269 14.3352 18.1891C14.3047 18.1367 14.2896 18.0767 14.2919 18.0161C14.2865 17.9405 14.319 17.8648 14.3622 17.8215C14.4163 17.8432 14.4704 17.8756 14.5135 17.9296ZM13.3514 18.2162C13.3514 18.5745 13.209 18.9183 12.9556 19.1717C12.7022 19.4251 12.3585 19.5675 12.0001 19.5675C11.6416 19.5675 11.2979 19.4251 11.0445 19.1717C10.791 18.9183 10.6488 18.5745 10.6488 18.2162C10.6488 17.8577 10.791 17.514 11.0445 17.2607C11.2979 17.0071 11.6416 16.8647 12.0001 16.8647C12.3585 16.8647 12.7022 17.0071 12.9556 17.2607C13.209 17.514 13.3514 17.8577 13.3514 18.2162ZM12.0001 17.0108C11.6803 17.0108 11.3737 17.1378 11.1477 17.3638C10.9217 17.5898 10.7947 17.8965 10.7947 18.2162C10.7947 18.5358 10.9217 18.8424 11.1477 19.0685C11.3737 19.2946 11.6803 19.4216 12.0001 19.4216C12.3198 19.4216 12.6264 19.2946 12.8524 19.0685C13.0785 18.8424 13.2055 18.5358 13.2055 18.2162C13.2055 17.8965 13.0785 17.5898 12.8524 17.3638C12.6264 17.1378 12.3198 17.0108 12.0001 17.0108Z" fill="white"/>
<path d="M11.4379 17.9839V18.1569H11.3081V17.6271H11.6432C11.7041 17.6216 11.7652 17.6368 11.8163 17.6704C11.8362 17.6867 11.852 17.7073 11.8622 17.7308C11.8725 17.7543 11.8772 17.7799 11.8757 17.8056C11.8757 17.8434 11.8702 17.8813 11.8487 17.9137C11.8308 17.9379 11.8064 17.9566 11.7784 17.9677L11.8974 18.1569H11.7352L11.6432 17.9839H11.4379ZM11.6432 17.7406H11.4379V17.8704H11.6325C11.6595 17.8704 11.6865 17.8704 11.7135 17.8542C11.7221 17.8481 11.729 17.8399 11.7338 17.8306C11.7384 17.8211 11.7408 17.8106 11.7406 17.8002C11.7415 17.7901 11.74 17.78 11.7362 17.7705C11.7324 17.7612 11.7265 17.7527 11.7189 17.7461C11.6948 17.7367 11.6684 17.735 11.6432 17.7406ZM12.1838 18.1569V17.6217H12.7298V17.7406H12.3243V17.838H12.692V17.9461H12.3243V18.1569H12.1838ZM12.1838 18.9623V18.438H12.7298V18.5461H12.3243V18.6542H12.692V18.7623H12.3243V18.9623H12.1838ZM11.3081 18.4326H11.8811V18.5461H11.4486V18.638H11.827V18.7461H11.4486V18.8542H11.8811V18.9623H11.3081V18.4326ZM12.2432 15.9353C12.1639 15.9519 12.0919 15.9935 12.0379 16.0542V16.0325C12.0366 15.9996 12.0312 15.9669 12.0216 15.9353C12.1405 15.9299 12.2271 15.8542 12.2271 15.7515C12.2271 15.6704 12.173 15.6002 12.0973 15.5785V15.546L12.1081 15.5191L12.0757 15.5299C12.0616 15.5339 12.0486 15.5414 12.0379 15.5515L12.027 15.5245C12.0201 15.5136 12.0109 15.5044 12 15.4975L11.9676 15.5191L11.9459 15.5515C11.937 15.5419 11.9259 15.5346 11.9135 15.5299H11.8595L11.8865 15.5569L11.8974 15.5839C11.8108 15.5893 11.773 15.6758 11.773 15.7515C11.773 15.8488 11.8648 15.9299 11.9783 15.9353L11.9892 16.0325V16.0434C11.9568 16.0218 11.827 15.9353 11.773 15.919C11.6865 15.9029 11.5838 15.919 11.546 15.9137C11.5675 15.9353 11.6 15.9515 11.6162 15.9785C11.6595 16.011 11.7028 16.0379 11.7567 16.0542C11.8324 16.0758 11.9189 16.0704 11.9946 16.0434L11.9676 16.1515L12.0324 16.1299L12.0379 16.0542H12.0757C12.0919 16.0434 12.1838 16.0542 12.2703 16.0542C12.3243 16.0542 12.3838 16.0325 12.4324 15.9894L12.4919 15.9568C12.4117 15.931 12.3267 15.9235 12.2432 15.9353ZM11.9405 15.7515C11.9402 15.721 11.9463 15.6908 11.9584 15.663C11.9705 15.635 11.9883 15.6099 12.0109 15.5893C12.1027 15.6813 12.1027 15.8218 12.0109 15.9137C11.967 15.871 11.9418 15.8127 11.9405 15.7515ZM12.1784 13.1137L12.1568 13.1461C12.1892 13.1461 12.2216 13.1677 12.2432 13.2001H12.2486V13.1947C12.2703 13.1677 12.3027 13.1515 12.3406 13.1461L12.3136 13.1137H12.1784ZM11.6325 12.8272C11.5892 12.8272 11.5514 12.865 11.5514 12.9028C11.5514 12.9191 11.5514 12.9298 11.5621 12.9461L11.5892 12.9948C11.5947 12.9731 11.6162 12.9624 11.6378 12.9624C11.6649 12.9624 11.6919 12.9785 11.6919 13.0055H11.7839C11.7881 12.9931 11.7962 12.9824 11.8068 12.9747C11.8174 12.967 11.8301 12.9626 11.8433 12.9624C11.8702 12.9624 11.8865 12.9731 11.8974 12.9948L11.9189 12.9407C11.9256 12.9292 11.9293 12.9162 11.9298 12.9028C11.9305 12.8927 11.9291 12.8825 11.9256 12.8729C11.9221 12.8634 11.9165 12.8548 11.9093 12.8476C11.9022 12.8404 11.8936 12.8348 11.884 12.8313C11.8744 12.8278 11.8642 12.8264 11.8541 12.8272C11.8217 12.8272 11.7946 12.8488 11.7839 12.8758C11.8029 12.8335 11.8121 12.7872 11.8108 12.7406C11.8108 12.6704 11.7406 12.5893 11.7406 12.5893C11.7406 12.5893 11.6703 12.6704 11.6703 12.7406C11.6703 12.7893 11.6811 12.8326 11.6973 12.8758C11.6973 12.8488 11.6595 12.8272 11.6325 12.8272ZM12.0919 13.0002C12.1027 12.9785 12.119 12.9677 12.146 12.9677C12.173 12.9677 12.1946 12.9839 12.2001 13.0109H12.2919C12.2959 12.9994 12.3031 12.9892 12.3127 12.9815C12.3223 12.9738 12.3338 12.969 12.346 12.9677C12.373 12.9677 12.3946 12.9785 12.4 13.0002L12.4217 12.9461C12.4311 12.9336 12.4368 12.9186 12.4378 12.9028C12.4379 12.8926 12.4359 12.8825 12.4316 12.8732C12.4275 12.8639 12.4213 12.8557 12.4136 12.849C12.4059 12.8422 12.3968 12.8372 12.387 12.8345C12.3771 12.8317 12.3668 12.8311 12.3567 12.8326C12.3243 12.8326 12.3027 12.8488 12.2865 12.8758V12.8813C12.3056 12.8388 12.3148 12.7926 12.3136 12.7461C12.3136 12.6704 12.2432 12.5947 12.2432 12.5947C12.2432 12.5947 12.173 12.6704 12.173 12.7461C12.173 12.7947 12.1892 12.8326 12.2001 12.8758V12.8813C12.1892 12.838 12.1405 12.8217 12.1027 12.838C12.0884 12.8434 12.0762 12.853 12.0675 12.8656C12.0588 12.8781 12.0541 12.893 12.054 12.9083C12.054 12.9245 12.054 12.9352 12.0649 12.9515L12.0919 13.0002ZM11.9513 13.3732C11.9431 13.3555 11.9284 13.3417 11.9102 13.3347C11.8922 13.3277 11.872 13.3279 11.8541 13.3353C11.8399 13.3407 11.8276 13.3503 11.8189 13.3629C11.8102 13.3754 11.8055 13.3903 11.8054 13.4056C11.8054 13.4164 11.8054 13.4326 11.8163 13.4488L11.8378 13.4974C11.8487 13.4758 11.8702 13.465 11.8919 13.465C11.9189 13.465 11.9459 13.4812 11.9459 13.5082H12.0379C12.0423 13.4959 12.0502 13.4852 12.0608 13.4775C12.0715 13.4696 12.0842 13.4654 12.0973 13.465C12.119 13.465 12.1405 13.4758 12.1514 13.4974L12.173 13.4434C12.1796 13.4318 12.1834 13.4188 12.1838 13.4056C12.1848 13.3948 12.1833 13.3841 12.1795 13.3742C12.1756 13.3642 12.1695 13.3552 12.1617 13.3479C12.1539 13.3406 12.1446 13.3352 12.1344 13.332C12.1241 13.3289 12.1133 13.3283 12.1027 13.3299C12.0757 13.3299 12.0487 13.3515 12.0324 13.3786C12.0534 13.3366 12.0645 13.2903 12.0649 13.2434C12.0649 13.1677 11.9946 13.092 11.9946 13.092C11.9946 13.092 11.9244 13.1677 11.9244 13.2434C11.9244 13.2866 11.9352 13.3299 11.9513 13.3732ZM11.9298 13.6109L11.9081 13.6434C11.9405 13.6487 11.973 13.6704 11.9946 13.6974H12V13.692C12.0216 13.665 12.054 13.6487 12.0919 13.6434L12.0649 13.6109H11.9298ZM11.8378 13.1461L11.8163 13.1137H11.6811L11.6595 13.1461C11.6919 13.1461 11.7243 13.1677 11.746 13.2001L11.7567 13.1947C11.7662 13.1816 11.7783 13.1703 11.7923 13.162C11.8062 13.1537 11.8217 13.1483 11.8378 13.1461ZM13.2 10.7407C13.2974 10.7785 13.3838 10.8487 13.454 10.9353C13.4973 10.9029 13.5784 10.8813 13.6325 10.9029H13.6379C13.6486 10.8974 13.6216 10.8596 13.6054 10.8596H13.6001L13.5784 10.8759V10.8542C13.5729 10.8434 13.5568 10.8434 13.546 10.8542C13.546 10.8542 13.5351 10.8596 13.5351 10.8704L13.5514 10.8866H13.546C13.5351 10.8866 13.5135 10.892 13.5081 10.8813C13.5027 10.8813 13.4973 10.8704 13.5027 10.8596L13.4866 10.8542C13.4757 10.8434 13.4866 10.8326 13.4919 10.8218H13.4973V10.838C13.5135 10.8487 13.5297 10.838 13.5351 10.8272V10.8109H13.5135V10.8056L13.5351 10.7893H13.5405C13.5405 10.7785 13.5405 10.7623 13.5244 10.7623H13.5081L13.4919 10.7893L13.4866 10.7731C13.4757 10.7623 13.4594 10.7731 13.454 10.7839V10.8056H13.4757V10.8109C13.4649 10.8218 13.454 10.8326 13.4379 10.8218C13.427 10.8218 13.427 10.8056 13.427 10.8002H13.4055C13.3838 10.7785 13.4055 10.7623 13.4055 10.7515H13.4109L13.4216 10.7623V10.7678C13.4379 10.7678 13.454 10.7678 13.454 10.7515V10.7352H13.4487L13.427 10.7299L13.454 10.7082C13.4594 10.6921 13.454 10.6812 13.4379 10.6758H13.4216V10.6812L13.4109 10.7082L13.4 10.6921V10.6867C13.3838 10.6867 13.3676 10.6867 13.3676 10.7082V10.7245H13.3946V10.7352C13.3838 10.7461 13.3676 10.7623 13.3568 10.7515C13.3459 10.7461 13.3459 10.7352 13.3459 10.7299H13.3244C13.3081 10.7191 13.3135 10.7028 13.3244 10.6921V10.6867L13.3352 10.7028C13.3513 10.7028 13.3622 10.7028 13.3676 10.6812L13.3622 10.665H13.3405L13.3568 10.6488H13.3622C13.3622 10.638 13.3622 10.6271 13.3513 10.6217H13.3244V10.6543H13.3135L13.3081 10.638V10.6326C13.3046 10.6318 13.3009 10.6317 13.2974 10.6324C13.2937 10.6331 13.2903 10.6345 13.2873 10.6365C13.2842 10.6385 13.2817 10.6411 13.2797 10.6442C13.2777 10.6472 13.2763 10.6506 13.2757 10.6543V10.665H13.3027V10.6758C13.2974 10.6867 13.2919 10.6974 13.2757 10.6921L13.2702 10.6812H13.2433C13.2324 10.6758 13.2324 10.6543 13.2324 10.6434H13.2487C13.2648 10.6434 13.2702 10.6271 13.2702 10.6164L13.2595 10.6056H13.2541L13.2378 10.611V10.5893C13.2378 10.5677 13.1891 10.5569 13.1839 10.5677C13.2217 10.6001 13.2163 10.6867 13.2 10.7407ZM13.0541 11.9299C13.0054 11.9145 12.9525 11.9189 12.907 11.9421C12.8615 11.9655 12.8269 12.0057 12.8108 12.0543C12.7978 12.0968 12.7997 12.1425 12.8162 12.1839C12.8162 12.1678 12.8162 12.1515 12.827 12.1407C12.8341 12.1254 12.8453 12.1123 12.8595 12.1028C12.854 12.1245 12.8486 12.1406 12.854 12.1569C12.854 12.1839 12.8649 12.2109 12.8811 12.2217L12.8864 12.1893L12.8973 12.1839L12.9081 12.1893L12.919 12.2217V12.2596C12.9147 12.2737 12.9076 12.2867 12.8982 12.2981C12.8886 12.3093 12.877 12.3185 12.8637 12.325C12.8506 12.3316 12.8362 12.3354 12.8216 12.3363C12.8069 12.3372 12.7922 12.3349 12.7784 12.3298C12.7681 12.3268 12.7589 12.3213 12.7514 12.3137C12.7298 12.2974 12.7027 12.292 12.6757 12.2813C12.6454 12.2717 12.6128 12.2737 12.5837 12.2866C12.5728 12.2915 12.5632 12.2991 12.5556 12.3084C12.5482 12.3179 12.543 12.3288 12.5406 12.3407C12.5486 12.3319 12.5589 12.3256 12.5705 12.3226C12.5821 12.3197 12.5942 12.3204 12.6054 12.3244C12.6163 12.3244 12.6163 12.3353 12.6163 12.3407C12.6216 12.3623 12.6487 12.3785 12.6703 12.3785L12.719 12.3623L12.7298 12.3677C12.7351 12.3785 12.7298 12.3839 12.7244 12.3839L12.6811 12.3948C12.6516 12.4094 12.6285 12.4345 12.6163 12.465C12.6109 12.4866 12.6163 12.519 12.627 12.5353C12.627 12.5136 12.6379 12.4866 12.6594 12.4812H12.6811C12.6916 12.4869 12.7037 12.4888 12.7154 12.4869C12.7271 12.4848 12.7379 12.479 12.7459 12.4705L12.7729 12.4164L12.7838 12.4109C12.7892 12.4109 12.7946 12.4164 12.7946 12.4272L12.7838 12.4596C12.7838 12.492 12.8 12.5245 12.8108 12.5514C12.827 12.5731 12.854 12.5786 12.8811 12.5786C12.8706 12.5738 12.8615 12.5662 12.8548 12.5566C12.8481 12.5472 12.8442 12.5361 12.8433 12.5245L12.854 12.5029C12.8811 12.492 12.8864 12.465 12.8811 12.4488L12.8703 12.4326L12.8649 12.4164L12.8703 12.4055H12.8811C12.9675 12.4542 13.0756 12.4379 13.1352 12.3623L13.0919 12.357C13.0756 12.357 13.0649 12.3461 13.0486 12.3353C13.0919 12.3353 13.1352 12.3083 13.1567 12.2704C13.15 12.273 13.1429 12.2742 13.1357 12.274C13.1285 12.2737 13.1213 12.2721 13.1149 12.269C13.1083 12.266 13.1024 12.2617 13.0976 12.2563C13.0927 12.251 13.0889 12.2448 13.0865 12.238C13.084 12.2312 13.0827 12.224 13.083 12.2168C13.0832 12.2096 13.0848 12.2026 13.0879 12.196C13.0909 12.1895 13.0952 12.1835 13.1006 12.1787C13.1059 12.1738 13.1121 12.1702 13.1189 12.1678C13.1311 12.1631 13.1446 12.1631 13.1567 12.1678C13.1622 12.1678 13.173 12.1678 13.1784 12.1569C13.1904 12.1104 13.1842 12.0609 13.1611 12.0188C13.1381 11.9767 13.0997 11.9449 13.0541 11.9299ZM12.7027 10.9839C12.7135 11.0001 12.7351 11.0109 12.7568 11.0164L12.7892 11.0218H13.0054C12.9406 11.0055 12.8649 10.9948 12.8055 10.9731C12.789 10.9679 12.7741 10.9586 12.7622 10.9461C12.7439 10.9278 12.7197 10.9166 12.694 10.9146C12.6681 10.9127 12.6425 10.92 12.6216 10.9353H12.6541C12.6757 10.9461 12.6865 10.9623 12.7081 10.9839H12.7027Z" fill="white"/>
<path d="M12.8816 10.9459C12.8816 10.9568 12.8869 10.9784 12.8978 10.9892C12.9086 10.9568 12.9465 10.9351 12.9789 10.9514C12.9926 10.9573 13.0039 10.9679 13.0108 10.9813C13.0176 10.9946 13.0196 11.0099 13.0163 11.0246C13.0132 11.0393 13.005 11.0524 12.9933 11.0616C12.9815 11.0709 12.9669 11.076 12.9519 11.0756C12.9428 11.0731 12.935 11.0673 12.9299 11.0593C12.925 11.0513 12.9231 11.0417 12.9248 11.0325C12.9173 11.0399 12.9118 11.0492 12.9086 11.0595L12.8869 11.146C12.8816 11.1675 12.8654 11.1621 12.8545 11.1784C12.9465 11.1513 12.9626 11.1784 12.9789 11.173L13.0978 11.1297C13.1032 11.1297 13.114 11.1134 13.1087 11.1081V11.0649L13.1194 11.0432H13.1302V11.0595C13.1194 11.0756 13.1194 11.0919 13.1302 11.1027L13.1357 11.1134L13.1518 11.1406V11.146L13.087 11.1675C13.0761 11.173 13.0708 11.1784 13.0761 11.1945C13.0761 11.2054 13.0761 11.2108 13.0654 11.2217C13.06 11.2269 13.0491 11.2378 13.0383 11.2378L12.8762 11.2541C12.8543 11.2609 12.8352 11.2746 12.8216 11.293C12.808 11.3115 12.8005 11.3338 12.8005 11.3567C12.8438 11.3459 12.8816 11.3567 12.9248 11.373L12.9519 11.3891L12.9248 11.4108C12.9094 11.4242 12.8969 11.4407 12.8886 11.4595C12.8801 11.4782 12.876 11.4984 12.8762 11.5189C12.8949 11.5106 12.9152 11.5062 12.9356 11.5062C12.9562 11.5062 12.9764 11.5106 12.9951 11.5189L13.0221 11.5297L13.0004 11.5513C12.9858 11.5647 12.9761 11.5828 12.9732 11.6026C12.9702 11.6222 12.9741 11.6423 12.9843 11.6594C13.0023 11.6432 13.0242 11.6318 13.0477 11.6261C13.0713 11.6205 13.0959 11.6207 13.1194 11.627L13.1357 11.6324V11.6486C13.1357 11.681 13.1465 11.7081 13.1681 11.7297C13.2005 11.6973 13.2437 11.6757 13.287 11.6649C13.3303 11.654 13.3573 11.6108 13.3681 11.5675C13.287 11.6108 13.2924 11.5568 13.314 11.5405C13.3573 11.4865 13.3681 11.4324 13.3897 11.3622V11.3297C13.3798 11.3209 13.3723 11.3098 13.3681 11.2973C13.4221 11.3352 13.4653 11.2756 13.4599 11.2432C13.4275 11.2756 13.4167 11.2595 13.4167 11.2432C13.4167 11.227 13.4329 11.081 13.3951 11.0053C13.4329 11.0162 13.4653 10.9999 13.4762 10.9621V10.9514C13.4545 10.9621 13.4221 10.9514 13.4059 10.9351L13.3681 10.8973C13.3174 10.8433 13.2543 10.8024 13.1843 10.7783C13.1755 10.7861 13.1653 10.7922 13.1541 10.7959C13.143 10.7995 13.1311 10.801 13.1194 10.8H13.0221C13.0004 10.7892 12.9789 10.8 12.968 10.8162C12.9412 10.8341 12.912 10.8486 12.8816 10.8594C12.8708 10.8648 12.8654 10.8757 12.8654 10.8864L12.8708 10.8973C12.8763 10.9039 12.8802 10.9118 12.8821 10.9203C12.884 10.9288 12.8838 10.9375 12.8816 10.9459ZM13.033 10.8648L13.1194 10.8864C13.0978 10.919 13.0491 10.9242 13.0113 10.9027V10.8864L13.033 10.8648Z" fill="white"/>
<path d="M12.2704 11.1404C12.2865 11.162 12.3136 11.1674 12.3352 11.1511L12.3676 11.135H12.3839V11.1458C12.3731 11.189 12.3946 11.2322 12.4325 11.2431H12.4542C12.465 11.2701 12.4811 11.2918 12.5028 11.3079H12.492C12.4796 11.3074 12.4676 11.3036 12.4572 11.297C12.4467 11.2904 12.4383 11.281 12.4325 11.2701C12.4325 11.2918 12.4325 11.3242 12.4542 11.335C12.4811 11.3566 12.5081 11.3674 12.5407 11.3674C12.5278 11.3729 12.5141 11.3758 12.5001 11.3758C12.4862 11.3758 12.4723 11.3729 12.4596 11.3674C12.4717 11.3924 12.493 11.4117 12.519 11.4214L12.6812 11.4431C12.7244 11.4485 12.7244 11.4864 12.7623 11.4755C12.7904 11.4654 12.8175 11.4527 12.8434 11.4377C12.8487 11.4214 12.8541 11.4053 12.8704 11.389C12.8417 11.3808 12.8112 11.3828 12.7838 11.3944L12.7514 11.4053V11.3729C12.7514 11.3457 12.7514 11.3187 12.7623 11.2918C12.7299 11.2918 12.7082 11.2863 12.6758 11.2755L12.6433 11.2646C12.6164 11.2485 12.5892 11.2376 12.5677 11.2107L12.5622 11.2052L12.5568 11.1944V11.1782L12.5407 11.1565C12.5238 11.1249 12.5146 11.0897 12.5136 11.0539L12.5081 11.0106L12.519 10.9458C12.5194 10.9148 12.5099 10.8845 12.492 10.8593C12.4856 10.8511 12.4774 10.8444 12.468 10.8397C12.4587 10.835 12.4484 10.8324 12.4379 10.8323H12.4272C12.4487 10.8431 12.465 10.8647 12.465 10.8863C12.465 10.8971 12.4596 10.9025 12.4542 10.9025C12.4272 10.9188 12.4163 10.9404 12.4217 10.9619L12.4325 10.9728L12.4379 10.9998V11.0052C12.4379 11.016 12.4325 11.0215 12.4217 11.016H12.4163L12.4055 10.9998C12.3893 10.9836 12.3946 10.9782 12.3731 10.9458C12.3541 10.9203 12.3276 10.9014 12.2974 10.8917C12.2704 10.8917 12.2487 10.9025 12.2325 10.9134C12.2541 10.9134 12.2811 10.9188 12.2974 10.9404V10.9566C12.2865 10.9836 12.2974 11.0106 12.3136 11.0215H12.3244C12.3406 11.0269 12.3515 11.0376 12.3568 11.0485C12.3622 11.0485 12.3676 11.0539 12.3622 11.0647L12.3515 11.0701H12.3082C12.2762 11.0761 12.2474 11.0934 12.2271 11.1187C12.2204 11.1269 12.2155 11.1365 12.2126 11.1467C12.2098 11.157 12.2092 11.1678 12.2109 11.1782V11.189C12.2146 11.1767 12.2216 11.1658 12.2312 11.1572C12.2406 11.1486 12.2524 11.1428 12.265 11.1404C12.265 11.1296 12.265 11.135 12.2704 11.1404ZM13.5514 11.2107C13.4703 11.389 13.6109 11.5728 13.6758 11.7295C13.7136 11.8215 13.7298 11.9187 13.7189 12.0107L13.7136 12.0431C13.7041 12.0706 13.6855 12.094 13.6611 12.1097C13.6365 12.1254 13.6074 12.1324 13.5784 12.1296C13.573 12.1296 13.5676 12.1296 13.5676 12.1188C13.5676 12.0647 13.5406 12.0214 13.5028 11.989C13.4109 11.9079 13.3784 11.8972 13.3298 11.8322C13.3127 11.8148 13.3006 11.793 13.2949 11.7691C13.2892 11.7454 13.29 11.7205 13.2974 11.6971C13.276 11.6978 13.2549 11.7034 13.2361 11.7138C13.2173 11.7241 13.2013 11.7387 13.1892 11.7565L13.1785 11.7728L13.1622 11.7619C13.1422 11.7516 13.125 11.7362 13.1128 11.7173C13.1004 11.6984 13.0932 11.6764 13.092 11.6539C13.0738 11.6503 13.055 11.652 13.0379 11.6587C13.0206 11.6653 13.0056 11.6768 12.9947 11.6917L12.9785 11.708L12.9676 11.6917C12.9605 11.6839 12.955 11.6747 12.9515 11.6647H12.9082C12.8918 11.6957 12.8719 11.7249 12.8487 11.7512L13.1352 11.8972C13.2271 11.9511 13.2703 12.0701 13.2433 12.1727C13.2379 12.189 13.2001 12.3295 13.2163 12.4052C13.2163 12.4485 13.2433 12.4917 13.2757 12.5241L13.2703 12.4701C13.2703 12.4593 13.2703 12.443 13.2812 12.4323C13.2812 12.4485 13.2812 12.4701 13.2974 12.4863C13.3082 12.5026 13.3298 12.5187 13.3514 12.5296C13.3466 12.5119 13.3466 12.4932 13.3514 12.4754C13.3542 12.4638 13.3595 12.453 13.3671 12.4437C13.3745 12.4343 13.384 12.4268 13.3947 12.4215C13.4379 12.4052 13.4758 12.3674 13.4866 12.3241C13.4973 12.3619 13.4919 12.4052 13.4703 12.4376C13.4919 12.4593 13.5028 12.4917 13.4919 12.5133C13.4898 12.5287 13.4843 12.5434 13.4759 12.5565C13.4674 12.5695 13.4563 12.5806 13.4434 12.589C13.4434 12.589 13.4109 12.6052 13.3298 12.5728C13.2972 12.5636 13.2622 12.5674 13.2325 12.5837C13.2215 12.5886 13.2119 12.596 13.2043 12.6054C13.1968 12.6148 13.1916 12.6259 13.1892 12.6376C13.1975 12.6277 13.209 12.6206 13.2216 12.6177C13.2344 12.6148 13.2476 12.6161 13.2596 12.6215C13.2649 12.6215 13.2703 12.6268 13.2703 12.6376C13.2703 12.6593 13.2974 12.6755 13.3244 12.6701H13.3406C13.3493 12.6641 13.3583 12.6587 13.3677 12.6539C13.3784 12.6539 13.3838 12.6646 13.3838 12.6701L13.3731 12.6809L13.3298 12.6917C13.3023 12.7075 13.2813 12.7324 13.2703 12.762C13.2596 12.7836 13.2649 12.816 13.2757 12.8323C13.2757 12.8053 13.2866 12.7836 13.3136 12.7728H13.3298C13.3397 12.779 13.3514 12.7819 13.3631 12.7809C13.3749 12.78 13.386 12.7752 13.3947 12.7674L13.4001 12.7512L13.4217 12.7133L13.4379 12.7079L13.4434 12.7242C13.4394 12.7433 13.4321 12.7616 13.4217 12.7781C13.4072 12.8065 13.4015 12.8386 13.4055 12.8701C13.4109 12.8917 13.4271 12.9134 13.4541 12.9242C13.4379 12.9025 13.4379 12.8755 13.4488 12.8538C13.4488 12.8485 13.4595 12.8431 13.4649 12.8485C13.4919 12.8485 13.519 12.8268 13.519 12.8053C13.519 12.7836 13.4973 12.7728 13.5028 12.762C13.5028 12.7512 13.5082 12.7512 13.5136 12.7512C13.5274 12.7537 13.5416 12.7522 13.5546 12.7471C13.5677 12.7419 13.5791 12.7332 13.5874 12.722C13.5958 12.7109 13.6009 12.6976 13.6023 12.6836C13.6035 12.6697 13.6009 12.6557 13.5947 12.6431C13.5569 12.562 13.7028 12.4971 13.7028 12.443C13.708 12.4259 13.7065 12.4073 13.6984 12.3912C13.6903 12.3752 13.6764 12.3627 13.6595 12.3566H13.6217C13.6054 12.3566 13.5893 12.3458 13.5839 12.3241C13.5752 12.2869 13.5585 12.2518 13.5352 12.2214L13.5514 12.1999C13.6487 12.2106 13.7406 12.1457 13.7676 12.0539C13.7767 12.0315 13.7823 12.0078 13.7839 11.9836C13.7839 11.8809 13.7676 11.7836 13.7298 11.6917C13.665 11.5295 13.4973 11.335 13.638 11.1674C13.692 11.0971 13.7731 11.108 13.8055 11.135C13.8325 11.1511 13.8596 11.189 13.8866 11.2755C13.9028 11.3403 13.9514 11.3836 14.0163 11.3944C13.9921 11.3731 13.9751 11.3447 13.9677 11.3133L13.9785 11.2918L14.0001 11.2972C14.0433 11.362 14.1299 11.3729 14.1893 11.3296C14.2087 11.3162 14.2238 11.2974 14.2325 11.2755C14.2181 11.2849 14.2016 11.2904 14.1846 11.2912C14.1676 11.2923 14.1504 11.2886 14.1352 11.2809C14.0812 11.2646 14.0812 11.1944 14.0433 11.1511C14.0108 11.1018 13.9635 11.064 13.9081 11.043C13.8385 11.0239 13.7642 11.03 13.6988 11.0608C13.6334 11.0916 13.5811 11.1447 13.5514 11.2107Z" fill="white"/>
<path d="M12.5248 11.9458C12.541 11.9621 12.5626 11.973 12.5842 11.973H12.5896C12.568 11.9567 12.5518 11.9405 12.5518 11.9134C12.5518 11.9027 12.5572 11.8973 12.5626 11.8973C12.5842 11.8864 12.595 11.8594 12.5842 11.8323L12.5789 11.8216C12.5736 11.8153 12.5699 11.8079 12.568 11.7999V11.7892L12.5842 11.7783C12.622 11.7999 12.6707 11.7838 12.687 11.7513L12.6924 11.7297C12.7152 11.7193 12.7369 11.7066 12.7572 11.6918L12.7626 11.7027C12.7626 11.7242 12.7409 11.7459 12.714 11.7566C12.7409 11.7566 12.7681 11.7566 12.7842 11.7405C12.8112 11.7242 12.8275 11.6864 12.8275 11.6594C12.8383 11.6864 12.8383 11.7135 12.822 11.7405C12.8386 11.7323 12.8526 11.7201 12.863 11.7049C12.8734 11.6898 12.8798 11.6723 12.8816 11.654C12.8816 11.6431 12.8923 11.6378 12.8977 11.6378L12.9031 11.6431H12.941C12.9352 11.6253 12.9332 11.6066 12.9351 11.588C12.9369 11.5693 12.9426 11.5513 12.9518 11.535C12.9376 11.532 12.9227 11.5324 12.9087 11.5361C12.8946 11.5398 12.8816 11.5469 12.8707 11.5567L12.849 11.5729L12.8437 11.5459C12.8329 11.5243 12.8275 11.4918 12.8329 11.4702C12.7248 11.5567 12.714 11.6053 12.6113 11.6378C12.577 11.6513 12.5399 11.6569 12.5032 11.654H12.4599L12.4058 11.627C12.3733 11.6178 12.3384 11.6216 12.3086 11.6378C12.2989 11.6436 12.2904 11.6515 12.2839 11.6608C12.2774 11.6701 12.2729 11.6807 12.2708 11.6918V11.6972C12.2869 11.681 12.3086 11.6703 12.3356 11.6757L12.3519 11.6918C12.3571 11.7135 12.3843 11.7297 12.4058 11.7242H12.4221L12.4437 11.7188H12.4545C12.4654 11.7188 12.4654 11.7297 12.4599 11.7351V11.7405L12.3843 11.7783C12.3548 11.7931 12.3317 11.8181 12.3193 11.8486C12.314 11.8649 12.3193 11.8919 12.3247 11.908L12.3302 11.9188C12.3302 11.8919 12.341 11.8649 12.3626 11.854H12.3843C12.4004 11.8649 12.4275 11.8594 12.4437 11.8432C12.4529 11.8277 12.466 11.8145 12.4815 11.8053L12.4924 11.7999C12.4978 11.7999 12.5032 11.8053 12.5032 11.8162C12.5032 11.8323 12.5032 11.8432 12.4924 11.8594C12.4924 11.8919 12.5032 11.9188 12.5248 11.9458Z" fill="white"/>
<path d="M9.29715 14.7568C9.29715 15.3676 9.59981 15.8541 10.162 16.1785C10.6377 16.4486 11.2864 16.5947 11.9999 16.5947C13.3079 16.5947 14.7025 16.1081 14.7025 14.7568V10.1082H9.29715V14.7568ZM10.3783 16.0541C10.3511 16.0433 10.2863 16.0324 10.2648 16.0163C10.1837 15.973 10.1026 15.9243 10.0377 15.8703V13.2H10.3783V16.0541ZM10.5782 16.1406V13.2H10.9187V16.1352C10.8647 16.1459 10.7674 16.1459 10.7134 16.1459L10.5782 16.1406ZM12.0053 16.4055C11.5785 16.4092 11.1537 16.3471 10.7458 16.2216C10.9233 16.2143 11.0972 16.169 11.2556 16.0888C11.4141 16.0087 11.5536 15.8954 11.6647 15.7568C11.8268 15.5676 11.935 15.346 11.9944 15.1027C12.0485 15.3513 12.1566 15.5784 12.3241 15.773C12.562 16.0433 12.908 16.2109 13.2755 16.2216C12.8647 16.346 12.4322 16.4055 12.0053 16.4055ZM11.1187 16.065V13.2H11.1512C11.162 13.4379 11.2971 13.6649 11.4593 13.8487V15.8865C11.3675 15.9567 11.2214 16.0163 11.1187 16.065ZM11.6593 15.6433V14.0324C11.7511 14.0757 11.8539 14.1027 11.9566 14.1081V14.7568C11.9566 15.0812 11.8539 15.3839 11.6593 15.6433ZM14.508 14.7514C14.508 15.3082 14.2484 15.7351 13.7404 16.0217C13.6756 16.0595 13.6106 16.0919 13.5404 16.1189C13.3295 16.1599 13.1114 16.1445 12.9084 16.0743C12.7052 16.004 12.5242 15.8814 12.3837 15.719C12.1574 15.4497 12.0347 15.1085 12.0377 14.7568V14.1081C12.1512 14.0974 12.2647 14.0649 12.362 14.0109V14.3081C12.3367 14.3156 12.3133 14.328 12.2929 14.3445C12.2724 14.361 12.2555 14.3814 12.2429 14.4045C12.2304 14.4276 12.2225 14.4529 12.2197 14.479C12.2169 14.5052 12.2194 14.5316 12.2269 14.5567C12.2485 14.6217 12.2971 14.6703 12.362 14.6865V14.892C12.362 14.9892 12.3782 15.0812 12.4107 15.173C12.3902 15.1896 12.3734 15.2103 12.3612 15.2337C12.349 15.257 12.3417 15.2826 12.3396 15.309C12.3376 15.3352 12.3409 15.3617 12.3494 15.3867C12.3579 15.4115 12.3714 15.4345 12.3891 15.4541C12.4269 15.4974 12.4809 15.5244 12.5404 15.5244C12.5674 15.5244 12.5944 15.5244 12.6161 15.5135C12.7404 15.6433 12.8971 15.7297 13.0755 15.7676C13.0917 15.8758 13.1998 15.9514 13.3079 15.9297C13.3487 15.9234 13.3864 15.9043 13.4155 15.8751C13.4446 15.846 13.4638 15.8083 13.4701 15.7676C13.6485 15.7244 13.8052 15.6379 13.9296 15.5081C14.0377 15.5459 14.1512 15.4974 14.1945 15.3946C14.2107 15.3569 14.2144 15.3148 14.2045 15.2748C14.1948 15.2348 14.1723 15.1991 14.1403 15.173C14.1675 15.0812 14.1836 14.9838 14.1836 14.892V14.6865C14.2231 14.673 14.2573 14.6476 14.2815 14.6136C14.3057 14.5797 14.3188 14.5391 14.3188 14.4973C14.3188 14.4557 14.3057 14.415 14.2815 14.381C14.2573 14.3471 14.2231 14.3216 14.1836 14.3081V13.7514C14.2917 13.719 14.3512 13.6108 14.3241 13.5027C14.3068 13.4523 14.2709 13.4101 14.2238 13.385C14.1767 13.3601 14.1217 13.3538 14.0701 13.3676C14.0384 13.3761 14.0096 13.3925 13.986 13.4152C13.9623 13.4379 13.9447 13.4661 13.935 13.4973H13.4701C13.454 13.4475 13.4189 13.4058 13.3724 13.3816C13.3258 13.3573 13.2716 13.3524 13.2215 13.3676C13.1892 13.3762 13.1597 13.3925 13.1351 13.4152C13.1107 13.4378 13.0921 13.466 13.0809 13.4973H12.7836C12.816 13.4 12.8377 13.2974 12.8431 13.1893H14.5133V14.7568L14.508 14.7514ZM12.6268 15.146C12.589 15.1297 12.5512 15.1243 12.5133 15.1297C12.4887 15.0547 12.476 14.9764 12.4755 14.8973V14.6919C12.5073 14.6821 12.5363 14.6646 12.5597 14.641C12.5833 14.6175 12.6007 14.5887 12.6107 14.5567H13.0431L13.0809 14.6378L12.6268 15.146ZM12.654 15.3298C12.654 15.3892 12.5998 15.4379 12.5457 15.4379C12.5311 15.4386 12.5165 15.4363 12.5027 15.4313C12.489 15.4261 12.4765 15.4183 12.4658 15.4082C12.4552 15.3981 12.4467 15.3859 12.4411 15.3724C12.4353 15.3589 12.4322 15.3444 12.4322 15.3298C12.4322 15.2704 12.4809 15.2217 12.5404 15.2217C12.6053 15.2163 12.6485 15.2704 12.6485 15.3298H12.654ZM12.7134 15.2217L13.1728 14.7081C13.1837 14.7189 13.1998 14.7189 13.2215 14.7244V15.5459C13.162 15.5622 13.1133 15.6001 13.0917 15.654C12.9482 15.618 12.8174 15.5432 12.7134 15.4379C12.734 15.4056 12.7451 15.3681 12.7451 15.3298C12.7451 15.2914 12.734 15.254 12.7134 15.2217ZM13.1404 14.5028C13.1404 14.4271 13.1998 14.373 13.2755 14.373C13.3512 14.373 13.4107 14.4325 13.4107 14.5082C13.4107 14.5784 13.3458 14.6378 13.2755 14.6378C13.2397 14.6378 13.2054 14.6236 13.18 14.5984C13.1547 14.573 13.1404 14.5386 13.1404 14.5028ZM13.2701 15.627C13.335 15.627 13.3836 15.6757 13.3836 15.7351C13.3836 15.7947 13.3296 15.8432 13.2755 15.8432C13.2609 15.844 13.2462 15.8417 13.2325 15.8367C13.2187 15.8315 13.2061 15.8237 13.1955 15.8136C13.1849 15.8035 13.1765 15.7913 13.1707 15.7779C13.165 15.7644 13.162 15.7499 13.162 15.7351C13.162 15.6812 13.2107 15.627 13.2701 15.627ZM13.3296 15.5459V14.7298L13.3782 14.7135L13.8322 15.2217C13.7891 15.2865 13.7944 15.3785 13.8431 15.4379C13.735 15.5459 13.6052 15.6216 13.4647 15.654C13.4357 15.6017 13.3871 15.5627 13.3296 15.5459ZM13.4647 14.6378C13.481 14.6163 13.5025 14.5839 13.508 14.5567H13.935C13.9566 14.6217 14.0053 14.6703 14.0701 14.6919V14.8973C14.0701 14.9784 14.0592 15.0541 14.0323 15.1297H14.0107C13.9783 15.1297 13.9512 15.1406 13.9242 15.1514L13.4647 14.6378ZM14.0053 15.2163C14.0701 15.2163 14.1188 15.2649 14.1188 15.3243C14.1188 15.3537 14.1071 15.382 14.0864 15.4027C14.0656 15.4235 14.0373 15.4352 14.0079 15.4352C13.9785 15.4352 13.9504 15.4235 13.9296 15.4027C13.9088 15.382 13.8972 15.3537 13.8972 15.3243C13.8972 15.2704 13.9512 15.2163 14.0053 15.2163ZM14.0107 14.5028C14.0107 14.4379 14.0647 14.3947 14.1242 14.3947C14.1836 14.3947 14.2323 14.4432 14.2323 14.5028C14.2323 14.5622 14.1836 14.6109 14.1242 14.6109C14.0954 14.6109 14.068 14.5995 14.0478 14.5792C14.0275 14.5589 14.0161 14.5314 14.0161 14.5028H14.0107ZM14.0107 13.5622C14.0107 13.5081 14.0647 13.4541 14.1242 13.4541C14.1836 13.4541 14.2323 13.5081 14.2323 13.5622C14.2323 13.6271 14.1836 13.6703 14.1242 13.6703C14.0954 13.6703 14.068 13.659 14.0478 13.6387C14.0275 13.6184 14.0161 13.5909 14.0161 13.5622H14.0107ZM14.0431 13.7406L14.0701 13.7569V14.3081C14.0383 14.318 14.0094 14.3355 13.9858 14.3591C13.9624 14.3826 13.9449 14.4114 13.935 14.4432H13.508C13.5015 14.4181 13.4904 14.3943 13.4755 14.373L14.0431 13.7406ZM13.389 14.2973L13.335 14.2757V13.7514C13.3658 13.7408 13.3936 13.7229 13.4161 13.6995C13.4387 13.676 13.4554 13.6475 13.4647 13.6162H13.9296C13.9296 13.6325 13.9404 13.6486 13.9566 13.6703L13.389 14.2973ZM13.2701 13.6758C13.2414 13.6758 13.214 13.6643 13.1936 13.6441C13.1733 13.6238 13.162 13.5963 13.162 13.5677C13.162 13.5027 13.2107 13.4594 13.2701 13.4594C13.335 13.4594 13.3836 13.5027 13.3836 13.5677C13.3836 13.6216 13.3296 13.6758 13.2755 13.6758H13.2701ZM13.2161 13.7569V14.2757C13.1967 14.2815 13.1784 14.2907 13.162 14.3027L12.6593 13.746L12.7296 13.6271H13.0809C13.0972 13.6812 13.1511 13.7352 13.2161 13.7569ZM13.0755 14.373C13.0603 14.3942 13.0494 14.418 13.0431 14.4432H12.6107C12.6014 14.4121 12.5847 14.3836 12.5621 14.3601C12.5396 14.3365 12.5117 14.3187 12.4809 14.3081V13.9352C12.5187 13.9028 12.5566 13.8704 12.589 13.8271L13.0755 14.373ZM12.535 14.5028C12.535 14.5622 12.4809 14.6109 12.4215 14.6109C12.3927 14.6109 12.3653 14.5995 12.3451 14.5792C12.3248 14.5589 12.3134 14.5314 12.3134 14.5028C12.3134 14.4379 12.362 14.3947 12.4215 14.3947C12.4809 14.3947 12.5296 14.4432 12.5296 14.5028H12.535ZM12.0377 10.2973H14.508V13.1136H12.8377C12.816 12.627 12.4701 12.2325 12.0377 12.2055V10.2973ZM12.6864 13.1567C12.6864 13.6001 12.3782 13.9622 11.9944 13.9622C11.6161 13.9622 11.3025 13.6001 11.3025 13.1514C11.3025 12.7081 11.6106 12.346 11.9944 12.346C12.3782 12.346 12.6918 12.7081 12.6918 13.1567H12.6864ZM11.9566 10.2973V12.2001C11.7783 12.2108 11.6052 12.2812 11.481 12.4054H11.2647V11.6487H11.362V11.3244H11.2701V11.1082H11.3349V10.919H11.2809V10.9947H11.2161V10.919H11.1079V10.9947H11.0431V10.919H10.9891V11.1082H11.0539V11.3244H10.8539V10.8541H10.935V10.627H10.8756V10.7027H10.7782V10.627H10.6701V10.7027H10.562V10.627H10.5079V10.8541H10.589V11.3244H10.3783V11.1082H10.4431V10.919H10.389V10.9947H10.3296V10.919H10.2106V10.9947H10.1567V10.919H10.1026V11.1082H10.162V11.3244H10.0756V11.6487H10.162V12.4054H9.99989V12.8109H10.562V12.5135C10.562 12.4271 10.6323 12.3622 10.7134 12.3622C10.7999 12.3622 10.9134 12.4325 10.9134 12.5135V12.8109H11.2107C11.1729 12.919 11.1512 13.0001 11.1457 13.1082H9.4863V10.2973H11.9566ZM11.0431 11.746V11.9622H10.8702V11.746C10.8702 11.7028 10.9134 11.6649 10.9566 11.6649C11.0052 11.6649 11.0431 11.7028 11.0431 11.746ZM10.5675 11.746V11.9622H10.3944V11.746C10.3944 11.7028 10.4377 11.6649 10.4809 11.6649C10.5296 11.6649 10.5675 11.7028 10.5675 11.746ZM9.4863 13.1946H9.83769V15.627C9.62315 15.3849 9.50068 15.0749 9.49172 14.7514V13.1946H9.4863ZM8.87554 10.5838C8.87554 10.5695 8.86984 10.5558 8.85969 10.5456C8.84957 10.5355 8.83582 10.5298 8.82148 10.5298H8.16202C8.14769 10.5298 8.13394 10.5355 8.1238 10.5456C8.11366 10.5558 8.10797 10.5695 8.10797 10.5838C8.10797 10.6 8.12418 10.6163 8.1404 10.627C8.17284 10.6487 8.19446 10.6866 8.19446 10.7244C8.19446 10.7622 8.17284 10.8055 8.1404 10.8271C8.12418 10.8379 8.11337 10.8595 8.11878 10.8812C8.11337 10.9136 8.13499 10.9352 8.16743 10.9352H8.83229C8.84663 10.9352 8.86038 10.9295 8.87052 10.9194C8.88064 10.9092 8.88635 10.8954 8.88635 10.8812C8.88655 10.87 8.88362 10.859 8.87788 10.8494C8.87214 10.8399 8.86384 10.8321 8.85391 10.8271C8.83793 10.8166 8.825 10.8021 8.81646 10.7849C8.80791 10.7679 8.80405 10.7489 8.80526 10.7298C8.80526 10.692 8.81607 10.6542 8.85391 10.6325C8.86091 10.6254 8.86642 10.6169 8.87013 10.6076C8.87383 10.5983 8.87567 10.5884 8.87554 10.5785V10.5838ZM8.91877 15.3189H7.9458V15.5946H8.91877V15.3189ZM8.41607 11.7784C8.52419 11.7622 8.6431 11.7514 8.75661 11.7514V11.0271H8.21607V11.8217L8.41607 11.7784ZM8.71338 13.5838C8.50797 13.6973 8.39445 13.8 8.21607 13.8757V14.892C8.21607 15.0271 8.15662 15.1136 8.11878 15.173C8.11337 15.1893 8.11337 15.2054 8.12959 15.2163H8.78364C8.80526 15.2163 8.81607 15.1947 8.79986 15.173C8.76742 15.119 8.75661 15.0325 8.75661 14.892V13.573L8.71338 13.5838ZM8.82148 12.6649V12.9838C8.90796 12.9297 8.98364 12.8649 9.05931 12.7892L9.09715 12.7514C9.01377 12.7003 8.91909 12.6707 8.82148 12.6649ZM9.24311 15.8217C9.16202 15.8432 9.08093 15.8486 8.99986 15.8379C8.93537 15.8253 8.87208 15.8072 8.81067 15.7838C8.60264 15.6997 8.37005 15.6997 8.16202 15.7838C8.10256 15.8108 8.03769 15.8271 7.97283 15.8379C7.89715 15.8486 7.82148 15.8432 7.7458 15.8271L7.67554 15.8162V15.9136L7.72959 15.9189C7.81837 15.9378 7.90946 15.9432 7.99986 15.9352C8.06472 15.9189 8.13499 15.9028 8.19985 15.8758C8.29065 15.8379 8.38801 15.8185 8.48635 15.8185C8.58468 15.8185 8.68203 15.8379 8.77283 15.8758C8.93855 15.9463 9.12303 15.9595 9.29715 15.9136V15.8162L9.24311 15.8217Z" fill="white"/>
<path d="M9.24311 16.0429C9.16202 16.0592 9.08093 16.0646 8.99986 16.0537C8.93537 16.0411 8.87208 16.0231 8.81067 15.9996C8.60264 15.9155 8.37005 15.9155 8.16202 15.9996C8.10256 16.0267 8.03769 16.0429 7.97283 16.0537C7.89715 16.0646 7.82148 16.0592 7.7458 16.0429L7.67554 16.032V16.1294L7.72959 16.1402C7.81864 16.1572 7.90973 16.1608 7.99986 16.151C8.06472 16.1402 8.13499 16.1186 8.19985 16.097C8.29065 16.0591 8.38801 16.0397 8.48635 16.0397C8.58468 16.0397 8.68203 16.0591 8.77283 16.097C8.8431 16.1186 8.90796 16.1402 8.98364 16.151C9.08855 16.1643 9.19506 16.157 9.29715 16.1294V16.032L9.24311 16.0429Z" fill="white"/>
<path d="M9.24311 16.2487C9.16202 16.2702 9.08093 16.2702 8.99986 16.2594C8.93537 16.2468 8.87208 16.2287 8.81067 16.2054C8.60264 16.1213 8.37005 16.1213 8.16202 16.2054C8.10256 16.2324 8.03769 16.2541 7.97283 16.2594C7.89715 16.2702 7.82148 16.2702 7.7458 16.2541L7.67554 16.2378V16.3351L7.72959 16.3459C7.81864 16.3629 7.90973 16.3666 7.99986 16.3568C8.06472 16.3459 8.13499 16.3243 8.19985 16.3026C8.29065 16.2649 8.38801 16.2455 8.48635 16.2455C8.58468 16.2455 8.68203 16.2649 8.77283 16.3026C8.8431 16.3243 8.90796 16.3459 8.98364 16.3568C9.08855 16.37 9.19506 16.3627 9.29715 16.3351V16.2378L9.24311 16.2487ZM8.75661 12.3675C8.57224 12.3693 8.3895 12.4022 8.21607 12.4649V13.3352C8.37823 13.2649 8.52419 13.173 8.67013 13.0757L8.75661 13.0216V12.3675ZM7.87012 13.8162L7.85392 13.8919C8.32443 13.727 8.76728 13.4919 9.16743 13.1945L9.12418 12.854C8.77631 13.1392 8.3786 13.3572 7.95121 13.4972L7.87012 13.8162ZM7.95121 12.0865L7.92959 12.0919L7.96743 12.1946L7.98905 12.1838C8.01608 12.1676 8.02149 12.1405 8.01067 12.1135C8.00602 12.1035 7.99817 12.0955 7.98835 12.0905C7.97854 12.0856 7.96735 12.0842 7.95662 12.0865H7.95121Z" fill="white"/>
<path d="M8.3675 11.8595C7.92425 11.9243 7.59452 12.0972 7.49182 12.2379C7.48024 12.25 7.47135 12.2645 7.46576 12.2804C7.46017 12.2961 7.458 12.313 7.45939 12.3297L7.62155 12.6919L7.64317 12.6541C7.7675 12.4919 8.11344 12.3459 8.4702 12.2973C8.77104 12.258 9.0764 12.2708 9.3729 12.3351V11.8865C9.04096 11.8267 8.70169 11.8194 8.3675 11.8649V11.8595ZM8.09722 12.1405C8.08641 12.1729 8.04318 12.2 7.97831 12.2216L8.02696 12.3459L7.94587 12.3784L7.83237 12.0919L7.95669 12.0432C8.04318 12.0108 8.08102 12.0432 8.09183 12.0757C8.10263 12.0972 8.10263 12.1243 8.09183 12.1405H8.09722ZM8.23776 12.2811L8.1729 11.9891L8.18372 11.9837H8.21615C8.22597 11.9827 8.23532 11.9789 8.24318 11.973L8.2594 11.9676L8.31344 12.2216C8.36209 12.2162 8.39453 12.2054 8.42695 12.1946L8.44317 12.2379L8.23776 12.2811ZM8.75668 11.9459C8.71345 12.0324 8.67561 12.1243 8.64858 12.2162V12.2216L8.59453 12.227L8.43236 11.9406V11.9297L8.52426 11.9243L8.59994 12.0702C8.61614 12.0865 8.62155 12.1026 8.63236 12.1243C8.65939 12.0648 8.68642 11.9891 8.70804 11.908H8.76749L8.75668 11.9459ZM8.82696 12.1892C8.83609 12.172 8.84333 12.1539 8.84858 12.1351H8.8648C8.87561 12.1676 8.89723 12.1892 8.92965 12.1892C8.95668 12.1892 8.98371 12.1837 8.98371 12.1513C8.98371 12.1243 8.96209 12.1135 8.92965 12.0972C8.88642 12.0757 8.83777 12.0541 8.84858 11.9891C8.84858 11.9459 8.89182 11.8973 8.97831 11.9027C9.01074 11.9027 9.03777 11.9189 9.05939 11.9352H9.0648V11.9459C9.05611 11.9576 9.04886 11.9703 9.04317 11.9837H9.02696C9.02339 11.9724 9.01615 11.9625 9.00638 11.9557C8.99659 11.9488 8.98482 11.9454 8.9729 11.9459C8.94048 11.9406 8.91884 11.9513 8.91884 11.973C8.91884 12 8.94587 12.0108 8.9729 12.027C9.01615 12.0487 9.0702 12.0811 9.0648 12.1351C9.0648 12.1892 9.01074 12.2216 8.93506 12.2216H8.90804C8.87763 12.2188 8.84815 12.2096 8.82155 12.1946L8.82696 12.1892Z" fill="white"/>
<path d="M8.05371 12.962V12.5673C7.99965 12.5673 7.95642 12.5673 7.90776 12.5565C7.83749 12.5889 7.76723 12.643 7.71317 12.7078L7.69695 12.7295L7.66992 12.7835C7.68614 12.8863 7.83208 12.9457 8.0483 12.962H8.05371ZM11.9672 7.21056H12.0321V7.10785H12.1023V7.0484H12.0321V6.96191H11.9672V7.0484H11.897V7.10785H11.9672V7.21597V7.21056ZM9.68613 8.97271C9.69156 8.97812 9.68613 8.98354 9.68071 8.98354C9.64388 9.00633 9.61538 9.04047 9.59961 9.08083C9.59419 9.09164 9.59961 9.09705 9.60503 9.10245H9.61588C9.7024 9.06461 9.80507 9.10245 9.84291 9.18893C9.85375 9.20515 9.85375 9.21596 9.85375 9.23218L9.8699 9.24299H9.88075C9.90332 9.22744 9.93082 9.22102 9.95793 9.22503C9.98505 9.22905 10.0096 9.24319 10.0267 9.26461C10.0379 9.28007 10.0447 9.29822 10.0466 9.31721C10.0485 9.3362 10.0453 9.35534 10.0375 9.37272V9.38893C10.27 9.53488 10.4159 9.77815 10.4429 10.043C10.4429 10.0537 10.4483 10.0537 10.4592 10.0537C11.351 9.78888 12.6321 9.78888 13.5293 10.0537C13.5347 10.0537 13.5456 10.0537 13.551 10.043C13.578 9.77273 13.7239 9.54028 13.951 9.39434V9.37272C13.9294 9.31867 13.951 9.2538 14.0051 9.22677C14.0225 9.21887 14.0415 9.21571 14.0606 9.21761C14.0796 9.2195 14.0976 9.2264 14.1132 9.23758H14.1347V9.22677C14.1415 9.18173 14.1656 9.14114 14.2021 9.11382C14.2385 9.08649 14.2843 9.07464 14.3293 9.08083L14.3726 9.09705C14.3834 9.09705 14.3889 9.09705 14.3943 9.08623V9.07542C14.3882 9.05446 14.3779 9.03497 14.364 9.01822C14.35 9.00147 14.3327 8.98781 14.3132 8.97812C14.3078 8.97812 14.3023 8.96732 14.3078 8.96191C14.3564 8.86461 14.3834 8.76191 14.3996 8.64839C14.4645 8.10786 13.9564 7.83218 13.2105 7.94028C13.0483 7.66461 12.6212 7.56732 12.0808 7.68624C12.0753 7.63218 12.0808 7.5457 11.9942 7.5457C11.9131 7.5457 11.9077 7.63218 11.9077 7.68624C11.3673 7.56732 10.9456 7.66461 10.7834 7.94028C10.0375 7.82677 9.52936 8.10786 9.59419 8.64839C9.61046 8.76732 9.64287 8.87542 9.68613 8.97271ZM10.6158 9.82671C10.6007 9.82785 10.5855 9.82432 10.5724 9.81675C10.5593 9.80905 10.5488 9.7977 10.5423 9.78396C10.5357 9.77033 10.5333 9.75495 10.5356 9.73993C10.538 9.72492 10.5447 9.71093 10.555 9.69979C10.5654 9.68867 10.5789 9.6809 10.5936 9.67752C10.6084 9.67414 10.6239 9.67529 10.638 9.68082C10.6521 9.68635 10.6644 9.69601 10.6729 9.70855C10.6815 9.72108 10.6861 9.7359 10.6862 9.75104C10.6862 9.7943 10.6591 9.82671 10.6158 9.82671ZM11.2483 9.66462L11.0591 9.78888H11.0429L10.8321 9.70785C10.8267 9.70785 10.8213 9.69704 10.8267 9.69163L10.8321 9.68082L11.0213 9.56191H11.032L11.2483 9.63759V9.66462ZM11.5132 9.73488C11.4902 9.73488 11.4682 9.72577 11.452 9.70955C11.4358 9.69334 11.4267 9.67134 11.4267 9.6484C11.4267 9.59975 11.4645 9.56191 11.5132 9.56191C11.5618 9.56191 11.5996 9.59975 11.5996 9.6484C11.5996 9.69163 11.5618 9.73488 11.5132 9.73488ZM12.2158 9.63759C12.1412 9.67193 12.0673 9.70798 11.9942 9.74569L11.7781 9.63759V9.61596L11.7835 9.61056L11.9997 9.50244H12.0105C12.0808 9.53488 12.151 9.56731 12.2213 9.61056L12.2267 9.62137L12.2158 9.63759ZM12.4861 9.73488C12.4632 9.73488 12.4412 9.72577 12.425 9.70955C12.4088 9.69334 12.3996 9.67134 12.3996 9.6484C12.3996 9.59975 12.4374 9.56191 12.4861 9.56191C12.5348 9.56191 12.5727 9.59975 12.5727 9.6484C12.5727 9.69163 12.5348 9.73488 12.4861 9.73488ZM13.1672 9.70785L12.9565 9.78888H12.9402L12.751 9.66462V9.64299L12.9672 9.5565L12.978 9.56191L13.1672 9.68082C13.1726 9.68623 13.1781 9.69704 13.1672 9.70785ZM13.3834 9.82671C13.3737 9.82684 13.3641 9.82482 13.3553 9.82091C13.3463 9.81713 13.3384 9.81145 13.3317 9.80426C13.3251 9.7972 13.3201 9.78875 13.3169 9.77967C13.3136 9.77046 13.3124 9.76075 13.3131 9.75104C13.3131 9.70785 13.3401 9.68082 13.3834 9.68082C13.4266 9.68082 13.4591 9.70785 13.4591 9.75104C13.4591 9.7943 13.4266 9.82671 13.3834 9.82671ZM13.1672 8.86461C13.1672 8.82138 13.1996 8.78894 13.2429 8.78894C13.2537 8.78894 13.2592 8.78894 13.2592 8.77813L13.2537 8.77272C13.2375 8.76191 13.2213 8.74569 13.205 8.74569C13.1781 8.73488 13.1618 8.71326 13.1672 8.69164C13.2699 8.48623 13.3401 8.21596 13.2375 7.98893C13.6969 7.9457 14.0375 8.04299 14.1564 8.31866C14.2267 8.47001 14.2267 8.64839 14.1673 8.85921V8.87542L14.2104 8.95651V8.97271H14.2051C14.1814 8.97559 14.1589 8.98495 14.1401 8.99974H14.1186C14.1085 8.96349 14.0899 8.93015 14.0645 8.90245C14.0483 8.88623 14.0375 8.90786 14.0266 8.91326C13.9781 8.96732 13.951 9.02677 13.951 9.09705L13.9402 9.10786H13.924C13.9073 9.08619 13.8842 9.07035 13.858 9.06258C13.8318 9.05481 13.8038 9.05553 13.778 9.06461L13.7726 9.07542V9.14029C13.778 9.15109 13.7726 9.15651 13.7672 9.15651H13.7563C13.734 9.14184 13.7069 9.13646 13.6807 9.14151C13.6544 9.14655 13.6312 9.16163 13.6158 9.18353V9.19434C13.6321 9.23218 13.6699 9.26461 13.7024 9.27002C13.7132 9.27002 13.7185 9.27542 13.7185 9.28624H13.7132L13.6915 9.32947C13.6915 9.33488 13.6915 9.34569 13.7024 9.34569H13.7185C13.7315 9.33799 13.7457 9.33304 13.7606 9.33119C13.7755 9.32932 13.7906 9.33058 13.805 9.33489C13.8099 9.35156 13.8115 9.36906 13.8094 9.38633C13.8074 9.40361 13.802 9.4203 13.7934 9.43543C13.7848 9.45055 13.7734 9.4638 13.7596 9.47439C13.7457 9.48497 13.73 9.49268 13.7132 9.49704C13.6964 9.50195 13.679 9.50345 13.6617 9.50146C13.6445 9.49947 13.6277 9.49402 13.6126 9.48545C13.5974 9.47688 13.5842 9.46535 13.5737 9.45155C13.5631 9.43777 13.5554 9.42199 13.551 9.40515L13.5456 9.37812C13.578 9.36191 13.5997 9.32408 13.578 9.28624C13.5564 9.2484 13.5186 9.23218 13.4808 9.2538C13.4483 9.27002 13.4375 9.30786 13.4483 9.34569C13.3294 9.44299 13.0861 9.41056 13.1185 9.23758C13.1185 9.19434 13.1618 9.15651 13.2159 9.16731H13.2213C13.2645 9.17272 13.2916 9.20515 13.297 9.2484C13.297 9.2538 13.297 9.25921 13.3077 9.25921H13.3131C13.3346 9.23947 13.3481 9.21254 13.351 9.18353L13.3564 9.16731H13.3727C13.4158 9.17272 13.4645 9.15651 13.4915 9.12408L13.4969 9.10786C13.4876 9.08867 13.4739 9.0719 13.457 9.05878C13.4401 9.04567 13.4206 9.03657 13.3997 9.03218H13.3834V9.01055C13.3888 8.98354 13.3834 8.95651 13.378 8.92948L13.3618 8.92407L13.3564 8.92948C13.3348 8.97813 13.2807 8.99974 13.232 8.97812C13.1781 8.9457 13.1564 8.90786 13.1618 8.87002L13.1672 8.86461ZM13.1456 8.99434C13.1672 9.03758 13.1509 9.09705 13.1078 9.11867C13.0862 9.13013 13.061 9.13259 13.0378 9.12549C13.0145 9.1184 12.9949 9.10233 12.9834 9.08083C12.9756 9.06273 12.9736 9.04271 12.9775 9.02342C12.9813 9.00412 12.9909 8.98644 13.005 8.97271C13.0136 8.96385 13.0238 8.95689 13.0353 8.95229C13.0466 8.9477 13.0589 8.9456 13.0711 8.9461C13.0835 8.94662 13.0954 8.94973 13.1064 8.95526C13.1174 8.96078 13.1271 8.96858 13.1348 8.97812C13.1348 8.97812 13.1456 8.98354 13.1456 8.99434ZM12.1293 8.39975C12.1456 8.39975 12.1619 8.38894 12.1672 8.36732V8.34569C12.124 8.23759 12.1023 8.12947 12.1023 8.01056C12.1023 7.91867 12.1023 7.83218 12.0915 7.73489C12.524 7.64841 12.8591 7.69164 13.0104 7.89705C13.1618 8.08083 13.0915 8.3565 13.005 8.56191V8.58353L13.0861 8.63759C13.1078 8.66461 13.0645 8.70785 13.0321 8.71326C13.0104 8.71326 12.9943 8.71326 12.978 8.72407C12.9672 8.72407 12.9672 8.73488 12.9672 8.74029L12.978 8.74569C13.0213 8.76732 13.0428 8.82136 13.0213 8.87002C13.0108 8.89109 12.9925 8.90732 12.9705 8.91536C12.9483 8.92341 12.9239 8.92265 12.9023 8.91326C12.8699 8.90245 12.8482 8.87542 12.8482 8.83758C12.8482 8.83219 12.8482 8.82677 12.8375 8.82677H12.8267C12.8072 8.84733 12.7956 8.87417 12.7943 8.90245C12.7943 8.90786 12.7943 8.91326 12.7834 8.91867H12.7726C12.7504 8.91449 12.7274 8.91577 12.7058 8.92235C12.6841 8.92894 12.6645 8.94065 12.6483 8.95651V8.97271C12.6645 9.01055 12.7023 9.04299 12.7456 9.0538H12.7564V9.07542C12.7564 9.10245 12.7564 9.12948 12.7673 9.15109C12.7673 9.1619 12.7726 9.1619 12.7834 9.1619L12.7888 9.15109C12.7935 9.14017 12.8003 9.13032 12.8089 9.12215C12.8176 9.11397 12.8277 9.10767 12.8389 9.10361C12.85 9.09956 12.8619 9.09784 12.8737 9.09857C12.8856 9.09929 12.8972 9.10246 12.9078 9.10786C12.9456 9.12407 12.9672 9.1619 12.9617 9.20515C12.9348 9.37272 12.6753 9.34028 12.5888 9.19434C12.6266 9.17812 12.6429 9.14029 12.6212 9.10245C12.6051 9.07002 12.5672 9.04839 12.5294 9.07002C12.4916 9.09164 12.4753 9.12948 12.497 9.16731L12.5077 9.18353C12.3835 9.34028 12.0321 9.30245 12.0753 9.09705C12.0818 9.07021 12.0983 9.04688 12.1214 9.03179C12.1445 9.01672 12.1725 9.01106 12.1997 9.01596C12.2204 9.01958 12.2397 9.02919 12.2549 9.0436C12.2703 9.058 12.2812 9.07658 12.2861 9.09705L12.2969 9.10786L12.3078 9.09705C12.3239 9.07002 12.3348 9.04299 12.3348 9.01055C12.3348 8.99434 12.3348 8.98354 12.3563 8.98354C12.405 8.98354 12.4537 8.95651 12.4807 8.91326V8.89704C12.4671 8.87633 12.4487 8.85915 12.427 8.84693C12.4054 8.83471 12.3812 8.82781 12.3563 8.82677C12.3294 8.82677 12.3348 8.81596 12.3348 8.79974C12.336 8.76867 12.3265 8.73812 12.3078 8.71326H12.2861L12.2807 8.71867C12.2645 8.77813 12.205 8.81596 12.151 8.79974C12.0969 8.78352 12.0591 8.72407 12.0753 8.67001C12.0808 8.63217 12.1132 8.60516 12.151 8.59435C12.1619 8.59435 12.1619 8.58353 12.1619 8.57813L12.1564 8.56732C12.1364 8.55587 12.1144 8.54852 12.0915 8.54569C12.0645 8.54569 12.0375 8.51326 12.0375 8.48082C12.0375 8.44298 12.0699 8.41597 12.1078 8.41597C12.1186 8.39975 12.124 8.39975 12.1293 8.39975ZM12.1023 8.88623C12.1056 8.91331 12.0984 8.9406 12.0824 8.96266C12.0664 8.98471 12.0427 8.99989 12.0158 9.00515C11.9881 9.00824 11.9601 9.0004 11.9379 8.98325C11.9157 8.96611 11.901 8.94101 11.897 8.91326V8.88083C11.901 8.85308 11.9157 8.82798 11.9379 8.81084C11.9601 8.79369 11.9881 8.78585 12.0158 8.78894C12.0645 8.80516 12.0969 8.83758 12.1023 8.88623ZM10.9889 7.89705C11.1402 7.69705 11.4754 7.6538 11.9077 7.73489L11.897 8.01596C11.8916 8.12947 11.8699 8.24299 11.8375 8.34569L11.832 8.36732C11.832 8.38894 11.8483 8.39975 11.8699 8.40515C11.9077 8.39975 11.9456 8.42137 11.951 8.45921V8.47001C11.951 8.50245 11.9294 8.53488 11.897 8.54029C11.8759 8.54379 11.8558 8.55111 11.8375 8.56191C11.8266 8.56191 11.8266 8.57272 11.832 8.58353L11.8375 8.58894C11.897 8.60516 11.9348 8.66461 11.9186 8.71867C11.9023 8.77272 11.8429 8.81055 11.7888 8.79435C11.7509 8.78894 11.7239 8.75651 11.7131 8.71867C11.7131 8.70785 11.7024 8.70785 11.697 8.70785L11.6861 8.71326C11.6696 8.73918 11.6603 8.76903 11.6591 8.79974C11.6591 8.81596 11.6645 8.82677 11.6429 8.82677C11.5889 8.82677 11.5402 8.8538 11.5132 8.89704V8.91326C11.5402 8.95651 11.5889 8.98354 11.6429 8.98354C11.6645 8.98354 11.6591 8.99434 11.6591 9.01055C11.6591 9.04299 11.67 9.07542 11.6861 9.09705C11.6915 9.10786 11.7024 9.10786 11.7078 9.10245L11.7131 9.09705C11.7164 9.0832 11.7222 9.07012 11.7305 9.05854C11.7387 9.04698 11.7492 9.03714 11.7613 9.02961C11.7733 9.02208 11.7866 9.017 11.8008 9.01466C11.8148 9.01232 11.829 9.01276 11.8429 9.01596C11.8627 9.02052 11.8807 9.03053 11.8951 9.04487C11.9094 9.05921 11.9194 9.07729 11.924 9.09705C11.9618 9.30245 11.605 9.34028 11.4861 9.18353C11.4931 9.17696 11.4988 9.169 11.5026 9.16018C11.5065 9.15133 11.5084 9.14181 11.5084 9.13218C11.5084 9.12255 11.5065 9.11302 11.5026 9.10419C11.4988 9.09536 11.4931 9.0874 11.4861 9.08083C11.4795 9.07379 11.4716 9.06818 11.4627 9.06434C11.4539 9.06051 11.4445 9.05853 11.4347 9.05853C11.4252 9.05853 11.4156 9.06051 11.4067 9.06434C11.3979 9.06818 11.39 9.07379 11.3834 9.08083C11.3755 9.08743 11.3692 9.09569 11.3647 9.10503C11.3603 9.11437 11.3581 9.12456 11.3581 9.13489C11.3581 9.1452 11.3603 9.1554 11.3647 9.16474C11.3692 9.17407 11.3755 9.18233 11.3834 9.18893L11.4051 9.19434C11.324 9.34569 11.0591 9.37812 11.032 9.20515C11.0298 9.19377 11.0298 9.18205 11.032 9.17066C11.0343 9.15928 11.0388 9.14847 11.0454 9.13889C11.052 9.1293 11.0604 9.12114 11.0702 9.11487C11.08 9.10861 11.0909 9.10439 11.1024 9.10245H11.1077C11.1455 9.09705 11.1888 9.11867 11.2051 9.15651H11.2266C11.2408 9.13194 11.2447 9.10283 11.2375 9.07542V9.0538H11.2538C11.2753 9.04926 11.2955 9.0395 11.3124 9.02536C11.3294 9.01123 11.3427 8.99316 11.351 8.97271V8.95651C11.3351 8.94026 11.3154 8.92827 11.2937 8.92166C11.2719 8.91505 11.249 8.91402 11.2266 8.91867H11.2159C11.2051 8.91867 11.2105 8.90786 11.2051 8.90245C11.2051 8.87542 11.1888 8.84839 11.1727 8.83218H11.1564L11.151 8.83758C11.151 8.89164 11.1024 8.92407 11.0537 8.92407C10.9996 8.92407 10.9672 8.87542 10.9672 8.82677C10.9672 8.78894 10.9942 8.76191 11.0213 8.74569C11.032 8.74569 11.032 8.74029 11.032 8.73488L11.0213 8.72407C11.0043 8.71646 10.9859 8.71277 10.9672 8.71326C10.9348 8.71326 10.8915 8.6592 10.9132 8.63759L10.9942 8.58353V8.56191C10.9078 8.3565 10.8375 8.08083 10.9889 7.89705ZM10.8537 8.99434C10.8652 8.97284 10.8847 8.95677 10.908 8.94967C10.9314 8.94258 10.9565 8.94504 10.978 8.95651L10.9996 8.96732C11.0374 8.99974 11.0374 9.0538 11.005 9.09705C10.9726 9.13489 10.9185 9.13489 10.8807 9.10245C10.8375 9.07542 10.8321 9.02677 10.8537 8.99434ZM9.7888 8.9457L9.83206 8.86461V8.84839C9.77808 8.643 9.77808 8.45921 9.83748 8.30785C9.96184 8.03759 10.3024 7.94029 10.7619 7.98353C10.6536 8.20515 10.7293 8.48084 10.8321 8.68623C10.8375 8.70786 10.8213 8.72948 10.7943 8.74029C10.7767 8.7442 10.7602 8.75155 10.7456 8.76191V8.77813L10.7564 8.78353C10.805 8.78353 10.8375 8.83218 10.8375 8.88083C10.8321 8.93488 10.7889 8.96732 10.7402 8.96191C10.7231 8.96082 10.7066 8.95526 10.6924 8.94576C10.6781 8.93628 10.6666 8.9232 10.6591 8.90786L10.6429 8.90245L10.6375 8.90786C10.6267 8.9316 10.6246 8.95849 10.6321 8.98354V9.00515H10.6158C10.5939 9.00871 10.5732 9.01811 10.5561 9.03237C10.539 9.04664 10.526 9.06524 10.5186 9.08623V9.10245C10.551 9.13489 10.5942 9.15109 10.6429 9.14029H10.6591L10.6645 9.1619C10.6645 9.18893 10.6808 9.21596 10.7023 9.23218H10.7132L10.7186 9.22137C10.7186 9.17272 10.7672 9.13489 10.8158 9.14029C10.8591 9.14029 10.8969 9.17812 10.8969 9.21596C10.9294 9.38893 10.6808 9.42137 10.5672 9.32408L10.5727 9.29705C10.5727 9.2793 10.566 9.26221 10.554 9.24917C10.5419 9.23614 10.5255 9.22814 10.5077 9.22677C10.4909 9.22533 10.4743 9.22995 10.4607 9.23979C10.4469 9.24962 10.4373 9.26403 10.4334 9.28039C10.4295 9.29674 10.4315 9.31397 10.4392 9.32893C10.4469 9.34389 10.4598 9.3556 10.4753 9.36191C10.474 9.37947 10.4691 9.39659 10.4609 9.4122C10.4529 9.42781 10.4416 9.44161 10.4279 9.45274C10.4143 9.46386 10.3985 9.47208 10.3816 9.47692C10.3646 9.48175 10.3469 9.48308 10.3294 9.48082C10.3118 9.4795 10.2947 9.47462 10.2791 9.46647C10.2635 9.45831 10.2497 9.44706 10.2386 9.43341C10.2275 9.41975 10.2191 9.40398 10.2143 9.38704C10.2096 9.3701 10.2082 9.35235 10.2104 9.33489V9.31327C10.2252 9.30734 10.2411 9.30477 10.257 9.3057C10.2729 9.30663 10.2884 9.31106 10.3024 9.31866H10.324V9.30244L10.3024 9.26461V9.2484L10.3131 9.24299C10.3327 9.23827 10.3506 9.22891 10.3657 9.21575C10.3807 9.20257 10.3924 9.18596 10.3996 9.16731V9.15651C10.3836 9.13564 10.3604 9.12138 10.3345 9.11641C10.3086 9.11143 10.2818 9.11608 10.2591 9.12948H10.2429V9.0484L10.2374 9.03758C10.1834 9.01596 10.1239 9.03758 10.0861 9.08083H10.0699V9.07002C10.0648 9.00287 10.036 8.93972 9.98884 8.89164C9.97799 8.88623 9.96184 8.86461 9.951 8.88083C9.9288 8.90876 9.91051 8.93969 9.89689 8.97271C9.89159 8.98354 9.88075 8.98354 9.87532 8.97812C9.85489 8.96663 9.83307 8.95755 9.81049 8.9511C9.7888 8.96732 9.78338 8.95651 9.7888 8.9511V8.9457ZM11.9672 7.243C11.9131 7.2484 11.8699 7.29704 11.8592 7.3511H11.9672V7.243ZM12.0321 7.243V7.3511H12.1402C12.1352 7.32427 12.1221 7.29959 12.1028 7.28029C12.0835 7.261 12.0589 7.24799 12.0321 7.243ZM11.9997 7.51326C12.0645 7.51326 12.124 7.47002 12.1347 7.40516H11.8645C11.8753 7.47002 11.9348 7.51326 11.9997 7.51326ZM15.9456 10.5835C15.9456 10.5764 15.9442 10.5693 15.9415 10.5628C15.9387 10.5562 15.9348 10.5503 15.9297 10.5453C15.9247 10.5403 15.9188 10.5363 15.9122 10.5336C15.9057 10.5309 15.8986 10.5295 15.8915 10.5295H15.232C15.2178 10.5295 15.204 10.5352 15.1938 10.5453C15.1837 10.5555 15.178 10.5692 15.178 10.5835C15.178 10.5997 15.1889 10.6213 15.2104 10.6267C15.2429 10.6538 15.2646 10.6863 15.2591 10.7241C15.2603 10.7431 15.2565 10.7622 15.2479 10.7793C15.2393 10.7964 15.2265 10.8109 15.2104 10.8213C15.2005 10.8264 15.1922 10.8342 15.1865 10.8438C15.1808 10.8533 15.1778 10.8642 15.178 10.8755C15.178 10.9079 15.1996 10.9349 15.232 10.9349H15.897C15.9113 10.9349 15.9251 10.9292 15.9352 10.9191C15.9453 10.9089 15.9509 10.8951 15.9509 10.8809C15.9502 10.8699 15.9468 10.8593 15.9412 10.85C15.9355 10.8405 15.9279 10.8327 15.9185 10.8268C15.9009 10.8154 15.8867 10.7991 15.8782 10.78C15.8695 10.7608 15.8666 10.7395 15.87 10.7187C15.8692 10.6991 15.874 10.6797 15.8835 10.6625C15.8929 10.6454 15.907 10.6311 15.9239 10.6213C15.9348 10.6213 15.9456 10.5997 15.9456 10.5835ZM16.032 15.3186H15.0645V15.5943H16.032V15.3186ZM15.5888 11.7836L15.7834 11.8214V11.0268H15.2429V11.7511C15.3618 11.7511 15.4753 11.7619 15.5888 11.7781V11.7836ZM15.2861 13.5835L15.2429 13.5727V14.8917C15.2429 15.0268 15.2374 15.1133 15.205 15.1673C15.1889 15.189 15.1996 15.2214 15.2159 15.2214H15.8267C15.8428 15.2214 15.8537 15.1997 15.8537 15.1835V15.1673C15.8051 15.0817 15.7808 14.9845 15.7834 14.8863V13.8646C15.5997 13.7997 15.4862 13.7024 15.2861 13.5835ZM15.178 12.67C15.0699 12.6754 14.951 12.7132 14.9077 12.7511L14.9402 12.7943C15.0132 12.8666 15.0928 12.9317 15.178 12.9889V12.6645V12.67ZM16.0266 15.8376C15.9622 15.825 15.8988 15.8068 15.8374 15.7835C15.7293 15.7403 15.6212 15.7241 15.5132 15.7187C15.4051 15.7187 15.297 15.7403 15.1889 15.7835L14.9997 15.8376C14.924 15.8429 14.8375 15.8376 14.7672 15.8214L14.7023 15.8159V15.9133C14.8041 15.9433 14.911 15.9506 15.0158 15.9349C15.0915 15.9186 15.1563 15.9025 15.2267 15.8755C15.3174 15.8376 15.4148 15.8182 15.5132 15.8182C15.6115 15.8182 15.7089 15.8376 15.7996 15.8755C15.8645 15.897 15.9348 15.9186 16.005 15.9294C16.095 15.9439 16.1869 15.9403 16.2753 15.9186L16.324 15.9133V15.8159C16.2969 15.8159 16.2753 15.8159 16.2536 15.8268C16.1834 15.8429 16.1023 15.8483 16.0266 15.8376Z" fill="white"/>
<path d="M16.027 16.0542C15.9624 16.0421 15.8991 16.0241 15.8378 16.0001C15.7297 15.9623 15.6216 15.9407 15.5135 15.9353C15.4054 15.9353 15.2973 15.9623 15.1892 16.0001C15.1297 16.0218 15.0649 16.0434 15 16.0542C14.9244 16.0597 14.8378 16.0542 14.7676 16.0434L14.7026 16.0325V16.1299C14.8044 16.1599 14.9114 16.1674 15.0162 16.1515C15.0919 16.1408 15.1567 16.1191 15.2271 16.0975C15.3135 16.0597 15.4108 16.0325 15.5081 16.0325C15.6107 16.0325 15.7027 16.0542 15.7999 16.0921C15.8649 16.1136 15.9351 16.1353 16.0054 16.1461C16.0949 16.1625 16.1869 16.1606 16.2757 16.1408L16.3244 16.1299V16.0325L16.254 16.0434C16.1803 16.0648 16.103 16.0704 16.027 16.0597V16.0542Z" fill="white"/>
<path d="M16.027 16.2647C15.9624 16.2527 15.8991 16.2345 15.8378 16.2107C15.7297 16.1674 15.6216 16.1457 15.5135 16.1404C15.4054 16.1404 15.2973 16.1674 15.1892 16.2053C15.1297 16.2268 15.0649 16.2485 15 16.2592C14.9244 16.2701 14.8378 16.2592 14.7676 16.2485L14.7026 16.2377V16.3349C14.8044 16.3651 14.9114 16.3724 15.0162 16.3566C15.0919 16.3458 15.1567 16.3242 15.2271 16.3025C15.3135 16.2647 15.4108 16.2377 15.5081 16.2377C15.6107 16.2377 15.7027 16.2592 15.7999 16.2971C15.8649 16.3242 15.9351 16.3403 16.0054 16.3566C16.0953 16.3711 16.1873 16.3675 16.2757 16.3458L16.3244 16.3349V16.2377C16.2972 16.2377 16.2757 16.2431 16.254 16.2539C16.1837 16.2701 16.1026 16.2701 16.027 16.2647ZM15.7838 13.3404V12.4702C15.6852 12.4296 15.5815 12.4023 15.4757 12.3891C15.3986 12.3794 15.3209 12.3739 15.2432 12.3728V13.0215L15.3297 13.0863C15.4757 13.1782 15.627 13.2648 15.7838 13.3404Z" fill="white"/>
<path d="M14.8382 13.1893C14.8869 13.2811 15.6489 13.7244 16.1517 13.8866C16.1462 13.865 16.1355 13.8379 16.1355 13.8109L16.0598 13.492C15.6315 13.3539 15.2335 13.1356 14.8869 12.8488L14.8328 13.1946L14.8382 13.1893ZM15.8652 12.0758V12.0542C15.8652 12.0271 15.8381 12.0217 15.8111 12.0164L15.7841 12.1136C15.8003 12.1244 15.822 12.1244 15.8381 12.1136C15.8507 12.1039 15.8601 12.0908 15.8652 12.0758Z" fill="white"/>
<path d="M16.5081 12.238C16.4053 12.0974 16.0756 11.9299 15.6324 11.8651C15.2979 11.8213 14.9587 11.8305 14.627 11.892V12.3461C14.7567 12.3028 14.9513 12.2866 15.1784 12.2866C15.2973 12.2866 15.4108 12.292 15.5298 12.3083C15.8864 12.3461 16.2324 12.5029 16.3568 12.6649L16.3783 12.6975L16.5405 12.3353C16.5405 12.2974 16.5297 12.265 16.5081 12.238ZM15.0649 11.9407C15.0324 12.0271 15 12.1245 14.9783 12.2217H14.9675L14.9244 12.2326H14.9189C14.8648 12.1461 14.8108 12.0595 14.7352 11.9569V11.946L14.827 11.9353H14.8324C14.854 11.9893 14.8865 12.0325 14.9135 12.0758L14.9513 12.1299L15.0108 11.9136H15.0162L15.0649 11.9029L15.0703 11.8975L15.0649 11.9407ZM15.3621 12.2109V12.2163H15.1514L15.1621 11.9082H15.2432L15.2378 12.1785C15.281 12.1785 15.3135 12.1785 15.3459 12.1678H15.3567V12.1785L15.3621 12.2109ZM15.6433 11.9839L15.5568 11.9677L15.5298 12.2326C15.503 12.2269 15.4759 12.2233 15.4487 12.2217L15.4702 11.9569H15.373L15.3784 11.946V11.9029L15.6648 11.9299V11.9407L15.6594 11.9731V11.9839H15.6433ZM15.9243 12.3191L15.8378 12.2974L15.7838 12.1623C15.7838 12.1623 15.7838 12.1515 15.7729 12.1461L15.7459 12.2758H15.7405L15.6648 12.2542L15.7351 11.9569L15.8595 11.9839C15.8864 11.9839 15.9081 12.0001 15.9297 12.011C15.9567 12.0271 15.9675 12.0542 15.9621 12.0867C15.9562 12.1061 15.944 12.123 15.9273 12.1347C15.9107 12.1464 15.8906 12.1524 15.8703 12.1515L15.9134 12.2487L15.9243 12.2813L15.9406 12.3244H15.9243V12.3191ZM16.2594 12.4866H16.254C16.2298 12.4707 16.2044 12.4562 16.1783 12.4433H16.173V12.4379L16.1783 12.3461L16.0811 12.2974L16 12.3622L15.9567 12.3353H15.946L16.2324 12.1245V12.1299L16.2487 12.1406L16.2702 12.1515L16.2594 12.4866Z" fill="white"/>
<path d="M16.2865 12.708C16.2324 12.6486 16.1621 12.5945 16.0864 12.5566L15.9459 12.5729V12.9674C16.1675 12.9513 16.308 12.8918 16.3243 12.7945V12.7891L16.2972 12.7351C16.2972 12.7243 16.2972 12.7188 16.2865 12.708ZM15.4972 10.0324V9.59994C15.4887 9.59523 15.4796 9.59161 15.4702 9.58913H15.4378C15.4154 9.58871 15.3935 9.59457 15.3744 9.60605C15.3553 9.61752 15.3398 9.63413 15.3297 9.65399V9.6702L15.4756 10.0324H15.4972ZM15.054 9.77292L15.0648 9.78376L15.2701 10.108L15.3242 10.081L15.1892 9.72966L15.1837 9.71885H15.1513C15.1323 9.72076 15.1137 9.72654 15.0971 9.73584C15.0803 9.74513 15.0657 9.75778 15.054 9.77292ZM15.8972 10.1026L16.1026 9.78376L16.108 9.77292C16.0971 9.7569 16.0826 9.74377 16.0657 9.73439C16.0488 9.725 16.03 9.71968 16.0107 9.71885H15.9838L15.9783 9.72966L15.8377 10.0756L15.8972 10.1026ZM15.5513 9.32966C15.5597 9.32578 15.5689 9.32377 15.5783 9.32377C15.5876 9.32377 15.5968 9.32578 15.6054 9.32966V9.22696H15.6811V9.17291H15.6054V9.08643H15.5513V9.17291H15.481V9.22696H15.5513V9.32966Z" fill="white"/>
<path d="M15.1891 10.1727L15.2161 10.1511L15.2322 10.1403L15.0215 9.81061V9.80518L15.016 9.79976C14.9728 9.72411 14.9728 9.64844 15.016 9.59979C15.0292 9.5843 15.0459 9.57227 15.0647 9.56473C15.0836 9.55718 15.1039 9.55438 15.1241 9.55654L15.1674 9.56195V9.50789C15.1565 9.49708 15.1404 9.49708 15.1241 9.49708C15.0701 9.49708 15.016 9.52411 14.9728 9.56735C14.9134 9.63763 14.9134 9.75108 14.9728 9.84845L15.1891 10.1727ZM15.2052 9.58357V9.59979C15.2052 9.63763 15.2161 9.68086 15.2322 9.7133L15.3728 10.07L15.4268 10.0538C15.3836 9.95111 15.3187 9.80519 15.2863 9.69708L15.2809 9.69168C15.2666 9.65718 15.2576 9.62074 15.2539 9.58357V9.5133L15.2593 9.50789C15.2645 9.48114 15.2798 9.45736 15.3018 9.44132C15.3239 9.42528 15.3512 9.41817 15.3783 9.42141C15.4268 9.42141 15.4701 9.44303 15.5079 9.47006V9.39438C15.4686 9.37167 15.4237 9.36043 15.3783 9.36195C15.3397 9.36116 15.3018 9.3725 15.2701 9.39438C15.2431 9.416 15.2161 9.44844 15.2052 9.48628V9.50789C15.1998 9.52951 15.1944 9.56195 15.1998 9.58357H15.2052ZM16.0431 9.55654C16.0863 9.55114 16.1242 9.56735 16.1512 9.59438C16.1944 9.64844 16.1944 9.72411 16.1512 9.79976L16.1457 9.80518L15.9404 10.1295L15.9511 10.1403L15.989 10.1673L16.1944 9.84302C16.2593 9.74033 16.2593 9.62682 16.1944 9.55654C16.1756 9.53654 16.1531 9.52048 16.1281 9.50934C16.103 9.49821 16.0759 9.4922 16.0485 9.49167H15.9998V9.55654H16.0431ZM15.8376 9.66466C15.8294 9.64215 15.8148 9.62253 15.7956 9.60814C15.7765 9.59376 15.7535 9.58522 15.7295 9.58357L15.6917 9.58898L15.6647 9.59979V10.0322H15.6917L15.8323 9.67546V9.66466H15.8376Z" fill="white"/>
<path d="M15.6542 9.45943C15.6928 9.43368 15.7377 9.41874 15.7839 9.41618C15.8379 9.41079 15.8866 9.44862 15.8975 9.49727L15.9029 9.50808V9.56753C15.9029 9.60537 15.8975 9.64321 15.8812 9.67565L15.8705 9.69186C15.8259 9.80814 15.779 9.92342 15.7298 10.0378L15.7894 10.054L15.9299 9.70268V9.69727C15.9449 9.66111 15.954 9.62279 15.9569 9.58375V9.47024L15.9514 9.46484C15.9398 9.42827 15.9168 9.39642 15.8856 9.37402C15.8544 9.35162 15.8169 9.33988 15.7785 9.34051C15.7331 9.339 15.6882 9.35023 15.6487 9.37295V9.45402H15.6542V9.45943ZM15.6163 9.38376C15.6056 9.36754 15.5785 9.36214 15.5623 9.36754C15.5572 9.37171 15.5534 9.37737 15.5515 9.38376V10.0378H15.6163V9.38376ZM15.919 10.1783L15.9083 10.1729H15.8975L15.892 10.1675V10.1622L15.8001 10.1243L15.7948 10.1189H15.7839C15.7611 10.1098 15.7377 10.1026 15.7137 10.0972L15.6974 10.0918C15.6813 10.0918 15.665 10.0918 15.6434 10.0811H15.5137L15.4704 10.0918H15.4488C15.4249 10.0972 15.4014 10.1044 15.3786 10.1135L15.3623 10.1243L15.2758 10.1622L15.2542 10.1783L15.2379 10.1837C15.2325 10.1946 15.211 10.2 15.2055 10.2053L15.3136 10.3675H15.3245C15.3417 10.357 15.3598 10.348 15.3786 10.3405H15.3947C15.4542 10.3135 15.5191 10.2973 15.5893 10.2973C15.6487 10.2973 15.7137 10.3081 15.7677 10.3351H15.7839L15.8379 10.3621H15.8542L15.9623 10.2C15.9461 10.2 15.9244 10.1892 15.9136 10.1783H15.919ZM8.59475 10.0216H8.61097L8.66502 9.86478C8.70827 9.75126 8.77313 9.63781 8.85962 9.55133H8.87043C8.87115 9.5286 8.86739 9.50597 8.85935 9.48471C8.85132 9.46344 8.83917 9.44397 8.82361 9.42741C8.80806 9.41084 8.78938 9.3975 8.76866 9.38816C8.74793 9.37881 8.72558 9.37364 8.70286 9.37295C8.66271 9.37348 8.62419 9.38889 8.59475 9.41618V10.0216ZM8.67043 10.0378L8.74069 10.0594C8.76232 9.98371 8.78394 9.94045 8.79475 9.91346C8.82719 9.7891 8.89746 9.68105 8.98394 9.58917H8.92988L8.90287 9.59456C8.82178 9.68105 8.76232 9.77838 8.72449 9.88647C8.70949 9.93793 8.69143 9.98851 8.67043 10.0378ZM8.80016 10.0811C8.8434 10.0972 8.88123 10.1243 8.91907 10.1513C8.98394 10.0432 9.05422 9.93515 9.10826 9.82694V9.81622C9.12243 9.78103 9.12427 9.74213 9.11346 9.70581C9.10266 9.66948 9.07987 9.63789 9.04881 9.61618L9.0434 9.62159C8.93529 9.70808 8.88124 9.83779 8.84881 9.92973C8.838 9.96757 8.81637 10.0378 8.79475 10.0811H8.80016ZM8.32448 9.86478L8.37854 10.0161H8.39476V9.41618C8.3779 9.40227 8.35841 9.39191 8.33744 9.38571C8.31648 9.37952 8.29449 9.37763 8.27278 9.38016C8.25106 9.38269 8.23009 9.38957 8.2111 9.4004C8.19213 9.41124 8.17554 9.42581 8.16232 9.44321C8.1378 9.47391 8.12446 9.51204 8.12448 9.55133H8.12989C8.22179 9.63781 8.29205 9.75126 8.32989 9.86478H8.32448ZM7.89206 9.82164C7.9461 9.93515 8.01097 10.0432 8.08124 10.1459L8.19476 10.0811L8.1407 9.92973C8.10883 9.81206 8.04525 9.70552 7.95692 9.62159L7.9461 9.61618C7.91598 9.63863 7.89428 9.67057 7.88446 9.70683C7.87466 9.7431 7.87734 9.78166 7.89206 9.81622V9.82164ZM8.46502 9.30808C8.48583 9.29967 8.50909 9.29967 8.52989 9.30808V9.23241H8.60556V9.16754H8.52989V9.08105H8.46502V9.16754H8.38935V9.23241H8.46502V9.30808ZM8.5353 9.38917C8.5353 9.37913 8.53131 9.3695 8.52421 9.3624C8.51711 9.35532 8.50749 9.35133 8.49746 9.35133C8.47043 9.35133 8.45962 9.36754 8.45962 9.38917V10.0161H8.52989V9.38917H8.5353ZM8.10286 10.2053L8.21096 10.3675C8.21096 10.3784 8.22179 10.3784 8.23259 10.3784H8.2434C8.32448 10.3351 8.41637 10.3081 8.50286 10.3081C8.59475 10.3081 8.68124 10.3351 8.76232 10.3729C8.77853 10.3784 8.78935 10.3784 8.79475 10.3675L8.89746 10.1946C8.78185 10.1097 8.64173 10.0649 8.49834 10.0668C8.35496 10.0688 8.21612 10.1174 8.10286 10.2053ZM8.20557 9.90804L8.25962 10.054L8.31908 10.0378L8.27043 9.88647C8.23241 9.77762 8.17159 9.67807 8.09205 9.59456L8.06502 9.58917H8.01097C8.10286 9.68105 8.16773 9.7891 8.20557 9.90804Z" fill="white"/>
</svg>
