<svg xmlns="http://www.w3.org/2000/svg" width="24" height="24" fill="none" viewBox="0 0 24 24">
    <path fill="#fff" fill-opacity=".45" d="M5.363 19.143 15.61 4.883c.484-.855 2.34-.646 3.116-.343L8.676 18.518c-.411.647-2.442.692-3.32.62z"/>
    <path fill="#fff" d="M13.086 10.594c.557.017 1.035.827 1.035 1.406 0 .58-.478 1.39-1.035 1.406h-2.75c-2.645-.034-5.08-2.655-5.08-5.35 0-2.7 2.435-5.022 5.08-5.056h7.092c.557.017 1.322.484 1.322 1.378 0 .889-.467 1.406-1.322 1.434h-7.093a2.3 2.3 0 0 0-2.272 2.245c0 1.519.776 2.537 2.272 2.537h2.756z"/>
    <path fill="#fff" d="M10.915 13.406C10.358 13.39 9.88 12.58 9.88 12s.478-1.39 1.035-1.406h2.75c2.644.034 5.085 2.655 5.085 5.35 0 2.699-2.44 5.022-5.085 5.056H6.572c-.827-.023-1.299-.45-1.322-1.356a1.423 1.423 0 0 1 1.322-1.457h7.093c1.182 0 2.273-.9 2.273-2.244 0-1.519-.776-2.537-2.273-2.537z"/>
</svg>
