<svg width="24" height="24" viewBox="0 0 24 24" fill="none" xmlns="http://www.w3.org/2000/svg">
<path d="M19.1251 7.44672C19.0001 7.55923 18.8377 7.62797 18.6689 7.62797H2.64431C2.07557 7.62797 1.78809 6.97799 2.18183 6.59675L4.81301 4.05932C4.938 3.94057 5.1005 3.87183 5.26924 3.87183H21.3563C21.9313 3.87183 22.2126 4.52806 21.8126 4.90929L19.1251 7.44672Z" fill="white"/>
<path d="M19.1251 19.9532C19.0001 20.0656 18.8377 20.1282 18.6689 20.1282H2.64431C2.07557 20.1282 1.78809 19.4843 2.18183 19.1031L4.81301 16.5594C4.938 16.4407 5.1005 16.3782 5.26924 16.3782H21.3563C21.9313 16.3782 22.2126 17.0281 21.8126 17.4095L19.1251 19.9532Z" fill="white"/>
<path d="M19.1251 10.3032C19.0001 10.1907 18.8377 10.1282 18.6689 10.1282H2.64431C2.07557 10.1282 1.78809 10.7719 2.18183 11.1532L4.81301 13.6969C4.938 13.8093 5.1005 13.878 5.26924 13.878H21.3563C21.9313 13.878 22.2126 13.2281 21.8126 12.8469L19.1251 10.3032Z" fill="white"/>
</svg>
