<svg xmlns="http://www.w3.org/2000/svg" width="24" height="24" fill="none" viewBox="0 0 24 24">
    <path fill="#fff" d="M17.708 13.428a4.282 4.282 0 0 1 .02 8.563h-.02a4.28 4.28 0 0 1-4.282-4.282c0-.114 0-.22.014-.328.007-.2.021-.392 0-.6a7.165 7.165 0 0 0-6.273-6.201c-.214-.021-.407-.014-.614-.014l-.264.007a4.281 4.281 0 1 1-.014-8.564h.014a4.28 4.28 0 0 1 4.268 4.632c-.008.221-.015.442.014.678a7.21 7.21 0 0 0 6.423 6.109c.164.014.321.007.478 0zm.07-2.855a4.282 4.282 0 1 0-.142-8.563 4.282 4.282 0 0 0 .143 8.563M6.29 13.428a4.282 4.282 0 1 1 0 8.563 4.282 4.282 0 0 1 0-8.563"/>
</svg>
