<svg xmlns="http://www.w3.org/2000/svg" width="24" height="24" fill="none" viewBox="0 0 24 24">
    <path fill="#fff" fill-rule="evenodd" d="M5.869 3.56c-1.536 3.751-.743 7.464-.152 8.853L3 14.81h2.014l4.348-3.656c.225.563.67 1.823.67 2.396 0 .316-.237.957-.507 1.665-.326.895-.698 1.902-.698 2.532 0 .9.518 2.171.771 2.694h4.736c.253-.512.754-1.772.754-2.7 0-.585-.281-1.383-.562-2.171-.27-.76-.535-1.496-.535-2.025 0-.844.445-1.946.664-2.385l4.309 3.65H21l-2.722-2.39c1.355-3.668.478-7.425-.13-8.854L13.744 8.92c-.152-.14-.709-.292-1.755-.292s-1.744.152-1.958.292zm.58 2.851L8.933 9.63 6.73 11.412c-.28-.788-.725-2.88-.28-5m10.996 0L14.959 9.63l2.21 1.783c.282-.788.726-2.88.282-5zm-7.009 3.758c.259.894.77 2.852.77 3.55 0 .415-.247 1.119-.505 1.856-.293.804-.591 1.653-.591 2.204 0 .844.27 1.418.405 1.53h.922v-1.687h1.126v1.688h.708c.169-.18.506-.844.506-1.53 0-.45-.314-1.35-.618-2.206-.27-.776-.535-1.518-.535-1.856 0-.562.552-2.598.827-3.55a3.4 3.4 0 0 0-1.541-.393c-.686 0-1.271.264-1.474.394m-5.75 10.265v-4.011L5.812 15.4v3.91h2.385s.282.714.428 1.125zm14.625-4.033v4.032h-3.937c.14-.416.428-1.125.428-1.125h2.384v-3.937z" clip-rule="evenodd"/>
</svg>
