<svg xmlns="http://www.w3.org/2000/svg" width="24" height="24" fill="none" viewBox="0 0 24 24">
    <path fill="#fff" d="M8.581 9.986a.27.27 0 0 0-.291-.355l-5.055.72a.27.27 0 0 0-.229.326.27.27 0 0 0 .07.13l3.6 3.716a.266.266 0 0 0 .378.013.3.3 0 0 0 .071-.12zM6.745 20.393a.265.265 0 0 0 .376.317l4.727-2.244a.27.27 0 0 1 .222 0l4.94 2.24a.27.27 0 0 0 .365-.334c-.932-2.806-1.774-5.58-2.674-8.38a.265.265 0 0 0-.476-.053l-1.996 3.578a.27.27 0 0 1-.238.138h-.085a.26.26 0 0 1-.232-.143L9.736 11.95a.27.27 0 0 0-.233-.143h-.026a.265.265 0 0 0-.26.19 244 244 0 0 0-2.472 8.396m10.093-6.056a.264.264 0 0 0 .445.106l3.636-3.636a.271.271 0 0 0-.153-.461l-5.029-.704a.27.27 0 0 0-.296.35z"/>
    <path fill="#fff" d="M14.024 9.551a.32.32 0 0 0 0-.248l-.027-.064-1.784-5.78a.265.265 0 0 0-.513 0l-1.747 5.78-.026.085a.3.3 0 0 0 .01.201l1.731 3.991a.28.28 0 0 0 .244.16h.063a.27.27 0 0 0 .244-.16l1.8-3.965z"/>
</svg>
