<svg xmlns="http://www.w3.org/2000/svg" width="24" height="24" fill="none" viewBox="0 0 24 24">
    <path fill="#fff" d="m19.759 10.218-2.388-2.379h-.004l-.005-.009a4.2 4.2 0 0 0-2.98-1.227c-.868 0-1.691.26-2.388.737a4.2 4.2 0 0 0-2.383-.737 4.2 4.2 0 0 0-2.986 1.232l-2.383 2.378a4.176 4.176 0 0 0 0 5.944 4.2 4.2 0 0 0 2.981 1.232c.863 0 1.686-.26 2.383-.737a4.2 4.2 0 0 0 2.392.733c.864 0 1.686-.257 2.383-.738a4.2 4.2 0 0 0 4.011.428 4.194 4.194 0 0 0 1.372-6.853zM8.311 15.46a2.518 2.518 0 0 1-2.877-4.06l2.383-2.374a2.52 2.52 0 0 1 2.882-.494l-1.686 1.681a4.16 4.16 0 0 0-1.237 2.972c0 .8.225 1.565.639 2.226zm5.472-.494a2.52 2.52 0 0 1-2.756.553A2.518 2.518 0 0 1 10.2 11.4l1.798-1.785 1.79 1.785a2.52 2.52 0 0 1 0 3.566zm4.78.013a2.54 2.54 0 0 1-2.995.437c.532-.84.745-1.841.603-2.824-.13-.9-.54-1.727-1.196-2.379l-1.673-1.677-.009-.009a2.53 2.53 0 0 1 2.878.495h.009v.009l2.378 2.365.01.013a2.505 2.505 0 0 1 0 3.566z"/>
</svg>
