<svg xmlns="http://www.w3.org/2000/svg" width="24" height="24" fill="none" viewBox="0 0 24 24">
    <path fill="#fff" d="M7.06 10.14a.975.975 0 0 1 0-1.378l5.47-5.477a.972.972 0 0 1 1.663.69.98.98 0 0 1-.285.69L8.437 10.14a.97.97 0 0 1-1.377 0m9.88 3.72a.975.975 0 0 1 0 1.379l-5.47 5.476a.976.976 0 0 1-1.378 0 .976.976 0 0 1 0-1.379l5.471-5.476a.974.974 0 0 1 1.377 0M6.707 15.03a.976.976 0 0 1 0-1.379l3.463-3.466a.976.976 0 0 1 1.377 0 .976.976 0 0 1 0 1.378L8.084 15.03a.973.973 0 0 1-1.377 0m10.585-6.06a.975.975 0 0 1 0 1.379l-3.462 3.466a.975.975 0 1 1-1.378-1.378l3.463-3.466a.974.974 0 0 1 1.377 0"/>
</svg>
