<svg xmlns="http://www.w3.org/2000/svg" width="24" height="24" fill="none" viewBox="0 0 24 24">
    <path fill="#fff" d="M4.494 13.875H2.62c1 1.25 2.294 1.77 2.813 1.876z"/>
    <path fill="#fff" d="M5.182 15.813a5.9 5.9 0 0 0 3.063.563c3.752-.313 6.252-3.439 6.252-4.376 1.126.187 3.658.187 5.615-1.082a8.128 8.128 0 1 0-14.924 4.895z"/>
    <path fill="#fff" d="M20.075 10.343c-1.976.813-5.015 1.031-6.503 1.031a12.3 12.3 0 0 1-5.364 5.002h.05c3.751-.313 6.252-3.439 6.252-4.376 1.126.187 3.658.187 5.615-1.082a8 8 0 0 0-.05-.575"/>
    <path fill="#fff" d="M11.79 20.753c5.64 0 10.21-4.358 10.21-9.729v-.275c-1.813 1.595-3.858 2.451-6.565 2.188-.418 1.626-2.188 4.69-5.933 4.69-3.207 0-6.002-2.139-7.502-3.845 1.244 4.032 5.152 6.97 9.784 6.97z"/>
</svg>
