<svg xmlns="http://www.w3.org/2000/svg" width="24" height="24" fill="none" viewBox="0 0 24 24">
    <path fill="#fff" d="M21.086 7.478a2.74 2.74 0 0 1 .894 2.351l-1.364 7.53a2.8 2.8 0 0 1-1.663 1.92l-7.424 2.602a2.96 2.96 0 0 1-2.558-.438l-6.06-4.916a2.72 2.72 0 0 1-.888-2.357L3.38 6.64a2.8 2.8 0 0 1 1.663-1.92l7.43-2.602a2.96 2.96 0 0 1 2.552.437zm-6.317 3.27.3-1.25h-2.833l.4-2.502h-.913C11.06 8.009 10.097 9.06 8.97 9.498l-.256 1.25h1.632s-.557 1.97-.694 2.671c-.35 1.782.269 2.958 1.626 2.958h2.289l.288-1.25h-1.92c-.85 0-.8-.47-.638-1.295l.638-3.084z"/>
</svg>
