<svg xmlns="http://www.w3.org/2000/svg" width="24" height="24" fill="none" viewBox="0 0 24 24">
    <path fill="#fff" fill-rule="evenodd" d="M17.456 17.457A7.716 7.716 0 1 1 6.544 6.545a7.716 7.716 0 0 1 10.912 10.912m-3.292-3.565a16.6 16.6 0 0 1 2.918-.36c.432-.01.861.076 1.257.25.11.045.11.1.016.16a9.2 9.2 0 0 1-3.131 1.29c-.546.108-.58.294-.071.556a6 6 0 0 1 1.333.924q.141.13-.054.153c-1.454.18-2.667-.279-3.902-.995-.104-.054-.164-.032-.186.082-.12.569-.437 1.87-.989 2.132a.065.065 0 0 1-.076-.011.055.055 0 0 1 0-.072c.43-.605.698-1.31.781-2.049a.13.13 0 0 0-.055-.12.13.13 0 0 0-.13-.01c-1.34.677-2.57 1.234-4.132 1.054a.11.11 0 0 1-.093-.077.11.11 0 0 1 .028-.109c.368-.34.786-.622 1.24-.836.601-.284.58-.492-.077-.618a8.4 8.4 0 0 1-3.224-1.333.092.092 0 0 1-.022-.142.1.1 0 0 1 .05-.027c1.333-.4 2.874-.11 4.235.17.185.037.207 0 .06-.127a11 11 0 0 1-3.022-4.13q-.37-.904.464-.405a12.9 12.9 0 0 1 3.569 3.115q.19.247.109-.055a4.2 4.2 0 0 1-.153-1.71q.068-.431.13-.85c.182-1.213.355-2.373.799-3.598a.4.4 0 0 1 .186-.219.13.13 0 0 1 .18.066c.366.874.645 1.77.836 2.71.16.772.15 1.581.14 2.385-.004.35-.008.701.002 1.047q.009.22.148.054a13 13 0 0 1 3.869-3.17q.411-.213.24.22a12.9 12.9 0 0 1-2.24 3.666 3.7 3.7 0 0 1-1.022.858.11.11 0 0 0-.055.082v.027q.017.032.044.022" clip-rule="evenodd"/>
    <path fill="#fff" fill-rule="evenodd" d="M18.364 18.364A9 9 0 1 1 5.636 5.636a9 9 0 0 1 12.728 12.728m-.495-.495A8.3 8.3 0 1 1 6.131 6.131a8.3 8.3 0 0 1 11.738 11.738" clip-rule="evenodd"/>
</svg>
