<svg xmlns="http://www.w3.org/2000/svg" width="24" height="24" fill="none" viewBox="0 0 24 24">
    <path fill="#fff" fill-rule="evenodd" d="M6.335 7.047C7.59 5.333 11.25 2.269 15.848 3.72c4.6 1.452 6.018 5.69 6.152 7.627-.28-1.441-1.706-4.459-5.168-5.004 1.877 1.37 5.153 5.284 3.244 9.994s-5.839 5.735-7.565 5.66c1.396-.111 4.361-1.275 5.052-5.05-.956 1.344-3.753 3.963-7.286 3.679-4.418-.356-7.718-3.35-8.277-7.512.228 1.32 1.564 4.066 5.078 4.492-1.414-.87-4.138-3.72-3.732-8.146.508-5.53 5.661-7.384 7.947-7.46-1.57.249-4.76 1.606-4.958 5.047M12 15.529a3.528 3.528 0 1 0 0-7.057 3.528 3.528 0 0 0 0 7.057" clip-rule="evenodd"/>
</svg>
