<svg xmlns="http://www.w3.org/2000/svg" width="24" height="24" fill="none" viewBox="0 0 24 24">
    <path fill="#fff" d="M4.323 11.206 3 12.266C3 8.558 5.615 3.53 11.438 3.53c3.023 0 5.23 1.16 6.882 2.753l.503-.1-.275.333a8.95 8.95 0 0 1 2.451 6.284c0 4.023-1.233 6.787-1.853 7.67-2.911-1.058-3.44-3.705-3.44-4.764 0-.603.163-1.043.349-1.52.211-.56.428-1.127.428-2.186 0-.529-.116-1.852-.915-3.213L10.41 12.72v.08a2.382 2.382 0 1 1-1.397-2.17l5.892-2.753c-.868-.953-2.234-1.7-4.262-1.7-4.235 0-5.966 3.357-6.32 5.03"/>
</svg>
