<svg xmlns="http://www.w3.org/2000/svg" width="24" height="24" fill="none" viewBox="0 0 24 24">
    <path fill="#fff" fill-rule="evenodd" d="M12 22c5.523 0 10-4.477 10-10S17.523 2 12 2 2 6.477 2 12s4.477 10 10 10m.624-.626c4.375 0 8.75-4.95 8.75-10 0-.806 0-1.875-.625-2.5-1.475-1.425-2.887-2.137-2.88-2.13l-.863.962c.012-.025.375-1.157.375-1.182 0 0-1.482-.63-2.82-.712l-.268 1.319-.175-1.363-.055-.002c-.31-.014-1.798-.08-3.089.233l.663 1.2c-.563-.125-1.1-.075-1.806.957l-1.47-.27v.007L4.5 7.206l4.52 2.1s-2.188 3.437-2.42 3.825c-.243.406-.5 1.13.832 1.468.25.082.5.131.762.157 1.388-.044 2.66-.513 3.932-.982l.05-.018.524-.194.004.004c.417.385 1.68 1.552.496 3.471-.768 1.253-2.366 1.672-3.906 1.8-.835.064-1.647.05-2.294.037 1.51 1.277 2.5 1.692 2.911 1.82.839.406 1.731.68 2.714.68m-.456-11.387L10.75 11.03s-.437-.513.125-.938a1.38 1.38 0 0 1 1.294-.106" clip-rule="evenodd"/>
</svg>
