<svg xmlns="http://www.w3.org/2000/svg" width="24" height="24" fill="none" viewBox="0 0 24 24">
    <path fill="#fff" fill-rule="evenodd" d="M12 21a9 9 0 1 0 0-18 9 9 0 0 0 0 18m.562-.563c3.938 0 7.875-4.455 7.875-9 0-.726 0-1.688-.563-2.25-1.327-1.283-2.598-1.924-2.593-1.918l-.776.866c.011-.022.338-1.04.338-1.063 0 0-1.334-.568-2.537-.641l-.242 1.187-.158-1.227-.05-.002c-.278-.012-1.618-.072-2.78.21l.597 1.08c-.506-.112-.99-.067-1.626.861l-1.321-.242v.006l-3.477-.619 4.067 1.89s-1.968 3.094-2.177 3.443c-.219.365-.45 1.018.749 1.321.225.073.45.118.686.141 1.25-.039 2.394-.461 3.538-.883l.045-.017.473-.174.003.003c.375.347 1.512 1.397.447 3.125-.692 1.127-2.13 1.504-3.516 1.619a21 21 0 0 1-2.065.034c1.358 1.149 2.25 1.522 2.62 1.638.755.365 1.558.612 2.443.612m-.41-10.249-1.278.94s-.393-.462.113-.844a1.24 1.24 0 0 1 1.164-.096" clip-rule="evenodd"/>
</svg>
