<svg xmlns="http://www.w3.org/2000/svg" width="24" height="24" fill="none" viewBox="0 0 24 24">
    <path fill="#fff" d="M9.046 5.648c-.19 0-.35.19-.35.423v.212c0 .233.16.424.35.424h6.606c.19 0 .35-.19.35-.424v-.212c0-.232-.16-.423-.35-.423zm2.689 1.323v11.567c0 .19-.143.35-.318.35h-.159c-.174 0-.317-.16-.317-.35V6.971zm1.588 0v11.567c0 .19-.143.35-.318.35h-.159c-.174 0-.317-.16-.317-.35V6.971z"/>
    <path fill="#fff" d="M11.258 9.703c.297-.099.609-.145.921-.137.55 0 .963.105 1.255.296.212.138.35.318.423.53.08.211.276.412.546.412h1.603c.286 0 .546-.238.503-.55a2.7 2.7 0 0 0-.545-1.292q-.556-.716-1.524-1.106c-.646-.265-1.398-.392-2.245-.392-.836 0-1.588.127-2.25.392a3.8 3.8 0 0 0-1.588 1.1 2.58 2.58 0 0 0-.582 1.69 2.28 2.28 0 0 0 .89 1.884c.57.455 1.344.783 2.307.99l1.218.27c.55.122 1.768.307 1.768 1.074 0 .858-1.175 1.048-1.81 1.048-.758 0-1.748-.217-1.975-1.053-.064-.227-.265-.445-.54-.445H8.018a.496.496 0 0 0-.503.546c.07.593.265 1.1.593 1.535a3.6 3.6 0 0 0 1.641 1.149c.694.254 1.504.375 2.425.375q1.39.002 2.398-.37a3.47 3.47 0 0 0 1.562-1.09 2.7 2.7 0 0 0 .56-1.69 2.56 2.56 0 0 0-1.016-2.07 4.4 4.4 0 0 0-1.106-.624c-.937-.37-3.245-.365-3.917-1.302a.54.54 0 0 1-.096-.36v-.005c0-.175.053-.328.17-.466.116-.138.29-.254.529-.339"/>
    <path fill="#fff" d="M11.735 9.02h-.794v1.217h.794zm0 4.33h-.794v1.207h.794zm0 3.631h-.794v1.212h.794zm1.588-7.961h-.794v1.217h.794zm0 4.33h-.794v1.207h.794zm0 3.631h-.794v1.212h.794z"/>
    <path fill="#fff" d="M20.74 12.519a.27.27 0 0 0-.27.243A8.487 8.487 0 0 1 12 20.47c-4.447 0-8.084-3.383-8.47-7.707a.275.275 0 0 0-.27-.244.257.257 0 0 0-.26.275A9.02 9.02 0 0 0 12 21c4.722 0 8.597-3.605 9-8.205a.255.255 0 0 0-.26-.275M3.265 11.481a.27.27 0 0 0 .27-.243A8.486 8.486 0 0 1 12 3.53c4.447 0 8.083 3.383 8.47 7.708a.27.27 0 0 0 .27.243c.153 0 .27-.127.26-.275a9.02 9.02 0 0 0-9-8.205 9.02 9.02 0 0 0-9 8.205.257.257 0 0 0 .26.275z"/>
</svg>
