<svg width="24" height="24" viewBox="0 0 24 24" fill="none" xmlns="http://www.w3.org/2000/svg">
<path d="M8.71778 4.94165C8.50604 4.94165 8.32959 5.1534 8.32959 5.4122V5.64748C8.32959 5.90628 8.50604 6.11803 8.71778 6.11803H16.0584C16.2701 6.11803 16.4465 5.90628 16.4465 5.64748V5.4122C16.4465 5.1534 16.2701 4.94165 16.0584 4.94165H8.71778ZM11.7057 6.41211V19.2639C11.7057 19.4757 11.5469 19.6522 11.3529 19.6522H11.1764C10.9823 19.6522 10.8235 19.4757 10.8235 19.2639V6.41211H11.7057ZM13.4704 6.41211V19.2639C13.4704 19.4757 13.3115 19.6522 13.1174 19.6522H12.9409C12.7468 19.6522 12.588 19.4757 12.588 19.2639V6.41211H13.4704Z" fill="white"/>
<path d="M11.1756 9.44728C11.5054 9.33748 11.8517 9.28574 12.199 9.29439C12.8109 9.29439 13.2695 9.41201 13.5932 9.62377C13.8284 9.77666 13.9813 9.97663 14.0636 10.2119C14.1519 10.4472 14.3695 10.6707 14.6694 10.6707H16.4517C16.7692 10.6707 17.0575 10.4061 17.0105 10.059C16.9385 9.53553 16.7294 9.04049 16.4046 8.62379C15.9929 8.09443 15.4282 7.68271 14.7106 7.39449C13.9931 7.1004 13.1578 6.95923 12.2168 6.95923C11.2875 6.95923 10.4522 7.1004 9.71701 7.39449C9.03295 7.64299 8.425 8.06449 7.95241 8.61791C7.52004 9.14627 7.29058 9.81166 7.3054 10.4942C7.29151 10.8967 7.37393 11.2966 7.5458 11.6609C7.71767 12.0251 7.97404 12.343 8.29355 12.5882C8.9288 13.094 9.78755 13.4586 10.858 13.6881L12.2109 13.9881C12.8225 14.1233 14.1753 14.3292 14.1753 15.1821C14.1753 16.1349 12.8696 16.3466 12.1638 16.3466C11.3228 16.3466 10.2227 16.1055 9.96995 15.1762C9.89927 14.9233 9.67584 14.6821 9.36992 14.6821H7.57598C7.49819 14.6809 7.42104 14.6961 7.34955 14.7269C7.27808 14.7575 7.21386 14.8029 7.16112 14.86C7.10839 14.9172 7.0683 14.9849 7.0435 15.0586C7.0187 15.1323 7.00974 15.2105 7.01719 15.2879C7.09366 15.9467 7.31129 16.5113 7.67596 16.9937C8.15075 17.583 8.78303 18.0257 9.49934 18.2701C10.2698 18.5524 11.1697 18.6876 12.1933 18.6876C13.2226 18.6876 14.1107 18.5524 14.8577 18.2758C15.5378 18.0416 16.1387 17.6219 16.5929 17.0643C17.0067 16.5272 17.2265 15.8659 17.2164 15.1879C17.2213 14.7429 17.1218 14.3029 16.9257 13.9036C16.7294 13.504 16.4422 13.1563 16.087 12.8881C15.7133 12.598 15.2991 12.3642 14.8577 12.1941C13.8166 11.7823 11.2521 11.7882 10.5052 10.7471C10.4286 10.6354 10.3874 10.506 10.3992 10.3472V10.3413C10.3992 10.1472 10.4581 9.97663 10.5875 9.82374C10.7168 9.67071 10.911 9.54143 11.1756 9.44728Z" fill="white"/>
<path d="M11.7059 8.6886H10.8237V10.0414H11.7059V8.6886ZM11.7059 13.4999H10.8237V14.841H11.7059V13.4999ZM11.7059 17.5348H10.8237V18.8819H11.7059V17.5348ZM13.4706 8.6886H12.5883V10.0414H13.4706V8.6886ZM13.4706 13.4999H12.5883V14.841H13.4706V13.4999ZM13.4706 17.5348H12.5883V18.8819H13.4706V17.5348Z" fill="white"/>
<path d="M21.7107 12.5764C21.5579 12.5764 21.4225 12.6941 21.4109 12.847C21.1948 15.1917 20.1094 17.371 18.3678 18.9558C16.6262 20.5407 14.3547 21.4164 11.9998 21.4109C7.05912 21.4109 3.0183 17.6525 2.58893 12.847C2.58035 12.7731 2.54517 12.7049 2.48996 12.6551C2.43475 12.6054 2.3633 12.5774 2.28895 12.5764C2.11837 12.5764 1.98898 12.7175 2.00074 12.8822C2.22707 15.3765 3.37895 17.6955 5.22958 19.3827C7.08022 21.0701 9.49543 22.0035 11.9998 21.9991C17.2465 21.9991 21.552 17.9936 21.999 12.8822C22.0024 12.8428 21.9973 12.803 21.9843 12.7656C21.9711 12.7281 21.9504 12.6939 21.9232 12.6651C21.8959 12.6361 21.8629 12.6134 21.8264 12.5981C21.7898 12.5829 21.7504 12.5755 21.7107 12.5764ZM2.29483 11.4236C2.44776 11.4236 2.58304 11.306 2.59481 11.153C2.81064 8.80919 3.89533 6.63087 5.63568 5.04617C7.37602 3.46147 9.64613 2.585 11.9998 2.58905C16.9406 2.58905 20.9814 6.34755 21.4109 11.153C21.4225 11.306 21.5579 11.4236 21.7107 11.4236C21.8813 11.4236 22.0108 11.2824 21.999 11.1177C21.7726 8.62359 20.6208 6.30455 18.7702 4.6172C16.9196 2.92987 14.5043 1.99649 11.9998 2.00087C9.49543 1.99649 7.08022 2.92987 5.22958 4.6172C3.37895 6.30455 2.22707 8.62359 2.00074 11.1177C1.98898 11.2824 2.11837 11.4236 2.28895 11.4236H2.29483Z" fill="white"/>
</svg>
