<svg xmlns="http://www.w3.org/2000/svg" width="24" height="24" fill="none" viewBox="0 0 24 24">
    <path fill="#fff" d="M13.853 4.853a1.853 1.853 0 1 1-3.706 0 1.853 1.853 0 0 1 3.706 0m-2.928 3.261c-.17-1.482-2.065-2.107-3.16-1.043a1.726 1.726 0 0 0-.307 2.086c.121.196.27.392.455.577.381.38.654.855.789 1.377q.475 1.88-.89 3.277c-.513.518-.714 1.19-.46 1.89.63 1.694 3.134 1.524 3.547-.212a1.8 1.8 0 0 0-.487-1.63 4.5 4.5 0 0 1-.503-.615c-.9-1.403-.651-3.081.513-4.267a1.68 1.68 0 0 0 .503-1.435zm2.71 6.353a3.324 3.324 0 0 0 .435-4.267c-.1-.159-.228-.291-.355-.423-.09-.101-.185-.196-.264-.302-1.176-1.52.529-3.542 2.292-2.68a1.747 1.747 0 0 1 .455 2.88 3.35 3.35 0 0 0-.042 4.74c.656.656.82 1.524.302 2.323a1.88 1.88 0 0 1-1.906.768c-1.499-.318-1.991-1.975-.916-3.044zm-6.4-2.202a1.853 1.853 0 1 1-3.706 0 1.853 1.853 0 0 1 3.706 0m11.383 1.853a1.853 1.853 0 1 0 0-3.706 1.853 1.853 0 0 0 0 3.706m-4.765 5.03a1.853 1.853 0 1 1-3.706 0 1.853 1.853 0 0 1 3.706 0"/>
</svg>
