<svg xmlns="http://www.w3.org/2000/svg" width="24" height="24" fill="none" viewBox="0 0 24 24">
    <path fill="#fff" d="m17.714 9.497-2.857 5.006c-.886 1.543-2.514 2.354-4.286 2.354l4.286-7.354L16.285 7z"/>
    <path fill="#fff" d="m17.714 9.497-2.857 5.006c-.885 1.543-2.485 2.32-4.257 2.32l4.257-7.32L16.286 7z"/>
    <path fill="#fff" d="m22 7.143-1.429 2.36-2.857 5c-.886 1.543-2.514 2.354-4.286 2.354h-2.857c1.772 0 3.366-.84 4.252-2.382l2.891-4.972-1.428-2.36zm-5.635 0H4.856l.915-1.812.52-1.046h5.765c1.76 0 3.389 1.069 4.286 2.8l.029.058z"/>
    <path fill="#fff" d="M16.365 7.143H4.856l1.52-2.858h5.812c1.76 0 3.28 1.338 4.171 2.858z"/>
    <path fill="#fff" d="M16.257 6.954c-.886-1.52-2.44-2.668-4.194-2.668H6.349L4.897 7.143 2 2h8.572a4.94 4.94 0 0 1 3.005 1.029l.132.102q.183.156.354.326c.303.309.571.657.794 1.046z"/>
    <path fill="#fff" d="M10.572 16.857H7.714L4.857 12a4.95 4.95 0 0 1 .023-4.903l.497.817L7.714 12z"/>
    <path fill="#fff" d="M10.571 16.863v-.006H7.714L4.857 12a4.89 4.89 0 0 1 .029-4.869z"/>
    <path fill="#fff" d="M10.595 16.857 7.715 22l-2.857-5-1.429-2.497q-.247-.432-.406-.903l-.04-.137a6 6 0 0 1-.183-.834l-.011-.143-.011-.149v-.017l-.012-.154v-.155a5.1 5.1 0 0 1 .372-1.914l.062-.149q.105-.228.229-.445l1.44-2.372A4.88 4.88 0 0 0 4.863 12l2.857 4.857z"/>
</svg>
