<svg width="24" height="24" viewBox="0 0 24 24" fill="none" xmlns="http://www.w3.org/2000/svg">
<path fill-rule="evenodd" clip-rule="evenodd" d="M17.5231 10.718C17.5795 9.75394 18.2205 7.64111 20.2974 7.64111C20.7795 7.64111 21.3641 7.83599 21.5948 7.93856L21.4102 9.36932C21.1281 9.22945 20.8175 9.15579 20.5026 9.15394C19.9795 9.15394 19.5076 9.40522 19.1949 10.718H22L21.1795 16.3591H19.4872L20.1538 11.7437H19.0102L18.3589 16.3591H16.6667L17.3641 11.7437H16.1487L16.3538 10.718H17.5231ZM2.88718 12.4924C3.12248 12.4924 3.34813 12.3989 3.51451 12.2326C3.68088 12.0661 3.77436 11.8405 3.77436 11.6052C3.77436 11.37 3.68088 11.1443 3.51451 10.9779C3.34813 10.8115 3.12248 10.718 2.88718 10.718C2.65189 10.718 2.42623 10.8115 2.25985 10.9779C2.09348 11.1443 2 11.37 2 11.6052C2 11.8405 2.09348 12.0661 2.25985 12.2326C2.42623 12.3989 2.65189 12.4924 2.88718 12.4924ZM2.37948 12.9745C2.68205 13.0566 3.39488 13.1129 3.86154 12.6667L4.1282 13.8924L5.93846 10.718H6.98974L7.51282 13.8924L9.29743 10.718H11.0564L7.73847 16.3591H6.57948L5.9641 13.4052L4.30769 16.3591H3.21539L2.37948 12.9745ZM12.2051 13.795H16.0615C16.2308 12.8001 15.9744 10.718 13.5692 10.718C10.5642 10.718 10.4615 13.318 10.4615 13.8668C10.4615 14.4155 10.7385 16.3591 13.3333 16.3591C14.3128 16.3591 15.118 16.0616 15.3949 15.9181L15.7128 14.4719C15.359 14.6821 14.4461 15.0976 13.6256 15.0976C12.6 15.0976 12.1179 14.636 12.2051 13.795ZM12.4461 12.7694H14.4102C14.4615 12.4257 14.3743 11.7437 13.6154 11.7437C12.8616 11.7437 12.5231 12.4257 12.4461 12.7694Z" fill="white"/>
</svg>
