<svg xmlns="http://www.w3.org/2000/svg" width="24" height="24" fill="none" viewBox="0 0 24 24">
    <path fill="#fff" fill-rule="evenodd" d="M4 6.518 7.18 16.91c.108.35.426.59.787.59h1.642a.825.825 0 0 0 .766-.53l1.613-4.127a.014.014 0 0 1 .025 0l1.631 4.13a.82.82 0 0 0 .765.527h1.568a.825.825 0 0 0 .785-.586L18.292 12h-2.61l-.446 1.468-.004.006-.007.003q-.005 0-.008-.002l-.006-.006-1.465-3.335a1.89 1.89 0 0 0-3.444-.01L8.75 13.47l-.005.006a.014.014 0 0 1-.015-.001l-.005-.007L6.674 6.5h-2.66l-.007.001-.005.005L4 6.512zM16.139 10.5h2.621L20 6.518v-.006l-.003-.006-.004-.005-.007-.001h-2.633z" clip-rule="evenodd"/>
</svg>
