<svg xmlns="http://www.w3.org/2000/svg" width="24" height="24" fill="none" viewBox="0 0 24 24" class="web3icons">
    <path fill="#fff" fill-rule="evenodd" d="M17.631 3.9H6.343L3 11.238l9 8.862 9-8.862zm-11.03 7.2c0 .67 1.946 1.224 4.499 1.331v4.07h1.8v-4.07c2.555-.106 4.502-.661 4.502-1.33 0-.67-1.947-1.225-4.502-1.332V8.401h3.15V6.6h-8.1v1.8h3.15v1.368c-2.553.107-4.498.662-4.498 1.331m6.299-.885v1.77c2.304-.077 4.05-.444 4.05-.885s-1.746-.808-4.05-.885m-1.8 0c-2.304.077-4.05.444-4.05.885s1.746.808 4.05.885z" clip-rule="evenodd"/>
</svg>
