<svg xmlns="http://www.w3.org/2000/svg" width="24" height="24" fill="none" viewBox="0 0 24 24">
    <path fill="#fff" d="M12 9.828c4.17 0 7.549-1.528 7.549-3.414C19.549 4.53 16.169 3 12 3S4.452 4.529 4.452 6.414 7.832 9.828 12 9.828"/>
    <path fill="#fff" d="M4.452 7.964v2.172c0 1.887 3.379 3.414 7.548 3.414s7.549-1.527 7.549-3.414V7.97h-.03c-.348 1.736-3.582 3.1-7.519 3.1S4.83 9.707 4.48 7.965z"/>
    <path fill="#fff" d="M4.452 11.692v2.172c0 1.881 3.379 3.414 7.548 3.414s7.549-1.533 7.549-3.414v-2.172h-.03c-.348 1.742-3.582 3.101-7.519 3.101s-7.17-1.364-7.52-3.1z"/>
    <path fill="#fff" d="M4.452 15.414v2.172C4.452 19.473 7.83 21 12 21s7.549-1.527 7.549-3.414v-2.172h-.03c-.348 1.742-3.582 3.1-7.519 3.1s-7.17-1.358-7.52-3.1z"/>
</svg>
