<svg xmlns="http://www.w3.org/2000/svg" width="24" height="24" fill="none" viewBox="0 0 24 24">
    <path fill="#fff" d="M8.485 2.244c-2.558.528-5.165 1.612-6.15 2.088-.246 3.576.963 7.043 1.599 8.33 1.999-2.512 5.662-5.273 6.598-5.913.635-.436.4-1.019.23-1.33C10.129 4.26 8.98 2.82 8.485 2.243M21.088 4.04c-4.06-1.946-8.698-2.146-10.509-2.003 1.623.95 2.561 2.189 3.002 2.507.353.254.842.182 1.043.113 2.15-.9 5.206-.786 6.464-.616m.602.992c.148 4.465-2.03 8.97-3.137 10.664 0-.311-1.754-5.726-2.332-6.93-.463-.962-.295-1.474 0-1.68 2.344-1.643 4.623-2.054 5.469-2.054m-9.788 4.191c-2.86 1.124-6.232 3.529-7.56 4.59 1.944 4.22 5.954 7.216 7.715 8.186 2.674-1.688 4.82-4.038 5.558-5.001-1.127-2.95-3.77-6.935-4.314-7.58-.435-.516-1.06-.33-1.399-.195"/>
</svg>
