<svg xmlns="http://www.w3.org/2000/svg" width="24" height="24" fill="none" viewBox="0 0 24 24">
    <path fill="#fff" d="M2.572 11.612a4.5 4.5 0 0 1-.522-2.13c3.579-2.37 10.902-7.137 11.555-7.226a2.13 2.13 0 0 1 1.332.206c5.578 6.402 6.746 11.754 7.028 15.23.13.913-.035 2.933-1.704 3.75-2.088 1.03-3.874-.247-5.324-.59-1.442-.35-4.396-1.477-5.763-2.357-1.36-.886-1.903-1.56-2.645-2.253-.749-.7-3.394-3.648-3.957-4.63"/>
    <path fill="#fff" d="M17.204 6.144c.268-.371.715.206.907.535 1.656 2.123 3.16 6.78 3.098 6.78-.46-1.483-4.328-6.855-4.005-7.315m-8.422.999c3.37-2.052 5.813-4.21 5.457-4.818-.357-.61-3.377.56-6.748 2.613-3.37 2.052-5.813 4.209-5.456 4.818s3.377-.56 6.747-2.613m-6.595 3.445c-.165-.15-.062-.384.014-.48.522.247 2.322-.22 3.16-.481-.99.377-3.009 1.113-3.174.961"/>
</svg>
