<svg xmlns="http://www.w3.org/2000/svg" width="24" height="24" fill="none" viewBox="0 0 24 24">
    <path fill="#fff" d="M11.325 6.6h1.35v11.25h-1.35z"/>
    <path fill="#fff" d="M7.633 7.329c0 1.938.827 2.86 2.792 4.224v-1.42c-1.092-.865-1.591-1.549-1.591-2.819 0-1.733 1.417-3.138 3.166-3.138s3.166 1.405 3.166 3.138c0 .568-.155 1.125-.449 1.611l-.468-1.972-1.208.281.957 3.934 3.924-1.042-.321-1.188-1.75.465a4.3 4.3 0 0 0 .517-2.074C16.368 4.939 14.413 3 12 3S7.633 4.938 7.633 7.329m8.734 9.342c0-1.938-.832-2.875-2.797-4.238v1.42c1.092.865 1.597 1.563 1.597 2.833 0 1.733-1.418 3.138-3.166 3.138-1.75 0-3.167-1.405-3.167-3.138 0-.59.164-1.14.449-1.611l.468 1.972 1.207-.282-.955-3.933-3.924 1.042.32 1.188 1.751-.465a4.3 4.3 0 0 0-.518 2.074C7.632 19.061 9.588 21 12 21s4.367-1.938 4.367-4.329"/>
</svg>
