<svg xmlns="http://www.w3.org/2000/svg" width="24" height="24" fill="none" viewBox="0 0 24 24">
    <path fill="#fff" d="M20.137 6.171 18.5 8.706a7.293 7.293 0 0 1-5.33 10.48 7.26 7.26 0 0 1-4.429-.688L6.2 20.133a9.985 9.985 0 0 0 15.765-7.322 10.03 10.03 0 0 0-1.83-6.646h.007z"/>
    <path fill="#fff" d="M12.013 17.01a5.02 5.02 0 0 0 4.942-4.117 11.44 11.44 0 0 0-9.107 1.894 5.03 5.03 0 0 0 4.165 2.223"/>
    <path fill="#fff" d="M14.49 11.723q1.289.002 2.547.276A5.027 5.027 0 0 0 7.2 10.555a5 5 0 0 0-.162 2.122c-.694.51-1.326 1.1-1.883 1.758a7.29 7.29 0 0 1 5.924-9.633 7.26 7.26 0 0 1 4.189.706l2.529-1.641A9.983 9.983 0 0 0 2.025 11.3a10 10 0 0 0 1.936 6.652 12 12 0 0 1 1.705-2.359 14 14 0 0 1 1.765-1.546 11.94 11.94 0 0 1 7.065-2.323z"/>
</svg>
