<svg xmlns="http://www.w3.org/2000/svg" width="24" height="24" fill="none" viewBox="0 0 24 24">
    <path fill="#fff" d="m19.322 6.756-1.472 2.28a6.564 6.564 0 0 1-4.796 9.432 6.53 6.53 0 0 1-3.987-.619L6.78 19.32a8.986 8.986 0 0 0 14.188-6.59 9.03 9.03 0 0 0-1.646-5.98h.006z"/>
    <path fill="#fff" d="M12.013 16.508a4.52 4.52 0 0 0 4.447-3.705 10.3 10.3 0 0 0-8.195 1.704 4.52 4.52 0 0 0 3.748 2.001"/>
    <path fill="#fff" d="M14.242 11.75q1.157 0 2.292.249a4.524 4.524 0 0 0-8.854-1.302 4.5 4.5 0 0 0-.146 1.91c-.625.46-1.193.99-1.694 1.583a6.562 6.562 0 0 1 5.33-8.67 6.53 6.53 0 0 1 3.77.635l2.277-1.477A8.984 8.984 0 0 0 3.022 11.37a9 9 0 0 0 1.742 5.986c.424-.767.94-1.48 1.535-2.122q.736-.762 1.588-1.392a10.75 10.75 0 0 1 6.359-2.09z"/>
</svg>
