<svg xmlns="http://www.w3.org/2000/svg" width="24" height="24" fill="none" viewBox="0 0 24 24">
    <path fill="#fff" d="M3.581 9.307c0-.599.447-1.08.999-1.08h.906c.551 0 .998.481.998 1.08v4.807c0 .598-.447 1.08-.998 1.08H4.58c-.552 0-.999-.482-.999-1.08zm13.935-.128c0-.523.447-.952.998-.952h.906c.552 0 .999.43.999.952v3.902c0 .522-.447.952-.999.952h-.906c-.551 0-.998-.43-.998-.952zm-3.484 2.373c0-.551.447-1.004.999-1.004h.906c.551 0 .998.453.998 1.004v6.12c0 .552-.447 1.005-.998 1.005h-.906c-.552 0-.999-.453-.999-1.005zM7.065 4.028c0-.57.447-1.028.999-1.028h.905c.552 0 1 .465 1 1.028v8.396c0 .569-.448 1.027-1 1.027h-.905c-.552 0-1-.464-1-1.027zm3.483 1.736c0-.563.447-1.022.999-1.022h.906c.551 0 .998.459.998 1.022v14.214c0 .563-.447 1.022-.998 1.022h-.906c-.552 0-.999-.459-.999-1.022z"/>
</svg>
