<svg width="24" height="24" viewBox="0 0 24 24" fill="none" xmlns="http://www.w3.org/2000/svg">
<path fill-rule="evenodd" clip-rule="evenodd" d="M17.4173 16.2086C18.4784 14.8496 18.9887 13.1408 18.8464 11.4225C18.7041 9.70426 17.9197 8.10265 16.6495 6.93675C15.3792 5.77086 13.7164 5.12627 11.9923 5.13138C10.2681 5.13649 8.60918 5.79093 7.3459 6.96433L7.92447 7.5429C8.03188 7.64974 8.09245 7.79488 8.09286 7.94638C8.09326 8.09789 8.03346 8.24334 7.92662 8.35076C7.81977 8.45817 7.67463 8.51874 7.52313 8.51914C7.37163 8.51954 7.22617 8.45974 7.11876 8.3529L6.57447 7.80861C5.86554 8.72639 5.40096 9.80898 5.22418 10.9551C5.0474 12.1013 5.1642 13.2735 5.56364 14.3623C5.96309 15.451 6.63214 16.4207 7.50821 17.1805C8.38429 17.9404 9.43877 18.4657 10.573 18.7072C10.5945 18.5958 10.6545 18.4929 10.7445 18.4029L12.5573 16.5858C12.6162 16.5226 12.6872 16.4719 12.766 16.4368C12.8449 16.4017 12.93 16.3828 13.0163 16.3812C13.1026 16.3797 13.1884 16.3956 13.2684 16.4279C13.3485 16.4603 13.4212 16.5084 13.4822 16.5694C13.5433 16.6305 13.5914 16.7032 13.6237 16.7832C13.6561 16.8633 13.6719 16.949 13.6704 17.0353C13.6689 17.1217 13.65 17.2068 13.6149 17.2856C13.5797 17.3645 13.5291 17.4355 13.4659 17.4943L12.103 18.8572C13.7871 18.8344 15.4034 18.1903 16.6416 17.0486L16.1702 16.5772C16.1167 16.5243 16.0742 16.4614 16.045 16.392C16.0159 16.3227 16.0007 16.2483 16.0003 16.1731C15.9999 16.0979 16.0143 16.0233 16.0427 15.9537C16.0711 15.884 16.113 15.8207 16.1659 15.7672C16.2188 15.7137 16.2817 15.6712 16.3511 15.642C16.4204 15.6129 16.4948 15.5977 16.57 15.5973C16.6452 15.5969 16.7198 15.6113 16.7894 15.6397C16.8591 15.6681 16.9224 15.71 16.9759 15.7629L17.4173 16.2086ZM10.2859 9.6429C10.2859 9.92706 10.173 10.1996 9.97209 10.4005C9.77115 10.6014 9.49863 10.7143 9.21447 10.7143C8.93031 10.7143 8.65779 10.6014 8.45686 10.4005C8.25593 10.1996 8.14304 9.92706 8.14304 9.6429C8.14304 9.35874 8.25593 9.08622 8.45686 8.88528C8.65779 8.68435 8.93031 8.57147 9.21447 8.57147C9.49863 8.57147 9.77115 8.68435 9.97209 8.88528C10.173 9.08622 10.2859 9.35874 10.2859 9.6429ZM10.8816 7.40576C10.826 7.45804 10.7814 7.52096 10.7506 7.59079C10.7197 7.66062 10.7032 7.73594 10.702 7.81227C10.7009 7.8886 10.715 7.96439 10.7437 8.03515C10.7724 8.1059 10.8149 8.17018 10.8689 8.22416C10.9229 8.27814 10.9872 8.32073 11.0579 8.34939C11.1287 8.37806 11.2045 8.39222 11.2808 8.39104C11.3571 8.38986 11.4325 8.37335 11.5023 8.3425C11.5721 8.31166 11.635 8.2671 11.6873 8.21147L13.303 6.59576C13.3587 6.54347 13.4032 6.48055 13.4341 6.41072C13.4649 6.34089 13.4814 6.26557 13.4826 6.18924C13.4838 6.11291 13.4696 6.03712 13.441 5.96636C13.4123 5.89561 13.3697 5.83133 13.3157 5.77735C13.2618 5.72337 13.1975 5.68078 13.1267 5.65212C13.056 5.62345 12.9802 5.60929 12.9038 5.61047C12.8275 5.61166 12.7522 5.62816 12.6824 5.65901C12.6125 5.68985 12.5496 5.73441 12.4973 5.79004L10.8816 7.40576ZM10.8345 10.8772C10.9414 10.7704 11.0863 10.7104 11.2373 10.7104C11.3884 10.7104 11.5333 10.7704 11.6402 10.8772L13.2602 12.4972C13.367 12.6046 13.4268 12.7501 13.4264 12.9016C13.426 13.0531 13.3655 13.1982 13.258 13.305C13.1506 13.4119 13.0052 13.4717 12.8537 13.4713C12.7022 13.4709 12.557 13.4103 12.4502 13.3029L10.8345 11.6872C10.7277 11.5803 10.6677 11.4354 10.6677 11.2843C10.6677 11.1332 10.7277 10.9883 10.8345 10.8815V10.8772ZM15.8573 14.7858C15.8573 15.0699 15.7444 15.3424 15.5435 15.5434C15.3426 15.7443 15.0701 15.8572 14.7859 15.8572C14.5017 15.8572 14.2292 15.7443 14.0283 15.5434C13.8274 15.3424 13.7145 15.0699 13.7145 14.7858C13.7145 14.5016 13.8274 14.2291 14.0283 14.0281C14.2292 13.8272 14.5017 13.7143 14.7859 13.7143C15.0701 13.7143 15.3426 13.8272 15.5435 14.0281C15.7444 14.2291 15.8573 14.5016 15.8573 14.7858Z" fill="white"/>
</svg>
