<svg width="24" height="24" viewBox="0 0 24 24" fill="none" xmlns="http://www.w3.org/2000/svg">
<path fill-rule="evenodd" clip-rule="evenodd" d="M8.35707 5.14282L12.4285 7.38854V11.8971L8.35707 14.1428L4.28564 11.8971V7.38854L8.35707 5.14282ZM4.71422 7.85997V11.6443L8.14279 13.5385V9.55711L4.71422 7.85568V7.85997ZM8.57136 9.56139V13.5385L11.9999 11.6443V7.85997L8.57136 9.56139ZM11.7556 7.50425L8.35707 9.19282L4.9585 7.50425L8.35707 5.63139L11.7556 7.50425Z" fill="white"/>
<path fill-rule="evenodd" clip-rule="evenodd" d="M16.0714 5.14282L20.1429 7.38854V11.8971L16.0714 14.1428L12 11.8971V7.38854L16.0714 5.14282ZM12.4286 7.85997V11.6443L15.8571 13.5385V9.55711L12.4286 7.85568V7.85997ZM16.2857 9.56139V13.5385L19.7143 11.6443V7.85997L16.2857 9.56139ZM19.47 7.50425L16.0714 9.19282L12.6729 7.50425L16.0714 5.63139L19.47 7.50425Z" fill="white"/>
<path fill-rule="evenodd" clip-rule="evenodd" d="M12.2145 11.5715L16.2859 13.8172V18.3258L12.2145 20.5715L8.14307 18.3258V13.8172L12.2145 11.5715ZM8.57164 14.2887V18.073L12.0002 19.9672V15.9858L8.57164 14.2844V14.2887ZM12.4288 15.9901V19.9672L15.8574 18.073V14.2887L12.4288 15.9901ZM15.6131 13.933L12.2145 15.6215L8.81592 13.933L12.2145 12.0601L15.6131 13.933Z" fill="white"/>
</svg>
