<svg width="24" height="24" viewBox="0 0 24 24" fill="none" xmlns="http://www.w3.org/2000/svg">
<path d="M7.83418 6.03007C8.75619 5.38415 9.81564 4.96123 10.929 4.79463C12.0424 4.62804 13.1792 4.72233 14.2499 5.07007C18.107 6.33007 20.1642 10.4186 18.9213 14.2501C18.6405 15.1182 18.2001 15.9264 17.6227 16.6329L16.937 18.6344C16.9113 18.7201 16.8385 18.7329 16.7827 18.6729L16.1142 18.0001C15.1564 18.6614 14.053 19.0816 12.8979 19.2249C11.7428 19.3681 10.5702 19.2302 9.47989 18.8229C8.4379 18.4442 7.49663 17.8315 6.72846 17.032C5.96028 16.2326 5.38565 15.2676 5.04873 14.2114C4.71182 13.1551 4.6216 12.0356 4.785 10.9391C4.94841 9.84246 5.36109 8.79794 5.99132 7.88579C5.80072 7.63245 5.70767 7.31897 5.72917 7.00267C5.75067 6.68637 5.88529 6.38837 6.10843 6.16316C6.33156 5.93795 6.62829 5.80056 6.94438 5.77613C7.26047 5.75169 7.57479 5.84183 7.82989 6.03007H7.83418ZM17.2927 16.0372C17.7464 15.4365 18.0969 14.7644 18.3299 14.0486C18.8754 12.3872 18.7428 10.5777 17.9611 9.01347C17.1794 7.44926 15.8118 6.25694 14.1556 5.69579L14.0613 5.66579C13.0922 5.35202 12.0641 5.26459 11.0559 5.41021C10.0477 5.55582 9.08632 5.93061 8.24561 6.50579C8.37114 6.75494 8.41506 7.0373 8.37112 7.31281C8.32718 7.58832 8.19763 7.84302 8.00082 8.04077C7.80402 8.23852 7.54995 8.3693 7.27465 8.41456C6.99935 8.45982 6.71679 8.41727 6.46703 8.29293C5.89011 9.14606 5.51986 10.1219 5.38566 11.143C5.25146 12.1641 5.35698 13.2024 5.69387 14.1757C6.03076 15.1489 6.58975 16.0303 7.32652 16.7499C8.06328 17.4695 8.95757 18.0076 9.93846 18.3215C10.8895 18.6362 11.8997 18.7303 12.8924 18.5966C13.8852 18.463 14.8345 18.1051 15.6685 17.5501L15.0599 16.9372C15.0042 16.8772 15.017 16.8086 15.0985 16.7829L17.2927 16.0372ZM14.0785 11.6144C13.7854 12.0609 13.4385 12.4697 13.0456 12.8315L11.7599 14.1429H14.5713V15.4286H9.42846V14.3144L11.6399 12.3001C12.0685 11.9015 12.3599 11.5801 12.5399 11.3401C12.7242 11.1001 12.8142 10.8686 12.8142 10.6458C12.8142 10.4229 12.7327 10.2386 12.5785 10.0886C12.4986 10.0126 12.4044 9.95295 12.3015 9.91324C12.1985 9.87353 12.0888 9.85449 11.9785 9.85721C11.5242 9.85721 11.0999 10.1572 10.7013 10.7572L9.42846 10.0544C9.75846 9.56579 10.1227 9.19721 10.5213 8.95293C10.9199 8.69579 11.4213 8.57579 12.0385 8.57579C12.6513 8.57579 13.1956 8.76007 13.6585 9.12864C13.8864 9.30457 14.0688 9.53261 14.1903 9.79361C14.3119 10.0546 14.369 10.341 14.357 10.6286C14.357 10.9715 14.267 11.3015 14.0785 11.6186V11.6144Z" fill="white"/>
</svg>
