<svg width="24" height="24" viewBox="0 0 24 24" fill="none" xmlns="http://www.w3.org/2000/svg">
<path d="M3.85693 16.5773C3.86551 17.0015 4.41408 16.8558 4.62408 16.7144H4.71408V17.3487L4.90265 17.5715L5.39979 17.0487V16.6801C5.51979 16.6115 5.76408 16.453 5.76408 16.3801C6.10693 15.3644 6.81836 15.0944 7.12693 15.0858L7.58551 14.5715H8.14693C8.39979 14.443 8.94836 14.4858 9.19265 14.4901L9.90836 13.8687L9.99408 13.5944C10.5426 13.5944 11.1684 13.2858 11.6441 13.2858H12.7198C12.9512 13.2858 13.3069 13.3073 13.4741 13.2215C13.4741 13.7958 13.7141 13.9073 13.7141 14.1815C13.7141 14.4044 13.5726 14.5115 13.4741 14.5715H13.7741C13.6841 14.623 13.4655 14.7858 13.3026 14.7858C13.0798 14.8501 13.0455 15.5744 13.0584 15.8573H13.4012C13.7526 15.5273 14.4469 14.6744 14.4469 14.4901C14.4469 14.2587 14.1426 14.0615 14.1426 13.4401C14.1426 12.943 14.4212 12.5873 14.5755 12.4287L14.7341 12.5273C14.8241 12.2958 15.0469 11.8415 15.2355 11.8415C15.4198 11.8415 15.7155 12.3815 15.8569 12.6515L15.6598 12.8573H15.8569C15.8012 12.9815 15.5998 13.2215 15.5055 13.2215C15.2698 13.2215 15.2269 13.7787 15.2355 14.143C15.6641 13.8515 16.5341 13.4015 16.5341 13.2215C16.5341 13.0458 16.3541 12.7673 16.2855 12.6515V12.0215C16.2855 11.3873 16.1526 11.1944 16.0626 11.143H15.5998C15.8741 11.0915 16.1955 9.85726 16.6112 9.85726C16.9455 9.85726 17.0912 10.7915 17.1384 11.203C17.2112 11.3315 17.4469 11.5715 17.7041 11.5715C17.9612 11.5715 18.3041 11.2844 18.4241 11.143V10.7358C18.4241 10.7358 18.5484 10.4615 18.6298 10.333V9.94298L18.8441 9.53584V9.22298C18.8912 9.26584 19.0198 9.34726 19.1441 9.34726C19.2941 9.34726 19.4698 9.18869 19.5298 9.05584C19.3495 9.05338 19.1727 9.00581 19.0155 8.91748C18.8582 8.82914 18.7257 8.70285 18.6298 8.55012C18.7798 8.63584 19.1698 8.81584 19.5298 8.81584C19.9798 8.81584 20.1384 8.45584 20.1384 8.14298C20.0355 8.37441 19.7869 8.57155 19.5984 8.57155C19.4141 8.57155 19.3198 8.43441 19.0798 8.16869C18.8355 7.90298 18.4369 7.91155 18.2226 7.91155C17.0226 6.48012 15.9855 6.42869 15.7284 6.42869C15.4712 6.42869 15.4884 6.46298 15.1026 6.51441C14.7169 6.56155 14.4341 6.34726 14.1855 6.46298C13.3112 6.96012 12.6769 7.00298 12.2484 7.14869C11.9055 7.26869 11.6355 7.70584 11.5412 7.91155C11.3012 8.26298 10.7184 9.05155 10.3155 9.38584C9.80122 9.81441 9.36408 9.85726 9.00408 9.85726C8.71693 9.85726 8.23265 9.59584 8.02265 9.42869C7.93265 9.42869 7.54265 9.42869 7.39265 9.38584C7.19979 9.33869 6.63836 8.94869 6.63836 8.35298C6.63836 7.87298 6.83551 7.49584 6.96836 7.36726C7.06265 7.40155 7.31122 7.46584 7.58122 7.46584C7.95836 7.46584 8.13836 7.25155 8.14693 7.02869C8.15551 6.88298 8.12122 6.73726 8.0955 6.63869C8.09473 6.72014 8.06819 6.79926 8.01969 6.8647C7.97118 6.93014 7.90321 6.97855 7.82551 7.00298C7.6845 6.90913 7.51917 6.85849 7.34979 6.85726C7.15693 6.85726 6.98122 7.08441 6.91693 7.20869C6.62417 7.51881 6.45102 7.92281 6.42836 8.34869C6.42836 8.95726 6.74551 9.33012 6.96408 9.48012C7.18693 9.63012 7.92408 9.87441 7.92408 10.1744C7.92408 10.6587 7.30265 11.1044 7.28551 11.3315C7.26836 11.5115 7.32836 12.5444 7.38836 13.0158C7.23408 13.1615 6.89122 13.4573 6.7455 13.4573C6.51408 13.4701 6.2655 13.6373 6.2055 13.7958C5.95693 14.5973 5.02693 15.0301 4.72265 15.1501C4.41408 15.2701 4.41408 15.4758 4.33693 15.6215C4.25979 15.7715 3.85693 16.153 3.85693 16.5815V16.5773Z" fill="white"/>
<path d="M17.2755 7.01155C17.1041 7.44441 16.8469 8.00584 16.7269 8.00584C16.6326 8.00584 16.5812 7.95441 16.5298 7.89869C16.4826 7.84726 16.4312 7.79584 16.3455 7.79584C16.2598 7.79584 16.2298 7.84726 16.1998 7.90298C16.1698 7.95441 16.1398 8.00584 16.0541 8.00584C15.9726 8.00584 15.8784 7.88584 15.7755 7.75726C15.6512 7.60298 15.5184 7.43584 15.3898 7.43584C15.2012 7.43584 15.0898 7.63298 15.0555 7.72726C14.8712 8.27155 14.4726 9.36012 14.3526 9.36012C14.2798 9.36012 14.2541 9.32584 14.2241 9.28726C14.1898 9.24441 14.1555 9.20155 14.0569 9.21441C13.9798 9.22298 13.9069 9.39441 13.8212 9.58726C13.7141 9.83584 13.5898 10.123 13.4184 10.123C13.3112 10.123 13.2469 10.0458 13.1912 9.96441C13.1226 9.87441 13.0541 9.78012 12.9126 9.78012C12.7026 9.78012 12.5869 10.0115 12.5569 10.123L12.1326 11.1901L11.8155 11.0787C11.6955 11.3787 11.3955 11.9787 11.1512 11.9787C10.8512 11.9787 10.6669 11.623 10.5084 11.3015C10.3755 11.0444 10.2598 10.8215 10.1055 10.8215C9.83122 10.8215 9.72836 11.2201 9.70693 11.4215H9.4155L8.85836 12.6387H8.62265L7.97979 14.5715H8.15122C8.36551 14.4601 8.81122 14.4773 9.08551 14.4858L9.19265 14.4901L9.90836 13.8687L9.99408 13.5944C10.2812 13.5944 10.5855 13.5087 10.8769 13.4315C11.1512 13.3587 11.4126 13.2858 11.6441 13.2858L12.8355 13.2858C13.0584 13.2858 13.3326 13.2944 13.4784 13.2215C13.4784 13.5644 13.5598 13.7358 13.6284 13.8858C13.6712 13.9844 13.7141 14.0701 13.7141 14.1858C13.7141 14.4001 13.5726 14.5115 13.4741 14.5715H13.7741L13.7141 14.6101C13.6069 14.6787 13.4398 14.7901 13.3069 14.7901C13.0798 14.8501 13.0498 15.5744 13.0584 15.8573H13.4012C13.7526 15.5273 14.4469 14.6744 14.4469 14.4901C14.4469 14.4044 14.4041 14.3187 14.3484 14.2158C14.2626 14.0444 14.1426 13.8258 14.1426 13.4401C14.1426 12.943 14.4212 12.5873 14.5755 12.4287L14.7341 12.5273C14.8241 12.2958 15.0469 11.8415 15.2355 11.8415C15.4198 11.8415 15.7155 12.3815 15.8569 12.6515L15.6598 12.8573H15.8569C15.8012 12.9815 15.5998 13.2215 15.5055 13.2215C15.2698 13.2215 15.2269 13.7787 15.2355 14.143C15.3641 14.0573 15.5269 13.9587 15.6984 13.8558C16.1055 13.6116 16.5341 13.3501 16.5341 13.2215C16.5341 13.0673 16.4012 12.8401 16.3198 12.7073L16.2855 12.6515V12.0215C16.2855 11.3873 16.1526 11.1944 16.0626 11.143H15.5998C15.7198 11.1215 15.8441 10.8773 15.9855 10.603C16.1698 10.2515 16.3755 9.85726 16.6112 9.85726C16.9455 9.85726 17.0912 10.7915 17.1384 11.203C17.2112 11.3315 17.4469 11.5715 17.7041 11.5715C17.9612 11.5715 18.3041 11.2844 18.4241 11.143V10.7358C18.4241 10.7358 18.5484 10.4615 18.6298 10.333V9.94298L18.8441 9.53584V9.22298C18.8912 9.26584 19.0198 9.34726 19.1441 9.34726C19.2941 9.34726 19.4698 9.18869 19.5298 9.05584C19.3495 9.05338 19.1727 9.00581 19.0155 8.91748C18.8582 8.82914 18.7257 8.70285 18.6298 8.55012C18.7798 8.63584 19.1698 8.81584 19.5298 8.81584C19.9798 8.81584 20.1384 8.45584 20.1384 8.14298C20.0355 8.37441 19.7869 8.57155 19.5984 8.57155C19.4398 8.57155 19.3412 8.46441 19.1612 8.26298L19.0755 8.16869C18.8441 7.91155 18.4584 7.91155 18.2441 7.91155H18.2269C17.8926 7.51726 17.5669 7.22584 17.2712 7.01155H17.2755Z" fill="white"/>
<path d="M17.1426 6.92155C17.0741 7.09298 16.9884 7.29012 16.9069 7.46584C16.8449 7.59392 16.7733 7.71713 16.6926 7.83441C16.6771 7.8199 16.6628 7.80413 16.6498 7.78726L16.6412 7.77869C16.5941 7.72726 16.4998 7.62869 16.3455 7.62869C16.2724 7.62836 16.2019 7.65595 16.1484 7.70583C16.1055 7.74441 16.0798 7.79155 16.0626 7.81298V7.81726L16.0541 7.83012C15.9994 7.77295 15.9479 7.71286 15.8998 7.65012L15.8698 7.61584C15.8113 7.5394 15.7468 7.46775 15.6769 7.40155C15.6084 7.34155 15.5098 7.27298 15.3941 7.27298C15.2398 7.27298 15.1241 7.35012 15.0512 7.43155C14.9741 7.51298 14.9269 7.60298 14.9055 7.67584C14.8155 7.94584 14.6698 8.34869 14.5326 8.68298C14.4689 8.84351 14.3974 9.00084 14.3184 9.15441C14.2944 9.12514 14.2654 9.10046 14.2326 9.08155C14.1729 9.05207 14.1056 9.0416 14.0398 9.05155C13.9716 9.06264 13.9102 9.09945 13.8684 9.15441C13.8341 9.19298 13.8084 9.24012 13.7826 9.28726C13.7443 9.3646 13.7085 9.44322 13.6755 9.52298L13.6369 9.60869C13.5975 9.70603 13.5487 9.79932 13.4912 9.88726C13.476 9.91138 13.4572 9.93305 13.4355 9.95155C13.4303 9.95531 13.4245 9.9582 13.4184 9.96012C13.3969 9.96012 13.3841 9.95584 13.3069 9.85298C13.2426 9.76726 13.1312 9.61726 12.9126 9.61726C12.7455 9.61726 12.6255 9.70726 12.5484 9.80155C12.4712 9.89155 12.4284 9.99441 12.4069 10.0673L12.0426 10.9844L11.7255 10.873L11.6655 11.0187C11.6098 11.1601 11.5112 11.3744 11.3955 11.5544C11.3398 11.6401 11.2841 11.713 11.2326 11.7601C11.1812 11.8116 11.1555 11.8158 11.1512 11.8158C11.0784 11.8158 11.0055 11.7773 10.9241 11.6873C10.8344 11.5751 10.7582 11.4528 10.6969 11.323L10.6498 11.233C10.5956 11.1213 10.5356 11.0126 10.4698 10.9073C10.4269 10.8473 10.3841 10.7873 10.3284 10.7401C10.2667 10.6858 10.1877 10.6554 10.1055 10.6544C9.87836 10.6544 9.74122 10.8258 9.66836 10.9715C9.6255 11.0615 9.59122 11.1644 9.57408 11.2544H9.31693L8.75979 12.4715H8.50693L7.80836 14.5715H8.14693L8.73408 12.8015H8.96122L9.51836 11.5844H9.85265L9.86551 11.4344C9.87408 11.3487 9.89979 11.2201 9.95122 11.1216C10.0026 11.0187 10.0584 10.9844 10.1055 10.9844C10.1055 10.9844 10.1141 10.9844 10.1269 10.9973C10.1484 11.0144 10.1741 11.0444 10.2084 11.0958C10.2632 11.186 10.3133 11.279 10.3584 11.3744L10.4141 11.4773C10.4912 11.623 10.5812 11.7858 10.6926 11.9101C10.8041 12.0387 10.9541 12.1458 11.1512 12.1458C11.2755 12.1458 11.3784 12.073 11.4512 12.0044C11.5284 11.9316 11.6012 11.833 11.6655 11.7344C11.7555 11.5887 11.8369 11.4215 11.9012 11.2844L12.2226 11.3915L12.7069 10.1787V10.1658C12.7198 10.1273 12.7498 10.0673 12.7926 10.0158C12.8269 9.96869 12.8698 9.94726 12.9126 9.94726C12.9641 9.94726 12.9898 9.96869 13.0541 10.0544L13.0669 10.0715C13.1226 10.1444 13.2298 10.2858 13.4184 10.2858C13.5726 10.2858 13.6841 10.1744 13.7484 10.0844C13.8212 9.98584 13.8769 9.85726 13.9284 9.74584L13.9712 9.64726C14.0102 9.55967 14.0531 9.47387 14.0998 9.39012C14.1084 9.40298 14.1384 9.44155 14.1726 9.46726C14.2198 9.50584 14.2798 9.52726 14.3526 9.52726C14.4126 9.52726 14.4598 9.49298 14.4812 9.47584C14.5026 9.45441 14.5241 9.43298 14.5369 9.41155L14.6269 9.26155C14.6869 9.14155 14.7555 8.98298 14.8284 8.81155C14.9655 8.46869 15.1155 8.05726 15.2055 7.78298C15.2214 7.73716 15.2461 7.69493 15.2784 7.65869C15.3169 7.62012 15.3555 7.60298 15.3941 7.60298L15.4112 7.60726L15.4669 7.65012C15.5141 7.69298 15.5655 7.75298 15.6255 7.82584L15.6512 7.86012C15.6941 7.92012 15.7498 7.98441 15.7969 8.03155C15.8269 8.06584 15.8612 8.09584 15.8998 8.12155C15.9525 8.15932 16.0167 8.1778 16.0814 8.1739C16.1462 8.16999 16.2077 8.14395 16.2555 8.10012C16.2984 8.05726 16.3241 8.01441 16.3369 7.98869V7.98441L16.3541 7.95869C16.3626 7.95869 16.3712 7.96726 16.4184 8.01441V8.01869C16.4741 8.07441 16.5641 8.17298 16.7269 8.17298C16.793 8.16757 16.8544 8.13686 16.8984 8.08726C16.9369 8.05298 16.9712 8.01012 17.0012 7.96298C17.0612 7.86869 17.1298 7.74441 17.1941 7.61155L17.4084 7.11441C17.3223 7.04667 17.2337 6.98234 17.1426 6.92155Z" fill="white"/>
</svg>
