<svg width="24" height="24" viewBox="0 0 24 24" fill="none" xmlns="http://www.w3.org/2000/svg">
<path d="M11.9998 7.06675C12.318 7.06675 12.6233 6.94032 12.8483 6.71528C13.0734 6.49023 13.1998 6.18501 13.1998 5.86675C13.1998 5.54849 13.0734 5.24326 12.8483 5.01822C12.6233 4.79318 12.318 4.66675 11.9998 4.66675C11.6815 4.66675 11.3763 4.79318 11.1513 5.01822C10.9262 5.24326 10.7998 5.54849 10.7998 5.86675C10.7998 6.18501 10.9262 6.49023 11.1513 6.71528C11.3763 6.94032 11.6815 7.06675 11.9998 7.06675ZM11.9998 19.3333C12.318 19.3333 12.6233 19.2069 12.8483 18.9818C13.0734 18.7568 13.1998 18.4516 13.1998 18.1333C13.1998 17.8151 13.0734 17.5098 12.8483 17.2848C12.6233 17.0597 12.318 16.9333 11.9998 16.9333C11.6815 16.9333 11.3763 17.0597 11.1513 17.2848C10.9262 17.5098 10.7998 17.8151 10.7998 18.1333C10.7998 18.4516 10.9262 18.7568 11.1513 18.9818C11.3763 19.2069 11.6815 19.3333 11.9998 19.3333ZM12.4284 7.71432H11.5712V9.42861H12.4284V7.71432ZM12.4284 14.5715H11.5712V16.2857H12.4284V14.5715ZM7.0665 12C7.0665 11.6818 6.94008 11.3765 6.71503 11.1515C6.48999 10.9265 6.18476 10.8 5.8665 10.8C5.54824 10.8 5.24302 10.9265 5.01798 11.1515C4.79293 11.3765 4.6665 11.6818 4.6665 12C4.6665 12.3183 4.79293 12.6235 5.01798 12.8486C5.24302 13.0736 5.54824 13.2 5.8665 13.2C6.18476 13.2 6.48999 13.0736 6.71503 12.8486C6.94008 12.6235 7.0665 12.3183 7.0665 12ZM18.1331 10.8C18.4513 10.8 18.7566 10.9265 18.9816 11.1515C19.2066 11.3765 19.3331 11.6818 19.3331 12C19.3331 12.3183 19.2066 12.6235 18.9816 12.8486C18.7566 13.0736 18.4513 13.2 18.1331 13.2C17.8148 13.2 17.5096 13.0736 17.2845 12.8486C17.0595 12.6235 16.9331 12.3183 16.9331 12C16.9331 11.6818 17.0595 11.3765 17.2845 11.1515C17.5096 10.9265 17.8148 10.8 18.1331 10.8ZM7.71408 12.4286V11.5715H9.42836V12.4286H7.71408ZM14.5712 12.4286V11.5715H16.2855V12.4286H14.5712ZM8.50565 6.81818C8.61708 6.92961 8.70548 7.06191 8.76579 7.2075C8.8261 7.3531 8.85714 7.50915 8.85714 7.66675C8.85714 7.82434 8.8261 7.98039 8.76579 8.12599C8.70548 8.27159 8.61708 8.40388 8.50565 8.51532C8.39421 8.62676 8.26192 8.71515 8.11632 8.77546C7.97072 8.83577 7.81467 8.86681 7.65708 8.86681C7.49948 8.86681 7.34343 8.83577 7.19783 8.77546C7.05223 8.71515 6.91994 8.62676 6.8085 8.51532C6.58345 8.29026 6.45701 7.98502 6.45701 7.66675C6.45701 7.34847 6.58345 7.04323 6.8085 6.81818C7.03356 6.59312 7.3388 6.46669 7.65708 6.46669C7.97535 6.46669 8.28059 6.59312 8.50565 6.81818ZM17.1812 17.1819C17.2927 17.0705 17.3811 16.9382 17.4414 16.7926C17.5017 16.647 17.5327 16.4909 17.5327 16.3333C17.5327 16.1757 17.5017 16.0197 17.4414 15.8741C17.3811 15.7285 17.2927 15.5962 17.1812 15.4847C17.0698 15.3733 16.9375 15.2849 16.7919 15.2246C16.6463 15.1643 16.4902 15.1333 16.3326 15.1333C16.1751 15.1333 16.019 15.1643 15.8734 15.2246C15.7278 15.2849 15.5955 15.3733 15.4841 15.4847C15.259 15.7098 15.1326 16.015 15.1326 16.3333C15.1326 16.6516 15.259 16.9568 15.4841 17.1819C15.7091 17.4069 16.0144 17.5334 16.3326 17.5334C16.6509 17.5334 16.9562 17.4069 17.1812 17.1819ZM9.62636 8.39318L8.39979 9.62661L9.53293 10.7666L10.7599 9.53318L9.62636 8.39318ZM14.4469 13.2133L13.2126 14.4472L14.3526 15.5872L15.5792 14.3537L14.4469 13.2133ZM15.4896 8.51061C15.6011 8.62204 15.7334 8.71044 15.879 8.77075C16.0246 8.83105 16.1806 8.86209 16.3382 8.86209C16.4958 8.86209 16.6519 8.83105 16.7975 8.77075C16.9431 8.71044 17.0754 8.62204 17.1868 8.51061C17.2982 8.39917 17.3866 8.26688 17.4469 8.12128C17.5072 7.97568 17.5383 7.81963 17.5383 7.66203C17.5383 7.50444 17.5072 7.34839 17.4469 7.20279C17.3866 7.05719 17.2982 6.9249 17.1868 6.81346C16.9617 6.58841 16.6565 6.46197 16.3382 6.46197C16.0199 6.46197 15.7147 6.58841 15.4896 6.81346C15.2646 7.03852 15.1382 7.34376 15.1382 7.66203C15.1382 7.98031 15.2646 8.28555 15.4896 8.51061ZM8.51036 17.1772C8.39893 17.2886 8.26663 17.377 8.12103 17.4373C7.97543 17.4976 7.81938 17.5287 7.66179 17.5287C7.5042 17.5287 7.34814 17.4976 7.20255 17.4373C7.05695 17.377 6.92465 17.2886 6.81322 17.1772C6.70178 17.0657 6.61339 16.9334 6.55308 16.7878C6.49277 16.6423 6.46173 16.4862 6.46173 16.3286C6.46173 16.171 6.49277 16.015 6.55308 15.8694C6.61339 15.7238 6.70178 15.5915 6.81322 15.48C7.03827 15.255 7.34351 15.1285 7.66179 15.1285C7.98007 15.1285 8.28531 15.255 8.51036 15.48C8.73542 15.7051 8.86185 16.0103 8.86185 16.3286C8.86185 16.6469 8.73542 16.9521 8.51036 17.1772ZM10.6468 13.353C10.8245 13.5307 11.0354 13.6717 11.2676 13.7678C11.4997 13.864 11.7485 13.9135 11.9998 13.9135C12.2511 13.9135 12.4999 13.864 12.732 13.7678C12.9642 13.6717 13.1751 13.5307 13.3528 13.353C13.5305 13.1754 13.6714 12.9644 13.7676 12.7323C13.8637 12.5001 13.9132 12.2513 13.9132 12C13.9132 11.7488 13.8637 11.4999 13.7676 11.2678C13.6714 11.0356 13.5305 10.8247 13.3528 10.647C12.994 10.2882 12.5073 10.0866 11.9998 10.0866C11.4923 10.0866 11.0056 10.2882 10.6468 10.647C10.288 11.0059 10.0864 11.4926 10.0864 12C10.0864 12.5075 10.288 12.9942 10.6468 13.353ZM15.6131 9.62661L14.3664 8.38675L13.2264 9.52675L14.4735 10.7735L15.6131 9.62661ZM10.7929 14.4532L9.54622 13.2069L8.40622 14.3469L9.65336 15.5867L10.7929 14.4532Z" fill="white"/>
</svg>
