<svg width="24" height="24" viewBox="0 0 24 24" fill="none" xmlns="http://www.w3.org/2000/svg">
<path d="M10.8857 4.77003L4.77431 10.7957C4.42288 11.1386 4.28145 11.5672 4.28574 12C4.28422 12.45 4.4597 12.8826 4.77431 13.2043L10.8857 19.2343C11.2329 19.5772 11.67 19.7143 12.1072 19.7143C12.5443 19.7143 12.9815 19.5772 13.3286 19.23L17.2286 15.39C16.2257 15.3 15.8872 15.5186 15.4886 15.7672C15.2272 15.9343 14.9357 16.1186 14.4172 16.2386C14.1557 16.2986 13.9372 16.3372 13.7572 16.3372C13.3157 16.3372 13.0972 16.1872 12.9043 16.0543C12.7543 15.9472 12.6257 15.8572 12.42 15.8572H10.1486C10.5172 15.2915 10.2686 15.1115 10.2686 15.1115C10.2686 15.1115 9.48002 14.9229 9.66431 12.9643C8.05717 11.2115 8.1986 9.10717 8.1986 9.10717C8.1986 9.10717 8.73431 10.8386 11.13 11.76C11.0272 10.44 11.3915 9.91717 11.5586 9.68574L11.6186 9.58717L11.7 9.7586C11.9186 10.2386 12.2229 10.9072 13.8172 11.2757C14.3315 10.6329 14.5329 10.4743 14.9615 10.1357L15.0429 10.0715C14.6743 8.84574 14.7386 8.16431 15.0429 7.6586L15.1457 7.91574C15.4886 8.77288 16.0372 10.1529 18.4286 9.79717L13.3286 4.77003C13.1674 4.61217 12.9764 4.48804 12.7666 4.40488C12.5569 4.32173 12.3327 4.28123 12.1072 4.28574C11.67 4.28574 11.2329 4.42288 10.8857 4.77003Z" fill="white"/>
<path d="M12.8315 12.8357C12.7457 12.8829 12.66 12.9215 12.5957 12.9643C13.5386 13.7657 14.49 12.2657 14.0615 12C13.6932 12.3356 13.2791 12.617 12.8315 12.8357Z" fill="white"/>
</svg>
