<svg width="24" height="24" viewBox="0 0 24 24" fill="none" xmlns="http://www.w3.org/2000/svg">
<path fill-rule="evenodd" clip-rule="evenodd" d="M12.0001 18.8572C13.8187 18.8572 15.5628 18.1348 16.8488 16.8488C18.1348 15.5628 18.8572 13.8187 18.8572 12.0001C18.8572 10.1814 18.1348 8.4373 16.8488 7.15134C15.5628 5.86537 13.8187 5.14293 12.0001 5.14293C10.1814 5.14293 8.4373 5.86537 7.15134 7.15134C5.86537 8.4373 5.14293 10.1814 5.14293 12.0001C5.14293 13.8187 5.86537 15.5628 7.15134 16.8488C8.4373 18.1348 10.1814 18.8572 12.0001 18.8572ZM12.0001 19.2858C13.9324 19.2858 15.7855 18.5182 17.1518 17.1518C18.5182 15.7855 19.2858 13.9324 19.2858 12.0001C19.2858 10.0678 18.5182 8.21463 17.1518 6.84829C15.7855 5.48196 13.9324 4.71436 12.0001 4.71436C10.0678 4.71436 8.21463 5.48196 6.84829 6.84829C5.48196 8.21463 4.71436 10.0678 4.71436 12.0001C4.71436 13.9324 5.48196 15.7855 6.84829 17.1518C8.21463 18.5182 10.0678 19.2858 12.0001 19.2858Z" fill="white"/>
<path d="M15.6086 12.2144C15.5144 13.3844 14.8072 15.4286 12.5058 15.4286C10.8772 15.4286 9.2915 13.7701 8.1515 12.7415C8.00578 12.6001 7.71436 12.2486 7.71436 12.0001C7.71436 11.7515 8.00578 11.4001 8.1515 11.2586C9.2915 10.2301 10.8815 8.5715 12.5058 8.5715C14.7772 8.5715 15.4972 10.6115 15.6044 11.7858H18.8572V12.2144H15.6086ZM14.8844 11.7858C14.9572 11.7858 15.0129 11.7215 15.0001 11.6486C14.8544 10.6672 14.2158 9.00007 12.4286 9.00007C11.6958 9.00007 10.8472 9.65578 10.4315 9.94293C10.4215 9.95001 10.4132 9.95916 10.407 9.96974C10.4009 9.98033 10.397 9.99211 10.3958 10.0043C10.3946 10.0165 10.396 10.0288 10.4 10.0404C10.4039 10.052 10.4103 10.0626 10.4186 10.0715L11.9486 11.7858H14.8844ZM10.8215 11.7858C10.9286 11.7858 10.9801 11.6529 10.9072 11.5715L9.87007 10.3715C9.40293 10.7658 8.70007 11.2629 8.35721 11.7858H10.8215ZM15.0044 12.3515C15.0172 12.2786 14.9272 12.2144 14.8586 12.2144C14.7215 12.2144 14.6272 12.2701 14.5286 12.3686L12.2015 14.9829C12.2786 14.9958 12.3558 15.0001 12.4286 15.0001C14.2415 15.0001 14.8715 13.3286 15.0044 12.3515ZM13.3715 12.7158C13.5215 12.5572 13.4144 12.2144 13.2001 12.2144H8.35721C9.31206 13.2115 10.3926 14.0802 11.5715 14.7986L13.3715 12.7158Z" fill="white"/>
</svg>
