<svg width="24" height="24" viewBox="0 0 24 24" fill="none" xmlns="http://www.w3.org/2000/svg">
<path d="M15.4288 13.2858C14.6231 14.2501 13.7145 14.5715 12.4288 14.5715C11.5802 14.5715 10.8216 14.2715 10.2859 13.9286L9.42878 15.0001C10.1145 15.5186 11.1688 15.8572 12.4288 15.8572C13.5431 15.8572 14.4731 15.6644 15.4288 15.0001L16.7145 16.2858C15.3905 17.3885 13.7233 17.9948 12.0002 18.0001C9.66878 18.0172 7.81307 17.0272 6.85735 15.0001C7.37729 14.69 7.80831 14.2509 8.10865 13.7253C8.409 13.1997 8.56848 12.6054 8.57164 12.0001C8.57164 10.9801 7.85164 9.72436 6.85735 9.00007C7.85164 7.12721 9.57021 6.04293 12.0002 6.00007C13.6159 5.98293 15.5745 6.67293 16.7145 7.71436L15.4288 9.00007C14.4816 8.40007 13.5431 8.14293 12.4288 8.14293C11.2716 8.14293 10.1016 8.42578 9.42878 9.00436L10.2859 10.0758C10.8002 9.7415 11.7302 9.42864 12.4288 9.42864C13.6802 9.42864 14.6231 9.75007 15.4288 10.7144L18.4288 7.71436C17.0445 5.8415 14.8202 4.71436 12.0002 4.71436C8.80307 4.71436 6.17592 6.4715 5.14307 9.42864C6.30021 9.90007 7.28592 10.9115 7.28592 12.0001C7.28592 13.0886 6.30878 14.1086 5.14307 14.5715C5.92735 17.7944 8.73878 19.3501 12.0002 19.2858C14.9402 19.2344 17.1774 18.1286 18.4288 16.2858L15.4288 13.2858Z" fill="white"/>
</svg>
