<svg width="24" height="24" viewBox="0 0 24 24" fill="none" xmlns="http://www.w3.org/2000/svg">
<path d="M11.9999 3.85718L7.28564 6.42861V11.5715L8.06993 12L7.28564 12.4286V17.5715L11.9442 20.1429L16.7142 17.5715V14.5715H14.4471L11.9999 15.8743L9.85707 14.7343V15.69L11.9999 16.8515L14.7299 15.4029H15.8571V17.1429L11.9999 19.2858L8.14279 17.1429V12.8572L8.88422 12.4458L11.9999 14.1429L14.8071 12.6129L14.0185 12.1629L11.9999 13.2857L9.68564 12L8.8885 11.5543L8.14279 11.1429V6.85718L11.9999 4.71432L15.8571 6.85718V7.92861H16.7142V6.42861L11.9999 3.85718ZM16.7142 8.33575H15.8571V11.1429L15.1156 11.5543L11.9999 9.85718L9.2485 11.3572L10.0542 11.7943L11.9999 10.7143L13.6628 11.6357L15.2699 12.5229L15.2614 12.5272L15.8571 12.8572V14.1429H16.7142V12.4286L15.9299 12L16.7142 11.5715V8.33575Z" fill="white"/>
<path d="M15.6256 6.59575C15.5742 6.59146 15.5656 6.66861 15.5699 6.70289C15.5699 6.78432 15.7199 6.70289 15.7371 6.68575C15.7499 6.66861 15.6942 6.60004 15.6256 6.59575ZM16.3285 6.57003C16.2728 6.55718 16.2171 6.62575 16.1956 6.66432C16.1956 6.77146 16.2814 6.70718 16.3285 6.66432C16.3542 6.63861 16.3885 6.57861 16.3285 6.57003ZM15.7799 6.22718C15.7285 6.21861 15.7371 6.16289 15.7456 6.14146C15.7756 6.07718 15.8742 6.14146 15.8742 6.18004C15.8742 6.22289 15.8442 6.24003 15.7799 6.22718ZM16.2942 7.27718C16.2873 7.25105 16.2906 7.22328 16.3033 7.19944C16.316 7.1756 16.3373 7.15744 16.3628 7.14861C16.4656 7.19146 16.4056 7.32861 16.3928 7.38432C16.3799 7.43575 16.3199 7.37575 16.2942 7.27718ZM16.6542 7.79146C16.5428 7.81289 16.4271 7.94575 16.3842 8.00575L16.6542 8.03575C16.6971 7.94575 16.7656 7.76575 16.6542 7.79146ZM15.8314 7.83004C15.7714 7.80432 15.7199 7.93718 15.7028 8.00146H15.9642C15.9471 7.95861 15.8914 7.86004 15.8356 7.83004H15.8314ZM16.1442 7.79146C16.1014 7.81718 16.0628 7.73575 16.0499 7.69289C16.0756 7.61575 16.1442 7.64146 16.1828 7.67146C16.2256 7.69718 16.1956 7.75718 16.1442 7.79146ZM16.2814 7.58146C16.2471 7.59861 16.1399 7.50432 16.0885 7.45289C16.0885 7.39289 16.1742 7.41432 16.2128 7.42718C16.2428 7.44004 16.3242 7.55575 16.2814 7.58146ZM16.0071 7.58575C16.0285 7.53004 15.9514 7.52146 15.9128 7.52146L15.8399 7.65004C15.8828 7.65004 15.9856 7.63718 16.0114 7.58575H16.0071ZM11.8842 10.68C11.8628 10.6757 11.8542 10.62 11.8542 10.5943C11.9142 10.53 11.9356 10.5943 11.9485 10.6157C11.9571 10.6329 11.9142 10.6886 11.8842 10.68ZM11.4514 10.5429C11.4428 10.4915 11.4128 10.4743 11.3999 10.47H11.6056C11.5885 10.5 11.5542 10.5643 11.5671 10.5772C11.5885 10.5943 11.5585 10.6715 11.5028 10.6586C11.4471 10.6415 11.4599 10.6029 11.4514 10.5429ZM16.6156 9.16718C16.5856 9.16718 16.4999 9.04718 16.4571 8.98718C16.5171 9.05575 16.8128 8.98718 16.8214 9.00432C16.8342 9.02575 16.6542 9.16718 16.6156 9.16718ZM16.7228 8.70003C16.6971 8.65718 16.5728 8.66575 16.5171 8.67432C16.5342 8.70004 16.5856 8.75146 16.6156 8.76432C16.6585 8.78146 16.7528 8.76003 16.7228 8.70003ZM16.0242 8.82003C15.9814 8.81146 15.9428 8.85004 15.9299 8.87146C15.9428 8.92718 15.9942 8.91861 16.0371 8.92718C16.0799 8.93575 16.1442 8.90146 16.1399 8.85003C16.1356 8.80718 16.0756 8.83289 16.0242 8.82003ZM16.3499 8.77289C16.3371 8.68718 16.2642 8.66575 16.2256 8.67003C16.2256 8.70432 16.2085 8.79432 16.2042 8.88432C16.1956 9.00003 16.2771 9.03861 16.3242 9.03861C16.3714 9.03861 16.3628 8.88003 16.3456 8.77289H16.3499Z" fill="white"/>
<path d="M16.7699 9.29146C16.7999 9.22289 16.5214 9.07718 16.6414 9.10718C16.7956 9.14146 16.7828 9.36861 16.7699 9.29146ZM16.4185 9.41575C16.3756 9.43718 16.3928 9.32575 16.4056 9.26575C16.4565 9.25512 16.5091 9.25512 16.5599 9.26575C16.6028 9.28718 16.4742 9.39432 16.4185 9.41575ZM16.2299 9.66004C16.2042 9.61289 16.2428 9.54861 16.2642 9.52289C16.3499 9.52289 16.3414 9.72432 16.3285 9.74575C16.3156 9.76289 16.2642 9.72004 16.2299 9.66004ZM15.9728 9.49718L15.9514 9.12861C15.9814 9.11575 16.0542 9.08575 16.1014 9.08575C16.1656 9.09004 16.1314 9.12861 16.1314 9.18003C16.1314 9.22289 16.0714 9.22289 16.0414 9.21861V9.45861C16.0542 9.45861 16.0885 9.45432 16.1314 9.43718C16.1871 9.41146 16.1228 9.36003 16.1014 9.30003C16.0842 9.24004 16.1271 9.27861 16.2471 9.30003C16.3714 9.32146 16.2985 9.46289 16.2471 9.45861C16.1999 9.45861 16.2042 9.48003 16.1914 9.53146C16.1785 9.57861 16.0328 9.63432 15.9771 9.61718C15.9171 9.60004 15.9771 9.56575 15.9771 9.49718H15.9728ZM15.8399 8.65289C15.7971 8.64004 15.7756 8.57575 15.7714 8.54575L16.0414 8.51575C16.0928 8.53718 16.1914 8.59289 16.1742 8.63575C16.1571 8.68718 15.8871 8.66575 15.8399 8.65289ZM15.7928 9.46289C15.7414 9.46289 15.7414 9.39432 15.7499 9.35575C15.8014 9.31289 15.8614 9.36432 15.8699 9.38575C15.8828 9.40289 15.8571 9.46289 15.7928 9.46289ZM15.8699 9.63861C15.8528 9.66432 15.7971 9.58289 15.7714 9.53575C15.8027 9.52353 15.8363 9.5177 15.8699 9.51861C15.8999 9.52718 15.8956 9.60432 15.8699 9.63861ZM16.4999 9.98575C16.4891 9.97745 16.4812 9.96592 16.4773 9.95282C16.4735 9.93972 16.4739 9.92574 16.4785 9.91289C16.6071 9.90003 16.6242 10.0372 16.6242 10.0586C16.6242 10.08 16.5342 10.0157 16.4956 9.98575H16.4999ZM16.3199 10.1829C16.2814 10.1957 16.2471 10.0757 16.2342 10.0157C16.2617 10.0048 16.2924 10.0048 16.3199 10.0157C16.3628 10.0372 16.3714 10.17 16.3199 10.1872V10.1829ZM16.0028 10.2515C15.9599 10.2215 16.0199 10.1357 16.0542 10.0972C16.0671 10.0972 16.0971 10.1057 16.1142 10.14C16.1314 10.1743 16.0542 10.2857 16.0028 10.2515ZM15.8056 10.0286C15.7371 10.0286 15.7414 9.96432 15.7542 9.93432C15.7842 9.92146 15.8485 9.90003 15.8699 9.91718C15.8999 9.93432 15.8914 10.0286 15.8056 10.0286ZM16.8728 10.4015C16.8514 10.3672 16.5856 10.3629 16.6371 10.3757C16.6371 10.3972 16.6499 10.4443 16.6456 10.4615C16.6456 10.4872 16.8942 10.44 16.8728 10.4015ZM16.7271 10.1572C16.7399 10.2343 16.4442 10.3629 16.6242 10.3372C16.8471 10.3072 16.8128 10.1015 16.7271 10.1615V10.1572Z" fill="white"/>
<path d="M16.4142 10.4572C16.3842 10.4957 16.4014 10.5515 16.4142 10.5772C16.4614 10.5772 16.5642 10.5686 16.6028 10.5386C16.6499 10.5043 16.6328 10.3757 16.6028 10.3457C16.5728 10.3157 16.4571 10.4143 16.4185 10.4615L16.4142 10.4572ZM15.7714 10.5643C15.7928 10.5429 15.8485 10.3629 15.8742 10.2772C15.8742 10.3629 16.0156 10.4529 16.0842 10.4915V10.5643C15.9728 10.5772 15.7585 10.59 15.7756 10.5643H15.7714ZM16.3414 11.5415C16.2985 11.5329 16.2385 11.5586 16.2128 11.5715C16.2128 11.6015 16.3156 11.6357 16.3414 11.6272C16.3671 11.6143 16.3885 11.5543 16.3414 11.5415ZM16.5214 11.4086C16.4871 11.3443 16.7056 11.4386 16.7099 11.4429L16.6799 11.5372C16.6371 11.5157 16.5471 11.4557 16.5214 11.4086ZM16.4528 11.2672C16.4271 11.2029 16.4999 11.1643 16.5428 11.1515V11.3443C16.5428 11.3615 16.4871 11.3443 16.4528 11.2672ZM16.1528 11.04C16.0971 10.9929 16.1742 10.8857 16.2214 10.8386C16.2685 10.8343 16.3714 10.8386 16.3842 10.8815C16.4014 10.9372 16.2214 11.0957 16.1528 11.04ZM15.3171 12.5443C15.2956 12.5357 15.3085 12.48 15.3171 12.45C15.3899 12.4672 15.5314 12.51 15.5314 12.5443C15.5314 12.5872 15.3428 12.5486 15.3171 12.5443ZM15.2356 12.3857C15.1842 12.3686 15.2571 12.2572 15.2956 12.2057C15.3214 12.2143 15.3728 12.24 15.3814 12.2743C15.3899 12.3172 15.2956 12.4029 15.2356 12.3857ZM15.5999 12C15.5314 12 15.5228 11.7857 15.5271 11.6829C15.6599 11.61 15.7114 11.8329 15.7328 11.9057C15.7585 11.9743 15.6771 12.0043 15.5956 12H15.5999ZM15.0985 11.7472C15.0856 11.8415 15.1456 11.9186 15.1842 11.9486C15.2785 11.9057 15.2142 11.82 15.2014 11.76C15.1971 11.7172 15.3556 11.5672 15.4328 11.4986C15.4885 11.4986 15.6171 11.4943 15.6728 11.4857C15.7285 11.4772 15.6942 11.4215 15.6728 11.3915C15.5614 11.3872 15.3385 11.3872 15.3256 11.4257C15.3085 11.4729 15.1199 11.6272 15.0985 11.7472ZM14.2928 12.4243C14.2499 12.4243 14.2885 12.4972 14.3099 12.5357C14.3528 12.5357 14.4471 12.5272 14.4385 12.4886C14.4299 12.4415 14.3399 12.4286 14.2928 12.4243ZM14.0656 12.4672C14.0228 12.4243 13.9671 12.5357 13.9414 12.5957C14.1385 12.5957 14.0485 12.7415 14.0785 12.7329C14.1042 12.7286 14.1985 12.7457 14.2414 12.7543C14.2414 12.8272 14.2499 12.9686 14.2842 12.9857C14.3142 13.0029 14.4899 12.84 14.5756 12.7543C14.5328 12.7243 14.4385 12.6515 14.3785 12.6257C14.3014 12.5957 14.1814 12.6257 14.1085 12.5957C14.0399 12.57 14.1171 12.5186 14.0656 12.4672ZM13.7185 12.4586C13.7228 12.39 13.7614 12.2529 13.8814 12.2743C14.0014 12.2957 13.8256 12.4029 13.7185 12.4586ZM13.4228 12.6943C13.3799 12.66 13.2471 12.7286 13.1871 12.7629L13.2171 12.81C13.2899 12.8186 13.4571 12.8272 13.4956 12.81C13.5471 12.7886 13.4828 12.7372 13.4271 12.6943H13.4228ZM13.2985 12.4972C13.2471 12.4757 13.2085 12.5657 13.1914 12.6129C13.2556 12.6129 13.3842 12.6043 13.3885 12.57C13.3971 12.5272 13.3585 12.5272 13.2985 12.4972ZM14.2114 11.3143C14.1771 11.3357 13.9799 11.4172 13.8814 11.4557C14.0571 11.5629 14.4256 11.7686 14.4771 11.7472C14.5414 11.7215 14.4771 11.5457 14.4771 11.5072C14.4771 11.4729 14.2542 11.2886 14.2114 11.3143ZM16.2856 12.7843C16.2514 12.7672 16.2214 12.81 16.2085 12.8315C16.1914 12.9257 16.1656 13.1229 16.1656 13.1872C16.1785 13.2686 16.3114 13.1872 16.3456 13.17C16.3799 13.1529 16.3114 13.0115 16.2856 12.9857C16.2599 12.9557 16.2685 12.9257 16.3114 12.9C16.3542 12.8829 16.3285 12.8057 16.2856 12.7843ZM15.9428 13.1615C15.8999 13.1615 15.8399 13.02 15.8142 12.9472C15.9428 12.9257 15.9428 13.0243 15.9942 13.0543C16.0371 13.08 15.9985 13.17 15.9471 13.1615H15.9428ZM15.9728 12.6472C15.9514 12.5743 16.0328 12.4886 16.0756 12.4586C16.1571 12.4843 16.1185 12.6729 16.1056 12.6986C16.0928 12.7329 16.0756 12.8615 16.0328 12.8357C15.9899 12.81 15.9942 12.7415 15.9728 12.6472ZM16.2556 12.4072C16.2985 12.3729 16.3714 12.2786 16.3971 12.24C16.4356 12.2572 16.4956 12.3043 16.4485 12.3643C16.3928 12.4329 16.5342 12.6129 16.5471 12.69C16.5599 12.7629 16.5128 12.7672 16.4485 12.7415C16.3885 12.7157 16.4356 12.5443 16.3842 12.4929C16.3328 12.4415 16.3071 12.5443 16.2856 12.6386C16.2599 12.7372 16.2556 12.5957 16.2342 12.5443C16.2085 12.4972 16.2042 12.45 16.2556 12.4072ZM15.8056 13.6929C15.7628 13.7186 15.8056 13.7786 15.8356 13.8086L15.9428 13.8215L15.9771 13.9372H16.2556L15.9771 13.7829C15.9771 13.7572 15.9771 13.6972 15.9556 13.6672C15.9256 13.6329 15.8528 13.6586 15.8056 13.6929ZM16.1656 15.6772C16.1656 15.6086 16.1828 15.6129 16.1914 15.6215C16.2042 15.6215 16.2342 15.6257 16.2514 15.6429C16.2642 15.6643 16.2214 15.8615 16.1656 15.8443C16.1099 15.8272 16.1614 15.7586 16.1656 15.6729V15.6772ZM14.2542 18.24C14.1685 18.2443 14.2542 18.3557 14.3142 18.4072C14.3399 18.4072 14.3871 18.3943 14.3871 18.3429C14.3871 18.2786 14.3571 18.2315 14.2542 18.24ZM13.4314 18.6129C13.3714 18.6386 13.4271 18.7115 13.4614 18.7415C13.4956 18.7372 13.5599 18.7029 13.5556 18.6557C13.5471 18.5872 13.5128 18.5786 13.4314 18.6129ZM16.4142 16.8857C16.3156 16.8 16.2085 16.9243 16.1656 16.9972C16.2042 16.9972 16.2899 17.0015 16.3285 17.0272C16.3714 17.0486 16.2899 17.1086 16.2514 17.1343C16.2342 17.1643 16.2299 17.22 16.3285 17.2115C16.4528 17.2029 16.5428 16.9972 16.4142 16.8857ZM16.0971 16.7357L16.2256 16.56L16.3671 16.7357H16.0971ZM13.4228 19.0115C13.3242 19.0457 13.4314 19.1615 13.4999 19.2129C13.5256 19.1957 13.5856 19.1529 13.5985 19.0972C13.6156 19.0286 13.5428 18.9686 13.4228 19.0115ZM16.0371 15.1629C16.0371 15.2357 16.0542 15.3772 16.1656 15.3686C16.3071 15.3557 16.1099 15.1415 16.0371 15.1629ZM15.8914 15.0986C15.8742 15.0815 15.8828 15.0429 15.8914 15.0258C15.9342 14.9529 15.9942 15.0257 15.9856 15.0686C15.9771 15.1157 15.9085 15.1157 15.8914 15.0986ZM16.4056 14.7686C16.3456 14.7557 16.3799 14.67 16.4056 14.6272C16.4314 14.6272 16.4785 14.6357 16.4871 14.67C16.4956 14.7129 16.4871 14.7815 16.4056 14.7686ZM15.5999 15.0429C15.5571 15.0429 15.5571 14.9786 15.5699 14.9443C15.5999 14.8715 15.6685 14.8886 15.6899 14.9443C15.7114 14.9957 15.6642 15.03 15.6042 15.0386L15.5999 15.0429ZM15.7799 14.7086C15.7028 14.7086 15.7285 14.52 15.7499 14.4257H15.8228C15.8656 14.4257 15.8742 14.7086 15.7799 14.7086ZM14.3656 14.8157C14.3142 14.7857 14.2628 14.8929 14.2371 14.9443C14.2371 15.0215 14.3228 14.9743 14.3656 14.9443C14.4085 14.9186 14.4299 14.85 14.3656 14.8157ZM14.8456 14.8972C14.7899 14.8672 14.7342 14.9829 14.7085 15.0386C14.7085 15.1243 14.8028 15.0686 14.8456 15.0386C14.8885 15.0086 14.9142 14.9315 14.8456 14.8972ZM13.7056 15.3043C13.7099 15.2615 13.6756 15.2529 13.6542 15.2529C13.618 15.2779 13.5772 15.2953 13.5342 15.3043C13.4914 15.3043 13.5342 15.3557 13.5985 15.3729C13.6628 15.39 13.6971 15.36 13.7056 15.3043ZM11.2028 15.93C11.2156 15.8743 11.1771 15.8572 11.1599 15.8572C11.1385 15.8572 11.0956 15.8657 11.0785 15.9086C11.0656 15.9515 11.1128 15.9772 11.1342 15.9857C11.1514 15.99 11.1856 15.9857 11.2028 15.93ZM11.9014 16.2815C11.8114 16.2257 11.7942 16.3457 11.7985 16.41H11.9271C11.9914 16.41 12.0128 16.35 11.9014 16.2815ZM11.6271 16.35C11.6142 16.29 11.6228 16.1786 11.7385 16.2129C11.8885 16.26 11.6699 16.4615 11.6271 16.35ZM10.6328 16.1058C10.6328 16.0286 10.6628 15.8915 10.7528 15.9557C10.8685 16.0415 10.7099 16.1872 10.6328 16.1058ZM10.8642 15.57C10.8342 15.57 10.8342 15.6257 10.8385 15.6557C10.8385 15.6857 10.8556 15.7586 10.8942 15.7586C10.9371 15.7586 10.9456 15.6943 10.9456 15.6429C10.9456 15.5915 10.9028 15.5658 10.8599 15.57H10.8642ZM10.7014 15.6129C10.6628 15.6129 10.6585 15.6643 10.6585 15.69C10.6671 15.7157 10.6928 15.7672 10.7142 15.7758C10.7399 15.7758 10.7828 15.7115 10.7828 15.69C10.7828 15.6643 10.7528 15.6086 10.7014 15.6129ZM10.4914 15.4457C10.4528 15.4372 10.4571 15.3943 10.4614 15.3729C10.4656 15.3515 10.4828 15.3129 10.5128 15.3129C10.5471 15.3129 10.5642 15.3472 10.5599 15.3815C10.5599 15.4157 10.5428 15.45 10.4914 15.4457ZM10.8642 15.5143C10.8685 15.4715 10.8214 15.4415 10.7956 15.4286C10.7314 15.4629 10.7399 15.5572 10.7699 15.57C10.7999 15.5872 10.8556 15.5572 10.8642 15.51V15.5143ZM10.0885 15.2572C10.0285 15.2615 10.0028 15.1886 9.9985 15.1543C10.0071 15.1157 10.0371 15.0472 10.0885 15.0557C10.1442 15.0643 10.1614 15.1243 10.1656 15.1543C10.1656 15.1843 10.1528 15.2443 10.0885 15.2529V15.2572ZM10.2428 15.2272C10.2042 15.2357 10.1914 15.1843 10.1871 15.1629C10.1871 15.1415 10.2085 15.0943 10.2471 15.0986C10.2814 15.1072 10.2899 15.1415 10.2942 15.1629C10.2942 15.1843 10.2856 15.2229 10.2471 15.2272H10.2428ZM12.2056 19.7015C12.1671 19.7015 12.1499 19.7443 12.1456 19.7657C12.1456 19.7872 12.1585 19.8386 12.2056 19.8386C12.2614 19.8343 12.2828 19.8 12.2914 19.7743C12.2914 19.7486 12.2485 19.7015 12.2056 19.7015ZM11.7985 19.74C11.8071 19.6843 11.8371 19.5729 11.8971 19.59C11.9785 19.6072 11.9442 19.7486 11.7985 19.74ZM11.5499 19.9543C11.4814 19.9843 11.4556 19.8772 11.4514 19.8172H11.5799C11.6742 19.8172 11.6314 19.92 11.5499 19.9543ZM11.2328 19.3286C11.2071 19.32 11.2028 19.2815 11.2028 19.26C11.2028 19.2515 11.2114 19.2257 11.2328 19.2129C11.2628 19.1957 11.2928 19.26 11.2928 19.2986C11.2928 19.3415 11.2714 19.3415 11.2328 19.3286ZM10.5171 18.7843C10.4742 18.8229 10.5214 18.87 10.5514 18.8915C10.5771 18.87 10.6242 18.8143 10.6242 18.7843C10.6242 18.75 10.5771 18.7415 10.5171 18.7843ZM9.7585 18.3429C9.71565 18.3429 9.62993 18.1886 9.59136 18.1115C9.71993 18.0772 9.7885 18.1715 9.80564 18.2186C9.82279 18.2615 9.81422 18.3515 9.76279 18.3472L9.7585 18.3429ZM9.40707 18.0729V17.8757C9.44993 17.8929 9.53993 17.94 9.5785 17.9872C9.61707 18.0343 9.47993 18.0643 9.40707 18.0729ZM8.62279 17.7215C8.63136 17.7857 8.66136 17.9057 8.69993 17.8757C8.75136 17.8329 8.7385 17.7215 8.62279 17.7215ZM7.82993 17.2458C7.79993 17.3529 7.78279 17.5757 7.93279 17.6143C8.08279 17.6486 7.92422 17.3829 7.82993 17.2458ZM7.60279 16.6072C7.57279 16.5943 7.61136 16.53 7.63279 16.4958C7.7185 16.4572 7.7485 16.4957 7.76136 16.5386C7.76565 16.5729 7.63279 16.62 7.60279 16.6072ZM7.6285 16.14C7.5685 16.1357 7.60279 16.2343 7.6285 16.2857C7.6585 16.2857 7.72279 16.2729 7.75707 16.23C7.79136 16.1786 7.70136 16.1529 7.6285 16.1443V16.14ZM7.86422 15.18C7.81279 15.1586 7.81279 15.2529 7.82136 15.3086C7.84707 15.3172 7.90279 15.3343 7.93279 15.3086C7.96707 15.27 7.92422 15.21 7.86422 15.18ZM7.88564 14.46C7.82136 14.4215 7.7485 14.5929 7.71422 14.6829C7.69279 14.7429 7.82565 14.7129 7.85993 14.6829C7.8985 14.6529 7.96279 14.5072 7.88564 14.46ZM10.5856 13.0286C10.5685 12.9943 10.4914 13.0372 10.4571 13.0672C10.5256 13.0672 10.5642 13.23 10.6114 13.2343C10.6585 13.2343 10.7399 13.1743 10.7399 13.14C10.7399 13.1015 10.6456 13.1186 10.6114 13.11C10.5814 13.1015 10.6114 13.0672 10.5856 13.0243V13.0286ZM10.7914 12.6C10.7742 12.5829 10.6628 12.6043 10.6071 12.6215C10.5642 12.6643 10.7314 12.7157 10.7914 12.7157C10.8514 12.7157 10.8128 12.6215 10.7914 12.6ZM11.0571 12.87C11.0056 12.8015 10.9199 12.8957 10.8856 12.9557C10.8942 12.9643 10.9199 12.99 10.9585 12.99C11.0014 12.99 11.1128 12.9515 11.0528 12.87H11.0571ZM11.0356 13.3115C10.9756 13.2772 11.0099 13.1786 11.0356 13.1315C11.0956 13.1315 11.1985 13.2472 11.1856 13.29C11.1685 13.3329 11.1085 13.3586 11.0356 13.3115ZM10.7314 12.9043C10.6799 12.8829 10.6628 12.99 10.6628 13.0415C10.6885 13.05 10.7571 13.0629 10.8042 13.0243C10.8556 12.9729 10.7914 12.9386 10.7314 12.9043ZM10.3156 12.6857C10.2728 12.6772 10.2342 12.7457 10.2214 12.7843C10.3328 12.8186 10.2514 12.9558 10.2214 12.9772C10.1914 12.9986 10.1871 13.0757 10.2342 13.0929C10.2771 13.1143 10.3971 13.05 10.4142 13.0157C10.4356 12.9772 10.3414 12.96 10.3585 12.9172C10.3799 12.8743 10.4099 12.8872 10.4142 12.7843C10.4228 12.6815 10.3714 12.69 10.3156 12.6815V12.6857ZM9.98136 11.3657C9.97279 11.3315 10.0071 11.2972 10.0285 11.28C10.1185 11.3315 10.0714 11.4429 10.0285 11.4557C9.98564 11.4686 9.99422 11.4129 9.98136 11.37V11.3657ZM10.7785 11.0572C10.7271 11.0357 10.6799 10.9715 10.6628 10.9372C10.7014 10.9286 10.7914 10.9072 10.8471 10.9157C10.9156 10.92 10.9885 11.0529 10.9585 11.0743C10.9285 11.1 10.8428 11.0743 10.7785 11.0529V11.0572ZM9.77136 12.3C9.83564 12.3257 9.96422 12.3857 9.94279 12.4457C9.91707 12.5186 9.74136 12.4415 9.77136 12.3ZM7.55993 12.99C7.54279 12.9472 7.49565 12.9729 7.47422 12.99C7.49136 13.0243 7.52564 13.1015 7.52564 13.1186C7.52564 13.1357 7.55993 13.3157 7.59422 13.35C7.63279 13.38 7.79136 13.4229 7.79136 13.3929C7.79136 13.3629 7.61136 13.1786 7.64136 13.1572C7.66707 13.1315 7.70993 13.0586 7.68422 13.0586C7.6585 13.0586 7.58136 13.0415 7.55993 12.99ZM7.76136 12.7286C7.7185 12.7458 7.6885 12.6986 7.67565 12.6729C7.71422 12.63 7.79565 12.63 7.82136 12.6729C7.84279 12.7157 7.81279 12.7157 7.76136 12.7329V12.7286ZM8.05707 12.2315C8.01422 12.2186 8.05279 12.1672 8.07422 12.1457C8.09136 12.1457 8.1385 12.1672 8.15993 12.1843C8.19422 12.2015 8.20279 12.1715 8.24565 12.2143C8.27993 12.2572 8.26707 12.4029 8.24565 12.4286C8.21565 12.45 8.15993 12.4157 8.15993 12.3172C8.1685 12.2186 8.09993 12.2486 8.05279 12.2315H8.05707ZM8.69993 11.8157C8.66564 11.7729 8.72993 11.73 8.76422 11.7129C8.80707 11.73 8.89279 11.7643 8.90136 11.7772C8.9185 11.7943 8.9185 11.8372 8.86707 11.8629C8.83852 11.876 8.80634 11.8788 8.77592 11.871C8.7455 11.8632 8.71867 11.8452 8.69993 11.82V11.8157ZM9.35993 12.1929C9.34279 12.1286 9.10279 11.9357 8.98707 11.85C8.9185 11.8929 9.14993 12.1929 9.20136 12.2357C9.24422 12.2743 9.20136 12.4029 9.20136 12.45C9.19279 12.4972 9.21422 12.5529 9.25279 12.54C9.28707 12.5315 9.38136 12.2657 9.35993 12.1929ZM7.8685 11.3743C7.8685 11.3315 7.89422 11.31 7.91136 11.3015C7.96707 11.3015 7.99707 11.3829 8.00136 11.4129C8.00136 11.4429 7.9585 11.4557 7.93279 11.4557C7.90707 11.4557 7.87707 11.4215 7.8685 11.37V11.3743ZM8.74279 12.1072C8.71707 12.09 8.63136 12.1115 8.59279 12.1286C8.57993 12.1715 8.5585 12.2572 8.59279 12.2872C8.63564 12.33 8.72993 12.2872 8.76422 12.2443C8.7985 12.2015 8.78136 12.1286 8.74707 12.1072H8.74279ZM8.35707 11.8286C8.33136 11.7343 8.14279 11.6443 8.05707 11.6143C8.11279 11.7472 8.23707 12.0215 8.27136 12.03C8.31422 12.0386 8.3785 11.9443 8.35707 11.8243V11.8286ZM7.79136 10.8343C7.75279 10.8172 7.77422 10.7057 7.79136 10.6586C7.88993 10.6029 7.90279 10.6586 7.93707 10.71C7.97565 10.7657 7.84279 10.86 7.79136 10.8386V10.8343ZM8.03565 9.63003C8.00565 9.58718 8.09993 9.51004 8.15136 9.48004C8.2285 9.49718 8.18565 9.57432 8.15136 9.61718C8.12136 9.66004 8.07422 9.68575 8.03565 9.63003ZM7.67136 9.76718C7.72279 9.91718 7.83422 10.1957 7.8685 10.0843C7.91565 9.95575 7.8685 9.71146 7.67136 9.76718ZM7.64993 9.13718C7.58993 9.12003 7.52136 9.24432 7.49565 9.30861C7.49565 9.31289 7.5085 9.32146 7.55993 9.30861C7.62422 9.29146 7.7185 9.15861 7.64565 9.13718H7.64993ZM7.7185 9.02146C7.76136 9.00432 8.1385 8.67861 7.93707 9.19289C7.94565 9.11575 7.90707 8.97861 7.72279 9.02146H7.7185ZM7.95422 8.49432C7.91564 8.50718 7.84279 8.40861 7.8085 8.36146C7.82564 8.30146 7.90279 8.34861 7.95422 8.37861C8.00564 8.40432 8.00564 8.48575 7.95422 8.49432ZM7.49565 8.72575C7.46993 8.73004 7.45279 8.78146 7.45279 8.81146C7.46136 8.82432 7.48707 8.85432 7.52993 8.84575C7.57707 8.84146 7.74422 8.74718 7.73993 8.70432C7.73136 8.66146 7.52565 8.71718 7.49565 8.72575ZM7.57707 8.28432C7.55136 8.26289 7.55564 8.21575 7.56422 8.19861C7.70993 8.20718 7.6885 8.31432 7.67136 8.32718C7.64993 8.34432 7.60707 8.31432 7.57707 8.28432ZM7.39707 8.42146C7.39707 8.37003 7.43993 8.32289 7.46136 8.30575C7.54707 8.28861 7.53422 8.40432 7.53422 8.42146C7.53422 8.44289 7.49565 8.53718 7.46136 8.53289C7.4185 8.53289 7.39707 8.49004 7.39707 8.42146ZM7.63707 8.05718C7.63707 8.01003 7.55136 7.97146 7.5085 7.96289C7.52136 8.00575 7.54279 8.08289 7.57279 8.10003C7.61565 8.11718 7.64136 8.11718 7.63707 8.05718ZM8.00565 7.30289C7.97565 7.27718 7.97993 7.25146 7.98422 7.24289C8.00136 7.23003 8.04422 7.21289 8.08279 7.24289C8.12565 7.27718 8.09565 7.29004 8.08279 7.33718C8.06565 7.38861 8.03993 7.33718 8.00565 7.30289ZM7.84279 7.45289C7.78279 7.43575 7.81707 7.38861 7.84279 7.36718C7.91993 7.29861 7.94993 7.36718 8.00565 7.45289C8.06136 7.53861 7.91993 7.47432 7.84279 7.45289ZM7.61136 7.47432C7.61993 7.34575 7.46136 7.24718 7.38422 7.20861C7.32422 7.24718 7.22565 7.31146 7.33707 7.30289C7.47422 7.28575 7.60279 7.62861 7.61136 7.47432ZM7.76565 7.01575C7.75707 6.99432 7.79565 6.93861 7.81707 6.91289C7.85993 6.86146 7.90279 6.93432 7.90279 6.96432C7.90279 6.99861 7.84279 7.06289 7.81707 7.06289C7.79136 7.06718 7.78279 7.04146 7.76565 7.01575ZM7.67136 6.99003C7.64136 6.99003 7.6285 6.94718 7.62422 6.92575L7.66707 6.88289C7.66707 6.88289 7.73993 6.90861 7.74422 6.92575C7.7485 6.94289 7.70564 6.98575 7.67136 6.99003ZM8.18565 6.77146C8.12993 6.77146 8.11707 6.71146 8.11707 6.68575C8.12565 6.66003 8.15993 6.61718 8.18565 6.60432C8.21993 6.59146 8.24993 6.68146 8.2585 6.71146C8.26707 6.74146 8.25422 6.77575 8.18565 6.77575V6.77146ZM7.75707 7.55146C7.74418 7.54308 7.73353 7.53166 7.72606 7.51822C7.71859 7.50477 7.71453 7.4897 7.71422 7.47432L7.81707 7.50003C7.83422 7.47861 7.92422 7.47432 7.90707 7.55146C7.89422 7.62432 7.81279 7.58146 7.76136 7.55146H7.75707ZM8.32707 6.22718C8.30136 6.24861 8.26279 6.19289 8.24993 6.16289C8.24993 6.09861 8.29707 6.09432 8.32707 6.12003C8.35707 6.14575 8.36136 6.20146 8.32707 6.22718ZM8.9185 6.09861C8.90564 6.09003 8.91422 6.02575 8.9185 5.99575C8.96136 5.99575 9.02993 6.07289 9.02136 6.09861C9.0085 6.12432 8.93564 6.10718 8.9185 6.09861ZM8.77707 6.00861C8.72136 6.00004 8.75136 5.94432 8.77707 5.91432C8.80707 5.86289 8.86279 5.91432 8.88422 5.97004C8.90564 6.02146 8.84564 6.02146 8.77707 6.01289V6.00861ZM9.62564 5.70432C9.56993 5.71289 9.58279 5.62289 9.59564 5.57575C9.61207 5.56675 9.63049 5.56203 9.64922 5.56203C9.66794 5.56203 9.68637 5.56675 9.70279 5.57575C9.75422 5.61003 9.6985 5.69146 9.62564 5.70432ZM8.62279 6.29146C8.57136 6.31718 8.63136 6.40289 8.66564 6.44575C8.69993 6.41575 8.77279 6.34718 8.77707 6.31718C8.78136 6.28718 8.69136 6.25718 8.62279 6.29146ZM13.5856 5.22861C13.5556 5.22861 13.5556 5.28861 13.5599 5.31861C13.6628 5.35718 13.6028 5.42146 13.5599 5.44718C13.5685 5.50718 13.5899 5.62718 13.6199 5.62289C13.6542 5.62289 13.7485 5.43432 13.7485 5.40432C13.7442 5.37003 13.6842 5.37003 13.6628 5.31861C13.6328 5.27146 13.6199 5.23718 13.5856 5.23289V5.22861ZM13.2728 5.41289C13.2428 5.41289 13.2042 5.34861 13.1871 5.31861C13.2171 5.28003 13.3156 5.31861 13.3585 5.36146C13.4014 5.39575 13.3114 5.41718 13.2728 5.41289ZM12.9685 5.25861C12.9128 5.28432 12.8914 5.22432 12.8871 5.19003C12.8999 5.16861 12.9299 5.12146 12.9685 5.13004C13.0114 5.13861 13.0328 5.22861 12.9685 5.25861ZM14.4428 5.96146C14.4428 5.94003 14.3228 5.87575 14.2628 5.85003C14.2199 5.85003 14.2456 5.96146 14.2628 5.97861C14.2799 5.99575 14.4342 5.99146 14.4428 5.96146ZM15.0856 6.30003C15.0428 6.34289 15.0985 6.54432 15.1285 6.63861C15.1671 6.51003 15.3171 6.41575 15.3899 6.38146C15.3514 6.36861 15.2785 6.33003 15.2742 6.30003C15.2699 6.27003 15.5185 6.27003 15.5142 6.25289C15.5142 6.23575 15.3728 6.12003 15.2999 6.06432C15.3128 6.08575 15.3385 6.14575 15.3214 6.17575C15.2999 6.21861 15.1285 6.24861 15.0814 6.30432L15.0856 6.30003Z" fill="white"/>
<path d="M14.5971 5.64861C14.5542 5.63146 14.5285 5.64861 14.5199 5.66146H14.5028C14.4728 5.69575 14.5885 5.77718 14.6485 5.81575C14.6228 5.83718 14.5456 5.90146 14.4514 6.00003C14.3356 6.12861 14.5199 6.28718 14.5671 6.30003C14.6142 6.31718 14.8114 6.05575 14.7814 6.02575C14.7556 5.99575 14.7128 6.11575 14.5971 6.15003C14.4814 6.18003 14.5199 6.04718 14.5414 6.00003C14.5628 5.95289 14.7985 5.89289 14.7814 5.85432C14.7356 5.77321 14.6727 5.70302 14.5971 5.64861Z" fill="white"/>
<path d="M14.9442 5.57146C14.8842 5.55432 14.7856 5.61432 14.7471 5.64432L14.7214 5.68718C14.6528 5.77289 14.9656 5.68718 15.0128 5.77289C15.0599 5.85861 15.1499 5.94003 15.2142 5.85003C15.2785 5.76003 15.0171 5.59289 14.9442 5.57146ZM14.6228 5.57146C14.6038 5.44359 14.6038 5.31362 14.6228 5.18575C14.7471 5.26718 14.9785 5.42575 14.9228 5.41718C14.8585 5.40861 14.6571 5.60146 14.6228 5.57146ZM14.3785 5.38718C14.3399 5.36575 14.3956 5.21575 14.4256 5.13861L14.5456 5.18146C14.5756 5.19003 14.4256 5.40861 14.3785 5.38718ZM14.1728 5.35718C14.1214 5.31861 14.1299 5.07861 14.1428 4.96718L14.3571 5.10003C14.3185 5.20289 14.2285 5.39146 14.1728 5.35718ZM13.1228 4.72718C13.0971 4.66718 12.9214 4.72718 12.9299 4.74861C12.9428 4.76575 12.9728 4.81289 13.0028 4.87289C13.0456 4.94575 13.0928 4.96718 13.1228 4.98432C13.1571 5.00146 13.1528 4.78718 13.1228 4.72718ZM12.4628 4.76575C12.4756 4.74432 12.3171 4.74861 12.2399 4.74861C12.2614 4.79146 12.3171 4.86861 12.3342 4.86861C12.3599 4.86861 12.4499 4.79575 12.4628 4.76575ZM13.1571 4.65003C13.1485 4.60718 13.2128 4.53003 13.2471 4.49146C13.2814 4.51718 13.3456 4.57718 13.3456 4.59432C13.3456 4.61575 13.1614 4.69718 13.1528 4.65003H13.1571ZM12.1285 4.65432C12.0985 4.63289 12.0856 4.44003 12.0814 4.34575C12.1242 4.31146 12.2014 4.49146 12.2399 4.50432C12.2742 4.52146 12.4542 4.49146 12.4328 4.54718C12.4071 4.61146 12.1756 4.68432 12.1328 4.65432H12.1285ZM11.9871 3.94289L11.8799 4.01146C11.9742 4.01146 11.8971 4.16575 11.8799 4.20861C11.8585 4.25146 11.9314 4.26003 11.9614 4.25575C11.9914 4.25575 12.1028 4.11003 12.1285 4.08432C12.1542 4.05432 12.2699 4.18289 12.2914 4.21289C12.3128 4.23432 12.4371 4.22575 12.4585 4.19575C12.4714 4.17003 12.1499 4.02003 11.9871 3.94718V3.94289ZM14.9442 6.09861C14.9056 6.09861 14.8885 6.14146 14.8842 6.17146C14.9099 6.26575 14.9914 6.21432 14.9956 6.18861C14.9999 6.16289 14.9914 6.10289 14.9442 6.10289V6.09861ZM10.8085 5.14289C10.7485 5.09575 10.7228 5.26718 10.7228 5.35718C10.7699 5.28861 10.8856 5.31432 10.9371 5.33575C10.9072 5.26372 10.8635 5.19821 10.8085 5.14289ZM14.6485 15.3043C14.6056 15.2615 14.6485 15.1886 14.6785 15.1543C14.7856 15.1543 14.7471 15.2357 14.7342 15.3043C14.7214 15.3772 14.6999 15.36 14.6485 15.3043ZM12.1971 19.4829C12.1542 19.4486 12.1799 19.4143 12.1971 19.4015C12.3042 19.3629 12.3128 19.4272 12.2956 19.4657C12.2785 19.5 12.2528 19.53 12.1971 19.4829ZM12.3771 19.5429C12.3299 19.5043 12.3556 19.4743 12.3771 19.4572C12.4799 19.4229 12.4928 19.4872 12.4756 19.5257C12.4585 19.56 12.4328 19.59 12.3771 19.5429Z" fill="white"/>
</svg>
