<svg width="24" height="24" viewBox="0 0 24 24" fill="none" xmlns="http://www.w3.org/2000/svg">
<path d="M11.5716 4.39706C11.7019 4.32183 11.8498 4.28223 12.0002 4.28223C12.1507 4.28223 12.2985 4.32183 12.4288 4.39706L12.6045 4.49992L12.2188 5.26706H12.2145C12.1494 5.22945 12.0754 5.20964 12.0002 5.20964C11.925 5.20964 11.8511 5.22945 11.7859 5.26706H11.7774L11.3745 4.51278L11.5759 4.39706H11.5716ZM10.5645 4.97563L11.0145 5.7042L10.1616 6.19278L9.76307 5.4342L10.5645 4.97563ZM8.94879 5.90135L8.14307 6.3642L8.54164 7.11849L9.40736 6.62563L8.95307 5.89706L8.94879 5.90135ZM7.32879 6.82706L7.78307 7.55563L6.94307 8.03135L6.55307 7.27278L7.3245 6.82706H7.32879ZM5.74307 7.73563L5.57164 7.82992C5.44084 7.90544 5.33231 8.01418 5.25705 8.14513C5.18179 8.27608 5.14247 8.4246 5.14307 8.57563V8.99992H6.0945C6.14364 8.86353 6.20989 8.73392 6.29164 8.6142L5.74307 7.73563ZM12.9988 5.71278L13.8645 6.20992L14.2631 5.45135L13.4402 4.97992L12.9988 5.71278ZM15.5102 7.14849L14.6231 6.64278L15.0774 5.9142L15.9088 6.38992L15.5102 7.14849ZM16.2688 7.58135L17.0188 8.00992L17.4516 7.27278L16.7231 6.85706L16.2688 7.58563V7.58135ZM17.9059 8.99992C17.8588 8.86692 17.7955 8.74025 17.7174 8.62278L18.2659 7.73992L18.4245 7.82992C18.5561 7.90489 18.6655 8.0134 18.7415 8.14439C18.8176 8.27538 18.8575 8.42417 18.8574 8.57563V8.99992H17.9059ZM5.14307 9.85706V10.7142H6.00022V9.85706H5.14307ZM5.14307 12.4285V11.5713H6.00022V12.4285H5.14307ZM5.14307 13.2856V14.1428H6.00022V13.2856H5.14307ZM5.14307 15.4285V14.9999H6.00022V15.1799C6.00022 15.3342 6.08593 15.4756 6.2145 15.5528L6.23593 15.5656L5.80736 16.3028L5.57593 16.1699C5.44433 16.0949 5.33494 15.9864 5.25891 15.8555C5.18287 15.7245 5.14291 15.5757 5.14307 15.4242V15.4285ZM6.56593 16.7356L7.40593 17.2156L7.85593 16.4871L7.02022 16.0156L6.56593 16.7356ZM9.03022 18.1456L8.15164 17.6442L8.58879 16.9071L9.48022 17.4213L9.03022 18.1456ZM9.78022 18.5742L10.6116 19.0499L11.0574 18.3213L10.2216 17.8413L9.78022 18.5742ZM11.5759 19.6028L11.3531 19.4742L11.8416 18.5913C11.9457 18.6009 12.0504 18.6009 12.1545 18.5913L12.6731 19.4571L12.4245 19.6028C12.2952 19.6764 12.149 19.7152 12.0002 19.7152C11.8514 19.7152 11.7052 19.6764 11.5759 19.6028ZM13.4316 19.0242L14.2674 18.5485L13.8431 17.8028L13.0159 18.2742L13.4316 19.0242ZM15.8916 17.6185L15.0216 18.1156L14.6188 17.3613L15.4502 16.8899L15.8916 17.6185ZM16.6502 17.1856L17.4816 16.7099L17.0145 15.9899L16.2431 16.4313L16.6502 17.1856ZM18.4288 16.1699L18.2531 16.2728L17.8159 15.5356C17.8741 15.4963 17.9217 15.4433 17.9546 15.3813C17.9875 15.3193 18.0046 15.2501 18.0045 15.1799V14.9999H18.8616V15.4285C18.8615 15.5788 18.8218 15.7264 18.7466 15.8566C18.6714 15.9867 18.5632 16.0948 18.4331 16.1699H18.4288ZM18.8574 14.1428H18.0002V13.2856H18.8574V14.1428ZM18.0002 12.4285H18.8574V11.5713H18.0002V12.4285ZM18.8574 10.7142H18.0002V9.85706H18.8574V10.7142ZM7.94164 9.34278L7.01593 8.79849L6.67307 9.37278L7.59879 9.91278L7.94164 9.33849V9.34278ZM9.82307 10.3713L8.89736 9.83563L8.5545 10.4099L9.48022 10.9499L9.82307 10.3756V10.3713ZM10.7574 10.9499L11.6831 11.4899L11.3402 12.0685L10.4145 11.5242L10.7574 10.9499ZM16.0159 9.33849L16.9416 8.79849L17.2845 9.37278L16.3588 9.91278L16.0159 9.33849ZM15.0645 9.83563L14.1388 10.3756L14.4816 10.9499L15.4031 10.4099L15.0602 9.83563H15.0645ZM12.2788 11.4899L13.2002 10.9499L13.5431 11.5242L12.6174 12.0685L12.2745 11.4899H12.2788ZM12.4288 11.9999H11.5716V12.8571H12.4288V11.9999ZM12.4288 13.7056H11.5716V14.5713H12.4288V13.7056ZM11.5716 16.2856V15.4285H12.4288V16.2856H11.5716ZM11.5716 17.1428V17.9999H12.4288V17.1428H11.5716Z" fill="white"/>
</svg>
