<svg width="24" height="24" viewBox="0 0 24 24" fill="none" xmlns="http://www.w3.org/2000/svg">
<path d="M7.33279 5.17718C8.40581 5.07036 9.48929 5.1907 10.5127 5.53037C11.5361 5.87003 12.4766 6.42141 13.2728 7.14861C13.9521 7.76065 14.4953 8.50859 14.867 9.34397C15.2388 10.1793 15.4309 11.0835 15.4309 11.9979C15.4309 12.9123 15.2388 13.8164 14.867 14.6518C14.4953 15.4872 13.9521 16.2351 13.2728 16.8472C12.4769 17.5751 11.5367 18.1273 10.5132 18.4677C9.48978 18.8081 8.40611 18.9291 7.33279 18.8229C7.32061 18.8219 7.30918 18.8166 7.30054 18.808C7.2919 18.7994 7.28662 18.7879 7.28565 18.7758C7.28565 18.75 7.30707 18.7286 7.33279 18.7243C9.00422 18.57 10.7614 17.8886 11.9442 16.7872C13.3156 15.51 14.1428 13.8 14.1428 12C14.1428 10.2 13.3156 8.50289 11.9442 7.22575C10.7614 6.12432 8.99993 5.42575 7.33279 5.27146C7.32681 5.27206 7.32077 5.2714 7.31507 5.26952C7.30936 5.26764 7.30412 5.26457 7.29967 5.26053C7.29523 5.25649 7.29168 5.25156 7.28926 5.24606C7.28685 5.24056 7.28561 5.23461 7.28565 5.22861C7.28565 5.20289 7.30707 5.17718 7.33279 5.17718Z" fill="white"/>
<path d="M17.3142 10.2857H8.7985C8.73422 10.2857 8.58422 10.4443 8.57136 10.6886C8.56279 10.9329 8.7085 11.1429 8.7985 11.1429H17.3142C17.4085 11.1429 17.5714 10.9586 17.5714 10.6886C17.5714 10.4186 17.4256 10.2857 17.3142 10.2857ZM17.3142 12.8572H8.7985C8.73422 12.8572 8.58422 13.0157 8.57136 13.26C8.56279 13.5043 8.7085 13.7143 8.7985 13.7143H17.3142C17.4085 13.7143 17.5714 13.53 17.5714 13.26C17.5714 12.99 17.4256 12.8572 17.3142 12.8572Z" fill="white"/>
</svg>
