<svg width="24" height="24" viewBox="0 0 24 24" fill="none" xmlns="http://www.w3.org/2000/svg">
<path fill-rule="evenodd" clip-rule="evenodd" d="M6.86122 5.25434C6.86993 5.22153 6.8895 5.19265 6.91675 5.17241C6.94399 5.15217 6.9773 5.14177 7.01122 5.14291H10.9026L18.7798 9.72005C18.8398 9.75433 18.8655 9.82719 18.8526 9.89148H18.8569L18.8484 9.90434C18.8405 9.92362 18.8289 9.94111 18.8141 9.95576L12.8698 19.2858H8.79408L6.86979 5.35719C6.85861 5.33007 6.85563 5.30027 6.86122 5.27148L6.85693 5.25434H6.86122ZM9.12408 5.44719L9.23979 6.29148L10.9584 7.30291L10.7012 5.44719H9.12408ZM10.6241 16.4872L9.29122 6.67291L11.0141 7.68434L11.9569 14.4129L10.6284 16.4872H10.6241ZM10.6884 16.95L10.9455 18.8272L12.2826 16.7272L12.0212 14.8758L10.6926 16.95H10.6884ZM12.2741 14.4815L12.5312 16.3286L16.5169 10.0543H15.1155L12.2741 14.4815ZM15.1241 9.75005C15.1173 9.74519 15.1101 9.74089 15.1026 9.73719L11.2884 7.49576L11.0184 5.56291L18.2269 9.75005H15.1241ZM14.8326 9.93005L12.2055 14.0229L11.3484 7.88148L14.8326 9.93005Z" fill="white"/>
</svg>
