<svg width="24" height="24" viewBox="0 0 24 24" fill="none" xmlns="http://www.w3.org/2000/svg">
<path d="M18.8574 11.9999C18.8574 11.8902 18.8544 11.7813 18.8488 11.6729C18.8454 11.5975 18.8389 11.5233 18.8329 11.4488C18.8329 11.42 18.8291 11.3909 18.8265 11.3618C18.8173 11.2664 18.8062 11.1712 18.7931 11.0763V11.0609C18.7789 10.9602 18.7631 10.8599 18.7451 10.7609C18.0602 7.03576 14.4859 4.57104 10.7616 5.25547C7.03735 5.9399 4.57307 9.51419 5.25707 13.2385C5.9415 16.9632 9.51578 19.4279 13.2405 18.7435C14.8665 18.4447 16.3297 17.5685 17.3608 16.2762L15.2565 14.7775C14.3925 15.7876 13.2358 16.2856 12.0036 16.2856C11.4401 16.2877 10.8817 16.1782 10.3606 15.9636C9.83956 15.749 9.36608 15.4334 8.96743 15.0351C8.56879 14.6368 8.25286 14.1635 8.03783 13.6426C7.8228 13.1217 7.71291 12.5634 7.7145 11.9999C7.71229 11.4365 7.82163 10.8782 8.03623 10.3572C8.25082 9.83625 8.56642 9.36292 8.96483 8.96451C9.36323 8.56611 9.83656 8.25051 10.3575 8.03592C10.8785 7.82132 11.4368 7.71198 12.0002 7.71419C12.9128 7.7124 13.802 8.00262 14.5377 8.5424C15.2735 9.08218 15.8173 9.8432 16.0896 10.7142H12.0036L10.9086 13.2856H18.7438C18.8025 12.9616 18.8381 12.5883 18.8501 12.2592C18.8552 12.191 18.8574 12.1066 18.8574 11.9999Z" fill="white"/>
</svg>
