<svg width="24" height="24" viewBox="0 0 24 24" fill="none" xmlns="http://www.w3.org/2000/svg">
<path d="M4.71436 13.7143V12H6.96007C7.16578 12 7.35864 12.09 7.47864 12.2572L10.0458 15.8915L13.9715 7.23432C14.0224 7.12226 14.1043 7.02716 14.2076 6.96031C14.311 6.89345 14.4313 6.85766 14.5544 6.85718H19.2858V8.57146H15.2358L10.7486 18.6C10.7179 18.6685 10.6697 18.7277 10.609 18.7717C10.5482 18.8157 10.4769 18.8429 10.4023 18.8507C10.3276 18.8586 10.2523 18.8466 10.1837 18.8162C10.1151 18.7857 10.0557 18.7378 10.0115 18.6772L6.5915 13.7143H4.71436Z" fill="white"/>
</svg>
