<svg width="24" height="24" viewBox="0 0 24 24" fill="none" xmlns="http://www.w3.org/2000/svg">
<path fill-rule="evenodd" clip-rule="evenodd" d="M6.85693 6.66878L8.37836 5.14307L10.0584 6.83164C10.5736 6.56532 11.1455 6.42713 11.7255 6.42878H13.1312C13.7312 6.42878 14.3012 6.57449 14.7984 6.83164L16.4784 5.14307L17.9998 6.66878L16.3241 8.35307C16.5816 8.84954 16.7154 9.4009 16.7141 9.96021V10.6759C16.7141 12.6259 15.1112 14.1431 13.1312 14.1431H10.2855V18.8574H8.14265V9.95592C8.14265 9.38164 8.28408 8.83735 8.53265 8.35307L6.85693 6.66878ZM10.2855 10.0545C10.2945 9.6536 10.4619 9.27258 10.751 8.99472C11.0401 8.71685 11.4274 8.56474 11.8284 8.57164H13.0284C13.8769 8.57164 14.5712 9.23592 14.5712 10.0545V10.5174C14.5622 10.9182 14.3949 11.2993 14.1058 11.5771C13.8167 11.855 13.4293 12.0071 13.0284 12.0002H10.2855V10.0545Z" fill="white"/>
</svg>
