<svg width="24" height="24" viewBox="0 0 24 24" fill="none" xmlns="http://www.w3.org/2000/svg">
<path d="M9.00021 9.0135V5.14307L12.0002 7.96478L9.00021 9.0135ZM9.00021 14.9938V18.8574L12.0002 16.0356L9.00021 14.9938ZM9.00021 9.00021H5.14307L7.96007 12.0534L9.00021 9.00021ZM15.0002 9.00021H18.8574L16.0472 11.9522L15.0002 9.00021ZM15.0002 9.0135V5.14307L12.0002 7.96478L15.0002 9.0135ZM15.0002 14.9972V18.8574L12.0002 16.0356L15.0002 14.9972ZM9.00021 15.0002H5.14307L7.97378 12.0598L9.00021 15.0002ZM15.0002 15.0002H18.8574L16.0309 11.9844L15.0002 15.0002Z" fill="white"/>
<path d="M12 13.7142C12.9465 13.7142 13.7138 12.9467 13.7138 11.9999C13.7138 11.0532 12.9465 10.2856 12 10.2856C11.0535 10.2856 10.2861 11.0532 10.2861 11.9999C10.2861 12.9467 11.0535 13.7142 12 13.7142Z" fill="white"/>
</svg>
