<svg width="24" height="24" viewBox="0 0 24 24" fill="none" xmlns="http://www.w3.org/2000/svg">
<path d="M14.4321 5.90201C14.0701 6.26309 13.8236 6.72357 13.7237 7.22501C11.8881 6.53373 9.78299 6.97301 8.38113 8.37444C6.97842 9.77758 6.53999 11.8853 7.23342 13.7217C6.77211 13.8127 6.34423 14.0274 5.99559 14.3429C5.64694 14.6584 5.39066 15.0627 5.25419 15.5127C5.11771 15.9626 5.10617 16.4412 5.22081 16.8972C5.33545 17.3532 5.57195 17.7695 5.90499 18.1014C6.23802 18.4333 6.65506 18.6684 7.11145 18.7815C7.56783 18.8946 8.04638 18.8814 8.49587 18.7434C8.94535 18.6054 9.34884 18.3478 9.66314 17.9981C9.97744 17.6484 10.1907 17.2198 10.2801 16.7582C11.1859 17.0946 12.1692 17.1644 13.1135 16.9593C14.0577 16.7542 14.9235 16.2829 15.6081 15.601C17.0044 14.2047 17.4458 12.1094 16.7653 10.2786C17.1625 10.2002 17.5359 10.0299 17.8554 9.78133C18.175 9.53271 18.4319 9.21269 18.6055 8.84691C18.7791 8.48113 18.8645 8.07977 18.8551 7.675C18.8456 7.27023 18.7415 6.8733 18.551 6.51603C18.3605 6.15877 18.089 5.85109 17.7581 5.61767C17.4273 5.38425 17.0464 5.23157 16.6459 5.17188C16.2455 5.11219 15.8366 5.14714 15.4521 5.27393C15.0676 5.40072 14.7185 5.61583 14.4321 5.90201ZM17.4604 6.50973C17.781 6.83102 17.961 7.26636 17.961 7.72023C17.961 8.17409 17.781 8.60943 17.4604 8.93072C17.273 9.11977 17.0437 9.2621 16.7911 9.34622C16.5385 9.43034 16.2696 9.45391 16.0063 9.41501C15.9812 9.41175 15.9559 9.41175 15.9308 9.41501C15.7315 9.38879 15.5292 9.43165 15.3577 9.53646C15.1861 9.64127 15.0556 9.80169 14.988 9.99101C14.9093 10.209 14.9199 10.4493 15.0176 10.6596C15.2978 11.2689 15.385 11.9494 15.2675 12.6097C15.15 13.27 14.8334 13.8786 14.3601 14.3539C13.8848 14.827 13.2762 15.1436 12.6159 15.261C11.9556 15.3784 11.2751 15.2911 10.6658 15.0109C10.5603 14.9619 10.4462 14.9343 10.3299 14.9297C10.2137 14.9252 10.0977 14.9437 9.9887 14.9843C9.80948 15.0502 9.65659 15.1727 9.55314 15.3332C9.44969 15.4937 9.4013 15.6836 9.41527 15.874C9.41094 15.903 9.41094 15.9325 9.41527 15.9614C9.45966 16.2303 9.43943 16.5058 9.35627 16.7653C9.2731 17.0248 9.12938 17.2608 8.93699 17.4537C8.61565 17.7741 8.18043 17.9539 7.7267 17.9539C7.27297 17.9539 6.83775 17.7741 6.51642 17.4537C6.35701 17.2951 6.23061 17.1065 6.14455 16.8988C6.05848 16.691 6.01444 16.4683 6.01499 16.2434C6.01499 15.7862 6.19284 15.3563 6.51642 15.0327C6.90084 14.6483 7.43056 14.4722 7.99713 14.5497C8.05456 14.5613 8.11284 14.5694 8.17156 14.5694C8.35046 14.5697 8.52518 14.5153 8.67237 14.4136C8.81956 14.3119 8.93221 14.1677 8.99527 14.0003C9.0767 13.786 9.07542 13.5404 8.9717 13.3159C8.69173 12.7066 8.60466 12.0263 8.72216 11.3662C8.83966 10.7061 9.15612 10.0977 9.62913 9.62244C10.1044 9.14925 10.713 8.83268 11.3733 8.71518C12.0336 8.59767 12.7141 8.68485 13.3234 8.96501C13.5441 9.06787 13.7863 9.07087 13.9984 8.99244C14.1072 8.95263 14.207 8.89174 14.2921 8.81327C14.3773 8.7348 14.4461 8.64029 14.4947 8.53515C14.574 8.36373 14.5933 8.18073 14.5611 8.00244C14.5166 7.73353 14.5368 7.45788 14.62 7.19831C14.7031 6.93874 14.8469 6.70271 15.0394 6.50973C15.3607 6.18905 15.796 6.00895 16.2499 6.00895C16.7038 6.00895 17.1392 6.18905 17.4604 6.50973ZM10.6658 10.6596C10.3102 11.0153 10.1105 11.4977 10.1106 12.0007C10.1107 12.5036 10.3106 12.986 10.6663 13.3416C11.022 13.6972 11.5044 13.8969 12.0074 13.8968C12.5103 13.8967 12.9927 13.6969 13.3483 13.3412C13.7039 12.9854 13.9036 12.503 13.9035 12.0001C13.9034 11.4971 13.7036 11.0148 13.3478 10.6592C12.9921 10.3036 12.5097 10.1038 12.0068 10.1039C11.5038 10.104 11.0214 10.3039 10.6658 10.6596Z" fill="white"/>
</svg>
