<svg width="24" height="24" viewBox="0 0 24 24" fill="none" xmlns="http://www.w3.org/2000/svg">
<path d="M12.0002 4.28564C12.5616 4.28564 13.0502 4.63279 13.2859 5.14279H10.7145C10.9502 4.63279 11.4388 4.28564 12.0002 4.28564ZM12.0002 19.7142C11.7271 19.7063 11.4617 19.6217 11.2344 19.4701C11.007 19.3185 10.8269 19.1061 10.7145 18.8571H13.2859C13.1735 19.1061 12.9934 19.3185 12.766 19.4701C12.5387 19.6217 12.2733 19.7063 12.0002 19.7142ZM13.7145 11.9999C13.7145 12.4546 13.5339 12.8906 13.2124 13.2121C12.8909 13.5336 12.4549 13.7142 12.0002 13.7142C11.5456 13.7142 11.1095 13.5336 10.788 13.2121C10.4665 12.8906 10.2859 12.4546 10.2859 11.9999C10.2859 11.5453 10.4665 11.1092 10.788 10.7877C11.1095 10.4663 11.5456 10.2856 12.0002 10.2856C12.4549 10.2856 12.8909 10.4663 13.2124 10.7877C13.5339 11.1092 13.7145 11.5453 13.7145 11.9999ZM9.85735 13.7142H7.28592C7.0586 13.7142 6.84058 13.8045 6.67983 13.9653C6.51909 14.126 6.42878 14.344 6.42878 14.5714C6.42878 14.7987 6.51909 15.0167 6.67983 15.1775C6.84058 15.3382 7.0586 15.4285 7.28592 15.4285H12.8445C12.9582 15.4285 13.0672 15.4737 13.1475 15.554C13.2279 15.6344 13.2731 15.7434 13.2731 15.8571C13.2731 15.9707 13.2279 16.0797 13.1475 16.1601C13.0672 16.2405 12.9582 16.2856 12.8445 16.2856H8.57164C8.34431 16.2856 8.12629 16.3759 7.96555 16.5367C7.8048 16.6974 7.71449 16.9155 7.71449 17.1428C7.71449 17.3701 7.8048 17.5881 7.96555 17.7489C8.12629 17.9096 8.34431 17.9999 8.57164 17.9999H15.4288C15.6561 17.9999 15.8741 17.9096 16.0349 17.7489C16.1956 17.5881 16.2859 17.3701 16.2859 17.1428C16.2859 16.9155 16.1956 16.6974 16.0349 16.5367C15.8741 16.3759 15.6561 16.2856 15.4288 16.2856H15.1031C14.9894 16.2856 14.8804 16.2405 14.8 16.1601C14.7196 16.0797 14.6745 15.9707 14.6745 15.8571C14.6745 15.7434 14.7196 15.6344 14.8 15.554C14.8804 15.4737 14.9894 15.4285 15.1031 15.4285H16.7145C16.9418 15.4285 17.1598 15.3382 17.3206 15.1775C17.4813 15.0167 17.5716 14.7987 17.5716 14.5714C17.5716 14.344 17.4813 14.126 17.3206 13.9653C17.1598 13.8045 16.9418 13.7142 16.7145 13.7142H14.1431C13.7145 14.2971 12.7588 14.6785 11.9616 14.6785C11.1645 14.6785 10.2816 14.2928 9.85735 13.7142ZM9.36021 12.8571H6.00021C5.77288 12.8571 5.55486 12.7668 5.39412 12.606C5.23337 12.4453 5.14307 12.2273 5.14307 11.9999C5.14307 11.7726 5.23337 11.5546 5.39412 11.3938C5.55486 11.2331 5.77288 11.1428 6.00021 11.1428H9.36021C9.24322 11.4134 9.18286 11.7051 9.18286 11.9999C9.18286 12.2948 9.24322 12.5865 9.36021 12.8571ZM14.5631 12.8571C14.6801 12.5865 14.7404 12.2948 14.7404 11.9999C14.7404 11.7051 14.6801 11.4134 14.5631 11.1428H18.0002C18.2275 11.1428 18.4456 11.2331 18.6063 11.3938C18.767 11.5546 18.8574 11.7726 18.8574 11.9999C18.8574 12.2273 18.767 12.4453 18.6063 12.606C18.4456 12.7668 18.2275 12.8571 18.0002 12.8571H14.5631ZM9.00021 5.99993C8.77288 5.99993 8.55486 6.09024 8.39412 6.25098C8.23337 6.41173 8.14307 6.62974 8.14307 6.85707C8.14307 7.3285 8.44735 7.71422 8.92307 7.71422H9.00021C9.12021 7.71422 9.42878 7.71422 9.42878 8.14279C9.42878 8.57993 9.15449 8.57136 9.02164 8.57136H7.28592C7.0586 8.57136 6.84058 8.66166 6.67983 8.82241C6.51909 8.98316 6.42878 9.20117 6.42878 9.4285C6.42878 9.65583 6.51909 9.87385 6.67983 10.0346C6.84058 10.1953 7.0586 10.2856 7.28592 10.2856H9.85735C10.2774 9.64279 11.1816 9.2185 12.0045 9.2185C12.8316 9.2185 13.7188 9.64707 14.1431 10.2856H16.7145C16.9418 10.2856 17.1598 10.1953 17.3206 10.0346C17.4813 9.87385 17.5716 9.65583 17.5716 9.4285C17.5716 9.20117 17.4813 8.98316 17.3206 8.82241C17.1598 8.66166 16.9418 8.57136 16.7145 8.57136H11.1216C10.9931 8.57136 10.7145 8.57564 10.7145 8.14279C10.7145 7.71422 11.0231 7.71422 11.1431 7.71422H15.0002C15.2275 7.71422 15.4456 7.62391 15.6063 7.46316C15.767 7.30242 15.8574 7.0844 15.8574 6.85707C15.8574 6.62974 15.767 6.41173 15.6063 6.25098C15.4456 6.09024 15.2275 5.99993 15.0002 5.99993H9.00021Z" fill="white"/>
</svg>
