<svg width="24" height="24" viewBox="0 0 24 24" fill="none" xmlns="http://www.w3.org/2000/svg">
<path d="M12 8.99986C12.7934 8.99986 13.5543 9.31503 14.1153 9.87603C14.6763 10.437 14.9915 11.1979 14.9915 11.9913C14.9915 12.7847 14.6763 13.5456 14.1153 14.1066C13.5543 14.6676 12.7934 14.9827 12 14.9827C11.2066 14.9827 10.4458 14.6676 9.88476 14.1066C9.32376 13.5456 9.0086 12.7847 9.0086 11.9913C9.0086 11.1979 9.32376 10.437 9.88476 9.87603C10.4458 9.31503 11.2066 8.99986 12 8.99986Z" fill="white"/>
<path d="M10.4272 10.1356L10.3372 10.3756C10.8686 10.3756 10.8 10.4484 11.1 10.1356C11.4215 9.79272 11.3529 9.95558 11.88 9.93844C12.6857 9.92558 12.2057 9.41129 13.3286 9.41129C12.48 9.63415 12.6815 9.86129 12.1157 10.1613C11.6416 10.4268 11.1149 10.5848 10.5729 10.6242L10.8772 10.9241C12.1672 10.9627 11.9915 11.3742 12.8186 11.2456C13.29 11.177 13.9757 11.2156 14.4429 11.3184L14.8543 11.5284L13.4829 11.4599C13.7957 11.9399 13.4657 11.4427 13.44 12.9256C13.5686 13.0242 13.6415 13.0842 13.7957 13.1827C14.0015 13.3284 14.0143 13.307 14.0957 13.5042C14.1986 13.6884 14.1686 13.8084 14.2286 14.0013C14.62 13.5726 14.8781 13.0392 14.9712 12.4663C15.0644 11.8933 14.9886 11.3056 14.7531 10.7751C14.5176 10.2445 14.1326 9.79407 13.6452 9.4788C13.1578 9.16353 12.5891 8.9971 12.0086 8.99986H11.8629C11.7386 9.12415 11.5629 9.19272 11.2157 9.55701C10.9243 9.86986 10.6415 9.96844 10.4272 10.1356ZM13.9843 14.2456C13.7315 13.9884 13.3843 14.1213 12.3986 13.907C12.0986 13.8384 11.7857 13.7013 11.6272 13.6799C11.1986 13.6242 11.4515 13.7956 10.8857 13.637C11.0443 14.0056 11.1086 13.7399 11.13 14.2756C10.9457 14.207 10.9329 14.177 10.7872 14.0699L9.96002 13.367C9.8186 13.1827 9.80145 13.0927 9.58717 12.977C9.3986 12.8699 9.30431 12.8784 9.11574 12.7713C9.24688 13.2636 9.5016 13.7143 9.85576 14.0807C10.2099 14.447 10.6518 14.7167 11.1394 14.8644C11.6271 15.0121 12.1443 15.0327 12.6422 14.9244C13.1401 14.8161 13.6021 14.5825 13.9843 14.2456Z" fill="white"/>
<path d="M11.8029 12.1241C11.6572 12.4199 11.4429 12.4799 11.0315 12.5099C10.4057 12.557 10.5129 12.647 10.0843 12.7413L10.0757 12.9084C10.3457 12.9599 10.5943 13.1141 10.7486 13.367C11.6057 13.6499 11.04 13.4441 11.4215 13.427C11.5929 13.4184 11.9486 13.6199 12.1929 13.6499L13.0286 13.7956C13.5 13.8556 13.5557 13.6884 13.9243 13.9456L13.9372 13.5041C12.8657 12.7841 13.6715 11.9184 13.0457 11.8756C12.5657 11.8456 12.1457 12.0984 11.8029 12.1199V12.1241Z" fill="white"/>
<path d="M9.09002 12.6942C10.29 12.7542 9.42002 12.7799 10.2386 12.4884C10.4872 12.3984 10.6715 12.4713 10.9543 12.437C11.2286 12.3942 11.3057 12.2527 11.5029 12.1284C11.9615 11.6784 12.4672 11.9827 12.8486 11.777C12.5657 11.597 12.4886 11.747 12.1757 11.6056C11.9486 11.4941 11.9786 11.4213 11.7043 11.3141C11.1986 11.1127 10.7872 11.4213 10.5557 10.9284C10.2386 10.7784 10.0157 10.7313 9.73288 10.9156C9.43288 11.1084 9.48002 11.1299 9.09002 11.267C8.97192 11.7354 8.97192 12.2258 9.09002 12.6942ZM9.13717 11.1299C9.49717 11.0441 9.33431 11.0227 9.6086 10.787C10.0672 10.3884 9.9686 10.8256 9.7886 10.2899C10.1915 10.4956 10.0886 10.6584 10.35 10.1442L10.4186 9.45844C9.80135 9.84004 9.34543 10.4347 9.13717 11.1299Z" fill="white"/>
<path fill-rule="evenodd" clip-rule="evenodd" d="M18.42 5.61415C18.2272 4.95844 15.2057 4.99272 11.6572 5.67844C8.11717 6.36415 5.39145 7.44844 5.58002 8.09986C5.77288 8.75558 8.79431 8.72129 12.3429 8.03558C15.8915 7.34986 18.6086 6.26558 18.42 5.61415ZM12.7629 7.60701C15.5357 7.00701 18 6.09415 18 5.80701C18 5.24129 15.12 5.37844 12.18 5.89701C9.12431 6.43701 6.0086 7.46986 6.0086 7.95844C6.0086 8.48558 9.57002 8.29701 12.7672 7.60701H12.7629ZM18.42 15.8999C18.2272 15.2441 15.2057 15.2784 11.6572 15.9641C8.11717 16.6499 5.39145 17.7342 5.58002 18.3856C5.77288 19.0413 8.79431 19.007 12.3429 18.3213C15.8915 17.6356 18.6086 16.5513 18.42 15.8999ZM12.7629 17.8927C15.5357 17.2927 18 16.3799 18 16.0927C18 15.527 15.12 15.6641 12.18 16.1827C9.12431 16.7227 6.0086 17.7556 6.0086 18.2442C6.0086 18.7713 9.57002 18.5827 12.7672 17.8927H12.7629Z" fill="white"/>
</svg>
