<svg width="24" height="24" viewBox="0 0 24 24" fill="none" xmlns="http://www.w3.org/2000/svg">
<path d="M18.8574 7.71449V6.85735H15.6516C15.5063 6.27933 15.3376 5.70743 15.1459 5.14307L14.1131 5.32307C14.3059 5.81592 14.4859 6.35164 14.6359 6.85735H11.5716V7.71449H18.8574ZM10.8602 15.0002V8.80735H9.35164C9.66449 8.34449 9.97735 7.77878 10.2945 7.09307V6.42878H7.82164C7.95878 6.12878 8.07878 5.78592 8.19878 5.47307L7.23878 5.17307C6.85605 6.51606 6.13436 7.73805 5.14307 8.72164L5.36592 9.78021C5.56307 9.60021 5.82021 9.42021 6.00021 9.22735V15.0002H10.8602ZM8.31878 8.81164H6.30878C6.7141 8.33275 7.08095 7.82259 7.40592 7.28592H9.29164C9.00162 7.81555 8.67661 8.32525 8.31878 8.81164ZM14.4859 18.8574C15.2359 18.8574 15.4288 18.4416 15.4288 17.6188V13.2859H18.0002V9.00021H12.1845V13.2859H14.5716V17.3659C14.5716 17.7388 14.4216 18.0002 14.1216 18.0002C13.7788 18.0002 13.4188 17.9702 13.0588 17.9274L13.2688 18.8574H14.4859ZM8.14307 11.5716H6.85735V9.68592H8.14307V11.5716ZM9.85735 11.5716H9.00021V9.68592H9.85735V11.5716ZM17.1431 12.4288H13.2002V9.85735H17.1431V12.4288ZM9.85735 14.1431H9.00021V12.4288H9.85735V14.1431ZM8.14307 14.1431H6.86592V12.4288H8.14307V14.1431ZM11.7902 18.4288C12.5026 17.2826 13.0752 16.0553 13.4959 14.7731L12.6302 14.3574C12.2187 15.5795 11.6649 16.7489 10.9802 17.8416L11.7902 18.4288Z" fill="white"/>
<path d="M18.8574 17.4516L18.0431 18.0002C17.5364 16.8323 16.9493 15.7011 16.2859 14.6145L17.1002 14.1431C17.7584 15.2059 18.3454 16.3112 18.8574 17.4516ZM11.1431 17.3874L10.4488 17.5716C10.2838 16.9194 10.0864 16.2757 9.85735 15.6431L10.5216 15.4288C10.7488 15.9859 10.9459 16.6416 11.1431 17.3874ZM9.85735 18.3302L9.05164 18.4288C8.9745 17.1688 8.82021 16.2002 8.57164 15.5274L9.34307 15.4288C9.59592 16.1402 9.76307 17.1045 9.85735 18.3302ZM8.14307 18.3345L7.42307 18.4288C7.39735 17.1774 7.3545 16.2002 7.28592 15.5231L7.95021 15.4288C8.04449 16.1402 8.11735 17.1131 8.14307 18.3345ZM6.85735 15.5445C6.75021 16.7874 6.51449 17.8888 6.13735 18.8574L5.14307 18.5788C5.56357 17.5773 5.81415 16.5127 5.88449 15.4288L6.85735 15.5445Z" fill="white"/>
<path d="M13.2088 7.28592C15.7588 7.28592 16.8945 8.50735 17.1431 9.12021C16.9116 11.4045 14.9574 11.9702 13.9545 12.2231C10.4488 13.3502 10.2216 14.5074 10.2216 15.2959C10.2216 16.0888 10.8516 16.5088 11.0231 16.6502C11.3402 16.0331 11.9745 15.5531 12.3474 15.5531C12.0602 16.0588 12.6345 16.9631 12.6345 17.2716C12.9968 17.297 13.3498 17.3977 13.6708 17.5675C13.9919 17.7372 14.2739 17.9722 14.4988 18.2574C14.3102 18.3174 13.7831 18.4288 13.2088 18.4288C8.87164 18.4288 7.40592 14.0574 7.40592 13.0416C7.40592 12.2274 7.65449 11.4045 7.77878 11.0959C7.46164 11.1688 6.75021 11.3188 6.42878 11.3188C6.56592 10.3031 7.84307 9.84449 8.46878 9.74164C8.66164 9.47592 9.11164 8.90164 9.38592 8.69592C9.21449 8.57164 8.05735 8.57164 7.71449 8.57164C8.42592 7.46592 10.3716 7.43592 11.1688 7.59449C11.4731 7.49164 12.3131 7.28592 13.2088 7.28592Z" fill="white"/>
<path d="M15.8574 9.32592C15.0112 8.75454 13.9927 8.49511 12.9763 8.59206C11.9599 8.68901 11.0088 9.13631 10.2859 9.85735H11.0788C11.5802 9.85735 12.0559 9.32592 13.1659 9.32592C14.0531 9.32592 14.8031 9.54021 15.0645 9.64735C15.3302 9.6045 15.8574 9.47592 15.8574 9.32592ZM8.88878 14.5202C8.88878 13.6931 9.24878 12.2831 9.42878 11.6831C8.38307 10.9459 8.60592 14.1131 8.57164 14.3016C8.54164 14.4945 8.79449 14.6574 8.88878 14.5202ZM8.57164 12.0002V11.1431C8.16878 11.1431 8.12164 11.7131 8.15164 12.0002H8.57164ZM8.14307 13.2859V12.0002C7.74021 12.0002 7.69307 12.8574 7.72307 13.2859H8.14307Z" fill="white"/>
<path d="M16.7145 8.81592C13.4916 6.56164 10.5131 8.28449 9.42878 9.42878H9.78878C10.3459 9.03449 11.8416 8.25021 13.3202 8.25021C14.7988 8.25021 15.8874 8.84164 16.2474 9.13307C16.4016 9.06021 16.7145 8.89307 16.7145 8.81592Z" fill="white"/>
</svg>
