<svg width="24" height="24" viewBox="0 0 24 24" fill="none" xmlns="http://www.w3.org/2000/svg">
<path d="M5.14307 8.14265L7.71449 9.42836V14.1426L5.14307 15.4284V8.14265Z" fill="white"/>
<path d="M18.8574 8.57122L16.2859 9.85693V14.5712L18.8574 15.8569V8.57122Z" fill="white"/>
<path d="M7.71449 9.42836L5.14307 8.14265L12.0002 3.85693L18.4288 7.71408L15.8574 8.99979L12.0002 6.85693L7.71449 9.42836Z" fill="white"/>
<path d="M16.2859 14.5712L18.8574 15.8569L12.0002 20.1426L5.57164 16.2855L8.14307 14.9998L12.0002 17.1426L16.2859 14.5712Z" fill="white"/>
<path d="M15.0002 9.85693H9.00021L12.0002 11.7855L15.0002 9.85693Z" fill="white"/>
<path d="M12.0002 15.4284V11.7855L15.0002 9.85693L12.0002 15.4284Z" fill="white"/>
</svg>
