<svg width="24" height="24" viewBox="0 0 24 24" fill="none" xmlns="http://www.w3.org/2000/svg">
<path d="M12.7971 13.333C12.9771 13.5816 13.1613 13.8302 13.3799 14.0616C13.7656 14.4902 14.2028 14.8245 14.7728 15.0045C15.0813 15.0902 15.3942 15.1287 15.7242 15.163C15.7413 15.163 15.7585 15.163 15.7799 15.1973C15.9428 15.5187 16.0371 15.8402 15.9942 16.1959C15.9942 16.2302 15.9942 16.2473 15.9813 16.2816C15.9813 16.2816 15.9599 16.2987 15.9599 16.2816C15.6726 15.9651 15.2724 15.7742 14.8456 15.7502C14.6335 15.7433 14.4246 15.8028 14.2479 15.9204C14.0712 16.0379 13.9356 16.2076 13.8599 16.4059C13.7311 16.7546 13.7236 17.1366 13.8385 17.4902V17.5073C13.7099 17.473 13.5813 17.4045 13.4742 17.3316C13.2775 17.1931 13.1089 17.0186 12.9771 16.8173C12.9599 16.7787 12.9771 16.7616 12.9771 16.7273C13.0885 16.4959 13.1785 16.2645 13.2513 16.0159C13.4013 15.5187 13.3799 15.0216 13.2513 14.5416C13.1442 14.1516 12.9771 13.7959 12.8142 13.423C12.7971 13.3673 12.7756 13.3502 12.7971 13.333C12.7756 13.3159 12.7585 13.3159 12.7971 13.333Z" fill="white"/>
<path d="M12.0256 17.863C12.0256 17.8802 11.9913 17.8802 11.9742 17.863C11.8071 17.4045 11.5713 16.9759 11.3699 16.5516C11.2413 16.2645 11.1128 15.9816 11.0742 15.6602C11.0742 15.643 11.0956 15.6259 11.1128 15.643C11.6999 15.8916 12.2999 15.8916 12.8871 15.643C12.9042 15.643 12.9256 15.643 12.9256 15.6602C12.8862 15.8802 12.8244 16.0956 12.7413 16.303C12.5956 16.6887 12.3942 17.0487 12.2099 17.4173C12.1371 17.563 12.0813 17.7045 12.0256 17.863ZM11.9056 12.5702C11.9271 12.5487 11.9656 12.5487 11.9656 12.5702C11.9828 12.6259 12.0213 12.6987 12.0428 12.7587C12.2142 13.1702 12.4071 13.5602 12.5828 13.9716C12.6428 14.1002 12.6813 14.2159 12.7371 14.3487C12.7585 14.383 12.7585 14.4045 12.6985 14.4216C12.213 14.6085 11.6754 14.6085 11.1899 14.4216C11.1471 14.4045 11.1299 14.383 11.1471 14.3487C11.3056 13.8987 11.5199 13.4873 11.6913 13.0545C11.7685 12.8873 11.8456 12.7202 11.9056 12.5702ZM16.2171 15.1973C16.2171 15.1802 16.2171 15.1802 16.2171 15.1973C16.5471 15.1973 16.8599 15.2359 17.1685 15.2873C17.2071 15.2873 17.2071 15.3216 17.2071 15.343C17.2799 15.7716 17.2585 16.213 17.1685 16.6373C17.0689 17.1501 16.8285 17.625 16.4742 18.0087C16.2109 18.2939 15.8861 18.5154 15.5245 18.6565C15.1629 18.7975 14.7739 18.8545 14.3871 18.823C13.6583 18.7884 12.9598 18.521 12.3942 18.0602C12.3556 18.0259 12.3556 18.0087 12.3556 17.9745C12.4499 17.6873 12.5742 17.4173 12.7242 17.1345C12.7242 17.1173 12.7413 17.1173 12.7585 17.1345C13.0678 17.5375 13.5134 17.8142 14.0118 17.9128C14.5103 18.0114 15.0275 17.9251 15.4671 17.6702C16.2728 17.1902 16.6199 16.1959 16.2171 15.1973Z" fill="white"/>
<path d="M11.2028 13.3502C11.0742 13.633 10.9456 13.9202 10.8385 14.2073C10.6362 14.7253 10.5857 15.2902 10.6928 15.8359C10.7656 16.1402 10.8942 16.4445 11.0228 16.7273C11.0399 16.7445 11.0399 16.7616 11.0228 16.8002C10.8387 17.0966 10.57 17.3309 10.2513 17.473C10.2342 17.4902 10.1956 17.4902 10.1613 17.5073C10.1613 17.5073 10.1442 17.5073 10.1442 17.4902C10.1613 17.383 10.1956 17.2973 10.1956 17.2073C10.2342 16.8859 10.2171 16.5645 10.0499 16.2816C9.95076 16.0905 9.79075 15.9378 9.59516 15.8478C9.39958 15.7578 9.17958 15.7355 8.96991 15.7845C8.60562 15.8402 8.29277 16.0159 8.03991 16.2645L8.00134 16.2987C8.00134 16.2987 7.9842 16.3202 7.9842 16.2987C7.95194 16.1727 7.9461 16.0414 7.96705 15.913C7.9842 15.6602 8.0742 15.4459 8.18134 15.2359C8.20277 15.1973 8.24134 15.1973 8.25848 15.1973C8.51563 15.1802 8.77277 15.1459 9.02991 15.073C9.52763 14.9475 9.98221 14.6898 10.3456 14.3273C10.6371 14.0445 10.8728 13.7273 11.1299 13.4059C11.1685 13.3673 11.1856 13.3502 11.2028 13.3502C11.2242 13.333 11.2028 13.3159 11.2028 13.3502Z" fill="white"/>
<path d="M6.77563 14.9659C6.75848 14.9659 6.73705 14.9487 6.75848 14.9316C7.08848 14.5587 7.34134 14.1516 7.63705 13.7573C7.81705 13.5087 8.02277 13.2602 8.27991 13.0673C8.29277 13.0502 8.3142 13.0673 8.3142 13.0845C8.34493 13.383 8.44114 13.671 8.59596 13.9281C8.75079 14.1851 8.96042 14.4049 9.20991 14.5716C9.22705 14.5887 9.22705 14.6102 9.20991 14.6102C8.99134 14.6959 8.76848 14.7345 8.54991 14.7687C8.12991 14.8202 7.70991 14.8373 7.28991 14.893C7.10563 14.9102 6.93848 14.9445 6.77563 14.9616V14.9659ZM11.4771 12.2659C11.5156 12.2659 11.5328 12.3002 11.5156 12.3216C11.4771 12.373 11.4428 12.4287 11.3871 12.463L10.6156 13.4745C10.5471 13.5816 10.4528 13.6716 10.3799 13.7616C10.3456 13.7959 10.3242 13.7959 10.2899 13.7616C10.0967 13.6174 9.93402 13.4363 9.81118 13.2289C9.68834 13.0215 9.60779 12.7918 9.5742 12.553C9.5742 12.4973 9.5742 12.4973 9.62991 12.4802C10.0713 12.3945 10.5299 12.3516 10.9842 12.3002C11.1471 12.3002 11.3142 12.283 11.4771 12.2659ZM11.2585 17.173C11.2585 17.1516 11.2756 17.173 11.2971 17.173C11.4428 17.4559 11.5713 17.7216 11.6613 18.0087C11.6785 18.043 11.6442 18.0602 11.6228 18.0773C11.2757 18.3568 10.8787 18.5677 10.4528 18.6987C9.94627 18.8704 9.40269 18.9015 8.87991 18.7887C8.50181 18.7113 8.146 18.5497 7.83885 18.316C7.5317 18.0823 7.2811 17.7825 7.10563 17.4387C6.76803 16.8078 6.65757 16.08 6.79277 15.3773C6.79277 15.343 6.8142 15.3216 6.84848 15.3216C7.16134 15.2702 7.45277 15.2359 7.76563 15.2187C7.78277 15.2187 7.78277 15.2359 7.78277 15.2359C7.37991 16.2302 7.72705 17.293 8.66134 17.7773C9.51848 18.2059 10.5642 18.0087 11.2585 17.173ZM11.2028 10.6673C11.0228 10.4187 10.8385 10.1702 10.6199 9.93874C10.2342 9.51017 9.79705 9.17588 9.22705 8.99588C8.91848 8.91017 8.60562 8.8716 8.27562 8.83731C8.25848 8.83731 8.24134 8.83731 8.21991 8.80303C8.03299 8.47914 7.96194 8.10125 8.01848 7.7316C8.01848 7.7316 8.03991 7.71874 8.03991 7.7316C8.3272 8.04811 8.72742 8.23898 9.1542 8.26303C9.36579 8.27017 9.57435 8.21129 9.75098 8.09457C9.9276 7.97784 10.0635 7.80905 10.1399 7.6116C10.2685 7.27303 10.2685 6.93445 10.1828 6.58303C10.1828 6.5616 10.1828 6.54445 10.1613 6.52731V6.51017C10.2899 6.54445 10.4185 6.61731 10.5256 6.68588C10.7271 6.82731 10.8942 7.00731 11.0228 7.20017C11.0399 7.23874 11.0228 7.25588 11.0228 7.29017C10.9113 7.5216 10.8213 7.75303 10.7485 8.0016C10.6115 8.48348 10.6115 8.994 10.7485 9.47588C10.8556 9.86588 11.0228 10.2216 11.1856 10.5945C11.2028 10.633 11.2028 10.6502 11.2028 10.6673C11.2242 10.6845 11.2028 10.6845 11.2028 10.6673Z" fill="white"/>
<path d="M11.9571 6.13731C11.9571 6.12017 11.9913 6.12017 12.0085 6.13731C12.1756 6.59588 12.4113 7.02445 12.6128 7.45303C12.7413 7.73588 12.8699 8.01874 12.9042 8.34017C12.9042 8.35731 12.8871 8.37445 12.8699 8.35731C12.5903 8.2343 12.2882 8.17078 11.9828 8.17078C11.6773 8.17078 11.3752 8.2343 11.0956 8.35731C11.0742 8.35731 11.0571 8.35731 11.0571 8.34017C11.0956 8.10874 11.1685 7.89445 11.2413 7.69731C11.3871 7.3116 11.5842 6.9516 11.7728 6.58303C11.8456 6.43731 11.9013 6.29588 11.9528 6.13731H11.9571ZM11.9999 11.4516C11.9742 11.473 11.9356 11.473 11.9356 11.4516C11.9185 11.3959 11.8799 11.323 11.8585 11.263C11.6828 10.843 11.4856 10.4487 11.3099 10.0287L11.1556 9.64731C11.1342 9.60874 11.1342 9.5916 11.1942 9.57017C11.685 9.38014 12.2291 9.38014 12.7199 9.57017C12.7628 9.5916 12.7799 9.61303 12.7628 9.64731C12.6042 10.1016 12.3856 10.5216 12.2099 10.9587C12.1328 11.1087 12.0556 11.2802 11.9956 11.4516H11.9999ZM7.76563 8.80303C7.76563 8.82017 7.76563 8.82017 7.7442 8.82017C7.43563 8.80303 7.12277 8.76445 6.8142 8.71303C6.77563 8.71303 6.77563 8.67874 6.77563 8.65731C6.70277 8.22874 6.71991 7.78731 6.8142 7.36303C6.92134 6.84874 7.13991 6.38588 7.50848 5.9916C7.77182 5.70644 8.09659 5.48494 8.45819 5.34387C8.81979 5.20279 9.20875 5.14583 9.59563 5.17731C10.3456 5.2116 11.0013 5.47731 11.5885 5.94017C11.6228 5.97445 11.6442 5.9916 11.6228 6.02588C11.5371 6.31303 11.4085 6.58303 11.2585 6.86588C11.2585 6.88303 11.2413 6.88303 11.2242 6.86588C10.5471 6.03017 9.34705 5.74731 8.45134 6.27874C7.64562 6.75874 7.36277 7.80445 7.76563 8.80303Z" fill="white"/>
<path d="M12.7799 10.6502C12.9085 10.3673 13.0371 10.0802 13.1442 9.79303C13.3285 9.2616 13.4185 8.73017 13.2899 8.16445C13.2171 7.86017 13.0885 7.55588 12.9599 7.27303C12.9428 7.25588 12.9428 7.23874 12.9599 7.20017C13.144 6.90378 13.4127 6.6694 13.7313 6.52731C13.7485 6.51017 13.7828 6.51017 13.8171 6.49303C13.8171 6.49303 13.8385 6.49303 13.8385 6.51017C13.8213 6.61731 13.7828 6.70303 13.7828 6.79303C13.7485 7.11445 13.7656 7.43588 13.9328 7.71874C14.0317 7.90901 14.191 8.06105 14.3857 8.15102C14.5804 8.24099 14.7994 8.2638 15.0085 8.21588C15.3632 8.15985 15.6906 7.99163 15.9428 7.73588L15.9813 7.7016C15.9813 7.7016 15.9985 7.68017 15.9985 7.7016C16.0328 7.82588 16.0328 7.96731 16.0156 8.08731C15.9903 8.3257 15.9159 8.55626 15.7971 8.76445C15.7799 8.80303 15.7413 8.80303 15.7242 8.80303C15.4671 8.82017 15.2099 8.85445 14.9528 8.92731C14.4428 9.0516 14.0056 9.31303 13.6371 9.67303C13.3456 9.95588 13.1056 10.273 12.8528 10.5945C12.8142 10.633 12.8142 10.6502 12.7799 10.6502C12.7799 10.6845 12.7799 10.6673 12.7799 10.6502Z" fill="white"/>
<path d="M17.2071 9.03445C17.2242 9.03445 17.2413 9.0516 17.2242 9.06874C16.8942 9.4416 16.6371 9.84874 16.3456 10.2387C16.1613 10.4916 15.9599 10.7402 15.7028 10.933C15.6856 10.9502 15.6685 10.933 15.6685 10.9159C15.6379 10.6163 15.5413 10.3271 15.3857 10.0693C15.2301 9.81141 15.0193 9.5912 14.7685 9.42445C14.7556 9.40731 14.7556 9.38588 14.7685 9.38588C14.9913 9.30017 15.2099 9.2616 15.4285 9.22731C15.8528 9.17588 16.2728 9.15874 16.6928 9.10303C16.8771 9.08588 17.0399 9.06874 17.2071 9.03445ZM12.5013 11.7345C12.4671 11.7345 12.4499 11.7002 12.4671 11.6787C12.5013 11.6273 12.5399 11.5716 12.5956 11.5373L13.3671 10.5259C13.4356 10.4187 13.5299 10.3287 13.6028 10.243C13.6371 10.2045 13.6542 10.2045 13.6885 10.243C14.0956 10.5602 14.3313 10.9502 14.4042 11.4473C14.4042 11.503 14.4042 11.503 14.3528 11.5202C13.9113 11.6059 13.4528 11.6487 12.9985 11.7002C12.8528 11.7002 12.6685 11.7173 12.5013 11.7345ZM12.7242 6.82731C12.7242 6.84874 12.7028 6.82731 12.6856 6.82731C12.5399 6.54445 12.4113 6.27874 12.3213 5.9916C12.2999 5.95731 12.3385 5.94017 12.3556 5.92303C12.7026 5.64349 13.0997 5.4326 13.5256 5.3016C14.0335 5.12914 14.5786 5.09803 15.1028 5.2116C15.4809 5.28904 15.8367 5.45061 16.1438 5.68431C16.451 5.91801 16.7016 6.21785 16.8771 6.5616C17.2132 7.19305 17.3221 7.92083 17.1856 8.62303C17.1856 8.65731 17.1685 8.67874 17.1342 8.67874C16.8213 8.73017 16.5299 8.76445 16.2171 8.7816C16.1999 8.7816 16.1999 8.76445 16.1999 8.76445C16.6028 7.77017 16.2556 6.70731 15.3213 6.22303C14.8849 6.00992 14.3884 5.95366 13.9154 6.06372C13.4424 6.17378 13.0217 6.44344 12.7242 6.82731Z" fill="white"/>
<path d="M13.5856 11.983C13.8942 11.9487 14.2028 11.9102 14.5328 11.8545C14.973 11.794 15.3941 11.6356 15.7649 11.3908C16.1358 11.1461 16.447 10.8212 16.6756 10.4402C16.6928 10.4187 16.6928 10.3973 16.7313 10.3973C17.0956 10.4187 17.4256 10.5087 17.7171 10.7187C17.7342 10.7402 17.7556 10.7573 17.7899 10.7745V10.7916C17.6828 10.8259 17.5885 10.843 17.4985 10.8773C17.2071 11.023 16.9328 11.1987 16.7699 11.4687C16.6531 11.6436 16.5982 11.8524 16.6137 12.0621C16.6292 12.2717 16.7144 12.4702 16.8556 12.6259C17.0943 12.8942 17.4077 13.0853 17.7556 13.1745C17.7728 13.1745 17.7899 13.1916 17.8113 13.1916C17.8113 13.1916 17.8285 13.1916 17.8285 13.2087C17.7342 13.2945 17.6099 13.3673 17.4813 13.423C17.2585 13.5302 17.0056 13.5645 16.7656 13.5816C16.7313 13.5816 16.7099 13.5645 16.6928 13.5302C16.5484 13.3186 16.3833 13.1219 16.1999 12.943C15.8363 12.582 15.3792 12.3297 14.8799 12.2145C14.4771 12.1073 14.0785 12.0516 13.6756 12.0173H13.6028C13.5642 12.0002 13.5642 11.983 13.5813 11.983H13.5856Z" fill="white"/>
<path d="M17.2585 14.8973C17.2799 14.9145 17.2585 14.9316 17.2413 14.9316C16.7485 14.8459 16.2556 14.8459 15.7585 14.7902C15.4337 14.7693 15.1134 14.7029 14.8071 14.593C14.7899 14.593 14.7899 14.5587 14.8071 14.5587C15.0575 14.3936 15.2669 14.1734 15.4192 13.9149C15.5715 13.6564 15.6626 13.3664 15.6856 13.0673C15.6856 13.0502 15.7071 13.033 15.7242 13.0502C15.9042 13.1916 16.0671 13.3502 16.1956 13.5302C16.4528 13.8473 16.6928 14.203 16.9328 14.5245C17.0399 14.6487 17.1342 14.773 17.2585 14.8973ZM12.4842 12.3002C12.4671 12.283 12.4842 12.2487 12.5228 12.2487C12.5956 12.2659 12.6513 12.2659 12.7242 12.2659C13.1442 12.3216 13.5813 12.3516 14.0013 12.4073L14.3871 12.463C14.4256 12.463 14.4428 12.4802 14.4428 12.5316C14.4092 12.7703 14.3286 13 14.2058 13.2075C14.0829 13.4149 13.9202 13.596 13.7271 13.7402C13.6928 13.7787 13.6756 13.7616 13.6413 13.723C13.3413 13.3845 13.0885 13.0287 12.8142 12.6773L12.4842 12.3002ZM16.9713 10.0287C16.9499 10.0287 16.9499 10.0116 16.9499 9.99017C17.1342 9.7416 17.3142 9.49303 17.5156 9.2616C17.5542 9.22731 17.5713 9.24445 17.5885 9.2616C18.0069 9.41246 18.3925 9.64235 18.7242 9.93874C19.1291 10.2728 19.4271 10.7184 19.5813 11.2202C19.8385 11.983 19.7099 12.7116 19.2556 13.3845C18.8445 13.9835 18.2552 14.4378 17.5713 14.683C17.5328 14.7002 17.5156 14.7002 17.4985 14.6659C17.2971 14.4345 17.1128 14.203 16.9499 13.9373C16.9499 13.9202 16.9499 13.9202 16.9671 13.9202C18.0642 13.7573 18.8956 13.0116 18.8571 12.0002C18.8175 11.5048 18.6083 11.0382 18.2648 10.6791C17.9213 10.32 17.4645 10.0903 16.9713 10.0287ZM10.4142 12.0002C10.1056 12.0345 9.79705 12.073 9.46705 12.1245C9.02597 12.1855 8.6043 12.3452 8.23334 12.5915C7.86238 12.8378 7.55164 13.1645 7.3242 13.5473C7.30705 13.5645 7.30705 13.5816 7.26848 13.5816C6.9151 13.5758 6.57165 13.4638 6.28277 13.2602C6.26563 13.243 6.2442 13.2259 6.20991 13.2087V13.1916L6.50134 13.1059C6.8142 12.9773 7.06705 12.8016 7.25134 12.5145C7.36754 12.3392 7.4218 12.1301 7.40549 11.9204C7.38918 11.7107 7.30324 11.5125 7.16134 11.3573C6.92263 11.089 6.60925 10.8979 6.26134 10.8087C6.2442 10.8087 6.22705 10.7916 6.20991 10.7916C6.20991 10.7916 6.19277 10.7916 6.19277 10.7745C6.27848 10.6887 6.40705 10.6159 6.53563 10.5602C6.76225 10.4632 7.00498 10.4094 7.25134 10.4016C7.28991 10.4016 7.30705 10.4187 7.3242 10.453C7.46858 10.6646 7.63368 10.8613 7.81705 11.0402C8.18063 11.4012 8.6378 11.6535 9.13705 11.7687C9.53991 11.8759 9.94277 11.9273 10.3456 11.9659H10.4185C10.4356 11.983 10.4356 12.0002 10.4185 12.0002H10.4142Z" fill="white"/>
<path d="M6.75848 9.08588C6.74134 9.06874 6.75848 9.0516 6.77563 9.0516C7.26848 9.13731 7.76134 9.13731 8.25848 9.19303C8.58848 9.22731 8.90134 9.2616 9.20991 9.38588C9.22705 9.38588 9.22705 9.42445 9.20991 9.42445C8.95943 9.58959 8.75004 9.80984 8.59776 10.0683C8.44549 10.3268 8.35435 10.6167 8.33134 10.9159C8.33134 10.933 8.3142 10.9502 8.29277 10.933C8.11277 10.7916 7.94991 10.633 7.82134 10.453C7.5642 10.1359 7.3242 9.78017 7.08848 9.45874C6.95991 9.3516 6.86563 9.22731 6.75848 9.08588ZM11.5156 11.7002C11.5328 11.7173 11.5156 11.7516 11.4771 11.7516C11.4042 11.7345 11.3485 11.7345 11.2756 11.7345C10.8556 11.6787 10.4185 11.6487 9.99848 11.593L9.61277 11.5373C9.5742 11.5373 9.55705 11.5202 9.55705 11.4687C9.59065 11.23 9.67119 11.0003 9.79404 10.7929C9.91688 10.5854 10.0796 10.4044 10.2728 10.2602C10.3071 10.2216 10.3242 10.2387 10.3585 10.2773C10.6585 10.6159 10.9113 10.9673 11.1856 11.323C11.3142 11.4302 11.4256 11.5545 11.5156 11.7002ZM7.02848 13.9545C7.04991 13.9545 7.04991 13.9716 7.04991 13.9887C6.86563 14.2373 6.68563 14.4859 6.4842 14.7173C6.44563 14.7559 6.42848 14.7345 6.41134 14.7173C5.98998 14.5747 5.60312 14.3455 5.27563 14.0445C4.8707 13.7104 4.57267 13.2648 4.41848 12.763C4.16134 12.0002 4.28991 11.2716 4.7442 10.5945C5.15596 9.99703 5.74519 9.54424 6.42848 9.30017C6.46705 9.28303 6.4842 9.28303 6.50134 9.31731C6.70277 9.54874 6.88705 9.78017 7.04991 10.0459C7.04991 10.063 7.04991 10.063 7.03277 10.063C5.93563 10.2216 5.1042 10.9887 5.14277 12.0002C5.18134 12.943 5.95277 13.7959 7.02848 13.9545Z" fill="white"/>
</svg>
