<svg width="24" height="24" viewBox="0 0 24 24" fill="none" xmlns="http://www.w3.org/2000/svg">
<path d="M6.01728 8.70039L6.87571 8.14453L7.68185 8.70039L6.87571 9.19025L6.01728 8.70039ZM4.56014 9.50782L3.70214 10.0641L4.56057 10.5535L5.36714 10.0641L4.56014 9.50782ZM3.42871 10.2857V14.3031L6.85728 16.2857V12.3205L3.42871 10.2857ZM6.87571 9.50782L6.01728 10.0641L6.87571 10.5535L7.68185 10.0641L6.87571 9.50782ZM6.01728 11.4278L6.87571 10.8715L7.68185 11.4274L6.87571 11.9172L6.01728 11.4274V11.4278ZM5.70443 10.1944L4.84643 10.7502L5.70485 11.2401L6.51143 10.7502L5.70443 10.1944ZM7.16285 10.7502L8.02128 10.1944L8.82785 10.7502L8.02171 11.2401L7.16285 10.7502ZM9.19085 9.50782L8.33243 10.0641L9.19085 10.5535L9.99743 10.0641L9.19085 9.50782Z" fill="white"/>
<path d="M10.2856 14.5714V10.2856H11.1428L12.4285 13.1296L13.7142 10.2856H16.7142V11.1428H14.5619V11.9999H16.7142V12.8571H14.5619V13.7142H16.7142V14.3026L18.0496 12.3428L16.7168 10.2856H17.7599L18.5811 11.5658L19.3636 10.2856H20.4844L19.1318 12.3428L20.5714 14.5714H19.4892L18.5811 13.1296L17.6824 14.5714H13.7142V12.3428L12.8571 14.5714H11.9999L11.1428 12.3428V14.5714H10.2856Z" fill="white"/>
</svg>
