<svg width="24" height="24" viewBox="0 0 24 24" fill="none" xmlns="http://www.w3.org/2000/svg">
<path d="M8.87549 7.40807C8.87549 7.40807 8.18549 7.61593 8.54035 8.35907C8.54035 8.35907 8.03507 8.10193 7.65964 8.29521C7.28464 8.48935 6.74249 8.75121 6.31864 8.44521C5.89564 8.14007 6.01092 7.59578 6.10307 7.18907C6.19564 6.78193 6.17507 6.17678 5.35307 6.01907C5.35307 6.01907 6.06664 5.82707 6.46735 6.34178C6.86678 6.85607 6.46949 7.5825 7.06307 7.84007C7.65664 8.0985 7.90607 7.1115 8.87549 7.40807ZM7.52335 8.74478C7.52335 8.74478 7.47878 9.13607 7.09735 9.18321C7.09735 9.18321 7.22078 10.0502 8.22792 9.71893C8.22792 9.71893 8.1045 10.3991 7.55164 10.6296C6.99878 10.8602 5.70621 11.5116 5.83049 13.5808C5.83049 13.5808 5.20692 12.6191 5.71092 10.8945C5.96721 10.0185 6.92678 9.60921 6.92678 9.60921C6.92678 9.60921 6.42107 9.56721 5.95521 9.99578C5.95521 9.99578 6.32078 8.88921 7.52335 8.74478ZM9.26164 7.40207C8.90249 6.9195 8.47178 6.97778 8.10278 7.17107C7.76635 7.34807 7.27992 7.56321 7.03478 7.2465C6.48535 6.53507 7.14321 5.99507 6.82478 5.34407C6.45192 4.58207 5.14307 4.42221 5.14307 4.42221C6.01735 4.16721 7.06735 4.28764 7.53321 4.6725C7.99949 5.05693 7.68492 5.67235 8.16535 6.01307C8.64578 6.35378 9.35121 5.99121 9.76178 6.43393C10.1719 6.87621 10.0618 7.33735 9.93749 7.50578C9.79007 7.70635 9.48321 7.58293 9.21621 7.92107C8.94921 8.25921 9.09107 8.5665 9.09107 8.5665C8.19792 7.85678 9.26164 7.40207 9.26164 7.40207ZM15.0336 14.2836C15.0336 14.2836 14.9119 14.3899 14.8399 14.6064C14.7654 14.8335 14.7319 15.1035 14.3916 15.1712C14.3916 15.1712 14.5005 15.0975 14.5279 15.0388C14.6179 14.8442 14.5986 14.4281 15.0336 14.2836ZM11.6505 15.7639C11.6655 15.7382 11.6672 15.7224 11.7174 15.7279C11.7675 15.7335 12.0178 15.7442 12.1322 15.6611C12.2458 15.5771 12.2668 15.6731 12.2359 15.7429C12.2042 15.8098 12.1566 15.8672 12.0971 15.9101C12.0971 15.9101 12.2205 16.0134 12.4558 15.9529C12.6915 15.8929 12.7794 15.8539 12.7215 15.9666C12.6795 16.0489 12.5762 16.0875 12.5064 16.1248C12.4434 16.1582 12.2064 16.2791 12.1519 16.3168C12.1258 16.3352 12.1044 16.3378 12.0684 16.3142C12.0315 16.2906 12.0559 16.2221 12.0114 16.1899C11.9668 16.1582 11.9051 16.2011 11.8785 16.2148C11.8519 16.2294 11.8254 16.2456 11.7512 16.2221C11.6771 16.1985 11.5498 16.1741 11.5626 16.0528C11.5746 15.9315 11.6329 15.7944 11.6505 15.7639ZM8.89049 13.8782C8.89049 13.8782 8.84549 14.0835 9.04478 14.3895C9.24321 14.6951 9.80078 15.4524 9.33321 16.5285C9.33321 16.5285 8.79621 16.1865 8.81292 15.6936C8.82878 15.2004 8.99892 15.2308 8.97107 14.9286C8.94321 14.6265 8.73621 14.1906 8.89049 13.8782ZM8.71992 12.7875C8.71992 12.7875 8.16664 13.4694 8.54507 14.2108C8.87507 14.8566 8.67235 15.0024 8.32264 15.6409C7.88121 16.4479 8.41992 17.3668 8.41992 17.3668C7.90649 17.2254 7.46892 16.6905 7.50535 15.8972C7.52035 15.5586 7.7295 15.1335 7.99221 14.6899C8.23907 14.2742 7.88164 14.1555 8.19021 13.4124C8.32992 13.0764 8.71992 12.7875 8.71992 12.7875ZM12.7271 11.0389C12.7271 11.0389 12.7232 11.1671 12.8055 11.1671C12.8745 11.1671 12.8728 11.1062 12.8728 11.1062C12.8728 11.1062 12.9242 11.1096 12.9426 11.1002C12.9426 11.1002 12.9101 11.3419 12.7348 11.3419C12.7026 11.3419 12.6675 11.3034 12.6675 11.3034C12.6401 11.2935 12.6204 11.3034 12.6332 11.3471C12.6461 11.3908 12.6469 11.4461 12.7305 11.4941C12.8141 11.5425 12.9362 11.5746 13.0536 11.6685C13.1098 11.7135 13.2559 11.8631 13.3129 11.9544C13.3695 12.0444 13.3061 12.0028 13.2581 11.9775C13.2259 11.9608 13.0245 11.8074 12.9066 11.7649C12.7884 11.7221 12.6868 11.7328 12.6409 11.6651C12.5959 11.5969 12.5158 11.4302 12.5124 11.3076C12.5094 11.1851 12.5102 11.1774 12.5411 11.1576L12.7271 11.0389ZM13.2885 10.5508C13.3554 10.6022 13.3948 10.5851 13.4355 10.6404C13.4762 10.6952 13.4068 10.8611 13.3348 10.8962C13.2628 10.9314 13.2371 10.8679 13.2405 10.8525C13.2435 10.8366 13.2971 10.7539 13.1882 10.6575C13.0798 10.5606 12.9838 10.5358 12.8925 10.6142C12.8081 10.6871 12.8055 10.7029 12.8008 10.7642C12.7956 10.8246 12.7661 10.8765 12.6096 10.9292C12.4536 10.9819 12.2136 10.9378 11.9955 10.7951C11.7778 10.6524 11.6934 10.4766 11.6771 10.3554C11.6771 10.3554 11.8322 10.5186 12.0971 10.5641C12.0971 10.5641 12.2089 10.1818 12.6474 10.1231C12.7931 10.1038 12.9804 10.2041 13.0909 10.3211C13.1706 10.4046 13.2131 10.4934 13.2885 10.5508ZM12.3092 9.37864C12.1862 9.32207 12.0881 9.2745 12.0924 9.15878C12.0966 9.04307 12.1952 8.92435 12.3765 8.79578C12.5578 8.66721 12.7009 8.62435 12.8265 8.68135C13.2688 8.88107 13.2894 8.94107 13.5302 9.38207C13.6005 9.5115 13.6241 9.64607 13.6721 9.69835C13.7664 9.79993 13.9014 9.87535 13.9944 10.0215C14.0874 10.1676 14.0839 10.3875 14.1216 10.5101C14.1838 10.7102 14.2571 10.7449 14.2914 10.8491C14.3145 10.9211 14.3231 11.0711 14.3158 11.2271C14.3094 11.3826 14.3261 11.4332 14.3424 11.5249C14.3582 11.6166 14.3552 11.7066 14.1705 11.6556C13.9854 11.6055 13.9935 11.5571 13.9416 11.5326C13.8564 11.4919 13.7351 11.4979 13.6541 11.5125C13.5122 11.5382 13.6172 11.6861 13.7895 11.6929C13.8924 11.6972 14.0646 11.7101 14.2314 11.8086C14.3981 11.9068 14.5181 11.9535 14.5828 12.0945C14.6471 12.2359 14.6801 12.3139 14.8888 12.4661C15.0975 12.6178 15.2762 12.8535 15.2985 12.9889C15.3212 13.1235 15.3422 13.2216 15.4511 13.4192C15.5196 13.5435 15.5244 13.6614 15.4965 13.7964C15.4768 13.8911 15.4438 13.9609 15.4211 14.0149C15.3992 14.0681 15.3598 14.1032 15.3054 14.0381C15.2509 13.9725 15.1682 13.8264 15.1335 13.7711C15.0221 13.5966 14.6741 13.5336 14.5811 13.4282C14.4954 13.3309 14.4714 13.2054 14.4426 13.0969C14.4144 12.9881 14.3766 12.9444 14.3402 13.0798C14.3042 13.2165 14.3574 13.4124 14.4341 13.5821C14.5112 13.7514 14.6364 14.1221 14.6076 14.3535C14.5789 14.5849 14.4919 14.7632 14.4319 14.8219C14.4054 14.8476 14.3282 14.8789 14.1958 14.8562C14.0629 14.8344 13.6035 14.7418 13.3374 14.6998C13.3374 14.6998 13.0429 14.9951 12.7618 15.1558C12.4875 15.3135 12.5046 15.1716 12.6456 14.9951C12.7832 14.8224 12.9062 14.6141 12.9096 14.5314C12.9096 14.5314 12.7566 14.4345 12.9246 14.4276C13.0922 14.4208 13.1916 14.4371 13.3061 14.4911C13.4209 14.5442 13.5761 14.6338 13.4934 14.4602C13.4106 14.2871 12.9319 13.8675 12.8964 13.5761C12.8616 13.2902 13.0712 12.9096 13.3228 12.9045C13.5744 12.8998 13.9854 13.1561 14.1156 13.5705C14.1156 13.5705 14.1696 13.4492 14.0702 13.2654C13.9704 13.0824 13.6082 12.6645 13.3909 12.6696C13.1784 12.6739 12.8908 12.7631 12.6529 13.3211C12.4986 13.6832 12.2556 13.6018 12.2038 13.5876C12.1429 13.5709 11.9964 13.3879 12.0924 13.3134C12.1888 13.2392 12.2985 13.1509 12.3349 13.0318C12.3349 13.0318 11.7662 13.3112 11.3711 13.1068C10.9759 12.9032 11.0994 12.5535 11.0762 12.4609C11.0565 12.3851 10.9999 12.3881 10.9339 12.4815C10.8675 12.5745 10.7252 12.9431 11.0355 13.2114C11.3462 13.4796 11.6012 13.3931 11.7302 13.3656C11.8588 13.3378 11.9102 13.3849 11.8656 13.4612C11.8202 13.5375 11.8219 13.6644 11.9389 13.7535C12.0559 13.8426 12.4442 13.9335 12.4361 14.1409C12.4309 14.2755 12.3486 14.2022 12.2848 14.1881C12.1708 14.1619 11.1156 13.8966 10.5105 14.6745C10.3489 14.8824 10.4222 14.9016 10.4844 15.0131C10.5246 15.0855 10.6584 15.5068 10.5894 16.0129C10.5332 16.4231 10.5624 16.5516 10.7351 16.7136C10.8079 16.7818 11.0222 16.9279 11.2571 16.8971C11.4251 16.8756 11.4096 16.9365 11.3934 16.9802C11.3775 17.0244 11.3548 17.1422 11.1199 17.1559C11.0664 17.1594 10.4162 17.1504 10.2024 16.7844C10.0588 16.5388 10.1214 16.4732 9.99664 16.1839C9.91349 15.9881 9.82521 16.0074 9.76607 15.8359C9.71592 15.6915 9.73649 15.5946 9.73864 15.4862C9.74078 15.3774 9.76692 15.3221 9.86849 15.3936C9.97007 15.4656 10.0639 15.5522 10.0828 15.5749C10.0828 15.5749 10.0832 15.4862 9.96107 15.2719C9.83935 15.0568 8.98435 14.3042 9.27621 13.3134C9.27621 13.3134 8.85449 13.1436 8.66464 13.7492C8.66464 13.7492 8.55749 13.5049 8.74607 13.2208C8.88749 13.0074 9.11635 12.9842 9.00235 12.4849C8.91535 12.1039 8.80864 11.8468 9.06321 11.4722C9.31778 11.0981 9.54621 11.1692 9.54192 11.0106C9.53892 10.8979 9.08464 10.8019 8.79064 11.2866C8.79064 11.2866 8.45721 10.1959 10.0806 9.91778C10.0806 9.91778 9.63492 9.7305 9.03835 10.0764C8.44135 10.4226 8.49621 11.1834 8.58064 11.5725C8.66549 11.9616 8.89864 12.4652 8.16921 12.9812C7.67121 13.3326 7.81435 13.6618 7.82207 14.0484C7.83021 14.4354 7.62878 14.9098 7.38707 15.2141C7.38707 15.2141 7.15864 14.3869 7.47064 13.6815C7.78349 12.9769 8.01064 12.8844 8.10321 12.6829C8.19449 12.4819 8.09807 12.5016 7.94464 12.5861C7.79035 12.6696 6.66749 13.3288 7.04678 15.6992C7.04678 15.6992 6.1335 14.8751 6.1755 13.5851C6.21835 12.2951 6.69107 11.6702 7.02578 11.3929C7.36092 11.1156 7.53664 11.0046 7.56578 11.2961C7.59535 11.5875 7.5525 11.6389 7.40292 11.8112C7.25207 11.9835 7.15307 12.2364 7.16678 12.4584C7.16678 12.4584 7.37764 12.0876 7.68664 11.9072C7.91207 11.7752 7.98578 11.4066 7.99049 11.1349C7.99521 10.8632 8.17049 10.3185 8.61192 9.84278C9.05335 9.3675 9.04649 8.83735 8.54764 9.16135C8.04964 9.48535 7.72778 9.57364 7.4505 9.3435C7.4505 9.3435 7.73721 9.28864 7.76807 8.99164C7.79978 8.69464 8.09678 8.44093 8.54164 8.59564C8.98692 8.75121 9.40521 9.20721 9.63107 9.27278C9.85649 9.33793 10.2696 9.41593 10.4355 9.63364C10.4355 9.63364 10.3284 8.94107 10.7265 8.8815C10.7265 8.8815 10.6836 8.3115 10.0978 8.43878C9.5835 8.5515 9.73864 9.01821 9.73864 9.01821C9.73864 9.01821 9.06621 8.60893 9.46907 8.10236C9.85778 7.61378 10.5319 7.64421 10.8444 7.99864C10.8444 7.99864 10.9644 7.77064 10.8041 7.58893C10.6434 7.40678 10.4059 7.62235 10.3125 7.42393C10.2186 7.2255 10.4921 7.11107 10.2662 6.63021C10.0404 6.1485 9.45621 5.97878 9.12192 5.80135C8.78764 5.6235 8.57978 5.2095 8.68049 4.71707C8.68049 4.71707 9.26592 5.42335 10.0614 5.41393C10.7642 5.40535 11.1152 5.21593 11.5601 5.39378C12.0045 5.57164 12.1614 5.88793 12.1948 6.15921C12.1948 6.15921 12.3731 6.01564 12.3199 5.76835C12.2676 5.52107 12.2539 5.44135 12.4622 5.25278C12.4622 5.25278 12.4091 5.65264 12.9636 6.00278C13.5191 6.35335 14.0158 6.48835 14.0599 7.24735C14.0702 7.41835 13.8911 8.04535 13.4514 8.25964C13.2405 8.36164 12.8805 8.27378 12.8805 8.27378C12.8805 8.27378 13.8041 7.53535 12.8912 6.80807C12.8912 6.80807 13.1278 7.26793 12.6941 7.68664C12.6941 7.68664 12.8745 7.12907 12.4905 7.03435C12.4905 7.03435 12.6739 7.26921 12.3958 7.60007C12.1172 7.93178 12.3641 8.13107 12.6816 8.33421C12.6816 8.33421 12.1746 8.5755 11.9299 8.25835C11.7679 8.04793 12.0439 7.71878 11.9479 7.36478C11.9342 7.31335 11.8909 7.02278 11.2764 6.7665C10.6622 6.50978 10.6789 6.44935 10.5392 6.29893C10.5392 6.29893 10.5589 6.49607 10.7334 6.71893C10.9284 6.96921 11.1589 7.0125 11.2408 7.16164C11.3222 7.3095 11.3295 7.52293 11.3955 7.60821C11.4936 7.73464 11.6226 7.77235 11.6792 7.91678C11.7362 8.06078 11.7842 8.22407 11.6694 8.55493C11.6694 8.55493 11.4684 8.59136 11.4846 8.33764C11.5001 8.08478 11.4388 7.9755 11.2429 7.96907C11.2429 7.96907 11.3454 8.09078 11.3372 8.26393C11.3286 8.43621 11.1722 8.52535 11.2044 8.60807C11.2421 8.70493 11.3826 8.7285 11.5086 8.86993C11.6342 9.01135 11.8386 9.1755 11.9921 9.41678C12.1459 9.6585 12.3354 10.0862 12.1018 9.95421C11.8674 9.82135 11.7559 9.72193 11.5249 9.76178C11.2944 9.80164 11.2181 10.0459 11.2056 10.3365C11.1928 10.6271 11.1422 10.6352 10.9755 10.7625C10.8092 10.8898 10.6802 10.9468 10.5658 11.2296C10.4505 11.5116 10.2152 11.6659 10.0446 11.7525C9.87364 11.8386 9.54407 11.9531 9.62678 12.3825C9.70949 12.8119 9.99492 13.2251 10.1711 13.3841C10.1711 13.3841 10.2011 13.1526 10.1436 12.9636C10.0871 12.7742 9.97821 12.4815 10.0922 12.1356C10.2058 11.7902 10.4192 11.7071 10.4706 11.6899C10.5221 11.6736 10.6301 11.6316 10.7531 11.3599C10.8752 11.0891 10.9686 11.0064 11.2292 10.9472C11.4902 10.8872 12.0572 10.9138 12.2629 11.1641C12.4686 11.4144 12.3186 11.5699 12.5689 11.8348C12.8188 12.0996 13.0112 12.0791 13.2401 12.1275C13.4852 12.1802 14.2708 12.5201 14.1066 12.3096C13.9566 12.1168 13.8671 12.0624 13.7034 11.9664C13.5362 11.8678 13.3734 11.8164 13.2688 11.5862C13.1831 11.3976 13.1745 11.3235 13.1642 11.2798C13.1548 11.2361 13.1544 11.1658 13.2396 11.1426C13.3249 11.1204 13.5482 11.0968 13.5992 10.8705C13.6399 10.6905 13.5632 10.4205 13.5358 10.3584C13.4788 10.2285 13.3262 10.2259 13.2516 10.1539C13.1445 10.0511 12.8166 9.60878 12.6722 9.5235C12.5946 9.47764 12.3799 9.41121 12.3092 9.37864ZM14.1302 15.0731C14.1302 15.0731 13.9566 15.1296 13.8126 15.0559C13.8126 15.0559 13.6292 15.2865 13.4034 15.3834C13.2062 15.4674 13.1034 15.4995 13.2105 15.3525C13.2928 15.2381 13.3074 15.2496 13.4098 15.1562C13.5126 15.0619 13.5846 14.9582 13.6468 14.9059C13.7226 14.8412 13.7985 14.8738 14.1302 15.0731Z" fill="white"/>
<path d="M15.3401 14.6848C14.5674 15.9688 13.3995 17.2956 11.6338 18.3731C11.4749 18.2757 11.3183 18.1747 11.1641 18.0701C11.2996 18.0445 11.4282 17.9906 11.5414 17.9119C11.6546 17.8331 11.7499 17.7314 11.8211 17.6132C11.9792 17.3552 12.0084 17.0775 12.1519 16.9661C12.3041 16.8478 12.5042 16.7998 12.6551 16.6344C12.9456 16.3172 12.9564 15.9388 12.9564 15.9388C12.9564 15.9388 13.0618 15.9341 13.1591 15.9144C13.2636 15.8929 13.3644 15.8518 13.4899 15.8492C13.6725 15.8462 13.9052 15.9379 14.0835 15.8981C14.3004 15.8492 14.4521 15.7935 14.5348 15.7202C14.9102 15.3868 14.8588 15.0469 15.0006 14.9359C15.0774 14.8751 15.2102 14.7941 15.3401 14.6848ZM15.7472 13.9434C16.8495 11.7336 16.8504 9.8325 16.8504 9.8325C16.2212 9.41978 15.3444 8.90035 13.7561 8.6475C13.8024 8.79707 13.8525 8.98093 13.8654 9.10993C13.8786 9.24621 13.9185 9.21278 14.0081 9.28778C14.0985 9.36364 14.2416 9.5055 14.2939 9.6435C14.3462 9.78235 14.3805 9.96921 14.4294 10.0969C14.4782 10.2251 14.6025 10.5855 14.6102 10.7526C14.6175 10.9189 14.4486 11.3308 14.5198 11.4726C14.6796 11.7932 15.2042 11.9749 15.3615 12.2976C15.4965 12.5749 15.5012 12.7451 15.5492 12.9615C15.5976 13.1775 15.8184 13.5456 15.7524 13.9155L15.7472 13.9434Z" fill="white"/>
<path d="M5.19707 10.7608C5.14038 10.2692 5.12876 9.77338 5.16235 9.27964C5.38364 9.1395 5.60769 9.00376 5.83435 8.8725C5.87292 8.91878 5.94878 9.00107 6.02935 9.03021C6.02935 9.03021 5.41649 9.4485 5.51764 10.3472C5.51764 10.3472 5.31921 10.5264 5.19707 10.7608ZM18.8381 9.27964C17.7165 8.57293 16.5898 7.96178 14.8811 7.64121C14.8529 7.84978 14.775 8.04852 14.6539 8.22064C16.4831 8.52707 17.5056 9.12364 18.2436 9.57321C18.2436 9.57321 18.5814 15.5269 11.9994 18.9979C10.5996 18.2582 9.51278 17.4109 8.66892 16.5336C8.65092 16.7882 8.72892 17.2142 9.10007 17.8279C9.94435 18.5445 10.9031 19.1591 12.0002 19.7145C14.4328 18.4845 16.1839 16.9622 17.5095 14.6921C18.5711 12.8436 18.9516 10.8191 18.8381 9.27964Z" fill="white"/>
</svg>
