<svg width="24" height="24" viewBox="0 0 24 24" fill="none" xmlns="http://www.w3.org/2000/svg">
<path d="M15.1716 5.51133C15.0216 5.57561 14.8544 5.5799 14.6744 5.52418C14.6635 5.52079 14.6519 5.52019 14.6406 5.52243C14.6294 5.52468 14.6189 5.5297 14.6101 5.53704C14.5673 5.56704 14.5244 5.5799 14.4687 5.57133C14.2617 5.53568 14.0601 5.47375 13.8687 5.38704C13.8016 5.35664 13.7276 5.3448 13.6544 5.35276C13.5901 5.36133 13.5259 5.35276 13.4616 5.33561C13.0416 5.21561 12.6044 5.12133 12.1587 5.04418C11.9701 5.0099 11.7859 4.99704 11.6144 5.00133C11.443 5.00133 11.2716 4.99276 11.1044 4.97561C11.0884 4.9735 11.0721 4.97554 11.0571 4.98155C11.0421 4.98755 11.0289 4.99731 11.0187 5.0099C11.0035 5.02819 10.9822 5.04037 10.9587 5.04418L10.093 5.15133C9.47585 5.27133 8.85442 5.45133 8.233 5.69561C8.20728 5.69561 8.19014 5.67847 8.19014 5.65276C8.533 5.49418 8.88014 5.3399 9.23157 5.19418C9.64728 5.02276 10.0716 4.89847 10.513 4.82561C12.1416 4.55133 13.693 4.78276 15.1716 5.51133Z" fill="white"/>
<path d="M12.2359 4.8599L11.1301 4.83847C11.1245 4.83847 11.119 4.84073 11.115 4.84475C11.111 4.84876 11.1087 4.85422 11.1087 4.8599C11.1087 4.87276 11.1173 4.88133 11.1301 4.88133L12.2359 4.89847C12.2487 4.89847 12.2573 4.8899 12.2573 4.88133C12.2573 4.87564 12.255 4.87019 12.251 4.86617C12.247 4.86216 12.2415 4.8599 12.2359 4.8599ZM12.7373 4.9499C13.3812 5.03784 14.0091 5.21827 14.6016 5.48561L14.593 5.50276C14.5916 5.50587 14.5896 5.50867 14.5871 5.51101C14.5847 5.51334 14.5817 5.51516 14.5785 5.51636C14.5754 5.51755 14.572 5.5181 14.5686 5.51797C14.5651 5.51785 14.5618 5.51704 14.5587 5.51561C13.9699 5.25515 13.3508 5.06942 12.7159 4.96276C12.7201 4.95418 12.7287 4.9499 12.7373 4.9499Z" fill="white"/>
<path d="M15.1716 5.51133C16.8583 6.31093 18.1656 7.73821 18.8144 9.48847C19.1701 10.4185 19.3201 11.3742 19.2773 12.3599C19.2382 13.3971 18.9761 14.4136 18.5086 15.3403C18.0412 16.267 17.3796 17.082 16.5687 17.7299C15.614 18.4916 14.4866 19.0068 13.2859 19.2299C12.9816 19.2899 12.6687 19.3028 12.343 19.2642C13.3844 19.157 14.3359 18.8785 15.2016 18.4242C16.6549 17.6825 17.805 16.4582 18.4544 14.9613C18.5316 14.6185 18.6216 14.297 18.7244 13.9885C18.7459 13.9285 18.7587 13.8685 18.7673 13.817C18.7673 13.7528 18.7887 13.6928 18.8144 13.6413C18.853 13.5642 18.8744 13.4828 18.8744 13.397C18.8744 13.1999 18.8916 12.9942 18.9173 12.7842C18.9182 12.7767 18.921 12.7696 18.9255 12.7636C18.9301 12.7576 18.9361 12.7529 18.943 12.7499C18.9524 12.7452 18.9626 12.7423 18.973 12.7413C19.0373 12.7413 19.0716 12.7156 19.0759 12.6728C19.1949 11.4871 19.009 10.2907 18.5359 9.19704L18.2744 8.65276C18.0428 8.14994 17.7348 7.6859 17.3616 7.27704C17.2566 7.16096 17.1336 7.06256 16.9973 6.98561C16.8301 6.89561 16.6759 6.77561 16.5259 6.63418C16.4316 6.54847 16.3287 6.46276 16.2216 6.37704L15.8873 6.13704C15.7693 6.05466 15.6477 5.97745 15.523 5.90561C15.5101 5.90133 15.5059 5.90561 15.4973 5.91418L15.4887 5.93133C15.4844 5.94418 15.4887 5.94847 15.5016 5.95704C15.6087 5.9999 15.7116 6.06847 15.8016 6.15847C15.8101 6.16704 15.8101 6.17133 15.8016 6.1799L15.7887 6.19704C15.7801 6.20561 15.7716 6.20561 15.763 6.19704C15.5896 6.07329 15.4061 5.96434 15.2144 5.87133C15.2088 5.87586 15.2043 5.88176 15.2016 5.88847C15.2016 5.90133 15.2016 5.9099 15.2101 5.92276L15.6473 6.28276L16.093 6.60847C16.3116 6.77133 16.4873 6.96847 16.6244 7.1999C16.2553 6.8601 15.8484 6.56386 15.4116 6.31704C14.716 5.8464 13.9382 5.51058 13.1187 5.32704C12.8701 5.26276 12.6559 5.2199 12.4759 5.1899C11.687 5.0693 10.8854 5.05632 10.093 5.15133L10.9587 5.04418C10.9844 5.0399 11.0016 5.02704 11.023 5.0099C11.0327 4.99797 11.0452 4.9886 11.0594 4.98263C11.0736 4.97665 11.0891 4.97424 11.1044 4.97561C11.2759 4.99276 11.443 5.00133 11.6144 4.99704C11.7859 4.99704 11.9701 5.0099 12.1587 5.0399C12.6087 5.11704 13.0416 5.21561 13.4616 5.3399C13.5259 5.35704 13.5901 5.36133 13.6587 5.35276C13.7273 5.34847 13.8001 5.35704 13.873 5.38704C14.0787 5.47704 14.2801 5.54133 14.473 5.57133C14.5201 5.57561 14.5673 5.56704 14.6101 5.53704C14.6273 5.5199 14.653 5.51561 14.6744 5.52418C14.8544 5.5799 15.0173 5.57561 15.1716 5.51133ZM8.18585 5.65704C8.19014 5.67847 8.20728 5.69133 8.233 5.69561C8.15585 5.74704 8.07014 5.78133 7.98442 5.80704C7.95871 5.81561 7.95442 5.80704 7.97585 5.7899C8.03585 5.7299 8.10442 5.68704 8.19014 5.65704H8.18585Z" fill="white"/>
<path d="M18.2744 8.65276C18.1459 8.56276 18.0216 8.40847 17.893 8.19847C17.8073 8.05704 17.5973 7.7999 17.2587 7.42276C17.2287 7.38847 17.1987 7.38847 17.173 7.43133C17.1666 7.44019 17.1582 7.4475 17.1486 7.45269C17.1389 7.45789 17.1282 7.46084 17.1173 7.46133C17.0744 7.4699 17.0573 7.49133 17.0744 7.53847C17.1001 7.61133 17.0959 7.66704 17.0487 7.68847L16.6244 7.1999C16.4873 6.96847 16.3116 6.77133 16.093 6.60847L15.6473 6.28276L15.2101 5.92276C15.2046 5.91922 15.2006 5.91369 15.199 5.90732C15.1974 5.90094 15.1983 5.8942 15.2016 5.88847C15.2043 5.88176 15.2088 5.87586 15.2144 5.87133L15.2273 5.87133C15.4116 5.96561 15.5916 6.07276 15.763 6.20133C15.7716 6.20561 15.7801 6.20561 15.7887 6.19704L15.8016 6.1799C15.8101 6.17133 15.8101 6.16704 15.8016 6.15847C15.7116 6.06847 15.6087 5.9999 15.5016 5.95704C15.4887 5.94847 15.4844 5.94418 15.4887 5.93133L15.4973 5.91418C15.5059 5.90133 15.5101 5.90133 15.523 5.90561C15.7687 6.04275 16.0024 6.20046 16.2216 6.37704C16.3287 6.46276 16.4316 6.54847 16.5259 6.63418C16.6759 6.77561 16.8301 6.89133 16.9973 6.98561C17.1344 7.06276 17.2544 7.16133 17.3616 7.27704C17.7301 7.6799 18.0344 8.13847 18.2744 8.64847L18.2744 8.65276Z" fill="white"/>
<path d="M16.6244 7.1999L17.053 7.68847L17.7687 8.63133L17.8501 8.89704V8.9699L17.7944 9.13704C17.2679 8.00002 16.4448 7.02587 15.4116 6.31704C15.8187 6.54418 16.2259 6.8399 16.6244 7.1999ZM9.37728 6.92133C9.39442 6.99418 9.39442 7.04133 9.37728 7.06704C9.36652 7.06114 9.35498 7.05681 9.343 7.05418C9.31728 7.05418 9.30871 7.06276 9.32157 7.08847C9.36014 7.16133 9.41585 7.23418 9.48871 7.30276C9.63095 7.62047 9.85228 7.8964 10.1316 8.10418C10.1659 8.10418 10.1787 8.11704 10.1787 8.14704C10.1787 8.16847 10.1787 8.18133 10.1659 8.19418L10.1616 8.1599C10.1616 8.13418 10.1444 8.12133 10.1187 8.12561C10.0887 8.1299 10.0801 8.14276 10.0887 8.16418C9.673 7.84704 9.15871 7.35847 9.12871 6.83561C9.12871 6.81418 9.13728 6.8099 9.15871 6.82276C9.23585 6.87418 9.30871 6.90847 9.37728 6.92133Z" fill="white"/>
<path d="M9.37728 6.92133C9.70299 7.12276 9.913 7.24704 10.0116 7.29418C10.585 7.55503 11.1859 7.75054 11.803 7.87704C12.3001 7.9799 12.8916 8.00561 13.423 8.06561C13.4616 8.06561 13.5087 8.08704 13.5559 8.12133L13.4273 8.16418H12.9816C12.7116 8.14276 12.4544 8.09133 12.1844 8.08704C12.0216 8.08704 11.8544 8.0699 11.683 8.03561C10.9606 7.90809 10.2624 7.66955 9.613 7.32847C9.61004 7.32954 9.60736 7.33124 9.60514 7.33347C9.60291 7.33569 9.60121 7.33837 9.60014 7.34133C9.59157 7.35418 9.59585 7.36704 9.60442 7.37561C9.66442 7.43561 9.733 7.48276 9.81871 7.52133C10.6116 7.86418 11.4387 8.0999 12.3044 8.22847C12.3087 8.29276 12.3473 8.33133 12.4201 8.34847C12.4247 8.3497 12.429 8.35185 12.4326 8.3548C12.4363 8.35775 12.4394 8.36143 12.4416 8.36561C12.4436 8.37054 12.4442 8.37592 12.4435 8.38119C12.4427 8.38647 12.4406 8.39144 12.4373 8.39561L12.3044 8.55847L12.0344 8.70847L11.0916 9.18847L11.113 9.0599L11.7387 8.74276C11.8673 8.68276 11.9273 8.59276 12.0173 8.49847C12.0259 8.4899 12.0259 8.48133 12.0173 8.47704C12.0087 8.46847 12.0044 8.46847 11.9959 8.47704C11.6959 8.74276 11.2844 8.90561 10.9159 9.07704C10.8944 9.0899 10.8901 9.10704 10.903 9.13704C10.8173 9.19704 10.7101 9.19704 10.5901 9.13704C10.6159 9.09418 10.5816 9.06418 10.4873 9.05133C10.453 8.96561 10.3844 8.92276 10.2944 8.93133C10.2687 8.93133 10.243 8.93133 10.2216 8.92276L10.093 8.8799H10.4487L10.7359 8.9099C10.8301 8.91847 10.9244 8.90561 11.0101 8.86704C11.2373 8.76847 11.4687 8.64847 11.6959 8.50704C11.7259 8.52418 11.7473 8.5199 11.7687 8.49847C11.7944 8.46418 11.7859 8.45133 11.743 8.44704H11.6701C11.6444 8.44704 11.6273 8.4299 11.6273 8.40418C11.6261 8.37905 11.6203 8.35436 11.6101 8.33133C11.6046 8.31821 11.5949 8.30731 11.5824 8.30033C11.57 8.29335 11.5557 8.29068 11.5416 8.29276C11.4488 8.30049 11.356 8.3062 11.263 8.3099C11.1687 8.31418 11.0787 8.33133 10.993 8.35704C10.7873 8.42561 10.5901 8.48133 10.4016 8.52847C10.3373 8.54133 10.273 8.57133 10.2001 8.62276C10.1144 8.68276 10.0159 8.7299 9.90014 8.76418C9.89263 8.76649 9.8857 8.77035 9.87979 8.77552C9.87388 8.78069 9.86913 8.78705 9.86585 8.79418C9.84014 8.84561 9.84871 8.86704 9.89157 8.85418C9.84871 8.87133 9.81014 8.87561 9.78014 8.86704C9.76839 8.86427 9.75785 8.85776 9.75012 8.84848C9.74239 8.83921 9.73789 8.82767 9.73728 8.81561C9.73201 8.77307 9.73619 8.72988 9.74953 8.68914C9.76286 8.6484 9.78502 8.6111 9.81442 8.5799C9.82018 8.57439 9.82469 8.56772 9.82764 8.56033C9.8306 8.55294 9.83194 8.54499 9.83157 8.53704L9.823 8.51561C9.81873 8.50861 9.81285 8.50274 9.80585 8.49847H9.763C9.87014 8.46418 9.97728 8.4299 10.0759 8.39133C10.1916 8.34847 10.2216 8.28418 10.1701 8.20276V8.19418C10.1771 8.18102 10.18 8.16614 10.1787 8.15133C10.1787 8.11704 10.1659 8.10418 10.1359 8.10847C10.1274 8.10957 10.1188 8.10812 10.1111 8.1043C10.1035 8.10049 10.0972 8.09448 10.093 8.08704C9.82921 7.88091 9.62021 7.61304 9.48442 7.30704C9.53157 7.26418 9.49728 7.17847 9.38157 7.06704C9.39442 7.04133 9.39442 6.99418 9.38157 6.92133L9.37728 6.92133Z" fill="white"/>
<path d="M12.9816 8.16418L13.2173 8.18561C13.2387 8.18561 13.2473 8.19847 13.243 8.2199L13.2301 8.26704C13.2259 8.29276 13.2087 8.30133 13.1873 8.30133L12.3044 8.22847C11.4387 8.0999 10.6116 7.86847 9.81871 7.52133C9.733 7.48276 9.66442 7.43561 9.60442 7.37561C9.59585 7.36704 9.59157 7.35418 9.60014 7.34133C9.60014 7.33276 9.60442 7.32847 9.613 7.32847L9.63014 7.32847C10.2601 7.66276 10.9459 7.89847 11.683 8.03561C11.8544 8.0699 12.0216 8.08704 12.1844 8.08704C12.4544 8.09133 12.7116 8.14276 12.9816 8.16418Z" fill="white"/>
<path d="M18.2744 8.65276L18.5316 9.19704C18.4887 9.2099 18.4459 9.2099 18.4116 9.19704L18.0516 8.67418C18.044 8.6641 18.0344 8.6558 18.0232 8.64987C18.0121 8.64394 17.9999 8.64054 17.9873 8.6399L17.7687 8.63133L17.0487 7.68847C17.0916 7.66276 17.1001 7.61133 17.0744 7.53847C17.0573 7.49561 17.0744 7.4699 17.1173 7.46133C17.1387 7.46133 17.1601 7.44847 17.173 7.43133C17.1987 7.38847 17.2287 7.38847 17.2587 7.42276C17.6016 7.7999 17.8116 8.05704 17.893 8.19418C18.0216 8.40847 18.1501 8.56276 18.2744 8.65276Z" fill="white"/>
<path d="M14.2544 7.81704C14.2759 7.90704 14.2673 8.0099 14.2373 8.11704C14.1516 8.29276 14.0916 8.48561 14.0659 8.68276C14.0659 8.69133 14.0659 8.69561 14.0573 8.69133H14.0316C14.0187 8.69133 14.0144 8.68275 14.0187 8.6699L14.1387 8.02704C14.1402 8.02304 14.1402 8.01863 14.1386 8.01467C14.137 8.0107 14.134 8.00748 14.1301 8.00561L14.0873 8.00133C14.0744 7.99704 14.0701 8.00133 14.0659 8.01418C14.0359 8.20276 14.0016 8.38704 13.963 8.56275C13.9373 8.6699 13.9716 8.80276 14.0573 8.9699C14.0294 9.06292 14.0339 9.16265 14.0701 9.25276C14.0744 9.27847 14.0787 9.31276 14.0701 9.35561C13.9116 9.32561 13.813 9.22704 13.783 9.06418C13.7336 8.81772 13.7449 8.56297 13.8158 8.32183C13.8868 8.08069 14.0152 7.86039 14.1901 7.6799C14.2073 7.65418 14.2287 7.65847 14.2416 7.68418C14.2544 7.7099 14.2587 7.75276 14.2544 7.81276V7.81704Z" fill="white"/>
<path d="M15.1673 8.9099L15.2016 8.92276C15.1986 8.97856 15.1793 9.03225 15.1459 9.07704C15.1223 9.10346 15.1057 9.13529 15.0975 9.16969C15.0893 9.20409 15.0897 9.23998 15.0987 9.27418L15.1887 9.68133C15.2316 9.85276 15.2916 9.95133 15.373 9.96418C15.3601 10.0799 15.4159 10.2042 15.5359 10.3328C15.5059 10.3328 15.4887 10.3413 15.4801 10.3542C15.4716 10.367 15.4716 10.3799 15.4801 10.3885C15.5144 10.427 15.553 10.4613 15.5659 10.5085C15.6773 10.8256 15.7801 11.1385 15.8659 11.4513C15.8737 11.4769 15.8733 11.5042 15.8649 11.5296C15.8564 11.5549 15.8403 11.577 15.8187 11.5928C15.5873 11.7642 15.6559 11.9485 15.6816 12.1928C15.7373 12.6856 15.823 13.1528 15.9387 13.5942C15.9816 13.7785 16.0373 13.9842 16.183 14.117C16.2559 14.1813 16.3116 14.2542 16.3587 14.3313C16.3673 14.3442 16.3673 14.357 16.3673 14.3699C16.3673 14.3828 16.363 14.3956 16.3544 14.4042C16.1273 14.687 15.763 15.1242 15.8273 15.4928C15.8308 15.506 15.8311 15.52 15.8281 15.5334C15.8251 15.5468 15.819 15.5594 15.8101 15.5699C15.673 15.737 15.3773 15.6899 15.2101 15.6128L15.5016 15.5828C15.5231 15.5813 15.5441 15.5753 15.5631 15.5652C15.5822 15.5551 15.5989 15.5411 15.6122 15.5242C15.6256 15.5072 15.6352 15.4876 15.6405 15.4667C15.6458 15.4458 15.6466 15.424 15.643 15.4028C15.5873 15.0728 15.9301 14.6142 16.1359 14.3699C16.1498 14.353 16.1574 14.3318 16.1574 14.3099C16.1574 14.288 16.1498 14.2668 16.1359 14.2499L15.8616 13.907C15.8014 13.7871 15.7554 13.6605 15.7244 13.5299C15.5825 12.9427 15.4879 12.3451 15.4416 11.7428L15.673 11.4685C15.6859 11.4513 15.6901 11.4256 15.6859 11.4042L15.1973 9.91704L15.0687 9.51847L14.8501 8.8499C14.8459 8.83896 14.839 8.82927 14.83 8.82177C14.821 8.81426 14.8102 8.80919 14.7987 8.80704C14.7026 8.78338 14.6159 8.73107 14.5501 8.65704L14.2373 8.11704C14.2673 8.0099 14.2759 7.90704 14.2544 7.81704C14.2934 7.77889 14.3402 7.74965 14.3916 7.73133C14.4173 7.72704 14.4301 7.73561 14.4301 7.76133C14.4192 8.00229 14.474 8.24169 14.5888 8.45385C14.7035 8.66601 14.8739 8.84292 15.0816 8.96561C15.0863 8.9694 15.0919 8.97212 15.0978 8.9736C15.1037 8.97507 15.1099 8.97528 15.1159 8.97418C15.1459 8.97418 15.1587 8.94847 15.1673 8.9099Z" fill="white"/>
<path d="M14.2373 8.11704L14.5501 8.65704L14.4601 8.6699C14.4468 8.67144 14.4341 8.67667 14.4235 8.68499C14.4129 8.69331 14.4048 8.70441 14.4001 8.71704C14.3886 8.7507 14.3678 8.78042 14.3401 8.80276C14.3309 8.81041 14.3241 8.82049 14.3203 8.83185C14.3165 8.8432 14.3159 8.85539 14.3187 8.86704L14.323 8.88418C14.3401 8.9099 14.3359 8.93561 14.3144 8.95276C14.203 9.0599 14.1173 9.06418 14.0573 8.9699C13.9716 8.80276 13.9373 8.6699 13.963 8.56275C14.0059 8.38704 14.0359 8.20276 14.0659 8.01418C14.0659 8.00133 14.0744 7.99704 14.0873 8.00133L14.1301 8.00561L14.1386 8.01467L14.1387 8.02276L14.0187 8.6699C14.0187 8.68275 14.0187 8.68704 14.0316 8.69133H14.0573C14.0616 8.69133 14.0659 8.69133 14.0659 8.68276C14.0916 8.48561 14.1516 8.29704 14.2373 8.11704Z" fill="white"/>
<path d="M10.1659 8.19418L10.1659 8.20276C10.0716 8.29704 9.98157 8.35704 9.89585 8.37418C8.76871 8.64847 7.75299 9.14561 6.84871 9.86133H6.75014C6.71585 9.86133 6.70299 9.87847 6.70728 9.91276C6.72014 9.99847 6.67299 10.067 6.57014 10.1056C6.56718 10.1067 6.5645 10.1084 6.56228 10.1106C6.56006 10.1128 6.55835 10.1155 6.55728 10.1185V10.1399C6.57871 10.1528 6.57442 10.157 6.55728 10.1528H6.50157C6.48871 10.1613 6.48871 10.1742 6.50157 10.1956L6.23157 10.337C6.21106 10.3527 6.1878 10.3643 6.16299 10.3713C6.13299 10.3799 6.12871 10.3713 6.15014 10.3456C6.68452 9.76156 7.32056 9.27944 8.02728 8.92276C8.53299 8.66561 8.95299 8.48561 9.27871 8.39561C9.53585 8.32704 9.80585 8.24561 10.093 8.16418C10.0801 8.14276 10.093 8.1299 10.1187 8.12561C10.1444 8.12561 10.1616 8.13418 10.1616 8.1599L10.1659 8.19418Z" fill="white"/>
<path d="M13.5559 8.12133C13.663 8.12133 13.7101 8.17276 13.6973 8.27561C13.6759 8.45561 13.6673 8.62704 13.6716 8.79847C13.6716 8.95704 13.7401 9.15418 13.8687 9.39847C13.8859 9.42418 13.8773 9.44133 13.843 9.44133C13.7888 9.44733 13.734 9.43844 13.6844 9.41561C13.6673 9.32133 13.6244 9.24418 13.5559 9.17133C13.5385 8.95348 13.4834 8.7403 13.393 8.54133C13.3244 8.38704 13.3373 8.25847 13.4273 8.16418L13.5559 8.12133Z" fill="white"/>
<path d="M12.9816 8.16418H13.4273C13.3373 8.25847 13.3244 8.38704 13.393 8.54133C13.4916 8.76418 13.5473 8.97418 13.5601 9.17133C13.385 9.02734 13.2319 8.85839 13.1059 8.6699C13.0759 8.62704 13.0287 8.63133 12.9559 8.68704C12.9483 8.68474 12.9414 8.68088 12.9355 8.67571C12.9296 8.67054 12.9248 8.66418 12.9216 8.65704C12.8744 8.51561 12.793 8.44276 12.6773 8.4299C12.6516 8.4299 12.6259 8.4299 12.6044 8.44704C12.5101 8.50704 12.4073 8.54561 12.3044 8.55847L12.4373 8.39561C12.4406 8.39144 12.4427 8.38647 12.4435 8.38119C12.4442 8.37592 12.4436 8.37054 12.4416 8.36561C12.4394 8.36143 12.4363 8.35775 12.4326 8.3548C12.429 8.35185 12.4247 8.3497 12.4201 8.34847C12.3473 8.33133 12.3087 8.29276 12.3044 8.22847L13.1873 8.30133C13.2087 8.30133 13.2259 8.29276 13.2301 8.26704L13.243 8.2199C13.2473 8.19847 13.243 8.1899 13.2173 8.18561L12.9816 8.16418Z" fill="white"/>
<path d="M10.1701 8.20276C10.2216 8.28418 10.1916 8.34418 10.0759 8.39133C9.973 8.4299 9.87014 8.46418 9.763 8.49418L8.88442 8.78561C8.49014 8.93133 8.19871 9.06418 8.01014 9.18418L7.003 9.8099C6.95749 9.84133 6.90398 9.85917 6.84871 9.86133C7.74273 9.15015 8.78117 8.64263 9.89157 8.37418C9.97728 8.35704 10.0716 8.29704 10.1701 8.20276Z" fill="white"/>
<path d="M11.7001 8.50704C11.1987 8.52847 10.7273 8.61418 10.2859 8.77276C10.2301 8.79418 10.2301 8.81561 10.2859 8.83704C10.3287 8.85847 10.3887 8.87133 10.4487 8.8799H10.0887C10.0264 8.85425 9.9584 8.84538 9.89157 8.85418C9.84871 8.86704 9.84014 8.84561 9.86585 8.79418C9.86913 8.78705 9.87388 8.78069 9.87979 8.77552C9.8857 8.77035 9.89263 8.76649 9.90014 8.76418C10.0159 8.7299 10.1144 8.67847 10.2001 8.62276C10.2687 8.57561 10.3373 8.54133 10.4016 8.52418C10.5901 8.48133 10.7873 8.42561 10.993 8.35704C11.0787 8.33133 11.1687 8.31418 11.263 8.31418C11.356 8.30906 11.4489 8.30192 11.5416 8.29276C11.5716 8.29276 11.593 8.30133 11.6101 8.33133C11.6187 8.35276 11.6273 8.37418 11.6273 8.40418C11.6273 8.4299 11.6444 8.44704 11.6701 8.44704H11.743C11.7859 8.44704 11.7944 8.46418 11.7687 8.49847C11.7473 8.5199 11.7259 8.52418 11.7001 8.50704ZM12.9216 8.65704C12.8835 8.64825 12.8439 8.64825 12.8059 8.65704C12.2084 8.91664 11.6311 9.22034 11.0787 9.56561C10.4952 9.91906 9.95567 10.3406 9.47157 10.8213C8.77116 11.5078 8.23876 12.3467 7.91585 13.2728C7.77442 13.6928 7.68442 14.1728 7.65014 14.717C7.62871 14.987 7.66728 15.257 7.70157 15.5313C7.68606 15.5357 7.67153 15.543 7.65871 15.5528C7.603 15.5913 7.56014 15.587 7.53014 15.5442C7.51628 15.5224 7.50885 15.4971 7.50871 15.4713C7.48728 15.3042 7.45728 15.1499 7.46157 14.9785C7.47442 14.4685 7.50442 13.9628 7.54728 13.4528C7.56014 13.3242 7.58585 13.2085 7.62014 13.0928L7.74014 12.7456C7.79157 12.7499 7.83442 12.7456 7.87728 12.7328C7.88907 12.73 7.90013 12.7247 7.90973 12.7173C7.91934 12.7099 7.92727 12.7006 7.933 12.6899C8.34014 11.8113 8.91014 11.057 9.63871 10.4228C10.0073 10.1056 10.3844 9.80561 10.7744 9.53133C11.2887 9.2699 11.6016 9.08561 11.7173 8.97847L12.0344 8.70847L12.3044 8.55847C12.4073 8.54561 12.5101 8.50704 12.6044 8.44704C12.6259 8.43418 12.6473 8.42561 12.6773 8.4299C12.793 8.44276 12.8744 8.51561 12.9216 8.65704Z" fill="white"/>
<path d="M15.8873 8.68276C16.0287 8.84561 16.1059 8.98276 16.1187 9.09847C16.1401 9.28704 16.1316 9.55276 16.093 9.90847C16.0844 9.9899 16.0844 10.1528 16.093 10.4013C16.0973 10.6156 16.1787 10.7356 16.333 10.7742C16.4144 10.8042 16.5087 10.8256 16.6244 10.8385C16.6544 10.8428 16.6801 10.8556 16.7059 10.8728C16.7316 10.8899 16.7273 10.9028 16.6973 10.9028C16.454 10.9286 16.2087 10.8793 15.9944 10.7613C15.823 10.6628 15.673 10.517 15.5359 10.3328C15.4116 10.2042 15.3601 10.0799 15.373 9.96418L15.9301 10.5085C15.9516 10.5342 15.9644 10.5299 15.9559 10.4913C15.8916 10.1091 15.8744 9.72055 15.9044 9.33418C15.913 9.20561 15.883 9.06847 15.8487 8.94847C15.8453 8.93389 15.8378 8.92054 15.8273 8.9099C15.793 8.87561 15.7844 8.8799 15.7973 8.92704V8.96133C15.7844 8.99561 15.7673 9.00418 15.7373 8.98704C15.673 8.94418 15.6087 8.90133 15.5573 8.85847C15.5373 8.84076 15.5111 8.83153 15.4844 8.83276C15.4654 8.83397 15.4473 8.84151 15.433 8.85418C15.4073 8.87561 15.3816 8.8799 15.3559 8.86276C15.2916 8.8199 15.2401 8.84133 15.2016 8.92276L15.1673 8.9099L14.7559 8.55418C14.6701 8.48561 14.6873 8.45561 14.7944 8.4599C15.0644 8.47704 15.4501 8.4899 15.7116 8.60561L15.8873 8.68276Z" fill="white"/>
<path d="M11.113 9.0599C11.0487 9.10276 10.9759 9.12847 10.8987 9.13704C10.8901 9.10704 10.8944 9.0899 10.9159 9.08133C11.2844 8.90561 11.7001 8.74276 11.9959 8.47276H12.0173C12.0259 8.48133 12.0259 8.4899 12.0173 8.49847C11.9273 8.59276 11.8673 8.68276 11.7387 8.74276L11.113 9.0599Z" fill="white"/>
<path d="M11.7001 8.50704C11.4687 8.64847 11.2373 8.76418 11.0101 8.86704C10.9244 8.90561 10.8301 8.91847 10.7359 8.9099L10.4487 8.8799C10.3925 8.87415 10.3376 8.85969 10.2859 8.83704C10.2301 8.81561 10.2301 8.79418 10.2859 8.77276C10.7273 8.61418 11.1987 8.52847 11.7001 8.50704Z" fill="white"/>
<path d="M9.763 8.49418L9.80585 8.49418C9.81343 8.49855 9.81977 8.50478 9.82427 8.51228C9.82876 8.51978 9.83128 8.5283 9.83157 8.53704C9.83194 8.54499 9.8306 8.55294 9.82764 8.56033C9.82469 8.56772 9.82018 8.57439 9.81442 8.5799C9.78502 8.6111 9.76286 8.6484 9.74953 8.68914C9.73619 8.72988 9.73201 8.77307 9.73728 8.81561C9.73728 8.84133 9.75442 8.85847 9.78014 8.86704C9.81014 8.87561 9.84871 8.87133 9.89157 8.85418C9.95803 8.84402 10.026 8.85141 10.0887 8.87561L10.2173 8.92276C10.243 8.93133 10.2687 8.93561 10.2944 8.93133C10.3844 8.92276 10.453 8.96133 10.4873 9.04704L9.75871 8.98704C9.74502 8.98547 9.73115 8.98739 9.71841 8.99264C9.70567 8.99789 9.69447 9.00628 9.68585 9.01704L9.66871 9.03847L9.66442 9.05561C9.66442 9.06357 9.66758 9.0712 9.67321 9.07683C9.67884 9.08245 9.68647 9.08561 9.69442 9.08561L10.5901 9.13704C10.7101 9.19704 10.813 9.19704 10.903 9.13704C10.9759 9.12847 11.0487 9.10276 11.113 9.0599L11.0873 9.18847L10.993 9.23133H10.9716C10.959 9.23163 10.9469 9.23616 10.9373 9.24418C10.843 9.31704 10.6973 9.42418 10.4916 9.56133C10.3416 9.6599 10.213 9.73276 10.1059 9.76276L10.1144 9.71133C10.123 9.68133 10.1101 9.66847 10.0759 9.66847H9.99014C9.96628 9.66799 9.94284 9.66213 9.92157 9.65133L9.59157 9.50133C9.55298 9.48509 9.51691 9.46344 9.48442 9.43704C9.43299 9.39418 9.39871 9.38133 9.373 9.39847L9.19728 9.32133C9.16071 9.27107 9.13849 9.21181 9.133 9.1499C9.133 9.12418 9.12014 9.10704 9.09014 9.10704L8.97014 9.09847L9.14585 9.08133C9.25728 9.07276 9.26585 9.04276 9.16728 8.99133C9.06339 8.93704 8.96808 8.86773 8.88442 8.78561L9.763 8.49418Z" fill="white"/>
<path d="M15.3901 8.6999C15.3901 8.72561 15.373 8.74276 15.3344 8.75561C15.2315 8.71992 15.1312 8.67696 15.0344 8.62704C15.0173 8.61847 15.0087 8.6099 15.0044 8.60133C15.0044 8.59276 15.0216 8.58847 15.0601 8.59704C15.1726 8.62278 15.2829 8.65717 15.3901 8.6999Z" fill="white"/>
<path d="M17.7687 8.63133L17.983 8.6399C17.9963 8.6399 18.0094 8.643 18.0213 8.64895C18.0332 8.6549 18.0436 8.66354 18.0516 8.67418L18.4116 9.19704L18.5916 9.58276C18.6087 9.61704 18.6301 9.68561 18.6601 9.79704L18.7373 10.0028C18.7643 10.0577 18.7738 10.1196 18.7646 10.1801C18.7554 10.2406 18.7279 10.2969 18.6859 10.3413L18.5616 10.1742C18.5462 10.1543 18.5253 10.1394 18.5016 10.1313C18.4463 10.1144 18.3968 10.0827 18.3583 10.0396C18.3198 9.99656 18.2937 9.94381 18.283 9.88704C18.2573 9.77561 18.2101 9.68561 18.163 9.57847C18.1541 9.55748 18.1392 9.53959 18.1201 9.52704C18.0824 9.5069 18.0511 9.4765 18.0299 9.43934C18.0086 9.40219 17.9983 9.35979 18.0001 9.31704C18.0001 9.31276 18.0001 9.31704 18.0001 9.31704V9.32561C18.0044 9.36847 18.0001 9.41133 17.9873 9.45418C17.9787 9.49704 17.9916 9.5099 18.0301 9.48418C18.0387 9.4799 18.0473 9.48418 18.0516 9.49704C18.0516 9.51847 18.0516 9.53561 18.0387 9.54847C18.0179 9.58049 18.0061 9.61748 18.0044 9.65561L17.7901 9.13704L17.8501 8.9699C17.8577 8.9462 17.8577 8.92074 17.8501 8.89704L17.7644 8.63133L17.7687 8.63133Z" fill="white"/>
<path d="M13.5601 9.17133C13.6244 9.2399 13.6673 9.32133 13.6887 9.41561C13.3887 9.22704 13.1487 8.98704 12.9601 8.68704C13.0287 8.63133 13.0759 8.62704 13.1059 8.6699C13.2601 8.88847 13.4101 9.05561 13.5601 9.17133Z" fill="white"/>
<path d="M14.5501 8.65704C14.6144 8.7299 14.6959 8.77704 14.7987 8.80276C14.8244 8.81133 14.8416 8.82847 14.8501 8.8499L15.0687 9.51847C14.9144 9.49275 14.9016 9.29133 14.8244 9.17561L14.8116 9.16704L14.7901 9.17561C14.7644 9.18418 14.7559 9.19704 14.7644 9.21847L15.1544 10.4613C15.1623 10.4864 15.1623 10.5134 15.1544 10.5385L15.1201 10.6542L14.6316 9.16704C14.6355 9.13657 14.6303 9.1056 14.6166 9.07811C14.6028 9.05062 14.5812 9.02787 14.5544 9.01276C14.4259 8.93561 14.2201 9.06418 14.113 9.13704C14.1013 9.14365 14.0914 9.15292 14.0839 9.16408C14.0765 9.17525 14.0718 9.188 14.0701 9.20133V9.25276C14.0339 9.16265 14.0294 9.06292 14.0573 8.9699C14.1173 9.06418 14.203 9.0599 14.3144 8.95276C14.3359 8.93561 14.3401 8.9099 14.323 8.88418C14.321 8.87863 14.3195 8.87289 14.3187 8.86704C14.3159 8.85539 14.3165 8.8432 14.3203 8.83185C14.3241 8.82049 14.3309 8.81041 14.3401 8.80276C14.3678 8.78042 14.3886 8.7507 14.4001 8.71704C14.4054 8.70521 14.4138 8.695 14.4243 8.68746C14.4349 8.67993 14.4472 8.67535 14.4601 8.67418L14.5501 8.65704Z" fill="white"/>
<path d="M15.8873 8.68276C16.1616 8.75561 16.3073 8.94847 16.3159 9.25276C16.3159 9.43276 16.2987 9.7499 16.2559 10.2128C16.2473 10.3413 16.273 10.5299 16.333 10.7742C16.1787 10.7356 16.0973 10.6113 16.093 10.4013C16.0844 10.1528 16.0844 9.9899 16.093 9.90847C16.1316 9.55276 16.1359 9.28704 16.1187 9.09847C16.1059 8.98276 16.033 8.84133 15.8873 8.68276Z" fill="white"/>
<path d="M12.0344 8.70847C11.923 8.79847 11.8201 8.88847 11.7216 8.97847C11.6016 9.08561 11.2887 9.2699 10.7787 9.53133C10.8173 9.46704 10.8816 9.40276 10.9759 9.35133C11.0101 9.33418 11.0187 9.29133 10.993 9.23133L11.0873 9.18847L12.0344 8.70847Z" fill="white"/>
<path d="M8.88442 8.78561C8.97014 8.87133 9.06442 8.93561 9.16728 8.99133C9.26585 9.04276 9.25728 9.07704 9.14585 9.08133L8.97442 9.09847C8.86728 9.14561 8.76014 9.18418 8.64442 9.14133C8.55269 9.10481 8.45103 9.10177 8.35728 9.13276C8.14728 9.20133 7.97157 9.29133 7.82157 9.40704C7.66299 9.53133 7.68014 9.5699 7.87728 9.52704L8.75585 9.32561C8.86728 9.2999 9.01299 9.2999 9.19728 9.32561L9.373 9.39847C9.39442 9.49704 9.38157 9.55704 9.33871 9.59133C9.33871 9.54847 9.27871 9.53561 9.14157 9.54418C8.89728 9.46276 8.37442 9.60847 8.12157 9.67276L7.11014 9.93418C7.03728 9.95561 6.95157 9.99847 6.84442 10.067C6.74073 10.1341 6.62378 10.178 6.50157 10.1956C6.48871 10.1742 6.48871 10.1613 6.50157 10.1528C6.51967 10.1469 6.53918 10.1469 6.55728 10.1528C6.57442 10.1528 6.57871 10.1528 6.55728 10.1399V10.1185C6.55728 10.1099 6.56157 10.1056 6.57014 10.1056C6.67299 10.0628 6.72014 10.0028 6.70728 9.91276C6.69871 9.87847 6.71585 9.86133 6.75014 9.86133H6.84871C6.89157 9.86133 6.943 9.84418 7.003 9.8099L8.01014 9.18418C8.19871 9.06418 8.49014 8.92704 8.88442 8.78561Z" fill="white"/>
<path d="M15.373 9.96418C15.2873 9.95133 15.2273 9.85704 15.1887 9.68133L15.0987 9.27418C15.0897 9.23998 15.0893 9.20409 15.0975 9.16969C15.1057 9.13529 15.1223 9.10346 15.1459 9.07704C15.1759 9.04276 15.193 8.99133 15.2016 8.92276C15.2401 8.84133 15.2873 8.8199 15.3559 8.86276C15.3816 8.8799 15.4073 8.87561 15.433 8.85418C15.4473 8.84151 15.4654 8.83397 15.4844 8.83276C15.5144 8.83276 15.5359 8.84133 15.5573 8.85847L15.7373 8.98704C15.7673 9.00418 15.7844 8.99561 15.793 8.96133V8.92704C15.7844 8.88418 15.793 8.87561 15.8273 8.9099L15.8487 8.94418C15.883 9.07276 15.913 9.20561 15.9044 9.33418C15.8744 9.73276 15.8916 10.1185 15.9559 10.4913C15.9644 10.5299 15.9559 10.5342 15.9301 10.5085L15.373 9.96418Z" fill="white"/>
<path d="M15.3301 9.0599C15.313 9.1499 15.313 9.22704 15.3301 9.23133C15.343 9.23133 15.3687 9.15847 15.3816 9.06847C15.3987 8.97847 15.3987 8.90133 15.3816 8.89704C15.3687 8.89704 15.343 8.9699 15.3301 9.0599Z" fill="white"/>
<path d="M10.4873 9.04704C10.5816 9.06418 10.6159 9.09418 10.5901 9.13276L9.69014 9.0899C9.68499 9.08855 9.68028 9.08586 9.67652 9.08209C9.67275 9.07832 9.67006 9.07362 9.66871 9.06847C9.66608 9.06391 9.66469 9.05874 9.66469 9.05347C9.66469 9.0482 9.66608 9.04303 9.66871 9.03847L9.68585 9.01704C9.6938 9.00663 9.70426 8.99842 9.71626 8.99317C9.72825 8.98792 9.74139 8.98581 9.75442 8.98704L10.4873 9.04704ZM14.6316 9.17133C14.503 9.24418 14.3916 9.31704 14.2887 9.38561C14.2201 9.43276 14.1473 9.42418 14.0744 9.35561L14.0701 9.25276V9.20133C14.0718 9.188 14.0765 9.17525 14.0839 9.16408C14.0914 9.15292 14.1013 9.14365 14.113 9.13704C14.2201 9.06418 14.4259 8.93561 14.5544 9.01276C14.6101 9.04704 14.6401 9.09847 14.6316 9.16704V9.17133Z" fill="white"/>
<path d="M8.97014 9.09847L9.09442 9.10704C9.12014 9.10704 9.133 9.12418 9.133 9.1499C9.133 9.20133 9.15442 9.25704 9.19728 9.32133C9.051 9.29712 8.90163 9.29857 8.75585 9.32561L7.87728 9.52704C7.68014 9.5699 7.66299 9.52704 7.82157 9.40704C7.96728 9.29133 8.14728 9.20133 8.35728 9.13276C8.45052 9.1004 8.55219 9.10192 8.64442 9.13704C8.76014 9.1799 8.86728 9.14561 8.97014 9.09418L8.97014 9.09847ZM12.6644 9.19704C12.6001 9.19704 12.5359 9.24847 12.4673 9.35133C12.3959 9.35921 12.3279 9.38582 12.2701 9.42847C12.2503 9.44386 12.2354 9.46471 12.2273 9.48847C12.1989 9.56418 12.142 9.62573 12.0687 9.6599C11.983 9.70276 11.9144 9.75418 11.8459 9.81847C11.834 9.82908 11.8251 9.84249 11.8199 9.85748C11.8146 9.87246 11.8132 9.88853 11.8159 9.90418C11.8159 9.93418 11.8073 9.94704 11.7816 9.95561C11.759 9.96148 11.7393 9.97515 11.7259 9.99418C11.6659 10.0799 11.5973 10.1485 11.5673 10.247C11.5244 10.3842 11.4816 10.5256 11.4301 10.667C11.4044 10.7356 11.3873 10.8042 11.3873 10.8813C11.3873 10.9628 11.3744 11.0356 11.3659 11.1128C11.3173 11.5946 11.3654 12.0812 11.5073 12.5442L11.533 12.5356V12.5313L11.4773 12.2613C11.4644 12.197 11.4901 12.1713 11.5544 12.1885C11.7901 12.2442 11.9187 12.1499 11.9359 11.9099V11.8456C11.9266 11.7899 11.9295 11.7329 11.9444 11.6785C11.9616 11.6056 11.9401 11.5499 11.8716 11.5156C11.862 11.5106 11.8538 11.5033 11.8478 11.4943C11.8418 11.4853 11.8382 11.4749 11.8373 11.4642L11.8244 11.3785L11.7773 11.4042C12.0359 10.8392 12.3673 10.3104 12.763 9.83133C12.7716 9.82276 12.7759 9.82276 12.7673 9.83561L12.3216 10.5985C12.2446 10.6494 12.1871 10.7249 12.1587 10.8128C12.1501 10.8352 12.137 10.8556 12.1201 10.8728C12.0944 10.8987 12.0761 10.9311 12.0671 10.9665C12.0581 11.0019 12.0586 11.0391 12.0687 11.0742C12.0687 11.0913 12.0687 11.1042 12.0473 11.1085C12.0087 11.1213 11.9873 11.1513 11.9873 11.1942C11.9873 11.2285 11.9744 11.2542 11.9487 11.2756C11.931 11.2885 11.9174 11.3064 11.9098 11.327C11.9022 11.3476 11.9008 11.37 11.9059 11.3913C11.9129 11.4239 11.9293 11.4537 11.953 11.477C12.013 11.537 12.0259 11.6142 11.983 11.7042C11.9761 11.7164 11.9717 11.73 11.9703 11.744C11.9688 11.758 11.9702 11.7722 11.9744 11.7856C11.9916 11.8285 12.0044 11.8885 12.0173 11.957C12.0387 12.0813 12.1116 12.1285 12.2316 12.0985C12.2681 12.1196 12.3094 12.1314 12.3516 12.1328C12.7073 12.0728 13.063 11.9999 13.423 11.9099C13.6424 11.8504 13.8685 11.8187 14.0959 11.8156C14.2587 11.8156 14.3873 11.8885 14.4816 12.0213C14.1816 11.9356 13.9587 11.9356 13.8087 12.0128C13.6801 11.987 13.5901 12.0128 13.5259 12.0985C13.4787 12.1542 13.4659 12.2356 13.4959 12.3385C13.5344 12.4713 13.5901 12.5956 13.6716 12.7028C13.6558 12.7232 13.6352 12.7395 13.6116 12.7499C13.5644 12.7499 13.5259 12.7328 13.5044 12.6856C13.4599 12.5869 13.4023 12.4946 13.333 12.4113C13.3185 12.3914 13.2971 12.3777 13.273 12.3728C12.9901 12.3256 12.8273 12.4499 12.7759 12.7456L11.863 12.7285L11.5201 12.7542C11.336 12.4963 11.2453 12.1834 11.263 11.867C11.263 11.8456 11.2587 11.837 11.2416 11.8328C11.2244 11.8328 11.2159 11.8242 11.2159 11.807L11.1816 11.4813C11.1816 11.0613 11.2887 10.6242 11.4987 10.1828L11.713 9.86133C11.7601 9.77561 11.7473 9.76276 11.6659 9.81847C11.3916 9.98561 11.1301 10.1999 10.8859 10.4613C10.7787 10.5042 10.7144 10.517 10.6887 10.5042C10.8816 10.3456 11.0701 10.1828 11.2459 10.0199C11.3616 9.91704 11.503 9.87418 11.6101 9.77561C11.6401 9.7499 11.6359 9.73704 11.593 9.74561C11.5373 9.75847 11.4816 9.7799 11.4301 9.81418C10.5347 10.4064 9.88681 11.3058 9.60871 12.3428C9.56585 12.4585 9.54871 12.5699 9.54871 12.677C9.54871 12.707 9.553 12.7113 9.57014 12.6856C9.63871 12.5913 9.66442 12.4713 9.64728 12.3428L10.0716 11.3399C10.0844 11.3913 10.0844 11.4385 10.0716 11.4856C10.065 11.509 10.0496 11.529 10.0287 11.5413C10.003 11.5542 9.99442 11.5842 9.99871 11.6142C10.0018 11.6402 9.99886 11.6666 9.99014 11.6913C9.87662 12.0233 9.84861 12.3785 9.90871 12.7242C9.84002 12.7486 9.76612 12.7545 9.69442 12.7413C9.60871 12.7242 9.56585 12.7585 9.56585 12.8485C9.553 13.1056 9.54442 13.3585 9.54442 13.6156C9.54442 13.7185 9.59585 13.937 9.71157 14.2713C9.68585 14.3313 9.65585 14.3485 9.62585 14.327C9.53574 14.0581 9.481 13.7786 9.463 13.4956L9.42871 13.2385C9.41585 13.1099 9.42871 12.9728 9.47157 12.827C9.47453 12.8154 9.47456 12.8032 9.47167 12.7915C9.46877 12.7799 9.46304 12.7691 9.45498 12.7602C9.44692 12.7513 9.43678 12.7445 9.42547 12.7405C9.41416 12.7364 9.40202 12.7353 9.39014 12.737C9.36014 12.737 9.33442 12.7328 9.32157 12.7113C9.55728 11.3399 10.5301 10.2128 11.7301 9.56561C12.0173 9.40704 12.3387 9.22275 12.6559 9.14561C12.6816 9.14133 12.6901 9.14561 12.6816 9.17133L12.6644 9.19704ZM15.0687 9.51847L15.1973 9.91704C15.163 10.1313 15.1973 10.3585 15.3087 10.5942C15.3173 10.6113 15.3173 10.6285 15.3087 10.6456C15.3001 10.6628 15.3001 10.6756 15.3087 10.6885L15.2659 10.8213C15.2594 10.846 15.246 10.8683 15.2273 10.8856C15.0044 11.0785 14.773 11.0999 14.5416 10.9628C14.5244 10.9499 14.5073 10.9542 14.4987 10.9756L14.4901 10.997L14.4944 11.0099C14.743 11.1385 15.0001 11.1385 15.2659 11.0185C15.274 11.0143 15.281 11.0083 15.2862 11.0008C15.2914 10.9933 15.2947 10.9847 15.2959 10.9756L15.3301 10.7656C15.373 10.7828 15.3987 10.8256 15.3987 10.8856C15.3987 11.0999 15.583 11.3142 15.4073 11.5156C15.3859 11.5413 15.3601 11.5456 15.3301 11.5285L14.9016 11.2499C14.8159 11.1942 14.7387 11.1899 14.6616 11.2328C14.6499 11.2396 14.6408 11.2501 14.6359 11.2628C14.6322 11.2739 14.6322 11.2859 14.6359 11.297C14.6401 11.327 14.6573 11.3399 14.6787 11.3313L14.9144 12.9385C14.9316 13.0328 14.9487 13.1228 14.9744 13.2085C15.0001 13.3242 14.9959 13.4228 14.9959 13.5342L14.9873 13.5428C14.9787 13.5428 14.9787 13.5428 14.9787 13.5342C14.9701 13.457 14.983 13.3885 14.9616 13.307C14.7687 12.6385 14.593 11.9656 14.4344 11.2885C14.4456 11.2326 14.4437 11.1748 14.4289 11.1198C14.414 11.0648 14.3865 11.014 14.3487 10.9713C14.3059 10.8599 14.2759 10.7356 14.2716 10.5942C14.3487 10.7099 14.443 10.7828 14.563 10.8085C14.743 10.8728 14.9273 10.877 15.1201 10.8342C15.1459 10.8256 15.1587 10.8085 15.163 10.7828C15.166 10.736 15.1506 10.6898 15.1201 10.6542L15.1587 10.5385C15.1666 10.5134 15.1666 10.4864 15.1587 10.4613L14.7644 9.21847C14.7559 9.19704 14.7644 9.1799 14.7901 9.17561L14.8116 9.16704L14.8244 9.17133C14.9016 9.29133 14.9101 9.49275 15.0687 9.51847Z" fill="white"/>
<path d="M12.6644 9.19704L12.8059 9.22704C12.8316 9.23133 12.8359 9.24418 12.8187 9.26133L12.5487 9.53133C12.2984 9.77379 12.1007 10.0652 11.968 10.3874C11.8353 10.7097 11.7703 11.0558 11.7773 11.4042L11.8244 11.3785C11.7997 11.4037 11.7808 11.4341 11.769 11.4674C11.7571 11.5007 11.7527 11.5361 11.7559 11.5713C11.7082 11.645 11.687 11.7326 11.6959 11.8199C11.6959 11.8328 11.7087 11.837 11.7301 11.837C11.7644 11.837 11.7944 11.8456 11.8159 11.867C11.743 11.8456 11.6873 11.867 11.6487 11.927C11.5973 11.7556 11.5673 11.5842 11.5716 11.4042C11.5716 10.5899 11.8716 9.90418 12.4673 9.34704C12.5359 9.24847 12.5959 9.19704 12.6644 9.19704Z" fill="white"/>
<path d="M18.4116 9.19704C18.4501 9.2099 18.4887 9.2099 18.5359 9.19704L18.6516 9.49704C19.0373 10.5385 19.183 11.597 19.0759 12.6728C19.0716 12.7156 19.033 12.737 18.973 12.7413C18.9259 12.7242 18.8873 12.7199 18.8701 12.7285C18.9173 12.1285 18.9001 11.5242 18.823 10.9242C18.797 10.7258 18.7511 10.5305 18.6859 10.3413C18.7289 10.2965 18.7569 10.2395 18.7661 10.1781C18.7753 10.1167 18.7652 10.0539 18.7373 9.99847C18.7076 9.93144 18.6819 9.86275 18.6601 9.79276C18.641 9.72301 18.6181 9.65434 18.5916 9.58704L18.4116 9.20133V9.19704ZM10.993 9.23133C11.0144 9.29133 11.0101 9.33418 10.9759 9.35133C10.8816 9.40704 10.8173 9.46704 10.7744 9.53133C10.3887 9.80561 10.003 10.1056 9.63871 10.4228C8.91633 11.0478 8.33494 11.8191 7.933 12.6856C7.92775 12.6971 7.92004 12.7073 7.91041 12.7154C7.90078 12.7236 7.88946 12.7295 7.87728 12.7328C7.83442 12.7499 7.79157 12.7499 7.74014 12.7456L7.72728 12.7456C7.88157 12.3728 8.05299 12.0428 8.24157 11.7599C8.75849 11.0051 9.38543 10.332 10.1016 9.76276C10.213 9.72847 10.3416 9.6599 10.4916 9.56133C10.6973 9.42418 10.843 9.31704 10.9373 9.24418C10.9469 9.23616 10.959 9.23163 10.9716 9.23133H10.993Z" fill="white"/>
<path d="M18.6859 10.3413C18.7501 10.5256 18.7973 10.7185 18.823 10.9242C18.9001 11.5242 18.9173 12.1242 18.8659 12.7285L18.4887 12.767L18.4759 12.7413C18.4587 12.7113 18.4459 12.7113 18.4416 12.7413C18.2634 13.6505 17.9018 14.5138 17.3787 15.2785C16.7443 16.1841 15.9165 16.9374 14.9551 17.4837C13.9937 18.03 12.9229 18.3556 11.8201 18.437C11.3059 18.4756 10.7916 18.4628 10.2816 18.4113C9.39871 18.317 8.56728 18.0685 7.77871 17.6699C7.76585 17.6613 7.75728 17.6656 7.74871 17.6742L7.74014 17.6913V17.6956C7.93299 17.8199 8.13871 17.9228 8.35299 17.9999C9.34728 18.3685 10.3759 18.5485 11.4387 18.5485C11.503 18.5485 11.6616 18.5356 11.9144 18.5056C12.8981 18.4336 13.8574 18.1652 14.7356 17.7162C15.6137 17.2671 16.393 16.6466 17.0273 15.8913C17.1001 15.9042 17.1644 15.8699 17.2201 15.7885L17.3401 15.617C17.4044 15.5442 17.4644 15.4542 17.5159 15.3513C17.5587 15.2656 17.6144 15.2613 17.6787 15.3213L17.7216 15.3728C17.7301 15.3985 17.7473 15.4156 17.773 15.4199C17.8544 15.4499 17.9016 15.5056 17.923 15.5956C17.8159 15.7199 17.7216 15.8528 17.6401 15.9942C17.5244 16.187 17.4387 16.3242 17.3787 16.397C16.3601 17.6888 14.9183 18.5797 13.3073 18.9128C13.1059 18.9556 12.8659 18.9985 12.5916 19.0413C12.463 19.0585 12.3473 19.0928 12.2359 19.1442C11.8373 19.3328 11.5287 19.0928 11.1387 19.0585C9.6389 18.914 8.21871 18.316 7.06728 17.3442C7.05669 17.3346 7.0483 17.3229 7.04269 17.3098C7.03708 17.2966 7.03439 17.2825 7.03479 17.2682C7.0352 17.2539 7.0387 17.2399 7.04505 17.2271C7.0514 17.2144 7.06045 17.2031 7.07157 17.1942C7.08761 17.1817 7.107 17.1742 7.12728 17.1728C7.20014 17.1685 7.26871 17.1985 7.333 17.2713C7.35014 17.2885 7.37585 17.297 7.39728 17.2928C7.423 17.2928 7.44871 17.297 7.47014 17.3142C7.81728 17.5628 8.19014 17.7299 8.58871 17.8199C10.2861 18.446 12.1501 18.4521 13.8516 17.837L14.0059 17.7685C14.8553 17.4395 15.6312 16.9456 16.2888 16.3152C16.9464 15.6848 17.4727 14.9304 17.8373 14.0956C17.893 14.0956 17.923 14.0785 17.923 14.0399C17.9273 14.0228 17.9359 14.0056 17.953 13.997C17.9775 13.9767 17.9971 13.9511 18.0104 13.9222C18.0238 13.8933 18.0305 13.8617 18.0301 13.8299C18.0311 13.8029 18.0384 13.7764 18.0516 13.7528C18.103 13.667 18.1459 13.5728 18.1716 13.4742L18.2659 13.187C18.3473 12.9599 18.3516 12.7242 18.2787 12.4842C18.4201 11.5199 18.3301 10.577 18.0044 9.65561C18.0044 9.61276 18.0173 9.57847 18.0387 9.54847C18.0437 9.54097 18.047 9.53252 18.0484 9.52366C18.0499 9.51481 18.0495 9.50574 18.0473 9.49704C18.0473 9.48418 18.0387 9.4799 18.0301 9.48418C17.9873 9.5099 17.9787 9.50133 17.9873 9.45847C17.9982 9.41217 18.0025 9.36455 18.0001 9.31704V9.32561C18.0001 9.41133 18.043 9.4799 18.1159 9.52704C18.1373 9.5399 18.1544 9.55704 18.163 9.57847C18.2101 9.68561 18.2573 9.77561 18.283 9.88704C18.3087 10.007 18.3816 10.0885 18.4973 10.1313C18.5273 10.1399 18.5487 10.1528 18.5616 10.1742L18.6859 10.3413Z" fill="white"/>
<path d="M12.4673 9.35133C12.1805 9.61032 11.952 9.92724 11.7969 10.2811C11.6417 10.635 11.5635 11.0178 11.5673 11.4042C11.5673 11.5842 11.5973 11.7599 11.653 11.927L11.6316 12.0385C11.6316 12.0685 11.6401 12.0813 11.6701 12.077C11.8244 12.0556 11.8716 11.9828 11.8159 11.8628C11.7917 11.8435 11.761 11.8342 11.7301 11.837C11.7087 11.837 11.7001 11.8328 11.6959 11.8199L11.6959 11.777C11.7216 11.8242 11.7601 11.8456 11.8116 11.8328C11.8416 11.8285 11.8544 11.8113 11.8544 11.7856C11.8759 11.6613 11.8416 11.5928 11.7559 11.5713C11.7527 11.5361 11.7571 11.5007 11.769 11.4674C11.7808 11.4341 11.7997 11.4037 11.8244 11.3785L11.8373 11.4642C11.8373 11.4856 11.8501 11.507 11.8716 11.5156C11.9401 11.5499 11.9616 11.6013 11.9444 11.6785C11.9274 11.7339 11.923 11.7925 11.9316 11.8499L11.9359 11.9099C11.9187 12.1499 11.7901 12.2442 11.5544 12.1885C11.4901 12.1713 11.4644 12.197 11.4773 12.2613L11.5373 12.5313L11.533 12.5356L11.5073 12.5442L11.503 12.5399C11.3378 12.0047 11.2982 11.4386 11.3873 10.8856C11.3873 10.8042 11.4044 10.7356 11.4301 10.667C11.4816 10.5256 11.5244 10.3842 11.5673 10.247C11.5973 10.1485 11.6616 10.0756 11.7259 9.9899C11.74 9.97246 11.7596 9.96037 11.7816 9.95561C11.8073 9.95133 11.8201 9.93418 11.8159 9.90418C11.8132 9.88853 11.8146 9.87246 11.8199 9.85748C11.8251 9.84249 11.834 9.82908 11.8459 9.81847C11.9101 9.75418 11.9873 9.70276 12.0687 9.6599C12.1459 9.62133 12.1973 9.56561 12.223 9.48847C12.2311 9.46471 12.246 9.44386 12.2659 9.42847C12.3301 9.38561 12.3944 9.35561 12.4673 9.35133Z" fill="white"/>
<path d="M10.1016 9.76276C9.38695 10.3323 8.76147 11.0055 8.24585 11.7599C8.05299 12.0428 7.88157 12.3728 7.73157 12.7456C7.67585 12.7542 7.663 12.7628 7.68871 12.767C7.62442 12.767 7.59442 12.7499 7.59442 12.7113L7.64585 12.5828C7.65871 12.5485 7.65442 12.5399 7.62442 12.5656C7.59366 12.5959 7.57275 12.6347 7.56442 12.677L7.48728 12.7628C7.43415 12.7612 7.38179 12.7496 7.333 12.7285C7.393 12.6642 7.43585 12.5913 7.45299 12.5099C7.20014 12.3985 6.94728 12.467 6.69871 12.707C6.35585 12.7585 6.00442 12.7585 5.64442 12.707C5.89638 12.6531 6.13803 12.5591 6.36014 12.4285C6.37577 12.4198 6.38831 12.4065 6.39599 12.3903C6.40368 12.3742 6.40613 12.3561 6.40299 12.3385V12.3128C6.40308 12.3068 6.40137 12.3009 6.39808 12.2959C6.39479 12.2908 6.39007 12.2869 6.38454 12.2846C6.379 12.2823 6.3729 12.2817 6.36702 12.2829C6.36115 12.2841 6.35576 12.287 6.35157 12.2913C6.27442 12.3428 6.20157 12.3813 6.13728 12.4156C5.73871 12.617 5.32299 12.7456 4.88585 12.8013C4.83014 12.8013 4.80014 12.7585 4.80014 12.6728C5.30585 12.5999 5.79871 12.437 6.27871 12.1885C6.21442 12.0342 6.14157 11.9528 6.06014 11.9442C5.58226 11.895 5.10731 11.8206 4.63728 11.7213C4.61585 11.7213 4.60299 11.7128 4.60299 11.6913C4.60248 11.6808 4.59955 11.6705 4.59442 11.6613C5.233 11.6013 5.69585 11.5156 5.983 11.4128C6.18442 11.3399 6.32585 11.297 6.40299 11.2842C6.30014 11.3099 6.25728 11.3699 6.27014 11.4642C6.27014 11.4685 6.27014 11.4728 6.26157 11.477C6.253 11.477 6.24871 11.4856 6.24871 11.4942L6.223 11.5113C6.19728 11.5285 6.19728 11.5456 6.223 11.5585C6.31728 11.6099 6.51871 11.6228 6.62585 11.657C6.763 11.6999 6.88299 11.6742 7.02442 11.6656L7.86014 11.7428C7.87585 11.7436 7.89153 11.7406 7.90576 11.7338C7.91998 11.7271 7.93229 11.7169 7.94157 11.7042L8.443 11.0056C8.52871 10.9413 8.61442 10.8428 8.68728 10.7056C8.56728 10.6413 8.45585 10.6328 8.35299 10.6799C8.15157 10.7656 7.95442 10.8599 7.753 10.9499C7.58585 11.0313 7.45299 11.0442 7.35014 10.9928C7.8952 10.7845 8.41785 10.5217 8.91014 10.2085C9.14585 10.037 9.32585 9.89133 9.44585 9.78418C9.463 9.76704 9.47157 9.74561 9.47157 9.7199C9.50585 9.69847 9.51442 9.66847 9.50585 9.63418C9.493 9.5999 9.48014 9.59561 9.463 9.62561C9.44677 9.64574 9.43508 9.66913 9.42871 9.69418C8.7198 10.2628 7.91999 10.7076 7.06299 11.0099C6.1756 11.3219 5.25277 11.522 4.31585 11.6056L4.02442 11.6356C3.95157 11.597 3.90014 11.5585 3.86585 11.5156C3.84871 11.4942 3.85728 11.4856 3.883 11.4813C5.85013 11.4137 7.75128 10.7551 9.33871 9.59133C9.38157 9.55704 9.39442 9.49704 9.373 9.39847C9.39442 9.38133 9.43299 9.3899 9.48442 9.43704C9.51871 9.46276 9.55728 9.48418 9.59157 9.50133L9.92157 9.65133C9.943 9.66418 9.96442 9.66847 9.99014 9.66847H10.0759C10.1101 9.66847 10.1187 9.68133 10.1187 9.71133L10.1016 9.76276Z" fill="white"/>
<path d="M11.9701 9.64704C12.0687 9.58276 12.1416 9.51847 12.1244 9.49704C12.1159 9.48418 12.0259 9.52276 11.9273 9.58276C11.8287 9.65133 11.7601 9.7199 11.773 9.73704C11.7816 9.75418 11.8716 9.71133 11.9701 9.65133V9.64704Z" fill="white"/>
<path d="M12.973 9.74561C12.7159 10.1442 12.4759 10.6199 12.2616 11.177C12.1759 11.3913 12.133 11.5928 12.1159 11.777C12.103 11.9056 12.163 11.9999 12.2359 12.0985C12.1073 12.1285 12.0387 12.0813 12.0216 11.9613L11.9787 11.7856C11.9732 11.7728 11.9703 11.758 11.9703 11.744C11.9703 11.73 11.9732 11.717 11.9787 11.7042C12.0216 11.6185 12.013 11.537 11.953 11.4728C11.9316 11.45 11.9167 11.4219 11.9101 11.3913C11.9016 11.3485 11.9101 11.3056 11.953 11.2756C11.9744 11.2542 11.9873 11.2285 11.9873 11.1985C11.9873 11.1556 12.0087 11.1213 12.0473 11.1085C12.0644 11.1042 12.0687 11.0913 12.0687 11.0742C12.0586 11.0391 12.0581 11.0019 12.0671 10.9665C12.0761 10.9311 12.0944 10.8987 12.1201 10.8728C12.1385 10.856 12.1531 10.8356 12.163 10.8128C12.2016 10.7099 12.2573 10.637 12.3216 10.5985C12.5179 10.3705 12.6889 10.1219 12.8316 9.85704C12.8444 9.83133 12.8401 9.81418 12.8144 9.81418L12.8059 9.80561C12.8016 9.79704 12.8059 9.79276 12.8144 9.78847C12.9259 9.75847 12.9859 9.58704 13.0887 9.50561C13.1316 9.46704 13.1401 9.47561 13.1101 9.52276L12.973 9.74561Z" fill="white"/>
<path d="M9.14157 9.54418C9.14157 9.55704 9.133 9.57418 9.12014 9.58704C9.10847 9.59786 9.0932 9.60397 9.07728 9.60418C8.14883 9.75271 7.24486 10.0266 6.39014 10.4185C6.37683 10.4185 6.36371 10.4154 6.35181 10.4094C6.3399 10.4035 6.32955 10.3948 6.32157 10.3842C6.31486 10.3738 6.31048 10.3621 6.30871 10.3499C6.30442 10.337 6.27871 10.3328 6.23157 10.337L6.50157 10.1999C6.62378 10.1822 6.74073 10.1384 6.84442 10.0713C6.95157 9.99847 7.03728 9.95561 7.11014 9.93418L8.12157 9.67704C8.37442 9.60847 8.89728 9.46276 9.14157 9.54418ZM9.47157 9.7199C9.46669 9.71278 9.46034 9.7068 9.45294 9.70237C9.44555 9.69793 9.43728 9.69514 9.42871 9.69418C9.43379 9.66948 9.44402 9.64611 9.45871 9.62561C9.48014 9.59561 9.49728 9.5999 9.50157 9.6299C9.51871 9.67275 9.50585 9.69847 9.47157 9.7199ZM12.3516 12.1285C12.3112 12.1277 12.2715 12.1174 12.2359 12.0985C12.163 11.9999 12.103 11.9099 12.1159 11.7813C12.1287 11.5928 12.1801 11.3956 12.2616 11.177C12.4759 10.6199 12.7116 10.1442 12.973 9.74561C13.0501 9.77133 13.1144 9.73275 13.1659 9.62561C13.1744 9.60847 13.183 9.60847 13.1916 9.62561L13.2173 9.66847L13.2216 9.68561V9.70275C12.8701 10.3028 12.6216 10.7485 12.4159 11.3228C12.3087 11.6142 12.2873 11.8799 12.3516 12.1328V12.1285Z" fill="white"/>
<path d="M10.6887 10.4999C10.4487 10.7613 10.243 11.0399 10.0716 11.3399L9.64728 12.3428C9.63442 12.3342 9.62157 12.3342 9.60871 12.3428C9.88573 11.3065 10.532 10.4072 11.4259 9.81418C11.4816 9.7799 11.533 9.75847 11.593 9.74561C11.6359 9.73704 11.6401 9.74561 11.6101 9.77561C11.4987 9.87418 11.3616 9.91704 11.2459 10.0199C11.0701 10.1828 10.8816 10.3456 10.6887 10.4999Z" fill="white"/>
<path d="M11.4987 10.1828C11.1243 10.4536 10.8105 10.7996 10.5773 11.1985C9.90014 12.3813 10.303 13.6628 11.0187 14.7342C11.3909 15.2902 11.808 15.8149 12.2659 16.3028C12.3001 16.3456 12.4073 16.4442 12.583 16.6028C12.6859 16.7013 12.7844 16.8085 12.8787 16.9242C12.8573 16.9628 12.8273 16.9799 12.7844 16.967C12.6344 16.7956 12.4801 16.6328 12.313 16.4742C12.1887 16.3628 12.0859 16.2599 11.9959 16.1613C11.8977 16.0511 11.7977 15.9425 11.6959 15.8356C11.6273 15.767 11.5673 15.6985 11.5073 15.6213C11.3359 15.407 11.1816 15.2056 11.0359 15.0128L10.4059 13.9842C10.3393 13.7354 10.2474 13.4942 10.1316 13.2642C10.0474 13.1149 9.98394 12.9549 9.943 12.7885C9.94728 12.7585 9.96871 12.7456 10.0073 12.7413C10.0155 12.7393 10.0231 12.7356 10.0298 12.7304C10.0364 12.7253 10.0419 12.7188 10.0459 12.7113C10.0518 12.6979 10.0533 12.6828 10.0501 12.6685C10.0073 12.0813 10.1444 11.5413 10.4573 11.0399C10.5816 10.8428 10.723 10.6499 10.8859 10.457C11.1301 10.1999 11.3916 9.98561 11.6616 9.81418C11.7473 9.76275 11.7601 9.7799 11.7087 9.85704L11.4987 10.1828Z" fill="white"/>
<path d="M15.1973 9.91704L15.6859 11.4042C15.6901 11.4256 15.6859 11.447 15.673 11.4685L15.4416 11.7428C15.3909 11.7241 15.337 11.7153 15.283 11.717C15.223 11.6313 15.1073 11.5542 14.9401 11.4813L14.7344 11.2928C14.7001 11.267 14.683 11.2799 14.6787 11.3313C14.6573 11.3399 14.6401 11.327 14.6359 11.297C14.6323 11.285 14.6328 11.2721 14.6375 11.2604C14.6422 11.2487 14.6507 11.239 14.6616 11.2328C14.7387 11.1899 14.8159 11.1942 14.8973 11.2499L15.3301 11.5285C15.3601 11.5456 15.3859 11.5413 15.4073 11.5156C15.583 11.3142 15.3987 11.0956 15.3987 10.8856C15.3987 10.8256 15.3773 10.7828 15.3301 10.7656L15.313 10.6885C15.3001 10.6756 15.3001 10.6628 15.3087 10.6456C15.3128 10.6377 15.315 10.6289 15.315 10.6199C15.315 10.6109 15.3128 10.6021 15.3087 10.5942C15.2032 10.3852 15.1643 10.1488 15.1973 9.91704ZM10.8859 10.457C10.723 10.6499 10.5816 10.8428 10.4573 11.0442C10.1483 11.5284 10.0054 12.1001 10.0501 12.6728L10.0459 12.7113C10.0419 12.7188 10.0364 12.7253 10.0298 12.7304C10.0231 12.7356 10.0155 12.7393 10.0073 12.7413C9.97599 12.7288 9.94241 12.7229 9.90871 12.7242C9.84861 12.3785 9.87662 12.0233 9.99014 11.6913C9.99886 11.6666 10.0018 11.6402 9.99871 11.6142C9.99442 11.5799 10.003 11.5542 10.0287 11.5413C10.0496 11.529 10.065 11.509 10.0716 11.4856C10.0856 11.4381 10.0856 11.3875 10.0716 11.3399C10.243 11.0399 10.4487 10.7613 10.6887 10.4999C10.7144 10.517 10.7787 10.4999 10.8859 10.457Z" fill="white"/>
<path d="M14.563 10.8128C14.4473 10.7828 14.3487 10.7099 14.2716 10.5942C14.4216 10.5042 14.5159 10.577 14.563 10.8085V10.8128Z" fill="white"/>
<path d="M8.68728 10.7013C7.97644 11.081 7.21419 11.3553 6.42442 11.5156C6.3666 11.53 6.3055 11.5224 6.253 11.4942C6.253 11.4856 6.253 11.477 6.26157 11.477L6.27014 11.4642C6.25728 11.3699 6.30014 11.3099 6.40299 11.2842L7.35014 10.9885C7.45299 11.0442 7.58585 11.0313 7.753 10.9499C7.95442 10.8599 8.15157 10.7656 8.35299 10.6799C8.45585 10.637 8.56728 10.6413 8.68728 10.7013Z" fill="white"/>
<path d="M8.68728 10.7013C8.61014 10.8428 8.533 10.9413 8.443 11.0056C7.94161 11.2413 7.41746 11.4251 6.87871 11.5542C6.87136 11.5621 6.86629 11.5719 6.86403 11.5824C6.86177 11.593 6.8624 11.604 6.86585 11.6142L6.88728 11.6442C6.90871 11.6613 6.95585 11.6656 7.02442 11.6656C6.88728 11.6742 6.763 11.6999 6.62585 11.657C6.51871 11.6228 6.31728 11.6142 6.223 11.5585C6.19728 11.5456 6.19728 11.5285 6.223 11.5156L6.24871 11.4942C6.30014 11.5242 6.36014 11.5328 6.42014 11.5199C7.21137 11.36 7.9751 11.0857 8.68728 10.7056V10.7013Z" fill="white"/>
<path d="M7.74014 11.9399C7.74442 11.9313 7.74442 11.9185 7.74014 11.9099C7.89442 11.8885 7.99728 11.8413 8.05728 11.7642C8.32689 11.417 8.59832 11.0713 8.87157 10.727H8.88442L8.90157 10.7442C8.91014 10.7485 8.91014 10.757 8.90157 10.7656C8.61442 11.1342 8.33157 11.507 8.06157 11.8842C8.01014 11.957 7.90299 11.9742 7.74014 11.9399Z" fill="white"/>
<path d="M14.3487 10.9713C14.4259 11.0656 14.4559 11.1685 14.4344 11.2885C14.3769 11.1928 14.3472 11.083 14.3487 10.9713Z" fill="white"/>
<path d="M8.443 11.0056L7.94157 11.7042C7.9319 11.7175 7.9189 11.7281 7.90386 11.7349C7.88882 11.7417 7.87226 11.7444 7.85585 11.7428L7.02442 11.6656C6.95585 11.6656 6.90871 11.6613 6.88728 11.6442C6.87844 11.6372 6.87173 11.6279 6.86794 11.6173C6.86416 11.6067 6.86343 11.5952 6.86585 11.5842C6.86855 11.5739 6.87394 11.5645 6.88147 11.5569C6.889 11.5494 6.89841 11.544 6.90871 11.5413C7.423 11.417 7.93299 11.2413 8.443 11.0056Z" fill="white"/>
<path d="M14.9401 11.4856C14.9316 11.4728 14.9187 11.4728 14.9101 11.4813C14.9042 11.4847 14.8994 11.4897 14.8963 11.4958C14.8933 11.502 14.8921 11.5088 14.893 11.5156L15.133 13.1228C15.1416 13.1828 15.1244 13.1913 15.073 13.1528C15.0301 13.1228 15.0087 13.0542 14.9959 12.9599C14.9959 12.9342 14.9659 12.9256 14.9144 12.9385L14.6787 11.3313C14.683 11.2799 14.7001 11.267 14.7344 11.2928L14.9401 11.4813L14.9401 11.4856Z" fill="white"/>
<path d="M11.1859 11.4813L11.2159 11.807C11.2159 11.8242 11.2244 11.8328 11.2416 11.8328C11.2587 11.8328 11.2673 11.8456 11.2673 11.867C11.2673 12.2528 11.353 12.5442 11.5201 12.7542L11.9701 13.9242C12.1373 14.3228 12.3216 14.7085 12.5273 15.0813C12.553 15.1242 12.583 15.1328 12.6301 15.1456C12.6087 15.1456 12.5959 15.1585 12.5959 15.197C12.5959 15.2142 12.5959 15.2313 12.6087 15.2485C12.7416 15.5185 12.8659 15.7928 12.973 16.0756C12.9816 16.1013 12.9901 16.1485 12.9944 16.2085C13.0501 16.3756 13.0801 16.4999 13.0801 16.5942C13.0801 16.6413 13.0416 16.697 12.973 16.757C12.9344 16.457 12.8444 16.157 12.6944 15.857C12.493 15.4499 12.283 15.0428 12.0687 14.6356C11.7001 13.9328 11.4259 13.2213 11.2544 12.4928C11.1744 12.162 11.1498 11.8202 11.1816 11.4813L11.1859 11.4813Z" fill="white"/>
<path d="M11.7559 11.5713C11.8416 11.5928 11.8759 11.6613 11.8587 11.7856C11.8544 11.8113 11.8416 11.8285 11.8159 11.8328C11.7601 11.8456 11.7216 11.8242 11.6916 11.7728C11.6938 11.7009 11.7161 11.6312 11.7559 11.5713Z" fill="white"/>
<path d="M4.31585 11.6056L4.59442 11.6613L4.60299 11.6913C4.60299 11.7128 4.61585 11.7213 4.63728 11.7213C4.65871 11.7213 4.68014 11.7213 4.70585 11.7299C5.18585 11.8285 5.63585 11.9013 6.06014 11.9442C6.14157 11.9528 6.21442 12.0342 6.27871 12.1885L5.55442 12.0856C5.01442 12.0256 4.50442 11.8713 4.02442 11.6356L4.31585 11.6056Z" fill="white"/>
<path d="M15.4416 11.7428C15.4844 12.3428 15.583 12.9428 15.7244 13.5299C15.7587 13.6585 15.8016 13.787 15.8616 13.9028C15.8701 13.9285 15.853 13.9456 15.8187 13.9456C15.8059 13.907 15.7887 13.8856 15.763 13.8728C15.733 13.8599 15.7244 13.8685 15.733 13.8985C15.7673 14.0313 15.8359 14.1556 15.9344 14.2628C15.9987 14.3485 15.9859 14.417 15.9044 14.4813C15.6901 14.6013 15.553 14.7685 15.4973 14.9913L15.4844 15.0513C15.433 15.137 15.373 15.1885 15.313 15.2099C15.2701 15.2013 15.2573 15.1756 15.2701 15.1328L15.3516 14.9185C15.463 14.7042 15.6173 14.5328 15.8144 14.4213C15.8359 14.4085 15.8444 14.3913 15.8359 14.3656C15.6337 13.8085 15.4803 13.2349 15.3773 12.6513C15.3116 12.3443 15.2799 12.031 15.283 11.717C15.3473 11.717 15.3987 11.7256 15.4416 11.7428Z" fill="white"/>
<path d="M7.74014 11.9099C7.74442 11.9185 7.74442 11.9313 7.74014 11.9399L6.16299 11.8199C6.13299 11.8156 6.12014 11.7985 6.12014 11.7728V11.747C6.11882 11.7429 6.11882 11.7384 6.12014 11.7342C6.12234 11.732 6.12509 11.7304 6.12811 11.7297C6.13113 11.7289 6.1343 11.729 6.13728 11.7299L7.74014 11.9099ZM14.4816 12.0213C14.3016 12.0342 14.1816 12.047 14.1173 12.0599C14.0059 12.0813 13.903 12.1285 13.8173 12.2056C13.8092 12.2131 13.8033 12.2226 13.8003 12.2332C13.7973 12.2438 13.7972 12.255 13.8001 12.2656C13.9159 12.7499 14.0701 13.2085 14.263 13.6456C14.2214 13.6652 14.1761 13.6755 14.1301 13.6756L14.0744 13.6242C14.0444 13.5985 14.0273 13.6028 14.0187 13.6413L14.0101 13.667C14.0101 13.7013 14.0187 13.7142 14.053 13.7142C14.0744 13.7142 14.0916 13.727 14.0959 13.757C14.1044 13.7913 14.0916 13.8042 14.0573 13.7999C14.0316 13.7999 14.0187 13.7828 14.023 13.757C14.026 13.744 14.0241 13.7303 14.0178 13.7185C14.0115 13.7067 14.0012 13.6976 13.9887 13.6928C13.933 13.6713 13.9244 13.637 13.963 13.5899C13.9754 13.576 13.983 13.5585 13.9845 13.5399C13.986 13.5213 13.9815 13.5028 13.9716 13.487C13.8526 13.2458 13.7311 13.0058 13.6073 12.767L13.6116 12.7499C13.6347 12.7407 13.6553 12.726 13.6716 12.707C13.7016 12.7199 13.723 12.7242 13.7359 12.7242C13.7573 12.7199 13.7616 12.707 13.7573 12.6899L13.5944 12.2056C13.5859 12.1756 13.5944 12.1585 13.6159 12.1413L13.8087 12.0128C13.9587 11.9313 14.1816 11.9356 14.4816 12.0213Z" fill="white"/>
<path d="M13.8087 12.0128L13.6159 12.1413C13.5944 12.1585 13.5859 12.1756 13.5944 12.2056L13.7573 12.6899C13.7616 12.707 13.7573 12.7199 13.7359 12.7242C13.723 12.7242 13.7016 12.7199 13.6716 12.7028C13.5913 12.5931 13.5317 12.4696 13.4959 12.3385C13.4659 12.2356 13.4787 12.1542 13.5259 12.0942C13.5901 12.0128 13.6844 11.987 13.8087 12.0085L13.8087 12.0128Z" fill="white"/>
<path d="M13.3716 12.0813C13.3757 12.0797 13.3803 12.0797 13.3844 12.0813L13.3887 12.0856L13.393 12.0942L13.4016 12.1328C13.4016 12.1413 13.4016 12.1499 13.3887 12.1542C13.1101 12.2313 12.8487 12.2913 12.6173 12.3385C12.4801 12.3642 12.3516 12.3513 12.2316 12.3042C12.6168 12.2695 12.9975 12.1948 13.3673 12.0813H13.3716Z" fill="white"/>
<path d="M9.613 12.3428C9.62157 12.3342 9.63442 12.3342 9.64728 12.3428C9.66442 12.4713 9.63871 12.5913 9.57014 12.6856C9.553 12.7113 9.54871 12.707 9.54871 12.677C9.54871 12.5699 9.57014 12.4585 9.613 12.3428ZM13.6116 12.7499C13.6099 12.757 13.6085 12.7641 13.6073 12.7713L13.9716 13.487C13.9815 13.5028 13.986 13.5213 13.9845 13.5399C13.983 13.5585 13.9754 13.576 13.963 13.5899C13.9201 13.637 13.933 13.6756 13.9887 13.6928C14.0003 13.6974 14.0101 13.7059 14.0163 13.7168C14.0225 13.7277 14.0249 13.7404 14.023 13.7528C14.023 13.7828 14.0316 13.7956 14.0573 13.7999C14.0916 13.8042 14.1044 13.7913 14.1001 13.757C14.0916 13.727 14.0744 13.7142 14.0573 13.7142C14.0187 13.7142 14.0059 13.7013 14.0144 13.6713V13.6413C14.0273 13.6028 14.0444 13.5985 14.0744 13.6242L14.1301 13.6756C14.1816 13.7185 14.1987 13.7742 14.1816 13.8385C14.0857 13.9114 14.0141 14.0114 13.9759 14.1256C13.9501 14.1213 13.933 14.0956 13.9244 14.0528C13.9544 14.0099 13.9544 13.9799 13.9201 13.967C13.8601 13.9456 13.8216 13.9242 13.8044 13.8985L13.8901 13.7013C13.8958 13.6908 13.8987 13.679 13.8987 13.667C13.8987 13.6551 13.8958 13.6433 13.8901 13.6328L13.3073 12.5913C13.3027 12.5718 13.2943 12.5534 13.2825 12.5373C13.2708 12.5211 13.2559 12.5074 13.2387 12.497C13.2286 12.49 13.2167 12.4863 13.2044 12.4863C13.1922 12.4863 13.1802 12.49 13.1701 12.497L12.7759 12.7456C12.823 12.4456 12.9901 12.3256 13.273 12.3728C13.2987 12.377 13.3159 12.3899 13.3373 12.4113C13.4016 12.4885 13.4573 12.5785 13.5087 12.6856C13.5259 12.7285 13.5644 12.7542 13.6116 12.7499ZM7.45728 12.5056C7.20871 12.7028 6.96014 12.767 6.69871 12.707C6.94728 12.467 7.20014 12.3985 7.45299 12.5099L7.45728 12.5056Z" fill="white"/>
<path d="M13.3073 12.5913L13.1359 12.7328C13.1238 12.7421 13.1155 12.7554 13.1123 12.7703C13.1092 12.7852 13.1115 12.8008 13.1187 12.8142C13.3244 13.1742 13.5301 13.5299 13.7444 13.8856C13.7573 13.9028 13.7744 13.907 13.8044 13.8985C13.8216 13.9242 13.8601 13.9456 13.9201 13.967C13.9544 13.9799 13.9544 14.0099 13.9201 14.0528C13.8867 14.0772 13.8458 14.0893 13.8044 14.087C13.7787 14.087 13.7616 14.0956 13.7487 14.117C13.7411 14.1331 13.7395 14.1514 13.7444 14.1685C13.6961 14.1093 13.6323 14.0648 13.5601 14.0399L12.8573 13.0156C12.8506 13.0056 12.8418 12.9973 12.8313 12.9914C12.8209 12.9854 12.8093 12.982 12.7973 12.9813C12.7546 12.9791 12.7124 12.9912 12.6773 13.0156C12.6728 12.9788 12.6544 12.9451 12.6259 12.9213C12.6167 12.913 12.6052 12.9077 12.5929 12.9062C12.5806 12.9046 12.5682 12.9069 12.5573 12.9128C12.4983 12.9479 12.4304 12.9649 12.3619 12.9619C12.2933 12.9589 12.2272 12.9358 12.1716 12.8956C12.1615 12.8888 12.1494 12.8858 12.1373 12.887C12.1304 12.8881 12.1238 12.8906 12.1179 12.8942C12.1121 12.8979 12.107 12.9028 12.103 12.9085C12.0816 12.9385 12.0816 12.9728 12.103 13.0028C12.2187 13.1528 12.2659 13.3113 12.3473 13.4742C12.6173 14.0142 12.9044 14.5456 13.2216 15.0813C13.3759 15.3428 13.513 15.6213 13.663 15.8956C13.9716 16.4742 14.1987 17.147 14.0059 17.7728L13.8516 17.8413C13.8284 17.8206 13.8025 17.8033 13.7744 17.7899C13.753 17.7813 13.723 17.777 13.6887 17.7899C13.3887 17.8628 13.0759 17.8756 12.7544 17.8242L13.753 17.7213C13.7697 17.7196 13.7855 17.7129 13.7984 17.7023C13.8114 17.6916 13.8209 17.6774 13.8259 17.6613C14.023 16.9499 13.6887 16.1185 13.2944 15.5356C13.1444 15.2185 12.9773 14.9056 12.793 14.6099C12.7587 14.5585 12.6387 14.3956 12.4287 14.1256C12.283 13.9413 12.1673 13.7399 12.0773 13.517C12.0516 13.4528 11.9916 13.3628 11.9059 13.2513C11.8116 13.0542 11.7559 12.9299 11.863 12.7328L12.7759 12.7499L13.1701 12.5056C13.1916 12.4928 13.213 12.4928 13.2387 12.5056C13.273 12.5228 13.2944 12.5485 13.3073 12.5956V12.5913Z" fill="white"/>
<path d="M18.2787 12.4842C18.3516 12.7242 18.3473 12.9556 18.2659 13.187L18.1716 13.4742C18.1459 13.5728 18.103 13.667 18.0516 13.7528C18.0384 13.7764 18.0311 13.8029 18.0301 13.8299C18.0299 13.861 18.0228 13.8917 18.0095 13.9198C17.9962 13.948 17.9769 13.9728 17.953 13.9928C17.9458 13.9985 17.9397 14.0056 17.9353 14.0137C17.9309 14.0218 17.9282 14.0307 17.9273 14.0399C17.923 14.0828 17.893 14.0999 17.8416 14.0956C18.0473 13.577 18.193 13.037 18.2787 12.4842Z" fill="white"/>
<path d="M7.45728 12.5099C7.43585 12.5956 7.393 12.6642 7.32871 12.7242C7.35871 12.7842 7.32871 12.8313 7.24299 12.8656C7.25157 12.8056 7.23442 12.7842 7.19585 12.8056C6.68819 13.033 6.14938 13.1833 5.59728 13.2513C5.58866 13.2574 5.58257 13.2664 5.5802 13.2767C5.57783 13.287 5.57933 13.2978 5.58442 13.307C5.88442 13.8213 6.223 14.3056 6.58728 14.7685C6.59585 14.777 6.60442 14.7856 6.61728 14.7856L6.66014 14.7899L6.71157 14.9013C6.69749 14.9189 6.68 14.9335 6.66014 14.9442C6.63442 14.957 6.613 14.9485 6.59585 14.927L6.14585 14.3999C6.1251 14.3772 6.09836 14.3609 6.06871 14.3528C5.90585 14.3056 5.89728 14.1685 5.73871 14.0999C5.61014 14.0485 5.473 14.0356 5.33585 14.0613L4.83014 12.9042L5.64442 12.7028C6.00442 12.7585 6.35585 12.7585 6.69871 12.7028C6.95585 12.767 7.21299 12.7028 7.45299 12.5099L7.45728 12.5099Z" fill="white"/>
<path d="M13.3073 12.5913L13.8901 13.6328C13.903 13.6542 13.903 13.6756 13.8901 13.7013L13.8044 13.8985C13.7744 13.907 13.7573 13.8985 13.7444 13.8856C13.5301 13.5299 13.3244 13.1742 13.1187 12.8142C13.1102 12.8004 13.1073 12.7839 13.1105 12.768C13.1136 12.7521 13.1227 12.738 13.1359 12.7285L13.3073 12.5913Z" fill="white"/>
<path d="M4.80014 12.6728C4.80014 12.7585 4.83014 12.8013 4.88585 12.8013L4.843 12.8099C4.81728 12.8142 4.80014 12.827 4.80014 12.8528C4.80014 12.8785 4.80871 12.8956 4.83014 12.9042L5.33585 14.0613C5.63585 14.5628 5.97442 15.0385 6.34728 15.4928C6.45442 15.6213 6.52728 15.6513 6.57014 15.587C6.62157 15.6213 6.71585 15.7156 6.85728 15.8699C6.95157 15.977 7.11871 16.1013 7.35871 16.2428C8.73645 17.1743 10.372 17.6495 12.0344 17.6013C12.1459 17.6013 12.2359 17.7213 12.3773 17.7128C12.5701 17.7042 12.7373 17.627 12.9259 17.6056L13.603 17.5328C13.6147 17.5317 13.626 17.5283 13.6363 17.5227C13.6467 17.5171 13.6557 17.5094 13.6629 17.5002C13.6702 17.491 13.6754 17.4803 13.6784 17.469C13.6813 17.4576 13.6819 17.4458 13.6801 17.4342C13.6716 17.3485 13.6801 17.2756 13.7059 17.2199C13.6866 17.124 13.678 17.0263 13.6801 16.9285C13.6844 16.7913 13.6801 16.6928 13.6716 16.637C13.603 16.307 13.4401 16.0328 13.2859 15.7499C13.2987 15.6985 13.273 15.6385 13.213 15.5785C13.2064 15.5707 13.2027 15.5608 13.2027 15.5506C13.2027 15.5404 13.2064 15.5305 13.213 15.5228C13.2194 15.5159 13.228 15.5113 13.2373 15.5097C13.2466 15.5082 13.2561 15.5098 13.2644 15.5142L13.2944 15.5313C13.6887 16.1142 14.023 16.9456 13.8259 17.657C13.8209 17.6731 13.8114 17.6873 13.7984 17.698C13.7855 17.7086 13.7697 17.7153 13.753 17.717L12.7544 17.8199H11.9487C11.6487 17.8242 11.3401 17.807 11.0273 17.7642C10.2024 17.6638 9.39506 17.4519 8.62728 17.1342C7.68183 16.7274 6.83106 16.1288 6.12879 15.3764C5.42651 14.624 4.88799 13.734 4.54728 12.7628C4.53871 12.7242 4.54728 12.707 4.58585 12.7028L4.80014 12.6728Z" fill="white"/>
<path d="M7.56014 12.677C7.57143 12.6895 7.58017 12.7041 7.58585 12.7199C7.543 12.8785 7.45299 13.0199 7.31585 13.127C7.42299 13.2128 7.41442 13.2042 7.29014 13.1142L7.48299 12.767L7.56014 12.677Z" fill="white"/>
<path d="M7.58585 12.7199L7.59442 12.7113C7.59442 12.7542 7.62442 12.7713 7.693 12.767L7.42728 13.1742C7.41361 13.1948 7.40482 13.2182 7.40157 13.2428L7.28585 14.2242C7.24728 14.1813 7.21299 14.1899 7.18299 14.2499C7.15299 14.3013 7.12728 14.3613 7.11014 14.4299L7.08442 14.3313C7.07585 14.297 7.05442 14.2885 7.02014 14.297C7.00728 14.297 6.99442 14.297 6.99014 14.2842C6.97734 14.2622 6.97278 14.2364 6.97728 14.2113C7.04157 13.8685 7.14871 13.5513 7.303 13.2513C7.32442 13.2085 7.32871 13.1656 7.32014 13.127C7.45728 13.0156 7.54728 12.8785 7.59014 12.7199L7.58585 12.7199Z" fill="white"/>
<path d="M9.32157 12.7113C9.33442 12.7328 9.36014 12.7413 9.39014 12.737C9.40215 12.7357 9.41431 12.7373 9.42553 12.7418C9.43675 12.7463 9.44668 12.7535 9.45442 12.7628C9.46218 12.7713 9.46778 12.7816 9.47076 12.7928C9.47374 12.804 9.47402 12.8157 9.47157 12.827C9.42871 12.9728 9.41585 13.1056 9.42871 13.2342L9.463 13.4956C9.48014 13.7785 9.53585 14.057 9.62585 14.327C9.66871 14.477 9.73299 14.6099 9.81871 14.7342C9.84014 14.7599 9.84871 14.7599 9.84871 14.7256C9.84871 14.717 9.85299 14.7128 9.86157 14.7128C9.88728 14.7085 9.90442 14.7128 9.91299 14.7342L10.0844 15.0942C9.97728 15.0813 9.92157 15.1028 9.91299 15.1542C9.4157 14.4432 9.20453 13.571 9.32157 12.7113ZM7.32871 12.7285C7.38442 12.7499 7.43585 12.7628 7.48728 12.767L7.29014 13.1099C7.0015 13.6404 6.85809 14.2376 6.87442 14.8413C6.87466 14.862 6.86741 14.8821 6.85402 14.8978C6.84063 14.9136 6.82201 14.9239 6.80157 14.927C6.7856 14.9302 6.76912 14.9295 6.75347 14.925C6.73783 14.9205 6.72346 14.9124 6.71157 14.9013L6.66014 14.7899C6.67728 14.087 6.87442 13.4442 7.24728 12.8613C7.33299 12.827 7.35871 12.7842 7.333 12.7285H7.32871Z" fill="white"/>
<path d="M9.90871 12.7285C9.943 12.7242 9.97728 12.7285 10.0073 12.7413C9.96871 12.7413 9.94728 12.7585 9.943 12.7885C9.943 12.8228 9.94728 12.8613 9.96871 12.9042C9.95896 13.1054 9.99257 13.3063 10.0672 13.4934C10.1419 13.6805 10.2559 13.8493 10.4016 13.9885L11.0401 15.017C10.6608 14.779 10.3597 14.4348 10.1744 14.027C10.1687 14.0219 10.1617 14.0184 10.1542 14.0169C10.1466 14.0154 10.1388 14.0159 10.1316 14.0185C10.0068 14.129 9.86304 14.2161 9.70728 14.2756C9.59585 13.937 9.54014 13.7185 9.54442 13.6156C9.54442 13.3585 9.55299 13.1013 9.56585 12.8442C9.56585 12.7585 9.60871 12.7242 9.69442 12.7413C9.78014 12.7542 9.84871 12.7499 9.90871 12.7242V12.7285ZM11.5201 12.7542L11.863 12.7285C11.7559 12.9256 11.8116 13.0499 11.9059 13.247L12.013 13.5899C12.0216 13.6113 12.0259 13.637 12.0259 13.667C12.0259 13.7828 12.0859 13.7913 12.1116 13.8728V13.8942C12.103 13.9156 12.0901 13.9199 12.073 13.9028L12.0516 13.8856C12.0387 13.877 12.0301 13.877 12.0173 13.8856L11.9744 13.9285L11.5201 12.7542Z" fill="white"/>
<path d="M18.4887 12.767L18.4544 12.9213C18.3859 13.2299 18.3044 13.5213 18.2016 13.8042C18.043 14.2413 17.9316 14.5328 17.8673 14.6613C17.773 14.8542 17.6273 15.0813 17.4216 15.347C17.4259 15.3213 17.4216 15.2999 17.413 15.287C17.4044 15.2742 17.3916 15.2742 17.3787 15.2785C17.9013 14.5151 18.2629 13.6533 18.4416 12.7456C18.4459 12.7113 18.4587 12.7113 18.4759 12.7413L18.4887 12.767Z" fill="white"/>
<path d="M18.8701 12.7285C18.8916 12.7199 18.9259 12.7242 18.973 12.7413C18.9626 12.7423 18.9524 12.7452 18.943 12.7499C18.9361 12.7529 18.9301 12.7576 18.9255 12.7636C18.921 12.7696 18.9182 12.7767 18.9173 12.7842C18.8916 12.9985 18.8744 13.1999 18.8744 13.397C18.8744 13.4828 18.853 13.5642 18.8144 13.6413C18.7887 13.6928 18.7716 13.7528 18.763 13.8128C18.763 13.8685 18.7459 13.9285 18.7244 13.9842C18.6216 14.297 18.5316 14.6228 18.4544 14.9613C18.3687 14.897 18.3387 14.8499 18.3516 14.8199C18.3687 14.7385 18.4073 14.6056 18.4759 14.4213C18.5316 14.267 18.4759 14.1642 18.3259 14.1213C18.3134 14.1168 18.2998 14.116 18.2869 14.1191C18.2739 14.1221 18.2622 14.1289 18.253 14.1385L18.2316 14.1642C18.2059 14.1856 18.1887 14.1856 18.1801 14.1556C18.1687 14.1238 18.1687 14.0889 18.1801 14.057L18.3259 13.6285C18.3387 13.5985 18.3559 13.5213 18.3859 13.4013C18.403 13.3242 18.4287 13.2513 18.463 13.1828C18.4973 13.1185 18.493 13.0328 18.4544 12.9213L18.4887 12.767L18.8701 12.7285Z" fill="white"/>
<path d="M7.72728 12.7499L7.74014 12.7456L7.62014 13.0928C7.58585 13.2085 7.56014 13.3242 7.55157 13.4528C7.50871 13.9628 7.47442 14.4685 7.46157 14.9785C7.45728 15.1499 7.48728 15.3042 7.50871 15.4713C7.41442 15.4842 7.36299 15.4499 7.35014 15.3642C7.30728 15.0385 7.28157 14.657 7.28157 14.2242L7.40157 13.2385L7.42728 13.1742L7.693 12.767C7.663 12.7628 7.67585 12.7542 7.72728 12.7499ZM9.96871 12.8999C9.99871 13.0028 10.0544 13.1228 10.1316 13.2642C10.2173 13.4185 10.3073 13.6585 10.4059 13.9842C10.2148 13.8068 10.0768 13.5798 10.0073 13.3285C9.98157 13.2213 9.96442 13.0799 9.96871 12.8999Z" fill="white"/>
<path d="M18.4544 12.9213C18.493 13.0328 18.4973 13.1185 18.463 13.1785C18.4287 13.2513 18.403 13.3242 18.3859 13.4013C18.3559 13.5213 18.3387 13.5985 18.3259 13.6285C18.283 13.7699 18.2316 13.9156 18.1801 14.057C18.1687 14.0889 18.1687 14.1238 18.1801 14.1556C18.1887 14.1856 18.2059 14.1856 18.2316 14.1642L18.253 14.1385C18.2744 14.1213 18.2959 14.1128 18.3259 14.1213C18.4801 14.1642 18.5316 14.267 18.4759 14.4213C18.4073 14.6056 18.3687 14.7385 18.3516 14.8199L17.923 15.5956C17.9157 15.5562 17.898 15.5195 17.8716 15.4893C17.8452 15.4591 17.8111 15.4366 17.773 15.4242C17.7607 15.4199 17.7493 15.4132 17.7397 15.4043C17.7302 15.3955 17.7225 15.3847 17.7173 15.3728C17.7069 15.3539 17.6939 15.3366 17.6787 15.3213C17.6144 15.2613 17.5587 15.2699 17.5159 15.3513C17.4644 15.4542 17.4044 15.5442 17.3401 15.6213L17.2201 15.7928C17.1644 15.8699 17.1001 15.9042 17.0273 15.8913L17.4216 15.347C17.6273 15.0813 17.773 14.8542 17.8673 14.6613C17.9273 14.5328 18.0387 14.2413 18.2016 13.8042C18.3044 13.5256 18.3859 13.2299 18.4544 12.9213Z" fill="white"/>
<path d="M13.5601 14.0442L13.6587 14.2885L13.6544 14.297C13.5987 14.3656 13.5601 14.4428 13.5344 14.5285C13.5001 14.5799 13.5044 14.6313 13.543 14.6828C13.5601 14.7042 13.5687 14.7256 13.5644 14.7513L13.5516 15.0213C13.1101 14.8413 13.3544 14.4728 13.4787 14.1856C13.484 14.1746 13.4859 14.1622 13.4844 14.1501C13.4829 14.1379 13.4779 14.1265 13.4701 14.117L12.6816 13.0113C12.7201 12.9856 12.7587 12.9728 12.7973 12.977C12.823 12.977 12.8444 12.9899 12.8573 13.0113L13.5601 14.0399V14.0442Z" fill="white"/>
<path d="M7.29014 13.1142C7.41871 13.2042 7.42299 13.2085 7.31585 13.127C7.32442 13.1699 7.31585 13.2128 7.29871 13.2513C7.14442 13.5513 7.03728 13.8685 6.973 14.2113C6.96871 14.237 6.97299 14.2585 6.98585 14.2842C6.99014 14.297 7.003 14.3013 7.01585 14.297C7.05014 14.2842 7.07157 14.297 7.08014 14.3313L7.10585 14.4299L7.06299 14.8928C7.06002 14.9181 7.04957 14.942 7.03299 14.9613C6.95157 15.0642 6.87442 15.1156 6.79728 15.1156C6.81442 15.0728 6.823 15.0385 6.823 15.0128C6.823 14.9828 6.81014 14.9699 6.78014 14.9699C6.66871 14.9656 6.62157 15.0213 6.643 15.1413L6.63014 15.1799C6.61728 15.2099 6.59585 15.2228 6.56585 15.2142C6.48014 15.1928 6.39442 15.167 6.32157 15.1328C6.20585 15.0813 6.18014 15.1113 6.24014 15.2185C6.30014 15.3299 6.41157 15.4499 6.57014 15.587C6.52728 15.6513 6.45442 15.6213 6.34728 15.4928C5.9753 15.0412 5.63724 14.5628 5.33585 14.0613C5.473 14.0356 5.61014 14.0485 5.73871 14.1042C5.893 14.1685 5.91014 14.3056 6.06871 14.3528C6.09871 14.3613 6.12442 14.3785 6.14585 14.3999L6.59585 14.927C6.613 14.9485 6.63871 14.957 6.66014 14.9442C6.68 14.9335 6.69749 14.9189 6.71157 14.9013C6.73728 14.927 6.76728 14.9356 6.79728 14.9313C6.8185 14.9292 6.83816 14.9192 6.85242 14.9034C6.86669 14.8875 6.87453 14.8669 6.87442 14.8456C6.85678 14.2423 6.9987 13.6451 7.28585 13.1142L7.29014 13.1142ZM11.9059 13.247C11.9916 13.3585 12.0516 13.4485 12.0773 13.5128C12.163 13.7356 12.283 13.937 12.4287 14.1213C12.643 14.3913 12.7587 14.5499 12.793 14.6056C12.9773 14.9056 13.1444 15.2142 13.2944 15.5313L13.2644 15.5142C13.2561 15.5098 13.2466 15.5082 13.2373 15.5097C13.228 15.5113 13.2194 15.5159 13.213 15.5228C13.2064 15.5305 13.2027 15.5404 13.2027 15.5506C13.2027 15.5608 13.2064 15.5707 13.213 15.5785C13.273 15.6385 13.2987 15.6985 13.2901 15.7499L12.9044 15.2056C12.853 15.137 12.7587 15.1199 12.6301 15.1456C12.5873 15.1328 12.553 15.1242 12.5273 15.077C12.3216 14.7085 12.1373 14.3228 11.9701 13.9242L12.013 13.8856C12.0301 13.877 12.0387 13.877 12.0516 13.8856L12.073 13.9028C12.0901 13.9199 12.103 13.9156 12.1116 13.8942V13.8728C12.0859 13.787 12.0259 13.787 12.0259 13.667C12.0259 13.637 12.0216 13.6113 12.013 13.5899L11.9059 13.247Z" fill="white"/>
<path d="M14.263 13.6456C14.4173 13.667 14.5416 13.7013 14.6359 13.757C14.8759 14.087 15.0216 14.4256 15.0644 14.7685C15.073 14.8113 15.0859 14.8585 15.1073 14.9099C15.133 14.9528 15.1501 14.9999 15.163 15.047H15.0944C15.073 15.047 15.0601 15.0299 15.0559 15.0042L15.0259 14.6913C15.0259 14.6785 15.0173 14.6742 15.0087 14.6785L14.9659 14.687C14.9574 14.69 14.9504 14.6961 14.9464 14.7041C14.9424 14.7121 14.9417 14.7214 14.9444 14.7299C14.9573 14.7985 14.9573 14.8585 14.9359 14.9099C14.893 15.0299 14.8716 15.0256 14.8716 14.9013C14.8676 14.7642 14.8633 14.627 14.8587 14.4899C14.8535 14.481 14.8461 14.4737 14.8373 14.4685C14.8273 14.463 14.8159 14.4605 14.8045 14.4613C14.7931 14.462 14.7822 14.466 14.773 14.4728C14.7644 14.5078 14.7615 14.544 14.7644 14.5799C14.744 14.4471 14.7066 14.3174 14.653 14.1942C14.6059 14.0828 14.5587 14.0528 14.5159 14.1042C14.473 14.0613 14.4216 14.0528 14.3659 14.0785C14.3873 14.0785 14.383 14.0656 14.3487 14.0528C14.3659 13.9285 14.3059 13.8599 14.1816 13.8385C14.19 13.8093 14.1896 13.7782 14.1804 13.7493C14.1713 13.7203 14.1538 13.6947 14.1301 13.6756C14.1761 13.6755 14.2214 13.6652 14.263 13.6456Z" fill="white"/>
<path d="M14.6359 13.757C14.8973 13.8728 15.0773 14.0913 15.1716 14.4213C15.2187 14.5799 15.2787 14.747 15.3516 14.9185L15.2659 15.1328C15.2617 15.1493 15.2528 15.1642 15.2401 15.1756C15.2144 15.197 15.1973 15.1928 15.193 15.1628L15.163 15.047C15.1503 14.9998 15.1331 14.9538 15.1116 14.9099C15.0901 14.8652 15.0757 14.8175 15.0687 14.7685C15.0173 14.4256 14.8759 14.087 14.6401 13.757L14.6359 13.757ZM14.1859 13.8428C14.3101 13.8599 14.3659 13.9285 14.3487 14.0528C14.2844 14.0099 14.2416 14.0399 14.2073 14.1342C14.173 14.2456 14.1773 14.3613 14.2201 14.4813C14.2801 14.6442 14.3187 14.8156 14.3359 14.9913C14.3359 15.0213 14.3487 15.0556 14.3701 15.0813C14.4087 15.137 14.4216 15.1885 14.4087 15.2442C14.4001 15.2785 14.3787 15.2956 14.3444 15.2956C14.2764 15.2988 14.209 15.2808 14.1516 15.2442C14.2244 15.2099 14.2459 15.1456 14.2244 15.0556C14.1772 14.8472 14.1112 14.6435 14.0273 14.447C13.9892 14.3443 13.9718 14.2351 13.9759 14.1256C14.0359 13.9842 14.1044 13.8899 14.1816 13.8385L14.1859 13.8428Z" fill="white"/>
<path d="M15.8144 13.9413C15.9044 14.0613 15.943 14.1685 15.9344 14.2628C15.8359 14.1513 15.7673 14.0313 15.733 13.8985C15.7244 13.8685 15.733 13.8556 15.763 13.8728C15.7887 13.8856 15.8059 13.907 15.8187 13.9413H15.8144Z" fill="white"/>
<path d="M15.8616 13.9028L16.1359 14.2499C16.1498 14.2668 16.1574 14.288 16.1574 14.3099C16.1574 14.3318 16.1498 14.353 16.1359 14.3699C15.9301 14.6142 15.5873 15.0728 15.643 15.4028C15.6466 15.424 15.6458 15.4458 15.6405 15.4667C15.6352 15.4876 15.6256 15.5072 15.6122 15.5242C15.5989 15.5411 15.5822 15.5551 15.5631 15.5652C15.5441 15.5753 15.5231 15.5813 15.5016 15.5828L15.2101 15.6128C14.9787 15.5528 14.8073 15.5099 14.803 15.2228C14.8043 15.206 14.7997 15.1894 14.7901 15.1756C14.7644 15.1456 14.7387 15.1328 14.7044 15.1413C14.6725 15.1484 14.639 15.1439 14.6101 15.1285C14.5705 15.1073 14.5265 15.0955 14.4816 15.0942C14.4473 15.0942 14.4259 15.077 14.4259 15.0385L14.3659 14.0785C14.4216 14.0528 14.473 14.0613 14.5159 14.1042C14.5716 14.3313 14.5844 14.5456 14.5459 14.7428C14.4901 14.7556 14.4687 14.7985 14.4859 14.8713C14.4901 14.8842 14.4987 14.897 14.5116 14.9056C14.5287 14.9185 14.5459 14.9185 14.563 14.9056C14.623 14.9699 14.6787 14.9913 14.7344 14.9699C14.7446 14.9657 14.7533 14.9585 14.7594 14.9494C14.7655 14.9402 14.7687 14.9295 14.7687 14.9185V14.5713L14.773 14.4685C14.7828 14.4628 14.7939 14.4599 14.8051 14.4599C14.8164 14.4599 14.8275 14.4628 14.8373 14.4685C14.8465 14.4728 14.8545 14.4793 14.8605 14.4876C14.8665 14.4958 14.8703 14.5055 14.8716 14.5156V14.897C14.8716 15.0213 14.893 15.0256 14.9359 14.9056C14.9562 14.8462 14.9591 14.7823 14.9444 14.7213C14.9431 14.7128 14.945 14.7042 14.9498 14.697C14.9545 14.6899 14.9618 14.6848 14.9701 14.6828L15.0087 14.6742C15.0173 14.6742 15.0259 14.6742 15.0259 14.687L15.0559 15.0042C15.0559 15.0256 15.073 15.0385 15.0944 15.047H15.163L15.193 15.1585C15.2016 15.1885 15.2144 15.1928 15.2401 15.1713C15.2528 15.1599 15.2617 15.145 15.2659 15.1285C15.2573 15.1713 15.2744 15.197 15.313 15.2056C15.2701 15.227 15.2401 15.2485 15.2273 15.2613C15.2206 15.2687 15.2163 15.2779 15.2148 15.2878C15.2133 15.2976 15.2146 15.3076 15.2187 15.3167C15.2228 15.3258 15.2294 15.3335 15.2378 15.3389C15.2462 15.3442 15.2559 15.3471 15.2659 15.347C15.4373 15.3556 15.463 15.1756 15.4801 15.047L15.4973 14.987L15.9044 14.477C15.9859 14.4128 15.9987 14.3399 15.9344 14.2628C15.943 14.1642 15.9044 14.057 15.8187 13.937C15.853 13.937 15.8701 13.9242 15.8616 13.8985L15.8616 13.9028Z" fill="white"/>
<path d="M11.0401 15.0128C11.1816 15.2056 11.3401 15.4113 11.5116 15.6256C11.5673 15.6985 11.6273 15.767 11.6916 15.8356L11.9959 16.1613C12.0816 16.2556 12.1887 16.3628 12.313 16.4742C12.4801 16.6328 12.6344 16.7956 12.7844 16.9713C12.7244 16.9928 12.673 16.9928 12.6344 16.9713C12.493 16.877 12.3644 16.757 12.2487 16.6156C12.2008 16.5554 12.141 16.5058 12.073 16.4699C12.0056 16.4359 11.9502 16.3821 11.9144 16.3156C11.9016 16.2942 11.8844 16.2856 11.8587 16.2942C11.8501 16.2942 11.8459 16.3028 11.8459 16.3113C11.8459 16.3628 11.8244 16.3713 11.7859 16.337C11.6701 16.2299 11.593 16.0799 11.443 16.007C11.3442 15.9577 11.2496 15.9004 11.1601 15.8356C10.9801 15.707 10.7659 15.6899 10.5601 15.6213C10.4672 15.5877 10.3814 15.5368 10.3073 15.4713C10.2973 15.4629 10.2856 15.4566 10.2731 15.453C10.2606 15.4493 10.2474 15.4482 10.2344 15.4499L9.99014 15.4756C10.0887 15.4156 10.1187 15.347 10.0759 15.2742C10.1187 15.2399 10.1187 15.1799 10.0844 15.0942L9.91299 14.7342C9.90442 14.7128 9.88728 14.7085 9.86157 14.7128C9.85299 14.7128 9.84871 14.717 9.84871 14.7256C9.84871 14.7599 9.84014 14.7599 9.81871 14.7342C9.73299 14.6099 9.66871 14.477 9.62585 14.327C9.65585 14.3485 9.68585 14.327 9.71157 14.2713C9.86733 14.2119 10.0111 14.1247 10.1359 14.0142C10.1428 14.013 10.15 14.0135 10.1568 14.0157C10.1635 14.018 10.1696 14.0219 10.1744 14.027C10.3604 14.4332 10.6614 14.7759 11.0401 15.0128Z" fill="white"/>
<path d="M13.9244 14.057C13.933 14.0999 13.9501 14.1213 13.9759 14.1256C13.9759 14.2628 13.9973 14.3699 14.0273 14.447C14.1044 14.6142 14.1687 14.8156 14.2244 15.0556C14.2459 15.1456 14.2244 15.2099 14.1516 15.2442L13.5516 15.0213L13.5644 14.7513C13.5658 14.7266 13.5581 14.7023 13.543 14.6828C13.5001 14.6313 13.5001 14.5799 13.5344 14.5285C13.6201 14.4985 13.6587 14.4213 13.6544 14.297L13.6587 14.2885C13.723 14.2628 13.7487 14.2242 13.7444 14.1685C13.7382 14.1519 13.7382 14.1336 13.7444 14.117C13.7503 14.1066 13.7591 14.0982 13.7698 14.0929C13.7805 14.0875 13.7926 14.0855 13.8044 14.087C13.8473 14.087 13.8901 14.0785 13.9244 14.0528V14.057Z" fill="white"/>
<path d="M14.7644 14.5799V14.9185C14.7644 14.9295 14.7612 14.9402 14.7551 14.9494C14.749 14.9585 14.7403 14.9657 14.7301 14.9699C14.6787 14.9913 14.623 14.9699 14.5587 14.9099L14.5459 14.7428C14.5844 14.5456 14.5716 14.3313 14.5159 14.1042C14.5587 14.0528 14.6059 14.0828 14.653 14.1899C14.7087 14.3142 14.743 14.4428 14.7644 14.5756V14.5799Z" fill="white"/>
<path d="M7.28585 14.2242C7.28157 14.657 7.30299 15.0385 7.35014 15.3642C7.36299 15.4499 7.41442 15.4842 7.50871 15.4713C7.50871 15.5013 7.51728 15.5228 7.53014 15.5442C7.56014 15.587 7.603 15.587 7.65871 15.5528C7.65871 15.6385 7.68442 15.6813 7.73585 15.6856C7.59442 15.6728 7.52157 15.7113 7.50442 15.8099L7.35871 16.2428C7.17559 16.1415 7.00694 16.0161 6.85728 15.8699C6.76876 15.7686 6.67278 15.674 6.57014 15.587C6.41157 15.4499 6.30014 15.3299 6.24014 15.2228C6.18014 15.1113 6.20585 15.0813 6.32585 15.137C6.39871 15.167 6.48014 15.1928 6.56585 15.2142C6.59585 15.2185 6.61728 15.2099 6.63014 15.1799L6.643 15.137C6.69871 15.1413 6.75014 15.137 6.79728 15.1156C6.87442 15.1156 6.95157 15.0642 7.03299 14.9613C7.04803 14.9414 7.05697 14.9176 7.05871 14.8928L7.10585 14.4299C7.12299 14.3613 7.14871 14.3013 7.17871 14.2499C7.20871 14.1899 7.24299 14.1813 7.28157 14.2242H7.28585Z" fill="white"/>
<path d="M13.6544 14.297C13.6544 14.4213 13.6159 14.4985 13.5344 14.5285C13.5601 14.4428 13.5987 14.3656 13.6544 14.297ZM15.9001 14.4856L15.4973 14.9913C15.553 14.7685 15.6901 14.6013 15.9044 14.4813L15.9001 14.4856Z" fill="white"/>
<path d="M18.3516 14.8199C18.3387 14.8499 18.3687 14.897 18.4544 14.9613C17.8058 16.4598 16.6557 17.6857 15.2016 18.4285C14.3134 18.8896 13.3439 19.1735 12.3473 19.2642C12.2316 19.2728 12.1416 19.2899 11.9701 19.2899C11.7301 19.2899 11.4301 19.2899 11.1301 19.2728C8.82014 18.9728 7.01585 17.8842 5.70442 16.0028C5.6197 15.876 5.54792 15.741 5.49014 15.5999C5.49014 15.587 5.49871 15.5828 5.50728 15.5828C5.52014 15.5828 5.52871 15.587 5.52442 15.6042C5.52442 15.6428 5.54157 15.6685 5.58014 15.6856C5.70014 15.7928 5.88014 15.9813 6.12014 16.2428C6.44585 16.607 6.87442 16.9285 7.40585 17.2113C7.76585 17.4428 8.16442 17.6442 8.58871 17.8242C8.19014 17.7385 7.81728 17.567 7.47014 17.3185C7.44948 17.3023 7.42341 17.2946 7.39728 17.297C7.38563 17.2989 7.37369 17.298 7.36249 17.2943C7.3513 17.2905 7.34117 17.2841 7.333 17.2756C7.26871 17.2028 7.20442 17.1728 7.12728 17.177C7.10798 17.1792 7.08968 17.1868 7.07451 17.1989C7.05934 17.2111 7.04792 17.2273 7.04157 17.2456C7.0347 17.264 7.03347 17.284 7.03805 17.3031C7.04264 17.3222 7.05281 17.3395 7.06728 17.3528C8.21923 18.3231 9.63938 18.9195 11.1387 19.0628C11.5287 19.097 11.8373 19.337 12.2359 19.1485C12.3473 19.097 12.463 19.0628 12.5916 19.0456C12.8659 19.0028 13.1059 18.9599 13.3116 18.917C14.921 18.5831 16.3612 17.6923 17.3787 16.4013C17.4387 16.3285 17.5244 16.1913 17.6359 15.9985C17.7216 15.857 17.8159 15.7242 17.923 15.5999L18.3516 14.8242V14.8199Z" fill="white"/>
<path d="M10.0844 15.0942C10.1187 15.1799 10.1187 15.2399 10.0759 15.2742C9.98157 15.2999 9.90442 15.3385 9.85299 15.3942C9.83867 15.409 9.82127 15.4205 9.80202 15.4279C9.78278 15.4354 9.76214 15.4385 9.74157 15.437C9.06442 15.3856 8.39585 15.467 7.73585 15.6856C7.68442 15.6813 7.65871 15.6385 7.65871 15.557C8.38392 15.3065 9.15145 15.2017 9.91728 15.2485C9.94728 15.2485 9.96014 15.2313 9.95157 15.2056C9.94728 15.1885 9.93442 15.1756 9.90871 15.1542C9.92157 15.1028 9.97728 15.0813 10.0844 15.0942Z" fill="white"/>
<path d="M13.2859 15.7499C13.4401 16.0328 13.603 16.307 13.6716 16.637C13.6844 16.6928 13.6844 16.7913 13.6801 16.9285C13.6801 17.0142 13.6844 17.1128 13.7059 17.2199L13.2259 17.0485C13.2044 17.0442 13.183 17.0485 13.1701 17.0742C13.1059 17.1856 12.9987 17.2242 12.8444 17.1813C12.8659 17.1685 12.8873 17.1642 12.9044 17.1642C13.0587 17.117 13.1401 16.997 13.153 16.8085C13.1959 16.5985 13.1659 16.4099 13.063 16.2428C13.0586 16.2352 13.0524 16.2288 13.0449 16.2243C13.0374 16.2198 13.0289 16.2173 13.0201 16.217C13.0114 16.2149 13.0028 16.212 12.9944 16.2085C12.9929 16.1635 12.9857 16.1188 12.973 16.0756C12.8616 15.7928 12.7416 15.5185 12.6087 15.2485C12.6002 15.2327 12.5958 15.215 12.5959 15.197C12.5959 15.1542 12.6087 15.1413 12.6301 15.1456C12.7587 15.1156 12.853 15.137 12.9001 15.2056C13.033 15.3856 13.1616 15.5656 13.2859 15.7499Z" fill="white"/>
<path d="M10.0759 15.2742C10.1187 15.347 10.0887 15.4156 9.99014 15.4756C9.66442 15.4928 9.33871 15.497 9.00442 15.497C8.78585 15.497 8.28442 15.5999 7.50442 15.8099C7.51728 15.7113 7.59442 15.6728 7.73585 15.6856C8.39585 15.4713 9.06442 15.3856 9.74157 15.437C9.76214 15.4385 9.78278 15.4354 9.80202 15.4279C9.82127 15.4205 9.83867 15.409 9.85299 15.3942C9.90442 15.3385 9.98157 15.2999 10.0759 15.2742Z" fill="white"/>
<path d="M12.7844 16.9713C12.8273 16.9799 12.8573 16.9628 12.8787 16.9242C12.9261 16.8774 12.9589 16.8178 12.973 16.7528C13.0416 16.697 13.0759 16.6413 13.0801 16.5899C13.0801 16.5042 13.0501 16.3756 12.9944 16.2085C13.0041 16.2122 13.0142 16.2151 13.0244 16.217C13.0416 16.217 13.0544 16.2256 13.063 16.2428C13.1659 16.4099 13.1916 16.5985 13.153 16.8085C13.1101 16.937 13.0073 17.0228 12.8401 17.0785C12.7952 17.0854 12.7517 17.0999 12.7116 17.1213C12.6901 17.1428 12.6901 17.1556 12.7159 17.1685C12.7544 17.1856 12.7973 17.1899 12.8444 17.1813C12.9944 17.2242 13.1016 17.1856 13.1701 17.0742C13.183 17.0485 13.2044 17.0442 13.2259 17.0528L13.7059 17.2242C13.6782 17.292 13.6693 17.366 13.6801 17.4385C13.6813 17.4497 13.6803 17.4611 13.677 17.472C13.6738 17.4828 13.6684 17.4929 13.6612 17.5017C13.6541 17.5105 13.6452 17.5177 13.6352 17.5231C13.6252 17.5284 13.6143 17.5317 13.603 17.5328L12.9259 17.6056C12.7373 17.627 12.5701 17.7042 12.3773 17.7128C12.2359 17.7213 12.1459 17.6013 12.0344 17.6013C10.2987 17.6313 8.743 17.1728 7.363 16.2428L7.50442 15.8099C8.28442 15.5956 8.78585 15.497 9.00442 15.497C9.33871 15.497 9.66442 15.4928 9.99014 15.4756L10.2344 15.4499C10.2474 15.4482 10.2606 15.4493 10.2731 15.453C10.2856 15.4566 10.2973 15.4629 10.3073 15.4713C10.3844 15.5399 10.4701 15.587 10.5644 15.6213C10.7659 15.6899 10.9801 15.707 11.1644 15.8356C11.2501 15.8999 11.3444 15.9556 11.4473 16.007C11.593 16.0756 11.6701 16.2299 11.7901 16.337C11.8244 16.3713 11.8459 16.3628 11.8459 16.3113C11.8459 16.3028 11.8501 16.2985 11.8587 16.2942C11.8844 16.2856 11.9016 16.2942 11.9144 16.3156C11.953 16.3842 12.0001 16.4356 12.0687 16.4699C12.1373 16.5042 12.1973 16.5556 12.2487 16.6156C12.3644 16.7613 12.493 16.877 12.6344 16.9713C12.6773 16.9928 12.7201 16.9928 12.7844 16.9713Z" fill="white"/>
<path d="M7.40157 17.207C6.92041 16.9625 6.48538 16.6362 6.11585 16.2428C5.88014 15.977 5.70014 15.7885 5.58014 15.6813C5.63585 15.617 5.67871 15.5999 5.70871 15.6385C5.82871 15.7499 6.02157 15.9685 6.29585 16.2942C6.44585 16.4699 6.81014 16.7742 7.40157 17.207Z" fill="white"/>
<path d="M11.8501 17.1642C11.6979 16.8557 11.4705 16.5904 11.1889 16.3927C10.9073 16.195 10.5806 16.0712 10.2387 16.0328C10.1997 16.0077 10.1557 15.9917 10.1097 15.9857C10.0638 15.9798 10.0171 15.9842 9.97299 15.9985L9.47157 15.9813C8.93157 15.9342 8.52871 16.0499 8.03157 16.1356C8.03585 16.0242 8.083 15.9599 8.16014 15.9428C8.81157 15.7928 9.44585 15.737 10.0673 15.7713C10.3673 15.7928 10.6759 15.8785 10.9973 16.037C11.3965 16.2215 11.7106 16.5509 11.8759 16.9585C11.9144 17.0442 11.9016 17.1128 11.8501 17.1642Z" fill="white"/>
<path d="M9.47157 15.9856L8.35299 16.1913C8.32299 16.1956 8.31014 16.2128 8.31871 16.2428C8.32728 16.277 8.36157 16.3156 8.42157 16.3542C8.27032 16.3311 8.13215 16.2552 8.03157 16.1399C8.52442 16.0542 8.93157 15.9342 9.47157 15.9813V15.9856Z" fill="white"/>
<path d="M11.7644 17.4128C11.7387 17.4428 11.7344 17.4556 11.743 17.4685C11.6744 17.477 11.6144 17.4813 11.5716 17.4728C10.3052 17.3359 9.07243 16.9791 7.92871 16.4185C7.90728 16.4099 7.89871 16.3928 7.91157 16.3756L7.92014 16.3542C9.06273 16.9131 10.2914 17.2753 11.5544 17.4256C11.6187 17.4342 11.6873 17.4299 11.7644 17.4128Z" fill="white"/>
<path d="M11.8201 18.437C11.7644 18.4842 11.7944 18.5099 11.9144 18.5056C11.6616 18.5356 11.503 18.5485 11.4387 18.5485C10.3759 18.5485 9.34728 18.3685 8.35299 17.9999C8.13806 17.9197 7.93254 17.8163 7.74014 17.6913L7.74871 17.6742C7.75728 17.6656 7.76585 17.6613 7.77871 17.6656C8.56728 18.0685 9.39871 18.317 10.2816 18.4113C10.7916 18.4628 11.3059 18.4756 11.8201 18.437Z" fill="white"/>
</svg>
