<svg width="24" height="24" viewBox="0 0 24 24" fill="none" xmlns="http://www.w3.org/2000/svg">
<path fill-rule="evenodd" clip-rule="evenodd" d="M12.0001 19.2858C13.9324 19.2858 15.7855 18.5182 17.1518 17.1518C18.5182 15.7855 19.2858 13.9324 19.2858 12.0001C19.2858 10.0678 18.5182 8.21463 17.1518 6.84829C15.7855 5.48196 13.9324 4.71436 12.0001 4.71436C10.0678 4.71436 8.21463 5.48196 6.84829 6.84829C5.48196 8.21463 4.71436 10.0678 4.71436 12.0001C4.71436 13.9324 5.48196 15.7855 6.84829 17.1518C8.21463 18.5182 10.0678 19.2858 12.0001 19.2858ZM12.0001 18.9944C13.8551 18.9944 15.6341 18.2575 16.9458 16.9458C18.2575 15.6341 18.9944 13.8551 18.9944 12.0001C18.9944 10.1451 18.2575 8.36605 16.9458 7.05436C15.6341 5.74268 13.8551 5.00578 12.0001 5.00578C10.1451 5.00578 8.36605 5.74268 7.05436 7.05436C5.74268 8.36605 5.00578 10.1451 5.00578 12.0001C5.00578 13.8551 5.74268 15.6341 7.05436 16.9458C8.36605 18.2575 10.1451 18.9944 12.0001 18.9944Z" fill="white"/>
<path d="M11.2115 7.47436L11.9615 6.45007C11.9872 6.42007 12.0086 6.42007 12.0344 6.45007L12.7715 7.47864C12.3258 7.45721 12.2101 7.99293 12.6344 8.06578C13.0115 8.12578 13.3801 8.22007 13.7401 8.35721C13.9201 8.42578 14.1558 8.3015 14.1044 8.07864C14.0701 7.92864 13.9629 7.8215 13.7829 7.76578C13.7229 7.74436 13.7229 7.72721 13.7829 7.71007L14.9486 7.41864C15.0001 7.4015 15.0129 7.41864 14.9872 7.46578L14.1601 8.94436C14.1386 8.98293 14.1086 8.9915 14.0701 8.98293C12.7072 8.5715 11.3272 8.57578 9.93436 8.99578C9.90007 9.00864 9.87007 8.99578 9.85293 8.9615L9.01293 7.4615C8.98721 7.41864 9.00007 7.40578 9.04293 7.41864L10.1229 7.68864C10.2301 7.71436 10.2386 7.75293 10.1358 7.80864C9.94721 7.9115 9.76721 8.04864 9.93864 8.28864C9.97234 8.33384 10.02 8.36671 10.0742 8.3822C10.1284 8.39768 10.1862 8.39493 10.2386 8.37436C10.6115 8.22007 10.9929 8.11721 11.3829 8.06578C11.8029 8.01007 11.6529 7.43578 11.2115 7.47436ZM8.80293 10.6801L8.71721 10.7229C8.69716 10.7384 8.67361 10.7487 8.64864 10.7529C8.59721 10.7529 8.58007 10.7358 8.59293 10.6929C8.70864 10.2986 9.00007 9.95578 9.24436 9.6215C9.3215 9.52721 9.41578 9.45435 9.54436 9.4115C10.1744 9.19293 10.7615 9.06007 11.3144 9.0215C11.3315 9.0215 11.3444 9.03864 11.3358 9.0515C11.2672 9.18864 11.1515 9.28721 11.0015 9.3515C10.5301 9.5315 10.1272 9.60864 9.91293 10.1229C9.72864 10.5515 9.58721 11.2501 9.12864 11.4601C8.79864 11.6101 8.72578 12.0301 8.68293 12.3472C8.67436 12.4329 8.65721 12.4329 8.64007 12.3472C8.56721 12.0472 8.55436 11.7558 8.59721 11.4729C8.6315 11.2072 8.79007 10.9886 8.86293 10.7315C8.88007 10.6758 8.86293 10.6586 8.80293 10.6801Z" fill="white"/>
<path d="M12.3301 11.7344C12.3301 11.9186 12.3644 11.9229 12.4372 11.7515C12.4801 11.6529 12.5058 11.5544 12.5229 11.4515C12.5229 11.4301 12.5315 11.4086 12.5529 11.3958C12.5701 11.3786 12.5958 11.3744 12.6172 11.3701C12.7458 11.3701 12.8744 11.3786 13.0072 11.4001C13.3286 11.4558 13.6072 11.4001 13.8429 11.2286C13.8858 11.2029 13.8858 11.1772 13.8429 11.1472C13.5172 10.8986 13.0286 11.0315 12.6472 11.1129C12.5786 11.1258 12.5701 11.1129 12.6215 11.0658C12.9215 10.7958 13.3072 10.6929 13.7615 10.7529L13.8815 10.7572C13.9629 10.7572 14.0186 10.7915 14.0444 10.8601C14.1344 11.0958 14.2586 11.5586 14.5458 11.6444C14.5715 11.6529 14.5801 11.6786 14.5629 11.6958C14.3058 12.0044 14.0915 12.3386 13.9372 12.7072C13.8858 12.8272 13.7229 12.8829 13.5944 12.8358L12.8915 12.5529C12.8529 12.5358 12.8315 12.5101 12.8272 12.4801C12.8159 12.4274 12.7931 12.3778 12.7605 12.3348C12.7279 12.2919 12.6863 12.2566 12.6386 12.2315C12.619 12.2192 12.5968 12.2117 12.5737 12.2095C12.5507 12.2072 12.5274 12.2104 12.5058 12.2186C12.4918 12.223 12.4789 12.2303 12.4679 12.2398C12.4568 12.2494 12.4478 12.2612 12.4415 12.2744C12.4158 12.3386 12.4415 12.3601 12.5101 12.3472C12.5658 12.3344 12.6172 12.3644 12.6601 12.4372C12.6815 12.4801 12.6772 12.5229 12.6429 12.5572C12.6319 12.5682 12.6188 12.5769 12.6044 12.5829L12.1286 12.7715C12.0676 12.7973 11.9997 12.8018 11.9358 12.7844C11.7441 12.7297 11.5576 12.658 11.3786 12.5701C11.2801 12.5186 11.2972 12.3772 11.4086 12.3558C11.4422 12.3468 11.4773 12.3453 11.5115 12.3515C11.5629 12.3601 11.5672 12.3086 11.5629 12.2786C11.5544 12.2401 11.5286 12.2186 11.4901 12.2144C11.2715 12.1801 11.2072 12.3301 11.1601 12.4801C11.1542 12.4981 11.1442 12.5145 11.1308 12.5279C11.1174 12.5413 11.101 12.5514 11.0829 12.5572L10.4229 12.8229C10.2429 12.8958 10.1186 12.8529 10.0458 12.6944C9.87436 12.3344 9.67721 12.0044 9.4415 11.6915C9.42007 11.6658 9.42436 11.6486 9.46293 11.6315C9.7715 11.5201 9.84864 11.0829 9.96436 10.8258C9.97721 10.7958 10.0072 10.7744 10.0458 10.7701C10.5472 10.6929 10.9458 10.7572 11.2372 10.9586C11.4386 11.1001 11.4172 11.1386 11.1644 11.0786C10.8386 11.0015 10.4358 10.9329 10.1444 11.1386C10.1355 11.144 10.1281 11.1515 10.123 11.1605C10.1179 11.1695 10.1153 11.1797 10.1153 11.1901C10.1153 11.2004 10.1179 11.2106 10.123 11.2196C10.1281 11.2286 10.1355 11.2362 10.1444 11.2415C10.4444 11.4258 10.8044 11.4644 11.2244 11.3615C11.3529 11.3315 11.4386 11.3744 11.4772 11.4901L11.5758 11.8501C11.5886 11.8929 11.6615 11.9144 11.6615 11.8586L11.6486 10.8772C11.6486 10.8386 11.6272 10.8129 11.5886 10.7915C11.1424 10.604 10.6721 10.4799 10.1915 10.4229C10.1486 10.4186 10.1401 10.3972 10.1529 10.3629C10.3244 9.99436 10.5729 9.8015 10.8944 9.78007C11.3572 9.75435 11.5929 9.39007 11.7558 9.0515C11.7729 9.01721 11.7986 9.00436 11.8415 9.00436L12.1329 9.00007C12.1544 9.00007 12.1758 9.00436 12.1929 9.01721C12.2101 9.02578 12.2229 9.03864 12.2358 9.06007C12.3858 9.37721 12.6601 9.77578 13.0972 9.78007C13.4486 9.78436 13.7058 10.1015 13.8472 10.3715C13.8644 10.3972 13.8515 10.4144 13.8215 10.4144C13.3286 10.4786 12.8529 10.6072 12.3901 10.8086C12.3558 10.8215 12.3386 10.8472 12.3344 10.8815V11.7344H12.3301Z" fill="white"/>
<path d="M15.0858 10.7058C15.077 10.7302 15.0736 10.7563 15.0758 10.7822C15.078 10.8081 15.0858 10.8332 15.0986 10.8558C15.3729 11.3272 15.4415 11.8201 15.2915 12.3429C15.2615 12.4458 15.2444 12.4458 15.2358 12.3344C15.2144 12.0772 15.1501 11.8544 15.0515 11.6701C14.9444 11.4644 14.7129 11.4558 14.5544 11.2929C14.4686 11.2115 14.4044 11.1215 14.3572 11.0186C14.2029 10.7058 14.0572 10.3758 13.9158 10.0372C13.8129 9.79721 13.5815 9.46293 13.2901 9.43721C13.1671 9.42845 13.0451 9.40837 12.9258 9.37721C12.8458 9.35648 12.7749 9.30974 12.7244 9.24435L12.6258 9.10721C12.5701 9.03864 12.5915 9.00435 12.6815 9.01293C13.3372 9.07721 13.9672 9.22293 14.5715 9.45435C14.6144 9.46721 14.6444 9.49721 14.6658 9.5315C14.8158 9.78007 14.9829 10.0158 15.1672 10.2386C15.2829 10.3801 15.3686 10.5429 15.4244 10.7272C15.4372 10.7744 15.4244 10.7958 15.3729 10.7829C15.2971 10.7657 15.2265 10.7304 15.1672 10.6801C15.1372 10.6586 15.0944 10.6715 15.0815 10.7058H15.0858Z" fill="white"/>
<path d="M14.8458 14.4172C14.9744 14.7172 14.9315 15.0172 14.7344 15.3086C14.6144 15.4801 14.5715 15.4672 14.6144 15.2744C14.7472 14.6701 14.0572 14.1601 14.1515 13.5258C14.267 12.9767 14.5108 12.4627 14.8629 12.0258C14.8886 11.9915 14.9101 11.9915 14.9315 12.0258C15.1886 12.4544 15.2658 12.8701 15.1672 13.2686C15.0386 13.8044 15.7844 13.9415 15.2101 14.5629C15.1758 14.5972 15.1458 14.5972 15.1158 14.5629L14.9358 14.3529C14.9015 14.3186 14.8286 14.3786 14.8458 14.4172ZM9.08578 14.0744C9.04762 14.0831 9.01213 14.1009 8.9823 14.1263C8.95246 14.1517 8.92916 14.1838 8.91436 14.2201C8.88436 14.2844 8.8415 14.2886 8.7815 14.2372C8.54578 14.0401 8.49436 13.7486 8.70436 13.5301C8.76436 13.4658 8.8115 13.4015 8.8415 13.3329C8.85624 13.3037 8.85931 13.27 8.85007 13.2386C8.79044 13.0296 8.77953 12.8096 8.81816 12.5956C8.85679 12.3817 8.94394 12.1794 9.07293 12.0044C9.08673 11.9991 9.10199 11.9991 9.11578 12.0044C9.12405 12.0064 9.13151 12.0109 9.13721 12.0172C9.5315 12.4886 10.0629 13.2558 9.77578 13.7915C9.5615 14.1901 9.33864 14.4986 9.37293 14.9486C9.37721 15.0129 9.35578 15.0172 9.30436 14.9615C9.06007 14.6915 9.00436 14.4044 9.14578 14.1172C9.15864 14.0915 9.12007 14.0658 9.08578 14.0744ZM11.4429 13.6758C10.7744 13.8729 10.2429 14.2758 10.3286 14.9915C10.3629 15.2572 10.5601 15.4544 10.6886 15.6858C10.7095 15.7258 10.7215 15.77 10.7237 15.8151C10.7259 15.8602 10.7184 15.9053 10.7015 15.9472C10.6072 16.1872 10.5258 16.4315 10.7015 16.6672C10.7272 16.7101 10.7186 16.7229 10.6672 16.7101C10.6102 16.6982 10.5564 16.6746 10.5091 16.6406C10.4619 16.6067 10.4223 16.5632 10.3929 16.5129C10.3824 16.4958 10.3758 16.4765 10.3736 16.4565C10.3714 16.4365 10.3736 16.4163 10.3801 16.3972C10.4572 16.1529 10.2815 15.9944 10.1315 15.8186C9.67721 15.2744 9.86578 14.4215 10.1315 13.8386C10.3072 13.4529 10.7658 13.1958 11.0615 12.8786C11.1386 12.7929 11.2844 12.9815 11.3486 13.0115C11.6058 13.1486 11.8286 13.2129 12.0129 13.2086C12.3059 13.1915 12.5854 13.0803 12.8101 12.8915C12.8444 12.8572 12.8786 12.8572 12.9172 12.8915C13.0972 13.0501 13.2944 13.2215 13.5044 13.3929C13.9758 13.7786 14.1044 14.3958 14.1386 14.9572C14.1686 15.3772 14.0144 15.6815 13.7315 15.9858C13.6029 16.1229 13.5729 16.2686 13.6286 16.4229C13.634 16.4352 13.6364 16.4486 13.6357 16.462C13.6349 16.4754 13.6311 16.4884 13.6244 16.5001C13.5962 16.5505 13.5582 16.5947 13.5125 16.6301C13.4668 16.6654 13.4145 16.6912 13.3586 16.7058C13.3029 16.7229 13.2901 16.7058 13.3244 16.6629C13.6415 16.2258 13.1701 15.8572 13.5258 15.3815C13.8986 14.8844 13.7101 14.2715 13.2086 13.9501C13.0116 13.8304 12.7978 13.7408 12.5744 13.6844C12.5266 13.6704 12.4755 13.6719 12.4286 13.6886C12.151 13.7875 11.8472 13.7845 11.5715 13.6801C11.5299 13.6654 11.4845 13.6654 11.4429 13.6801V13.6758Z" fill="white"/>
<path d="M11.9701 14.2201C12.2829 14.2201 12.5358 14.1729 12.5358 14.1086C12.5358 14.0486 12.2786 13.9972 11.9701 13.9972C11.6572 13.9972 11.4001 14.0486 11.4001 14.1086C11.4001 14.1686 11.6572 14.2201 11.9701 14.2201Z" fill="white"/>
<path d="M12.1501 16.1872C12.1672 16.3586 12.1029 16.5086 11.9486 16.6501C11.8972 16.7015 11.8972 16.9415 11.8201 16.9158C11.5037 16.8113 11.226 16.6142 11.0229 16.3501C11.0101 16.3332 11.0017 16.3133 10.9987 16.2923C10.9957 16.2713 10.9982 16.2499 11.0058 16.2301C11.1472 15.8872 11.0486 15.5615 10.8601 15.2744C10.6544 14.9615 10.6672 14.6486 10.8944 14.3401C10.9672 14.2415 11.0658 14.1815 11.1858 14.1601C11.2158 14.1558 11.2415 14.1601 11.2672 14.1772C11.7601 14.4986 12.2358 14.4944 12.6815 14.1644C12.6953 14.1537 12.7115 14.1466 12.7287 14.1436C12.7458 14.1406 12.7635 14.1418 12.7801 14.1472C13.0544 14.2244 13.2215 14.4172 13.2772 14.7301C13.3201 14.9829 13.1915 15.1715 13.0715 15.3729C12.8915 15.6944 12.8915 16.0715 13.0844 16.3715C13.1229 16.4358 13.1101 16.4872 13.0501 16.5301C12.9344 16.6158 12.8015 16.6586 12.6558 16.6672C12.6129 16.6672 12.5786 16.6844 12.5444 16.7186C12.4458 16.8129 12.3858 16.9329 12.3601 17.0658C12.3472 17.1515 12.3086 17.1686 12.2486 17.1001C12.1629 17.0101 12.1029 16.9201 12.1415 16.7872L12.2829 16.3158C12.3001 16.2515 12.2315 16.2044 12.1972 16.1658C12.1586 16.1315 12.1458 16.1401 12.1544 16.1872H12.1501Z" fill="white"/>
</svg>
