<svg width="24" height="24" viewBox="0 0 24 24" fill="none" xmlns="http://www.w3.org/2000/svg">
<path d="M5.44265 12.0558C5.30979 10.9587 5.79408 9.60013 6.05122 9.05585L6.72836 9.75013C6.39878 10.5577 6.25806 11.4299 6.31693 12.3001L5.44265 12.0558Z" fill="white"/>
<path d="M6.04265 9.01728L6.75836 9.74585L6.74979 9.7587C6.42273 10.5624 6.28348 11.4302 6.34265 12.2958V12.3344L5.41693 12.0773V12.0558C5.34836 11.503 5.43836 10.8858 5.5755 10.3416C5.71265 9.79727 5.90122 9.32156 6.02979 9.04728L6.04693 9.01728H6.04265ZM6.05979 9.10299C5.93122 9.37727 5.7555 9.83156 5.62265 10.3544C5.47258 10.901 5.41892 11.4695 5.46408 12.0344L6.28693 12.2658C6.24408 11.8244 6.27836 10.7658 6.69836 9.75442L6.0555 9.10299H6.05979Z" fill="white"/>
<path d="M18.5569 11.9444C18.6898 13.0416 18.2055 14.4001 17.9484 14.9444L17.2712 14.2501C17.6008 13.4426 17.7415 12.5704 17.6826 11.7001L18.5569 11.9444Z" fill="white"/>
<path d="M17.9569 14.9873L17.2412 14.2587L17.2498 14.2416C17.5768 13.4379 17.7161 12.5701 17.6569 11.7044V11.6658L18.5826 11.923V11.9444C18.6512 12.4973 18.5612 13.1144 18.4241 13.6587C18.3132 14.1033 18.1611 14.5366 17.9698 14.953L17.9526 14.9873H17.9569ZM17.9398 14.9016C18.0684 14.623 18.2441 14.1687 18.3769 13.6458C18.5098 13.1101 18.5955 12.5058 18.5355 11.9658L17.7126 11.7344C17.7555 12.1758 17.7212 13.2344 17.3012 14.2458L17.9441 14.8973L17.9398 14.9016Z" fill="white"/>
<path d="M5.93122 6.33013H4.63265L10.0926 11.9958L8.09979 14.0658L5.7855 11.683L3.89122 13.6287L8.09979 17.9444L11.9998 13.9587L14.9655 17.0316L16.3369 17.1387L11.9998 12.6387L8.09979 16.6887L5.14265 13.6244L5.7855 12.9558L8.09979 15.3944L11.4084 11.9958L5.93122 6.33013Z" fill="white"/>
<path d="M4.57265 6.30013H5.94408L11.4426 12.0001L8.09979 15.4287L5.78551 12.9944L5.17693 13.6244L8.09979 16.6501L11.9998 12.6044L16.3798 17.1558L14.9526 17.0573L11.9955 13.9973L8.09979 17.983L3.85693 13.6287L5.78551 11.6487L8.09979 14.0273L10.0584 12.0001L4.57265 6.3087V6.30013ZM4.69265 6.35585L10.1269 11.9958L8.09979 14.1001L5.78551 11.7173L3.9255 13.6287L8.09979 17.9101L11.9998 13.9244L14.9784 17.0101L16.2769 17.1044L11.9998 12.6773L8.09979 16.723L5.10836 13.6244L5.78979 12.9216L8.10408 15.3558L11.3698 12.0001L5.92265 6.35585H4.69265Z" fill="white"/>
<path d="M18.0684 17.6701H19.3669L13.9069 12.0044L15.8998 9.93442L18.2141 12.3173L20.1084 10.3716L15.8998 6.05585L11.9998 10.0416L9.03408 6.9687L7.66265 6.86156L11.9998 11.3616L15.8998 7.31156L18.8569 10.3758L18.2141 11.0444L15.8998 8.60585L12.5912 12.0044L18.0684 17.6701Z" fill="white"/>
<path d="M19.4269 17.7001H18.0555L12.5569 12.0001L15.8998 8.57156L18.2141 11.0058L18.8226 10.3758L15.8998 7.35013L11.9998 11.3958L7.64122 6.87442L9.04693 6.94299L12.0041 10.003L15.8998 6.01727L20.1426 10.3716L18.2141 12.3516L15.8998 9.97299L13.9412 12.0001L19.4269 17.6916V17.7001ZM19.3069 17.6444L13.8726 12.0044L15.8998 9.90013L18.2141 12.283L20.0741 10.3716L15.8998 6.09013L11.9998 10.0758L9.02122 6.99013L7.72265 6.89585L11.9998 11.323L15.8998 7.27727L18.8912 10.3758L18.2098 11.0787L15.8955 8.64442L12.6298 12.0001L18.0769 17.6401H19.3069V17.6444Z" fill="white"/>
<path d="M8.09979 16.6844L8.09979 17.9444L11.9998 13.9587L14.9784 17.0487L16.3412 17.1344L11.9998 12.643L8.09979 16.6887L8.09979 16.6844Z" fill="white"/>
<path d="M11.9998 12.6044L16.3798 17.1601L14.9355 17.0316L11.9998 14.0016L8.09979 17.9873V16.6587L11.9998 12.6001L11.9998 12.6044ZM8.09979 16.7144V17.9058L11.9998 13.9287L15.0212 17.0444L16.3241 17.1558L11.9955 12.6816L8.09979 16.7144Z" fill="white"/>
<path d="M15.8998 7.31585V6.05585L11.9998 10.0416L9.03408 6.9687L7.65836 6.86156L11.9998 11.3616L15.8998 7.31156V7.31585Z" fill="white"/>
<path d="M11.9998 11.3958L7.6455 6.8787L9.04693 6.94299L12.0041 10.003L15.8998 6.01727V7.34156L11.9998 11.3958ZM15.8998 7.28156V6.08585L11.9998 10.0716L9.02122 6.98585L7.72265 6.89156L11.9998 11.323L15.8998 7.28156Z" fill="white"/>
<path d="M12.1369 18.8273C10.7961 18.8411 9.48203 18.4513 8.3655 17.7087L9.02979 17.0401C9.94631 17.5875 10.9923 17.8804 12.0598 17.8887C13.5812 17.8373 14.4855 17.3316 14.9612 17.0401L16.3326 17.1301C15.7069 17.7687 14.2069 18.7373 12.1326 18.8273H12.1369Z" fill="white"/>
<path d="M9.0255 17.0101L9.04265 17.0187C9.95535 17.5635 10.9969 17.855 12.0598 17.863C13.0818 17.8512 14.0809 17.5592 14.9484 17.0187L16.3798 17.1601C15.7498 17.7987 14.2155 18.763 12.1369 18.853C10.4741 18.9258 8.92265 18.133 8.35265 17.7301L8.32693 17.713L9.0255 17.0101ZM15.0426 17.0273C14.1454 17.584 13.1154 17.8903 12.0598 17.9144C11.5369 17.9358 10.2084 17.7901 9.03408 17.0744L8.40408 17.7044C8.98693 18.1116 10.5084 18.8701 12.1326 18.8016C14.1555 18.7158 15.6555 17.7816 16.2984 17.1516L15.0426 17.0273Z" fill="white"/>
<path d="M11.8626 5.17299C13.2035 5.15919 14.5176 5.54893 15.6341 6.29156L14.9698 6.96013C14.0533 6.41276 13.0073 6.11983 11.9398 6.11156C10.4184 6.16299 9.41122 6.6987 8.93979 6.99442L7.69693 6.89156C8.83138 5.83341 10.312 5.22409 11.8626 5.17727V5.17299Z" fill="white"/>
<path d="M14.9741 6.99013L14.9569 6.98156C14.0442 6.43674 13.0027 6.14529 11.9398 6.13727C10.4226 6.1887 9.51836 6.69442 9.04265 6.98585L7.64122 6.8787L7.64979 6.85299C8.27979 6.21013 9.78408 5.23727 11.8626 5.14727C13.5255 5.07442 15.0769 5.86727 15.6469 6.27013L15.6726 6.28727L14.9741 6.99013ZM8.95693 6.97728C9.85342 6.41831 10.8836 6.11044 11.9398 6.08585C12.4584 6.06442 13.7912 6.21013 14.9655 6.92585L15.5955 6.29585C14.489 5.56826 13.1911 5.18634 11.8669 5.1987C10.3263 5.25399 8.85443 5.85033 7.70979 6.88299L8.95265 6.97728H8.95693Z" fill="white"/>
</svg>
