<svg width="24" height="24" viewBox="0 0 24 24" fill="none" xmlns="http://www.w3.org/2000/svg">
<path d="M6.92136 6H9.85707V7.71429H7.28564V11.64L6.85707 11.94V12.4114L7.28564 12.69V16.2857H9.85707V18H6.92136L5.57136 16.2857V12.8571H4.28564V11.1429H5.57136V7.71429L6.92136 6ZM17.0785 6H14.1428V7.71429H16.7142V11.64L17.1428 11.94V12.4114L16.7142 12.69V16.2857H14.1428V18H17.0785L18.4285 16.2857V12.8571H19.7142V11.1429H18.4285V7.71429L17.0785 6Z" fill="white"/>
<path fill-rule="evenodd" clip-rule="evenodd" d="M11.9999 14.5714C12.3376 14.5714 12.672 14.5049 12.984 14.3757C13.296 14.2465 13.5794 14.0571 13.8182 13.8183C14.057 13.5795 14.2464 13.296 14.3756 12.984C14.5048 12.6721 14.5714 12.3377 14.5714 12C14.5714 11.6623 14.5048 11.3279 14.3756 11.016C14.2464 10.704 14.057 10.4205 13.8182 10.1817C13.5794 9.94295 13.296 9.75354 12.984 9.62431C12.672 9.49508 12.3376 9.42857 11.9999 9.42857C11.3179 9.42857 10.6639 9.69949 10.1817 10.1817C9.69942 10.664 9.4285 11.318 9.4285 12C9.4285 12.682 9.69942 13.336 10.1817 13.8183C10.6639 14.3005 11.3179 14.5714 11.9999 14.5714ZM11.9999 13.2857C12.3409 13.2857 12.6679 13.1503 12.9091 12.9091C13.1502 12.668 13.2856 12.341 13.2856 12C13.2856 11.659 13.1502 11.332 12.9091 11.0909C12.6679 10.8497 12.3409 10.7143 11.9999 10.7143C11.6589 10.7143 11.3319 10.8497 11.0908 11.0909C10.8497 11.332 10.7142 11.659 10.7142 12C10.7142 12.341 10.8497 12.668 11.0908 12.9091C11.3319 13.1503 11.6589 13.2857 11.9999 13.2857Z" fill="white"/>
</svg>
