<svg width="24" height="24" viewBox="0 0 24 24" fill="none" xmlns="http://www.w3.org/2000/svg">
<path d="M7.27265 8.57122C6.87799 8.55695 6.48461 8.62389 6.11688 8.76787C5.74914 8.91185 5.4149 9.12982 5.13484 9.40826C4.85479 9.68671 4.63491 10.0197 4.48881 10.3866C4.34271 10.7535 4.27352 11.1465 4.28551 11.5412V16.1912C4.28551 16.2769 4.29408 16.2855 4.37551 16.2855H5.9098C5.98694 16.2855 5.9998 16.2769 5.9998 16.1912V14.5712H7.21265C9.05551 14.5712 10.2855 13.2512 10.2855 11.5626C10.2963 11.1651 10.2255 10.7695 10.0777 10.4003C9.92977 10.031 9.70788 9.69598 9.42563 9.41575C9.14339 9.13551 8.80677 8.91602 8.4365 8.77077C8.06624 8.62553 7.67016 8.55762 7.27265 8.57122ZM7.27265 10.2855C8.09122 10.2855 8.57122 10.8426 8.57122 11.5798C8.57122 12.3126 8.09122 12.8569 7.22551 12.8569H5.9998V11.5712C5.9998 10.8469 6.44551 10.2855 7.27694 10.2855H7.27265ZM17.1298 8.57122C16.7351 8.55695 16.3418 8.62389 15.974 8.76787C15.6063 8.91185 15.272 9.12982 14.992 9.40826C14.7119 9.68671 14.4921 10.0197 14.346 10.3866C14.1999 10.7535 14.1307 11.1465 14.1427 11.5412V16.1912C14.1427 16.2769 14.1512 16.2855 14.2327 16.2855H15.7669C15.8441 16.2855 15.8569 16.2769 15.8569 16.1912V14.5712H17.0698C18.9127 14.5712 20.1427 13.2512 20.1427 11.5626C20.1534 11.1651 20.0827 10.7695 19.9348 10.4003C19.7869 10.031 19.565 9.69598 19.2828 9.41575C19.0005 9.13551 18.6639 8.91602 18.2936 8.77077C17.9234 8.62553 17.5273 8.55762 17.1298 8.57122ZM17.1298 10.2855C17.9484 10.2855 18.4284 10.8426 18.4284 11.5798C18.4284 12.3126 17.9484 12.8569 17.0827 12.8569H15.8569V11.5712C15.8569 10.8469 16.3027 10.2855 17.1341 10.2855H17.1298ZM11.2369 10.7141C11.1855 10.7141 11.1427 10.7484 11.1427 10.7912V14.4941C11.1427 14.5369 11.1855 14.5712 11.2369 14.5712H12.7627C12.8141 14.5712 12.8569 14.5369 12.8569 14.4941V10.7912C12.8569 10.7484 12.8141 10.7141 12.7627 10.7141H11.2369ZM11.1427 9.42836C11.1427 9.20103 11.233 8.98302 11.3937 8.82227C11.5545 8.66152 11.7725 8.57122 11.9998 8.57122C12.2271 8.57122 12.4451 8.66152 12.6059 8.82227C12.7666 8.98302 12.8569 9.20103 12.8569 9.42836C12.8569 9.65569 12.7666 9.87371 12.6059 10.0345C12.4451 10.1952 12.2271 10.2855 11.9998 10.2855C11.7725 10.2855 11.5545 10.1952 11.3937 10.0345C11.233 9.87371 11.1427 9.65569 11.1427 9.42836Z" fill="white"/>
</svg>
