<svg width="24" height="24" viewBox="0 0 24 24" fill="none" xmlns="http://www.w3.org/2000/svg">
<path d="M10.2769 6.44551L6.85693 11.5712L11.9998 20.1426L17.1426 11.5712L13.7226 6.44551L14.7341 11.5712H15.9384L12.4284 17.9998V11.5712H13.5298L12.0169 3.87836L11.9998 3.85693L11.9826 3.87836L10.4698 11.5712H11.5712V17.9998L8.05693 11.5712H9.26551L10.2769 6.44551Z" fill="white"/>
<path d="M10.2769 6.44551L6.85693 11.5712L11.9998 20.1426L17.1426 11.5712L13.7226 6.44551L14.7341 11.5712H15.9384L12.4284 17.9998V11.5712H13.5298L12.0169 3.87836L11.9998 3.85693L11.9826 3.87836L10.4698 11.5712H11.5712V17.9998L8.05693 11.5712H9.26551L10.2769 6.44551Z" fill="white"/>
</svg>
