<svg width="24" height="24" viewBox="0 0 24 24" fill="none" xmlns="http://www.w3.org/2000/svg">
<path d="M11.9998 18.8572C13.0617 18.8571 14.1091 18.6105 15.0594 18.1367C16.0098 17.6629 16.837 16.9748 17.4761 16.1267C18.1152 15.2787 18.5485 14.2938 18.7421 13.2497C18.9356 12.2056 18.884 11.1308 18.5913 10.11C18.6256 10.3072 18.6427 10.5086 18.6427 10.7143C18.6427 13.4572 15.9298 14.1429 14.5713 14.1429H9.42842L8.99985 16.2857H6.6427C7.9027 17.8543 9.83556 18.8572 11.9998 18.8572Z" fill="white"/>
<path d="M6.47128 16.0586C5.90076 15.2797 5.50115 14.3891 5.2986 13.4451C5.09605 12.5012 5.09512 11.525 5.29589 10.5807C5.49665 9.63629 5.89458 8.74496 6.46362 7.965C7.03267 7.18505 7.76 6.53405 8.59802 6.05462C9.43605 5.57518 10.3659 5.27812 11.3266 5.18287C12.2874 5.08762 13.2574 5.19633 14.1733 5.50188C15.0891 5.80744 15.9301 6.30295 16.6413 6.95599C17.3524 7.60903 17.9176 8.40487 18.2998 9.29144C17.9056 8.62715 17.1127 8.14287 15.6427 8.14287H9.42842L7.28556 10.2857H14.5713V9.42858L17.1427 11.1429L14.5713 12.8572V12H7.28556L6.47128 16.0586Z" fill="white"/>
</svg>
