<svg width="24" height="24" viewBox="0 0 24 24" fill="none" xmlns="http://www.w3.org/2000/svg">
<path d="M7.71436 10.8513C7.71007 11.6099 7.14864 12.2227 6.37293 12.2142L7.63293 14.1427H8.14293V14.5713H6.42864V14.1427H6.98578L5.79436 12.2142H4.71436V14.1427H5.14293V14.5713H3.85721V14.1427H4.28578V9.85701H3.85721V9.42844H6.27007C7.08436 9.42844 7.70578 10.0242 7.71436 10.8513ZM6.24007 9.85701H4.71436V11.7856H6.34293C6.58814 11.7773 6.82125 11.677 6.99594 11.5047C7.17062 11.3324 7.27409 11.1007 7.28578 10.8556C7.30721 10.3284 6.7715 9.85701 6.24007 9.85701ZM10.6715 11.6442C11.1986 11.777 11.8972 11.9827 12.2144 12.4242C12.3001 12.5484 12.3601 12.6856 12.3858 12.8356C12.4286 12.977 12.4372 13.127 12.4201 13.277C12.3944 13.4484 12.3344 13.607 12.2486 13.7527C12.1629 13.8984 12.0601 14.0227 11.9315 14.1299C11.5568 14.4332 11.0847 14.5901 10.6029 14.5713H10.5686C9.99697 14.5532 9.44659 14.3501 9.00007 13.9927V14.5713H8.5715V12.857H9.00007V13.277C9.34721 13.8342 10.1315 14.1427 10.7401 14.1427C11.3058 14.1342 12.1201 13.6584 12.0001 13.0027C11.8801 12.4542 11.0358 12.2013 10.5686 12.0899L10.3201 12.0213L10.2729 12.0084C9.57864 11.8284 8.76007 11.6184 8.78578 10.7227C8.76864 9.81844 9.58721 9.42844 10.3586 9.42844C10.8729 9.4413 11.1601 9.60416 11.5715 9.90416V9.42844H12.0001V11.1427H11.5715V10.5856C11.2029 10.0713 10.8558 9.86558 10.3586 9.85701C9.87864 9.85701 9.25721 10.1613 9.21436 10.7227C9.24864 11.2584 9.78864 11.3999 10.2644 11.5199C10.4144 11.5627 10.5558 11.597 10.6715 11.6442ZM19.3715 11.8156C19.8558 11.9827 20.1429 12.4242 20.1429 13.0713C20.1429 13.9927 19.3415 14.5713 18.3815 14.5713C18.0699 14.5695 17.7618 14.5052 17.4755 14.3823C17.1891 14.2593 16.9303 14.0802 16.7144 13.8556L17.0358 13.4484L17.0658 13.4827C17.2283 13.678 17.4295 13.8374 17.6567 13.951C17.8838 14.0646 18.1321 14.1299 18.3858 14.1427C19.0886 14.1427 19.6886 13.6842 19.7186 13.037C19.7186 12.4584 19.1872 11.9999 18.5444 11.9999H18.0001V11.5713H18.5101C19.0244 11.5713 19.5001 11.2713 19.5001 10.757C19.5001 10.2127 19.0201 9.85701 18.3472 9.85701C17.8029 9.85701 17.5158 10.1442 17.3229 10.4142L16.9372 10.1784C17.0829 9.937 17.2914 9.73967 17.5405 9.60757C17.7896 9.47547 18.0699 9.41355 18.3515 9.42844C19.2772 9.42844 19.9286 9.82701 19.9286 10.7142C19.9286 11.1213 19.7915 11.5713 19.3715 11.8113V11.8156ZM16.5001 12.4242C16.1829 11.9827 15.4844 11.7813 14.9572 11.6442C14.8415 11.597 14.7001 11.5584 14.5501 11.5199C14.0786 11.3999 13.5344 11.2584 13.5001 10.7227C13.5429 10.1656 14.1644 9.85701 14.6444 9.85701C15.1415 9.86558 15.4886 10.0713 15.8572 10.5856V11.1427H16.2858V9.42844H15.8572V9.90416C15.4458 9.60416 15.1586 9.4413 14.6444 9.42844C13.8729 9.42844 13.0586 9.81416 13.0715 10.7227C13.0458 11.6184 13.8644 11.8284 14.5586 12.0084L14.6058 12.0213L14.8544 12.0899C15.3258 12.2013 16.1658 12.4542 16.2858 13.0027C16.4058 13.6584 15.5915 14.1342 15.0258 14.1427C14.4172 14.1427 13.6329 13.8299 13.2858 13.277V12.857H12.8572V14.5713H13.2858V13.9927C13.7323 14.3501 14.2827 14.5532 14.8544 14.5713H14.8886C15.1672 14.5713 15.7629 14.537 16.2172 14.1299C16.3458 14.0227 16.4529 13.8984 16.5344 13.7527C16.6201 13.607 16.6801 13.4442 16.7058 13.277C16.7229 13.127 16.7101 12.977 16.6715 12.8356C16.6458 12.6856 16.5858 12.5484 16.5001 12.4242ZM1.71436 11.5713H3.00007V12.4284H1.71436V11.5713ZM21.0001 11.5713H22.2858V12.4284H21.0001V11.5713Z" fill="white"/>
</svg>
