<svg width="24" height="24" viewBox="0 0 24 24" fill="none" xmlns="http://www.w3.org/2000/svg">
<path d="M7.12293 6.68554C6.5315 7.18269 5.91864 7.79983 5.66579 8.54983C5.38293 9.43269 5.78579 10.3327 6.16722 11.1213C6.55293 11.9227 6.96864 12.7113 7.33293 13.5384C7.62007 14.1898 8.01864 14.9527 7.92436 15.6855C7.84722 16.2041 7.67579 16.7013 7.5815 17.2198C7.50436 17.567 7.83007 17.2198 7.9415 17.1255C8.61436 16.5513 9.33864 15.8955 9.60436 15.0127C9.7163 14.5927 9.68308 14.1472 9.51007 13.7484C9.36007 13.3455 9.18436 12.9598 9.01293 12.557C8.64864 11.7513 8.26722 10.9455 7.88579 10.1398C7.7315 9.85269 7.5815 9.54412 7.44436 9.23983C7.31051 8.90946 7.2337 8.55876 7.21722 8.20269C7.20007 7.91126 7.20007 7.64554 7.23436 7.3584C7.25579 7.14412 7.3115 6.95554 7.33293 6.74126C7.35007 6.62983 7.25579 6.59126 7.11864 6.68554H7.12293ZM15.8744 6.68554C15.2829 7.18697 14.6701 7.79983 14.4215 8.54983C14.1344 9.43269 14.5372 10.3327 14.9186 11.1213C15.3044 11.927 15.7201 12.7113 16.0844 13.5384C16.3715 14.1898 16.7701 14.957 16.6758 15.6855C16.6029 16.2041 16.4272 16.7055 16.3329 17.2241C16.2558 17.567 16.5815 17.2241 16.6972 17.1255C17.3658 16.5513 18.0901 15.8998 18.3601 15.017C18.4717 14.5951 18.4369 14.1479 18.2615 13.7484C18.1115 13.3455 17.9401 12.9641 17.7644 12.557C17.3969 11.7474 17.0211 10.9417 16.6372 10.1398C16.4872 9.85269 16.3329 9.54412 16.2001 9.23983C16.0651 8.90959 15.9869 8.55896 15.9686 8.20269C15.9515 7.91554 15.9515 7.64554 15.9901 7.3584C16.0072 7.14412 16.0629 6.95554 16.0844 6.74126C16.1058 6.62983 16.0072 6.58697 15.8701 6.68554H15.8744Z" fill="white"/>
<path d="M11.4129 5.2284C10.7701 5.78554 10.0672 6.45412 9.6815 7.24269C9.41592 7.77065 9.35487 8.37815 9.51007 8.9484C9.70709 9.64895 9.94902 10.3361 10.2344 11.0055C10.7658 12.2913 11.4686 13.4955 11.9829 14.8027C12.1672 15.2613 12.3686 15.7798 12.4115 16.3027C12.4458 16.9327 12.2401 17.6055 12.0772 18.197C12.0386 18.3684 11.9315 18.5998 11.9486 18.7755C11.9658 18.9084 12.0386 18.8527 12.1158 18.7927C12.4329 18.5355 12.7329 18.2655 13.0158 17.9698C13.7744 17.2198 14.6444 16.2213 14.5672 15.0555C14.5286 14.5713 14.3101 14.1127 14.1258 13.6713C13.9201 13.157 13.6972 12.6555 13.4829 12.1541C13.0758 11.2113 12.6515 10.2941 12.2058 9.3684C12.0601 9.04697 11.8758 8.7384 11.7644 8.41269C11.606 7.97517 11.5191 7.51498 11.5072 7.04983C11.4901 6.70697 11.5072 6.34269 11.5458 5.99554C11.5629 5.76412 11.6358 5.55412 11.6358 5.32269C11.6915 5.11269 11.5801 5.09554 11.4129 5.2284Z" fill="white"/>
</svg>
