<svg width="24" height="24" viewBox="0 0 24 24" fill="none" xmlns="http://www.w3.org/2000/svg">
<path d="M12.0001 5.14307C12.2358 5.14307 12.4286 5.36164 12.4286 5.63164V6.16735C12.4286 6.43735 12.2358 6.65592 12.0001 6.65592C11.7644 6.65592 11.5715 6.44164 11.5715 6.16735V5.63164C11.5715 5.36164 11.7644 5.14307 12.0001 5.14307ZM16.6715 13.2859H6.90007C6.93864 13.5816 7.00293 13.8688 7.08864 14.1431H15.0001L15.9858 15.2188C16.3482 14.6301 16.5819 13.9714 16.6715 13.2859ZM15.5229 15.8574H5.4515C5.04436 15.8574 4.71436 15.4716 4.71436 15.0002H14.6915L15.5358 15.8445L15.5229 15.8574ZM16.7101 12.4288H6.85721C6.8915 11.6145 7.12721 10.8516 7.50864 10.1831L8.70864 11.5716H16.5944C16.6586 11.8502 16.6972 12.1374 16.7101 12.4288ZM16.3244 10.7145C15.9913 9.92951 15.4602 9.24437 14.7831 8.72605C14.106 8.20773 13.306 7.87396 12.4613 7.75735C11.6165 7.64075 10.756 7.74531 9.9638 8.06081C9.17159 8.37631 8.47479 8.89196 7.9415 9.55735L9.01293 10.7145H16.3286H16.3244ZM6.00007 16.7145C6.00007 17.1859 6.31293 17.5716 6.69436 17.5716H17.3058C17.6915 17.5716 18.0001 17.1859 18.0001 16.7145H6.00007ZM16.8344 15.8574H18.5658C18.9472 15.8574 19.2558 15.4716 19.2558 15.0002H17.1772C17.0786 15.3002 16.9629 15.5831 16.8344 15.8574ZM5.19864 12.0002C4.93293 12.0002 4.71436 12.1931 4.71436 12.4288C4.71436 12.6645 4.92864 12.8574 5.19864 12.8574H5.73007C5.99578 12.8574 6.21436 12.6645 6.21436 12.4288C6.21436 12.1931 6.00007 12.0002 5.73007 12.0002H5.19864ZM6.36864 8.67021C6.25722 8.60671 6.12515 8.58999 6.00142 8.62374C5.87769 8.65748 5.7724 8.73893 5.70864 8.85021C5.5715 9.08592 5.65293 9.38592 5.88007 9.51878L6.34293 9.78878C6.57436 9.92164 6.87007 9.8445 7.00293 9.60878C7.14007 9.37307 7.05864 9.07307 6.82721 8.94021L6.36864 8.67021ZM8.37436 6.12021C8.48578 6.05671 8.61784 6.03999 8.74157 6.07374C8.86531 6.10748 8.9706 6.18893 9.03436 6.30021L9.30007 6.75878C9.43293 6.9945 9.35578 7.2945 9.12436 7.43164C8.88864 7.5645 8.59293 7.48735 8.46007 7.25164L8.19436 6.78878C8.13044 6.67605 8.11349 6.54269 8.14718 6.41756C8.18087 6.29244 8.26249 6.18561 8.37436 6.12021ZM18.8015 12.0002C19.0672 12.0002 19.2858 12.1931 19.2858 12.4288C19.2858 12.6645 19.0715 12.8574 18.8015 12.8574H18.2701C18.0044 12.8574 17.7858 12.6645 17.7858 12.4288C17.7858 12.1931 18.0001 12.0002 18.2701 12.0002H18.8015ZM18.2958 8.85021C18.1586 8.61449 17.8629 8.53735 17.6315 8.67021L17.1729 8.94021C17.0618 9.00632 16.9811 9.11346 16.9482 9.23852C16.9153 9.36359 16.9329 9.49657 16.9972 9.60878C17.1258 9.8445 17.4258 9.92164 17.6572 9.78878L18.1158 9.51878C18.3472 9.38592 18.4286 9.08592 18.2915 8.85021H18.2958ZM14.9658 6.30021C15.0944 6.06449 15.3944 5.98307 15.6258 6.12021C15.8572 6.25307 15.9386 6.55307 15.8058 6.78878L15.5401 7.25164C15.4072 7.48735 15.1115 7.5645 14.8758 7.43164C14.7635 7.3655 14.682 7.25758 14.649 7.13148C14.6161 7.00539 14.6344 6.87138 14.7001 6.75878L14.9658 6.30021Z" fill="white"/>
</svg>
