<svg width="24" height="24" viewBox="0 0 24 24" fill="none" xmlns="http://www.w3.org/2000/svg">
<path fill-rule="evenodd" clip-rule="evenodd" d="M19.2858 12.0001C19.2858 16.0239 16.0239 19.2858 12.0001 19.2858C7.97621 19.2858 4.71436 16.0239 4.71436 12.0001C4.71436 7.97621 7.97621 4.71436 12.0001 4.71436C16.0239 4.71436 19.2858 7.97621 19.2858 12.0001ZM18.4286 12.0001C18.4286 15.5504 15.5504 18.4286 12.0001 18.4286C8.44978 18.4286 5.5715 15.5504 5.5715 12.0001C5.5715 8.44978 8.44978 5.5715 12.0001 5.5715C15.5504 5.5715 18.4286 8.44978 18.4286 12.0001ZM13.5922 7.71436L16.2858 9.72907V9.85721H9.85721V12.0001H13.7144V13.7161H7.71436V7.71436H13.5922ZM10.2858 10.2858H16.2858V16.2858H10.3741L7.71436 14.2964V14.1446H14.1429V11.5715H10.2858V10.2858Z" fill="white"/>
</svg>
