<svg width="24" height="24" viewBox="0 0 24 24" fill="none" xmlns="http://www.w3.org/2000/svg">
<path d="M13.9716 9.00014H9.00014V13.9716C8.11639 13.9042 7.2705 13.5848 6.56283 13.0512C5.85516 12.5176 5.3154 11.7922 5.00759 10.961C4.69979 10.1299 4.63686 9.22789 4.82626 8.36206C5.01566 7.49622 5.44946 6.70289 6.07617 6.07617C6.70289 5.44946 7.49622 5.01566 8.36206 4.82626C9.22789 4.63686 10.1299 4.69979 10.961 5.00759C11.7922 5.3154 12.5176 5.85516 13.0512 6.56283C13.5848 7.2705 13.9042 8.11639 13.9716 9.00014Z" fill="white"/>
<path d="M9.16299 13.8944C9.79809 13.8948 10.4268 13.7672 11.0115 13.5193C11.5961 13.2713 12.1249 12.9081 12.5661 12.4513C13.0073 11.9945 13.3519 11.4535 13.5794 10.8605C13.8069 10.2676 13.9126 9.63484 13.8901 9.00014H18.4287V18.4287H9.00014V13.8859L9.16299 13.8944Z" fill="white"/>
</svg>
