<svg width="24" height="24" viewBox="0 0 24 24" fill="none" xmlns="http://www.w3.org/2000/svg">
<path d="M19.2858 12.0001C19.2858 13.9324 18.5182 15.7855 17.1518 17.1518C15.7855 18.5182 13.9324 19.2858 12.0001 19.2858C10.0678 19.2858 8.21463 18.5182 6.84829 17.1518C5.48196 15.7855 4.71436 13.9324 4.71436 12.0001C4.71436 10.0678 5.48196 8.21463 6.84829 6.84829C8.21463 5.48196 10.0678 4.71436 12.0001 4.71436C13.9324 4.71436 15.7855 5.48196 17.1518 6.84829C18.5182 8.21463 19.2858 10.0678 19.2858 12.0001ZM18.9086 12.0001C18.9086 10.1678 18.1808 8.41058 16.8852 7.11497C15.5896 5.81936 13.8323 5.0915 12.0001 5.0915C10.1678 5.0915 8.41058 5.81936 7.11497 7.11497C5.81936 8.41058 5.0915 10.1678 5.0915 12.0001C5.0915 13.8323 5.81936 15.5896 7.11497 16.8852C8.41058 18.1808 10.1678 18.9086 12.0001 18.9086C13.8323 18.9086 15.5896 18.1808 16.8852 16.8852C18.1808 15.5896 18.9086 13.8323 18.9086 12.0001Z" fill="white"/>
<path d="M15.1198 7.28146C15.6984 7.60289 16.0026 8.01003 16.0284 8.51146C15.5998 8.49432 15.2441 8.62718 14.9484 8.91003C14.7512 9.0986 14.2626 9.58718 13.4912 10.3672C13.4269 10.2768 13.3471 10.1984 13.2555 10.1357L11.9912 8.88003L13.0155 7.87289C13.286 7.61821 13.6161 7.43548 13.9755 7.34146C14.3452 7.22246 14.7396 7.20178 15.1198 7.28146Z" fill="white"/>
<path d="M8.32302 9.53139C8.19515 9.39279 8.09629 9.23001 8.03225 9.05263C7.96822 8.87525 7.94031 8.68686 7.95016 8.49854C7.43159 8.54139 7.02873 8.84568 6.7373 9.41139C6.64187 9.9529 6.72932 10.5108 6.98587 10.9971C7.11873 11.2542 7.32873 11.5242 7.61588 11.8071C8.05302 12.2357 8.37016 12.6814 8.82873 13.1357C9.03821 13.3358 9.20069 13.5799 9.30444 13.8504C9.40819 14.1209 9.45064 14.4111 9.42873 14.7C9.41587 15.3857 9.45445 15.8142 9.48445 15.9942C9.63511 16.666 10.0329 17.2565 10.5987 17.6485L10.9373 17.7343C11.0787 17.7728 11.1902 17.79 11.2759 17.7942C11.593 17.7942 11.8759 17.6957 12.133 17.4942C12.1587 17.4728 12.163 17.46 12.1502 17.4514C11.8502 17.13 11.5716 16.7657 11.5716 16.3585V12.8571C11.5716 12.5657 11.7987 12.2442 12.0087 11.8971L10.5002 10.3671C10.243 10.68 9.95587 10.7871 9.62587 10.6885C9.47587 10.6457 9.30873 10.53 9.11159 10.3371L8.32302 9.53568V9.53139Z" fill="white"/>
<path d="M13.2559 10.1357L11.9916 8.87994L11.7344 8.61423C11.3487 8.20708 10.9202 7.76566 10.5002 7.53423C10.1373 7.33854 9.73273 7.23297 9.32053 7.2264C8.90833 7.21983 8.50059 7.31247 8.1317 7.4965C7.7628 7.68053 7.44355 7.95056 7.20088 8.28381C6.9582 8.61707 6.79921 9.00379 6.7373 9.41137C7.02873 8.84566 7.43159 8.54137 7.95016 8.49851C8.3873 8.49423 8.75159 8.62708 9.04302 8.90994C9.24016 9.09851 9.68588 9.54423 10.3844 10.2471L10.5002 10.3628L12.0087 11.8928C12.2573 12.0985 12.433 12.3471 12.5402 12.6385C12.6944 13.1185 12.6859 13.6628 12.673 14.1814V14.6099C12.673 15.5357 12.6687 16.1228 12.6602 16.3799C12.6526 16.7747 12.4947 17.1518 12.2187 17.4342C12.2059 17.4428 12.1844 17.4514 12.1502 17.4514C12.163 17.4599 12.1587 17.4728 12.1287 17.4942C11.8759 17.6957 11.593 17.7942 11.2716 17.7942C11.1902 17.7942 11.0787 17.7728 10.9373 17.7342L10.5987 17.6485C10.9277 17.9032 11.3135 18.0746 11.7231 18.148C12.1326 18.2214 12.5539 18.1947 12.9509 18.0701C13.3479 17.9455 13.7088 17.7267 14.003 17.4324C14.2971 17.1381 14.5157 16.777 14.6402 16.3799C14.7902 15.9171 14.7773 15.3899 14.7687 14.8928L14.7602 14.6142C14.7559 14.2628 14.7602 14.0357 14.7773 13.9285C14.8287 13.5771 14.9744 13.2685 15.2059 12.9985C15.3259 12.8571 15.4544 12.7199 15.5916 12.5828L15.8487 12.3299C16.2516 11.9485 16.6844 11.5371 16.933 11.1342C17.1539 10.7742 17.2818 10.365 17.3054 9.9433C17.329 9.52161 17.2475 9.10066 17.0682 8.71825C16.8889 8.33585 16.6174 8.00397 16.2782 7.75243C15.9389 7.50088 15.5424 7.33754 15.1244 7.27708C15.6987 7.6028 16.003 8.01423 16.033 8.51137C16.033 8.91851 15.9044 9.26566 15.6387 9.55708C15.3862 9.83421 15.1232 10.1015 14.8502 10.3585C14.6102 10.5942 14.4644 10.7357 14.1002 10.7057C13.9795 10.6978 13.8621 10.663 13.7568 10.6036C13.6514 10.5443 13.5608 10.462 13.4916 10.3628C13.4269 10.2739 13.3471 10.197 13.2559 10.1357Z" fill="white"/>
</svg>
