<svg width="24" height="24" viewBox="0 0 24 24" fill="none" xmlns="http://www.w3.org/2000/svg">
<g clip-path="url(#clip0_31_5956)">
<path d="M0 0H24V24H0V0Z" fill="#D62D79"/>
<path d="M17.3314 12.8572H6.64286C6.27429 12.8572 6 13.2 6 13.5686C6 13.9372 6.33857 14.1429 6.70286 14.1429H7.5C7.37143 14.5157 7.29857 14.9572 7.19143 15.27L6.83571 16.2986L6.70714 16.6843C6.58286 17.0357 6.76714 17.4129 7.11857 17.5329C7.46571 17.6572 7.84714 17.4729 7.96714 17.1214L8.1 16.7357L8.45571 15.7072L9 14.1429H15L15.5486 15.7072C15.6943 16.1357 15.8229 16.4872 15.9043 16.7357L16.0371 17.1214C16.0951 17.2885 16.2171 17.4257 16.3762 17.5029C16.5354 17.5801 16.7186 17.5908 16.8857 17.5329C17.0528 17.4749 17.19 17.3529 17.2672 17.1938C17.3443 17.0347 17.3551 16.8514 17.2971 16.6843L17.1643 16.2986L16.8086 15.27L16.4143 14.1429H17.3314C17.7 14.1429 18 13.9372 18 13.5686C18 13.2043 17.7 12.8572 17.3314 12.8572ZM6.66857 11.5714H17.3314C17.7 11.5714 18 11.2714 18 10.9029C18 10.5386 17.7 10.2857 17.3314 10.2857H15.0429C14.4857 8.66573 14.0443 7.26859 13.9671 7.02859C13.8395 6.60426 13.5835 6.22994 13.2343 5.95716C12.8767 5.69585 12.4427 5.56022 12 5.57145C11.5543 5.57145 11.1257 5.68287 10.7657 5.95716C10.4173 6.22978 10.1626 6.60433 10.0371 7.02859C9.95143 7.26859 9.48857 8.66573 8.92714 10.2857H6.66857C6.3 10.2857 6 10.5386 6 10.9029C6 11.2714 6.3 11.5714 6.66857 11.5714ZM11.2971 7.44859C11.3829 7.20859 11.4771 7.08859 11.5671 7.02002C11.6529 6.96002 11.7814 6.9043 12 6.9043C12.2229 6.9043 12.3514 6.96002 12.4329 7.02002C12.5624 7.133 12.655 7.28232 12.6986 7.44859C12.7757 7.67144 13.2214 8.86287 13.7143 10.2857H10.2857C10.7786 8.86716 11.2286 7.67144 11.3014 7.44859H11.2971Z" fill="white"/>
</g>
<defs>
<clipPath id="clip0_31_5956">
<rect width="24" height="24" fill="white"/>
</clipPath>
</defs>
</svg>
