<svg width="24" height="24" viewBox="0 0 24 24" fill="none" xmlns="http://www.w3.org/2000/svg">
<g clip-path="url(#clip0_31_6487)">
<path d="M0 0H24V24H0V0Z" fill="#F0F3FA"/>
<path d="M11.9314 11.0659L8.44287 5.14307L11.9314 8.80307L15.6129 5.14307L11.9314 11.0659Z" fill="#6D47EC"/>
<path d="M12.0129 10.9416L15.6129 5.14307L14.3057 6.44592L12.0129 10.9416ZM9.8143 6.57878L8.44287 5.14307L11.8714 10.9588L9.8143 6.57878Z" fill="#193FE0"/>
<path d="M11.9314 12.9341L8.44287 18.8569L11.9314 15.1969L15.6129 18.8569L11.9314 12.9341Z" fill="#3052F1"/>
<path d="M12.0129 13.0586L15.6129 18.8572L14.3057 17.5544L12.0129 13.0544V13.0586ZM9.8143 17.4215L8.44287 18.8572L11.8714 13.0415L9.8143 17.4215Z" fill="#193FE0"/>
<path d="M8.75592 12.0388L5.14307 8.37879L8.25878 5.22021L11.9702 11.0745L15.7416 5.22021L18.8574 8.37879L15.2445 12.0388L18.8574 15.6988L15.7416 18.8574L11.9702 12.9859L8.25878 18.8574L5.14307 15.6988L8.75592 12.0388Z" fill="url(#paint0_linear_31_6487)"/>
</g>
<defs>
<linearGradient id="paint0_linear_31_6487" x1="12.0002" y1="5.22021" x2="12.0002" y2="18.8574" gradientUnits="userSpaceOnUse">
<stop stop-color="#DD76F9"/>
<stop offset="1" stop-color="#00C1E3"/>
</linearGradient>
<clipPath id="clip0_31_6487">
<rect width="24" height="24" fill="white"/>
</clipPath>
</defs>
</svg>
