<svg width="24" height="24" viewBox="0 0 24 24" fill="none" xmlns="http://www.w3.org/2000/svg">
<g clip-path="url(#clip0_31_6844)">
<path d="M0 0H24V24H0V0Z" fill="#58BE92"/>
<path d="M15.9772 7.81295C15.3901 6.30867 13.9029 6.17153 12.1672 6.51438L11.5543 4.3501L10.2386 4.73153L10.8429 6.81867L9.7972 7.13581L9.19292 5.02296L7.89006 5.40438L8.50291 7.54724L7.6672 7.80438V7.8001L5.86292 8.31438L6.26149 9.71153C6.26149 9.71153 7.22577 9.41153 7.2172 9.43724C7.74434 9.28296 8.00577 9.54438 8.13434 9.79724L8.8372 12.2444L8.97863 12.223L8.8372 12.2615L9.82291 15.6987C9.84863 15.8701 9.82291 16.1615 9.45863 16.2687C9.47577 16.2772 8.50291 16.5472 8.50291 16.5472L8.69149 18.1844L10.3929 17.6958L11.3358 17.4344L11.9615 19.6072L13.2601 19.2301L12.6515 17.083L13.6972 16.7915L14.3101 18.9344L15.6258 18.5572L15.0001 16.3844C17.1643 15.6258 18.5486 14.6272 18.1501 12.5058C17.8243 10.8001 16.8258 10.2772 15.4929 10.3415C16.1358 9.72867 16.4143 8.91867 15.9858 7.81295H15.9772ZM15.4886 12.9987C15.9472 14.6272 13.1143 15.2358 12.2315 15.4972L11.4043 12.613C12.2915 12.3558 15.0001 11.3058 15.4886 12.9987ZM13.7143 9.09438C14.1343 10.5815 11.7601 11.0701 11.0186 11.2844L10.2686 8.6701C11.0101 8.4601 13.2686 7.55581 13.7143 9.10295V9.09438Z" fill="white"/>
</g>
<defs>
<clipPath id="clip0_31_6844">
<rect width="24" height="24" fill="white"/>
</clipPath>
</defs>
</svg>
