<svg width="24" height="24" viewBox="0 0 24 24" fill="none" xmlns="http://www.w3.org/2000/svg">
<g clip-path="url(#clip0_31_7622)">
<path d="M0 0H24V24H0V0Z" fill="url(#paint0_linear_31_7622)"/>
<path d="M11.0698 4.82979C10.9841 4.84693 10.907 4.88979 10.907 4.92836C10.907 4.96693 10.847 4.99693 10.7784 4.99693C10.7056 4.99693 10.5984 5.06122 10.5427 5.14265C10.487 5.21979 10.3798 5.28408 10.307 5.28408C10.2384 5.28408 10.1784 5.31836 10.1784 5.35693C10.1784 5.39979 10.1141 5.42979 10.0327 5.42979C9.95127 5.42979 9.88698 5.46408 9.88698 5.50265C9.88698 5.54551 9.75841 5.57551 9.59556 5.57551C9.43698 5.57551 9.30413 5.60979 9.30413 5.64836C9.30413 5.69122 9.25698 5.72122 9.19698 5.72122C8.90555 5.72122 8.31413 6.18408 8.15984 6.53551C8.10841 6.64265 8.02698 6.73693 7.97556 6.73693C7.85556 6.73693 7.33698 7.20408 7.33698 7.30693C7.33698 7.34979 7.3027 7.38408 7.26413 7.38408C7.22127 7.38408 7.19127 7.43551 7.19127 7.49551C7.19127 7.55551 7.15698 7.60265 7.11841 7.60265C7.07556 7.60265 7.04556 7.65408 7.04556 7.70979C7.04556 7.76979 7.01127 7.82122 6.9727 7.82122C6.92984 7.82122 6.89984 7.87693 6.89984 7.94979C6.89984 8.01836 6.83556 8.12122 6.75413 8.18122C6.6727 8.24122 6.60841 8.34408 6.60841 8.41693C6.60841 8.48551 6.57413 8.54551 6.53556 8.54551C6.4927 8.54551 6.4627 8.59265 6.4627 8.65265C6.4627 8.82836 6.30413 9.05979 5.93556 9.42836C5.7427 9.62122 5.58841 9.80979 5.58841 9.85265C5.58841 9.89551 5.55413 9.90836 5.51556 9.88265C5.4727 9.86122 5.4427 9.89551 5.4427 9.96408C5.4427 10.0284 5.38698 10.1355 5.31413 10.2041C5.0227 10.4698 4.97556 10.6626 4.94556 11.6612C4.91127 12.8826 4.95841 13.0326 5.37413 13.0326C5.85841 13.0326 5.88841 13.1098 5.88841 14.2326C5.87984 14.8412 5.90556 15.2055 5.9527 15.2055C5.99556 15.2055 6.02556 15.3041 6.02556 15.4241C6.02556 15.5441 6.05984 15.6384 6.09841 15.6384C6.14127 15.6384 6.17127 15.7412 6.17127 15.8612C6.17127 15.9769 6.20556 16.0755 6.24413 16.0755C6.28698 16.0755 6.31698 16.1398 6.31698 16.2212C6.31698 16.3026 6.35127 16.3669 6.38984 16.3669C6.4327 16.3669 6.4627 16.4141 6.4627 16.4741C6.4627 16.5341 6.49698 16.5855 6.53556 16.5855C6.57841 16.5855 6.60841 16.6284 6.60841 16.6884C6.60841 16.8255 7.67984 17.8884 7.8127 17.8884C7.8727 17.8884 7.91984 17.9184 7.91984 17.9612C7.91984 17.9998 7.98413 18.0341 8.06556 18.0341C8.14698 18.0341 8.21127 18.0641 8.21127 18.1026C8.21127 18.1455 8.3527 18.1755 8.52413 18.1755C8.84127 18.1755 9.23127 18.0469 9.23127 17.9398C9.23127 17.9055 9.30413 17.9484 9.38984 18.0255C9.47556 18.1112 9.59127 18.1755 9.64698 18.1755C9.69841 18.1755 9.74127 18.2098 9.74127 18.2484C9.74127 18.2912 9.80127 18.3212 9.86984 18.3212C9.9427 18.3212 10.0498 18.3855 10.1056 18.4669C10.1613 18.5441 10.2598 18.6126 10.3241 18.6126C10.3884 18.6126 10.487 18.6769 10.5427 18.7584C10.5984 18.8355 10.7056 18.8998 10.7784 18.8998C10.847 18.8998 10.907 18.9341 10.907 18.9726C10.907 19.0155 10.9713 19.0455 11.0484 19.0455C11.1256 19.0455 11.1984 19.0884 11.2198 19.1355C11.2413 19.2041 11.6227 19.2255 12.8013 19.2255C13.9798 19.2255 14.3613 19.2041 14.387 19.1398C14.4041 19.0884 14.4641 19.0455 14.5198 19.0455C14.5798 19.0455 14.7427 18.9341 14.8798 18.7969C15.1027 18.5741 15.1327 18.4969 15.1327 18.1755C15.1327 17.8026 15.2398 17.5969 15.4413 17.5969C15.4927 17.5969 15.587 17.5326 15.6427 17.4512C15.6984 17.3741 15.8056 17.3098 15.8784 17.3098C15.947 17.3098 16.007 17.2755 16.007 17.2369C16.007 17.1941 16.0713 17.1641 16.1527 17.1641C16.2341 17.1641 16.2984 17.1341 16.2984 17.0998C16.2984 17.0655 16.397 16.9969 16.517 16.9455C16.637 16.8941 16.7356 16.8255 16.7356 16.7912C16.7356 16.7569 16.787 16.7269 16.847 16.7269C16.907 16.7269 17.0698 16.6241 17.2027 16.4912C17.3313 16.3626 17.5798 16.1441 17.7427 16.0026C17.9098 15.8655 18.0427 15.7026 18.0427 15.6384C18.0427 15.5784 18.1113 15.4841 18.1927 15.4241C18.2741 15.3684 18.3384 15.2612 18.3384 15.1926C18.3384 15.1198 18.3727 15.0641 18.4113 15.0641C18.4541 15.0641 18.4841 14.9955 18.4841 14.9184C18.4841 14.8369 18.5184 14.7726 18.557 14.7726C18.5998 14.7726 18.6298 14.6012 18.6298 14.3869C18.6298 14.1041 18.5913 13.9626 18.4841 13.8469C18.3341 13.6884 18.2827 13.3241 18.4113 13.3241C18.4541 13.3241 18.4841 13.2726 18.4841 13.2084C18.4841 13.1398 18.5484 13.0369 18.6213 12.9684C18.6984 12.9041 18.8356 12.7112 18.9213 12.5441C19.0713 12.2569 19.0798 12.1712 19.0498 10.7741C19.0284 9.54408 19.0027 9.26551 18.8913 9.06836C18.8227 8.93979 18.7327 8.83265 18.6984 8.83265C18.6598 8.83265 18.6298 8.76836 18.6298 8.69122C18.6298 8.59265 18.5827 8.54551 18.4841 8.54551C18.4027 8.54551 18.3384 8.50693 18.3384 8.46408C18.3384 8.41693 18.2527 8.39551 18.1198 8.41693C17.9313 8.44265 17.9013 8.42551 17.9013 8.27979C17.9013 8.18551 17.867 8.10836 17.8284 8.10836C17.7856 8.10836 17.7556 7.93265 17.7556 7.70979C17.7556 7.49551 17.7898 7.3155 17.8284 7.3155C17.8713 7.3155 17.9013 7.1355 17.9013 6.91693C17.9013 6.69408 17.867 6.51836 17.8284 6.51836C17.8185 6.51838 17.8086 6.51636 17.7995 6.51244C17.7904 6.50851 17.7821 6.50276 17.7753 6.49553C17.7685 6.4883 17.7632 6.47976 17.7598 6.47042C17.7564 6.46108 17.755 6.45114 17.7556 6.44122C17.7556 6.3255 17.4127 6.01265 17.2841 6.01265C17.2241 6.01265 17.1727 5.97836 17.1727 5.93551C17.1727 5.89693 17.1084 5.86693 17.027 5.86693C16.9456 5.86693 16.8813 5.83265 16.8813 5.79408C16.8813 5.75122 16.6884 5.72122 16.4441 5.72122C16.1998 5.72122 16.007 5.68693 16.007 5.64836C16.007 5.60551 15.857 5.57551 15.6727 5.57551C15.4927 5.57551 15.2741 5.54122 15.1927 5.49408C15.0856 5.43836 15.0213 5.43836 14.9656 5.49408C14.7941 5.6655 14.117 5.51979 13.8856 5.26693C13.8213 5.19836 13.7313 5.13836 13.6841 5.13836C13.637 5.13836 13.5298 5.07836 13.4484 5.00551C13.3264 4.91276 13.1838 4.851 13.0327 4.82551C12.737 4.77408 11.3313 4.78265 11.0698 4.82979Z" fill="#109C21"/>
<path d="M11.07 4.82979C10.9843 4.84693 10.9072 4.88979 10.9072 4.92836C10.9072 4.96693 10.8472 4.99693 10.7786 4.99693C10.7058 4.99693 10.5986 5.06122 10.5429 5.14265C10.4872 5.21979 10.38 5.28408 10.3072 5.28408C10.2386 5.28408 10.1786 5.31836 10.1786 5.35693C10.1786 5.39979 10.1143 5.42979 10.0329 5.42979C9.95148 5.42979 9.88719 5.46408 9.88719 5.50265C9.88719 5.54551 9.75862 5.57551 9.59576 5.57551C9.43719 5.57551 9.30433 5.60979 9.30433 5.64836C9.30433 5.69122 9.25719 5.72122 9.19719 5.72122C8.90576 5.72122 8.31433 6.18408 8.16005 6.53551C8.10862 6.64265 8.03148 6.73265 7.98862 6.73265C7.94576 6.73265 7.86862 6.77551 7.81719 6.82265C7.76576 6.87408 7.63719 6.98122 7.53005 7.05836C7.42291 7.13979 7.33719 7.24265 7.33719 7.29408C7.33719 7.34551 7.30291 7.38408 7.26433 7.38408C7.22148 7.38408 7.19148 7.43551 7.19148 7.49551C7.19148 7.55551 7.15719 7.60265 7.11862 7.60265C7.07576 7.60265 7.04576 7.65408 7.04576 7.70979C7.04576 7.76979 7.01148 7.82122 6.97291 7.82122C6.93005 7.82122 6.90005 7.87693 6.90005 7.94979C6.90005 8.01836 6.83576 8.12122 6.75433 8.18122C6.67291 8.24122 6.60862 8.32265 6.60862 8.36551C6.60862 8.56693 6.26576 9.11551 5.94433 9.42836C5.803 9.54903 5.68278 9.69243 5.58862 9.85265C5.58862 9.89551 5.55433 9.90836 5.51576 9.88265C5.47291 9.86122 5.44291 9.90408 5.44291 9.98122C5.44291 10.0626 5.41719 10.1355 5.38719 10.1526C5.35291 10.1612 5.25005 10.2898 5.15148 10.4269C4.98433 10.6584 4.97148 10.7569 4.94576 11.6569C4.91148 12.8826 4.96291 13.0369 5.37433 13.0369C5.85862 13.0369 5.88862 13.1098 5.88862 14.2284C5.88005 14.8412 5.90576 15.2055 5.95291 15.2055C5.99576 15.2055 6.02576 15.3041 6.02576 15.4241C6.02576 15.5441 6.06005 15.6384 6.09862 15.6384C6.14148 15.6384 6.17148 15.7326 6.17148 15.8441C6.17148 15.9598 6.23148 16.0884 6.31719 16.1441C6.41148 16.2169 6.43291 16.2684 6.37719 16.3026C6.33005 16.3326 6.35576 16.3712 6.45433 16.4012C6.55291 16.4312 6.60862 16.5084 6.60862 16.6198C6.60862 16.8126 7.62862 17.8884 7.81291 17.8884C7.87291 17.8884 7.92005 17.9184 7.92005 17.9612C7.92005 17.9998 7.98433 18.0341 8.06576 18.0341C8.14719 18.0341 8.21148 18.0641 8.21148 18.1026C8.21148 18.1455 8.36148 18.1755 8.54148 18.1755C8.85433 18.1755 9.13719 18.0769 9.24862 17.9226C9.28291 17.8798 9.30433 17.8841 9.30433 17.9398C9.30433 17.9912 9.37291 18.0341 9.45433 18.0341C9.54005 18.0341 9.58291 18.0641 9.56148 18.1026C9.53576 18.1455 9.56148 18.1755 9.63005 18.1755C9.69005 18.1755 9.74148 18.2098 9.74148 18.2484C9.74148 18.2912 9.80576 18.3212 9.88719 18.3212C9.96862 18.3212 10.0329 18.3555 10.0329 18.3941C10.0329 18.4369 10.0929 18.4669 10.1615 18.4669C10.2343 18.4669 10.3415 18.5312 10.3972 18.6126C10.4529 18.6898 10.5643 18.7584 10.6372 18.7584C10.71 18.7584 10.7486 18.7884 10.7229 18.8269C10.7015 18.8698 10.7315 18.8998 10.7915 18.8998C10.8558 18.8998 10.9072 18.9341 10.9072 18.9726C10.9072 19.0155 10.9715 19.0455 11.0486 19.0455C11.1258 19.0455 11.1986 19.0884 11.22 19.1355C11.2629 19.2726 14.1686 19.2641 14.2543 19.1269C14.3058 19.0412 14.3186 19.0412 14.3529 19.1269C14.3829 19.1998 14.3958 19.1998 14.3958 19.1355C14.4 19.0884 14.4558 19.0498 14.5158 19.0498C14.5758 19.0498 14.7429 18.9341 14.88 18.7926C15.1029 18.5741 15.1329 18.5012 15.1329 18.1712C15.1329 17.8798 15.1672 17.7641 15.2872 17.6612C15.3729 17.5884 15.4758 17.5498 15.5186 17.5755C15.5615 17.6012 15.57 17.5841 15.54 17.5326C15.51 17.4898 15.5358 17.4512 15.6043 17.4512C15.6643 17.4512 15.7158 17.4212 15.7158 17.3784C15.7158 17.3398 15.7886 17.3055 15.8786 17.3055C16.0115 17.3055 16.0243 17.2926 15.9343 17.2369C15.8486 17.1812 15.8829 17.1641 16.0629 17.1641C16.1915 17.1641 16.2986 17.1341 16.2986 17.0998C16.2986 17.0655 16.3972 16.9969 16.5172 16.9455C16.6372 16.8941 16.7358 16.8255 16.7358 16.7912C16.7358 16.7569 16.7872 16.7269 16.8472 16.7269C16.9072 16.7269 17.07 16.6241 17.2029 16.4912C17.3315 16.3626 17.58 16.1441 17.7429 16.0026C17.91 15.8655 18.0429 15.7026 18.0429 15.6384C18.0429 15.5784 18.1115 15.4841 18.1929 15.4241C18.2743 15.3684 18.3386 15.2612 18.3386 15.1926C18.3386 15.1198 18.3729 15.0641 18.4115 15.0641C18.4543 15.0641 18.4843 14.9955 18.4843 14.9184C18.4843 14.8369 18.5186 14.7726 18.5572 14.7726C18.6 14.7726 18.63 14.6012 18.63 14.3869C18.63 14.1041 18.5915 13.9626 18.4843 13.8469C18.3343 13.6884 18.2829 13.3241 18.4115 13.3241C18.4543 13.3241 18.4843 13.2726 18.4843 13.2084C18.4843 13.1398 18.5486 13.0369 18.6215 12.9684C18.6986 12.9041 18.8358 12.7112 18.9215 12.5441C19.0715 12.2569 19.08 12.1712 19.05 10.7741C19.0243 9.25693 18.9943 9.11551 18.6815 8.80265C18.6129 8.73408 18.5786 8.64408 18.6043 8.60122C18.63 8.55836 18.6172 8.54122 18.5743 8.57122C18.5315 8.59693 18.4458 8.56693 18.3772 8.50265C18.3375 8.46565 18.2897 8.43859 18.2375 8.42369C18.1854 8.40879 18.1304 8.40647 18.0772 8.41693C17.9315 8.44693 17.9015 8.42551 17.9015 8.27979C17.9015 8.18551 17.8672 8.10836 17.8286 8.10836C17.7858 8.10836 17.7558 7.93265 17.7558 7.70979C17.7558 7.49551 17.79 7.3155 17.8286 7.3155C17.8715 7.3155 17.9015 7.1355 17.9015 6.91693C17.9015 6.69408 17.8672 6.51836 17.8286 6.51836C17.8187 6.51838 17.8088 6.51636 17.7997 6.51244C17.7906 6.50851 17.7823 6.50276 17.7755 6.49553C17.7687 6.4883 17.7634 6.47976 17.76 6.47042C17.7566 6.46108 17.7552 6.45114 17.7558 6.44122C17.7558 6.3255 17.4129 6.01265 17.2843 6.01265C17.2243 6.01265 17.1729 5.97836 17.1729 5.93551C17.1729 5.89693 17.1086 5.86693 17.0272 5.86693C16.9458 5.86693 16.8815 5.83265 16.8815 5.79408C16.8815 5.75122 16.6886 5.72122 16.4443 5.72122C16.2 5.72122 16.0072 5.68693 16.0072 5.64836C16.0072 5.60551 15.8572 5.57551 15.6729 5.57551C15.4929 5.57551 15.2743 5.54122 15.1929 5.49408C15.0858 5.43836 15.0215 5.43836 14.9658 5.49408C14.7943 5.6655 14.1172 5.51979 13.8858 5.26693C13.8215 5.19836 13.7315 5.13836 13.6843 5.13836C13.6372 5.13836 13.53 5.07836 13.4486 5.00551C13.3266 4.91276 13.184 4.851 13.0329 4.82551C12.7372 4.77408 11.3315 4.78265 11.07 4.82979ZM12.5486 5.43408C12.7072 5.47693 12.9343 5.55836 13.0543 5.60979C13.7786 5.93551 14.1258 6.02551 14.8115 6.07693C15.6772 6.13693 16.2472 6.36408 16.4658 6.73265C16.5386 6.85265 16.7272 7.10122 16.8858 7.28122C17.0443 7.46122 17.1858 7.69693 17.2115 7.80836C17.3143 8.31408 17.6443 9.12836 17.7729 9.18408C17.8029 9.19693 17.8286 9.24836 17.8286 9.29551C17.8286 9.34693 17.8886 9.44979 17.9572 9.52693C18.03 9.60408 18.1972 9.88693 18.33 10.1569C18.5443 10.5855 18.5786 10.7312 18.5958 11.2798C18.6129 11.9098 18.6129 11.9098 18.5615 11.4084C18.5015 10.7869 18.4672 10.7012 18.1072 10.2684C17.6997 9.71723 17.3425 9.13058 17.04 8.51551C16.6972 7.74408 16.1272 7.21265 15.5272 7.10122C15.3472 7.06693 15.1415 6.98979 15.0686 6.92122C14.9529 6.81836 14.8629 6.81408 14.4086 6.87836C14.1172 6.92122 13.8515 6.96836 13.8172 6.98979C13.7829 7.01122 13.5686 7.06265 13.3329 7.10551C13.1065 7.1448 12.887 7.21699 12.6815 7.31979C12.4329 7.47408 12.1543 7.49122 11.3486 7.40551L10.8043 7.34979L11.49 7.07122C13.2858 6.34265 13.2343 6.35979 14.04 6.32122C14.6638 6.28589 15.2894 6.3349 15.9 6.46693C15.9772 6.48408 16.0029 6.48408 15.9515 6.46693C15.9043 6.44979 15.8615 6.40693 15.8615 6.37693C15.8615 6.28265 15.2872 6.16265 14.6529 6.12836C14.2812 6.11478 13.9145 6.03797 13.5686 5.90122L13.0672 5.69979L12.6258 5.93979C12.3815 6.06836 12 6.28265 11.7815 6.41122C11.5629 6.53979 11.2329 6.70693 11.0529 6.77551C10.3866 7.02244 9.80399 7.45343 9.37291 8.01836C9.11576 8.33979 8.85862 8.68265 8.81576 8.77265L8.62291 9.19693C8.48576 9.5055 7.92005 10.3498 7.92005 10.2469C7.92005 10.1869 8.10433 9.47122 8.34862 8.55836C8.5632 8.01186 8.92703 7.53666 9.39862 7.18693C10.05 6.68979 10.5558 6.15836 10.3586 6.15836C10.3372 6.15836 10.23 6.24408 10.1229 6.35979C10.0115 6.47122 9.96433 6.50979 10.0158 6.44551C10.1486 6.26979 10.1272 6.23122 9.90433 6.23122C9.67291 6.23122 9.23576 6.47122 9.22719 6.60836C9.22719 6.65551 9.19291 6.63408 9.15862 6.55265C9.11576 6.44979 9.09433 6.44122 9.09005 6.52265C9.09005 6.58265 9.13291 6.69408 9.18433 6.77122C9.28291 6.89979 9.29148 6.89979 9.54862 6.74979C9.69433 6.66408 9.81433 6.62122 9.81433 6.65122C9.81433 6.71979 9.33862 6.95122 9.19291 6.95122C9.13291 6.95122 9.08576 6.97693 9.08576 7.01122C9.08576 7.07122 8.58005 7.31122 8.45148 7.31122C8.28005 7.31122 7.90291 7.56408 7.65005 7.85122C7.49576 8.02265 7.22148 8.47265 7.03719 8.84551C6.76291 9.38979 6.70291 9.57408 6.73719 9.78836C6.79719 10.2769 6.41576 11.0055 6.09433 11.0055C5.97005 11.0055 5.95291 11.0612 5.95719 11.3912C5.96148 11.5969 5.99148 11.9141 6.02148 12.0941C6.08148 12.4155 6.08148 12.4155 6.09005 12.1584C6.10719 11.6912 6.18005 11.4555 6.32576 11.4169C6.40719 11.3955 6.48862 11.4298 6.52719 11.4984C6.57862 11.5841 6.60433 11.5541 6.64291 11.3612C6.67291 11.2284 6.77148 10.8726 6.86148 10.5726C6.95576 10.2726 7.06719 9.78408 7.11005 9.48408C7.24291 8.6055 7.89005 7.54265 8.25005 7.61551C8.36576 7.63693 8.35719 7.66265 8.19862 7.85551C7.80901 8.28465 7.58161 8.83646 7.55576 9.41551C7.51268 9.97894 7.39894 10.5347 7.21719 11.0698C7.03291 11.7126 7.00291 12.2269 7.12291 12.7369C7.16576 12.9341 7.17005 13.0798 7.12291 13.1355C7.08005 13.1869 7.09291 13.2641 7.15291 13.3455C7.23862 13.4655 7.25148 13.4655 7.29433 13.3498C7.33719 13.2426 7.35005 13.2426 7.44433 13.3669C7.50433 13.4441 7.55148 13.5469 7.55148 13.6026C7.55576 13.7312 7.98005 14.3398 8.19862 14.5326C8.29719 14.6184 8.66148 14.8241 9.00433 14.9912C9.47576 15.2184 9.74576 15.4155 10.1186 15.7884C10.71 16.3884 11.0915 16.6155 11.6872 16.7355C12.0858 16.8212 12.2058 16.8126 12.6343 16.7012C12.9086 16.6326 13.2815 16.5469 13.47 16.5126C13.8222 16.4612 14.1581 16.3303 14.4521 16.1299C14.7462 15.9294 14.9907 15.6646 15.1672 15.3555C15.3215 15.0598 15.5743 14.7726 15.6858 14.7726C15.7072 14.7726 15.66 14.8841 15.5743 15.0169C15.4286 15.2526 15.3772 15.4969 15.4715 15.4969C15.6386 15.4969 16.2086 14.5155 16.1572 14.3098C16.1529 14.2755 16.2258 14.0398 16.3286 13.7955C16.6129 13.1344 16.7022 12.4057 16.5858 11.6955C16.5 10.9926 16.5429 10.1355 16.6715 10.2598C16.77 10.3626 16.9458 11.3226 16.9972 12.0426L17.04 12.6812L17.1815 12.5184C17.37 12.2998 17.5029 12.4241 17.3872 12.7155C17.2586 13.0369 17.2758 13.7226 17.4215 14.4298C17.5243 14.9269 17.5372 15.1069 17.4729 15.2869C17.3872 15.5398 17.43 15.6726 17.5415 15.4969C17.7343 15.1969 17.7686 14.7984 17.6872 13.7612C17.55 12.0341 17.52 11.7812 17.4258 11.4426L17.2243 10.7355C17.1627 10.5219 17.0794 10.3151 16.9758 10.1184C16.6029 9.48836 16.8 9.44122 17.2672 10.0455C17.7878 10.6716 18.0876 11.4519 18.12 12.2655C18.12 12.4498 18.15 12.5998 18.1843 12.5998C18.2186 12.5998 18.3172 12.4626 18.3986 12.2912C18.4843 12.1198 18.5529 12.0298 18.5529 12.0769C18.5572 12.2055 18.4243 12.4541 18.2658 12.6341C17.8715 13.0712 17.8029 13.3198 17.7943 14.2626C17.7943 15.0512 17.7729 15.2055 17.64 15.4241C17.5543 15.5655 17.4472 15.6684 17.3958 15.6598C17.3486 15.6469 17.3229 15.6641 17.3443 15.6941C17.4043 15.7926 17.19 16.0241 17.0958 15.9641C17.04 15.9298 17.0229 15.9384 17.0529 15.9898C17.1258 16.1012 16.7143 16.3841 16.0072 16.7098C15.5393 16.9213 15.1138 17.2161 14.7515 17.5798C14.4043 17.9012 13.9415 18.2484 13.7315 18.3512C13.1743 18.6126 12.27 18.7369 11.73 18.6169C11.2722 18.5372 10.8493 18.3206 10.5172 17.9955C10.02 17.5926 9.55719 17.3826 8.68719 17.1641C7.62862 16.9026 7.14433 16.5384 6.74148 15.6984C6.39005 14.9741 6.35576 14.8112 6.45433 14.4212C6.57433 13.9541 6.51433 13.6541 6.13719 12.8184C5.50291 11.4041 5.53719 10.7012 6.30862 9.86122C6.46291 9.68979 6.75005 9.23551 6.94719 8.85408C7.41862 7.93265 7.85576 7.45693 8.44719 7.22122C8.88005 7.04979 8.90576 7.02408 8.94433 6.75836C8.99148 6.40693 9.07291 6.27836 9.20576 6.32979C9.26576 6.35122 9.29148 6.34265 9.27005 6.30836C9.21433 6.21408 9.41576 6.15408 9.79719 6.15408C10.0629 6.15408 10.2386 6.08979 10.6286 5.85836C11.3743 5.40836 11.9572 5.27979 12.5443 5.43408H12.5486ZM17.1858 6.64693C17.2672 6.77551 17.3143 6.93408 17.2886 6.99836C17.2458 7.10551 17.2286 7.1055 17.1086 6.99408C16.9794 6.8475 16.8699 6.6847 16.7829 6.50979L16.5943 6.14979L16.8172 6.27836C16.9372 6.35122 17.1043 6.51408 17.1858 6.64693ZM16.8815 6.46265C16.8815 6.47979 16.9329 6.59551 16.9972 6.71979C17.1043 6.94265 17.2458 7.02836 17.2458 6.87836C17.2458 6.8355 17.2115 6.80551 17.1729 6.80551C17.13 6.80551 17.1 6.77122 17.1 6.72836C17.1 6.68551 17.0529 6.59979 16.9929 6.54408C16.9286 6.48408 16.8815 6.44979 16.8815 6.46265ZM15.4672 7.42265C15.7074 7.49177 15.9293 7.61335 16.1168 7.77863C16.3043 7.9439 16.4527 8.14874 16.5515 8.37836C16.6243 8.57122 16.7443 8.81122 16.8215 8.91836C16.9929 9.16693 16.9929 9.19693 16.7786 9.19693C16.6543 9.19693 16.5086 9.08122 16.29 8.81551C15.6472 8.04408 15.72 8.06979 13.9415 8.00122C13.5253 8.00493 13.11 7.96325 12.7029 7.87693C12.5529 7.79122 12.5529 7.79122 12.69 7.76122C12.7672 7.74408 12.8443 7.76979 12.8615 7.81265C12.8958 7.92408 13.6372 7.9155 13.7315 7.80408C13.7743 7.75265 13.8172 7.64979 13.8343 7.56836C13.8472 7.49122 13.9415 7.4055 14.04 7.37979C14.3615 7.28979 15.0986 7.31122 15.4672 7.42265ZM12.8658 8.38265L13.5686 8.72551L14.5372 8.76408L15.51 8.79836L15.7543 9.06836C16.0843 9.41979 16.1358 9.65551 15.9772 10.0626C15.6686 10.8684 15.6558 11.3655 15.9343 11.8198C16.1829 12.2226 16.2472 12.5741 16.1443 12.9341C16.0886 13.1098 16.0243 13.2512 15.99 13.2512C15.96 13.2512 15.9343 13.0369 15.9343 12.7798C15.9343 12.4541 15.8915 12.2098 15.7886 12.0084C15.6863 11.7702 15.6102 11.5216 15.5615 11.2669C15.5104 11.0064 15.4239 10.754 15.3043 10.5169L15.1286 10.2084H15.3086C15.5572 10.2084 15.66 9.87408 15.4586 9.72836C15.27 9.59122 15.15 9.60836 15.0429 9.77551C14.9486 9.92551 14.7686 9.97265 14.7686 9.84836C14.7686 9.62551 13.2858 8.97836 12.75 8.96979C12.3815 8.96551 12.2015 9.01693 11.5843 9.31265C10.6586 9.76265 10.3329 10.4869 10.3286 12.0941C10.3286 12.4969 10.3543 12.6084 10.5429 12.8912C10.6629 13.0712 10.7572 13.2726 10.7572 13.3412C10.7615 13.4098 10.9158 13.5812 11.1086 13.7184C11.4986 14.0055 11.7086 14.0312 12.33 13.8684C12.69 13.7784 12.8915 13.6541 13.3972 13.2255C13.56 13.0841 13.7015 12.3598 13.6543 11.9398C13.56 11.1684 12.9472 10.2898 12.3986 10.1484C12.1115 10.0755 12.15 9.97265 12.4886 9.89551C13.3543 9.71122 13.9629 10.0884 14.2415 10.9669C14.3658 11.3784 14.3529 12.1498 14.2158 12.5526C14.0786 12.9512 14.1129 13.0369 14.3143 12.8184C14.5158 12.6041 14.6358 12.1541 14.6872 11.4426C14.73 10.8426 14.7343 10.8298 14.8329 11.0569C14.8972 11.2112 14.9186 11.4726 14.9015 11.7855C14.8586 12.5741 14.5458 13.0626 13.5815 13.8598C13.1315 14.2326 13.08 14.3526 13.4486 14.1598C13.8172 13.9712 13.9629 14.0269 13.65 14.2369C13.1787 14.5974 12.602 14.7932 12.0086 14.7941C11.2972 14.7941 10.8429 14.6012 10.1272 13.9841C9.77263 13.7076 9.48907 13.3506 9.30005 12.9426C9.02576 12.4069 8.99148 12.2912 8.98719 11.7941C8.97862 11.2798 8.99148 11.2198 9.21433 10.9112C9.51433 10.4998 9.64291 10.1998 9.78433 9.57836C9.88291 9.15836 10.0286 8.82836 10.3115 8.41693C10.4315 8.23265 11.0786 8.05265 11.6272 8.04408C12.1329 8.03979 12.2143 8.06122 12.87 8.38265H12.8658ZM10.8772 8.71265C10.71 8.83265 10.8 9.0555 11.0143 9.0555C11.1086 9.0555 11.2029 8.99979 11.2286 8.93551C11.2886 8.77693 11.2886 8.77693 11.1343 8.69551C11.04 8.64408 10.9629 8.65265 10.8772 8.71265ZM9.57433 9.06408C9.54862 9.12408 9.53148 9.10693 9.53148 9.02122C9.52719 8.94408 9.54433 8.90122 9.56576 8.92693C9.59148 8.95265 9.59576 9.01265 9.57433 9.06408ZM9.42862 9.50551C9.41148 9.59122 9.39433 9.5355 9.39433 9.37693C9.39433 9.21836 9.40719 9.14551 9.42862 9.21408C9.44576 9.28265 9.44576 9.41122 9.42862 9.50551ZM18.5486 9.34693C18.6129 9.45836 18.6343 9.59122 18.6 9.67265C18.5486 9.80122 18.5358 9.80122 18.3686 9.60836C18.1586 9.36836 18.1329 9.10265 18.3172 9.13693C18.3858 9.14979 18.4886 9.24408 18.5486 9.35122V9.34693ZM18.3172 9.32122C18.3429 9.39408 18.4029 9.51408 18.4586 9.59122C18.5529 9.73265 18.5572 9.73265 18.5572 9.57408C18.5572 9.48836 18.5229 9.41551 18.4843 9.41551C18.4415 9.41551 18.4115 9.36408 18.4115 9.30408C18.4115 9.24408 18.3815 9.19693 18.3429 9.19693C18.3 9.19693 18.2915 9.25265 18.3172 9.32551V9.32122ZM8.64862 10.1912C8.60148 10.3412 8.47291 10.6626 8.36148 10.8984C8.25005 11.1384 8.11291 11.4641 8.06148 11.6226C8.01433 11.7812 7.92433 12.0084 7.86862 12.1284C7.77005 12.3384 7.76576 12.3298 7.80433 11.9312C7.86862 11.3098 8.09576 10.6841 8.53719 9.92122C8.71291 9.61265 8.77719 9.77122 8.64862 10.1912ZM9.28291 10.0455C9.26148 10.1184 9.24862 10.0755 9.24433 9.95979C9.24433 9.83551 9.26148 9.77979 9.27862 9.83122C9.30005 9.87408 9.30005 9.97693 9.27862 10.0455H9.28291ZM9.13719 10.3669C9.11148 10.4269 9.09433 10.4098 9.09433 10.3241C9.09005 10.2469 9.10719 10.2041 9.12862 10.2298C9.15433 10.2555 9.15862 10.3155 9.13719 10.3669ZM8.99148 10.6584C8.96576 10.7184 8.94862 10.7012 8.94862 10.6155C8.94433 10.5384 8.96148 10.4955 8.98291 10.5212C9.00862 10.5426 9.01291 10.6069 8.99148 10.6584ZM12.4629 10.7826C12.6429 10.9369 12.8443 11.3398 12.9043 11.6826C12.9772 12.0684 12.7758 12.6255 12.5015 12.8226C12.2443 13.0069 11.8243 13.0369 11.67 12.8826C11.4943 12.7069 11.2715 12.0126 11.2715 11.6398C11.2715 10.8126 11.94 10.3326 12.4629 10.7826ZM8.89291 10.8984C8.87148 10.9584 8.83719 11.0055 8.82433 11.0055C8.80719 11.0055 8.79433 10.9584 8.79433 10.8984C8.79433 10.8384 8.82433 10.7912 8.86291 10.7912C8.90576 10.7912 8.91862 10.8384 8.89291 10.8984ZM8.74719 11.1898C8.68719 11.3398 8.64862 11.3226 8.64862 11.1469C8.64862 11.0655 8.67862 11.0184 8.71719 11.0398C8.76005 11.0655 8.76862 11.1341 8.74719 11.1898ZM8.59291 11.6184C8.55005 11.8712 8.50291 11.8498 8.50291 11.5841C8.50291 11.4598 8.53291 11.3784 8.56719 11.3998C8.60148 11.4212 8.61005 11.5198 8.59291 11.6226V11.6184ZM5.45148 11.9569C5.54148 12.2526 5.47719 12.5141 5.32291 12.4712C5.22862 12.4455 5.13433 12.0212 5.18576 11.8284C5.25005 11.5712 5.35719 11.6226 5.45148 11.9569ZM5.31433 12.0555C5.31433 12.2184 5.33148 12.2698 5.34862 12.1841C5.36576 12.0941 5.36576 11.9612 5.34862 11.8926C5.32719 11.8241 5.31433 11.8969 5.31433 12.0555ZM8.45148 12.1712C8.38291 12.3512 8.39148 12.4712 8.51576 12.8355C8.68328 13.3598 8.99521 13.8262 9.41576 14.1812C9.60433 14.3526 9.74148 14.5112 9.71576 14.5326C9.63862 14.6098 9.00433 14.3784 8.76433 14.1769C8.37862 13.8641 8.21148 13.4269 8.21148 12.7498C8.21148 12.4326 8.24576 12.1541 8.28433 12.1284C8.32719 12.1069 8.35719 12.0169 8.35719 11.9312C8.35719 11.8069 8.37433 11.7941 8.44291 11.8626C8.51148 11.9312 8.51576 12.0041 8.45148 12.1712ZM15.48 13.1998C15.4629 13.4655 15.3815 13.7998 15.2829 14.0141C15.1886 14.2112 15.1158 14.3998 15.1243 14.4341C15.1372 14.5026 14.9486 14.6998 14.8629 14.6998C14.76 14.6998 13.9458 15.1369 13.6758 15.3384C13.5343 15.4412 13.3158 15.6341 13.1915 15.7584C12.8443 16.1098 12.6686 16.1784 12.1072 16.1741C11.866 16.1911 11.624 16.1559 11.3977 16.0709C11.1713 15.9858 10.966 15.8529 10.7958 15.6812C10.4615 15.3684 10.4958 15.2955 10.8858 15.4969C11.0486 15.5784 11.3915 15.6684 11.6572 15.6898C12.1115 15.7326 12.1543 15.7241 12.63 15.4541C12.9043 15.3041 13.2943 15.0984 13.4958 14.9998C13.9972 14.7512 14.9315 13.7741 15.2186 13.1998C15.3429 12.9469 15.4586 12.7455 15.4758 12.7455C15.4972 12.7455 15.5015 12.9469 15.4843 13.1998H15.48ZM15.4286 14.1855C15.3515 14.3312 15.2058 14.4555 15.2058 14.3784C15.2058 14.3355 15.4415 14.0484 15.48 14.0484C15.4929 14.0484 15.4672 14.1126 15.4286 14.1898V14.1855ZM16.9415 14.5326C16.9929 14.5541 17.0572 14.5498 17.0786 14.5284C17.1043 14.5026 17.0615 14.4855 16.9843 14.4855C16.8986 14.4941 16.8815 14.5112 16.9415 14.5326ZM16.7358 14.7726C16.5515 14.9569 16.5515 15.1669 16.7358 15.3555C16.8558 15.4712 16.9158 15.4841 17.0272 15.4241C17.31 15.2741 17.4 14.9355 17.2029 14.7384C17.0486 14.5884 16.9115 14.5969 16.7358 14.7726ZM7.42719 14.9312C7.29433 15.0641 7.32005 15.2484 7.50005 15.4626C7.80433 15.8098 8.14291 15.4455 7.86433 15.0726C7.70148 14.8498 7.55148 14.8026 7.42719 14.9312ZM6.61291 15.0469C6.61291 15.0941 6.63862 15.1926 6.67719 15.2612C6.71576 15.3341 6.78862 15.4926 6.84005 15.6212C6.92148 15.8226 7.11862 16.0069 7.11862 15.8869C7.11862 15.8312 6.96005 15.5398 6.90433 15.5012C6.83559 15.4098 6.77803 15.3106 6.73291 15.2055C6.66862 15.0684 6.61291 14.9955 6.60862 15.0469H6.61291ZM14.73 15.3469C14.7986 15.4626 14.6143 15.6898 14.3272 15.8526C14.0229 16.0241 13.8215 16.0455 13.8215 15.9126C13.8215 15.7712 13.9072 15.6726 14.2158 15.4712C14.5158 15.2698 14.6572 15.2355 14.73 15.3512V15.3469ZM14.9872 16.3884C14.9229 16.4312 14.8843 16.5298 14.9015 16.5941C14.9186 16.6884 14.85 16.7226 14.5715 16.7484C14.3786 16.7655 14.04 16.8512 13.8215 16.9412C13.5643 17.0441 13.1915 17.1126 12.7886 17.1426C12.3655 17.1937 11.9363 17.1423 11.5372 16.9926C10.8086 16.7655 10.68 16.7526 10.9158 16.9369C11.2158 17.1641 11.5843 17.3269 12 17.4084C12.3215 17.4726 12.3986 17.5155 12.3858 17.6226C12.3772 17.7426 12.42 17.7512 12.7886 17.7084C13.0158 17.6826 13.26 17.6441 13.3372 17.6226C13.6286 17.5369 13.4015 17.7684 13.0543 17.9098C12.51 18.1326 11.5115 18.1026 10.8686 17.8455C10.7061 17.7681 10.5326 17.7161 10.3543 17.6912C10.2986 17.7469 10.8943 18.2269 11.19 18.3641C11.7504 18.5432 12.3526 18.5432 12.9129 18.3641C13.2472 18.2355 13.4272 18.1069 14.4429 17.3055L14.9272 16.9241C14.9915 16.8769 15.0686 16.7098 15.0986 16.5641C15.1543 16.2641 15.15 16.2598 14.9829 16.3884H14.9872ZM7.99291 16.4741C7.92005 16.5598 7.92433 16.5855 8.01433 16.5855C8.15148 16.5855 8.24148 16.4655 8.14719 16.4098C8.11291 16.3841 8.04005 16.4184 7.99291 16.4741ZM14.6229 16.5126C14.5286 16.5726 14.5329 16.5812 14.64 16.5812C14.7129 16.5812 14.7686 16.5512 14.7686 16.5126C14.7686 16.4226 14.76 16.4226 14.6229 16.5126ZM8.37005 16.5898C8.39148 16.6455 8.49862 16.7012 8.61862 16.7141C8.73433 16.7269 9.11576 16.8298 9.46291 16.9498C10.1743 17.1898 10.3972 17.2241 10.2343 17.0612C9.92295 16.8219 9.55284 16.6709 9.16291 16.6241C8.94862 16.5984 8.67433 16.5555 8.55433 16.5341C8.38719 16.4998 8.34433 16.5126 8.37005 16.5898ZM8.31433 17.3869C8.64862 17.5412 8.78148 17.7041 8.62291 17.7641C8.53719 17.7984 8.02291 17.5798 7.89433 17.4555C7.83433 17.3998 7.88576 17.2369 7.96291 17.2369C7.98005 17.2369 8.13862 17.3012 8.31433 17.3869ZM7.99291 17.4212C7.99291 17.4812 8.51148 17.6826 8.55433 17.6441C8.57576 17.6226 8.46862 17.5584 8.31862 17.4941C8.01862 17.3655 7.99291 17.3655 7.99291 17.4212ZM14.6958 18.4241C14.6958 18.5269 14.3958 18.7541 14.2629 18.7541C14.1386 18.7541 14.1772 18.5269 14.3143 18.4241C14.4815 18.2955 14.6958 18.2955 14.6958 18.4241ZM14.3743 18.5055C14.2972 18.5612 14.25 18.6255 14.2715 18.6469C14.2929 18.6684 14.3872 18.6212 14.4858 18.5441C14.6829 18.3769 14.5843 18.3426 14.3743 18.5012V18.5055Z" fill="#ACFEB2"/>
<path d="M11.07 4.82979C10.9843 4.84693 10.9072 4.88979 10.9072 4.92836C10.9072 4.96693 10.8472 4.99693 10.7786 4.99693C10.7058 4.99693 10.5986 5.06122 10.5429 5.14265C10.4872 5.21979 10.38 5.28408 10.3072 5.28408C10.2386 5.28408 10.1786 5.31836 10.1786 5.35693C10.1786 5.39979 10.1143 5.42979 10.0329 5.42979C9.95148 5.42979 9.88719 5.46408 9.88719 5.50265C9.88719 5.54551 9.75862 5.57551 9.59576 5.57551C9.43719 5.57551 9.30433 5.60979 9.30433 5.64836C9.30433 5.69122 9.25719 5.72122 9.19719 5.72122C8.90576 5.72122 8.31433 6.18408 8.16005 6.53551C8.10862 6.64265 8.03148 6.73265 7.98862 6.73265C7.94576 6.73265 7.86862 6.77551 7.81719 6.82265C7.76576 6.87408 7.63719 6.98122 7.53005 7.05836C7.42291 7.13979 7.33719 7.24265 7.33719 7.29408C7.33719 7.34551 7.30291 7.38408 7.26433 7.38408C7.22148 7.38408 7.19148 7.43551 7.19148 7.49551C7.19148 7.55551 7.15719 7.60265 7.11862 7.60265C7.07576 7.60265 7.04576 7.65408 7.04576 7.70979C7.04576 7.76979 7.01148 7.82122 6.97291 7.82122C6.93005 7.82122 6.90005 7.87693 6.90005 7.94979C6.90005 8.01836 6.83576 8.12122 6.75433 8.18122C6.67291 8.24122 6.60862 8.32265 6.60862 8.36551C6.60862 8.56693 6.26576 9.11551 5.94433 9.42836C5.803 9.54903 5.68278 9.69243 5.58862 9.85265C5.58862 9.89551 5.55433 9.90836 5.51576 9.88265C5.47291 9.86122 5.44291 9.90408 5.44291 9.98122C5.44291 10.0626 5.41719 10.1355 5.38719 10.1526C5.35291 10.1612 5.25005 10.2898 5.15148 10.4269C4.98433 10.6584 4.97148 10.7569 4.94576 11.6569C4.91148 12.8826 4.96291 13.0369 5.37433 13.0369C5.85862 13.0369 5.88862 13.1098 5.88862 14.2284C5.88005 14.8412 5.90576 15.2055 5.95291 15.2055C5.99576 15.2055 6.02576 15.3041 6.02576 15.4241C6.02576 15.5441 6.06005 15.6384 6.09862 15.6384C6.14148 15.6384 6.17148 15.7326 6.17148 15.8441C6.17148 15.9598 6.23148 16.0884 6.31719 16.1441C6.41148 16.2169 6.43291 16.2684 6.37719 16.3026C6.33005 16.3326 6.35576 16.3712 6.45433 16.4012C6.55291 16.4312 6.60862 16.5084 6.60862 16.6198C6.60862 16.8126 7.62862 17.8884 7.81291 17.8884C7.87291 17.8884 7.92005 17.9184 7.92005 17.9612C7.92005 17.9998 7.98433 18.0341 8.06576 18.0341C8.14719 18.0341 8.21148 18.0641 8.21148 18.1026C8.21148 18.1455 8.36148 18.1755 8.54148 18.1755C8.85433 18.1755 9.13719 18.0769 9.24862 17.9226C9.28291 17.8798 9.30433 17.8841 9.30433 17.9398C9.30433 17.9912 9.37291 18.0341 9.45433 18.0341C9.54005 18.0341 9.58291 18.0641 9.56148 18.1026C9.53576 18.1455 9.56148 18.1755 9.63005 18.1755C9.69005 18.1755 9.74148 18.2098 9.74148 18.2484C9.74148 18.2912 9.80576 18.3212 9.88719 18.3212C9.96862 18.3212 10.0329 18.3555 10.0329 18.3941C10.0329 18.4369 10.0929 18.4669 10.1615 18.4669C10.2343 18.4669 10.3415 18.5312 10.3972 18.6126C10.4529 18.6898 10.5643 18.7584 10.6372 18.7584C10.71 18.7584 10.7486 18.7884 10.7229 18.8269C10.7015 18.8698 10.7315 18.8998 10.7915 18.8998C10.8558 18.8998 10.9072 18.9341 10.9072 18.9726C10.9072 19.0155 10.9715 19.0455 11.0486 19.0455C11.1258 19.0455 11.1986 19.0884 11.22 19.1355C11.2629 19.2726 14.1686 19.2641 14.2543 19.1269C14.3058 19.0412 14.3186 19.0412 14.3529 19.1269C14.3829 19.1998 14.3958 19.1998 14.3958 19.1355C14.4 19.0884 14.4558 19.0498 14.5158 19.0498C14.5758 19.0498 14.7429 18.9341 14.88 18.7926C15.1029 18.5741 15.1329 18.5012 15.1329 18.1712C15.1329 17.8798 15.1672 17.7641 15.2872 17.6612C15.3729 17.5884 15.4758 17.5498 15.5186 17.5755C15.5615 17.6012 15.57 17.5841 15.54 17.5326C15.51 17.4898 15.5358 17.4512 15.6043 17.4512C15.6643 17.4512 15.7158 17.4212 15.7158 17.3784C15.7158 17.3398 15.7886 17.3055 15.8786 17.3055C16.0115 17.3055 16.0243 17.2926 15.9343 17.2369C15.8486 17.1812 15.8829 17.1641 16.0629 17.1641C16.1915 17.1641 16.2986 17.1341 16.2986 17.0998C16.2986 17.0655 16.3972 16.9969 16.5172 16.9455C16.6372 16.8941 16.7358 16.8255 16.7358 16.7912C16.7358 16.7569 16.7872 16.7269 16.8472 16.7269C16.9072 16.7269 17.07 16.6241 17.2029 16.4912C17.3315 16.3626 17.58 16.1441 17.7429 16.0026C17.91 15.8655 18.0429 15.7026 18.0429 15.6384C18.0429 15.5784 18.1115 15.4841 18.1929 15.4241C18.2743 15.3684 18.3386 15.2612 18.3386 15.1926C18.3386 15.1198 18.3729 15.0641 18.4115 15.0641C18.4543 15.0641 18.4843 14.9955 18.4843 14.9184C18.4843 14.8369 18.5186 14.7726 18.5572 14.7726C18.6 14.7726 18.63 14.6012 18.63 14.3869C18.63 14.1041 18.5915 13.9626 18.4843 13.8469C18.3343 13.6884 18.2829 13.3241 18.4115 13.3241C18.4543 13.3241 18.4843 13.2726 18.4843 13.2084C18.4843 13.1398 18.5486 13.0369 18.6215 12.9684C18.6986 12.9041 18.8358 12.7112 18.9215 12.5441C19.0715 12.2569 19.08 12.1712 19.05 10.7741C19.0243 9.25693 18.9943 9.11551 18.6815 8.80265C18.6129 8.73408 18.5786 8.64408 18.6043 8.60122C18.63 8.55836 18.6172 8.54122 18.5743 8.57122C18.5315 8.59693 18.4458 8.56693 18.3772 8.50265C18.3375 8.46565 18.2897 8.43859 18.2375 8.42369C18.1854 8.40879 18.1304 8.40647 18.0772 8.41693C17.9315 8.44693 17.9015 8.42551 17.9015 8.27979C17.9015 8.18551 17.8672 8.10836 17.8286 8.10836C17.7858 8.10836 17.7558 7.93265 17.7558 7.70979C17.7558 7.49551 17.79 7.3155 17.8286 7.3155C17.8715 7.3155 17.9015 7.1355 17.9015 6.91693C17.9015 6.69408 17.8672 6.51836 17.8286 6.51836C17.8187 6.51838 17.8088 6.51636 17.7997 6.51244C17.7906 6.50851 17.7823 6.50276 17.7755 6.49553C17.7687 6.4883 17.7634 6.47976 17.76 6.47042C17.7566 6.46108 17.7552 6.45114 17.7558 6.44122C17.7558 6.3255 17.4129 6.01265 17.2843 6.01265C17.2243 6.01265 17.1729 5.97836 17.1729 5.93551C17.1729 5.89693 17.1086 5.86693 17.0272 5.86693C16.9458 5.86693 16.8815 5.83265 16.8815 5.79408C16.8815 5.75122 16.6886 5.72122 16.4443 5.72122C16.2 5.72122 16.0072 5.68693 16.0072 5.64836C16.0072 5.60551 15.8572 5.57551 15.6729 5.57551C15.4929 5.57551 15.2743 5.54122 15.1929 5.49408C15.0858 5.43836 15.0215 5.43836 14.9658 5.49408C14.7943 5.6655 14.1172 5.51979 13.8858 5.26693C13.8215 5.19836 13.7315 5.13836 13.6843 5.13836C13.6372 5.13836 13.53 5.07836 13.4486 5.00551C13.3266 4.91276 13.184 4.851 13.0329 4.82551C12.7372 4.77408 11.3315 4.78265 11.07 4.82979ZM12.5486 5.43408C12.7072 5.47693 12.9343 5.55836 13.0543 5.60979C13.7786 5.93551 14.1258 6.02551 14.8115 6.07693C15.6772 6.13693 16.2472 6.36408 16.4658 6.73265C16.5386 6.85265 16.7272 7.10122 16.8858 7.28122C17.0443 7.46122 17.1858 7.69693 17.2115 7.80836C17.3143 8.31408 17.6443 9.12836 17.7729 9.18408C17.8029 9.19693 17.8286 9.24836 17.8286 9.29551C17.8286 9.34693 17.8886 9.44979 17.9572 9.52693C18.03 9.60408 18.1972 9.88693 18.33 10.1569C18.5443 10.5855 18.5786 10.7312 18.5958 11.2798C18.6129 11.9098 18.6129 11.9098 18.5615 11.4084C18.5015 10.7869 18.4672 10.7012 18.1072 10.2684C17.6997 9.71723 17.3425 9.13058 17.04 8.51551C16.6972 7.74408 16.1272 7.21265 15.5272 7.10122C15.3472 7.06693 15.1415 6.98979 15.0686 6.92122C14.9529 6.81836 14.8629 6.81408 14.4086 6.87836C14.1172 6.92122 13.8515 6.96836 13.8172 6.98979C13.7829 7.01122 13.5686 7.06265 13.3329 7.10551C13.1065 7.1448 12.887 7.21699 12.6815 7.31979C12.4329 7.47408 12.1543 7.49122 11.3486 7.40551L10.8043 7.34979L11.49 7.07122C13.2858 6.34265 13.2343 6.35979 14.04 6.32122C14.6638 6.28589 15.2894 6.3349 15.9 6.46693C15.9772 6.48408 16.0029 6.48408 15.9515 6.46693C15.9043 6.44979 15.8615 6.40693 15.8615 6.37693C15.8615 6.28265 15.2872 6.16265 14.6529 6.12836C14.2812 6.11478 13.9145 6.03797 13.5686 5.90122L13.0672 5.69979L12.6258 5.93979C12.3815 6.06836 12 6.28265 11.7815 6.41122C11.5629 6.53979 11.2329 6.70693 11.0529 6.77551C10.3866 7.02244 9.80399 7.45343 9.37291 8.01836C9.11576 8.33979 8.85862 8.68265 8.81576 8.77265L8.62291 9.19693C8.48576 9.5055 7.92005 10.3498 7.92005 10.2469C7.92005 10.1869 8.10433 9.47122 8.34862 8.55836C8.5632 8.01186 8.92703 7.53666 9.39862 7.18693C10.05 6.68979 10.5558 6.15836 10.3586 6.15836C10.3372 6.15836 10.23 6.24408 10.1229 6.35979C10.0115 6.47122 9.96433 6.50979 10.0158 6.44551C10.1486 6.26979 10.1272 6.23122 9.90433 6.23122C9.67291 6.23122 9.23576 6.47122 9.22719 6.60836C9.22719 6.65551 9.19291 6.63408 9.15862 6.55265C9.11576 6.44979 9.09433 6.44122 9.09005 6.52265C9.09005 6.58265 9.13291 6.69408 9.18433 6.77122C9.28291 6.89979 9.29148 6.89979 9.54862 6.74979C9.69433 6.66408 9.81433 6.62122 9.81433 6.65122C9.81433 6.71979 9.33862 6.95122 9.19291 6.95122C9.13291 6.95122 9.08576 6.97693 9.08576 7.01122C9.08576 7.07122 8.58005 7.31122 8.45148 7.31122C8.28005 7.31122 7.90291 7.56408 7.65005 7.85122C7.49576 8.02265 7.22148 8.47265 7.03719 8.84551C6.76291 9.38979 6.70291 9.57408 6.73719 9.78836C6.79719 10.2769 6.41576 11.0055 6.09433 11.0055C5.97005 11.0055 5.95291 11.0612 5.95719 11.3912C5.96148 11.5969 5.99148 11.9141 6.02148 12.0941C6.08148 12.4155 6.08148 12.4155 6.09005 12.1584C6.10719 11.6912 6.18005 11.4555 6.32576 11.4169C6.40719 11.3955 6.48862 11.4298 6.52719 11.4984C6.57862 11.5841 6.60433 11.5541 6.64291 11.3612C6.67291 11.2284 6.77148 10.8726 6.86148 10.5726C6.95576 10.2726 7.06719 9.78408 7.11005 9.48408C7.24291 8.6055 7.89005 7.54265 8.25005 7.61551C8.36576 7.63693 8.35719 7.66265 8.19862 7.85551C7.80901 8.28465 7.58161 8.83646 7.55576 9.41551C7.51268 9.97894 7.39894 10.5347 7.21719 11.0698C7.03291 11.7126 7.00291 12.2269 7.12291 12.7369C7.16576 12.9341 7.17005 13.0798 7.12291 13.1355C7.08005 13.1869 7.09291 13.2641 7.15291 13.3455C7.23862 13.4655 7.25148 13.4655 7.29433 13.3498C7.33719 13.2426 7.35005 13.2426 7.44433 13.3669C7.50433 13.4441 7.55148 13.5469 7.55148 13.6026C7.55576 13.7312 7.98005 14.3398 8.19862 14.5326C8.29719 14.6184 8.66148 14.8241 9.00433 14.9912C9.47576 15.2184 9.74576 15.4155 10.1186 15.7884C10.71 16.3884 11.0915 16.6155 11.6872 16.7355C12.0858 16.8212 12.2058 16.8126 12.6343 16.7012C12.9086 16.6326 13.2815 16.5469 13.47 16.5126C13.8222 16.4612 14.1581 16.3303 14.4521 16.1299C14.7462 15.9294 14.9907 15.6646 15.1672 15.3555C15.3215 15.0598 15.5743 14.7726 15.6858 14.7726C15.7072 14.7726 15.66 14.8841 15.5743 15.0169C15.4286 15.2526 15.3772 15.4969 15.4715 15.4969C15.6386 15.4969 16.2086 14.5155 16.1572 14.3098C16.1529 14.2755 16.2258 14.0398 16.3286 13.7955C16.6129 13.1344 16.7022 12.4057 16.5858 11.6955C16.5 10.9926 16.5429 10.1355 16.6715 10.2598C16.77 10.3626 16.9458 11.3226 16.9972 12.0426L17.04 12.6812L17.1815 12.5184C17.37 12.2998 17.5029 12.4241 17.3872 12.7155C17.2586 13.0369 17.2758 13.7226 17.4215 14.4298C17.5243 14.9269 17.5372 15.1069 17.4729 15.2869C17.3872 15.5398 17.43 15.6726 17.5415 15.4969C17.7343 15.1969 17.7686 14.7984 17.6872 13.7612C17.55 12.0341 17.52 11.7812 17.4258 11.4426L17.2243 10.7355C17.1627 10.5219 17.0794 10.3151 16.9758 10.1184C16.6029 9.48836 16.8 9.44122 17.2672 10.0455C17.7878 10.6716 18.0876 11.4519 18.12 12.2655C18.12 12.4498 18.15 12.5998 18.1843 12.5998C18.2186 12.5998 18.3172 12.4626 18.3986 12.2912C18.4843 12.1198 18.5529 12.0298 18.5529 12.0769C18.5572 12.2055 18.4243 12.4541 18.2658 12.6341C17.8715 13.0712 17.8029 13.3198 17.7943 14.2626C17.7943 15.0512 17.7729 15.2055 17.64 15.4241C17.5543 15.5655 17.4472 15.6684 17.3958 15.6598C17.3486 15.6469 17.3229 15.6641 17.3443 15.6941C17.4043 15.7926 17.19 16.0241 17.0958 15.9641C17.04 15.9298 17.0229 15.9384 17.0529 15.9898C17.1258 16.1012 16.7143 16.3841 16.0072 16.7098C15.5393 16.9213 15.1138 17.2161 14.7515 17.5798C14.4043 17.9012 13.9415 18.2484 13.7315 18.3512C13.1743 18.6126 12.27 18.7369 11.73 18.6169C11.2722 18.5372 10.8493 18.3206 10.5172 17.9955C10.02 17.5926 9.55719 17.3826 8.68719 17.1641C7.62862 16.9026 7.14433 16.5384 6.74148 15.6984C6.39005 14.9741 6.35576 14.8112 6.45433 14.4212C6.57433 13.9541 6.51433 13.6541 6.13719 12.8184C5.50291 11.4041 5.53719 10.7012 6.30862 9.86122C6.46291 9.68979 6.75005 9.23551 6.94719 8.85408C7.41862 7.93265 7.85576 7.45693 8.44719 7.22122C8.88005 7.04979 8.90576 7.02408 8.94433 6.75836C8.99148 6.40693 9.07291 6.27836 9.20576 6.32979C9.26576 6.35122 9.29148 6.34265 9.27005 6.30836C9.21433 6.21408 9.41576 6.15408 9.79719 6.15408C10.0629 6.15408 10.2386 6.08979 10.6286 5.85836C11.3743 5.40836 11.9572 5.27979 12.5443 5.43408H12.5486ZM17.1858 6.64693C17.2672 6.77551 17.3143 6.93408 17.2886 6.99836C17.2458 7.10551 17.2286 7.1055 17.1086 6.99408C16.9794 6.8475 16.8699 6.6847 16.7829 6.50979L16.5943 6.14979L16.8172 6.27836C16.9372 6.35122 17.1043 6.51408 17.1858 6.64693ZM16.8815 6.46265C16.8815 6.47979 16.9329 6.59551 16.9972 6.71979C17.1043 6.94265 17.2458 7.02836 17.2458 6.87836C17.2458 6.8355 17.2115 6.80551 17.1729 6.80551C17.13 6.80551 17.1 6.77122 17.1 6.72836C17.1 6.68551 17.0529 6.59979 16.9929 6.54408C16.9286 6.48408 16.8815 6.44979 16.8815 6.46265ZM13.5943 7.46551C13.7229 7.58551 13.74 7.63693 13.6715 7.71836C13.5729 7.83408 13.0929 7.85979 13.0929 7.74836C13.0929 7.70551 13.0329 7.67551 12.9558 7.67551C12.8786 7.67551 12.8015 7.63265 12.78 7.57693C12.6686 7.29408 13.3158 7.20836 13.5943 7.46551ZM15.4672 7.42265C15.7074 7.49177 15.9293 7.61335 16.1168 7.77863C16.3043 7.9439 16.4527 8.14874 16.5515 8.37836C16.6243 8.57122 16.7443 8.81122 16.8215 8.91836C16.9929 9.16693 16.9929 9.19693 16.7786 9.19693C16.6543 9.19693 16.5086 9.08122 16.29 8.81551C15.6472 8.04408 15.72 8.06979 13.9415 8.00122C13.5253 8.00493 13.11 7.96325 12.7029 7.87693C12.5529 7.79122 12.5529 7.79122 12.69 7.76122C12.7672 7.74408 12.8443 7.76979 12.8615 7.81265C12.8958 7.92408 13.6372 7.9155 13.7315 7.80408C13.7743 7.75265 13.8172 7.64979 13.8343 7.56836C13.8472 7.49122 13.9415 7.4055 14.04 7.37979C14.3615 7.28979 15.0986 7.31122 15.4672 7.42265ZM13.0543 7.55979C13.2815 7.65836 13.4186 7.6455 13.3458 7.5255C13.32 7.48693 13.2 7.46122 13.0715 7.46122H12.8358L13.0586 7.55979H13.0543ZM12.1115 7.78693C12.45 7.92836 12.4886 7.95836 12.2915 7.92408C12.15 7.89836 11.8158 7.86408 11.5458 7.84265C11.0786 7.81265 11.0186 7.82551 10.4143 8.11693C9.57862 8.52408 9.35576 8.76408 9.24005 9.39836C9.18433 9.68122 8.98291 10.2341 8.75148 10.7226C8.59762 11.0271 8.46585 11.3422 8.35719 11.6655C8.35719 11.7512 8.34433 11.7512 8.28005 11.6569C8.21576 11.5712 8.21148 11.5798 8.24576 11.6998C8.26719 11.7855 8.25862 11.9312 8.22433 12.0298C8.16005 12.2012 8.15576 12.2012 8.10862 11.9784C8.07005 11.8069 8.11719 11.6226 8.31862 11.1898C8.46005 10.8769 8.56291 10.6069 8.54576 10.5898C8.52862 10.5726 8.43433 10.7312 8.34005 10.9455C7.98433 11.7298 7.97148 11.7855 8.05719 12.0298C8.10005 12.1584 8.14291 12.5055 8.14291 12.8098C8.14291 13.4012 8.29291 13.8598 8.59719 14.1812C8.68291 14.2755 9.02148 14.4769 9.34291 14.6226C9.81005 14.8412 10.0286 15.0084 10.47 15.4541C10.77 15.7626 11.1129 16.0541 11.2372 16.1055C11.7643 16.3326 11.88 16.3626 12.1372 16.3626C12.5229 16.3626 12.8615 16.2126 13.3158 15.8269C13.7058 15.4926 13.9243 15.4026 13.8472 15.6041C13.8258 15.6641 13.7786 15.7155 13.74 15.7155C13.6372 15.7155 13.6672 16.0584 13.77 16.1012C14.0143 16.1869 14.3615 16.0369 14.7043 15.6812C14.9358 15.4455 14.8629 15.1755 14.55 15.1155C14.3915 15.0855 14.4 15.0812 14.5972 15.0726C15.1929 15.0469 16.2086 13.6284 16.2815 12.7155C16.3072 12.3984 16.2815 12.2655 16.0886 11.8926C15.9555 11.6542 15.8789 11.3884 15.8648 11.1157C15.8507 10.843 15.8994 10.5707 16.0072 10.3198C16.0886 10.0884 16.1529 9.80551 16.1529 9.68979C16.1529 9.17551 15.7072 8.75122 15.0258 8.61836C14.7815 8.57122 14.55 8.48551 14.5029 8.42979C14.4 8.29693 13.5 8.20265 13.4315 8.31408C13.38 8.39122 13.4786 8.42979 13.8943 8.49836C13.9929 8.51122 13.9243 8.52836 13.7358 8.53693C13.5472 8.53693 13.3715 8.51122 13.35 8.47265C13.3243 8.42979 13.2429 8.39979 13.1658 8.39979C13.0929 8.39979 13.02 8.37408 13.0072 8.34408C12.9263 8.26734 12.8318 8.2063 12.7286 8.16408L12.4715 8.03979H12.7072C12.8358 8.03979 12.96 8.06979 12.9858 8.10836C13.0115 8.15122 13.5129 8.18122 14.2458 8.18122C15.3172 8.18122 15.4886 8.19836 15.69 8.32265C15.9967 8.56502 16.242 8.8763 16.4058 9.23122C16.5129 9.50122 16.5172 12.7455 16.41 13.1055C16.2258 13.7269 15.8529 14.4255 15.5529 14.6912C15.3986 14.8369 15.1886 15.1026 15.0986 15.2826C14.957 15.5646 14.7479 15.8071 14.49 15.9888C14.232 16.1705 13.9332 16.2857 13.62 16.3241C13.4092 16.3572 13.2014 16.4073 12.9986 16.4741C12.6904 16.5512 12.3734 16.5873 12.0558 16.5812C11.2286 16.5812 10.9158 16.4398 10.1443 15.7112C9.80543 15.3707 9.40943 15.0922 8.97433 14.8884C8.25862 14.5541 7.98862 14.3055 7.73148 13.7312C7.54291 13.3284 7.52576 13.2169 7.53005 12.4541C7.53005 11.7255 7.56005 11.5541 7.73576 11.0826C7.84719 10.7826 7.95862 10.5212 7.98433 10.4998C8.01005 10.4784 8.11291 10.3069 8.21148 10.1141C8.31005 9.91693 8.40433 9.80122 8.42148 9.85693C8.43862 9.90836 8.41291 9.96408 8.37005 9.97693C8.32291 9.99408 8.28433 10.0669 8.28433 10.1441C8.28433 10.2212 8.25005 10.2812 8.21148 10.2812C8.16862 10.2812 8.13862 10.3498 8.13862 10.4269C8.13862 10.5084 8.11291 10.5726 8.08291 10.5726C8.04862 10.5726 7.98005 10.7269 7.92862 10.9155L7.77005 11.4726C7.68433 11.7426 7.68433 12.3169 7.77005 12.4541C7.82576 12.5398 7.85576 12.5184 7.92005 12.3512C8.01862 12.0855 7.96291 11.9226 7.85576 12.1669C7.78291 12.3169 7.77862 12.2826 7.80862 11.9398C7.85576 11.4255 8.03148 10.8726 8.33148 10.3112C8.46005 10.0626 8.55862 9.80551 8.54576 9.72836C8.53291 9.65551 8.53719 9.63408 8.55433 9.68551C8.57148 9.73693 8.62291 9.75408 8.66576 9.72836C8.74291 9.68551 8.72576 9.85693 8.61433 10.3541C8.57576 10.5084 8.58005 10.5169 8.64005 10.3926C8.76862 10.1184 8.93148 9.52693 8.89291 9.46693C8.87148 9.43265 8.80719 9.44551 8.75148 9.49265C8.43862 9.74979 9.02576 8.59265 9.37291 8.27122C9.67291 7.99693 9.93433 7.93693 9.68148 8.20693C9.25291 8.65693 9.76291 8.34408 10.3843 7.76979C10.65 7.52122 11.5158 7.52979 12.1158 7.78693H12.1115ZM10.0115 7.93693C9.99005 7.96265 9.92576 7.96265 9.87433 7.94122C9.81433 7.91979 9.83148 7.89836 9.91719 7.89836C9.99433 7.89836 10.0372 7.91122 10.0115 7.93693ZM12.8658 8.38265L13.5686 8.72551L14.5372 8.76408L15.51 8.79836L15.7543 9.06836C16.0843 9.41979 16.1358 9.65551 15.9772 10.0626C15.6686 10.8684 15.6558 11.3655 15.9343 11.8198C16.1829 12.2226 16.2472 12.5741 16.1443 12.9341C16.0886 13.1098 16.0243 13.2512 15.99 13.2512C15.96 13.2512 15.9343 13.0369 15.9343 12.7798C15.9343 12.4541 15.8915 12.2098 15.7886 12.0084C15.6863 11.7702 15.6102 11.5216 15.5615 11.2669C15.5104 11.0064 15.4239 10.754 15.3043 10.5169L15.1286 10.2084H15.3086C15.5572 10.2084 15.66 9.87408 15.4586 9.72836C15.27 9.59122 15.15 9.60836 15.0429 9.77551C14.9486 9.92551 14.7686 9.97265 14.7686 9.84836C14.7686 9.62551 13.2858 8.97836 12.75 8.96979C12.3815 8.96551 12.2015 9.01693 11.5843 9.31265C10.6586 9.76265 10.3329 10.4869 10.3286 12.0941C10.3286 12.4969 10.3543 12.6084 10.5429 12.8912C10.6629 13.0712 10.7572 13.2726 10.7572 13.3412C10.7615 13.4098 10.9158 13.5812 11.1086 13.7184C11.4986 14.0055 11.7086 14.0312 12.33 13.8684C12.69 13.7784 12.8915 13.6541 13.3972 13.2255C13.56 13.0841 13.7015 12.3598 13.6543 11.9398C13.56 11.1684 12.9472 10.2898 12.3986 10.1484C12.1115 10.0755 12.15 9.97265 12.4886 9.89551C13.3543 9.71122 13.9629 10.0884 14.2415 10.9669C14.3658 11.3784 14.3529 12.1498 14.2158 12.5526C14.0786 12.9512 14.1129 13.0369 14.3143 12.8184C14.5158 12.6041 14.6358 12.1541 14.6872 11.4426C14.73 10.8426 14.7343 10.8298 14.8329 11.0569C14.8972 11.2112 14.9186 11.4726 14.9015 11.7855C14.8586 12.5741 14.5458 13.0626 13.5815 13.8598C13.1315 14.2326 13.08 14.3526 13.4486 14.1598C13.8172 13.9712 13.9629 14.0269 13.65 14.2369C13.1787 14.5974 12.602 14.7932 12.0086 14.7941C11.2972 14.7941 10.8429 14.6012 10.1272 13.9841C9.77263 13.7076 9.48907 13.3506 9.30005 12.9426C9.02576 12.4069 8.99148 12.2912 8.98719 11.7941C8.97862 11.2798 8.99148 11.2198 9.21433 10.9112C9.51433 10.4998 9.64291 10.1998 9.78433 9.57836C9.88291 9.15836 10.0286 8.82836 10.3115 8.41693C10.4315 8.23265 11.0786 8.05265 11.6272 8.04408C12.1329 8.03979 12.2143 8.06122 12.87 8.38265H12.8658ZM10.8772 8.71265C10.71 8.83265 10.8 9.0555 11.0143 9.0555C11.1086 9.0555 11.2029 8.99979 11.2286 8.93551C11.2886 8.77693 11.2886 8.77693 11.1343 8.69551C11.04 8.64408 10.9629 8.65265 10.8772 8.71265ZM11.1129 8.84122C11.0958 8.88408 11.0529 8.91836 11.0143 8.91836C10.98 8.91836 10.9372 8.88408 10.92 8.84122C10.9072 8.79836 10.95 8.76408 11.0143 8.76408C11.0829 8.76408 11.1258 8.79836 11.1129 8.84122ZM9.57005 9.06408C9.54862 9.12408 9.53148 9.10693 9.52719 9.02122C9.52719 8.94408 9.54433 8.90122 9.57005 8.92693C9.59148 8.95265 9.59576 9.01265 9.57005 9.06408ZM9.42862 9.50551C9.41148 9.59122 9.39433 9.5355 9.39433 9.37693C9.39433 9.21836 9.40719 9.14551 9.42862 9.21408C9.44576 9.28265 9.44576 9.41122 9.42862 9.50551ZM18.5486 9.34693C18.6129 9.45836 18.6343 9.59122 18.6 9.67265C18.5486 9.80122 18.5358 9.80122 18.3686 9.60836C18.1586 9.36836 18.1329 9.10265 18.3172 9.13693C18.3858 9.14979 18.4886 9.24408 18.5486 9.35122V9.34693ZM18.3172 9.32122C18.3429 9.39408 18.4029 9.51408 18.4586 9.59122C18.5529 9.73265 18.5572 9.73265 18.5572 9.57408C18.5572 9.48836 18.5229 9.41551 18.4843 9.41551C18.4415 9.41551 18.4115 9.36408 18.4115 9.30408C18.4115 9.24408 18.3815 9.19693 18.3429 9.19693C18.3 9.19693 18.2915 9.25265 18.3172 9.32551V9.32122ZM9.28291 10.0498C9.26148 10.1184 9.24862 10.0755 9.24433 9.95551C9.24433 9.83551 9.26148 9.77979 9.27862 9.82693C9.30005 9.87836 9.30005 9.97693 9.27862 10.0455L9.28291 10.0498ZM15.4458 9.86551C15.4972 10.0112 15.42 10.1398 15.2786 10.1398C15.1415 10.1398 15.03 9.9555 15.0986 9.83979C15.1629 9.7455 15.4072 9.76265 15.4415 9.86551H15.4458ZM12.5829 10.3198C13.0243 10.5469 13.3972 11.1641 13.4958 11.8284C13.5815 12.4155 13.2815 13.0112 12.7029 13.3798C12.2915 13.6455 11.64 13.6584 11.2886 13.4098C11.1512 13.3171 11.0379 13.1928 10.9581 13.0475C10.8783 12.9021 10.8344 12.7398 10.83 12.5741C10.8558 11.3526 10.8943 11.0784 11.0872 10.7526C11.3572 10.2898 11.6529 10.1184 12.0729 10.1784C12.2529 10.2041 12.48 10.2641 12.5829 10.3198ZM9.13719 10.3669C9.11148 10.4269 9.09433 10.4098 9.09433 10.3241C9.09005 10.2469 9.10719 10.2041 9.12862 10.2298C9.15433 10.2555 9.15862 10.3155 9.13719 10.3669ZM11.7815 10.3369C11.5158 10.4355 11.2758 10.6669 11.1343 10.9669C10.9286 11.4084 10.9072 12.7841 11.1043 13.0841C11.2415 13.2898 11.6015 13.4698 11.88 13.4698C12.0215 13.4698 12.0515 13.4398 12.0215 13.3241C12 13.2469 11.9572 13.1784 11.9229 13.1784C11.8115 13.1784 11.3443 12.7326 11.3443 12.6298C11.3443 12.5698 11.3143 12.4712 11.28 12.3984C11.1779 12.2334 11.1145 12.0475 11.0944 11.8545C11.0744 11.6615 11.0983 11.4665 11.1643 11.2841C11.31 10.8555 11.6829 10.4269 11.9186 10.4269C12.0043 10.4269 12.0729 10.3969 12.0729 10.3541C12.0729 10.2769 11.9572 10.2684 11.7815 10.3369ZM8.99148 10.6584C8.96576 10.7184 8.94862 10.7012 8.94862 10.6155C8.94433 10.5384 8.96148 10.4955 8.98291 10.5212C9.00862 10.5426 9.01291 10.6069 8.99148 10.6584ZM11.8115 10.5726C11.64 10.6412 11.2715 11.0484 11.2715 11.1726C11.2715 11.2241 11.3315 11.1641 11.4043 11.0441C11.6015 10.7269 11.7472 10.6284 12.0386 10.6284C12.3386 10.6284 12.54 10.7826 12.7243 11.1512C13.1529 11.9955 12.7886 12.9641 12.0343 12.9855C11.8843 12.9855 11.8072 13.0155 11.8458 13.0584C11.9486 13.1569 12.3429 13.0412 12.5872 12.8398C13.1743 12.3512 13.1529 11.4426 12.5443 10.8084C12.2443 10.4998 12.1029 10.4526 11.8158 10.5684L11.8115 10.5726ZM8.89719 10.8984C8.87148 10.9584 8.83719 11.0055 8.82433 11.0055C8.80719 11.0055 8.79433 10.9584 8.79433 10.8984C8.79433 10.8384 8.82433 10.7912 8.86291 10.7912C8.90576 10.7912 8.91862 10.8384 8.89291 10.8984H8.89719ZM8.74719 11.1898C8.68719 11.3398 8.64862 11.3226 8.64862 11.1469C8.64862 11.0655 8.67862 11.0184 8.71719 11.0398C8.76005 11.0655 8.76862 11.1341 8.74719 11.1898ZM11.22 11.6612C11.22 11.8755 11.2329 11.9655 11.25 11.8584C11.2672 11.7469 11.2672 11.5712 11.25 11.4598C11.2329 11.3484 11.22 11.4384 11.22 11.6569V11.6612ZM8.59291 11.6184C8.55005 11.8712 8.50291 11.8498 8.50291 11.5841C8.50291 11.4598 8.53291 11.3784 8.56719 11.3998C8.60148 11.4212 8.61005 11.5198 8.59291 11.6226V11.6184ZM5.45148 11.9569C5.54148 12.2526 5.47719 12.5141 5.32291 12.4712C5.22862 12.4455 5.13433 12.0212 5.18576 11.8284C5.25005 11.5712 5.35719 11.6226 5.45148 11.9569ZM5.31433 12.0555C5.31433 12.2184 5.33148 12.2698 5.34862 12.1841C5.36576 12.0941 5.36576 11.9612 5.34862 11.8926C5.32719 11.8241 5.31433 11.8969 5.31433 12.0555ZM8.45148 12.1712C8.38291 12.3512 8.39148 12.4712 8.51576 12.8355C8.68328 13.3598 8.99521 13.8262 9.41576 14.1812C9.60433 14.3526 9.74148 14.5112 9.71576 14.5326C9.63862 14.6098 9.00433 14.3784 8.76433 14.1769C8.37862 13.8641 8.21148 13.4269 8.21148 12.7498C8.21148 12.4326 8.24576 12.1541 8.28433 12.1284C8.32719 12.1069 8.35719 12.0169 8.35719 11.9312C8.35719 11.8069 8.37433 11.7941 8.44291 11.8626C8.51148 11.9312 8.51576 12.0041 8.45148 12.1712ZM11.2758 12.1669C11.2758 12.2269 11.3058 12.3212 11.3443 12.3812C11.4086 12.4798 11.4129 12.4798 11.4129 12.3812C11.4129 12.3212 11.3829 12.2269 11.3443 12.1669C11.28 12.0684 11.2758 12.0684 11.2758 12.1669ZM11.4172 12.5784C11.4172 12.6212 11.4858 12.7326 11.5672 12.8269L11.7172 12.9984L11.5886 12.7841C11.4172 12.4969 11.4172 12.4926 11.4172 12.5784ZM15.4843 13.1998C15.4629 13.4655 15.3815 13.7998 15.2829 14.0141C15.1886 14.2112 15.1158 14.3998 15.1243 14.4341C15.1372 14.5026 14.9486 14.6998 14.8629 14.6998C14.76 14.6998 13.9458 15.1369 13.6758 15.3384C13.5343 15.4412 13.3158 15.6341 13.1915 15.7584C12.8443 16.1098 12.6686 16.1784 12.1072 16.1741C11.866 16.1911 11.624 16.1559 11.3977 16.0709C11.1713 15.9858 10.966 15.8529 10.7958 15.6812C10.4615 15.3684 10.4958 15.2955 10.8858 15.4969C11.0486 15.5784 11.3915 15.6684 11.6572 15.6898C12.1115 15.7326 12.1543 15.7241 12.63 15.4541C12.9043 15.3041 13.2943 15.0984 13.4958 14.9998C13.9972 14.7512 14.9315 13.7741 15.2186 13.1998C15.3429 12.9469 15.4586 12.7455 15.4758 12.7455C15.4972 12.7455 15.5015 12.9469 15.4843 13.1998ZM15.4286 14.1855C15.3515 14.3312 15.2058 14.4555 15.2058 14.3784C15.2058 14.3355 15.4415 14.0484 15.48 14.0484C15.4929 14.0484 15.4672 14.1126 15.4286 14.1898V14.1855ZM16.9415 14.5326C16.9929 14.5541 17.0572 14.5498 17.0786 14.5284C17.1043 14.5026 17.0615 14.4855 16.9843 14.4855C16.8986 14.4941 16.8815 14.5112 16.9415 14.5326ZM16.7358 14.7726C16.5515 14.9569 16.5515 15.1669 16.7358 15.3555C16.8558 15.4712 16.9158 15.4841 17.0272 15.4241C17.31 15.2741 17.4 14.9355 17.2029 14.7384C17.0486 14.5884 16.9115 14.5969 16.7358 14.7726ZM17.1043 14.7726C17.2886 14.8755 17.2843 15.0984 17.0958 15.2869C16.95 15.4284 16.9372 15.4326 16.8043 15.3126C16.6329 15.1584 16.6243 15.0084 16.7829 14.8326C16.9243 14.6784 16.9243 14.6784 17.1043 14.7769V14.7726ZM7.42719 14.9312C7.29433 15.0641 7.32005 15.2484 7.50005 15.4626C7.80433 15.8098 8.14291 15.4455 7.86433 15.0726C7.70148 14.8498 7.55148 14.8026 7.42719 14.9312ZM6.61291 15.0469C6.61291 15.0941 6.63862 15.1926 6.67719 15.2612C6.71576 15.3341 6.78862 15.4926 6.84005 15.6212C6.92148 15.8226 7.11862 16.0069 7.11862 15.8869C7.11862 15.8312 6.96005 15.5398 6.90433 15.5012C6.83559 15.4098 6.77803 15.3106 6.73291 15.2055C6.66862 15.0684 6.61291 14.9955 6.60862 15.0469H6.61291ZM7.77005 15.0941C7.88576 15.2312 7.83862 15.4626 7.70148 15.4626C7.58576 15.4626 7.39719 15.1412 7.45719 15.0469C7.51291 14.9569 7.67148 14.9784 7.77005 15.0941ZM14.31 15.2526C14.2886 15.2741 14.2243 15.2784 14.1729 15.2569C14.1129 15.2355 14.13 15.2141 14.2158 15.2141C14.2929 15.2141 14.3358 15.2269 14.31 15.2526ZM14.73 15.3512C14.7986 15.4626 14.6143 15.6941 14.3272 15.8526C14.0229 16.0241 13.8215 16.0455 13.8215 15.9126C13.8215 15.7712 13.9072 15.6726 14.2158 15.4712C14.5158 15.2698 14.6572 15.2355 14.73 15.3512ZM14.9872 16.3884C14.9229 16.4312 14.8843 16.5298 14.9015 16.5941C14.9186 16.6884 14.85 16.7226 14.5715 16.7484C14.3786 16.7655 14.04 16.8512 13.8215 16.9412C13.5643 17.0441 13.1915 17.1126 12.7886 17.1426C12.3655 17.1937 11.9363 17.1423 11.5372 16.9926C10.8086 16.7655 10.68 16.7526 10.9158 16.9369C11.2158 17.1641 11.5843 17.3269 12 17.4084C12.3215 17.4726 12.3986 17.5155 12.3858 17.6226C12.3772 17.7426 12.42 17.7512 12.7886 17.7084C13.0158 17.6826 13.26 17.6441 13.3372 17.6226C13.6286 17.5369 13.4015 17.7684 13.0543 17.9098C12.51 18.1326 11.5115 18.1026 10.8686 17.8455C10.7061 17.7681 10.5326 17.7161 10.3543 17.6912C10.2986 17.7469 10.8943 18.2269 11.19 18.3641C11.7504 18.5432 12.3526 18.5432 12.9129 18.3641C13.2472 18.2355 13.4272 18.1069 14.4429 17.3055L14.9272 16.9241C14.9915 16.8769 15.0686 16.7098 15.0986 16.5641C15.1543 16.2641 15.15 16.2598 14.9829 16.3884H14.9872ZM7.99291 16.4741C7.92005 16.5598 7.92433 16.5855 8.01433 16.5855C8.15148 16.5855 8.24148 16.4655 8.14719 16.4098C8.11291 16.3841 8.04005 16.4184 7.99291 16.4741ZM14.6229 16.5126C14.5286 16.5726 14.5329 16.5812 14.64 16.5812C14.7129 16.5812 14.7686 16.5512 14.7686 16.5126C14.7686 16.4226 14.76 16.4226 14.6229 16.5126ZM8.37005 16.5898C8.39148 16.6455 8.49862 16.7012 8.61862 16.7141C8.73433 16.7269 9.11576 16.8298 9.46291 16.9498C10.1743 17.1898 10.3972 17.2241 10.2343 17.0612C9.92295 16.8219 9.55284 16.6709 9.16291 16.6241C8.94862 16.5984 8.67433 16.5555 8.55433 16.5341C8.38719 16.4998 8.34433 16.5126 8.37005 16.5898ZM8.31433 17.3869C8.64862 17.5412 8.78148 17.7041 8.62291 17.7641C8.53719 17.7984 8.02291 17.5798 7.89433 17.4555C7.83433 17.3998 7.88576 17.2369 7.96291 17.2369C7.98005 17.2369 8.13862 17.3012 8.31433 17.3869ZM7.99291 17.4212C7.99291 17.4812 8.51148 17.6826 8.55433 17.6441C8.57576 17.6226 8.46862 17.5584 8.31862 17.4941C8.01862 17.3655 7.99291 17.3655 7.99291 17.4212ZM14.6958 18.4241C14.6958 18.5269 14.3958 18.7541 14.2629 18.7541C14.1386 18.7541 14.1772 18.5269 14.3143 18.4241C14.4815 18.2955 14.6958 18.2955 14.6958 18.4241ZM14.3743 18.5055C14.2972 18.5612 14.25 18.6255 14.2715 18.6469C14.2929 18.6684 14.3872 18.6212 14.4858 18.5441C14.6829 18.3769 14.5843 18.3426 14.3743 18.5012V18.5055Z" fill="#26C733"/>
<path d="M11.07 4.82979C10.9843 4.84693 10.9072 4.88979 10.9072 4.92836C10.9072 4.96693 10.8472 4.99693 10.7786 4.99693C10.7057 4.99693 10.5986 5.06122 10.5429 5.14265C10.4872 5.21979 10.38 5.28408 10.3072 5.28408C10.2386 5.28408 10.1786 5.31836 10.1786 5.35693C10.1786 5.39979 10.1143 5.42979 10.0329 5.42979C9.95146 5.42979 9.88717 5.46408 9.88717 5.50265C9.88717 5.54551 9.7586 5.57551 9.59574 5.57551C9.43717 5.57551 9.30431 5.60979 9.30431 5.64836C9.30431 5.69122 9.25717 5.72122 9.19717 5.72122C8.90574 5.72122 8.31432 6.18408 8.16003 6.53551C8.1086 6.64265 8.03146 6.73265 7.9886 6.73265C7.94574 6.73265 7.8686 6.77551 7.81717 6.82265C7.76574 6.87408 7.63717 6.98122 7.53003 7.05836C7.42289 7.13979 7.33717 7.24265 7.33717 7.29408C7.33717 7.34551 7.30289 7.38408 7.26432 7.38408C7.22146 7.38408 7.19146 7.43551 7.19146 7.49551C7.19146 7.55551 7.15717 7.60265 7.1186 7.60265C7.07574 7.60265 7.04574 7.65408 7.04574 7.70979C7.04574 7.76979 7.01146 7.82122 6.97289 7.82122C6.93003 7.82122 6.90003 7.87693 6.90003 7.94979C6.90003 8.01836 6.83574 8.12122 6.75431 8.18122C6.67289 8.24122 6.6086 8.32265 6.6086 8.36551C6.6086 8.56693 6.26574 9.11551 5.94431 9.42836C5.80298 9.54903 5.68276 9.69243 5.5886 9.85265C5.5886 9.89551 5.55431 9.90836 5.51574 9.88265C5.47289 9.86122 5.44289 9.90836 5.44289 9.98979C5.44289 10.0712 5.41717 10.1398 5.38289 10.1398C5.3486 10.1398 5.27574 10.2255 5.22003 10.3369C5.16003 10.4484 5.08289 10.5598 5.04432 10.5855C4.94146 10.6584 4.90289 12.5912 5.00146 12.8355C5.06574 13.0069 5.11717 13.0369 5.37431 13.0369C5.8586 13.0369 5.8886 13.1098 5.8886 14.2284C5.88003 14.8412 5.90574 15.2055 5.95289 15.2055C5.99574 15.2055 6.02574 15.3041 6.02574 15.4241C6.02574 15.5441 6.06003 15.6384 6.0986 15.6384C6.14146 15.6384 6.17146 15.7326 6.17146 15.8441C6.17146 15.9598 6.23146 16.0884 6.31717 16.1484C6.3986 16.2084 6.46289 16.2941 6.46289 16.3455C6.46289 16.3969 6.49717 16.4398 6.53574 16.4398C6.5786 16.4398 6.6086 16.5169 6.6086 16.6155C6.6086 16.7441 6.77146 16.9584 7.15717 17.3441C7.45717 17.6441 7.75717 17.8884 7.81289 17.8884C7.87289 17.8884 7.92003 17.9184 7.92003 17.9612C7.92003 17.9998 7.98431 18.0341 8.06574 18.0341C8.14717 18.0341 8.21146 18.0641 8.21146 18.1026C8.21146 18.1455 8.36146 18.1755 8.54146 18.1755C8.85432 18.1755 9.13717 18.0769 9.2486 17.9226C9.28289 17.8798 9.30431 17.8841 9.30431 17.9398C9.30431 17.9912 9.36432 18.0341 9.43289 18.0341C9.50574 18.0341 9.61289 18.0984 9.6686 18.1755C9.72431 18.2569 9.83146 18.3212 9.90432 18.3212C9.97289 18.3212 10.0329 18.3555 10.0329 18.3941C10.0329 18.4369 10.0929 18.4669 10.1615 18.4669C10.2343 18.4669 10.3415 18.5312 10.3972 18.6126C10.4529 18.6898 10.5643 18.7584 10.6372 18.7584C10.71 18.7584 10.7486 18.7884 10.7229 18.8269C10.7015 18.8698 10.7315 18.8998 10.7915 18.8998C10.8557 18.8998 10.9072 18.9341 10.9072 18.9726C10.9072 19.0155 10.9715 19.0455 11.0486 19.0455C11.1257 19.0455 11.1986 19.0884 11.22 19.1355C11.2629 19.2726 14.1686 19.2641 14.2543 19.1269C14.3057 19.0412 14.3186 19.0412 14.3529 19.1269C14.3829 19.1998 14.3957 19.1998 14.3957 19.1355C14.4 19.0884 14.4557 19.0498 14.5157 19.0498C14.5757 19.0498 14.7429 18.9341 14.88 18.7926C15.1029 18.5741 15.1329 18.5012 15.1329 18.1712C15.1329 17.8798 15.1672 17.7641 15.2872 17.6612C15.3729 17.5884 15.4757 17.5498 15.5186 17.5755C15.5615 17.6012 15.57 17.5841 15.54 17.5326C15.51 17.4898 15.5315 17.4512 15.5829 17.4512C15.6386 17.4512 15.7329 17.3869 15.7886 17.3098C15.8486 17.2241 15.9772 17.1641 16.0972 17.1641C16.2086 17.1641 16.2986 17.1341 16.2986 17.0998C16.2986 17.0655 16.3972 16.9969 16.5172 16.9455C16.6372 16.8941 16.7357 16.8255 16.7357 16.7912C16.7357 16.7569 16.7872 16.7269 16.8472 16.7269C16.9072 16.7269 17.07 16.6241 17.2029 16.4912C17.3315 16.3626 17.58 16.1441 17.7429 16.0026C17.91 15.8655 18.0429 15.7026 18.0429 15.6384C18.0429 15.5784 18.1115 15.4841 18.1929 15.4241C18.2743 15.3684 18.3386 15.2612 18.3386 15.1926C18.3386 15.1198 18.3729 15.0641 18.4115 15.0641C18.4543 15.0641 18.4843 14.9955 18.4843 14.9184C18.4843 14.8369 18.5186 14.7726 18.5572 14.7726C18.6 14.7726 18.63 14.6012 18.63 14.3869C18.63 14.1041 18.5915 13.9626 18.4843 13.8469C18.3343 13.6884 18.2829 13.3241 18.4115 13.3241C18.4543 13.3241 18.4843 13.2726 18.4843 13.2084C18.4843 13.1398 18.5486 13.0369 18.6215 12.9684C18.6986 12.9041 18.8357 12.7112 18.9215 12.5441C19.0715 12.2569 19.08 12.1712 19.05 10.7741C19.0243 9.25693 18.9943 9.11551 18.6815 8.80265C18.6129 8.73408 18.5786 8.64408 18.6043 8.60122C18.63 8.55836 18.6172 8.54122 18.5743 8.57122C18.5315 8.59693 18.4457 8.56693 18.3772 8.50265C18.3375 8.46565 18.2896 8.43859 18.2375 8.42369C18.1853 8.40879 18.1304 8.40647 18.0772 8.41693C17.9315 8.44693 17.9015 8.42551 17.9015 8.27979C17.9015 8.18551 17.8672 8.10836 17.8286 8.10836C17.7857 8.10836 17.7557 7.93265 17.7557 7.70979C17.7557 7.49551 17.79 7.3155 17.8286 7.3155C17.8715 7.3155 17.9015 7.1355 17.9015 6.91693C17.9015 6.69408 17.8672 6.51836 17.8286 6.51836C17.8187 6.51838 17.8088 6.51636 17.7997 6.51244C17.7906 6.50851 17.7823 6.50276 17.7755 6.49553C17.7687 6.4883 17.7634 6.47976 17.76 6.47042C17.7566 6.46108 17.7552 6.45114 17.7557 6.44122C17.7557 6.3255 17.4129 6.01265 17.2843 6.01265C17.2243 6.01265 17.1729 5.97836 17.1729 5.93551C17.1729 5.89693 17.1086 5.86693 17.0272 5.86693C16.9457 5.86693 16.8815 5.83265 16.8815 5.79408C16.8815 5.75122 16.6886 5.72122 16.4443 5.72122C16.2 5.72122 16.0072 5.68693 16.0072 5.64836C16.0072 5.60551 15.8572 5.57551 15.6729 5.57551C15.4929 5.57551 15.2743 5.54122 15.1929 5.49408C15.0857 5.43836 15.0215 5.43836 14.9657 5.49408C14.8672 5.59693 14.3572 5.60122 14.2929 5.50265C14.2715 5.45979 14.1943 5.42979 14.1215 5.42979C14.0572 5.42979 13.95 5.36551 13.8943 5.28408C13.8386 5.20693 13.7443 5.14265 13.6929 5.14265C13.6415 5.14265 13.53 5.07836 13.4486 5.00551C13.3266 4.91276 13.184 4.851 13.0329 4.82551C12.7372 4.77408 11.3315 4.78265 11.07 4.82979ZM12.5486 5.43408C12.7072 5.47693 12.9343 5.55836 13.0543 5.60979C13.7786 5.93551 14.1257 6.02551 14.8115 6.07693C15.6772 6.13693 16.2472 6.36408 16.4657 6.73265C16.5386 6.85265 16.7272 7.10122 16.8857 7.28122C17.0443 7.46122 17.1857 7.69693 17.2115 7.80836C17.3143 8.31408 17.6443 9.12836 17.7729 9.18408C17.8029 9.19693 17.8286 9.24836 17.8286 9.29551C17.8286 9.34693 17.8886 9.44979 17.9572 9.52693C18.03 9.60408 18.1972 9.88693 18.33 10.1526C18.7372 10.9669 18.7286 12.0812 18.3086 12.5784C17.8586 13.1098 17.8029 13.2984 17.7943 14.2669C17.7943 15.2998 17.7515 15.4026 17.1943 15.9555C16.8744 16.2472 16.5079 16.4834 16.11 16.6541C15.5272 16.9326 15.2486 17.1255 14.7472 17.5841C14.4 17.9012 13.9415 18.2484 13.7315 18.3469C13.1743 18.6126 12.27 18.7326 11.73 18.6169C11.2722 18.5372 10.8493 18.3206 10.5172 17.9955C10.02 17.5926 9.55717 17.3826 8.68717 17.1641C7.6286 16.9026 7.14431 16.5384 6.74146 15.6984C6.39003 14.9741 6.35574 14.8112 6.45431 14.4212C6.57431 13.9541 6.51431 13.6541 6.13717 12.8184C5.50289 11.4041 5.53717 10.7012 6.3086 9.86122C6.46289 9.68979 6.75003 9.23551 6.94717 8.85408C7.4186 7.93265 7.86003 7.45693 8.44717 7.22122C8.81146 7.07551 8.90574 7.00693 8.92289 6.86979C8.98717 6.32122 9.19289 6.15408 9.7886 6.15408C10.0629 6.15408 10.2343 6.09408 10.6286 5.85836C11.3743 5.40836 11.9572 5.27979 12.5443 5.43408H12.5486ZM17.1857 6.64693C17.2672 6.77551 17.3143 6.93408 17.2886 6.99836C17.2457 7.10551 17.2286 7.1055 17.1086 6.99408C16.9794 6.8475 16.8699 6.6847 16.7829 6.50979L16.5943 6.14979L16.8172 6.27836C16.9372 6.35122 17.1043 6.51408 17.1857 6.64693ZM9.50574 6.33836C9.11146 6.55265 9.06432 7.00693 9.46289 6.80551C9.73289 6.66408 10.1057 6.37265 10.1057 6.2955C10.1057 6.19265 9.7286 6.21836 9.50574 6.33836ZM18.5486 9.34693C18.6129 9.45836 18.6343 9.59122 18.6 9.67265C18.5486 9.80122 18.5357 9.80122 18.3686 9.60836C18.1586 9.36836 18.1329 9.10265 18.3172 9.13693C18.3857 9.14979 18.4886 9.24408 18.5486 9.35122V9.34693ZM11.7815 10.3326C11.5157 10.4355 11.2757 10.6669 11.1343 10.9669C10.9286 11.4084 10.9072 12.7841 11.1043 13.0841C11.2415 13.2898 11.6015 13.4698 11.88 13.4698C12.0215 13.4698 12.0515 13.4398 12.0215 13.3241C12 13.2469 11.9572 13.1784 11.9229 13.1784C11.8115 13.1784 11.3443 12.7326 11.3443 12.6298C11.3443 12.5698 11.3143 12.4712 11.28 12.3984C11.1779 12.2334 11.1145 12.0475 11.0944 11.8545C11.0744 11.6615 11.0983 11.4665 11.1643 11.2841C11.31 10.8555 11.6829 10.4269 11.9186 10.4269C12.0043 10.4269 12.0729 10.3969 12.0729 10.3541C12.0729 10.2769 11.9572 10.2684 11.7815 10.3369V10.3326ZM5.45146 11.9569C5.54146 12.2526 5.47717 12.5141 5.32289 12.4712C5.2286 12.4455 5.13431 12.0212 5.18574 11.8284C5.25003 11.5712 5.35717 11.6226 5.45146 11.9569ZM8.07003 12.0641C8.07431 12.1498 8.09146 12.1626 8.11289 12.1069C8.1386 12.0555 8.13431 11.9912 8.11289 11.9698C8.08717 11.9441 8.07003 11.9869 8.07003 12.0641ZM16.9415 14.5326C16.9929 14.5541 17.0572 14.5498 17.0786 14.5284C17.1043 14.5026 17.0615 14.4855 16.9843 14.4855C16.8986 14.4941 16.8815 14.5112 16.9415 14.5326ZM8.31431 17.3869C8.6486 17.5412 8.78146 17.7041 8.62289 17.7641C8.53717 17.7984 8.02289 17.5798 7.89431 17.4555C7.83431 17.3998 7.88574 17.2369 7.96289 17.2369C7.98003 17.2369 8.1386 17.3012 8.31431 17.3869ZM14.6957 18.4241C14.6957 18.5269 14.3957 18.7541 14.2629 18.7541C14.1386 18.7541 14.1772 18.5269 14.3143 18.4241C14.4815 18.2955 14.6957 18.2955 14.6957 18.4241Z" fill="#004000"/>
<path d="M11.2288 4.90737C11.2331 5.00594 11.1774 5.03594 10.9674 5.03594C10.8131 5.03594 10.6288 5.08737 10.5474 5.16023C10.4616 5.2288 10.3459 5.2888 10.2902 5.2888C10.2259 5.2888 10.1788 5.3188 10.1788 5.35737C10.1788 5.40023 10.1145 5.43023 10.0331 5.43023C9.95164 5.43023 9.88735 5.46452 9.88735 5.50309C9.88735 5.54594 9.75878 5.57594 9.59593 5.57594C9.43735 5.57594 9.3045 5.61023 9.3045 5.6488C9.3045 5.69166 9.25735 5.72166 9.19735 5.72166C9.04735 5.72166 8.59735 5.9788 8.39593 6.18452C8.26307 6.31309 8.22878 6.41166 8.25878 6.58737C8.2845 6.7588 8.26735 6.81023 8.1945 6.79309C8.13878 6.78023 7.9245 6.94309 7.72307 7.15309C7.48735 7.3888 6.53593 9.12452 6.34307 9.12452C6.22307 9.12452 5.95307 9.38166 5.95307 9.49737C5.95307 9.53166 5.89735 9.56166 5.8245 9.56166C5.71735 9.56166 5.71307 9.57023 5.80735 9.63023C5.90593 9.69452 5.90593 9.70309 5.80735 9.71166H5.6445C5.6145 9.71166 5.58878 9.77595 5.58878 9.86595C5.58878 9.99452 5.57164 10.0074 5.51593 9.92166C5.45593 9.83166 5.44307 9.83594 5.43878 9.95594C5.42593 10.2474 5.36593 10.4574 5.25878 10.5731C5.19878 10.6417 5.15164 10.7274 5.15164 10.7702C5.15164 10.8131 5.10878 10.8645 5.06164 10.8817C4.94164 10.9202 4.89021 12.5531 4.99735 12.8359C5.06164 12.9945 5.12164 13.0374 5.30593 13.0374C5.43878 13.0374 5.57593 12.9817 5.63164 12.9088C5.71735 12.7888 5.73021 12.7888 5.8245 12.9131C5.88021 12.9902 5.91878 13.1445 5.91021 13.2559C5.90164 13.3759 5.92307 13.4702 5.96164 13.4702C5.99593 13.4702 6.02593 13.5259 6.02593 13.5988C6.02593 13.6974 6.00878 13.7017 5.96164 13.6245C5.91878 13.5602 5.89735 13.6374 5.89735 13.8388C5.89735 14.0531 5.9145 14.1131 5.94878 14.0188C6.00021 13.8859 6.0045 13.8859 6.04307 14.0402C6.0945 14.2288 6.04307 14.4131 5.9445 14.4131C5.91021 14.4131 5.88021 14.5888 5.88021 14.8117C5.88021 15.0259 5.9145 15.2059 5.95307 15.2059C5.99593 15.2059 6.02593 15.3002 6.02593 15.4074C6.02593 15.5274 6.08593 15.6517 6.17164 15.7159C6.4223 15.9471 6.61845 16.2311 6.74593 16.5474C6.79735 16.6888 6.86593 16.8045 6.9045 16.8045C6.94307 16.8045 6.97307 16.8474 6.97307 16.8988C6.97307 16.9502 7.04164 17.0574 7.12307 17.1302C7.40593 17.3874 7.44021 17.9359 7.90307 17.8459C8.09593 17.8031 8.12593 17.8245 8.16878 18.0045C8.21164 18.1674 8.23735 18.1845 8.29735 18.1031C8.34878 18.0174 8.37878 18.0174 8.4045 18.0859C8.42593 18.1374 8.53307 18.1759 8.6445 18.1759C8.89307 18.1759 9.25307 18.0045 9.17593 17.9231C9.14593 17.8931 9.2445 17.8845 9.39021 17.9102C9.83462 18.0717 10.2489 18.3064 10.6159 18.6045C10.6374 18.6302 10.7488 18.6945 10.8731 18.7545C10.9931 18.8102 11.1645 18.9431 11.2588 19.0417C11.4302 19.2259 11.4516 19.2259 12.6516 19.2559C13.8388 19.2774 13.8816 19.2731 14.0231 19.1145C14.1259 19.0117 14.2288 18.9688 14.3274 18.9945C14.4131 19.0159 14.4774 19.0031 14.4774 18.9688C14.4774 18.9302 14.5459 18.9002 14.6274 18.9002C14.8674 18.9002 15.1331 18.5831 15.1331 18.2959C15.1331 18.1588 15.0902 18.0302 15.0431 18.0131C14.9831 17.9917 15.0345 17.8974 15.1888 17.7559C16.0588 16.9117 16.6374 16.9374 17.7431 16.0031C17.9574 15.8231 18.0431 15.6945 18.0431 15.5531C18.0431 15.4031 18.0859 15.3517 18.1931 15.3517C18.3474 15.3517 18.3988 15.2102 18.2488 15.2017C18.1974 15.2017 18.2316 15.1588 18.3216 15.1159C18.4074 15.0731 18.4845 14.9788 18.4845 14.9059C18.4845 14.8331 18.5188 14.7774 18.5616 14.7774C18.6045 14.7774 18.6302 14.6145 18.6174 14.3574C18.5916 13.9374 18.1459 13.9502 18.1759 13.6845C18.2445 13.1059 19.0588 12.7974 18.9474 12.2445C18.9174 12.0988 18.9345 12.0217 18.9859 12.0217C19.0416 12.0217 19.0674 11.6959 19.0674 10.9459C19.0674 9.65595 19.0159 9.19309 18.8788 9.24452C18.8102 9.27023 18.7888 9.22309 18.7974 9.07309C18.8102 8.9188 18.7802 8.87166 18.6859 8.88023C18.6174 8.88452 18.5788 8.86309 18.6002 8.82452C18.6216 8.79023 18.6002 8.76452 18.5531 8.76452C18.4888 8.76452 18.4888 8.73452 18.5445 8.67023C18.6259 8.57166 18.5359 8.54595 18.1031 8.54595C17.9316 8.54595 17.9016 8.52023 17.9016 8.33166C17.9016 8.20737 17.8674 8.1088 17.8288 8.1088C17.7859 8.1088 17.7559 7.93309 17.7559 7.71023C17.7559 7.49594 17.7902 7.31594 17.8288 7.31594C17.8716 7.31594 17.9016 7.16594 17.9016 6.98594C17.9016 6.75023 17.8759 6.6688 17.8159 6.70737C17.7602 6.74166 17.7474 6.72023 17.7774 6.6388C17.8074 6.56594 17.7902 6.52737 17.7345 6.53594C17.6916 6.54452 17.6402 6.48023 17.6231 6.39023C17.6102 6.30452 17.5716 6.22737 17.5331 6.22737C17.4945 6.22737 17.4645 6.18023 17.4645 6.12023C17.4645 6.06023 17.4002 6.0088 17.3188 6.0088C17.2374 6.0088 17.1731 5.9788 17.1731 5.93594C17.1731 5.89737 17.1088 5.86737 17.0274 5.86737C16.9459 5.86737 16.8816 5.83309 16.8816 5.79452C16.8816 5.75166 16.7531 5.72166 16.5902 5.72166C16.3759 5.72166 16.2988 5.75166 16.2988 5.8288C16.2988 5.9488 16.0416 5.9788 15.9688 5.86737C15.9474 5.82452 15.8402 5.79452 15.7416 5.79452C15.6388 5.79452 15.4588 5.7088 15.3388 5.61023C15.0816 5.39594 15.0259 5.39166 14.9016 5.56309C14.8459 5.63594 14.7688 5.71737 14.7216 5.74309C14.6188 5.80309 14.3916 5.72594 14.4388 5.6488C14.4602 5.6188 14.4259 5.57166 14.3659 5.54594C14.2974 5.52452 14.2716 5.53737 14.2974 5.57594C14.3745 5.70452 14.0831 5.6488 13.8945 5.50309C13.7959 5.42594 13.6802 5.36166 13.6331 5.36166C13.5345 5.36166 13.3031 5.1088 13.3159 5.02309C13.3459 4.86452 13.3031 4.83452 13.2174 4.95452C13.1316 5.07023 13.1059 5.07452 13.0116 4.97594C12.9431 4.91166 12.8231 4.88166 12.7116 4.90309C12.6088 4.92023 12.4631 4.90309 12.3859 4.86023C12.2916 4.81737 12.1374 4.81737 11.8931 4.86452C11.6359 4.92023 11.4988 4.92023 11.4045 4.86452C11.2331 4.75309 11.2116 4.75737 11.2245 4.90737H11.2288ZM10.9074 4.92452C10.9074 4.94384 10.915 4.96237 10.9287 4.97603C10.9424 4.9897 10.9609 4.99737 10.9802 4.99737C10.9995 4.99737 11.0181 4.9897 11.0317 4.97603C11.0454 4.96237 11.0531 4.94384 11.0531 4.92452C11.0531 4.90519 11.0454 4.88666 11.0317 4.873C11.0181 4.85934 10.9995 4.85166 10.9802 4.85166C10.9609 4.85166 10.9424 4.85934 10.9287 4.873C10.915 4.88666 10.9074 4.90519 10.9074 4.92452ZM13.6759 5.21166C13.6759 5.23098 13.6836 5.24951 13.6973 5.26318C13.7109 5.27684 13.7295 5.28452 13.7488 5.28452C13.7681 5.28452 13.7866 5.27684 13.8003 5.26318C13.814 5.24951 13.8216 5.23098 13.8216 5.21166C13.8216 5.19234 13.814 5.1738 13.8003 5.16014C13.7866 5.14648 13.7681 5.1388 13.7488 5.1388C13.7295 5.1388 13.7109 5.14648 13.6973 5.16014C13.6836 5.1738 13.6759 5.19234 13.6759 5.21166ZM12.5188 5.32309C12.7588 5.38737 13.0931 5.50737 13.2602 5.59737C13.6184 5.81519 14.0282 5.93354 14.4474 5.94023C15.3216 5.94023 16.1745 6.22309 16.4702 6.60452C16.5559 6.72023 16.7745 6.99023 16.9588 7.20452C17.1816 7.46594 17.3188 7.7188 17.3874 7.97595C17.4859 8.37452 17.7088 8.8888 17.9745 9.3388L18.1202 9.59594V9.28737C18.1202 9.0388 18.1459 8.9788 18.2488 8.9788C18.3816 8.9788 18.6302 9.21452 18.6302 9.34309C18.6302 9.38594 18.6645 9.41594 18.7031 9.41594C18.7459 9.41594 18.7759 9.49309 18.7759 9.58737C18.7759 9.77166 18.6259 9.87023 18.4459 9.80166C18.3045 9.75023 18.3088 9.84452 18.4588 10.1445C18.5788 10.3759 18.6602 10.6802 18.7502 11.2417C18.7841 11.7581 18.6371 12.2703 18.3345 12.6902C18.2745 12.7588 18.1502 12.9474 18.0602 13.1145C17.9231 13.3717 17.9016 13.5259 17.9016 14.2374C17.9016 15.1802 17.8031 15.4845 17.3402 15.9602C16.6331 16.6845 15.6474 16.9031 14.9016 17.5888C14.4921 18.002 14.0153 18.3426 13.4916 18.5959C12.9815 18.7797 12.4337 18.8341 11.8974 18.7545C11.3702 18.6559 11.1602 18.5531 10.4488 18.0559C9.92592 17.6874 8.77307 17.2288 8.4045 17.2417C8.2845 17.2417 8.27593 17.2588 8.36164 17.2931C8.84593 17.5074 8.9445 17.8588 8.51164 17.8417C8.26307 17.8288 7.36307 17.3359 7.93307 17.1731C8.06593 17.1345 8.12164 17.1002 8.06164 17.0959C7.63307 17.0745 6.96021 16.4102 6.59164 15.6517C6.36878 15.1974 6.35593 15.1288 6.35593 14.3402C6.35593 13.5345 6.34307 13.4831 6.08593 12.9259C5.88228 12.4987 5.71317 12.0559 5.58021 11.6017C5.39164 11.1045 5.64021 10.3845 6.19735 9.82737C6.51021 9.51452 7.49593 7.24309 8.14307 7.24309C8.18593 7.24309 8.36164 7.17023 8.54593 7.0888C8.77307 6.98166 8.86307 6.90023 8.83307 6.82737C8.77735 6.68594 8.97878 6.28309 9.16307 6.17166C9.2445 6.12023 9.53593 6.05166 9.81021 6.01737C10.1009 5.99527 10.3812 5.89939 10.6245 5.7388C11.0102 5.48166 11.1174 5.4388 11.6359 5.3188L12.0645 5.22023C12.0774 5.22023 12.2831 5.26309 12.5231 5.32309H12.5188ZM15.1502 5.62309C15.0918 5.64269 15.0286 5.64269 14.9702 5.62309C14.9188 5.60166 14.9616 5.5888 15.0602 5.5888C15.1588 5.5888 15.2016 5.60166 15.1502 5.62309ZM15.7459 5.66166C15.7245 5.69166 15.7759 5.72166 15.8574 5.72166C15.9431 5.72166 16.0074 5.69166 16.0074 5.66166C16.0074 5.62737 15.9559 5.60166 15.8959 5.60166C15.8316 5.60166 15.7674 5.62737 15.7459 5.66166ZM17.0102 6.30452C17.4302 6.6988 17.5674 7.17023 17.2631 7.17023C17.1302 7.17023 16.8088 6.89166 16.8088 6.77595C16.8088 6.73309 16.7402 6.61737 16.6631 6.5188C16.3288 6.09452 16.6031 5.92737 17.0059 6.30452H17.0102ZM9.6345 6.3988C9.42021 6.47594 9.2145 6.6688 9.2745 6.7288C9.3345 6.7888 9.88735 6.49309 9.88735 6.3988C9.88735 6.34309 9.87878 6.30452 9.87021 6.3088C9.85735 6.3088 9.7545 6.35166 9.6345 6.39452V6.3988ZM18.1974 9.67309C18.2016 9.7588 18.2188 9.77594 18.2402 9.71594C18.2659 9.66452 18.2616 9.60452 18.2402 9.5788C18.2145 9.55309 18.1974 9.59594 18.1974 9.67309ZM11.7859 10.3374C11.5202 10.4359 11.2802 10.6674 11.1388 10.9674C10.9331 11.4088 10.9116 12.7845 11.1088 13.0845C11.2459 13.2902 11.6059 13.4702 11.8845 13.4702C12.0259 13.4702 12.0559 13.4402 12.0259 13.3245C12.0045 13.2474 11.9616 13.1788 11.9274 13.1788C11.8159 13.1788 11.3488 12.7331 11.3488 12.6302C11.3488 12.5702 11.3188 12.4717 11.2845 12.3988C11.1824 12.2338 11.1189 12.0479 11.0989 11.8549C11.0789 11.662 11.1027 11.4669 11.1688 11.2845C11.3145 10.8559 11.6874 10.4274 11.9231 10.4274C12.0088 10.4274 12.0774 10.3974 12.0774 10.3545C12.0774 10.2774 11.9616 10.2688 11.7859 10.3374ZM5.52021 11.7731C5.60593 11.9831 5.6145 12.3174 5.55021 12.4845C5.48593 12.6474 5.25021 12.6302 5.16021 12.4588C5.0745 12.3045 5.05735 11.7088 5.13021 11.6359C5.24593 11.5245 5.45593 11.5974 5.52021 11.7731ZM8.0745 12.0645C8.07878 12.1502 8.09593 12.1631 8.11735 12.1074C8.14307 12.0559 8.13878 11.9917 8.11735 11.9702C8.09164 11.9445 8.0745 11.9874 8.0745 12.0645ZM14.7688 18.3088C14.8759 18.5145 14.4988 18.9002 14.2374 18.8488C13.9759 18.7974 13.9888 18.6002 14.2674 18.3645C14.5331 18.1417 14.6702 18.1288 14.7645 18.3088H14.7688Z" fill="white"/>
<path d="M10.5686 5.07862C9.93435 5.67005 9.05149 5.52862 8.39578 6.18433C8.26292 6.3129 7.75292 6.39862 7.78292 6.57862C7.81292 6.75005 7.79578 6.80147 7.71863 6.78433C6.93435 6.6129 5.56292 9.81005 5.06149 10.3586C4.84721 10.5943 4.93721 12.6815 4.99721 12.8358C5.06149 12.9943 5.12149 13.0372 5.30578 13.0372C5.75578 13.0372 5.71721 12.8958 5.70863 13.6286C5.70863 13.77 5.70863 13.9972 5.73006 14.0743C5.80292 14.3529 5.88006 14.5029 5.88006 14.8115C5.88006 15.0258 5.91435 15.2058 5.95292 15.2058C5.99578 15.2058 6.02578 15.3 6.02578 15.4072C6.02578 16.62 7.56863 18.2315 8.51149 18.2315C9.57435 18.2315 9.14149 17.9315 10.2729 18.8486C10.2943 18.8743 10.6329 18.9772 10.7529 19.0372C11.2758 19.2858 12.0815 19.2386 12.6515 19.2515C13.1186 19.26 15.1329 19.5429 15.1329 18.2958C15.1715 17.61 15.4972 18.12 17.2029 16.4958C17.3315 16.3672 17.5801 16.1443 17.7429 16.0029C17.8972 15.8743 18.6515 15.1458 18.5572 14.7729C18.6086 14.7729 18.6301 14.6143 18.6172 14.3572C18.6001 14.0443 19.1786 12.42 19.1443 12.2572C19.1186 12.1115 19.1315 12.0343 19.1829 12.0343C19.2386 12.0343 19.0672 11.6915 19.0672 10.9458C19.0672 10.4015 19.2772 8.15147 18.3043 8.33576C18.1329 8.37005 17.9743 8.44719 17.9743 8.24147C17.9743 8.11719 17.8672 8.1129 17.8286 8.1129C17.7858 8.1129 17.7558 7.9329 17.7558 7.71005C17.7558 7.49576 17.7901 7.31576 17.8286 7.31576C17.8715 7.31576 17.9015 7.16147 17.9015 6.9729C18.1158 6.30433 17.4386 5.86719 17.0272 5.86719C16.9458 5.86719 16.8815 5.8329 16.8815 5.79433C16.8815 5.3829 16.3243 5.91433 16.0243 5.43005C15.9986 5.38719 15.8872 5.35719 15.7758 5.35719C14.7986 5.35719 11.6058 4.11862 10.5686 5.07862ZM12.5229 5.3229C12.7586 5.38719 13.0929 5.50719 13.2601 5.59719C13.6182 5.81501 14.028 5.93336 14.4472 5.94005C15.3215 5.94005 16.1743 6.2229 16.4701 6.60433C16.5558 6.72005 16.7743 6.99005 16.9586 7.20433C17.1815 7.46576 17.3186 7.71862 17.3872 7.97576C17.4858 8.37433 17.7086 8.88862 17.9743 9.33862L18.1201 9.59576V9.28719C18.1201 9.03862 18.1458 8.97862 18.2486 8.97862C18.3815 8.97862 18.6301 9.21433 18.6301 9.3429C18.6301 9.38576 18.6643 9.41576 18.7029 9.41576C18.7458 9.41576 18.7758 9.4929 18.7758 9.58719C18.7758 9.77147 18.6258 9.87005 18.4458 9.80147C18.3043 9.75005 18.3086 9.84433 18.4586 10.1443C18.5786 10.3758 18.6601 10.68 18.7501 11.2415C18.7839 11.758 18.6369 12.2701 18.3343 12.69C18.2743 12.7586 18.1501 12.9472 18.0601 13.1143C17.9229 13.3715 17.9015 13.5258 17.9015 14.2372C17.9015 15.18 17.8029 15.4843 17.3401 15.96C17.0671 16.2373 16.7535 16.4714 16.4101 16.6543C16.1958 16.6543 15.3301 17.19 14.9015 17.5886C14.492 18.0019 14.0152 18.3424 13.4915 18.5958C12.9813 18.7795 12.4336 18.834 11.8972 18.7543C11.3701 18.6558 11.1601 18.5529 10.4486 18.0558C9.92578 17.6872 8.77292 17.2286 8.40435 17.2415C8.28435 17.2415 8.27578 17.2586 8.36149 17.2929C8.84578 17.5072 8.94435 17.8586 8.51149 17.8415C8.27578 17.8286 7.78292 17.5072 7.71863 17.3272C7.70578 17.28 7.80435 17.2115 7.93292 17.1729C8.06578 17.1343 8.12149 17.1 8.06149 17.0958C7.63292 17.0743 6.96006 16.41 6.59149 15.6515C6.36863 15.1972 6.35578 15.1286 6.35578 14.34C6.35578 13.5343 6.34292 13.4829 6.08578 12.9258C5.88215 12.4985 5.71304 12.0557 5.58006 11.6015C5.39149 11.1043 5.64006 10.3843 6.19721 9.82719C6.43292 9.59576 6.77149 9.0729 6.96863 8.63576C7.06721 8.42576 7.17006 8.25433 7.20435 8.25433C7.23863 8.25433 7.26435 8.21147 7.26435 8.15147C7.26435 8.03576 8.03578 7.2429 8.14292 7.2429C8.18578 7.2429 8.36149 7.17005 8.54578 7.08862C8.77292 6.98147 8.86292 6.90005 8.83292 6.82719C8.77721 6.68576 8.97863 6.2829 9.16292 6.17147C9.24435 6.12005 9.53578 6.05147 9.81006 6.01719C10.1008 5.99508 10.381 5.8992 10.6243 5.73862C11.0101 5.48147 11.1172 5.43862 11.6358 5.31862L12.0643 5.22005C12.0772 5.22005 12.2829 5.2629 12.5229 5.3229ZM17.0101 6.30433C17.4301 6.69862 17.5672 7.17005 17.2629 7.17005C17.1301 7.17005 16.8086 6.89147 16.8086 6.77576C16.8086 6.7329 16.7401 6.61719 16.6629 6.51862C16.3286 6.09433 16.6029 5.92719 17.0058 6.30433H17.0101ZM9.63435 6.39862C9.42006 6.47576 9.21435 6.66862 9.27435 6.72862C9.33435 6.78862 9.88721 6.4929 9.88721 6.39862C9.88721 6.3429 9.87863 6.30433 9.87006 6.30862C9.85721 6.30862 9.75435 6.35147 9.63435 6.39433V6.39862ZM18.1972 9.6729C18.2015 9.75862 18.2186 9.77576 18.2401 9.71576C18.2658 9.66433 18.2615 9.60433 18.2401 9.57862C18.2143 9.5529 18.1972 9.59576 18.1972 9.6729ZM5.51578 11.7729C5.60149 11.9829 5.61006 12.3172 5.54578 12.4843C5.48149 12.6472 5.24578 12.63 5.15578 12.4586C5.07006 12.3043 5.05292 11.7086 5.12578 11.6358C5.24149 11.5243 5.45149 11.5972 5.51578 11.7729ZM14.7643 18.3086C15.0729 18.8829 13.4701 19.0286 14.2629 18.3643C14.5286 18.1415 14.6658 18.1286 14.7601 18.3086H14.7643Z" fill="black"/>
</g>
<defs>
<linearGradient id="paint0_linear_31_7622" x1="4.46571" y1="4.16143" x2="29.2071" y2="32.58" gradientUnits="userSpaceOnUse">
<stop stop-color="#1A1E21"/>
<stop offset="1" stop-color="#06060A"/>
</linearGradient>
<clipPath id="clip0_31_7622">
<rect width="24" height="24" fill="white"/>
</clipPath>
</defs>
</svg>
