<svg width="24" height="24" viewBox="0 0 24 24" fill="none" xmlns="http://www.w3.org/2000/svg">
<g clip-path="url(#clip0_31_7697)">
<path d="M0 0H24V24H0V0Z" fill="#361E72"/>
<path d="M15.8699 17.3531L18.8571 15.8574L8.1428 10.5088L5.15137 12.0002L15.8657 17.3531H15.8699ZM11.9999 19.2859L14.9999 17.7902L8.1428 14.3616L5.16422 15.8574L11.9999 19.2859ZM18.8485 12.0002L15.8571 13.4916L12.8742 12.0002L15.8614 10.5088L18.8485 12.0002Z" fill="#00EBE5"/>
<path d="M9.00425 6.21436L12.0043 4.71436L15 6.21436L12 7.70578L9.00425 6.21007V6.21436ZM8.12996 6.64721L5.14282 8.14293L12 11.5672L14.9871 10.0758L8.12996 6.6515V6.64721ZM15.8571 9.64293L18.8528 8.14293L15.8657 6.65578L12.8657 8.1515L15.8571 9.64293Z" fill="#37EB77"/>
</g>
<defs>
<clipPath id="clip0_31_7697">
<rect width="24" height="24" fill="white"/>
</clipPath>
</defs>
</svg>
