<svg width="24" height="24" viewBox="0 0 24 24" fill="none" xmlns="http://www.w3.org/2000/svg">
<g clip-path="url(#clip0_31_8260)">
<path d="M0 0H24V24H0V0Z" fill="url(#paint0_linear_31_8260)"/>
<path d="M12.192 16.9571C12.6743 16.924 13.1525 16.847 13.6208 16.727C14.1991 16.9011 14.8095 16.9406 15.4054 16.8423C15.429 16.8384 15.4525 16.8367 15.4765 16.8367C15.6891 16.8367 15.9681 16.9584 16.3748 17.2156V16.793C16.3747 16.7194 16.3945 16.6472 16.4321 16.5839C16.4697 16.5206 16.5236 16.4686 16.5883 16.4334C16.7648 16.3349 16.9294 16.2209 17.0798 16.0957C17.6721 15.6003 18.0068 14.9399 18.0068 14.24C18.0068 14.0088 17.9701 13.7791 17.898 13.5594C18.0767 13.2299 18.2215 12.8836 18.3278 12.5244C18.6709 13.0311 18.8552 13.6285 18.8571 14.2404C18.8571 15.191 18.4088 16.0777 17.6331 16.7261C17.5035 16.8342 17.3673 16.934 17.2251 17.0249V18.0136C17.2251 18.3539 16.8274 18.5493 16.5471 18.347C16.2817 18.1512 16.0071 17.9683 15.7243 17.7989C15.643 17.751 15.5585 17.7087 15.4714 17.6724C15.2387 17.7067 15 17.7247 14.7591 17.7247C13.791 17.7247 12.897 17.4384 12.1928 16.9576L12.192 16.9571ZM7.07225 14.9797C5.84911 13.9567 5.14282 12.5613 5.14282 11.0669C5.14282 8.01286 8.06268 5.57129 11.6275 5.57129C15.1933 5.57129 18.1131 8.01243 18.1131 11.0664C18.1131 14.1209 15.1928 16.5616 11.6275 16.5616C11.2273 16.5616 10.8308 16.5316 10.4425 16.4703C10.2745 16.5093 9.60339 16.9031 8.63568 17.6004C8.28554 17.8533 7.78839 17.609 7.78839 17.1834V15.497C7.53809 15.3413 7.29894 15.1683 7.07268 14.9793L7.07225 14.9797ZM10.4661 15.4306C10.4957 15.4306 10.5257 15.4327 10.5553 15.4374C10.905 15.4957 11.2641 15.5253 11.6275 15.5253C14.6391 15.5253 17.0494 13.5101 17.0494 11.0669C17.0494 8.624 14.6391 6.60886 11.628 6.60886C8.61725 6.60886 6.20568 8.624 6.20568 11.0669C6.20568 12.248 6.76882 13.3606 7.76439 14.1929C8.01468 14.4016 8.28939 14.591 8.58425 14.756C8.74968 14.8481 8.85168 15.02 8.85168 15.2051V16.178C9.61711 15.671 10.1203 15.4306 10.4661 15.4306Z" fill="white"/>
<path d="M8.99997 11.9999C9.47335 11.9999 9.85711 11.6162 9.85711 11.1428C9.85711 10.6694 9.47335 10.2856 8.99997 10.2856C8.52658 10.2856 8.14282 10.6694 8.14282 11.1428C8.14282 11.6162 8.52658 11.9999 8.99997 11.9999Z" fill="white"/>
<path d="M11.7856 11.9999C12.259 11.9999 12.6428 11.6162 12.6428 11.1428C12.6428 10.6694 12.259 10.2856 11.7856 10.2856C11.3122 10.2856 10.9285 10.6694 10.9285 11.1428C10.9285 11.6162 11.3122 11.9999 11.7856 11.9999Z" fill="white"/>
<path d="M14.5715 12.0009C15.0449 12.0009 15.4286 11.6172 15.4286 11.1438C15.4286 10.6704 15.0449 10.2866 14.5715 10.2866C14.0981 10.2866 13.7144 10.6704 13.7144 11.1438C13.7144 11.6172 14.0981 12.0009 14.5715 12.0009Z" fill="white"/>
</g>
<defs>
<linearGradient id="paint0_linear_31_8260" x1="12" y1="0" x2="12" y2="24" gradientUnits="userSpaceOnUse">
<stop stop-color="#1BC9FA"/>
<stop offset="1" stop-color="#1778F0"/>
</linearGradient>
<clipPath id="clip0_31_8260">
<rect width="24" height="24" fill="white"/>
</clipPath>
</defs>
</svg>
