<svg width="24" height="24" viewBox="0 0 24 24" fill="none" xmlns="http://www.w3.org/2000/svg">
<g clip-path="url(#clip0_31_11523)">
<path d="M0 0H24V24H0V0Z" fill="#4BEB32"/>
<path d="M18.4284 7.78263V7.9712C18.3856 8.14263 18.3213 8.29692 18.227 8.43406C18.2224 8.44106 18.2199 8.44925 18.2199 8.45763C18.2199 8.46601 18.2224 8.4742 18.227 8.4812C18.3299 8.64406 18.4756 8.97834 18.3813 9.17549C18.3084 9.32549 18.167 9.44549 18.0384 9.55263C17.987 9.59549 17.9527 9.65549 17.9741 9.71549C18.0941 10.0926 17.9613 10.3498 17.7299 10.6283V10.6412C17.7279 10.6467 17.7279 10.6528 17.7299 10.6583L17.7427 10.6669C17.9356 10.7441 18.0556 10.8941 18.0984 11.1126C18.1499 11.3869 18.0984 11.5455 18.0427 11.7812C17.9784 12.0469 17.8456 12.1798 17.657 12.3512C17.6455 12.3642 17.6394 12.381 17.6399 12.3983C17.6391 12.4076 17.6402 12.417 17.6431 12.4258C17.6461 12.4347 17.6508 12.4428 17.657 12.4498C17.8841 12.7069 17.6784 13.0412 17.567 13.3026C17.5637 13.3138 17.5637 13.3257 17.567 13.3369C17.6356 13.7226 17.447 13.9583 17.3356 14.2883C17.2499 14.5583 17.2241 14.9055 17.1856 15.2098C17.1856 15.2312 17.1856 15.2526 17.1984 15.2783C17.297 15.4455 17.3484 15.6255 17.3527 15.8226C17.357 15.9083 17.387 15.9855 17.4384 16.0369C17.6141 16.2255 17.7556 16.3798 17.8584 16.5126L18.4284 17.2712V17.5712H18.3813C18.3906 17.5199 18.3884 17.4673 18.3751 17.4169C18.3618 17.3666 18.3376 17.3197 18.3041 17.2798C17.9784 16.8983 17.7041 16.4869 17.3613 16.1226C17.1856 15.9383 17.267 15.6512 17.147 15.4198C17.1413 15.4089 17.1326 15.4 17.122 15.3939C17.1114 15.3878 17.0992 15.3849 17.087 15.3855C16.8041 15.3983 16.5084 15.5226 16.2599 15.6598C15.9398 15.871 15.5709 15.9965 15.1884 16.0241C15.1802 16.0276 15.1733 16.0337 15.1687 16.0414C15.1641 16.049 15.162 16.058 15.1627 16.0669C15.1703 16.2313 15.166 16.396 15.1499 16.5598L15.0984 17.0483C15.0727 17.2198 15.0299 17.3955 14.9699 17.5712H14.8584C15.0299 17.0698 15.0984 16.5598 15.0727 16.0369C15.0641 15.8655 14.9527 15.7541 14.7727 15.7369C14.4871 15.7164 14.2031 15.7935 13.967 15.9555C13.7441 16.0841 13.5213 16.2169 13.3027 16.3583C13.2899 16.3669 13.2899 16.3755 13.2941 16.3926L13.3284 16.4569L13.3413 16.4655H13.3627L13.877 16.3455C13.9113 16.3369 13.9327 16.3498 13.9327 16.3883V16.4012L13.9284 16.4269C13.9236 16.4351 13.916 16.4412 13.907 16.4441L13.3927 16.5726C13.3873 16.5735 13.3824 16.576 13.3785 16.5799C13.3747 16.5837 13.3721 16.5887 13.3713 16.5941C13.3456 16.7826 13.6327 16.8598 13.7956 16.8769C13.8256 16.8769 13.8384 16.8983 13.8384 16.9283V16.9412C13.8341 16.9626 13.8213 16.9712 13.7999 16.9712C13.6499 16.9712 13.5127 16.9283 13.3884 16.8512H13.3756L13.3241 17.0998C13.3241 17.1083 13.3241 17.1126 13.3327 17.1169L14.1213 17.5712H13.8684C13.6756 17.4298 13.4741 17.3098 13.277 17.2069C13.2726 17.2038 13.2674 17.2021 13.262 17.2021C13.2566 17.2021 13.2514 17.2038 13.247 17.2069C13.007 17.3955 12.647 17.4426 12.3899 17.3098C12.332 17.2796 12.2749 17.2482 12.2184 17.2155C12.2056 17.2112 12.197 17.2155 12.1884 17.2198C12.067 17.3486 11.9268 17.4584 11.7727 17.5455C11.773 17.5482 11.774 17.5507 11.7755 17.5529C11.777 17.5552 11.779 17.557 11.7813 17.5583L11.8241 17.5712H11.5241C11.6613 17.4941 11.7941 17.4126 11.927 17.3269C12.0127 17.2734 12.0816 17.1967 12.1256 17.1057C12.1695 17.0147 12.1869 16.9131 12.1756 16.8126H12.167C12.0556 16.8983 11.9313 16.9412 11.7899 16.9498C11.7821 16.95 11.7744 16.9476 11.7682 16.9429C11.762 16.9383 11.7575 16.9316 11.7556 16.9241L11.7513 16.9112C11.7498 16.9038 11.7497 16.8963 11.7512 16.8889C11.7527 16.8815 11.7556 16.8745 11.7599 16.8683C11.7638 16.8626 11.7689 16.8578 11.7748 16.8541C11.7807 16.8504 11.7873 16.848 11.7941 16.8469C11.9527 16.8298 12.0813 16.7655 12.1841 16.6498L12.1884 16.6369V16.6198C12.1868 16.6152 12.184 16.6111 12.1802 16.6081C12.1764 16.6051 12.1718 16.6032 12.167 16.6026L11.5884 16.5169C11.5816 16.5152 11.5754 16.5114 11.5708 16.506C11.5662 16.5006 11.5634 16.494 11.5627 16.4869V16.4569C11.5713 16.4226 11.5884 16.4098 11.6227 16.4141L12.1627 16.4955C12.1841 16.4955 12.1927 16.4869 12.197 16.4698C12.2048 16.4116 12.1951 16.3524 12.1692 16.2997C12.1432 16.2471 12.1022 16.2033 12.0513 16.1741C11.6784 15.9255 11.3441 15.7883 10.8427 15.6298C10.727 15.5912 10.5213 15.5398 10.4741 15.7069C10.2899 16.3069 10.3799 16.9498 10.3199 17.5712H10.2256C10.2256 17.5155 10.2341 17.4598 10.2384 17.4083C10.2663 17.1077 10.2692 16.8052 10.247 16.5041C10.2442 16.5013 10.2408 16.4991 10.2371 16.4976C10.2335 16.4962 10.2295 16.4954 10.2256 16.4955L10.0113 16.4998C9.41129 16.5641 8.75557 16.5212 8.15129 16.4355C7.30737 16.3375 6.5052 16.0148 5.82843 15.5012C5.75096 15.4357 5.68187 15.3608 5.62272 15.2783C5.61415 15.2698 5.60557 15.2698 5.597 15.2741C5.58679 15.279 5.57796 15.2863 5.57129 15.2955V15.0383L5.58415 15.0126C5.58843 15.0041 5.59272 15.0041 5.59272 15.0126C5.63986 15.1798 5.76843 15.3212 5.90129 15.4283C6.89557 16.2341 8.31843 16.4355 9.54415 16.4269C9.74986 16.4269 9.99415 16.4012 10.2213 16.3926C10.2326 16.3925 10.2434 16.3878 10.2513 16.3798C10.2556 16.3752 10.259 16.3698 10.2612 16.3639C10.2634 16.358 10.2644 16.3518 10.2641 16.3455C10.2727 16.1141 10.307 15.8998 10.367 15.7026C10.4099 15.5612 10.4699 15.4798 10.6241 15.4798C10.727 15.4798 10.8341 15.5012 10.9327 15.5355C11.1899 15.6212 11.4341 15.7198 11.6741 15.8355C11.8413 15.9041 12.1756 16.0798 12.2741 16.2726V16.2812C12.2774 16.2831 12.2811 16.2841 12.2849 16.2841C12.2886 16.2841 12.2923 16.2831 12.2956 16.2812H12.3041C12.4927 16.1269 12.6684 16.1055 12.9341 16.1312C13.037 16.1441 13.1227 16.1783 13.1913 16.2426C13.2001 16.2516 13.2116 16.2573 13.2241 16.2588C13.2365 16.2604 13.2491 16.2577 13.2599 16.2512C13.5084 16.0969 13.7613 15.9426 14.0227 15.7969C14.3227 15.6255 14.9956 15.4498 15.1499 15.8955L15.167 15.9169L15.1884 15.9212C15.3455 15.913 15.5009 15.8857 15.6513 15.8398C15.8699 15.7755 16.1313 15.6169 16.3584 15.4969C16.5641 15.3898 16.7784 15.3255 17.0013 15.2912C17.0141 15.2912 17.027 15.2826 17.0399 15.2698C17.0487 15.2602 17.0547 15.2483 17.057 15.2355C17.0913 15.0426 17.117 14.8455 17.1427 14.6441C17.1684 14.4041 17.2284 14.2241 17.3056 14.0269C17.3141 14.0055 17.3099 14.0012 17.2927 14.0183C17.149 14.1776 16.9699 14.3009 16.7699 14.3783C16.3618 14.5383 15.9267 14.6183 15.4884 14.6141C14.9013 14.6269 14.2327 14.6312 13.487 14.6226C13.1441 14.6226 12.7027 14.5369 12.3384 14.4083C12.0256 14.2969 11.6056 14.1941 11.387 14.1169C11.0784 14.0141 10.4141 13.8255 10.2727 13.4955C10.1484 13.2083 10.4441 13.0498 10.6627 12.9983C11.247 12.8559 11.8621 12.9117 12.4113 13.1569C12.5999 13.2212 12.7884 13.2683 12.9856 13.2983C13.0284 13.2898 13.0584 13.2983 13.0713 13.3112C13.1099 13.3541 13.1013 13.3755 13.0413 13.3712C12.7627 13.3541 12.4456 13.2426 12.1841 13.1355C11.7403 12.9775 11.2622 12.942 10.7999 13.0326C10.6284 13.0583 10.4141 13.1183 10.3241 13.2898C10.1999 13.5255 10.5941 13.7441 10.7741 13.8212C11.2756 14.0355 11.8241 14.1855 12.3599 14.3483C12.8356 14.4941 13.277 14.5626 13.7356 14.5712C14.1084 14.5755 14.7899 14.5669 15.7841 14.5412C16.2258 14.5264 16.6564 14.3996 17.0356 14.1726C17.1299 14.1212 17.2327 14.0012 17.3227 13.9155C17.4513 13.7912 17.477 13.5512 17.4341 13.3841C17.4324 13.3803 17.4294 13.3772 17.4256 13.3755C17.423 13.374 17.42 13.3732 17.417 13.3732C17.414 13.3732 17.411 13.374 17.4084 13.3755C17.2284 13.5169 17.0227 13.6155 16.8084 13.6669C16.1741 13.8255 15.6084 13.9583 14.897 14.0055C14.9184 13.9626 14.9699 13.9412 15.047 13.9326C15.5786 13.8852 16.105 13.7905 16.6199 13.6498C17.1041 13.5298 17.5284 13.3626 17.6356 12.8012C17.6471 12.7456 17.644 12.688 17.6268 12.634C17.6095 12.5799 17.5786 12.5312 17.537 12.4926C17.5333 12.4886 17.5285 12.4856 17.5232 12.4841C17.5179 12.4826 17.5123 12.4826 17.507 12.4841C17.2413 12.5183 17.0099 12.6983 16.7827 12.8355C16.3841 13.0883 15.8956 13.2598 15.4241 13.2255L15.4499 13.1655C15.4627 13.1612 15.4756 13.1612 15.4799 13.1655C16.1227 13.1783 16.5727 12.9083 17.1299 12.5441C17.2284 12.4798 17.3527 12.4412 17.5027 12.4198C17.507 12.4198 17.5113 12.4198 17.5156 12.4112L17.5241 12.3983C17.5327 12.3341 17.5541 12.2912 17.5841 12.2612C17.7341 12.1198 17.8713 12.0041 17.9227 11.7726C17.9484 11.6483 18.0084 11.5026 18.0041 11.3741C18.0041 11.3398 17.9956 11.3355 17.9784 11.3655C17.9184 11.4641 17.8456 11.5498 17.7556 11.6183C17.6913 11.6698 17.5927 11.7126 17.4599 11.7512C16.7056 11.9655 15.917 12.0641 15.1027 12.0383L15.0256 11.9869C15.0203 11.9842 15.0161 11.9797 15.0138 11.9742C15.0114 11.9687 15.0111 11.9626 15.0127 11.9569C15.0127 11.9441 15.0213 11.9398 15.0341 11.9355C15.8613 11.9912 16.6799 11.8755 17.477 11.6526C17.5884 11.6183 17.6699 11.5841 17.7256 11.5412C17.9527 11.3612 18.0384 11.0826 17.7384 10.9069C16.727 10.3241 15.6684 10.1569 14.6099 10.7098C14.3956 10.8169 14.0656 11.0483 14.0099 11.2883L13.9113 11.6226C13.907 11.6355 13.9113 11.6441 13.9199 11.6483L14.0099 11.7083C14.0313 11.7126 14.0099 11.7255 13.937 11.7469C13.8311 11.7204 13.719 11.7358 13.6241 11.7898L13.4656 11.8755C12.7565 12.1568 11.9818 12.2297 11.2327 12.0855C10.6751 11.9803 10.1566 11.7255 9.73272 11.3483C9.59986 11.2326 9.39843 11.2541 9.23986 11.2755C9.18769 11.2876 9.13346 11.2876 9.08129 11.2755C8.94843 11.2241 8.79843 11.0698 8.94843 10.9326C9.02129 10.8598 9.08986 10.8255 9.14986 10.8255C9.59986 10.8298 10.0199 10.6926 10.4313 10.5126C10.5341 10.4698 10.6456 10.3755 10.7227 10.3283C11.5799 9.80549 12.7241 9.92977 13.6113 10.2726C13.7056 10.3069 13.7484 10.2726 13.7399 10.1698L13.7356 10.1312C13.734 10.0846 13.7178 10.0398 13.6894 10.0029C13.6609 9.96596 13.6216 9.9389 13.577 9.92549C13.3445 9.83411 13.1032 9.76662 12.857 9.72406C12.2696 9.65309 11.6743 9.68939 11.0999 9.8312C10.7356 9.92549 10.5213 10.1741 10.1999 10.3412C9.92835 10.4814 9.63603 10.5769 9.33415 10.6241C9.32129 10.6241 9.31272 10.6198 9.30843 10.6069C9.29557 10.5769 9.29986 10.5641 9.32986 10.5555C9.75308 10.4845 10.1529 10.3125 10.4956 10.0541C10.5256 10.0241 10.5256 10.0198 10.4827 10.0326C10.3113 10.0883 10.1741 10.1612 9.99415 10.1912C9.73272 10.2341 9.47129 10.2726 9.20557 10.3026C8.97415 10.3241 8.61415 10.4055 8.47272 10.5812C8.32272 10.7569 8.237 10.8641 8.07843 10.9669C7.92415 11.0655 7.70986 11.1341 7.56415 11.2241C7.35843 11.3441 7.19557 11.5155 7.06272 11.7383C7.04081 11.7755 7.01105 11.8074 6.97552 11.8318C6.93998 11.8563 6.89953 11.8726 6.857 11.8798C6.72843 11.9055 6.60843 11.8026 6.51415 11.9526C6.15236 12.4737 5.88406 13.0538 5.72129 13.6669C5.64415 14.0055 5.63129 14.4341 5.59272 14.8155V14.8369H5.58415L5.57129 14.7855V13.7998C5.71898 13.1132 6.00001 12.4623 6.39843 11.8841L6.39415 11.8755H6.38129C6.20986 11.8583 6.08129 11.8026 5.927 11.6998C5.747 11.5755 5.63557 11.4983 5.57129 11.2926V11.1298C5.61415 10.9326 5.72557 10.8255 5.84557 10.6798C5.85401 10.6703 5.85867 10.6581 5.85867 10.6455C5.85867 10.6328 5.85401 10.6206 5.84557 10.6112C5.40843 10.0798 5.75986 9.50549 6.137 9.09406C6.16537 9.05951 6.20152 9.03217 6.24249 9.01429C6.28347 8.99641 6.3281 8.9885 6.37272 8.9912C6.38557 8.9912 6.38986 8.98692 6.39415 8.97406C6.40272 8.94834 6.39415 8.9312 6.377 8.92263C6.25272 8.85406 6.18843 8.7812 6.17129 8.63549C6.12415 8.31406 6.23986 7.8212 6.62986 7.81263C6.63543 7.81295 6.64094 7.81144 6.64558 7.80835C6.65022 7.80526 6.65373 7.80075 6.65557 7.79549C6.65783 7.79158 6.65902 7.78714 6.65902 7.78263C6.65902 7.77812 6.65783 7.77368 6.65557 7.76977C6.54843 7.60263 6.44129 7.49549 6.50557 7.27692C6.56986 7.0712 6.68986 6.91692 6.86557 6.81406C7.007 6.72834 7.18272 6.67263 7.337 6.57406C7.43986 6.50549 7.52129 6.38549 7.60272 6.2912C7.85956 6.03538 8.17711 5.8489 8.52564 5.74921C8.87418 5.64953 9.2423 5.63989 9.59557 5.7212C9.77129 5.77263 9.96415 5.64406 10.127 5.5712C10.2041 5.53692 10.2899 5.50692 10.3799 5.47692C10.6927 5.38263 11.0441 5.26263 11.3356 5.20263C11.7084 5.12977 12.0899 5.11692 12.4713 5.16834C12.6427 5.18977 12.7113 5.2712 12.8399 5.33549C12.8453 5.33785 12.8511 5.33906 12.857 5.33906C12.8629 5.33906 12.8687 5.33785 12.8741 5.33549C13.5224 5.13039 14.2164 5.11848 14.8713 5.3012C14.9741 5.26692 15.0513 5.19406 15.1799 5.19834C15.3727 5.20263 15.5656 5.2412 15.7413 5.31834C15.9384 5.40406 16.0413 5.54549 16.1827 5.72549C16.2513 5.81977 16.337 5.8412 16.457 5.85406C16.8341 5.88406 17.1513 6.1112 17.4084 6.40263C17.5627 6.57834 17.5027 6.8312 17.7041 6.99406C17.9484 7.19977 18.3384 7.44834 18.4284 7.77834V7.78263Z" fill="#010201"/>
<path d="M12.7973 5.46006C12.703 5.50292 12.6002 5.57577 12.4973 5.67006C12.3988 5.75577 12.1545 6.03863 12.2273 6.15863C12.3645 6.38577 12.5016 6.65577 12.2059 6.81863C12.0302 6.9172 11.7173 7.07578 11.6873 7.29006C11.6745 7.3672 11.7002 7.4272 11.7645 7.46578C11.9316 7.56435 12.1759 7.6972 11.9959 7.92863C11.9188 8.0272 11.7688 8.19006 11.5502 8.42578C11.4002 8.58863 11.1173 8.85435 11.2073 9.15006C11.2245 9.19292 11.2716 9.26578 11.3445 9.36435C11.4045 9.4372 11.4516 9.51435 11.4902 9.59577C11.1002 9.69863 10.7273 9.81863 10.3759 9.95577C10.2688 9.78435 10.1316 9.71578 9.93876 9.62149C9.72448 9.51863 9.55305 9.36435 9.44162 9.15863C9.36448 9.02578 9.33876 8.77292 9.26162 8.66577C9.18876 8.5672 9.00448 8.34006 8.9959 8.22006C8.99162 8.14292 9.00448 8.04863 9.04305 7.93292C9.09876 7.76149 9.19733 7.44863 9.16733 7.27292C9.12448 7.01149 9.07733 6.81863 9.15448 6.60006C9.18448 6.51863 9.24876 6.42863 9.34733 6.31292L9.75019 5.84149C9.81876 5.81149 9.89162 5.79863 9.9559 5.76435C10.2645 5.59292 10.5688 5.53292 10.8859 5.43435C11.3078 5.29212 11.7527 5.23104 12.1973 5.25435C12.4288 5.25435 12.6302 5.32292 12.7973 5.46006Z" fill="#F4F43F"/>
<path d="M15.0812 5.32307C15.0983 5.46022 15.1498 5.60593 15.0598 5.72593C14.9912 5.82022 14.8583 5.91879 14.9269 6.05165C15.0126 6.23165 15.2226 6.60879 15.0426 6.77593C14.9316 6.87545 14.8126 6.96575 14.6869 7.04593C14.5798 7.1145 14.5326 7.26022 14.5455 7.38879C14.5798 7.67165 14.5755 7.88165 14.4083 8.11736C14.2198 8.36593 13.9926 8.45165 13.7526 8.60165C13.5512 8.73022 13.4226 8.90165 13.3755 9.11593L13.2255 9.14165C13.1783 9.14593 13.1312 9.16307 13.0841 9.1845C12.8698 9.28736 12.6555 9.3645 12.4283 9.41593C12.2826 9.45022 12.1541 9.51022 12.0126 9.53165C11.8283 9.56165 11.6569 9.58307 11.4898 9.59593C11.4469 9.5145 11.4041 9.43736 11.3441 9.3645C11.2712 9.26593 11.2241 9.19307 11.2112 9.15022C11.1169 8.85879 11.3998 8.59307 11.5541 8.42593C11.7683 8.19022 11.9183 8.02736 11.9955 7.92879C12.1755 7.69736 11.9312 7.5645 11.7641 7.46593C11.6998 7.42736 11.6741 7.36736 11.6869 7.28593C11.7169 7.07165 12.0298 6.91736 12.2055 6.81879C12.5055 6.65593 12.3641 6.39022 12.2269 6.15879C12.1583 6.03879 12.3983 5.75165 12.4926 5.67022C12.5998 5.57593 12.7026 5.50307 12.7969 5.45593C12.8912 5.45593 12.9898 5.43879 13.0883 5.41307L13.3712 5.34879C13.8393 5.26346 14.321 5.28989 14.7769 5.42593C14.8026 5.4345 14.8283 5.43022 14.8498 5.42165L15.0812 5.32307Z" fill="#009521"/>
<path d="M17.5455 7.02419C17.4341 7.07991 17.3098 7.16134 17.1769 7.27277C16.9498 7.46562 16.9326 7.66705 16.9969 7.95848C17.0183 8.06562 17.0269 8.14277 17.0226 8.18991C16.9969 8.44705 16.7826 8.52848 16.6669 8.72562C16.5598 8.91848 16.6841 9.13277 16.5683 9.32562C16.5512 9.35991 16.5041 9.40277 16.4355 9.45419C16.3498 9.51848 16.2769 9.59562 16.2212 9.68991C15.9566 9.55497 15.6685 9.47204 15.3726 9.44562L15.0041 9.42419C14.7511 9.40829 14.4972 9.41546 14.2455 9.44562C14.1169 9.45848 13.9798 9.43705 13.8383 9.38562C13.7955 9.36848 13.7312 9.32991 13.6541 9.26991C13.5683 9.20991 13.4783 9.15848 13.3755 9.11562C13.4226 8.90134 13.5469 8.72991 13.7526 8.60134C13.9926 8.45134 14.2241 8.36562 14.4083 8.11277C14.5798 7.88134 14.5798 7.67134 14.5455 7.39277C14.5326 7.25562 14.5798 7.1142 14.6869 7.04991C14.8112 6.9642 14.9312 6.87848 15.0426 6.77562C15.2226 6.61277 15.0169 6.23134 14.9269 6.05134C14.8583 5.92277 14.9912 5.81991 15.0598 5.72562C15.1498 5.60562 15.1026 5.45991 15.0812 5.32277C15.3169 5.31419 15.5441 5.36134 15.7669 5.46419C15.9083 5.53705 16.0541 5.79419 16.1741 5.89277C16.2683 5.97848 16.4869 5.97848 16.6112 6.00419C16.8383 6.04705 17.1426 6.28277 17.2926 6.4542C17.3483 6.52277 17.3826 6.60848 17.4083 6.70705C17.4383 6.81848 17.4855 6.92134 17.5455 7.02419Z" fill="#2F61FE"/>
<path d="M9.75004 5.84143C9.62147 6 9.48432 6.15857 9.34718 6.31286C9.24861 6.42429 9.18432 6.51857 9.15432 6.6C9.07718 6.81857 9.12004 7.01143 9.16718 7.27286C9.19718 7.44857 9.09861 7.76143 9.0429 7.93286C9.00432 8.04857 8.99147 8.14714 9.00004 8.22C9.00861 8.34 9.18861 8.56286 9.26147 8.66571C9.33861 8.76857 9.36432 9.02571 9.44147 9.15857C9.55718 9.36429 9.72432 9.51857 9.93861 9.62143C10.1315 9.71571 10.2686 9.78429 10.3758 9.95571C10.1743 10.0414 10.0286 10.0929 9.93432 10.1014L9.09861 10.2086C8.9229 10.23 8.76004 10.2771 8.61432 10.3457C8.36147 10.47 8.24575 10.7486 7.99718 10.8943C8.04004 10.5 8.00575 10.3157 7.66718 10.11C7.4529 9.98143 7.17432 9.81 7.13575 9.52714C7.10575 9.29571 7.32004 9.15 7.32004 8.94C7.32004 8.79857 7.22147 8.68714 7.14861 8.57571C7.00718 8.36143 7.19147 8.16857 7.14861 7.95429C7.10575 7.74857 6.90432 7.56857 6.69004 7.62C6.6129 7.52571 6.58718 7.43143 6.61718 7.33286C6.7629 6.80571 7.29004 6.88286 7.57718 6.51429C7.76147 6.28286 7.93718 6.11571 8.20718 6C8.5929 5.84571 9.0129 5.71714 9.42861 5.80286C9.54004 5.82429 9.6429 5.82857 9.75004 5.84571V5.84143Z" fill="#FE7D22"/>
<path d="M17.5455 7.02431C17.6569 7.12288 17.7726 7.21716 17.8883 7.30716C18.0683 7.44859 18.3726 7.70573 18.3169 7.95431C18.2826 8.08288 18.2183 8.22431 18.1198 8.36145C18.0769 8.43002 18.1026 8.50716 18.1455 8.57573C18.2098 8.68716 18.2569 8.80716 18.2826 8.94002C18.334 9.19288 18.0983 9.33431 17.9355 9.48431C17.8069 9.60002 17.8712 9.78431 17.8926 9.93431C17.9226 10.17 17.7812 10.3886 17.6355 10.5557C17.6299 10.5624 17.6223 10.5672 17.6139 10.5695C17.6055 10.5718 17.5966 10.5715 17.5883 10.5686C17.4854 10.5232 17.3852 10.4717 17.2883 10.4143C17.104 10.3072 16.9326 10.14 16.7569 9.99859C16.5855 9.85716 16.4055 9.75431 16.2212 9.69002C16.2769 9.59573 16.3498 9.51859 16.4355 9.45431C16.504 9.40288 16.5512 9.36002 16.5683 9.32573C16.684 9.13288 16.5598 8.91859 16.6669 8.72573C16.7826 8.52859 16.9969 8.44288 17.0226 8.19002C17.0269 8.14288 17.0226 8.06573 16.9969 7.96288C16.9326 7.66288 16.9498 7.46573 17.1769 7.27716C17.3098 7.16145 17.434 7.08002 17.5455 7.02002V7.02431Z" fill="#9D3296"/>
<path d="M7.99731 10.8944L7.74017 11.023C7.40796 11.1647 7.12897 11.4077 6.94303 11.7173C6.90874 11.7644 6.85303 11.7859 6.7716 11.7687C6.57446 11.7344 6.39446 11.773 6.19731 11.7216C6.0657 11.6705 5.94498 11.5949 5.8416 11.4987C5.50303 11.2244 5.77731 10.9587 5.9616 10.7273C5.97821 10.7068 5.98763 10.6815 5.98841 10.6552C5.98918 10.6288 5.98127 10.603 5.96589 10.5816C5.90589 10.4959 5.83731 10.4102 5.80303 10.3159C5.66589 9.91301 5.89731 9.56587 6.15017 9.26158C6.21446 9.18444 6.27874 9.1373 6.35589 9.12444C6.4716 9.09873 6.63874 8.97444 6.48017 8.86301C6.39017 8.79444 6.2916 8.73444 6.27874 8.61015C6.25731 8.39587 6.30017 8.2073 6.40731 8.04872C6.4716 7.95872 6.65589 7.92015 6.75874 7.89872C6.7716 7.89872 6.78017 7.89015 6.78874 7.88158C6.79719 7.87345 6.80326 7.86316 6.80628 7.85183C6.8093 7.8405 6.80916 7.82856 6.80589 7.8173C6.80302 7.80592 6.79709 7.79554 6.78874 7.7873C6.74186 7.73945 6.70793 7.68046 6.69017 7.61587C6.90446 7.57301 7.10589 7.74872 7.14874 7.95444C7.1916 8.16872 7.00731 8.36158 7.14874 8.57587C7.2216 8.6873 7.32017 8.79872 7.32017 8.94015C7.32017 9.15444 7.10589 9.29587 7.13589 9.5273C7.17446 9.81015 7.45303 9.98158 7.66731 10.1102C8.00589 10.3159 8.04446 10.5002 7.99731 10.8944Z" fill="#FF0011"/>
<path d="M13.5255 9.32163C13.8641 9.60877 14.2027 9.55306 14.6527 9.51449C14.8455 9.49734 15.0555 9.54877 15.2398 9.55734C15.3512 9.55734 15.4627 9.55734 15.5698 9.57877C15.7541 9.61734 15.9212 9.66449 16.0755 9.72449C16.1227 9.74163 16.1184 9.7502 16.0755 9.7502C15.3041 9.70734 14.5584 9.85734 13.847 10.1573C13.8341 10.1616 13.8298 10.1573 13.8255 10.1445C13.7741 9.7802 13.397 9.85734 13.1827 9.65592C13.0881 9.5618 12.9909 9.47034 12.8912 9.38163V9.37734H12.8998C13.1612 9.30877 13.277 9.10734 13.5255 9.32163ZM12.0427 9.6002C12.2986 9.55901 12.5508 9.49738 12.797 9.41591L12.8141 9.4202L13.0712 9.65592C13.0927 9.67306 13.0927 9.68163 13.0627 9.67734C12.7268 9.62497 12.3868 9.60345 12.047 9.61306C11.987 9.61306 11.987 9.61306 12.047 9.6002H12.0427Z" fill="#649947"/>
<path d="M13.937 11.7428L13.5684 11.9142C13.5256 11.9357 13.4827 11.9657 13.4527 12C13.3927 12.06 13.3199 12.1285 13.2684 12.1971C13.0761 12.4566 12.9945 12.7818 13.0413 13.1014L13.0541 13.2471C13.0584 13.29 13.037 13.3071 12.9856 13.2985C12.7884 13.2685 12.5999 13.2214 12.4113 13.1571L11.9313 12.9942C11.5144 12.894 11.0796 12.894 10.6627 12.9942C10.4484 13.05 10.1484 13.2085 10.277 13.4957C10.4141 13.8257 11.0784 14.01 11.387 14.1171C11.6013 14.19 12.0256 14.2971 12.3384 14.4085C12.7027 14.5371 13.1399 14.6228 13.487 14.6228C14.2327 14.6314 14.9013 14.6228 15.4884 14.6142C15.9282 14.6191 16.3647 14.539 16.7741 14.3785C16.9841 14.2928 17.1599 14.1728 17.2927 14.0185C17.3099 14.0014 17.3141 14.0057 17.3056 14.0271C17.223 14.2243 17.1682 14.432 17.1427 14.6442C17.117 14.8457 17.0913 15.0428 17.057 15.2357C17.057 15.2485 17.0484 15.2614 17.0399 15.27C17.0299 15.2814 17.0163 15.289 17.0013 15.2914C16.7784 15.3214 16.5641 15.39 16.3584 15.4971C16.1313 15.6171 15.8699 15.7757 15.6513 15.84C15.4938 15.8862 15.3311 15.9121 15.167 15.9171C15.1589 15.9123 15.1528 15.9047 15.1499 15.8957C14.9956 15.45 14.3184 15.6257 14.0227 15.7971C13.7656 15.9428 13.5084 16.0971 13.2599 16.2514C13.2496 16.2568 13.2379 16.2589 13.2263 16.2574C13.2148 16.2559 13.2041 16.2508 13.1956 16.2428C13.1241 16.179 13.0339 16.1399 12.9384 16.1314C12.6684 16.1057 12.4927 16.1271 12.3041 16.2771C12.3018 16.279 12.299 16.2803 12.296 16.2811C12.2931 16.2818 12.29 16.2819 12.287 16.2814C12.2818 16.2802 12.2772 16.2772 12.2741 16.2728C12.1756 16.08 11.8413 15.9042 11.6741 15.8314C11.4341 15.72 11.1856 15.6214 10.9327 15.5357C10.832 15.5008 10.7264 15.482 10.6199 15.48C10.4699 15.48 10.4099 15.5657 10.367 15.7028C10.307 15.9 10.2727 16.1142 10.2641 16.3457C10.2641 16.3585 10.2599 16.3714 10.2513 16.38C10.2434 16.388 10.2326 16.3926 10.2213 16.3928C9.99415 16.4014 9.74986 16.4228 9.53986 16.4271C8.31843 16.4357 6.89557 16.2342 5.897 15.4285C5.76843 15.3214 5.63986 15.18 5.597 15.0128C5.59272 15.0042 5.58843 15.0042 5.58415 15.0128L5.57129 15.0428V14.7857L5.58415 14.8371H5.58843L5.59272 14.8242V14.8157C5.63129 14.43 5.64415 14.0014 5.72129 13.6628C5.88321 13.0515 6.15003 12.4729 6.50986 11.9528C6.60843 11.8028 6.72415 11.91 6.857 11.88C6.89953 11.8728 6.93998 11.8564 6.97552 11.832C7.01105 11.8076 7.04081 11.7757 7.06272 11.7385C7.19129 11.5157 7.36272 11.3442 7.55986 11.2242C7.70986 11.1342 7.92415 11.0657 8.07415 10.9671C8.237 10.8642 8.32272 10.7571 8.47272 10.5814C8.61415 10.41 8.97415 10.3242 9.20129 10.3028C9.47129 10.2728 9.73272 10.2342 9.99415 10.1914C10.1741 10.1657 10.3113 10.0885 10.4827 10.0328C10.5256 10.02 10.5256 10.0242 10.4956 10.0542C10.1484 10.3371 9.767 10.4528 9.32986 10.5557C9.29986 10.56 9.29557 10.5771 9.30843 10.6071C9.31272 10.62 9.32129 10.6242 9.33415 10.6242L9.41986 10.6114C9.6916 10.5598 9.95436 10.4688 10.1999 10.3414C10.5213 10.17 10.7356 9.92567 11.0999 9.8271C11.6699 9.68138 12.3041 9.65567 12.857 9.72424C13.0113 9.74138 13.2513 9.80995 13.577 9.92567C13.6756 9.95995 13.727 10.0285 13.7356 10.1314V10.1742C13.7484 10.2728 13.7056 10.3071 13.607 10.2728C12.7241 9.92995 11.5841 9.80567 10.7227 10.3285C10.6456 10.3714 10.5341 10.47 10.4313 10.5128C10.0199 10.6928 9.59986 10.83 9.14986 10.8257C9.08986 10.8257 9.02129 10.86 8.94843 10.9328C8.79843 11.07 8.94843 11.2242 9.08129 11.2757C9.11558 11.2842 9.167 11.2842 9.23986 11.2757C9.39843 11.2542 9.59986 11.2328 9.73272 11.3485C10.1566 11.7257 10.6751 11.9805 11.2327 12.0857C12.0041 12.2014 12.7413 12.18 13.4656 11.8714L13.6241 11.7857C13.719 11.7317 13.8311 11.7163 13.937 11.7428Z" fill="#649947"/>
<path d="M13.8 10.4573L13.8043 10.4701C13.8053 10.4762 13.8085 10.4817 13.8132 10.4856C13.8179 10.4895 13.8239 10.4916 13.83 10.4915H13.8386C14.8012 10.1015 15.8603 10.0162 16.8729 10.2473C16.9029 10.2515 16.9457 10.2773 16.9671 10.3073C17.1386 10.513 17.3529 10.5387 17.55 10.6715C17.6314 10.723 17.6271 10.7315 17.5371 10.7015C17.2671 10.5987 16.9671 10.4444 16.6971 10.3715C15.9929 10.1825 15.2433 10.2651 14.5971 10.603C14.3829 10.7144 14.2329 10.8473 14.0614 11.0144C14.0486 11.023 14.0443 11.023 14.04 11.0058C14.0057 10.8773 14.0271 10.7615 13.8771 10.693C13.2442 10.3994 12.5562 10.2432 11.8586 10.2344C11.7943 10.2344 11.7043 10.2473 11.58 10.2687C11.1386 10.3587 10.68 10.5944 10.2814 10.8258C10.0843 10.9458 9.91714 11.083 9.78 11.2501C9.77143 11.2587 9.76285 11.2587 9.75 11.2544C9.636 11.1882 9.50401 11.1597 9.37285 11.173C9.25714 11.1944 8.98714 11.2544 8.96143 11.053C8.96143 11.0401 8.96143 11.0315 8.97 11.023C9.04285 10.9415 9.10714 10.903 9.16714 10.903C9.6907 10.8904 10.2019 10.7412 10.65 10.4701C11.5286 9.85725 12.75 10.0073 13.6843 10.3844C13.6963 10.3889 13.7095 10.3887 13.7214 10.384C13.7333 10.3792 13.743 10.3702 13.7486 10.3587C13.7786 10.303 13.8043 10.2601 13.8643 10.2344C14.6015 9.91688 15.4031 9.7774 16.2043 9.82725C16.2857 9.82725 16.3629 9.84868 16.44 9.90011C16.5386 9.96868 16.6457 10.0287 16.7529 10.0801C16.7786 10.093 16.8 10.1101 16.8257 10.1401C16.8343 10.1487 16.8343 10.153 16.8171 10.1487C15.8158 9.93633 14.7739 10.0289 13.8257 10.4144C13.8086 10.423 13.8 10.4358 13.8043 10.4573H13.8Z" fill="#649947"/>
<path d="M11.4515 12.0299C10.8583 11.9557 10.2998 11.7099 9.84436 11.3227C9.84397 11.3181 9.84452 11.3134 9.846 11.309C9.84747 11.3046 9.84983 11.3005 9.85293 11.297C10.1744 10.9113 10.6758 10.6927 11.1644 10.4913C11.4529 10.3647 11.7667 10.306 12.0815 10.3199C12.5144 10.3499 12.9558 10.4399 13.3972 10.5899C13.5301 10.6327 13.8601 10.7356 13.9115 10.8341C14.0101 10.997 13.8858 11.4341 13.8129 11.6013C13.4766 11.7854 13.1159 11.921 12.7415 12.0041C12.3386 12.0813 11.8758 12.0684 11.4558 12.0299H11.4515ZM15.0344 11.9356C15.0173 11.9265 14.9977 11.9235 14.9786 11.927C14.8501 11.867 14.7215 11.7856 14.5886 11.7513C14.4003 11.6999 14.2039 11.6854 14.0101 11.7084L13.9244 11.6484C13.9115 11.6441 13.9072 11.6356 13.9115 11.6227C13.9458 11.5113 13.9801 11.3999 14.0058 11.2884C14.0658 11.0484 14.4001 10.817 14.6058 10.7099C15.6686 10.1527 16.7272 10.3241 17.7344 10.907C18.0344 11.0784 17.9529 11.3613 17.7258 11.5413C17.6701 11.5841 17.5886 11.6184 17.4772 11.6527C16.6801 11.8756 15.8615 11.9913 15.0344 11.9356Z" fill="white"/>
<path d="M12.5572 11.4773C12.4286 11.8159 12.1072 11.9616 11.7686 11.9744C11.1772 11.9959 10.7829 11.7773 10.9029 11.0959C10.9757 10.6759 11.22 10.4402 11.6315 10.3973C11.85 10.3759 12.0472 10.4144 12.2186 10.5216C12.374 10.6198 12.4916 10.7676 12.5523 10.9412C12.613 11.1147 12.6132 11.3036 12.5529 11.4773H12.5572ZM16.1529 10.5302C16.7572 10.8344 16.7186 11.713 16.02 11.8759C15.6172 11.9659 15.0515 11.9144 15.0086 11.3659C14.9743 10.9802 15.1457 10.603 15.5229 10.4787C15.7372 10.4059 15.9472 10.423 16.1529 10.5302Z" fill="#010201"/>
<path d="M11.5156 10.8255C11.5311 10.8224 11.5458 10.8163 11.5589 10.8076C11.5721 10.7988 11.5833 10.7875 11.5921 10.7744C11.6009 10.7612 11.6069 10.7465 11.61 10.731C11.613 10.7155 11.613 10.6996 11.6099 10.6841C11.6064 10.6691 11.5999 10.6549 11.5909 10.6425C11.5818 10.63 11.5704 10.6195 11.5572 10.6115C11.544 10.6035 11.5294 10.5982 11.5141 10.596C11.4989 10.5937 11.4834 10.5945 11.4685 10.5984C11.4381 10.6046 11.4113 10.6224 11.3937 10.6479C11.3761 10.6735 11.3691 10.7049 11.3742 10.7355C11.387 10.7998 11.4513 10.8384 11.5156 10.8212V10.8255ZM15.557 10.8512C15.617 10.8512 15.6685 10.8041 15.6685 10.7398C15.6685 10.7253 15.6656 10.7111 15.6599 10.6978C15.6543 10.6845 15.646 10.6725 15.6356 10.6625C15.6252 10.6525 15.6128 10.6447 15.5993 10.6395C15.5858 10.6344 15.5715 10.6321 15.557 10.6326C15.5286 10.6326 15.5014 10.6439 15.4813 10.664C15.4612 10.6841 15.4499 10.7114 15.4499 10.7398C15.4499 10.8041 15.497 10.8512 15.557 10.8512ZM11.9742 11.1341C12.0727 11.1426 12.1542 11.0784 12.1627 10.9926C12.1627 10.9069 12.0899 10.8298 11.9913 10.8255C11.8927 10.8212 11.807 10.8855 11.8027 10.9712C11.7985 11.0569 11.8713 11.1298 11.9742 11.1341ZM16.0027 11.1341C16.0885 11.1384 16.1699 11.0784 16.1742 11.0012C16.1785 10.9241 16.1099 10.8512 16.0199 10.8469C15.9299 10.8384 15.8485 10.8984 15.8485 10.9755C15.8399 11.0569 15.9085 11.1255 16.0027 11.1341ZM11.5113 11.2669C11.567 11.2669 11.6099 11.2241 11.6099 11.1769C11.6099 11.1255 11.567 11.0869 11.5113 11.0826C11.4556 11.0826 11.4127 11.1255 11.4127 11.1726C11.4127 11.2241 11.4556 11.2669 11.5113 11.2669ZM15.5827 11.2541C15.6299 11.2541 15.6685 11.2112 15.6685 11.1684C15.6685 11.1255 15.6256 11.0826 15.5785 11.0869C15.527 11.0869 15.4885 11.1298 15.4927 11.1726C15.4927 11.2155 15.5313 11.2584 15.5785 11.2584L15.5827 11.2541Z" fill="white"/>
<path d="M15.4798 13.1613L15.4712 13.157C15.4689 13.1556 15.4669 13.1538 15.4654 13.1516C15.4639 13.1493 15.463 13.1468 15.4626 13.1441L15.4498 12.887C15.4498 12.7755 15.4412 12.6898 15.4241 12.6298C15.363 12.4118 15.2548 12.2099 15.1069 12.0384C15.9212 12.0641 16.7055 11.9698 17.4641 11.7513C17.5926 11.7127 17.6912 11.6698 17.7555 11.6184C17.8412 11.5498 17.9184 11.4641 17.9784 11.3613C17.9955 11.3355 18.0041 11.3398 18.0041 11.3741C18.0041 11.5027 17.9484 11.6484 17.9184 11.7727C17.8712 11.9998 17.7341 12.1155 17.5841 12.2613C17.5541 12.2913 17.5326 12.3341 17.5241 12.3984C17.5241 12.4027 17.5241 12.4113 17.5155 12.4155L17.5026 12.4198C17.3526 12.4413 17.2284 12.4798 17.1298 12.5484C16.5726 12.9084 16.1226 13.1784 15.4798 13.1613Z" fill="#649947"/>
<path d="M8.89735 11.6912H8.89307V11.6698C8.90164 11.6441 8.91878 11.6269 8.95307 11.6141C8.98669 11.6046 9.0223 11.6046 9.05592 11.6141L9.21021 11.6569C9.24878 11.6655 9.28307 11.6869 9.30449 11.7084C9.32592 11.7341 9.3345 11.7598 9.32592 11.7855V11.7984L9.32164 11.8027H9.31307L8.89735 11.6912Z" fill="#010201"/>
<path d="M14.0141 11.7086C14.2113 11.6872 14.3999 11.7001 14.5884 11.7515C14.717 11.7858 14.8456 11.8672 14.9784 11.9229C14.9656 11.9272 14.9613 11.9358 14.9613 11.9529H14.957H14.9527C14.9479 11.9509 14.9436 11.948 14.9399 11.9444C14.9399 11.9315 14.9313 11.9272 14.9184 11.9315C14.897 11.9315 14.8756 11.9486 14.8541 11.9872C14.8765 12.0158 14.9061 12.038 14.9399 12.0515H14.9441L14.9184 12.0644C14.9168 12.0662 14.9148 12.0676 14.9126 12.0686C14.9104 12.0696 14.908 12.0702 14.9056 12.0702C14.9031 12.0702 14.9007 12.0696 14.8985 12.0686C14.8963 12.0676 14.8943 12.0662 14.8927 12.0644C14.8386 12.0313 14.7811 12.004 14.7213 11.9829L14.7084 11.9872C14.7044 11.9891 14.7 11.9901 14.6956 11.9901C14.6911 11.9901 14.6867 11.9891 14.6827 11.9872C14.5708 11.9589 14.4548 11.9502 14.3399 11.9615C14.3361 11.9651 14.3331 11.9695 14.3313 11.9744L14.3184 12.0044C14.3136 12.0135 14.3061 12.021 14.297 12.0258C14.1856 12.0986 14.2841 12.2144 14.1984 12.2744C14.1556 12.3044 14.087 12.2915 14.027 12.3044C14.024 12.3054 14.0214 12.3071 14.0191 12.3094C14.0169 12.3116 14.0152 12.3143 14.0141 12.3172L14.0056 12.3258C13.9199 12.3429 13.8341 12.3558 13.7527 12.3601C13.7441 12.3601 13.7356 12.3644 13.7227 12.3772C13.7192 12.3803 13.7152 12.3827 13.7107 12.3842C13.7063 12.3856 13.7016 12.3862 13.697 12.3858C13.6456 12.3815 13.6199 12.3986 13.6156 12.4458C13.6156 12.4629 13.607 12.4801 13.5984 12.4972C13.5888 12.5119 13.5755 12.5237 13.5599 12.5315C13.5446 12.5389 13.5276 12.5417 13.5108 12.5394C13.494 12.5371 13.4783 12.5299 13.4656 12.5186C13.4441 12.4972 13.4056 12.4929 13.3541 12.4972C13.3113 12.4972 13.2856 12.5272 13.2684 12.5701C13.2599 12.5915 13.2427 12.6301 13.2041 12.6901C13.1997 12.6994 13.1982 12.7099 13.1999 12.7201C13.1999 12.7586 13.1741 12.7844 13.1699 12.8058C13.1527 12.8486 13.1313 12.9001 13.127 12.9472L13.1141 12.9729C13.1056 12.9772 13.1013 12.9729 13.1013 12.9644C13.1013 12.9515 13.1013 12.9472 13.0927 12.9472C13.0799 12.9472 13.0713 12.9386 13.0713 12.9258V12.9001H13.0499V12.9258L13.0541 13.0972L13.0413 13.1015C12.9984 12.7586 13.0756 12.4586 13.2684 12.1972C13.3199 12.1286 13.397 12.0601 13.4527 12.0001C13.4858 11.9647 13.525 11.9357 13.5684 11.9144L13.937 11.7429C14.0056 11.7258 14.0313 11.7129 14.0099 11.7086H14.0141Z" fill="#FF0011"/>
<path d="M14.9785 11.9272C14.9975 11.9237 15.0171 11.9267 15.0342 11.9358C15.0214 11.9358 15.0128 11.9443 15.0128 11.9572C15.0128 11.9701 15.0128 11.9786 15.0256 11.9872L15.1071 12.0386C15.2614 12.2229 15.3642 12.4201 15.4242 12.6258C15.4414 12.6901 15.4499 12.7758 15.4499 12.8829C15.4542 12.9745 15.4614 13.066 15.4714 13.1572L15.4799 13.1658C15.4756 13.1615 15.4671 13.1615 15.4499 13.1658C15.4499 12.9901 15.4756 12.7501 15.4071 12.5872C15.3797 12.5351 15.3512 12.4836 15.3214 12.4329C15.313 12.4441 15.3008 12.4517 15.2871 12.4543H15.2785V12.4629C15.2774 12.4649 15.2768 12.4671 15.2768 12.4693C15.2768 12.4716 15.2774 12.4738 15.2785 12.4758L15.2914 12.5015V12.5186L15.2999 12.5572C15.2999 12.5701 15.2914 12.5786 15.2742 12.5743C15.2485 12.5701 15.2356 12.5572 15.2314 12.5315C15.2319 12.5258 15.231 12.5201 15.2287 12.5149C15.2265 12.5096 15.223 12.505 15.2185 12.5015C15.1923 12.4837 15.1703 12.4603 15.1542 12.4329H15.1499V12.4458C15.1585 12.4458 15.1585 12.4501 15.1499 12.4586C15.1458 12.4603 15.1412 12.4603 15.1371 12.4586L15.1328 12.4629C15.1328 12.4929 15.1199 12.5101 15.0856 12.5143H14.9742C14.9561 12.5131 14.9381 12.5176 14.9228 12.5272L14.6828 12.6943C14.6228 12.7329 14.5971 12.7972 14.5328 12.8358L14.4085 12.9086C14.3356 12.9643 14.2371 13.0158 14.1428 12.9943H14.1085C13.9971 13.0201 13.8942 13.0072 13.7742 13.0458C13.6499 13.0886 13.5042 13.0672 13.3756 13.0672C13.2856 13.0672 13.2385 13.1101 13.2471 13.2043C13.2471 13.2129 13.2385 13.2215 13.2299 13.2301C13.193 13.2644 13.1626 13.305 13.1399 13.3501C13.1092 13.3159 13.0858 13.2759 13.0711 13.2324C13.0564 13.189 13.0506 13.143 13.0542 13.0972C13.0496 13.033 13.0496 12.9686 13.0542 12.9043V12.9001H13.0714V12.9258C13.0714 12.9429 13.0799 12.9472 13.0928 12.9472C13.0971 12.9472 13.1014 12.9515 13.1014 12.9643C13.1014 12.9772 13.1014 12.9772 13.1142 12.9729C13.1181 12.9698 13.1212 12.9659 13.1235 12.9615C13.1257 12.957 13.1269 12.9522 13.1271 12.9472L13.1699 12.8058C13.1742 12.7843 13.1999 12.7586 13.1999 12.7201L13.2042 12.6901C13.2428 12.6301 13.2599 12.5915 13.2685 12.5701C13.2856 12.5272 13.3114 12.5015 13.3542 12.4972C13.4056 12.4929 13.4442 12.4972 13.4699 12.5186C13.4822 12.529 13.4972 12.5357 13.5131 12.538C13.529 12.5402 13.5452 12.538 13.5599 12.5315C13.5772 12.5243 13.592 12.5125 13.6028 12.4972C13.6115 12.4815 13.6159 12.4637 13.6156 12.4458C13.6199 12.4029 13.6499 12.3815 13.7014 12.3858C13.7099 12.3858 13.7185 12.3858 13.7228 12.3772C13.7356 12.3643 13.7485 12.3601 13.7528 12.3601C13.8409 12.3522 13.9282 12.3379 14.0142 12.3172C14.0185 12.3086 14.0228 12.3043 14.0314 12.3043C14.0871 12.2915 14.1514 12.3043 14.1985 12.2743C14.2842 12.2143 14.1856 12.0986 14.2971 12.0258C14.3062 12.0209 14.3137 12.0135 14.3185 12.0043L14.3314 11.9743C14.3344 11.9691 14.3388 11.9647 14.344 11.9617C14.3493 11.9587 14.3553 11.9571 14.3614 11.9572C14.4728 11.9486 14.5756 11.9572 14.6828 11.9915L14.7085 11.9872H14.7256C14.7728 12.0001 14.8285 12.0301 14.8971 12.0643H14.9185C14.926 12.059 14.935 12.0561 14.9442 12.0558V12.0515C14.9089 12.0387 14.8778 12.0164 14.8542 11.9872C14.8756 11.9486 14.8971 11.9315 14.9185 11.9315C14.9314 11.9315 14.9356 11.9315 14.9399 11.9443L14.9528 11.9572H14.9571V11.9529C14.9571 11.9358 14.9656 11.9272 14.9785 11.9272Z" fill="#D01F13"/>
<path d="M13.9287 12H14.083C14.1044 12 14.1258 12.0086 14.1387 12.0214C14.1558 12.0386 14.1644 12.0557 14.1687 12.0772L14.1858 12.1757C14.1905 12.1994 14.1859 12.2239 14.173 12.2443C14.1661 12.2545 14.1573 12.2631 14.147 12.2698C14.1366 12.2764 14.1251 12.2809 14.113 12.2829L13.843 12.3172C13.8268 12.3188 13.8104 12.3159 13.7958 12.3086C13.7843 12.302 13.7743 12.2932 13.7664 12.2825C13.7586 12.2718 13.7531 12.2596 13.7502 12.2467C13.7474 12.2338 13.7473 12.2204 13.75 12.2074C13.7527 12.1944 13.7581 12.1822 13.7658 12.1714L13.8601 12.0386C13.868 12.0265 13.8789 12.0167 13.8916 12.01C13.9043 12.0032 13.9186 11.9998 13.933 12H13.9287Z" fill="#FDCAC3"/>
<path d="M15.4501 13.1655L15.4244 13.2255C15.3622 13.4934 15.2148 13.734 15.0044 13.9112V13.9198C15.005 13.9218 15.0061 13.9236 15.0076 13.9251C15.0091 13.9266 15.011 13.9277 15.013 13.9283C15.0216 13.9326 15.0301 13.9369 15.043 13.9326C14.9701 13.9412 14.9187 13.9626 14.8973 14.0055L14.7559 14.0612L14.6187 14.1169C14.2501 14.224 13.8987 14.1726 13.5516 13.9669C13.5387 13.9412 13.5216 13.924 13.5001 13.924C13.5773 13.924 13.5687 13.8983 13.4659 13.8512C13.4435 13.8405 13.4232 13.826 13.4059 13.8083C13.2739 13.6851 13.1814 13.5255 13.1401 13.3498C13.1628 13.3047 13.1932 13.2641 13.2301 13.2298C13.2343 13.2269 13.2376 13.223 13.2398 13.2185C13.2421 13.2141 13.2432 13.2091 13.243 13.204C13.2387 13.1098 13.2859 13.0712 13.3716 13.0669C13.5044 13.0669 13.6501 13.084 13.7744 13.0455C13.8987 13.0026 13.9973 13.0198 14.1087 12.9898H14.143C14.2373 13.0155 14.3359 12.964 14.4087 12.9083L14.5373 12.8355C14.5973 12.7969 14.623 12.7326 14.683 12.694L14.923 12.5226C14.9383 12.513 14.9564 12.5085 14.9744 12.5098H15.0859C15.1201 12.5098 15.133 12.4926 15.1287 12.4669C15.1287 12.4583 15.133 12.4583 15.1373 12.4583H15.1544V12.4455C15.1459 12.4455 15.1459 12.4369 15.1459 12.4326H15.1544C15.1705 12.46 15.1925 12.4834 15.2187 12.5012L15.2359 12.5312C15.2359 12.5569 15.2487 12.5698 15.2744 12.574C15.2873 12.574 15.2959 12.574 15.3001 12.5569C15.3001 12.544 15.3001 12.5312 15.2916 12.5183V12.5012C15.2916 12.4926 15.2916 12.484 15.2787 12.4755C15.2769 12.4743 15.2755 12.4727 15.2745 12.4708C15.2735 12.469 15.273 12.4669 15.273 12.4648C15.273 12.4626 15.2735 12.4605 15.2745 12.4587C15.2755 12.4568 15.2769 12.4552 15.2787 12.454H15.2873L15.3216 12.4326C15.3514 12.4834 15.3799 12.5348 15.4073 12.5869C15.4759 12.7498 15.4501 12.9898 15.4501 13.1655Z" fill="#9A1105"/>
<path d="M15.0431 13.9329H15.0131L15.0088 13.9244V13.9072C15.2231 13.7229 15.3602 13.4958 15.4245 13.2258C15.8959 13.2601 16.3845 13.0887 16.7831 12.8401C17.0102 12.6944 17.2416 12.5187 17.5116 12.4844C17.5202 12.4844 17.5288 12.4844 17.5374 12.4929C17.6231 12.5787 17.6574 12.6815 17.6359 12.8015C17.5288 13.3629 17.1045 13.5301 16.6202 13.6501C16.1054 13.7908 15.579 13.8855 15.0474 13.9329H15.0431Z" fill="#A35B36"/>
<path d="M12.9855 13.2987C13.0369 13.3073 13.0584 13.2859 13.0541 13.2473C13.0488 13.1988 13.0445 13.1502 13.0412 13.1016H13.0541C13.0455 13.1873 13.0755 13.273 13.1398 13.3502C13.1741 13.5173 13.2641 13.6716 13.4055 13.8087C13.4229 13.8264 13.4432 13.8409 13.4655 13.8516C13.5684 13.8944 13.5769 13.9202 13.4998 13.9244C12.8312 13.8387 12.2012 13.7616 11.5541 13.5559C11.3913 13.5064 11.2346 13.4389 11.0869 13.3544C11.0741 13.3459 11.0655 13.3544 11.0655 13.3673V13.3844C11.0661 13.3925 11.0688 13.4004 11.0733 13.4071C11.0778 13.4139 11.084 13.4193 11.0912 13.423C11.2112 13.4959 11.3398 13.5516 11.4769 13.5944C12.1455 13.8087 12.8355 13.9373 13.5512 13.9673C13.73 14.0798 13.9333 14.1471 14.1439 14.1636C14.3544 14.18 14.5658 14.145 14.7598 14.0616L14.8969 14.0059C15.5432 13.9523 16.1831 13.8389 16.8084 13.6673C17.0327 13.6157 17.2432 13.5163 17.4255 13.3759H17.4298L17.4341 13.3844C17.4769 13.5559 17.4555 13.7916 17.3227 13.9159C17.2327 14.0016 17.1298 14.1216 17.0355 14.173C16.6369 14.4044 16.2212 14.5287 15.7841 14.5416C14.7898 14.5673 14.1127 14.5759 13.7355 14.5716C13.2769 14.563 12.8355 14.4944 12.3598 14.3487C11.8241 14.1859 11.2755 14.0359 10.7741 13.8216C10.5941 13.7444 10.1998 13.5216 10.3241 13.2902C10.4098 13.1187 10.6241 13.0587 10.7955 13.033C11.2606 12.9408 11.7419 12.9763 12.1884 13.1359C12.4455 13.2387 12.7627 13.3502 13.0455 13.3716C13.1012 13.3716 13.1098 13.3544 13.0712 13.3116C13.0584 13.2944 13.0284 13.2902 12.9855 13.2987Z" fill="#A35B36"/>
<path d="M13.4998 13.9287C13.5256 13.9287 13.5427 13.9415 13.5513 13.9715C12.8448 13.9385 12.1458 13.8117 11.4727 13.5944C11.333 13.5473 11.1992 13.484 11.0741 13.4058C11.071 13.3991 11.0696 13.3918 11.0698 13.3844V13.3672C11.0698 13.3501 11.0698 13.3458 11.087 13.3544C11.2198 13.4358 11.3784 13.5001 11.5584 13.5558C12.2013 13.7615 12.8313 13.843 13.4998 13.9244V13.9287ZM9.71556 14.4772C9.71127 14.4707 9.70935 14.4629 9.71013 14.4551C9.71091 14.4473 9.71434 14.44 9.71984 14.4344L9.7327 14.4301L9.74127 14.4258C9.77127 14.413 9.7927 14.4172 9.80984 14.443C9.92556 14.6187 10.1356 14.7387 10.3198 14.8458C10.3286 14.852 10.3347 14.8611 10.337 14.8715C10.3393 14.8817 10.3377 14.8924 10.3327 14.9015L10.3241 14.9144C10.3198 14.9239 10.3122 14.9315 10.3027 14.9358H10.2727C10.0798 14.833 9.81842 14.6787 9.71556 14.4772Z" fill="#010201"/>
<path d="M10.2256 17.5714H5.57129V15.2957C5.57796 15.2866 5.58679 15.2792 5.597 15.2743C5.60557 15.27 5.61415 15.27 5.62272 15.2786C5.687 15.3686 5.75557 15.4414 5.82843 15.5014C6.5052 16.0151 7.30737 16.3377 8.15129 16.4357C8.75129 16.5214 9.407 16.5643 10.0113 16.5C10.0756 16.4957 10.1441 16.4914 10.2256 16.4957C10.2335 16.4957 10.2412 16.4989 10.2468 16.5045C10.2524 16.5101 10.2556 16.5178 10.2556 16.5257C10.2791 16.8745 10.2691 17.2246 10.2256 17.5714ZM18.3813 17.5714H14.9699C15.0299 17.4 15.0727 17.2243 15.0984 17.0486L15.1499 16.56C15.1682 16.3907 15.1739 16.2202 15.167 16.05C15.1687 16.0445 15.1714 16.0394 15.1751 16.035C15.1788 16.0306 15.1833 16.0269 15.1884 16.0243C15.4186 15.7576 15.7164 15.5579 16.0506 15.4463C16.3847 15.3347 16.7427 15.3152 17.087 15.39C17.0989 15.3885 17.1109 15.3905 17.1216 15.3958C17.1323 15.4012 17.1411 15.4096 17.147 15.42C17.267 15.6472 17.1856 15.9343 17.3613 16.1229C17.7041 16.4872 17.9784 16.8986 18.3041 17.28C18.3727 17.3529 18.3941 17.4514 18.3813 17.5714Z" fill="#0645FF"/>
<path d="M11.5242 17.5716H10.3242C10.3799 16.9502 10.2899 16.3116 10.4742 15.7073C10.5256 15.5402 10.7271 15.5916 10.8428 15.6302C11.3442 15.7888 11.6785 15.9259 12.0514 16.1745C12.1628 16.2473 12.2099 16.3459 12.1971 16.4702C12.1971 16.4873 12.1842 16.4959 12.1628 16.4959L11.6228 16.4145C11.5885 16.4102 11.5714 16.423 11.5628 16.4573V16.4702C11.5594 16.4777 11.5589 16.4861 11.5613 16.494C11.5636 16.5019 11.5687 16.5086 11.5756 16.513H11.5885L12.1671 16.603C12.1719 16.6036 12.1765 16.6055 12.1803 16.6085C12.1841 16.6116 12.1869 16.6156 12.1885 16.6202C12.1905 16.6251 12.1912 16.6305 12.1904 16.6358C12.1897 16.641 12.1875 16.646 12.1842 16.6502C12.0814 16.7659 11.9528 16.8302 11.7985 16.8473C11.7902 16.8472 11.7819 16.849 11.7744 16.8527C11.767 16.8565 11.7605 16.862 11.7556 16.8688C11.7521 16.8753 11.7499 16.8824 11.7492 16.8898C11.7485 16.8971 11.7492 16.9045 11.7514 16.9116V16.9245C11.7534 16.9328 11.7585 16.9401 11.7656 16.9448C11.7728 16.9496 11.7815 16.9515 11.7899 16.9502C11.9298 16.9468 12.065 16.8988 12.1756 16.813C12.1885 17.0402 12.1028 17.2116 11.9271 17.3273C11.7985 17.413 11.6614 17.4945 11.5242 17.5716ZM14.8585 17.5716H14.1214L13.3328 17.1173L13.3242 17.1002L13.3756 16.8559C13.3756 16.8473 13.3799 16.8473 13.3885 16.8516C13.5171 16.933 13.6499 16.9716 13.7999 16.9716C13.8214 16.9716 13.8342 16.963 13.8342 16.9416V16.9288C13.8385 16.8988 13.8256 16.8816 13.7914 16.8773C13.6328 16.8602 13.3456 16.783 13.3714 16.5945C13.3714 16.5816 13.3799 16.573 13.3928 16.573L13.9071 16.4445C13.9156 16.4445 13.9242 16.4359 13.9285 16.4273C13.932 16.4208 13.9335 16.4133 13.9328 16.4059V16.3845C13.9328 16.3502 13.9114 16.3373 13.8771 16.3416L13.3628 16.4702C13.3565 16.4721 13.3497 16.4719 13.3435 16.4696C13.3373 16.4673 13.332 16.463 13.3285 16.4573L13.2942 16.393C13.2899 16.3759 13.2942 16.3673 13.3028 16.3588C13.5214 16.2173 13.7442 16.0845 13.9671 15.9559C14.2049 15.7945 14.4906 15.7189 14.7771 15.7416C14.9485 15.7545 15.0642 15.8616 15.0728 16.0416C15.0985 16.5559 15.0299 17.0702 14.8585 17.5716Z" fill="#ACD7FB"/>
<path d="M14.6399 16.1829C14.7256 16.1829 14.7942 16.11 14.7942 16.0243C14.7942 15.9386 14.7256 15.8657 14.6399 15.8657C14.5542 15.8657 14.4856 15.9386 14.4856 16.0243C14.4856 16.11 14.5585 16.1829 14.6399 16.1829ZM10.8042 16.26C10.8899 16.26 10.9585 16.1872 10.9585 16.1014C10.9585 16.0157 10.8899 15.9429 10.8042 15.9429C10.7185 15.9429 10.6499 16.0114 10.6499 16.1014C10.6499 16.1872 10.7185 16.26 10.8042 16.26ZM11.4299 16.2857C11.5156 16.2857 11.5885 16.2172 11.5885 16.1272C11.5885 16.0414 11.5156 15.9686 11.4299 15.9686C11.3442 15.9686 11.2756 16.0414 11.2756 16.1272C11.2756 16.2129 11.3442 16.29 11.4299 16.29V16.2857ZM14.1728 16.4443C14.2585 16.4443 14.327 16.3757 14.327 16.29C14.327 16.2043 14.2585 16.1314 14.1728 16.1314C14.087 16.1314 14.0185 16.2 14.0185 16.29C14.0185 16.3757 14.087 16.4443 14.1728 16.4443Z" fill="white"/>
<path d="M12.9685 16.2428C13.1442 16.2857 13.2513 16.4571 13.2685 16.6371C13.2685 16.65 13.2685 16.6585 13.2556 16.6671C12.9856 16.8728 12.6427 16.8385 12.3299 16.7528C12.3162 16.7502 12.3039 16.7426 12.2956 16.7314C12.2885 16.7199 12.2855 16.7063 12.287 16.6928C12.287 16.5985 12.2785 16.4271 12.3642 16.3585C12.5356 16.23 12.7756 16.1957 12.9685 16.2428Z" fill="#ACD7FB"/>
<path d="M13.1015 16.6542C13.1786 16.607 13.2 16.5085 13.1572 16.4399C13.1143 16.367 13.0158 16.3542 12.9429 16.397C12.87 16.4485 12.8443 16.5428 12.8915 16.6113C12.9343 16.6842 13.0286 16.7013 13.1058 16.6542H13.1015ZM12.5315 16.7142C12.6172 16.7142 12.6815 16.6413 12.6815 16.5556C12.6815 16.4699 12.6129 16.397 12.5315 16.397C12.4458 16.397 12.3772 16.4699 12.3772 16.5556C12.3772 16.6413 12.4458 16.7099 12.5315 16.7099V16.7142ZM11.1986 16.8213C11.2843 16.8213 11.3529 16.7528 11.3529 16.6628C11.3529 16.577 11.2843 16.5042 11.1986 16.5042C11.1129 16.5042 11.04 16.577 11.04 16.6628C11.04 16.7485 11.1129 16.8213 11.1986 16.8213ZM14.5629 16.877C14.6486 16.877 14.7215 16.8042 14.7215 16.7185C14.7215 16.6328 14.6486 16.5599 14.5629 16.5599C14.4772 16.5599 14.4086 16.6285 14.4086 16.7185C14.4086 16.8042 14.4772 16.877 14.5629 16.877ZM13.95 16.9242C13.9758 17.0099 14.0615 17.057 14.1386 17.0313C14.22 17.0099 14.2629 16.9199 14.2372 16.8342C14.2115 16.7485 14.1258 16.697 14.0486 16.7228C13.9672 16.7485 13.9243 16.8385 13.95 16.9242Z" fill="white"/>
<path d="M12.7886 16.9283C12.6943 16.9712 12.6515 17.0355 12.66 17.1126C12.6729 17.2498 12.8143 17.2369 12.9043 17.2112C12.9098 17.2095 12.9149 17.2068 12.9194 17.2031C12.9238 17.1994 12.9274 17.1949 12.93 17.1898C12.9986 17.0483 12.9643 16.9626 12.8229 16.9283C12.9815 16.9198 13.11 16.8855 13.2086 16.8169C13.2686 16.7783 13.2943 16.7955 13.2729 16.8683L13.2386 17.0098C13.2303 17.0463 13.2141 17.0806 13.1911 17.1102C13.1682 17.1398 13.1391 17.164 13.1058 17.1812C12.9768 17.2594 12.8267 17.2956 12.6762 17.2848C12.5258 17.2741 12.3823 17.2169 12.2658 17.1212C12.2486 17.1083 12.2443 17.0912 12.2486 17.0698C12.27 17.0055 12.2829 16.9412 12.2786 16.8683C12.2786 16.8555 12.2829 16.8469 12.3 16.8512C12.45 16.894 12.6129 16.924 12.7886 16.9283Z" fill="#ACD7FB"/>
<path d="M10.6455 17.1984C10.7312 17.1984 10.8041 17.1298 10.8041 17.0398C10.8041 16.9498 10.7355 16.877 10.6455 16.877C10.5598 16.877 10.4912 16.9498 10.4912 17.0398C10.4912 17.1255 10.5598 17.1984 10.6455 17.1984ZM12.7884 16.9284C12.7938 16.9307 12.7996 16.932 12.8055 16.932C12.8114 16.932 12.8172 16.9307 12.8226 16.9284C12.9641 16.9627 12.9984 17.0484 12.9298 17.1898C12.9272 17.1949 12.9235 17.1995 12.9191 17.2031C12.9147 17.2068 12.9096 17.2096 12.9041 17.2112C12.8184 17.237 12.6726 17.2498 12.6598 17.1127C12.6512 17.0355 12.6941 16.9712 12.7884 16.9284ZM11.5112 17.357C11.5969 17.357 11.6655 17.2884 11.6655 17.1984C11.6655 17.1127 11.5969 17.0398 11.5112 17.0398C11.4255 17.0398 11.3569 17.1127 11.3569 17.1984C11.3569 17.2841 11.4255 17.357 11.5112 17.357ZM14.5326 17.507C14.6184 17.5241 14.7041 17.4727 14.7169 17.387C14.7245 17.3461 14.7157 17.3039 14.6925 17.2694C14.6692 17.2349 14.6334 17.211 14.5926 17.2027C14.5726 17.1983 14.552 17.1979 14.5319 17.2016C14.5117 17.2053 14.4925 17.2129 14.4754 17.2241C14.4582 17.2352 14.4435 17.2497 14.432 17.2666C14.4204 17.2836 14.4124 17.3026 14.4084 17.3227C14.3912 17.4084 14.4512 17.4855 14.5369 17.507H14.5326Z" fill="white"/>
<path d="M13.8685 17.5716H11.8285C11.812 17.5712 11.7959 17.5668 11.7814 17.5588L11.7771 17.5502C11.7762 17.5472 11.7761 17.5441 11.7769 17.541C11.7776 17.538 11.7792 17.5353 11.7814 17.5331C11.9314 17.4473 12.0685 17.3445 12.1885 17.2202C12.1971 17.2116 12.2057 17.2116 12.2143 17.2202L12.3857 17.3059C12.6428 17.4431 13.0071 17.3916 13.2428 17.2116C13.2475 17.2074 13.2536 17.2051 13.26 17.2051C13.2663 17.2051 13.2724 17.2074 13.2771 17.2116C13.4743 17.3102 13.6757 17.4302 13.8685 17.5716Z" fill="#0645FF"/>
</g>
<defs>
<clipPath id="clip0_31_11523">
<rect width="24" height="24" fill="white"/>
</clipPath>
</defs>
</svg>
