<svg width="24" height="24" viewBox="0 0 24 24" fill="none" xmlns="http://www.w3.org/2000/svg">
<g clip-path="url(#clip0_31_11970)">
<path d="M0 0H24V24H0V0Z" fill="#EB2324"/>
<path d="M12.0986 4.71436C15.8701 4.71436 19.2858 8.20721 19.2858 11.9486C19.2858 17.5844 14.8372 19.2858 13.8858 19.2858C12.6344 19.2858 12.4286 17.7215 12.4286 17.0786C12.4286 16.4358 14.0015 14.1429 15.6772 14.1429C16.4058 14.1429 16.4444 14.3786 16.7144 14.5715C17.0186 14.1515 17.1344 13.4572 17.1429 12.6644C17.1815 9.84864 14.6144 8.21578 12.0858 8.14293H11.9144C9.4115 8.14293 6.8315 9.96007 6.85721 12.6644C6.86578 13.6201 7.07578 14.4515 7.29436 14.5715C7.5515 14.3915 7.5815 14.1429 8.32293 14.1429C9.99864 14.1429 11.5715 16.4358 11.5715 17.0786C11.5715 17.7215 11.3658 19.2858 10.1144 19.2858C9.16293 19.2858 4.71436 17.5844 4.71436 11.9486C4.71436 8.22007 8.12578 4.71436 11.8886 4.71436H12.0986Z" fill="#F0F3FA"/>
</g>
<defs>
<clipPath id="clip0_31_11970">
<rect width="24" height="24" fill="white"/>
</clipPath>
</defs>
</svg>
