<svg width="24" height="24" viewBox="0 0 24 24" fill="none" xmlns="http://www.w3.org/2000/svg">
<g clip-path="url(#clip0_31_12984)">
<path d="M0 0H24V24H0V0Z" fill="#F0F3FA"/>
<path d="M12 12.0002L5.14282 8.14307V15.8574L12 19.9288V12.0002Z" fill="url(#paint0_linear_31_12984)"/>
<path d="M12 12.0002L18.8571 8.14307V15.8574L12.0043 19.9288L12 12.0002Z" fill="url(#paint1_linear_31_12984)"/>
<path d="M12.0428 4.07129L5.14282 8.14272L12 11.9999L18.8571 8.14272L12.0428 4.07129Z" fill="url(#paint2_linear_31_12984)"/>
<path d="M6.85718 14.9784V6.6041L8.57146 5.7041V13.9284L12 15.857L17.1429 12.857V14.9998L12 17.9698L6.85718 14.9784Z" fill="#F0F3FA"/>
</g>
<defs>
<linearGradient id="paint0_linear_31_12984" x1="5.60997" y1="8.82021" x2="9.92996" y2="19.3845" gradientUnits="userSpaceOnUse">
<stop stop-color="#5C93F7"/>
<stop offset="1" stop-color="#1159DF"/>
</linearGradient>
<linearGradient id="paint1_linear_31_12984" x1="18.0857" y1="8.40021" x2="14.1171" y2="19.9331" gradientUnits="userSpaceOnUse">
<stop stop-color="#084BCE"/>
<stop offset="1" stop-color="#09166A"/>
</linearGradient>
<linearGradient id="paint2_linear_31_12984" x1="12.0043" y1="4.07129" x2="12.0043" y2="11.9913" gradientUnits="userSpaceOnUse">
<stop stop-color="#6695FE"/>
<stop offset="1" stop-color="#0B57E0"/>
</linearGradient>
<clipPath id="clip0_31_12984">
<rect width="24" height="24" fill="white"/>
</clipPath>
</defs>
</svg>
