<svg width="24" height="24" viewBox="0 0 24 24" fill="none" xmlns="http://www.w3.org/2000/svg">
<g clip-path="url(#clip0_31_13053)">
<path d="M0 0H24V24H0V0Z" fill="url(#paint0_linear_31_13053)"/>
<path d="M7.8098 8.68608C7.88599 8.58393 7.98499 8.50098 8.0989 8.44383C8.21282 8.38669 8.3385 8.35693 8.46594 8.35693C8.59338 8.35693 8.71906 8.38669 8.83298 8.44383C8.94689 8.50098 9.04589 8.58393 9.12208 8.68608L13.3414 14.3539C13.7095 14.8481 13.4112 15.5325 12.8369 15.6367C12.7379 15.6547 12.6372 15.6319 12.5429 15.5955L10.2347 14.7062C9.09626 14.2678 7.83562 14.2678 6.69723 14.7062L4.38894 15.5955C4.29465 15.6315 4.19394 15.6547 4.09451 15.6367C3.52023 15.5329 3.22237 14.8481 3.59051 14.3539L7.8098 8.68608Z" fill="#C4C4C4"/>
<path d="M7.8098 8.68608C7.88599 8.58393 7.98499 8.50098 8.0989 8.44383C8.21282 8.38669 8.3385 8.35693 8.46594 8.35693C8.59338 8.35693 8.71906 8.38669 8.83298 8.44383C8.94689 8.50098 9.04589 8.58393 9.12208 8.68608L13.3414 14.3539C13.7095 14.8481 13.4112 15.5325 12.8369 15.6367C12.7379 15.6547 12.6372 15.6319 12.5429 15.5955L10.2347 14.7062C9.09626 14.2678 7.83562 14.2678 6.69723 14.7062L4.38894 15.5955C4.29465 15.6315 4.19394 15.6547 4.09451 15.6367C3.52023 15.5329 3.22237 14.8481 3.59051 14.3539L7.8098 8.68608Z" fill="url(#paint1_linear_31_13053)"/>
<path fill-rule="evenodd" clip-rule="evenodd" d="M13.1502 14.0971L13.3414 14.3538C13.7095 14.8479 13.4112 15.5324 12.837 15.6365C12.7384 15.6545 12.6372 15.6318 12.543 15.5954L10.2347 14.7061C9.22869 14.3188 8.1234 14.2724 7.08852 14.5741L7.06152 14.5612C8.71838 13.9355 12.216 12.9639 13.0247 13.9518C13.0692 14.0058 13.1108 14.0542 13.1502 14.0971Z" fill="url(#paint2_linear_31_13053)"/>
<path d="M14.8778 15.3143C14.954 15.4164 15.053 15.4994 15.1669 15.5565C15.2808 15.6137 15.4065 15.6434 15.534 15.6434C15.6614 15.6434 15.7871 15.6137 15.901 15.5565C16.0149 15.4994 16.1139 15.4164 16.1901 15.3143L20.4094 9.64643C20.7775 9.15229 20.4792 8.46786 19.9054 8.36372C19.806 8.34572 19.7052 8.36843 19.611 8.40486L17.3027 9.29415C16.1643 9.73258 14.9036 9.73258 13.7652 9.29415L11.457 8.40486C11.3627 8.36843 11.262 8.34572 11.163 8.36372C10.5887 8.46743 10.2904 9.15229 10.6585 9.64643L14.8778 15.3143Z" fill="url(#paint3_linear_31_13053)"/>
<path fill-rule="evenodd" clip-rule="evenodd" d="M20.2184 9.90315L20.4095 9.64643C20.7776 9.15229 20.4794 8.46786 19.9055 8.36372C19.8061 8.34572 19.7054 8.36843 19.6111 8.40486L17.3028 9.29415C16.2968 9.6815 15.1915 9.72787 14.1566 9.42615L14.1296 9.43901C15.7865 10.0647 19.2841 11.0363 20.0928 10.0484C20.1374 9.99443 20.1789 9.94601 20.2184 9.90315Z" fill="url(#paint4_linear_31_13053)"/>
</g>
<defs>
<linearGradient id="paint0_linear_31_13053" x1="20.4021" y1="4.65728" x2="-0.439715" y2="20.5873" gradientUnits="userSpaceOnUse">
<stop stop-color="#567FE9"/>
<stop offset="1" stop-color="#293F78"/>
</linearGradient>
<linearGradient id="paint1_linear_31_13053" x1="8.46594" y1="8.35737" x2="8.46594" y2="15.6431" gradientUnits="userSpaceOnUse">
<stop offset="0.146" stop-color="#283DA8"/>
<stop offset="0.615" stop-color="#4196F9"/>
</linearGradient>
<linearGradient id="paint2_linear_31_13053" x1="10.2822" y1="13.5292" x2="10.2822" y2="15.6429" gradientUnits="userSpaceOnUse">
<stop stop-color="#283EAA"/>
<stop offset="0.776" stop-color="#4171F9"/>
</linearGradient>
<linearGradient id="paint3_linear_31_13053" x1="15.534" y1="15.643" x2="15.534" y2="8.35729" gradientUnits="userSpaceOnUse">
<stop stop-color="#DB9D16"/>
<stop offset="1" stop-color="#E2DA20"/>
</linearGradient>
<linearGradient id="paint4_linear_31_13053" x1="17.3504" y1="10.471" x2="17.3504" y2="8.35729" gradientUnits="userSpaceOnUse">
<stop stop-color="#E0A500"/>
<stop offset="0.743" stop-color="#ECCD3C"/>
</linearGradient>
<clipPath id="clip0_31_13053">
<rect width="24" height="24" fill="white"/>
</clipPath>
</defs>
</svg>
