<svg width="24" height="24" viewBox="0 0 24 24" fill="none" xmlns="http://www.w3.org/2000/svg">
<g clip-path="url(#clip0_31_13473)">
<path d="M0 0H24V24H0V0Z" fill="url(#paint0_linear_31_13473)"/>
<path d="M19.3508 10.871L15.9539 6.12758C15.8332 5.9552 15.6727 5.81457 15.4859 5.7177C15.2991 5.62084 15.0916 5.5706 14.8812 5.5713C14.4518 5.5713 14.0613 5.77273 13.8081 6.12758L13.4378 6.64401L13.0688 6.12758C12.9481 5.95511 12.7874 5.81443 12.6006 5.71756C12.4137 5.62068 12.2061 5.5705 11.9956 5.5713C11.5662 5.5713 11.1762 5.77273 10.9229 6.12758L10.5578 6.63673L10.1922 6.12758C10.0714 5.95533 9.9108 5.8148 9.72403 5.71795C9.53726 5.62109 9.32987 5.57079 9.11948 5.5713C8.69177 5.5713 8.29962 5.77273 8.04634 6.12758L4.64777 10.871C4.41226 11.2003 4.28564 11.595 4.28564 11.9999C4.28564 12.4047 4.41226 12.7994 4.64777 13.1287L8.04634 17.8722C8.16734 18.0444 8.32812 18.1849 8.51501 18.2817C8.70191 18.3786 8.90941 18.4289 9.11991 18.4284C9.54934 18.4284 9.93977 18.227 10.1926 17.8722L11.9999 15.347L12.3723 15.8686C12.3741 15.8703 12.3758 15.8724 12.3758 15.8742L13.8072 17.8722C13.928 18.0442 14.0885 18.1845 14.2751 18.2814C14.4617 18.3782 14.6688 18.4286 14.8791 18.4284C15.3085 18.4284 15.6989 18.227 15.9518 17.8722L19.3486 13.1287C19.5856 12.8001 19.7133 12.4053 19.7136 12.0001C19.7139 11.595 19.5872 11.2 19.3508 10.871ZM11.4651 6.5313C11.525 6.44632 11.6044 6.37703 11.6968 6.32928C11.7892 6.28154 11.8917 6.25675 11.9956 6.25701C12.2078 6.25701 12.4023 6.35687 12.5271 6.5313L13.0225 7.22387L11.9995 8.65101L10.9726 7.21658L11.4646 6.53087L11.4651 6.5313ZM9.65048 17.4667C9.5905 17.5518 9.51087 17.6212 9.41835 17.6689C9.32584 17.7167 9.22316 17.7414 9.11905 17.741C9.01509 17.7413 8.91259 17.7165 8.82023 17.6687C8.72788 17.621 8.64838 17.5517 8.58848 17.4667L5.19163 12.7233C5.04045 12.512 4.95916 12.2588 4.95916 11.999C4.95916 11.7392 5.04045 11.486 5.19163 11.2747L8.58805 6.5313C8.64804 6.4462 8.72767 6.37684 8.82018 6.32909C8.9127 6.28134 9.01537 6.25661 9.11948 6.25701C9.3312 6.25701 9.52577 6.35687 9.65048 6.5313L10.1425 7.2183L7.52605 10.871C7.29037 11.2003 7.16379 11.5952 7.1641 12.0001C7.16441 12.4051 7.29159 12.7998 7.52777 13.1287L7.72748 13.403L9.4812 15.8669C9.70405 16.1797 10.0353 16.3726 10.4043 16.4142L9.65048 17.4667ZM11.0849 15.4653C10.9585 15.6397 10.7661 15.7396 10.5539 15.7396C10.4499 15.7399 10.3473 15.7152 10.2549 15.6674C10.1624 15.6197 10.0829 15.5503 10.0229 15.4653L8.21948 12.9307H8.21734L8.06605 12.7216C7.91488 12.5103 7.83359 12.2571 7.83359 11.9973C7.83359 11.7375 7.91488 11.4843 8.06605 11.273L10.5561 7.79644L11.5825 9.23087L10.4095 10.8689C10.1738 11.1983 10.0471 11.5931 10.0471 11.9982C10.0471 12.4032 10.1738 12.7981 10.4095 13.1274L11.5825 14.765L11.0853 15.4649L11.0849 15.4653ZM11.9999 9.81201L13.0478 11.2739C13.199 11.4852 13.2804 11.7385 13.2804 11.9984C13.2804 12.2582 13.199 12.5116 13.0478 12.7229L11.9995 14.1856L10.9516 12.7242C10.8003 12.5128 10.7189 12.2594 10.7189 11.9994C10.7189 11.7395 10.8003 11.4861 10.9516 11.2747L11.9995 9.8133L11.9999 9.81201ZM13.5895 13.1266C13.8251 12.7972 13.9518 12.4024 13.9518 11.9975C13.9518 11.5926 13.8251 11.1978 13.5895 10.8684L12.4169 9.23044L13.4399 7.8033L15.9243 11.2739C16.0758 11.4856 16.157 11.7395 16.1567 11.9998C16.1563 12.2601 16.0743 12.5137 15.9222 12.725L15.5249 13.2886L13.9778 15.4627C13.9178 15.5478 13.8383 15.6171 13.7458 15.6648C13.6534 15.7126 13.5508 15.7373 13.4468 15.737C13.2368 15.737 13.0461 15.6393 12.9196 15.4683L12.4152 14.7646L13.5895 13.1266ZM18.8095 12.7229L15.4126 17.4663C15.3526 17.5514 15.273 17.6208 15.1805 17.6685C15.088 17.7163 14.9853 17.741 14.8812 17.7406C14.7772 17.7408 14.6747 17.7161 14.5824 17.6683C14.49 17.6206 14.4105 17.5513 14.3506 17.4663L13.5963 16.4137C13.7804 16.3928 13.9579 16.3331 14.1171 16.2384C14.2763 16.1438 14.4136 16.0164 14.5199 15.8647L15.8493 13.9974L15.8511 13.9992L16.0683 13.6906L16.3233 13.3319L16.3216 13.3302L16.4661 13.1244C16.7016 12.7951 16.8282 12.4004 16.8282 11.9956C16.8282 11.5907 16.7016 11.196 16.4661 10.8667L13.8552 7.22387L14.3506 6.53087C14.4106 6.44583 14.4901 6.3765 14.5826 6.32876C14.675 6.28101 14.7776 6.25625 14.8816 6.25658C15.0938 6.25658 15.2879 6.35644 15.4131 6.53087L18.8095 11.2739C18.9608 11.4852 19.0421 11.7385 19.0421 11.9984C19.0421 12.2582 18.9608 12.5116 18.8095 12.7229Z" fill="url(#paint1_linear_31_13473)"/>
<path opacity="0.4" d="M10.5524 16.423C10.501 16.423 10.4508 16.4196 10.3994 16.4145L9.67041 17.4396L10.2211 17.836L11.554 15.9688C11.4296 16.1122 11.2758 16.227 11.1029 16.3054C10.93 16.3839 10.7422 16.424 10.5524 16.423Z" fill="url(#paint2_linear_31_13473)"/>
<path opacity="0.4" d="M13.443 16.4228C13.4944 16.4228 13.5446 16.4194 13.5964 16.4143L14.325 17.4394L13.7747 17.8358L12.4487 15.9707C12.5718 16.1136 12.7245 16.2281 12.8961 16.3062C13.0678 16.3844 13.2544 16.4239 13.443 16.4228Z" fill="url(#paint3_linear_31_13473)"/>
<path opacity="0.4" d="M11.5786 14.7617L12.0029 15.3523L11.3579 16.236L10.9336 15.6617L11.5786 14.7617Z" fill="url(#paint4_linear_31_13473)"/>
<path opacity="0.6" d="M10.1406 7.2168L10.5593 7.80223L9.04814 9.91851L8.521 9.49294L10.141 7.2168H10.1406Z" fill="url(#paint5_linear_31_13473)"/>
<path opacity="0.6" d="M11.5861 9.23139L11.9975 9.81639L11.0354 11.175L10.5078 10.7472L11.5861 9.23096V9.23139Z" fill="url(#paint6_linear_31_13473)"/>
<path opacity="0.6" d="M13.0228 7.22412L13.438 7.80569L12.4168 9.23112L12.0015 8.64955L13.0228 7.22412Z" fill="url(#paint7_linear_31_13473)"/>
</g>
<defs>
<linearGradient id="paint0_linear_31_13473" x1="4.46486" y1="4.16229" x2="29.2059" y2="32.5787" gradientUnits="userSpaceOnUse">
<stop stop-color="#1A1E21"/>
<stop offset="1" stop-color="#06060A"/>
</linearGradient>
<linearGradient id="paint1_linear_31_13473" x1="7.13305" y1="16.964" x2="17.0605" y2="7.23244" gradientUnits="userSpaceOnUse">
<stop stop-color="#FF8506"/>
<stop offset="0.581" stop-color="#FD3947"/>
<stop offset="1" stop-color="#FB0078"/>
</linearGradient>
<linearGradient id="paint2_linear_31_13473" x1="11.1323" y1="15.955" x2="9.96484" y2="17.5746" gradientUnits="userSpaceOnUse">
<stop stop-color="#78005B"/>
<stop offset="0.348" stop-color="#7A025A" stop-opacity="0.652"/>
<stop offset="0.51" stop-color="#820955" stop-opacity="0.49"/>
<stop offset="0.633" stop-color="#8E154E" stop-opacity="0.367"/>
<stop offset="0.737" stop-color="#A12643" stop-opacity="0.263"/>
<stop offset="0.828" stop-color="#B83C36" stop-opacity="0.172"/>
<stop offset="0.911" stop-color="#D65725" stop-opacity="0.089"/>
<stop offset="0.986" stop-color="#F87711" stop-opacity="0.014"/>
<stop offset="1" stop-color="#FF7E0D" stop-opacity="0"/>
</linearGradient>
<linearGradient id="paint3_linear_31_13473" x1="13.9102" y1="17.4741" x2="12.8113" y2="15.9244" gradientUnits="userSpaceOnUse">
<stop stop-color="#FF7E0D" stop-opacity="0"/>
<stop offset="0.009" stop-color="#F97811" stop-opacity="0.013"/>
<stop offset="0.065" stop-color="#D65825" stop-opacity="0.089"/>
<stop offset="0.127" stop-color="#B93D36" stop-opacity="0.173"/>
<stop offset="0.195" stop-color="#A12643" stop-opacity="0.266"/>
<stop offset="0.272" stop-color="#8F154E" stop-opacity="0.371"/>
<stop offset="0.363" stop-color="#820955" stop-opacity="0.495"/>
<stop offset="0.482" stop-color="#7A025A" stop-opacity="0.657"/>
<stop offset="0.734" stop-color="#78005B"/>
</linearGradient>
<linearGradient id="paint4_linear_31_13473" x1="11.1693" y1="15.9463" x2="12.0582" y2="14.6931" gradientUnits="userSpaceOnUse">
<stop stop-color="#FF7E0D" stop-opacity="0"/>
<stop offset="0.013" stop-color="#F97910" stop-opacity="0.019"/>
<stop offset="0.114" stop-color="#D25427" stop-opacity="0.166"/>
<stop offset="0.219" stop-color="#B1363A" stop-opacity="0.318"/>
<stop offset="0.326" stop-color="#981E48" stop-opacity="0.473"/>
<stop offset="0.438" stop-color="#860D53" stop-opacity="0.634"/>
<stop offset="0.555" stop-color="#7B0359" stop-opacity="0.805"/>
<stop offset="0.69" stop-color="#78005B"/>
</linearGradient>
<linearGradient id="paint5_linear_31_13473" x1="8.60457" y1="9.57823" x2="10.5687" y2="7.65308" gradientUnits="userSpaceOnUse">
<stop stop-color="#FF4630" stop-opacity="0"/>
<stop offset="0.572" stop-color="#B31F48" stop-opacity="0.572"/>
<stop offset="1" stop-color="#78005B"/>
</linearGradient>
<linearGradient id="paint6_linear_31_13473" x1="10.6411" y1="10.8848" x2="11.9495" y2="9.60253" gradientUnits="userSpaceOnUse">
<stop stop-color="#FF4630" stop-opacity="0"/>
<stop offset="0.572" stop-color="#B31F48" stop-opacity="0.572"/>
<stop offset="1" stop-color="#78005B"/>
</linearGradient>
<linearGradient id="paint7_linear_31_13473" x1="12.0769" y1="8.88312" x2="13.3892" y2="7.59655" gradientUnits="userSpaceOnUse">
<stop stop-color="#FF4630" stop-opacity="0"/>
<stop offset="0.572" stop-color="#B31F48" stop-opacity="0.572"/>
<stop offset="1" stop-color="#78005B"/>
</linearGradient>
<clipPath id="clip0_31_13473">
<rect width="24" height="24" fill="white"/>
</clipPath>
</defs>
</svg>
