<svg width="24" height="24" viewBox="0 0 24 24" fill="none" xmlns="http://www.w3.org/2000/svg">
<g clip-path="url(#clip0_31_13978)">
<path d="M0 0H24V24H0V0Z" fill="url(#paint0_linear_31_13978)"/>
<path d="M11.3486 17.897C11.3486 17.7599 11.0614 17.6742 10.92 17.6484C10.2214 17.6484 10.3457 18.0299 10.3457 18.0856C10.2617 18.2598 10.2066 18.4465 10.1828 18.6384C9.58713 18.6384 9.23999 19.0756 9.23999 19.4399C9.23999 19.7999 9.56571 20.0656 10.4057 20.0656C11.2457 20.0656 11.49 19.667 11.49 19.4013C11.49 18.9599 11.3528 18.3384 11.2843 18.0856C11.3057 18.0684 11.3486 17.9999 11.3486 17.897Z" fill="url(#paint1_linear_31_13978)"/>
<path d="M10.9287 17.5713C11.0101 17.5841 11.1258 17.6141 11.2201 17.6613C11.2715 17.6827 11.3187 17.7127 11.3573 17.747C11.4001 17.7856 11.4301 17.8327 11.4301 17.897C11.4312 17.9694 11.4119 18.0407 11.3744 18.1027C11.443 18.377 11.5715 18.9684 11.5715 19.4013C11.5715 19.5556 11.4987 19.7441 11.3144 19.8899C11.1301 20.0399 10.8387 20.1427 10.4058 20.1427C9.97726 20.1427 9.66869 20.0741 9.46298 19.9499C9.25298 19.8256 9.15869 19.6456 9.15869 19.4356C9.15869 19.0499 9.51012 18.5999 10.1058 18.5656C10.1172 18.5077 10.1315 18.4505 10.1487 18.3941C10.1701 18.2913 10.213 18.1713 10.2601 18.0727V18.0599L10.2558 17.9956C10.2558 17.9441 10.2601 17.8756 10.2987 17.8113C10.3758 17.6699 10.5558 17.5713 10.9158 17.5713H10.9244H10.9287ZM10.3458 18.0856C10.2618 18.2598 10.2068 18.4465 10.183 18.6384C9.58726 18.6384 9.24012 19.0756 9.24012 19.4399C9.24012 19.7999 9.56583 20.0656 10.4058 20.0656C11.2458 20.0656 11.4901 19.667 11.4901 19.4013C11.4901 18.9599 11.353 18.3384 11.2844 18.0856C11.3058 18.0684 11.3487 17.9999 11.3487 17.897C11.3487 17.7599 11.0615 17.6741 10.9201 17.6484C10.2858 17.6484 10.3287 17.9613 10.3415 18.0599C10.3421 18.0684 10.3421 18.077 10.3415 18.0856H10.3458Z" fill="black"/>
<path d="M11.4857 19.44C11.28 19.6115 10.9157 19.7829 10.3243 19.7829C9.8057 19.7829 9.43285 19.5686 9.23999 19.4058V19.44C9.23999 19.8 9.56571 20.0658 10.4057 20.0658C11.2071 20.0658 11.4643 19.7015 11.49 19.44H11.4857Z" fill="url(#paint2_linear_31_13978)"/>
<path d="M13.5129 17.897C13.5129 17.7599 13.7958 17.6742 13.9415 17.6484C14.6358 17.6484 14.5115 18.0299 14.5115 18.0856C14.6143 18.2742 14.6743 18.5827 14.6743 18.6384C15.27 18.6384 15.6172 19.0756 15.6172 19.4399C15.6172 19.7999 15.2915 20.0656 14.4515 20.0656C13.6115 20.0656 13.3672 19.667 13.3672 19.4013C13.3672 18.9599 13.5043 18.3384 13.5729 18.0856C13.5515 18.0684 13.5129 17.9999 13.5129 17.897Z" fill="url(#paint3_linear_31_13978)"/>
<path d="M13.9285 17.5713C13.8471 17.5841 13.7314 17.6141 13.6371 17.6613C13.5871 17.6824 13.5408 17.7114 13.4999 17.747C13.4778 17.7654 13.4598 17.7882 13.4472 17.8141C13.4347 17.84 13.4278 17.8682 13.4271 17.897C13.4271 17.9827 13.4528 18.0556 13.4828 18.1027C13.3704 18.5272 13.3043 18.9626 13.2856 19.4013C13.2856 19.5556 13.3585 19.7441 13.5428 19.8899C13.7271 20.0399 14.0142 20.1427 14.4514 20.1427C14.8799 20.1427 15.1885 20.0741 15.3942 19.9499C15.6042 19.8256 15.6942 19.6456 15.6942 19.4356C15.6942 19.0499 15.3471 18.5999 14.7514 18.5656C14.74 18.5077 14.7257 18.4505 14.7085 18.3941C14.6821 18.2836 14.6448 18.1759 14.5971 18.0727V18.0599L14.6014 17.9956C14.6036 17.9314 14.5888 17.8679 14.5585 17.8113C14.4814 17.6699 14.3014 17.5713 13.9414 17.5713H13.9328H13.9285ZM14.5114 18.0856C14.6142 18.2741 14.6742 18.5827 14.6742 18.6384C15.2699 18.6384 15.6171 19.0756 15.6171 19.4399C15.6171 19.7999 15.2914 20.0656 14.4514 20.0656C13.6114 20.0656 13.3671 19.667 13.3671 19.4013C13.3671 18.9599 13.5042 18.3384 13.5728 18.0856C13.5514 18.0684 13.5085 17.9999 13.5085 17.897C13.5085 17.7599 13.7956 17.6741 13.9371 17.6484C14.5714 17.6484 14.5285 17.9613 14.5156 18.0599C14.5151 18.0684 14.5151 18.077 14.5156 18.0856H14.5114Z" fill="black"/>
<path d="M13.3713 19.44C13.5771 19.6115 13.9413 19.7829 14.5328 19.7829C15.0513 19.7829 15.4242 19.5686 15.6171 19.4058V19.44C15.6171 19.8 15.2913 20.0658 14.4513 20.0658C13.6499 20.0658 13.3928 19.7015 13.3713 19.44Z" fill="url(#paint4_linear_31_13978)"/>
<path d="M10.5515 17.64C10.4058 17.2715 10.4101 16.1615 10.4315 15.6558L10.9158 15.8143C10.8686 15.8915 10.7743 16.1143 10.7743 16.4358C10.7743 16.8386 10.9329 17.46 10.9543 17.6186C10.9758 17.7772 10.8558 17.7772 10.7743 17.7772C10.6886 17.7772 10.6115 17.7172 10.5515 17.64Z" fill="url(#paint5_linear_31_13978)"/>
<path d="M10.4143 15.6299L10.9457 15.8013L10.9329 15.827C10.89 15.8956 10.7914 16.1185 10.7914 16.4356C10.7914 16.637 10.8343 16.8899 10.8772 17.1127C10.9074 17.2804 10.9402 17.4476 10.9757 17.6142C10.98 17.657 10.9757 17.6913 10.9629 17.7213C10.9525 17.7451 10.9344 17.7648 10.9114 17.777C10.868 17.7948 10.8211 17.8021 10.7743 17.7985C10.6843 17.7985 10.5986 17.7342 10.5343 17.6527V17.6485C10.4899 17.518 10.4611 17.3828 10.4486 17.2456C10.4272 17.0827 10.4143 16.8942 10.4057 16.7013C10.3929 16.3156 10.4014 15.9085 10.41 15.6556V15.6299H10.4143ZM10.4486 15.6813C10.4347 16.2017 10.4491 16.7225 10.4914 17.2413C10.5086 17.4042 10.5343 17.5413 10.5686 17.627C10.6286 17.7042 10.7014 17.7556 10.7743 17.7556C10.8172 17.7556 10.86 17.7556 10.8943 17.7427C10.9106 17.7331 10.9228 17.7179 10.9286 17.6999C10.9372 17.687 10.9414 17.657 10.9329 17.6227C10.9329 17.5799 10.9157 17.5156 10.8986 17.4256L10.89 17.3913L10.8386 17.1213C10.7957 16.8942 10.7529 16.6413 10.7529 16.4356C10.7529 16.1356 10.8343 15.9213 10.8814 15.827L10.4529 15.6813H10.4486Z" fill="black"/>
<path d="M7.92864 13.3285C8.21578 13.3285 8.47721 12.9042 8.57149 12.6899C8.72578 12.7028 9.00864 12.7928 8.89721 13.0328C8.75578 13.3328 8.45149 13.6757 8.02721 13.6757C7.68864 13.6757 7.38864 13.4999 7.28149 13.4142L7.40149 13.0285C7.45721 13.1314 7.63721 13.3285 7.92864 13.3285Z" fill="url(#paint6_linear_31_13978)"/>
<path d="M8.55847 12.6685H8.57562C8.65276 12.677 8.76847 12.7027 8.84561 12.7585C8.88847 12.7885 8.91847 12.827 8.93133 12.8742C8.94847 12.917 8.94419 12.977 8.91419 13.0413C8.77276 13.3413 8.46419 13.6927 8.02704 13.6927C7.75282 13.6846 7.48783 13.5918 7.26847 13.427L7.25562 13.4185L7.39704 12.9813L7.41847 13.0242C7.4699 13.1185 7.64562 13.3113 7.92847 13.3113C8.06133 13.3113 8.19419 13.2127 8.3099 13.0799C8.42133 12.947 8.50704 12.7885 8.55419 12.6813L8.55847 12.6685ZM8.58419 12.7113C8.53704 12.8185 8.45133 12.9727 8.3399 13.1056C8.22419 13.2385 8.08276 13.3542 7.92847 13.3542C7.65847 13.3542 7.48276 13.187 7.4099 13.0799L7.30276 13.4056C7.41847 13.4913 7.70562 13.6542 8.03133 13.6542C8.43847 13.6542 8.73847 13.3199 8.87561 13.0242C8.90561 12.9685 8.90562 12.9213 8.89704 12.8827C8.88333 12.8455 8.85772 12.8139 8.82419 12.7927C8.75178 12.7469 8.66951 12.719 8.58419 12.7113Z" fill="black"/>
<path d="M7.48295 12.9729C7.48295 13.1015 7.53866 13.2258 7.56438 13.2729C7.49581 13.2601 7.35866 13.2686 7.34152 13.4144C7.32009 13.5944 7.22152 13.6286 7.08009 13.6286C6.93866 13.6286 6.87866 13.3929 6.87866 13.0715C6.87866 12.8144 7.13581 12.7286 7.26438 12.7115C7.23866 12.5701 7.40152 12.3301 7.48295 12.3301C7.56438 12.3301 7.68438 12.3729 7.68438 12.5101C7.68438 12.6515 7.48295 12.8101 7.48295 12.9729Z" fill="#B9BDC0"/>
<path d="M7.43993 12.3257C7.45248 12.3164 7.46725 12.3105 7.48279 12.3086C7.52564 12.3086 7.58136 12.3215 7.62422 12.3515C7.67136 12.3815 7.70564 12.4372 7.70564 12.51C7.70564 12.5529 7.6885 12.5915 7.67136 12.63L7.60707 12.7372L7.60279 12.7457C7.57707 12.7843 7.55136 12.8229 7.53422 12.8615C7.51604 12.8959 7.50579 12.934 7.50422 12.9729C7.50422 13.0972 7.55565 13.2172 7.58136 13.26L7.60279 13.3029L7.55993 13.29C7.51952 13.2827 7.47787 13.2872 7.43993 13.3029C7.40136 13.3157 7.36707 13.35 7.36279 13.4143C7.34993 13.5086 7.31993 13.5686 7.2685 13.6072C7.21164 13.6407 7.14572 13.6557 7.07993 13.65C6.99422 13.65 6.9385 13.5815 6.9085 13.4786C6.87116 13.3462 6.85383 13.209 6.85707 13.0715C6.85694 13.0145 6.87097 12.9585 6.89791 12.9084C6.92484 12.8582 6.96383 12.8156 7.01136 12.7843C7.08422 12.7286 7.17422 12.7029 7.2385 12.6943C7.2385 12.66 7.24279 12.6215 7.25565 12.5872C7.28451 12.5002 7.33288 12.4211 7.39707 12.3557C7.41013 12.3441 7.42452 12.334 7.43993 12.3257ZM7.29422 12.6C7.2824 12.6344 7.27802 12.6709 7.28136 12.7072V12.7286H7.26422C7.18126 12.738 7.10183 12.7674 7.03279 12.8143C6.98996 12.842 6.95489 12.8801 6.93089 12.9251C6.9069 12.9701 6.89477 13.0205 6.89564 13.0715C6.89564 13.23 6.91279 13.3715 6.94279 13.4657C6.97707 13.5643 7.02422 13.6115 7.07993 13.6115C7.1485 13.6115 7.20422 13.6029 7.24279 13.5729C7.28564 13.5472 7.31136 13.4957 7.31993 13.41C7.32193 13.378 7.33309 13.3473 7.35209 13.3214C7.37109 13.2956 7.39712 13.2758 7.42707 13.2643C7.45973 13.2513 7.49481 13.2454 7.52993 13.2472C7.49993 13.1872 7.46136 13.08 7.46136 12.9729C7.46136 12.93 7.4785 12.8872 7.49564 12.8443C7.51707 12.8015 7.5385 12.7586 7.5685 12.7243V12.7157L7.63707 12.6086C7.653 12.5781 7.66179 12.5444 7.66279 12.51C7.665 12.4852 7.66061 12.4602 7.65008 12.4377C7.63954 12.4151 7.62323 12.3957 7.60279 12.3815C7.56651 12.3601 7.52484 12.3497 7.48279 12.3515C7.4785 12.3515 7.46993 12.3515 7.46136 12.36C7.44895 12.3672 7.43744 12.3758 7.42707 12.3857C7.36854 12.4465 7.32458 12.5198 7.2985 12.6H7.29422Z" fill="black"/>
<path d="M15.0343 15.977C15.0343 16.5856 13.8343 16.6841 13.2343 16.6584C9.50149 16.6584 8.31006 12.6127 8.31006 10.8299C8.31006 9.40272 8.76863 8.22843 8.99577 7.82129H14.6272C14.8501 8.117 15.2958 9.02986 15.2958 10.3284C15.2958 11.9484 14.6272 13.9927 14.6272 14.5713C14.6272 15.1541 15.0343 15.4156 15.0343 15.977Z" fill="url(#paint7_linear_31_13978)"/>
<path d="M8.94847 7.74414H14.6699L14.6913 7.77414C14.927 8.08271 15.377 9.017 15.377 10.3284C15.377 11.147 15.2056 12.0727 15.0385 12.857L14.9185 13.4227C14.8756 13.5941 14.8413 13.7613 14.8113 13.9113C14.747 14.2113 14.7085 14.4384 14.7085 14.5756C14.7085 14.8456 14.8028 15.0384 14.9013 15.2484L14.9056 15.257C15.0085 15.4627 15.1113 15.6813 15.1113 15.977C15.1113 16.157 15.0213 16.3027 14.8842 16.4056C14.7322 16.5139 14.5604 16.5911 14.3785 16.6327C13.9928 16.7313 13.5385 16.7527 13.2342 16.7356C11.3313 16.7356 10.0799 15.707 9.30418 14.4513C8.64151 13.3564 8.27248 12.1091 8.23276 10.8299C8.23276 9.38557 8.69133 8.20271 8.92704 7.787L8.94847 7.74414ZM9.04276 7.90271C8.81561 8.33128 8.39133 9.46271 8.39133 10.8299C8.39133 11.7041 8.68704 13.1484 9.44133 14.3699C10.1956 15.587 11.4042 16.577 13.2342 16.577H13.2385C13.5342 16.5899 13.9756 16.5727 14.3399 16.4784C14.5199 16.4313 14.6785 16.367 14.7856 16.2813C14.8928 16.1956 14.9528 16.097 14.9528 15.977C14.9528 15.7199 14.8585 15.527 14.7599 15.317C14.6293 15.0909 14.5558 14.8364 14.5456 14.5756C14.5456 14.417 14.5885 14.1727 14.6528 13.877C14.7258 13.5247 14.803 13.1732 14.8842 12.8227C15.047 12.0384 15.2142 11.1299 15.2142 10.3284C15.2142 9.08986 14.807 8.21557 14.5885 7.90271H9.04276ZM7.04561 13.3327C6.9599 13.2984 6.89561 13.2213 6.86133 13.1613L6.89561 13.1399C6.92561 13.1956 6.98561 13.2684 7.05847 13.2984C7.09704 13.3156 7.13561 13.3199 7.17419 13.3156C7.2253 13.304 7.27165 13.2771 7.30704 13.2384L7.33704 13.2641C7.29554 13.3078 7.24171 13.3377 7.18276 13.3499C7.13636 13.358 7.08859 13.352 7.04561 13.3327ZM7.0499 13.5256C6.98557 13.5102 6.92733 13.4759 6.88276 13.427L6.91276 13.397C6.94276 13.4356 6.99847 13.4741 7.05418 13.4827C7.08418 13.4913 7.11419 13.4913 7.1399 13.4784C7.17567 13.4621 7.20558 13.4351 7.22561 13.4013L7.25561 13.4227C7.23298 13.4633 7.19863 13.4962 7.15704 13.517C7.12303 13.5307 7.08565 13.5337 7.0499 13.5256Z" fill="black"/>
<path d="M15.3772 14.2116C15.4543 14.083 15.4372 13.7059 15.4157 13.5344L15.6772 13.3716C15.6986 13.4273 15.7886 13.5859 15.9772 13.7916C16.1743 14.0016 16.1486 14.1602 16.1143 14.2116C16.1229 14.3273 16.0286 14.4044 15.9686 14.4344C15.93 14.5544 15.8272 14.6359 15.7586 14.6744C15.7072 14.8587 15.6257 14.9144 15.5957 14.9144C15.5572 14.9144 15.5186 14.893 15.5186 14.7944C15.5186 14.6959 15.6386 14.473 15.6386 14.2373C15.4372 14.653 15.1929 14.5759 15.1929 14.4944C15.1929 14.413 15.2786 14.3744 15.3772 14.2116Z" fill="#B9BDC0"/>
<path d="M15.6857 13.3413L15.6985 13.367C15.7157 13.4142 15.8014 13.5727 15.9985 13.7785C16.1871 13.9842 16.1742 14.1513 16.1357 14.2199C16.1357 14.3356 16.05 14.417 15.9857 14.447C15.9428 14.567 15.8485 14.6485 15.7757 14.687C15.7589 14.7554 15.7283 14.8196 15.6857 14.8756C15.6722 14.8921 15.6563 14.9066 15.6385 14.9185C15.6263 14.9284 15.6114 14.9344 15.5957 14.9356C15.5827 14.9361 15.5698 14.9337 15.5579 14.9285C15.5461 14.9233 15.5355 14.9155 15.5271 14.9056C15.5057 14.8842 15.4971 14.8456 15.4971 14.7942C15.5098 14.7366 15.5241 14.6795 15.54 14.6227L15.5571 14.5585C15.5785 14.4899 15.6 14.4085 15.6128 14.327C15.5228 14.4813 15.4242 14.5499 15.3471 14.5713C15.3074 14.583 15.2648 14.58 15.2271 14.5627C15.1971 14.5499 15.1714 14.5242 15.1714 14.4942C15.1714 14.447 15.1971 14.4085 15.2314 14.3699L15.2485 14.3485C15.2785 14.3142 15.3171 14.267 15.36 14.2027C15.3808 14.1627 15.3938 14.1191 15.3985 14.0742C15.4157 13.8946 15.4157 13.7138 15.3985 13.5342L15.3942 13.5213L15.69 13.3413H15.6857ZM15.7885 14.6313C15.8528 14.5885 15.9171 14.5199 15.9471 14.4256C15.9593 14.3852 15.9633 14.3428 15.9589 14.3009C15.9544 14.2589 15.9417 14.2183 15.9214 14.1813L15.96 14.1642C16.0028 14.2499 16.0114 14.3227 15.9985 14.3913C16.05 14.357 16.0971 14.297 16.0928 14.2156C16.0888 14.1693 16.0725 14.1249 16.0457 14.087L16.08 14.0613L16.1185 14.1385C16.1228 14.0656 16.1014 13.9499 15.9642 13.8042C15.7928 13.6199 15.7028 13.4699 15.6685 13.4013L15.4371 13.5427C15.4537 13.7209 15.4537 13.9003 15.4371 14.0785C15.4323 14.1293 15.4177 14.1788 15.3942 14.2242C15.3514 14.2927 15.3085 14.3399 15.2785 14.3742L15.2614 14.3956C15.2314 14.4385 15.2142 14.4599 15.2142 14.4942C15.2142 14.5027 15.2228 14.5156 15.2442 14.5285C15.2657 14.537 15.2957 14.5413 15.3342 14.5285C15.4114 14.5113 15.5185 14.4342 15.6214 14.2285L15.66 14.2327C15.66 14.357 15.6257 14.4727 15.5957 14.5756L15.5785 14.6356L15.5528 14.7042C15.5432 14.7333 15.5375 14.7636 15.5357 14.7942C15.5357 14.8413 15.5485 14.867 15.5571 14.8799C15.5657 14.8885 15.5785 14.8927 15.6 14.8927L15.6171 14.8842C15.6301 14.8744 15.6416 14.8629 15.6514 14.8499C15.6814 14.8156 15.7157 14.7599 15.7371 14.6699C15.7628 14.5842 15.78 14.4685 15.78 14.3142H15.8228C15.8228 14.4427 15.8057 14.5499 15.7885 14.6313Z" fill="black"/>
<path d="M14.3272 17.7001C14.4729 17.3315 14.4686 16.2215 14.4472 15.7158L13.9629 15.8744C14.01 15.9515 14.1043 16.1744 14.1043 16.4958C14.1043 16.8987 13.9457 17.5201 13.9243 17.6787C13.9029 17.8372 14.0272 17.8372 14.1043 17.8372C14.19 17.8372 14.2672 17.7772 14.3272 17.7001Z" fill="url(#paint8_linear_31_13978)"/>
<path d="M14.4685 15.6856L13.9328 15.8656L13.9456 15.887C13.9885 15.9556 14.0871 16.1784 14.0871 16.4956C14.0871 16.697 14.0442 16.9499 14.0013 17.1727L13.9499 17.4427C13.9348 17.5211 13.9206 17.5997 13.9071 17.6784C13.8985 17.7213 13.9028 17.7513 13.9156 17.7813C13.9242 17.807 13.9456 17.8241 13.9671 17.837C14.0099 17.8584 14.0656 17.8584 14.1042 17.8584C14.1942 17.8584 14.2799 17.7941 14.3442 17.7127V17.7041C14.3871 17.6099 14.4128 17.4727 14.4299 17.3056C14.4513 17.1427 14.4642 16.9541 14.4728 16.7613C14.4856 16.3756 14.4771 15.9684 14.4728 15.7156L14.4685 15.6899V15.6856ZM14.4299 15.7413C14.4437 16.2617 14.4294 16.7824 14.3871 17.3013C14.3699 17.4641 14.3442 17.6013 14.3099 17.687C14.2499 17.7641 14.1771 17.8156 14.1042 17.8156C14.0613 17.8156 14.0185 17.8156 13.9885 17.8027C13.9706 17.794 13.9567 17.7786 13.9499 17.7599C13.9421 17.7349 13.9407 17.7084 13.9456 17.6827C13.9571 17.6051 13.9713 17.5279 13.9885 17.4513L14.0442 17.1813C14.0871 16.9584 14.1299 16.7013 14.1299 16.4956C14.1299 16.1956 14.0442 15.9813 13.9928 15.887L14.4299 15.7413ZM7.00276 12.9641C6.98651 12.9143 6.97784 12.8623 6.97705 12.8099H7.01991C7.01991 12.8484 7.02419 12.8956 7.04134 12.9513C7.05848 12.9984 7.07991 13.0456 7.11419 13.0799C7.18276 13.0199 7.24277 13.0027 7.29848 13.0156C7.35848 13.0284 7.39705 13.067 7.41848 13.1013L7.38419 13.1227C7.36294 13.0884 7.32909 13.0638 7.28991 13.0541C7.25562 13.0456 7.20419 13.0541 7.14419 13.1099C7.16562 13.1313 7.19134 13.1441 7.22562 13.1527L7.21705 13.1913C7.17374 13.1798 7.13398 13.1577 7.10134 13.127C7.05524 13.0819 7.02133 13.0259 7.00276 12.9641ZM11.9656 12.3084C11.2345 12.2668 10.5288 12.0251 9.92562 11.6099C10.1656 12.2527 10.8856 13.5341 11.8242 13.5341C12.7585 13.5341 13.3756 12.2484 13.5813 11.6699C13.4056 11.8627 12.8056 12.3127 11.9656 12.3127V12.3084Z" fill="black"/>
<path d="M9.8186 11.4941L9.96003 11.5584C10.1229 11.6741 10.4186 11.8456 10.7743 11.9913C11.1343 12.137 11.5543 12.2484 11.9657 12.2484C12.6686 12.2484 13.1229 11.9313 13.6672 11.5799C13.5686 11.8713 13.3243 12.4541 13.0243 12.8527C12.7243 13.2513 12.3215 13.5941 11.8243 13.5941C11.3272 13.5941 10.8986 13.2513 10.5686 12.8484C10.2755 12.4804 10.04 12.07 9.87003 11.6313L9.8186 11.4941ZM10.0543 11.7641C10.1829 12.0641 10.3972 12.4499 10.6629 12.7713C10.9843 13.1699 11.3829 13.4741 11.82 13.4741C12.2615 13.4741 12.6343 13.1741 12.93 12.7841C13.1349 12.5045 13.3048 12.2008 13.4357 11.8799C13.011 12.1965 12.4955 12.3678 11.9657 12.3684C11.5372 12.3684 11.1 12.2527 10.7315 12.1027C10.4615 11.9956 10.2257 11.8713 10.0543 11.7641Z" fill="black"/>
<path d="M11.8243 13.4745C11.4814 13.4745 11.1986 13.2987 11.0957 13.213C11.1214 13.1187 11.2243 12.9302 11.4171 12.9302C11.6143 12.9302 11.7428 13.0802 11.7814 13.153C11.8071 13.0673 11.9271 12.8916 12.1843 12.8916C12.4414 12.8916 12.63 12.9987 12.69 13.0502C12.5443 13.1916 12.1628 13.4745 11.8243 13.4745Z" fill="#C92327"/>
<path d="M11.9658 12.3086C12.4543 12.3086 12.8486 12.18 13.1272 12.03C13.14 12.0428 13.14 12.0557 13.1358 12.0728C13.0158 12.33 12.69 12.75 11.8415 12.75C10.7615 12.75 10.41 12.1628 10.3672 11.8843C10.8643 12.1414 11.3915 12.3128 11.9658 12.3128V12.3086Z" fill="#F1F5FF"/>
<path d="M14.8714 11.9316C14.7428 11.9316 14.5714 12.1159 14.5071 12.2102C14.9443 12.5549 15.256 13.0338 15.3942 13.5731C15.4714 13.5388 15.6299 13.4531 15.6771 13.3716C15.4971 12.5702 15.0342 11.9316 14.8714 11.9316Z" fill="url(#paint9_linear_31_13978)"/>
<path d="M14.5371 12.2059C14.9631 12.5475 15.2693 13.0158 15.4114 13.5431L15.5357 13.4745C15.5871 13.4402 15.6342 13.4016 15.6556 13.3674C15.5734 13.0124 15.436 12.6726 15.2485 12.3602C15.1714 12.2316 15.0942 12.1288 15.0257 12.0602C14.9975 12.0282 14.9659 11.9995 14.9314 11.9745C14.9057 11.9574 14.8885 11.9488 14.8714 11.9488C14.8379 11.9506 14.8054 11.9609 14.7771 11.9788L14.6785 12.0516C14.6266 12.0985 14.5793 12.1502 14.5371 12.2059ZM14.7599 11.9445C14.7937 11.9241 14.832 11.9123 14.8714 11.9102C14.8971 11.9102 14.9271 11.9231 14.9571 11.9445C14.9871 11.9616 15.0171 11.9916 15.0557 12.0302C15.1242 12.1031 15.2056 12.2102 15.2828 12.3388C15.4456 12.6045 15.6085 12.9645 15.6985 13.3674V13.3845C15.6685 13.4274 15.6128 13.4702 15.5571 13.5088L15.4028 13.5945L15.3814 13.6031L15.3771 13.5774C15.2389 13.0426 14.9287 12.5682 14.4942 12.2274L14.4814 12.2145L14.4899 12.1974C14.5242 12.1545 14.5842 12.0816 14.6528 12.0216C14.6871 11.9916 14.7214 11.9616 14.7599 11.9445ZM9.82708 11.5202C9.74565 11.5245 9.67279 11.5502 9.62994 11.5674L9.61279 11.5331C9.65994 11.5116 9.74136 11.4859 9.82708 11.4774C9.91279 11.4731 10.0114 11.4774 10.0971 11.5331L10.0757 11.5674C9.9997 11.5262 9.91282 11.5097 9.82708 11.5202ZM13.6028 11.6145C13.5171 11.6145 13.4485 11.6402 13.4057 11.6574L13.3885 11.6231C13.4314 11.6016 13.5128 11.5802 13.6028 11.5716C13.6885 11.5631 13.7871 11.5716 13.8728 11.6274L13.8514 11.6616C13.7759 11.619 13.689 11.601 13.6028 11.6102V11.6145ZM11.5114 11.4302C11.4771 11.3359 11.4814 11.2159 11.4985 11.1431L11.5414 11.1516C11.5242 11.2245 11.5157 11.3316 11.5499 11.4174C11.5628 11.4602 11.5928 11.4988 11.6271 11.5245C11.6614 11.5502 11.7128 11.5674 11.7814 11.5674C11.8498 11.5634 11.9148 11.5362 11.9657 11.4902C12.0257 11.4431 12.0771 11.3702 12.1071 11.2845L12.1457 11.2974C12.1114 11.3874 12.0556 11.4688 11.9914 11.5202C11.9331 11.5718 11.8591 11.602 11.7814 11.6059C11.7179 11.6097 11.6549 11.5932 11.6014 11.5588C11.5591 11.526 11.5277 11.4812 11.5114 11.4302Z" fill="black"/>
<path d="M16.8471 9.58729C16.56 8.70443 15.5571 8.11729 15.1757 8.04443L14.3442 8.12586C14.5157 8.34015 14.9142 8.92729 15.1714 9.583C15.5142 11.7259 17.2928 12.0087 17.5542 12.0087C17.8157 12.0087 17.7557 11.9916 17.9828 11.9101C16.95 11.8287 17.2114 10.6887 16.8471 9.58729Z" fill="url(#paint10_linear_31_13978)"/>
<path d="M15.1757 7.98438H15.1842C15.3899 8.02723 15.7414 8.19866 16.0842 8.46438C16.4271 8.73438 16.7571 9.11152 16.9071 9.5658C16.9971 9.84866 17.0528 10.1315 17.0957 10.3929L17.1214 10.5601C17.1514 10.7615 17.1814 10.9458 17.2242 11.1172C17.2757 11.3315 17.3485 11.5029 17.4642 11.6272C17.5757 11.7515 17.7385 11.8329 17.9828 11.8501L17.9999 11.9658L17.8799 12.0129L17.8671 12.0215L17.8028 12.0472C17.7217 12.0678 17.6377 12.0751 17.5542 12.0687C17.1283 12.033 16.7184 11.89 16.3628 11.6529C16.0188 11.4213 15.7292 11.1178 15.5139 10.7634C15.2986 10.409 15.1627 10.0121 15.1157 9.60009C14.9072 9.08713 14.6335 8.60315 14.3014 8.16009L14.2285 8.07438L15.1757 7.98438ZM14.4599 8.17295C14.6528 8.43866 14.9999 8.97438 15.2314 9.5658V9.57866C15.2764 9.97464 15.4071 10.3561 15.6143 10.6965C15.8215 11.0369 16.1003 11.3282 16.4314 11.5501C16.9371 11.8844 17.4342 11.9487 17.5542 11.9487C17.6828 11.9487 17.7257 11.9487 17.7599 11.9358C17.5971 11.8929 17.4728 11.8158 17.3742 11.7087C17.2371 11.5629 17.1599 11.3658 17.1042 11.1472C17.0614 10.9715 17.0314 10.7787 17.0014 10.5729L16.9757 10.4144C16.9328 10.1487 16.8814 9.87438 16.7914 9.60438C16.635 9.18815 16.3629 8.82532 16.0071 8.55866C15.7623 8.35201 15.4779 8.19744 15.1714 8.10438L14.4599 8.17295Z" fill="black"/>
<path d="M15.0599 8.88011C15.2313 8.7644 15.5828 8.64868 15.9942 8.85868L16.0499 8.75154C15.8729 8.65089 15.6699 8.60529 15.4668 8.62056C15.2638 8.63583 15.0699 8.71127 14.9099 8.83726L14.7942 8.9444H14.9399L14.9828 8.9744C15.1679 9.08638 15.3441 9.21246 15.5099 9.35154C15.5099 9.57868 15.5528 10.0673 15.7456 10.4144L15.8528 10.3587C15.7189 10.0784 15.6444 9.77343 15.6342 9.46297C15.7113 9.54011 15.7713 9.61297 15.8056 9.67726C15.8536 9.76687 15.8979 9.85837 15.9385 9.95154L16.0413 10.1787C16.127 10.3544 16.2342 10.5344 16.3842 10.6715L16.4699 10.5858C16.3368 10.4539 16.2292 10.2984 16.1528 10.1273C16.1142 10.0544 16.0842 9.97726 16.0499 9.9044L16.0328 9.86154L15.9599 9.70726C16.0799 9.71583 16.277 9.76297 16.4913 9.91726L16.5599 9.81868C16.3673 9.67184 16.1334 9.58937 15.8913 9.58297C15.8313 9.4844 15.7199 9.37726 15.6085 9.28297C15.4354 9.13582 15.2521 9.00119 15.0599 8.88011Z" fill="black"/>
<path d="M8.28855 5.8584C7.52998 5.8584 7.39712 6.39411 7.42284 6.65983C7.42284 7.14411 8.55426 9.28697 11.9828 9.28697C15.4157 9.28697 16.4443 7.10126 16.4443 6.54411C16.4443 6.32126 16.3243 5.8584 15.5186 5.8584C14.7086 5.8584 13.1357 6.54411 11.9828 6.54411C10.8343 6.54411 9.23998 5.8584 8.28855 5.8584Z" fill="url(#paint11_linear_31_13978)"/>
<path d="M7.62868 6.20982C7.51725 6.35554 7.49153 6.53554 7.50011 6.65554V6.65982C7.50011 6.75839 7.56439 6.96839 7.72296 7.23411C7.87725 7.49125 8.12153 7.79982 8.46868 8.09125C9.16296 8.67411 10.2858 9.20554 11.983 9.20554C13.6801 9.20554 14.7772 8.66554 15.4458 8.06554C15.7339 7.80956 15.9747 7.50492 16.1572 7.16554C16.3072 6.89125 16.363 6.66411 16.363 6.53982C16.363 6.44554 16.3372 6.29554 16.2258 6.17125C16.1144 6.05125 15.9044 5.93982 15.5187 5.93982C15.3258 5.93982 15.0815 5.98268 14.803 6.04268L14.0701 6.23125L13.8987 6.27411C13.2644 6.44554 12.5701 6.62125 11.983 6.62125C11.3958 6.62125 10.6972 6.44982 10.0415 6.27839L9.95582 6.25696C9.41368 6.08937 8.85449 5.98299 8.28868 5.93982C7.93296 5.93982 7.73153 6.06839 7.62439 6.20982H7.62868ZM7.50011 6.11125C7.64153 5.92268 7.88582 5.78125 8.28868 5.78125C8.75153 5.78125 9.36011 5.93554 9.98153 6.09839L10.0801 6.12411C10.7444 6.29554 11.4215 6.46268 11.983 6.46268C12.6785 6.4254 13.366 6.29569 14.0272 6.07696C14.2844 6.00839 14.5372 5.93982 14.7687 5.88839C15.0141 5.82605 15.2656 5.79013 15.5187 5.78125C15.9344 5.78125 16.1915 5.90125 16.3415 6.06411C16.4915 6.22696 16.5258 6.41982 16.5258 6.53982C16.5258 6.69839 16.4572 6.95554 16.303 7.24268C16.1116 7.59823 15.8591 7.91737 15.5572 8.18554C14.8544 8.81125 13.7187 9.36411 11.983 9.36411C10.2515 9.36411 9.09011 8.82411 8.36582 8.21554C8.0559 7.96151 7.79079 7.65728 7.58153 7.31554C7.45169 7.12015 7.36949 6.89703 7.34153 6.66411C7.32415 6.4672 7.37899 6.2707 7.49582 6.11125H7.50011Z" fill="black"/>
<path fill-rule="evenodd" clip-rule="evenodd" d="M9.14136 9.50564L8.39136 8.78564L8.77707 9.50564V10.0071L10.8685 10.9499L11.8628 10.2856L12.8571 10.9499L14.9485 10.0071V9.50564L15.3342 8.78564L14.5842 9.50564L12.2871 9.66422L12.2271 9.82707H11.4985L11.4385 9.66422L9.14136 9.50564ZM11.5285 9.9085L11.6185 10.1485L11.8628 10.0071L12.1071 10.1485L12.1971 9.9085H11.5285Z" fill="url(#paint12_linear_31_13978)"/>
<path d="M11.1343 3.93837C10.1829 3.93837 9.87863 5.92694 9.84863 6.92122C10.0629 7.14837 10.7743 7.60694 11.9058 7.60694C13.0329 7.60694 13.7915 7.17837 14.0229 6.96408L14.0015 6.1198C13.9843 4.09694 13.2172 3.93408 12.9515 3.93408C12.6943 3.93408 12.5272 4.13551 12.0643 4.13551C11.6015 4.13551 11.7429 3.93837 11.1386 3.93837H11.1343Z" fill="url(#paint13_linear_31_13978)"/>
<path d="M11.1343 3.93837C10.1829 3.93837 9.87863 5.92694 9.84863 6.92122C10.0629 7.14837 10.7743 7.60694 11.9058 7.60694C13.0329 7.60694 13.7915 7.17837 14.0229 6.96408L14.0015 6.1198C13.9843 4.09694 13.2172 3.93408 12.9515 3.93408C12.6943 3.93408 12.5272 4.13551 12.0643 4.13551C11.6015 4.13551 11.7429 3.93837 11.1386 3.93837H11.1343Z" fill="url(#paint14_linear_31_13978)"/>
<path d="M9.9258 6.89122C10.1529 7.10551 10.8344 7.52122 11.9015 7.52122C12.9729 7.52122 13.6929 7.1355 13.9415 6.9255L13.9201 6.11979C13.9115 5.11693 13.7187 4.59408 13.5044 4.31979C13.2987 4.04979 13.0672 4.01979 12.9515 4.01979C12.8572 4.01979 12.7801 4.04979 12.6687 4.08836L12.6129 4.11408C12.3499 4.21762 12.0623 4.24147 11.7858 4.18265C11.7262 4.16463 11.6687 4.1402 11.6144 4.10979C11.5631 4.08149 11.5083 4.05989 11.4515 4.0455C11.3829 4.02836 11.2801 4.0155 11.1387 4.0155C10.9287 4.0155 10.7529 4.12265 10.5987 4.3155C10.4284 4.54678 10.3007 4.80656 10.2215 5.08265C10.0287 5.68265 9.94722 6.39836 9.9258 6.89122ZM10.4744 4.21265C10.6458 3.99836 10.8644 3.85693 11.1344 3.85693C11.2929 3.85693 11.4044 3.86979 11.4901 3.89122C11.5758 3.91265 11.6401 3.93836 11.6915 3.96408L11.7129 3.97693C11.7558 3.99836 11.7858 4.0155 11.8329 4.02836C11.8844 4.0455 11.9529 4.05836 12.0644 4.05836C12.2829 4.05836 12.4287 4.01122 12.5572 3.96408L12.6087 3.94265C12.7158 3.89979 12.8229 3.85693 12.9515 3.85693C13.1015 3.85693 13.3887 3.90408 13.6329 4.22122C13.8772 4.53408 14.0744 5.09979 14.0829 6.11979L14.1044 6.99836L14.0787 7.01979C13.8258 7.24693 13.0501 7.68408 11.9015 7.68408C10.7529 7.68408 10.0158 7.22122 9.78437 6.97693L9.76294 6.95122V6.92122C9.78008 6.4155 9.8658 5.66122 10.0672 5.03551C10.1525 4.73902 10.2904 4.46029 10.4744 4.21265Z" fill="black"/>
<path d="M11.7299 4.63269C11.5728 4.52803 11.3873 4.47417 11.1985 4.4784V4.43555C11.2928 4.43126 11.5413 4.45269 11.7556 4.60269C11.8199 4.64555 11.8671 4.68412 11.9013 4.71412L11.9356 4.74412L11.9785 4.7784C11.9999 4.79555 12.0171 4.80412 12.0385 4.8084C12.0642 4.81697 12.0942 4.81697 12.1456 4.81697C12.1885 4.81697 12.2399 4.79555 12.2999 4.76126L12.4285 4.67126L12.4842 4.6284C12.6171 4.5384 12.7756 4.43983 12.9556 4.43983V4.4784C12.7885 4.4784 12.6428 4.5684 12.5099 4.66269L12.4585 4.70126L12.3213 4.79555C12.2796 4.82506 12.2318 4.84498 12.1814 4.85387C12.131 4.86276 12.0793 4.86041 12.0299 4.84697C12.002 4.84138 11.9756 4.82967 11.9528 4.81269C11.938 4.79887 11.9237 4.78458 11.9099 4.76983L11.8756 4.74412C11.829 4.70444 11.7804 4.66725 11.7299 4.63269Z" fill="black"/>
<path d="M10.5729 14.8541C9.29581 14.4556 8.91009 13.7913 8.87581 13.5127C8.81908 13.6327 8.78424 13.7619 8.77295 13.8941C8.77295 14.8541 10.1658 15.3513 10.9587 15.4156C11.7429 15.4756 12.1244 15.6341 12.2058 15.737C12.2058 16.3156 11.7001 17.117 11.6229 17.2798C11.6229 17.9527 11.7172 18.3727 11.7644 18.5013C11.8501 18.3384 12.0215 17.9441 12.0215 17.6398C12.0215 17.2541 12.1244 16.997 12.2058 16.7956C12.5272 17.9956 13.0544 18.2784 13.2172 18.3598C13.2172 17.4984 12.5915 16.1741 12.5101 15.977C12.7329 15.8741 12.8101 15.6941 12.8101 15.5956C14.8501 15.377 14.7687 14.3527 14.7687 14.2541C14.7687 14.1513 14.7687 14.0913 14.7087 14.0141C14.2372 14.8627 13.2087 15.2098 12.7501 15.2741C12.7458 15.2313 12.6858 15.1541 12.5101 15.1541C12.3301 15.1541 12.1115 15.287 12.0258 15.3556C11.9101 15.3084 11.4601 15.1413 10.5687 14.8541H10.5729Z" fill="url(#paint15_linear_31_13978)"/>
<path d="M8.89723 13.3672L8.91438 13.5086C8.94866 13.7658 9.31723 14.4172 10.5858 14.8158C11.4258 15.09 11.8715 15.2529 12.0172 15.3086C12.0644 15.2743 12.1372 15.2315 12.2144 15.1929C12.3044 15.15 12.4115 15.1158 12.5101 15.1158C12.6644 15.1158 12.7458 15.1715 12.7758 15.2315C13.1012 15.1709 13.415 15.0595 13.7058 14.9015C14.1091 14.6977 14.4453 14.3823 14.6744 13.9929L14.7044 13.9415L14.7429 13.9886C14.7772 14.0315 14.7944 14.0743 14.8029 14.1172C14.8115 14.16 14.8115 14.2029 14.8115 14.25V14.2629C14.8115 14.34 14.8158 14.6143 14.5887 14.9058C14.3444 15.2058 13.8515 15.5186 12.8487 15.6343C12.8321 15.7125 12.7975 15.7858 12.7476 15.8483C12.6978 15.9108 12.6341 15.9608 12.5615 15.9943L12.5958 16.0715C12.6687 16.2429 12.8015 16.5515 12.9301 16.9072C13.0972 17.37 13.2558 17.9229 13.2558 18.36V18.4243L13.1958 18.3943C13.1101 18.3515 12.9387 18.2615 12.7415 18.0258C12.4882 17.6993 12.3044 17.3245 12.2015 16.9243C12.1329 17.1043 12.0644 17.3315 12.0644 17.64C12.0644 17.7986 12.0215 17.9786 11.9658 18.1372C11.9101 18.2958 11.8415 18.4372 11.7944 18.5229L11.7515 18.5958L11.7258 18.5143C11.6158 18.1125 11.5667 17.6964 11.5801 17.28V17.2672L11.5844 17.2586L11.6444 17.1515L11.7129 17.0315C11.7687 16.9243 11.8415 16.7915 11.9058 16.6458C12.0387 16.3629 12.1629 16.0286 12.1629 15.75C12.1348 15.7242 12.103 15.7026 12.0687 15.6858C11.9928 15.6503 11.9139 15.6216 11.8329 15.6C11.6315 15.54 11.3444 15.4843 10.9501 15.4543C10.4585 15.4091 9.98148 15.2632 9.54866 15.0258C9.09866 14.7686 8.73438 14.3958 8.73438 13.8943C8.74963 13.7573 8.78426 13.6231 8.83723 13.4958L8.89723 13.3672ZM8.85438 13.6929C8.83295 13.7615 8.81152 13.8343 8.81152 13.8943C8.81152 14.3529 9.1458 14.7086 9.59152 14.9572C10.0287 15.2058 10.5687 15.3429 10.9587 15.3772C11.3529 15.4072 11.6487 15.4629 11.8587 15.5229C11.9615 15.5529 12.0429 15.5829 12.1072 15.6172C12.1672 15.6472 12.2144 15.6772 12.2358 15.7115L12.2487 15.72V15.7372C12.2487 16.0372 12.1201 16.3886 11.9787 16.68C11.9101 16.83 11.8415 16.9629 11.7815 17.07L11.7129 17.1943L11.6615 17.2886C11.6615 17.8329 11.7258 18.21 11.7729 18.3943C11.8072 18.3172 11.8501 18.2186 11.8887 18.1115C11.9444 17.9529 11.9829 17.7858 11.9829 17.64C11.9829 17.2543 12.0858 16.9843 12.1672 16.7829L12.2101 16.6715L12.2444 16.7872C12.4072 17.3872 12.6172 17.7472 12.8015 17.9743C12.9515 18.15 13.0844 18.2443 13.1744 18.2915C13.1572 17.88 13.0115 17.3743 12.8529 16.9329C12.7244 16.5815 12.5958 16.2772 12.5229 16.1058L12.4715 15.99L12.4587 15.9558L12.4929 15.9386C12.7029 15.8443 12.7715 15.6815 12.7715 15.5958V15.5615L12.8058 15.5572C13.8215 15.4458 14.2972 15.1372 14.5201 14.8543C14.7344 14.5886 14.7344 14.3358 14.7301 14.2629V14.2543C14.7301 14.2029 14.7301 14.1686 14.7215 14.1343C14.7188 14.1196 14.7145 14.1053 14.7087 14.0915C14.4726 14.4672 14.1394 14.7722 13.7444 14.9743C13.3672 15.1758 12.9901 15.2829 12.7587 15.3172H12.7158L12.7115 15.2829C12.7115 15.27 12.6772 15.1972 12.5101 15.1972C12.4287 15.1972 12.3387 15.2272 12.2529 15.2658C12.1672 15.3086 12.0901 15.3515 12.0472 15.3858L12.0301 15.4029L12.0087 15.3943C11.8972 15.3472 11.4472 15.18 10.5601 14.8929C9.43295 14.5415 8.98723 13.98 8.86723 13.6458C8.86124 13.6614 8.85552 13.6771 8.85009 13.6929H8.85438Z" fill="black"/>
</g>
<defs>
<linearGradient id="paint0_linear_31_13978" x1="12" y1="0" x2="12" y2="24" gradientUnits="userSpaceOnUse">
<stop stop-color="#FEB204"/>
<stop offset="1" stop-color="#30A606"/>
</linearGradient>
<linearGradient id="paint1_linear_31_13978" x1="10.3628" y1="17.6484" x2="10.3628" y2="20.0656" gradientUnits="userSpaceOnUse">
<stop stop-color="#732417"/>
<stop offset="0.14" stop-color="#9F201D"/>
<stop offset="0.4" stop-color="#76100C"/>
<stop offset="0.63" stop-color="#AF2120"/>
<stop offset="0.88" stop-color="#691306"/>
</linearGradient>
<linearGradient id="paint2_linear_31_13978" x1="10.3628" y1="19.4058" x2="10.3628" y2="20.0658" gradientUnits="userSpaceOnUse">
<stop offset="0.49" stop-color="#D8D4D3"/>
<stop offset="1" stop-color="#A1A299"/>
</linearGradient>
<linearGradient id="paint3_linear_31_13978" x1="14.4943" y1="17.6484" x2="14.4943" y2="20.0656" gradientUnits="userSpaceOnUse">
<stop stop-color="#732417"/>
<stop offset="0.14" stop-color="#9F201D"/>
<stop offset="0.4" stop-color="#76100C"/>
<stop offset="0.63" stop-color="#AF2120"/>
<stop offset="0.88" stop-color="#691306"/>
</linearGradient>
<linearGradient id="paint4_linear_31_13978" x1="14.4942" y1="19.4058" x2="14.4942" y2="20.0658" gradientUnits="userSpaceOnUse">
<stop offset="0.49" stop-color="#D8D4D3"/>
<stop offset="1" stop-color="#A1A299"/>
</linearGradient>
<linearGradient id="paint5_linear_31_13978" x1="10.8558" y1="16.7186" x2="10.2901" y2="16.7186" gradientUnits="userSpaceOnUse">
<stop stop-color="#B78806"/>
<stop offset="0.4" stop-color="#EBB80B"/>
<stop offset="1" stop-color="#BA8E0B"/>
</linearGradient>
<linearGradient id="paint6_linear_31_13978" x1="8.21149" y1="13.0328" x2="8.34864" y2="14.1342" gradientUnits="userSpaceOnUse">
<stop stop-color="#B78806"/>
<stop offset="0.4" stop-color="#EBB80B"/>
</linearGradient>
<linearGradient id="paint7_linear_31_13978" x1="11.8029" y1="7.82129" x2="11.8029" y2="16.6627" gradientUnits="userSpaceOnUse">
<stop stop-color="#C7451D"/>
<stop offset="0.33" stop-color="#DCB127"/>
<stop offset="0.71" stop-color="#DBAD27"/>
<stop offset="1" stop-color="#BC3319"/>
</linearGradient>
<linearGradient id="paint8_linear_31_13978" x1="14.0229" y1="16.7787" x2="14.5886" y2="16.7787" gradientUnits="userSpaceOnUse">
<stop stop-color="#B78806"/>
<stop offset="0.4" stop-color="#EBB80B"/>
<stop offset="1" stop-color="#BA8E0B"/>
</linearGradient>
<linearGradient id="paint9_linear_31_13978" x1="15.4542" y1="12.7502" x2="15.0342" y2="13.0331" gradientUnits="userSpaceOnUse">
<stop stop-color="#B78806"/>
<stop offset="0.4" stop-color="#EBB80B"/>
<stop offset="1" stop-color="#BA8E0B"/>
</linearGradient>
<linearGradient id="paint10_linear_31_13978" x1="16.8085" y1="9.62586" x2="15.5228" y2="10.6373" gradientUnits="userSpaceOnUse">
<stop stop-color="#114F0B"/>
<stop offset="0.51" stop-color="#298C0C"/>
<stop offset="1" stop-color="#154A01"/>
</linearGradient>
<linearGradient id="paint11_linear_31_13978" x1="11.9443" y1="6.23983" x2="11.9314" y2="9.28697" gradientUnits="userSpaceOnUse">
<stop stop-color="#743F1E"/>
<stop offset="0.53" stop-color="#AB6946"/>
<stop offset="1" stop-color="#552D17"/>
</linearGradient>
<linearGradient id="paint12_linear_31_13978" x1="15.1328" y1="9.70707" x2="8.39136" y2="9.54422" gradientUnits="userSpaceOnUse">
<stop offset="0.09" stop-color="#0C0B09"/>
<stop offset="0.27" stop-color="#5D635F"/>
<stop offset="0.43" stop-color="#020308"/>
<stop offset="0.58" stop-color="#030408"/>
<stop offset="0.73" stop-color="#5D625E"/>
<stop offset="0.9" stop-color="#05060A"/>
</linearGradient>
<linearGradient id="paint13_linear_31_13978" x1="9.96435" y1="5.9398" x2="14.0443" y2="6.07265" gradientUnits="userSpaceOnUse">
<stop stop-color="#743F1E"/>
<stop offset="0.41" stop-color="#A86644"/>
<stop offset="0.63" stop-color="#A96744"/>
<stop offset="1" stop-color="#552D17"/>
</linearGradient>
<linearGradient id="paint14_linear_31_13978" x1="11.9443" y1="4.45694" x2="11.9229" y2="7.26408" gradientUnits="userSpaceOnUse">
<stop stop-color="#743F1E"/>
<stop offset="0.47" stop-color="#A96744" stop-opacity="0"/>
<stop offset="0.66" stop-color="#9E603E" stop-opacity="0.13"/>
<stop offset="1" stop-color="#552D17"/>
</linearGradient>
<linearGradient id="paint15_linear_31_13978" x1="9.21866" y1="12.5698" x2="13.2129" y2="18.5098" gradientUnits="userSpaceOnUse">
<stop offset="0.3" stop-color="#DC0E11"/>
<stop offset="0.47" stop-color="#A0030D"/>
<stop offset="0.58" stop-color="#DD0E11"/>
<stop offset="0.69" stop-color="#9D020C"/>
<stop offset="0.75" stop-color="#DC0E11"/>
<stop offset="0.81" stop-color="#9A010B"/>
<stop offset="0.85" stop-color="#D40C10"/>
<stop offset="0.89" stop-color="#970007"/>
<stop offset="0.94" stop-color="#B50A35"/>
</linearGradient>
<clipPath id="clip0_31_13978">
<rect width="24" height="24" fill="white"/>
</clipPath>
</defs>
</svg>
