<svg width="24" height="24" viewBox="0 0 24 24" fill="none" xmlns="http://www.w3.org/2000/svg">
<g clip-path="url(#clip0_31_17068)">
<path d="M0 0H24V24H0V0Z" fill="url(#paint0_linear_31_17068)"/>
<path d="M15 5.57129L13.7143 7.71415H9.14139C8.47711 7.71415 7.28568 8.21986 7.28568 9.857C7.28568 11.4941 8.54568 11.9013 9.21425 11.9999H11.3571L8.14282 18.4284H5.35711L7.71425 13.7141C6.85711 13.4227 5.14282 12.6641 5.14282 9.857C5.14282 7.04986 7.71425 5.57129 8.99997 5.57129H15ZM8.99997 18.4284L10.0714 16.2856H14.8585C15.5228 16.2856 16.7143 15.7799 16.7143 14.1427C16.7143 12.5056 15.4543 12.0984 14.7857 11.9999H12.4285L15.8571 5.57129H18.6428L16.2857 10.2427C17.1428 10.5427 18.8571 11.3356 18.8571 14.1427C18.8571 16.9499 16.7143 18.4284 15 18.4284H8.99997Z" fill="white"/>
</g>
<defs>
<linearGradient id="paint0_linear_31_17068" x1="7.07143" y1="1.28571" x2="17.5714" y2="22.9286" gradientUnits="userSpaceOnUse">
<stop stop-color="#242A3F"/>
<stop offset="0.38" stop-color="#321B65"/>
<stop offset="0.73" stop-color="#622065"/>
<stop offset="1" stop-color="#C56058"/>
</linearGradient>
<clipPath id="clip0_31_17068">
<rect width="24" height="24" fill="white"/>
</clipPath>
</defs>
</svg>
