<svg width="24" height="24" viewBox="0 0 24 24" fill="none" xmlns="http://www.w3.org/2000/svg">
<g clip-path="url(#clip0_31_19662)">
<path d="M0 0H24V24H0V0Z" fill="url(#paint0_linear_31_19662)"/>
<path fill-rule="evenodd" clip-rule="evenodd" d="M9.30005 8.37875L11.7429 10.4359C11.9486 10.6073 12.2401 10.6073 12.4372 10.4316L14.7815 8.37447C15.0258 8.16018 15.0386 7.77447 14.8029 7.54732L12.4543 5.29304C12.3574 5.19809 12.2275 5.14421 12.0918 5.14261C11.9561 5.14102 11.825 5.19183 11.7258 5.28447L9.28291 7.53875C9.03863 7.7659 9.0472 8.16447 9.30434 8.37875H9.30005ZM10.5815 8.12161L11.8158 9.16304C11.9186 9.24875 12.0686 9.24875 12.1672 9.15875L13.3543 8.11732C13.4786 8.0059 13.4829 7.81304 13.3629 7.69732L12.1758 6.55732C12.1263 6.50966 12.0602 6.48303 11.9915 6.48303C11.9228 6.48303 11.8567 6.50966 11.8072 6.55732L10.5729 7.69304C10.5432 7.72057 10.5197 7.75407 10.5039 7.79133C10.4881 7.82859 10.4804 7.86878 10.4812 7.90924C10.482 7.94971 10.4913 7.98955 10.5086 8.02615C10.5259 8.06275 10.5507 8.09528 10.5815 8.12161ZM7.65863 8.73018L11.7129 11.8202C11.9058 11.9702 12.1758 11.9659 12.3643 11.8116L16.1829 8.73875C16.3929 8.56732 16.6886 8.58018 16.8858 8.76875L18.6858 10.513C18.9129 10.7273 18.9129 11.1002 18.6858 11.3188L17.5201 12.4416L18.6686 13.5816C18.9001 13.813 18.8829 14.203 18.6301 14.413L14.1601 18.1202C13.5897 18.5955 12.8711 18.8563 12.1286 18.8573H11.9015C11.1643 18.8573 10.4486 18.6002 9.87434 18.1288L5.3872 14.4173C5.13005 14.203 5.1172 13.813 5.3572 13.5816L6.54005 12.4416L5.31863 11.3059C5.26446 11.2548 5.22092 11.1934 5.19051 11.1254C5.16011 11.0574 5.14343 10.9841 5.14144 10.9096C5.13945 10.8352 5.15218 10.761 5.17891 10.6915C5.20564 10.622 5.24584 10.5584 5.2972 10.5045L6.95577 8.7859C7.04537 8.69146 7.16674 8.63353 7.29651 8.62324C7.42628 8.61295 7.55527 8.65105 7.65863 8.73018ZM7.51291 9.96875L11.5715 13.1659C11.7601 13.3116 12.0215 13.3159 12.2143 13.1745L16.5729 9.96875L17.5715 11.0188L12.2143 14.863C12.0215 15.0002 11.7601 14.9959 11.5715 14.8502L6.54005 11.0188L7.51291 9.96875ZM7.51291 13.123L11.5715 16.3202C11.7601 16.4702 12.0215 16.4745 12.2143 16.3288L16.5729 13.123L17.5158 14.1773L12.2143 18.0173C12.0215 18.1588 11.7601 18.1545 11.5715 18.0045L6.69434 14.1773L7.51291 13.123Z" fill="white"/>
</g>
<defs>
<linearGradient id="paint0_linear_31_19662" x1="-0.818571" y1="10.4743" x2="8.37857" y2="10.4743" gradientUnits="userSpaceOnUse">
<stop offset="0.16" stop-color="#27CAD8"/>
<stop offset="1" stop-color="#4412BD"/>
</linearGradient>
<clipPath id="clip0_31_19662">
<rect width="24" height="24" fill="white"/>
</clipPath>
</defs>
</svg>
