<svg width="24" height="24" viewBox="0 0 24 24" fill="none" xmlns="http://www.w3.org/2000/svg">
<g clip-path="url(#clip0_31_19885)">
<path d="M0 0H24V24H0V0Z" fill="url(#paint0_linear_31_19885)"/>
<path d="M3.85718 6V7.72286L5.52432 9.37286L9.15861 10.3586V11.13L10.62 14.7471V15.9429L11.9872 17.4557V17.4857L12 17.4729L12.0129 17.4857V17.4557L13.38 15.9429V14.7429L14.8372 11.1257V10.3543L18.48 9.36857L20.1429 7.72286V6L19.7015 7.19571L18.4758 7.93286L14.8415 8.56286L12.0129 7.93714V7.93286H11.9872V7.93714L9.15861 8.56286L5.52432 7.93286L4.29861 7.19571L3.85718 6Z" fill="url(#paint1_linear_31_19885)"/>
<path d="M7.71436 15.4027L8.59721 11.4341L9.98578 14.8027L9.66436 16.1741L11.5715 18.1455V19.2855L7.71436 15.4027Z" fill="url(#paint2_linear_31_19885)"/>
<path d="M16.2856 15.4027L15.4028 11.4341L14.0142 14.8027L14.3356 16.1741L12.4285 18.1455V19.2855L16.2856 15.4027Z" fill="url(#paint3_linear_31_19885)"/>
</g>
<defs>
<linearGradient id="paint0_linear_31_19885" x1="4.46571" y1="4.16143" x2="29.2071" y2="32.58" gradientUnits="userSpaceOnUse">
<stop stop-color="#1A1E21"/>
<stop offset="1" stop-color="#06060A"/>
</linearGradient>
<linearGradient id="paint1_linear_31_19885" x1="4.67146" y1="8.07429" x2="19.8043" y2="7.74429" gradientUnits="userSpaceOnUse">
<stop stop-color="#380D78"/>
<stop offset="0.43" stop-color="#56758A"/>
<stop offset="0.75" stop-color="#7BF29E"/>
<stop offset="0.93" stop-color="#8FD5B8"/>
<stop offset="1" stop-color="#A7ACC2"/>
</linearGradient>
<linearGradient id="paint2_linear_31_19885" x1="7.71436" y1="14.1169" x2="11.7729" y2="17.2412" gradientUnits="userSpaceOnUse">
<stop stop-color="#24153E"/>
<stop offset="1" stop-color="#77E397"/>
</linearGradient>
<linearGradient id="paint3_linear_31_19885" x1="14.357" y1="11.4341" x2="14.357" y2="19.2855" gradientUnits="userSpaceOnUse">
<stop stop-color="#A69BD7"/>
<stop offset="0.3" stop-color="#84E7AE"/>
<stop offset="0.48" stop-color="#70D78F"/>
<stop offset="1" stop-color="#3D5F5E"/>
</linearGradient>
<clipPath id="clip0_31_19885">
<rect width="24" height="24" fill="white"/>
</clipPath>
</defs>
</svg>
