<svg width="24" height="24" viewBox="0 0 24 24" fill="none" xmlns="http://www.w3.org/2000/svg">
<g clip-path="url(#clip0_31_20771)">
<path d="M0 0H24V24H0V0Z" fill="#1EAB89"/>
<path fill-rule="evenodd" clip-rule="evenodd" d="M13.2651 9.18792C13.5524 8.98127 13.7864 8.70919 13.9478 8.39418C14.1091 8.07917 14.1932 7.73028 14.193 7.37635C14.1928 7.0829 14.1348 6.79236 14.0224 6.52132C13.9099 6.25027 13.7452 6.00403 13.5376 5.79665C13.3299 5.58927 13.0835 5.42481 12.8123 5.31267C12.5412 5.20053 12.2506 5.1429 11.9571 5.14307C11.3645 5.14284 10.7961 5.37799 10.3769 5.7968C9.95772 6.21561 9.72202 6.78378 9.72168 7.37635C9.72168 8.16278 10.1288 8.8545 10.7434 9.25264L10.7477 9.2625C10.8687 9.3522 10.9697 9.4662 11.0442 9.5972C11.1186 9.7282 11.1649 9.8733 11.18 10.0232C11.1951 10.1731 11.1787 10.3245 11.1319 10.4678C11.085 10.611 11.0088 10.7428 10.9081 10.8549C10.8073 10.9669 10.6843 11.0567 10.5469 11.1184C10.4094 11.1801 10.2606 11.2125 10.1099 11.2133C9.95924 11.2142 9.81006 11.1836 9.67191 11.1234C9.53376 11.0633 9.4097 10.9749 9.30768 10.8641L9.29482 10.8576C9.28959 10.849 9.28431 10.8405 9.27896 10.8319C9.23083 10.7755 9.18861 10.7144 9.15297 10.6494C8.94436 10.3767 8.67567 10.1558 8.3678 10.0038C8.05992 9.85191 7.72115 9.77304 7.37782 9.77335C6.78533 9.77324 6.21704 10.0084 5.79792 10.4272C5.3788 10.846 5.14316 11.4141 5.14282 12.0066C5.14293 12.3001 5.20085 12.5906 5.31325 12.8617C5.42565 13.1328 5.59034 13.379 5.79792 13.5865C6.0055 13.7939 6.2519 13.9584 6.52305 14.0706C6.79421 14.1828 7.0848 14.2405 7.37825 14.2404C7.74848 14.2406 8.11295 14.1488 8.43889 13.9732C8.76484 13.7976 9.04203 13.5438 9.24554 13.2345L9.26611 13.2272C9.37237 13.1023 9.50563 13.0032 9.65581 12.9374C9.806 12.8716 9.96918 12.8408 10.133 12.8474C10.2969 12.8539 10.4571 12.8976 10.6015 12.9751C10.746 13.0527 10.871 13.1621 10.9669 13.295C11.0629 13.4279 11.1274 13.581 11.1556 13.7425C11.1837 13.904 11.1748 14.0699 11.1294 14.2274C11.0841 14.385 11.0035 14.5302 10.8938 14.6521C10.7841 14.7739 10.6481 14.8692 10.4961 14.9308V14.9342C10.253 15.1435 10.058 15.4029 9.92441 15.6945C9.79082 15.9862 9.72182 16.3033 9.72211 16.6241C9.72222 16.9175 9.78012 17.208 9.8925 17.479C10.0049 17.75 10.1695 17.9962 10.3771 18.2036C10.5846 18.411 10.831 18.5754 11.1021 18.6876C11.3732 18.7998 11.6637 18.8575 11.9571 18.8574C12.5497 18.8576 13.1181 18.6224 13.5373 18.2036C13.9565 17.7848 14.1922 17.2166 14.1925 16.6241C14.1925 15.8321 13.7798 15.1369 13.158 14.7401L13.1683 14.7379L13.167 14.7319C13.034 14.6388 12.9231 14.5177 12.842 14.377C12.7609 14.2364 12.7117 14.0797 12.6978 13.918C12.6838 13.7562 12.7056 13.5934 12.7614 13.441C12.8172 13.2886 12.9058 13.1502 13.0209 13.0357C13.136 12.9213 13.2747 12.8334 13.4275 12.7784C13.5802 12.7234 13.7431 12.7025 13.9048 12.7173C14.0664 12.7321 14.2229 12.7822 14.3631 12.864C14.5033 12.9458 14.6238 13.0573 14.7163 13.1908L14.7274 13.1938C14.9286 13.5144 15.208 13.7787 15.5394 13.9617C15.8707 14.1448 16.2431 14.2407 16.6217 14.2404C16.9151 14.2405 17.2057 14.1828 17.4769 14.0706C17.748 13.9584 17.9944 13.7939 18.202 13.5865C18.4096 13.379 18.5743 13.1328 18.6867 12.8617C18.7991 12.5906 18.857 12.3001 18.8571 12.0066C18.8568 11.4141 18.6211 10.8459 18.2019 10.4271C17.7826 10.0083 17.2143 9.77313 16.6217 9.77335C16.2791 9.77303 15.941 9.85156 15.6336 10.0029C15.3262 10.1542 15.0578 10.3742 14.8491 10.6459C14.754 10.8226 14.6129 10.9703 14.4406 11.0731C14.2683 11.176 14.0713 11.2302 13.8707 11.2301C13.6319 11.2298 13.3995 11.1526 13.2081 11.0098C13.0167 10.867 12.8764 10.6663 12.8081 10.4375C12.7398 10.2087 12.7472 9.9639 12.829 9.73957C12.9109 9.51523 13.0629 9.32328 13.2625 9.19221L13.2651 9.18792ZM13.2437 7.37635C13.2437 7.54523 13.2104 7.71246 13.1458 7.86847C13.0811 8.02449 12.9864 8.16625 12.867 8.28564C12.7475 8.40504 12.6057 8.49973 12.4497 8.56432C12.2936 8.62891 12.1264 8.66212 11.9575 8.66207C11.7886 8.66218 11.6213 8.62901 11.4653 8.56444C11.3092 8.49988 11.1673 8.40519 11.0478 8.28579C10.9284 8.16639 10.8336 8.02462 10.7689 7.86857C10.7042 7.71253 10.671 7.54527 10.671 7.37635C10.671 7.20747 10.7043 7.04026 10.769 6.88426C10.8337 6.72827 10.9285 6.58654 11.048 6.46719C11.1675 6.34783 11.3093 6.25318 11.4654 6.18865C11.6214 6.12411 11.7887 6.09095 11.9575 6.09107C12.1264 6.09101 12.2936 6.12422 12.4497 6.18881C12.6057 6.2534 12.7475 6.3481 12.867 6.46749C12.9864 6.58689 13.0811 6.72864 13.1458 6.88466C13.2104 7.04068 13.2437 7.20747 13.2437 7.37635ZM16.6217 13.2919C16.7906 13.292 16.9578 13.2589 17.1139 13.1943C17.2699 13.1298 17.4117 13.0352 17.5312 12.9158C17.6507 12.7964 17.7455 12.6547 17.8102 12.4987C17.8749 12.3427 17.9082 12.1755 17.9083 12.0066C17.9082 11.8378 17.8749 11.6705 17.8102 11.5146C17.7455 11.3586 17.6507 11.2168 17.5312 11.0975C17.4117 10.9781 17.2699 10.8835 17.1139 10.8189C16.9578 10.7544 16.7906 10.7212 16.6217 10.7214C16.4528 10.7212 16.2855 10.7544 16.1294 10.819C15.9733 10.8835 15.8315 10.9782 15.712 11.0976C15.5925 11.217 15.4977 11.3588 15.4331 11.5148C15.3684 11.6709 15.3351 11.8382 15.3351 12.0071C15.3352 12.1759 15.3686 12.3431 15.4333 12.499C15.498 12.655 15.5928 12.7966 15.7123 12.916C15.8318 13.0353 15.9736 13.1299 16.1296 13.1944C16.2856 13.2589 16.4528 13.292 16.6217 13.2919ZM8.66482 12.0066C8.66482 12.1756 8.63154 12.3428 8.56687 12.4989C8.5022 12.6549 8.40742 12.7967 8.28794 12.9161C8.16846 13.0355 8.02662 13.1302 7.87054 13.1947C7.71445 13.2593 7.54717 13.2925 7.37825 13.2924C7.20934 13.2925 7.04205 13.2593 6.88597 13.1947C6.72988 13.1302 6.58804 13.0355 6.46856 12.9161C6.34908 12.7967 6.2543 12.6549 6.18963 12.4989C6.12496 12.3428 6.09168 12.1756 6.09168 12.0066C6.09174 11.8378 6.12506 11.6705 6.18975 11.5146C6.25445 11.3586 6.34924 11.2168 6.46871 11.0975C6.58819 10.9781 6.73 10.8835 6.88606 10.8189C7.04213 10.7544 7.20937 10.7212 7.37825 10.7214C7.54717 10.7212 7.71445 10.7544 7.87054 10.819C8.02662 10.8835 8.16846 10.9782 8.28794 11.0976C8.40742 11.217 8.5022 11.3588 8.56687 11.5148C8.63154 11.6709 8.66482 11.8382 8.66482 12.0071V12.0066ZM11.9571 17.9094C12.126 17.9094 12.2932 17.8762 12.4493 17.8116C12.6053 17.747 12.7471 17.6523 12.8665 17.5329C12.986 17.4135 13.0807 17.2718 13.1453 17.1158C13.21 16.9597 13.2433 16.7925 13.2433 16.6236C13.2432 16.4548 13.2099 16.2876 13.1452 16.1316C13.0806 15.9757 12.9858 15.834 12.8664 15.7146C12.7469 15.5953 12.6052 15.5006 12.4492 15.4361C12.2932 15.3715 12.126 15.3383 11.9571 15.3384C11.7882 15.3382 11.6209 15.3714 11.4648 15.436C11.3087 15.5005 11.1669 15.5952 11.0474 15.7146C10.9279 15.834 10.8332 15.9758 10.7685 16.1318C10.7038 16.2879 10.6705 16.4552 10.6705 16.6241C10.6706 16.7929 10.7039 16.9602 10.7686 17.1162C10.8333 17.2722 10.9281 17.4139 11.0476 17.5332C11.167 17.6526 11.3089 17.7472 11.4649 17.8118C11.621 17.8763 11.7882 17.9095 11.9571 17.9094ZM12.9064 7.37635C12.9063 7.50107 12.8817 7.62456 12.8339 7.73976C12.7862 7.85496 12.7162 7.95963 12.6279 8.04778C12.5397 8.13593 12.435 8.20583 12.3197 8.25351C12.2045 8.30119 12.081 8.32569 11.9563 8.32564C11.8315 8.32558 11.708 8.30096 11.5928 8.25318C11.4776 8.2054 11.373 8.1354 11.2848 8.04717C11.1967 7.95894 11.1268 7.85421 11.0791 7.73897C11.0314 7.62372 11.0069 7.50021 11.007 7.3755C11.0071 7.12362 11.1072 6.8821 11.2854 6.70407C11.4636 6.52605 11.7052 6.4261 11.9571 6.42621C12.209 6.42632 12.4505 6.52649 12.6285 6.70468C12.8066 6.88286 12.9065 7.12447 12.9064 7.37635ZM11.9571 17.5721C12.1448 17.572 12.3282 17.5162 12.4842 17.4119C12.6402 17.3075 12.7618 17.1593 12.8335 16.9858C12.9052 16.8124 12.9239 16.6216 12.8872 16.4375C12.8505 16.2535 12.76 16.0844 12.6272 15.9518C12.4944 15.8192 12.3252 15.7289 12.1411 15.6924C11.957 15.656 11.7662 15.6749 11.5929 15.7469C11.4195 15.8188 11.2714 15.9406 11.1673 16.0967C11.0631 16.2529 11.0077 16.4364 11.0078 16.6241C11.0078 17.1478 11.4325 17.5721 11.9571 17.5721ZM17.5705 12.0066C17.5705 12.1312 17.5459 12.2546 17.4981 12.3697C17.4504 12.4848 17.3805 12.5894 17.2923 12.6775C17.2042 12.7655 17.0995 12.8354 16.9844 12.883C16.8693 12.9306 16.7459 12.9551 16.6213 12.9551C16.4966 12.955 16.3733 12.9304 16.2582 12.8827C16.1431 12.8349 16.0385 12.765 15.9504 12.6768C15.8624 12.5887 15.7925 12.4841 15.7449 12.3689C15.6973 12.2538 15.6728 12.1304 15.6728 12.0058C15.6729 11.7541 15.773 11.5128 15.951 11.335C16.1291 11.1571 16.3705 11.0572 16.6221 11.0574C16.8738 11.0575 17.1151 11.1575 17.2929 11.3356C17.4708 11.5136 17.5707 11.755 17.5705 12.0066ZM7.37782 12.9551C7.50243 12.9551 7.62582 12.9306 7.74097 12.883C7.85611 12.8354 7.96074 12.7655 8.04889 12.6775C8.13704 12.5894 8.20698 12.4848 8.25472 12.3697C8.30245 12.2546 8.32705 12.1312 8.32711 12.0066C8.32716 11.882 8.30268 11.7586 8.25504 11.6435C8.20741 11.5284 8.13757 11.4237 8.0495 11.3356C7.96143 11.2474 7.85686 11.1775 7.74176 11.1297C7.62666 11.082 7.50328 11.0574 7.37868 11.0574C7.12703 11.0572 6.88564 11.1571 6.70761 11.335C6.52958 11.5128 6.42951 11.7541 6.42939 12.0058C6.42928 12.2574 6.52914 12.4988 6.707 12.6768C6.88487 12.8549 7.12617 12.955 7.37782 12.9551Z" fill="white"/>
</g>
<defs>
<clipPath id="clip0_31_20771">
<rect width="24" height="24" fill="white"/>
</clipPath>
</defs>
</svg>
