<svg width="24" height="24" viewBox="0 0 24 24" fill="none" xmlns="http://www.w3.org/2000/svg">
<g clip-path="url(#clip0_31_21270)">
<path d="M0 0H24V24H0V0Z" fill="url(#paint0_linear_31_21270)"/>
<path d="M8.81998 4.37166C8.69626 4.30277 8.55405 4.2744 8.41336 4.29055C8.27268 4.30669 8.14059 4.36654 8.03569 4.46166L7.20855 5.20738C6.84426 5.53738 6.90855 6.15023 7.34569 6.38166L14.0228 9.98166L9.35141 13.4102C9.02569 13.6417 9.06426 14.1474 9.41998 14.3274L17.1257 18.2231L16.0543 18.9988L6.85284 13.8345L11.1943 10.7488C11.5071 10.5259 11.4943 10.0459 11.1643 9.84452L8.49855 8.20738L8.10426 8.79881L10.5771 10.3159L6.22284 13.4145C5.90569 13.6417 5.93141 14.1345 6.26998 14.3274L15.72 19.6288C15.9514 19.7574 16.2343 19.7402 16.4486 19.5859L17.5243 18.8059C17.6225 18.7327 17.7007 18.6359 17.7516 18.5245C17.8025 18.4131 17.8245 18.2906 17.8155 18.1684C17.8066 18.0462 17.7669 17.9283 17.7003 17.8255C17.6336 17.7226 17.5421 17.6383 17.4343 17.5802L9.98569 13.8174L14.6571 10.3974C14.9743 10.1659 14.94 9.6688 14.5971 9.48452L7.66712 5.74309L8.48998 4.99738L17.1514 9.79738L12.4585 13.2302C12.1457 13.4617 12.1757 13.9545 12.5143 14.1431L16.7786 16.5088L17.1514 15.8531L13.0886 13.6459L17.7814 10.2131C18.0943 9.98166 18.0643 9.48881 17.7257 9.30023L8.81998 4.37166ZM7.73998 8.57166L8.13426 7.98452L7.34569 7.50023L6.98998 8.11309L7.73998 8.57595V8.57166Z" fill="url(#paint1_linear_31_21270)"/>
</g>
<defs>
<linearGradient id="paint0_linear_31_21270" x1="4.5" y1="3.64286" x2="18.2143" y2="23.3571" gradientUnits="userSpaceOnUse">
<stop stop-color="#000153"/>
<stop offset="1" stop-color="#000024"/>
</linearGradient>
<linearGradient id="paint1_linear_31_21270" x1="6.42855" y1="6.21452" x2="16.5" y2="19.0717" gradientUnits="userSpaceOnUse">
<stop stop-color="#02EEE4"/>
<stop offset="1" stop-color="#07A9FC"/>
</linearGradient>
<clipPath id="clip0_31_21270">
<rect width="24" height="24" fill="white"/>
</clipPath>
</defs>
</svg>
