<svg xmlns="http://www.w3.org/2000/svg" width="24" height="24" fill="none" viewBox="0 0 24 24">
    <path fill="#fff" d="m7.223 12.857.47-3.551L3.62 6.464l3.724 1.263.878-1.354 3.211-2.001 7.08 3.916.364 5.98-3.148 4.406-2.496.384 1.296-2.37v-2.29l-.94-1.785-.956-.634-1.464 1.522v1.603l-1.142 1.075-1.454.177-.643.37-1.056-.336-.437-1.594.787-1.118z"/>
    <path fill="#94A6C3" d="M13.731 6.431c-.777-.158-1.627-.115-1.627-.115s-.278 1.296-2.006 1.632c.014 0 2.284.782 3.633-1.517m.706 11.759a5.66 5.66 0 0 0 1.967-2.904c.01-.048.145-.12.23-.177.145-.087.294-.164.322-.279q.089-.52.087-1.046c0-.135-.13-.264-.26-.399-.105-.086-.206-.191-.206-.263a5.6 5.6 0 0 0-1.747-3.504l-.1.096a5.5 5.5 0 0 1 1.698 3.422c.015.115.135.235.25.355.106.087.22.22.22.279q0 .504-.086 1.017c-.014.058-.143.115-.25.173-.143.077-.277.149-.306.269a5.44 5.44 0 0 1-2.232 3.047c.192-.412.792-1.751 1.113-2.428l-.057-2.184-1.862-1.81-1.056.145-1.152 1.886s.537.696-.22 1.502c-.75.797-1.335.974-1.335.974l-.543-.293c.159-.206.48-.518.73-.72.427-.355.85-.383.85-.767.014-.797-.836-.576-.836-.576l-.307.292-.13 1.09-.647.816-.072-.02-1.056-.234s.648-.336.749-.72c.1-.37-.207-1.594-.221-1.666.014.014.307.264.441.677.15-.468.36-.914.63-1.325a74 74 0 0 1 1.276-.69l-.399 1.04.293-.158.706-1.737s.69-.341 1.2-.341c.926-.014 2.289-1.152 1.675-3.182.172.072 3.22 1.608 3.748 4.607.398 2.319-.907 4.483-3.105 5.736"/>
    <path fill="#1B314F" d="M10.948 6.758c.336-.398.207-.989.207-.989l-.984 1.46c-.015 0 .355.014.777-.471m-3.297 7.967.115-.585s-.48.854-.528.97c-.043.133.034.369.221.354.192-.014.427-.297.427-.504 0-.264-.235-.235-.235-.235"/>
    <path fill="#1B314F" d="M16.357 5.355s.734.03 1.492.12c-1.713-1.353-3.34-1.751-4.655-1.751-1.824 0-3.052.748-3.125.792l.572-.912S8.356 3.383 7.55 5.81a13 13 0 0 1-.4-1.26s-1.185 1.042-.628 2.784a162 162 0 0 0-3.389-1.21c-.096-.014-.13.03-.13.03s-.028.047.058.12c.163.129 3.24 2.413 3.917 2.855-.15.528-.15.782 0 1.032.201.336.216.513.192.768-.034.25-.298 2.414-.356 2.678s-.672 1.21-.643 1.488.408 1.473.744 1.607c.25.087.864.279 1.277.279.144 0 .278-.029.336-.087.25-.225.321-.268.499-.268h.048c.067 0 .158.014.26.014.24 0 .541-.043.762-.25.322-.321.879-.767 1.056-.969.22-.283.336-.667.278-1.046-.047-.356.144-.663.365-.975l.792-1.032a4.04 4.04 0 0 1 1.642 3.23c0 2.304-1.992 4.157-4.454 4.157-.384 0-.749-.048-1.114-.134 1.128.398 2.078.527 2.856.527 1.656 0 2.539-.6 2.539-.6s-.312.399-.806.855h.014c2.736-.384 4.075-2.65 4.075-2.65s-.106.735-.24 1.234c3.652-2.755 3.038-6.201 3.024-6.316.028.043.393.48.585.72.585-6.067-4.353-8.03-4.353-8.03zM10.74 15.05c-.057.072-.307.293-.48.456-.177.163-.37.327-.513.47q-.091.093-.355.092h-.437c.22-.298.864-.975 1.085-1.123.264-.173.393-.35.235-.662-.163-.308-.59-.236-.59-.236s.25-.1.47-.1c-.279-.077-.629 0-.792.158-.173.163-.144.74-.22 1.104-.073.384-.322.576-.702.93-.206.193-.35.25-.47.25a4.6 4.6 0 0 1-.749-.191c-.144-.192-.364-.826-.422-1.09.048-.144.22-.456.307-.633.178-.336.279-.528.307-.706.058-.25.25-1.8.322-2.448.192.255.456.663.398.931.423-.604.115-1.195-.029-1.43-.21-.366-.268-.8-.163-1.21.144-.499.672-1.886.672-1.886s.178.312.432.255c.245-.063 2.256-3.096 2.256-3.096s.537 1.195-.034 2.064c-.585.864-1.156 1.032-1.156 1.032s.806.144 1.555-.399c.307.72.6 1.474.614 1.575-.048.105-.629 1.516-.691 1.608-.029.028-.23.086-.38.115-.249.076-.393.12-.455.163-.101.086-.571 1.387-.787 2.016a1.24 1.24 0 0 0-.72.518c.1-.072.422-.12.657-.144.207-.02.835.322.999.955v.029a.96.96 0 0 1-.164.633m-1.377.178c.134-.192.12-.518.134-.624.015-.096.044-.288.159-.321.12-.03.398.014.398.22 0 .192-.206.24-.35.37l-.336.355zm5.85-2.817a7 7 0 0 0 .116-1.93 5.37 5.37 0 0 1 1.027 2.655c.014.115.13.235.25.355.1.086.22.206.22.278q0 .505-.09 1.017c-.015.044-.145.116-.25.173-.145.077-.279.149-.308.269a5.5 5.5 0 0 1-1.934 2.841c1.363-1.43 2.025-3.786.97-5.658m-.926 5.793A5.67 5.67 0 0 0 16.3 15.27c.015-.048.144-.12.236-.178.143-.072.287-.163.32-.278q.09-.519.087-1.046c0-.134-.13-.264-.264-.398-.072-.087-.192-.192-.192-.264a5.77 5.77 0 0 0-1.2-2.933c-.292-1.766-1.463-2.313-1.492-2.328.029.048.787 1.152.264 2.448-.543 1.31-1.94 1.104-2.054 1.118-.115 0-.576.59-1.143 1.68a1.6 1.6 0 0 0-.734-.048q.323-.953.734-1.872c.03-.024.25-.086.394-.13.278-.071.413-.12.456-.177.029-.043.178-.384.322-.734.134 0 .47-.029.499-.048.028-.029.307-.749.307-.835 0-.077-.571-1.502-.792-2.05q.157-.181.307-.427a6.032 6.032 0 1 1 1.934 11.433"/>
    <path fill="#1B314F" d="M10.39 10.246c.279-.321.135-.926-.383-1.032.134-.307.326-.926.326-.926s-1.497 2.357-1.632 2.4c-.13.048-.259-.47-.259-.47-.278 1.075.47 1.223.557.883a3.7 3.7 0 0 0 1.392-.855"/>
    <path fill="#FFD923" d="m9.114 10.822.768-1.31s.432.22.216.576a2.9 2.9 0 0 1-.984.734"/>
    <path fill="#D82122" d="M18.54 16.894c-.221.288-.47.6-.763.897 1.89-3.652.086-6.998.014-7.132.134.134.264.283.384.413a4.68 4.68 0 0 1 .365 5.822m1.756-4.704a8.84 8.84 0 0 0-3.662-4.665 7.44 7.44 0 0 0-4.252-1.21h-.029a1 1 0 0 1 .221-.057 9 9 0 0 1 1.627-.34c1.555-.222 3.12.306 4.19 1.439l.034.034a6.96 6.96 0 0 1 1.871 4.8M16.164 4.9c-2.184-.413-3.59-.207-4.603.177a4 4 0 0 0-.216-.547c-.312.37-.633.816-.84 1.094-.556.384-.787.749-.787.749a3.06 3.06 0 0 1 2.4-2.136 6 6 0 0 1 1.056-.086 6.86 6.86 0 0 1 2.99.749M8.086 7.726C6.373 7.67 6.944 5.663 6.978 5.548c0 .014.115 1.579 1.113 2.178zm1.69-3.604c-1.32.792-1.056 2.693-1.056 2.693-1.262-1.93.95-2.65 1.056-2.693"/>
    <path fill="#fff" d="M7.607 8.26c.086.071.173.206.072.398-.058.1-.144.086-.278.028a35 35 0 0 1-2.184-1.343q1.193.411 2.361.887z"/>
</svg>
