<svg width="24" height="24" viewBox="0 0 24 24" fill="none" xmlns="http://www.w3.org/2000/svg">
<path d="M15.2778 6.89958L15.3167 6.76625C15.8666 4.79421 15.6112 3.69987 14.5501 3.48877C14.6723 3.88873 14.7445 4.30536 14.7613 4.72754C14.8001 5.6719 14.6501 6.61071 14.2946 7.54396L14.4113 7.63284L15.2778 6.89958ZM16.7722 18.7652L16.0166 16.7654L14.0446 18.3985L12.2392 21.4538C14.0446 20.9594 15.1944 20.0595 15.6834 18.7541C15.904 19.5698 15.8552 20.4348 15.5444 21.2205C15.9639 20.9733 16.3026 20.6098 16.5194 20.1739C16.7364 19.7381 16.8222 19.2488 16.7666 18.7652H16.7722ZM9.71718 7.54396C9.37008 6.64699 9.20942 5.68869 9.24504 4.72754C9.25615 4.30536 9.33392 3.88873 9.45055 3.49432C8.39511 3.69987 8.13403 4.79421 8.68954 6.76625L8.72842 6.89958L9.5895 7.63284L9.7116 7.54396H9.71718ZM7.98404 16.7654L7.22855 18.7652C7.17472 19.2499 7.26256 19.7397 7.48143 20.1755C7.70032 20.6114 8.04084 20.9743 8.46177 21.2205L8.3729 21.0039C8.13499 20.2754 8.11568 19.4933 8.31734 18.7541C8.81174 20.0595 9.95606 20.9594 11.7615 21.4538L9.95606 18.3985L7.98404 16.7598V16.7654Z" fill="#FFA042"/>
<path d="M13.7111 2C13.9887 2.35552 14.222 2.72771 14.3943 3.12212C14.6276 3.62208 14.761 4.16092 14.7999 4.73309C14.876 5.71627 14.7434 6.70444 14.411 7.63283L14.2776 7.54395C13.9877 7.348 13.6691 7.1981 13.3332 7.09954C13.2492 6.78845 13.0509 6.5206 12.7778 6.34961C12.5404 6.21575 12.2726 6.14498 12.0001 6.14407C11.7112 6.14407 11.4446 6.21628 11.2224 6.34961C10.9446 6.52737 10.7612 6.7718 10.6669 7.09399C10.328 7.19954 10.0058 7.34952 9.71132 7.54395L9.58922 7.63283C9.25587 6.66625 9.12255 5.69966 9.20032 4.72753C9.27388 3.72895 9.65196 2.77696 10.2836 2C8.95095 2.68423 7.86961 3.77336 7.19495 5.11083C7.17828 5.12749 7.17272 5.15527 7.16161 5.1775C6.94425 5.5973 6.82209 6.05986 6.80385 6.53225C6.78561 7.00464 6.87172 7.47526 7.05606 7.91058C6.6672 8.18278 6.47278 8.59385 6.47834 9.14381C6.48667 9.4345 6.55515 9.72033 6.67944 9.98326C6.80373 10.2462 6.98114 10.4805 7.20049 10.6715V10.6825C7.07273 10.977 6.95607 11.2825 6.85052 11.588C5.65618 11.6436 4.82848 12.1657 4.37853 13.1767L3.66748 14.9655L4.04523 15.2099C4.35075 14.971 4.6785 14.7655 5.02291 14.5822C5.69507 14.2322 6.16726 14.0934 6.43945 14.1822L5.26178 15.9043L5.45621 16.0265L4.53963 17.1709L4.72293 17.3542L3.95635 18.7818C3.91746 19.0985 3.98411 19.4373 4.16743 19.8151C4.52471 20.4929 5.06502 21.0567 5.7269 21.4427C6.3888 21.8286 7.1457 22.0211 7.91154 21.9982H7.93377C8.14485 21.9593 8.33373 21.8982 8.48927 21.8205C8.57259 21.7816 8.65592 21.7315 8.71702 21.6816C8.70662 21.6706 8.69899 21.6573 8.69481 21.6428C8.66787 21.6037 8.64374 21.5629 8.6226 21.5205L8.46706 21.2205C8.05042 20.3484 7.99487 19.3206 8.28928 18.1375C8.47334 18.9742 8.92121 19.7297 9.56693 20.2928C10.1997 20.844 10.9503 21.243 11.7612 21.4593L11.9723 21.5149L11.9945 21.5038H12.0001L12.0223 21.5149L12.2334 21.4593C13.0465 21.2446 13.7992 20.8453 14.4332 20.2928C15.0805 19.731 15.5287 18.975 15.7108 18.1375C16.0496 19.5206 15.922 20.6872 15.3054 21.6372L15.2775 21.6816C15.4664 21.8205 15.7275 21.9315 16.0608 21.9982H16.0885C16.8544 22.0211 17.6113 21.8286 18.2732 21.4427C18.9351 21.0567 19.4755 20.4929 19.8327 19.8151C20.016 19.4373 20.0827 19.0929 20.0383 18.7818L19.2771 17.3542L19.455 17.1709L18.5383 16.0265L18.7327 15.9043L17.5552 14.1822C17.8329 14.0934 18.305 14.2322 18.9772 14.5822C19.3327 14.771 19.6605 14.9822 19.9493 15.2099L20.3326 14.9655L19.6105 13.1767C19.1605 12.1657 18.3329 11.638 17.1384 11.588C17.0329 11.2825 16.9163 10.977 16.7885 10.6825V10.6715C17.0087 10.4812 17.1867 10.247 17.311 9.98392C17.4354 9.72084 17.5033 9.4347 17.5107 9.14381C17.5219 8.58829 17.3274 8.18278 16.9386 7.91058C17.3107 7.07732 17.2718 6.16629 16.8274 5.1775L16.7996 5.11638C16.4078 4.33801 15.8747 3.63918 15.2276 3.05545L15.0165 2.87214C14.6168 2.53143 14.1787 2.23872 13.7111 2Z" fill="black"/>
<path d="M12.9388 7.5107C12.8138 7.48606 12.6878 7.46751 12.561 7.45515C13.1166 8.1773 13.3499 8.97168 13.2554 9.84383L13.2498 9.91604C13.2332 10.0549 13.2054 10.1938 13.1721 10.3382L13.1499 10.3993L13.1332 10.466L12.8943 10.3938C12.3148 10.2456 11.7074 10.2456 11.1279 10.3938L10.889 10.466L10.8722 10.4049V10.3993L10.8557 10.3382C10.8223 10.1993 10.8001 10.0605 10.7779 9.91604L10.7667 9.83826C10.6724 8.97168 10.9111 8.17175 11.4611 7.44958L11.089 7.50514C10.7334 7.58847 10.3946 7.72178 10.0835 7.89399L10.0279 7.93844L9.95015 7.97732C9.7333 8.11691 9.52889 8.27489 9.33911 8.4495L9.31134 8.47727C9.18606 8.59077 9.06736 8.71133 8.95581 8.83835C8.26637 9.66166 7.73864 10.6078 7.40039 11.627C7.78674 11.8204 8.18577 11.9875 8.59473 12.127C9.71943 12.538 10.908 12.7468 12.1056 12.7436C13.5154 12.725 14.906 12.4128 16.1885 11.827C16.3329 11.7714 16.4773 11.6992 16.6218 11.627C16.2822 10.6084 15.7546 9.66249 15.0664 8.83835C14.9538 8.7123 14.8352 8.59179 14.7109 8.47727L14.683 8.4495C14.4933 8.27489 14.2889 8.11691 14.072 7.97732L14.0054 7.93844L13.9498 7.89955C13.6338 7.72095 13.2931 7.58993 12.9388 7.5107Z" fill="#FF0A1C"/>
<path d="M12.3505 7.61056L12.2283 7.4439H11.8006L11.6729 7.61056H12.3505ZM12.8949 10.0659C12.9706 9.64095 12.9616 9.20523 12.8681 8.78383C12.7746 8.36244 12.5988 7.96368 12.3505 7.61056H11.6729C11.4243 7.96355 11.2483 8.36228 11.1548 8.78374C11.0614 9.20518 11.0524 9.64097 11.1285 10.0659C11.4173 9.99368 11.7172 9.9548 12.0173 9.94924C12.3117 9.94924 12.6061 9.99368 12.8949 10.0659ZM12.0117 6.62732C11.5451 6.70509 11.2562 6.92173 11.1285 7.27725C11.2562 6.94395 11.5451 6.7773 12.0173 6.79397C12.4783 6.78285 12.7727 6.9384 12.8949 7.27725C12.7727 6.92173 12.4783 6.70509 12.0117 6.62732Z" fill="#FF0A1C"/>
<path d="M12.0113 6.79411C11.5447 6.783 11.2559 6.93854 11.1281 7.2774C11.4226 7.22185 11.717 7.21074 12.0169 7.23296C12.3102 7.21095 12.6051 7.22588 12.8947 7.2774C12.7725 6.94409 12.478 6.77744 12.0113 6.79411ZM9.45605 14.3546C9.70609 14.6434 10.0505 14.7212 10.4948 14.5823C10.1749 14.4211 9.81963 14.3427 9.46163 14.3546H9.45605Z" fill="#FF0A1C"/>
<path d="M10.4893 15.4436C10.1934 15.4924 9.88985 15.4333 9.63386 15.2769C9.88389 15.3046 10.1338 15.2769 10.3838 15.1991C10.6227 15.1213 10.8726 14.9935 11.1171 14.8214C10.2116 15.1213 9.43385 14.9935 8.79507 14.427L8.72285 14.3604V14.4659C8.66731 15.188 8.85061 15.6546 9.25613 15.8546C9.68389 16.0546 10.0893 15.9158 10.4893 15.438V15.4436ZM11.3504 15.2158C11.3504 15.3046 11.3893 15.3935 11.4615 15.4825C11.6114 15.6769 11.6836 15.8713 11.6726 16.0768C11.5392 15.7712 11.3392 15.588 11.0615 15.5102C10.9565 15.4801 10.8454 15.4782 10.7394 15.5046C10.6227 15.5379 10.5282 15.6268 10.4727 15.7712C10.4363 15.8472 10.4222 15.9318 10.432 16.0154C10.4419 16.099 10.4752 16.1781 10.5282 16.2434C10.6449 16.3934 10.8227 16.4656 11.0726 16.4712C11.0171 16.3545 11.0171 16.2213 11.056 16.0823V16.0713L11.0782 16.0324C11.1115 15.999 11.1615 16.0101 11.2337 16.0657C11.3171 16.1212 11.3615 16.2213 11.3837 16.3657C11.4226 16.7545 11.6226 16.9767 12.0003 16.999C12.3836 16.9767 12.6003 16.7545 12.6448 16.3657C12.6613 16.2213 12.7058 16.1212 12.7891 16.0657C12.8613 16.0101 12.917 15.999 12.9447 16.0324C12.9527 16.0441 12.9583 16.0573 12.9614 16.0713L12.9669 16.0823C13.0003 16.2213 13.0003 16.3545 12.9503 16.4712C13.2002 16.4712 13.378 16.3934 13.4947 16.2434C13.5477 16.1781 13.581 16.099 13.5908 16.0154C13.6007 15.9318 13.5866 15.8472 13.5501 15.7712C13.4947 15.6268 13.4057 15.5379 13.2835 15.5046C13.1793 15.4791 13.0702 15.481 12.9669 15.5102C12.6892 15.588 12.4836 15.7712 12.3558 16.0768C12.3447 15.8769 12.4114 15.6769 12.5614 15.4825C12.6336 15.3935 12.6725 15.3046 12.6781 15.2158C12.6778 15.1407 12.6479 15.0688 12.5947 15.0158C12.4448 14.8713 12.2503 14.9047 12.0114 15.1102C11.7726 14.8992 11.5781 14.8713 11.4337 15.0158C11.3781 15.0657 11.3504 15.1325 11.3504 15.2158Z" fill="#FF0A1C"/>
<path d="M9.17812 13.8492C11.034 14.3472 12.9884 14.3472 14.8442 13.8492C15.722 13.6271 16.1775 13.177 16.2331 12.4716C16.2441 12.4493 16.2441 12.4105 16.2441 12.3604L16.2387 12.2438C14.8902 12.7883 13.4539 13.082 12 13.1104C10.6669 13.1104 9.27811 12.8049 7.78379 12.2438V12.355C7.77824 12.4105 7.78379 12.4493 7.78935 12.4716C7.84491 13.177 8.30597 13.6271 9.17812 13.8492Z" fill="#E9A043"/>
<path d="M5.557 12.8049C5.62921 12.7714 5.70698 12.7548 5.76253 12.766C5.82364 12.777 5.85141 12.8049 5.85141 12.8603C5.85141 12.916 5.82364 12.9714 5.76253 13.0382C5.70698 13.1048 5.62921 13.1493 5.55144 13.1937C5.46811 13.2326 5.3959 13.2436 5.34034 13.2326C5.2848 13.2159 5.25146 13.1937 5.25146 13.1381C5.25146 13.0825 5.27924 13.027 5.34034 12.9604C5.3959 12.8937 5.47367 12.8438 5.55144 12.8049H5.557ZM7.40683 12.3215C7.40683 12.2438 7.39572 12.166 7.40683 12.0882C6.44024 12.066 5.7403 12.2826 5.27924 12.7437C5.09592 12.9215 4.95705 13.1437 4.8515 13.4047L4.46265 14.388C4.95263 13.937 5.58607 13.6733 6.25138 13.6436C6.85687 13.6381 7.24018 13.9436 7.41794 14.5491C7.59015 15.1602 7.56792 16.0823 7.34573 17.3156C7.01242 19.1486 7.16241 20.5431 7.79012 21.4929L7.73458 20.9208C7.41794 20.3208 7.41794 19.2599 7.71791 17.7377L7.73458 17.6544L7.79012 17.3988L7.79568 17.3822L7.78458 17.3655L7.80123 17.3711C8.21232 15.8768 8.24564 14.7713 7.88456 14.0602L8.66227 14.1047C8.48451 14.0492 8.3123 13.9659 8.17343 13.8714C7.91545 13.7017 7.7127 13.4603 7.59015 13.177C7.47904 12.9325 7.41794 12.6493 7.40683 12.3215Z" fill="#FF0A1C"/>
<path d="M7.79539 17.3878L7.80095 17.371H7.78428L7.79539 17.3822V17.3878ZM7.07878 14.5824L7.04546 14.5047C7.02324 14.4492 6.99546 14.3936 6.96212 14.3491L5.9511 15.8657C6.15664 15.9657 6.32885 16.0878 6.48439 16.2212C6.5955 16.299 6.68993 16.3935 6.77326 16.4934C6.81769 16.5379 6.85658 16.5933 6.90102 16.6489C6.95102 16.7156 7.00101 16.7878 7.03989 16.8655C7.22321 15.8156 7.23988 15.0546 7.07878 14.588V14.5824ZM6.81769 16.9712L6.69549 16.8045C6.48924 16.5598 6.23856 16.3561 5.95666 16.2045L5.22339 17.1656C5.53161 17.6974 5.88079 18.2045 6.26775 18.6821L6.57327 19.0377C6.63438 19.1099 6.70103 19.1821 6.77326 19.2487C6.75659 18.6488 6.81769 17.9822 6.96768 17.2378L6.97879 17.2101L6.81769 16.9656V16.9712ZM10.8285 16.7989L10.6229 16.7544C9.73412 16.61 9.25636 16.8378 9.17859 17.4434C9.0675 18.321 9.25636 18.9876 9.72298 19.4265L9.73412 19.4154H9.75071C9.63963 19.2098 9.62861 18.8821 9.72298 18.4321L9.91183 17.5211C10.0564 17.1211 10.3563 16.8767 10.8285 16.7989Z" fill="#FF0A1C"/>
<path d="M9.77862 19.4597C9.76799 19.4411 9.7527 19.4258 9.73416 19.4152L9.72314 19.4262C9.73416 19.4374 9.75088 19.4597 9.76747 19.4651L9.77862 19.4597ZM10.2452 18.3041V18.2764L10.1342 18.8375L10.1453 18.8541H10.1342C10.1009 19.6874 10.7174 20.4206 12.0007 20.8873C13.2783 20.4206 13.9228 19.6874 13.8893 18.8541H13.8839L13.8949 18.8375L13.7838 18.2764V18.3041C13.7727 18.332 13.7727 18.3541 13.7727 18.3763C13.7505 18.4875 13.7172 18.5875 13.656 18.6764C13.5005 18.8985 13.2117 19.0208 12.7839 19.0485H12.7562L12.3395 19.0541V19.5374C12.3395 19.693 12.3173 19.8151 12.2617 19.8928C12.2576 19.9044 12.2498 19.9141 12.2395 19.9207C12.2173 19.9596 12.1839 19.9762 12.1395 19.9985L12.0118 20.0374C11.9674 20.0262 11.9229 20.0151 11.8896 19.9985C11.8495 19.9825 11.8149 19.9556 11.7896 19.9207C11.7782 19.9137 11.7688 19.9042 11.7618 19.8928C11.7063 19.8096 11.684 19.693 11.684 19.5374V19.0541L11.2674 19.0485H11.2397C10.8119 19.0208 10.523 18.8985 10.3675 18.6764C10.3119 18.5875 10.2786 18.4875 10.2564 18.3763C10.2564 18.3541 10.2564 18.332 10.2452 18.3041Z" fill="#FF0A1C"/>
<path d="M10.1443 18.8543L10.1333 18.8376V18.8543H10.1443ZM13.8829 18.8543H13.894V18.8376L13.8829 18.8543ZM12.0108 18.2321H11.111L11.3553 18.6654H12.6886L12.9219 18.2321H12.0164H12.0108ZM10.8887 17.2767L10.5888 17.8321H13.4441L13.1441 17.2767H10.8887ZM18.2604 12.766C18.327 12.7548 18.3936 12.766 18.4714 12.8049C18.5547 12.8438 18.6269 12.8937 18.6881 12.9604C18.7436 13.027 18.7769 13.0825 18.7769 13.1381C18.7769 13.1937 18.7436 13.2159 18.6881 13.2326C18.6325 13.2436 18.5603 13.2326 18.4714 13.1937C18.3923 13.155 18.3208 13.1022 18.2604 13.0382C18.2047 12.9714 18.1714 12.916 18.1714 12.8603C18.1714 12.8049 18.1992 12.777 18.2604 12.766ZM19.1713 13.4047C19.078 13.1561 18.9322 12.9307 18.7436 12.7437C18.2881 12.2826 17.5826 12.066 16.6216 12.0882V12.3215C16.6049 12.6493 16.5438 12.9325 16.4327 13.177C16.3131 13.4605 16.1119 13.7022 15.855 13.8714C15.7105 13.9659 15.5494 14.0436 15.3661 14.1047L16.1438 14.0602C15.7773 14.7713 15.8106 15.8768 16.2272 17.3711H16.2383L16.2272 17.3822L16.2327 17.3988L16.2882 17.6544L16.3105 17.7377C16.6049 19.2599 16.6049 20.3208 16.2938 20.9208L16.2383 21.4929C16.8661 20.5485 17.016 19.1486 16.6826 17.3156C16.4605 16.0823 16.4327 15.1546 16.6049 14.5491C16.7827 13.9436 17.1716 13.6381 17.7714 13.6436C18.377 13.6436 18.9713 13.8881 19.5657 14.388L19.1713 13.4047Z" fill="#FF0A1C"/>
<path d="M16.2217 17.371V17.3822L16.2384 17.3656L16.2273 17.371H16.2217ZM18.2381 18.0488C18.4381 17.7655 18.627 17.4655 18.8048 17.1656L18.066 16.2045C17.916 16.2934 17.7715 16.3879 17.6383 16.499C17.5272 16.5933 17.4216 16.6934 17.3328 16.8045L17.2105 16.9712C17.1494 17.0434 17.0939 17.1267 17.0438 17.2101L17.055 17.2378C17.205 17.9822 17.266 18.6488 17.255 19.2487L17.4494 19.0377L17.7549 18.6821C17.9215 18.4765 18.0882 18.2654 18.2381 18.0488ZM15.3052 14.4658V14.3547C15.2773 14.3824 15.2551 14.4103 15.2274 14.4269C14.5885 14.9936 13.8108 15.1213 12.9053 14.8157C13.1497 14.9936 13.3998 15.1213 13.6387 15.2046C13.8941 15.2768 14.1386 15.3047 14.3885 15.2712C14.1775 15.4213 13.8941 15.4768 13.533 15.4379C13.933 15.9157 14.344 16.0545 14.7663 15.8491C15.1718 15.6546 15.3551 15.188 15.3052 14.4602V14.4658ZM16.9717 14.5047L16.9439 14.5824C16.7884 15.0546 16.7994 15.8156 16.9828 16.8601C17.0217 16.7878 17.0716 16.7156 17.1272 16.6489C17.2411 16.4859 17.3798 16.3415 17.5382 16.2212C17.6938 16.0824 17.8716 15.9657 18.0716 15.8657L17.0606 14.3491L16.9772 14.5047H16.9717Z" fill="#FF0A1C"/>
<path d="M14.5673 14.3545C14.2075 14.3418 13.8501 14.4201 13.5286 14.5822C13.973 14.7212 14.3174 14.6378 14.5673 14.3545ZM13.4008 16.7542L13.1953 16.7987C13.6619 16.8765 13.9674 17.1209 14.1118 17.5209L14.3063 18.4319C14.3952 18.8819 14.3896 19.2096 14.2785 19.4096L14.2951 19.4152L14.3063 19.393L14.3174 19.4096C14.7785 18.9653 14.9507 18.3152 14.8451 17.4432C14.7729 16.832 14.2897 16.6098 13.4008 16.7542ZM14.2452 19.4596L14.2951 19.4152H14.2785L14.2452 19.4596Z" fill="#FF0A1C"/>
<path d="M12.35 7.61099L12.2278 7.44434H11.8L11.6724 7.61099H12.35ZM14.0055 7.93874L13.9499 7.89985C13.5211 7.66106 13.0489 7.50999 12.5612 7.45544C13.1167 8.17761 13.35 8.97198 13.2555 9.84412C13.4511 9.13457 13.3737 8.37749 13.0389 7.72209C13.361 7.71653 13.6721 7.78876 14.0055 7.93874ZM16.1886 11.8273C16.333 11.7717 16.4774 11.6995 16.6218 11.6273C16.2822 10.6088 15.7546 9.66288 15.0664 8.83866C15.7232 9.70456 16.1131 10.7432 16.1886 11.8273ZM19.5771 18.9934L18.8217 17.5989C18.4545 18.3291 17.9767 18.998 17.4051 19.5821C17.3845 20.2118 17.245 20.8319 16.9941 21.4097C17.7899 21.2015 18.5057 20.7606 19.0494 20.1432C19.3438 19.7877 19.5216 19.3988 19.5771 18.9878V18.9934Z" fill="#FFA042"/>
<path d="M16.9941 21.4095C17.245 20.8317 17.3845 20.2116 17.4052 19.5819C17.344 19.6485 17.283 19.7097 17.2164 19.7652C17.1591 20.3811 16.9491 20.9731 16.6052 21.4873L16.9941 21.4095Z" fill="#FFFCAB"/>
<path d="M16.9772 14.5043L16.9439 14.5821C16.7884 15.0543 16.7994 15.8154 16.9828 16.8597C17.0217 16.7875 17.0716 16.7152 17.1272 16.6486C16.9605 15.9265 16.905 15.2098 16.9772 14.5043ZM15.3662 14.1044L16.1439 14.06C15.7828 14.7709 15.8107 15.882 16.2273 17.3818L16.2384 17.3652C15.9383 15.5821 16.0384 14.3266 16.5272 13.6044C16.3328 13.7489 16.0995 13.8433 15.8551 13.8711C15.7106 13.9655 15.5495 14.0433 15.3662 14.1044ZM12.9053 14.821C13.1497 14.9932 13.3998 15.1209 13.6387 15.1987C14.3996 15.2321 14.9329 14.9709 15.2274 14.421C14.5885 14.9932 13.8108 15.1209 12.9053 14.821Z" fill="#FFA042"/>
<path d="M14.567 14.3545C14.207 14.3418 13.8496 14.4201 13.5281 14.5822C13.9725 14.7212 14.3225 14.6378 14.567 14.3545ZM14.5891 17.2709L14.5947 17.2876C14.7225 17.6653 14.7614 18.0597 14.6946 18.4708C14.6392 18.843 14.5113 19.1597 14.3059 19.393L14.2948 19.4152C14.276 19.4275 14.2591 19.4424 14.2447 19.4596L14.2614 19.4652C14.7614 19.0207 14.9558 18.3541 14.8447 17.4432C14.7724 16.832 14.2892 16.6098 13.4004 16.7542C14.0614 16.7265 14.4559 16.882 14.578 17.2487L14.5891 17.2709Z" fill="#FFA042"/>
<path d="M14.2443 19.4595C14.2587 19.4423 14.2755 19.4274 14.2942 19.415H14.2776L14.2443 19.4595ZM12.3389 19.054V19.5372C12.3389 19.6928 12.3166 19.815 12.2611 19.8928C12.3833 19.7928 12.45 19.5761 12.4721 19.2429V19.2317H12.8833L12.9388 19.2151C13.4554 19.1374 13.7332 18.854 13.7721 18.3762C13.7498 18.4873 13.7165 18.5874 13.6554 18.6762C13.4999 18.8985 13.2109 19.0207 12.7832 19.0484H12.7555L12.3389 19.054ZM13.8943 18.854V18.8373L13.8831 18.854H13.8943ZM17.2106 16.9652C17.1495 17.043 17.0939 17.1263 17.044 17.2097L17.055 17.2374C17.2051 17.9818 17.2662 18.6484 17.255 19.2484L17.4495 19.0373C17.4409 18.3577 17.3665 17.6806 17.2273 17.0152L17.2106 16.9652ZM10.0835 7.89942L10.0279 7.9383C10.3501 7.78832 10.6668 7.7161 10.9835 7.72166C10.65 8.37548 10.5727 9.13031 10.7667 9.83814C10.6724 8.97155 10.9111 8.17162 11.4611 7.44946L11.089 7.50502C10.7334 7.58833 10.3946 7.72166 10.0835 7.89387V7.89942ZM12.0111 6.62732C11.5444 6.70509 11.2557 6.92173 11.1279 7.27725C11.2557 6.94395 11.5444 6.7773 12.0166 6.79397C12.4777 6.78285 12.7722 6.9384 12.8943 7.27725C12.7722 6.92173 12.4777 6.70509 12.0111 6.62732ZM7.8448 11.8269C7.93924 10.6603 8.31142 9.66038 8.95581 8.83823C8.26625 9.66146 7.73853 10.6076 7.40039 11.6269C7.55038 11.6991 7.69482 11.7657 7.8448 11.8269ZM10.3835 15.1988C10.6223 15.121 10.8722 14.9932 11.1167 14.8211C10.2112 15.121 9.43906 14.9932 8.79472 14.4266C9.08913 14.971 9.62792 15.2321 10.3835 15.2044V15.1988Z" fill="#FFA042"/>
<path d="M10.501 14.5821C10.1794 14.4199 9.82204 14.3416 9.46222 14.3543C9.70655 14.6433 10.0511 14.721 10.4954 14.5821H10.501ZM7.88455 14.06L8.66226 14.1044C8.47894 14.0488 8.31229 13.9655 8.1734 13.8711C7.92974 13.8431 7.69782 13.7511 7.50124 13.6044C7.99008 14.3266 8.08452 15.5821 7.78455 17.3652L7.79566 17.3818C8.21229 15.882 8.24007 14.7709 7.88455 14.06ZM7.07906 14.5821L7.04573 14.5043C7.1235 15.2098 7.06796 15.9265 6.90129 16.6486C6.9513 16.7152 7.00129 16.7875 7.04018 16.8653C7.2235 15.8154 7.24015 15.0543 7.07906 14.5877V14.5821ZM6.96796 17.2374L6.97906 17.2097L6.81797 16.9652L6.80131 17.0153C6.66243 17.6873 6.5791 18.3595 6.5791 19.0373C6.63466 19.1095 6.70132 19.1817 6.77353 19.2483C6.75687 18.6485 6.81797 17.9818 6.96796 17.2374ZM9.43435 17.2707L9.4455 17.2486C9.57888 16.8819 9.96773 16.7264 10.6232 16.7541C9.73442 16.6097 9.25665 16.8374 9.17888 17.443C9.06777 18.354 9.2622 19.0206 9.76773 19.4651L9.77888 19.4595C9.76812 19.4411 9.75283 19.4256 9.73442 19.415L9.72327 19.3929C9.51213 19.1595 9.38996 18.8429 9.33442 18.4706C9.26572 18.0687 9.30013 17.6558 9.43435 17.2707Z" fill="#FFA042"/>
<path d="M9.7334 19.4151C9.74999 19.4261 9.76671 19.4373 9.77786 19.4596L9.74999 19.4095L9.7334 19.4151ZM10.3666 18.6763C10.3111 18.5874 10.2722 18.4874 10.2555 18.3762C10.2888 18.854 10.5666 19.1373 11.0832 19.2151L11.1443 19.2263L11.1999 19.2317H11.5554V19.2428C11.572 19.5762 11.6444 19.7928 11.761 19.8928C11.7054 19.8095 11.6832 19.6929 11.6832 19.5373V19.054L11.2665 19.0484H11.2388C10.811 19.0207 10.5221 18.8985 10.3666 18.6763ZM10.1444 18.854L10.1333 18.8374V18.854H10.1444Z" fill="#FFA042"/>
<path d="M7.78369 12.2438C8.65584 12.8659 10.0612 13.2215 12.0111 13.2993C13.9609 13.2215 15.372 12.8659 16.2385 12.2438C14.8947 12.7812 13.4637 13.0672 12.0167 13.0882C10.6834 13.0938 9.27801 12.8105 7.78369 12.2438Z" fill="#FFFCAB"/>
<path d="M5.2011 17.5987L4.45117 18.9874C4.50673 19.3986 4.68448 19.7874 4.9789 20.1429C5.52292 20.76 6.2385 21.2009 7.03428 21.4095C6.7852 20.831 6.64581 20.2113 6.62321 19.5819C6.47877 19.4319 6.34545 19.2764 6.21212 19.1152C5.81741 18.6486 5.47815 18.1379 5.2011 17.5931V17.5987Z" fill="#FFA042"/>
<path d="M6.80661 19.7652C6.73995 19.7097 6.68441 19.6485 6.62329 19.5819C6.67885 20.3652 6.81772 20.9706 7.03437 21.4095L7.41767 21.4873C7.07384 20.9731 6.8638 20.3811 6.80661 19.7652Z" fill="#FFFCAB"/>
<path d="M14.478 2.56104C14.821 3.20206 15.0146 3.91226 15.0447 4.63863C15.1247 6.2884 14.7314 7.92665 13.9114 9.36042C13.5285 10.027 13.0146 10.609 12.4005 11.0713C12.283 10.9233 12.153 10.7857 12.0116 10.6603C11.8727 10.7825 11.7394 10.9214 11.6228 11.0713C11.0112 10.6056 10.4994 10.0219 10.1174 9.35488C9.29732 7.92109 8.90414 6.28284 8.9841 4.63307C9.03964 3.82759 9.22296 3.13876 9.5507 2.56104C8.4397 3.53317 7.68421 4.50531 7.28425 5.49411C6.9065 6.44402 6.9065 7.27172 7.29536 7.96055C6.44544 8.53828 6.48987 9.50486 7.43423 10.8825C7.57867 10.2159 7.76754 9.83816 7.9953 9.73817C8.24528 9.62707 8.5508 9.90482 8.92299 10.5714C9.66178 12.0546 10.4229 13.1378 11.2062 13.8212C11.4505 13.96 11.7117 14.0266 12.0116 14.0156C12.3116 14.0266 12.5782 13.96 12.8171 13.8212C13.5948 13.1378 14.3613 12.0546 15.1057 10.5714C15.4724 9.90482 15.7779 9.62707 16.028 9.73817C16.2613 9.83816 16.4446 10.2159 16.5945 10.8825C17.5389 9.50486 17.5778 8.53828 16.7389 7.96055C17.1222 7.27172 17.1222 6.44402 16.7389 5.49411C16.3445 4.51085 15.5891 3.53317 14.478 2.56104Z" fill="black"/>
<path d="M15.1896 3.75002C15.2674 4.10554 15.3284 4.45551 15.3561 4.80548C15.4006 5.59986 15.2674 6.52756 14.9729 7.56634C14.5174 9.17177 13.7397 10.3939 12.6397 11.2327C12.8889 11.5713 13.0718 11.9539 13.1786 12.3604C13.2286 12.5271 13.2563 12.6936 13.2675 12.8715C13.8557 12.0734 14.3831 11.2322 14.8452 10.355C15.5228 9.2162 16.0784 9.01066 16.5227 9.74393C16.5783 9.84393 16.6339 9.94391 16.6782 10.055C17.2116 9.13288 17.095 8.46071 16.3173 8.02742C17.0061 6.76642 16.695 5.38321 15.3896 3.8889L15.1507 3.6167L15.1784 3.72225L15.1896 3.75002ZM8.66791 4.80548C8.70124 4.45551 8.75679 4.10554 8.83456 3.75002L8.84568 3.72225L8.879 3.6167L8.63458 3.89446C7.33469 5.38321 7.02361 6.76642 7.70688 8.02742C6.92917 8.46071 6.81251 9.13843 7.35136 10.055C7.39579 9.94391 7.4458 9.84393 7.5069 9.74393C7.95131 9.01066 8.50682 9.2162 9.17898 10.355C9.70674 11.3326 10.2344 12.1715 10.7566 12.8715C10.8216 12.2813 11.0357 11.7173 11.3788 11.2327C10.29 10.3939 9.51232 9.17731 9.05121 7.56634C8.77227 6.67154 8.64277 5.73686 8.66791 4.79993V4.80548ZM12.012 11.7271C12.1843 11.9159 12.3121 12.1159 12.412 12.3215V12.3492C12.462 12.4437 12.4898 12.5326 12.4953 12.5993C12.5287 12.8048 12.5009 12.977 12.412 13.1103C12.3701 13.1709 12.3125 13.2188 12.2453 13.2492C12.1756 13.2731 12.1025 13.2862 12.0287 13.288H11.9898C11.9121 13.288 11.8399 13.2715 11.7677 13.2492C11.7045 13.2173 11.6509 13.1693 11.6121 13.1103C11.5175 12.9578 11.4857 12.7746 11.5232 12.5993C11.5344 12.5326 11.5621 12.4437 11.601 12.3492L11.6121 12.3215C11.7121 12.0993 11.8454 11.8993 12.0066 11.7271H12.012ZM11.1565 12.5604C11.1176 12.7937 11.1288 12.9937 11.1844 13.1602C11.2066 13.238 11.2399 13.3103 11.2955 13.377C11.4066 13.5325 11.5621 13.6214 11.7621 13.6492C11.8454 13.6658 11.9288 13.6713 12.0066 13.6769C12.0843 13.6713 12.1731 13.6658 12.262 13.6492C12.4565 13.6214 12.612 13.5325 12.7287 13.3714C12.7787 13.3158 12.812 13.238 12.8397 13.1602C12.8953 12.9937 12.9064 12.7937 12.8675 12.5659C12.8369 12.4157 12.7923 12.2689 12.7342 12.1271C12.5572 11.7456 12.3125 11.3993 12.012 11.1049C11.7101 11.398 11.4653 11.7446 11.2899 12.1271C11.23 12.2682 11.1854 12.4153 11.1565 12.5659V12.5604Z" fill="#FFA042"/>
<path d="M16.3161 8.07746C16.2162 8.17189 16.0273 8.2219 15.7273 8.21078C16.7606 8.46632 17.0717 9.09403 16.6717 10.0995C17.2105 9.18291 17.0938 8.51075 16.3161 8.07746ZM15.3551 4.85552C15.3996 5.6499 15.2662 6.57204 14.9719 7.61639C14.5108 9.2218 13.7385 10.4439 12.6387 11.2828C12.7331 11.4049 12.7943 11.505 12.8276 11.5604C13.3127 11.2436 13.7208 10.8223 14.0219 10.3273C14.383 9.78842 14.6829 9.18847 14.9163 8.51631C15.3384 7.32753 15.4884 6.10542 15.3607 4.84998L15.3551 4.85552ZM8.29465 8.21078C8.00022 8.2219 7.8058 8.17189 7.70581 8.07746C6.9281 8.51075 6.81701 9.18291 7.35584 10.0995C6.95032 9.09403 7.26696 8.46632 8.29465 8.21078ZM8.67238 4.84998C8.46069 6.77658 8.93043 8.71648 10.0001 10.3328C10.3017 10.8293 10.712 11.2509 11.2 11.566C11.2277 11.5105 11.2943 11.4105 11.3833 11.2882C10.2889 10.4495 9.51118 9.22736 9.05569 7.62195C8.77487 6.72745 8.64349 5.79278 8.66684 4.85552L8.67238 4.84998ZM11.1555 12.6159C11.1166 12.8382 11.1278 13.0381 11.1833 13.2103C11.0889 12.5993 11.3665 12.016 12.0166 11.4328C12.6609 12.016 12.9387 12.5993 12.8387 13.2103C12.8942 13.0437 12.9109 12.8437 12.872 12.6159C12.84 12.4637 12.7935 12.3149 12.7331 12.1716C12.556 11.7901 12.3113 11.4438 12.011 11.1494C11.7085 11.4442 11.4636 11.7927 11.2888 12.1772C11.229 12.3183 11.1843 12.4653 11.1555 12.6159Z" fill="#FFFCAB"/>
<path d="M11.6111 13.1603C11.5185 13.0069 11.4886 12.8239 11.5277 12.6492C11.5389 12.577 11.5666 12.4937 11.6055 12.3992C11.3612 12.8825 11.3889 13.2102 11.6833 13.399C11.7833 13.4602 11.8888 13.4991 12.0166 13.4991C12.1389 13.4991 12.2444 13.4602 12.3443 13.399C12.6388 13.2102 12.6665 12.8825 12.4221 12.3992C12.461 12.4937 12.4888 12.577 12.4999 12.6492C12.5333 12.8546 12.5054 13.0269 12.4111 13.1603C12.3714 13.2173 12.3179 13.2632 12.2555 13.2935C12.1842 13.32 12.1092 13.335 12.0332 13.338H11.9943C11.9166 13.338 11.8444 13.3213 11.7722 13.2935C11.7098 13.2632 11.6563 13.2173 11.6166 13.1603H11.6111Z" fill="#FFFCAB"/>
</svg>
