<svg xmlns="http://www.w3.org/2000/svg" width="24" height="24" fill="none" viewBox="0 0 24 24">
    <path fill="#246DD3" d="M11.785 4.05c.393-.201.876.255.663.64-.115.304-.573.385-.819.152-.246-.224-.164-.673.164-.8zm-4.217.44c.245-.097.54.112.516.36.024.272-.32.48-.565.344-.32-.12-.279-.625.049-.705m8.646.713c-.377-.049-.434-.61-.082-.721.287-.129.54.112.581.368-.057.216-.245.417-.499.353m-7.688 1.01c.4-.24.966.12.9.56-.016.457-.63.721-.982.417-.344-.24-.287-.793.082-.977m6.083.264c.18-.44.9-.457 1.105-.032.197.336-.049.753-.409.865-.466.08-.917-.4-.696-.833m-3.332.801c0-.376.36-.657.737-.68.245.047.516.151.622.392.196.328.025.785-.336.945-.164.08-.36.048-.54.04-.27-.128-.5-.384-.483-.689zm-6.272.56c.36-.215.852.177.712.562-.073.32-.532.456-.794.248-.278-.2-.237-.673.082-.81m13.477 0c.31-.24.819.033.778.401.024.345-.41.61-.72.433-.337-.152-.377-.64-.058-.833m-5.437.682c.256-.083.531-.082.786.003s.473.25.623.47c.376.528.18 1.345-.418 1.65-.614.368-1.514.055-1.743-.601-.263-.593.114-1.338.752-1.522m-2.988.056c.565-.257 1.326-.04 1.596.512.328.545.074 1.298-.499 1.578-.573.32-1.392.08-1.662-.504-.32-.56-.041-1.33.565-1.586M7.06 9.56c.041-.352.385-.577.737-.6.369.04.663.32.704.68-.025.36-.31.72-.704.72-.442.033-.819-.392-.737-.8m8.843-.529c.45-.24 1.064.12 1.048.61.033.528-.655.896-1.097.592-.467-.256-.434-.977.049-1.202m-7.066 1.85a1.25 1.25 0 0 1 .785.054c.248.1.456.28.59.507a1.14 1.14 0 0 1-.27 1.458c-.557.505-1.588.297-1.883-.384-.344-.626.065-1.467.778-1.635m5.674 0c.508-.144 1.105.049 1.375.49.369.512.189 1.28-.343 1.601-.574.385-1.442.185-1.753-.416-.376-.617 0-1.49.72-1.682zm-9.047.57c.45-.16.95.32.77.752-.116.393-.688.537-.983.24-.352-.264-.221-.872.213-.993m12.256.632a.67.67 0 0 1 .175-.482.7.7 0 0 1 .472-.223c.303.048.606.288.582.617.032.425-.508.721-.885.513-.18-.08-.27-.256-.344-.425m-14.483-.417c.278-.111.614.113.548.4-.016.33-.516.458-.704.186-.164-.193-.065-.481.164-.586zm17.153 0c.196-.135.499-.047.573.169.13.24-.107.56-.377.52-.385.032-.516-.528-.196-.696zm-10.08 1.57c.713-.176 1.483.4 1.49 1.106.042.72-.712 1.362-1.448 1.194a1.2 1.2 0 0 1-.714-.408 1.16 1.16 0 0 1-.277-.762c0-.52.41-1.017.95-1.121zm2.834 0c.728-.192 1.515.393 1.506 1.122.04.697-.696 1.314-1.416 1.17-.672-.08-1.171-.793-.983-1.426.098-.417.459-.761.893-.865m-5.47.44c.508-.08.983.458.77.914-.147.489-.885.625-1.212.225-.385-.385-.098-1.09.442-1.138m8.319.025c.442-.184.999.192.958.657.025.512-.655.873-1.097.569-.492-.273-.41-1.065.139-1.226m2.317 2.243c-.172-.32.148-.737.508-.68.18 0 .31.135.425.255.025.185.066.401-.098.553-.221.265-.712.184-.835-.128m-13.313-.593c.336-.216.819.112.745.489-.04.345-.483.537-.77.345-.31-.177-.303-.673.025-.834m6.706.713c.442-.192 1.007.184.966.65.032.519-.663.88-1.097.568-.492-.265-.41-1.058.13-1.218m-3.112.697c.385-.192.893.136.852.545.016.336-.328.625-.663.568-.287 0-.475-.248-.565-.48 0-.256.115-.537.385-.64zm6.305 0c.385-.232.933.104.9.537.009.465-.614.753-.982.456-.344-.24-.303-.801.082-.985zm1.089 2.603c-.172-.24.032-.553.31-.608.23.048.467.207.41.456-.025.345-.54.449-.72.16zm-8.687-.216c.065-.2.229-.4.475-.345.36.025.466.545.155.705-.286.177-.606-.071-.63-.36m4.192.232c.065-.296.466-.44.728-.28.164.072.222.256.262.417l-.065.24c-.107.128-.246.248-.418.24-.335.04-.638-.32-.507-.617"/>
</svg>
