<svg xmlns="http://www.w3.org/2000/svg" width="24" height="24" fill="none" viewBox="0 0 24 24">
    <path fill="#fff" fill-rule="evenodd" d="M5.236 8.456c.071 0 .132.06.112.126-.04.127-.279.167-.527.203-.202.035-.405.07-.516.152a.69.69 0 0 0-.284.541v4.983c0 .319.258.577.577.577h2.097c.557 0 .845-.557 1.063-.977l.076-.132c.02-.05.05-.08.111-.08.081 0 .142.07.127.151l-.289 1.393a.2.2 0 0 1-.187.151H2.112c-.07 0-.131-.06-.101-.126.04-.096.202-.132.37-.167.111-.02.227-.05.314-.091a.57.57 0 0 0 .313-.512v-5.23a.7.7 0 0 0-.202-.481c-.106-.102-.268-.132-.42-.167-.173-.036-.33-.071-.38-.188-.025-.066.035-.126.101-.126zm7.9 4.81a2.278 2.278 0 1 1-4.558 0 2.278 2.278 0 0 1 4.557 0m-.912-.177c.137 1.103-.36 2.076-1.114 2.177-.76.101-1.489-.714-1.625-1.823-.142-1.104.354-2.076 1.114-2.177.754-.101 1.478.714 1.62 1.823zm3.696 2.455a2.278 2.278 0 1 0 0-4.556 2.278 2.278 0 0 0 0 4.556m.253-.278c.755-.101 1.251-1.074 1.114-2.177-.146-1.11-.87-1.924-1.63-1.823-.755.101-1.25 1.073-1.114 2.177.142 1.109.87 1.924 1.625 1.823zm4.259-5.114h-.03c-.061 0-.107.06-.153.116l-.01.015q-.43.48-.962.841a.2.2 0 0 0-.066.142v.04c0 .107.081.188.188.188h.04c.102 0 .279.1.279.202v2.598c0 .8.567 1.25 1.266 1.25.374 0 .835-.273 1.012-.76.026-.065-.086-.1-.131-.05-.659.466-1.367.203-1.367-.633v-2.405a.2.2 0 0 1 .192-.197h1.114a.19.19 0 0 0 .192-.188v-.126a.193.193 0 0 0-.192-.193H20.69a.19.19 0 0 1-.193-.192v-.577a.066.066 0 0 0-.065-.066z" clip-rule="evenodd"/>
</svg>
