<svg xmlns="http://www.w3.org/2000/svg" width="24" height="24" fill="none" viewBox="0 0 24 24">
    <path fill="#30BFBD" fill-rule="evenodd" d="M17.85 7.725h-.45v1.8h.45zm-8.1.45h-.9v8.1h.9v-2.7a1.8 1.8 0 1 1 3.6 0v2.7h.9v-2.7a2.701 2.701 0 0 0-4.5-2.011zm-4.05 8.1c.693 0 1.323-.26 1.8-.688v.688h.9v-2.7a2.7 2.7 0 1 0-2.7 2.7m0-.9a1.8 1.8 0 1 0 0-3.6 1.8 1.8 0 0 0 0 3.6m11.7.9c.693 0 1.323-.26 1.8-.688v.688h.9v-2.7a2.7 2.7 0 1 0-2.7 2.7m0-.9a1.8 1.8 0 1 0 0-3.6 1.8 1.8 0 0 0 0 3.6m-2.781-6.858-.355.356 1.417 1.422.36-.36zM21 8.85l-.355-.355-1.418 1.422.355.36z" clip-rule="evenodd"/>
</svg>
