<svg xmlns="http://www.w3.org/2000/svg" width="24" height="24" fill="none" viewBox="0 0 24 24">
    <path fill="url(#AIMX__a)" d="m10.475 3.016-.093.072c-1.358 1.415-.508 4.583-1.251 7.078-.7 2.36-4.297 3.703-5.82 5.147a3.568 3.568 0 1 0 4.898 5.162h.014c.272-.264.479-.593.615-.95l.036-.1v-.036a3 3 0 0 0 .143-.444c.686-2.516.257-6.792.843-8.322.737-1.923 2.066-2.895 3.175-3.96.765-.73 1.25-1.502 1.136-2.346v-.05a2.143 2.143 0 0 0-2.652-1.859c-.4.1-.765.315-1.044.608M17.71 19.51a2.145 2.145 0 1 0 4.29 0 2.145 2.145 0 0 0-4.29 0"/>
    <defs>
        <linearGradient id="AIMX__a" x1="4.936" x2="18.746" y1="5.496" y2="19.55" gradientUnits="userSpaceOnUse">
            <stop stop-color="#135554"/>
            <stop offset="1" stop-color="#00A790"/>
        </linearGradient>
    </defs>
</svg>
