<svg xmlns="http://www.w3.org/2000/svg" width="24" height="24" fill="none" viewBox="0 0 24 24">
    <path fill="#000" d="M4.441 13.176a7.66 7.66 0 0 0 6.382 6.395V22A10.07 10.07 0 0 1 2 13.176zm6.382-8.747a7.66 7.66 0 0 0-6.382 6.394H2A10.07 10.07 0 0 1 10.824 2zm8.736 6.394a7.65 7.65 0 0 0-6.383-6.394V2A10.07 10.07 0 0 1 22 10.824zm-6.383 8.748a7.66 7.66 0 0 0 6.383-6.395H22A10.07 10.07 0 0 1 13.176 22zm-2.953-4.042h-3.57L8.44 12h3.347L10.23 9.276 12 6.118l5.353 9.411h-3.547L11.9 12.206z"/>
</svg>
