<svg xmlns="http://www.w3.org/2000/svg" width="24" height="24" fill="none" viewBox="0 0 24 24">
    <path fill="url(#AIT__a)" d="M10.11 5.983a1.76 1.76 0 0 0-1.055-.65h4.061c.65 0 1.078.611 1.211.911l4.34 7.923v3.472c-.095.684-.523 1.034-1.006 1.034-.39 0-.972-.64-1.111-.956L10.944 7.011l-.828-1.028z"/>
    <path fill="url(#AIT__b)" d="M12.239 15.89H6.127c-.183.088-.578.277-.628.316-.044.039-.372 1.655-.528 2.46h8.323c.206 0 .333-.227.233-.41z"/>
    <path fill="url(#AIT__c)" d="M6.205 15.978c-1.056 2.033.933 2.678.983 2.689H3.46c-1.683 0-1.572-1.356-1.305-2.033 1.76-3.328 5.31-10.056 5.433-10.34.15-.355.578-.961 1.3-.961.578 0 .978.317 1.1.472L10.933 7c-1.223 2.317-3.89 7.35-4.728 8.978"/>
    <path fill="url(#AIT__d)" d="M22 17.845a.813.813 0 0 1-.806.822H17.59c.739 0 1.01-.667 1.077-1v-11.7c0-.35.323-.64.667-.64h2.04c.35 0 .627.29.627.64z"/>
    <defs>
        <linearGradient id="AIT__a" x1="4.428" x2="14.158" y1="6.056" y2="21.882" gradientUnits="userSpaceOnUse">
            <stop stop-color="#06A9EE"/>
            <stop offset="1" stop-color="#00529B"/>
        </linearGradient>
        <linearGradient id="AIT__b" x1="3.307" x2="21.596" y1="11.466" y2="11.466" gradientUnits="userSpaceOnUse">
            <stop stop-color="#134491"/>
            <stop offset="1" stop-color="#00ADF0"/>
        </linearGradient>
        <linearGradient id="AIT__c" x1="11.999" x2="11.999" y1="5.327" y2="18.672" gradientUnits="userSpaceOnUse">
            <stop stop-color="#0458A0"/>
            <stop offset="1" stop-color="#00ACE8"/>
        </linearGradient>
        <linearGradient id="AIT__d" x1="19.783" x2="19.783" y1="5.333" y2="18.667" gradientUnits="userSpaceOnUse">
            <stop stop-color="#05599F"/>
            <stop offset="1" stop-color="#00ADF0"/>
        </linearGradient>
    </defs>
</svg>
