<svg xmlns="http://www.w3.org/2000/svg" width="24" height="24" fill="none" viewBox="0 0 24 24">
    <path fill="#141414" d="M7.407 4.55A28 28 0 0 1 9.27 2.817l1.962.875 5.22 2.46.21 2.669v.918l.174-.15.426-.244.211.113.108 1.06c-.038.119-.119.378-.162.437-.054.065-.346.973-.486 1.416h-.27l-.53 2.14-.68 1.227v1.335l.972 1.648 1.518 1.091c-.54-.194-1.659-.578-1.761-.578-.108 0-.325.524-.416.79l.918.577-1.389-.394v-1.092l-.513.703-.286 1.248v-.854l-.584-.497-1.135.497.54 1.789-1.064-1.783h-.162l-1.06.102-1.026-.502-.61.675-.59 1.081c.108-.4.303-1.21.281-1.254-.016-.048-.54-.821-.794-1.2l-.39.595-1.166 1.448.87-1.783-.422-.34.422-.54.53-1.525.07-1.286-.503-1.362-.314-2.29-.567-3.313v-2.4l.59-1.772z"/>
    <path fill="#777" d="M10.103 15.294c-.162-.12-.486-.368-.497-.4l.61-.135 1.746.086v.39h1.61l-.054.27-1.524.205v.551l-1.642-.4h-.99l.617-.216.189-.108 1.75.221v-.524l-1.042-.102z"/>
    <path fill="#383838" d="m16.842 6.928-.324-1.442c-.352.162-1.07.502-1.157.583-.108.097-.13 1.26-.065 1.546.065.291.611.735.698.778s.302.41.335.54c.027.103.232.184.324.216l.189-.886z"/>
    <path fill="#323031" d="m10.222 10.884-.967.222.54.405-.124.503.61-.32c.098-.156.298-.475.303-.502 0-.022-.237-.216-.362-.308"/>
    <path fill="#2D2D2D" d="M7.445 9.75c.016-.06-.07-.471-.12-.67h-.237l-.06 1.507.282 1.254.297 2.29.551 1.211 1.789 2.356 1.907.806c.244.005.757.016.843 0 .108-.022 2.14-.714 2.232-.779.076-.048.357-.475.486-.686l.103-1.275.676-1.173.21-1.113.308-1.232-.448 1.35-.2.903-1.049 1.405-.88.416-1.216.044h-.995l-.453.162v.41l.605.109c.07 0 .032.135 0 .205l1.562.135-1.206.54h-.508l-.94-.297-.524-.162-.686-.875-.497-.411-.368-.838.238-1.243.292-1.102-.8-.34h-.681l-.13-1.022-.291-.335-.092-.465-.244-.416z"/>
    <path fill="#B4B4B4" d="m14.102 11.506.173-.703.675-.07c.514 0 1.535.005 1.502.065-.032.059-.237.864-.335 1.264l-.945-.47-.438.546v.837l.119 1.011q-.073.357-.243.68c-.044 0-.357.18-.508.266l-.919-.27-1.33.08-.237-.41.908-.746h.405l.449.292-.2-.903-.465-.383-.74.383v.66h-.59l.4-.19-.335-.145-.459.286-.41-.486.864-.508.065-2.351.405-.205z"/>
    <path fill="#DADADA" d="M15.112 10.57c-.291.082-.88.233-.897.244l.433.038.864.232.038.789.432-.61.444-.18.021-.54-.465-.07-.594-.086z"/>
    <path fill="#535353" d="M9.568 5.599c.054-.07.19-.205.303-.238l5.015-.767 1.562.513.297 1.313-.297.2-.4-.67.054.67.065 1.276h-.357v.362h-2.178l-1.8.513-2.08-.513v-.935l.605-.497-.783-1.227z"/>
    <path fill="#A0A0A0" d="m8.547 3.535.767-.784 2.784.33.896 4.485-1.242 1.33V4.88l-1.373 1.924-.481-1.346-.27-.637-.492.335-.448-.681h-.649z"/>
    <path fill="#F8F9F4" d="M10.14 3.405a18 18 0 0 0-.82-.665l.989-.454L11.827 2l1.497.286 1.48.703 1.06 1.064.416.66.162.351.049.654-.211-.054-.216.313-.26-.918-.292.918-.416-1.016h-.616l.487 1.303-.103.351.843.627-.405.627.502.55-.232.25-1.092-.163-.918-.21-.52-.73-1.269-.756V3.242l-1.567 1.07z"/>
    <path fill="#949494" d="m6.79 9.97.184.422v.584l-.113-.178v-.276l-.163-.313-.221-.238H6.26l-.06.238.162.962.292.864c.043.195.135.595.135.632 0 .043.195.114.292.146l.292-.086v.265h-.4l-.324-.325-.097-.47-.292-.956-.12-.508-.086-.87.146-.379.595.487z"/>
    <path fill="#B3B3B3" d="m9.087 10.241-.378-.178-.108.178.27.249h.573l.389.124-.124-.27z"/>
    <path fill="#A8A8A8" d="m10.249 8.89-.594.243.875.4.708.449.162-.314-.162-.27z"/>
    <path fill="#F8F9F4" d="M11.865 12.71V9.642h.389l.19.649.448.15 1.043.86.594.838-.48-.173-.995.438.243-.687h-.34l-.514.249v.535z"/>
    <path fill="#F3F3F3" d="M12.854 13.58c-.298.163-.898.487-.925.52l.476.632 1.221.065 1.21-.698-.767-.156-.443-.552q.38-.09.74-.237c.082-.054-.459.021-.74.07l-.389-.205z"/>
    <path fill="#D7D7D7" d="m10.12 15.218.118-.465.233.368.237-.368.303.27c.07-.064.205-.21.227-.27.022-.054.308.222.443.368h-.627z"/>
    <path fill="#F9F9F9" d="M12.405 15.677c-.08-.108-.254-.335-.27-.372h1.135v.243z"/>
    <path fill="#F1F1F1" d="m16.799 10.128-.195-.379.622-.46.21.163-.216.184-.421.486zm-.233 1.383.362-.384.076.486-.367.228z"/>
    <path fill="#919191" d="m17.215 11.16.297-.503c0 .378-.2.892-.297 1.097-.092.227-.27.73-.27.919 0 .184-.217.054-.32-.038l-.032-.513.308.189.152-.487c-.076.054-.238.162-.255.19-.021.021-.145-.011-.205-.033v-.157l.351-.135.141-.065z"/>
    <path fill="#6B6B6B" d="m15.675 17.299-.2-1.06-.146 1.243.2.514.248.556.649.146-.757-1.4z"/>
    <path fill="#505050" d="M8.012 17.174c0-.07.119-1.032.178-1.508l.065 1.514-.065.95-.967.73c.108-.162.335-.486.373-.53.043-.053.416-1.064.416-1.156"/>
    <path fill="#5A5859" d="m9.265 17.596-.962-1.74 1.168 1.108c.518.302 1.567.907 1.62.945.055.033.552.433.795.632v.908l-.643-.102c-.292-.125-.918-.39-1.027-.454a10 10 0 0 1-.95-1.297"/>
    <path fill="#A5A5A5" d="M6.774 6.393 7.4 4.578 6.947 6.16l-.065.848h.27l-.157.395.163.74.243.973-.243.616v1.189l.243.978.157 1.027.232 1.448.232.74 1.173.978.53.973.697.395.497-.125.578.357h.378v.843l-.556-.178-.72-.379-.875-.648-1.702-1.789-.465-1.167c-.07-.508-.205-1.546-.232-1.627a47 47 0 0 1-.324-1.567v-.74l-.227-2.108V6.388z"/>
    <path fill="#6E6C6D" d="m13.637 16.91-.184-.709h.384l.465-.588.238.718-.411.314-.486.264z"/>
    <path fill="#FAFAFA" d="m11.968 17.034-.07-.703.983-.14.324-.108.222-.184.34.292-.227.216-.243.443-.184.086-.291-.037z"/>
    <path fill="#1C1C1C" d="m7.952 9.284.325.6.437.092.308.12c.033.01.427.053.622.07l-.206-.53h.508c.055 0 .633.265.92.394l-.239-.475-1.08-.622-.833-.27-.756.621z"/>
    <path fill="#AFAFAF" d="m8.401 10.046-.303-.583.79.07.41-.07.395.113-.665.179z"/>
    <path fill="#3D3D3D" d="m13.783 9.263-.405.519.978-.098.773.038-.714-.362-.627-.097z"/>
    <path fill="#999" d="m14.929 10.106-.93.113c.173.038.557.12.703.125.189.005.438-.125.524-.125.07 0 .248-.075.324-.119l-.27-.156c-.108.054-.324.162-.351.162"/>
</svg>
