<svg width="24" height="24" viewBox="0 0 24 24" fill="none" xmlns="http://www.w3.org/2000/svg">
<path d="M4.1625 18.7968C3.84317 18.4266 3.55076 18.034 3.2875 17.6219L8.89373 12.0032L3.27499 6.38442C3.54374 5.97192 3.8375 5.57817 4.15624 5.20941L10.9562 12.0032L4.1625 18.7968ZM2.5375 7.74067C2.325 8.22816 2.14375 8.74066 2 9.25323L4.74999 12.0032L2 14.7469C2.14375 15.2594 2.325 15.7657 2.54375 16.2532L6.80623 12.0032L2.54375 7.74067H2.5375ZM11.9999 13.0532L5.20624 19.8407C5.57499 20.1656 5.96874 20.4532 6.38123 20.7157L11.9999 15.1094L17.625 20.7281C18.0312 20.4656 18.4249 20.1656 18.7937 19.8531L11.9999 13.0469V13.0532ZM16.2625 21.4595L11.9999 17.1906L7.73748 21.4532C8.22498 21.6719 8.73748 21.8532 9.24997 21.9968L11.9999 19.2469L14.7436 21.9968C15.2634 21.8555 15.7712 21.6738 16.2625 21.4532V21.4595ZM11.9999 10.9595L18.7937 4.16567C18.4234 3.84636 18.0307 3.55395 17.6187 3.29068L11.9999 8.89692L6.38123 3.27818C5.96874 3.54692 5.57499 3.84067 5.20624 4.15942L11.9999 10.9595ZM21.4562 16.2656C21.6749 15.7781 21.8562 15.2719 22 14.7594L19.2499 12.0032L22 9.25323C21.8562 8.73442 21.6749 8.22816 21.4562 7.73441L17.1875 12.0032L21.4499 16.2656H21.4562ZM15.0999 12.0032L20.7187 6.38442C20.4562 5.97192 20.1562 5.57817 19.8437 5.20941L13.0437 12.0032L19.8312 18.7968C20.1562 18.4219 20.4499 18.0344 20.7062 17.6219L15.1062 12.0032H15.0999ZM11.9999 6.81566L16.2625 2.54693C15.7731 2.32684 15.2675 2.14504 14.7499 2.00317L11.9999 4.75318L9.24997 2.00317C8.73748 2.14692 8.23124 2.32818 7.74373 2.54693L11.9937 6.80942L11.9999 6.81566Z" fill="url(#paint0_linear_364_13898)"/>
<defs>
<linearGradient id="paint0_linear_364_13898" x1="5.21428" y1="4.6809" x2="18.0666" y2="20.0371" gradientUnits="userSpaceOnUse">
<stop stop-color="#6B2CFE"/>
<stop offset="1" stop-color="#078CE0"/>
</linearGradient>
</defs>
</svg>
