<svg xmlns="http://www.w3.org/2000/svg" width="24" height="24" fill="none" viewBox="0 0 24 24">
    <path fill="#3F2365" fill-rule="evenodd" d="M12.035 20.823a8.84 8.84 0 0 0 6.018-2.352h1.63A10.01 10.01 0 0 1 12.034 22 10.016 10.016 0 0 1 2 12C2 6.476 6.494 2 12.035 2c5.141 0 9.377 3.853 9.965 8.824h-7.059v4.117h-2.488l-3.235-2.053-1.789 2.053H5.865l2.347-2.688-1.541-.977c-.747-.476-.412-1.629.47-1.629h3.341l1.106-1.565a.6.6 0 0 1 .447-.2h2.36c.329 0 .546.265.546.589v1.176h5.63a8.854 8.854 0 0 0-8.536-6.47A8.84 8.84 0 0 0 3.176 12c0 4.87 3.965 8.823 8.853 8.823zm-2.582-10H8.159l.835.53zM10 11.994l1.018-1.17h2.747v2.94h-.97zm3.765-2.347h-1.718l.259-.588h1.459z" clip-rule="evenodd"/>
</svg>
