<svg xmlns="http://www.w3.org/2000/svg" width="24" height="24" fill="none" viewBox="0 0 24 24">
    <path fill="url(#ATD__a)" d="M12.297 6a1.5 1.5 0 1 0 0-3 1.5 1.5 0 0 0 0 3"/>
    <path fill="#610467" d="M6.095 18.596c-.708 0-1.284.468-1.284 1.152a1.26 1.26 0 0 0 1.284 1.248h11.818a1.26 1.26 0 0 0 1.284-1.248c0-.684-.576-1.152-1.284-1.152z"/>
    <path fill="#610467" d="M5.37 20.8a1.26 1.26 0 0 0 1.734-.366l3.491-5.321a1.23 1.23 0 0 0-.366-1.716 1.26 1.26 0 0 0-1.733.366l-3.492 5.32A1.23 1.23 0 0 0 5.37 20.8"/>
    <path fill="url(#ATD__b)" d="M8.932 7.428a1.22 1.22 0 0 0-.3 1.727L16.9 20.481c.408.552 1.2.684 1.77.288a1.22 1.22 0 0 0 .293-1.728L10.696 7.716a1.29 1.29 0 0 0-1.764-.288"/>
    <defs>
        <linearGradient id="ATD__a" x1="12.297" x2="12.297" y1="3" y2="5.999" gradientUnits="userSpaceOnUse">
            <stop stop-color="#E4396A"/>
            <stop offset="1" stop-color="#300F39"/>
        </linearGradient>
        <linearGradient id="ATD__b" x1="14.697" x2="13.498" y1="13.498" y2="14.398" gradientUnits="userSpaceOnUse">
            <stop stop-color="#D12D6D"/>
            <stop offset="1" stop-color="#610467"/>
        </linearGradient>
    </defs>
</svg>
