<svg xmlns="http://www.w3.org/2000/svg" width="24" height="24" fill="none" viewBox="0 0 24 24">
    <path fill="#000" d="M5.125 3.25C5.125 2.563 5.7 2 6.413 2h4.3C11.425 2 12 2.563 12 3.25s-.575 1.25-1.287 1.25h-4.3c-.713 0-1.288-.562-1.288-1.25m13.669 1.238a1.24 1.24 0 0 1-.763 1.6L6.863 10.08a1.3 1.3 0 0 1-1.657-.743 1.24 1.24 0 0 1 .763-1.6l11.168-3.994a1.3 1.3 0 0 1 1.657.744m0 10.174a1.24 1.24 0 0 1-.763 1.6L6.863 20.257a1.3 1.3 0 0 1-1.657-.744 1.237 1.237 0 0 1 .763-1.6l11.168-3.993a1.3 1.3 0 0 1 1.657.743M12 20.75c0-.687.575-1.25 1.287-1.25h4.3c.713 0 1.288.563 1.288 1.25S18.3 22 17.587 22h-4.3C12.576 22 12 21.438 12 20.75m6.788-11.28a1.237 1.237 0 0 1-.738 1.612L6.875 15.25a1.3 1.3 0 0 1-1.662-.719 1.24 1.24 0 0 1 .737-1.612L17.125 8.75a1.3 1.3 0 0 1 1.663.719"/>
</svg>
