<svg xmlns="http://www.w3.org/2000/svg" width="24" height="24" fill="none" viewBox="0 0 24 24">
    <path fill="#fff" d="M19.104 5.716H4.44v14.663h14.664z"/>
    <path fill="#C4C4C4" d="M11.772 20.38a7.332 7.332 0 1 0 0-14.664 7.332 7.332 0 0 0 0 14.663"/>
    <path fill="#7E1BC6" d="M20.675 16.32c-.262.027-2.44 3.439-6.023 3.797-3.411.34-4.582-1.702-6.284-4.582-1.006-1.702-2.75-1.702-5.368-.262l2.88-7.07 6.023-4.582c.916 1.919 9.524 12.624 8.772 12.7"/>
    <path fill="#4912B2" d="M14.652 4.013c.916 1.92 7.036 11.97 6.284 12.045-2.445.244-3.666 3.116-7.043 2.75-2.863-.31-3.978-3.66-5.526-6.285-1.005-1.702-3.01-1.309-5.237-1.047l3.797-4.32z"/>
    <path fill="#7919C4" d="M19.889 14.618c-1.44.144-2.226 2.75-4.844 3.012-3.609.361-4.457-4.756-6.023-6.808-.927-1.216-2.226-2.226-4.713-2.226L7.45 5.977l6.808-1.702c.916 1.92 6.381 10.267 5.63 10.343"/>
    <path fill="#BC28D9" d="M11.51 12.131c-1.048-2.88-3.143-4.975-4.452-5.891l9.165-1.44c.917 1.919 4.941 8.303 4.19 8.379-1.31.13-2.954 3.333-4.976 3.535-1.406.141-2.678-1.152-3.927-4.583"/>
    <path fill="#D300D2" d="M12.819 11.476c-.733-2.828-2.226-5.237-3.142-6.284l8.117.13c.917 1.92 2.846 6.34 2.095 6.416-1.888.189-3.092 3.66-4.32 3.797-.739.081-1.834-.524-2.75-4.059"/>
    <path fill="#fff" d="M8.604 14.095c-.183 0-.296-.192-.202-.344l2.776-4.52a.24.24 0 0 1 .406 0l4.085 6.615c.091.152-.021.343-.207.343H9.738c-.184 0-.299-.193-.205-.345l.713-1.116a.24.24 0 0 1 .201-.11h1.938a.228.228 0 0 0 .199-.348l-1.008-1.64a.23.23 0 0 0-.393 0l-.83 1.362a.24.24 0 0 1-.202.103z"/>
</svg>
