<svg width="24" height="24" viewBox="0 0 24 24" fill="none" xmlns="http://www.w3.org/2000/svg">
<path d="M7.01906 20.7495H3.65676C2.95057 20.7495 2.60059 20.7495 2.38809 20.6182C2.15686 20.4682 2.01312 20.2245 2.00063 19.9558C1.98813 19.7057 2.16312 19.4057 2.51309 18.7995L10.8126 4.37547C11.1689 3.76301 11.35 3.45678 11.575 3.34429C11.8125 3.2193 12.1062 3.2193 12.3499 3.34429C12.5749 3.45678 12.7499 3.76301 13.0999 4.37547L14.8123 7.31279L14.8185 7.32528C15.0998 7.74071 15.3228 8.19282 15.481 8.66895C15.5748 9.04392 15.5748 9.45014 15.481 9.83137C15.3235 10.3117 15.1007 10.7681 14.8185 11.1875L10.4564 18.787L10.4438 18.8121C10.22 19.2662 9.93387 19.6869 9.59381 20.0619C9.30012 20.337 8.95017 20.5369 8.5627 20.6557C8.20647 20.7495 7.81275 20.7495 7.01906 20.7495ZM15.5122 20.7495H20.3244C21.0432 20.7495 21.3994 20.7495 21.6119 20.612C21.8432 20.4619 21.9868 20.2183 21.9993 19.9495C22.0119 19.7057 21.843 19.4183 21.5056 18.8495L21.4681 18.787L19.0557 14.7248L19.0308 14.6748C18.6934 14.1123 18.5184 13.8249 18.2996 13.7123C18.0558 13.5873 17.7745 13.5873 17.5309 13.7123C17.3059 13.8249 17.1309 14.1249 16.7809 14.7248L14.3685 18.7933V18.8058C14.0124 19.4057 13.8373 19.7057 13.8498 19.9495C13.8624 20.2183 14.0062 20.4682 14.2373 20.6182C14.4436 20.7495 14.7997 20.7495 15.5122 20.7495Z" fill="#E84142"/>
</svg>
