<svg xmlns="http://www.w3.org/2000/svg" width="24" height="24" fill="none" viewBox="0 0 24 24">
    <path fill="#fff" fill-rule="evenodd" d="M12.967 3.265a1.9 1.9 0 0 0-1.934 0l-5.94 3.51a1.99 1.99 0 0 0-.967 1.715v7.02c0 .708.371 1.36.967 1.715l5.94 3.51a1.9 1.9 0 0 0 1.934 0l5.94-3.51a1.99 1.99 0 0 0 .967-1.716V8.49c0-.708-.371-1.36-.967-1.715zm-.73.912a.36.36 0 0 0-.36 0l-6.39 3.75a.37.37 0 0 0-.18.316v7.514c0 .13.068.247.18.315l6.39 3.751a.35.35 0 0 0 .36 0l6.388-3.751a.37.37 0 0 0 .18-.315V8.243a.37.37 0 0 0-.18-.315l-6.389-3.746zm.522.73a1.45 1.45 0 0 0-1.518 0L6.573 7.755c-.473.286-.76.669-.76 1.243v6.434c0 .433.17.512.45.646.09.045.192.096.31.17l4.668 2.85a1.47 1.47 0 0 0 1.518 0l4.668-2.85c.113-.074.226-.125.315-.17.281-.135.445-.213.445-.646V8.997c0-.574-.287-.957-.76-1.238L12.76 4.902zm-.607.366a.29.29 0 0 0-.304 0l-5.32 3.229a.32.32 0 0 0-.152.27v6.456a.31.31 0 0 0 .152.27l5.32 3.228a.3.3 0 0 0 .304 0l5.32-3.228a.31.31 0 0 0 .152-.27V8.772a.31.31 0 0 0-.152-.27zm3.628 5.062-3.5 2.025v4.077c0 .17-.14.315-.315.315-.168 0-.247-.14-.247-.315V12.36l-3.504-2.025a.315.315 0 0 1 .075-.573.3.3 0 0 1 .234.033l3.448 2.025 3.504-2.025a.3.3 0 0 1 .422.113.32.32 0 0 1-.113.427z" clip-rule="evenodd"/>
</svg>
