<svg xmlns="http://www.w3.org/2000/svg" width="24" height="24" fill="none" viewBox="0 0 24 24">
    <path fill="#58BE92" d="M17.16 6.54c-.77-1.973-2.719-2.152-4.994-1.703L11.363 2l-1.725.5.792 2.736-1.37.416-.793-2.77-1.708.5.804 2.809-1.096.337v-.006l-2.365.675.522 1.831s1.264-.393 1.253-.36c.691-.202 1.034.141 1.202.472l.922 3.208.185-.028-.185.05 1.292 4.507c.034.224 0 .606-.478.747.023.01-1.252.365-1.252.365l.247 2.146 2.23-.64 1.236-.343.82 2.848 1.702-.494-.797-2.815 1.37-.382.804 2.81 1.725-.495-.82-2.849c2.836-.994 4.651-2.303 4.129-5.084-.427-2.236-1.736-2.921-3.483-2.837.842-.803 1.207-1.865.646-3.315zm-.64 6.797c.601 2.135-3.112 2.933-4.27 3.275l-1.084-3.78c1.163-.338 4.713-1.714 5.354.505M14.194 8.22c.55 1.95-2.562 2.59-3.534 2.87l-.983-3.426c.972-.275 3.933-1.46 4.517.567z"/>
</svg>
