<svg xmlns="http://www.w3.org/2000/svg" width="24" height="24" fill="none" viewBox="0 0 24 24">
    <path fill="url(#BIGSB__a)" fill-rule="evenodd" d="M13.133 17.49c.228-1.5.7-2.962 1.5-4.234q1.333-2 3.556-2.567a9.6 9.6 0 0 1 3.739-.2c.055.006.072-.01.072-.06a4.7 4.7 0 0 0-2.444-3.873c-1.534-.855-3.528-.833-5.167-.25-1.739.745-2.572 2.1-3.506 3.667-.31.522-.588.96-.955 1.31-.834.779-2.667 1-2.9-.538 0-.028.01-.039.033-.044h.222c.111 0 .217 0 .306-.012 1.455-.244 2.089-2.072 2.267-3.338 0-.028-.006-.04-.028-.04-.65.034-1.295.056-1.945.079-.472.01-.81.055-1.005.127-.49.19-.822.556-.995 1.122-.005.028-.016.028-.022 0a1.72 1.72 0 0 0-.889-1.083 1.8 1.8 0 0 0-.555-.167l-2.384-.166c-.022 0-.033.016-.033.039.067 1.278.633 2.95 1.972 3.316.167.045.384.067.59.09l.277.027c.022 0 .033.017.028.039a6.26 6.26 0 0 0 1.5 4.489.04.04 0 0 0 .039 0l.016-.017c.411-.589.945-1.222 1.528-1.583a3.15 3.15 0 0 1 3.289-.05q.53.327.978.761v.033l-.14.24c-.5.9-1.01 1.816-1.71 2.566q-.042.041.016.05a22 22 0 0 0 2.678.328l.05-.017a.07.07 0 0 0 .022-.044m4.611-8.373A3.7 3.7 0 0 0 15.9 7.84a.03.03 0 0 0-.017.017l-.277.917.005.033.028.022c.51.156.933.445 1.278.861a.07.07 0 0 0 .1.012l.716-.478c.04-.034.045-.067.017-.111zm2.99 6.111a5.88 5.88 0 0 1-4.178 2.312q-.886.024-2.878 0c-.022 0-.028-.012-.028-.034q.265-1.694.922-3.111a6.6 6.6 0 0 1 1.067-1.611 5.76 5.76 0 0 1 3.55-1.678c.35-.039.65-.072.889-.089.522-.044 1.066.022 1.6.09l.283.027q.033.002.033.044c.006 1.5-.416 2.845-1.26 4.045zM5.271 18.006q1.726.335 3.295-.389c1.36-.622 2.183-1.883 2.855-3.189a.1.1 0 0 0 .006-.072.1.1 0 0 0-.04-.055c-1.588-.912-3.038-.54-4.116.838-.644.817-1.25 1.678-1.844 2.528l-.19.261c-.027.045-.016.067.034.078" clip-rule="evenodd"/>
    <defs>
        <linearGradient id="BIGSB__a" x1="2" x2="12.878" y1="18.112" y2=".313" gradientUnits="userSpaceOnUse">
            <stop stop-color="#0000FE"/>
            <stop offset="1" stop-color="#0000AD"/>
        </linearGradient>
    </defs>
</svg>
