<svg xmlns="http://www.w3.org/2000/svg" width="24" height="24" fill="none" viewBox="0 0 24 24">
    <path fill="url(#BORA__a)" fill-rule="evenodd" d="M4.894 2h8.15c3.193 0 8.887 3.069 8.955 9.644C22.043 15.769 19.762 22 11.97 22 7.405 22 2 18.625 2 12.863V5.069C2 4.081 2.937 2 4.894 2m2.45 3.125c.693 0 .906.5.906.75v1.631c.594-.406 2.406-1.125 4.012-1.125 2.038 0 5.988 1.713 5.988 5.857 0 4.137-3.2 5.943-5.988 6.012-2.787.062-5.156-1.713-5.85-3.581-.075-.313-.087-1.05.475-1.35.55-.3 1.225.106 1.363.525.256.78 1.912 2.53 4.012 2.53 2.394 0 4.113-1.705 4.113-4.136 0-2.438-1.963-3.988-4.113-3.988S8.77 9.625 8.1 11.031c-.181.394-.519.613-.963.375-.25-.131-.762-.5-.762-.962V5.875c0-.294.281-.75.969-.75m6.53 7.187a1.563 1.563 0 1 1-3.124 0 1.563 1.563 0 0 1 3.125 0" clip-rule="evenodd"/>
    <defs>
        <linearGradient id="BORA__a" x1="2" x2="18.112" y1="3.267" y2="20.71" gradientUnits="userSpaceOnUse">
            <stop stop-color="#7B6BE8"/>
            <stop offset=".5" stop-color="#5480EF"/>
            <stop offset="1" stop-color="#2CA6F2"/>
        </linearGradient>
    </defs>
</svg>
