<svg xmlns="http://www.w3.org/2000/svg" width="24" height="24" fill="none" viewBox="0 0 24 24">
    <path fill="url(#BRWL__a)" d="M21 12a9 9 0 1 1-18 0 9 9 0 0 1 18 0"/>
    <path fill="url(#BRWL__b)" fill-rule="evenodd" d="M12 20.47a8.47 8.47 0 1 0 0-16.94 8.47 8.47 0 0 0 0 16.94m0 .53a9 9 0 1 0 0-18 9 9 0 0 0 0 18" clip-rule="evenodd"/>
    <path fill="#fff" d="M12.233 7.235c.154 0 .228.196.122.307l-3.43 3.616c-.106.116-.032.307.121.307h1.244c.112 0 .196.11.165.227l-.88 3.351a.174.174 0 0 1-.164.133H6.304c-.074 0-.127-.064-.127-.138v-.032l.492-1.953a.13.13 0 0 1 .122-.1h.582c.08 0 .148-.054.164-.133l.72-2.975c.032-.117-.053-.228-.164-.228H7.76a.13.13 0 0 1-.127-.122l.005-.047.54-2.113a.13.13 0 0 1 .122-.1z"/>
    <path fill="#fff" d="M13.43 10.94c.153 0 .227.196.121.308l-3.441 3.62a.18.18 0 0 0-.053.122c0 .096.069.186.175.186h3.282a.15.15 0 0 0 .117-.053l1.355-1.34a.45.45 0 0 0 .116-.2l.344-1.245c.064-.212.329-.265.45-.085l.106.143a.37.37 0 0 1 .053.318l-.35 1.36a.46.46 0 0 1-.121.207l-1.408 1.345A.25.25 0 0 1 14 15.7H7.25a.26.26 0 0 0-.228.138.24.24 0 0 0 .038.29l.418.583a.18.18 0 0 0 .116.048h7.412c.048 0 .09-.021.122-.053l1.366-1.483a.5.5 0 0 0 .105-.196l.398-1.514a.19.19 0 0 0-.043-.174l-.54-.546a.2.2 0 0 1-.047-.127q-.001-.071.053-.127l1.058-1.096a.4.4 0 0 0 .111-.2l.223-.848a.28.28 0 0 0-.064-.265l-.423-.45a.342.342 0 0 0-.582.186l-.064.36a.37.37 0 0 1-.095.18l-1.08 1.058a.16.16 0 0 1-.125.058.16.16 0 0 1-.124-.058l-.276-.317a.185.185 0 0 1 .006-.254l1.032-.969a.46.46 0 0 0 .117-.212l.217-.863a.28.28 0 0 0-.064-.26l-1.255-1.323a.13.13 0 0 0-.09-.037h-1.916a.165.165 0 0 0-.164.133l-.842 3.345c-.026.117.053.228.164.228h1.244z"/>
    <defs>
        <linearGradient id="BRWL__a" x1="12" x2="12" y1="4.752" y2="21" gradientUnits="userSpaceOnUse">
            <stop stop-color="#DD4076"/>
            <stop offset=".52" stop-color="#AF3466"/>
            <stop offset="1" stop-color="#471840"/>
        </linearGradient>
        <linearGradient id="BRWL__b" x1="12" x2="12" y1="3" y2="21" gradientUnits="userSpaceOnUse">
            <stop stop-color="#F42776"/>
            <stop offset="1" stop-color="#E92776"/>
        </linearGradient>
    </defs>
</svg>
