<svg xmlns="http://www.w3.org/2000/svg" width="24" height="24" fill="none" viewBox="0 0 24 24">
    <path fill="#000" d="M19.115 2c-.327.867-.849 2.727-1.176 3.6a.18.18 0 0 0 .012.133c.079.14.182.273.249.418.236.46.278.946.109 1.437a3 3 0 0 1-.521.884c-.049.061-.049.097-.012.158.15.218.242.46.296.727.025.14.06.255.2.34.394.254.77.527 1.158.788.218.15.424.29.648.424.2.12.406.212.606.327.405.204.718.552.88.976.078.254.114.52.169.781.006.043 0 .091.06.103.17.03.2.073.206.243v.885c0 .236-.096.363-.315.454l-.145.055c-.067.018-.097.06-.097.139.018.285-.043.212.224.352l.043.018q.18.1.09.285-.045.119-.108.23a.29.29 0 0 1-.346.158c-.09-.025-.182-.061-.267-.08-.036-.005-.097 0-.12.031-.292.358-.686.533-1.122.606a3.4 3.4 0 0 1-2.14-.279c-.315-.145-.618-.315-.933-.473-.181-.084-.363-.17-.563-.17-.485 0-.933.122-1.364.352-.06.03-.079.06-.054.134l.157.46c.182.485.46.94.818 1.328.431.453.946.82 1.516 1.078.545.26 1.108.491 1.666.74l.097.06-.091.03c-.303.043-.606.073-.909.128-.606.109-1.194.242-1.77.442q-1.181.417-2.345.86c-.624.243-1.254.455-1.909.6-.479.104-.957.176-1.448.213-1.134.085-2.237-.037-3.291-.485a4.8 4.8 0 0 1-2.024-1.588A5.83 5.83 0 0 1 4.2 16.987a8.6 8.6 0 0 1 .025-1.97c.006-.06-.013-.09-.061-.115a3 3 0 0 1-.345-.181c-.4-.261-.746-.6-1.097-.922l-.037-.06L4 13.58a3.83 3.83 0 0 1-2-1.509.2.2 0 0 1 .097-.012l.34.06c.321.037.636.019.945-.09.37-.121.691-.376.91-.71.32-.496.636-1 .939-1.514.4-.667.812-1.321 1.345-1.891l.248-.26-.042-.025-.073-.024a1.39 1.39 0 0 1-1.012-1.158c-.054-.34-.085-.685-.12-1.03l.011-.073.097.067c.091.079.182.164.285.242.303.237.63.4 1.03.364.368-.04.724-.151 1.049-.327.012 0 .012-.018.03-.043l-.06-.036a1 1 0 0 1-.31-.733c0-.243.073-.455.188-.655.255-.442.618-.77.982-1.103l.06-.03v.103c-.012.115-.03.224-.018.333.019.267.158.394.418.364q.22-.018.43-.073c.486-.121.97-.267 1.45-.382a6.8 6.8 0 0 1 2.042-.182c.484.025.945.122 1.381.352.206.11.394.242.6.364l.037-.067a1.37 1.37 0 0 1 .624-.618c.109-.049.127-.037.157.085.097.43.28.8.68 1.03.12.079.12.085.205-.03.46-.576 1.57-1.794 2.03-2.364h.14m-2.06 6.454c-.031-.024-.061-.06-.092-.066-.03-.013-.06 0-.097 0l-.066.03c-.867.224-1.558-.036-2.049-.867l-.133-.248a.17.17 0 0 0-.073-.06c-.151-.061-.303-.14-.454-.195a.24.24 0 0 1-.152-.163A4.47 4.47 0 0 0 12.6 5.012a3 3 0 0 0-.667-.424v.066c.225.51.443 1.025.685 1.522.152.32.364.606.685.775.079.043.158.073.254.115l-.52.097a5.3 5.3 0 0 0-2.23.994 5.9 5.9 0 0 0-2.019 2.86 6.8 6.8 0 0 0-.34 3.007c.14 1.206.552 2.303 1.346 3.224a4.95 4.95 0 0 0 2.406 1.551l.527.133.091.013a8.2 8.2 0 0 1-1.957-3.558 8.32 8.32 0 0 0 3.987 3.212l.024-.024-.266-.303a5.2 5.2 0 0 1-1.079-1.812c-.06-.182-.097-.364-.145-.546a.17.17 0 0 0-.08-.096 4.6 4.6 0 0 1-1.696-1.31 3.6 3.6 0 0 1-.818-1.981c-.06-.71.121-1.364.485-1.964.03-.036.06-.073.103-.09l-.037.217a4.8 4.8 0 0 0-.115 1.146c0 .57.115 1.115.394 1.612a2.47 2.47 0 0 0 1.63 1.236c.91.218 1.758.024 2.546-.46.212-.134.394-.297.594-.443l.042-.06a1.52 1.52 0 0 1-.836-1.243 1.2 1.2 0 0 1 .079-.563c.042.109.078.206.12.29.17.376.48.582.873.63.303.037.607.025.91.043.248.012.496.012.739.043.103.012.194.078.285.133.03.018.036.067.06.103-.036.012-.072.036-.109.036l-.69.049-.067.012.097.079c.612.37 1.254.678 1.939.878.388.122.788.194 1.188.152a1.8 1.8 0 0 0 .424-.121c.036-.006.067-.067.073-.115.012-.073.006-.158.006-.26-.243.132-.467.211-.727.163q.188-.092.345-.23a.4.4 0 0 0 .14-.316c-.013-.34-.007-.678-.128-1.006-.115-.303-.309-.551-.54-.775l-.042-.025h-.03l.097.77-.018.012-.194-.327-.352-.594a.4.4 0 0 0-.109-.121l-3-2.06a.4.4 0 0 1-.12-.104l.738.097a1.56 1.56 0 0 0-.527-.89m-12.8 5.733c.364.085.74.122 1.109.091A1.58 1.58 0 0 0 6.74 13.23a1.77 1.77 0 0 1-1.273.703l-.018-.024.212-.11c.333-.194.57-.484.77-.812.29-.454.563-.927.842-1.394.303-.509.63-1.012 1.042-1.448.122-.127.255-.242.382-.37l.085-.078-.012-.025-.376.182a4.06 4.06 0 0 0-1.563 1.612c-.243.424-.48.849-.74 1.26a2.65 2.65 0 0 1-1.285 1.11c-.254.097-.527.151-.793.224l-.085.024v.03zm13.133.037c-.007.078.06.085.12.097.268.054.534.109.8.181l-.078.013-.691.06c-.115.006-.127.024-.085.133.037.11.091.213.146.316.03.06.078.072.145.06a8.8 8.8 0 0 1 3.151-.09c.08.011.104-.019.091-.104-.012-.066-.06-.06-.103-.06-.242-.024-.497-.037-.745-.073a5.4 5.4 0 0 1-1.206-.376 9 9 0 0 1-1.4-.727c-.018-.018-.036-.024-.09-.049zm-7.382-8.703c-.612.115-1.163.4-1.733.624-.321.122-.649.255-.982.358a1.65 1.65 0 0 1-1.012-.006 3 3 0 0 1-.267-.121l.019.06c.163.37.484.521.89.443.364-.067.703-.206 1.043-.346a30 30 0 0 1 1.406-.557c.957-.334 2.012-.08 2.466.606l.049-.037a1.66 1.66 0 0 0-1.879-1.024m6.37.442c.181.225.424.388.702.467.019 0 .061-.012.073-.03l.303-.788c.006-.018-.012-.06-.03-.079l-.442-.303c-.025-.018-.085-.018-.097 0l-.516.643-.024.042zm-.007 2.23c.158-.4.316-.805.461-1.211.012-.025-.018-.091-.048-.11a17 17 0 0 0-.68-.478c-.03-.018-.12-.018-.139.012-.272.321-.533.648-.793.982-.019.018-.025.042-.037.06 0 0 .394.885 1.236.746m4.188 7.291a5 5 0 0 0-1.982-.006c.461.455 1.6.455 1.982 0zM17.6 4.327l-.419.521c-.048.06-.042.103.013.146l.272.2c.061.048.097.03.121-.043l.358-.927.212-.563-.018-.013-.545.68zm-.958 10.12c-.012.292.2.589.51.704a3.7 3.7 0 0 1-.14-1.582c-.182.267-.352.545-.364.885z"/>
    <path fill="url(#BSCS__a)" d="M8.927 4.703c-.442.067-.351-.679-.254-1.055-1.085 1.418-.394 1.915.085 1.982.775.103 1.818-.927 2.575-.927.885 0 1.515.545 1.727.8 1.152-.503 2.03.103 2.328.466-2.243-4.393-5.915-1.351-6.46-1.272z"/>
    <path fill="url(#BSCS__b)" d="M3.267 12.424c1.194 1.666 2.218.497 3-.794 1.472-2.467 3.26-4.103 6.163-4.818-2.442.34-4.06 1.079-5.151 1.903-1.188.897-1.649 2.09-2.515 3.212a1.6 1.6 0 0 1-.485.418 1.21 1.21 0 0 1-1.012.085z"/>
    <path fill="url(#BSCS__c)" d="M5.364 14.284c-.37.024-.745 0-1.11-.09l-.248-.061-.084-.018v-.03l.09-.025.249-.06c.182-.05.37-.098.545-.164.552-.212.97-.606 1.285-1.11.194-.302.376-.617.552-.926l.188-.334A4.06 4.06 0 0 1 8.77 9.672l.012.025-.085.078q-.187.19-.382.37c-.412.436-.733.94-1.042 1.455l-.249.418c-.193.327-.387.648-.593.97a2.34 2.34 0 0 1-.77.811l-.152.08-.06.03.018.024a1.77 1.77 0 0 0 1.273-.703 1.58 1.58 0 0 1-1.376 1.054"/>
    <path fill="url(#BSCS__d)" d="M8.703 5.976c.424-.182.849-.364 1.303-.449a1.66 1.66 0 0 1 1.879 1.03l-.049.025c-.454-.68-1.509-.934-2.466-.6-.425.151-.843.32-1.26.49l-.146.061-.012.006c-.334.14-.667.279-1.03.346-.407.078-.728-.073-.892-.437l-.012-.036v-.03l.08.042c.06.03.12.06.18.079.334.115.68.103 1.013 0 .327-.097.642-.218.957-.346l.025-.006.424-.181z"/>
    <path fill="url(#BSCS__e)" d="M15.636 5.636c-.672-.848-.194-1.679.128-1.988a1.15 1.15 0 0 0 .593 1.225l-.72.757z"/>
    <path fill="url(#BSCS__f)" d="M17.624 6.012c.242.321.533 1.212-.212 2.194-.158-.28-.328-1.115.212-2.194"/>
    <path fill="url(#BSCS__g)" d="M7.66 7.697c.48-.825 1.897-2.237 3.758-1.218A3.96 3.96 0 0 0 7.66 7.703z"/>
    <path fill="url(#BSCS__h)" d="M8 12.133c-.836.776-2.472 2.866-2.363 5.03.048-.752.606-2.8 2.363-5.03"/>
    <path fill="url(#BSCS__i)" d="M7.491 20.157c-2.266-1.388-.945-4.546 0-5.952-.194.485-.29 1.534.321 2.655.819 1.497 2.273 2.17 3.897 2.436 1.994.333 4.34.194 5.66.018-2.35.855-7.617 2.224-9.878.843"/>
    <path fill="url(#BSCS__j)" d="M16.375 5.97c.182.224.425.387.703.466.019 0 .061-.012.073-.03l.303-.788c.006-.018-.012-.06-.03-.079a12 12 0 0 0-.442-.303c-.025-.018-.085-.018-.098 0l-.43.534-.085.109-.018.024-.006.018z"/>
    <path fill="url(#BSCS__k)" d="M16.363 8.2q.247-.602.467-1.212c.012-.025-.018-.091-.049-.11a17 17 0 0 0-.679-.478c-.03-.018-.12-.018-.139.012l-.685.842-.109.14a.2.2 0 0 0-.024.042l-.012.024s.394.879 1.236.74z"/>
    <path fill="#F0C113" d="M17.6 4.327q-.212.258-.419.521c-.048.06-.042.103.012.146l.273.2c.06.048.097.03.121-.043l.237-.606V4.54l.12-.315.213-.564-.018-.012-.546.68z"/>
    <path fill="url(#BSCS__l)" d="m17.054 8.46-.024-.018a.2.2 0 0 0-.067-.048c-.024-.012-.06 0-.085 0h-.012a.2.2 0 0 0-.036.018l-.03.012c-.867.224-1.558-.036-2.049-.867a2 2 0 0 1-.067-.12l-.066-.128a.17.17 0 0 0-.073-.06 20 20 0 0 1-.546-.261.25.25 0 0 1-.06-.097 4.5 4.5 0 0 0-1.34-1.879 3 3 0 0 0-.666-.424v.066l.182.413c.163.37.327.745.503 1.109.167.378.47.68.848.848l.091.042-.157.03-.364.061a5.4 5.4 0 0 0-2.23 1 5.9 5.9 0 0 0-2.018 2.86 6.8 6.8 0 0 0-.34 3.007c.14 1.206.552 2.303 1.346 3.224a4.95 4.95 0 0 0 2.775 1.648l.158.036.042.007h.049a8.2 8.2 0 0 1-1.958-3.552 8.32 8.32 0 0 0 3.988 3.212l.024-.024-.048-.055-.218-.242a5.2 5.2 0 0 1-1.164-2.127l-.06-.236a.17.17 0 0 0-.08-.097 4.6 4.6 0 0 1-1.696-1.31 3.6 3.6 0 0 1-.818-1.981c-.061-.71.12-1.364.484-1.964a.3.3 0 0 1 .104-.09l-.013.066-.024.152a4.8 4.8 0 0 0-.115 1.145c0 .57.115 1.115.394 1.612a2.47 2.47 0 0 0 1.63 1.236c.91.218 1.758.025 2.545-.46.146-.091.28-.2.413-.303q.1-.087.206-.17l.018-.03a1.52 1.52 0 0 1-.837-1.243 1.2 1.2 0 0 1 .08-.563l.041.115.08.182c.17.37.478.575.872.624.2.024.406.03.606.03q.523.003 1.042.055c.085.012.164.06.237.103l.048.03c.018.012.03.042.043.067l.018.036-.036.012a.2.2 0 0 1-.073.024l-.46.03-.231.019h-.036l-.03.012.036.03.06.049a8.3 8.3 0 0 0 1.94.879c.387.12.787.193 1.187.151.14-.018.273-.06.406-.109l.019-.006c.036-.012.066-.073.072-.121a.5.5 0 0 0 .006-.17v-.09c-.242.132-.466.211-.727.163l.17-.085.182-.14a.4.4 0 0 0 .133-.32v-.073a2.8 2.8 0 0 0-.127-.934 2.15 2.15 0 0 0-.576-.8h-.036l.096.77-.018.012q-.096-.165-.194-.327l-.12-.2-.231-.394a.4.4 0 0 0-.11-.121q-1.497-1.032-2.999-2.06a.4.4 0 0 1-.121-.104l.74.097a1.56 1.56 0 0 0-.528-.89"/>
    <path fill="url(#BSCS__m)" d="M20.557 15.49a5 5 0 0 0-1.982-.006c.46.455 1.6.455 1.982 0z"/>
    <path fill="url(#BSCS__n)" d="M16.642 14.454c-.012.285.2.582.509.697a3.7 3.7 0 0 1-.14-1.582c-.181.267-.351.545-.363.885z"/>
    <path fill="#000" d="M13.152 9.012c.109-.146.412-.424.715-.424.242 0 .715.375 1.303.842l.26.206c.097.073.249-.121.291-.582.467.582.243 1.012.243 1.012l.818.673c-.364-.152-1.176-.503-1.479-.673-.212.073-.606.152-.94.043-.345-.116-.436-.364-.55-.667l-.013-.03-.145-.4h-.51zm.884-.043c0 .291.164.885.503.885h.51a2.35 2.35 0 0 0-1.013-.885m3.885 2.11c.406-.104.788.605.927.969-.181-.152-.575-.46-.678-.46-.098 0-.152.109-.164.163-.303-.085-.424-.588-.085-.673"/>
    <path fill="url(#BSCS__o)" d="M14.545 9.854c-.345 0-.509-.594-.509-.885.417.19.769.498 1.012.885h-.509z"/>
    <defs>
        <linearGradient id="BSCS__a" x1="21.534" x2="1.568" y1="20.211" y2="19.606" gradientUnits="userSpaceOnUse">
            <stop stop-color="#623F03"/>
            <stop offset="1" stop-color="#240E00"/>
        </linearGradient>
        <linearGradient id="BSCS__b" x1="21.629" x2="-2.201" y1="2" y2="12.607" gradientUnits="userSpaceOnUse">
            <stop stop-color="#573500"/>
            <stop offset="1" stop-color="#240E00"/>
        </linearGradient>
        <linearGradient id="BSCS__c" x1="21.027" x2="3.492" y1="2.971" y2="19.815" gradientUnits="userSpaceOnUse">
            <stop stop-color="#D7951D"/>
            <stop offset="1" stop-color="#BB6628"/>
        </linearGradient>
        <linearGradient id="BSCS__d" x1="21.979" x2="1.69" y1="15.355" y2="15.355" gradientUnits="userSpaceOnUse">
            <stop stop-color="#E9B516"/>
            <stop offset="1" stop-color="#BB6628"/>
        </linearGradient>
        <linearGradient id="BSCS__e" x1="3.727" x2="8.51" y1="7.915" y2="20.343" gradientUnits="userSpaceOnUse">
            <stop stop-color="#240E00"/>
            <stop offset="1" stop-color="#523100"/>
        </linearGradient>
        <linearGradient id="BSCS__f" x1="2.894" x2="7.95" y1="8.133" y2="18.15" gradientUnits="userSpaceOnUse">
            <stop stop-color="#3A1F00"/>
            <stop offset="1" stop-color="#482900"/>
        </linearGradient>
        <linearGradient id="BSCS__g" x1="20.419" x2=".615" y1="5.96" y2="8.496" gradientUnits="userSpaceOnUse">
            <stop stop-color="#5C3800"/>
            <stop offset="1" stop-color="#240E00"/>
        </linearGradient>
        <linearGradient id="BSCS__h" x1="11.971" x2="11.971" y1="2" y2="21.976" gradientUnits="userSpaceOnUse">
            <stop stop-color="#573500"/>
            <stop offset="1" stop-color="#240E00"/>
        </linearGradient>
        <linearGradient id="BSCS__i" x1="3.564" x2="22.661" y1="5.354" y2="10.935" gradientUnits="userSpaceOnUse">
            <stop stop-color="#240E00"/>
            <stop offset="1" stop-color="#573500"/>
        </linearGradient>
        <linearGradient id="BSCS__j" x1="23.506" x2="-45.588" y1="-23.243" y2="228.533" gradientUnits="userSpaceOnUse">
            <stop offset=".02" stop-color="#F0C113"/>
            <stop offset=".45" stop-color="#F3C712"/>
        </linearGradient>
        <linearGradient id="BSCS__k" x1="30.31" x2="-16.235" y1="-27.514" y2="139.306" gradientUnits="userSpaceOnUse">
            <stop offset=".02" stop-color="#F0C113"/>
            <stop offset=".45" stop-color="#F3C712"/>
        </linearGradient>
        <linearGradient id="BSCS__l" x1="15.923" x2="10.084" y1=".75" y2="22.044" gradientUnits="userSpaceOnUse">
            <stop offset=".02" stop-color="#F0C113"/>
            <stop offset=".45" stop-color="#F3C712"/>
            <stop offset="1" stop-color="#C97D22"/>
        </linearGradient>
        <linearGradient id="BSCS__m" x1="-8.458" x2="-367.16" y1="-533.117" y2="-269.322" gradientUnits="userSpaceOnUse">
            <stop offset=".45" stop-color="#F3C712"/>
            <stop offset="1" stop-color="#C97D22"/>
        </linearGradient>
        <linearGradient id="BSCS__n" x1="37.222" x2="17.334" y1="-122.904" y2="82.895" gradientUnits="userSpaceOnUse">
            <stop offset=".45" stop-color="#F3C712"/>
            <stop offset="1" stop-color="#C97D22"/>
        </linearGradient>
        <linearGradient id="BSCS__o" x1="14.079" x2="15.091" y1="9.175" y2="9.854" gradientUnits="userSpaceOnUse">
            <stop stop-color="#D08B1F"/>
            <stop offset=".5" stop-color="#F0C113"/>
            <stop offset="1" stop-color="#D8981D"/>
        </linearGradient>
    </defs>
</svg>
