<svg xmlns="http://www.w3.org/2000/svg" width="24" height="24" fill="none" viewBox="0 0 24 24">
    <path fill="#6DD9BF" d="M4.584 6.874c-.26-.14-.584.038-.584.33v2.38c0 .27.15.519.39.66l6.306 3.562a2.68 2.68 0 0 0 2.608 0l6.305-3.562a.77.77 0 0 0 .391-.66v-2.38c0-.292-.33-.47-.584-.33l-6.503 3.671c-.565.32-1.261.32-1.826 0zm0 4.574a.39.39 0 0 0-.584.33v2.287c0 .268.146.518.386.659l4.207 2.4a.39.39 0 0 0 .583-.33v-2.287a.77.77 0 0 0-.385-.659zm15.416.33a.39.39 0 0 0-.584-.33l-4.207 2.4a.78.78 0 0 0-.386.66v2.286a.39.39 0 0 0 .584.33l4.207-2.4a.78.78 0 0 0 .386-.659z"/>
</svg>
