<svg width="24" height="24" viewBox="0 0 24 24" fill="none" xmlns="http://www.w3.org/2000/svg">
<path d="M9.68734 2.28751C11.1872 1.9 12.7748 1.9125 14.2811 2.275L14.3186 2.325C14.9998 3.30219 15.5897 4.33988 16.081 5.42499C16.6997 5.3875 17.3248 5.35625 17.9435 5.39376C18.4185 5.40626 18.8935 5.46874 19.3685 5.51875H19.4248C20.0061 6.20625 20.4997 6.975 20.8997 7.79375C20.731 8.32501 20.5497 8.85625 20.3435 9.36878C19.9967 8.39164 19.5037 7.47283 18.881 6.64375C18.0997 6.55 17.3185 6.5375 16.5373 6.57499C16.8873 7.56874 17.156 8.59375 17.3373 9.63755C17.4248 10.2438 17.506 10.85 17.5373 11.4625C17.4748 11.775 17.7748 11.9 17.8623 12.1625C17.9603 12.3977 17.9841 12.6572 17.9304 12.9064C17.8769 13.1555 17.7484 13.3823 17.5623 13.5562L17.5435 13.8062C17.5247 14.0687 17.506 14.3375 17.4748 14.6C17.4372 14.9625 17.3811 15.325 17.3248 15.6874C17.1435 16.75 16.8685 17.7874 16.5123 18.7937C17.2748 18.8313 18.0436 18.8125 18.806 18.7313C19.855 17.3992 20.536 15.8152 20.781 14.1375C21.0435 14.6751 21.2935 15.2125 21.5185 15.7625L21.5436 15.825C21.0976 17.3545 20.3138 18.7642 19.2498 19.95C18.1872 19.9625 17.1248 20.0312 16.0623 19.9375C15.7998 20.4375 15.5622 20.9625 15.2811 21.4563C14.7873 21.6563 14.2811 21.8187 13.7622 21.9313L13.6435 21.9625C14.1061 21.275 14.5185 20.55 14.881 19.7999C13.2206 19.5242 11.6163 18.9795 10.131 18.1875C9.9793 18.2634 9.81159 18.3019 9.64199 18.2998C9.47239 18.2976 9.3057 18.2547 9.15607 18.1751C8.98451 18.0779 8.83988 17.9397 8.73513 17.7727C8.63037 17.6057 8.56883 17.4154 8.55603 17.2187L8.39352 17.0937C7.05066 16.1432 5.86361 14.9899 4.87477 13.6749C4.42062 14.4155 4.02162 15.1884 3.68103 15.9876C4.03865 17.0106 4.56696 17.9658 5.24353 18.8125C6.06852 18.8875 6.89353 18.9125 7.71228 18.85L7.73728 18.9249C7.87477 19.2812 8.02477 19.6438 8.17478 19.9875C7.06175 20.0871 5.94153 20.0745 4.83102 19.95L4.70603 19.9375C3.38649 18.4224 2.5087 16.5738 2.16853 14.5937C1.92477 13.1813 1.94352 11.7187 2.23728 10.3187C2.59531 8.59289 3.36747 6.97993 4.48728 5.61875C5.81944 3.9834 7.6391 2.81629 9.68107 2.28751H9.68734ZM10.5747 3.3C10.0248 3.4 9.48099 3.5375 8.96852 3.74376C7.47892 4.32863 6.17323 5.30197 5.18728 6.56249C4.52608 7.39746 4.01437 8.34054 3.67477 9.34997C4.01227 10.1625 4.41228 10.9438 4.87477 11.6875C5.49353 10.8812 6.18727 10.1375 6.91852 9.45001C7.38102 9.0625 7.83102 8.64999 8.33728 8.32501V8.31249L8.56227 8.14375C8.56227 7.89375 8.62477 7.65624 8.74977 7.45625C8.82381 7.33143 8.92249 7.22299 9.03981 7.13754C9.15709 7.0521 9.29068 6.99145 9.43214 6.95929C9.57359 6.92712 9.7203 6.92412 9.86293 6.95045C10.0057 6.97681 10.1416 7.03193 10.2622 7.1125L10.5123 6.9875C11.0122 6.73125 11.5372 6.53124 12.056 6.31251C12.9873 5.98125 13.9435 5.73124 14.9123 5.5625C14.5468 4.78954 14.1226 4.0457 13.6435 3.33751C12.631 3.14178 11.5918 3.12908 10.5747 3.3ZM13.7561 7.01251C13.206 7.15 12.6561 7.325 12.1311 7.54375L12.1497 7.55C11.6748 7.6875 11.231 7.94375 10.7748 8.15001C10.7502 8.48035 10.6004 8.78886 10.356 9.01249C10.0248 9.31249 9.53101 9.35624 9.1498 9.13749C8.69977 9.46882 8.24978 9.80001 7.83727 10.1812C6.98736 10.9321 6.21857 11.7699 5.54352 12.6812C5.88102 13.1375 6.23102 13.5813 6.61853 13.9937V14.0063C7.34897 14.8021 8.15951 15.5205 9.03728 16.15C9.20711 16.0302 9.40822 15.9626 9.61603 15.9561C9.8237 15.9494 10.0289 16.0038 10.2061 16.1125C10.5685 16.3313 10.7686 16.7688 10.7623 17.2063C12.2034 17.949 13.7578 18.4473 15.3623 18.6813C15.5748 18.1313 15.7623 17.5626 15.9122 16.9938V16.9875C16.1848 15.9219 16.3626 14.8343 16.4435 13.7375C16.2389 13.638 16.0662 13.483 15.9456 13.2902C15.8249 13.0973 15.7609 12.8745 15.7609 12.6468C15.7609 12.4193 15.8249 12.1963 15.9456 12.0035C16.0662 11.8106 16.2389 11.6557 16.4435 11.5563C16.3764 10.4536 16.1985 9.36061 15.9122 8.29375C15.7623 7.75 15.5873 7.2125 15.3935 6.68125C14.8436 6.7625 14.2935 6.86874 13.7561 7.01251ZM3.23103 11.0562C3.06514 12.1332 3.06514 13.2293 3.23103 14.3063C3.51852 13.7438 3.83727 13.2125 4.16853 12.6812C3.83351 12.1529 3.52074 11.6108 3.23103 11.0562Z" fill="#644786"/>
<g opacity="0.3">
<path d="M14.313 2.33126C14.4193 2.28751 14.5192 2.34376 14.6255 2.36875C15.4505 2.61875 16.2692 2.95626 17.0005 3.44375C16.738 3.75625 16.3692 3.94375 16.0818 4.23125C15.838 4.11875 15.6068 3.9375 15.3318 3.93125C15.0193 3.375 14.6755 2.85 14.3193 2.33126H14.313Z" fill="#644786"/>
<path d="M8.96973 3.75C9.48229 3.53751 10.0322 3.4 10.576 3.3C10.1009 4.0084 9.68091 4.75225 9.31969 5.52501C10.1447 5.66876 10.9635 5.87501 11.7573 6.15625C11.8697 6.19376 11.9635 6.24375 12.0573 6.31251C11.5385 6.53126 11.0073 6.73125 10.5072 6.99375C9.95727 6.83751 9.40091 6.71876 8.83222 6.64375C8.63847 7.15 8.45723 7.675 8.32598 8.20626L8.33847 8.3125V8.32501C7.83847 8.65 7.38223 9.0625 6.91972 9.45001C7.04473 8.44375 7.37598 7.475 7.66973 6.5125C6.84268 6.46087 6.01277 6.47758 5.18848 6.5625C5.54473 6.09376 5.96348 5.675 6.40098 5.2875C6.98223 5.31876 7.56347 5.3125 8.14472 5.36251C8.40722 4.81875 8.67598 4.275 8.96973 3.74376V3.75Z" fill="#644786"/>
<path d="M17.0008 3.44375L17.0132 3.43125C17.8258 3.93125 18.5632 4.55625 19.2132 5.28125C19.2758 5.35001 19.3445 5.41875 19.3696 5.51249C18.8944 5.46874 18.4194 5.40626 17.9445 5.39376C17.6882 5.39376 17.4883 5.20624 17.3008 5.04376C16.9196 4.73125 16.5007 4.48125 16.082 4.23125C16.3695 3.9375 16.7383 3.75625 17.0008 3.44375Z" fill="#644786"/>
<path d="M12.1258 7.54375C12.657 7.33126 13.207 7.15 13.757 7.01251C14.2446 7.28751 14.7382 7.55625 15.2071 7.88125C14.9258 8.175 14.5632 8.3625 14.2695 8.65C13.5911 8.2283 12.8806 7.86051 12.1446 7.55001L12.1258 7.54375ZM6.51953 11.4813C6.9287 11.0182 7.36932 10.5837 7.83827 10.1812C7.90078 10.3876 7.85703 10.6001 7.83203 10.8063C7.67271 12.2849 7.69791 13.7776 7.90703 15.2499C7.45078 14.875 7.03203 14.4375 6.61953 14C6.66952 13.8562 6.65078 13.7 6.64453 13.5562C6.60826 12.8567 6.61034 12.1557 6.65078 11.4562L6.51953 11.4813Z" fill="#644786"/>
<path d="M20.3441 9.36878C20.5504 8.85001 20.7316 8.32501 20.9004 7.79375C21.3976 8.81827 21.7288 9.91522 21.8816 11.0438C21.8504 11.1751 21.8816 11.3687 21.7441 11.4437C21.4567 11.6375 21.1942 11.8812 20.8816 12.0313C20.8504 11.7499 20.8379 11.4625 20.7567 11.1875C20.5379 11.4874 20.3941 11.8374 20.1942 12.15C20.0941 12.3312 19.9191 12.5 19.9441 12.725C19.7691 13.0063 19.4879 13.1562 19.2254 13.3125C18.7754 13.6875 18.2816 14.0125 17.8379 14.4063C17.7254 14.4938 17.6004 14.5438 17.4754 14.6C17.5066 14.3375 17.5254 14.0687 17.5378 13.8001C17.9364 13.4722 18.2711 13.074 18.5254 12.6249C18.3192 12.3126 18.0628 12.0562 17.8503 11.7499C18.1066 11.4688 18.5003 11.3438 18.6629 10.9813C18.8629 11.1812 19.0253 11.4062 19.2003 11.6312C19.6566 10.925 20.0129 10.15 20.3504 9.37505L20.3441 9.36878ZM8.65663 18.1812C8.73164 18.3562 8.77539 18.5563 8.89414 18.7001C9.42556 18.6368 9.9491 18.5194 10.4566 18.3501C10.9629 18.6063 11.4942 18.8374 12.0253 19.0375C11.9629 19.0875 11.8941 19.125 11.8191 19.1562C11.0253 19.4499 10.2129 19.6563 9.3942 19.8188C9.38166 20.0813 9.61295 20.2875 9.68164 20.5376C9.38793 20.7563 9.05664 20.925 8.81288 21.2062C8.56288 20.8313 8.38788 20.3938 8.18164 19.9938C8.02538 19.6438 7.87539 19.2812 7.74414 18.9249C8.02538 18.6438 8.40663 18.5 8.65663 18.1751V18.1812Z" fill="#644786"/>
<path d="M15.2077 7.87499C15.4576 8 15.6452 8.25624 15.9139 8.29375C16.0638 8.89375 16.2014 9.50003 16.2889 10.1188C15.6472 9.59044 14.9752 9.10001 14.2764 8.64999C14.5638 8.3625 14.9263 8.175 15.2077 7.88125V7.87499Z" fill="#644786"/>
<path d="M17.3384 9.63755C17.4571 9.69997 17.5697 9.76253 17.6634 9.86257C18.0072 10.225 18.3509 10.575 18.6634 10.975C18.4947 11.3375 18.1009 11.4625 17.8508 11.7375C17.7575 11.6342 17.6526 11.542 17.5383 11.4625C17.5071 10.85 17.4259 10.2438 17.3384 9.63755Z" fill="#644786"/>
<path d="M21.8753 11.0438C22.0316 11.7937 22.0066 12.5688 21.9816 13.3312C21.8878 14.1562 21.8003 14.9937 21.519 15.7688C21.2942 15.2125 21.0441 14.6688 20.7816 14.1438C20.6878 14.7063 20.5691 15.2688 20.3815 15.8063C20.1066 15.4063 19.944 14.9313 19.7129 14.4938C20.0003 14.2688 20.3003 14.0626 20.6128 13.8813L20.7753 14.0063C20.9065 13.3626 20.8753 12.6938 20.8816 12.0313C21.1941 11.8875 21.4566 11.6375 21.7441 11.4376C21.8816 11.3687 21.8504 11.1751 21.8753 11.0438Z" fill="#644786"/>
<path d="M19.9374 12.7313C20.2089 13.0842 20.4376 13.4682 20.6186 13.875C20.306 14.0626 20.0061 14.2625 19.7186 14.4938C19.5623 14.225 19.4248 13.9313 19.2311 13.6938C18.906 13.925 18.7248 14.3188 18.4311 14.5937C18.0622 14.9562 17.7623 15.4 17.331 15.6813C17.3936 15.3188 17.4436 14.9562 17.4811 14.5937C17.6061 14.5313 17.7311 14.4875 17.8435 14.4063C18.281 14.0063 18.7811 13.6875 19.2311 13.3063C19.4936 13.1499 19.7748 13 19.9498 12.725L19.9374 12.7313ZM9.68106 20.5376C9.84351 20.75 9.94356 21.0063 10.0936 21.2313C10.2373 21.4813 10.4185 21.7125 10.5311 21.9813C9.91862 22 9.30612 21.9813 8.6873 21.9937C8.38105 21.9937 8.06855 22.0188 7.76855 21.9688C7.86855 21.9188 7.95605 21.8438 8.0373 21.7563C8.1748 21.5937 8.41231 21.575 8.49981 21.3688C8.6248 21.4187 8.75605 21.4624 8.89356 21.4875L8.8123 21.2062C9.0623 20.925 9.38735 20.7563 9.68106 20.5376Z" fill="#644786"/>
<path d="M13.3058 17.225C14.3809 16.6813 15.3683 15.9499 16.2933 15.1563C16.1996 15.7749 16.0683 16.3813 15.9183 16.9875H15.9121C15.5245 17.1625 15.2121 17.4688 14.8496 17.675C14.4933 17.925 14.087 18.0813 13.7558 18.3625C13.1934 18.2125 12.6433 18.0313 12.0996 17.8188C12.4996 17.6124 12.9183 17.4563 13.3058 17.225Z" fill="#644786"/>
<path d="M6.9624 15.9499C7.42491 16.3562 7.89365 16.75 8.39365 17.0937C8.36336 17.1672 8.35896 17.2487 8.38115 17.325C8.4624 17.6124 8.55615 17.9 8.65615 18.1812C8.40615 18.5 8.03116 18.6438 7.7374 18.9249L7.71241 18.85C7.41323 18.0217 7.171 17.1739 6.9874 16.3125C6.9624 16.1938 6.9624 16.0688 6.9624 15.9499Z" fill="#644786"/>
<path d="M4.83154 19.95C5.39405 20.0126 5.95654 20.05 6.51905 20.0624C6.79405 20.3687 7.14405 20.5688 7.46905 20.7938C7.79404 21.0125 8.14404 21.1999 8.5003 21.3688C8.41904 21.575 8.1753 21.5937 8.04405 21.7563C7.9628 21.8438 7.86905 21.9188 7.76905 21.9688C7.51279 21.9874 7.23155 22.0312 7.00654 21.8687C6.20816 21.3888 5.48566 20.7926 4.8628 20.1001L4.83154 19.95Z" fill="#644786"/>
</g>
</svg>
