<svg xmlns="http://www.w3.org/2000/svg" width="24" height="24" fill="none" viewBox="0 0 24 24">
    <path fill="#F0B90B" d="M15.401 5.805a.33.33 0 0 1 .466 0l2.139 2.131a.33.33 0 0 1 0 .466l-9.63 9.644a.33.33 0 0 1-.465 0l-2.139-2.131a.33.33 0 0 1 0-.466zM19.3 9.663a.33.33 0 0 1 .465 0l2.139 2.13a.327.327 0 0 1 0 .466l-9.628 9.644a.33.33 0 0 1-.465 0l-2.14-2.13a.33.33 0 0 1-.071-.36.3.3 0 0 1 .071-.106zm-4.97-4.969a.33.33 0 0 0 0-.466l-2.139-2.131a.33.33 0 0 0-.466 0l-5.871 5.88a.33.33 0 0 0 0 .464l2.128 2.142a.33.33 0 0 0 .467 0zM6.777 12.26a.33.33 0 0 0 0-.463l-2.13-2.142a.33.33 0 0 0-.465 0L2.097 11.74a.327.327 0 0 0 0 .465l2.139 2.132a.33.33 0 0 0 .466 0z"/>
</svg>
