<svg xmlns="http://www.w3.org/2000/svg" width="24" height="24" fill="none" viewBox="0 0 24 24">
    <path fill="url(#CAH__a)" d="M12 21a9 9 0 1 0 0-18 9 9 0 0 0 0 18"/>
    <path fill="url(#CAH__b)" d="M12 18.354a6.353 6.353 0 1 0 0-12.706 6.353 6.353 0 0 0 0 12.706"/>
    <path fill="#F0F3FA" d="M20.969 11.247c-.207.317-.736.91-.985 1.18h-.794l-.117-.069h-1.567l-.042-.106-.254.175h-1.42l-.291.053c-.604.053-1.906.222-2.282.455l.106-.005c.545-.021 2.451-.095 3.283 1.27h-.191c.333.276 1.006 1.033.995 1.912h-.143c.138.228.413.842.413 1.482 0 .636-.18 1.006-.27 1.112l-.143-.132a6 6 0 0 1-.958 1.323 9 9 0 0 1-.662.328 16 16 0 0 0-.137-1.154l.148-.137a1.3 1.3 0 0 1-.223-.487c-.074-.27-.492-1.049-.693-1.403v-.25l-.185.17c-.117-.296-.419-.995-.715-1.424a.57.57 0 0 1-.117-.397c-.016.095-.053.28-.1.238q-.32-.299-.635-.603c.016-.265-.09-.91-.604-1.414l.005.212c.032.937.117 3.404-2.583 7.158a9 9 0 0 1-2.187-.869 11.95 11.95 0 0 0 4.03-6.427c0-.132.105-.275.163-.333-.275-.027-1.037.185-1.89 1.217l-.106.133c-.074-.085-.217-.302-.2-.54a1.7 1.7 0 0 0-.34.768c-.158.105-.773.56-.884.83a4 4 0 0 1-.243-.603 4 4 0 0 0-.064.672l-1.032.689a1.5 1.5 0 0 1-.043-.556c-.105.159-.148.497-.153.646-.35.137-1.107.492-1.36.815a1.88 1.88 0 0 1-.329-1.154c0-.582.074-1.535 1.297-2.917a4.4 4.4 0 0 1 2.075-1.308c0-.095.043-.254.064-.318l-.455.318-.916-.116-.519.37-.556-.069-.476.424-1.07.053-.185.116-.905-.074c.38-.947 1.694-2.837 3.917-2.837a5.2 5.2 0 0 1 4.453 2.456 6.3 6.3 0 0 0-.689-1.43l.143-.206h-.222a2.8 2.8 0 0 0-1.07-1.239v-.397l-.132.117a5.7 5.7 0 0 0-1.667-1.017v-.402l-.191.159a2.2 2.2 0 0 0-1.175-.424c0-.2-.074-.566-.106-.725l-.133.196a2.47 2.47 0 0 0-1.535-.556 4.54 4.54 0 0 1 2.838-1.08c.947 0 1.758.339 2.049.513v-.211c.593.339 1.79 1.175 1.847 1.779h.175c.275.349.852 1.217.974 1.937 0 .043-.09.164-.132.223.074.063.222.28.222.656s-.058.699-.09.81c.254-.302.863-.937 1.266-1.059.063.043.095.133.105.17.244-.25 1.027-.742 2.24-.742v.165c.354-.085 1.37-.117 2.573.46v.212c.354.095 1.196.45 1.779 1.117z"/>
    <defs>
        <linearGradient id="CAH__a" x1="12" x2="12" y1="3" y2="21" gradientUnits="userSpaceOnUse">
            <stop stop-color="#C16EE0"/>
            <stop offset="1" stop-color="#5026A4"/>
        </linearGradient>
        <linearGradient id="CAH__b" x1="12" x2="12" y1="5.648" y2="18.354" gradientUnits="userSpaceOnUse">
            <stop stop-color="#914AC4"/>
            <stop offset="1" stop-color="#442281"/>
        </linearGradient>
    </defs>
</svg>
