<svg xmlns="http://www.w3.org/2000/svg" width="24" height="24" fill="none" viewBox="0 0 24 24">
    <path fill="#070707" d="M12 21a9 9 0 1 0 0-18 9 9 0 0 0 0 18"/>
    <path fill="#642D42" d="m8.306 17.124.535 2.238 6.412.085c.281-.246.45-1.829.496-2.547l.183 2.532c.011-.817.52-2.336.774-2.993l.324-1.567v-2.21l-1.38 2.294-.984 1.692-2.56.993-2.632-.867L8.18 14.76l-1.182-2.097.267 2.21.915 3.93z"/>
    <path fill="#76649D" d="m8.67 19.495-.82.291.205.316s.57.27.958.395zm6.69.039.83.253-.253.316c-.313.158-.908.393-.908.393z"/>
    <path fill="#CFBADC" d="m10.94 18.356-2.276 1.122.345 1.023s1.206.462 2.704.494l.295-1.484-1.067-.726zm2.119 0 2.312 1.155-.302.966s-1.32.49-2.754.522l-.284-1.488 1.028-.726z"/>
    <path fill="#BB74A1" d="m9.348 20.616-.406-1.283.531-.275.687 1.756a6 6 0 0 1-.812-.198m5.348-.011.395-1.25-.53-.274-.675 1.726c.431-.087.81-.202.81-.202"/>
    <path fill="#EFA284" d="M10.94 18.803v-1.106h2.119v1.106l-1.04.72z"/>
    <path fill="#FDECDE" d="m8.338 12.135 1.763-1.619h3.69l2.376 1.426-.104 2.228c-.27 1.545-.673 2.317-1.24 2.763-.455.356-2.042 1-2.78 1.277-.896-.25-2.206-.956-2.749-1.277-.777-.38-1.11-2-1.18-2.763z"/>
    <path fill="#570405" d="m11.067 15.83.089.374.464-.497a2 2 0 0 0-.553.123"/>
    <path fill="#F7A79B" d="M11.614 15.707h.817c.084.051.272.164.35.207.08.044.088.284.083.398-.236.518-.823.55-1.102.474s-.532-.288-.554-.583c-.018-.235.263-.429.406-.496"/>
    <path fill="#570405" d="M12.97 15.8c-.07-.06-.16-.015-.205.01l.193.304c.029-.07.08-.253.011-.313"/>
    <path fill="#D5696E" d="M11.213 15.935c-.132.19-.028.384.041.457 0-.361.255-.602.382-.677a.51.51 0 0 0-.423.22m1.629.407a1.2 1.2 0 0 0 .118-.23l-.163-.325-.111.08-.172-.19-.092.027c.079.066.242.197.264.197.128.088.157.33.156.44"/>
    <path fill="url(#CATGIRL__a)" d="M9.758 16.124c.602 0 1.09-.3 1.09-.672 0-.37-.488-.671-1.09-.671s-1.09.3-1.09.671.488.672 1.09.672"/>
    <path fill="url(#CATGIRL__b)" d="M14.373 16.082c.601 0 1.09-.301 1.09-.672 0-.37-.489-.671-1.09-.671s-1.09.3-1.09.671.488.672 1.09.672"/>
    <path fill="#EECBBE" d="M12.065 15.045c.128 0 .232-.09.232-.199s-.104-.199-.232-.199c-.127 0-.231.09-.231.2 0 .109.104.198.231.198"/>
    <path fill="#fff" d="M10.218 14.66c1.011-.171 1.03-1.066.914-1.493l-.305-.46-.61-.19-.767.19-.767.673-.079.651c.117.28.603.799 1.614.628m3.752.001c-1.011-.171-1.03-1.066-.914-1.493l.305-.46.609-.19.768.19.767.673.079.651c-.117.28-.603.799-1.614.628"/>
    <path fill="#E0D1E9" d="M10.817 12.73a2.5 2.5 0 0 0-.53-.111c.144.242.646.512.88.617-.05-.142-.188-.442-.35-.505m2.554-.001c.163-.062.422-.1.53-.111-.144.242-.646.512-.88.617.05-.142.188-.442.35-.505"/>
    <path fill="#2A3137" d="M9.429 12.877c-.398.215-.723.883-.836 1.19l-.44-.225.158-.056.282-.393H8.39l.305-.123.361-.393-.18-.168h.36l.193-.09c.947-.377 1.357-.097 1.444.09-.316-.101-.948-.101-1.444.168m5.331 0c.397.215.722.883.835 1.19l.44-.225-.158-.056-.282-.393h.203l-.305-.123-.361-.393.18-.168h-.36l-.193-.09c-.947-.377-1.357-.097-1.444.09.316-.101.948-.101 1.444.168"/>
    <path fill="#224B66" d="M9.566 14.64c-.376-.452-.354-1.26-.296-1.607.234-.256.74-.367.963-.391.479.265.454 1.364.383 1.881-.408.203-.87.162-1.05.117m5.056 0c.376-.452.354-1.26.296-1.607-.234-.256-.74-.367-.963-.391-.479.265-.455 1.364-.383 1.881.408.203.87.162 1.05.117"/>
    <path fill="#4AA9FB" d="M9.557 14.2a.58.58 0 0 0 .186.439c.33.055.614-.023.716-.068.03-.04.086-.168.078-.37-.01-.254-.284-.45-.5-.44s-.47.166-.48.44m5.075-.001a.58.58 0 0 1-.187.439 1.4 1.4 0 0 1-.715-.068c-.03-.04-.087-.168-.079-.37.01-.254.285-.45.5-.44s.471.166.48.44"/>
    <path fill="#66E9FF" d="M10.106 14.48c.152-.02.265-.108.254-.198s-.144-.146-.296-.127c-.152.02-.266.108-.255.198s.145.146.297.127m3.976 0c-.152-.02-.266-.108-.254-.198s.144-.146.296-.127c.152.02.266.108.254.198-.011.09-.144.146-.296.127"/>
    <path fill="#1B3B5E" d="M10.047 14.12c.108 0 .195-.127.195-.284s-.087-.284-.195-.284-.195.127-.195.284.087.284.195.284m4.094 0c-.108 0-.195-.127-.195-.284s.087-.284.195-.284.195.127.195.284-.087.284-.195.284"/>
    <path fill="#0E2433" d="M9.975 13.203c-.518.141-.624.77-.612 1.067-.128-.19-.127-.538-.12-.679l.28-.3-.16-.3.062-.079.195.291.142-.088c.255-.07.58-.112.71-.123.12.091.16.489.177.674a1.23 1.23 0 0 0-.674-.463m4.238 0c.518.141.624.77.612 1.067.128-.19.128-.537.122-.678l-.281-.3.16-.3-.063-.08-.195.291-.142-.088a4.6 4.6 0 0 0-.71-.123c-.12.091-.166.49-.183.675.191-.282.527-.428.68-.464"/>
    <path fill="#fff" d="M10.41 13.036c-.014-.24-.248-.253-.364-.23-.248.05-.198.215-.142.291.175.08.52.178.506-.061m3.369 0c.014-.24.248-.253.363-.23.249.05.199.215.142.291-.174.08-.52.178-.505-.061m-3.316.23c-.053-.027-.174-.064-.23 0-.072.079.115.211.23 0m3.262 0c.053-.027.174-.064.23 0 .071.079-.115.211-.23 0"/>
    <path fill="#DF8274" d="M9.64 10.795c-.234.516-1.256 1.462-1.574 1.89l-.061.769.152.382c.05-.95 1.382-2.6 1.967-3.257.184.961.586 1.548.764 1.72-.428-.789-.585-2.1-.61-2.656-.111.181-.403.636-.637 1.152"/>
    <path fill="#000" fill-rule="evenodd" d="M10.525 11.338c-.78-.044-1.29.19-1.44.305l-.057-.073c.171-.13.703-.369 1.502-.324zm3.746.065a4 4 0 0 0-.872-.065l-.005-.092c.202-.01.538.002.894.066.355.064.734.181 1.017.387l-.054.075c-.268-.194-.63-.308-.98-.371" clip-rule="evenodd"/>
    <path fill="#DF8274" d="m16.118 12.673-.062.82c-.102-.799-1.54-2.01-2.026-2.694-.183.962-.42 1.358-.598 1.531.427-.79.409-2.215.434-2.772.11.182.416.848.65 1.364s1.186 1.392 1.602 1.75"/>
    <path fill="#BD5D73" d="M8.59 19.526c-.208-.402-.228-1.733-.212-2.347 0 .532.352 1.677.528 2.183-.09.055-.28.164-.317.164m6.936.05c.206-.402.226-2.015.21-2.63 0 .533-.345 1.978-.522 2.484.09.054.125.132.312.146m1.24-3.302c-.417.588-.732 2.94-.836 3.834.795-.371 1.547-.922 1.834-1.183l-.32-3.814c-.056.114-.261.575-.678 1.163m-9.263-.059c.417.588.553 2.993.553 3.889-.538-.256-1.495-.853-1.808-1.17l.386-3.737c.055.114.452.43.869 1.018"/>
    <path fill="#F095AA" d="M17.09 19.195c.257-.254.276-2.686.253-3.87l-.471.805-.336 3.663.156-.102.398-2.556zm-10.262-.067c-.256-.254-.109-2.619-.087-3.802l.472.804.29 3.677-.217-.135-.458-3.24z"/>
    <path fill="#F8ADC0" d="m17.566 14.73-.67 2.04-.223-.444-.848.444c.694-.62 1.107-2.73 1.239-3.791-.154 1.063-1.178 1.697-1.685 1.884.5-.338.684-1.53.714-2.085l-.402-.377c-.464-.09-1.413-1.856-1.83-2.728 0 1.135-.322 2.291-.456 2.728l-.313.688-.429.544-.247-.602-.362.301-.892-1.619.178 1.486c-.767-.532-1.048-2.573-1.093-3.526h-.29l-.29.865-1.272 1.685.29-2.883c-.696 1.437-.751 3.172-.691 3.86l-.96-.422c-.018.993.781 3.075 1.183 3.992-.328-.14-1.09-.634-1.518-1.486-.535-1.065-.691-3.97 0-5.944.692-1.974 2.879-3.97 5.355-3.882 2.477.09 3.86 1.176 5.155 3.571 1.035 1.916.67 4.599.357 5.7"/>
    <path fill="#FDEBE3" d="M6.597 12.029c-.069-.953.403-1.677.648-1.92-.098.437-.18 1.462-.208 1.92l-.208-.535zm1.039-.765c-.225-.612.02-1.543.171-1.932v.68l.88-.68-.318.534c-.489.428-.692 1.11-.733 1.398m1.198-1.252c-.02-.427.334-1.004.513-1.24l-.085.487.684-.486-.5.9v-.208zm1.602-.34c-.137-.73.139-1.203.293-1.35-.097.156.041.9.123 1.253l-.233-.316zm.832-.097c-.079-.302.032-.904.098-1.167l.073.498.428-.583c.812.583.852 1.434.77 1.786.061-.462-.501-.778-.77-.923-.215-.117-.49.21-.6.389m2.03.436-.318-1.604.587 1.167.122-.39v.925l-.33-.438zm1.198.184a50 50 0 0 0-.684-1.13l.953.729v-.462l.416 1.264c-.228-.219-.685-.671-.685-.73zM16 11.264c-.079-.545-.36-1.354-.49-1.69.714.535.901 1.463.905 1.86l-.355-.839zm.824-.843c.225.352.606 1.151.337 1.538z"/>
    <path fill="#EA8DA1" d="M13.405 5.785c-1.293-.358-2.322-.149-2.676 0 .668 0 .967.21 1.034.316-.816-.295-1.126-.044-1.18.119.986 0 1.4.167 1.484.25.255-.2.884-.25 1.166-.25l-.9-.29z"/>
    <path fill="#BE4D71" d="M8.243 7.99c.755-1.193 1.888-1.67 2.36-1.76l.185.101c-1.496.228-2.477 1.614-2.78 2.279-.27.603-.766 2.157-.59 3.55.175 1.395.938 2.446 1.297 2.798-1.51-.563-1.741-2.412-1.668-3.266.084-.737.442-2.51 1.196-3.702"/>
    <path fill="#DE6F93" d="M8.57 14.74c-.83-1.517-.993-3.736-.97-4.656-.62 1.178 0 3.32.101 3.634.082.252.614.786.87 1.021"/>
    <path fill="#832D47" d="M8.252 10.43c.443-1.678 1.725-2.85 2.311-3.225C9.78 7.742 9.08 8.99 8.607 9.93c-.379.753-.228 1.817-.284 2.474l-.247.308v.538l-.037.319c-.126-.322-.23-1.464.213-3.14"/>
    <path fill="#D96C85" d="M10.414 8.509c.335-1.183.96-1.55 1.23-1.586-.365.162-.622.565-.946 1.116-.26.44-.388 1.312-.42 1.692l-.621 1.048c-.335.817-1.041 1.434-1.352 1.64V11.02c.087-1.01.694-1.899.987-2.217-.649.925-.757 2.464-.73 3.117l.19-.241zm1.919 5.253c-1.6-.667-1.559-3.717-1.338-5.16-.162 2.247.69 3.82 1.135 4.327l.4-1.008v1.183l.128.497c.063-.085.235-.323.419-.591.23-.336.635-2.03.648-3.453.011-1.14-.824-2.16-1.243-2.526.768.365 1.194 1.522 1.31 2.055.736 1.613 1.515 2.562 1.812 2.835.032-.058.022-.534-.27-1.975-.292-1.44-1.554-2.454-2.15-2.78.244.107 1.569.872 2.245 2.31.54 1.15.468 2.548.364 3.104-.687-.342-1.557-2.137-1.912-3.007.023.086.03.485-.088 1.569-.13 1.182-.811 2.24-1.135 2.62l-.325-.537z"/>
    <path fill="#DE6F93" d="M15.62 7.894c-.94-1.287-2.031-1.662-2.46-1.688.667.221 1.26.51 2.238 1.688.977 1.177 1.3 3.297 1.174 4.558-.102 1.01-.762 1.988-1.08 2.35.483-.1.921-.61 1.08-.851.777-1.562.222-4.448-.952-6.057"/>
    <path fill="#813A50" d="M17.004 13.754c.275-.963-.026-2.72-.21-3.478.274 1.483.114 2.936 0 3.478z"/>
    <path fill="#BE5573" d="M7.996 16.46c-.536-.382-.957-1.777-1.1-2.426-.035.262-.014 1.001.343 1.863.358.86 1.25 1.327 1.651 1.452-.44-.437-1.226-2.13-1.565-2.922zm7.204.82c.633-.656 1.296-2.04 1.548-2.649 0 .656-.504 1.625-.79 2.058l.686-.468c-.536.888-1.186 1.076-1.444 1.06"/>
    <path fill="#FFEDF2" d="M4.268 10.515c-.212 1.237-.503 1.804-.622 1.932.31 0 .762-.293.824-1.7.05-1.126 1.05-1.906 1.49-2.159-.44.129-1.48.69-1.692 1.927m15.526.001c.211 1.236.502 1.803.622 1.932-.311 0-.762-.294-.825-1.7-.05-1.126-.975-1.87-1.416-2.123a2.39 2.39 0 0 1 1.619 1.89"/>
    <path fill="#F7A8BB" d="M4.591 10.07c.56-1.397 1.398-1.568 1.745-1.501-1.33 1.15-1.231 3.515-1.573 4.73-.685-1.027-.39-2.559-.172-3.229m14.897.01c-.56-1.397-1.488-1.584-1.836-1.517 1.084 1.179 1.657 3.597 1.637 4.69.706-1.068.417-2.502.199-3.172"/>
    <path fill="#D86983" d="M5.076 14.412c-1.058-.882-.7-2.567-.731-2.644l.498 1.237zm13.908 0c1.058-.882.7-2.567.731-2.644l-.497 1.237z"/>
    <path fill="#F8AFC1" d="M4.968 11.29c.149-.805.912-1.758 1.275-2.134-.42.448-.824 2.442-.638 3.896.15 1.162-.363 1.845-.637 2.04.186-.42-.047-1.709-.203-2.286.016-.18.053-.713.203-1.517m14.125-.002c-.149-.803-.933-1.774-1.296-2.15.42.448.845 2.46.659 3.913-.15 1.162.363 1.845.637 2.04-.186-.42.068-1.769.224-2.346-.016-.18-.074-.653-.224-1.457"/>
    <path fill="#FBE0DE" d="M5.497 12.355c-.299-.495-.27-1.382-.218-1.763-.261.148-.451 1.381-.513 1.979l.326-.464.514 1.098zm13.068 0c.299-.495.27-1.382.218-1.763.261.148.45 1.381.513 1.979l-.327-.464-.513 1.098z"/>
    <path fill="#E77EA0" d="M6.258 13.144c-.548-1.781-.228-3.37 0-3.942-.535.457-.729 2.359-.74 3.245.262 1.435-.282 2.386-.557 2.66.597-.187.934-1.34 1.001-1.808l.535 1.439zm11.544 0c.548-1.781.229-3.37 0-3.942.535.457.737 2.346.748 3.232-.262 1.435.272 2.395.547 2.668-.518-.091-.88-1.247-.948-1.716l-.58 1.322z"/>
    <path fill="#C35676" d="M5.994 14.411c-.174.507-.726.665-.98.68.585-.321.9-1.388.953-1.846l.54 1.506c-.224-.024-.435-.237-.513-.34m12.073.002c.174.507.726.664.98.68-.585-.322-.835-1.32-.887-1.778l-.606 1.438c.224-.025.435-.237.513-.34"/>
    <path fill="#85354F" d="M5.122 10.688c.199-1.05.933-1.97 1.219-2.135l.485.487c-.56 1.188-.618 3.32-.561 4.129-.722-.903-.323-3.05-.022-3.937zm13.692-.235c-.2-1.051-.82-1.644-1.105-1.809l-.488.426c.56 1.187.654 3.14.597 3.95.722-.903.3-2.902 0-3.788z"/>
    <path fill="#E3D7DA" d="M6.336 8.568c.025.433.352.504.497.484.311-.854 1.12-1.749 1.494-2.094-.224-.285-.306-.915-.31-1.188-.25-.1-.52.185-.623.34-1.132-.297-1.26.587-1.182 1.067-.585.606-.16 1.18.124 1.39m11.389.001c-.025.433-.356.533-.5.512-.458-.887-1.111-1.78-1.485-2.124.224-.285.3-.913.305-1.186.249-.1.519.185.622.34 1.132-.297 1.26.587 1.182 1.067.585.606.16 1.18-.124 1.39"/>
    <path fill="#C25774" d="M8.31 6.97c-.324-.48-.55-2.32-.642-3.168l1.897 2.277c-.293.087-1.064.79-1.254.892m7.438-.009c.36-.436.551-2.311.644-3.16L14.68 6.174c.293.088.873.588 1.069.788"/>
    <path fill="#EA988D" d="M7.623 3c-.539.606-.809 2.31-.863 3.072.166.082.525.256.63.29.105.036.407-.367.568-.59C7.85 5.238 7.682 3.704 7.623 3m8.812 0c.54.606.813 2.31.867 3.072a9 9 0 0 1-.63.29c-.106.036-.39-.343-.552-.566A75 75 0 0 0 16.435 3"/>
    <path fill="#ED92A4" d="M10.377 5.722 7.624 3c-.117 1.176.752 2.586 1.201 3.144h.556zm3.307 0L16.437 3c.117 1.176-.752 2.586-1.2 3.144h-.557z"/>
    <defs>
        <linearGradient id="CATGIRL__a" x1="12" x2="12" y1="3.802" y2="20.998" gradientUnits="userSpaceOnUse">
            <stop stop-color="#FDECDE"/>
            <stop offset=".56" stop-color="#FAD1C4"/>
            <stop offset="1" stop-color="#FDECDE"/>
        </linearGradient>
        <linearGradient id="CATGIRL__b" x1="12" x2="12" y1="3.804" y2="21" gradientUnits="userSpaceOnUse">
            <stop stop-color="#FDECDE"/>
            <stop offset=".56" stop-color="#FAD1C4"/>
            <stop offset="1" stop-color="#FDECDE"/>
        </linearGradient>
    </defs>
</svg>
