<svg width="24" height="24" viewBox="0 0 24 24" fill="none" xmlns="http://www.w3.org/2000/svg">
<path d="M11.9999 21.0625C14.4036 21.0625 16.7086 20.1076 18.4081 18.4081C20.1077 16.7085 21.0624 14.4035 21.0624 12C21.0624 9.59641 20.1077 7.29139 18.4081 5.59184C16.7086 3.8923 14.4036 2.9375 11.9999 2.9375C9.59647 2.9375 7.29137 3.8923 5.59184 5.59184C3.89228 7.29139 2.9375 9.59641 2.9375 12C2.9375 14.4035 3.89228 16.7085 5.59184 18.4081C7.29137 20.1076 9.59647 21.0625 11.9999 21.0625ZM22 12C22 14.6521 20.9464 17.1956 19.0711 19.071C17.1957 20.9464 14.6521 21.9999 11.9999 21.9999C9.34782 21.9999 6.80428 20.9464 4.92892 19.071C3.05356 17.1956 2 14.6521 2 12C2 9.34777 3.05356 6.80429 4.92892 4.92892C6.80428 3.05357 9.34782 2 11.9999 2C14.6521 2 17.1957 3.05357 19.0711 4.92892C20.9464 6.80429 22 9.34777 22 12Z" fill="#0052FF"/>
<path d="M12.0005 4.50012V9.81266L16.3755 11.8189L12.0005 4.50012Z" fill="#0052FF" fill-opacity="0.6"/>
<path d="M12.0004 4.50012L7.62549 11.8189L12.0004 9.81893V4.50012Z" fill="#0052FF"/>
<path d="M12.0005 15.2625V18.8751L16.3755 12.6563L12.0005 15.2625Z" fill="#0052FF" fill-opacity="0.6"/>
<path d="M12.0004 18.8751V15.2625L7.62549 12.6563L12.0004 18.8751Z" fill="#0052FF"/>
<path d="M12.0005 14.4313L16.3755 11.8189L12.0005 9.81891V14.4313Z" fill="#0052FF" fill-opacity="0.2"/>
<path d="M7.62549 11.8188L12.0004 14.4313V9.81262L7.62549 11.8188Z" fill="#0052FF" fill-opacity="0.6"/>
</svg>
