<svg xmlns="http://www.w3.org/2000/svg" width="24" height="24" fill="none" viewBox="0 0 24 24">
    <path fill="#F0F3FA" d="M6.486 18.818 6 18.42c.235-.316 1.244-.955 1.719-1.238.807.109 2.181.338 1.227.42-.96.087-2.04.845-2.46 1.216m11.47.546.59-.491c-.251-.518-1.5-1.675-1.91-1.964-.703.11-1.925.65-1.09.736.829.088 2.045 1.337 2.41 1.719M8.75 9.758a.35.35 0 0 1 .437-.19l1.5.534a.32.32 0 0 1 .11.547.34.34 0 0 1-.203.086c-.163.01-.43.07-.709.158-.278.082-.524.18-.638.245a.355.355 0 0 1-.47-.12.32.32 0 0 1 .12-.447c.132-.07.328-.153.53-.218l-.475-.175a.33.33 0 0 1-.202-.42"/>
    <path fill="#F0F3FA" fill-rule="evenodd" d="M16.363 5.04c0-.666-.234-1.271-.354-1.495.802.202 1.99 1.064 1.99 2.487 0 1.43-1.221 2.291-1.8 2.422-.572.136-.572.796-.572 1.03 0 .23.382 1.992.736 2.292a2.07 2.07 0 0 1 1.091 2.089v1.756c0 1.833-3.142 2.65-5.454 2.65-2.313 0-3.884-.594-4.718-1.155-.666-.453-.726-1.184-.737-1.495v-1.926c0-1.565 1.179-1.947 1.828-1.969h2.792c.748 0 .835-.49.835-.698V9.021c0-1.429 1.123-1.99 2.438-2.16 1.314-.163 1.925-.992 1.925-1.822m-7.745 7.777h6.753c.741 0 1.014.737.992 1.059v1.745c0 1.123-2.929 1.505-4.396 1.56-1.44-.055-4.33-.437-4.33-1.56v-1.745c-.023-.322.245-1.059.981-1.059m5.29-1.636c.454 0 .819-.49.819-1.09s-.365-1.092-.818-1.092-.818.491-.818 1.091.365 1.091.818 1.091" clip-rule="evenodd"/>
    <path fill="#F0F3FA" d="M9.818 13.364H8.727a.546.546 0 0 0-.546.545V15c0 .301.244.546.546.546h1.09a.545.545 0 0 0 .546-.546v-1.09a.545.545 0 0 0-.545-.546m5.454 0h-1.091a.545.545 0 0 0-.545.545V15c0 .301.244.546.545.546h1.091a.545.545 0 0 0 .545-.546v-1.09a.545.545 0 0 0-.545-.546M7.637 9.217a2.28 2.28 0 0 0-2.307.218 2.49 2.49 0 0 0-.966 2.04c.41.213 1.44.513 2.308-.169a2.56 2.56 0 0 0 .965-2.094z"/>
    <path fill="#F8D45C" d="M5.983 18.851a.82.82 0 0 0-.823.218.93.93 0 0 0-.24.802c.163.055.55.098.829-.202a.94.94 0 0 0 .234-.818M6 17.946a1.03 1.03 0 0 0-1.02-.142 1.07 1.07 0 0 0-.617.763c.153.137.573.371 1.015.175A1.1 1.1 0 0 0 6 17.946m.834 1.418c-.202.038-.649.24-.785.692a1 1 0 0 0 .19.944c.208-.038.671-.213.808-.676a1.02 1.02 0 0 0-.213-.96"/>
    <path fill="#F8D45C" d="M7.625 18.817c-.19.092-.556.403-.534.85.022.448.36.688.534.786.191-.093.584-.382.557-.84-.033-.453-.371-.693-.557-.796m-1.08-1.61c-.087-.19-.381-.572-.834-.572-.447 0-.698.327-.802.49.087.203.366.612.818.601.453-.01.71-.333.818-.518"/>
    <path fill="#F0F3FA" d="M16.363 9.217c.409-.212 1.44-.441 2.307.219a2.49 2.49 0 0 1 .965 2.04c-.409.212-1.44.512-2.307-.17a2.56 2.56 0 0 1-.965-2.094z"/>
    <path fill="#F8D45C" d="M10.73 4.315 12 3l1.271 1.315 1.456-.77a42 42 0 0 1-.365 1.926c-.338.665-1.707.813-2.362.802-.649.01-2.023-.137-2.362-.802a41 41 0 0 1-.365-1.926z"/>
    <path fill="#F0F3FA" d="M6 5.967a2.6 2.6 0 0 1 1.68-2.422c-.087.164-.272.676-.272 1.407a1.62 1.62 0 0 0 1.161 1.571c.519.164.704.262.704.524 0 .818-.823 1.407-1.069 1.407C7.96 8.454 6 7.799 6 5.967"/>
</svg>
