<svg xmlns="http://www.w3.org/2000/svg" width="24" height="24" fill="none" viewBox="0 0 24 24">
    <path fill="#3BC77B" d="M17.931 11.997a4.03 4.03 0 0 0 2.847-1.168l.587 1.967a5.954 5.954 0 0 1-7.434-.484 5.96 5.96 0 0 1-1.512-2.188h-3.11l.612-1.25h2.154a6 6 0 0 1-.062-1.248h-1.998l.605-1.249h1.586a5.95 5.95 0 0 1 9.14-3.309l-.624 1.923a4.047 4.047 0 0 0-6.537 1.386h6.081l-.468 1.25h-5.912c-.033.418-.001.839.093 1.248h5.588l-.468 1.249H14.51a4.06 4.06 0 0 0 3.421 1.873m-15.296 1.56a8.43 8.43 0 0 1 5.632-7.954c-.022.873.061 1.745.25 2.598a5.931 5.931 0 1 0 7.866 7.979q1.245.309 2.585.318a8.428 8.428 0 0 1-16.333-2.94"/>
</svg>
