<svg xmlns="http://www.w3.org/2000/svg" width="24" height="24" fill="none" viewBox="0 0 24 24">
    <path fill="url(#CHAIN__a)" fill-rule="evenodd" d="M11.188 9.373c.273.076.526.143.88.143.395 0 .825-.097 1.212-.19.32-.071.615-.139.838-.139.492 0 .993.333 1.326.93.281.583.484 1.2.602 1.836 0 .013 0 .064.013.135.063.463.256 1.962-.337 2.286-.552.303-1.276-.13-1.566-.383a2.9 2.9 0 0 0-2.088-.99 2.95 2.95 0 0 0-2.105.99c-.295.253-1.002.69-1.49.383-.611-.383-.38-2.105-.337-2.42.046-.312.42-2.552 1.755-2.767.606 0 .968.097 1.297.186m.092.37c.236.068.455.127.767.127.37 0 .787-.089 1.153-.169.265-.059.505-.114.686-.122.741-.042.943.24 1.238.733.261.437.438 1.233.48 1.431l.013.046c.063.253.425 1.954-.186 2.261-.42.21-1.073-.354-1.41-.644l-.135-.114c-.24-.27-.909-.598-1.814-.598-.91 0-1.591.329-1.831.598-.043.03-.089.072-.148.127-.337.294-.968.846-1.334.631-.518-.299-.274-1.747-.202-2.168l.012-.084c.042-.253.404-2.265 1.575-2.219a3.6 3.6 0 0 1 1.136.168z" clip-rule="evenodd"/>
    <path fill="url(#CHAIN__b)" fill-rule="evenodd" d="M9.614 10.673a.49.49 0 0 1 .492-.492h.181c.274 0 .497.219.497.492v.034h.03c.273 0 .496.219.496.492v.181a.5.5 0 0 1-.497.497h-.029v.03a.494.494 0 0 1-.497.492h-.18a.49.49 0 0 1-.493-.492v-.03H9.58a.494.494 0 0 1-.493-.497v-.18a.49.49 0 0 1 .493-.493h.034zm.408.063a.194.194 0 0 1 .387 0v.362h.366a.177.177 0 1 1 0 .354h-.366v.362a.194.194 0 0 1-.387 0v-.362h-.366a.177.177 0 0 1 0-.354h.366z" clip-rule="evenodd"/>
    <path fill="url(#CHAIN__c)" d="M13.504 11.294a.358.358 0 1 1-.716 0 .358.358 0 0 1 .716 0"/>
    <path fill="url(#CHAIN__d)" d="M14.215 10.581a.357.357 0 0 1-.61.254.359.359 0 0 1 .252-.611.36.36 0 0 1 .358.357"/>
    <path fill="url(#CHAIN__e)" d="M14.926 11.294a.358.358 0 1 1-.712 0 .358.358 0 1 1 .716 0z"/>
    <path fill="url(#CHAIN__f)" d="M14.215 12a.358.358 0 1 1-.716 0 .358.358 0 0 1 .716 0"/>
    <path fill="url(#CHAIN__g)" d="M17.769 15.216a1.02 1.02 0 0 0-1.074.308l-.538.631a1.01 1.01 0 0 0-.169 1.048c.143-.11.286-.219.421-.337a.55.55 0 0 1 .114-.269l.59-.682a.48.48 0 0 1 .31-.168c.127-.169.24-.35.346-.53"/>
    <path fill="url(#CHAIN__h)" d="M16.96 17.419a.5.5 0 0 0 .32-.169l.586-.686a.5.5 0 0 0 .114-.252q.226-.303.42-.624c.262.37.249.885-.058 1.247l-.544.631a1.005 1.005 0 0 1-1.28.215 7 7 0 0 0 .443-.362"/>
    <path fill="url(#CHAIN__i)" d="M18.635 12.186a1.02 1.02 0 0 0-.783.8l-.156.816c-.072.362.063.716.316.947a6 6 0 0 0 .227-.534.5.5 0 0 1 0-.21l.168-.885a.5.5 0 0 1 .177-.295c.025-.21.042-.42.05-.64"/>
    <path fill="url(#CHAIN__j)" d="M18.95 14.544a.52.52 0 0 0 .266-.35l.168-.884a.5.5 0 0 0-.037-.303c.033-.236.059-.476.067-.72a1.014 1.014 0 0 1 .564 1.111l-.156.817a1.015 1.015 0 0 1-1.077.817q.112-.241.206-.488"/>
    <path fill="url(#CHAIN__k)" d="M18.008 9.167a1.02 1.02 0 0 0-.312.947l.16.817c.084.408.396.716.78.8a7 7 0 0 0-.043-.535.5.5 0 0 1-.16-.282l-.173-.884a.5.5 0 0 1 .009-.232 7 7 0 0 0-.261-.631"/>
    <path fill="url(#CHAIN__l)" d="M19.368 11.043c.042-.092.064-.21.042-.324l-.172-.88a.5.5 0 0 0-.244-.336 7 7 0 0 0-.257-.624c.51-.042.98.304 1.082.817l.16.817a1.015 1.015 0 0 1-.564 1.116 7 7 0 0 0-.05-.586z"/>
    <path fill="url(#CHAIN__m)" d="M15.975 6.72c-.134.345-.071.753.194 1.048l.556.615c.27.294.665.395 1.023.294a7 7 0 0 0-.295-.463.47.47 0 0 1-.24-.143l-.602-.665a.5.5 0 0 1-.126-.274 8 8 0 0 0-.51-.412"/>
    <path fill="url(#CHAIN__n)" d="M16.493 6.13q.279.208.539.447a.5.5 0 0 1 .316.16l.602.665a.47.47 0 0 1 .126.354c.114.151.215.311.311.471a1.02 1.02 0 0 0-.054-1.297l-.564-.614a1.014 1.014 0 0 0-1.28-.185z"/>
    <path fill="url(#CHAIN__o)" d="M15.584 6.455c-.274.236-.67.32-1.032.182l-.775-.295a1.01 1.01 0 0 1-.644-.813q.341.056.67.143c.05.064.122.114.202.148l.842.32c.076.03.16.042.24.03.168.083.337.18.497.285"/>
    <path fill="url(#CHAIN__p)" d="M15.958 5.77a1.014 1.014 0 0 0-.632-1.154l-.775-.295a1.015 1.015 0 0 0-1.246.442c.223.042.442.084.657.143a.5.5 0 0 1 .4-.017l.842.32a.5.5 0 0 1 .286.29c.16.085.316.17.467.266z"/>
    <path fill="url(#CHAIN__q)" d="M12.612 5.466a1.01 1.01 0 0 1-.918.7l-.83.041a1.01 1.01 0 0 1-.875-.43q.325-.106.66-.18c.064.03.14.042.211.038l.901-.042a.52.52 0 0 0 .333-.148q.258.002.518.021"/>
    <path fill="url(#CHAIN__r)" d="M12.598 4.683a8 8 0 0 0-.61-.021.5.5 0 0 0-.274-.063l-.896.042a.48.48 0 0 0-.38.202q-.327.076-.644.177a1.015 1.015 0 0 1 .969-.977l.83-.042c.458-.021.858.265 1.005.682"/>
    <path fill="url(#CHAIN__s)" d="M7.333 7.44c.333.182.75.169 1.074-.067l.673-.484a1.01 1.01 0 0 0 .421-.926 5 5 0 0 0-.53.248.5.5 0 0 1-.143.16l-.729.522a.46.46 0 0 1-.278.093 7 7 0 0 0-.488.455"/>
    <path fill="url(#CHAIN__t)" d="M8.672 5.487a.48.48 0 0 0-.421.076l-.733.522a.5.5 0 0 0-.198.303 8 8 0 0 0-.505.472 1.015 1.015 0 0 1 .333-1.247l.673-.484a1.02 1.02 0 0 1 1.33.127q-.246.112-.48.231"/>
    <path fill="url(#CHAIN__u)" d="M5.74 10.193a1.01 1.01 0 0 0 .934-.564l.37-.74a1.02 1.02 0 0 0-.08-1.036 7 7 0 0 0-.336.45.54.54 0 0 1-.05.244l-.4.804a.5.5 0 0 1-.228.228 6 6 0 0 0-.21.614"/>
    <path fill="url(#CHAIN__v)" d="M5.994 7.849a.5.5 0 0 0-.307.257l-.4.804a.5.5 0 0 0-.042.328 8 8 0 0 0-.236.674 1.015 1.015 0 0 1-.273-1.242l.37-.745a1.015 1.015 0 0 1 1.217-.518q-.17.214-.329.442"/>
    <path fill="url(#CHAIN__w)" d="M5.636 13.318a1.01 1.01 0 0 0 .552-.926l-.021-.834a1.01 1.01 0 0 0-.543-.875 5 5 0 0 0-.085.568.5.5 0 0 1 .055.223l.025.901c0 .105-.03.21-.084.29.021.22.06.438.101.653"/>
    <path fill="url(#CHAIN__x)" d="M4.76 11.116a.5.5 0 0 0-.16.383l.021.901c0 .127.055.24.135.325.02.235.059.463.105.69a1.014 1.014 0 0 1-.838-.972l-.02-.834a1.015 1.015 0 0 1 .841-1.023c-.033.172-.059.354-.084.535z"/>
    <path fill="url(#CHAIN__y)" d="M6.983 16.097c.172-.278.21-.632.063-.956l-.337-.758a1.015 1.015 0 0 0-.956-.597q.077.257.173.509.147.076.223.236l.366.816a.4.4 0 0 1 .043.177c.134.198.273.392.42.573z"/>
    <path fill="url(#CHAIN__z)" d="M5.21 14.61a.5.5 0 0 0 .03.33l.37.82a.49.49 0 0 0 .358.282q.184.27.388.522a1.014 1.014 0 0 1-1.28-.534l-.346-.758a1.015 1.015 0 0 1 .295-1.209q.083.278.185.548"/>
    <path fill="url(#CHAIN__A)" d="M9.483 17.965a1.01 1.01 0 0 0-.438-.905l-.682-.472a1.01 1.01 0 0 0-1.01-.084c.143.151.295.294.45.42q.084.026.16.077l.737.509a.6.6 0 0 1 .135.135q.314.176.648.32"/>
    <path fill="url(#CHAIN__B)" d="M7.18 17.422a.5.5 0 0 0 .215.4l.74.51a.51.51 0 0 0 .443.063c.19.1.379.193.58.277a1.015 1.015 0 0 1-1.338.169l-.686-.472a1.014 1.014 0 0 1-.324-1.3q.179.182.37.353"/>
    <path fill="url(#CHAIN__C)" d="M12.548 18.47q-.315.024-.632.017a.5.5 0 0 0-.193-.071l-.889-.127a.54.54 0 0 0-.248.03 6 6 0 0 1-.556-.152 1.01 1.01 0 0 1 .973-.425l.74.101c.375.055.674.303.8.627z"/>
    <path fill="url(#CHAIN__D)" d="M9.833 18.926c.02.48.378.892.875.96l.741.105c.51.067.985-.253 1.116-.737a8 8 0 0 1-.564.013.48.48 0 0 1-.417.134l-.884-.122a.5.5 0 0 1-.345-.21 7 7 0 0 1-.522-.143"/>
    <path fill="url(#CHAIN__E)" d="M15.537 17.506a1.02 1.02 0 0 0-1.035-.18l-.695.268a1.02 1.02 0 0 0-.636.8c.194-.029.392-.071.581-.126a.6.6 0 0 1 .169-.11l.842-.324a.5.5 0 0 1 .24-.029 8 8 0 0 0 .534-.299"/>
    <path fill="url(#CHAIN__F)" d="M13.853 19.052a.5.5 0 0 0 .43.038l.841-.324a.5.5 0 0 0 .282-.295q.26-.126.505-.278a1.015 1.015 0 0 1-.627 1.15l-.694.27a1.015 1.015 0 0 1-1.255-.451q.26-.046.514-.11z"/>
    <path fill="url(#CHAIN__G)" d="M5.105 12.307c.151-.013.282.1.294.252.034.443.181 1.373.497 1.988a.273.273 0 0 1-.484.252c-.366-.715-.522-1.726-.56-2.202a.274.274 0 0 1 .253-.294z"/>
    <path fill="url(#CHAIN__H)" d="M5.74 9.02a.27.27 0 0 1 .143.357c-.168.413-.463 1.306-.463 1.996a.274.274 0 0 1-.547 0c0-.8.324-1.772.505-2.206a.274.274 0 0 1 .362-.147"/>
    <path fill="url(#CHAIN__I)" d="M7.874 6.41a.28.28 0 0 1-.046.382c-.35.282-1.027.926-1.36 1.537a.274.274 0 1 1-.48-.261c.38-.707 1.128-1.406 1.499-1.7a.274.274 0 0 1 .383.041z"/>
    <path fill="url(#CHAIN__J)" d="M10.94 5.137a.274.274 0 0 1-.223.312c-.438.076-1.347.316-1.928.69a.274.274 0 0 1-.295-.463 6.6 6.6 0 0 1 2.13-.766.273.273 0 0 1 .316.223z"/>
    <path fill="url(#CHAIN__K)" d="M14.233 5.374a.274.274 0 0 1-.337.19c-.43-.127-1.352-.312-2.042-.228a.276.276 0 1 1-.063-.548c.8-.092 1.802.118 2.256.249a.273.273 0 0 1 .186.337"/>
    <path fill="url(#CHAIN__L)" d="M17.074 7.117a.273.273 0 0 1-.387.008 6 6 0 0 0-1.693-1.162.274.274 0 0 1 .198-.505c.75.29 1.537.943 1.874 1.272.11.105.113.277.008.387"/>
    <path fill="url(#CHAIN__M)" d="M18.758 10.013a.273.273 0 0 1-.341-.173c-.14-.425-.501-1.292-.952-1.818a.274.274 0 0 1 .329-.431.3.3 0 0 1 .084.073 6.6 6.6 0 0 1 1.056 2.008.27.27 0 0 1-.176.34"/>
    <path fill="url(#CHAIN__N)" d="M18.922 13.34a.274.274 0 0 1-.223-.316c.076-.442.16-1.377 0-2.055a.274.274 0 0 1 .534-.122c.181.783.085 1.806 0 2.27a.274.274 0 0 1-.311.222"/>
    <path fill="url(#CHAIN__O)" d="M17.47 16.316a.274.274 0 0 1-.05-.383c.273-.354.786-1.141.963-1.81a.28.28 0 0 1 .227-.229.28.28 0 0 1 .287.145.28.28 0 0 1 .012.223 6.6 6.6 0 0 1-1.052 2.003.28.28 0 0 1-.291.1.3.3 0 0 1-.096-.049"/>
    <path fill="url(#CHAIN__P)" d="M14.82 18.356a.274.274 0 0 1 .135-.366c.405-.185 1.221-.652 1.684-1.166a.276.276 0 0 1 .409.37c-.54.536-1.17.973-1.861 1.293a.28.28 0 0 1-.303-.044.3.3 0 0 1-.063-.087"/>
    <path fill="url(#CHAIN__Q)" d="M11.57 18.917a.275.275 0 0 1 .287-.261c.447.02 1.39-.017 2.038-.253a.273.273 0 0 1 .398.262.27.27 0 0 1-.209.248c-.757.277-1.78.311-2.252.286a.274.274 0 0 1-.261-.282"/>
    <path fill="url(#CHAIN__R)" d="M8.341 17.827a.28.28 0 0 1 .38-.093c.378.232 1.22.648 1.906.745a.274.274 0 1 1-.076.543 6.6 6.6 0 0 1-2.117-.82.273.273 0 0 1-.093-.375"/>
    <path fill="url(#CHAIN__S)" d="M6.027 15.51a.274.274 0 0 1 .38.085c.235.379.8 1.128 1.368 1.528a.273.273 0 1 1-.312.446 6.6 6.6 0 0 1-1.52-1.684.27.27 0 0 1 .084-.374"/>
    <defs>
        <linearGradient id="CHAIN__a" x1="11.805" x2="11.805" y1="-12.954" y2="37.958" gradientUnits="userSpaceOnUse">
            <stop stop-color="#EA3A25"/>
            <stop offset=".49" stop-color="#F2B73B"/>
            <stop offset="1" stop-color="#ED3C20"/>
        </linearGradient>
        <linearGradient id="CHAIN__b" x1="24.966" x2="24.966" y1="-43.604" y2="77.833" gradientUnits="userSpaceOnUse">
            <stop stop-color="#EA3A25"/>
            <stop offset=".49" stop-color="#F2B73B"/>
            <stop offset="1" stop-color="#ED3C20"/>
        </linearGradient>
        <linearGradient id="CHAIN__c" x1="-13.594" x2="-13.594" y1="-160.417" y2="216.039" gradientUnits="userSpaceOnUse">
            <stop stop-color="#EA3A25"/>
            <stop offset=".49" stop-color="#F2B73B"/>
        </linearGradient>
        <linearGradient id="CHAIN__d" x1="-29.497" x2="-29.497" y1="-144.511" y2="231.944" gradientUnits="userSpaceOnUse">
            <stop stop-color="#EA3A25"/>
            <stop offset=".49" stop-color="#F2B73B"/>
        </linearGradient>
        <linearGradient id="CHAIN__e" x1="-45.301" x2="-45.301" y1="-151.97" y2="205.147" gradientUnits="userSpaceOnUse">
            <stop stop-color="#EA3A25"/>
            <stop offset=".49" stop-color="#F2B73B"/>
        </linearGradient>
        <linearGradient id="CHAIN__f" x1="-29.497" x2="-29.497" y1="-176.228" y2="200.227" gradientUnits="userSpaceOnUse">
            <stop stop-color="#EA3A25"/>
            <stop offset=".49" stop-color="#F2B73B"/>
            <stop offset="1" stop-color="#ED3C20"/>
        </linearGradient>
        <linearGradient id="CHAIN__g" x1="-29.65" x2="-29.65" y1="-83.886" y2="41.995" gradientUnits="userSpaceOnUse">
            <stop offset=".49" stop-color="#F2B73B"/>
            <stop offset="1" stop-color="#ED3C20"/>
        </linearGradient>
        <linearGradient id="CHAIN__h" x1="-30.968" x2="-30.968" y1="-79.716" y2="34.882" gradientUnits="userSpaceOnUse">
            <stop offset=".49" stop-color="#F2B73B"/>
            <stop offset="1" stop-color="#ED3C20"/>
        </linearGradient>
        <linearGradient id="CHAIN__i" x1="-90.798" x2="-90.798" y1="-47.071" y2="52.76" gradientUnits="userSpaceOnUse">
            <stop offset=".49" stop-color="#F2B73B"/>
            <stop offset="1" stop-color="#ED3C20"/>
        </linearGradient>
        <linearGradient id="CHAIN__j" x1="-82.162" x2="-82.162" y1="-44.233" y2="48.902" gradientUnits="userSpaceOnUse">
            <stop offset=".49" stop-color="#F2B73B"/>
            <stop offset="1" stop-color="#ED3C20"/>
        </linearGradient>
        <linearGradient id="CHAIN__k" x1="-90.755" x2="-90.755" y1="-28.235" y2="71.597" gradientUnits="userSpaceOnUse">
            <stop stop-color="#EA3A25"/>
            <stop offset=".49" stop-color="#F2B73B"/>
        </linearGradient>
        <linearGradient id="CHAIN__l" x1="-81.427" x2="-81.427" y1="-24.342" y2="68.646" gradientUnits="userSpaceOnUse">
            <stop stop-color="#EA3A25"/>
            <stop offset=".49" stop-color="#F2B73B"/>
        </linearGradient>
        <linearGradient id="CHAIN__m" x1="-29.933" x2="-29.933" y1="-17.805" y2="110.452" gradientUnits="userSpaceOnUse">
            <stop stop-color="#EA3A25"/>
            <stop offset=".49" stop-color="#F2B73B"/>
        </linearGradient>
        <linearGradient id="CHAIN__n" x1="-30.091" x2="-30.091" y1="-10.128" y2="103.897" gradientUnits="userSpaceOnUse">
            <stop stop-color="#EA3A25"/>
            <stop offset=".49" stop-color="#F2B73B"/>
        </linearGradient>
        <linearGradient id="CHAIN__o" x1="-3.392" x2="-3.392" y1="-16.819" y2="201.12" gradientUnits="userSpaceOnUse">
            <stop stop-color="#EA3A25"/>
            <stop offset=".49" stop-color="#F2B73B"/>
        </linearGradient>
        <linearGradient id="CHAIN__p" x1="-3.808" x2="-3.808" y1="1.344" y2="170.13" gradientUnits="userSpaceOnUse">
            <stop stop-color="#EA3A25"/>
            <stop offset=".49" stop-color="#F2B73B"/>
        </linearGradient>
        <linearGradient id="CHAIN__q" x1="16.275" x2="16.275" y1="-26.277" y2="309.159" gradientUnits="userSpaceOnUse">
            <stop stop-color="#EA3A25"/>
            <stop offset=".49" stop-color="#F2B73B"/>
        </linearGradient>
        <linearGradient id="CHAIN__r" x1="16.587" x2="16.587" y1="4.017" y2="254.978" gradientUnits="userSpaceOnUse">
            <stop stop-color="#EA3A25"/>
            <stop offset=".49" stop-color="#F2B73B"/>
        </linearGradient>
        <linearGradient id="CHAIN__s" x1="38.371" x2="38.371" y1="-15.596" y2="144.201" gradientUnits="userSpaceOnUse">
            <stop stop-color="#EA3A25"/>
            <stop offset=".49" stop-color="#F2B73B"/>
        </linearGradient>
        <linearGradient id="CHAIN__t" x1="38.776" x2="38.776" y1="-3.82" y2="129.485" gradientUnits="userSpaceOnUse">
            <stop stop-color="#EA3A25"/>
            <stop offset=".49" stop-color="#F2B73B"/>
        </linearGradient>
        <linearGradient id="CHAIN__u" x1="75.057" x2="75.057" y1="-22.324" y2="86.999" gradientUnits="userSpaceOnUse">
            <stop stop-color="#EA3A25"/>
            <stop offset=".49" stop-color="#F2B73B"/>
        </linearGradient>
        <linearGradient id="CHAIN__v" x1="73.665" x2="73.665" y1="-17.051" y2="83.227" gradientUnits="userSpaceOnUse">
            <stop stop-color="#EA3A25"/>
            <stop offset=".49" stop-color="#F2B73B"/>
        </linearGradient>
        <linearGradient id="CHAIN__w" x1="162.456" x2="162.456" y1="-36.56" y2="60.56" gradientUnits="userSpaceOnUse">
            <stop stop-color="#EA3A25"/>
            <stop offset=".49" stop-color="#F2B73B"/>
            <stop offset="1" stop-color="#ED3C20"/>
        </linearGradient>
        <linearGradient id="CHAIN__x" x1="152.947" x2="152.947" y1="-33.236" y2="57.236" gradientUnits="userSpaceOnUse">
            <stop stop-color="#EA3A25"/>
            <stop offset=".49" stop-color="#F2B73B"/>
            <stop offset="1" stop-color="#ED3C20"/>
        </linearGradient>
        <linearGradient id="CHAIN__y" x1="76.22" x2="76.22" y1="-63.711" y2="47.01" gradientUnits="userSpaceOnUse">
            <stop offset=".49" stop-color="#F2B73B"/>
            <stop offset="1" stop-color="#ED3C20"/>
        </linearGradient>
        <linearGradient id="CHAIN__z" x1="72.704" x2="72.704" y1="-58.769" y2="41.032" gradientUnits="userSpaceOnUse">
            <stop offset=".49" stop-color="#F2B73B"/>
            <stop offset="1" stop-color="#ED3C20"/>
        </linearGradient>
        <linearGradient id="CHAIN__A" x1="38.864" x2="38.864" y1="-123.448" y2="40.886" gradientUnits="userSpaceOnUse">
            <stop offset=".49" stop-color="#F2B73B"/>
            <stop offset="1" stop-color="#ED3C20"/>
        </linearGradient>
        <linearGradient id="CHAIN__B" x1="38.456" x2="38.456" y1="-103.171" y2="28.03" gradientUnits="userSpaceOnUse">
            <stop offset=".49" stop-color="#F2B73B"/>
            <stop offset="1" stop-color="#ED3C20"/>
        </linearGradient>
        <linearGradient id="CHAIN__C" x1="16.52" x2="16.52" y1="-286.516" y2="51.946" gradientUnits="userSpaceOnUse">
            <stop offset=".49" stop-color="#F2B73B"/>
            <stop offset="1" stop-color="#ED3C20"/>
        </linearGradient>
        <linearGradient id="CHAIN__D" x1="16.695" x2="16.695" y1="-218.314" y2="19.992" gradientUnits="userSpaceOnUse">
            <stop offset=".49" stop-color="#F2B73B"/>
            <stop offset="1" stop-color="#ED3C20"/>
        </linearGradient>
        <linearGradient id="CHAIN__E" x1="-3.911" x2="-3.911" y1="-182.264" y2="42.538" gradientUnits="userSpaceOnUse">
            <stop offset=".49" stop-color="#F2B73B"/>
            <stop offset="1" stop-color="#ED3C20"/>
        </linearGradient>
        <linearGradient id="CHAIN__F" x1="-4.219" x2="-4.219" y1="-148.578" y2="23.418" gradientUnits="userSpaceOnUse">
            <stop offset=".49" stop-color="#F2B73B"/>
            <stop offset="1" stop-color="#ED3C20"/>
        </linearGradient>
        <linearGradient id="CHAIN__G" x1="111.075" x2="111.075" y1="-46.549" y2="50.857" gradientUnits="userSpaceOnUse">
            <stop offset=".49" stop-color="#F2B73B"/>
            <stop offset="1" stop-color="#ED3C20"/>
        </linearGradient>
        <linearGradient id="CHAIN__H" x1="114.433" x2="114.433" y1="-26.166" y2="70.436" gradientUnits="userSpaceOnUse">
            <stop stop-color="#EA3A25"/>
            <stop offset=".49" stop-color="#F2B73B"/>
        </linearGradient>
        <linearGradient id="CHAIN__I" x1="52.818" x2="52.818" y1="-12.937" y2="104.539" gradientUnits="userSpaceOnUse">
            <stop stop-color="#EA3A25"/>
            <stop offset=".49" stop-color="#F2B73B"/>
        </linearGradient>
        <linearGradient id="CHAIN__J" x1="26.565" x2="26.565" y1="-7.353" y2="193.224" gradientUnits="userSpaceOnUse">
            <stop stop-color="#EA3A25"/>
            <stop offset=".49" stop-color="#F2B73B"/>
        </linearGradient>
        <linearGradient id="CHAIN__K" x1="6.698" x2="6.698" y1="-11.146" y2="305.827" gradientUnits="userSpaceOnUse">
            <stop stop-color="#EA3A25"/>
            <stop offset=".49" stop-color="#F2B73B"/>
        </linearGradient>
        <linearGradient id="CHAIN__L" x1="-15.856" x2="-15.856" y1="-9.234" y2="136.918" gradientUnits="userSpaceOnUse">
            <stop stop-color="#EA3A25"/>
            <stop offset=".49" stop-color="#F2B73B"/>
        </linearGradient>
        <linearGradient id="CHAIN__M" x1="-51.158" x2="-51.158" y1="-19.026" y2="84.605" gradientUnits="userSpaceOnUse">
            <stop stop-color="#EA3A25"/>
            <stop offset=".49" stop-color="#F2B73B"/>
        </linearGradient>
        <linearGradient id="CHAIN__N" x1="-162.167" x2="-162.167" y1="-35.174" y2="59.32" gradientUnits="userSpaceOnUse">
            <stop stop-color="#EA3A25"/>
            <stop offset=".49" stop-color="#F2B73B"/>
            <stop offset="1" stop-color="#ED3C20"/>
        </linearGradient>
        <linearGradient id="CHAIN__O" x1="-50.824" x2="-50.824" y1="-59.702" y2="43.355" gradientUnits="userSpaceOnUse">
            <stop offset=".49" stop-color="#F2B73B"/>
            <stop offset="1" stop-color="#ED3C20"/>
        </linearGradient>
        <linearGradient id="CHAIN__P" x1="-15.227" x2="-15.227" y1="-110.427" y2="33.338" gradientUnits="userSpaceOnUse">
            <stop offset=".49" stop-color="#F2B73B"/>
            <stop offset="1" stop-color="#ED3C20"/>
        </linearGradient>
        <linearGradient id="CHAIN__Q" x1="6.525" x2="6.525" y1="-272.139" y2="35.236" gradientUnits="userSpaceOnUse">
            <stop offset=".49" stop-color="#F2B73B"/>
            <stop offset="1" stop-color="#ED3C20"/>
        </linearGradient>
        <linearGradient id="CHAIN__R" x1="27.093" x2="27.093" y1="-160.918" y2="31.729" gradientUnits="userSpaceOnUse">
            <stop offset=".49" stop-color="#F2B73B"/>
            <stop offset="1" stop-color="#ED3C20"/>
        </linearGradient>
        <linearGradient id="CHAIN__S" x1="12.001" x2="12.001" y1="4.001" y2="19.998" gradientUnits="userSpaceOnUse">
            <stop offset=".49" stop-color="#F2B73B"/>
            <stop offset="1" stop-color="#ED3C20"/>
        </linearGradient>
    </defs>
</svg>
