<svg xmlns="http://www.w3.org/2000/svg" width="24" height="24" fill="none" viewBox="0 0 24 24">
    <path fill="#0053F1" d="M12.002 22a10.002 10.002 0 0 0 9.33-13.596 10 10 0 1 0-18.306 8.008l7.412-4.418-3.089-1.765a.906.906 0 0 1-.335-1.223.906.906 0 0 1 1.224-.335l3.176 1.782V6.888c0-.488.353-.77.841-.77s.924.282.924.77v3.565l3.094-1.782a.906.906 0 0 1 1.223.335c.247.417.089.976-.33 1.223l-3.11 1.765 3.093 1.765a.896.896 0 0 1 .33 1.217.91.91 0 0 1-.924.442.8.8 0 0 1-.282-.106l-3.094-1.782v3.582c0 .488-.436.77-.924.77s-.841-.282-.841-.77v-3.6l-7.47 4.412A9.99 9.99 0 0 0 12.001 22"/>
</svg>
