<svg xmlns="http://www.w3.org/2000/svg" width="24" height="24" fill="none" viewBox="0 0 24 24">
    <path fill="url(#CNFI__a)" d="M10.75 2C5.812 2.625 2 6.862 2 12c0 5.137 3.812 9.375 8.75 10v-2.606a7.5 7.5 0 0 1 0-14.788zm2.5 20c4.938-.625 8.75-4.863 8.75-10 0-5.138-3.812-9.375-8.75-10v2.606a7.5 7.5 0 0 1 5.025 3.288c.081.406.006 1.012-.5 1.356a1.375 1.375 0 0 1-1.587 0v.012a5 5 0 1 0-.113 5.638v.025a1.44 1.44 0 0 1 1.819-.256c.475.312.594.762.562 1.156a7.5 7.5 0 0 1-5.206 3.569zm5.625-10a1.25 1.25 0 1 1-2.5 0 1.25 1.25 0 0 1 2.5 0"/>
    <defs>
        <linearGradient id="CNFI__a" x1="4.919" x2="19.837" y1="4.581" y2="16.675" gradientUnits="userSpaceOnUse">
            <stop stop-color="#FF5300"/>
            <stop offset="1" stop-color="#FBB705"/>
        </linearGradient>
    </defs>
</svg>
