<svg xmlns="http://www.w3.org/2000/svg" width="24" height="24" fill="none" viewBox="0 0 24 24">
    <path fill="#3A1704" d="M3.214 7.22c.48-.24 1-.1 1.2 0 .2-.405.775-1.22 1.495-1.22.715 0 .7.61.6.915l.3-.3h1.19l.9.915.3-.31h1.195l.3.92c.1-.2.42-.61.9-.61.475 0 .795.2.895.3.1-.1.42-.3.9-.3.475 0 .994.815 1.194 1.22.2-.51.775-1.53 1.495-1.53.715 0 1.295.815 1.495 1.225.2-.305.715-.915 1.2-.915.475 0 .795.61.895.915a1.06 1.06 0 0 1 .9-.61c.95 0 .99 1.22.895 1.83-.48 3.18-1.8 3.975-2.4 3.975-.095.915-.295 2.875-.295 3.36 0 .615-.3 1.225-1.795.92s-9.57-.615-11.064-.305c-1.2.245-1.5-.305-1.5-.615l-.6-4.58c-.1 0-.415-.065-.895-.31-.475-.24 0-.915.3-1.22-.1-.715-.36-2.2-.6-2.445-.3-.305 0-.915.6-1.225"/>
    <path fill="#F0F3FA" d="M11.074 7.7a1.25 1.25 0 0 0-.38.44l-.3-.92h-1.2l-.3.31-.895-.92H6.804l-.3.305c.05-.16.085-.405 0-.6l-.04-.07C6.369 6.105 6.199 6 5.909 6c-.685 0-1.24.735-1.465 1.16l-.035.06-.02-.01a1.4 1.4 0 0 0-1.175.01c-.6.31-.9.92-.6 1.225.24.245.5 1.73.6 2.445-.3.305-.775.98-.3 1.22.48.25.8.31.9.31l.6 4.58c0 .31.3.86 1.495.615 1.495-.305 9.57 0 11.064.3 1.5.31 1.8-.3 1.8-.915 0-.485.195-2.445.295-3.36.6 0 1.915-.795 2.395-3.975.1-.61.06-1.83-.9-1.83a1 1 0 0 0-.53.18 1.1 1.1 0 0 0-.365.43 2 2 0 0 0-.265-.515c-.16-.22-.37-.4-.635-.4-.3 0-.615.24-.855.49-.15.15-.265.31-.34.425a3 3 0 0 0-.29-.46c-.28-.375-.71-.765-1.205-.765-.505 0-.945.505-1.225.985-.12.2-.215.395-.27.55a4 4 0 0 0-.315-.53c-.245-.35-.575-.7-.885-.7a1.35 1.35 0 0 0-.9.31c0-.005 0-.01-.01-.015a1.35 1.35 0 0 0-.884-.29c-.2 0-.375.07-.515.17m-.16-.49c.185-.105.415-.18.675-.18a2 2 0 0 1 .9.2 2 2 0 0 1 .9-.2c.254 0 .48.105.64.22.196.14.37.311.514.505l.2-.275c.285-.35.74-.76 1.335-.76.55 0 .99.31 1.29.6q.136.143.25.285l.115-.105c.235-.21.6-.47 1.035-.47a1.27 1.27 0 0 1 1 .56c.295-.195.6-.255.8-.255.35 0 .655.115.89.33.225.2.35.465.43.71.15.48.125 1.02.065 1.37-.25 1.645-.72 2.725-1.25 3.41a2.6 2.6 0 0 1-1.175.905c-.11 1-.26 2.54-.26 2.94 0 .37-.09.88-.54 1.21-.435.315-1.06.36-1.85.2-.34-.07-1.09-.145-2.09-.21a99 99 0 0 0-6.724-.21c-1 .01-1.74.05-2.055.115-.67.135-1.195.07-1.57-.17a1.12 1.12 0 0 1-.525-.895l-.55-4.2a4 4 0 0 1-.675-.285.84.84 0 0 1-.465-.61c-.04-.235.02-.45.085-.61.095-.225.24-.435.375-.6a20 20 0 0 0-.2-1.135 7 7 0 0 0-.23-.8l-.015-.025c-.335-.365-.265-.84-.11-1.16.165-.34.475-.64.86-.84.37-.183.791-.236 1.195-.15.115-.17.26-.355.43-.525.3-.29.745-.6 1.295-.6.25 0 .48.05.675.18.18.115.3.27.375.43h1.25l.69.7.09-.09h1.77z"/>
    <path fill="url(#CONE__a)" fill-rule="evenodd" d="m18.698 13.615-.29 2.7c0 .4-.12 1.2-.595 1.2-.19 0-.59-.06-1.14-.14a32 32 0 0 0-4.784-.455c-1.21 0-2.67.12-3.93.23-1.5.13-2.72.23-2.88.07-.185-.185-.255-.6-.35-1.175-.06-.355-.13-.77-.245-1.23-.235-.96-.3-1.6-.3-1.8.3 0 .95-.125 1.19-.6.2.3.71.835 1.185.6.475-.245.79-.9.89-1.205.2.3.65.9.885.9.3 0 1.485 0 1.78-.3.235-.24.495-.7.59-.9h.3c.1.3.41.9.885.9s.79-.6.89-.9c.1.3.415.9.89.9s.79-.6.884-.9c.1.3.476.9 1.185.9a2.25 2.25 0 0 0 1.485-.6v.3c0 .4.165.985.59 1.2.595.3.89.3.89.3zM10.498 15c.16 0 .5-.085.5-.5s-.34-.5-.5-.5-.5.085-.5.5.34.5.5.5m0 1c.736 0 1.286-.72 1.286-1.535 0-.81-.55-1.465-1.285-1.465s-1.37.655-1.37 1.465c0 .815.635 1.535 1.37 1.535m3-1c.16 0 .5-.12.5-.535 0-.41-.34-.465-.5-.465s-.5.085-.5.5.34.5.5.5m0 1c.736 0 1.25-.69 1.25-1.5s-.514-1.5-1.25-1.5c-.734 0-1.25.69-1.25 1.5s.516 1.5 1.25 1.5m3.425-1.09c-.05.41-.52.36-.68.34-.07-.01-.064-.015-.015-.43.025-.185.06-.48.125-.445.16.02.62.125.57.535m1.06.13c-.1.805-.77 1.385-1.5 1.295l-1.024-.13a.295.295 0 0 1-.255-.325l.064-.535.08-.63.15-1.165a.296.296 0 0 1 .33-.255l1.025.125c.725.09 1.235.82 1.13 1.62M5.8 13.325l-.73.24a.1.1 0 0 0-.065.095c.025.9.55 2.175.85 2.785a.1.1 0 0 0 .115.05l.785-.26a.1.1 0 0 0 .035-.025l.23-.225a.1.1 0 0 1 .115-.02l.49.245c.02.01.05.015.075.005l.77-.255a.1.1 0 0 0 .065-.105L8.26 13.38a.1.1 0 0 0-.1-.085h-.695a.1.1 0 0 0-.1.1v.91a.1.1 0 0 1-.096.1.1.1 0 0 1-.05-.01l-.354-.175a.1.1 0 0 0-.077-.006.1.1 0 0 0-.058.05l-.15.3a.1.1 0 0 1-.096.058.1.1 0 0 1-.089-.067l-.47-1.175a.1.1 0 0 0-.125-.055" clip-rule="evenodd"/>
    <path fill="url(#CONE__b)" fill-rule="evenodd" d="M3.6 7.5c-.476 0-.6.5-.6.7.24.485.5 2.005.6 2.71-.3.3-.3.6-.3.9 0 .24.4.3.594.3.295.6.59.6.885.6.24 0 .1-.8 0-1.2l.595-.3c.3 1.2.89 1.5 1.185 1.5.235 0 .3-.6.3-.9 0-.2-.065-.6-.3-.6-.3 0-.595-.6-.595-.9 0-.245.2-.9.3-1.2-.215-.22-.12-.75-.05-1.14.025-.15.05-.28.05-.365 0-.3-.22-1.105-.515-1.105-.3 0-.67.2-.97.8-.235.485.3 2.005.595 2.705l-.595.3c-.1-.7-.295-2.16-.295-2.4 0-.3-.3-.405-.89-.405zm3.55 2h-.59l-.3.505.3.495h.59l.299-.495zM7 7h.999l.5 1-.5 1h-1l-.5-1zm2.249.5-.5.75.5.75h.75l.5-.75-.5-.75zm1 2 .455-.5h.595l.45.5-.45.505h-.6zm-2.25 0-.75 1.5.75 1h1.5l.75-1-.75-1.5zm3-1.3c.2-.3.715-.715 1.185 0v.605c.1-.3.34-.805.815-.805.59 0 1 .2 1 1.405v1.8c0 .2-.015.795-.25.795-.5 0-.75-.65-.75-1.25v-.32c.015-.585.03-1.275-.22-1.025-.115.12-.185.545-.265 1.015-.12.73-.265 1.58-.625 1.58-.475 0-.59-.99-.59-1.39.295-.2.885-.665.885-.9 0-.3-.885-1.505-1.185-1.505zm5 3.8c-1.185 0-1.5-1.49-1.5-2.295 0-.73.65-2.205 1.54-2.205.71 0 1.085.9 1.185 1.305v.9c0 .24-.2.5-.3.6.3.3.555 1.695-.925 1.695m2.7-4.1c.2.1.6.365.6.6 0 .115-.126.35-.266.615-.235.455-.515 1-.33 1.19.125.125.3-.215.52-.655.32-.625.735-1.45 1.255-1.45.89 0 .595 1.805.3 2.71-.3.9-.89 2.4-2.075 2.4-1.184 0-1.48-.9-1.184-1.2.184-.19.49-.02.76.13.165.09.314.17.424.17.3 0 .59-.6.59-1.2-.2.3-.71.84-1.184.6-.59-.3-.885-3.605.594-3.905zm-2.655.6c-.24 0-.3.505-.3.605h.595c0-.1-.06-.6-.3-.6zm0 2.41c-.24 0-.3-.4-.3-.6h.595c0 .2-.06.6-.3.6z" clip-rule="evenodd"/>
    <defs>
        <linearGradient id="CONE__a" x1="12" x2="11.49" y1="5.5" y2="17.198" gradientUnits="userSpaceOnUse">
            <stop offset=".04" stop-color="#CD7B41"/>
            <stop offset=".26" stop-color="#DB995D"/>
            <stop offset=".36" stop-color="#C0733A"/>
            <stop offset=".6" stop-color="#D29957"/>
            <stop offset=".88" stop-color="#CE8447"/>
            <stop offset="1" stop-color="#DC9555"/>
        </linearGradient>
        <linearGradient id="CONE__b" x1="3.004" x2="21.073" y1="8.87" y2="10.055" gradientUnits="userSpaceOnUse">
            <stop stop-color="#FEA90F"/>
            <stop offset=".08" stop-color="#FFB917"/>
            <stop offset=".2" stop-color="#EE7B07"/>
            <stop offset=".34" stop-color="#F9F085"/>
            <stop offset=".45" stop-color="#F2A700"/>
            <stop offset=".58" stop-color="#FAA401"/>
            <stop offset=".69" stop-color="#FDB719"/>
            <stop offset=".83" stop-color="#FBA101"/>
            <stop offset=".92" stop-color="#EC9E00"/>
            <stop offset="1" stop-color="#EE9D03"/>
        </linearGradient>
    </defs>
</svg>
