<svg xmlns="http://www.w3.org/2000/svg" width="24" height="24" fill="none" viewBox="0 0 24 24">
    <path fill="url(#COPI__a)" d="M9.5 13c.25 3.75 2.72 6.115 4.21 6.715-1.75.77-5.79.475-5.79-6.945 0-7.455 4.475-9 6.845-9.255l2.365.515L19 3.515l.5.515c-.63.2-1.56 1.37-2 1.97-.63-1.235-2.125-1.5-2.735-1.5-2.9 0-5.575 3.875-5.265 8.5"/>
    <path fill="url(#COPI__b)" d="M19 3.515c-.815.235-1.605 1.2-1.87 1.8A2.67 2.67 0 0 0 14.75 4C12.63 4 8.5 7.085 8.5 12.75c0 5.63 3.355 7 6.25 7 1.75 0 2.825-1.135 2.645-1.835-.09-.345-.05-1.03.79-1.03s.895.515.79 1.03C18.71 19.2 16.675 21 13.25 21c-3.42 0-6.12-4.115-6.91-5.915-.63-1.44-1.49-1.97-1.84-2.055.42-.825 1.4-.86 1.84-.775A8.855 8.855 0 0 1 14.75 3c1.05 0 1.855.345 2.12.515A2.03 2.03 0 0 1 18.185 3c.315 0 .565.25.815.515"/>
    <defs>
        <linearGradient id="COPI__a" x1="12" x2="12" y1="3" y2="21.001" gradientUnits="userSpaceOnUse">
            <stop stop-color="#7C4F14"/>
            <stop offset=".17" stop-color="#CF8C21"/>
            <stop offset=".28" stop-color="#F0B035"/>
            <stop offset=".43" stop-color="#734A08"/>
            <stop offset=".67" stop-color="#BC7908"/>
            <stop offset="1" stop-color="#3E1E05"/>
        </linearGradient>
        <linearGradient id="COPI__b" x1="11.755" x2="11.755" y1="3" y2="21" gradientUnits="userSpaceOnUse">
            <stop stop-color="#EFDF58"/>
            <stop offset=".47" stop-color="#C67D16"/>
            <stop offset="1" stop-color="#8B4102"/>
        </linearGradient>
    </defs>
</svg>
