<svg xmlns="http://www.w3.org/2000/svg" width="24" height="24" fill="none" viewBox="0 0 24 24">
    <path fill="#3699CB" d="M12.557 3.645a8.94 8.94 0 0 0-6.3 2.5l-.366-.339a9.4 9.4 0 0 1 6.666-2.7c4.46 0 8.088 3.111 8.888 7.222h-.512a8.46 8.46 0 0 0-8.376-6.683M3.614 6.267A1.11 1.11 0 0 1 4.39 7c.134.356.056.75-.166 1.05a1.11 1.11 0 0 1-.772-.733 1.1 1.1 0 0 1 .16-1.05m-.956 2.222c.361.055.678.278.856.633.16.356.138.75-.04 1.05a1.2 1.2 0 0 1-.855-.639c-.177-.333-.139-.733.04-1.05zm1.728.944a1.1 1.1 0 0 1 1.055.045 1.1 1.1 0 0 1-.639.85c-.355.177-.75.138-1.05-.04a1.17 1.17 0 0 1 .634-.85zM2.042 11.1c.36-.04.738.078 1 .377.255.295.333.672.233 1.028a1.14 1.14 0 0 1-.995-.372 1.1 1.1 0 0 1-.238-1.033m1.927.439c.3-.262.678-.34 1.033-.24.04.356-.077.734-.377.99a1.1 1.1 0 0 1-1.034.238 1.14 1.14 0 0 1 .378-.988m-1.627 2.288a1.11 1.11 0 0 1 1.055.122c.317.217.472.572.494.928a1.14 1.14 0 0 1-1.55-1.05m1.966-.056c.222-.316.578-.5.933-.5a1.11 1.11 0 0 1-.116 1.056 1.15 1.15 0 0 1-.934.494 1.11 1.11 0 0 1 .117-1.055zm-.872 2.517a1.16 1.16 0 0 1 1.055-.122 1.11 1.11 0 0 1 .689.794 1.17 1.17 0 0 1-1.055.117 1.11 1.11 0 0 1-.69-.79m1.927-.5c.14-.356.456-.611.795-.689.194.295.255.689.116 1.05a1.15 1.15 0 0 1-.794.689 1.14 1.14 0 0 1-.117-1.05M4.53 8.2a1.11 1.11 0 0 1 .733-.772 1.17 1.17 0 0 1 1.056.161 1.11 1.11 0 0 1-.739.772 1.11 1.11 0 0 1-1.055-.16zM22 11.994a.56.56 0 0 1-.555.556.5.5 0 0 1-.223-.056.55.55 0 0 1-.333-.5.56.56 0 0 1 .333-.5.5.5 0 0 1 .406-.022.56.56 0 0 1 .372.522m-.555 1.666h-.495a8.304 8.304 0 0 1-8.143 6.688c-2 0-3.983-.655-5.488-1.96l-.317.355a8.816 8.816 0 0 0 14.443-5.083m-8.61 4.444a6.39 6.39 0 0 0 6.238-5h-2.311a4.167 4.167 0 1 1 0-2.776h2.31a6.388 6.388 0 1 0-6.237 7.776"/>
</svg>
