<svg xmlns="http://www.w3.org/2000/svg" width="24" height="24" fill="none" viewBox="0 0 24 24">
    <path fill="#D2E2DA" d="M12 6.273V3L3.273 21 6 18.818z"/>
    <path fill="#7E8B92" d="M12 6.273V3l8.727 18L18 18.818z"/>
    <path fill="#5A687A" d="M18 18.818H6L3.273 21h17.454z"/>
    <path fill="#6A7C8B" d="m6 18.818 6-12.545 6 12.545z"/>
    <path fill="#8AC4DE" d="M12 10.636V6.818l-2.728 5.454.819.818-1.637.819-1.909 4.636 2.182-1.91z"/>
    <path fill="#58779F" d="M12 10.636V6.818l2.727 5.454-.818.818 1.636.819 1.91 4.636-2.183-1.91z"/>
    <path fill="#475985" d="M15.272 16.637H8.727l-2.182 1.909h4.091l.818-.818h1.091l.818.818h4.09z"/>
    <path fill="url(#CRYSTAL__a)" d="m8.728 16.636 3.272-6 3.273 6z"/>
    <defs>
        <linearGradient id="CRYSTAL__a" x1="10.364" x2="15.273" y1="13.636" y2="16.636" gradientUnits="userSpaceOnUse">
            <stop stop-color="#D2EDFB"/>
            <stop offset="1" stop-color="#91CCE5"/>
        </linearGradient>
    </defs>
</svg>
