<svg width="24" height="24" viewBox="0 0 24 24" fill="none" xmlns="http://www.w3.org/2000/svg">
<path fill-rule="evenodd" clip-rule="evenodd" d="M18.9353 22H5.12941C4.58236 22 4.12942 21.6471 4.08824 21.1118L3.17647 7.52352C3.16428 7.33798 3.20406 7.15273 3.29135 6.98855C3.37863 6.82438 3.50996 6.68778 3.67059 6.59412L11.506 2.15882C11.6707 2.05883 11.8529 2.00587 12.0353 2C12.2294 2 12.4294 2.05294 12.6 2.15294L20.3177 6.35882C20.6529 6.55294 20.8471 6.91177 20.8235 7.29412L19.9824 21.1059C19.9471 21.6353 19.4883 22 18.9353 22ZM17.9177 19.647H6.14118L5.31765 8.41177L12.047 4.35293L18.6764 8.21765L17.9118 19.647H17.9177ZM7.70588 9.35883L7.95294 13.7647H14.0706L13.947 15.5294H10.2764L10.1824 14.353H7.98235L8.17647 17.8824H15.9L16.3059 12H10.0118L9.89417 10.5882L12.0294 9.05882L14.3529 10.5882V11.4117H16.3471L16.4883 9.35883L12.0941 6.70588L7.70588 9.35883Z" fill="#E1AB4B"/>
</svg>
