<svg xmlns="http://www.w3.org/2000/svg" width="24" height="24" fill="none" viewBox="0 0 24 24">
    <path fill="#fff" d="m14.707 4.372-.454.19.346.208c.281.168.562.337.856.475l.07-.03q.648-.31 1.284-.644A68 68 0 0 0 15.607 4zm-1.825.562-1.202.476.882.631 1.328-.575-1.008-.536zm1.548 1.86.541-.217c.268-.112.536-.225.804-.328l1.06.549-.212.104c-.363.173-.722.346-1.09.51-.26-.121-.506-.268-.752-.41q-.174-.106-.35-.208m-4.082-.416c-.493.173-.981.338-1.47.515q.587.298 1.185.575c.359-.09.709-.225 1.055-.354l.57-.208q-.455-.255-.92-.493l-.065-.035c-.078-.043-.164-.086-.25-.034zm1.406.835c.346-.138.692-.272 1.05-.39l1.255.52-1.363.692q-.692-.316-1.37-.658zm-3.278.346c-.39.125-.774.246-1.155.38l.415.23c.26.147.52.294.792.402q.654-.215 1.301-.45l.346-.125-.817-.415-.363-.186zm5.825.822a15 15 0 0 0-.688-.372l-1.557.64c.169.086.329.186.489.285.23.138.463.281.705.398.346-.147.679-.307 1.016-.467l.497-.234zm-7.213-.364-1.574.515c.151.1.276.203.397.303.182.142.36.285.597.41l1.76-.58zm4.151.52a11 11 0 0 0-.873-.433l-1.618.614q.275.144.545.294c.26.138.52.277.779.406.345-.1.674-.246 1.007-.397l.61-.26-.446-.23zm5.436-.373-1.371.645.675.311c.337.151.674.303 1.003.476l.268-.126c.415-.186.852-.389 1.237-.588zm-8.792.813.571-.207.454.25.926.524-.684.302c-.346.148-.704.299-1.007.446a9 9 0 0 1-1.41-.895c.35-.134.757-.281 1.15-.42m2.426.571q.787-.346 1.579-.67c.302.12.584.272.873.424l.454.233-.895.424-.675.316-.389-.208zm-4.795-.605q.647.382 1.267.808l1.44.952q1.569 1.041 3.144 2.075c-.014 1.142-.065 2.284-.113 3.425-.056 1.267-.108 2.53-.117 3.797a180 180 0 0 1-2.802-2.197c-.925-.735-1.85-1.47-2.82-2.205zm8.951.26-.778.362c.29.16.584.307.878.455.246.125.488.246.726.376l.385-.178 1.038-.493-1.068-.488-.632-.294-.545.26zm-2.603 3.39c.847-.416 1.695-.84 2.547-1.263a237 237 0 0 1 4.078-2.011v6.79l-6.608 3.497-.008-.177c-.014-.298-.027-.549-.022-.865v-2.633c0-1.112 0-2.223.013-3.338M9.297 9.98c-.345.15-.7.307-1.016.428.42.324.895.592 1.375.821a16 16 0 0 1 1.095-.536l.614-.285-.65-.368-.67-.385a24 24 0 0 0-.748.325m2.595.432 1.241-.584.342-.16.501.26c.372.186.744.376 1.125.557l-1.254.589-.385.177-.558-.303-1.008-.536zm-.398.182-.047.021-.562.273c-.338.16-.68.324-.995.462.303.251.67.441 1.029.627l.484.26c.355-.186.718-.355 1.082-.523l.648-.307c-.48-.277-.964-.554-1.453-.822-.06-.052-.125-.017-.186.009"/>
    <path fill="#1D6DAB" d="M5.514 8.533c1.924 1.288 3.827 2.52 5.837 3.676l.109.064s-.338.584-.325.593c-1.53-1.003-2.823-2.102-4.354-3.114-.415-.272-.835-.558-1.267-.808z"/>
    <path fill="#BF2824" d="m18.43 8.918.056-.03v.432c-2.218 1.068-4.42 2.205-6.625 3.295-.458-.294-.51-.233-.51-.398.566-.303 1.21-.527 1.786-.808l.324-.156c.545-.255 1.094-.506 1.64-.765.042-.026.142-.07.19-.091.475-.225.95-.441 1.422-.675l.268-.13c.485-.216.973-.432 1.449-.674"/>
    <path fill="#F5D300" d="M12 18.715s-.044-4.22-.022-6.162c0 .013-.515-.29-.627-.337l-.216.648V20l.865-.46z"/>
</svg>
