<svg xmlns="http://www.w3.org/2000/svg" width="24" height="24" fill="none" viewBox="0 0 24 24">
    <path fill="#fff" d="m15.045 3.418-.51.214.389.234c.316.19.632.38.963.535l.078-.034q.73-.348 1.445-.725-.674-.327-1.353-.642zm-2.053.633-1.352.535.992.71 1.494-.647-1.134-.603zm1.742 2.092.608-.244c.302-.126.603-.253.905-.37l1.192.619-.238.116c-.41.195-.813.39-1.226.574-.292-.136-.57-.301-.847-.462q-.196-.12-.394-.233m-4.592-.467c-.555.194-1.105.38-1.654.579.437.223.885.437 1.333.647.403-.103.797-.253 1.187-.4l.642-.233a29 29 0 0 0-1.037-.554l-.073-.04c-.087-.048-.184-.097-.282-.038zm1.58.939c.39-.156.78-.307 1.183-.438l1.41.584-1.532.778a41 41 0 0 1-1.542-.74zm-3.687.389c-.438.14-.87.277-1.299.428l.467.258c.292.165.584.33.89.452q.736-.241 1.465-.506l.389-.14-.92-.468-.408-.21zm6.553.924c-.258-.146-.51-.287-.773-.418l-1.752.72c.19.097.37.209.55.32.258.156.52.317.793.448.39-.165.764-.345 1.143-.525l.56-.263zM6.473 7.52l-1.77.58c.17.111.311.228.447.34.205.16.404.321.672.462l1.98-.652zm4.67.584a12 12 0 0 0-.982-.486l-1.82.69q.308.163.614.331c.291.156.583.312.875.458.39-.112.76-.278 1.134-.448l.686-.292-.501-.258zm6.116-.418-1.542.725.759.35c.38.17.759.34 1.128.535l.302-.14c.467-.21.958-.439 1.391-.663zm-9.89.914.642-.233.51.282 1.042.589-.769.34c-.39.166-.793.336-1.134.501a10.3 10.3 0 0 1-1.585-1.007c.394-.15.85-.316 1.294-.472m2.729.643q.884-.388 1.775-.754c.341.136.657.306.983.476l.51.263-1.006.477-.759.355-.438-.234zM4.703 8.56q.728.43 1.425.91l1.62 1.07a857 857 0 0 0 3.537 2.335c-.015 1.284-.073 2.568-.127 3.853A114 114 0 0 0 11.027 21a202 202 0 0 1-3.152-2.471 179 179 0 0 0-3.172-2.481zm10.07.291-.876.41c.326.18.657.344.988.51.277.141.55.277.817.423l.433-.2 1.168-.554-1.202-.55-.71-.33-.613.291zm-2.929 3.814c.954-.466 1.907-.943 2.866-1.42 1.522-.764 3.05-1.528 4.587-2.262v7.638l-7.433 3.935-.01-.2c-.015-.335-.03-.617-.024-.972v-2.963c0-1.25 0-2.5.014-3.756M8.96 9.728c-.389.17-.788.345-1.143.482a8.6 8.6 0 0 0 1.547.924c.375-.21.808-.409 1.231-.603l.69-.321-.729-.414-.754-.433c-.263.107-.55.234-.842.365m2.92.487 1.396-.657.384-.18.564.292c.418.209.837.423 1.265.627l-1.41.662-.434.2-.627-.341-1.134-.603zm-.448.204-.054.024-.632.307c-.38.18-.764.365-1.12.52.341.283.755.496 1.159.706l.544.292c.4-.21.808-.4 1.217-.589l.73-.345a88 88 0 0 0-1.635-.925c-.068-.058-.141-.02-.21.01"/>
    <path fill="#1D6DAB" d="M4.703 8.1c2.165 1.45 4.305 2.836 6.567 4.135l.122.072s-.38.657-.365.667C9.305 11.845 7.85 10.61 6.128 9.471c-.467-.306-.939-.627-1.425-.91z"/>
    <path fill="#BF2824" d="m19.234 8.533.063-.034v.486c-2.496 1.202-4.972 2.481-7.453 3.707-.516-.33-.574-.263-.574-.447.637-.341 1.362-.594 2.01-.91l.364-.175c.613-.287 1.23-.57 1.844-.861.049-.03.16-.078.214-.103.535-.253 1.07-.496 1.6-.759l.302-.145c.545-.244 1.095-.487 1.63-.76"/>
    <path fill="#F5D300" d="M12 19.555s-.05-4.748-.025-6.933c0 .015-.579-.326-.705-.38l-.244.73V21l.973-.516z"/>
</svg>
