<svg xmlns="http://www.w3.org/2000/svg" width="24" height="24" fill="none" viewBox="0 0 24 24">
    <path fill="url(#D2T__a)" d="M12 22c5.523 0 10-4.477 10-10S17.523 2 12 2 2 6.477 2 12s4.477 10 10 10"/>
    <path fill="#37C0D2" d="M4.063 18.081A9.96 9.96 0 0 1 2 12c0-2.25.744-4.325 2-6h2.713c.65.044 2.15.2 2.95.525.03-.313.25-1.013.887-1.263.8-.312 1.075-.312 2.612-.312.844 0 1.538.044 2.163.081.519.031 1 .063 1.475.063.844 0 1.563-.282 1.813-.425a2.57 2.57 0 0 1-2 1.5c-.313.05-.657.087-1 .125-1.27.143-2.538.281-2.67.9-.13.625.263 1.437.482 1.775.25.437.712 1.487.594 2.225a7 7 0 0 1-.163.812.7.7 0 0 0-.031.294c.019.188.531 1.912.788 2.75.125.144.406.487.537.725.169.294.325.781-.106 1.75-.438.975-1.47 1.738-2.394 1.738-.569 0-.85-.35-1.088-.657-.15-.187-.287-.356-.468-.419-.1-.037-.282-.068-.525-.112-.932-.175-2.7-.5-3.607-1.594-.618.25-1.987.906-2.9 1.6"/>
    <defs>
        <linearGradient id="D2T__a" x1="12" x2="12" y1="2" y2="22" gradientUnits="userSpaceOnUse">
            <stop stop-color="#0B2E30"/>
            <stop offset="1"/>
        </linearGradient>
    </defs>
</svg>
