<svg width="24" height="24" viewBox="0 0 24 24" fill="none" xmlns="http://www.w3.org/2000/svg">
<path fill-rule="evenodd" clip-rule="evenodd" d="M11.6388 2.96771H3.93548V8.77417H2V11.3548H3.93548V12.6452H2V15.2259H3.93548V21.0322H11.6388C15.5097 21.0322 18.8065 18.6193 20.1162 15.2259H22V12.6452H20.6838C20.7143 12.2156 20.7143 11.7844 20.6838 11.3548H22V8.77417H20.1162C18.8065 5.38062 15.5032 2.96771 11.6388 2.96771ZM18.0904 12.6452C18.134 12.2162 18.134 11.7838 18.0904 11.3548H6.51613V12.6452H18.0969H18.0904ZM6.51613 15.2259V18.4516H11.4968C13.9483 18.4516 16.0968 17.1548 17.2388 15.2259H6.51613ZM6.51613 8.77417H17.2451C16.0968 6.84513 13.9548 5.54837 11.5033 5.54837H6.51613V8.77417Z" fill="#FDC134"/>
</svg>
