<svg xmlns="http://www.w3.org/2000/svg" width="24" height="24" fill="none" viewBox="0 0 24 24">
    <path fill="#008DE4" d="M16.693 11.128q-.124.959-.387 1.889c-.516 1.9-2.395 2.591-4.207 2.596H6.787c-.01 0-.015.016-.015.026l-.568 3.046c0 .015.01.026.02.026h6.015a14 14 0 0 0 1.842-.114 6.3 6.3 0 0 0 2.339-.805c1.745-1.007 2.736-2.865 3.2-4.806.227-.965.362-1.91.377-2.824.036-1.332-.268-2.715-1.28-3.629a5 5 0 0 0-2.669-1.13 10.5 10.5 0 0 0-1.512-.114H8.532c-.01 0-.015 0-.015.016l-.49 3.082h5.497c.831 0 2.344.02 2.834.764.372.567.408 1.331.33 1.976zm-11.062-.62c-.722.155-1.135.687-1.3 1.43q-.182.802-.331 1.61h5.936q.348.002.579-.036a1.6 1.6 0 0 0 1.321-1.135 4 4 0 0 0 .124-.429q.158-.746.294-1.497H6.085a2.4 2.4 0 0 0-.454.052z"/>
</svg>
