<svg width="24" height="24" viewBox="0 0 24 24" fill="none" xmlns="http://www.w3.org/2000/svg">
<path d="M8.47058 9.35295C8.47058 6.1041 11.1042 3.47058 14.353 3.47058V2.2941C10.4547 2.2941 7.29411 5.45469 7.29411 9.35295H8.47058ZM14.353 5.23528C13.2608 5.23528 12.2136 5.6691 11.4413 6.44131C10.6691 7.21352 10.2353 8.26086 10.2353 9.35295H9.05881C9.05881 7.94883 9.61659 6.60225 10.6095 5.60942C11.6023 4.61657 12.9489 4.05881 14.353 4.05881V5.23528ZM14.353 6.99998C13.7289 6.99998 13.1305 7.24789 12.6892 7.68915C12.2479 8.13041 12 8.72888 12 9.35295H10.8235C10.8235 8.41686 11.1954 7.51914 11.8573 6.85725C12.5191 6.19536 13.4169 5.82351 14.353 5.82351V6.99998ZM9.05881 15.2353C5.80999 15.2353 3.17647 12.6018 3.17647 9.35295H2C2 13.2511 5.16058 16.4117 9.05881 16.4117V15.2353ZM4.94117 9.35295C4.94117 10.445 5.375 11.4923 6.1472 12.2645C6.91941 13.0367 7.96674 13.4706 9.05881 13.4706V14.647C7.65474 14.647 6.30816 14.0892 5.31531 13.0964C4.32248 12.1035 3.7647 10.7571 3.7647 9.35295H4.94117ZM6.70588 9.35295C6.70588 9.97691 6.95378 10.5755 7.39504 11.0168C7.8363 11.458 8.43478 11.7059 9.05881 11.7059V12.8823C8.12276 12.8823 7.22505 12.5105 6.56315 11.8487C5.90125 11.1867 5.52941 10.289 5.52941 9.35295H6.70588ZM14.9411 8.76469C18.1899 8.76469 20.8236 11.3982 20.8236 14.647H22C22 10.7488 18.8394 7.58823 14.9411 7.58823V8.76469ZM19.0588 14.647C19.0588 13.555 18.625 12.5076 17.8528 11.7354C17.0806 10.9632 16.0333 10.5294 14.9411 10.5294V9.35295C16.3452 9.35295 17.6918 9.91076 18.6847 10.9035C19.6775 11.8964 20.2353 13.2429 20.2353 14.647H19.0588ZM17.2941 14.647C17.2941 14.0231 17.0462 13.4245 16.6049 12.9832C16.1636 12.5419 15.5652 12.2941 14.9411 12.2941V11.1176C15.8772 11.1176 16.775 11.4895 17.4368 12.1513C18.0988 12.8133 18.4706 13.7109 18.4706 14.647H17.2941ZM11.4117 14.647C11.4117 15.2711 11.1639 15.8695 10.7226 16.3108C10.2813 16.7521 9.68288 17 9.05881 17V18.1765C9.99486 18.1765 10.8926 17.8046 11.5545 17.1427C12.2163 16.4809 12.5883 15.5831 12.5883 14.647H11.4117ZM13.1764 14.647C13.1764 15.7391 12.7427 16.7864 11.9704 17.5586C11.1982 18.3309 10.1509 18.7647 9.05881 18.7647V19.9412C10.4629 19.9412 11.8095 19.3834 12.8023 18.3905C13.7952 17.3977 14.353 16.0511 14.353 14.647H13.1764ZM9.05881 20.5293C12.3076 20.5293 14.9411 17.8958 14.9411 14.647H16.1177C16.1177 18.5453 12.9571 21.7059 9.05881 21.7059V20.5293Z" fill="#E9570F"/>
</svg>
