<svg xmlns="http://www.w3.org/2000/svg" width="24" height="24" fill="none" viewBox="0 0 24 24">
    <path fill="#FF00AF" d="M14.504 19.454V4.546c3.21.958 5 3.937 5 7.454s-1.79 6.496-5 7.454M11.998 2v8.428l-1.27-1.269-.163-3.168 1.325-3.985c-.83.01-1.654.123-2.455.338l-.64 1.926-1.817-.91a10 10 0 0 0-1.974 1.497l3.364 1.685.098 1.928-1.928-.099L4.852 5.01a10 10 0 0 0-1.498 1.973l.912 1.816-1.928.64A10 10 0 0 0 2 11.893l3.987-1.325 3.169.162 1.27 1.27-1.27 1.27-3.17.162L2 12.107c.009.85.13 1.67.337 2.455l1.929.64-.912 1.815c.416.718.92 1.38 1.498 1.974l1.686-3.362 1.928-.1-.098 1.928-3.364 1.686a10 10 0 0 0 1.974 1.498l1.816-.911.641 1.926c.785.208 1.606.33 2.454.338l-1.324-3.985.162-3.168 1.27-1.27V22C17.522 22 22 17.522 22 12S17.521 2 11.998 2"/>
</svg>
