<svg xmlns="http://www.w3.org/2000/svg" width="24" height="24" fill="none" viewBox="0 0 24 24">
    <path fill="#E97E00" d="M2 22h14.667v-1.334H18v-1.333h1.333V18h1.334v-1.333H22V7.333h-1.333V6h-1.334V4.667H18V3.333h-1.333V2H7.333v1.333H6v1.334H4.667V6H3.333v1.333H2z"/>
    <path fill="#FC0" d="M3.333 20.666h12v-1.333h1.333V18H18v-1.334h1.333v-1.333h1.333V8.667h-1.333V7.333H18V6h-1.334V4.667h-1.333V3.333H8.666v1.334H7.333V6H6v1.333H4.666v1.334H3.333z"/>
    <path fill="url(#DNXC__a)" d="M2 22v-4.62h1.32v-2.713H4v-1.334h1.333v-2.666h1.334V7.333H8V6h1.333V4.667H14V6h1.333v1.333H18v1.334h1.333V12H16v-1.333h-2.667V12h1.333v1.333H16v1.334h1.333V16h-4v-1.333H12v-1.334h-1.333v1.334H9.333v2H12V18h1.333v1.333h-2.666V18H8v4z"/>
    <path fill="#6C6C6C" d="M16.667 9.333v1.334H18V9.333z"/>
    <path fill="#fff" d="M12 6.667V8h1.333V6.667z"/>
    <defs>
        <linearGradient id="DNXC__a" x1="5.723" x2="26.338" y1="5.469" y2="29.146" gradientUnits="userSpaceOnUse">
            <stop stop-color="#1A1E21"/>
            <stop offset="1" stop-color="#06060A"/>
        </linearGradient>
    </defs>
</svg>
