<svg xmlns="http://www.w3.org/2000/svg" width="24" height="24" fill="none" viewBox="0 0 24 24">
    <path fill="#631134" d="M20.466 14.035a4.14 4.14 0 0 0 0-4.07l-2.505-4.43a3.97 3.97 0 0 0-3.45-2.036H9.49a3.97 3.97 0 0 0-3.45 2.035l-2.506 4.43a4.14 4.14 0 0 0 0 4.071l2.505 4.43a3.97 3.97 0 0 0 3.45 2.036h5.021a3.97 3.97 0 0 0 3.45-2.035zm-6.096-2.56c.175.325.175.725 0 1.05l-.765 1.45a.96.96 0 0 1-.84.525h-1.53c-.35 0-.665-.2-.84-.525l-.765-1.45a1.14 1.14 0 0 1 0-1.05l.765-1.45a.96.96 0 0 1 .84-.525h1.53c.35 0 .665.2.84.525z"/>
    <path fill="#E8B4D0" fill-rule="evenodd" d="M19.586 13.58a3.22 3.22 0 0 0 0-3.16l-2.45-4.34A3.08 3.08 0 0 0 14.45 4.5h-4.9c-1.1 0-2.125.6-2.676 1.58L4.42 10.42a3.22 3.22 0 0 0 0 3.16l2.45 4.34a3.08 3.08 0 0 0 2.68 1.58h4.912c1.1 0 2.125-.599 2.675-1.58l2.455-4.34zm-4.58-.685c.31-.55.31-1.235 0-1.79l-.75-1.315a1.74 1.74 0 0 0-1.51-.895h-1.491c-.625 0-1.2.34-1.515.895L9 11.1a1.82 1.82 0 0 0 0 1.79l.75 1.21a1.74 1.74 0 0 0 1.5.9h1.49c.625 0 1.2-.34 1.515-.895L15 12.9z" clip-rule="evenodd"/>
    <path fill="#DD679F" d="M19.587 10.42a3.22 3.22 0 0 1 0 3.16l-2.45 4.341a3.08 3.08 0 0 1-2.686 1.58h-4.9c-1.1 0-2.116-.6-2.67-1.565L4.85 14.351a3.22 3.22 0 0 1 0-3.16L7.3 7.08A3.08 3.08 0 0 1 9.985 5.5h5.031c1.1 0 2.11.6 2.665 1.565l1.91 3.35zm-9.216 4.706a1.61 1.61 0 0 0 1.44.875h1.37c.625 0 1.2-.34 1.515-.895l.745-1.446c.31-.55.31-1.23 0-1.785-.385-.675-.755-1.335-1.18-1.98A1.74 1.74 0 0 0 12.746 9h-1.49c-.625 0-1.2.34-1.516.895L9 11.1a1.82 1.82 0 0 0 0 1.79c.4.695.98 1.535 1.376 2.23z"/>
    <path fill="#000" d="M3.694 9.016c-.3-.4-.25-.985.13-1.31a.84.84 0 0 1 1.23.14l1.25 1.64c.3.4.25.985-.13 1.31a.84.84 0 0 1-1.23-.14z"/>
    <path fill="#6CBDDE" d="M3.87 8.864a.715.715 0 0 1 .1-.975.625.625 0 0 1 .91.1l1.25 1.645c.23.3.184.735-.1.976a.62.62 0 0 1-.91-.1z"/>
    <path fill="#000" d="M12.045 18.865a1 1 0 0 1-.47-1.28.89.89 0 0 1 1.2-.5l1.18.55a1 1 0 0 1 .47 1.28.89.89 0 0 1-1.2.5z"/>
    <path fill="#6CBDDE" d="M12.14 18.635c-.345-.16-.5-.585-.35-.95.15-.37.55-.535.895-.375l1.175.55c.345.165.5.59.35.955-.15.37-.55.535-.895.375l-1.175-.55z"/>
    <path fill="#000" d="M17.52 14.525c-.1-.445.16-.895.585-1 .425-.11.85.165.95.61l.426 1.84c.1.446-.16.896-.585 1-.425.11-.85-.164-.95-.61z"/>
    <path fill="#DC3C46" d="M17.72 14.476a.616.616 0 0 1 .43-.745c.32-.08.636.125.71.455l.42 1.84a.615.615 0 0 1-.43.745.58.58 0 0 1-.619-.239.6.6 0 0 1-.09-.216z"/>
    <path fill="#000" d="M16.27 4.56a.893.893 0 0 1 1.19-.48c.455.205.665.755.465 1.23l-.7 1.63a.89.89 0 0 1-1.185.48.946.946 0 0 1-.465-1.23l.7-1.63z"/>
    <path fill="#F1DF73" d="M16.48 4.65c.15-.35.55-.506.886-.35.34.15.5.56.35.91l-.7 1.635a.67.67 0 0 1-.885.36.7.7 0 0 1-.346-.916l.7-1.635z"/>
    <path fill="#000" d="M10.3 6.03a.95.95 0 0 1 1.16.65c.135.5-.165 1-.67 1.135l-.6.15a.95.95 0 0 1-1.156-.65c-.14-.49.16-1 .67-1.13l.595-.15z"/>
    <path fill="#F0EFF4" d="M10.36 6.26c.38-.1.764.12.864.485s-.12.74-.5.84l-.595.155a.71.71 0 0 1-.865-.485.69.69 0 0 1 .5-.84l.6-.155z"/>
    <path fill="#000" d="M15.93 9.2a.95.95 0 0 1 1.38.23c.32.47.225 1.125-.22 1.47l-.52.4a.953.953 0 0 1-1.38-.23 1.09 1.09 0 0 1 .22-1.47z"/>
    <path fill="#F0EFF4" d="M16.075 9.415a.714.714 0 0 1 1.03.175c.24.35.17.836-.16 1.09l-.52.4a.71.71 0 0 1-1.03-.17.81.81 0 0 1 .16-1.09l.52-.4z"/>
    <path fill="#000" d="M8.094 15.11a.96.96 0 0 1 1.3.416.98.98 0 0 1-.415 1.305l-1.075.56a.962.962 0 0 1-1.36-1.153.98.98 0 0 1 .475-.567z"/>
    <path fill="#F1DF73" d="M8.21 15.331c.35-.185.78-.05.965.31.18.35.045.785-.31.97l-1.075.56a.71.71 0 0 1-.965-.31.72.72 0 0 1 .31-.97z"/>
</svg>
