<svg xmlns="http://www.w3.org/2000/svg" width="24" height="24" fill="none" viewBox="0 0 24 24">
    <path fill="#FFE1A5" d="m4.044 6.42-.86 1.473a8.84 8.84 0 0 0 3.237 12.074l1.472.849a8.84 8.84 0 0 0 12.074-3.237l.849-1.472A8.835 8.835 0 0 0 17.58 4.033l-1.473-.849A8.837 8.837 0 0 0 4.033 6.421z"/>
    <path fill="#F69D88" d="M13.257 2.683h-2.503a8.06 8.06 0 0 0-8.066 8.071v2.503a8.057 8.057 0 0 0 8.06 8.06h2.503a8.057 8.057 0 0 0 8.06-8.06v-2.503a8.056 8.056 0 0 0-8.06-8.06z"/>
    <path fill="#2196F3" d="M12.005 21.13a9.13 9.13 0 1 0 0-18.26 9.13 9.13 0 0 0 0 18.26"/>
    <path fill="#F0F3FA" d="m15.865 5.384-2.812 4.808 2.762 1.665-7.669 6.759 2.779-4.835-2.779-1.616z"/>
</svg>
