<svg xmlns="http://www.w3.org/2000/svg" width="24" height="24" fill="none" viewBox="0 0 24 24">
    <path fill="#523B97" d="M4.572 2.055A11.2 11.2 0 0 1 13.23 4.93a9.51 9.51 0 0 1 0 14.137 11.2 11.2 0 0 1-8.658 2.88.075.075 0 0 1-.069-.069c0-.038.032-.069.07-.075 2.435-.225 4.997-1.218 6.72-2.824 2-1.861 3.206-4.354 3.206-6.978s-1.206-5.097-3.205-6.959C9.57 3.436 7.002 2.417 4.572 2.192a.063.063 0 0 1-.069-.062c0-.037.032-.075.07-.075"/>
    <path fill="#523B97" d="M19.122 9.501H6.709c-.094 0-.312.232-.331.588-.013.356.2.662.331.662h12.413c.137 0 .375-.269.375-.662 0-.394-.213-.588-.375-.588m0 3.749H6.709c-.094 0-.312.23-.331.587-.013.356.2.662.331.662h12.413c.137 0 .375-.269.375-.662 0-.394-.213-.587-.375-.587"/>
</svg>
