<svg width="24" height="24" viewBox="0 0 24 24" fill="none" xmlns="http://www.w3.org/2000/svg">
<path d="M5.58836 12.2059C4.74131 12.0999 4.41778 11.8647 4.36483 11.7646C4.28837 12.7 4.62367 14.5646 6.55896 14.5646C8.48836 14.5646 9.04131 12.9999 9.0766 12.2118H9.20013C9.37666 12.5176 9.35896 12.9118 9.32368 13.0647C9.85994 13.2217 10.3324 13.5449 10.6728 13.988C11.0133 14.4311 11.2041 14.9707 11.2178 15.5294H12.1001C12.1001 13.9412 11.5119 13.0294 11.2178 12.7883L11.3061 12.6236C11.7766 12.875 12.1492 13.2767 12.3648 13.7647L12.5236 13.8234C13.7471 14.3705 14.6648 13.9824 14.9767 13.7176C14.7962 13.4187 14.6855 13.0829 14.653 12.7353H14.8943C14.906 12.8058 15.0119 13.0882 15.353 13.6764C15.653 14.1999 16.206 14.3059 16.7472 14.4117C16.9648 14.4529 17.1825 14.4941 17.3766 14.5588C17.9178 14.7529 17.9414 15.2882 17.8884 15.5294H18.4708V15.0587C18.4708 14.5293 18.1648 14.0764 17.8825 13.6646C17.6413 13.3117 17.4118 12.9882 17.4118 12.6647C17.4118 12.094 17.7296 11.6706 17.8825 11.5294C17.7471 11.4882 17.6354 11.3294 17.5001 11.1353C17.3001 10.8471 17.0471 10.4765 16.5414 10.3118C16.2957 10.2278 16.0353 10.1958 15.7766 10.2176C15.5177 10.2235 15.153 10.2353 14.4414 10.1587C13.7825 10.0823 13.3824 9.74696 12.9531 9.39408C12.4237 8.94114 11.853 8.47055 10.7178 8.47055C9.08836 8.47055 8.5413 9.84112 8.46484 10.5293C8.29363 10.2544 8.03132 10.0484 7.72366 9.94708C7.72954 10.6765 7.55895 11.5705 6.8413 11.8706C6.25307 12.1176 5.76483 11.7059 5.58836 11.4706C5.35895 11.7177 5.49425 12.0587 5.58836 12.2059ZM10.0001 15.5294C10.1188 14.989 10.0822 14.4261 9.89425 13.9058L10.006 13.847C10.6413 14.3294 10.7355 15.1882 10.7001 15.5294H10.0001ZM15.1471 13.9824C15.259 14.1353 15.6178 14.4765 16.1472 14.6176C16.0718 14.9572 15.9096 15.2712 15.6767 15.5294H14.8472C15.059 15.2941 15.3825 14.6353 15.0119 14.1235L15.1471 13.9824Z" fill="url(#paint0_linear_364_7111)"/>
<path fill-rule="evenodd" clip-rule="evenodd" d="M12 22C14.6522 22 17.1957 20.9464 19.0711 19.071C20.9464 17.1957 22 14.6522 22 12C22 9.34785 20.9464 6.80429 19.0711 4.92892C17.1957 3.05357 14.6522 2 12 2C9.34784 2 6.80429 3.05357 4.92892 4.92892C3.05357 6.80429 2 9.34785 2 12C2 14.6522 3.05357 17.1957 4.92892 19.071C6.80429 20.9464 9.34784 22 12 22ZM12 21.4117C14.4961 21.4117 16.8901 20.4202 18.6551 18.6551C20.4202 16.89 21.4117 14.4961 21.4117 12C21.4117 9.50377 20.4202 7.10991 18.6551 5.34487C16.8901 3.57982 14.4961 2.58823 12 2.58823C9.5039 2.58823 7.10991 3.57982 5.34487 5.34487C3.57983 7.10991 2.58823 9.50377 2.58823 12C2.58823 14.4961 3.57983 16.89 5.34487 18.6551C7.10991 20.4202 9.5039 21.4117 12 21.4117Z" fill="url(#paint1_linear_364_7111)"/>
<defs>
<linearGradient id="paint0_linear_364_7111" x1="2.96421" y1="20.3333" x2="23.0503" y2="16.0325" gradientUnits="userSpaceOnUse">
<stop stop-color="#FCDEA0"/>
<stop offset="0.5" stop-color="#ED5F5E"/>
<stop offset="0.88" stop-color="#67C9CB"/>
</linearGradient>
<linearGradient id="paint1_linear_364_7111" x1="18.6294" y1="5.72352" x2="3.99999" y2="17.3412" gradientUnits="userSpaceOnUse">
<stop stop-color="#6FC3CE"/>
<stop offset="1" stop-color="#F96962"/>
</linearGradient>
</defs>
</svg>
