<svg xmlns="http://www.w3.org/2000/svg" width="24" height="24" fill="none" viewBox="0 0 24 24">
    <path fill="#fff" fill-rule="evenodd" d="M4.37 3.142A.19.19 0 0 1 4.56 3h4.953l10.025 5.826c.077.043.11.136.093.218h.005l-.01.016a.2.2 0 0 1-.044.066L12.016 21H6.83L4.38 3.273a.2.2 0 0 1-.01-.11l-.006-.021zm2.88.245.146 1.075 2.188 1.287-.328-2.362zm1.908 14.051L7.462 4.948l2.193 1.287 1.2 8.563-1.691 2.64zm.082.59.327 2.388 1.702-2.672-.333-2.357-1.69 2.64zm2.018-3.142.328 2.35 5.072-7.985h-1.783zm3.628-6.022-.028-.017-4.854-2.852-.344-2.46 9.174 5.329zm-.371.229-3.344 5.209-1.09-7.816z" clip-rule="evenodd"/>
</svg>
