<svg xmlns="http://www.w3.org/2000/svg" width="24" height="24" fill="none" viewBox="0 0 24 24">
    <path fill="#162C51" d="M2.667 2h18.667v9.687C21.334 16.753 17.154 22 12 22c-5.153 0-9.333-5.247-9.333-10.313z"/>
    <path fill="#07B3F5" fill-rule="evenodd" d="M21.334 2.06H2.666v9.633c0 5.027 4.18 10.247 9.333 10.247s9.334-5.22 9.334-10.247zm-.667.607H3.333v9.04c0 4.733 3.88 9.626 8.667 9.626s8.667-4.9 8.667-9.626z" clip-rule="evenodd"/>
    <path fill="#07B3F5" d="M18.667 4.667H5.333V8.38l10.474 7.247-.747.633-9.727-6.553v2.066c0 3.714 2.987 7.56 6.667 7.56 3.653 0 6.62-3.786 6.667-7.473L9.513 5.6h1.76l7.394 5.14z"/>
</svg>
