<svg xmlns="http://www.w3.org/2000/svg" width="24" height="24" fill="none" viewBox="0 0 24 24">
    <path fill="#5FADFF" d="M3.72 10.265a2.45 2.45 0 0 0 0 3.47l1.125 1.125h14.31l1.125-1.125a2.45 2.45 0 0 0 0-3.47L19.085 9.07H4.915l-1.2 1.2z"/>
    <path fill="#2B56FE" d="M11.825 20.995a2.44 2.44 0 0 1-1.56-.715L4.85 14.86h14.31l-5.425 5.42c-.416.42-.97.676-1.56.72h-.35z"/>
    <path fill="#3B82FF" d="M3.22 13.016c.122.268.291.512.5.72l2.95 2.95q.141.128.275.27a2.45 2.45 0 0 0 3.57 0c.39-.42.88-.8 1.45-.8s1.06.38 1.45.8a2.45 2.45 0 0 0 3.57 0c.175-.185.37-.365.58-.505l2.714-2.715c.225-.225.4-.48.515-.755q-.525.204-.9.61c-.4.415-.884.795-1.454.795-.576 0-1.06-.38-1.45-.8a2.45 2.45 0 0 0-3.57 0c-.395.42-.885.8-1.45.8-.575 0-1.065-.38-1.456-.8a2.447 2.447 0 0 0-3.57 0c-.394.42-.88.8-1.45.8-.574 0-1.06-.38-1.45-.8a2.5 2.5 0 0 0-.824-.57"/>
    <path fill="#B1E1FF" d="m19.085 9.07 1.2 1.2q.264.264.43.58a2.5 2.5 0 0 1-.825-.575c-.39-.415-.88-.8-1.45-.8-.575 0-1.06.385-1.45.8a2.447 2.447 0 0 1-3.57 0c-.395-.415-.88-.8-1.45-.8-.575 0-1.065.385-1.455.8a2.45 2.45 0 0 1-2.757.57 2.45 2.45 0 0 1-.812-.57c-.39-.415-.88-.8-1.45-.8-.575 0-1.06.385-1.45.8-.21.22-.46.4-.74.535.11-.195.25-.38.415-.545L4.916 9.07l5.35-5.35a2.45 2.45 0 0 1 3.47 0l2.844 2.84z"/>
</svg>
