<svg xmlns="http://www.w3.org/2000/svg" width="24" height="24" fill="none" viewBox="0 0 24 24">
    <path fill="#5FADFF" d="M4.64 10.458a2.18 2.18 0 0 0 0 3.084l1 1h12.72l1-1a2.18 2.18 0 0 0 0-3.084l-1.062-1.062H5.702l-1.066 1.066z"/>
    <path fill="#2B56FE" d="M11.844 19.996a2.17 2.17 0 0 1-1.386-.636l-4.813-4.818h12.72l-4.823 4.818c-.37.374-.862.602-1.386.64h-.312z"/>
    <path fill="#3B82FF" d="M4.195 12.903c.109.238.26.455.445.64l2.622 2.622q.125.114.244.24a2.18 2.18 0 0 0 3.174 0c.346-.373.782-.71 1.289-.71s.942.337 1.288.71a2.18 2.18 0 0 0 3.174 0c.155-.164.329-.324.515-.449l2.413-2.413c.2-.2.356-.427.458-.671q-.466.181-.8.542c-.355.37-.786.707-1.293.707-.511 0-.942-.338-1.289-.711a2.176 2.176 0 0 0-3.173 0c-.351.373-.787.71-1.289.71-.511 0-.947-.337-1.293-.71a2.175 2.175 0 0 0-3.174 0c-.35.373-.782.71-1.288.71-.512 0-.943-.337-1.29-.71a2.2 2.2 0 0 0-.733-.507"/>
    <path fill="#B1E1FF" d="m18.298 9.396 1.067 1.066q.234.236.382.516a2.2 2.2 0 0 1-.733-.511c-.347-.369-.783-.711-1.29-.711-.51 0-.942.342-1.288.71a2.177 2.177 0 0 1-3.174 0c-.35-.368-.782-.71-1.288-.71-.511 0-.947.342-1.294.71a2.176 2.176 0 0 1-3.173 0c-.347-.368-.782-.71-1.289-.71-.511 0-.942.342-1.289.71a2.3 2.3 0 0 1-.658.477 2.3 2.3 0 0 1 .37-.485l1.062-1.062 4.755-4.756a2.176 2.176 0 0 1 3.084 0l2.53 2.525z"/>
</svg>
