<svg xmlns="http://www.w3.org/2000/svg" width="24" height="24" fill="none" viewBox="0 0 24 24">
    <path fill="url(#ECOIN__a)" fill-rule="evenodd" d="M12 19.5a7.5 7.5 0 1 0 0-15 7.5 7.5 0 0 0 0 15m0 .5a8 8 0 1 0-8-8 8 8 0 0 0 8 8" clip-rule="evenodd"/>
    <path fill="url(#ECOIN__b)" d="M11.929 5.502c-2.136 0-3.335.93-3.688 1.157l2.33 1.047c.591-.172 1.397-.2 1.725-.193 3.509.227 4.239 3.44 4.166 4.986H8.877c.42 2.009 1.698 2.5 3.254 2.5 1.351 0 2.374-1.045 2.374-1.5h1.58c-.619 2.184-2.43 3.012-3.789 3.012a6 6 0 0 1-1.725-.238L8.229 17.34c1.337 1.007 3.269 1.194 4.067 1.16 4.605 0 6.204-4.138 6.204-6.392 0-5.189-4.267-6.606-6.571-6.606"/>
    <path fill="url(#ECOIN__c)" d="M12.126 9C10.123 9 9.207 10.653 9 11.5h6c-.123-.82-1.113-2.5-2.874-2.5"/>
    <defs>
        <linearGradient id="ECOIN__a" x1="12" x2="12" y1="4" y2="20" gradientUnits="userSpaceOnUse">
            <stop stop-color="#CDAE26"/>
            <stop offset=".409" stop-color="#F9DA3B"/>
            <stop offset=".757" stop-color="#EDC62D"/>
            <stop offset="1" stop-color="#CEAF26"/>
        </linearGradient>
        <linearGradient id="ECOIN__b" x1="12.001" x2="12.001" y1="3.999" y2="19.999" gradientUnits="userSpaceOnUse">
            <stop stop-color="#CDAE26"/>
            <stop offset=".409" stop-color="#F9DA3B"/>
            <stop offset=".757" stop-color="#EDC62D"/>
            <stop offset="1" stop-color="#CEAF26"/>
        </linearGradient>
        <linearGradient id="ECOIN__c" x1="12.001" x2="12.001" y1="4" y2="20" gradientUnits="userSpaceOnUse">
            <stop stop-color="#CDAE26"/>
            <stop offset=".409" stop-color="#F9DA3B"/>
            <stop offset=".757" stop-color="#EDC62D"/>
            <stop offset="1" stop-color="#CEAF26"/>
        </linearGradient>
    </defs>
</svg>
