<svg xmlns="http://www.w3.org/2000/svg" width="24" height="24" fill="none" viewBox="0 0 24 24">
    <path fill="#496DDB" fill-rule="evenodd" d="M20.776 10.75h-2.25c0-1.281-.325-2.663-.925-3.75h2.931c.375 0 .988.012 1.188-.294.993-1.606-1.5-2.062-2.463-2.087l-.325-.007c-2.156-.05-4.894-.112-6.981-.112-1.85 0-5.619.05-7.619.15-.806.044-2.288.5-2.238 1.5.032.625.363.85.95.85h3.332c-.475 1.062-1 2.6-1 3.75H3.144c-.537 0-1.018.031-1.05.681v1.125c.032.644.513.694 1.05.694h2.238c0 1.219.156 2.625.613 3.75h-2.95c-.35 0-.688.106-.907.438-.331.53-.044 1.568.613 1.68.606.22 1.25.25 1.906.27 2.225.05 5.106.112 7.294.112 1.856 0 4.831-.044 7.506-.094l.25-.012c.575-.019 1.281-.05 1.725-.375.55-.356.744-1.3.388-1.856-.175-.25-.4-.22-.657-.188-.087.012-.175.025-.268.025h-2.982c.45-.994.613-2.675.613-3.75h2.25c.512 0 1.006-.031 1.037-.681v-1.125c-.024-.513-.562-.694-1.037-.694M11.963 7c-1.95.05-3.6.806-3.693 3.212-.038.425-.038.538.23.538h6.813c.47 0 .47-.037.413-.538-.106-2.468-1.813-3.1-3.763-3.212m3.52 6.25H8.687c-.468 0-.468.037-.412.537.1 2.55 1.812 3.1 3.731 3.213 1.944-.05 3.625-.806 3.725-3.213.038-.425.038-.518-.25-.537" clip-rule="evenodd"/>
</svg>
