<svg xmlns="http://www.w3.org/2000/svg" width="24" height="24" fill="none" viewBox="0 0 24 24">
    <path fill="url(#EJS__a)" d="m16.064 7.93-4.385 1.2.425.43-2.585 2.586a.701.701 0 1 1-.995-.99L13.49 6.19a6 6 0 1 0 4.32 4.32l-4.966 4.965a.702.702 0 0 1-.99-.995l2.585-2.585.47.465z"/>
    <path fill="#EA3D72" d="m6.75 14.91 2.77-2.765a.701.701 0 1 1-.996-.99l-2.34 2.335c.13.49.315.97.565 1.42m5.1-.425L9.09 17.25c.45.25.93.435 1.42.564l2.424-2.43-.09.09a.703.703 0 0 1-.995-.99"/>
    <path fill="#730D2B" d="M12.174 14.16 9.09 17.25l.305.155 2.27-2.27a.7.7 0 0 1 .19-.65zm-5.885-.31 2.05-2.04a.71.71 0 0 1 .185-.655l-2.34 2.335.105.364z"/>
    <path fill="url(#EJS__b)" fill-rule="evenodd" d="M12 20.5a8.5 8.5 0 1 0 0-17 8.5 8.5 0 0 0 0 17m0 .5a8.997 8.997 0 0 0 9-9 9 9 0 0 0-9-9 9 9 0 0 0 0 18" clip-rule="evenodd"/>
    <defs>
        <linearGradient id="EJS__a" x1="18.099" x2="5.634" y1="5.901" y2="18.366" gradientUnits="userSpaceOnUse">
            <stop stop-color="#8F3EDA"/>
            <stop offset="1" stop-color="#E73E73"/>
        </linearGradient>
        <linearGradient id="EJS__b" x1="21" x2="3.53" y1="12" y2="12" gradientUnits="userSpaceOnUse">
            <stop stop-color="#864BD0"/>
            <stop offset="1" stop-color="#E54077"/>
        </linearGradient>
    </defs>
</svg>
