<svg xmlns="http://www.w3.org/2000/svg" width="24" height="24" fill="none" viewBox="0 0 24 24">
    <path fill="#000" d="M17.456 4.895a9.77 9.77 0 0 1 3.003 4.061c1.106 2.902.455 6.212-1.43 8.632a9.5 9.5 0 0 1-2.96 2.399 8.66 8.66 0 0 1-5.857.826 9.18 9.18 0 0 1-7.149-7.816 4 4 0 0 1-.026-.408l-.016-.1a6 6 0 0 1-.01-.832l.01-.106a.5.5 0 0 0 .016-.122l.02-.344c.08-.826.266-1.615.573-2.362a8.2 8.2 0 0 1 1.774-2.77 9.2 9.2 0 0 1 3.278-2.266 8.64 8.64 0 0 1 8.774 1.208M3.174 10.789c-.201 1.482-.053 2.796.45 4.204a9.03 9.03 0 0 0 5.624 5.454c.745.276 1.53.425 2.325.44a8.9 8.9 0 0 0 4.623-1.06 9.1 9.1 0 0 0 2.822-2.36c1.483-1.96 2.177-4.385 1.8-6.848-.375-2.436-1.88-4.607-3.886-6.026a8.4 8.4 0 0 0-2.775-1.255 8.87 8.87 0 0 0-8.568 2.526c-.545.577-1.06 1.207-1.43 1.906a9.4 9.4 0 0 0-.704 1.695 8 8 0 0 0-.28 1.324m5.46 9.235a8.86 8.86 0 0 1-3.95-3.305 8.65 8.65 0 0 1-1.42-5.088 8.7 8.7 0 0 1 1.049-3.77A9 9 0 0 1 6.007 5.7a8.7 8.7 0 0 1 2.627-1.727c1.234-.53 2.616-.847 3.96-.725 1.828.159 3.533.82 4.915 2.002a9.6 9.6 0 0 1 2.378 3.023c1.535 3.045.932 6.704-1.181 9.304a9.3 9.3 0 0 1-2.78 2.198 8.65 8.65 0 0 1-4.29.943l-.158-.016a7.8 7.8 0 0 1-2.844-.678m10.315-9.183c-.487-3.31-2.774-5.517-6.058-6.026a6.56 6.56 0 0 0-2.98.302 7.05 7.05 0 0 0-5.085 6.916 6.91 6.91 0 0 0 3.13 5.634 7.9 7.9 0 0 0 4.305 1.186 4.9 4.9 0 0 0 1.52-.238c.863-.275 1.668-.635 2.383-1.196a6.99 6.99 0 0 0 2.785-6.578M6.002 15.157c.847 1.462 2.335 2.648 4.046 3.093a9.3 9.3 0 0 0 1.933.318.04.04 0 0 0 .01-.022v-1.244l.005-2.981c0-.344.424-.662.715-.885l.106-.08c.16-.12.212-.169.244-.306 0 0-.01-.424-.005-.763v-1.589c-.027-.132-.233-.238-.403-.328a2 2 0 0 1-.159-.085c-.143-.095-.498-.397-.498-.608V5.255c0-.043-.01-.08-.02-.106l-.011-.032q-.009-.054-.064-.053c-.746.016-1.482.228-2.176.46-1.245.425-2.203 1.113-3.072 2.093-.71.794-1.133 1.906-1.371 2.923-.26 1.101-.18 2.308.185 3.405.148.46.329.863.53 1.218z"/>
</svg>
