<svg xmlns="http://www.w3.org/2000/svg" width="24" height="24" fill="none" viewBox="0 0 24 24">
    <path fill="url(#FARA__a)" d="M12.527 13.895V9.168l.51.127.68 1.279h3.4l-.19 1.126a2.84 2.84 0 0 0-1.215-.337c-.495 0-.932.321-1.09.484v1.537l-.337.269-1.4.452z"/>
    <path fill="url(#FARA__b)" d="m12.985 9.4-.458-.242.174-.169h1.684l.227.3v.648l.979-.948H17l.263.406v1.894l-.337.406-.194-.406-.348-.736-1.926-.274-1.474-.884z"/>
    <path fill="#BCBBB9" d="M12.832 13.4V9.31l.42-.105h.9l.264.105v.769h.568l.806-.88h.947l.195.275V11.1l-.2.21c-.095-.11-.427-.342-1-.342-.827 0-1.216.51-1.316.764v1.336l-1.168.537-.416-.21z"/>
    <path fill="#C6C6C6" d="M6.264 10.705H3.527c.073.453-.142.569-.142.695.747 1.132-.158 2.137-.753 3.01 2.174 1.532 2.221 3.648 2.326 3.906.79-.963 1.58-3.305 1.58-4.337 0-.826-.185-2.526-.28-3.274z"/>
    <path fill="url(#FARA__c)" d="m5.738 16.947.326-2.02c-.242-.4-.853-1.348-1.342-1.348s-1.263.6-1.584.82h-.506l-.005.011a5.42 5.42 0 0 1 2.28 3.674q.015.118.052.232c.273-.332.542-.827.784-1.369z"/>
    <path fill="url(#FARA__d)" d="M3.675 10.705c.19.342.432.958.432 1.663 0 .869-.653 1.721-.969 2.037h-.526l.195-.279c.394-.552.757-1.168.773-1.82.01-.295.006-.6-.195-.906 0-.042.022-.079.048-.126.058-.106.147-.258.09-.569h.157z"/>
    <path fill="url(#FARA__e)" d="m6.384 11.82-.7 1.4c0 1.148.048 3.806-.736 5.08l.01.016c.79-.964 1.579-3.306 1.579-4.337 0-.526-.074-1.395-.153-2.158"/>
    <path fill="url(#FARA__f)" d="M4.91 18.12a4.25 4.25 0 0 0-1.768-3.715h-.537a5.7 5.7 0 0 1 2.3 3.69v.026z"/>
    <path fill="url(#FARA__g)" d="M4.717 9.179a6.1 6.1 0 0 1-2.684-.105c-.18.837.416 1.758.737 2.116.09-.153.326-.458.552-.458.221 0 .469.305.564.458.073-.132.368-.39.968-.39.595 0 .921.232 1.01.347.132-.168.506-.51.916-.51.51 0 .837.379 1.01.553-.115-2.395-1.541-2.285-3.073-2.011"/>
    <path fill="#776E5F" d="M6.022 5.684c-.274 0-.747.39-.947.58l.879.904c.263-.157.8-.526.8-.789 0-.326-.39-.695-.732-.695"/>
    <path fill="#614108" d="M6.21 7.368 5.08 6.21l-.775.78.158.147-.158.226h-.2v2.005a22 22 0 0 0 1.6-.263c-.057-1.21.316-1.668.506-1.742z"/>
    <path fill="url(#FARA__h)" d="m5.684 10.021-.873-.653-.706.853.89.726z"/>
    <path fill="url(#FARA__i)" d="M3.906 11.158c.01-.3-.073-.737-.505-.737-.368 0-.568.4-.652.747l.015.022c.095-.132.332-.39.558-.39.221 0 .469.263.563.39l.021-.027z"/>
    <path fill="url(#FARA__j)" d="M7.737 11.142c-.105-.284-.395-.72-.868-.72-.384 0-.71.341-.89.604.18-.158.474-.342.8-.342.463 0 .774.285.958.453z"/>
    <path fill="url(#FARA__k)" d="m2.669 11.074.384-.706-1.047-.826c.052.605.4 1.195.663 1.526z"/>
    <path fill="url(#FARA__l)" d="M7.79 10.526v-1.22l3.779.173.305 2.584-.137 1.837c-.158-.058-.736-.18-1.773-.18-1.032 0-1.669.259-1.858.385l-.316-.3v-1.742c.058-.142.316-.463.9-.616.732-.19 1.068-.39 1.068-.631 0-.237-.131-.464-.768-.464-.51 0-.842.232-.947.348z"/>
    <path fill="#EEEAE9" d="M8.843 8.842c-.653 0-.974.305-1.053.458l2.384.684 1.332 3.068.237.806.258-.227V9.98c0-.663-.69-1.037-1.032-1.137z"/>
    <path fill="#BCBBB9" d="M8.048 9.368v.837c.105-.073.453-.216 1.005-.216.7 0 1 .211 1 .764 0 .547-.3.647-1 .779-.552.105-.815.394-.873.526v1.353c.026.063.105.189.179.189.531-.274 2.4-.242 3.268-.19V9.933c0-.274-.584-.895-1.874-.895-1.036 0-1.568.216-1.705.326z"/>
    <path fill="url(#FARA__m)" d="M17.79 10.526v-1.22l3.778.173.306 2.584-.137 1.837c-.158-.058-.737-.18-1.774-.18-1.031 0-1.668.259-1.858.385l-.315-.3v-1.742c.057-.142.315-.463.9-.616.731-.19 1.068-.39 1.068-.631 0-.237-.132-.464-.768-.464-.511 0-.843.232-.948.348z"/>
    <path fill="#EEEAE9" d="M18.842 8.842c-.652 0-.973.305-1.052.458l2.384.684 1.331 3.068.237.806.258-.227V9.98c0-.663-.69-1.037-1.032-1.137z"/>
    <path fill="#BCBBB9" d="M18.047 9.368v.837c.106-.073.453-.216 1.006-.216.7 0 1 .211 1 .764 0 .547-.3.647-1 .779-.553.105-.816.394-.874.526v1.353c.026.063.105.189.179.189.531-.274 2.4-.242 3.268-.19V9.933c0-.274-.584-.895-1.873-.895-1.037 0-1.569.216-1.706.326z"/>
    <path fill="url(#FARA__n)" d="m6.737 15.753 1.11-1.122h10.411l1.11 1.121v1.195l-1.489 1.369H8.227l-1.49-1.369z"/>
    <path fill="#2C1F18" d="M6.948 16.847v-1l.99-1h10.231l.99 1v1L17.8 18.095H8.306z"/>
    <path fill="url(#FARA__o)" d="M8.843 15.158h-.526v2.632h1.579v-.527H8.843z"/>
    <path fill="url(#FARA__p)" d="m11.179 15.158-.758 2.632h.595l.458-1.6.458 1.6h.594l-.758-2.632z"/>
    <path fill="url(#FARA__q)" d="m13.57 15.158 1.589 1.453v-1.453h.526v2.632h-.426l-1.679-1.522v1.521h-.526v-2.631z"/>
    <path fill="url(#FARA__r)" fill-rule="evenodd" d="M17.006 15.158h-.795v2.632h.795a1.316 1.316 0 0 0 0-2.632m-.005.526h-.263v1.58H17a.79.79 0 1 0 0-1.58" clip-rule="evenodd"/>
    <defs>
        <linearGradient id="FARA__a" x1="16.769" x2="12.564" y1="11.995" y2="11.995" gradientUnits="userSpaceOnUse">
            <stop offset=".42" stop-color="#AF764B"/>
            <stop offset=".56" stop-color="#F7F4EF"/>
            <stop offset=".64" stop-color="#AF7239"/>
            <stop offset=".89" stop-color="#896D57"/>
            <stop offset="1" stop-color="#7A7975"/>
        </linearGradient>
        <linearGradient id="FARA__b" x1="17.264" x2="12.527" y1="10.353" y2="10.353" gradientUnits="userSpaceOnUse">
            <stop offset=".27" stop-color="#F3F3F3"/>
            <stop offset=".42" stop-color="#88857C"/>
            <stop offset=".67" stop-color="#CECAC7"/>
        </linearGradient>
        <linearGradient id="FARA__c" x1="4.348" x2="4.348" y1="13.742" y2="18.316" gradientUnits="userSpaceOnUse">
            <stop stop-color="#BFBFBF"/>
            <stop offset="1" stop-color="#B9B1AB"/>
        </linearGradient>
        <linearGradient id="FARA__d" x1="3.359" x2="3.359" y1="10.705" y2="14.405" gradientUnits="userSpaceOnUse">
            <stop stop-color="#7C8280"/>
            <stop offset="1" stop-color="#A4A5A7"/>
        </linearGradient>
        <linearGradient id="FARA__e" x1="5.747" x2="5.747" y1="11.821" y2="18.316" gradientUnits="userSpaceOnUse">
            <stop stop-color="#E8E8ED"/>
            <stop offset="1" stop-color="#F3F5EA"/>
        </linearGradient>
        <linearGradient id="FARA__f" x1="3.779" x2="3.779" y1="14.484" y2="18.121" gradientUnits="userSpaceOnUse">
            <stop stop-color="#7F7366"/>
            <stop offset="1" stop-color="#C2A963"/>
        </linearGradient>
        <linearGradient id="FARA__g" x1="4.754" x2="4.891" y1="9.042" y2="11.19" gradientUnits="userSpaceOnUse">
            <stop offset=".08" stop-color="#E1C08D"/>
            <stop offset=".15" stop-color="#9D7126"/>
            <stop offset=".42" stop-color="#8C5012"/>
        </linearGradient>
        <linearGradient id="FARA__h" x1="5.321" x2="4.437" y1="9.658" y2="10.495" gradientUnits="userSpaceOnUse">
            <stop stop-color="#ECA0B2"/>
            <stop offset=".32" stop-color="#CB7493"/>
            <stop offset=".53" stop-color="#73001E"/>
            <stop offset=".72" stop-color="#6C0425"/>
            <stop offset="1" stop-color="#FD67B4"/>
        </linearGradient>
        <linearGradient id="FARA__i" x1="2.743" x2="3.906" y1="10.963" y2="11.032" gradientUnits="userSpaceOnUse">
            <stop stop-color="#896322"/>
            <stop offset="1" stop-color="#C99F4B"/>
        </linearGradient>
        <linearGradient id="FARA__j" x1="5.979" x2="7.732" y1="10.932" y2="11.1" gradientUnits="userSpaceOnUse">
            <stop stop-color="#896322"/>
            <stop offset="1" stop-color="#C99F4B"/>
        </linearGradient>
        <linearGradient id="FARA__k" x1="2.943" x2="2.648" y1="9.437" y2="11.153" gradientUnits="userSpaceOnUse">
            <stop offset=".31" stop-color="#6B3B04"/>
            <stop offset="1" stop-color="#C3942C"/>
        </linearGradient>
        <linearGradient id="FARA__l" x1="9.832" x2="9.832" y1="9.305" y2="14.105" gradientUnits="userSpaceOnUse">
            <stop offset=".09" stop-color="#7D7975"/>
            <stop offset=".26" stop-color="#BB802D"/>
            <stop offset=".43" stop-color="#CCC8C4"/>
            <stop offset=".61" stop-color="#85867B"/>
            <stop offset=".76" stop-color="#79787D"/>
            <stop offset=".93" stop-color="#A9814E"/>
        </linearGradient>
        <linearGradient id="FARA__m" x1="19.832" x2="19.832" y1="9.305" y2="14.105" gradientUnits="userSpaceOnUse">
            <stop offset=".09" stop-color="#7D7975"/>
            <stop offset=".26" stop-color="#BB802D"/>
            <stop offset=".43" stop-color="#CCC8C4"/>
            <stop offset=".61" stop-color="#85867B"/>
            <stop offset=".76" stop-color="#79787D"/>
            <stop offset=".93" stop-color="#A9814E"/>
        </linearGradient>
        <linearGradient id="FARA__n" x1="13.053" x2="13.053" y1="14.852" y2="18.095" gradientUnits="userSpaceOnUse">
            <stop offset=".54" stop-color="#281C1E"/>
            <stop offset=".66" stop-color="#70614A"/>
        </linearGradient>
        <linearGradient id="FARA__o" x1="9.106" x2="9.106" y1="15.158" y2="17.79" gradientUnits="userSpaceOnUse">
            <stop stop-color="#D7922B"/>
            <stop offset=".92" stop-color="#A47316"/>
            <stop offset=".97" stop-color="#DAB15F"/>
        </linearGradient>
        <linearGradient id="FARA__p" x1="11.474" x2="11.474" y1="15.158" y2="17.79" gradientUnits="userSpaceOnUse">
            <stop stop-color="#D7922B"/>
            <stop offset=".92" stop-color="#A47316"/>
            <stop offset=".97" stop-color="#DAB15F"/>
        </linearGradient>
        <linearGradient id="FARA__q" x1="14.37" x2="14.37" y1="15.158" y2="17.79" gradientUnits="userSpaceOnUse">
            <stop stop-color="#D7922B"/>
            <stop offset=".92" stop-color="#A47316"/>
            <stop offset=".97" stop-color="#DAB15F"/>
        </linearGradient>
        <linearGradient id="FARA__r" x1="17.269" x2="17.269" y1="15.158" y2="17.79" gradientUnits="userSpaceOnUse">
            <stop stop-color="#D7922B"/>
            <stop offset=".92" stop-color="#A47316"/>
            <stop offset=".97" stop-color="#DAB15F"/>
        </linearGradient>
    </defs>
</svg>
