<svg xmlns="http://www.w3.org/2000/svg" width="24" height="24" fill="none" viewBox="0 0 24 24">
    <path fill="#B0DEDE" d="M13.783 12.38c-.514-3.341-1.028-5.655-1.804-6.684-.772-.257-3.04-.617-3.867 0-.823.617-.946 3.343-1.029 4.628l3.09 1.028 2.32 2.828h.77c.258-.087.72-.565.515-1.8z"/>
    <path fill="#47443D" d="m11.886 9.647.771.771.185-.185-.771-.771z"/>
    <path fill="#47443D" d="M12.58 8.946a.13.13 0 0 0-.18.005l-1.028 1.131a.13.13 0 0 0 0 .185.135.135 0 0 0 .185-.01l1.028-1.131c.051-.052.051-.134-.005-.18"/>
    <path fill="#A39F99" d="M15.846 6.212v1.455l-.365.365a.5.5 0 0 0-.154.36v.905h-1.029v-1.44a.26.26 0 0 1 .077-.175z"/>
    <path fill="#47443D" d="M6.564 10.326c0-1.27.53-3.497.787-4.438l.493.139c-.257.941-.76 3.106-.76 4.299zm2.36-2.211c.16-.89.355-1.749.489-2.227l.493.139a30 30 0 0 0-.478 2.18 15 15 0 0 0-.283 2.376h-.514c0-.643.129-1.584.293-2.468m3.96-.947a3.6 3.6 0 0 0-.345-.812l.427-.283c.149.221.288.56.41.936q.2.637.335 1.29c.195.916.33 1.903.33 2.54h-.515c0-.59-.128-1.532-.319-2.431a13 13 0 0 0-.324-1.24"/>
    <path fill="#FFBC50" d="M6.564 4.669c4.54-.412 6.962.257 7.22 1.028l-.515 1.029c-1.24-.617-4.299-.597-5.672-.515l-.606-.4a.5.5 0 0 1-.216-.31l-.206-.832z"/>
    <path fill="#47443D" d="m6.806 5.646-.108-.463c.9-.257 3.805-.18 3.99 0 .514.514.514 1.08.514 1.08-1.296-.129-2.766-.103-3.604-.051h-.515l-.236-.463a.5.5 0 0 1-.036-.103z"/>
    <path fill="#FFBC50" d="M13.265 9.553c1.378-.088 4.432-.052 5.671.771a5.6 5.6 0 0 1 1.543 1.543s.118.627-.38 1.028l-.649.514h-3.09l-.617-.823a.51.51 0 0 0-.411-.205H13.48a.45.45 0 0 1-.36-.154 9 9 0 0 1-.746-1.142.48.48 0 0 1 .005-.488c.227-.37.659-1.029.885-1.044"/>
    <path fill="#47443D" d="M14.811 15.467c1.029-.088 3.404-.463 4.638-1.286.37-.22.592-.514.772-.77.514-.772.447-1.297.257-1.543-1.029 0-1.456.684-1.543 1.028l-2.576.257-.622-.617a.52.52 0 0 0-.36-.154h-1.594s-.257 1.542-.514 1.542h-1.29l-1.03-2.313-2.837-1.286-2.577.257-1.8 1.286 7.472 3.599z"/>
    <path fill="#FCFAFD" d="M20.226 13.41c.515-.772.443-1.296.258-1.543-.453 0-.792.133-1.029.308 0 .463.37 1.013.771 1.234"/>
    <path fill="#FFBC50" d="M7.51 10.582a4.43 4.43 0 0 1 4.474 3.882.257.257 0 0 0 .509-.051c-.258-2.447-2.396-4.345-4.983-4.345a5.05 5.05 0 0 0-4.252 2.278.258.258 0 0 0 .432.278 4.53 4.53 0 0 1 3.82-2.042"/>
    <path fill="#A6A29C" d="M18.164 12.895a.257.257 0 0 0-.257-.257 3.86 3.86 0 0 0-3.83 3.306.26.26 0 1 0 .514.072 3.35 3.35 0 0 1 3.316-2.864.257.257 0 0 0 .257-.257"/>
    <path fill="#FEBC50" d="M13.799 14.572a.257.257 0 0 0-.257-.257h-1.26v.514h1.265a.257.257 0 0 0 .252-.257m-1.769 0c0 .144.113.257.252.257v-.514a.257.257 0 0 0-.257.257z"/>
    <path fill="#A09B95" d="M15.588 6.983c0 .427.113.771.257.771.139 0 .257-.344.257-.771 0-.422-.118-.771-.257-.771-.144 0-.257.35-.257.77"/>
    <path fill="#B2CCC9" d="m15.846 7.651.01-.02a.5.5 0 0 0 .067-.134c.04-.123.072-.308.072-.514s-.031-.386-.072-.514a.5.5 0 0 0-.082-.15l-.021.021a.5.5 0 0 0-.067.134 1.7 1.7 0 0 0-.067.514c0 .206.026.386.067.514.02.062.046.103.067.129l.02.02zm-.005.103c-.14 0-.257-.344-.257-.771 0-.422.118-.771.257-.771.144 0 .257.35.257.77 0 .428-.113.772-.257.772"/>
    <path fill="#47443D" d="m3.001 15.507.031.273a.3.3 0 0 0 .216.257q.055.016.118.01l.324-.036q.078.338.216.653l-.283.165a.297.297 0 0 0-.108.41l.14.243a.304.304 0 0 0 .41.102l.289-.164c.128.175.277.34.437.488l-.196.263a.3.3 0 0 0 .062.416l.226.165a.303.303 0 0 0 .417-.062l.2-.262c.196.108.401.205.617.277l-.077.32a.3.3 0 0 0 .231.36l.273.06a.304.304 0 0 0 .36-.23l.072-.32q.362.038.725.006l.077.319a.3.3 0 0 0 .242.23.3.3 0 0 0 .118 0l.267-.06a.304.304 0 0 0 .232-.36l-.072-.31q.331-.107.632-.277l.185.247a.303.303 0 0 0 .422.062l.221-.165a.3.3 0 0 0 .067-.421l-.18-.237c.17-.154.324-.33.463-.514l.257.154a.304.304 0 0 0 .416-.103l.144-.236a.297.297 0 0 0-.103-.412l-.272-.154a4 4 0 0 0 .216-.663l.324.036a.304.304 0 0 0 .334-.262l.026-.278a.3.3 0 0 0-.155-.293.3.3 0 0 0-.108-.036l-.334-.036q0-.364-.077-.72l.314-.103a.3.3 0 0 0 .205-.267c0-.036 0-.077-.015-.113l-.088-.263a.3.3 0 0 0-.385-.19l-.309.103a4 4 0 0 0-.339-.566l.247-.22a.3.3 0 0 0 .02-.427l-.185-.206a.304.304 0 0 0-.426-.016l-.247.216a4 4 0 0 0-.53-.385l.134-.298a.3.3 0 0 0-.154-.396l-.247-.114a.303.303 0 0 0-.401.15l-.134.298a3.7 3.7 0 0 0-.704-.15v-.328a.3.3 0 0 0-.299-.299h-.277a.303.303 0 0 0-.304.299v.329a3.6 3.6 0 0 0-.699.149l-.134-.298a.3.3 0 0 0-.4-.155l-.258.119a.303.303 0 0 0-.149.396l.139.298c-.19.113-.365.247-.535.39l-.241-.22a.304.304 0 0 0-.427.02l-.185.206a.297.297 0 0 0 .02.421l.242.221v.006q-.195.271-.334.565l-.314-.103a.31.31 0 0 0-.38.19l-.093.263a.3.3 0 0 0 .19.38l.314.103a4 4 0 0 0-.077.725l-.33.036a.303.303 0 0 0-.267.33"/>
    <path fill="#686259" d="m4.05 12.792.24.221v.006l6.819 3.815-.026-.016-.267-.16q.138-.317.216-.657l.324.036a.304.304 0 0 0 .334-.262l.026-.278a.3.3 0 0 0-.262-.33l-.335-.035q0-.364-.077-.72l.314-.103a.3.3 0 0 0 .206-.267c0-.036 0-.077-.016-.113l-.087-.263a.3.3 0 0 0-.268-.207.3.3 0 0 0-.118.017l-.309.103a4 4 0 0 0-.339-.566l.247-.22a.3.3 0 0 0 .02-.427l-.185-.206a.304.304 0 0 0-.426-.016l-.247.216a4 4 0 0 0-.53-.385l.134-.298a.3.3 0 0 0-.154-.396l-.247-.114a.303.303 0 0 0-.401.15l-.134.298a3.7 3.7 0 0 0-.704-.15v-.328a.3.3 0 0 0-.299-.299h-.277a.303.303 0 0 0-.304.299v.329a3.6 3.6 0 0 0-.699.149l-.134-.298a.3.3 0 0 0-.4-.155l-.258.119a.303.303 0 0 0-.149.396l.139.298c-.19.113-.365.247-.535.39l-.241-.22a.304.304 0 0 0-.427.02l-.185.206a.297.297 0 0 0 .02.421"/>
    <path fill="#686259" d="M4.877 15.137a2.47 2.47 0 0 0 2.031 2.437A2.51 2.51 0 0 0 9.7 16.047 2.47 2.47 0 0 0 7.84 12.7a2.52 2.52 0 0 0-2.726 1.378 2.5 2.5 0 0 0-.237 1.059"/>
    <path fill="#47443D" d="m5.387 13.636 4.314 2.411a2.47 2.47 0 0 0-1.1-3.074 2.515 2.515 0 0 0-3.214.663"/>
    <path fill="#FFBC50" d="M7.36 17.044a1.9 1.9 0 0 1-1.907-1.897 1.9 1.9 0 0 1 1.903-1.897 1.9 1.9 0 0 1 1.912 1.897 1.903 1.903 0 0 1-1.907 1.897"/>
    <path fill="#47443D" d="M7.372 15.529a.391.391 0 1 1 .005-.782.39.39 0 1 1 0 .782z"/>
    <path fill="#47443D" d="M7.362 16.303a1.17 1.17 0 0 0 1.08-.714 1.152 1.152 0 0 0-.854-1.579 1.17 1.17 0 0 0-1.396 1.083 1.15 1.15 0 0 0 1.17 1.21m0-2.118a.976.976 0 0 1 .968 1.013.96.96 0 0 1-.778.895.98.98 0 0 1-.997-.412.957.957 0 0 1 .807-1.49z"/>
    <path fill="#FFD591" d="m8.365 13.853.113.113a.13.13 0 0 1 0 .185.13.13 0 0 1-.185 0l-.113-.113a.13.13 0 0 1 0-.185.13.13 0 0 1 .185 0m-.53.668.108.113a.13.13 0 0 1 0 .185.13.13 0 0 1-.185 0l-.113-.113a.13.13 0 0 1-.03-.143.1.1 0 0 1 .03-.042.13.13 0 0 1 .185 0z"/>
    <path fill="#47443D" d="m14.797 16.68.01.067a.28.28 0 0 0 .201.242c.03.01.072.01.103.005l.144-.01q.059.241.16.473l-.124.072a.28.28 0 0 0-.103.38l.036.062a.28.28 0 0 0 .386.103l.123-.077c.103.123.206.241.319.35l-.088.118a.28.28 0 0 0 .057.39l.056.042a.283.283 0 0 0 .391-.062l.093-.123q.216.116.447.195l-.036.154a.277.277 0 0 0 .21.334l.068.016a.283.283 0 0 0 .334-.211l.036-.165q.26.025.52 0l.04.165a.28.28 0 0 0 .226.214.3.3 0 0 0 .109-.003l.067-.016a.28.28 0 0 0 .205-.329l-.036-.17c.154-.05.309-.118.447-.2l.103.134a.283.283 0 0 0 .386.056l.057-.036a.28.28 0 0 0 .061-.39l-.103-.134q.179-.169.324-.36l.15.087a.28.28 0 0 0 .385-.097l.031-.057a.28.28 0 0 0-.092-.38l-.16-.093c.062-.154.113-.308.144-.463l.195.026a.28.28 0 0 0 .309-.247l.01-.067a.276.276 0 0 0-.247-.308l-.205-.02q.001-.254-.052-.5l.19-.061a.283.283 0 0 0 .175-.355l-.02-.062a.275.275 0 0 0-.247-.19.3.3 0 0 0-.108.015l-.185.062a2.6 2.6 0 0 0-.232-.4l.145-.13a.28.28 0 0 0 .015-.39l-.046-.052a.284.284 0 0 0-.396-.02l-.14.128a2.5 2.5 0 0 0-.37-.277l.078-.165a.27.27 0 0 0 .006-.215.28.28 0 0 0-.15-.155l-.062-.026a.28.28 0 0 0-.37.14l-.072.158a2.7 2.7 0 0 0-.494-.113v-.17a.28.28 0 0 0-.174-.257.3.3 0 0 0-.103-.02h-.072a.28.28 0 0 0-.257.17.3.3 0 0 0-.021.108v.164q-.257.028-.504.103l-.067-.144a.28.28 0 0 0-.37-.139l-.062.026a.28.28 0 0 0-.138.365l.061.144a3 3 0 0 0-.385.278l-.114-.103a.283.283 0 0 0-.395.02l-.047.052a.277.277 0 0 0 .02.39l.109.103a3 3 0 0 0-.247.412l-.139-.047a.284.284 0 0 0-.35.175l-.025.067a.28.28 0 0 0 .085.297.3.3 0 0 0 .095.053l.133.051a2.5 2.5 0 0 0-.05.525l-.145.015a.283.283 0 0 0-.252.309z"/>
    <path fill="#686259" d="m15.583 14.727.114.102 4.869 2.751a.3.3 0 0 0-.067-.061l-.16-.093a2.4 2.4 0 0 0 .145-.463l.195.026a.28.28 0 0 0 .309-.247l.01-.067a.28.28 0 0 0-.247-.308l-.206-.02q.002-.254-.051-.5l.19-.061a.283.283 0 0 0 .175-.355l-.02-.062a.277.277 0 0 0-.355-.175l-.186.062a2.6 2.6 0 0 0-.23-.4l.143-.13a.28.28 0 0 0 .015-.39l-.046-.052a.284.284 0 0 0-.396-.02l-.139.128a2.5 2.5 0 0 0-.37-.277l.077-.165a.27.27 0 0 0 .006-.215.28.28 0 0 0-.15-.155l-.061-.026a.277.277 0 0 0-.37.14l-.073.158a2.7 2.7 0 0 0-.493-.113v-.17a.28.28 0 0 0-.278-.277h-.072a.28.28 0 0 0-.277.278v.164q-.256.028-.504.103l-.067-.144a.28.28 0 0 0-.264-.164.3.3 0 0 0-.106.025l-.062.026a.277.277 0 0 0-.139.365l.062.144a3 3 0 0 0-.386.278l-.113-.103a.283.283 0 0 0-.396.02l-.046.052a.277.277 0 0 0 .02.39"/>
    <path fill="#47443D" d="M15.995 16.36a1.89 1.89 0 0 0 1.599 1.877 1.92 1.92 0 0 0 2.118-1.27 1.89 1.89 0 0 0-.915-2.277 1.92 1.92 0 0 0-2.417.529c-.25.328-.385.73-.385 1.142"/>
    <path fill="#686259" d="M15.995 16.36a1.89 1.89 0 0 0 1.542 1.861 1.92 1.92 0 0 0 2.134-1.146l-3.29-1.856c-.25.328-.386.729-.386 1.141"/>
    <path fill="#FFBC50" d="M17.897 17.838a1.49 1.49 0 0 1-1.49-1.482c0-.817.668-1.48 1.49-1.48a1.49 1.49 0 0 1 1.492 1.48c0 .818-.669 1.481-1.492 1.481"/>
    <path fill="#47443D" d="M17.903 16.753a.391.391 0 1 1 .002-.784.394.394 0 0 1 .393.393.39.39 0 0 1-.395.391"/>
    <path fill="#FFD591" d="m18.416 15.693.113.113a.13.13 0 0 1 0 .185.13.13 0 0 1-.185 0l-.113-.113a.13.13 0 0 1 0-.185.13.13 0 0 1 .185 0"/>
    <path fill="#FFD48F" d="M12.318 10.89c4.293-.514 6.427.735 7.095 1.326l.072-.077c-.699-.617-2.863-1.866-7.177-1.352z"/>
    <path fill="#47443D" d="M15.327 9.296s-.515-.514-1.029-.771v4.37h1.029z"/>
    <path fill="#9F9C95" d="M15.327 9.296s-.448-.447-.926-.72l-.103-.051v4.37h1.029zm-.103 3.497H14.4V8.7q.451.27.823.642z"/>
    <path fill="#48453E" d="M15.588 11.353a.515.515 0 0 0-.514-.515h-.515a.516.516 0 0 0-.519.515v1.285a.514.514 0 0 0 .514.514h.514a.515.515 0 0 0 .515-.514v-1.285z"/>
    <path fill="#A49F98" d="M15.48 11.353a.41.41 0 0 0-.412-.412h-.514a.41.41 0 0 0-.411.412v1.285c0 .226.185.411.411.411h.514a.41.41 0 0 0 .412-.41zm-.412-.515a.515.515 0 0 1 .515.515v1.285a.515.515 0 0 1-.515.514h-.514a.514.514 0 0 1-.514-.514v-1.285a.514.514 0 0 1 .514-.515z"/>
</svg>
