<svg xmlns="http://www.w3.org/2000/svg" width="24" height="24" fill="none" viewBox="0 0 24 24">
    <path fill="#000" d="M5.333 11.556c.066.4.566.883.81 1.078-.594 1.46-.166 3.016-.166 3.255 0 .245-.206.378-.206.761 0 .378.456.65.595.795.111.122.139.222.139.255.289 1.511 1.394 2.039 1.91 2.111.256.067.468.206.634.35.24.206.422.445.711.589.806.417 2.311.689 3.406 1.25q.042-.509.2-.994c.116-.361.489-.167.6.194.527-1.061 3.722-3.028 4.588-4.583.33-.727.455-1.53.362-2.322a7.4 7.4 0 0 0-.362-1.35 2.9 2.9 0 0 1-.144-1.04 8.07 8.07 0 0 0-2.333-5.727c-.29-.289-.667-.366-.706-.666-.055-.495-.8-3.561-3.689-3.511-2.305.044-3.588 2.305-3.944 3.427-.15.5-.267.761-.65 1.084-1.244 1.055-1.2 2.11-1.2 2.188 0 .084.011.273-.155.495-.134.178-.178.344-.178.411v.439c0 .116-.045.139-.128.194-.161.111-.367.3-.372.5-.006.245.144.506.222.611.056.072.044.167.056.211z"/>
    <path fill="#FFB133" fill-rule="evenodd" d="M7.244 12.034c-.056.427.31.577.5.6.055.01.044.044.028.06-.295.284-.678.062-.812-.06-.155-.145-.21-.062-.305.083-.645 1.011-.445 2.705-.222 2.744l1.477-.672c-.166-1.255.09-1.96.245-2.155v.166c-.017.511-.039 1.761.4 1.733l.378-.016c2-.072 2.794.278 2.944.478-1.333-.178-3.111-.084-4.178.36-1.066.445-1.694 1.19-1.472 1.45.178.212.583.023.761-.094-.355 1.756.811 2.589 1.445 2.7a8 8 0 0 0-.15-.689 3.3 3.3 0 0 1-.14-1.01l.917.6v-.706c.817.522 2.211.6 3.034-.05a2.03 2.03 0 0 0 .666-2c-.11.328-.694.383-.972.366.167-.139.5-.483.511-.744.006-.261-.416-.695-.628-.872.434-.072.834.16.973.278a2.5 2.5 0 0 0-.473-1.006c.36.087.69.265.962.517-.323-1-1.034-1.467-1.4-1.711-.14-.09-.228-.15-.228-.195 0-.044.133-.066.277-.083.195-.028.417-.056.367-.167-.06-.144-.41-.144-.616-.144h-.145c-.067-.022-.028-.067 0-.09a2.82 2.82 0 0 0 1.172-2.46c-.178-.006-.539.389-.539.517 0 .355-.15 1.116-.633 1.388-.35.195-.689.234-.944.261-.184.023-.323.04-.4.106-.078.067-.145.189-.217.317-.094.166-.2.355-.35.46-.217.15-.35.14-.389.112-.055-.05.05-.156.133-.217.084-.06.5-.5.084-.989-.3-.277-.872-.033-.95.35a1.4 1.4 0 0 0-.022.256c0 .094 0 .167-.034.172-.055.017-.127-.072-.177-.155-.212-.35-.834-.184-.878.21m1.439-.2q.099-.005.189.039a.3.3 0 0 1 .077.06q.033.043.056.045c.194-.011.272-.517-.072-.511-.295 0-.328.372-.25.367m-1.111.45c-.128-.24.022-.367.188-.378.15-.011.278 0 .19.178a.8.8 0 0 1-.145.216c-.072.073-.167.111-.233-.016" clip-rule="evenodd"/>
    <path fill="#F41B46" d="M10.1 5.045a3.38 3.38 0 0 0-1.55 1.744c-.017.045.033.072.066.04a4.33 4.33 0 0 1 2.389-1.056c.089 0 .111-.111.028-.145-.434-.133-.89-.055-1.178.045-.056.022-.111-.034-.072-.084l.36-.489a.04.04 0 0 0 .005-.021.04.04 0 0 0-.008-.02.04.04 0 0 0-.04-.014"/>
    <path fill="#FA1243" d="M14.288 5.911c.022-.222-.028-.488-.072-.666-.011-.04.033-.072.061-.045.133.111.239.25.311.35.028.045.089.04.095-.01.016-.134.016-.317.01-.478 0-.084.09-.112.117-.034.095.24.15.545.167.733 0 .056.033.112.072.145.178.144.322.294.423.411.038.056-.012.106-.067.072l-.34-.172a.05.05 0 0 0-.045.006.04.04 0 0 0-.014.02.04.04 0 0 0-.001.024l.078.389c.016.055-.067.089-.112.039a3 3 0 0 0-.56-.49c-.095-.06-.134-.182-.123-.294m2.878 6.634c.06-.184.1-.434.122-.628.011-.061.089-.078.117-.022.094.216.166.444.2.55.066-.134.139-.356.194-.54.022-.066.1-.055.106.012.01.261 0 .572-.017.767a.26.26 0 0 0 .056.166c.177.206.25.417.272.572 0 .045-.056.056-.09.023a2 2 0 0 0-.371-.367c-.017-.011-.04 0-.034.017.056.266.034.427 0 .522-.022.055-.077.033-.094-.022a3.2 3.2 0 0 0-.428-.773.31.31 0 0 1-.033-.277M14.749 9.75l-2.2-.872c.056-.133.206-.133.278-.111l1.994.811a.094.094 0 0 1 .082.089.1.1 0 0 1-.033.077.095.095 0 0 1-.12 0z"/>
    <path fill="#FFB133" d="M15.566 9.8c-.373.023-.567.417-.611.611.6-.177 1.066.112 1.066.178 0 .045-.022.078-.194.195-.167.11-.056.472-.022.805.027.272-.045.333-.084.328-.055 0-.122-.172-.166-.328-.04-.11-.073-.289-.223-.305-.11-.017-.2.094-.2.2 0 .188.284.35.317.5a.75.75 0 0 1-.067.522c-.05.083-.083.122-.022.216.083.134.278.1.406 0 .527-.416.505-1.505.489-1.944a1.27 1.27 0 0 0-.19-.689c-.11-.166-.277-.294-.5-.289"/>
    <path fill="#F9B13C" d="M10.888 7.584a6 6 0 0 0-1.41.105c-.24.056-.529.15-.756.306-.206.144-.378.372-.378.628 0 .138.066.25.244.255.234.011 1.056-.3 1.522-.433 1.134-.311 1.45-.278 1.606-.278.15 0 .4.183.505.278.212.16.167-.09.134-.178-.25-.733-1.334-1.261-1.367-1.167-.044.106.189.14.306.328.094.15-.228.167-.4.156zm-2.928 1.4A.7.7 0 0 1 7.9 8.5c-.817.39-.2.945-.117 1.028.066.067.027.111 0 .117-.145.072-.078.166.044.144.067-.01.167-.028.233-.028.312-.055.223-.316.09-.5zm-1.638.155c-.317.228-.384.417-.35.55.055.222.194.167.35.1.266-.11.555-.189.744-.239.128-.033.144-.027.089-.155-.067-.167-.133-.261-.206-.311-.2-.15-.433-.056-.627.055"/>
    <path fill="#F41B46" d="M6.81 11.889h-.055c-.078 0-.122 0-.145-.017-.044-.027.023-.078.09-.144q.372-.419.627-.917c.022.2 0 .59.122.223.14-.445.006-.89-.25-.89a3 3 0 0 0-1.294.456c-.25.172-.306.29-.25.572.189.99.767 1.04 1.05.923.194-.084.167-.212.105-.212z"/>
    <path fill="#F4F5F9" d="M6.389 10.69c-.067-.012-.467.11-.506.5-.017.238.033.371.095.438.088.094.155.039.222-.05.21-.278.322-.889.189-.889"/>
    <path fill="#F9B13C" d="M7.888 11.034c-.005.244.1.26.162.239.072-.028.138-.223.222-.334.11-.155.294-.278.294-.367 0-.055-.211-.455-.372-.388-.261.105-.295.544-.306.85"/>
    <path fill="#F41B46" d="M9.477 10.695c.072.033.317.305.494.305.528-.011 1.245-.094 1.5-.639.128-.283.112-.639.056-.944-.056-.295-.167-.556-.383-.595-.245-.05-.511.028-.75.095-.445.122-.928.305-1.184.383-.339.095-.389.428-.333.722a.84.84 0 0 0 .6.673"/>
    <path fill="#F4F5F9" d="M9.244 10.045c.006.26.133.328.2.328.422 0 .611-.978.222-.945-.278.017-.433.289-.422.617"/>
</svg>
