<svg xmlns="http://www.w3.org/2000/svg" width="24" height="24" fill="none" viewBox="0 0 24 24">
    <path fill="url(#FREE__a)" d="M12 22c5.523 0 10-4.477 10-10S17.523 2 12 2 2 6.477 2 12s4.477 10 10 10"/>
    <path fill="#BD6514" d="M12 21.54a9.539 9.539 0 1 0 0-19.078 9.539 9.539 0 0 0 0 19.077m0-.24A9.3 9.3 0 1 0 11.998 2.7a9.3 9.3 0 0 0 0 18.601"/>
    <path fill="url(#FREE__b)" d="M12 21.3a9.3 9.3 0 1 0 0-18.6 9.3 9.3 0 0 0 0 18.6"/>
    <path fill="url(#FREE__c)" d="M12 18.667a6.667 6.667 0 1 0 0-13.334 6.667 6.667 0 0 0 0 13.333"/>
    <path fill="url(#FREE__d)" d="M11.973 18.267c3.455 0 6.255-2.789 6.255-6.228 0-3.44-2.8-6.228-6.255-6.228s-6.256 2.788-6.256 6.228 2.801 6.228 6.256 6.228"/>
    <path fill="#A9D8EC" d="M15.888 11.31c-.066-.016-.078.051-.078.084.112.056-.033.173-.072.245-.033.055.084.1.15.11-.033.056-.066.162.072.168.14 0 .112.11.084.155-.006-.017-.045-.055-.106-.028-.078.028.056.122.111.184.05.06 0 .044-.055.094-.056.056.017.072.055.1.034.028 0 .1.056.172.055.078.117-.055.161-.2.039-.144-.072-.11-.122-.144-.056-.045.055-.1.078-.156.027-.055-.106-.272-.178-.305-.072-.034-.122-.145-.084-.222.04-.078.006-.24-.072-.256m.684 1.896a.14.14 0 0 0-.14.094c.05.094.184.305.367.378.223.094-.01.194 0 .322.006.105.134.061.195.028-.011-.04 0-.112.1-.112.133.006.072.095.094.19.012.072.067.06.095.05a4 4 0 0 0-.034-.517c-.016-.072-.177-.211-.255-.272-.056-.017-.183-.028-.239.06-.056.095-.072.04-.072 0 0-.072-.017-.221-.111-.221"/>
    <path fill="#C4C4C4" d="M14.932 11.389c-.077-.022-.033-.111 0-.145l.09-.072c.027 0 .083.006.1.072.021.084-.09.167-.19.14z"/>
    <path fill="#A9D8EC" d="M15.75 10.911a.3.3 0 0 1 .056-.222c.106-.111.106.1.09.222-.04.04-.129.095-.145 0m-.05 2.356c-.105.044-.088.289-.066.4a.223.223 0 0 1 .317.017c0-.04-.011-.123-.056-.167-.039-.034 0-.2.028-.278a.34.34 0 0 0-.222.028m-1.738-.378a.27.27 0 0 1-.167-.239c.09-.094.39.3.483.333.095.034.067-.022 0-.1-.066-.072-.038-.338-.094-.41-.055-.073-.111-.178-.055-.19.05 0 .272.24.377.367 0 .222.028.678.1.667.095-.011.172.139.15.144-.022 0-.166.09-.11.195.05.105.277.11.377.11.106-.005.106.095.194.112.078.022.056.067.034.083-.6-.005-.883-.305-.95-.455-.056-.178-.206-.556-.34-.622zm2.344-2.778c-.005-.055-.089-.255-.128-.35.117-.066.367-.222.395-.305.044-.111-.072-.345-.128-.423-.05-.066-.05-.344-.039-.472.078.09.262.29.334.345.089.077-.167.133-.095.178.072.038.1.277.122.472v.01c.028.195-.044.195-.233.279-.183.083-.222.333-.228.266m-6.744 4.973c.067-.095 0-.267-.04-.345-.032-.078.156-.217.257-.278 0-.066.027-.194.094-.139.083.067.15 1.095 0 1.1-.156 0-.389-.227-.311-.338m5.2.372c0 .289-.111.583-.172.694.105.056.555-.139.889-.205.255-.056.238.227.194.377-.011.045.011.134.172.145.206.022 1.05-.945 1.028-1.133-.028-.267.072-.767.022-1.134-.027.19-.128.556-.278.511-.183-.055-.11-.333-.06-.372.044-.028-.095-.167-.184-.167-.067 0-.2.24-.261.367a1 1 0 0 0-.189-.111c-.083-.033-.372.35-.5.544-.222.04-.667.195-.667.484zm-2.317-2.806v-.411c.034-.05.134.1.178.183l-.111.211c-.017.04-.05.028-.061.017z"/>
    <path fill="#A9D8EC" d="M15.344 13.528c-.422-.028-.45-.345-.417-.5.361-.056.6-.467.639-.5.039-.039.161.1.172.139.011.033-.055.066-.122.144-.078.078.033.167.044.261.012.073-.205.334-.316.456"/>
    <path fill="url(#FREE__e)" fill-rule="evenodd" d="M6.138 12.7a3.4 3.4 0 0 1-.122-1.261c.028-.422.05-.8.239-1.033.128-.156.183-.312.233-.44.033-.088.056-.166.1-.194a.2.2 0 0 0 .039-.055c.111-.04.272-.134.356-.19.11-.016.333-.05.35-.038.027.016-.017.21-.123.311-.105.1.284.344.411.333.067-.01.084-.077.1-.139.017-.055.028-.11.073-.11.033 0 .055.021.094.055.072.05.183.128.45.144.406.028.489-.472.483-.522-.005-.044-.26-.022-.427-.011l-.128.011c-.072 0-.028-.255 0-.378 0-.016-.017-.05-.1-.044-.061.005-.106.133-.145.244-.027.09-.055.167-.083.178-.055.011-.022-.322 0-.494-.028 0-.083-.011-.078-.1.006-.106-.033-.3-.11-.273-.045.023-.012.25.021.428.017.106.028.195.023.222-.011.073-.056.073-.123 0-.027-.033-.027-.122-.027-.222.005-.139.01-.289-.067-.31-.139-.045-.461.244-.561.488-.072.167-.239.261-.345.3l.056-.178c.044-.166.094-.344.156-.422.05-.056.122-.111.188-.161.112-.078.223-.156.256-.272.011-.056.083-.184.206-.345l.616-.389c.045-.016.134 0 .222.017.14.022.295.056.362-.011.044-.045.127-.156.233-.295.178-.233.4-.533.511-.588.167-.09-.222.055-.289.133-.055.078-.555.694-.822.628-.211-.056.155-.4.367-.567l.083-.083.15-.078q.51-.242.811-.4c.333-.167.5-.25.539-.206.017.023.033.084.055.156.04.144.09.311.167.278h.022c.14-.061.5-.206.745-.234.1-.016.305-.116.527-.233.317-.167.684-.35.873-.333a.9.9 0 0 1 .5.21c.339.023 1.089.09 1.36.19.334.127.9.339 1.079.566l.344.361c.289.29.628.634.622.723-.01.116-.522-.412-.777-.695-.123-.055-.361-.128-.35 0v.15c-.017.15-.028.3.133.3.222 0 .544.217.678.49.127.271-.15.832-.256.866-.055.016.017.166.089.316.067.14.128.278.072.278-.055 0-.094-.078-.144-.166-.056-.095-.122-.206-.223-.245a.6.6 0 0 1-.2-.155c-.072-.078-.122-.134-.15-.028-.027.11-.094.11-.138.11-.034 0-.056 0-.045.04.011.055.111.072.211.083.078.017.156.028.15.061q0 .027-.027.061c-.045.078-.117.2.06.395.24.25.278.783-.622 1.11-.716.256-.383.506-.127.6.055.09.139.306.033.44-.1.133-.278.244-.35.283a1.7 1.7 0 0 0-.333-.478c-.095-.055-.15.261-.167.422a5 5 0 0 1-.045-.433c-.022-.233-.038-.416-.16-.322-.145.111-.25.067-.25-.089 0-.155-.145-.678-.356-.5a36 36 0 0 0-.806.711c-.005.222-.077.667-.283.74-.211.071-.372-.89-.422-1.373-.156-.045-.478-.156-.534-.267-.038-.072-.172-.11-.339-.072a.7.7 0 0 0-.21-.033c-.25 0-.323-.09-.323-.19 0-.083-.1-.033-.15 0-.139.012-.405-.033-.405-.294-.04-.094-.09-.039-.111 0-.017.106-.028.334.077.411.111.078.14.145.134.167.06.045.194.1.222.028.028-.089.167-.256.183-.184l.011.073c.011.072.023.16.078.166.033 0 .139 0 .239-.016a1 1 0 0 0-.194.21c-.3.423-1.19 1.023-1.29.9h-.005c.222.034-.617-1.755-.678-1.544.028.334.19 1.111.584 1.478l.055.045c-.01.027.017.139.045.216.194-.055.589-.139.622 0 .033.14-.378.856-.589 1.2.044.372.111 1.14 0 1.223a2 2 0 0 0-.333.35c.072.133.2.416.11.488-.044.04-.044.156-.038.29.005.194.017.41-.128.444-.194.044-.267.022-.278 0l-1.11-1.4c0-.134 0-.445-.112-.611a2.5 2.5 0 0 1-.367-.784v-.039c0-.166 0-.416-.144-.5a.7.7 0 0 1-.15-.139c-.094-.105-.172-.194-.25-.033-.089.195-.228.133-.289.078m2.678-3.683c-.083.066-.283.072-.378.066-.033-.105.083-.222.2-.333.039-.039.083-.078.111-.117.111-.122.15-.094.161-.055-.005.055 0 .189.09.205.066.011.077-.06.083-.139.01-.044.016-.094.033-.116.05-.067.211-.011.244.044.017.028-.016.05-.055.072-.04.023-.084.045-.09.084-.01.039.04.078.095.116.056.045.111.084.111.134.017.094-.16.127-.333.133-.078 0-.122-.039-.161-.072-.033-.039-.061-.067-.111-.022m1.3.544c-.356-.05-.189-.255-.056-.35-.055-.022-.15-.122-.16-.333 0-.256.388-.306.483-.317h.016c.072-.011.111.145 0 .167-.116.022-.322.133-.1.283.178.122.056.195-.022.222.094.128.189.384-.167.334z" clip-rule="evenodd"/>
    <path fill="#F3B635" fill-rule="evenodd" d="M11.499 11.045a.77.77 0 0 0-1.095 0l-.372.36a.767.767 0 0 0 0 1.084c.3.3.784.306 1.09.006l.371-.367c.3-.3.3-.783 0-1.083zm-.245.266a.355.355 0 0 0-.5 0l-.41.406a.35.35 0 0 0 0 .5.36.36 0 0 0 .5 0l.405-.411a.35.35 0 0 0 0-.5zm2.523-2.56a.77.77 0 0 0-1.084 0l-.372.366a.76.76 0 0 0 0 1.083c.295.3.778.3 1.083 0l.373-.367a.76.76 0 0 0 0-1.083m-.24.266a.355.355 0 0 0-.5 0l-.41.405a.35.35 0 0 0 0 .5.357.357 0 0 0 .5 0l.41-.405a.35.35 0 0 0 0-.5" clip-rule="evenodd"/>
    <path fill="#F3B635" d="M12.81 9.711a.22.22 0 0 0-.306 0l-.466.478v.611l.778-.777a.216.216 0 0 0-.006-.312m-1.039 1.361v-.616l-.705.722a.216.216 0 0 0 0 .306.225.225 0 0 0 .31-.006zm-2.828 1.945H9.96v.3h-.683v.25h.683v.306h-.61v.672h-.406zm3.567 0h1.017v.3h-.684v.25h.684v.322h-.684v.317h.684v.339H12.51zm1.528 0h1.017v.3h-.684v.25h.684v.322h-.684v.317h.684v.339h-1.017z"/>
    <path fill="#F3B635" fill-rule="evenodd" d="M11.377 13.017h-.905v1.527h.46v-.56h.168l.483.56h.416v-.105l-.483-.528a.456.456 0 0 0-.139-.889zm-.194.294h-.25v.361h.25a.18.18 0 1 0 0-.36" clip-rule="evenodd"/>
    <path fill="#855521" d="m11.877 3.106.223.672.71-.056v.056l-.577.417.222.622v.055l-.578-.416-.578.416v-.055l.223-.622-.578-.417v-.056h.711z"/>
    <path fill="#FEE475" d="m11.877 3.05.223.678h.71l-.577.417.222.677-.578-.422-.578.422.223-.677-.578-.417h.711z"/>
    <path fill="#DA8C21" d="m11.877 19.111.223.678h.71l-.577.422.222.673-.578-.417-.578.417.223-.673-.578-.422h.711l.222-.672z"/>
    <path fill="#FEED8B" d="m9.538 3.306.389.594.689-.183-.445.556.389.594-.667-.256-.455.556.039-.711L8.81 4.2l.689-.183z"/>
    <path fill="#FEEE91" d="m7.377 4.25.54.467.61-.361-.277.65.533.466-.711-.06-.278.655-.161-.695-.711-.066.611-.361z"/>
    <path fill="#FEE981" d="m5.567 5.6.639.322.5-.5-.112.7.64.323-.706.11-.111.706-.328-.633-.706.111.506-.505z"/>
    <path fill="#855521" d="m4.188 7.456.694.166.334-.627.044.027.056.706.644.144.045.028-.667.267.056.711-.045-.028-.417-.516-.66.266-.045-.028.378-.6z"/>
    <path fill="#FFD650" d="m4.145 7.428.694.167.378-.6.05.705.695.172-.667.267.056.711-.462-.544-.66.266.377-.605z"/>
    <path fill="#FFCC3D" d="m4.105 8.9.273.655.71-.055-.544.461.273.661-.612-.378-.544.462.167-.69-.606-.372.717-.055z"/>
    <path fill="#855521" d="m3.649 10.99.416.577.667-.272.011.05-.417.578.406.522.017.05-.678-.222-.422.577-.017-.05.017-.66-.678-.217-.017-.05.678-.223z"/>
    <path fill="#FFEFB6" d="m3.632 10.944.417.573.677-.223-.416.578.422.572-.678-.222-.422.578v-.711l-.678-.217.678-.222z"/>
    <path fill="#FFDB6B" d="m3.65 13.122.555.456.6-.389-.261.667.555.45-.722-.04-.255.662-.184-.689-.711-.044.6-.384z"/>
    <path fill="#F0AC24" d="m4.277 15.25.65.3.489-.517-.089.706.645.3-.7.133-.09.706-.344-.622-.7.133.49-.517-.345-.622z"/>
    <path fill="#855521" d="m6.388 16.65.122.7.717.055-.011.045-.628.333.128.644-.006.056-.516-.494-.628.333.005-.055.306-.584-.511-.5.005-.05.706.106z"/>
    <path fill="#D98C21" d="m6.393 16.6.123.7.71.1-.633.333.123.7-.512-.5-.633.334.317-.64-.517-.494.711.1z"/>
    <path fill="#FBC134" d="m7.816 17.84.295.65.711-.079-.528.478.29.645-.617-.35-.528.477.144-.694-.622-.356.711-.077z"/>
    <path fill="#855521" d="m9.483 18.778.45.55.65-.306.017.05-.39.595.429.5.022.055-.69-.189-.388.6-.022-.055-.017-.656-.689-.183-.022-.056.667-.25-.017-.66z"/>
    <path fill="#EEAA2A" d="m9.466 18.722.445.556.666-.256-.389.595.45.555-.688-.183-.39.594-.038-.71-.689-.184.667-.256z"/>
    <path fill="#FFD247" d="m13.556 3.267.466.538.656-.277-.373.61.467.54-.694-.167-.367.611-.061-.711-.694-.167.655-.272z"/>
    <path fill="#FFD764" d="m15.833 3.9.294.65.711-.078-.528.478.295.645-.622-.35-.528.477.144-.694-.622-.356.711-.077z"/>
    <path fill="#FFF0BA" d="m17.76 5.25.117.706.706.105-.634.328.117.7-.505-.5-.64.328.323-.639-.506-.5.706.111z"/>
    <path fill="#FFC737" d="m19.277 7.011-.095.706.645.305-.7.134-.09.705-.344-.628-.7.134.49-.517-.345-.622.644.3.489-.517z"/>
    <path fill="#E49B21" d="m19.077 9.028.561.444.595-.4-.245.667.556.439-.711-.028-.245.667-.194-.684-.711-.022.588-.4z"/>
    <path fill="#E09725" d="m19.683 11.006.428.572.678-.222-.417.578.428.566-.683-.211-.412.583-.005-.71-.683-.217.677-.223z"/>
    <path fill="#FFC837" d="m19.744 13.072.233.678.711-.011-.572.428.227.666-.583-.405-.572.422.217-.678-.584-.41.711-.006z"/>
    <path fill="#855521" d="m19.094 15.089.084.711.705.089-.01.056-.65.288.094.656-.012.056-.483-.528-.65.294.011-.055.34-.561-.479-.528.012-.05.694.144z"/>
    <path fill="#E7A026" d="m19.112 15.039.072.706.7.144-.65.294.083.706-.483-.522-.65.294.35-.622-.478-.522.7.139.35-.612z"/>
    <path fill="#D98C21" d="m16.916 16.972.628.345.517-.49-.128.695.628.345-.712.088-.127.7-.311-.644-.706.094.517-.488z"/>
    <path fill="#DC992B" d="m15.406 18.072.516.5.628-.339-.311.64.516.494-.71-.1-.312.639-.122-.7-.711-.095.633-.333z"/>
    <path fill="#DB9529" d="m13.721 18.834.39.594.688-.183-.444.555.388.595-.666-.256-.445.556.034-.712-.667-.255.683-.183z"/>
    <defs>
        <linearGradient id="FREE__a" x1="8.222" x2="16.822" y1="2.461" y2="21.083" gradientUnits="userSpaceOnUse">
            <stop stop-color="#FDE357"/>
            <stop offset=".44" stop-color="#DC8F21"/>
            <stop offset="1" stop-color="#FBF1BF"/>
        </linearGradient>
        <linearGradient id="FREE__b" x1="8.489" x2="16.489" y1="3.133" y2="20.445" gradientUnits="userSpaceOnUse">
            <stop stop-color="#FDE357"/>
            <stop offset=".44" stop-color="#DC8F21"/>
            <stop offset="1" stop-color="#FBF1BF"/>
        </linearGradient>
        <linearGradient id="FREE__c" x1="9.484" x2="15.606" y1="5.728" y2="17.494" gradientUnits="userSpaceOnUse">
            <stop stop-color="#FEFACF"/>
            <stop offset="1" stop-color="#7F5015"/>
        </linearGradient>
        <linearGradient id="FREE__d" x1="11.973" x2="11.834" y1="5.811" y2="20.978" gradientUnits="userSpaceOnUse">
            <stop stop-color="#006EA6"/>
            <stop offset=".3" stop-color="#024385"/>
            <stop offset=".47" stop-color="#0B4C8B"/>
            <stop offset=".74" stop-color="#7BC2DF"/>
            <stop offset=".84" stop-color="#CAE8F4"/>
        </linearGradient>
        <linearGradient id="FREE__e" x1="11.305" x2="11.305" y1="6.017" y2="16.155" gradientUnits="userSpaceOnUse">
            <stop stop-color="#E4F3FA"/>
            <stop offset=".52" stop-color="#A9D8EC"/>
            <stop offset=".86" stop-color="#85C3E1"/>
        </linearGradient>
    </defs>
</svg>
