<svg xmlns="http://www.w3.org/2000/svg" width="24" height="24" fill="none" viewBox="0 0 24 24">
    <path fill="#EC1966" fill-rule="evenodd" d="m20.094 6.487.07.041a1.3 1.3 0 0 1 .642 1.118v8.706a1.28 1.28 0 0 1-.636 1.118l-7.53 4.359a1.26 1.26 0 0 1-1.27 0L3.964 17.54a1.56 1.56 0 0 1-.559-.564 1.55 1.55 0 0 1-.23-.771v-8.56a1.39 1.39 0 0 1 .665-1.118l.048-.028a1 1 0 0 1 .082-.06L6.805 4.81l4.565-2.64a1.27 1.27 0 0 1 1.236-.018q.118.043.229.105l7.188 4.177zm-8.4 1.788c.285.128.594.194.906.194h.018c.97 0 1.735-.564 1.735-1.288l-.005-.018a1.15 1.15 0 0 0-.589-.953c-.005-.006-.017-.017-.03-.017l-2.046-1.2a.353.353 0 0 0-.521.195.37.37 0 0 0 .054.34q.045.058.108.094l1.97 1.159.106.059.042.023a.44.44 0 0 1 .194.33c-.012.259-.441.547-1.018.547-.206.006-.4-.035-.588-.106L9.594 6.222a.353.353 0 0 0-.488.135.37.37 0 0 0 .135.495zm4.037 9.573q.058.03.123.033h.005a.27.27 0 0 0 .218-.117c.048-.062.045-.144.042-.229v-2.871l1.223 1.782c.037.06.093.105.159.13a.24.24 0 0 0 .182-.018.34.34 0 0 0 .141-.147.44.44 0 0 0 .059-.23v-3.776a.48.48 0 0 0-.1-.289.28.28 0 0 0-.218-.117.28.28 0 0 0-.223.117c-.048.07-.048.164-.047.26v2.717l-1.224-1.788a.3.3 0 0 0-.153-.13.26.26 0 0 0-.188.018.3.3 0 0 0-.141.147.5.5 0 0 0-.06.235v3.9a.5.5 0 0 0 .107.289.3.3 0 0 0 .095.084m-9.825-.778a.35.35 0 0 1-.259-.118v-.006a.45.45 0 0 1-.117-.276v-4.507q0-.102.047-.194a.4.4 0 0 1 .135-.147.34.34 0 0 1 .359 0l2.8 1.718a.423.423 0 0 1 .047.659.4.4 0 0 1-.124.07.35.35 0 0 1-.276-.035l-2.4-1.588v1.6l.035.018L8.36 15.58a.4.4 0 0 1 .159.194.43.43 0 0 1-.112.471.35.35 0 0 1-.223.082.34.34 0 0 1-.177-.053l-1.888-1.129v1.524c0 .211-.018.4-.212.4" clip-rule="evenodd"/>
    <path fill="#000" d="M3.176 7.84v8.47c0 .566.412 1.001.888 1.283l7.283 4.218c.359.212.659.041.653-.365v-9.07c0-.189-.194-.371-.353-.471L3.964 7.369a.51.51 0 0 0-.635.083.54.54 0 0 0-.153.382z" opacity=".1"/>
    <path fill="#000" d="m20.03 7.352-7.76 4.488a.55.55 0 0 0-.27.477v8.953c0 .406.388.694.741.488l7.295-4.194a1.59 1.59 0 0 0 .788-1.388V7.823a.53.53 0 0 0-.312-.5.52.52 0 0 0-.47.035" opacity=".2"/>
</svg>
