<svg xmlns="http://www.w3.org/2000/svg" width="24" height="24" fill="none" viewBox="0 0 24 24">
    <path fill="url(#FUND__a)" d="M4.877 3.857h12.74l2.877 5.756-6.527 9.324h-3.933L3.507 9.613l2.275-4.55h10.93l2.274 4.549-5.62 8.118h-2.73l-5.62-8.118 1.67-3.343h9.12l1.672 3.342-4.716 6.913h-1.524L6.523 9.611l1.069-2.135h7.31l1.066 2.133L12 15.559l-3.968-5.95.463-.927h5.5l.465.931-2.476 3.537L9.95 9.889h2.353v.603h-1.265l.977 1.565 1.747-2.496-.137-.275H8.869l-.14.28 3.272 4.907 3.27-4.907-.743-1.487H7.965l-.742 1.485 4.333 6.357h.888l4.334-6.357-1.344-2.691H7.06l-1.345 2.69 5.237 7.564h2.097l5.237-7.565-1.948-3.896H6.155L4.208 9.561l6.14 8.773h3.305l6.141-8.773-2.552-5.101H5.251L2.699 9.564l6.747 9.976h5.11l6.747-9.976-2.636-5.27.54-.27L22 9.61l-7.125 10.533H9.127L2 9.61z"/>
    <defs>
        <linearGradient id="FUND__a" x1="22" x2="3.845" y1="8.946" y2="20.094" gradientUnits="userSpaceOnUse">
            <stop stop-color="#3F59A1"/>
            <stop offset="1" stop-color="#3B8DCE"/>
        </linearGradient>
    </defs>
</svg>
