<svg xmlns="http://www.w3.org/2000/svg" width="24" height="24" fill="none" viewBox="0 0 24 24">
    <path fill="#fff" d="M4.5 10.75H2V9.5h2.5c0 .03 0-.038 0 0 0-.413-.025-1.038 0-1.45.05-.782 0-1.5.444-2.145a3.14 3.14 0 0 1 1.888-1.262c.625-.156 1.25-.169 1.887-.113a6.8 6.8 0 0 1 1.92.463l.112.05-.425 1.112-.257-.106a4.7 4.7 0 0 0-2.512-.262c-.975.162-1.807.887-1.807 2v1.712H9.5v1.25H5.75V19.5H4.5z"/>
    <path fill="#F7D509" d="M17.313 15.125 18.876 12h-1.25l-1.25 2.5-1.25-2.5h-1.25l1.562 3.125-1.563 3.125h1.25l1.25-2.5 1.25 2.5h1.25zm-4.038 3.7-.781.675c-2.2-2.144-2.438-6.256-.013-8.75l.788.687c-1 1.213-1.269 2.107-1.269 3.688 0 1.219.507 2.775 1.275 3.7m6.2 0 .788.675c2.188-2.144 2.438-6.256.007-8.75l-.788.687c1 1.213 1.269 2.082 1.269 3.688 0 1.281-.513 2.756-1.275 3.7"/>
</svg>
