<svg xmlns="http://www.w3.org/2000/svg" width="24" height="24" fill="none" viewBox="0 0 24 24">
    <path fill="url(#GDCC__a)" d="M10.947 14.632c-.373 1.947-1.763 5.263-4.21 5.263-2.632 0-3.684-5.506-3.684-7.895 0-4.21 1.842-7.895 3.684-7.895 1.99 0 3.795 2.99 4.21 4.737-.705-3.084-2.22-5.263-4.21-5.263C4.12 3.579 2 7.347 2 12s2.121 8.421 4.737 8.421c2.1 0 3.59-2.426 4.21-5.79"/>
    <path fill="#ECEDED" d="M9.51 14.632c-.39 1.71-1.137 3.42-2.3 3.42-1.332 0-2.3-1.294-3.09-2.347l-.016-.02c.653 1.894 1.8 3.157 3.106 3.157 1.531 0 2.842-1.737 3.4-4.21H9.504zm.968-5.79c-.616-2.19-1.847-3.684-3.268-3.684S4.72 6.653 4.104 8.842l.2-.331c.727-1.237 1.511-2.564 2.906-2.564 1.137 0 1.831 1.38 2.22 2.895h1.053z"/>
    <path fill="#CE1DB4" d="M6.737 10.421H9.37V9.368H6.737c-.842 0-1.052.7-1.052 1.053v2.632c0 .842.7 1.052 1.052 1.052h1.58c.841 0 1.052-.7 1.052-1.052v-1.58H7.264v1.053h1.052v.527H6.737zm8.421 2.632V10.42h1.58v.526h1.052v-.526c0-.526-.28-1.053-1.053-1.053h-1.579c-.842 0-1.052.7-1.052 1.053v2.632c0 .842.7 1.052 1.052 1.052h1.58c.841 0 1.052-.7 1.052-1.052v-.527h-1.053v.527zm4.21 0V10.42h1.58v.526H22v-.526c0-.526-.279-1.053-1.052-1.053h-1.58c-.841 0-1.052.7-1.052 1.053v2.632c0 .842.7 1.052 1.053 1.052h1.579c.842 0 1.052-.7 1.052-1.052v-.527h-1.052v.527zM9.896 10.42V9.368h2.632c.842 0 1.052.7 1.052 1.053v2.632c0 .842-.7 1.052-1.052 1.052H9.895v-3.158h1.053v2.106h1.579V10.42z"/>
    <defs>
        <linearGradient id="GDCC__a" x1="12" x2="12" y1="3.579" y2="20.421" gradientUnits="userSpaceOnUse">
            <stop stop-color="#6602FF"/>
            <stop offset=".19" stop-color="#9C2597"/>
            <stop offset=".49" stop-color="#E74D47"/>
            <stop offset=".72" stop-color="#E21D91"/>
            <stop offset="1" stop-color="#AD2B88"/>
        </linearGradient>
    </defs>
</svg>
