<svg xmlns="http://www.w3.org/2000/svg" width="24" height="24" fill="none" viewBox="0 0 24 24">
    <path fill="#CFEFFC" d="m8.983 3.111 2.461 1.422v14.29l-2.427 2.066-4.795-3.111v-1.74L2 14.55V8.611L4.428 7.54l.478-2.3zM5.84 5.922l-.49 2.345-2.239 1.01V14l2.222 1.483v1.734l3.611 2.277 1.39-1.15V5.122L8.96 4.29 5.84 5.917zm9.178-2.81-2.461 1.421v14.29l2.427 2.066 4.795-3.111v-1.74L22 14.55V8.611L19.572 7.54l-.477-2.3zm3.144 2.81.489 2.345 2.239 1.01V14l-2.222 1.483v1.734l-3.595 2.372-1.405-1.239V5.128l1.372-.834z"/>
</svg>
