<svg xmlns="http://www.w3.org/2000/svg" width="24" height="24" fill="none" viewBox="0 0 24 24">
    <path fill="#FF0534" d="M12 21a9 9 0 1 0 0-18 9 9 0 0 0 0 18"/>
    <path fill="#FABE86" d="M18.307 12.768q.064-.53.042-1.064c.492-.122.937-.477.8-1.292-.107-.64-.763-1.085-1.53-1.376a6.354 6.354 0 1 0-.287 6.427c1.123-.498 2.08-1.112 2.08-1.874 0-.72-.64-.853-1.105-.82"/>
    <path fill="#fff" d="M15.706 10.41c-2.647 0-5.733 1.324-6.882 2.118v.53c1.853 1.059 5.03 1.059 6.882 1.059 1.482 0 2.382-.705 2.647-1.06V11.47c0-.529-1.837-1.058-2.647-1.058"/>
    <path fill="#000" d="M17.045 12.608c.167-.357.252-.745.25-1.139 0-.317-.17-.524-.266-.794-.444-.106-.81-.264-1.323-.264s-.995.058-1.44.164c-.1.288-.15.59-.148.894a1.06 1.06 0 0 1 .752 1.8 1.3 1.3 0 0 0 .836.318c.233 0 .455-.069.656-.185a.53.53 0 0 1 .689-.794z"/>
    <path fill="#000" d="M9.088 12.671v.228c.863.455 2.018.699 3.203.82 1.245.133 2.489.133 3.415.133 1.302 0 2.107-.583 2.382-.89v-1.487l-.02-.037a.7.7 0 0 0-.16-.138 5.4 5.4 0 0 0-2.202-.625c-1.281 0-2.69.318-3.918.747a13.2 13.2 0 0 0-2.7 1.25m9.265.387c-.265.354-1.165 1.059-2.647 1.059-1.853 0-5.03 0-6.882-1.06v-.529c1.149-.794 4.235-2.117 6.882-2.117.81 0 2.647.529 2.647 1.058z"/>
    <path fill="#000" d="M8.824 12.795c0-.7-.45-1.244-.53-1.324.266 0 .795.519.795 1.324 0 .513-.265 1.059-.794 1.323.228-.45.53-.767.53-1.323"/>
    <path fill="#000" d="M18.306 12.768q.128-.015.264 0c.413.031.842.227.842.82 0 .763-.953 1.382-2.08 1.874a6.347 6.347 0 1 1 .285-6.432c.768.297 1.425.741 1.53 1.382.138.815-.307 1.165-.799 1.292q.022.53-.042 1.058zm-.297.286.037-.318q.061-.509.037-1.022l-.01-.217.212-.053c.211-.053.38-.148.487-.286.106-.132.174-.349.116-.704a1.1 1.1 0 0 0-.424-.662 3.3 3.3 0 0 0-.942-.513c-2.414-.921-5.717-.54-7.904.868 2.478-2.065 5.988-1.779 7.555-1.355a6.088 6.088 0 1 0-.392 6.983c-1.652.402-5.283.614-7.692-1.392a10 10 0 0 0 8.205.794c-.005.01 1.006-.487 1.33-.757.36-.292.524-.567.524-.832 0-.264-.106-.386-.244-.46-.154-.085-.37-.111-.582-.1l-.318.026z"/>
</svg>
