<svg xmlns="http://www.w3.org/2000/svg" width="24" height="24" fill="none" viewBox="0 0 24 24">
    <path fill="#A101F8" d="M16.126 14.105a4.634 4.634 0 0 1-5.794 2.218 4.6 4.6 0 0 1-1.835-1.291 1.36 1.36 0 0 0-1.01-.506c-.83 0-1.382.842-.885 1.504A6.737 6.737 0 0 0 18.4 14.105h.758a.842.842 0 0 0 0-1.684h-3.79a.842.842 0 1 0 0 1.684zm.388-4.631c-.392 0-.754-.207-1.01-.505a4.632 4.632 0 0 0-7.63.926h.758a.842.842 0 1 1 0 1.684h-3.79a.842.842 0 1 1 0-1.684H5.6A6.737 6.737 0 0 1 17.398 7.97c.497.66-.05 1.503-.884 1.503"/>
</svg>
