<svg xmlns="http://www.w3.org/2000/svg" width="24" height="24" fill="none" viewBox="0 0 24 24">
    <path fill="#000" d="M3.958 18.884c-.577 0-.397-.476-.238-.71H3l.958-2.848 3.114-1.663-1.689-1.467a.48.48 0 0 1-.148-.482l1.07-3.807a.48.48 0 0 1 .211-.275l4.035-2.447a.5.5 0 0 1 .25-.069h9.219a.477.477 0 0 1 .444.652l-.212.534h.27a.476.476 0 0 1 .45.636l-.72 1.975-3.119 1.663.959.715s.72.476.477.71c.582.19.566.555.482.709l-1.377 3.866a.48.48 0 0 1-.223.26l-3.807 1.995a.5.5 0 0 1-.228.053z"/>
    <path fill="#FE3000" d="M19.416 6.175h-8.737L7.13 8.26l-.942 3.241 1.885 1.557h4.02l-.239 1.059H8.073l-3.543 1.79-.47 1.387h8.737l3.547-1.853 1.181-3.474-2.123-1.557h-4.02l.477-1.059h3.776l3.31-1.79z"/>
</svg>
