<svg xmlns="http://www.w3.org/2000/svg" width="24" height="24" fill="none" viewBox="0 0 24 24">
    <path fill="url(#HAKA__a)" d="M11.47 6.708H5.12v3.704h3.175v3.24l1.059 2.053V9.354H6.178V7.766h4.234v10.585l1.059 2.032zm7.41 2.646v1.058h-2.646v3.15l-.042.02.042.006-2.646 4.763-1.059 2.117V6.708h6.351v1.058h-5.292v8.643l1.588-2.954V9.354z"/>
    <path fill="url(#HAKA__b)" d="M12.545 20.982A8.997 8.997 0 0 0 19.41 6.893v1.403h-.99q.149.261.275.53h.715V12a7.41 7.41 0 0 1-5.865 7.25zm-.28.01v-1.587a7 7 0 0 1-.53 0v1.588q.265.007.53 0m-.81-.01A8.997 8.997 0 0 1 4.59 6.893v5.108a7.41 7.41 0 0 0 5.865 7.25zm7.41-14.803A9 9 0 0 0 12 3.003 8.97 8.97 0 0 0 5.14 6.18h2.277A7.37 7.37 0 0 1 12 4.59a7.37 7.37 0 0 1 4.583 1.588z"/>
    <path fill="url(#HAKA__c)" d="M14.111 20.749a9 9 0 0 0 6.828-7.727 24 24 0 0 1-1.673.428 7.42 7.42 0 0 1-5.15 5.653v1.64z"/>
    <defs>
        <linearGradient id="HAKA__a" x1="20.19" x2="3.256" y1="5.259" y2="5.259" gradientUnits="userSpaceOnUse">
            <stop stop-color="#4FB585"/>
            <stop offset=".47" stop-color="#D41B81"/>
            <stop offset="1" stop-color="#7826F4"/>
        </linearGradient>
        <linearGradient id="HAKA__b" x1="20.468" x2="4.167" y1="10.291" y2="11.006" gradientUnits="userSpaceOnUse">
            <stop stop-color="#17B372"/>
            <stop offset=".51" stop-color="#402284"/>
            <stop offset="1" stop-color="#1CADDB"/>
        </linearGradient>
        <linearGradient id="HAKA__c" x1="13.778" x2="20.415" y1="20.748" y2="13.524" gradientUnits="userSpaceOnUse">
            <stop stop-color="#3A3781"/>
            <stop offset=".46" stop-color="#C03281"/>
            <stop offset="1" stop-color="#17B372"/>
        </linearGradient>
    </defs>
</svg>
