<svg xmlns="http://www.w3.org/2000/svg" width="24" height="24" fill="none" viewBox="0 0 24 24">
    <path fill="#1F054C" d="M20.209 15.69A9 9 0 1 0 3.788 8.31a9 9 0 0 0 16.42 7.382m-2.314-9.444a8.487 8.487 0 1 1-11.749 12.25 8.487 8.487 0 0 1 11.749-12.25M16.81 8.559l-.434-.328c-.064-.047-.053-.058.02-.037.53.148 1.07.132 1.605-.037a.143.143 0 0 0 .021-.265c-.958-.481-2.303-1.387-2.62-2.45-.175-.578-.297-.848-.805-1.07-.763-.34-1.165.174-1.573.714a.05.05 0 0 1-.052.016.05.05 0 0 1-.032-.047l-.01-.44a.25.25 0 0 0-.043-.137c-.556-.869-2.097-.678-2.001.556.005.079-.016.09-.074.031a7 7 0 0 1-.318-.376c-.471-.614-1.334-.492-1.79.085q-.181.297-.28.63c-.387 1.09-1.498 1.917-2.541 2.425q-.287.144-.032.344c.042.032.153.063.323.095q.635.103 1.239-.074c.148-.048.158-.026.026.058a4 4 0 0 0-.386.307q-.08.073-.064.106a.16.16 0 0 0 .1.085.25.25 0 0 0 .154 0l.831-.26q.113-.031.043.064l-.106.138q-.048.07.032.1c.349.122 1.027-.328 1.28-.545a.048.048 0 0 1 .075.016v.026a.5.5 0 0 1-.111.217q-.048.058 0 .106.046.046.116.022c.535-.223 1.101-1.345 1.25-1.97.079-.37.185-.598.566-.651a.074.074 0 0 1 .085.069c0 .016 0 .032-.01.042l-.138.275a.13.13 0 0 0 0 .138c.423.752.328 1.382.222 2.065-.053.392-.117.794-.09 1.254l.116 1.991v.016a.04.04 0 0 1-.026.021h-.021a15.7 15.7 0 0 1-3.293-1.027c-.514-.222-1.17-.963-.328-1.281.593-.222 1.058.095 1.519.413l.238.159q.365.237.275-.186c-.185-.868-2.647-1.111-2.752.292-.106 1.387 2.133 1.953 3.266 2.239l.17.037q.3.08 0 .175a2.66 2.66 0 0 0-1.43 1.117c-.54.826.01 1.112.741 1.276a.053.053 0 0 1 .016.095q-.515.262-.593.572c-.201.805 1.038 1.17 1.604 1.27a.06.06 0 0 1 .053.048.07.07 0 0 1-.02.069c-.642.54-.986 1.345-1.293 2.064l-.016.048c-.1.228-.068.244.085.053l.138-.175c.476-.598 1.133-1.418 1.8-1.73a.1.1 0 0 1 .128.038.1.1 0 0 1 .015.046l.037.789a.17.17 0 0 1-.127.17c-.53.147-.567.984-.053 1.206.995.44 1.593-.847.614-1.27a.07.07 0 0 1-.043-.064l.07-.932q-.002-.01.004-.02a.04.04 0 0 1 .015-.014.04.04 0 0 1 .02-.004q.01 0 .019.006c.751.424 1.313 1.112 1.831 1.764l.106.121q.192.247.09-.053a5 5 0 0 0-1.27-2.043c-.048-.053-.037-.085.031-.106h.027c.46-.127 1.355-.37 1.556-.837.18-.412-.19-.873-.545-1q-.2-.07.005-.117h.01c.483-.116 1.102-.264.9-.942-.206-.688-1.058-1.27-1.672-1.482-.122-.043-.116-.08.005-.117.974-.254 2.033-.534 2.89-1.09.742-.482.954-1.843-.105-2.102-.773-.185-1.641-.133-2.07.651q-.102.184.106.185c.106 0 .227-.053.376-.164q.371-.279.8-.44c.83-.317 1.725.408.761 1.091-.693.498-2.006.826-3.049 1.09q-.265.06-.53.123a.1.1 0 0 1-.058-.053c.3-1.052.3-2.167 0-3.22-.074-.46-.142-.9-.084-1.28q.031-.184.302-.805a.22.22 0 0 0 .01-.143.9.9 0 0 0-.138-.28q-.062-.08.043-.08c.317.005.508.132.566.37a4.4 4.4 0 0 0 1.123 2.14c.063.063.153.09.259.074a.05.05 0 0 0 .042-.043.05.05 0 0 0 0-.032.05.05 0 0 0-.02-.026.22.22 0 0 1-.085-.159c-.017-.148.031-.174.143-.069a1.96 1.96 0 0 0 1.09.53.106.106 0 0 0 .117-.154.2.2 0 0 0-.106-.116q-.073-.04.005-.064h.058c.26.106.53.19.794.254q.157.034.244-.02a.1.1 0 0 0 .053-.08.1.1 0 0 0-.037-.08m-5.564-3.986h-.032l-.027-.037c-.016-.016-.016-.037.006-.053q.737-.564 1.466.016v.016l-.026.031q-.023.034-.053.011a1.095 1.095 0 0 0-1.335.016M10.113 5.8a.33.33 0 0 0-.106-.122c-.138-.105-.254-.068-.34.106q-.189.397-.253-.042c-.01-.085.069-.159.243-.233.704-.296.778.424.583.874a.2.2 0 0 1-.106.105.96.96 0 0 1-.53.085c-.053 0-.084.016-.106.069-.158.37-.407.672-.735.9-.165.116-.18.106-.037-.032l.01-.01c.302-.292.477-.456.635-.953.022-.048 0-.074-.042-.09l-.048-.01a.09.09 0 0 0-.084.02 4.7 4.7 0 0 1-1.218.81q-.038.014-.053-.01c-.005-.022 0-.032.016-.043.482-.216.889-.57 1.17-1.016a.16.16 0 0 0 .01-.138c-.18-.445.133-1.233.684-1.064.095.027.095.053 0 .09-1.102.355-.503 1.63.206 1.128a.33.33 0 0 0 .106-.424zm3.568.683a.1.1 0 0 0-.027.048l-.037.127-.005.016-.01-.016a4 4 0 0 0-.048-.228c-.064-.37-.16-.921.275-.974a.55.55 0 0 1 .471.159q.15.15.016.291a.07.07 0 0 1-.053.022.07.07 0 0 1-.053-.022.1.1 0 0 1-.02-.026q-.096-.277-.398-.18a.12.12 0 0 0-.08.084c-.195.741 1.102.779.917-.153q-.106-.51-.678-.519-.033 0-.027-.032v-.063q-.001-.054.053-.053c.82.063.794.582.742 1.223a.17.17 0 0 0 .047.148c.318.37.694.678 1.133.9q.033.015.027.032-.016.023-.037.016a3.6 3.6 0 0 1-1.08-.689c-.313-.28-.408-.222-.286.186.091.282.291.516.556.65a.04.04 0 0 1 0 .038l-.006.016a.04.04 0 0 1-.042.005 1.26 1.26 0 0 1-.625-.762.264.264 0 0 0-.275-.175.43.43 0 0 1-.302-.08.11.11 0 0 0-.148.016zm-4.077 7.809a4.34 4.34 0 0 1 1.737-1.075c.1-.031.148 0 .159.106l.042 1.101c0 .1-.042.148-.143.148l-.434.016c-.45.032-.99.064-1.318-.079q-.174-.08-.037-.217zm4.654.185a.1.1 0 0 1-.026.016c-.445.154-.964.122-1.457.095l-.396-.02q-.081 0-.075-.08l.032-1.202c0-.085.048-.111.127-.08.646.239 1.403.615 1.8 1.186a.1.1 0 0 1 .014.031.1.1 0 0 1-.003.033zm-2.742.72.095 1.303a.03.03 0 0 1-.001.021.03.03 0 0 1-.015.016h-.032c-.498.037-.98 0-1.34-.101-.36-.1-.571-.26-.582-.44v-.01c-.01-.09.032-.185.117-.275q.136-.129.392-.249.255-.112.598-.19c.228-.054.471-.085.715-.107h.016q.01 0 .019.006a.03.03 0 0 1 .012.016v.01zm.714 1.308.095-1.303.006-.014.01-.012a.04.04 0 0 1 .022-.005h.02c.488.037.954.143 1.287.296.334.154.52.339.503.519v.01c-.016.18-.222.345-.577.445-.355.106-.826.138-1.318.106h-.016a.04.04 0 0 1-.021-.016.04.04 0 0 1-.01-.026m-.031 2.292a.2.2 0 0 1-.138-.016.2.2 0 0 0-.111-.016l-.318.043a.04.04 0 0 1-.033 0l-.013-.011-.007-.016-.004-.016q0-.01.004-.017l.011-.013.016-.007a.74.74 0 0 1 .598-.005q.127.049 0 .074zM6.867 6.178a7.98 7.98 0 0 0-2.477 8.237c.646 2.255 2.15 3.812 4.097 5.045.212.127.196.159-.042.085-3.05-.916-4.839-4.447-4.796-7.407A7.9 7.9 0 0 1 7.3 5.548c.186-.123.355-.213.503-.26q.246-.081.048.084c-.318.25-.64.514-.985.805m11.87 2.133c1.8 3.335 1.186 7.327-1.684 9.868q-.852.757-1.816 1.366l.005.047h.011c3.563-1.111 5.395-5.172 4.818-8.666a7.96 7.96 0 0 0-3.817-5.559.6.6 0 0 0-.302-.069q-.102-.001-.021.053c1.165.847 2.128 1.7 2.806 2.96m-8.222 2.191A1.54 1.54 0 0 0 9.44 9.28c-.17-.053-.17-.116 0-.169q.376-.134.741.249.614.668.329 1.52a.16.16 0 0 1-.1.105 2 2 0 0 1-.784.148.133.133 0 0 1-.13-.155.13.13 0 0 1 .034-.067q.063-.062.053-.132a.11.11 0 0 0-.085-.106l-.264-.059c-.328-.079-.741-.169-.853-.45a.265.265 0 0 1 .313-.349c.111.027.185.1.212.212a.18.18 0 0 0 .095.116l.212.106c.264.117.571.265.688.46a.09.09 0 0 0 .106.043l.45-.143c.053-.016.069-.053.058-.106m3.309.244-.344-.096a.184.184 0 0 1-.133-.222 1.5 1.5 0 0 1 .953-1.112q.326-.126-.016-.222-.29-.08-.614.254c-.37.376-.497.858-.397 1.44a.27.27 0 0 0 .154.196c.238.106.482.154.74.133a.16.16 0 0 0 .145-.172.16.16 0 0 0-.028-.077c-.063-.09-.015-.16.154-.212l.17-.043c.338-.084.825-.2.846-.555a.24.24 0 0 0-.149-.243.24.24 0 0 0-.1-.017.24.24 0 0 0-.126.048.6.6 0 0 0-.18.196.27.27 0 0 1-.117.116l-.678.344a.25.25 0 0 0-.11.111l-.038.075q-.046.08-.132.058"/>
</svg>
