<svg xmlns="http://www.w3.org/2000/svg" width="24" height="24" fill="none" viewBox="0 0 24 24">
    <path fill="url(#HOP__a)" fill-rule="evenodd" d="m16.917 3.453 3.76 5.51a1.8 1.8 0 0 1 .175 1.742 1.36 1.36 0 0 1-.94.773c-.436.103-.814-.046-1.207-.201l-.182-.071-.003-.001-.003.001v.005q.626 1.067 1.062 2.224c.14.369-.033.798-.403.932a.69.69 0 0 1-.835-.315s-1.366-2.26-2.467-3.32c-.98-.942-2.044-1.766-3.22-2.347a10.5 10.5 0 0 0-3.73-1.03c-1.29-.114-2.603-.008-3.926.214-.622.104-1.248-.265-1.409-.88-.174-.664.177-1.23.864-1.49h.007c6.202-2.1 11.424 1.821 11.81 2.11l.004.004h.004v-.005c-.849-1.242-1.204-2.255-1.244-3.211-.043-1.05 1.292-1.508 1.883-.644M7.103 20.55 3.32 15.01a1.8 1.8 0 0 1-.174-1.74c.167-.394.528-.677.939-.773.436-.103.816.047 1.21.203l.18.07h.003l.002-.001v-.004a14.5 14.5 0 0 1-1.059-2.218c-.135-.359.016-.778.368-.927a.69.69 0 0 1 .869.302s1.366 2.26 2.467 3.32c.979.942 2.044 1.766 3.22 2.348 1.175.581 2.437.914 3.729 1.028 1.29.115 2.603.011 3.926-.212.622-.105 1.248.264 1.409.879.172.664-.177 1.23-.864 1.488h-.008c-6.194 2.099-11.413-1.814-11.807-2.11l-.006-.003c-.004-.003-.007.002-.004.005.853 1.249 1.207 2.265 1.244 3.226.04 1.05-1.27 1.525-1.862.66" clip-rule="evenodd"/>
    <defs>
        <linearGradient id="HOP__a" x1="18.203" x2="6.199" y1="5.452" y2="18.956" gradientUnits="userSpaceOnUse">
            <stop stop-color="#E995A5"/>
            <stop offset="1" stop-color="#BE42ED"/>
        </linearGradient>
    </defs>
</svg>
