<svg width="24" height="24" viewBox="0 0 24 24" fill="none" xmlns="http://www.w3.org/2000/svg">
<path d="M4.42543 5.45561C4.55043 5.29937 4.67541 5.14938 4.81291 4.99938L4.83791 4.98063L4.88165 4.94314L4.89415 4.93064C5.3419 4.51633 5.86922 4.1974 6.44405 3.9932C7.15917 3.74628 7.92934 3.70559 8.66651 3.8758C9.40365 4.04599 10.0781 4.4202 10.6125 4.95564C12.3187 6.54928 12.1686 9.12406 10.8001 10.8302C9.08765 13.3801 6.13157 16.9361 10.2251 20.1234C10.9562 20.6921 11.5063 21.1671 13.8186 21.8358C12.3061 22.117 10.8999 22.0232 9.33759 21.6295C8.23143 21.0046 6.49405 19.6671 5.90033 17.8611C5.00665 15.1237 7.47523 11.0365 8.6689 9.46165C10.3063 7.27423 7.65647 4.91814 5.70661 7.55547C4.68791 8.93038 2.90054 12.8114 3.51925 15.6987C3.88797 17.3299 4.36918 18.5234 6.28156 20.1609C5.92534 19.9484 5.58161 19.7109 5.25038 19.4484C3.33006 17.6755 2.17134 15.2274 2.01753 12.6183C1.86371 10.0092 2.72674 7.44194 4.42543 5.45561Z" fill="url(#paint0_linear_364_2167)"/>
<path d="M19.5747 18.5424C19.4498 18.6986 19.3248 18.8486 19.1873 18.9987L19.1623 19.0174L19.1186 19.0548L19.106 19.0674C18.6582 19.4817 18.1309 19.8006 17.5561 20.0049C16.1625 20.5048 14.6064 20.1923 13.3877 19.0424C11.6816 17.4487 11.8378 14.8739 13.2002 13.1678C14.9126 10.6179 17.8686 7.06193 13.7752 3.87463C13.0439 3.30591 12.494 2.83095 10.1816 2.16225C11.6718 1.89293 13.2034 1.96342 14.6625 2.36849C15.7687 2.99344 17.5061 4.33085 18.0999 6.13698C18.9935 8.8743 16.525 12.9616 15.3313 14.5365C13.694 16.7238 16.3437 19.0799 18.2935 16.4425C19.3122 15.0676 21.0996 11.1866 20.4809 8.29934C20.1122 6.6682 19.631 5.47453 17.7187 3.83714C18.0748 4.04962 18.4186 4.2871 18.7498 4.54959C20.6702 6.32257 21.8289 8.77062 21.9827 11.3797C22.1364 13.9888 21.2734 16.556 19.5747 18.5424Z" fill="url(#paint1_linear_364_2167)"/>
<defs>
<linearGradient id="paint0_linear_364_2167" x1="2.00101" y1="11.0274" x2="35.8437" y2="11.0274" gradientUnits="userSpaceOnUse">
<stop stop-color="#0082FA"/>
<stop offset="1" stop-color="#00F2FE"/>
</linearGradient>
<linearGradient id="paint1_linear_364_2167" x1="2.00083" y1="11.9992" x2="21.9995" y2="11.9992" gradientUnits="userSpaceOnUse">
<stop stop-color="#0082FA"/>
<stop offset="1" stop-color="#00F2FE"/>
</linearGradient>
</defs>
</svg>
