<svg xmlns="http://www.w3.org/2000/svg" width="24" height="24" fill="none" viewBox="0 0 24 24">
    <path fill="#00E093" d="M8.67 5.076c-.28.1-.645.4-.77.625a4 4 0 0 0-.17.69c-.18 1.01-.54 1.304-1.834 1.5-.53.074-1.04.724-1.05 1.33a1.52 1.52 0 0 1-.925 1.32c-.135.05-.425.124-.64.149-.49.065-.7.17-.985.485-.25.28-.335.6-.28 1.06.07.62.58 1.02 1.42 1.115.555.065.99.36 1.23.83.1.2.18.455.185.575a1.423 1.423 0 0 0 1.46 1.44c.12 0 .385.08.585.18.48.235.765.65.834 1.2.12.934.585 1.424 1.35 1.424.415 0 .665-.1.95-.37.25-.235.34-.455.415-1 .044-.391.223-.755.505-1.03.286-.227.635-.36 1-.38.76 0 1.44-.61 1.445-1.294.005-.665.41-1.33 1.03-1.5.2-.05.51-.115.69-.135.37-.05.785-.35.965-.695.065-.12.12-.375.12-.57.01-.71-.5-1.235-1.305-1.335-.75-.1-1.235-.415-1.5-.975l-.16-.33-.13.285a1.4 1.4 0 0 1-.75.68c-.17.065-.165.07.13.19.59.23 1.12 1.035 1.035 1.66-.1.715-.75 1.23-1.57 1.33-.875.105-1.21.43-1.37 1.33-.175 1-.615 1.485-1.495 1.485-.45 0-.66-.08-1-.375a1.5 1.5 0 0 1-.53-1.075 1.415 1.415 0 0 0-1.404-1.365c-.375 0-.8-.21-1.075-.52-.31-.35-.38-.55-.38-1.045 0-.795.515-1.325 1.41-1.46.95-.15 1.32-.495 1.445-1.34.12-.86.64-1.425 1.38-1.505a1.85 1.85 0 0 1 1.71 1.005l.12.3.13-.29c.15-.325.494-.61.86-.71.184-.05.204-.07.084-.075a2.3 2.3 0 0 1-.98-.54 1.84 1.84 0 0 1-.415-1.04 2.1 2.1 0 0 0-.215-.67 1.37 1.37 0 0 0-1.555-.564"/>
    <path fill="#fff" d="M14.715 5.01c-.04.016-.155.046-.26.066-.455.1-.91.72-.915 1.25 0 .364-.225.83-.53 1.094-.32.275-.45.325-.965.4-.515.065-.705.14-.95.37-.295.27-.4.51-.47 1.05-.11.88-.53 1.285-1.5 1.45-.69.12-1.014.325-1.22.765-.174.38-.17.77.016 1.15.2.41.575.645 1.15.715.75.09 1.21.39 1.45.945l.114.275.09-.205c.11-.265.52-.66.73-.71s.205-.14-.015-.195c-.25-.06-.665-.435-.83-.76-.2-.39-.19-.955.025-1.375.245-.465.625-.7 1.27-.79.61-.08.835-.18 1.09-.48.2-.23.3-.53.37-1.06A1.56 1.56 0 0 1 15.45 7.75c.56.23.845.625.975 1.36.115.635.16.735.44 1 .25.225.44.3.95.37.975.13 1.56.79 1.485 1.685-.065.755-.595 1.24-1.485 1.365-.885.125-1.275.52-1.39 1.4-.085.64-.35 1.035-.88 1.3-.31.15-.98.155-1.31 0a1.7 1.7 0 0 1-.795-.835l-.09-.255-.13.29a1.4 1.4 0 0 1-.75.684c-.17.06-.17.066.125.185.32.125.695.49.815.8.04.1.1.385.14.635.08.56.32.925.735 1.12a1.32 1.32 0 0 0 1.925-1.12c.13-.975.62-1.45 1.61-1.57.75-.09 1.175-.504 1.285-1.264.09-.62.2-.865.55-1.17.294-.265.66-.41 1.05-.41a1.415 1.415 0 0 0 1.25-1c.214-.79-.35-1.515-1.27-1.63-1-.12-1.415-.53-1.575-1.535a2 2 0 0 0-.25-.745 1.43 1.43 0 0 0-1.085-.56c-.365 0-.95-.27-1.185-.55-.21-.245-.31-.51-.375-1.025a1.42 1.42 0 0 0-.65-1.064c-.27-.14-.705-.25-.85-.2"/>
</svg>
