<svg xmlns="http://www.w3.org/2000/svg" width="24" height="24" fill="none" viewBox="0 0 24 24">
    <path fill="url(#IPAD__a)" d="m3 12 1.421-1.422L5.842 12l-1.42 1.421z"/>
    <path fill="url(#IPAD__b)" d="m4.895 13.895 1.42-1.421 3.316 3.315-1.42 1.422z"/>
    <path fill="url(#IPAD__c)" d="m8.684 13.895 1.421-1.421 1.421 1.42-1.42 1.422z"/>
    <path fill="url(#IPAD__d)" d="M10.58 12 12 10.577 13.423 12 12 13.42z"/>
    <path fill="url(#IPAD__e)" d="m12.474 10.106 1.421-1.421 1.421 1.42-1.42 1.422z"/>
    <path fill="#F3BA2F" d="m14.369 8.21 1.42-1.42 3.317 3.315-1.422 1.42z"/>
    <path fill="url(#IPAD__f)" d="m12.474 13.895 1.421-1.421 1.421 1.42-1.42 1.422z"/>
    <path fill="url(#IPAD__g)" d="m14.369 15.79 3.315-3.316 1.422 1.42-3.316 3.316z"/>
    <path fill="#F3BA2F" d="m18.158 12 1.421-1.422L21 12l-1.42 1.421z"/>
    <path fill="url(#IPAD__h)" d="M4.895 10.105 8.21 6.789 9.631 8.21l-3.315 3.316z"/>
    <path fill="url(#IPAD__i)" d="m8.684 10.106 1.421-1.421 1.421 1.42-1.42 1.422z"/>
    <defs>
        <linearGradient id="IPAD__a" x1="9.394" x2="10.825" y1="10.815" y2="9.389" gradientUnits="userSpaceOnUse">
            <stop stop-color="#4086FF"/>
            <stop offset="1" stop-color="#48D5FF"/>
        </linearGradient>
        <linearGradient id="IPAD__b" x1="9.3" x2="12.02" y1="13.563" y2="8.865" gradientUnits="userSpaceOnUse">
            <stop stop-color="#4086FF"/>
            <stop offset="1" stop-color="#48D5FF"/>
        </linearGradient>
        <linearGradient id="IPAD__c" x1="9.395" x2="10.825" y1="10.816" y2="9.39" gradientUnits="userSpaceOnUse">
            <stop stop-color="#4086FF"/>
            <stop offset="1" stop-color="#48D5FF"/>
        </linearGradient>
        <linearGradient id="IPAD__d" x1="7.501" x2="12.019" y1="14.605" y2="6.799" gradientUnits="userSpaceOnUse">
            <stop stop-color="#E8BB41"/>
            <stop offset="1" stop-color="#F6DA5B"/>
        </linearGradient>
        <linearGradient id="IPAD__e" x1="7.5" x2="12.019" y1="14.606" y2="6.801" gradientUnits="userSpaceOnUse">
            <stop stop-color="#E8BB41"/>
            <stop offset="1" stop-color="#F6DA5B"/>
        </linearGradient>
        <linearGradient id="IPAD__f" x1="7.5" x2="12.019" y1="14.605" y2="6.8" gradientUnits="userSpaceOnUse">
            <stop stop-color="#E8BB41"/>
            <stop offset="1" stop-color="#F6DA5B"/>
        </linearGradient>
        <linearGradient id="IPAD__g" x1="5.7" x2="12.026" y1="15.647" y2="4.72" gradientUnits="userSpaceOnUse">
            <stop stop-color="#E8BB41"/>
            <stop offset="1" stop-color="#F6DA5B"/>
        </linearGradient>
        <linearGradient id="IPAD__h" x1="5.7" x2="12.107" y1="15.647" y2="4.673" gradientUnits="userSpaceOnUse">
            <stop stop-color="#4086FF"/>
            <stop offset="1" stop-color="#48D5FF"/>
        </linearGradient>
        <linearGradient id="IPAD__i" x1="9.395" x2="10.825" y1="10.816" y2="9.39" gradientUnits="userSpaceOnUse">
            <stop stop-color="#4086FF"/>
            <stop offset="1" stop-color="#48D5FF"/>
        </linearGradient>
    </defs>
</svg>
