<svg xmlns="http://www.w3.org/2000/svg" width="24" height="24" fill="none" viewBox="0 0 24 24">
    <path fill="url(#IST__a)" d="M16.95 7.81c0 2.656-2.214 4.811-4.95 4.811a5 5 0 0 1-2.443-.63l.823-1.093a3.7 3.7 0 0 0 1.62.369c1.99 0 3.6-1.548 3.6-3.46 0-1.909-1.61-3.457-3.6-3.457S8.4 5.898 8.4 7.806c0 .455.09.891.257 1.287l-1.112.815A4.7 4.7 0 0 1 7.05 7.81C7.05 5.156 9.264 3 12 3s4.95 2.156 4.95 4.81"/>
    <path fill="url(#IST__b)" d="M7.05 13.295c0-2.7 2.214-4.896 4.95-4.896.923 0 1.791.252 2.53.689l-.847 1.066A3.5 3.5 0 0 0 12 9.75c-2.047 0-3.6 1.521-3.6 3.546v2.808c0 2.025 1.553 3.547 3.6 3.547s3.6-1.521 3.6-3.547v-2.808c0-.521-.045-.823-.243-1.273l1.116-.828c.306.639.477 1.35.477 2.101v2.808C16.95 18.808 14.736 21 12 21s-4.95-2.192-4.95-4.897z"/>
    <path fill="url(#IST__c)" d="M7.635 10.982a4.8 4.8 0 0 0-.585 2.313v2.809c0 1.134.387 2.173 1.04 3.001l1.008-.81a3.74 3.74 0 0 1-.698-2.192v-2.808c0-.558.117-1.084.333-1.557z"/>
    <defs>
        <linearGradient id="IST__a" x1="15.195" x2="4.446" y1="5.197" y2="11.153" gradientUnits="userSpaceOnUse">
            <stop stop-color="#6B54FE"/>
            <stop offset="1" stop-color="#FA81CF"/>
        </linearGradient>
        <linearGradient id="IST__b" x1="14.169" x2="5.022" y1="4.581" y2="16.343" gradientUnits="userSpaceOnUse">
            <stop stop-color="#BE7FFE"/>
            <stop offset=".68" stop-color="#FDC142"/>
            <stop offset="1" stop-color="#FE8D03"/>
        </linearGradient>
        <linearGradient id="IST__c" x1="8.072" x2="8.072" y1="11.338" y2="19.105" gradientUnits="userSpaceOnUse">
            <stop offset=".07" stop-color="#E2A495"/>
            <stop offset=".29" stop-color="#FE581B"/>
            <stop offset=".51" stop-color="#FE5602"/>
            <stop offset=".75" stop-color="#FE6502"/>
            <stop offset=".91" stop-color="#FE9912"/>
        </linearGradient>
    </defs>
</svg>
