<svg width="24" height="24" viewBox="0 0 24 24" fill="none" xmlns="http://www.w3.org/2000/svg">
<path d="M11.4446 17.0002C12.0582 17.0002 12.5557 16.5027 12.5557 15.889C12.5557 15.2755 12.0582 14.778 11.4446 14.778C10.8309 14.778 10.3335 15.2755 10.3335 15.889C10.3335 16.5027 10.8309 17.0002 11.4446 17.0002Z" fill="url(#paint0_linear_364_5347)"/>
<path fill-rule="evenodd" clip-rule="evenodd" d="M11.9997 2L3.11084 6.98334V16.9722L11.9997 22L20.8887 16.9722V6.98334L11.9997 2ZM14.2724 5.88889H11.489C11.2779 5.89445 10.9001 6.04445 10.889 6.57224V13.7368C9.93069 13.9836 9.22267 14.8535 9.22267 15.8889C9.22267 17.1161 10.2176 18.111 11.4449 18.111C12.6722 18.111 13.6671 17.1161 13.6671 15.8889C13.6671 14.8533 12.9587 13.9831 12.0001 13.7365V9.22223H13.7557C13.9224 9.22223 14.2223 9.03335 14.2223 8.66668C14.2223 8.30557 13.9278 8.11112 13.7557 8.11112H12.0001V7.00001H14.2778C14.4723 7.00001 14.7779 6.78334 14.7779 6.44446C14.7779 6.04445 14.4501 5.88889 14.2724 5.88889Z" fill="url(#paint1_linear_364_5347)"/>
<defs>
<linearGradient id="paint0_linear_364_5347" x1="12.0003" y1="1.99988" x2="12.0003" y2="21.9999" gradientUnits="userSpaceOnUse">
<stop stop-color="#4AB0E1"/>
<stop offset="1" stop-color="#58B9CF"/>
</linearGradient>
<linearGradient id="paint1_linear_364_5347" x1="11.9997" y1="2" x2="11.9997" y2="22" gradientUnits="userSpaceOnUse">
<stop stop-color="#4AB0E1"/>
<stop offset="1" stop-color="#58B9CF"/>
</linearGradient>
</defs>
</svg>
