<svg xmlns="http://www.w3.org/2000/svg" width="24" height="24" fill="none" viewBox="0 0 24 24">
    <path fill="url(#KROM__a)" d="m19.375 19.457-7.339-6.246L4.5 19.583c-.582.492-1.5.096-1.5-.654V5.069c0-.75.918-1.14 1.5-.654l7.536 6.402 7.405-6.318a.96.96 0 0 1 1.32.072.88.88 0 0 1-.078 1.278l-7.225 6.132 7.17 6.12a.88.88 0 0 1 .09 1.272.973.973 0 0 1-1.343.084M4.8 6.983v9.978l5.814-4.956z"/>
    <defs>
        <linearGradient id="KROM__a" x1="3" x2="21" y1="11.999" y2="11.999" gradientUnits="userSpaceOnUse">
            <stop stop-color="#9EEBFD"/>
            <stop offset=".23" stop-color="#AAC5F9"/>
            <stop offset=".52" stop-color="#A5BCF8"/>
            <stop offset=".74" stop-color="#B6B5F7"/>
            <stop offset=".9" stop-color="#EBB0F2"/>
            <stop offset="1" stop-color="#AEA0F4"/>
        </linearGradient>
    </defs>
</svg>
