<svg xmlns="http://www.w3.org/2000/svg" width="24" height="24" fill="none" viewBox="0 0 24 24">
    <path fill="#4747F3" d="M12 21a9 9 0 1 0 0-18 9 9 0 0 0 0 18"/>
    <path fill="#7C7CF4" d="M12 20.66a8.661 8.661 0 1 0 0-17.322 8.661 8.661 0 0 0 0 17.322"/>
    <path fill="#A2A2F8" d="M12 20.284a8.285 8.285 0 1 0 0-16.57 8.285 8.285 0 0 0 0 16.57"/>
    <path fill="#C4C5FB" d="M12 19.845a7.846 7.846 0 1 0 0-15.692 7.846 7.846 0 0 0 0 15.692"/>
    <path fill="#E0E0FC" d="M12 19.333a7.332 7.332 0 1 0 0-14.665 7.332 7.332 0 0 0 0 14.665"/>
    <path fill="#F0F3FA" d="M12 18.507a6.507 6.507 0 1 0 0-13.013 6.507 6.507 0 0 0 0 13.013"/>
    <path fill="#2A28F5" d="M9.353 12.122v3.584h5.294v-1.588H11.47v-1.403a10 10 0 0 1-2.117-.593m0-1.446a21 21 0 0 0 2.117.678v-3.59H9.353z"/>
</svg>
