<svg xmlns="http://www.w3.org/2000/svg" width="24" height="24" fill="none" viewBox="0 0 24 24">
    <mask id="LINDA__a" width="20" height="20" x="2" y="2" maskUnits="userSpaceOnUse" style="mask-type:luminance">
        <path fill="#fff" d="M22 2H2v20h20z"/>
    </mask>
    <g mask="url(#LINDA__a)">
        <path fill="#E69B88" d="M2 2h20v20H2z"/>
        <path fill="#070202" d="m14.408 9.786-.05-.036c-.018-.007-.025-.025-.015-.043l.018-.028q.011-.023.007-.05l-.05-.286-.01-.25q0-.028.021-.04.06-.047.029-.114l.007-.35a1.06 1.06 0 0 0-.143-.585 3 3 0 0 1-.168-.65.7.7 0 0 0-.071-.236 1 1 0 0 1-.108-.31c-.028-.186-.2-.315-.357-.408a.43.43 0 0 0-.257-.121c-.1-.015-.15-.054-.171-.147a.04.04 0 0 0-.011-.025l-.025-.01-.193-.025a.05.05 0 0 1-.028-.018c-.175-.2-.343-.225-.572-.297a1.75 1.75 0 0 0-.986.01c-.189.072-.375.13-.478.322a.53.53 0 0 1-.207.197.1.1 0 0 0-.043.06c-.01.05 0 .072-.036.118q-.134.183-.303.311a.67.67 0 0 0-.322.322 19 19 0 0 1-.336.728 2 2 0 0 1-.171.304c-.24.039-.136.3-.093.439a.1.1 0 0 1-.025.1.3.3 0 0 0-.068.09q-.04.154.057.024c.122-.164.104-.382.136-.578a.36.36 0 0 0 .16-.157l.004-.001h.004l.01.008q.014 0 .008.018a1.04 1.04 0 0 0-.129.557q-.018.153-.053.303a.5.5 0 0 0-.011.207q.028.136.018.265a.05.05 0 0 0 .018.035q.01.01.025.011l.01.025-.228.464c-.068-.075-.025-.153-.029-.239q-.002-.047-.035-.014c-.043.036-.047.11-.036.16a.55.55 0 0 1-.172.525 10 10 0 0 0-.482.458q-.01.01-.021 0l-.014-.015v-.003q.24-.267.482-.49a.34.34 0 0 0 .1-.232c0-.028-.007-.035-.025-.01l-.386.475q-.002.01-.014 0l-.015-.008v-.007l.179-.264a.07.07 0 0 0 .007-.053l-.028-.154a.05.05 0 0 0-.036-.036c-.047-.018-.06-.05-.05-.107a4 4 0 0 1 .203-.678.8.8 0 0 1 .172-.265c.093-.1.114-.225.182-.335q.016-.027.007-.054c-.028-.093-.075-.2-.075-.293 0-.153.057-.282.168-.378.086-.08.175-.122.229-.233q.085-.172.132-.339a.14.14 0 0 1 .032-.057l.04-.054q.063-.186-.054-.028-.21.27-.397.553l-.014-.014a.03.03 0 0 1-.01-.018v-.018q.198-.349.328-.467.291-.26.5-.59c.118-.05.278-.15.25-.285.393-.404.768-.69 1.335-.786a1 1 0 0 1 .443.025c.265.071.529.121.736.31.096.09.196.026.29.09.046.028.064.071.046.118-.004.018 0 .032.021.035.129.05.279.072.379.165.15.15.296.275.35.496q.036.14.089.275c.175.44.321.907.429 1.4.05.236.01.382-.054.597a.63.63 0 0 0 .046.442q.01.024.029.036a.4.4 0 0 1 .164.2q.011.025.036.036a.36.36 0 0 1 .196.296q.007.085-.039.01a2 2 0 0 1-.121-.195.03.03 0 0 0-.036 0 .03.03 0 0 0-.007.014l-.025.096v.007h-.025q-.015.001-.01-.014a.3.3 0 0 0 .01-.114.05.05 0 0 0-.025-.036l-.19-.093z"/>
        <path fill="#311915" d="M13.518 6.4a.5.5 0 0 0 .193.229q.037.031.107.15v.007l-.014.007h-.018l-.114-.122q-.037-.036-.036.018a.2.2 0 0 0 .029.079c.06.096.021.25-.029.34q-.07.127.032.256c.072.093.15.179.232.268a.4.4 0 0 1 .1.16q.05.151.118.287.038.076.072-.004c0-.014.014-.036.032-.071.103.175.15.367.143.585q-.011-.021-.022-.021a.05.05 0 0 0-.025.014.05.05 0 0 0-.018.029.75.75 0 0 0 .008.332c0 .007.007.014.01.018a.04.04 0 0 0 .022.003q.022.001.018-.025c.021.047.014.082-.029.115a.04.04 0 0 0-.018.035l.007.257c-.13.205-.184.45-.153.69 0 .018-.004.036-.018.043-.029.018-.036.01-.036-.022.01-.221-.25-.125-.36-.082a.1.1 0 0 0-.047.043.1.1 0 0 0-.007.06l.043.136c0 .008.007.015.01.018a.04.04 0 0 0 .025.007l.104-.003q.01-.001.02.003a.04.04 0 0 1 .016.015l.039.071q.031.054.068.022c.01.114.071.25.186.296.107.046.221.071.242.207l.036.175a.05.05 0 0 1-.01.046c-.054.072-.118.072-.19.018l-.168-.1a.06.06 0 0 1-.028-.035.23.23 0 0 0-.054-.118c-.032-.029-.046-.025-.053.018a.2.2 0 0 0 .057.168q.02.017.028.035l.132.325q.021.059.015.1-.006.075-.043.01a2.2 2.2 0 0 0-.136-.41.13.13 0 0 0-.04-.053c-.1-.075-.088-.179-.16-.272a.8.8 0 0 0-.346-.34l-.093-.035-.01-.003-.012.003-.003.01v.012c.057.125.153.2.221.31q.081.123-.035.025c-.086-.071-.143-.089-.165-.035a.24.24 0 0 1-.182.232q-.028.009-.04-.014a1.7 1.7 0 0 1-.2-.422.06.06 0 0 0-.046-.043q-.013-.002-.007.036l-.018-.168a.1.1 0 0 0 .058-.05.8.8 0 0 1 .142-.25q.056-.06.1-.125c.083-.114.165-.218.211-.346q.066-.194.143-.383c.071-.17.093-.35.079-.535a4.7 4.7 0 0 0-.15-.929.4.4 0 0 1-.008-.121q.001-.031-.025-.036-.04-.012-.039.029l-.053-.25c.082.028.121.092.107.189q-.002.05.028.007a.1.1 0 0 0 .018-.071c-.021-.129-.036-.268-.107-.379a3 3 0 0 1-.204-.382c-.057-.136-.203-.207-.328-.272a.04.04 0 0 1-.025-.043q.002-.014-.007-.035-.015-.021-.04-.01a.5.5 0 0 1-.217.038q-.06-.07-.172.036c-.082.072-.14.172-.214.25a2.6 2.6 0 0 0-.332.393q-.012.015-.029 0a.05.05 0 0 1-.008-.03q0-.016.012-.027.027-.034.01-.06l-.006-.008a.03.03 0 0 0-.02-.004l-.01.004-.006.007-.1.143a.1.1 0 0 1-.036.029l-.357.167c-.107.047-.115.036-.025-.042l.143-.122a.05.05 0 0 1 .046-.007q.096.031.129-.04.064-.142.157-.253a.2.2 0 0 0 .05-.19.06.06 0 0 1 .007-.042l.036-.043q.039-.055-.029-.028a2 2 0 0 0-.179.078.07.07 0 0 0-.035.036l-.072.178q-.153.166-.232.315c-.018.043-.107.132-.271.275-.047.035-.043.093-.107.118a1 1 0 0 0-.134.062l-.006.013v.017q-.02-.064-.046-.07l.125-.04a.2.2 0 0 0 .093-.065c.125-.16.25-.32.364-.482a.1.1 0 0 1 .043-.035q.07-.036.068-.115-.005-.076-.057-.018-.151.171-.275.368a.3.3 0 0 1-.118.111q-.044.02-.018-.018.178-.28.382-.486a.04.04 0 0 0 .004-.053l-.033-.007.036-.04a.1.1 0 0 1 .036-.032l.136-.068a.1.1 0 0 0 .042-.035.4.4 0 0 1 .129-.118q.066-.037-.007-.057a.3.3 0 0 0-.132.007q.108-.053-.104-.075-.033-.006-.04-.043c.019-.025.022-.05 0-.071q-.016-.026-.038-.015-.166.075-.343.129c-.14.036-.25.143-.347.236-.114.11-.243.2-.364.307a.12.12 0 0 1-.064.028q-.07.01-.057-.064.17-.13.303-.31c.036-.047.025-.069.036-.119a.1.1 0 0 1 .043-.06.5.5 0 0 0 .207-.2c.103-.19.286-.25.478-.322.323-.097.666-.1.99-.007.225.072.393.097.568.297q.011.014.028.017l.193.025.025.011.014.025c.018.093.072.132.168.147q.166.025.257.121"/>
        <path fill="#210C09" d="M11.422 6.225a.74.74 0 0 0-.347.096q-.16.096.018.047c.114-.029.225.007.34-.007.042 0 .089-.011.131-.018a.3.3 0 0 1 .133-.007q.073.022.007.057a.34.34 0 0 0-.129.118.1.1 0 0 1-.043.035l-.132.072a.1.1 0 0 0-.04.028l-.035.04-.653.793a.03.03 0 0 0-.008.014q-.002.054.083.032c.017.004.035.029.042.071.268 0 .5-.078.793-.164a.1.1 0 0 0 .04-.028c.1-.122.214-.243.332-.358.132-.121.235-.267.346-.414q.074-.106.282-.26a.5.5 0 0 0 .215-.04q.032-.009.042.014.01.016.008.036 0 .013.006.024.007.01.019.015c.125.065.267.136.328.272.057.136.129.264.204.382.071.11.085.25.107.379.003.025 0 .05-.018.071q-.031.042-.025-.007.01-.145-.107-.19a2.3 2.3 0 0 0-.143-.41 1.1 1.1 0 0 0-.221-.322.46.46 0 0 0-.333-.142.1.1 0 0 0-.05.014.3.3 0 0 0-.107.09 8 8 0 0 0-.196.32 1.3 1.3 0 0 1-.393.422l.379-.518c.003-.007.007-.01.003-.014q0-.01-.01-.01c-.015 0-.026 0-.036.013a3.5 3.5 0 0 1-.422.5.7.7 0 0 0-.093.115.04.04 0 0 0 0 .043.2.2 0 0 0 .097.082q.012.027.003.064-.172-.063-.221.082-.01.022-.036.018-.092-.016-.121.054l-.097.046-.01.01c-.011 0-.018 0-.018-.01V7.75c0-.014.01-.025.021-.032a.3.3 0 0 0 .107-.114q.023-.037-.021-.033a4 4 0 0 0-.329.05c-.103.025-.207.029-.314.036-.036 0-.036.01-.01.032a.1.1 0 0 0 .067.018q.099-.002.015.05a.12.12 0 0 1-.083.014c-.021 0-.042 0-.06.011a.5.5 0 0 0-.154.122 4 4 0 0 1-.443.5q-.027.026.011.032a.04.04 0 0 0 .036-.015q.09-.116.193-.196c.125-.096.196-.2.289-.318a.4.4 0 0 1 .086-.075c.082-.036.107-.01.071.068a.16.16 0 0 0 0 .082l-.264.314a2 2 0 0 0-.061.868q.054.44.321.697c.008 0 .004.018-.01.043l-.018-.018q-.027-.022-.022.01.033.306.083.6a.8.8 0 0 1-.129.586 1.1 1.1 0 0 0-.29.143c-.053.036-.085.1-.106.19a.7.7 0 0 0-.15.192q-.015.029.028.036l.007.086q-.069.033-.143-.025c-.017-.011-.035-.011-.046 0l-.2.164a.036.036 0 0 0-.007.05l.125.179c.007.003.003.007 0 .01l-.014.01c-.011.004-.015 0-.022-.003l-.14-.16a.1.1 0 0 0-.053-.036l-.053-.014q-.042-.01-.007-.036l.071-.057.229-.211a.04.04 0 0 0 .01-.04.2.2 0 0 0-.039-.06q.022-.258-.154-.34l-.182-.096a.06.06 0 0 1-.032-.035l-.082-.207q-.002.029-.014-.004-.007-.014-.018-.004-.101.106-.079.275l-.01.043q-.026-.01-.036.018a.47.47 0 0 0 .036.396c0 .011 0 .015-.008.022l-.014.007q-.011.005-.018-.007l-.071-.171q-.025-.053-.029.003-.01.117 0 .25c0 .007 0 .01-.01.014h-.011c-.01 0-.018 0-.018-.01a.97.97 0 0 1 .054-.6.32.32 0 0 0 0-.24.025.025 0 0 0-.025-.018q-.28.182-.536.393-.091.076-.018-.014.186-.23.49-.443.048-.033.053-.103.026-.176.09-.357c.003-.004 0-.011-.008-.011l-.014-.007q-.01-.002-.015.007a1.6 1.6 0 0 1-.225.407q-.025.032-.025-.01a.35.35 0 0 1 .136-.269q.021-.02 0-.035a.06.06 0 0 0-.036-.011q-.058.001-.01-.025c.121-.075.175-.179.153-.304.018-.028.015-.05.036-.078q.141-.198.271-.493.037-.085.111-.057l-.064.143a.16.16 0 0 0-.004.107l.007.025q.015.043.047.007l.225-.304a.5.5 0 0 0 .2-.364.3.3 0 0 1 .096-.196.03.03 0 0 0 0-.029l-.003-.007a.2.2 0 0 1-.065-.114c0-.018-.01-.018-.017 0a.5.5 0 0 0-.097.242c-.036.097-.171.165-.257.24-.036.007-.071.035-.096.082a2 2 0 0 1-.172.257c0-.007 0-.014-.01-.025q.037-.214.028-.282a.86.86 0 0 1 .018-.436q.011-.03.007-.06c-.007-.036-.025-.054-.05-.043-.01-.194.034-.388.129-.558q.003-.014-.004-.017l-.014-.008h-.007a.36.36 0 0 1-.161.158l-.007-.072q.095-.15.175-.307c.114-.243.225-.482.332-.729a.67.67 0 0 1 .321-.321q-.011.075.057.064c.025 0 .047-.014.065-.028.121-.107.25-.197.364-.307.1-.097.207-.197.346-.236q.177-.054.343-.129.023-.01.04.011c.021.025.017.05 0 .075"/>
        <path fill="#805237" d="M11.422 6.225c0 .025.018.036.039.043q.215.02.107.071l-.136.022c-.114.014-.225-.022-.339.007-.118.032-.121.018-.018-.047a.74.74 0 0 1 .347-.096m1.16.146a2 2 0 0 0-.285.261c-.107.147-.211.293-.343.414a4 4 0 0 0-.332.358.1.1 0 0 1-.04.028c-.296.086-.525.164-.792.164l.003-.017q0-.012.018-.022l.118-.053c.071-.025.064-.079.107-.118.164-.143.257-.232.275-.275q.076-.146.232-.318 0 .273.064.268-.032.07-.128.035a.05.05 0 0 0-.047.011l-.142.122q-.134.113.028.042l.35-.167a.1.1 0 0 0 .036-.033l.107-.142.008-.006.01-.002a.03.03 0 0 1 .021.011q.016.026-.01.06a.046.046 0 0 0 0 .058q.012.015.025 0 .156-.224.328-.393c.079-.078.136-.178.214-.25q.117-.106.175-.036"/>
        <path fill="#6B3325" d="M10.34 6.372c.028.135-.136.235-.25.285a.8.8 0 0 1 .25-.285m3.178.028c.157.093.329.222.357.407a1 1 0 0 0 .107.311.7.7 0 0 1 .072.236q.051.335.168.65l-.036.071q-.029.08-.068.004A2 2 0 0 1 14 7.793a.4.4 0 0 0-.1-.16 6 6 0 0 1-.236-.269q-.097-.128-.028-.257c.05-.093.089-.243.028-.34a.2.2 0 0 1-.028-.078c0-.035.007-.042.036-.017l.114.117c.007.008.01.008.018 0l.01-.003v-.007a.6.6 0 0 0-.103-.15q-.161-.12-.193-.229"/>
        <path fill="#311915" d="m11.186 6.629-.018-.054a.03.03 0 0 0-.04 0 .36.36 0 0 1-.27.086c.164-.179.357-.25.589-.204.06.01.064.036.01.064a.8.8 0 0 1-.271.108"/>
        <path fill="#E4AE80" d="m13.357 7.329.053.25.111.91c.033.174.026.354-.018.525q-.097.268-.178.536a.8.8 0 0 1-.297.39q-.085.036-.118-.011l.268-.318.004-.007v-.011l-.014-.01h-.015q-.271.253-.468.57a.05.05 0 0 0 0 .054c0-.014 0-.01-.01.014q-.24.204-.336.258a.75.75 0 0 1-.846-.03.95.95 0 0 1-.408-.524.8.8 0 0 0-.153-.296.43.43 0 0 1-.06-.268c.01-.136.106-.2.07-.354-.014-.064-.085-.068-.12-.107q-.054-.06.006-.125a.07.07 0 0 0 .018-.05c0-.036-.014-.046 0-.086a.6.6 0 0 0 .036-.203c0-.022-.007-.029-.029-.032l-.157-.004c-.046-.004-.093-.036-.143-.104l.265-.314q.036.011.071.007c.021.032.043.061.082.065q.257.022.507.003.025-.001.029-.025l.007-.064q.002-.032.036-.014a.3.3 0 0 1 .078.071q.027.027-.01.032l-.043.004q-.023.004-.007.021.016.022.042.007a.2.2 0 0 1 .068-.028q.038-.007.018-.04a.48.48 0 0 0-.332-.221c0-.004-.004-.014 0-.025l.096-.046a.2.2 0 0 0 .125.06c.018 0 .033-.003.043-.018a.07.07 0 0 1 .061-.035c.014-.007.025 0 .036.007a.3.3 0 0 1 .078.121c0 .015.011.025.022.029.014.01.028.003.046-.01a.04.04 0 0 0 .01-.016V7.85a.23.23 0 0 0-.038-.107.07.07 0 0 1-.015-.05l.011-.118a.1.1 0 0 0-.004-.064l.083-.211q.247-.171.392-.418a5 5 0 0 1 .2-.325.3.3 0 0 1 .108-.09.1.1 0 0 1 .046-.013q.198.002.332.142.14.14.222.322.09.206.142.41z"/>
        <path fill="#6B3325" d="M11.607 7.06c-.046 0-.064-.085-.064-.267l.071-.175a.07.07 0 0 1 .036-.036q.092-.047.179-.078.068-.026.025.028l-.032.043a.05.05 0 0 0-.01.043.2.2 0 0 1-.048.19 1.1 1.1 0 0 0-.16.25z"/>
        <path fill="#D79D76" d="m11.186 6.629-.429.203-.132-.018a.53.53 0 0 1 .232-.153.36.36 0 0 0 .272-.086l.01-.007a.03.03 0 0 1 .031.01l.005.011s0 .015.01.04"/>
        <path fill="#805237" d="M11.326 6.686q.018 0 .035.007l.004.028a.04.04 0 0 1-.01.025q-.205.206-.383.486-.026.038.018.018a.3.3 0 0 0 .118-.107c.082-.136.175-.257.275-.372.036-.035.054-.032.057.018q.002.08-.071.115a.1.1 0 0 0-.04.035l-.364.482a.2.2 0 0 1-.093.065q-.062.023-.125.035-.084.027-.082-.028-.002-.01.007-.014zm.593.614-.083.21a.2.2 0 0 1-.096-.081.04.04 0 0 1 0-.043.7.7 0 0 1 .093-.115q.237-.233.425-.5a.03.03 0 0 1 .032-.014c.007 0 .01 0 .01.01v.015z"/>
        <path fill="#311915" d="m10.625 6.814.136.018a7 7 0 0 0-.425.547.5.5 0 0 1-.142.12l-.026.001c-.132-.021-.172.06-.247.15a3 3 0 0 0-.29.41l-.01-.006q-.016-.011-.007-.025.165-.321.332-.54a.43.43 0 0 1 .204-.153.08.08 0 0 0 .046-.036.2.2 0 0 1 .097-.082c.132-.057.243-.147.285-.286z"/>
        <path fill="#805237" d="M10.41 7.582a.14.14 0 0 1-.085.054q-.09.016-.036-.054l.096-.118a.1.1 0 0 1 .04-.028c.06-.022.121-.029.16-.082.111-.136.161-.286.304-.4l.007-.008c.01 0 .022 0 .025.008v.014a2 2 0 0 0-.275.45.1.1 0 0 1-.036.036c-.067.042-.15.067-.2.128"/>
        <path fill="#070202" d="M12.968 7.668q-.106-.074-.293.007l-.086-.007q-.033-.002-.046-.014a.04.04 0 0 1-.014-.029.04.04 0 0 1 .018-.04c.292-.174.632-.046.8.215.025.043.035.071.035.093-.003.118-.021.118-.046.003q-.053-.226-.368-.228"/>
        <path fill="#805237" d="m11.84 7.571-.011.122q-.001.028.014.05a.2.2 0 0 1 .036.107.04.04 0 0 1-.007.032c-.018.014-.033.022-.047.014a.05.05 0 0 1-.021-.032.24.24 0 0 0-.079-.121.04.04 0 0 0-.035-.01.1.1 0 0 0-.061.035.05.05 0 0 1-.043.021.2.2 0 0 1-.125-.06q.027-.07.125-.054.021.007.032-.018.052-.145.221-.082z"/>
        <path fill="#210C09" d="M12.9 10.322c.007-.08-.007-.143-.043-.18a.4.4 0 0 0 .172-.203.76.76 0 0 0 .293-.393l.178-.535c.043-.115.05-.286.022-.522l-.111-.91q-.002-.038.036-.029.03.005.028.036a.4.4 0 0 0 .007.121q.118.435.15.929c.015.185-.003.364-.078.535q-.077.186-.143.383c-.046.128-.129.232-.21.346a1 1 0 0 1-.1.125.7.7 0 0 0-.144.25.1.1 0 0 1-.057.05z"/>
        <path fill="#6B3325" d="M11.365 7.775V7.8a.22.22 0 0 1-.232-.01.06.06 0 0 0-.047-.008q-.16.032-.196.207a.14.14 0 0 1-.072-.007.16.16 0 0 1 0-.082q.053-.12-.07-.068a.3.3 0 0 0-.087.075c-.092.118-.164.222-.285.318a1.2 1.2 0 0 0-.2.196.04.04 0 0 1-.033.015q-.037-.006-.01-.032.229-.213.443-.5a.5.5 0 0 1 .153-.122.1.1 0 0 1 .06-.01q.047.006.083-.015.084-.052-.014-.05a.1.1 0 0 1-.068-.018q-.037-.031.01-.035c.108 0 .215-.008.315-.033q.162-.033.329-.05c.028 0 .035.008.02.036a.3.3 0 0 1-.106.11l-.014.015-.008.018v.025q.001.016.018.01z"/>
        <path fill="#805237" d="M12.968 7.668q-.052.022-.05.05a.28.28 0 0 0-.214.007q0-.043-.029-.05.187-.08.293-.007"/>
        <path fill="#070202" d="M12.918 7.718c.082.036.16.071.218.143q.085.106.154.218c.107.178-.175.2-.272.164q-.08-.028 0-.05.085-.026.025-.1-.06-.072-.082.018l-.014.046q-.008.027-.036.032c-.107.007-.175-.025-.207-.107a.03.03 0 0 0-.014-.01.03.03 0 0 0-.022 0l-.018.01-.007.008-.003.01.001.01.006.008.039.046q.03.036-.014.025a.2.2 0 0 1-.107-.05l-.007-.011v-.014q0-.013.01-.021a.7.7 0 0 1 .214-.14c.083-.035.168.008.25 0 .09-.003.097-.035.025-.085a.48.48 0 0 0-.364-.082c-.014 0-.021-.004-.021-.022q.002-.017.035-.039a.28.28 0 0 1 .211-.007"/>
        <path fill="#070202" d="M11.965 8.946a.6.6 0 0 0-.286-.082.04.04 0 0 1-.029-.018l-.003-.006v-.008c0-.01.01-.018.021-.018.093-.014.35-.018.336.132q-.001.027.025.022c.168-.032.286-.154.464-.129a.04.04 0 0 0 .029-.007.04.04 0 0 0 .014-.021q.007-.053-.046-.1t-.09.018a.04.04 0 0 1-.018.017q-.042.014-.042-.025a.3.3 0 0 0-.04-.142c-.078-.14-.025-.436.011-.565a.55.55 0 0 1 .207-.264c.01-.01.025-.007.036.004l.007.014v.01c-.21.158-.271.347-.178.58.007.024 0 .038-.03.046l-.013.007a.04.04 0 0 0-.013.02.04.04 0 0 0 .002.023.4.4 0 0 0 .143.214q.063.037.1.107.016.032.007.064a.1.1 0 0 1-.04.047c-.1.053-.21.064-.3.125a.3.3 0 0 1-.239.035.04.04 0 0 1-.023-.012.04.04 0 0 1-.012-.023v-.015c.025-.017.021-.035 0-.05m-.6-1.146a.5.5 0 0 1 .332.221q.02.034-.018.04a.2.2 0 0 0-.072.028q-.022.015-.039-.007-.014-.016.007-.021l.043-.004c.022-.003.029-.014.01-.036a.3.3 0 0 0-.081-.07q-.026-.014-.036.017l-.003.064q0 .023-.03.025a3 3 0 0 1-.506-.003c-.04-.004-.06-.036-.082-.065q.039-.175.196-.207a.06.06 0 0 1 .046.007.21.21 0 0 0 .233.011"/>
        <path fill="#6B3325" d="M10.382 7.86a.07.07 0 0 1 .054-.024q.045.002.014.035l-.143.143c-.024.025-.035.022-.024-.01.017-.05.064-.1.1-.143"/>
        <path fill="#805237" d="M9.45 7.882h-.004a.02.02 0 0 0-.028 0l-.172.214a.018.018 0 0 0 0 .029h.004q.016.01.029 0l.175-.214a.018.018 0 0 0-.004-.029"/>
        <path fill="#070202" d="m12.525 7.936-.09.203-.006.007h-.015l-.007-.007v-.01l.057-.193q.01-.022.036-.022h.014q.017.006.011.022"/>
        <path fill="#D79D76" d="M11.186 7.993c-.007-.022-.004-.036.018-.054.014-.01.032-.007.046.007q.006.007.008.016v.017a.04.04 0 0 1-.007.017.04.04 0 0 1-.015.011.05.05 0 0 1-.036 0l-.009-.005z"/>
        <path fill="#070202" d="M11.964 8.236c-.029.121-.036.225-.018.228s.054-.093.079-.214c.028-.125.035-.225.014-.229-.018-.007-.053.093-.079.215z"/>
        <path fill="#6B3325" d="m14.365 8.59-.008.35c0 .017 0 .024-.018.024l-.02-.003a.03.03 0 0 1-.012-.018.75.75 0 0 1-.007-.332q0-.017.018-.029a.05.05 0 0 1 .025-.014q.01 0 .021.021m-4.922.039c.025-.011.043.007.05.043q.002.024-.007.06a.86.86 0 0 0-.018.436 1 1 0 0 1-.028.286.04.04 0 0 1-.025-.011.05.05 0 0 1-.018-.04 1 1 0 0 0-.018-.264.5.5 0 0 1 .01-.207q.038-.151.054-.303m.414.735c-.05-.035-.117-.032-.207.022q-.074-.028-.11.057a3 3 0 0 1-.272.493c-.021.028-.018.05-.036.078.011-.039.004-.064-.01-.071l.228-.468a3 3 0 0 0 .172-.257q.042-.07.096-.082.095.048.24-.086c.082-.071.089-.125.017-.153a.56.56 0 0 1 .097-.247q.011-.022.018.004c.01.05.032.085.064.114a.03.03 0 0 1 .007.018.03.03 0 0 1-.004.018.3.3 0 0 0-.096.196.49.49 0 0 1-.2.364z"/>
        <path fill="#070202" d="M11.553 8.718h.004l.004.003.003.008v.017l-.014.025a.3.3 0 0 1-.072.054l-.046.029a.3.3 0 0 1-.082.035h-.032l-.015-.01-.003-.008v-.007l.253-.143z"/>
        <path fill="#6B3325" d="M10.29 9.25c-.029-.014-.054 0-.065.036a.3.3 0 0 1-.05.1q-.064 0-.086.057a.6.6 0 0 1-.232.321q.06-.126-.01-.157.06-.091.135-.178a.6.6 0 0 0 .118-.179 6 6 0 0 0 .129-.35q.052-.162.071.007c.007.086.007.2-.01.343"/>
        <path fill="#E69B88" d="M9.018 9.44q-.074.037-.046.117a1 1 0 0 0-.25.414q-.002.027-.025.011c-.007 0-.007-.007-.011-.018a.6.6 0 0 1 .04-.203q.08-.209.142-.422c.06-.21.193-.332.357-.457q.054-.036.043.025a1.5 1.5 0 0 1-.25.536z"/>
        <path fill="#070202" d="M9.036 9.214q.022-.015.036.011.015.021-.011.043a.03.03 0 0 1-.036.007q-.037-.022.01-.06m3.229.493c-.147.014-.286.036-.43-.01-.07-.022-.12 0-.188.007a.19.19 0 0 1-.161-.054l-.322-.314q-.047-.052.022-.05c.2 0 .41-.065.604-.025.146.028.303.043.464.035.071 0 .143.011.203.036.111.047.261.16.382.1a.3.3 0 0 1 .111-.028q.016.002.018.014v.018c0 .014-.007.025-.025.025a.7.7 0 0 0-.414.196.77.77 0 0 1-.68.164l-.006-.007a.03.03 0 0 1-.004-.018v-.01q.001-.015.018-.015c.097.025.34.043.422-.035.021-.022.018-.029-.014-.029"/>
        <path fill="#805237" d="m10.29 9.25-.03.2a.02.02 0 0 0 .002.014.021.021 0 0 0 .035.007.05.05 0 0 0 .02-.028q.007-.021.03-.01.01 0 .01.01l.004.014a.6.6 0 0 1-.1.314.77.77 0 0 1-.357.286c-.097.04-.143.125-.225.186a.03.03 0 0 1-.022.007l-.012-.005-.01-.01-.01-.01a.04.04 0 0 1-.007-.03l.006-.013.012-.01c.253-.133.446-.5.535-.786a.25.25 0 0 0 .054-.097c.01-.035.036-.053.064-.039"/>
        <path fill="#6B3325" d="M9.257 9.329c-.035.042-.053.085-.042.096.01.007.05-.018.085-.06.036-.044.054-.086.043-.097-.01-.007-.05.018-.086.06"/>
        <path fill="#805237" d="m9.857 9.364-.221.304q-.032.036-.047-.007l-.007-.025a.15.15 0 0 1 .004-.107l.064-.143c.09-.054.157-.06.21-.022z"/>
        <path fill="#E9CCAE" d="M12.332 9.607c-.24.086-.736.01-.943-.196q-.027-.026.01-.036a1 1 0 0 1 .347 0q.27.038.575.093a.3.3 0 0 1 .147.057c.043.029.035.046-.011.054a.5.5 0 0 0-.125.028"/>
        <path fill="#6B3325" d="m14.318 9.347.05.285q.002.024-.007.047l-.018.028q-.015.029.014.047l.05.028-.04.122q-.01.031.019.035c.082.025.185.158.257.218a.1.1 0 0 0 .046.022q.09.021.147.096a.68.68 0 0 1-.404-.178.12.12 0 0 0-.06-.036.16.16 0 0 1-.108-.06q-.012-.023-.028 0l-.011.01q-.01.006 0 .014a.4.4 0 0 1 .096.114q-.067.011-.114.108l-.096.057q-.028.015-.04-.011l-.021-.046q-.015-.036-.022.003l-.007.097q-.036.03-.068-.025l-.039-.068a.04.04 0 0 0-.036-.018l-.107.003a.04.04 0 0 1-.021-.007.04.04 0 0 1-.014-.018l-.036-.135a.1.1 0 0 1 0-.061.1.1 0 0 1 .05-.043c.107-.043.371-.14.357.082 0 .032.01.036.036.022a.04.04 0 0 0 .021-.043c-.031-.24.023-.485.154-.69"/>
        <path fill="#311915" d="M9.018 9.44a.11.11 0 0 1-.046.117c-.018-.053 0-.093.046-.118"/>
        <path fill="#D79D76" d="M9.228 9.571c.043-.039.068-.078.054-.092-.01-.015-.054.007-.096.042-.043.04-.068.079-.058.093.015.015.058-.007.1-.043"/>
        <path fill="#070202" d="m12.91 9.929-.22.278a.04.04 0 0 1-.004-.053q.202-.319.482-.572l.01.01.004.012v.007l-.271.321z"/>
        <path fill="#E69B88" d="M14.6 9.768v.007q-.022.021-.06.01a.16.16 0 0 1-.069-.046l-.01-.01a.13.13 0 0 1-.036-.071V9.62q.002-.01.014-.021h.007z"/>
        <path fill="#D79D76" d="M9.847 9.607q.07.031.01.157-.088.096-.2.025l.19-.178z"/>
        <path fill="#070202" d="M10.932 9.629a.8.8 0 0 1 .154.296q.096.322.407.525a.755.755 0 0 0 .846.029 2.5 2.5 0 0 0 .336-.257c.007.017.007.032 0 .035a.9.9 0 0 1-.343.297c-.125.06-.235.132-.378.157l-.175.025a4.5 4.5 0 0 1-.975-.832q.022-.038.007-.043l.225.2.018.007a.03.03 0 0 0 .017-.004.03.03 0 0 0 .011-.014v-.018l-.153-.403z"/>
        <path fill="#E69B88" d="m8.972 10.029-.154.178-.01.007h-.011l-.01-.007-.005-.01.007-.222v-.01l.147-.233.01-.01a.02.02 0 0 1 .026.007v.01l.007.275q.002.007-.007.015"/>
        <path fill="#6B3325" d="M9.858 9.764q-.037.136-.204.136l-.025-.007a.05.05 0 0 1-.021-.043q-.002-.01.007-.021a.13.13 0 0 1 .043-.04c.071.05.142.04.196-.025z"/>
        <path fill="#E4AE80" d="M10.804 9.904c.283.322.611.603.975.832l.5.057c.053.107.135.2.25.268a.1.1 0 0 0 .046.01q.195-.002.357.093a.9.9 0 0 0-.214.618l.01.004h.015q.021 0 .021-.022c.008-.228.079-.528.3-.646q.055.015.036.025a.96.96 0 0 0-.236.54q-.014.17.05.014a.5.5 0 0 0 .033-.204c0-.018 0-.032.01-.046a.95.95 0 0 1 .304-.304.8.8 0 0 0 .25.046l.007.311q0 .012.014.014h.015q.01.005.01-.007l.05-.228a.3.3 0 0 0 .132.039q.048.015.036.107c0 .01 0 .018.014.018h.018l.009-.004.006-.007c.025-.071.075-.09.153-.046q.036.036-.028.089l-.418.16a.1.1 0 0 0-.036.008h-.05c-.354.143-.607.232-.768.26a.3.3 0 0 1-.125.008 16 16 0 0 0-2.16-.286l-.19.018q-.044-.007-.028-.036a.6.6 0 0 1 .153-.193q.163-.081.304-.192a.23.23 0 0 0 .089-.14.8.8 0 0 0 .129-.586 10 10 0 0 1-.083-.6c0-.021.004-.025.022-.01z"/>
        <path fill="#805237" d="M12.91 9.929c.022.035.061.035.118.01a.43.43 0 0 1-.171.204q0 .13-.043.164-.15.133-.096.275a.5.5 0 0 0 .225.222q.04.145.178.139.028 0 .05.014c.082.057.193-.05.257-.089a.04.04 0 0 1 .034-.006l.015.007.012.013q.009.006.007.022v.089q0 .02.018.043l.225.286a.3.3 0 0 1-.132-.043q.028-.023-.036-.082-.031-.031-.057-.008a.7.7 0 0 1-.25-.046c.05-.036.082-.068.086-.1.003-.018 0-.021-.018-.014l-.229.114q.018-.01-.039-.025.039-.014.04-.036c0-.028-.018-.043-.054-.036l-.15-.142-.018-.011c-.007 0-.014-.004-.025 0a.55.55 0 0 1-.246-.018 2 2 0 0 0-.333-.082l-.5-.057.175-.025c.143-.025.25-.097.379-.157a1 1 0 0 0 .346-.293c.004-.007.004-.022-.003-.036q.01-.043.014-.018z"/>
        <path fill="#6B3325" d="M13.547 9.964q.054-.011.022.036a.9.9 0 0 1-.222.182q-.03.016-.025-.014.027-.16.225-.2z"/>
        <path fill="#070202" d="M14.836 10.275a.21.21 0 0 1 .128.136c.065.203.143.368.086.603q-.002.012-.014.008-.01 0-.011-.011a1 1 0 0 0-.029-.318q-.01-.043-.035-.004l-.047.065a.08.08 0 0 0-.007.071.6.6 0 0 1 .032.2l-.003.004h-.014q-.011.003-.011-.004l-.029-.154a.03.03 0 0 0-.005-.015.03.03 0 0 0-.013-.01.03.03 0 0 0-.017 0 .03.03 0 0 0-.015.008l-.125.1q-.015.01-.025-.008l-.007-.01v-.011a.3.3 0 0 0 .104-.075.08.08 0 0 0 .018-.068.08.08 0 0 0-.043-.053l-.2-.097a.03.03 0 0 0-.017-.003.03.03 0 0 0-.016.007q-.053.044-.017.1.108.17.196.368c.057.121.186.135.286.071a.06.06 0 0 1 .082.01c.064.083.132.165.221.23.168.12.297.25.383.382l.385.603c.072.114.104.293.193.382.179.175.3.368.375.572.11.31-.382.357-.378.6q.009.245.007.51.002.092-.158.215a3.4 3.4 0 0 1-.835.653.5.5 0 0 1-.132.032q-.071.012-.072.079l.043.864c.007.143 0 .304-.032.482l-.1.561h-.197q.033-.155.043-.314.01-.15.057-.272.097-.282.108-.614.005-.34.032-.671c0-.054.018-.107.043-.161l.015-.017.02-.008a1.3 1.3 0 0 0 .465-.225c.143-.107.635-.5.632-.671q-.005-.26.007-.511a.2.2 0 0 1 .078-.147c.111-.082.333-.235.261-.393a3 3 0 0 0-.228-.407l-.015-.002-.014.006a.03.03 0 0 0-.007.014l-.068.322q-.013.053-.025 0c-.043-.143.086-.265.021-.429a2 2 0 0 0-.217-.418 3 3 0 0 1-.215-.335 1.7 1.7 0 0 0-.45-.575c-.089-.065-.178-.129-.257-.2a.1.1 0 0 0-.057-.025c-.164-.026-.296-.008-.357-.204-.029-.09-.046-.086-.06.004q-.002.014.006.024a.1.1 0 0 1 .011.086.04.04 0 0 1-.01.017.04.04 0 0 1-.018.008q-.032.01-.036-.021a.07.07 0 0 0-.011-.047q-.02-.022-.046-.007l-.236.143.021-.093c0-.025-.003-.036-.028-.043a.14.14 0 0 1-.05-.028q-.098-.086.025-.043h.071q.113.08.193-.021a.05.05 0 0 0 .01-.047 3 3 0 0 1-.035-.178c-.021-.136-.136-.158-.243-.204-.118-.046-.175-.179-.186-.296l.008-.097c.003-.025.01-.028.021 0l.021.043q.014.027.036.01l.1-.06c.025.071.086.125.179.171q.02.01.025.036l-.004.025a.03.03 0 0 1-.021.014h-.014l-.011-.007-.125-.128a.05.05 0 0 0-.043-.011.05.05 0 0 0-.036.028.15.15 0 0 0 .032.168.07.07 0 0 0 .057.025q.075 0 .143.043c.015.011.033.007.043-.01l.11-.168a.064.064 0 0 0-.01-.086.6.6 0 0 0-.118-.093c-.046-.028-.06-.071-.092-.11a.34.34 0 0 0-.097-.115q-.01-.007 0-.014l.01-.014q.016-.016.033 0a.15.15 0 0 0 .103.067c.022 0 .043.015.061.029q.172.16.404.182"/>
        <path fill="#D79D76" d="M10.01 10.371c.126-.103.2-.214.169-.253-.036-.036-.16.014-.286.114s-.2.214-.168.25c.036.043.16-.01.286-.11"/>
        <path fill="#6B3325" d="M12.857 10.143c.036.036.05.1.043.178l.018.176.025.307c-.118-.072-.193-.143-.225-.222q-.054-.142.096-.275.043-.036.043-.164"/>
        <path fill="#E69B88" d="m14.815 10.71-.197-.106a.05.05 0 0 1-.025-.036.05.05 0 0 1 .008-.04l.092-.142a.054.054 0 0 1 .068-.022l.018.015.14.15a.05.05 0 0 1 .01.053l-.036.097a.06.06 0 0 1-.035.035.06.06 0 0 1-.043-.003"/>
        <path fill="#6B3325" d="M13.49 10.418q-.023.075.046.11a1 1 0 0 1 .132.097q.001.117.125.164.007.003.013-.001a.02.02 0 0 0 .008-.01v-.017c.008-.011.018-.011.022 0 .071.093.06.193.16.268a.14.14 0 0 1 .036.053c.054.11.093.229.125.35q-.07-.017-.093.079l-.003.007a.02.02 0 0 1-.013.005.02.02 0 0 1-.012-.005q-.042-.054-.082-.01-.012-.029-.007-.033.064-.053.028-.09.027-.054-.014-.07a.8.8 0 0 1-.386-.308.07.07 0 0 1-.01-.06q.01-.033.039-.011l.06.046q.016.012.036.014.15.025.147.19-.001.021.025.021h.01q.008 0 .014-.004l.011-.01a.04.04 0 0 0 .007-.021c.008-.13-.071-.2-.196-.244a.7.7 0 0 1-.321-.228q.031-.075.164.04c.071.063.086.056.032-.026-.071-.107-.164-.186-.221-.31v-.018l.005-.005.006-.002h.007l.007.003z"/>
        <path fill="#D79D76" d="M13.49 10.418q.216.108.346.34-.007-.013-.025.003l-.143-.136a.6.6 0 0 0-.132-.096q-.068-.038-.046-.107z"/>
        <path fill="#070202" d="M13.393 10.7c.09.107.196.186.325.229s.204.114.2.242a.04.04 0 0 1-.01.022.04.04 0 0 1-.026.01h-.01q-.026.007-.025-.017c.003-.107-.043-.172-.15-.19a.1.1 0 0 1-.033-.014l-.06-.046q-.029-.021-.036.01a.07.07 0 0 0 .007.06.8.8 0 0 0 .386.308q.044.017.014.072-.117-.066-.153.046l-.006.007-.009.004h-.018c-.01 0-.018-.007-.014-.018q.011-.09-.036-.107l-.225-.286a.06.06 0 0 1-.014-.04v-.088a.04.04 0 0 0-.025-.036.04.04 0 0 0-.043 0c-.068.04-.178.143-.26.09a.1.1 0 0 0-.047-.015c-.093 0-.153-.043-.178-.14l-.03-.307q-.004-.041.008-.035a.06.06 0 0 1 .046.035c.047.154.115.293.2.429q.013.021.036.01c.118-.035.179-.11.186-.235"/>
        <path fill="#210C09" d="M14.772 10.6c.017.021.035.036.046.032.007-.007 0-.028-.021-.05-.018-.025-.036-.036-.043-.036-.007.008 0 .033.018.054"/>
        <path fill="#070202" d="m13.668 10.625.143.136c.003.007.007.014.003.018l-.007.01-.007.002q-.004 0-.007-.002-.124-.047-.125-.164"/>
        <path fill="#6B3325" d="M9.468 10.822c-.046.1.029.217-.11.267q-.024-.172.082-.275.006-.01.014 0 .014.038.014.008"/>
        <path fill="#D79D76" d="M12.279 10.793q.151.022.336.082.102.037.242.014h.025l.022.015.143.143-.118.117a.7.7 0 0 0-.354-.092.1.1 0 0 1-.046-.011.6.6 0 0 1-.25-.268"/>
        <path fill="#6B3325" d="M14.286 11.09a.2.2 0 0 1-.075.003c-.08-.025-.09-.014-.026.043a.2.2 0 0 0 .054.028c.021.008.029.018.025.043l-.021.097a.13.13 0 0 0-.043.078l-.132-.321a.1.1 0 0 0-.029-.04.19.19 0 0 1-.057-.167q.005-.063.054-.018a.3.3 0 0 1 .053.114.05.05 0 0 0 .025.036l.168.107z"/>
        <path fill="#070202" d="m9.468 10.822.082.21a.1.1 0 0 0 .032.036l.182.093.108.346a.27.27 0 0 1-.068.143c-.018.021-.032.018-.043 0a.2.2 0 0 1-.018-.107.6.6 0 0 0-.007-.179l-.007-.007a.02.02 0 0 0-.025 0l-.004.014v.404a.2.2 0 0 1-.075-.11.04.04 0 0 0-.018-.023.04.04 0 0 0-.028-.006q-.012-.002-.018.007-.311.214-.607.186-.043-.001-.022.035l.018.036q.014.022-.014.04l-.357.207a1.45 1.45 0 0 0-.35.52.6.6 0 0 1-.136.2c-.129.144-.19.294-.26.462a.3.3 0 0 1-.108.132c-.121.085-.214.31-.257.432-.029.082 0 .153.079.218.15.121.267.196.282.414q.012.175 0 .35c-.018.243.478.61.671.743q.288.205.682.307c0 .5-.035.979-.107 1.421h-.121v-.06c.018-.072.05-.132.053-.204q.039-.518.061-1.068a.04.04 0 0 0-.018-.035.2.2 0 0 0-.071-.036 2.55 2.55 0 0 1-1.036-.697q-.028-.026-.029.011c0 .06.011.11 0 .172-.028.257-.057.51-.078.757-.036.318-.118.76-.129 1.15q.002.016-.028.021a.04.04 0 0 1-.025-.007.04.04 0 0 1-.011-.029c0-.071.007-.142.014-.203q.122-.925.207-1.89a.1.1 0 0 0-.017-.064c-.058-.085-.115-.16-.108-.271.004-.147.008-.286 0-.421-.003-.275-.5-.275-.357-.63.086-.196.197-.36.336-.5.114-.106.121-.25.204-.378l.303-.492c.129-.208.279-.397.397-.608.071-.121.414-.114.535-.125a.7.7 0 0 0 .365-.16q.02-.016.007-.043l-.179-.404.007-.043c.14-.05.065-.168.111-.268"/>
        <path fill="#E4AE80" d="M10.35 11.1c-.086.068-.193-.01-.225-.093q-.008-.023.018-.035c.089-.036.157-.036.21.01a.08.08 0 0 1 .025.06.08.08 0 0 1-.028.058"/>
        <path fill="#070202" d="M13.26 11.143a.95.95 0 0 0-.303.303.1.1 0 0 0-.01.047q0 .128-.033.204-.065.156-.05-.015a.94.94 0 0 1 .24-.536l.228-.117q.026-.012.018.014c-.003.036-.036.068-.09.1"/>
        <path fill="#070202" d="M13.065 11.118c-.222.118-.293.418-.3.646q0 .022-.022.022h-.014l-.01-.004-.004-.01a.9.9 0 0 1 .214-.608l.121-.121q.054-.006.054.043 0 .015-.04.032"/>
        <path fill="#C00B3A" d="M14.771 17.35h-4.46c-.011-.104-.015-.218-.058-.31-.025-.054-.01-.108.036-.15q.026-.027.057-.022c.179.014.332 0 .472-.046.071-.022.142-.036.221-.043q.28-.017.55-.008c.125 0 .243-.035.357-.078q.07-.031 0-.047c-.053-.014-.096-.046-.15-.05a4.6 4.6 0 0 0-.91 0 3 3 0 0 1-.48.004c-.278-.01-.57-.286-.756-.475a.7.7 0 0 1-.215-.46 4 4 0 0 0-.089-.658 1.1 1.1 0 0 0-.168-.407 2.4 2.4 0 0 0-.635-.632c-.058-.04-.108-.09-.111-.157a5 5 0 0 1-.043-.657c.007-.133.025-.315.046-.547a.7.7 0 0 1 .143-.357q.027-.033 0-.104l.357-.207q.032-.016.015-.043l-.018-.035c-.014-.022-.007-.036.025-.032q.289.028.603-.186a.04.04 0 0 1 .054.003l.01.018c.015.047.04.086.08.107l.017.04-.075.057q-.033.026.007.036l.054.014a.1.1 0 0 1 .057.036l.136.16c.007.007.01.007.021 0l.014-.007c.004 0 .008-.007 0-.014l-.121-.179a.036.036 0 0 1 .007-.046l.197-.16q.02-.023.046 0 .077.053.143.02.663 0 .982.054.354.056.704.1c.239.029.5.11.75.107.1 0 .228-.043.325-.082q.219-.085.439-.15a.07.07 0 0 0 .04-.025.2.2 0 0 0 .042-.09.1.1 0 0 1 .036-.006l.043.075c.01.021.025.021.035.003a.44.44 0 0 1 .232-.121.14.14 0 0 0 .072-.036l.046-.05q.044-.042.082.01l.008.005h.01a.02.02 0 0 0 .011-.011c.018-.064.046-.09.093-.079q.002.044.014.06c.025.044.04.037.043-.01 0-.028 0-.06-.014-.1a.12.12 0 0 1 .043-.078l.235-.147q.029-.014.047.007.014.021.014.047-.002.032.036.021a.04.04 0 0 0 .025-.025.1.1 0 0 0-.011-.086.04.04 0 0 1-.007-.024q.022-.136.06-.004c.061.196.193.178.358.204a.1.1 0 0 1 .057.024q.123.106.257.2c.193.133.34.372.45.575q.09.172.214.336.118.159.215.415c.071.167-.061.285-.018.432q.015.053.025 0l.071-.322a.02.02 0 0 1 .012-.016.02.02 0 0 1 .02-.002l.011.008q.125.192.218.396c.071.16-.147.314-.26.393a.2.2 0 0 0-.08.15q-.011.25-.007.51c0 .172-.485.561-.632.672a1.4 1.4 0 0 1-.464.225l-.02.008-.016.017a.5.5 0 0 0-.043.16q-.025.331-.035.672 0 .329-.107.614a1.2 1.2 0 0 0-.054.272 2 2 0 0 1-.043.314"/>
        <path fill="#6B3325" d="M10.718 11.082a.24.24 0 0 1-.09.14 2 2 0 0 1-.303.192q.025-.134.104-.189.107-.079.29-.143"/>
        <path fill="#D79D76" d="M9.542 11.222c0 .06.011.11.033.11.017 0 .035-.046.035-.107 0-.06-.01-.107-.032-.107-.018-.004-.036.046-.036.107z"/>
        <path fill="#6B3325" d="M10.054 11.204c.028.025.06.035.071.028.01-.01-.004-.043-.036-.068-.025-.025-.057-.039-.071-.028-.007.01.007.039.036.068"/>
        <path fill="#D79D76" d="m9.918 11.5-.047.007-.107-.346q.176.081.154.339"/>
        <path fill="#070202" d="m13.607 11.279-.05.228q0 .01-.01.01h-.015q-.015-.005-.014-.017l-.004-.31q.026-.024.057.007c.043.035.054.067.036.082m-2.386.121a.1.1 0 0 1-.018-.036c-.003-.025.004-.032.03-.021.042.021.06.057.045.107q-.01.04-.035.014a.04.04 0 0 1-.013-.015.04.04 0 0 1-.002-.02q.002-.015-.007-.029"/>
        <path fill="#6B3325" d="m9.872 11.507.046-.007a.2.2 0 0 1 .04.06.04.04 0 0 1-.011.04l-.225.214-.018-.039-.004-.404.004-.014.01-.003h.008l.006.002a.02.02 0 0 1 .008.012q.016.075.007.171c0 .043 0 .079.018.107q.015.033.043.008a.3.3 0 0 0 .068-.147"/>
        <path fill="#070202" d="M13.093 11.41a.2.2 0 0 1-.05.08c-.018.017-.021.014-.018-.011a.14.14 0 0 1 .05-.075q.026-.026.018.007m.854.065q-.005.005.007.032l-.05.047a.14.14 0 0 1-.068.039.4.4 0 0 0-.229.121q-.022.027-.039 0l-.04-.078z"/>
        <path fill="#210C09" d="M13.093 11.679c-.018 0-.025-.004-.018-.022q.02-.047.072-.046c.02 0 .028.01.01.028a.13.13 0 0 1-.064.036z"/>
        <path fill="#070202" d="M13.49 11.643a.3.3 0 0 1-.043.09.1.1 0 0 1-.036.024q-.224.065-.443.15a1 1 0 0 1-.328.082c-.247.004-.508-.078-.747-.107q-.353-.044-.703-.1c-.215-.036-.54-.05-.983-.053l-.007-.086c.1-.01.16-.018.19-.014.735.043 1.453.135 2.16.285.025 0 .064 0 .125-.01q.239-.045.768-.261z"/>
        <path fill="#AF0832" d="M8.66 12.029h-.006l-.002-.001-.002-.003-.004-.004a.04.04 0 0 1-.007-.025q.002-.015.015-.032a.2.2 0 0 1 .025-.032.2.2 0 0 1 .035-.029l.01-.003a.15.15 0 0 1 .082-.029l.037.004.021.021.002.003v.006l-.002.002z"/>
        <path fill="#070202" d="M14.704 12.214q.123-.039.243-.09l.007.012q.002.011-.007.018c-.39.196-.786.282-1.24.382q-.013.004-.018-.008v-.02q.51-.124 1.015-.294"/>
        <path fill="#AF0832" d="M8.578 12.147q.027.07 0 .107a.63.63 0 0 0-.143.357q-.034.343-.046.543-.01.183.043.657c.007.071.053.118.107.157q.378.252.64.632a1.1 1.1 0 0 1 .167.407q.077.37.09.657c.01.168.078.322.214.461.185.193.475.464.757.475.214.01.375.007.478 0q.455-.053.911-.004c.054.004.093.036.15.05q.069.016 0 .047a1 1 0 0 1-.357.078c-.179-.007-.364 0-.55.008a1 1 0 0 0-.221.043 1.2 1.2 0 0 1-.472.046.07.07 0 0 0-.057.021q-.07.07-.036.15c.043.093.043.207.057.311h-.82a.2.2 0 0 0-.029-.05.06.06 0 0 1-.014-.05 7 7 0 0 0 .071-.453.2.2 0 0 0-.01-.108.1.1 0 0 0-.025-.043l-.118-.117a.05.05 0 0 1-.014-.058q.143-.375-.147-.535a2.1 2.1 0 0 1-.703-.315c-.193-.135-.69-.503-.672-.75a3 3 0 0 0 0-.346c-.014-.218-.132-.293-.286-.414q-.117-.097-.075-.215c.04-.125.136-.35.258-.435a.3.3 0 0 0 .107-.132c.071-.168.132-.322.26-.461a.8.8 0 0 0 .136-.2c.093-.214.21-.393.35-.521"/>
        <path fill="#070202" d="M12.346 12.514a.13.13 0 0 1-.06.047l-.015-.004a.1.1 0 0 0-.035-.01 48 48 0 0 1-1.25-.047 2 2 0 0 1-.643-.14c.268.065.525.097.775.104q.609.012 1.218.036h.003z"/>
        <path fill="#fff" d="M12.286 12.56a.2.2 0 0 0 .06-.046q.425-.269.822.015.023.015.05.01c.114-.01.257-.1.357-.153q.041-.021.029.021a.6.6 0 0 1-.19.286q-.06.056.018.036a.6.6 0 0 0 .197-.079q.134-.08.05.05c-.065.097-.14.182-.225.264a.06.06 0 0 0-.022.05 2.22 2.22 0 0 1-.403 1.508 2.06 2.06 0 0 1-2.607.678q-.056-.027.007-.032.575-.022.989-.393c.025-.021.021-.036-.014-.036a.66.66 0 0 1-.622-.425q-.014-.036.025-.035a.7.7 0 0 0 .207-.015q.092-.027 0-.05-.445-.107-.5-.617-.001-.038.029-.022c.071.036.154.05.236.05q.059.002.01-.036-.402-.315-.2-.839.018-.043.05-.01a1.83 1.83 0 0 0 1.393.56q.027 0 .022-.029a.75.75 0 0 1 .232-.71"/>
        <path fill="#070202" d="m7.747 13.543.01-.004q.007-.002.018.008l.018.028.018.046.018.058v.018q.01.052.01.107l-.003.035-.014.015H7.81z"/>
        <path fill="#D79D76" d="M16.096 14.679c.029.018.033.035.015.06a.3.3 0 0 0-.029.175q.072.682.154 1.368.033.284.035.536l-.007.536h-1.3q.056-.288.1-.565a2.4 2.4 0 0 0 .036-.482 24 24 0 0 1-.043-.864q0-.069.068-.079a.4.4 0 0 0 .132-.035 3.3 3.3 0 0 0 .836-.65z"/>
        <path fill="#070202" d="M16.107 14.74q.026.006.025.028a42 42 0 0 0 .229 2.014.93.93 0 0 1-.097.572q.007-.273.004-.536.002-.252-.036-.536l-.15-1.368q-.012-.091.025-.175"/>
        <path fill="#D79D76" d="M8.983 15.947q-.027.226-.011.435c0 .047 0 .09-.01.129a.3.3 0 0 0-.008.128q.02.092.007.19c-.018.135-.025.271-.032.403a.08.08 0 0 0 .021.054v.06l-1.214.008c-.007 0-.01-.004-.018-.011 0-.007-.007-.01-.01-.007.01-.393.096-.832.128-1.15q.036-.373.082-.757c.007-.061-.003-.111 0-.172q-.001-.037.025-.01.424.475 1.036.7z"/>
        <path fill="#070202" d="M9.49 17.35a.6.6 0 0 1-.154 0l.107-.59a.11.11 0 0 0-.046-.106l-.125-.097a.07.07 0 0 1-.029-.057q-.001-.081.058-.146l.014-.022v-.021a1.2 1.2 0 0 0-.11-.375q.289.16.146.535a.05.05 0 0 0 .014.058l.118.117c.01.011.021.026.025.043a.2.2 0 0 1 .01.108q-.026.224-.071.453c0 .021 0 .036.014.05a.2.2 0 0 1 .029.05"/>
        <path fill="#6B3325" d="M8.982 15.947a.15.15 0 0 1 .072.035q.014.01.014.036-.023.545-.06 1.064c-.004.072-.036.136-.058.204a.07.07 0 0 1-.021-.054q.005-.2.032-.403a.6.6 0 0 0-.007-.19.3.3 0 0 1 .007-.128.4.4 0 0 0 .01-.129 2.2 2.2 0 0 1 .011-.436"/>
        <path fill="#070202" d="m10.197 16.722-.525.017a.032.032 0 0 0-.029.036c0 .018.015.032.032.029l.522-.015a.04.04 0 0 0 .036-.035.03.03 0 0 0-.011-.024.03.03 0 0 0-.025-.009"/>
    </g>
</svg>
