<svg xmlns="http://www.w3.org/2000/svg" width="24" height="24" fill="none" viewBox="0 0 24 24">
    <path fill="#08883E" d="m10.974 8.3.41-1.428.41 1.428-.41 1.034z"/>
    <path fill="#E47A04" d="M20 9.333h-1.686l-1.596 2.548-1.596-2.548h-1.686l2.437 3.897-2.437 3.898h1.686l1.596-2.548 1.596 2.548H20l-2.437-3.898z"/>
    <path fill="#08883E" d="M9.744 8.103c.287.024.927.307 1.23 1.23-.188-.119-1.042-.197-1.23-1.23m3.282 0c-.287.024-.928.307-1.231 1.23.189-.119 1.042-.197 1.23-1.23"/>
    <path fill="#E47A04" d="M5.641 9.333H4v7.795h5.333v-1.641H5.641zm4.328 2.613-.193-.594a.65.65 0 0 1 .07-.554c.193-.312.435-.71.579-.956a.21.21 0 0 1 .246-.086c.307.098.615.147.713.16.095-.013.407-.062.71-.165.095-.028.205.009.246.09l.378.616-1.288.246 1.58.308c.024.11.02.23-.017.34l-.804 2.478-1.038.205.915.173-.682 2.1-1.21-3.729 1.539-.295z"/>
    <path fill="#B3B3B3" d="m9.744 16.923 1.64-.205 1.642.205-1.641.205z"/>
</svg>
