<svg xmlns="http://www.w3.org/2000/svg" width="24" height="24" fill="none" viewBox="0 0 24 24">
    <path fill="#FABB47" fill-rule="evenodd" d="M14.385 2.286c-.588 1.936.17 3.319.693 3.813.958-.725 1.38-2.018 1.531-2.975A10 10 0 0 1 22 12.004c0 2.187-.701 4.21-1.892 5.856q.028-.41.024-.86l.003-.036V15.52a.162.162 0 0 0-.323 0v.99c-1.273.204-3.67 1.493-4.422 4.908q-.509.184-1.042.313c-.943-3.436-3.317-4.39-4.525-4.422v-1.234a.161.161 0 0 0-.323 0v1.388l-.006.004.006.058q0 .015.004.029c.285 2.281 1.133 3.655 2.097 4.446C6.264 21.79 2 17.396 2 12.004 2 6.479 6.477 2 12 2c.822 0 1.62.1 2.385.286m-.219 7.73c-1.03-.442-2.787-2.135-1.63-5.378v-.912a.162.162 0 0 1 .325 0v.885c.918.557 2.412 2.377 1.305 5.405m3.739-4.844c.197 3.482-1.993 4.604-3.113 4.73-.18-3.173 1.72-4.492 2.77-4.785v-.931a.16.16 0 0 1 .226-.159.16.16 0 0 1 .098.159v.946l-.004.034zm-6.48 3.82v-.986a.162.162 0 0 0-.323 0v1.28c-.037 3.664 2.253 4.627 3.425 4.647 0-3.486-2.028-4.734-3.102-4.942m3.414 4.854c1.194-.02 3.547-1.02 3.42-4.854l.005-.039V7.861a.162.162 0 1 0-.323 0v1.044c-1.075.207-3.102 1.455-3.102 4.94m-4.081-.977v-1.005a.162.162 0 1 0-.323 0v1.188q0 .02.005.04c.164 4.328 2.905 5.292 4.266 5.231-.25-4.04-2.712-5.313-3.948-5.454m4.18 5.423c1.366.017 4.088-1.044 4.09-5.415a.2.2 0 0 0 .01-.053v-1.292a.162.162 0 0 0-.324 0v1.178c-1.227.175-3.659 1.524-3.777 5.582" clip-rule="evenodd"/>
</svg>
