<svg xmlns="http://www.w3.org/2000/svg" width="24" height="24" fill="none" viewBox="0 0 24 24">
    <path fill="#1C68F3" fill-rule="evenodd" d="M22 8v5.333H4.616c.76 3.484 3.784 6 7.384 6 2.977 0 5.643-2.082 6.875-4.666H22v5.266C22 21.075 21.105 22 20 22H4c-1.105 0-2-.925-2-2.067V8zm-5 6.667c-1.06 1.602-2.98 2.666-5 2.666s-3.94-1.064-5-2.666zM7.625 9.333c-1.567 0-2.91 1.109-3.125 2.667h1.847c.188-.6.636-1.1 1.278-1.1s1.062.5 1.25 1.1h1.875c-.215-1.558-1.558-2.667-3.125-2.667m8.75 0c-1.567 0-2.909 1.109-3.125 2.667h1.875c.187-.6.607-1.1 1.25-1.1s1.062.5 1.25 1.1H19.5c-.216-1.558-1.558-2.667-3.125-2.667M20 2c1.105 0 2 .925 2 2.067V6H2V4.067C2 2.925 2.895 2 4 2z" clip-rule="evenodd"/>
</svg>
