<svg xmlns="http://www.w3.org/2000/svg" width="24" height="24" fill="none" viewBox="0 0 24 24">
    <path fill="url(#MIMO__a)" d="M8.46 6.194h.264c.348 0 .623.18.76.285.164.122.323.275.465.439.296.316.613.75.93 1.214a30 30 0 0 1 1.109 1.796q.494-.843 1.024-1.664c.317-.475.634-.935.935-1.283.142-.17.3-.338.465-.475.132-.1.417-.312.792-.312.28 0 .501.121.612.19.132.085.259.185.37.29.216.212.454.486.697.809.491.639 1.062 1.526 1.616 2.534.2.36.396.75.591 1.146a12 12 0 0 0 1.785-.475.826.826 0 0 1 1.073.486.85.85 0 0 1-.486 1.088 13 13 0 0 1-1.67.475 16 16 0 0 1 1.136 4.146.836.836 0 0 1-1.653.18 14.7 14.7 0 0 0-1.162-4.02c-.448.07-.85.122-1.161.164l-.201.027a.83.83 0 0 1-.935-.724.84.84 0 0 1 .713-.945l.174-.021.666-.09-.328-.623a19 19 0 0 0-1.473-2.324 8 8 0 0 0-.359-.433c-.227.27-.507.66-.808 1.125a57 57 0 0 0-1.569 2.582l-.11.19a.884.884 0 0 1-1.553-.052A29 29 0 0 0 9.5 9.083q-.344-.525-.75-1.004c-.824.755-1.573 1.907-2.212 3.243.316.063.591.11.808.143.454.058.776.48.713.945a.834.834 0 0 1-.935.723 19 19 0 0 1-1.257-.232 22.3 22.3 0 0 0-1.151 4.204.834.834 0 0 1-.95.697.845.845 0 0 1-.693-.962 24 24 0 0 1 1.152-4.309L2.56 12.12a.845.845 0 0 1 .407-1.632c.496.127 1.188.302 1.9.465.825-1.816 1.944-3.601 3.38-4.61l.212-.153z"/>
    <defs>
        <linearGradient id="MIMO__a" x1="5.289" x2="12.353" y1="8.013" y2="19.796" gradientUnits="userSpaceOnUse">
            <stop stop-color="#6DF1B5"/>
            <stop offset="1" stop-color="#2DD8E0"/>
        </linearGradient>
    </defs>
</svg>
