<svg xmlns="http://www.w3.org/2000/svg" width="24" height="24" fill="none" viewBox="0 0 24 24">
    <path fill="#EFEFEF" d="M13.268 4.331c.314-.987-.533-1.587-.994-1.768-.934-.2-1.4.507-1.554.868-.52 1.654-1.668 5.11-1.908 5.924-.287 1.013.287 1.7 1.194 1.827a1.3 1.3 0 0 0 1.348-.747z"/>
    <path fill="#ED1650" d="M13.31 3.417c-.328-1-1.368-.987-1.849-.854a1.44 1.44 0 0 0-.84 1.628c.56 1.681 1.74 5.237 2.034 6.05.36 1.015 1.395 1.128 2.202.688.667-.36.593-1.027.5-1.321z"/>
    <path fill="#E5E5E5" d="M9.86 11.182c1.067.014 1.4-.867 1.427-1.367a1.45 1.45 0 0 0-1.314-1.301c-1.802-.007-5.35-.013-6.224 0-1.094.02-1.802.874-1.628 1.781.133.747.76.88 1.067.887 1.768.007 5.597-.013 6.671 0"/>
    <path fill="#CECECE" d="M7.872 15.005c.867.654 1.707.033 2.014-.36.48-.848 0-1.601-.3-1.868a582 582 0 0 0-5.303-3.883c-.901-.64-1.775-.173-2.169.667-.32.694.107 1.255.36 1.448l5.404 4.003z"/>
    <path fill="#BFBFBF" d="M5.357 19.621c-.354 1.028.487 1.641.954 1.815.954.2 1.521-.487 1.681-.854a567 567 0 0 0 2.081-6.244c.334-1.054-.373-1.748-1.294-1.868-.754-.094-1.16.487-1.267.787z"/>
    <path fill="#A8A8A8" d="M5.857 18.994c-.874.647-.527 1.628-.24 2.035.667.707 1.52.467 1.868.253 1.454-1.094 4.55-3.415 5.243-3.962.867-.68.68-1.655-.013-2.268-.567-.514-1.22-.267-1.481-.08z"/>
    <path fill="#888" d="M16.53 21.182c.874.647 1.708.02 2.015-.373.467-.854-.013-1.601-.314-1.868-1.474-1.068-4.603-3.336-5.33-3.843-.907-.634-1.78-.16-2.161.68-.32.694.113 1.255.367 1.448 1.447 1.048 4.55 3.31 5.423 3.956"/>
    <path fill="#7C7C7C" d="M16.03 20.549c.347 1.034 1.38 1 1.861.854a1.51 1.51 0 0 0 .807-1.702c-.587-1.734-1.848-5.39-2.154-6.217-.38-1.04-1.361-1.16-2.162-.687-.654.387-.62 1.087-.527 1.394z"/>
    <path fill="#6D6D6D" d="M21.273 11.136c.88-.634.547-1.621.267-2.035a1.5 1.5 0 0 0-1.868-.267c-1.468 1.068-4.59 3.356-5.29 3.896-.88.667-.7 1.648-.013 2.268.56.514 1.22.28 1.48.094 1.441-1.054 4.543-3.323 5.424-3.956"/>
    <path fill="#0A66EA" d="M20.566 11.182c1.087.014 1.414-.827 1.434-1.327a1.515 1.515 0 0 0-1.334-1.341 533 533 0 0 0-6.571 0c-1.101.013-1.535.88-1.361 1.794.14.748.827.868 1.147.874 1.788.014 5.604-.013 6.691 0z"/>
</svg>
