<svg width="24" height="24" viewBox="0 0 24 24" fill="none" xmlns="http://www.w3.org/2000/svg">
<path fill-rule="evenodd" clip-rule="evenodd" d="M2.92578 5.22738L9.4155 2.50011C10.364 2.12315 12.6705 1.59406 14.3094 2.50011C15.9481 3.40739 15.9106 4.42496 15.6875 4.82011L21.4335 6.09525L19.0771 7.35222L14.0379 6.09525L12.2433 6.80373L16.013 8.87527L12.9136 10.5577L2.92578 5.22738ZM8.76576 4.89889L10.9961 3.97951C11.2754 3.87889 11.9167 3.73708 12.2469 3.97951C12.6591 4.28133 12.4269 4.6595 12.053 4.89889C11.7542 5.09041 10.8542 5.49888 10.4422 5.6795L8.76576 4.89889Z" fill="#01D8DD"/>
<path d="M2.30273 6.27951V16.6195L4.72696 17.8661V11.7424L6.4518 15.7589L8.96936 13.5388V20.1237L12.6057 22V11.4928L9.19539 9.89162L6.88634 11.6565L4.72878 7.55162L2.30273 6.27951Z" fill="#00A3FE"/>
<path d="M21.6972 7.18919L13.2124 11.3892V13.9128L16.2426 12.4492V17.7303L13.2124 19.2151V21.7176L21.6972 17.2424V14.7613L19.273 16.1818V10.9007L21.6972 9.62802V7.18919Z" fill="#0061FE"/>
</svg>
