<svg xmlns="http://www.w3.org/2000/svg" width="24" height="24" fill="none" viewBox="0 0 24 24">
    <path fill="url(#MLN__a)" d="M13.892 5.514c-.897 0-1.622.745-1.622 1.664V12H9.027V8.762a1.081 1.081 0 1 0-2.162 0V12H4.162v-1.081a1.08 1.08 0 1 0-2.162 0V12h2.162v1.746c0 .827.606 1.497 1.352 1.497.745 0 1.35-.67 1.35-1.497V12h2.163v4.795a1.66 1.66 0 0 0 1.622 1.691c.897 0 1.621-.756 1.621-1.691V12h3.244v3.8c0 .59.486 1.065 1.08 1.065s1.082-.476 1.082-1.065V12h2.162v1.081a1.08 1.08 0 1 0 2.162 0V12h-2.162V8.605c0-.513-.487-.93-1.081-.93-.595 0-1.081.417-1.081.93V12h-2.162V7.178c0-.918-.725-1.664-1.622-1.664"/>
    <defs>
        <linearGradient id="MLN__a" x1="12" x2="12" y1="5.514" y2="18.486" gradientUnits="userSpaceOnUse">
            <stop offset=".24" stop-color="#6F4AEF"/>
            <stop offset=".66" stop-color="#01CBBF"/>
        </linearGradient>
    </defs>
</svg>
