<svg xmlns="http://www.w3.org/2000/svg" width="24" height="24" fill="none" viewBox="0 0 24 24">
    <path fill="url(#MNR__a)" d="M8.498 16.95V13.1l-3.11-3.12 2.8-2.866a.15.15 0 0 1 .205-.005l1.105.825V17.99c0 .04.015.08.05.11l1.7 1.86c.09.09.25.02.25-.105V6.274c-.06-1.826-1.13-2.276-1.735-2.276h-1.99c-.54-.02-1.07.385-1.27.59L2.387 8.724a1.94 1.94 0 0 0 0 2.325l5.8 6.001c.09.095.311.035.311-.1"/>
    <path fill="#27B4FB" d="M15.55 16.95V13.1l3.06-3.12-2.8-2.866a.15.15 0 0 0-.206-.005l-1.105.825v10.002a.15.15 0 0 1-.05.11l-1.7 1.915c-.1.09-.255.025-.255-.105V5.318l.975-1.32h3.39l4.751 4.726c.706.965.296 1.95 0 2.325l-5.8 6.001c-.09.095-.256.03-.256-.1z"/>
    <path fill="url(#MNR__b)" d="m2.032 9.52 3.635.74-.28-.28 1.486-1.521-2.05-2.18-2.436 2.45c-.2.265-.305.53-.355.79"/>
    <path fill="url(#MNR__c)" d="m4.817 6.279 2.056 2.18 1.315-1.345a.15.15 0 0 1 .205-.005l1.105.825v3.11l2 .365V6.274c-.06-1.826-1.13-2.276-1.735-2.276h-1.99c-.54-.02-1.07.385-1.27.59z"/>
    <path fill="#40B7F9" d="m11.499 11.41-2-.37v.45l2 1.97z"/>
    <path fill="url(#MNR__d)" d="m11.499 13.46-2-1.976v6.527c0 .04.02.08.05.105l1.69 1.845c.095.09.26.02.26-.105V13.45z"/>
    <path fill="#2FADF7" d="M12.498 14.25v-2.61l2 .5v4.16z"/>
    <path fill="url(#MNR__e)" d="m14.499 12.14-2-.5V5.327l.97-1.33h3.39l4.75 4.726c.706.965.296 1.95 0 2.325l-2.135 2.21-3.385-.76 2.52-2.525-2.8-2.865a.15.15 0 0 0-.205-.005l-1.105.83z"/>
    <path fill="#2EAEF7" d="M15.499 16.95c0 .13.22.195.31.1l3.67-3.795-3.385-.75-.595.585z"/>
    <path fill="#369BF3" d="m6.797 8.534-2.05-2.185.155-.16 2.05 2.185-.15.16zm-.985 1.89-3.8-.79.04-.22 3.505.735zm5.686 1.126-2-.42v-.24l2 .434zm0 2.225-2-2.276v-.305l2 2.29v.296zm3-1.485-2-.576v-.23l2 .58zm4.866 1.08-3.325-.765.185-.2 3.32.775zm-4.866 3.23-2-2.35v-.3l2 2.34z"/>
    <defs>
        <linearGradient id="MNR__a" x1="6.216" x2="7.985" y1="10.08" y2="17.759" gradientUnits="userSpaceOnUse">
            <stop stop-color="#5DD8FA"/>
            <stop offset=".39" stop-color="#39B3F6"/>
            <stop offset="1" stop-color="#29B6FE"/>
        </linearGradient>
        <linearGradient id="MNR__b" x1="18.095" x2="9.679" y1="8.903" y2="18.581" gradientUnits="userSpaceOnUse">
            <stop offset=".04" stop-color="#85AEEC"/>
            <stop offset=".48" stop-color="#7C98EC"/>
            <stop offset="1" stop-color="#569AED"/>
        </linearGradient>
        <linearGradient id="MNR__c" x1="12" x2="12.468" y1="3.999" y2="18.203" gradientUnits="userSpaceOnUse">
            <stop stop-color="#B86BF1"/>
            <stop offset=".42" stop-color="#9B73ED"/>
            <stop offset="1" stop-color="#459FF7"/>
        </linearGradient>
        <linearGradient id="MNR__d" x1="12" x2="12" y1="3.997" y2="20.001" gradientUnits="userSpaceOnUse">
            <stop stop-color="#3DBEF8"/>
            <stop offset="1" stop-color="#1EADFB"/>
        </linearGradient>
        <linearGradient id="MNR__e" x1="12" x2="9.384" y1="3.997" y2="18.296" gradientUnits="userSpaceOnUse">
            <stop stop-color="#B56DED"/>
            <stop offset=".67" stop-color="#5396F1"/>
            <stop offset="1" stop-color="#3DA3F2"/>
        </linearGradient>
    </defs>
</svg>
