<svg xmlns="http://www.w3.org/2000/svg" width="25" height="24" fill="none" viewBox="0 0 25 24">
    <path fill="url(#MNR__a)" d="M9.698 15.96v-3.08L7.21 10.383l2.24-2.292a.12.12 0 0 1 .164-.004l.884.66v8.046c0 .032.013.064.04.088l1.36 1.488c.073.072.2.016.2-.084V7.419c-.047-1.46-.904-1.82-1.388-1.82H9.119c-.432-.016-.856.308-1.016.472L4.81 9.379a1.55 1.55 0 0 0 0 1.86l4.64 4.801c.072.076.248.028.248-.08"/>
    <path fill="#27B4FB" d="M15.34 15.96v-3.08l2.448-2.497-2.24-2.292a.12.12 0 0 0-.165-.004l-.884.66v8.001a.12.12 0 0 1-.04.088l-1.36 1.532c-.08.072-.204.02-.204-.084V6.654l.78-1.056h2.713l3.8 3.78a1.55 1.55 0 0 1 0 1.861l-4.64 4.8c-.072.077-.205.025-.205-.08z"/>
    <path fill="url(#MNR__b)" d="m4.525 10.016 2.909.592-.224-.224 1.188-1.216-1.64-1.745-1.949 1.96a1.5 1.5 0 0 0-.284.633"/>
    <path fill="url(#MNR__c)" d="m6.754 7.423 1.644 1.744L9.45 8.091a.12.12 0 0 1 .164-.004l.884.66v2.489l1.6.292V7.419c-.047-1.46-.903-1.82-1.387-1.82H9.118c-.432-.016-.856.308-1.016.472z"/>
    <path fill="#40B7F9" d="m12.099 11.527-1.6-.296v.36l1.6 1.576z"/>
    <path fill="url(#MNR__d)" d="m12.099 13.168-1.6-1.58v5.22a.11.11 0 0 0 .04.084l1.352 1.477c.076.072.208.016.208-.084V13.16z"/>
    <path fill="#2FADF7" d="M12.898 13.799V11.71l1.6.4v3.33z"/>
    <path fill="url(#MNR__e)" d="m14.499 12.111-1.6-.4V6.662l.776-1.064h2.712l3.8 3.78a1.55 1.55 0 0 1 0 1.861l-1.708 1.768-2.708-.608 2.016-2.02-2.24-2.292a.12.12 0 0 0-.164-.004l-.884.664z"/>
    <path fill="#2EAEF7" d="M15.3 15.96c0 .104.175.155.247.08l2.937-3.037-2.709-.6-.476.468z"/>
    <path fill="#369BF3" d="m8.338 9.226-1.64-1.748.124-.128 1.64 1.748-.12.128zm-.788 1.512-3.04-.632.031-.176 2.805.588zm4.549.9-1.6-.336v-.192l1.6.348zm0 1.78-1.6-1.82v-.244l1.6 1.833v.236zm2.4-1.188-1.6-.46v-.184l1.6.464zm3.893.865-2.66-.613.147-.16 2.656.62zm-3.893 2.584-1.6-1.88v-.24l1.6 1.872z"/>
    <defs>
        <linearGradient id="MNR__a" x1="7.873" x2="9.288" y1="10.464" y2="16.607" gradientUnits="userSpaceOnUse">
            <stop stop-color="#5DD8FA"/>
            <stop offset=".39" stop-color="#39B3F6"/>
            <stop offset="1" stop-color="#29B6FE"/>
        </linearGradient>
        <linearGradient id="MNR__b" x1="17.376" x2="10.643" y1="9.523" y2="17.265" gradientUnits="userSpaceOnUse">
            <stop offset=".04" stop-color="#85AEEC"/>
            <stop offset=".48" stop-color="#7C98EC"/>
            <stop offset="1" stop-color="#569AED"/>
        </linearGradient>
        <linearGradient id="MNR__c" x1="12.5" x2="12.874" y1="5.599" y2="16.962" gradientUnits="userSpaceOnUse">
            <stop stop-color="#B86BF1"/>
            <stop offset=".42" stop-color="#9B73ED"/>
            <stop offset="1" stop-color="#459FF7"/>
        </linearGradient>
        <linearGradient id="MNR__d" x1="12.5" x2="12.5" y1="5.598" y2="18.401" gradientUnits="userSpaceOnUse">
            <stop stop-color="#3DBEF8"/>
            <stop offset="1" stop-color="#1EADFB"/>
        </linearGradient>
        <linearGradient id="MNR__e" x1="12.5" x2="10.407" y1="5.598" y2="17.036" gradientUnits="userSpaceOnUse">
            <stop stop-color="#B56DED"/>
            <stop offset=".67" stop-color="#5396F1"/>
            <stop offset="1" stop-color="#3DA3F2"/>
        </linearGradient>
    </defs>
</svg>
