<svg xmlns="http://www.w3.org/2000/svg" width="24" height="24" fill="none" viewBox="0 0 24 24">
    <path fill="#F2DB5A" d="M11.629 2h.723c2.015.075 3.961.751 5.588 1.941-.644.261-1.2.703-1.6 1.27a.03.03 0 0 1-.023-.005 3.5 3.5 0 0 0-.877-.588 7 7 0 0 0-2.117-.589q-.75-.087-1.2-.07a12 12 0 0 0-.977.1c-.288.041-.53.094-.735.17l-.612.2c-.088.03-.147.089-.235.095-.247.017-.488.017-.73.058q-1.092.168-2.105.724c-.153.082-.324.112-.489.159a.8.8 0 0 1-.34.017 1.04 1.04 0 0 1-.83-.676c.2-.206.43-.412.694-.63a9.96 9.96 0 0 1 5.1-2.1A16 16 0 0 1 11.629 2"/>
    <path fill="#010101" d="M5.07 4.806q.24.581.824.676a.9.9 0 0 0 .353-.017c.158-.047.33-.077.482-.16a6.4 6.4 0 0 1 2.106-.723c.241-.04.482-.04.723-.058.095 0 .153-.065.236-.095.211-.058.411-.129.617-.2q.359-.125.736-.176.554-.07.976-.094.45-.019 1.2.076a7 7 0 0 1 2.118.583c.33.147.633.345.9.588a.03.03 0 0 0 .023-.006c.412-.57.936-.994 1.577-1.259.194-.053.417-.076.488.147l.088.33c.03.294.036.564.006.835-.023.276-.147 1.394-.53 1.412a.8.8 0 0 1-.246-.018c-.094-.023-.183-.023-.27-.059a.24.24 0 0 0-.101-.012q-.104.027-.006.071c.977.447 1.588 1.47 1.965 2.435.447 1.147.7 2.406.812 3.63q.123 1.323.106 2.594c-.006.247-.036.482-.042.723-.017.4-.058.8-.088 1.206-.012.106-.053.212-.035.324 0 .011.012.03.023.035l.118.082c.253.042.482-.035.694-.211a1.7 1.7 0 0 0 .453-.583.15.15 0 0 1 .047-.058c.03-.018.059-.018.083.011a.09.09 0 0 1 .03.076 4.37 4.37 0 0 1-.984 2.254 1.9 1.9 0 0 1-.788.553 1.23 1.23 0 0 1-1.211-.23 2.35 2.35 0 0 1-.671-.912 4.9 4.9 0 0 1-.353-2.411q.045-.558.176-1.1.009-.046-.017-.012c-.059.059-.088.147-.147.212a6.6 6.6 0 0 1-2.918 2.053q-.364.128-.741.2l-.012.023v.118q.002.034.03.04c.464.183.688.29.705.83.03.73.171 1.47.383 2.147.041.13.141.389.312.765l-.236.077-.194-.46a.04.04 0 0 0-.053-.024.04.04 0 0 0-.017.013l-.706.718a2.2 2.2 0 0 1-.506.111c-.07 0-.077-.011-.018-.047a3.8 3.8 0 0 0 1.135-1.058.14.14 0 0 0 .012-.124 3 3 0 0 1-.1-.365q-.007-.07-.059-.017a5.6 5.6 0 0 1-1.735 1.5c-.141.088-.288.17-.441.235h-.588a5.9 5.9 0 0 0 2.559-1.841c.117-.153.188-.306.147-.483a5.8 5.8 0 0 1-.136-1.176q-.002-.414-.412-.512c-.017 0-.029 0-.023.024.024.13.206.323.059.435q-.153.12-.294.253a569 569 0 0 1-3.341 3.165l-.218-.03q.063-.175-.024-.253a.6.6 0 0 0-.453-.159c-.147 0-.311.06-.488.171l-.247-.076c.159-.148.335-.242.53-.294a.82.82 0 0 1 .882.247c.006.011.018.011.023 0l.894-1.942a.45.45 0 0 0 .042-.294q-.002-.034-.03 0c-.182.347-.417.706-.735.941q-.451.336-.853.73l-.007-.001-.005-.004-.004-.006-.002-.007v-.006c.1-.147.212-.282.306-.435l.247-.4c.21-.352.368-.733.471-1.13a5.66 5.66 0 0 1-3.106.742 3.56 3.56 0 0 1-2.17-.812 1.7 1.7 0 0 1-.3-.324 1.94 1.94 0 0 1-.453-1.317 2.8 2.8 0 0 1 .6-1.865c.176-.235.376-.47.588-.706a.1.1 0 0 0 .03-.07 6 6 0 0 0-.042-1.024.07.07 0 0 0-.024-.041 2 2 0 0 1-.517-.8q-.01-.036-.03 0a1.34 1.34 0 0 0-.176.582.9.9 0 0 1-.088.3c-.024.047-.06.06-.106.03a2.3 2.3 0 0 1-.812-1.094v.005a.25.25 0 0 0-.03.136c.03.312.048.647.13.953.03.117.012.117-.059.023-.094-.141-.217-.264-.306-.412a7 7 0 0 1-.423-.811 2.5 2.5 0 0 1-.194-.618 6.3 6.3 0 0 1-.018-1.882 7 7 0 0 0-.4 1.276c-.118.565-.176 1.424.294 1.812q.089.07.053.176l-.012.03q-.027.095-.117.041a.95.95 0 0 1-.353-.418 2.2 2.2 0 0 1-.183-.976 6.2 6.2 0 0 1 .953-2.87c.094-.154.177-.318.265-.495a7.05 7.05 0 0 1 2.347-2.747q.061-.045-.018-.035c-.494.041-.9-.306-1.123-.735a1.7 1.7 0 0 1-.153-.66c0-.552.188-1.017.553-1.4a1.6 1.6 0 0 1 1.106-.493c.065 0 .112.03.13.094l.023.053c.03.07 0 .106-.077.1a1.37 1.37 0 0 0-1.235.7c-.17.282-.259.57-.276.859 0 .176.035.364.117.582"/>
    <path fill="#A31B1F" d="M17 6.212c-.041-.318-.177-.63-.47-.788a.024.024 0 0 1-.018-.036c.36-.53.864-.948 1.452-1.206a.6.6 0 0 1 .171-.047c.059-.011.088.018.1.07.118.648.082 1.3-.118 1.966a.8.8 0 0 1-.13.24.07.07 0 0 1-.07.03l-.853-.165a.08.08 0 0 1-.058-.058z"/>
    <path fill="#F2EBD8" d="M15.012 10.63a.1.1 0 0 1-.077-.036c-.011-.018-.03-.018-.047 0-.04.035-.088.065-.094.13a1 1 0 0 1-.059.282l-.235.612-.612 1.176a2.8 2.8 0 0 1-.423.553c-.141.147-.33.235-.494.359a.01.01 0 0 1-.008.006h-.01a.01.01 0 0 1-.006-.008 13 13 0 0 0 .177-1.886v-1.5l-.018-.353-.035-.365c-.03-.424-.112-.965-.247-1.612-.042-.212-.118-.423-.189-.63a2.5 2.5 0 0 0-.388-.723c-.03-.04-.07-.053-.117-.03l-.018.018q-.081.09-.012.195c.218.323.359.682.459 1.07.184.756.29 1.529.318 2.306.011.335.035.665.035.988 0 1.037-.098 2.07-.294 3.089-.07.364-.177.688-.27 1.029q-.055.16-.048-.006c0-.424.059-.847.03-1.27l-.036-.66c0-.217-.035-.435-.059-.646A15.9 15.9 0 0 0 9.895 5.7q-.046-.07-.118-.035a.1.1 0 0 0-.03.011q-.087.09-.023.177a15.4 15.4 0 0 1 2.135 5.77c.088.553.147 1.03.176 1.442.018.253.053.511.053.764v1.036l-.017.329-.03.341c-.088.924-.24 1.724-.465 2.4a6.6 6.6 0 0 1-.764 1.6.2.2 0 0 1-.077.065c-.017.012-.023 0-.017-.018.176-.459.323-.94.423-1.435.163-.76.262-1.534.294-2.312.042-.388 0-.776.036-1.164a2 2 0 0 0 0-.295c-.041-.376.006-.753-.036-1.135a3 3 0 0 1-.023-.4c0-.117-.036-.23-.041-.347v-.141A19 19 0 0 0 11 10.04c-.178-.806-.442-1.641-.848-2.365-.035-.058-.088-.082-.153-.053l-.018.006a.09.09 0 0 0-.06.093.1.1 0 0 0 .013.037c.365.685.634 1.418.8 2.176a18 18 0 0 1 .383 2.236c.011.111.006.217.03.323l.01.135q.009.266.042.547a1 1 0 0 1 0 .271q0 .036-.035.018a1.8 1.8 0 0 1-.453-.36 3.3 3.3 0 0 1-.741-1.276q-.018-.054-.07-.029l-.101.047q-.036.025-.03.059c.071.37.277.735.507 1.023.011.018.011.024-.012.012a.4.4 0 0 1-.118-.07c-.565-.489-.965-1.324-1.223-2.03a12.2 12.2 0 0 1-.606-2.335 18 18 0 0 1-.136-1.035c-.023-.248-.011-.471-.029-.706-.018-.206 0-.406.018-.612v-.018l-.012-.017a.04.04 0 0 0-.035 0 6.3 6.3 0 0 0-1.165 1.811 10.7 10.7 0 0 0-.777 2.894q-.078.72-.029 1.442l.041.353c0 .029-.006.035-.03.023a2.28 2.28 0 0 1-1.376-1.635c-.294-1.241.247-2.588 1.024-3.57.03-.036.03-.065.006-.107a.12.12 0 0 0-.06-.047.13.13 0 0 0-.158.042c-.351.443-.631.94-.83 1.47-.064.17-.135.335-.223.5a6.5 6.5 0 0 0-.706 2.906c-.006.118.012.235.03.353.023.147 0 .153-.07.03a3.5 3.5 0 0 1-.448-1.707c0-.423.035-.835.147-1.247a6.84 6.84 0 0 1 5.194-4.782l.706-.094c.106-.012.288.047.365.006a4.2 4.2 0 0 1 1.535-.488c.188-.024.377-.053.565-.06a8.4 8.4 0 0 1 2.159.177q.857.187 1.582.577c.188.106.376.247.553.417q.027.029 0 .047a2.7 2.7 0 0 0-.447.424q-.017.027-.041 0a1.2 1.2 0 0 0-.612-.253 2.56 2.56 0 0 0-1.835.353.12.12 0 0 0-.06.094c-.011.176.013.33.066.47.211.53.564.977 1.029 1.295q.159.106.353.117a.06.06 0 0 0 .04-.023c.083-.088.166-.177.26-.253l.765-.665.023.006.009.01.003.014c-.035.211-.1.411-.188.588a5.6 5.6 0 0 1-1.589 1.918c-.14.105-.294.182-.453.264q-.045.027-.011.07l.088.1c.023.024.053.03.082.018.118-.058.224-.117.324-.194a6.2 6.2 0 0 0 1.647-1.853q.063-.105.047.018c-.047.306-.083.624-.106.941a5 5 0 0 1-.041.418c-.024.188-.012.37-.024.559-.04.53-.047 1.017-.023 1.47q.046.86.117 1.718.083.809.312 1.588c.059.182.135.359.247.524.006.012.024.017.041.017.112-.023.236-.023.389 0q.176.034.352.024.098.001.089-.094a4 4 0 0 0-.1-.536q-.036-.104.07-.111c.232-.027.467-.013.695.04q.026 0 .017.036a3.2 3.2 0 0 1-.67.97 6.5 6.5 0 0 1-2.665 1.648.12.12 0 0 1-.13-.036l-.352-.411a.077.077 0 0 1 .024-.118.1.1 0 0 1 .04-.012c.253.006.606-.211.765-.353a2.4 2.4 0 0 0 .818-1.788q.001-.266-.094-.559c-.253-.717-.942-.94-1.571-.564-.03.011-.035.005-.03-.024.012-.059.071-.1.112-.147.059-.07.1-.141.124-.224a.1.1 0 0 1 .03-.04.1.1 0 0 0 .029-.077q0-.028.017-.047c.059-.065.088-.118.106-.141.17-.324.365-.648.488-.977l.265-.647c.047-.106.035-.212.053-.317q.001-.047-.041-.048"/>
    <path fill="#F2DB5A" d="M18.518 4.418A10.04 10.04 0 0 1 22 11.677v.676a10.25 10.25 0 0 1-1.606 5.082l-.159.236-.117-.077a.05.05 0 0 1-.03-.035c-.017-.112.024-.218.036-.324.03-.406.07-.806.088-1.206.006-.235.035-.476.041-.723a24 24 0 0 0-.106-2.588c-.111-1.236-.364-2.488-.811-3.636-.383-.964-.989-1.988-1.965-2.435-.059-.03-.059-.047 0-.065a.24.24 0 0 1 .106.012c.088.03.176.03.27.059q.107.018.241.018c.389-.024.512-1.142.542-1.418a3.8 3.8 0 0 0-.012-.835"/>
    <path fill="#fff" d="M10.683 4.794a2 2 0 0 1 1.07 1.188c.006.036 0 .06-.035.077l-.117.047c-.036.018-.06 0-.071-.03a1.93 1.93 0 0 0-.665-.905c-.159-.118-.353-.189-.53-.289a.1.1 0 0 1-.029-.029q-.018-.069.024-.077a.6.6 0 0 1 .353.018"/>
    <path fill="#F2DB5A" d="M4.882 4.97c.224.43.63.777 1.124.736.059-.006.059.006.018.035A7.05 7.05 0 0 0 3.67 8.488a4 4 0 0 1-.26.494 6.2 6.2 0 0 0-.952 2.87 2.24 2.24 0 0 0 .176.977c.07.16.194.294.365.412.059.041.094.03.118-.035v-.03A.15.15 0 0 0 3.07 13c-.471-.388-.412-1.247-.295-1.812q.142-.656.412-1.27l-.035.264c-.012.089-.024.177-.024.26-.023.47-.017.9.06 1.352q.059.318.2.618.202.45.423.811c.088.147.212.271.306.412.07.1.088.088.058-.023-.082-.306-.094-.641-.129-.953a.24.24 0 0 1 .03-.141h.005v.005c.17.412.43.86.806 1.089.047.03.083.017.106-.03a.9.9 0 0 0 .088-.3c.012-.2.077-.394.177-.588q.019-.028.03.006.157.457.517.8l.023.041c.042.335.06.677.042 1.024a.1.1 0 0 1-.024.064c-.218.236-.412.47-.594.712a2.8 2.8 0 0 0-.594 1.865c-.02.48.14.949.447 1.317.088.124.188.236.306.324.611.504 1.373.79 2.164.812a5.66 5.66 0 0 0 3.118-.73c-.108.394-.27.77-.482 1.118l-.247.4c-.094.153-.206.288-.306.435a.02.02 0 0 0 0 .018h.017c.018 0 .03 0 .042-.018.258-.259.529-.488.811-.706.318-.235.553-.594.736-.94.017-.024.023-.024.03 0a.5.5 0 0 1-.042.293l-.894 1.942q-.01.016-.03 0a.82.82 0 0 0-.882-.247 1.26 1.26 0 0 0-.523.294 10 10 0 0 1-6.865-8.46L2 12.489v-.93l.07-.71a10.06 10.06 0 0 1 2.812-5.883z"/>
    <path fill="#A31B1F" d="M16.43 5.63c.188.123.341.37.335.605 0 .018-.006.03-.018.047a.68.68 0 0 1-.47.247c-.159.012-.294-.2-.341-.323q-.09-.212.088-.335l.37-.253q.02 0 .036.011m-.66.97-1.187 1.035a.11.11 0 0 1-.136.012 2.56 2.56 0 0 1-1.023-1.282.3.3 0 0 1 0-.177q0-.025.018-.04a1 1 0 0 1 .282-.177c.565-.218 1.106-.236 1.63-.042a.4.4 0 0 1 .246.247c.047.13.118.26.218.377q.026.027-.012.035h-.017z"/>
    <path fill="#F2EBD8" d="M16.518 6.894a13.8 13.8 0 0 1 .676 3.953q.034.722-.03 1.612a7.8 7.8 0 0 1-.276 1.565c-.018.058-.035.058-.041 0-.07-.489-.118-.942-.153-1.342a15 15 0 0 0-.094-.994q-.081-.615-.1-1.235-.001-.28-.03-.553c-.035-.347-.047-.694-.082-1.035-.03-.236 0-.47-.035-.718a7 7 0 0 1-.047-1.3c0-.03.011-.047.035-.059.059-.047.1-.041.13.006.023.03.035.065.046.1"/>
    <path fill="#F2EBD8" d="M18.8 11.624c0 .047.03.064.076.058l.094-.017c.06-.012.083-.041.07-.1a10.3 10.3 0 0 0-.981-3.377 4.5 4.5 0 0 0-.86-1.312c-.058-.058-.052-.064.024-.035.565.235.983.67 1.312 1.188a8.3 8.3 0 0 1 1 2.47c.296 1.216.452 2.462.465 3.713v1.44c0 .271-.053.524-.047.783 0 .118-.077.177-.077.283 0 .129 0 .258-.018.382a2.4 2.4 0 0 0-.029.376q0 .152.088.26.159.193.441.193c.277 0 .495-.111.706-.276q.09-.07.053.035c-.253.706-.676 1.494-1.364 1.777-.565.235-1.083-.071-1.4-.536a3.1 3.1 0 0 1-.471-1.106 5.4 5.4 0 0 1 .03-2.576q.035-.15.035-.282c0-.118.012-.236.03-.341.104-.766.143-1.54.117-2.312-.018-.224 0-.447-.018-.677-.1-1.294-.306-2.547-.741-3.753a8 8 0 0 0-.353-.811q-.113-.204.047-.036c.218.224.4.47.553.747.551 1 .939 2.083 1.147 3.206.041.206.059.418.07.636"/>
    <path fill="#FBE6D5" d="m8 9.276.1-.105a.065.065 0 0 0 .012-.077.9.9 0 0 0-.318-.306c-.306-.176-.588-.17-.865.024-.058.035-.07.023-.047-.041l.3-.765c.141-.33.347-.647.618-.965.012-.012.023-.012.023.012l.106.482a4 4 0 0 1 .083.47c.113.974.336 1.931.664 2.854.25.8.681 1.533 1.26 2.14q.282.267.664.348c.018 0 .035.012.047.024q.222.22.506.352a.12.12 0 0 1 .07.1l.03.371c0 .335 0 .67-.018 1.024l-.035.629c0 .182-.041.582-.112 1.188-.047.465-.141.959-.27 1.477a.15.15 0 0 1-.071.1 5.35 5.35 0 0 1-3.412.788 3.4 3.4 0 0 1-1.288-.4 2.14 2.14 0 0 1-1.13-1.523 2 2 0 0 1-.011-.483c.062-.63.326-1.225.753-1.694l.4-.47c.07-.083.082-.218.082-.318a17 17 0 0 1-.018-.783c0-.276-.035-.54-.04-.823 0-.024.011-.035.04-.024l.212.065a.105.105 0 0 0 .135-.07 12 12 0 0 1-.064-.46c-.053-.305-.03-.617-.035-.935q.001-.238.029-.517c.076-.647.206-1.294.406-1.93 0-.03.017-.035.041-.023l.047.023a.13.13 0 0 0 .13-.017c.323-.247.747-.095.917.247.018.035.035.035.059.011"/>
    <path fill="#A31B1F" d="M15.882 8.03c.03-.295.077-.554.13-.76.035-.123.058-.117.07 0l-.012.071v.07c.012.383.053.754.06 1.136.01.353.052.706.076 1.059.029.412.07.794.082 1.241.012.341.047.741.118 1.2.058.453.064.93.117 1.4.06.512.124 1 .194 1.482 0 .024-.006.03-.03.03-.105 0-.21 0-.323-.012q-.104-.001-.147-.118a5.4 5.4 0 0 1-.323-1.2 24 24 0 0 1-.135-1.14c-.018-.213-.018-.424-.042-.636l-.017-.265v-1.476q-.001-.21.023-.43c.024-.2.012-.4.036-.611q.062-.52.117-1.042z"/>
    <path fill="#fff" d="M6.077 7.894c-.142.353-.153.688-.024.741.13.047.353-.2.494-.553s.147-.688.018-.74c-.13-.054-.347.2-.488.552m5.44-.218c.048-.105.218-.14.283-.017.147.265.235.517.276.747.018.094.042.306-.052.376-.141.112-.353-.017-.4-.17a4 4 0 0 1-.142-.56.63.63 0 0 1 .036-.376m1.836.795a.09.09 0 0 1-.118-.06l-.029-.093a2 2 0 0 1-.088-.436c-.012-.123.011-.2.053-.211l.053-.018c.04-.012.1.035.164.141.065.1.13.247.183.406l.03.1a.1.1 0 0 1-.007.068.1.1 0 0 1-.053.044z"/>
    <path fill="#A31B1F" d="M17.083 7.882q.317.854.494 1.753c.175.858.274 1.73.294 2.606q.033 1-.082 1.994a.05.05 0 0 1-.03.024h-.023a3 3 0 0 0-.648-.036v-.029c.053-.241.13-.482.177-.73q.113-.6.147-1.235l.018-.535a17 17 0 0 0-.142-2.506 30 30 0 0 0-.235-1.353q-.002-.016.006-.006z"/>
    <path fill="#fff" d="M8.911 8.724a1.6 1.6 0 0 1-.03-.783.06.06 0 0 1 .048-.059l.117-.017a.06.06 0 0 1 .065.03q.203.43.247.905c.012.153.047.259-.041.4a.08.08 0 0 1-.106.026.1.1 0 0 1-.03-.026c-.105-.153-.217-.294-.27-.476m.653-.077a.012.012 0 0 1 .012-.012l.023-.006a.2.2 0 0 1 .077 0c.03 0 .059.012.076.03a.2.2 0 0 1 .059.059.2.2 0 0 1 .041.088l.012.03a.26.26 0 0 1-.012.176.2.2 0 0 1-.117.106l-.03.006-.006.001-.006-.002-.005-.005v-.006l-.124-.459zm5.724.159a.05.05 0 0 1 .04.047c0 .1-.017.194-.046.294a3.6 3.6 0 0 1-.589 1.13c-.223.282-.523.576-.876.67a.3.3 0 0 1-.2-.017c-.112-.048-.1-.165-.035-.242a.06.06 0 0 1 .058-.017c.247.082.489-.147.647-.312.405-.4.69-.906.824-1.459.018-.076.112-.106.176-.094"/>
    <path fill="#010101" d="M7.112 10.194c.036-.07.094-.094.177-.082a.04.04 0 0 1 .035.023c.024.06.03.106 0 .147a.7.7 0 0 0-.035.577.1.1 0 0 1-.006.088l-.083.118-.013.01-.016.001-.016-.002-.013-.01c-.177-.276-.177-.576-.03-.87m1.288 3.07a3 3 0 0 1-.029-.458c0-.194-.023-.377-.047-.57a3.3 3.3 0 0 0-.235-.936c-.047-.112-.206-.353-.36-.306a.47.47 0 0 0-.264.206l-.265.382q-.14-.002-.164-.082-.009-.017 0-.041c.123-.294.306-.565.606-.677a.34.34 0 0 1 .223-.006c.412.136.524.636.612 1q.106.394.13.8c.1.106.27.036.317-.088a.06.06 0 0 1 .059-.035h.141q.063-.001.047.059-.123.387-.53.335h-.016a.036.036 0 0 0-.024.04l.029.26a.04.04 0 0 1-.024.035z"/>
    <path fill="#fff" d="M15.065 10.97c0-.064.03-.1.088-.117h.03c.064-.018.1.012.1.076.016.29-.024.58-.118.853a3.2 3.2 0 0 1-.547 1.03.4.4 0 0 1-.13.1.08.08 0 0 1-.094-.012.1.1 0 0 1-.017-.03c-.06-.117.152-.311.217-.405.059-.083.106-.177.153-.27q.197-.46.294-.854c.024-.117.03-.235.024-.37M8.4 13.266l-.059.376a3.04 3.04 0 0 1-.482 1.347.3.3 0 0 1-.065.065 1.7 1.7 0 0 1-.4.212.74.74 0 0 0 .188-.294q.158-.528.236-1.206c.023-.271.012-.53.03-.8a.6.6 0 0 0-.071-.318.12.12 0 0 0-.124-.059.14.14 0 0 1-.118-.024c-.07-.058-.094-.117-.064-.2.047-.147.153-.288.1-.458a.04.04 0 0 0-.011-.019.04.04 0 0 0-.019-.01c-.082-.018-.147.023-.188.135a4 4 0 0 0-.206.705 2.4 2.4 0 0 1-.012-.67c.042-.241.06-.4.065-.47l.265-.377a.47.47 0 0 1 .265-.206c.152-.047.311.194.353.306q.195.476.24.941c.018.188.048.37.048.565 0 .153.006.306.03.459"/>
    <path fill="#010101" d="M7.394 15.265q-.196-.028-.241-.153a1.8 1.8 0 0 1-.1-.565 9.4 9.4 0 0 1 .094-1.83c.035-.188.1-.417.206-.705.041-.112.106-.153.188-.136.018.006.024.018.03.03.058.176-.053.312-.1.459-.03.082 0 .147.07.2q.05.033.112.023a.12.12 0 0 1 .118.059.6.6 0 0 1 .076.318c-.018.264 0 .529-.035.8a7 7 0 0 1-.224 1.206.8.8 0 0 1-.194.294"/>
    <path fill="#fff" d="M18.665 16.241c.023.353.106.724.218 1.053.064.2.17.388.305.565q.205.264.47.264c.09 0 .142.042.171.118l.006.03c.03.076 0 .117-.076.117-.659 0-.977-.582-1.13-1.135a6 6 0 0 1-.194-.882 11.2 11.2 0 0 1 .236-3.56c.023-.117.064-.34.235-.293a.094.094 0 0 1 .059.105 11.8 11.8 0 0 0-.306 3.624z"/>
    <path fill="#A31B1F" d="M7.547 14.035a5.4 5.4 0 0 1-.165.812q-.018.07-.053 0a.4.4 0 0 1-.03-.118 7 7 0 0 1-.011-1.094c.018-.223.106-.37.247-.53.059-.058.082-.046.082.036l-.017.218c-.024.153-.006.312-.03.47z"/>
    <path fill="#FBE6D5" d="m12.912 17.235-1.118.824c.16-.553.289-1.088.371-1.612.03-.153.065-.288.118-.4l.188-.447c.165-.359.259-.77.353-1.153a.4.4 0 0 0 .012-.13q0-.087.07-.052a.7.7 0 0 0 .253.064.07.07 0 0 0 .053-.017l.106-.141c.318-.547 1.088-1.118 1.659-.589.241.218.353.683.312 1-.06.5-.242.924-.548 1.283-.258.294-.611.511-1.011.511a.2.2 0 0 1-.118-.035.04.04 0 0 0-.024 0 .04.04 0 0 0-.023.006z"/>
    <path fill="#010101" d="M14.018 14.106a.6.6 0 0 0-.171.159c-.065.1-.147.235-.136.364q.018.31.318.406a.14.14 0 0 0 .136-.018.04.04 0 0 1 .023-.007.04.04 0 0 1 .023.008l.06.052c.07.089.088.195.058.33-.047.218-.2.394-.447.523h-.017l-.012-.005-.136-.189q-.016-.015.012-.023c.212-.03.353-.177.4-.453.006-.03 0-.041-.03-.047-.64-.059-.829-.7-.352-1.118.082-.059.206-.106.27.018"/>
    <path fill="#EDB8A0" d="m14.27 15.07-.058-.046a.04.04 0 0 0-.047 0 .15.15 0 0 1-.136.011.43.43 0 0 1-.317-.412c-.012-.117.07-.258.135-.358a.7.7 0 0 1 .17-.16 1 1 0 0 1 .353-.017q.238.027.253.247c.018.33-.1.57-.352.735"/>
    <path fill="#FFBDAD" d="M10.488 15.294q.177.353-.018.635c-.165.253-.453.494-.764.536-.148.023-.283.058-.43.058-.394 0-.635-.276-.659-.658-.011-.189-.047-.348.053-.518a.6.6 0 0 1 .153-.176c.365-.306.794-.412 1.277-.324.164.03.317.312.388.453z"/>
    <path fill="#F2DB5A" d="M18.553 19.488q.001.06-.041.094a9.9 9.9 0 0 1-3.212 1.86 8 8 0 0 1-.312-.765 8.4 8.4 0 0 1-.382-2.148c-.018-.54-.241-.647-.706-.823a.04.04 0 0 1-.03-.041v-.138l.007-.013.01-.01.013-.004q.459-.087.724-.182c1.147-.412 2.164-1.106 2.917-2.053.06-.065.088-.147.147-.212q.026-.034.024.012l-.07.306a7 7 0 0 0-.118 1.582c.04.588.135 1.088.358 1.624.153.352.371.664.671.911"/>
    <path fill="#EDB8A0" d="m11.788 18.059 1.118-.824.694-.547q.028-.025.03.012v.859c.005.176.058.423.146.73 0 .017 0 .028-.017.046l-2.194 2.07-.006.002-.006-.001-.006-.006c-.018-.377-.012-.782-.041-1.177a1.6 1.6 0 0 1 0-.411c.03-.136.117-.383.282-.753"/>
    <path fill="#010101" d="m6.4 17.841.012-.106c0-.023.018-.03.041-.03.3.007.547-.105.741-.352.06-.059.06-.141.106-.212a.1.1 0 0 1 .065-.041.3.3 0 0 0 .1-.041q.027-.018.035.017c.1.471-.617.942-1.035.853a.083.083 0 0 1-.065-.088"/>
    <path fill="#28407E" d="M11.794 22H11.5l-1.147-.135L13.7 18.7c.088-.082.182-.17.294-.253.141-.118-.041-.306-.059-.435-.011-.018 0-.024.018-.024.27.065.412.236.412.506q.01.62.135 1.177c.041.182-.035.335-.147.488A5.9 5.9 0 0 1 11.794 22m3.265-.482a5.6 5.6 0 0 1-.959.247l.706-.718a.04.04 0 0 1 .035-.01.04.04 0 0 1 .03.022z"/>
    <path fill="#A31B1F" d="m10.136 21.835-.965-.24q.266-.169.488-.177.267-.001.453.164.087.078.024.253"/>
</svg>
