<svg xmlns="http://www.w3.org/2000/svg" width="24" height="24" fill="none" viewBox="0 0 24 24">
    <path fill="url(#MVI__a)" d="M17.455 2a1.819 1.819 0 1 0 0 3.637 1.819 1.819 0 0 0 0-3.637m-12.86 8.182c0-.83 3.314-1.515 7.405-1.515s7.406.685 7.406 1.515c0 .836-3.709 1.515-7.406 1.515-3.709 0-7.406-.667-7.406-1.515m-2.292.303s0 2.424 9.697 2.424 9.697-2.424 9.697-2.424c0 2.485-2.29 7.721-3.709 8.618-.727.46-.94-.351-1.164-1.23-.212-.825-.442-1.703-1.127-1.66-.703.048-1.273 1.472-1.842 2.902C13.279 20.558 12.703 22 12 22s-1.273-1.455-1.842-2.897c-.582-1.467-1.152-2.927-1.867-2.885-.673.049-.909.91-1.115 1.71-.23.866-.436 1.654-1.176 1.181-1.4-.897-3.697-6.127-3.697-8.624"/>
    <defs>
        <linearGradient id="MVI__a" x1="18.265" x2="5.534" y1="4.239" y2="19.294" gradientUnits="userSpaceOnUse">
            <stop stop-color="#3AFCE7"/>
            <stop offset="1" stop-color="#FC5CDD"/>
        </linearGradient>
    </defs>
</svg>
