<svg xmlns="http://www.w3.org/2000/svg" width="24" height="24" fill="none" viewBox="0 0 24 24">
    <path fill="url(#MWC__a)" d="M17.703 7.202a547 547 0 0 1 3.994 3.999q.277.285.3.73c.025.37-.105.7-.385.979a503 503 0 0 0-3.619 3.634c-.48.485-1.04.605-1.65.25a5 5 0 0 1-.26-.23l-3.184-3.2c-.494-.499-1.014-.559-1.564-.189-.22.15-.44.41-.65.61q-1.383 1.376-2.75 2.77-.359.366-.724.419c-.69.1-.985-.215-1.435-.67a363 363 0 0 0-3.379-3.399 1.2 1.2 0 0 1-.39-.765c-.05-.515.16-.815.52-1.174l3.64-3.644c.07-.07.164-.12.25-.18.664-.315 1.134-.07 1.624.424q1.56 1.588 3.139 3.155a1.2 1.2 0 0 0 1.69-.045l3.254-3.274c.454-.45.98-.52 1.574-.2z"/>
    <defs>
        <linearGradient id="MWC__a" x1="2" x2="22" y1="12" y2="12" gradientUnits="userSpaceOnUse">
            <stop stop-color="#3B00CA"/>
            <stop offset="1" stop-color="#9A00E6"/>
        </linearGradient>
    </defs>
</svg>
