<svg xmlns="http://www.w3.org/2000/svg" width="24" height="24" fill="none" viewBox="0 0 24 24">
    <path fill="#fff" d="M21.996 2v9.496c-.013 2.78-.936 5.521-2.987 7.58a9.956 9.956 0 0 1-14.095 0A10 10 0 0 1 10.61 2.122 14 14 0 0 1 12.377 2zm-.645.645h-8.974c-.548-.026-1.122.058-1.677.13a9.34 9.34 0 0 0-5.322 15.83 9.287 9.287 0 0 0 13.16 0c1.954-1.955 2.8-4.478 2.813-7.11z"/>
    <path fill="url(#NEBO__a)" d="M19.95 14.58a8.348 8.348 0 0 1-13.508 3.605l2.432-2.438c2.838 2.451 7.599 1.935 11.076-1.168M9.416 4.063c-3.11 3.451-3.62 8.193-1.194 11.031l-2.438 2.439A8.334 8.334 0 0 1 9.416 4.058zm10.947 4.238c.006-.006 0 .007 0 0v4.458a8 8 0 0 1-.639.71c-3.148 3.154-7.612 3.76-10.186 1.606l2.755-2.755c1.516.968 4.348.058 6.612-2.206l.2-.2c.22-.232.432-.477.62-.716l.102-.129h.007l.02-.032.038-.045.02-.026a9 9 0 0 0 .457-.671zm-4.735-4.65q-.367.233-.735.515l-.117.097q-.367.29-.716.62l-.206.193c-2.258 2.258-3.167 5.083-2.213 6.606l-2.748 2.741C6.765 11.851 7.377 7.412 10.52 4.271c.194-.2.722-.632.722-.632zm4.76-.02v2.355c-.114.4-.267.79-.457 1.16a8 8 0 0 1-.89 1.388c-.194.245-.394.49-.613.722l-.2.2a8.2 8.2 0 0 1-3.464 2.161c-.994.278-1.755.161-2.161-.245-.4-.4-.517-1.161-.24-2.161a8.25 8.25 0 0 1 2.162-3.464l.2-.194a9.2 9.2 0 0 1 2.11-1.503c.335-.167.67-.31.993-.413h.013l2.56-.006z"/>
    <defs>
        <linearGradient id="NEBO__a" x1="19.563" x2="5.849" y1="4.232" y2="18.372" gradientUnits="userSpaceOnUse">
            <stop stop-color="#49FDFF"/>
            <stop offset="1" stop-color="#00AFAD"/>
        </linearGradient>
    </defs>
</svg>
