<svg xmlns="http://www.w3.org/2000/svg" width="24" height="24" fill="none" viewBox="0 0 24 24">
    <path fill="#fff" d="M8.473 16.013c.167-.232.325-.452.514-.667-2.276.571-3.844 1.766-3.844 3.149q0 .078.007.154.334-.131.709-.322c1.504-.768 2.094-1.59 2.614-2.314m2.371 2.543c.455-.634.849-1.181 1.96-1.748 1.111-.568 1.768-.558 2.528-.546.51.009 1.06.017 1.73-.132-.818-.457-2.16-.802-3.348-.987l-1.809 1.318-.823-.802c-.857.6-1.296 1.21-1.695 1.765-.455.634-.848 1.18-1.96 1.748-.779.398-1.334.512-1.86.54.415.571 1.112 1.073 2.004 1.458q.312-.125.658-.301c1.505-.768 2.094-1.589 2.616-2.313m6.887-1.642c-.869-.014-1.854-.03-3.358.739-1.504.768-2.094 1.59-2.614 2.314-.456.633-.849 1.18-1.96 1.748l-.148.074a13 13 0 0 0 2.865.201c.278-.306.495-.607.7-.891.454-.634.848-1.182 1.96-1.749 1.11-.568 1.767-.557 2.527-.545.35.006.72.012 1.133-.033q.022-.137.022-.276c0-.568-.264-1.103-.733-1.578q-.194 0-.394-.004m-2.982 4.792c1.797-.402 3.19-1.187 3.789-2.152-.514.097-1.098.285-1.794.64-.97.496-1.56 1.013-1.995 1.512"/>
    <path fill="url(#NFTX__a)" d="m12 2-7.714 8L12 17.429l7.714-7.43z"/>
    <path fill="url(#NFTX__b)" d="M12 10H4.286L12 2z"/>
    <defs>
        <linearGradient id="NFTX__a" x1="15.718" x2="6.6" y1="7.291" y2="14.178" gradientUnits="userSpaceOnUse">
            <stop offset=".09" stop-color="#FF6D41"/>
            <stop offset=".5" stop-color="#FA297F"/>
            <stop offset="1" stop-color="#FA297F"/>
        </linearGradient>
        <linearGradient id="NFTX__b" x1="13.735" x2="6.393" y1="4.168" y2="11.355" gradientUnits="userSpaceOnUse">
            <stop stop-color="#652CB4"/>
            <stop offset=".07" stop-color="#652CB4" stop-opacity=".82"/>
            <stop offset=".19" stop-color="#652CB4" stop-opacity=".53"/>
            <stop offset=".3" stop-color="#652CB4" stop-opacity=".3"/>
            <stop offset=".4" stop-color="#652CB4" stop-opacity=".14"/>
            <stop offset=".49" stop-color="#652CB4" stop-opacity=".04"/>
            <stop offset=".55" stop-color="#652CB4" stop-opacity="0"/>
        </linearGradient>
    </defs>
</svg>
