<svg xmlns="http://www.w3.org/2000/svg" width="24" height="24" fill="none" viewBox="0 0 24 24">
    <path fill="#fff" d="M8.826 15.612c.15-.209.292-.407.463-.6-2.05.513-3.46 1.589-3.46 2.833q0 .07.006.14.3-.12.638-.29c1.354-.692 1.884-1.431 2.353-2.083M10.96 17.9c.41-.57.763-1.063 1.764-1.573 1-.511 1.59-.502 2.275-.49.46.007.953.015 1.557-.12-.736-.411-1.944-.722-3.013-.888l-1.628 1.186-.74-.722c-.772.54-1.167 1.09-1.526 1.588-.41.57-.764 1.063-1.764 1.574-.702.358-1.202.46-1.674.486.373.514 1 .965 1.803 1.312q.282-.112.592-.271c1.354-.69 1.885-1.43 2.354-2.082m6.198-1.477c-.782-.013-1.669-.027-3.022.664-1.354.692-1.884 1.431-2.353 2.083-.41.57-.764 1.063-1.764 1.574l-.133.066a11.6 11.6 0 0 0 2.578.181c.25-.275.446-.546.63-.802.41-.57.764-1.064 1.764-1.574s1.591-.501 2.275-.49c.315.005.648.01 1.02-.03q.02-.124.019-.249c0-.51-.238-.993-.66-1.42zm-2.684 4.313c1.617-.362 2.872-1.069 3.41-1.938-.462.088-.988.257-1.614.577-.873.446-1.404.912-1.796 1.36"/>
    <path fill="url(#NFTX__a)" d="m12 3-6.943 7.2L12 16.886l6.943-6.686z"/>
    <path fill="url(#NFTX__b)" d="M12 10.2H5.057L12 3z"/>
    <defs>
        <linearGradient id="NFTX__a" x1="15.346" x2="7.139" y1="7.762" y2="13.96" gradientUnits="userSpaceOnUse">
            <stop offset=".09" stop-color="#FF6D41"/>
            <stop offset=".5" stop-color="#FA297F"/>
            <stop offset="1" stop-color="#FA297F"/>
        </linearGradient>
        <linearGradient id="NFTX__b" x1="13.561" x2="6.954" y1="4.951" y2="11.42" gradientUnits="userSpaceOnUse">
            <stop stop-color="#652CB4"/>
            <stop offset=".07" stop-color="#652CB4" stop-opacity=".82"/>
            <stop offset=".19" stop-color="#652CB4" stop-opacity=".53"/>
            <stop offset=".3" stop-color="#652CB4" stop-opacity=".3"/>
            <stop offset=".4" stop-color="#652CB4" stop-opacity=".14"/>
            <stop offset=".49" stop-color="#652CB4" stop-opacity=".04"/>
            <stop offset=".55" stop-color="#652CB4" stop-opacity="0"/>
        </linearGradient>
    </defs>
</svg>
