<svg xmlns="http://www.w3.org/2000/svg" width="24" height="24" fill="none" viewBox="0 0 24 24">
    <path fill="#722D14" fill-rule="evenodd" d="m14.61 7.789.567 1.217-.511.427c-.312.317-.067.24-.334.495l-.622-.078c-.2-.406.2-.228-.389-.389-.878-.028-1.378-.389-2.211-.128-.2.067-.7.34-.844.39-.412.127-.456-.04-.867.016l-.189.583c.244-.189.2-.144.356-.35l.455.122-.011.095h.533c.378.178-.089.389.861-.222.75.366 2.434-.084 2.484 1.21.422 1.584.489-.427.455 1.056.656 1.25.722-1.066 0 .595.133 0 .567.022.69-.022.6-.223.3-.517.755-.528-.045-.556 1.2-1.484 1.144-2.184 0-.144-.311-1.705-.489-2.21-.989-.167-.089-.095-.855-.317-.523-.145-.545-.211-1.067-.123.089.223.033.134.089.345" clip-rule="evenodd"/>
    <path fill="#B99548" d="m15.01 18.072-1.389-.305-.266-.123-.167-.066c.2-.523.49-.184.49-.822l-.768-.067c-.155.683-.066.539.212.966-.156-.055-.19-.066-.356-.139l-.322-.2c.289-.122.055.145.255-.26.156-.323.1-.417.1-.462-.777-.3-.788.184-.566.756-.434.166-.79.011-1.134-.011.167-.484.19-.372.067-.867-.7.206-.522.428-.311.956h-.344c-.034.25-.167.133.066.36.934-.088 1.411-.277 2.345 0l.877.25c.411.345-.022.673-.166.834l-.245.445c.667.172 1.245.555 1.5 1.25l.156.133.41.011-.188.539c-.522.417-.811.283-1.144.444-.278.145-.056-.005-.256.2.444 0 .9.078 1.322-.1a5.5 5.5 0 0 0 .811-.533c.8-.778-.044-.989.045-2.056.1-1.222.255-2.238 1.089-2.755.3-.189.55-.339.539-.694-.428-.195-.162-.173-.54.01-.233.123-.144.212-.41.278.033-.628.31-1.45.088-1.844-.555-.011-.455.111-.51.622-.19 1.517-.29 1.022-.312 3.044-.355.167-.766.667-.977.206"/>
    <path fill="#8F332C" d="M10.799 3.056c-.711-.417-1.656.116-2.589.15-.267.5-.222.344-.556.627-.188.167-.344.517-.51.334l-.156-.05c.066.41.144.672.166 1.166.512-.166.167 0 .545-.294.889-.706 1.689-.933 2.711-.461l.511.172.078.033a5 5 0 0 0-.311.45c.377.256.444.156.178.667.122.156.055-.083.077.211.011.211 0 0-.022.222-.022.228-.044.184-.022.517l.222-.617c.133-.339.122-.144.211-.494l.178-.922c.389.11.811-.228 1.1.36.845-.055.711-.483.944-.138.567-.2 2.123-.333 2.378-.883-1.578-1.362-1.989-.934-3.455-1.173l-.49-.044c-.266-.206-.088-.35-.621-.133-.378.166-.256.2-.567.3"/>
    <path fill="#573928" d="M10.788 21.833c0-.366-.056-.322-.256-.61-.2-.295-.21-.056-.11-.479-1.867-.31-1.6-1.75-.079-1.427l.178-.134c.49-.239.69-.2.79-.833-.256-.134-1.99-.145-1.879-.35l-1.2.461c-.41-.517-.777-1.989-.9-2.778-.133-.816-.044-.772-.422-.989l-.033.428c-.467.122-.045-.166-.422.25.9.406 1.01 3.55.755 4.667-.533 2.305 3.389 1.744 3.578 1.789z"/>
    <path fill="#271914" d="M16.432 7.917c-.189.344.244.389-.233.277l.233 1.373-.178.116c-.01.011-.044.034-.044.045l-.078.089-.033.044-.167.189-.067.044-.255.15c-.045-.888.078-.416-.267-.472l.011.65c.167 1.856.311 2 .422 1.878s.19-.517 1.1-.256l.884.167c.633.044.089.044.177-.011l-.277-1.756c.044-.022.078-.066.089-.044l.533-.211c-.089-.417-.222-.383-.211-.722.278-.056.044.055.144-.19-.455-.405-.066-.205-.333-.933l-.65-.438-.256.46v.056c0-.01 0 .034.012.045 0-.55.01-.528-.556-.55m-9.278-.695c-.01.378-.244.356-.478.611-.544-.166-.41-.189-1.122-.333l.19.394c.077.267-.012 1.362-.29 1.317-.066.278-.066.345-.21.561.721 1.045.332 1.406.355 1.845.155.144 1.455.244 1.755.244.167-1.067.29-.722 1.022-1.444-.01-2.556.112-2.028-.488-3.056.555.017.066.028.266-.089l-.333-.089c-.433.195-.1.156-.667.045z"/>
    <path fill="#573928" d="M9.465 6.983c.322.278.233-.022.289.278-.389.045-.911 1.167-1.322 1.545.155-.362.244-.284-.311-.656-.578.556-.39.472-.3.856-.156.122-.09.066-.211-.067.01.033.066.2.066.222l.011.072c.1.717-.177-.094.067.423.356.766.167-.528.467.444l-.278.278c-.078.089-1.111.583-1.233.955-.056.178-.023.195-.056.395-.3 0-.489.01-.644-.134-.278.39-.323.406-.3.878.166-.022.833-.316 1.055-.405l.245-.095c.377.24.844.633 1.11.79.112-.179.545-1.168.778-1.556.245-.412.223-.2.256-.706-.933.128-.333-.683-.244-.828l.177-.26c.411-.529-.133-.45.59-.756-.456-.178-.012-.856.444-1.934-.3.284-.345.261-.467.24-.022 0-.078.044-.089.01s-.067 0-.1.011"/>
    <path fill="#786757" d="m11.343 18.239-.989 1.089.4.777c-.178.35-.2.212-.333.65-.1.428-.09.173.11.484.19.283.256.25.256.6l.334-.034c.4-.383.289-.372.289-.71.044-.667.155-.045.322-.834l.167.278c.188.31.266.333.255.622.167.067 1.089.139 1.222.139.423.011.39.133.834.078.566-.067.71-.261.833-.667l-.156-.133c0 .01-.977-.122-1.4-.528l-.1-.722.245-.445c-.634-.26.11-.15-1.378.156.611-1.295-.311-1.095-.911-.8"/>
    <path fill="#372718" d="M9.432 18.011c-.222.417-.133.128-.522.461.022 0 .867-.378 1.467.172-.034-.283-.145-.277.066-.305 0 0 0 .022.134.1.078.044.189.094.289.139l.322.155c.311-.066.189.134.267-.178l.133.078c.4-.033-.2-.044.356-.172-.078.689.066-.011.122.361.022.15 0 .195-.011.222 0 .006-.145.223-.167.295 1.489-.311 1.1-.717 1.744-.445.156-.16.578-.488.167-.833l-.939-.383c-3.511-.461-1.322-.106-3.428.333"/>
    <path fill="#AE2917" d="M13.31 7.039c.189.444.244.267.178.878-.967.344-.8.36-1.367-.195-.122.328-.011.111-.189.295-.378.405-.966.46-1.255.177-.223-.355-.012-.722.077-1.044l-.489-.044c-.222.8-.288.844-.466 1.527.71-.022.5-.21.789-.022.644.417 1.655.811 2.544.35.411-.333.711-.35 1.211-.483.123-.528-.2-.967-.4-1.428l-.033-.183c-.7.016-.222-.156-.6.172"/>
    <path fill="#EB8E73" d="M10.121 6.722C9.788 7.5 9.388 7.817 9.1 8.49l.578.167c-.722.305-.178.222-.59.755l-.177.261c-.089.156-.7.956.245.828l.055-.178.189-.583c.422-.045.467.111.867-.022.144-.045.644-.317.844-.384.834-.26 1.333.09 2.211.134l-.444-.2.244-.306c-.366.189-2.122-.078-2.544-.35-.29-.189-.078 0-.79.022.234-.877.368-.36.612-.605-.311-.122-.467.222-.144-.922l.488.055.145-.389c-.033-.328-.011-.278.022-.51.022-.212.033-.012.022-.223-.022-.295.045-.045-.077-.206l-.412.89z"/>
    <path fill="#370B07" d="M11.343 5.667c1.355-.012 1.089.294 1.966 1.372.378-.317-.088-.156.59-.172-.1-.906-.9-.795.155-1.445 1.222-.744.689-.055 1.833.156l-.422-.528c-.344-.361-.833-.444-1.322-.328-.311.078-.423.267-.3.406l-.267-.167c-.122-.905.067-.172-.8-.117-.056-.122-.089-.555-.1-.594-.155 0-.433.011-.678-.011-.533-.067-.2-.022-.5-.15-.366.405-.022.028-.21.489z"/>
    <path fill="#B99548" d="M5.71 12.472c-.023-.483.022-.489.3-.878.044-.372.133-.472 0-.8l-.345-.555-.133-.2c-.1-.145-.111-.134-.19-.267.145-.222.156-.172.223-.444.289.039.1.039.478.139-.033-.317-.178-.934-.09-1.178l.245-.261-.455-.122c0 .75-.122.66-.445 1.1-.522.71-.81 2.6-.088 3.238.144.1.31.278.5.228"/>
    <path fill="#463619" d="m12.143 21.15-.733-.078-.412.228c.19.11.145.2.134.483.155.178-.378.133.433.111.511-.01.133-.194.7.023.49.188.556 0 1.589-.012.211-.205-.022-.055.256-.194.333-.178.622-.034 1.144-.45l.189-.539-.411-.011c-.122.406-.289.317-.867.383-.455.056-.378.045-.8.034-.133 0-1.055.1-1.222.022"/>
    <path fill="#90150D" d="m13.577 4.956.266.166c-.122-.144-.01-.333.3-.41a1.35 1.35 0 0 1 1.322.332l.423.523c.466.033.4.022.733.166.256.111.289.123.461.461.289-.21.072.056.167-.372a4.4 4.4 0 0 0-.661-1.55c-.178-.278-.167-.25-.445-.333l-.233.072c-.2.428-.411.195-.622.195-.19 0-.367.01-.567.022-.867.055-.6-.184-.7-.172-.133.555.267.644-.444.9"/>
    <path fill="#C79949" d="M17.943 12.2c.85.394 1.35-.283 1.272-1.222-.033-.411-.6-1.25-.711-1.356-.211-.21-.089-.189-.411-.155-.011.339.122.294.21.722l-.532.21c-.012-.021-.045.023-.09.045l.267 1.756z"/>
    <path fill="#B0B0AB" d="M10.466 2.211c-.278.867.156.333.3.911.3-.1.222-.21.589-.366.533-.228.355-.073.622.133l.5.044c.567.1 1.267.417 1.556.261.144-.072-.034-.444.044-.677-.256-.111-.2-.111-.433-.19-.134-.044-.445-.11-.445-.11-.366-.117-.055-.128-.7-.195L10.79 2c-.512.1-.234-.1-.323.211"/>
    <path fill="#F1CE90" d="m13.121 8.95-.244.306.444.2c.59.155.2-.023.39.388l.621.073c.256-.25.023-.167.334-.495l.51-.428-.566-1.222c-.21-.25-.278-.566-.678-.744.2.46.523.9.4 1.428-.51.155-.8.166-1.21.494"/>
    <path fill="#B78837" d="M10.31 20.767c-.255-.034-.7 0-.933-.067l-.556-.278c-.544-.278.178.345-.189-.111l.734-.8c.433-.194.344-.183.31-.444l.345-.017c-.3-.733-.933-.139-1.2-.045-.155.056-1.022.111-.755.956.144.472.522.833.978.989.71.244 1.133.278 1.266-.183"/>
    <path fill="#D8C688" d="M6.91 14.706c.378.227.178.194.311 1.005.134.794.6 2.244 1.011 2.761l1.2-.461.956-.2c-.089-.089-.044-.067-.189-.189a.8.8 0 0 0-.189-.094l-.378.222c-.333-.139-1.133.3-1.4.511-.089-.5-.277-.444-.4-.933-.077-.334-.089-.834-.11-1.184-.034-.45-.156-.816-.167-1.21-.012-.529.122-.69-.212-1.117-.777.094-.388.405-.433.889"/>
    <path fill="#E6C779" d="m10.31 20.767.111-.023c.134-.444.156-.3.334-.65l-.4-.777-.334-.278-.344.01c.033.268.122.256-.311.45l-.733.818c.366.46-.356-.167.188.11l.556.273c.244.078.678.033.933.067"/>
    <path fill="#E8D898" d="M14.877 20.578c-.256-.69-.822-1.078-1.5-1.25l-.545.655.2.428c.278.528.312.628 1.19.483.577-.083.588-.127.655-.316"/>
    <path fill="#D0534A" d="M9.899 2.606c-.278.26-.323.416-.722.444l-.523.083c-.244.034-.166 0-.444.073.244.21.3-.328.155.4-.033.022-.177.072-.188.094-.267.233-.045-.128-.2.267l1.81-.045-.066-.339c-.056-.5-.122-.089.067-.427l.31.166.012-.05c.678-.539.233-.328.444.334 0-.134-.066-.134.211-.067l.034-.461c-.2-.75-.356-.156-.333-.845.144-.255.11-.033-.123-.177-.255.177-.055-.045-.289.25-.11.122-.1.133-.155.3"/>
    <path fill="#CAA659" d="M6.01 6.072c-.267.178-.09.022-.278.267-.012.011-.19.372-.2.372-.145.417-.112.445.022.789.71.156.566.361 1.11.528l.279-.284.144-.21c.011-.034.067-.123.067-.306-.2-.167-.422-.245-.578-.322.133-.49.389-.406.311-.845-.067-.328.033-.055-.144-.25-.134.195-.067.172-.178.339-.133.189-.045.078-.211.222l-.456.406c.3-.428.178-.245.111-.706"/>
    <path fill="#90746C" d="M8.165 7.278c-.2.133.289.11-.267.089.045.31.134.322.1.616 0 .022-.055.1-.077.134.11-.595.077-.462-.478-.35.133.388.055.116.2.272l.2.21c-.067.406-.089.295-.233.7.122.134.055.19.21.068-.088-.39-.277-.295.3-.856.556.361.467.294.312.656.41-.39.933-1.512 1.322-1.556.011-.472-.067-.222-.289-.278-.967.528-.667.1-1.3.3z"/>
    <path fill="#D8B976" d="m17.26 7.906.644.444c.255.722-.122.522.333.928.078-.25.034-1.24-.01-1.59-.079-.516-.512-.866-.545-1.277-.378.2-.09-.117-.156.211-.122.55.256.517-.328.956l.056.333z"/>
    <path fill="#B5AC93" d="m13.932 2.833.111.428c.478.389 1.356.311 1.467.761h.389l.233-.066-.033-.3a2.1 2.1 0 0 1-.956-.6c-.355-.345.345-.1-.666-.406l-.2-.067-.245-.077-.1.333z"/>
    <path fill="#494329" d="M15.01 18.072c0-.222.078-.317.111-.711-.5-.033-.278.145-.444-.333-.511.166-.178-.111-.467.266l-.544-.538c0 .638-.29.3-.49.822l.168.066.266.123z"/>
    <path fill="#ECEEE8" d="M7.143 4.167c.167.183.322-.167.511-.334.322-.283.29-.122.556-.627.278-.084.21-.04.444-.073l.522-.077c.39-.045.434-.19.723-.45.189-.256.089-.034.155-.428-.755.205-.6.183-.866.778-.023-.19.033-.278.1-.473a3.4 3.4 0 0 0-2.145 1.678z"/>
    <path fill="#E6C779" d="m11.143 10.889.634.028c.044-.528.01-.845-.378-1.034-.589.39-.5.473-.567.778.034.022.067.022.078.078 0-.011.233.155.233.155zm-.95 5.867-.633-.023c-.044.528-.011.845.378 1.034.594-.39.5-.473.572-.778-.033-.022-.067-.022-.078-.078 0 .011-.239-.155-.239-.155m-1.072.455-.633-.022c-.045.528-.011.844.378 1.027.588-.383.5-.472.566-.777-.033-.022-.066-.022-.078-.078 0 .011-.233-.15-.233-.15m3.639-.711-.633-.017c-.045.528-.011.845.377 1.034.59-.39.5-.473.567-.778-.033-.028-.067-.028-.078-.083 0 .01-.233-.15-.233-.15zm2.05.656-.633-.023c-.045.528-.011.85.377 1.034.59-.384.5-.473.567-.778-.033-.022-.066-.022-.078-.078 0 .011-.233-.155-.233-.155"/>
    <path fill="#E8D589" d="M10.455 10.833c.178-.255.223-.394.09-.716h-.534l-.045.739zm3.823.39c.177-.25.222-.39.088-.712h-.533l-.044.739.489-.022zm.677.982c.178-.25.222-.394.09-.71h-.534l-.045.733z"/>
    <path fill="#8F332C" d="m11.243 17.25.644-.133c.034-.623-.022-.545-.655-.634z"/>
    <path fill="#ECEEE8" d="m11.41 21.083.733.078c.012-.289-.066-.311-.255-.628l-.167-.277c-.166.783-.277.144-.31.827"/>
    <path fill="#D8C688" d="M12.31 9.839c-.21.278-.2.339-.255.8l.6-.056c.067-.439.11-.733-.345-.744m-3.166.339c-.211.277-.2.344-.256.805l.6-.055c.067-.445.111-.74-.344-.75m4.05-.178c-.211.278-.2.339-.256.8l.6-.056c.067-.438.111-.733-.344-.744"/>
</svg>
