<svg xmlns="http://www.w3.org/2000/svg" width="24" height="24" fill="none" viewBox="0 0 24 24">
    <path fill="#00A0FF" d="M4.063 12.995a8.006 8.006 0 0 1 15.362-4.003h-.88a2.65 2.65 0 0 0-1.862.75l-3.678 3.753V9.392c0-.8-.65-1.391-1.336-1.401-.325 0-.66.11-.936.37L5.745 12.79a.74.74 0 0 1-.51.206z"/>
    <path fill="#80CFFF" d="M12.004 20a8.007 8.007 0 0 0 7.931-9.007h-1.39a.73.73 0 0 0-.521.216l-4.754 4.403a1.332 1.332 0 0 1-2.266-.966v-3.943l-3.948 3.713c-.496.465-1.151.575-1.827.575h-.65c1.19 2.943 4.123 5.01 7.425 5.01"/>
</svg>
