<svg xmlns="http://www.w3.org/2000/svg" width="24" height="24" fill="none" viewBox="0 0 24 24">
    <path fill="url(#OM__a)" fill-rule="evenodd" d="m3.875 10.125.417.4-.417.396-.417-.396zm-.346 1.52c.192.184.5.184.692 0l1.112-1.103.417.312v3.021h-.417v-2.62l-.696.653c-.208.2-.487.3-.762.3s-.554-.1-.763-.3l-.695-.658v2.625H2v-3.02l.417-.313zm2.43 2.23 1.362-3.333h.612l1.359 3.333h-.459l-.35-.833H6.792l-.359.833zm1.65-2.917-.68 1.667h1.409l-.705-1.667zM12 13.162h-.025l-1.983-2.62H9.5v3.333h.417v-2.7h.029L12 13.871l.417.004v-3.333H12zm.833-2.208v-.412h2.917v.416H14.5v2.917h-.417v-2.917h-1.25zm3.334-.412h1.412c.709 0 1.088.383 1.088.916v.067c0 .5-.23.633-.492.708v.03c.3.012.492.183.492.608v1.004h-.417v-.954c0-.296-.325-.296-.583-.296h-1.084v1.25h-.416zm2.5 3.333 1.362-3.333h.613L22 13.875h-.458l-.35-.833H19.5l-.358.833zm-2.084-1.667h.934c.416 0 .733-.32.733-.625 0-.304-.304-.625-.75-.625h-.917zm3.055.417.679-1.667h.025l.704 1.667z" clip-rule="evenodd"/>
    <defs>
        <linearGradient id="OM__a" x1="2" x2="22" y1="12" y2="12" gradientUnits="userSpaceOnUse">
            <stop stop-color="#FFB298"/>
            <stop offset="1" stop-color="#FE95CE"/>
        </linearGradient>
    </defs>
</svg>
