<svg xmlns="http://www.w3.org/2000/svg" width="24" height="24" fill="none" viewBox="0 0 24 24">
    <path fill="url(#OMMI__a)" d="M13.434 4.708a7.34 7.34 0 0 1 5.349 2.964l1.367-.995a9.03 9.03 0 0 0-6.716-3.656zm-6.16.225a9 9 0 0 0 2.172 15.395l.579-1.586A7.313 7.313 0 0 1 8.338 6.238l-1.07-1.305zm6.891 14.265.281 1.665a9 9 0 0 0 5.557-3.353l-1.242-1.153a7.34 7.34 0 0 1-4.596 2.84"/>
    <path fill="url(#OMMI__b)" d="M10.61 6.375a1.69 1.69 0 0 0 1.693-1.688A1.69 1.69 0 0 0 10.61 3a1.69 1.69 0 0 0-1.693 1.687 1.69 1.69 0 0 0 1.693 1.688"/>
    <path fill="url(#OMMI__c)" d="M8.917 13.125c.625 0 1.13-.504 1.13-1.125s-.505-1.125-1.13-1.125-1.13.504-1.13 1.125.506 1.125 1.13 1.125"/>
    <path fill="url(#OMMI__d)" d="M12 21c.78 0 1.412-.63 1.412-1.406 0-.777-.632-1.407-1.412-1.407s-1.412.63-1.412 1.407A1.41 1.41 0 0 0 12 21"/>
    <path fill="url(#OMMI__e)" d="M15.262 14.385a3.38 3.38 0 0 1-5.36-.754l-1.688.394a5.08 5.08 0 0 0 8.246 1.552zm.168-4.59a3.38 3.38 0 0 0-5.495.518H8.079a5.08 5.08 0 0 1 8.628-1.632z"/>
    <defs>
        <linearGradient id="OMMI__a" x1="17.101" x2="7.151" y1="5.529" y2="19.946" gradientUnits="userSpaceOnUse">
            <stop stop-color="#3AD02C"/>
            <stop offset=".28" stop-color="#3DD22D"/>
            <stop offset=".59" stop-color="#79D41C"/>
            <stop offset="1" stop-color="#C9D505"/>
        </linearGradient>
        <linearGradient id="OMMI__b" x1="17.442" x2="8.345" y1="7.5" y2="17.106" gradientUnits="userSpaceOnUse">
            <stop stop-color="#233D1A"/>
            <stop offset="1" stop-color="#2BD009"/>
        </linearGradient>
        <linearGradient id="OMMI__c" x1="18.123" x2="5.167" y1="9.75" y2="17.545" gradientUnits="userSpaceOnUse">
            <stop stop-color="#A7A710"/>
            <stop offset="1" stop-color="#162C00"/>
        </linearGradient>
        <linearGradient id="OMMI__d" x1="20.15" x2="7.098" y1="13.8" y2="13.8" gradientUnits="userSpaceOnUse">
            <stop stop-color="#489722"/>
            <stop offset="1" stop-color="#516D3A"/>
        </linearGradient>
        <linearGradient id="OMMI__e" x1="10.61" x2="14.823" y1="8.344" y2="15.667" gradientUnits="userSpaceOnUse">
            <stop stop-color="#47D12D"/>
            <stop offset=".45" stop-color="#C8D65E" stop-opacity=".59"/>
            <stop offset=".74" stop-color="#51CE32"/>
            <stop offset="1" stop-color="#BFD30F"/>
        </linearGradient>
    </defs>
</svg>
