<svg xmlns="http://www.w3.org/2000/svg" width="24" height="24" fill="none" viewBox="0 0 24 24">
    <path fill="url(#OMNOM__a)" d="M16.422 6.779c-.26.018-.52-.022-.761-.117l1.827 2.6c.34.478 1.584 1.289 1.784 1.366.205.073.055-.244.1-.683.055-.439.077-.355.46-1.094.378-.745.89-2.872.756-3.367-.122-.5-.378-.794-1.516-.405-1.145.389-2.322 1.655-2.65 1.705z"/>
    <path fill="#845521" d="M17.161 7.1c-.172.245-.377.262-.583.35l.311.456c.05 0 .15-.044.195-.177.055-.167.15-.228.3-.362.15-.127.155-.266.433-.566.278-.306.805-1.033.861-1.061-.917.51-1.344 1.122-1.517 1.36"/>
    <path fill="#3D2719" d="M18.132 8.3c-.167.156-.433.079-.689.056.25.3.75.911.778.934.028.027.078-.267.411-.473s.411-.516.756-1.06c.35-.545.072-.212.039-.19-.028.023-.612-.066-.795-.122-.194-.055-.094.022-.333.172-.239.156.078.14.094.35.017.212-.094.184-.26.334"/>
    <path fill="#B9995E" d="M18.055 7.384c-.312.311-.373.4-.478.356-.767-.34.372-.684 1.01-1.517.645-.833.234-.594-.055-.455-.3.138-.883.877-1.2 1.077s-.36.317-.655.4-.261-.294 0-.31c.26-.012.955-.8 1.555-1.306.606-.5.99-.484 1.472-.517.484-.028.261.156.311.267.045.11-.05.444-.255.677s-.445.412-.945.734c-.494.333-.455.283-.76.594"/>
    <path fill="url(#OMNOM__b)" d="M4.012 17.24c-.078.416-.417.644-.434.816l.434 1.305c.11.883 1.76 2.639 7.45 2.639 7.115 0 8.638-2.655 8.832-3.166.2-.517.122-1.35.122-2.034s-.317-.683-.51-1.25c-.2-.572.194-.989.388-1.477.2-.5-.072-1.461-.195-2.184-.116-.722-.65-1.61-1.6-2.333-.944-.722-1.5-1.71-2.155-2.3-.65-.583-.989-.833-1.26-.905-.279-.078-1.606-.211-1.862-.439-.255-.222-.51-.222-.81-.211a9.6 9.6 0 0 1-1.879-.356c-.51-.155-1.577.584-1.977.795-.39.21-2.15.927-2.667 1.122-.51.189-1.977 2.578-2.31 3.166-.334.59-.123 1.65-.123 2.79 0 1.138-.078 1.138 0 1.632.083.49.4 1.29.556 1.65.16.361.077.323 0 .74"/>
    <path fill="#C4BC95" d="M15.877 16.223c.472-.906-1.234-4.678-1.611-4.906-.806-.633-2.556-.91-3.078-.772-.522.139-2.416 1.183-2.844 1.411-.428.222-.711.317-1.039.772-.333.456-.856 3.089-.806 3.772.045.684.667 2.317 1.134 2.778.477.45 1.989.539 3.555.361 1.561-.183 1.611-.911 3.078-1.683 1.466-.778 1.139-.817 1.61-1.728z"/>
    <path fill="#DCB972" d="M11.189 6.112c.422.167.972 1.622 1.072 1.872.139.1.467.272.65.167.228-.122.911-.872 1.755-.961.845-.095 1.695.794 2.378 1.5.388.388.661.876.789 1.41.311 1.4.889 4.295.716 4.684-.21.483-1.644 2.138-3.055 2.544-1.416.406-2.589-.622-2.655-.406-.061.223-1.69 3.056-3.772 2.59-2.084-.467-1.511-2.9-1.89-3.634-.371-.733-.582.778-1.266 1.044-.683.267-.566.534-1.25-.483-.683-1.016-.36-.777-.422-1.31-.066-.534-.489-.845-.572-1-.067-.123.028-1.728.083-2.512 0 0 .017-.816.223-1.31.216-.5.816-1.345 1.177-1.878.356-.528.684-.762 1.722-1.245 1.04-.489 2.111-.922 2.311-1.078.195-.155 1.578-.172 2 0z"/>
    <path fill="#E7D9AA" d="M4.073 12.973c.067-.645 1.01-2.778 1.21-2.872.812-.423 2.356-.356 3.806.189 1.445.555.367 1.033.267 1.455s-.3.806-.639 1.483c-.333.678-.705.261-1.078.517-.366.261-.539 1.294-.705 2.555-.167 1.256.705 2 .705 2.484 0 .483-.739.516-1.177 0-.434-.517-.906-1-1.178-1.745-.267-.739-.5-.833-.806-2-.3-1.166-.472-1.422-.405-2.066"/>
    <path fill="#C6B58A" d="M14.944 14.2c.2-.905-.206-2.522-.206-2.844.75.089 2.406.283 3 .39.733.127 1.378.516 1.478 1.388s-.272 1.55-.878 2.939c-.605 1.388-1.716 1.033-2.555 1.644-.84.61-2.656 1.328-2.695.81-.033-.516.273-.777.745-1.61.496-.851.87-1.767 1.11-2.722z"/>
    <path fill="#534C42" d="M9.417 8.845c-.195-.322.027-.633.06-.666l1.262.666c0 .056.011.183 0 .278-.011.117-.378.2-.761.189-.384-.011-.367-.145-.561-.467"/>
    <path fill="#141408" d="M10.277 7.806c.5.034.8 1.05.872 1.145-.333-.222-.555 0-.777 0-.211 0-.24-.061-.445-.15-.2-.09-.039-.367-.039-.456s-.1-.089-.344-.089H8.81c.322-.16 1.06-.477 1.466-.45"/>
    <path fill="#fff" d="M9.81 8.223c-.01-.083-.25-.089-.266-.089a.26.26 0 0 0-.045.167c.017.078.111.11.206.11.089.006.111-.1.105-.188"/>
    <path fill="#575558" d="M10.106 8.134c-.15 0-.023.1 0 .178.1.055.305.155.355.111.067-.067-.033-.111-.06-.156-.029-.05-.146-.133-.295-.133"/>
    <path fill="#292023" d="M14.484 10.54c-.25-.178-.206-.667-.173-.74.145-.077.506-.222.822-.233.39-.005.517.234.534.234.016 0 .089.438.078.5-.017.066-.19.305-.306.366-.117.056-.706.045-.956-.127"/>
    <path fill="#141408" d="M14.466 9.606c-.311.161-.445.14-.572.167.11.044.394.111.572.033.222-.094.31-.155.61-.155.24 0 .65.266.829.4-.15-.267-.5-.806-.74-.806-.288 0-.388.2-.7.361"/>
    <path fill="#161417" d="M15.094 9.834a1.1 1.1 0 0 0-.372-.033l.11.233c.017.039-.11.183-.11.222 0 .045.072.14.177.145.106 0 .312-.134.356-.184s0-.222 0-.255c0-.034-.128-.1-.161-.128"/>
    <path fill="#6F675A" d="M15.3 9.667c-.095-.055-.411-.01-.467 0-.072.011-.188.056-.11.084.088.039.277.072.444.139.16.066.11.016.155.01.05 0 .072-.177-.022-.238zm-.622.673c-.04-.078-.15-.095-.245-.128-.139-.05-.055.205.017.278.072.066.217.055.267.038.05-.016 0-.11-.04-.188"/>
    <path fill="#0F0B0A" d="M8.61 13.523c.056-.034 2.123-.534 2.55-.5.334.022 1.178.344 1.556.5 0 .322.028.966.083.944.078-.039.372-.672.445-.567.077.1.177.311.177 1s-1.727 3.467-2.01 3.69c-.284.216-1 .444-1.567.321a2.4 2.4 0 0 1-1.167-.744q-.096-.277-.183-.556l.011.045c.078.205.389.6 1.122.794.978.261 1.217.061 1.389 0 .178-.06.733-.5.522-.833h-.216l.888-1.983c.1-.29.267-.945.19-1.234a1.25 1.25 0 0 0-.6-.722c-.15-.06-.5-.122-.64-.06-.144.06-1.1-.056-1.316.06-.222.111-.556.333-.611.595l-.4 2.133c.005-.111-.028-.194-.222.322-.19.517-.345.667-.4.678-.045-.311-.117-.99-.067-1.245.067-.31.228-.916.35-1.438.094-.417.122-.973.122-1.2z"/>
    <path fill="url(#OMNOM__c)" d="M8.728 17.795c-.383-.94.489-3.778.539-3.789.216-.1 0 .044.46 0 .467-.05.523.35.645.517.117.16.217.46.35.4.14-.067 1.422-.095 1.517.233.094.333-.545 1.878-.578 1.911-.028.022-.633.983-.939 1.461-.533.067-1.683.017-1.994-.733"/>
    <path fill="url(#OMNOM__d)" d="M9.5 13.695c-.227.05-.35.472-.377.678.872-.261 1.05.389 1.11.46.067.067.073.095 1.084.156 1.01.056.894.311 1.01.261.112-.055.04-.71 0-1.016-.043-.306-.449-.54-.832-.7-.39-.167-1.722.1-2 .166z"/>
    <path fill="#181310" d="M10.016 16.723c-.05.244-.233.833-.317 1.094.211-.483.667-1.522.75-1.767.111-.305.345-1.405.395-1.644s.322-.633.416-.778c.078-.117-.033-.144-.094-.144-.117.11-.378.389-.461.539-.1.183-.173 1.027-.256 1.41-.078.39-.367.995-.433 1.295z"/>
    <path fill="#C5A689" d="M8.712 16.55c-.145.04-.467.811-.483.872 0 .434.516.49.533.462.01-.028.094-1.378-.056-1.334z"/>
    <path fill="#C9B290" d="M11.305 17.472c-.244.056-.583.917-.577 1.045.7-.056.866-.611.905-.656.034-.039-.083-.444-.328-.389"/>
    <path fill="#B4A57E" d="M13.244 13.89c.017-.256-.333-.356-.517-.367l-.061 1.033c.183-.111.556-.411.578-.667"/>
    <path fill="#DEC38E" d="M12.006 7.879c-.034.355-.606.533-.7.533a2.33 2.33 0 0 0-1.122-.672c-.656-.145-.756.139-1.284.366-.533.223-.41-.222.084-.366.494-.145.95-.573 1.455-.878s1.172-.239 1.361-.072c.183.166.244.733.206 1.089"/>
    <path fill="#D5BE92" d="M13.673 8.34c0 .277.222.805.372 1.094a.7.7 0 0 0 .194-.061c.123-.056.445-.239.767-.367.322-.133.444-.039.961.211s.061-.21-.222-.544c-.278-.333-.656-.544-.989-.922s-.711-.284-.983-.134c-.272.156-.1.45-.1.723"/>
    <path fill="#BA8633" d="M12.811 7.034c-.039.322-.316 1.183-.316 1.489.277-.389 1.005-1.261 1.655-1.639.811-.472.067-.355 0-.405-.072-.056-1.167-.406-1.428-.273.09.15.123.506.09.834z"/>
    <path fill="#E0BF7A" d="M11.472 8.978c-.528.356-1.85 1.523-1.939 1.573.484-.295 1.667-.85 2.556-.745.888.111 1.944 1.04 2.36 1.489a45 45 0 0 0-1.038-1.861c-.322-.5-.511-.844-.883-.944-.373-.1-.528.133-1.056.488"/>
    <path fill="#E8DBB9" d="M7.567 8.345c.233-.039.722.778.833 1.15 0 .156.033.506.178.611.172.133 1.1.295 1.205.295.112 0 1.367-.695 2.367-.695s1.617.806 1.805.972c.19.167.634.534.9.534.267 0 .617.078 1.322.178.706.094.356-.178 1.25-.445.9-.267.695.267 1.634.528.944.26.41 1.016.4 1.522-.017.511-.917 1.255-1.428 1.217-.517-.045-1.294-.073-1.856-.512-.555-.438-1.433-2.01-1.477-1.96-.04.055-.667.438-.745.544-.077.1-.333 0-.433-.106-.1-.105-.139-.833-.139-1.122 0-.294-.622-.81-1.344-.95s-1.572.84-1.678 1.106c-.11.266-.278.672-.578.755-.294.084-.316-.655-.594-1.022s-.939-.267-1.983-.267-1.045.084-2.472 0c-1.428-.083-.111-.366 0-.572.11-.205.639-.61 1.066-.9a9.3 9.3 0 0 1 1.767-.86"/>
    <path fill="#EBEBCF" d="M6.755 10.195c-.467.367-1.144.3-1.8.3 0 .033-.083.022-.4-.3-.4-.394 1.4-1.905 2.806-2.444 1.405-.528.505 1.033.472 1.383s-.611.694-1.078 1.061m2.756 1.256c-.095-.095-.412-.367-.484-.556.072-.128.361-.444.911-.661a3.5 3.5 0 0 1 1.306-.272c.066.01-.161.21-.528.833-.367.622-.617.522-.778.656-.166.133-.328.094-.427 0"/>
    <path fill="url(#OMNOM__e)" d="M11.64 12.378c.032.14.01.434 0 .567.099-.111.327-.361.388-.478.072-.144.255-.089.583-.122.333-.039.528-.278.667-.461.15-.183-.167-.194-.367-.311-.2-.111-.26-.173-.3-.406s.078-.15.228-.105c.155.044.567.183.567.105 0-.083-.034-.222-.184-.36a2 2 0 0 0-.383-.295c-.072-.034-.561 0-.889 0h-.739c.09 0 .267.11.317.166.056.061 0 .278 0 .39 0 .105-.233.288-.411.36-.172.073-.372.1-.361.145 0 .044.416.31.539.394.122.09.294.24.344.411"/>
    <path fill="#0B0B09" d="M10.783 11.234q.338.08.683.056c.267-.1.095-.59.039-.678-.056-.09-.3-.111-.611 0-.317.1-.211.555-.111.622m2.328-.256c-.073-.05-.528 0-.59 0-.038.234.184.506.3.567.117.061.29.117.345.106.056-.012.2-.367.206-.461 0-.095-.19-.167-.261-.212"/>
    <path fill="#7D776B" d="M11.933 10.04c-.8 0-1.144.438-1.166.616a6.4 6.4 0 0 1 1.238-.128c.528 0 1.09.195 1.406.573-.095-.445-.672-1.056-1.478-1.056z"/>
    <path fill="#977A40" d="M9.394 20.167c-2.41-.311-2.744-1.344-2.866-1.556-.239.722.072 2.172 3.222 2.172 3.144 0 4.416-1.244 4.655-1.872-.866.522-3.083 1.495-5.01 1.25z"/>
    <path fill="url(#OMNOM__f)" d="M16.655 17.878c-.584.728-.406.928-.406 1.094 1.195.517 1.778-.633 2.517-1.41.733-.778.789-1.928.789-2.562s-.412-.444-.667-.416c-.25.022-.683 1.194-1.061 1.833-.389.628-.589.728-1.167 1.461z"/>
    <path fill="#E6D4A4" d="M19.677 19.711a17 17 0 0 0-.811-.222l-.75-.206c-.672-.183-.944-.055-1.322.128-.228.111-.5.24-.928.322-.805.156-.966.35-1.16.59a2 2 0 0 1-.279.294c-.3.25-.405.733-.5 1.166l-.027.1c3.355-.344 5-1.388 5.777-2.172M8.367 21.79c.133-.09.06-.167-.034-.256-.11-.11-.255-.26-.128-.51.206-.4.05-.512-.155-.656a1.2 1.2 0 0 1-.328-.306 1.48 1.48 0 0 0-.9-.722l-.26-.089c-.318-.111-.668-.233-1.14-.222-.45.011-.96.367-1.322.633.317.711 1.467 1.7 4.267 2.128"/>
    <path fill="url(#OMNOM__g)" d="M7.334 21.122c-.15-.166-.739-1.5-.778-1.583.839.356 2.789 1.094 3.905 1.244 1.4.184 1.345-.16 1.728-.183.39-.028 1.095-.189 1.533-.189.445 0 .878.161.878.372 0 .167-.367.873-.544 1.206-1.789-.028-5.433-.111-5.739-.206-.383-.122-.833-.5-.983-.666z"/>
    <path fill="#E9E4C4" d="M6.744 10.556H8.99a.32.32 0 0 1 .283.178c.083.178.055.855-.083 1.71-.134.862-.356.456-.928.945-.572.478-.522 1.45-.928 1.906-.4.45-.222-.245-.367-.556-.155-.305-.505-.389-1.622-.833-1.11-.456-1.077-.1-1.144-.295a3.9 3.9 0 0 1-.133-1.166c.033-.333.639-1.311.888-1.711.256-.406.967-.178 1.79-.178"/>
    <path fill="#D6CAA0" d="M15.61 15.017c.267-.678-.105-1.844-.277-2.555-.028-.128.278 0 .711.322.444.327.206.228.761.533.556.311.961.311 1.567.083.605-.222.372-.05.438.356.067.406 0 .667-.166 1.261-.167.6-.728.711-1.667 1.389a5.2 5.2 0 0 1-2.194 1.039c-.656.128-.322-.195.083-.678.406-.489.473-1.072.74-1.75z"/>
    <path fill="#DAB36E" d="M9.19 9.378c-.373-.066-.412-.022-.795-.066a.614.614 0 0 0 .15.76c.383.345.383.045.928 0 .544-.05.311-.238.333-.5.028-.26-.244-.121-.616-.194"/>
    <path fill="#BF9E57" d="M11.5 8.473c.156-.317.495-.617.517-.95.067.15.228.5.35.678.15.222.272.083.655 0 .39-.084.39-.522.611-.572.223-.045 0 1.038.095 1.405.1.372-.033.728-.095.75-.066.028-.25-.117-.538-.45-.278-.333-.434-.5-.806-.583-.372-.084-.633.094-1.11.444-.49.339-.25-.028-.107-.1.15-.072.262-.3.423-.622z"/>
    <path fill="url(#OMNOM__h)" d="M11.01 11.656c.39.072.928.778.561 1.361-.472.095-1.333-.128-1.805.117-.59.305-.567-.072-.539-.306.022-.233 1.389-1.239 1.778-1.166z"/>
    <path fill="url(#OMNOM__i)" d="M12.86 12.067c-.377-.122-1.2.245-1.177.928.367.3 1.233.511 1.522.944.356.54.522.2.622-.016.095-.217-.588-1.734-.966-1.856"/>
    <path fill="#EBEBCF" d="M17.25 11.345c-.206.055-.867.5-1.245.611.128.145.417.5.578.722.206.278 0 1.378-.2 1.795-.2.416 0 .805.2.638.206-.166.317-.444.833-1.055.523-.611.611-.633.984-1.078.377-.444.289-1.022-.167-1.022-.467 0 0-.444-.206-.61-.205-.168-.577-.057-.777 0"/>
    <path fill="#A57537" d="M18.872 9.345c-.073.139.15.3.288.456.028-.028.1-.156.161-.456.073-.378 1.028-2.522 1.034-2.866.01-.35-.111-.261-.195-.084-.083.178-.166.69-.216.922-.045.234-.511 1.15-.7 1.362-.184.216-.295.522-.372.666"/>
    <path fill="#E9E4C4" d="M8.139 17.39c-.339-1.256.272-3.373.333-3.84.078-1.05-.922.85-1.027 1.295-.112.444.083 2.26.227 2.944.15.689.8 1.133 1.222 1.456.423.322 1.223-.184 1.134-.323-.084-.144-1.556-.283-1.89-1.538z"/>
    <path fill="url(#OMNOM__j)" d="M5.722 6.25c.034.35-.15 1.073-.244 1.39q1.761-.688 3.539-1.334c1.11-.388 1.5-.855 1.35-.944-.15-.078-.817-.505-.917-.767-.1-.266-.278-.622-.433-.977A3.8 3.8 0 0 0 7.9 2.173c-.522-.344-1.444-.083-1.678 0-.233.084-.172 1.872-.172 2.25 0 .39-.36 1.389-.322 1.828z"/>
    <path fill="#DEC571" d="M6.533 2.168c-.31-.017-.322.278-.344.35v1.455c0 .084-.178 1.311-.261 1.611-.089.295-.2.856-.089 1 .111.14.183.345.472.378.284.039.795-.144 1.017-.378.222-.239.25-.394.25-.822 0-.433-.061-.656-.25-1.028-.189-.366-.211.072-.433.372-.223.295-.523.25-.706.084-.189-.167.083-.322.344-.956.262-.627.512-1 .706-1.21.2-.223.15-.5 0-.706-.144-.2-.394-.145-.706-.156z"/>
    <path fill="#C68D3E" d="M8.334 2.779c-.261-.639-.534-.4-.767-.378-.028.1 0 .389.294.722.373.434.473 1.372.39 1.839-.09.467 0 .333-.217.917-.211.583.027.289.3.383.277.094.572-.167.816-.383.25-.217.895-.428.845-.584s-.311-.383-.706-.8a5.6 5.6 0 0 1-.955-1.71z"/>
    <defs>
        <linearGradient id="OMNOM__a" x1="19.529" x2="7.901" y1="13.562" y2="5.681" gradientUnits="userSpaceOnUse">
            <stop stop-color="#8E501F"/>
            <stop offset="1" stop-color="#BB883E"/>
        </linearGradient>
        <linearGradient id="OMNOM__b" x1="18.17" x2="2.974" y1="4.831" y2="13.429" gradientUnits="userSpaceOnUse">
            <stop stop-color="#CEA354"/>
            <stop offset="1" stop-color="#D7BE85"/>
        </linearGradient>
        <linearGradient id="OMNOM__c" x1="14.456" x2="9.032" y1="4.851" y2="20.756" gradientUnits="userSpaceOnUse">
            <stop stop-color="#5E3C33"/>
            <stop offset=".37" stop-color="#715041"/>
            <stop offset=".58" stop-color="#694537"/>
            <stop offset=".8" stop-color="#A0746B"/>
            <stop offset="1" stop-color="#B7827A"/>
        </linearGradient>
        <linearGradient id="OMNOM__d" x1="14.379" x2="5.992" y1="3.107" y2="18.829" gradientUnits="userSpaceOnUse">
            <stop stop-color="#120E0D"/>
            <stop offset=".85" stop-color="#634137"/>
        </linearGradient>
        <linearGradient id="OMNOM__e" x1="11.984" x2="11.984" y1="2.03" y2="22" gradientUnits="userSpaceOnUse">
            <stop stop-color="#2C2C24"/>
            <stop offset=".66" stop-color="#1D1E16"/>
        </linearGradient>
        <linearGradient id="OMNOM__f" x1="5.216" x2="16.07" y1="18.977" y2="1.627" gradientUnits="userSpaceOnUse">
            <stop stop-color="#A56831"/>
            <stop offset=".91" stop-color="#A56831" stop-opacity="0"/>
        </linearGradient>
        <linearGradient id="OMNOM__g" x1="2.665" x2="23.17" y1="12.023" y2="12.223" gradientUnits="userSpaceOnUse">
            <stop stop-color="#B09453" stop-opacity=".2"/>
            <stop offset=".46" stop-color="#B09453"/>
            <stop offset="1" stop-color="#B09453" stop-opacity="0"/>
        </linearGradient>
        <linearGradient id="OMNOM__h" x1="15.513" x2="6.994" y1="2" y2="19.402" gradientUnits="userSpaceOnUse">
            <stop stop-color="#4B483F"/>
            <stop offset="1" stop-color="#4B483F" stop-opacity="0"/>
        </linearGradient>
        <linearGradient id="OMNOM__i" x1="13.165" x2="9.38" y1="2.416" y2="16.994" gradientUnits="userSpaceOnUse">
            <stop stop-color="#4B483F"/>
            <stop offset="1" stop-color="#4B483F" stop-opacity="0"/>
        </linearGradient>
        <linearGradient id="OMNOM__j" x1="12.004" x2="12.483" y1="2.004" y2="19.045" gradientUnits="userSpaceOnUse">
            <stop stop-color="#E0C882"/>
            <stop offset="1" stop-color="#D2AB66"/>
        </linearGradient>
    </defs>
</svg>
