<svg xmlns="http://www.w3.org/2000/svg" width="24" height="24" fill="none" viewBox="0 0 24 24">
    <path fill="#FF65B3" d="M9.176 13.572v3.44l2.823 1.299v-3.445z"/>
    <path fill="#FFBDDE" d="m14.823 17.012-2.824 1.299v-3.445l2.824-1.294zm-5.647-3.44-2.692 4.734 2.692-1.294z"/>
    <path fill="#FF349B" d="m9.176 19.999 2.823-1.694-2.823-1.294z"/>
    <path fill="#FF65B3" d="M6.484 18.306 9.176 20v-2.988l-2.692 1.299zm8.339-4.734v3.44l2.692 1.299z"/>
    <path fill="#FF349B" d="m14.823 20 2.692-1.695-2.692-1.29z"/>
    <path fill="#FF65B3" d="m11.999 18.305 2.823 1.694v-2.988L12 18.31z"/>
    <path fill="#FF349B" d="m12 11.883-2.824 1.694 2.823 1.299z"/>
    <path fill="#FF65B3" d="m14.823 13.571-2.824-1.694v2.988zm-8.47-4.724V11.6l2.352 1.035z"/>
    <path fill="#FFBDDE" d="M6.353 8.847 4 12.639l2.353-1.035z"/>
    <path fill="#FF349B" d="m6.353 13.99 2.352-1.355L6.353 11.6z"/>
    <path fill="#FF65B3" d="m4 12.64 2.353 1.35V11.6L4 12.635zm2.353 1.783v1.873l2.357-3.219-2.352 1.346z"/>
    <path fill="#FFBDDE" d="M6.353 16.297v-1.873L4 13.074z"/>
    <path fill="#FF65B3" d="M17.647 8.847V11.6l2.348 1.035z"/>
    <path fill="#FFBDDE" d="m17.646 8.847-2.348 3.792 2.353-1.035V8.847z"/>
    <path fill="#FF349B" d="m17.647 13.99 2.352-1.355-2.352-1.035z"/>
    <path fill="#FF65B3" d="m15.298 12.64 2.353 1.35V11.6l-2.353 1.035zm2.348 1.783v1.873l2.353-3.219z"/>
    <path fill="#FFBDDE" d="M17.646 16.297v-1.873l-2.348-1.35 2.353 3.223z"/>
    <path fill="#FF65B3" d="M9.176 4v2.753l2.207 1.035z"/>
    <path fill="#FFBDDE" d="M9.176 4 6.969 7.793 9.18 6.758V4z"/>
    <path fill="#FF349B" d="m9.176 9.143 2.207-1.355-2.207-1.035z"/>
    <path fill="#FF65B3" d="m6.969 7.793 2.211 1.35v-2.39L6.97 7.788zm2.207 1.783v1.873l2.211-3.223z"/>
    <path fill="#FFBDDE" d="M9.176 11.448V9.575l-2.207-1.35 2.211 3.223z"/>
    <path fill="#FF65B3" d="M14.823 4v2.753l2.212 1.035z"/>
    <path fill="#FFBDDE" d="m14.823 4-2.202 3.793 2.202-1.035z"/>
    <path fill="#FF349B" d="m14.823 9.143 2.212-1.355-2.212-1.035z"/>
    <path fill="#FF65B3" d="m12.615 7.793 2.212 1.35v-2.39l-2.212 1.035zm2.207 1.783v1.873l2.212-3.223z"/>
    <path fill="#FFBDDE" d="M14.823 11.448V9.575l-2.202-1.35z"/>
</svg>
