<svg xmlns="http://www.w3.org/2000/svg" width="24" height="24" fill="none" viewBox="0 0 24 24">
    <path fill="url(#PBX__a)" d="M14.16 16.215H2.649V7.553C2.648 4.483 5.164 2 8.272 2h5.889c3.966.006 7.19 3.186 7.19 7.107s-3.224 7.108-7.19 7.108"/>
    <path fill="url(#PBX__b)" d="M8.401 7.688C4.88 5.948 4.596 4.206 4.906 3.11a5.53 5.53 0 0 0-2.258 4.45v8.817h11.513c1.696 0 3.25-.748 4.47-1.71-.6-4.204-5.418-4.604-10.23-6.978"/>
    <path fill="url(#PBX__c)" d="M2.648 9.5v9.295c0 2.373 2.419 3.92 4.476 2.87l.677-.349c3.354-1.74 3.006-6.804-.548-8.036-2.547-.864-4.605-1.444-4.605-3.78"/>
    <path fill="url(#PBX__d)" d="M9.136 2.006c.839.923 2.619 2.09 6.463 2.838a15.2 15.2 0 0 1 5.45 2.232 7.19 7.19 0 0 0-6.888-5.07z"/>
    <defs>
        <linearGradient id="PBX__a" x1="11.155" x2="17.127" y1="12.753" y2="7.763" gradientUnits="userSpaceOnUse">
            <stop stop-color="#0080EE"/>
            <stop offset="1" stop-color="#01C5F6"/>
        </linearGradient>
        <linearGradient id="PBX__b" x1="9.154" x2="14.308" y1="17.945" y2="12.338" gradientUnits="userSpaceOnUse">
            <stop stop-color="#725BFF"/>
            <stop offset="1" stop-color="#9665FB"/>
        </linearGradient>
        <linearGradient id="PBX__c" x1="7.325" x2="10.985" y1="21.99" y2="7.892" gradientUnits="userSpaceOnUse">
            <stop stop-color="#3C31D6"/>
            <stop offset=".98" stop-color="#2880FA"/>
        </linearGradient>
        <linearGradient id="PBX__d" x1="17.411" x2="15.876" y1="3.186" y2="5.295" gradientUnits="userSpaceOnUse">
            <stop stop-color="#00E5CC"/>
            <stop offset=".94" stop-color="#10DCC6"/>
        </linearGradient>
    </defs>
</svg>
