<svg xmlns="http://www.w3.org/2000/svg" width="24" height="24" fill="none" viewBox="0 0 24 24">
    <path fill="url(#PEEL__a)" d="M12 22a10 10 0 1 0 0-20 10 10 0 0 0 0 20m0-.759A9.24 9.24 0 1 0 12 2.76a9.24 9.24 0 0 0 0 18.481"/>
    <path fill="url(#PEEL__b)" d="M12 21.412A9.41 9.41 0 0 0 21.412 12a9.412 9.412 0 1 0-18.824 0A9.41 9.41 0 0 0 12 21.412"/>
    <path fill="url(#PEEL__c)" d="m11.423 5.353-.47-.5c.259-.365.659-.47 1.212-.353.435.1.294.518.176.718.165.017.553.117.783.34.223.23 0 .483-.136.589.306.018.982.076 1.241.165.33.106 1.853.835 2.17.9.319.059.618.059.765.147.154.076-.1.33-.47.453-.37.13-.57.035-.853.035-.282 0-1.412-.747-2.112-.747s-1.194.412-1.394.712c-.194.306-.312.917-.117 1.73.158.646.47 1.187.611 1.376 1.106 1.635 2.606 1.747 3.912 2.353a2.41 2.41 0 0 1 1.365 2v3.058c-.177.43-.87.565-1.194.583-.153 0-.494-.012-.612-.06-.118-.04-.283-.287-.353-.41-.276-.366-.253-1.113-.206-1.436a3.2 3.2 0 0 1-1.712.853l-.394 1.053c-.094.111-.441.335-1.1.335a2.9 2.9 0 0 1-1.376-.335v-.741c-.042.023-.218.07-.63.07a2.7 2.7 0 0 1-.806-.106v.777c-.235.117-.905.335-1.405.335-.395 0-.665-.159-.748-.235-.164-.253-.564-1.118-.835-2.553-.33-1.788-.117-3.388-.117-4.3 0-.73.617-2.841.929-3.806.376-.865.541-1.63.576-1.906 0-1.059-.658-1.176-.988-1.1h-.094c.541-.9 1.324-.635 1.988-.3.53.27.906 1.335 1.03 1.841A3.25 3.25 0 0 1 11.318 5.5l.105-.153z"/>
    <path fill="url(#PEEL__d)" d="M7.259 13.941c-.212-1.241.27-4.235.388-4.323.424-.436 1.412-1.294 2-1.294.718 0 1.353.023 1.806.264.453.247-.088 1.03 0 1.606.094.57.059.753.606 1.541.547.783 1.118 1.024 2.118 1.477s1.958.723 2.264.723c.3 0-1.33 2.206-2.023 2.6s-1.177 0-1.57 0c-.395 0-1.542.512-2.06.577-.511.059-2.082-.27-2.594-.76-.517-.481-.73-1.175-.941-2.41z"/>
    <path fill="#FAF8EB" d="m8.235 13.918-.088-.27c.059-.036.3-.118.776-.16.47-.04.765.224.847.365l-.23.223z"/>
    <path fill="#7C6812" d="M7.376 5.353c.177-.094.447-.235 1.06.259.593.47.246.964 0 1.153-.107-.46-.483-1.377-1.154-1.377.03-.006.059-.023.094-.04zm5.47.63c-.21-.118-.817-.277-1.605 0 .141 0 .447.2.541 1 .118-.33.488-1 1.059-1z"/>
    <path fill="url(#PEEL__e)" d="m7.412 11.106-.194-.059c-.018.035-.036.206.064.553.124.435.348.741.671.741s.647-.294.859-.294c.218 0 .588.118.83.23.193.094.4.117.482.117.882 0 1.106-.935 1.106-1.4l-.542.118c0 .206-.082.63-.411.647-.336.018-.471-.294-.489-.459l-.876.053-.606-.053c.059.147.047.435-.424.435-.47 0-.511-.417-.47-.63"/>
    <path fill="#FAF8EB" d="m7.441 11.1.824.2c.059.13.053.4-.412.4-.453 0-.465-.4-.412-.6m2.394.212.812-.206c.006.206-.059.617-.359.617-.305 0-.429-.276-.453-.411"/>
    <path fill="#A8A626" d="M15.512 7.3c-.434-.18-.83-.44-1.17-.765.176.06.611.224.958.4.353.177.894.341 1.124.4-.065.088-.341.2-.912-.035"/>
    <path fill="#FAF8E7" d="M10.123 4.647c-.523 0-.93.27-1.065.412.324.33.971 1.147.971 1.776a4.9 4.9 0 0 1 1.43-1.47l-.336-.312c-.118-.135-.476-.406-1-.406"/>
    <path fill="url(#PEEL__f)" d="M5.323 8.841c-.264.412-.705.747-.9.865-.029.065-.011.265.26.482.264.224.476.224.546.194.789 0 1.66-.84 1.989-1.258l.223-.43c.53-1.13.677-2.07.688-2.4a3 3 0 0 1-.294.047l-.617.018-.353.235c-.377.177-1.212 1.73-1.542 2.247"/>
    <path fill="#6D4638" d="M8.87 12.4c-.558 0-.823.565-.882.847l.118.4c.07-.059.3-.165.682-.165.377 0 .824.218 1 .33a6 6 0 0 1 .27-.412c.012-.382-.493-1-1.188-1"/>
    <path fill="url(#PEEL__g)" d="M8.741 13.77c-.217-.035-.43.106-.506.177.06.194.253.577.624.577.376 0 .612-.312.682-.471-.176-.077-.582-.241-.8-.282"/>
    <path fill="url(#PEEL__h)" d="M8.888 13.47c.36 0 .653-.24.653-.535s-.292-.535-.653-.535c-.36 0-.653.24-.653.535s.293.536.653.536"/>
    <path fill="#D6AC26" d="M8.641 10.924c.07.105-.188.264-.323.329l.2.041c.117-.106.34-.353.294-.47-.059-.124-.577-.5-.835-.677.194.218.594.67.664.777m.594.053c-.07.105.189.264.324.329l-.2.041c-.118-.106-.347-.347-.294-.47.053-.118 1.176-.724 1.43-.9-.195.217-1.19.894-1.26 1"/>
    <path fill="#533E12" fill-rule="evenodd" d="M11.888 4.412c-.353 0-.588.07-.74.159a.5.5 0 0 0-.201.182 1 1 0 0 0-.218-.1 1.8 1.8 0 0 0-.647-.1c-.511 0-.864.241-1.017.412-.153-.118-.494-.289-.977-.289-.682 0-1.106.365-1.106.742v.1l.094-.036c.165-.058.4-.082.589.03.164.094.317.294.353.712l-.106.023a3.3 3.3 0 0 1-.583.035c-.206 0-.411.147-.606.342-.194.2-.382.47-.564.752-.177.283-.347.583-.488.842l-.06.106c-.117.211-.211.388-.282.494a2.2 2.2 0 0 1-.506.511 2.6 2.6 0 0 1-.482.3l-.035.018v.041c-.012.13.03.312.188.465.153.147.412.265.824.265.411 0 .847-.236 1.211-.506a5 5 0 0 0 .636-.577 15.7 15.7 0 0 0-.694 4.753c.005.583.058 1.53.223 2.483.159.953.424 1.917.847 2.529l.006.012.012.012c.112.064.435.182.94.182.507 0 1.036-.23 1.242-.341l.035-.018v-.7c.16.023.377.047.606.059.236 0 .489 0 .7-.053v.682l.024.024c.153.117.617.353 1.347.353.365 0 .641-.059.841-.136.194-.07.318-.158.37-.229l.012-.006.377-1.03a3.6 3.6 0 0 0 1.624-.735c-.012.253 0 .589.07.895.082.376.259.752.6.9h.018c.212.029.553.035.882-.036a1.4 1.4 0 0 0 .888-.517l.012-.018v-3.065c.012-.494-.235-1.617-1.323-2.14-.312-.148-.671-.271-1.042-.4l-.059-.024a10 10 0 0 1-1.2-.471A3.92 3.92 0 0 1 12.2 8.994c-.041-.494.023-.988.306-1.318.13-.17.57-.517 1.247-.517.412 0 .788.188 1.176.388l.012.006c.394.2.806.412 1.294.412.765 0 1.018-.341 1.036-.56v-.023a.2.2 0 0 0-.071-.088.5.5 0 0 0-.123-.065 1.5 1.5 0 0 0-.512-.07c-.212 0-.53-.112-.853-.253a7 7 0 0 1-.812-.424 3.74 3.74 0 0 0-1.747-.406.6.6 0 0 0 .076-.129.47.47 0 0 0 .03-.33c-.036-.117-.118-.211-.27-.293a1.7 1.7 0 0 0-.554-.16.65.65 0 0 0 .053-.423.4.4 0 0 0-.182-.235.8.8 0 0 0-.412-.094zM7.271 9c.094-.276.176-.53.264-.765l.041-.117a12 12 0 0 0 .324-.983 2.6 2.6 0 0 0-.447 0c-.27.03-.647.436-.812.636l.512-.718c.218-.182.594-.141.794-.088a2.5 2.5 0 0 0 .076-.6 3.6 3.6 0 0 1-.688.059c-.153 0-.323.105-.512.294a5.4 5.4 0 0 0-.547.735c-.176.276-.34.57-.482.83l-.059.105c-.117.212-.217.394-.294.506-.135.218-.341.4-.53.547a3 3 0 0 1-.47.294.47.47 0 0 0 .147.318c.124.118.341.223.724.223.37 0 .776-.205 1.135-.476a5 5 0 0 0 .824-.806zm.888-2.694V6.4c0 .353-.1.735-.241 1.176l-.212.589-.041.117-.283.824a15.5 15.5 0 0 0-.553 7.441c.16.941.412 1.883.818 2.465.094.053.388.159.847.159.447 0 .93-.195 1.147-.306v-.76c-.353-.217-1.33-1.1-1.806-1.54.483.388 1.559 1.235 2.106 1.564.13.012.288.03.447.036a2.7 2.7 0 0 0 .67-.047l1.477-1.365c-.176.176-.9.977-1.317 1.435v.683c.152.105.57.294 1.235.294.353 0 .612-.053.794-.118a.8.8 0 0 0 .306-.176l.323-.889a5.4 5.4 0 0 0 .089-1.235c.017.218.059.712.059 1.03a3.47 3.47 0 0 0 1.647-.765c.27-.27.764-.777.94-1.088a4.4 4.4 0 0 1-.782 1.1v.005c-.029.253-.029.648.053 1.012.083.365.236.67.512.794.2.024.518.03.83-.035.308-.048.588-.207.788-.447v-3.018c.011-.47-.224-1.523-1.247-2.011a9 9 0 0 0-1.03-.395l-.058-.023a11 11 0 0 1-1.218-.477 4.06 4.06 0 0 1-2.07-2.117 4.6 4.6 0 0 1-.313-1.141 7.6 7.6 0 0 1-.223-1.747c0-.848.494-1.395.841-1.524-.176-.112-.482-.141-.682-.147.853 0 .982.141 1.017.182l.006.006-.017.006.017.059.065-.118a.34.34 0 0 0 .024-.23c-.018-.07-.077-.146-.2-.21-.118-.066-.306-.119-.577-.154H12.3c-.235-.023-.765.065-1.43.577a3.35 3.35 0 0 0-1.105 1.9c.059-.395.14-.724.176-.836a2.98 2.98 0 0 0-.853-1.764l-.059-.06a1.4 1.4 0 0 0-.94-.293c-.571 0-.883.258-.954.5a.84.84 0 0 1 .6.07c.236.13.4.412.424.9h.012c0 .012-.006.012-.012.018M9.135 5.1c.524.353.818 1.218.9 1.618.206-.512.936-1.07 1.27-1.289.007-.011.013-.064-.023-.135a2 2 0 0 0-.235-.259l-.024-.03v.03l-.1-.117a.6.6 0 0 0-.235-.136 1.9 1.9 0 0 0-.612-.088c-.517 0-.847.277-.94.412zm1.906-.188c.118.159.441.394.782.353.236-.03.389-.094.483-.147a.54.54 0 0 0 .047-.342.25.25 0 0 0-.118-.152c-.07-.042-.176-.071-.347-.071-.335 0-.547.059-.67.135-.13.077-.171.153-.177.194zm1.353 2.676c-.259.306-.347.718-.347 1.136-.041-.671-.035-1.571.194-1.883.259-.341.541-.535.694-.612H13c.823-.058 1.565.224 1.823.371.195.118.506.294.824.435.33.141.67.265.918.265.229 0 .376.024.464.059q.055.02.1.059c-.023.123-.206.411-.894.411-.447 0-.835-.2-1.235-.4l-.018-.011c-.382-.2-.776-.4-1.23-.4-.723 0-1.2.37-1.352.57zm-3.33 3.694c-.94 0-1.776-.258-2.07-.382l.177.176c0 .206.023.53.129.806.106.277.294.53.618.53a1 1 0 0 0 .547-.177c.047-.03.194-.1.376-.1.262.008.517.083.741.218a.9.9 0 0 0 .5.135c.153 0 .43-.059.677-.264.24-.195.453-.512.506-1.018a.74.74 0 0 0 .294-.153c.235-.23.088-.512-.094-.7-.147-.153-.16-.588-.147-.782-.036.082-.083.323 0 .682.076.353.129.494.147.518-.412.17-1.465.511-2.4.511m2.06-.04c-.153.028-.295.04-.389.04 0 .189-.094.57-.5.57a.513.513 0 0 1-.547-.452c-.27.018-.912.047-1.288 0a.49.49 0 0 1-.512.453c-.412 0-.547-.4-.576-.588.017.176.047.388.117.57.1.26.253.436.489.436.094 0 .317-.03.47-.142A.8.8 0 0 1 8.841 12c.27 0 .506.088.706.182l.1.053c.135.065.23.112.435.112.118 0 .365-.053.588-.235.206-.159.395-.43.448-.87zm-3.618-.054q.352.076.706.147c.006.118-.053.341-.318.341-.335 0-.388-.294-.388-.488m2.4.153q.342-.04.67-.141c0 .235-.14.482-.37.482-.188 0-.277-.223-.294-.34zm-1.853 1.877c0-.124.088-.312.235-.47.159-.166.365-.29.606-.29.247 0 .518.118.73.295.211.176.352.406.352.617-.011.06-.07.206-.223.377a1.8 1.8 0 0 0-1-.318 1.3 1.3 0 0 0-.57.136.52.52 0 0 1-.13-.353zm.841-.894a1 1 0 0 0-.706.323c-.165.177-.27.4-.27.57 0 .26.135.43.211.489l.036.024.04-.024c.077-.041.3-.141.548-.141.441 0 .83.223.965.33l.053.04.04-.047c.207-.211.289-.412.307-.5v-.012c0-.27-.177-.535-.406-.729s-.53-.323-.818-.323m-.394 1.94a.56.56 0 0 1-.147-.305.63.63 0 0 1 .412-.136c.117 0 .258.048.4.106.106.042.206.095.276.136a1 1 0 0 1-.17.23.52.52 0 0 1-.353.158.55.55 0 0 1-.418-.188m.265-.576c-.277 0-.47.118-.53.194l-.023.018v.03c0 .135.064.3.176.429a.7.7 0 0 0 .53.235c.182 0 .335-.094.453-.2.111-.112.188-.235.223-.324l.024-.058-.047-.03a3 3 0 0 0-.353-.182c-.142-.059-.306-.118-.453-.118z" clip-rule="evenodd"/>
    <path fill="#614D13" d="M13.665 6.647c-1.189 0-1.606 1.147-1.665 1.241v.424c.135-.347.753-1.247 1.665-1.247 1.14 0 1.782.823 2.605.823.66 0 .9-.235.942-.359h-1.153c-.465 0-1.212-.882-2.4-.882z"/>
    <defs>
        <linearGradient id="PEEL__a" x1="8.194" x2="17.382" y1="3.1" y2="20.165" gradientUnits="userSpaceOnUse">
            <stop stop-color="#F2E98B"/>
            <stop offset="1" stop-color="#8E3511"/>
        </linearGradient>
        <linearGradient id="PEEL__b" x1="7.8" x2="16.319" y1="3.869" y2="21.619" gradientUnits="userSpaceOnUse">
            <stop stop-color="#C59946"/>
            <stop offset=".46" stop-color="#DCBA5B"/>
            <stop offset="1" stop-color="#B48527"/>
        </linearGradient>
        <linearGradient id="PEEL__c" x1="12.002" x2="12.002" y1="1.998" y2="22" gradientUnits="userSpaceOnUse">
            <stop stop-color="#745F1C"/>
            <stop offset=".14" stop-color="#A4A11E"/>
            <stop offset=".4" stop-color="#DEC42C"/>
            <stop offset=".66" stop-color="#EACB2F"/>
            <stop offset=".85" stop-color="#DEAB24"/>
            <stop offset=".96" stop-color="#63470C"/>
        </linearGradient>
        <linearGradient id="PEEL__d" x1="5.908" x2="9.434" y1="4.328" y2="21.93" gradientUnits="userSpaceOnUse">
            <stop stop-color="#EACE2F" stop-opacity="0"/>
            <stop offset=".14" stop-color="#EACE2F"/>
            <stop offset=".89" stop-color="#EACE2F" stop-opacity=".84"/>
            <stop offset="1" stop-color="#EACE2F" stop-opacity="0"/>
        </linearGradient>
        <linearGradient id="PEEL__e" x1="12.005" x2="12.005" y1="2" y2="22" gradientUnits="userSpaceOnUse">
            <stop offset=".19" stop-color="#492715"/>
            <stop offset=".55" stop-color="#8D675C"/>
        </linearGradient>
        <linearGradient id="PEEL__f" x1="8.609" x2="15.28" y1="11.436" y2="16.886" gradientUnits="userSpaceOnUse">
            <stop stop-color="#6C501B"/>
            <stop offset=".29" stop-color="#DDAD0E"/>
            <stop offset=".58" stop-color="#DC8D0E"/>
            <stop offset="1" stop-color="#7E6411"/>
        </linearGradient>
        <linearGradient id="PEEL__g" x1="-.703" x2="24.162" y1="12.073" y2="12.073" gradientUnits="userSpaceOnUse">
            <stop stop-color="#6D4638"/>
            <stop offset=".56" stop-color="#765043"/>
            <stop offset="1" stop-color="#6D4638"/>
        </linearGradient>
        <linearGradient id="PEEL__h" x1="12" x2="12" y1="2" y2="22" gradientUnits="userSpaceOnUse">
            <stop stop-color="#8C665C"/>
            <stop offset=".72" stop-color="#8C665C" stop-opacity="0"/>
        </linearGradient>
    </defs>
</svg>
