<svg xmlns="http://www.w3.org/2000/svg" width="24" height="24" fill="none" viewBox="0 0 24 24">
    <path fill="#DDC6B8" d="m19.436 8.02-.248-.318h.73l.159.318z"/>
    <path fill="#503B20" d="M20.082 8.02h-.646l.17.212h.572z"/>
    <path fill="#FFF7D6" d="m19.765 8.448-.159-.217h.572l.095.212h-.508z"/>
    <path fill="#1B1306" d="m20.68 9.607-.91-1.16h.503c.16.17.34.848.413 1.16z"/>
    <path fill="#DDE18C" d="m15.36 4.563.318-.8c.715.201 1.509.81 1.81 1.085v1.943L15.97 8.295l-.603-3.727z"/>
    <path fill="url(#PEOPLE__a)" d="M3.55 8.825a14 14 0 0 0-.423 1.72l5.384.143.952.18v2.456l1.287-1.17-.154-2.101 1.096-1.25.143-1.196-.466-1.556.207-1.461L11.32 3c-.354.022-1.392.239-1.863.34v4.324l-.132 1.16z"/>
    <path fill="#EEE7CB" d="M12.158 7.706c-.424-.725-.307-2.488-.19-3.282.677-.635 1.836-.402 2.328-.206.382.307 1.228 1.08 1.625 1.773.398.688.165 1.07 0 1.17v.874c-.635.635-1.963 1.916-2.223 1.905-.328-.021-1.016-1.323-1.546-2.234z"/>
    <path fill="#DAB98C" d="M12.714 5.17c-.17-.354.28-.847.529-1.042-.312-.138-1.096.296-1.244.931-.148.636.572.964.826 1.08.206.09.333.355.37.477-.042-.16.238-.212.328-.043.096.16.048.853.053.916 0 .048.297-.063.445-.127.01-.222.042-.699.074-.794.042-.111.572-.19.858-.159.286.032.127.519-.07.635-.2.106-.137.127 0 .487.107.292-.3.583-.518.7l.815.333.154-.863c.111-.455.344-1.382.35-1.44a7 7 0 0 0-.35-1.239 7.4 7.4 0 0 0-.863-.73l-.773-.1c.646.476.35 1.174.122 1.47-.318.033-.9-.047-1.106-.492"/>
    <path fill="#D89C78" d="M12.46 7.3c-.1-.26.328-.747.55-.964-.312.297-.582.46-.672.508l-.498.397.498.816.995 1.503c.133.027.402.053.402-.063 0-.149.752-.551.98-.482.222.063 1.413-1.027 1.302-1.255a3.3 3.3 0 0 1-.085-1.307c.053-.376.239-.117.043-.302-.16-.159-.344.042-.424.159-.132.302-.407.963-.37 1.18.037.265-.043.625-.228.82-.148.16-.434.064-.561 0 .053.086.074.297-.228.488-.38.233-.794-.138-.667-.302.127-.159 1.022-.212.71-.228-.255-.02-.265-.582-.244-.862l-.683.143c-.016-.016-.11 0-.391.211-.355.265-.308-.137-.43-.46"/>
    <path fill="#BC855C" d="M12.285 5.543c-.275-.487.111-1 .344-1.191-.397.17-1.196.651-1.25 1.191a.97.97 0 0 0 .53.953l.868-.402c-.052.02-.217-.064-.492-.55"/>
    <path fill="url(#PEOPLE__b)" d="M12.005 21a8.99 8.99 0 0 0 8.344-5.641 9 9 0 0 0 .65-3.48l-2.933-3.806L5.425 18.13a8.96 8.96 0 0 0 6.58 2.87"/>
    <path fill="#572F23" d="M11.925 7.279c-.307-.275-.143-.021-.228-.164q.612 1.186 1.324 2.313c.29.424.672.307.826.196-.075.053-.281.106-.482-.08-.249-.227-1.059-1.926-1.44-2.265"/>
    <path fill="url(#PEOPLE__c)" d="m11.803 13.086-.29-.598 6.659-5.225 2.673 3.017c.1.328.122 1.207.122 1.61l-2.954-3.696-1.647 1.27z"/>
    <path fill="url(#PEOPLE__d)" d="M14.54 10.898 5.435 18.14l-.244-.275-.232-.28 9.115-7.306z"/>
    <path fill="#E6D399" d="M8.61 20.323a6.4 6.4 0 0 1-1.2-.614l12.365-9.413.503.678z"/>
    <path fill="#E6D399" d="m19.076 17.543-2.885-3.446c.255-.291.763-.874.794-.874.027 0 1.87 2.192 2.79 3.287z"/>
    <path fill="#EAE9CD" d="M16.842 14.648c.454 0 .82-.349.82-.778s-.366-.779-.82-.779-.82.349-.82.779.367.778.82.778"/>
    <path fill="#361822" d="M12.253 6.283c-.318.026-.598-.556-.699-.847l-.08 1.133.514.963c-.132-.301.159-.56.323-.656l.037-.307c.106-.106.222-.318-.095-.286"/>
    <path fill="#9A634E" d="M13.053 8.136c.079-.01.158-.434.185-.646.106-.02.286-.01.2.17-.105.222.366.677.154.693a.43.43 0 0 0-.322.217c.047.138.195.424.439.455.243.032.535.016.651 0l-.37.212c-.117.133-.398.381-.583.323-.19-.058-.566-.688-.73-.99l-.81-1.207.19-.47c-.016.052-.01.253.159.624.222.466.73.64.837.624z"/>
    <path fill="#CCB98E" d="M13.047 6.707c-.096-.149-.45.227-.614.434.132-.34.571-.937.704-.773.132.159.143.836.164 1.154l-.159.037c.005-.222.005-.71-.095-.852"/>
    <path fill="#A2776E" d="M13.571 8.718c-.164 0-.17-.127-.159-.19-.02.01-.005-.005.265-.09.699-.212.747-.106.921-.08-.249.106-.857.36-1.027.36"/>
    <path fill="#A2776E" d="M13.952 8.77c-.196.08-.413-.015-.46-.02.015.063.105.195.338.222.239.026.578-.302.715-.472a9 9 0 0 1-.593.276z"/>
    <path fill="#390800" d="M13.2 8.766a.41.41 0 0 1 .27-.456c.334-.116.917-.27 1.303.106-.265-.19-.635-.053-.91.053-.122.042-.228.08-.297.085-.18 0-.318.143-.37.212zm.191.105c.196.053.646.08.874-.174-.355.74-.73.423-.874.174"/>
    <path fill="url(#PEOPLE__e)" d="M9.013 8.824H3.561l.195-.366h5.172c.19 0 .196-.105.175-.158V3.488l.46-.175v5.14l-.206.365h-.344z"/>
    <path fill="#CFBB96" d="M9.182 8.465h-5.42l.132-.339h4.928V3.57l.36-.122z"/>
    <path fill="#401D07" d="M8.822 8.134H3.883c.037-.106.085-.2.106-.227h4.452V3.725c.148-.085.297-.127.381-.16z"/>
    <path fill="#D8C19E" d="M4.17 7.57c-.053.084-.132.264-.17.344l4.447.005V3.71l-.153.043V7.57z"/>
    <path fill="#DDB963" d="M7.235 4.25c-.837.349-2.028 1.62-2.578 2.456h2.578z"/>
    <path fill="#301617" d="M4.668 6.706c-.111.127-.376.667-.487.873h4.113V3.757c-.175.043-.82.355-1.059.498v2.45z"/>
    <path fill="#E7D0B1" d="M9.225 10.941H3.08c-.016.106-.026.265-.032.34h5.776v2.598l.402-.153z"/>
    <path fill="#3B2323" d="M3.053 11.263a7 7 0 0 0-.037.762h5.188v2.256l.62-.43v-2.583h-5.77z"/>
    <path fill="#71524D" d="M3.338 11.47h4.42v.154h-4.42z"/>
    <path fill="#AC8F71" d="M8.294 11.668h.275v2.265h-.275z"/>
    <path fill="url(#PEOPLE__f)" d="m9.374 13.227-4.807 3.811.238.35.254.317 3.182-2.7 9.973-7.675 2.604 2.98-.132-.699-2.625-3.366z"/>
    <path fill="#301900" d="m3.132 10.534-.053.397 6.14.01v2.594l.435-.17v-2.328l-.503-.503z"/>
    <path fill="#4A1F0F" d="m3.894 12.65-.884-.624c-.08.746.334 2.816.884 3.832z"/>
    <path fill="#EAD697" d="m3.878 12.65-.868-.624h5.23l-.751.624z"/>
    <path fill="#59301E" d="M7.483 14.832V12.64l.742-.63v2.234z"/>
    <path fill="#D09F52" d="M3.879 12.645v3.192c.026.08.159.297.228.397h1.577l1.821-1.376v-2.213z"/>
    <path fill="#2C1608" d="M4.572 17.044a15 15 0 0 1-.487-.81h1.604z"/>
    <path fill="#1C0D0A" d="M11.914 3.907V3h-.587l.211 1.562.371-.656z"/>
    <path fill="#1B1107" d="M9.315 9.942c-.106-.302.01-.62.217-.842.106-.106.223-.19.339-.238q.182-.066.302-.01c.301.131.44.438.466.581l.174-.042a1.06 1.06 0 0 0-.571-.704.57.57 0 0 0-.43.01 1.06 1.06 0 0 0-.407.286c-.238.254-.392.636-.254 1.022.117.312.387.492.662.598.28.106.571.138.762.133v-.175c-.175 0-.445-.027-.699-.122s-.47-.249-.56-.497m1.202.407c-.021.01-.588-.005-.794-.307-.212-.302-.085-.98.333-.974.424 0 .704.715.46 1.281"/>
    <path fill="#39201B" d="M10.126 11.55c-.027-.784-.212-1.053-.297-1.09 1.752.301 1.112 1.296 1.08 1.328l-.492.794c-.085-.021-.265-.249-.291-1.032"/>
    <path fill="#141416" d="M11.464 8.505c.37-.302.196-1.244.058-1.678a42 42 0 0 0 1.567 2.546c.34.46.64.434.752.36l-3.308 2.81.1-.582c.26-.847-.55-1.778-.55-2.461 0-.688.91-.62 1.376-.995z"/>
    <path fill="#BC8F65" d="M15.143 3.551c-.969-.47-2.716-.56-3.467-.55l.17.953c.147-.032.619-.106 1.344-.175.73-.069 1.604.492 1.953.778z"/>
    <path fill="#1B0000" d="M15.122 4.545V3.54c.148.031.44.169.561.232l-.164.53.222.53z"/>
    <path fill="#100000" d="M17.472 6.824v-1.98l.392.318v1.344z"/>
    <path fill="#D6BD9E" d="m17.854 5.14.244.232v.937l-.244.19z"/>
    <path fill="#4F2D11" d="m18.092 5.368.333.307v1.064l-.333-.424z"/>
    <path fill="#B38971" d="M18.425 6.732V5.673l.233.25v1.1z"/>
    <path fill="#240C00" d="M18.659 7.033V5.921c.444.397 1.027 1.35 1.265 1.78h-.73l-.53-.668z"/>
    <path fill="#E4DAB6" d="M13.82 6.123c.016-.068.09-.211.307-.248.212-.032.36-.01.408 0-.032.095-.138.296-.291.328l-.053.01c-.18.038-.37.075-.37-.09m-1.503.493c.111-.1.37-.297.492-.313.159-.015.08.556-.386.583a.2.2 0 0 1-.127-.053c-.037-.032 0-.159.02-.217"/>
    <path fill="#390800" fill-rule="evenodd" d="M11.629 6.003c.212.365.212 1.101.18 1.424-.688-.678-.71-1.694-.72-2.033v-.026c-.005-.318.72-1.504.8-1.54l.068-.054c.228-.174.948-.725 1.784-.56.672.132 1.006.492 1.234.74.095.106.174.186.254.228.27.143.529.46.746.847.159.286.175 1.048.159 1.45-.006-.079-.058-.19-.223-.285-.248-.149-.264.264-.264.518v.265c0 .127 0 .207-.043.18-.058-.032-.079-.275-.079-.392.026-.751-.18-1.048-.275-1.185l-.021-.027-.053-.106c-.149-.333-.583-1.265-1.435-1.265a2.66 2.66 0 0 0-1.715.614c-.069.074-.667.757-.397 1.207m1.964.074-.223-.286c.16.032.323-.053.493-.137.122-.064.243-.127.37-.149a.62.62 0 0 1 .53.143l-.138-.02a.68.68 0 0 0-.566.227c.095-.032.227-.053.407-.043l.164.064h-.053a.53.53 0 0 1-.264.312l.031-.031a.2.2 0 0 1-.068.015c-.106 0-.186-.068-.186-.142a.12.12 0 0 1 .048-.096.5.5 0 0 0-.227.106c-.043.1-.038.254-.032.334l-.032-.101c-.042-.206-.185-.212-.254-.196m.74-.185.202-.016a.5.5 0 0 1-.08.154c0-.064-.047-.117-.116-.138zm-2.064.28c-.307.154-.391.387-.397.487.143-.211.477-.317.62-.349a.67.67 0 0 0-.276.35.265.265 0 0 0 .106.306v-.068c.133.053.334-.07.424-.138a.54.54 0 0 1-.424.058v-.11c.01-.086.122-.176.265-.24l-.01.011c-.027.053-.054.16.037.207.121.053.343-.053.285-.207a.13.13 0 0 0-.084-.079.6.6 0 0 1 .158-.01c.101.01.149.042.175.074l.021.09c.043.18.074.37.074.529-.005.318-.047.386-.063.381-.043.095-.069.302.122.35.132.037.185-.022.243-.09.048-.053.1-.117.207-.133l.132-.01c.148-.011.233-.022.233-.18 0-.202-.424-.212-.498-.085-.08.122-.28.185-.317.042-.011-.037-.011-.095-.016-.174a3 3 0 0 0-.127-.805l-.016-.244c-.01-.29-.477-.153-.868.037z" clip-rule="evenodd"/>
    <path fill="#5D3E2C" d="M12.815 3.477c-.36.132-.561.44-.614.577.497-.434 1.831-.318 2.435-.212l-.572-.37a2.3 2.3 0 0 0-1.25 0z"/>
    <defs>
        <linearGradient id="PEOPLE__a" x1="4.948" x2="17.405" y1="14.123" y2="14.952" gradientUnits="userSpaceOnUse">
            <stop stop-color="#E8D394"/>
            <stop offset=".52" stop-color="#E4E1B3"/>
            <stop offset="1" stop-color="#E2D07A"/>
        </linearGradient>
        <linearGradient id="PEOPLE__b" x1="9.063" x2="17.751" y1="10.585" y2="19.129" gradientUnits="userSpaceOnUse">
            <stop stop-color="#B69961"/>
            <stop offset=".17" stop-color="#90703F"/>
            <stop offset=".36" stop-color="#CFB885"/>
            <stop offset=".5" stop-color="#95713A"/>
            <stop offset=".71" stop-color="#E0D792"/>
            <stop offset="1" stop-color="#DBC07D"/>
        </linearGradient>
        <linearGradient id="PEOPLE__c" x1="12" x2="12" y1="3.001" y2="20.787" gradientUnits="userSpaceOnUse">
            <stop stop-color="#664F41"/>
            <stop offset=".33" stop-color="#745A37"/>
            <stop offset=".74" stop-color="#948149"/>
        </linearGradient>
        <linearGradient id="PEOPLE__d" x1="4.671" x2="19.555" y1="19.799" y2="11.219" gradientUnits="userSpaceOnUse">
            <stop stop-color="#12140D"/>
            <stop offset=".83" stop-color="#4A3D25"/>
            <stop offset="1" stop-color="#846E40"/>
        </linearGradient>
        <linearGradient id="PEOPLE__e" x1="9.746" x2="22.562" y1="21.76" y2="7.291" gradientUnits="userSpaceOnUse">
            <stop stop-color="#23150A"/>
            <stop offset="1" stop-color="#241500"/>
        </linearGradient>
        <linearGradient id="PEOPLE__f" x1="12.024" x2="-.553" y1="2.999" y2="15.522" gradientUnits="userSpaceOnUse">
            <stop stop-color="#2F2218"/>
            <stop offset="1" stop-color="#12140D"/>
        </linearGradient>
    </defs>
</svg>
