<svg xmlns="http://www.w3.org/2000/svg" width="24" height="24" fill="none" viewBox="0 0 24 24">
    <path fill="url(#PER__a)" d="M12 19.457A8.229 8.229 0 1 0 12 3a8.229 8.229 0 0 0 0 16.457"/>
    <path fill="url(#PER__b)" d="m3.828 10.251-.026.288c1.224-1.044 4.29-2.91 7.606-2.91 2.69 0 4.233 1.542 4.665 2.334l-.432 3.405-4.83 2.664-.354.272v-6.156a.97.97 0 0 0-1.939 0v8.537a8 8 0 0 0 1.939.617v-1.697c2.5-.329 6.685-1.825 6.685-5.95 0-1.568-1.162-3.266-1.779-3.914l-3.24-.94-3.646.55-2.808 1.445z"/>
    <path fill="url(#PER__c)" d="m3.843 10.05-.03.258c1.774-1.687 5.07-2.942 7.492-2.942 2.495 0 4.295 1.492 4.295 3.323 0 2.684-3.965 3.96-5.657 4.201V10.2a1.029 1.029 0 1 0-2.057 0v9.771a1.028 1.028 0 1 0 2.057 0v-3.096c6.48-1.532 7.2-4.926 7.2-5.96 0-1.029-.767-4.315-5.514-4.315-3.435 0-6.402 2.098-7.786 3.45"/>
    <defs>
        <linearGradient id="PER__a" x1="18.331" x2="3.919" y1="6.589" y2="14.656" gradientUnits="userSpaceOnUse">
            <stop stop-color="#FD2307"/>
            <stop offset="1" stop-color="#FDB106"/>
        </linearGradient>
        <linearGradient id="PER__b" x1="17.513" x2="9.632" y1="3.896" y2="19.709" gradientUnits="userSpaceOnUse">
            <stop stop-color="#E67F5E"/>
            <stop offset="1" stop-color="#FCC252"/>
        </linearGradient>
        <linearGradient id="PER__c" x1="9.783" x2="8.621" y1="17.95" y2="20.738" gradientUnits="userSpaceOnUse">
            <stop stop-color="#FEFEFC"/>
            <stop offset="1" stop-color="#FFC125"/>
        </linearGradient>
    </defs>
</svg>
