<svg xmlns="http://www.w3.org/2000/svg" width="24" height="24" fill="none" viewBox="0 0 24 24">
    <path fill="url(#PEX__a)" d="m11.244 10.366-.154.2c-.678.867-1.69 2.164-1.737 2.932-.069 1.112 1.218 2.208 2.647 2.208 1.43 0 2.716-1.096 2.647-2.208-.047-.768-1.059-2.07-1.736-2.938l-.392-.508c-.111-.154-.323-.17-.519-.17-.17-.005-.428.048-.518.17a9 9 0 0 1-.238.314"/>
    <path fill="url(#PEX__b)" fill-rule="evenodd" d="M20.343 12.164a8.343 8.343 0 1 1-16.687 0 8.343 8.343 0 0 1 16.687 0m-6.745-5.458c-.37.413-1.122 1.308-1.175 1.589h.37l1.96-1.589zm-1.683 1.589h.17c.656.01 1.29.25 1.789.677q.128.122.233.265a24 24 0 0 1 1.318 2.091l.024.042c.144.248.273.47.383.646a3.37 3.37 0 0 1 0 3.193A4.35 4.35 0 0 1 12 17.295a4.35 4.35 0 0 1-3.833-2.086 3.37 3.37 0 0 1 0-3.193c.116-.185.254-.423.402-.688l.067-.114c.354-.6.784-1.33 1.257-1.977.54-.741 1.519-.932 2.022-.942" clip-rule="evenodd"/>
    <path fill="url(#PEX__c)" fill-rule="evenodd" d="M12 20.345a8.345 8.345 0 1 0-.001-16.69 8.345 8.345 0 0 0 0 16.69m0-.704a7.639 7.639 0 1 0 0-15.278 7.639 7.639 0 0 0 0 15.278" clip-rule="evenodd"/>
    <path fill="url(#PEX__d)" fill-rule="evenodd" d="M12 21a9 9 0 1 0 0-18 9 9 0 0 0 0 18m0-.794a8.206 8.206 0 1 0 0-16.413 8.206 8.206 0 0 0 0 16.413" clip-rule="evenodd"/>
    <defs>
        <linearGradient id="PEX__a" x1="8.379" x2="12.634" y1="5.33" y2="13.793" gradientUnits="userSpaceOnUse">
            <stop stop-color="#C2F2DF"/>
            <stop offset="1" stop-color="#0DB775"/>
        </linearGradient>
        <linearGradient id="PEX__b" x1="8.379" x2="12.633" y1="5.33" y2="13.794" gradientUnits="userSpaceOnUse">
            <stop stop-color="#C2F2DF"/>
            <stop offset="1" stop-color="#0DB775"/>
        </linearGradient>
        <linearGradient id="PEX__c" x1="2.206" x2="20.492" y1="10.117" y2="14.297" gradientUnits="userSpaceOnUse">
            <stop stop-color="#05462E"/>
            <stop offset="1" stop-color="#23C49B"/>
        </linearGradient>
        <linearGradient id="PEX__d" x1="7.219" x2="14.118" y1="4.456" y2="20.571" gradientUnits="userSpaceOnUse">
            <stop stop-color="#24C998"/>
            <stop offset="1" stop-color="#2EAD7B"/>
        </linearGradient>
    </defs>
</svg>
