<svg xmlns="http://www.w3.org/2000/svg" width="24" height="24" fill="none" viewBox="0 0 24 24">
    <path fill="url(#PEX__a)" d="m11.16 10.184-.171.222c-.754.965-1.877 2.406-1.93 3.259-.076 1.235 1.353 2.453 2.941 2.453s3.018-1.218 2.941-2.453c-.053-.853-1.176-2.3-1.929-3.265l-.435-.565c-.124-.17-.36-.188-.577-.188-.188-.006-.476.053-.576.188a10 10 0 0 1-.264.35"/>
    <path fill="url(#PEX__b)" fill-rule="evenodd" d="M21.27 12.182a9.27 9.27 0 1 1-18.54 0 9.27 9.27 0 1 1 18.54 0m-7.494-6.064c-.411.458-1.247 1.453-1.306 1.764h.412l2.177-1.764zm-1.87 1.764h.188c.73.012 1.434.278 1.988.753q.143.136.26.294a26 26 0 0 1 1.464 2.324l.027.046c.16.276.303.524.426.719a3.75 3.75 0 0 1 0 3.547A4.84 4.84 0 0 1 12 17.882a4.84 4.84 0 0 1-4.259-2.317 3.75 3.75 0 0 1 0-3.547c.13-.206.282-.471.447-.765l.075-.127c.392-.666.87-1.478 1.396-2.197.6-.823 1.688-1.035 2.247-1.047" clip-rule="evenodd"/>
    <path fill="url(#PEX__c)" fill-rule="evenodd" d="M12 21.27a9.271 9.271 0 1 0 0-18.542 9.271 9.271 0 0 0 0 18.543m0-.782a8.488 8.488 0 1 0 0-16.975 8.488 8.488 0 0 0 0 16.975" clip-rule="evenodd"/>
    <path fill="url(#PEX__d)" fill-rule="evenodd" d="M12 22a10 10 0 1 0 0-20 10 10 0 0 0 0 20m0-.882A9.118 9.118 0 1 0 12 2.88a9.118 9.118 0 0 0 0 18.237" clip-rule="evenodd"/>
    <defs>
        <linearGradient id="PEX__a" x1="7.977" x2="12.704" y1="4.589" y2="13.992" gradientUnits="userSpaceOnUse">
            <stop stop-color="#C2F2DF"/>
            <stop offset="1" stop-color="#0DB775"/>
        </linearGradient>
        <linearGradient id="PEX__b" x1="7.977" x2="12.704" y1="4.589" y2="13.992" gradientUnits="userSpaceOnUse">
            <stop stop-color="#C2F2DF"/>
            <stop offset="1" stop-color="#0DB775"/>
        </linearGradient>
        <linearGradient id="PEX__c" x1="1.118" x2="21.435" y1="9.906" y2="14.551" gradientUnits="userSpaceOnUse">
            <stop stop-color="#05462E"/>
            <stop offset="1" stop-color="#23C49B"/>
        </linearGradient>
        <linearGradient id="PEX__d" x1="6.688" x2="14.353" y1="3.618" y2="21.523" gradientUnits="userSpaceOnUse">
            <stop stop-color="#24C998"/>
            <stop offset="1" stop-color="#2EAD7B"/>
        </linearGradient>
    </defs>
</svg>
