<svg xmlns="http://www.w3.org/2000/svg" width="24" height="24" fill="none" viewBox="0 0 24 24">
    <path fill="#03EDAE" d="M2.537 16.451c.477-.555 1.948-1.225 4.515-1.225h4.676c3.419.006 10.256-1.703 10.256-7.296.168-1.87-.929-5.605-6.67-5.605s-7.92 1.716-8.9 3.567l-4.18 10.392a.17.17 0 0 0 .16.232c.059 0 .11-.026.143-.065m5.915-4.863L9.89 7.595a.5.5 0 0 1 .077-.129c.387-.458 2.135-1.27 3.825-1.27h.084c2.168 0 4.25 0 4.25 1.69 0 1.715-2.495 3.47-5.624 3.47H9.73c-.49 0-.903.129-1.142.193z"/>
    <path fill="url(#PGX__a)" d="M8.026 21.005c-.342.774-1.045.664-1.47.664-3.871 0-4.645-1.509-4.548-2.27.832-2.98 6.45-2.883 7.179-2.883.587 0 .593.425.522.645z"/>
    <defs>
        <linearGradient id="PGX__a" x1="4.53" x2="6.194" y1="16.82" y2="21.76" gradientUnits="userSpaceOnUse">
            <stop stop-color="#202D52"/>
            <stop offset="1" stop-color="#05D8A8"/>
        </linearGradient>
    </defs>
</svg>
