<svg xmlns="http://www.w3.org/2000/svg" width="24" height="24" fill="none" viewBox="0 0 24 24">
    <path fill="#F95192" d="M19.275 7.475 18.75 5.75l-.525 1.725L16.5 8l1.725.525.525 1.725.525-1.725L21 8zM6.5 8.125c0-.205.155-.375.35-.375h2.8c.195 0 .35.17.35.375s-.155.375-.35.375h-2.8c-.195 0-.35-.17-.35-.375m6.5 0c0-.205.155-.375.35-.375h2.8c.195 0 .35.17.35.375s-.155.375-.35.375h-2.8c-.195 0-.35-.17-.35-.375M7.5 9.99c0-.41.335-.74.75-.74s.75.33.75.74v2.52a.75.75 0 0 1-1.5 0zm6.5 0c0-.41.335-.74.75-.74s.75.33.75.74v2.52a.75.75 0 0 1-1.5 0zm-8 2.76a1.5 1.5 0 1 1-3 0 1.5 1.5 0 0 1 3 0m12.5 1.5a1.5 1.5 0 1 0 0-3 1.5 1.5 0 0 0 0 3m-3.6 2.17c.15.205.13.515-.05.685-.45.42-1.68 1.145-3.44 1.145-1.75 0-2.89-.725-3.285-1.175a.53.53 0 0 1 0-.685.4.4 0 0 1 .61 0c.21.24 1.11.89 2.675.89s2.6-.65 2.88-.915a.4.4 0 0 1 .61.055"/>
</svg>
