<svg xmlns="http://www.w3.org/2000/svg" width="24" height="24" fill="none" viewBox="0 0 24 24">
    <path fill="#020202" d="M5.794 21.567c-.097-.14 1.079-.255 1.176-.273q.156.01.12-.279c-.03-.14.013-.236.122-.279.024-.012.03-.024.03-.048l-.018-.024a.04.04 0 0 0-.024 0c-.14.012-.279.006-.412-.03-1.467-.425-2.407-1.31-2.819-2.668-.23-.723-.2-1.503.085-2.206a3.06 3.06 0 0 1 2.091-1.921c.037-.013.073 0 .103.024.043.03.06.078.049.127 0 .048.012.06.06.06a3.7 3.7 0 0 1 1.03-.018c.28.03.704.073.783.388.066.28-.085.43-.303.558-1.073.624-1.813 1.515-1.837 2.788a2.51 2.51 0 0 0 1.121 2.158q.036.044.061-.012.046-.138-.06-.267c-.213-1.133.284-2.497 1.303-3.085a.7.7 0 0 0 .315-.497c.073-.606.194-1.237.2-1.873 0-.594.018-1.115-.26-1.667l-.565-1.152a12 12 0 0 1-.975-3.394c0-.012.012-.024.024-.036l.49-.382q.046-.037 0-.073a.55.55 0 0 1-.181-.273q-.537-1.792-.146-3.54c.116-.503.691-.612 1.055-.284q.874.78 1.43 1.545c.037.049.061.043.061-.018.024-.236-.09-.558 0-.752.115-.236.06-.624.018-.878-.03-.207.249-.467.395-.588.254-.213.187-.667.63-.685.333-.012.715-.019 1.145-.006.334.006 1.03.103 1.31.309l.042.048c.012.03.036.049.067.049.394.006.788 0 1.182-.03.382-.025.77.012 1.151.036.043 0 .073.024.091.06.079.164.28.813.26.922-.005.03.007.054.037.06.164.073.243.2.249.376v.424c-.012.2.03.564-.049.734a.7.7 0 0 0-.06.242q-.019.274.182.085.572-.574 1.182-1.285c.133-.157.315-.303.533-.454.303-.194.721-.019.837.284.266.697.363 1.455.272 2.261-.036.285-.121.667-.248 1.164a1 1 0 0 1-.08.2c-.023.037-.035.079-.054.121q-.02.065.043.11l.267.175c.048.03.072.08.06.14a12.2 12.2 0 0 1-1.564 4.503c-.315.528-.485 1.061-.363 1.685.054.237.078.485.084.728a6.8 6.8 0 0 0 .219 1.503l.048.042c1.352.728 1.473 2 1.34 3.383-.019.218-.14.394-.128.606a.18.18 0 0 0 .049.12c.151.17.242.365.279.595.042.315.582.267.8.267.163.006-.08.279-.176.279-1.206 0-2.424.242-3.643.242q-2.51.018-6.4 0c-.552 0-1.067-.024-1.558-.073-.776-.079-1.952 0-2.558-.351"/>
    <path fill="#6703BF" d="m12.934 2.388.29.043c.061.012.073.036.013.079-.122.072-.219.17-.364.175h-.594a2.8 2.8 0 0 0-.606.055 6 6 0 0 1-1.055.097c-.085 0-.11-.036-.06-.115l.278-.424a.3.3 0 0 1 .273-.152c.467 0 1.352-.079 1.758.218a.1.1 0 0 0 .06.024zm2.654.17a.19.19 0 0 1 .17.152q.082.338.255.666c.09.158.048.2-.122.134-.8-.303-1.703-.746-2.588-.703-.024 0-.079-.067-.042-.085.23-.079.442-.018.69-.073a5.7 5.7 0 0 1 1.637-.09"/>
    <path fill="#6703BF" d="M16.183 3.874a.164.164 0 0 1 .17.139c0 .03 0 .06-.013.079a1.2 1.2 0 0 0-.06.442c.012.134-.013.273-.055.418a.9.9 0 0 0 0 .57c0 .037-.036.073-.073.06a14 14 0 0 0-.824-.35c-1.03-.389-1.067-.455-2.485-.698-.164-.048-1.006-.14-1.188-.133h-1.46c-.17 0-.037-.182-.037-.26q.039-.48-.018-.958c.078-.23.848-.225 1.018-.23a69 69 0 0 1 2.503.005c.673.018 1.716.922 2.522.91z"/>
    <path fill="#4CC326" d="M9.17 6.534c-.819-.94-.819-.539-.582.407l-.515.412c-.067.054-.122.048-.176-.025a1 1 0 0 1-.115-.236 6.1 6.1 0 0 1-.303-2.255c.018-.345.09-.97.37-1.206.03-.018.06-.03.096-.024.71.121 1.649 1.582 2 2.242q.054.092-.03.146zm8.855.455c.285-.824 0-1.23-.533-.352l-.764-.52a.12.12 0 0 1-.036-.164 7.6 7.6 0 0 1 1.382-1.758c.17-.164.503-.291.685-.097.133.145.242.624.242.83q.009.701-.018 1.237a5.4 5.4 0 0 1-.255 1.248c-.012.037-.036.043-.066.03a2.2 2.2 0 0 1-.637-.454"/>
    <path fill="#6703BF" d="M14.577 5.14q.182.084.4.122c.03.012.006.078-.018.078q-.59.002-1.17-.042c-.497-.036-.988.036-1.485.042-.534.006-1.06.194-1.57.34-.63.182-.636-.57-.546-.94a.1.1 0 0 1 .085-.066c.764-.08 1.48.024 2.243.006.564-.012 1.528.23 2.06.46"/>
    <path fill="#fff" d="m9.17 6.534-.583.407a2.84 2.84 0 0 1-.424-1.413.1.1 0 0 1 .043-.048l.036-.012q.32.002.485.303c.133.242.285.503.442.763"/>
    <path fill="#4CC326" d="M13.091 5.516c.03 1.243.255 1.473.364-.012a8 8 0 0 1 2.133.09c.219.025.352.098.546.17a.16.16 0 0 1 .073.061c.097.182.12.346.315.48q.59.415 2.334 1.605c.109.08.163.152.157.225q-.136.029-.254.194c-.667.915-1.304 1.94-2.08 2.74-.254.266-.587.515-.97.405-2.242-.666-3.054.419-5-.12a.25.25 0 0 1-.097-.055c-.994-.867-1.8-1.982-2.618-3-.08-.098-.255-.17-.54-.225l2.43-1.685a1.04 1.04 0 0 0 .377-.412.12.12 0 0 1 .084-.067c.17-.036.346-.024.522-.073a13 13 0 0 1 1.551-.339q.272-.034.68.012z"/>
    <path fill="#006413" d="m13.091 5.516.364-.012-.09 1.194a.08.08 0 0 1-.042.06.08.08 0 0 1-.086 0 .25.25 0 0 1-.06-.133 11 11 0 0 1-.08-1.115z"/>
    <path fill="#fff" d="m18.025 6.989-.533-.352q.21-.508.363-.709a1.1 1.1 0 0 1 .316-.29.14.14 0 0 1 .188.048l.018.073c.006.503-.11.909-.352 1.23M7.455 8.074c.284.055.46.127.539.224.818 1.019 1.624 2.134 2.618 3 .303.267.54-.32.679-.466.46-.503.667-1.273 1.182-1.728.303-.266.606-.357.94-.272a1.1 1.1 0 0 1 .703.515c.188.333.533.77.848 1.2l.66.867c.025.03.05.048.086.06.382.11.715-.139.97-.406.775-.806 1.418-1.818 2.079-2.74q.117-.165.254-.193-.036.572-.182 1.163a11.3 11.3 0 0 1-1.873 3.995q-.144.198-.697.752a6.1 6.1 0 0 1-2.388 1.485 2.3 2.3 0 0 1-.703.12c-.17 0-.527-.12-1.06-.363q.045-.198-.183-.352a6.2 6.2 0 0 1-1.588-1.709 27 27 0 0 1-2.042-3.6A4.9 4.9 0 0 0 7.49 8.31c.019-.06 0-.139-.036-.236"/>
    <path fill="#D5D0D1" d="M7.49 8.304c.285.316.552.752.806 1.322a27 27 0 0 0 2.043 3.6c.394.606.97 1.297 1.582 1.71q.235.153.188.351l-.746-.43a5 5 0 0 1-1.042-.764c-.2-.206-.412-.412-.594-.643A11.3 11.3 0 0 1 7.49 8.31z"/>
    <path fill="#4CC326" d="m9.831 14.038.103.68-.618-.4a.11.11 0 0 1-.049-.092l-.024-.836c0-.06.018-.079.073-.03q.308.289.515.678m6.656.794-.055-.57.606-.636c.06-.066.097-.06.097.037l.006.727a.19.19 0 0 1-.121.188z"/>
    <path fill="#fff" d="m9.83 14.039.352.284c.122.303.613.491.867.673.237.17.437.303.606.388a8 8 0 0 0 1.455.582q.09.027.273-.018a6.63 6.63 0 0 0 3.049-1.685l.054.57-2.86 1.454c-.231-.036-.728.085-.85.03l-2.842-1.6zm-1.939.496a2.18 2.18 0 0 0-1.412.316c-.333.212-.479.642-.752.927-.12.133-.206.11-.242-.067l-.012-.079a.07.07 0 0 0-.036-.057.07.07 0 0 0-.067-.003.42.42 0 0 0-.225.242 4.06 4.06 0 0 0-.078 2.546c.12.425.454.946.775 1.237l.516.448a.3.3 0 0 0 .09.049q.219.054.273.182a2.1 2.1 0 0 1-.885-.322l-.442-.34a3.3 3.3 0 0 1-1.249-2.302 2.96 2.96 0 0 1 1.8-3.122c.061-.024.073-.012.025.036a.34.34 0 0 0-.06.358.09.09 0 0 0 .06.055.09.09 0 0 0 .079-.03c.381-.498 1.272-.383 1.782-.195.03.012.048.03.06.067z"/>
    <path fill="#6703BF" d="M12.474 16.305q.036.028.018.073l-.225.406a.104.104 0 0 1-.133.049l-1.867-.691-.364-.115c-.29-.08-.545-.243-.848-.285a.1.1 0 0 1-.067-.043.1.1 0 0 1-.012-.079q.146-.61.146-1.175c0-.055.024-.061.06-.03.928.727 2.291 1.333 3.291 1.896z"/>
    <path fill="#4CC326" d="M7.89 14.535a.22.22 0 0 1-.096.146c-.624.34-1.155.83-1.546 1.424-.448.691-.697 1.661-.424 2.407.23.612.697 1.588 1.449 1.685q.081.016.09.097v.03a.07.07 0 0 1-.036.079 1.3 1.3 0 0 1-.606-.121q-.054-.135-.273-.188a.2.2 0 0 1-.09-.049 14 14 0 0 1-.516-.448 3.1 3.1 0 0 1-.776-1.237 4.06 4.06 0 0 1 .079-2.546.4.4 0 0 1 .224-.242.073.073 0 0 1 .103.06l.018.08c.03.175.116.2.243.066.267-.285.412-.715.746-.927.42-.263.919-.374 1.412-.316"/>
    <path fill="#6703BF" d="m17.335 15.905-3.213.982a.043.043 0 0 1-.055-.024l-.224-.424a.042.042 0 0 1 .018-.06l3.455-1.795c.037-.018.073.006.067.042l-.03 1.237q0 .015-.008.026a.04.04 0 0 1-.022.016z"/>
    <path fill="#4CC326" d="M9.782 16.142c0 .273-.043.709-.115 1.303a5.27 5.27 0 0 0 .545 2.921c-.588-.363-.945-.951-1.073-1.775a3.5 3.5 0 0 0-.327-1.11l.218-1.406q.026-.183.206-.121l.546.182zm7.855 1.715c0 .121-.036.182-.109.194a.12.12 0 0 0-.078.06c-.073.122-.061.273-.091.389q-.156.564-.364 1.09c-.158.389-.46.637-.71.958-.127.17-.32.255-.478.413q-.075.072-.376.163a.24.24 0 0 1-.06-.17c.048.049.12.043.187-.012.38-.288.664-.683.819-1.133a5.9 5.9 0 0 0 .303-2.528 4.4 4.4 0 0 0-.158-.97l.794-.212c.043-.012.06 0 .067.043l.248 1.715z"/>
    <path fill="#fff" d="m9.782 16.142 2.327.818c.03.012.055.03.06.06l.146.304c.012.145.06.266.133.363v1.94q.002.329.104.758c.084.345 0 .57-.261.685l-.194.272q-.22.01-.321-.109c.006-.066-.049-.273-.152-.145a1.26 1.26 0 0 0-.242.551c-.018.08-.224.146-.255.043-.054-.206-.036-.376.043-.51.218-.35.527-.393.909-.484.109-.024.121-.073.018-.134-.085-.048-.206-.03-.26-.109a1.5 1.5 0 0 1-.219-.412 12.7 12.7 0 0 1-.63-2.867c0-.036-.079-.206-.146-.17l-.009.011-.003.014a8.05 8.05 0 0 0 .667 3.467c0 .03-.024.06-.049.072a1 1 0 0 0-.515.473l-.715-.667a5.27 5.27 0 0 1-.546-2.921q.1-.892.11-1.303"/>
    <path fill="#D59828" d="M13.491 16.239a.34.34 0 0 0 .134.048c-.146.018-.097.073.139.17.03.006.049.03.06.055l.237.46c.006.018.012.043.006.06l-.103.461-.109.158-.242.121c-.219.146-.825.219-1-.072-.019-.025-.043-.037-.073-.025-.024 0-.037.025-.037.049l-.06-.03a.8.8 0 0 1-.127-.364c-.128-.394.024-.728.46-1.012q.12.053.14-.049c.2.018.393.012.575-.03"/>
    <path fill="#fff" d="M16.522 16.305q.11.347.164.976a5.9 5.9 0 0 1-.303 2.528 2.45 2.45 0 0 1-.824 1.133c-.073.061-.14.061-.194.012l-.473-.424a.08.08 0 0 1-.024-.09 9.1 9.1 0 0 0 .666-3.365c.006-.054-.018-.066-.06-.036l-.03.018a.21.21 0 0 0-.092.145c-.157 1.055-.333 2.061-.715 3.067-.072.182-.206.28-.4.267-.012 0-.024 0-.03.012-.03.03-.018.103 0 .128a.2.2 0 0 0 .06.036c.322.03.68.121.85.406.035.067.12.212.144.285.049.164-.212.346-.345.333q-.062-.002-.06-.066v-.225a.14.14 0 0 0-.037-.096.35.35 0 0 1-.085-.207q-.01-.072-.085-.072c-.145 0-.345.097-.133.254q.046.026.054.079c.025.097.03.194.019.279a.055.055 0 0 1-.055.048h-.303q-.055-.008-.048-.06a.67.67 0 0 0-.146-.558.64.64 0 0 0-.212-.242.11.11 0 0 1-.048-.085c-.013-.46.157-.885.157-1.322a17 17 0 0 0-.079-1.812l.11-.158c.06-.284.187-.46.393-.52z"/>
    <path fill="#4CC326" d="M8.461 17.778a2.74 2.74 0 0 0-.303 2.34q.089.3-.212.4a.16.16 0 0 1 .079-.158.04.04 0 0 0 .018-.054.1.1 0 0 0-.024-.024.07.07 0 0 0-.049-.019l-.26.025c-.14.006-.206-.06-.212-.188a6 6 0 0 0-.049-.697 2.67 2.67 0 0 1 1.073-2.588c.085-.061.115-.037.097.06zm9.82 2.492q.134-.846.042-1.71a1.33 1.33 0 0 0-.388-.83 2.3 2.3 0 0 1-.145-.812.06.06 0 0 1 .028-.043.06.06 0 0 1 .05-.006q.11.046.2.127c.453.398.742.948.813 1.546a5.7 5.7 0 0 1-.037 1.54q-.026.209-.242.2z"/>
    <path fill="#4AA223" d="M8.812 17.481c.146.267.255.643.328 1.11.121.824.485 1.418 1.079 1.775l.715.667a.85.85 0 0 0-.097.382c0 .049-.03.067-.079.06-.133-.005-.254.025-.376-.054-.14-.085-.278-.085-.406-.188a3.4 3.4 0 0 1-1.273-2.424q-.025-.674.11-1.334z"/>
    <path fill="#D5D0D1" d="M13.855 17.651q.089.91.079 1.812c0 .437-.17.861-.158 1.322 0 .036.018.06.049.085a.66.66 0 0 1 .212.242c-.097-.055-.146-.018-.146.097 0 .043 0 .085.013.121q.045.173.018.364-.009.061-.073.06c-.182-.024-.51-.018-.51-.242.02-1.127 0-2.26-.066-3.413 0-.036.012-.06.049-.078a.65.65 0 0 0 .285-.255l.242-.115zm-1.406.043.06.03q.301.1.522.32.037.045.03.098c-.024.2-.042.406-.049.606q-.045 1.328-.03 2.655a.32.32 0 0 1-.242.303 1 1 0 0 1-.376.036.054.054 0 0 1-.055-.042q-.072-.299.091-.424.054-.045.006-.091l-.12-.115c.266-.116.35-.34.266-.685a3.3 3.3 0 0 1-.103-.758v-1.94z"/>
    <path fill="#fff" d="M18.28 20.27c-.043.06-.019.12.066.193.158.122.376.091.503.285.14.212.255.685-.036.813-.043.018-.06 0-.06-.043 0-.267.011-.558-.328-.618-.055-.012-.08.012-.085.06a.56.56 0 0 0 .127.364c-.157.133-.29.121-.394-.018q.018-.264-.2-.364a.16.16 0 0 0-.182.025c0 .03.013.072-.024.097a.05.05 0 0 1-.054 0 .76.76 0 0 1-.328-.31 3.34 3.34 0 0 0 .63-1.89l.019-1.134c.224.224.351.497.388.83q.092.864-.043 1.71m-9.82-2.492c-.06.45-.06.908 0 1.358q.227.89.364 1.188l.254.376a.73.73 0 0 1-.442.267q-.065-.072-.158-.025c-.024.006-.2.158-.194.188.043.164-.079.26-.364.303q-.056-.183.061-.285c.055-.048.06-.127.049-.194-.013-.042-.037-.06-.085-.06-.182.018-.358.242-.322.448-.054.11-.12.158-.206.146-.151-.546.025-.873.528-.97q.3-.1.218-.4a2.74 2.74 0 0 1 .303-2.34z"/>
    <path fill="#4AA223" d="M17.638 17.857a3.6 3.6 0 0 1-.667 2.873c-.257.324-.6.57-.988.71a.9.9 0 0 1-.4.03c-.037 0-.06-.03-.049-.067.012-.121-.024-.218-.103-.279.2-.06.327-.121.376-.163.158-.158.351-.243.485-.413.242-.32.545-.57.703-.957q.209-.528.364-1.091c.03-.116.018-.267.09-.388a.12.12 0 0 1 .08-.061c.072-.012.102-.079.102-.194z"/>
    <path fill="#D5D0D1" d="M9.078 20.7c.14.127.261.279.376.448a.3.3 0 0 0 .08.08.07.07 0 0 0 .048.017c.06.006.06.03.012.061a.2.2 0 0 0-.085.085.12.12 0 0 1-.079.06l-.352.104q-.361-.1-.37.018c-.042.072-.084.06-.12-.024q-.099-.237.048-.582a.72.72 0 0 0 .442-.267m8.208.055c.315.424.618-.08.503.77q-.009.061-.073.06a1.5 1.5 0 0 1-.806-.146.1.1 0 0 1-.057-.07.1.1 0 0 1 .02-.087z"/>
    <path fill="#ACC8A1" d="m8.285 21.13.012.394q.002.056-.06.067c-.286.054-.389 0-.322-.158.291-.042.412-.14.37-.303"/>
    <path fill="#D5D0D1" d="M11.776 21.233c.06.079.176.121.321.11a.52.52 0 0 0-.042.345c.006.03 0 .048-.036.048l-.303.012q-.057.001-.067-.06a.57.57 0 0 1 .121-.455z"/>
    <path fill="#ACC8A1" d="M18.073 21.306q.157.218.394.018l-.012.206c0 .043-.024.06-.06.06l-.261.007c-.043 0-.06-.018-.06-.06zm-10.45.03c.013.097.019.158 0 .194a.12.12 0 0 1-.084.073.12.12 0 0 1-.11-.042l-.012-.073q.126.018.207-.146zm1.455.219a.67.67 0 0 1-.37.018c.007-.08.134-.085.364-.018z"/>
    <path fill="#006413" d="M10.365 7.413q-.293.836.424 1.116c.212.084.448.066.727-.049.182.11.152.212-.085.297-.085.03-.163.06-.242.11-.103.06-.237.078-.4.066-.364-.024-.51-.285-.691-.54a1.46 1.46 0 0 1-.26-.848.23.23 0 0 1 .266-.237 1 1 0 0 1 .266.085zm4.54 1.116.751.012a.16.16 0 0 0 .103-.037l.376-.375a.15.15 0 0 0 .048-.091l.037-.661a.4.4 0 0 0 .127-.049c.085-.06.194 0 .206.091q.135.999-.703 1.48a.34.34 0 0 1-.182.048c-.133 0-.267.018-.394-.037-.254-.115-.382-.242-.37-.381"/>
    <path fill="#020202" d="m16.22 7.377-.037.66a.12.12 0 0 1-.048.092l-.376.375a.13.13 0 0 1-.103.037l-.752-.012.382-.28c.273.061.4.037.382-.084.012-.121-.018-.321.06-.418q.21-.228.382-.364.037-.034.11-.006m-5.856.036.388.334-.042.242q.126.363.424.279c.158-.018.285.06.382.212-.279.115-.515.134-.727.049-.48-.182-.619-.558-.425-1.116"/>
    <path fill="#fff" d="M10.85 7.953a1 1 0 0 1 .278.315q-.29.082-.418-.273a.11.11 0 0 1 .133-.042zm4.818.212c.018.121-.115.152-.382.085l.2-.218c.049-.049.091-.049.146-.012q.054.045.036.145"/>
    <path fill="#020202" d="M13.115 12.711v-.182a.16.16 0 0 0-.06-.133c-.485-.376-1.588-1.049-.673-1.734.29-.224.91-.109 1.285-.14.467-.03.855.389.794.837-.055.412-.691.825-1.018 1.037-.097.06-.055.242-.055.333 0 .037.018.06.06.06.28.019.546.061.807.122.97.224 1.03-.564 1.594-1.012.06-.043.14-.06.206-.037.14.043.182.104.14.194-.061.122-.237.049-.316.146-.194.242-.34.563-.582.74-.351.242-.69.315-1.006.218-.473-.152-1.133-.097-1.618-.073-.582.024-1.297.279-1.685-.376a7 7 0 0 0-.316-.485.16.16 0 0 0-.12-.067l-.146-.024c-.103-.012-.146-.254-.03-.267.12-.012.285 0 .375.085.473.497.607 1.158 1.504.958.26-.06.527-.103.787-.121q.073-.007.073-.079"/>
    <path fill="#fff" d="M12.425 11.529c.12.121.303.146.388.049.085-.091.054-.261-.073-.382-.133-.121-.303-.146-.394-.061-.091.097-.055.273.073.394zm1.333-.315c-.121.121-.14.303-.054.382.09.085.26.048.381-.08.122-.133.146-.302.055-.387-.09-.079-.26-.043-.382.085"/>
</svg>
