<svg xmlns="http://www.w3.org/2000/svg" width="24" height="24" fill="none" viewBox="0 0 24 24">
    <path fill="#020202" d="M6.414 20.61c-.087-.125.971-.23 1.058-.245q.14.009.11-.252c-.028-.125.01-.212.109-.25.021-.011.027-.022.027-.044l-.017-.022a1.1 1.1 0 0 1-.393-.027c-1.32-.382-2.165-1.178-2.536-2.4a2.93 2.93 0 0 1 .076-1.986 2.76 2.76 0 0 1 1.882-1.73q.051-.013.093.022a.11.11 0 0 1 .044.115c0 .044.01.055.054.055a3.3 3.3 0 0 1 .928-.017c.25.027.633.066.703.35.06.25-.076.387-.272.501-.966.562-1.631 1.364-1.653 2.51a2.26 2.26 0 0 0 1.009 1.942q.031.039.055-.011.041-.125-.055-.24c-.19-1.02.256-2.248 1.173-2.777a.62.62 0 0 0 .284-.447c.065-.546.174-1.113.18-1.686 0-.535.016-1.004-.235-1.5l-.507-1.037a10.8 10.8 0 0 1-.879-3.055c0-.01.011-.021.022-.032l.442-.344q.04-.033 0-.066a.5.5 0 0 1-.164-.245 6.2 6.2 0 0 1-.13-3.186c.103-.453.621-.55.949-.256q.786.704 1.287 1.39c.033.044.055.039.055-.016.021-.212-.082-.501 0-.676.103-.213.054-.562.016-.791-.027-.185.224-.42.355-.53.229-.19.169-.6.567-.616.3-.01.644-.016 1.031-.005.3.005.927.093 1.178.278l.039.044q.016.042.06.043c.354.006.709 0 1.063-.027.344-.022.693.011 1.037.033.038 0 .065.022.082.054.07.148.25.731.234.83-.005.027.006.049.033.054.147.066.218.18.224.338v.382c-.011.18.027.508-.044.66a.6.6 0 0 0-.055.219q-.015.246.164.076.515-.517 1.064-1.157c.12-.141.284-.272.48-.409.273-.174.65-.016.753.257.24.627.327 1.309.245 2.034-.032.257-.109.6-.223 1.048a1 1 0 0 1-.071.18c-.022.033-.033.07-.05.109-.01.038 0 .071.039.098l.24.158a.115.115 0 0 1 .054.126 11 11 0 0 1-1.407 4.053c-.284.475-.437.955-.327 1.517.049.212.07.436.076.654.014.457.08.911.196 1.353l.044.038c1.217.655 1.326 1.8 1.206 3.044-.017.197-.126.355-.115.546 0 .044.016.076.044.109.136.153.218.327.25.535.039.283.524.24.72.24.148.005-.07.25-.157.25-1.086 0-2.183.219-3.28.219q-2.258.015-5.76 0c-.496 0-.96-.022-1.402-.066-.698-.07-1.756 0-2.302-.316"/>
    <path fill="#6703BF" d="m12.84 3.35.262.038c.054.01.065.033.01.07-.108.066-.196.154-.327.16h-.534a2.5 2.5 0 0 0-.546.048 5.4 5.4 0 0 1-.949.087c-.076 0-.098-.032-.055-.103l.251-.382a.27.27 0 0 1 .246-.136c.42 0 1.216-.071 1.582.196q.025.018.054.022zm2.39.153a.17.17 0 0 1 .152.136q.075.305.23.6.12.211-.11.12c-.72-.273-1.533-.671-2.33-.633-.021 0-.07-.06-.038-.076.208-.071.399-.017.622-.066.485-.098.98-.125 1.473-.081"/>
    <path fill="#6703BF" d="M15.764 4.686a.147.147 0 0 1 .153.126c0 .027 0 .054-.011.07a1.1 1.1 0 0 0-.055.399 1 1 0 0 1-.049.376.82.82 0 0 0 0 .513c0 .033-.032.066-.065.055a13 13 0 0 0-.742-.317c-.927-.349-.96-.409-2.237-.627-.147-.044-.905-.125-1.069-.12h-1.315c-.152 0-.032-.164-.032-.235a4.3 4.3 0 0 0-.017-.861c.071-.208.764-.202.917-.208q1.065-.017 2.253.006c.605.016 1.544.829 2.27.818z"/>
    <path fill="#4CC326" d="M9.453 7.08c-.737-.845-.737-.485-.524.366l-.464.371c-.06.05-.109.044-.158-.022a.8.8 0 0 1-.104-.212 5.5 5.5 0 0 1-.272-2.03c.016-.31.081-.873.332-1.085.028-.017.055-.028.088-.022.638.109 1.483 1.424 1.8 2.018q.048.082-.027.131zm7.97.41c.256-.742 0-1.108-.48-.317l-.688-.469a.11.11 0 0 1-.033-.147 6.8 6.8 0 0 1 1.244-1.582c.153-.147.453-.262.617-.087.12.13.218.562.218.747q.008.63-.016 1.113a5 5 0 0 1-.23 1.124c-.01.032-.032.038-.06.027a2 2 0 0 1-.572-.41"/>
    <path fill="#6703BF" d="M14.319 5.827q.164.075.36.11c.027.01.005.07-.016.07q-.531.002-1.053-.038c-.447-.033-.89.033-1.337.038-.48.005-.954.175-1.413.306-.567.163-.572-.513-.49-.846a.09.09 0 0 1 .076-.06c.687-.071 1.33.022 2.018.005.508-.01 1.375.208 1.855.415"/>
    <path fill="#fff" d="m9.452 7.081-.524.366a2.55 2.55 0 0 1-.382-1.271.08.08 0 0 1 .038-.044l.033-.01q.288.001.436.272c.12.218.257.453.399.687"/>
    <path fill="#4CC326" d="M12.982 6.164c.027 1.119.229 1.326.327-.01a7 7 0 0 1 1.92.081c.197.022.317.088.491.153a.13.13 0 0 1 .066.055c.087.163.109.31.283.43q.531.377 2.1 1.446.15.106.143.202-.123.025-.23.175c-.6.823-1.172 1.745-1.87 2.465-.23.24-.53.464-.873.366-2.019-.6-2.75.376-4.501-.11a.2.2 0 0 1-.087-.048c-.895-.78-1.62-1.784-2.357-2.7-.071-.088-.23-.153-.486-.202l2.188-1.517a.94.94 0 0 0 .338-.371.11.11 0 0 1 .077-.06c.152-.033.31-.022.469-.065q.727-.206 1.396-.306.245-.031.611.011z"/>
    <path fill="#006413" d="m12.982 6.164.327-.01-.082 1.074a.1.1 0 0 1-.012.032.1.1 0 0 1-.026.023.07.07 0 0 1-.076 0 .22.22 0 0 1-.055-.12 10 10 0 0 1-.07-1.004z"/>
    <path fill="#fff" d="m17.422 7.49-.48-.316q.189-.458.328-.638a1 1 0 0 1 .283-.262.125.125 0 0 1 .17.044l.016.065c.005.453-.099.819-.317 1.108m-9.514.977c.257.05.415.115.486.202.736.917 1.462 1.92 2.357 2.7.272.24.485-.289.61-.42.415-.452.6-1.145 1.064-1.554.273-.24.546-.322.846-.246a1 1 0 0 1 .633.464c.169.3.48.693.764 1.08l.594.78a.15.15 0 0 0 .076.055c.344.098.644-.126.873-.366.699-.725 1.277-1.636 1.872-2.466q.105-.149.229-.174a6 6 0 0 1-.164 1.047 10.1 10.1 0 0 1-1.686 3.595q-.129.179-.627.677a5.5 5.5 0 0 1-2.15 1.336c-.218.071-.436.11-.632.11-.153 0-.475-.11-.955-.328q.041-.179-.164-.316a5.5 5.5 0 0 1-1.429-1.539 24 24 0 0 1-1.838-3.24A4.4 4.4 0 0 0 7.94 8.68c.017-.055 0-.125-.033-.213"/>
    <path fill="#D5D0D1" d="M7.94 8.674c.257.283.497.676.726 1.19a24 24 0 0 0 1.839 3.24c.354.545.873 1.167 1.424 1.538q.21.138.169.316l-.671-.387a4.4 4.4 0 0 1-.938-.687c-.18-.186-.371-.372-.535-.579A10.15 10.15 0 0 1 7.94 8.68z"/>
    <path fill="#4CC326" d="m10.048 13.834.092.611-.556-.36a.1.1 0 0 1-.044-.082l-.021-.752c0-.055.016-.071.065-.028q.276.261.464.611m5.99.715-.05-.513.546-.573c.055-.06.087-.054.087.033l.006.655a.17.17 0 0 1-.11.169z"/>
    <path fill="#fff" d="m10.047 13.835.316.256c.11.273.552.442.78.606.213.153.393.273.546.349q.63.327 1.31.524.081.024.245-.017a5.97 5.97 0 0 0 2.744-1.516l.049.512-2.575 1.31c-.207-.033-.655.076-.764.027l-2.558-1.44zm-1.746.447a1.97 1.97 0 0 0-1.27.284c-.3.19-.432.578-.677.835-.11.12-.186.098-.218-.06l-.011-.071q-.001-.017-.01-.03a.06.06 0 0 0-.052-.03.1.1 0 0 0-.03.005.38.38 0 0 0-.203.218 3.66 3.66 0 0 0-.07 2.291c.108.382.408.852.698 1.113l.463.404a.3.3 0 0 0 .082.044q.197.049.246.163a1.9 1.9 0 0 1-.797-.289l-.398-.305A2.97 2.97 0 0 1 4.93 16.78a2.66 2.66 0 0 1 1.62-2.81c.055-.022.066-.01.022.033a.31.31 0 0 0-.054.322.08.08 0 0 0 .054.049q.02.002.04-.004a.1.1 0 0 0 .031-.023c.344-.448 1.146-.344 1.604-.175a.09.09 0 0 1 .054.06z"/>
    <path fill="#6703BF" d="M12.426 15.875q.033.024.016.065l-.202.365a.093.093 0 0 1-.12.044l-1.68-.622-.327-.103c-.262-.071-.491-.219-.764-.257a.1.1 0 0 1-.06-.038.1.1 0 0 1-.01-.07q.13-.55.13-1.06c0-.048.022-.054.055-.027.834.655 2.062 1.2 2.962 1.708z"/>
    <path fill="#4CC326" d="M8.301 14.281c-.016.066-.049.11-.087.131a3.9 3.9 0 0 0-1.391 1.282c-.404.622-.628 1.495-.382 2.166.207.55.627 1.43 1.304 1.517q.074.014.081.087v.027a.07.07 0 0 1-.032.071 1.2 1.2 0 0 1-.546-.109q-.048-.122-.245-.17a.2.2 0 0 1-.082-.043q-.237-.195-.464-.403a2.8 2.8 0 0 1-.698-1.113 3.66 3.66 0 0 1 .07-2.292.36.36 0 0 1 .203-.218.065.065 0 0 1 .083.025.1.1 0 0 1 .01.03l.016.07c.027.159.103.18.218.06.24-.256.371-.643.671-.834.38-.236.827-.336 1.271-.284"/>
    <path fill="#6703BF" d="m16.8 15.515-2.89.884a.04.04 0 0 1-.05-.022l-.202-.382a.04.04 0 0 1 .017-.054l3.11-1.615c.032-.017.064.005.06.038l-.028 1.113a.04.04 0 0 1-.027.038z"/>
    <path fill="#4CC326" d="M10.003 15.727c0 .246-.038.639-.104 1.173a4.75 4.75 0 0 0 .491 2.63c-.529-.328-.85-.857-.965-1.599a3.1 3.1 0 0 0-.295-.998l.197-1.265q.023-.166.185-.11l.491.164zm7.07 1.544c0 .11-.033.164-.098.175a.11.11 0 0 0-.071.054c-.066.11-.055.246-.082.35a9 9 0 0 1-.327.981c-.142.35-.415.573-.639.862-.114.153-.289.23-.43.371q-.067.066-.339.148a.22.22 0 0 1-.054-.153c.043.044.109.038.169-.011.34-.26.597-.615.736-1.02.256-.73.35-1.506.273-2.275a4 4 0 0 0-.142-.873l.715-.19c.038-.012.054 0 .06.037l.223 1.544z"/>
    <path fill="#fff" d="m10.003 15.728 2.095.736c.027.011.049.027.054.055l.131.272c.011.131.055.24.12.328v1.745q.001.297.093.682c.076.311 0 .513-.235.617l-.174.245q-.198.009-.29-.098c.006-.06-.043-.245-.136-.131a1.14 1.14 0 0 0-.218.497c-.016.07-.202.13-.229.038-.049-.186-.033-.339.038-.459.197-.316.475-.354.819-.436.098-.022.109-.066.016-.12-.076-.044-.185-.027-.235-.098a1.4 1.4 0 0 1-.196-.371 11.5 11.5 0 0 1-.567-2.58c0-.033-.071-.186-.131-.153l-.008.01-.003.012a7.24 7.24 0 0 0 .6 3.12c0 .027-.022.055-.044.065a.9.9 0 0 0-.463.426l-.644-.6a4.75 4.75 0 0 1-.491-2.63q.09-.803.098-1.172"/>
    <path fill="#D59828" d="M13.342 15.815c.027.021.07.032.12.043q-.196.023.125.153c.027.005.044.027.055.049l.212.415c.006.016.011.038.006.054l-.093.415-.098.142-.218.109c-.197.13-.742.196-.9-.066-.017-.022-.039-.033-.066-.022-.022 0-.033.022-.033.044l-.054-.027a.7.7 0 0 1-.115-.328c-.114-.354.022-.654.415-.91q.107.047.125-.044c.18.016.355.01.519-.027"/>
    <path fill="#fff" d="M16.07 15.875q.098.312.147.878a5.3 5.3 0 0 1-.273 2.275 2.2 2.2 0 0 1-.742 1.02c-.065.055-.125.055-.175.011l-.425-.382a.07.07 0 0 1-.022-.081c.382-.939.59-1.948.6-3.028.006-.05-.016-.06-.054-.033l-.028.017a.2.2 0 0 0-.081.13c-.142.95-.3 1.855-.644 2.76-.066.165-.185.252-.36.24-.011 0-.022 0-.027.012-.028.027-.017.093 0 .114a.14.14 0 0 0 .054.033c.29.027.611.11.764.365.033.06.109.192.13.257.044.147-.19.31-.31.3q-.056-.002-.055-.06v-.202a.13.13 0 0 0-.032-.087.3.3 0 0 1-.077-.186q-.01-.065-.076-.065c-.131 0-.311.087-.12.229a.1.1 0 0 1 .049.07.7.7 0 0 1 .016.252.05.05 0 0 1-.049.044h-.273q-.05-.007-.043-.055a.6.6 0 0 0-.131-.502.6.6 0 0 0-.191-.218.1.1 0 0 1-.044-.076c-.01-.415.142-.797.142-1.19a15 15 0 0 0-.07-1.63l.097-.143c.055-.256.17-.414.355-.469z"/>
    <path fill="#4CC326" d="M8.815 17.2a2.47 2.47 0 0 0-.273 2.107q.081.27-.19.36a.15.15 0 0 1 .07-.142.04.04 0 0 0 .017-.05.1.1 0 0 0-.022-.021.07.07 0 0 0-.044-.017l-.234.022c-.126.006-.186-.054-.191-.169 0-.19-.017-.403-.044-.627a2.4 2.4 0 0 1 .966-2.33c.076-.054.103-.032.087.055zm8.838 2.243q.12-.76.038-1.538a1.2 1.2 0 0 0-.35-.748 2.1 2.1 0 0 1-.13-.73.05.05 0 0 1 .025-.04.06.06 0 0 1 .046-.004.6.6 0 0 1 .18.114c.407.358.667.853.73 1.391a5.2 5.2 0 0 1-.032 1.386q-.023.188-.218.18z"/>
    <path fill="#4AA223" d="M9.131 16.933c.13.24.23.579.295.999.109.741.436 1.276.97 1.598l.644.6a.8.8 0 0 0-.087.344c0 .043-.027.06-.071.054-.12-.005-.229.022-.338-.049-.126-.076-.251-.076-.366-.17a3.06 3.06 0 0 1-1.145-2.181 5 5 0 0 1 .098-1.2z"/>
    <path fill="#D5D0D1" d="M13.67 17.086q.08.819.07 1.631c0 .393-.153.775-.142 1.19 0 .032.017.054.044.076a.6.6 0 0 1 .19.218c-.086-.05-.13-.016-.13.087 0 .038 0 .077.01.11a.8.8 0 0 1 .017.327q-.008.055-.065.054c-.164-.022-.458-.016-.458-.218.016-1.015 0-2.035-.06-3.071 0-.033.01-.055.043-.071a.6.6 0 0 0 .257-.23l.218-.103zm-1.266.038.054.027q.271.092.47.29.033.039.027.087a6 6 0 0 0-.044.545 54 54 0 0 0-.027 2.39.285.285 0 0 1-.218.272.9.9 0 0 1-.339.033.05.05 0 0 1-.049-.038q-.065-.269.082-.382.048-.04.005-.082l-.109-.103c.24-.104.317-.306.24-.617a3 3 0 0 1-.092-.682V17.12z"/>
    <path fill="#fff" d="M17.65 19.443c-.037.055-.016.109.06.174.143.11.34.082.454.257.125.19.229.616-.033.731-.038.016-.055 0-.055-.038 0-.24.011-.502-.294-.557-.05-.01-.071.011-.077.055a.5.5 0 0 0 .115.327c-.142.12-.262.11-.355-.016q.017-.238-.18-.328a.15.15 0 0 0-.163.022c0 .028.01.066-.022.088a.05.05 0 0 1-.05 0 .7.7 0 0 1-.294-.279 3 3 0 0 0 .567-1.702l.017-1.02a1.2 1.2 0 0 1 .349.747 5.8 5.8 0 0 1-.038 1.539m-8.837-2.242a4.6 4.6 0 0 0 0 1.222c.137.535.246.889.328 1.07l.229.337a.66.66 0 0 1-.398.24q-.06-.064-.142-.021c-.022.005-.18.141-.175.169.038.147-.07.234-.327.272q-.051-.165.054-.256c.05-.044.055-.115.044-.175q-.013-.055-.076-.054c-.164.016-.322.218-.29.404q-.072.147-.185.13c-.136-.49.022-.785.475-.872q.27-.09.196-.36a2.47 2.47 0 0 1 .273-2.106z"/>
    <path fill="#4AA223" d="M17.073 17.272a3.24 3.24 0 0 1-.6 2.585c-.231.292-.54.513-.89.639a.8.8 0 0 1-.36.027c-.032 0-.054-.027-.043-.06.011-.11-.022-.197-.093-.251.18-.055.295-.11.338-.147.143-.142.317-.219.437-.371.218-.29.491-.513.633-.862q.188-.475.327-.982c.027-.104.016-.24.082-.35a.1.1 0 0 1 .07-.054c.066-.01.094-.07.094-.175z"/>
    <path fill="#D5D0D1" d="M9.37 19.83c.126.115.235.25.339.404a.2.2 0 0 0 .07.07q.018.017.044.017c.055.005.055.027.011.055a.2.2 0 0 0-.076.076.11.11 0 0 1-.071.054l-.317.093q-.326-.09-.332.017c-.039.065-.077.054-.11-.022q-.088-.213.044-.524a.65.65 0 0 0 .398-.24m7.387.05c.284.381.556-.072.453.692q-.009.056-.066.055a1.35 1.35 0 0 1-.725-.131.1.1 0 0 1-.051-.063.1.1 0 0 1 .018-.079z"/>
    <path fill="#ACC8A1" d="m8.656 20.218.01.354c0 .033-.015.055-.054.06-.256.05-.349 0-.289-.141.262-.039.371-.126.333-.273"/>
    <path fill="#D5D0D1" d="M11.798 20.31c.055.072.159.11.29.099a.47.47 0 0 0-.039.31c.006.028 0 .044-.032.044l-.273.011q-.051.002-.06-.054a.51.51 0 0 1 .109-.41z"/>
    <path fill="#ACC8A1" d="M17.466 20.376q.14.195.354.016l-.01.186c0 .038-.022.054-.055.054l-.235.006q-.056.001-.054-.055zm-9.405.027c.01.088.016.142 0 .175a.1.1 0 0 1-.076.065.1.1 0 0 1-.099-.038l-.01-.065q.113.016.185-.131zm1.31.197a.6.6 0 0 1-.334.016c.006-.07.12-.076.328-.016z"/>
    <path fill="#006413" d="M10.528 7.872c-.175.502-.05.834.382 1.004.19.076.403.06.654-.044.164.098.137.19-.076.267a1 1 0 0 0-.218.098.6.6 0 0 1-.36.06c-.328-.021-.459-.256-.622-.485a1.3 1.3 0 0 1-.235-.764.208.208 0 0 1 .24-.213 1 1 0 0 1 .24.077zm4.086 1.004.676.01q.051 0 .093-.032l.338-.339a.14.14 0 0 0 .044-.081l.033-.595a.4.4 0 0 0 .114-.044c.076-.054.175 0 .186.082q.121.899-.633 1.331a.3.3 0 0 1-.164.044c-.12 0-.24.016-.354-.033-.23-.103-.344-.218-.333-.343"/>
    <path fill="#020202" d="m15.797 7.839-.033.594q-.001.05-.043.082l-.339.338a.12.12 0 0 1-.092.033l-.677-.01.344-.252c.245.055.36.033.344-.076.01-.11-.017-.29.054-.376q.189-.205.344-.328.032-.032.098-.005m-5.27.033.35.3-.039.218q.114.326.382.25c.142-.016.256.055.344.192-.251.103-.464.12-.655.043-.43-.163-.556-.502-.382-1.003"/>
    <path fill="#fff" d="M10.964 8.358c.098.07.186.169.251.284q-.262.073-.376-.246c.027-.038.07-.054.12-.038zm4.337.19c.016.11-.104.137-.344.077l.18-.196c.044-.044.082-.044.131-.011q.05.04.033.13"/>
    <path fill="#020202" d="M13.003 12.64v-.164a.14.14 0 0 0-.055-.12c-.436-.339-1.429-.944-.605-1.56.262-.202.818-.099 1.157-.126a.68.68 0 0 1 .714.753c-.049.37-.622.742-.916.933-.088.054-.05.218-.05.3 0 .032.017.054.055.054q.375.027.726.11c.873.201.927-.508 1.434-.912a.21.21 0 0 1 .186-.032c.125.038.164.092.125.174-.054.11-.212.044-.283.131-.175.218-.306.507-.524.666-.316.218-.622.283-.906.196-.425-.136-1.02-.087-1.456-.066-.524.022-1.168.252-1.517-.338a7 7 0 0 0-.283-.436.15.15 0 0 0-.11-.06l-.13-.022c-.093-.01-.131-.229-.028-.24.11-.01.257 0 .338.076.426.448.546 1.042 1.354.862.234-.054.474-.092.709-.109q.065-.006.065-.07"/>
    <path fill="#fff" d="M12.382 11.576c.11.109.273.13.35.043.075-.082.048-.234-.066-.343-.12-.11-.273-.131-.355-.055-.082.087-.05.245.066.355zm1.2-.284c-.109.11-.125.273-.049.344.082.076.235.043.344-.071.109-.12.13-.273.049-.35-.082-.07-.235-.038-.344.077"/>
</svg>
