<svg width="24" height="24" viewBox="0 0 24 24" fill="none" xmlns="http://www.w3.org/2000/svg">
<path d="M7.3335 16.6667H12.6668V22H7.3335V16.6667Z" fill="url(#paint0_linear_364_2517)"/>
<path d="M12.6668 2.00012H14.7536C18.7535 2.00012 22.0001 5.24679 22.0001 9.25339C22.0001 13.2535 18.7535 16.6669 14.7469 16.6669H7.3335V6.66679H12.6668V11.3335H14.7536C16.0668 11.3335 17.3335 10.3135 17.3335 9.00014C17.3335 7.68678 16.0668 6.66679 14.7469 6.66679H12.6668V2.00012Z" fill="url(#paint1_linear_364_2517)"/>
<path d="M2 11.3335H7.33333V16.6669H2V11.3335Z" fill="url(#paint2_linear_364_2517)"/>
<path d="M7.3335 11.3335H12.6668V16.6669H7.3335V11.3335Z" fill="url(#paint3_linear_364_2517)"/>
<defs>
<linearGradient id="paint0_linear_364_2517" x1="2.00016" y1="8.00001" x2="22.0001" y2="16.425" gradientUnits="userSpaceOnUse">
<stop stop-color="#3EFF6E"/>
<stop offset="1" stop-color="#16DDDE"/>
</linearGradient>
<linearGradient id="paint1_linear_364_2517" x1="2.22743" y1="7.40921" x2="23.7184" y2="17.1183" gradientUnits="userSpaceOnUse">
<stop stop-color="#FF5B3C"/>
<stop offset="1" stop-color="#FF3196"/>
</linearGradient>
<linearGradient id="paint2_linear_364_2517" x1="2" y1="8.00014" x2="22" y2="16.4251" gradientUnits="userSpaceOnUse">
<stop stop-color="#FF6F3F"/>
<stop offset="1" stop-color="#FFC546"/>
</linearGradient>
<linearGradient id="paint3_linear_364_2517" x1="7.33371" y1="12.9335" x2="12.6671" y2="15.1801" gradientUnits="userSpaceOnUse">
<stop stop-color="#E059FE"/>
<stop offset="1" stop-color="#656FFF"/>
</linearGradient>
</defs>
</svg>
