<svg xmlns="http://www.w3.org/2000/svg" width="24" height="24" fill="none" viewBox="0 0 24 24">
    <path fill="#0A3957" fill-rule="evenodd" d="m12 2.001 10 9.997-10 10-10-10zm.06.827 9.118 9.17-9.118 9.064-9.233-9.064z" clip-rule="evenodd"/>
    <path fill="#0A3957" d="m9.734 18.003 1.354 1.326.467-.512-.859-.855 1.308-1.314 1.29 1.355-.833.813.518.512 1.264-1.325-2.24-2.319zm2.855-4.239-.598.589-.579-.589zm.303-7.147L11.53 7.954l.46.493.901-.946.453.453-.839.89.46.413.824-.897 1.859 1.83.872-.845 1.358 1.305.476-.46-1.834-1.83-.872.897zm-7.673 4.118-.44.454 1.272 1.343 1.888-1.867-.464-.485-1.424 1.382zm10.368.382-.445-.451-1.347 1.268 1.83 1.925.485-.461-1.354-1.453z"/>
    <path fill="#0A3957" d="m18.706 10.755.411.482-1.354 1.259-1.789-1.938.503-.474 1.374 1.46z"/>
    <path fill="#0A3957" d="m18.72 12.618.412.481-1.355 1.259-2.154-2.286.528-.477 1.687 1.795zM8.475 11.21l.462-.433 1.297 1.32-1.903 1.852-.467-.48 1.41-1.398z"/>
    <path fill="#0A3957" d="m5.22 12.555-.441.454 1.272 1.344 2.316-2.265-.463-.485-1.852 1.78zm6.302-8.25.495-.473.496.473-.496.474zM3.81 12.001l.495-.474.496.474-.496.472zM19.182 12l.496-.473.495.473-.495.473zm-7.66 7.78.495-.473.495.473-.495.473zm0-1.8.495-.474.495.473-.495.473zm-.46-13.2-3.18 3.13.43.48 2.75-2.752.476.454-3.08 3.182-1-.884-1.784 1.818.412.443 1.37-1.377 1.003.934 1.726-1.818.877.884.476-.505-.827-.859 2.178-2.272 2.729 2.752.425-.48-3.154-3.13-.926.858zM9.31 17.511l-.906-.901.434-.463.472.463 1.34-1.365-.461-.46.461-.478.931.938zm5.338 0 .906-.901-.434-.463-.472.463-1.34-1.365.461-.46-.462-.478-.93.938z"/>
    <path fill="#0A3957" d="M10.825 9.645h-.748l-.429.588h1.177zm2.352 0h.749l.428.588h-1.177z"/>
    <path fill="#0A3957" fill-rule="evenodd" d="M11.66 9.645v.863l-.994 1.077.422.385-3.15 3.217-.381-.425.429-.457-.466-.465-.926.922 1.344 1.422 3.065-3.01h2.028l3.037 3.01 1.423-1.422-.913-.929-.476.456.414.473-.447.426-3.163-3.218.461-.386-1.001-1.076v-.863zm.35 2.353-.598.588h1.177zm-.01-.945-.495.472.495.473.496-.473z" clip-rule="evenodd"/>
</svg>
