<svg xmlns="http://www.w3.org/2000/svg" width="24" height="24" fill="none" viewBox="0 0 24 24">
    <path fill="url(#PNP__a)" d="M12 22c5.523 0 10-4.477 10-10S17.523 2 12 2 2 6.477 2 12s4.477 10 10 10"/>
    <path fill="#189CA1" d="M12 20.924a8.97 8.97 0 1 0 0-17.941 8.97 8.97 0 0 0 0 17.94"/>
    <path fill="#2A4463" d="M12 20.918a8.97 8.97 0 0 0 8.618-11.46L3.424 14.577A8.97 8.97 0 0 0 12 20.925z"/>
    <path fill="#108484" d="M16.706 10.465c-.018-.012-.035 0-.07.011l-.254.065a4.6 4.6 0 0 0-4.811-3c-1.018.118-1.883.494-2.606 1.135a4.57 4.57 0 0 0-1.56 3.689 2.2 2.2 0 0 1-.458-.341 11 11 0 0 1-1.165-1.112.02.02 0 0 0-.011.017c-.024.47.011.942.106 1.394a.2.2 0 0 0 .058.1l.4.4.106.124q.025.034-.012.024a2.6 2.6 0 0 1-.394-.147l-.011.006-.006.011v.018c.064.294.182.53.353.694-.095-.03-.218-.006-.365.059l-.077.03-.04-.018q.043-.045 0-.142a5 5 0 0 1-.195-.517.5.5 0 0 1-.023-.206.2.2 0 0 0-.036-.147.5.5 0 0 1-.064-.17 5.3 5.3 0 0 1-.118-1.589q.01-.169.153-.224c.059-.023.153-.047.282-.059l1.16 1.124.005.006a.02.02 0 0 0 .024 0l.005-.012c.036-.112.042-.23.06-.34a4.98 4.98 0 0 1 1.717-3.001 4.7 4.7 0 0 1 3.018-1.123c.27 0 .552-.018.823.023a4.96 4.96 0 0 1 3.941 3.07c.018.042.018.1.06.148z"/>
    <path fill="#081C22" d="M16.383 10.541c.059.177.112.347.159.53q.034.132.058.335l.06.341c0 .13.017.288-.012.406l-.036.106a.4.4 0 0 1-.053.112c-.053.076.006.17-.006.258a.7.7 0 0 1-.064.2.3.3 0 0 0-.036.177c0 .018 0 .03-.017.041-.218.212-.47.259-.77.153a.1.1 0 0 0-.036-.006q-.032 0-.053-.024a.04.04 0 0 0-.035-.005l-.083.03h-.005l-.006-.019v-.017a.2.2 0 0 0 .094-.112c0-.012.012-.018.023-.018l.018-.017a.16.16 0 0 1 .041-.077.1.1 0 0 1 .035-.03q.029-.008.03-.052a.06.06 0 0 1 .018-.047c.023-.018.029-.047.017-.077a1.864 1.864 0 0 0-3.118-2.011 1.86 1.86 0 0 0-.127 2.073c.125.212.29.397.486.544-.011.024 0 .047.018.07.012.019.012.03-.012.036l-.018-.006a.04.04 0 0 0-.029 0 2 2 0 0 1-.412.035l-.005-.017q-.01-.043-.03-.041l-.43-.647a.053.053 0 0 0-.088 0l-.447.659-.27-.006h-.047a.3.3 0 0 1-.118.023q-.035 0-.035-.035c0-.018 0-.03.017-.036a.05.05 0 0 0 .024-.035l.006-.03a1.858 1.858 0 1 0-2.753-.487q0 .059.035.094a.05.05 0 0 1 .018.04v.036c0 .024 0 .024-.012 0a.1.1 0 0 1-.006-.035c0-.018-.012-.024-.023-.006a.7.7 0 0 1-.218.153c-.012 0-.012.006-.012.018v.005a.35.35 0 0 0-.206.136c-.006.012-.017.018-.035.006a.12.12 0 0 0-.112-.018.105.105 0 0 1-.135-.07.15.15 0 0 0-.076-.095.04.04 0 0 1-.024-.035q-.002-.08-.047-.106l-.077-.576a4.57 4.57 0 0 1 1.56-3.689 4.58 4.58 0 0 1 3.24-1.153 4.6 4.6 0 0 1 4.177 3.018"/>
    <path fill="#fff" d="M11.089 13.306a1.88 1.88 0 0 1-2.753-.488 1.86 1.86 0 1 1 2.753.488m4.635-.577a1.862 1.862 0 1 1-3.278-1.766 1.862 1.862 0 0 1 3.278 1.766"/>
    <path fill="#0F3F52" d="m16.635 10.477.065.011q.027.009.035.036c.018.1.041.194.083.294q.12.412.164.84a.05.05 0 0 0 .035.024l.024-.005a.5.5 0 0 0 .165-.142c.076-.106.194-.13.253-.235a.5.5 0 0 1 .176-.182c.112-.06.136-.177.23-.253a.6.6 0 0 0 .153-.177c.047-.088.217-.082.3-.159a.05.05 0 0 1 .066-.005q.01.006.016.017a1 1 0 0 0 .159.212l.023.041q.043.204.024.418a2.3 2.3 0 0 0-.012.353c0 .23-.006.447-.041.652a2 2 0 0 1-.147.43c-.047.094-.012.194-.047.294l-.13.394a1.4 1.4 0 0 1-.176.365 1 1 0 0 0-.1.206q-.079.212-.235.459a13 13 0 0 1-.56.764.7.7 0 0 1-.135.13q-.243.18-.458.394-.356.343-.453.394l-.235.13a.4.4 0 0 1-.112.035c-.094.017-.147.082-.236.117-.094.042-.17.1-.258.147-.13.071-.265.136-.395.195-.117.058-.27.1-.47.135l-.13.03-.123.035-.506.111a2.3 2.3 0 0 1-.518.047h-.5c-.37.018-.752.024-1.164.012a.4.4 0 0 1-.118-.018.4.4 0 0 0-.106-.023h-.63a1 1 0 0 1-.223-.035 2 2 0 0 0-.23-.036 1.5 1.5 0 0 1-.34-.082 6 6 0 0 0-.612-.2 2 2 0 0 0-.188-.059.44.44 0 0 1-.177-.082 1 1 0 0 0-.135-.059 1.8 1.8 0 0 1-.424-.253.1.1 0 0 0-.053-.023.08.08 0 0 1-.058-.047.07.07 0 0 0-.042-.03.12.12 0 0 1-.082-.082.04.04 0 0 0-.03-.03.42.42 0 0 1-.223-.159.08.08 0 0 0-.053-.035.53.53 0 0 1-.27-.13c-.065-.058-.147-.088-.2-.158-.1-.13-.218-.235-.312-.359a4 4 0 0 0-.341-.412 2.3 2.3 0 0 1-.365-.505 2 2 0 0 1-.13-.342.4.4 0 0 0-.058-.13c-.041-.058-.06-.099-.06-.135.148-.07.271-.094.366-.058l.505.37q.071.055-.017.03a3 3 0 0 1-.341-.1.06.06 0 0 0-.042 0c-.017.006-.017.017-.011.03l.288.458c.153.235.323.447.523.641.036.035.095.06.142.094a.04.04 0 0 0 .04 0 .4.4 0 0 0 .136-.135 2 2 0 0 1 .194-.3c.059-.07.1-.147.141-.223a.14.14 0 0 0 .018-.077.2.2 0 0 0-.018-.076 5 5 0 0 1-.258-.683l.511.647c-.035.036-.023.083.024.141.012.012.012.03.012.048a4 4 0 0 0-.006.217c0 .07.017.141.059.2q.261.381.611.683a4.67 4.67 0 0 0 4.094 1.14.5.5 0 0 0 .2.03l.542-.059c.14-.006.382-.07.735-.188.159-.059.341-.118.535-.2.03-.012.065-.006.1-.006a.06.06 0 0 0 .041-.017.12.12 0 0 1 .071-.03q.153-.07.294-.165a1.6 1.6 0 0 1 .218-.135.8.8 0 0 0 .194-.141c.047-.047.1-.082.153-.118q.316-.196.57-.453l.506-.588q.275-.342.483-.73v-.011l-.018-.006h-.012l-.394.124h-.018l-.011-.012v-.012l.147-.094.517-.412a.1.1 0 0 0 .03-.035l.206-.541v-.018l-.006-.012a.03.03 0 0 0-.03-.006l-.382.147c-.065.024-.076.012-.023-.035l.523-.523a.13.13 0 0 0 .035-.06q.16-.705.118-1.393c0-.06-.018-.06-.053-.024q-.43.479-.941.93l-.636.511h-.017c0-.106.012-.211.023-.323.012-.112 0-.212-.017-.312l-.059-.341a3 3 0 0 0-.059-.341 8 8 0 0 0-.159-.524l.253-.059z"/>
    <path fill="#1777A2" d="M11.4 12a1.021 1.021 0 1 1-2.043 0 1.021 1.021 0 0 1 2.043 0m3.247 0a1.018 1.018 0 1 1-2.035 0 1.018 1.018 0 0 1 2.035 0"/>
    <path fill="#fff" d="M10.217 11.353q.038.47-.394.277a.3.3 0 0 1-.047-.2.24.24 0 0 1 .094-.16q.179-.132.347.089zm3.224.012c.035.088.035.153.018.194q-.133.227-.371.059a.26.26 0 0 1-.041-.16q.044-.195.23-.187c.052 0 .105.035.164.094"/>
    <path fill="#0A1B2C" d="M9.823 11.63c.289.129.418.035.394-.271.26-.059.471 0 .63.164.47.489 0 1.283-.647 1.106a.63.63 0 0 1-.465-.54.7.7 0 0 1 .088-.46m3.265-.018c.159.117.283.1.37-.06.024-.034.018-.1-.017-.187.388-.077.653.059.806.411a.45.45 0 0 1 .035.277q-.07.459-.482.582a.64.64 0 0 1-.647-.188q-.319-.343-.065-.835"/>
    <path fill="#0C363F" d="M16.66 11.747c.023.1.029.2.017.312l-.023.323a5.2 5.2 0 0 1-.195 1.06l-.117.293-.741.765a.5.5 0 0 1-.189.188l-4.188-.03c-.012 0-.018 0-.024.013l-.023.006c-.747 0-1.47 0-2.165-.012l-.117-.018a1 1 0 0 0-.13-.024c-.011 0-.023.006-.023.024a.04.04 0 0 1-.024.035q-.026.016-.035-.011v-.03H8.67a.03.03 0 0 1-.03-.018q-.025-.033-.088-.023l-.37-.365-.512-.647-.088-.235-.1-.412c.03.018.047.059.047.106 0 .018.012.03.023.035.036.018.06.053.077.094a.11.11 0 0 0 .093.076q.022.002.042-.005a.12.12 0 0 1 .118.018c.012.011.023.006.03-.006a.35.35 0 0 1 .2-.136c.005 0 .011 0 .005-.005 0-.012 0-.012.012-.018a.6.6 0 0 0 .218-.153c.011-.018.017-.012.017 0l.012.041q.02.036.012 0v-.035a.05.05 0 0 0-.018-.041.13.13 0 0 1-.035-.094 1.88 1.88 0 0 0 2.753.488l-.006.03a.04.04 0 0 1-.024.034q-.017.009-.017.036 0 .035.035.035c.035 0 .076 0 .118-.018a.1.1 0 0 1 .047-.005h.27l.441.482a.07.07 0 0 0 .048.024q.015.001.031-.003a.1.1 0 0 0 .027-.015q.222-.227.424-.47v-.024c.006 0 .018.011.024.04a.035.035 0 0 0 .03.03q.202-.008.387-.053l.03.006h.017c.024 0 .024-.011.012-.03a.1.1 0 0 1-.019-.032.1.1 0 0 1 .001-.038 1.87 1.87 0 0 0 2.753-.606c.018.03.012.06-.011.077a.06.06 0 0 0-.018.047q-.002.044-.03.053a.1.1 0 0 0-.035.03.2.2 0 0 0-.041.076c0 .011-.012.017-.018.017a.02.02 0 0 0-.015.005.02.02 0 0 0-.008.013.2.2 0 0 1-.088.118q-.016.002-.006.011v.012h.011l.083-.023h.035a.1.1 0 0 0 .059.03h.03a.68.68 0 0 0 .784-.166l.003-.023a.27.27 0 0 1 .036-.177.6.6 0 0 0 .059-.2c.017-.088-.042-.176.011-.258a.4.4 0 0 0 .053-.112l.03-.106c.035-.118.017-.277.017-.406"/>
    <path fill="#B6B3B5" d="m12.476 13.412.006.03v.017q-.216.239-.453.459a.07.07 0 0 1-.076-.018l-.441-.476.447-.653a.053.053 0 0 1 .088 0z"/>
    <path fill="url(#PNP__b)" d="M5.8 10.918q.53.592 1.148 1.105c.14.136.294.253.458.342l.077.576.1.412.088.235q.107.363.259.683l.018.076c0 .024 0 .053-.018.077a2 2 0 0 1-.141.223q-.106.143-.194.294a.36.36 0 0 1-.136.141.04.04 0 0 1-.04 0l-.042-.03a.4.4 0 0 1-.1-.064 3.6 3.6 0 0 1-.53-.647l-.282-.453q-.007-.019.012-.03a.06.06 0 0 1 .041 0c.118.042.235.077.341.1.06.018.06 0 .018-.029l-.506-.376a1.4 1.4 0 0 1-.353-.706l.006-.017h.03c.117.058.247.1.376.14.023.006.03 0 .012-.023l-.106-.118-.406-.411a.2.2 0 0 1-.053-.095 5.3 5.3 0 0 1-.094-1.411h.01z"/>
    <path fill="url(#PNP__c)" d="M17.623 12.941c-.053.047-.041.059.024.035l.382-.147h.012a.03.03 0 0 1 .02.013.03.03 0 0 1 .003.023l-.206.54a.1.1 0 0 1-.029.042l-.518.406-.147.094v.012l.012.012h.018l.394-.124h.012q.006.002.011.006l.006.012v.017a4.6 4.6 0 0 1-.482.718l-.506.577-.324-.36c-.005-.011-.011-.017 0-.023v-.024q-.238-.3-.105-.635l.058-.206a1 1 0 0 1 .083-.194l.117-.294q.15-.511.195-1.059h.017l.635-.511c.342-.3.653-.612.942-.93.035-.035.058-.03.058.024q.035.69-.117 1.388a.13.13 0 0 1-.041.065z"/>
    <path fill="#0E5461" d="M16.341 13.735c-.035.06-.059.13-.082.194q-.025.105-.059.206-.13.335.1.636v.047l.33.364c-.171.17-.353.324-.571.453a.8.8 0 0 0-.153.118 1 1 0 0 1-.194.141q-.113.06-.218.135a1.4 1.4 0 0 1-.23.142.2.2 0 0 1-.064.023.12.12 0 0 0-.065.03.06.06 0 0 1-.047.018l-.1.005-.535.2a4.3 4.3 0 0 1-.735.194c-.177.012-.365.03-.541.059a.5.5 0 0 1-.2-.035 4.6 4.6 0 0 0 1.988-.953l.27-.236q.292-.271.512-.588a.35.35 0 0 0 .065-.147q.02-.117.03-.235a.3.3 0 0 1 .04-.118.5.5 0 0 0 .048-.135c0-.006 0-.012-.012-.012h-.012a.05.05 0 0 0-.024.018.76.76 0 0 1-.282.247z"/>
    <path fill="#0E5461" d="M8.553 14.6q.06-.01.088.024a.03.03 0 0 0 .03.017h.011v.03q.01.027.035.011a.05.05 0 0 0 .024-.035q.002-.025.03-.024c.04 0 .076.012.117.024l.124.018q1.093.01 2.188 0a.03.03 0 0 1 .023-.006l4.189.03-.189.176-.359.27a5.01 5.01 0 0 1-5.935-.2z"/>
    <path fill="#fff" d="m8.553 14.6-.37-.365c-.012.012.029.37.029.412 0 .065.017.135.059.194q.261.381.611.683a4.67 4.67 0 0 0 4.094 1.14 4.6 4.6 0 0 0 1.989-.952l.27-.236a3.7 3.7 0 0 0 .512-.588.35.35 0 0 0 .065-.147c.023-.117.011-.247.07-.353a.5.5 0 0 0 .047-.135c0-.006 0-.012-.011-.012h-.012a.05.05 0 0 0-.024.018c-.23.335-.694.63-1.017.876a5.01 5.01 0 0 1-5.936-.2z"/>
    <defs>
        <linearGradient id="PNP__a" x1="9.324" x2="15.541" y1="4.3" y2="21.359" gradientUnits="userSpaceOnUse">
            <stop stop-color="#42FFF8"/>
            <stop offset="1" stop-color="#719ECA"/>
        </linearGradient>
        <linearGradient id="PNP__b" x1="11.947" x2="11.947" y1="2.002" y2="22.002" gradientUnits="userSpaceOnUse">
            <stop stop-color="#6AD7EB"/>
            <stop offset="1" stop-color="#084C55"/>
        </linearGradient>
        <linearGradient id="PNP__c" x1="12.025" x2="12.025" y1="1.994" y2="22.028" gradientUnits="userSpaceOnUse">
            <stop stop-color="#62CBDE"/>
            <stop offset="1" stop-color="#0F555F"/>
        </linearGradient>
    </defs>
</svg>
