<svg xmlns="http://www.w3.org/2000/svg" width="24" height="24" fill="none" viewBox="0 0 24 24">
    <path fill="#3F4B80" d="m22 6.989-.043-.678-.2.564-1.107.986-1.286.192-.379-.357L20.1 6.125l1.15-.35-1.235.028-1.8 1.322-1.643-.122-.065-.042-2.364-1.186-1.4.286-4.379 3.685-2.093.679-.878 1.019h-1.55l-.757 1.345L2 13.097l1.014.157.958-1.293 1.45.293-.015 1.393-.729 1.986-.428 1.85-.45.742 1.143-.25-.128-.771.97-2.029 1.879-.757.715-1.214 1.228-.9 2.422.364 2.45-1.093-.429 1.869h-1.072l-.314 1.367.929-.636 1.536-.672L16.5 11.59v-.921l.571.693 1.872 1.185 1.071-.507-.071-2.521-.293-.986 1.393-.357z"/>
</svg>
