<svg xmlns="http://www.w3.org/2000/svg" width="24" height="24" fill="none" viewBox="0 0 24 24">
    <path fill="url(#PYR__a)" fill-rule="evenodd" d="M12.52 3c.018.36-.225 1.433-1.337 2.837-.301.381-.646.775-1 1.18C8.906 8.477 7.5 10.085 7.5 11.776c0 1.727.795 2.87 1.193 3.224.059-.438.448-1.61 1.535-2.79.334-.364.82-.763 1.347-1.198 1.62-1.333 3.65-3.005 3.026-5.024 0 .52-.395 1.771-1.974 2.615-1.58.843-2.54 1.87-2.823 2.277-.036-.196.105-.914.611-1.598l.19-.25c.84-1.104 2.6-3.418 1.915-6.032m-1.04 18c-.017-.36.225-1.433 1.337-2.837.301-.381.646-.775 1-1.18 1.277-1.46 2.683-3.068 2.683-4.759 0-1.727-.795-2.87-1.193-3.224-.059.438-.448 1.61-1.535 2.791-.334.363-.82.762-1.347 1.197-1.62 1.333-3.65 3.005-3.026 5.024 0-.52.395-1.771 1.974-2.615 1.58-.843 2.54-1.87 2.824-2.277.035.196-.106.914-.612 1.598l-.19.25c-.84 1.105-2.6 3.418-1.915 6.032" clip-rule="evenodd"/>
    <defs>
        <linearGradient id="PYR__a" x1="12" x2="12" y1="3" y2="21" gradientUnits="userSpaceOnUse">
            <stop offset=".352" stop-color="#FCCA08"/>
            <stop offset="1" stop-color="#EE6233"/>
        </linearGradient>
    </defs>
</svg>
