<svg xmlns="http://www.w3.org/2000/svg" width="24" height="24" fill="none" viewBox="0 0 24 24">
    <path fill="url(#PZP__a)" d="M11.556 17.777h.889v1.73c0 .27-.2.492-.445.492-.244 0-.444-.222-.444-.493z"/>
    <path fill="url(#PZP__b)" d="M9.777 16.889h.89v1.729c0 .27-.2.493-.445.493s-.445-.222-.445-.493z"/>
    <path fill="url(#PZP__c)" d="M12.445 6.222h-.89V4.493c0-.27.2-.493.445-.493s.444.222.444.493z"/>
    <path fill="url(#PZP__d)" d="M14.223 6.667h-.889v-1.73c0-.27.2-.493.444-.493.245 0 .445.223.445.494z"/>
    <path fill="url(#PZP__e)" d="M7.556 5.777v1.356c0 1.084.902 1.755 2.017 1.755h1.89c.404 0 .8.125.946.187a291 291 0 0 0-3.467 3.658c-.324.373-1.386 1.511-1.386 2.951a1.973 1.973 0 0 0 1.702 2.094h7.187v-1.356c0-1.085-.903-1.756-2.018-1.756h-1.76c-.4 0-.938-.124-1.107-.186.902-.943 2.911-3.138 3.311-3.534.507-.489 1.578-1.413 1.578-3.138a2.006 2.006 0 0 0-1.578-2.03z"/>
    <path fill="url(#PZP__f)" d="m12.471 9.288-1.258 2.178c-.23.396-.546.827-.546 1.2 0 .889.617 1.391.889 1.556.52-.734.715-1.027 1.222-1.774a2.92 2.92 0 0 0 .556-1.933c0-1.329-1.232-2.031-1.778-2.071H9.382a2 2 0 0 1-1.826-1.311c0 1.084.902 1.755 2.017 1.755h1.983c.342 0 .666.223.915.4"/>
    <defs>
        <linearGradient id="PZP__a" x1="7.551" x2="13.603" y1="5.343" y2="22.35" gradientUnits="userSpaceOnUse">
            <stop offset=".02" stop-color="#D4964B"/>
            <stop offset=".54" stop-color="#FFED87"/>
        </linearGradient>
        <linearGradient id="PZP__b" x1="7.55" x2="13.833" y1="4" y2="17.234" gradientUnits="userSpaceOnUse">
            <stop offset=".31" stop-color="#D4964B"/>
            <stop offset=".79" stop-color="#FFED87"/>
        </linearGradient>
        <linearGradient id="PZP__c" x1="7.551" x2="13.603" y1="5.344" y2="22.351" gradientUnits="userSpaceOnUse">
            <stop offset=".52" stop-color="#FFED87"/>
            <stop offset=".86" stop-color="#D4964B"/>
        </linearGradient>
        <linearGradient id="PZP__d" x1="7.551" x2="13.834" y1="4" y2="17.235" gradientUnits="userSpaceOnUse">
            <stop offset=".52" stop-color="#FFED87"/>
            <stop offset=".86" stop-color="#D4964B"/>
        </linearGradient>
        <linearGradient id="PZP__e" x1="15.942" x2="5.028" y1="4.9" y2="16.321" gradientUnits="userSpaceOnUse">
            <stop offset=".05" stop-color="#F8FCDA"/>
            <stop offset=".26" stop-color="#FCE34B"/>
            <stop offset=".76" stop-color="#FFAB39"/>
        </linearGradient>
        <linearGradient id="PZP__f" x1="13.23" x2="10.248" y1="9.346" y2="14.333" gradientUnits="userSpaceOnUse">
            <stop offset=".06" stop-color="#F96428"/>
            <stop offset=".8" stop-color="#F3F14F"/>
        </linearGradient>
    </defs>
</svg>
