<svg xmlns="http://www.w3.org/2000/svg" width="24" height="24" fill="none" viewBox="0 0 24 24">
    <path fill="#05C7FF" d="M12 18.856a.838.838 0 1 0 0-1.675 5.17 5.17 0 0 1-5.187-5.187.838.838 0 0 0-1.668 0A6.857 6.857 0 0 0 12 18.862zm0-13.712a.838.838 0 0 0 0 1.675 5.17 5.17 0 0 1 5.188 5.187.838.838 0 0 0 1.669 0A6.857 6.857 0 0 0 12 5.144"/>
    <path fill="#05C7FF" d="M12.006 8.25A3.73 3.73 0 0 1 15.75 12a.863.863 0 0 1-1.719 0 2.032 2.032 0 0 0-4.024-.388A2.03 2.03 0 0 0 12 14.037a.862.862 0 0 1 0 1.713 3.75 3.75 0 0 1-2.65-1.1 3.75 3.75 0 0 1 2.656-6.4m3.469 7.225a.917.917 0 0 0 0-1.312l-.013-.02a.937.937 0 0 0-1.312 0 .937.937 0 0 0 0 1.32l.006.012a.925.925 0 0 0 1.319 0M12 2a.838.838 0 0 0 0 1.675A8.31 8.31 0 0 1 20.33 12 .837.837 0 0 0 22 12a10 10 0 0 0-2.931-7.075A10 10 0 0 0 11.999 2m0 20a.837.837 0 0 0 0-1.675A8.31 8.31 0 0 1 3.669 12a.835.835 0 0 0-.832-.831.84.84 0 0 0-.837.843 9.95 9.95 0 0 0 2.931 7.063A9.94 9.94 0 0 0 12 22"/>
</svg>
