<svg xmlns="http://www.w3.org/2000/svg" width="24" height="24" fill="none" viewBox="0 0 24 24">
    <path fill="#52DD4E" d="M5.207 12.155c-.529-.794-1.929-2.271-2.561-2.903 5.728-1.374 8.735 2.89 9.522 5.193.077-.858.71-3.561 2.593-7.554 1.89-3.993 5.187-4.922 6.593-4.89-.078 1.355-.53 4.548-1.697 6.464-1.174 1.91-4.141 2.103-5.393 1.967a39 39 0 0 0-1.296 4.284c-.433 1.78.4 5.031.432 5.98.032.96-.568 1.264-1.432 1.303-.865.032-1.297-.58-1.297-1.303 0-.71.697-4.374.529-6.258-.13-1.496-.968-2.329-1.361-2.56-.387.528-1.38 1.554-2.232 1.47-1.065-.103-1.73-.206-2.4-1.193"/>
</svg>
