<svg width="24" height="24" viewBox="0 0 24 24" fill="none" xmlns="http://www.w3.org/2000/svg">
<path d="M11.7625 2H13.1911V4.38096H17.0148V9.14286H16.5767C16.2196 7.18572 14.0338 4.81905 11.9672 4.81905C10.4196 4.81905 8.71007 5.57144 8.71007 6.96667C8.71007 8.66667 10.5148 9.57144 11.7625 10.1429V13.7381C11.3577 13.5952 10.9815 13.4619 10.6863 13.3238C8.67198 12.3715 6.47198 11.1333 6.52435 8.66667C6.57673 5.97619 8.90531 4.38096 11.7625 4.38096V2Z" fill="url(#paint0_linear_364_8629)"/>
<path d="M11.7622 19.619H12.4669L7.39549 19.6096H7.00024V14.381H7.39549C7.90025 16.7143 9.8812 19.1429 12.6241 19.1429C14.6098 19.1429 15.4812 17.9523 15.3908 16.2286C15.3335 15.181 14.2955 14.7096 13.1908 14.2429V10.5714C13.3595 10.6463 13.5248 10.729 13.686 10.819C15.5431 11.6619 17.4764 12.6762 17.4764 15.1096C17.4764 18.1905 14.7955 19.619 12.7145 19.619L13.1908 19.5952V22H11.7622V19.619Z" fill="url(#paint1_linear_364_8629)"/>
<defs>
<linearGradient id="paint0_linear_364_8629" x1="8.56153" y1="5.46786" x2="20.4353" y2="13.2885" gradientUnits="userSpaceOnUse">
<stop stop-color="#E7F88F"/>
<stop offset="1" stop-color="#50F0F8"/>
</linearGradient>
<linearGradient id="paint1_linear_364_8629" x1="8.56123" y1="5.46785" x2="20.435" y2="13.2884" gradientUnits="userSpaceOnUse">
<stop stop-color="#E7F88F"/>
<stop offset="1" stop-color="#50F0F8"/>
</linearGradient>
</defs>
</svg>
