<svg xmlns="http://www.w3.org/2000/svg" width="24" height="24" fill="none" viewBox="0 0 24 24">
    <path fill="#4155FF" d="M20.967 8.374a.56.56 0 0 0-.515-.37.55.55 0 0 0-.5.315c-.146.31-.3.61-.48.9a8 8 0 0 0-3.822-4.331A7.93 7.93 0 0 0 5.286 7.704a8.04 8.04 0 0 0-1.125 5.672 10 10 0 0 0-1.1 1.825.549.549 0 1 0 .99.47q.216-.459.485-.895a8 8 0 0 0 3.816 4.337 7.93 7.93 0 0 0 10.364-2.816 8.03 8.03 0 0 0 1.13-5.672c.43-.57.8-1.18 1.1-1.826a.55.55 0 0 0 .02-.425M18.866 12c0 1.68-.615 3.311-1.726 4.572a6.852 6.852 0 0 1-11.804-2.916 10.2 10.2 0 0 1 5.227-3.166c1.12-.3 2.266-.48 3.426-.526l-1.645 1.651.78.785L16.1 9.404l-3.391-3.406-.775.78 2.065 2.081c-1.25.04-2.49.23-3.701.56-1.42.375-2.761 1-3.966 1.84-.42.301-.82.636-1.19 1.001l-.006-.265a6.852 6.852 0 0 1 13.52-1.66 10.15 10.15 0 0 1-5.222 3.17c-1.12.3-2.266.48-3.426.526l1.64-1.65-.78-.786-2.97 2.991 3.4 3.416.776-.78-2.066-2.08c1.25-.046 2.49-.23 3.701-.561 1.415-.375 2.761-1 3.962-1.84a9.5 9.5 0 0 0 1.195-1.001z"/>
</svg>
