<svg xmlns="http://www.w3.org/2000/svg" width="24" height="24" fill="none" viewBox="0 0 24 24">
    <path fill="#16406E" d="M11.983 3 4.034 7.594v.15l2.277-1.248.225.226h.016l1.33-.7.158.316 4.847-2.817zm1.24.715L4.042 9.006v.225l2.277-1.33.225.316L9.137 6.73l.158.315 4.874-2.785zm1.313.755L4.042 10.494v.15l2.277-1.247.225.308h.008l3.84-2.27.158.316 4.856-2.78zm1.248.719-11.75 6.718v.225l2.277-1.33.225.316h.016l5.095-2.894.158.233 4.849-2.768zm1.234.71L4.042 13.387v.165l2.277-1.254.225.233h.008l6.35-3.608.158.233 4.893-2.718zm1.234.71-14.21 8.199v.233l2.277-1.33.225.307h.008l7.605-4.388.157.315 4.88-2.793zm1.242.716-15.452 8.97v.151l2.277-1.247.225.315 7.613-4.471.158.315 5.652-3.216v-.545zM6.319 16.61l-1.256.782-.24-.158 15.144-8.71v1.03l-5.652 3.292-.158-.316-7.688 4.389zm7.996-2.277-.158-.316-6.358 3.608-.226-.308-1.254.774-.24-.076 13.888-8.063v1.007zM8.904 18.1l-1.33.706-.008-.008-.225-.075 12.626-7.29v1.022l-5.652 3.292-.15-.315-5.111 2.983zm1.255.706-1.33.706v-.015l-.24-.075 11.378-6.576v1.098l-5.652 3.291-.158-.316-3.848 2.202zm-.083 1.488-.233-.159 10.124-5.8v1.022l-5.652 3.291-.158-.315-2.593 1.488-.15-.308zm2.51-.075L11.331 21l-.157-.075 8.793-5.177v1.097l-5.652 3.292-.158-.316-1.33.706z"/>
</svg>
