<svg xmlns="http://www.w3.org/2000/svg" width="24" height="24" fill="none" viewBox="0 0 24 24">
    <path fill="#fff" d="m19.058 15.073-1.506-2.533a.195.195 0 0 0-.2-.091.2.2 0 0 0-.071.026l-.98.633a.197.197 0 0 0-.061.264l.86 1.446a.1.1 0 0 1-.031.133l-5.015 3.237a.09.09 0 0 1-.104 0L6.932 14.95a.1.1 0 0 1-.03-.133l.86-1.446a.197.197 0 0 0-.063-.264l-.978-.633a.193.193 0 0 0-.271.065l-1.506 2.533a.39.39 0 0 0 .124.528l6.722 4.337a.38.38 0 0 0 .418 0l6.723-4.337a.39.39 0 0 0 .127-.528"/>
    <path fill="#2AE7A8" d="m7.643 10.886.949.639a.18.18 0 0 0 .214-.008.2.2 0 0 0 .049-.058l3.064-5.378a.09.09 0 0 1 .127-.034q.021.012.033.034l3.067 5.378a.186.186 0 0 0 .263.066l.95-.639a.204.204 0 0 0 .06-.268l-3.664-6.426A.38.38 0 0 0 12.432 4h-.864a.37.37 0 0 0-.322.192l-3.663 6.426a.204.204 0 0 0 .06.268"/>
</svg>
