<svg width="24" height="24" viewBox="0 0 24 24" fill="none" xmlns="http://www.w3.org/2000/svg">
<path d="M5.56803 2C5.22203 2 4.87943 2.06815 4.55978 2.20056C4.24013 2.33295 3.94968 2.52702 3.70503 2.77168C3.46037 3.01633 3.2663 3.30678 3.13391 3.62643C3.0015 3.94608 2.93335 4.28868 2.93335 4.63467V19.6667C2.93335 20.2856 3.17919 20.8791 3.61677 21.3166C4.05435 21.7542 4.64786 22 5.26669 22C5.88554 22 6.47903 21.7542 6.91661 21.3166C7.35421 20.8791 7.60003 20.2856 7.60003 19.6667V6.00002H16.9334L20.9334 2H5.56803Z" fill="#69E2A5"/>
<path d="M20.9331 7.89337V2.01602L10.8279 11.9894C10.4816 12.3319 10.2856 12.7978 10.283 13.2847C10.2802 13.7716 10.4709 14.2396 10.8131 14.5861L17.4331 21.288C17.8281 21.6891 18.366 21.9166 18.9286 21.921C19.4913 21.9253 20.0326 21.7059 20.4335 21.3111C20.8345 20.9163 21.0621 20.3783 21.0664 19.8157C21.0708 19.253 20.8513 18.7117 20.4565 18.3107L15.8986 13.6681C15.7973 13.565 15.7408 13.4261 15.7415 13.2817C15.7421 13.1372 15.7998 12.9989 15.9018 12.8967L20.9331 7.89337Z" fill="#3D8A65"/>
</svg>
