<svg xmlns="http://www.w3.org/2000/svg" width="24" height="24" fill="none" viewBox="0 0 24 24">
    <path fill="url(#RIBBIT__a)" fill-rule="evenodd" d="M19 12.1c0 3.65-3.136 6.6-7 6.6-3.865 0-7-2.95-7-6.6 0-3.645 3.135-6.6 7-6.6 3.864 0 7 2.955 7 6.6m-.44 0c0 3.42-2.935 6.19-6.56 6.19s-6.565-2.77-6.565-6.19c0-3.415 2.94-6.185 6.565-6.185 3.624 0 6.56 2.77 6.56 6.185m-.56.2c0 3.2-2.685 5.8-6 5.8s-6-2.6-6-5.8 2.685-5.8 6-5.8 6 2.6 6 5.8m-.425-.02c0 2.97-2.5 5.374-5.575 5.374-3.08 0-5.575-2.405-5.575-5.374 0-2.965 2.5-5.37 5.575-5.37 3.08 0 5.575 2.405 5.575 5.37M12 17.44c2.76 0 5-2.226 5-4.97a4.985 4.985 0 0 0-5-4.97c-2.76 0-5 2.224-5 4.97a4.986 4.986 0 0 0 5 4.97m4.424-3.816A4.574 4.574 0 0 0 12 7.85a4.58 4.58 0 1 0 3.46 7.58 4.5 4.5 0 0 1-3.336 1.45c-2.44 0-4.414-1.88-4.414-4.19s1.975-4.185 4.414-4.185c2.435 0 4.41 1.875 4.41 4.185 0 .325-.034.64-.11.94zm-.3-.985c0 2.09-1.79 3.785-4 3.785-2.215 0-4.004-1.694-4.004-3.784 0-2.096 1.79-3.79 4-3.79 2.215 0 4.01 1.7 4.01 3.79z" clip-rule="evenodd"/>
    <path fill="#E6EB2C" fill-rule="evenodd" d="m4.825 17.34.665.76.635-.525.265.25-.585.585.39.45.745-.805c-.005.18.095.35.22.48l-.51.61.79.555.455-.69c.115.03.24.03.35-.01l-.47.875c.28.14.555.28.84.415.1-.26.2-.52.315-.775.05.05.115.085.175.115.225.1.445.125.67.015l-.285.925.62.14.285-1.095c.03.07.05.16.075.26.065.3.075.615.07.925l.946.145.02-.215c.184.22.51.27.79.27.34 0 .57-.11.71-.275a.7.7 0 0 0 .17-.47 6 6 0 0 1-.026-.29 3 3 0 0 0-.065-.54l.23-.03.27 1.48.95-.225-.405-1.43.215-.07c0 .065.015.125.035.17v.005l.31.73c.07.16.2.28.4.325q.292.06.695-.105c.31-.13.476-.32.535-.525l.03-.145.15.24.03.04.5-.3-.435-.675.3-.21.46.6.02.025.165-.125c.425-.315.876-.645 1.21-1.04.1-.11.19-.235.255-.355.066-.12.12-.25.12-.385a.6.6 0 0 0-.16-.375c-.08-.1-.18-.18-.26-.235-.204-.155-.47-.34-.745-.34a.4.4 0 0 0-.15.035c-.15.065-.28.165-.41.265l-.014.01c-.236.185-.46.38-.686.58l.12.13-.07-.005a.9.9 0 0 0-.27.06c-.1.04-.22.095-.33.16-.23.145-.494.39-.454.68a.6.6 0 0 0-.19-.07 1.03 1.03 0 0 0-.61.08c-.226.09-.37.22-.45.36l-.05-.13a.2.2 0 0 0-.02-.055c-.52.23-1.05.315-1.62.37l.03.11a1.1 1.1 0 0 0-.525-.115c-.27 0-.47.08-.61.2l.014-.2-.54-.045-.005.05-.045.21a1.2 1.2 0 0 0-.884-.44h-.126l-.044.13c-.17-.215-.446-.36-.71-.45-.17-.06-.35-.1-.525-.02l.1-.18-.46-.22-.29.44c-.02.04-.08.14-.136.14-.06 0-.125-.06-.17-.095a.5.5 0 0 1-.085-.09c-.03-.04.015-.1.05-.13l.33-.46-.92-.765-.465.47-.23-.22.555-.46-.595-.595zm4.41 1.73a.4.4 0 0 1-.11.045q.074-.126.165-.24l.005.01c.06.05-.01.155-.06.185m3.06 1.77c-.544 0-.745-.21-.745-.45l.02-.79c0-.05.02-.11.05-.175.08-.16.27-.33.64-.33.67 0 .696.43.725.9 0 .09.01.18.02.27.005.19-.11.575-.71.575m2.55-.85-.31-.72c-.11-.31.14-.61.425-.73.4-.165.68-.07.8.15l.37.64c.085.175.136.57-.414.8-.5.2-.77.09-.87-.135zm2.09-2.62 1.13 1.225c.215-.17.42-.37.595-.585.166-.2.296-.415.296-.59 0-.195-.2-.37-.35-.485-.155-.115-.44-.305-.646-.305-.075 0-.245.11-.43.25a8 8 0 0 0-.594.49m1.35.825-.12.11-.924-.95.095-.11c.1-.11.23-.23.304-.23.23 0 .93.6.93.79 0 .03-.02.07-.05.115-.05.085-.15.19-.235.275m-.115-.12-.71-.725q.053-.057.11-.11c.035-.035.066-.07.11-.05.03.015.07.03.116.06q.299.184.53.45c.09.11.07.13-.015.225a4 4 0 0 0-.14.15m-6.09 2.395q-.017.001-.034-.005a.08.08 0 0 1-.055-.08v-.835c0-.05.04-.085.09-.085h.104c.05 0 .09.04.09.085v.835c0 .05-.04.085-.09.085zm3.286-.6a.09.09 0 0 1-.115-.045l-.35-.765a.08.08 0 0 1 0-.066.08.08 0 0 1 .05-.044l.1-.04c.04-.02.09 0 .11.04l.35.77c.014.04 0 .09-.05.11l-.1.04zm-3.285.76a.25.25 0 0 1-.255-.245v-.835a.25.25 0 0 1 .25-.245h.11c.14 0 .255.11.255.245v.835a.25.25 0 0 1-.25.245zm3.015-.74c.055.125.204.18.335.13l.1-.045c.13-.05.19-.2.13-.32l-.345-.765a.26.26 0 0 0-.336-.13l-.1.045a.237.237 0 0 0-.13.32zm1.364-1.67.09.08-.24.165c-.05-.085-.05-.1.03-.18a.3.3 0 0 1 .08-.065c.015-.01.02-.01.04 0M11.637 3.58l.014.735c.005.05.015.105.04.165l-.385.005a.035.035 0 0 1-.03-.03l-.1-1.385-.91.085.04.335a.68.68 0 0 0-.5-.23c-.22 0-.495.08-.71.2-.2.1-.45.28-.44.53 0 .06.025.135.045.2.075.25.18.49.29.725.05.13.24.345.575.345.165 0 .34-.065.48-.125l.17-.09.03.075.49-.16-.014-.07c.09.05.19.08.3.08l.82.005.015-.25c.135.125.33.21.6.21.23 0 .42-.05.56-.15V4.8l-.02.16.544.08.106-.59.134.63.866.215-.13-.95c.07-.03.14-.065.2-.115.01.15.094.27.175.36q.067.069.134.115l-.295.65.75.345.35-.68a.7.7 0 0 0 .56-.205c.16-.165.24-.37.3-.58a3.5 3.5 0 0 0-.48-.325l-.05.12c-.05.155-.114.32-.22.445-.05.05-.074.055-.114.055a.26.26 0 0 1-.2-.075c-.04-.05-.06-.08-.04-.135a.4.4 0 0 1 .024-.06l.22-.52-.85-.27-.014.015-.13.22a.8.8 0 0 0-.286-.305 1.27 1.27 0 0 0-.695-.205c-.23 0-.45.1-.575.275a.6.6 0 0 0-.12-.21c-.13-.155-.35-.26-.665-.26q-.41-.001-.634.155a.51.51 0 0 0-.226.425M4.87 7.265l.255.19.675.51.355-.385-.63-.5.2-.22c.185.16.36.325.535.49l.62-.515-.23-.24c.19.075.41.05.58-.07l.66-.47-.06-.09c.13.025.265.005.385-.05l.73-.365-.22-.455-.495.26a.035.035 0 0 1-.045-.015l-.76-1.18-.764.485.26.365c.17.25.35.5.534.735l-.3.225a.035.035 0 0 1-.045-.005l-.95-1.05-.67.595.185.185a.5.5 0 0 0-.13-.02c-.21 0-.45.21-.59.335l-.015.01c-.105.1-.215.21-.295.33a.75.75 0 0 0-.145.41c0 .125.05.31.236.41h.004l.105.08zM17.09 4.37l.16.11.71.5q.39.278.72.625l-.04.04q-.067.06-.13.125a.6.6 0 0 1 .2.01c.18.035.366.155.54.35.215.23.276.455.24.65a.67.67 0 0 1-.24.405l-.004.005h-.005c-.13.09-.425.29-.57.4a.58.58 0 0 1-.47.1.93.93 0 0 1-.486-.3c-.19-.21-.25-.415-.235-.6a.63.63 0 0 1 .186-.395l.19-.17c.13-.12.26-.245.4-.35l-.3-.245-.91 1.065-.645-.51.864-1.085-.41-.275.235-.45zm-7.4-.44v-.015a.3.3 0 0 0-.06-.14c-.01-.01-.015-.015-.025-.015a.1.1 0 0 0-.045.015.1.1 0 0 0-.02.03.25.25 0 0 0 0 .135l.01.025zm.115.745a.3.3 0 0 1-.054-.1l.3-.09v.08c0 .015-.006.045-.06.08a.3.3 0 0 1-.14.05c-.016 0-.025-.005-.046-.02M5.345 6.52a.4.4 0 0 0-.1-.055c-.02-.01-.03-.005-.05 0a.3.3 0 0 0-.095.11c-.024.055-.02.085-.01.1l.045.07zm6.88-2.94c0-.035.03-.065.065-.065h.1c.04 0 .07.03.07.065v.775c0 .035-.03.065-.07.065h-.1a.065.065 0 0 1-.064-.065zm1.526.325c.06 0 .13-.025.184-.05.045-.03.05-.05.056-.05q-.001-.066-.026-.08c-.01-.01-.035-.03-.11-.03l-.035.005a.1.1 0 0 0-.02.02.14.14 0 0 0-.03.06zm4.325 3.09-.07-.07a.065.065 0 0 1 .01-.09l.6-.515a.07.07 0 0 1 .05-.019.07.07 0 0 1 .05.024l.064.075c.025.025.025.07 0 .09l-.61.515a.07.07 0 0 1-.078.008l-.021-.018z" clip-rule="evenodd"/>
    <path fill="url(#RIBBIT__b)" fill-rule="evenodd" d="m11.819 4.305-.015-.725c0-.225.185-.42.69-.42.55 0 .66.355.65.535l-.065.675c-.015.225-.215.4-.62.4-.485 0-.63-.31-.64-.465m.235-.725a.23.23 0 0 1 .235-.225h.1c.13 0 .24.1.24.225v.775c0 .125-.11.225-.24.225h-.1a.23.23 0 0 1-.235-.225zm-1.035-.335-.57.05.14 1.145c.025.21.21.37.43.37h.665l.01-.17-.385.005a.2.2 0 0 1-.205-.18zm2.38 1.61-.215-.035c.045-.315.145-.99.185-1.145.05-.19.25-.32.485-.32.455 0 .86.29.86.55 0 .2-.26.3-.39.32l.12.855-.52-.13-.185-.885c.19 0 .42-.115.42-.26s-.085-.275-.3-.275c-.18 0-.245.15-.255.23l-.2 1.095zM5.069 17.37l.44.5.625-.515.49.47-.595.595.17.195 1.145-1.245-.135-.13-.47.47-.48-.46.56-.46-.37-.37zm11.865 0 1.13 1.225c.3-.235.89-.8.89-1.175 0-.195-.2-.37-.35-.485-.155-.11-.44-.305-.645-.305-.16 0-.75.495-1.025.74m.3-.015.93.95c.135-.115.4-.385.4-.5 0-.19-.695-.79-.925-.79-.105 0-.31.225-.4.34zm-9.335.45-.39-.305c-.135.1-.4.36-.4.565s.19.385.285.45l-.505.6.5.35.44-.66c.025.025.1.065.235.065s.285-.105.34-.16l.25-.45-.165-.085-.2.31c-.045.075-.155.225-.29.225-.17 0-.435-.24-.435-.355 0-.09.065-.19.1-.225zm.1 2 .52-.965c.075-.12.27-.355.475-.355.25 0 .99.32.99.69 0 .21-.35.39-.5.39-.155 0-.49-.13-.49-.26l.06-.01c.155-.03.425-.08.425-.375 0-.15-.135-.21-.2-.21-.07 0-.235.015-.76 1.35l-.52-.25zm2.19-.935-.49 1.58.285.065c.09-.35.28-1.08.32-1.21.335.05.41.925.4 1.355l.625.1.15-1.68-.215-.015c-.04.2-.12.64-.12.805a.97.97 0 0 0-.582-.918 1 1 0 0 0-.373-.082m4.86-15.21.555.18-.15.35a.5.5 0 0 0-.05.18c0 .08.115.325.42.325.185 0 .3-.13.47-.55.07.04.165.115.2.15-.06.23-.3.675-.75.545l-.34.645-.455-.21.285-.63c-.116-.06-.35-.23-.35-.45s.11-.45.165-.535m-4.76.115-.44.11c-.03-.175-.115-.29-.25-.29-.255.025-.25.27-.22.39.04.13.13.425.185.58.065.195.15.29.285.29s.37-.115.37-.29c0-.145-.03-.25-.05-.29l-.4.13-.085-.31.65-.16.205.92-.2.065-.05-.115c-.135.1-.47.29-.725.29a.45.45 0 0 1-.42-.24 4.5 4.5 0 0 1-.32-.87c-.015-.275.62-.565.975-.565.285 0 .445.235.49.35zm-4.375 3.82-.135.15a23 23 0 0 0-.96-.715.3.3 0 0 1-.15-.27c0-.42.74-.92.875-.92.105 0 .2.05.235.08l.855.9-.37.31a10 10 0 0 0-.55-.5l-.43.47.63.5zm-.69-1.305c.055 0 .2.1.365.235l-.435.47-.22-.17a.23.23 0 0 1-.065-.165c0-.11.185-.37.35-.37zm.925-1.145-.42.37.825.83c.15.15.4.175.575.05l.535-.38-.1-.145-.305.225a.21.21 0 0 1-.275-.025l-.835-.92zm.75-.455.475-.3.67 1.035c.055.09.175.12.27.07l.335-.18.075.16-.585.295a.45.45 0 0 1-.565-.135l-.68-.95zm4.65 15.7.02-.79c.01-.165.165-.5.69-.5.435 0 .65.19.67.43.015.2.055.57.075.735.005.19-.11.575-.71.575-.545 0-.745-.21-.745-.45m.53.24a.25.25 0 0 1-.235-.15.3.3 0 0 1-.02-.095v-.835a.25.25 0 0 1 .25-.245h.11c.14 0 .255.11.255.245v.835a.25.25 0 0 1-.25.245zm2.455-1.36.31.725c.1.225.37.34.87.13.55-.225.5-.62.415-.8-.085-.14-.275-.465-.37-.64-.12-.215-.4-.31-.8-.145-.48.2-.48.57-.425.73m.56.62c.055.125.205.18.335.13l.1-.045c.13-.05.19-.2.13-.32l-.345-.765a.26.26 0 0 0-.335-.13l-.1.045a.237.237 0 0 0-.13.32zm1.485-.23.22-.13-.43-.665.55-.39c.125.15.28.35.485.62.125-.09.38-.295.49-.385l-.825-.9c-.05-.055-.185-.165-.32-.165-.17 0-.89.29-.89.71 0 .15.48.935.72 1.305m.215-1.335-.53.375-.12-.185a.35.35 0 0 1-.05-.16c0-.08.22-.305.335-.305.075 0 .14.015.365.275m-3.83.755c.28-.025.935-.12 1.31-.29.03.08.05.16.05.195l-.4.13.4 1.415-.6.15-.275-1.47-.435.065zm5.375-13.06-.555.49c-.115.11-.265.42.055.77.265.29.54.32.73.18l.575-.4c.14-.11.35-.42-.02-.82-.335-.365-.605-.37-.785-.22m.5.2a.245.245 0 0 0-.33-.02l-.61.51a.22.22 0 0 0-.067.244.2.2 0 0 0 .047.076l.07.075c.085.09.23.1.33.02l.605-.515c.1-.08.11-.225.025-.315zm-1.77-1.45.085-.155c.35.235 1.095.76 1.295.98l-.12.13-.4-.32-.91 1.065-.385-.31.875-1.1-.44-.285z" clip-rule="evenodd"/>
    <path fill="#000" d="M7.775 9.47v-.42c0-.21.455-.566.655-.566s.625.175.845.175h1.01c.585 0 1.175.615 1.6.81.42.19.72-.15.92-.2.2-.045.27-.22.675-.61.4-.385.555.05.84 0 .29-.05.355-.175 1.28-.175s1.2.985 1.2 1.5c0 .41-.4 1.03-.595 1.29.365.61 1.1 1.91 1.1 2.21 0 .37-.255.34-.51.55-.25.205-.4.4-.59.915-.185.52-1.53 1.08-1.53 1.29-.17.535-.875.355-1.195.165-.135.3-.5.19-.42.37-.035.37-.59.645-.79.805s-.59-.255-.675-.42c-.085-.16.185-.485.285-.565s.44-.175-.1-.19c-.535-.02-3.165-.52-3.35-.825s-.05-.485-.2-.63-.435-.385-.805-.755c-.375-.37-.385-.475-.44-.68-.065-.24.185-.37.17-.435-.02-.065.1-.465.185-.645.085-.175.37-.485.5-.76.14-.27.305-.465.07-.625-.365-.335-.24-1.195-.135-1.58"/>
    <path fill="#978827" d="M8.25 14.21c.465.06.18.05.67.03.465-.02.49.07.8.16.304.09.345.165.45.19.9.25.5-.2-.42-.43-.475-.18-.075-.995.99-1.58.035.05.035-.025.014.18.39-.015.05.25.386.18.04-.135-.11-.105.05-.185 2.405.075 2.83.22 4.015 1.5.6 0 .9-.075 1.225-.47.4-.425.715.07.535-.46-.35.02-.29.1-.605-.095l-1.31-.685c-.3-.035-.59-.18-.946-.2-.36-.025-1.225-.05-1.55-.15-.374-.105-.48-.135-.76-.015-.6.255-1.674-.035-2.654.39-.28.12-.565.2-.78.345-.815.545-.915.47-1.05.6 0-.125.035-.12-.04-.195-.11.025-.04-.07-.12.09-.035.07-.095.31.2.315l.05-.205c.425.225.23.295.63.56.065.04.17.09.215.13z"/>
    <path fill="#B49B17" d="M11.1 14.901c3.125.5 1.93-.415 3.87-.66-.05-.085-.075 0-.005-.16-.275 0 0-.015-.15.1-.395-.235-1.035.05-1.61-1.415-.28.145-2.08-.345-2.8.125-.715.455-.7 1.79.7 2.015z"/>
    <path fill="#D8C718" d="m14.965 14.08.135.005c-.05-.145-.03-.035.06-.18-.44-.1 0-.175.14-.28.01 0 .01-.005.02-.015-1.335-.14-.95-.265-.905-.35.1-.185 1.15-.3-.51-.7h-.19c-.1-.01-.125-.03-.215-.015-.04.2-.47.125-.93.25.375.355.075.31-.035.09 0 .175.035.14.05.225l-.02.23c.065-.165.05-.13.125-.19.505.335.92.51.89 1.15a2.8 2.8 0 0 1 1.235-.12c.15-.115-.125-.1.15-.1m-4.525.13c.055-.115.08-.06.13-.11.565-.6-.13-.37.775-.8.065-.04.05-.07.12-.145.16-.175.205-.1.03-.335l-.06-.085c-.15.09-.1-.06-.25.02s-.005.05-.045.185c-.33.07.005-.2-.385-.18.02-.205.02-.135-.015-.18-.28.045-.075-.025-.245.13-.26-.11-1.22.115-1.24.285.31-.04 1.765-.15.515.04-.14.565-1 .355-.565.775-.085.1-.085.075-.195.1.01.375.21.265.515.135.11.04.115.085.225.115.375.095.19.205.465.09.1-.05.1-.03.225-.04"/>
    <path fill="#776827" d="M13.15 9.37c-.05.214-.015.05.05.114.39-.03.35-.07.65.045.09.035.21-.025.29-.075l.1-.065.02-.01c.07-.03.095-.01.215-.09.07-.045.51-.2.665-.27.095-.045.215-.09.31-.02-.095.04-.115.03-.205.05-.34.09.04.12-.575.23-.155.03-.61.265-.68.4.025.05 0 .035.1.08l.05.015c.01.225-.025.14.025.2.325.2.28.11.43.4.03.175.12.43.22.566.06.084.2.164.29.23.21.15.27.03.305.014l.145-.054c-.045-.15.005-.016-.09-.106L15.2 10.6c-.155-.34-.04-.445-.105-.755l-.115.15c-.185.335.035.43.05.535.015.085.005.056-.015.1-.36-.52.1-1-.25-.59-.09-.175.07-.29.225-.51.1-.145.175-.19.32-.285s.23-.175.415-.185c.34-.02.25.09.5.165v-.26c-.245-.135-.25-.26-.64-.06l-.065-.165c-.16.03-.045-.01-.135.05l-.04-.08c-.005-.005.05-.05-.09-.02-.25.06-.83.195-1.01.27-.03.015-.085.085-.11.11.06-.155.06-.01.065-.2-.45-.15-.7.015-.775.405l-.28.1z"/>
    <path fill="#5A5515" d="m16.095 12.26.02.145c1.02-.06-1.015-.97-1.1-.985-.98-.405-.31-.365-.7-.58-.05.13-.11.065-.41-.075-.535-.245-.185-.585-.515-.82l.25-.06c.16.085.05.07.23.05.05-.225-.005-.175-.04-.225-.185-.28-.36-.195-.635-.155-.97.305-.62.06-1.56.17-.25.03-.675-.25-1.03-.205-.12.015-.385.2-.35.34.025.095.13.11.25.11-.015 0-.015 0-.01-.02.02-.07.02-.06.1-.06.115 0 .05-.02.11.04l.015.255c-.01.2-.17.4-.315.5-.18.125-.12.15-.41.15.18-.26.09-.035.31-.32.12-.15.165-.04.165-.42-.14 0-.09.035-.1-.05-.28.06-.065.025-.31.205-.355.33-.375.41-.64.82l-.15.17c-.17.155-.48.23-.695.15-.16-.06-.1-.1-.3-.13-.04.04-.215.545-.285.63-.065.07-.29.35-.305.355-.085.06-.105.215-.11.31.225-.04.105-.05.165-.265.195.06.01.4.41-.09.045-.06 3.5-.87 3.55-.905.39-.365 3.71.57 4.395.965"/>
    <path fill="#5B5427" d="M11.55 11.43c.114-.04.06-.01.08-.06.1.03.244.026.234.166-.08.06-.045.01-.2-.015-.06-.01.01-.02-.054-.01-.086.015-.056.06-.1.075-.14-.01-.45-.08-.506.08l.095.07c.08-.06.175-.08.315-.085.026 0 1.8.25 2.23.4.1-.22 1.76.465 1.786.375.645.74 2.144.155-1.36-.575-.19-.026-1.5-.185-1.44-.42l-.006-.2c-.225.035-.16.02-.2 0l-.035-.28c-.05-.15-.135-.02-.17-.1-.05-.095-.105.085.026-.08l.04-.106c-.24.136-.236-.094-.466.116l-.065.06c0 .115.03.125.015.225-.065.124-.2.295-.225.365z"/>
    <path fill="#C7B846" d="M7.575 12.554c-.135.27-.135.135-.2.285.225.05.49-.115.6-.265l.16-.09.53-.17c.21-.08.05-.1.65-.285l.1-.035c.235-.065.81-.02 1.025-.085.32-.1.49-.335.8-.34l.27.015c.045-.015.014-.06.1-.075.065-.01-.005 0 .05.01.16.025.125.075.204.015.01-.14-.13-.135-.235-.165-.02.05.036.02-.085.06-.06-.035-.035.025-.074-.115-.07-.215-.04-.205.014-.385-.29.06-.304.055-.64.205-.73.325-1.974.175-2.7 1.065-.12.15-.14.2-.27.265l-.04-.075c-.034-.065-.014-.075-.094-.1l-.025.1v.14z"/>
    <path fill="#A89817" d="m10.735 15.02-.1.145c.57.115.55.425-.025.53.305.34 2.54.025 2.64.03-.015-.16-.01-.085.025-.195l.145-.455c.1-.035.155-.035.215-.185-1.14.33-1.3.36-2.9.13"/>
    <path fill="#D7D717" d="M10.41 15.715c.665-.124.57.196.815-.485-.175-.1-.035-.035-.105.035-.005.01-2.07-.94-2.47-.9h-.285l.015.12c.7.2.27.4.17-.09.225.065.01 0 .125.065.2.115-.075-.02.065.04.565.24 1.3 1.26 1.67 1.215"/>
    <path fill="#696527" d="M8.445 8.8c-.15-.01-.335.05-.46.075-.02.17-.055.205.015.38.125-.1 0-.085.2-.15.305-.1.475.015.705.16.275.17.4.425.535.7-.105.08.11.41-.37-.135-.015.285.02.56-.09.81-.05.12-.175.32-.285.406-.075.06-.075.024-.1.1.62.09.355-.15.725-.116.185-.45.1-.1.23-.654.05-.2.1-.17.145-.186l.29-.16c.015-.2.03-.085.005-.285.12.01.075.015.15.025l.025-.155c-.105-.075-.28-.175-.395-.245-.2-.13-.315-.075-.49-.135a9 9 0 0 1-.64-.335c-.065-.035-.125-.04-.195-.1"/>
    <path fill="#CCB453" d="M12.86 11.3c-.2-.004-.24-.05-.23.131 0 .02-.055.1-.03.17.465.175 1.035.195 1.47.25.375.08 1.68.41 1.85.685.17-.115.78.385.585.115-.075-.135-.3-.435-.3-.445l-1.525-.725c-.38-.235-1.5-.45-1.755-.135l-.065-.05z"/>
    <path fill="#DB642A" d="M15.35 9.96c.085-.045.055-.025.16-.065.285-.11.23-.31.525 0 .115.125.235.11.125.315-.08.02-.635 0-.74-.01-.065-.08-.105-.1-.07-.24m.375-.64c-.1.05-.15.06-.24.13-.435.35-.37.93-.135 1.265.1.14.275.24.51.225.32-.025.54-.475.53-.91-.005-.265-.23-.92-.665-.71"/>
    <path fill="#E6E817" d="M13.64 14.895c-.065.145-.12.15-.22.18l-.145.455c-.035.11-.04.035-.025.195h.02l.11-.255c.04-.05 1-.115 1.14-.19.57-.32.4-.375.26-.73.215 0 .4.005.625-.065l-.015-.14c-.435.01-.66.01-1 .19-.25.135-.54.245-.75.36"/>
    <path fill="#978837" d="M14.314 10.84c.39.215-.295.25.685.655a2.24 2.24 0 0 1 1.505 1.155c.19.355.215.17.105-.05-.055-.11-.085-.2-.125-.3l-.505-.91c-.17-.255-.035-.035-.46.035-.11.02-.335 0-.425-.05l-.2-.135c-.285-.25-.24-.325-.36-.525a2.4 2.4 0 0 0-.7-.64c-.09.08-.145.025-.1.24.07.37.475.325.58.525"/>
    <path fill="#A48B18" d="M12.925 14.955c.08-.01.13-.02.185-.036.2-.06-.075-.5.32-.53l-.065-.225c-.25.665-.35-.26-.685-.335-.21-.05-.4.05-.49.11-.11.07-.1.136.005.58-.17.22-.075.18-.075.42.15-.02.085-.02.135-.065.01-.005.1-.215.2-.29-.03.43-.285.48.47.37"/>
    <path fill="#999626" d="m15.39 14.344.015.14c-.225.07-.41.065-.625.065.085.21-.07.26-.24.25.055.31.8.025-.02.48-.14.075-1.1.14-1.14.19l-.11.255c.46.045 1.08-.215 1.48-.335.035-.01 1.295-.9 1.58-1.225a.44.44 0 0 0 .12-.22c-.45.425-.52.395-1.06.4"/>
    <path fill="#D75335" d="m7.84 9.83.07.075c.035-.06.03-.085.065-.135l.07-.08.565.005c.075.02.015 0 .065.025.26.145.275.235.24.51-.095.05-.02.025-.13.07-.33-.015-.615.14-.745.1-.1-.025-.115-.455-.185-.51.015-.285-.015-.06-.07.24 0 .115.01.22.05.31.35.87 1.015.46 1.15-.015.28-.95-.95-1.695-1.15-.595z"/>
    <path fill="#7A7527" d="M10.175 15.615c-.04-.44 0-.18-.11-.06-.15-.2.16-.755-.275-.85-.385-.15-1.975-.326-2.1-.765-.01-.015-.02-.015-.025-.02l.435.65c.545.6.85.65 1.664.95.15.054.24.075.41.095"/>
    <path fill="#867827" d="M8.625 8.775c-.01.065-.1.105.205.17.5.11.33.2.565.225.36.045.13-.015.605.245.12.065.13.125.245.11.15-.02.135-.065.32-.08.2-.015.28.035.475.04-.05-.14.01-.1-.135-.165l-.185-.055c-.04-.04-.035-.605-.73-.4 0 .63.225-.105-.935.05-.105-.25-.175-.215-.43-.14"/>
    <path fill="#978827" d="M11.47 11.316c.04.14.074.16.14.2.035-.12.48-1.02.69-.4.005.004.2.17.2.2.55.32.61 0 0-.41.684-.936-.265.07.104-.7-.7.16-.114.844-.8.125-.1-.11-.1.05-.135-.076l-.33.23c.06.14.03.02.105.16-.06.11-.16.19-.235.13.89.325.06-.09.26.54"/>
    <path fill="#C7B98A" d="M11.67 10.25c.035.13.035-.03.14.08.075.08 0 .47.46.26l.05-.194c.015-.045-.165-.37.3-.525-.105-.14-.01-.11-.295-.015-.24.08-.655-.06-.78-.08.06.135.27.345.125.48z"/>
    <path fill="#DF9B1B" d="M7.96 10.216c-.06-.32.1-.24.325-.225.195.01.335-.18.505-.06.13.1 0 .28-.2.28-.185 0-.49.045-.63.005m-.12-.385.015.015-.02.41c.07.06.11.12.205.15a.4.4 0 0 0 .175.015c.2-.025.005 0 .14-.04.165-.05.235.005.43-.08.11-.045.035-.02.13-.07.035-.275.02-.365-.24-.505-.05-.03.01-.01-.065-.03h-.565l-.07.075c-.035.05-.03.075-.065.135l-.04-.035z"/>
    <path fill="#71282E" d="M12.72 16.36c.105-.16-.05-.63-.295-.51.055.105.025.025.07.11.14.275.1.31.06.465h-.035l-.095.01c-.06.01-.16.025-.21.11-.09.15-.05.7.58.4.15-.46-.03-.375-.17-.52.1 0 .06.02.1-.065z"/>
    <path fill="#57474B" d="M13.74 16.25c.175.05.4.18.555.15.42-.085.04-.65-.9-.54.01.11.2.36.345.395z"/>
    <path fill="#677061" d="M12.8 16.36c.35.275.78-.105.465-.525-.1-.135-.34-.08-.435-.035-.12.06-.05 0-.14.105.6 0 .3.05.52.115-.18.05-.145-.06-.43-.06.015.51.7.075.02.4"/>
    <path fill="#E6ECD2" d="M11.865 17.165c.14.07.28.165.42.19.055-.065.08-.08.09-.19-.23-.13-.22-.08-.325-.34-.1.03-.185.255-.185.34"/>
    <defs>
        <linearGradient id="RIBBIT__a" x1="12.133" x2="12.133" y1="2.625" y2="20.924" gradientUnits="userSpaceOnUse">
            <stop stop-color="#F3FA04"/>
            <stop offset="1" stop-color="#80760F"/>
        </linearGradient>
        <linearGradient id="RIBBIT__b" x1="11.997" x2="11.997" y1="3" y2="21" gradientUnits="userSpaceOnUse">
            <stop offset=".8" stop-color="#E3484E"/>
            <stop offset="1" stop-color="#9E3A2F"/>
        </linearGradient>
    </defs>
</svg>
