<svg xmlns="http://www.w3.org/2000/svg" width="24" height="24" fill="none" viewBox="0 0 24 24">
    <path fill="url(#RITE__a)" d="m16.212 15.63-.25-.26a5.215 5.215 0 0 0-2.908-8.429 5.17 5.17 0 0 0-5.28 2.057 5.21 5.21 0 0 0 1.916 7.69 5.17 5.17 0 0 0 5.623-.668l.226.22 1.445 1.45.645-.644-1.417-1.422zm-1.204-.566a4.27 4.27 0 0 1-7.116-1.788A4.3 4.3 0 0 1 9.967 8.25a4.264 4.264 0 0 1 6.292 3.779 4.3 4.3 0 0 1-1.251 3.035"/>
    <path fill="url(#RITE__b)" d="m17.662 17.012-.65.65-1.449-1.45.678-.621z" style="mix-blend-mode:multiply"/>
    <path fill="#01FDFE" d="M16.31 5.251a8.05 8.05 0 0 0-9.977 1.083A8.05 8.05 0 0 0 5.59 16.8l.73-.55a7 7 0 0 1-.537-.828 7.13 7.13 0 0 1 6.23-10.505 7 7 0 0 1 3.719 1.054 1.741 1.741 0 0 0 2.296 2.292 7 7 0 0 0-.357-.517l.73-.55q.18.24.343.493a1.742 1.742 0 0 0-2.438-2.438zm1.615 1.996a.834.834 0 0 1-1.375-.906.835.835 0 0 1 1.346-.242.833.833 0 0 1 .029 1.148"/>
    <path fill="#01FDFE" d="M17.676 7.746a7.1 7.1 0 0 1 1.379 4.932A7.153 7.153 0 0 1 12 19.064c-1.294 0-2.58-.31-3.737-1.035a1.741 1.741 0 1 0-.574.715A8.005 8.005 0 0 0 18.4 7.195l-.73.55zM7.25 17.926a.831.831 0 1 1-1.175-1.176.831.831 0 0 1 1.175 1.175"/>
    <path fill="#01FDFE" d="M9.646 9.83a.6.6 0 0 1 .104-.325.7.7 0 0 1 .264-.235.8.8 0 0 1 .724-.01l.495.26 3.698 1.92a.7.7 0 0 1 .264.235.6.6 0 0 1 0 .659.7.7 0 0 1-.264.235l-2.974 1.539-.725.376-.494.254a.8.8 0 0 1-.235.076l-.127.014a.8.8 0 0 1-.518-.188.66.66 0 0 1-.212-.466z"/>
    <defs>
        <linearGradient id="RITE__a" x1="23.908" x2="4.336" y1="24.015" y2="4.269" gradientUnits="userSpaceOnUse">
            <stop stop-color="#8E40A3"/>
            <stop offset=".65" stop-color="#30BEE0"/>
            <stop offset="1" stop-color="#01FDFE"/>
        </linearGradient>
        <linearGradient id="RITE__b" x1="15.874" x2="6.797" y1="15.454" y2="7.36" gradientUnits="userSpaceOnUse">
            <stop stop-color="#2284C6"/>
            <stop offset="1" stop-color="#2284C6" stop-opacity="0"/>
        </linearGradient>
    </defs>
</svg>
