<svg xmlns="http://www.w3.org/2000/svg" width="24" height="24" fill="none" viewBox="0 0 24 24">
    <path fill="#04BFBF" d="M20.134 10.412a1 1 0 0 0-.317.058 7.3 7.3 0 0 0-3.05-.588c-1.7 0-3.325.567-4.765 1.748a7.4 7.4 0 0 0-4.764-1.748c-.996 0-2.018.133-3.04.588a.9.9 0 0 0-.322-.058c-.46 0-.874.296-.874.752 0 .455.392.825.847.836.424.01.81-.286.89-.699 2.276-1.149 4.537-.556 6.538 1.123a6.55 6.55 0 0 0-1.392 4.013c.016 1.704.82 3.213 2.117 4.563 1.271-1.419 2.102-2.933 2.118-4.563.01-1.155-.429-2.372-1.228-3.653q-.377.402-.662.873c.53.958.847 1.885.831 2.78-.021 1.043-.476 2.032-1.064 2.975a4.34 4.34 0 0 1-1.054-2.975 5.77 5.77 0 0 1 1.785-4.008c1.995-1.678 4.261-2.282 6.538-1.133a.87.87 0 0 0 .831.704c.477.021.921-.27.9-.762a.883.883 0 0 0-.858-.826z"/>
    <path fill="#04BFBF" d="M19.414 8.067a.77.77 0 0 0-.16-.476.9.9 0 0 0-.433-.307.95.95 0 0 0-.53-.016.9.9 0 0 0-.45.28 9.48 9.48 0 0 0-5.84 1.176 9.5 9.5 0 0 0-5.844-1.176.9.9 0 0 0-.646-.312c-.519-.026-.963.402-.926.89.037.439.434.772.894.772a.9.9 0 0 0 .742-.402 8.3 8.3 0 0 1 3.038.148 8 8 0 0 1 2.737 1.24A8.2 8.2 0 0 1 17.768 8.5a.916.916 0 0 0 1.27.244l.038.01-.016-.026a.79.79 0 0 0 .35-.662z"/>
    <path fill="#04BFBF" d="M15.39 5.118a.86.86 0 0 0-.74.434 8.9 8.9 0 0 0-2.648 1.049 8.9 8.9 0 0 0-2.647-1.049.86.86 0 0 0-.73-.434c-.456-.005-.858.37-.858.831 0 .445.37.826.82.837a.87.87 0 0 0 .668-.297 7.6 7.6 0 0 1 2.747 1.276 7.5 7.5 0 0 1 2.748-1.27.87.87 0 0 0 .64.296.86.86 0 0 0 .848-.826.857.857 0 0 0-.847-.847"/>
    <path fill="#04BFBF" d="M12.002 5.118a1.059 1.059 0 1 0 0-2.118 1.059 1.059 0 0 0 0 2.118"/>
</svg>
