<svg width="24" height="24" viewBox="0 0 24 24" fill="none" xmlns="http://www.w3.org/2000/svg">
<path fill-rule="evenodd" clip-rule="evenodd" d="M12.0005 2.62501C14.1078 2.62449 16.1539 3.33397 17.8085 4.63898C19.4631 5.944 20.6299 7.76842 21.1204 9.81788C21.6109 11.8673 21.3966 14.0223 20.5121 15.935C19.6276 17.8478 18.1244 19.4066 16.2452 20.3602C14.366 21.3138 12.2202 21.6065 10.1543 21.191C8.08832 20.7754 6.22262 19.6759 4.8582 18.0699C3.49378 16.4639 2.71025 14.445 2.63403 12.339C2.5578 10.2332 3.19332 8.16294 4.43805 6.46251C4.70051 6.72393 5.03473 6.90145 5.39829 6.97253C5.76186 7.0436 6.13832 7.00503 6.47991 6.86169C6.82149 6.71836 7.11278 6.47674 7.31676 6.16752C7.52073 5.85831 7.62821 5.49543 7.62555 5.125C7.62619 4.84357 7.56346 4.56561 7.44203 4.31173C7.32061 4.05785 7.14358 3.83457 6.92409 3.65842C6.70461 3.48228 6.44828 3.35781 6.17413 3.29423C5.89997 3.23066 5.61503 3.22961 5.34041 3.29116C5.06581 3.35272 4.80857 3.47531 4.5878 3.64984C4.36702 3.82436 4.18836 4.04635 4.06507 4.29932C3.94177 4.55231 3.877 4.82979 3.87558 5.11122C3.87415 5.39265 3.93608 5.67078 4.0568 5.92501C2.68585 7.71755 1.96153 9.92113 2.00158 12.1775C2.04162 14.4338 2.84367 16.6102 4.27738 18.3531C5.71106 20.0958 7.69208 21.3024 9.89836 21.7766C12.1047 22.2509 14.4065 21.9651 16.4298 20.9654C18.4529 19.9657 20.0785 18.3111 21.0423 16.2704C22.006 14.2299 22.2512 11.9233 21.738 9.72572C21.2248 7.5282 19.9833 5.56884 18.2154 4.16621C16.4476 2.76357 14.2573 2.00013 12.0005 2.00002V2.62501ZM5.75055 6.37501C6.08208 6.37501 6.40001 6.24331 6.63443 6.00888C6.86885 5.77447 7.00055 5.45652 7.00055 5.125C7.00055 4.79349 6.86885 4.47555 6.63443 4.24112C6.40001 4.00671 6.08208 3.87501 5.75055 3.87501C5.41903 3.87501 5.10109 4.00671 4.86667 4.24112C4.63225 4.47555 4.50054 4.79349 4.50054 5.125C4.50054 5.45652 4.63225 5.77447 4.86667 6.00888C5.10109 6.24331 5.41903 6.37501 5.75055 6.37501ZM12.0005 16.375C13.1609 16.375 14.2736 15.914 15.0941 15.0935C15.9146 14.2731 16.3755 13.1604 16.3755 12C16.3755 10.8397 15.9146 9.72688 15.0941 8.90641C14.2736 8.08594 13.1609 7.62501 12.0005 7.62501C10.8403 7.62501 9.72744 8.08594 8.90695 8.90641C8.08648 9.72688 7.62555 10.8397 7.62555 12C7.62555 13.1604 8.08648 14.2731 8.90695 15.0935C9.72744 15.914 10.8403 16.375 12.0005 16.375Z" fill="url(#paint0_linear_364_11490)"/>
<defs>
<linearGradient id="paint0_linear_364_11490" x1="12" y1="2.00002" x2="12" y2="22.0001" gradientUnits="userSpaceOnUse">
<stop stop-color="#E92121"/>
<stop offset="1" stop-color="#9C0403"/>
</linearGradient>
</defs>
</svg>
