<svg width="24" height="24" viewBox="0 0 24 24" fill="none" xmlns="http://www.w3.org/2000/svg">
<path d="M18.7656 4.1983C19.0227 4.96671 18.9764 5.80431 18.6363 6.53971C18.548 6.53971 18.4891 6.55737 18.4597 6.5809C18.4008 6.62795 18.4008 6.65737 18.4715 6.6809C18.5892 6.7162 18.6715 6.7868 18.7186 6.89269C18.4185 7.11035 18.2008 7.22213 18.0714 7.22213C17.5881 7.23936 17.1075 7.30239 16.636 7.41038C16.4772 7.36333 16.3654 7.29273 16.3006 7.21626C15.4192 6.07304 14.5833 4.89554 13.7945 3.68649C13.7807 3.66207 13.7612 3.64133 13.7376 3.62597C13.7141 3.61063 13.6872 3.60113 13.6592 3.59824C13.4448 3.57547 13.2279 3.58939 13.018 3.63942H11.6767C11.5708 3.63942 11.559 3.67472 11.6356 3.75708C11.6767 3.79238 11.6943 3.84533 11.7002 3.92181C11.7002 4.02181 11.6649 4.03947 11.5885 3.97476C11.5407 3.93557 11.5008 3.88765 11.4708 3.83356C11.4354 3.76297 11.4001 3.76886 11.3826 3.84533L11.3296 4.02181C11.2943 4.1277 11.2472 4.13948 11.1883 4.03947C11.1002 3.89827 11.0943 3.78649 11.1883 3.69826C11.2295 3.65119 11.2238 3.62766 11.159 3.62766L9.5353 3.59824C9.31174 3.59824 9.17057 3.77473 9.15291 3.9924C9.15291 4.05123 9.17056 4.10417 9.21762 4.13948C9.38823 4.2689 9.45294 4.41009 9.40587 4.56305L9.09408 4.3042C9.01761 4.23948 8.97643 4.25713 8.97643 4.36302C8.97054 4.53952 8.76463 4.73365 8.69404 4.93955C8.59991 5.2337 8.4705 5.50431 8.30577 5.74552C8.27636 5.79847 8.28812 5.8161 8.34695 5.80434C8.38814 5.80434 8.40577 5.78081 8.40577 5.74552C8.40577 5.7161 8.41166 5.69845 8.42343 5.68669C8.43013 5.67691 8.43884 5.66871 8.44899 5.66262C8.45914 5.65653 8.4705 5.6527 8.48226 5.65138C8.57638 5.63374 8.64109 5.66316 8.6764 5.73963C8.68227 5.76316 8.69993 5.78081 8.71758 5.79847C8.72934 5.81023 8.75287 5.81612 8.7764 5.82199C8.79405 5.82199 8.8117 5.82199 8.83523 5.81023C8.89407 5.76905 8.89406 5.73374 8.82347 5.70434C8.71938 5.66098 8.63251 5.58446 8.57639 5.48667C8.56835 5.47374 8.56513 5.45841 8.56727 5.44335C8.56942 5.42828 8.57682 5.41446 8.58815 5.40431L8.61757 5.36901C8.65286 5.33372 8.68227 5.33372 8.71169 5.36901C8.79405 5.45137 8.88818 5.52784 8.9823 5.60433C9.06466 5.66316 9.0882 5.64551 9.04113 5.54549C9.00278 5.45609 8.934 5.38315 8.847 5.33959C8.82418 5.32816 8.80433 5.31157 8.78901 5.29116C8.77369 5.27074 8.76334 5.24704 8.75876 5.22194C8.73522 5.13369 8.75876 5.10427 8.847 5.13958C9.04702 5.22194 9.19409 5.36312 9.28822 5.56315C9.3294 5.65727 9.34705 5.6514 9.35293 5.55138C9.35293 5.52785 9.35293 5.5102 9.33529 5.49255C9.22023 5.29335 9.07315 5.11447 8.89994 4.96309C8.84112 4.91015 8.84112 4.86308 8.89994 4.81013L8.93525 4.79248C9.01761 4.8219 9.06466 4.79248 9.07643 4.70424C9.07643 4.65717 9.09997 4.62776 9.13526 4.61011C9.1882 4.58658 9.22938 4.59834 9.25293 4.65129C9.29411 4.71012 9.32351 4.73954 9.35293 4.72777L9.5823 4.98073C9.61181 5.01604 9.61772 5.05722 9.5882 5.0984C9.57915 5.11255 9.56706 5.12459 9.55293 5.13369C9.49412 5.16899 9.45883 5.15722 9.42941 5.10427C9.36469 4.98662 9.27645 4.89837 9.17056 4.83366C9.08231 4.77483 9.06466 4.79248 9.11761 4.89249C9.19409 5.01015 9.29411 5.11604 9.41176 5.1984C9.54707 5.28665 9.62348 5.25723 9.6589 5.0984C9.70584 4.85131 9.8589 4.72777 10.1119 4.73954C10.8413 4.75719 11.6061 4.76306 12.3944 4.75719C12.6533 4.78072 12.9238 4.99249 13.2121 5.40431C13.2416 5.45137 13.2828 5.45726 13.3297 5.42195C13.4475 5.34548 13.5474 5.24547 13.6239 5.13958C13.6769 5.12192 13.7299 5.13369 13.771 5.16899C13.7833 5.17709 13.7927 5.18882 13.798 5.20253C13.8032 5.21623 13.8041 5.23125 13.8004 5.24547L13.777 5.28077C13.7671 5.28989 13.7549 5.29601 13.7415 5.29841C13.7091 5.30398 13.6783 5.3163 13.6509 5.33453C13.6236 5.35277 13.6004 5.37654 13.5827 5.40431C13.5356 5.48079 13.5533 5.5102 13.6416 5.50431C13.671 5.50431 13.7004 5.48666 13.724 5.46902L13.8063 5.49844C13.8185 5.50283 13.8295 5.50986 13.8387 5.51901C13.8478 5.52816 13.8549 5.53921 13.8593 5.55138C13.871 5.57491 13.8651 5.60433 13.8475 5.62198C13.8181 5.66316 13.777 5.67492 13.7299 5.65138C13.7178 5.64604 13.7047 5.64327 13.6916 5.64327C13.6784 5.64327 13.6654 5.64604 13.6534 5.65138C13.571 5.68669 13.571 5.72787 13.6416 5.78081L14.377 6.2691C14.3829 6.2691 14.3888 6.2691 14.3888 6.28087C14.3908 6.28548 14.3919 6.29049 14.3919 6.29557C14.3919 6.30065 14.3908 6.30566 14.3888 6.31028L14.3829 6.32792L14.324 6.36323C14.3181 6.37499 14.3005 6.37499 14.2887 6.3691C13.9236 6.1933 13.5897 5.9588 13.3004 5.67492C13.2895 5.66383 13.2747 5.65749 13.2592 5.65727C13.2456 5.65838 13.233 5.66471 13.2239 5.67492L13.1945 5.70434V5.72198C13.5474 6.09849 13.9533 6.38676 14.4063 6.5809C14.4887 6.61619 14.4887 6.65149 14.4063 6.68678C14.1299 6.80444 13.9122 6.5103 13.6769 6.39852C13.5945 6.3691 13.5827 6.38676 13.6357 6.45735L13.924 6.81033C13.9651 6.86916 14.024 6.90445 14.0946 6.91621C14.3592 6.96917 14.5651 6.88092 14.7358 6.66326C14.7488 6.64522 14.7682 6.63278 14.79 6.62842C14.8118 6.62405 14.8345 6.62809 14.8534 6.63972L14.8829 6.67502L15.1594 7.1633C15.1676 7.17866 15.1704 7.19635 15.1671 7.21347C15.1639 7.23059 15.155 7.2461 15.1417 7.25744C15.1319 7.26655 15.1197 7.27267 15.1064 7.27508C15.0711 7.27508 15.0476 7.29862 15.0476 7.33391C15.0299 7.40451 15.0593 7.44569 15.1359 7.45156C15.1947 7.45156 15.2595 7.4398 15.3182 7.41038C15.3888 7.3692 15.4183 7.39274 15.4124 7.46921C15.3712 7.79277 15.2947 8.01633 15.2006 8.14576C14.8476 8.59285 14.5064 9.0576 14.1651 9.54001L13.7886 9.62237C13.7345 9.63339 13.6784 9.62506 13.6298 9.59884C13.4592 9.50471 13.3474 9.54001 13.2945 9.6812C13.2028 9.92491 13.0844 10.1577 12.9415 10.3754C12.5314 10.3617 12.1215 10.3421 11.712 10.3165C11.6413 10.3106 11.5944 10.2872 11.5767 10.246C11.5506 10.1909 11.5385 10.1303 11.5414 10.0695L12.2297 9.99299C12.5061 10.0813 12.6592 9.98119 12.7004 9.6812L12.6945 9.64002L13.5181 8.11045C13.5533 8.05163 13.5945 8.01045 13.6416 7.96927C13.7299 7.91044 13.7945 7.83396 13.8475 7.7516C13.8684 7.71804 13.8794 7.67933 13.8794 7.63983C13.8794 7.60032 13.8684 7.5616 13.8475 7.52805L12.5415 5.15723C12.5267 5.13152 12.5052 5.1103 12.4792 5.0958C12.4534 5.08131 12.424 5.07407 12.3944 5.07486L10.4471 5.13369C10.3765 5.13958 10.3295 5.16899 10.2942 5.2337L9.10584 7.51628C9.08274 7.56036 9.06923 7.60884 9.06619 7.65852C9.06315 7.7082 9.07065 7.75797 9.0882 7.80455C9.19409 8.08692 9.32351 8.36342 9.50001 8.62816C9.56473 8.74581 9.60591 8.73405 9.61181 8.59874C9.61181 8.53402 9.64709 8.49285 9.71175 8.48108C9.75293 8.4752 9.78244 8.48108 9.81772 8.50462C9.84119 8.52814 9.8648 8.55756 9.88237 8.59285C9.76473 8.76934 9.72945 9.01642 9.7882 9.33999C9.88237 9.76944 10.1119 10.1754 10.4707 10.5577C10.559 10.7342 10.6472 10.7754 10.7237 10.6931C10.7708 11.0225 10.5824 11.2402 10.1647 11.3401C10.106 11.3519 10.0589 11.3401 10.0118 11.299C9.97558 11.2633 9.94922 11.2187 9.93536 11.1695C9.90598 11.0696 9.8648 11.0637 9.82362 11.1579L9.55293 11.7579L9.3294 12.0167C9.28808 12.01 9.24826 11.996 9.21175 11.9756C9.17552 11.952 9.14852 11.9167 9.13526 11.8755C8.79645 11.0446 8.42754 10.2263 8.02927 9.42235C7.80572 8.81641 7.54687 8.18694 7.24095 7.53392C7.11741 7.27508 7.06447 7.03976 7.09389 6.82798C7.17625 6.22791 7.18212 5.6808 7.52922 5.13958C7.91206 4.53866 8.34083 3.96827 8.8117 3.43352C8.92936 3.29822 9.07055 3.1982 9.23527 3.12761C9.92945 2.83347 10.6118 2.52166 11.2943 2.18634C11.5296 2.06868 11.812 2.00986 12.1238 2.00397C13.2416 1.98633 14.1064 2.02751 14.7005 2.12751C15.8476 2.32165 16.7301 2.58049 17.3479 2.90994C17.7949 3.14526 18.2656 3.57472 18.7598 4.20419L18.7656 4.1983Z" fill="#F6F6F6"/>
<path d="M13.0186 3.64531C13.101 3.8218 13.0775 3.96887 12.9363 4.08654C12.9113 4.10883 12.8911 4.13598 12.877 4.16632C12.8628 4.19665 12.855 4.22956 12.8539 4.26302C12.8539 4.33362 12.8127 4.38067 12.7481 4.39833C12.7326 4.40387 12.7183 4.41245 12.7062 4.42356C12.6941 4.43468 12.6842 4.4481 12.6774 4.46304C12.6702 4.47978 12.6667 4.49779 12.6667 4.51598C12.6667 4.53418 12.6702 4.55219 12.6774 4.56892L12.6892 4.63365C12.6892 4.69247 12.6539 4.73365 12.595 4.74542C11.7676 4.757 10.94 4.75503 10.1125 4.73954C9.85953 4.72777 9.70647 4.85131 9.65953 5.09251C9.62411 5.25136 9.54182 5.28665 9.41828 5.19841C9.29783 5.11815 9.19722 5.01153 9.12413 4.88661C9.06529 4.79248 9.08295 4.76895 9.1712 4.82779C9.27709 4.89837 9.36532 4.99249 9.43004 5.10427C9.45946 5.16311 9.50064 5.16899 9.5477 5.13369C9.56468 5.12363 9.57882 5.10947 9.58884 5.09251C9.61835 5.05722 9.61245 5.01604 9.58293 4.98073L9.35356 4.72777C9.42416 4.74542 9.44181 4.68659 9.4065 4.56305C9.44768 4.41009 9.38886 4.2689 9.21825 4.13948C9.19596 4.12266 9.17869 4.10007 9.16831 4.07415C9.15795 4.04822 9.15488 4.01995 9.15942 3.9924C9.1712 3.77473 9.31238 3.59237 9.53593 3.59824L11.1596 3.62766C11.2185 3.62766 11.2302 3.65119 11.189 3.69826C11.0949 3.78649 11.1008 3.89827 11.189 4.03947C11.2479 4.13948 11.2949 4.12772 11.3302 4.01594L11.3832 3.84533C11.4008 3.76886 11.4361 3.76297 11.4772 3.83356C11.5068 3.8924 11.542 3.93358 11.595 3.97476C11.6656 4.03358 11.7068 4.02181 11.7008 3.91592C11.7008 3.84533 11.6774 3.79238 11.642 3.7512C11.5596 3.67473 11.5714 3.63943 11.6774 3.63943H13.0186V3.64531Z" fill="#B7B8B8"/>
<path d="M16.6356 7.41038C16.212 7.77513 15.8356 8.19281 15.512 8.66934C15.4532 8.7517 15.3827 8.83406 15.3003 8.91053C15.2179 8.9929 15.1531 9.09291 15.1061 9.22233C15.0826 9.28116 15.0885 9.33999 15.1238 9.38705C15.2237 9.53413 15.3768 9.6106 15.5768 9.62237C15.6944 9.76356 15.8356 9.85765 16.0004 9.90473C16.0532 9.92244 16.0885 9.95771 16.1121 10.0107C16.1827 10.2283 16.3239 10.3989 16.518 10.5283C16.6181 10.6107 16.665 10.7165 16.665 10.8401C16.5121 10.899 16.371 10.9872 16.2532 11.1108C15.7372 10.7336 15.3013 10.2576 14.9708 9.71062C14.9568 9.6862 14.9374 9.66546 14.9139 9.65011C14.8903 9.63475 14.8634 9.62525 14.8355 9.62237L14.1648 9.54001C14.5061 9.0576 14.8473 8.59285 15.2002 8.14576C15.3003 8.01633 15.3708 7.79277 15.412 7.4751C15.4179 7.39274 15.3884 7.3692 15.3179 7.41038C15.2591 7.4398 15.2002 7.45745 15.1356 7.45156C15.059 7.44569 15.0296 7.40451 15.0414 7.33391C15.0473 7.2986 15.0708 7.27508 15.1061 7.27508L15.1413 7.25744C15.156 7.24581 15.1659 7.22922 15.1692 7.21078C15.1725 7.19235 15.1688 7.17336 15.159 7.15742L14.8826 6.67502C14.8756 6.66219 14.8654 6.6513 14.8531 6.64334C14.8409 6.63539 14.8267 6.63061 14.8122 6.62945C14.7976 6.62828 14.7829 6.63075 14.7696 6.63665C14.7562 6.64256 14.7445 6.6517 14.7354 6.66326C14.5707 6.88092 14.3589 6.96917 14.0883 6.91622C14.0223 6.9022 13.9638 6.86453 13.9236 6.81033L13.6354 6.45735C13.5824 6.38676 13.5942 6.3691 13.6765 6.39852C13.9118 6.50441 14.1295 6.81033 14.406 6.68678C14.4883 6.65149 14.4883 6.61619 14.406 6.5809C13.9453 6.37661 13.5324 6.078 13.1942 5.70434L13.2236 5.67492C13.2278 5.6696 13.2332 5.66526 13.2392 5.66221C13.2454 5.65917 13.2521 5.65748 13.2588 5.65727C13.2765 5.65727 13.2882 5.66316 13.3 5.67492C13.5894 5.9588 13.9232 6.1933 14.2883 6.3691H14.3236L14.3825 6.32205L14.3943 6.31028C14.3964 6.30566 14.3975 6.30065 14.3975 6.29557C14.3975 6.29049 14.3964 6.28548 14.3943 6.28087L14.3766 6.2691L13.6413 5.77492C13.5707 5.72787 13.5707 5.68669 13.6531 5.65727C13.665 5.65192 13.6781 5.64916 13.6912 5.64916C13.7044 5.64916 13.7174 5.65192 13.7295 5.65727C13.7766 5.67492 13.8178 5.65727 13.8472 5.62198C13.8558 5.61267 13.8616 5.60101 13.8636 5.58844C13.8658 5.5759 13.8641 5.563 13.859 5.55138C13.8546 5.53921 13.8474 5.52816 13.8384 5.51901C13.8292 5.50986 13.8182 5.50283 13.806 5.49844L13.7236 5.46902C13.8211 5.443 13.9102 5.39236 13.9825 5.32194C14.0295 5.26899 14.0295 5.22194 13.9766 5.17487C13.876 5.08343 13.7607 5.00982 13.6354 4.9572C13.6247 4.95285 13.6131 4.95144 13.6017 4.95308C13.5903 4.95474 13.5795 4.9594 13.5706 4.9666C13.5615 4.9738 13.5546 4.98326 13.5505 4.99402C13.5464 5.00478 13.5452 5.01643 13.5471 5.0278C13.5471 5.06309 13.5765 5.0984 13.6177 5.13958C13.5471 5.25135 13.4472 5.34548 13.3353 5.42195C13.2824 5.45726 13.2413 5.45137 13.2118 5.39842C12.9235 4.99249 12.6529 4.78072 12.394 4.7513C12.4529 4.76306 12.5117 4.76306 12.594 4.74542C12.6529 4.73365 12.6823 4.69836 12.6882 4.63365C12.6882 4.61011 12.6823 4.59247 12.6705 4.56892C12.6612 4.54368 12.6595 4.5162 12.6657 4.49C12.672 4.4638 12.686 4.44007 12.7059 4.42186C12.718 4.41142 12.7319 4.40343 12.7471 4.39833C12.8118 4.3748 12.847 4.33362 12.8529 4.26302C12.8529 4.19242 12.8882 4.13359 12.9353 4.08654C13.0765 3.96887 13.1 3.81591 13.0177 3.63943C13.2236 3.59237 13.4354 3.58059 13.6647 3.59824C13.7177 3.60413 13.7589 3.63354 13.7942 3.68061C14.5829 4.88965 15.4189 6.06716 16.3003 7.21037C16.3592 7.29862 16.4768 7.36333 16.6356 7.41038Z" fill="#D2D2D2"/>
<path d="M9.98243 3.81592L9.92944 3.98064C9.90597 4.063 9.86479 4.07476 9.8059 4.01006L9.68826 3.88064C9.67412 3.86493 9.66452 3.84573 9.6604 3.82503C9.65628 3.80433 9.65779 3.78289 9.66465 3.76297C9.67206 3.74441 9.68428 3.72816 9.70007 3.71592C9.71681 3.70224 9.73727 3.69404 9.75882 3.69237L9.87646 3.68061C9.89362 3.67877 9.91077 3.68164 9.92642 3.6889C9.94193 3.69616 9.95525 3.70753 9.96472 3.72179C9.97529 3.73475 9.98243 3.75016 9.98559 3.76661C9.98861 3.78305 9.98751 3.80001 9.98243 3.81592ZM10.106 3.7865C10.0765 3.73356 10.0883 3.69826 10.1472 3.68061C10.164 3.67463 10.1822 3.67262 10.2 3.67474L10.2295 3.6865C10.3294 3.7571 10.3706 3.85122 10.3531 3.98064C10.3531 3.9924 10.3472 4.01006 10.3353 4.01594C10.3253 4.02734 10.312 4.03522 10.297 4.03839C10.2822 4.04157 10.2668 4.03988 10.253 4.03358C10.2405 4.02697 10.2302 4.01671 10.2236 4.00418L10.106 3.7865ZM9.38822 4.03947C9.46469 4.14536 9.55882 4.21596 9.5941 4.18067C9.63528 4.15125 9.6059 4.03947 9.53529 3.93358C9.45882 3.82181 9.3588 3.7571 9.32351 3.7865C9.28233 3.81592 9.31174 3.93358 9.38233 4.03947H9.38822Z" fill="#F6F6F6"/>
<path d="M17.212 4.07476L17.0943 4.11594C17.0238 4.13948 16.9885 4.11594 16.9943 4.03947L17.0002 3.94534C17.0061 3.85122 17.0532 3.82767 17.1355 3.86885C17.1826 3.88651 17.2179 3.91592 17.2472 3.9571C17.2825 4.01594 17.2709 4.05123 17.212 4.07476Z" fill="#443633"/>
<path d="M18.7658 4.1983C19.1718 4.72189 19.4718 5.28665 19.6718 5.89847C19.6601 6.13379 19.5482 6.35146 19.3423 6.53383C19.2188 6.6515 19.1364 6.82798 19.1071 7.0633C19.0915 7.03767 19.0759 7.01218 19.06 6.98682C18.8836 6.86916 18.7423 6.72208 18.6365 6.53972C18.9766 5.80432 19.0229 4.96672 18.7658 4.1983ZM16.9069 4.79837C17.0305 4.92779 17.1481 5.02191 17.1716 5.00428C17.1893 4.98073 17.101 4.85719 16.9775 4.72189C16.8539 4.59247 16.7363 4.49833 16.7127 4.51598C16.6951 4.53951 16.7834 4.66307 16.9069 4.79837Z" fill="#D2D2D2"/>
<path d="M13.5352 4.70426C13.547 4.65719 13.5764 4.63366 13.6235 4.63366C13.6824 4.63366 13.6942 4.66308 13.6647 4.71602C13.5588 4.87485 13.4412 4.99252 13.3058 5.07488C13.2235 5.12783 13.2058 5.10428 13.2469 5.01605C13.294 4.92192 13.3647 4.83956 13.4706 4.78073C13.5014 4.76214 13.5245 4.73284 13.5352 4.69837V4.70426Z" fill="#AA9994"/>
<path d="M13.7249 5.46903C13.7014 5.48845 13.6727 5.50071 13.6425 5.50432C13.5543 5.51021 13.5366 5.48079 13.5836 5.40432C13.6014 5.37655 13.6246 5.35277 13.6519 5.33453C13.6792 5.3163 13.7101 5.30399 13.7425 5.29842L13.7779 5.28078C13.788 5.27119 13.7952 5.25883 13.7982 5.24521C13.8014 5.23159 13.8004 5.21736 13.7954 5.20429C13.7915 5.19038 13.7832 5.17807 13.772 5.169C13.7508 5.15185 13.7259 5.1402 13.6992 5.13507C13.6725 5.12993 13.6449 5.13148 13.6189 5.13958C13.5777 5.0984 13.5543 5.0631 13.5484 5.0278C13.547 5.01681 13.5484 5.00561 13.5525 4.99531C13.5566 4.985 13.5633 4.97594 13.572 4.96897C13.5801 4.96241 13.5897 4.95791 13.5998 4.95586C13.6101 4.95382 13.6207 4.95427 13.6307 4.95721C13.7602 5.01015 13.8778 5.08075 13.9779 5.17487C14.0307 5.22194 14.0366 5.269 13.9779 5.32194C13.9072 5.3915 13.8203 5.44208 13.7249 5.46903Z" fill="#B7B8B8"/>
<path d="M12.6952 9.64592C12.7539 9.52826 12.7186 9.44001 12.5716 9.38706C12.5193 9.36754 12.4743 9.33268 12.4422 9.28706L12.0481 8.71641C12.1245 8.67523 12.1539 8.62818 12.1362 8.56345C12.1186 8.50463 12.0775 8.48109 12.0245 8.50463C12.0116 8.50784 11.9983 8.50846 11.9851 8.50644C11.9719 8.50443 11.9594 8.4998 11.948 8.49287C11.8775 8.45756 11.8716 8.4105 11.9245 8.35168L12.0598 8.19872C12.0948 8.19054 12.1267 8.1731 12.1527 8.14827C12.1785 8.12343 12.1973 8.09209 12.2069 8.05752C12.2186 8.01634 12.201 7.98105 12.148 7.95163C12.1922 7.90742 12.2259 7.85372 12.2463 7.7946C12.2666 7.73549 12.2733 7.6725 12.2657 7.61043C12.2598 7.53983 12.2128 7.43394 12.1305 7.3104C12.0716 7.21038 12.0304 7.1045 12.001 6.99272C11.8716 6.75151 11.8304 6.58091 11.8891 6.46913C11.9186 6.42206 11.9068 6.40443 11.848 6.4103C11.7951 6.4103 11.7598 6.45148 11.7362 6.51031C11.7127 6.56915 11.7362 6.62797 11.7892 6.66915C11.6713 6.7148 11.5748 6.80296 11.5185 6.91623C11.5185 6.84565 11.4657 6.79269 11.3715 6.7574L10.9597 6.26912C10.9527 6.25826 10.9424 6.24999 10.9303 6.24558C10.9126 6.2397 10.9008 6.24558 10.895 6.26323V6.30441C10.9832 6.4809 11.1009 6.62209 11.2598 6.71622C11.1362 6.77505 11.0832 6.84563 11.1126 6.93977C11.0361 6.92212 10.9715 6.96919 10.9067 7.06919C10.795 7.16331 10.7479 7.3104 10.7656 7.52218C10.6714 7.56925 10.6361 7.65748 10.648 7.79868L10.395 7.95751C10.3766 7.96831 10.3553 7.97301 10.3342 7.97088C10.313 7.96876 10.2931 7.95997 10.2773 7.94575C10.2609 7.93151 10.2493 7.91259 10.2441 7.89155C10.2388 7.87051 10.2401 7.84835 10.2478 7.82809C10.2714 7.76926 10.2655 7.71043 10.2302 7.66337C10.1773 7.60454 10.1479 7.63395 10.1361 7.75749C10.1354 7.77534 10.1373 7.7932 10.142 7.81044C10.1596 7.91633 10.1184 7.95752 10.0184 7.92222L9.71247 7.8222L9.81844 7.43981C9.87129 7.25156 9.81844 7.21627 9.67719 7.33981C9.50073 7.48099 9.43601 7.68102 9.46543 7.93987C9.46543 7.9987 9.50073 8.01634 9.55365 7.9987C9.58893 7.98693 9.6242 7.95163 9.66538 7.8928C9.70656 7.91634 9.72427 7.95163 9.72427 7.98105C9.72427 8.03988 9.7008 8.06929 9.64191 8.07518C9.58302 8.08694 9.54191 8.13401 9.53013 8.22224C9.52703 8.24006 9.52806 8.25835 9.53317 8.27568C9.53827 8.29303 9.54729 8.30897 9.55955 8.32226C9.57108 8.33579 9.58563 8.34653 9.60183 8.35367C9.61816 8.3608 9.63587 8.36414 9.65372 8.36344C9.78316 8.35168 9.91837 8.38697 10.0655 8.47522C9.99524 8.4939 9.93319 8.53527 9.88899 8.59287C9.87362 8.55776 9.84932 8.52731 9.81844 8.50463C9.80375 8.49291 9.78659 8.4847 9.7682 8.48063C9.74981 8.47653 9.73072 8.4767 9.71247 8.48109C9.64781 8.49287 9.61254 8.53404 9.61254 8.59876C9.60663 8.73406 9.56545 8.73995 9.49484 8.63405C9.3313 8.37229 9.19527 8.09431 9.08893 7.80456C9.07049 7.75715 9.06253 7.70632 9.06558 7.65556C9.06862 7.60478 9.08261 7.55527 9.10656 7.51041L10.2949 5.23372C10.3302 5.17488 10.3773 5.13959 10.4478 5.13959L12.3951 5.07487C12.4248 5.07409 12.4541 5.08132 12.4799 5.09582C12.5059 5.11031 12.5274 5.13154 12.5423 5.15725L13.8541 7.52806C13.8953 7.60454 13.8894 7.67513 13.8541 7.75162C13.7952 7.83398 13.7306 7.91045 13.6423 7.96929C13.5933 8.00731 13.5532 8.05546 13.5247 8.11047L12.6893 9.64592H12.6952Z" fill="#D2D2D2"/>
<path d="M11.2295 5.75141C11.1708 5.75141 11.1237 5.78671 11.0943 5.83966C11.0531 5.91613 10.9943 5.93966 10.9178 5.90437C10.8002 5.8573 10.6825 5.78671 10.5825 5.70435C10.5178 5.64552 10.5237 5.62199 10.6061 5.62199L12.1709 5.59845C12.2062 5.59845 12.2179 5.6161 12.2179 5.64552L12.2121 5.69846L12.2003 5.72788C11.9174 5.78464 11.6269 5.7926 11.3414 5.75141C11.3023 5.74736 11.2629 5.74736 11.2238 5.75141H11.2295Z" fill="#AA9994"/>
<path d="M14.5187 6.3103C14.4833 6.07498 14.3597 5.93968 14.1538 5.91026C14.062 5.89804 13.9781 5.85188 13.9185 5.78083C13.8774 5.73377 13.8892 5.70436 13.9538 5.6867C14.0127 5.67494 14.0539 5.6867 14.0892 5.72788C14.1774 5.82201 14.2833 5.86908 14.4068 5.87495C14.4657 5.88084 14.5128 5.91613 14.5422 5.97497L14.7187 6.35147C14.7481 6.42207 14.7246 6.46913 14.6598 6.48679L14.5774 6.51031C14.501 6.53384 14.4657 6.50443 14.4833 6.42207C14.4833 6.39854 14.4951 6.38088 14.5069 6.36325C14.5129 6.35601 14.5172 6.34742 14.5192 6.33821C14.5213 6.32898 14.521 6.31942 14.5187 6.3103Z" fill="#F6F6F6"/>
<path d="M10.3944 5.8926C10.4884 6.00438 10.5708 6.12792 10.6356 6.28675C10.6767 6.38677 10.659 6.40442 10.5767 6.32793C10.4567 6.22188 10.3708 6.0827 10.3296 5.92789V5.90436L10.3473 5.88671H10.3708L10.3944 5.8926Z" fill="#AA9994"/>
<path d="M19.6717 5.89847L19.7777 6.38087C19.6011 6.86916 19.3718 7.09859 19.1011 7.05741C19.1364 6.82209 19.2187 6.64561 19.3365 6.53383C19.5482 6.35145 19.66 6.13379 19.6717 5.89847Z" fill="#B7B8B8"/>
<path d="M8.07063 6.3044C8.06743 6.31116 8.06246 6.31692 8.05624 6.32107C8.05002 6.32521 8.04279 6.32759 8.03532 6.32793C8.03146 6.32878 8.02745 6.32885 8.02356 6.32812C8.01967 6.32739 8.01596 6.32589 8.01267 6.32369C8.00936 6.32149 8.00655 6.31865 8.00438 6.31533C8.00221 6.31202 8.00073 6.3083 8.00003 6.3044V6.28675C8.05886 6.09261 8.16475 6.01025 8.31771 6.0279C8.40007 6.03967 8.40594 6.06908 8.34124 6.12203C8.2824 6.1691 8.21769 6.19851 8.14122 6.22204C8.12343 6.22864 8.10761 6.23967 8.09526 6.25408C8.08291 6.26849 8.07443 6.2858 8.07063 6.3044ZM7.81178 6.67503C7.80949 6.66937 7.80949 6.66304 7.81178 6.65737V6.64561H7.81765L7.95885 6.55737C8.21181 6.40442 8.45301 6.26322 8.64126 6.1691C8.82364 6.07497 8.93542 6.0279 8.94718 6.04556C8.95307 6.06319 8.86482 6.13968 8.69421 6.26322C8.51772 6.38087 8.2824 6.53383 8.02944 6.68679L7.89414 6.76915H7.87649C7.8733 6.76943 7.87009 6.76904 7.86706 6.76803C7.86402 6.76702 7.86122 6.76541 7.85883 6.76328L7.81178 6.67503Z" fill="#AA9994"/>
<path d="M19.7776 6.38087C20.0659 6.84563 20.2365 7.28684 20.3011 7.69864C20.3188 7.81631 20.2659 7.94573 20.1541 8.08692L19.8718 8.38107C19.7835 8.4752 19.7423 8.45755 19.754 8.32224L19.8011 7.95162C19.8046 7.92225 19.7991 7.89251 19.7856 7.86628C19.772 7.84004 19.7507 7.81852 19.7246 7.80455C19.7065 7.79442 19.6864 7.78839 19.6659 7.78689C19.5246 7.77513 19.4363 7.86925 19.4011 8.06927C19.301 8.13399 19.1834 8.09281 19.0539 7.95162C19.1717 7.93396 19.2363 7.84573 19.2482 7.68101C19.2716 7.41627 19.0482 7.19271 18.8657 7.03388C18.8775 6.97505 18.9422 6.95739 19.0598 6.98681L19.101 7.05741C19.3717 7.09859 19.6011 6.86916 19.7776 6.38087Z" fill="#8E908F"/>
<path d="M7.71219 7.25156C7.66783 7.2785 7.62971 7.3146 7.60041 7.35744C7.59452 7.11036 7.67101 6.96917 7.8475 6.92799L8.11811 6.8574C8.37695 6.73974 8.62404 6.59856 8.85936 6.42794H8.87701L8.90643 6.46913V6.48678C8.59463 6.76326 8.25341 6.9574 7.87691 7.06331C7.83683 7.07543 7.80176 7.10019 7.7769 7.13389C7.7516 7.17 7.73178 7.20965 7.71807 7.25156H7.71219ZM12.0009 6.99858C11.9185 6.98682 11.8478 6.88093 11.7891 6.66914C11.7302 6.62796 11.7126 6.57501 11.7361 6.51031C11.7597 6.45147 11.795 6.41618 11.8537 6.41029C11.9067 6.40442 11.9126 6.42206 11.889 6.46913C11.8303 6.57501 11.8714 6.7515 12.0068 6.99858H12.0009Z" fill="#AA9994"/>
<path d="M12.1532 6.98682C12.1943 6.82799 12.2826 6.70445 12.4179 6.6162C12.5061 6.55738 12.5238 6.57502 12.4767 6.66914C12.4002 6.78681 12.3002 6.90446 12.1825 7.01036C12.1473 7.03977 12.1355 7.03389 12.1532 6.98682Z" fill="#635450"/>
<path d="M11.7887 6.66914C11.8474 6.87505 11.9181 6.98682 12.0005 6.99271C12.0298 7.11037 12.071 7.21038 12.1299 7.31039C12.2123 7.43981 12.2592 7.53982 12.2651 7.60453C12.2736 7.66755 12.2674 7.73167 12.2471 7.79189C12.2267 7.85211 12.1926 7.90678 12.1475 7.95163C12.0239 8.0281 11.9946 8.11046 12.0592 8.19871L11.924 8.35167C11.8651 8.41049 11.8769 8.45756 11.9475 8.49286C11.9709 8.50463 11.9946 8.50463 12.0239 8.49874C12.0828 8.48109 12.1181 8.49874 12.1357 8.55757C12.1534 8.62817 12.124 8.67523 12.0475 8.71641C11.9122 8.71641 11.7768 8.72817 11.6415 8.77524C11.5887 8.79289 11.5591 8.83407 11.5534 8.89289C11.5416 9.05761 11.4886 9.21057 11.4003 9.34L11.218 8.66346C11.1385 8.50591 11.0165 8.37381 10.8657 8.28228C10.7149 8.19074 10.5414 8.14343 10.3649 8.14577C10.3062 8.14577 10.3062 8.15753 10.3532 8.18695C10.565 8.33402 10.7062 8.53992 10.7709 8.79289L10.065 8.47521C9.94486 8.39081 9.79977 8.34936 9.65316 8.35754C9.63573 8.35943 9.61816 8.35722 9.60183 8.35108C9.58549 8.34494 9.5708 8.33508 9.559 8.32225C9.54674 8.30897 9.53772 8.29303 9.53262 8.27568C9.52751 8.25834 9.52648 8.24006 9.52958 8.22224C9.54136 8.134 9.58247 8.08693 9.64726 8.07517C9.70025 8.06928 9.72372 8.03399 9.72372 7.98105C9.72372 7.94574 9.70601 7.92221 9.66483 7.8928C9.65316 7.86927 9.66483 7.84574 9.71192 7.8222L10.0179 7.92221C10.1178 7.95752 10.159 7.92221 10.1355 7.80456V7.75749C10.1473 7.63395 10.1767 7.59866 10.2297 7.66337C10.265 7.71042 10.2709 7.76925 10.2473 7.82809C10.2396 7.84835 10.2382 7.8705 10.2436 7.89155C10.2488 7.91259 10.2603 7.93151 10.2768 7.94574C10.2943 7.95752 10.3121 7.96928 10.3355 7.96928C10.3532 7.96928 10.3708 7.96928 10.3944 7.9575L10.6532 7.79867C10.6943 7.79867 10.7355 7.7928 10.7709 7.78102C10.8297 7.75749 10.8533 7.71043 10.8356 7.64571C10.8216 7.59981 10.7974 7.5576 10.765 7.52217C10.7473 7.31039 10.7944 7.16331 10.9062 7.06919L11.0121 7.12802C11.0709 7.15743 11.1121 7.13978 11.1298 7.06919C11.1381 7.02527 11.1318 6.97985 11.1121 6.93977C11.0827 6.84564 11.1357 6.76916 11.2592 6.71621C11.2592 6.7515 11.2827 6.76916 11.3357 6.77505C11.3357 6.86917 11.3532 6.93977 11.3887 6.99271C11.418 7.03977 11.4474 7.04566 11.4886 7.00448C11.5077 6.97901 11.518 6.94806 11.518 6.91623C11.5768 6.79857 11.671 6.71621 11.7887 6.66914Z" fill="#F6F6F6"/>
<path d="M11.3361 6.77504L11.3714 6.75739C11.4656 6.79268 11.5184 6.84563 11.5184 6.91622C11.5184 6.9574 11.5067 6.98682 11.489 7.00447C11.4538 7.04565 11.4185 7.03976 11.3891 6.9927C11.3522 6.92621 11.3339 6.85103 11.3361 6.77504Z" fill="#85706B"/>
<path d="M18.7192 6.89268L18.8662 7.03388C19.0486 7.19271 19.2721 7.41627 19.2486 7.681C19.2368 7.84573 19.1722 7.93396 19.0544 7.94573C18.4897 7.76924 17.925 7.59864 17.3602 7.45156C17.1601 7.39274 16.9601 7.41627 16.7483 7.39274C17.1818 7.29774 17.6227 7.24066 18.0661 7.22213C18.2014 7.22213 18.4191 7.10448 18.7192 6.89268ZM7.6004 7.35156C7.63202 7.3102 7.67215 7.2761 7.71805 7.25155C7.70041 7.27507 7.70041 7.29862 7.71805 7.31625L7.7357 7.33391H7.75923L7.98279 7.29862C8.03573 7.29273 8.07691 7.30449 8.11809 7.3398C8.14222 7.35997 8.17131 7.37334 8.20233 7.37852C8.23337 7.38369 8.26522 7.38047 8.29458 7.3692C8.34165 7.35156 8.36518 7.31038 8.35341 7.25744C8.34165 7.16919 8.38283 7.11624 8.48284 7.09271C8.60049 7.06917 8.62402 7.11035 8.5652 7.21037L8.4299 7.44568C8.41491 7.47168 8.39354 7.49343 8.3678 7.50887C8.34206 7.52431 8.31281 7.53293 8.28281 7.53392C8.08867 7.53981 7.8769 7.55746 7.65923 7.58688C7.6004 7.59275 7.57687 7.62806 7.57687 7.68688V7.70453C7.54745 7.73982 7.5298 7.73395 7.51215 7.70453C7.43568 7.55746 7.47097 7.44569 7.6004 7.35156Z" fill="#D2D2D2"/>
<path d="M13.1766 7.43979C13.159 7.43979 13.1413 7.43979 13.1295 7.42803C13.1199 7.42486 13.1113 7.41949 13.1041 7.41234C13.097 7.40519 13.0915 7.39646 13.0883 7.38685C13.0842 7.37762 13.082 7.36759 13.082 7.35743C13.082 7.34729 13.0842 7.33725 13.0883 7.32801C13.0964 7.31287 13.1082 7.30005 13.1227 7.29077C13.1371 7.28151 13.1537 7.2761 13.1707 7.27507C13.2119 7.27507 13.2472 7.29272 13.2649 7.32801C13.3649 7.48097 13.4414 7.64569 13.5002 7.82807C13.5354 7.92808 13.512 7.94572 13.4237 7.8869C13.3654 7.84851 13.3174 7.79609 13.2846 7.73441C13.2517 7.67275 13.2348 7.60381 13.2355 7.53392C13.2355 7.48686 13.2119 7.45744 13.1766 7.43979Z" fill="#AA9994"/>
<path d="M16.6358 7.41039C16.6947 7.41628 16.7241 7.41039 16.7475 7.38686C16.9593 7.41628 17.1593 7.39863 17.3595 7.45157C17.9242 7.59866 18.4889 7.76338 19.0536 7.94574C19.1831 8.09282 19.3007 8.134 19.4008 8.06341C19.5066 8.14577 19.5009 8.22813 19.3714 8.31636C19.349 8.33109 19.3235 8.34036 19.297 8.34343C19.2704 8.34649 19.2435 8.34327 19.2184 8.33402C18.5419 8.07517 17.8653 7.86927 17.2005 7.7222C17.1298 7.70453 17.056 7.70441 16.9851 7.72183C16.9144 7.73926 16.8491 7.77371 16.7946 7.8222C16.3475 8.18695 15.8945 8.65759 15.424 9.23411C15.4064 9.2541 15.3958 9.27919 15.3936 9.3057C15.3916 9.33219 15.398 9.35866 15.4122 9.38118C15.4709 9.5106 15.6181 9.56356 15.8358 9.54002C15.6181 9.52825 15.5357 9.55767 15.5769 9.62238C15.488 9.62293 15.4002 9.60179 15.3213 9.56078C15.2424 9.51978 15.1746 9.46015 15.1239 9.38706C15.1072 9.36336 15.0969 9.3358 15.0937 9.30699C15.0907 9.27816 15.095 9.24903 15.1062 9.22234C15.1533 9.09292 15.2238 8.98702 15.3004 8.91054C15.3828 8.83407 15.4534 8.75759 15.5121 8.66935C15.8358 8.19282 16.2181 7.77514 16.6358 7.41039Z" fill="#696868"/>
<path d="M10.7651 7.52217C10.8004 7.56335 10.8239 7.60453 10.8357 7.64571C10.8534 7.71043 10.8357 7.75749 10.771 7.78102C10.7331 7.79387 10.6933 7.79985 10.6533 7.79867C10.6357 7.65748 10.671 7.56335 10.771 7.52217H10.7651Z" fill="#AA9994"/>
<path d="M19.4011 8.06928C19.4363 7.86926 19.5246 7.77514 19.6659 7.7869C19.6856 7.78906 19.7048 7.79543 19.7221 7.80557C19.7394 7.81572 19.7543 7.8294 19.7658 7.84574C19.791 7.87502 19.8037 7.91307 19.8011 7.95163L19.7599 8.32225C19.7423 8.45756 19.7835 8.47521 19.8718 8.38109L20.1541 8.08693C20.26 8.16929 20.207 8.38108 19.9894 8.72229C19.953 8.69765 19.9097 8.68529 19.8659 8.68699C19.8011 8.68699 19.7599 8.72229 19.7364 8.787C19.7246 8.82231 19.7011 8.83407 19.6659 8.82818C19.6247 8.81642 19.607 8.787 19.607 8.73993C19.6088 8.71764 19.6042 8.69528 19.5938 8.67548C19.5834 8.65569 19.5676 8.63927 19.5481 8.62817C19.529 8.6159 19.5069 8.6089 19.4843 8.60787C19.4615 8.60682 19.439 8.61181 19.4188 8.62228C19.0539 8.787 18.6775 8.52227 18.301 8.45756C18.0362 8.41049 17.7657 8.3399 17.4891 8.24578C17.2715 8.16342 16.9832 8.13988 16.7949 8.3046C16.5243 8.53403 16.2361 8.7164 15.9184 8.8576C15.8598 8.88583 15.8078 8.92589 15.7654 8.97525C15.6184 9.13997 15.6536 9.23999 15.8654 9.2694C15.989 9.28706 16.1007 9.32824 16.2125 9.40471C16.2374 9.42351 16.266 9.4369 16.2965 9.44398C16.3268 9.45108 16.3584 9.45172 16.389 9.44589C16.7026 9.36765 17.0343 9.40962 17.3186 9.56356C17.3773 9.59296 17.395 9.64003 17.3773 9.69886C17.3361 9.82828 17.3773 9.93411 17.5009 10.0048C17.5361 10.0283 17.5598 10.0636 17.5832 10.0931C17.6018 10.1305 17.6093 10.1724 17.6052 10.214C17.6009 10.2556 17.5853 10.2953 17.5598 10.3283C17.5361 10.3577 17.5009 10.3871 17.4656 10.3989C17.2008 10.4931 16.9832 10.6578 16.8067 10.8872C16.7478 10.8401 16.7009 10.8284 16.6654 10.8401C16.6654 10.7165 16.6185 10.6107 16.5184 10.5283C16.6243 10.5106 16.695 10.4813 16.7302 10.4342C16.8479 10.3754 16.9596 10.2931 17.0479 10.1989C17.095 10.14 17.1009 10.0813 17.0597 10.0224L16.7478 9.56356C16.7327 9.53753 16.7099 9.5168 16.6825 9.50419C16.6552 9.49156 16.6245 9.48763 16.5949 9.49296L15.936 9.5812L15.8361 9.54001C15.6184 9.56354 15.4771 9.5106 15.4125 9.38118C15.3983 9.35866 15.3919 9.33219 15.3939 9.3057C15.3961 9.27919 15.4067 9.2541 15.4243 9.23411C15.8948 8.65758 16.3478 8.18695 16.7949 7.8222C16.9125 7.7222 17.0479 7.68689 17.2008 7.7222C17.8656 7.86927 18.5422 8.07517 19.2186 8.33402C19.2438 8.34327 19.2707 8.34649 19.2973 8.34343C19.3238 8.34036 19.3493 8.33109 19.3717 8.31636C19.5011 8.22813 19.5069 8.14576 19.4011 8.06928Z" fill="#443633"/>
<path d="M7.76473 7.8575C8.0177 7.76337 8.27066 7.75161 8.52951 7.81043C8.61776 7.83397 8.61776 7.8575 8.52951 7.88102C8.37067 7.92809 8.20006 7.93986 8.0177 7.9222C7.95887 7.91044 7.9118 7.93986 7.88238 7.9928C7.87412 8.00922 7.86981 8.02735 7.86981 8.04575C7.86981 8.06414 7.87412 8.08227 7.88238 8.09869C7.94122 8.21047 7.9118 8.234 7.80591 8.18694C7.68826 8.12811 7.62942 8.01633 7.62354 7.8575C7.62354 7.79866 7.64119 7.7869 7.68826 7.80455C7.7059 7.81043 7.71766 7.82219 7.72355 7.83984C7.73531 7.8575 7.74708 7.86337 7.76473 7.8575Z" fill="#8E908F"/>
<path d="M12.1408 7.95163C12.1997 7.98105 12.2173 8.01634 12.2056 8.05752C12.196 8.09208 12.1772 8.12342 12.1514 8.14827C12.1255 8.1731 12.0935 8.19053 12.0585 8.19871C11.9938 8.11046 12.0232 8.0281 12.1408 7.95163Z" fill="#85706B"/>
<path d="M11.2175 8.66346C11.0469 8.64581 10.9645 8.69877 10.9704 8.81053C10.8586 8.75171 10.7939 8.74582 10.7704 8.79289C10.7111 8.54611 10.5622 8.33016 10.3527 8.18695C10.3056 8.15753 10.3115 8.13988 10.3644 8.14577C10.5409 8.14343 10.7144 8.19074 10.8652 8.28228C11.016 8.37381 11.138 8.5059 11.2175 8.66346Z" fill="#221A18"/>
<path d="M8.37045 8.35753C8.62341 8.39871 8.82931 8.39284 8.84109 8.34577C8.84109 8.30459 8.64695 8.23399 8.39398 8.19281C8.14102 8.15752 7.93512 8.16339 7.92334 8.21046C7.92334 8.25164 8.11748 8.32224 8.37045 8.35753Z" fill="#AA9994"/>
<path d="M14.5303 8.3399C14.4716 8.45166 14.4363 8.55168 14.4716 8.57522C14.501 8.59286 14.5833 8.52226 14.648 8.41637C14.7128 8.31048 14.7422 8.2046 14.7069 8.18105C14.6775 8.16341 14.601 8.23989 14.5303 8.3399Z" fill="#D2D2D2"/>
<path d="M19.9899 8.72228C19.9134 8.94584 19.7133 9.11055 19.3898 9.21056C19.1604 9.15173 18.9957 9.21056 18.8956 9.38705C18.8657 9.44075 18.8533 9.50246 18.8603 9.56353C18.8666 9.65115 18.8482 9.73877 18.8073 9.81651C18.7976 9.84102 18.7815 9.86259 18.7609 9.87906C18.7404 9.89553 18.7158 9.90638 18.6897 9.91063C18.1368 10.0048 17.6426 10.6107 17.2425 10.9872C17.2047 11.0228 17.1765 11.0673 17.1601 11.1167C16.9073 11.8932 16.3954 12.2226 15.6189 12.105C15.562 12.0972 15.5088 12.0726 15.466 12.0343C15.1247 11.7285 14.7835 11.4755 14.4422 11.2696C14.1977 11.1228 13.921 11.0382 13.6363 11.0225L13.2363 10.7049C13.1774 10.646 13.1362 10.5989 13.1362 10.546C13.1362 10.4754 13.1598 10.4107 13.2186 10.3459C13.301 10.3459 13.3774 10.3754 13.4598 10.4225C14.0893 10.7813 14.7129 11.146 15.3424 11.499C15.6719 11.6873 15.9306 11.9579 16.2719 11.6284C16.6837 11.5697 16.8602 11.3226 16.8013 10.8872C16.9837 10.6578 17.2013 10.4931 17.4661 10.3989C17.5036 10.3848 17.5361 10.3603 17.5603 10.3283C17.5788 10.3036 17.5921 10.2754 17.5992 10.2453C17.6064 10.2152 17.6073 10.1841 17.6017 10.1536C17.5962 10.1233 17.5844 10.0943 17.5671 10.0686C17.55 10.0431 17.5274 10.0213 17.5014 10.0048C17.3837 9.92834 17.3366 9.82827 17.3778 9.69885C17.3896 9.64002 17.3778 9.59295 17.3191 9.56355C17.0348 9.40961 16.7032 9.36764 16.3895 9.44588C16.3589 9.45172 16.3273 9.45107 16.297 9.44397C16.2665 9.43689 16.2379 9.42351 16.213 9.4047C16.1103 9.33167 15.991 9.2852 15.866 9.2694C15.6541 9.23998 15.6189 9.13997 15.7659 8.97524C15.8083 8.92588 15.8603 8.88583 15.9189 8.85759C16.2363 8.71664 16.5316 8.53037 16.7954 8.30459C16.9837 8.13987 17.272 8.16928 17.4896 8.24577C17.7662 8.3399 18.0367 8.41048 18.3015 8.45755C18.678 8.52226 19.0544 8.78699 19.4193 8.62227C19.4395 8.6118 19.462 8.60681 19.4848 8.60786C19.5074 8.60889 19.5295 8.61589 19.5486 8.62816C19.5898 8.65169 19.6075 8.68698 19.6075 8.74581C19.6075 8.78699 19.6252 8.81641 19.6664 8.82817C19.7016 8.83406 19.7251 8.8223 19.7369 8.78699C19.7604 8.72816 19.7957 8.69287 19.8664 8.68698C19.9075 8.68698 19.9487 8.69874 19.984 8.72228H19.9899Z" fill="#221A18"/>
<path d="M7.99981 8.48108C8.17042 8.54581 8.33513 8.58699 8.49985 8.59875C8.67635 8.6164 8.83518 8.69876 8.97049 8.8576C9.05285 8.95172 9.03521 8.97525 8.91167 8.9282C8.65281 8.82231 8.35867 8.72817 8.04688 8.63993C8.01285 8.63144 7.98213 8.61301 7.95863 8.58699C7.94457 8.57439 7.93439 8.55806 7.92921 8.53992C7.91745 8.48108 7.94097 8.45756 7.99981 8.48108Z" fill="#AA9994"/>
<path d="M10.0591 8.46931L10.771 8.79288C10.7945 8.74581 10.8591 8.7517 10.971 8.81052C10.9945 9.01055 10.9592 9.24587 10.865 9.51648C10.8416 9.57531 10.865 9.62826 10.9239 9.66355C10.9474 9.6812 10.9651 9.67531 10.971 9.64002C10.9733 9.62525 10.9802 9.61159 10.9908 9.60102C11.0013 9.59044 11.0151 9.58351 11.0298 9.58119C11.0945 9.57531 11.1357 9.59295 11.1416 9.62826C11.1416 9.72827 11.1298 9.79886 11.0945 9.83416C10.9357 9.97529 10.9651 10.046 11.1769 10.0401C11.1945 10.0401 11.2534 10.0165 11.3357 9.98119C11.4886 10.0695 11.5239 10.1754 11.4416 10.2931C11.4122 10.3342 11.3239 10.3518 11.1945 10.3342L10.5945 10.1224L10.4298 10.0519C10.3961 10.0372 10.3661 10.0154 10.3416 9.98792C10.3173 9.96046 10.2992 9.92807 10.2885 9.89293C10.2179 9.66944 10.2944 9.49295 10.5297 9.36352C10.5886 9.33411 10.6004 9.29292 10.5533 9.24587L10.3062 8.95172C10.2238 8.85759 10.1533 8.86348 10.0944 8.97525C10.012 9.1282 9.91197 9.25174 9.78843 9.33999C9.72968 9.01643 9.75906 8.76347 9.8826 8.59286C9.92694 8.53526 9.98898 8.49389 10.0591 8.4752V8.46931Z" fill="#443633"/>
<path d="M11.2186 8.66345L11.4009 9.33999C11.4009 9.42822 11.3126 9.51647 11.1421 9.63413C11.1362 9.59295 11.095 9.57531 11.0303 9.58707C11.0156 9.58938 11.0018 9.59632 10.9913 9.60689C10.9807 9.61746 10.9738 9.63112 10.9715 9.64589C10.9656 9.67531 10.9479 9.6812 10.9185 9.66354C10.8596 9.62825 10.8421 9.57531 10.8655 9.51648C10.9597 9.24586 10.995 9.01055 10.9715 8.81052C10.9715 8.69286 11.048 8.64579 11.2186 8.66345Z" fill="#85706B"/>
<path d="M12.0482 8.71641L12.4423 9.28706C12.4775 9.32824 12.5187 9.36353 12.5717 9.38706C12.7187 9.44589 12.7599 9.52825 12.6893 9.64003L12.7011 9.68121L12.2304 9.42824C11.8363 9.04585 11.5069 9.23411 11.2539 9.9871L11.3363 9.9812C11.2539 10.0165 11.195 10.0401 11.1775 10.0401C10.9657 10.046 10.9363 9.9812 11.0951 9.83417C11.1304 9.79887 11.1479 9.72828 11.1422 9.62827C11.3127 9.52237 11.395 9.42824 11.4009 9.34C11.4892 9.21057 11.5422 9.05762 11.554 8.89289C11.5598 8.83407 11.5893 8.79289 11.6421 8.77524C11.7775 8.72817 11.9128 8.71641 12.0539 8.71641H12.0482Z" fill="#AA9994"/>
<path d="M10.5882 10.1224C10.6176 10.2283 10.7118 10.3224 10.8706 10.3989C10.6117 10.4283 10.4765 10.4813 10.4706 10.5577C10.1175 10.1754 9.88225 9.76944 9.78809 9.34C9.90586 9.25175 10.0117 9.1282 10.0941 8.97525C10.1529 8.86348 10.2235 8.85759 10.3059 8.95172L10.5529 9.24587C10.6 9.29293 10.5941 9.33411 10.5293 9.36352C10.2941 9.49295 10.2176 9.66944 10.2941 9.89293C10.3118 9.96362 10.3588 10.0165 10.4294 10.0519L10.5941 10.1224H10.5882Z" fill="#85706B"/>
<path d="M9.19434 9.42237C8.95902 9.30471 8.66486 9.12822 8.40014 9.18117C8.37073 9.18117 8.35307 9.1694 8.3472 9.13999L8.34131 9.0988V9.08117L8.3472 9.06351L8.35896 9.05175H8.37073C8.51192 9.02821 8.68841 9.04586 8.79429 9.14587C8.9296 9.27529 9.04727 9.18706 9.18257 9.29294C9.2061 9.3106 9.22963 9.34001 9.24139 9.36943C9.2767 9.44003 9.25904 9.45179 9.19434 9.42237Z" fill="#8E908F"/>
<path d="M12.2354 9.42822C12.1 9.58118 12.0588 9.66943 12.1 9.69885C12.2883 9.82239 12.3354 9.92243 12.2295 9.99299L11.5412 10.0694C11.4882 9.98709 11.394 9.95771 11.2529 9.98708C11.5059 9.2341 11.8354 9.04584 12.2295 9.42822H12.2354Z" fill="#85706B"/>
<path d="M19.3892 9.21057C19.3421 9.34587 19.2716 9.46354 19.1833 9.57532C19.1362 9.63414 19.1069 9.69297 19.0893 9.73415C19.0539 9.84004 19.0539 9.91063 19.0834 9.93411C19.0658 9.9746 19.0397 10.0107 19.0069 10.0401C18.8891 10.0283 18.8245 10.0048 18.7069 10.0576C18.3538 10.2283 18.1185 10.393 18.0009 10.5636C17.5572 11.1981 17.0882 11.8143 16.5948 12.4108C16.3478 12.705 15.8595 12.5933 15.5359 12.5697C15.3712 12.558 15.2006 12.4638 15.0182 12.2932C14.5686 11.8577 14.1075 11.4339 13.6357 11.0225C13.9475 11.046 14.2182 11.1283 14.4416 11.2637C14.7829 11.4755 15.1241 11.7344 15.4654 12.0286C15.5066 12.0697 15.5594 12.0932 15.6183 12.105C16.3889 12.2226 16.9067 11.8932 17.1596 11.1167C17.1759 11.0673 17.2042 11.0228 17.2419 10.9872C17.6421 10.6107 18.1362 10.0048 18.6891 9.91064C18.748 9.89883 18.7833 9.86945 18.8068 9.81651C18.8488 9.73706 18.8672 9.64723 18.8598 9.55766C18.8539 9.49883 18.8598 9.44 18.895 9.39294C18.9951 9.21057 19.1598 9.15175 19.3892 9.21645V9.21057Z" fill="#443633"/>
<path d="M8.57668 9.42237C8.63819 9.40583 8.70375 9.41428 8.75906 9.4459C8.82377 9.48708 8.81788 9.51649 8.74728 9.53415C8.55316 9.5812 8.40607 9.53415 8.31784 9.38119C8.27666 9.31059 8.28842 9.29883 8.34725 9.34588L8.40607 9.38706C8.46491 9.42824 8.52374 9.44002 8.58256 9.42237H8.57668Z" fill="#AA9994"/>
<path d="M8.02906 9.42236C8.44086 10.2519 8.8056 11.0696 9.13504 11.8755C9.1527 11.9226 9.17622 11.952 9.21153 11.9756C9.24682 11.9931 9.28211 12.0108 9.32918 12.0167L9.24682 12.1226C9.21153 12.1697 9.17035 12.1756 9.12917 12.1344C9.04206 12.056 8.94 11.9959 8.82913 11.9579C8.2526 11.352 7.98788 10.5106 8.02906 9.42236Z" fill="#B7B8B8"/>
<path d="M12.2352 9.42823L12.7 9.6812C12.6588 9.97529 12.5057 10.0813 12.2293 9.99299C12.3352 9.92244 12.2882 9.8224 12.0998 9.69885C12.0586 9.66944 12.0998 9.58119 12.2293 9.42823H12.2352Z" fill="#D2D2D2"/>
<path d="M16.7303 10.4342C16.7005 10.339 16.6866 10.2397 16.6891 10.14C16.6891 9.80474 16.5596 9.56355 16.1713 9.65767C16.1456 9.66444 16.1187 9.66585 16.0924 9.6618C16.0662 9.65776 16.0409 9.64834 16.0184 9.63413L15.936 9.57531L16.5949 9.49295C16.6597 9.48117 16.7126 9.50471 16.7478 9.56355L17.0597 10.0224C17.1009 10.0813 17.095 10.14 17.0479 10.1989C16.9596 10.2931 16.8538 10.3754 16.7303 10.4342Z" fill="#85706B"/>
<path d="M14.1645 9.54L14.8352 9.62236C14.894 9.62236 14.9411 9.65767 14.9706 9.71061C15.301 10.2576 15.7369 10.7336 16.2529 11.1108C16.0824 11.3697 16.0882 11.5401 16.2706 11.6284C15.9353 11.9578 15.6706 11.6873 15.3412 11.499C14.7117 11.146 14.0881 10.7813 13.4586 10.4225C13.3855 10.378 13.3028 10.3518 13.2174 10.3459C13.0879 10.393 12.9939 10.4048 12.9409 10.3754C13.0838 10.1577 13.2021 9.9249 13.2938 9.6812C13.3527 9.53413 13.4586 9.50471 13.6292 9.59883C13.6778 9.62505 13.7339 9.63339 13.788 9.62236L14.1645 9.54Z" fill="#8E908F"/>
<path d="M15.8367 9.54001L15.9367 9.58119L16.019 9.63414C16.0415 9.64835 16.0668 9.65776 16.093 9.66181C16.1194 9.66586 16.1463 9.66445 16.1719 9.65768C16.5603 9.56356 16.6897 9.80475 16.6897 10.14C16.6897 10.2401 16.7015 10.3402 16.7309 10.4342C16.6956 10.4813 16.6249 10.5106 16.5191 10.5283C16.327 10.4076 16.1818 10.225 16.1073 10.0107C16.0997 9.98559 16.086 9.96294 16.0676 9.94441C16.0491 9.92601 16.0264 9.91229 16.0014 9.90474C15.8341 9.85738 15.6859 9.75857 15.5778 9.62238C15.5367 9.55767 15.619 9.52825 15.8367 9.54001ZM8.87716 9.72828C8.87212 9.72951 8.86688 9.72962 8.8618 9.72861C8.85671 9.72759 8.85192 9.72546 8.84774 9.72239C8.84409 9.71964 8.84113 9.7161 8.83908 9.71201C8.83704 9.70792 8.83598 9.70342 8.83598 9.69886V9.65179C8.83322 9.63971 8.83533 9.62703 8.84187 9.6165C8.84612 9.61117 8.85148 9.60684 8.85757 9.60379C8.86367 9.60074 8.87035 9.59905 8.87716 9.59885C9.17131 9.59296 9.38898 9.71062 9.52428 9.95182C9.58895 10.0695 9.57728 10.0813 9.4831 9.993C9.33015 9.85765 9.08895 9.65768 8.87716 9.72828ZM8.75362 9.74004C8.76538 9.74004 8.77715 9.74004 8.78303 9.75181C8.78891 9.75181 8.80069 9.76357 8.80069 9.77533C8.80527 9.78563 8.80601 9.79723 8.80277 9.80803C8.79953 9.81882 8.79253 9.8281 8.78303 9.83417C8.71187 9.87591 8.63017 9.89636 8.54772 9.89293C8.53093 9.89375 8.51426 9.88977 8.49967 9.88154C8.48508 9.87316 8.47318 9.86081 8.46535 9.84599C8.45618 9.82773 8.45408 9.80677 8.45947 9.7871C8.46535 9.75768 8.48888 9.74004 8.5183 9.74004H8.75362Z" fill="#AA9994"/>
<path d="M9.10015 10.1047C9.0845 10.0926 9.06606 10.0847 9.04652 10.0817C9.02699 10.0785 9.00699 10.0804 8.98838 10.0872C8.92575 10.1087 8.86924 10.1449 8.82365 10.193C8.79916 10.2165 8.77142 10.2362 8.74129 10.2519C8.6707 10.2931 8.62363 10.2695 8.6001 10.193V10.1342C8.60304 10.1261 8.60772 10.1187 8.61382 10.1126C8.61992 10.1065 8.62729 10.1018 8.6354 10.0988C8.72364 10.0813 8.806 10.0401 8.88249 9.98709C8.98249 9.91653 9.07074 9.92834 9.14721 10.0283C9.19428 10.0872 9.26488 10.1224 9.34135 10.1342C9.41783 10.1459 9.42371 10.1754 9.36488 10.2166L8.8766 10.593C8.85307 10.6166 8.82953 10.6107 8.81189 10.5813L8.77071 10.5224C8.75895 10.5106 8.76482 10.4931 8.77071 10.4754C8.85895 10.3695 8.96485 10.2931 9.08839 10.2401C9.17663 10.2048 9.17663 10.1577 9.10015 10.1047Z" fill="#B7B8B8"/>
<path d="M11.2536 9.98708C11.3947 9.95771 11.4889 9.98708 11.5419 10.0694C11.5419 10.1459 11.5537 10.2048 11.5772 10.246C11.5949 10.2872 11.6418 10.3047 11.7125 10.3165L12.942 10.3754C12.995 10.4048 13.089 10.393 13.2185 10.3459C13.1597 10.4048 13.1361 10.4753 13.1361 10.546C13.1361 10.5989 13.1714 10.6519 13.2362 10.7049L13.6362 11.0225C14.1126 11.4343 14.5774 11.8579 15.0186 12.2932C15.2011 12.4697 15.3717 12.558 15.5364 12.5697C15.8599 12.5933 16.3482 12.705 16.5953 12.4108C17.066 11.8402 17.5365 11.2225 18.0013 10.5636C18.119 10.393 18.3542 10.2283 18.7073 10.0576C18.8249 10.0048 18.8838 10.0283 19.0074 10.0401C19.0249 10.0988 19.0074 10.1577 18.9603 10.2166C18.7661 10.4812 18.5897 10.746 18.4308 11.0402C18.4182 11.0629 18.412 11.0885 18.413 11.1145C18.4141 11.1404 18.4222 11.1657 18.4366 11.1872C18.4955 11.2578 18.572 11.3049 18.6661 11.3285C18.1367 11.5285 17.6837 11.799 17.3247 12.1521C17.2307 12.2402 17.2012 12.358 17.2366 12.505C17.2483 12.5639 17.2366 12.6226 17.213 12.6697L17.0071 13.0403C16.9997 13.0531 16.995 13.0671 16.9931 13.0818C16.9912 13.0964 16.9921 13.1112 16.996 13.1253C16.9998 13.1396 17.0064 13.1529 17.0153 13.1646C17.0244 13.1762 17.0355 13.186 17.0483 13.1933C17.1013 13.2169 17.1659 13.2228 17.2601 13.2051L17.2424 13.4403C17.2307 13.5345 17.266 13.558 17.3365 13.4992C17.5718 13.3051 17.8484 13.1462 18.1483 13.0285C18.2131 13.0051 18.2661 12.958 18.2896 12.8991C18.3661 12.7344 18.3601 12.5462 18.2719 12.3521H18.319L18.572 12.558C18.7073 13.0697 18.5544 13.264 18.0896 13.4169C17.8248 13.5051 17.5718 13.6051 17.3247 13.7227C17.16 13.8051 17.0071 13.7934 16.8306 13.8581C16.8306 13.7698 16.8012 13.7286 16.7365 13.7286C16.7287 13.6732 16.7349 13.6166 16.7541 13.5639C16.7777 13.4992 16.7541 13.4756 16.6895 13.4933L16.56 13.5227C16.6365 13.1404 16.9129 12.905 16.9718 12.5403C16.9836 12.4226 16.9541 12.4108 16.8836 12.4991L16.0836 13.4403C15.9305 13.5404 15.8129 13.5404 15.7305 13.4403C15.7146 13.4206 15.6948 13.4042 15.6724 13.3923C15.6501 13.3804 15.6255 13.3731 15.6002 13.3709C15.575 13.3687 15.5494 13.3717 15.5254 13.3795C15.5013 13.3875 15.479 13.4001 15.4599 13.4169C15.1951 13.6522 14.9246 13.8287 14.6363 13.9581C14.3833 14.0758 14.2068 14.2346 14.0127 14.4346C13.8715 14.5758 13.7304 14.5817 13.5832 14.4523C13.5559 14.4265 13.5356 14.3941 13.5245 14.3581C13.4538 14.1522 13.5067 13.9816 13.6774 13.8462C13.8915 13.6958 14.0634 13.4931 14.1766 13.2571C14.29 13.0213 14.3409 12.7603 14.3245 12.4991C14.3245 12.4403 14.2951 12.4049 14.248 12.3815C13.8345 12.1643 13.4916 11.8338 13.2597 11.4284C13.0362 11.0343 12.542 10.8401 12.1243 10.8401C12.0536 10.8343 12.0067 10.8696 11.9713 10.9342C11.8889 11.146 11.8595 11.346 11.8948 11.5401C11.9419 11.8343 11.9537 12.0991 11.936 12.3462C11.9187 12.5867 11.8376 12.8182 11.7007 13.0169C11.6006 12.5462 11.4654 12.3285 11.2712 12.3697C11.3831 12.3756 11.5183 12.3462 11.6713 12.2756C11.7949 12.2167 11.842 12.1403 11.8065 12.0343C11.7995 12.0077 11.7844 11.9838 11.7634 11.9659C11.7424 11.9481 11.7164 11.937 11.6889 11.9344C11.5964 11.9233 11.5067 11.8954 11.4242 11.852C11.3654 11.8167 11.3654 11.7637 11.4006 11.6814C11.6183 11.546 11.7242 11.3754 11.7125 11.1754C11.7125 11.1167 11.683 11.0696 11.6301 11.046C11.5875 11.0239 11.5393 11.0143 11.4914 11.0184C11.4435 11.0225 11.3978 11.0403 11.3595 11.0696C11.3371 11.0872 11.3096 11.0972 11.2811 11.0983C11.2525 11.0994 11.2244 11.0914 11.2006 11.0755C11.161 11.0528 11.1299 11.0177 11.1124 10.9754C11.0712 10.8755 11.1065 10.8225 11.2065 10.8107C11.3419 10.8048 11.4242 10.746 11.4654 10.6342C11.4948 10.546 11.4654 10.5165 11.3772 10.5342L10.7301 10.6931C10.6477 10.7754 10.5595 10.7283 10.4712 10.5577C10.4771 10.4813 10.6123 10.4283 10.8712 10.3989C11.1007 10.4578 11.2065 10.4401 11.1947 10.3401C11.3301 10.3459 11.4124 10.3342 11.4418 10.2931C11.5242 10.1754 11.4889 10.0694 11.336 9.98118H11.2536V9.98708Z" fill="#635450"/>
<path d="M20.4898 11.9756C20.1074 12.2108 19.7015 12.2461 19.2661 12.0814L19.7367 12.0991C19.7889 12.1021 19.8407 12.0876 19.8838 12.0579C20.225 11.8227 20.2544 11.5108 19.9545 11.1167C19.7661 10.8578 19.1896 10.752 19.0131 11.0696C18.9778 11.1283 18.9837 11.1872 19.019 11.2402L19.1366 11.4166C19.1418 11.4255 19.1453 11.4353 19.1465 11.4454C19.1479 11.4556 19.1472 11.466 19.1444 11.4759C19.1417 11.4858 19.137 11.495 19.1306 11.503C19.1243 11.5111 19.1163 11.5176 19.1072 11.5226C19.0661 11.5402 19.0073 11.5344 18.9307 11.499C18.9955 11.3813 18.9072 11.3226 18.6661 11.3285C18.5757 11.3089 18.4947 11.259 18.4365 11.1872C18.4201 11.1655 18.4102 11.1396 18.4081 11.1126C18.4061 11.0854 18.4118 11.0582 18.4249 11.0343C18.5896 10.752 18.766 10.4813 18.9602 10.2224C19.0073 10.1636 19.019 10.1047 19.0073 10.046C19.0367 10.0165 19.0661 9.9871 19.0838 9.93411C19.2132 10.0872 19.3367 10.1871 19.4426 10.246C19.5015 10.2813 19.5602 10.2754 19.6132 10.2342L19.7015 10.1754C19.7661 10.1224 19.8191 10.1343 19.8485 10.2166L20.3192 11.2873C20.425 11.5108 20.4839 11.7403 20.4956 11.9756H20.4898Z" fill="#85706B"/>
<path d="M10.5889 10.1224L11.1948 10.3342C11.2066 10.4401 11.1007 10.4637 10.8712 10.3989C10.7124 10.3224 10.6182 10.2283 10.5948 10.1224H10.5889Z" fill="#F6F6F6"/>
<path d="M9.44719 10.3695C9.45732 10.3444 9.47349 10.3222 9.49426 10.3047C9.51779 10.2872 9.54133 10.2872 9.56487 10.3047L9.59425 10.3402C9.60605 10.3518 9.60605 10.3636 9.59425 10.3754L9.02951 10.9636C9.00598 10.9931 8.98244 10.9931 8.95302 10.9754C8.94067 10.9649 8.93237 10.9503 8.9295 10.9343C8.92454 10.9209 8.92454 10.9064 8.9295 10.8931C9.0354 10.7165 9.18834 10.5636 9.37661 10.446C9.40729 10.4281 9.43189 10.4015 9.44719 10.3695Z" fill="#B7B8B8"/>
<path d="M9.8177 10.4342H9.8059C9.79986 10.4279 9.79258 10.4226 9.78448 10.4192C9.77639 10.4158 9.7676 10.4139 9.75882 10.4139C9.75003 10.4139 9.74124 10.4158 9.73315 10.4192C9.72518 10.4226 9.71777 10.4279 9.71173 10.4342L9.12348 11.1695C9.11761 11.1769 9.11325 11.1853 9.11066 11.1944C9.10807 11.2033 9.1073 11.2128 9.1084 11.2221C9.10949 11.2314 9.11243 11.2404 9.11704 11.2486C9.12166 11.2567 9.12785 11.2638 9.13525 11.2696L9.14113 11.2755C9.17055 11.3049 9.21173 11.299 9.24113 11.2696L9.82937 10.5342C9.83527 10.527 9.83967 10.5185 9.84227 10.5095C9.84488 10.5005 9.84557 10.491 9.84447 10.4818C9.84337 10.4725 9.84049 10.4634 9.83582 10.4553C9.83129 10.4471 9.82511 10.4399 9.8177 10.4342ZM11.4001 11.6814L10.9883 11.4049C10.9676 11.3892 10.943 11.3793 10.9172 11.3763C10.8914 11.3731 10.8652 11.3769 10.8413 11.3872C10.5942 11.4932 10.4059 11.6637 10.2824 11.8991C10.2708 11.923 10.2534 11.9434 10.2318 11.959C10.2103 11.9743 10.1852 11.9841 10.1588 11.9874C9.84708 12.0226 9.64708 11.9462 9.55291 11.752L9.8236 11.1638C9.86479 11.0637 9.90597 11.0696 9.93534 11.1638C9.94824 11.2148 9.9746 11.2616 10.0118 11.299C10.0589 11.3402 10.106 11.3579 10.1647 11.3402C10.5765 11.2402 10.7708 11.0225 10.7237 10.6931L11.3767 10.5342C11.4649 10.5165 11.4943 10.5461 11.4649 10.6342C11.4237 10.7461 11.3414 10.8048 11.206 10.8107C11.106 10.8225 11.0707 10.8696 11.1119 10.9754C11.1296 11.0166 11.159 11.0519 11.2001 11.0755C11.259 11.1108 11.3061 11.1108 11.359 11.0755C11.4472 11.0107 11.5355 11.0048 11.6296 11.046C11.6884 11.0696 11.712 11.1167 11.712 11.1754C11.7237 11.3754 11.6178 11.5461 11.4001 11.6814Z" fill="#D2D2D2"/>
<path d="M16.0835 13.4463C16.0599 13.6228 15.9776 13.7463 15.8305 13.8228C15.805 13.8364 15.7758 13.8413 15.7472 13.8372C15.7187 13.8329 15.6922 13.8196 15.6717 13.7993C15.5717 13.717 15.4658 13.7052 15.3598 13.7757C14.9951 14.011 14.5362 14.2992 14.4068 14.7406C14.3936 14.7794 14.3894 14.8209 14.3944 14.8616C14.3995 14.9024 14.4138 14.9414 14.4363 14.9758C14.4579 15.0081 14.4865 15.035 14.5203 15.0544C14.5539 15.0737 14.5916 15.0851 14.6304 15.0876C14.748 15.0935 14.8539 15.0523 14.9421 14.9699C15.1187 14.7934 15.2834 14.617 15.4246 14.4346C15.4658 14.3758 15.507 14.3758 15.5539 14.4228C15.7187 14.5817 15.8952 14.5406 16.1011 14.2935C16.0776 14.6405 15.9246 14.9288 15.6422 15.1583C15.6202 15.1758 15.6024 15.1982 15.5902 15.2238C15.578 15.2491 15.5717 15.277 15.5717 15.3053C15.5717 15.3642 15.5951 15.4347 15.6481 15.4935L17.2189 16.5878L17.2542 16.6583C17.2894 16.7231 17.2719 16.7525 17.2012 16.7466C16.8649 16.706 16.5383 16.6065 16.2364 16.4524C15.5885 16.2614 14.9765 15.9651 14.4245 15.5758C14.2127 15.3642 13.9538 15.2111 13.6539 15.1288L12.8126 14.5347C12.6185 14.3934 12.3419 14.2993 12.1596 14.0287C11.9424 13.7244 11.7866 13.3806 11.7007 13.0169C11.836 12.8227 11.9125 12.5992 11.936 12.3462C11.9553 12.0769 11.9416 11.8062 11.8948 11.5402C11.8595 11.3461 11.8889 11.1461 11.9712 10.9343C12.0008 10.8696 12.0536 10.8343 12.1243 10.8343C12.542 10.846 13.0362 11.0343 13.2596 11.4225C13.4892 11.8284 13.8186 12.1462 14.248 12.3756C14.2951 12.4049 14.3185 12.4461 14.3244 12.505C14.3398 12.7651 14.2885 13.025 14.1752 13.2597C14.062 13.4944 13.8905 13.6964 13.6773 13.8463C13.5008 13.9816 13.4537 14.1522 13.5244 14.364C13.5361 14.3993 13.5538 14.4228 13.5832 14.4523C13.7303 14.5817 13.8773 14.5699 14.0127 14.4346C14.2068 14.2346 14.3833 14.0699 14.6422 13.9581C14.9246 13.8228 15.1951 13.6463 15.454 13.4228C15.4732 13.4051 15.4959 13.3916 15.5206 13.3831C15.5453 13.3747 15.5714 13.3715 15.5975 13.3738C15.6234 13.376 15.6487 13.3835 15.6716 13.396C15.6945 13.4085 15.7145 13.4257 15.7305 13.4463C15.8128 13.5404 15.9305 13.5404 16.0835 13.4463Z" fill="#85706B"/>
<path d="M16.6599 10.8401C16.7011 10.8225 16.748 10.8401 16.8069 10.8872C16.854 11.3226 16.6774 11.5697 16.2715 11.6284C16.095 11.5402 16.0833 11.3697 16.2538 11.1108C16.3716 10.9931 16.5127 10.899 16.6656 10.8401H16.6599Z" fill="#696868"/>
<path d="M19.2659 12.0814L18.5718 12.0991C18.8425 11.9403 19.1307 11.8755 19.4248 11.8991C19.6484 11.9167 19.6718 11.852 19.5014 11.7049C19.3248 11.552 19.0896 11.499 18.8071 11.5579C18.8071 11.5402 18.8482 11.5226 18.9306 11.499C19.0072 11.5344 19.0659 11.5402 19.1071 11.5226C19.1162 11.5176 19.1241 11.5111 19.1305 11.503C19.1365 11.4949 19.1403 11.4854 19.1424 11.4755C19.1454 11.4658 19.1475 11.4556 19.1464 11.4454C19.1451 11.4353 19.1417 11.4255 19.1365 11.4166L19.0189 11.2402C18.9998 11.215 18.9889 11.1845 18.988 11.1529C18.9869 11.1212 18.9957 11.0901 19.013 11.0637C19.1895 10.752 19.766 10.8578 19.9543 11.1108C20.2484 11.5108 20.2249 11.8284 19.8837 12.0579C19.8422 12.0863 19.7928 12.1008 19.7425 12.0991L19.2718 12.0814H19.2659Z" fill="#AA9994"/>
<path d="M11.3997 11.6814C11.3585 11.7638 11.3644 11.8167 11.4233 11.852C11.488 11.8873 11.5762 11.9108 11.6939 11.9344C11.7528 11.9462 11.788 11.9756 11.8115 12.0343C11.841 12.1403 11.7939 12.2226 11.6704 12.2756C11.5173 12.3462 11.3762 12.3756 11.2703 12.3697L10.1055 12.3933H9.64664C9.55248 12.3344 9.41131 12.3168 9.23482 12.3462C9.16423 12.358 9.14657 12.4049 9.17599 12.4638C9.30542 12.7344 9.38778 13.0051 9.42896 13.2874C9.42896 13.358 9.45838 13.411 9.50544 13.464C9.73491 13.717 9.84074 14.0228 9.82317 14.3758L8.27002 13.1521C8.3818 12.9933 8.57594 12.8345 8.85831 12.6579C8.88089 12.6457 8.89886 12.6265 8.90948 12.6032C8.92011 12.5798 8.9228 12.5536 8.91714 12.5285L8.82889 11.952C8.92891 11.9874 9.02892 12.0461 9.12305 12.1285C9.17012 12.1756 9.2113 12.1697 9.24659 12.1285L9.32895 12.0167L9.55248 11.7579C9.64664 11.9462 9.84664 12.0226 10.1584 11.9931C10.2173 11.9815 10.2525 11.952 10.2819 11.8991C10.4055 11.6637 10.5938 11.4932 10.8409 11.3872C10.8648 11.3769 10.891 11.3731 10.9168 11.3762C10.9426 11.3793 10.9672 11.3892 10.9879 11.4049L11.3997 11.6814Z" fill="#8E908F"/>
<path d="M18.6653 11.3285C18.9065 11.3285 18.9948 11.3872 18.93 11.5049C18.8476 11.5226 18.8064 11.5402 18.8123 11.5579C18.4005 11.7461 18.3006 11.9462 18.5182 12.1579C18.3418 12.1579 18.2711 12.2168 18.3182 12.3462H18.2711L18.2299 12.2638C18.2005 12.205 18.1653 12.1933 18.1123 12.2461L17.2593 13.2051C17.171 13.2228 17.1005 13.2169 17.0475 13.1933C17.0347 13.1867 17.0235 13.1775 17.0144 13.1664C17.0053 13.1553 16.9985 13.1425 16.9945 13.1286C16.9868 13.0988 16.9909 13.0671 17.0063 13.0404L17.2122 12.6697C17.2413 12.6179 17.2498 12.5569 17.2358 12.4991C17.2004 12.358 17.2358 12.2402 17.3239 12.1521C17.7088 11.7871 18.1657 11.5065 18.6653 11.3285Z" fill="#443633"/>
<path d="M18.8071 11.5579C19.0896 11.499 19.319 11.552 19.5014 11.7049C19.6719 11.852 19.6484 11.9167 19.4248 11.8991C19.1308 11.8755 18.8425 11.9462 18.5718 12.0991L18.5247 12.1579C18.3013 11.9462 18.4012 11.7461 18.8071 11.5579Z" fill="#D2D2D2"/>
<path d="M20.4903 11.9756C20.5668 12.1403 20.5315 12.2932 20.3902 12.4285C20.149 12.652 19.7725 12.5697 19.4784 12.558C19.3842 12.5521 19.3195 12.5992 19.3018 12.6932C19.1489 13.2992 19.2784 13.7522 18.8313 14.2405C18.7724 14.2935 18.7724 14.3522 18.796 14.417L18.8372 14.517C18.8665 14.5817 18.8665 14.6464 18.8254 14.711L18.49 15.2994C18.4282 15.404 18.4093 15.5283 18.437 15.6465C18.4959 15.9112 18.49 16.176 18.4077 16.4231C18.3842 16.5054 18.3253 16.5407 18.2429 16.5466L17.4782 16.576C17.3194 16.5172 17.2546 16.3995 17.2723 16.2231C17.2782 16.1583 17.3194 16.1171 17.384 16.1054C17.5781 16.0818 17.7665 16.0172 17.9429 15.9171C18.0229 15.8726 18.0852 15.8021 18.1194 15.7171C18.1345 15.6758 18.1405 15.6316 18.1371 15.5876C18.1339 15.5482 18.1219 15.51 18.1018 15.4759C18.081 15.4515 18.0574 15.4298 18.0311 15.4111C17.9724 15.2935 17.9076 15.1994 17.8136 15.1406C17.7985 15.1318 17.7854 15.1198 17.7753 15.1057C17.7651 15.0916 17.7581 15.0754 17.7547 15.0582C17.7523 15.0404 17.7539 15.0224 17.7589 15.0051C17.7639 14.9879 17.7725 14.9719 17.784 14.9581C17.9783 14.6935 18.1959 14.5229 18.4488 14.4287C18.5077 14.417 18.5194 14.3816 18.49 14.3288C18.4488 14.2581 18.3959 14.2287 18.3253 14.2405C17.7253 14.0581 17.2487 14.164 16.9017 14.564C16.8428 14.564 16.8252 14.5051 16.8369 14.3993C16.8369 14.3404 16.8664 14.2876 16.9017 14.2464C17.0546 14.0817 17.2252 13.9875 17.4193 13.964C17.8193 13.917 18.2429 13.8522 18.7136 13.7757C18.89 13.7404 18.9548 13.6346 18.9136 13.4522C18.8843 13.3286 18.8843 13.1992 18.9195 13.0697C18.9364 13.007 18.9302 12.9401 18.9018 12.8815C18.8431 12.7462 18.7253 12.6345 18.5724 12.558L18.3194 12.3462C18.2723 12.2167 18.343 12.1521 18.5253 12.1579L18.5724 12.0991L19.2665 12.0814C19.702 12.2461 20.1079 12.2108 20.4903 11.9756Z" fill="#221A18"/>
<path d="M9.64724 12.3933C10.0297 13.011 10.4179 13.6051 10.8121 14.1757L11.3238 14.7877C11.5122 15.0111 11.6474 15.2464 11.7238 15.4994L9.82377 14.3758C9.84134 14.0228 9.73551 13.717 9.50604 13.4581C9.46381 13.4126 9.43704 13.355 9.42956 13.2934C9.39065 13.0076 9.30729 12.7297 9.18248 12.4697C9.14718 12.3992 9.16483 12.358 9.2413 12.3521C9.4178 12.3168 9.55308 12.3344 9.65315 12.3933H9.64724Z" fill="#85706B"/>
<path d="M11.2707 12.3697C11.459 12.3285 11.6001 12.5462 11.7002 13.0169C11.7885 13.3816 11.9355 13.7227 12.1591 14.0287C12.165 14.0876 12.1591 14.1169 12.1414 14.1345C12.1209 14.1507 12.097 14.1618 12.0714 14.167C12.0458 14.1721 12.0195 14.171 11.9944 14.164C11.9666 14.158 11.9404 14.1459 11.9179 14.1287C11.8933 14.1098 11.8733 14.0856 11.859 14.0581C11.7882 13.9128 11.7097 13.7714 11.6237 13.6346C11.5885 13.5757 11.5414 13.558 11.4766 13.5639C11.0531 13.6346 10.8001 13.4463 10.5589 13.0697C10.4236 12.8403 10.2707 12.6167 10.106 12.3933L11.2707 12.3697Z" fill="#443633"/>
<path d="M9.64795 12.3933H10.1068C10.2716 12.6167 10.4245 12.8404 10.5598 13.0697C10.801 13.4463 11.054 13.6287 11.4775 13.5639C11.5364 13.558 11.5893 13.5757 11.6187 13.6287C11.7129 13.7757 11.7952 13.9229 11.8658 14.0581C11.8776 14.0876 11.8952 14.1111 11.9188 14.1288C11.9423 14.1463 11.9659 14.1581 11.9952 14.164C12.0204 14.171 12.0467 14.1721 12.0722 14.1671C12.0979 14.1618 12.1218 14.1507 12.1423 14.1345C12.1659 14.117 12.1659 14.0817 12.16 14.0287C12.3365 14.2935 12.6189 14.3934 12.807 14.5347L13.6543 15.1229C13.1542 15.3171 13.1365 14.8817 12.7718 14.8288C12.724 14.8199 12.6747 14.8261 12.6305 14.8464C12.5858 14.8681 12.5488 14.903 12.5247 14.9465C12.5012 14.9898 12.4909 15.0391 12.4952 15.0881C12.4993 15.1373 12.5178 15.1841 12.5482 15.2229C12.6953 15.3995 12.86 15.5817 13.0423 15.7642C13.1954 15.9112 13.207 16.0642 13.0894 16.229L11.7245 15.4994C11.6403 15.2395 11.5042 14.9993 11.3245 14.7934C11.1498 14.5911 10.9792 14.385 10.8128 14.1757C10.4124 13.5909 10.0258 12.9966 9.65385 12.3933H9.64795Z" fill="#635450"/>
<path d="M16.5598 13.5286L16.1009 14.2935C15.895 14.5406 15.7185 14.5817 15.5537 14.4228C15.5068 14.3758 15.4656 14.3816 15.4244 14.4346C15.2832 14.617 15.1244 14.7934 14.9419 14.964C14.9016 15.0049 14.8527 15.0366 14.7989 15.057C14.7451 15.0773 14.6876 15.0857 14.6302 15.0817C14.5913 15.0797 14.5535 15.0685 14.5197 15.0491C14.4859 15.0296 14.4574 15.0026 14.4361 14.9699C14.415 14.9371 14.4014 14.9001 14.3963 14.8615C14.3912 14.8228 14.3948 14.7835 14.4066 14.7465C14.5419 14.2992 14.9949 14.0169 15.3596 13.7757C15.4656 13.7051 15.5714 13.7169 15.6715 13.7993C15.7244 13.8405 15.7714 13.8463 15.8303 13.8228C15.9773 13.7463 16.0597 13.6228 16.0833 13.4463L16.8833 12.4991C16.9539 12.4108 16.9834 12.4226 16.9657 12.5403C16.9069 12.905 16.6362 13.1404 16.5598 13.5227V13.5286Z" fill="#AA9994"/>
<path d="M18.5716 12.558C18.7245 12.6344 18.8364 12.7462 18.901 12.8815C18.9304 12.9403 18.9363 12.9992 18.9187 13.0638C18.8834 13.1992 18.8834 13.3286 18.9128 13.4522C18.954 13.6287 18.8892 13.7463 18.7069 13.7757C18.248 13.8522 17.8185 13.9169 17.4185 13.964C17.2244 13.9875 17.0538 14.0817 16.9009 14.2464C16.863 14.2888 16.8403 14.3426 16.8361 14.3993C16.8244 14.5051 16.842 14.564 16.9009 14.564C16.8814 14.5963 16.8693 14.6324 16.8656 14.6699C16.8656 14.7406 16.9009 14.7699 16.9655 14.764C17.4593 14.7231 17.9309 14.5415 18.3245 14.2405C18.395 14.2287 18.448 14.2581 18.4892 14.3288C18.5186 14.3816 18.5069 14.417 18.448 14.4346C18.195 14.5229 17.9775 14.6935 17.7832 14.964C17.7687 14.9845 17.7604 15.0088 17.7593 15.0338C17.7584 15.0589 17.7646 15.0837 17.7773 15.1053C17.7832 15.1229 17.8009 15.1347 17.8127 15.1406C17.9068 15.1994 17.9775 15.2935 18.0303 15.4111C17.9009 15.3758 17.8421 15.3935 17.8539 15.4465C17.3186 15.2876 16.8773 15.0582 16.3125 15.3994C16.1243 15.4994 15.9007 15.5347 15.6477 15.4935C15.6015 15.439 15.5746 15.3708 15.5713 15.2994C15.5721 15.2722 15.5788 15.2454 15.5911 15.221C15.6033 15.1967 15.6206 15.1753 15.6418 15.1583C15.9184 14.9229 16.0773 14.6405 16.1007 14.2935L16.5596 13.5286L16.6891 13.4933C16.7537 13.4756 16.7773 13.4933 16.7537 13.5639C16.7361 13.6228 16.7302 13.6815 16.7361 13.7286C16.589 13.9051 16.5066 14.0876 16.5007 14.2817C16.4891 14.3463 16.5125 14.3581 16.5596 14.317C16.6891 14.2169 16.7773 14.064 16.8302 13.8581C17.0067 13.7934 17.1596 13.8051 17.3243 13.7227C17.5714 13.6051 17.8244 13.5051 18.0892 13.4169C18.554 13.264 18.7069 13.0638 18.5716 12.558Z" fill="#443633"/>
<path d="M8.27084 13.1521L9.82399 14.3759L11.73 15.4994L13.0889 16.229C13.189 16.2702 13.2595 16.3113 13.2948 16.3642L12.8948 17.9527L11.73 17.3643L8.79442 15.9642C8.72383 15.9289 8.67677 15.9465 8.64735 16.0288C8.47087 16.6761 8.27084 17.3113 8.05317 17.9115C8.01199 18.0173 8.03552 18.0762 8.02965 18.1761C8.02805 18.2067 8.01854 18.2364 8.00204 18.2622C7.98554 18.288 7.96262 18.309 7.93552 18.3233C7.9091 18.3358 7.87973 18.3407 7.85067 18.3376C7.82161 18.3345 7.79397 18.3234 7.7708 18.3056C6.9368 17.6607 6.00808 17.1488 5.01758 16.7878C5.53527 15.8347 6.13534 14.9229 6.82952 14.0405C7.07073 13.7286 7.41781 13.4699 7.7708 13.4287C8.06494 13.3933 8.22966 13.2993 8.27084 13.1521Z" fill="#F6F6F6"/>
<path d="M18.3241 14.2405C17.9123 14.5522 17.4593 14.7228 16.9652 14.7699C16.9005 14.7699 16.8652 14.7406 16.8652 14.6758C16.8652 14.6405 16.8769 14.6052 16.9005 14.5581C17.2534 14.164 17.7241 14.0581 18.3241 14.2405Z" fill="#635450"/>
<path d="M13.6482 15.1229C13.9541 15.2111 14.2129 15.3583 14.4247 15.5758C14.2659 15.67 14.1188 15.6759 13.9893 15.5935C13.9362 15.5599 13.8724 15.5473 13.8103 15.5581C13.7483 15.569 13.6926 15.6026 13.6541 15.6524C13.626 15.6844 13.6058 15.7227 13.5952 15.7642L13.5011 16.1994C13.4972 16.2161 13.4985 16.2334 13.5048 16.2493C13.5111 16.2651 13.5221 16.2785 13.5363 16.2877L13.5718 16.3171C13.4894 16.3113 13.3952 16.323 13.2952 16.3642C13.2392 16.3024 13.1683 16.2559 13.0893 16.229C13.2069 16.0642 13.1952 15.9112 13.0422 15.7583C12.8599 15.5817 12.6893 15.4053 12.548 15.2288C12.5248 15.1996 12.5083 15.1654 12.4998 15.129C12.4913 15.0925 12.4909 15.0548 12.4989 15.0181C12.5067 14.9816 12.5226 14.9471 12.5453 14.9175C12.5681 14.8878 12.5972 14.8636 12.6304 14.8464C12.6722 14.8253 12.7193 14.8172 12.7657 14.8229C13.1363 14.8817 13.1541 15.3171 13.6482 15.1229Z" fill="#443633"/>
<path d="M17.8487 15.4465C17.9663 15.47 18.0193 15.5406 18.0134 15.6465C18.0134 15.7112 17.9839 15.7524 17.9251 15.7701C17.6192 15.8583 17.3133 15.8759 17.0015 15.8229C16.8133 15.7876 16.6308 15.8406 16.4486 15.8641C16.421 15.8681 16.393 15.8647 16.3672 15.8544C16.3413 15.8441 16.3187 15.8272 16.3014 15.8054C16.2249 15.7171 16.2308 15.5817 16.3132 15.3995C16.8779 15.0582 17.3133 15.2876 17.8487 15.4465Z" fill="#85706B"/>
<path d="M10.2941 15.67C10.3941 15.7289 10.5059 15.7112 10.553 15.6347C10.5941 15.5583 10.553 15.4465 10.4529 15.3935C10.3589 15.3347 10.2411 15.3524 10.1999 15.4288C10.1587 15.5053 10.1999 15.617 10.3 15.67H10.2941Z" fill="#696868"/>
<path d="M16.3123 15.3994C16.2299 15.5817 16.224 15.7171 16.3004 15.8113C16.3357 15.8524 16.3887 15.87 16.4476 15.8641C16.6299 15.8406 16.8123 15.7876 17.0005 15.8172C17.3124 15.8759 17.6182 15.8583 17.9242 15.7701C17.9829 15.7524 18.0125 15.7112 18.0125 15.6465C18.0184 15.5406 17.9654 15.47 17.8477 15.4465C17.8418 15.3876 17.9065 15.3758 18.03 15.4111L18.1007 15.4759C18.1183 15.5112 18.1301 15.5465 18.136 15.5935C18.136 15.6288 18.136 15.6759 18.1183 15.7112C18.0852 15.7983 18.0229 15.8711 17.9418 15.9171C17.7654 16.0172 17.577 16.0818 17.3829 16.1112C17.3183 16.1171 17.2771 16.1583 17.2712 16.229C17.2535 16.4053 17.3183 16.523 17.4712 16.5819C17.3878 16.5979 17.3022 16.5999 17.2182 16.5878L15.6475 15.4935C15.9063 15.5347 16.1241 15.4994 16.3123 15.3994Z" fill="#635450"/>
<path d="M14.4244 15.5758C14.9759 15.9673 15.5882 16.2653 16.2363 16.4583C15.9304 16.6053 15.7422 16.8231 15.6774 17.1113C15.648 17.2231 15.6127 17.229 15.5597 17.129C15.4657 16.9407 15.5597 16.776 15.501 16.6112C15.4849 16.5655 15.4557 16.5255 15.417 16.4961C15.3783 16.4668 15.3317 16.4495 15.2833 16.4465C15.2646 16.4432 15.2454 16.4461 15.2284 16.4545C15.2115 16.463 15.1978 16.4767 15.1891 16.4936C15.179 16.5121 15.171 16.5319 15.1656 16.5525C15.1538 16.5819 15.1479 16.6172 15.1479 16.6583C15.142 16.7054 15.1245 16.7348 15.1009 16.7407C15.0715 16.7525 15.0244 16.7525 14.9656 16.7289C14.995 16.5466 14.895 16.4349 14.6715 16.3994C14.4008 16.3583 14.1361 16.3407 13.8713 16.3407L13.5772 16.3171L13.536 16.2877C13.5217 16.2785 13.5107 16.2651 13.5044 16.2493C13.4981 16.2333 13.4969 16.2161 13.5007 16.1994L13.6008 15.7642C13.6098 15.723 13.6271 15.6851 13.6538 15.6524C13.6803 15.6198 13.7154 15.5933 13.7537 15.5758C13.7915 15.5595 13.8326 15.5525 13.8735 15.5557C13.9146 15.5587 13.9543 15.5717 13.989 15.5935C14.1184 15.6759 14.2656 15.67 14.4244 15.5758Z" fill="#221A18"/>
<path d="M11.7301 17.3643C11.6301 17.529 11.4948 17.5643 11.3301 17.4702C11.2771 17.4349 11.23 17.4408 11.183 17.482L11.1242 17.529C11.0712 17.5761 11.0771 17.6173 11.1419 17.6467L11.9184 18.0585C11.9596 18.0762 11.9889 18.1174 12.0008 18.1586C12.0124 18.1879 12.0301 18.2056 12.0654 18.1997C12.1081 18.192 12.152 18.2004 12.1889 18.2232L12.6537 18.488C12.6817 18.5054 12.7048 18.5297 12.7207 18.5586C12.7368 18.5874 12.7452 18.6198 12.7452 18.6527C12.7452 18.6857 12.7368 18.7181 12.7207 18.7469C12.7048 18.7757 12.6817 18.8 12.6537 18.8174C12.5361 18.8939 12.5008 19.0174 12.5655 19.1881C12.6301 19.3645 12.6772 19.3645 12.6949 19.1645C12.6949 19.0762 12.7125 18.9938 12.7361 18.9115C12.7596 18.8056 12.7949 18.8056 12.8185 18.9115C12.9126 19.2939 12.942 19.6939 12.9126 20.1116C11.9655 19.7234 11.03 19.3469 10.1064 18.9822C9.62985 18.7997 9.15338 18.6527 8.68274 18.5526C8.65795 18.5481 8.63526 18.5358 8.61803 18.5174L8.5592 18.4468C8.51802 18.4056 8.48273 18.3997 8.44155 18.4468C8.31801 18.5704 8.1474 18.582 7.94738 18.4821C7.05777 18.0669 6.15945 17.6707 5.25299 17.2938C5.05886 17.2055 4.97649 17.0408 5.01767 16.7878C5.98835 17.1407 6.90022 17.6408 7.7709 18.3056C7.78884 18.3189 7.80932 18.3284 7.83106 18.3336C7.8528 18.3386 7.87538 18.3393 7.89739 18.3355C7.91941 18.3316 7.94041 18.3234 7.9591 18.3112C7.97781 18.299 7.99385 18.2831 8.0062 18.2644C8.02166 18.2376 8.02977 18.2071 8.02974 18.1761C8.03562 18.0762 8.01209 18.0173 8.05327 17.9115C8.27094 17.3113 8.46508 16.6761 8.64745 16.0288C8.67098 15.9465 8.72392 15.9289 8.79452 15.9642L11.736 17.3643H11.7301ZM12.5773 17.082C12.6196 16.887 12.6889 16.6988 12.7832 16.523L12.8303 16.5407C12.8537 16.5407 12.8596 16.5584 12.8478 16.576C12.7302 16.776 12.6713 16.9996 12.6713 17.2526C12.6713 17.329 12.636 17.3584 12.5655 17.3408C12.3478 17.282 12.2008 17.2408 12.136 17.2114C11.3788 16.8334 10.6179 16.4627 9.85346 16.0995C9.82985 16.0877 9.82409 16.07 9.83576 16.0465L9.85346 16.0054L9.85511 16.0012L9.85937 15.9995L9.86348 16.0012L9.86527 16.0054L10.83 16.4406C11.3712 16.682 11.8477 17.0055 12.4185 17.1819C12.5066 17.2055 12.5596 17.1761 12.5773 17.082Z" fill="#D2D2D2"/>
<path d="M11.9062 16.5407L11.765 16.4231C11.6826 16.3583 11.6944 16.3054 11.7945 16.2701C11.8233 16.2581 11.8549 16.2538 11.8859 16.2579C11.9169 16.262 11.9463 16.2744 11.9709 16.2936C12.0004 16.3171 12.018 16.3525 12.018 16.3994C12.018 16.4349 12.018 16.476 12.0004 16.5172L11.9827 16.5407C11.9758 16.5463 11.9679 16.5503 11.9592 16.5525C11.9492 16.5559 11.9385 16.5568 11.9282 16.5547C11.9178 16.5526 11.9082 16.5477 11.9003 16.5407H11.9062Z" fill="#443633"/>
<path d="M13.5716 16.3171L13.8715 16.3466C13.8408 16.4298 13.7855 16.5016 13.7127 16.5525C13.6658 16.586 13.6341 16.6368 13.6245 16.6936C13.5892 16.8702 13.5892 17.0231 13.6186 17.1584L13.3068 18.1586C13.295 18.2114 13.2538 18.2291 13.201 18.2173C13.13 18.2095 13.063 18.1807 13.0085 18.1345C12.954 18.0885 12.9145 18.0272 12.895 17.9586L13.295 16.3642C13.3951 16.323 13.4893 16.3054 13.5716 16.3171Z" fill="#D2D2D2"/>
<path d="M13.8712 16.3466C14.136 16.3407 14.4007 16.3583 14.6654 16.4053C14.8948 16.4349 14.9949 16.5466 14.9655 16.7289C15.0832 17.4701 15.1125 18.2056 15.0595 18.941C15.0595 18.9997 15.0243 19.0468 14.9655 19.0762L14.7772 19.1528C14.7184 19.1763 14.6713 19.2115 14.642 19.2704C14.4477 19.5763 14.1595 19.8351 13.7595 20.0528C13.8031 19.0857 13.7558 18.1167 13.6182 17.1584C13.5888 17.0231 13.5888 16.8642 13.6182 16.6877C13.6359 16.6349 13.6653 16.5878 13.7124 16.5525C13.7947 16.4936 13.8477 16.4231 13.8712 16.3466Z" fill="#696868"/>
<path d="M15.1651 16.5466C15.2238 17.2055 15.2533 17.8644 15.265 18.5292C15.265 18.8115 15.0886 19.0409 15.1944 19.3175C15.2181 19.3645 15.2003 19.3999 15.1474 19.4056C15.0861 19.4146 15.0297 19.4438 14.987 19.4885C14.9445 19.5334 14.918 19.5912 14.9121 19.6527C14.9074 19.6879 14.8934 19.7209 14.8717 19.7488C14.85 19.7768 14.8213 19.7984 14.7885 19.8117L14.4709 19.9469C14.4122 19.9721 14.3612 20.0128 14.3238 20.0645C14.2867 20.1183 14.2645 20.1809 14.2592 20.246C14.2542 20.3111 14.2662 20.3763 14.2944 20.4351C14.3178 20.494 14.359 20.5529 14.412 20.5823C14.665 20.7588 14.9121 20.7882 15.1651 20.6647C15.1907 20.6501 15.2128 20.6299 15.2297 20.6058C15.2485 20.5834 15.2625 20.5573 15.2709 20.5293C15.3651 20.2058 15.3651 19.9057 15.2709 19.647C15.2297 19.5351 15.2592 19.5057 15.3651 19.5528C15.4297 19.5822 15.4533 19.6351 15.4356 19.7057C15.4316 19.717 15.4312 19.7293 15.4344 19.7408C15.4375 19.7524 15.4441 19.7627 15.4533 19.7705C15.4624 19.7776 15.4732 19.782 15.4848 19.7831C15.4963 19.7842 15.5078 19.7818 15.518 19.7763C15.5651 19.7528 15.6003 19.7175 15.6299 19.6645C15.6886 19.5469 15.7416 19.4174 15.7769 19.2939C15.7887 19.2351 15.8181 19.1881 15.8651 19.1528C15.897 19.1268 15.9346 19.1091 15.9748 19.101C16.0152 19.0929 16.0568 19.0947 16.0962 19.1063C16.1354 19.1179 16.1714 19.1389 16.2009 19.1675C16.2304 19.196 16.2524 19.2314 16.2651 19.2704C16.3063 19.3999 16.324 19.5292 16.3181 19.6704C16.3063 19.7646 16.2651 19.7881 16.1946 19.7293L16.0592 19.6351C15.9946 19.594 15.9651 19.6115 15.971 19.6939L16.0122 20.5999C16.0122 20.7117 16.0417 20.7176 16.0886 20.6176C16.0984 20.6008 16.1119 20.5867 16.1284 20.5764C16.1448 20.5661 16.1634 20.5601 16.1828 20.5587C16.2181 20.5529 16.2417 20.5587 16.2592 20.5941L16.5063 20.9764C16.5095 20.98 16.5118 20.9844 16.5129 20.9889C16.514 20.9936 16.514 20.9985 16.5129 21.003C16.5117 21.0077 16.5095 21.012 16.5063 21.0155C16.503 21.0191 16.499 21.0218 16.4947 21.0235H16.4769L15.8886 20.9823C15.8465 20.9796 15.8047 20.9922 15.771 21.0176C15.3592 21.3295 14.9239 21.4118 14.4591 21.2706C14.0651 21.1374 13.6511 21.0737 13.2355 21.0824C13.0767 20.8235 12.8296 20.8412 12.6472 20.7293C11.991 20.3245 11.3135 19.9554 10.6175 19.6233L9.18799 19.0056L9.20564 18.9526C9.2174 18.9351 9.22917 18.9233 9.25271 18.9351C10.4999 19.3763 11.7353 19.8529 12.9589 20.3705C13.0178 20.394 13.0883 20.3705 13.1884 20.3116C13.4473 20.2529 13.6414 20.1646 13.7649 20.0529C14.159 19.8351 14.4473 19.5822 14.6415 19.2704C14.6709 19.2115 14.718 19.1763 14.7767 19.1528L14.9651 19.0762C15.0238 19.0468 15.0591 19.0056 15.0591 18.941C15.118 18.2056 15.0827 17.4702 14.9651 16.7289C15.0238 16.7525 15.065 16.7525 15.1003 16.7407C15.1239 16.7348 15.1415 16.7054 15.1474 16.6583C15.1474 16.6172 15.1533 16.5819 15.1651 16.5466Z" fill="#443633"/>
<path d="M13.6185 17.1584C13.7538 18.0821 13.8068 19.0409 13.7656 20.0529C13.648 20.1646 13.448 20.2528 13.1891 20.3116L12.9126 20.1116C12.942 19.6939 12.9126 19.2939 12.8185 18.9115C12.7891 18.8056 12.7596 18.8056 12.7361 18.9115C12.7125 18.9938 12.7008 19.0762 12.6949 19.1644C12.6772 19.3587 12.636 19.3644 12.5655 19.1881C12.5066 19.0174 12.5361 18.8939 12.6596 18.8174C12.6874 18.8 12.7102 18.7757 12.7257 18.7467C12.741 18.7179 12.7487 18.6854 12.7479 18.6527C12.7476 18.6195 12.7387 18.5868 12.7222 18.558C12.7058 18.5292 12.6822 18.505 12.6537 18.488L12.1889 18.2232C12.1535 18.2023 12.1121 18.1941 12.0713 18.1997C12.0301 18.1997 12.0124 18.1879 12.0008 18.1585C11.9948 18.137 11.9844 18.117 11.9701 18.0997C11.956 18.0825 11.9383 18.0685 11.9184 18.0585L11.1419 17.6467C11.083 17.6173 11.0712 17.5761 11.1242 17.529L11.183 17.4819C11.23 17.4408 11.2771 17.4349 11.3301 17.4701C11.4948 17.5643 11.6242 17.529 11.7301 17.3643L12.8949 17.9526C12.942 18.1056 13.0419 18.1938 13.2009 18.2232C13.2596 18.2291 13.2949 18.2114 13.3067 18.1526L13.6185 17.1525V17.1584Z" fill="#B7B8B8"/>
<path d="M6.06459 17.6467C7.0588 18.0821 7.68239 18.3526 7.94713 18.4821C8.15303 18.582 8.31775 18.5703 8.4413 18.4409C8.48248 18.3997 8.51777 18.4056 8.55895 18.4409L8.61778 18.5174C8.63344 18.5347 8.65392 18.547 8.67662 18.5526C9.15313 18.6527 9.6296 18.7997 10.1062 18.9822C11.0238 19.3469 11.9652 19.7234 12.9124 20.1116L13.1888 20.3116C13.0888 20.3705 13.0123 20.394 12.9593 20.3705C11.7357 19.8528 10.5003 19.3703 9.25314 18.9351C9.2296 18.9233 9.21784 18.9351 9.20607 18.9526L9.18842 19.0056L10.6179 19.6292L10.5827 19.6998C10.5592 19.7469 10.5709 19.7822 10.6179 19.8117C11.4249 20.2958 12.2046 20.824 12.9536 21.3941C13.0535 21.4706 13.1006 21.5706 13.1595 21.6824C13.1947 21.7294 13.2359 21.7529 13.2947 21.7471C13.4653 21.7294 13.6182 21.6706 13.7595 21.5588C13.8006 21.5294 13.8359 21.5294 13.8771 21.5588C14.0654 21.7176 14.2889 21.7706 14.5419 21.7176C14.6302 21.7001 14.7184 21.7001 14.8008 21.7176C14.9949 21.7588 15.0361 21.8471 14.9243 21.9765C13.283 22.0059 11.6415 22.0059 9.99432 21.9765C9.92967 21.9765 9.9062 21.9531 9.91787 21.9001V21.8824C9.91196 21.8236 9.89439 21.8236 9.85911 21.8707C9.84525 21.8931 9.83344 21.9167 9.82384 21.9412C9.80613 21.9765 9.77675 22 9.73557 22H3.5761C3.50551 22 3.47021 21.9647 3.47609 21.8942L3.47021 18.3644C3.47021 18.4644 3.61141 18.4939 3.70553 18.4644L6.06459 17.6467Z" fill="#F6F6F6"/>
<path d="M11.9124 18.4115C11.8848 18.4702 11.8766 18.536 11.8888 18.5997C11.9065 18.688 11.8771 18.7174 11.7948 18.6703C11.7655 18.6524 11.7427 18.6257 11.73 18.5938C11.7172 18.5617 11.7172 18.526 11.73 18.4939C11.7652 18.3938 11.83 18.3174 11.9183 18.2585C11.977 18.2173 11.9888 18.235 11.977 18.2997C11.9673 18.3301 11.9512 18.3581 11.93 18.382C11.9234 18.3914 11.9175 18.4012 11.9124 18.4115ZM8.89443 19.0939L8.38261 19.6822C8.34319 19.7284 8.3204 19.7863 8.31791 19.847C8.31202 19.9764 8.23554 20.0704 8.10024 20.1234C8.07439 20.1351 8.04543 20.138 8.0178 20.1316C7.99016 20.1252 7.96539 20.11 7.94728 20.0881C7.93116 20.07 7.91999 20.0481 7.91484 20.0243C7.9097 20.0006 7.91073 19.976 7.91786 19.9528C7.92972 19.8999 7.95866 19.8523 8.00022 19.8174C8.2826 19.5646 8.53557 19.288 8.75913 18.9881C8.76756 18.976 8.78013 18.9676 8.79442 18.9645C8.80913 18.9631 8.82384 18.9673 8.8356 18.9763L8.88267 19.0115C8.91796 19.035 8.91796 19.0645 8.89443 19.0939Z" fill="#B7B8B8"/>
<path d="M7.32903 19.1057C7.39962 19.2763 7.41139 19.3881 7.35255 19.4527C7.0584 19.1585 7.0584 19.0468 7.32903 19.1057Z" fill="#8E908F"/>
<path d="M7.3291 19.1057L7.87032 19.2233C7.91739 19.2292 7.97034 19.2292 8.02328 19.2174C8.09209 19.1977 8.16449 19.1937 8.23507 19.2056C8.3292 19.2233 8.33507 19.2645 8.2586 19.3175C8.10564 19.4352 7.97623 19.5763 7.87032 19.7469C7.83503 19.8058 7.78796 19.8233 7.72914 19.8058C7.56442 19.7705 7.43499 19.647 7.35263 19.4527C7.41146 19.394 7.3997 19.2763 7.3291 19.1057ZM10.6176 19.6292C11.3114 19.9576 11.9869 20.3229 12.6414 20.7234C12.8297 20.8412 13.0768 20.8235 13.2356 21.0765L13.2591 21.2235C13.2709 21.2824 13.3062 21.3117 13.365 21.2999C13.5591 21.2647 13.7532 21.2647 13.9357 21.3058C14.2592 21.3823 14.5828 21.4765 14.9063 21.5941C15.5417 21.8177 16.1594 21.5941 16.7947 21.7295C16.9889 21.7706 17.1712 21.7413 17.3418 21.6471C17.5478 21.5295 17.6066 21.3647 17.5125 21.1588C17.5001 21.1288 17.4799 21.1025 17.4541 21.0829C17.4283 21.0633 17.3976 21.0509 17.3653 21.0471C17.2532 21.0277 17.1523 20.9668 17.083 20.8765C17.0124 20.7882 17.0242 20.7705 17.1241 20.8176C17.3007 20.8999 17.4595 20.9941 17.6066 21.094C17.6654 21.1352 17.7066 21.1882 17.7359 21.253C17.7537 21.2999 17.7537 21.3411 17.7243 21.3823C17.6831 21.453 17.689 21.5176 17.7418 21.5765C17.8419 21.6942 17.9537 21.7117 18.0831 21.653C18.1305 21.6291 18.1845 21.6229 18.236 21.6353C18.3302 21.6589 18.4125 21.706 18.4772 21.7765C18.6184 21.9354 18.5891 22 18.3832 21.9706C17.6665 21.8846 16.9428 21.8747 16.2241 21.9413C15.8005 21.9765 15.3652 21.9883 14.9299 21.9765C15.0357 21.8471 14.9946 21.7588 14.8005 21.7176C14.7122 21.7001 14.6239 21.7001 14.5416 21.7176C14.2886 21.7706 14.0709 21.7176 13.8768 21.5588C13.8356 21.5295 13.8003 21.5295 13.7591 21.5588C13.6179 21.6706 13.465 21.7354 13.2884 21.7472C13.2629 21.7505 13.237 21.7461 13.2139 21.7345C13.1908 21.723 13.1718 21.7049 13.1591 21.6824C13.1003 21.5765 13.0532 21.4706 12.9532 21.3882C12.2042 20.8202 11.4245 20.2939 10.6176 19.8117C10.5705 19.7822 10.5589 19.7469 10.5823 19.6939L10.6176 19.6292Z" fill="#D2D2D2"/>
</svg>
