<svg xmlns="http://www.w3.org/2000/svg" width="24" height="24" fill="none" viewBox="0 0 24 24">
    <path fill="#BE1F3D" d="M2.22 3.633c1.49.568 1.715 1.555 1.715 8.426 0 6.87-.141 7.322-1.8 8.193-.096.065-.135.155-.135.155.09.213 1.729.265 5.465.265 5.193 0 5.78-.039 4.954-.49a3.14 3.14 0 0 1-1.258-1.22c-.47-1.097-.387-12.858.039-14.039.394-.948.336-.987 1.948-.838 3.503.419 5.078 2.355 5.078 6.38 0 2.807-.71 4.4-2.478 5.768-.864.645-1.225 1.329-1.419 2.697l-.264 1.78H22v-2.16c0-2.091-.039-2.13-.632-1.33-.51.723-.942.839-3.142.839-2.516 0-3.342-.497-1.575-.916 1.42-.342 3.42-2.084 4.014-3.53.825-1.857.71-5.006-.278-6.528-2.045-3.226-3.839-3.833-12.29-3.794-4.174 0-6.432.116-5.878.342m5.993.987c.116.342.239 3.723.239 7.549 0 5.548-.123 7.025-.555 7.367-1.097.871-1.626-.8-1.626-7.548 0-6.078.484-7.974 1.355-7.974.193 0 .47.264.58.606z"/>
</svg>
