<svg xmlns="http://www.w3.org/2000/svg" width="24" height="24" fill="none" viewBox="0 0 24 24">
    <path fill="#FCC265" d="M16.773 11.089a.682.682 0 1 0 0-1.364.682.682 0 0 0 0 1.364M12 12.907l.987 1.364h.831l-.986-1.364z"/>
    <path fill="#FCC265" d="M12.219 11.543h-1.137V9.984h1.136c.382 0 .691.341.691.76 0 .422-.309.8-.69.8m1.6-.8c0-.809-.591-1.473-1.337-1.473h-2.3v5h.91v-2.013h1.4c.726 0 1.326-.7 1.326-1.514"/>
    <path fill="#FFE2B3" d="M16.223 14.343a4.58 4.58 0 0 1-3.822 1.973 4.457 4.457 0 0 1-4.491-4.545c0-2.537 1.931-4.6 4.481-4.6l-2.904.254-1.882 1.877-.764 2.978.687 2.132.686 1.363 1.541 1.027 2.732.51 1.454-.432 1.969-1.364z"/>
    <path fill="#FCC265" d="M21.969 12.998c-.096-.486-.65-.827-1.06-1.046a3.07 3.07 0 0 0-1.604-.409c-.327 0-.455.1-.486.196-.064.022 1.24.545 1.981 1.159.046.032.296.236.291.327 0 .1-.3.16-.363.182-.728.204-1.519.227-2.269.227-.595 0-1.204-.045-1.34-.045-.791-.064-1.655-.091-2.446-.137-.364-.018-.4.014-.4.014-.01.105.227.3.727.514a5 5 0 0 0 1.041.304c.037 0-.5.737-.754.978A4.72 4.72 0 0 1 12 16.543a4.587 4.587 0 0 1-4.545-4.718 4.65 4.65 0 0 1 4.536-4.573c1.15-.013 2.237.464 3.173 1.11a.07.07 0 0 0 .018-.05c0-.064-.064-.155-.086-.196-.614-1.018-1.973-1.482-3.105-1.568h-.218c-2.941-.037-5.082 2.268-5.3 4.945-.91-.236-3.391-.868-3.564-1.863.118-.2.955-.446 3.305-.36.09-.272.318-.604.477-.845-2.941-.16-4.505.195-4.673 1.055-.009.059-.018.113-.018.168 0 1.44 3.382 2.386 4.473 2.714A5.5 5.5 0 0 0 12 17.452a5.3 5.3 0 0 0 4.018-1.868 5.4 5.4 0 0 0 .728-1.181c.682.09 1.364.104 2.045.104.791 0 1.668-.05 2.41-.34.354-.133.795-.428.795-.85.014-.128-.01-.233-.027-.32"/>
</svg>
