<svg xmlns="http://www.w3.org/2000/svg" width="24" height="24" fill="none" viewBox="0 0 24 24">
    <path fill="url(#RPL__a)" d="M12 19.413a7.465 7.465 0 1 0 0-14.93 7.465 7.465 0 0 0 0 14.93"/>
    <path fill="#FF7534" fill-rule="evenodd" d="M12 19.519A7.52 7.52 0 0 0 19.518 12 7.518 7.518 0 1 0 12 19.519m0-.46a7.059 7.059 0 1 0 0-14.117 7.059 7.059 0 0 0 0 14.117" clip-rule="evenodd"/>
    <path fill="#FFD58D" fill-rule="evenodd" d="M12 20a8 8 0 1 0 0-16 8 8 0 0 0 0 16m0-.47a7.53 7.53 0 1 0 0-15.06 7.53 7.53 0 1 0 0 15.06" clip-rule="evenodd"/>
    <path fill="#fff" fill-rule="evenodd" d="m9.918 11.261-.768.92 1.08.405c.014.407.112.577.159.611l-.411.38.41.42.406-.42c.224.083.465.112.703.085l.378 1.103.952-.865.238-1.06c2.198-1.999 2.444-3.594 2.293-4.142-1.947-.138-3.688 1.463-4.315 2.282zm.047 3.123-3.262 3.008-.344-.373 3.261-3.01zm-1.046.07L6.243 16.9l-.343-.375 2.676-2.447zm.967.936-2.699 2.48-.344-.374 2.7-2.481zm2.913-3.623a.628.628 0 1 0 0-1.256.628.628 0 0 0 0 1.257" clip-rule="evenodd"/>
    <defs>
        <linearGradient id="RPL__a" x1="5.29" x2="20" y1="17.363" y2="6.532" gradientUnits="userSpaceOnUse">
            <stop stop-color="#FB9533"/>
            <stop offset=".261" stop-color="#FEBA67"/>
            <stop offset=".747" stop-color="#FF9976"/>
            <stop offset="1" stop-color="#FF6350"/>
        </linearGradient>
    </defs>
</svg>
