<svg xmlns="http://www.w3.org/2000/svg" width="24" height="24" fill="none" viewBox="0 0 24 24">
    <path fill="#0B0D0C" d="M10.174 11.816c-2.26.22-3.24 1.805-3.45 2.57.1.12.54.36 1.53.36 1.24 0 2.41-1.335 1.92-2.93m4.79-2.7a5.15 5.15 0 0 1-2.23.705c.49.1 1.825.15 3.215-.425a11.5 11.5 0 0 0 2.826-1.67c.3-.23.96-.71 1.225-.775-1.365-.085-4.036 1.525-5.036 2.165"/>
    <path fill="url(#RTM__a)" d="M5.474 8.59c-1.275 1.335-1.15 4.365-.95 5.7l1.1-1.405c1.88-3.116 5.696-4.116 6.276-4.3.47-.14 3.47-1.18 4.915-1.68.865-.566 1.775-1.84 2.125-2.406-.6.53-2.57 1.235-5.73 1.475-3.166.235-5.89.675-7.741 2.615z"/>
    <path fill="#0B0D0C" d="M8.494 11.217c-1.895.734-2.756 1.455-2.95 1.725 1.47-2.46 4.285-3.776 5.51-4.13l5.786-1.9c-2.38 1.86-5.981 3.39-8.351 4.305z"/>
    <path fill="#FD5C27" d="M4.639 19.5c-1.1-2.024-.535-3.494-.11-3.975.07.45.355 1.436.96 1.726-.7.285-.86 1.62-.85 2.25"/>
    <path fill="url(#RTM__b)" d="M7.534 16.027c-1.09 0-2.04-.335-2.38-.5a4.39 4.39 0 0 0 3.615 1.835c2.48 0 4.15-3.35 4.15-4.88 0-1.226-.35-1.76-.53-1.876.305 4.156-3.495 5.42-4.855 5.42"/>
    <defs>
        <linearGradient id="RTM__a" x1="4.001" x2="22.329" y1="18.114" y2="11.348" gradientUnits="userSpaceOnUse">
            <stop stop-color="#FC5716"/>
            <stop offset=".84" stop-color="#736155"/>
            <stop offset="1" stop-color="#372E2A"/>
        </linearGradient>
        <linearGradient id="RTM__b" x1="6.699" x2="13.5" y1="16.607" y2="11.412" gradientUnits="userSpaceOnUse">
            <stop stop-color="#E4713A"/>
            <stop offset=".72" stop-color="#7D6356"/>
            <stop offset="1" stop-color="#222"/>
        </linearGradient>
    </defs>
</svg>
