<svg width="24" height="24" viewBox="0 0 24 24" fill="none" xmlns="http://www.w3.org/2000/svg">
<path d="M20.7789 6.91432L12.1221 2.02468C12.1011 2.01416 12.0785 2.00668 12.0555 2.00246H12.0443C12.001 1.99619 11.9568 2.00196 11.9165 2.01912H11.8943L3.24298 6.9032L3.2263 6.91432C3.192 6.9328 3.16315 6.96 3.14268 6.99316C3.12219 7.02632 3.1108 7.06428 3.10962 7.10323V16.8881C3.11024 16.9264 3.1208 16.964 3.14027 16.9972C3.15975 17.0303 3.18747 17.0578 3.22074 17.077L11.8887 21.9665C11.922 21.9888 11.9609 22 11.9998 22C12.0443 22 12.0832 21.9888 12.1165 21.9665L20.7845 17.077C20.8125 17.0604 20.8364 17.0378 20.8546 17.011C20.8728 16.984 20.885 16.9535 20.8902 16.9214V7.10879C20.8895 7.07037 20.8789 7.03279 20.8594 6.99968C20.84 6.96656 20.8122 6.93907 20.7789 6.91987V6.91432ZM11.722 21.3887L3.63747 16.7991L7.777 9.85924L11.722 12.1262V21.3887ZM3.66526 7.46995L7.38805 9.63689L3.66526 16.0491V7.46995ZM12.2777 12.1262L16.5228 9.69808L20.3345 7.49774V16.7436H12.2777V12.1317V12.1262ZM16.4895 9.20355L13.1667 3.70827L12.6333 2.83591L20.2066 7.10323L16.4895 9.20355ZM11.9165 2.52475L16.0894 9.42582L13.6168 10.8205L11.9998 11.7372L3.80973 7.09212L11.9165 2.52475ZM12.2777 17.2603H19.2732L12.2777 21.3887V17.2603Z" fill="#EA1D3A"/>
</svg>
