<svg xmlns="http://www.w3.org/2000/svg" width="24" height="24" fill="none" viewBox="0 0 24 24">
    <path fill="#D9D9D9" d="M12 20.47a8.47 8.47 0 1 0 0-16.94 8.47 8.47 0 0 0 0 16.94m0 .53a9 9 0 1 0 0-18 9 9 0 0 0 0 18"/>
    <path fill="url(#SCS__a)" d="M12 20.47a8.47 8.47 0 1 0 0-16.94 8.47 8.47 0 0 0 0 16.94"/>
    <path fill="#16191D" d="M11.471 5.118v-.794L7.236 8.56l-2.382 6.352 1.852.53 4.5-3.177 4.236 2.647-4.765 2.118 1.059.53 6.353-2.648-6.882-5.294-5.56 4.5 1.854-5.03z"/>
    <path fill="#1F232A" d="m16.499 9.089.265.794-3.441-3.441.529 2.912 4.235 3.97.794 1.853-6.617-5.559-.265-5.294z"/>
    <path fill="#D2D2D4" d="M15.176 12.529V10.94h.392v.64h.275v-.64h.392v1.588h-.392v-.694h-.275v.694zm-.768 0a.7.7 0 0 1-.301-.053.37.37 0 0 1-.186-.159.6.6 0 0 1-.068-.28l.365-.043q-.002.104.021.159.023.064.053.09a.2.2 0 0 0 .095.026q.063.002.085-.037a.13.13 0 0 0 .021-.074.23.23 0 0 0-.053-.159.8.8 0 0 0-.159-.137l-.169-.117a1 1 0 0 1-.185-.164.37.37 0 0 1-.074-.238.35.35 0 0 1 .148-.296.66.66 0 0 1 .392-.106q.16.002.248.042a.34.34 0 0 1 .143.106.6.6 0 0 1 .07.148c.01.053.02.095.02.143l-.37.037c0-.047 0-.085-.01-.122a.14.14 0 0 0-.033-.074q-.023-.031-.079-.031a.1.1 0 0 0-.09.042.14.14 0 0 0-.026.08.2.2 0 0 0 .053.142l.132.106.159.117a.8.8 0 0 1 .212.195.4.4 0 0 1 .09.265.34.34 0 0 1-.064.201.4.4 0 0 1-.175.138.6.6 0 0 1-.264.053m-1.614 0 .317-1.588h.424l.318 1.588h-.344l-.053-.334h-.25l-.057.334zm.444-.53h.18l-.09-.635zm-1.228.53a.7.7 0 0 1-.323-.064.37.37 0 0 1-.169-.18.7.7 0 0 1-.048-.27v-.556c0-.105.016-.2.053-.275a.35.35 0 0 1 .159-.18.7.7 0 0 1 .328-.063q.2.002.313.053a.4.4 0 0 1 .158.159.55.55 0 0 1 .048.232v.133h-.392v-.239a.1.1 0 0 0-.037-.068q-.025-.032-.09-.032-.063 0-.095.032a.14.14 0 0 0-.037.069v.915l.042.07q.033.021.09.02c.043 0 .074-.005.09-.026a.13.13 0 0 0 .032-.069l.005-.09v-.164h.392v.132q0 .135-.048.239a.34.34 0 0 1-.158.158.6.6 0 0 1-.313.064m-3.054-2.393v-.254l-1.44 1.355-.81 2.033.63.17 1.53-1.017 1.434.847-1.614.678.36.17 2.154-.848-2.334-1.694-1.89 1.44.63-1.61z"/>
    <path fill="#D2D2D4" d="m10.66 11.407.09.254-1.164-1.101.174.931 1.44 1.27.27.594-2.25-1.78-.084-1.693z"/>
    <defs>
        <linearGradient id="SCS__a" x1="8.343" x2="15.374" y1="3.844" y2="20.437" gradientUnits="userSpaceOnUse">
            <stop stop-color="#383D45"/>
            <stop offset="1" stop-color="#1A1D22"/>
        </linearGradient>
    </defs>
</svg>
