<svg xmlns="http://www.w3.org/2000/svg" width="24" height="24" fill="none" viewBox="0 0 24 24">
    <path fill="#40BF8E" d="M11.375 5.854V2l-.704.089C5.775 2.705 2 6.914 2 11.999c0 5.087 3.774 9.297 8.671 9.912l.704.089v-1.242a8 8 0 0 1-1.018-.157l-.232-.047v.01C6.205 19.732 3.25 16.22 3.25 12s2.956-7.733 6.875-8.563v1.506c-1.465.601-2.5 2.021-2.5 3.686 0 1.664 1.035 3.084 2.5 3.685.489.15.764.22 1.25.306v-1.217l-.456-.127c-1.185-.328-2.044-1.394-2.044-2.647 0-1.254.86-2.319 2.044-2.648zm1.25 12.292V22l.704-.089C18.225 21.296 22 17.086 22 12s-3.774-9.296-8.671-9.911L12.625 2v1.242c.36.026.66.085 1.017.157l.233.047v-.009c3.92.83 6.875 4.342 6.875 8.563s-2.956 7.733-6.875 8.563v-1.506c1.465-.6 2.5-2.021 2.5-3.686 0-1.664-1.035-3.084-2.5-3.685a9 9 0 0 0-1.25-.306v1.217l.456.127c1.185.328 2.044 1.393 2.044 2.647s-.86 2.319-2.044 2.648z"/>
</svg>
