<svg xmlns="http://www.w3.org/2000/svg" width="24" height="24" fill="none" viewBox="0 0 24 24">
    <path fill="url(#SHA__a)" d="M12.25 2.045a.67.67 0 0 0-.486 0Q8.387 3.26 5.012 4.486c-.274.105-.44.335-.44.492v6.29c0 3.919 1.043 5.837 2.231 7.256 2.317 2.484 4.746 3.274 4.965 3.417.162.107.396.045.493 0 2.12-.931 4.02-2.358 4.922-3.416 1.785-2.094 2.245-3.968 2.245-7.257V4.922c0-.255-.25-.397-.376-.436z"/>
    <path fill="url(#SHA__b)" d="M12.23 2.614a.6.6 0 0 0-.448 0Q8.665 3.76 5.55 4.915c-.254.099-.406.316-.406.463v5.93c0 3.695.962 5.504 2.06 6.842 2.138 2.341 4.38 3.086 4.582 3.221.149.1.365.042.455 0 1.956-.878 3.71-2.223 4.543-3.221 1.648-1.973 2.072-3.74 2.072-6.841V5.326c0-.24-.231-.374-.347-.411-2.005-.736-6.068-2.225-6.278-2.301"/>
    <path fill="url(#SHA__c)" d="M12.211 3.183a.54.54 0 0 0-.41 0Q8.942 4.26 6.086 5.345c-.232.092-.372.296-.372.434v5.572c0 3.47.882 5.17 1.888 6.426 1.96 2.2 4.015 2.9 4.2 3.026.137.094.336.04.418 0 1.793-.825 3.4-2.089 4.165-3.026 1.51-1.854 1.899-3.514 1.899-6.427V5.732c0-.226-.212-.351-.318-.385z"/>
    <path fill="url(#SHA__d)" d="M12.834 10.925a1.714 1.714 0 1 0-1.683-.007l-.865 3.652h3.428z"/>
    <defs>
        <linearGradient id="SHA__a" x1="12" x2="12" y1="2" y2="22" gradientUnits="userSpaceOnUse">
            <stop stop-color="#132368"/>
            <stop offset="1" stop-color="#B02CBC"/>
        </linearGradient>
        <linearGradient id="SHA__b" x1="12" x2="12" y1="2" y2="22" gradientUnits="userSpaceOnUse">
            <stop stop-color="#F8F9FB"/>
            <stop offset="1" stop-color="#AF2CBB"/>
        </linearGradient>
        <linearGradient id="SHA__c" x1="12" x2="12" y1="2" y2="22" gradientUnits="userSpaceOnUse">
            <stop stop-color="#1B246C"/>
            <stop offset=".496" stop-color="#A27DC3"/>
            <stop offset="1" stop-color="#FAEFFD"/>
        </linearGradient>
        <linearGradient id="SHA__d" x1="12.009" x2="12.009" y1="7.796" y2="14.67" gradientUnits="userSpaceOnUse">
            <stop stop-color="#31237B"/>
            <stop offset="1" stop-color="#72259E"/>
        </linearGradient>
    </defs>
</svg>
