<svg xmlns="http://www.w3.org/2000/svg" width="24" height="24" fill="none" viewBox="0 0 24 24">
    <path fill="#FB8016" d="M12 22c5.523 0 10-4.477 10-10S17.523 2 12 2 2 6.477 2 12s4.477 10 10 10"/>
    <path fill="url(#SHIK__a)" d="M6.689 9.806 5.512 12.94c-.123 1.07-.341 3.247-.2 3.37.177.154 9.953 1.707 10.394 1.666.353-.03 2.147-2.989 3-4.465-.294-.847-.9-2.588-.888-2.765s.147-.647.212-.865c-.177-.035-.588-.223-.794-.694-.26-.588-1.5-1.623-2.43-1.823-.923-.194-2.276-.47-3.953-.353a5.4 5.4 0 0 0-2.859 1.117z"/>
    <path fill="#333" d="M13.177 7.082c3.276 1.412 4.94 6.283 3.93 8.824a5 5 0 0 1-1.754 2.041c.188.024.312.035.353.03.353-.03 2.153-2.989 3-4.465a37 37 0 0 1-.882-2.689c-.294-.988-.718-1.823-1.218-2.405a5 5 0 0 0-1.394-.918 16 16 0 0 0-2.035-.412z"/>
    <path fill="url(#SHIK__b)" d="M6.512 11.67c0 1.312 1.43 2.295 2.147 2.612l1.73.377c.276-.353.993-1.059 1.629-1.059.64 0 1.264.641 1.494.959l1.323-.341c2.812-.665 2.647-2.26 2.647-2.46s-.064-2-1.83-2c-1.764 0-3.47 2-3.634 2.06-1.195-1.312-2.424-2.06-3.271-2.06-.841 0-2.235.272-2.235 1.913"/>
    <path fill="#544933" d="M15.795 7.765c-.336-.141-.989-.37-1.271-.47v-.283q1.179-1.622 2.382-3.224c.047-.035.924-.87 1.494-.782.565.082.612.547.695.882.07.277.094 1.112.1 1.488-.242.765-.748 2.395-.836 2.806s-.665 1-.941 1.247c-.406-.5-1.294-1.529-1.623-1.67z"/>
    <path fill="#91775A" d="m14.47 7.312-1.111-.236 1.647-1.882c.141-.188 1.447-1.318 1.918-1.594.47-.282 1.382-.488 1.435-.335.047.153-.188.44-.247.47s-1.565.977-1.97 1.265c-.413.282-.918 1.265-1.083 1.565-.135.235-.447.6-.588.747"/>
    <path fill="#5E5346" d="m13.6 7.106-.6-.041.894-.812 1.011-1.147 1.024-.994c.335-.247 1.118-.794 1.582-1 .47-.218.8-.2.906-.165l-.047.37c-1.212.042-2.806 1.689-3.147 2.089-.277.318-1.194 1.265-1.623 1.706z"/>
    <path fill="#9D7B4E" d="M9.377 7.376 6.647 9.46c0 .059-.094.076-.47-.388-.471-.577-.847-2.871-.93-3.63-.082-.765.447-.794 1.288-.77.671.011 2.177 1.517 2.842 2.264z"/>
    <path fill="#312F33" d="M5.635 2.953a.65.65 0 0 0-.529.259l1.265 1.2q1.662 1.036 3.306 2.106c.023.04.135-.394.135-.436 0-.03-.435-.547-.647-.8L7.953 4.094c-.294-.223-.941-.706-1.159-.806a3.6 3.6 0 0 0-1.159-.335"/>
    <path fill="#82673C" d="M6.323 4.882c-.806 1-.106 3.353.341 4.406-.053.289-.33.53-1.03-.8s-.5-3.84-.31-4.923c.058-.177.293-.5.84-.418.547.077 3.341 2.647 4.67 3.918-.64.064-1.4.294-1.7.394-.51-.788-1.8-2.412-2.81-2.57z"/>
    <path fill="#F5B657" d="M5.853 3.565c-.036-.06-.394-.224-.565-.294-.124.8-.365 2.482-.353 2.764.018.353.682 2.047.706 2.183.012.111.218.176.318.194a60 60 0 0 1-.53-1.824c-.182-.682.059-1.817.194-2.294.088-.223.259-.67.23-.73"/>
    <path fill="#000" d="M11.953 6.841c-.735 0-1.741.27-2.153.4.47-.076 1.57-.235 2.153-.235.582 0 1.865.194 2.43.288a10.7 10.7 0 0 0-2.43-.453"/>
    <path fill="#F2E3D0" d="M6.665 14.765c.077-2.042-.794-2.295-1.235-2.17l-.588 1.323-.336 1.306.06.67.517.941 1.141.924 2.076.988 2.836.959.782.059c2.318-.083 4.647-1.389 5.983-2.183 1.07-.635 1.47-1.5 1.54-1.847l.048-.764-1.006-2.547c-1.212.588-1.224 1.864-1.077 2.423 0 0-.935-.865-2.44-.865-1.207 0-1.813.777-1.965 1.165h-1.865a2.87 2.87 0 0 0-2.153-1.165c-1.065 0-1.988.518-2.318.777z"/>
    <path fill="#8F8F87" d="M11.665 19.747c1.511-.447 4.635-1.823 5.44-3.841q.196-.496.26-1.088l.04.03a2 2 0 0 1-.029-.124c.03-.295.03-.589.012-.906a1.94 1.94 0 0 1 1.035-1.365q.196.43.365.747l.7 1.77-.047.765v.006a2.5 2.5 0 0 1-.153.4 3.54 3.54 0 0 1-1.388 1.441 17.6 17.6 0 0 1-3.977 1.842 8.6 8.6 0 0 1-2 .347h-.011z"/>
    <path fill="#FFFECF" d="M6.024 12.718c-.089.453-.26 1.54-.26 2.264 0 .9.907 2.683 1.795 3.47l-.159-.076c-.376-.164-1.347-.582-1.894-1.1a3.3 3.3 0 0 1-1.018-1.705c.034-.497.145-.985.33-1.447.117-.336.47-1.183.63-1.565.164 0 .517.03.576.159m1.158 2.8a.88.88 0 0 1 .9.34c.377.5 1.153 1.324 2.1 1.324s1.647-.529 1.777-.852v.546c-.059.283-.53.854-1.97.854-.277 0-.924-.095-1.336-.46-.412-.352-.87-1.023-1.047-1.311-.03-.088-.118-.277-.235-.33l-.224-.111z"/>
    <path fill="#9FF6FE" d="m17.5 17.5-1.117.953 1.518-.735.535-.46.553-.482c.135-.247.423-.84.47-1.211.06-.47-.147-1.147-.306-1.524-.117-.294-.529-1.241-.717-1.676l-.288.188c.211.6.629 1.953.629 2.6.017.429-.079.854-.277 1.235l.348.424-.218.235-.282-.353-.577.518.235.323-.294.177z"/>
    <path fill="#8D6F56" d="M6.735 10.018c-.37.63-.617 2.011-.7 2.623-.211-.117-.47-.1-.576-.082l.576-1.67.06-.513-.342-1.04-.576-1.518A18 18 0 0 1 4.7 4.776c0-.97.388-1.558.47-1.57.071-.012.295.065.389.106-.059.023-.23.235-.382.947-.194.894.017 2.47.311 3.276.236.647.871 1.47 1.16 1.8.04-.147.317-.588 1.082-1.194a4.43 4.43 0 0 1 2.217-.835C8.83 7.54 7.2 9.236 6.735 10.018"/>
    <path fill="#4495B4" d="m19.194 5.27-.459-.023v-.594l.46-.035V4.44l-.383-.03-.294-1.387c.117.058.394.235.494.458.094.218.188.683.23.883zm-1.041 7.312-.6-1.97a8.5 8.5 0 0 0-1.059-2.136c.159.089.57.395.93.912.276-.353.864-1.241 1.035-1.941.17-.694.212-1.518.212-1.841l.54.047c-.064.43-.252 1.453-.446 2.088q-.381 1.16-.83 2.294l-.423-.4.288 1.13.659 1.647z"/>
    <path fill="#4C4136" d="M16.117 9.812a9.2 9.2 0 0 1 1.135 2.93c.241-.436.235-.818.23-.954v-.03c0-.176-.06-1.664-1.365-1.946"/>
    <path fill="#F89958" d="M8.865 13.176c-.882-.088-1.135-1.094-1.153-1.582h.2l.377.324.576 1.264zm5.024-1.158c-.441.34-.524.94-.506 1.205.865-.5 2.5-1.529 2.077-1.623-.53-.118-1.018-.006-1.571.418"/>
    <path fill="#322327" d="M11.035 18.159a1.75 1.75 0 0 1-.624-.43c.094.018.4-.005.865-.235.47-.218.653-.512.688-.63.135.183.47.577.741.695.265.117.647.153.812.153a2 2 0 0 1-.47.388c-.3.188-.824.206-1.036.206-.211 0-.63-.03-.976-.147"/>
    <path fill="#B5638D" d="M11.983 17.612c-.494 0-.841.335-.953.506.082.059.394.176.953.176s.894-.117.988-.176a1.3 1.3 0 0 0-.988-.506"/>
    <path fill="#0F1212" d="M7.454 11.47a.088.088 0 0 0-.062.151.1.1 0 0 0 .062.026c.159 0 .318 0 .465.012l.106.259c.047.117.1.258.164.4l.036.082c.14.323.352.823 1.235.976.53.095.841.112 1.006.106 0 .089 0 .177-.018.247a.09.09 0 0 0 .074.103.09.09 0 0 0 .102-.073 1.7 1.7 0 0 0-.482-1.447c-.465-.477-1.294-.847-2.688-.847z"/>
    <path fill="#F9FAFB" d="M9.806 12.588c.088-.094.07-.259-.041-.364-.106-.112-.27-.13-.359-.042-.088.095-.07.253.035.365.112.106.271.123.365.035zm-1.135.265c.03-.03.023-.094-.018-.135s-.106-.053-.141-.018c-.03.035-.023.1.018.141s.106.047.14.012"/>
    <path fill="#0F1212" d="M16.506 11.47a.088.088 0 1 1 0 .177c-.164 0-.317 0-.47.012l-.106.259q-.09.245-.2.482c-.141.323-.353.823-1.235.976-.53.095-.842.112-1 .106-.006.089 0 .177.011.247a.09.09 0 0 1-.073.103.09.09 0 0 1-.103-.073 1.7 1.7 0 0 1 .482-1.447c.465-.477 1.294-.847 2.694-.847z"/>
    <path fill="#F9FAFB" d="M14.154 12.588c-.095-.094-.077-.259.035-.364.112-.112.27-.13.359-.042.088.095.076.253-.036.365-.111.106-.27.123-.358.035zm1.135.265c-.035-.03-.03-.094.012-.135.04-.042.105-.053.14-.018s.03.1-.017.141c-.04.041-.1.047-.135.012"/>
    <path fill="#000" fill-rule="evenodd" d="M10.67 14.924c0 .552.795.858 1.236.953v.8c0 .152-.088.4-.353.605-.253.212-.694.383-1.412.383-1.647 0-2.276-1.318-2.494-1.765l-.04-.077a.6.6 0 0 0-.542-.358v.117c.035 0 .294 0 .435.294l.041.083c.212.441.883 1.823 2.606 1.823h.23c.159.23.64.57 1.588.57.953 0 1.447-.34 1.617-.576l.195.006c1.723 0 2.388-1.382 2.606-1.823l.035-.082c.147-.295.4-.295.441-.295v-.117a.61.61 0 0 0-.547.353l-.041.088c-.212.441-.847 1.765-2.494 1.765-.712 0-1.153-.177-1.412-.389-.259-.206-.341-.453-.347-.606v-.805c.482-.106 1.306-.418 1.306-.941 0-.695-1.147-.83-1.336-.83-.188 0-1.317.118-1.317.824m2.765 2.847a2.1 2.1 0 0 1-1.146-.395 1.1 1.1 0 0 1-.33-.423 1 1 0 0 1-.33.423c-.235.189-.588.342-1.111.389.17.194.606.47 1.447.47s1.288-.276 1.47-.47z" clip-rule="evenodd"/>
    <path fill="#F9FAFB" d="M11.959 14.741c.282 0 .511-.076.511-.17s-.229-.171-.511-.171-.512.076-.512.17.229.171.512.171"/>
    <path fill="#000" d="M11.258 18.635c0-.03.03-.059.059-.059h1.365q.024 0 .041.018a.06.06 0 0 1 0 .083.06.06 0 0 1-.041.017h-1.365a.06.06 0 0 1-.059-.059"/>
    <path fill="#EBE0D3" d="M12.96 11.27c-.224-.223-.16-.646.14-.94.306-.306.73-.371.948-.153.223.223.152.646-.147.947-.3.3-.724.364-.942.146m-1.918 0c.223-.223.159-.646-.147-.94-.294-.306-.724-.371-.941-.153-.224.223-.154.646.146.947s.724.364.942.146"/>
    <path fill="#000" d="M19.118 4.87c0-.746-.105-1.217-.276-1.494A.72.72 0 0 0 18.177 3c-.135 0-.317.059-.541.153a6 6 0 0 0-.718.388c-.5.318-1.017.706-1.364 1.03a11 11 0 0 0-.883.97l-.353.412q-.319.367-.67.706c-.212.194-.418.359-.606.441l-.07-.165c.158-.07.352-.211.558-.411.206-.195.43-.436.647-.695l.353-.394q.426-.524.906-1a10.4 10.4 0 0 1 1.388-1.04c.259-.16.512-.3.741-.407.23-.1.441-.164.612-.164.324 0 .612.129.812.458.2.324.306.83.306 1.589-.02 1.3-.28 2.586-.765 3.794-.118.235-.247.623-.359 1.023-.117.4-.218.806-.276 1.053l-.03-.006c.224.63.536 1.389.883 2.077.436.824.715 1.721.823 2.647v.006a2.18 2.18 0 0 1-.67 1.459c-.4.429-.942.817-1.518 1.14a15.7 15.7 0 0 1-2.906 1.254c-.806.247-1.965.494-2.441.588h-.024c-.294-.012-1.182-.141-2.458-.588l-.042-.018c-.8-.277-2.047-.718-3.1-1.33a5.5 5.5 0 0 1-1.388-1.088c-.359-.412-.588-.882-.588-1.412-.018-.129.012-.405.118-.829.117-.435.323-1.041.676-1.823q.58-1.323.853-2.088l-.041.011c-.059-.247-.153-.647-.27-1.053-.118-.4-.248-.794-.365-1.023a10.6 10.6 0 0 1-.765-3.794c0-.76.112-1.265.306-1.589.2-.33.488-.458.823-.458.165 0 .377.064.606.164a10.3 10.3 0 0 1 2.13 1.447c.264.247.582.618.911 1l.341.394c.224.26.447.5.653.695.212.2.4.34.56.411L10.9 7.1a2.3 2.3 0 0 1-.612-.447 10 10 0 0 1-.659-.706l-.353-.412q-.418-.506-.888-.964a10 10 0 0 0-1.365-1.03 6 6 0 0 0-.717-.388A1.5 1.5 0 0 0 5.765 3a.73.73 0 0 0-.664.376c-.22.466-.316.981-.277 1.495.02 1.272.27 2.53.741 3.711.124.247.26.66.377 1.06.088.3.165.605.223.846q.135-.403.17-.606l.177-.388c-.035.194-.135.618-.3 1.177v.029h-.011a19 19 0 0 1-.812 2.188 12 12 0 0 0-.659 1.8c-.118.43-.13.677-.118.765v.012c0 .47.206.906.542 1.294.389.423.844.78 1.347 1.059 1.04.605 2.276 1.035 3.07 1.317l.041.012c1.248.441 2.118.57 2.4.577a26 26 0 0 0 2.412-.577c.494-.153 1.747-.588 2.87-1.235.566-.324 1.089-.694 1.477-1.112a2 2 0 0 0 .624-1.33c-.012-.335-.194-1.323-.812-2.576a14 14 0 0 1-.841-2.188h-.018l.006-.035a10 10 0 0 1-.23-.906v-.2c.042.194.136.517.277.917.059-.235.135-.54.224-.84.117-.4.247-.813.376-1.06.472-1.183.723-2.443.741-3.717zM5.56 6.942c.126.856.482 1.66 1.03 2.33-.224-.165-.765-.812-1.124-2.047-.364-1.236.047-2.989.294-3.706 1.9.394 2.989 2.411 3.118 2.735.094.253.488.823.677 1.07-.365-.235-.624-.629-1.024-1.235l-.341-.53c-.618-.917-2.1-1.676-2.27-1.6-.177.083-.565 1.536-.354 2.983zm1.036 2.453c.006-.03.764-1.1 1.217-1.406A3.9 3.9 0 0 1 9.301 7.4c-.994.2-2.03 1.294-2.477 1.776-.13.13-.206.218-.23.218M18.47 6.941a4.77 4.77 0 0 1-1.023 2.33c.223-.165.764-.812 1.123-2.047.365-1.236-.047-2.989-.294-3.706-1.9.394-2.988 2.411-3.118 2.735-.094.253-.494.823-.676 1.07.365-.235.624-.629 1.024-1.235l.34-.53c.618-.917 2.1-1.676 2.271-1.6.177.083.565 1.536.353 2.983m-1.035 2.453c0-.03-.765-1.1-1.212-1.406a4 4 0 0 0-1.488-.588c.994.2 2.03 1.294 2.476 1.776.13.13.206.218.224.218"/>
    <defs>
        <linearGradient id="SHIK__a" x1="3.294" x2="10.654" y1="14.443" y2="11.194" gradientUnits="userSpaceOnUse">
            <stop stop-color="#8A6F55"/>
            <stop offset="1" stop-color="#5C5251"/>
        </linearGradient>
        <linearGradient id="SHIK__b" x1="2.386" x2="10.637" y1="9.971" y2="10.382" gradientUnits="userSpaceOnUse">
            <stop stop-color="#C58B5D"/>
            <stop offset="1" stop-color="#A16F54"/>
        </linearGradient>
    </defs>
</svg>
