<svg xmlns="http://www.w3.org/2000/svg" width="24" height="24" fill="none" viewBox="0 0 24 24">
    <path fill="url(#SIX__a)" d="M17.4 6.01v3.138c0 .338-.251.299-.375.237-.406-.196-1.174-.61-1.291-.667s-.136-.207-.134-.274V6.742c-.012-.263-.146-.365-.209-.383a143 143 0 0 0-3.175-1.518.66.66 0 0 0-.437 0c-.943.466-2.956 1.416-3.141 1.518a.47.47 0 0 0-.238.383v3.778c.005.257.164.37.238.395.987.481 3.08 1.462 3.195 1.532.116.071.305.03.385 0l.385-.2c.132-.082.289-.034.35 0l1.54.77c.197.153.082.3 0 .354-.568.29-1.786.904-2.11 1.032s-.684.053-.824 0c-1.416-.696-4.321-2.135-4.613-2.322-.292-.186-.356-.537-.346-.689V6.027c.016-.416.359-.656.523-.723 1.35-.672 4.137-2.056 4.48-2.216s.696-.066.83 0c1.402.69 4.283 2.108 4.592 2.275s.375.481.375.647"/>
    <path fill="url(#SIX__b)" d="M6.6 17.99v-5.235c0-.337.251-.299.375-.237.406.197 1.174.599 1.29.655.118.057.137.207.135.275a278 278 0 0 0 0 3.768c.012.262.146.364.209.382l3.146 1.565a.65.65 0 0 0 .438 0l3.204-1.564c.184-.103.204-.298.203-.383a693 693 0 0 0 0-3.863c-.006-.256-.13-.37-.203-.395-.988-.48-3.115-1.456-3.23-1.527-.116-.071-.305-.03-.385 0l-.385.2c-.132.082-.289.034-.35 0l-1.54-.77c-.198-.153-.082-.3 0-.354.568-.29 1.786-.904 2.11-1.032s.684-.053.824 0c1.416.696 4.321 2.136 4.613 2.322s.356.57.346.721v5.456c-.016.416-.359.655-.523.723-1.35.671-4.137 2.055-4.48 2.215s-.696.067-.83 0a518 518 0 0 1-4.592-2.274.74.74 0 0 1-.375-.648"/>
    <path fill="#FDD35A" d="M9.302 16.927v-2.51c0-.214.121-.175.203-.138.758.34 2.292 1.026 2.364 1.062.072.035.15.014.181 0 .728-.317 2.232-.973 2.422-1.062.19-.088.231.055.228.137-.002.801-.005 2.425 0 2.511.004.087-.06.155-.092.178-.778.362-2.362 1.1-2.474 1.16a.33.33 0 0 1-.287 0c-.735-.33-2.24-1.006-2.388-1.065s-.167-.206-.157-.273"/>
    <defs>
        <linearGradient id="SIX__a" x1="12.001" x2="12.001" y1="9.403" y2="21" gradientUnits="userSpaceOnUse">
            <stop stop-color="#25A7DF"/>
            <stop offset="1" stop-color="#655BA7"/>
        </linearGradient>
        <linearGradient id="SIX__b" x1="12.001" x2="12.001" y1="9.404" y2="21" gradientUnits="userSpaceOnUse">
            <stop stop-color="#25A7DF"/>
            <stop offset="1" stop-color="#655BA7"/>
        </linearGradient>
    </defs>
</svg>
