<svg xmlns="http://www.w3.org/2000/svg" width="24" height="24" fill="none" viewBox="0 0 24 24">
    <path fill="#A2DDEF" d="M8.22 5.156a.531.531 0 1 1-.752-.751.531.531 0 0 1 .751.751m8.169.134a.5.5 0 0 1-.22.022v.006a.531.531 0 0 1 0-1.062.53.53 0 0 1 .22 1.034M3.675 12.518a.531.531 0 1 0 0-1.062.531.531 0 0 0 0 1.062m17.03-.132a.537.537 0 1 1-.76-.76.537.537 0 0 1 .76.76M8.2 19.581a.531.531 0 1 1-.75-.751.531.531 0 0 1 .75.751m7.95.169a.531.531 0 1 0 0-1.063.531.531 0 0 0 0 1.062M11.4 7.887a9 9 0 0 1 1.213.006l.01-.001q.003-.002.002-.018V6.462c0-.063.038-.094.1-.088q.37.046.726.157c.024.012.043.037.043.062v1.388c0 .025.013.037.031.037a5.75 5.75 0 0 1 2.238.881c.144.094.175.2.081.325l-.725.938c-.062.081-.156.081-.262.006a5.14 5.14 0 0 0-2.97-.812c-.462 0-.874.03-1.243.112-.569.125-.9.325-.981.625-.106.369.094.625.588.756.262.075.512.125.768.15l.75.063q1.284.12 1.931.231 2.784.505 2.632 2.425a2.14 2.14 0 0 1-.957 1.644 4.3 4.3 0 0 1-1.85.687q-.026.002-.025.032v1.312a.09.09 0 0 1-.062.087 4 4 0 0 1-.713.138c-.062.006-.1-.019-.1-.081v-1.375c0-.019 0-.025-.018-.025-.4.019-.813 0-1.219-.031-.012 0-.012 0-.012.012v1.406c0 .075-.044.107-.12.1a4.4 4.4 0 0 1-.687-.143q-.064-.02-.062-.088v-1.4c0-.019-.013-.025-.031-.031a6.3 6.3 0 0 1-2.62-1.175q-.254-.197-.124-.357c.25-.312.5-.618.762-.925.069-.087.156-.087.25-.006a4.77 4.77 0 0 0 2.638 1.106 8.2 8.2 0 0 0 1.962-.012c.438-.062.769-.175.994-.35a.7.7 0 0 0 .25-.4.6.6 0 0 0-.075-.456c-.162-.25-.55-.425-1.169-.513a54 54 0 0 0-1.743-.2 9 9 0 0 1-1.944-.375c-1.125-.362-1.7-.956-1.75-1.78a2 2 0 0 1 .781-1.757q.694-.57 1.794-.756.018-.002.019-.032v-1.35q0-.082.074-.1.338-.095.694-.143c.063-.007.107.025.107.087v1.394c0 .019 0 .031.024.031z"/>
    <path fill="#A2DDEF" fill-rule="evenodd" d="M11.675 2h.625q.564.037.987.094a9.9 9.9 0 0 1 5.9 2.968 9.96 9.96 0 0 1 2.763 6l.05.65v.588q-.036.525-.081.9a9.77 9.77 0 0 1-2.863 5.875 9.74 9.74 0 0 1-5.881 2.85l-.869.075H11.7a18 18 0 0 1-.975-.087c-2.25-.3-4.188-1.25-5.788-2.85a9.76 9.76 0 0 1-2.85-5.788A19 19 0 0 1 2 12.294v-.6c.02-.335.05-.618.074-.844l.014-.125c.3-2.25 1.25-4.181 2.843-5.781a9.7 9.7 0 0 1 5.782-2.85A17 17 0 0 1 11.675 2m-1.244 3.05c-1.4.3-2.672 1.03-3.637 2.087q-.255.282-.5.075L4.969 6.1a.33.33 0 0 1-.125-.238.34.34 0 0 1 .1-.256A9.53 9.53 0 0 1 9.93 2.693a.47.47 0 0 1 .275.007c.113.043.188.175.22.387l.012.063.262 1.487c.044.225-.05.363-.269.413m6.807 2.112a7.16 7.16 0 0 0-3.657-2.119q-.346-.075-.281-.43l.294-1.645c.019-.106.062-.187.15-.237a.4.4 0 0 1 .281-.044c1.963.438 3.625 1.4 5.013 2.888.18.193.174.375-.007.525l-1.31 1.1c-.169.143-.331.125-.482-.038m-13.85 1.7q.812.288 1.618.594c.077.027.14.083.175.156a.3.3 0 0 1 .02.238 7.2 7.2 0 0 0 0 4.275c.062.212-.007.35-.2.425l-1.588.575a.35.35 0 0 1-.288.012.33.33 0 0 1-.194-.219q-.889-2.814-.043-5.73a.6.6 0 0 1 .137-.263c.088-.094.213-.113.363-.063m17.218 6.263-1.518-.544q-.377-.139-.294-.419c.437-1.425.437-2.856.012-4.3-.062-.206.013-.344.225-.425l1.6-.575a.33.33 0 0 1 .263.006.33.33 0 0 1 .175.2q.892 2.814.031 5.77c-.081.28-.25.374-.494.293zm-15.63 3.312c1.412 1.5 3.08 2.462 5.018 2.875a.34.34 0 0 0 .361-.137.3.3 0 0 0 .051-.125l.294-1.663q.058-.364-.287-.437a6.83 6.83 0 0 1-3.632-2.107.35.35 0 0 0-.15-.106q-.187-.075-.412.113l-1.213 1.018c-.212.175-.218.363-.03.569m9.1 2.869a9.54 9.54 0 0 0 4.855-2.769c.25-.269.281-.488.082-.65l-1.263-1.062q-.282-.235-.519.018a7.07 7.07 0 0 1-3.662 2.107c-.219.056-.313.193-.269.412l.288 1.656c.05.257.206.35.487.288m4.587-9.307a6.6 6.6 0 0 1-1.95 4.713A6.6 6.6 0 0 1 12 18.662a6.6 6.6 0 0 1-4.713-1.95 6.6 6.6 0 0 1-1.95-4.713 6.6 6.6 0 0 1 1.95-4.712A6.6 6.6 0 0 1 12 5.337a6.6 6.6 0 0 1 4.712 1.95 6.6 6.6 0 0 1 1.95 4.712" clip-rule="evenodd"/>
</svg>
