<svg xmlns="http://www.w3.org/2000/svg" width="24" height="24" fill="none" viewBox="0 0 24 24">
    <path fill="#fff" fill-rule="evenodd" d="M12.116 3.053 11.973 3l-.143.064c-1.715.766-2.81 1.752-3.462 2.816-1.694.069-3.214.836-4.12 1.546l-.12.095-.017.154c-.185 1.853.127 3.293.73 4.378-.793 1.493-.878 3.182-.709 4.315l.022.148.127.09c1.509 1.08 2.9 1.535 4.145 1.567.635 1.054 1.72 2.022 3.41 2.758l.153.069.148-.069c1.657-.783 2.743-1.747 3.404-2.774 1.255-.01 2.663-.45 4.177-1.551l.133-.1.016-.16c.142-1.82-.16-3.229-.726-4.314.62-1.085.943-2.51.742-4.363l-.022-.164-.137-.095c-1.53-1.043-2.928-1.493-4.167-1.535a7.4 7.4 0 0 0-3.441-2.817zm-7.29 4.85a6.86 6.86 0 0 1 3.16-1.271q-.245.597-.338 1.202a6 6 0 0 0-.021 1.662 5.57 5.57 0 0 0-2.33 1.832 6.9 6.9 0 0 1-.476-3.426zm.005 8.205a6.7 6.7 0 0 1 .477-3.346c.264.34.56.636.879.89.47.37.979.661 1.493.873a6.3 6.3 0 0 0 .031 1.72c.07.393.175.79.334 1.176-.953-.106-2.033-.497-3.214-1.313m1.816-3.017a5.3 5.3 0 0 0 1.165.698 7 7 0 0 1 .651-1.752 7 7 0 0 1-.704-1.805 4.8 4.8 0 0 0-2.07 1.81c.262.396.584.75.953 1.049zm1.784 3.038a5.3 5.3 0 0 1-.042-1.355c.672.19 1.323.27 1.874.275.291.466.699.974 1.207 1.44a5.3 5.3 0 0 1-1.196.651 4.7 4.7 0 0 1-1.42.302 4.7 4.7 0 0 1-.423-1.313m2.356-1.62a6.3 6.3 0 0 0 1.25 1.514 6.2 6.2 0 0 0 1.222-1.54l.106-.19h.217c.562 0 1.26-.09 1.97-.323a5.9 5.9 0 0 0-.7-1.748l-.105-.174.095-.18a7.7 7.7 0 0 0 .71-1.922 5.8 5.8 0 0 0-1.932-.291l-.207.005-.106-.175a7.7 7.7 0 0 0-1.323-1.567 5.8 5.8 0 0 0-1.218 1.514l-.106.18-.201.006a7.8 7.8 0 0 0-2.012.344c.159.741.45 1.397.747 1.88l.116.184-.106.186a6.3 6.3 0 0 0-.704 1.837 6.4 6.4 0 0 0 1.959.275l.217-.005.106.19zm-.254 3.304a6 6 0 0 0 1.514-.847c.445.333.953.625 1.52.836.354.133.73.233 1.127.291a7.4 7.4 0 0 1-2.721 2.108 6.65 6.65 0 0 1-2.7-2.065c.445-.058.868-.17 1.26-.318zm3.288-.688c.42.158.86.256 1.307.29a4.7 4.7 0 0 0 .535-2.72 7 7 0 0 1-1.869.317c-.28.477-.677.99-1.18 1.472.365.254.767.477 1.207.64m5.326-1.006a6.65 6.65 0 0 1-3.203 1.292c.4-.938.548-1.964.428-2.976a6.3 6.3 0 0 0 1.478-.884q.445-.358.82-.82c.37.873.572 1.98.477 3.388m.02-8.206c.138 1.419-.068 2.53-.476 3.399a5.5 5.5 0 0 0-.916-.974 6 6 0 0 0-1.408-.858 5.54 5.54 0 0 0-.407-2.848c.953.11 2.022.497 3.208 1.28m-1.863 2.986a5 5 0 0 0-1.064-.678 8.3 8.3 0 0 1-.656 1.8 6.4 6.4 0 0 1 .656 1.678 5.4 5.4 0 0 0 1.144-.709 4.7 4.7 0 0 0 .91-.974 4.7 4.7 0 0 0-.99-1.117M15.134 6.6c.424.805.607 1.714.53 2.62a6.7 6.7 0 0 0-1.854-.29 8.3 8.3 0 0 0-1.244-1.467 4.8 4.8 0 0 1 2.568-.863m-1.694-.392c-.52.19-1.01.452-1.456.778a5.6 5.6 0 0 0-2.753-1.08 6.96 6.96 0 0 1 2.753-2.117c.868.37 1.948 1.08 2.716 2.117a5.6 5.6 0 0 0-1.26.302M8.802 6.6c.847.032 1.736.27 2.6.863-.461.423-.859.91-1.181 1.445a8.6 8.6 0 0 0-1.89.328 5 5 0 0 1 .037-1.291c.074-.445.212-.9.434-1.345m.55 5.39 1.822-.917.878-1.72.88 1.72 1.715.916-1.721.938-.879 1.72-.873-1.72z" clip-rule="evenodd"/>
</svg>
