<svg xmlns="http://www.w3.org/2000/svg" width="25" height="24" fill="none" viewBox="0 0 25 24">
    <path fill="url(#SOL__a)" d="M18.2 8.358a.55.55 0 0 1-.365.145H5.015c-.455 0-.685-.52-.37-.825l2.105-2.03c.1-.094.23-.15.365-.15h12.87c.46 0 .685.526.365.83z"/>
    <path fill="url(#SOL__b)" d="M18.2 18.362c-.1.09-.23.14-.365.14H5.015c-.455 0-.685-.516-.37-.82l2.105-2.036c.1-.095.23-.145.365-.145h12.87c.46 0 .685.52.365.825z"/>
    <path fill="url(#SOL__c)" d="M18.2 10.642a.55.55 0 0 0-.365-.14H5.015c-.455 0-.685.514-.37.82l2.105 2.035c.1.09.23.144.365.144h12.87c.46 0 .685-.52.365-.825z"/>
    <defs>
        <linearGradient id="SOL__a" x1="4.5" x2="20.884" y1="15.842" y2="15.192" gradientUnits="userSpaceOnUse">
            <stop stop-color="#599DB0"/>
            <stop offset="1" stop-color="#47F8C3"/>
        </linearGradient>
        <linearGradient id="SOL__b" x1="4.5" x2="20.787" y1="16.421" y2="15.881" gradientUnits="userSpaceOnUse">
            <stop stop-color="#C44FE2"/>
            <stop offset="1" stop-color="#73B0D0"/>
        </linearGradient>
        <linearGradient id="SOL__c" x1="5.42" x2="19.88" y1="12.002" y2="12.002" gradientUnits="userSpaceOnUse">
            <stop stop-color="#778CBF"/>
            <stop offset="1" stop-color="#5DCDC9"/>
        </linearGradient>
    </defs>
</svg>
