<svg xmlns="http://www.w3.org/2000/svg" width="24" height="24" fill="none" viewBox="0 0 24 24">
    <path fill="#17B1E8" d="M18.576 3.25H5.36C3.512 3.25 2 4.812 2 6.753v11.65c0 1.012 1.197 1.498 1.849.738a1.924 1.924 0 0 1 2.962.021l1.029 1.203a1.035 1.035 0 0 0 1.576 0l1.072-1.224a1.95 1.95 0 0 1 2.962 0l1.071 1.245a1.036 1.036 0 0 0 1.575 0l1.072-1.245a1.95 1.95 0 0 1 2.963 0l.02.021c.651.76 1.849.276 1.849-.739V6.753c-.063-1.94-1.554-3.503-3.424-3.503"/>
    <path fill="#fff" fill-opacity=".667" d="M15.751 10.75a1.875 1.875 0 1 0 0-3.75 1.875 1.875 0 0 0 0 3.75" opacity=".5"/>
    <path fill="#fff" fill-opacity=".667" d="M15.75 10.125a1.25 1.25 0 1 0 0-2.499 1.25 1.25 0 0 0 0 2.5"/>
    <path fill="#fff" fill-opacity=".667" d="M8.25 10.75a1.874 1.874 0 1 0 0-3.748 1.874 1.874 0 0 0 0 3.748" opacity=".5"/>
    <path fill="#fff" fill-opacity=".667" d="M8.25 10.125a1.25 1.25 0 1 0 0-2.499 1.25 1.25 0 0 0 0 2.5"/>
    <path fill="#17B1E8" d="M10.127 7.625a.625.625 0 1 0-1.25 0 .625.625 0 0 0 1.25 0m7.5 0a.625.625 0 1 0-1.25 0 .625.625 0 0 0 1.25 0" opacity=".5"/>
</svg>
