<svg xmlns="http://www.w3.org/2000/svg" width="24" height="24" fill="none" viewBox="0 0 24 24">
    <path fill="#fff" fill-rule="evenodd" d="M14.057 17.425c1.326-.384 2.446-1.55 3.072-2.679a5.9 5.9 0 0 0 .676-3.337 2.3 2.3 0 0 0-.114-.526c-.027-.091.206-.402.297-.525l.028-.037a158 158 0 0 0 1.664-2.322q.145-.184.247-.393l.06-.055q.034-.042-.02-.037-1.465.061-2.993.178-.502.04-1.024.032a.4.4 0 0 1-.106-.013.1.1 0 0 1-.05-.037c-.79-1-3.602-1.71-5.284-1.243a6.04 6.04 0 0 0-3.85 3.113 5.9 5.9 0 0 0-.475 3.56c.165 1.011-.731 1.92-1.495 2.698-.256.26-.502.503-.68.731q-.027.048.022.042.76-.045 1.518-.115c.8-.073 1.6-.141 2.404-.137.096 0 .16.055.215.11l.078.068a6.73 6.73 0 0 0 5.81.924m-5.531-2.761c.192.018.329.05.47.196a4.203 4.203 0 0 0 6.053-.132 4.16 4.16 0 0 0 .896-3.804c-.046-.123-.091-.26-.046-.347l.659-1.17a.04.04 0 0 0-.032-.023q-.766.068-1.312-.037c-.183-.036-.284-.146-.394-.26a4.36 4.36 0 0 0-4.068-.979c-.1.028-.187.069-.279.11l-.16.073c-1.783.69-2.706 2.597-2.436 4.389.009.078.032.16.054.242.05.201.106.416.037.594a4.6 4.6 0 0 1-.599 1.088.05.05 0 0 0 .028.046c.004.01.018.01.027.01.38-.037.745-.033 1.106 0z" clip-rule="evenodd"/>
    <path fill="url(#SPACE__a)" d="M5.143 9.485a1.143 1.143 0 1 0 0-2.286 1.143 1.143 0 0 0 0 2.286"/>
    <defs>
        <linearGradient id="SPACE__a" x1="5.92" x2="4.178" y1="7.652" y2="8.913" gradientUnits="userSpaceOnUse">
            <stop stop-color="#3119FF"/>
            <stop offset="1" stop-color="#21E8FF"/>
        </linearGradient>
    </defs>
</svg>
