<svg xmlns="http://www.w3.org/2000/svg" width="24" height="24" fill="none" viewBox="0 0 24 24">
    <path fill="#71E0EC" d="M12 18.47c-2.869 0-5.194-2.463-5.194-5.5 0-2.956 4.69-8.169 4.883-8.374l.233-.287.232.287c.194.206 5 5.419 5 8.373.04 3.038-2.286 5.501-5.154 5.501m-.04-13.095c-.426.493-1.278 1.478-2.131 2.71-1.511 2.134-2.326 3.817-2.326 4.884 0 2.628 2.016 4.762 4.497 4.762s4.496-2.134 4.496-4.762c0-1.067-.814-2.75-2.365-4.884-.853-1.19-1.744-2.217-2.17-2.71"/>
    <path fill="#71E0EC" d="M12 20.235c-3.799 0-6.86-3.243-6.86-7.266 0-3.899 5.155-9.358 5.387-9.605a.39.39 0 0 1 .504 0 .45.45 0 0 1 0 .534c-.078.041-5.194 5.46-5.194 9.072S8.589 19.496 12 19.496c3.41 0 6.163-2.914 6.163-6.527 0-1.477-.892-3.53-2.597-5.91a34 34 0 0 0-2.636-3.243c-.155-.123-.155-.37 0-.533.117-.165.349-.165.504 0 .232.246 5.465 5.787 5.465 9.686-.039 4.023-3.1 7.266-6.9 7.266"/>
    <path fill="#71E0EC" d="M12 22c-4.574 0-8.333-3.982-8.333-8.825 0-2.011.968-4.475 2.829-7.348a35 35 0 0 1 2.83-3.694c.116-.164.348-.164.503 0 .156.124.156.37 0 .534 0 0-1.395 1.518-2.751 3.612-1.784 2.71-2.714 5.09-2.714 6.937 0 4.474 3.45 8.086 7.636 8.086s7.635-3.694 7.635-8.128c0-1.846-.93-4.227-2.712-6.936-1.357-2.052-2.752-3.57-2.752-3.612a.45.45 0 0 1 0-.533.39.39 0 0 1 .503 0c.194.286 5.66 6.28 5.66 11.082C20.333 18.018 16.611 22 12 22"/>
</svg>
