<svg xmlns="http://www.w3.org/2000/svg" width="24" height="24" fill="none" viewBox="0 0 24 24">
    <path fill="#E91179" d="m19.126 7.187-3.512 1.22a.427.427 0 0 1-.525-.257 3.64 3.64 0 0 0-3.282-2.4c-1.487 0-2.793.825-2.793 1.881 0 1.632 3.144 2.263 4.719 2.375 5.287.744 6.456 4.025 6.38 5.569.145 2.144-1.155 6.425-7.555 6.425-6.063 0-8.25-3.713-8.676-5.863a.39.39 0 0 1 .282-.443l3.55-.975c.225-.063.456.094.512.33.625 2.713 3.131 3.2 4.331 3.2 1.032 0 3.094-.499 3.094-2.155 0-2.088-3.618-2.113-6.887-3.094-3.263-.981-4.219-3.188-4.219-5.044 0-1.85.669-5.956 7.269-5.956 4.937 0 7.025 2.95 7.562 4.712.063.2-.05.407-.244.475z"/>
</svg>
