<svg xmlns="http://www.w3.org/2000/svg" width="24" height="24" fill="none" viewBox="0 0 24 24">
    <path fill="#171FC9" d="M5.375 4.163c.222.04-.322 1.483-.02 3.127.262 1.412 3.531 6.9 3.4 8.777-.101 1.19-2.795 3.955-3.077 3.774-.303-.091.817-1.968.404-3.532-.495-1.836-3.37-6.557-3.37-8.646 0-1.523 2.472-3.601 2.663-3.5m6.154-2.16c.283.052-.403 1.887-.02 3.996.333 1.805 4.51 8.797 4.338 11.198-.131 1.504-3.561 5.024-3.924 4.792-.394-.1 1.039-2.502.504-4.5-.605-2.33-4.287-8.363-4.287-11.016 0-1.957 3.147-4.59 3.399-4.469zm6.366 2.16c.222.04-.323 1.483-.02 3.127.262 1.412 3.531 6.9 3.41 8.777-.1 1.19-2.795 3.955-3.088 3.774-.301-.091.818-1.968.404-3.532-.484-1.836-3.37-6.557-3.37-8.646 0-1.523 2.472-3.601 2.664-3.5"/>
</svg>
