<svg xmlns="http://www.w3.org/2000/svg" width="25" height="24" fill="none" viewBox="0 0 25 24">
    <path fill="#64C557" fill-rule="evenodd" d="M19.606 15.998v-7.99l-7.107-4v7.994L5.394 16l7.107 4 7.1-3.996.005.002v-.005h.002z" clip-rule="evenodd"/>
    <path fill="#118AB2" d="m5.389 8.008 7.113-4v7.999l-7.113 4z"/>
    <path fill="#00F8B7" d="m12.503 4 7.108 3.999-2.222 1.443-7.111-4.182z"/>
    <path fill="#09BD8E" d="M17.389 9.219v2.705L10.278 7.89V5.254z"/>
    <path fill="#FFE3A3" d="m10.276 7.892 7.112 4.021-2.666 1.504-7.11-4.025z"/>
    <path fill="#FFBB1D" d="M14.72 13.416v2.69l-7.109-4.15v-2.57z"/>
    <path fill="#FF965E" d="m7.611 11.955 7.11 4.116-2.22 1.262-7.112-3.998z"/>
    <path fill="#D94C00" d="M12.5 17.334V20l-7.111-4.002V13.33z"/>
    <path fill="#06D6A0" d="m17.391 9.23 2.22-1.214v7.998l-2.22 1.234z"/>
    <path fill="#FFD166" d="m14.72 13.417 2.669-1.51v5.343l-2.67 1.49z"/>
    <path fill="#F3722C" d="m12.5 17.33 2.22-1.263v2.686l-2.22 1.244z"/>
</svg>
