<svg width="24" height="24" viewBox="0 0 24 24" fill="none" xmlns="http://www.w3.org/2000/svg">
<path d="M15.5294 7.58825C15.5294 6.11766 14.0764 4.64709 12.5471 4.64709C11.0177 4.64709 9.67053 6.11766 9.67053 7.58825C9.67053 8.01178 9.77649 8.41178 9.953 8.76473L9.02352 9.6765L8.99411 9.69407C8.6251 9.05536 8.44365 8.32548 8.47058 7.58825C8.47058 5.31767 10.1765 3.4706 12.5471 3.4706C13.0922 3.46199 13.6334 3.56229 14.1391 3.76565C14.6449 3.96902 15.105 4.27134 15.4923 4.65487C15.8798 5.0384 16.1866 5.49544 16.3951 5.99916C16.6034 6.50288 16.7091 7.04314 16.7059 7.58825C16.7059 9.85878 14.6 11.706 12.2353 11.706H2L4.35293 9.94113V10.5294H12.2942C13.8236 10.5294 15.5294 9.05884 15.5294 7.58825ZM8.47058 16.4117C8.47058 17.8824 9.92349 19.353 11.4529 19.353C12.9824 19.353 14.353 17.8824 14.353 16.4117C14.353 15.9883 14.2529 15.5882 14.0706 15.2353L14.9765 14.3235L15.0059 14.3058C15.3883 14.9235 15.5294 15.6471 15.5294 16.4117C15.5294 18.6823 13.8236 20.5294 11.4529 20.5294C10.9079 20.538 10.3666 20.4377 9.86077 20.2344C9.35512 20.031 8.89499 19.7288 8.50763 19.3451C8.12025 18.9617 7.81338 18.5046 7.60498 18.0009C7.3966 17.4972 7.29091 16.9569 7.29411 16.4117C7.29411 14.1411 9.21176 12.2941 11.5824 12.2941H22L19.647 14.0588V13.4706H11.5824C10.0529 13.4706 8.47058 14.9412 8.47058 16.4117Z" fill="#00847B"/>
</svg>
