<svg xmlns="http://www.w3.org/2000/svg" width="24" height="24" fill="none" viewBox="0 0 24 24">
    <path fill="#E91179" d="M15.258 8.106c-.137-1.505-1.6-2.355-3.012-2.355-1.168 0-2.718.643-2.743 1.974-.044 1.012.787 1.5 1.625 1.8.362.125.775.237 1.224.331l1.706.381q1.47.321 2.593.837c.75.35 1.387.769 1.894 1.25.505.464.906 1.03 1.174 1.662q.396.939.406 2.112a5.38 5.38 0 0 1-.95 3.168 5.9 5.9 0 0 1-2.699 2.024 11.4 11.4 0 0 1-4.236.706c-3.455 0-7.754-1.7-8.366-5.898l4.686-.837c.125 2.018 1.862 2.986 3.624 2.986 1.38 0 2.912-.656 2.937-2.155-.013-.888-.438-1.3-1.25-1.625q-.701-.3-1.787-.543l-2.075-.481c-1.712-.388-3.061-1.006-4.055-1.875A4.42 4.42 0 0 1 4.486 8.05a5.17 5.17 0 0 1 .987-3.168A6.54 6.54 0 0 1 8.23 2.758a10.05 10.05 0 0 1 4.017-.756 8.27 8.27 0 0 1 7.467 4.786z"/>
</svg>
