<svg width="24" height="24" viewBox="0 0 24 24" fill="none" xmlns="http://www.w3.org/2000/svg">
<path d="M21.1588 14.1177L21.1353 14.1471C21.1236 14.1589 21.1118 14.1707 21.1 14.1823L14.1706 21.0941C13.5905 21.6729 12.8046 21.9978 11.9853 21.9978C11.1659 21.9978 10.38 21.6729 9.79996 21.0941L7.88823 19.1883C7.84604 19.146 7.81545 19.0937 7.79938 19.0362C7.78332 18.9788 7.78233 18.9182 7.79652 18.8603C7.81071 18.8023 7.83959 18.7491 7.88038 18.7054C7.92118 18.6619 7.97251 18.6297 8.0294 18.6118C9.78733 18.1089 11.4693 17.3709 13.0294 16.4177C16.0824 14.4471 18.7941 13.6823 21.1588 14.1236V14.1177ZM19.7059 8.42944C22.2648 9.23531 21.9647 11.1177 22 11.8589C19.2 10.3882 15.8294 10.9294 11.8941 13.4707C8.95294 15.3706 6.5 16.1529 4.51764 15.8235C2.53529 15.4883 2.08823 13.0647 2 12.4236C4.17646 13.5235 7.09412 12.8942 10.7588 10.5294C14.1706 8.32354 17.1471 7.62354 19.7059 8.42944ZM14.1765 2.90001L15.9705 4.70001C16.014 4.74447 16.0448 4.7998 16.0596 4.8602C16.0744 4.92062 16.0728 4.9839 16.0547 5.04343C16.0367 5.10294 16.0029 5.15652 15.9571 5.19857C15.9112 5.24061 15.855 5.26954 15.7942 5.28237C13.1941 5.81178 11.1117 6.57649 9.5529 7.57649C6.87646 9.30595 4.59999 10.1059 2.71764 9.98824L9.79996 2.9059C10.38 2.32722 11.1659 2.00223 11.9853 2.00223C12.8046 2.00223 13.5905 2.32722 14.1706 2.9059L14.1765 2.90001Z" fill="url(#paint0_linear_364_9313)"/>
<defs>
<linearGradient id="paint0_linear_364_9313" x1="12" y1="2.00002" x2="11.8059" y2="35.7235" gradientUnits="userSpaceOnUse">
<stop stop-color="#3068EF"/>
<stop offset="1" stop-color="#1322AC"/>
</linearGradient>
</defs>
</svg>
