<svg xmlns="http://www.w3.org/2000/svg" width="24" height="24" fill="none" viewBox="0 0 24 24">
    <path fill="url(#TIN__a)" d="M21 12a9 9 0 1 1-18 0 9 9 0 0 1 18 0"/>
    <path fill="#61BBC4" fill-rule="evenodd" d="M12 20.862a8.863 8.863 0 1 0 0-17.725 8.863 8.863 0 0 0 0 17.725M12 21a9 9 0 1 0 0-18 9 9 0 0 0 0 18" clip-rule="evenodd"/>
    <path fill="#121B1D" d="M6.278 9.21c-.053.545 0 1.085.137 1.61.302 1.111.874 2.112 1.589 3.006.084.106.174.25.264.424.106.265.16.53.212.81.106.524.291.879.651 1.26q.715.749 1.334 1.281c.371.318.763.609 1.18.863l.112.09c.016.01.016.027.01.037a.14.14 0 0 1-.068.053.1.1 0 0 1-.043.021c-.015 0-.031 0-.042-.016a.1.1 0 0 1-.02-.026.1.1 0 0 0-.033-.037 3 3 0 0 0-.286-.18 1 1 0 0 1-.148-.1c-.122-.09-.249-.165-.354-.265-.096-.096-.202-.154-.297-.239-.498-.439-.964-.9-1.408-1.376a2.56 2.56 0 0 1-.583-.99 10 10 0 0 1-.164-.73 1.7 1.7 0 0 0-.37-.758 10 10 0 0 1-1.366-2.255c-.09-.212-.196-.556-.307-1.038a4.7 4.7 0 0 1-.1-1.397 7.6 7.6 0 0 1 .931-3.07l-.005-.017-.016-.005c-.016-.01-.032 0-.043.01l-.19.244c-.98 1.191-1.207 2.88-.953 4.352.09.497.233.953.423 1.382q.277.602.673 1.339c.122.228.196.413.227.54.038.175.027.381-.042.62a.3.3 0 0 1-.026.042c-.011.01-.011.01-.011 0l-.005-.01c-.01 0-.016 0-.016.01l-.027.08-.19.327a.09.09 0 0 0 0 .106l.317.355q.634.62 1.324 1.175l1.022.89.974.878c.085.08.19.17.328.276l.328.28a.296.296 0 0 1-.36-.037q-.915-.783-1.81-1.588l-1.589-1.403a9 9 0 0 1-.778-.82q.145-.255.25-.599.12-.151.073-.439l-.01-.074a2.7 2.7 0 0 0-.25-.636 23 23 0 0 1-.687-1.392c-.154-.317-.276-.74-.382-1.265a6.7 6.7 0 0 1 0-2.308c.032-.186.08-.355.122-.53q.049-.199.122-.392a6.2 6.2 0 0 1 .969-1.64.5.5 0 0 1 .148-.054.8.8 0 0 1 .318.027l.01.01a.03.03 0 0 1 0 .032c-.063.09-.132.18-.185.275a8 8 0 0 0-.604 1.393 6.3 6.3 0 0 0-.28 1.588"/>
    <path fill="#121B1D" d="M12 5.905h.603l1.048.006a.04.04 0 0 1 .046.028.04.04 0 0 1 .002.02v2.276l-.011 2.673v4.188a.2.2 0 0 0-.005.137v.652l-.006.609q-.001.023-.026.032h-.021a.6.6 0 0 1-.1-.096 25 25 0 0 1-.821-1.133c.058-.053.121-.053.185.016a.7.7 0 0 1 .1.117q.245.333.477.677a.06.06 0 0 0 .08-.037l.01-.032a.1.1 0 0 0 .01-.053l.027-4.653V8.028l-.01-1.79a.063.063 0 0 0-.064-.057l-1.779.005a12 12 0 0 0-3.79.55c-.08.022-.075.096-.106.154-.07.106-.143.212-.186.334a6 6 0 0 1-.153.391.03.03 0 0 0 .032.027l.275.01 3.997-.005c.18 0 .376 0 .386.233l-.005 1.377.005 2.419v1.985c0 .16-.09.265-.248.26a5 5 0 0 0-.424-.016.73.73 0 0 1-.672-.381q-.19-.324-.371-.673c-.37-.942-.413-1.943-.339-2.938-.053.048-1.678-.01-1.874 0q1.185 2.145 2.446 4.246.23.399.476.789l.71 1.122q.137.207.042.35a8 8 0 0 1-.312-.445 122 122 0 0 1-2.605-4.278c-.392-.662-.757-1.355-1.127-2.038a.2.2 0 0 1-.011-.08q.001-.021.026-.02 1.042.016 2.076.01a.8.8 0 0 0 .2-.021l.054.01c.01 0 .021.01.021.027l-.037.566a10 10 0 0 0 .021 1.324c.042.434.143.847.313 1.239a9 9 0 0 0 .386.725.46.46 0 0 0 .28.228 1 1 0 0 0 .265.053c.164 0 .334 0 .498-.011.016 0 .005-.01.005-.027V7.764H7.261c-.032 0-.042-.043-.032-.074q.189-.58.466-1.112a.22.22 0 0 1 .148-.122c.17-.048.34-.09.52-.127.296-.058.597-.159.878-.212.91-.159 1.832-.233 2.758-.212m-6.634 1.52a6.76 6.76 0 0 0-.265 4.934c.08.249.164.492.26.736l.068.159q.24.516.392.746c.1.148.19.291.28.445.064.106.043.19-.052.254q.017-.104-.022-.159a7.9 7.9 0 0 1-1.254-3.028c-.027-.117-.053-.228-.059-.35a8 8 0 0 1-.031-1.413c.033-.524.14-1.041.317-1.535a4 4 0 0 0 .096-.34l-.01-.004h-.022a7.4 7.4 0 0 0-.508 3.16c.01.175.042.339.053.514q.017.57.185 1.207.12.498.408 1.196c.121.313.29.62.444.932l.032.026c.042.011.069.022.069.037l-.17.122c-.02.021-.037.01-.058-.016a7.7 7.7 0 0 1-.842-1.8c-.28-.878-.349-1.853-.28-2.774.042-.9.227-1.768.609-2.589a5 5 0 0 1 .29-.503l.133-.19a.02.02 0 0 1 .01-.01q.008 0 .011.005l.01.01v.01l-.094.213z"/>
    <path fill="#518089" d="M6.044 14.7a1 1 0 0 1-.297.244c0-.016-.026-.027-.069-.038a.05.05 0 0 1-.032-.026c-.153-.318-.317-.62-.444-.932a8.5 8.5 0 0 1-.408-1.196 6 6 0 0 1-.19-1.207c-.006-.175-.037-.34-.048-.514a7.2 7.2 0 0 1 .175-2.144q.14-.517.333-1.016h.032l.01.02c-.02.07-.052.18-.105.324a5.6 5.6 0 0 0-.318 1.535c-.032.46-.021.937.032 1.414.01.121.032.232.058.349l.08.344c.22.96.619 1.87 1.175 2.684q.04.055.016.16"/>
    <path fill="#121B1D" d="M17.596 9.729a.6.6 0 0 1 .127.206l.095.212c.233.418.46.81.614 1.25q.078.237.085.481.002.279-.037.556a9 9 0 0 1-.524 1.922 14 14 0 0 1-.376.874l-.138.27c-.042-.032-.058-.07-.047-.106q.037-.083.063-.17l.016-.016a.05.05 0 0 0 .026-.026c.038-.117.117-.291.228-.524q.127-.253.302-.816c.18-.45.296-.92.36-1.408.026-.217.032-.418.01-.603a1.4 1.4 0 0 0-.105-.387 6.6 6.6 0 0 0-.55-1.022c-.017-.02-.022-.015-.027.011q-.023.628-.074 1.255-.057.633-.313 1.514-.262.83-.651 1.61a3 3 0 0 0-.148.264q-.466.762-1.06 1.43-.556.567-1.137 1.111a.06.06 0 0 0 .01.064q.269.278.403.635a.05.05 0 0 1 0 .037l-.011.021q-.007.04-.037.016a.07.07 0 0 0-.048-.016l-.317-.513a.9.9 0 0 0-.233-.244.06.06 0 0 1 .01-.053c.302-.29.62-.566.91-.868a8 8 0 0 0 1.573-1.98 6.7 6.7 0 0 0 .768-2.298l.111-.714q.098-.796.085-1.567a.95.95 0 0 1 .037-.408"/>
    <path fill="url(#TIN__b)" d="m13.598 8.03-.01-1.79a.063.063 0 0 0-.064-.058l-1.779.005a12 12 0 0 0-3.79.55c-.053.016-.07.053-.085.096l-.027.053-.031.053c-.053.095-.112.185-.149.286a6 6 0 0 1-.153.391.03.03 0 0 0 .016.022l.016.005.275.01 3.997-.005c.18 0 .376 0 .386.233l-.005 1.377.005 2.419v1.985c0 .16-.09.265-.248.26a5 5 0 0 0-.424-.016.73.73 0 0 1-.672-.381q-.19-.325-.371-.673c-.37-.942-.408-1.97-.333-2.97 0 0-1.684-.01-1.906 0q.901 1.726 1.943 3.373c.18.301.36.603.529.905q.23.399.476.789l.71 1.122q.137.206.042.35.023.07.117.132a8 8 0 0 0 .545-1.043c.042-.159.074-.223.1-.212.059-.053.122-.053.186.016a.7.7 0 0 1 .1.117q.245.333.477.677a.064.064 0 0 0 .08-.037l.01-.032a.1.1 0 0 0 .01-.053l.027-4.6z"/>
    <path fill="url(#TIN__c)" d="M18.03 13.842c.18-.45.296-.92.36-1.408q.04-.325.01-.604a1.4 1.4 0 0 0-.106-.386 6.6 6.6 0 0 0-.55-1.022c-.016-.02-.022-.016-.027.01a35 35 0 0 1-.074 1.255q-.057.634-.312 1.515-.263.829-.651 1.61a3 3 0 0 0-.149.264q-.465.761-1.059 1.43-.557.566-1.138 1.11a.06.06 0 0 0 .01.064q.269.279.403.636a.05.05 0 0 1 0 .037l-.01.021q-.007.04-.038.016a.07.07 0 0 0-.047-.016c.069.111.153.159.243.148a.53.53 0 0 0 .313-.185c.206-.265.444-.503.688-.747l.381-.391a7.1 7.1 0 0 0 1.165-1.695q-.064-.056-.048-.105.038-.085.064-.175l.016-.016.015-.01.011-.016a5 5 0 0 1 .228-.524q.126-.254.301-.816"/>
    <path fill="url(#TIN__d)" d="M6.178 9.258q-.054.667.106 1.398c.105.476.211.825.301 1.037.353.808.81 1.567 1.36 2.255.207.255.33.503.372.758.058.301.11.54.164.725a2.3 2.3 0 0 0 .211.492l.053.074c.1.149.202.297.323.424.445.482.91.942 1.409 1.376a1 1 0 0 0 .132.106c.053.043.111.085.159.133.074.068.159.127.238.185l.122.085.148.1q.15.078.286.18.024.014.032.037c0 .01.01.021.02.027.011.016.027.016.043.016l.042-.022v.016a.2.2 0 0 0-.058.053q-.12.183-.238.27c-.074.053-.143.085-.201.08q-.16-.148-.328-.28a4 4 0 0 1-.329-.276 52 52 0 0 0-.974-.88l-1.022-.889q-.69-.555-1.323-1.175a3.5 3.5 0 0 1-.318-.36.1.1 0 0 1-.016-.047c.106-.318.392-.657.334-1.123a2.6 2.6 0 0 0-.228-.54 21 21 0 0 1-.667-1.34 5.5 5.5 0 0 1-.423-1.376c-.26-1.477-.032-3.166.947-4.357l.19-.243q.018-.025.043-.01h.016c.005.01.01.015 0 .02a7.6 7.6 0 0 0-.926 3.07"/>
    <defs>
        <linearGradient id="TIN__a" x1="9.655" x2="14.171" y1="3.482" y2="20.275" gradientUnits="userSpaceOnUse">
            <stop stop-color="#FEFEFC"/>
            <stop offset=".54" stop-color="#BFC9D3"/>
            <stop offset="1" stop-color="#727073"/>
        </linearGradient>
        <linearGradient id="TIN__b" x1="11.999" x2="11.999" y1="3" y2="21" gradientUnits="userSpaceOnUse">
            <stop stop-color="#60BAC5"/>
            <stop offset="1" stop-color="#344F56"/>
        </linearGradient>
        <linearGradient id="TIN__c" x1="12.005" x2="12.005" y1="3.005" y2="20.997" gradientUnits="userSpaceOnUse">
            <stop stop-color="#4D5E60"/>
            <stop offset="1" stop-color="#2C393D"/>
        </linearGradient>
        <linearGradient id="TIN__d" x1="8.757" x2="8.757" y1="6.16" y2="19.062" gradientUnits="userSpaceOnUse">
            <stop stop-color="#589EA4"/>
            <stop offset="1" stop-color="#29474C"/>
        </linearGradient>
    </defs>
</svg>
