<svg xmlns="http://www.w3.org/2000/svg" width="24" height="24" fill="none" viewBox="0 0 24 24">
    <path fill="url(#TITAN__a)" fill-rule="evenodd" d="M17.895 12a5.895 5.895 0 0 1-10.27 3.95c-.412.09-.793.164-1.131.222-.775.085-2.358-.007-2.487-1.054-.117-.954 1.231-2.186 2.105-2.822a5.895 5.895 0 0 1 10.11-4.41c4.128-.661 4.062 1.013 3.51 1.937-.479.675-1.111 1.295-1.846 1.862q.009.157.009.315M12 16.21c-.893 0-1.72-.277-2.4-.75q1.618-.45 3.186-1.052l-.766-1.441-.28.127c-.925.433-3.433 1.347-6.08 1.547.417-.385 1.378-1.211 2.208-1.663l.034-.007a4.21 4.21 0 0 1 8.178-2.013q-.755.474-1.555.868l-.439.2.421 1.653q.826-.382 1.618-.832A4.21 4.21 0 0 1 12 16.211m5.523-6.274a6 6 0 0 0-.272-.616c.351-.038.826-.086 1.067-.097a8 8 0 0 1-.795.713" clip-rule="evenodd"/>
    <path fill="url(#TITAN__b)" fill-rule="evenodd" d="M13.263 14.949a1.685 1.685 0 1 0 0-3.37 1.685 1.685 0 0 0 0 3.37m0-.842a.842.842 0 1 0 0-1.684.842.842 0 0 0 0 1.684" clip-rule="evenodd"/>
    <defs>
        <linearGradient id="TITAN__a" x1="4.507" x2="20.086" y1="15.546" y2="8.694" gradientUnits="userSpaceOnUse">
            <stop stop-color="#04D9FF"/>
            <stop offset=".782" stop-color="#445CFE"/>
            <stop offset="1" stop-color="#7269EF"/>
        </linearGradient>
        <linearGradient id="TITAN__b" x1="11.311" x2="15.138" y1="14.343" y2="12.602" gradientUnits="userSpaceOnUse">
            <stop stop-color="#05D5FF"/>
            <stop offset="1" stop-color="#3A5EF4"/>
        </linearGradient>
    </defs>
</svg>
