<svg xmlns="http://www.w3.org/2000/svg" width="24" height="24" fill="none" viewBox="0 0 24 24">
    <path fill="#EACB7D" fill-rule="evenodd" d="m9.516 5.47 1.334-2.746a1.275 1.275 0 0 1 2.3 0l1.334 2.746c-.473 1.281-1.407 2.154-2.482 2.155H12c-1.076 0-2.011-.873-2.484-2.155m-.508 1.045L7.865 8.866a7.5 7.5 0 0 1 2.162-.979 4.7 4.7 0 0 1-1.019-1.372m-4.483 9.227L3.6 17.644a3.1 3.1 0 0 1 1.611.673 7.5 7.5 0 0 1-.686-2.575M5.415 22h-2.56c-.632 0-1.045-.67-.766-1.244l1.216-2.506a2.5 2.5 0 0 1 2.446 2.514A2.5 2.5 0 0 1 5.415 22m.7 0h2.883a7.5 7.5 0 0 1-2.72-2.026A3.13 3.13 0 0 1 6.114 22m8.888 0h2.257a3.1 3.1 0 0 1-.26-1.285A7.5 7.5 0 0 1 15.002 22m5.726-3.676 1.182 2.432c.279.573-.134 1.244-.766 1.244h-3.186a2.5 2.5 0 0 1-.194-2.078q.425-.51.756-1.09a2.5 2.5 0 0 1 2.208-.508m-.333-.688-.921-1.894a7.5 7.5 0 0 1-.48 2.093 3.1 3.1 0 0 1 1.4-.199m-4.262-8.77a7.5 7.5 0 0 0-2.161-.979 4.7 4.7 0 0 0 1.019-1.372zm-3.51 12.478a6.3 6.3 0 0 1-1.25 0V12H6.587a6.3 6.3 0 0 1 .95-1.25h8.927c.368.375.687.795.95 1.25h-4.788zm.626-.094a6.252 6.252 0 0 0 4.48-8.625h-4.48zM12 8.875a6.22 6.22 0 0 1 3.75 1.25h-7.5A6.22 6.22 0 0 1 12 8.875m-5.73 3.75a6.253 6.253 0 0 0 4.48 8.625v-8.625z" clip-rule="evenodd"/>
</svg>
