<svg xmlns="http://www.w3.org/2000/svg" width="24" height="24" fill="none" viewBox="0 0 24 24">
    <path fill="#92FFBE" fill-rule="evenodd" d="M6.902 7.542C8.03 6 11.325 3.242 15.463 4.548c4.14 1.307 5.416 5.12 5.537 6.864-.252-1.297-1.535-4.013-4.65-4.503 1.688 1.232 4.637 4.756 2.919 8.995-1.719 4.238-5.256 5.16-6.81 5.093 1.257-.1 3.926-1.147 4.548-4.545-.861 1.21-3.378 3.567-6.558 3.311-3.976-.32-6.946-3.014-7.449-6.76.206 1.188 1.408 3.659 4.57 4.042-1.272-.783-3.724-3.348-3.36-7.33.458-4.98 5.096-6.647 7.153-6.715-1.413.224-4.283 1.445-4.461 4.542M12 15.176a3.175 3.175 0 1 0 0-6.35 3.175 3.175 0 0 0 0 6.35" clip-rule="evenodd"/>
</svg>
