<svg xmlns="http://www.w3.org/2000/svg" width="24" height="24" fill="none" viewBox="0 0 24 24">
    <path fill="url(#TRAC__a)" d="M12 3v4.477a4.522 4.522 0 1 0 3.46 7.437l3.425 2.88A8.96 8.96 0 0 1 12 21a9 9 0 0 1 0-18m4.247 10.564 4.202 1.552c-.186.49-.405.962-.675 1.418l-3.865-2.256q.2-.343.338-.714m4.612-3.128q.142.762.141 1.564h-4.478c0-.27-.022-.529-.067-.788l4.41-.776zm-3.048-5.304c.404.337.77.709 1.108 1.114l-3.443 2.863a4.6 4.6 0 0 0-.551-.563z"/>
    <defs>
        <linearGradient id="TRAC__a" x1="4.861" x2="19.245" y1="7.111" y2="16.249" gradientUnits="userSpaceOnUse">
            <stop stop-color="#4CCB88"/>
            <stop offset="1" stop-color="#30C7B4"/>
        </linearGradient>
    </defs>
</svg>
