<svg xmlns="http://www.w3.org/2000/svg" width="24" height="24" fill="none" viewBox="0 0 24 24">
    <path fill="url(#TRAC__a)" d="M12 2v4.975a5.025 5.025 0 1 0 3.844 8.262l3.806 3.2A9.96 9.96 0 0 1 12 22a10 10 0 0 1 0-20m4.719 11.737 4.668 1.725a10 10 0 0 1-.75 1.575l-4.293-2.506a5 5 0 0 0 .375-.794m5.125-3.475Q22 11.109 22 12h-4.975c0-.3-.025-.588-.075-.875l4.9-.863zM18.456 4.37c.45.375.856.787 1.231 1.237l-3.825 3.181a5 5 0 0 0-.612-.625z"/>
    <defs>
        <linearGradient id="TRAC__a" x1="4.068" x2="20.05" y1="6.568" y2="16.721" gradientUnits="userSpaceOnUse">
            <stop stop-color="#4CCB88"/>
            <stop offset="1" stop-color="#30C7B4"/>
        </linearGradient>
    </defs>
</svg>
