<svg xmlns="http://www.w3.org/2000/svg" width="24" height="24" fill="none" viewBox="0 0 24 24">
    <path fill="#2CABE2" d="M12 19.999A8 8 0 1 0 12 4a8 8 0 0 0 0 15.999"/>
    <path fill="#040303" fill-rule="evenodd" d="m13.614 6.794.898-.32c.283-.296.377-.635.269-1.02q-.037-.141-.18-.104l-.964.254a.2.2 0 0 0-.113.066 3.8 3.8 0 0 0-.49.65q-.259.434-.187-.067c.094-.724-.16-1.26-.777-1.6q-.071-.034-.127.015-.122.106-.263.169c-.546.245-.546 1.092-.5 1.576q.024.311-.121.038a3.4 3.4 0 0 0-.466-.659.75.75 0 0 0-.33-.216l-.795-.23c-.155-.043-.245.018-.259.178-.023.263.02.522.137.776.037.08.014.1-.061.057a2.12 2.12 0 0 0-1.62-.259.15.15 0 0 0-.103.198c.066.169.109.338.123.517.01.179.131.283.226.372.07.056.127.108.131.17v.042a.07.07 0 0 1-.066.047l-.023-.01a1.8 1.8 0 0 0-1.285-.033.146.146 0 0 0-.084.212l.31.565a.15.15 0 0 0 .09.07c.028.01.047.024.047.047q.025.072-.047.085a2.27 2.27 0 0 0-1.356.621.08.08 0 0 0 .005.07l.028.024.645.363c.094.047.085.08-.019.094l-.165.014A.23.23 0 0 0 6 9.622q-.122.12-.263.189a.3.3 0 0 0-.113.084l-.49.622a.112.112 0 0 0 .047.174c.31.14.626.202.941.174q.245-.02.038.108-.388.239-.833.47a.2.2 0 0 0-.113.184c-.004.132-.066.226-.127.325-.047.07-.094.14-.117.235a.97.97 0 0 0 .08.725.12.12 0 0 0 .14.06q.317-.098.64-.14.157-.017.038.09c-.442.375-.578.94-.593 1.523 0 .33.118.594.292.862.061.094.127.094.188 0a.5.5 0 0 1 .16-.165q.127-.07.127.07c0 .876.033 1.86.805 2.415.047.033.075.018.094-.033a1.66 1.66 0 0 1 .518-.904c.244-.198.41-.461.49-.8a.13.13 0 0 0-.038-.132l-.038-.037q-.065-.058.019-.094l.357-.141a.056.056 0 0 1 .07.028q.009.014 0 .033l-.206 1.157.132-.028q.183-.098.127-.254a.26.26 0 0 1-.014-.122l.051-.424a.14.14 0 0 1 .08-.103l.052-.024c.07-.033.075-.075.024-.127a.26.26 0 0 1-.071-.113c-.01-.047 0-.075.047-.094a.17.17 0 0 1 .188.047c.07.08.141.193.221.348a.2.2 0 0 1 .024.132q-.037.19.15.296.105.058.048-.047l-.1-.183c-.032-.057-.013-.09.048-.094l.146-.024q.022-.002.023-.023l.01-.062q.006-.05-.043-.037l-.17.033q-.085.014-.093-.07a.8.8 0 0 1 .01-.344c.009-.057.046-.07.093-.052l.297.099q.721.153 1.42.094a7 7 0 0 0 1.657-.362l2.122.094a.07.07 0 0 1 .052.025.08.08 0 0 1 .019.055c0 .01 0 .023-.01.033-.228.349-.37.747-.414 1.162q.198-.099.34-.226c.06-.056.051-.08-.034-.061a.5.5 0 0 0-.094.028q-.14.058-.061-.075a.2.2 0 0 1 .057-.061.17.17 0 0 0 .07-.113q.044-.311.264-.607c.023-.033.051-.038.09-.028.126.046.197.15.201.305q.009.094.066.02l.146-.203a.1.1 0 0 1 .047-.038.1.1 0 0 1 .057 0l.051.01c.047.009.066.037.047.084l-.056.156a.084.084 0 0 0 .047.108q.19.084.099.282c-.024.056-.01.094.052.108q.121.036.174.156.042.112.07 0a.14.14 0 0 0-.047-.151.16.16 0 0 1-.047-.108l-.028-.494c-.005-.07.028-.104.104-.09l.094.024q.121.023.122.15c0 .349.136.669.419.96h.047q.07-.007.103.047c.221.283.358.575.414.866.01.066.043.076.095.043.743-.494.86-1.506.818-2.363-.004-.155.047-.188.174-.094a.6.6 0 0 1 .142.174c.037.066.084.071.131.014q.325-.364.34-.894a1.87 1.87 0 0 0-.556-1.477q-.183-.177.07-.141c.189.018.386.066.58.14.046.02.084.006.103-.042.23-.465.164-.86-.188-1.176-.048-.047-.048-.09.014-.122a.04.04 0 0 0 .015-.014l.008-.02q.022-.07-.047-.107a12 12 0 0 0-.753-.443q-.393-.21.052-.188c.298.004.59-.074.847-.226a.094.094 0 0 0 0-.113q-.199-.244-.405-.517c-.188-.24-.456-.377-.743-.47-.08-.03-.085-.062-.01-.104l.612-.34a.095.095 0 0 0 .043-.113.1.1 0 0 0-.024-.037 2.46 2.46 0 0 0-1.322-.588.07.07 0 0 1-.01-.103c.188-.226.32-.471.41-.73a.07.07 0 0 0 0-.047.07.07 0 0 0-.033-.033c-.428-.221-.777-.15-1.224-.066l-.06.014q-.22.042-.072-.122l.067-.066c.094-.094.173-.179.188-.33q.037-.343.174-.663a.12.12 0 0 0-.047-.084 2.08 2.08 0 0 0-1.868.343l-.692 1.068q-.042.069-.113.038l-.094-.038q-.098-.04-.047.047a.2.2 0 0 0 .16.104.08.08 0 0 1 .06.047.08.08 0 0 1 0 .075q-.188.402-.526.381-.19-.057.099.217-.029.106.066.094l.578-.758a.1.1 0 0 0 .02-.047q0-.031-.02-.056l-.018-.028c-.033-.043-.033-.08 0-.123l.687-.94.404-.283a.05.05 0 0 1 .04-.001.05.05 0 0 1 .026.029l.01.047a.1.1 0 0 1-.02.08q-.112.12-.183.254-.054.097.038.033a.4.4 0 0 0 .16-.235.2.2 0 0 1 .066-.108q.424-.354.997-.184c.07.024.094.066.061.137l-.014.042c-.066.155-.14.325-.291.405a5 5 0 0 0-.443.258q-.017.014-.004.033.014.028.042.02.232-.091.438-.19c.047-.027.089-.013.117.034l.019.038v.014a1.2 1.2 0 0 1-.31.225.17.17 0 0 0-.085.1.35.35 0 0 1-.254.24l-.58.22q-.062.024-.056.095.02.338-.419.31a.07.07 0 0 0-.075.047.04.04 0 0 0 0 .043q.016.02.038.028l.25.08q.078.028.122-.043a.62.62 0 0 1 .291-.258.17.17 0 0 0 .095-.095.32.32 0 0 1 .235-.22q.126-.044.075.089l-.07.16q-.035.089.037.023a1 1 0 0 0 .259-.348q.05-.113.108-.127c.057-.014.118.024.174.108a.97.97 0 0 1 .504-.235q.354-.056.659.052a.1.1 0 0 1 .063.05.1.1 0 0 1 .007.081 1.3 1.3 0 0 1-.287.523.15.15 0 0 1-.127.047 1 1 0 0 1-.212-.047.2.2 0 0 0-.235.075q.15.042.264.127c.06.047.056.085-.024.108-.165.047-.344.02-.546-.084q-.22-.113-.07.084a.4.4 0 0 0 .188.137q.093.028.01.085l-.293.178.047.047a.86.86 0 0 0 .415-.14.8.8 0 0 1 .226-.123q.514-.157.258.033c.532-.141.965-.047 1.294.306q.049.05-.01.094-.45.354-1.128.25l.31.29q.037.03-.005.057l-.051.033h-.029l-.508-.348q-.085-.055-.051.038c.084.273.376.339.668.41l.066.018q.818.014 1.27.71c.028.043.019.071-.023.095-.382.188-.829.131-1.341-.18q.084.143.098.222c.019.085 0 .094-.066.037a2 2 0 0 1-.202-.225c-.047-.062-.08-.052-.09.028a.2.2 0 0 0 .024.118q.05.092-.056.094l-.15-.005c-.396 0-.876-.005-1.102-.221a.4.4 0 0 0-.122.028l-.047.047c.098.254.07.414-.085.49q-.057.028-.07-.033-.02-.057-.076-.057a.4.4 0 0 1-.155.094c-.043.038-.052.075-.033.123a.2.2 0 0 1 .041.175.14.14 0 0 1-.027.05q-.12.171-.184-.075-.184.064-.22-.085c-.038-.174-.133-.277-.274-.305a.26.26 0 0 1-.146-.095 2.3 2.3 0 0 0-.87-.602.09.09 0 0 1-.061-.099c.005-.07.047-.14.127-.202q-.015-.103.141-.136-.027-.268-.273-.273c-.047 0-.075.033-.07.098.046.043.056.085.037.142q-.043.099-.15.028l-.02.188c-.004.07-.046.108-.122.104-.094-.005-.164-.047-.197-.127a.12.12 0 0 1 0-.113l.06-.109a.09.09 0 0 0 0-.094.08.08 0 0 0-.046-.033c-.033-.014-.057 0-.07.033q-.03.076-.085.09-.084.31-.302.23-.183-.07-.127-.282c-.018-.038-.066-.047-.146-.042a.76.76 0 0 1-.395.16q-.072.007-.094-.062-.036-.14.104-.216-.049-.15-.203-.118l-.014.207q-.002.093-.023.207-.015.093-.057.127a.13.13 0 0 1-.094.029q-.064-.008-.08-.071c-.014-.085-.08-.141-.188-.165a.4.4 0 0 0-.273-.103l.165.259q.05.077-.029.127-.184.12-.306.01a.15.15 0 0 1-.046-.086l-.024-.16c-.024.024-.047.029-.066.024-.047-.01-.056-.038-.042-.08a.4.4 0 0 1 .117-.141c-.066-.085-.15-.09-.268-.01a3 3 0 0 1-.296.18.13.13 0 0 1-.123 0 .55.55 0 0 0-.273-.067.64.64 0 0 1-.4.353c-.244.094-.296.174-.14.25q.231-.1.512.089c.038.023.076.033.123.023a.26.26 0 0 0 .197-.178q.029-.086.099-.024c.066.057.141.07.216.043q.129-.056.024-.245a.4.4 0 0 1-.16.028q-.08-.008-.047-.08c.033-.094.104-.132.202-.103q.072.013.052.117c.08.061.122.127.118.188q-.002.071-.066.1a3.7 3.7 0 0 0-.941.663q-.092.085-.156.028-.073-.1-.16-.038-.001.058-.037.08a.136.136 0 0 1-.174-.01q-.114-.105 0-.281a.3.3 0 0 0 .01-.16c-.02-.052-.057-.071-.11-.047-.08.023-.112.108-.093.24a.43.43 0 0 1-.01.268c-.014.047-.047.066-.094.047a.27.27 0 0 1-.16-.179.07.07 0 0 0-.066 0l-.023.056q-.037.099-.066 0a.5.5 0 0 1-.005-.254.73.73 0 0 0-.22-.31.24.24 0 0 1 0 .197.12.12 0 0 1-.11.08l-1.096.085c-.07.005-.094-.024-.056-.085a.3.3 0 0 0 .033-.103c.01-.094-.019-.108-.08-.033l-.17.197a.1.1 0 0 1-.047.029c-.023.005-.032 0-.042-.019v-.023l.132-.584q-.177.458-.508.555-.423.121-.796-.019c-.094-.032-.108-.094-.051-.169a1.34 1.34 0 0 1 1.195-.612l.438-.146a.17.17 0 0 1 .136.005.45.45 0 0 0 .273.057c.202-.02.395.018.583.103a.44.44 0 0 1 .31 0c.043.019.067 0 .076-.037l.047-.217c-.211.202-.41.23-.588.075a.06.06 0 0 1-.019-.075l.02-.019q.155-.133.14-.16l-.023-.028h-.01a1.03 1.03 0 0 1-.743.235c-.075 0-.085-.028-.024-.075a.8.8 0 0 0 .189-.226l-.005-.01-.038-.032c-.019-.024-.037-.02-.056 0a.97.97 0 0 1-.541.339c-.08.018-.095 0-.029-.057l.541-.494a.2.2 0 0 1 .217-.033c.198.094.41.15.626.174q.056.001.056-.047v-.038c0-.009 0-.018-.014-.018q-.443 0-.837-.207l-.42.357a.4.4 0 0 1-.404.066l-.485-.188c-.145-.061-.164-.141-.047-.254q.403-.39 1.214-.264.608.072 1.224.447.113.071.08-.056l-.019-.052a.12.12 0 0 0-.104-.094 1.3 1.3 0 0 1-.545-.216c-.052-.038-.047-.066.01-.095a1 1 0 0 0 .305-.188q.083-.083-.024-.047l-.63.17a.07.07 0 0 1-.094-.076l.004-.052c0-.028.015-.047.033-.065a.1.1 0 0 1 .062-.033.6.6 0 0 0 .367-.189l-.683.057a.13.13 0 0 1-.127-.07l-.263-.457a.094.094 0 0 1 .014-.113.1.1 0 0 1 .033-.019 1.31 1.31 0 0 1 1.233.15c.094-.056.258.048.47.302.075.085.094.075.047-.028l-.028-.071c-.028-.075-.005-.094.07-.07a.34.34 0 0 1 .18.15c.042.061.08.118.174.132a.2.2 0 0 1 .127.094q.154.267.414.174c.202-.075.197-.118-.02-.141a.52.52 0 0 1-.376-.193q-.054-.072.02-.122a.05.05 0 0 0 .023-.043c0-.047-.029-.07-.076-.075q-.605-.055-.809-.457l-.301-.282c-.047-.042-.038-.07.023-.094a.08.08 0 0 1 .066.014q.146.097.316.141a.05.05 0 0 0 .033-.014l.004-.014.01-.042c0-.014 0-.02-.014-.024q-.546-.225-.673-.635a.11.11 0 0 1 .047-.127.1.1 0 0 1 .037-.019c.377-.094.838-.141.989.32.028.07.051.07.08 0 .028-.066.014-.132-.038-.188a.03.03 0 0 1-.01-.024l.005-.018.019-.015h.024l.108.062a.14.14 0 0 1 .084.122c.024.273-.004.527-.094.757.49.391.904.833 1.252 1.327.038.029.061.02.08-.028a8 8 0 0 0-.682-.847 1.4 1.4 0 0 0-.278-.235.8.8 0 0 1-.235-.245.09.09 0 0 1-.01-.084q.099-.26.057-.542c0-.047.014-.065.061-.06l.056.004a.06.06 0 0 1 .048.047.42.42 0 0 0 .188.282.5.5 0 0 1 .127.127l.306.48a.25.25 0 0 1 .033.207l-.014.047a.11.11 0 0 0 .032.113q.213.197.353.47a.4.4 0 0 0 .212.199q.072.034.094.113.03.119-.06.216c-.01.047.05.103.187.155q-.025.03.047.01c.066 0 .094-.043.1-.132l-.227-.438q-.05-.09.057-.099l.146-.014q.035 0 .028-.033a.1.1 0 0 0-.019-.037c-.344-.024-.612-.118-.753-.452q-.03-.08.061-.094a.8.8 0 0 0 .264-.07q.027-.014.019-.048a.02.02 0 0 0-.014-.01q-.023-.014-.207.03a.15.15 0 0 1-.165-.071l-.574-.918c-.043-.066-.024-.085.047-.061l.8.273c.056.019.08.051.07.108a.2.2 0 0 0 .01.094c.01.019.014.014.019 0l.207-.781q.028-.088.084-.019c.17.193.254.395.264.602a.17.17 0 0 1-.061.137l-.029.023q-.085.068.02.095.055.014.088-.029c.123-.15.189-.127.189.066q-.001.402.146.777.015.036.052.023l.037-.005c.024-.009.028-.018.019-.047a.45.45 0 0 1-.024-.282.25.25 0 0 0-.033-.188c-.131-.217-.122-.39.029-.532q.028-.027 0-.047c-.141-.094-.16-.226-.066-.4a.16.16 0 0 0-.01-.16l-.103-.155c-.057-.085-.033-.118.066-.09a.95.95 0 0 1 .654.565.55.55 0 0 1 .16-.202 2.7 2.7 0 0 1 .423-.325q.34-.178.113.132a.4.4 0 0 0-.047.197q-.014.07.028.142c.066.117.047.22-.047.305-.028.033-.033.066-.004.104.094.132.094.273.014.423a.3.3 0 0 0-.038.118q-.001.044.019.08a.14.14 0 0 1-.005.141.8.8 0 0 0-.122.363.18.18 0 0 1-.066.127.64.64 0 0 1-.245.136l.156.15c.033.034.037.067 0 .104-.014.019-.047.028-.085.014a1.4 1.4 0 0 0-.24-.042l-.268.146q-.019.05.103.136.15-.154.353.038l.188-.01c.219-.59.37-1.205.452-1.83a.14.14 0 0 1 .08-.108.1.1 0 0 0 .033-.024.11.11 0 0 0 .038-.084q.007-.318.324-.551l.23-.33c.067-.093.086-.089.053.024a.4.4 0 0 0-.014.16c.009.07.037.08.08.019a.5.5 0 0 0 .094-.287q0-.085.084-.113l.753-.245q.1-.036.109.076.027.544-.311.884a.24.24 0 0 1-.15.07q-.416.03-.612.311m-.636 4.904c.014-.024.01-.043 0-.057q-.069-.079.024-.122l.263-.118a3.2 3.2 0 0 1 1.12-.367l.014-.021a.05.05 0 0 0-.014-.05c-1.6-1.425-3.816-1.157-5.176.424q-.092.103.047.094a2.7 2.7 0 0 1 1.012.085c.099.028.184.066.259.103.16.071.3.141.546.076a3.5 3.5 0 0 1 1.783 0c.052.019.094 0 .122-.047" clip-rule="evenodd"/>
    <path fill="#B65042" d="M11.586 5.684a.24.24 0 0 0-.127-.155.19.19 0 0 1-.061-.282c.358-.466.988-.593 1.19.094.015.047 0 .09-.028.127l-.066.08c-.037.047-.033.085.024.113q.036.02.066-.01c.037-.042.07-.037.094.005a.1.1 0 0 1 .019.094.1.1 0 0 1-.033.047l-.602.433c-.043.033-.085.028-.127 0l-.612-.461a.05.05 0 0 1-.021-.049l.007-.017.047-.052q.02-.026.047-.004l.108.084q.112.093.075-.047m2.028 1.11a.9.9 0 0 1-.131.316c-.057.08-.076.07-.057-.019a1 1 0 0 1 .066-.25.2.2 0 0 0 0-.14l-.193-.476.23-.329c.066-.094.085-.09.052.024a.4.4 0 0 0-.014.16c.01.07.038.08.08.018a.5.5 0 0 0 .094-.287q0-.084.085-.113l.753-.244q.1-.037.108.075.028.545-.31.885a.24.24 0 0 1-.15.07c-.279.02-.48.123-.613.31"/>
    <path fill="#CC614F" d="M10.38 5.956a.1.1 0 0 0 .02-.047c.009-.037.032-.047.06-.023.212.132.066.574-.046.739a.1.1 0 0 1-.057.037.1.1 0 0 1-.07-.01 1.1 1.1 0 0 0-.382-.15c-.442-.085-.597-.55-.564-.955a.09.09 0 0 1 .051-.07l.033-.005c.273.028.777.131.833.46.024.114.062.123.123.024"/>
    <path fill="#CAC5B8" d="M12.165 8.282a.1.1 0 0 1-.071-.014q-.064-.056-.01-.113c.066-.075.175-.15.217-.226.024-.047 0-.085-.08-.094a.18.18 0 0 0-.202.113.93.93 0 0 0-.024.565l-.268.146a1.03 1.03 0 0 1-.612.578c-.117.043-.15.005-.108-.103.056-.141.188-.221.386-.245a.15.15 0 0 0 .113-.08q.05-.085-.02-.15c.128-.052.213-.127.246-.226a.19.19 0 0 0-.047-.221 1 1 0 0 0-.184-.142q-.121-.07-.094.07l.08.519a.178.178 0 0 1-.259-.109l-.17-.527a.13.13 0 0 0-.103-.094q-.091-.022-.056.061a.3.3 0 0 0 .094.137c-.005.08-.094.183-.17.16-.338-.024-.555-.193-.691-.527-.024-.052 0-.085.056-.094a.8.8 0 0 0 .264-.07q.028-.014.014-.048a.02.02 0 0 0-.01-.01q-.022-.014-.207.029a.15.15 0 0 1-.164-.07l-.574-.918c-.043-.066-.024-.085.047-.061l.8.272c.056.02.08.052.07.109a.2.2 0 0 0 .01.094c.01.019.014.014.018 0l.208-.781q.028-.087.084-.02c.17.194.254.396.264.603a.17.17 0 0 1-.061.137l-.029.023c-.056.047-.051.075.02.094q.054.014.089-.028c.122-.15.188-.127.188.066q-.001.402.146.776.016.037.051.024l.038-.005c.019-.01.028-.019.019-.047a.45.45 0 0 1-.024-.282.25.25 0 0 0-.033-.188c-.131-.217-.122-.391.029-.532q.027-.027 0-.047c-.142-.094-.16-.226-.066-.4a.16.16 0 0 0-.01-.16l-.103-.155c-.057-.085-.033-.118.066-.09a.96.96 0 0 1 .654.565q.014.001.005.037c0 .029-.02.038-.047.029q-.05-.02-.085.023-.057.063 0 .118.028.027.056.019.105-.015.07.084l-.065.17a.25.25 0 0 0-.01.131.31.31 0 0 1-.06.264c-.029.038-.029.08.009.118l.207.207c.066.06.094.047.103-.043 0-.084.038-.15.104-.202a.066.066 0 0 0-.005-.113q-.199-.127-.15-.343c.004-.024.023-.038.047-.033l.042-.005q.059-.037.005-.08-.143-.118-.095-.278c.085-.037.142-.094.16-.17.01-.046-.009-.07-.051-.084q-.072-.001-.08-.052a2.7 2.7 0 0 1 .423-.324q.34-.178.113.132a.4.4 0 0 0-.047.197q-.014.07.028.141c.066.118.047.221-.047.306q-.043.048-.01.104.141.197.02.423a.3.3 0 0 0-.038.118q-.001.043.019.08a.14.14 0 0 1-.005.141.8.8 0 0 0-.122.362.18.18 0 0 1-.066.127.64.64 0 0 1-.245.137z"/>
    <path fill="#CC614F" d="M8.941 7.21a.88.88 0 0 0-.72.08l-.3-.283c-.048-.043-.038-.07.023-.094a.08.08 0 0 1 .066.014q.146.096.315.14a.05.05 0 0 0 .033-.013l.005-.014.009-.043c0-.014 0-.018-.014-.023q-.544-.226-.673-.635a.12.12 0 0 1 .085-.146c.376-.094.837-.141.988.32q.04.105.08 0c.028-.066.014-.132-.038-.189a.03.03 0 0 1 0-.042l.014-.014h.024l.108.061a.14.14 0 0 1 .085.122 1.7 1.7 0 0 1-.094.758zm6.607.338a.7.7 0 0 0-.466-.4.1.1 0 0 0 .024-.047q.013-.07-.052-.047l-.047.019q-.246-.165-.273-.518l.405-.278a.05.05 0 0 1 .042-.004l.015.013.009.02.009.047a.1.1 0 0 1 0 .042.1.1 0 0 1-.019.038q-.112.12-.183.254-.056.098.037.033a.4.4 0 0 0 .16-.236.2.2 0 0 1 .066-.108q.425-.353.998-.183c.07.023.094.066.06.136-.07.165-.14.358-.305.447a5 5 0 0 0-.442.259q-.017.013-.005.033.014.027.042.019.233-.091.438-.188c.047-.029.09-.015.117.032l.02.038v.014a1.2 1.2 0 0 1-.311.226.17.17 0 0 0-.085.099.35.35 0 0 1-.254.24"/>
    <path fill="#CAC5B8" d="m13.299 6.225.188.475a.18.18 0 0 1 0 .141 1.6 1.6 0 0 0-.061.25c-.02.094 0 .094.056.018a.8.8 0 0 0 .127-.315l.904-.32.06.005-.69 1.068c-.03.047-.067.056-.114.038l-.094-.038q-.098-.04-.047.047a.2.2 0 0 0 .16.103.08.08 0 0 1 .061.048.1.1 0 0 1 0 .075c-.127.268-.259.73-.48.715l-.16.23c-.075.076-.598-.084-.626-.07q-.224.119.024.174.254.05.381.292.05.084-.047.056-.422-.147-.57-.395c.219-.591.37-1.205.452-1.83a.14.14 0 0 1 .08-.109.1.1 0 0 0 .033-.023.11.11 0 0 0 .038-.085q.007-.318.325-.55"/>
    <path fill="#8B8B8B" d="M12.14 6.344q.01.05.08.052c-.093.103-.126.188-.112.254-.028.108.005.197.099.277q.054.044-.005.08a.06.06 0 0 1-.038.005q-.044 0-.051.033c-.033.141.018.259.15.343a.066.066 0 0 1 .024.085.1.1 0 0 1-.019.028.26.26 0 0 0-.104.203c-.004.094-.037.103-.103.042l-.207-.207c-.038-.038-.038-.08-.01-.118a.33.33 0 0 0 .062-.263.25.25 0 0 1 .009-.132l.066-.17q.035-.098-.07-.084c-.02 0-.038 0-.053-.019q-.062-.056-.004-.117.035-.044.085-.024.044.014.046-.028c.005-.024 0-.038-.004-.043a.6.6 0 0 1 .16-.197"/>
    <path fill="#CAC5B8" d="M10.555 8.8q-.113.057-.155-.047a3 3 0 0 0-.132-.245 8 8 0 0 0-.682-.847 1.4 1.4 0 0 0-.278-.235.8.8 0 0 1-.235-.245.09.09 0 0 1-.014-.085.97.97 0 0 0 .06-.541q-.007-.07.062-.061l.057.005a.06.06 0 0 1 .047.047.42.42 0 0 0 .188.282.5.5 0 0 1 .127.127l.306.48a.25.25 0 0 1 .033.207l-.014.047a.11.11 0 0 0 .032.113q.213.197.353.47a.4.4 0 0 0 .212.198q.072.036.094.113.03.118-.06.217m4.179-2.245q.028.354.268.518-.141.253-.339.456a.032.032 0 0 0 0 .047h.005q.027.022.047-.005c.113-.15.235-.287.367-.423.235.075.386.207.47.4l-.583.221q-.063.022-.057.094.02.34-.418.31a.08.08 0 0 0-.076.048.04.04 0 0 0 0 .042q.016.021.038.028l.25.08q.078.03.122-.042a.62.62 0 0 1 .292-.259.17.17 0 0 0 .094-.094.32.32 0 0 1 .23-.221c.09-.028.113 0 .08.09l-.07.16c-.024.06-.01.065.037.023a1 1 0 0 0 .259-.348q.05-.114.108-.127c.057-.014.118.023.174.108q.07.106 0 .25a.094.094 0 0 0 .014.117q.119.142.358.179.15.042.264.127.09.071-.024.108c-.165.047-.343.019-.546-.085q-.22-.113-.07.085a.4.4 0 0 0 .188.136q.093.029.01.085l-.292.179q-.325-.078-.438.155a.2.2 0 0 1-.061.066.18.18 0 0 1-.189.005.2.2 0 0 1-.08-.066.23.23 0 0 0-.094-.07q-.135-.063-.051.065a.3.3 0 0 1 .047.17q0 .104-.085.047l-.226-.165a.07.07 0 0 0-.065-.006.07.07 0 0 0-.038.053.25.25 0 0 1-.146.202c-.066.033-.099.014-.108-.06a.16.16 0 0 0-.118-.142.12.12 0 0 1-.085-.118.38.38 0 0 1 .094-.277.2.2 0 0 1 .127-.066.2.2 0 0 0 .085-.028c.075-.038.075-.07-.01-.094a1.1 1.1 0 0 0-.545 0q-.03-.02-.01-.104a.48.48 0 0 0 .207-.376.13.13 0 0 1 .076-.109.8.8 0 0 0 .263-.254q.093-.153-.047-.047l-.353.268a.1.1 0 0 0-.037.08v.066a.2.2 0 0 1-.052.141q-.226.215-.367.5-.14.273-.203-.024l.062-.141.578-.758a.085.085 0 0 0 0-.099l-.018-.033q-.05-.061 0-.122l.687-.941z"/>
    <path fill="#040303" d="M15.082 7.153a4 4 0 0 0-.367.419q-.02.027-.047.005c-.019-.014-.019-.033 0-.047.127-.142.24-.287.334-.457l.047-.014c.047-.019.066 0 .057.042q-.002.032-.024.047z"/>
    <path fill="#CAC5B8" d="M8.941 7.209c.476.38.894.827 1.242 1.327.07.165.085.282.052.367a.066.066 0 0 1-.122 0l-.146-.353a.1.1 0 0 0-.028-.033.1.1 0 0 0-.043-.014l-.456-.019a.014.014 0 0 0-.014.01.014.014 0 0 0 .004.014c.34.15.466.32.377.494-.066.15-.075.447-.221.494-.15-.061-.127.306-.297.339-.014 0-.353.136-.62.357l-.448.141c-.212.207-.221-.489-.4-.644a.06.06 0 0 1-.019-.076l.02-.018q.155-.134.14-.16l-.023-.029h-.01a1.03 1.03 0 0 1-.743.236c-.075 0-.085-.029-.024-.076a.8.8 0 0 0 .189-.225l-.005-.01-.038-.033c-.019-.023-.037-.019-.056 0a.97.97 0 0 1-.541.339c-.08.019-.095 0-.029-.056l.541-.495a.2.2 0 0 1 .217-.033q.296.14.626.175.056 0 .056-.047v-.038c0-.01 0-.019-.014-.019q-.443 0-.837-.207l-.142-.282q.608.071 1.224.447.114.07.08-.057l-.019-.051a.12.12 0 0 0-.104-.095 1.3 1.3 0 0 1-.545-.216c-.052-.038-.047-.066.01-.094a1 1 0 0 0 .305-.188q.084-.084-.028-.047l-.626.169a.07.07 0 0 1-.094-.075l.004-.052a.11.11 0 0 1 .095-.099.6.6 0 0 0 .367-.188l.07-.094a.36.36 0 0 1 .207-.028q.07.007.057.08v.047c0 .042.023.056.06.047a.1.1 0 0 0 .048-.02q.043-.036.01-.093-.073-.13-.137-.16l-.108-.23c.094-.057.258.046.47.3.075.085.094.076.047-.028l-.028-.07c-.028-.076-.005-.095.07-.071.189.066.175.25.354.282a.2.2 0 0 1 .127.094q.154.269.414.174c.202-.075.197-.117-.02-.14a.52.52 0 0 1-.376-.194q-.054-.072.02-.122a.05.05 0 0 0 .023-.042c0-.047-.029-.07-.076-.076q-.605-.055-.809-.456a.88.88 0 0 1 .715-.08z"/>
    <path fill="#CC614F" d="m8 7.638.113.23c.626.622-.136.245-.244.132l-.071.085-.682.061a.13.13 0 0 1-.127-.07l-.264-.457a.094.094 0 0 1 .047-.132 1.31 1.31 0 0 1 1.233.15zm8.404.57a.55.55 0 0 1-.357-.18.094.094 0 0 1-.014-.117q.07-.142 0-.25a.96.96 0 0 1 .503-.235q.354-.056.659.052a.103.103 0 0 1 .07.132 1.3 1.3 0 0 1-.286.522.15.15 0 0 1-.127.047 1 1 0 0 1-.212-.047.2.2 0 0 0-.236.075"/>
    <path fill="#040303" d="M13.096 7.925a.1.1 0 0 0-.033-.052.1.1 0 0 1-.028-.122c.047-.113.33-.574.452-.635.066-.029.075-.015.038.047a1 1 0 0 1-.123.127c-.084.06-.315.555-.235.644q.023.031-.019.033c-.028 0-.047-.019-.047-.042z"/>
    <path fill="#9D4138" d="M13.938 8.408q-.31.302-.141.668c.023.047.047.042.061-.005.057-.174.085-.357.09-.564q.269-.072.545.004c.085.024.085.057.01.094a.2.2 0 0 1-.085.029.18.18 0 0 0-.122.066.38.38 0 0 0-.094.277c0 .057.023.094.08.118.07.023.113.07.117.141q.015.111.109.061c.089-.047.14-.113.145-.207a.06.06 0 0 1 .038-.047.06.06 0 0 1 .066 0l.226.165q.085.064.085-.047a.3.3 0 0 0-.048-.165c-.056-.085-.037-.104.057-.066a.3.3 0 0 1 .09.07.2.2 0 0 0 .178.09c.028 0 .061-.01.09-.028a.14.14 0 0 0 .06-.066c.076-.16.222-.207.438-.155l.047.047c-.066-.014-.122.01-.178.08-.02.056-.043.084-.057.09q-.422.083-.597.413a.46.46 0 0 0-.212.25.07.07 0 0 0 .018.07.07.07 0 0 0 .076.014.6.6 0 0 0 .155-.14c.31.244.819 1.204.447 1.387-.165.08-.555.781-.593.268q-.184.064-.22-.084c-.039-.174-.133-.278-.274-.306a.26.26 0 0 1-.146-.094c-.738-.847-2.809-1.506-4.964.136-.367.226-.744.104-1.068.029-.047-.066-.245-.654-.226-.716.339-.564 1.007-.917 1.67-1.284.085-.174-.047-.344-.376-.494l-.01-.01a.014.014 0 0 1 .005-.014h.01l.456.019a.08.08 0 0 1 .07.047l.142.353a.066.066 0 0 0 .103.035.07.07 0 0 0 .024-.035q.05-.12-.047-.367.053.042.08-.028c.047.08.094.164.131.244.033.07.08.085.156.047-.01.047.245.236.235.165.104-.033-.164-.579-.122-.63-.042-.038.245-.288.226-.344-.024-.056 0-.075.056-.066a.16.16 0 0 1 .104.094l.174.532c.037.113.146.165.258.108q.07.065.02.15a.15.15 0 0 1-.114.08c-.202.024-.329.109-.385.245q-.065.162.103.104a1 1 0 0 0 .617-.579c-.015.033.023.08.103.137a.2.2 0 0 0-.023.084q-.008.069.06.076l.236.018q.078.008.085-.07l-.005-.07.188-.01c.094.165.287.296.57.395q.097.028.047-.056a.54.54 0 0 0-.377-.292q-.255-.056-.028-.174a1 1 0 0 0 .15-.137l.288.15q.054.03.103-.013l.297-.283q-.028.114.066.1-.066.134-.062.14.063.298.202.024.142-.282.368-.494a.2.2 0 0 0 .056-.141v-.07a.1.1 0 0 1 .033-.08l.353-.264q.14-.114.047.042a.8.8 0 0 1-.264.254.13.13 0 0 0-.075.108.48.48 0 0 1-.207.377"/>
    <path fill="#8B8B8B" d="m12.164 8.281.155.155c.033.033.038.066 0 .104-.014.019-.047.028-.084.014a1.4 1.4 0 0 0-.24-.042.96.96 0 0 1 .023-.565.18.18 0 0 1 .202-.118q.122.022.08.094c-.046.08-.15.156-.216.231-.033.038-.033.075.01.113a.1.1 0 0 0 .07.019z"/>
    <path fill="#040303" d="m11.482 8.659-.08-.518q-.021-.141.099-.07.098.056.188.14a.21.21 0 0 1 .047.222.43.43 0 0 1-.25.226z"/>
    <path fill="#542F30" d="m8.659 8.349.936.611c.024.02.024.033.01.057l-.038.047c-.01.014-.019.019-.033.005l-.927-.66c-.01-.009-.01-.013 0-.023l.019-.028q.013-.022.033-.01"/>
    <path fill="#CAC5B8" d="M16.88 8.658c-.104.024-.146.109-.137.245l-.325.132a.3.3 0 0 1-.131.023L15.9 9.04a.11.11 0 0 1-.094-.071c.047-.07.108-.094.178-.08a.84.84 0 0 0 .41-.141.8.8 0 0 1 .226-.123q.514-.156.259.033"/>
    <path fill="#CC614F" d="m7.13 8.635.14.283-.418.357a.4.4 0 0 1-.405.066l-.484-.188c-.146-.061-.165-.141-.047-.254q.402-.39 1.214-.264"/>
    <path fill="#B65042" d="M17.035 9.309q-.12-.032-.268-.316c0-.056-.005-.084-.024-.094-.01-.132.033-.216.141-.235.527-.15.96-.047 1.29.301q.047.05-.01.094-.452.354-1.13.25"/>
    <path fill="#CAC5B8" d="M12.183 8.833c.005.028.01.047.005.07 0 .052-.033.076-.085.071l-.235-.019c-.047 0-.066-.028-.061-.075a.2.2 0 0 1 .023-.085q.15-.154.353.038"/>
    <path fill="#8B8B8B" d="M16.743 8.903q.03.006.024.09l-.574.32c-.047.023-.062.06-.033.108.047.085.16.15.259.155q.192.017.376.104l.033.033a.05.05 0 0 1-.005.042.09.09 0 0 1-.094.047 1.46 1.46 0 0 0-.955.216q-.029.015-.014.043.02.028.047.014a1.13 1.13 0 0 1 .908-.038c0 .033.014.061.038.094l-.8.118c-.127.019-.175.094-.156.235a.4.4 0 0 0-.122.024q-.015-.225-.179-.301l-.31-.541c.042-.085.028-.151-.038-.189q.175-.336.598-.418c.014 0 .037-.033.056-.095a.1.1 0 0 0 .028.048.14.14 0 0 0 .07.032l.387.015a.3.3 0 0 0 .132-.024l.329-.132z"/>
    <path fill="#CAC5B8" d="M16.767 8.987c.094.193.188.301.273.32l.306.292c.023.019.018.038-.005.056l-.052.033h-.028l-.508-.348q-.087-.054-.052.038c.094.292.414.348.73.423-.133.31-.16.518-.09.63q.086.143.094.222c.023.085 0 .094-.061.038a3 3 0 0 1-.203-.226c-.047-.061-.08-.052-.089.028a.2.2 0 0 0 .023.118q.05.092-.056.094c-.424-.01-.998.014-1.252-.226q-.03-.203.15-.23l.8-.123a.8.8 0 0 1 .33.038q.008.004.014-.005l.01-.038q.014-.034-.024-.042l-.362-.042a1.13 1.13 0 0 0-.908.037q-.028.015-.047-.014c-.01-.019 0-.033.014-.047.283-.177.619-.252.95-.212a.09.09 0 0 0 .095-.047c.014-.014.014-.028.009-.047a.1.1 0 0 0-.038-.028 1 1 0 0 0-.376-.104.34.34 0 0 1-.254-.155c-.029-.047-.015-.084.033-.108l.574-.32z"/>
    <path fill="#CAC5B8" d="M15.505 9.553a.4.4 0 0 0-.08.08.035.035 0 0 1-.042 0v-.019c.193-.24.588-.339.753 0q.03.072-.047.094a.44.44 0 0 1-.456-.155.09.09 0 0 0-.1-.024.1.1 0 0 0-.028.02zm-7.528.315-.01.202a2.7 2.7 0 0 0-.965-.009c-.014 0-.023.014-.023.028v.038c0 .01 0 .01.01.01.329 0 .832-.057 1.124.117l.028.094a.25.25 0 0 1 0 .203.12.12 0 0 1-.108.08l-1.096.084c-.071.005-.094-.023-.057-.085a.3.3 0 0 0 .033-.103c.01-.094-.019-.108-.08-.033l-.17.198a.1.1 0 0 1-.046.028c-.024.005-.033 0-.043-.019v-.023l.132-.584q-.267-.105-.16-.24l.438-.15a.17.17 0 0 1 .136.004c.094.047.16.066.273.057.202-.02.395.019.584.103"/>
    <path fill="#B65042" d="M17.43 9.806c.546.01.974.244 1.276.71.028.043.019.07-.024.094q-.571.285-1.34-.178-.11-.165.093-.626z"/>
    <path fill="#CC614F" d="M6.546 9.853c-.07.094-.019.17.16.236-.118.31-.287.493-.508.56a1.24 1.24 0 0 1-.796-.02c-.094-.032-.108-.094-.051-.169a1.34 1.34 0 0 1 1.195-.612z"/>
    <path fill="#040303" d="M7.967 10.07q.233.126.141.183c-.287-.174-.79-.113-1.12-.118-.004 0-.009 0-.009-.009v-.038q.002-.02.024-.028c.32-.054.646-.051.964.01m4.57.658c-.104-.014-.156-.094-.16-.258a.1.1 0 0 0-.057-.09c-.273-.141-.47-.094-.603.15a.23.23 0 0 0-.028.128l.043.343c-.043.09-.095.165-.156.236q-.054.05.02.065.409.07.733 0 .375-.083.758-.051.02-.002.028.019v.037q-.001.022-.024.024a6.6 6.6 0 0 1-2.197 0c-.024 0-.038-.02-.033-.047l.01-.038-.002-.005.002-.005h.009c.273.062.499.01.668-.15a.15.15 0 0 0-.012-.226.15.15 0 0 0-.077-.028 9 9 0 0 0-.706-.038v-.047q.002-.022.023-.023l.777-.08q.069-.006.075-.076v-.047a.18.18 0 0 0-.09-.113l-.051-.028q-.112-.058.014-.066a1 1 0 0 1 .146-.005.27.27 0 0 0 .141-.042.6.6 0 0 1 .207-.09.2.2 0 0 1 .15.024.8.8 0 0 0 .372.104q.05.001.057.052c0 .014 0 .028-.014.037a.14.14 0 0 0-.061.127.14.14 0 0 0 .08.118q.262.129.517.235.031.017.02.047l-.02.047c-.01.02-.023.028-.047.014l-.517-.254z"/>
    <path fill="#CAC5B8" d="M12.536 10.729q.035.113-.009.17-.112.002-.174.131a.095.095 0 0 1-.099.057l-.485-.02c-.047.024-.056 0-.037-.065l-.043-.344c0-.047.005-.089.028-.127q.193-.368.603-.15.056.027.056.09.006.239.16.258m-5.505 1.53q.049-.022.014.056l-.725.851-.418.212-.085.047q-.175-.014-.033-.113.223-.16.433-.329a.17.17 0 0 0 .066-.122.7.7 0 0 1 .051-.189.22.22 0 0 1 .118-.117c.499-.207.4-.57.55-.979q.045-.105-.032-.014c-.184.235-.127.47-.325.706q-.093.12-.122-.029a.44.44 0 0 1 .094-.371.05.05 0 0 0 .01-.047.04.04 0 0 0-.021-.018.04.04 0 0 0-.027-.001q-.114.014-.08.141.02.062-.052.075c-.014 0-.028 0-.042-.01a.07.07 0 0 1-.028-.037q-.121-.459-.659-.494-.163-.007-.01-.07a1.26 1.26 0 0 1 1.008.009q.162.07.042-.056a.9.9 0 0 0-.254-.189q-.148-.07.014-.103a.63.63 0 0 1 .419.052.05.05 0 0 0 .047 0 .05.05 0 0 0 .019-.033q.005-.041-.024-.062c-.047-.023-.047-.051-.01-.084q.227-.17.565-.057c-.098.118-.113.221-.028.31q.05.059.127.024l.306-.14a.15.15 0 0 0 .056-.076c.02-.047 0-.07-.047-.075q-.125 0-.117-.085l.23-.056q.087-.02.104.065c.042.17.066.34.066.5q-.001.189-.066.013c-.028-.075-.07-.117-.127-.136a.11.11 0 0 0-.123.033 7 7 0 0 1-.376.376c-.165.16-.55.25-.508.621m9.03-1.436c-.127.377.659.461.884.452a.07.07 0 0 1 .066.047c.005.01.01.019.005.028a.07.07 0 0 0 .047.07c.07.038.094.02.056-.056a.21.21 0 0 1 0-.188c.034-.07.01-.099-.06-.094-.189.019-.349-.052-.495-.216a.61.61 0 0 1 .509.108.3.3 0 0 0 .122.047l.357.061c.09.014.095.047.02.085a.5.5 0 0 1-.222.066.05.05 0 0 0-.033.014.06.06 0 0 0-.019.037v.052a.06.06 0 0 0 .02.047q.008.009.021.013l.025.001c.221-.047.626-.17.824-.075.31.141.3.188-.038.127q-.085-.016-.226.174a.2.2 0 0 1-.075.047.7.7 0 0 0-.264.15.1.1 0 0 1-.035.017.08.08 0 0 1-.072-.021.1.1 0 0 1-.02-.033.4.4 0 0 0-.08-.141c0-.01-.01-.01-.014 0l-.028.023q-.015.024 0 .038.255.26.127.612a.3.3 0 0 0-.099.005l-.245-.551q-.049-.126-.07.01c-.042.305.104.362.254.578q.03.161.207.188.282.475.748.8.115.077-.023.104l-.066-.01c-.075-.084-.198-.14-.367-.178l-.282-.273a9 9 0 0 0-.396-.56 1.2 1.2 0 0 1-.183-.34c-.123-.357-.452-.234-.574-.62a.08.08 0 0 0-.038-.047.1.1 0 0 0-.047-.005l-.047.01c-.033.004-.047.023-.033.056a.9.9 0 0 0 .207.33.67.67 0 0 0 .075.564q.055.078.118.01a.1.1 0 0 1 .047-.034c.061-.009.099.01.122.057.118.226.188.456.212.701l-.198.339a.12.12 0 0 0-.009.117q.133.31.442.485c.015-.019.047-.019.104-.01a1.18 1.18 0 0 0 .494.932c.014.01.014.024.01.038l-.02.047c-.014.033-.032.038-.065.014l-.26-.207q-.113-.1-.05.043.12.255.361.545c.08.095.066.17-.047.212a.1.1 0 0 0-.023-.037l-.518-.664c-.033-.047-.047-.038-.047.019a.43.43 0 0 0 .113.291q-.098.043-.09.085-.104-.021-.187.141a.9.9 0 0 1-.353.353c-.057.033-.076.024-.052-.042q.042-.12.127-.212a.2.2 0 0 0 .056-.122c.024-.203-.028-.348-.15-.452-.052-.047-.08-.033-.07.043l.013.174c.005.028-.01.042-.037.032a.07.07 0 0 1-.056-.047 5 5 0 0 0-.255-.63.77.77 0 0 1-.042-.461.2.2 0 0 0-.024-.137 1.26 1.26 0 0 1-.174-.724c.024 0 .038-.014.047-.062l-.014-.07-.179-.414a1.6 1.6 0 0 0-.254-.405 3.4 3.4 0 0 1-.273-.386c.33-.235.65-.786.574-.715a.12.12 0 0 1-.103-.01l.07-.362q.014-.078.09-.07.056-.001.127.047z"/>
    <path fill="#040303" d="M12.527 10.898c.075.066.103.127.094.18-.019.046-.047.06-.094.046-.09-.028-.15-.009-.193.057a.12.12 0 0 1-.118.061l-.437-.052c-.057-.005-.066-.033-.038-.075l.028-.047.485.019a.09.09 0 0 0 .094-.057c.047-.084.103-.127.179-.132"/>
    <path fill="#CAC5B8" d="M8.683 11.94a.03.03 0 0 1-.033-.014l-.203-.537a.7.7 0 0 1-.037-.175l.004-.056a.05.05 0 0 1 .024-.028l.019-.005c.01-.005.019 0 .033.005l.047.042.037.066.038.09.198.54a.03.03 0 0 1-.014.034z"/>
    <path fill="#47774A" d="m14.508 12.744.376.103c-.042.226-.235.339-.442.24-.292-.141-.989-.47-.885-.88q.03-.09-.061-.061-.171.05-.024.348c.305.347.682.622 1.106.805l-.174 1.835-1.247-.132.052-.353q.014-.071-.057-.108l-.122-.056c-.066-.033-.085-.085-.066-.156a1.37 1.37 0 0 0-.485-1.59c-.324-.264-.687-.47-.818-.908l1.157.042a.2.2 0 0 0 .141-.047l.189-.155c.352-.316 1.42-.894 1.717-.184a.06.06 0 0 1 0 .057l-.02.017-.027.006-.419.014a.15.15 0 0 0-.113.057c-.202.23-.3.475-.306.739 0 .051.015.103.047.14q.213.276.48.227"/>
    <path fill="#542F30" d="M17.524 12.987q-.092.076-.17-.038a9 9 0 0 1-.437-.715c-.132-.235-.273-.33-.508-.424a1 1 0 0 1-.207-.329c-.014-.033 0-.052.033-.056l.042-.01c.019 0 .038 0 .052.01.019.009.028.023.037.042.123.386.452.263.575.621q.063.183.183.339.21.282.4.565z"/>
    <path fill="#5D9B5D" d="M11.66 11.831c.133.442.495.645.82.908q.782.637.484 1.59c-.019.071 0 .123.066.156l.123.057c.046.023.065.056.056.108l-.052.353a2.1 2.1 0 0 0-.691.009c-.923.339-2.198.598-3.134.268-.494-.178-.565-.964-.476-1.383q.05-.257.278-.118c.235.141.494.132.79-.028a2.58 2.58 0 0 0 1.182-1.355l-.033-.014c-.029-.014-.047 0-.057.023-.155.36-.414.667-.743.88q-.029.014-.043-.01c-.014-.018-.009-.032.005-.046.659-.47-.583-1.647-1.266-.82-.047.053-.07.048-.08-.023-.16-1.242 1.167-.734 1.723-.536.305.108.715-.028 1.049-.019"/>
    <path fill="#CC614F" d="M5.11 12.705c-.24-.602.274-1.03.83-1.082a.23.23 0 0 1 .24.127q.281.502-.071.8c-.18.15-.58.188-.805.249-.094.028-.155-.005-.193-.094m12.814-1.082c.659-.043 1.233.451.937 1.134q-.043.091-.128.056a3 3 0 0 0-.531-.132.6.6 0 0 1-.41-.268c-.164-.245-.14-.494.057-.743a.3.3 0 0 0 .075-.047"/>
    <path fill="#fff" d="m14.884 12.848-.376-.104c.216-.33.211-.63-.005-.885-.047-.056-.038-.084.037-.094l.198-.01c.08 0 .141.024.188.09q.45.572-.047 1.002z"/>
    <path fill="#8B8B8B" d="M16.409 11.81c.235.095.376.189.508.424.113.212.259.447.438.715.047.076.108.095.169.038l.282.273-.014.141c0 .047 0 .085.024.127q.122.283.263.55.007.024-.014.01a5 5 0 0 0-.315-.532.12.12 0 0 0-.155-.037.1.1 0 0 0-.043.037.24.24 0 0 0-.047.198q-.118.059-.188.287c-.047-.01-.085-.01-.099.01l-.052-.264q.165-.238.287-.457c.118-.207.071-.249-.131-.131q-.09.056-.26-.014l-.08-.076a2 2 0 0 0-.21-.7c-.024-.048-.067-.067-.118-.057a.1.1 0 0 0-.047.033c-.048.047-.085.047-.123-.01a.67.67 0 0 1-.075-.565"/>
    <path fill="#CAC5B8" d="M8.485 11.966a.59.59 0 0 1-.188.504.3.3 0 0 0-.08.117l-.245.63a.17.17 0 0 0 .014.142.22.22 0 0 1 0 .202 1.6 1.6 0 0 0-.146.753q.015.317-.155.047a1 1 0 0 1-.156-.456.07.07 0 0 0-.028-.047.07.07 0 0 0-.047-.014h-.047a.04.04 0 0 0-.033.019.05.05 0 0 0 0 .037l.198.65q.02.07-.038.108a.3.3 0 0 0-.075.066c-.042.047-.028.07.033.065a.26.26 0 0 0 .132-.047c.047-.037.07-.023.06.038a.68.68 0 0 1-.173.4q-.07.072-.113-.019l-.09-.146c-.047-.06-.066-.056-.07.02a.2.2 0 0 0 .037.14.2.2 0 0 1 .033.16q-.05.226.1.438a.06.06 0 0 1 0 .066l-.02.014-.033.014a.05.05 0 0 1-.028.005.04.04 0 0 1-.023-.014l-.48-.565c-.02.056-.047.07-.085.033-.033-.028-.038-.066-.01-.104l.08-.113c.057-.075.048-.094-.037-.037-.254.16-.32.367-.485.564-.037-.268.07-.503.31-.7a.06.06 0 0 0 .02-.029q.012-.03-.01-.047-.014-.015-.033 0a.8.8 0 0 0-.268.198c-.014.01-.023.014-.038 0l-.033-.029q-.026-.02-.004-.047a7 7 0 0 0 .296-.376.75.75 0 0 0 .066-.795q.053.008.104.018a.18.18 0 0 1 .122.17q0 .036.042.037h.051l.003-.002.002-.003v-.009a.54.54 0 0 0-.249-.404.46.46 0 0 1-.244-.405l.856-.955c.019-.02.659-.861.692-.857.07 0 .24.047.31.207.062.151-.197.65-.296.697-.085.103-.334.212-.377.386a.3.3 0 0 1-.065.122q-.072.085-.18.024a.04.04 0 0 1-.016-.016.04.04 0 0 1-.007-.022q0-.029-.028-.042-.048-.017-.047.037l.019.461c0 .07.019.07.052.01a.4.4 0 0 0 .037-.127.19.19 0 0 1 .094-.15.94.94 0 0 0 .349-.415q.055-.127.06.014c0 .014 0 .028.015.047q.042.07.085 0 .113-.189.282-.33a.16.16 0 0 0 .061-.126.2.2 0 0 0-.038-.141c.08-.174.151-.198.203-.07"/>
    <path fill="#040303" d="M8.283 12.04a.2.2 0 0 1 .037.142q-.002.072-.061.123a1.3 1.3 0 0 0-.282.329q-.043.07-.085 0a.1.1 0 0 1-.014-.047c-.005-.094-.024-.094-.061-.014a.93.93 0 0 1-.349.414.19.19 0 0 0-.094.15.4.4 0 0 1-.037.127c-.033.062-.047.062-.047-.009l-.024-.461c0-.038.014-.047.047-.038q.028.015.028.043.002.025.024.037.107.063.179-.023a.3.3 0 0 0 .066-.123q.063-.261.197-.423.303.183.203-.24a.07.07 0 0 1 .023-.07.07.07 0 0 1 .07-.01zm7.858.265q.247.181.212.362-.023.128-.08.014-.042-.07-.132-.056-.086.006-.127-.071a.6.6 0 0 0-.236-.245.14.14 0 0 1-.07-.108.23.23 0 0 1 .019-.127q-.022-.119.131-.047a.14.14 0 0 1 .047.056.36.36 0 0 0 .236.222"/>
    <path fill="#fff" d="M9.741 12.49q-.198.557.4.776.07.027.005.06c-.344.213-.692.236-1.035.067a.16.16 0 0 1-.094-.123q-.05-.422.103-.78a.315.315 0 0 1 .315-.208h.16c.151 0 .198.066.146.207"/>
    <path fill="#8B8B8B" d="M8.701 13.505a.25.25 0 0 1 .137-.047q.022.32-.217.626-.035-.05-.014.056c-.188-.132-.287-.282-.3-.47 0-.062-.034-.095-.095-.113-.23-.062-.193-.283-.108-.457.113-.22.23-.423.348-.62q.227-.377.263.06.01.15.038.297a.08.08 0 0 1-.047.047.1.1 0 0 1-.038.01c-.376-.043-.456.437-.174.616.113.075.184.07.207-.005m7.27-.235a.45.45 0 0 0-.15.32.06.06 0 0 1-.025.054.06.06 0 0 1-.06.007l-.056-.024q-.072-.028-.052-.099c.033-.131.047-.254.033-.367a.298.298 0 0 0-.4-.258l-.099.037c-.094.033-.108.014-.056-.066q.146-.234.174-.517a.05.05 0 0 1 .047-.047h.028c.296.127.48.682.616.964z"/>
    <path fill="#040303" d="m16.536 12.965-.038-.029c-.028-.028-.023-.047.005-.065l.15-.095q.099-.05.09.057l-.028.348c-.005.108-.033.113-.075.014a.5.5 0 0 1-.029-.094.26.26 0 0 0-.075-.136"/>
    <path fill="#B65042" d="M8.838 13.458a.24.24 0 0 0-.141.047c-.123-.042-.25-.094-.264-.244-.023-.174.07-.283.273-.316q.077-.015.09.071l.042.447zm6.362-.428-.001-.015q0-.008.005-.015l.01-.01.014-.007.024-.01a.263.263 0 0 1 .32.18l.009.023a.26.26 0 0 1-.183.32l-.024.005a.04.04 0 0 1-.047-.024z"/>
    <path fill="#040303" d="M7.12 13.397c.047.023.08.018.108-.01q.044-.043.052.019a.1.1 0 0 1 0 .042.04.04 0 0 1-.014.033q-.213.255-.108.621c.01.029 0 .057-.02.08a.1.1 0 0 1-.027.021.1.1 0 0 1-.033.008c-.076 0-.085-.024-.038-.08a.1.1 0 0 0 .019-.038l-.005-.08-.108-.819a.3.3 0 0 1 .005-.103q.03-.093.08-.066.02.015.028.037.032.126.023.26a.08.08 0 0 0 .038.075"/>
    <path fill="#335839" d="m14.404 15.133.174-1.835q.214-.057.377-.184a.09.09 0 0 1 .103 0l.024.024c.14.226.22.483.235.748a.05.05 0 0 0 .02.02l.027.008h.019a.1.1 0 0 1 .038-.01c.01 0 .019 0 .023.01a.2.2 0 0 1 .028.104c0 .047-.018.07-.066.075-.056 0-.094.028-.094.08q-.153 1.101-.908.96"/>
    <path fill="#CAC5B8" d="M17.166 13.787q-.077.056-.127-.07a.68.68 0 0 1 .024-.533c.113.047.197.047.259.014.202-.117.249-.075.131.132-.08.141-.178.297-.287.457"/>
    <path fill="#CC614F" d="m6.32 13.167.103.047c.01.184.094.315.245.405a.3.3 0 0 0 .028.212l-.103-.02q.07.785-.537 1.069a1 1 0 0 0-.292.207q-.126.13-.197-.038-.425-.928.315-1.538c.038-.033.047-.08.019-.132l.423-.212zm11.481.094c.17.038.292.094.367.179q-.082.07.005.141.352.269.424.65a1.16 1.16 0 0 1-.212.903c-.038.047-.07.047-.113.01-.207-.231-.522-.302-.701-.56-.156-.231-.174-.504-.061-.829a.23.23 0 0 1 .042-.197.12.12 0 0 1 .155-.038q.028.016.043.038.174.255.315.531.021.013.014-.009a7 7 0 0 1-.264-.55.25.25 0 0 1-.023-.128z"/>
    <path fill="#2CABE2" d="M16.16 14.86q.124.288.25.838c0 .014 0 .023-.015.033a.1.1 0 0 1-.033.01h-.014a.54.54 0 0 0-.442-.33.104.104 0 0 1-.095-.094 16 16 0 0 0-.15-1.21.9.9 0 0 0-.094-.258c-.038-.062-.019-.085.047-.066s.136.056.16.127c.118.315.245.635.386.95m-7.976.447a.1.1 0 0 1-.057.076.9.9 0 0 1-.305.103.15.15 0 0 1-.156-.216 5.1 5.1 0 0 0 .494-1.355c.01-.057.033-.062.076-.024.08.075.117.17.103.278-.037.338-.094.72-.155 1.138"/>
    <path fill="#040303" d="m17.721 15.623-.451-.349a.44.44 0 0 1-.118-.291q0-.084.056-.02z"/>
    <path fill="#B65042" d="m6.824 15.293.367.86a.67.67 0 0 1-.047.66c-.08.136-.156.273-.217.414q-.12.273-.306.037a1.96 1.96 0 0 1-.334-1.632c.165-.193.23-.4.485-.565q.121-.072.037.047l-.08.108q-.04.059.01.104c.038.037.066.023.085-.033"/>
    <path fill="#335839" d="m14.235 16.536-.047.297c-.014.066.01.075.061.037.113-.094.226-.197.33-.306q.022-.021.037 0 .027.021.005.047a4 4 0 0 0-.579.782 1.2 1.2 0 0 0-.235.46q-.013.036.023.043l.043.005.019.084-.207.316q-.028.049.023.061c.024.01.047-.01.08-.047q-.001.082.047.094l-.33.546a1.65 1.65 0 0 1-1.246-.635.22.22 0 0 1-.047-.127c-.005-.226-.01-.448-.005-.673 0-.198.033-.438.094-.73a8.7 8.7 0 0 0 .165-1.623l2.122.094a.07.07 0 0 1 .062.04.08.08 0 0 1 0 .073c-.229.35-.37.748-.415 1.162"/>
    <path fill="#47774A" d="M12.465 15.167a8.7 8.7 0 0 1-.165 1.623q-.08.36-.094.73l.005.673a.2.2 0 0 0 .047.127 1.65 1.65 0 0 0 1.247.635.17.17 0 0 0-.033.155q.006.036.033.043.03.009.061 0c-.019.047-.005.07.043.08q-.156.21-.113.385l.047.226-1.784.155a10.65 10.65 0 0 1-.95-4.47 7 7 0 0 0 1.656-.362"/>
    <path fill="#B65042" d="m17.27 15.274.452.353c.01.005.014.02.023.038-.037.198.028.4.019.565-.012.42-.17.822-.447 1.138q-.093.106-.165-.014c-.226-.395-.54-.753-.31-1.242.117-.245.23-.499.339-.753-.01-.028.023-.056.089-.085"/>
    <path fill="#CAC5B8" d="m9.388 15.434.01.094q.002.339.244.522-.029-.03-.037.09.104.375.357.729l-.09.118c-.046-.104-.126-.141-.225-.113q-.077.02-.014.07a.3.3 0 0 0 .094.047q.063.022.113.071l.221.235c.019.066 0 .132-.066.198a.45.45 0 0 0-.273-.221q-.111-.029-.033.056l.367.386.01.01q.022.035.01.065c-.02.029-.048.043-.08.029l-.151-.057q-.12-.043-.043.056c.066.08.146.151.25.208a.44.44 0 0 1 .094.188c-.052.047-.155.019-.31-.075 1.449 1.571.366 1.1-.664.7a.06.06 0 0 1-.066.052c-.01 0-.019 0-.028-.009l-.26-.165H8.8l-.028.024c-.024.023-.024.047 0 .061.221.188.381.41.485.678a1.77 1.77 0 0 1-.894-.391c.338-.424-.847-2.668.004-2.668a.26.26 0 0 1-.014-.122l.052-.424a.14.14 0 0 1 .08-.103l.052-.024c.07-.033.075-.075.023-.127a.26.26 0 0 1-.07-.113c-.01-.047 0-.075.047-.094a.17.17 0 0 1 .188.047c.07.08.141.193.221.348a.2.2 0 0 1 .024.132c-.024.127.023.226.15.296q.105.058.047-.047l-.099-.183c-.033-.056-.014-.09.047-.094l.146-.024q.023-.002.024-.023l.01-.061q.006-.05-.043-.038l-.17.033q-.085.014-.094-.07a.8.8 0 0 1 .01-.344c.01-.057.047-.07.094-.052zm7.096 1.237c-.033.052-.037.09-.014.104a.14.14 0 0 0-.061-.024c-.047 0-.061.02-.052.062q.06.333.174.654c-.004.023-.018.042-.042.047q-.05.026-.08-.02a1 1 0 0 0-.39-.3c-.015-.01-.029 0-.033.01l-.02.037q-.005.017.01.019.426.105.47.748c0 .085-.028.103-.093.047a10 10 0 0 0-.457-.325h-.028v.005q-.021.027 0 .047l.612.635.094.155a.8.8 0 0 1-.396.236 1.1 1.1 0 0 0-.423-.264.11.11 0 0 0-.125.045.1.1 0 0 0-.016.045l-.052.291c-.014.08.014.095.075.052a.17.17 0 0 0 .075-.094.27.27 0 0 1 .123-.104.37.37 0 0 1 .245.109.08.08 0 0 1-.042.07l-1.074.527a.22.22 0 0 1-.146.005c-.032-.113-.31-.08-.235-.15-.132-.189-.212-.4.499-1.605q.042-.07-.028-.033a.7.7 0 0 0-.278.23c-.037.015-.066-.023-.075-.112.235-.198.197-.433.315-.631.141-.25.268-.574.593-.612a.056.056 0 0 1 .061.047v.024q-.085.523-.01 1.308a.33.33 0 0 0 .175.268c.052.033.075.014.07-.047a.33.33 0 0 0-.122-.221.08.08 0 0 1-.028-.066c0-.014 0-.033.019-.047a.1.1 0 0 0 .023-.085 2.9 2.9 0 0 1 .033-1.068.175.175 0 0 0-.235-.193c-.259.104-.47.264-.63.47a2.3 2.3 0 0 0-.222.533c-.127.38.31.202-.292 1.477 0 .01-.46-.014-.465 0a1.1 1.1 0 0 0-.377.254c-.047-.01-.06-.033-.047-.08.08-.33.33-.645.739-.955.066-.047.061-.066-.019-.047a1.5 1.5 0 0 0-.447.254q-.048-.001-.047-.094l.447-.504v-.014l-.028-.028q-.032-.028-.061 0l-.255.221-.018-.084c.136-.226.32-.42.546-.57.018-.014.023-.033.004-.052l-.023-.037q-.013-.017-.033-.005l-.33.155q.246-.424.584-.785.021-.021 0-.048-.022-.014-.038 0a4 4 0 0 1-.334.311q-.08.059-.061-.038l.047-.296a1.5 1.5 0 0 0 .339-.226c.061-.056.052-.08-.033-.061a.4.4 0 0 0-.094.028q-.14.058-.061-.075a.2.2 0 0 1 .056-.061.16.16 0 0 0 .07-.113q.044-.311.264-.607c.024-.033.047-.038.09-.028q.192.07.202.305c.005.062.024.07.066.02l.146-.203a.1.1 0 0 1 .047-.038.1.1 0 0 1 .056 0l.052.01c.047.01.066.037.047.084l-.056.156a.084.084 0 0 0 .042.108q.197.084.103.282c-.023.057-.009.094.052.108.08.024.141.076.174.156q.043.112.07 0a.14.14 0 0 0-.046-.151.16.16 0 0 1-.047-.108l-.028-.494c-.005-.07.028-.104.103-.09l.094.024q.122.022.123.15c0 .349.136.669.418.96"/>
    <path fill="#5D9B5D" d="M9.383 15.436c.485.103.96.131 1.426.094-.014 1.534.306 3.02.95 4.47l-1.27-.15a.4.4 0 0 0 0-.189c.038-.15-.014-.306-.141-.47l.075-.085c.08-.033.094-.104.047-.203a.5.5 0 0 0-.226-.235c.005-.09.024-.178.057-.277q.037-.09.01-.132-.037-.072-.165-.038a.4.4 0 0 0-.095-.188q.262-.269-.056-.536.093-.099.066-.198a.8.8 0 0 0-.188-.31l.094-.118q-.048.043.023.038a.05.05 0 0 0 .049-.047l-.006-.024-.429-.697c.005-.08.02-.108.033-.089-.004-.17-.089-.343-.24-.518l-.014-.094z"/>
    <path fill="#CAC5B8" d="M8.108 16.705c-.014.329.024.658.118.997q-.155.269.01.452a.254.254 0 0 1-.038.376l-.363.264a.7.7 0 0 0-.259-.104c.071-.014.076-.066.005-.155a.6.6 0 0 0 .122-.292.2.2 0 0 1 .062-.113.53.53 0 0 0 .16-.249c.033-.094.014-.108-.062-.033l-.197.198q-.085.085-.085-.033c0-.33-.103-1.012.155-1.252.038-.033.033-.056-.018-.061a.33.33 0 0 0-.198.056.3.3 0 0 1-.066-.066 1.4 1.4 0 0 0 .494-.8.13.13 0 0 0-.037-.131l-.038-.038q-.065-.057.019-.094l.357-.141a.1.1 0 0 1 .03-.003q.014.003.025.012a.06.06 0 0 1 .02.052z"/>
    <path fill="#040303" d="M9.397 15.53c.151.178.236.352.245.522a.63.63 0 0 1-.245-.518zm.203.61.433.693a.05.05 0 0 1 0 .051.05.05 0 0 1-.047.024c-.043 0-.047-.01-.024-.038a2.6 2.6 0 0 1-.357-.73zm5.1 1.68-.235.203q.189-.249.278-.517.143-.433.221-.532a1.46 1.46 0 0 1 .626-.475.175.175 0 0 1 .227.102q.017.044.008.09a3 3 0 0 0-.028 1.069.1.1 0 0 1-.024.084.06.06 0 0 0-.019.047c0 .029.01.047.029.066a.33.33 0 0 1 .122.226c.005.057-.019.076-.07.047a.33.33 0 0 1-.174-.273 5 5 0 0 1 .009-1.336.06.06 0 0 0-.061-.038c-.33.033-.452.358-.593.607-.118.198-.085.433-.315.63m-7.119.716a1.3 1.3 0 0 1-.179-.659q0-.482.029-.964.001-.043.094-.156a.34.34 0 0 1 .188-.056c.056.005.061.028.023.061-.258.24-.16.927-.155 1.252 0 .08.028.094.085.033l.197-.198c.076-.075.095-.061.062.033a.57.57 0 0 1-.16.25.2.2 0 0 0-.062.112.6.6 0 0 1-.122.292"/>
    <path fill="#040303" d="M16.47 16.777c.23.484.235 1.035.014 1.642l-.612-.636q-.027-.02 0-.047.009-.014.024 0 .24.156.452.325c.07.047.099.033.094-.052q-.036-.642-.466-.748c-.01 0-.014-.01-.01-.019l.02-.037c.004-.014.018-.02.032-.01q.228.098.39.302.03.043.081.023a.07.07 0 0 0 .042-.052v-.028a3.7 3.7 0 0 1-.174-.626c-.01-.042.01-.061.047-.061a.14.14 0 0 1 .066.023m-7.002 1.011q-.085.084-.22-.01l-.424-.968c-.024-.057-.01-.066.047-.043q.137.073.287.061c.07-.01.084.02.047.076a.2.2 0 0 0 0 .216.26.26 0 0 1 .033.141.58.58 0 0 0 .235.527zm.405-.8c.094.1.15.203.188.31l-.221-.234a.3.3 0 0 0-.113-.066.3.3 0 0 1-.094-.052c-.047-.033-.038-.057.014-.07q.148-.043.226.112m.122.509c.212.178.236.357.057.531a.9.9 0 0 1-.25-.207q-.077-.1.043-.056l.15.056c.033.014.062 0 .08-.028.01-.024.005-.043-.01-.066l-.008-.01-.368-.385q-.078-.085.033-.057a.46.46 0 0 1 .273.222m3.878.404a.2.2 0 0 0-.047-.005q-.03-.006-.024-.042.08-.263.235-.461l.33-.155c.01-.01.023-.005.033.004l.023.038c.02.019.014.038-.005.047a1.8 1.8 0 0 0-.545.574m.978.598q-.071.062-.066.09l-.235.4a.19.19 0 0 0 .005.206l.024.028c.042.062.08.057.122-.004.07-.123.179-.236.31-.33a.4.4 0 0 1 .165-.122c.052-.019.066 0 .033.047a2.2 2.2 0 0 1-.33.405c-.07.07-.093.16-.06.272l-.203.048c-.16-.189-.226-.358-.198-.518l.358-1.087a.7.7 0 0 1 .283-.235q.061-.028.023.037c-.141.24-.221.5-.235.763zm-6.625-.795q.16.096.122.376c.024.306.217.762.01 1.012a.13.13 0 0 0-.057-.066.7.7 0 0 0 .033-.358q-.015-.072-.08-.037a.58.58 0 0 0-.244.282c-.062-.005-.123-.047-.175-.118l.363-.268a.25.25 0 0 0 .09-.282.3.3 0 0 0-.053-.09c-.108-.117-.113-.273-.009-.451m.998.108.376 1.044q.07.361-.08.758l-.263-.132a1.6 1.6 0 0 0-.485-.677q-.036-.028 0-.062l.028-.023h.019l.259.165a.1.1 0 0 0 .03.01q.015 0 .03-.007a.06.06 0 0 0 .034-.05 1.7 1.7 0 0 0-.188-1.007q-.037-.072.047-.08c.047-.005.113.014.188.06zm4.564.498c-.033.048-.057.062-.08.052q-.05-.014-.024-.06l.207-.316.25-.221q.036-.03.066 0l.023.028v.014zm-.221.843a.1.1 0 0 1-.061 0q-.028-.007-.033-.043a.15.15 0 0 1 .033-.155l.329-.55c.193-.142.339-.226.447-.25.08-.023.085-.005.019.043-.414.31-.659.625-.734.955M9.835 18.14c.15.094.26.118.31.08q.13-.034.166.038.027.04-.01.132a1.2 1.2 0 0 0-.056.277l-.33-.353c-.07-.07-.094-.127-.08-.174"/>
    <path fill="#542F30" d="m16.179 18.809-.1.08a.37.37 0 0 0-.244-.109l-.056-.07q-.072-.085-.095.028c0 .047.005.094.029.141a.2.2 0 0 1-.076.099c-.06.047-.089.028-.075-.047l.047-.297a.11.11 0 0 1 .051-.08.1.1 0 0 1 .095-.009c.165.056.301.141.423.264"/>
    <path fill="#CAC5B8" d="M8.302 19.025a.5.5 0 0 1-.292-.113.56.56 0 0 1 .244-.283c.048-.023.071-.009.08.038a.7.7 0 0 1-.032.358"/>
    <path fill="#040303" d="M10.245 18.666a.55.55 0 0 1 .23.235c.048.1.029.17-.046.203l-.189-.438z"/>
    <path fill="#CC614F" d="M9.6 18.856q.323-.043.358.098c.254.188.428.424.531.706a.4.4 0 0 1 0 .188l-.969-.235q.142-.396.08-.758"/>
    <path fill="#040303" d="M9.958 18.954q.07-.02.155-.014l.235.25c.127.164.179.32.141.47a1.44 1.44 0 0 0-.531-.706"/>
    <path fill="#B65042" d="m13.995 18.95.423.07q-.042.238.198.517l-1.073.306-.047-.226.518-.597q.015-.014 0-.029c0-.009-.014-.014-.028-.018z"/>
    <path fill="#040303" d="M13.985 18.975a.04.04 0 0 1 .033.018v.029l-.522.597c-.024-.117.01-.244.113-.386q.163-.168.376-.258"/>
</svg>
