<svg xmlns="http://www.w3.org/2000/svg" width="24" height="24" fill="none" viewBox="0 0 24 24">
    <path fill="url(#UNCX__a)" d="M12 22c5.523 0 10-4.477 10-10S17.523 2 12 2 2 6.477 2 12s4.477 10 10 10"/>
    <path fill="#fff" d="M12.625 21.374c4.375 0 8.75-4.95 8.75-10 0-.806 0-1.875-.625-2.5-1.475-1.425-2.887-2.137-2.881-2.13l-.863.962a43 43 0 0 0 .375-1.182s-1.48-.63-2.818-.712l-.27 1.319-.174-1.363c-.081 0-1.731-.112-3.144.231l.663 1.2c-.563-.125-1.1-.075-1.807.957l-1.468-.27v.007L4.5 7.206l4.519 2.1S6.831 12.743 6.6 13.13c-.244.406-.5 1.13.831 1.468.25.082.5.131.763.157 1.406-.044 2.694-.525 3.981-1l.525-.194c1.1.969 1.407 2.25.65 3.475-1.187 1.925-4.469 1.875-6.35 1.837 1.7 1.144 3.438 2.5 5.625 2.5M12.17 9.987l-1.42 1.043s-.437-.513.125-.938a1.38 1.38 0 0 1 1.294-.106"/>
    <path fill="#C7FCDC" d="M10.125 20.75S9.03 20.593 7 18.875c1.881.044 5.019.087 6.2-1.838 1.188-1.925-.087-3.093-.5-3.475 0 0 2.575-1.487 2.425-3.437C16.769 12.05 17 13.8 17 15.75c0 2.343-3.437 5-6.875 5"/>
    <defs>
        <linearGradient id="UNCX__a" x1="2" x2="22" y1="12" y2="12" gradientUnits="userSpaceOnUse">
            <stop stop-color="#00C68B"/>
            <stop offset="1" stop-color="#00E860"/>
        </linearGradient>
    </defs>
</svg>
