<svg width="24" height="24" viewBox="0 0 24 24" fill="none" xmlns="http://www.w3.org/2000/svg">
<path d="M19.1444 12.9167L16.4222 17.6167C16.5334 17.8389 16.55 18.0778 16.4778 18.3277C16.4228 18.5091 16.3181 18.6714 16.1754 18.7959C16.0328 18.9206 15.8579 19.0027 15.6708 19.0329C15.4838 19.063 15.2921 19.0399 15.1174 18.9663C14.9428 18.8928 14.7925 18.7716 14.6833 18.6166H9.37778C9.23214 18.8134 9.02008 18.9506 8.78095 19.0028C8.54182 19.0551 8.29186 19.0188 8.07743 18.9007C7.86303 18.7827 7.69872 18.5909 7.61501 18.3608C7.53129 18.1308 7.53386 17.8783 7.62223 17.65L4.88888 12.9277C4.64533 12.8967 4.4214 12.7781 4.25886 12.5942C4.09631 12.4101 4.00629 12.1733 4.00556 11.9278C4.00556 11.3889 4.42778 10.9444 4.96111 10.9166L7.61111 6.33886C7.53074 6.11258 7.53304 5.86517 7.61764 5.64043C7.70222 5.4157 7.86362 5.22816 8.07325 5.11104C8.28287 4.99392 8.52719 4.95477 8.7629 5.00054C8.99864 5.0463 9.21054 5.17402 9.36111 5.36108H14.6945C14.8425 5.1622 15.0585 5.02466 15.3014 4.97461C15.5442 4.92456 15.797 4.96549 16.0116 5.08961C16.2263 5.21374 16.3878 5.4124 16.4656 5.64785C16.5434 5.88329 16.5318 6.13909 16.4333 6.36664L19.0666 10.9222C19.1981 10.917 19.329 10.9379 19.4523 10.9834C19.5755 11.0289 19.6887 11.0984 19.7851 11.1876C19.8816 11.2769 19.9596 11.3842 20.0146 11.5036C20.0696 11.623 20.1004 11.752 20.1056 11.8833C20.1106 12.0146 20.0899 12.1457 20.0443 12.2689C19.9988 12.3922 19.9294 12.5054 19.8401 12.6018C19.7509 12.6983 19.6436 12.7762 19.5242 12.8311C19.4048 12.8861 19.2758 12.9171 19.1444 12.9221V12.9167ZM21.7555 11.0722L17.6778 4.03886C17.5151 3.75698 17.281 3.52288 16.9991 3.36002C16.7175 3.19718 16.3977 3.11133 16.0722 3.11108H7.92778C7.2611 3.11108 6.65001 3.46663 6.31666 4.03886L2.25 11.0722C1.91667 11.65 1.91667 12.35 2.25 12.9221L6.32222 19.961C6.48496 20.243 6.71898 20.4771 7.0008 20.6399C7.28261 20.8027 7.6023 20.8887 7.92778 20.8889H16.0722C16.7389 20.8889 17.3501 20.5389 17.6833 19.961L21.7499 12.9221C22.0834 12.3555 22.0834 11.6444 21.7499 11.0722H21.7555Z" fill="#21A0B4"/>
<path d="M18.2547 11.2218L16.5436 8.2607L10.1602 11.8385V11.8552C10.134 12.105 10.0162 12.3364 9.8294 12.5045C9.64273 12.6726 9.40035 12.7657 9.14909 12.7657C8.89784 12.7657 8.65547 12.6726 8.46876 12.5045C8.28205 12.3364 8.16421 12.105 8.13797 11.8552C8.13971 11.6659 8.19452 11.4809 8.29619 11.3212C8.39784 11.1617 8.54226 11.0337 8.71303 10.9522C8.88377 10.8705 9.07402 10.8385 9.26209 10.8596C9.4501 10.8808 9.62847 10.9543 9.7769 11.0718L16.1102 7.52181L15.7769 6.94402C15.6459 6.98322 15.5082 6.99515 15.3725 6.97905C15.2368 6.96296 15.1057 6.9192 14.9875 6.85047C14.8693 6.78174 14.7665 6.68951 14.6853 6.57946C14.6042 6.46943 14.5465 6.34391 14.5158 6.21069H9.52684C9.49301 6.34355 9.43247 6.46818 9.34921 6.57708C9.2659 6.68598 9.1614 6.77689 9.04204 6.84436C8.92266 6.91183 8.79088 6.95446 8.65461 6.96968C8.51835 6.98489 8.38041 6.97238 8.24909 6.93291L5.74909 11.2385C5.83981 11.3339 5.91079 11.4463 5.95795 11.5692C6.00513 11.6922 6.02754 11.8233 6.02392 11.9549C6.02031 12.0866 5.99074 12.2161 5.9369 12.3362C5.88307 12.4564 5.80603 12.5648 5.71021 12.6551L7.61576 15.9441L14.1436 12.1773L14.138 12.0829C14.1642 11.833 14.282 11.6018 14.4687 11.4336C14.6555 11.2654 14.8978 11.1724 15.1491 11.1724C15.4004 11.1724 15.6428 11.2654 15.8294 11.4336C16.0161 11.6018 16.1339 11.833 16.1603 12.0829C16.1609 12.2679 16.1107 12.4497 16.0152 12.6082C15.9198 12.7667 15.7826 12.896 15.6188 12.9819C15.4548 13.0679 15.2705 13.1071 15.0859 13.0956C14.9012 13.0841 14.7232 13.022 14.5714 12.9162L8.03798 16.683L8.2602 17.0607C8.38895 17.0218 8.52419 17.0093 8.65791 17.0235C8.79162 17.0379 8.92111 17.0789 9.03869 17.1442C9.15627 17.2094 9.25957 17.2977 9.34247 17.4036C9.42534 17.5094 9.48614 17.6308 9.52127 17.7607H14.5213C14.5928 17.5033 14.7631 17.2846 14.9953 17.1524C15.2274 17.0202 15.5024 16.9853 15.7602 17.0552L18.2936 12.6719C18.1931 12.5815 18.1121 12.4718 18.0552 12.3493C17.9984 12.2268 17.9669 12.0941 17.9628 11.959C17.9586 11.8241 17.9818 11.6896 18.0311 11.5639C18.0803 11.4382 18.1545 11.3237 18.2491 11.2274L18.2547 11.2218Z" fill="#21A0B4"/>
</svg>
