<svg xmlns="http://www.w3.org/2000/svg" width="24" height="24" fill="none" viewBox="0 0 24 24" class="web3icons">
    <path fill="#FFD300" d="M6.296 17.294c0-2.705 2.704-4.007 6.31-4.007 4.608 0 8.164 1.703 8.164 3.706 0 2.304-3.356 4.007-8.063 4.007-4.107 0-6.411-1.402-6.411-3.706"/>
    <path fill="#FFD300" d="M5.995 11.885c.501.801 1.102 2.003 1.803 3.105.802 1.202.2 3.005-1.202 2.604-.8-.2-1.602-.901-2.203-1.803-.802-1.202-1.352-2.404-1.102-3.305.3-1.002 1.703-1.102 2.704-.601"/>
    <path fill="#FFD300" d="M12.446 3a7.102 7.102 0 1 1 0 14.204 7.102 7.102 0 1 1 0-14.204"/>
    <path fill="#FD4B03" d="M12.306 10.182c.6.05 1.202.4 1.553.952.85 0 1.652.15 2.053.75.15.602-.3 1.203-1.202 1.604-.801.4-1.803.55-2.354.5-.751 0-1.853-.2-2.554-.6-.651-.401-.902-1.002-.651-1.553.35-.501 1.152-.701 1.903-.701.35-.551.751-.902 1.252-.952"/>
    <path fill="#C41800" d="M9.501 12.636c1.703.701 4.508.651 6.01-.05-.15.55-.6.751-.801.902-.801.4-1.803.55-2.354.5-.751 0-1.853-.2-2.554-.6-.3-.201-.4-.502-.3-.752"/>
    <path fill="#000" d="M9.601 8.68a.851 1.052 0 1 1 0 2.103.851 1.052 0 1 1 0-2.103m5.309-.251a.851 1.052 0 1 1 0 2.104.851 1.052 0 1 1 0-2.104"/>
</svg>
