<svg xmlns="http://www.w3.org/2000/svg" width="24" height="24" fill="none" viewBox="0 0 24 24">
    <path fill="#D8191E" d="m21.995 2.111-1.246 2.694a.1.1 0 0 1-.037.04.1.1 0 0 1-.052.013h-3.565a.1.1 0 0 1-.081-.039.07.07 0 0 1-.004-.08l.004-.006 1.293-2.68A.09.09 0 0 1 18.395 2h3.51a.1.1 0 0 1 .08.037q.012.016.014.036a.1.1 0 0 1-.005.037m-2.97 6.32H8.157L6.993 5.572h6.418c.04 0 .075-.047.089-.086l1.157-3.349a.1.1 0 0 0-.01-.091.1.1 0 0 0-.08-.045H2.097a.1.1 0 0 0-.079.045.1.1 0 0 0-.01.091l3.698 9.8a.1.1 0 0 0 .09.061h8.363l-2.31 6.516-1.263-3.589a.09.09 0 0 0-.088-.064l-3.504-.004a.09.09 0 0 0-.077.043.1.1 0 0 0-.01.094l2.54 6.941a.1.1 0 0 0 .034.047.1.1 0 0 0 .055.018h4.607q.03 0 .054-.018a.1.1 0 0 0 .034-.045L19.112 8.59c.012-.03.018-.082 0-.108-.01-.016-.047-.053-.088-.053"/>
</svg>
