<svg xmlns="http://www.w3.org/2000/svg" width="24" height="24" fill="none" viewBox="0 0 24 24">
    <path fill="url(#VCORE__a)" fill-rule="evenodd" d="M20.997 12.004a8.996 8.996 0 1 1-17.993 0 8.996 8.996 0 0 1 17.993 0m-7.97-5.292h2.118l-1.493 3.704 4.7-1.497v2.021l-3.335 1.064 3.334 1.058v2.027l-4.593-1.471 1.482 3.678h-2.117L12 14.518l-1.122 2.778H8.762l1.524-3.779L5.651 15v-2.022l3.053-.979-3.053-.973V9.003l4.741 1.519-1.534-3.81h2.116l1.027 2.545z" clip-rule="evenodd"/>
    <path fill="url(#VCORE__b)" d="M20.505 14.94a9 9 0 0 1-2.863 4.075c-.9-.889-1.73-2.963-.71-4.128.99-1.127 2.7-.486 3.573.053"/>
    <path fill="#C49D41" d="M8.281 20.195a9.03 9.03 0 0 1-4.403-4.318c.71-.265 1.895-.34 3.064.714 1.313 1.185 1.524 2.757 1.34 3.604"/>
    <path fill="#B38B3E" d="M5.682 5.6c.741.328 1.71.582 2.434.216l.63-.322c.704-.37.868-.46 1.466-.318.28.069.508.249.741.429.381.301.778.614 1.46.46.985-.222 2.71-1.35 2.71-2.503a8.98 8.98 0 0 0-9.44 2.032z"/>
    <defs>
        <linearGradient id="VCORE__a" x1="3.559" x2="20.028" y1="12.469" y2="9.908" gradientUnits="userSpaceOnUse">
            <stop stop-color="#D3A955"/>
            <stop offset=".24" stop-color="#CEA651"/>
            <stop offset=".46" stop-color="#FFD57E"/>
            <stop offset=".75" stop-color="#FBD072"/>
            <stop offset="1" stop-color="#FCC766"/>
        </linearGradient>
        <linearGradient id="VCORE__b" x1="16.462" x2="20.224" y1="14.845" y2="17.708" gradientUnits="userSpaceOnUse">
            <stop stop-color="#BC8E3A"/>
            <stop offset="1" stop-color="#79622D"/>
        </linearGradient>
    </defs>
</svg>
