<svg xmlns="http://www.w3.org/2000/svg" width="24" height="24" fill="none" viewBox="0 0 24 24">
    <path fill="url(#VIS__a)" d="M12 19.059A7.059 7.059 0 1 0 12 4.94a7.059 7.059 0 0 0 0 14.118"/>
    <path fill="url(#VIS__b)" fill-rule="evenodd" d="m6.153 11.365 1.7-2.265a.06.06 0 0 0-.006-.076l-.218-.218a.06.06 0 0 1 0-.082l1.706-1.706A.06.06 0 0 1 9.376 7h.836a.06.06 0 0 0 .04-.012l1.571-1.312c.047-.035.118.012.089.071l-.489 1.218a.06.06 0 0 0 .012.059c.106.129.27.429.27.858 0 .589 0 1.177-.293 1.47-.224.225-.942.442-1.653.666l-.683.211a.06.06 0 0 0-.03.024l-.558.835a.06.06 0 0 0 0 .059l.259.524a.06.06 0 0 1-.012.064l-.823.824a.06.06 0 0 1-.071 0l-1.67-1.118a.06.06 0 0 1-.018-.076m2.023-2.6.294.294.295-.588zM11 14.076l6.294-7.664 1.765 2.647-6.694 4.741c.235.053.47.153.658.294l6.036-3.565v2.353l-5.453 1.912c.076.177.135.37.153.577l4.706-1.312v2.059h-4.8c-.078.219-.198.42-.353.594l4.57.288-.882.882-4.047-.864-.159.088 2.735 1.365-1.176.294-2.647-1.47.047-.019a1.765 1.765 0 0 1-.753-3.2m2.176 1.453a1.177 1.177 0 1 1-2.353 0 1.177 1.177 0 0 1 2.353 0m-3.235.294-1.47 1.765 2.352 1.177h2.647c-.264-.177-.647-.371-1.07-.588-.518-.265-1.094-.56-1.577-.883a1.94 1.94 0 0 1-.882-1.47m.294-1.176 4.118-5.294L12 7.883c0 .782-.412 2.411-2.059 2.646.294 1.077.294 3.236.294 4.118M12 16.117a.588.588 0 1 0 0-1.176.588.588 0 0 0 0 1.177" clip-rule="evenodd"/>
    <path fill="#7A4500" d="m5.947 13.2.26 1.37.805-1.37h.412L6.37 14.924H5.9L5.53 13.2zm2.106 0-.347 1.724h-.388l.341-1.724zm.77 1.741a.9.9 0 0 1-.476-.118.37.37 0 0 1-.182-.394h.4a.19.19 0 0 0 .059.171.34.34 0 0 0 .218.065.4.4 0 0 0 .223-.053.18.18 0 0 0 .082-.153c0-.06-.029-.106-.088-.147a1.2 1.2 0 0 0-.265-.118 3 3 0 0 1-.27-.118.6.6 0 0 1-.177-.14.37.37 0 0 1-.07-.236q0-.16.088-.276a.57.57 0 0 1 .259-.183 1 1 0 0 1 .37-.065c.136 0 .26.024.353.06a.5.5 0 0 1 .236.176.38.38 0 0 1 .059.259H9.23v-.03c0-.059-.018-.1-.065-.135a.3.3 0 0 0-.188-.053.37.37 0 0 0-.212.059.17.17 0 0 0-.082.147q.001.06.047.106c.03.03.064.058.117.082l.189.082.27.118q.104.058.177.153a.34.34 0 0 1 .076.235.4.4 0 0 1-.094.26.6.6 0 0 1-.253.181 1.1 1.1 0 0 1-.382.065z"/>
    <path fill="url(#VIS__c)" fill-rule="evenodd" d="M12 19.059A7.06 7.06 0 1 0 12 4.94a7.06 7.06 0 0 0 0 14.119M12 22a10 10 0 1 0 0-20 10 10 0 0 0 0 20" clip-rule="evenodd"/>
    <path fill="url(#VIS__d)" fill-rule="evenodd" d="M19.353 12a7.353 7.353 0 1 1-14.706 0 7.353 7.353 0 0 1 14.706 0M12 21.706a9.705 9.705 0 1 0 0-19.41 9.705 9.705 0 0 0 0 19.41M19.059 12a7.06 7.06 0 1 1-14.12 0 7.06 7.06 0 0 1 14.12 0M22 12a10 10 0 1 1-20 0 10 10 0 0 1 20 0" clip-rule="evenodd"/>
    <defs>
        <linearGradient id="VIS__a" x1="12" x2="12" y1="2" y2="22" gradientUnits="userSpaceOnUse">
            <stop stop-color="#F0D242"/>
            <stop offset=".2" stop-color="#FEF76F"/>
            <stop offset=".54" stop-color="#E1AF1B"/>
            <stop offset="1" stop-color="#C27800"/>
        </linearGradient>
        <linearGradient id="VIS__b" x1="11.996" x2="11.996" y1="2.001" y2="22" gradientUnits="userSpaceOnUse">
            <stop stop-color="#B76A00"/>
            <stop offset="1" stop-color="#603800"/>
        </linearGradient>
        <linearGradient id="VIS__c" x1="12" x2="12" y1="2" y2="22" gradientUnits="userSpaceOnUse">
            <stop stop-color="#C68A00"/>
            <stop offset=".53" stop-color="#FCF571"/>
            <stop offset="1" stop-color="#B27801"/>
        </linearGradient>
        <linearGradient id="VIS__d" x1="12" x2="12" y1="2" y2="22" gradientUnits="userSpaceOnUse">
            <stop stop-color="#AE714D"/>
            <stop offset=".17" stop-color="#823300"/>
            <stop offset=".53" stop-color="#F6EC27"/>
            <stop offset="1" stop-color="#E4B000"/>
        </linearGradient>
    </defs>
</svg>
