<svg xmlns="http://www.w3.org/2000/svg" width="24" height="24" fill="none" viewBox="0 0 24 24">
    <path fill="#2C3852" d="M14.221 8.11H9.777L7 11.444l5 4.444 5-4.444z"/>
    <path fill="#2C3852" fill-rule="evenodd" d="M17.611 9.932a1.63 1.63 0 0 1 0 2.328l-4.344 4.278a1.695 1.695 0 0 1-2.344.022l-4.511-4.267a1.627 1.627 0 0 1 .011-2.388L9.117 7.42a1.7 1.7 0 0 1 1.145-.444h3.666c.44 0 .867.178 1.178.483l2.511 2.472zm-7.344-4.6h3.667a3.35 3.35 0 0 1 2.36.967l2.512 2.467a3.256 3.256 0 0 1 0 4.655l-4.35 4.278a3.39 3.39 0 0 1-4.683.05l-4.516-4.267a3.255 3.255 0 0 1 .027-4.777L7.98 6.22a3.38 3.38 0 0 1 2.288-.888" clip-rule="evenodd"/>
    <path fill="#2C3852" fill-rule="evenodd" d="M9.862 3.11h4.405a5.58 5.58 0 0 1 4.105 1.8l2.172 2.367a5.5 5.5 0 0 1-.172 7.633l-4.389 4.36a5.59 5.59 0 0 1-7.81.056l-4.489-4.338a5.5 5.5 0 0 1-.139-7.783l2.295-2.39A5.58 5.58 0 0 1 9.862 3.11m0 1.656h4.405a3.9 3.9 0 0 1 2.872 1.26l2.172 2.367a3.85 3.85 0 0 1-.122 5.345l-4.389 4.36a3.91 3.91 0 0 1-5.46.04l-4.49-4.34a3.85 3.85 0 0 1-.1-5.443l2.295-2.39a3.9 3.9 0 0 1 2.817-1.2" clip-rule="evenodd"/>
</svg>
