<svg xmlns="http://www.w3.org/2000/svg" width="24" height="24" fill="none" viewBox="0 0 24 24">
    <path fill="url(#WALLET__a)" d="m17.2 14.4-2.4-2.6-3.6 3V20z"/>
    <path fill="url(#WALLET__b)" d="M10.4 10.8 9.2 9 7 11l.8 1.4 2.2-.8z"/>
    <path fill="url(#WALLET__c)" d="M11.6 8.4V4L14 9.6z"/>
    <path fill="url(#WALLET__d)" d="m14 9.6-2.4-1.2L6.8 15l3.2 3.4z"/>
    <path fill="url(#WALLET__e)" d="M14.8 11.8V10l2.4 4.4z"/>
    <path fill="url(#WALLET__f)" d="m9.2 9 .8-3-3 5z"/>
    <defs>
        <linearGradient id="WALLET__a" x1="17.686" x2="7.41" y1="9.409" y2="10.689" gradientUnits="userSpaceOnUse">
            <stop stop-color="#5C02FF"/>
            <stop offset=".79" stop-color="#5402DB"/>
            <stop offset="1" stop-color="#35077D"/>
        </linearGradient>
        <linearGradient id="WALLET__b" x1="15.646" x2="6.856" y1="11.398" y2="12.519" gradientUnits="userSpaceOnUse">
            <stop stop-color="#35028B"/>
            <stop offset=".31" stop-color="#5704E7"/>
            <stop offset="1" stop-color="#4101BA"/>
        </linearGradient>
        <linearGradient id="WALLET__c" x1="7.025" x2="10.824" y1="4" y2="21.735" gradientUnits="userSpaceOnUse">
            <stop stop-color="#7412FD"/>
            <stop offset="1" stop-color="#9A39FC"/>
        </linearGradient>
        <linearGradient id="WALLET__d" x1="14.918" x2="9.397" y1="4.276" y2="19.434" gradientUnits="userSpaceOnUse">
            <stop stop-color="#6001FF"/>
            <stop offset="1" stop-color="#7E1FFF"/>
        </linearGradient>
        <linearGradient id="WALLET__e" x1="7.459" x2="14.06" y1="6.08" y2="20.47" gradientUnits="userSpaceOnUse">
            <stop stop-color="#7D2BD8"/>
            <stop offset="1" stop-color="#A35CEA"/>
        </linearGradient>
        <linearGradient id="WALLET__f" x1="10.172" x2="7.012" y1="6.284" y2="10.808" gradientUnits="userSpaceOnUse">
            <stop stop-color="#7416F0"/>
            <stop offset="1" stop-color="#9A43FF"/>
        </linearGradient>
    </defs>
</svg>
