<svg width="24" height="24" viewBox="0 0 24 24" fill="none" xmlns="http://www.w3.org/2000/svg">
<path d="M6.80092 18.8179C6.39537 18.5401 5.98981 18.6884 5.78647 18.919C5.4898 19.2545 5.62425 19.6651 5.78647 19.8412C8.10703 21.6896 10.7837 21.9845 12.1365 21.9996C14.6621 22.0273 17.4976 20.6885 18.5993 20.0162C18.8337 19.8729 19.1181 19.4701 18.806 19.0124C18.4937 18.5552 17.956 18.6923 17.7271 18.8179C16.8237 19.3807 14.4415 20.5062 12.137 20.5062C9.26482 20.5062 7.32037 19.174 6.80536 18.8212L6.80092 18.8179Z" fill="white"/>
<path d="M6.72234 5.33333C7.64282 5.33333 8.38901 4.58714 8.38901 3.66667C8.38901 2.74619 7.64282 2 6.72234 2C5.80185 2 5.05566 2.74619 5.05566 3.66667C5.05566 4.58714 5.80185 5.33333 6.72234 5.33333Z" fill="white"/>
<path d="M18.0566 2.08452C18.3827 1.92841 18.7261 2.00619 18.8272 2.17897C19.0127 2.49563 18.8399 2.69674 18.731 2.76119L16.9244 3.64675C17.4188 3.89119 18.461 4.40675 18.68 4.51341C18.9544 4.64675 19.0278 4.90064 18.8411 5.16898C18.7144 5.35231 18.3511 5.37342 18.181 5.27675L15.9405 4.16564C15.7905 4.09064 15.6199 3.93175 15.6111 3.66786C15.6027 3.40397 15.7944 3.18897 15.9405 3.11786C16.5105 2.83841 17.7306 2.24119 18.0566 2.08452Z" fill="white"/>
<path d="M11.157 16.5096L12.4347 12.5107L14.0148 16.6001C14.1571 16.9661 14.4375 17.2614 14.7954 17.4226C15.1533 17.5839 15.5603 17.5982 15.9287 17.4624C16.1836 17.3686 16.4071 17.205 16.5737 16.9903C16.7403 16.7758 16.8432 16.5187 16.8709 16.2484L18.891 8.87405C18.9424 8.68771 18.9563 8.49302 18.9318 8.30128C18.9074 8.10956 18.8451 7.92459 18.7485 7.75716C18.6519 7.58972 18.5231 7.44315 18.3693 7.32597C18.2156 7.20879 18.0402 7.12332 17.8531 7.07457C17.4733 6.97561 17.0699 7.03004 16.73 7.22609C16.3901 7.42216 16.141 7.74409 16.0365 8.12234L15.1498 11.3574L13.8359 7.95568C13.7155 7.64664 13.496 7.38625 13.2119 7.21526C12.9276 7.04426 12.5947 6.97232 12.2653 7.01067C11.9361 6.99389 11.6103 7.08629 11.339 7.27354C11.0675 7.46079 10.8654 7.73241 10.7642 8.04624L9.63366 11.5834L8.5031 8.04679C8.38266 7.67308 8.12014 7.36171 7.77218 7.17983C7.42421 6.99794 7.01869 6.96013 6.6431 7.07457C6.45839 7.13079 6.28672 7.22321 6.1381 7.34645C5.98947 7.46969 5.86686 7.62128 5.77741 7.79238C5.68795 7.96348 5.63344 8.15067 5.61707 8.34305C5.60068 8.53542 5.62274 8.72914 5.68198 8.91294L8.11087 16.509C8.2132 16.8262 8.41843 17.1002 8.69405 17.2876C8.96969 17.475 9.29996 17.565 9.63255 17.5434C9.96555 17.5657 10.2964 17.476 10.5726 17.2887C10.8487 17.1014 11.0544 16.8271 11.157 16.5096Z" fill="#D1AA11"/>
</svg>
