<svg xmlns="http://www.w3.org/2000/svg" width="24" height="24" fill="none" viewBox="0 0 24 24">
    <path fill="url(#WITCH__a)" fill-rule="evenodd" d="M21.042 4.182a1.495 1.495 0 0 1 .824 2.013l-5.708 12.236a1.55 1.55 0 0 1-.924 1.077 1.65 1.65 0 0 1-2.125-.783L7.294 6.195a1.495 1.495 0 0 1 .824-2.013c.212-.088.43-.13.642-.13h6.362c.883 0 1.589.66 1.589 1.472s-.706 1.471-1.59 1.471h-3.925l3.39 7.31 4.332-9.34a1.65 1.65 0 0 1 2.119-.783zm-10.787.783a1.7 1.7 0 0 0-.206-.324h5.073c.53 0 1 .395 1 .883 0 .489-.47.883-1 .883H10.92zm4.684 10.105 4.567-9.858a.99.99 0 0 1 1.277-.47c.489.205.707.747.495 1.206L15.98 17.307zM8.39 4.741c.488-.206 1.06.006 1.271.471l5.809 12.53c.218.465 0 1-.494 1.207-.489.206-1.06-.006-1.277-.471l-5.81-12.53c-.211-.46.007-1 .5-1.207m-6.256 1.76a1.495 1.495 0 0 1 .83-2.013 1.65 1.65 0 0 1 2.124.783l5.809 12.53a1.494 1.494 0 0 1-.824 2.013 1.65 1.65 0 0 1-2.13-.783L2.132 6.495zm1.089-1.454c.488-.206 1.059.006 1.277.471l5.809 12.53c.211.46-.006 1-.5 1.207-.49.206-1.06-.006-1.272-.471L2.727 6.254c-.218-.465 0-1 .495-1.207" clip-rule="evenodd"/>
    <defs>
        <linearGradient id="WITCH__a" x1="2.645" x2="21.037" y1="6.495" y2="6.495" gradientUnits="userSpaceOnUse">
            <stop stop-color="#72F6FD"/>
            <stop offset=".53" stop-color="#1B67FF"/>
            <stop offset="1" stop-color="#8B3BEF"/>
        </linearGradient>
    </defs>
</svg>
