<svg xmlns="http://www.w3.org/2000/svg" width="24" height="24" fill="none" viewBox="0 0 24 24">
    <path fill="#fff" d="M12.006 17.294a1.765 1.765 0 1 0 0-3.53 1.765 1.765 0 0 0 0 3.53"/>
    <path fill="#fff" d="M16.453 18.224c-.694-.4-1.565-.177-2.247.24-.586.36-1.26.55-1.947.548a3.55 3.55 0 0 1-3.624-3.482 3.55 3.55 0 0 1 3.624-3.483c.692-.002 1.37.19 1.959.553.723.453 1.676.677 2.376.194.688-.47.87-1.435.247-2a6.84 6.84 0 0 0-4.588-1.735c-3.7 0-6.718 2.894-6.718 6.47C5.535 19.107 8.547 22 12.26 22a6.83 6.83 0 0 0 4.53-1.694c.676-.588.44-1.63-.336-2.082"/>
    <path fill="#E5B909" d="M21.123 6.53c.394-.377.394-.989-.03-1.336A14.46 14.46 0 0 0 11.948 2a14.47 14.47 0 0 0-9.03 3.1.876.876 0 0 0-.046 1.335c.4.389 1.058.395 1.506.053 2.058-1.594 4.694-2.552 7.57-2.552 2.924 0 5.6.988 7.67 2.629.442.353 1.1.353 1.5-.035zm-2.529 2.417c.4-.376.4-.982-.03-1.317a10.72 10.72 0 0 0-6.611-2.242c-2.47 0-4.747.812-6.524 2.171-.435.33-.44.941-.053 1.318.4.394 1.06.394 1.518.058a8.6 8.6 0 0 1 5.059-1.611 8.56 8.56 0 0 1 5.123 1.67c.46.336 1.118.341 1.524-.047zm-2.876 3.147c.388-.376.394-.976-.047-1.288a6.45 6.45 0 0 0-3.724-1.159c-1.37 0-2.635.412-3.665 1.118-.447.312-.447.912-.058 1.288.4.394 1.07.382 1.57.094a4.32 4.32 0 0 1 4.347.024c.494.294 1.165.312 1.57-.077z"/>
</svg>
