<svg xmlns="http://www.w3.org/2000/svg" width="24" height="24" fill="none" viewBox="0 0 24 24">
    <path fill="#1EAB89" fill-rule="evenodd" d="M13.66 8.309a2.926 2.926 0 0 0 .994-3.5A2.934 2.934 0 0 0 9.01 5.931a2.93 2.93 0 0 0 1.34 2.463l.006.013a1.418 1.418 0 0 1-1.412 2.442 1.4 1.4 0 0 1-.478-.34L8.45 10.5l-.02-.033a1.4 1.4 0 0 1-.166-.24 2.93 2.93 0 0 0-4.403-.292 2.933 2.933 0 0 0 .952 4.782 2.935 2.935 0 0 0 3.573-1.097l.027-.01a1.42 1.42 0 1 1 1.614 2.236v.005a2.92 2.92 0 0 0-.792 3.34A2.93 2.93 0 0 0 11.944 21a2.932 2.932 0 0 0 1.576-5.404l.013-.003-.001-.008a1.455 1.455 0 0 1 .341-2.564 1.46 1.46 0 0 1 1.692.542l.015.003a2.934 2.934 0 1 0 4.56-3.63 2.933 2.933 0 0 0-4.4.286 1.456 1.456 0 1 1-2.083-1.908zm-.028-2.378a1.686 1.686 0 0 1-2.334 1.56 1.686 1.686 0 0 1 .646-3.247 1.686 1.686 0 0 1 1.688 1.687m4.434 7.764a1.686 1.686 0 1 0 0-3.373 1.68 1.68 0 0 0-1.194.493 1.69 1.69 0 0 0-.366 1.84 1.69 1.69 0 0 0 1.56 1.04M7.623 12.008a1.688 1.688 0 1 1-3.377 0 1.688 1.688 0 0 1 3.377 0m4.32 7.748a1.689 1.689 0 0 0 1.194-2.88 1.688 1.688 0 1 0-1.193 2.88M13.19 5.93a1.245 1.245 0 0 1-2.399.476 1.246 1.246 0 1 1 2.399-.476m-1.246 13.382a1.245 1.245 0 1 0-.001-2.49 1.245 1.245 0 0 0 0 2.49m7.367-7.305a1.25 1.25 0 0 1-.769 1.15 1.25 1.25 0 0 1-1.357-.27 1.244 1.244 0 0 1 .882-2.126 1.246 1.246 0 0 1 1.244 1.246M5.933 13.253a1.25 1.25 0 0 0 1.151-.768 1.245 1.245 0 1 0-1.15.768" clip-rule="evenodd"/>
</svg>
