<svg xmlns="http://www.w3.org/2000/svg" width="24" height="24" fill="none" viewBox="0 0 24 24">
    <path fill="url(#WOJAK__a)" d="M7.796 13.284v5.738H5.072v-5.733h-.72l2.186-3.102 1.938 3.102h-.68z"/>
    <path fill="url(#WOJAK__b)" d="m6.542 9.853 2.267 3.702h-.81v5.689H4.89v-5.69H4zm-1.84 3.257h.631v5.765h2.223V13.11h.59l-1.622-2.6z"/>
    <path fill="url(#WOJAK__c)" d="M18.089 12.382v1.186h-1.343v-1.186h-.72l1.645-3.458 1.502 3.458z"/>
    <path fill="url(#WOJAK__d)" d="m17.84 8.457 1.657 4.107h-1.449v1.244H16.79v-1.244h-.889zm-1.24 3.742h.55v1.245h.534v-1.245h1.155L17.821 9.11l-1.217 3.09z"/>
    <path fill="#6ABD3A" d="M12.044 4.223 13.7 8.329h-1.448v1.25H10.99V8.333h-.89l1.938-4.111zm-1.245 3.742h.552v1.244h.542V7.965h1.155l-1.022-3.089-1.222 3.089z"/>
    <path fill="url(#WOJAK__e)" d="M18.488 8.467v9.143h-2.724V8.467h-.72l2.187-3.102 1.942 3.102z"/>
    <path fill="url(#WOJAK__f)" d="m17.24 5.04 2.257 3.626h-.83v9.124h-3.08V8.666h-.89zm-1.846 3.18h.551v9.2h2.276v-9.2h.622l-1.622-2.529-1.823 2.53z"/>
    <path fill="url(#WOJAK__g)" d="M10.098 18.03v1.432h-2.72V18.03h-.72l2.187-3.102 1.938 3.102z"/>
    <path fill="url(#WOJAK__h)" d="m8.845 14.605 2.267 3.608h-.832v1.338H7.113v-1.333h-.81zm-1.84 3.244h.551v1.333H9.92V17.85h.534l-1.627-2.591z"/>
    <path fill="url(#WOJAK__i)" d="M19.858 17.844v1.697H17.13v-.755h-.72l2.187-3.102z"/>
    <path fill="url(#WOJAK__j)" d="m18.604 15.36 1.37 2.19-.125 2.045h-2.903v-.622h-.888zm-1.844 3.244h.546v.622h2.37v-.622l-.072-.965-1.022-1.626z"/>
    <path fill="#028A08" d="M17.724 17.347c.311-.01 1.956.057 2.276.093v2.338H4.889v-.92l2.675-.098.29-.209c.115-.062.355-.2.39-.231.054-.036.57-.2.596-.222l.155-.187.116-.062.222-.369.116-.218.222-.435c.049-.085.062-.178.102-.365a1.3 1.3 0 0 0 0-.444l.125-.311-.045-.267-.169-.791a2.4 2.4 0 0 0-.209-.622l-.369-.56-.413-.418-.28-.502-.2-.387-.169-.267-.15-.302c-.045-.195-.16-.67-.223-1.022a4 4 0 0 1-.045-.858l.045-.333v-.596l.102-.453.058-.484.053-.245c.067-.138.196-.422.2-.444l.178-.356c.013-.04.391-.253.578-.355a1.5 1.5 0 0 0 .23-.134c.019-.009.268-.235.392-.342l.604-.418.431-.098.89-.226c.302-.022 1-.062 1.4-.067.4 0 .857.165 1.04.245l1.577.822c.142.089.467.329.653.578.183.28.325.586.423.906l.12.41.28.266c.07.115.209.35.209.378 0 .026.044.222.062.324l.195.222-.058.578.058.409a.5.5 0 0 0 .071.124c.023.022.303.405.4.578.08.133.107.565.111.756-.008.075-.026.23-.048.257-.027.04-.098.472-.13.53-.021.044-.03.24-.03.328l-.258.578c-.045.133-.134.4-.134.422l.067.605-.369.613-.142.333a.5.5 0 0 1-.08.134 3 3 0 0 1-.195.12c-.018.004-.165.137-.187.146-.018 0-.298.231-.431.347l-.116.035-.12-.035v.12l-.07.267.057.422c.053.098.164.298.182.31.022.023.08.059.125.059l.515.048c.013 0 .302-.044.369-.044.062 0 .4.009.791 0z"/>
    <path fill="#070006" d="M11.613 5.258q-.766.175-1.529.373l-.066.022-.187.134q-.256.2-.502.408l-.054.045q-.06.049-.124.098l-.013.009-.16.07a6 6 0 0 1-.254.196 2 2 0 0 1-.266.174.57.57 0 0 0-.276.284q-.06.23-.164.444l-.143.294v.458l-.008.035a2 2 0 0 0-.09.187 1 1 0 0 0-.044.23v.539c0 .15-.013.24-.026.315l-.01.054a1 1 0 0 0-.026.168 2.5 2.5 0 0 0 .044.472q.038.267.08.533c.032.2.156.715.218.96q.102.163.214.32a.4.4 0 0 1 .08.155v.01c.017.048.026.084.044.11.062.08.178.28.236.445a.4.4 0 0 0 .066.115c.031.045.076.09.116.134.089.089.178.168.222.2.264.254.474.56.618.897.07.294.222.934.249 1.125.022.178.08.369.11.444a.1.1 0 0 1-.004.054q-.08.17-.133.35a.3.3 0 0 0-.018.116l-.004.111v.054c-.005.11-.014.24-.05.342-.052.142-.16.364-.208.471a.7.7 0 0 1-.031.173.2.2 0 0 1-.045.063v.004l-.013.013-.027.04q-.121.184-.222.383a.07.07 0 0 1-.053.03 2 2 0 0 0-.125.023l-.013.018a1 1 0 0 0-.062.089l.28-.045c.035 0 .067.022.071.058a.06.06 0 0 1-.053.071q-.268.036-.534.08c-.017 0-.062.022-.12.044l-.137.067h-.005a7 7 0 0 0-.542.24 1 1 0 0 0-.147.13.7.7 0 0 1-.2.128q-.171.038-.346.053c-.134.01-2.156.067-2.245.063a.063.063 0 0 1-.062-.063.06.06 0 0 1 .062-.062q1.212-.035 2.422-.084a.4.4 0 0 0 .125-.027.5.5 0 0 0 .164-.107l.036-.03a1 1 0 0 1 .12-.103c.049-.04.16-.089.266-.133l.298-.12q.138-.064.28-.12l.102-.018q.074-.114.156-.222a.1.1 0 0 1 .031-.023q.066-.018.133-.03a11 11 0 0 1 .276-.44h.004l.005-.018a.6.6 0 0 0 .022-.143q.12-.243.218-.497c.031-.08.035-.192.044-.303v-.049q.007-.131.023-.262c.026-.111.097-.266.133-.346a2.3 2.3 0 0 1-.107-.454c-.022-.178-.169-.8-.244-1.098a12 12 0 0 0-.222-.426 4 4 0 0 0-.347-.41 2 2 0 0 1-.365-.355.6.6 0 0 1-.088-.15 1.8 1.8 0 0 0-.214-.414.5.5 0 0 1-.062-.142v-.014a.3.3 0 0 0-.053-.106 6 6 0 0 1-.245-.365 16 16 0 0 1-.244-1.124l-.062-.396a4 4 0 0 1-.045-.497l.031-.192.01-.044a1.4 1.4 0 0 0 .026-.293v-.534a1 1 0 0 1 .142-.47v-.49q.076-.156.156-.31.125-.244.19-.507l.08-.107a.8.8 0 0 1 .232-.173c.049-.023.142-.08.24-.156q.136-.1.266-.209l.16-.067.01-.004q.056-.042.11-.089l.054-.044q.252-.209.506-.414c.09-.062.16-.12.2-.142l.094-.035.15-.045.44-.107q.48-.114.96-.222c.21-.013.72-.044 1.09-.044.33-.01.656.062.95.209l.107.044q.426.167.827.382l.133.071.17.08c.08.027.235.116.4.21.16.097.337.208.453.293.066.049.133.124.204.204.256.319.46.676.605 1.058v.004l.115.431q.145.101.271.223a.4.4 0 0 1 .071.097l.058.125.036.08q.044.107.11.2.017.019.018.044v.28l.156.16q.02.022.022.045v.43c0 .059-.013.116-.022.16l-.009.036c-.004.05 0 .076.018.103.031.04.036.084.031.12l-.009.053-.009.031.005.058c.004.018.022.04.062.066a.8.8 0 0 1 .231.272l.107.209.049.102a1 1 0 0 1 .07.222l.036.267.023.222.004.08v.018l.009.013v.004l.018.045c.004.035 0 .08-.023.142l-.03.071-.01.018-.013.022a.3.3 0 0 0-.009.102.7.7 0 0 1-.062.276l-.004.022-.01.036-.017.044-.005.022q-.039.116-.07.231v.01a.1.1 0 0 1 0 .057l-.005.049-.04.12-.098.227-.004.004a1.6 1.6 0 0 0-.116.231.8.8 0 0 0-.075.28c0 .182.035.551.057.72 0 .018 0 .036-.013.045-.044.062-.142.195-.187.284a.4.4 0 0 1-.066.102l-.045.045-.04.044a.37.37 0 0 0-.102.191 1.3 1.3 0 0 1-.062.258.4.4 0 0 1-.045.089.17.17 0 0 1-.08.067l-.146.062a.4.4 0 0 0-.134.098c-.017.03-.049.058-.084.089q-.054.043-.111.084l-.022.018c-.072.053-.134.098-.17.133a.64.64 0 0 1-.235.156.065.065 0 0 1-.089-.045l-.026-.009q.012.06.017.12c0 .023 0 .05-.013.076v.004c-.031.058-.067.12-.049.191q.05.206.058.418l.013.031q.06.105.134.2h.146l.125-.009c.049 0 .115.018.177.032l.138.044.445-.071h.009l2.43.089h.467a.06.06 0 0 1 .063.062.06.06 0 0 1-.063.062h-.47l-2.423-.089-.449.076h-.035a2 2 0 0 0-.29-.076h-.115l-.071.01q-.072-.001-.142-.01a.1.1 0 0 1-.031-.017 2 2 0 0 1-.187-.298v-.031l-.009-.054a5 5 0 0 0-.044-.333c-.036-.124.026-.231.053-.28v-.009l.004-.013a1 1 0 0 0-.013-.094 9 9 0 0 1-.831.13 1.1 1.1 0 0 1-.444-.054 1 1 0 0 0-.254-.044.7.7 0 0 1-.293-.076l-.111-.058h-.005a1.2 1.2 0 0 1-.284-.178l-.258-.2a3 3 0 0 0-.289-.195 1 1 0 0 0-.257-.116 1.6 1.6 0 0 1-.29-.115c-.115-.058-.24-.134-.373-.21a15 15 0 0 1-.693-.453 4 4 0 0 1-.409-.377.4.4 0 0 1-.089-.133 6 6 0 0 1-.147-.378 5 5 0 0 0-.146-.347 16 16 0 0 1-.151-.644v-.307a.06.06 0 0 1 .062-.062c.031 0 .062.026.062.062v.302q.075.338.165.671l.013.018.013.022.031.062.067.178.022.067.12.302q.09.126.2.236c.09.088.191.177.258.222q.516.356 1.062.662c.107.058.2.094.258.107a1 1 0 0 1 .293.129c.103.057.205.133.303.204l.186.142.071.058q.123.1.267.165h.005a.6.6 0 0 0 .106.057.5.5 0 0 0 .24.063c.102 0 .196.026.29.048l.044.014c.11.026.222.049.355.035a7 7 0 0 0 .867-.142.27.27 0 0 1 .169 0 .1.1 0 0 1 .04.027.6.6 0 0 0 .146-.107q.098-.091.21-.164a2 2 0 0 0 .168-.147.5.5 0 0 1 .178-.133c.062-.036.124-.058.16-.072 0 0 .009 0 .018-.017a.3.3 0 0 0 .03-.062q.034-.089.054-.232a.53.53 0 0 1 .133-.257l.045-.045q.046-.055.089-.115c.044-.094.133-.223.182-.29a6 6 0 0 1-.053-.71c.004-.103.044-.223.084-.325q.165-.284.258-.6a.2.2 0 0 1-.01-.053c0-.022.01-.044.014-.062l.036-.125.03-.089.023-.057v-.005l.009-.027c0-.008 0-.017.009-.026v-.014l.022-.053a.7.7 0 0 0 .027-.169c0-.075.009-.115.026-.155l.014-.031.03-.072c.019-.053.019-.07.019-.075l-.005-.013-.013-.032a1 1 0 0 1-.013-.128l-.023-.223a3 3 0 0 0-.035-.253.8.8 0 0 0-.058-.191l-.053-.111q-.047-.102-.098-.191a.7.7 0 0 0-.2-.231.3.3 0 0 1-.102-.13.24.24 0 0 1-.01-.12l.005-.04V10.2l.01-.031c0-.014 0-.023-.01-.027a.26.26 0 0 1-.035-.2l.009-.058a.5.5 0 0 0 .013-.12v-.4l-.156-.164a.07.07 0 0 1-.022-.045v-.288a1.1 1.1 0 0 1-.155-.298l-.045-.111a.3.3 0 0 0-.053-.063 2 2 0 0 0-.271-.222.07.07 0 0 1-.027-.035l-.12-.445-.16-.39a6 6 0 0 0-.422-.632 1 1 0 0 0-.178-.182 6.4 6.4 0 0 0-1.142-.645l-.147-.075a10 10 0 0 0-.666-.311l-.112-.04a4 4 0 0 0-.395-.138 2 2 0 0 0-.507-.058c-.36 0-.866.027-1.075.045z"/>
    <path fill="#070006" d="M11.608 16.934a.06.06 0 0 1-.003.048.06.06 0 0 1-.037.032l-.4.133a8 8 0 0 0-.186.23l-.022.068-.014.035c-.018.049-.04.116-.075.178l-.072.142q-.052.099-.106.196a.1.1 0 0 1-.045.03q-.112.019-.226.032a.06.06 0 0 1-.066-.036l-.005-.026c0-.036.022-.067.057-.067a4 4 0 0 0 .196-.022l.013-.018a1 1 0 0 0 .067-.138c.027-.053.053-.115.08-.155a.8.8 0 0 0 .075-.192l.031-.088.04-.058q.097-.12.205-.231l.413-.134c.036-.013.072.005.08.04m4.596-2.578a3 3 0 0 1-.267.07 1.6 1.6 0 0 0-.32.107l-.044.023c-.018 0-.031.009-.045.013a.1.1 0 0 1-.035.009.13.13 0 0 1-.058-.018.2.2 0 0 1-.058-.036 1 1 0 0 0-.11 0q-.239.076-.48.13h-.023l-.067-.01a1 1 0 0 1-.133-.044 2 2 0 0 0-.44-.022h-.062a.1.1 0 0 1-.01.04.1.1 0 0 1-.03.04 1 1 0 0 1-.094.044.06.06 0 0 1-.05.001.06.06 0 0 1-.034-.036.06.06 0 0 1 .001-.048.06.06 0 0 1 .034-.032l.054-.027v-.013c0-.014 0-.045.018-.067a.09.09 0 0 1 .075-.031h.089q.171-.006.342 0a.4.4 0 0 1 .151.031q.076.03.156.044a10 10 0 0 0 .52-.133 1 1 0 0 1 .107.005h.017a.1.1 0 0 1 .031.013l.01.005.004.004a.3.3 0 0 0 .04.03l.075-.03.054-.022a1.4 1.4 0 0 1 .289-.098q.116-.024.23-.058a.07.07 0 0 1 .05-.027h.03q.125.082.24.174c.023.027.027.066.005.089a.06.06 0 0 1-.067.024l-.022-.011a3 3 0 0 0-.178-.133zm-1.885-1.605a.07.07 0 0 1-.013.09c-.053.035-.178.12-.236.15a.4.4 0 0 1-.11.036h-.036v.004l-.009.04.004.09.023.048.075.107a.4.4 0 0 0 .12.075.7.7 0 0 0 .147.05.064.064 0 0 1 .047.077.064.064 0 0 1-.078.047 1 1 0 0 1-.17-.058.44.44 0 0 1-.164-.116l-.084-.115a.3.3 0 0 1-.04-.094.6.6 0 0 1 .004-.186.12.12 0 0 1 .045-.071.2.2 0 0 1 .053-.018l.031-.005h.01l.075-.026c.053-.027.164-.103.222-.143a.06.06 0 0 1 .084.018m.89-1.533a.06.06 0 0 1 .046.017.06.06 0 0 1 .02.045l.018.054q.014.052.062.16a1 1 0 0 0 .155.266l.032.045.004.008.027.023.075.057.01.005c.061.044.137.107.195.164.08.08.23.165.302.2a.07.07 0 0 1 .035.045.7.7 0 0 1 0 .235c-.017.094-.08.258-.106.325a.06.06 0 0 1-.08.036.062.062 0 0 1-.036-.085 2 2 0 0 0 .098-.298.5.5 0 0 0 .005-.16 1.5 1.5 0 0 1-.303-.204 2 2 0 0 0-.186-.156l-.01-.004a3 3 0 0 1-.133-.12l-.022-.022a1.34 1.34 0 0 1-.267-.57c0-.03.027-.062.058-.066m-.809 2.204c.036.062.249.067.267.062l.177-.044c.076-.018.063-.156.08-.209.014-.044-.062-.124-.12-.155-.057-.036-.204.004-.275.03a.4.4 0 0 0-.178.156c-.027.045.009.094.045.16zm1.084-.28c0 .071.134.142.151.142l.143.014c.053.009.102-.12.133-.16.031-.045.013-.133-.013-.183-.027-.048-.138-.057-.2-.057a.33.33 0 0 0-.183.089c-.035.035-.03.089-.03.155m-2-2.475c.036 0 .058.03.058.066a4 4 0 0 1-.044.28c-.014.054-.058.085-.094.107l-.115.058a.4.4 0 0 1-.107.027 1.6 1.6 0 0 1-.306.017 1 1 0 0 0-.116.031 3 3 0 0 1-.236.058l-.03.009-.063.027a.45.45 0 0 1-.236.03.8.8 0 0 1-.222-.106c-.075-.044-.15-.102-.195-.133a.06.06 0 0 1-.028-.04.06.06 0 0 1 .028-.066.06.06 0 0 1 .048-.007l.023.01.191.125a.6.6 0 0 0 .182.089c.045.013.102 0 .169-.022l.053-.023.036-.013a.3.3 0 0 1 .089-.022l.062-.013.093-.023.094-.026.066-.014h.17q.088-.008.177-.026.052-.03.107-.058c.035-.018.044-.031.044-.036l.018-.11.018-.143c0-.035.03-.058.066-.058zm3.142-.431c.036 0 .063.026.067.057q.006.15-.004.298a.3.3 0 0 1-.022.08.1.1 0 0 1-.067.049.3.3 0 0 1-.067.009c-.044 0-.102 0-.16-.014l-.266-.044h-.01l-.026.005a2 2 0 0 0-.227.04l-.089.017a3 3 0 0 1-.28.027.07.07 0 0 1-.053-.058c0-.022.009-.035.013-.044l.014-.023c.013-.008.013-.017.013-.017v-.023l-.013-.03-.014-.018v-.014q-.008-.013-.004-.03l.008-.024a.06.06 0 0 1 .039-.029l.024-.001c.027.004.045.027.053.049v.009l.027.049a.2.2 0 0 1 .005.075l.146-.022.09-.018.137-.027q.083-.012.164-.017l.067.013.2.031q.084.011.169.009v-.027l.009-.088V10.3c0-.035.022-.066.057-.066m-1.71-2.61c-.036.014-.08.032-.134.04a5 5 0 0 0-.489.125h-.004a10 10 0 0 1-.582.111q-.24.021-.476-.013l-.044-.013-.036-.014A.5.5 0 0 0 13 7.825c-.013 0-.04 0-.071.009q-.168.03-.329.088a3 3 0 0 1-.44.12c-.16.023-.311.076-.409.112l-.031.008-.48.178q-.105.04-.213.067a.04.04 0 0 1-.018-.076 2 2 0 0 0 .204-.057l.48-.183.031-.009c.103-.035.258-.088.427-.115.138-.022.342-.089.427-.116q.209-.063.422-.106.15.033.298.08c.049.009.258.022.4 0 .11-.014.426-.08.573-.107.12-.04.387-.116.498-.133.044 0 .08-.018.115-.031l.045-.014a.25.25 0 0 1 .186 0q.225.089.445.182l.044.023.018.004a.045.045 0 0 1 .022.049.035.035 0 0 1-.037.027l-.016-.005-.013-.009c-.014 0-.027-.009-.045-.017l-.444-.183a.18.18 0 0 0-.133 0zm.337.534.187.098c.018.009.022.03.013.049l-.008.012a.04.04 0 0 1-.04.005l-.16-.084q-.3.062-.6.116l-.21.017-.28.031a1 1 0 0 1-.164.063.8.8 0 0 1-.209.044 1.4 1.4 0 0 1-.52-.111h-.235l-.09.009a1 1 0 0 0-.226.058l-.24.097c-.155.076-.493.24-.591.303-.102.062-.511.257-.698.346h-.009l-.422.09a2 2 0 0 0-.218.057.03.03 0 0 1-.044-.022c-.009-.018 0-.045.018-.045a1.4 1.4 0 0 1 .23-.066c.094-.023.312-.063.414-.09a9 9 0 0 0 .689-.337c.102-.062.444-.231.6-.302l.244-.102a1 1 0 0 1 .334-.072l.133-.004q.06-.001.12.004l.031.01.005.004.013.004.044.014q.204.056.414.075a.7.7 0 0 0 .19-.035l.165-.063h.01q.294-.036.59-.066.256-.042.507-.103zm-2.44 1.156-.102.03q-.253.05-.507.098a1 1 0 0 0-.128.076q-.09.054-.183.102l-.173.058-.04.018-.102.035-.01.005-.026.022a6 6 0 0 0-.28.209.036.036 0 0 1-.053-.009.04.04 0 0 1 .009-.053q.16-.123.324-.24l.027-.01.031-.013.053-.017.045-.018q.119-.05.24-.093l.102-.063.044-.022.054-.031.044-.027.018-.004.498-.098a.3.3 0 0 0 .093-.031l.133-.044a.5.5 0 0 1 .134-.014c.022 0 .044.01.057.022.018.018.032.04.032.063 0 .022-.01.044-.032.044a.035.035 0 0 1-.044-.035V9.26l-.022-.004c-.022 0-.058 0-.102.013a1 1 0 0 0-.134.045m2.862-.654.712.307a.045.045 0 0 1 .022.049l-.008.013-.012.01a.04.04 0 0 1-.03-.001l-.67-.289a5 5 0 0 1-.476.12.2.2 0 0 0-.062.071.1.1 0 0 1-.04.036.2.2 0 0 1-.044.022.4.4 0 0 1-.072.018l-.084.07a.035.035 0 0 1-.041.01l-.012-.01a.04.04 0 0 1-.01-.029q0-.008.004-.015l.01-.013.098-.089h.013l.071-.018.036-.017h.004a.3.3 0 0 1 .09-.103l.004-.004h.009a5 5 0 0 0 .466-.12h.005zM13.23 9.688a.04.04 0 0 1 .015-.026l.014-.006h.015l.103.036a.4.4 0 0 1 .12.076.5.5 0 0 1 .089.12l.053.111c.004.022 0 .044-.022.049-.023.009-.045 0-.05-.022a1 1 0 0 0-.048-.103.4.4 0 0 0-.071-.097.4.4 0 0 0-.102-.063 1 1 0 0 0-.09-.03.04.04 0 0 1-.027-.044m1.867-.311c.022-.005.04.009.044.03q.025.252.053.503c.01.013 0 .031-.008.045a.036.036 0 0 1-.054-.01l-.009-.013V9.91a2 2 0 0 1-.026-.178l-.031-.315c0-.022.013-.045.03-.045zM11.02 14.68c.022-.009.045 0 .053.013.054.094.17.311.205.445.022.075.044.182.058.293a.9.9 0 0 1-.014.316 1.6 1.6 0 0 1-.094.28l-.01.01a.04.04 0 0 1-.029.003.04.04 0 0 1-.02-.02.04.04 0 0 1-.002-.029l.084-.267a.7.7 0 0 0 .01-.284 2 2 0 0 0-.054-.284 2.5 2.5 0 0 0-.196-.423.04.04 0 0 1 .014-.053zm3.72 3.613c0 .022-.009.045-.03.045q-.277.056-.525.186c-.023.01-.04.04-.05.08a.4.4 0 0 0-.017.103v.03l-.027.01a4 4 0 0 1-.48.088h-.057a.1.1 0 0 1-.05-.03.7.7 0 0 1-.088-.205h-.005l-.066-.009-.018-.005h-.022l-.13-.07-.03-.023a3 3 0 0 0-.147-.089h-.04l-.089.031-.12.05-.036.017c-.017.009-.044 0-.044-.022-.013-.018 0-.045.018-.045.004-.008.018-.013.026-.017l.134-.054a.7.7 0 0 1 .138-.04c.017 0 .03 0 .044.01q.096.053.187.115l.098.058h.03l.036.004a.14.14 0 0 1 .087.033.1.1 0 0 1 .02.03l.013.035c.018.049.036.102.062.146h.05c.035 0 .084 0 .137-.013l.298-.062.013-.098a.22.22 0 0 1 .085-.124q.262-.137.55-.196.036-.001.045.031m-.31-1.28c.017-.009.04 0 .048.018q.064.113.133.222v.01c.01.008.014.012.014.021l.044.067a.56.56 0 0 0 .275.129c.023 0 .036.022.032.044a.04.04 0 0 1-.015.026l-.014.006h-.016c-.164-.036-.258-.094-.31-.152a.4.4 0 0 1-.072-.106l-.004-.01a5 5 0 0 1-.134-.221.04.04 0 0 1 .018-.054"/>
    <defs>
        <linearGradient id="WOJAK__a" x1="12" x2="12" y1="4.214" y2="25.771" gradientUnits="userSpaceOnUse">
            <stop stop-color="#AFCA9A"/>
            <stop offset="1" stop-color="#60C90A"/>
        </linearGradient>
        <linearGradient id="WOJAK__b" x1="12.029" x2="12.029" y1="4.766" y2="25.048" gradientUnits="userSpaceOnUse">
            <stop stop-color="#6ABD3A"/>
            <stop offset="1" stop-color="#438907"/>
        </linearGradient>
        <linearGradient id="WOJAK__c" x1="9.491" x2="9.491" y1="5.413" y2="46.407" gradientUnits="userSpaceOnUse">
            <stop stop-color="#AFCA9A"/>
            <stop offset="1" stop-color="#60C90A"/>
        </linearGradient>
        <linearGradient id="WOJAK__d" x1="9.359" x2="9.359" y1="6.612" y2="42.193" gradientUnits="userSpaceOnUse">
            <stop stop-color="#6ABD3A"/>
            <stop offset="1" stop-color="#438907"/>
        </linearGradient>
        <linearGradient id="WOJAK__e" x1="11.991" x2="11.991" y1="4.223" y2="19.778" gradientUnits="userSpaceOnUse">
            <stop stop-color="#AFCA9A"/>
            <stop offset="1" stop-color="#60C90A"/>
        </linearGradient>
        <linearGradient id="WOJAK__f" x1="12.029" x2="12.029" y1="4.617" y2="19.554" gradientUnits="userSpaceOnUse">
            <stop stop-color="#6ABD3A"/>
            <stop offset="1" stop-color="#438907"/>
        </linearGradient>
        <linearGradient id="WOJAK__g" x1="11.983" x2="11.983" y1="4.222" y2="46.237" gradientUnits="userSpaceOnUse">
            <stop stop-color="#AFCA9A"/>
            <stop offset="1" stop-color="#60C90A"/>
        </linearGradient>
        <linearGradient id="WOJAK__h" x1="12.03" x2="12.03" y1="5.243" y2="43.747" gradientUnits="userSpaceOnUse">
            <stop stop-color="#6ABD3A"/>
            <stop offset="1" stop-color="#438907"/>
        </linearGradient>
        <linearGradient id="WOJAK__i" x1="13.567" x2="13.567" y1="4.221" y2="53.593" gradientUnits="userSpaceOnUse">
            <stop stop-color="#AFCA9A"/>
            <stop offset="1" stop-color="#60C90A"/>
        </linearGradient>
        <linearGradient id="WOJAK__j" x1="13.861" x2="13.861" y1="5.413" y2="50.382" gradientUnits="userSpaceOnUse">
            <stop stop-color="#6ABD3A"/>
            <stop offset="1" stop-color="#438907"/>
        </linearGradient>
    </defs>
</svg>
