<svg xmlns="http://www.w3.org/2000/svg" width="24" height="24" fill="none" viewBox="0 0 24 24">
    <path fill="url(#WOJAK__a)" d="M7.27 13.445V19.9H4.207v-6.45h-.81l2.46-3.49 2.18 3.49H7.27z"/>
    <path fill="url(#WOJAK__b)" d="m5.86 9.584 2.55 4.165H7.5v6.4H4v-6.4H3zm-2.07 3.665h.71v6.485H7V13.25h.665L5.84 10.324z"/>
    <path fill="url(#WOJAK__c)" d="M18.85 12.43v1.334h-1.51V12.43h-.81l1.85-3.89 1.69 3.89z"/>
    <path fill="url(#WOJAK__d)" d="m18.57 8.014 1.864 4.62h-1.63v1.4H17.39v-1.4h-1zm-1.396 4.21h.62v1.4h.6v-1.4h1.3L18.55 8.749l-1.37 3.475z"/>
    <path fill="#6ABD3A" d="m12.05 3.25 1.864 4.62h-1.63v1.405h-1.42v-1.4h-1l2.18-4.625zm-1.4 4.21h.62v1.4h.61v-1.4h1.3l-1.15-3.475-1.376 3.475z"/>
    <path fill="url(#WOJAK__e)" d="M19.3 8.025V18.31h-3.065V8.025h-.81l2.46-3.49 2.185 3.49z"/>
    <path fill="url(#WOJAK__f)" d="m17.895 4.169 2.54 4.08H19.5v10.265h-3.465V8.25h-1zm-2.075 3.58h.62v10.35H19V7.75h.7l-1.825-2.845-2.05 2.845z"/>
    <path fill="url(#WOJAK__g)" d="M9.86 18.785v1.61H6.8v-1.61h-.81l2.46-3.49 2.18 3.49z"/>
    <path fill="url(#WOJAK__h)" d="M8.45 14.93 11 18.99h-.934v1.505H6.5v-1.5h-.91zm-2.07 3.65H7v1.5h2.66v-1.5h.6l-1.83-2.915z"/>
    <path fill="url(#WOJAK__i)" d="M20.84 18.574v1.91h-3.07v-.85h-.81l2.46-3.49z"/>
    <path fill="url(#WOJAK__j)" d="m19.43 15.78 1.54 2.464-.14 2.3h-3.265v-.7h-1zm-2.075 3.65h.615v.7h2.665v-.7l-.08-1.086-1.15-1.83z"/>
    <path fill="#028A08" d="M18.44 18.015c.35-.01 2.2.065 2.56.105v2.63H4v-1.035l3.01-.11.325-.235c.13-.07.4-.225.44-.26.06-.04.64-.225.67-.25l.175-.21.13-.07.25-.415.13-.245.25-.49c.055-.095.07-.2.115-.41.04-.17.015-.405 0-.5l.14-.35-.05-.3-.19-.89a2.7 2.7 0 0 0-.235-.7l-.415-.63-.465-.47-.315-.565-.225-.435-.19-.3-.17-.34c-.05-.22-.18-.755-.25-1.15a4.4 4.4 0 0 1-.05-.965l.05-.375v-.67l.115-.51.065-.545.06-.275a9 9 0 0 0 .225-.5l.2-.4c.015-.045.44-.285.65-.4.085-.04.245-.13.26-.15.02-.01.3-.265.44-.385l.68-.47.485-.11 1-.255c.34-.025 1.125-.07 1.575-.075.45 0 .965.185 1.17.275l1.775.925c.16.1.525.37.735.65.206.316.366.659.475 1.02l.135.46.315.3c.08.13.235.395.235.425s.05.25.07.365l.22.25-.065.65.065.46c.015.04.06.125.08.14.025.025.34.455.45.65.09.15.12.635.125.85-.01.085-.03.26-.055.29-.03.045-.11.53-.145.595-.025.05-.035.27-.035.37l-.29.65c-.05.15-.15.45-.15.475l.075.68-.415.69-.16.375a.5.5 0 0 1-.09.15c-.015.01-.2.13-.22.135s-.185.155-.21.165c-.02 0-.335.26-.485.39l-.13.04-.135-.04v.135l-.08.3.065.475c.06.11.185.335.205.35.025.025.09.065.14.065l.58.055c.015 0 .34-.05.415-.05.07 0 .45.01.89 0z"/>
    <path fill="#070006" d="M11.565 4.415q-.862.197-1.72.42l-.075.025-.21.15q-.287.225-.565.46l-.06.05-.14.11-.015.01-.18.08q-.14.113-.285.22c-.11.08-.225.16-.3.195a.65.65 0 0 0-.31.32q-.068.259-.185.5l-.16.33V7.8l-.01.04c-.025.045-.065.12-.1.21-.025.09-.05.185-.05.26v.605c0 .17-.015.27-.03.355l-.01.06a1 1 0 0 0-.03.19c-.01.1.015.3.05.53q.042.3.09.6c.035.225.175.805.245 1.08q.116.183.24.36a.4.4 0 0 1 .09.175v.01c.02.055.03.095.05.125.07.09.2.315.265.5q.015.054.075.13c.035.05.085.1.13.15.1.1.2.19.25.225.297.286.534.63.695 1.01.08.33.25 1.05.28 1.265.025.2.09.415.125.5.005.02 0 .04-.005.06q-.09.192-.15.395a.3.3 0 0 0-.02.13l-.005.125v.06c-.005.125-.015.27-.055.385-.06.16-.18.41-.235.53a.8.8 0 0 1-.035.195.2.2 0 0 1-.05.07v.005l-.015.015-.03.045a4 4 0 0 0-.25.43.1.1 0 0 1-.026.025.1.1 0 0 1-.034.01 2 2 0 0 0-.14.025l-.015.02a1 1 0 0 0-.07.1l.315-.05c.04 0 .075.025.08.065a.07.07 0 0 1-.013.052.07.07 0 0 1-.047.027q-.3.041-.6.09c-.02 0-.07.026-.135.05l-.155.076H8.02q-.31.123-.61.27-.09.063-.165.145a.7.7 0 0 1-.225.145 3 3 0 0 1-.39.06c-.15.01-2.425.075-2.525.07a.07.07 0 0 1-.07-.07c0-.04.03-.07.07-.07q1.363-.04 2.725-.095a.4.4 0 0 0 .14-.03.6.6 0 0 0 .185-.12l.04-.035q.06-.061.135-.115c.055-.045.18-.1.3-.15l.335-.135a5 5 0 0 1 .315-.135l.115-.02q.083-.13.175-.25a.1.1 0 0 1 .035-.025q.075-.021.15-.035.15-.252.31-.495h.005l.005-.02a.6.6 0 0 0 .025-.16q.136-.275.245-.56c.035-.09.04-.215.05-.34v-.055q.008-.148.025-.295c.03-.125.11-.3.15-.39a2.6 2.6 0 0 1-.12-.51c-.025-.2-.19-.9-.275-1.235a14 14 0 0 0-.25-.48 5 5 0 0 0-.39-.46 2.3 2.3 0 0 1-.41-.4.6.6 0 0 1-.1-.17 2 2 0 0 0-.24-.465.6.6 0 0 1-.07-.16v-.015a.3.3 0 0 0-.06-.12 7 7 0 0 1-.275-.41q-.16-.628-.275-1.265l-.07-.445c-.03-.22-.055-.45-.05-.56l.035-.215.01-.05c.015-.075.03-.17.03-.33v-.6a1.1 1.1 0 0 1 .16-.53v-.55q.086-.176.175-.35.141-.273.215-.57l.09-.12A.9.9 0 0 1 7.96 6c.055-.025.16-.09.27-.175q.153-.114.3-.235l.18-.075.01-.005q.065-.048.125-.1l.06-.05.57-.465c.1-.07.18-.135.225-.16l.105-.04.17-.05.495-.12q.54-.13 1.08-.25c.235-.015.81-.05 1.225-.05.37-.012.738.07 1.07.235l.12.05q.478.187.93.43l.15.08.19.09c.09.03.265.13.45.235.18.11.38.235.51.33.075.055.15.14.23.23.288.358.518.76.68 1.19V7.1l.13.485q.162.113.305.25c.035.04.065.075.08.11l.065.14.04.09q.051.12.125.225c.01.015.02.03.02.05v.315l.175.18c.015.015.025.035.025.05v.485c0 .065-.015.13-.025.18l-.01.04c-.005.055 0 .085.02.115a.18.18 0 0 1 .035.135l-.01.06-.01.035.005.065c.005.02.025.045.07.075.115.085.195.19.26.305l.12.235.055.115a1 1 0 0 1 .08.25l.04.3.025.25.005.09v.02l.01.015v.005l.02.05c.005.04 0 .09-.025.16l-.035.08-.01.02-.015.025a.4.4 0 0 0-.01.115.8.8 0 0 1-.07.31l-.005.025-.01.04-.02.05-.005.025q-.043.129-.08.26v.01a.2.2 0 0 1 0 .065l-.005.055-.045.135-.11.255-.005.005c-.035.055-.085.15-.13.26a.9.9 0 0 0-.085.315c0 .205.04.62.065.81 0 .02 0 .04-.015.05-.05.07-.16.22-.21.32a.5.5 0 0 1-.075.115l-.05.05-.045.05a.4.4 0 0 0-.115.215 1.5 1.5 0 0 1-.07.29.5.5 0 0 1-.05.1.2.2 0 0 1-.09.075l-.165.07a.4.4 0 0 0-.15.11c-.02.035-.055.065-.095.1a3 3 0 0 1-.125.095l-.025.02c-.08.06-.15.11-.19.15a.7.7 0 0 1-.265.175c-.05.02-.09-.01-.1-.05l-.03-.01q.015.067.02.135c0 .025 0 .055-.015.085v.005c-.035.065-.075.135-.055.215q.057.231.065.47l.015.035q.068.117.15.225h.165l.14-.01c.055 0 .13.02.2.035l.155.05.5-.08h.01l2.735.1h.525c.04 0 .07.03.07.07s-.03.07-.07.07h-.53l-2.725-.1-.505.085h-.04a2 2 0 0 0-.325-.085h-.13l-.08.01q-.08 0-.16-.01a.1.1 0 0 1-.035-.02 2 2 0 0 1-.21-.335.1.1 0 0 1 0-.03v-.005l-.01-.06a5 5 0 0 0-.05-.375c-.04-.14.03-.26.06-.315v-.01l.005-.015a1 1 0 0 0-.015-.105c-.22.05-.65.115-.935.145a1.2 1.2 0 0 1-.5-.06 1 1 0 0 0-.285-.05.75.75 0 0 1-.33-.085 2 2 0 0 1-.125-.065h-.005a1.4 1.4 0 0 1-.32-.2l-.29-.225a4 4 0 0 0-.325-.22 1 1 0 0 0-.29-.13c-.085-.02-.2-.07-.325-.13-.13-.065-.27-.15-.42-.235-.29-.175-.59-.38-.78-.51a4.4 4.4 0 0 1-.46-.425.4.4 0 0 1-.1-.15 6 6 0 0 1-.165-.425 6 6 0 0 0-.165-.39q-.092-.36-.17-.725v-.345c0-.04.03-.07.07-.07.035 0 .07.03.07.07v.34q.084.38.185.755l.015.02.015.025.035.07.075.2.025.075.135.34q.102.142.225.265c.1.1.215.2.29.25q.581.4 1.195.745c.12.065.225.105.29.12.1.02.215.075.33.145.115.065.23.15.34.23l.21.16.08.065q.137.113.3.185h.005c.04.025.08.05.12.065.08.04.165.07.27.07.115 0 .22.03.325.055l.05.015c.125.03.25.055.4.04.315-.03.8-.11.975-.16q.114-.03.19 0a.2.2 0 0 1 .045.03.7.7 0 0 0 .165-.12q.11-.103.235-.185.1-.078.19-.165a.54.54 0 0 1 .2-.15c.07-.04.14-.065.18-.08 0 0 .01 0 .02-.02a.3.3 0 0 0 .035-.07c.025-.065.045-.155.06-.26.02-.125.09-.22.15-.29l.05-.05q.053-.063.1-.13c.05-.105.15-.25.205-.325a7 7 0 0 1-.06-.8c.005-.115.05-.25.095-.365q.186-.321.29-.675a.2.2 0 0 1-.01-.06c0-.025.01-.05.015-.07l.04-.14.035-.1.025-.065v-.005l.01-.03c0-.01 0-.02.01-.03v-.015l.025-.06a.8.8 0 0 0 .03-.19c0-.085.01-.13.03-.175l.015-.035.035-.08c.02-.06.02-.08.02-.085l-.005-.015-.015-.035a1 1 0 0 1-.015-.145l-.025-.25a3 3 0 0 0-.04-.285 1 1 0 0 0-.065-.215l-.06-.125a2 2 0 0 0-.11-.215.8.8 0 0 0-.225-.26.3.3 0 0 1-.115-.145.3.3 0 0 1-.01-.135l.005-.045v-.01l.01-.035c0-.015 0-.025-.01-.03a.3.3 0 0 1-.04-.225l.01-.065a.6.6 0 0 0 .015-.135v-.45l-.175-.185a.08.08 0 0 1-.025-.05v-.325a1.2 1.2 0 0 1-.175-.335 2 2 0 0 0-.05-.125.3.3 0 0 0-.06-.07 2.4 2.4 0 0 0-.305-.25.1.1 0 0 1-.03-.04l-.135-.5-.18-.44a6 6 0 0 0-.475-.71 1.2 1.2 0 0 0-.2-.205 7 7 0 0 0-1.285-.725l-.165-.085c-.235-.12-.51-.25-.75-.35l-.125-.045a4 4 0 0 0-.445-.155 2 2 0 0 0-.57-.065c-.405 0-.975.03-1.21.05z"/>
    <path fill="#070006" d="M11.56 17.55a.07.07 0 0 1-.004.055.07.07 0 0 1-.041.035l-.45.15a9 9 0 0 0-.21.26q-.015.038-.025.075l-.015.04c-.02.055-.045.13-.085.2l-.08.16-.12.22a.1.1 0 0 1-.05.035q-.127.021-.255.035a.07.07 0 0 1-.057-.016.07.07 0 0 1-.023-.054c0-.04.024-.075.065-.075a4 4 0 0 0 .22-.025l.014-.02q.045-.075.075-.155c.03-.06.06-.13.09-.175a1 1 0 0 0 .085-.215l.035-.1.046-.065q.108-.135.23-.26l.464-.15c.04-.015.08.005.09.045m5.17-2.9a3 3 0 0 1-.3.08 1.8 1.8 0 0 0-.36.12l-.05.025c-.02 0-.035.01-.05.015a.2.2 0 0 1-.04.01.2.2 0 0 1-.065-.02.3.3 0 0 1-.066-.04 1 1 0 0 0-.124 0 6 6 0 0 1-.54.145h-.025l-.075-.01a1 1 0 0 1-.15-.05 2 2 0 0 0-.495-.025h-.07a.1.1 0 0 1-.01.045.1.1 0 0 1-.036.045 1 1 0 0 1-.104.05.07.07 0 0 1-.095-.04.07.07 0 0 1 .001-.053.07.07 0 0 1 .039-.037l.06-.03v-.015c0-.015 0-.05.02-.075a.1.1 0 0 1 .085-.035h.1q.192-.006.385 0c.065 0 .124.015.17.035a1 1 0 0 0 .175.05l.075-.015q.255-.06.51-.135.06-.003.12.005h.02a.1.1 0 0 1 .035.015l.01.005.005.005a.3.3 0 0 0 .045.035 1 1 0 0 0 .085-.035l.06-.025c.09-.04.2-.085.325-.11q.13-.027.26-.065a.08.08 0 0 1 .055-.03h.035q.138.093.27.195c.025.03.03.075.005.1a.07.07 0 0 1-.1.015 4 4 0 0 0-.2-.15zm-2.12-1.805c.02.03.014.075-.015.1-.06.04-.2.135-.266.17a.4.4 0 0 1-.124.04h-.04v.005l-.01.045.005.1.025.055.085.12c.02.025.07.055.135.085a1 1 0 0 0 .165.055.073.073 0 0 1 .02.132.07.07 0 0 1-.055.008c-.05-.01-.12-.035-.19-.065a.5.5 0 0 1-.186-.13l-.095-.13a.3.3 0 0 1-.044-.105.7.7 0 0 1 .005-.21.13.13 0 0 1 .05-.08.2.2 0 0 1 .06-.02l.035-.005h.01l.085-.03c.06-.03.185-.115.25-.16a.07.07 0 0 1 .095.02m1-1.725a.07.07 0 0 1 .052.019.07.07 0 0 1 .023.051l.02.06q.016.06.07.18c.06.15.13.245.175.3l.035.05.005.01.03.025.085.065.01.005c.07.05.155.12.22.185.09.09.26.185.34.225.02.01.035.03.04.05.01.05.02.16 0 .265s-.09.29-.12.365a.07.07 0 0 1-.09.04.07.07 0 0 1-.046-.067q0-.015.006-.028c.03-.075.095-.25.11-.335a.6.6 0 0 0 .005-.18c-.09-.05-.25-.14-.34-.23a2 2 0 0 0-.21-.175l-.01-.005a4 4 0 0 1-.15-.135l-.025-.025a1.5 1.5 0 0 1-.3-.64c0-.035.03-.07.065-.075"/>
    <path fill="#070006" d="M14.699 13.599c.04.07.28.075.3.07l.2-.05c.085-.02.07-.175.09-.235.015-.05-.07-.14-.135-.175-.065-.04-.23.005-.31.035a.43.43 0 0 0-.2.175c-.03.05.01.105.05.18zm1.22-.315c0 .08.15.16.17.16l.16.015c.06.01.115-.135.15-.18.035-.05.015-.15-.015-.205s-.155-.065-.225-.065a.37.37 0 0 0-.205.1c-.04.04-.035.1-.035.175m-2.25-2.785c.04 0 .065.035.065.075a5 5 0 0 1-.05.315c-.015.06-.065.095-.105.12l-.13.065a.4.4 0 0 1-.12.03q-.172.027-.345.02a1 1 0 0 0-.13.035 4 4 0 0 1-.265.065l-.035.01-.07.03a.5.5 0 0 1-.265.035 1 1 0 0 1-.25-.12c-.085-.05-.17-.115-.22-.15a.1.1 0 0 1-.02-.02.07.07 0 0 1-.012-.054.07.07 0 0 1 .059-.055.07.07 0 0 1 .053.014l.215.14c.085.055.16.095.205.1.05.015.115 0 .19-.025l.06-.025.04-.015a.4.4 0 0 1 .1-.025l.07-.015.105-.025.105-.03.075-.015h.19q.1-.009.2-.03.06-.034.12-.065c.04-.02.05-.035.05-.04l.02-.125.02-.16c0-.04.035-.065.075-.065zm3.535-.485c.04 0 .07.03.075.065q.006.168-.005.335a.3.3 0 0 1-.025.09.11.11 0 0 1-.075.055.3.3 0 0 1-.075.01c-.05 0-.115 0-.18-.015l-.3-.05h-.01l-.03.005q-.129.014-.255.045l-.1.02q-.157.024-.315.03a.08.08 0 0 1-.06-.065c0-.025.01-.04.015-.05l.015-.025c.015-.01.015-.02.015-.02v-.025l-.015-.035-.015-.02v-.015c-.005-.01-.01-.02-.005-.035a.07.07 0 0 1 .052-.059l.028-.001c.03.005.05.03.06.055v.01l.03.055a.2.2 0 0 1 .005.085l.165-.025.1-.02.155-.03q.092-.015.185-.02l.075.015.225.035q.094.012.19.01v-.03l.01-.1v-.205c0-.04.025-.075.065-.075m-1.925-2.935c-.04.015-.09.035-.15.045-.12.015-.415.1-.55.14h-.005c-.165.035-.525.11-.655.125q-.268.023-.535-.015l-.05-.015-.04-.015a.6.6 0 0 0-.17-.04c-.015 0-.045 0-.08.01q-.19.035-.37.1c-.095.035-.33.11-.495.135a2.3 2.3 0 0 0-.46.125l-.035.01-.54.2q-.119.045-.24.075a.05.05 0 0 1-.028-.01.05.05 0 0 1-.015-.025.045.045 0 0 1 .023-.05c.05-.01.17-.04.23-.065l.54-.205.035-.01c.115-.04.29-.1.48-.13.155-.025.385-.1.48-.13q.234-.07.475-.12.169.038.335.09c.055.01.29.025.45 0 .125-.015.48-.09.645-.12a5 5 0 0 1 .56-.15c.05 0 .09-.02.13-.035l.05-.015a.28.28 0 0 1 .21 0q.251.099.5.205l.05.025.02.005c.02.01.03.035.025.055a.04.04 0 0 1-.042.03.04.04 0 0 1-.018-.005l-.015-.01c-.015 0-.03-.01-.05-.02q-.25-.105-.5-.205a.2.2 0 0 0-.15 0zm.38.6.21.11c.02.01.025.035.015.055l-.01.013a.04.04 0 0 1-.045.007l-.18-.095q-.338.07-.675.13l-.235.02-.315.035c-.04.02-.11.05-.185.07a1 1 0 0 1-.235.05 1.6 1.6 0 0 1-.585-.125h-.265l-.1.01c-.055 0-.15.03-.255.065l-.27.11c-.175.085-.555.27-.665.34-.115.07-.575.29-.785.39h-.01l-.475.1c-.105.02-.205.05-.245.065-.02.01-.045 0-.05-.025-.01-.02 0-.05.02-.05.04-.02.15-.05.26-.075.105-.025.35-.07.465-.1.22-.1.67-.31.775-.38.115-.07.5-.26.675-.34l.275-.115q.18-.072.375-.08l.15-.005q.068-.002.135.005l.035.01.005.005.015.005.05.015q.229.063.465.085c.06 0 .14-.015.215-.04l.185-.07h.01q.332-.042.665-.075.287-.048.57-.115zm-2.745 1.3-.115.035-.57.11q-.075.039-.145.085-.101.06-.205.115l-.195.065-.045.02-.115.04-.01.005-.03.025a6 6 0 0 0-.315.235.04.04 0 0 1-.06-.01.045.045 0 0 1 .01-.06q.18-.136.365-.27l.03-.01.035-.015.06-.02.05-.02q.134-.057.27-.105l.115-.07.05-.025.06-.035.05-.03.02-.005.56-.11c.02 0 .06-.015.105-.035l.15-.05c.05-.01.105-.02.15-.015.025 0 .05.01.065.025.02.02.035.045.035.07s-.01.05-.035.05a.04.04 0 0 1-.05-.04v-.015l-.025-.005c-.025 0-.065 0-.115.015-.05.01-.1.03-.15.05m3.22-.735.8.345c.02.01.03.035.025.055a.04.04 0 0 1-.022.025.04.04 0 0 1-.033 0l-.755-.325a6 6 0 0 1-.535.135.3.3 0 0 0-.07.08.1.1 0 0 1-.045.04.3.3 0 0 1-.05.025l-.08.02-.095.08-.014.01a.04.04 0 0 1-.033 0l-.013-.01a.05.05 0 0 1-.012-.034.05.05 0 0 1 .017-.031l.11-.1h.015l.08-.02a.2.2 0 0 0 .04-.02h.005c.025-.05.075-.1.1-.115l.005-.005h.01q.265-.056.525-.135h.005zm-2.75 1.155q0-.009.005-.016l.012-.013a.04.04 0 0 1 .033-.006l.115.04c.05.02.1.05.135.085.04.035.07.085.1.135l.06.125c.005.025 0 .05-.025.055-.025.01-.05 0-.055-.025a1 1 0 0 0-.055-.115.5.5 0 0 0-.08-.11.4.4 0 0 0-.115-.07 1 1 0 0 0-.1-.035.045.045 0 0 1-.03-.05m2.1-.35c.025-.005.045.01.05.035q.027.283.06.565c.01.015 0 .035-.01.05a.04.04 0 0 1-.032.009.04.04 0 0 1-.028-.02l-.01-.014v-.025a2 2 0 0 1-.03-.2l-.035-.355c0-.025.015-.05.035-.05zm-4.585 5.965c.025-.01.05 0 .06.015.06.105.19.35.23.5.025.085.05.205.065.33.016.118.011.239-.015.355a2 2 0 0 1-.107.315l-.012.01-.015.006-.016-.001a.045.045 0 0 1-.025-.055l.095-.3a.8.8 0 0 0 .01-.32 2 2 0 0 0-.06-.32 3 3 0 0 0-.22-.475.04.04 0 0 1-.005-.033.05.05 0 0 1 .02-.027zm4.185 4.065c0 .025-.01.05-.035.05a2.3 2.3 0 0 0-.59.21c-.025.01-.045.045-.055.09a.5.5 0 0 0-.02.115v.035l-.03.01a5 5 0 0 1-.54.1h-.065a.1.1 0 0 1-.055-.035.8.8 0 0 1-.1-.23h-.005l-.075-.01-.02-.005h-.025a3 3 0 0 1-.145-.08l-.035-.025a4 4 0 0 0-.165-.1h-.045l-.1.035-.135.055-.04.02c-.02.01-.05 0-.05-.025-.015-.02 0-.05.02-.05.005-.01.02-.015.03-.02l.15-.06a1 1 0 0 1 .155-.045c.02 0 .035 0 .05.01q.106.06.21.13l.11.065h.035l.04.005a.15.15 0 0 1 .098.037.1.1 0 0 1 .022.033l.015.04c.02.055.04.115.07.165h.055c.04 0 .095 0 .155-.015l.335-.07.015-.11c.015-.05.045-.11.095-.14q.294-.153.62-.22c.025 0 .045.01.05.035m-.35-1.44c.02-.01.045 0 .055.02q.072.127.15.25v.01c.01.01.015.015.015.025l.05.075c.05.05.14.105.31.145.025 0 .04.025.035.05l-.005.016-.012.013a.04.04 0 0 1-.033.006c-.185-.04-.29-.105-.35-.17a.4.4 0 0 1-.08-.12l-.005-.01a6 6 0 0 1-.15-.25.045.045 0 0 1 .02-.06"/>
    <defs>
        <linearGradient id="WOJAK__a" x1="12.001" x2="12.001" y1="3.241" y2="27.493" gradientUnits="userSpaceOnUse">
            <stop stop-color="#AFCA9A"/>
            <stop offset="1" stop-color="#60C90A"/>
        </linearGradient>
        <linearGradient id="WOJAK__b" x1="12.033" x2="12.033" y1="3.862" y2="26.679" gradientUnits="userSpaceOnUse">
            <stop stop-color="#6ABD3A"/>
            <stop offset="1" stop-color="#438907"/>
        </linearGradient>
        <linearGradient id="WOJAK__c" x1="9.178" x2="9.178" y1="4.589" y2="50.709" gradientUnits="userSpaceOnUse">
            <stop stop-color="#AFCA9A"/>
            <stop offset="1" stop-color="#60C90A"/>
        </linearGradient>
        <linearGradient id="WOJAK__d" x1="9.029" x2="9.029" y1="5.938" y2="45.967" gradientUnits="userSpaceOnUse">
            <stop stop-color="#6ABD3A"/>
            <stop offset="1" stop-color="#438907"/>
        </linearGradient>
        <linearGradient id="WOJAK__e" x1="11.99" x2="11.99" y1="3.25" y2="20.75" gradientUnits="userSpaceOnUse">
            <stop stop-color="#AFCA9A"/>
            <stop offset="1" stop-color="#60C90A"/>
        </linearGradient>
        <linearGradient id="WOJAK__f" x1="12.033" x2="12.033" y1="3.694" y2="20.499" gradientUnits="userSpaceOnUse">
            <stop stop-color="#6ABD3A"/>
            <stop offset="1" stop-color="#438907"/>
        </linearGradient>
        <linearGradient id="WOJAK__g" x1="11.981" x2="11.981" y1="3.25" y2="50.517" gradientUnits="userSpaceOnUse">
            <stop stop-color="#AFCA9A"/>
            <stop offset="1" stop-color="#60C90A"/>
        </linearGradient>
        <linearGradient id="WOJAK__h" x1="12.034" x2="12.034" y1="4.397" y2="47.715" gradientUnits="userSpaceOnUse">
            <stop stop-color="#6ABD3A"/>
            <stop offset="1" stop-color="#438907"/>
        </linearGradient>
        <linearGradient id="WOJAK__i" x1="13.763" x2="13.763" y1="3.248" y2="58.793" gradientUnits="userSpaceOnUse">
            <stop stop-color="#AFCA9A"/>
            <stop offset="1" stop-color="#60C90A"/>
        </linearGradient>
        <linearGradient id="WOJAK__j" x1="14.094" x2="14.094" y1="4.59" y2="55.18" gradientUnits="userSpaceOnUse">
            <stop stop-color="#6ABD3A"/>
            <stop offset="1" stop-color="#438907"/>
        </linearGradient>
    </defs>
</svg>
