<svg xmlns="http://www.w3.org/2000/svg" width="24" height="24" fill="none" viewBox="0 0 24 24">
    <path fill="#FF4F24" fill-rule="evenodd" d="M17.538 14.31c.547-.058.906-.105 1.1-.423a.77.77 0 0 0 .035-.688 10 10 0 0 0-.688-1.381 4 4 0 0 1-.423-.847c-.047-.77-2.058-3.275-3.34-4.374a4.9 4.9 0 0 0-.54-1.317 1.29 1.29 0 0 0-1.088-.723 1.1 1.1 0 0 0-.559.159 3 3 0 0 0-.764.635 11 11 0 0 0-1.57-.13q-.309.001-.617.03a3 3 0 0 0-.518-.67 1.24 1.24 0 0 0-.899-.365 1.3 1.3 0 0 0-.882.33 3.6 3.6 0 0 0-.77.946h-.07a.36.36 0 0 1-.318-.253.36.36 0 0 1 .106-.388s-.2-.376-.283-.306c0 .006-.023 0-.035-.012l-.023-.006-.036.036a9.97 9.97 0 0 0 1.235 15.856 9.9 9.9 0 0 0 3.827 1.47l.13.018c.117.011.07-.47.07-.47a1.975 1.975 0 0 1-1.734-1.94 1.91 1.91 0 0 1 1.54-2.012q.558-.121 1.13-.117c.663.017 1.328.082 1.98.2l.547.082h.047c.27.041.553.07.812.088.117.012.252.012.376.012 1.329 0 2.07-.53 2.463-.982a.88.88 0 0 0-.405-1.417.75.75 0 0 1-.624-.764.3.3 0 0 1 .036-.094.26.26 0 0 1 .176-.106q.285-.045.57-.076zm-5.902-3.192c.587 1.158 1.187 1.03 1.88.77 0 0-.41-1.999-1.88-.764z" clip-rule="evenodd"/>
    <path fill="#A53A2F" d="M17.98 16.268c0 1.346-1.635 2.117-3.998 1.881-1.587-.176-3.769-.07-4.186.747-.706 1.388 1.111 2.97 1.029 2.963-.141-.011-.13.06-.27.041l-.13-.023a9.9 9.9 0 0 1-4.28-1.77 7.7 7.7 0 0 1-2.475-2.975c-1.688-3.663.735-6.173 2.369-6.726-2.475 2.088-1.293 5.627 1.2 6.28.764.2 1.58.182 2.333-.06a3.7 3.7 0 0 0 1.4-.664s3.856 1.17 5.203.918c.082-.018.159-.048.23-.071.799-.253 1.175-.764.587-1.1h-.018l.053-.035c.206-.14.953-.57.953.588zM8.308 6.191c-.493.076-1.029.176-1.47.276a2.17 2.17 0 0 1 .583-.958.33.33 0 0 1 .352-.012c.23.194.412.43.535.694"/>
    <path fill="#FF4F24" fill-rule="evenodd" d="M12.005 21.407a9.406 9.406 0 1 0 0-18.813 9.406 9.406 0 0 0 0 18.813m0 .588a9.995 9.995 0 1 0 0-19.99 9.995 9.995 0 0 0 0 19.99" clip-rule="evenodd"/>
    <path fill="#A53A2F" d="M16.71 14.351c-.471.236.193 1.276.587 1.764l.588.588c.706-1.41.882-2.745.882-3.233-.588.881-1.47.588-2.058.881"/>
</svg>
