<svg xmlns="http://www.w3.org/2000/svg" width="24" height="24" fill="none" viewBox="0 0 24 24">
    <path fill="#410083" d="M18.24 12.003a6.238 6.238 0 0 1-11.005 4.024 6 6 0 0 0-.773.518 4.7 4.7 0 0 0-1.248 1.84c-.106.243-.187.48-.25.699A9.982 9.982 0 0 0 19.936 5.946c-.144.68-.47 1.31-.942 1.821a3.8 3.8 0 0 1-1.703.93c.621.99.95 2.137.948 3.306M6.524 14.998a6.238 6.238 0 0 1 9.906-7.393l.088-.012a3 3 0 0 0 1.597-.711c.362-.356.592-.98.705-1.703l.056-.418a9.98 9.98 0 0 0-14.86 13.231l.031-.087a5.95 5.95 0 0 1 1.635-2.34c.274-.224.561-.411.836-.574z"/>
</svg>
