<svg xmlns="http://www.w3.org/2000/svg" width="24" height="24" fill="none" viewBox="0 0 24 24">
    <path fill="#231F20" fill-rule="evenodd" d="M13.069 3.461c-.405.045-.698.473-.844.833a.07.07 0 0 1-.067.045l-.928-.034a.12.12 0 0 1-.096-.045 2.25 2.25 0 0 0-1.485-.81 40 40 0 0 0-4.651.113c-.157.005-.318.03-.488.055l-.041.007a1.74 1.74 0 0 0-1.327 1.068 1 1 0 0 0-.085.41 63 63 0 0 0-.056 3.038q-.004.482.101.95c.118.462.456.76.86 1.03.023.011.035.04.018.067-.473 1.26-.788 2.678-.731 3.982.033.793.19 1.575.472 2.329.714 1.963 2.334 3.15 4.33 3.712q1.89.54 4.219.506c3.032-.045 5.715-1.327 7.531-3.678.38-.486.694-1.019.934-1.586a2.6 2.6 0 0 0 .174-.619c.152-1.159.13-2.402-.191-3.532a4.3 4.3 0 0 0-.844-1.609c-.016-.017-.016-.039 0-.05q.56-.48.619-1.322.093-1.205.135-2.216a8 8 0 0 0-.05-1.181c-.102-.883-.58-1.44-1.508-1.558q-.718-.093-1.48-.085c-1.59.023-2.93.074-4.01.135a5 5 0 0 0-.511.045m.394.856c-.563.298-.383 1.76-.282 2.266h.006q0 .004.004.007l.007.005h.006l.011-.006 2.255-2.362a6.4 6.4 0 0 0-1.614-.023q-.207.02-.393.113M4.75 4.53a1.5 1.5 0 0 0-.421.096c-.54.186-.501 1.271-.445 1.704l.079.59a.02.02 0 0 0 .017.012.02.02 0 0 0 .017 0l2.25-2.351a.02.02 0 0 0 .005-.023A7.3 7.3 0 0 0 4.75 4.53" clip-rule="evenodd"/>
    <path fill="#79C928" d="M10.791 9.14a2.7 2.7 0 0 0 .203-.69q.135-.797.18-1.604a.04.04 0 0 1 .028-.011h1.22c.012 0 .017 0 .028.011l.012.028q.03.918.112 1.834c.101.568.428 1.181.934 1.451.152.079.337.13.557.14q.792.051 1.62.018 1.62-.061 3.087-.214.354-.042.681-.203a.06.06 0 0 1 .067.011 4 4 0 0 1 .86 1.795 8.5 8.5 0 0 1 .074 3.234 2 2 0 0 1-.186.54 7.6 7.6 0 0 1-1.057 1.63 8.83 8.83 0 0 1-5.737 3.1c-1.203.163-2.413.112-3.605-.045-1.597-.208-3.206-.709-4.387-1.76a5.42 5.42 0 0 1-1.642-2.97 7.3 7.3 0 0 1-.124-2.419c.112-.911.32-1.788.641-2.626q.017-.033.05-.023l.203.05q.606.085 1.39.085 1.305-.01 2.688-.096c.371-.028.697-.061.984-.118.506-.095.917-.675 1.125-1.147z"/>
    <path fill="#231F20" d="M11.606 15.451c0 .534.377.973.838.973s.832-.439.832-.973c0-.54-.37-.973-.832-.973s-.838.433-.838.973"/>
</svg>
