<svg xmlns="http://www.w3.org/2000/svg" width="24" height="24" fill="none" viewBox="0 0 24 24">
    <path fill="#FFF100" d="M11.376 2.014c-.862.106-1.875.318-2.469.519-.7.23-1.813.75-1.888.875-.062.087.188.175.607.206.275.025.344.012.312-.056-.012-.044 0-.088.038-.088.044 0 .062.063.037.138-.018.08 0 .15.057.168.137.05.537-.1.731-.275.2-.187.35-.125.35.144 0 .188-.156.269-.294.156-.075-.062-.15-.062-.306-.012-.25.087-.531.094-.619.019a1.7 1.7 0 0 0-.512-.1c-.438-.038-.45-.032-.344.08a.38.38 0 0 1 .106.213c0 .05.05.163.106.25.088.126.094.157.019.207-.075.044-.062.087.05.237.075.1.169.175.206.175l.375-.018c.244-.007.282-.025.25-.12-.037-.087-.018-.1.082-.062.256.113.356.125.356.044q-.002-.084.231-.056c.125.019.225 0 .232-.044 0-.037.037-.119.087-.187.088-.107.106-.107.338.056.325.219.4.337.412.662.013.27.013.275-.25.313-.294.05-.394.144-.231.206.081.031.087.056.025.094-.063.044-.063.075 0 .15.044.05.069.131.062.181-.012.05.044.094.125.107q.133.027.244.28c.125.332.125.35-.031.188-.15-.15-.363-.168-.413-.03-.043.105.075.187.375.255.188.05.394-.056.325-.168-.018-.032 0-.057.05-.044.05.006.294-.05.538-.125a3.15 3.15 0 0 1 3.144.762c.375.365.643.826.775 1.332.063.262.063.356-.03.6-.107.263-.489.688-.701.769-.075.025-.063.056.037.137.107.082.113.1.032.1a.28.28 0 0 1-.175-.069c-.082-.074-.438-.024-.388.063a4.7 4.7 0 0 1-2.369-.406c-.312-.175-.375-.113-.119.119.113.1.219.137.325.125.22-.05.732.275.832.518.043.107.15.232.231.288.088.056.137.125.119.156-.063.1-.282.063-.375-.056-.088-.125-.257-.238-.475-.338a.7.7 0 0 1-.22-.156c-.074-.087-.324-.187-.45-.169-.087.007-.012.22.163.45.113.144.144.232.094.25-.044.013-.075.063-.075.12 0 .143-.094.1-.231-.126a1 1 0 0 0-.313-.294c-.244-.118-.625-.5-.706-.706a1 1 0 0 1-.063-.331c0-.113-.125-.294-.406-.582-.412-.425-.625-.512-.594-.237.013.081-.006.144-.044.144-.043 0-.075-.044-.075-.1 0-.063-.087-.138-.193-.182-.125-.043-.188-.106-.17-.162.026-.05-.037-.175-.124-.281a.8.8 0 0 1-.169-.263c0-.031-.025-.044-.062-.025-.025.019-.038-.019-.02-.094.026-.087 0-.125-.074-.125-.094 0-.138-.081-.106-.225 0-.031-.032-.044-.088-.019a.16.16 0 0 1-.162-.043c-.057-.05-.094-.05-.144 0s-.025.081.094.112c.093.025.168.069.168.107 0 .08-.125.08-.25 0-.143-.082-.344.062-.269.193.044.088.025.1-.137.082-.225-.038-.231-.007-.088.212.063.1.075.163.032.163a.075.075 0 0 1-.069-.075c0-.044-.063 0-.131.08-.45.538-.62.714-.7.714-.12 0-.113-.094.006-.194a.3.3 0 0 0 .1-.207c0-.062.062-.15.131-.187.075-.038.131-.113.131-.169 0-.05.038-.15.082-.225.062-.1.062-.144 0-.206-.063-.063-.107-.044-.194.056a.66.66 0 0 1-.3.175c-.106.025-.175.088-.175.156q-.002.113-.069.038c-.037-.038-.144-.05-.238-.038l-.162.032.213.175c.125.106.187.212.162.25-.062.112-.169.1-.169-.02 0-.112-.112-.124-.15-.012-.019.063-.056.063-.144-.012-.1-.081-.125-.081-.168 0a.4.4 0 0 0-.063.144c0 .03-.05.05-.112.037-.063-.012-.1-.05-.094-.075.012-.031-.063-.137-.156-.244-.188-.193-.494-.293-.494-.156 0 .044-.063.094-.138.113-.275.075-.619-.525-.362-.625.05-.02.125-.007.156.025.038.037.125.012.231-.07.25-.2.425-.168.382.082-.02.125.318.169.625.081.418-.112 1.15-.487 1.106-.562-.019-.025-.075-.038-.125-.019s-.106 0-.131-.038c-.025-.037-.119-.062-.206-.062-.094 0-.157-.044-.157-.106 0-.05.025-.094.063-.094.037 0 .062-.15.062-.325 0-.188.032-.331.069-.331s.063.05.063.106.03.081.068.062c.107-.068.075-.187-.093-.375-.088-.093-.144-.187-.125-.206.025-.025-.05-.075-.163-.112-.25-.088-.356-.25-.269-.388.056-.081.075-.081.156.025.05.062.1.094.12.062.043-.08-.082-.475-.15-.475-.032 0-.045.038-.026.088.019.044-.012.125-.062.162-.1.082-.307.038-.307-.062 0-.038-.03-.05-.068-.025q-.068.046.043.169c.075.081.1.181.063.325-.025.137 0 .231.062.3.1.094.1.112 0 .206-.087.081-.125.088-.143.025-.02-.044-.082-.081-.138-.081-.081 0-.087-.019-.025-.075a.33.33 0 0 0 .069-.213c0-.075-.019-.1-.038-.056-.018.044-.13.081-.256.081-.181 0-.237.038-.287.163-.07.187-.132.206-.25.087-.063-.062-.094-.025-.163.132-.05.118-.113.187-.131.162-.025-.019-.05.038-.05.131 0 .107-.032.175-.094.175-.169 0-.144.15.062.35.125.125.17.2.113.22-.094.037-.106.15-.012.15.037 0 .1-.076.143-.163.038-.094.1-.163.132-.163.03 0 .037.038.006.081a.5.5 0 0 0-.063.125.4.4 0 0 1-.025.088.4.4 0 0 0-.025.113c-.012.137-.244.13-.344-.013-.05-.075-.137-.138-.187-.138-.056 0-.1-.03-.1-.08 0-.25-.5.868-.75 1.687-.213.7-.494 2.338-.494 2.875 0 .388.244 1.926.4 2.526.45 1.75 1.413 3.356 2.8 4.688a9.9 9.9 0 0 0 5.001 2.563c.344.05.763.125.938.162.406.082 1.388.082 1.794 0l.937-.168a9.958 9.958 0 0 0 6.426-15.359 11.8 11.8 0 0 0-2.719-2.694 10.05 10.05 0 0 0-3.888-1.55 10.8 10.8 0 0 0-2.313-.15m2.1.612a.07.07 0 0 1-.062.063c-.044 0-.056-.031-.031-.063.019-.037.05-.062.062-.062.02 0 .032.025.032.062m-3.712.294c-.144.106-.288.125-.288.031 0-.08.356-.25.388-.181.012.031-.032.1-.1.15m-2.188.313c0 .018-.044.062-.1.106-.081.069-.1.062-.1-.025 0-.056.05-.1.1-.1.056 0 .1.006.1.025zm.919.206c0 .062-.05.125-.107.144-.125.043-.25-.07-.187-.17.062-.105.294-.087.294.026m6 .231c-.024.031-.1.063-.168.063-.075 0-.119-.032-.094-.063.025-.037.1-.062.175-.062.069 0 .113.025.088.062m-4.256.306c-.063.063-.125-.03-.063-.125.038-.062.05-.062.075 0 .013.05.013.107-.012.125m.343.538c.013.044-.012.069-.062.056a.2.2 0 0 1-.112-.112c-.013-.05.006-.075.062-.063a.23.23 0 0 1 .112.12m3.132.163c-.062.056-.15.08-.181.062-.094-.062.012-.156.162-.156.138 0 .138 0 .02.094m-8.42.206c-.112.05-.1.156.019.156.056 0 .1-.044.1-.1 0-.05-.013-.094-.019-.094zm-.662.437a.23.23 0 0 0-.032.207c.038.093.02.112-.087.087a.175.175 0 0 0-.2.075c-.094.144-.025.219.094.119.075-.063.106-.063.15.006.1.163.193 0 .187-.287a2 2 0 0 0-.031-.294zm5.688.194c.012.138 0 .169-.081.138-.07-.025-.107 0-.107.062 0 .063-.043.106-.1.106-.05 0-.093-.037-.093-.08 0-.132.112-.263.187-.22.038.025.044-.012.025-.1-.025-.1-.012-.125.056-.106.05.013.1.106.113.2m-3.794.044c0 .112.118.131.2.031.062-.081.056-.094-.063-.094-.075 0-.137.025-.137.063m1.969 0c0 .025.043.069.1.094.15.056.162.05.162-.063 0-.05-.062-.094-.131-.094-.075 0-.131.025-.131.063m3.594.012c-.044.125-.188.144-.188.025 0-.056.05-.1.107-.1.062 0 .094.032.08.075m-1.444.238c.013.044-.025.075-.081.075a.106.106 0 0 1-.1-.1c0-.113.137-.094.181.025m-2.282.069c0 .112.163.2.263.137.087-.056.087-.068 0-.125-.125-.081-.263-.087-.263-.012m-1.962.069c-.082.05-.082.08-.013.162.169.2.319.119.231-.119-.05-.119-.087-.125-.218-.043m4.594.037c0 .038-.031.075-.069.088-.037.012-.069-.025-.069-.088s.032-.1.063-.088c.044.02.075.057.075.088m-2.125.044c.062.062.119.062.23 0 .138-.063.132-.063-.08-.069-.169 0-.207.013-.15.069m1.363-.013c.043.075-.076.15-.163.1-.075-.043-.025-.162.062-.162.032 0 .075.025.094.062zm-.444.044c-.025.019-.082.019-.125 0-.057-.019-.038-.031.037-.037.069 0 .106.012.088.037m2.119.025c0 .038-.05.063-.107.063s-.08-.025-.062-.063a.14.14 0 0 1 .106-.062c.031 0 .063.025.063.062m-2.857.044a.9.9 0 0 0-.263.15 1 1 0 0 1-.23.15q-.115.036.024.044c.113 0 .763-.188.825-.238.038-.031-.137-.156-.187-.144zm2.063.181c0 .063-.125.094-.163.038-.018-.038.006-.063.063-.063.062 0 .106.006.106.025zm-6.77.181a.7.7 0 0 1 .1.282c.038.187.031.2-.15.175-.125-.02-.194 0-.194.043 0 .044.063.063.144.063.188-.031.231.1.044.125-.156.025-.269-.1-.219-.238.019-.05-.025-.1-.1-.125-.15-.03-.175-.206-.056-.33.106-.1.35-.1.431.005m1-.018c0 .087-.119.15-.194.1-.037-.025-.05-.07-.03-.1.05-.082.224-.082.224 0m-.325.262c.075.05.063.063-.05.063-.081 0-.15-.025-.15-.063q.002-.122.2 0m9.84.063c0 .037-.045.068-.1.068-.057 0-.101-.03-.101-.062 0-.038.044-.063.1-.063s.1.025.1.063zm-9.521.062c.05.031.069.088.044.125-.032.063-.075.05-.138-.019-.156-.156-.094-.225.094-.106m-1.44.068c0 .037-.062.062-.144.062-.125 0-.125-.006-.05-.062.126-.081.194-.081.194 0m1.013 0c.025.031.012.125-.025.206-.063.131-.063.138-.063.025.02-.231 0-.25-.1-.125-.08.106-.1.113-.1.019 0-.15.22-.25.288-.125m2.625.075c-.075.125.038.15.15.037.107-.1.107-.112 0-.112-.056 0-.125.031-.15.075m.625.062a.066.066 0 1 0 .132 0 .062.062 0 1 0-.125 0zm-4.313.138c-.05.05-.081.056-.081.012 0-.087.081-.162.125-.125.019.025 0 .075-.044.113m3.988-.106c0 .037.032.1.075.143.063.063.057.1-.006.175-.087.1 0 .15.088.057.03-.032.112-.05.187-.05s.15-.044.169-.088c.019-.062-.013-.081-.113-.044-.106.032-.175 0-.268-.112-.07-.081-.125-.119-.125-.081zm-3.156.512c0 .044-.013.044-.038-.012-.05-.125-.15-.094-.112.037.012.063-.013.025-.063-.081-.05-.113-.081-.225-.062-.256.05-.07.287.2.275.312m.268-.219a.063.063 0 1 1-.125 0 .063.063 0 0 1 .125 0m4.539.057c-.063.037-.063.062-.02.1.082.05.207-.007.207-.1 0-.075-.075-.075-.187 0m-4.301.1c.125.125.112.231-.038.231-.1 0-.13-.044-.13-.163 0-.187.037-.2.168-.068m-.238.037a.063.063 0 0 1-.062.063c-.044 0-.063-.025-.038-.063.025-.037.063-.062.075-.062.013 0 .025.025.025.062m3.776 0c-.044.063.062.144.125.082.062-.063.044-.15-.025-.15-.031 0-.081.03-.1.062zm6.326.063c0 .037-.013.062-.025.062-.019 0-.05-.025-.075-.062-.019-.032-.006-.063.031-.063.038 0 .069.031.069.063m-6.689.1c0 .056.025.1.063.1.037 0 .044-.044.025-.1s-.05-.1-.063-.1-.025.043-.025.1m-.2.162c0 .069.032.125.063.125.044 0 .069-.056.069-.125 0-.068-.025-.125-.063-.125-.037 0-.062.057-.062.125zm.813 0c0 .088.044.125.106.113a.12.12 0 0 0 .1-.113.12.12 0 0 0-.1-.112c-.062-.013-.1.025-.1.112zm.238.188c0 .044-.05.075-.113.075-.075 0-.087.019-.037.069.037.037.124.062.193.05.138-.025.17-.188.038-.238-.044-.012-.081.006-.081.044m.33.169c0 .056.026.1.063.1s.063-.025.063-.063c0-.031-.025-.075-.063-.1-.037-.025-.062 0-.062.063m-2.362.237c0 .038-.031.05-.063.025a.14.14 0 0 1-.068-.106c0-.031.031-.044.062-.025.038.025.069.069.069.106m2.463.063c.019.03.05.062.062.062.02 0 .032-.031.032-.062 0-.038-.032-.07-.063-.07-.044 0-.062.032-.031.063zm-6.201.125c0 .037-.044.062-.1.062-.1 0-.125-.075-.056-.144.05-.056.156 0 .156.088zm4.132.037c0 .056-.031.081-.063.063-.037-.025-.068-.07-.068-.1 0-.038.03-.063.062-.063.038 0 .069.044.069.1m-3.282.131c0 .057-.025.082-.062.063-.038-.025-.063-.069-.063-.1 0-.038.025-.063.063-.063.037 0 .062.044.062.1m2.825-.075c0 .013-.05.044-.106.063-.062.025-.081.012-.062-.025.043-.063.168-.094.168-.038m1.413.22c-.019.018-.037 0-.037-.032 0-.038-.063-.056-.132-.038-.075.02-.13 0-.13-.03 0-.107.224-.126.28-.032.032.05.038.106.02.125zm-2.713.03c-.05.044-.081.05-.081.007 0-.088.081-.163.125-.12.019.02 0 .063-.044.113m-1.919.02c0 .05-.025.093-.062.093-.082 0-.138-.1-.088-.15.075-.075.15-.044.15.056M9.94 8.99c0 .112.125.25.168.206.032-.031 0-.1-.062-.163-.063-.062-.106-.08-.106-.043m-3.545.156a.062.062 0 0 1-.106.044.062.062 0 1 1 .106-.044m-.525.1c0 .056-.043.1-.1.1-.1 0-.125-.081-.05-.156s.15-.044.15.056m-.862.156c.03.207-.088.313-.22.207-.124-.1-.124-.313-.018-.35.138-.063.213-.013.238.143m2.375-.125a.066.066 0 1 1-.131 0 .06.06 0 0 1 .062-.062.063.063 0 0 1 .063.062zm-4.094.182c-.063.062-.125-.038-.07-.125.045-.063.063-.063.082 0 .013.043.006.1-.012.125m5.207.018c0 .075-.032.119-.063.094-.037-.019-.069-.081-.069-.131 0-.056.032-.094.063-.094.037 0 .062.062.062.131zm-2.75 0a.063.063 0 0 1-.063.063.15.15 0 0 1-.106-.063c-.025-.037 0-.062.062-.062.056 0 .1.025.1.062zm-.07.288a.1.1 0 1 1-.2 0 .1.1 0 0 1 .2 0m-1.443.037a.066.066 0 1 1-.132 0 .062.062 0 0 1 .107-.044.06.06 0 0 1 .018.044zm3.769 0c.025.032.012.063-.025.063s-.081-.031-.106-.063c-.02-.037-.013-.062.025-.062a.13.13 0 0 1 .106.062m-3.638.35c0 .082-.125.238-.2.238-.031 0-.038-.325-.006-.375.025-.044.206.075.206.137m12.19.038c.012.044-.014.069-.063.056a.2.2 0 0 1-.113-.112c-.019-.05.006-.075.063-.063a.23.23 0 0 1 .112.119m-11.94.075c-.138.087-.2.062-.106-.031.043-.05.112-.082.137-.063.031.019.019.063-.031.094m.6-.044c0 .05-.031.113-.063.131-.037.025-.062.157-.062.294 0 .144-.038.275-.069.294-.037.025-.062.019-.062-.013 0-.03-.063-.125-.138-.2-.169-.18-.125-.368.125-.5.231-.118.269-.118.269-.006m.356.063c-.037.093-.156.15-.156.062 0-.037.156-.212.181-.187.007.006 0 .062-.025.125m12.652.062c.163.125.138.188-.062.163-.113-.013-.194-.069-.207-.138-.025-.137.107-.144.27-.025m2.138.125c.537.357.906 1.088.975 1.92.131 1.75-1.269 2.45-2.494 1.25a2.8 2.8 0 0 1-.513-.688c-.169-.375-.23-1.125-.13-1.5.112-.42.455-.876.793-1.05a1.42 1.42 0 0 1 1.369.068m-12.027.113q-.047.076-.112.012a.125.125 0 0 1-.02-.144c.032-.05.063-.056.113-.012a.12.12 0 0 1 .02.144m-3.907.062c0 .081-.168.206-.218.156-.088-.093-.038-.218.087-.218.075 0 .131.025.131.062m4.657.075c0 .038-.025.05-.062.025a.14.14 0 0 1-.063-.106c0-.038.025-.044.063-.025a.14.14 0 0 1 .062.106m4.063.063c0 .031-.037.062-.087.062-.107 0-.25-.162-.188-.219.05-.05.282.075.282.157zm-9.176-.07a.065.065 0 0 1-.112.047.07.07 0 0 1-.02-.046.063.063 0 0 1 .063-.062.063.063 0 0 1 .063.062zm4.557.263c-.038.063-.231.007-.231-.062 0-.025.025-.063.043-.094.063-.056.232.088.188.156m4.063-.13c.025.03.012.062-.025.062s-.069-.032-.069-.063c0-.037.013-.062.032-.062.012 0 .043.025.062.062m-7.914.293c0 .088-.018.162-.043.162s-.05-.074-.063-.162c0-.094.019-.163.05-.163s.056.07.056.163m.37.063c.087.137.093.162.012.162a.15.15 0 0 0-.125.081c-.063.163-.194-.062-.15-.237.05-.213.125-.213.262 0zm.562-.032c0 .138-.094.175-.163.063-.05-.075.013-.194.1-.194.038 0 .063.062.063.125zm1.187-.03a.09.09 0 0 1-.062.08c-.044.013-.075-.025-.075-.08 0-.063.031-.101.069-.088.043.012.075.05.075.087zm2.25.043.138.731a5.93 5.93 0 0 0 3.282 4.376c1.713.831 4.232.969 5.682.312.538-.25.819-.487 1-.862.106-.232.175-.3.32-.313.243-.031.287.113.149.469-.35.913-1.638 1.506-3.432 1.582-2.55.112-4.75-.763-6.094-2.426-.475-.588-1.063-1.694-1.238-2.35-.094-.344-.138-.425-.25-.431-.125-.007-.125-.013-.019-.038.1-.025.113-.069.081-.238-.08-.38-.087-.793-.025-.875.12-.144.376-.1.407.063m4.27-.013c.025.038.013.063-.025.063-.044 0-.075-.025-.075-.063 0-.037.013-.062.031-.062.02 0 .05.025.07.062m-4.85.063c.018.037.006.062-.032.062-.037 0-.069-.025-.069-.062 0-.031.013-.063.032-.063.012 0 .043.032.062.063zm-2.132.062c0 .038-.031.069-.075.069-.038 0-.05-.031-.025-.062.019-.038.05-.063.069-.063.018 0 .03.025.03.063zM4.6 11.46c.044.125-.087.362-.206.362-.112 0-.125-.15-.031-.33.081-.145.187-.163.237-.032m3.038.175a.063.063 0 0 1-.062.062c-.038 0-.063-.05-.063-.106s.025-.081.063-.062a.14.14 0 0 1 .062.106m5.414-.007c.025.038.012.063-.025.063a.14.14 0 0 1-.107-.062c-.018-.038-.012-.063.025-.063s.088.025.107.063m-5.082.126a.066.066 0 0 1-.112.046.07.07 0 0 1-.02-.046q0-.026.019-.044a.06.06 0 0 1 .088 0 .06.06 0 0 1 .018.044zm7.37.28c.037.063.05.132.018.157-.069.075-.269-.062-.294-.2-.03-.144.175-.112.275.044m-2.42.239c-.05.05-.23-.138-.225-.25 0-.076.032-.063.125.062.07.087.113.175.1.188m-4.575-.02c-.063.063-.25-.106-.2-.187.018-.031.08-.019.137.044.063.056.088.125.063.144M4.45 12.19c.05.119-.012.413-.087.413-.113 0-.213-.2-.169-.357.044-.187.2-.218.256-.062zm-.418.375c0 .107-.12.206-.175.15-.057-.056.03-.237.106-.237.037 0 .069.037.069.094zm11.458.175c0 .125-.026.188-.088.188-.113 0-.2-.207-.1-.244.044-.012.081-.069.081-.125 0-.188.094-.019.107.188zm-1.945.063c0 .037-.012.062-.03.062-.013 0-.045-.025-.063-.062-.025-.038-.013-.063.025-.063.037 0 .062.025.062.063zm1.05.031c.044.062.05.1.013.1s-.05.063-.031.138c.043.168-.1.143-.207-.038-.056-.088-.05-.125.013-.15.044-.013.063-.056.044-.088-.063-.1.081-.062.169.038m-10.17.062c0 .05-.025.113-.062.132-.038.025-.063-.019-.063-.094s.025-.131.063-.131c.037 0 .062.044.062.093m2.432-.03a.065.065 0 0 1-.112.046.07.07 0 0 1-.02-.047.062.062 0 1 1 .126 0zm.519.2c0 .068-.025.124-.063.124-.037 0-.062-.056-.062-.125 0-.075.025-.13.062-.13.038 0 .063.055.063.124zm.856.418c0 .056-.012.1-.025.1-.012 0-.044-.044-.062-.1-.025-.05-.013-.094.025-.094.03 0 .062.044.062.094m8.426.231c.025.038.013.063-.025.063-.037 0-.068-.025-.068-.063 0-.037.012-.062.024-.062.02 0 .05.025.07.062m-.587.394c.019.031.006.063-.032.063a.063.063 0 0 1-.062-.063c0-.037.006-.062.025-.062.012 0 .044.025.063.062zm-3.807.063c.025.037.013.062-.025.062s-.069-.025-.069-.062c0-.038.013-.063.025-.063.019 0 .05.025.069.063m.75.331c0 .037-.025.05-.062.025a.14.14 0 0 1-.063-.106c0-.032.031-.044.063-.025a.15.15 0 0 1 .062.106m-1.013.062c.026.032.013.063-.024.063-.038 0-.07-.031-.07-.063 0-.037.013-.062.026-.062.018 0 .05.025.068.062m-4.663.55c.019.05.007.113-.025.132-.037.025-.062-.019-.062-.094 0-.156.031-.175.087-.037m12.208.032c.025.037.007.062-.031.062s-.062-.025-.062-.062c0-.031.006-.063.024-.063.013 0 .044.032.07.063m-6.594.262c0 .038-.013.063-.025.063-.02 0-.05-.025-.07-.063-.024-.03-.012-.062.026-.062.037 0 .069.031.069.062m4.982.082c.062.162.024.312-.063.312s-.206-.262-.169-.362c.057-.144.169-.113.232.05m-2.063.25c.025.031.012.062-.025.062s-.069-.031-.069-.062c0-.038.013-.07.025-.07.019 0 .05.032.069.064zm-9.74.312c0 .081-.074.144-.143.1-.062-.037-.006-.156.081-.156.038 0 .063.025.063.056m2.426.438c0 .056-.025.081-.062.062-.038-.025-.063-.069-.063-.1 0-.037.025-.062.063-.062.037 0 .062.044.062.1m3.313 1.075c.025.031.013.062-.025.062-.037 0-.069-.03-.069-.062 0-.037.013-.063.025-.063.02 0 .05.026.07.063"/>
    <path fill="#EC1C24" d="M13.377 2.62c-.02.038 0 .069.03.069.038 0 .07-.031.07-.063 0-.037-.013-.062-.026-.062-.018 0-.05.025-.068.062zm-3.72.188c-.187.087-.244.212-.1.206.119 0 .331-.175.306-.244-.012-.031-.106-.012-.206.031zm-2.275.506c0 .087.012.094.094.025.056-.044.1-.088.1-.1 0-.019-.044-.025-.1-.025-.05 0-.094.044-.094.1m.812.1c-.062.1.075.212.194.169.063-.025.106-.088.106-.144 0-.113-.23-.131-.3-.025m.607.087c-.188.175-.594.325-.732.275-.056-.018-.075-.087-.056-.168.019-.075 0-.138-.031-.138-.044 0-.063.044-.038.088.038.112-.58.075-.843-.05-.163-.082-.207-.063-.72.281-.293.2-.793.606-1.1.9-.55.519-.556.531-.543.825.012.3-.082.463-.188.3-.037-.062-.069-.062-.137-.006-.057.044-.12.056-.144.031-.025-.025-.113.044-.2.15-.113.138-.138.213-.088.269.107.125.182.1.25-.081.05-.125.107-.163.288-.163.125 0 .237-.037.256-.081s.038-.019.038.056c0 .069-.025.169-.069.213-.063.062-.063.075.025.075.062 0 .125.037.137.081.025.063.063.056.144-.025.1-.094.1-.112 0-.206-.062-.063-.087-.163-.056-.3.031-.144.006-.244-.069-.325s-.087-.138-.044-.17c.038-.024.07-.012.07.02 0 .106.205.15.312.062.044-.037.075-.112.056-.156-.019-.05-.006-.088.025-.088.069 0 .194.394.15.475-.019.032-.069 0-.125-.062-.075-.106-.094-.106-.15-.025-.088.137.025.3.269.388.112.037.187.087.169.112-.025.019.03.113.125.213q.244.268.087.368c-.037.02-.062-.006-.062-.062 0-.063-.032-.106-.063-.106-.044 0-.069.15-.069.33 0 .176-.03.326-.062.326-.044 0-.069.044-.069.094 0 .062.063.1.156.1.088 0 .182.031.207.068s.08.057.13.038.107-.006.126.025c.044.069-.688.444-1.1.563-.313.08-.65.03-.625-.088.037-.25-.132-.281-.388-.081-.106.081-.187.106-.231.069a.17.17 0 0 0-.156-.025c-.25.1.087.7.362.625.075-.02.138-.07.138-.113 0-.137.306-.037.5.156.093.107.162.213.15.244-.007.025.031.063.093.075.063.013.113 0 .113-.037a.3.3 0 0 1 .063-.144c.05-.081.074-.081.168 0 .088.069.125.075.144.012.038-.112.15-.1.15.013 0 .125.1.131.169.025.031-.044-.038-.15-.163-.25l-.212-.181.162-.032c.094-.012.2 0 .238.038q.064.075.062-.038c0-.062.075-.125.188-.156a.7.7 0 0 0 .294-.175c.087-.1.13-.112.193-.056.063.062.063.106 0 .206a.5.5 0 0 0-.08.225c0 .056-.063.125-.126.169-.075.037-.137.125-.137.187a.32.32 0 0 1-.1.207c-.125.1-.125.187 0 .187.075 0 .25-.169.687-.706.075-.088.138-.125.138-.081 0 .043.031.075.069.075.043 0 .03-.063-.032-.163-.144-.219-.137-.25.088-.212.162.018.187.006.137-.082-.075-.131.125-.275.263-.187.125.075.256.075.256-.006 0-.038-.075-.082-.169-.107-.118-.031-.143-.062-.093-.112s.087-.05.143 0a.16.16 0 0 0 .163.043c.056-.025.094-.012.087.02-.03.143.013.218.107.218q.112 0 .075.131c-.02.075-.007.113.025.094.03-.019.062-.006.062.025 0 .038.069.156.163.263.087.106.15.23.125.28-.02.063.043.12.168.163.107.044.194.125.194.182s.032.1.075.1c.038 0 .063-.063.044-.144-.037-.275.188-.188.594.237.275.288.406.47.406.582 0 .094.025.237.063.331.075.2.462.588.7.706.1.044.25.182.312.294.144.225.238.269.238.125 0-.056.031-.106.075-.125.05-.012.019-.1-.094-.25-.181-.231-.25-.412-.163-.437.1-.032.376.068.45.162a.7.7 0 0 0 .22.156c.218.1.387.22.48.338.095.125.313.156.37.063.018-.038-.032-.107-.12-.163a.8.8 0 0 1-.23-.288c-.1-.243-.613-.562-.826-.525-.112.019-.218-.018-.33-.125-.207-.187-.213-.318-.014-.187.188.125.344.037.282-.15a.4.4 0 0 0-.169-.207c-.1-.056-.144-.043-.206.063-.082.125-.088.125-.232-.012-.087-.075-.15-.188-.15-.25 0-.138-.168-.282-.262-.226-.038.025-.062.082-.062.138 0 .125-.113.119-.163-.013-.063-.162-.044-.218.062-.218.05 0 .094-.032.094-.063 0-.094-.187-.212-.262-.169-.1.063-.263-.087-.22-.2.02-.05 0-.093-.037-.093s-.068-.038-.068-.088c0-.125.243-.325.35-.281.056.019.112-.006.13-.063.038-.093-.33-.394-.462-.362a.13.13 0 0 1-.118-.05c-.044-.069.012-.088.293-.094.125-.006.163-.038.144-.125a.46.46 0 0 1 .056-.238c.063-.112.044-.137-.112-.175-.294-.068-.413-.15-.375-.25.056-.143.269-.125.419.032.162.156.162.137.03-.188-.068-.175-.155-.269-.25-.287-.074-.013-.13-.063-.124-.107.012-.05-.013-.125-.063-.187-.062-.069-.062-.1.007-.144.062-.038.062-.063-.025-.094-.163-.062-.063-.156.23-.2.263-.044.263-.05.251-.312-.013-.332-.088-.45-.413-.67-.231-.162-.25-.162-.337-.05a.45.45 0 0 0-.088.188c0 .038-.1.057-.231.038q-.232-.028-.231.056c0 .075-.1.063-.357-.037-.1-.044-.118-.032-.08.056.03.094-.007.112-.25.125l-.376.012c-.037 0-.131-.075-.206-.18-.113-.145-.125-.188-.05-.232.075-.05.069-.081-.019-.213a.6.6 0 0 1-.106-.25.43.43 0 0 0-.106-.206c-.1-.113-.088-.119.343-.081.25.025.482.062.513.1.087.075.375.068.625-.019.15-.05.225-.05.3.012.138.113.294.032.294-.156 0-.262-.15-.325-.35-.144m5.438.17c-.025.03.013.062.088.062.068 0 .143-.032.168-.063.025-.037-.018-.062-.087-.062-.075 0-.15.025-.175.062zm-4.063.187c-.031.043-.037.1-.019.118.063.063.125-.025.094-.125-.025-.062-.037-.062-.081 0zm.231.6a.23.23 0 0 0 .119.112c.044.013.069-.012.056-.062a.2.2 0 0 0-.119-.113c-.043-.012-.068.013-.056.063m3.107.187c-.063.107.075.125.2.032.125-.088.125-.094-.019-.094-.081 0-.162.025-.181.062m-8.101.294c0 .056-.044.1-.1.1-.169 0-.113-.125.081-.187.013-.007.019.037.019.087m4.738.481c.025.088.012.125-.031.1-.069-.043-.182.088-.188.22 0 .043.05.08.106.08.05 0 .094-.05.094-.106 0-.062.038-.087.106-.062.075.031.094 0 .082-.138-.013-.094-.063-.187-.113-.2-.062-.025-.081.006-.062.106zm-5.682.057c-.075.068-.044.15.062.15.05 0 .094-.032.094-.063 0-.081-.106-.144-.156-.087m2.25.112c-.075.1-.187.081-.187-.031 0-.038.062-.063.131-.063.119 0 .125.013.062.094zm2.038 0c0 .113-.012.119-.156.063-.15-.063-.132-.157.025-.157.075 0 .125.044.125.1zm3.15.006c0 .12.138.1.182-.025.012-.043-.025-.075-.082-.075-.056 0-.1.044-.1.1m-1.444.188c0 .056.044.1.1.1.12 0 .1-.138-.024-.175-.044-.019-.075.019-.075.075m-1.837.106c.087.057.087.069 0 .125-.063.038-.125.038-.182-.012-.18-.15-.025-.25.182-.113m-2.007.1c.088.238-.062.313-.231.125-.063-.087-.063-.118.012-.168.132-.082.17-.075.22.043m4.238 0c0 .057.032.094.063.082.044-.013.075-.05.075-.088 0-.031-.031-.069-.069-.087-.037-.013-.069.03-.069.087zm-1.756.044c-.113.05-.175.05-.231 0-.057-.062-.02-.081.15-.075.212 0 .218.006.08.075m.937-.019c-.05.075.075.15.163.1.075-.043.025-.162-.062-.162a.12.12 0 0 0-.1.062m-.375.044c.044.019.1.019.125 0 .02-.025-.018-.037-.087-.037-.075 0-.094.018-.038.037m2.076.025c-.019.038.006.063.062.063.063 0 .106-.025.106-.063a.063.063 0 0 0-.062-.062.14.14 0 0 0-.106.062m-2.394.063c.125.075.106.087-.307.218-.312.1-.731.157-.481.063a.8.8 0 0 0 .231-.15c.113-.1.219-.144.425-.188.019 0 .082.019.132.057m1.612.2c.02.037.063.05.1.025.088-.057.075-.094-.043-.094-.057 0-.082.031-.063.062zm-7.044.137c-.12.125-.088.3.056.338.075.018.119.068.1.125-.05.13.062.256.219.237.187-.031.15-.162-.044-.137-.081.012-.144-.013-.144-.057 0-.043.075-.062.188-.043.187.025.193.018.156-.175a.7.7 0 0 0-.1-.282c-.081-.106-.325-.106-.431 0zm1.206-.012c-.019.03-.006.075.031.1.075.05.194-.013.194-.1 0-.082-.175-.082-.225 0m-1.563.293c-.025.057-.012.1.019.1.038 0 .063-.043.063-.1 0-.05-.007-.093-.025-.093-.013 0-.044.043-.063.093zm1.263-.03c0 .037.062.062.15.062.119 0 .125-.013.05-.063-.125-.081-.2-.081-.2 0m5.344 0c.025.037.063.062.075.062.013 0 .026-.025.026-.063a.063.063 0 0 0-.063-.062c-.044 0-.062.025-.038.062m4.501.062c0 .037.037.068.094.068.056 0 .1-.03.1-.062 0-.038-.044-.063-.1-.063s-.1.025-.1.063zm-9.514.043c0 .02.044.075.094.125.063.07.106.075.138.025.025-.043 0-.1-.044-.13-.106-.063-.188-.076-.188-.02m-1.444.088c-.081.056-.068.062.05.062.082 0 .144-.025.144-.062 0-.081-.062-.081-.194 0m1-.019c-.043.019-.08.081-.08.144 0 .094.018.087.1-.019.1-.125.118-.106.105.125-.006.113 0 .106.057-.025.093-.219.025-.312-.188-.225zm2.982.131c-.062.063-.125.094-.15.07-.062-.063.031-.182.156-.182.1 0 .1.012 0 .112zm.606.02a.062.062 0 1 1-.125 0 .062.062 0 0 1 .125 0m3.951.005c.013.038.044.07.069.063h.15c.062 0 .087-.031.062-.063-.05-.093-.312-.087-.28 0M3.3 7.208c-.113.163-.088.313.044.313.05 0 .137.062.187.131.1.144.332.15.344.013a.4.4 0 0 1 .025-.113.4.4 0 0 0 .025-.081.5.5 0 0 1 .063-.132c.03-.043.025-.08 0-.08-.038 0-.1.068-.138.162-.044.087-.106.162-.144.162-.093 0-.081-.112.013-.144.044-.018.019-.093-.081-.206-.188-.212-.22-.212-.338-.025m.513-.106a.18.18 0 0 0-.044.112c0 .044.031.038.081-.012.044-.038.063-.088.044-.106-.019-.02-.056-.02-.081.006m4.425.187c.1-.037.131-.025.113.044-.019.044-.094.088-.17.088-.074 0-.155.018-.187.05-.093.093-.175.043-.087-.057.062-.075.062-.118.006-.175-.044-.043-.075-.106-.075-.143 0-.038.063 0 .131.08.094.113.163.145.27.113m-3.825 0c-.02.038 0 .15.056.263.05.106.075.144.062.081-.037-.131.063-.162.113-.037q.037.086.037.012c.013-.112-.225-.381-.268-.312zm8.082.032c0 .037.044.062.1.062.063 0 .088-.025.063-.062a.12.12 0 0 0-.1-.063.063.063 0 0 0-.063.063m-7.676.062a.066.066 0 1 0 .131 0 .063.063 0 0 0-.125 0zm.2.231c0 .126.031.163.125.163.156 0 .175-.1.044-.231-.132-.132-.169-.119-.169.068m-.163-.03c-.025.037-.012.062.025.062s.07-.025.07-.063c0-.037-.013-.062-.026-.062-.019 0-.05.025-.069.062m4.032-.013c0 .087-.081.144-.143.1-.063-.038-.007-.157.08-.157.032 0 .063.025.063.063zm1.113.012c0 .038.031.063.069.063.037 0 .056-.025.031-.063-.025-.037-.056-.062-.069-.062-.018 0-.031.025-.031.062m1.15.063c.025.037.069.05.1.031.094-.056.075-.094-.037-.094-.063 0-.088.031-.063.063m3.807 0c.019.037.05.062.062.062.02 0 .032-.025.032-.062a.07.07 0 0 0-.063-.063c-.044 0-.056.031-.031.063m-6.501.1c.019.056 0 .1-.031.1-.032 0-.063-.044-.063-.1s.013-.1.025-.1.044.044.063.1zm-.163.162c0 .069-.025.125-.062.125-.038 0-.063-.056-.063-.125 0-.068.025-.125.063-.125.037 0 .062.057.062.125m.888 0a.12.12 0 0 1-.1.113c-.062.012-.1-.025-.1-.113 0-.087.038-.125.1-.112a.12.12 0 0 1 .1.112m.2.263c0 .119-.225.162-.312.069-.063-.05-.044-.07.03-.07.063 0 .113-.03.113-.074 0-.038.038-.056.082-.044.05.019.087.069.087.125zm.781-.063c.025.032.063.063.075.063.013 0 .026-.031.026-.063 0-.037-.032-.068-.063-.068-.044 0-.062.03-.038.062zm-3.112.313c0 .037.03.087.062.106.038.025.069.013.069-.025 0-.037-.031-.081-.063-.106-.037-.019-.062-.006-.062.025zm3.512.125c-.018.044-.006.094.032.112.1.063.168-.018.081-.106q-.066-.066-.113 0zm-7.276.062c-.075.07-.043.15.063.15.05 0 .094-.03.094-.062 0-.081-.1-.144-.157-.088m9.958.025c-.05.075.081.188.219.188.125 0 .1-.088-.05-.175-.088-.063-.138-.063-.169-.013m-5.8.057c0 .03.03.075.062.1.037.018.069-.007.069-.063s-.032-.1-.063-.1c-.037 0-.069.025-.069.063m-3.282.125c0 .037.03.08.062.106.044.019.069-.006.069-.063 0-.056-.025-.1-.063-.1-.037 0-.062.025-.062.063zm2.787.006c-.018.037 0 .05.063.025.113-.044.138-.088.044-.088a.14.14 0 0 0-.107.063m1.394-.013c-.062.013-.112.057-.112.094 0 .038.062.05.125.031.075-.018.137 0 .137.038 0 .037.02.05.038.031.075-.075-.069-.219-.188-.194m6.089.082c.019.03.05.062.062.062.02 0 .032-.031.032-.062a.063.063 0 0 0-.063-.063c-.044 0-.056.025-.031.063m-8.651.043a.2.2 0 0 0-.044.107c0 .044.031.037.081-.007.038-.043.063-.093.044-.112s-.056-.013-.081.012m-2.032.063c-.05.05.006.15.088.15.037 0 .062-.044.062-.094 0-.1-.075-.131-.15-.062zm2.513.15a.066.066 0 1 0 .131 0 .062.062 0 0 0-.107-.044.06.06 0 0 0-.018.044zm-.544.044c-.075.075-.05.156.05.156.063 0 .1-.044.1-.1 0-.1-.075-.125-.15-.056m5.688.025c.025.031.063.062.075.062.02 0 .032-.031.032-.062 0-.038-.032-.063-.07-.063-.043 0-.055.025-.03.063zm1.313 0c.025.031.075.062.113.062.03 0 .043-.031.025-.062a.14.14 0 0 0-.107-.063c-.037 0-.05.025-.025.063zm-7.951.044c-.113.043-.1.25.019.35.131.106.25 0 .218-.207-.025-.156-.1-.2-.237-.143m2.482.018a.062.062 0 0 0 .106.044.062.062 0 0 0-.044-.106.063.063 0 0 0-.062.062m-4.032.063c-.025.044-.032.094-.013.119.063.056.125-.032.094-.125-.025-.063-.038-.063-.081 0zm10.689 0c-.025.037 0 .068.062.068.063 0 .088-.03.063-.062-.019-.038-.05-.063-.063-.063s-.043.025-.062.063zm-5.545.1c0 .05.031.112.063.131.037.025.062-.019.062-.094s-.025-.13-.062-.13c-.032 0-.063.037-.063.093m-2.788.031c.025.038.063.062.1.062a.063.063 0 0 0 .063-.062c0-.031-.044-.063-.1-.063-.063 0-.088.032-.063.063m-.1.294a.1.1 0 1 0 .2 0 .1.1 0 0 0-.2 0M4.1 9.802a.062.062 0 0 0 .107.044.062.062 0 0 0-.044-.106.063.063 0 0 0-.063.062m3.77 0c.024.032.068.063.106.063s.05-.031.025-.063c-.02-.037-.07-.062-.107-.062s-.043.025-.025.062m-3.714.213c-.03.05-.025.375.007.375.068 0 .2-.156.2-.238 0-.062-.182-.187-.207-.137m9.652.112c0 .075.187.163.237.113.019-.019-.025-.069-.1-.113q-.139-.075-.137 0m2.569-.006c.019.05.062.1.112.119.05.012.075-.013.063-.063a.2.2 0 0 0-.119-.112c-.05-.013-.075.012-.056.062zm-11.87.106c-.094.1-.032.12.106.032.05-.032.062-.075.037-.094-.031-.013-.1.012-.144.062m.437 0c-.25.125-.294.313-.125.494.075.075.131.169.131.2 0 .032.031.038.063.013.043-.019.069-.15.069-.294 0-.138.03-.269.062-.294.081-.044.094-.231.019-.219-.025 0-.125.05-.225.1zm.55 0c-.1.1-.106.157-.025.157.056 0 .163-.2.125-.232-.012-.012-.056.02-.1.07zm7.851.025c0 .032.031.063.075.063.038 0 .05-.031.025-.063-.018-.037-.05-.062-.062-.062-.025 0-.038.025-.038.062m4.607.113c.013.069.094.125.2.137.206.02.231-.037.063-.162-.157-.125-.288-.113-.263.025m-9.751.081a.125.125 0 0 0 .018.144q.066.064.113-.013a.125.125 0 0 0-.019-.143q-.066-.065-.112.012m-4.038.219c0 .131.08.181.175.1.125-.106.112-.188-.044-.188-.069 0-.125.038-.125.088zm4.788-.031c0 .037.031.08.062.106.044.025.07.012.07-.025a.14.14 0 0 0-.063-.106c-.038-.02-.063-.013-.063.025zm3.913-.013c-.056.063.087.219.194.219.05 0 .093-.031.093-.062 0-.082-.23-.207-.287-.157m-9.026.088q0 .025.018.044a.062.062 0 0 0 .107-.044.06.06 0 0 0-.019-.045.063.063 0 0 0-.088 0 .06.06 0 0 0-.018.045m4.5.106a.15.15 0 0 0-.044.094c0 .068.188.125.232.062.043-.062-.125-.212-.188-.156m4.157.025c0 .031.031.063.069.063.037 0 .05-.032.031-.063-.025-.038-.056-.062-.069-.062-.018 0-.03.024-.03.062m-7.92.294c0 .087.031.162.056.162s.044-.075.044-.162c0-.094-.025-.163-.062-.163-.025 0-.044.069-.038.163m.206.062c-.043.188.094.407.15.25a.14.14 0 0 1 .125-.087c.082 0 .075-.025-.012-.163-.138-.206-.213-.206-.263 0m.663-.1c-.05.082.013.2.1.2.038 0 .063-.062.063-.131 0-.137-.094-.175-.163-.063zm1.213.038c0 .062.031.094.068.081.044-.012.075-.05.075-.081 0-.038-.03-.075-.075-.088-.037-.012-.062.025-.062.088zm6.563.031c0 .038.025.063.063.063.043 0 .056-.025.03-.063-.018-.037-.05-.063-.062-.063-.018 0-.037.025-.037.063zm-4.857.063c0 .037.031.062.069.062.037 0 .05-.025.031-.062-.025-.032-.056-.063-.069-.063-.018 0-.03.031-.03.063m-2.131.062c-.025.038-.013.069.03.069a.063.063 0 0 0 .063-.063c0-.037-.006-.062-.025-.062-.018 0-.05.025-.068.062zm-1.87.194c-.093.187-.08.331.032.331.119 0 .25-.237.206-.362-.05-.125-.156-.113-.237.03m3.151.1c0 .056.025.1.063.1.037 0 .062-.025.062-.063 0-.031-.025-.075-.062-.1-.038-.019-.063.007-.063.063m1.044.062c0 .063.031.107.063.107.043 0 .068-.032.068-.063a.13.13 0 0 0-.062-.1c-.038-.025-.063 0-.063.063zm4.363-.025a.14.14 0 0 0 .106.063c.038 0 .05-.025.025-.063-.018-.037-.068-.062-.106-.062s-.044.025-.025.062m-5.082.125a.066.066 0 1 0 .132 0 .066.066 0 0 0-.132 0m.9.175c-.025.025-.05.1-.05.163s-.05.125-.112.15c-.063.012-.013.025.112.012.188-.012.225-.043.213-.143-.031-.15-.106-.238-.163-.182m6.326.063c.025.137.225.275.294.2.069-.063-.062-.263-.2-.294-.081-.012-.112.013-.094.094m-2.375.037c0 .107.181.294.231.244.013-.012-.031-.1-.1-.187-.094-.125-.125-.138-.125-.063zm-4.545.044c-.05.075.138.25.2.188.025-.032 0-.094-.062-.15-.063-.063-.119-.075-.138-.038m-3.95.175c-.044.156.056.356.169.356.075 0 .137-.293.087-.418-.062-.157-.212-.125-.256.062m-.338.332c-.018.056-.018.112 0 .137.063.056.175-.044.175-.144 0-.125-.125-.125-.175 0zm11.527-.02c0 .057-.037.113-.081.126-.1.037-.013.25.1.25q.094 0 .087-.188c-.012-.206-.106-.375-.106-.187m-1.938.245c.025.037.056.062.069.062.019 0 .031-.025.031-.062 0-.038-.031-.063-.069-.063-.037 0-.05.025-.03.063m.982-.007c.018.032 0 .075-.044.088-.063.025-.063.062-.013.15.107.181.25.206.207.037-.02-.075 0-.137.03-.137.038 0 .038-.044-.012-.1-.087-.107-.231-.138-.168-.038M4.3 12.928c0 .075.025.118.063.094.037-.02.062-.082.062-.132s-.025-.094-.062-.094c-.038 0-.063.063-.063.132m2.425-.063q0 .026.019.044a.062.062 0 0 0 .106-.044.062.062 0 1 0-.125 0m.526.188c0 .075.025.131.062.131.038 0 .063-.056.063-.125 0-.075-.025-.131-.063-.131-.037 0-.062.056-.062.125m.893.425c.02.056.05.1.063.1s.025-.044.025-.1c0-.05-.031-.094-.063-.094-.037 0-.05.044-.025.094m8.42.231c0 .038.032.063.063.063.044 0 .056-.025.031-.063-.019-.037-.05-.062-.062-.062-.02 0-.032.025-.032.062m-.594.394c0 .031.032.062.07.062.037 0 .05-.03.03-.062-.024-.037-.056-.063-.068-.063-.019 0-.031.026-.031.063m-3.8.062c0 .038.031.063.063.063.043 0 .056-.025.03-.063-.018-.037-.05-.062-.062-.062-.019 0-.031.025-.031.062m.719.25c0 .038.031.088.062.107.038.025.07.012.07-.025 0-.031-.032-.082-.063-.107-.038-.018-.07-.006-.07.025m-.982.144c0 .032.032.063.063.063.044 0 .056-.031.031-.063-.018-.037-.05-.062-.062-.062-.019 0-.032.025-.032.062m-4.656.588c0 .075.025.119.062.094.031-.02.044-.082.025-.132q-.085-.206-.087.038m12.195 0c0 .031.031.062.069.062.043 0 .056-.031.031-.062-.025-.038-.056-.063-.069-.063-.018 0-.031.025-.031.063m-6.588.256c.018.038.05.063.062.063.019 0 .031-.025.031-.063a.07.07 0 0 0-.062-.062c-.044 0-.056.03-.031.062m4.844.031c-.037.1.081.363.169.363.087 0 .125-.15.062-.313-.062-.162-.175-.187-.23-.05m-1.925.294c0 .038.031.063.062.063.044 0 .056-.025.032-.063-.02-.031-.05-.062-.063-.062-.019 0-.031.03-.031.062m-9.808.325c-.044.069.063.15.125.088.063-.063.05-.15-.025-.15-.031 0-.075.031-.1.062m5.376.2c.025.038.056.063.069.063.018 0 .03-.025.03-.063 0-.037-.03-.062-.068-.062-.037 0-.05.025-.031.062m-2.92.188c0 .037.032.081.063.106.044.019.069-.006.069-.062 0-.057-.025-.1-.063-.1-.037 0-.062.024-.062.062zm3.351 1.119c0 .03.031.062.063.062.043 0 .056-.031.03-.062-.018-.038-.05-.063-.062-.063-.018 0-.03.025-.03.063"/>
    <path fill="#333" d="M10.738 6.546c-.48.15-.825.43-.837.687-.006.125-.044.188-.119.175-.175-.012-.125.15.088.3.2.144.206.338.006.288-.194-.05-.269.112-.188.425.05.206.094.269.169.237.1-.037.275.07.275.17 0 .03-.044.062-.106.062-.088 0-.094.012-.025.093.062.075.106.082.175.025.112-.087.287.032.287.2 0 .063.063.176.15.25.144.144.15.144.232.013.062-.106.106-.119.206-.063.156.082.237.326.125.394-.106.07.075.157.669.32 1.319.368 2.544-.05 2.819-.964.088-.293-.025-.775-.3-1.262a3.65 3.65 0 0 0-1.213-1.144 3.5 3.5 0 0 0-2.413-.206m1.788.512c.025.038 0 .063-.062.063l-.15.012c-.025 0-.057-.031-.07-.062-.03-.094.226-.1.282-.013m.131.263c.025.037 0 .062-.062.062-.056 0-.1-.025-.1-.062 0-.038.025-.063.062-.063.032 0 .082.025.1.063m-2.562.262c.03.038.012.063-.026.063-.037 0-.062-.025-.062-.063 0-.037.006-.062.025-.062.013 0 .044.025.063.062m1.218.025c0 .069-.125.1-.162.038-.025-.032 0-.063.063-.063.056 0 .1.013.1.025m-1.05.5c0 .032-.012.063-.025.063-.018 0-.05-.031-.075-.063-.018-.037-.006-.068.031-.068.038 0 .07.03.07.062zm.444.557c-.062.062-.187-.038-.144-.113.032-.044.063-.044.113 0 .037.038.056.088.031.113m2.838.106c0 .062-.144.062-.25-.006-.056-.032-.075-.094-.05-.125.044-.082.3.037.3.13m.981.119c0 .03-.012.062-.024.062-.02 0-.05-.031-.07-.062-.024-.038-.012-.063.026-.063.037 0 .068.025.068.063m-3.012.325c0 .031-.02.062-.032.062-.018 0-.05-.031-.068-.062-.025-.038-.013-.063.024-.063.044 0 .075.025.075.063m1.344 0c.018.031.006.062-.026.062a.14.14 0 0 1-.106-.062c-.025-.038-.012-.063.025-.063a.15.15 0 0 1 .107.063m1.181.125c.019.037-.013.068-.063.068-.062 0-.093-.03-.068-.062.018-.038.05-.063.062-.063.013 0 .044.025.063.063zm4.95 1.062a1.85 1.85 0 0 0-.793 1.05c-.1.376-.038 1.126.125 1.5.081.176.312.482.519.688.581.563 1.187.732 1.768.47 1.094-.495.932-2.864-.25-3.639a1.42 1.42 0 0 0-1.375-.069zm-10.363.732a.27.27 0 0 0-.032.243c.025.075.05.232.063.344 0 .125.037.2.094.2.05 0 .112.063.137.125.056.157.019.25-.069.2-.106-.062-.068.15.107.675a7.5 7.5 0 0 0 1.137 2.1c.388.488 1.144 1.17 1.288 1.17.044 0 .094.043.112.094.063.156 1.363.743 2.013.912 1.838.469 3.788.381 5.032-.225a2.38 2.38 0 0 0 1.107-1.075c.137-.356.094-.5-.15-.475-.144.018-.213.087-.325.319-.175.375-.457.612-1 .862-1.82.825-4.964.394-6.689-.919-.456-.337-1.313-1.225-1.313-1.35 0-.019-.093-.169-.2-.344a7.3 7.3 0 0 1-.756-2.075l-.138-.731c-.03-.17-.293-.2-.418-.05"/>
</svg>
