<svg xmlns="http://www.w3.org/2000/svg" width="24" height="24" fill="none" viewBox="0 0 24 24">
    <path fill="url(#ZANO__a)" d="M13.75 2h2.313c.8 0 1.469 0 2.013.045a4.25 4.25 0 0 1 1.637.418 4.2 4.2 0 0 1 1.831 1.838c.262.525.362 1.068.412 1.643C22 6.494 22 7.17 22 7.97v2.437c0 .8 0 1.475-.044 2.025a4.3 4.3 0 0 1-.412 1.644 4.2 4.2 0 0 1-1.831 1.844c-.519.262-1.062.362-1.637.412-.544.044-1.213.044-2.007.044H9.14a1.219 1.219 0 0 1-.857-2.063l5.625-6.205 1.725 1.7-3.612 4.068h4c1.443 0 3.33.237 3.48-1.644V6.144c-.08-.98-.606-1.562-1.624-1.643h-5.962c-.988.08-1.657.6-1.726 1.58a22 22 0 0 0-.062 1.957v1.019l-2.5.03v-1.05c-.012-.812 0-1.487.038-2.043.044-.581.137-1.13.4-1.662a4.6 4.6 0 0 1 2-1.862c.524-.275 1.075-.375 1.65-.425C12.27 2 12.943 2 13.743 2z"/>
    <path fill="url(#ZANO__b)" d="M6.125 19.5h6.03c.975-.076 1.644-.682 1.72-1.65v-1.475h2.499v1.656a4.56 4.56 0 0 1-2.531 3.587c-.481.219-.981.306-1.506.344-.5.037-1.113.037-1.831.037H7.93c-.794 0-1.463 0-2.006-.043a4.25 4.25 0 0 1-1.638-.42 4.2 4.2 0 0 1-1.83-1.837 4.3 4.3 0 0 1-.413-1.643C2 17.5 2 16.83 2 16.037v-2.462c0-.8 0-1.469.044-2.019.05-.575.15-1.125.412-1.643a4.2 4.2 0 0 1 1.831-1.844c.519-.262 1.063-.362 1.638-.412.543-.044 1.212-.032 2.006-.032h6.93c.663 0 1.207.531 1.207 1.2s-.544 1.3-1.213 1.3H7.981c-.856 0-1.425 0-1.863.038-.974.08-1.537.618-1.618 1.593v6.1c.081.975.644 1.562 1.625 1.643"/>
    <defs>
        <linearGradient id="ZANO__a" x1="14.901" x2="14.901" y1="2.001" y2="16.143" gradientUnits="userSpaceOnUse">
            <stop offset=".15" stop-color="#19CFD8"/>
            <stop offset=".57" stop-color="#498CFE"/>
            <stop offset="1" stop-color="#4A8FFD"/>
        </linearGradient>
        <linearGradient id="ZANO__b" x1="12.062" x2="12.243" y1="9.188" y2="20.762" gradientUnits="userSpaceOnUse">
            <stop offset=".01" stop-color="#4A8FFD"/>
            <stop offset=".95" stop-color="#2950FF"/>
        </linearGradient>
    </defs>
</svg>
