<svg xmlns="http://www.w3.org/2000/svg" width="24" height="24" fill="none" viewBox="0 0 24 24">
    <path fill="#FCE058" fill-rule="evenodd" d="M12 19.56a7.56 7.56 0 1 0 0-15.122 7.56 7.56 0 0 0 0 15.122m0 .44a8 8 0 1 0 0-16 8 8 0 0 0 0 16" clip-rule="evenodd"/>
    <path fill="#fff" fill-rule="evenodd" d="M12 19.12a7.12 7.12 0 1 0 0-14.242 7.12 7.12 0 0 0 0 14.241m0 .44a7.56 7.56 0 1 0 0-15.122 7.56 7.56 0 0 0 0 15.121" clip-rule="evenodd"/>
    <path fill="#fff" d="M15 8.5H9V10h3.65L9 14.35v1.15h6V14h-3.59L15 9.665z"/>
</svg>
