<svg xmlns="http://www.w3.org/2000/svg" width="24" height="24" fill="none" viewBox="0 0 24 24">
    <path fill="#734ACC" d="M4.516 9.606c0-.532.397-.96.887-.96h.806c.49 0 .887.428.887.96v4.273c0 .532-.397.96-.887.96h-.806c-.49 0-.887-.428-.887-.96z"/>
    <path fill="#AC8CE1" d="M16.903 9.492c0-.465.398-.846.888-.846h.805c.49 0 .888.381.888.846v3.468c0 .465-.397.847-.888.847h-.805c-.49 0-.888-.382-.888-.847z"/>
    <path fill="#936ED8" d="M13.806 11.602c0-.49.397-.893.887-.893h.806c.49 0 .887.403.887.893v5.44c0 .49-.397.893-.887.893h-.806a.89.89 0 0 1-.887-.893z"/>
    <path fill="#6640C7" d="M7.612 4.914A.9.9 0 0 1 8.5 4h.805c.49 0 .888.413.888.914v7.463a.9.9 0 0 1-.888.913H8.5c-.49 0-.888-.413-.888-.913z"/>
    <path fill="#8961D4" d="M10.71 6.457c0-.5.397-.908.888-.908h.805c.49 0 .887.408.887.908v12.635c0 .5-.397.908-.887.908h-.805a.9.9 0 0 1-.888-.908z"/>
</svg>
