<svg width="24" height="24" viewBox="0 0 24 24" fill="none" xmlns="http://www.w3.org/2000/svg">
<path d="M11.091 5.9699L11.0353 6.01276C10.221 6.86133 10.731 8.7599 10.2853 10.2556C9.86526 11.6699 7.70955 12.4756 6.79669 13.3413C6.56879 13.5274 6.38175 13.7585 6.24725 14.0202C6.11276 14.2819 6.03371 14.5685 6.01505 14.8622C5.99639 15.1558 6.03852 15.4501 6.13881 15.7267C6.23909 16.0033 6.39538 16.2563 6.59789 16.4697C6.80039 16.6832 7.04477 16.8525 7.31572 16.9672C7.58667 17.0819 7.87838 17.1394 8.17258 17.1362C8.46679 17.133 8.75717 17.0692 9.02557 16.9486C9.29396 16.8281 9.53459 16.6534 9.73241 16.4356H9.74098C9.90383 16.277 10.0281 16.0799 10.1095 15.8656L10.131 15.8056V15.7842C10.1653 15.6985 10.1953 15.6085 10.2167 15.5185C10.6281 14.0099 10.371 11.447 10.7224 10.5299C11.1638 9.37704 11.961 8.79419 12.6253 8.15561C13.0838 7.71847 13.3753 7.25561 13.3067 6.7499V6.7199C13.2876 6.53681 13.2295 6.35996 13.1361 6.20129C13.0428 6.04262 12.9165 5.90584 12.7658 5.8002C12.615 5.69456 12.4434 5.62251 12.2624 5.58894C12.0814 5.55537 11.8953 5.56106 11.7167 5.60561C11.4767 5.66561 11.2581 5.79419 11.091 5.9699ZM15.4281 15.857C15.4281 16.198 15.5636 16.5251 15.8047 16.7662C16.0458 17.0073 16.3728 17.1428 16.7138 17.1428C17.0548 17.1428 17.3819 17.0073 17.623 16.7662C17.8641 16.5251 17.9995 16.198 17.9995 15.857C17.9995 15.5161 17.8641 15.189 17.623 14.9479C17.3819 14.7068 17.0548 14.5713 16.7138 14.5713C16.3728 14.5713 16.0458 14.7068 15.8047 14.9479C15.5636 15.189 15.4281 15.5161 15.4281 15.857Z" fill="url(#paint0_linear_59_60488)"/>
<defs>
<linearGradient id="paint0_linear_59_60488" x1="7.77053" y1="7.45665" x2="16.049" y2="15.881" gradientUnits="userSpaceOnUse">
<stop stop-color="#135554"/>
<stop offset="1" stop-color="#00A790"/>
</linearGradient>
</defs>
</svg>
