<svg width="24" height="24" viewBox="0 0 24 24" fill="none" xmlns="http://www.w3.org/2000/svg">
<path d="M15.9212 17.9528V17.9657C15.101 18.5941 14.1417 19.0162 13.1242 19.1962C12.1067 19.3763 11.0608 19.3091 10.0747 19.0002C9.08861 18.6914 8.19122 18.1501 7.45817 17.4218C6.72512 16.6936 6.1779 15.7997 5.86264 14.8157C5.56617 13.8716 5.49626 12.8709 5.65858 11.8948C5.8209 10.9186 6.21088 9.99446 6.79692 9.19711C7.38281 8.39588 8.14538 7.74036 9.02549 7.2814C9.0315 7.27099 9.03447 7.25912 9.03407 7.24711C9.07692 6.47568 9.10264 5.72997 9.33407 4.98426C9.47549 4.52997 9.62121 4.11426 9.76692 3.73711C9.80549 3.64283 9.87835 3.48854 9.97264 3.44568C10.0969 3.38997 10.2298 3.47997 10.2898 3.5914C10.3326 3.67711 10.3626 3.76711 10.3755 3.86568C10.4612 4.34568 10.5812 4.76568 10.7741 5.25854C10.9455 5.68711 11.1041 6.11568 11.2584 6.55283C11.2755 6.59997 11.3312 6.5914 11.3698 6.58711C11.9111 6.53786 12.4565 6.55369 12.9941 6.63426C13.173 6.13351 13.3616 5.63628 13.5598 5.14283C13.7698 4.61997 13.8298 4.18711 13.9541 3.69426C14.0141 3.45426 14.3398 3.29568 14.4684 3.59997C14.7119 4.18455 14.9125 4.78615 15.0684 5.39997C15.0941 5.48568 15.1198 5.6314 15.1455 5.83711C15.1669 6.00426 15.2269 6.20997 15.2269 6.37711C15.2269 6.71997 15.2441 7.06283 15.2698 7.40568C15.2698 7.4314 15.2826 7.44854 15.3041 7.4614C16.1211 7.94182 16.8198 8.59958 17.3486 9.38612C17.8774 10.1727 18.2228 11.0679 18.3594 12.0058C18.496 12.9437 18.4202 13.9003 18.1376 14.805C17.8551 15.7097 17.373 16.5394 16.7269 17.2328C16.4801 17.4975 16.2105 17.7398 15.9212 17.9571V17.9528Z" fill="#251820"/>
<path d="M11.4898 9.24426L11.5198 8.96997C11.5541 8.65711 11.5198 8.32711 11.4598 8.02711C11.4169 7.82997 11.3269 7.62854 11.2626 7.42711C11.2006 7.23313 11.1095 7.04963 10.9926 6.88283L10.5341 5.63997C10.5255 5.62283 10.5126 5.61426 10.4912 5.62283L10.4826 5.62711C10.4803 5.62843 10.4783 5.63029 10.4768 5.63252C10.4753 5.63475 10.4744 5.63731 10.4741 5.63997V5.65283L10.9026 7.06283C10.8684 7.16997 10.8598 7.28568 10.8898 7.41425C10.9498 7.68854 10.9926 7.9714 11.0098 8.27997C11.0226 8.48997 11.0226 8.6914 10.9026 8.86711C10.7665 9.06014 10.6434 9.26202 10.5341 9.4714C10.5263 9.47742 10.5172 9.48169 10.5076 9.48391C10.498 9.48613 10.488 9.48625 10.4784 9.48425C10.4693 9.48303 10.4606 9.48012 10.4526 9.47568C10.2855 9.35997 10.1569 9.06426 10.1312 8.89283C10.1184 8.81568 10.1012 8.8114 10.0755 8.88854C10.0326 9.01711 10.0412 9.1714 10.0412 9.31283C10.0412 9.36854 10.0412 9.41568 10.0498 9.45854C10.0069 9.67283 9.99407 9.84854 10.0155 9.98997C10.0712 10.3543 10.4869 10.2985 10.5469 9.96854C10.5641 9.88283 10.5812 9.57854 10.6884 9.55711C10.8341 9.5314 10.9755 9.49711 11.1041 9.45426C11.2198 9.45426 11.3269 9.42854 11.4212 9.3814C11.5926 9.28711 11.6998 9.1414 11.7384 8.95283C11.7426 8.91854 11.7641 8.90997 11.7898 8.9314L11.8112 8.94854C11.8212 8.95569 11.8289 8.96553 11.8335 8.97693C11.838 8.98832 11.8392 9.00077 11.8369 9.01283C11.7941 9.20568 11.6869 9.38568 11.5798 9.55283C11.5764 9.56107 11.5764 9.57029 11.5798 9.57854C11.5798 9.58711 11.5798 9.59568 11.5884 9.59997L11.6012 9.60854C11.6059 9.61276 11.612 9.61509 11.6184 9.61509C11.6247 9.61509 11.6308 9.61276 11.6355 9.60854C11.7512 9.43711 11.8412 9.26568 11.9098 9.07711C11.9184 9.05997 11.9269 9.0514 11.9484 9.0514H12.3384C12.3478 9.05097 12.3571 9.05367 12.3649 9.0591C12.3726 9.06453 12.3784 9.07237 12.3812 9.0814C12.4595 9.27437 12.5633 9.45599 12.6898 9.6214H12.6984L12.7069 9.61283L12.7155 9.59997C12.7211 9.59255 12.7241 9.58353 12.7241 9.57426C12.7241 9.56498 12.7211 9.55596 12.7155 9.54854C12.6034 9.3879 12.5153 9.21175 12.4541 9.02568C12.4503 9.01447 12.4499 9.00239 12.4529 8.99095C12.456 8.97951 12.4623 8.96923 12.4712 8.9614L12.5226 8.91854C12.5398 8.90997 12.5484 8.90997 12.5526 8.9314C12.5826 9.12426 12.6855 9.27426 12.8526 9.37283C12.8741 9.3814 12.8869 9.3814 12.8998 9.36426L12.9084 9.35568L12.9126 9.34711C12.9138 9.34441 12.9144 9.34149 12.9144 9.33854C12.9144 9.33559 12.9138 9.33267 12.9126 9.32997L12.9041 9.32568C12.7755 9.22711 12.5784 9.0214 12.6255 8.84568C12.7112 8.51997 12.7198 8.15568 12.7841 7.84283C12.8955 7.27283 13.0284 6.7714 13.1826 6.34283C13.3284 5.93997 13.6326 5.25426 13.7826 4.72711C13.8684 4.43568 13.9369 4.13568 13.9798 3.8314C13.9926 3.74568 14.0269 3.65997 14.0784 3.59568C14.1512 3.5014 14.2798 3.4414 14.3612 3.56568C14.3826 3.5914 14.4169 3.66426 14.4641 3.7714C14.5498 3.95568 14.6698 4.28568 14.8284 4.7614C14.9698 5.19426 15.0684 5.63997 15.1155 6.08997C15.1155 6.09854 15.1112 6.10711 15.0984 6.10711C14.9162 6.15345 14.7264 6.16076 14.5412 6.12854C14.5373 6.13005 14.5338 6.13235 14.5308 6.1353C14.5279 6.13826 14.5256 6.14179 14.5241 6.14568V6.15854C14.5155 6.27426 14.5241 6.39426 14.5369 6.51426C14.5455 6.5614 14.5584 6.59568 14.5884 6.61283C14.7084 6.68997 15.0084 6.65568 15.1455 6.62997C15.1515 6.62933 15.1576 6.63085 15.1626 6.63425C15.1676 6.63865 15.1707 6.64479 15.1712 6.6514L15.2098 7.89426C15.2226 8.26711 15.1369 8.60997 14.9569 8.92283C14.7555 9.08568 14.5712 9.24854 14.4083 9.42426C14.3698 9.45854 14.3398 9.46283 14.3141 9.42426C14.3081 9.41617 14.305 9.40642 14.305 9.3964C14.305 9.38638 14.3081 9.37662 14.3141 9.36854L14.4684 9.1414C14.4769 9.12854 14.4726 9.11997 14.4555 9.1114H14.4341C14.3311 9.22397 14.2074 9.31564 14.0698 9.3814L14.0526 9.37711C14.0474 9.37408 14.043 9.3697 14.04 9.36443C14.037 9.35916 14.0354 9.35318 14.0355 9.34711C14.0269 8.92283 13.9969 8.49854 13.9498 8.06997C13.9155 7.76568 13.7998 7.41426 13.7612 7.14854C13.7184 6.87426 13.7184 6.55283 13.7484 6.18426C13.7526 6.1114 13.7441 6.04283 13.7355 5.97426L13.8126 5.64854V5.62711C13.8109 5.62386 13.8084 5.62103 13.8055 5.61881C13.8025 5.61659 13.7991 5.61504 13.7955 5.61426C13.7741 5.60997 13.7612 5.61426 13.7526 5.63997C13.5071 6.25792 13.3051 6.89233 13.1484 7.53854C13.0498 7.9414 12.9984 8.35283 12.9984 8.76854C12.9984 8.98283 13.0112 9.20997 13.1141 9.35997C13.2126 9.50997 13.4226 9.5314 13.5941 9.55283C13.6155 9.55283 13.6326 9.5614 13.6455 9.57854C13.6605 9.59046 13.671 9.60706 13.6755 9.62568L13.7055 9.8014C13.5812 9.94283 13.4569 9.8614 13.3241 9.80997C13.3178 9.80721 13.311 9.80616 13.3042 9.80691C13.2974 9.80766 13.291 9.8102 13.2855 9.81426C13.2803 9.81901 13.2766 9.82528 13.2751 9.83218C13.2736 9.83909 13.2742 9.8463 13.2769 9.85283C13.2931 9.89959 13.2989 9.9493 13.2941 9.99854C13.2938 10.004 13.2921 10.0092 13.2891 10.0138C13.286 10.0183 13.2818 10.0219 13.2769 10.0243C12.9469 10.2085 12.8184 10.5214 12.7969 10.8814L12.7712 10.8943C12.7584 10.8943 12.7498 10.8943 12.7412 10.8857C12.7315 10.8731 12.7179 10.8641 12.7026 10.86C12.6941 10.86 12.6812 10.86 12.6769 10.8728C12.5817 10.9974 12.5038 11.1344 12.4455 11.28L12.4498 11.2928L12.4626 11.3014H12.4926L12.5012 11.2928C12.5055 11.2928 12.5098 11.2928 12.5098 11.2843C12.5312 11.2414 12.5655 11.22 12.6169 11.22C12.6298 11.22 12.6384 11.22 12.6469 11.2071C12.8012 11.0014 12.9812 10.8043 13.1955 10.6243C13.1826 10.5685 13.1998 10.5385 13.2469 10.5385C13.2726 10.5385 13.2984 10.5514 13.3241 10.5728C13.4955 10.7228 13.5469 10.9114 13.4612 11.1385C13.1741 11.2243 12.8484 11.3528 12.6298 11.5585C12.6041 11.5843 12.6084 11.6057 12.6469 11.6271C12.6563 11.6318 12.6665 11.6347 12.6769 11.6357C12.8998 11.6571 13.2255 11.6914 13.4184 11.5543C13.5212 11.6828 13.2555 11.8843 13.1526 11.9571C13.0455 12.03 12.8226 11.9443 12.6984 11.9143L12.5012 11.7043L12.4884 11.6957C12.483 11.6942 12.4774 11.6943 12.4721 11.6958C12.4669 11.6973 12.4621 11.7002 12.4584 11.7043L12.4541 11.7171C12.4498 11.7343 12.4541 11.7514 12.4669 11.7728C12.5655 11.9143 12.6769 12.03 12.8055 12.1114C12.8912 12.1285 12.9812 12.1928 13.0669 12.3C13.0698 12.3028 13.072 12.3061 13.0736 12.3098C13.0751 12.3135 13.0759 12.3174 13.0759 12.3214C13.0759 12.3254 13.0751 12.3293 13.0736 12.333C13.072 12.3367 13.0698 12.34 13.0669 12.3428L13.0541 12.3514C12.8655 12.4157 12.7755 12.2485 12.6255 12.1671C12.5966 12.1505 12.568 12.1333 12.5398 12.1157C12.5192 12.0755 12.4839 12.0448 12.4412 12.03C12.4381 12.0285 12.4348 12.0277 12.4314 12.0276C12.428 12.0275 12.4246 12.028 12.4214 12.0292C12.4182 12.0304 12.4153 12.0322 12.4128 12.0346C12.4103 12.0369 12.4083 12.0397 12.4069 12.0428V12.0557L12.4541 12.2185C12.4563 12.2225 12.4575 12.2269 12.4575 12.2314C12.4575 12.2359 12.4563 12.2403 12.4541 12.2443L12.4369 12.2528H12.4284C12.3243 12.2434 12.2199 12.2391 12.1155 12.24C11.9484 12.24 11.7298 12.3171 11.8584 12.5185C11.8841 12.5614 11.9441 12.6085 12.0426 12.66C12.1455 12.7157 12.2269 12.7028 12.3341 12.6685C12.3426 12.7543 12.3341 12.84 12.3212 12.9471C12.3084 13.0457 12.2484 13.0885 12.1498 13.0757C11.8498 13.1314 11.5369 13.29 11.3312 12.9471C11.2626 12.8357 11.1984 12.7414 11.0826 12.6771C11.0869 12.6 11.0826 12.5228 11.0612 12.4543C11.0955 12.3085 11.0612 12.1543 10.9112 12.0814C10.6198 11.9357 10.2684 11.6914 10.2426 11.3443C10.2212 11.1214 10.2169 10.9243 10.2255 10.7485C10.2426 10.4057 10.6026 10.23 10.8641 10.0885C10.8656 10.0868 10.8668 10.0848 10.8675 10.0826C10.8683 10.0803 10.8685 10.078 10.8684 10.0757V10.0628L10.8598 10.0543C10.8525 10.0459 10.8427 10.0402 10.8319 10.0379C10.8211 10.0356 10.8098 10.0368 10.7998 10.0414C10.4998 10.1485 10.2855 10.3414 10.1569 10.6285L10.1398 10.6414H10.1184C10.013 10.6114 9.91413 10.562 9.82692 10.4957C9.56978 10.2985 9.59549 10.0414 9.59121 9.75426C9.59121 9.64711 9.56121 9.52711 9.50549 9.38997C9.267 8.92498 9.12694 8.41581 9.09406 7.89426C9.08549 7.27711 9.11978 6.65997 9.19692 6.04711C9.23978 5.67854 9.30835 5.35283 9.42407 4.97568C9.56549 4.50426 9.71121 4.00711 9.92121 3.57854C9.95121 3.51854 9.99407 3.49283 10.0498 3.49283C10.1869 3.49283 10.2598 3.62997 10.2898 3.74997C10.3669 4.04997 10.4141 4.35426 10.4998 4.65426C10.5384 4.79568 10.6026 4.97997 10.6884 5.20283L11.0484 6.14568C11.3419 6.95517 11.5376 7.79687 11.6312 8.65283C11.6355 8.70426 11.6569 8.7814 11.6955 8.88854V8.92283C11.6612 9.04283 11.5926 9.14997 11.4941 9.24426H11.4898Z" fill="#9372A0"/>
<path d="M13.7355 5.97426C13.7441 6.04283 13.7526 6.1114 13.7484 6.17997C13.7184 6.55283 13.7226 6.87426 13.7612 7.14854C13.8041 7.41426 13.9155 7.7614 13.9498 8.06997C13.9992 8.49977 14.0278 8.9317 14.0355 9.36425L14.0526 9.37711C14.0578 9.38012 14.0638 9.3814 14.0698 9.3814C14.0758 9.3814 14.0817 9.38012 14.0869 9.37711C14.22 9.30997 14.3392 9.21837 14.4384 9.10711H14.4469L14.4555 9.1114C14.4726 9.11997 14.4769 9.12854 14.4684 9.1414L14.3098 9.36854C14.3039 9.37662 14.3007 9.38638 14.3007 9.3964C14.3007 9.40642 14.3039 9.41617 14.3098 9.42425C14.3398 9.46283 14.3698 9.45854 14.4083 9.42426C14.5712 9.25283 14.7512 9.0814 14.9569 8.92711C14.9393 9.03422 14.9061 9.13818 14.8584 9.23568C14.7212 9.51425 14.7126 9.83568 14.6955 10.1357C14.6784 10.4228 14.4126 10.5557 14.1812 10.6628C14.179 10.6643 14.1766 10.6652 14.174 10.6656C14.1714 10.6659 14.1687 10.6657 14.1662 10.6648C14.1638 10.664 14.1615 10.6626 14.1596 10.6608C14.1578 10.659 14.1564 10.6567 14.1555 10.6543C14.0921 10.5048 13.9961 10.3715 13.8744 10.2639C13.7528 10.1564 13.6087 10.0774 13.4526 10.0328C13.4497 10.0339 13.447 10.0356 13.4448 10.0378C13.4426 10.04 13.4408 10.0427 13.4398 10.0457V10.0671C13.4441 10.0843 13.4526 10.0971 13.4698 10.1014C13.6841 10.1871 13.8426 10.2985 13.9584 10.44C14.1812 10.7014 14.1212 11.2114 14.0484 11.5114C14.0184 11.64 13.6369 11.9571 13.5169 12.0257C13.4398 12.0685 13.3498 12.1114 13.2984 12.1714C13.2469 12.2357 13.2255 12.3 13.2341 12.3557C13.2469 12.4543 13.2726 12.4543 13.3026 12.3643C13.3241 12.3085 13.3326 12.2057 13.4055 12.1671L13.5812 12.0685C13.5941 12.06 13.6069 12.0557 13.6155 12.06C13.6326 12.06 13.6369 12.0685 13.6326 12.0814C13.6055 12.2281 13.547 12.3672 13.4612 12.4892C13.3755 12.6113 13.2643 12.7134 13.1355 12.7885C13.0026 12.8828 12.9984 13.0543 12.8269 13.1228C12.6212 13.2043 12.4198 13.1914 12.2141 13.0885C12.2035 13.0829 12.1917 13.08 12.1798 13.08C12.1682 13.0801 12.1567 13.0786 12.1455 13.0757C12.2441 13.0885 12.3041 13.0457 12.3169 12.9471C12.3341 12.8443 12.3384 12.75 12.3298 12.6685L12.4712 12.5485C12.5569 12.4671 12.5484 12.4114 12.5269 12.3043C12.5184 12.2485 12.5441 12.1843 12.5398 12.1157L12.6255 12.1671C12.7755 12.2485 12.8655 12.4157 13.0541 12.3514L13.0669 12.3428L13.0755 12.33C13.077 12.3247 13.0769 12.3191 13.0754 12.3138C13.0739 12.3085 13.071 12.3037 13.0669 12.3C12.9812 12.1928 12.8955 12.1285 12.8055 12.1114C12.8184 12.0514 12.7841 11.9871 12.6984 11.9143C12.8226 11.9443 13.0455 12.03 13.1526 11.9571C13.2555 11.8843 13.5212 11.6828 13.4184 11.5543C13.5041 11.49 13.7355 11.2628 13.7184 11.1428C13.7178 11.1389 13.7165 11.1351 13.7145 11.1316C13.7125 11.1282 13.7098 11.1252 13.7066 11.1228C13.7034 11.1204 13.6998 11.1186 13.6959 11.1177C13.692 11.1167 13.688 11.1165 13.6841 11.1171L13.4612 11.1385C13.5469 10.9114 13.4998 10.7228 13.3241 10.5728C13.3034 10.5524 13.2759 10.5402 13.2469 10.5385C13.2041 10.5385 13.1826 10.5685 13.1955 10.6243C13.0541 10.6414 12.9212 10.7271 12.7969 10.8814C12.8184 10.5214 12.9469 10.2085 13.2769 10.0243C13.2818 10.0219 13.286 10.0183 13.2891 10.0138C13.2921 10.0092 13.2938 10.004 13.2941 9.99854C13.2989 9.9493 13.2931 9.89959 13.2769 9.85283L13.2769 9.8314L13.2855 9.81426C13.2914 9.80936 13.2986 9.80634 13.3063 9.80557C13.3139 9.80481 13.3216 9.80634 13.3284 9.80997C13.4569 9.8614 13.5855 9.94283 13.7055 9.8014C13.7569 9.99854 13.7612 10.1485 13.9841 10.23C14.1126 10.2728 14.2284 10.1271 14.2626 10.0243C14.2798 9.9814 14.2798 9.90854 14.2712 9.80997C14.2596 9.7046 14.2525 9.59879 14.2498 9.49283H14.2326C14.2155 9.49283 14.2069 9.5014 14.2069 9.51854V9.91711C14.2155 10.0285 14.1384 10.2085 13.9926 10.1657C13.7655 10.0928 13.7869 9.85283 13.7569 9.66854C13.7226 9.44568 13.4955 9.45426 13.3155 9.41568C12.8655 9.32568 13.1526 7.84283 13.2298 7.53854C13.3198 7.19568 13.4312 6.82283 13.5598 6.4114C13.6112 6.25283 13.6669 6.10711 13.7312 5.97426H13.7355Z" fill="#664983"/>
<path d="M14.6012 6.19711C14.7717 6.23981 14.9511 6.22934 15.1155 6.16711C15.1216 6.16706 15.1275 6.16862 15.1328 6.17163C15.1381 6.17464 15.1425 6.179 15.1455 6.18426V6.19711L15.1626 6.53997L15.1583 6.55711C14.9924 6.58206 14.8242 6.58781 14.6569 6.57426C14.6423 6.57382 14.6285 6.56766 14.6184 6.55711C14.6109 6.54877 14.6064 6.53824 14.6055 6.52711L14.5798 6.21426V6.20568L14.5884 6.2014H14.6012V6.19711Z" fill="#D1D47F"/>
<path d="M12.7712 7.5214C12.3695 7.48208 11.9653 7.47635 11.5626 7.50426C11.561 7.50838 11.561 7.51299 11.5626 7.51711C11.5626 7.53426 11.5541 7.53854 11.5284 7.53854L11.3741 6.93854C11.3717 6.93223 11.3708 6.92544 11.3716 6.91874C11.3723 6.91204 11.3747 6.90561 11.3784 6.89997C11.3823 6.89465 11.3875 6.89033 11.3935 6.88735C11.3994 6.88438 11.406 6.88283 11.4126 6.88283C11.9012 6.85711 12.3898 6.8014 12.8698 6.90426C12.8769 6.90607 12.8836 6.90927 12.8895 6.91368C12.8954 6.9181 12.9003 6.92363 12.9041 6.92997C12.9083 6.93617 12.9113 6.94316 12.9127 6.95052C12.9142 6.95789 12.9142 6.96547 12.9126 6.97283L12.7712 7.5214Z" fill="#F37924"/>
<path d="M10.9926 6.88283C11.1084 7.05426 11.1984 7.23426 11.2626 7.42711C11.3269 7.62854 11.4212 7.82997 11.4598 8.02711C11.5509 8.42676 11.5611 8.8406 11.4898 9.24426C11.4255 9.30426 11.4041 9.34711 11.4212 9.3814C11.3229 9.43078 11.2141 9.45577 11.1041 9.45426C11.2841 9.22283 11.3098 8.94425 11.2969 8.67854C11.2841 8.34854 11.2455 8.04854 11.1812 7.76997C11.1129 7.47544 11.05 7.17968 10.9926 6.88283Z" fill="#664983"/>
<path d="M10.9069 7.06283C11.0887 7.56628 11.1984 8.09293 11.2326 8.62711C11.2412 8.81568 11.2241 8.99997 11.1769 9.18426C11.1255 9.38568 10.9284 9.45426 10.7355 9.47568C10.6835 9.48089 10.6335 9.49853 10.5898 9.52711C10.5797 9.53277 10.5721 9.54192 10.5684 9.55283C10.5298 9.66426 10.5041 9.77997 10.4826 9.89568C10.4741 9.9814 10.4569 10.0414 10.4398 10.0671C10.4217 10.0987 10.3951 10.1246 10.3629 10.1417C10.3308 10.1588 10.2944 10.1664 10.2581 10.1637C10.2218 10.161 10.187 10.1481 10.1577 10.1265C10.1284 10.1048 10.1059 10.0753 10.0926 10.0414C10.0712 9.98997 10.0755 9.90425 10.0926 9.7714C10.1184 9.64283 10.1055 9.53997 10.0498 9.45854C10.0435 9.41023 10.0406 9.36154 10.0412 9.31283C10.0412 9.1714 10.0326 9.01283 10.0755 8.88425C10.1012 8.8114 10.1184 8.81568 10.1312 8.89283C10.1569 9.06426 10.2855 9.36426 10.4526 9.47568C10.461 9.48104 10.4704 9.48463 10.4802 9.48624C10.49 9.48784 10.5 9.48743 10.5096 9.48502C10.5192 9.48261 10.5283 9.47826 10.5362 9.47223C10.5441 9.46621 10.5506 9.45863 10.5555 9.44997C10.6541 9.25283 10.7698 9.05568 10.8984 8.86711C11.0269 8.6914 11.0269 8.48997 11.0098 8.27997C10.9927 7.98868 10.9526 7.69921 10.8898 7.41425C10.8598 7.28568 10.8684 7.16997 10.9069 7.06283Z" fill="#664983"/>
<path d="M12.7712 7.5214L12.6684 8.04854C12.6192 8.07445 12.5691 8.09875 12.5184 8.1214C12.3512 8.16426 12.1541 8.23711 12.0469 8.3614C11.9184 8.5114 11.9184 8.69568 11.9012 8.92711C11.8906 8.90595 11.8748 8.8878 11.8553 8.87432C11.8359 8.86085 11.8133 8.85247 11.7898 8.84997C11.7739 8.84976 11.7586 8.84365 11.7469 8.83283C11.7379 8.82341 11.7319 8.81145 11.7298 8.79854L11.5284 7.53854C11.5541 7.53854 11.5669 7.53426 11.5626 7.51711C11.561 7.51299 11.561 7.50838 11.5626 7.50426C11.564 7.50192 11.5658 7.49993 11.568 7.49844C11.5703 7.49695 11.5728 7.49601 11.5755 7.49568C11.9955 7.47426 12.3898 7.48283 12.7712 7.5214Z" fill="#F26122"/>
<path d="M9.03835 8.31854L8.86692 8.44711C8.40757 8.76271 8.00233 9.15058 7.66692 9.59568C7.40121 9.92568 7.19549 10.2557 7.04121 10.5814C6.92549 10.8171 6.85264 10.9628 6.78835 11.1643C6.52694 11.9889 6.45084 12.8611 6.56549 13.7185C6.60835 14.0314 6.69835 14.3914 6.83549 14.7985C6.84407 14.82 6.84835 14.8585 6.87835 14.8714H6.88692C6.89147 14.8714 6.89583 14.8696 6.89904 14.8664C6.90226 14.8632 6.90407 14.8588 6.90407 14.8543C6.72407 13.6028 6.86549 12.1671 7.62407 11.1L7.89835 10.7057C7.90692 10.6971 7.91121 10.6971 7.91978 10.7014C7.92835 10.7014 7.92835 10.71 7.92835 10.7185C7.37121 12.0985 7.22121 13.7528 7.89835 15.12C7.91978 15.1671 7.96264 15.2057 8.01835 15.2228C8.02692 15.3343 8.12978 15.4628 8.19835 15.5485C8.20412 15.5561 8.20687 15.5656 8.20608 15.5751C8.20529 15.5846 8.20101 15.5934 8.19407 15.6C8.09121 15.6857 7.99692 15.7843 7.91549 15.9C7.82978 15.9 7.74407 15.8571 7.65835 15.7714C7.37978 15.5014 7.06692 15.2314 6.83549 14.9143C6.82692 14.9057 6.81407 14.9014 6.79264 14.9143C6.78407 14.9143 6.78407 14.9228 6.78407 14.9314C6.95549 15.4714 7.23835 15.9043 7.56407 16.3628C7.58549 16.3928 7.59407 16.4228 7.58121 16.4614C7.55978 16.5343 7.55549 16.6028 7.56407 16.6714L7.54264 16.74C7.5009 16.7929 7.44631 16.8342 7.38407 16.86H7.37121L7.36264 16.8557C6.48608 15.8476 5.9716 14.5754 5.90094 13.2414C5.83027 11.9073 6.20749 10.5879 6.97264 9.49283C7.08407 9.32997 7.22121 9.16283 7.34978 8.99997L7.49978 8.83711C7.83835 8.47711 8.21121 8.1514 8.61407 7.87283C8.73509 7.79212 8.86439 7.7246 8.99978 7.6714V7.68426L9.03835 8.31854Z" fill="#FDAD19"/>
<path d="M18.1198 12.6214C18.1112 12.63 18.1026 12.63 18.0941 12.6214C18.0916 12.6178 18.0885 12.6149 18.0848 12.6126C18.0811 12.6104 18.0769 12.609 18.0726 12.6085C18.0598 12.6085 18.0512 12.6128 18.0426 12.6214L18.0341 12.6471C18.0225 12.7688 18.0082 12.8903 17.9912 13.0114C17.9826 13.0114 17.9826 13.0071 17.9826 13.0028C17.9784 12.8657 18.0169 12.5785 17.9441 12.4671C17.9269 12.4414 17.8926 12.4157 17.8369 12.3943C17.7255 12.3514 17.6055 12.2271 17.4726 12.2614C17.3869 11.7643 17.3012 11.4 17.2241 11.1643C17.0643 10.7244 16.8543 10.3045 16.5984 9.91283C16.342 9.51871 16.0269 9.16607 15.6641 8.86711C15.5398 8.75997 15.3726 8.65283 15.2784 8.52425C15.2741 8.5114 15.2612 8.50711 15.2441 8.50711C15.2312 8.50711 15.2226 8.50711 15.2226 8.49426L15.2184 8.4814L15.2912 7.85997V7.84711C15.2945 7.84377 15.2986 7.84125 15.303 7.83976C15.3075 7.83827 15.3123 7.83785 15.3169 7.83854H15.3298L15.3898 7.87283C15.9898 8.27568 16.5041 8.76426 16.9326 9.32997C17.2578 9.77999 17.5243 10.2697 17.7255 10.7871C17.7726 10.9071 17.8112 11.0271 17.8369 11.1514C17.8626 11.2671 17.9012 11.3785 17.9312 11.5028C18.0255 11.8971 18.0898 12.2743 18.1198 12.6214Z" fill="#F37924"/>
<path d="M12.6684 8.04854L12.5655 8.78568C12.5649 8.7916 12.563 8.79732 12.5601 8.80249C12.5571 8.80765 12.5531 8.81215 12.5484 8.81568L12.3641 8.94426C12.2095 8.95625 12.054 8.94906 11.9012 8.92283C11.9226 8.69568 11.9226 8.5114 12.0469 8.36568C12.1541 8.23711 12.3512 8.15997 12.5184 8.1214C12.5691 8.10016 12.6191 8.07729 12.6684 8.05283L12.6684 8.04854Z" fill="#FAA87B"/>
<path d="M9.03835 8.31854C9.12407 8.69997 9.24835 8.9914 9.44121 9.48425C9.48407 9.57854 9.49692 9.6814 9.49264 9.78854C9.34692 9.91711 9.21407 10.0414 9.09406 10.1657C7.78264 11.5114 7.67549 13.3885 8.03549 15.1157L8.01835 15.2228C7.99245 15.2147 7.96846 15.2013 7.94784 15.1837C7.92722 15.166 7.91039 15.1443 7.89835 15.12C7.22121 13.7485 7.37549 12.0985 7.92835 10.7185C7.92835 10.71 7.92835 10.7057 7.91978 10.7014C7.91121 10.6971 7.90692 10.7014 7.89835 10.7057C7.76978 10.8985 7.67549 11.0271 7.62407 11.1C6.86549 12.1671 6.72407 13.6028 6.90407 14.8543C6.90407 14.8588 6.90226 14.8632 6.89904 14.8664C6.89583 14.8696 6.89147 14.8714 6.88692 14.8714H6.87835C6.84835 14.8585 6.84407 14.82 6.83549 14.7985C6.69835 14.3914 6.60835 14.0314 6.56549 13.7185C6.45407 12.8528 6.52264 12.0043 6.78835 11.1643C6.85264 10.9628 6.92549 10.8171 7.04121 10.5771C7.19549 10.2557 7.40121 9.92568 7.65835 9.5914C8.03665 9.0863 8.50439 8.65487 9.03835 8.31854ZM15.2141 8.4814C15.2165 8.48593 15.2194 8.49024 15.2226 8.49426C15.2226 8.50283 15.2312 8.5114 15.2441 8.50711C15.2612 8.50711 15.2741 8.5114 15.2826 8.52425C15.3684 8.65283 15.5398 8.75997 15.6641 8.86711C16.0626 9.2014 16.3712 9.55283 16.5984 9.91283C16.8543 10.3045 17.0643 10.7244 17.2241 11.1643C17.3012 11.4 17.3869 11.7643 17.4726 12.2614C17.4898 12.45 17.5026 12.57 17.5026 12.6257C17.5541 13.9543 17.1769 15.1585 16.3755 16.2343C16.3373 15.9732 16.2438 15.7234 16.1012 15.5014C16.1129 15.4493 16.1272 15.3978 16.1441 15.3471C16.1783 15.2657 16.1783 15.2014 16.1441 15.1543L16.2126 14.6743C16.2769 14.2457 16.3026 13.8214 16.2855 13.4185C16.2769 13.2643 16.2598 13.2643 16.2298 13.4143C16.1741 13.7143 16.1269 13.9885 16.0241 14.2757L15.7626 14.97L14.9055 14.6143C15.0255 14.31 15.1712 13.9971 15.2312 13.6928C15.3384 13.1785 15.3341 12.6643 15.2226 12.15C15.1372 11.8042 15.003 11.4723 14.8241 11.1643C14.6955 11.0485 14.6012 10.9071 14.5498 10.7443C14.5481 10.7385 14.5448 10.7334 14.5402 10.7296C14.5356 10.7258 14.53 10.7234 14.5241 10.7228C14.467 10.7115 14.412 10.6913 14.3612 10.6628C14.5326 10.5514 14.7169 10.4314 14.7555 10.2214C14.7726 10.14 14.7855 10.0928 14.7984 10.0714C15.0298 9.94283 15.1326 9.7414 15.1112 9.4714C15.1069 9.38568 15.0169 9.21426 15.0555 9.11997C15.0819 9.0578 15.0894 8.98922 15.0769 8.92283L15.2184 8.4814L15.2141 8.4814Z" fill="#F26122"/>
<path d="M15.0769 8.92283C15.0894 8.98922 15.0819 9.0578 15.0555 9.11997C15.0169 9.21854 15.1069 9.38568 15.1112 9.47568C15.1326 9.7414 15.0255 9.94283 14.7984 10.0714C14.7383 9.63425 14.8969 9.31711 15.0769 8.92283Z" fill="#FAA87B"/>
<path d="M9.49264 9.78854L9.52264 10.1957L9.52692 10.3028C9.52692 10.3114 9.52692 10.3114 9.52264 10.3071L9.50549 10.2943L9.50121 10.29H9.49264L9.48937 10.292L9.48734 10.2953L9.48698 10.2992L9.48835 10.3028C9.51407 10.3628 9.51407 10.4185 9.48407 10.4785C9.26509 10.8786 9.11718 11.3136 9.04692 11.7643C9.02978 11.79 9.04264 11.8285 9.03835 11.85C8.93105 12.4848 8.92237 13.1325 9.01264 13.77C9.05273 14.0197 9.0913 14.2697 9.12835 14.52C9.13692 14.5628 9.14549 14.6014 9.14549 14.6485L8.57121 14.8628C8.36978 14.9357 8.18978 15.0214 8.03549 15.12C7.67549 13.3885 7.77835 11.5114 9.09406 10.1657C9.21407 10.0371 9.35121 9.91711 9.49264 9.78854Z" fill="#FDAD19"/>
<path d="M15.1798 10.8857C15.1712 11.2843 15.4884 11.61 15.8869 11.6143C16.2855 11.6228 16.6155 11.31 16.6198 10.9114C16.6232 10.7199 16.5504 10.5348 16.4174 10.397C16.2843 10.2592 16.102 10.1798 15.9105 10.1764C15.719 10.173 15.5339 10.2458 15.3961 10.3788C15.2583 10.5118 15.1789 10.6942 15.1755 10.8857H15.1798Z" fill="#FAA87B"/>
<path d="M9.52264 10.1957C9.60407 10.4871 9.80549 10.6243 10.0798 10.7228L10.1098 10.7443L10.1184 10.7743L10.1441 11.3614V11.3785C10.1444 11.3825 10.1438 11.3866 10.1423 11.3903C10.1408 11.394 10.1385 11.3973 10.1355 11.4C10.1311 11.4049 10.125 11.408 10.1184 11.4085L9.68549 11.3871H9.66835C9.66307 11.3899 9.6589 11.3943 9.65655 11.3998C9.65421 11.4053 9.65383 11.4114 9.65549 11.4171L9.66407 11.43C9.80121 11.5585 9.98978 11.67 10.1398 11.7728C10.1612 11.7857 10.1741 11.8071 10.1826 11.8285V11.8971L9.93835 12.4971V12.5143L9.94692 12.5314L9.96407 12.5357H9.98121L10.5684 12.1928C10.6112 12.33 10.6541 12.4371 10.6969 12.51C10.8126 12.7028 11.0612 12.7114 11.1855 12.8871C11.3355 13.0928 11.3226 13.4143 11.2884 13.6543C11.2841 13.7041 11.263 13.751 11.2284 13.7871C11.2 13.8199 11.1785 13.858 11.1653 13.8992C11.152 13.9405 11.1472 13.984 11.1512 14.0271L10.9112 14.0143C10.901 14.0135 10.8911 14.0098 10.8828 14.0038C10.8745 13.9977 10.868 13.9895 10.8641 13.98L10.6284 13.2857C10.6112 13.23 10.5898 13.23 10.5684 13.2857L10.3755 13.7871C10.3377 13.8364 10.3167 13.8965 10.3155 13.9585C10.3026 13.9885 10.2855 14.0014 10.2555 14.0014L9.63835 13.98C9.57407 13.98 9.56549 13.9928 9.61692 14.0314L10.0241 14.3485L9.14549 14.64C9.14549 14.5971 9.13692 14.5543 9.12835 14.5157C8.90854 13.6436 8.8793 12.7344 9.04264 11.85C9.04264 11.8243 9.02978 11.7857 9.04692 11.76C9.11727 11.3094 9.26517 10.8744 9.48407 10.4743C9.49828 10.4481 9.50608 10.4189 9.50682 10.3891C9.50757 10.3593 9.50124 10.3297 9.48835 10.3028C9.48608 10.3028 9.4839 10.3019 9.48229 10.3003C9.48068 10.2987 9.47978 10.2965 9.47978 10.2943C9.47978 10.292 9.48068 10.2898 9.48229 10.2882C9.4839 10.2866 9.48608 10.2857 9.48835 10.2857H9.50549L9.52264 10.3028L9.52692 10.3028V10.1914L9.52264 10.1957Z" fill="#F99A1F"/>
<path d="M11.8284 11.0357C11.8798 11.13 11.8841 11.1985 11.8541 11.2414C11.8241 11.28 11.7984 11.2757 11.7812 11.2328C11.6741 11.01 11.5412 10.8043 11.3869 10.6071C11.3741 10.5943 11.3741 10.5814 11.3869 10.5728L11.3998 10.5643C11.403 10.5624 11.4067 10.5614 11.4105 10.5614C11.4143 10.5614 11.418 10.5624 11.4212 10.5643H11.4298C11.4898 10.65 11.6012 10.7657 11.7598 10.92C11.7769 10.9328 11.7984 10.9714 11.8284 11.0357Z" fill="#251820"/>
<path d="M14.3569 10.6628C14.4084 10.6928 14.4641 10.71 14.5284 10.7228C14.5369 10.7228 14.5455 10.7314 14.5498 10.7443C14.6012 10.9071 14.6955 11.0485 14.8241 11.1685C15.0041 11.475 15.1397 11.8054 15.2269 12.15C15.3341 12.6643 15.3384 13.1785 15.2312 13.6928C15.1712 13.9928 15.0255 14.31 14.9055 14.6143L14.5626 14.4943L14.5798 14.49C14.5926 14.49 14.6012 14.4814 14.6055 14.4685C14.6116 14.4554 14.6203 14.4438 14.6312 14.4343C14.6569 14.4085 14.6612 14.3785 14.6441 14.3443C14.6409 14.3399 14.6392 14.3346 14.6392 14.3293C14.6392 14.3239 14.6409 14.3186 14.6441 14.3143C14.8412 14.0743 14.9269 13.8128 15.0041 13.5085C15.0426 13.3585 15.0641 13.1228 15.0555 12.9771C15.0341 12.4843 14.8926 12.0771 14.7384 11.6143C14.6955 11.4985 14.6526 11.4 14.5969 11.3357C14.4935 11.2134 14.4214 11.0678 14.3869 10.9114C14.3784 10.8685 14.3569 10.8471 14.3141 10.8514C14.3045 10.8534 14.2957 10.8578 14.2884 10.8643C14.2801 10.8709 14.2742 10.8798 14.2712 10.89L14.1855 11.2157L14.1898 10.7528C14.1898 10.7443 14.1898 10.74 14.1984 10.7357C14.1984 10.7314 14.2026 10.7271 14.2112 10.7271L14.3612 10.6628L14.3569 10.6628Z" fill="#F37924"/>
<path d="M14.5626 14.4943L14.1255 14.3443C14.1176 14.3387 14.109 14.3343 14.0998 14.3314C14.1855 14.2457 14.2712 14.1814 14.3441 14.1471C14.4169 14.1085 14.4126 14.0871 14.3269 14.0871L13.7184 14.07C13.6669 14.07 13.6326 14.0443 13.6198 14.0014L13.4055 13.3457C13.3841 13.2857 13.3626 13.2857 13.3412 13.3457L13.0884 14.0314C13.0969 13.8728 13.0626 13.7443 12.9898 13.6371C12.9709 13.4713 12.9782 13.3035 13.0112 13.14C13.0584 12.9385 13.2512 12.84 13.3841 12.7157C13.5169 12.5871 13.5555 12.48 13.6412 12.3471L14.0526 12.6257C14.0548 12.6271 14.0573 12.6281 14.0599 12.6284C14.0625 12.6288 14.0651 12.6285 14.0676 12.6277C14.0701 12.6269 14.0723 12.6255 14.0742 12.6237C14.0761 12.6218 14.0775 12.6196 14.0784 12.6171V12.6043L13.8769 12.0128C13.8641 11.97 13.8769 11.9185 13.9284 11.8628C13.9353 11.855 13.9441 11.8491 13.9541 11.8457C14.0184 11.8157 14.0698 11.76 14.1212 11.73C14.2198 11.67 14.3226 11.6014 14.4212 11.5285C14.4384 11.5157 14.4384 11.5071 14.4126 11.5028L14.1555 11.4943L14.1855 11.2157L14.2712 10.89C14.2712 10.8814 14.2798 10.8728 14.2884 10.8643C14.2957 10.8578 14.3045 10.8534 14.3141 10.8514C14.3569 10.8471 14.3784 10.8643 14.3869 10.9114C14.4169 11.0571 14.4898 11.1985 14.6012 11.34C14.6526 11.4043 14.6998 11.4985 14.7384 11.6143C14.8926 12.0728 15.0341 12.4843 15.0555 12.9771C15.0641 13.1271 15.0426 13.3585 15.0041 13.5085C14.9269 13.8085 14.8412 14.0743 14.6441 14.3143C14.6409 14.3186 14.6392 14.3239 14.6392 14.3293C14.6392 14.3346 14.6409 14.3399 14.6441 14.3443C14.6612 14.3785 14.6569 14.4085 14.6312 14.4343C14.6203 14.4438 14.6116 14.4554 14.6055 14.4685C14.6038 14.4743 14.6005 14.4794 14.5959 14.4832C14.5913 14.487 14.5857 14.4894 14.5798 14.49H14.5626V14.4943Z" fill="#F99A1F"/>
<path d="M10.6112 11.2114C10.6036 11.1924 10.6007 11.1718 10.6026 11.1514C10.6026 11.1257 10.6198 11.1128 10.6541 11.1171C11.0378 11.1667 11.4 11.3225 11.6998 11.5671C11.7026 11.5733 11.7042 11.58 11.7045 11.5868C11.7048 11.5936 11.7037 11.6004 11.7013 11.6068C11.6989 11.6132 11.6952 11.619 11.6906 11.624C11.6859 11.6289 11.6803 11.6329 11.6741 11.6357C11.6655 11.64 11.6484 11.6357 11.6312 11.6271C11.4992 11.6456 11.3659 11.6528 11.2326 11.6485C10.9498 11.6485 10.7312 11.4428 10.6112 11.2114Z" fill="#251820"/>
<path d="M11.2069 11.4L11.2369 11.43H11.2798C11.3484 11.4128 11.4812 11.4385 11.5241 11.5114C11.5259 11.5147 11.5269 11.5184 11.5269 11.5221C11.5269 11.5259 11.5259 11.5296 11.5241 11.5328L11.5069 11.5414C11.1812 11.5585 10.8898 11.5285 10.7398 11.2071C10.7379 11.2039 10.7369 11.2002 10.7369 11.1964C10.7369 11.1926 10.7379 11.1889 10.7398 11.1857C10.7424 11.1815 10.7464 11.1784 10.7511 11.1768C10.7558 11.1753 10.7609 11.1754 10.7655 11.1771C10.8812 11.2028 10.9926 11.2371 11.0998 11.28C11.1426 11.2971 11.1769 11.3357 11.2069 11.4ZM13.0841 11.4257C13.1526 11.4043 13.1398 11.34 13.1955 11.31C13.309 11.2527 13.4303 11.2123 13.5555 11.19C13.5592 11.1904 13.5628 11.1918 13.5658 11.1941C13.5688 11.1964 13.5712 11.1994 13.5726 11.2028V11.2114C13.5684 11.2457 13.5555 11.2757 13.5341 11.3057C13.3626 11.5371 13.1012 11.5585 12.8312 11.5285C12.8275 11.5281 12.8239 11.5267 12.8209 11.5244C12.8179 11.5222 12.8155 11.5191 12.8141 11.5157V11.5028C12.8141 11.4985 12.8141 11.4943 12.8226 11.49C12.9212 11.4085 12.9898 11.4643 13.0841 11.4257Z" fill="#FED27E"/>
<path d="M11.7941 11.3914L11.8284 11.4043L11.8412 11.4171C11.8498 11.4385 11.8412 11.4471 11.7984 11.4471L11.7769 11.4385C11.7699 11.4343 11.764 11.4284 11.7598 11.4214C11.7224 11.3664 11.6988 11.3032 11.6912 11.2371C11.6912 11.2285 11.6912 11.2243 11.6998 11.2243H11.7126C11.7212 11.2243 11.7212 11.2243 11.7255 11.2328C11.7298 11.2843 11.7426 11.3271 11.7684 11.37C11.7684 11.3828 11.7812 11.3871 11.7941 11.3914Z" fill="#222828"/>
<path d="M10.1441 11.3571C10.1526 11.5585 10.2255 11.6571 10.3584 11.79C10.4141 11.8414 10.4484 11.8928 10.4741 11.9443C10.5169 12.03 10.5426 12.1157 10.5684 12.1971L9.98121 12.5314C9.97734 12.5335 9.97305 12.5347 9.96865 12.535C9.96425 12.5352 9.95985 12.5345 9.95576 12.5329C9.95166 12.5312 9.94798 12.5287 9.94498 12.5255C9.94197 12.5223 9.93971 12.5184 9.93835 12.5143V12.4971L10.1784 11.8971C10.1872 11.8751 10.1882 11.8507 10.1812 11.8281C10.1742 11.8054 10.1596 11.7859 10.1398 11.7728C9.98978 11.67 9.79692 11.5585 9.66835 11.43C9.65978 11.43 9.65978 11.4214 9.65549 11.4171C9.65483 11.412 9.6557 11.4069 9.65799 11.4023C9.66028 11.3977 9.66389 11.3939 9.66835 11.3914L9.68549 11.3871L10.1141 11.4043C10.1177 11.4052 10.1216 11.4052 10.1253 11.4045C10.129 11.4038 10.1325 11.4022 10.1355 11.4C10.1385 11.3973 10.1408 11.394 10.1423 11.3903C10.1438 11.3866 10.1444 11.3825 10.1441 11.3785V11.3614L10.1441 11.3571ZM14.1512 11.4943L14.4126 11.5028C14.4384 11.5028 14.4384 11.5157 14.4212 11.5285C14.3226 11.6014 14.2198 11.67 14.1212 11.73C14.0698 11.76 14.0184 11.8157 13.9498 11.8457C13.9414 11.8497 13.9341 11.8555 13.9284 11.8628C13.8812 11.9185 13.8641 11.97 13.8769 12.0128C13.9446 12.2127 14.0117 12.4127 14.0784 12.6128C14.078 12.6157 14.077 12.6184 14.0754 12.6207C14.0737 12.6231 14.0715 12.625 14.069 12.6262C14.0664 12.6275 14.0627 12.6285 14.0599 12.6284C14.0573 12.6281 14.0548 12.6271 14.0526 12.6257L13.6412 12.3471C13.6755 12.2057 13.7098 11.9571 13.8255 11.8971C13.9026 11.8585 14.0226 11.7814 14.0569 11.6957C14.0869 11.6185 14.1212 11.5585 14.1512 11.4943Z" fill="#D30202"/>
<path d="M11.5541 11.9314C11.6826 11.8543 11.7684 11.76 11.7469 11.73C11.7298 11.7 11.6055 11.7385 11.4769 11.82C11.3484 11.9014 11.2626 11.9914 11.2841 12.0214C11.3012 12.0557 11.4255 12.0128 11.5541 11.9357V11.9314Z" fill="#251820"/>
<path d="M11.0569 12.4543C11.0784 12.5228 11.0826 12.5957 11.0784 12.6771C10.7355 12.6214 10.6669 12.2871 10.5984 12.03C10.5855 11.9871 10.5984 11.9785 10.6284 12.0128C10.6926 12.0728 10.7698 12.12 10.8641 12.1585C10.9155 12.18 10.9498 12.2271 10.9626 12.2871C10.9798 12.3643 11.0098 12.4157 11.0569 12.4543Z" fill="#664983"/>
<path d="M17.4726 12.2571C17.6012 12.2271 17.7255 12.3471 17.8369 12.3943C17.8926 12.4157 17.9269 12.4371 17.9441 12.4671C18.0169 12.5785 17.9784 12.8657 17.9826 13.0028L17.9912 13.0114L17.9998 13.0028C18.0171 12.8746 18.0314 12.746 18.0426 12.6171C18.0466 12.6134 18.0514 12.6107 18.0566 12.6092C18.0618 12.6077 18.0673 12.6075 18.0726 12.6085C18.0812 12.6085 18.0898 12.6128 18.0941 12.6214C18.1026 12.63 18.1112 12.63 18.1198 12.6214C18.1816 14.0916 17.7097 15.5346 16.7912 16.6843H16.7784C16.7098 16.6414 16.6369 16.6071 16.5555 16.5857L16.3755 16.2343C17.2404 15.1013 17.6336 13.6777 17.4726 12.2614L17.4726 12.2571Z" fill="#F99A1F"/>
<path d="M12.1455 12.5485C12.1384 12.5554 12.1338 12.5645 12.1326 12.5743C12.1314 12.5841 12.1269 12.5931 12.1198 12.6C12.1124 12.6055 12.1033 12.6085 12.0941 12.6085C12.0839 12.6099 12.0736 12.6081 12.0644 12.6035C12.0553 12.599 12.0477 12.5917 12.0426 12.5828C12.0128 12.5276 11.9683 12.4816 11.9141 12.45C11.9079 12.4465 11.9028 12.4415 11.8991 12.4355C11.8953 12.4295 11.8931 12.4227 11.8926 12.4157C11.8755 12.2571 12.3641 12.3171 12.4369 12.3385C12.4464 12.3401 12.4554 12.344 12.4629 12.35C12.4704 12.356 12.4762 12.3639 12.4798 12.3728C12.4821 12.3818 12.4821 12.3912 12.4799 12.4002C12.4776 12.4091 12.4732 12.4174 12.4669 12.4243C12.4049 12.5054 12.3278 12.5738 12.2398 12.6257C12.2348 12.6259 12.2298 12.6248 12.2253 12.6225C12.2208 12.6203 12.2169 12.617 12.2141 12.6128C12.2117 12.6089 12.2102 12.6045 12.2098 12.6C12.2098 12.5743 12.1969 12.5571 12.1755 12.5443C12.1715 12.5403 12.1661 12.5381 12.1605 12.5381C12.1549 12.5381 12.1495 12.5403 12.1455 12.5443V12.5485Z" fill="#9372A0"/>
<path d="M11.5069 13.8943C11.5131 13.843 11.5038 13.7911 11.4801 13.7452C11.4564 13.6994 11.4195 13.6617 11.3741 13.6371L11.3955 13.1828V13.1743C11.397 13.1724 11.399 13.171 11.4013 13.1703C11.4036 13.1695 11.406 13.1694 11.4084 13.17H11.4126C11.4298 13.1785 11.4426 13.1914 11.4555 13.2085L11.6012 13.53C11.7126 13.8 12.2741 13.7443 12.4884 13.6971C12.6726 13.6543 12.7884 13.3971 12.8441 13.2171C12.8441 13.2043 12.8526 13.1957 12.8655 13.1957L12.8826 13.1914C12.8955 13.1914 12.9041 13.1914 12.9041 13.2085L12.8955 13.6585C12.8955 14.0057 11.7812 13.9457 11.5669 13.9114C11.546 13.9096 11.5256 13.9038 11.5069 13.8943Z" fill="#664983"/>
<path d="M11.7898 13.2428C12.0941 13.1743 12.3041 13.2171 12.5741 13.2514C12.6242 13.2574 12.675 13.2545 12.7241 13.2428L12.7326 13.2471V13.2643C12.6812 13.4357 12.6041 13.6071 12.3898 13.6371C12.2012 13.6585 12.0126 13.6457 11.8155 13.6028C11.6612 13.5643 11.6184 13.3757 11.5755 13.2514V13.2343H11.5926C11.6655 13.2643 11.7084 13.2643 11.7898 13.2471V13.2428Z" fill="#664983"/>
<path d="M11.1512 14.0271L11.1341 14.1471C11.1341 14.1557 11.1255 14.1643 11.1169 14.1728L10.6626 14.43C10.6579 14.432 10.6528 14.433 10.6476 14.433C10.6425 14.433 10.6374 14.432 10.6326 14.43C10.6278 14.428 10.6234 14.4251 10.6197 14.4214C10.616 14.4178 10.6131 14.4134 10.6112 14.4085C10.5255 14.2243 10.3069 14.2414 10.1398 14.3057L10.0241 14.3528L9.61692 14.0357C9.56549 13.9971 9.57407 13.98 9.63835 13.9843L10.2555 14.0014C10.2855 14.0014 10.3026 13.9928 10.3155 13.9628C10.3498 13.9071 10.3712 13.8471 10.3755 13.7914L10.5684 13.2857C10.5898 13.2343 10.6112 13.2343 10.6284 13.2857L10.8641 13.98C10.8641 13.9885 10.8726 13.9971 10.8812 14.0057L10.9112 14.0143L11.1512 14.0271ZM14.0998 14.3271C13.9241 14.2414 13.8726 14.2414 13.7141 14.3185C13.7089 14.3215 13.7029 14.3231 13.6969 14.3231C13.6909 14.3231 13.685 14.3215 13.6798 14.3185C13.4912 14.1985 13.2941 14.1043 13.0884 14.0314L13.3412 13.3457C13.3626 13.2857 13.3841 13.2857 13.4012 13.3457L13.6198 14.0014C13.6369 14.0443 13.6669 14.07 13.7184 14.07L14.3269 14.0871C14.4126 14.0871 14.4126 14.1085 14.3441 14.1471C14.2712 14.1814 14.1898 14.2457 14.0998 14.3271Z" fill="#D30202"/>
<path d="M16.1441 15.1543L15.7584 14.97L16.0241 14.2757C16.1269 13.9885 16.1741 13.71 16.2298 13.4143C16.2598 13.2643 16.2769 13.2643 16.2855 13.4143C16.3026 13.8214 16.2769 14.2414 16.2126 14.6743L16.1441 15.1543Z" fill="#F99A1F"/>
<path d="M11.3741 13.6371C11.4195 13.6617 11.4564 13.6994 11.4801 13.7452C11.5038 13.7911 11.5131 13.843 11.5069 13.8943C11.3826 13.86 11.3355 13.7743 11.3741 13.6371Z" fill="#9372A0"/>
<path d="M12.1541 14.3314C12.1425 14.291 12.1396 14.2487 12.1455 14.2071L12.1412 14.1771C12.1353 14.1673 12.1262 14.1598 12.1155 14.1557C11.9526 14.0871 11.7769 14.1 11.6055 14.01C12.0384 14.01 12.4326 14.0614 12.8226 13.8943C12.8784 13.8685 12.9084 13.8343 12.9255 13.7871C12.9384 13.7443 12.9555 13.7443 12.9684 13.7871C13.0026 13.8643 13.0112 13.9585 13.0026 14.0614C12.9812 14.28 12.3212 14.3314 12.1541 14.3314Z" fill="#989145"/>
<path d="M11.6055 14.01C11.7769 14.1 11.9484 14.0871 12.1155 14.1557C12.1241 14.1557 12.1326 14.1685 12.1412 14.1771C12.1412 14.1857 12.1455 14.1985 12.1412 14.2071C12.1367 14.249 12.1411 14.2913 12.1541 14.3314C11.8969 14.3614 11.4855 14.3571 11.2798 14.2114C11.262 14.1982 11.2478 14.1806 11.2388 14.1603C11.2298 14.14 11.2262 14.1178 11.2284 14.0957L11.2541 13.8728C11.2541 13.8214 11.2798 13.8171 11.3141 13.8514C11.3869 13.9243 11.4855 13.98 11.6055 14.01Z" fill="#D1D47F"/>
<path d="M13.0455 14.5457C13.0487 14.5439 13.0516 14.5415 13.0538 14.5385C13.056 14.5356 13.0576 14.5322 13.0584 14.5285C13.0587 14.5245 13.0581 14.5205 13.0566 14.5168C13.0551 14.5131 13.0528 14.5098 13.0498 14.5071C12.9984 14.4514 12.9384 14.3785 12.9426 14.2971C12.9426 14.2905 12.9442 14.2839 12.9472 14.2779C12.9501 14.272 12.9545 14.2668 12.9598 14.2628L13.0884 14.1557C13.0923 14.152 13.0971 14.1493 13.1023 14.1478C13.1075 14.1463 13.113 14.1461 13.1184 14.1471C13.2812 14.19 13.4955 14.3271 13.6326 14.4171C13.6498 14.4257 13.6541 14.4428 13.6455 14.46C13.5855 14.5628 13.4741 14.7643 13.3412 14.7428C13.0842 14.6853 12.8159 14.7046 12.5698 14.7985C12.5526 14.8071 12.5269 14.8114 12.5055 14.7985C12.5022 14.7968 12.4994 14.7943 12.4972 14.7914C12.495 14.7884 12.4934 14.785 12.4926 14.7814V14.7643C12.5655 14.6528 12.6126 14.5328 12.6384 14.4085C12.6384 14.3957 12.6469 14.3871 12.6598 14.3828L12.8141 14.3314C12.8398 14.3228 12.8526 14.3314 12.8569 14.3528C12.866 14.3918 12.8829 14.4286 12.9064 14.461C12.93 14.4934 12.9598 14.5207 12.9941 14.5414C13.0155 14.5543 13.0326 14.5585 13.0455 14.5457ZM11.1726 14.6743H11.1855C11.2069 14.6828 11.2198 14.6743 11.2284 14.6528L11.3141 14.3357C11.3143 14.3324 11.3159 14.3293 11.3184 14.3271H11.3269L11.5969 14.4C11.6012 14.4 11.6055 14.4 11.6098 14.4085L11.6141 14.4171L11.6912 14.73C11.6955 14.76 11.6826 14.7728 11.6484 14.7685C11.4341 14.7257 11.1769 14.7685 10.9541 14.7985C10.8641 14.8071 10.7484 14.6443 10.7012 14.5757C10.6965 14.5659 10.6957 14.5548 10.6988 14.5445C10.702 14.5341 10.709 14.5254 10.7184 14.52L11.1298 14.2628H11.1426C11.2069 14.2543 11.2326 14.2757 11.2284 14.3228C11.2099 14.431 11.1812 14.5372 11.1426 14.64C11.1436 14.6452 11.1456 14.6502 11.1485 14.6546C11.1515 14.659 11.1553 14.6628 11.1598 14.6657C11.1635 14.6693 11.1679 14.6722 11.1726 14.6743Z" fill="#664983"/>
<path d="M10.1441 14.3057L10.1741 14.3828C10.1612 14.4257 10.1698 14.4685 10.1955 14.5285C10.2298 14.5885 10.2812 14.67 10.3584 14.7643C10.3841 14.8328 10.4312 14.8843 10.4955 14.9271C10.7478 15.1853 11.0574 15.3803 11.3992 15.4965C11.7409 15.6127 12.1053 15.6466 12.4626 15.5957C12.7984 15.5646 13.1208 15.4488 13.3996 15.2592C13.6785 15.0695 13.9046 14.8123 14.0569 14.5114C14.0655 14.4685 14.0655 14.4385 14.0441 14.4257C14.0655 14.3743 14.0955 14.3485 14.1298 14.3443L14.5626 14.4943L14.9055 14.6143L15.7626 14.97L16.1441 15.1543C16.1783 15.2014 16.1783 15.2657 16.1441 15.3471C16.1272 15.3978 16.1129 15.4493 16.1012 15.5014L16.1098 15.5143C16.2469 15.7371 16.3369 15.9771 16.3755 16.2343L16.5555 16.5857C16.5426 16.5771 16.5169 16.5857 16.4869 16.6071C16.3969 16.4614 16.3155 16.3371 16.2812 16.1571C16.2384 15.9616 16.16 15.7756 16.0498 15.6085C16.0465 15.6067 16.0428 15.6057 16.0391 15.6057C16.0353 15.6057 16.0316 15.6067 16.0284 15.6085L16.0198 15.6171C15.9041 15.8743 15.7626 16.1271 15.6041 16.3671L15.4626 16.59C15.4498 16.6071 15.4541 16.6157 15.4755 16.6157L15.5955 16.6028C15.6011 16.6026 15.6067 16.6037 15.6119 16.6059C15.6171 16.6081 15.6217 16.6115 15.6255 16.6157L15.6341 16.6285V16.6457L15.6212 16.7185L15.5569 16.7614C15.4712 16.8171 15.3555 16.7828 15.2698 16.8471C15.2419 16.8659 15.2173 16.889 15.1969 16.9157L15.0126 17.0914C15.0071 17.097 15.0037 17.1043 15.0029 17.1121C15.0021 17.1199 15.0041 17.1277 15.0084 17.1343L15.3255 17.5885C15.3341 17.5971 15.3426 17.6014 15.3555 17.6014C15.3984 17.5971 15.4369 17.58 15.4669 17.5457C15.4626 17.5628 15.4755 17.58 15.5184 17.6014L15.3984 17.6914C15.3939 17.6949 15.3904 17.6995 15.3881 17.7048C15.3859 17.71 15.385 17.7157 15.3855 17.7214C15.3855 17.7385 15.3855 17.7557 15.3984 17.7685V17.79L15.3855 17.7985H15.3769C15.3684 17.7985 15.3641 17.7985 15.3598 17.8071L15.3555 17.8285L15.2355 17.6143L14.9484 17.1857L14.9398 17.1771H14.9312C14.9279 17.1771 14.9246 17.1779 14.9216 17.1794C14.9186 17.1809 14.9161 17.183 14.9141 17.1857C14.8284 17.3314 14.6869 17.49 14.6526 17.6528L14.5884 17.94C14.5428 18.1208 14.4811 18.2972 14.4041 18.4671L14.3912 18.4371C14.3912 18.4243 14.3784 18.42 14.3655 18.4243L14.3398 18.4285C14.4384 18.1457 14.5241 17.8585 14.5926 17.5671C14.5974 17.5503 14.5974 17.5325 14.5926 17.5157C14.5907 17.5107 14.587 17.5067 14.5823 17.5043C14.5775 17.5019 14.572 17.5014 14.5669 17.5028H14.5584C14.2669 17.7385 13.9584 17.9314 13.6326 18.0985C13.5898 18.12 13.5598 18.1414 13.5469 18.1585C13.4689 18.2652 13.3618 18.3471 13.2384 18.3943H13.2212C13.2166 18.394 13.2122 18.3925 13.2084 18.39L13.1526 18.3214C13.1098 18.3471 13.0755 18.3514 13.0412 18.3385C13.0312 18.3354 13.0223 18.3294 13.0155 18.3214C12.9984 18.3043 12.9769 18.2957 12.9512 18.3043C12.7755 18.3343 12.6041 18.3557 12.4369 18.3643C12.4155 18.3643 12.4112 18.3728 12.4198 18.39C12.4617 18.5072 12.5241 18.616 12.6041 18.7114V18.7243L12.5955 18.7328H12.5869L12.5784 18.7371C12.5526 18.7414 12.5355 18.7371 12.5184 18.7157C12.4384 18.6194 12.3773 18.5089 12.3384 18.39C12.335 18.3848 12.3306 18.3804 12.3255 18.3771C12.2926 18.3599 12.255 18.3539 12.2184 18.36C12.0812 18.3857 11.9698 18.4028 11.8798 18.4028L11.2755 18.2743C10.6518 18.1392 10.0839 17.8178 9.64692 17.3528H9.63407C9.62969 17.353 9.62543 17.3542 9.62168 17.3565C9.61793 17.3587 9.61482 17.3619 9.61264 17.3657V17.3785C9.63835 17.6785 9.77978 17.9443 10.0412 18.18C9.98549 18.1928 9.94692 18.1885 9.92121 18.1628C9.80121 18.0428 9.71121 17.9485 9.65549 17.8628C9.59304 17.6612 9.54718 17.4548 9.51835 17.2457C9.51198 17.2302 9.50331 17.2157 9.49264 17.2028C9.29219 17.0085 9.10194 16.804 8.92264 16.59C8.91383 16.5887 8.90484 16.5902 8.89692 16.5943L8.56264 16.7657L8.09121 16.9457C8.07835 16.95 8.06121 16.9457 8.03549 16.9371C8.03121 16.9028 8.05264 16.8771 8.08692 16.8685C8.35692 16.7743 8.61407 16.6628 8.85835 16.5343C8.87549 16.5257 8.87549 16.5171 8.86692 16.5043L8.56692 16.11L8.27978 15.6814L8.27121 15.6728C8.26719 15.6709 8.2628 15.6699 8.25835 15.6699C8.2539 15.6699 8.24951 15.6709 8.24549 15.6728H8.23264C8.03549 15.8485 7.88978 16.0585 7.80406 16.3028C7.72692 16.53 7.66264 16.6885 7.61549 16.7743C7.60692 16.7657 7.59407 16.7614 7.57264 16.7614C7.56407 16.7614 7.55978 16.7614 7.55549 16.7485L7.54264 16.74L7.56407 16.6714C7.58138 16.6563 7.59464 16.6372 7.60264 16.6157C7.68835 16.3757 7.77407 16.1185 7.91549 15.9C8.00121 15.7843 8.09121 15.6857 8.19407 15.6C8.20101 15.5934 8.20529 15.5846 8.20608 15.5751C8.20687 15.5656 8.20412 15.5561 8.19835 15.5485C8.12978 15.4628 8.02692 15.3343 8.01835 15.2228L8.03549 15.1157C8.18978 15.0214 8.36978 14.9357 8.57121 14.8628L9.14549 14.6485L10.0241 14.3528L10.1441 14.3057Z" fill="#222828"/>
<path d="M14.0441 14.4214C14.0655 14.4385 14.0655 14.4685 14.0569 14.5071C13.9046 14.808 13.6785 15.0653 13.3996 15.2549C13.1208 15.4445 12.7984 15.5603 12.4626 15.5914C11.7341 15.6771 10.9969 15.4628 10.4955 14.9271L10.3584 14.7643C10.2812 14.67 10.2298 14.5885 10.1955 14.5285C10.1698 14.4685 10.1612 14.4214 10.1741 14.3828C10.2598 14.37 10.3884 14.34 10.4612 14.3657C10.4667 14.3673 10.4718 14.3701 10.4762 14.3738C10.4807 14.3775 10.4843 14.382 10.4869 14.3871C10.8341 15.0728 11.5455 15.3643 12.3041 15.3214C12.7326 15.3 13.1698 15.15 13.4698 14.8371C13.5812 14.7214 13.6841 14.5457 13.7826 14.3957C13.7949 14.3773 13.8131 14.3639 13.8343 14.3576C13.8554 14.3513 13.8781 14.3527 13.8984 14.3614L14.0441 14.4214Z" fill="#E2E1E1"/>
<path d="M12.3598 14.8371C12.2484 14.9657 11.9826 14.8928 11.8712 14.8071C11.7684 14.73 11.7298 14.5885 11.7084 14.4643C11.708 14.4596 11.7085 14.4549 11.71 14.4505C11.7115 14.4461 11.7138 14.442 11.7169 14.4385C11.7205 14.4341 11.7251 14.4306 11.7303 14.4283C11.7355 14.4261 11.7412 14.4252 11.7469 14.4257C12.0099 14.4511 12.2752 14.441 12.5355 14.3957C12.5373 14.3972 12.5387 14.3992 12.5395 14.4015C12.5402 14.4038 12.5403 14.4062 12.5398 14.4085C12.5269 14.5671 12.4626 14.7128 12.3598 14.8371Z" fill="#9372A0"/>
<path d="M10.2512 14.8585L8.93978 15.75C8.9336 15.7539 8.92669 15.7566 8.91946 15.7579C8.91223 15.7592 8.90481 15.759 8.89764 15.7574C8.89047 15.7558 8.88369 15.7529 8.87768 15.7486C8.87168 15.7444 8.86656 15.739 8.86264 15.7328L8.69121 15.4714C8.68697 15.4652 8.68402 15.4582 8.68255 15.4508C8.68107 15.4435 8.6811 15.4359 8.68264 15.4285C8.68494 15.421 8.6888 15.4141 8.69397 15.4082C8.69914 15.4023 8.7055 15.3975 8.71264 15.3943L10.1269 14.6785C10.1402 14.6719 10.1555 14.6703 10.1698 14.6743C10.1826 14.6743 10.1955 14.6828 10.2041 14.6957L10.2641 14.7814C10.2725 14.7934 10.2759 14.8082 10.2734 14.8226C10.271 14.837 10.2631 14.8499 10.2512 14.8585ZM15.4112 15.6728L14.0141 14.8157C14.0071 14.8117 14.0011 14.8062 13.9966 14.7995C13.9921 14.7928 13.9893 14.7851 13.9884 14.7771C13.9871 14.7695 13.9876 14.7616 13.9899 14.7542C13.9921 14.7468 13.996 14.74 14.0012 14.7343C14.0526 14.6828 14.1169 14.6743 14.1984 14.7128C14.6671 14.9353 15.1288 15.1726 15.5826 15.4243V15.4371L15.4669 15.6557C15.4627 15.6631 15.4564 15.6691 15.4488 15.6729C15.4411 15.6768 15.4325 15.6782 15.4241 15.6771C15.4196 15.6764 15.4152 15.6749 15.4112 15.6728Z" fill="#27B0D3"/>
<path d="M13.3284 14.8543C12.7584 15.3557 11.5798 15.3814 11.0012 14.8757C10.9991 14.8733 10.9979 14.8703 10.9979 14.8671C10.9979 14.8639 10.9991 14.8609 11.0012 14.8585H11.0098L11.4169 14.8285C11.6484 14.8157 11.8584 14.9057 12.0769 14.9828C12.1112 14.9957 12.1498 15 12.1884 14.9914C12.3941 14.94 12.6169 14.8543 12.8098 14.8285C12.9802 14.8044 13.1529 14.8015 13.3241 14.82C13.3282 14.8217 13.3316 14.8248 13.3339 14.8286C13.3362 14.8325 13.3373 14.8369 13.3369 14.8414L13.3284 14.8543Z" fill="#9372A0"/>
<path d="M7.91549 15.9C7.77407 16.1185 7.69264 16.3714 7.60264 16.6157C7.59282 16.6361 7.57809 16.6538 7.55978 16.6671C7.55549 16.6028 7.55978 16.53 7.58121 16.4614C7.59407 16.4185 7.58549 16.3928 7.56407 16.3628C7.23053 15.9296 6.9673 15.4465 6.78407 14.9314C6.78407 14.9228 6.78407 14.9143 6.79264 14.91C6.81407 14.9014 6.82692 14.9057 6.83549 14.9185C7.06692 15.2314 7.37978 15.5014 7.66264 15.7757C7.74835 15.8571 7.83407 15.8957 7.91549 15.9Z" fill="#FED27E"/>
<path d="M16.0798 15.2914C15.6665 16.3572 14.9094 17.2546 13.9284 17.8414C13.3418 18.1576 12.6803 18.3087 12.0146 18.2785C11.3489 18.2483 10.7039 18.038 10.1484 17.67C9.29121 17.04 8.64835 16.1485 8.12121 15.2614C8.11322 15.2466 8.10977 15.2297 8.11129 15.213C8.11282 15.1962 8.11925 15.1802 8.12978 15.1671C8.13686 15.1583 8.1456 15.1511 8.15549 15.1457L8.30549 15.06C8.34835 15.0343 8.38264 15.0471 8.40406 15.0943C8.73835 15.8143 9.26121 16.4743 9.84835 17.0228C10.2769 17.43 10.7783 17.7043 11.3484 17.8457C11.4641 17.8757 11.5798 17.9143 11.6869 17.9314C13.7441 18.1585 15.0384 16.8557 15.8098 15.1585C15.8269 15.1157 15.8612 15.1028 15.9041 15.1243L16.0412 15.1928C16.0841 15.2143 16.0969 15.2485 16.0798 15.2914Z" fill="#E2E1E1"/>
<path d="M10.7141 15.3985C10.6155 15.4757 10.5298 15.5571 10.4569 15.6557C10.3841 15.7028 10.3198 15.78 10.2684 15.8271L10.0669 16.02C10.0369 16.0543 9.98121 16.0757 9.95549 16.14L9.94264 16.1571H9.92978C9.92268 16.1591 9.91657 16.1637 9.91264 16.17L9.53978 16.5471C9.5352 16.5513 9.52945 16.5539 9.52332 16.5547C9.51718 16.5555 9.51095 16.5543 9.50549 16.5514L9.49264 16.5471L9.26549 16.29C9.24835 16.2685 9.24835 16.2471 9.26549 16.2257C9.28692 16.1957 9.31692 16.1657 9.35549 16.1314C9.75816 15.7962 10.1742 15.4773 10.6026 15.1757C10.6072 15.1731 10.6124 15.1717 10.6176 15.1717C10.6229 15.1717 10.6281 15.1731 10.6326 15.1757L10.7741 15.2785C10.7805 15.2827 10.7858 15.2884 10.7896 15.2952C10.7933 15.3019 10.7953 15.3094 10.7955 15.3171C10.7962 15.3245 10.795 15.3319 10.792 15.3387C10.789 15.3454 10.7843 15.3513 10.7784 15.3557L10.7184 15.3985H10.7141ZM13.9284 15.3771C14.3012 15.6685 14.6569 15.9771 14.9912 16.3114C15.0006 16.321 15.0062 16.3336 15.0069 16.347C15.0077 16.3604 15.0037 16.3736 14.9955 16.3843L14.8026 16.62C14.7993 16.625 14.7949 16.6291 14.7897 16.6321C14.7845 16.6351 14.7786 16.6368 14.7726 16.6371C14.7666 16.6368 14.7608 16.6351 14.7556 16.6321C14.7504 16.6291 14.746 16.625 14.7426 16.62C14.5237 16.3544 14.295 16.0971 14.0569 15.8485C13.8941 15.6771 13.6884 15.4971 13.5041 15.3214C13.4955 15.3128 13.4955 15.3 13.5041 15.2914C13.5426 15.2485 13.5898 15.2143 13.6369 15.1885C13.6416 15.1863 13.6467 15.1851 13.6519 15.1851C13.6571 15.1851 13.6622 15.1863 13.6669 15.1885C13.7655 15.2443 13.8555 15.3257 13.9241 15.3771H13.9284ZM11.4426 15.69C11.3741 15.7414 11.3398 15.8185 11.3055 15.8614C11.2626 15.9257 11.2284 15.99 11.1984 16.0543L10.4184 17.2971C10.4146 17.3034 10.4097 17.309 10.4038 17.3134C10.3979 17.3178 10.3912 17.321 10.3841 17.3228C10.3764 17.3238 10.3687 17.3231 10.3613 17.3209C10.3539 17.3187 10.3471 17.315 10.3412 17.31L10.0326 17.0743C10.0261 17.0687 10.0216 17.0612 10.0198 17.0528L10.0241 17.0228L10.8555 15.9428L11.0869 15.66L11.1898 15.5314L11.2026 15.5228H11.2241L11.4641 15.6C11.4677 15.6008 11.4711 15.6023 11.474 15.6045C11.477 15.6067 11.4794 15.6096 11.4812 15.6128V15.63C11.471 15.6526 11.4564 15.673 11.4384 15.69H11.4426ZM13.7741 17.4L12.8355 15.6728C12.8309 15.6628 12.8297 15.6515 12.832 15.6407C12.8343 15.6299 12.84 15.6201 12.8484 15.6128C12.8532 15.6075 12.859 15.6031 12.8655 15.6L13.0412 15.54H13.0798C13.0884 15.54 13.1012 15.5485 13.1055 15.5614L14.1598 17.1728C14.1651 17.1811 14.168 17.1908 14.168 17.2007C14.168 17.2106 14.1651 17.2202 14.1598 17.2285L14.1426 17.2457L13.8512 17.4214C13.845 17.4256 13.838 17.4286 13.8307 17.4301C13.8233 17.4315 13.8157 17.4315 13.8084 17.43C13.8012 17.4282 13.7945 17.425 13.7886 17.4205C13.7828 17.4161 13.7778 17.4106 13.7741 17.4043V17.4Z" fill="#27B0D3"/>
<path d="M16.4869 16.6071C16.5041 16.6328 16.5126 16.6543 16.5126 16.68C16.5125 16.6913 16.5079 16.7021 16.4998 16.71C16.2126 16.9885 15.8741 17.2457 15.5355 17.4943C15.4069 17.3185 15.2912 17.1257 15.1969 16.9157C15.2141 16.89 15.2398 16.8685 15.2698 16.8428C15.3555 16.7828 15.4669 16.8171 15.5569 16.7571L15.6212 16.7143C15.6984 16.7057 16.0626 16.62 16.0584 16.5C16.0584 16.47 16.0326 16.4528 15.9941 16.4443C15.8655 16.4228 15.7369 16.4014 15.6083 16.3671C15.7674 16.1253 15.9078 15.8717 16.0284 15.6085L16.0412 15.6085C16.0445 15.6085 16.0478 15.6093 16.0508 15.6108C16.0538 15.6123 16.0564 15.6145 16.0584 15.6171C16.1655 15.7885 16.2426 15.9643 16.2812 16.1571C16.3198 16.3371 16.3969 16.4571 16.4869 16.6071ZM8.56692 16.1143C8.28551 16.3358 8.05465 16.6149 7.88978 16.9328L7.89407 16.9371H7.90264C7.94637 16.9272 7.99176 16.9272 8.03549 16.9371C8.06121 16.9457 8.07835 16.95 8.09121 16.9457L8.56264 16.7614C8.59692 16.7871 8.57549 16.8343 8.50692 16.9028C8.36549 17.0357 8.22835 17.1771 8.09549 17.3228C8.03978 17.3785 8.02692 17.4857 7.91549 17.43C7.76121 17.31 7.62407 17.1728 7.51692 17.0185C7.5075 17.0054 7.50244 16.9897 7.50244 16.9735C7.50244 16.9574 7.5075 16.9417 7.51692 16.9285L7.61549 16.7785C7.65835 16.6843 7.72692 16.53 7.80406 16.3028C7.89274 16.0562 8.04503 15.8374 8.24549 15.6685C8.24951 15.6666 8.2539 15.6656 8.25835 15.6656C8.2628 15.6656 8.26719 15.6666 8.27121 15.6685L8.27978 15.6814L8.56692 16.11L8.56692 16.1143Z" fill="#9372A0"/>
<path d="M10.8555 15.9428L11.0869 15.66C10.9969 15.7457 10.9198 15.84 10.8555 15.9428ZM11.4426 15.69L11.1984 16.0543C11.2284 15.9857 11.2626 15.9257 11.3055 15.8657C11.3398 15.8143 11.3741 15.7414 11.4384 15.6943L11.4426 15.69Z" fill="#696868"/>
<path d="M8.56692 16.1143L8.86692 16.5C8.87549 16.5171 8.87549 16.5257 8.85835 16.5343C8.61407 16.6628 8.35692 16.7743 8.08692 16.8685C8.05264 16.8771 8.03121 16.9028 8.03549 16.9371C7.99176 16.9272 7.94637 16.9272 7.90264 16.9371C7.90068 16.9382 7.89846 16.9388 7.89621 16.9388C7.89395 16.9388 7.89173 16.9382 7.88978 16.9371V16.92C8.05692 16.6028 8.28407 16.3328 8.56692 16.11L8.56692 16.1143Z" fill="#664983"/>
<path d="M11.4855 16.8771C11.4827 16.8703 11.4812 16.863 11.4812 16.8557C11.4812 16.8428 11.4812 16.8343 11.4898 16.8257L11.7126 16.5857L12.0984 16.1743C12.1054 16.1664 12.114 16.16 12.1235 16.1556C12.1331 16.1512 12.1435 16.1488 12.1541 16.1485C12.1646 16.1488 12.175 16.1512 12.1846 16.1556C12.1942 16.16 12.2027 16.1664 12.2098 16.1743L12.8012 16.8171C12.8098 16.83 12.8141 16.8385 12.8141 16.8514C12.8141 16.8643 12.8141 16.8771 12.8012 16.8857L12.1926 17.5285C12.1868 17.5335 12.1799 17.5372 12.1726 17.5395C12.1652 17.5417 12.1574 17.5423 12.1498 17.5414C12.1352 17.541 12.1213 17.5348 12.1112 17.5243L11.4855 16.8771Z" fill="#F37924"/>
<path d="M15.6041 16.3714C15.7326 16.4014 15.8655 16.4228 15.9941 16.4443C16.0369 16.4528 16.0541 16.47 16.0584 16.5C16.0626 16.62 15.6983 16.7057 15.6169 16.7143L15.6341 16.6457C15.6351 16.6404 15.6349 16.6349 15.6334 16.6297C15.6319 16.6244 15.6292 16.6196 15.6255 16.6157C15.6217 16.6115 15.6171 16.6081 15.6119 16.6059C15.6067 16.6037 15.6011 16.6026 15.5955 16.6028L15.4755 16.6157C15.4541 16.6157 15.4498 16.6071 15.4626 16.59L15.6041 16.3671V16.3714ZM9.65549 17.8671L9.39835 17.7085C9.37646 17.6753 9.35916 17.6393 9.34692 17.6014C9.34176 17.584 9.333 17.568 9.32121 17.5543C9.29549 17.5285 9.27407 17.5285 9.25692 17.5628H9.20978C9.19193 17.4823 9.17905 17.4007 9.17121 17.3185C9.16264 17.2114 8.90121 17.1257 8.81121 17.0957C8.80655 17.0946 8.80167 17.0948 8.79713 17.0963C8.79259 17.0978 8.78856 17.1006 8.78549 17.1043C8.78235 17.1086 8.78067 17.1139 8.78067 17.1193C8.78067 17.1246 8.78235 17.1299 8.78549 17.1343C8.80264 17.16 8.82835 17.1857 8.85835 17.2028C8.86216 17.2045 8.8652 17.2076 8.86692 17.2114C8.86843 17.214 8.86922 17.217 8.86922 17.22C8.86922 17.223 8.86843 17.2259 8.86692 17.2285C8.76835 17.3957 8.65692 17.5543 8.54121 17.7085C8.39978 17.8928 8.02264 17.5371 7.91549 17.43C8.02692 17.4857 8.04407 17.3785 8.09549 17.3228C8.22407 17.1771 8.36549 17.0357 8.50692 16.9028C8.57549 16.8343 8.59264 16.7871 8.56264 16.7614L8.89692 16.5943C8.90529 16.5916 8.91427 16.5916 8.92264 16.5943C8.93121 16.5943 8.93978 16.5943 8.94407 16.6028C9.11978 16.8171 9.30407 17.0143 9.49264 17.2028L9.51835 17.2457L9.53121 17.2971C9.55692 17.4943 9.59978 17.67 9.65549 17.8671Z" fill="#664983"/>
<path d="M16.4998 17.0443L15.6212 17.82L15.5484 17.8671C15.5098 17.8928 15.4798 17.8843 15.4541 17.85L15.3984 17.7685C15.39 17.7542 15.3856 17.738 15.3855 17.7214C15.3855 17.7085 15.3855 17.7 15.3984 17.6914L15.5184 17.6057C15.866 17.344 16.2062 17.0725 16.5384 16.7914C16.5659 16.7669 16.5891 16.7379 16.6069 16.7057C16.6088 16.7004 16.6123 16.6959 16.6169 16.6928C16.6216 16.6897 16.6271 16.6882 16.6326 16.6885C16.6755 16.6928 16.7098 16.7143 16.7312 16.7571V16.7828L16.4998 17.04V17.0443Z" fill="#D1D47F"/>
<path d="M15.1969 16.9157C15.2912 17.13 15.4026 17.3185 15.5355 17.4943L15.4669 17.5457C15.4374 17.5766 15.398 17.5963 15.3555 17.6014C15.3426 17.6014 15.3341 17.5971 15.3255 17.5885L15.0084 17.1385C15.0029 17.1316 15.0003 17.1229 15.0011 17.1141C15.0019 17.1053 15.006 17.0972 15.0126 17.0914L15.1969 16.92V16.9157Z" fill="#664983"/>
<path d="M16.4998 17.0443C16.2341 17.3443 15.9555 17.6014 15.6212 17.82L16.4998 17.0443Z" fill="#989145"/>
<path d="M15.2355 17.6143C15.1498 17.6143 15.0941 17.6271 15.0684 17.6485L14.6784 17.9528C14.6441 17.9785 14.6184 17.9743 14.5926 17.94L14.6526 17.6528C14.6869 17.49 14.8284 17.3314 14.9141 17.1857L14.9226 17.1771C14.9253 17.1759 14.9283 17.1753 14.9312 17.1753C14.9342 17.1753 14.9371 17.1759 14.9398 17.1771L14.9484 17.1857L15.2355 17.6143ZM9.14978 17.7428C9.07234 17.7207 8.99968 17.6843 8.93549 17.6357C8.87978 17.5971 8.81549 17.5843 8.77264 17.5371L8.94407 17.2543C8.95264 17.2414 8.96121 17.2371 8.97407 17.2414C9.03835 17.2585 9.07692 17.2971 9.09406 17.3614C9.11549 17.4814 9.13692 17.61 9.14978 17.7471V17.7428Z" fill="#FED27E"/>
<path d="M11.8798 18.4028C11.4144 18.5129 10.9284 18.4996 10.4698 18.3643C10.3326 18.3214 10.1869 18.2614 10.0412 18.18C9.7973 17.9751 9.64343 17.6827 9.61264 17.3657C9.61482 17.3619 9.61793 17.3587 9.62168 17.3565C9.62543 17.3542 9.62969 17.353 9.63407 17.3528H9.64692L9.68978 17.3871C10.1197 17.8322 10.6713 18.1407 11.2755 18.2743L11.8798 18.4028ZM14.3398 18.4285C14.3356 18.4628 14.3217 18.4952 14.2997 18.5218C14.2776 18.5484 14.2484 18.5681 14.2155 18.5785C13.9255 18.6828 13.6292 18.7687 13.3284 18.8357V18.8228L13.3326 18.8143C13.5181 18.6718 13.701 18.5261 13.8812 18.3771C13.8812 18.3685 13.8855 18.3557 13.8812 18.3471V18.33L13.8726 18.3171L13.8598 18.3085C13.8548 18.3069 13.8495 18.3064 13.8443 18.3072C13.8391 18.3079 13.8341 18.3099 13.8298 18.3128L13.6584 18.4543C13.6953 18.4117 13.7228 18.3619 13.739 18.3079C13.7553 18.254 13.7599 18.1972 13.7526 18.1414C13.7526 18.1157 13.7355 18.0985 13.7098 18.1071C13.6975 18.1103 13.6868 18.1179 13.6798 18.1285C13.5684 18.2743 13.4312 18.3985 13.2726 18.5014C13.1955 18.5485 13.1226 18.5528 13.0326 18.5571C13.0026 18.5571 12.9941 18.5485 13.0026 18.5228C13.0198 18.48 13.0584 18.4457 13.1141 18.4243C13.1484 18.4157 13.1569 18.3814 13.1526 18.3214L13.2084 18.39L13.2212 18.3985H13.2384C13.3669 18.3471 13.4655 18.27 13.5426 18.1585C13.5598 18.1414 13.5855 18.1157 13.6326 18.0985C13.9676 17.933 14.2837 17.7318 14.5755 17.4985C14.5797 17.4993 14.5837 17.5014 14.5867 17.5045C14.5898 17.5075 14.5918 17.5114 14.5926 17.5157V17.5671C14.5241 17.8585 14.4384 18.1457 14.3355 18.4285H14.3398Z" fill="#664983"/>
<path d="M8.77264 17.5371C8.81549 17.58 8.87978 17.5971 8.93121 17.6357C8.99549 17.6871 9.06835 17.7214 9.14549 17.7428L9.26978 18.2957C9.27407 18.3214 9.26978 18.33 9.23978 18.3171L8.63549 17.9871C8.62264 17.9828 8.62264 17.9743 8.62692 17.9614C8.65455 17.8916 8.65757 17.8145 8.63549 17.7428L8.63978 17.7128L8.76835 17.5371L8.77264 17.5371Z" fill="#FDAD19"/>
<path d="M9.39835 17.7085C9.47549 17.9143 9.58264 18.1071 9.71121 18.2785C9.72835 18.3 9.72407 18.3171 9.70264 18.33L9.69407 18.3385C9.69073 18.3409 9.68694 18.3426 9.68294 18.3434C9.67894 18.3443 9.6748 18.3443 9.67078 18.3435C9.66677 18.3427 9.66296 18.3411 9.65959 18.3388C9.65623 18.3364 9.65337 18.3334 9.65121 18.33C9.49012 18.0891 9.35779 17.8302 9.25692 17.5585C9.27407 17.5285 9.29978 17.5285 9.32121 17.5543C9.3325 17.5667 9.34124 17.5813 9.34692 17.5971C9.35978 17.6443 9.37692 17.6828 9.39835 17.7085Z" fill="#251820"/>
<path d="M9.20978 17.5628H9.25264C9.35964 17.8385 9.4992 18.1003 9.66835 18.3428C9.6766 18.3462 9.68582 18.3462 9.69407 18.3428L9.70264 18.33C9.72407 18.3171 9.72835 18.3 9.71121 18.2785C9.58264 18.1071 9.47549 17.9143 9.39835 17.7085L9.65549 17.8671C9.71121 17.9443 9.80121 18.0428 9.92121 18.1628C9.94692 18.1885 9.98549 18.1928 10.0412 18.18C10.1869 18.2657 10.3326 18.3257 10.4698 18.3643C10.9297 18.5006 11.4174 18.5139 11.8841 18.4028C11.9698 18.4028 12.0812 18.3857 12.2184 18.36C12.255 18.3539 12.2926 18.3599 12.3255 18.3771C12.3342 18.3833 12.3403 18.3924 12.3426 18.4028C12.3855 18.5185 12.4412 18.6214 12.5184 18.7157C12.5355 18.7371 12.5526 18.7414 12.5784 18.7371L12.5869 18.7371L12.5955 18.7328L12.6041 18.7243C12.6053 18.7206 12.6056 18.7167 12.6049 18.713C12.6041 18.7092 12.6024 18.7057 12.5998 18.7028C12.5222 18.6097 12.4613 18.5039 12.4198 18.39C12.4112 18.3728 12.4198 18.3643 12.4369 18.3643C12.6041 18.3557 12.7755 18.3343 12.9512 18.3C12.9769 18.3 12.9984 18.3 13.0155 18.3214C13.0198 18.33 13.0284 18.3343 13.0412 18.3385C13.0755 18.3514 13.1098 18.3471 13.1526 18.3214C13.1612 18.3814 13.1484 18.4157 13.1141 18.4243C13.0584 18.4457 13.0198 18.4757 13.0026 18.5185C12.9941 18.5485 13.0026 18.5614 13.0326 18.5571C13.1226 18.5528 13.1955 18.5485 13.2726 18.5014C13.4312 18.3985 13.5684 18.2743 13.6798 18.1285C13.6868 18.1179 13.6975 18.1103 13.7098 18.1071C13.7355 18.1028 13.7526 18.1157 13.7526 18.1414C13.7599 18.1972 13.7553 18.254 13.739 18.3079C13.7228 18.3619 13.6953 18.4117 13.6584 18.4543C13.4998 18.6128 13.2898 18.7114 13.1184 18.8571C13.0541 18.9128 12.9984 18.9085 12.9384 18.8485L12.6084 18.5014C12.5869 18.4757 12.5655 18.4757 12.5355 18.4971C12.5334 18.4995 12.5322 18.5025 12.5322 18.5057C12.5322 18.5088 12.5334 18.5119 12.5355 18.5143C12.6255 18.6514 12.7326 18.7843 12.8569 18.9C12.8655 18.9085 12.8612 18.9128 12.8526 18.9128C12.0084 19.0414 11.1598 18.9771 10.3455 18.7414C10.0509 18.6552 9.76058 18.5551 9.47549 18.4414C9.40264 18.4157 9.37692 18.3985 9.35549 18.3214C9.28567 18.0731 9.23693 17.8193 9.20978 17.5628Z" fill="#9372A0"/>
<path d="M15.2355 17.6143L15.3555 17.8285L15.4155 17.9357C15.4176 17.9409 15.4178 17.9467 15.4163 17.9521C15.4147 17.9576 15.4114 17.9623 15.4069 17.9657C15.0941 18.1457 14.7769 18.3171 14.4512 18.48C14.4298 18.4885 14.4126 18.4843 14.4041 18.4671C14.4823 18.2988 14.5454 18.1238 14.5926 17.9443C14.6184 17.9743 14.6441 17.9785 14.6784 17.9528L15.0684 17.6485C15.0941 17.6271 15.1541 17.6185 15.2398 17.6143H15.2355Z" fill="#FDAD19"/>
</svg>
