<svg width="24" height="24" viewBox="0 0 24 24" fill="none" xmlns="http://www.w3.org/2000/svg">
<path d="M11.9997 18.8571C15.7868 18.8571 18.8569 15.9732 18.8569 12.4157C18.8569 8.85818 15.7868 5.97425 11.9997 5.97425C8.21263 5.97425 5.14258 8.85818 5.14258 12.4157C5.14258 15.9732 8.21263 18.8571 11.9997 18.8571Z" fill="#3B5169"/>
<path d="M11.9997 18.4457C15.7868 18.4457 18.8569 15.4677 18.8569 11.7943C18.8569 8.12077 15.7868 5.14282 11.9997 5.14282C8.21263 5.14282 5.14258 8.12077 5.14258 11.7943C5.14258 15.4677 8.21263 18.4457 11.9997 18.4457Z" fill="#6389B0"/>
<path d="M11.9997 17.16C15.0769 17.16 17.5711 14.7514 17.5711 11.7857C17.5711 8.81996 15.0769 6.41139 11.9997 6.41139C8.92258 6.41139 6.42829 8.81996 6.42829 11.7857C6.42829 14.7514 8.92258 17.16 11.9997 17.16ZM11.9997 17.5714C15.3126 17.5714 17.9997 14.9828 17.9997 11.7857C17.9997 8.58854 15.3126 5.99997 11.9997 5.99997C8.68686 5.99997 5.99972 8.58854 5.99972 11.7857C5.99972 14.9828 8.68686 17.5714 11.9997 17.5714Z" fill="#E2E3E9"/>
<path d="M11.9997 17.1428C15.0767 17.1428 17.5711 14.7443 17.5711 11.7857C17.5711 8.82701 15.0767 6.42854 11.9997 6.42854C8.92271 6.42854 6.42829 8.82701 6.42829 11.7857C6.42829 14.7443 8.92271 17.1428 11.9997 17.1428Z" fill="url(#paint0_linear_101_6534)"/>
<path d="M9.85686 9.85711V9.71568H11.1426V9.85711H9.85686ZM12.4283 9.85711V9.71568H13.714V9.85711H12.4283ZM11.1426 11.3785V11.1685L11.7854 11.5843L12.4283 10.9628V11.1685L11.7854 11.7943L11.1426 11.3785ZM9.85686 10.5428L9.64258 10.3371L9.42829 11.3785H9.64258L9.85686 10.5471V10.5428ZM8.99972 13.8685L6.64258 11.5843V11.7943L9.08544 14.0785L9.29972 13.0371L9.85686 13.2471L11.1426 12.4157V12.2057L9.85686 13.0371C9.68544 12.8743 9.35544 12.8314 9.21401 12.8314L8.99972 13.8685ZM11.1426 16.4914V16.2857L11.9997 16.7014L12.8569 16.2857C12.7154 15.4543 12.6426 13.0371 14.3569 12.4157L14.5711 12.6214C13.4997 12.9985 12.6854 14.4557 12.8569 16.2857V16.4914L11.9997 16.9071L11.1426 16.4914ZM16.9283 11.5843V11.3785L14.5711 13.2428V13.4485L16.9283 11.58V11.5843Z" fill="#7D7F7C"/>
<path d="M11.1426 9.71568V11.1728L11.7854 11.5843L12.4283 10.9628V9.71568H13.714L11.5711 7.01568L9.85686 9.71568H11.1426ZM11.9997 16.7014L11.1426 16.2857C10.7997 12.7928 12.9983 11.2371 14.1426 10.9628L13.9283 10.1314L16.9283 11.3743L14.5711 13.2471L14.3569 12.4157C12.814 13.08 12.7154 15.3171 12.8569 16.2857L11.9997 16.7014ZM11.1426 12.2057L9.85686 13.0371C9.68544 12.8743 9.35544 12.8314 9.21401 12.8314L8.99972 13.8685L6.64258 11.5843L9.64258 10.3414L9.42829 11.3785C10.2854 11.3785 10.9283 11.9314 11.1426 12.2057Z" fill="#E3E3E3"/>
<defs>
<linearGradient id="paint0_linear_101_6534" x1="5.14258" y1="11.4733" x2="19.1206" y2="11.4733" gradientUnits="userSpaceOnUse">
<stop stop-color="#6D7ACE"/>
<stop offset="0.2" stop-color="#9971A3"/>
<stop offset="0.54" stop-color="#CA6664"/>
<stop offset="1" stop-color="#E95E1B"/>
</linearGradient>
</defs>
</svg>
