<svg width="24" height="24" viewBox="0 0 24 24" fill="none" xmlns="http://www.w3.org/2000/svg">
<path fill-rule="evenodd" clip-rule="evenodd" d="M11.9997 18C15.3134 18 17.9997 15.3137 17.9997 12C17.9997 8.68625 15.3134 5.99997 11.9997 5.99997C8.68601 5.99997 5.99972 8.68625 5.99972 12C5.99972 15.3137 8.68601 18 11.9997 18ZM11.9997 18.8571C15.787 18.8571 18.8569 15.7873 18.8569 12C18.8569 8.21268 15.787 5.14282 11.9997 5.14282C8.21244 5.14282 5.14258 8.21268 5.14258 12C5.14258 15.7873 8.21244 18.8571 11.9997 18.8571Z" fill="black"/>
<path d="M11.9997 12.8571C12.4731 12.8571 12.8569 12.4734 12.8569 12C12.8569 11.5266 12.4731 11.1428 11.9997 11.1428C11.5263 11.1428 11.1426 11.5266 11.1426 12C11.1426 12.4734 11.5263 12.8571 11.9997 12.8571Z" fill="#0C0E15"/>
</svg>
