<svg width="24" height="24" viewBox="0 0 24 24" fill="none" xmlns="http://www.w3.org/2000/svg">
<path d="M5.57129 12.0001C5.57129 11.6591 5.70675 11.3321 5.94787 11.0909C6.18898 10.8498 6.51601 10.7144 6.857 10.7144C7.198 10.7144 7.52502 10.8498 7.76614 11.0909C8.00726 11.3321 8.14272 11.6591 8.14272 12.0001C8.14272 12.3411 8.00726 12.6681 7.76614 12.9092C7.52502 13.1503 7.198 13.2858 6.857 13.2858C6.51601 13.2858 6.18898 13.1503 5.94787 12.9092C5.70675 12.6681 5.57129 12.3411 5.57129 12.0001ZM10.7141 12.0001C10.7141 11.6591 10.8496 11.3321 11.0907 11.0909C11.3318 10.8498 11.6589 10.7144 11.9999 10.7144C12.3409 10.7144 12.6679 10.8498 12.909 11.0909C13.1501 11.3321 13.2856 11.6591 13.2856 12.0001C13.2856 12.3411 13.1501 12.6681 12.909 12.9092C12.6679 13.1503 12.3409 13.2858 11.9999 13.2858C11.6589 13.2858 11.3318 13.1503 11.0907 12.9092C10.8496 12.6681 10.7141 12.3411 10.7141 12.0001ZM17.1427 10.7144C16.8017 10.7144 16.4747 10.8498 16.2336 11.0909C15.9925 11.3321 15.857 11.6591 15.857 12.0001C15.857 12.3411 15.9925 12.6681 16.2336 12.9092C16.4747 13.1503 16.8017 13.2858 17.1427 13.2858C17.4837 13.2858 17.8107 13.1503 18.0519 12.9092C18.293 12.6681 18.4284 12.3411 18.4284 12.0001C18.4284 11.6591 18.293 11.3321 18.0519 11.0909C17.8107 10.8498 17.4837 10.7144 17.1427 10.7144Z" fill="url(#paint0_linear_101_7018)"/>
<defs>
<linearGradient id="paint0_linear_101_7018" x1="17.1427" y1="10.7144" x2="17.1427" y2="13.2858" gradientUnits="userSpaceOnUse">
<stop stop-color="#B8B8B8"/>
<stop offset="1" stop-color="white"/>
</linearGradient>
</defs>
</svg>
