<svg width="24" height="24" viewBox="0 0 24 24" fill="none" xmlns="http://www.w3.org/2000/svg">
<path fill-rule="evenodd" clip-rule="evenodd" d="M17.4512 6.53997C16.0031 5.09416 14.04 4.28282 11.9937 4.28443C9.94738 4.28603 7.98554 5.10046 6.53973 6.54854C5.09392 7.99662 4.28257 9.95974 4.28418 12.006C4.28579 14.0523 5.10022 16.0142 6.5483 17.46C7.99638 18.9058 9.9595 19.7171 12.0058 19.7155C14.0521 19.7139 16.0139 18.8995 17.4597 17.4514C18.9055 16.0033 19.7169 14.0402 19.7153 11.9939C19.7137 9.94762 18.8992 7.98578 17.4512 6.53997ZM11.5712 18.8571C9.8209 18.7714 8.17093 18.0147 6.96401 16.7443C5.77164 15.4545 5.11968 13.7563 5.14258 12C5.11858 10.2422 5.77062 8.54225 6.96401 7.2514C8.17163 5.98251 9.82151 5.2274 11.5712 5.14283V7.70997C10.5073 7.80753 9.51897 8.30167 8.80258 9.09426C8.08844 9.8922 7.69994 10.9292 7.71401 12C7.71401 13.0714 8.0783 14.1085 8.80258 14.9014C9.53116 15.6985 10.4997 16.1871 11.5712 16.2857V18.8571ZM17.0226 16.7443C15.8097 18.03 14.194 18.7543 12.4283 18.8571V16.2857C13.2253 16.2091 13.9851 15.9117 14.6222 15.4269C15.2594 14.9421 15.7487 14.2891 16.035 13.5414C16.3214 12.7937 16.3934 11.981 16.2431 11.1946C16.0927 10.4082 15.726 9.67931 15.184 9.08997C14.4712 8.30105 13.4872 7.80981 12.4283 7.71426V5.14283C13.7362 5.2017 14.9986 5.63988 16.0617 6.40392C17.1249 7.16796 17.9427 8.22485 18.4154 9.44569C18.9012 10.6688 19.0281 12.005 18.7814 13.2977C18.5347 14.5904 17.9246 15.786 17.0226 16.7443ZM11.9997 15.4285C12.909 15.4285 13.7811 15.0673 14.4241 14.4243C15.0671 13.7814 15.4283 12.9093 15.4283 12C15.4283 11.0907 15.0671 10.2186 14.4241 9.5756C13.7811 8.93262 12.909 8.5714 11.9997 8.5714C11.0904 8.5714 10.2183 8.93262 9.57536 9.5756C8.93238 10.2186 8.57116 11.0907 8.57116 12C8.57116 12.9093 8.93238 13.7814 9.57536 14.4243C10.2183 15.0673 11.0904 15.4285 11.9997 15.4285Z" fill="url(#paint0_linear_101_7094)"/>
<defs>
<linearGradient id="paint0_linear_101_7094" x1="4.60258" y1="15.3343" x2="19.144" y2="8.39569" gradientUnits="userSpaceOnUse">
<stop stop-color="#2D9DFD"/>
<stop offset="1" stop-color="#36D5FD"/>
</linearGradient>
</defs>
</svg>
