<svg width="24" height="24" viewBox="0 0 24 24" fill="none" xmlns="http://www.w3.org/2000/svg">
<path d="M11.9997 18.8571C15.7868 18.8571 18.8569 15.7871 18.8569 12C18.8569 8.21287 15.7868 5.14282 11.9997 5.14282C8.21263 5.14282 5.14258 8.21287 5.14258 12C5.14258 15.7871 8.21263 18.8571 11.9997 18.8571Z" fill="url(#paint0_linear_101_7122)"/>
<path d="M6.55687 16.17C5.63782 14.9743 5.14052 13.508 5.14258 12C5.14258 10.4571 5.65258 9.03425 6.51401 7.88568H8.37401C8.81973 7.91568 9.8483 8.02282 10.3969 8.24568C10.4183 8.03139 10.5683 7.55139 11.0054 7.37997C11.554 7.16568 11.7426 7.16568 12.7969 7.16568C13.3754 7.16568 13.8512 7.19568 14.2797 7.22139C14.6354 7.24282 14.9654 7.26425 15.2912 7.26425C15.8697 7.26425 16.3626 7.07139 16.534 6.97282C16.4119 7.24687 16.2219 7.4852 15.9819 7.6652C15.7419 7.84521 15.4599 7.96093 15.1626 8.00139C14.9483 8.03568 14.7126 8.06139 14.4769 8.08711C13.6069 8.18568 12.7369 8.27997 12.6469 8.70425C12.5569 9.13282 12.8269 9.68997 12.9769 9.92139C13.1483 10.2214 13.4654 10.9414 13.384 11.4471C13.3326 11.7643 13.2983 11.9143 13.2726 12.0043C13.2509 12.069 13.2436 12.1378 13.2512 12.2057C13.264 12.3343 13.6154 13.5171 13.7912 14.0914C13.8769 14.19 14.0697 14.4257 14.1597 14.5885C14.2754 14.79 14.3826 15.1243 14.0869 15.7885C13.7869 16.4571 13.0797 16.98 12.4454 16.98C12.0554 16.98 11.8626 16.74 11.6997 16.53C11.5969 16.4014 11.5026 16.2857 11.3783 16.2428C11.3097 16.2171 11.1854 16.1957 11.0183 16.1657C10.3797 16.0457 9.16687 15.8228 8.54544 15.0728C8.12116 15.2443 7.18258 15.6943 6.55687 16.17Z" fill="#37C0D2"/>
<defs>
<linearGradient id="paint0_linear_101_7122" x1="11.9997" y1="5.14282" x2="11.9997" y2="18.8571" gradientUnits="userSpaceOnUse">
<stop stop-color="#0B2E30"/>
<stop offset="1"/>
</linearGradient>
</defs>
</svg>
