<svg width="24" height="24" viewBox="0 0 24 24" fill="none" xmlns="http://www.w3.org/2000/svg">
<path d="M5.35846 8.2693L11.9945 4.53345L18.6305 8.2693V15.7329L11.9945 19.4687L5.35846 15.7329V8.2693Z" fill="black"/>
<path d="M7.9286 9.75988L11.9983 7.54159L16.0715 9.83316V14.3152L11.9906 16.4619L7.9286 14.3156V9.75988Z" fill="black"/>
<path d="M9.21431 10.503L12 8.91002L14.7857 10.5034V13.5446L12.0022 15.2117L9.21431 13.5446V10.503Z" fill="black"/>
<path d="M11.6336 5.44888V6.17488L6.93003 8.76602L6.2426 8.42488L11.6336 5.44888ZM12.3562 5.44888V6.18645L17.0572 8.77802L17.7476 8.42488L12.3562 5.44888Z" fill="url(#paint0_linear_101_7178)"/>
<path d="M12.3403 18.5156V17.8114L17.0237 15.1843L17.7515 15.5734L12.3403 18.5156ZM11.6336 18.5344V17.8269L6.95788 15.2126L6.25031 15.5644L11.6336 18.5344Z" fill="url(#paint1_linear_101_7178)"/>
<path d="M11.997 4.54888L11.6409 5.45316L6.2426 8.4343V7.75116L11.9953 4.54459L11.9945 4.54245L11.9966 4.54373L12 4.54159L11.9987 4.54502L17.7476 7.70745L17.7373 8.42402L12.3592 5.45316L11.997 4.54888Z" fill="url(#paint2_linear_101_7178)"/>
<path d="M12.0017 19.4366L11.6345 18.5177L6.25246 15.555V16.2759L12.0009 19.4392L12 19.4417L12.0026 19.4404L17.7472 16.2759V15.5687L12.3403 18.5087L12.0017 19.4366Z" fill="url(#paint3_linear_101_7178)"/>
<path d="M11.6263 5.4643L11.9979 4.54288L12.357 5.44588V6.16588L12.0112 5.97902L11.6263 6.17873V5.4643Z" fill="#998968"/>
<path d="M11.6263 18.5079L12.0013 19.4409L12.3403 18.5087L12.3399 17.8174L11.973 18.0167L11.6263 17.8174V18.5079Z" fill="#84E2F0"/>
<path d="M5.32846 8.27916L6.25074 7.74645V8.4223L5.32846 8.27916Z" fill="#69456B"/>
<path d="M18.6497 8.26845L17.7455 7.70745L17.7339 8.42059L18.6497 8.26845Z" fill="#684872"/>
<path d="M18.6699 15.7149L17.7472 16.2476V15.5837L18.6699 15.7149Z" fill="#617ED5"/>
<path d="M5.32031 15.7054L6.26274 16.2844V15.5709L5.32031 15.7054Z" fill="#627ED5"/>
<path d="M5.86117 8.59673L5.33017 8.2783L6.25117 8.41759L5.86117 8.59673Z" fill="#6A7384"/>
<path d="M18.114 8.58988L18.6442 8.2693L17.7305 8.40731L18.114 8.58988Z" fill="#916790"/>
<path d="M5.65331 8.68716L5.32846 8.27916L5.86931 8.58988L5.65331 8.68716Z" fill="#89618B"/>
<path d="M18.3163 8.68373L18.6497 8.26845L18.114 8.58302L18.3163 8.68373Z" fill="#554766"/>
<path d="M6.23317 8.41588L6.94374 8.76473L6.58374 8.97216L6.42774 9.36816L6.00003 9.01888V15.0034L5.32717 15.714V8.2843L5.65846 8.67988L6.23317 8.41588Z" fill="#484669"/>
<path d="M17.7386 8.41073L17.0276 8.75959L17.3876 8.96702V9.35359L18.0005 8.96702V15.0064L18.6699 15.7179L18.6442 8.27873L18.3129 8.67473L17.7386 8.41073Z" fill="#4D4868"/>
<path d="M6.4286 9.36173L6.00003 8.99745L6.00003 15.0034L5.33403 15.7016L6.4286 15.1436V9.36173Z" fill="#373752"/>
<path d="M17.5715 9.22159L18 8.94988V14.9816L18.6682 15.7166L17.5715 15.0939V9.22159Z" fill="#3C374D"/>
<path d="M7.28574 9.34288L6.4286 8.86288V15.1616L7.28574 14.6529V9.34288Z" fill="url(#paint4_linear_101_7178)"/>
<path d="M16.7143 9.33002L17.5715 8.87488V15.1166L16.7143 14.6464V9.33002Z" fill="url(#paint5_linear_101_7178)"/>
<path d="M7.71431 9.60988L7.28574 9.34588V14.6614L7.71431 14.4064V9.60988Z" fill="#7474D5"/>
<path d="M16.2857 9.71316L16.7143 9.33902V14.655L16.2857 14.4056V9.71316Z" fill="url(#paint6_linear_101_7178)"/>
<path d="M6.93988 9.15645L6.58588 8.94988L12 5.96873L17.406 8.96316L17.0675 9.19073L12 6.3043L6.93988 9.15645Z" fill="#F1B8C7"/>
<path d="M7.71474 9.63602L6.92488 9.14616L12 6.2833L17.0649 9.19073L16.2862 9.71445L12 7.30245L7.71474 9.63602Z" fill="#EC68F2"/>
<path d="M7.71174 14.3949L6.62446 15.0347L11.976 18.024L17.3893 14.9906L16.281 14.3949L11.9966 16.6894L7.71174 14.3949Z" fill="url(#paint7_linear_101_7178)"/>
<path d="M9.00003 10.4032L8.10646 9.8443L12 7.7143L15.8649 9.85373L15.0009 10.4036L12 8.68073L9.00003 10.4032Z" fill="url(#paint8_linear_101_7178)"/>
<path d="M8.99746 13.6487L8.14288 14.2316L11.9735 16.2664L15.8533 14.2299L15 13.6487L11.9735 15.4552L8.99746 13.6487Z" fill="url(#paint9_linear_101_7178)"/>
<path d="M8.14288 9.85716L9.00003 10.4032L9.00003 13.6646L8.14288 14.2359V9.85716ZM15.8572 9.85716L15.0009 10.4036L15 13.6646L15.8572 14.2359V9.85716Z" fill="url(#paint10_linear_101_7178)"/>
<path d="M12 9.13416L9.4286 10.5664L10.3835 11.1004L12 10.2274L13.6076 11.1004L14.5715 10.5664L12 9.13416Z" fill="#B3BED9"/>
<path d="M9.4286 13.4332V10.5519L10.395 11.1146H13.605L14.5715 10.5519V13.4332L13.0183 14.3542H10.9989L9.4286 13.4332Z" fill="#5D6675"/>
<path d="M10.2857 11.0944L12.009 10.146L13.7143 11.0944V12.9737L12.9575 13.4087L13.2947 15.81L12.009 16.5236L10.7053 15.81L11.079 13.4087L10.2857 12.9737V11.0944Z" fill="black"/>
<path d="M17.0272 15.1907L17.3919 14.9872L18.6695 15.7166L17.7485 15.5936L17.0272 15.1907Z" fill="#5C75B4"/>
<path d="M6.96388 15.2186L6.63046 15.0283L5.3276 15.7016L6.24988 15.5812L6.96388 15.2186Z" fill="#5673B4"/>
<defs>
<linearGradient id="paint0_linear_101_7178" x1="18.3954" y1="17.8152" x2="5.77756" y2="17.8303" gradientUnits="userSpaceOnUse">
<stop stop-color="#56375D"/>
<stop offset="0.5" stop-color="#887562"/>
<stop offset="1" stop-color="#56375D"/>
</linearGradient>
<linearGradient id="paint1_linear_101_7178" x1="5.57302" y1="5.80974" x2="18.5396" y2="5.80974" gradientUnits="userSpaceOnUse">
<stop stop-color="#5169A6"/>
<stop offset="0.493" stop-color="#6DBAC2"/>
<stop offset="1" stop-color="#5169A6"/>
</linearGradient>
<linearGradient id="paint2_linear_101_7178" x1="18.6699" y1="16.8461" x2="5.48219" y2="16.8638" gradientUnits="userSpaceOnUse">
<stop stop-color="#67496B"/>
<stop offset="0.513" stop-color="#9F8B6C"/>
<stop offset="1" stop-color="#67496B"/>
</linearGradient>
<linearGradient id="paint3_linear_101_7178" x1="5.32031" y1="6.2577" x2="18.6703" y2="6.28072" gradientUnits="userSpaceOnUse">
<stop stop-color="#617BD5"/>
<stop offset="0.494" stop-color="#7FE0E1"/>
<stop offset="1" stop-color="#617BD5"/>
</linearGradient>
<linearGradient id="paint4_linear_101_7178" x1="11.9951" y1="4.79157" x2="11.9951" y2="19.1293" gradientUnits="userSpaceOnUse">
<stop stop-color="#9466BC"/>
<stop offset="0.466" stop-color="#6564C1"/>
<stop offset="1" stop-color="#6B81D3"/>
</linearGradient>
<linearGradient id="paint5_linear_101_7178" x1="11.9951" y1="4.7488" x2="11.9951" y2="19.2175" gradientUnits="userSpaceOnUse">
<stop stop-color="#7337A4"/>
<stop offset="0.471" stop-color="#3B39B8"/>
<stop offset="1" stop-color="#375FB2"/>
</linearGradient>
<linearGradient id="paint6_linear_101_7178" x1="11.9951" y1="4.53345" x2="11.9951" y2="19.4687" gradientUnits="userSpaceOnUse">
<stop stop-color="#6A37A7"/>
<stop offset="0.504" stop-color="#3A3BB7"/>
<stop offset="1" stop-color="#375AB2"/>
</linearGradient>
<linearGradient id="paint7_linear_101_7178" x1="18.1831" y1="6.03086" x2="5.93554" y2="6.04735" gradientUnits="userSpaceOnUse">
<stop stop-color="#887AF6"/>
<stop offset="0.509" stop-color="#96A7D5"/>
<stop offset="1" stop-color="#887AF6"/>
</linearGradient>
<linearGradient id="paint8_linear_101_7178" x1="5.96777" y1="17.2219" x2="18.2732" y2="17.2219" gradientUnits="userSpaceOnUse">
<stop stop-color="#2B313A"/>
<stop offset="0.491" stop-color="#4B505E"/>
<stop offset="1" stop-color="#2B313A"/>
</linearGradient>
<linearGradient id="paint9_linear_101_7178" x1="12.0103" y1="19.9822" x2="12.0103" y2="4.63859" gradientUnits="userSpaceOnUse">
<stop stop-color="#5A6271"/>
<stop offset="1" stop-color="#798194"/>
</linearGradient>
<linearGradient id="paint10_linear_101_7178" x1="5.25727" y1="12.0018" x2="18.7544" y2="12.0018" gradientUnits="userSpaceOnUse">
<stop/>
<stop offset="0.127" stop-color="#282E36"/>
<stop offset="0.872" stop-color="#282E36"/>
<stop offset="1"/>
</linearGradient>
</defs>
</svg>
