<svg width="24" height="24" viewBox="0 0 24 24" fill="none" xmlns="http://www.w3.org/2000/svg">
<mask id="mask0_101_7252" style="mask-type:alpha" maskUnits="userSpaceOnUse" x="5" y="5" width="14" height="14">
<path d="M7.14818 7.14861C8.43604 5.86414 10.1807 5.14282 11.9996 5.14282C13.8185 5.14282 15.5632 5.86414 16.851 7.14861C18.1355 8.43646 18.8568 10.1811 18.8568 12C18.8568 13.8189 18.1355 15.5636 16.851 16.8515C15.5632 18.1359 13.8185 18.8573 11.9996 18.8573C10.1807 18.8573 8.43604 18.1359 7.14818 16.8515C5.86267 15.5642 5.14063 13.8193 5.14062 12C5.14062 10.1808 5.86267 8.43591 7.14818 7.14861ZM16.7353 16.7358C19.3496 14.1215 19.3496 9.87861 16.7353 7.26433C14.121 4.65004 9.87818 4.65004 7.2639 7.26433C4.64961 9.87861 4.64961 14.1215 7.2639 16.7358C9.87818 19.35 14.121 19.35 16.7353 16.7358Z" fill="#414FA2"/>
<path d="M7.72681 7.72706C9.04253 6.40706 10.5254 5.63135 12.0125 5.48563C13.6625 5.32706 15.2697 5.97421 16.6497 7.35421C18.0297 8.73421 18.6725 10.3371 18.514 11.9871C18.3682 13.4699 17.5925 14.9528 16.2725 16.2728C14.9525 17.5928 13.4697 18.3685 11.9868 18.5142C10.3368 18.6728 8.73824 18.0299 7.35824 16.6499C5.97396 15.2656 5.32681 13.6628 5.48539 12.0128C5.6311 10.5256 6.40681 9.04278 7.72681 7.72706ZM16.1568 16.1571C18.3468 13.9713 19.5982 10.5342 16.534 7.46992C13.4654 4.40135 10.0325 5.64849 7.83824 7.84278C5.65253 10.0285 4.4011 13.4656 7.46967 16.5342C10.534 19.5985 13.9668 18.3471 16.1568 16.1571Z" fill="#414FA2"/>
<path d="M8.30111 8.30139C9.33826 7.26424 10.594 6.15853 12.0211 5.8371C13.504 5.50281 14.9525 6.06853 16.444 7.55996C17.9397 9.05138 18.5011 10.5 18.1668 11.9785C17.8411 13.4014 16.7354 14.6571 15.694 15.6942C14.6568 16.7357 13.4011 17.8414 11.9783 18.1628C10.4997 18.5014 9.0554 17.94 7.56397 16.4485C6.06397 14.9485 5.50683 13.5042 5.83683 12.0214C6.15826 10.5942 7.26397 9.33853 8.30111 8.30139ZM15.5783 15.5785C18.1754 12.9814 19.2983 10.6457 16.3283 7.67567C13.354 4.70138 11.014 5.81996 8.41683 8.4171C5.81968 11.0142 4.70111 13.3542 7.6754 16.3285C10.6454 19.2985 12.9811 18.18 15.5783 15.5785Z" fill="url(#paint0_linear_101_7252)"/>
<path d="M7.64988 10.0758C7.84273 9.88298 8.03988 9.69012 8.24559 9.49726C8.66988 9.08583 9.08559 8.67012 9.49702 8.24155C10.6027 7.09298 11.6527 6.00441 12.9899 5.99155C13.9756 5.98298 15.0384 6.56155 16.247 7.76584C17.447 8.96584 18.0256 10.0287 18.0127 11.0101C17.9999 12.3387 16.9156 13.3844 15.7713 14.4816C15.3342 14.9058 14.9056 15.3301 14.4856 15.7673C13.3842 16.9158 12.3427 17.9958 11.0142 18.013C10.0284 18.0215 8.96988 17.443 7.76559 16.243C6.56559 15.043 5.98273 13.9715 5.9913 12.9858C6.00416 11.8844 6.7413 10.9801 7.64988 10.0758ZM8.9913 8.99155C8.7813 9.20583 8.56273 9.41155 8.35702 9.61298C7.22988 10.6973 6.16702 11.7215 6.15416 12.9901C6.14559 13.933 6.7113 14.9573 7.8813 16.1273C9.0513 17.2973 10.0713 17.8587 11.0099 17.8501C12.2699 17.8373 13.2899 16.7787 14.3656 15.6558C14.7856 15.2187 15.2184 14.7901 15.6556 14.3701C16.7784 13.2901 17.837 12.2701 17.8499 11.0101C17.8584 10.0715 17.2927 9.05155 16.127 7.88155C14.957 6.71155 13.9284 6.14583 12.9899 6.15441C11.7213 6.16726 10.697 7.23012 9.61273 8.35726C9.4113 8.56726 9.20559 8.78583 8.9913 8.99155Z" fill="#414FA2"/>
<path d="M11.5201 6.97721C11.9401 6.55292 12.3986 6.25721 12.9515 6.21863C13.8086 6.16292 14.7901 6.72006 16.0372 7.97578C17.2886 9.21863 17.8458 10.2043 17.7858 11.0529C17.7215 12.0258 16.8343 12.6986 15.9001 13.4101C15.4221 13.756 14.9682 14.134 14.5415 14.5415C14.1338 14.9665 13.7557 15.419 13.4101 15.8958C12.6986 16.8386 12.0258 17.7215 11.0529 17.7858C10.2001 17.8458 9.22292 17.2886 7.97149 16.0415C6.72006 14.7858 6.16292 13.8043 6.21863 12.9515C6.28292 11.9701 7.17435 11.2929 8.11292 10.5772C8.58459 10.2332 9.03273 9.85811 9.45435 9.45435C9.87006 9.03863 10.2258 8.56721 10.5772 8.11292C10.8901 7.70149 11.1943 7.30292 11.5201 6.97721ZM16.9286 12.3429C17.3229 11.9529 17.5843 11.5415 17.6186 11.0401C17.6743 10.2515 17.1172 9.28292 15.9215 8.08721C14.7215 6.88721 13.7529 6.33006 12.9558 6.38149C12.0515 6.44149 11.4258 7.26435 10.7015 8.21149C10.3501 8.67006 9.99006 9.14578 9.56578 9.57006C9.13721 9.99435 8.66578 10.3543 8.20721 10.7058C7.25578 11.4301 6.43721 12.0558 6.37721 12.9601C6.32578 13.7572 6.88292 14.7258 8.08292 15.9258C9.28292 17.1258 10.2472 17.6786 11.0401 17.6229C11.9401 17.5629 12.5572 16.7443 13.2772 15.7972C13.6286 15.3343 13.9929 14.8543 14.4215 14.4258C14.8501 13.9972 15.3301 13.6329 15.7929 13.2815C16.2172 12.9601 16.6158 12.6601 16.9286 12.3429Z" fill="#414FA2"/>
<path d="M6.84825 12.0985C7.27402 11.7298 7.75025 11.4239 8.26254 11.1899C8.88825 10.8599 9.53968 10.5214 10.0283 10.0328C10.5211 9.53992 10.8597 8.88849 11.1897 8.25849C11.6525 7.37992 12.0897 6.55278 12.8568 6.43707C13.5897 6.32564 14.5368 6.87849 15.8354 8.17707C17.134 9.47135 17.6868 10.4142 17.5711 11.1428C17.4554 11.9099 16.6283 12.3428 15.7454 12.7971C15.1111 13.1228 14.4597 13.4656 13.9625 13.9585C13.4697 14.4514 13.1311 15.1071 12.8011 15.7414C12.3425 16.6199 11.914 17.4514 11.1511 17.5671C10.4225 17.6828 9.47539 17.1299 8.17682 15.8314C6.87825 14.5328 6.32539 13.5856 6.43682 12.8485C6.47968 12.5571 6.62968 12.3128 6.84825 12.0942V12.0985ZM10.1483 10.1442C9.63397 10.6542 8.97397 11.0014 8.33539 11.3356C7.46111 11.7942 6.70682 12.1928 6.59968 12.8785C6.49682 13.5514 7.04968 14.4771 8.29254 15.7199C9.53539 16.9628 10.4611 17.5156 11.1211 17.4128C11.8068 17.3056 12.2011 16.5471 12.6554 15.6728C12.9897 15.0256 13.3368 14.3571 13.8468 13.8471C14.3611 13.3328 15.0254 12.9899 15.6725 12.6556C16.5468 12.1971 17.3054 11.8071 17.4125 11.1256C17.5154 10.4571 16.9625 9.53135 15.724 8.29278C14.4811 7.04992 13.5511 6.49278 12.8825 6.59564C12.1968 6.70278 11.7983 7.46135 11.3397 8.33564C10.9968 8.9785 10.654 9.63849 10.144 10.1442H10.1483Z" fill="#414FA2"/>
<path d="M6.88689 12.3257C7.22975 11.9829 7.85975 11.79 8.51547 11.5929C9.29546 11.3571 10.1012 11.1129 10.6069 10.6071C11.1126 10.1014 11.3569 9.29571 11.5926 8.51571C11.8583 7.63285 12.1112 6.80142 12.7412 6.64285C13.3712 6.48428 14.2883 7.03714 15.634 8.38285C16.9755 9.72428 17.5283 10.6414 17.3698 11.2671C17.2112 11.8929 16.3755 12.1414 15.4883 12.4029C14.704 12.6343 13.894 12.8743 13.3883 13.3886C12.874 13.8943 12.634 14.7043 12.4026 15.4886C12.1369 16.3757 11.8883 17.2114 11.2626 17.37C10.6412 17.5286 9.71975 16.9757 8.38261 15.6343C7.03689 14.2886 6.48404 13.3714 6.64261 12.7414C6.68546 12.5829 6.77118 12.4414 6.88689 12.3257ZM17.014 11.5543C17.1083 11.46 17.1769 11.3529 17.2112 11.2243C17.3526 10.6671 16.7998 9.77571 15.5183 8.49857C14.2326 7.21285 13.3412 6.65999 12.7798 6.80142C12.2398 6.93857 12.004 7.72714 11.7512 8.56285C11.5155 9.32571 11.254 10.1871 10.7226 10.7229C10.1869 11.2543 9.32546 11.5157 8.56261 11.7514C7.72689 12 6.93404 12.24 6.80546 12.78C6.65975 13.3371 7.21689 14.2371 8.49832 15.5186C9.77975 16.7957 10.6712 17.3486 11.224 17.2114C11.7598 17.0743 11.9955 16.2814 12.244 15.4457C12.4755 14.6743 12.7326 13.8086 13.2726 13.2686C13.8083 12.7329 14.6783 12.4757 15.4455 12.2443C16.0883 12.0557 16.6969 11.8714 17.014 11.5586V11.5543Z" fill="#414FA2"/>
<path d="M12.3766 6.99002C12.4451 6.92145 12.5266 6.87002 12.6209 6.84002C13.1652 6.64716 14.0309 7.18717 15.4323 8.58859C16.8294 9.98574 17.3652 10.8515 17.1766 11.3915C16.988 11.9229 16.148 12.0129 15.1751 12.12C14.2966 12.2143 13.298 12.3172 12.8094 12.8057C12.3166 13.2986 12.2094 14.2972 12.1151 15.18C12.0123 16.1486 11.9223 16.9886 11.3866 17.1772C10.8466 17.3657 9.98515 16.83 8.58801 15.4329C7.18658 14.0314 6.64658 13.1615 6.83515 12.6215C7.02372 12.0857 7.86372 11.9915 8.82801 11.88C9.70229 11.7815 10.6923 11.67 11.1852 11.1815C11.6694 10.6929 11.7809 9.70288 11.8794 8.83288C11.9694 8.03145 12.0509 7.32002 12.3766 6.99002ZM16.9109 11.5072C16.9623 11.4557 16.9966 11.4 17.0223 11.3357C17.1852 10.8729 16.6237 10.0157 15.3166 8.70431C14.0009 7.38859 13.1351 6.83145 12.6723 6.99002C12.2351 7.14431 12.1409 7.97574 12.0423 8.85002C11.9394 9.75002 11.828 10.77 11.2966 11.2972C10.7694 11.8243 9.74944 11.94 8.84944 12.0429C7.97086 12.1415 7.14372 12.2357 6.99372 12.6729C6.83086 13.1357 7.38801 14.0015 8.70372 15.3172C10.0151 16.6243 10.8723 17.1857 11.3352 17.0229C11.7723 16.8686 11.858 16.0372 11.9523 15.1586C12.0509 14.25 12.1623 13.2215 12.6894 12.69C13.2209 12.1586 14.2494 12.0472 15.158 11.9529C15.908 11.8757 16.6194 11.7986 16.9109 11.5072Z" fill="#414FA2"/>
<path d="M12.342 7.12289C12.3848 7.08003 12.4277 7.04574 12.4834 7.02003C12.9506 6.81431 13.7948 7.36289 15.2263 8.79432C16.6534 10.2215 17.1977 11.0657 16.9963 11.5243C16.782 11.9957 15.8777 11.9529 14.8277 11.8929C13.8206 11.8415 12.6848 11.7815 12.2306 12.2315C11.7806 12.6815 11.8406 13.8215 11.892 14.8243C11.9477 15.8786 11.9991 16.7829 11.5277 16.9972C11.0648 17.2029 10.2206 16.6543 8.79342 15.2272C7.36199 13.7957 6.8177 12.9515 7.02342 12.4843C7.23342 12.0129 8.1377 12.0557 9.18342 12.1072C10.1777 12.15 11.3091 12.2057 11.7548 11.7557C12.2091 11.3057 12.1534 10.1786 12.1063 9.18432C12.0634 8.25432 12.0206 7.44003 12.342 7.12289ZM16.782 11.55C16.809 11.5245 16.8309 11.4939 16.8463 11.46C17.0134 11.0829 16.4306 10.2257 15.1106 8.91003C13.7906 7.59003 12.9291 7.00289 12.552 7.17003C12.1791 7.33717 12.2263 8.27146 12.2691 9.17574C12.3206 10.2557 12.372 11.3743 11.8706 11.8757C11.3734 12.3729 10.2548 12.3215 9.17056 12.27C8.27056 12.2272 7.33627 12.1843 7.16913 12.5529C7.00199 12.93 7.58913 13.7957 8.90913 15.1115C10.2248 16.4315 11.082 17.0143 11.4591 16.8472C11.8277 16.68 11.7763 15.7415 11.7291 14.8329C11.6691 13.7443 11.6091 12.6172 12.1148 12.1157C12.6163 11.61 13.7434 11.67 14.832 11.73C15.6591 11.7729 16.512 11.8157 16.782 11.55Z" fill="#414FA2"/>
</mask>
<g mask="url(#mask0_101_7252)">
<path d="M12.0426 22.6844C18.1283 22.6844 23.0569 17.7387 23.0569 11.6401C23.0592 10.1915 22.7761 8.75653 22.2238 7.41727C21.6715 6.07802 20.8608 4.86066 19.838 3.8347C18.8152 2.80875 17.6004 1.99429 16.2629 1.43783C14.9253 0.881366 13.4913 0.593802 12.0426 0.591553C10.594 0.593802 9.15991 0.881366 7.82238 1.43783C6.48484 1.99429 5.27001 2.80875 4.24724 3.8347C3.22447 4.86066 2.41379 6.07802 1.86149 7.41727C1.30919 8.75653 1.02608 10.1915 1.02833 11.6401" fill="url(#paint1_linear_101_7252)"/>
</g>
<defs>
<linearGradient id="paint0_linear_101_7252" x1="450.279" y1="262.406" x2="262.444" y2="450.257" gradientUnits="userSpaceOnUse">
<stop offset="1" stop-color="#414FA2"/>
</linearGradient>
<linearGradient id="paint1_linear_101_7252" x1="17.7169" y1="5.97012" x2="6.35976" y2="17.2973" gradientUnits="userSpaceOnUse">
<stop stop-color="#EE4492"/>
<stop offset="1" stop-color="#414FA2"/>
</linearGradient>
</defs>
</svg>
