<svg width="24" height="24" viewBox="0 0 24 24" fill="none" xmlns="http://www.w3.org/2000/svg">
<path d="M11.8718 9.43269C11.6918 9.37269 11.5333 9.26555 11.409 9.11984C10.9718 8.60555 10.4533 7.98412 9.85328 7.25126C9.36042 6.64698 8.77328 6.04698 7.95042 6.00412C7.31108 5.96153 6.67947 6.16367 6.18366 6.56955C5.68785 6.97544 5.36494 7.55468 5.28042 8.18984C4.98042 10.007 4.68042 11.8241 4.39328 13.6413C4.33612 13.9484 4.30032 14.2592 4.28613 14.5713C4.28612 14.91 4.35325 15.2454 4.48365 15.558C4.61405 15.8706 4.80513 16.1543 5.04584 16.3926C5.28656 16.631 5.57213 16.8192 5.88604 16.9465C6.19996 17.0737 6.53599 17.1375 6.8747 17.1341C7.49013 17.1073 8.07574 16.8616 8.526 16.4412C8.97625 16.0208 9.26153 15.4534 9.33042 14.8413H9.32185L9.31328 14.837C8.90957 14.8142 8.52546 14.6555 8.2234 14.3867C7.92134 14.1179 7.7191 13.7548 7.64957 13.3565C7.58003 12.9581 7.6473 12.548 7.84043 12.1928C8.03355 11.8375 8.34118 11.5581 8.71328 11.3998C9.55756 11.0398 10.4876 11.4341 10.899 12.2655C11.0264 12.589 11.0918 12.9336 11.0918 13.2813L11.1047 13.2898H12.7761C12.7933 13.2898 12.8018 13.2813 12.8104 13.2727C12.8203 13.2639 12.8265 13.2516 12.8276 13.2384C12.8704 12.2655 13.5004 11.2841 14.499 11.2541C14.831 11.2521 15.1566 11.3455 15.437 11.5233C15.7174 11.7011 15.9407 11.9558 16.0804 12.257C16.5861 13.3713 15.909 14.6827 14.7047 14.8155C14.6747 14.8155 14.6618 14.837 14.6618 14.867C14.8804 16.2941 16.0761 17.3184 17.5033 17.1255C17.8439 17.0766 18.1713 16.96 18.4661 16.7827C18.761 16.6053 19.0174 16.3708 19.2203 16.0928C19.4232 15.8149 19.5684 15.4992 19.6474 15.1642C19.7264 14.8293 19.7376 14.482 19.6804 14.1427C19.4061 12.3855 19.0804 10.3755 18.7033 8.12126C18.5997 7.49176 18.2613 6.92496 17.7562 6.53522C17.2511 6.14548 16.617 5.96181 15.9818 6.02126C15.189 6.08555 14.529 6.75841 14.0447 7.35412L13.6804 7.80412C13.3258 8.25459 12.9599 8.69615 12.5833 9.12841C12.399 9.33412 12.1633 9.48841 11.8761 9.43698L11.8718 9.43269Z" fill="url(#paint0_linear_59_65178)"/>
<path d="M9.34328 14.0141C9.60321 14.0096 9.85084 13.9026 10.0322 13.7164C10.2137 13.5301 10.3141 13.2798 10.3118 13.0198C10.3141 12.7599 10.2137 12.5095 10.0322 12.3233C9.85084 12.1371 9.60321 12.0301 9.34328 12.0255C9.21439 12.0272 9.0871 12.0543 8.96866 12.1052C8.85023 12.156 8.74298 12.2297 8.65304 12.3221C8.5631 12.4144 8.49223 12.5235 8.44447 12.6433C8.39671 12.763 8.37301 12.8909 8.3747 13.0198C8.37301 13.1487 8.39671 13.2767 8.44447 13.3964C8.49223 13.5161 8.5631 13.6253 8.65304 13.7176C8.74298 13.8099 8.85023 13.8836 8.96866 13.9345C9.0871 13.9854 9.21439 14.0124 9.34328 14.0141Z" fill="url(#paint1_linear_59_65178)"/>
<path d="M15.5147 13.0155C15.517 13.2755 15.4165 13.5259 15.2351 13.7121C15.0537 13.8983 14.8061 14.0053 14.5461 14.0098C14.2862 14.0053 14.0386 13.8983 13.8572 13.7121C13.6758 13.5259 13.5753 13.2755 13.5776 13.0155C13.5764 12.7563 13.6774 12.5071 13.8587 12.3218C14.04 12.1365 14.2869 12.0301 14.5461 12.0255C14.8053 12.0301 15.0523 12.1365 15.2336 12.3218C15.4149 12.5071 15.5159 12.7563 15.5147 13.0155Z" fill="url(#paint2_linear_59_65178)"/>
<defs>
<linearGradient id="paint0_linear_59_65178" x1="4.87756" y1="11.1984" x2="19.3933" y2="11.2455" gradientUnits="userSpaceOnUse">
<stop stop-color="#AA32F2"/>
<stop offset="1" stop-color="#8760FB"/>
</linearGradient>
<linearGradient id="paint1_linear_59_65178" x1="-23.5677" y1="1.36057" x2="92.0478" y2="1.89394" gradientUnits="userSpaceOnUse">
<stop stop-color="#AA32F2"/>
<stop offset="1" stop-color="#8760FB"/>
</linearGradient>
<linearGradient id="paint2_linear_59_65178" x1="4.87719" y1="11.1987" x2="19.3929" y2="11.2459" gradientUnits="userSpaceOnUse">
<stop stop-color="#AA32F2"/>
<stop offset="1" stop-color="#8760FB"/>
</linearGradient>
</defs>
</svg>
