<svg width="24" height="24" viewBox="0 0 24 24" fill="none" xmlns="http://www.w3.org/2000/svg">
<path d="M13.0975 10.217C12.7375 10.187 12.5704 10.1742 12.2318 10.3627C10.6302 11.2455 9.03018 12.1312 7.43179 13.0199C7.19245 13.1656 6.93436 13.2781 6.66465 13.3542C5.45179 13.607 4.37608 12.4542 4.81322 11.3313C5.03608 10.757 5.38322 10.5813 5.99608 10.2427C8.61894 8.78559 11.2461 7.33702 13.8775 5.89273C14.6918 5.44702 15.4675 5.46416 16.2132 5.95273C16.6344 6.21291 16.9408 6.62353 17.0704 7.1013C17.1218 7.29845 17.1475 7.65845 17.1432 8.17273V16.6542C17.1432 17.5413 16.5561 18.3899 15.6089 18.4242C15.3518 18.4327 15.0947 18.4327 14.8589 18.3384C14.5264 18.1773 14.2442 17.9285 14.0426 17.6189C13.8409 17.3093 13.7276 16.9506 13.7147 16.5813V11.2499C13.7147 10.8084 13.6547 10.4784 13.2647 10.2642C13.2129 10.2369 13.1559 10.2208 13.0975 10.217Z" fill="url(#paint0_linear_59_65321)"/>
<path d="M9.9818 18.107C9.15041 17.9173 8.38161 17.5174 7.74894 16.9456C7.60751 16.817 7.44894 16.6713 7.41465 16.4913C7.35465 16.1913 7.57751 16.0456 7.82179 15.9084L9.95608 14.717C10.2218 14.567 10.5647 14.657 10.6847 14.9313C10.7147 14.9956 10.7147 15.1027 10.7147 15.2613V17.5156C10.7147 17.7084 10.6889 17.8456 10.6375 17.927C10.4961 18.1542 10.2432 18.1713 9.9818 18.107Z" fill="url(#paint1_linear_59_65321)"/>
<path d="M13.0461 10.2127C12.7204 10.1827 12.5532 10.1827 12.2318 10.3627C10.6302 11.2455 9.03018 12.1312 7.43179 13.0199C7.19245 13.1656 6.93436 13.2781 6.66465 13.3542C5.45179 13.607 4.37608 12.4542 4.81322 11.3313C4.97179 10.9242 5.19465 10.7184 5.52894 10.5084C7.80037 9.76702 11.4432 8.99988 13.0461 10.2084V10.2127Z" fill="url(#paint2_linear_59_65321)"/>
<path d="M12.9604 10.2042L13.0975 10.217C13.1661 10.2213 13.2261 10.2384 13.2689 10.2599C13.6118 10.4527 13.6975 10.7056 13.7104 11.0656C13.7661 7.61987 11.0275 7.86416 10.0247 8.01416L5.99608 10.2427L5.93608 10.277C5.78608 10.3584 5.65322 10.4313 5.53751 10.5042C7.78751 9.76273 11.3747 9.00416 12.9604 10.2042Z" fill="url(#paint3_linear_59_65321)"/>
<defs>
<linearGradient id="paint0_linear_59_65321" x1="10.9289" y1="5.5713" x2="10.9289" y2="18.4284" gradientUnits="userSpaceOnUse">
<stop stop-color="#4AF78B"/>
<stop offset="1" stop-color="#23BFEF"/>
</linearGradient>
<linearGradient id="paint1_linear_59_65321" x1="5.8615" y1="9.63672" x2="15.2267" y2="16.9969" gradientUnits="userSpaceOnUse">
<stop stop-color="#3CD1C6"/>
<stop offset="1" stop-color="#34C2D8"/>
</linearGradient>
<linearGradient id="paint2_linear_59_65321" x1="13.2437" y1="5.57759" x2="3.21336" y2="9.15417" gradientUnits="userSpaceOnUse">
<stop stop-color="#226A82"/>
<stop offset="1" stop-color="#55DEB0"/>
</linearGradient>
<linearGradient id="paint3_linear_59_65321" x1="11.2671" y1="7.9415" x2="9.7714" y2="11.7429" gradientUnits="userSpaceOnUse">
<stop stop-color="#2A687F"/>
<stop offset="1" stop-color="#6CF7B6"/>
</linearGradient>
</defs>
</svg>
