<svg width="24" height="24" viewBox="0 0 24 24" fill="none" xmlns="http://www.w3.org/2000/svg">
<path d="M11.9996 19.2858C13.9319 19.2858 15.785 18.5182 17.1514 17.1518C18.5177 15.7855 19.2853 13.9324 19.2853 12.0001C19.2853 10.0678 18.5177 8.21463 17.1514 6.84829C15.785 5.48196 13.9319 4.71436 11.9996 4.71436C10.0673 4.71436 8.21414 5.48196 6.8478 6.84829C5.48147 8.21463 4.71387 10.0678 4.71387 12.0001C4.71387 13.9324 5.48147 15.7855 6.8478 17.1518C8.21414 18.5182 10.0673 19.2858 11.9996 19.2858Z" fill="url(#paint0_linear_59_65368)"/>
<path fill-rule="evenodd" clip-rule="evenodd" d="M11.9996 19.0586C13.8716 19.0586 15.667 18.315 16.9907 16.9912C18.3145 15.6675 19.0582 13.8721 19.0582 12.0001C19.0582 10.128 18.3145 8.33264 16.9907 7.00891C15.667 5.68517 13.8716 4.9415 11.9996 4.9415C10.1275 4.9415 8.33216 5.68517 7.00842 7.00891C5.68468 8.33264 4.94101 10.128 4.94101 12.0001C4.94101 13.8721 5.68468 15.6675 7.00842 16.9912C8.33216 18.315 10.1275 19.0586 11.9996 19.0586ZM11.9996 19.2858C13.9319 19.2858 15.785 18.5182 17.1514 17.1518C18.5177 15.7855 19.2853 13.9324 19.2853 12.0001C19.2853 10.0678 18.5177 8.21463 17.1514 6.84829C15.785 5.48196 13.9319 4.71436 11.9996 4.71436C10.0673 4.71436 8.21414 5.48196 6.8478 6.84829C5.48147 8.21463 4.71387 10.0678 4.71387 12.0001C4.71387 13.9324 5.48147 15.7855 6.8478 17.1518C8.21414 18.5182 10.0673 19.2858 11.9996 19.2858Z" fill="#05050D"/>
<path d="M11.9996 17.5715C15.0766 17.5715 17.571 15.0771 17.571 12.0001C17.571 8.92305 15.0766 6.42864 11.9996 6.42864C8.92257 6.42864 6.42815 8.92305 6.42815 12.0001C6.42815 15.0771 8.92257 17.5715 11.9996 17.5715Z" fill="#6C3F15"/>
<path d="M13.9282 13.7144H10.071C10.071 13.9286 10.7139 14.5715 11.9996 14.5715C13.0282 14.5715 13.9282 13.9286 13.9282 13.7144Z" fill="url(#paint1_linear_59_65368)"/>
<path fill-rule="evenodd" clip-rule="evenodd" d="M10.2853 13.3715C10.2853 13.3715 10.2553 13.3715 10.221 13.4186C10.191 13.4658 10.1567 13.5558 10.1567 13.7144C10.1567 13.7872 10.1996 13.8686 10.3067 13.9629C10.4139 14.0572 10.5639 14.1472 10.7482 14.2244C11.1124 14.3829 11.5839 14.4858 11.9996 14.4858C12.4153 14.4858 12.8867 14.3829 13.251 14.2286C13.4353 14.1429 13.5853 14.0572 13.6924 13.9629C13.7953 13.8686 13.8424 13.7872 13.8424 13.7144C13.8424 13.5558 13.8082 13.4658 13.7782 13.4186C13.7439 13.3758 13.7182 13.3715 13.7139 13.3715H10.2853ZM10.2853 13.2858C10.2124 13.2858 10.071 13.3715 10.071 13.7144C10.071 14.1429 11.1424 14.5715 11.9996 14.5715C12.8567 14.5715 13.9282 14.1429 13.9282 13.7144C13.9282 13.3715 13.7867 13.2858 13.7139 13.2858H10.2853Z" fill="black"/>
<path d="M10.071 10.0715C10.071 9.90007 10.4996 9.85721 10.7139 9.85721C10.9282 9.85721 11.3567 9.90007 11.3567 10.0715C11.3567 10.2858 10.9282 10.2858 10.7139 10.2858C10.4996 10.2858 10.071 10.2858 10.071 10.0715Z" fill="url(#paint2_linear_59_65368)"/>
<path fill-rule="evenodd" clip-rule="evenodd" d="M10.1567 10.0715C10.1567 10.0886 10.1653 10.1058 10.191 10.1229C10.233 10.1487 10.2796 10.1661 10.3282 10.1744C10.4567 10.2001 10.6067 10.2001 10.7139 10.2001C10.821 10.2001 10.971 10.2001 11.0996 10.1744C11.1482 10.1661 11.1947 10.1487 11.2367 10.1229C11.2624 10.1058 11.271 10.0886 11.271 10.0715C11.271 10.0715 11.271 10.0586 11.241 10.0372C11.2067 10.0158 11.1553 9.99864 11.0953 9.9815C10.844 9.92646 10.5837 9.92646 10.3324 9.9815C10.2682 9.99864 10.221 10.0158 10.1867 10.0372C10.1567 10.0586 10.1567 10.0715 10.1567 10.0715ZM10.7139 9.85721C10.4996 9.85721 10.071 9.90007 10.071 10.0715C10.071 10.2858 10.4996 10.2858 10.7139 10.2858C10.9282 10.2858 11.3567 10.2858 11.3567 10.0715C11.3567 9.90007 10.9282 9.85721 10.7139 9.85721Z" fill="#05050D"/>
<path d="M10.4996 10.0715C10.4996 9.96436 10.641 9.96436 10.7139 9.96436C10.7867 9.96436 10.9282 9.96436 10.9282 10.0715C10.9282 10.1786 10.7867 10.1786 10.7139 10.1786C10.641 10.1786 10.4996 10.1786 10.4996 10.0715Z" fill="#633E12"/>
<path fill-rule="evenodd" clip-rule="evenodd" d="M10.5553 10.0372C10.5467 10.0458 10.5424 10.0544 10.5424 10.0715C10.5424 10.0886 10.5467 10.0972 10.5553 10.1058C10.5665 10.1146 10.5798 10.1205 10.5939 10.1229C10.6282 10.1358 10.6796 10.1358 10.7139 10.1358C10.7524 10.1358 10.7996 10.1358 10.8339 10.1229C10.8495 10.1212 10.8643 10.1153 10.8767 10.1058L10.8853 10.0715C10.8853 10.0544 10.881 10.0458 10.8724 10.0372C10.8612 10.0284 10.848 10.0225 10.8339 10.0201C10.7996 10.0072 10.7482 10.0072 10.7139 10.0072C10.6753 10.0072 10.6282 10.0072 10.5939 10.0201C10.5783 10.0218 10.5635 10.0277 10.551 10.0372H10.5553ZM10.7139 9.96436C10.641 9.96436 10.4996 9.96436 10.4996 10.0715C10.4996 10.1786 10.641 10.1786 10.7139 10.1786C10.7867 10.1786 10.9282 10.1786 10.9282 10.0715C10.9282 9.96436 10.7867 9.96436 10.7139 9.96436Z" fill="#05050D"/>
<path d="M12.4282 10.0715C12.4282 9.90007 12.8567 9.85721 13.071 9.85721C13.2853 9.85721 13.7139 9.90007 13.7139 10.0715C13.7139 10.2858 13.2853 10.2858 13.071 10.2858C12.8567 10.2858 12.4282 10.2858 12.4282 10.0715Z" fill="url(#paint3_linear_59_65368)"/>
<path fill-rule="evenodd" clip-rule="evenodd" d="M12.5139 10.0715C12.5139 10.0886 12.5224 10.1058 12.5482 10.1229C12.5902 10.1487 12.6367 10.1661 12.6853 10.1744C12.8139 10.2001 12.9639 10.2001 13.071 10.2001C13.1782 10.2001 13.3282 10.2001 13.4567 10.1744C13.5053 10.1661 13.5519 10.1487 13.5939 10.1229C13.6196 10.1058 13.6282 10.0886 13.6282 10.0715C13.6282 10.0715 13.6282 10.0586 13.5982 10.0372C13.5639 10.0158 13.5124 9.99864 13.4524 9.9815C13.2011 9.92646 12.9409 9.92646 12.6896 9.9815C12.6253 9.99864 12.5782 10.0158 12.5439 10.0372C12.5139 10.0586 12.5139 10.0715 12.5139 10.0715ZM13.071 9.85721C12.8567 9.85721 12.4282 9.90007 12.4282 10.0715C12.4282 10.2858 12.8567 10.2858 13.071 10.2858C13.2853 10.2858 13.7139 10.2858 13.7139 10.0715C13.7139 9.90007 13.2853 9.85721 13.071 9.85721Z" fill="#05050D"/>
<path d="M12.8567 10.0715C12.8567 9.96436 12.9982 9.96436 13.071 9.96436C13.1439 9.96436 13.2853 9.96436 13.2853 10.0715C13.2853 10.1786 13.1439 10.1786 13.071 10.1786C12.9982 10.1786 12.8567 10.1786 12.8567 10.0715Z" fill="#633E12"/>
<path fill-rule="evenodd" clip-rule="evenodd" d="M12.9124 10.0372C12.9039 10.0458 12.8996 10.0544 12.8996 10.0715C12.8996 10.0886 12.9039 10.0972 12.9124 10.1058C12.9237 10.1146 12.9369 10.1205 12.951 10.1229C12.9853 10.1358 13.0367 10.1358 13.071 10.1358C13.1096 10.1358 13.1567 10.1358 13.191 10.1229C13.2066 10.1212 13.2214 10.1153 13.2339 10.1058L13.2424 10.0715C13.2424 10.0544 13.2382 10.0458 13.2296 10.0372C13.2184 10.0284 13.2051 10.0225 13.191 10.0201C13.1567 10.0072 13.1053 10.0072 13.071 10.0072C13.0324 10.0072 12.9853 10.0072 12.951 10.0201C12.9354 10.0218 12.9206 10.0277 12.9082 10.0372H12.9124ZM13.071 9.96436C12.9982 9.96436 12.8567 9.96436 12.8567 10.0715C12.8567 10.1786 12.9982 10.1786 13.071 10.1786C13.1439 10.1786 13.2853 10.1786 13.2853 10.0715C13.2853 9.96436 13.1439 9.96436 13.071 9.96436Z" fill="#05050D"/>
<path d="M11.1424 10.7572H9.85672V10.6715H11.1424C11.5839 10.6715 11.8282 10.9415 11.8282 11.1429L11.7853 11.7858H11.6996L11.7424 11.1429C11.7424 11.0015 11.5582 10.7572 11.1424 10.7572ZM12.351 10.7658C12.4496 10.6929 12.5653 10.6715 12.6424 10.6715H14.1424V10.7572H12.6424C12.5782 10.7572 12.4796 10.7786 12.3982 10.8344C12.321 10.8901 12.2567 10.9844 12.2567 11.1429L12.3424 11.8972H12.2567L12.171 11.1429C12.171 10.9586 12.2482 10.8386 12.351 10.7658Z" fill="black"/>
<path d="M11.9996 15.0001C12.7952 15.0001 13.5583 14.684 14.1209 14.1214C14.6835 13.5588 14.9996 12.7957 14.9996 12.0001C14.9996 11.2044 14.6835 10.4414 14.1209 9.87875C13.5583 9.31614 12.7952 9.00007 11.9996 9.00007C11.2039 9.00007 10.4409 9.31614 9.87826 9.87875C9.31565 10.4414 8.99958 11.2044 8.99958 12.0001C8.99958 12.7957 9.31565 13.5588 9.87826 14.1214C10.4409 14.684 11.2039 15.0001 11.9996 15.0001ZM11.9996 9.85721C12.5396 9.57436 13.4996 9.21436 14.3567 10.2858C14.4339 10.4272 14.2967 10.7144 13.9282 10.7144C14.1424 10.7144 14.571 10.9329 14.571 11.3572C14.571 11.7815 14.1596 12.0001 13.9282 12.0001H12.6424C12.4882 12.0001 12.4282 12.0001 12.2139 11.5715C12.2139 12.0001 12.2739 12.4286 12.6424 12.4286H13.4139C13.491 12.4286 13.7139 12.5144 13.7139 12.6858V12.8572C14.1424 12.8572 14.3567 13.0715 14.3567 13.2858C14.3567 13.5001 13.8467 14.7858 11.9996 14.7858C10.1524 14.7858 9.64244 13.7144 9.64244 13.2858C9.64244 13.0715 9.85672 12.8572 10.2853 12.8572V12.6815C10.2853 12.6086 10.4824 12.4329 10.6667 12.4329H10.9753L11.3567 12.4286C11.7424 12.4286 11.7853 12.0772 11.7853 11.5715L11.7424 11.6572C11.6782 11.8072 11.5924 12.0001 11.3567 12.0001H10.071C9.83958 12.0001 9.42815 11.9101 9.42815 11.4001C9.42815 10.8944 9.91672 10.7144 10.071 10.7144C9.99815 10.6715 9.90815 10.6544 9.82244 10.6372C9.64244 10.6072 9.49672 10.5772 9.64244 10.2858C10.071 9.42864 11.0739 9.43293 11.9996 9.85721Z" fill="#D2972C"/>
<path fill-rule="evenodd" clip-rule="evenodd" d="M14.3567 10.2858C13.4996 9.21436 12.5396 9.57436 11.9996 9.85721C11.3524 9.55721 10.6667 9.4715 10.1653 9.73721C9.95101 9.84864 9.77101 10.0286 9.64244 10.2858C9.49672 10.5772 9.64244 10.6072 9.82244 10.6372L9.91672 10.6544C9.96815 10.6672 10.0239 10.6844 10.071 10.7144C10.0367 10.7144 9.98101 10.7229 9.91672 10.7444C9.7153 10.8172 9.42815 11.0101 9.42815 11.4001C9.42815 11.9101 9.83958 12.0001 10.071 12.0001H11.3567C11.541 12.0001 11.6353 11.8801 11.6996 11.7601C11.7315 11.6988 11.7602 11.6359 11.7853 11.5715C11.7864 11.6415 11.7864 11.7115 11.7853 11.7815C11.7682 12.1715 11.6867 12.4286 11.3567 12.4286H10.6667C10.4824 12.4286 10.2853 12.6086 10.2853 12.6815V12.8572C9.85672 12.8572 9.64244 13.0715 9.64244 13.2858C9.64244 13.7144 10.1524 14.7858 11.9996 14.7858C13.8467 14.7858 14.3567 13.5001 14.3567 13.2858C14.3567 13.0715 14.1424 12.8572 13.7139 12.8572V12.6858C13.7139 12.5144 13.491 12.4286 13.4139 12.4286H12.6424C12.3296 12.4286 12.2396 12.1201 12.2182 11.7644C12.2149 11.7001 12.2135 11.6358 12.2139 11.5715L12.2996 11.7429C12.4496 12.0001 12.5139 12.0001 12.6424 12.0001H13.9282C14.1596 12.0001 14.571 11.7815 14.571 11.3572C14.571 11.0529 14.3482 10.8558 14.1424 10.7658C14.075 10.7351 14.0022 10.7176 13.9282 10.7144C14.0139 10.7144 14.0867 10.6972 14.1424 10.6715C14.3482 10.5901 14.4167 10.3972 14.3567 10.2858ZM14.2453 10.7186C14.301 10.6886 14.3439 10.6501 14.3739 10.6072C14.4167 10.5558 14.4467 10.4958 14.4596 10.4358C14.833 11.0196 14.9852 11.7178 14.8885 12.4041C14.7918 13.0903 14.4527 13.7193 13.9324 14.1772C14.145 13.9684 14.3089 13.7152 14.4124 13.4358C14.4296 13.3801 14.4424 13.3244 14.4424 13.2858C14.4424 13.0201 14.1982 12.8015 13.7996 12.7715V12.6858C13.7996 12.5572 13.7139 12.4715 13.641 12.4244C13.5734 12.3791 13.495 12.3525 13.4139 12.3472H13.2767L12.6424 12.3429C12.5804 12.3456 12.5196 12.3259 12.471 12.2872C12.4234 12.2443 12.3879 12.1896 12.3682 12.1286C12.3467 12.0729 12.3296 12.0001 12.321 11.9272C12.3467 11.9615 12.3682 11.9915 12.3939 12.0129C12.4796 12.0858 12.5653 12.0858 12.6382 12.0858H13.9282C14.0653 12.0858 14.2453 12.0215 14.391 11.9058C14.5367 11.7815 14.6567 11.6015 14.6567 11.3572C14.6567 11.1129 14.5324 10.9286 14.3824 10.8086C14.3396 10.7744 14.2967 10.7444 14.2453 10.7229V10.7186ZM13.2939 14.6101C12.9553 14.7686 12.531 14.8715 11.9996 14.8715C11.6982 14.8738 11.3976 14.8407 11.1039 14.7729C11.8272 15.0063 12.613 14.9478 13.2939 14.6101ZM9.69815 13.7872C9.61264 13.6333 9.56422 13.4617 9.55672 13.2858C9.55672 13.0201 9.80101 12.8015 10.1996 12.7715V12.6815C10.1996 12.6515 10.2082 12.6301 10.2167 12.6129C10.2261 12.5932 10.2376 12.5745 10.251 12.5572L10.3539 12.4586C10.4353 12.4029 10.5467 12.3472 10.6667 12.3472H10.9753L11.3567 12.3429C11.4424 12.3429 11.4982 12.3258 11.5367 12.2958C11.5796 12.2658 11.6139 12.2229 11.6353 12.1586C11.661 12.0986 11.6782 12.0215 11.6867 11.9358L11.6782 11.9444C11.6383 11.9902 11.5889 12.0266 11.5333 12.0511C11.4777 12.0755 11.4174 12.0874 11.3567 12.0858H10.071C9.94672 12.0858 9.77101 12.0601 9.61672 11.9615C9.45815 11.8586 9.34244 11.6829 9.34244 11.4001C9.34244 11.1129 9.47958 10.9201 9.64244 10.8001C9.6853 10.7658 9.72815 10.7401 9.77101 10.7144C9.73776 10.7091 9.70485 10.702 9.67244 10.6929C9.62316 10.6799 9.57858 10.6531 9.54387 10.6158C9.51841 10.584 9.50344 10.545 9.50101 10.5044C9.19781 11.0072 9.05433 11.5903 9.08953 12.1764C9.12473 12.7626 9.33695 13.3242 9.69815 13.7872ZM10.431 9.54436L10.6239 9.50578C11.0524 9.45436 11.5367 9.55721 11.9953 9.76293C12.3223 9.58232 12.6889 9.48516 13.0624 9.48007C13.2639 9.48007 13.4782 9.52293 13.6882 9.62578C13.2162 9.28707 12.6535 9.09783 12.0727 9.08255C11.492 9.06727 10.9201 9.22665 10.431 9.54007V9.54436ZM14.4253 10.2301L14.4296 10.2386C14.7841 10.9505 14.8414 11.774 14.5891 12.5281C14.3367 13.2822 13.7952 13.9053 13.0837 14.2603C12.3721 14.6154 11.5487 14.6734 10.7943 14.4217C10.04 14.1699 9.41652 13.6289 9.06088 12.9176C8.70524 12.2064 8.64656 11.383 8.89773 10.6284C9.14891 9.87392 9.68938 9.24999 10.4004 8.89378C11.1114 8.53758 11.9347 8.47824 12.6894 8.72881C13.4442 8.97938 14.0685 9.51936 14.4253 10.2301Z" fill="#05050D"/>
<path fill-rule="evenodd" clip-rule="evenodd" d="M11.9996 15.4286C12.9089 15.4286 13.781 15.0674 14.4239 14.4244C15.0669 13.7815 15.4282 12.9094 15.4282 12.0001C15.4282 11.0908 15.0669 10.2187 14.4239 9.5757C13.781 8.93272 12.9089 8.5715 11.9996 8.5715C11.0903 8.5715 10.2182 8.93272 9.57521 9.5757C8.93223 10.2187 8.57101 11.0908 8.57101 12.0001C8.57101 12.9094 8.93223 13.7815 9.57521 14.4244C10.2182 15.0674 11.0903 15.4286 11.9996 15.4286ZM11.9996 17.5715C13.4772 17.5715 14.8943 16.9845 15.9392 15.9397C16.984 14.8948 17.571 13.4777 17.571 12.0001C17.571 10.5224 16.984 9.10532 15.9392 8.06047C14.8943 7.01563 13.4772 6.42864 11.9996 6.42864C10.5219 6.42864 9.10483 7.01563 8.05999 8.06047C7.01514 9.10532 6.42815 10.5224 6.42815 12.0001C6.42815 13.4777 7.01514 14.8948 8.05999 15.9397C9.10483 16.9845 10.5219 17.5715 11.9996 17.5715ZM10.2853 8.14293C10.2853 8.25659 10.2401 8.3656 10.1598 8.44597C10.0794 8.52635 9.97039 8.5715 9.85672 8.5715C9.74306 8.5715 9.63405 8.52635 9.55368 8.44597C9.47331 8.3656 9.42815 8.25659 9.42815 8.14293C9.42815 8.02926 9.47331 7.92025 9.55368 7.83988C9.63405 7.75951 9.74306 7.71435 9.85672 7.71435C9.97039 7.71435 10.0794 7.75951 10.1598 7.83988C10.2401 7.92025 10.2853 8.02926 10.2853 8.14293ZM14.1424 8.5715C14.2561 8.5715 14.3651 8.52635 14.4455 8.44597C14.5259 8.3656 14.571 8.25659 14.571 8.14293C14.571 8.02926 14.5259 7.92025 14.4455 7.83988C14.3651 7.75951 14.2561 7.71435 14.1424 7.71435C14.0288 7.71435 13.9198 7.75951 13.8394 7.83988C13.759 7.92025 13.7139 8.02926 13.7139 8.14293C13.7139 8.25659 13.759 8.3656 13.8394 8.44597C13.9198 8.52635 14.0288 8.5715 14.1424 8.5715ZM17.1424 12.0001C17.1424 12.1137 17.0973 12.2227 17.0169 12.3031C16.9365 12.3835 16.8275 12.4286 16.7139 12.4286C16.6002 12.4286 16.4912 12.3835 16.4108 12.3031C16.3304 12.2227 16.2853 12.1137 16.2853 12.0001C16.2853 11.8864 16.3304 11.7774 16.4108 11.697C16.4912 11.6167 16.6002 11.5715 16.7139 11.5715C16.8275 11.5715 16.9365 11.6167 17.0169 11.697C17.0973 11.7774 17.1424 11.8864 17.1424 12.0001ZM7.2853 12.4286C7.39896 12.4286 7.50797 12.3835 7.58834 12.3031C7.66871 12.2227 7.71387 12.1137 7.71387 12.0001C7.71387 11.8864 7.66871 11.7774 7.58834 11.697C7.50797 11.6167 7.39896 11.5715 7.2853 11.5715C7.17163 11.5715 7.06262 11.6167 6.98225 11.697C6.90188 11.7774 6.85672 11.8864 6.85672 12.0001C6.85672 12.1137 6.90188 12.2227 6.98225 12.3031C7.06262 12.3835 7.17163 12.4286 7.2853 12.4286ZM10.2853 15.8572C10.2853 15.9709 10.2401 16.0799 10.1598 16.1603C10.0794 16.2406 9.97039 16.2858 9.85672 16.2858C9.74306 16.2858 9.63405 16.2406 9.55368 16.1603C9.47331 16.0799 9.42815 15.9709 9.42815 15.8572C9.42815 15.7435 9.47331 15.6345 9.55368 15.5542C9.63405 15.4738 9.74306 15.4286 9.85672 15.4286C9.97039 15.4286 10.0794 15.4738 10.1598 15.5542C10.2401 15.6345 10.2853 15.7435 10.2853 15.8572ZM14.1424 16.2858C14.2561 16.2858 14.3651 16.2406 14.4455 16.1603C14.5259 16.0799 14.571 15.9709 14.571 15.8572C14.571 15.7435 14.5259 15.6345 14.4455 15.5542C14.3651 15.4738 14.2561 15.4286 14.1424 15.4286C14.0288 15.4286 13.9198 15.4738 13.8394 15.5542C13.759 15.6345 13.7139 15.7435 13.7139 15.8572C13.7139 15.9709 13.759 16.0799 13.8394 16.1603C13.9198 16.2406 14.0288 16.2858 14.1424 16.2858Z" fill="#D2972C"/>
<path fill-rule="evenodd" clip-rule="evenodd" d="M15.5139 12.0001C15.5139 12.4616 15.423 12.9186 15.2464 13.3449C15.0697 13.7713 14.8109 14.1587 14.4846 14.485C14.1582 14.8114 13.7708 15.0702 13.3444 15.2468C12.9181 15.4235 12.4611 15.5144 11.9996 15.5144C11.5381 15.5144 11.0811 15.4235 10.6547 15.2468C10.2283 15.0702 9.84094 14.8114 9.51461 14.485C9.18827 14.1587 8.92941 13.7713 8.7528 13.3449C8.5762 12.9186 8.4853 12.4616 8.4853 12.0001C8.4853 11.068 8.85555 10.1742 9.51461 9.51509C10.1737 8.85604 11.0675 8.48578 11.9996 8.48578C12.9316 8.48578 13.8255 8.85604 14.4846 9.51509C15.1436 10.1742 15.5139 11.068 15.5139 12.0001ZM11.9996 17.4858C13.4545 17.4858 14.8498 16.9078 15.8786 15.8791C16.9073 14.8503 17.4853 13.455 17.4853 12.0001C17.4853 10.5452 16.9073 9.14985 15.8786 8.12108C14.8498 7.09231 13.4545 6.51436 11.9996 6.51436C10.5447 6.51436 9.14937 7.09231 8.1206 8.12108C7.09182 9.14985 6.51387 10.5452 6.51387 12.0001C6.51387 13.455 7.09182 14.8503 8.1206 15.8791C9.14937 16.9078 10.5447 17.4858 11.9996 17.4858ZM10.371 8.14293C10.371 8.27932 10.3168 8.41013 10.2204 8.50658C10.1239 8.60303 9.99312 8.65721 9.85672 8.65721C9.72033 8.65721 9.58952 8.60303 9.49307 8.50658C9.39662 8.41013 9.34244 8.27932 9.34244 8.14293C9.34244 8.00653 9.39662 7.87572 9.49307 7.77927C9.58952 7.68282 9.72033 7.62864 9.85672 7.62864C9.99312 7.62864 10.1239 7.68282 10.2204 7.77927C10.3168 7.87572 10.371 8.00653 10.371 8.14293ZM14.6567 8.14293C14.6567 8.27932 14.6025 8.41013 14.5061 8.50658C14.4096 8.60303 14.2788 8.65721 14.1424 8.65721C14.006 8.65721 13.8752 8.60303 13.7788 8.50658C13.6823 8.41013 13.6282 8.27932 13.6282 8.14293C13.6282 8.00653 13.6823 7.87572 13.7788 7.77927C13.8752 7.68282 14.006 7.62864 14.1424 7.62864C14.2788 7.62864 14.4096 7.68282 14.5061 7.77927C14.6025 7.87572 14.6567 8.00653 14.6567 8.14293ZM17.2282 12.0001C17.2282 12.1365 17.174 12.2673 17.0775 12.3637C16.9811 12.4602 16.8503 12.5144 16.7139 12.5144C16.5775 12.5144 16.4467 12.4602 16.3502 12.3637C16.2538 12.2673 16.1996 12.1365 16.1996 12.0001C16.1996 11.8637 16.2538 11.7329 16.3502 11.6364C16.4467 11.54 16.5775 11.4858 16.7139 11.4858C16.8503 11.4858 16.9811 11.54 17.0775 11.6364C17.174 11.7329 17.2282 11.8637 17.2282 12.0001ZM7.79958 12.0001C7.79958 12.1365 7.7454 12.2673 7.64895 12.3637C7.5525 12.4602 7.42169 12.5144 7.2853 12.5144C7.1489 12.5144 7.01809 12.4602 6.92164 12.3637C6.82519 12.2673 6.77101 12.1365 6.77101 12.0001C6.77101 11.8637 6.82519 11.7329 6.92164 11.6364C7.01809 11.54 7.1489 11.4858 7.2853 11.4858C7.42169 11.4858 7.5525 11.54 7.64895 11.6364C7.7454 11.7329 7.79958 11.8637 7.79958 12.0001ZM10.371 15.8572C10.371 15.9936 10.3168 16.1244 10.2204 16.2209C10.1239 16.3173 9.99312 16.3715 9.85672 16.3715C9.72033 16.3715 9.58952 16.3173 9.49307 16.2209C9.39662 16.1244 9.34244 15.9936 9.34244 15.8572C9.34244 15.7208 9.39662 15.59 9.49307 15.4936C9.58952 15.3971 9.72033 15.3429 9.85672 15.3429C9.99312 15.3429 10.1239 15.3971 10.2204 15.4936C10.3168 15.59 10.371 15.7208 10.371 15.8572ZM14.6567 15.8572C14.6567 15.9936 14.6025 16.1244 14.5061 16.2209C14.4096 16.3173 14.2788 16.3715 14.1424 16.3715C14.006 16.3715 13.8752 16.3173 13.7788 16.2209C13.6823 16.1244 13.6282 15.9936 13.6282 15.8572C13.6282 15.7208 13.6823 15.59 13.7788 15.4936C13.8752 15.3971 14.006 15.3429 14.1424 15.3429C14.2788 15.3429 14.4096 15.3971 14.5061 15.4936C14.6025 15.59 14.6567 15.7208 14.6567 15.8572ZM15.4282 12.0001C15.4282 12.9094 15.0669 13.7815 14.4239 14.4244C13.781 15.0674 12.9089 15.4286 11.9996 15.4286C11.0903 15.4286 10.2182 15.0674 9.57521 14.4244C8.93223 13.7815 8.57101 12.9094 8.57101 12.0001C8.57101 11.0908 8.93223 10.2187 9.57521 9.5757C10.2182 8.93272 11.0903 8.5715 11.9996 8.5715C12.9089 8.5715 13.781 8.93272 14.4239 9.5757C15.0669 10.2187 15.4282 11.0908 15.4282 12.0001ZM17.571 12.0001C17.571 13.4777 16.984 14.8948 15.9392 15.9397C14.8943 16.9845 13.4772 17.5715 11.9996 17.5715C10.5219 17.5715 9.10483 16.9845 8.05999 15.9397C7.01514 14.8948 6.42815 13.4777 6.42815 12.0001C6.42815 10.5224 7.01514 9.10532 8.05999 8.06047C9.10483 7.01563 10.5219 6.42864 11.9996 6.42864C13.4772 6.42864 14.8943 7.01563 15.9392 8.06047C16.984 9.10532 17.571 10.5224 17.571 12.0001ZM9.85672 8.5715C9.97039 8.5715 10.0794 8.52635 10.1598 8.44597C10.2401 8.3656 10.2853 8.25659 10.2853 8.14293C10.2853 8.02926 10.2401 7.92025 10.1598 7.83988C10.0794 7.75951 9.97039 7.71435 9.85672 7.71435C9.74306 7.71435 9.63405 7.75951 9.55368 7.83988C9.47331 7.92025 9.42815 8.02926 9.42815 8.14293C9.42815 8.25659 9.47331 8.3656 9.55368 8.44597C9.63405 8.52635 9.74306 8.5715 9.85672 8.5715ZM14.571 8.14293C14.571 8.25659 14.5259 8.3656 14.4455 8.44597C14.3651 8.52635 14.2561 8.5715 14.1424 8.5715C14.0288 8.5715 13.9198 8.52635 13.8394 8.44597C13.759 8.3656 13.7139 8.25659 13.7139 8.14293C13.7139 8.02926 13.759 7.92025 13.8394 7.83988C13.9198 7.75951 14.0288 7.71435 14.1424 7.71435C14.2561 7.71435 14.3651 7.75951 14.4455 7.83988C14.5259 7.92025 14.571 8.02926 14.571 8.14293ZM16.7139 12.4286C16.8275 12.4286 16.9365 12.3835 17.0169 12.3031C17.0973 12.2227 17.1424 12.1137 17.1424 12.0001C17.1424 11.8864 17.0973 11.7774 17.0169 11.697C16.9365 11.6167 16.8275 11.5715 16.7139 11.5715C16.6002 11.5715 16.4912 11.6167 16.4108 11.697C16.3304 11.7774 16.2853 11.8864 16.2853 12.0001C16.2853 12.1137 16.3304 12.2227 16.4108 12.3031C16.4912 12.3835 16.6002 12.4286 16.7139 12.4286ZM7.71387 12.0001C7.71387 12.1137 7.66871 12.2227 7.58834 12.3031C7.50797 12.3835 7.39896 12.4286 7.2853 12.4286C7.17163 12.4286 7.06262 12.3835 6.98225 12.3031C6.90188 12.2227 6.85672 12.1137 6.85672 12.0001C6.85672 11.8864 6.90188 11.7774 6.98225 11.697C7.06262 11.6167 7.17163 11.5715 7.2853 11.5715C7.39896 11.5715 7.50797 11.6167 7.58834 11.697C7.66871 11.7774 7.71387 11.8864 7.71387 12.0001ZM9.85672 16.2858C9.97039 16.2858 10.0794 16.2406 10.1598 16.1603C10.2401 16.0799 10.2853 15.9709 10.2853 15.8572C10.2853 15.7435 10.2401 15.6345 10.1598 15.5542C10.0794 15.4738 9.97039 15.4286 9.85672 15.4286C9.74306 15.4286 9.63405 15.4738 9.55368 15.5542C9.47331 15.6345 9.42815 15.7435 9.42815 15.8572C9.42815 15.9709 9.47331 16.0799 9.55368 16.1603C9.63405 16.2406 9.74306 16.2858 9.85672 16.2858ZM14.571 15.8572C14.571 15.9709 14.5259 16.0799 14.4455 16.1603C14.3651 16.2406 14.2561 16.2858 14.1424 16.2858C14.0288 16.2858 13.9198 16.2406 13.8394 16.1603C13.759 16.0799 13.7139 15.9709 13.7139 15.8572C13.7139 15.7435 13.759 15.6345 13.8394 15.5542C13.9198 15.4738 14.0288 15.4286 14.1424 15.4286C14.2561 15.4286 14.3651 15.4738 14.4455 15.5542C14.5259 15.6345 14.571 15.7435 14.571 15.8572Z" fill="#05050D"/>
<path d="M11.5453 7.62007V8.6915C11.5453 8.80721 11.481 8.91436 11.3824 8.97007L9.85244 9.85721C9.79628 9.8904 9.73136 9.90571 9.66629 9.90111C9.60122 9.89652 9.53909 9.87224 9.48815 9.8315L8.57101 9.08578C8.42958 8.97436 8.23244 8.95721 8.10387 9.07721C7.9753 9.20578 7.87244 9.3515 7.79958 9.50578C7.74815 9.61293 7.71387 9.71578 7.68387 9.81436C7.63672 9.98578 7.72672 10.1572 7.8853 10.2344C8.28815 10.4186 8.76815 10.6072 9.04672 10.8901C9.26958 11.1129 9.24815 11.5201 9.2353 11.8029C9.21982 12.1088 9.18691 12.4136 9.13672 12.7158C9.12965 12.759 9.11384 12.8002 9.09026 12.8371C9.06667 12.8739 9.03582 12.9056 8.99958 12.9301L7.75672 13.7744C7.61958 13.8644 7.54244 14.0315 7.60672 14.1858C7.6753 14.3615 7.79101 14.5286 7.92815 14.6786C8.01044 14.7706 8.09924 14.8566 8.19387 14.9358C8.26822 14.995 8.36183 15.0248 8.45675 15.0192C8.55167 15.0137 8.6412 14.9733 8.70815 14.9058L9.47958 14.1901C9.57815 14.0958 9.73672 14.0786 9.85672 14.1472L11.3867 15.0301C11.4853 15.0858 11.5496 15.1929 11.5496 15.3086V16.5044C11.5496 16.6586 11.631 16.8086 11.781 16.8515C11.9524 16.8986 12.1239 16.9072 12.3039 16.8901C12.411 16.8772 12.5182 16.8558 12.6124 16.8301C12.7753 16.7829 12.8696 16.6244 12.8696 16.4572V15.5272C12.8696 15.4801 12.8867 15.4286 12.9082 15.3858C13.1031 15.0023 13.426 14.6991 13.821 14.5286C14.1054 14.3995 14.413 14.3295 14.7253 14.3229C14.7939 14.3229 14.8624 14.3486 14.9182 14.3915L15.5096 14.8372C15.6167 14.9144 15.7539 14.9486 15.8739 14.8929C16.0839 14.7944 16.2039 14.6444 16.281 14.4944C16.3324 14.3872 16.3667 14.2715 16.3796 14.1644C16.3967 14.0272 16.3239 13.9029 16.2082 13.8215L15.201 13.1486C15.1575 13.1193 15.1219 13.0797 15.0973 13.0334C15.0726 12.987 15.0597 12.9354 15.0596 12.8829V11.1172C15.0596 10.9972 15.1282 10.8858 15.2353 10.8301L16.1739 10.3586C16.311 10.2901 16.4053 10.1529 16.3882 9.99864C16.3496 9.7715 16.251 9.58721 16.131 9.4415C16.0496 9.34293 15.9596 9.26578 15.8739 9.19721C15.7453 9.10293 15.5653 9.12007 15.4367 9.21864L14.9224 9.60864C14.8876 9.63586 14.8476 9.65562 14.8049 9.66668C14.7621 9.67774 14.7175 9.67987 14.6739 9.67293C13.5596 9.48436 13.0153 8.94436 12.891 8.5715C12.8802 8.53974 12.8744 8.50648 12.8739 8.47293V7.57293C12.8739 7.17436 12.4153 7.15721 12.1196 7.18721C11.8539 7.21721 11.5496 7.29436 11.5496 7.62007H11.5453ZM12.0467 6.54864C12.4624 6.50578 12.951 6.56578 13.3839 6.8915C13.4653 6.95578 13.5124 7.05007 13.5124 7.14864V8.28864C13.5124 8.36578 13.5296 8.43864 13.581 8.49864C13.701 8.6315 13.9582 8.83293 14.451 8.97007C14.571 9.00007 14.6953 8.97007 14.7939 8.89721L15.4024 8.43436C15.4882 8.37436 15.5996 8.35293 15.7024 8.3915C15.9639 8.47721 16.3367 8.68293 16.6196 9.02578C16.9153 9.3815 17.1124 9.87864 17.0053 10.5086C16.9973 10.5587 16.9776 10.6061 16.9478 10.647C16.918 10.688 16.879 10.7214 16.8339 10.7444L15.9339 11.1986C15.8632 11.2343 15.8038 11.2887 15.7621 11.3561C15.7205 11.4234 15.6984 11.5009 15.6982 11.5801V12.4801C15.6973 12.551 15.7141 12.621 15.7471 12.6838C15.78 12.7467 15.828 12.8004 15.8867 12.8401L16.8724 13.4958C16.941 13.5472 16.9924 13.6244 17.0053 13.7101C17.0482 13.9844 17.0396 14.3958 16.851 14.7772C16.7364 15.0066 16.5669 15.2041 16.3575 15.3521C16.1482 15.5002 15.9055 15.5942 15.651 15.6258C15.6077 15.6333 15.5633 15.6319 15.5205 15.6216C15.4777 15.6112 15.4376 15.5923 15.4024 15.5658L14.751 15.0729C14.71 15.0399 14.6624 15.016 14.6114 15.0027C14.5604 14.9894 14.5072 14.987 14.4553 14.9958C14.3439 15.0172 14.211 15.0558 14.0824 15.1158C13.8896 15.2015 13.7096 15.3301 13.5767 15.5101C13.5328 15.5727 13.5103 15.6479 13.5124 15.7244V16.9286C13.5124 17.0401 13.4524 17.1429 13.3582 17.2029C13.1396 17.3315 12.7796 17.4858 12.3682 17.5286C11.9524 17.5715 11.4596 17.5115 11.0267 17.1858C10.9868 17.1558 10.9544 17.117 10.9321 17.0724C10.9098 17.0278 10.8982 16.9785 10.8982 16.9286V15.7415C10.8985 15.666 10.8788 15.5917 10.8412 15.5262C10.8035 15.4608 10.7493 15.4064 10.6839 15.3686L10.011 14.9829C9.93182 14.937 9.84 14.9176 9.74899 14.9276C9.65799 14.9376 9.57258 14.9766 9.5053 15.0386L8.72101 15.7672C8.67275 15.8104 8.61255 15.8381 8.5483 15.8465C8.48406 15.8549 8.41878 15.8437 8.36101 15.8144C8.0161 15.6344 7.70563 15.395 7.44387 15.1072C7.09291 14.7466 6.88827 14.2686 6.86958 13.7658C6.86958 13.6586 6.92101 13.5558 7.01101 13.5001L8.14244 12.6429C8.24101 12.5744 8.42101 12.4286 8.43815 12.3044C8.46387 12.0644 8.48958 11.8158 8.48101 11.5715C8.48101 11.4429 8.50672 11.3144 8.3953 11.2544L7.13101 10.5686C7.08028 10.5409 7.03798 10.5 7.00857 10.4502C6.97915 10.4004 6.96371 10.3436 6.96387 10.2858C6.96387 10.0244 7.02815 9.6215 7.21244 9.2315C7.42056 8.77524 7.79439 8.41519 8.25815 8.22436C8.3653 8.1815 8.48958 8.19864 8.57958 8.26721L9.49244 9.00436C9.56023 9.05837 9.6428 9.09057 9.72926 9.09669C9.81572 9.10281 9.902 9.08257 9.97672 9.03864L10.6882 8.6315C10.7536 8.59374 10.8078 8.53937 10.8454 8.47389C10.8831 8.40842 10.9027 8.33416 10.9024 8.25864V7.14864C10.9024 7.03721 10.9582 6.93436 11.0567 6.87436C11.271 6.74578 11.6353 6.5915 12.0424 6.54864H12.0467Z" fill="#6C3F15"/>
<path fill-rule="evenodd" clip-rule="evenodd" d="M7.05815 13.5686C7.02611 13.5905 6.99996 13.6199 6.98202 13.6543C6.96407 13.6887 6.9549 13.727 6.9553 13.7658C6.9553 14.2844 7.21244 14.7258 7.51244 15.0515C7.76582 15.3301 8.06607 15.5622 8.39958 15.7372C8.4853 15.7801 8.59244 15.7672 8.6653 15.6986L9.4453 14.9744C9.52598 14.8992 9.62869 14.852 9.73826 14.8396C9.84784 14.8273 9.95848 14.8505 10.0539 14.9058L10.7267 15.2915C10.8896 15.3858 10.9839 15.5572 10.9839 15.7415V16.9286C10.9839 17.0015 11.0224 17.0701 11.0782 17.1172C11.4896 17.4258 11.9567 17.4858 12.3553 17.4429C12.7539 17.4001 13.1053 17.2544 13.311 17.1301C13.3839 17.0872 13.4267 17.0101 13.4267 16.9286V15.7244C13.4267 15.6386 13.4482 15.5401 13.5039 15.4629C13.6496 15.2658 13.8467 15.1286 14.0482 15.0344C14.1853 14.9744 14.3182 14.9358 14.4382 14.9144C14.571 14.8844 14.7039 14.9272 14.8067 15.0044L15.4539 15.4972C15.5053 15.5358 15.5696 15.5486 15.6339 15.5401C16.2339 15.4372 16.5939 15.1115 16.7739 14.7386C16.9539 14.3744 16.9667 13.9844 16.9239 13.7272C16.9186 13.6951 16.9067 13.6645 16.889 13.6372C16.8713 13.6099 16.8482 13.5865 16.821 13.5686L15.8396 12.9086C15.7694 12.8614 15.7119 12.7976 15.6723 12.7228C15.6327 12.6481 15.6121 12.5647 15.6124 12.4801V11.5801C15.6124 11.3872 15.7239 11.2072 15.8953 11.1215L16.7953 10.6672C16.8287 10.6508 16.8578 10.6268 16.8802 10.597C16.9025 10.5672 16.9175 10.5325 16.9239 10.4958C16.9711 10.2475 16.9625 9.99176 16.8987 9.74717C16.835 9.50257 16.7177 9.2752 16.5553 9.0815C16.3209 8.80213 16.0161 8.59053 15.6724 8.46864C15.6366 8.45677 15.5984 8.45369 15.5611 8.45966C15.5238 8.46562 15.4885 8.48046 15.4582 8.50293L14.8496 8.9615C14.7296 9.0515 14.5753 9.09007 14.4296 9.04721C14.084 8.97465 13.767 8.80345 13.5167 8.55436C13.4552 8.47981 13.4231 8.38525 13.4267 8.28864V7.14864C13.4267 7.11205 13.4182 7.07596 13.4018 7.04323C13.3855 7.0105 13.3617 6.98203 13.3324 6.96007C12.9647 6.69072 12.5071 6.57401 12.0553 6.63436C11.6567 6.67721 11.3096 6.82293 11.0996 6.94721C11.0653 6.96846 11.0371 6.99814 11.0176 7.0334C10.9981 7.06866 10.988 7.10834 10.9882 7.14864V8.26293C10.9882 8.44293 10.8896 8.61436 10.731 8.70436L10.0196 9.11578C9.8353 9.21864 9.60387 9.2015 9.44101 9.07293L8.52815 8.34007C8.49586 8.31323 8.45698 8.2955 8.41554 8.28872C8.3741 8.28194 8.3316 8.28635 8.29244 8.3015C7.84556 8.48422 7.48532 8.83067 7.2853 9.27007C7.13395 9.58771 7.05212 9.93399 7.0453 10.2858C7.0453 10.3715 7.09244 10.4529 7.16958 10.4915L8.43387 11.1772C8.51958 11.2286 8.54958 11.3058 8.56244 11.3744V11.5715C8.57101 11.8201 8.5453 12.0729 8.51958 12.3172C8.51226 12.3634 8.49468 12.4073 8.46815 12.4458C8.44244 12.4886 8.41244 12.5229 8.38244 12.5529C8.31387 12.6172 8.24101 12.6772 8.18958 12.7115L7.05387 13.5686H7.05815ZM8.14244 12.6429C8.24101 12.5744 8.42101 12.4286 8.43815 12.3044C8.47338 12.0387 8.48771 11.7708 8.48101 11.5029C8.4853 11.4001 8.48958 11.3058 8.3953 11.2544L7.13101 10.5686C7.08028 10.5409 7.03798 10.5 7.00857 10.4502C6.97915 10.4004 6.96371 10.3436 6.96387 10.2858C6.96387 10.0244 7.02815 9.6215 7.21244 9.2315C7.42056 8.77524 7.79439 8.41519 8.25815 8.22436C8.3653 8.1815 8.48958 8.19864 8.57958 8.26721L9.49244 9.00436C9.56023 9.05837 9.6428 9.09057 9.72926 9.09669C9.81572 9.10281 9.902 9.08257 9.97672 9.03864L10.6882 8.6315C10.7536 8.59374 10.8078 8.53937 10.8454 8.47389C10.8831 8.40842 10.9027 8.33416 10.9024 8.25864V7.14864C10.9024 7.03721 10.9582 6.93436 11.0567 6.87436C11.271 6.74578 11.6353 6.5915 12.0424 6.54864C12.4624 6.50578 12.951 6.56578 13.3839 6.8915C13.4653 6.95578 13.5124 7.05007 13.5124 7.14864V8.28864C13.5124 8.36578 13.5296 8.43864 13.581 8.49864C13.701 8.6315 13.9582 8.83293 14.451 8.97007C14.571 9.00007 14.6953 8.97007 14.7939 8.89721L15.4024 8.43436C15.4882 8.37436 15.5996 8.35293 15.7024 8.3915C15.9639 8.47721 16.3367 8.68293 16.6196 9.02578C16.9153 9.3815 17.1124 9.87864 17.0053 10.5086C16.9973 10.5587 16.9776 10.6061 16.9478 10.647C16.918 10.688 16.879 10.7214 16.8339 10.7444L15.9339 11.1986C15.8632 11.2343 15.8038 11.2887 15.7621 11.3561C15.7205 11.4234 15.6984 11.5009 15.6982 11.5801V12.4801C15.6973 12.551 15.7141 12.621 15.7471 12.6838C15.78 12.7467 15.828 12.8004 15.8867 12.8401L16.8724 13.4958C16.941 13.5472 16.9924 13.6244 17.0053 13.7101C17.0482 13.9844 17.0396 14.3958 16.851 14.7772C16.7364 15.0066 16.5669 15.2041 16.3575 15.3521C16.1482 15.5002 15.9055 15.5942 15.651 15.6258C15.6077 15.6333 15.5633 15.6319 15.5205 15.6216C15.4777 15.6112 15.4376 15.5923 15.4024 15.5658L14.751 15.0729C14.71 15.0399 14.6624 15.016 14.6114 15.0027C14.5604 14.9894 14.5072 14.987 14.4553 14.9958C14.3439 15.0172 14.211 15.0558 14.0824 15.1158C13.8896 15.2015 13.7096 15.3301 13.5767 15.5101C13.5328 15.5727 13.5103 15.6479 13.5124 15.7244V16.9286C13.5124 17.0401 13.4524 17.1429 13.3582 17.2029C13.1396 17.3315 12.7796 17.4858 12.3682 17.5286C11.9524 17.5715 11.4596 17.5115 11.0267 17.1858C10.9868 17.1558 10.9544 17.117 10.9321 17.0724C10.9098 17.0278 10.8982 16.9785 10.8982 16.9286V15.7415C10.8985 15.666 10.8788 15.5917 10.8412 15.5262C10.8035 15.4608 10.7493 15.4064 10.6839 15.3686L10.011 14.9829C9.93182 14.937 9.84 14.9176 9.74899 14.9276C9.65799 14.9376 9.57258 14.9766 9.5053 15.0386L8.72101 15.7672C8.67275 15.8104 8.61255 15.8381 8.5483 15.8465C8.48406 15.8549 8.41878 15.8437 8.36101 15.8144C8.0161 15.6344 7.70563 15.395 7.44387 15.1072C7.09291 14.7466 6.88827 14.2686 6.86958 13.7658C6.86958 13.6586 6.92101 13.5558 7.01101 13.5001L8.14244 12.6429ZM11.4596 8.6915V7.62007C11.4596 7.52578 11.481 7.44436 11.5239 7.37578C11.5667 7.30721 11.6224 7.25578 11.6867 7.21721C11.8153 7.14436 11.9696 7.11864 12.1067 7.1015C12.2567 7.08436 12.4624 7.08007 12.6296 7.14007C12.7153 7.16578 12.801 7.21293 12.861 7.28578C12.921 7.36293 12.9553 7.45721 12.9553 7.57293V8.47293C12.9553 8.49864 12.9553 8.52436 12.9682 8.54578C13.0753 8.88007 13.5853 9.40293 14.6824 9.58721C14.7467 9.59578 14.811 9.58293 14.8624 9.54436L15.3767 9.15007C15.531 9.03436 15.7539 9.00436 15.921 9.12864C16.0153 9.19721 16.1096 9.28293 16.191 9.38578C16.3196 9.54007 16.4267 9.7415 16.4653 9.98578C16.4953 10.1872 16.3667 10.3544 16.2082 10.4358L15.2696 10.9072C15.1924 10.9501 15.141 11.0272 15.141 11.1215V12.8786C15.141 12.9644 15.1839 13.0329 15.2482 13.0758L16.251 13.7529C16.3839 13.8429 16.4824 14.0015 16.4567 14.1772C16.4439 14.2929 16.4096 14.4129 16.3539 14.5329C16.2682 14.6958 16.1396 14.8586 15.9039 14.9701C15.7496 15.0429 15.5782 14.9958 15.4539 14.9058L14.8624 14.4558C14.8211 14.4267 14.7715 14.4117 14.721 14.4129C14.5067 14.4129 14.181 14.4601 13.8553 14.6058C13.4777 14.7668 13.1684 15.0549 12.981 15.4201C12.9641 15.4533 12.9553 15.49 12.9553 15.5272V16.4572C12.9553 16.6544 12.8396 16.8515 12.6339 16.9115C12.531 16.9415 12.4196 16.9629 12.3082 16.9758C12.1239 16.9972 11.9353 16.9886 11.751 16.9329C11.5539 16.8772 11.4596 16.6844 11.4596 16.5044V15.3044C11.4596 15.2229 11.4167 15.1458 11.3396 15.1029L9.80958 14.2201C9.76561 14.1952 9.71479 14.1851 9.66464 14.1912C9.61448 14.1974 9.56763 14.2195 9.53101 14.2544L8.75958 14.9658C8.6776 15.0472 8.56859 15.0956 8.45325 15.1019C8.3379 15.1083 8.22425 15.072 8.13387 15.0001C8.03616 14.9182 7.9445 14.8294 7.85958 14.7344C7.71815 14.5801 7.59815 14.4044 7.52101 14.2201C7.4353 14.0186 7.54244 13.8086 7.7053 13.7015L8.94815 12.8572C9.00387 12.8186 9.03815 12.7629 9.04672 12.6986C9.08958 12.4715 9.13244 12.1201 9.1453 11.7986V11.7772C9.14958 11.6401 9.15815 11.4815 9.14101 11.3358C9.13248 11.1932 9.07669 11.0574 8.98244 10.9501C8.85387 10.8215 8.67387 10.7058 8.46815 10.6029C8.32672 10.5301 8.18101 10.4615 8.0353 10.3972L7.84672 10.3115C7.65387 10.2215 7.53387 10.0072 7.59815 9.79293C7.62387 9.69007 7.66672 9.57864 7.71815 9.4715C7.7953 9.30864 7.90244 9.15007 8.04387 9.01293C8.21101 8.85436 8.45958 8.88436 8.61815 9.01293L9.54387 9.75864C9.62101 9.81864 9.72387 9.82721 9.80958 9.78007L11.3396 8.89721C11.4124 8.85436 11.4596 8.77721 11.4596 8.6915ZM11.5453 8.6915V7.62007C11.5453 7.29436 11.8496 7.21721 12.1153 7.1915C12.4153 7.15721 12.8696 7.17436 12.8696 7.57721V8.47293C12.8696 8.50721 12.8739 8.5415 12.8867 8.5715C13.011 8.94864 13.551 9.48436 14.6696 9.67293C14.7553 9.68578 14.841 9.66436 14.9139 9.60864L15.4282 9.22293C15.561 9.12436 15.7367 9.10293 15.8696 9.19721C15.9553 9.26578 16.0453 9.34293 16.1267 9.43721C16.2467 9.58721 16.3453 9.7715 16.3839 9.99864C16.401 10.1529 16.3067 10.2901 16.1696 10.3586L15.231 10.8301C15.1788 10.8576 15.1353 10.8989 15.105 10.9496C15.0748 11.0002 15.0591 11.0582 15.0596 11.1172V12.8829C15.0596 12.9901 15.111 13.0886 15.1967 13.1486L16.2039 13.8258C16.3196 13.9029 16.3924 14.0272 16.3753 14.1686C16.3582 14.2715 16.3282 14.3829 16.2767 14.4944C16.1996 14.6444 16.0796 14.7944 15.8696 14.8929C15.7496 14.9486 15.6124 14.9144 15.5053 14.8372L14.9139 14.3915C14.8588 14.3482 14.791 14.3242 14.721 14.3229C14.4982 14.3229 14.1553 14.3786 13.821 14.5286C13.4244 14.6982 13.0999 15.0015 12.9039 15.3858C12.8818 15.4297 12.87 15.4781 12.8696 15.5272V16.4572C12.8696 16.6286 12.771 16.7829 12.6124 16.8301C12.5139 16.8558 12.4067 16.8772 12.2996 16.8901C12.1239 16.9072 11.9439 16.8986 11.7767 16.8515C11.6267 16.8086 11.5453 16.6586 11.5453 16.5044V15.3044C11.5444 15.2484 11.5289 15.1937 11.5003 15.1456C11.4717 15.0975 11.4311 15.0577 11.3824 15.0301L9.85244 14.1429C9.79271 14.1081 9.72334 14.0935 9.65462 14.1012C9.58591 14.1089 9.52152 14.1386 9.47101 14.1858L8.69958 14.9015C8.63286 14.9678 8.54419 15.0075 8.45026 15.013C8.35633 15.0186 8.26362 14.9896 8.18958 14.9315C8.09495 14.8523 8.00615 14.7663 7.92387 14.6744C7.78946 14.5296 7.68075 14.3629 7.60244 14.1815C7.53815 14.0272 7.6153 13.8601 7.75244 13.7701L8.9953 12.9215C9.06815 12.8744 9.11958 12.7929 9.13244 12.7072C9.18344 12.398 9.21635 12.086 9.23101 11.7729C9.24387 11.4944 9.26101 11.1044 9.04244 10.8858C8.80672 10.6458 8.4253 10.4744 8.06958 10.3115L7.88101 10.2258C7.80345 10.1918 7.74056 10.1313 7.70363 10.0551C7.66671 9.97887 7.65818 9.892 7.67958 9.81007C7.7053 9.7115 7.74387 9.60864 7.7953 9.50578C7.86815 9.34721 7.96672 9.19721 8.09958 9.07293C8.22815 8.94864 8.4253 8.97007 8.56672 9.0815L9.48815 9.82293C9.5953 9.90436 9.73672 9.91293 9.85244 9.84864L11.3824 8.96578C11.4317 8.93783 11.4728 8.89734 11.5014 8.84842C11.53 8.79949 11.5451 8.74388 11.5453 8.68721V8.6915Z" fill="#05050D"/>
<path d="M10.071 11.3572C10.071 11.0144 10.2853 10.9286 10.4996 10.9286H10.9282C11.1424 10.9286 11.3567 11.0144 11.3567 11.3572C11.3567 11.7001 11.1424 11.7858 10.9282 11.7858H10.4996C10.2853 11.7858 10.071 11.7001 10.071 11.3572Z" fill="url(#paint4_linear_59_65368)"/>
<path fill-rule="evenodd" clip-rule="evenodd" d="M10.2596 11.0829C10.2039 11.1258 10.1567 11.2029 10.1567 11.3572C10.1567 11.5115 10.1996 11.5886 10.2596 11.6315C10.3298 11.6803 10.4142 11.7044 10.4996 11.7001H10.9282C11.0135 11.7044 11.098 11.6803 11.1682 11.6315C11.2239 11.5886 11.271 11.5115 11.271 11.3572C11.271 11.2029 11.2282 11.1258 11.1682 11.0829C11.098 11.0341 11.0135 11.01 10.9282 11.0144H10.4996C10.4142 11.01 10.3298 11.0341 10.2596 11.0829ZM10.4996 10.9286C10.2853 10.9286 10.071 11.0144 10.071 11.3572C10.071 11.7001 10.2853 11.7858 10.4996 11.7858H10.9282C11.1424 11.7858 11.3567 11.7001 11.3567 11.3572C11.3567 11.0144 11.1424 10.9286 10.9282 10.9286H10.4996Z" fill="#05050D"/>
<path d="M10.4996 11.3572C10.4996 11.1858 10.4996 10.9286 10.7139 10.9286C10.8853 10.9286 10.9282 11.2158 10.9282 11.3572C10.9282 11.4986 10.8853 11.7858 10.7139 11.7858C10.4996 11.7858 10.4996 11.5715 10.4996 11.3572Z" fill="#633E12"/>
<path fill-rule="evenodd" clip-rule="evenodd" d="M10.6067 11.1044C10.5853 11.1729 10.5853 11.2672 10.5853 11.3572C10.5853 11.4686 10.5853 11.5586 10.6067 11.6229C10.6196 11.6529 10.6282 11.6701 10.641 11.6829C10.6539 11.6915 10.6753 11.7001 10.7139 11.7001C10.7396 11.7001 10.7739 11.6786 10.8039 11.5972C10.8552 11.4413 10.8552 11.2731 10.8039 11.1172C10.7739 11.0315 10.7396 11.0144 10.7139 11.0144C10.6796 11.0144 10.6582 11.0229 10.6453 11.0358C10.6266 11.0548 10.6133 11.0785 10.6067 11.1044ZM10.7139 10.9286C10.4996 10.9286 10.4996 11.1858 10.4996 11.3572C10.4996 11.5715 10.4996 11.7858 10.7139 11.7858C10.8853 11.7858 10.9282 11.4986 10.9282 11.3572C10.9282 11.2158 10.8853 10.9286 10.7139 10.9286Z" fill="#05050D"/>
<path d="M12.8567 11.3572C12.8567 11.0144 13.071 10.9286 13.2853 10.9286H13.7139C13.9282 10.9286 14.1424 11.0144 14.1424 11.3572C14.1424 11.7001 13.9282 11.7858 13.7139 11.7858H13.2853C13.071 11.7858 12.8567 11.7001 12.8567 11.3572Z" fill="url(#paint5_linear_59_65368)"/>
<path fill-rule="evenodd" clip-rule="evenodd" d="M13.0453 11.0829C12.9896 11.1258 12.9424 11.2029 12.9424 11.3572C12.9424 11.5115 12.9853 11.5886 13.0453 11.6315C13.1155 11.6803 13.1999 11.7044 13.2853 11.7001H13.7139C13.7993 11.7044 13.8837 11.6803 13.9539 11.6315C14.0096 11.5886 14.0567 11.5115 14.0567 11.3572C14.0567 11.2029 14.0139 11.1258 13.9539 11.0829C13.8837 11.0341 13.7993 11.01 13.7139 11.0144H13.2853C13.1999 11.01 13.1155 11.0341 13.0453 11.0829ZM13.2853 10.9286C13.071 10.9286 12.8567 11.0144 12.8567 11.3572C12.8567 11.7001 13.071 11.7858 13.2853 11.7858H13.7139C13.9282 11.7858 14.1424 11.7001 14.1424 11.3572C14.1424 11.0144 13.9282 10.9286 13.7139 10.9286H13.2853Z" fill="#05050D"/>
<path d="M13.2853 11.3572C13.2853 11.1858 13.2853 10.9286 13.4996 10.9286C13.671 10.9286 13.7139 11.2158 13.7139 11.3572C13.7139 11.4986 13.671 11.7858 13.4996 11.7858C13.2853 11.7858 13.2853 11.5715 13.2853 11.3572Z" fill="#633E12"/>
<path fill-rule="evenodd" clip-rule="evenodd" d="M13.3924 11.1044C13.371 11.1729 13.371 11.2672 13.371 11.3572C13.371 11.4686 13.371 11.5586 13.3924 11.6229C13.4053 11.6529 13.4139 11.6701 13.4267 11.6829C13.4396 11.6915 13.461 11.7001 13.4996 11.7001C13.5253 11.7001 13.5596 11.6786 13.5896 11.5972C13.6409 11.4413 13.6409 11.2731 13.5896 11.1172C13.5596 11.0315 13.5253 11.0144 13.4996 11.0144C13.4653 11.0144 13.4439 11.0229 13.431 11.0358C13.4123 11.0548 13.399 11.0785 13.3924 11.1044ZM13.4996 10.9286C13.2853 10.9286 13.2853 11.1858 13.2853 11.3572C13.2853 11.5715 13.2853 11.7858 13.4996 11.7858C13.671 11.7858 13.7139 11.4986 13.7139 11.3572C13.7139 11.2158 13.671 10.9286 13.4996 10.9286Z" fill="#05050D"/>
<path d="M10.1996 12.8572H10.2853C10.2853 13.1101 10.4524 13.2001 10.7139 13.2001C10.9924 13.2001 11.2924 13.0544 11.5624 12.9858L11.5839 12.9815L11.601 12.9986C11.6696 13.0672 11.8496 13.2001 11.9996 13.2001C12.1496 13.2001 12.3296 13.0672 12.3982 12.9986L12.4153 12.9815L12.4367 12.9858C12.7067 13.0544 13.0067 13.2001 13.2853 13.2001C13.5467 13.2001 13.7139 13.0672 13.7139 12.8572H13.7996C13.7996 13.1144 13.5939 13.2858 13.2853 13.2858C13.0067 13.2858 12.7067 13.1444 12.441 13.0758C12.3553 13.1529 12.1839 13.2858 11.9996 13.2858C11.8196 13.2858 11.6439 13.1572 11.5582 13.0758C11.2924 13.1444 10.9924 13.2858 10.7139 13.2858C10.4053 13.2858 10.1996 13.1572 10.1996 12.8572ZM13.9282 13.7144H10.071V13.6286H13.9282V13.7144Z" fill="black"/>
<path d="M10.7139 13.2858L10.7139 13.7144H10.6282V13.2858H10.7139ZM11.1424 13.2858V13.7144H11.0567V13.2858H11.1424ZM11.571 13.2858V13.7144H11.4853V13.2858H11.571ZM11.9996 13.2858L11.9996 13.7144H11.9139V13.2858H11.9996ZM12.4282 13.2858V13.7144H12.3424V13.2858H12.4282ZM12.8567 13.2858V13.7144H12.771V13.2858H12.8567ZM13.2853 13.2858V13.7144H13.1996V13.2858H13.2853Z" fill="black"/>
<path d="M12.6424 13.9286H11.3567V14.5715C11.3567 14.9144 11.571 15.4286 11.9996 15.4286C12.4282 15.4286 12.6424 15.0001 12.6424 14.5715V13.9286Z" fill="#6C3F15"/>
<path d="M12.5567 14.0144H11.4424V14.5715C11.4424 14.7258 11.4939 14.9272 11.5882 15.0858C11.6867 15.2401 11.8239 15.3429 11.9996 15.3429C12.1796 15.3429 12.3167 15.2572 12.411 15.1115C12.5053 14.9701 12.5567 14.7729 12.5567 14.5715V14.0144ZM12.6424 13.9286V14.5715C12.6424 15.0001 12.4282 15.4286 11.9996 15.4286C11.571 15.4286 11.3567 14.9144 11.3567 14.5715V13.9286H12.6424Z" fill="black"/>
<path d="M11.9567 15.0001V13.9286H12.0424V15.0001H11.9567Z" fill="black"/>
<defs>
<linearGradient id="paint0_linear_59_65368" x1="12.9124" y1="5.16864" x2="9.26958" y2="18.6044" gradientUnits="userSpaceOnUse">
<stop stop-color="#FEFEFE"/>
<stop offset="0.14" stop-color="#FBE8A0"/>
<stop offset="0.34" stop-color="#F5CE35"/>
<stop offset="0.86" stop-color="#E8A109"/>
<stop offset="1" stop-color="#F0C31C"/>
</linearGradient>
<linearGradient id="paint1_linear_59_65368" x1="11.9996" y1="4.71436" x2="11.9996" y2="19.2858" gradientUnits="userSpaceOnUse">
<stop stop-color="#F7C65E"/>
<stop offset="0.51" stop-color="#AA7F20"/>
<stop offset="1" stop-color="#7E4B12"/>
</linearGradient>
<linearGradient id="paint2_linear_59_65368" x1="11.9996" y1="-2.57136" x2="11.9996" y2="19.2858" gradientUnits="userSpaceOnUse">
<stop stop-color="#E7BF72"/>
<stop offset="1" stop-color="#9F6A0E"/>
</linearGradient>
<linearGradient id="paint3_linear_59_65368" x1="11.9996" y1="-2.57136" x2="11.9996" y2="19.2858" gradientUnits="userSpaceOnUse">
<stop stop-color="#E7BF72"/>
<stop offset="1" stop-color="#9F6A0E"/>
</linearGradient>
<linearGradient id="paint4_linear_59_65368" x1="11.9996" y1="-2.57136" x2="11.9996" y2="12.0001" gradientUnits="userSpaceOnUse">
<stop offset="0.47" stop-color="#C18F20"/>
<stop offset="1" stop-color="#A86618"/>
</linearGradient>
<linearGradient id="paint5_linear_59_65368" x1="11.9996" y1="1.0715" x2="11.9996" y2="15.6429" gradientUnits="userSpaceOnUse">
<stop offset="0.47" stop-color="#C18F20"/>
<stop offset="1" stop-color="#A86618"/>
</linearGradient>
</defs>
</svg>
