<svg width="24" height="24" viewBox="0 0 24 24" fill="none" xmlns="http://www.w3.org/2000/svg">
<path d="M7.71401 7.7145H16.2854V11.5716H7.71401V7.7145Z" fill="#F934F3"/>
<path d="M8.14258 10.7145H9.85686V11.1431H8.14258V10.7145Z" fill="white"/>
<path d="M9.42829 5.14307H14.5711V6.00021H9.42829V5.14307Z" fill="#1F0448"/>
<path d="M9.42829 6.00021H14.5711V6.85735H9.42829V6.00021Z" fill="#FB74F7"/>
<path d="M7.71401 6.00021L9.42829 6.00021V6.85735H7.71401V6.00021ZM14.5711 6.00021L16.2854 6.00021V6.85735H14.5711V6.00021ZM14.5711 17.1431H16.2854V18.0002H14.5711V17.1431ZM7.71401 17.1431H9.42829V18.0002H7.71401V17.1431ZM16.2854 6.85735H17.1426V7.7145H16.2854L16.2854 6.85735ZM6.85686 6.85735H7.71401V7.7145H6.85686V6.85735Z" fill="#1F0448"/>
<path d="M8.57115 6.85735H9.42829L9.42829 7.7145H8.57115V6.85735Z" fill="#FB74F7"/>
<path d="M8.57115 7.7145H9.42829V8.57164H8.57115V7.7145Z" fill="#B400EF"/>
<path d="M7.71401 14.1431H16.2854V15.4704H7.71401V14.1431Z" fill="#8E16F8"/>
<path d="M15.4283 7.7145H14.5711V8.57164H15.4283V7.7145Z" fill="#FDB6FA"/>
<path d="M15.4283 6.85735H14.5711V7.7145H15.4283V6.85735Z" fill="#FB74F7"/>
<path d="M7.71401 8.57164L8.57115 8.57164L8.57115 9.42878H7.71401V8.57164Z" fill="#B400EF"/>
<path d="M16.2854 8.57164L15.4283 8.57164L15.4283 9.42878H16.2854V8.57164Z" fill="#FDB6FA"/>
<path d="M15.4283 16.2859H14.5711V17.1431L15.4283 17.1431V16.2859Z" fill="#FB74F7"/>
<path d="M15.4283 15.4288H14.5711V16.2859H15.4283V15.4288ZM16.2854 14.5716H15.4283V15.4288H16.2854V14.5716Z" fill="#FDB6FA"/>
<path d="M9.42829 15.4288H8.57115V16.2859H9.42829V15.4288Z" fill="#B400EF"/>
<path d="M7.71401 12.8574H16.2854V14.1431H7.71401V12.8574Z" fill="#AC14F8"/>
<path d="M7.71401 11.5716H16.2854V12.8574H7.71401V11.5716Z" fill="#CF14F8"/>
<path d="M8.57115 14.5716H7.71401V15.4288L8.57115 15.4288L8.57115 14.5716Z" fill="#B400EF"/>
<path d="M9.42829 16.2859H8.57115V17.1431L9.42829 17.1431V16.2859Z" fill="#FB74F7"/>
<path d="M16.2854 16.2859H17.1426V17.1431H16.2854V16.2859ZM6.85686 16.2859H7.71401L7.71401 17.1431H6.85686V16.2859ZM17.1426 7.7145H17.9997V9.42878H17.1426V7.7145ZM5.99972 7.7145H6.85686L6.85686 9.42878H5.99972V7.7145ZM17.1426 14.5716H17.9997V16.2859H17.1426V14.5716ZM5.99972 14.5716H6.85686V16.2859H5.99972V14.5716ZM17.9997 9.42878H18.8569V14.5716H17.9997V9.42878ZM5.14258 9.42878H5.99972V14.5716H5.14258V9.42878Z" fill="#1F0448"/>
<path d="M5.99972 9.42878H6.85686V14.5716H5.99972V9.42878Z" fill="#FB74F7"/>
<path d="M16.2854 9.42878L17.1426 9.42878V14.5716H16.2854L16.2854 9.42878Z" fill="#FDB6FA"/>
<path d="M6.85686 9.42878L7.71401 9.42878V14.5716H6.85686V9.42878Z" fill="#B400EF"/>
<path d="M17.1426 9.42878H17.9997V14.5716H17.1426V9.42878ZM6.85686 7.7145H7.71401V9.42878L6.85686 9.42878L6.85686 7.7145ZM7.71401 6.85864H8.57115V8.57292H7.71401V6.85864ZM15.4283 6.85735H16.2854V8.57164L15.4283 8.57164V6.85735ZM16.2854 7.7145H17.1426V9.42878L16.2854 9.42878L16.2854 7.7145ZM16.2854 14.5716H17.1426V16.2859H16.2854L16.2854 14.5716ZM6.85686 14.5716H7.71401L7.71401 16.2859H6.85686V14.5716ZM7.71401 15.4288L8.57115 15.4288V17.1431L7.71401 17.1431V15.4288ZM15.4283 15.4288H16.2854L16.2854 17.1431L15.4283 17.1431V15.4288Z" fill="#FB74F7"/>
<path d="M9.42829 6.85735H14.5711V7.7145H9.42829L9.42829 6.85735Z" fill="#B400EF"/>
<path d="M9.42829 18.0002H14.5711V18.8574H9.42829L9.42829 18.0002Z" fill="#1F0448"/>
<path d="M9.42829 17.1431H14.5711V18.0002H9.42829V17.1431Z" fill="#FB74F7"/>
<path d="M9.42829 16.2859L14.5711 16.2859V17.1431H9.42829V16.2859Z" fill="#FDB6FA"/>
<path d="M9.42829 15.4288L14.5711 15.4288V16.2859L9.42829 16.2859V15.4288Z" fill="#7D17F8"/>
<path d="M7.71401 12.8574V11.1431H8.14258L8.14258 12.8574L7.71401 12.8574ZM10.0711 13.2859V10.7145H10.4997V13.2859H10.0711ZM11.5711 13.2859V10.7145H11.9997V13.2859H11.5711ZM15.1287 13.2859V10.7145H15.5573V13.2859H15.1287ZM9.42829 12.8574V12.0002H9.85686V12.8574H9.42829ZM12.214 11.7859V11.1422H12.6426V11.7859H12.214ZM13.714 12.8574V12.2145H14.1426V12.8574H13.714ZM13.0711 10.7145V10.2859H13.4997V10.7145H13.0711ZM13.0711 13.7145V13.2859H13.4997V13.7145H13.0711Z" fill="white"/>
<path d="M8.57115 11.7859H9.85686V12.2145H8.57115V11.7859ZM10.4997 11.7859H11.5712V12.2145H10.4997V11.7859ZM14.3569 10.7145H16.2854V11.1431H14.3569V10.7145ZM12.6426 10.7145H14.1426V11.1431L12.6426 11.1422L12.6426 10.7145ZM12.6426 11.7859L13.714 11.7859L13.714 12.2145L12.6426 12.2145L12.6426 11.7859ZM12.214 12.8574H13.714L13.714 13.2859H12.214V12.8574ZM8.14258 12.8574H9.42829L9.42829 13.2859H8.14258L8.14258 12.8574Z" fill="white"/>
</svg>
