<svg width="24" height="24" viewBox="0 0 24 24" fill="none" xmlns="http://www.w3.org/2000/svg">
<path d="M9.95958 6H13.5896L13.6796 6.00857C14.5796 6.02571 15.4796 6.07286 16.3667 6.23571C16.8682 6.32571 17.3524 6.46286 17.8067 6.69429C18.0912 6.82594 18.346 7.0138 18.5559 7.24654C18.7658 7.47929 18.9265 7.75211 19.0282 8.04857C19.2124 8.59286 19.2853 9.15 19.2853 9.72V9.85714H16.2853L16.2724 9.56571C16.266 9.49328 16.2531 9.42156 16.2339 9.35143C16.0067 8.50286 14.6396 8.58 13.9582 8.57143C12.6124 8.57143 11.2624 8.57143 9.91672 8.58C9.1453 8.58857 8.39101 8.76 8.0053 9.49714C7.82115 9.87696 7.72172 10.2923 7.71387 10.7143H11.5282L11.421 10.7786C10.1867 11.5371 9.01244 12.3729 7.77815 13.1271C7.72672 13.1571 7.7053 13.1914 7.71387 13.2471C7.74815 13.5386 7.7653 13.83 7.81672 14.1171C7.87244 14.4557 7.96244 14.7514 8.2453 14.9743C8.45101 15.1329 8.6953 15.2314 8.95244 15.2829C9.43672 15.39 9.9253 15.4243 10.4182 15.4286H13.1696C13.7953 15.4286 14.4467 15.4071 15.0682 15.3086C15.6553 15.21 16.2682 14.9571 16.2853 14.2671C16.3024 13.8986 16.2853 13.6586 16.2853 13.2857H11.9996L12.2996 13.11C13.5467 12.3429 14.9867 11.4771 16.2382 10.7143H19.2853V10.8771C19.2853 11.5114 19.2724 12.1457 19.2724 12.7843C19.2724 13.3286 19.2682 13.8729 19.2124 14.4214C19.1696 14.8757 19.101 15.33 18.9553 15.7629C18.8531 16.1022 18.6841 16.4177 18.4581 16.6908C18.2322 16.9639 17.9538 17.189 17.6396 17.3529C17.2324 17.5671 16.791 17.7 16.3324 17.7814C15.5524 17.9271 14.7639 17.9829 13.9667 17.9914C12.9082 18 11.8496 17.9957 10.7953 18C10.0496 18 9.30387 18 8.56244 17.9229C8.08435 17.8838 7.61091 17.8006 7.14815 17.6743C6.62679 17.5568 6.14817 17.2972 5.76539 16.9242C5.3826 16.5513 5.11061 16.0796 4.97958 15.5614C4.84993 15.0781 4.77093 14.5826 4.74387 14.0829L4.71387 13.68V10.8L4.72244 10.7357C4.75244 10.3371 4.77387 9.94286 4.81672 9.54857C4.85958 9.12 4.94101 8.70429 5.08244 8.29714C5.33958 7.58143 5.77672 7.01571 6.46244 6.64286C6.94672 6.38571 7.4653 6.24857 8.0053 6.15857C8.61815 6.06429 9.22672 6.01714 9.84815 6.00429C9.89101 6.00857 9.9253 6.00429 9.95958 6Z" fill="url(#paint0_linear_59_65909)"/>
<path d="M7.38387 13.0286L7.48244 12.6471C7.49101 12.6043 7.51244 12.5786 7.5553 12.5571C8.29244 12.2143 9.02958 11.8714 9.75815 11.5157C10.6624 11.07 11.5624 10.6071 12.4582 10.1529L12.8396 9.96429C12.8567 9.95571 12.8782 9.94714 12.9039 9.95143L7.5853 13.2214C7.51672 13.1657 7.45672 13.11 7.38387 13.0586V13.0243V13.0286Z" fill="url(#paint1_linear_59_65909)"/>
<path d="M10.2424 14.3571C12.0939 13.2086 14.3867 11.8629 16.2424 10.7143C16.3324 10.8214 16.2639 11.0057 16.3496 11.1171C16.3753 11.1471 16.371 11.2029 16.3753 11.2457C16.3839 11.3186 16.4096 11.4 16.3796 11.4514C16.3496 11.4986 16.2639 11.52 16.1996 11.55C14.3353 12.4371 12.1024 13.4657 10.2424 14.3571Z" fill="url(#paint2_linear_59_65909)"/>
<defs>
<linearGradient id="paint0_linear_59_65909" x1="12.0082" y1="17.8543" x2="12.0082" y2="5.95714" gradientUnits="userSpaceOnUse">
<stop stop-color="#009C8B"/>
<stop offset="0.5" stop-color="#3F2D87"/>
<stop offset="1" stop-color="#AA2B87"/>
</linearGradient>
<linearGradient id="paint1_linear_59_65909" x1="11.9996" y1="34.9954" x2="11.9996" y2="-8.64864" gradientUnits="userSpaceOnUse">
<stop stop-color="#009C8B"/>
<stop offset="0.5" stop-color="#3F2D87"/>
<stop offset="1" stop-color="#AA2B87"/>
</linearGradient>
<linearGradient id="paint2_linear_59_65909" x1="13.4617" y1="17.8544" x2="13.4617" y2="5.95721" gradientUnits="userSpaceOnUse">
<stop stop-color="#009C8B"/>
<stop offset="0.5" stop-color="#3F2D87"/>
<stop offset="1" stop-color="#AA2B87"/>
</linearGradient>
</defs>
</svg>
