<svg width="24" height="24" viewBox="0 0 24 24" fill="none" xmlns="http://www.w3.org/2000/svg">
<path d="M18.7285 14.7855C19.1284 13.8961 19.3457 12.9355 19.3675 11.9606C19.3892 10.9857 19.2151 10.0163 18.8553 9.10991C18.4955 8.20354 17.9574 7.37862 17.273 6.68403C16.5885 5.98945 15.7715 5.43935 14.8705 5.06632C13.9695 4.6933 13.0028 4.50494 12.0277 4.51242C11.0525 4.5199 10.0888 4.72307 9.19365 5.10987C8.29848 5.49667 7.49007 6.05925 6.81633 6.76425C6.14259 7.46925 5.61724 8.30233 5.2714 9.21412C4.59955 10.9854 4.64407 12.9488 5.39552 14.6878C6.14696 16.4269 7.54623 17.8048 9.2966 18.5295C11.047 19.2542 13.0108 19.2686 14.7716 18.5696C16.5324 17.8707 17.9517 16.5134 18.7285 14.7855ZM16.8557 7.13983C17.5154 7.77258 18.0423 8.53063 18.4053 9.36957C18.7684 10.2085 18.9604 11.1115 18.97 12.0256C18.9797 12.9396 18.8068 13.8464 18.4615 14.6929C18.1163 15.5393 17.6055 16.3083 16.9593 16.9548C16.3131 17.6014 15.5443 18.1124 14.698 18.4581C13.8517 18.8037 12.945 18.977 12.0309 18.9677C11.1168 18.9585 10.2138 18.7669 9.37468 18.4042C8.53558 18.0415 7.7773 17.515 7.14426 16.8555C5.89953 15.5588 5.21257 13.8259 5.23075 12.0286C5.24893 10.2312 5.9708 8.51259 7.24151 7.24132C8.51221 5.97005 10.2305 5.24743 12.0279 5.22845C13.8252 5.20948 15.5584 5.89567 16.8557 7.13983ZM15.9771 9.01269L15.6257 8.74697C15.5743 8.7084 15.5828 8.69983 15.6428 8.71697C16.0714 8.83697 16.5085 8.82412 16.9414 8.68697C16.9635 8.68014 16.9831 8.66683 16.9976 8.64877C17.012 8.63071 17.0208 8.60872 17.0226 8.58564C17.0244 8.56257 17.0193 8.53947 17.0079 8.51933C16.9965 8.4992 16.9793 8.48295 16.9585 8.47269C16.1828 8.08269 15.0943 7.34983 14.8371 6.4884C14.6957 6.02126 14.5971 5.80269 14.1857 5.62269C13.5685 5.3484 13.2428 5.76412 12.9128 6.20126C12.9079 6.20759 12.9011 6.21223 12.8935 6.21454C12.8858 6.21684 12.8776 6.21669 12.87 6.21412C12.8624 6.21083 12.856 6.20545 12.8515 6.19861C12.8469 6.19177 12.8444 6.18376 12.8443 6.17554L12.8357 5.81983C12.8357 5.77697 12.8228 5.74269 12.8014 5.7084C12.3514 5.00554 11.1043 5.15983 11.1814 6.1584C11.1857 6.22269 11.1685 6.23126 11.1214 6.18412C11.0528 6.11126 10.9671 6.0084 10.8643 5.87983C10.4828 5.38269 9.78426 5.48126 9.41569 5.9484C9.31806 6.10777 9.2417 6.27922 9.18855 6.4584C8.87569 7.34126 7.97569 8.00983 7.1314 8.42126C6.97712 8.4984 6.96854 8.59269 7.10569 8.69983C7.13997 8.72554 7.22997 8.75126 7.36712 8.77697C7.70997 8.83269 8.04426 8.81126 8.36997 8.71697C8.48997 8.6784 8.49855 8.69555 8.3914 8.76412C8.30569 8.82412 8.19855 8.90555 8.07855 9.01269C8.03569 9.05126 8.01854 9.08126 8.02712 9.0984C8.03997 9.1284 8.06997 9.15412 8.10855 9.16697C8.14283 9.17983 8.18997 9.17983 8.23283 9.16697L8.90569 8.95697C8.96569 8.93983 8.97855 8.95697 8.93997 9.0084L8.85426 9.11983C8.82855 9.1584 8.83712 9.18412 8.87997 9.20126C9.16283 9.29983 9.7114 8.93555 9.91712 8.75983C9.92163 8.75597 9.92697 8.75319 9.93272 8.75173C9.93848 8.75027 9.94449 8.75016 9.9503 8.7514C9.95611 8.75265 9.96155 8.75521 9.9662 8.75891C9.97085 8.7626 9.97459 8.76731 9.97712 8.77269V8.79412C9.95997 8.8584 9.93426 8.92269 9.88712 8.96983C9.8614 8.99983 9.8614 9.02983 9.88712 9.05554C9.91283 9.08126 9.94283 9.08555 9.9814 9.07269C10.4143 8.89269 10.8728 7.98412 10.9928 7.4784C11.0571 7.1784 11.1428 6.99412 11.4514 6.95126C11.4596 6.95006 11.468 6.95057 11.476 6.95278C11.484 6.95498 11.4915 6.95882 11.4979 6.96406C11.5044 6.9693 11.5097 6.97582 11.5135 6.9832C11.5172 6.99059 11.5195 6.99868 11.52 7.00697C11.52 7.01983 11.52 7.03269 11.5114 7.04126L11.4 7.26412C11.3898 7.2809 11.3843 7.30018 11.3843 7.31983C11.3843 7.33948 11.3898 7.35876 11.4 7.37554C11.7428 7.98412 11.6657 8.49412 11.58 9.04697C11.5371 9.36412 11.4857 9.68983 11.5071 10.0627L11.6014 11.6741V11.687C11.5995 11.6913 11.5965 11.6952 11.5928 11.6981C11.589 11.7011 11.5847 11.7032 11.58 11.7041H11.5628C10.6464 11.5258 9.75241 11.247 8.89712 10.8727C8.4814 10.6927 7.94997 10.0927 8.6314 9.83555C9.1114 9.65555 9.48855 9.91269 9.8614 10.1698L10.0543 10.2984C10.2514 10.427 10.3243 10.3755 10.2771 10.1484C10.1271 9.44555 8.13426 9.2484 8.04855 10.3841C7.96283 11.507 9.77569 11.9655 10.6928 12.197L10.83 12.227C10.9928 12.2698 10.9928 12.317 10.83 12.3684C10.3501 12.5248 9.94054 12.8449 9.67283 13.2727C9.23569 13.9413 9.6814 14.1727 10.2728 14.3055C10.2808 14.3076 10.288 14.312 10.2936 14.3181C10.2992 14.3242 10.3029 14.3318 10.3042 14.34C10.3056 14.3481 10.3046 14.3565 10.3013 14.3641C10.298 14.3716 10.2926 14.3781 10.2857 14.3827C10.0071 14.5241 9.84854 14.6784 9.80569 14.8455C9.64283 15.497 10.6457 15.7927 11.1043 15.8741C11.1144 15.8755 11.124 15.88 11.1316 15.8868C11.1392 15.8937 11.1446 15.9027 11.1471 15.9127C11.1497 15.9227 11.1494 15.9331 11.1464 15.943C11.1434 15.9528 11.1377 15.9616 11.13 15.9684C10.6114 16.4055 10.3328 17.057 10.0843 17.6398L10.0714 17.6784C9.98997 17.8627 10.0157 17.8755 10.14 17.7213L10.2514 17.5798C10.6371 17.0955 11.1685 16.4313 11.7085 16.1784C11.7206 16.1728 11.7338 16.1702 11.747 16.1709C11.7602 16.1715 11.7731 16.1754 11.7845 16.1821C11.7959 16.1889 11.8055 16.1983 11.8124 16.2096C11.8193 16.2209 11.8234 16.2337 11.8243 16.247L11.8543 16.8855C11.8552 16.9167 11.8456 16.9472 11.8269 16.9722C11.8082 16.9971 11.7816 17.0149 11.7514 17.0227C11.3228 17.1427 11.2928 17.8198 11.7085 17.9998C12.5143 18.3555 12.9985 17.3141 12.2057 16.9713C12.1843 16.9627 12.1714 16.9413 12.1714 16.9198L12.2271 16.1655C12.2269 16.16 12.2283 16.1545 12.231 16.1496C12.2338 16.1448 12.2378 16.1408 12.2427 16.1381C12.2476 16.1354 12.2532 16.1342 12.2587 16.1345C12.2643 16.1348 12.2697 16.1366 12.2743 16.1398C12.8828 16.4827 13.3371 17.0398 13.7571 17.567L13.8428 17.6655C13.9457 17.7984 13.9714 17.7855 13.9157 17.6227C13.7136 16.9953 13.3604 16.4272 12.8871 15.9684C12.8485 15.9255 12.8571 15.8998 12.9128 15.8827H12.9343C13.3071 15.7798 14.0314 15.5827 14.1943 15.2055C14.34 14.8713 14.04 14.4984 13.7528 14.3955C13.6457 14.357 13.6457 14.327 13.7571 14.3013H13.7657C14.1557 14.207 14.6571 14.087 14.4943 13.5384C14.3271 12.9813 13.6371 12.5098 13.14 12.3384C13.0414 12.3041 13.0457 12.2741 13.1443 12.2441C13.9328 12.0384 14.79 11.8113 15.4843 11.3613C16.0843 10.9713 16.2557 9.86983 15.3985 9.65983C14.7728 9.50983 14.07 9.55269 13.7228 10.187C13.6671 10.2855 13.6971 10.337 13.8085 10.337C13.8943 10.337 13.9928 10.2941 14.1128 10.2041C14.3143 10.0541 14.5285 9.93412 14.76 9.8484C15.4328 9.59126 16.1571 10.1784 15.3771 10.7313C14.8157 11.1341 13.7528 11.3998 12.9085 11.6141C12.7655 11.6463 12.6227 11.6792 12.48 11.7127C12.4694 11.7096 12.4596 11.7041 12.4515 11.6967C12.4433 11.6893 12.4369 11.6801 12.4328 11.6698C12.6753 10.8182 12.6753 9.91576 12.4328 9.06412C12.3728 8.69126 12.3171 8.33554 12.3643 8.02697C12.3814 7.9284 12.4628 7.70983 12.6085 7.37554C12.6244 7.33906 12.6274 7.29826 12.6171 7.25983C12.5914 7.17412 12.5571 7.10126 12.5057 7.03269C12.4714 6.98983 12.4843 6.9684 12.54 6.9684C12.7971 6.97269 12.9514 7.07554 12.9985 7.2684C13.1348 7.9187 13.4494 8.51822 13.9071 8.99983C13.9585 9.05126 14.0314 9.07269 14.1171 9.05983C14.1256 9.05825 14.1335 9.05412 14.1396 9.048C14.1457 9.04188 14.1498 9.03405 14.1514 9.02554C14.1539 9.01688 14.1535 9.00767 14.1504 8.9992C14.1474 8.99074 14.1417 8.98346 14.1343 8.9784C14.1145 8.96294 14.0982 8.94351 14.0864 8.92137C14.0746 8.89922 14.0675 8.87486 14.0657 8.84983C14.0528 8.72983 14.0914 8.7084 14.1814 8.79412C14.43 9.02983 14.7214 9.17126 15.0643 9.22269C15.0803 9.2263 15.097 9.22522 15.1125 9.21958C15.1279 9.21394 15.1414 9.20397 15.1514 9.19087C15.1613 9.17777 15.1673 9.16209 15.1685 9.14569C15.1698 9.12929 15.1663 9.11288 15.1585 9.0984C15.1431 9.05713 15.1125 9.02336 15.0728 9.00412C15.0343 8.98269 15.0343 8.96554 15.0771 8.95269H15.1243C15.3343 9.0384 15.5528 9.10697 15.7671 9.1584C15.8528 9.17555 15.9171 9.17126 15.9643 9.14126C15.9762 9.13493 15.9863 9.12574 15.9938 9.11452C16.0013 9.1033 16.0059 9.0904 16.0071 9.07697C16.0076 9.06464 16.0052 9.05236 15.9999 9.04118C15.9947 9.02999 15.9869 9.02022 15.9771 9.01269ZM11.4728 5.78554H11.4471L11.4257 5.75554C11.4128 5.74269 11.4128 5.72554 11.43 5.71269C11.8285 5.4084 12.2228 5.41269 12.6171 5.72554V5.7384L12.5957 5.76412C12.5828 5.78126 12.57 5.78554 12.5528 5.77269C12.3965 5.65566 12.2059 5.59349 12.0106 5.59582C11.8154 5.59814 11.6263 5.66483 11.4728 5.78554ZM10.5557 6.77983C10.5356 6.74045 10.5062 6.70661 10.47 6.68126C10.3585 6.59554 10.2643 6.62554 10.1957 6.76697C10.0928 6.98126 10.0243 6.9684 9.98997 6.73269C9.9814 6.66412 10.0457 6.60412 10.1871 6.54412C10.7571 6.30412 10.8171 6.88697 10.6585 7.25126C10.6417 7.28955 10.6111 7.32013 10.5728 7.33697C10.4357 7.40126 10.2943 7.42269 10.1443 7.40554C10.1014 7.40554 10.0757 7.4184 10.0585 7.46126C9.92997 7.76126 9.72855 8.00555 9.46283 8.18983C9.32997 8.28412 9.31712 8.27554 9.43283 8.16412L9.4414 8.15555C9.68569 7.91983 9.82712 7.78697 9.95569 7.38412C9.97283 7.34554 9.95569 7.32412 9.9214 7.31126L9.88283 7.30269C9.87092 7.29905 9.85825 7.29872 9.84617 7.30174C9.83409 7.30476 9.82306 7.31102 9.81426 7.31983C9.5216 7.5881 9.18907 7.8093 8.82855 7.97555C8.80712 7.98412 8.79426 7.97983 8.78569 7.96697C8.7814 7.94983 8.78569 7.94126 8.79855 7.93269C9.18844 7.75772 9.51795 7.47145 9.74569 7.10983C9.75541 7.0931 9.76123 7.07439 9.76271 7.0551C9.7642 7.0358 9.76131 7.01642 9.75426 6.9984C9.60855 6.6384 9.8614 5.99983 10.3071 6.13697C10.3843 6.1584 10.3843 6.17983 10.3071 6.20983C9.41569 6.49697 9.89997 7.52983 10.4743 7.12269C10.5274 7.08538 10.5653 7.0302 10.581 6.96723C10.5967 6.90427 10.5893 6.83774 10.56 6.77983H10.5557ZM13.4443 7.33269C13.4342 7.34367 13.4268 7.35689 13.4228 7.37126L13.3928 7.47412L13.3885 7.48697C13.3859 7.48253 13.3831 7.47824 13.38 7.47412C13.369 7.41231 13.3561 7.35085 13.3414 7.28983C13.29 6.98983 13.2128 6.54412 13.5643 6.50126C13.7143 6.48412 13.8385 6.52697 13.9457 6.62983C14.0271 6.71126 14.0314 6.7884 13.9585 6.86555C13.953 6.87125 13.9463 6.87578 13.9389 6.87887C13.9316 6.88196 13.9237 6.88355 13.9157 6.88355C13.9077 6.88355 13.8998 6.88196 13.8924 6.87887C13.8851 6.87578 13.8784 6.87125 13.8728 6.86555C13.8655 6.85982 13.8597 6.85249 13.8557 6.84412C13.8043 6.69412 13.6971 6.64697 13.5343 6.6984C13.5185 6.70321 13.5042 6.71207 13.493 6.72411C13.4817 6.73614 13.4738 6.75092 13.47 6.76697C13.3114 7.36697 14.3614 7.39697 14.2114 6.64269C14.1557 6.3684 13.9714 6.22697 13.6628 6.22269C13.6457 6.22269 13.6371 6.21412 13.6414 6.19697V6.14554C13.6414 6.11554 13.6543 6.10269 13.6843 6.10269C14.3485 6.15412 14.3271 6.57412 14.2843 7.09269C14.2757 7.13554 14.2928 7.1784 14.3228 7.21269C14.58 7.51269 14.8843 7.76126 15.24 7.94126C15.2571 7.94983 15.2657 7.9584 15.2614 7.96697C15.2528 7.97983 15.2443 7.98412 15.2314 7.97983C14.9092 7.84753 14.6131 7.65887 14.3571 7.42269C14.1043 7.19554 14.0271 7.24269 14.1257 7.57269C14.2001 7.80096 14.3619 7.99048 14.5757 8.09983C14.5783 8.10439 14.5797 8.10956 14.5797 8.11483C14.5797 8.1201 14.5783 8.12527 14.5757 8.12983L14.5714 8.14269C14.5668 8.14685 14.5611 8.14949 14.5549 8.15026C14.5488 8.15103 14.5426 8.14988 14.5371 8.14697C14.4158 8.08317 14.3086 7.99567 14.2217 7.88967C14.1348 7.78366 14.0701 7.6613 14.0314 7.52983C14.0154 7.48477 13.9847 7.44636 13.9443 7.42073C13.9039 7.3951 13.8561 7.38372 13.8085 7.3884C13.7219 7.39841 13.6347 7.37546 13.5643 7.32412C13.5462 7.31101 13.524 7.30507 13.5018 7.30745C13.4796 7.30983 13.4591 7.32035 13.4443 7.33697V7.33269ZM10.1443 13.6541C10.537 13.2565 11.0189 12.9582 11.55 12.7841C11.6314 12.7584 11.67 12.7841 11.6785 12.8698L11.7128 13.7613C11.7128 13.8427 11.6785 13.8813 11.5971 13.8813L11.2457 13.8941C10.8814 13.9198 10.4443 13.9455 10.1785 13.8298C10.0843 13.787 10.0757 13.727 10.1485 13.6541H10.1443ZM13.9114 13.8041C13.9054 13.8101 13.8981 13.8145 13.89 13.817C13.53 13.9413 13.11 13.9155 12.7114 13.8941L12.39 13.877C12.3471 13.877 12.3257 13.8555 12.33 13.8127L12.3557 12.8398C12.3557 12.7713 12.3943 12.7498 12.4585 12.7755C12.9814 12.9684 13.5943 13.2727 13.9157 13.7355C13.9212 13.7428 13.9249 13.7512 13.9264 13.7602C13.9279 13.7692 13.9271 13.7784 13.9243 13.787L13.9114 13.8041ZM11.6914 14.387L11.7685 15.4413C11.7702 15.447 11.7698 15.4531 11.7675 15.4586C11.7651 15.464 11.761 15.4685 11.7557 15.4713H11.73C11.3271 15.5013 10.9371 15.4713 10.6457 15.3898C10.3543 15.3084 10.1828 15.1798 10.1743 15.0341V15.0255C10.1657 14.9527 10.2 14.8755 10.2685 14.8027C10.3414 14.7341 10.4485 14.6655 10.5857 14.6013C10.7228 14.5413 10.8857 14.4898 11.07 14.447C11.2543 14.4041 11.4514 14.3784 11.6485 14.3613H11.6614C11.667 14.3609 11.6725 14.3624 11.6771 14.3655C11.6818 14.3686 11.6853 14.3731 11.6871 14.3784V14.387H11.6914ZM12.27 15.4455L12.3471 14.3913C12.3476 14.387 12.349 14.3828 12.3512 14.3791C12.3534 14.3754 12.3564 14.3723 12.36 14.3698C12.3651 14.3667 12.3711 14.3652 12.3771 14.3655H12.3943C12.7885 14.3955 13.1657 14.4813 13.4357 14.6055C13.7057 14.7298 13.8557 14.8798 13.8428 15.0255V15.0341C13.83 15.1798 13.6628 15.3127 13.3757 15.3941C13.0885 15.4798 12.7071 15.5055 12.3085 15.4798H12.2957C12.2886 15.4778 12.2825 15.4732 12.2785 15.467C12.2758 15.4641 12.2736 15.4608 12.2721 15.4571C12.2706 15.4534 12.2699 15.4495 12.27 15.4455ZM12.2443 17.3013C12.2067 17.3096 12.1675 17.3051 12.1328 17.2884C12.1046 17.2759 12.0734 17.2714 12.0428 17.2755L11.7857 17.3098C11.7815 17.3119 11.7769 17.313 11.7723 17.313C11.7677 17.313 11.7631 17.3119 11.7589 17.3098C11.7548 17.3077 11.7511 17.3047 11.7484 17.301C11.7456 17.2973 11.7437 17.293 11.7428 17.2884C11.7408 17.2842 11.7397 17.2797 11.7397 17.275C11.7397 17.2704 11.7408 17.2658 11.7429 17.2616C11.7449 17.2575 11.748 17.2539 11.7517 17.2511C11.7554 17.2483 11.7597 17.2464 11.7643 17.2455C11.9271 17.177 12.0857 17.1727 12.2485 17.2413C12.3171 17.267 12.3171 17.2884 12.2485 17.3013H12.2443ZM7.92854 7.08412C6.99204 7.88787 6.30542 8.94311 5.94996 10.1249C5.5945 11.3068 5.58509 12.5657 5.92283 13.7527C6.44569 15.5784 7.66283 16.8384 9.23997 17.837C9.4114 17.9398 9.39854 17.9655 9.20569 17.9055C6.73712 17.1641 5.28855 14.3055 5.32283 11.9098C5.33222 10.8445 5.60765 9.79842 6.12408 8.86659C6.64051 7.93477 7.38159 7.14674 8.27997 6.57412C8.42997 6.47554 8.56712 6.40269 8.68712 6.36412C8.81997 6.32126 8.83283 6.34269 8.72569 6.43269C8.46855 6.63412 8.20712 6.8484 7.92854 7.08412ZM17.5371 8.81126C18.9943 11.5113 18.4971 14.7427 16.1743 16.7998C15.7154 17.2081 15.2238 17.578 14.7043 17.9055L14.7085 17.9441H14.7171C17.6014 17.0441 19.0843 13.757 18.6171 10.9284C18.463 9.99783 18.1063 9.11248 17.5724 8.3349C17.0384 7.55731 16.3402 6.90649 15.5271 6.4284C15.452 6.38872 15.3677 6.36951 15.2828 6.37269C15.2271 6.37269 15.2228 6.38554 15.2657 6.41554C16.2085 7.10126 16.9885 7.79126 17.5371 8.81126ZM10.8814 10.5855C10.8438 10.3556 10.7423 10.1408 10.5884 9.96573C10.4346 9.79068 10.2346 9.6624 10.0114 9.59554C9.87426 9.55269 9.87426 9.50126 10.0114 9.4584C10.2128 9.38554 10.4143 9.45412 10.6114 9.65983C10.9414 10.0198 11.0314 10.4313 10.8771 10.8898C10.8643 10.9327 10.8343 10.9627 10.7957 10.9755C10.59 11.0613 10.3757 11.0955 10.1614 11.0955C10.1407 11.0953 10.1205 11.089 10.1032 11.0775C10.086 11.0659 10.0725 11.0497 10.0643 11.0306C10.0562 11.0116 10.0537 10.9906 10.0572 10.9701C10.0608 10.9497 10.0702 10.9307 10.0843 10.9155C10.1185 10.8813 10.1314 10.847 10.1271 10.8084C10.1267 10.7886 10.1198 10.7694 10.1074 10.7539C10.095 10.7384 10.0778 10.7274 10.0585 10.7227L9.84426 10.6755C9.57855 10.6113 9.24426 10.5384 9.15426 10.3113C9.14059 10.2747 9.13717 10.235 9.1444 10.1966C9.15162 10.1582 9.1692 10.1226 9.19523 10.0934C9.22127 10.0643 9.25477 10.0429 9.29211 10.0314C9.32946 10.0199 9.36923 10.0189 9.40712 10.0284C9.49712 10.0498 9.55712 10.1098 9.57855 10.1998C9.58384 10.2202 9.59347 10.2391 9.60679 10.2554C9.62011 10.2717 9.63679 10.2849 9.65569 10.2941L9.82712 10.3798C10.0414 10.4741 10.29 10.5941 10.3843 10.7527C10.3924 10.7674 10.4054 10.7789 10.421 10.7851C10.4366 10.7914 10.4539 10.792 10.47 10.787L10.8343 10.6713C10.8771 10.6584 10.89 10.6284 10.8814 10.5855ZM13.56 10.7827L13.2814 10.7055C13.2436 10.6954 13.2112 10.671 13.1912 10.6373C13.1712 10.6037 13.1651 10.5636 13.1743 10.5255C13.2155 10.3222 13.308 10.1328 13.443 9.97529C13.578 9.81777 13.7511 9.69738 13.9457 9.62554C14.1214 9.55697 14.1171 9.49697 13.9328 9.44555C13.7743 9.40269 13.6114 9.47126 13.4357 9.65126C13.1357 9.95554 13.0328 10.3455 13.1143 10.817C13.1204 10.8516 13.1349 10.8841 13.1566 10.9118C13.1783 10.9394 13.2064 10.9613 13.2385 10.9755C13.4314 11.0613 13.6285 11.0998 13.8385 11.0827C13.861 11.0807 13.8825 11.0729 13.9009 11.06C13.9194 11.047 13.9341 11.0295 13.9437 11.0091C13.9532 10.9887 13.9573 10.9662 13.9553 10.9437C13.9534 10.9213 13.9457 10.8998 13.9328 10.8813C13.8814 10.8084 13.92 10.7527 14.0571 10.7098L14.1943 10.6755C14.4685 10.607 14.8628 10.5127 14.88 10.2255C14.8825 10.1981 14.879 10.1704 14.8699 10.1444C14.8608 10.1183 14.8462 10.0946 14.8271 10.0747C14.808 10.0548 14.7849 10.0392 14.7592 10.029C14.7336 10.0188 14.7061 10.0142 14.6785 10.0155C14.6413 10.0184 14.6056 10.0318 14.5757 10.0541C14.5114 10.097 14.4643 10.1527 14.43 10.2127C14.4094 10.2533 14.3763 10.2864 14.3357 10.307L13.7871 10.5855C13.7482 10.605 13.7166 10.6366 13.6971 10.6755L13.6671 10.7355C13.6414 10.7784 13.6071 10.7955 13.56 10.7827Z" fill="#1F054C"/>
</svg>
