<svg width="24" height="24" viewBox="0 0 24 24" fill="none" xmlns="http://www.w3.org/2000/svg">
<path d="M10.9326 11.5928L10.8297 11.4514L10.8726 11.4256L10.9711 11.5671L10.9326 11.5928ZM13.0883 11.2628L12.8997 11.1942L12.9169 11.1514L13.1011 11.2199L13.0883 11.2628ZM13.3497 11.5542L13.0669 11.4599L13.084 11.4171L13.3626 11.5071L13.3497 11.5499V11.5542ZM11.9997 11.1299L11.9183 11.0614L11.9483 11.0271L12.034 11.0956L12.004 11.1299H11.9997ZM11.6611 11.2671H11.464V11.2199H11.6611V11.2671ZM13.0369 11.0399L12.6211 10.8556L12.6426 10.8128L13.054 10.9971L13.0369 11.0399ZM10.8854 11.1085L10.714 11.2028L10.6883 11.1642L10.8597 11.0699L10.8854 11.1128V11.1085ZM11.4726 11.9142H11.1083V11.8671H11.4726V11.9142ZM10.4869 11.9185L10.3411 11.7599L10.3754 11.7299L10.5211 11.8885L10.4869 11.9185ZM12.9383 10.5171C12.7554 10.4008 12.5539 10.3167 12.3426 10.2685L12.3554 10.2256C12.4669 10.2471 12.7497 10.3328 12.964 10.4828L12.9383 10.5171ZM11.344 10.4785C11.1426 10.5385 10.9669 10.6456 10.9069 10.6885L10.8769 10.6499C10.9411 10.6071 11.1211 10.4999 11.3311 10.4356L11.344 10.4785Z" fill="white"/>
<path d="M11.6483 10.4142C12.1369 10.3714 13.2211 10.5214 13.6197 11.4942C13.4611 11.3099 13.1312 10.5942 11.6483 10.4142ZM12.2912 12.4456C12.0695 12.4572 11.8485 12.413 11.6483 12.3171C11.7597 12.3299 12.034 12.3514 12.2912 12.3514C12.5483 12.3514 12.964 12.1756 13.1354 12.0899C12.8996 12.2962 12.6035 12.4209 12.2912 12.4456Z" fill="white"/>
<path fill-rule="evenodd" clip-rule="evenodd" d="M18.8569 8.1385L11.9997 4.28564L5.14258 8.1385V15.8399L11.9997 19.7142L18.8569 15.8399V8.1385ZM17.1426 8.57136L12.4283 5.99993V10.0714C12.214 9.99422 12.1583 10.0456 11.914 10.0456C11.734 10.0456 11.7426 9.81422 11.5711 9.85707V5.99993L6.85686 8.57136L10.4997 10.4999C10.1826 10.7571 9.97258 10.9628 9.85686 11.3571L6.42829 9.4285V14.5714L9.85686 12.6428C9.94258 13.0456 9.98972 13.2256 10.2854 13.4999L6.85686 15.4285L11.5711 17.9999V14.1428C11.7426 14.1856 11.734 14.1428 11.914 14.1428C12.1583 14.1428 12.214 14.2199 12.4283 14.1428V17.9999L17.1426 15.4285L13.414 13.4699C13.7012 13.18 13.8926 12.8091 13.9626 12.4071L17.5711 14.5714V9.4285L14.1426 11.3571C14.044 10.9585 13.7997 10.7656 13.4997 10.4999L17.1426 8.57136Z" fill="#76928C"/>
<path d="M13.3712 12.2142C12.9445 12.4888 12.4471 12.6332 11.9397 12.6299C11.3011 12.6299 10.7226 12.4156 10.294 12.0599L10.2854 12.1971C10.6197 12.3814 11.254 12.6899 11.5754 12.6899C11.8369 12.6899 12.0426 12.6728 12.2011 12.6556C12.3083 12.6471 12.3983 12.6385 12.4754 12.6385C11.7597 13.0199 10.7483 12.5956 10.2897 12.3171C10.3497 13.0971 11.0954 13.7142 11.9997 13.7142C12.9426 13.7142 13.714 13.0414 13.714 12.2142C13.714 12.1414 13.7097 12.0685 13.6969 11.9999C13.4697 12.5656 12.694 12.7714 12.3254 12.8014C12.3897 12.7671 12.4669 12.7371 12.5526 12.7071C12.7111 12.6428 12.9083 12.5699 13.1226 12.4199C13.204 12.3642 13.2897 12.2914 13.3712 12.2142Z" fill="white"/>
<path d="M11.3397 9.85707C11.2583 9.6985 11.254 9.21422 11.854 8.35707C12.1754 7.86422 12.2397 7.32422 12.2397 6.85707L12.2997 7.00279C12.4283 7.30707 12.514 7.52136 12.514 7.81707C12.514 8.12993 12.4283 8.48136 12.3511 8.81136C12.334 8.89707 12.0897 9.83564 12.2783 9.85707C12.2869 9.77136 12.3426 9.5485 12.5183 9.3685C12.6211 9.26136 12.754 9.16707 12.8997 9.0685C13.0583 8.96136 13.2254 8.84993 13.3669 8.69993C13.5812 8.47279 13.654 8.36136 13.6454 8.33565C13.6797 8.38279 13.7183 8.48136 13.714 8.61422C13.7097 8.75564 13.6154 8.93993 13.4569 9.14993C13.0754 9.66422 12.9983 9.86564 13.0283 10.0414C13.084 9.86993 13.4397 9.48422 14.4597 9.28707C14.968 9.14715 15.424 8.86103 15.7711 8.46422L15.7154 8.61422C15.6321 8.88283 15.4934 9.13102 15.3083 9.34279C15.094 9.57422 14.794 9.77136 14.5112 9.95993L14.494 9.9685C14.2112 10.1571 13.9454 10.3328 13.7483 10.6114C13.8297 10.5556 14.014 10.4656 14.2454 10.4656C14.3954 10.4656 14.554 10.5042 14.7254 10.5385C14.9097 10.5814 15.1111 10.6242 15.3126 10.6242C15.6254 10.6242 15.7283 10.5728 15.7411 10.5471C15.724 10.6756 15.5569 10.9414 15.0511 11.0014C14.4169 11.0785 14.2197 11.1599 14.1169 11.3014C14.2711 11.2242 14.7983 11.2156 15.6469 11.8242C16.1397 12.1456 16.6754 12.2099 17.1426 12.2099L16.9969 12.2699C16.6926 12.3985 16.4826 12.4842 16.1869 12.4842C15.874 12.4842 15.5226 12.3985 15.1926 12.3256C14.8154 12.2356 14.5069 12.1456 14.284 12.2056C14.2254 12.2297 14.1759 12.2717 14.1426 12.3256C14.2454 12.3514 14.3997 12.4156 14.5454 12.5528C14.6526 12.6556 14.7469 12.7928 14.8454 12.9385C14.9526 13.0928 15.064 13.2599 15.214 13.4014C15.4411 13.6156 15.5526 13.6499 15.5783 13.6414C15.4797 13.7185 15.1754 13.7999 14.764 13.4956C14.7126 13.4528 13.984 12.8999 13.8854 13.0756C14.0569 13.1399 14.434 13.4999 14.6354 14.5028C14.7649 15.0207 15.0401 15.4906 15.4283 15.8571L15.2826 15.8014C15.0187 15.7056 14.7789 15.5535 14.5797 15.3556C14.3526 15.1414 14.1511 14.8414 13.9669 14.5585C13.7526 14.2414 13.564 13.9499 13.3669 13.8299C13.414 13.9285 13.4569 14.0699 13.4569 14.2371C13.4569 14.3871 13.4226 14.5456 13.3883 14.7171C13.3454 14.9014 13.3111 15.0942 13.3111 15.2999C13.3111 15.6128 13.354 15.7242 13.3797 15.7371C13.2511 15.7156 12.9854 15.5528 12.9254 15.0428C12.8526 14.4256 12.7711 14.2242 12.6383 14.1171H12.6297C12.7026 14.2885 12.694 14.8071 12.1069 15.6428C11.835 16.0946 11.701 16.6159 11.7211 17.1428L11.6611 16.9971C11.5369 16.6928 11.4469 16.4785 11.4469 16.1828C11.4469 15.8699 11.5326 15.5185 11.6097 15.1885C11.7113 14.8749 11.7477 14.5438 11.7169 14.2156C11.7169 14.1942 11.7126 14.1771 11.6826 14.1728C11.6697 14.2714 11.6054 14.4642 11.4469 14.6314C11.344 14.7385 11.2069 14.8328 11.0611 14.9314C10.894 15.0372 10.7388 15.1607 10.5983 15.2999C10.384 15.5271 10.3454 15.6385 10.3583 15.6642C10.2811 15.5656 10.1997 15.2571 10.504 14.8499C10.8897 14.3356 10.9626 14.1342 10.9326 13.9585C10.8811 14.1299 10.5211 14.5156 9.50115 14.7128C8.98898 14.816 8.51734 15.0645 8.14258 15.4285L8.20258 15.2828C8.31829 14.9742 8.45115 14.8671 8.65258 14.6528C8.86686 14.4256 9.16686 14.2242 9.45401 14.0399C9.75053 13.8549 10.0153 13.6234 10.2383 13.3542C10.1526 13.4099 9.97686 13.4914 9.75401 13.4914C9.60401 13.4914 9.44544 13.4571 9.27401 13.4185C9.08972 13.3756 8.88829 13.3328 8.68686 13.3328C8.37401 13.3328 8.27115 13.3842 8.25829 13.4099C8.27544 13.2814 8.44258 13.0156 8.94829 12.9556C9.58258 12.8785 9.75401 12.7971 9.85686 12.6556C9.70258 12.7328 9.20115 12.7414 8.35686 12.1328C7.90556 11.8598 7.38388 11.7256 6.85686 11.7471L7.00258 11.6871C7.30686 11.5585 7.51686 11.4728 7.81258 11.4728C8.12544 11.4728 8.47686 11.5585 8.80686 11.6356C9.18401 11.7214 9.53544 11.8071 9.74972 11.7471C9.80544 11.7471 9.80115 11.7042 9.82258 11.6871C9.67889 11.6214 9.54243 11.541 9.41543 11.4471C9.3021 11.3294 9.20154 11.2002 9.11544 11.0614C9.01258 10.9071 8.90115 10.7399 8.74686 10.5985C8.51972 10.3842 8.40829 10.3499 8.38258 10.3585C8.48115 10.2814 8.78544 10.1999 9.19686 10.5042C9.71115 10.8814 9.90829 10.9585 10.084 10.9242C9.91686 10.8771 9.52686 10.5214 9.32544 9.49707C9.209 8.98268 8.94718 8.51259 8.57115 8.14279C8.62258 8.16422 8.66972 8.18564 8.71686 8.1985C9.02544 8.3185 9.17115 8.44279 9.38115 8.64422C9.60829 8.8585 9.80972 9.1585 9.99829 9.44136C10.204 9.7585 10.3969 10.0499 10.594 10.1699C10.5511 10.0714 10.504 9.92993 10.504 9.76279C10.504 9.61279 10.5383 9.45422 10.5769 9.28279C10.6197 9.0985 10.6626 8.89707 10.6626 8.69136C10.6626 8.3785 10.6069 8.27564 10.5812 8.26279C10.7097 8.28422 10.9754 8.44707 11.0354 8.95707C11.1126 9.59136 11.194 9.75422 11.3354 9.85707H11.3397ZM11.9526 14.0871C12.4925 14.0871 13.0103 13.8726 13.392 13.4908C13.7738 13.1091 13.9883 12.5913 13.9883 12.0514C13.9883 11.5115 13.7738 10.9937 13.392 10.6119C13.0103 10.2301 12.4925 10.0156 11.9526 10.0156C11.4092 10.0122 10.8865 10.2239 10.4987 10.6045C10.1108 10.9851 9.88936 11.5037 9.88258 12.0471C9.88258 13.1699 10.8297 14.0871 11.9526 14.0871Z" fill="white"/>
</svg>
