<svg width="24" height="24" viewBox="0 0 24 24" fill="none" xmlns="http://www.w3.org/2000/svg">
<path d="M18.8569 7.71449V6.85735H15.6511C15.5058 6.27933 15.3371 5.70743 15.1454 5.14307L14.1126 5.32307C14.3054 5.81592 14.4854 6.35164 14.6354 6.85735H11.5711V7.71449H18.8569ZM10.8597 15.0002V8.80735H9.35115C9.66401 8.34449 9.97686 7.77878 10.294 7.09307V6.42878H7.82115C7.95829 6.12878 8.07829 5.78592 8.19829 5.47307L7.23829 5.17307C6.85556 6.51606 6.13387 7.73805 5.14258 8.72164L5.36544 9.78021C5.56258 9.60021 5.81972 9.42021 5.99972 9.22735V15.0002H10.8597ZM8.31829 8.81164H6.30829C6.71361 8.33275 7.08046 7.82259 7.40544 7.28592H9.29115C9.00113 7.81555 8.67612 8.32525 8.31829 8.81164ZM14.4854 18.8574C15.2354 18.8574 15.4283 18.4416 15.4283 17.6188V13.2859H17.9997V9.00021H12.184V13.2859H14.5711V17.3659C14.5711 17.7388 14.4212 18.0002 14.1212 18.0002C13.7783 18.0002 13.4183 17.9702 13.0583 17.9274L13.2683 18.8574H14.4854ZM8.14258 11.5716H6.85686V9.68592H8.14258V11.5716ZM9.85686 11.5716H8.99972V9.68592H9.85686V11.5716ZM17.1426 12.4288H13.1997V9.85735H17.1426V12.4288ZM9.85686 14.1431H8.99972V12.4288H9.85686V14.1431ZM8.14258 14.1431H6.86544V12.4288H8.14258V14.1431ZM11.7897 18.4288C12.5021 17.2826 13.0747 16.0553 13.4954 14.7731L12.6297 14.3574C12.2182 15.5795 11.6644 16.7489 10.9797 17.8416L11.7897 18.4288Z" fill="#E53935"/>
<path d="M18.8569 17.4516L18.0426 18.0002C17.5359 16.8323 16.9488 15.7011 16.2854 14.6145L17.0997 14.1431C17.7579 15.2059 18.3449 16.3112 18.8569 17.4516ZM11.1426 17.3874L10.4483 17.5716C10.2833 16.9194 10.0859 16.2757 9.85686 15.6431L10.5211 15.4288C10.7483 15.9859 10.9454 16.6416 11.1426 17.3874ZM9.85686 18.3302L9.05115 18.4288C8.97401 17.1688 8.81972 16.2002 8.57115 15.5274L9.34258 15.4288C9.59544 16.1402 9.76258 17.1045 9.85686 18.3302ZM8.14258 18.3345L7.42258 18.4288C7.39686 17.1774 7.35401 16.2002 7.28544 15.5231L7.94972 15.4288C8.04401 16.1402 8.11686 17.1131 8.14258 18.3345ZM6.85686 15.5445C6.74972 16.7874 6.51401 17.8888 6.13686 18.8574L5.14258 18.5788C5.56308 17.5773 5.81366 16.5127 5.88401 15.4288L6.85686 15.5445Z" fill="#E53935"/>
<path d="M13.2083 7.28592C15.7583 7.28592 16.894 8.50735 17.1426 9.12021C16.9111 11.4045 14.9569 11.9702 13.954 12.2231C10.4483 13.3502 10.2211 14.5074 10.2211 15.2959C10.2211 16.0888 10.8511 16.5088 11.0226 16.6502C11.3397 16.0331 11.974 15.5531 12.3469 15.5531C12.0597 16.0588 12.634 16.9631 12.634 17.2716C12.9963 17.297 13.3493 17.3977 13.6703 17.5675C13.9914 17.7372 14.2734 17.9722 14.4983 18.2574C14.3097 18.3174 13.7826 18.4288 13.2083 18.4288C8.87115 18.4288 7.40544 14.0574 7.40544 13.0416C7.40544 12.2274 7.65401 11.4045 7.77829 11.0959C7.46115 11.1688 6.74972 11.3188 6.42829 11.3188C6.56544 10.3031 7.84258 9.84449 8.46829 9.74164C8.66115 9.47592 9.11115 8.90164 9.38544 8.69592C9.21401 8.57164 8.05686 8.57164 7.71401 8.57164C8.42544 7.46592 10.3711 7.43592 11.1683 7.59449C11.4726 7.49164 12.3126 7.28592 13.2083 7.28592Z" fill="#607D8B"/>
<path d="M15.8569 9.32592C15.0107 8.75454 13.9922 8.49511 12.9758 8.59206C11.9594 8.68901 11.0083 9.13631 10.2854 9.85735H11.0783C11.5797 9.85735 12.0554 9.32592 13.1654 9.32592C14.0526 9.32592 14.8026 9.54021 15.064 9.64735C15.3297 9.6045 15.8569 9.47592 15.8569 9.32592ZM8.88829 14.5202C8.88829 13.6931 9.24829 12.2831 9.42829 11.6831C8.38258 10.9459 8.60544 14.1131 8.57115 14.3016C8.54115 14.4945 8.79401 14.6574 8.88829 14.5202ZM8.57115 12.0002V11.1431C8.16829 11.1431 8.12115 11.7131 8.15115 12.0002H8.57115ZM8.14258 13.2859V12.0002C7.73972 12.0002 7.69258 12.8574 7.72258 13.2859H8.14258Z" fill="white"/>
<path d="M16.714 8.81592C13.4911 6.56164 10.5126 8.28449 9.42829 9.42878H9.78829C10.3454 9.03449 11.8411 8.25021 13.3197 8.25021C14.7983 8.25021 15.8869 8.84164 16.2469 9.13307C16.4011 9.06021 16.714 8.89307 16.714 8.81592Z" fill="white"/>
</svg>
