<svg width="24" height="24" viewBox="0 0 24 24" fill="none" xmlns="http://www.w3.org/2000/svg">
<path d="M11.9997 18.8572C15.7868 18.8572 18.8569 15.7872 18.8569 12.0001C18.8569 8.21297 15.7868 5.14293 11.9997 5.14293C8.21263 5.14293 5.14258 8.21297 5.14258 12.0001C5.14258 15.7872 8.21263 18.8572 11.9997 18.8572Z" fill="url(#paint0_linear_59_67625)"/>
<path d="M18.8569 12.0001C18.8569 8.21297 15.7868 5.14293 11.9997 5.14293C8.21263 5.14293 5.14258 8.21297 5.14258 12.0001C5.14258 15.7872 8.21263 18.8572 11.9997 18.8572C15.7868 18.8572 18.8569 15.7872 18.8569 12.0001Z" fill="url(#paint1_linear_59_67625)"/>
<path d="M10.714 7.71436H11.9997V15.8572H10.714V7.71436ZM16.1954 5.5715L15.4369 4.77436L15.3897 4.71436C13.7585 6.78036 12.8667 9.33345 12.8569 11.9658C12.8569 14.7429 13.8212 17.2929 15.4283 19.2858L16.2854 18.4372C14.8613 16.5814 14.094 14.3051 14.104 11.9658C14.104 9.57436 14.8797 7.32864 16.1954 5.5715Z" fill="#181B1E"/>
<defs>
<linearGradient id="paint0_linear_59_67625" x1="15.9983" y1="5.62507" x2="7.89333" y2="18.2448" gradientUnits="userSpaceOnUse">
<stop offset="0.16" stop-color="#FFA3A3"/>
<stop offset="0.59" stop-color="#C50000"/>
<stop offset="1" stop-color="#C50101"/>
</linearGradient>
<linearGradient id="paint1_linear_59_67625" x1="14.1426" y1="5.16971" x2="12.2668" y2="8.25918" gradientUnits="userSpaceOnUse">
<stop offset="0.07" stop-color="#FF5353"/>
<stop offset="1" stop-color="#C50101" stop-opacity="0"/>
</linearGradient>
</defs>
</svg>
