<svg width="24" height="24" viewBox="0 0 24 24" fill="none" xmlns="http://www.w3.org/2000/svg">
<path d="M6 15.5959V9.05592C6 8.94021 6.13286 8.86735 6.23571 8.92735L7.71429 9.80164V14.5331L11.7857 16.9245V18.7074C11.7857 18.8231 11.6571 18.8959 11.5543 18.8359L6 15.5959ZM18 15.5959V9.05592C18 8.94021 17.8671 8.86735 17.7643 8.92735L16.2857 9.80164V14.5331L12.2143 16.9245V18.7074C12.2143 18.8231 12.3429 18.8959 12.4457 18.8359L18 15.5959Z" fill="white"/>
<path d="M7.82143 9.57021L6.26571 8.61878C6.25406 8.61257 6.24432 8.6033 6.23753 8.59198C6.23073 8.58066 6.22714 8.5677 6.22714 8.55449C6.22714 8.54129 6.23073 8.52833 6.23753 8.51701C6.24432 8.50569 6.25406 8.49642 6.26571 8.49021L11.97 5.14307L17.6829 8.49021C17.7343 8.52021 17.7343 8.58878 17.6829 8.61878L16.0757 9.5745C16.0628 9.58246 16.048 9.58669 16.0329 9.58669C16.0177 9.58669 16.0029 9.58246 15.99 9.5745L13.8429 8.28878C13.7914 8.2545 13.7143 8.28878 13.7143 8.34878V13.1574C13.7143 13.1831 13.7057 13.2088 13.6843 13.2216L12.0129 14.2716C12.0005 14.2788 11.9864 14.2825 11.9721 14.2825C11.9578 14.2825 11.9438 14.2788 11.9314 14.2716L10.3114 13.2216C10.2857 13.2088 10.2857 13.1831 10.2857 13.1574V8.34878C10.2857 8.28878 10.2043 8.25449 10.1571 8.28449L7.90286 9.57021C7.88998 9.57818 7.87514 9.5824 7.86 9.5824C7.84486 9.5824 7.83002 9.57818 7.81714 9.57021H7.82143Z" fill="#B3E2FF"/>
<path d="M9.82714 13.4916L8.41286 14.3188C8.38955 14.3312 8.37007 14.3497 8.35648 14.3724C8.34289 14.395 8.33571 14.4209 8.33571 14.4474C8.33571 14.4738 8.34289 14.4997 8.35648 14.5223C8.37007 14.545 8.38955 14.5635 8.41286 14.5759L9.82714 15.4202C9.9 15.4631 9.99857 15.4631 10.0757 15.4202L11.4257 14.5716C11.447 14.5586 11.4646 14.5403 11.4768 14.5186C11.489 14.4968 11.4954 14.4723 11.4954 14.4474C11.4954 14.4224 11.489 14.3979 11.4768 14.3761C11.4646 14.3544 11.447 14.3361 11.4257 14.3231L10.0714 13.4959C10.0348 13.4734 9.99284 13.4611 9.94987 13.4604C9.9069 13.4596 9.86451 13.4704 9.82714 13.4916ZM13.9114 13.4916L12.4971 14.3188C12.4738 14.3312 12.4544 14.3497 12.4408 14.3724C12.4272 14.395 12.42 14.4209 12.42 14.4474C12.42 14.4738 12.4272 14.4997 12.4408 14.5223C12.4544 14.545 12.4738 14.5635 12.4971 14.5759L13.9114 15.4202C13.9886 15.4631 14.0829 15.4631 14.16 15.4202L15.51 14.5716C15.5313 14.5586 15.5489 14.5403 15.5611 14.5186C15.5732 14.4968 15.5796 14.4723 15.5796 14.4474C15.5796 14.4224 15.5732 14.3979 15.5611 14.3761C15.5489 14.3544 15.5313 14.3361 15.51 14.3231L14.16 13.4959C14.1229 13.4726 14.0801 13.4598 14.0363 13.4591C13.9925 13.4583 13.9493 13.4696 13.9114 13.4916ZM10.4743 15.5188L11.8886 14.6916C11.9614 14.6488 12.0557 14.6488 12.1286 14.6916L13.4786 15.5231C13.5771 15.5788 13.5771 15.7159 13.4786 15.7716L12.1329 16.6159C12.0958 16.6393 12.053 16.652 12.0092 16.6528C11.9654 16.6535 11.9222 16.6423 11.8843 16.6202L10.47 15.7759C10.4467 15.7635 10.4272 15.745 10.4136 15.7223C10.4 15.6997 10.3929 15.6738 10.3929 15.6474C10.3929 15.6209 10.4 15.595 10.4136 15.5724C10.4272 15.5497 10.4467 15.5312 10.47 15.5188H10.4743Z" fill="white"/>
</svg>
