<svg width="24" height="24" viewBox="0 0 24 24" fill="none" xmlns="http://www.w3.org/2000/svg">
<path d="M13.7141 19.2856C16.883 18.6809 19.2856 15.7734 19.2856 12.4284C19.2856 9.08343 16.883 6.29815 13.7141 5.693V7.50929C14.36 7.76986 14.987 8.29272 15.5497 9.269C15.5497 9.32772 14.4097 10.1081 13.871 10.4733C13.2054 8.86443 12.1717 8.84815 11.7423 9.42672C11.1277 10.2564 12.2017 10.8059 13.4321 11.2653C14.8241 11.7834 15.8767 13.0091 15.857 14.5713C15.8377 16.0987 14.747 16.8989 13.7141 17.2927V19.2856Z" fill="#745DDF"/>
<path d="M11.5713 5.57129H5.57129V12.5519C5.633 16.0027 8.21515 18.8819 11.5713 19.2856V17.3441C10.4094 17.0677 9.27672 16.1951 9.14472 14.3879L11.0604 13.8311C11.0484 14.4273 11.3051 15.6179 12.4293 15.6106C13.5534 15.6033 13.7977 14.792 13.7793 14.3879C13.8221 14.123 13.6121 13.481 12.4293 13.0284C10.9511 12.4627 9.61915 11.3861 9.61915 9.926C9.61915 8.35229 10.5641 7.757 11.5713 7.45743V5.57129Z" fill="#2EB6EA"/>
</svg>
