<svg width="24" height="24" viewBox="0 0 24 24" fill="none" xmlns="http://www.w3.org/2000/svg">
<path fill-rule="evenodd" clip-rule="evenodd" d="M19.2853 12.0001C19.2853 13.9324 18.5177 15.7855 17.1514 17.1518C15.785 18.5182 13.9319 19.2858 11.9996 19.2858C10.0673 19.2858 8.21414 18.5182 6.8478 17.1518C5.48147 15.7855 4.71387 13.9324 4.71387 12.0001C4.71387 10.0678 5.48147 8.21463 6.8478 6.84829C8.21414 5.48196 10.0673 4.71436 11.9996 4.71436C13.9319 4.71436 15.785 5.48196 17.1514 6.84829C18.5177 8.21463 19.2853 10.0678 19.2853 12.0001ZM5.4853 10.3586L7.19101 10.5172C7.20387 11.5286 7.42672 13.5472 8.20672 13.5601C8.99101 13.5772 9.21815 11.6872 9.2353 10.7144H14.8624C14.8796 11.6872 15.1067 13.5772 15.891 13.5601C16.671 13.5472 16.8939 11.5286 16.9067 10.5172L18.6124 10.3586C19.0153 12.0215 18.7282 13.4786 18.5353 14.0015C16.5982 15.8872 14.5239 14.8072 13.6924 13.7915C13.0667 13.0201 12.3639 12.8144 12.051 12.8058C11.7296 12.8144 11.031 13.0201 10.401 13.7915C9.57387 14.8115 7.49958 15.8872 5.56244 14.0015C5.21141 12.816 5.18477 11.558 5.4853 10.3586ZM8.57958 6.18436C8.4205 7.14911 8.4584 8.13608 8.69101 9.08578C8.73815 9.24864 8.92244 9.55721 9.27815 9.47578C9.72387 9.37721 9.6553 8.86721 9.57387 8.4515C9.48815 8.03578 9.48815 6.8615 9.57387 5.70007C9.32101 5.79436 8.77244 6.02578 8.57958 6.18436ZM15.3853 9.08578C15.7024 7.92007 15.591 6.66436 15.501 6.18436C15.3082 6.02578 14.7553 5.79864 14.5067 5.70007C14.5882 6.8615 14.5882 8.03578 14.5067 8.4515C14.421 8.86721 14.3524 9.37721 14.7982 9.48007C15.1539 9.55721 15.3382 9.24864 15.3853 9.08578ZM7.35387 7.14007C7.1353 7.35007 6.64672 7.86007 6.4453 8.22007C6.40244 8.78578 6.4453 9.90436 6.91244 9.82721C7.49958 9.73293 7.45672 9.25293 7.31101 8.5415C7.28958 8.0915 7.3153 7.72721 7.33672 7.45721C7.3453 7.32864 7.35387 7.2215 7.35387 7.14007ZM17.6353 8.22007C17.4339 7.86007 16.9453 7.35007 16.7267 7.14007C16.7267 7.2215 16.731 7.32436 16.7439 7.45721C16.761 7.72721 16.7867 8.0915 16.7696 8.5415C16.6239 9.25293 16.5767 9.73293 17.1682 9.82721C17.6396 9.90436 17.6739 8.78578 17.6353 8.22007ZM11.121 5.28436C11.4082 5.25007 12.171 5.19864 12.921 5.28436C13.1053 6.78436 13.1996 9.79721 12.0939 9.84007C10.851 9.88721 10.9796 6.82293 11.1167 5.28436H11.121Z" fill="url(#paint0_linear_59_68307)"/>
<defs>
<linearGradient id="paint0_linear_59_68307" x1="6.72387" y1="7.37578" x2="17.0867" y2="17.0786" gradientUnits="userSpaceOnUse">
<stop stop-color="#E122FC"/>
<stop offset="1" stop-color="#26C5E2"/>
</linearGradient>
</defs>
</svg>
