<svg width="24" height="24" viewBox="0 0 24 24" fill="none" xmlns="http://www.w3.org/2000/svg">
<path d="M15.7282 6.53565L15.9939 6.20565C16.0068 6.18851 16.0239 6.18422 16.0368 6.19279C16.1996 6.27851 16.3539 6.35994 16.5082 6.44994C18.1153 7.37136 18.8953 9.08565 19.2039 10.8771C19.3716 12.1157 19.2544 13.3763 18.8611 14.5628C18.6272 15.3151 18.2223 16.0031 17.6782 16.5728C17.6653 16.5814 17.6525 16.5814 17.6396 16.5728L17.0568 16.1142C17.0439 16.1014 17.0311 16.1056 17.0225 16.1142L16.6796 16.5257C15.7611 17.5924 14.5275 18.3397 13.1568 18.6599C11.9568 18.9514 10.7868 18.9256 9.65105 18.5914C8.04242 18.1172 6.66314 17.0704 5.77379 15.6485C4.88443 14.2267 4.54659 12.5284 4.8241 10.8745C5.1016 9.22058 5.97522 7.72555 7.27992 6.67186C8.58463 5.61818 10.2301 5.0788 11.9053 5.15565C13.2939 5.22851 14.5539 5.69136 15.6896 6.54851C15.7068 6.55708 15.7196 6.55708 15.7325 6.53994L15.7282 6.53565Z" fill="#050505"/>
<path d="M9.89962 6.06851C10.1482 6.20565 10.2682 6.41136 10.2596 6.68565C10.2382 7.28136 9.41962 7.49565 9.10248 6.98136C8.99105 6.79708 8.95248 6.50994 9.08962 6.32136C9.11395 6.29007 9.14664 6.26629 9.18391 6.25279C9.38105 6.17136 9.56962 6.10708 9.74105 6.05136C9.76718 6.04275 9.79484 6.03982 9.82219 6.04278C9.84954 6.04573 9.87594 6.05451 9.89962 6.06851Z" fill="#DBDBDB"/>
<path d="M15.9725 16.3542L13.7739 14.6014L12.1839 13.3414C12.1758 13.3352 12.1689 13.3275 12.1637 13.3187C12.1586 13.3098 12.1553 13.3001 12.1539 13.2899L11.8453 10.3156C11.8453 10.3028 11.8453 10.2942 11.8539 10.2814L14.7082 6.67279L14.7211 6.66422H14.7382C14.9353 6.78851 15.1239 6.91279 15.2996 7.04994C15.3125 7.05851 15.3125 7.06708 15.3039 7.07565L12.8011 10.2385C12.7968 10.2447 12.7939 10.2517 12.7924 10.2591C12.7909 10.2664 12.7909 10.274 12.7925 10.2814L13.0625 12.8999C13.0629 12.9082 13.065 12.9162 13.0687 12.9236C13.0724 12.931 13.0776 12.9375 13.0839 12.9428L16.5253 15.6856L16.5296 15.6942V15.7028C16.3582 15.9385 16.1696 16.1528 15.9725 16.3542Z" fill="#7533E0"/>
<path d="M12.8311 8.38708C12.8765 8.38708 12.9201 8.36902 12.9523 8.33687C12.9844 8.30472 13.0025 8.26112 13.0025 8.21565C13.0025 8.17018 12.9844 8.12658 12.9523 8.09443C12.9201 8.06228 12.8765 8.04422 12.8311 8.04422C12.7856 8.04422 12.742 8.06228 12.7098 8.09443C12.6777 8.12658 12.6596 8.17018 12.6596 8.21565C12.6596 8.30994 12.7368 8.38708 12.8311 8.38708ZM15.3511 8.58851C15.4325 8.52422 15.4496 8.41708 15.3939 8.33565C15.38 8.31671 15.3624 8.30082 15.3422 8.28896C15.3219 8.27711 15.2994 8.26954 15.2761 8.26673C15.2528 8.26391 15.2292 8.26592 15.2067 8.27261C15.1842 8.27931 15.1633 8.29055 15.1453 8.30565C15.1258 8.31932 15.1091 8.33675 15.0964 8.35691C15.0836 8.37708 15.075 8.39958 15.071 8.42311C15.067 8.44664 15.0677 8.47073 15.0731 8.49397C15.0785 8.51722 15.0885 8.53915 15.1025 8.55851C15.1625 8.63565 15.2739 8.64422 15.3511 8.58851ZM16.7568 13.3928C17.3911 13.1014 17.2968 12.2185 16.6411 12.0214C16.6311 12.018 16.6221 12.0124 16.6146 12.0049C16.6072 11.9975 16.6016 11.9885 16.5982 11.9785C16.5943 11.9697 16.5923 11.9602 16.5923 11.9506C16.5923 11.9411 16.5943 11.9316 16.5982 11.9228C17.1853 10.8899 17.5668 9.77994 17.7425 8.59708C17.7425 8.57994 17.7511 8.57994 17.7596 8.59708C17.9311 8.88851 18.0811 9.20565 18.2011 9.53994C18.4325 10.1999 18.5782 10.8085 18.6296 11.3614C18.6639 11.6614 18.6639 12.0385 18.6339 12.4971C18.5757 13.6401 18.2132 14.7468 17.5839 15.7028H17.5711L15.1711 13.7914C15.1582 13.7785 15.1582 13.7657 15.1711 13.7485C15.3553 13.5685 15.5353 13.3756 15.7068 13.1785C15.7453 13.1356 15.8053 13.1014 15.8525 13.1571C16.1096 13.4742 16.4096 13.5556 16.7568 13.3928ZM8.51105 9.88708C8.62248 9.88708 8.71248 9.79279 8.71248 9.68136C8.71249 9.62754 8.69141 9.57585 8.65375 9.5374C8.6161 9.49894 8.56487 9.47677 8.51105 9.47565C8.45724 9.47677 8.40601 9.49894 8.36835 9.5374C8.3307 9.57585 8.30961 9.62754 8.30962 9.68136C8.30962 9.79279 8.39962 9.88708 8.51105 9.88708ZM6.11534 9.83136C6.16248 9.83136 6.20105 9.78851 6.20105 9.74565C6.20163 9.73404 6.19985 9.72243 6.1958 9.71153C6.19175 9.70063 6.18553 9.69067 6.17752 9.68225C6.1695 9.67383 6.15985 9.66713 6.14916 9.66256C6.13847 9.65799 6.12697 9.65564 6.11534 9.65565C6.09261 9.65565 6.0708 9.66468 6.05473 9.68076C6.03866 9.69683 6.02962 9.71863 6.02962 9.74136C6.02962 9.79279 6.07248 9.82708 6.11534 9.82708V9.83136Z" fill="#DBDBDB"/>
<path d="M16.4525 13.3799C16.6215 13.3777 16.7828 13.309 16.9015 13.1886C17.0202 13.0683 17.0868 12.9061 17.0868 12.7371C17.0879 12.6527 17.0724 12.5688 17.0411 12.4904C17.0099 12.412 16.9635 12.3405 16.9046 12.28C16.8457 12.2195 16.7754 12.1712 16.6978 12.1378C16.6203 12.1045 16.5369 12.0868 16.4525 12.0856C16.3681 12.0862 16.2846 12.1034 16.2068 12.1362C16.129 12.169 16.0585 12.2169 15.9992 12.277C15.9399 12.3371 15.893 12.4082 15.8612 12.4865C15.8294 12.5647 15.8133 12.6484 15.8139 12.7328C15.8139 13.0928 16.1011 13.3799 16.4525 13.3799ZM7.94534 14.3057C8.4082 14.3057 8.78534 13.9199 8.78534 13.4485C8.78534 12.9771 8.4082 12.5999 7.94534 12.5999C7.48248 12.5999 7.10534 12.9814 7.10534 13.4528C7.10534 13.9242 7.48248 14.3099 7.94534 14.3099V14.3057ZM5.42105 12.9514V12.9299C5.42324 12.9261 5.42635 12.923 5.4301 12.9207C5.43385 12.9185 5.43811 12.9172 5.44248 12.9171H5.45962C5.48534 12.9085 5.51534 12.9171 5.53677 12.9342C5.56248 12.9471 5.57962 12.9771 5.57962 13.0028L5.58391 13.0242C5.58823 13.0512 5.5821 13.0788 5.56677 13.1014C5.55039 13.1241 5.52577 13.1394 5.4982 13.1442L5.48105 13.1485C5.47769 13.15 5.47404 13.1508 5.47034 13.1508C5.46664 13.1508 5.46299 13.15 5.45962 13.1485C5.45685 13.1457 5.45467 13.1423 5.4532 13.1386C5.45172 13.135 5.451 13.131 5.45105 13.1271L5.42105 12.9514ZM11.2839 16.8642C11.5917 16.839 11.8775 16.6948 12.0807 16.4623C12.2839 16.2298 12.3886 15.9273 12.3724 15.6189C12.3562 15.3105 12.2205 15.0206 11.9941 14.8106C11.7677 14.6006 11.4683 14.4871 11.1596 14.4942C10.8519 14.5195 10.566 14.6636 10.3628 14.8961C10.1596 15.1286 10.055 15.4312 10.0712 15.7396C10.0873 16.0479 10.223 16.3379 10.4494 16.5478C10.6759 16.7578 10.9752 16.8713 11.2839 16.8642Z" fill="#DBDBDB"/>
<path d="M13.7739 14.6014L15.9725 16.3542C14.9317 17.4156 13.544 18.0676 12.0626 18.1911C10.5812 18.3146 9.10469 17.9015 7.90248 17.0271C7.88534 17.0142 7.88534 17.0056 7.91105 17.0014C8.66534 16.8942 9.40248 16.7314 10.1139 16.5171C10.1825 16.4956 10.2511 16.5256 10.2982 16.5728C10.4647 16.7484 10.6776 16.8732 10.9122 16.9325C11.1468 16.9918 11.3935 16.9832 11.6234 16.9078C11.8533 16.8323 12.0571 16.6931 12.211 16.5063C12.3648 16.3196 12.4625 16.0929 12.4925 15.8528C12.5139 15.7028 12.4496 15.5014 12.6039 15.4114C13.0068 15.1714 13.3968 14.9014 13.7739 14.6014ZM7.87677 16.5556C8.07391 16.5556 8.2282 16.3971 8.2282 16.1957C8.2282 16.102 8.19132 16.0122 8.12553 15.9456C8.05974 15.879 7.97036 15.8411 7.87677 15.8399C7.78317 15.8411 7.69379 15.879 7.62801 15.9456C7.56222 16.0122 7.52533 16.102 7.52534 16.1957C7.52534 16.3971 7.68391 16.5556 7.87677 16.5556Z" fill="#DBDBDB"/>
</svg>
