<svg width="24" height="24" viewBox="0 0 24 24" fill="none" xmlns="http://www.w3.org/2000/svg">
<path d="M7.60686 5.78557L12.214 10.3113C13.7611 8.75986 15.3211 7.397 16.8126 5.79415C16.9059 5.69218 17.0284 5.62143 17.1633 5.59153C17.2983 5.56162 17.4392 5.57401 17.5669 5.627C17.8283 5.73843 17.9997 5.98272 17.9997 6.27415V8.82843C16.174 10.727 14.4297 12.497 12.634 14.3956C12.5803 14.4532 12.5153 14.4991 12.443 14.5306C12.3707 14.562 12.2928 14.5782 12.214 14.5782C12.1352 14.5782 12.0573 14.562 11.985 14.5306C11.9128 14.4991 11.8477 14.4532 11.794 14.3956L9.42829 11.8113V17.4127C9.42829 17.7384 9.10686 17.9999 8.78543 17.9999H7.07115C6.74972 17.9999 6.42829 17.7299 6.42829 17.3999V16.7141H5.72544C5.40401 16.7141 5.14258 16.4441 5.14258 16.1141V14.3141C5.14258 13.9841 5.40401 13.7141 5.72544 13.7141H6.42829V11.9999H5.72544C5.40401 11.9999 5.14258 11.7299 5.14258 11.3999V9.59986C5.14258 9.26986 5.40401 8.99986 5.72544 8.99986H6.42829V6.27415C6.42829 5.98272 6.59115 5.72986 6.86115 5.63129C6.94686 5.58843 7.03686 5.57129 7.12686 5.57129C7.30686 5.57129 7.47829 5.64843 7.60686 5.78557ZM15.2054 13.3584L16.9111 11.747C17.0024 11.6597 17.1177 11.6017 17.2421 11.5803C17.3666 11.5589 17.4946 11.5752 17.6097 11.627C17.854 11.7256 17.9997 11.9527 17.9997 12.2141V17.357C17.9997 17.7084 17.7126 17.9999 17.3526 17.9999H15.6469C15.5621 18.0004 15.478 17.9842 15.3995 17.9522C15.321 17.9201 15.2497 17.8728 15.1895 17.8131C15.1294 17.7533 15.0816 17.6823 15.0491 17.604C15.0165 17.5257 14.9997 17.4418 14.9997 17.357V13.8256C15.0083 13.6413 15.0726 13.4827 15.2054 13.3584Z" fill="#24DDD8"/>
</svg>
