<svg width="24" height="24" viewBox="0 0 24 24" fill="none" xmlns="http://www.w3.org/2000/svg">
<path d="M7.65892 7.41427C7.82405 7.11499 8.06642 6.86547 8.36077 6.6917C8.65511 6.51793 8.99067 6.42627 9.33249 6.42627C9.6743 6.42627 10.0099 6.51793 10.3042 6.6917C10.5986 6.86547 10.8409 7.11499 11.0061 7.41427L16.2646 16.7143H5.85035C4.32035 16.7143 3.36463 15.0214 4.12749 13.6671L7.65892 7.41427Z" fill="#1977F3"/>
<path d="M16.3418 7.41427C16.1766 7.11499 15.9343 6.86547 15.6399 6.6917C15.3456 6.51793 15.01 6.42627 14.6682 6.42627C14.3264 6.42627 13.9908 6.51793 13.6965 6.6917C13.4021 6.86547 13.1598 7.11499 12.9946 7.41427L9.26606 14.0143C8.58463 15.2143 9.4332 16.7143 10.7875 16.7143H18.1503C19.6803 16.7143 20.6361 15.0214 19.8732 13.6671L16.3418 7.41427Z" fill="#002F81"/>
<path d="M10.7875 16.7143H16.2646L12.0003 9.17141L9.26178 14.0143C8.58463 15.2143 9.4332 16.7143 10.7875 16.7143Z" fill="url(#paint0_linear_112_4967)"/>
<defs>
<linearGradient id="paint0_linear_112_4967" x1="9.31287" y1="15.1714" x2="17.5972" y2="15.1714" gradientUnits="userSpaceOnUse">
<stop offset="0.12" stop-color="#1C6AD9"/>
<stop offset="0.76" stop-color="#1C6AD9" stop-opacity="0"/>
</linearGradient>
</defs>
</svg>
