<svg width="24" height="24" viewBox="0 0 24 24" fill="none" xmlns="http://www.w3.org/2000/svg">
<path d="M11.9996 18.9473C15.8458 18.9473 18.9639 15.8292 18.9639 11.983C18.9639 8.13671 15.8458 5.01869 11.9996 5.01869C8.15331 5.01869 5.0353 8.13671 5.0353 11.983C5.0353 15.8292 8.15331 18.9473 11.9996 18.9473Z" fill="url(#paint0_linear_112_4991)"/>
<path d="M15.7582 6.39441C15.801 6.39441 15.8567 6.39869 15.8996 6.42869C16.0024 6.48012 16.0667 6.62155 16.011 6.81441C15.9896 6.88727 15.981 7.07155 16.0282 7.29441C16.071 7.50869 16.1696 7.74012 16.341 7.90727L16.4139 7.98012C16.9196 8.47298 18.6982 10.2173 18.6982 12.6858C18.7031 13.3148 18.5445 13.9342 18.238 14.4834C17.9314 15.0326 17.4875 15.4927 16.9496 15.8187C16.851 15.883 16.7524 15.9473 16.6496 16.003C16.7782 16.1316 16.941 16.3287 17.0782 16.5601C17.3353 17.3444 15.1324 18.8144 14.181 17.7473C13.9402 17.4924 13.7381 17.2036 13.581 16.8901C13.1524 16.933 12.6982 16.9587 12.2224 16.9587C11.8453 16.9587 11.391 16.9287 10.9067 16.8558C10.8039 17.023 10.6539 17.2201 10.4482 17.4516C10.011 17.9401 9.22672 18.073 8.56672 18.0001C8.23672 17.9658 7.92387 17.8758 7.68815 17.743C7.45672 17.6144 7.27244 17.4216 7.26387 17.1773C7.2553 16.8516 7.39244 16.5258 7.55101 16.2601C7.66672 16.0673 7.80387 15.8958 7.91958 15.7716C7.42696 15.4625 7.02177 15.0324 6.74267 14.5222C6.46357 14.012 6.31987 13.4388 6.3253 12.8573C6.3253 10.8258 7.35815 9.39012 8.67815 8.45155C9.88427 7.61277 11.2931 7.11257 12.7582 7.00298C13.9024 6.93869 14.5453 6.82298 14.9267 6.71155C15.2053 6.62584 15.3296 6.55727 15.4282 6.50584C15.4624 6.48441 15.4967 6.46298 15.531 6.45012C15.6167 6.40727 15.6939 6.39441 15.7582 6.39441Z" fill="#17D6FF"/>
<path d="M6.98101 16.1787C6.8353 16.5687 6.8953 16.8901 6.93815 17.0058C7.0153 17.3187 7.5253 17.5287 8.35244 17.5287C9.1753 17.5287 9.93815 17.0444 10.1824 16.5558C10.4224 16.063 10.4653 15.8316 10.4396 15.8101C10.4267 15.793 8.57958 15.4844 7.66244 15.3301C7.3631 15.5476 7.12655 15.8404 6.97672 16.1787H6.98101Z" fill="#FD8727"/>
<path d="M8.19387 16.1873C7.73958 16.4873 7.7053 16.8173 7.74387 16.9416C7.92387 17.1044 8.49387 17.3016 9.32958 16.7958C10.1739 16.2901 9.48387 15.8487 9.03387 15.6901C8.94387 15.733 8.64815 15.8873 8.19387 16.1873Z" fill="#D95D15"/>
<path d="M9.87387 16.9758C8.87101 16.6116 8.35672 16.0673 8.24101 15.8358L8.46387 15.6558L10.341 16.1787C10.191 16.4444 9.88672 16.9758 9.86958 16.9758H9.87387Z" fill="#F16607"/>
<path d="M9.51387 15.943C9.77101 16.1573 9.87815 16.4444 9.38101 16.7658C9.01127 16.5917 8.67704 16.3505 8.3953 16.0544C8.60101 15.9258 8.76387 15.8316 8.87958 15.7716L9.51387 15.943Z" fill="#D43C00"/>
<path d="M7.71815 16.7401C7.86727 16.7401 7.98815 16.6192 7.98815 16.4701C7.98815 16.321 7.86727 16.2001 7.71815 16.2001C7.56904 16.2001 7.44815 16.321 7.44815 16.4701C7.44815 16.6192 7.56904 16.7401 7.71815 16.7401Z" fill="#FFECDD"/>
<path d="M7.55101 15.2401L10.551 15.7073L10.5767 15.763C10.6067 15.8187 10.611 15.8916 10.5982 15.9601C10.5896 16.033 10.5639 16.123 10.5124 16.2258C10.3554 16.5393 10.1532 16.8281 9.91244 17.083C9.47958 17.5716 8.69101 17.7044 8.0353 17.6316C7.70101 17.5973 7.39244 17.503 7.15244 17.3744C6.92101 17.2458 6.73672 17.053 6.72815 16.8087C6.71958 16.483 6.85672 16.1573 7.0153 15.8916C7.17815 15.6258 7.37101 15.403 7.50815 15.283L7.55101 15.2401ZM7.62815 15.4973C7.51244 15.613 7.35387 15.7973 7.22101 16.0158C7.07101 16.2644 6.96387 16.543 6.96815 16.8001C6.97244 16.9201 7.06672 17.0487 7.26815 17.1644C7.46958 17.2758 7.75244 17.3616 8.06101 17.3916C8.68672 17.4601 9.37672 17.3273 9.73244 16.9201C9.95847 16.6847 10.149 16.4176 10.2982 16.1273C10.329 16.062 10.3506 15.9928 10.3624 15.9216L7.62815 15.4973Z" fill="#D43C00"/>
<path d="M16.5853 16.4744C16.731 16.8687 16.671 17.1901 16.6282 17.3016C16.5424 17.6144 16.041 17.8244 15.2139 17.8244C14.3867 17.8244 13.6239 17.3401 13.3839 16.8516C13.1439 16.3587 13.101 16.1273 13.1224 16.1058C13.1396 16.093 14.9824 15.7801 15.9039 15.6258C16.2001 15.8445 16.4336 16.1371 16.581 16.4744H16.5853Z" fill="#FD8727"/>
<path d="M15.3682 16.483C15.8224 16.783 15.8567 17.113 15.8182 17.2373C15.6382 17.4001 15.0724 17.5973 14.2324 17.0916C13.3882 16.5858 14.0782 16.1444 14.5282 15.9858C14.6224 16.0287 14.9182 16.183 15.3682 16.483Z" fill="#D95D15"/>
<path d="M13.6924 17.2716C14.691 16.9116 15.2096 16.363 15.321 16.1358L15.0982 15.9516L13.221 16.4744C13.371 16.7401 13.6753 17.2758 13.6924 17.2758V17.2716Z" fill="#F16607"/>
<path d="M14.0482 16.243C13.791 16.453 13.6882 16.7444 14.1853 17.0616C14.5535 16.887 14.8862 16.6458 15.1667 16.3501C14.961 16.2216 14.7982 16.1273 14.6867 16.0673L14.0482 16.243Z" fill="#D43C00"/>
<path d="M15.8439 17.0358C15.6947 17.0358 15.5739 16.915 15.5739 16.7658C15.5739 16.6167 15.6947 16.4958 15.8439 16.4958C15.993 16.4958 16.1139 16.6167 16.1139 16.7658C16.1139 16.915 15.993 17.0358 15.8439 17.0358Z" fill="#FFECDD"/>
<path d="M16.0153 15.5358L13.0153 16.0073L12.9853 16.0587C12.9584 16.1207 12.9509 16.1895 12.9639 16.2558C12.9724 16.3287 13.0024 16.4187 13.0496 16.5216C13.1439 16.7358 13.3239 17.0144 13.6496 17.3787C14.0824 17.8673 14.871 18.0001 15.531 17.9273C15.861 17.893 16.1739 17.803 16.4096 17.6701C16.641 17.5416 16.8253 17.3487 16.8339 17.1044C16.8424 16.7787 16.7053 16.453 16.5467 16.1873C16.4112 15.9639 16.2469 15.7593 16.0582 15.5787L16.0153 15.5358ZM15.9339 15.793C16.0539 15.9087 16.2082 16.093 16.341 16.3116C16.491 16.5601 16.5982 16.8387 16.5939 17.0958C16.5896 17.2158 16.4953 17.3444 16.2939 17.4601C16.0924 17.5716 15.8139 17.6573 15.501 17.6916C14.8753 17.7601 14.1853 17.623 13.8296 17.2201C13.6047 16.9831 13.4156 16.7145 13.2682 16.423C13.2358 16.3579 13.2127 16.2887 13.1996 16.2173L15.9339 15.793Z" fill="#D43C00"/>
<path d="M12.7496 16.4701L10.9582 16.3844C9.01672 16.3544 7.51244 15.5915 6.6853 14.623C6.19672 14.0444 6.04672 13.2944 5.90101 12.8616L6.12815 10.9544L6.6853 9.83584L7.41815 8.79012L8.6353 7.90298L10.5124 7.04155L11.991 6.79727L13.6624 6.61298L14.811 6.29584L15.2139 6.15441L15.3553 6.29584V6.88298L15.6724 7.64155L16.6153 8.50298L17.3053 9.56155L17.7639 10.6801L18.081 12.0001L17.9782 13.2301L17.3053 14.5201L16.5039 15.2487L15.3553 15.8273L12.7496 16.4701Z" fill="url(#paint1_linear_112_4991)"/>
<path d="M10.1439 7.87298C11.7596 7.11012 13.851 6.92584 14.6953 6.93012C14.7382 7.11869 14.9139 7.60298 15.3124 8.00155C15.8053 8.49012 17.3782 10.243 17.3782 11.9787H18.1067L17.841 10.5687L16.9067 8.97441L15.5567 7.48298L15.3124 6.63869L15.4153 6.13298H15.1453L14.5796 6.43298L13.221 6.63869L11.5924 6.84441L9.98101 7.25584L8.16815 8.13012L7.3453 8.97441L6.50101 10.0458L6.08958 11.0316L5.86244 12.793L6.42815 12.9601C6.42815 9.93441 8.12958 8.83298 10.1439 7.87298Z" fill="url(#paint2_linear_112_4991)"/>
<path d="M10.8553 9.55298C8.30958 10.1016 7.90672 12.0173 8.02244 12.9087L15.9296 11.6744C15.081 10.6287 14.0353 8.86727 10.8553 9.55298Z" fill="url(#paint3_linear_112_4991)"/>
<path d="M11.3096 8.54584C11.2667 8.47727 11.2153 8.30584 11.3953 8.16869C11.6224 7.99726 11.7724 8.04869 11.8496 8.11298C11.9267 8.17727 11.9567 8.32727 11.7682 8.50298C11.5796 8.67441 11.3824 8.62727 11.3096 8.54584ZM9.32958 9.33012C9.25672 9.14155 9.2353 8.70441 9.74958 8.46441C10.3924 8.16869 10.7267 8.38298 10.881 8.58441C11.031 8.78155 11.0224 9.17155 10.4653 9.48441C9.90815 9.80155 9.45815 9.57012 9.32958 9.33012Z" fill="#FFFEF9"/>
<path d="M12.0082 15.913C14.4556 15.913 16.4396 15.061 16.4396 14.0101C16.4396 12.9592 14.4556 12.1073 12.0082 12.1073C9.56074 12.1073 7.57672 12.9592 7.57672 14.0101C7.57672 15.061 9.56074 15.913 12.0082 15.913Z" fill="url(#paint4_linear_112_4991)"/>
<path d="M7.43101 13.7616C7.79788 13.7616 8.0953 13.3644 8.0953 12.8744C8.0953 12.3845 7.79788 11.9873 7.43101 11.9873C7.06413 11.9873 6.76672 12.3845 6.76672 12.8744C6.76672 13.3644 7.06413 13.7616 7.43101 13.7616Z" fill="#792207"/>
<path d="M7.48244 12.6044C7.61972 12.6044 7.73101 12.4931 7.73101 12.3558C7.73101 12.2186 7.61972 12.1073 7.48244 12.1073C7.34516 12.1073 7.23387 12.2186 7.23387 12.3558C7.23387 12.4931 7.34516 12.6044 7.48244 12.6044Z" fill="#F6FEF8"/>
<path d="M13.371 14.833C13.7379 14.833 14.0353 14.4358 14.0353 13.9458C14.0353 13.4559 13.7379 13.0587 13.371 13.0587C13.0041 13.0587 12.7067 13.4559 12.7067 13.9458C12.7067 14.4358 13.0041 14.833 13.371 14.833Z" fill="#792207"/>
<path d="M13.4224 13.6758C13.5597 13.6758 13.671 13.5645 13.671 13.4273C13.671 13.29 13.5597 13.1787 13.4224 13.1787C13.2852 13.1787 13.1739 13.29 13.1739 13.4273C13.1739 13.5645 13.2852 13.6758 13.4224 13.6758Z" fill="#F6FEF8"/>
<path d="M9.39387 13.5258C9.45387 13.4958 9.52244 13.5258 9.55672 13.5816L9.56101 13.5944C9.60387 13.6801 9.66387 13.813 9.74101 13.9287C9.78387 13.9887 9.82672 14.0358 9.8653 14.0701C9.90387 14.1044 9.92958 14.113 9.94672 14.113C10.0496 14.113 10.161 14.0787 10.2639 14.023C10.3667 13.9673 10.4524 13.8987 10.5124 13.843C10.5237 13.8317 10.5371 13.8228 10.5518 13.8167C10.5665 13.8106 10.5822 13.8075 10.5982 13.8075C10.6141 13.8075 10.6298 13.8106 10.6445 13.8167C10.6592 13.8228 10.6726 13.8317 10.6839 13.843C10.6951 13.8542 10.7041 13.8676 10.7101 13.8823C10.7162 13.897 10.7194 13.9128 10.7194 13.9287C10.7194 13.9446 10.7162 13.9604 10.7101 13.9751C10.7041 13.9898 10.6951 14.0032 10.6839 14.0144C10.6067 14.0873 10.4996 14.1687 10.3753 14.2373C10.2467 14.3016 10.101 14.353 9.94672 14.353C9.84815 14.353 9.77101 14.3058 9.70672 14.2544C9.64404 14.1977 9.58926 14.1328 9.54387 14.0616C9.45815 13.933 9.3853 13.7873 9.34672 13.7016L9.33815 13.6844C9.30815 13.6244 9.33815 13.5558 9.39387 13.5258Z" fill="#792207"/>
<path d="M15.2224 14.9984C15.3438 15.1247 15.5598 15.114 15.7049 14.9746C15.8499 14.8352 15.8691 14.6198 15.7477 14.4935C15.6263 14.3672 15.4103 14.3779 15.2653 14.5173C15.1202 14.6567 15.1011 14.8721 15.2224 14.9984Z" fill="#FBF9EB"/>
<path fill-rule="evenodd" clip-rule="evenodd" d="M15.2267 6.26155C15.1801 6.26734 15.1351 6.28189 15.0939 6.30441C15.0767 6.30441 15.0596 6.32155 15.0296 6.33441C14.9396 6.38584 14.7724 6.48012 14.4596 6.57441C13.7327 6.75493 12.9883 6.85553 12.2396 6.87441C10.8192 6.98153 9.45335 7.4669 8.28387 8.28012C7.0153 9.18012 6.03387 10.5516 6.03387 12.4887C6.03387 14.0144 6.9553 14.9744 8.13387 15.5616C9.24906 16.0772 10.4624 16.3462 11.691 16.3501C13.6496 16.3501 15.2139 15.9516 16.281 15.2487C16.7865 14.9454 17.2042 14.5154 17.4928 14.0013C17.7814 13.4873 17.931 12.9068 17.9267 12.3173C17.9267 9.95155 16.2124 8.27584 15.7067 7.77869C15.4741 7.56539 15.3163 7.28289 15.2567 6.97298C15.2108 6.77737 15.2079 6.57412 15.2482 6.37727C15.2653 6.31298 15.2567 6.28298 15.2524 6.27441V6.26584L15.261 6.27441L15.2224 6.25298L15.2396 6.26155H15.2439H15.2267ZM15.3639 6.05584C15.3211 6.0308 15.2719 6.01887 15.2224 6.02155C15.1624 6.02155 15.0853 6.04298 14.9953 6.08155L14.8924 6.13298C14.7982 6.18869 14.6696 6.26155 14.391 6.34298C14.0139 6.45012 13.3667 6.57012 12.2267 6.63441C11.061 6.69869 9.45815 7.14869 8.14244 8.08298C6.82672 9.02155 5.79387 10.453 5.79387 12.4887C5.79387 14.1344 6.79672 15.163 8.02244 15.7758C9.17086 16.3083 10.4209 16.5861 11.6867 16.5901C13.6796 16.5901 15.2953 16.1873 16.4139 15.4501C16.9526 15.1247 17.3974 14.6648 17.7047 14.1155C18.012 13.5663 18.1712 12.9466 18.1667 12.3173C18.1667 9.84869 16.3839 8.10441 15.8782 7.61155L15.8053 7.53869C15.6339 7.36727 15.5396 7.14012 15.4967 6.92584C15.4574 6.76736 15.4516 6.60242 15.4796 6.44155C15.531 6.25298 15.471 6.10727 15.3639 6.05584Z" fill="#E7B45B"/>
<path fill-rule="evenodd" clip-rule="evenodd" d="M11.9996 19.2687C12.9564 19.2687 13.9038 19.0802 14.7877 18.7141C15.6716 18.348 16.4748 17.8113 17.1514 17.1348C17.8279 16.4582 18.3646 15.655 18.7307 14.7711C19.0968 13.8872 19.2853 12.9398 19.2853 11.983C19.2853 11.0262 19.0968 10.0788 18.7307 9.19486C18.3646 8.31091 17.8279 7.50774 17.1514 6.8312C16.4748 6.15466 15.6716 5.618 14.7877 5.25186C13.9038 4.88572 12.9564 4.69727 11.9996 4.69727C10.0673 4.69727 8.21414 5.46487 6.8478 6.8312C5.48147 8.19754 4.71387 10.0507 4.71387 11.983C4.71387 13.9153 5.48147 15.7684 6.8478 17.1348C8.21414 18.5011 10.0673 19.2687 11.9996 19.2687ZM11.9996 18.8573C13.8182 18.8573 15.5624 18.1348 16.8483 16.8489C18.1343 15.5629 18.8567 13.8188 18.8567 12.0001C18.8567 10.1815 18.1343 8.43735 16.8483 7.15139C15.5624 5.86543 13.8182 5.14298 11.9996 5.14298C10.181 5.14298 8.43681 5.86543 7.15085 7.15139C5.86489 8.43735 5.14244 10.1815 5.14244 12.0001C5.14244 13.8188 5.86489 15.5629 7.15085 16.8489C8.43681 18.1348 10.181 18.8573 11.9996 18.8573Z" fill="#FEFEFC"/>
<defs>
<linearGradient id="paint0_linear_112_4991" x1="11.9996" y1="4.70175" x2="11.9996" y2="19.2687" gradientUnits="userSpaceOnUse">
<stop stop-color="#7DEAF9"/>
<stop offset="1" stop-color="#C9F6FC"/>
</linearGradient>
<linearGradient id="paint1_linear_112_4991" x1="11.9996" y1="4.69727" x2="11.9996" y2="19.2687" gradientUnits="userSpaceOnUse">
<stop stop-color="#FDDC2A"/>
<stop offset="1" stop-color="#FFD829"/>
</linearGradient>
<linearGradient id="paint2_linear_112_4991" x1="12.0021" y1="11.2375" x2="12.0021" y2="19.2687" gradientUnits="userSpaceOnUse">
<stop stop-color="#FFFF79"/>
<stop offset="0.94" stop-color="#FFFF79" stop-opacity="0"/>
</linearGradient>
<linearGradient id="paint3_linear_112_4991" x1="11.5074" y1="4.69716" x2="13.9411" y2="18.9362" gradientUnits="userSpaceOnUse">
<stop stop-color="#FCC216"/>
<stop offset="1" stop-color="#FCC216" stop-opacity="0"/>
</linearGradient>
<linearGradient id="paint4_linear_112_4991" x1="5.22119" y1="10.8343" x2="18.993" y2="12.153" gradientUnits="userSpaceOnUse">
<stop stop-color="#FF9503"/>
<stop offset="1" stop-color="#FF9503" stop-opacity="0"/>
</linearGradient>
</defs>
</svg>
