<svg width="24" height="24" viewBox="0 0 24 24" fill="none" xmlns="http://www.w3.org/2000/svg">
<path fill-rule="evenodd" clip-rule="evenodd" d="M3.64244 9.85693L4.07101 10.2684L3.64244 10.6755L3.21387 10.2684L3.64244 9.85693ZM3.28672 11.4212C3.48387 11.6098 3.80101 11.6098 3.99815 11.4212L5.14244 10.2855L5.57101 10.6069V13.7141H5.14244V11.0184L4.42672 11.6912C4.21244 11.8969 3.9253 11.9998 3.64244 11.9998C3.35958 11.9998 3.07244 11.8969 2.85815 11.6912L2.14244 11.0141V13.7141H1.71387V10.6069L2.14244 10.2855L3.28672 11.4212ZM5.7853 13.7141L7.18672 10.2855H7.81672L9.21387 13.7141H8.74244L8.38244 12.8569H6.64244L6.27387 13.7141H5.7853ZM7.48244 10.7141L6.78387 12.4284H8.23244L7.50815 10.7141H7.48244ZM11.9996 12.9812H11.9739L9.93387 10.2855H9.42815V13.7141H9.85672V10.9369H9.88672L11.9996 13.7098L12.4282 13.7141V10.2855H11.9996V12.9812ZM12.8567 10.7098V10.2855H15.8567V10.7141H14.571V13.7141H14.1424V10.7141H12.8567V10.7098ZM16.2853 10.2855H17.7382C18.4667 10.2855 18.8567 10.6798 18.8567 11.2284V11.2969C18.8567 11.8112 18.621 11.9484 18.351 12.0255V12.0555C18.6596 12.0684 18.8567 12.2441 18.8567 12.6812V13.7141H18.4282V12.7326C18.4282 12.4284 18.0939 12.4284 17.8282 12.4284H16.7139V13.7141H16.2853V10.2855ZM18.8567 13.7141L20.2582 10.2855H20.8882L22.2853 13.7141H21.8139L21.4539 12.8569H19.7139L19.3453 13.7141H18.8567ZM16.7139 11.9998H17.6739C18.1024 11.9998 18.4282 11.6698 18.4282 11.3569C18.4282 11.0441 18.1153 10.7141 17.6567 10.7141H16.7139V11.9998ZM19.8553 12.4284L20.5539 10.7141H20.5796L21.3039 12.4284H19.8553Z" fill="url(#paint0_linear_59_70082)"/>
<defs>
<linearGradient id="paint0_linear_59_70082" x1="1.71387" y1="11.7855" x2="22.2853" y2="11.7855" gradientUnits="userSpaceOnUse">
<stop stop-color="#FFB298"/>
<stop offset="1" stop-color="#FE95CE"/>
</linearGradient>
</defs>
</svg>
