<svg width="24" height="24" viewBox="0 0 24 24" fill="none" xmlns="http://www.w3.org/2000/svg">
<path d="M18 16.5001L17.8586 16.2858C17.97 15.9644 18.03 15.7372 17.91 15.3901C17.8243 15.1501 17.8886 14.7301 17.6357 14.5972C17.8071 14.0915 17.5671 13.3115 17.0786 13.0544C17.0786 12.9944 17.0871 12.883 17.0786 12.8272C17.0571 12.6215 16.8943 12.5444 16.7057 12.5744C16.62 12.5872 16.5343 12.6558 16.4229 12.643C16.1229 12.613 16.0629 12.4715 15.5229 12.493C15.2829 12.5015 14.9014 12.6644 14.7857 12.8701C14.2071 12.8701 14.4386 12.9472 13.9286 12.943C13.9286 12.5358 14.01 12.2915 13.6029 12.2658C13.32 12.2487 12.96 12.2658 12.6729 12.2658C12.5657 12.0644 12.5957 12.0858 12.5957 11.7815V11.1815C12.6771 11.1258 12.78 11.1258 12.8957 11.0872C13.4957 10.8944 13.8814 10.5944 14.0443 9.95582C14.25 9.12867 14.1386 8.94439 14.2414 8.35296C14.31 7.98439 14.3529 6.62153 14.1686 6.25296C14.0529 6.0301 14.1043 6.28296 13.9929 5.98724C13.9157 5.79439 13.7914 5.60153 13.6457 5.4601C13.3455 5.13117 12.9597 4.89227 12.5314 4.7701C11.888 4.6491 11.2226 4.75194 10.6457 5.06153C9.77571 5.61867 10.1229 5.74724 9.69429 6.23582C9.46286 6.50153 9.48 8.19439 9.61714 8.64439L9.78857 9.79296C9.81857 9.90867 9.79714 9.81867 9.81857 9.88724C9.90429 10.1444 9.99 10.4315 10.1786 10.6244C10.7186 11.1644 10.9071 10.9801 11.2629 11.1815C11.2629 11.3701 11.3271 11.7258 11.1686 11.8244C11.0357 11.9101 11.0143 11.9615 10.9371 12.0987L10.8557 12.3087C10.6157 12.3087 10.0843 12.2101 10.0414 12.5658V12.9815C9.66429 12.9815 9.83571 13.0072 9.66429 12.9387C9.53143 12.883 9.34286 12.9087 9.18857 12.9087C9.13286 12.883 9.06429 12.823 9.00429 12.7887C8.88245 12.6988 8.74381 12.6342 8.59657 12.5989C8.44934 12.5636 8.29651 12.5582 8.14714 12.583C8.04 12.6044 7.98429 12.6258 7.89 12.6601C7.29 12.8572 7.43143 12.6601 7.15286 12.6858C7.00714 12.6987 7.04571 12.6987 6.99429 12.7501C6.87857 12.8701 6.89143 13.0158 6.89143 13.1701C6.68143 13.213 6.51857 13.5558 6.43286 13.7315C6.28286 14.0487 6.27429 14.2458 6.30857 14.7087C6.32143 14.713 6.15 15.0001 6.15 15.2358C6.15 15.5744 5.91429 16.0972 6.18857 16.4015C6.16286 16.4658 6.06857 16.6072 6 16.6287C7.10571 18.2787 9.35571 19.2858 11.7729 19.2858C14.28 19.2815 16.8086 18.3001 18 16.5001Z" fill="white"/>
<path d="M11.5286 6.49296C11.3571 6.59153 11.1643 6.71582 10.9629 6.70724C11.0314 6.82724 10.9886 6.70724 10.98 6.89582L10.8857 7.59867C10.7443 8.47724 10.7357 8.38725 10.92 9.40725C11.0143 9.9001 10.9414 9.77582 11.1257 9.97296C11.2114 10.0758 11.1686 10.0072 11.2243 10.1401C11.3229 10.1787 11.43 10.3587 11.5671 10.4315C12.0814 10.6887 12.5529 10.3372 12.7929 9.90867C12.8914 9.68153 12.9129 9.37296 12.9471 9.09439C13.02 8.54582 13.0414 8.61439 12.8743 8.32296C12.7286 8.07439 12.8057 7.3801 12.8314 7.07153C12.8486 6.87439 12.8014 6.88296 12.8186 6.6901C12.6343 6.65582 12.5443 6.56582 12.39 6.50582C12.24 6.44582 12.1029 6.43296 11.9657 6.33439C11.94 6.1201 11.88 5.82867 11.9357 5.62296C11.8714 5.72153 11.88 5.8801 11.8757 6.0001C11.8757 6.11582 11.8757 6.23582 11.8586 6.35153C11.73 6.43724 11.6871 6.4501 11.5286 6.49296Z" fill="#0F0F0F"/>
<path d="M14.6829 18.1672C14.5843 18.0558 14.5671 17.8501 14.6786 17.7344C14.73 17.8972 14.7214 18.0044 14.6786 18.1672H14.6829ZM12.4629 17.5844L12.4543 17.3015L13.5729 17.2715C13.4229 17.4001 13.3843 17.4601 13.1271 17.533C12.8914 17.6015 12.7071 17.6187 12.4629 17.5844ZM13.0029 17.083L12.4543 17.113L12.4414 16.573C13.2343 16.603 12.8786 16.5087 13.0029 17.083ZM12.4457 16.4787L12.4971 16.4487C12.66 16.3972 13.0971 16.4058 13.2643 16.4144C13.59 16.4315 13.7486 16.4615 13.7614 16.8172C13.7786 17.3058 13.3886 17.2244 12.8529 17.233C12.7886 17.233 12.6857 17.2415 12.63 17.233C12.4329 17.2287 12.4843 17.2158 12.4586 17.1901C12.5957 17.1044 12.8829 17.1644 13.0457 17.1258C13.08 16.9972 13.0114 17.0187 13.0114 16.8515C13.0114 16.6672 13.0971 16.6801 13.0543 16.5472C12.8786 16.5387 12.54 16.5515 12.4457 16.4787ZM12.4457 16.0801C12.9771 16.0287 13.23 16.1315 13.5429 16.3887C13.1357 16.3672 12.8571 16.3544 12.4371 16.3887L12.4414 16.0801H12.4457ZM11.0614 12.283C11.0143 12.3172 11.04 12.2358 10.9843 12.3901C10.77 12.5144 10.4143 12.3601 10.1871 12.4887C10.0586 12.7972 10.2429 12.8744 10.1657 13.1015C10.0543 13.1358 9.82714 13.1572 9.71143 13.1401C9.48429 13.1058 9.77571 13.0887 9.33429 13.0672C9.01286 13.0501 9.15 12.8958 8.66571 12.7501C7.95429 12.5315 7.69286 12.9215 7.43143 12.8787C7.29 12.853 7.18714 12.7887 7.06286 12.8101C6.98571 12.9815 7.05857 13.153 6.93429 13.2815C6.79714 13.4401 6.27429 13.8215 6.44571 14.5072C6.51857 14.803 6.46286 14.6958 6.35143 14.9358C6.24857 15.163 6.33857 15.2358 6.26571 15.4415C6.06 16.0372 6.19286 15.8958 6.32571 16.3672C6.16714 16.5644 6.19286 16.4615 6.14571 16.6672L6.18429 16.6458C6.38143 16.4101 6.55714 16.2987 6.94286 16.2858C6.9 16.663 6.81857 16.4058 6.73714 16.6715C6.68143 16.8515 6.59571 16.933 6.65571 17.1001L6.75429 17.203L6.80571 17.0101L8.40429 17.0658C8.46429 17.443 8.25 17.9744 8.28429 18.2487L8.48143 18.3472C8.47714 18.1758 8.42571 18.0558 8.42143 17.9315C8.42143 17.833 8.46429 17.6487 8.47286 17.5244L8.46857 17.3615C8.43857 17.1858 8.50286 17.2244 8.49429 17.1087C8.48143 16.933 8.62286 17.053 8.30571 17.0015C8.38286 16.8344 8.31 16.9415 8.41286 16.8644L8.49857 16.7358C8.44286 16.6244 8.43 16.663 8.45571 16.5344C8.57571 16.6801 8.61 16.9587 8.77714 16.8944C8.89714 16.7915 8.68714 16.6201 8.71714 16.423L8.44714 16.483L8.52429 16.1187C8.78143 16.0758 9.82714 15.8272 10.0029 15.9172L9.81857 16.0072C9.58286 16.0501 9.35571 16.0244 9.08571 16.1358C9.07529 16.1407 9.06526 16.1465 9.05571 16.153C9.18429 16.1615 9.08143 16.1444 9.12857 16.183L9.16286 16.2258C9.42696 16.1206 9.70621 16.0584 9.99 16.0415L9.97286 16.3844C9.97714 16.3972 9.98571 16.4015 9.99 16.4272C9.99857 16.4958 10.0414 16.4701 10.0414 16.7744L10.0114 17.0744C9.95571 17.2758 10.0114 17.1001 9.96857 17.1858C9.96 17.9444 9.77143 18.343 10.3543 18.8444C10.4829 18.9601 10.4443 18.853 10.5086 19.003L10.5857 19.0158C10.6114 18.8444 10.8514 18.9215 11.2971 18.9215C11.5714 18.9215 11.8414 18.9215 12.1114 18.913C12.6686 18.9044 13.2257 18.8872 13.7829 18.8915L14.1343 18.8444L14.1171 18.343V18.3087C14.16 17.8201 14.0743 16.9587 14.0529 16.4272H14.5414C14.55 16.8258 14.5414 17.2115 14.55 17.5972L14.5629 18.4544C14.5714 18.643 14.5371 18.6387 14.6486 18.6815C14.6057 18.3815 14.7686 18.4758 14.8629 18.2015C14.9314 18.0087 14.9229 17.7644 14.8029 17.6144C14.6014 17.3615 14.6057 17.5844 14.61 17.113C14.61 16.8687 14.6186 16.5987 14.61 16.3587H14.0614L14.0443 16.003C14.1857 16.0115 14.5286 16.0544 14.6571 16.0887C14.8029 16.123 15.0086 16.2515 15.1886 16.303L15.1671 16.603L15.1757 16.873L15.2229 16.9587L15.5143 16.903C15.5529 17.1172 15.5571 17.353 15.5914 17.563C15.6557 17.9315 15.6129 17.8844 15.5914 18.2401L15.8057 18.1501C15.7457 17.8501 15.6 17.293 15.6343 16.9715L17.2457 16.8901L17.2886 17.0915C17.3743 17.0401 17.31 17.1258 17.3743 16.9972C17.5157 16.7615 17.2714 16.7358 17.2971 16.4401L17.2586 16.4272C17.1129 16.3672 17.1043 16.393 17.1043 16.1701C17.9271 16.213 17.6614 16.5944 17.8929 16.4787L17.8329 16.3372C17.7557 16.2944 17.7771 16.3158 17.7086 16.2601C17.7343 16.0887 17.85 15.973 17.8671 15.7715C17.8886 15.5058 17.7986 15.463 17.7386 15.2915C17.6743 15.103 17.7557 15.0344 17.6314 14.803C17.5114 14.5715 17.46 14.6915 17.5329 14.3958C17.5863 14.0709 17.5127 13.7379 17.3271 13.4658C17.2414 13.333 17.1343 13.2772 17.0314 13.1658C16.9157 13.0458 16.9671 12.8658 16.9029 12.703C16.7657 12.6687 16.6586 12.7458 16.5043 12.7715C16.2643 12.8058 15.9171 12.4115 15.2871 12.6644C14.7729 12.8701 14.9357 12.9901 14.6357 13.0115C14.1514 13.0458 14.5029 13.0587 14.2243 13.0972C13.41 13.213 14.01 12.6815 13.7529 12.4458C13.53 12.3258 12.8357 12.4244 12.51 12.373L12.5014 11.0444L12.8143 10.963C12.7714 10.9201 12.9 10.8772 12.6857 10.9158C12.8529 10.813 12.9086 10.7444 13.0071 10.6287C13.1186 10.5001 13.1486 10.5001 13.2557 10.3287C13.2043 10.2858 13.2557 10.2558 13.2043 10.3587C13.0843 10.3887 13.1614 10.4101 13.08 10.4787C13.0731 10.4846 13.0659 10.4904 13.0586 10.4958C12.7114 10.753 12.9643 10.6544 12.75 10.8215C12.6471 10.9072 12.4457 11.0358 12.3171 10.9972C12.5743 10.9972 12.36 10.9801 12.42 11.0744C12.3343 11.4601 12.4886 12.2401 12.3771 12.5315C12.1971 12.7501 11.7514 12.7758 11.55 12.5315L11.52 11.8158C11.4514 11.743 11.4943 11.8158 11.46 11.7087C11.4429 11.6572 11.4471 11.6487 11.4429 11.593C11.4257 11.4044 11.4214 11.1644 11.52 11.023C11.2457 10.9201 11.4129 10.9372 11.1986 10.7958C10.2471 9.12439 10.5429 9.15439 10.6457 9.1501C11.0229 9.1501 10.4571 6.58725 10.2171 6.53582C10.2129 6.3001 10.0457 6.0601 10.1743 5.83724C10.3971 5.45153 10.5 5.55867 10.6286 5.62296L10.5171 5.47296C10.5814 5.40867 10.5986 5.40867 10.6543 5.36153C11.0829 5.02725 11.2671 5.17296 11.0657 5.0701C10.6371 5.13867 10.11 5.67867 9.96 6.14582C9.80571 6.62153 9.70286 6.18867 9.65571 7.15725C9.62143 7.78296 9.79714 9.77582 10.0757 10.2258C10.1614 10.1744 10.1057 10.243 10.0929 10.1315L9.85714 9.22296C9.87429 7.60725 9.94714 9.50153 10.6671 10.4015L11.22 10.9587C10.9629 10.9587 11.1814 10.9501 11.0871 11.0015L11.4043 11.0701L11.4214 11.8544C11.2671 11.9744 11.07 12.0687 11.0657 12.283H11.0614ZM10.5 13.7015C10.7143 13.7015 11.7129 13.6801 11.8457 13.723C12.0386 13.783 13.0114 14.6872 13.2429 15.0087C13.3714 15.1844 13.4057 15.8872 13.3929 16.1572C13.0796 16.0129 12.7313 15.9623 12.39 16.0115C12.3471 16.1401 12.3557 17.1815 12.3686 17.4515L12.4114 17.6358C12.6686 17.8672 14.22 17.4515 13.7829 16.5515C13.6971 16.3844 13.5943 16.3372 13.56 16.2601C13.5429 16.2172 13.4614 15.4287 13.44 15.2872C13.6414 15.4415 13.7271 15.7887 13.95 15.943L14.0357 18.5058V18.8144L12.3814 18.8315L12.2614 14.173L10.32 14.1987L10.1914 14.3958C10.1186 14.4687 10.1829 14.4215 10.0929 14.4772L10.1057 14.023C10.5129 13.9715 10.2686 13.9801 10.4829 14.1387C10.5386 14.0187 10.5214 13.8515 10.5 13.7015ZM13.9157 15.3558L13.9243 15.6815C13.7657 15.5187 13.2086 14.5758 12.3857 13.9672C12.2914 13.8944 12.2014 13.8172 12.0943 13.7744L12.2143 13.6672L13.4571 13.663C13.4571 13.8044 13.4357 13.9801 13.4829 14.0958L13.5814 13.9758C13.5814 13.963 13.59 13.9587 13.5943 13.9501L13.8643 13.9844L13.9157 15.3558ZM11.1686 12.3987L11.22 12.2015C11.3186 12.1501 11.2629 12.1415 11.43 12.0944L11.4343 12.4072L11.1686 12.403V12.3987ZM12.15 14.2715C12.1929 14.4001 12.3129 18.5272 12.2786 18.8144L10.4357 18.8272C10.0071 18.1887 10.05 18.6687 10.0629 17.4472C10.0671 16.8644 10.0929 16.2772 10.0929 15.6944V14.8372C10.0929 14.6272 10.3157 14.3272 10.4229 14.2972C10.4957 14.2758 12.0171 14.2544 12.15 14.2715ZM6.91286 16.5687L6.90429 16.8987L6.76286 16.9072C6.77143 16.7915 6.80571 16.6072 6.91286 16.5644V16.5687ZM8.59286 16.5001C8.70429 16.5772 8.73857 16.7015 8.74286 16.843C8.59714 16.753 8.52857 16.5515 8.59286 16.5001ZM8.25857 16.9672L7.00286 16.9244L7.09286 15.3044C7.14429 15.3001 8.17286 15.6472 8.49 15.6901L8.25857 16.9672ZM6.85286 15.853L6.95143 15.8744L6.88714 16.213C6.83571 16.2258 6.86571 16.2215 6.81429 16.2215C6.81429 16.3501 6.75 16.2987 6.67714 16.2644L6.48857 16.2558C6.37286 16.0415 6.27429 15.853 6.44571 15.6215L6.63857 15.7715C6.70286 15.673 6.79714 15.6944 6.45429 15.5701C6.49714 15.4887 6.50571 15.4844 6.55286 15.4201C6.67714 15.463 6.65571 15.5058 6.78857 15.5701C6.97714 15.673 6.95571 15.5701 6.97714 15.763C6.86143 15.8058 6.90429 15.8058 6.84857 15.853H6.85286ZM6.98143 15.2315V15.5615C6.83571 15.5615 6.73286 15.463 6.65571 15.4115C6.70714 15.2615 6.80571 15.1372 6.97714 15.2315H6.98143ZM8.54143 16.0501C8.59286 15.6001 8.61 15.8058 8.70429 15.6601C8.76429 15.5658 8.77714 15.3258 8.82 15.2187C8.88429 15.0472 8.82857 15.193 9.11143 14.9487C9.1727 14.8976 9.24777 14.8658 9.32712 14.8574C9.40648 14.849 9.48653 14.8644 9.55714 14.9015L9.62143 14.833L9.64286 14.803L9.66857 14.773L9.99857 14.7858C9.99857 15.2872 10.0629 15.2744 9.54 15.6815C9.18857 15.9558 9.07714 15.9987 8.54143 16.0501ZM7.10571 12.8787L7.44 12.9558C7.36286 13.0544 7.31143 13.0587 7.23857 13.1787C6.93857 13.6415 7.07143 13.2558 7.10571 12.8787ZM17.1257 16.453C17.2286 16.4915 17.2543 16.6587 17.2757 16.7744C17.1471 16.8344 17.1686 16.7744 17.1471 16.7658L17.1257 16.453ZM15.2829 16.7615C15.3129 16.6287 15.3429 16.4872 15.45 16.4058C15.5014 16.513 15.4029 16.6844 15.2871 16.7615H15.2829ZM15.5486 15.6215C15.7414 15.523 16.0586 15.4887 16.2771 15.4158C16.4443 15.3558 16.7914 15.193 16.92 15.1844L17.0357 16.8044L15.7843 16.8601L15.5486 15.6172V15.6215ZM17.0571 15.4501C16.9286 14.9615 17.2071 15.0001 17.3571 15.2487C17.2886 15.3644 17.22 15.4372 17.0571 15.4501ZM17.5414 16.1487L17.0957 16.0887L17.0786 15.763L17.2714 15.6987C17.4086 15.6215 17.4986 15.553 17.6143 15.493C17.7257 15.6344 17.6571 15.7244 17.5414 16.1487ZM14.8586 14.8715C15.3471 15.2315 15.1029 15.0087 15.2871 15.4887C15.3814 15.7458 15.4671 15.4972 15.4843 15.9472C15.111 15.9691 14.7429 15.8514 14.4514 15.6172C14.1257 15.3687 13.9543 15.2958 13.9971 14.7558C14.3486 14.6872 14.3229 14.7815 14.4557 14.8115C14.6314 14.8544 14.6786 14.743 14.8586 14.8715ZM17.3443 14.0572C17.3571 14.2287 17.3529 14.4001 17.2543 14.5287L17.16 14.0915L17.3443 14.0572ZM17.0014 13.3715C17.1429 13.4444 17.0957 13.4358 17.1771 13.5815C17.2457 13.7015 17.25 13.6844 17.28 13.8387L17.0657 13.8215L16.9971 13.3715H17.0014Z" fill="#171717"/>
<path d="M14.0357 18.5058L13.95 15.943C13.7271 15.7887 13.6414 15.4415 13.44 15.2872C13.4614 15.4287 13.5429 16.2172 13.56 16.2601C13.5943 16.333 13.7014 16.3887 13.7829 16.5515C14.22 17.4515 12.6686 17.8672 12.4114 17.6358L12.3686 17.4515C12.3557 17.1815 12.3471 16.1401 12.39 16.0115C12.75 15.9515 13.1014 16.033 13.3929 16.1572C13.4057 15.8872 13.3757 15.1844 13.2429 15.0044C13.0114 14.6872 12.0386 13.783 11.8457 13.7187C11.7129 13.6801 10.71 13.6972 10.5 13.7015C10.5214 13.8515 10.5429 14.0187 10.4829 14.1387C10.4529 14.1172 10.3886 13.9887 10.3714 13.9887L10.1057 14.023L10.0929 14.4772C10.1786 14.4215 10.1186 14.4687 10.1914 14.3958L10.32 14.1987L12.2614 14.173L12.3814 18.8315L14.0357 18.8144V18.5058ZM9.41143 14.2801C9.62571 13.5258 9.11143 12.9644 8.56714 12.8187C7.83857 12.6215 7.23857 13.1187 7.10571 13.6758C6.73286 15.2058 8.97429 15.8272 9.41143 14.2758V14.2801ZM15.5486 12.6944C15.2342 12.7422 14.951 12.9111 14.7596 13.165C14.5682 13.4189 14.4837 13.7376 14.5243 14.053C14.7 15.5787 17.1343 15.3215 16.8814 13.6887C16.8599 13.536 16.8084 13.389 16.7299 13.2563C16.6514 13.1235 16.5474 13.0076 16.4239 12.9152C16.3004 12.8228 16.1599 12.7558 16.0104 12.7179C15.8609 12.68 15.7054 12.672 15.5529 12.6944H15.5486Z" fill="#CDCFDB"/>
<path d="M12.0429 17.9315C11.7514 19.1744 9.98571 18.703 10.2257 17.5287C10.2534 17.4086 10.3047 17.2951 10.3764 17.1949C10.4482 17.0947 10.5391 17.0097 10.6439 16.9447C10.7486 16.8798 10.8652 16.8363 10.9869 16.8166C11.1086 16.7969 11.233 16.8015 11.3529 16.8301C11.7814 16.9287 12.1671 17.3958 12.0386 17.9315H12.0429ZM10.8729 14.533C11.4386 14.3744 11.8929 14.7901 12 15.1758C12.0695 15.4117 12.0433 15.6654 11.9269 15.882C11.8106 16.0986 11.6136 16.2607 11.3786 16.333C10.2386 16.6801 9.62143 14.893 10.8729 14.533ZM12.15 14.2715C12.0214 14.2544 10.4957 14.2758 10.4229 14.2972C10.3157 14.3272 10.0929 14.6272 10.0929 14.833V15.6944C10.0929 16.2772 10.0671 16.8644 10.0629 17.4472C10.05 18.6687 10.0114 18.1887 10.4357 18.8272L12.2786 18.8101C12.3129 18.5272 12.1929 14.4001 12.15 14.2672L12.15 14.2715Z" fill="#CDCFDB"/>
<path d="M10.2214 6.53582C10.1957 6.73724 10.2429 6.91296 10.2471 7.11867C10.2514 7.34582 10.2 7.5901 10.2129 7.75296C10.2471 8.17724 10.35 8.28439 10.5643 8.56296C10.6671 8.69153 10.6629 8.88439 10.68 9.04296C10.7357 9.05582 10.8 9.74582 10.86 9.8701L11.2114 10.2987C11.3057 10.4058 11.2414 10.363 11.37 10.4358C11.3372 10.3614 11.2939 10.2922 11.2414 10.2301C11.1771 10.153 11.1643 10.1615 11.1129 10.0715L11.2243 10.1401C11.1729 10.0115 11.2157 10.0758 11.1257 9.97296C10.9414 9.77582 11.01 9.9001 10.92 9.40725C10.7357 8.38725 10.74 8.47724 10.8857 7.59867L10.98 6.89582C10.9886 6.70724 11.0314 6.82724 10.9629 6.71153C11.1643 6.71582 11.3529 6.59153 11.5286 6.49724C11.5714 6.2401 11.52 6.10296 11.6186 5.94867C11.94 6.13296 11.5671 5.72153 12.54 5.90582C12.9043 5.9701 12.6086 6.46724 12.75 6.61724L13.02 6.6301C12.9257 7.11867 13.0029 7.85582 13.0543 8.35296C13.0714 8.53724 13.0414 8.77296 13.0243 8.9401C13.1529 8.70867 13.1357 7.32867 13.1229 6.89153C13.1143 6.57439 13.2343 6.6301 13.0029 6.56153L13.0371 5.84582C13.3114 5.82439 13.0329 5.73867 13.4229 5.77296L13.4571 5.92296C13.4871 6.17153 13.59 6.30867 13.5771 6.63439C13.5643 6.89153 13.5 7.11867 13.4957 7.36724C13.4957 7.5601 13.4571 7.88153 13.4229 8.07867C13.3843 8.30582 13.2857 8.38724 13.2343 8.61439C13.1486 9.01725 13.1529 9.59153 12.9643 9.92153L13.0671 9.86153C13.1314 9.59582 13.17 9.27439 13.2171 8.98296C13.32 8.3401 13.4314 8.87153 13.5171 8.28867C13.56 7.97582 13.8129 6.74582 13.6286 6.53153L13.8171 6.42439C13.8471 6.19724 13.7229 5.98724 13.62 5.82439C13.4271 5.50724 13.38 5.52439 13.1957 5.58439L13.0757 5.65724C13.0629 5.45153 13.1186 5.61439 12.9343 5.47296C12.7414 5.31867 12.7629 5.13439 11.9614 5.23724L11.9229 5.24153L11.5929 5.25439C11.1814 5.26724 10.9757 5.32724 10.6586 5.54582C10.6414 5.7601 10.4357 5.21582 10.23 6.27439C10.2 6.41153 10.1871 6.45867 10.2214 6.53582Z" fill="#484848"/>
<path d="M13.2 5.58439C13.38 5.52867 13.4271 5.50724 13.62 5.8201C13.7229 5.98724 13.8471 6.19724 13.8171 6.4201C13.7529 6.46724 13.7957 6.42867 13.7314 6.46296L13.6286 6.53582C13.8129 6.74153 13.5643 7.97582 13.5171 8.29296C13.4314 8.87153 13.32 8.34439 13.2171 8.98296C13.1743 9.27439 13.1314 9.59582 13.0671 9.86153L12.9643 9.92153C12.96 9.99439 12.54 10.4358 12.3086 10.5215C11.8114 10.7015 11.6357 10.6844 11.3143 10.3287L10.86 9.8701C10.8 9.74153 10.7314 9.05582 10.68 9.04296C10.5 9.04296 10.5471 8.96582 10.4957 8.83296C10.4957 8.84153 10.0243 7.08867 9.89143 6.4501C9.84 6.57867 9.99857 7.34582 10.0286 7.53867C10.1057 8.04439 10.0971 8.4301 10.2986 9.04725C10.4571 9.52296 10.6414 10.5344 11.1257 10.8472C11.34 10.9801 11.1986 10.933 11.4686 11.0315C11.2886 11.3101 11.5543 12.6044 11.5114 11.1387C11.6829 11.1558 11.7814 11.1387 11.9657 11.1301C12.15 11.1215 12.2529 11.0787 12.42 11.0744C12.5057 11.0444 12.5486 10.9801 12.75 10.8215C13.0296 10.6178 13.2548 10.3485 13.4057 10.0372C13.9071 8.38724 13.7614 9.02582 14.0829 8.99153C14.1471 8.32724 14.2114 7.49153 14.1386 6.82296C14.1214 6.68582 14.0957 6.48867 14.0314 6.38153C13.9157 6.21439 14.16 6.5401 13.9586 6.30439C13.8943 6.22724 13.9543 6.33439 13.8986 6.21867C13.7914 5.97867 13.6843 5.5801 13.2986 5.37439C13.2214 5.43439 13.14 5.51582 13.2 5.58439Z" fill="#201F20"/>
<path d="M8.49 15.6858C8.17286 15.6515 7.14429 15.3001 7.09286 15.3001L7.00714 16.9201L8.25857 16.9672L8.49 15.6901V15.6858Z" fill="#CED0DC"/>
<path d="M15.5486 15.6215L15.7843 16.8644L17.0357 16.8044L16.9243 15.1844C16.7914 15.193 16.4443 15.3558 16.2771 15.4158C16.0586 15.4887 15.7414 15.523 15.5486 15.6215Z" fill="#CDCFDB"/>
<path d="M12.0429 17.9315C12.1671 17.3958 11.7857 16.9287 11.3571 16.8301C10.7914 16.7015 10.3157 17.0872 10.2257 17.5287C9.98143 18.7072 11.7514 19.1701 12.0429 17.9315Z" fill="#030403"/>
<path d="M10.8729 14.533C9.62143 14.893 10.2386 16.6801 11.3786 16.333C11.6146 16.2607 11.8124 16.098 11.9288 15.8804C12.0452 15.6628 12.0708 15.4079 12 15.1715C11.8929 14.7858 11.4386 14.3701 10.8729 14.5287L10.8729 14.533Z" fill="#050506"/>
<path d="M13.23 10.2944C13.1271 10.4658 13.1186 10.4958 13.0071 10.6287C12.9086 10.7444 12.8529 10.813 12.6814 10.9158C12.9 10.8815 12.7714 10.9201 12.8143 10.963C13.0629 10.9072 13.4571 10.7315 13.6029 10.5558C13.9071 10.183 14.0571 9.48439 14.0829 8.99153C13.9971 8.97439 14.0271 8.92296 14.0357 8.79867C14.0357 8.70439 14.0571 8.46867 14.0571 8.45582C14.07 7.55582 14.1257 7.67582 14.0229 6.6001C13.8257 7.5001 13.7014 9.63439 13.23 10.2944Z" fill="#414241"/>
<path d="M15.1757 16.873L15.1671 16.5987L15.1114 16.4444C15.0814 16.3501 15.12 16.3887 15.0514 16.3158C14.9914 16.2558 14.88 16.2301 14.7943 16.2044L14.4943 16.1272C14.0486 16.0287 14.2029 16.0972 14.1643 16.1787C14.2286 16.3244 14.0914 16.2644 14.37 16.273C14.6829 16.2815 14.6957 16.1872 14.6914 16.9244C14.6914 17.413 14.6443 17.3615 14.8371 17.5415C15.2571 17.9187 14.7343 18.2701 14.7257 18.643C14.9743 18.5872 15.2743 18.4072 15.4886 18.313C15.4971 18.0344 15.5829 17.8758 15.5529 17.6401C15.45 16.7401 15.3814 17.1172 15.0857 16.9201L15.1157 16.7401L15.1243 16.7701C15.1714 16.9072 15.1029 16.8087 15.1757 16.873Z" fill="#4A4A4C"/>
<path d="M8.55 18.043L8.60143 18.4072C8.84571 18.493 9.06857 18.6087 9.33 18.6901C9.38143 18.6301 9.36857 18.7115 9.39 18.553C9.18857 18.3901 8.88428 17.9272 9.21 17.5844C9.41143 17.3744 9.35571 17.413 9.35143 17.0358C9.34714 16.8301 9.29571 16.5301 9.40714 16.363C9.65571 16.2344 9.92571 16.4401 9.85286 16.1358C9.43286 16.123 9.23571 16.2772 8.96143 16.4401C8.91857 16.8944 9.17571 16.9887 8.70428 17.1044C8.68714 17.113 8.65286 17.1387 8.64429 17.1258C8.56714 17.0015 8.54143 17.8544 8.55 18.043Z" fill="#494A4C"/>
<path d="M11.0657 5.0701C11.2671 5.17296 11.0829 5.02725 10.6543 5.36153C10.5986 5.40439 10.5814 5.40439 10.5171 5.47296L10.6286 5.62296C10.5 5.55867 10.3971 5.45153 10.1743 5.83724C10.0457 6.0601 9.99 6.25296 9.99857 6.48439L10.2214 6.53582C10.1871 6.45867 10.2 6.40725 10.2257 6.27439C10.32 5.80725 10.4143 5.70867 10.74 5.66582C10.7229 5.68296 10.7829 5.77725 10.6971 5.66582C10.6457 5.59296 10.6757 5.67867 10.6543 5.54582C10.9757 5.33153 11.1814 5.26725 11.5971 5.25439L11.9229 5.24153L11.9614 5.23724C12.7671 5.13439 12.7414 5.32296 12.9343 5.47296C13.1186 5.6101 13.0629 5.45153 13.0757 5.65724L13.2 5.58439C13.14 5.51582 13.2214 5.43439 13.2986 5.3701C13.0114 4.93296 11.5586 4.68439 11.0657 5.0701Z" fill="#363636"/>
<path d="M12.7929 9.90867C12.8829 9.84867 12.8786 9.88296 12.9171 9.72867L12.96 9.47153C12.9857 9.29153 13.0286 9.12867 13.0243 8.9401C13.0414 8.77296 13.0757 8.53724 13.0543 8.35296C13.0029 7.85582 12.9257 7.11867 13.02 6.6301L12.75 6.61724C12.8186 6.52296 12.8057 6.15439 12.7671 6.01724C12.7671 6.00867 12.7543 6.00439 12.7543 5.99153C12.75 5.9401 12.5829 5.9101 12.54 5.90582C12.4723 5.8913 12.4035 5.8827 12.3343 5.8801L12.3 5.78153C11.9186 5.77296 11.9143 5.77296 11.97 5.40439C11.6957 5.43867 11.6357 5.49867 11.4214 5.5501L11.8329 5.48582C11.8414 5.56296 11.8457 5.6701 11.8114 5.74296C11.7643 5.84153 11.7257 5.7901 11.6186 5.94867C11.52 6.10296 11.5757 6.2401 11.5329 6.49296C11.8114 6.41582 11.9186 6.3901 11.9529 6.22724L11.9657 6.33867C12.1029 6.43296 12.24 6.44582 12.3943 6.50582C12.5443 6.56582 12.6343 6.65582 12.8143 6.6901C12.7971 6.88724 12.8486 6.87439 12.8314 7.07153C12.8057 7.3801 12.7286 8.07439 12.8743 8.32724C13.0457 8.61439 13.02 8.54582 12.9471 9.09867C12.9129 9.37296 12.8914 9.68153 12.7929 9.90867Z" fill="#2D2D2E"/>
<path d="M9.85714 9.22296L10.0929 10.1315C10.1057 10.243 10.1657 10.1744 10.0757 10.2258C10.1614 10.5044 10.2943 10.603 10.4871 10.7401C10.6929 10.8815 10.86 10.8944 11.0829 11.0058C11.1771 10.9501 10.9543 10.963 11.2114 10.963L10.6629 10.4015C10.2729 9.91296 10.2643 8.89296 10.1614 8.77724C10.1443 8.88439 10.1486 9.00867 10.1357 9.04725C10.1143 9.12439 10.11 9.09439 10.0243 9.06867C9.93857 9.28296 9.99857 9.20582 9.85286 9.22296L9.85714 9.22296Z" fill="#393A39"/>
<path d="M11.9314 13.4744C12.0986 13.4444 12.0857 13.4015 12.2957 13.4015L13.5214 13.4358C13.6757 13.3201 13.7443 13.213 13.6586 12.9815L12.6643 12.9558C12.4071 12.9815 11.97 13.3972 11.3786 12.9772C11.4214 13.123 11.4943 13.1615 11.5971 13.2687C11.7514 13.4272 11.7043 13.3587 11.8457 13.423L11.8757 13.4358C11.88 13.4401 11.8971 13.4615 11.9014 13.453C11.9057 13.4444 11.9229 13.4658 11.9314 13.4744Z" fill="#8E8E8E"/>
<path d="M11.1343 12.5015C11.1686 12.6815 11.2329 12.8015 11.2971 12.913C11.5071 12.8015 11.5243 13.0201 11.8157 13.0415C12.4286 13.0844 12.3043 12.8615 12.6643 12.853C12.9686 12.8444 13.4143 12.8915 13.6929 12.8487C13.7957 12.4415 13.65 12.5058 13.3371 12.5058C12.0814 12.4972 12.7629 12.4372 12.3557 12.6987C12.0343 12.9044 11.6571 12.8444 11.4129 12.5144L11.1343 12.5015Z" fill="#8E8E8E"/>
<path d="M6.97286 14.1001C6.90429 14.3187 6.78429 14.743 6.76714 14.9915C7.05429 15.1115 8.23714 15.7244 8.64857 15.5915L8.71286 15.2101C8.19429 15.283 7.94143 15.3387 7.51286 15.0301C7.21286 14.8158 7.07571 14.6015 6.97286 14.1001ZM15.2914 15.1287C15.3129 15.2658 15.3514 15.4244 15.4114 15.5144C15.81 15.4844 16.4314 15.2658 16.8171 15.0944C16.9714 15.0258 17.0871 14.9315 17.22 14.8672L17.0057 13.9972C16.8771 14.3315 16.9371 14.5544 16.4871 14.9144C16.0629 15.2572 15.8357 15.1544 15.2914 15.1287Z" fill="#767676"/>
<path d="M15.1286 15.2744C15.0729 15.0901 15.03 15.1458 14.88 15.0387C14.67 14.8887 14.7643 14.953 14.4814 14.953C14.1171 14.9487 14.4729 14.8287 14.1257 14.8544C14.0914 15.0558 14.0957 15.2058 14.2243 15.3258C14.4429 15.5272 15.0043 15.9944 15.3386 15.8401C15.3129 15.6515 15.3686 15.8058 15.1929 15.703C15.1859 15.5583 15.1643 15.4147 15.1286 15.2744Z" fill="#121212"/>
<path d="M8.68714 15.943C8.99324 15.9367 9.28625 15.8176 9.51 15.6087C9.60429 15.5315 9.73714 15.4201 9.81 15.3515C9.87 15.2872 9.87429 15.2872 9.88714 15.1715L9.85286 14.9015C9.48857 14.8844 9.96 14.9958 9.40714 14.9958C9.17143 14.9958 9.20571 15.0472 9.03 15.1672C8.74286 15.3601 8.93571 15.5315 8.82857 15.7458C8.72571 15.9601 8.75571 15.6601 8.68714 15.9472V15.943Z" fill="#111011"/>
<path d="M10.5857 19.0158L10.7143 19.0415C10.9071 19.093 10.5214 18.9772 10.7743 19.0587L10.8386 19.0887H13.0243C13.1143 19.0372 13.0886 19.0501 13.2171 19.0287L13.4014 18.9987C13.53 18.9815 13.6757 18.9601 13.7871 18.8915C13.23 18.8872 12.6729 18.9044 12.1157 18.913C11.8414 18.9215 11.5714 18.9215 11.3014 18.9215C10.8514 18.9215 10.6114 18.8444 10.5857 19.0158Z" fill="#CDCFDB"/>
<path d="M11.43 13.4487L11.5114 13.4272L11.1857 13.0115C10.8981 12.9741 10.6068 12.977 10.32 13.0201C10.1657 13.273 10.32 13.4787 10.59 13.4787C10.8686 13.4787 11.16 13.4101 11.43 13.4487Z" fill="#8E8E8E"/>
<path d="M9.73714 7.9201C9.7199 8.13781 9.73143 8.35684 9.77143 8.57153C9.79714 8.7001 9.87 9.10296 9.85714 9.22296C10.0029 9.20582 9.94286 9.28296 10.0286 9.06867C10.1143 9.09439 10.1186 9.12439 10.14 9.04725C10.1529 9.00867 10.1529 8.88439 10.1657 8.77724C10.1786 8.48582 10.05 8.05724 10.0157 7.74867C9.91714 7.7701 9.96429 7.76153 9.89571 7.78296L9.82714 7.8001C9.79714 7.81296 9.77143 7.72724 9.74143 7.9201H9.73714Z" fill="#505050"/>
<path d="M9.42857 17.7858L9.44572 18.2187C9.33429 18.0987 9.27857 17.8972 9.43286 17.7901L9.42857 17.7858ZM9.40714 18.5487C9.60857 18.7201 9.33 18.5058 9.53143 18.7372L9.48857 16.4701L9.98143 16.4787L9.96857 17.1858C10.0114 17.1001 9.95571 17.2715 10.0114 17.0787L10.0414 16.7787C10.0414 16.4701 9.99857 16.4958 9.99 16.4272C9.99 16.4015 9.97714 16.3972 9.97286 16.3844L9.43286 16.423C9.43286 17.9101 9.46714 17.3144 9.23571 17.683C9.18 17.7687 9.15 17.893 9.15 18.0001C9.15429 18.1072 9.19286 18.2444 9.23571 18.3215C9.27 18.3858 9.27 18.373 9.31714 18.4287L9.40286 18.5487H9.40714Z" fill="#2D2E30"/>
<path d="M8.71714 16.4187C8.79 16.4958 8.95714 17.0015 8.62286 16.9158C8.47714 16.873 8.57143 16.873 8.40857 16.8644C8.31 16.9415 8.38286 16.8344 8.30571 17.0015C8.59286 17.0487 8.42143 17.6187 8.53286 17.0015C9.14571 17.1601 8.86714 16.7058 8.86286 16.3801C8.99571 16.3244 9.07286 16.3072 9.16286 16.2258L9.12857 16.183C9.08143 16.1401 9.18 16.1615 9.05571 16.153C9.06537 16.1479 9.0754 16.1436 9.08571 16.1401C9.35571 16.0244 9.58286 16.0501 9.81429 16.0072L10.0029 15.9215C9.99 15.913 9.97714 15.8787 9.83143 15.8872L8.52429 16.1187L8.44714 16.483L8.71714 16.4187Z" fill="#484848"/>
<path d="M13.1957 7.8601C13.2686 7.69725 13.2814 7.34153 13.3157 7.11867C13.3757 6.67725 13.3071 6.55724 13.5214 6.48439C13.5557 6.75439 13.4314 7.30724 13.3971 7.60296C13.3929 7.77439 13.3243 8.31867 13.1657 8.4301L13.1957 7.8601ZM13.4957 7.36724C13.4957 7.11867 13.5643 6.88724 13.5771 6.63867C13.59 6.31296 13.4871 6.17153 13.4571 5.92296L13.4186 5.77296C13.0329 5.73867 13.3114 5.82439 13.0329 5.84582L13.0029 6.56153C13.2343 6.62582 13.1143 6.57439 13.1229 6.89153C13.1357 7.32867 13.1571 8.70867 13.0243 8.9401C13.0286 9.12867 12.9814 9.29153 12.9557 9.47153C12.9471 9.54439 12.93 9.67296 12.9129 9.72867C12.8786 9.88296 12.8829 9.84867 12.7929 9.90867C12.5529 10.3372 12.0814 10.693 11.5671 10.4315C11.43 10.3587 11.3229 10.1787 11.2243 10.1401L11.1171 10.0715C11.1643 10.1615 11.1771 10.153 11.2457 10.2301C11.3014 10.2987 11.3229 10.3415 11.3743 10.4358C11.4514 10.7101 12.0729 10.6801 12.33 10.5858C12.5953 10.423 12.8139 10.1941 12.9643 9.92153C13.1529 9.59153 13.1486 9.02153 13.2343 8.61439C13.2857 8.38724 13.3843 8.30582 13.4229 8.07867C13.4571 7.88153 13.4957 7.56439 13.4957 7.36724Z" fill="#808080"/>
<path d="M10.4786 6.97296C10.5857 7.20867 10.6114 7.35867 10.5343 7.65867C10.47 7.61582 10.4529 7.72724 10.4057 7.3801C10.4057 7.34153 10.38 7.21296 10.38 7.19153C10.3671 6.83153 10.3843 7.05439 10.4786 6.97296ZM10.68 6.69439C10.7357 6.62582 10.7229 6.63439 10.9286 6.63439C10.9457 6.47153 10.9243 6.47153 10.98 6.34725L11.0957 6.16725L11.1086 6.14153L11.1343 6.09867C11.22 5.95724 11.34 5.8201 11.3529 5.61867C11.1557 5.63582 10.8257 5.65296 10.7271 5.78153C10.47 6.12439 10.5214 6.26582 10.3329 6.48867C10.2643 6.57439 10.3457 6.46296 10.2771 6.56153C10.2686 6.6601 10.3629 7.62439 10.3757 7.6801C10.4529 7.96724 10.6886 8.3101 10.6371 8.6401L10.6971 8.62296C10.68 8.27153 10.5943 7.94582 10.6457 7.61153C10.6543 7.5601 10.86 6.96439 10.68 6.69439Z" fill="#6A6B6D"/>
<path d="M11.1 12.8272L11.07 12.7844C11.0529 12.7544 11.0529 12.763 11.0314 12.7158C11.0057 12.643 11.0057 12.6087 10.9971 12.5272L10.2686 12.553L10.2471 12.8958L10.7057 12.8915C10.8171 12.8915 11.0743 12.9344 11.1 12.8272Z" fill="#8E8E8E"/>
<path d="M13.1957 7.8601L13.1657 8.4301C13.3243 8.31867 13.3929 7.77439 13.3971 7.60296C13.4314 7.30724 13.5557 6.75439 13.5214 6.48867C13.3071 6.55725 13.3757 6.67725 13.3157 7.11867C13.2814 7.34153 13.2686 7.69725 13.1957 7.8601Z" fill="#9B9B9C"/>
<path d="M11.5157 17.9701C11.8029 17.4301 11.0443 17.0272 10.7571 17.5372C10.4529 18.0687 11.2586 18.4544 11.5157 17.9658V17.9701Z" fill="#2F2F31"/>
<path d="M11.2286 15.1715C10.9714 15.1501 10.7743 15.2444 10.8643 15.5315C10.9714 15.883 11.6186 15.6515 11.2286 15.1715Z" fill="#6A6B6D"/>
<path d="M10.8643 15.5315C10.9714 15.883 11.6186 15.6515 11.2286 15.1715C10.9757 15.1458 10.7786 15.2444 10.8643 15.5315ZM10.7486 15.5444C10.8214 15.943 11.55 15.9172 11.4514 15.3644C11.3657 14.9015 10.6457 15.0087 10.7486 15.5444Z" fill="#444443"/>
<path d="M6.18429 16.6458C6.24429 16.7744 6.22714 16.753 6.35143 16.8172C6.44571 16.6458 6.51 16.573 6.75857 16.543C6.69 16.6887 6.65571 16.9158 6.56143 17.0144C6.6 17.083 6.56143 17.0572 6.65571 17.1001C6.59571 16.933 6.68143 16.8515 6.74143 16.6715C6.81857 16.4058 6.9 16.663 6.94286 16.2858C6.55714 16.2987 6.38143 16.4144 6.18429 16.6458Z" fill="#3D3D3D"/>
<path d="M17.3743 16.9972C17.4386 16.9544 17.4171 16.9844 17.46 16.9372C17.5157 16.8772 17.4686 16.9372 17.52 16.8515C17.3829 16.9544 17.4771 16.8944 17.43 16.8301L17.3786 16.693C17.3443 16.5901 17.3229 16.5172 17.2843 16.4187C17.5243 16.4572 17.5414 16.5087 17.6829 16.6158C17.6957 16.7101 17.7 16.633 17.6314 16.6672C17.6743 16.753 17.5971 16.7358 17.7 16.7315C17.7429 16.6544 17.7257 16.6887 17.7771 16.6244C17.8457 16.5387 17.8286 16.5815 17.8929 16.4787C17.6614 16.5944 17.9271 16.213 17.1043 16.1744C17.1043 16.393 17.1129 16.3672 17.2586 16.4315C17.2714 16.4315 17.2843 16.4315 17.2971 16.4401C17.2714 16.7358 17.5114 16.7615 17.3743 16.9972Z" fill="#3E3E3E"/>
<path d="M10.8857 17.5887C10.9286 17.8244 10.8857 17.7987 11.01 17.9658L11.2843 17.953C11.43 17.6787 11.3657 17.4387 11.0829 17.4815C10.9757 17.4987 10.9114 17.5844 10.9029 17.5715L10.8814 17.5887H10.8857Z" fill="#67686A"/>
<path d="M6.67714 16.2687C6.75 16.2987 6.81429 16.3544 6.81429 16.2258C6.64286 16.1572 6.74143 16.2344 6.83143 16.1315C7.05857 15.8744 6.48857 15.7715 6.48857 15.7715C6.37714 15.8487 6.42 16.0715 6.56143 16.1744L6.67714 16.2687Z" fill="#222222"/>
<path d="M17.16 15.8401C17.16 16.1744 17.4429 16.0801 17.5886 15.9215L17.5971 15.6515C17.4343 15.6515 17.2457 15.763 17.16 15.8401Z" fill="#0B0B0B"/>
<path d="M6.64286 15.7715L6.85286 15.8572C6.90429 15.8058 6.86143 15.8058 6.98143 15.763C6.95571 15.5701 6.97714 15.673 6.78857 15.5701C6.65571 15.5015 6.67714 15.4672 6.55286 15.4201C6.51 15.4801 6.49714 15.4887 6.45429 15.5701C6.79714 15.6987 6.70286 15.673 6.63857 15.7715H6.64286Z" fill="#3C3C3B"/>
<path d="M10.4786 6.97296C10.3843 7.05867 10.3671 6.83153 10.38 7.19153L10.41 7.3801C10.4529 7.72296 10.47 7.61582 10.5386 7.65439C10.6114 7.35867 10.5814 7.20867 10.4786 6.96867L10.4786 6.97296Z" fill="#ABABAC"/>
<path d="M7.05429 13.4444C7.15714 13.3458 7.16143 13.2901 7.23857 13.1787C7.31571 13.0587 7.36286 13.0501 7.44 12.9558L7.10571 12.8744L7.05429 13.4444Z" fill="#777777"/>
<path d="M16.5257 12.8444C16.7657 13.0587 16.6971 13.1058 16.8986 13.3415L16.8557 12.7758L16.5257 12.8444Z" fill="#767676"/>
<path d="M9.37714 15.9001C9.66429 15.9001 9.98571 15.7501 10.0029 15.4287L9.51 15.8015C9.45857 15.8444 9.42429 15.8744 9.37714 15.9044V15.9001Z" fill="#6A6B6D"/>
<path d="M15.2143 16.8644C15.36 16.9072 15.54 16.8344 15.66 16.7487C15.6043 16.6758 15.6214 16.7101 15.5486 16.663L15.5829 16.5772C15.6257 16.3244 15.6171 16.5215 15.5529 16.4401C15.4971 16.5987 15.42 16.8772 15.2614 16.8215C15.2486 16.8087 15.1629 16.843 15.27 16.5644C15.3943 16.2387 15.33 16.3801 15.3 16.3415C15.1886 16.4615 15.1714 16.7144 15.2143 16.8644Z" fill="#696A6A"/>
<path d="M14.6143 15.853L14.0271 15.3901C14.0229 15.6215 14.07 15.6172 14.2114 15.703C14.3571 15.7887 14.4171 15.8315 14.6143 15.853Z" fill="#6A6B6D"/>
<path d="M15.5829 16.363C15.5614 16.1872 15.5357 16.1958 15.3686 16.153C15.2271 16.1187 15.1071 16.1101 14.9657 16.1101C15.1157 16.2215 15.36 16.3072 15.5829 16.363Z" fill="#67686A"/>
<path d="M6.69 13.9544L6.88714 13.9372L6.97714 13.4872C6.81857 13.5601 6.74143 13.7315 6.69 13.9587V13.9544Z" fill="#F7F9F9"/>
<path d="M17.52 16.8515L17.3914 16.5215C17.4986 16.5558 17.4129 16.4958 17.52 16.5944C17.6057 16.663 17.5543 16.6544 17.6314 16.6672C17.7 16.633 17.6957 16.7101 17.6829 16.6158C17.5457 16.5087 17.5243 16.4572 17.2843 16.4187C17.3229 16.5172 17.3443 16.5901 17.3786 16.693L17.43 16.8301C17.4814 16.8944 17.3871 16.9544 17.5157 16.8515H17.52Z" fill="#0D0D0D"/>
<path d="M6.35143 16.8172C6.36857 16.8601 6.27429 16.8472 6.40286 16.8515C6.47143 16.723 6.51429 16.6672 6.64714 16.6372L6.53571 16.9458C6.52286 17.1001 6.52286 16.9844 6.56571 17.0144C6.65571 16.9158 6.69 16.6887 6.75857 16.543C6.51 16.573 6.44571 16.6415 6.35143 16.8172Z" fill="#101010"/>
<path d="M9.51429 13.6287L9.53143 13.1572H9.29143L9.51857 13.6287H9.51429Z" fill="#737374"/>
<path d="M8.41286 16.8644C8.57143 16.873 8.47714 16.8772 8.62714 16.9158C8.95714 17.0015 8.79 16.4958 8.71714 16.4187C8.68714 16.6201 8.89714 16.7915 8.77714 16.8944C8.60571 16.9587 8.57571 16.6801 8.45571 16.5344C8.42571 16.663 8.44286 16.6244 8.49857 16.7401L8.41286 16.8687L8.41286 16.8644Z" fill="#656565"/>
<path d="M14.4471 13.573C14.5114 13.4015 14.6014 13.2558 14.6614 13.1101H14.4343L14.4471 13.573Z" fill="#767676"/>
<path d="M9.51429 14.3358C9.43714 14.4644 9.35571 14.6401 9.28286 14.7815L9.51857 14.7644L9.51429 14.3358Z" fill="#707272"/>
<path d="M14.4643 14.7044L14.6914 14.7215L14.4986 14.3615C14.4873 14.3363 14.4773 14.3106 14.4686 14.2844C14.4471 14.143 14.4514 14.3015 14.4814 14.2287L14.4643 14.7044Z" fill="#696A6A"/>
</svg>
