<svg width="24" height="24" viewBox="0 0 24 24" fill="none" xmlns="http://www.w3.org/2000/svg">
<path d="M11.9996 8.14265C11.2039 8.14265 10.4409 8.45872 9.87826 9.02133C9.31565 9.58394 8.99958 10.347 8.99958 11.1426C8.99958 11.9383 9.31565 12.7014 9.87826 13.264C10.4409 13.8266 11.2039 14.1426 11.9996 14.1426C12.7952 14.1426 13.5583 13.8266 14.1209 13.264C14.6835 12.7014 14.9996 11.9383 14.9996 11.1426C14.9996 10.347 14.6835 9.58394 14.1209 9.02133C13.5583 8.45872 12.7952 8.14265 11.9996 8.14265ZM7.71387 11.1426C7.71387 8.77565 9.63258 6.85693 11.9996 6.85693C14.3666 6.85693 16.2853 8.77565 16.2853 11.1426C16.2853 13.5096 14.3666 15.4284 11.9996 15.4284C9.63258 15.4284 7.71387 13.5096 7.71387 11.1426Z" fill="#10C7CA"/>
<path d="M8.35672 10.4998C8.52722 10.4998 8.69073 10.5675 8.81129 10.6881C8.93185 10.8086 8.99958 10.9722 8.99958 11.1426V19.0712C8.99958 19.2417 8.93185 19.4052 8.81129 19.5258C8.69073 19.6463 8.52722 19.7141 8.35672 19.7141C8.18623 19.7141 8.02272 19.6463 7.90216 19.5258C7.7816 19.4052 7.71387 19.2417 7.71387 19.0712V11.1426C7.71387 10.9722 7.7816 10.8086 7.90216 10.6881C8.02272 10.5675 8.18623 10.4998 8.35672 10.4998ZM15.6424 10.4998C15.8129 10.4998 15.9764 10.5675 16.097 10.6881C16.2176 10.8086 16.2853 10.9722 16.2853 11.1426V15.2141C16.2853 15.3846 16.2176 15.5481 16.097 15.6686C15.9764 15.7892 15.8129 15.8569 15.6424 15.8569C15.4719 15.8569 15.3084 15.7892 15.1879 15.6686C15.0673 15.5481 14.9996 15.3846 14.9996 15.2141V11.1426C14.9996 10.9722 15.0673 10.8086 15.1879 10.6881C15.3084 10.5675 15.4719 10.4998 15.6424 10.4998Z" fill="#10C7CA"/>
<path d="M15.6424 5.99979C16.2342 5.99979 16.7139 5.5201 16.7139 4.92836C16.7139 4.33663 16.2342 3.85693 15.6424 3.85693C15.0507 3.85693 14.571 4.33663 14.571 4.92836C14.571 5.5201 15.0507 5.99979 15.6424 5.99979Z" fill="#10C7CA"/>
</svg>
