<svg width="24" height="24" viewBox="0 0 24 24" fill="none" xmlns="http://www.w3.org/2000/svg">
<path d="M9.17115 6L16.0669 6.3L18.8569 12.42L14.9183 18L7.98401 17.5629L5.14258 10.9414L9.17115 6Z" fill="#3B3B3D"/>
<path d="M9.17115 6L16.0669 6.3L18.8569 12.42L14.9183 18L7.98401 17.5629L5.14258 10.9414L9.17115 6ZM14.2283 9.52286L9.22686 11.6743L13.4997 14.9314L14.2283 9.52286ZM13.6454 8.44286L9.65115 6.75L8.81544 10.3114L13.6454 8.44286ZM12.634 15.7457L8.29258 12.6943L8.39972 16.83L12.634 15.7457ZM18.1626 12.4029L15.2054 9.44571L14.4254 15.1286L18.1626 12.4029ZM13.6497 16.4143L9.98972 17.3571L14.2969 17.6271L13.654 16.4143H13.6497ZM17.584 13.7443L14.3826 16.0929L15.0169 17.3186L17.5883 13.7443H17.584ZM16.0711 7.15714L15.4454 8.41714L17.764 10.7357L16.0711 7.15714ZM15.2954 6.55714L11.224 6.39429L14.584 7.83857L15.2954 6.55286V6.55714ZM8.57115 7.13571L5.72115 10.68L7.62829 11.0786L8.57115 7.13571ZM7.51258 11.7729L5.59686 11.3743L7.59401 16.0114L7.50829 11.7729H7.51258Z" fill="url(#paint0_linear_59_70885)"/>
<defs>
<linearGradient id="paint0_linear_59_70885" x1="17.7854" y1="3.21429" x2="4.05829" y2="14.5371" gradientUnits="userSpaceOnUse">
<stop offset="0.08" stop-color="#3E3E40"/>
<stop offset="0.29" stop-color="#5B5B5D"/>
<stop offset="0.74" stop-color="#9D9D9F"/>
<stop offset="0.89" stop-color="#606061"/>
</linearGradient>
</defs>
</svg>
