<svg width="24" height="24" viewBox="0 0 24 24" fill="none" xmlns="http://www.w3.org/2000/svg">
<path d="M11.9996 19.2858C16.0234 19.2858 19.2853 16.0239 19.2853 12.0001C19.2853 7.97628 16.0234 4.71436 11.9996 4.71436C7.97579 4.71436 4.71387 7.97628 4.71387 12.0001C4.71387 16.0239 7.97579 19.2858 11.9996 19.2858Z" fill="url(#paint0_linear_59_70889)"/>
<path d="M11.9996 18.5015C15.6092 18.5015 18.5353 15.5754 18.5353 11.9658C18.5353 8.35621 15.6092 5.43007 11.9996 5.43007C8.39001 5.43007 5.46387 8.35621 5.46387 11.9658C5.46387 15.5754 8.39001 18.5015 11.9996 18.5015Z" fill="#189CA1"/>
<path d="M11.9996 18.4972C13.0127 18.4971 14.0118 18.2615 14.9182 17.809C15.8246 17.3565 16.6134 16.6994 17.2223 15.8898C17.8312 15.0801 18.2436 14.14 18.4268 13.1436C18.61 12.1473 18.5592 11.122 18.2782 10.1486L5.75101 13.8772C6.16027 15.2154 6.98822 16.3869 8.11306 17.2193C9.2379 18.0518 10.6002 18.5012 11.9996 18.5015V18.4972Z" fill="#2A4463"/>
<path d="M15.4282 10.8815C15.4153 10.8729 15.4024 10.8815 15.3767 10.8901L15.1924 10.9372C14.9362 10.2336 14.4518 9.6361 13.8164 9.23995C13.181 8.8438 12.4313 8.67184 11.6867 8.7515C10.9453 8.83721 10.3153 9.1115 9.78815 9.57864C9.40732 9.91098 9.10715 10.3257 8.91037 10.7912C8.7136 11.2568 8.62539 11.7611 8.65244 12.2658C8.53085 12.1975 8.41851 12.114 8.31815 12.0172C8.01651 11.7676 7.73294 11.4969 7.46958 11.2072C7.46695 11.2081 7.46469 11.2099 7.46315 11.2122C7.4616 11.2145 7.46085 11.2173 7.46101 11.2201C7.44387 11.5629 7.46958 11.9058 7.53815 12.2358C7.54672 12.2658 7.55958 12.2872 7.58101 12.3086L7.87244 12.6001L7.94958 12.6901C7.96244 12.7072 7.95815 12.7115 7.94101 12.7072C7.84255 12.6793 7.74652 12.6435 7.65387 12.6001C7.65073 12.6008 7.64787 12.6024 7.64559 12.6047C7.64332 12.6069 7.64173 12.6098 7.64101 12.6129V12.6258C7.68815 12.8401 7.77387 13.0115 7.89815 13.1315C7.82958 13.1101 7.73958 13.1272 7.63244 13.1744L7.57672 13.1958L7.54672 13.1829C7.56815 13.1615 7.56815 13.1272 7.54672 13.0801C7.49246 12.9571 7.44524 12.8312 7.4053 12.7029C7.38953 12.6546 7.3837 12.6036 7.38815 12.5529C7.39306 12.5153 7.38391 12.4771 7.36244 12.4458C7.33915 12.4076 7.32316 12.3655 7.3153 12.3215C7.22821 11.9424 7.19931 11.5522 7.22958 11.1644C7.23387 11.0829 7.27244 11.0272 7.34101 11.0015C7.38387 10.9844 7.45244 10.9672 7.54672 10.9586L8.39101 11.7772L8.3953 11.7815C8.3979 11.783 8.40086 11.7838 8.40387 11.7838C8.40688 11.7838 8.40983 11.783 8.41244 11.7815L8.41672 11.7729C8.44244 11.6915 8.44672 11.6058 8.45958 11.5244C8.60214 10.6697 9.04609 9.89427 9.71101 9.33864C10.3244 8.8151 11.1031 8.52517 11.9096 8.52007C12.1067 8.52007 12.3124 8.50721 12.5096 8.53721C13.1434 8.6226 13.7431 8.87469 14.2476 9.26774C14.7521 9.66078 15.1432 10.1807 15.381 10.7744C15.3939 10.8044 15.3939 10.8472 15.4239 10.8815H15.4282Z" fill="#108484"/>
<path d="M15.1924 10.9372C15.2353 11.0658 15.2739 11.1901 15.3082 11.3229C15.3253 11.3872 15.3382 11.4686 15.351 11.5672L15.3939 11.8158C15.3939 11.9101 15.4067 12.0258 15.3853 12.1115L15.3596 12.1886C15.3507 12.2175 15.3377 12.2449 15.321 12.2701C15.2824 12.3258 15.3253 12.3944 15.3167 12.4586C15.3082 12.5101 15.291 12.5615 15.2696 12.6044C15.2482 12.6472 15.2396 12.6901 15.2439 12.7329C15.2439 12.7458 15.2439 12.7544 15.231 12.7629C15.0724 12.9172 14.8882 12.9515 14.6696 12.8744C14.6614 12.8713 14.6526 12.8698 14.6439 12.8701C14.6293 12.8696 14.6154 12.8635 14.6053 12.8529C14.6018 12.85 14.5975 12.848 14.593 12.8473C14.5885 12.8465 14.5839 12.847 14.5796 12.8486L14.5196 12.8701H14.5153L14.511 12.8572V12.8444C14.5433 12.8268 14.5678 12.7977 14.5796 12.7629C14.5796 12.7544 14.5882 12.7501 14.5967 12.7501L14.6096 12.7372C14.6139 12.7201 14.6224 12.6986 14.6396 12.6815C14.6458 12.6719 14.6547 12.6644 14.6653 12.6601C14.6782 12.6558 14.6867 12.6429 14.6867 12.6215C14.6862 12.6152 14.6871 12.6088 14.6893 12.6029C14.6915 12.597 14.695 12.5916 14.6996 12.5872C14.7167 12.5744 14.721 12.5529 14.7124 12.5315C14.8655 12.2317 14.9018 11.8858 14.8143 11.5608C14.7268 11.2358 14.5218 10.9548 14.239 10.7723C13.9562 10.5898 13.6157 10.5188 13.2835 10.573C12.9513 10.6272 12.6511 10.8028 12.441 11.0658C12.3321 11.2078 12.2524 11.3701 12.2065 11.5431C12.1607 11.7161 12.1496 11.8965 12.1739 12.0739C12.1982 12.2512 12.2574 12.422 12.3482 12.5763C12.4389 12.7306 12.5593 12.8654 12.7024 12.9729C12.6939 12.9901 12.7024 13.0072 12.7153 13.0244C12.7239 13.0372 12.7239 13.0458 12.7067 13.0501L12.6939 13.0458C12.687 13.0431 12.6793 13.0431 12.6724 13.0458C12.5736 13.0651 12.4731 13.0737 12.3724 13.0715C12.3699 13.0677 12.3684 13.0632 12.3682 13.0586C12.3639 13.0372 12.3553 13.0286 12.3467 13.0286L12.0339 12.5572C12.0303 12.5519 12.0256 12.5476 12.02 12.5445C12.0144 12.5415 12.0081 12.54 12.0017 12.54C11.9954 12.54 11.9891 12.5415 11.9835 12.5445C11.9779 12.5476 11.9731 12.5519 11.9696 12.5572L11.6439 13.0372L11.4467 13.0329H11.4124C11.3852 13.044 11.3561 13.0499 11.3267 13.0501C11.3096 13.0501 11.301 13.0415 11.301 13.0244C11.301 13.0115 11.301 13.0029 11.3139 12.9986C11.3183 12.9958 11.3222 12.992 11.3251 12.9876C11.3281 12.9832 11.3301 12.9782 11.331 12.9729L11.3353 12.9515C11.5384 12.7887 11.6903 12.5709 11.7728 12.324C11.8553 12.0772 11.8649 11.8118 11.8005 11.5596C11.7361 11.3074 11.6004 11.0792 11.4096 10.9021C11.2188 10.7251 10.9811 10.6067 10.7248 10.5613C10.4685 10.5158 10.2046 10.5452 9.96457 10.6458C9.72456 10.7465 9.51862 10.9142 9.37142 11.1288C9.22423 11.3435 9.14199 11.596 9.13457 11.8561C9.12715 12.1163 9.19486 12.3731 9.32958 12.5958C9.32958 12.6258 9.33815 12.6472 9.3553 12.6644C9.36387 12.6729 9.36815 12.6815 9.36815 12.6944V12.7201C9.36815 12.7372 9.36815 12.7372 9.35958 12.7201C9.35662 12.7118 9.35517 12.7031 9.3553 12.6944C9.3553 12.6815 9.34672 12.6772 9.33815 12.6901C9.2953 12.7329 9.23958 12.7758 9.17958 12.8015C9.17101 12.8015 9.17101 12.8058 9.17101 12.8144V12.8186C9.11079 12.8324 9.05755 12.8674 9.02101 12.9172C9.01672 12.9258 9.00815 12.9301 8.9953 12.9215C8.9839 12.9127 8.97046 12.9069 8.95623 12.9046C8.942 12.9024 8.92743 12.9038 8.91387 12.9086C8.90403 12.9119 8.89362 12.9132 8.88327 12.9124C8.87292 12.9116 8.86284 12.9087 8.85364 12.9039C8.84443 12.8991 8.83629 12.8925 8.82971 12.8845C8.82312 12.8764 8.81822 12.8672 8.8153 12.8572C8.81117 12.8426 8.80411 12.829 8.79453 12.8172C8.78494 12.8054 8.77305 12.7957 8.75958 12.7886C8.75466 12.7863 8.75046 12.7827 8.74744 12.7782C8.74442 12.7736 8.74269 12.7684 8.74244 12.7629C8.74244 12.7244 8.72958 12.6986 8.70815 12.6858L8.65244 12.2658C8.62539 11.7611 8.7136 11.2568 8.91037 10.7912C9.10715 10.3257 9.40732 9.91098 9.78815 9.57864C10.4361 9.00219 11.2831 8.70088 12.1496 8.73864C12.8183 8.75953 13.4654 8.98008 14.0077 9.37191C14.55 9.76373 14.9626 10.3089 15.1924 10.9372Z" fill="#081C22"/>
<path d="M11.3353 12.9515C11.1838 13.0695 11.0092 13.1543 10.8228 13.2005C10.6364 13.2467 10.4424 13.2532 10.2533 13.2197C10.0643 13.1862 9.88433 13.1133 9.7252 13.0058C9.56608 12.8984 9.43129 12.7587 9.32958 12.5958C9.19486 12.3731 9.12715 12.1163 9.13457 11.8561C9.14199 11.596 9.22423 11.3435 9.37142 11.1288C9.51862 10.9142 9.72456 10.7465 9.96457 10.6458C10.2046 10.5452 10.4685 10.5158 10.7248 10.5613C10.9811 10.6067 11.2188 10.7251 11.4096 10.9021C11.6004 11.0792 11.7361 11.3074 11.8005 11.5596C11.8649 11.8118 11.8553 12.0772 11.7728 12.324C11.6903 12.5709 11.5384 12.7887 11.3353 12.9515ZM14.7124 12.5315C14.628 12.6882 14.5136 12.8268 14.3756 12.9393C14.2376 13.0518 14.0788 13.1361 13.9083 13.1872C13.7378 13.2383 13.5588 13.2554 13.3817 13.2374C13.2046 13.2194 13.0328 13.1666 12.876 13.0822C12.7193 12.9978 12.5807 12.8833 12.4682 12.7453C12.3557 12.6074 12.2715 12.4486 12.2203 12.2781C12.1692 12.1075 12.1521 11.9286 12.1701 11.7515C12.1882 11.5744 12.2409 11.4025 12.3253 11.2458C12.4958 10.9292 12.7851 10.6934 13.1295 10.5901C13.4739 10.4868 13.8452 10.5246 14.1617 10.6951C14.4783 10.8656 14.7141 11.1548 14.8174 11.4992C14.9207 11.8436 14.8829 12.2149 14.7124 12.5315Z" fill="white"/>
<path d="M15.3767 10.8901L15.4239 10.8986C15.4367 10.9029 15.4453 10.9115 15.4496 10.9244C15.4624 10.9972 15.4796 11.0658 15.5096 11.1386C15.5683 11.3388 15.6085 11.544 15.6296 11.7515C15.6322 11.7562 15.6359 11.7602 15.6404 11.7631C15.6449 11.7661 15.65 11.768 15.6553 11.7686L15.6724 11.7644C15.7199 11.7399 15.761 11.7047 15.7924 11.6615C15.8482 11.5844 15.9339 11.5672 15.9767 11.4901C16.0071 11.4352 16.0515 11.3894 16.1053 11.3572C16.1867 11.3144 16.2039 11.2286 16.2724 11.1729C16.3153 11.1386 16.3539 11.0958 16.3839 11.0444C16.4182 10.9801 16.5424 10.9844 16.6024 10.9286C16.6067 10.9246 16.6117 10.9216 16.6173 10.9198C16.6229 10.918 16.6287 10.9175 16.6345 10.9184C16.6403 10.9192 16.6458 10.9213 16.6506 10.9246C16.6555 10.9278 16.6595 10.9322 16.6624 10.9372C16.6924 10.9929 16.731 11.0444 16.7782 11.0915L16.7953 11.1215C16.8167 11.2201 16.821 11.3229 16.8124 11.4258C16.8039 11.5158 16.7996 11.5972 16.8039 11.6829C16.8039 11.8501 16.7996 12.0086 16.7739 12.1586C16.7482 12.2786 16.7096 12.3815 16.6667 12.4715C16.6324 12.5401 16.6582 12.6129 16.6324 12.6858L16.5382 12.9729C16.5039 13.0758 16.461 13.1658 16.4096 13.2386C16.3796 13.2815 16.3582 13.3329 16.3367 13.3886C16.2982 13.4915 16.2424 13.6029 16.1653 13.7229C16.0324 13.9158 15.8996 14.1044 15.7582 14.2801C15.7296 14.3157 15.6965 14.3474 15.6596 14.3744C15.5411 14.4616 15.4294 14.5576 15.3253 14.6615C15.1539 14.8286 15.0424 14.9229 14.9953 14.9486L14.8239 15.0429C14.7983 15.0559 14.7708 15.0646 14.7424 15.0686C14.6739 15.0815 14.6353 15.1286 14.571 15.1544C14.5024 15.1844 14.4467 15.2272 14.3824 15.2615C14.2882 15.3129 14.1896 15.3601 14.0953 15.4029C14.0096 15.4458 13.8982 15.4758 13.7524 15.5015L13.6582 15.5229L13.5682 15.5486L13.1996 15.6301C13.0624 15.6558 12.9424 15.6686 12.8224 15.6644H12.4582C12.1882 15.6772 11.9096 15.6815 11.6096 15.6729C11.5805 15.6729 11.5516 15.6686 11.5239 15.6601C11.4992 15.6503 11.4732 15.6446 11.4467 15.6429H10.9882C10.9331 15.6402 10.8785 15.6316 10.8253 15.6172C10.7702 15.6053 10.7143 15.5967 10.6582 15.5915C10.5733 15.5812 10.4898 15.561 10.4096 15.5315C10.2636 15.4754 10.1148 15.4267 9.96387 15.3858C9.91896 15.369 9.87318 15.3547 9.82672 15.3429C9.77101 15.3301 9.74101 15.3129 9.69815 15.2829C9.66641 15.2662 9.63346 15.2519 9.59958 15.2401C9.49244 15.1929 9.3853 15.1329 9.29101 15.0558C9.27978 15.0469 9.26652 15.0411 9.25244 15.0386C9.24308 15.0367 9.23431 15.0326 9.22686 15.0267C9.21941 15.0207 9.21348 15.0131 9.20958 15.0044C9.20257 14.9937 9.19189 14.9861 9.17958 14.9829C9.16523 14.979 9.15216 14.9714 9.14164 14.9609C9.13112 14.9504 9.12352 14.9373 9.11958 14.9229C9.11823 14.9178 9.11554 14.9131 9.11177 14.9093C9.10801 14.9055 9.1033 14.9028 9.09815 14.9015C9.03239 14.8824 8.97501 14.8416 8.9353 14.7858C8.93089 14.7792 8.92522 14.7735 8.91859 14.7691C8.91197 14.7646 8.90454 14.7616 8.89672 14.7601C8.82329 14.7483 8.75483 14.7156 8.69958 14.6658C8.65244 14.6229 8.59244 14.6015 8.55387 14.5501C8.48101 14.4558 8.3953 14.3786 8.32672 14.2886C8.25033 14.1835 8.16731 14.0833 8.07815 13.9886C7.97313 13.8785 7.88373 13.7545 7.81244 13.6201C7.77387 13.5472 7.74387 13.4615 7.71815 13.3715C7.70936 13.3379 7.69486 13.306 7.6753 13.2772C7.6453 13.2344 7.63244 13.2044 7.63244 13.1786C7.73958 13.1272 7.82958 13.1101 7.89815 13.1358L8.26672 13.4058C8.30101 13.4315 8.29672 13.4401 8.25387 13.4272C8.16978 13.4073 8.08681 13.383 8.0053 13.3544C7.99562 13.3507 7.98497 13.3507 7.9753 13.3544C7.96244 13.3586 7.96244 13.3672 7.96672 13.3758L8.17672 13.7101C8.28815 13.8815 8.41244 14.0358 8.55815 14.1772C8.58387 14.2029 8.62672 14.2201 8.66101 14.2458C8.66557 14.2484 8.67074 14.2498 8.67601 14.2498C8.68128 14.2498 8.68645 14.2484 8.69101 14.2458C8.73387 14.2158 8.76815 14.1858 8.78958 14.1472C8.83244 14.0701 8.8753 13.9972 8.93101 13.9286C8.97387 13.8772 9.00387 13.8215 9.03387 13.7658C9.04333 13.7488 9.04779 13.7295 9.04672 13.7101C9.04616 13.6908 9.04179 13.6719 9.03387 13.6544C8.959 13.4935 8.89597 13.3273 8.84529 13.1572L9.21815 13.6286C9.19244 13.6544 9.20101 13.6886 9.2353 13.7315C9.24387 13.7401 9.24387 13.7529 9.24387 13.7658C9.24081 13.8186 9.23938 13.8715 9.23958 13.9244C9.23958 13.9758 9.25244 14.0272 9.28244 14.0701C9.40877 14.2545 9.55861 14.4216 9.72815 14.5672C10.1241 14.9319 10.601 15.1973 11.1195 15.3419C11.6381 15.4864 12.1835 15.5059 12.711 15.3986C12.7575 15.4163 12.8072 15.4236 12.8567 15.4201L13.251 15.3772C13.3539 15.3729 13.5296 15.3258 13.7867 15.2401C13.9024 15.1972 14.0353 15.1544 14.1767 15.0944C14.1982 15.0858 14.2239 15.0901 14.2496 15.0901C14.2609 15.0899 14.2717 15.0853 14.2796 15.0772C14.294 15.0648 14.312 15.0573 14.331 15.0558C14.4055 15.0215 14.4771 14.9814 14.5453 14.9358C14.5967 14.8972 14.6482 14.8672 14.7039 14.8372C14.7596 14.8072 14.8067 14.7729 14.8453 14.7344C14.8796 14.7001 14.9182 14.6744 14.9567 14.6486C15.111 14.5544 15.2482 14.4429 15.3724 14.3186L15.741 13.8901C15.8745 13.7243 15.9922 13.5464 16.0924 13.3586V13.3501L16.0796 13.3458H16.071L15.7839 13.4358H15.771L15.7624 13.4272V13.4186L15.8696 13.3501L16.2467 13.0501C16.2559 13.0434 16.2632 13.0346 16.2682 13.0244L16.4182 12.6301V12.6172L16.4139 12.6086C16.411 12.6061 16.4075 12.6043 16.4037 12.6036C16.4 12.6028 16.3961 12.6031 16.3924 12.6044L16.1139 12.7115C16.0667 12.7286 16.0582 12.7201 16.0967 12.6858L16.4782 12.3044C16.4904 12.2926 16.4993 12.2778 16.5039 12.2615C16.581 11.9186 16.611 11.5801 16.5896 11.2458C16.5896 11.2029 16.5767 11.2029 16.551 11.2286C16.341 11.4601 16.1139 11.6872 15.8653 11.9058L15.4024 12.2786H15.3896C15.3896 12.2015 15.3982 12.1244 15.4067 12.0429C15.4153 11.9615 15.4067 11.8886 15.3939 11.8158L15.351 11.5672C15.3416 11.4836 15.3273 11.4006 15.3082 11.3186C15.2739 11.1901 15.2353 11.0615 15.1924 10.9372L15.3767 10.8944V10.8901Z" fill="#0F3F52"/>
<path d="M11.5624 12.0001C11.5624 12.1973 11.4841 12.3864 11.3447 12.5259C11.2052 12.6653 11.0161 12.7436 10.8189 12.7436C10.6217 12.7436 10.4325 12.6653 10.2931 12.5259C10.1536 12.3864 10.0753 12.1973 10.0753 12.0001C10.0753 11.8029 10.1536 11.6137 10.2931 11.4743C10.4325 11.3348 10.6217 11.2565 10.8189 11.2565C11.0161 11.2565 11.2052 11.3348 11.3447 11.4743C11.4841 11.6137 11.5624 11.8029 11.5624 12.0001ZM13.9282 12.0001C13.9282 12.1967 13.85 12.3853 13.711 12.5243C13.5719 12.6634 13.3834 12.7415 13.1867 12.7415C12.9901 12.7415 12.8015 12.6634 12.6625 12.5243C12.5234 12.3853 12.4453 12.1967 12.4453 12.0001C12.4453 11.8034 12.5234 11.6148 12.6625 11.4758C12.8015 11.3368 12.9901 11.2586 13.1867 11.2586C13.3834 11.2586 13.5719 11.3368 13.711 11.4758C13.85 11.6148 13.9282 11.8034 13.9282 12.0001Z" fill="#1777A2"/>
<path d="M10.701 11.5286C10.7182 11.7558 10.6239 11.8244 10.4139 11.7301C10.3853 11.6872 10.3731 11.6355 10.3796 11.5844C10.3826 11.5614 10.3903 11.5394 10.402 11.5195C10.4138 11.4996 10.4295 11.4823 10.4482 11.4686C10.5339 11.4044 10.6196 11.4258 10.701 11.5329V11.5286ZM13.0496 11.5372C13.0753 11.6015 13.0753 11.6486 13.0624 11.6786C12.9982 11.7901 12.9082 11.8029 12.7924 11.7215C12.7667 11.6786 12.7582 11.6358 12.7624 11.6058C12.7839 11.5115 12.8396 11.4644 12.9296 11.4686C12.9682 11.4686 13.0067 11.4944 13.0496 11.5372Z" fill="white"/>
<path d="M10.4139 11.7301C10.6239 11.8244 10.7182 11.7558 10.701 11.5329C10.8896 11.4901 11.0439 11.5329 11.1596 11.6529C11.5024 12.0086 11.1596 12.5872 10.6882 12.4586C10.5987 12.4344 10.5187 12.3838 10.4583 12.3135C10.3979 12.2432 10.3601 12.1564 10.3496 12.0644C10.3324 11.9489 10.3551 11.831 10.4139 11.7301ZM12.7924 11.7172C12.9082 11.8029 12.9982 11.7901 13.0624 11.6744C13.0796 11.6486 13.0753 11.6015 13.0496 11.5372C13.3324 11.4815 13.5253 11.5801 13.6367 11.8372C13.6667 11.9015 13.6753 11.9701 13.6624 12.0386C13.6282 12.2615 13.5124 12.4029 13.311 12.4629C13.1396 12.5101 12.9596 12.4586 12.8396 12.3258C12.6853 12.1586 12.6682 11.9572 12.7924 11.7172Z" fill="#0A1B2C"/>
<path d="M15.3939 11.8158C15.411 11.8886 15.4153 11.9615 15.4067 12.0429L15.3896 12.2786C15.3693 12.54 15.3219 12.7985 15.2482 13.0501L15.1624 13.2644L14.6224 13.8215C14.5896 13.8785 14.5423 13.9258 14.4853 13.9586L11.4339 13.9372C11.4253 13.9372 11.421 13.9372 11.4167 13.9458L11.3996 13.9501C10.8553 13.9501 10.3282 13.9501 9.82244 13.9415L9.73672 13.9286C9.70585 13.9202 9.6743 13.9145 9.64244 13.9115C9.63387 13.9115 9.6253 13.9158 9.6253 13.9286C9.6253 13.9415 9.61672 13.9501 9.60815 13.9544C9.5953 13.9629 9.58672 13.9586 9.58244 13.9458V13.9244H9.57387C9.5653 13.9244 9.55673 13.9201 9.55244 13.9115C9.53958 13.8944 9.51815 13.8901 9.48815 13.8944L9.21815 13.6286L8.84529 13.1572L8.78101 12.9858L8.70815 12.6858C8.72958 12.6986 8.74244 12.7286 8.74244 12.7629C8.74244 12.7758 8.75101 12.7844 8.75958 12.7886C8.7853 12.8015 8.80244 12.8272 8.8153 12.8572C8.81822 12.8672 8.82312 12.8764 8.82971 12.8845C8.83629 12.8925 8.84443 12.8991 8.85364 12.9039C8.86284 12.9087 8.87292 12.9116 8.88327 12.9124C8.89362 12.9132 8.90403 12.9119 8.91387 12.9086C8.92801 12.903 8.9434 12.9012 8.95847 12.9034C8.97354 12.9057 8.98773 12.9119 8.99958 12.9215C9.00815 12.9301 9.01672 12.9258 9.02101 12.9172C9.05648 12.8682 9.10807 12.8333 9.16672 12.8186C9.17101 12.8186 9.1753 12.8186 9.17101 12.8144C9.17101 12.8058 9.17101 12.8058 9.17958 12.8015C9.23958 12.7758 9.2953 12.7372 9.33815 12.6901C9.34672 12.6772 9.35101 12.6815 9.35101 12.6901L9.35958 12.7201C9.36815 12.7372 9.37244 12.7372 9.36815 12.7201V12.6944C9.36815 12.6815 9.36387 12.6729 9.3553 12.6644C9.33815 12.6472 9.32958 12.6215 9.32958 12.5958C9.43129 12.7587 9.56608 12.8984 9.7252 13.0058C9.88433 13.1133 10.0643 13.1862 10.2533 13.2197C10.4424 13.2532 10.6364 13.2467 10.8228 13.2005C11.0092 13.1543 11.1838 13.0695 11.3353 12.9515L11.331 12.9729C11.331 12.9858 11.3224 12.9944 11.3139 12.9986C11.3053 13.0029 11.301 13.0115 11.301 13.0244C11.301 13.0415 11.3096 13.0501 11.3267 13.0501C11.3524 13.0501 11.3824 13.0501 11.4124 13.0372C11.4235 13.0339 11.4351 13.0324 11.4467 13.0329H11.6439L11.9653 13.3844C11.9741 13.3943 11.9864 13.4004 11.9996 13.4015C12.0072 13.4027 12.0151 13.4022 12.0225 13.4C12.0299 13.3977 12.0367 13.3939 12.0424 13.3886C12.1498 13.2785 12.2527 13.1641 12.351 13.0458V13.0286C12.3553 13.0286 12.3639 13.0372 12.3682 13.0586C12.369 13.064 12.3715 13.069 12.3754 13.0728C12.3792 13.0767 12.3842 13.0792 12.3896 13.0801C12.4882 13.0758 12.5824 13.0629 12.6724 13.0415L12.6939 13.0458H12.7067C12.7239 13.0458 12.7239 13.0372 12.7153 13.0244C12.7087 13.0178 12.704 13.0095 12.7017 13.0004C12.6995 12.9914 12.6997 12.9819 12.7024 12.9729C12.8589 13.0886 13.0383 13.1694 13.2286 13.21C13.4188 13.2506 13.6156 13.2499 13.8056 13.2081C13.9956 13.1663 14.1745 13.0843 14.3302 12.9675C14.4858 12.8508 14.6147 12.7022 14.7082 12.5315C14.721 12.5529 14.7167 12.5744 14.6996 12.5872C14.695 12.5916 14.6915 12.597 14.6893 12.6029C14.6871 12.6088 14.6862 12.6152 14.6867 12.6215C14.6867 12.6429 14.6782 12.6558 14.6653 12.6601C14.6547 12.6644 14.6458 12.6719 14.6396 12.6815C14.6263 12.6981 14.6161 12.717 14.6096 12.7372C14.6096 12.7458 14.601 12.7501 14.5967 12.7501C14.5928 12.7499 14.589 12.7512 14.5859 12.7535C14.5828 12.7558 14.5806 12.7592 14.5796 12.7629C14.5698 12.7986 14.5468 12.8293 14.5153 12.8486C14.5067 12.8486 14.5067 12.8529 14.511 12.8572V12.8658H14.5196L14.5796 12.8486H14.6053C14.6182 12.8615 14.631 12.8658 14.6482 12.8701H14.6696C14.8839 12.9558 15.0724 12.9129 15.231 12.7629C15.2355 12.7594 15.239 12.7548 15.2412 12.7496C15.2435 12.7443 15.2444 12.7386 15.2439 12.7329C15.2396 12.6901 15.2439 12.6472 15.2696 12.6044C15.291 12.5615 15.3082 12.5101 15.3124 12.4586C15.3253 12.3944 15.2824 12.3301 15.321 12.2701C15.3377 12.2449 15.3507 12.2175 15.3596 12.1886L15.381 12.1115C15.4067 12.0258 15.3939 11.9101 15.3939 11.8158Z" fill="#0C363F"/>
<path d="M12.3467 13.0286L12.351 13.0501V13.0629C12.2456 13.1788 12.1355 13.2903 12.021 13.3972C12.0115 13.4008 12.0011 13.4015 11.9912 13.3992C11.9813 13.397 11.9723 13.3918 11.9653 13.3844L11.6439 13.0372L11.9696 12.5615C11.9731 12.5562 11.9779 12.5518 11.9835 12.5488C11.9891 12.5458 11.9954 12.5442 12.0017 12.5442C12.0081 12.5442 12.0144 12.5458 12.02 12.5488C12.0256 12.5518 12.0303 12.5562 12.0339 12.5615L12.3467 13.0286Z" fill="#B6B3B5"/>
<path d="M7.48244 11.2115C7.73958 11.4986 8.01815 11.7686 8.31815 12.0172C8.42101 12.1158 8.53244 12.2015 8.65244 12.2658L8.70815 12.6858L8.78101 12.9858L8.84529 13.1572C8.89672 13.3329 8.96101 13.5001 9.03387 13.6544L9.04672 13.7101C9.04672 13.7272 9.04672 13.7486 9.03387 13.7658C9.00387 13.8215 8.96958 13.8772 8.93101 13.9286C8.87958 13.9972 8.83244 14.0701 8.78958 14.1429C8.76688 14.1857 8.73276 14.2213 8.69101 14.2458C8.68645 14.2484 8.68128 14.2498 8.67601 14.2498C8.67074 14.2498 8.66557 14.2484 8.66101 14.2458C8.65115 14.2384 8.64115 14.2313 8.63101 14.2244C8.6053 14.2115 8.5753 14.1944 8.55815 14.1772C8.41165 14.0356 8.2822 13.8774 8.17244 13.7058L7.96672 13.3758C7.96244 13.3672 7.96672 13.3586 7.9753 13.3544C7.98497 13.3507 7.99562 13.3507 8.0053 13.3544C8.09101 13.3844 8.17672 13.4101 8.25387 13.4272C8.29672 13.4401 8.29672 13.4272 8.26672 13.4058L7.89815 13.1315C7.76408 12.9888 7.67469 12.8101 7.64101 12.6172L7.64559 12.6047L7.66672 12.6044C7.75244 12.6472 7.84672 12.6772 7.94101 12.7072C7.95815 12.7115 7.96244 12.7072 7.94958 12.6901L7.87244 12.6044L7.57672 12.3044C7.55764 12.2856 7.54427 12.2618 7.53815 12.2358C7.46958 11.8975 7.44652 11.5516 7.46958 11.2072C7.47191 11.2067 7.47435 11.2068 7.47662 11.2075C7.47889 11.2083 7.48091 11.2097 7.48244 11.2115Z" fill="url(#paint1_linear_59_70889)"/>
<path d="M16.0967 12.6858C16.0582 12.7201 16.0667 12.7286 16.1139 12.7115L16.3924 12.6044L16.401 12.6044C16.4039 12.6049 16.4066 12.6059 16.409 12.6075C16.4114 12.6091 16.4135 12.6112 16.4151 12.6136C16.4167 12.616 16.4178 12.6187 16.4183 12.6215C16.4188 12.6243 16.4188 12.6273 16.4182 12.6301L16.2682 13.0244C16.2639 13.0361 16.2565 13.0465 16.2467 13.0544L15.8696 13.3501L15.7624 13.4186V13.4272L15.771 13.4358H15.7839L16.071 13.3458C16.074 13.3449 16.0766 13.345 16.0796 13.3458C16.0826 13.3465 16.086 13.3479 16.0882 13.3501L16.0924 13.3586L16.0924 13.3715C15.9939 13.5515 15.8782 13.7272 15.741 13.8944L15.3724 14.3144L15.1367 14.0529C15.1324 14.0444 15.1282 14.0401 15.1367 14.0358V14.0186C15.021 13.8729 14.9953 13.7186 15.0596 13.5558L15.1024 13.4058C15.1153 13.3629 15.1367 13.3115 15.1624 13.2644L15.2482 13.0501C15.321 12.8015 15.3682 12.5444 15.3896 12.2786H15.4024L15.8653 11.9058C16.1139 11.6872 16.341 11.4601 16.551 11.2286C16.5767 11.2029 16.5939 11.2072 16.5939 11.2458C16.611 11.5801 16.581 11.9186 16.5082 12.2572C16.5031 12.2756 16.4927 12.292 16.4782 12.3044L16.0967 12.6858Z" fill="url(#paint2_linear_59_70889)"/>
<path d="M15.1624 13.2644C15.1367 13.3072 15.1196 13.3586 15.1024 13.4058C15.0904 13.4564 15.0761 13.5064 15.0596 13.5558C14.9953 13.7186 15.021 13.8729 15.1324 14.0186V14.0529L15.3724 14.3186C15.2482 14.4429 15.1153 14.5544 14.9567 14.6486C14.9139 14.6744 14.8796 14.7001 14.8453 14.7344C14.8024 14.7729 14.7596 14.8072 14.7039 14.8372C14.649 14.8666 14.596 14.8996 14.5453 14.9358C14.4982 14.9701 14.4424 15.0086 14.3782 15.0386C14.3635 15.047 14.3476 15.0528 14.331 15.0558C14.3135 15.0582 14.2971 15.0656 14.2839 15.0772C14.2795 15.0818 14.2741 15.0853 14.2682 15.0875C14.2622 15.0897 14.2559 15.0906 14.2496 15.0901L14.1767 15.0944L13.7867 15.2401C13.5296 15.3258 13.3539 15.3686 13.251 15.3815C13.1224 15.3901 12.9853 15.4029 12.8567 15.4244C12.8069 15.4265 12.7571 15.4177 12.711 15.3986C13.243 15.2879 13.7401 15.0496 14.1596 14.7044L14.3567 14.5329C14.4982 14.4001 14.6224 14.2586 14.7296 14.1044C14.7553 14.0658 14.7724 14.0315 14.7767 13.9972C14.7867 13.9405 14.7939 13.8832 14.7982 13.8258C14.8024 13.7958 14.811 13.7701 14.8282 13.7401C14.8447 13.7092 14.8563 13.676 14.8624 13.6415C14.8624 13.6372 14.8624 13.6329 14.8539 13.6329H14.8453C14.8384 13.6353 14.8323 13.6398 14.8282 13.6458C14.7724 13.7229 14.7039 13.7872 14.6224 13.8258L15.1624 13.2644Z" fill="#0E5461"/>
<path d="M9.48815 13.8944C9.51815 13.8901 9.53958 13.8944 9.55244 13.9115C9.55673 13.9201 9.5653 13.9244 9.57387 13.9244H9.58244V13.9458C9.58672 13.9586 9.5953 13.9629 9.60815 13.9544C9.61282 13.9517 9.61681 13.948 9.61979 13.9435C9.62276 13.9391 9.62465 13.934 9.6253 13.9286C9.6253 13.9158 9.63387 13.9115 9.64672 13.9115C9.67672 13.9115 9.70244 13.9201 9.73244 13.9286L9.82244 13.9415C10.3539 13.9465 10.8853 13.9465 11.4167 13.9415C11.4191 13.9396 11.4219 13.9382 11.4248 13.9375C11.4278 13.9368 11.4309 13.9367 11.4339 13.9372L14.4853 13.9586L14.3482 14.0872L14.0867 14.2844C13.4448 14.7248 12.6787 14.9482 11.9006 14.922C11.1226 14.8958 10.3733 14.6213 9.76244 14.1386L9.48815 13.8944Z" fill="#0E5461"/>
<path d="M9.48815 13.8944L9.21815 13.6286C9.20958 13.6372 9.23958 13.8986 9.23958 13.9286C9.23958 13.9758 9.25244 14.0272 9.28244 14.0701C9.40877 14.2545 9.55861 14.4216 9.72815 14.5672C10.1241 14.9319 10.601 15.1973 11.1195 15.3419C11.6381 15.4864 12.1835 15.5059 12.711 15.3986C13.243 15.2879 13.7401 15.0496 14.1596 14.7044L14.3567 14.5329C14.4982 14.4001 14.6224 14.2586 14.7296 14.1044C14.7553 14.0658 14.7724 14.0315 14.7767 13.9972C14.7939 13.9115 14.7853 13.8172 14.8282 13.7401C14.8447 13.7092 14.8563 13.676 14.8624 13.6415C14.8624 13.6372 14.8624 13.6329 14.8539 13.6329H14.8453C14.8384 13.6353 14.8323 13.6398 14.8282 13.6458C14.661 13.8901 14.3224 14.1044 14.0867 14.2844C13.4448 14.7248 12.6787 14.9482 11.9006 14.922C11.1226 14.8958 10.3733 14.6213 9.76244 14.1386L9.48815 13.8944Z" fill="white"/>
<defs>
<linearGradient id="paint0_linear_59_70889" x1="10.0496" y1="6.39007" x2="14.5796" y2="18.8186" gradientUnits="userSpaceOnUse">
<stop stop-color="#42FFF8"/>
<stop offset="1" stop-color="#719ECA"/>
</linearGradient>
<linearGradient id="paint1_linear_59_70889" x1="11.9606" y1="4.71602" x2="11.9606" y2="19.2871" gradientUnits="userSpaceOnUse">
<stop stop-color="#6AD7EB"/>
<stop offset="1" stop-color="#084C55"/>
</linearGradient>
<linearGradient id="paint2_linear_59_70889" x1="12.0182" y1="4.70996" x2="12.0182" y2="19.3059" gradientUnits="userSpaceOnUse">
<stop stop-color="#62CBDE"/>
<stop offset="1" stop-color="#0F555F"/>
</linearGradient>
</defs>
</svg>
