<svg width="24" height="24" viewBox="0 0 24 24" fill="none" xmlns="http://www.w3.org/2000/svg">
<path fill-rule="evenodd" clip-rule="evenodd" d="M5.60056 12.0001L4.28613 17.5715L8.29585 14.9324H16.7147C17.4986 14.9323 18.2514 14.6255 18.8119 14.0774C19.3724 13.5294 19.6962 12.7838 19.7138 12.0001H5.60056ZM5.90356 10.7144H19.7147V10.2858C19.7147 9.6038 19.4438 8.94975 18.9616 8.46751C18.4793 7.98527 17.8253 7.71436 17.1433 7.71436H6.62442V7.7645L6.61156 7.71436L5.90356 10.7144Z" fill="#86E7F7"/>
<path fill-rule="evenodd" clip-rule="evenodd" d="M5.6087 12.0001L4.28613 17.5715L8.21742 15.0001H16.7147C17.5104 15.0001 18.2734 14.684 18.836 14.1214C19.3986 13.5588 19.7138 12.7957 19.7138 12.0001H5.6087Z" fill="#457CD6"/>
</svg>
