<svg width="24" height="24" viewBox="0 0 24 24" fill="none" xmlns="http://www.w3.org/2000/svg">
<path d="M5.15527 11.5716C5.37684 7.98449 8.3567 5.14307 11.9996 5.14307V8.57164H14.571V8.14307H15.8567V9.42878H14.571V9.00021H11.9996V12.0002H14.9996V14.5716H14.571V15.0002H9.42813V14.5716H8.99956V9.42878H9.42813V8.14307H8.14242V9.42878H8.57099V11.5716H5.15527Z" fill="#005CC7"/>
<path d="M14.5711 15.8571V15.4286H12.4283V18.8443C16.0154 18.6227 18.8569 15.6429 18.8569 12H15.4283V14.5714H15.8569V15.8571H14.5711ZM8.14258 14.5714H8.57115V12H5.14258C5.14258 15.7873 8.21244 18.8571 11.9997 18.8571V15.4286H9.42829V15.8571H8.14258V14.5714Z" fill="#005CC7"/>
</svg>
