<svg width="24" height="24" viewBox="0 0 24 24" fill="none" xmlns="http://www.w3.org/2000/svg">
<path d="M10.071 14.5673L10.3624 13.9801L12.6424 9.42871L13.4996 11.1344L14.3567 12.8573H13.4353C13.3967 12.8573 13.3839 12.8487 13.371 12.823L12.8053 11.6873L12.6639 11.4087C12.6583 11.3972 12.6526 11.3858 12.6467 11.3744L12.6382 11.3616L12.6296 11.3744C12.6235 11.3842 12.6178 11.3942 12.6124 11.4044L12.2567 12.1159L11.4724 13.6801L11.0353 14.5373C11.0267 14.5544 11.0096 14.5673 10.9924 14.5673H10.071ZM15.2139 14.5673H14.2924C14.2753 14.5673 14.2496 14.5587 14.2453 14.5459L13.8424 13.7401L13.8382 13.7273L13.8339 13.7187H14.7467C14.7682 13.7187 14.7896 13.7187 14.8024 13.7401L15.2053 14.5459L15.2139 14.5716V14.5673ZM22.2853 14.5716H21.4282V11.503L20.5624 12.3687C20.2839 12.6559 20.0053 12.9344 19.7182 13.2173L19.5939 13.0973L19.2167 12.7159C18.5332 12.028 17.8503 11.3394 17.1682 10.6501C17.1539 10.6365 17.1448 10.6183 17.1424 10.5987V9.42871L17.7767 10.063L19.7224 12.0001L19.731 11.9873C20.578 11.1385 21.4251 10.29 22.2724 9.44157L22.2853 9.42871V14.5716ZM1.71387 9.433H1.77387C2.52244 9.43259 3.27101 9.43259 4.01958 9.433C4.53815 9.433 4.96244 9.62585 5.31387 9.99871C5.54442 10.2459 5.69481 10.5571 5.74529 10.8913C5.79577 11.2256 5.74398 11.5673 5.59672 11.8716C5.41714 12.2511 5.10452 12.5515 4.71815 12.7159C4.71387 12.7159 4.7053 12.7159 4.70101 12.7244L4.68815 12.7287L5.75958 14.5716H4.79958C4.76958 14.5716 4.75672 14.563 4.73958 14.5373C4.56815 14.2416 4.38815 13.9501 4.21244 13.6544C3.87815 13.1059 3.54815 12.5616 3.23958 12.0001H4.02815C4.45672 12.0001 4.82958 11.6616 4.8853 11.2416C4.9453 10.7359 4.53387 10.3673 4.19101 10.3116L4.1653 10.3073C4.10886 10.2953 4.05151 10.2882 3.99387 10.2859H2.3653C2.25815 10.2859 2.19815 10.2473 2.15101 10.1701L1.87244 9.69871L1.74387 9.48014C1.73729 9.47111 1.73013 9.46252 1.72244 9.45442L1.71387 9.44157V9.433ZM15.4282 9.433V14.5716H18.8567V13.7144H16.2853V9.433H15.4282ZM6.42815 12.4287V11.5716H9.85672V12.4287H6.42815ZM6.47101 14.4644C6.43244 14.4944 6.41958 14.5244 6.43244 14.5716H9.85672V13.7144H7.31958C7.29815 13.7144 7.27244 13.7273 7.2553 13.7401L6.90815 14.0616L6.46672 14.4644H6.47101ZM9.85672 9.42871V10.2859H7.31958C7.29635 10.2862 7.27369 10.2786 7.2553 10.2644L6.57815 9.583L6.43672 9.44157L6.42815 9.42871H9.85672Z" fill="url(#paint0_linear_155_460)"/>
<defs>
<linearGradient id="paint0_linear_155_460" x1="11.9996" y1="9.42871" x2="11.9996" y2="14.5716" gradientUnits="userSpaceOnUse">
<stop stop-color="#B29AFA"/>
<stop offset="1" stop-color="#F8B4C1"/>
</linearGradient>
</defs>
</svg>
