<svg width="24" height="24" viewBox="0 0 24 24" fill="none" xmlns="http://www.w3.org/2000/svg">
<path d="M6.21383 12.2659C6.23379 12.2676 6.25387 12.2676 6.27383 12.2659H6.33812C6.60812 12.2659 6.86526 12.2144 7.10098 12.0944C7.33576 11.9822 7.55014 11.8316 7.73526 11.6487C7.91955 11.4687 8.06097 11.2673 8.16383 11.0487C8.26669 10.8259 8.31812 10.6116 8.31812 10.4059C8.31812 10.2559 8.2924 10.1144 8.2324 9.9773C8.17829 9.84236 8.09138 9.72304 7.97955 9.63015C7.84818 9.52265 7.69663 9.4425 7.53383 9.39444C7.08093 9.28295 6.60809 9.28001 6.15383 9.38587C5.94812 9.4373 5.7724 9.50587 5.6224 9.5873C5.47669 9.67301 5.3524 9.7673 5.24955 9.87873C5.06382 10.0762 4.9105 10.3019 4.79526 10.5473C4.73526 10.6587 4.67098 10.753 4.60669 10.8387C4.54669 10.9244 4.47812 10.9887 4.39669 11.0444C4.31955 11.0959 4.22526 11.1216 4.10955 11.1216C3.95526 11.1216 3.83526 11.083 3.75812 11.0059C3.67681 10.9142 3.63519 10.7939 3.6424 10.6716C3.6424 10.5387 3.67669 10.393 3.74955 10.2344C3.83319 10.0672 3.93837 9.91155 4.0624 9.77158C4.38648 9.41741 4.78049 9.13431 5.21955 8.94015C6.04548 8.57013 6.97037 8.48276 7.85098 8.69158C8.1424 8.7773 8.39955 8.89301 8.6224 9.05587C8.94424 9.28122 9.1801 9.60909 9.29143 9.98588C9.40275 10.3627 9.38295 10.7661 9.23526 11.1302C9.15812 11.3273 9.05097 11.5159 8.91812 11.6873C8.78526 11.8587 8.62669 12.0173 8.44669 12.1587C8.0903 12.4509 7.68566 12.6786 7.25098 12.8316C7.03669 12.9087 6.83526 12.9602 6.63812 12.9987C6.71198 13.3518 6.8361 13.6924 7.00669 14.0102C7.09669 14.173 7.19955 14.3102 7.31097 14.4259C7.36445 14.4865 7.43048 14.5348 7.50449 14.5674C7.5785 14.5999 7.65871 14.616 7.73955 14.6144H7.80383C8.03097 14.6144 8.2324 14.5802 8.40812 14.503C8.72325 14.3726 9.00037 14.1647 9.21383 13.8987C9.3124 13.7873 9.41098 13.7359 9.50955 13.7359C9.53898 13.7351 9.56824 13.7404 9.59553 13.7515C9.62281 13.7626 9.64752 13.7791 9.66812 13.8002C9.71097 13.843 9.7324 13.903 9.7324 13.9759C9.7324 14.0487 9.71097 14.1344 9.66383 14.2287C9.62097 14.323 9.54383 14.4216 9.43669 14.5244C9.16046 14.7943 8.84198 15.0173 8.49383 15.1844C8.18955 15.3216 7.89812 15.3902 7.62383 15.3902C7.40098 15.3902 7.19526 15.3259 7.00669 15.1973C6.81383 15.0687 6.6424 14.8973 6.48812 14.683C6.33383 14.4644 6.18812 14.2116 6.05955 13.9202C5.93526 13.6287 5.82383 13.3202 5.72098 12.9987C5.66526 13.1273 5.60955 13.2773 5.54955 13.4487C5.42278 13.812 5.28703 14.1721 5.1424 14.5287C5.06955 14.7044 4.98812 14.863 4.89812 15.0087C4.80812 15.1459 4.70955 15.2616 4.60669 15.3516C4.50383 15.4373 4.3924 15.4802 4.2724 15.4802C4.17383 15.4802 4.0924 15.463 4.02812 15.433C3.97248 15.4062 3.924 15.3665 3.88669 15.3173C3.8517 15.2711 3.82555 15.2187 3.80955 15.163C3.77847 15.0374 3.78143 14.9057 3.81812 14.7816C3.83955 14.7087 3.86098 14.6402 3.89955 14.5759L5.27098 12.0559C5.39098 11.8416 5.51098 11.6402 5.63098 11.443C5.75098 11.2459 5.86669 11.0702 5.97812 10.9159C6.09383 10.7659 6.20098 10.6459 6.29955 10.5516C6.4024 10.4616 6.49669 10.4144 6.57383 10.4144C6.59955 10.4144 6.62526 10.4144 6.65526 10.4273C6.68526 10.4359 6.71526 10.4487 6.74097 10.4702C6.7624 10.4873 6.78383 10.5173 6.80526 10.5559C6.8224 10.5987 6.83097 10.6416 6.83097 10.7016C6.83097 10.7616 6.81383 10.843 6.77955 10.9502C6.6144 11.3984 6.42557 11.8376 6.21383 12.2659ZM12.0767 12.5487C12.0624 12.5473 12.0481 12.5473 12.0338 12.5487H11.991C11.8753 12.5487 11.7638 12.5702 11.661 12.613C11.5581 12.6602 11.4638 12.7244 11.3781 12.8016C11.2924 12.8744 11.2153 12.9602 11.1467 13.0587C10.9857 13.302 10.8548 13.5639 10.7567 13.8387C11.1308 13.6254 11.4968 13.3981 11.8538 13.1573C11.991 13.0716 12.0895 12.9859 12.141 12.913C12.1873 12.8553 12.2156 12.7853 12.2224 12.7116C12.2224 12.6687 12.2053 12.6259 12.1753 12.6002C12.1488 12.5728 12.1142 12.5547 12.0767 12.5487ZM12.2438 11.9059C12.501 11.9059 12.6938 11.9702 12.8224 12.0944C12.951 12.2187 13.011 12.3902 13.011 12.6087C13.011 12.7373 12.981 12.8787 12.9124 13.0202C12.8438 13.1659 12.7238 13.3116 12.5567 13.4573C12.3853 13.6073 12.1624 13.7573 11.8795 13.9116C11.601 14.0659 11.2495 14.2159 10.8253 14.3744C10.8424 14.4602 10.8895 14.533 10.971 14.5887C11.0524 14.6359 11.1595 14.6616 11.2924 14.6616C11.4338 14.6616 11.5881 14.6402 11.751 14.6016C11.9138 14.5587 12.0767 14.503 12.2353 14.4387C12.6489 14.273 13.0463 14.0693 13.4224 13.8302C13.5011 13.7835 13.5827 13.742 13.6667 13.7059L13.731 13.7016C13.7695 13.7016 13.7995 13.7102 13.8253 13.7316C13.851 13.7444 13.8681 13.7659 13.8853 13.7916C13.9024 13.813 13.9153 13.8344 13.9238 13.8644L13.9324 13.9287C13.9324 13.9587 13.9324 13.993 13.9238 14.0316C13.9106 14.0798 13.8856 14.124 13.851 14.1602C13.5474 14.4179 13.2169 14.642 12.8653 14.8287C12.4747 15.0433 12.0605 15.2115 11.631 15.3302C11.4081 15.3902 11.1895 15.4159 10.971 15.4159C10.7824 15.4159 10.6195 15.3816 10.4695 15.3087C10.327 15.2381 10.2005 15.1389 10.098 15.0172C9.99549 14.8956 9.91918 14.7541 9.87383 14.6016C9.7656 14.2981 9.7656 13.9665 9.87383 13.663C9.92526 13.5044 10.0024 13.3416 10.101 13.1787C10.3214 12.8274 10.6135 12.5266 10.9581 12.2959C11.3359 12.0357 11.7852 11.8994 12.2438 11.9059ZM15.3595 12.5487C15.3453 12.5473 15.3309 12.5473 15.3167 12.5487H15.2738C15.1581 12.5487 15.0467 12.5702 14.9438 12.613C14.841 12.6602 14.7467 12.7244 14.661 12.8016C14.5753 12.8744 14.4981 12.9602 14.4295 13.0587C14.2687 13.3021 14.1377 13.564 14.0395 13.8387C14.4136 13.6253 14.7796 13.398 15.1367 13.1573C15.2738 13.0716 15.3724 12.9859 15.4238 12.913C15.4701 12.8553 15.4985 12.7853 15.5053 12.7116C15.5053 12.6687 15.4881 12.6259 15.4581 12.6002C15.4317 12.5728 15.3971 12.5547 15.3595 12.5487ZM15.5267 11.9059C15.7838 11.9059 15.9767 11.9702 16.1053 12.0944C16.2338 12.2187 16.2981 12.3902 16.2981 12.6087C16.2981 12.7373 16.2638 12.8787 16.1953 13.0202C16.1267 13.1659 16.0067 13.3116 15.8395 13.4573C15.6681 13.6073 15.4453 13.7573 15.1624 13.9116C14.8838 14.0659 14.5324 14.2159 14.1081 14.3744C14.1253 14.4602 14.1724 14.533 14.2538 14.5887C14.3353 14.6359 14.4424 14.6616 14.5753 14.6616C14.7167 14.6616 14.871 14.6402 15.0338 14.6016C15.1967 14.5587 15.3595 14.503 15.5181 14.4387C15.9318 14.273 16.3292 14.0693 16.7053 13.8302C16.7839 13.7835 16.8655 13.742 16.9495 13.7059L17.0138 13.7016C17.0524 13.7016 17.0824 13.7102 17.1081 13.7316C17.1338 13.7444 17.151 13.7659 17.1681 13.7916C17.1853 13.813 17.1981 13.8344 17.2067 13.8644L17.2153 13.9287C17.2153 13.9587 17.2153 13.993 17.2067 14.0316C17.1935 14.0798 17.1685 14.124 17.1338 14.1602C16.8304 14.418 16.4999 14.6422 16.1481 14.8287C15.7576 15.0433 15.3434 15.2116 14.9138 15.3302C14.691 15.3902 14.4724 15.4159 14.2538 15.4159C14.0653 15.4159 13.9024 15.3816 13.7567 15.3087C13.6132 15.2388 13.4857 15.1399 13.3824 15.0181C13.2792 14.8964 13.2023 14.7546 13.1567 14.6016C13.0481 14.2981 13.0481 13.9664 13.1567 13.663C13.3705 13.1088 13.747 12.6322 14.2367 12.2959C14.421 12.1802 14.6181 12.0816 14.8324 12.013C15.0467 11.9402 15.2824 11.9059 15.5267 11.9059ZM19.971 12.5873C19.6768 12.5993 19.3825 12.6064 19.0881 12.6087H18.2781L17.9653 13.2302L17.6481 13.8902C17.2789 14.6691 16.9089 15.4477 16.5381 16.2259C16.5038 16.2944 16.461 16.363 16.4095 16.4187C16.3667 16.483 16.311 16.5344 16.251 16.5773C16.1476 16.6555 16.0244 16.703 15.8953 16.7144C15.8241 16.7157 15.7542 16.6963 15.6938 16.6587C15.6338 16.6202 15.6081 16.5602 15.6081 16.483C15.6081 16.4402 15.6167 16.393 15.6338 16.3373C15.651 16.2859 15.6767 16.2216 15.7153 16.1487L17.3953 12.5959H17.151C16.611 12.5959 16.6067 12.0002 17.1681 12.0002H17.7167C17.9395 11.5544 18.1195 11.263 18.3381 10.9716C18.5292 10.7168 18.7509 10.4865 18.9981 10.2859C19.3395 10.0029 19.7676 9.84553 20.211 9.84015C20.2969 9.84042 20.3819 9.85889 20.4602 9.89434C20.5385 9.9298 20.6084 9.98144 20.6653 10.0459C20.7295 10.1144 20.7767 10.2002 20.8153 10.303C20.8538 10.4102 20.871 10.5302 20.871 10.6716C20.871 10.8002 20.8538 10.9502 20.8153 11.113C20.8068 11.1544 20.7876 11.1928 20.7595 11.2244C20.7038 11.2769 20.6361 11.3151 20.5624 11.3359C20.5281 11.3444 20.4981 11.3444 20.4767 11.3444C20.4169 11.3444 20.358 11.3297 20.3053 11.3016C20.2794 11.2893 20.2575 11.2699 20.2423 11.2456C20.2271 11.2212 20.2192 11.1931 20.2195 11.1644C20.219 11.0926 20.2248 11.0209 20.2367 10.9502C20.2367 10.8216 20.211 10.7273 20.1638 10.6716C20.1406 10.6433 20.111 10.6208 20.0775 10.6059C20.0441 10.5911 20.0076 10.5842 19.971 10.5859C19.8767 10.5859 19.761 10.6287 19.6281 10.7144C19.4995 10.8002 19.371 10.9073 19.2424 11.0487C19.1012 11.1982 18.9723 11.3587 18.8567 11.5287C18.7367 11.7044 18.6853 11.8116 18.6038 12.0002H19.6924L19.9624 12.0044C20.0481 12.0044 20.1167 12.0173 20.181 12.0344C20.4638 12.0987 20.4295 12.4459 20.1724 12.5487C20.121 12.5702 20.0524 12.5787 19.9667 12.5873H19.971Z" fill="#5431A9"/>
<path d="M18.1667 15.7244C18.5146 15.7244 18.7967 15.4424 18.7967 15.0944C18.7967 14.7465 18.5146 14.4644 18.1667 14.4644C17.8187 14.4644 17.5367 14.7465 17.5367 15.0944C17.5367 15.4424 17.8187 15.7244 18.1667 15.7244Z" fill="#D24D99"/>
</svg>
