<svg width="24" height="24" viewBox="0 0 24 24" fill="none" xmlns="http://www.w3.org/2000/svg">
<path d="M4.49171 11.2286L8.92742 11.8458L4.49171 12.4672L3.85742 11.8458L4.49171 11.2244V11.2286ZM7.34171 12.7715H9.24456L7.65885 13.7058L7.02456 13.3972L7.34171 12.7758V12.7715ZM9.55742 13.3972L7.97171 14.0144V14.6358H8.61028L9.55742 13.3929V13.3972ZM8.92742 15.8744V15.2572L10.1917 14.3272L9.55742 15.8744H8.92742ZM10.1917 18.9772L11.1431 14.6358L9.24456 18.6644L9.55742 19.2858L10.1917 18.9772ZM11.7774 16.1872L12.0946 14.6358L12.4117 16.1872L12.0946 16.4958L11.7774 16.1872ZM13.0417 16.1872L12.7289 14.6358L13.676 15.8786V16.4958L13.0417 16.1872ZM17.4774 16.4958L14.3103 13.3972L18.4289 15.5658V16.4958H17.4774ZM16.5303 11.5329L14.6274 11.8458L16.5303 12.1544L16.8431 11.8458L16.5303 11.5329ZM17.4774 7.19578L14.3103 10.2944L18.4289 8.43436V7.50436L17.4774 7.19578ZM13.676 8.12578L13.3589 9.36864L14.3103 8.43436V7.81293L13.676 8.12578ZM12.4117 7.50436L12.0946 9.05578L11.7774 7.50436L12.0946 7.19578L12.4117 7.50436ZM10.1917 5.02293L11.1431 9.36436L9.24456 5.33578L9.55742 4.71436L10.1917 5.02293ZM8.92742 8.43436L9.87457 9.98578L8.28885 9.05578V8.43436H8.92742Z" fill="#52B675"/>
</svg>
