<svg width="24" height="24" viewBox="0 0 24 24" fill="none" xmlns="http://www.w3.org/2000/svg">
<path fill-rule="evenodd" clip-rule="evenodd" d="M11.9996 16.2858C14.3666 16.2858 16.2853 14.3671 16.2853 12.0001C16.2853 9.63307 14.3666 7.71436 11.9996 7.71436C9.63258 7.71436 7.71387 9.63307 7.71387 12.0001C7.71387 14.3671 9.63258 16.2858 11.9996 16.2858ZM11.9996 15.8572C12.5061 15.8572 13.0077 15.7574 13.4756 15.5636C13.9436 15.3698 14.3688 15.0856 14.727 14.7275C15.0852 14.3693 15.3693 13.9441 15.5631 13.4761C15.757 13.0082 15.8567 12.5066 15.8567 12.0001C15.8567 11.4935 15.757 10.992 15.5631 10.524C15.3693 10.056 15.0852 9.63083 14.727 9.27266C14.3688 8.91449 13.9436 8.63037 13.4756 8.43653C13.0077 8.24269 12.5061 8.14293 11.9996 8.14293C10.9766 8.14293 9.99552 8.5493 9.27217 9.27266C8.54882 9.99601 8.14244 10.9771 8.14244 12.0001C8.14244 13.023 8.54882 14.0041 9.27217 14.7275C9.99552 15.4508 10.9766 15.8572 11.9996 15.8572Z" fill="url(#paint0_linear_59_71941)"/>
<path fill-rule="evenodd" clip-rule="evenodd" d="M9.21472 16.8258C11.8796 18.3644 15.2872 17.4515 16.8257 14.7866C18.3643 12.1218 17.451 8.71464 14.7862 7.17607C12.1213 5.6375 8.71415 6.55036 7.17558 9.21521C5.63701 11.8801 6.54987 15.2872 9.21472 16.8258ZM11.9996 17.1429C14.8397 17.1429 17.1424 14.8402 17.1424 12.0001C17.1424 9.15993 14.8397 6.85721 11.9996 6.85721C9.15944 6.85721 6.85672 9.15993 6.85672 12.0001C6.85672 14.8402 9.15944 17.1429 11.9996 17.1429Z" fill="url(#paint1_linear_59_71941)"/>
<path fill-rule="evenodd" clip-rule="evenodd" d="M11.9996 19.2858C16.0234 19.2858 19.2853 16.0239 19.2853 12.0001C19.2853 7.97621 16.0234 4.71436 11.9996 4.71436C7.97572 4.71436 4.71387 7.97621 4.71387 12.0001C4.71387 16.0239 7.97572 19.2858 11.9996 19.2858ZM11.9996 18.8572C15.7869 18.8572 18.8567 15.7874 18.8567 12.0001C18.8567 8.21278 15.7869 5.14293 11.9996 5.14293C8.2123 5.14293 5.14244 8.21278 5.14244 12.0001C5.14244 15.7874 8.2123 18.8572 11.9996 18.8572Z" fill="url(#paint2_linear_59_71941)"/>
<defs>
<linearGradient id="paint0_linear_59_71941" x1="4.64101" y1="12.1902" x2="19.3582" y2="12.0001" gradientUnits="userSpaceOnUse">
<stop stop-color="#F9F9F9"/>
<stop offset="1" stop-color="#F9F9F9" stop-opacity="0"/>
</linearGradient>
<linearGradient id="paint1_linear_59_71941" x1="19.4877" y1="11.9989" x2="4.5088" y2="11.9989" gradientUnits="userSpaceOnUse">
<stop stop-color="#F0F0F0"/>
<stop offset="1" stop-color="#F0F0F0" stop-opacity="0"/>
</linearGradient>
<linearGradient id="paint2_linear_59_71941" x1="4.71387" y1="12.0001" x2="19.2853" y2="12.0001" gradientUnits="userSpaceOnUse">
<stop stop-color="#F0F0F0"/>
<stop offset="1" stop-color="#F0F0F0" stop-opacity="0"/>
</linearGradient>
</defs>
</svg>
