<svg width="24" height="24" viewBox="0 0 24 24" fill="none" xmlns="http://www.w3.org/2000/svg">
<path d="M6.19292 7.62848C7.73578 5.85848 11.2758 6.72848 12.7072 7.35419C12.6043 6.96419 13.0372 6.14991 15.5958 6.00848C18.7886 5.83705 20.6701 8.91848 20.0101 10.8728C19.3586 12.8228 18.4801 12.1713 17.9529 14.0871C17.4301 15.9942 16.4829 18.2313 14.6529 18.8442C13.2943 19.2985 11.2286 19.8342 8.34435 18.0128C6.03006 16.5556 6.63863 14.0828 7.23863 13.2128C6.3472 12.1156 4.65435 9.39848 6.19292 7.62848Z" fill="#F11E99"/>
<path d="M6.16292 16.5428C5.55006 14.9656 6.7972 13.6713 7.50006 13.2171L11.0186 12.0942L13.1958 17.9056C11.4001 18.0599 11.3958 18.2956 10.2001 18.5228C9.00863 18.7456 6.93006 18.5228 6.16292 16.5471V16.5428Z" fill="url(#paint0_linear_59_71978)"/>
<path d="M19.0372 15.7028C17.8929 18.5742 14.8672 18.3171 12.7158 18.3171C11.1901 18.3171 9.2572 18.8185 8.12149 17.7985C7.59888 17.3531 7.19779 16.7825 6.95578 16.1399C6.11149 13.6671 7.94149 13.1571 8.16435 11.7685C8.38292 10.3713 3.72863 4.43134 11.4172 4.72277C19.6029 5.03562 20.1772 12.8271 19.0372 15.7028Z" fill="#873DEE"/>
<path d="M19.4443 12.0171C19.2858 12.2099 19.1272 12.3513 18.9686 12.4885C18.4573 12.8895 18.1049 13.459 17.9743 14.0956C17.5715 15.5613 16.9158 17.2242 15.8015 18.1928C14.9443 18.3428 14.0443 18.3342 13.2301 18.3256H12.7329C12.3172 18.3256 11.8672 18.3728 11.4129 18.4199C10.5986 18.5056 9.75863 18.5999 9.05578 18.4199C8.82863 18.3042 8.5972 18.1713 8.36149 18.0213C8.15455 17.8917 7.95951 17.744 7.77863 17.5799C7.32288 17.042 6.97641 16.4204 6.75863 15.7499C6.6549 15.1167 6.7154 14.4674 6.93435 13.8642C7.08863 13.5856 7.28149 13.3371 7.47435 13.0928C7.79578 12.6728 8.10435 12.2699 8.18149 11.7771C8.23292 11.4428 8.01006 10.8471 7.73578 10.1399C7.37149 9.18848 6.93006 8.03134 6.99006 7.02848C8.73006 6.11562 11.4986 6.83134 12.7243 7.36705C12.6215 6.97277 13.0543 6.15848 15.6129 6.02134C15.7415 6.01277 15.8658 6.00848 15.9901 6.01277C18.2615 7.44848 19.2258 9.8442 19.4443 12.0128V12.0171Z" fill="url(#paint1_linear_59_71978)"/>
<path d="M12.2269 7.35407C9.66831 7.35407 7.6026 9.41121 7.6026 11.9398C7.6026 14.4598 9.66831 16.5169 12.2269 16.5169C14.7812 16.5169 16.8469 14.4598 16.8469 11.9355C16.8469 9.41121 14.7855 7.35407 12.2269 7.35407ZM6.20117 11.9398C6.20117 8.62692 8.90117 5.95264 12.2269 5.95264C15.5483 5.95264 18.2483 8.62692 18.2483 11.9355C18.2483 15.2484 15.5483 17.9184 12.2269 17.9184C11.4384 17.9212 10.6571 17.7687 9.92751 17.4695C9.19796 17.1704 8.53447 16.7305 7.97493 16.1749C7.41539 15.6193 6.97075 14.959 6.66641 14.2316C6.36207 13.5042 6.20398 12.724 6.20117 11.9355V11.9398Z" fill="white"/>
<defs>
<linearGradient id="paint0_linear_59_71978" x1="6.37262" y1="13.5257" x2="33.1637" y2="5.96057" gradientUnits="userSpaceOnUse">
<stop stop-color="#4BDAF7"/>
<stop offset="1" stop-color="#6A63E3"/>
</linearGradient>
<linearGradient id="paint1_linear_59_71978" x1="8.56259" y1="16.4529" x2="18.6383" y2="10.0715" gradientUnits="userSpaceOnUse">
<stop stop-color="#2424E5"/>
<stop offset="1" stop-color="#781390"/>
</linearGradient>
</defs>
</svg>
