<svg width="24" height="24" viewBox="0 0 24 24" fill="none" xmlns="http://www.w3.org/2000/svg">
<path d="M6.02966 13.6541C5.62718 13.2787 5.30349 12.827 5.07749 12.3252C4.85148 11.8234 4.72769 11.2816 4.71333 10.7314C4.69896 10.1813 4.79432 9.63375 4.99384 9.12085C5.19335 8.60794 5.49303 8.13991 5.87537 7.74407L7.24252 6.32978C7.43713 6.12764 7.70328 6.00992 7.98376 6.0019C8.26424 5.99389 8.53668 6.09623 8.74252 6.28692C9.17109 6.68978 9.18394 7.35407 8.78109 7.77407L7.41823 9.18835C7.22737 9.38536 7.07775 9.61848 6.97813 9.87405C6.87851 10.1296 6.8309 10.4025 6.83808 10.6767C6.84527 10.9509 6.9071 11.2209 7.01997 11.4709C7.13283 11.7209 7.29446 11.9459 7.49537 12.1326C7.90215 12.5125 8.44192 12.7173 8.99831 12.7029C9.55469 12.6885 10.0831 12.4559 10.4697 12.0555L11.8411 10.6241C12.6344 9.80226 13.7191 9.32544 14.8609 9.29657C16.0028 9.2677 17.1102 9.68911 17.9439 10.4698C18.3542 10.8531 18.684 11.3142 18.9142 11.8263C19.1444 12.3384 19.2704 12.8912 19.2847 13.4524C19.2991 14.0137 19.2016 14.5722 18.9979 15.0954C18.7942 15.6186 18.4883 16.096 18.0982 16.4998L16.9711 17.6741C16.7759 17.8756 16.5094 17.9926 16.229 17.9998C15.9485 18.007 15.6764 17.9039 15.4711 17.7126C15.3694 17.6186 15.2874 17.5051 15.2301 17.379C15.1728 17.2529 15.1412 17.1166 15.1372 16.9781C15.1332 16.8396 15.1569 16.7017 15.2069 16.5725C15.2568 16.4432 15.3321 16.3253 15.4282 16.2255L16.5597 15.0512C16.7572 14.8464 16.912 14.6044 17.0151 14.3391C17.1181 14.0738 17.1672 13.7907 17.1596 13.5063C17.1521 13.2218 17.0879 12.9417 16.9709 12.6823C16.8539 12.423 16.6864 12.1895 16.4782 11.9955C16.0554 11.5999 15.4941 11.3863 14.9153 11.4008C14.3365 11.4152 13.7865 11.6565 13.3839 12.0726L12.0082 13.5041C11.2306 14.3083 10.168 14.7747 9.04965 14.8028C7.93128 14.8309 6.84667 14.4183 6.02966 13.6541ZM9.14537 17.0698C9.1172 16.9344 9.11604 16.7948 9.14197 16.659C9.16789 16.5231 9.22039 16.3938 9.29645 16.2783C9.37251 16.1628 9.47063 16.0635 9.58518 15.986C9.69972 15.9086 9.82844 15.8545 9.96394 15.8269C11.6349 15.361 13.1006 14.3466 14.1254 12.9469C14.2911 12.7198 14.5394 12.5669 14.8168 12.5212C15.0942 12.4755 15.3784 12.5407 15.6082 12.7026C15.7218 12.7817 15.8186 12.8826 15.8927 12.9995C15.9669 13.1164 16.017 13.2469 16.0401 13.3833C16.0633 13.5198 16.059 13.6595 16.0275 13.7943C15.996 13.9291 15.938 14.0563 15.8568 14.1684C14.1168 16.5769 11.5625 17.6355 10.4054 17.8798C10.1304 17.9383 9.84334 17.8855 9.60719 17.7329C9.37103 17.5803 9.20497 17.3403 9.14537 17.0655V17.0698ZM13.2768 8.74264C13.5496 8.6841 13.788 8.5196 13.9395 8.28531C14.091 8.05102 14.1432 7.76615 14.0847 7.49335C14.0261 7.22056 13.8616 6.98219 13.6273 6.83069C13.393 6.67919 13.1082 6.62696 12.8354 6.6855C11.7039 6.9255 9.6768 7.59407 7.92394 10.0198C7.58109 10.4912 7.69252 11.1469 8.17252 11.4855C8.40231 11.6475 8.68656 11.7126 8.96396 11.6669C9.24136 11.6212 9.48968 11.4683 9.65537 11.2412C11.0097 9.35978 12.5011 8.9055 13.2768 8.74264Z" fill="url(#paint0_linear_59_73614)"/>
<defs>
<linearGradient id="paint0_linear_59_73614" x1="3.81394" y1="11.7298" x2="18.0125" y2="11.7298" gradientUnits="userSpaceOnUse">
<stop stop-color="#FF9050"/>
<stop offset="1" stop-color="#FB5E39"/>
</linearGradient>
</defs>
</svg>
