<svg width="24" height="24" viewBox="0 0 24 24" fill="none" xmlns="http://www.w3.org/2000/svg">
<path d="M8.57115 10.0714V6.21422L5.14258 8.14279L8.57115 10.0714Z" fill="#A62222"/>
<path d="M8.57115 13.9285V10.0714L5.14258 11.9999L8.57115 13.9285Z" fill="#EE8622"/>
<path d="M8.57115 17.7856V13.9285L5.14258 15.8571L8.57115 17.7856Z" fill="#A62222"/>
<path d="M18.8569 15.8571V11.9999L15.4283 13.9285L18.8569 15.8571ZM15.4283 13.9285V10.0714L11.9997 11.9999L15.4283 13.9285ZM15.4283 17.7856V13.9285L11.9997 15.8571L15.4283 17.7856Z" fill="#E23C25"/>
<path d="M11.9997 19.7142L11.9997 15.8571L8.57115 17.7856L11.9997 19.7142Z" fill="#EE8622"/>
<path d="M18.8569 11.9999V8.14279L15.4283 10.0714L18.8569 11.9999Z" fill="#FAC211"/>
<path d="M11.9997 8.14279V4.28564L8.57115 6.21422L11.9997 8.14279Z" fill="#EE8622"/>
<path d="M8.57115 10.0714V6.21422L11.9997 8.14279L8.57115 10.0714Z" fill="#E23C25"/>
<path d="M8.57115 13.9285V10.0714L11.9997 11.9999L8.57115 13.9285ZM11.9997 19.7142L11.9997 15.8571L15.4283 17.7856L11.9997 19.7142Z" fill="#FAC211"/>
<path d="M5.14258 11.9999V8.14279L8.57115 10.0714L5.14258 11.9999ZM5.14258 15.8571V11.9999L8.57115 13.9285L5.14258 15.8571Z" fill="#E23C25"/>
<path d="M11.9997 8.14279V4.28564L15.4283 6.21422L11.9997 8.14279Z" fill="#FAC211"/>
<path d="M15.4283 10.0714V6.21422L18.8569 8.14279L15.4283 10.0714ZM15.4283 13.9285V10.0714L18.8569 11.9999L15.4283 13.9285Z" fill="#EE8622"/>
<path d="M15.4283 17.7856V13.9285L18.8569 15.8571L15.4283 17.7856Z" fill="#A62222"/>
</svg>
