<svg width="24" height="24" viewBox="0 0 24 24" fill="none" xmlns="http://www.w3.org/2000/svg">
<path d="M5.80328 6.85693H4.28613L6.1247 11.7469L4.28613 16.7141H5.80328L7.6247 11.7469L5.80328 6.85693ZM18.1976 6.85693H19.7147L17.8761 11.7469L19.7147 16.7141H18.1976L16.3718 11.7469L18.1976 6.85693ZM14.9018 10.7141H13.5947C13.5947 10.2855 12.9604 9.85693 12.1247 9.85693C11.289 9.85693 10.5176 10.0369 10.5176 10.9841C10.5176 11.9269 11.4047 11.7726 13.3033 12.2055C14.8204 12.5526 15.0004 13.5984 15.0004 14.2326C15.0004 15.1326 14.619 16.2855 12.1247 16.2855C9.47613 16.2855 8.94042 14.7769 9.0047 14.1426H10.4361C10.4361 14.9012 11.2204 15.4284 12.1247 15.4284C13.0247 15.4284 13.7618 14.9998 13.7618 14.2284C13.7618 13.4612 13.1447 13.2812 11.0961 12.9512C9.45899 12.6898 9.18042 11.5284 9.2447 10.9841C9.18042 10.3198 9.64756 8.99979 12.0261 8.99979C14.4047 8.99979 14.9361 10.1141 14.9018 10.7141Z" fill="#B9B9FF"/>
</svg>
