<svg width="24" height="24" viewBox="0 0 24 24" fill="none" xmlns="http://www.w3.org/2000/svg">
<path d="M20.1431 8.14307H14.5717V9.85735H20.1431V8.14307ZM11.1431 9.85735H9.42885V11.5716H11.1431V9.85735ZM9.42885 18.4288H11.1431V13.2859H9.42885V18.4288ZM12.8574 9.85735V11.5716H14.5717V9.85735H12.8574ZM12.8574 18.4288H14.5717V13.2859H12.8574V18.4288ZM12.8574 8.14307H11.1431V9.85735H12.8574V8.14307ZM3.85742 8.14307V9.85735H9.42885V8.14307H3.85742ZM20.1431 13.2859V11.5716H14.5717V13.2859H20.1431ZM11.1431 11.5716V13.2859H12.8574V11.5716H11.1431ZM3.85742 11.5716V13.2859H9.42885V11.5716H3.85742Z" fill="#7D00FE"/>
</svg>
