<svg width="24" height="24" viewBox="0 0 24 24" fill="none" xmlns="http://www.w3.org/2000/svg">
<path d="M19.2861 11.9999C19.2861 13.9322 18.5185 15.7854 17.1522 17.1517C15.7859 18.518 13.9327 19.2856 12.0004 19.2856C10.0681 19.2856 8.21498 18.518 6.84864 17.1517C5.4823 15.7854 4.7147 13.9322 4.7147 11.9999C4.7147 10.0676 5.4823 8.21449 6.84864 6.84815C8.21498 5.48182 10.0681 4.71422 12.0004 4.71422C13.9327 4.71422 15.7859 5.48182 17.1522 6.84815C18.5185 8.21449 19.2861 10.0676 19.2861 11.9999Z" fill="#FFD643"/>
<path d="M10.1318 13.7142H9.85756V14.3785L10.7918 14.9999H13.2176L14.1433 14.3785V13.7142H13.8518L13.4447 14.3785H12.429V14.1428H11.5718V14.3785H10.5304L10.1318 13.7142Z" fill="#A31B3F"/>
<path d="M11.1433 15.1799V14.5714H12.8576V15.1799H12.429V15.4285H11.5718V15.1799H11.1433Z" fill="#FF9B37"/>
<path d="M10.2861 15.8571H9.85756V16.2256L10.5433 16.7142H13.7618C13.7618 16.7142 15.5918 15.1542 16.449 14.4428V12.8056L15.5576 11.3785V10.5085L16.0718 9.90422V7.71422H15.2018L13.7147 9.59136H13.2433V9.75422L13.7147 10.0499L15.3261 8.03993H15.849V9.75422L14.9704 10.5085L14.7947 11.1814L15.6561 12.9556V14.4471L13.5176 16.2856H10.2861V15.8571Z" fill="#A31B3F"/>
<path d="M7.91185 14.2028L9.83185 16.2856L10.1661 16.1356L8.28042 14.3614L8.15185 13.7528L8.52899 12.6642L10.5347 11.8414L15.6347 8.0485V7.71422H15.0861L13.6847 9.4285H13.0676V9.43707H10.9933V9.4285H10.5347L8.8847 7.71422H8.52899L8.15613 8.0485V9.85707L9.03042 11.0142L7.91185 12.7799V14.2028Z" fill="#FFFF74"/>
<path d="M8.14328 12.9128V14.1428H8.57185V13.3414L8.9147 12.6385H9.85756V13.1271L10.1147 13.4485H10.6976L11.259 12.6385H12.969L13.5818 13.4485H14.1433L14.5676 13.1271V12.6428H15.2533L15.8533 13.3456V14.1428H16.2818V12.9128L15.3518 11.7256V11.4171H15.0518V10.8856H15.429V10.4571L15.8576 9.79707V7.97136H15.3561L13.6847 9.4285C13.5004 9.32564 12.9176 9.1285 12.0861 9.1285C11.259 9.1285 10.6718 9.32564 10.4876 9.4285L8.91899 7.97136H8.34042V9.79707L9.00042 10.4614V10.8899H9.2147V11.4171H8.9147V11.7256L8.14328 12.9128Z" fill="#FF9B37"/>
<path d="M10.7147 10.7142H11.1433V10.2856H10.7147V10.7142ZM12.8576 10.2856V10.7142H13.2861V10.2856H12.8576ZM15.0218 8.39136L14.3404 9.0685V9.85707H14.7476V10.2856H15.0218L15.5876 9.62993V8.38707H15.0218V8.39136ZM9.14185 8.41707L9.85756 9.0985V9.85707H9.42899V10.2856H9.13756L8.57185 9.65993V8.41707H9.14185Z" fill="#FFD643"/>
<path d="M10.8004 11.1428H10.2861V11.9999H10.7147V12.4285H11.1433V11.5371L10.8004 11.1428ZM13.2004 11.1428H13.7147V11.9999H13.2861V12.4285H12.8576V11.5371L13.2004 11.1428Z" fill="#A31B3F"/>
<path fill-rule="evenodd" clip-rule="evenodd" d="M18.429 11.9999C18.429 13.7049 17.7517 15.34 16.5461 16.5456C15.3405 17.7512 13.7054 18.4285 12.0004 18.4285C10.2955 18.4285 8.66032 17.7512 7.45473 16.5456C6.24914 15.34 5.57185 13.7049 5.57185 11.9999C5.57185 10.295 6.24914 8.65984 7.45473 7.45424C8.66032 6.24865 10.2955 5.57136 12.0004 5.57136C13.7054 5.57136 15.3405 6.24865 16.5461 7.45424C17.7517 8.65984 18.429 10.295 18.429 11.9999ZM18.0004 11.9999C18.0004 13.5912 17.3683 15.1174 16.2431 16.2426C15.1178 17.3678 13.5917 17.9999 12.0004 17.9999C10.4091 17.9999 8.883 17.3678 7.75778 16.2426C6.63256 15.1174 6.00042 13.5912 6.00042 11.9999C6.00042 10.4086 6.63256 8.88251 7.75778 7.75729C8.883 6.63207 10.4091 5.99993 12.0004 5.99993C13.5917 5.99993 15.1178 6.63207 16.2431 7.75729C17.3683 8.88251 18.0004 10.4086 18.0004 11.9999Z" fill="#FF9B37"/>
<path fill-rule="evenodd" clip-rule="evenodd" d="M12.0004 19.4999C13.9895 19.4999 15.8972 18.7098 17.3037 17.3032C18.7102 15.8967 19.5004 13.9891 19.5004 11.9999C19.5004 10.0108 18.7102 8.10315 17.3037 6.69663C15.8972 5.29011 13.9895 4.49993 12.0004 4.49993C10.0113 4.49993 8.10364 5.29011 6.69712 6.69663C5.29059 8.10315 4.50042 10.0108 4.50042 11.9999C4.50042 13.9891 5.29059 15.8967 6.69712 17.3032C8.10364 18.7098 10.0113 19.4999 12.0004 19.4999ZM19.5004 11.9999C19.5004 13.9891 18.7102 15.8967 17.3037 17.3032C15.8972 18.7098 13.9895 19.4999 12.0004 19.4999C10.0113 19.4999 8.10364 18.7098 6.69712 17.3032C5.29059 15.8967 4.50042 13.9891 4.50042 11.9999C4.50042 10.0108 5.29059 8.10315 6.69712 6.69663C8.10364 5.29011 10.0113 4.49993 12.0004 4.49993C13.9895 4.49993 15.8972 5.29011 17.3037 6.69663C18.7102 8.10315 19.5004 10.0108 19.5004 11.9999ZM19.7147 11.9999C19.7147 13.013 19.5152 14.0161 19.1275 14.9521C18.7398 15.888 18.1716 16.7384 17.4552 17.4548C16.7389 18.1711 15.8885 18.7393 14.9525 19.127C14.0166 19.5147 13.0135 19.7142 12.0004 19.7142C10.9874 19.7142 9.98423 19.5147 9.04829 19.127C8.11235 18.7393 7.26193 18.1711 6.54559 17.4548C5.82926 16.7384 5.26103 15.888 4.87335 14.9521C4.48567 14.0161 4.28613 13.013 4.28613 11.9999C4.28613 9.95397 5.09889 7.99182 6.54559 6.54511C7.9923 5.0984 9.95446 4.28564 12.0004 4.28564C14.0464 4.28564 16.0085 5.0984 17.4552 6.54511C18.902 7.99182 19.7147 9.95397 19.7147 11.9999ZM19.2861 11.9999C19.2861 13.9322 18.5185 15.7854 17.1522 17.1517C15.7859 18.518 13.9327 19.2856 12.0004 19.2856C10.0681 19.2856 8.21498 18.518 6.84864 17.1517C5.4823 15.7854 4.7147 13.9322 4.7147 11.9999C4.7147 10.0676 5.4823 8.21449 6.84864 6.84815C8.21498 5.48182 10.0681 4.71422 12.0004 4.71422C13.9327 4.71422 15.7859 5.48182 17.1522 6.84815C18.5185 8.21449 19.2861 10.0676 19.2861 11.9999Z" fill="url(#paint0_linear_59_74312)"/>
<path d="M11.1433 12.6342V13.0799L11.4004 13.2856H12.6004L12.8576 13.0799V12.6342L12.6004 12.4285H11.4004L11.1433 12.6342Z" fill="#A31B3F"/>
<defs>
<linearGradient id="paint0_linear_59_74312" x1="4.92042" y1="14.9528" x2="18.9218" y2="16.5042" gradientUnits="userSpaceOnUse">
<stop offset="0.47" stop-color="#FFFF74"/>
<stop offset="0.48" stop-color="#A31B3F"/>
</linearGradient>
</defs>
</svg>
