<svg width="24" height="24" viewBox="0 0 24 24" fill="none" xmlns="http://www.w3.org/2000/svg">
<path fill-rule="evenodd" clip-rule="evenodd" d="M18.0003 12C18.0003 15.3137 15.314 18 12.0003 18C11.1608 18.0009 10.3305 17.8253 9.56333 17.4844C8.79618 17.1435 8.10933 16.645 7.54741 16.0213C7.12741 16.1126 6.74041 16.1876 6.39583 16.2467C5.60683 16.3333 3.99583 16.2394 3.86469 15.1731C3.74555 14.2024 5.11783 12.9489 6.00755 12.3009C6.00264 12.2006 6.00021 12.1003 6.00026 12C6.00026 8.68629 8.68655 6 12.0003 6C13.6854 6 15.2081 6.69429 16.298 7.81286C20.4997 7.13914 20.4324 8.84357 19.8701 9.78429C19.3828 10.4709 18.7391 11.1021 17.9917 11.679C17.9973 11.7853 18.0003 11.8924 18.0003 12ZM12.0003 16.2857C11.0917 16.2857 10.2495 16.0029 9.55655 15.5211C10.6542 15.216 11.7367 14.8588 12.8004 14.4506L12.0204 12.9836L11.735 13.1139C10.7947 13.5536 8.24126 14.484 5.54641 14.6884C5.97198 14.2963 6.94998 13.4554 7.79469 12.9956L7.82898 12.9879C7.75274 12.6641 7.71434 12.3326 7.71455 12C7.71455 9.633 9.63326 7.71429 12.0003 7.71429C14.0008 7.71429 15.6817 9.08529 16.1535 10.9389C15.6415 11.2605 15.1132 11.5556 14.5708 11.823L14.1238 12.0266L14.5524 13.7087C15.113 13.4495 15.6624 13.1669 16.1994 12.8619C15.8004 14.8157 14.072 16.2857 12.0003 16.2857ZM17.6223 9.89914C17.5421 9.68487 17.4496 9.47538 17.3454 9.27171C17.7024 9.23314 18.1854 9.18471 18.4314 9.17314C18.2775 9.33771 18.0037 9.59314 17.6223 9.89914Z" fill="url(#paint0_linear_59_74533)"/>
<path fill-rule="evenodd" clip-rule="evenodd" d="M13.286 15C13.7406 15 14.1767 14.8194 14.4982 14.4979C14.8197 14.1764 15.0003 13.7404 15.0003 13.2857C15.0003 12.8311 14.8197 12.395 14.4982 12.0735C14.1767 11.752 13.7406 11.5714 13.286 11.5714C12.8313 11.5714 12.3953 11.752 12.0738 12.0735C11.7523 12.395 11.5717 12.8311 11.5717 13.2857C11.5717 13.7404 11.7523 14.1764 12.0738 14.4979C12.3953 14.8194 12.8313 15 13.286 15ZM13.286 14.1429C13.5133 14.1429 13.7313 14.0526 13.8921 13.8918C14.0528 13.7311 14.1431 13.513 14.1431 13.2857C14.1431 13.0584 14.0528 12.8404 13.8921 12.6796C13.7313 12.5189 13.5133 12.4286 13.286 12.4286C13.0586 12.4286 12.8406 12.5189 12.6799 12.6796C12.5191 12.8404 12.4288 13.0584 12.4288 13.2857C12.4288 13.513 12.5191 13.7311 12.6799 13.8918C12.8406 14.0526 13.0586 14.1429 13.286 14.1429Z" fill="url(#paint1_linear_59_74533)"/>
<defs>
<linearGradient id="paint0_linear_59_74533" x1="4.37341" y1="15.609" x2="20.2305" y2="8.63486" gradientUnits="userSpaceOnUse">
<stop stop-color="#04D9FF"/>
<stop offset="0.782" stop-color="#445CFE"/>
<stop offset="1" stop-color="#7269EF"/>
</linearGradient>
<linearGradient id="paint1_linear_59_74533" x1="11.2987" y1="14.3827" x2="15.1944" y2="12.6114" gradientUnits="userSpaceOnUse">
<stop stop-color="#05D5FF"/>
<stop offset="1" stop-color="#3A5EF4"/>
</linearGradient>
</defs>
</svg>
