<svg width="24" height="24" viewBox="0 0 24 24" fill="none" xmlns="http://www.w3.org/2000/svg">
<path fill-rule="evenodd" clip-rule="evenodd" d="M16.279 16.279C15.1441 17.4138 13.6049 18.0514 12 18.0514C10.395 18.0514 8.85583 17.4138 7.72097 16.279C6.58611 15.1441 5.94855 13.6049 5.94855 12C5.94855 10.395 6.58611 8.85583 7.72097 7.72097C8.85583 6.58611 10.395 5.94855 12 5.94855C13.6049 5.94855 15.1441 6.58611 16.279 7.72097C17.4138 8.85583 18.0514 10.395 18.0514 12C18.0514 13.6049 17.4138 15.1441 16.279 16.279ZM13.6971 13.4829C14.4771 13.3157 15.2399 13.2257 15.9856 13.2C16.3247 13.1927 16.6612 13.26 16.9714 13.3971C17.0571 13.4314 17.0571 13.4743 16.9842 13.5214C16.2357 14.0084 15.4029 14.3514 14.5285 14.5329C14.0999 14.6186 14.0742 14.7643 14.4728 14.97C14.8628 15.1714 15.2142 15.4114 15.5185 15.6943C15.5914 15.7629 15.5785 15.8014 15.4756 15.8143C14.3356 15.9557 13.3842 15.5957 12.4156 15.0343C12.3342 14.9914 12.2871 15.0086 12.2699 15.0986C12.1756 15.5443 11.9271 16.5643 11.4942 16.77C11.4846 16.7751 11.4736 16.777 11.4628 16.7755C11.452 16.774 11.442 16.769 11.4342 16.7614C11.4276 16.7537 11.4239 16.7438 11.4239 16.7336C11.4239 16.7234 11.4276 16.7135 11.4342 16.7057C11.7712 16.2305 11.9821 15.6775 12.0471 15.0986C12.0494 15.0804 12.0466 15.062 12.039 15.0454C12.0315 15.0287 12.0194 15.0145 12.0042 15.0043C11.9893 14.9939 11.972 14.9877 11.9539 14.9862C11.9359 14.9847 11.9177 14.988 11.9014 14.9957C10.8514 15.5271 9.88707 15.9643 8.66135 15.8229C8.64484 15.8206 8.62929 15.8138 8.61643 15.8032C8.60356 15.7926 8.5939 15.7786 8.5885 15.7629C8.58395 15.748 8.58354 15.7321 8.58732 15.717C8.59109 15.7019 8.59891 15.6881 8.60992 15.6771C8.89888 15.4102 9.22696 15.1891 9.58278 15.0214C10.0542 14.7986 10.0371 14.6357 9.52278 14.5371C8.61606 14.3693 7.75464 14.013 6.99421 13.4914C6.98492 13.4859 6.97697 13.4785 6.97092 13.4695C6.96488 13.4606 6.96089 13.4504 6.95925 13.4398C6.95761 13.4291 6.95836 13.4182 6.96144 13.4079C6.96452 13.3976 6.96986 13.388 6.97707 13.38C6.98756 13.3693 7.00097 13.3618 7.01564 13.3586C8.06135 13.0457 9.26993 13.2729 10.3371 13.4914C10.4828 13.5214 10.4999 13.4914 10.3842 13.3929C9.35044 12.5142 8.53846 11.4042 8.01421 10.1529C7.82135 9.68143 7.94135 9.57429 8.3785 9.83572C9.4544 10.4699 10.4033 11.2982 11.1771 12.2786C11.2756 12.4071 11.3056 12.3943 11.2628 12.2357C11.1315 11.8015 11.0906 11.3449 11.1428 10.8943C11.179 10.669 11.2122 10.4471 11.245 10.2273C11.3872 9.27645 11.5232 8.36653 11.8714 7.40572C11.8966 7.33227 11.9487 7.27106 12.0171 7.23429C12.0296 7.22787 12.0434 7.22411 12.0575 7.22325C12.0716 7.22238 12.0857 7.22442 12.099 7.22925C12.1122 7.23407 12.1244 7.24157 12.1346 7.25129C12.1448 7.261 12.153 7.27272 12.1585 7.28572C12.4456 7.97143 12.6642 8.67429 12.8142 9.41143C12.9395 10.0169 12.9319 10.6514 12.9244 11.2817C12.9211 11.5571 12.9178 11.8318 12.9256 12.1029C12.9299 12.2186 12.9685 12.2314 13.0414 12.1457C13.8825 11.1287 14.913 10.2846 16.0756 9.66001C16.2899 9.54858 16.3542 9.60429 16.2642 9.83143C15.8433 10.8815 15.2493 11.8535 14.5071 12.7071C14.2832 12.9784 14.0116 13.2065 13.7056 13.38C13.694 13.3866 13.684 13.3959 13.6766 13.407C13.6691 13.4182 13.6644 13.431 13.6628 13.4443C13.661 13.4513 13.661 13.4587 13.6628 13.4657C13.6714 13.4829 13.6842 13.4871 13.6971 13.4829Z" fill="#62850B"/>
<path fill-rule="evenodd" clip-rule="evenodd" d="M16.9911 16.9911C15.6674 18.3149 13.872 19.0585 12 19.0585C10.1279 19.0585 8.33255 18.3149 7.00881 16.9911C5.68507 15.6674 4.94141 13.872 4.94141 12C4.94141 10.1279 5.68507 8.33255 7.00881 7.00881C8.33255 5.68507 10.1279 4.94141 12 4.94141C13.872 4.94141 15.6674 5.68507 16.9911 7.00881C18.3149 8.33255 19.0585 10.1279 19.0585 12C19.0585 13.872 18.3149 15.6674 16.9911 16.9911ZM16.6032 16.6032C15.3824 17.8241 13.7265 18.51 12 18.51C10.2734 18.51 8.61757 17.8241 7.39671 16.6032C6.17585 15.3824 5.48998 13.7265 5.48998 12C5.48998 10.2734 6.17585 8.61757 7.39671 7.39671C8.61757 6.17585 10.2734 5.48998 12 5.48998C13.7265 5.48998 15.3824 6.17585 16.6032 7.39671C17.8241 8.61757 18.51 10.2734 18.51 12C18.51 13.7265 17.8241 15.3824 16.6032 16.6032Z" fill="#62850B"/>
</svg>
