<svg width="24" height="24" viewBox="0 0 24 24" fill="none" xmlns="http://www.w3.org/2000/svg">
<path d="M12.0004 18.8056C13.8054 18.8056 15.5365 18.0886 16.8128 16.8123C18.0891 15.536 18.8061 13.8049 18.8061 11.9999C18.8061 10.1949 18.0891 8.46388 16.8128 7.18756C15.5365 5.91124 13.8054 5.19422 12.0004 5.19422C10.1954 5.19422 8.46437 5.91124 7.18805 7.18756C5.91173 8.46388 5.1947 10.1949 5.1947 11.9999C5.1947 13.8049 5.91173 15.536 7.18805 16.8123C8.46437 18.0886 10.1954 18.8056 12.0004 18.8056ZM12.0004 19.7142C13.0135 19.7142 14.0166 19.5147 14.9525 19.127C15.8885 18.7393 16.7389 18.1711 17.4552 17.4548C18.1716 16.7384 18.7398 15.888 19.1275 14.9521C19.5152 14.0161 19.7147 13.013 19.7147 11.9999C19.7147 10.9869 19.5152 9.98374 19.1275 9.0478C18.7398 8.11186 18.1716 7.26144 17.4552 6.54511C16.7389 5.82877 15.8885 5.26054 14.9525 4.87286C14.0166 4.48518 13.0135 4.28564 12.0004 4.28564C9.95446 4.28564 7.9923 5.0984 6.5456 6.54511C5.09889 7.99182 4.28613 9.95397 4.28613 11.9999C4.28613 14.0459 5.09889 16.008 6.5456 17.4548C7.9923 18.9015 9.95446 19.7142 12.0004 19.7142Z" fill="url(#paint0_linear_59_74787)"/>
<path d="M12.0004 18.8056C15.7591 18.8056 18.8061 15.7586 18.8061 11.9999C18.8061 8.24124 15.7591 5.19422 12.0004 5.19422C8.24173 5.19422 5.1947 8.24124 5.1947 11.9999C5.1947 15.7586 8.24173 18.8056 12.0004 18.8056Z" fill="url(#paint1_linear_59_74787)"/>
<path d="M10.6376 6.55707C11.019 7.00707 11.8633 7.91564 12.2233 7.91564C12.1504 7.5385 12.0476 6.68993 12.2233 6.32993C12.4547 6.77993 13.0461 7.73564 13.5904 7.91564L14.0104 7.49136C14.019 7.47422 14.0276 7.46136 14.0404 7.46136L14.0104 7.49136C13.9761 7.58993 14.0447 7.91993 14.4947 8.36993C15.1804 9.05136 15.1804 8.82422 15.4033 9.2785C15.6304 9.73279 15.6304 10.1828 15.8576 10.1828C16.0847 10.1828 16.7661 10.4099 16.7661 10.4099C16.7661 10.4099 16.9933 10.4099 16.9933 11.0956C16.9933 11.3185 16.6504 11.3185 16.7661 11.5456C16.9933 11.9999 17.2204 11.5456 17.2204 11.9999C17.2204 12.4542 17.2204 12.9085 16.7661 12.9085C16.3118 12.9085 16.7661 12.4542 16.539 12.2228C16.3118 11.9999 16.0847 11.9999 15.8576 11.7771C15.6304 11.5542 15.8576 12.0042 15.6304 12.2314C15.4033 12.4585 15.1761 12.2314 14.949 12.4585C14.7218 12.6856 14.2676 12.9128 14.2676 12.6856C14.2676 12.4585 13.8176 12.4585 14.0404 12.2314C14.2676 12.0042 14.2676 11.5499 13.8176 11.5499C13.4533 11.5499 12.2276 11.5499 11.7733 11.7771L12.4547 11.0956C11.7733 11.2499 10.1833 11.9571 10.1833 13.5942C10.1833 15.4199 12.2276 16.5428 14.0404 15.4071L13.8176 15.8571C14.1176 15.7071 14.9061 15.1756 15.6304 14.2714C15.7076 14.5714 15.6304 15.4028 15.1761 16.0842C14.5461 17.0271 13.5904 17.8971 12.0004 17.8971C10.4147 17.8971 9.27899 17.2199 8.59756 16.5385C8.05328 15.9942 7.61185 14.7214 7.46185 14.0399L7.2347 14.7256C7.0847 14.3442 6.82756 13.3628 7.00756 12.4542C7.19185 11.5456 7.74042 10.3756 8.37042 9.95993L7.00756 10.8642C7.53899 10.2642 8.8247 8.96136 9.73328 8.59279L11.0918 8.14279L10.6376 6.55707Z" fill="#484848" fill-opacity="0.5"/>
<path fill-rule="evenodd" clip-rule="evenodd" d="M11.5461 9.95993C11.2534 9.84839 10.9484 9.77214 10.6376 9.73279C10.9218 9.59594 11.231 9.51865 11.5461 9.50564C11.9104 9.50564 12.1504 9.65564 12.2276 9.73279C12.2276 9.50564 11.9533 9.00422 10.8647 8.82422C10.495 8.77992 10.1469 8.62669 9.86453 8.38401C9.58217 8.14133 9.37835 7.82017 9.27899 7.46136C9.82328 8.18993 10.8647 8.36993 11.319 8.36993C10.4104 7.64136 10.4876 6.85707 10.6376 6.55279C10.7767 6.95253 11.0174 7.30926 11.336 7.58799C11.6545 7.86673 12.04 8.0579 12.4547 8.14279C12.0904 7.5985 12.1547 6.70707 12.2276 6.32564C12.5918 7.5985 13.4361 8.21993 13.8133 8.36993C13.6333 8.00565 13.8904 7.61136 14.0404 7.46136C14.0404 8.14279 14.2676 8.59707 14.7261 8.82422C15.0004 8.96136 15.1118 9.27422 15.2018 9.54422C15.2618 9.71565 15.3176 9.86993 15.4033 9.95993C15.4804 10.0371 15.5318 10.0885 15.5918 10.1185C15.7118 10.1828 15.8618 10.1828 16.3118 10.1828C16.9933 10.1828 16.9933 10.4099 16.9933 10.6371C16.9933 10.8214 16.6933 10.8642 16.539 10.8642C16.539 11.0485 16.389 11.0914 16.3118 11.0914C16.4918 10.9114 16.389 10.8642 16.3118 10.8642H16.0847C16.3118 10.6371 15.8576 10.6371 15.4033 10.6371C15.1376 10.6371 15.0261 10.4828 14.9361 10.3542C14.8718 10.2642 14.8161 10.1828 14.7218 10.1828H14.2718C14.0918 10.1828 13.8947 10.0328 13.8218 9.95993C13.7447 10.1099 13.7276 10.5042 14.2718 10.8642C14.7004 11.1514 14.679 11.2542 14.6618 11.3528C14.6533 11.4085 14.6447 11.4599 14.7261 11.5456C14.9104 11.7256 15.1076 11.6228 15.1804 11.5456V11.7728C15.3647 11.7728 15.4076 11.6228 15.4076 11.5456C15.5876 12.0899 15.1804 12.2271 14.9533 12.2271C14.9533 12.4071 14.499 12.4542 14.2718 12.4542C14.4561 12.4542 14.499 12.1542 14.499 11.9999C14.349 11.7728 13.9118 11.3185 13.3676 11.3185C12.8233 11.3185 12.3818 11.4685 12.2318 11.5456C12.7761 10.8171 13.5176 10.9414 13.8176 11.0914C13.6676 10.9414 13.2733 10.6371 12.9133 10.6371C12.6733 10.6371 12.4976 10.5085 12.2833 10.3585C12.0947 10.2214 11.8718 10.0671 11.5547 9.95993H11.5461ZM9.73328 8.59707C9.16077 8.64892 8.61688 8.87091 8.1716 9.23446C7.72632 9.59802 7.40002 10.0865 7.2347 10.6371C7.77899 9.73279 8.9747 9.50564 9.50613 9.50564C8.62737 9.90466 7.91767 10.6011 7.50213 11.4721C7.08659 12.3432 6.99188 13.333 7.2347 14.2671C7.2347 13.3628 7.68899 12.6814 7.92042 12.4542C7.00756 14.6314 8.44756 16.3885 9.27899 16.9928C8.9147 16.6285 8.6747 15.7799 8.59328 15.4071C8.8247 16.0842 9.82328 17.4471 12.0004 17.4471C14.1776 17.4471 15.1761 15.6299 15.4033 14.7214C14.7218 15.6299 13.8176 16.7656 11.7733 16.7656C9.73328 16.7656 8.37042 14.9485 8.37042 12.9085C8.37042 11.2756 9.88328 10.2599 10.6418 9.95993C10.4576 9.95993 10.2604 9.65564 10.1876 9.50564C10.5476 9.68564 11.3961 9.4285 11.7733 9.2785C11.319 9.05136 11.0918 9.05136 10.6376 9.05136C10.2776 9.05136 9.88328 8.75136 9.73328 8.59707ZM9.04756 13.3628C9.03375 14.0066 9.19562 14.6421 9.51578 15.2008C9.83593 15.7596 10.3023 16.2206 10.8647 16.5342C10.1833 16.3885 8.77756 15.5399 8.59328 13.3628C8.41756 11.1814 10.3376 10.1828 11.319 9.95993C11.5461 10.1099 12.0904 10.4571 12.4547 10.6371C12.7385 10.7751 13.0479 10.8524 13.3633 10.8642H12.6776C12.4663 10.7509 12.2373 10.6741 12.0004 10.6371C11.7733 10.6371 9.07756 11.0914 9.05185 13.3628H9.04756ZM11.0918 11.0914C10.3376 11.7771 9.18899 13.5428 10.6376 15.1756C10.9376 15.6299 12.0004 16.3542 13.8176 15.6299C13.1318 16.2342 11.3104 17.0699 9.96042 15.1756C8.8247 13.5899 10.1104 11.6956 11.0918 11.0914ZM14.7218 10.6371C14.949 11.0914 15.2233 11.0914 15.4076 11.0914C15.4504 11.0914 15.4933 11.0828 15.5361 11.0742C15.7247 11.0399 15.9433 10.9971 16.3076 11.5456C16.389 11.6228 16.5818 11.7728 16.7661 11.7728H16.539C16.7661 11.8499 17.1261 12.1371 16.7661 12.6814C16.839 12.5314 16.9033 12.1799 16.539 11.9999C16.3504 11.9056 16.2818 11.7771 16.2133 11.6528C16.119 11.4771 16.0333 11.3185 15.6304 11.3185C15.7076 11.3185 15.8576 11.3614 15.8576 11.5456C15.7804 11.4685 15.5833 11.3185 15.4033 11.3185C15.1761 11.3185 14.7218 11.0914 14.7218 10.6371ZM14.8376 9.58707C14.8376 9.67279 14.8376 9.73279 14.949 9.73279H14.8633C14.6576 9.74564 14.4304 9.75422 14.2676 9.2785C14.3447 9.20136 14.5418 9.09422 14.7218 9.2785C14.8376 9.38993 14.8376 9.50565 14.8376 9.58707Z" fill="url(#paint2_linear_59_74787)"/>
<path d="M14.2718 13.5856C14.2718 13.9471 14.1283 14.2937 13.8727 14.5493C13.6171 14.8049 13.2704 14.9485 12.909 14.9485C12.5475 14.9485 12.2009 14.8049 11.9453 14.5493C11.6897 14.2937 11.5461 13.9471 11.5461 13.5856C11.5657 13.238 11.7175 12.9109 11.9706 12.6717C12.2236 12.4325 12.5586 12.2992 12.9068 12.2992C13.2551 12.2992 13.5901 12.4325 13.8431 12.6717C14.0962 12.9109 14.248 13.238 14.2676 13.5856H14.2718Z" fill="#95885D" fill-opacity="0.5"/>
<path d="M13.8176 13.3628C13.8176 13.7242 13.674 14.0709 13.4184 14.3265C13.1628 14.5821 12.8162 14.7256 12.4547 14.7256C12.0933 14.7256 11.7466 14.5821 11.491 14.3265C11.2354 14.0709 11.0918 13.7242 11.0918 13.3628C11.0918 13.0013 11.2354 12.6547 11.491 12.3991C11.7466 12.1435 12.0933 11.9999 12.4547 11.9999C12.8162 11.9999 13.1628 12.1435 13.4184 12.3991C13.674 12.6547 13.8176 13.0013 13.8176 13.3628Z" fill="url(#paint3_linear_59_74787)"/>
<path d="M12.5918 12.5914V12.2271H12.7718V12.5914H13.3633V12.7714H12.7718V13.3628C12.7718 13.4656 12.7933 13.6199 12.8576 13.7485C12.9133 13.8728 13.0033 13.9499 13.1361 13.9499V14.1342C12.9047 14.1342 12.7676 13.9842 12.6904 13.8256C12.6133 13.6671 12.5918 13.4828 12.5918 13.3628V12.7714H12.0004V12.5914H12.5918ZM11.5461 13.0456H12.3176V13.1314C12.3176 13.2942 12.2833 13.5385 12.1718 13.7442C12.0561 13.9585 11.859 14.1299 11.5461 14.1299V13.9499C11.7776 13.9499 11.919 13.8256 12.0133 13.6585C12.0861 13.5214 12.1204 13.3585 12.1333 13.2256H11.7261V13.5899H11.5461V13.0456Z" fill="#F5E29F"/>
<defs>
<linearGradient id="paint0_linear_59_74787" x1="6.55328" y1="6.77993" x2="17.4476" y2="16.9928" gradientUnits="userSpaceOnUse">
<stop stop-color="#F3DF9A"/>
<stop offset="1" stop-color="#CCA34A"/>
</linearGradient>
<linearGradient id="paint1_linear_59_74787" x1="6.85594" y1="6.34052" x2="17.6598" y2="17.1444" gradientUnits="userSpaceOnUse">
<stop stop-color="#A78740"/>
<stop offset="0.14" stop-color="#D7B35D"/>
<stop offset="0.62" stop-color="#F0DB94"/>
<stop offset="1" stop-color="#D3AE57"/>
</linearGradient>
<linearGradient id="paint2_linear_59_74787" x1="14.4064" y1="5.8612" x2="7.59891" y2="18.8392" gradientUnits="userSpaceOnUse">
<stop stop-color="#DAB866"/>
<stop offset="0.23" stop-color="#E3C678"/>
<stop offset="0.4" stop-color="#D9B662"/>
<stop offset="0.64" stop-color="#F1DB95"/>
<stop offset="1" stop-color="#D2AA53"/>
</linearGradient>
<linearGradient id="paint3_linear_59_74787" x1="12.0004" y1="4.28564" x2="12.0004" y2="19.69" gradientUnits="userSpaceOnUse">
<stop stop-color="#CCA143"/>
<stop offset="1" stop-color="#E7CD80"/>
</linearGradient>
</defs>
</svg>
