<svg width="24" height="24" viewBox="0 0 24 24" fill="none" xmlns="http://www.w3.org/2000/svg">
<path d="M12.9986 19.3284C12.9256 19.4462 12.8237 19.5434 12.7026 19.6109C12.5815 19.6783 12.4451 19.7137 12.3065 19.7137C12.1679 19.7137 12.0315 19.6783 11.9104 19.6109C11.7893 19.5434 11.6874 19.4462 11.6144 19.3284L4.82149 8.01408C4.51292 7.49979 4.89864 6.85693 5.51578 6.85693H17.6829C18.9258 6.85693 19.6929 8.15551 19.0629 9.17979L17.5844 11.5926C17.0101 12.5312 16.0201 12.8569 14.8844 12.8569H10.2601C10.0715 12.8569 9.84864 13.0284 9.85721 13.2855C9.86578 13.5426 10.0715 13.7141 10.2601 13.7141H13.6158C13.8922 13.7149 14.1634 13.7891 14.4017 13.9292C14.64 14.0693 14.8367 14.2701 14.9719 14.5112C15.1071 14.7524 15.1757 15.025 15.1709 15.3014C15.166 15.5777 15.0879 15.8479 14.9444 16.0841L12.9986 19.3284Z" fill="url(#paint0_linear_59_75045)"/>
<defs>
<linearGradient id="paint0_linear_59_75045" x1="6.64292" y1="8.35693" x2="12.4201" y2="19.0755" gradientUnits="userSpaceOnUse">
<stop stop-color="#470180"/>
<stop offset="0.82" stop-color="#EF62C9"/>
<stop offset="1" stop-color="#FFCCF7"/>
</linearGradient>
</defs>
</svg>
