<svg width="24" height="24" viewBox="0 0 24 24" fill="none" xmlns="http://www.w3.org/2000/svg">
<path d="M7.73528 6.96005L11.4339 10.5772C11.4662 10.6091 11.492 10.6471 11.5095 10.6891C11.5271 10.731 11.5361 10.776 11.5361 10.8215C11.5361 10.8669 11.5271 10.912 11.5095 10.9539C11.492 10.9958 11.4662 11.0339 11.4339 11.0658L7.731 14.6915C7.66382 14.7567 7.57389 14.7931 7.48028 14.7931C7.38667 14.7931 7.29674 14.7567 7.22957 14.6915L3.53099 11.0701C3.4986 11.0382 3.47287 11.0001 3.45531 10.9582C3.43775 10.9162 3.42871 10.8712 3.42871 10.8258C3.42871 10.7803 3.43775 10.7353 3.45531 10.6934C3.47287 10.6514 3.4986 10.6134 3.53099 10.5815L7.23385 6.96005C7.30103 6.89486 7.39096 6.8584 7.48457 6.8584C7.57818 6.8584 7.6681 6.89486 7.73528 6.96005ZM12.2524 11.4515L15.951 15.0729C15.9834 15.1048 16.0091 15.1428 16.0267 15.1848C16.0442 15.2267 16.0533 15.2717 16.0533 15.3172C16.0533 15.3627 16.0442 15.4077 16.0267 15.4496C16.0091 15.4916 15.9834 15.5296 15.951 15.5615L12.2481 19.1829C12.181 19.2481 12.091 19.2846 11.9974 19.2846C11.9038 19.2846 11.8139 19.2481 11.7467 19.1829L8.04814 15.5658C8.01574 15.5339 7.99002 15.4958 7.97246 15.4539C7.9549 15.412 7.94585 15.3669 7.94585 15.3215C7.94585 15.276 7.9549 15.231 7.97246 15.1891C7.99002 15.1471 8.01574 15.1091 8.04814 15.0772L11.751 11.4515C11.8182 11.3863 11.9081 11.3498 12.0017 11.3498C12.0953 11.3498 12.1852 11.3863 12.2524 11.4515ZM16.7696 6.96005L20.4681 10.5772C20.5005 10.6091 20.5263 10.6471 20.5438 10.6891C20.5614 10.731 20.5704 10.776 20.5704 10.8215C20.5704 10.8669 20.5614 10.912 20.5438 10.9539C20.5263 10.9958 20.5005 11.0339 20.4681 11.0658L16.7653 14.6915C16.6981 14.7567 16.6082 14.7931 16.5146 14.7931C16.421 14.7931 16.331 14.7567 16.2639 14.6915L12.5653 11.0701C12.5329 11.0382 12.5072 11.0001 12.4896 10.9582C12.472 10.9162 12.463 10.8712 12.463 10.8258C12.463 10.7803 12.472 10.7353 12.4896 10.6934C12.5072 10.6514 12.5329 10.6134 12.5653 10.5815L16.2681 6.96005C16.3353 6.89486 16.4252 6.8584 16.5189 6.8584C16.6125 6.8584 16.7024 6.89486 16.7696 6.96005Z" fill="url(#paint0_linear_59_75048)"/>
<defs>
<linearGradient id="paint0_linear_59_75048" x1="19.2553" y1="8.47291" x2="9.42814" y2="17.6786" gradientUnits="userSpaceOnUse">
<stop stop-color="#5C84F9"/>
<stop offset="0.28" stop-color="#5D70F8"/>
<stop offset="0.57" stop-color="#5F5BF6"/>
<stop offset="1" stop-color="#6349F4"/>
</linearGradient>
</defs>
</svg>
