<svg width="24" height="24" viewBox="0 0 24 24" fill="none" xmlns="http://www.w3.org/2000/svg">
<path fill-rule="evenodd" clip-rule="evenodd" d="M16.4016 9.85707C16.4487 9.05136 16.9844 7.28564 18.7201 7.28564C19.123 7.28564 19.6116 7.4485 19.8044 7.53422L19.6501 8.72993C19.4143 8.61304 19.1548 8.55148 18.8916 8.54993C18.4544 8.54993 18.0601 8.75993 17.7987 9.85707H20.143L19.4573 14.5714H18.043L18.6001 10.7142H17.6444L17.1001 14.5714H15.6859L16.2687 10.7142H15.253L15.4244 9.85707H16.4016ZM4.17014 11.3399C4.36678 11.3399 4.55536 11.2618 4.69441 11.1228C4.83345 10.9837 4.91157 10.7951 4.91157 10.5985C4.91157 10.4019 4.83345 10.2133 4.69441 10.0742C4.55536 9.93519 4.36678 9.85707 4.17014 9.85707C3.9735 9.85707 3.78492 9.93519 3.64587 10.0742C3.50683 10.2133 3.42871 10.4019 3.42871 10.5985C3.42871 10.7951 3.50683 10.9837 3.64587 11.1228C3.78492 11.2618 3.9735 11.3399 4.17014 11.3399ZM3.74585 11.7428C3.99871 11.8114 4.59443 11.8585 4.98443 11.4856L5.20728 12.5099L6.72014 9.85707H7.59871L8.03585 12.5099L9.52728 9.85707H10.9973L8.22443 14.5714H7.25585L6.74157 12.1028L5.35728 14.5714H4.44443L3.74585 11.7428ZM11.9573 12.4285H15.1801C15.3216 11.5971 15.1073 9.85707 13.0973 9.85707C10.5859 9.85707 10.5001 12.0299 10.5001 12.4885C10.5001 12.9471 10.7316 14.5714 12.9001 14.5714C13.7187 14.5714 14.3916 14.3228 14.623 14.2028L14.8887 12.9942C14.593 13.1699 13.8301 13.5171 13.1444 13.5171C12.2873 13.5171 11.8844 13.1314 11.9573 12.4285ZM12.1587 11.5714H13.8001C13.843 11.2842 13.7701 10.7142 13.1359 10.7142C12.5059 10.7142 12.223 11.2842 12.1587 11.5714Z" fill="#36FEBC"/>
</svg>
