<svg width="24" height="24" viewBox="0 0 24 24" fill="none" xmlns="http://www.w3.org/2000/svg">
<path d="M17.434 5.10016C17.4962 5.19483 17.539 5.30087 17.5599 5.41217C17.5808 5.52347 17.5795 5.63781 17.556 5.7486C17.5325 5.85938 17.4873 5.96441 17.4229 6.05761C17.3586 6.15081 17.2764 6.23033 17.1811 6.29159L7.32401 12.7202C7.13305 12.8441 6.9007 12.887 6.67806 12.8396C6.45543 12.7922 6.26076 12.6583 6.13686 12.4673C6.01297 12.2763 5.97001 12.044 6.01743 11.8214C6.06485 11.5987 6.19876 11.4041 6.38972 11.2802L16.2469 4.85159C16.3414 4.7901 16.4471 4.74785 16.5579 4.72728C16.6688 4.70671 16.7826 4.70821 16.8929 4.7317C17.0032 4.75518 17.1077 4.8002 17.2006 4.86416C17.2934 4.92813 17.3728 5.00978 17.434 5.10445V5.10016ZM13.2854 17.7859C13.2854 18.07 13.1726 18.3426 12.9716 18.5435C12.7707 18.7444 12.4982 18.8573 12.214 18.8573C11.9298 18.8573 11.6573 18.7444 11.4564 18.5435C11.2555 18.3426 11.1426 18.07 11.1426 17.7859C11.1426 17.5017 11.2555 17.2292 11.4564 17.0283C11.6573 16.8273 11.9298 16.7144 12.214 16.7144C12.4982 16.7144 12.7707 16.8273 12.9716 17.0283C13.1726 17.2292 13.2854 17.5017 13.2854 17.7859ZM17.1854 10.363C17.3758 10.238 17.5087 10.0424 17.555 9.81941C17.6012 9.59638 17.5569 9.36412 17.4319 9.17373C17.3068 8.98335 17.1113 8.85042 16.8883 8.80421C16.6652 8.75799 16.433 8.80227 16.2426 8.9273L6.38543 15.3559C6.29116 15.4178 6.21001 15.4977 6.14661 15.5909C6.0832 15.6842 6.03879 15.789 6.01591 15.8995C5.99303 16.0099 5.99212 16.1238 6.01324 16.2346C6.03436 16.3453 6.0771 16.4509 6.139 16.5452C6.20091 16.6394 6.28078 16.7206 6.37406 16.784C6.46733 16.8474 6.57218 16.8918 6.68261 16.9147C6.79305 16.9376 6.90691 16.9385 7.01769 16.9174C7.12848 16.8962 7.23402 16.8535 7.32829 16.7916L17.1854 10.363Z" fill="url(#paint0_linear_59_75413)"/>
<defs>
<linearGradient id="paint0_linear_59_75413" x1="16.714" y1="8.78588" x2="5.99972" y2="15.643" gradientUnits="userSpaceOnUse">
<stop stop-color="#CD5792"/>
<stop offset="0.49" stop-color="#B041AD"/>
<stop offset="1" stop-color="#7F67CF"/>
</linearGradient>
</defs>
</svg>
