<svg width="24" height="24" viewBox="0 0 24 24" fill="none" xmlns="http://www.w3.org/2000/svg">
<path d="M9.51409 6.17286C7.70509 6.54572 5.8618 7.31286 5.1658 7.64929C4.99094 10.1779 5.84637 12.6297 6.29594 13.5396C7.70937 11.7636 10.2997 9.811 10.9614 9.358C11.4109 9.05029 11.2451 8.638 11.1242 8.41729C10.6768 7.59872 9.86466 6.58 9.51409 6.17286Z" fill="#F3A91D"/>
<path d="M18.4267 7.44314C15.5552 6.06614 12.2758 5.92472 10.9952 6.02586C12.1429 6.69743 12.8064 7.57386 13.1179 7.79886C13.3678 7.97886 13.7137 7.92743 13.8555 7.879C15.3765 7.24214 17.5369 7.32314 18.4267 7.44314Z" fill="#EF6622"/>
<path d="M18.8518 8.14514C18.9568 11.3024 17.4169 14.488 16.6335 15.6863C16.6335 15.466 15.3932 11.6367 14.9844 10.786C14.6574 10.105 14.7761 9.74329 14.9844 9.59757C16.6425 8.43572 18.2535 8.14514 18.8518 8.14514Z" fill="#79B6E2"/>
<path d="M11.9308 11.1083C9.90795 11.9037 7.5238 13.6039 6.5848 14.3547C7.95923 17.3384 10.7947 19.4569 12.0405 20.143C13.9314 18.9494 15.4485 17.2879 15.9705 16.6064C15.1738 14.5201 13.3048 11.7023 12.9199 11.2463C12.6122 10.8816 12.1704 11.0136 11.9308 11.1083Z" fill="#1FB4AC"/>
</svg>
