<svg width="24" height="24" viewBox="0 0 24 24" fill="none" xmlns="http://www.w3.org/2000/svg">
<path d="M13.5944 19.2782C12.5316 19.2782 11.7601 19.0309 11.2651 18.5286C10.7851 18.0263 10.5374 17.488 10.5374 16.9129C10.5374 16.6943 10.5884 16.5199 10.6681 16.3742C10.7517 16.231 10.8726 16.1127 11.0179 16.0322C11.1636 15.952 11.3453 15.9087 11.5561 15.9087C11.7674 15.9087 11.9564 15.952 12.1021 16.0322C12.256 16.1176 12.3822 16.2452 12.4661 16.3999C12.5499 16.5546 12.5878 16.7301 12.5753 16.9056C12.5753 17.1675 12.517 17.3715 12.3931 17.5386C12.2818 17.6871 12.1264 17.7966 11.9491 17.8515C12.0949 18.0555 12.3276 18.1939 12.6477 18.2813C12.9606 18.3683 13.2811 18.412 13.594 18.412C14.0177 18.4168 14.4332 18.2952 14.7876 18.0627C15.1519 17.83 15.4064 17.4807 15.5736 17.0295C15.7484 16.5709 15.8281 16.054 15.8281 15.4793C15.8281 14.8459 15.7411 14.3145 15.5517 13.8709C15.403 13.4569 15.1215 13.1037 14.7511 12.8663C14.401 12.6519 13.9973 12.5409 13.5867 12.5462C13.3249 12.5462 12.9824 12.6555 12.5753 12.8736L11.833 13.2379V12.8736L15.1801 8.5716H10.7144V13.0412C10.7144 14.0325 11.4756 14.7225 12.3567 14.0745C12.6056 13.8937 12.8222 13.6723 12.9974 13.4196C13.0165 13.3782 13.0466 13.3429 13.0844 13.3176C13.1147 13.2908 13.1533 13.2754 13.1937 13.2739C13.2593 13.2739 13.3321 13.3103 13.4123 13.3682C13.4903 13.4513 13.5344 13.5602 13.5357 13.6742C13.5255 13.7526 13.5109 13.8305 13.492 13.9073C13.3235 14.3 13.0456 14.6359 12.6914 14.875C11.8429 15.4395 10.3017 15.352 9.577 14.6277C9.38034 14.4149 9.2282 14.1649 9.1295 13.8925C9.03081 13.62 8.98756 13.3306 9.00228 13.0412V8.5716H6.42871V7.71445H9.00228V5.5716L8.57157 5.14303V4.72217H10.0356L10.7144 5.5716V7.71445H16.6801L17.2913 8.21588L13.5284 11.9132C13.7547 11.824 13.9925 11.7676 14.2347 11.7456C14.6419 11.7456 15.1077 11.8767 15.6173 12.1313C16.1269 12.3786 16.5199 12.7279 16.7963 13.1646C17.0727 13.6017 17.2549 14.0162 17.3277 14.4165C17.4083 14.7679 17.452 15.1262 17.4589 15.4866C17.4633 16.1733 17.3062 16.8514 17.0003 17.4662C16.7079 18.0659 16.2202 18.5483 15.6173 18.8342C14.9863 19.1372 14.2943 19.2917 13.5944 19.2859V19.2786V19.2782Z" fill="#2E84FD"/>
</svg>
