<svg width="24" height="24" viewBox="0 0 24 24" fill="none" xmlns="http://www.w3.org/2000/svg">
<path d="M11.1426 9.42856C11.4836 9.42856 11.8106 9.2931 12.0517 9.05198C12.2928 8.81086 12.4283 8.48383 12.4283 8.14284C12.4283 7.80185 12.2928 7.47482 12.0517 7.2337C11.8106 6.99258 11.4836 6.85713 11.1426 6.85713C10.8016 6.85713 10.4746 6.99258 10.2334 7.2337C9.99232 7.47482 9.85686 7.80185 9.85686 8.14284C9.85686 8.48383 9.99232 8.81086 10.2334 9.05198C10.4746 9.2931 10.8016 9.42856 11.1426 9.42856Z" fill="url(#paint0_linear_157_2395)"/>
<path d="M11.1426 8.99998C11.3699 8.99998 11.5879 8.90968 11.7487 8.74893C11.9094 8.58819 11.9997 8.37017 11.9997 8.14284C11.9997 7.91551 11.9094 7.69749 11.7487 7.53675C11.5879 7.376 11.3699 7.2857 11.1426 7.2857C10.9153 7.2857 10.6972 7.376 10.5365 7.53675C10.3757 7.69749 10.2854 7.91551 10.2854 8.14284C10.2854 8.37017 10.3757 8.58819 10.5365 8.74893C10.6972 8.90968 10.9153 8.99998 11.1426 8.99998Z" fill="url(#paint1_linear_157_2395)"/>
<path d="M4.64544 8.82427L4.61972 8.85855C4.48562 9.03188 4.389 9.23119 4.336 9.44383C4.28301 9.65648 4.27478 9.87782 4.31186 10.0938C4.34893 10.3098 4.43049 10.5157 4.55136 10.6985C4.67223 10.8813 4.82978 11.037 5.01401 11.1557L8.32686 13.4014C8.70818 13.6581 9.1718 13.7626 9.62635 13.6943C10.0809 13.6261 10.4934 13.3901 10.7826 13.0328L10.8083 12.9986C10.9424 12.8252 11.039 12.6259 11.092 12.4133C11.145 12.2006 11.1532 11.9793 11.1162 11.7633C11.0791 11.5473 10.9975 11.3414 10.8767 11.1586C10.7558 10.9758 10.5982 10.8201 10.414 10.7014L7.10115 8.4557C6.71983 8.19905 6.25622 8.09454 5.80167 8.16276C5.34712 8.23098 4.93461 8.46699 4.64544 8.82427Z" fill="url(#paint2_linear_157_2395)"/>
<path d="M13.6369 18.8571C13.444 18.8571 13.2597 18.8057 13.1012 18.7157C12.9432 18.6246 12.814 18.491 12.7283 18.33L11.1854 15.3728C11.0711 15.1558 11.0125 14.9137 11.0147 14.6684C11.0169 14.423 11.08 14.1821 11.1983 13.9671L14.7083 7.54713C12.9597 10.7443 12.8226 12.3686 14.0226 14.6657L15.0811 16.6886C15.6083 17.6871 14.824 18.8571 13.6369 18.8571Z" fill="url(#paint3_linear_157_2395)"/>
<path d="M17.9997 9.24855C17.9999 9.2805 17.9912 9.31188 17.9746 9.33914C17.9579 9.3664 17.934 9.38846 17.9054 9.40284C17.8756 9.41871 17.8422 9.42665 17.8084 9.4259C17.7747 9.42515 17.7417 9.41573 17.7126 9.39855L17.1212 8.99998L14.0269 14.6614C12.8269 12.3643 12.9554 10.74 14.7083 7.54284L14.7683 7.43998L14.2626 7.1057C14.2515 7.08553 14.2445 7.06333 14.2422 7.04042C14.2399 7.01751 14.2422 6.99437 14.249 6.97237C14.2558 6.95037 14.2669 6.92997 14.2818 6.91237C14.2966 6.89478 14.3149 6.88037 14.3354 6.86998L17.6526 5.15998C17.6803 5.14535 17.7112 5.1377 17.7426 5.1377C17.7739 5.1377 17.8048 5.14535 17.8326 5.15998C17.8926 5.19427 17.9997 5.2457 17.9997 5.30998V9.24855Z" fill="url(#paint4_linear_157_2395)"/>
<defs>
<linearGradient id="paint0_linear_157_2395" x1="11.1444" y1="5.1377" x2="11.1444" y2="18.8571" gradientUnits="userSpaceOnUse">
<stop stop-color="#EB508F"/>
<stop offset="1" stop-color="#FBAB1F"/>
</linearGradient>
<linearGradient id="paint1_linear_157_2395" x1="11.1444" y1="5.1377" x2="11.1444" y2="18.8571" gradientUnits="userSpaceOnUse">
<stop stop-color="#CE427F"/>
<stop offset="1" stop-color="#642F1E"/>
</linearGradient>
<linearGradient id="paint2_linear_157_2395" x1="5.56854" y1="6.72156" x2="17.9266" y2="14.7589" gradientUnits="userSpaceOnUse">
<stop stop-color="#E1479A"/>
<stop offset="1" stop-color="#54459C"/>
</linearGradient>
<linearGradient id="paint3_linear_157_2395" x1="7.47921" y1="11.319" x2="8.89019" y2="18.8528" gradientUnits="userSpaceOnUse">
<stop stop-color="#FCB415"/>
<stop offset="1" stop-color="#F3785F"/>
</linearGradient>
<linearGradient id="paint4_linear_157_2395" x1="17.3568" y1="5.7857" x2="13.2854" y2="14.5714" gradientUnits="userSpaceOnUse">
<stop stop-color="#E0479A"/>
<stop offset="1" stop-color="#5A459C"/>
</linearGradient>
</defs>
</svg>
