<svg xmlns="http://www.w3.org/2000/svg" width="24" height="24" fill="none" viewBox="0 0 24 24">
    <path fill="#fff" d="M12 4.001 5.067 8.004v8L12 20l6.933-3.997V8.005zm0 0L5.067 8.004v8L12 20l6.933-3.997V8.005z"/>
    <path fill="#03316C" d="M14.736 16.877h-.99l-1.174-1.085v-.556l1.22-1.162v-1.851l1.595-1.04 1.82 1.372zm-4.086-2.918.185-1.736-.6-1.558h3.53l-.587 1.558.166 1.736zm.805 1.833L10.28 16.89H9.278l-2.484-4.335 1.833-1.36 1.608 1.028v1.851l1.22 1.162zM9.265 7.46h5.458l.652 2.777H8.627zM11.997 4 5.071 8.003v8l6.926 3.996 6.934-3.997v-8z"/>
</svg>
