<svg width="24" height="24" viewBox="0 0 24 24" fill="none" xmlns="http://www.w3.org/2000/svg">
<path fill-rule="evenodd" clip-rule="evenodd" d="M12.0002 16.7143C13.2505 16.7143 14.4496 16.2176 15.3337 15.3335C16.2178 14.4494 16.7145 13.2503 16.7145 12C16.7145 10.7497 16.2178 9.55056 15.3337 8.66646C14.4496 7.78236 13.2505 7.28568 12.0002 7.28568C10.7499 7.28568 9.55081 7.78236 8.66671 8.66646C7.78261 9.55056 7.28592 10.7497 7.28592 12C7.28592 13.2503 7.78261 14.4494 8.66671 15.3335C9.55081 16.2176 10.7499 16.7143 12.0002 16.7143ZM12.0002 18.8571C13.8188 18.8571 15.563 18.1347 16.8489 16.8487C18.1349 15.5627 18.8574 13.8186 18.8574 12C18.8574 10.1813 18.1349 8.4372 16.8489 7.15123C15.563 5.86527 13.8188 5.14282 12.0002 5.14282C10.1816 5.14282 8.43744 5.86527 7.15148 7.15123C5.86551 8.4372 5.14307 10.1813 5.14307 12C5.14307 13.8186 5.86551 15.5627 7.15148 16.8487C8.43744 18.1347 10.1816 18.8571 12.0002 18.8571Z" fill="white"/>
<path d="M15.9945 14.5071C16.0888 14.55 16.1874 14.5714 16.2859 14.5714L16.5774 14.58C17.4131 14.6228 18.6474 14.6785 18.8359 12.57C18.8488 12.3814 18.8574 12.1928 18.8574 12H16.7145C16.7145 12.9214 16.4488 13.7828 15.9945 14.5071ZM5.48592 14.1428C5.77307 14.4 6.21021 14.5714 6.85735 14.5714C7.28592 14.5714 7.6545 14.5285 7.97592 14.4557C7.5236 13.7165 7.28478 12.8665 7.28592 12H5.14307C5.14307 12.75 5.26307 13.47 5.48592 14.1428Z" fill="white"/>
<path d="M15.3774 13.7443C16.6931 14.49 18.5831 14.4471 18.7931 12.9514C18.9269 11.9809 18.8512 10.9931 18.5712 10.0544C18.2911 9.11561 17.8132 8.24776 17.1695 7.50926C16.5259 6.77076 15.7315 6.17874 14.8398 5.77307C13.9481 5.3674 12.9798 5.1575 12.0002 5.1575C11.0206 5.1575 10.0523 5.3674 9.16064 5.77307C8.26895 6.17874 7.47454 6.77076 6.83089 7.50926C6.18723 8.24776 5.70929 9.11561 5.42924 10.0544C5.14919 10.9931 5.07353 11.9809 5.20735 12.9514C5.41735 14.4471 7.30735 14.4943 8.62307 13.7443C9.65222 13.1585 10.816 12.8505 12.0002 12.8505C13.1844 12.8505 14.3482 13.1585 15.3774 13.7443Z" fill="white"/>
<path d="M9.00021 12C7.62878 11.6571 6.42878 9.85711 6.00021 8.99997V10.9285L7.7145 13.2857L9.00021 12Z" fill="white"/>
<path d="M16.0202 11.5928C16.3288 11.7514 16.7059 11.5371 16.6459 11.1985C16.4543 10.0992 15.879 9.10343 15.0222 8.38843C14.1654 7.67343 13.0828 7.28554 11.9669 7.29377C10.851 7.30199 9.77418 7.7058 8.92804 8.43336C8.0819 9.16092 7.52128 10.165 7.34592 11.2671C7.29021 11.5928 7.64592 11.8028 7.93735 11.6528C9.19594 11.0164 10.59 10.6943 12.0002 10.7143C13.4916 10.7143 14.8631 11.0057 16.0202 11.5928ZM18.7931 12.9514C18.5831 14.4471 16.6931 14.4943 15.3774 13.7443C14.3482 13.1585 13.1844 12.8505 12.0002 12.8505C10.816 12.8505 9.65222 13.1585 8.62307 13.7443C7.30735 14.49 5.41735 14.4471 5.20735 12.9514C5.07353 11.9809 5.14919 10.9931 5.42924 10.0544C5.70929 9.11561 6.18723 8.24776 6.83089 7.50926C7.47454 6.77076 8.26895 6.17874 9.16064 5.77307C10.0523 5.3674 11.0206 5.1575 12.0002 5.1575C12.9798 5.1575 13.9481 5.3674 14.8398 5.77307C15.7315 6.17874 16.5259 6.77076 17.1695 7.50926C17.8132 8.24776 18.2911 9.11561 18.5712 10.0544C18.8512 10.9931 18.9269 11.9809 18.7931 12.9514Z" fill="white"/>
</svg>
