<svg width="24" height="24" viewBox="0 0 24 24" fill="none" xmlns="http://www.w3.org/2000/svg">
<path d="M11.3889 2.62821L3.46694 10.4391C3.01139 10.8836 2.82806 11.4392 2.83362 12.0002C2.83165 12.5835 3.05912 13.1443 3.46694 13.5613L11.3889 21.3778C11.839 21.8223 12.4056 22 12.9723 22C13.5389 22 14.1057 21.8223 14.5556 21.3722L19.611 16.3945C18.311 16.2779 17.8722 16.5612 17.3555 16.8835C17.0167 17.1001 16.6388 17.339 15.9667 17.4946C15.6277 17.5723 15.3445 17.6224 15.1112 17.6224C14.5389 17.6224 14.2556 17.4279 14.0056 17.2557C13.8111 17.1168 13.6444 17.0002 13.3778 17.0002H10.4335C10.9113 16.2669 10.589 16.0335 10.589 16.0335C10.589 16.0335 9.5668 15.7891 9.80569 13.2502C7.72241 10.9781 7.90574 8.25031 7.90574 8.25031C7.90574 8.25031 8.60016 10.4947 11.7056 11.6891C11.5724 9.97801 12.0446 9.30029 12.2612 9.00029L12.339 8.87252L12.4445 9.09474C12.7279 9.71695 13.1223 10.5836 15.189 11.0613C15.8556 10.2281 16.1167 10.0225 16.6723 9.58356L16.7778 9.50034C16.3 7.91142 16.3833 7.02811 16.7778 6.37257L16.911 6.7059C17.3555 7.81698 18.0667 9.60586 21.1666 9.14473L14.5556 2.62821C14.3466 2.42358 14.099 2.26268 13.8271 2.15488C13.5553 2.04709 13.2646 1.99459 12.9723 2.00044C12.4056 2.00044 11.839 2.17821 11.3889 2.62821Z" fill="white"/>
<path d="M13.9109 13.0835C13.7997 13.1447 13.6886 13.1948 13.6052 13.2502C14.8275 14.2891 16.0607 12.3447 15.5053 12.0002C15.0279 12.4353 14.4911 12.8 13.9109 13.0835Z" fill="white"/>
</svg>
