<svg width="24" height="24" viewBox="0 0 24 24" fill="none" xmlns="http://www.w3.org/2000/svg">
<path d="M8.99993 5.14282V6.85711H7.28564V8.57139H8.14279C8.25645 8.57139 8.36546 8.61655 8.44583 8.69692C8.52621 8.77729 8.57136 8.8863 8.57136 8.99997V15C8.57136 15.1136 8.52621 15.2226 8.44583 15.303C8.36546 15.3834 8.25645 15.4285 8.14279 15.4285H7.71422L7.28564 17.1428H8.99993V18.8571H10.7142V17.1428H11.9999V18.8571H13.7142V17.1428H14.5714V17.1364C16.2466 17.0335 17.5714 15.7324 17.5714 14.1428C17.5714 12.9325 16.8034 11.8894 15.6972 11.4154C16.3182 10.944 16.7142 10.2287 16.7142 9.42854C16.7142 7.85311 14.9999 6.85711 13.7142 6.85711V5.14282H11.9999V6.85711H10.7142V5.14282H8.99993ZM10.7142 15.4285V12.4285H13.4999C13.8978 12.4285 14.2793 12.5866 14.5606 12.8679C14.8419 13.1492 14.9999 13.5307 14.9999 13.9285C14.9999 14.3264 14.8419 14.7079 14.5606 14.9892C14.2793 15.2705 13.8978 15.4285 13.4999 15.4285H10.7142ZM10.7142 8.57139H12.8571C13.1981 8.57139 13.5251 8.70685 13.7662 8.94797C14.0073 9.18909 14.1428 9.51612 14.1428 9.85711C14.1428 10.1981 14.0073 10.5251 13.7662 10.7662C13.5251 11.0074 13.1981 11.1428 12.8571 11.1428H10.7142V8.57139Z" fill="white"/>
</svg>
