<svg width="24" height="24" viewBox="0 0 24 24" fill="none" xmlns="http://www.w3.org/2000/svg">
<path d="M5.8724 19.5758L5.33301 19.1334C5.59362 18.7819 6.71482 18.0728 7.24208 17.7577C8.13905 17.8789 9.66625 18.1334 8.60571 18.2243C7.53905 18.3214 6.33906 19.1638 5.8724 19.5758ZM18.6177 20.1819L19.2723 19.6365C18.9936 19.0607 17.6056 17.7758 17.1511 17.4546C16.3692 17.5758 15.0117 18.1758 15.939 18.2729C16.8602 18.3697 18.2117 19.7577 18.6177 20.1819ZM8.38752 9.50922C8.42647 9.41914 8.49817 9.34702 8.58816 9.30771C8.67814 9.26825 8.77972 9.26458 8.87237 9.2971L10.539 9.89104C10.7087 9.9517 10.8117 10.1153 10.7814 10.285C10.7667 10.3677 10.7247 10.4431 10.6621 10.4991C10.5994 10.5553 10.5198 10.5886 10.436 10.5941C10.2542 10.6062 9.95728 10.6729 9.64815 10.7699C9.33902 10.8607 9.06631 10.9699 8.93903 11.0426C8.85144 11.0905 8.74889 11.1035 8.65214 11.0788C8.55537 11.054 8.47162 10.9933 8.41783 10.9092C8.3931 10.8681 8.37692 10.8224 8.37024 10.7749C8.36357 10.7272 8.36655 10.6788 8.379 10.6325C8.39143 10.5861 8.41309 10.5427 8.44268 10.5049C8.47226 10.467 8.50915 10.4355 8.55117 10.4123C8.69661 10.3335 8.9148 10.2426 9.13903 10.1699L8.61176 9.97588C8.56621 9.96033 8.52421 9.93572 8.48821 9.90376C8.45221 9.87166 8.42293 9.83291 8.40206 9.7895C8.3812 9.74609 8.36918 9.69886 8.36668 9.65078C8.36419 9.60269 8.37128 9.55461 8.38752 9.50922Z" fill="white"/>
<path fill-rule="evenodd" clip-rule="evenodd" d="M16.8479 4.26704C16.8479 3.52765 16.5873 2.85494 16.454 2.60645C17.3449 2.8307 18.6661 3.78826 18.6661 5.37006C18.6661 6.95793 17.3085 7.91549 16.6661 8.06095C16.0297 8.21246 16.0297 8.94585 16.0297 9.20634C16.0297 9.46088 16.454 11.4185 16.8479 11.7518C17.2619 11.9698 17.5996 12.3088 17.8161 12.7234C18.0326 13.138 18.1177 13.6088 18.0601 14.0731V16.0246C18.0601 18.0609 14.5692 18.9699 11.9995 18.9699C9.42985 18.9699 7.68441 18.3094 6.75715 17.6852C6.01776 17.182 5.9511 16.37 5.93896 16.0246V13.8851C5.93896 12.1457 7.24805 11.7215 7.96926 11.6973H11.0722C11.9026 11.6973 11.9995 11.1519 11.9995 10.9215V8.69124C11.9995 7.10337 13.248 6.47915 14.7087 6.29127C16.1692 6.10945 16.8479 5.18825 16.8479 4.26704ZM8.24199 12.9094H15.7449C16.5692 12.9094 16.8723 13.7276 16.8479 14.0851V16.0246C16.8479 17.2729 13.5935 17.6972 11.9631 17.7579C10.3632 17.6972 7.15108 17.2729 7.15108 16.0246V14.0851C7.12683 13.7276 7.4238 12.9094 8.24199 12.9094ZM14.1207 11.0912C14.6238 11.0912 15.0298 10.5458 15.0298 9.87918C15.0298 9.21242 14.6238 8.667 14.1207 8.667C13.6177 8.667 13.2117 9.21242 13.2117 9.87918C13.2117 10.5458 13.6177 11.0912 14.1207 11.0912Z" fill="white"/>
<path d="M9.57555 13.5154H8.36338C8.02867 13.5154 7.75732 13.7868 7.75732 14.1215V15.3335C7.75732 15.6682 8.02867 15.9396 8.36338 15.9396H9.57555C9.91014 15.9396 10.1815 15.6682 10.1815 15.3335V14.1215C10.1815 13.7868 9.91014 13.5154 9.57555 13.5154Z" fill="white"/>
<path d="M15.636 13.5154H14.4238C14.0891 13.5154 13.8179 13.7868 13.8179 14.1215V15.3335C13.8179 15.6682 14.0891 15.9396 14.4238 15.9396H15.636C15.9707 15.9396 16.242 15.6682 16.242 15.3335V14.1215C16.242 13.7868 15.9707 13.5154 15.636 13.5154Z" fill="white"/>
<path d="M7.15164 8.9092C6.74167 8.71683 6.28761 8.63781 5.83673 8.68044C5.38587 8.72308 4.95466 8.88587 4.58803 9.15173C4.24317 9.41815 3.96621 9.76235 3.77978 10.1563C3.59334 10.5503 3.50273 10.9827 3.51531 11.4183C3.96986 11.6547 5.1153 11.988 6.07893 11.2305C6.42709 10.9533 6.70549 10.5984 6.89177 10.1942C7.07805 9.79006 7.16706 9.34801 7.15164 8.90327V8.9092Z" fill="white"/>
<path d="M5.31561 19.6121C5.13985 19.5516 4.70955 19.5273 4.40046 19.8545C4.28928 19.9718 4.20722 20.1134 4.16089 20.2682C4.11458 20.423 4.10529 20.5865 4.1338 20.7454C4.31561 20.8061 4.74592 20.8546 5.055 20.5213C5.37016 20.188 5.3459 19.8062 5.31561 19.6121ZM5.33378 18.6061C5.17527 18.4828 4.98713 18.4033 4.78821 18.3756C4.5893 18.3481 4.3866 18.3731 4.20046 18.4486C4.02686 18.525 3.87409 18.6419 3.75494 18.7895C3.63578 18.9372 3.55374 19.1111 3.51562 19.2971C3.68532 19.4485 4.15198 19.7091 4.64288 19.4909C4.82027 19.4092 4.97554 19.2863 5.09574 19.1323C5.21593 18.9785 5.29755 18.798 5.33378 18.6061ZM6.26106 20.1819C6.03682 20.2243 5.53985 20.4485 5.38833 20.9516C5.23076 21.4607 5.46712 21.8364 5.60045 22C5.83075 21.9576 6.3459 21.7636 6.49741 21.2484C6.55053 21.0652 6.55672 20.8714 6.51541 20.685C6.47412 20.4987 6.38666 20.3256 6.26106 20.1819Z" fill="white"/>
<path d="M7.13925 19.5756C6.92712 19.6786 6.52107 20.024 6.54532 20.5211C6.56956 21.018 6.94531 21.2847 7.13925 21.3938C7.35137 21.2908 7.78773 20.9695 7.75742 20.4604C7.72105 19.9574 7.34531 19.6907 7.13925 19.5756ZM5.93925 17.7877C5.84229 17.5756 5.51501 17.1514 5.01199 17.1514C4.51503 17.1514 4.23625 17.5151 4.12109 17.6968C4.21806 17.9211 4.52715 18.3756 5.03018 18.3636C5.5332 18.3514 5.81805 17.9938 5.93925 17.7877Z" fill="white"/>
<path d="M16.8484 8.90889C17.3029 8.67258 18.4483 8.41803 19.4121 9.15142C19.7568 9.41784 20.0339 9.76204 20.2202 10.156C20.4068 10.55 20.4973 10.9824 20.4847 11.418C20.0302 11.6544 18.8847 11.9877 17.9211 11.2302C17.573 10.953 17.2945 10.5981 17.1083 10.1939C16.9219 9.78975 16.833 9.3477 16.8484 8.90295V8.90889Z" fill="white"/>
<path d="M10.5879 3.4606L11.9999 2L13.4121 3.4606L15.0303 2.60605C14.9116 3.32225 14.7762 4.03557 14.6243 4.74543C14.2484 5.48482 12.7272 5.64845 11.9999 5.63633C11.2787 5.64845 9.75148 5.48482 9.37575 4.74543C9.2909 4.39999 9.07276 3.23029 8.96973 2.60605L10.5879 3.4606Z" fill="white"/>
<path d="M5.33301 5.29733C5.33554 4.71266 5.51529 4.14249 5.84854 3.66208C6.18181 3.18167 6.6529 2.8136 7.19966 2.60645C7.10269 2.78827 6.89664 3.35796 6.89664 4.17008C6.89251 4.56186 7.01634 4.9443 7.24932 5.25931C7.48231 5.57432 7.81171 5.80472 8.18752 5.9155C8.76329 6.09733 8.96934 6.20642 8.96934 6.49732C8.96934 7.40641 8.0542 8.06095 7.78147 8.06095C7.50874 8.06095 5.33301 7.33368 5.33301 5.29733Z" fill="white"/>
</svg>
