<svg width="24" height="24" viewBox="0 0 24 24" fill="none" xmlns="http://www.w3.org/2000/svg">
<path fill-rule="evenodd" clip-rule="evenodd" d="M14.9998 10.4915C15.001 10.6329 14.9741 10.7732 14.9207 10.9041C14.8674 11.0351 14.7887 11.1542 14.6891 11.2546C14.5895 11.355 14.471 11.4347 14.3404 11.4891C14.2098 11.5435 14.0698 11.5715 13.9284 11.5715C13.787 11.5715 13.6469 11.5435 13.5164 11.4891C13.3858 11.4347 13.2673 11.355 13.1677 11.2546C13.0681 11.1542 12.9894 11.0351 12.9361 10.9041C12.8827 10.7732 12.8558 10.6329 12.857 10.4915C12.8564 10.3504 12.8837 10.2106 12.9373 10.0802C12.9909 9.94966 13.0697 9.83105 13.1693 9.7311C13.2688 9.63115 13.3871 9.55185 13.5174 9.49774C13.6477 9.44363 13.7873 9.41577 13.9284 9.41577C14.0695 9.41577 14.2091 9.44363 14.3394 9.49774C14.4697 9.55185 14.588 9.63115 14.6875 9.7311C14.7871 9.83105 14.8659 9.94966 14.9195 10.0802C14.9731 10.2106 15.0004 10.3504 14.9998 10.4915ZM14.1427 10.2858C14.1427 10.3994 14.0975 10.5084 14.0172 10.5888C13.9368 10.6692 13.8278 10.7143 13.7141 10.7143C13.6004 10.7143 13.4914 10.6692 13.4111 10.5888C13.3307 10.5084 13.2855 10.3994 13.2855 10.2858C13.2855 10.1721 13.3307 10.0631 13.4111 9.98273C13.4914 9.90235 13.6004 9.8572 13.7141 9.8572C13.8278 9.8572 13.9368 9.90235 14.0172 9.98273C14.0975 10.0631 14.1427 10.1721 14.1427 10.2858ZM14.357 10.7143C14.4138 10.7143 14.4683 10.6918 14.5085 10.6516C14.5487 10.6114 14.5713 10.5569 14.5713 10.5001C14.5713 10.4432 14.5487 10.3887 14.5085 10.3485C14.4683 10.3083 14.4138 10.2858 14.357 10.2858C14.3001 10.2858 14.2456 10.3083 14.2054 10.3485C14.1653 10.3887 14.1427 10.4432 14.1427 10.5001C14.1427 10.5569 14.1653 10.6114 14.2054 10.6516C14.2456 10.6918 14.3001 10.7143 14.357 10.7143Z" fill="white"/>
<path fill-rule="evenodd" clip-rule="evenodd" d="M18.8571 12.3214C18.8571 15.2314 17.2114 17.73 14.8328 18.8571C16.7528 16.8128 16.7185 14.2971 16.7143 13.7914V13.7357C16.6182 13.8534 16.4991 13.9503 16.3642 14.0203C16.2293 14.0903 16.0816 14.132 15.93 14.1428C14.5885 14.1428 13.2857 13.0543 11.9014 11.58C10.5214 10.1143 9.85712 8.50711 9.85712 7.96711C9.85712 7.68854 10.0114 7.50425 10.1143 7.37568L10.1786 7.29854C10.2386 7.21711 10.2857 7.15282 10.2857 7.07139C10.2857 6.86139 10.0457 6.86139 9.78427 6.86139C8.83712 6.86139 7.64141 7.32854 6.66855 7.81282C7.29251 6.98826 8.09801 6.31849 9.02258 5.85546C9.94716 5.39243 10.966 5.14858 12 5.14282C15.7886 5.14282 18.8571 8.35711 18.8571 12.3214ZM6.10284 15.9857C6.53968 16.7571 7.11671 17.4403 7.80426 18H9.39855C11.1771 18 12.8571 16.83 12.8571 14.9571C12.8571 13.0885 11.1771 11.58 9.39855 11.58H5.17712C5.05296 12.8969 5.27455 14.2234 5.81998 15.4285H12.4286C11.8414 15.7157 10.3286 16.2857 8.96998 16.2857C8.04855 16.2857 6.94284 16.1357 6.10284 15.9857ZM12 8.60568C12 7.89425 12.8614 7.71425 13.2943 7.71425C16.2 7.71425 16.2857 10.6071 16.2857 11.04C16.2857 11.1043 16.2814 11.1685 16.2685 11.25L17.67 11.6057C18.0385 11.7 18.12 12.1285 17.8071 12.3214L16.2514 13.2857L16.0157 12.0085C15.8743 12.2485 15.6728 12.4285 15.4114 12.4285C14.8114 12.4285 13.8043 11.6743 13.2943 11.22C12.7843 10.7657 12 9.49711 12 8.60568Z" fill="white"/>
</svg>
