<svg width="24" height="24" viewBox="0 0 24 24" fill="none" xmlns="http://www.w3.org/2000/svg">
<path d="M8.57136 12.8571C8.78565 16.0714 10.9028 18.0985 12.1799 18.6128C10.6799 19.2728 7.21707 19.0199 7.21707 12.6599C7.21707 6.26993 11.0528 4.94564 13.0842 4.72707L15.1114 5.1685L16.7142 4.72707L17.1428 5.1685C16.6028 5.33993 15.8056 6.34279 15.4285 6.85707C14.8885 5.7985 13.6071 5.57136 13.0842 5.57136C10.5985 5.57136 8.30564 8.89279 8.57136 12.8571Z" fill="white"/>
<path d="M16.7142 4.72707C16.0156 4.9285 15.3385 5.75564 15.1114 6.26993C14.9031 5.91686 14.604 5.62606 14.2453 5.42782C13.8865 5.22959 13.4811 5.13116 13.0714 5.14279C11.2542 5.14279 7.71422 7.78707 7.71422 12.6428C7.71422 17.4685 10.5899 18.6428 13.0714 18.6428C14.5714 18.6428 15.4928 17.6699 15.3385 17.0699C15.2614 16.7742 15.2956 16.1871 16.0156 16.1871C16.7356 16.1871 16.7828 16.6285 16.6928 17.0699C16.4656 18.1714 14.7214 19.7142 11.7856 19.7142C8.85422 19.7142 6.53993 16.1871 5.86279 14.6442C5.32279 13.4099 4.58564 12.9556 4.28564 12.8828C4.64564 12.1756 5.48564 12.1456 5.86279 12.2185C5.76959 10.2114 6.47609 8.24915 7.82738 6.76208C9.17867 5.27502 11.0645 4.38446 13.0714 4.28564C13.9714 4.28564 14.6614 4.58136 14.8885 4.72707C15.1993 4.44977 15.5992 4.29314 16.0156 4.28564C16.2856 4.28564 16.4999 4.49993 16.7142 4.72707Z" fill="white"/>
</svg>
