<svg width="24" height="24" viewBox="0 0 24 24" fill="none" xmlns="http://www.w3.org/2000/svg">
<path d="M13.1594 2C17.1406 2 19.8969 4.43123 20.847 5.73748C20.0781 6.80623 17.9844 7.18122 16.3407 6.30623C15.3637 5.77373 14.272 5.48634 13.1594 5.46873C9.68449 5.46873 7.697 8.11246 7.13451 9.49998H3.50952C4.90327 4.99999 8.56575 2 13.1594 2Z" fill="white"/>
<path d="M13.1846 22C17.1659 22 19.9221 19.5688 20.872 18.2626C20.1034 17.1875 18.0034 16.8189 16.3595 17.6939C15.3844 18.2253 14.295 18.5127 13.1846 18.5312C9.70962 18.5312 7.72214 15.8876 7.15964 14.5001H3.53467C4.92216 19.0001 8.59088 22 13.1846 22Z" fill="white"/>
<path d="M7.24041 18.4C6.33628 18.1232 5.51811 17.6193 4.86387 16.9367C4.20963 16.254 3.7411 15.4151 3.50293 14.5001H7.14665C7.65278 15.6744 8.48554 16.6784 9.54587 17.3931C10.6063 18.1077 11.8495 18.5028 13.1279 18.5312C12.1904 18.7813 9.72789 19.1437 7.24041 18.4Z" fill="white"/>
<path d="M7.2156 5.59997C6.31263 5.87776 5.49575 6.38195 4.84266 7.06458C4.18956 7.74722 3.72198 8.58558 3.48438 9.49998H7.1281C8.62809 6.20622 11.7531 5.42497 13.1281 5.46872C12.1906 5.21872 9.70933 4.85622 7.2156 5.59997Z" fill="white"/>
<path d="M5.62791 13.8751C6.66344 13.8751 7.50291 13.0355 7.50291 12.0001C7.50291 10.9645 6.66344 10.1251 5.62791 10.1251C4.59238 10.1251 3.75293 10.9645 3.75293 12.0001C3.75293 13.0355 4.59238 13.8751 5.62791 13.8751Z" fill="white"/>
<path d="M5.00291 13.8751C6.03844 13.8751 6.87789 13.0355 6.87789 12.0001C6.87789 10.9645 6.03844 10.1251 5.00291 10.1251C3.96738 10.1251 3.12793 10.9645 3.12793 12.0001C3.12793 13.0355 3.96738 13.8751 5.00291 13.8751Z" fill="white"/>
</svg>
