<svg width="24" height="24" viewBox="0 0 24 24" fill="none" xmlns="http://www.w3.org/2000/svg">
<path d="M12.059 6.70605C10.9257 7.04881 9.93438 7.75036 9.2342 8.70513C8.53404 9.65994 8.1629 10.8163 8.17664 12.0001C8.17664 14.5296 9.8237 16.6531 12.059 17.2943V16.2766C11.1881 15.9533 10.4383 15.3691 9.9119 14.6037C9.3855 13.8383 9.10817 12.9291 9.11781 12.0001C9.11781 10.0178 10.3531 8.32957 12.059 7.7237V6.70605ZM14.8825 16.2766C15.7533 15.9533 16.5032 15.3691 17.0295 14.6037C17.556 13.8383 17.8333 12.9291 17.8237 12.0001C17.8237 10.0178 16.5884 8.32957 14.8825 7.7237V6.70605C16.0158 7.04881 17.0072 7.75036 17.7073 8.70513C18.4074 9.65994 18.7786 10.8163 18.7648 12.0001C18.7648 14.5296 17.1178 16.6531 14.8825 17.2943V16.2766Z" fill="white"/>
<path d="M12.8826 8.47046H14.059V9.11752C14.4517 9.20263 14.8119 9.39859 15.0964 9.68216C15.3811 9.96586 15.5784 10.3252 15.6649 10.7175H14.6473C14.6473 10.1881 14.0178 9.81159 13.4709 9.81159C12.9238 9.81159 12.2943 10.1881 12.2943 10.641C12.2943 11.094 13.0473 11.2998 13.9414 11.4705C15.8355 11.8351 15.8238 12.7646 15.8238 13.1646V13.2058C15.8238 13.5411 15.512 14.6587 14.059 14.894V15.5292H12.8826V14.8822C12.4594 14.789 12.0703 14.5802 11.7588 14.2791C11.4472 13.978 11.2254 13.5961 11.1179 13.1764H12.1355C12.1355 13.5527 12.5297 14.1881 13.4709 14.1881C14.412 14.1881 14.6473 13.6587 14.6473 13.2822C14.6473 12.9057 14.6473 12.5292 13.159 12.2999C11.665 12.0763 11.2767 11.1704 11.2767 10.7175C11.2767 10.3175 11.5179 9.32337 12.8826 9.10576V8.47046Z" fill="white"/>
<path d="M20.5295 4.29417C18.5924 2.79864 16.2121 1.99141 13.7649 2.00007C8.08246 2.00007 3.4707 6.47652 3.4707 12C3.4707 17.5236 8.08246 22 13.7649 22C16.3472 22 18.7236 21.0765 20.5295 19.553L19.4118 18.2001C17.8293 19.5247 15.8286 20.2457 13.7649 20.2353C9.05892 20.2353 5.2354 16.5471 5.2354 12C5.2354 7.453 9.05892 3.76477 13.7649 3.76477C15.8354 3.76477 17.9295 4.47065 19.4118 5.65888L20.5295 4.29417Z" fill="white"/>
</svg>
