<svg width="24" height="24" viewBox="0 0 24 24" fill="none" xmlns="http://www.w3.org/2000/svg">
<path d="M7.68021 11.1428L6.61307 6.42847L9.45449 11.1428H7.68021Z" fill="white"/>
<path d="M7.68021 11.1428L5.14307 17.9999L9.45449 11.1428H7.68021Z" fill="white"/>
<path d="M6.60021 6.44132L5.14307 17.9999L7.71449 11.1428L6.60021 6.44132Z" fill="white"/>
<path d="M16.3202 11.1428L17.3874 6.42847L14.5459 11.1428H16.3202Z" fill="white"/>
<path d="M16.3202 11.1428L18.8574 17.9999L14.5459 11.1428H16.3202Z" fill="white"/>
<path d="M17.4002 6.44132L18.8574 17.9999L16.2859 11.1428L17.4002 6.44132Z" fill="white"/>
<path d="M12.0002 10.1999C12.0002 10.1999 10.3716 10.7828 9.55307 11.0656L12.0002 15.0128V10.1999Z" fill="white"/>
<path d="M12.0002 10.1956C12.0002 10.1956 13.6374 10.7828 14.4516 11.0656L12.0045 15.0128V10.1999L12.0002 10.1956Z" fill="white"/>
<path d="M12.0002 10.2128L9.55307 11.0785L12.0002 7.13561V10.2128Z" fill="white"/>
<path d="M12.0002 10.2128L14.4516 11.0699L12.0002 7.13561V10.2128Z" fill="white"/>
</svg>
