<svg width="24" height="24" viewBox="0 0 24 24" fill="none" xmlns="http://www.w3.org/2000/svg">
<path fill-rule="evenodd" clip-rule="evenodd" d="M3.85693 11.9656C3.85693 7.58561 7.02836 3.97275 11.1426 3.42847V5.26275C12.1374 5.07339 13.1617 5.10558 14.1426 5.35704V8.0699C13.5236 7.79973 12.8494 7.67973 12.1751 7.71967C11.5008 7.75961 10.8455 7.95836 10.2626 8.29973C9.67977 8.64109 9.18585 9.11539 8.82115 9.68395C8.45645 10.2525 8.23131 10.8992 8.16408 11.5713H9.0255C9.12048 10.8156 9.46438 10.1131 10.003 9.57448C10.5415 9.03592 11.2441 8.69201 11.9998 8.59704V9.46275C11.3985 9.56194 10.8519 9.87147 10.4576 10.3362C10.0633 10.8008 9.84687 11.3905 9.84687 11.9999C9.84687 12.6093 10.0633 13.199 10.4576 13.6636C10.8519 14.1283 11.3985 14.4378 11.9998 14.537V17.1213C11.3042 17.0696 10.6263 16.8769 10.0075 16.5549C9.38871 16.2329 8.84187 15.7885 8.40026 15.2485C7.95865 14.7085 7.6315 14.0844 7.43872 13.414C7.24593 12.7436 7.19154 12.041 7.27885 11.3489C7.36616 10.6569 7.59334 9.98979 7.94658 9.38829C8.29982 8.78679 8.77174 8.26344 9.33362 7.85007C9.8955 7.4367 10.5356 7.14196 11.215 6.98377C11.8944 6.82558 12.5988 6.80725 13.2855 6.9299V6.0599C11.7871 5.84606 10.2632 6.20646 9.01925 7.06887C7.77534 7.93129 6.90335 9.23197 6.57805 10.7102C6.25275 12.1885 6.49818 13.7351 7.26516 15.04C8.03213 16.3449 9.26397 17.3117 10.7138 17.7467C12.1635 18.1816 13.7242 18.0525 15.0828 17.3853C16.4414 16.718 17.4976 15.562 18.0398 14.1488C18.5819 12.7355 18.5699 11.1697 18.0061 9.76494C17.4424 8.36022 16.3685 7.22049 14.9998 6.57418V5.6399C16.34 6.17955 17.4755 7.12874 18.2443 8.35201C19.0131 9.57528 19.3758 11.0101 19.2808 12.4518C19.1858 13.8934 18.6378 15.2682 17.7151 16.38C16.7924 17.4918 15.5421 18.2837 14.1426 18.6428V20.3442C13.5212 20.4899 12.8784 20.5713 12.2141 20.5713C7.59836 20.5713 3.85693 16.7185 3.85693 11.9656ZM11.1426 16.0885C10.3425 15.8368 9.63374 15.3559 9.10427 14.7053C8.57481 14.0547 8.24791 13.2631 8.16408 12.4285H9.0255C9.10201 13.0339 9.3385 13.6079 9.71063 14.0915C10.0828 14.5752 10.5771 14.9508 11.1426 15.1799V16.0885ZM12.4284 18.857C12.7198 18.857 13.0026 18.8399 13.2855 18.8056V19.637C12.9341 19.6885 12.5784 19.7142 12.2141 19.7142C8.21122 19.7142 4.94122 16.4913 4.72693 12.4285H5.58408C5.69311 14.1696 6.46166 15.8037 7.73325 16.998C9.00483 18.1924 10.6838 18.8572 12.4284 18.857ZM5.58408 11.5713C5.67024 10.2034 6.16413 8.8926 7.00208 7.80792C7.84003 6.72324 8.98364 5.91438 10.2855 5.48561V4.54275C8.73926 4.98395 7.37075 5.89987 6.37331 7.16108C5.37588 8.42229 4.79996 9.96503 4.72693 11.5713H5.58408ZM12.8569 15.4028C13.6874 15.3005 14.4518 14.898 15.0061 14.2712C15.5604 13.6445 15.8664 12.8366 15.8664 11.9999C15.8664 11.1632 15.5604 10.3553 15.0061 9.72854C14.4518 9.10176 13.6874 8.69932 12.8569 8.59704V9.46275C13.3839 9.55152 13.8702 9.80229 14.2481 10.1802C14.626 10.5581 14.8767 11.0443 14.9655 11.5713H14.0869C13.9826 11.1673 13.7345 10.8152 13.3892 10.5811C13.0439 10.3469 12.625 10.2467 12.2111 10.2993C11.7972 10.3518 11.4166 10.5536 11.1408 10.8667C10.865 11.1797 10.7128 11.5826 10.7128 11.9999C10.7128 12.4171 10.865 12.8201 11.1408 13.1331C11.4166 13.4462 11.7972 13.6479 12.2111 13.7005C12.625 13.7531 13.0439 13.6529 13.3892 13.4187C13.7345 13.1845 13.9826 12.8325 14.0869 12.4285H14.9655C14.8767 12.9555 14.626 13.4417 14.2481 13.8196C13.8702 14.1975 13.3839 14.4483 12.8569 14.537V15.4028ZM12.4284 12.6428C12.5989 12.6428 12.7624 12.575 12.8829 12.4545C13.0035 12.3339 13.0712 12.1704 13.0712 11.9999C13.0712 11.8294 13.0035 11.6659 12.8829 11.5453C12.7624 11.4248 12.5989 11.357 12.4284 11.357C12.2579 11.357 12.0944 11.4248 11.9738 11.5453C11.8532 11.6659 11.7855 11.8294 11.7855 11.9999C11.7855 12.1704 11.8532 12.3339 11.9738 12.4545C12.0944 12.575 12.2579 12.6428 12.4284 12.6428Z" fill="white"/>
</svg>
