<svg width="24" height="24" viewBox="0 0 24 24" fill="none" xmlns="http://www.w3.org/2000/svg">
<path d="M19.8434 17.3335H10.8201C8.70867 17.3294 7.27267 15.8288 6.42533 14.0001H20.0367C21.1521 14.0001 22 13.0821 22 12.0001C22 10.918 21.1521 10.0001 20.0367 10.0001H6.242C6.908 8.18208 8.81066 6.66475 10.8201 6.66675H19.8434C20.9573 6.66675 21.8066 5.81474 21.8066 4.74208C21.8066 3.66008 20.9467 2.66675 19.8434 2.66675H10.8201C5.94667 2.66675 2 6.86008 2 12.0001V12.2801C2.07132 14.7035 3.03133 17.0028 4.67733 18.6927C6.32266 20.3821 8.526 21.3288 10.8201 21.3334H19.8434C20.9587 21.3334 21.8066 20.3401 21.8066 19.2582C21.8066 18.1761 20.9587 17.3335 19.8434 17.3335Z" fill="white"/>
</svg>
