<svg width="24" height="24" viewBox="0 0 24 24" fill="none" xmlns="http://www.w3.org/2000/svg">
<path d="M7.95408 11.7257C7.60265 11.8843 6.89122 12.2015 6.85693 12.21L11.7855 3.85718V4.72289L7.61979 11.7729L8.04836 11.6015L11.7855 4.93718V11.5286L10.3841 12.0515L7.9155 11.88L7.95408 11.73V11.7257Z" fill="white"/>
<path d="M11.7855 10.1229L7.90265 11.88L11.7855 14.2115V13.8686L8.4855 11.9229L11.7855 10.4486V10.1229ZM11.7855 10.6886L8.97408 11.9529L11.7855 13.6072V13.2515L9.71122 12.0086L11.7855 11.0743V10.6886ZM11.7855 11.3272L10.2341 12.0129L11.7855 12.9557V11.3272ZM6.85693 12.3257L11.7855 15.2872V14.43L7.66265 11.9443L6.85693 12.3257Z" fill="white"/>
<path d="M16.0455 11.7343C16.3969 11.8886 17.1084 12.2057 17.1426 12.2143L12.2141 3.85718V4.72289L16.3798 11.7772L15.9512 11.6057L12.2141 4.93718V11.5286L13.6155 12.0557L16.0841 11.8843L16.0455 11.7343Z" fill="white"/>
<path d="M12.2141 10.1229L16.0969 11.8715L12.2141 14.1943V13.8515L15.5141 11.9143L12.2141 10.4486V10.1229ZM12.2141 10.6843L15.0255 11.9443L12.2141 13.59V13.2386L14.2884 12L12.2141 11.0657V10.68V10.6843ZM12.2141 12.9429V11.3229L13.7655 12.0086L12.2141 12.9429ZM17.1426 12.3129L12.2141 15.27V14.4129L16.3369 11.94L17.1426 12.3129Z" fill="white"/>
<path d="M11.9698 16.2C11.9098 16.2 8.53693 14.2586 6.85693 13.2857L11.9698 20.1429L17.1426 13.2857C15.4293 14.2764 13.7049 15.2479 11.9698 16.2Z" fill="white"/>
</svg>
