<svg width="24" height="24" viewBox="0 0 24 24" fill="none" xmlns="http://www.w3.org/2000/svg">
<path d="M2 2H4.49998V4.5H2V2ZM8.24997 2H10.75V4.5H8.24997V2ZM8.24997 8.24999H10.75V10.7499H8.24997V8.24999ZM14.5 2H17V4.5H14.5V2ZM20.7499 2.625H22V3.875H20.7499V2.625ZM20.7499 8.87498H22V10.125H20.7499V8.87498ZM15.125 8.87498H16.3749V10.125H15.125V8.87498ZM15.125 15.1249H16.3749V16.375H15.125V15.1249ZM8.87497 15.1249H10.125V16.375H8.87497V15.1249ZM2.625 20.75H3.87499V21.9999H2.625V20.75ZM8.87497 20.75H10.125V21.9999H8.87497V20.75ZM15.125 20.75H16.3749V21.9999H15.125V20.75ZM20.7499 20.75H22V21.9999H20.7499V20.75ZM20.7499 15.1249H22V16.375H20.7499V15.1249ZM2 8.24999H4.49998V10.7499H2V8.24999ZM2 14.5H4.49998V16.9999H2V14.5Z" fill="white"/>
</svg>
