<svg width="24" height="24" viewBox="0 0 24 24" fill="none" xmlns="http://www.w3.org/2000/svg">
<path d="M12.9229 10.8235L12.6062 12.4307L15.6131 12.8331L15.4022 13.5865L12.4481 13.1845C12.2372 13.8377 12.1318 14.541 11.8678 15.144C11.6042 15.8473 11.3407 16.5505 11.0239 17.2037C10.6018 18.0578 9.86337 18.6608 8.86137 18.8113C8.28108 18.912 7.64851 18.8618 7.17322 18.51C7.01508 18.4097 6.85694 18.2087 6.85694 18.0578C6.85694 17.8568 6.85265 17.6211 7.12051 17.505C7.38837 17.3893 7.49894 17.4707 7.64808 17.5555C7.80665 17.706 7.96479 17.907 8.07022 18.1084C8.38651 18.51 8.80865 18.5601 9.23037 18.2584C9.70522 17.8568 9.96922 17.3044 10.1274 16.7515C10.4437 15.546 10.7604 14.3901 11.0239 13.1845V12.9835L8.22837 12.5815L8.33379 11.8281L11.2352 12.2301L11.6038 10.6727L8.59737 10.2205L8.70322 9.41655L11.8151 9.81855C11.9205 9.51726 11.9737 9.26569 12.0791 9.01455C12.3427 8.11026 12.6062 7.20597 13.2392 6.4024C13.8722 5.5984 14.6107 5.09612 15.7185 5.14626C16.1934 5.14626 16.6678 5.29712 16.9845 5.64855C17.0372 5.69869 17.1427 5.7994 17.1427 5.89969C17.1427 6.10112 17.1427 6.35226 16.9841 6.50269C16.7732 6.65355 16.5097 6.6034 16.2984 6.4024C16.1402 6.25155 16.0348 6.10069 15.8767 5.95026C15.5604 5.54826 15.0855 5.49812 14.7165 5.84955C14.4525 6.10069 14.1889 6.45255 14.0308 6.8044C13.6614 7.85912 13.3978 8.9644 13.0284 10.0701L15.9298 10.4717L15.7185 11.2251L12.9229 10.8235Z" fill="white"/>
</svg>
