<svg width="24" height="24" viewBox="0 0 24 24" fill="none" xmlns="http://www.w3.org/2000/svg">
<path d="M15.374 9.2266C14.8139 9.17993 14.554 9.16002 14.0272 9.45327C11.5356 10.8266 9.04646 12.2045 6.55985 13.5871C6.18749 13.8138 5.78598 13.9888 5.36639 14.1072C3.47955 14.5004 1.80605 12.707 2.48611 10.9601C2.83281 10.0667 3.37288 9.79335 4.32629 9.26658C8.40669 6.99975 12.4938 4.7462 16.5875 2.49931C17.8543 1.80591 19.061 1.83258 20.2211 2.59265C20.8764 2.99741 21.3531 3.63622 21.5547 4.37949C21.6346 4.68619 21.6746 5.24625 21.6679 6.04632V19.241C21.6679 20.6211 20.7546 21.9412 19.281 21.9946C18.881 22.0078 18.4811 22.0078 18.1142 21.8611C17.597 21.6105 17.1579 21.2234 16.8443 20.7418C16.5305 20.2601 16.3543 19.7021 16.3342 19.1276V10.8335C16.3342 10.1466 16.2408 9.63326 15.6341 9.30003C15.5535 9.25756 15.4649 9.23251 15.374 9.2266Z" fill="white"/>
<path d="M10.5269 21.5013C9.23353 21.2061 8.03752 20.584 7.05325 19.6945C6.83323 19.4944 6.58654 19.2677 6.5332 18.9877C6.43985 18.521 6.78656 18.2943 7.1666 18.0809L10.4869 16.2274C10.9003 15.9941 11.4337 16.1341 11.6204 16.5608C11.6671 16.6608 11.6671 16.8275 11.6671 17.0742V20.5812C11.6671 20.8812 11.627 21.0946 11.547 21.2212C11.327 21.5747 10.9336 21.6013 10.5269 21.5013Z" fill="white"/>
<path d="M15.294 9.22012C14.7873 9.17345 14.5272 9.17345 14.0272 9.45348C11.5356 10.8269 9.04646 12.2047 6.55985 13.5873C6.18749 13.814 5.78598 13.989 5.36639 14.1074C3.47955 14.5007 1.80605 12.7072 2.48611 10.9603C2.73281 10.327 3.0795 10.0068 3.59956 9.68015C7.13324 8.52678 12.8004 7.33333 15.294 9.21343V9.22012Z" fill="white"/>
<path d="M15.1606 9.20656L15.3739 9.22648C15.4806 9.23316 15.574 9.25977 15.6406 9.29322C16.174 9.59316 16.3073 9.98659 16.3274 10.5466C16.414 5.1861 12.1536 5.56615 10.5935 5.7995L4.32619 9.26646L4.23285 9.31982C3.99949 9.44645 3.7928 9.55986 3.61279 9.67327C7.11313 8.51976 12.6937 7.33965 15.1606 9.20656Z" fill="white"/>
</svg>
