<svg width="24" height="24" viewBox="0 0 24 24" fill="none" xmlns="http://www.w3.org/2000/svg">
<path fill-rule="evenodd" clip-rule="evenodd" d="M21.2414 10.9546C21.6324 10.4682 21.7505 10.0591 21.6823 9.73178C21.6096 9.40449 21.3369 9.09084 20.7823 8.82264C20.2369 8.56353 19.4641 8.37716 18.5095 8.28625C16.6138 8.10442 14.0728 8.30897 11.3409 8.94537C8.6089 9.58632 6.22696 10.5364 4.58596 11.5455C3.89854 11.9417 3.28114 12.4485 2.75859 13.0456C2.36311 13.532 2.24947 13.9411 2.31766 14.273C2.39039 14.6002 2.66313 14.9139 3.21771 15.1821C3.76319 15.4412 4.53595 15.6275 5.49055 15.7184C7.38612 15.9003 9.92721 15.6957 12.6592 15.0593C15.3911 14.4184 17.773 13.4683 19.414 12.4592C20.1014 12.063 20.7188 11.5562 21.2414 10.9591V10.9546ZM12.7274 15.3594C18.2367 14.0684 22.3733 11.5182 21.9733 9.6636C21.5733 7.80895 16.7821 7.34983 11.2727 8.64081C5.7633 9.93178 1.62671 12.4819 2.02673 14.3366C2.42675 16.1912 7.21793 16.6503 12.7274 15.3594Z" fill="white"/>
<path fill-rule="evenodd" clip-rule="evenodd" d="M19.5686 11.0911C19.8868 10.7002 19.9731 10.3865 19.9186 10.1456C19.8686 9.90469 19.6595 9.65468 19.214 9.44103C18.7686 9.23192 18.1412 9.07737 17.3594 9.00918C15.8047 8.86372 13.7182 9.03191 11.4727 9.55467C9.22709 10.0865 7.2679 10.8638 5.92691 11.6912C5.36376 12.0108 4.85699 12.4208 4.42683 12.9049C4.10863 13.3003 4.0268 13.6139 4.08135 13.8595C4.13136 14.0958 4.34046 14.3458 4.78594 14.5595C5.23142 14.7686 5.85873 14.9231 6.64059 14.9913C8.19521 15.1368 10.2817 14.9686 12.5273 14.4458C14.7728 13.914 16.7321 13.1366 18.0731 12.3093C18.6362 11.9897 19.143 11.5797 19.5731 11.0957L19.5686 11.0911ZM12.5955 14.7459C17.1321 13.6867 20.5413 11.5957 20.214 10.0775C19.8868 8.55916 15.9411 8.19096 11.4045 9.25465C6.86788 10.3138 3.4586 12.4048 3.78589 13.9231C4.11317 15.4414 8.05884 15.8095 12.5955 14.7459Z" fill="white"/>
<path fill-rule="evenodd" clip-rule="evenodd" d="M17.8955 11.2367C18.1409 10.9367 18.1955 10.714 18.1591 10.5549C18.1273 10.4002 17.9864 10.223 17.6409 10.0593C17.1852 9.87114 16.7013 9.76052 16.209 9.73207C14.9953 9.62298 13.3635 9.7548 11.6042 10.1685C10.0817 10.4989 8.61792 11.0583 7.26307 11.8277C6.73577 12.1459 6.34485 12.4685 6.10393 12.764C5.85846 13.0641 5.80391 13.2868 5.84027 13.4459C5.87209 13.6005 6.01301 13.7777 6.35849 13.9414C6.69486 14.1005 7.1767 14.2142 7.79038 14.2687C9.00408 14.3777 10.636 14.246 12.3952 13.8323C13.9178 13.5018 15.3815 12.9424 16.7364 12.1731C17.2636 11.8549 17.6546 11.5322 17.8955 11.2367ZM12.4634 14.1369C16.0272 13.3004 18.7092 11.6686 18.4546 10.4867C18.2001 9.30478 15.0999 9.03203 11.536 9.8639C7.9722 10.7003 5.29024 12.3322 5.5448 13.5141C5.79936 14.6959 8.89953 14.9687 12.4634 14.1369Z" fill="white"/>
<path fill-rule="evenodd" clip-rule="evenodd" d="M16.2272 11.3773C16.3999 11.1681 16.4136 11.0363 16.3999 10.9682C16.3863 10.9 16.3136 10.7863 16.0726 10.6773C15.7493 10.5476 15.4068 10.4724 15.0589 10.4545C14.1908 10.3818 13.0134 10.4818 11.7361 10.7773C10.4633 11.0772 9.35407 11.5136 8.59949 11.9682C8.21765 12.1955 7.94037 12.4228 7.77217 12.6228C7.59944 12.8319 7.5858 12.9637 7.59944 13.0319C7.61307 13.1001 7.68581 13.2137 7.92673 13.3229C8.15856 13.4274 8.49949 13.5047 8.94041 13.5456C9.80864 13.6183 10.986 13.5182 12.2633 13.2229C13.3622 12.9839 14.4193 12.5824 15.3999 12.0318C15.7817 11.8045 16.059 11.5772 16.2272 11.3773ZM12.3315 13.5274C14.9226 12.9182 16.8772 11.7455 16.6954 10.9C16.5136 10.059 14.2634 9.86809 11.6679 10.4727C9.07678 11.0818 7.12214 12.2546 7.30396 13.1001C7.48579 13.941 9.73591 14.132 12.3315 13.5274Z" fill="white"/>
<path fill-rule="evenodd" clip-rule="evenodd" d="M14.7724 11.9908C14.7588 11.9818 14.727 11.9454 14.6406 11.9091C14.4496 11.8382 14.2486 11.7983 14.0451 11.7909C13.5133 11.75 12.7905 11.8136 11.9995 12C11.2086 12.1818 10.5268 12.45 10.0631 12.7227C9.83124 12.8591 9.6676 12.9864 9.57668 13.0955C9.5085 13.1727 9.49486 13.2137 9.49486 13.2318C9.50395 13.2409 9.53123 13.2728 9.62214 13.3137C9.74942 13.3682 9.94945 13.4137 10.2176 13.4319C10.7495 13.4728 11.4722 13.4046 12.2632 13.2228C13.0541 13.0364 13.736 12.7682 14.1996 12.4955C14.4315 12.3591 14.5952 12.2318 14.6861 12.1227C14.7543 12.05 14.7678 12.0091 14.7678 11.9908H14.7724ZM12.3314 13.5273C13.9496 13.1455 15.1725 12.4273 15.0633 11.9227C14.9543 11.4181 13.5542 11.3136 11.9314 11.6954C10.313 12.0727 9.0903 12.7909 9.1994 13.2955C9.3085 13.8046 10.7086 13.9046 12.3314 13.5228V13.5273Z" fill="white"/>
<path d="M14.1089 12.6503C13.6134 12.964 12.8633 13.2595 11.9996 13.464C11.1361 13.664 10.3406 13.7322 9.7632 13.6731C9.58429 13.4053 9.45781 13.1061 9.39045 12.7912C9.24295 12.1539 9.35058 11.4842 9.69037 10.9254C10.0301 10.3664 10.5751 9.9625 11.2087 9.80014C11.522 9.73185 11.8458 9.72679 12.1612 9.78527C12.4765 9.84376 12.777 9.96462 13.045 10.1407C13.313 10.3169 13.5431 10.5447 13.7219 10.8109C13.9007 11.0772 14.0246 11.3765 14.0862 11.6912C14.1544 12.0185 14.1589 12.3411 14.1089 12.6503Z" fill="white"/>
<path d="M12.5956 8.59074C12.4455 10.1453 12.6274 11.3363 12.7319 11.8273L12.441 11.8954C12.2276 10.7966 12.1785 9.67217 12.2955 8.55892L12.5956 8.58619V8.59074ZM9.38173 9.30896C10.3318 10.1499 10.9318 11.5818 11.1182 12.1955L10.8272 12.2864C10.65 11.6955 10.0727 10.3318 9.19081 9.54534L9.38173 9.30896ZM16.7457 8.15891C14.3365 9.22259 13.9501 11.3272 14.0456 12.2092H13.8183C13.7138 11.2136 14.0002 9.07713 16.5458 7.95435L16.7457 8.15891ZM7.90891 11.4318C8.21348 11.5091 8.48622 11.6 8.64987 11.7045C9.089 11.9743 9.41528 12.3943 9.5681 12.8864L9.27263 12.9592C9.13669 12.5484 8.85971 12.1989 8.49077 11.9727C8.28557 11.8607 8.06502 11.7796 7.83618 11.7319C7.53617 11.6591 7.17705 11.5909 6.79977 11.5318C6.10601 11.4265 5.40849 11.3477 4.70874 11.2954L4.89057 11.0318C5.41787 11.0727 6.077 11.0999 6.84523 11.2227C7.22706 11.2818 7.59526 11.35 7.90891 11.4318ZM18.3095 9.20441C19.2505 8.88621 20.2005 8.6362 20.7914 8.49528L20.8596 8.79984C20.2732 8.93621 19.3323 9.19077 18.4049 9.50443C17.4686 9.82263 16.5685 10.1863 16.0548 10.5545C15.3773 11.0971 14.7777 11.7303 14.2729 12.4364C14.9274 12.0137 15.3275 11.3818 16.1366 11.1909C16.8458 11.0273 17.6049 10.9682 18.3232 10.9408C19.3686 10.8954 20.5505 10.859 21.3188 10.8409L21.3278 11.1545C20.5596 11.1727 19.3822 11.2091 18.3367 11.25C17.6367 11.2818 16.8913 11.3363 16.2048 11.4954C15.523 11.6545 14.8548 12.1955 14.2956 12.5955C14.4911 12.5819 14.7229 12.5864 14.9865 12.6137C15.6457 12.6909 16.5321 12.9182 17.6413 13.4365L17.5185 13.7228C16.7123 13.3215 15.8466 13.0529 14.9548 12.9273C14.567 12.8557 14.1674 12.8871 13.7956 13.0182L13.6592 12.7364C13.7501 12.6909 13.8684 12.6546 14.0229 12.6273C14.1593 12.2454 14.7956 11.0818 15.8866 10.3C16.4412 9.90445 17.3821 9.52261 18.314 9.20896L18.3095 9.20441ZM7.27251 12.9455C7.68981 12.8315 8.12835 12.8189 8.55145 12.9091C8.97456 12.9993 9.36992 13.1894 9.70447 13.4637L9.87721 15.7275L9.57719 15.7502L9.42264 13.5228C9.10444 13.4183 8.37712 13.4774 8.11802 13.6956C7.69981 14.0502 6.00882 15.3684 5.21786 15.9821L5.03603 15.7275C5.83153 15.1138 7.51798 13.8046 7.93164 13.4546C8.09983 13.3046 9.06807 13.3728 9.27717 13.3501C8.71351 13.0182 7.79982 13.1455 7.3407 13.2501L2.35407 14.4183L2.28589 14.1138L7.27251 12.9455Z" fill="white"/>
</svg>
