<svg width="24" height="24" viewBox="0 0 24 24" fill="none" xmlns="http://www.w3.org/2000/svg">
<path d="M12.4284 5.57122C12.9018 5.57122 13.2856 5.18746 13.2856 4.71408C13.2856 4.24069 12.9018 3.85693 12.4284 3.85693C11.955 3.85693 11.5713 4.24069 11.5713 4.71408C11.5713 5.18746 11.955 5.57122 12.4284 5.57122Z" fill="white"/>
<path d="M9.857 7.1355V8.29265C9.857 8.44693 9.98986 8.57122 10.157 8.57122H11.5499C12.5913 8.57122 13.2856 9.18408 13.2856 10.1569V10.7141H12.0856C11.6297 10.7084 11.1772 10.7926 10.7538 10.9619C10.3305 11.1311 9.94461 11.3821 9.61827 11.7005C9.29194 12.0188 9.03151 12.3984 8.85187 12.8174C8.67222 13.2364 8.57688 13.6868 8.57129 14.1426C8.57129 16.0369 10.1441 17.5712 12.0856 17.5712H13.4141C13.5813 17.5712 13.7141 17.4426 13.7141 17.2712V14.4426C13.7141 14.2755 13.5727 14.1426 13.4013 14.1426H11.7641C11.657 14.1426 11.5713 14.2369 11.5713 14.3484V15.2226C11.5713 15.3341 11.657 15.4284 11.7641 15.4284H12.4284V15.8569H12.047C11.8179 15.8609 11.5903 15.8197 11.3772 15.7357C11.164 15.6517 10.9695 15.5265 10.8047 15.3673C10.64 15.2081 10.5082 15.018 10.4169 14.8079C10.3256 14.5978 10.2766 14.3717 10.2727 14.1426C10.2727 13.1998 11.0699 12.4284 12.047 12.4284H14.7556C14.8884 12.4284 14.9999 12.3084 14.9999 12.1626V10.1141C14.9999 8.32693 13.4441 6.85693 11.5284 6.85693H10.157C9.98986 6.85693 9.857 6.9855 9.857 7.1355Z" fill="white"/>
<path d="M11.5713 5.99979H11.9999V7.2855H11.5713V5.99979ZM11.5713 17.1426H11.9999V19.2855H11.5713V17.1426ZM12.4284 5.99979H12.857V7.2855H12.4284V5.99979ZM12.4284 17.5712H12.857V19.2855H12.4284V17.5712ZM17.5713 8.37836L17.2584 8.14265L16.4699 8.99979H14.5713V9.42836H16.6627L17.5713 8.37836ZM6.42843 11.8069L6.74129 11.5712L7.52986 12.4284H9.42843V12.8569H7.337L6.42843 11.8069ZM18.4284 10.9069L18.1113 11.1426L17.3141 10.2855H14.5713V9.85693H17.507L18.4284 10.9069ZM5.57129 14.3355L5.88843 14.5712L6.68557 13.7141H9.42843V13.2855H6.49272L5.57129 14.3355Z" fill="white"/>
<path d="M17.5713 11.7641L17.2541 11.9998L16.457 11.1426H14.1427V10.7141H16.6499L17.5713 11.7641ZM6.42843 15.1926L6.74557 15.4284L7.54272 14.5712H9.857V14.1426H7.34986L6.42843 15.1926Z" fill="white"/>
<path d="M16.7141 12.6212L16.3713 12.8569L15.527 11.9998H13.7141V11.5712H15.7327L16.7141 12.6212ZM7.28557 16.0498L7.62843 16.2855L8.47272 15.4284H10.2856V14.9998H8.267L7.28557 16.0498Z" fill="white"/>
</svg>
