<svg width="24" height="24" viewBox="0 0 24 24" fill="none" xmlns="http://www.w3.org/2000/svg">
<path d="M7.98175 10.2724L5.78174 9.27234L6.34841 8.26123L8.54841 9.2668L7.98175 10.2668V10.2724Z" fill="white"/>
<path d="M12.2433 8.61134C12.4044 8.61134 12.5322 8.47246 12.5322 8.30579C12.5322 8.13913 12.4044 8.00024 12.2433 8.00024C12.0822 8.00024 11.9543 8.13913 11.9543 8.30579C11.9543 8.47246 12.0822 8.61134 12.2433 8.61134ZM11.4544 8.43357C11.4652 8.40133 11.4708 8.36758 11.4711 8.33357C11.4711 8.16691 11.3433 8.02802 11.1821 8.02802C11.0266 8.02802 10.8933 8.16691 10.8933 8.33357C10.8933 8.50024 11.0266 8.63912 11.1821 8.63912C11.2184 8.6387 11.2543 8.63114 11.2878 8.61691L11.4322 8.77246C11.4243 8.80143 11.4207 8.83135 11.421 8.86135C11.421 9.02801 11.5489 9.16691 11.71 9.16691C11.8655 9.16691 11.9932 9.02801 11.9932 8.86135C11.9932 8.69468 11.8655 8.5558 11.71 8.5558C11.6717 8.55533 11.6339 8.5629 11.5989 8.57802L11.4544 8.43357ZM10.9488 8.82802C10.9488 8.99469 10.8155 9.13357 10.66 9.13357C10.6452 9.13476 10.6303 9.13476 10.6155 9.13357L10.4211 9.478C10.4521 9.52803 10.4685 9.58585 10.4685 9.6447C10.4685 9.70355 10.4521 9.76124 10.4211 9.81141L10.521 9.96696C10.5499 9.95841 10.5799 9.95465 10.61 9.95581C10.7655 9.95581 10.8989 10.0891 10.8989 10.2613C10.8989 10.4281 10.7655 10.5613 10.61 10.5613C10.4488 10.5613 10.321 10.4281 10.321 10.2613C10.321 10.2169 10.3266 10.178 10.3433 10.1447L10.2155 9.95024C10.2043 9.95089 10.1933 9.95089 10.1822 9.95024C10.021 9.95024 9.89323 9.81685 9.89323 9.65028C9.89323 9.48357 10.021 9.34469 10.1822 9.34469C10.1914 9.34422 10.2007 9.34422 10.2099 9.34469L10.4099 8.98358C10.3839 8.93591 10.3705 8.88235 10.371 8.82802C10.371 8.66136 10.4989 8.52246 10.66 8.52246C10.8155 8.52246 10.9488 8.66136 10.9488 8.82802ZM9.67104 9.21691C9.83217 9.21691 9.95999 9.08357 9.95999 8.91691C9.95999 8.75024 9.83217 8.61134 9.67104 8.61134C9.50991 8.61134 9.38223 8.74468 9.38223 8.91691C9.38223 8.9558 9.39325 8.99469 9.4044 9.02801L9.17106 9.3558C9.14581 9.34836 9.11961 9.34461 9.09328 9.34469C8.93773 9.34469 8.80995 9.478 8.80995 9.65028C8.80995 9.81685 8.93773 9.95581 9.09328 9.95581C9.25995 9.95581 9.38223 9.81685 9.38223 9.65028C9.38365 9.60659 9.37614 9.56303 9.35995 9.52246L9.58212 9.2058C9.61556 9.21691 9.63773 9.22246 9.67104 9.22246V9.21691ZM11.4711 9.52803C11.4711 9.69474 11.3433 9.83357 11.1821 9.83357C11.0266 9.83357 10.8933 9.69474 10.8933 9.52803C10.8933 9.36136 11.0266 9.22246 11.1821 9.22246C11.3433 9.22246 11.4711 9.3558 11.4711 9.52803ZM11.4155 12.8613C11.4175 12.7872 11.3919 12.7149 11.3437 12.6583C11.2954 12.6019 11.228 12.5654 11.1544 12.5558C10.9937 12.4437 10.8776 12.2784 10.8266 12.0891C10.8415 12.0464 10.8472 12.001 10.8433 11.9557C10.8877 11.6947 11.0655 11.5169 11.1933 11.4392C11.3267 11.4113 11.4155 11.2892 11.4155 11.1391C11.4155 10.9725 11.2932 10.8391 11.1377 10.8391C10.9711 10.8391 10.8433 10.9725 10.8433 11.1391L10.8489 11.1947C10.7932 11.4725 10.66 11.6113 10.5489 11.6781C10.3933 11.6781 10.2711 11.8169 10.2711 11.9836C10.2711 12.128 10.3655 12.2503 10.4933 12.2836C10.6321 12.3669 10.8266 12.5336 10.8655 12.7502C10.8516 12.7856 10.8441 12.8234 10.8433 12.8613C10.8433 13.028 10.9711 13.1613 11.1322 13.1613C11.2932 13.1613 11.421 13.028 11.421 12.8613H11.4155ZM8.8655 11.9836C8.8655 12.1502 8.73772 12.2891 8.57662 12.2891C8.42106 12.2891 8.29329 12.1502 8.29329 11.9836C8.29329 11.8169 8.42106 11.6781 8.57662 11.6781C8.73772 11.6781 8.8655 11.8169 8.8655 11.9836ZM9.27662 12.8946C9.30656 12.8444 9.32195 12.7867 9.32106 12.7281C9.32106 12.5614 9.18773 12.428 9.03218 12.428C8.87106 12.428 8.74328 12.5614 8.74328 12.7335C8.74328 12.9002 8.87106 13.0336 9.03218 13.0336H9.0655L9.3544 13.5113C9.33201 13.5561 9.32059 13.6057 9.32106 13.6558C9.32106 13.8224 9.44886 13.9614 9.60441 13.9614C9.76554 13.9614 9.89323 13.828 9.89323 13.6558C9.89323 13.4891 9.76554 13.3557 9.60441 13.3557C9.58782 13.3543 9.57097 13.3543 9.55438 13.3557L9.27662 12.8946ZM8.92106 13.5392C8.92106 13.7057 8.79328 13.8447 8.63218 13.8447C8.47662 13.8447 8.34329 13.7113 8.34329 13.5392C8.34329 13.3725 8.47662 13.2336 8.63218 13.2336C8.79328 13.2336 8.92106 13.3725 8.92106 13.5392ZM8.29329 13.0392C8.44884 13.0392 8.57662 12.9002 8.57662 12.7335C8.57662 12.5669 8.44884 12.428 8.29329 12.428C8.13217 12.428 8.00439 12.5614 8.00439 12.7335C8.00439 12.9002 8.13217 13.0336 8.29329 13.0336V13.0392ZM8.92106 10.3947C8.92106 10.4502 8.90439 10.5058 8.88217 10.5503L9.08772 10.8391H9.15439L9.3544 10.5447C9.33114 10.4982 9.31968 10.4467 9.32106 10.3947C9.32106 10.228 9.44886 10.0891 9.60441 10.0891C9.76554 10.0891 9.89323 10.228 9.89323 10.3947C9.89323 10.5613 9.76554 10.7003 9.60441 10.7003H9.55438L9.34884 11.0002C9.37108 11.0447 9.38223 11.0892 9.38223 11.1446C9.38223 11.3114 9.2544 11.4502 9.09328 11.4502C8.93773 11.4502 8.80995 11.3114 8.80995 11.1446C8.80995 11.0724 8.83217 11.0058 8.8655 10.9558L8.67662 10.6947L8.64329 10.7003L8.49328 11.0224C8.54884 11.078 8.57662 11.1558 8.57662 11.2391C8.57662 11.4059 8.44884 11.5447 8.29329 11.5447C8.13217 11.5447 8.00439 11.4059 8.00439 11.2391C8.00439 11.078 8.1155 10.9502 8.26551 10.9336L8.42106 10.6002C8.37143 10.5432 8.34384 10.4703 8.34329 10.3947C8.34329 10.228 8.47662 10.0891 8.63218 10.0891C8.79328 10.0891 8.92106 10.228 8.92106 10.3947ZM10.0322 11.4502C10.1933 11.4502 10.321 11.3114 10.321 11.1391C10.321 10.9725 10.1933 10.8391 10.0322 10.8391C9.87664 10.8391 9.74325 10.9725 9.74325 11.1391C9.74325 11.3058 9.87664 11.4447 10.0322 11.4447V11.4502ZM10.5543 14.0058C10.721 14.0058 10.8433 13.8724 10.8433 13.7003C10.8433 13.5336 10.7155 13.3946 10.5543 13.3946C10.3988 13.3946 10.2711 13.5336 10.2711 13.7003C10.2711 13.8669 10.3988 14.0058 10.5543 14.0058ZM11.4544 14.4725C11.4544 14.6391 11.3267 14.778 11.1655 14.778C11.1333 14.778 11.1012 14.7725 11.071 14.7613L10.9432 14.9836C10.9544 15.0114 10.96 15.0503 10.96 15.0836C10.96 15.2503 10.8321 15.3891 10.671 15.3891C10.5155 15.3891 10.3878 15.2559 10.3878 15.0836V15.028L10.1321 14.7336C10.0916 14.7493 10.0477 14.755 10.0045 14.7503L9.94884 14.8836C9.9933 14.9392 10.0155 15.0058 10.0155 15.0836C10.0155 15.2503 9.88778 15.3891 9.73223 15.3891C9.5711 15.3891 9.44328 15.2559 9.44328 15.0836C9.44328 14.9169 9.56553 14.7836 9.72108 14.778L9.79328 14.6169C9.7614 14.5671 9.74403 14.5093 9.74325 14.4502C9.74325 14.2836 9.87664 14.1447 10.0322 14.1447C10.1933 14.1447 10.321 14.2781 10.321 14.4502L10.3044 14.5503L10.5377 14.8169C10.5712 14.798 10.6083 14.7863 10.6465 14.7824C10.6847 14.7787 10.7234 14.7828 10.7599 14.7946L10.8933 14.5724C10.8824 14.5402 10.8769 14.5065 10.8766 14.4725C10.8766 14.3058 11.01 14.167 11.1655 14.167C11.3267 14.167 11.4544 14.3058 11.4544 14.4725ZM11.9932 12.0614C11.9932 12.228 11.8655 12.3669 11.71 12.3669C11.5489 12.3669 11.421 12.228 11.421 12.0614C11.421 11.8947 11.5377 11.7669 11.6877 11.7559C11.7878 11.6891 11.91 11.5447 11.9822 11.2669C11.9521 11.1965 11.9482 11.1177 11.9711 11.0447C11.9543 10.9225 11.8766 10.7003 11.6933 10.5613C11.6177 10.5557 11.5469 10.5216 11.4953 10.466C11.4439 10.4103 11.4153 10.3372 11.4155 10.2613C11.4155 10.0946 11.5489 9.95581 11.71 9.95581C11.8655 9.95581 11.9932 10.0891 11.9932 10.2613C11.9932 10.3114 11.9822 10.3559 11.9655 10.4002C12.0211 10.5391 12.1322 10.7836 12.2377 10.8391C12.4044 10.8391 12.5322 10.9725 12.5322 11.1391C12.5322 11.2613 12.4655 11.3614 12.3655 11.4169L12.3821 11.4224C12.271 11.4836 12.0488 11.6891 11.9932 12.0281V12.0614ZM12.2822 13.1613C12.4433 13.1613 12.5711 13.028 12.5711 12.8613C12.5711 12.6946 12.4433 12.5558 12.2822 12.5558C12.1266 12.5558 11.9932 12.6892 11.9932 12.8613C11.9932 12.9058 12.0044 12.9503 12.0211 12.9891L11.7822 13.3557H11.7433C11.5822 13.3557 11.4544 13.4891 11.4544 13.6558C11.4544 13.8224 11.5822 13.9614 11.7433 13.9614C11.8989 13.9614 12.0321 13.828 12.0321 13.6558C12.0321 13.6002 12.0155 13.5447 11.9878 13.4947L12.21 13.1559L12.2822 13.1613ZM12.5322 14.4725C12.5322 14.6391 12.4044 14.778 12.2433 14.778C12.0822 14.778 11.9543 14.6446 11.9543 14.4725C11.9543 14.3058 12.0822 14.167 12.2433 14.167C12.4044 14.167 12.5322 14.3058 12.5322 14.4725ZM12.7656 15.4557C12.9266 15.4557 13.0544 15.3225 13.0544 15.1502C13.0544 14.9836 12.9266 14.8447 12.7656 14.8447C12.61 14.8447 12.4822 14.9836 12.4822 15.1502C12.4822 15.3169 12.61 15.4557 12.7656 15.4557ZM13.1044 11.9836C13.1044 12.1502 12.9766 12.2891 12.8155 12.2891C12.6599 12.2891 12.5322 12.1502 12.5322 11.9836C12.5322 11.8169 12.6599 11.6781 12.821 11.6781C12.9766 11.6781 13.1044 11.8169 13.1044 11.9836ZM13.3433 13.1724C13.4989 13.1724 13.6321 13.0392 13.6321 12.8669C13.6321 12.7002 13.4989 12.5614 13.3433 12.5614C13.1822 12.5614 13.0544 12.7002 13.0544 12.8669C13.0544 12.9114 13.0655 12.9558 13.0767 12.9891L12.8711 13.3224H12.8599C12.6988 13.3224 12.5711 13.4558 12.5711 13.6225C12.5711 13.7891 12.6988 13.9281 12.8599 13.9281C13.0155 13.9281 13.1489 13.7947 13.1489 13.6225C13.1481 13.5565 13.1267 13.4924 13.0877 13.4391L13.2655 13.1613C13.2877 13.1724 13.3155 13.1724 13.3433 13.1724ZM13.6321 14.4502C13.6321 14.5058 13.61 14.5669 13.5767 14.6169L13.6822 14.7836C13.6914 14.7831 13.7007 14.7831 13.7099 14.7836C13.871 14.7836 13.9989 14.9169 13.9989 15.0836C13.9989 15.2503 13.871 15.3891 13.7099 15.3891C13.5488 15.3891 13.4211 15.2559 13.4211 15.0836C13.4211 15.0225 13.4433 14.9613 13.4766 14.9169L13.3711 14.7503H13.3433C13.1822 14.7503 13.0544 14.6169 13.0544 14.4502C13.0544 14.2836 13.1822 14.1447 13.3433 14.1447C13.4989 14.1447 13.6321 14.2781 13.6321 14.4502ZM13.9099 13.9281C14.0766 13.9281 14.1989 13.7947 14.1989 13.6225C14.1989 13.4558 14.0711 13.3169 13.9155 13.3169C13.7544 13.3169 13.6266 13.4558 13.6266 13.6225C13.6266 13.7891 13.7544 13.9281 13.9155 13.9281H13.9099ZM14.5766 14.3947C14.5766 14.5613 14.4432 14.7003 14.2877 14.7003C14.1267 14.7003 13.9989 14.5613 13.9989 14.3947C13.9989 14.228 14.1267 14.0892 14.2877 14.0892C14.4432 14.0892 14.571 14.2224 14.571 14.3947H14.5766ZM14.7766 12.3003C14.9378 12.3003 15.0655 12.1613 15.0655 11.9946C15.0655 11.8281 14.9378 11.6891 14.7766 11.6891C14.6155 11.6891 14.4877 11.8225 14.4877 11.9946C14.4877 12.1613 14.6155 12.3003 14.7766 12.3003ZM14.5545 12.9447C14.6044 12.8891 14.6322 12.8169 14.6322 12.7391C14.6322 12.5725 14.5044 12.4336 14.3433 12.4336C14.1877 12.4336 14.0543 12.5725 14.0543 12.7391C14.0543 12.9058 14.1766 13.0392 14.3321 13.0446L14.5156 13.3447C14.4983 13.3832 14.4889 13.4247 14.4877 13.467C14.4877 13.6335 14.6155 13.7725 14.7766 13.7725C14.9378 13.7725 15.0655 13.6391 15.0655 13.467C15.0647 13.4077 15.0474 13.35 15.0155 13.3003L15.1655 13.0057C15.3044 13.0057 15.41 12.8946 15.41 12.7502C15.41 12.6058 15.2988 12.4947 15.1711 12.4947C15.0377 12.4947 14.9266 12.6058 14.9266 12.7502C14.9266 12.7947 14.9378 12.8392 14.9544 12.8725L14.8044 13.1669C14.7693 13.1618 14.7333 13.1638 14.6989 13.1724L14.5599 12.9447H14.5545ZM9.69334 12.1558C9.72665 12.1113 9.74882 12.0447 9.74882 11.9892C9.74882 11.8169 9.61556 11.6781 9.46001 11.6781C9.29328 11.6781 9.17106 11.8169 9.17106 11.9836C9.17106 12.1502 9.29884 12.2891 9.46001 12.2891H9.48217L9.77112 12.7335C9.75297 12.7738 9.74351 12.8173 9.74325 12.8613C9.74325 13.028 9.87664 13.1613 10.0322 13.1613C10.1933 13.1613 10.321 13.028 10.321 12.8613C10.321 12.6946 10.1933 12.5558 10.0322 12.5558C10.008 12.5545 9.98371 12.5563 9.95999 12.5614L9.69334 12.1558ZM12.1099 15.4003L11.9711 15.2669C11.9849 15.2315 11.9925 15.1939 11.9932 15.1558C11.9932 14.9836 11.8655 14.8447 11.71 14.8447C11.5489 14.8447 11.421 14.9836 11.421 15.1502C11.421 15.3169 11.5489 15.4557 11.71 15.4557C11.7377 15.4557 11.7655 15.4557 11.7933 15.4447L11.9266 15.5724C11.9113 15.6114 11.9038 15.6529 11.9044 15.6947C11.9044 15.8614 12.0321 16.0002 12.1932 16.0002C12.3488 16.0002 12.4822 15.8614 12.4822 15.6947C12.4822 15.5281 12.3488 15.3891 12.1932 15.3891C12.1651 15.3886 12.137 15.3924 12.1099 15.4003ZM11.5377 15.6947C11.5377 15.8614 11.4099 16.0002 11.2489 16.0002C11.0878 16.0002 10.96 15.8614 10.96 15.6947C10.96 15.5281 11.0878 15.3891 11.2489 15.3891C11.4099 15.3891 11.5377 15.5281 11.5377 15.6947ZM9.44328 14.3114C9.44328 14.4781 9.31551 14.6169 9.15439 14.6169C8.99329 14.6169 8.8655 14.4781 8.8655 14.3114C8.8655 14.1447 8.99329 14.0058 9.15439 14.0058C9.31551 14.0058 9.44328 14.1447 9.44328 14.3114ZM13.5433 11.1891C13.5433 11.228 13.5378 11.2613 13.5266 11.2946L13.7767 11.6835H13.8433C14.0044 11.6835 14.1321 11.8169 14.1321 11.9836C14.1321 12.1502 14.0044 12.2891 13.8433 12.2891C13.6878 12.2891 13.5544 12.1502 13.5544 11.9836C13.5544 11.9336 13.5655 11.8891 13.5877 11.8502L13.3266 11.4502H13.2989C13.1655 11.4502 13.0544 11.3391 13.0544 11.1891C13.0544 11.0503 13.1655 10.9336 13.2989 10.9336C13.4321 10.9336 13.5433 11.0447 13.5433 11.1891ZM14.71 11.2391C14.71 11.4059 14.5766 11.5447 14.4211 11.5447C14.2599 11.5447 14.1321 11.4059 14.1321 11.2391C14.1321 11.0724 14.2599 10.9336 14.4211 10.9336C14.5766 10.9336 14.71 11.0669 14.71 11.2391ZM14.1321 10.3503C14.1321 10.5169 14.0044 10.6614 13.8433 10.6614C13.6878 10.6614 13.5544 10.5224 13.5544 10.3558C13.5544 10.1891 13.6878 10.0502 13.8433 10.0502C14.0044 10.0502 14.1321 10.1836 14.1321 10.3558V10.3503ZM13.0432 8.86135C13.0432 9.02801 12.9155 9.16691 12.7544 9.16691C12.5989 9.16691 12.471 9.02801 12.471 8.86135C12.471 8.69468 12.5989 8.5558 12.7544 8.5558C12.9155 8.5558 13.0432 8.69468 13.0432 8.86135ZM13.7432 9.25024C13.9044 9.25024 14.0322 9.11135 14.0322 8.94469C14.0322 8.77802 13.9044 8.63912 13.7432 8.63912C13.5877 8.63912 13.4544 8.77802 13.4544 8.94469C13.4544 9.11135 13.5877 9.25024 13.7432 9.25024ZM12.5711 9.52803C12.5711 9.69474 12.4433 9.83357 12.2822 9.83357C12.1266 9.83357 11.9932 9.69474 11.9932 9.52803C11.9932 9.36136 12.1266 9.22246 12.2822 9.22246C12.4433 9.22246 12.5711 9.3558 12.5711 9.52803ZM14.1989 9.95581C14.3655 9.95581 14.4877 9.81685 14.4877 9.65028C14.4877 9.48357 14.36 9.34469 14.1989 9.34469C14.0433 9.34469 13.9155 9.478 13.9155 9.65028C13.9155 9.81685 14.0433 9.95581 14.1989 9.95581ZM13.3766 9.88918C13.4306 9.86429 13.4762 9.82424 13.5077 9.77394C13.5393 9.72365 13.5555 9.66518 13.5544 9.60581C13.5544 9.43911 13.4267 9.30024 13.2711 9.30024C13.11 9.30024 12.9822 9.43353 12.9822 9.60581C12.9822 9.63913 12.9822 9.67244 12.9933 9.70018C12.9555 9.82865 12.8726 9.93909 12.76 10.0113C12.6926 10.032 12.6339 10.0742 12.5926 10.1313C12.5515 10.1885 12.5303 10.2576 12.5322 10.328C12.5322 10.5058 12.6711 10.6558 12.8378 10.6558C13.0043 10.6558 13.1489 10.5058 13.1489 10.328C13.1489 10.2947 13.1433 10.2614 13.1322 10.2336C13.1655 10.0946 13.2877 9.96139 13.3766 9.88918ZM15.0655 10.4835C15.0655 10.5669 15.0321 10.6502 14.9767 10.7059L15.0655 10.928C15.2266 10.9336 15.3544 11.0724 15.3544 11.2391C15.3544 11.4059 15.221 11.5447 15.0655 11.5447C14.9045 11.5447 14.7766 11.4059 14.7766 11.2391C14.7766 11.1614 14.8044 11.0947 14.8433 11.0391L14.7433 10.7836C14.6716 10.7729 14.6063 10.7366 14.5594 10.6815C14.5123 10.6263 14.4869 10.556 14.4877 10.4835C14.4877 10.317 14.6155 10.178 14.7766 10.178C14.9378 10.178 15.0655 10.3114 15.0655 10.4835Z" fill="white"/>
<path d="M11.9548 5.00001C12.7715 5.00001 13.4382 4.33334 13.4382 3.50001C13.4382 2.66667 12.7715 2 11.9548 2C11.7588 2.00073 11.5649 2.04015 11.3842 2.11599C11.2035 2.19184 11.0395 2.30262 10.9017 2.44199C10.7639 2.58134 10.655 2.74654 10.5811 2.92811C10.5074 3.10967 10.47 3.30401 10.4716 3.50001C10.4716 4.33334 11.1381 5.00001 11.9548 5.00001ZM19.3604 9.46118C19.5625 9.47349 19.765 9.44445 19.9553 9.37559C20.1457 9.30679 20.3199 9.19974 20.4675 9.06105C20.6148 8.92234 20.7324 8.75494 20.8128 8.56912C20.893 8.38329 20.9345 8.183 20.9345 7.98057C20.9345 7.77813 20.893 7.57784 20.8128 7.39201C20.7324 7.2062 20.6148 7.03879 20.4675 6.90008C20.3199 6.76139 20.1457 6.65434 19.9553 6.58554C19.765 6.51673 19.5625 6.48763 19.3604 6.50001C18.9835 6.52312 18.6294 6.68916 18.3707 6.96427C18.112 7.2394 17.9678 7.60287 17.9678 7.98057C17.9678 8.35826 18.112 8.72174 18.3707 8.99686C18.6294 9.27198 18.9835 9.43797 19.3604 9.46118ZM20.8438 15.8889C20.8438 16.2573 20.6974 16.6105 20.437 16.8709C20.1764 17.1315 19.8232 17.2778 19.4549 17.2778C19.0865 17.2778 18.7333 17.1315 18.4727 16.8709C18.2123 16.6105 18.0659 16.2573 18.0659 15.8889C18.0659 15.5206 18.2123 15.1672 18.4727 14.9068C18.7333 14.6464 19.0865 14.5 19.4549 14.5C19.8232 14.5 20.1764 14.6464 20.437 14.9068C20.6974 15.1672 20.8438 15.5206 20.8438 15.8889ZM4.54929 9.50007C5.36595 9.50007 6.02707 8.83334 6.02707 8.00002C6.02707 7.16668 5.36041 6.50001 4.54929 6.50001C4.3533 6.50073 4.15937 6.54015 3.97864 6.616C3.79793 6.69184 3.63395 6.80263 3.49614 6.94198C3.35833 7.08134 3.24939 7.24654 3.17556 7.4281C3.10174 7.60968 3.06449 7.80402 3.06596 8.00002C3.06596 8.83334 3.73262 9.50007 4.54929 9.50007ZM13.4382 20.5001C13.4382 21.3333 12.7715 22 11.9548 22C11.7588 21.9994 11.5649 21.9598 11.3842 21.884C11.2035 21.8081 11.0395 21.6974 10.9017 21.5581C10.7639 21.4187 10.655 21.2535 10.5811 21.072C10.5074 20.8904 10.47 20.6961 10.4716 20.5001C10.4716 19.6667 11.1381 19 11.9548 19C12.7715 19 13.4382 19.6667 13.4382 20.5001ZM4.54929 17.5C5.36595 17.5 6.02707 16.8333 6.02707 16C6.02707 15.1667 5.36041 14.5 4.54374 14.5C4.34821 14.5014 4.15489 14.5414 3.97481 14.6176C3.79471 14.6938 3.63141 14.8046 3.49418 14.944C3.35695 15.0832 3.2485 15.2482 3.17503 15.4293C3.10156 15.6106 3.06449 15.8045 3.06596 16C3.06596 16.8333 3.73262 17.5 4.54374 17.5H4.54929ZM11.3993 7.55557V5.33334H12.5104V7.55557H11.3993ZM15.5826 10.6556L18.0659 9.25557L17.5105 8.2889L15.0326 9.68894L15.5882 10.6556H15.5826ZM8.47152 14.1556L6.28818 15.4222L5.84374 14.5889L8.02152 13.3222L8.46596 14.1556H8.47152ZM11.3993 16.2556V18.4778H12.5104V16.2556H11.3993ZM17.4937 15.7167L14.9382 14.5501L15.3826 13.6056L17.9382 14.7778L17.4937 15.7167ZM13.2048 4.71668C13.4048 4.50001 13.5492 4.2389 13.627 3.95001L18.3271 6.60556C18.0938 6.78335 17.9048 7.01667 17.7827 7.28889L13.2048 4.71112V4.71668ZM19.3604 9.75557C19.5327 9.75557 19.6993 9.72782 19.8604 9.68336V14.3277C19.5361 14.2304 19.1903 14.2304 18.866 14.3277V9.68336C19.0271 9.72782 19.1881 9.75557 19.366 9.75557H19.3604ZM17.8216 16.7611L13.2104 19.3055C13.4104 19.5223 13.5604 19.7833 13.6326 20.0723L18.4104 17.4223C18.1604 17.2556 17.9548 17.0334 17.8216 16.7611ZM10.2771 20.0779C10.3493 19.7833 10.4993 19.5223 10.6938 19.3055L6.10484 16.7667C5.97707 17.0389 5.77707 17.2667 5.53818 17.4444L10.2771 20.0779ZM4.54929 14.25C4.37707 14.25 4.21041 14.2778 4.04929 14.3223V9.67779C4.37347 9.77618 4.71957 9.77618 5.04373 9.67779V14.3223C4.88157 14.2736 4.71306 14.2492 4.54374 14.25H4.54929ZM6.12707 7.28889L10.7049 4.70557C10.5024 4.49133 10.3572 4.22958 10.2826 3.94445L5.58263 6.60001C5.81596 6.77779 6.00485 7.01112 6.12707 7.28889Z" fill="white"/>
</svg>
