<svg width="24" height="24" viewBox="0 0 24 24" fill="none" xmlns="http://www.w3.org/2000/svg">
<path fill-rule="evenodd" clip-rule="evenodd" d="M11.9997 3.08889L4.22195 7.54446V16.4556L11.9997 20.9111L19.7775 16.4556V7.54446L11.9997 3.08889ZM20.8887 7.00001L11.9997 2L3.11084 7.00001V17.0001L11.9997 22L20.8887 17.0001V7.00001Z" fill="white"/>
<path fill-rule="evenodd" clip-rule="evenodd" d="M11.9992 8.66628L9.22146 10.3052V13.6941L11.9992 15.333L14.7771 13.6941V10.3052L11.9992 8.66628ZM15.8881 9.77743L11.9992 7.55518L8.11035 9.77743V14.2218L11.9992 16.444L15.8881 14.2218V9.77743Z" fill="white"/>
<path d="M11.4443 12.2224L3.3999 7.69454L3.88324 6.87231L11.9999 11.4446L19.9221 6.87788L20.4055 7.68898L12.5555 12.2224V21.2945H11.4443V12.2224Z" fill="white"/>
</svg>
