<svg width="24" height="24" viewBox="0 0 24 24" fill="none" xmlns="http://www.w3.org/2000/svg">
<path d="M5.69071 14.1831C5.33978 13.8268 5.14307 13.3468 5.14307 12.8468C5.14307 12.3467 5.33978 11.8667 5.69071 11.5105L12.838 4.28564L13.1714 4.6225C13.5223 4.97874 13.7191 5.45873 13.7191 5.95879C13.7191 6.45885 13.5223 6.93883 13.1714 7.29507L6.02371 14.5199L5.69071 14.1831Z" fill="white"/>
<path d="M8.25999 16.7802C7.90906 16.424 7.71235 15.944 7.71235 15.4439C7.71235 14.9439 7.90906 14.4639 8.25999 14.1076L15.4073 6.88279L15.7403 7.21965C16.0912 7.57588 16.2879 8.05587 16.2879 8.55593C16.2879 9.05599 16.0912 9.53598 15.7403 9.89222L8.59299 17.1171L8.25999 16.7802Z" fill="white"/>
<path d="M10.8288 16.7048C10.4779 17.061 10.2812 17.541 10.2812 18.0411C10.2812 18.5411 10.4779 19.0211 10.8288 19.3774L11.1623 19.7142L18.3096 12.4894C18.6605 12.1331 18.8572 11.6531 18.8572 11.1531C18.8572 10.653 18.6605 10.173 18.3096 9.81679L17.9766 9.47993L10.8288 16.7048Z" fill="white"/>
</svg>
