<svg width="24" height="24" viewBox="0 0 24 24" fill="none" xmlns="http://www.w3.org/2000/svg">
<path d="M11.1426 7.49143L11.5712 6L11.9998 7.49143L11.5712 8.57143L11.1426 7.49143Z" fill="white"/>
<path d="M20.5712 8.57143H18.8098L17.1426 11.2329L15.4755 8.57143H13.7141L16.2598 12.6429L13.7141 16.7143H15.4755L17.1426 14.0529L18.8098 16.7143H20.5712L18.0255 12.6429L20.5712 8.57143Z" fill="white"/>
<path d="M9.85693 7.28571C10.1569 7.31143 10.8255 7.60714 11.1426 8.57143C10.9455 8.44714 10.0541 8.36571 9.85693 7.28571ZM13.2855 7.28571C12.9855 7.31143 12.3169 7.60714 11.9998 8.57143C12.1969 8.44714 13.0884 8.36571 13.2855 7.28571Z" fill="white"/>
<path d="M5.57122 8.57143H3.85693V16.7143H9.42836V15H5.57122V8.57143ZM10.0926 11.3014L9.89122 10.68C9.82693 10.4871 9.85265 10.2771 9.96408 10.1014C10.1655 9.77571 10.4184 9.36 10.5684 9.10286C10.6198 9.01714 10.7312 8.97857 10.8255 9.01286C11.1469 9.11571 11.4684 9.16714 11.5712 9.18C11.6698 9.16714 11.9955 9.11571 12.3126 9.00857C12.4112 8.97857 12.5269 9.01714 12.5698 9.10286L12.9641 9.74571L11.6184 10.0029L13.2684 10.3243C13.2941 10.44 13.2898 10.5643 13.2512 10.68L12.4112 13.2686L11.3269 13.4829L12.2826 13.6629L11.5712 15.8571L10.3069 11.9614L11.9141 11.6529L10.0926 11.3014Z" fill="white"/>
<path d="M9.85693 16.5L11.5712 16.2857L13.2855 16.5L11.5712 16.7143L9.85693 16.5Z" fill="white"/>
</svg>
