<svg width="24" height="24" viewBox="0 0 24 24" fill="none" xmlns="http://www.w3.org/2000/svg">
<path fill-rule="evenodd" clip-rule="evenodd" d="M22 10.0555L16 4.22217H8.00002L2 10.0555L12 19.7777L22 10.0555ZM19.2223 10.3333C19.2223 10.3333 12.5777 0.333277 4.77778 10.3333C12.5556 20.3333 19.2223 10.3333 19.2223 10.3333Z" fill="white"/>
<path fill-rule="evenodd" clip-rule="evenodd" d="M15.3337 10.3331C15.3337 9.89531 15.2474 9.46196 15.0799 9.05751C14.9124 8.65307 14.6669 8.28559 14.3573 7.97606C14.0478 7.66655 13.6804 7.42101 13.276 7.25349C12.8715 7.08597 12.4381 6.99976 12.0003 6.99976C11.5625 6.99976 11.1292 7.08597 10.7247 7.25349C10.3203 7.42101 9.95279 7.66655 9.64336 7.97606C9.33378 8.28559 9.08825 8.65307 8.92073 9.05751C8.75321 9.46196 8.66699 9.89531 8.66699 10.3331C8.66699 11.2171 9.01818 12.065 9.64336 12.6901C10.2684 13.3152 11.1162 13.6664 12.0003 13.6664C12.8844 13.6664 13.7323 13.3152 14.3573 12.6901C14.9824 12.065 15.3337 11.2171 15.3337 10.3331ZM13.6669 10.3331C13.6669 9.89103 13.4914 9.46714 13.1789 9.1546C12.8662 8.84207 12.4423 8.66642 12.0003 8.66642C11.0725 8.66642 10.3336 9.40531 10.3336 10.3331C10.3336 11.2608 11.0725 11.9997 12.0003 11.9997C12.9281 11.9997 13.6669 11.2608 13.6669 10.3331Z" fill="white"/>
</svg>
