<svg width="24" height="24" viewBox="0 0 24 24" fill="none" xmlns="http://www.w3.org/2000/svg">
<path fill-rule="evenodd" clip-rule="evenodd" d="M11.9999 18.4288C13.7048 18.4288 15.34 17.7515 16.5455 16.5459C17.7511 15.3403 18.4284 13.7052 18.4284 12.0002C18.4284 10.2952 17.7511 8.66011 16.5455 7.45452C15.34 6.24893 13.7048 5.57164 11.9999 5.57164C10.2949 5.57164 8.65977 6.24893 7.45417 7.45452C6.24858 8.66011 5.57129 10.2952 5.57129 12.0002C5.57129 13.7052 6.24858 15.3403 7.45417 16.5459C8.65977 17.7515 10.2949 18.4288 11.9999 18.4288ZM11.9999 17.8716C13.5571 17.8716 15.0505 17.253 16.1516 16.1519C17.2527 15.0508 17.8713 13.5574 17.8713 12.0002C17.8713 10.443 17.2527 8.94959 16.1516 7.84848C15.0505 6.74738 13.5571 6.12878 11.9999 6.12878C10.4427 6.12878 8.94924 6.74738 7.84813 7.84848C6.74703 8.94959 6.12843 10.443 6.12843 12.0002C6.12843 13.5574 6.74703 15.0508 7.84813 16.1519C8.94924 17.253 10.4427 17.8716 11.9999 17.8716Z" fill="white"/>
<path fill-rule="evenodd" clip-rule="evenodd" d="M11.9999 18.1031C12.8152 18.1247 13.6266 17.9827 14.3862 17.6856C15.1458 17.3886 15.8381 16.9423 16.4225 16.3733C17.0068 15.8042 17.4712 15.1239 17.7883 14.3725C18.1054 13.621 18.2688 12.8137 18.2688 11.9981C18.2688 11.1825 18.1054 10.3751 17.7883 9.62365C17.4712 8.8722 17.0068 8.19188 16.4225 7.62284C15.8381 7.05381 15.1458 6.60757 14.3862 6.31048C13.6266 6.01339 12.8152 5.87146 11.9999 5.89307C10.3801 5.89307 8.82677 6.5365 7.68146 7.68181C6.53615 8.82712 5.89272 10.3805 5.89272 12.0002C5.89272 13.6199 6.53615 15.1733 7.68146 16.3186C8.82677 17.4639 10.3801 18.1074 11.9999 18.1074V18.1031ZM11.9999 18.2531C12.821 18.2531 13.6341 18.0913 14.3927 17.7771C15.1514 17.4629 15.8407 17.0023 16.4213 16.4216C17.0019 15.841 17.4625 15.1517 17.7767 14.3931C18.091 13.6344 18.2527 12.8213 18.2527 12.0002C18.2527 11.1791 18.091 10.366 17.7767 9.60734C17.4625 8.84871 17.0019 8.1594 16.4213 7.57877C15.8407 6.99814 15.1514 6.53756 14.3927 6.22332C13.6341 5.90909 12.821 5.74735 11.9999 5.74735C10.3415 5.74735 8.75106 6.40613 7.57842 7.57877C6.40578 8.75141 5.747 10.3418 5.747 12.0002C5.747 13.6586 6.40578 15.249 7.57842 16.4216C8.75106 17.5943 10.3415 18.2531 11.9999 18.2531Z" fill="white"/>
<path d="M8.90129 15.7888C8.43843 16.3459 7.50843 17.4645 7.49986 17.4902C7.45272 17.4302 7.217 17.4431 7.09272 17.5759C7.05816 17.6168 7.03517 17.6662 7.02613 17.7189C7.01709 17.7717 7.02232 17.8259 7.04129 17.8759L6.84843 17.9188L6.50557 19.2045L6.60415 19.2859L7.85986 18.7888L7.787 18.5231C7.86415 18.5188 8.03986 18.4802 8.09557 18.3859C8.15129 18.2916 8.13843 18.1502 8.12129 18.0945L9.68129 16.2602L8.90129 15.7888Z" fill="white"/>
<path d="M8.22843 18.0474L7.49986 17.3831L7.64986 17.2116L8.37843 17.8759L8.22843 18.0474ZM8.41272 17.7988L7.68415 17.1345L7.83843 16.9631L8.567 17.6316L8.41272 17.7988ZM8.66557 17.5502L7.937 16.8859L8.087 16.7145L8.81557 17.3831L8.66557 17.5502ZM8.84986 17.3488L8.12129 16.6845L8.27557 16.5131L9.00415 17.1816L8.84986 17.3488ZM8.99986 17.1002L8.27557 16.4359L8.42557 16.2645L9.15415 16.9331L8.99986 17.1002ZM9.20129 16.8559L8.47272 16.1874L8.627 16.0159L9.35557 16.6845L9.20129 16.8559ZM9.47129 16.6074L8.747 15.9388L8.90129 15.7716L9.62986 16.4359L9.47129 16.6074ZM7.427 17.7002C7.26415 17.6145 7.127 17.6274 7.07986 17.6445C7.10557 17.4774 7.37986 17.4559 7.48272 17.4945C7.58557 17.5331 7.95415 17.9616 8.06129 18.0559C8.147 18.1331 8.117 18.1674 8.087 18.1759C7.93272 18.0559 7.58986 17.7902 7.427 17.7045V17.7002Z" fill="white"/>
<path d="M7.98843 18.4374L7.277 17.8288C7.40557 17.8545 7.69272 17.9359 7.85129 18.0731C8.00986 18.2145 8.00986 18.3731 7.98843 18.4374ZM6.57415 19.2259L6.64272 19.0116L6.75415 19.0674L7.56843 18.8316L6.68557 19.2259H6.57415Z" fill="white"/>
<path d="M7.55557 18.6645L6.98986 18.1802C6.98986 18.1888 6.98986 18.2102 7.00272 18.2402C7.01557 18.2831 7.03272 18.3259 7.04986 18.4845C7.067 18.6431 7.02843 18.5359 7.01557 18.5788C6.99843 18.6216 7.01557 18.6345 6.95129 18.6516C6.887 18.6731 6.87843 18.7416 6.83986 18.8102C6.80557 18.8659 6.85272 18.9045 6.88272 18.9131C6.93843 18.8531 7.067 18.7159 7.11415 18.6774C7.16986 18.6302 7.22557 18.6645 7.24272 18.6645C7.25986 18.6645 7.31986 18.6388 7.37986 18.6216C7.427 18.6045 7.43986 18.6431 7.44415 18.6645H7.55557Z" fill="white"/>
<path d="M9.47986 14.4645L9.23557 14.2502L9.57415 13.9845L11.0741 15.1288L11.0099 15.6345L10.6413 15.4631L10.3413 15.6859L9.39415 15.0516L9.47986 14.4645Z" fill="white"/>
<path d="M9.62557 15.0131L9.65558 14.5931L9.92129 14.8074L9.62557 15.0131ZM10.0627 14.9616L9.69415 15.1588L10.037 15.4202L10.0627 14.9616ZM10.1784 15.0602L10.2256 15.5016L10.5384 15.3045L10.1784 15.0602Z" fill="white"/>
<path d="M12.1713 17.1431C13.3284 17.1431 14.3956 16.7616 15.2527 16.1145C15.2313 16.0588 15.2313 15.9731 15.227 15.8831C15.227 15.7888 15.2227 15.6988 15.197 15.6431C15.1713 15.5788 15.2227 15.5745 15.2741 15.5702C15.3599 15.5616 15.4456 15.5531 15.2656 15.3431C15.2913 15.2574 15.2356 15.2316 15.1456 15.2402L14.9913 15.3774C14.9842 15.3399 14.9756 15.3027 14.9656 15.2659C14.9356 15.1588 14.9013 15.1759 14.7427 15.2574C14.477 15.3902 13.8427 15.7116 12.2656 15.9131C10.2599 16.1659 8.75129 14.6916 8.25415 13.9245C8.34843 14.1474 8.67415 14.6659 9.30415 15.3388C8.67313 14.7966 8.20887 14.0865 7.96528 13.2911C7.72169 12.4956 7.70878 11.6473 7.92803 10.8448C8.14729 10.0422 8.58972 9.31837 9.20394 8.75724C9.81816 8.19611 10.579 7.82074 11.398 7.67472C12.217 7.52871 13.0607 7.61805 13.831 7.93236C14.6012 8.24666 15.2666 8.77305 15.7496 9.45037C16.2327 10.1277 16.5137 10.9282 16.56 11.7588C16.6064 12.5895 16.4161 13.4162 16.0113 14.1431C16.0584 14.1688 16.1141 14.1902 16.1827 14.1988C16.3113 14.2159 16.4141 14.0488 16.4913 13.8174C16.4656 14.0316 16.4913 14.2331 16.5341 14.2459C16.5941 14.2674 16.877 13.4874 16.8941 13.3502C16.907 13.2645 16.907 13.7059 16.8384 14.1559C17.3046 13.1462 17.4309 12.0125 17.1984 10.9249C16.9658 9.83733 16.387 8.85443 15.5487 8.1236C14.7103 7.39277 13.6577 6.95339 12.5485 6.87136C11.4394 6.78933 10.3335 7.06906 9.39679 7.6686C8.46006 8.26814 7.74292 9.15519 7.35291 10.1967C6.9629 11.2383 6.92104 12.3782 7.2336 13.4455C7.54616 14.5129 8.1963 15.4502 9.08653 16.1168C9.97677 16.7834 11.0591 17.1435 12.1713 17.1431ZM16.4913 13.8216C16.4999 13.7531 16.517 13.6802 16.5341 13.6159C16.5989 13.3891 16.6419 13.1566 16.6627 12.9216C16.6413 13.1659 16.5856 13.5388 16.4913 13.8216Z" fill="white"/>
<path d="M8.77272 13.5902C8.66741 13.635 8.55047 13.6446 8.43927 13.6175C8.32808 13.5905 8.22858 13.5283 8.15558 13.4402C8.27986 14.2974 9.17129 14.3059 9.60415 14.2031C9.91729 14.6671 10.3557 15.0327 10.8684 15.2574C10.727 16.4102 11.477 16.5688 11.867 16.5002C11.5199 15.8874 11.747 15.4631 11.9056 15.3259L9.35129 13.3416C9.287 13.3759 9.08129 13.4702 8.77272 13.5902Z" fill="white"/>
<path d="M9.34272 13.5002L9.29557 13.9802L9.77557 13.8216L9.33843 13.4959L9.34272 13.5002ZM11.1556 15.0774L11.1127 15.5574L11.5927 15.4031L11.1556 15.0774Z" fill="white"/>
<path d="M11.0613 12.3945H10.6627L10.7613 12.8016H10.3541L10.4313 13.1316H10.0584V13.2131H9.95129V13.4102L10.5341 14.3102L13.7356 10.7102L18.2656 5.25021L18.1456 5.14307C17.0141 5.80307 16.1141 5.83307 15.8056 5.76878L11.4127 11.5802L10.9156 11.9745L11.0613 12.3945Z" fill="white"/>
<path d="M10.6627 12.3945H11.0613L10.9156 11.9745L11.4127 11.5802L12.6727 9.91735C13.0156 10.0802 13.4484 10.3374 13.337 10.4659C13.1999 10.6202 12.7241 10.5088 12.5056 10.4316L11.9484 11.0745H12.4884C12.5484 11.0659 12.6813 11.0788 12.6813 11.2031C12.6813 11.3659 12.197 11.4902 11.6184 11.4688L12.2141 12.4202L10.5341 14.3102L9.95129 13.4102V13.2131H10.0584V13.1316H10.4313L10.3541 12.8016H10.7613L10.6627 12.3945Z" fill="white"/>
<path d="M15.2441 6.51449C15.4927 6.45878 15.8441 6.42021 16.1013 6.52307C16.4441 6.66021 16.5941 6.86592 16.5856 7.27307L18.2656 5.25021L18.1456 5.14307C17.0141 5.80307 16.1141 5.83307 15.8056 5.76878L15.2441 6.51449Z" fill="white"/>
<path d="M12.467 13.6031L12.5313 14.0016L12.1199 13.9674L12.1841 14.3745L11.8499 14.3531L11.9099 14.7216L11.8327 14.7345L11.8499 14.8459L11.657 14.8759L10.6841 14.4431L13.8041 10.6245L18.2699 5.25021L18.3984 5.35307C17.9356 6.59592 18.047 7.49592 18.1627 7.79592L13.1999 13.1145L12.8999 13.6802L12.4627 13.5988L12.467 13.6031Z" fill="white"/>
<path d="M16.4656 7.42735C16.8856 7.09307 17.387 6.74592 17.4899 6.86164C17.6313 7.02021 17.8327 7.28164 17.8284 8.15164L18.1627 7.79592C18.047 7.49592 17.9356 6.59592 18.3941 5.35307L18.2699 5.25021L16.4656 7.42735Z" fill="white"/>
<path d="M13.4741 11.2588L17.5884 6.27878C16.0884 8.49021 13.0456 12.9602 12.917 13.1316C12.7841 13.3031 12.6127 13.4316 12.5399 13.4745H12.2613V13.8731H11.9056V14.1645H11.5627V14.5074L11.1127 14.3574L11.4984 13.8731L12.5399 13.2088L12.377 13.0502L12.917 12.7074L12.7241 12.5188L13.1356 12.2359L13.007 12.0688L13.4784 11.2545L13.4741 11.2588Z" fill="white"/>
<path d="M10.997 13.2174C10.8899 13.5259 10.3799 13.8516 10.1399 13.9759L10.5641 14.4474L10.997 14.6874C10.997 14.2202 11.8799 13.4874 12.3256 13.1788L12.2184 13.0588L12.7327 12.6602L12.5184 12.5874L12.9599 12.2531L12.8141 12.1802L13.7141 10.6545L12.437 11.8459L12.317 11.6616L12.0899 12.2531L11.9484 11.9959L11.6699 12.6602L11.5156 12.4331L11.1041 13.2174H10.9927H10.997Z" fill="white"/>
<path d="M11.1641 13.2174L10.8813 13.6031L11.3527 13.2174H11.4984L13.0841 11.4002L12.4156 12.0474L12.3127 11.9531L12.1327 12.3688H11.987L11.7084 12.7931L11.5413 12.7074L11.2756 13.2174H11.1641Z" fill="white"/>
</svg>
