<svg width="24" height="24" viewBox="0 0 24 24" fill="none" xmlns="http://www.w3.org/2000/svg">
<path fill-rule="evenodd" clip-rule="evenodd" d="M11.5531 2.72499L11.6155 2.34374C11.2406 2.37499 10.8781 2.41874 10.5343 2.48125L10.3342 2.89374C10.7468 2.81875 11.1531 2.76874 11.5531 2.72499ZM11.6844 2L12.2094 2.1125C12.5531 2.1 12.9094 2.1 13.278 2.1125L13.8405 2.00624L13.8719 2.1625C14.2468 2.19374 14.6217 2.25 14.9968 2.31875L15.4092 2.07499L15.628 2.45C15.9905 2.54374 16.3531 2.64999 16.7217 2.77498L16.9218 2.6125L17.1843 2.93749L17.7843 3.18749L17.703 3.36874L17.4031 3.24374L17.5906 3.51249L17.6093 3.53124C18.528 3.88124 19.2718 4.28749 19.7968 4.66248L19.6155 4.89999C19.1905 4.59374 18.603 4.26249 17.878 3.96249C18.0093 4.17499 18.128 4.39999 18.1968 4.58748C19.7467 5.14999 20.7592 5.85623 21.2093 6.32498L20.9156 6.59373C20.2343 5.88124 17.9781 4.44374 14.228 4.18749C14.2905 4.66249 14.3531 5.13749 14.3843 5.54374L14.4092 5.87498L14.0718 5.85623C13.4842 5.83123 12.6906 5.83123 11.7843 5.88122C11.7342 6.49998 11.6968 7.16248 11.6844 7.85622L11.6781 8.14372H11.3781C10.7968 8.14372 9.9593 8.17497 9.00931 8.26873C8.93315 9.03705 8.9081 9.80954 8.9343 10.5813L8.94682 10.8813H8.63431C8.14056 10.8875 7.39682 10.9125 6.57181 10.9625C6.5515 11.6228 6.55567 12.2837 6.58431 12.9438C7.40306 13.0125 8.14681 13.0688 8.64681 13.0937L8.9343 13.1062V13.3874C8.9343 14.1812 8.96556 14.9186 9.0218 15.6C9.93437 15.6937 10.7717 15.7499 11.3905 15.775L11.6781 15.7875V16.0687C11.6781 16.7561 11.6905 17.3937 11.7218 17.9625C12.6406 18.0188 13.4593 18.0249 14.0718 17.9999L14.3843 17.9937V18.2999C14.3843 18.7188 14.3343 19.2124 14.2593 19.7062C17.9843 19.4437 20.2342 18.0188 20.9093 17.3062L21.203 17.575C20.7467 18.05 19.7155 18.7686 18.1405 19.325L18.1843 19.3499C18.1217 19.4749 18.0155 19.6499 17.8906 19.85C18.4961 19.6015 19.0725 19.2871 19.6092 18.9124L19.7842 19.15C19.2718 19.5187 18.5343 19.9249 17.6218 20.2749L17.3905 20.6187L17.6968 20.4937L17.778 20.6687C17.5781 20.7625 17.378 20.8437 17.178 20.9186C17.0905 21.0436 17.003 21.1562 16.9155 21.2563L16.7156 21.0874C16.3531 21.2125 15.9905 21.3124 15.6342 21.3999L15.3968 21.7936L15.0094 21.5374C14.6343 21.6062 14.2593 21.6624 13.8968 21.6938L13.8342 21.9749L13.2531 21.8374L13.278 21.7436C12.9031 21.7562 12.5468 21.7624 12.1968 21.7436L12.2155 21.8062L11.653 22C11.6221 21.9052 11.595 21.8093 11.5718 21.7124C11.1968 21.6812 10.8468 21.6312 10.5092 21.5749L10.1531 21.8499C10.0558 21.7232 9.96805 21.5896 9.89062 21.4499C9.49681 21.3624 9.13431 21.2624 8.80931 21.1499L8.70306 21.3124C8.5968 21.25 8.47181 21.1311 8.32806 20.9812C8.07182 20.8749 7.84056 20.7687 7.65306 20.6687L7.75306 20.4937L8.06556 20.6561C7.96651 20.5151 7.87473 20.3692 7.79057 20.2187C7.58431 20.15 7.37806 20.0687 7.16557 19.9812L7.35307 20.1686L7.08431 20.4499C6.89681 20.2749 6.64681 20.0062 6.37182 19.6187C6.07363 19.4732 5.77976 19.3189 5.49056 19.1563L5.63432 18.8999L6.05931 19.1312C5.96557 18.975 5.87181 18.8063 5.78431 18.6313L5.32808 18.3688C5.45307 18.5562 5.56556 18.7062 5.65932 18.8063L5.43432 19.0062C5.24682 18.8 5.01557 18.4687 4.77183 18.0062C4.54058 17.8499 4.35932 17.7062 4.22182 17.5937L4.44057 17.3249L4.24057 16.825C4.1713 16.7884 4.10254 16.7509 4.03432 16.7124L4.19058 17.0062L3.99057 17.125C3.87482 16.9227 3.77049 16.714 3.67808 16.4999L3.35308 16.2688L3.50932 16.0687C3.37807 15.7061 3.25308 15.3 3.14682 14.85C3.01444 14.7773 2.88708 14.6958 2.76557 14.6063L3.02183 14.2624C2.95933 13.8875 2.89682 13.5 2.87183 13.0812L2.63432 13.0374L2.75933 12.4625L2.83433 12.4749C2.82808 12.1375 2.83433 11.7875 2.85307 11.4187L2.77183 11.4437L2.62183 10.8687L2.90308 10.8062C2.94057 10.45 2.99682 10.0938 3.06558 9.72496L2.79683 9.24371L3.23432 9.02497C3.32808 8.64998 3.44683 8.27497 3.58432 7.89997L3.35933 7.58748C3.50932 7.48123 3.67182 7.38123 3.83432 7.28123L3.98433 6.94373L4.19682 7.04373L4.17183 7.08748L4.23433 7.05623L4.24683 7.02498L4.43432 6.56872L4.22182 6.31248C4.35932 6.19373 4.54682 6.04373 4.78432 5.87498C5.05932 5.39999 5.33432 5.03748 5.57182 4.79999L5.49056 4.65623C5.82806 4.46873 6.16556 4.28749 6.50307 4.13123C6.70932 3.84374 6.90931 3.61874 7.08431 3.45624L7.35307 3.73748L7.32182 3.76873C7.50931 3.69373 7.69681 3.61874 7.88431 3.55624C7.96557 3.41873 8.05306 3.28749 8.13431 3.18125C7.99056 3.24374 7.86557 3.30624 7.75306 3.36874L7.65306 3.19374C7.85931 3.08123 8.10306 2.96874 8.39057 2.85624C8.47807 2.75624 8.55931 2.67499 8.64057 2.60624L8.74681 2.73125C9.09056 2.60624 9.47806 2.49999 9.89674 2.40625L10.0156 2.175L10.3093 2.31875C10.728 2.24374 11.178 2.18124 11.653 2.14375L11.6781 2H11.6844ZM8.92181 20.9812C9.1843 21.0687 9.46556 21.1499 9.77176 21.2186C9.69681 21.0813 9.62806 20.9249 9.55306 20.7562C9.22805 20.6812 8.90307 20.5937 8.57181 20.4874C8.7593 20.7187 8.89681 20.8437 8.97805 20.9L8.92181 20.9812ZM10.5469 21.3812C10.8592 21.4374 11.1906 21.475 11.528 21.5062C11.5031 21.3812 11.4656 21.2374 11.4405 21.0687C11.0656 21.0375 10.6718 20.9812 10.2781 20.9063C10.378 21.1062 10.4655 21.2624 10.553 21.3812H10.5469ZM12.1468 21.55C12.528 21.5625 12.9218 21.5625 13.3343 21.5437L13.4155 21.1311C12.978 21.1499 12.5217 21.1437 12.0593 21.1187L12.1468 21.55ZM13.9531 21.4874C14.3452 21.4477 14.7352 21.3894 15.1218 21.3124C15.1967 21.1874 15.2718 21.0562 15.3405 20.9124C14.9219 20.9875 14.4905 21.0499 14.0343 21.0874L13.9531 21.4937V21.4874ZM15.7655 21.1625C16.078 21.0874 16.3968 20.9875 16.7156 20.8812L17.003 20.4937C16.6718 20.6 16.3218 20.6936 15.9593 20.7811L15.7718 21.1625H15.7655ZM12.1717 2.6875L12.2343 2.31249C12.5843 2.29374 12.9406 2.29999 13.3031 2.31249L13.3718 2.68124C12.9843 2.66249 12.578 2.66875 12.1717 2.68124V2.6875ZM13.9843 2.71874L13.9217 2.3625C14.3094 2.39999 14.7092 2.46249 15.1092 2.54374L15.3093 2.89374C14.8707 2.81397 14.4285 2.75556 13.9843 2.71874ZM15.9405 3.02499L15.7531 2.6875C16.0655 2.76874 16.3843 2.8625 16.7031 2.96874L16.953 3.29998C16.6281 3.19374 16.2842 3.09999 15.9281 3.01874L15.9405 3.02499ZM8.98431 2.97499L8.90307 2.88749C9.17806 2.79374 9.47806 2.70624 9.80312 2.63124L9.62806 3.03748C9.31555 3.11249 9.00306 3.19374 8.6843 3.28748C8.79056 3.16249 8.89055 3.05 8.98431 2.97499ZM11.5094 3.03124C11.0843 3.06874 10.6405 3.13124 10.1969 3.21874C10.0906 3.46874 9.99678 3.72498 9.90928 3.98124C10.3719 3.9125 10.8655 3.85623 11.3968 3.81248L11.5094 3.03124ZM9.49681 3.37498C9.13431 3.46248 8.76556 3.56874 8.39057 3.69373C8.26556 3.89374 8.12807 4.13125 7.99056 4.39999C8.37805 4.28749 8.79056 4.18749 9.24055 4.09999C9.31556 3.85623 9.40305 3.61249 9.49055 3.37498H9.49681ZM7.66556 3.95625C7.41556 4.05624 7.15306 4.16248 6.89681 4.28123C6.75931 4.46873 6.60932 4.69374 6.45932 4.94998C6.73431 4.83123 7.02181 4.71873 7.34681 4.60624C7.45306 4.36873 7.55932 4.15624 7.65932 3.95625H7.66556ZM6.19058 4.62499L5.83432 4.81249L5.90932 4.89999C5.75932 5.02498 5.57806 5.23123 5.38432 5.50623C5.52807 5.41873 5.68432 5.33749 5.84682 5.24999C5.96557 5.02498 6.07807 4.81249 6.19058 4.62499ZM17.253 3.71874C16.8967 3.59373 16.5092 3.47498 16.1031 3.37498C16.2155 3.62499 16.3218 3.87499 16.3905 4.09374C16.853 4.18749 17.2843 4.29999 17.6842 4.42498C17.5575 4.18824 17.4178 3.95872 17.2655 3.73748L17.253 3.71874ZM15.4781 3.23124C15.0029 3.13664 14.5231 3.06777 14.0406 3.02499L14.1656 3.79999C14.753 3.83124 15.3031 3.89998 15.8281 3.98748C15.728 3.74374 15.6093 3.48749 15.4781 3.23749V3.23124ZM13.4218 2.98124C12.9845 2.96223 12.5464 2.96432 12.1093 2.98749L12.003 3.78125C12.5235 3.75736 13.0447 3.75112 13.5656 3.76249C13.522 3.50167 13.4762 3.24124 13.4281 2.98124H13.4218ZM17.653 19.4937L17.2781 20.0937C16.9155 20.2187 16.5281 20.3436 16.1155 20.4499L16.3717 19.8249C16.828 19.7311 17.253 19.6187 17.653 19.4937ZM15.7968 19.9312L15.503 20.5875C15.0592 20.675 14.5842 20.7499 14.0906 20.7937L14.2156 20.1125C14.7718 20.075 15.2968 20.0124 15.7968 19.9312ZM13.6031 20.1437L13.4781 20.8311C13.003 20.8625 12.5093 20.8562 12.003 20.8311L11.9031 20.1249C12.4692 20.1522 13.0364 20.1584 13.6031 20.1437ZM11.2967 20.0811L11.3905 20.775C10.9781 20.7313 10.553 20.6687 10.1218 20.5875C10.0405 20.3874 9.95303 20.1686 9.86553 19.9187C10.3093 19.9875 10.7906 20.0437 11.303 20.0874L11.2967 20.0811ZM9.1968 19.8C9.2718 20.025 9.34057 20.2375 9.41555 20.425C9.04056 20.3312 8.66556 20.2187 8.29055 20.0937C8.18431 19.9249 8.07182 19.725 7.95931 19.5C8.34056 19.6062 8.75306 19.7125 9.1968 19.8ZM7.32182 19.2936C7.40306 19.4812 7.48432 19.6687 7.57182 19.8249C7.29783 19.718 7.02688 19.6034 6.75932 19.4812C6.64681 19.3187 6.52806 19.1374 6.40307 18.9312C6.67807 19.0562 6.98431 19.1812 7.32182 19.2936ZM11.3405 4.21874C10.778 4.26249 10.253 4.32498 9.76549 4.40624C9.6468 4.78124 9.5468 5.15623 9.45306 5.53123C10.0656 5.44373 10.6656 5.38124 11.2281 5.33749L11.3405 4.21874ZM9.10306 4.53124C8.61556 4.63749 8.16556 4.75624 7.76555 4.88749C7.61978 5.22689 7.49047 5.57312 7.37806 5.92499C7.85931 5.80624 8.34682 5.71248 8.82181 5.63124C8.90305 5.26248 8.99681 4.89999 9.10306 4.53124ZM7.14056 5.10624C6.76556 5.24373 6.44056 5.39373 6.14681 5.54374C6.02182 5.79998 5.89682 6.08748 5.77807 6.39373C6.11557 6.27499 6.46557 6.16873 6.80932 6.06874C6.90777 5.74391 7.01825 5.42284 7.14056 5.10624ZM5.57182 5.85623C5.31556 6.00623 5.09681 6.14998 4.91557 6.28123C4.82807 6.45623 4.72808 6.65622 4.64682 6.86248C4.85307 6.76248 5.06558 6.66874 5.28433 6.58122C5.37807 6.32498 5.47182 6.08123 5.57182 5.85623ZM13.6155 4.16874C13.0594 4.14629 12.5025 4.15047 11.9469 4.18124C11.9017 4.55355 11.8621 4.9265 11.828 5.29998C12.5594 5.25623 13.2217 5.24999 13.7655 5.26248L13.6155 4.16248V4.16874ZM13.7781 18.6062C13.7655 18.9562 13.7155 19.3562 13.6655 19.7437C13.0615 19.7689 12.4565 19.7626 11.8531 19.725L11.7593 18.5624C12.5217 18.6062 13.2156 18.6187 13.7781 18.6062ZM11.1531 18.5187C11.1843 18.9436 11.2155 19.3313 11.253 19.6874C10.7093 19.6436 10.1969 19.5749 9.72801 19.5C9.60882 19.115 9.50664 18.725 9.42181 18.3311C10.0156 18.4125 10.603 18.4749 11.1594 18.5187H11.1531ZM9.00931 19.1624L9.07181 19.3687C8.5843 19.2687 8.14056 19.15 7.74056 19.0187C7.59044 18.6683 7.46104 18.3093 7.35307 17.9437C7.82806 18.0562 8.31556 18.15 8.79056 18.2312C8.85932 18.5624 8.9343 18.8749 9.00931 19.1624ZM6.79682 17.8C6.89681 18.1687 7.00931 18.5 7.12182 18.8C6.73431 18.6562 6.39057 18.5 6.09056 18.3437C5.96557 18.0875 5.84058 17.7937 5.72182 17.4687C6.07182 17.5937 6.42806 17.7062 6.79682 17.8ZM5.23432 17.2874C5.32808 17.5499 5.42182 17.8 5.51557 18.0249C5.27807 17.8812 5.07807 17.75 4.90932 17.625C4.82182 17.4437 4.73432 17.2499 4.64682 17.0312C4.83431 17.1187 5.03432 17.2062 5.24058 17.2874H5.23432ZM11.178 5.93123C10.5906 5.98124 9.96557 6.04998 9.32181 6.14372C9.22181 6.66872 9.14056 7.18122 9.07805 7.66873C9.85299 7.59998 10.553 7.56873 11.0968 7.56247C11.1156 6.99372 11.1406 6.44373 11.178 5.93749V5.93123ZM8.69681 6.24374C8.19056 6.34373 7.67807 6.44997 7.18431 6.58122C7.07181 7.00622 6.96556 7.46248 6.87806 7.96248C7.40656 7.86744 7.9381 7.79031 8.47181 7.73123C8.52806 7.26248 8.5968 6.76248 8.69681 6.24998V6.24374ZM6.63432 6.74372C6.25306 6.84998 5.88431 6.98123 5.52807 7.11873C5.40306 7.49373 5.29682 7.89997 5.20307 8.33122C5.58556 8.22946 5.97115 8.13983 6.35932 8.06248C6.43432 7.58748 6.52806 7.14997 6.62806 6.73748L6.63432 6.74372ZM5.05306 7.32499C4.80308 7.43748 4.55932 7.55623 4.32807 7.68748C4.22807 7.99997 4.12808 8.33747 4.04683 8.69373L4.77183 8.45623C4.85307 8.05622 4.94682 7.68123 5.05306 7.32499ZM3.94682 7.91873L3.80307 8.01247C3.69058 8.31248 3.59682 8.61247 3.51558 8.90622L3.70933 8.82498C3.77808 8.50623 3.85932 8.19997 3.94682 7.91873ZM3.68432 15.8499L3.71557 15.8062C3.79683 15.8687 3.87807 15.9188 3.96557 15.9749C3.89057 15.7124 3.81557 15.4312 3.75308 15.1313L3.42808 14.9938C3.50308 15.3063 3.59058 15.5874 3.67808 15.8499H3.68432ZM4.34682 16.2125C4.55932 16.3375 4.78432 16.4438 5.01557 16.5499C4.92807 16.2187 4.84683 15.8562 4.76557 15.4687C4.53655 15.4043 4.30939 15.3334 4.08433 15.2563C4.16557 15.6 4.25307 15.9188 4.34682 16.2125ZM5.48432 16.75C5.85738 16.8964 6.23694 17.0258 6.62182 17.1375C6.52806 16.7375 6.44056 16.3 6.37182 15.825C5.96557 15.7562 5.57182 15.6687 5.19683 15.5749C5.28433 16.0063 5.38432 16.3937 5.48432 16.75ZM7.17181 17.2874C7.66556 17.4124 8.17182 17.525 8.6718 17.6125C8.59682 17.1562 8.52806 16.6686 8.47807 16.1375C7.95149 16.0787 7.42635 16.0079 6.90307 15.9249L6.88432 15.9188C6.96556 16.4187 7.06557 16.875 7.17181 17.2937V17.2874ZM9.29682 17.7125C9.92183 17.8061 10.5469 17.875 11.128 17.925C11.1031 17.4437 11.0905 16.925 11.0905 16.3624C10.5281 16.3312 9.83433 16.2812 9.08431 16.2062C9.14681 16.75 9.21556 17.2562 9.29682 17.7125ZM7.46556 8.46248C7.77935 8.41504 8.09399 8.37336 8.4093 8.33747C8.34682 9.11246 8.32181 9.78752 8.3343 10.3062C7.87181 10.3125 7.27181 10.3375 6.60306 10.3687C6.64057 9.73123 6.70306 9.13754 6.78432 8.58122L7.46556 8.46248ZM5.07807 8.98122C5.46557 8.86873 5.86557 8.76873 6.26556 8.68747C6.19682 9.21877 6.14057 9.79379 6.10306 10.4063C5.70931 10.4375 5.29682 10.4687 4.89682 10.5125C4.93433 9.96879 4.99682 9.46246 5.08432 8.98122H5.07807ZM3.90307 9.38123C4.14683 9.28746 4.40307 9.19369 4.65307 9.11246C4.58433 9.56877 4.52807 10.05 4.49057 10.5562L3.74057 10.6562C3.77808 10.2125 3.83432 9.78125 3.90307 9.38123ZM3.33432 9.63746L3.58432 9.52502C3.52182 9.89995 3.47183 10.2937 3.44058 10.7125L3.14682 10.7624C3.19127 10.3847 3.25385 10.0092 3.33432 9.63746ZM8.34682 13.6687C8.34682 14.3312 8.37805 14.9563 8.42182 15.5437C7.87827 15.4779 7.33644 15.3987 6.79682 15.3063C6.71556 14.7625 6.65931 14.1812 6.62182 13.5437C7.27806 13.6062 7.88431 13.6438 8.34682 13.6687ZM6.12181 13.5C6.15307 14.1125 6.20931 14.6875 6.27806 15.2125C5.85932 15.1313 5.45933 15.0375 5.08432 14.9375C5.00933 14.4625 4.94682 13.9375 4.90308 13.375C5.30932 13.425 5.71557 13.4625 6.12181 13.5ZM4.49683 13.3313C4.54058 13.8625 4.59683 14.3624 4.66557 14.8188C4.40307 14.7436 4.16557 14.6561 3.94682 14.5686C3.87182 14.1562 3.80933 13.7125 3.76558 13.2375L4.50307 13.3313H4.49683ZM3.46557 13.1937C3.49682 13.6312 3.55307 14.0375 3.61557 14.425L3.25932 14.2375C3.19393 13.8711 3.14595 13.502 3.11557 13.1312L3.46557 13.1937ZM6.07806 11C5.67807 11.0312 5.26557 11.0625 4.85932 11.1063C4.83643 11.6644 4.83851 12.2232 4.86557 12.7812L6.09056 12.9062C6.06679 12.2711 6.06262 11.6354 6.07806 11ZM4.46558 12.7312C4.44768 12.2063 4.44768 11.681 4.46558 11.1562C4.20308 11.1875 3.95308 11.2187 3.71557 11.2625C3.69612 11.7207 3.6982 12.1795 3.72183 12.6375L4.47182 12.7312H4.46558ZM3.42182 12.5875C3.40202 12.1627 3.39785 11.7374 3.40932 11.3125L3.09683 11.3749C3.07182 11.7687 3.06558 12.1563 3.07808 12.5249L3.42182 12.5875Z" fill="white"/>
<path d="M12.0032 14.9V12.6813C12.0032 12.4937 12.2282 12.3999 12.3657 12.5312L13.5844 13.7187V15.9686L14.2595 16.5999V13.725L12.0032 11.5375V7.63745L16.6907 12.2812L21.3782 7.63745V11.5312L19.1281 13.7187V16.5999L19.7969 15.9749V13.725L21.0156 12.5375C21.1532 12.3999 21.3782 12.4937 21.3782 12.6813V14.9L19.022 17.1499C18.8844 17.2811 18.6594 17.1875 18.6594 17.0062V13.725L21.0219 11.3874V8.51245L20.1283 9.35627V10.8687L16.6907 14.2875L13.2533 10.875V9.41241L12.3594 8.50621V11.3812L14.7219 13.725V16.9999C14.7219 17.1875 14.4969 17.275 14.3594 17.1499L12.0032 14.9Z" fill="white"/>
</svg>
