<svg width="24" height="24" viewBox="0 0 24 24" fill="none" xmlns="http://www.w3.org/2000/svg">
<path fill-rule="evenodd" clip-rule="evenodd" d="M5.58321 7.42481L10.1724 5.49623C10.8431 5.22966 12.4742 4.85552 13.6331 5.49623C14.7919 6.13781 14.7654 6.85738 14.6076 7.13681L18.6709 8.03852L17.0046 8.92738L13.4411 8.03852L12.1721 8.53952L14.8378 10.0044L12.6461 11.1941L5.58321 7.42481ZM9.71292 7.19252L11.2901 6.54238C11.4876 6.47123 11.9411 6.37095 12.1746 6.54238C12.4661 6.75581 12.3019 7.02323 12.0375 7.19252C11.8262 7.32795 11.1898 7.6168 10.8984 7.74452L9.71292 7.19252Z" fill="white"/>
<path d="M5.14307 8.16881V15.4807L6.85735 16.3622V12.0319L8.07707 14.8721L9.85735 13.3022V17.9587L12.4288 19.2855V11.8554L10.0172 10.7231L8.38435 11.9711L6.85864 9.06838L5.14307 8.16881Z" fill="white"/>
<path d="M18.8574 8.81209L12.8574 11.7821V13.5667L15.0002 12.5317V16.2662L12.8574 17.3162V19.0858L18.8574 15.9212V14.1667L17.1431 15.1712V11.4367L18.8574 10.5367V8.81209Z" fill="white"/>
</svg>
