<svg width="24" height="24" viewBox="0 0 24 24" fill="none" xmlns="http://www.w3.org/2000/svg">
<path d="M5.57129 15.8572H18.4284V18.4286H5.57129V15.8572ZM11.1427 4.71436H12.4284V14.5715H11.1427V4.71436Z" fill="white"/>
<path d="M13.067 8.14293H15.4113C15.4113 8.14293 15.437 8.0015 15.4284 7.78721C15.3941 7.08436 15.0856 5.5715 11.9356 5.5715C8.447 5.5715 8.37843 7.67578 8.37843 7.98864C8.37843 8.23293 8.237 9.78436 10.2899 10.3029C12.347 10.8215 13.2856 10.8729 13.2856 11.6315C13.2856 12.3944 12.6213 12.6172 12.0684 12.6172C11.5113 12.6172 10.7141 12.5615 10.7141 11.5715H8.14272C8.14272 11.5715 7.96272 14.1429 11.9356 14.1429C15.9084 14.1429 15.857 11.7429 15.857 11.3786C15.857 11.0358 15.7799 9.69436 13.5256 9.13721C11.2756 8.58007 10.7141 8.5715 10.7141 7.78721C10.7141 7.14436 11.6056 7.0715 12.0427 7.0715C12.3556 7.0715 13.067 7.06721 13.067 8.14293Z" fill="white"/>
</svg>
