<svg width="24" height="24" viewBox="0 0 24 24" fill="none" xmlns="http://www.w3.org/2000/svg">
<path fill-rule="evenodd" clip-rule="evenodd" d="M18.0085 7.24861C17.3085 10.0007 15.8165 15.8054 15.4474 17.0108C15.322 17.4218 15.094 18.0314 14.6413 18.5502C14.1492 19.1113 13.2608 19.5756 12.3031 19.5756C11.1831 19.5756 10.5263 19.1331 9.97408 18.4908C9.53712 17.9829 9.34567 17.3757 9.26265 17.1126L9.23902 17.0392L9.22629 17.0005L6.67725 7.20074C6.68332 7.2262 6.65847 7.13711 6.5421 7.04073C6.44453 6.95952 6.23485 6.83347 5.80879 6.83347C5.26941 6.83347 5.03063 7.44376 5.03063 8.06072C5.03063 8.72615 4.4755 9.2728 3.81853 9.2728C3.16158 9.2728 2.60645 8.72615 2.60645 8.06072V7.15528C2.60645 6.74801 2.97614 6.0353 3.4434 5.49775C3.94156 4.92564 4.72397 4.42444 5.8094 4.42444C7.76328 4.42444 8.7572 5.68926 8.98507 6.61408L11.5074 16.3084L11.5129 16.3254C11.8966 17.478 12.848 17.3629 13.1741 16.2981C13.5232 15.1588 15.0062 9.39039 15.7134 6.61106L15.7176 6.59287L15.7231 6.5753C15.9716 5.70865 16.9612 4.42444 18.889 4.42444C19.9291 4.42444 20.7278 4.88928 21.2466 5.49775C21.7327 6.06743 21.9999 6.79348 21.9999 7.43527V18.3636C21.9999 19.0289 21.4448 19.5756 20.7878 19.5756C20.1309 19.5756 19.5757 19.0363 19.5757 18.3713V7.30922C19.5463 7.22291 19.5023 7.14232 19.4455 7.07104C19.3352 6.94135 19.1727 6.83286 18.889 6.83286C18.4987 6.83286 18.289 6.95165 18.177 7.04378C18.0673 7.13467 18.0212 7.22376 18.0103 7.24497L18.0085 7.24861ZM3.81853 14.1212C4.48821 14.1212 5.03063 14.6739 5.03063 15.3558V18.3411C5.03063 19.0228 4.48762 19.5756 3.81853 19.5756C3.14885 19.5756 2.60645 19.0228 2.60645 18.3411V15.3558C2.60645 14.6739 3.14946 14.1212 3.81853 14.1212Z" fill="white"/>
<path d="M2.3201 12.4696C2.21861 12.3681 2.1381 12.2477 2.08318 12.1151C2.02827 11.9824 2 11.8405 2 11.6969C2 11.5534 2.02827 11.4113 2.08318 11.2786C2.1381 11.1461 2.21861 11.0256 2.3201 10.9241L3.04553 10.1987C3.147 10.0973 3.26746 10.0167 3.40004 9.96181C3.53262 9.90694 3.67473 9.87866 3.81823 9.87866C3.96175 9.87866 4.10385 9.90694 4.23642 9.96181C4.36901 10.0167 4.48948 10.0973 4.59094 10.1987L5.31638 10.9241C5.41787 11.0256 5.49836 11.1461 5.55328 11.2786C5.60821 11.4113 5.63647 11.5534 5.63647 11.6969C5.63647 11.8405 5.60821 11.9824 5.55328 12.1151C5.49836 12.2477 5.41787 12.3681 5.31638 12.4696L4.59094 13.195C4.48948 13.2966 4.36901 13.377 4.23642 13.4319C4.10385 13.4869 3.96175 13.5152 3.81823 13.5152C3.67473 13.5152 3.53262 13.4869 3.40004 13.4319C3.26746 13.377 3.147 13.2966 3.04553 13.195L2.3201 12.4696Z" fill="white"/>
</svg>
