<svg width="24" height="24" viewBox="0 0 24 24" fill="none" xmlns="http://www.w3.org/2000/svg">
<path d="M8.99854 13.6615L5.99854 17.0356V7.27535C5.99854 6.87752 6.15657 6.49599 6.43788 6.21469C6.71918 5.93338 7.10071 5.77535 7.49854 5.77535C7.89636 5.77535 8.27789 5.93338 8.5592 6.21469C8.8405 6.49599 8.99854 6.87752 8.99854 7.27535V13.6615Z" fill="white"/>
<path d="M8.89054 11.2499L8.75768 6.45549L17.0317 16.4313C17.157 16.5817 17.251 16.7556 17.3082 16.9428C17.3654 17.13 17.3847 17.3267 17.3648 17.5214C17.345 17.7162 17.2865 17.905 17.1927 18.0768C17.0989 18.2486 16.9717 18.3999 16.8187 18.5219C16.5096 18.7684 16.1161 18.8839 15.7228 18.8434C15.3294 18.8029 14.9677 18.6098 14.7152 18.3055L8.89054 11.2499Z" fill="white"/>
<path d="M6.00154 16.9199L9.00154 13.3589V17.3562C9.00154 17.754 8.8435 18.1356 8.5622 18.4169C8.28089 18.6982 7.89936 18.8562 7.50154 18.8562C7.10371 18.8562 6.72218 18.6982 6.44088 18.4169C6.15957 18.1356 6.00154 17.754 6.00154 17.3562V16.9199Z" fill="white"/>
<path d="M6.00154 7.74849L9.00154 11.4175V7.27535C9.00154 6.87752 8.8435 6.49599 8.5622 6.21469C8.28089 5.93338 7.89936 5.77535 7.50154 5.77535C7.10371 5.77535 6.72218 5.93338 6.44088 6.21469C6.15957 6.49599 6.00154 6.87752 6.00154 7.27535V7.74849Z" fill="white"/>
<path d="M17.8507 8.43549C17.9494 8.19119 18 7.93013 17.9998 7.66663C17.9998 6.50949 17.0402 5.57178 15.857 5.57178C14.6737 5.57178 13.7141 6.50949 13.7141 7.66663C13.7141 7.92378 13.7613 8.17021 13.8482 8.39778C14.2541 9.72806 15.3157 10.7631 15.8458 11.1432C17.0278 10.2728 17.6141 9.16492 17.8507 8.43549Z" fill="white"/>
<path d="M15.8574 8.57135C16.331 8.57135 16.715 8.18759 16.715 7.71421C16.715 7.24082 16.331 6.85706 15.8574 6.85706C15.3838 6.85706 14.9998 7.24082 14.9998 7.71421C14.9998 8.18759 15.3838 8.57135 15.8574 8.57135Z" fill="white"/>
</svg>
