<svg width="24" height="24" viewBox="0 0 24 24" fill="none" xmlns="http://www.w3.org/2000/svg">
<path fill-rule="evenodd" clip-rule="evenodd" d="M2 11.9999H3.80624C3.8062 13.0727 4.01862 14.1349 4.43122 15.1251C4.84384 16.1155 5.44847 17.0143 6.21024 17.7697C6.97201 18.5249 7.87584 19.122 8.86956 19.5262C9.8632 19.9305 10.9272 20.1341 11.9999 20.1249V22C9.34783 22 6.80427 20.9464 4.92892 19.0709C3.05355 17.1957 2 14.6521 2 11.9999ZM11.9999 2V3.87499C14.143 3.89311 16.1919 4.75715 17.7008 6.27891C19.2096 7.80068 20.0562 9.85694 20.0562 11.9999H22C22 9.34783 20.9464 6.80427 19.0709 4.92892C17.1957 3.05355 14.6521 2 11.9999 2ZM15.0999 14.1062C14.6795 14.7254 14.0833 15.2048 13.3881 15.4823C12.6931 15.76 11.9307 15.8231 11.1993 15.6639C10.468 15.5045 9.80093 15.13 9.28425 14.5883C8.76758 14.0469 8.42477 13.363 8.29998 12.625H6.99998V11.3749H8.29998C8.44462 10.498 8.89603 9.70104 9.57373 9.12602C10.2513 8.55096 11.1112 8.2353 11.9999 8.2353C12.8887 8.2353 13.7486 8.55096 14.4263 9.12602C15.1039 9.70104 15.5554 10.498 15.7 11.3749H17.3125L16.6875 12.625H9.89995C10.0128 13.0087 10.2287 13.3542 10.5241 13.6237C10.8196 13.8933 11.1833 14.0768 11.5757 14.154C11.9682 14.2313 12.3742 14.1995 12.7498 14.0622C13.1255 13.9249 13.4562 13.6872 13.7062 13.375L15.0999 14.1062ZM9.89995 11.3749C10.0343 10.9231 10.3109 10.5266 10.6888 10.2447C11.0666 9.96281 11.5254 9.81056 11.9969 9.81056C12.4682 9.81056 12.927 9.96281 13.3049 10.2447C13.6827 10.5266 13.9594 10.9231 14.0937 11.3749H9.89995Z" fill="white"/>
</svg>
