<svg width="24" height="24" viewBox="0 0 24 24" fill="none" xmlns="http://www.w3.org/2000/svg">
<path d="M11.1642 4.56C10.9593 4.70691 10.7976 4.90606 10.6958 5.13671C10.594 5.36736 10.556 5.62107 10.5856 5.87143C10.6284 6.17143 10.697 6.51857 10.7999 6.92143C11.147 8.27143 11.5456 9.66428 11.9913 11.1129C11.9956 11.13 12.0042 11.13 12.0084 11.1129C12.3513 10.0071 12.6684 8.91 12.9642 7.81714C13.1056 7.31143 13.2256 6.81857 13.3327 6.33857C13.3877 6.12694 13.4193 5.90993 13.427 5.69143C13.4224 5.43072 13.3465 5.17626 13.2074 4.95568C13.0684 4.7351 12.8716 4.55683 12.6383 4.44022C12.4051 4.32361 12.1444 4.27312 11.8845 4.29424C11.6246 4.31536 11.3755 4.40727 11.1642 4.56ZM8.03559 9.99428C8.34845 10.2086 8.70845 10.38 9.04702 10.5343C9.85702 10.9029 10.7013 11.2457 11.5884 11.5714C11.6099 11.5757 11.6142 11.5714 11.6099 11.55C11.3527 10.8643 11.0956 10.2129 10.8384 9.60857C10.6695 9.20872 10.485 8.81557 10.2856 8.43C10.1943 8.24727 10.0836 8.07486 9.95559 7.91571C9.82364 7.76758 9.66217 7.64868 9.48155 7.56664C9.30093 7.4846 9.10514 7.44124 8.90677 7.43934C8.7084 7.43743 8.51183 7.47703 8.32967 7.55559C8.1475 7.63415 7.98378 7.74994 7.84901 7.89551C7.71424 8.04109 7.61141 8.21323 7.5471 8.4009C7.4828 8.58857 7.45844 8.78761 7.47561 8.98525C7.49278 9.18288 7.55108 9.37474 7.64678 9.54852C7.74248 9.72229 7.87346 9.87413 8.0313 9.99428H8.03559ZM13.7742 8.46428C13.8384 8.33571 13.907 8.21571 13.9884 8.08714C14.1013 7.90819 14.2527 7.75666 14.4316 7.64359C14.6104 7.53053 14.8122 7.45877 15.0223 7.43355C15.2324 7.40833 15.4454 7.43028 15.6459 7.4978C15.8465 7.56532 16.0294 7.67672 16.1814 7.82387C16.3335 7.97102 16.4508 8.15023 16.5248 8.34844C16.5988 8.54665 16.6277 8.75888 16.6094 8.96967C16.591 9.18046 16.5259 9.3845 16.4187 9.56694C16.3116 9.74938 16.1651 9.90562 15.9899 10.0243C15.7327 10.1914 15.4627 10.3329 15.1842 10.4614C14.3356 10.8557 13.4313 11.2243 12.4842 11.5714C12.467 11.5757 12.4627 11.5714 12.467 11.5543C12.8527 10.5257 13.2642 9.45428 13.7742 8.46428ZM4.98845 10.77C4.73685 10.9177 4.53654 11.1389 4.41452 11.4039C4.2925 11.6689 4.25462 11.9649 4.30599 12.2521C4.35735 12.5393 4.49549 12.8038 4.70181 13.0101C4.90812 13.2163 5.17269 13.3544 5.45988 13.4057C5.64416 13.44 5.87559 13.4271 6.15416 13.3714C6.40273 13.3243 6.64702 13.2686 6.89559 13.2C8.29273 12.8486 9.69845 12.4414 11.0956 12.0171C11.1256 12.0043 11.1256 11.9957 11.0956 11.9871C9.57416 11.52 8.0313 11.0657 6.47988 10.6971C5.93559 10.5686 5.47702 10.4829 4.99273 10.77H4.98845ZM19.6713 11.6529C19.8856 12.5657 19.2642 13.3543 18.3513 13.4314C18.1634 13.4331 17.9761 13.41 17.7942 13.3629C17.2756 13.2471 16.7656 13.1271 16.2727 12.99C15.137 12.6814 14.0099 12.3557 12.8956 12.0129C12.8742 12.0043 12.8742 12 12.8956 11.9914C14.3527 11.5371 15.767 11.1343 17.1384 10.7914C17.357 10.7314 17.5927 10.68 17.8456 10.6286C18.0729 10.5744 18.3083 10.5628 18.5399 10.5943C18.8104 10.643 19.061 10.7689 19.2618 10.9567C19.4625 11.1444 19.6047 11.3862 19.6713 11.6529ZM15.7456 13.8257C15.5367 13.7108 15.3237 13.6036 15.107 13.5043C14.2433 13.1104 13.364 12.7515 12.4713 12.4286V12.4371C12.8399 13.4571 13.247 14.4429 13.7013 15.3943C13.8042 15.6086 13.9884 15.9557 14.177 16.1443C14.3265 16.2902 14.5063 16.4014 14.7035 16.4703C14.9008 16.5391 15.1107 16.5638 15.3185 16.5426C15.5263 16.5213 15.727 16.4548 15.9062 16.3475C16.0855 16.2403 16.2391 16.095 16.3561 15.9219C16.473 15.7489 16.5506 15.5522 16.5832 15.3459C16.6159 15.1396 16.6029 14.9286 16.5451 14.7278C16.4872 14.5271 16.3861 14.3415 16.2487 14.1841C16.1113 14.0268 15.941 13.9015 15.7499 13.8171L15.7456 13.8257ZM11.597 12.4843C11.1684 13.6414 10.757 14.6229 10.3584 15.4329C10.2246 15.7501 10.0244 16.0351 9.7713 16.2686C9.51232 16.4643 9.1945 16.5662 8.86998 16.5575C8.54547 16.5488 8.23354 16.4301 7.98539 16.2208C7.73723 16.0115 7.56758 15.7241 7.50428 15.4057C7.44098 15.0873 7.48779 14.7569 7.63702 14.4686C7.73988 14.28 7.86416 14.13 8.02273 14.0229C8.22845 13.8771 8.45988 13.7443 8.70845 13.6243C9.65264 13.18 10.6181 12.7824 11.6013 12.4329L11.6099 12.4414V12.4629L11.597 12.4843ZM10.5813 18.1543C10.5438 18.4924 10.6286 18.8327 10.8205 19.1136C11.0123 19.3945 11.2984 19.5974 11.627 19.6855C11.9555 19.7736 12.3048 19.7411 12.6114 19.5938C12.918 19.4466 13.1618 19.1943 13.2984 18.8829C13.4913 18.4671 13.427 18.0686 13.3284 17.6271C12.9384 16.03 12.4953 14.4463 11.9999 12.8786C11.567 14.2586 11.1642 15.6643 10.7956 17.1043C10.7099 17.4386 10.6113 17.8629 10.5813 18.1543Z" fill="white"/>
</svg>
