<svg width="24" height="24" viewBox="0 0 24 24" fill="none" xmlns="http://www.w3.org/2000/svg">
<path d="M5.57129 18.4284V15.4284H9.62986L11.5713 18.4284H5.57129ZM5.57129 10.7141V13.2856H10.9841C11.327 13.2856 11.9999 13.0713 11.9999 11.9999C11.9999 10.9284 11.3227 10.7141 10.9841 10.7141H5.57129Z" fill="white"/>
<path d="M5.57129 5.57129H15.4499C16.7999 5.57129 18.4284 6.29557 18.4284 7.85986V10.1013C18.4284 10.8556 18.0084 11.5199 17.3999 11.9399C18.2056 12.3256 18.4284 13.2384 18.4284 13.727V16.1399C18.4284 17.6699 16.3713 18.4284 15.107 18.4284H14.3013L11.9613 14.9184L12.3256 14.8884C13.697 14.777 14.1984 13.1656 14.1984 11.9999C14.1984 10.4956 13.3756 8.57129 11.6527 8.57129H5.57129V5.57129ZM6.00415 6.00415V8.14272H11.657C13.6241 8.14272 14.6356 10.2556 14.6356 12.0041C14.6356 13.277 14.1041 14.927 12.7156 15.2699L14.537 17.9999H15.1113C16.1227 17.9999 17.9999 17.4084 17.9999 16.1441V13.7313C17.9999 13.0113 17.5541 12.317 16.8084 12.2184L16.757 11.8027C17.4513 11.5413 17.9999 10.8599 17.9999 10.1056V7.86415C17.9999 6.54843 16.5556 6.00843 15.4541 6.00843H6.00415V6.00415Z" fill="white"/>
</svg>
