<svg width="24" height="24" viewBox="0 0 24 24" fill="none" xmlns="http://www.w3.org/2000/svg">
<path fill-rule="evenodd" clip-rule="evenodd" d="M12.0005 2.625C14.1078 2.62447 16.1539 3.33395 17.8085 4.63897C19.4631 5.94399 20.6299 7.7684 21.1204 9.81787C21.6109 11.8673 21.3966 14.0222 20.5121 15.935C19.6276 17.8477 18.1244 19.4065 16.2452 20.3602C14.366 21.3138 12.2202 21.6064 10.1543 21.191C8.08832 20.7753 6.22262 19.6759 4.8582 18.0698C3.49378 16.4639 2.71025 14.445 2.63403 12.339C2.5578 10.2332 3.19332 8.16292 4.43805 6.46249C4.70051 6.72392 5.03473 6.90144 5.39829 6.97252C5.76186 7.04358 6.13832 7.00501 6.47991 6.86167C6.82149 6.71835 7.11278 6.47673 7.31676 6.1675C7.52073 5.85829 7.62821 5.49542 7.62555 5.12499C7.62619 4.84356 7.56346 4.5656 7.44203 4.31172C7.32061 4.05784 7.14358 3.83455 6.92409 3.6584C6.70461 3.48226 6.44828 3.35779 6.17413 3.29421C5.89997 3.23064 5.61503 3.22959 5.34041 3.29115C5.06581 3.3527 4.80857 3.47529 4.5878 3.64983C4.36702 3.82434 4.18836 4.04633 4.06507 4.29931C3.94177 4.5523 3.877 4.82978 3.87558 5.11121C3.87415 5.39263 3.93608 5.67077 4.0568 5.925C2.68585 7.71754 1.96153 9.92112 2.00158 12.1774C2.04162 14.4338 2.84367 16.6102 4.27738 18.353C5.71106 20.0958 7.69208 21.3024 9.89836 21.7766C12.1047 22.2509 14.4065 21.965 16.4298 20.9654C18.4529 19.9657 20.0785 18.311 21.0423 16.2704C22.006 14.2299 22.2512 11.9233 21.738 9.7257C21.2248 7.52819 19.9833 5.56883 18.2154 4.16619C16.4476 2.76355 14.2573 2.00012 12.0005 2V2.625ZM5.75055 6.375C6.08208 6.375 6.40001 6.24329 6.63443 6.00887C6.86885 5.77445 7.00055 5.45651 7.00055 5.12499C7.00055 4.79348 6.86885 4.47553 6.63443 4.24111C6.40001 4.00669 6.08208 3.87499 5.75055 3.87499C5.41903 3.87499 5.10109 4.00669 4.86667 4.24111C4.63225 4.47553 4.50054 4.79348 4.50054 5.12499C4.50054 5.45651 4.63225 5.77445 4.86667 6.00887C5.10109 6.24329 5.41903 6.375 5.75055 6.375ZM12.0005 16.375C13.1609 16.375 14.2736 15.914 15.0941 15.0935C15.9146 14.2731 16.3755 13.1604 16.3755 12C16.3755 10.8397 15.9146 9.72687 15.0941 8.9064C14.2736 8.08593 13.1609 7.62499 12.0005 7.62499C10.8403 7.62499 9.72744 8.08593 8.90695 8.9064C8.08648 9.72687 7.62555 10.8397 7.62555 12C7.62555 13.1604 8.08648 14.2731 8.90695 15.0935C9.72744 15.914 10.8403 16.375 12.0005 16.375Z" fill="white"/>
</svg>
