<svg width="24" height="24" viewBox="0 0 24 24" fill="none" xmlns="http://www.w3.org/2000/svg">
<path d="M13.6699 9.02507L13.4205 9.83507C12.9465 9.7605 12.5038 9.66707 12.0615 9.62335C11.7996 9.5985 11.5249 9.66707 11.4255 9.96021C11.3192 10.2658 11.3068 10.5838 11.5562 10.8204C11.8181 11.0638 12.1176 11.2571 12.4044 11.4628C12.6658 11.6621 12.9465 11.8369 13.1775 12.0611C13.7946 12.6846 13.9005 13.4329 13.6511 14.2434C13.5761 14.4692 13.4498 14.6745 13.2822 14.8433C13.1145 15.0121 12.91 15.1398 12.6846 15.2162C12.261 15.3474 11.8145 15.388 11.3741 15.3354C10.9338 15.2827 10.5094 15.138 10.1286 14.9106L10.4218 14.0625C10.8516 14.1748 11.2382 14.3119 11.6372 14.3745C12.0178 14.4366 12.4168 14.3745 12.6161 13.9815C12.7141 13.8012 12.7502 13.5937 12.7186 13.391C12.6871 13.1882 12.5898 13.0015 12.4416 12.8595C12.2046 12.6161 11.9055 12.4352 11.6312 12.2359C11.4439 12.0988 11.2322 11.9865 11.0514 11.8494C10.7015 11.5806 10.4526 11.2017 10.3451 10.7738C10.2376 10.346 10.2778 9.89438 10.4591 9.49221C10.5392 9.30034 10.6642 9.13053 10.8237 8.99709C10.9832 8.86366 11.1724 8.77051 11.3754 8.7255C12.1506 8.53236 12.9702 8.63936 13.6699 9.02507ZM8.63164 11.8866C8.63164 12.3156 8.27507 12.6752 7.84607 12.6786C7.40978 12.6786 7.03564 12.3045 7.04807 11.8682C7.05802 11.6593 7.14753 11.4622 7.29823 11.3172C7.44893 11.1723 7.6494 11.0905 7.8585 11.0886C7.96178 11.0899 8.0638 11.1115 8.15867 11.1524C8.25354 11.1932 8.33939 11.2524 8.41127 11.3266C8.48314 11.4008 8.53962 11.4885 8.57744 11.5846C8.61526 11.6807 8.63368 11.7834 8.63164 11.8866ZM16.1758 11.1135C16.6125 11.1135 16.9301 11.4255 16.9365 11.8678C16.938 11.9736 16.9184 12.0786 16.879 12.1768C16.8396 12.275 16.7811 12.3645 16.7068 12.4399C16.6326 12.5153 16.5442 12.5752 16.4466 12.6162C16.349 12.6572 16.2443 12.6784 16.1385 12.6786C15.9302 12.6734 15.7322 12.5871 15.5866 12.438C15.441 12.289 15.3593 12.089 15.3589 11.8806C15.3589 11.4255 15.6894 11.1075 16.1698 11.1075L16.1758 11.1135Z" fill="white"/>
<path fill-rule="evenodd" clip-rule="evenodd" d="M12.0002 18.0002C15.3139 18.0002 18.0002 15.3139 18.0002 12.0002C18.0002 8.6865 15.3139 6.00021 12.0002 6.00021C8.6865 6.00021 6.00021 8.6865 6.00021 12.0002C6.00021 15.3139 8.6865 18.0002 12.0002 18.0002ZM12.0002 18.8574C15.7875 18.8574 18.8574 15.7875 18.8574 12.0002C18.8574 8.21292 15.7875 5.14307 12.0002 5.14307C8.21292 5.14307 5.14307 8.21292 5.14307 12.0002C5.14307 15.7875 8.21292 18.8574 12.0002 18.8574Z" fill="white"/>
</svg>
