<svg width="24" height="24" viewBox="0 0 24 24" fill="none" xmlns="http://www.w3.org/2000/svg">
<path d="M7.32667 6.43359H7.30304C7.07176 6.43514 6.84305 6.48222 6.62998 6.57215C6.41691 6.6621 6.22364 6.79312 6.0612 6.95774C5.89876 7.12238 5.77034 7.31739 5.68327 7.53165C5.59621 7.74591 5.55219 7.97523 5.55375 8.2065C5.55219 8.43976 5.59697 8.67101 5.68551 8.88683C5.77405 9.1027 5.90459 9.29864 6.06953 9.4637C6.23448 9.62862 6.43055 9.75907 6.64635 9.8476C6.86217 9.93626 7.09341 9.98094 7.32667 9.97942V6.43359Z" fill="white"/>
<path d="M13.2363 6.43359H13.2127C12.9815 6.43514 12.7527 6.48222 12.5397 6.57215C12.3266 6.6621 12.1333 6.79312 11.9709 6.95774C11.8084 7.12238 11.68 7.31739 11.5929 7.53165C11.5059 7.74591 11.4619 7.97523 11.4634 8.2065C11.4619 8.43976 11.5066 8.67101 11.5951 8.88683C11.6838 9.1027 11.8142 9.29864 11.9791 9.4637C12.1442 9.62862 12.3401 9.75907 12.5559 9.8476C12.7719 9.93626 13.0031 9.98094 13.2363 9.97942V6.43359Z" fill="white"/>
<path fill-rule="evenodd" clip-rule="evenodd" d="M10.7529 2.00148C8.12908 1.94238 2.89307 3.62665 2.89307 10.8661V10.872C2.89307 19.9257 9.39965 22 11.4267 22C11.8641 21.9763 12.8273 21.7221 13.2114 20.9244C13.6901 19.9197 14.4643 19.5652 15.3861 19.5652C16.3081 19.5652 17.0527 19.1987 17.0527 17.9163C17.0439 17.6078 17.0977 17.3007 17.211 17.0136C17.3244 16.7265 17.4947 16.4655 17.7119 16.2461C17.9289 16.0267 18.1883 15.8538 18.4743 15.7376C18.7601 15.6215 19.0667 15.5645 19.3753 15.5702C20.764 15.5702 21.1068 14.802 21.1068 14.0514C20.0963 13.9214 18.081 12.9463 18.081 10.0387C18.081 5.76597 15.9181 2.00148 10.7529 2.00148ZM7.32536 10.5703C7.9523 10.5703 8.55356 10.3213 8.99686 9.87794C9.44019 9.43461 9.68922 8.8334 9.68922 8.20645C9.68922 7.5795 9.44019 6.97825 8.99686 6.53493C8.55356 6.09162 7.9523 5.84257 7.32536 5.84257C6.69841 5.84257 6.09716 6.09162 5.65384 6.53493C5.21053 6.97825 4.96147 7.5795 4.96147 8.20645C4.96147 8.8334 5.21053 9.43461 5.65384 9.87794C6.09716 10.3213 6.69841 10.5703 7.32536 10.5703ZM13.235 10.5703C13.862 10.5703 14.4632 10.3213 14.9066 9.87794C15.3499 9.43461 15.5989 8.8334 15.5989 8.20645C15.5989 7.5795 15.3499 6.97825 14.9066 6.53493C14.4632 6.09162 13.862 5.84257 13.235 5.84257C12.6081 5.84257 12.0069 6.09162 11.5636 6.53493C11.1203 6.97825 10.8712 7.5795 10.8712 8.20645C10.8712 8.8334 11.1203 9.43461 11.5636 9.87794C12.0069 10.3213 12.6081 10.5703 13.235 10.5703Z" fill="white"/>
</svg>
