<svg width="24" height="24" viewBox="0 0 24 24" fill="none" xmlns="http://www.w3.org/2000/svg">
<path d="M15.0968 16.2398C15.1623 15.9844 15.1953 15.7213 15.1936 15.4564C15.1764 15.0132 15.0326 14.5841 14.7792 14.22C14.1642 13.3131 13.0473 12.8978 12.0882 12.5143C11.8712 12.4307 11.6552 12.3445 11.4402 12.2558L10.4918 12.9488C10.0632 13.2621 9.63461 13.5913 9.06333 14.0288C8.42475 14.5157 7.70775 15.1688 7.44504 15.9428C7.29392 16.3729 7.24936 16.8332 7.31518 17.2843C7.38046 17.7342 7.55433 18.1616 7.82175 18.5293L7.85518 18.5036L7.81918 18.5293C8.07633 18.903 8.42004 19.2064 8.8199 19.413C9.21882 19.6194 9.66299 19.7228 10.112 19.7138C10.9186 19.7066 11.7565 19.2261 12.4122 18.7624C13.2404 18.1737 14.0637 17.5781 14.882 16.9757C14.93 16.857 14.9699 16.7348 15.002 16.6106C15.0355 16.4884 15.0706 16.3568 15.1006 16.2304" fill="white" fill-opacity="0.6"/>
<path d="M15.0968 16.2398C15.1623 15.9844 15.1953 15.7213 15.1936 15.4564C15.1764 15.0132 15.0326 14.5841 14.7792 14.22C14.1642 13.3131 13.0473 12.8978 12.0882 12.5143C11.7505 12.3823 11.4115 12.2507 11.0806 12.0998C10.1644 11.6895 9.32286 11.1294 8.59061 10.4426C6.3659 8.30399 7.64475 4.64656 10.1866 3.47956C10.5749 3.3017 10.556 3.62442 10.4768 3.9227C10.1026 5.34256 11.2988 6.89827 12.4173 7.50256C13.8732 8.29113 15.4662 8.72099 16.7116 9.88585C17.831 10.9316 18.3548 12.7371 17.7376 14.193C17.4102 14.9666 16.8063 15.576 16.1459 16.0586L14.8825 16.9821C14.9305 16.863 14.9703 16.7408 15.0025 16.6166C15.0359 16.4944 15.071 16.3633 15.101 16.2364" fill="white"/>
<path d="M15.0968 16.2398C15.1623 15.9844 15.1953 15.7213 15.1936 15.4564C15.1764 15.0132 15.0326 14.5841 14.7792 14.22C14.1642 13.3131 13.0473 12.8978 12.0882 12.5143C11.8708 12.4304 11.6544 12.3443 11.4389 12.2558L10.493 12.948C11.4736 13.362 12.5378 13.7631 13.3542 14.4853C14.09 15.1371 14.5778 16.0354 14.8842 16.977C14.9321 16.858 14.9722 16.736 15.0042 16.6118C15.038 16.4897 15.0728 16.3581 15.1028 16.2313" fill="white" fill-opacity="0.4"/>
</svg>
