<svg width="24" height="24" viewBox="0 0 24 24" fill="none" xmlns="http://www.w3.org/2000/svg">
<rect width="24" height="24" />
<g clip-path="url(#clip0_0_1)">
<path fill-rule="evenodd" clip-rule="evenodd" d="M12 2C17.5228 2 22 6.47715 22 12C22 17.5228 17.5228 22 12 22C6.47715 22 2 17.5228 2 12C2 6.47715 6.47715 2 12 2ZM8.83858 7.30358C9.19726 7.19221 9.58963 7.31621 9.8099 7.61058L14.0263 13.2452V7.26321H15.7632V9.77095H17.7895V11.4427H15.7632V12.5573H17.7895V14.2291H15.7632V15.8359C15.7632 16.1987 15.5201 16.5201 15.1614 16.6314C14.8027 16.7428 14.4104 16.6188 14.1901 16.3245L9.97368 10.6899V16.7368H8.23684V14.2291H6.21053V12.5573H8.23684V11.4427H6.21053V9.77095H8.23684V8.09911C8.23684 7.73637 8.47995 7.415 8.83858 7.30358Z" fill="white"/>
</g>
<defs>
<clipPath id="clip0_0_1">
<rect width="20" height="20" fill="white" transform="translate(2 2)"/>
</clipPath>
</defs>
</svg>
