<svg width="24" height="24" viewBox="0 0 24 24" fill="none" xmlns="http://www.w3.org/2000/svg">
<path fill-rule="evenodd" clip-rule="evenodd" d="M18.8574 12.0002C18.8574 15.7875 15.7875 18.8574 12.0002 18.8574C8.80521 18.8574 6.12021 16.6716 5.35907 13.7145H6.24878C6.98592 16.1929 9.28221 18.0002 12.0002 18.0002C15.3139 18.0002 18.0002 15.3139 18.0002 12.0002H17.3166L16.3944 13.1766C16.3583 13.2374 16.305 13.2862 16.2413 13.3168C16.1776 13.3474 16.1062 13.3585 16.0362 13.3487C15.9662 13.3389 15.9006 13.3087 15.8478 13.2617C15.7949 13.2148 15.7571 13.1533 15.7391 13.0849L15.1691 10.9292L14.5639 13.9219C14.4846 14.3136 13.9211 14.3021 13.8581 13.9074L13.2958 10.3802L12.5252 16.0862C12.519 16.132 12.5039 16.1761 12.4806 16.216C12.4574 16.256 12.4265 16.2909 12.3898 16.3189C12.353 16.3469 12.3111 16.3674 12.2664 16.3792C12.2218 16.391 12.1752 16.3939 12.1294 16.3877C12.0836 16.3815 12.0395 16.3664 11.9996 16.3431C11.9597 16.3199 11.9247 16.289 11.8967 16.2523C11.8687 16.2155 11.8482 16.1736 11.8364 16.1289C11.8246 16.0843 11.8217 16.0377 11.8279 15.9919L12.9122 7.96478C12.9679 7.55549 13.5572 7.54864 13.6224 7.95621L14.2524 11.9119L14.7722 9.3405C14.8476 8.96892 15.3739 8.95307 15.4708 9.32035L16.2092 12.1112L16.8118 11.2999C16.8765 11.1911 16.9939 11.1431 17.1204 11.1431H18.8042C18.8394 11.4238 18.8574 11.7101 18.8574 12.0002ZM18.6414 10.2859C17.8802 7.32878 15.1956 5.14307 12.0002 5.14307C8.21292 5.14307 5.14307 8.21292 5.14307 12.0002C5.14307 12.2904 5.16107 12.5766 5.19621 12.8574H6.98849C7.11878 12.8574 7.23921 12.7734 7.30221 12.6589L7.73507 12.0268L8.51721 14.5498C8.62649 14.9012 9.13135 14.8798 9.21064 14.5198L9.75235 12.0525L10.3794 15.9855C10.4449 16.3948 11.0372 16.3858 11.0899 15.9748L12.1271 7.88764C12.139 7.79511 12.1137 7.70164 12.0567 7.62778C11.9997 7.55392 11.9157 7.50572 11.8232 7.49378C11.7307 7.48185 11.6372 7.50715 11.5633 7.56414C11.4895 7.62112 11.4413 7.70512 11.4294 7.79764L10.6965 13.5084L10.1599 10.1432C10.0978 9.75192 9.54021 9.73607 9.45535 10.1231L8.80307 13.0952L8.16749 11.0458C8.14674 10.9785 8.10663 10.9188 8.05217 10.8741C7.99772 10.8295 7.93132 10.8018 7.86127 10.7947C7.79121 10.7875 7.72059 10.8011 7.65822 10.8338C7.59584 10.8665 7.54446 10.9168 7.5105 10.9785L6.78492 12.0002H6.00021C6.00021 8.6865 8.6865 6.00021 12.0002 6.00021C14.7182 6.00021 17.0145 7.8075 17.7516 10.2859H18.6414Z" fill="white"/>
</svg>
