<svg width="24" height="24" viewBox="0 0 24 24" fill="none" xmlns="http://www.w3.org/2000/svg">
<path d="M4.71436 8.40008C4.76471 7.87701 4.88285 7.3627 5.06578 6.87008C5.0698 6.86818 5.07419 6.86719 5.07864 6.86719C5.08309 6.86719 5.08748 6.86818 5.0915 6.87008L5.11721 6.88722L5.12578 6.90008C5.11293 8.30151 5.52864 9.83151 6.90436 10.3972C7.30721 10.5601 7.74007 10.6587 8.19864 10.6929C8.88435 10.7401 9.57864 10.7358 10.2858 10.7187C10.3501 10.7187 10.4144 10.7572 10.4615 10.7958C10.5129 10.8344 10.5472 10.8858 10.5644 10.9501L10.9329 12.1501C10.9338 12.1555 10.9363 12.1604 10.9401 12.1643C10.944 12.1681 10.949 12.1707 10.9544 12.1715H10.9715L10.9801 12.1629L11.3015 11.7087C11.3073 11.702 11.3154 11.6979 11.3242 11.6971C11.333 11.6963 11.3417 11.6989 11.3486 11.7044L11.3615 11.7129L11.9701 12.9472C11.9915 12.9901 12.0129 12.9901 12.0301 12.9472L12.6386 11.7087C12.6515 11.6829 12.6686 11.6829 12.6815 11.7087L13.0286 12.1801C13.0313 12.1813 13.0343 12.1819 13.0372 12.1819C13.0402 12.1819 13.0431 12.1813 13.0458 12.1801C13.0491 12.1801 13.0524 12.1793 13.0554 12.1778C13.0583 12.1763 13.0609 12.1742 13.0629 12.1715L13.4401 10.9115C13.4529 10.8601 13.4829 10.8172 13.5215 10.7829C13.5644 10.7572 13.6072 10.7187 13.6629 10.7187C14.2544 10.7272 14.8458 10.7444 15.4415 10.7187C16.4701 10.6758 17.5286 10.4187 18.1672 9.58722C18.6944 8.90151 18.8529 7.86008 18.8744 6.99008C18.8786 6.82294 18.9086 6.81865 18.9686 6.97294C19.4315 8.19008 19.4315 9.7758 18.6772 10.9072C17.9572 11.9787 16.6715 12.4844 15.4372 12.6687C15.2269 12.6929 15.0261 12.77 14.8537 12.893C14.6813 13.0159 14.5429 13.1805 14.4515 13.3715C14.1215 14.0229 13.7744 14.6872 13.4529 15.3558C13.3672 15.5315 13.3201 15.7072 13.3072 15.8872C13.2815 16.3115 13.2772 16.7572 13.2901 17.2158C13.2901 17.2587 13.2815 17.3015 13.2601 17.3315L12.6772 18.3901C12.6601 18.4201 12.6344 18.4329 12.6044 18.4329H11.3872C11.3736 18.4325 11.3603 18.4283 11.3489 18.4207C11.3376 18.4132 11.3285 18.4025 11.3229 18.3901C11.1386 18.0644 10.9715 17.7301 10.7744 17.3872C10.7272 17.3058 10.7058 17.2201 10.7058 17.1301C10.7058 16.5044 10.7701 15.8358 10.4872 15.2572C10.0886 14.4429 9.75864 13.7787 9.48864 13.2772C9.24864 12.8272 8.81578 12.7115 8.34007 12.6258C6.38578 12.2829 4.86436 11.1815 4.71436 9.05579V8.40008Z" fill="white"/>
</svg>
