<svg width="24" height="24" viewBox="0 0 24 24" fill="none" xmlns="http://www.w3.org/2000/svg">
<path d="M12.0001 19.2858C13.9324 19.2858 15.7855 18.5182 17.1518 17.1518C18.5182 15.7855 19.2858 13.9324 19.2858 12.0001C19.2858 10.0678 18.5182 8.21463 17.1518 6.84829C15.7855 5.48196 13.9324 4.71436 12.0001 4.71436C10.0678 4.71436 8.21463 5.48196 6.84829 6.84829C5.48196 8.21463 4.71436 10.0678 4.71436 12.0001C4.71436 13.9324 5.48196 15.7855 6.84829 17.1518C8.21463 18.5182 10.0678 19.2858 12.0001 19.2858ZM6.42864 8.76864L6.35578 8.79007C6.91972 7.7942 7.73639 6.96471 8.72336 6.38533C9.71033 5.80595 10.8327 5.49718 11.9771 5.49019C13.1215 5.4832 14.2476 5.77823 15.2416 6.34551C16.2355 6.91278 17.0623 7.73223 17.6383 8.72114C18.2144 9.71005 18.5194 10.8334 18.5225 11.9779C18.5257 13.1223 18.2269 14.2474 17.6563 15.2394C17.0857 16.2315 16.2635 17.0555 15.2726 17.6282C14.2818 18.201 13.1574 18.5022 12.0129 18.5015C11.5636 18.5004 11.1232 18.376 10.7397 18.1419C10.3561 17.9078 10.0442 17.573 9.83778 17.1739C9.63138 16.7748 9.53843 16.3267 9.56906 15.8784C9.59969 15.4301 9.75272 14.9988 10.0115 14.6315L10.0158 14.6229C10.371 14.1226 10.9015 13.7743 11.5018 13.6472C12.1022 13.5202 12.7283 13.6237 13.2558 13.9372L14.2415 14.9101C14.3572 15.0815 15.3258 15.0258 15.4972 14.9101C15.6344 14.8244 15.6258 14.3744 15.6172 14.1901C15.6172 14.1429 15.6344 14.0915 15.6729 14.0615C15.8015 13.9458 16.0929 13.6886 16.1829 13.5986C16.2686 13.5129 16.2901 13.2001 16.2944 13.0501C16.2944 13.0029 16.3201 12.9558 16.3629 12.9215C16.5215 12.7929 16.5944 12.5829 16.6201 12.4715C16.6267 12.4501 16.6286 12.4275 16.6257 12.4053C16.6227 12.3831 16.6149 12.3618 16.6029 12.3429L15.7029 10.9115C15.6823 10.8783 15.6747 10.8386 15.6815 10.8001C15.6944 10.6844 15.6901 10.4058 15.3815 10.0586C14.9829 9.60007 13.0415 8.51578 12.7586 8.46007C12.5444 8.41721 12.2358 8.43864 12.0944 8.4515C12.0694 8.45511 12.0439 8.45272 12.0201 8.44452C11.9962 8.43632 11.9747 8.42255 11.9572 8.40436C11.7644 8.2115 11.1344 7.59007 10.9886 7.48721C10.8258 7.38007 10.7529 7.44436 10.7101 7.48721H10.7058C10.6001 7.70749 10.5306 7.94338 10.5001 8.18578C10.4927 8.22819 10.4697 8.26627 10.4355 8.29247C10.4014 8.31867 10.3586 8.33107 10.3158 8.32721C9.21864 8.21578 7.39293 8.55864 6.43293 8.76864H6.42864Z" fill="white"/>
</svg>
