<svg xmlns="http://www.w3.org/2000/svg" width="24" height="24" fill="none" viewBox="0 0 24 24"><g clip-path="url(#a)"><path fill="#181B1E" d="M0 0h24v24H0z"/><path fill="#fff" d="M11.151 6c0-.42.343-.857.772-.857 3.463 0 6.716 2.276 6.934 5.919v5.318c0 .42-.428.763-.857.763s-.857-.343-.857-.763V11.11C16.954 8.255 14.786 6.857 12 6.857c-.429 0-.849-.437-.849-.857m1.697 12c0 .42-.342.857-.77.857-3.464 0-6.717-2.275-6.935-5.918V7.62c0-.42.428-.763.857-.763s.857.343.857.763v5.272c.189 2.854 2.357 4.251 5.143 4.251.428 0 .848.437.848.857"/><path fill="#fff" d="M7.714 5.923c0-.429.343-.78.768-.78.42 0 .762.347.762.78v2.794A4.286 4.286 0 0 1 16.286 12v6.077c0 .429-.343.78-.767.78a.77.77 0 0 1-.763-.78v-2.794A4.286 4.286 0 0 1 7.714 12zM9.244 12a2.756 2.756 0 1 0 0-.017z"/></g><defs><clipPath id="a"><path fill="#fff" d="M0 0h24v24H0z"/></clipPath></defs></svg>