<svg xmlns="http://www.w3.org/2000/svg" width="24" height="24" fill="none" viewBox="0 0 24 24"><g clip-path="url(#a)"><path fill="#F0F3FA" d="M0 0h24v24H0z"/><path fill="url(#b)" fill-rule="evenodd" d="M12 18.429A6.429 6.429 0 1 0 12 5.57a6.429 6.429 0 0 0 0 12.858m0 .857a7.285 7.285 0 1 0 0-14.57 7.285 7.285 0 0 0 0 14.57" clip-rule="evenodd"/><path fill="#44B4AC" d="M13.286 12.214v.643H7.714l3.215-5.143 1.714 2.786h-.857L10.929 9 9 12.214z"/><path fill="#44B4AC" d="M11.143 11.786v-.643h5.571L13.5 16.286 11.786 13.5h.857L13.5 15l1.928-3.214z"/></g><defs><linearGradient id="b" x1="15.214" x2="8.786" y1="5.572" y2="18.214" gradientUnits="userSpaceOnUse"><stop stop-color="#837DBA"/><stop offset=".5" stop-color="#0F67A3"/><stop offset="1" stop-color="#56BCAF"/></linearGradient><clipPath id="a"><path fill="#fff" d="M0 0h24v24H0z"/></clipPath></defs></svg>