<svg xmlns="http://www.w3.org/2000/svg" width="24" height="24" fill="none" viewBox="0 0 24 24"><g clip-path="url(#a)"><path fill="#30BFBD" d="M0 0h24v24H0z"/><path fill="#FDFFFF" fill-rule="evenodd" d="M17.571 6.857h-.428V8.57h.428zm-7.714.429H9V15h.857v-2.572a1.714 1.714 0 0 1 3.429 0V15h.857v-2.572a2.571 2.571 0 0 0-4.286-1.915zM6 15c.66 0 1.26-.249 1.714-.656V15h.857v-2.572A2.571 2.571 0 1 0 6 15m0-.857a1.714 1.714 0 1 0 0-3.429 1.714 1.714 0 0 0 0 3.429M17.143 15c.66 0 1.26-.249 1.714-.656V15h.857v-2.572A2.57 2.57 0 1 0 17.143 15m0-.857a1.714 1.714 0 1 0 0-3.43 1.714 1.714 0 0 0 0 3.43M14.494 7.61l-.338.339 1.35 1.354.343-.343zm6.077.317-.338-.338-1.35 1.354.338.343z" clip-rule="evenodd"/></g><defs><clipPath id="a"><path fill="#fff" d="M0 0h24v24H0z"/></clipPath></defs></svg>