<svg xmlns="http://www.w3.org/2000/svg" width="24" height="24" fill="none" viewBox="0 0 24 24"><g clip-path="url(#a)"><path fill="#FAF1E8" d="M0 0h24v24H0z"/><path fill="#131620" d="M11.927 8.503a.106.106 0 0 1 .146 0l6.429 6.283a.107.107 0 0 1 0 .15l-3.215 3.034a.107.107 0 0 1-.146 0l-3.14-2.957-3.142 2.957a.107.107 0 0 1-.146 0l-3.214-3.034a.107.107 0 0 1 0-.15zM12 8.73 5.726 14.86l3.06 2.884 3.141-2.957c.043-.043.107-.043.146 0l3.141 2.957 3.06-2.884z"/><path fill="#131620" d="M12 14.859 8.786 18l-.643-1.556L12 12.677v2.186z"/><path fill="#F2E2D8" d="M5.571 14.859 8.786 18l-.643-1.556-3.857-3.767 1.285 2.186z"/><path fill="#131620" d="M4.328 12.591a.11.11 0 0 1 .138.009l3.75 3.771a.07.07 0 0 1 .025.035l.643 1.444a.107.107 0 0 1-.171.12l-3.215-3.034a.1.1 0 0 1-.021-.022L4.298 12.73a.11.11 0 0 1 .03-.138m.566.729.763 1.474 2.829 2.764-.433-1.05-3.159-3.192z"/><path fill="#FFE6D6" d="M12 14.859 15.214 18l.643-1.556L12 12.677v2.186z"/><path fill="#131620" d="M12.064 12.656a.11.11 0 0 1 .116.025l3.75 3.686c.034.03.043.077.026.12l-.652 1.449a.107.107 0 0 1-.171.034l-3.099-2.957A.1.1 0 0 1 12 14.94v-2.186c0-.043.026-.081.064-.098m-.064.201V14.7l3.171 3.004.558-1.234z"/><path fill="#131620" d="M18.429 14.859 15.214 18l.643-1.556 3.857-3.767-1.285 2.186z"/><path fill="url(#b)" d="M4.286 12.677 12 5.143l7.714 7.534-3.857 3.772L12 12.677 8.143 16.45z"/><path fill="#131620" d="M11.927 5.173a.107.107 0 0 1 .146 0L19.68 12.6a.1.1 0 0 1 .033.077.1.1 0 0 1-.033.077l-3.75 3.767c-.043.043-.107.043-.146 0L12 12.827 8.22 16.52a.103.103 0 0 1-.15 0l-3.75-3.767a.107.107 0 0 1 0-.154zM12 5.4l-7.457 7.277 3.6 3.617 3.784-3.694c.043-.043.107-.043.146 0l3.784 3.694 3.6-3.617z"/></g><defs><linearGradient id="b" x1="12" x2="12" y1="5.143" y2="16.445" gradientUnits="userSpaceOnUse"><stop stop-color="#F6958C"/><stop offset="1" stop-color="#FFCAA3"/></linearGradient><clipPath id="a"><path fill="#fff" d="M0 0h24v24H0z"/></clipPath></defs></svg>