<svg xmlns="http://www.w3.org/2000/svg" width="24" height="24" fill="none" viewBox="0 0 24 24"><g clip-path="url(#a)"><path fill="#3764FF" d="M0 0h24v24H0z"/><path fill="#373737" d="M9.094 9.094 5.571 5.571v12.857h12.857l-2.571-2.571H8.143v-4.539c0-.728.257-1.585.951-2.228z"/><path fill="#FCFEFB" d="M8.143 11.318c0-.728.257-1.585.951-2.228L12 12l-3.857 3.857z"/><path fill="#D3DDFF" d="M15.857 15.857H8.143L12 12z"/><path fill="#FCFEFB" d="m15.857 15.857 2.571 2.571V5.571H5.571l3.523 3.523c.6-.557 1.534-.951 2.906-.951 2.948 0 3.857 1.817 3.857 3.175z"/></g><defs><clipPath id="a"><path fill="#fff" d="M0 0h24v24H0z"/></clipPath></defs></svg>