<svg xmlns="http://www.w3.org/2000/svg" width="24" height="24" fill="none" viewBox="0 0 24 24"><g clip-path="url(#a)"><path fill="#F0F3FA" d="M0 0h24v24H0z"/><path fill="#E9595C" d="m7.232 15.587 2.736-1.713 4.863 2.892-2.723 1.75z"/><path fill="#109E92" d="M11.247 6 6.536 8.856v5.513l4.711-2.742z"/><path fill="#000" d="m18.857 14.661-3-1.877V11.17l1.286.685V8.899l-4.286-2.786v6.316l-1.279.73 6.082 3.64L12 20.143 5.143 16.09V7.984L12 3.86l6.857 4.125zm-12-5.762v5.274l4.285-2.606V6.22zm3.138 5.165-2.53 1.563L12 18.307l2.562-1.515z"/></g><defs><clipPath id="a"><path fill="#fff" d="M0 0h24v24H0z"/></clipPath></defs></svg>