<svg xmlns="http://www.w3.org/2000/svg" width="24" height="24" fill="none" viewBox="0 0 24 24"><g clip-path="url(#a)"><path fill="#F0F3FA" d="M0 0h24v24H0z"/><path fill="#35AF3B" fill-rule="evenodd" d="M12 19.286a7.286 7.286 0 1 0 0-14.572 7.286 7.286 0 0 0 0 14.572m0 .428a7.714 7.714 0 1 0 0-15.428 7.714 7.714 0 0 0 0 15.428" clip-rule="evenodd"/><path fill="url(#b)" fill-rule="evenodd" d="M16.286 6.643v7.5a.857.857 0 0 1-.857.857h-4.715a.857.857 0 0 1-.857-.857V9.43a.86.86 0 0 1 .857-.857h4.449zm-4.715 4.071a.43.43 0 0 1 .429-.428h2.143a.43.43 0 0 1 .428.428v2.143a.43.43 0 0 1-.428.429H12a.43.43 0 0 1-.428-.429z" clip-rule="evenodd"/><path fill="url(#c)" d="M14.572 12.857a.43.43 0 0 1-.43.429h-3.025c-.403 0-.891-.03-1.26-.643v1.5a.86.86 0 0 0 .857.857h3a.85.85 0 0 0 .857-.857z"/><path fill="url(#d)" d="M12.857 8.571h-2.143a.857.857 0 0 0-.857.857v3.215c.369.613.857.643 1.26.643H12a.43.43 0 0 1-.428-.429v-2.143a.43.43 0 0 1 .428-.428h.857z"/><path fill="url(#e)" fill-rule="evenodd" d="M7.286 8.786v7.5a.86.86 0 0 0 .857.857h4.714a.857.857 0 0 0 .857-.857V11.57a.857.857 0 0 0-.857-.857H8.41zM12 12.857a.43.43 0 0 0-.428-.428H9.429a.43.43 0 0 0-.429.428V15a.43.43 0 0 0 .429.428h2.143A.43.43 0 0 0 12 15z" clip-rule="evenodd"/><path fill="url(#f)" d="M7.286 14.786v1.5a.86.86 0 0 0 .857.857h3c.514 0 .857-.215.857-.857V15a.43.43 0 0 1-.428.428H8.357c-.428 0-.818-.137-1.071-.642"/><path fill="url(#g)" d="M10.714 10.714H8.41L7.286 8.786v6c.253.505.643.643 1.071.643H9.43a.43.43 0 0 1-.429-.43v-2.142a.43.43 0 0 1 .429-.428h1.285z"/></g><defs><linearGradient id="b" x1="15.214" x2="15.214" y1="7.286" y2="13.929" gradientUnits="userSpaceOnUse"><stop stop-color="#72A8CF"/><stop offset="1" stop-color="#1071AB"/></linearGradient><linearGradient id="c" x1="14.572" x2="10.5" y1="14.143" y2="14.143" gradientUnits="userSpaceOnUse"><stop stop-color="#0F6192"/><stop offset="1" stop-color="#1473AD"/></linearGradient><linearGradient id="d" x1="10.714" x2="10.5" y1="7.928" y2="13.286" gradientUnits="userSpaceOnUse"><stop stop-color="#72A8CF"/><stop offset="1" stop-color="#116394"/></linearGradient><linearGradient id="e" x1="10.5" x2="10.5" y1="8.786" y2="17.143" gradientUnits="userSpaceOnUse"><stop stop-color="#36DD21"/><stop offset="1" stop-color="#34B238"/></linearGradient><linearGradient id="f" x1="12" x2="7.286" y1="16.071" y2="16.071" gradientUnits="userSpaceOnUse"><stop stop-color="#34A93A"/><stop offset="1" stop-color="#34B537"/></linearGradient><linearGradient id="g" x1="7.714" x2="7.714" y1="10.071" y2="15.428" gradientUnits="userSpaceOnUse"><stop stop-color="#35E11D"/><stop offset="1" stop-color="#31A137"/></linearGradient><clipPath id="a"><path fill="#fff" d="M0 0h24v24H0z"/></clipPath></defs></svg>