<svg xmlns="http://www.w3.org/2000/svg" width="24" height="24" fill="none" viewBox="0 0 24 24"><g clip-path="url(#a)"><path fill="url(#b)" d="M0 0h24v24H0z"/><path fill="#fff" d="M12 18.857a6.857 6.857 0 1 0 0-13.714 6.857 6.857 0 0 0 0 13.714"/><path fill="#4250E4" d="M12 5.143A6.857 6.857 0 1 1 8.7 18.013 6.853 6.853 0 0 1 5.79 9.093a2.95 2.95 0 0 0 2.902 2.477h.737v-1.285h-.742c-.784.012-1.453-.845-1.465-1.62v-.018c-.009-.797.681-1.35 1.457-1.362.797-.009 1.585.587 1.603 1.371v4.38c0 1.59.964 2.829 2.571 2.82 1.663-.004 3-1.337 3-2.914a2.7 2.7 0 0 0-2.79-2.657h-.634v1.285h.638a1.53 1.53 0 0 1 1.505 1.457v.018a1.577 1.577 0 0 1-1.496 1.525c-.759.005-1.492-.763-1.504-1.534v-4.38c0-.797-.236-1.496-.806-2.066a2.98 2.98 0 0 0-1.59-.818A6.5 6.5 0 0 1 12 5.143"/></g><defs><linearGradient id="b" x1="4.466" x2="29.207" y1="4.161" y2="32.58" gradientUnits="userSpaceOnUse"><stop stop-color="#1A1E21"/><stop offset="1" stop-color="#06060A"/></linearGradient><clipPath id="a"><path fill="#fff" d="M0 0h24v24H0z"/></clipPath></defs></svg>