<svg xmlns="http://www.w3.org/2000/svg" width="24" height="24" fill="none" viewBox="0 0 24 24"><g clip-path="url(#a)"><path fill="url(#b)" d="M0 0h24v24H0z"/><path fill="#fff" d="M16.992 18H7.009a1.866 1.866 0 0 1-1.866-1.864V9.482c0-.63.315-1.21.824-1.548l4.992-3.34a1.91 1.91 0 0 1 2.084 0l4.991 3.34a1.86 1.86 0 0 1 .823 1.548v6.63A1.87 1.87 0 0 1 16.992 18"/><path fill="url(#c)" d="M17.143 18c-1.96-.071-3.513-1.59-3.513-3.418 0-.119.076-.237.178-.309.662-.38 1.094-1.044 1.094-1.827 0-1.187-1.018-2.16-2.29-2.16h-2.216c-.534 0-.967.403-.967.925V18z"/></g><defs><linearGradient id="b" x1="7.448" x2="15.851" y1=".843" y2="24" gradientUnits="userSpaceOnUse"><stop stop-color="#28D0FA"/><stop offset="1" stop-color="#635BD7"/></linearGradient><linearGradient id="c" x1="15.157" x2="10.66" y1="11.468" y2="18.731" gradientUnits="userSpaceOnUse"><stop stop-color="#3257B3"/><stop offset="1" stop-color="#504BC1"/></linearGradient><clipPath id="a"><path fill="#fff" d="M0 0h24v24H0z"/></clipPath></defs></svg>