<svg xmlns="http://www.w3.org/2000/svg" width="24" height="24" fill="none" viewBox="0 0 24 24"><g clip-path="url(#a)"><path fill="url(#b)" d="M0 0h24v24H0z"/><path fill="#F8E000" d="M10.714 6H7.286v10.714h2.143V8.143h4.714c.261 0 .428.197.428.428v1.286c0 .27-.167.429-.428.429H11.57v2.142h2.572c.261 0 .428.236.428.429v1.286c0 .214-.244.428-.428.428H11.57v5.572h2.143v-3.429h1.427c1.329 0 1.573-.874 1.573-1.457v-2.829a1.14 1.14 0 0 0-.643-1.071c.446-.231.643-.9.643-1.286V8.198C16.714 6.57 15.76 6 15.141 6h-2.284V3.857h-2.143z"/><path fill="#F8E000" d="M9.429 18H7.286v2.143h2.143z"/></g><defs><linearGradient id="b" x1="4.466" x2="29.207" y1="4.161" y2="32.58" gradientUnits="userSpaceOnUse"><stop stop-color="#1A1E21"/><stop offset="1" stop-color="#06060A"/></linearGradient><clipPath id="a"><path fill="#fff" d="M0 0h24v24H0z"/></clipPath></defs></svg>