<svg xmlns="http://www.w3.org/2000/svg" width="24" height="24" fill="none" viewBox="0 0 24 24"><g clip-path="url(#a)"><path fill="#ACFE00" d="M0 0h24v24H0z"/><path fill="#000" d="M5.572 6.857v10.286h4.294c.99-.108 1.585-.9 1.706-1.856v-2.331c-.043-.665-.386-1.17-1.029-1.36v-.12c.377-.136.523-.432.6-.813V8.665c0-.964-.75-1.808-1.71-1.808zm6.857 0v1.286h1.285V6.857zm3 0v3h-3v7.286h1.285v-6h1.715v6h3v-1.286h-1.715v-4.714h1.715V9.857h-1.715v-3zm-6.21 1.286c.313.077.604.347.638.668v1.856c-.06.291-.351.42-.651.476H6.857v-3zm.493 4.285c.291.073.531.232.574.527v2.268a.765.765 0 0 1-.574.634H6.857v-3.429z"/></g><defs><clipPath id="a"><path fill="#fff" d="M0 0h24v24H0z"/></clipPath></defs></svg>