<svg xmlns="http://www.w3.org/2000/svg" width="24" height="24" fill="none" viewBox="0 0 24 24"><g clip-path="url(#a)"><path fill="#FF4802" d="M0 0h24v24H0z"/><path fill="#fff" fill-rule="evenodd" d="M8.143 5.143h2.143v.429h1.285v-.429h2.143v.437a3.214 3.214 0 0 1 1.62 5.846 3.643 3.643 0 0 1-1.405 7.003h-.215v.428h-2.143v-.428h-1.285v.428H8.143v-.428H6.428l2.572-3H7.714V8.572H9l-2.572-3h1.715zm2.143 3h2.143a1.286 1.286 0 0 1 0 2.571h-2.143zm0 4.714H13.5a1.5 1.5 0 1 1 0 3h-3.214z" clip-rule="evenodd"/></g><defs><clipPath id="a"><path fill="#fff" d="M0 0h24v24H0z"/></clipPath></defs></svg>