<svg xmlns="http://www.w3.org/2000/svg" width="24" height="24" fill="none" viewBox="0 0 24 24"><g clip-path="url(#a)"><path fill="#F0F3FA" d="M0 0h24v24H0z"/><path fill="#1C834C" d="M3.857 16.577c.009.424.557.279.767.137h.09v.635l.189.223.497-.523v-.369c.12-.069.364-.227.364-.3.343-1.016 1.055-1.286 1.363-1.294l.459-.514h.561c.253-.129.802-.086 1.046-.082l.716-.621.085-.275c.549 0 1.175-.308 1.65-.308h1.076c.231 0 .587.021.754-.064 0 .574.24.685.24.96 0 .222-.141.33-.24.39h.3c-.09.051-.308.214-.471.214-.223.064-.257.788-.244 1.071h.343c.35-.33 1.045-1.183 1.045-1.367 0-.231-.304-.428-.304-1.05 0-.497.278-.853.433-1.011l.158.098c.09-.231.313-.685.502-.685.184 0 .48.54.621.81l-.197.205h.197c-.055.125-.257.365-.351.365-.236 0-.279.557-.27.921.428-.292 1.298-.742 1.298-.921 0-.176-.18-.455-.248-.57v-.63c0-.635-.133-.828-.223-.879H15.6c.274-.052.596-1.286 1.011-1.286.335 0 .48.934.528 1.346.073.129.308.369.565.369.258 0 .6-.288.72-.429v-.407s.125-.275.206-.403v-.39l.214-.407v-.313a.5.5 0 0 0 .3.124c.15 0 .326-.158.386-.291a1.08 1.08 0 0 1-.9-.506c.15.086.54.266.9.266.45 0 .609-.36.609-.673-.103.231-.352.429-.54.429-.185 0-.279-.138-.519-.403-.244-.266-.643-.257-.857-.257-1.2-1.432-2.237-1.483-2.494-1.483s-.24.034-.626.085c-.386.048-.669-.167-.917-.051-.874.497-1.509.54-1.937.686-.343.12-.613.557-.708.763-.24.351-.822 1.14-1.225 1.474-.515.428-.952.471-1.312.471-.287 0-.771-.261-.981-.428-.09 0-.48 0-.63-.043-.193-.047-.754-.437-.754-1.033 0-.48.197-.857.33-.986.094.035.342.099.612.099.378 0 .558-.214.566-.437a1.3 1.3 0 0 0-.051-.39.39.39 0 0 1-.27.364.87.87 0 0 0-.476-.146c-.193 0-.369.227-.433.352a1.8 1.8 0 0 0-.488 1.14c0 .608.317.981.535 1.131.223.15.96.394.96.694 0 .485-.621.93-.638 1.158-.017.18.043 1.212.103 1.684-.155.146-.498.441-.643.441-.232.013-.48.18-.54.339-.249.801-1.179 1.234-1.483 1.354-.309.12-.309.326-.386.471-.077.15-.48.532-.48.96z"/><path fill="url(#b)" d="M17.276 7.011c-.172.433-.429.995-.549.995-.094 0-.146-.052-.197-.108-.047-.051-.099-.102-.184-.102-.086 0-.116.05-.146.107-.03.051-.06.103-.146.103-.081 0-.175-.12-.278-.25-.125-.153-.257-.32-.386-.32-.189 0-.3.197-.334.29-.185.545-.583 1.634-.703 1.634-.073 0-.099-.034-.129-.073-.034-.043-.068-.086-.167-.073-.077.009-.15.18-.236.373-.107.249-.231.536-.402.536-.108 0-.172-.077-.228-.159-.068-.09-.137-.184-.278-.184-.21 0-.326.231-.356.343l-.424 1.067-.317-.112c-.12.3-.42.9-.665.9-.3 0-.484-.355-.642-.677-.133-.257-.249-.48-.403-.48-.275 0-.377.399-.399.6h-.291l-.557 1.217h-.236l-.643 1.933h.171c.215-.111.66-.094.935-.085l.107.004.716-.622.085-.274c.287 0 .592-.086.883-.163.274-.073.536-.145.767-.145h1.192c.223 0 .497.008.643-.065 0 .343.081.515.15.665.042.098.085.184.085.3 0 .214-.141.325-.24.385h.3l-.06.039c-.107.068-.274.18-.407.18-.227.06-.257.784-.248 1.067h.342c.352-.33 1.046-1.183 1.046-1.367 0-.086-.043-.172-.098-.274-.086-.172-.206-.39-.206-.776 0-.497.278-.853.433-1.012l.158.099c.09-.231.313-.686.502-.686.184 0 .48.54.621.81l-.197.206h.197c-.056.124-.257.364-.351.364-.236 0-.279.557-.27.922.128-.086.291-.185.463-.288.407-.244.835-.505.835-.634 0-.154-.133-.381-.214-.514l-.034-.056v-.63c0-.634-.133-.827-.223-.878H15.6c.12-.022.244-.266.386-.54.184-.352.39-.746.625-.746.335 0 .48.934.528 1.346.072.128.308.368.565.368s.6-.287.72-.428v-.408s.125-.274.206-.402v-.39l.214-.407v-.313a.5.5 0 0 0 .3.124c.15 0 .326-.159.386-.291a1.08 1.08 0 0 1-.9-.506c.15.086.54.266.9.266.45 0 .609-.36.609-.673-.103.231-.352.428-.54.428-.159 0-.258-.107-.438-.308l-.085-.095c-.232-.257-.617-.257-.832-.257h-.017a5.5 5.5 0 0 0-.956-.9z"/><path fill="#4DFFA9" d="M17.143 6.921c-.069.172-.154.369-.236.545a3 3 0 0 1-.214.368.4.4 0 0 1-.043-.047l-.008-.008a.4.4 0 0 0-.296-.15.3.3 0 0 0-.197.077c-.043.038-.069.085-.086.107v.004l-.009.013a2 2 0 0 1-.154-.18l-.03-.034a2 2 0 0 0-.193-.215c-.068-.06-.167-.128-.283-.128a.46.46 0 0 0-.342.158.6.6 0 0 0-.146.245c-.09.27-.236.673-.373 1.007a5 5 0 0 1-.214.471.3.3 0 0 0-.086-.073.33.33 0 0 0-.193-.03.27.27 0 0 0-.171.103c-.035.039-.06.086-.086.133a4 4 0 0 0-.107.236l-.039.086q-.06.146-.146.278a.3.3 0 0 1-.055.064l-.017.009c-.022 0-.035-.004-.112-.107-.064-.086-.175-.236-.394-.236a.47.47 0 0 0-.364.184.7.7 0 0 0-.142.266l-.364.917-.317-.111-.06.146a3.3 3.3 0 0 1-.27.535 1 1 0 0 1-.163.206c-.052.051-.077.056-.082.056-.072 0-.145-.039-.227-.129a2 2 0 0 1-.227-.364l-.047-.09a4 4 0 0 0-.18-.326 1 1 0 0 0-.141-.167.34.34 0 0 0-.223-.086c-.227 0-.365.172-.437.317-.043.09-.078.193-.095.283h-.257l-.557 1.217h-.253l-.698 2.1h.338l.587-1.77h.227l.558-1.217h.334l.013-.15a.9.9 0 0 1 .085-.313c.052-.103.108-.137.155-.137 0 0 .008 0 .021.013a.4.4 0 0 1 .082.099q.082.135.15.278l.055.103c.078.146.168.309.279.433.111.129.261.236.459.236.124 0 .227-.073.3-.142.077-.073.15-.171.214-.27.09-.146.171-.313.236-.45l.32.107.485-1.213v-.012a.5.5 0 0 1 .086-.15c.034-.047.077-.069.12-.069.051 0 .077.022.141.107l.013.017c.056.073.163.215.352.215.154 0 .265-.112.33-.202.072-.098.128-.227.18-.338l.043-.099q.057-.132.128-.257a.4.4 0 0 0 .073.077q.07.06.18.06c.06 0 .107-.034.129-.051.02-.022.042-.043.055-.065l.09-.15c.06-.12.129-.278.202-.45.137-.342.287-.754.377-1.028a.4.4 0 0 1 .073-.124q.058-.057.115-.056l.018.004.055.043q.07.066.159.176l.026.034c.042.06.098.124.145.171a.5.5 0 0 0 .103.09.28.28 0 0 0 .356-.021.4.4 0 0 0 .081-.111v-.005l.017-.025c.009 0 .018.008.065.055v.005c.055.055.145.154.308.154a.26.26 0 0 0 .172-.086.6.6 0 0 0 .102-.124 4 4 0 0 0 .193-.352l.215-.497a4 4 0 0 0-.266-.193"/></g><defs><linearGradient id="b" x1="14.061" x2="14.061" y1="7.011" y2="15.857" gradientUnits="userSpaceOnUse"><stop stop-color="#33C07A"/><stop offset=".77" stop-color="#1D8A4F"/></linearGradient><clipPath id="a"><path fill="#fff" d="M0 0h24v24H0z"/></clipPath></defs></svg>