<svg xmlns="http://www.w3.org/2000/svg" width="24" height="24" fill="none" viewBox="0 0 24 24"><g clip-path="url(#a)"><path fill="#FF4339" d="M0 0h24v24H0z"/><path fill="#fff" d="m9 15.904-2.584 1.843a7.7 7.7 0 0 1-2.13-5.267v-.095a7.714 7.714 0 1 1 15.428.005v.085a7.7 7.7 0 0 1-2.108 5.26L15 15.886v-3.904l.951-.703-3.925-2.97L8.1 11.28l.9.703zm3-4.761h.064c1.166 0 2.143.861 2.075 1.954v2.186l-2.143-1.5-2.139 1.521v-2.207c0-1.097.973-1.954 2.143-1.954"/></g><defs><clipPath id="a"><path fill="#fff" d="M0 0h24v24H0z"/></clipPath></defs></svg>