<svg xmlns="http://www.w3.org/2000/svg" width="24" height="24" fill="none" viewBox="0 0 24 24"><g clip-path="url(#a)"><path fill="url(#b)" d="M0 0h24v24H0z"/><path fill="#fff" fill-rule="evenodd" d="M7.598 7.307 5.571 8.486v6.9l2.002 1.2 3.141-1.856v3.754l1.337.802 6.377-3.9v-1.612l-2.995-1.842 2.995-1.865V8.336l-6.377-3.622-1.337.78v3.738zm4.83 6.489 1.278-.797 3.008 1.787-4.286 2.486v-3.476m0-3.699V6.862l4.175 2.357-2.927 1.671-1.248-.797zm-5.142-.81v5.25l3.428-1.95v-1.341z" clip-rule="evenodd"/></g><defs><linearGradient id="b" x1="20.374" x2="1.899" y1="2.571" y2="20.387" gradientUnits="userSpaceOnUse"><stop stop-color="#1352A2"/><stop offset="1" stop-color="#0D2E62"/></linearGradient><clipPath id="a"><path fill="#fff" d="M0 0h24v24H0z"/></clipPath></defs></svg>