<svg xmlns="http://www.w3.org/2000/svg" width="24" height="24" fill="none" viewBox="0 0 24 24"><g clip-path="url(#a)"><path fill="#05BF68" d="M0 0h24v24H0z"/><path fill="#fff" d="M9.857 5.571h1.715v3h-1.286A.43.43 0 0 0 9.857 9v6a.43.43 0 0 0 .429.428h1.286v3H9.857a3 3 0 0 1-3-3V8.571a3 3 0 0 1 3-3m2.572 12.857h1.714a3 3 0 0 0 3-3v-1.714h-3V15a.43.43 0 0 1-.429.428H12.43zM14.143 9a.43.43 0 0 0-.429-.429H12.43v-3h1.714a3 3 0 0 1 3 3v.857h-3z"/></g><defs><clipPath id="a"><path fill="#fff" d="M0 0h24v24H0z"/></clipPath></defs></svg>