<svg xmlns="http://www.w3.org/2000/svg" width="24" height="24" fill="none" viewBox="0 0 24 24"><g clip-path="url(#a)"><path fill="#F0F3FA" d="M0 0h24v24H0z"/><path fill="#C10202" d="M11.576 5.143h.857c.171.009.356.017.527.043a7 7 0 0 1 2.203.698q-.026-.011-.039.022c0 .013-.008.017-.013.021a.2.2 0 0 0-.06.056.03.03 0 0 0 0 .03l.035.086q.012.012 0 .025c-.009.026 0 .043.017.06q.01.007.008.026a.08.08 0 0 0 .013.06.03.03 0 0 1 0 .03q-.005.013.009.013t.021.013l.086.077a.1.1 0 0 0 .03.017q.025.014.039.039a.03.03 0 0 0 .025.017q.026-.001.026.017.002.019.017.026a.16.16 0 0 1 .086.073L15 6.322a6.46 6.46 0 0 0-4.907-.455l-.463.172c-.103.051-.223.085-.317.133l-.356.175q-.175.088-.754.472c-.112.073-.206.171-.322.257-.162.129-.278.283-.428.416-.103.085-.18.132-.227.282-.022-.017-.035-.017-.052 0-.158.16-.321.36-.484.613q-.096.149-.167.309c-.232.32-.414.675-.54 1.05a.5.5 0 0 0-.03.197 3.6 3.6 0 0 0-.3 1.08c-.009.069-.004.163-.026.249a1 1 0 0 0-.026.184v.45q.004.015-.004.03a.05.05 0 0 0-.013.034q0 .169.017.33c.009.082-.008.18 0 .27.03.253.048.497.112.742l.141.583a.3.3 0 0 1 0 .124l-.021.021c-.013 0-.022.013-.026.026l-.004.026c-.052.094-.086.158-.116.188q-.025.034-.064.022-.013-.002-.013.008a.04.04 0 0 1-.009.03h-.017q0-.006 0 0l-.004.086a11 11 0 0 1-.296-.943C4.51 9.592 7.02 5.726 11.14 5.173c.137-.017.29-.017.437-.03"/><path fill="#EFD983" d="M15 6.322a.43.43 0 0 0 .184.197c.112.06.223.098.343.111a6.56 6.56 0 0 1 2.225 2.473c-.275.18-.446-.454-.592-.609a.17.17 0 0 0-.064-.12.1.1 0 0 1-.017-.025.6.6 0 0 0-.095-.163c-.043-.022-.06-.017-.06.017l.005.021c.004.018 0 .039-.026.06a.16.16 0 0 1-.103-.055l-.013-.013q.012-.027.005-.034a2 2 0 0 1-.086-.202.04.04 0 0 0-.022-.021.1.1 0 0 1-.043-.043.06.06 0 0 0-.025-.022l-.082-.038c-.008 0-.017 0-.021.008-.004.022-.022.03-.043.022a.4.4 0 0 1-.107-.047c-.039-.026-.047-.073-.099-.099q-.01-.006-.017.013 0 .018-.021.03a.03.03 0 0 1-.022.008q-.076 0-.102-.077l-.01-.021-.012-.009a.03.03 0 0 1-.013-.017c-.017-.064-.085-.073-.098-.158a.05.05 0 0 0-.018-.03.4.4 0 0 1-.145-.24.04.04 0 0 0-.017-.03.07.07 0 0 0-.06-.013.02.02 0 0 1-.022-.017c-.03-.107-.098-.15-.171-.219a.3.3 0 0 0-.095-.06c-.012-.009-.017 0-.012.009l.008.034.002.02a.05.05 0 0 1-.018.035.1.1 0 0 1-.018.01c-.043.016-.086.008-.112-.022a4 4 0 0 0-.398-.382c-.03-.068-.129-.085-.193-.103a.3.3 0 0 0-.068-.017q-.019.002-.03-.008a.3.3 0 0 1-.103-.137.4.4 0 0 0-.116-.155.1.1 0 0 1-.017-.025c-.022-.043-.069-.065-.086-.103l-.008-.015-.013-.01-.146-.044a.04.04 0 0 0-.043.005.1.1 0 0 0-.047.085l-.004.017-.013.013c-.086.069-.262.034-.373.013-.103-.021-.167.099-.27.03a.03.03 0 0 1-.009-.026v-.012l.013-.005c.052-.013.15-.026.167-.077v-.009l-.004-.008-.008-.004a.4.4 0 0 0-.18.008.03.03 0 0 1-.026-.008.03.03 0 0 1-.008-.03c.02-.077-.01-.125-.082-.129a.5.5 0 0 1-.202-.068.4.4 0 0 0-.128-.043 2.5 2.5 0 0 0-.587.004l-.043.051a.05.05 0 0 1-.026.018c-.094.025-.206-.022-.296.02a.1.1 0 0 1-.03.005.3.3 0 0 0-.145.043.6.6 0 0 1-.21.023.02.02 0 0 1-.009-.01l-.004-.009a.06.06 0 0 0-.03-.017c-.052 0-.09-.021-.142-.013a.5.5 0 0 1-.158 0c-.197-.038-.399-.004-.6-.004-.073 0-.155.022-.232.017-.008 0-.013 0-.017.009l-.004.008-.017.009a.6.6 0 0 0-.253.026c-.043.013-.047 0-.017-.03l.017-.022A6.45 6.45 0 0 1 15 6.322"/><path fill="#EC8941" d="M16.603 8.087a.24.24 0 0 1-.022-.128c.013-.107-.188.034-.034.197.043.047.056.313 0 .818v.039q-.01.027-.006.055a.1.1 0 0 0 .019.052l.013.034.013.108-.129-.18q-.051-.08-.064.017c-.052.493-.116.073-.313.021a.02.02 0 0 1-.009-.008v-.013c.022-.107-.068-.146-.154-.137a.04.04 0 0 1-.03-.01c-.934-.693.707.044-.171-.822l.004-.326c-.009-.008-.313-.025-.317-.034-.013-.686.034-.471-.42-.428-.069.004-.197-.073-.253-.112-.004-.086.034-.128.12-.141q.013-.001.013-.022-.013-.051.026-.077.01-.002.008-.017a.32.32 0 0 0-.107-.176q-.02-.02-.051 0a.03.03 0 0 1-.03 0l-.078-.043a.04.04 0 0 1-.021-.021l-.034-.12a.06.06 0 0 0-.018-.026c-.111-.09.026-.197-.24-.197-.012 0-.017 0-.025.013s-.013.026 0 .043v.034c-.009.013-.022.013-.034.009a.03.03 0 0 1-.018-.017.03.03 0 0 0-.021-.018.08.08 0 0 1-.056-.042.5.5 0 0 0-.128-.142.1.1 0 0 0-.03-.013c-.146-.013-.309-.008-.172.155 0 .008.013.012.022.008a.2.2 0 0 1 .111.004.03.03 0 0 1 .013.051l-.064.07a.05.05 0 0 1-.03.012c-.095.013-.172 0-.257.043a.1.1 0 0 0-.026.022.13.13 0 0 1-.112.055q-.019.001-.025-.017c-.009-.017-.026-.03-.043-.03a.03.03 0 0 1-.03-.021c-.013-.03-.005-.056.021-.069l.095-.038.145-.005.022-.008a.03.03 0 0 0 .012-.035.04.04 0 0 0-.008-.021.22.22 0 0 0-.141-.073c-.3-.043-.9.06-1.12-.261q-.09.012-.115 0c-.073-.03-.12-.069-.206-.073a2 2 0 0 1-.347-.043l-.012-.017a.03.03 0 0 0-.026-.013.27.27 0 0 0-.197.047.04.04 0 0 1-.03.009q-.034-.012-.022-.047l.005-.01.008-.012.005-.008v-.01a.02.02 0 0 0-.013-.008 2 2 0 0 1-.236-.025c-.219-.039-.437 0-.656.008-.107 0-.223.035-.338.035-.15.004-.318.038-.42.14a.03.03 0 0 1-.03.01.07.07 0 0 1-.043-.022.03.03 0 0 0-.026-.004c-.043.013-.073.004-.09-.017l.463-.172-.017.022q-.046.05.017.03a.7.7 0 0 1 .253-.026c.008 0 .012 0 .017-.009v-.008q.01-.014.021-.009c.077 0 .159-.017.232-.017.201 0 .402-.034.6 0a.4.4 0 0 0 .158.004c.052-.008.09.009.142.013l.03.017.004.009a.02.02 0 0 0 .021.013q.134 0 .197-.03a.3.3 0 0 1 .146-.039l.03-.004c.086-.043.202 0 .296-.021.013 0 .021-.01.03-.018l.043-.051q.292-.039.587-.009a.4.4 0 0 1 .128.048c.06.034.172.02.24.03.018 0 .133.17.253.197q.005 0 .009.004l.004.009v.008c-.017.052-.116.06-.167.077a.03.03 0 0 0-.013.017v.013l.009.013c.103.069.167-.051.27-.03.111.022.287.056.373-.013l.011-.01a.03.03 0 0 0 .006-.015q0-.063.051-.086a.04.04 0 0 1 .039-.009l.146.043c.012.004.205.107.214.12.043.112.043.262.128.326l.03.008a.3.3 0 0 1 .069.018c.064.02.163.034.193.102q.21.178.394.382.045.046.116.021a.05.05 0 0 0 .03-.025.05.05 0 0 0 .004-.04l-.008-.033c0-.013 0-.017.012-.009a.3.3 0 0 1 .09.06c.077.069.146.112.176.219a.02.02 0 0 0 .021.017.07.07 0 0 1 .06.013c.009.004.129.008.129.021.086.454.36.506.699.664l.025.022a.1.1 0 0 0 .043.043.04.04 0 0 1 .017.021c.146.377.099.073-.098.107"/><path fill="#E30200" d="M13.577 6.343c.056.008.065.051.103.09a.039.039 0 0 1 .009.043.034.034 0 0 1-.035.021c-.094 0-.158 0-.24.043q-.039.025-.021.069.006.017.026.02c.021 0 .042.014.042.03q.013.02.03.018a.13.13 0 0 0 .112-.056.1.1 0 0 1 .026-.021c.085-.043.162-.03.257-.043l.03-.013.064-.068a.03.03 0 0 0 .009-.014.03.03 0 0 0-.008-.03.03.03 0 0 0-.014-.008.2.2 0 0 0-.111 0c-.009 0-.017 0-.026-.013l-.056-.068a.043.043 0 0 1 .03-.069q.025.001.043-.017a.04.04 0 0 1 .026-.013l.129.013a.06.06 0 0 1 .038.013.7.7 0 0 1 .124.146q.015.03.056.043.014 0 .021.012l.018.018q.02.005.034-.01a.03.03 0 0 0 0-.033c-.013-.017-.009-.03 0-.043a.03.03 0 0 1 .026-.013h.162q.02.002.022.021c0 .022.013.043.03.06a.03.03 0 0 1 .004.03c-.013.035-.008.06.022.086q.011.006.017.026l.034.12a.04.04 0 0 0 .022.026l.077.038c.008.004.021 0 .03 0q.031-.02.051 0a.34.34 0 0 1 .107.172c0 .012 0 .017-.008.02q-.04.027-.026.078c0 .013 0 .022-.013.022q-.13.012-.12.14c-.064-.042-.094-.033-.086.018q0 .008.004.014l.01.012.115.086c.086.055 1.444 1.04 1.534 1.092-.137.408-.223.622-.707.42-.073-.055-1.08-1.152-1.157-1.208a.7.7 0 0 1-.171-.202.2.2 0 0 1 .15.039.047.047 0 0 0 .064-.004.1.1 0 0 0 .008-.022l.026-.09c0-.013.009-.021.017-.03a.2.2 0 0 0 .043-.081.03.03 0 0 0-.006-.021.03.03 0 0 0-.02-.01q-.021 0-.03-.025a.04.04 0 0 0-.03-.026l-.085-.025a.05.05 0 0 1-.03-.017l-.116-.15a.05.05 0 0 0-.043-.022h-.244q-.015.001-.017.022a.1.1 0 0 1-.035.055l.013-.021q.007-.02-.013-.026l-.128-.021c-.082-.03-.163-.043-.244-.077-.125-.052-.253-.086-.373-.146a1.97 1.97 0 0 0-1.243-.202 1 1 0 0 1-.27 0 .5.5 0 0 0-.206-.042h-.009l-.008-.018a.3.3 0 0 0-.013-.094.03.03 0 0 0-.021-.017.6.6 0 0 1-.142-.03.6.6 0 0 0-.124-.026.3.3 0 0 1-.124-.043s-.442-.025-.759.078c-.077.072-.227.05-.343.038h-.013l-.175.09a.03.03 0 0 0-.013.013.1.1 0 0 1-.112.043c-.012-.004-.012-.013-.004-.017l.107-.077.009-.013a.03.03 0 0 0-.008-.03l-.01-.005a.2.2 0 0 0-.11.013c.2-.043.33-.077.385-.094.073-.026.098-.077.077-.163 0-.008-.009-.013-.017-.013h-.086a.2.2 0 0 0-.098.026c-.086.043-.202.06-.266.077l-.154.043c-.09.021-.202.026-.3.056h-.017q-.019-.002-.03.008a.2.2 0 0 1-.06.035.3.3 0 0 0-.06.025 4 4 0 0 1-.442.249c-.06.03-.171.103-.321.227-.017.017-.017.021.008.021h.039c.013 0 .03 0 .043-.008l.188-.112a.3.3 0 0 1 .116-.042q.064-.005.129-.005l-.176.129a.1.1 0 0 0-.017.026c-.026.05-.035.042-.095.072a.05.05 0 0 0-.034.052.04.04 0 0 1-.017.034.14.14 0 0 0-.047.107.04.04 0 0 1-.013.03l-.137.15-.009.013-.013.013a.03.03 0 0 0-.025.017l-.009.017q-.013.027.017.035a.27.27 0 0 0 .215-.07.03.03 0 0 1 .025-.008c.013 0 .026 0 .035-.012q.017-.02.021.008l.009.009v.008a.013.013 0 0 1-.009.013.14.14 0 0 0-.051.017q-.02.009-.013.03l.008.017q.013.014.026.009l.077-.034a.02.02 0 0 0 .013-.022q-.002-.037.034-.055l.03-.005c.073.009.125-.008.163.065.013.02.026.025.047.017q-.105.09-.21.184c-.064.064-.128.129-.188.206l-.176.235q-.062.058-.137.013a.02.02 0 0 1-.013-.021q-.001-.039-.034-.039-.025 0-.03.026a.026.026 0 0 1-.03.017h-.03a.02.02 0 0 1-.013-.013l-.004-.008v-.009c.03-.064.077-.111.081-.18.004-.073-.026-.201.009-.261a.53.53 0 0 0 .083-.307l-.01-.01h-.013l-.018.004-.072.077a.03.03 0 0 1-.026.009c-.12-.026-.223-.043-.33.047-.137.115-.249.24-.326.373q-.013.063-.064 0c.047-.155.128-.198.227-.288.15-.132.266-.287.429-.415.115-.086.21-.185.321-.257.386-.258.643-.412.754-.472l.356-.171c.094-.052.214-.086.317-.137.017.02.043.03.09.017.013-.005.022 0 .03.004.009.013.022.017.039.021q.018.002.03-.008c.103-.103.27-.133.42-.142.115 0 .231-.03.342-.034.215-.008.468-.064.686-.026.335.06.737.065 1.046.198.72.32.368.145 1.264.274"/><path fill="#E30200" d="M15.163 5.884a7 7 0 0 1 2.314 1.95 6.7 6.7 0 0 1 1.372 4.033c-.099.034-.219.394-.39.189-.013-.073 0-.343 0-.399l-.01-.01a.03.03 0 0 1-.003-.016c0-.072-.013-.141-.026-.214h-.004c.008.06.017.116.012.172 0 .257.01.51.005.762 0 .099-.026.202-.03.3-.073 1.042.128.206-.39 1.629-.086.24-.189.514-.335.72-.085.129-.128.27-.222.394l-.472.643a.9.9 0 0 1-.158.172.03.03 0 0 1-.025.003l-.01-.006-.008-.01a.04.04 0 0 1-.009-.017q0-.15.077-.279c.043-.069.035-.124.043-.184.009-.047-.004-.056-.034-.017l-.553.617-.013.004h-.008q-.027-.005-.013-.043l.026-.073q.002-.021.017-.03a.09.09 0 0 0 .034-.064q-.002-.018.008-.03c.052-.069.12-.116.168-.184l.055-.09a.04.04 0 0 0-.021-.043.1.1 0 0 0-.086-.009 1 1 0 0 0-.141.103.1.1 0 0 1-.03.017.15.15 0 0 0-.077.056.1.1 0 0 1-.026.021l-.27.133-.013-.034a.4.4 0 0 0-.14.065l-.001.008v.008l.008.005h.03a.24.24 0 0 0-.15.055.04.04 0 0 1-.03.013q-.077 0-.064-.06c.017-.055.026-.15.026-.27 0-.085.021-.201.064-.334q.08-.02.137-.077a.1.1 0 0 1 .026-.017c.184-.043.514.098.814-.043a.5.5 0 0 0 .206-.129c.085-.111.193-.205.274-.317.081-.107-.026-.3.069-.394.3-.313.818-1.269.274-.78 0-.017-.013.013 0 0-.086.45.257-.514-.176.094-.445.622-.891.699-1.243 1.397-.012.03-.248.069-.295.052.265-.557.578-1.076.822-1.642.035-.081.13-.103.172-.175q.07-.117.111-.245v-.008a.02.02 0 0 0-.021-.005.3.3 0 0 1-.12.009.04.04 0 0 1-.025-.015.04.04 0 0 1-.01-.028c0-.008 0-.017.01-.021l.03-.043a.03.03 0 0 0 .008-.022l-.022-.205-.005-.015a.035.035 0 0 0-.046-.011.2.2 0 0 0-.056.043c-.051.056-.073.043-.06-.03-.051-.129-.073-.476-.098-.459-.193-.441-.125-.921.102-.638.086.025.065.128.103.197q.02.027.026-.004c0-.026.017-.035.039-.035a.02.02 0 0 1 .012.009.02.02 0 0 1 .01.013l-.01.06c0 .013 0 .021.013.03l.176.124.021.026q.044.115.15.18a.02.02 0 0 0 .022 0l.008-.009v-.021a.2.2 0 0 1 .086-.013q.016.002.026.013a.04.04 0 0 1 .013.03q0 .07.021.09c.103.047 0 .158.022.227a.32.32 0 0 1 0 .227.3.3 0 0 1-.09.086.27.27 0 0 0-.103.15c-.013.043.004.098 0 .15q-.001.01.002.02a.1.1 0 0 0 .01.018q.007.007.016.01a.04.04 0 0 0 .019.003l.12-.004q.024-.001.034-.022a.08.08 0 0 1 .065-.047l.015-.008.01-.013c.095-.159.155-.244.172-.424.012-.18.068-.386.197-.506a.05.05 0 0 0 .017-.03.4.4 0 0 1 .03-.129.3.3 0 0 0 .026-.124.4.4 0 0 0-.022-.12l-.001-.018q0-.008.006-.016a.2.2 0 0 0 .025-.12.1.1 0 0 0-.013-.03.22.22 0 0 1-.043-.185q.029-.166.095-.312a.16.16 0 0 0-.005-.133.03.03 0 0 0-.01-.015.03.03 0 0 0-.016-.006.03.03 0 0 0-.017.004.03.03 0 0 0-.012.012.07.07 0 0 1-.077.03.03.03 0 0 1-.017-.021v-.009c.012-.072.072-.141.03-.21l-.004-.015.003-.015c.005-.03.022-.064.043-.107.035-.085-.004-.184.103-.235.052-.022.056-.129.056-.18.017-.022.206-.168.223-.133l.06.295c.056.318-.33.21-.313.66 0 .09.038.172-.013.275-.03.064-.043.141.034.163l.043-.005a.06.06 0 0 0 .03-.03l.039-.068q-.002-.008.008-.009a.03.03 0 0 1 .022 0l.008.004a.32.32 0 0 1 .052.172v.008l.013.009c.012 0 .017 0 .017-.017 0-.034.017-.064.043-.086.012-.013-.043-.111-.043-.124 0-.124.098-.214.206-.3a.04.04 0 0 0 .012-.034 5 5 0 0 0-.218-1.016c-.022-.056-.03-.116-.052-.18a.1.1 0 0 1-.004-.043c0-.013 0-.021-.008-.03l-.129-.304a6.56 6.56 0 0 0-1.916-2.593 4 4 0 0 0-.587-.412c-.471-.265-.557-.257-.441-.707.008-.021.124-.008.141 0z"/><path fill="#082A33" d="M12.647 6.266a.1.1 0 0 0-.051-.009l-.022-.009-.021-.008q-.114-.078-.133-.142c.039-.08.069-.128.094-.132q.224-.044.45-.03c0 .004.009.012.017.012a.2.2 0 0 1 .112.052l.03.017q.049.013.086.051a.043.043 0 0 1-.026.065c-.129.034-.24.034-.352.145-.068.065-.128.052-.184-.012"/><path fill="#110202" d="M9.587 6.424a.2.2 0 0 1-.128.035L9.45 6.45l-.009-.009c-.081-.004-.137 0-.171.026q-.155.091-.317.15a.8.8 0 0 0-.232.137q-.063 0-.128.005a.24.24 0 0 0-.116.042l-.188.112a.1.1 0 0 1-.043.008h-.043c-.022 0-.022-.004 0-.021.146-.124.257-.197.317-.227q.23-.108.441-.249a.3.3 0 0 1 .065-.025c.021-.009.043-.018.055-.035a.03.03 0 0 1 .03-.008h.018c.098-.03.21-.035.3-.056l.154-.043c.064-.017.18-.034.266-.077a.2.2 0 0 1 .098-.026h.086q.011 0 .017.013c.021.086-.004.137-.077.163z"/><path fill="#EC8941" d="M11.019 6.291a.3.3 0 0 0 .128.043.5.5 0 0 1 .12.026c.043.013.09.026.142.03l.012.004.009.013q.013.047.013.094-.002.007.008.013l.009.005c.077 0 .146.017.206.042l-.502.052c-.051 0-.098.021-.154.03-.086.013-.163.043-.249.06v-.005l.005-.008.141-.064c.026-.013.03-.03.022-.052a.16.16 0 0 0-.086-.085.03.03 0 0 1-.017-.022V6.43a.26.26 0 0 0-.206.02l-.163.164-.003.005v.007q0 .003.002.006l.005.003a.8.8 0 0 1 .24.082q.014.007 0 .008c-.972.313-1.341.189-1.774.57q-.02.063-.15.146-.03.01-.043-.017c-.043-.073-.094-.056-.167-.064l-.03.004q-.04.018-.034.055a.02.02 0 0 1-.013.022l-.077.03c-.009.009-.017.004-.026-.004l-.008-.018c0-.012 0-.025.012-.03a.14.14 0 0 1 .052-.017h.004l.004-.008a.01.01 0 0 0 0-.013l-.008-.009q-.001-.027-.022-.008a.04.04 0 0 1-.034.013q-.018-.002-.03.008a.25.25 0 0 1-.214.069q-.026-.008-.013-.035l.009-.017a.03.03 0 0 1 .025-.017c.009 0 .013-.008.013-.013l.009-.013.137-.15a.04.04 0 0 0 .013-.03.14.14 0 0 1 .047-.107.04.04 0 0 0 .017-.034q.001-.039.034-.051c.06-.026.069-.022.095-.073a.1.1 0 0 1 .017-.022l.175-.133a.8.8 0 0 1 .232-.137c.107-.043.214-.09.313-.15a.3.3 0 0 1 .171-.025q.013-.002.013.008l.013.009a.2.2 0 0 0 .124-.035.2.2 0 0 1 .112-.012l.012.008a.026.026 0 0 1-.004.039L9.6 6.54c-.009.004-.009.013 0 .013.051.013.086 0 .116-.039l.013-.013.175-.085.017-.005c.112.013.258.035.343-.038a.1.1 0 0 1 .026-.013l.12-.03c.214-.051.369-.112.609-.034zm3.981.03.463.27q.012-.001.064.043a.9.9 0 0 1-.343-.115A.4.4 0 0 1 15 6.32"/><path fill="#110202" d="m10.822 6.429.004.043q.002.014.017.021a.14.14 0 0 1 .086.081c.008.022 0 .043-.022.052l-.141.064-.009.009h.005c.085-.013.158-.043.248-.056.056-.009.103-.026.154-.03l.502-.051a1 1 0 0 0 .27 0c.425-.071.862 0 1.243.201.12.056.248.094.373.146.08.038.162.047.248.077.03.034.064.06.111.073l.15.154a.4.4 0 0 1 .108.146q.006.015.017.025l.085.078a.65.65 0 0 0 .172.201l.223.171.197.129c.159.116.334.206.463.386l.163.287c.017.017.025.03.03.047l.227.643a.4.4 0 0 1 .068.158c.013.095.043.129.129.163-.017.026-.039.035-.056.035h-.013l-.008.008v.022a.5.5 0 0 1 .051.128c.03.094.009.214.039.3.043.154.171.257.24.399l.077.163.021.102c.022.125.043.245.078.365a.5.5 0 0 1-.01.193v.008l.052.193a.03.03 0 0 0 .012.014.03.03 0 0 0 .018.003h.009a.2.2 0 0 0 .03-.026c.017.018.026.043.026.086l-.039.004q-.014.013-.008.03.007.029.034.03a.4.4 0 0 1 .038.112l-.102.12-.043-.15c0-.013-.009-.017-.013 0a.44.44 0 0 0-.043.244c.013.103 0 .214.056.3l.043.086c.05.068.077.128.068.167-.017.009-.026.03-.013.069-.013.094.052.184.043.257-.013.081.009.085.06.03a.2.2 0 0 1 .056-.043.04.04 0 0 1 .024-.002.04.04 0 0 1 .019.015l.008.017.022.206c0 .008 0 .017-.009.021l-.03.043a.043.043 0 0 0 .009.056.04.04 0 0 0 .021.008q.058.005.116-.008h.009q.005 0 .008.004a.02.02 0 0 1 .004.017 1 1 0 0 1-.107.236c-.047.073-.141.094-.171.171l-.258.574-.158.275c-.073.12-.124.257-.189.373q-.117.211-.223.424l-.085.214a1.1 1.1 0 0 0-.065.334c0 .12-.008.215-.025.27a1.3 1.3 0 0 1-.275.279.65.65 0 0 0-.205.261c-.137.309-.369.446-.66.605-.167.094-.313.064-.493.055-.159-.008-.334-.042-.506-.051a3.4 3.4 0 0 1-.857-.124.15.15 0 0 0-.116.025.47.47 0 0 1-.283.108q-.127-.002-.428.008c-.266.013-.544 0-.849-.043-.051-.008-.137-.008-.21-.03l-.107-.013a1.9 1.9 0 0 1-.673-.235c-.021 0-.043 0-.051-.009q-.526-.31-.712-.471c-.197-.163-.385-.3-.552-.515a.4.4 0 0 1-.065-.214l-.004-.176q.02-.173-.103-.257a.04.04 0 0 1-.021-.025.13.13 0 0 0-.065-.09 6 6 0 0 0-.197-.33c-.03-.052-.03-.112-.098-.146a.04.04 0 0 1-.022-.022.33.33 0 0 1-.004-.231l.034-.107a.15.15 0 0 1 .073-.073.3.3 0 0 1 .197-.051.2.2 0 0 0 .099-.005q.02-.006.013-.025c-.022-.073-.056-.142-.005-.215a.04.04 0 0 0 .009-.03.15.15 0 0 0-.064-.09c-.099-.077-.137-.193-.189-.3a.36.36 0 0 0-.184-.193.42.42 0 0 0-.043-.325 1.4 1.4 0 0 1-.077-.185c-.052-.154-.129-.295-.163-.441a4 4 0 0 1-.103-.45 1 1 0 0 0-.056-.193l-.034-.141a.4.4 0 0 0-.03-.296c.039-.206 0-.493-.021-.681l-.013-.369c.008-.171.021-.296.043-.36.103-.326.18-.664.274-.994l.236-.54.197-.377.176-.236c.06-.077.124-.142.188-.206l.214-.184c.086-.056.129-.103.146-.146a.57.57 0 0 1 .394-.377.2.2 0 0 1 .069-.004.04.04 0 0 0 .03-.009c.056-.043.129 0 .189.004.102.009.188.026.282-.017.065-.017.125-.043.193-.047a1 1 0 0 0 .27-.077l.343-.043c.013 0 .013 0 0-.008a.8.8 0 0 0-.24-.086l-.004-.004a.01.01 0 0 1 0-.013l.167-.163z"/><path fill="#EF7475" d="M16.016 14.563a4 4 0 0 1-.022-.292c-.012-.214-.107-.377-.188-.565-.043-.103-.06-.214-.099-.326-.026-.081-.021-.15-.026-.236-.004-.094-.038-.188-.047-.287l.258.137.005.001a.01.01 0 0 0 .01-.004l.002-.005.004-.013a.03.03 0 0 0-.013-.038l-.283-.15-.021-.335c.081.047.141.03.171-.056.026-.051.013-.064-.034-.03a.16.16 0 0 1-.086.026l-.017-.005-.013-.012a.043.043 0 0 1 0-.038c.136-.315.158-.667.06-.995l.005-.004.005-.004h.007c.167.05.283.18.382.342h.021q.01-.006.005-.012c-.099-.24-.24-.403-.506-.425-.356-.03-.63.172-.87.42-.077.077-.45.429-.575.249-.02-.03-.034-.026-.034.013q.001.045.047.09a.04.04 0 0 0 .026.012.46.46 0 0 0 .3-.072q.018-.013.017.008c0 .06-.025.12-.025.176q0 .15.038.279l.056.278q.05.285.043.574.001.078.034.142a.04.04 0 0 0 .034.021q.01 0 .019-.002a.04.04 0 0 0 .016-.01c.115-.12.017-.583-.03-.73l.06.005q.017.001.017.021c-.009.035 0 .052.03.06l.017.043a.03.03 0 0 0 .03.021.03.03 0 0 0 .018-.005.03.03 0 0 0 .012-.016l.021-.06q.05-.012.12.022-.002.233-.017.471c-.004.069.034.137.039.21q.021.234.038.467l.007.002q.003 0 .006-.002l.009-.004a.04.04 0 0 0 .021-.043c-.004-.146-.021-.283-.021-.433.004-.197-.06-.433.021-.617l.137.069c0 .098 0 .193.022.287a.15.15 0 0 0 .051.086.04.04 0 0 0 .052-.009l.004-.017.043-.249.021.009c.039 0 .043-.017.017-.043l-.051-.043.008-.154.086.034q.046.116.009.283c-.005.034.012.077 0 .124-.03.15.017.27.017.407 0 .215.026.43.008.635l-.034.325c-.013.116.017.215 0 .33a1.5 1.5 0 0 0 .052.61 1.9 1.9 0 0 0-.06.492.34.34 0 0 1-.06.184.5.5 0 0 1-.138.116.7.7 0 0 0-.235.244 1.6 1.6 0 0 1-.249.356 1 1 0 0 1-.163.12c-.128.081-.257.18-.394.214-.201.052-.403.009-.652-.025l-.235-.018c-.112-.008-.214-.03-.322-.03a1.2 1.2 0 0 1-.488-.111 7 7 0 0 1-.9-.523.5.5 0 0 1-.103-.09 5 5 0 0 0-.489-.501c-.214-.189-.36-.33-.54-.502a2.4 2.4 0 0 1-.514-.655c-.043-.09-.086-.185-.141-.275a1.98 1.98 0 0 1-.257-1.35.2.2 0 0 0-.018-.128l-.007-.007-.01-.002q-.004 0-.01.002l-.007.007c-.214.445-.013 1.114.214 1.512.099.18.193.416.309.558.236.278.493.531.75.784l-.111.248a.05.05 0 0 0 0 .035c.034.133.021.265.025.398a.6.6 0 0 1-.137.399.24.24 0 0 0-.043.167 3 3 0 0 1-.617-.223q-.037-.14.06-.214c.056-.043.112-.009.172-.077a.8.8 0 0 1 .184-.146v-.008l-.005-.01-.004-.008-.008-.005h-.01l-.008.005-.128.086a.03.03 0 0 1-.014.008.03.03 0 0 1-.03-.01.03.03 0 0 1-.008-.015.6.6 0 0 1 .01-.223l.03-.176h-.018a.02.02 0 0 0-.021.017 1.04 1.04 0 0 0-.039.446l-.009.013c-.051.034-.115.043-.154.082a.3.3 0 0 0-.068.205c-.189-.103-.433-.227-.583-.377a.57.57 0 0 0 .008-.36c-.03-.094-.013-.15.017-.24a.4.4 0 0 1 .095-.146c.055-.06.103-.128.171-.171l.094-.047a.03.03 0 0 0 .018-.026c.008-.086 0-.163.038-.244.056-.116.094-.189.082-.326 0-.013-.013-.017-.026-.008a.03.03 0 0 0-.022.025l-.017.163-.013.026a.45.45 0 0 0-.081.287.09.09 0 0 1-.056.086.32.32 0 0 0-.163.128c-.03.052-.042.043-.042-.013l.025-.33v-.034l-.025-.077a.04.04 0 0 0-.022-.03h-.013c-.013-.009-.021 0-.021.013.004.043.026.077.026.12.008.266-.03.42-.12.694-.026.064.021.206.021.283 0 .056.017.15-.03.189-.197-.146-.69-.48-.609-.772q.083-.16.185-.3a.3.3 0 0 0 .038-.171c-.021-.27.146-.476.352-.626a.02.02 0 0 0 0-.021l-.009-.01h-.008a.65.65 0 0 0-.232.202c-.03.043-.043.035-.043-.012 0-.095-.025-.202.043-.288.052-.072.103-.171.184-.197l.078-.03q.063-.02.068-.038.034-.097-.043-.026c-.064.064-.171.03-.231.12-.043.069-.099.129-.129.189a.2.2 0 0 0-.021.08v.314c0 .073-.056.12-.06.201-.009.12 0 .249-.069.356a1 1 0 0 1-.115.133c-.035-.197.021-.42.008-.592a1.4 1.4 0 0 1-.008-.227c0-.223-.035-.437-.043-.664a.2.2 0 0 0-.052-.111.8.8 0 0 1-.214-.292c.111 0 .146.129.214.133.017 0 .022-.004.022-.022 0-.004 0-.012-.009-.017a.43.43 0 0 0-.253-.154c-.163-.283-.274-.6-.403-.904q-.1-.224-.188-.737l.274.321.013.026a.6.6 0 0 0 .133.283c.051.047.064.043.051-.026 0-.009-.017-.026-.043-.043a.05.05 0 0 1-.021-.021l-.047-.116q-.032-.077.034-.03c.052.03.094.064.15.086.184.072.3.158.407.325.082.125.197.176.245.326q.058.177.107.356c.047.133.12.27.18.407l.007.008.01.005a.02.02 0 0 0 .017 0l.009-.009.008-.008v-.009a5 5 0 0 1-.287-.754c-.026-.12-.099-.18-.171-.257-.129-.125-.18-.275-.343-.356-.227-.111-.425-.189-.587-.39l-.086-.154a.5.5 0 0 0-.099-.15 1.5 1.5 0 0 1-.06-.39c-.008-.228-.008-.459-.034-.686a2 2 0 0 1-.013-.154q.123.096.27.167a.4.4 0 0 0 .124.043l.57.081q.029.001.043.022a.07.07 0 0 1 .022.05c.004.087-.017.155.064.215q.19.121.399.21a.03.03 0 0 0 .021-.017v-.034l-.343-.193c-.141-.073-.008-.223-.15-.3l-.006-.005-.002-.008.004-.004h.004c.03-.009.069 0 .094-.009.172-.043.403-.094.528.034a.74.74 0 0 0 .372.232c.142.043.258.073.416.03.009 0 .009-.004.009-.013v-.013c0-.021-.013-.026-.03-.026a.97.97 0 0 1-.515-.09c-.124-.06-.205-.192-.325-.244-.137-.055-.245-.004-.365.009-.115.008-.214.026-.338.026-.159 0-.3.02-.459-.013a.6.6 0 0 1-.184-.086 3 3 0 0 0-.214-.137 1.5 1.5 0 0 1 .03-.532c.107-.364.184-.754.334-1.101.103-.24.201-.493.343-.711a.17.17 0 0 0 .107-.022c.3-.206.626-.3.99-.283a.35.35 0 0 1 .154.043c.073.043.197.124.275.116.128-.009.257-.017.385-.047.142-.035.27-.073.416-.082q.026 0 .026-.025v-.013q.006-.018-.013-.017a.5.5 0 0 0-.232.025q-.256.091-.531.099a.4.4 0 0 1-.18-.034 3 3 0 0 1-.214-.112c-.009-.004-.009-.013 0-.017.141-.107.3-.12.467-.129a.034.034 0 0 0 .03-.03v-.017L9.952 7.6h-.009l-.189.017a.64.64 0 0 0-.368.158.06.06 0 0 1-.03.013c-.129.013-.257 0-.373.026a1.8 1.8 0 0 0-.609.249q-.039.027-.034-.005c.12-.184.266-.343.429-.484q.089-.071.287-.189c.278-.162.51-.304.857-.394l.03.004a.04.04 0 0 0 .017.035.04.04 0 0 0 .043 0 .3.3 0 0 1 .206-.052c.115.013.223.009.33.039l.492.128a.6.6 0 0 1 .172.086l.017.03c.09.322.279.544.54.746a.04.04 0 0 0 .043.008h.008l.01-.008a.01.01 0 0 0 0-.013v-.004a1.5 1.5 0 0 1-.54-.729l.005-.013.011-.008h.013c.244 0 .493-.009.737.008l.214.009c.193 0 .37.051.532.163q.142.095.471.403c.039.034.073.11.103.132.056.043.06.108.086.155a.75.75 0 0 1 .064.445.43.43 0 0 0 .107.365c.086.107.163.218.227.343q.007.01.018.008l.008-.008a.02.02 0 0 0 .01-.012.02.02 0 0 0-.001-.014 2 2 0 0 0-.262-.407.27.27 0 0 1-.06-.185 1.3 1.3 0 0 0 0-.398.4.4 0 0 0-.034-.107c-.047-.107-.086-.197-.18-.309-.103-.111-.244-.218-.368-.33a1.1 1.1 0 0 0-.283-.188c-.279-.13-.557-.1-.853-.116a5 5 0 0 0-.527-.009.3.3 0 0 1-.133-.03 1.8 1.8 0 0 0-.45-.137c-.026 0-.043-.026-.073-.03a1 1 0 0 1-.197-.043.4.4 0 0 0-.116-.013.3.3 0 0 1-.111-.017q.424-.1.844-.188c.141-.026.291-.03.437-.043.112-.009.236.017.347 0 .21-.034.377-.064.583-.043.21.026.39.073.549.146.24.111.428.184.578.223.279.072.463.33.634.548.13.159.296.287.46.394q.237.153.462.326a.3.3 0 0 1 .06.056c.244.334.351.677.484 1.046.039.11.047.222.086.33.069.17.043.36.129.54.085.17.252.287.274.497.017.18.064.252.111.385.043.12.026.283.026.407 0 .138-.043.275-.06.386a.7.7 0 0 0 .069.459.64.64 0 0 1 .09.283q.008.14.017.175.066.328.047.695c0 .094-.022.18-.056.252l-.21.45c-.051.112-.12.215-.184.322"/><path fill="#E30200" d="M10.239 6.917a.3.3 0 0 0 .115.017c.043 0 .077.004.112.017q.095.026.197.039c.03 0 .047.026.073.03.158.026.304.073.45.137q.063.03.133.03.263-.005.527.009c.3.017.574-.018.857.115.107.056.201.116.278.189.125.111.266.214.369.33.099.111.133.201.18.308.017.043.03.073.034.108.022.128.022.265 0 .398a.28.28 0 0 0 .06.184q.158.196.262.425l-.009.008-.008.009-.018-.004a1.8 1.8 0 0 0-.227-.343.43.43 0 0 1-.107-.369c.022-.171 0-.3-.068-.446-.022-.042-.026-.111-.086-.154-.026-.021-.06-.098-.099-.133a5 5 0 0 0-.471-.403.9.9 0 0 0-.532-.162c-.077 0-.15 0-.214-.009a9 9 0 0 0-.75-.007l-.013.007a.03.03 0 0 0-.004.015q0 .007.004.015a1.5 1.5 0 0 0 .536.716v.013l-.009.004-.008.004a.04.04 0 0 1-.043-.008c-.26-.18-.45-.443-.54-.746a.06.06 0 0 0-.017-.026.4.4 0 0 0-.172-.086q-.307-.088-.492-.132c-.108-.03-.215-.026-.33-.043a.32.32 0 0 0-.21.055.04.04 0 0 1-.043 0 .04.04 0 0 1-.017-.034h-.026z"/><path fill="#EFD983" d="M15.746 8.117a.1.1 0 0 0-.052-.021.06.06 0 0 1-.034-.064l-.013-.026a.18.18 0 0 0-.154-.06.04.04 0 0 1-.034-.017l-.039-.035a.056.056 0 0 0-.073 0l-.069.056a.03.03 0 0 0-.008.03.6.6 0 0 1-.017.206l-.009.008a.02.02 0 0 1-.013 0c-.09-.042-.205-.188-.158-.282a.06.06 0 0 0 0-.035c0-.017.004-.038.013-.055a.04.04 0 0 0 .008-.03c-.013-.095.009-.202-.111-.236-.09-.056-.129-.142-.21-.197l-.129-.095v-.017q-.011-.075.086-.017c.056.039.12.069.188.06l.095-.004c.008 0 .017-.009.013-.017 0-.03.013-.056.034-.069l.064-.013c.073-.013.086-.085.052-.141a.03.03 0 0 1 0-.022c0-.068.025-.077.064-.03.06.073.171.168.27.133.013 0 .021 0 .026.009a.05.05 0 0 1 0 .047.04.04 0 0 0 .004.034l.039.073q.011.019-.009.043l-.009.009h-.017a.16.16 0 0 0-.047-.056.013.013 0 0 0-.017 0l-.004.008V7.3c0 .025 0 .043-.009.064a.1.1 0 0 0-.008.034q.008.077-.018.15a.064.064 0 0 0 .052.086c.077.009.214.043.214.146l.013.025.154.155c.009.008.009.017.009.03l-.013.064a.06.06 0 0 1-.026.043.2.2 0 0 1-.098.021"/><path fill="#EF7475" d="M13.929 7.054h-.018a.2.2 0 0 1-.111-.068l.124.021c.013 0 .018.013.013.026l-.013.021z"/><path fill="#082A33" d="m14.271 7.461-.085-.077a.1.1 0 0 1-.018-.025.4.4 0 0 0-.107-.146l-.15-.154.013-.005A.1.1 0 0 0 13.96 7q.002-.019.017-.018h.248a.05.05 0 0 1 .039.018l.116.15c.008.008.017.017.03.017l.085.025a.04.04 0 0 1 .03.026c.005.017.017.022.03.026h.017a.03.03 0 0 1 .009.021v.009a.2.2 0 0 1-.039.081.1.1 0 0 0-.017.03l-.025.086a.05.05 0 0 1-.03.034.04.04 0 0 1-.043-.004.2.2 0 0 0-.15-.039z"/><path fill="#860101" d="m8.203 8.057-.197.381H7.94a.2.2 0 0 0-.184.078c-.043.064-.06.055-.06-.022 0-.098 0-.171.043-.27.03-.073.073-.227-.013-.283a.1.1 0 0 1-.034-.051.1.1 0 0 1 .008-.064q.038-.058.005-.09c-.052-.06-.232-.043-.3-.026a.06.06 0 0 0-.043.043c0 .034-.03.043-.073.026.077-.133.189-.258.326-.373.107-.086.21-.073.33-.047.008 0 .017 0 .025-.01l.073-.076a.026.026 0 0 1 .043.008v.013q-.001.159-.086.292c-.034.06 0 .188-.008.261-.004.069-.052.116-.082.18v.017l.009.009h.009l.03.004h.017l.013-.017q.001-.026.03-.026.033 0 .034.039 0 .013.013.021.078.045.137-.013z"/><path fill="#E30200" d="m8.271 8.151.07-.098c0 .025.008.025.033.008.189-.124.39-.205.609-.253.111-.021.244-.008.373-.021l.03-.013a.6.6 0 0 1 .368-.158l.202-.01v.018a.034.034 0 0 1-.03.03c-.167.009-.326.022-.463.129-.013.004-.013.013 0 .017.068.043.141.077.214.111a.36.36 0 0 0 .176.035c.184 0 .36-.04.531-.1a.6.6 0 0 1 .232-.025q.018 0 .017.017v.013q-.005.026-.03.026a2 2 0 0 0-.416.081c-.128.03-.257.039-.386.048-.077.008-.2-.078-.274-.116a.4.4 0 0 0-.154-.043c-.353-.02-.701.08-.99.283a.17.17 0 0 1-.107.021z"/><path fill="#082A33" d="m8.006 8.439-.236.54c-.086-.086-.051-.129-.086-.228a.06.06 0 0 0-.034-.038.06.06 0 0 0-.051.008c-.103.069-.185-.042-.223-.128a.06.06 0 0 0-.056-.034c-.008 0-.021 0-.03.008a.1.1 0 0 0-.026.026c-.141.278-.342.471-.501.737q-.023.216-.013.433c.004.086.163.146.214.158.099.026.202.043.309.06.021 0 .043.013.051.026.013.017.168.112.163.133-.034.441.065 1.011.065 1.543v.137l-.266-.026a.02.02 0 0 0-.022.009q-.011.02-.03.013l-.009-.007-.003-.01c0-.009 0-.013-.009-.018l-.026-.004q-.05-.002-.064-.043a.03.03 0 0 0-.017-.025.6.6 0 0 1-.236-.155c-.034-.034-.077-.06-.116-.094a.1.1 0 0 0-.025-.017c-.039-.009-.06-.043-.086-.06-.103-.069-.201-.116-.27-.244a.03.03 0 0 0-.026-.013c-.004 0-.013-.005-.013-.013-.042-.086-.098-.159-.132-.236-.065-.146-.129-.356-.078-.514l-.004-.017c-.008 0-.008-.009-.008-.017.038-.146.055-.249.055-.3a.8.8 0 0 1 .009-.18c.013-.086.026-.172.081-.24a.05.05 0 0 0 .009-.03c0-.018.013-.043.03-.082l.116-.24c0-.008-.056-.043-.06-.051-.043-.287.18-.579.342-.819.159-.253.322-.454.48-.617.018-.013.03-.013.052.004.034.047.056.052.064.005.043.017.073.008.077-.026a.06.06 0 0 1 .043-.043c.064-.017.244-.034.3.021.099.116.172.142.034.493-.042.103-.042.172-.042.27q-.001.117.055.022a.2.2 0 0 1 .185-.082h.064z"/><path fill="#EFD983" d="m16.603 8.087.004.039c.004.008.013.017.021.017q.032-.002.043.008.098.044 0 .082c-.017 0-.034-.009-.051-.039-.004-.004-.013-.009-.017 0l-.009.013h-.017q-.02.001-.021-.017v-.013c0-.009 0-.013-.009-.021-.069-.073-.051-.125-.043-.215 0-.03.009-.043.039-.03h.008q.016.007.022.022a.04.04 0 0 1 .008.025.23.23 0 0 0 .022.129"/><path fill="#C10202" d="m16.787 8.216.013.013c-.086-.017-.163.055-.206.128-.043.077-.017.172.017.257l-.004.026q-.011.018-.043.017a.04.04 0 0 0-.043.026c-.012.043-.008.069.022.09q.015.007.021.021c.043.082.086.155.086.258 0 .128.129.377.219.471l.12.129-.142-.026a.1.1 0 0 1-.026-.013l-.064-.051a.03.03 0 0 1-.009-.013.3.3 0 0 0-.098-.129l-.064-.158-.013-.108a.1.1 0 0 0-.013-.034.12.12 0 0 1-.013-.107.05.05 0 0 0 0-.039c-.056-.137-.099-.197-.064-.355 0-.009 0-.013-.013-.013q-.052.002-.047.056a.02.02 0 0 1-.013.021h-.021c-.009 0-.009 0-.013-.009l-.022-.132v-.018l.013-.012q.063-.038.043-.12v-.014l.004-.012q.051-.05.013-.112-.005-.018.009-.025.045-.02.064.025.006.014.026.013h.06c.008 0 .017 0 .017-.017a.05.05 0 0 0-.009-.043c0-.008.005-.008.009-.013.004-.008.013-.004.017 0q.026.045.047.04c.069-.027.069-.052.004-.087a.2.2 0 0 0-.043-.004.03.03 0 0 1-.02-.017.1.1 0 0 1 0-.039c.085-.013.145.026.18.129"/><path fill="#EC8941" d="M17.16 8.494c-.086-.042-.111-.12-.159-.188q-.035-.052-.098-.022c.021-.025.03-.042.026-.06v-.021c-.005-.034.012-.043.055-.017q.06.074.094.163c0 .008.01.017.018.025a.17.17 0 0 1 .064.12"/><path fill="#082A33" d="M16.8 8.229a.18.18 0 0 0 .103.055c.043-.017.073-.013.098.022.048.073.073.15.159.188l.137.142.077.077q.09.094.129.214-.013.082.051.12a.01.01 0 0 0 .013 0l.004-.008V9.03a.2.2 0 0 0-.042-.086v-.047q.012-.02.025-.008a.26.26 0 0 1 .086.12.3.3 0 0 1-.026.197l-.021.055c0 .013-.009.013-.017 0a.1.1 0 0 0-.035-.025.03.03 0 0 0-.03.004.03.03 0 0 0-.008.03l.077.33c0 .009 0 .013-.009.013l-.025-.004a.1.1 0 0 1-.017-.026.02.02 0 0 0-.022-.013l-.008.009c-.013.017-.018.077-.035.107a.03.03 0 0 0 0 .025.04.04 0 0 1 0 .043h-.013q-.017-.025-.042-.013l-.011.01-.007.012a.04.04 0 0 1-.012.026.1.1 0 0 0-.043.064q-.001.027-.022.008-.026-.02-.021-.047a.4.4 0 0 0 .021-.098q.001-.035-.017-.005l-.043.069a.04.04 0 0 1-.043.017.4.4 0 0 1-.222-.141l-.12-.129c-.086-.098-.219-.343-.219-.476 0-.102-.043-.175-.086-.257a.04.04 0 0 0-.021-.021q-.046-.034-.022-.086a.04.04 0 0 1 .043-.03q.032.001.043-.017l.003-.013q0-.006-.003-.013c-.03-.085-.06-.18-.013-.257.043-.073.116-.146.206-.128"/><path fill="#E30200" d="M8.949 8.756c.085-.107.158-.159.308-.167a1 1 0 0 1 .365.034c.18.068.274-.004.42-.073a.3.3 0 0 1 .145-.026q.291.02.583.035c.043.038.043.051-.017.042a2 2 0 0 0-.313-.012l-.257-.013c-.159-.009-.266.128-.437.128-.026 0-.077-.013-.15-.03-.206-.051-.454-.098-.613.112-.026.03-.034.055-.03.085a.04.04 0 0 1-.021.035.034.034 0 0 1-.043-.009c-.056-.056-.12-.077-.202-.043l-.334.129c-.257.094-.309.163-.441.377q-.034.06-.112.06-.02.001-.013-.017c.009-.06.06-.069.086-.107.03-.047.047-.107.081-.146a.5.5 0 0 1 .236-.171l.442-.172a.4.4 0 0 1 .162-.043q.015 0 .026.009c.052.03.09.026.129-.017"/><path fill="#860101" d="M7.77 8.979c-.094.33-.171.668-.274.994a1.6 1.6 0 0 0-.043.36.03.03 0 0 1-.03-.03.02.02 0 0 0-.013-.022.04.04 0 0 1-.017-.017q.027-.012.021-.038-.006-.018-.025-.017h-.056l.008-.142c0-.021 0-.043-.017-.06a.08.08 0 0 0-.051-.026 2 2 0 0 1-.313-.06c-.043-.012-.206-.072-.21-.158a3 3 0 0 1 .013-.433.9.9 0 0 0 .086-.206q.005-.02.017-.025a.3.3 0 0 0 .047-.06q.011-.019.043-.018a.548.548 0 0 0 .193-.236.1.1 0 0 1 .03-.034l.012-.012.073-.146a.06.06 0 0 1 .112 0c.038.086.12.197.223.128a.056.056 0 0 1 .072.01.02.02 0 0 1 .013.02c.035.095 0 .146.086.228"/><path fill="#EFD983" d="m16.586 9.261.064.163.017.112q0 .018.013.025a.11.11 0 0 1 .034.137l-.005.008-.008.005a.02.02 0 0 1-.017 0 .3.3 0 0 0-.094-.055.04.04 0 0 1-.021-.035.1.1 0 0 0 .017-.017q.005-.019-.009-.026c-.09-.034-.128-.11-.197-.162a1 1 0 0 1-.094-.073c-.069-.06-.146-.077-.215-.146a.05.05 0 0 0-.03-.013c-.132-.026-.162-.111-.257-.184-.043-.034-.055-.082-.085-.129a.03.03 0 0 0-.026-.008c-.013 0-.026 0-.034-.009a.021.021 0 0 1-.013-.021.3.3 0 0 0-.03-.137v-.009a.034.034 0 0 1 .026-.026.03.03 0 0 1 .034 0c.043.043.064.099.094.137.043.052.086.116.137.155q.014.01.03.008c.086-.008.176.03.15.137a.02.02 0 0 0 0 .013l.006.006.007.003c.064.017.086-.043.116-.047a.09.09 0 0 1 .077.017.09.09 0 0 1 .03.077c0 .017.008.034.021.06q.007.018.026.017.015-.002.017-.017v-.043l.004-.021a.13.13 0 0 0 .022-.065q.011-.095.068-.017l.129.18z"/><path fill="#C10202" d="m15.514 8.683.086.012a.3.3 0 0 1 .026.142c0 .008 0 .013.013.017.008.009.021.009.034.009a.03.03 0 0 1 .021.008c.035.047.047.094.095.129.09.073.12.158.257.184l.026.013c.068.068.145.086.214.146q.046.038.094.072c.073.052.107.13.197.163.034.017.172.073.159.412-.082 0-.48-.219-.544-.236-.086-.026-.228-.013-.309-.06-.103-.043-.24-.66-.364-1.011z"/><path fill="#03171D" d="M6.523 8.7a.1.1 0 0 1-.022.052.04.04 0 0 0-.017.025c0 .052-.034.056-.051.09-.052.095-.034.257-.017.36l-.005.03c-.18.369-.201.682-.3 1.072 0 .008 0 .012.009.017.004.004.009.008.004.017-.055.159.223.266.287.411.228.536.63.995 1.14 1.046a1 1 0 0 1 .056.193c.03.171.064.3.103.45.034.146.111.287.163.441l.081.185c.06.115.073.227.043.325h-.103q-.007 0-.015.003l-.01.01c-.056.12-.142.215-.099.352 0 .012 0 .021-.013.025-1.598.609-1.556-1.157-2.143-1.791l.159-.969c-.022-.728.33-1.782.75-2.348z"/><path fill="#E30200" d="M10.363 9.574a.056.056 0 0 0-.069.03c-.103.197-.3.129-.432.266a.26.26 0 0 1-.283.068c-.069-.021-.082-.094-.112-.15a.3.3 0 0 0-.073-.085 1 1 0 0 1-.274-.515c-.026-.085-.068-.141-.116-.214v-.017l.018-.013a.03.03 0 0 1 .042 0 1 1 0 0 1 .146.291.8.8 0 0 0 .073.198c.094.162.236.235.287.42a.03.03 0 0 0 .026.021c.214.06.223-.129.36-.15.128-.021.218-.043.287-.15.086-.133.236-.021.351.043.129.068.24.163.356.257.009.004.013.017.004.03v.013a.02.02 0 0 1-.013.004h-.012c-.099-.051-.18-.137-.253-.184a1.6 1.6 0 0 0-.313-.163"/><path fill="#C10202" d="m17.64 9.009.064.064c.013.004.017.017.013.026v.021q-.012.052 0 .077.079.148.137.309a.1.1 0 0 1-.064 0c.004-.026 0-.043-.021-.056a.03.03 0 0 1-.018-.013.07.07 0 0 0-.043-.042.02.02 0 0 1-.012-.01V9.37c.021-.06 0-.163-.082-.163a.3.3 0 0 0 .026-.197"/><path fill="#EC8941" d="M17.752 9.107q.129.231.214.489l-.112-.086a2 2 0 0 0-.137-.313q-.012-.026 0-.077c.009-.013.017-.017.035-.013m-.138.099c.078 0 .103.103.086.162v.018s0 .008.009.008a.07.07 0 0 1 .043.043l.017.017q.026.013.021.052l-.051.043-.007.007-.002.01c.086.557-.009.317.099.788q.006.024-.013.043a.04.04 0 0 0-.013.026.8.8 0 0 1-.043.171.05.05 0 0 1-.026.022c-.038.021-.077.017-.107.034q-.03.018-.03.043c-.197.06-.39-.086-.514-.236-.051-.06-.18-.129-.193-.197a.04.04 0 0 0-.017-.026.45.45 0 0 1-.172-.317q.002-.03-.008-.056a.03.03 0 0 0-.026-.017c-.034-.008-.051-.034-.043-.073q.002-.019-.008-.038a.2.2 0 0 1-.026-.077q.058.019.094.051a.02.02 0 0 0 .017.004h.01v-.013q.038-.084-.03-.137a.04.04 0 0 1-.014-.025l-.017-.112a.3.3 0 0 1 .099.129l.008.008.064.052.026.013.142.03a.355.355 0 0 0 .514-.386.03.03 0 0 1 .009-.03.03.03 0 0 1 .03-.004.1.1 0 0 1 .034.03q.012.012.017 0z"/><path fill="#110202" d="M15.317 9.549c-.163-.086-.291-.112-.394-.086-.129.043-.24.06-.36.12-.527.283-.986.441-1.586.24a14 14 0 0 0-.857-.257 2.4 2.4 0 0 0-.729-.065 4.5 4.5 0 0 1-.788-.055v-.009c0-.013.004-.021.021-.021.232-.017.454.03.686.021l.407.004c.416.043.844.193 1.2.309.142.043.253.077.326.086.514.085.908-.09 1.35-.335a.73.73 0 0 1 .78.022v.007l-.005.006-.008.008a.04.04 0 0 1-.043 0z"/><path fill="#03171D" d="M17.79 9.506a.08.08 0 0 0 .064 0l.112.09.128.304.009.03.004.043-.021.103c-.009.068.043.146.068.214v.052q0 .04-.026.008l-.038-.051-.005-.007-.008-.002-.009.004-.004.009-.021.099q-.001.01-.022.017c-.012 0-.021 0-.025-.013-.022-.03-.043-.039-.06-.017l-.086-.099a.05.05 0 0 1-.013-.03q-.015-.154-.176-.154c-.098-.073-.021-.154.052-.193l.01-.011.003-.015a.25.25 0 0 0-.022-.128q-.012-.064.026-.09a.03.03 0 0 0 .013-.026l-.013-.077c0-.004 0-.013.008-.017zm-1.847.141c.077.043.158.082.248.107.065.018.129.065.215.065q.02.02.034.021l.133.017q.018 0 .03.013.052.053.098.047a.45.45 0 0 0 .172.317.04.04 0 0 1 .017.026c.013.069.141.137.193.197.124.15.317.296.514.236.021.013.03.043.039.086.008.085.06.171.077.265v.035c-.043.128.064.205-.009.325a.04.04 0 0 1-.021.018c-.039.012-.047.03-.052.068a.56.56 0 0 1-.068.244c-.086.108-.172.322.043.33a.04.04 0 0 1 .03.018q.027.032.008.098a1 1 0 0 1-.073.189.026.026 0 0 1-.026.017c-.115 0-.094.12-.188.171h-.013c-1.033-.218-.814-.651-1.114-1.783-.03-.055-.009-.184-.034-.235-.069-.142-.193-.245-.24-.395-.026-.085-.009-.214-.039-.3a.7.7 0 0 0-.056-.141l.005-.013a.02.02 0 0 1 .021-.008.06.06 0 0 0 .051-.035z"/><path fill="#E30200" d="M5.953 9.943a.7.7 0 0 1 .004.27c-.043.171-.103.356-.094.536 0 .008 0 .017.013.025q.039.04.051.099 0 .013.017.021c.009 0 .013.009.018.017a.24.24 0 0 1-.022.142.04.04 0 0 0 0 .021l.004.262a1.4 1.4 0 0 0-.008.355l.068.472c.005.03.026.086.022.128v.039a.26.26 0 0 1 .026.124c0 .009 0 .013.012.013h.086c.009 0 .017 0 .026.013.026.039.068.043.094.077a.4.4 0 0 1 .064.116c0 .09.013.201 0 .3-.008.051.043.111.099.094l.026.004h.025l.005-.008v-.004l.008-.103q.001-.051.022-.005a.4.4 0 0 1 .043.172c0 .06.017.094.034.146.004.012 0 .021 0 .03a.04.04 0 0 0 0 .042q.011.02.03.013l.008-.013q.018-.061.043-.008c.296.514 1.153.073 1.38-.022.257-.102.523.78.523 2.242-.463 1.307-1.397.013-1.397.013a.3.3 0 0 0-.111.008c-.112.017-.202-.068-.3-.021a.026.026 0 0 0-.017.026c0 .111.102.214.158.304.167.244.399.471.617.66.163.184.334.343.527.471.043.035.086.095.142.12l.111.06c.086.065.189.116.27.172.24.171.463.283.712.407.17.086.347.15.527.214q.232.088.471.163.35.105.712.163.148.032.655.077c.54 0 .489.424.172.459-.313.038-1.055-.103-1.055-.103-.184-.009-.471-.112-.685-.172a6.9 6.9 0 0 1-4.509-4.148.2.2 0 0 0 0-.086h.022a.04.04 0 0 0 .008-.03q0-.014.013-.009.039.012.064-.021a1.4 1.4 0 0 0 .146-.24q.015-.008.017-.021a.26.26 0 0 0 .004-.129l-.141-.579c-.06-.244-.081-.488-.107-.741-.013-.086.004-.189 0-.27q-.018-.165-.022-.33c0-.013 0-.026.013-.034a.04.04 0 0 0 .009-.03q-.003-.225 0-.45c0-.043.004-.103.021-.185.022-.085.017-.18.026-.248.043-.373.141-.729.3-1.08"/><path fill="#EC8941" d="M18.107 9.973c.021.064.03.124.052.18.107.335.179.682.214 1.032a.04.04 0 0 1-.009.018.2.2 0 0 0-.06.072.04.04 0 0 0 0 .026c0 .03 0 .065-.013.095 0 .012-.008.012-.021.008a.05.05 0 0 0-.03-.013q-.02.001-.021.022v.175a.04.04 0 0 1-.018.035.12.12 0 0 0-.043.09q.001.021-.017.017c-.004 0-.008 0-.012-.009v-.013a.3.3 0 0 0-.052-.167l-.01-.007-.011-.001h-.009l-.009.013-.042.068a.07.07 0 0 1-.026.03.06.06 0 0 1-.043 0c-.081-.017-.064-.094-.034-.159.051-.102.017-.184.013-.274v-.377a.02.02 0 0 1 .017 0c.017.009.03.009.047.009.013 0 .017-.009.017-.018l.009-.107.004-.01.009-.007.008-.004.009.004.025.099.005.004h.012c.01.004.013 0 .01-.004-.01-.077.042-.163.05-.24l.01-.112q-.002-.018.008-.03a.15.15 0 0 0 .008-.128c-.026-.069-.077-.146-.068-.214 0-.035.013-.07.021-.103"/><path fill="#E30200" d="M11.186 10.213H11.1l-.154-.189-.005-.012v-.013l.013-.013h.013a.12.12 0 0 1 .099.09l.017.03.098.107z"/><path fill="#110202" d="M11.1 10.217h.086q.248.02.497-.043.051-.013.206-.086c.3-.137.724-.03 1.045.073.446.142.982.257 1.385.06q.288-.14.398-.171c.326-.082.934.385 1.204.57l.005.004a.02.02 0 0 1 .004.017v.009l-.009.008c-.012.018-.025.018-.042.009-.33-.206-.613-.429-.986-.549-.172-.051-.459.112-.617.18a1.24 1.24 0 0 1-.622.073c-.368-.043-.72-.146-1.071-.244-.215-.056-.519-.086-.707.034-.17.09-.358.134-.549.129-.364-.004-.741.013-1.088-.133a.02.02 0 0 1-.013-.017v-.009l.012-.004a.1.1 0 0 1 .048 0c.33.064.523.098.814.09"/><path fill="#860101" d="M17.657 10.106q.168 0 .18.154c0 .009.005.022.013.03l.086.099a.34.34 0 0 1-.035.158.04.04 0 0 1-.021.022c-.111.047-.069.15-.107.236a1 1 0 0 0-.043.124l.004.013c.043.068-.017.137-.03.21a.03.03 0 0 0 .009.025h.008c.035.009.056 0 .078-.025l.012-.013a.03.03 0 0 1 .037.006l.006.011a.14.14 0 0 1 0 .128 1.4 1.4 0 0 0-.09.318.22.22 0 0 0 .043.184l.013.03c0 .043-.004.086-.026.116a.04.04 0 0 0 0 .038l.017.12a.4.4 0 0 1-.025.129.5.5 0 0 0-.03.128c0 .009-.009.018-.017.026-.215.202 0 .673-.369.93a.04.04 0 0 1-.026.021.1.1 0 0 0-.064.043.034.034 0 0 1-.034.026l-.12.004a.04.04 0 0 1-.035-.013.043.043 0 0 1-.013-.038c.005-.052-.012-.103 0-.15a.3.3 0 0 1 .104-.15.3.3 0 0 0 .085-.086.3.3 0 0 0 0-.227c-.021-.069.086-.18-.017-.227.026 0 .056.013.081.047a.02.02 0 0 0 .026.004c.095-.051.073-.171.189-.171q.019.001.026-.017.029-.065.072-.189.018-.066-.008-.098a.042.042 0 0 0-.034-.017c-.215-.009-.13-.223-.043-.33a.5.5 0 0 0 .072-.245c0-.043.013-.056.052-.068a.04.04 0 0 0 .021-.018c.073-.12-.034-.2.009-.325v-.035c-.017-.094-.069-.175-.077-.27-.009-.042-.017-.068-.039-.085q0-.02.03-.039c.03-.017.069-.013.107-.034a.05.05 0 0 0 .022-.026.4.4 0 0 0 .043-.171l.017-.026q.02-.012.013-.043a.26.26 0 0 0-.108-.146c.009-.05-.042-.064-.06-.098z"/><path fill="#E30200" d="M7.569 10.5c.072.039.141.086.214.129a.44.44 0 0 0 .184.085c.154.039.3.017.459.017.12 0 .223-.017.343-.025.115-.013.222-.065.36-.009.12.052.201.184.325.244a.97.97 0 0 0 .515.09c.017 0 .03.005.03.026v.013c0 .008 0 .013-.009.013-.159.043-.274.008-.416-.03a.8.8 0 0 1-.373-.232c-.124-.128-.35-.077-.527-.034l-.094.004a.01.01 0 0 0-.009.009v.008h.01c.14.086.008.232.145.305q.177.1.351.206v.008a.026.026 0 0 1-.038.026 3 3 0 0 1-.386-.21c-.082-.056-.06-.125-.064-.21a.1.1 0 0 0-.018-.052.08.08 0 0 0-.047-.021l-.57-.086a.25.25 0 0 1-.124-.038 1.5 1.5 0 0 1-.27-.168l.009-.072z"/><path fill="#110202" d="M15.064 10.706c.213.099.402.24.557.416 0 .008 0 .012-.008.012l-.004.01q-.025.018-.043 0a1.36 1.36 0 0 0-1.157-.46c-.33.03-.648.06-.973.065a.8.8 0 0 1-.215-.043c-.107-.034-.3-.137-.415-.146a3 3 0 0 0-1.153.107c-.343.112-.776.073-1.136.013-.24-.043-.45-.064-.72-.128l-.008-.013v-.013H9.8c.258.008.523.069.78.107.193.03.416.043.575.052.21.004.39-.052.591-.108a3 3 0 0 1 1.05-.077c.129.009.352.142.536.18q.096.018.206.017.412-.019.818-.064c.257-.03.48-.03.707.073m-3.218 1.736-.142.034-.334.086a.27.27 0 0 0-.146.017h-.017l-.086.008c-.017-.008-.034-.012-.06-.008l-.068-.017a2 2 0 0 1-.133-.035l-.03-.012-.103-.112c-.146-.386-.056-.956.172-1.307q.027-.045-.022-.026-.112.036-.227.064a.03.03 0 0 1-.012-.01.03.03 0 0 1-.005-.015q0-.008.005-.015a.03.03 0 0 1 .012-.01c.287-.155.527-.09.793.06q.468.264.866.663c.132.129.351.279.514.086a.43.43 0 0 0 .098-.214c0-.009 0-.009.009-.009h.013a.02.02 0 0 1 .013.013v.004c-.039.206-.167.412-.386.378-.013 0-.021 0-.026.012l-.064.172a.04.04 0 0 0 0 .03q0 .011.013.017l.094.086c.026.025.039.043.034.064q-.005.033-.03.008c-.055-.05-.158-.137-.24-.15-.055-.012-.111.035-.162.048l-.343.085zm1.191-1.003.129-.429h.008a3 3 0 0 1-.077.403c-.021.09-.064.184-.18.154a.026.026 0 0 1-.021-.021v-.017h.008q.104.012.129-.09zm1.02.304a.3.3 0 0 0 .12.004q.005 0 .009.005v.012c-.086.09-.197.026-.223-.085a1.5 1.5 0 0 1-.034-.622h.008c.009 0 .013.009.013.018-.01.222.018.444.086.655a.04.04 0 0 0 .021.009z"/><path fill="#C10202" d="M11.464 11.25c-.36.249.095.9-.124 1.23-.146.034-.493.056-.557-.129-.021-.072-.043-.128-.043-.205 0-.215-.017-.407.043-.613a1.7 1.7 0 0 1 .171-.386c.035-.068.077-.073.146-.056.103.022.287.12.364.16"/><path fill="#110202" d="M13.277 11.691c.214 0 .24-.304.266-.462q.002-.019.017-.018h.008q.008 0 .009.013c0 .197-.043.532-.309.515h-.008l-.004-.013v-.013q0-.02.021-.022"/><path fill="#F8A2A0" d="m11.447 11.237.275.163c.02.017.025.034.017.06-.129.283-.24.639-.018.913a.01.01 0 0 1 0 .013l-.004.008-.377.086q-.103.014-.116-.081a.06.06 0 0 0-.013-.03c-.201-.369-.197-.909.236-1.132"/><path fill="#C10202" d="M18.857 11.85s.052 1.016-.257 2.1a6.9 6.9 0 0 1-5.769 4.851c-.334.056-1.054.056-1.054.056.112-.043-.008-.403-.12-.471.189-.009.356-.018.557-.009.258.009.502-.069.755-.094.098-.009.214-.043.321-.056.23-.005.453-.077.643-.206.051-.038.116-.008.18-.034.116-.043.227-.06.321-.163q.014-.008 0-.021c-.008-.017-.025-.022-.042-.013a2 2 0 0 1-.305.098.5.5 0 0 0-.24.099c-.171.129-.373.107-.566.124a.03.03 0 0 1-.018-.003.03.03 0 0 1-.011-.014v-.008l-.002-.005q0-.002.002-.004c.09-.021.17-.043.257-.081.094-.043.197-.03.282-.099l.086-.06c.043-.03.086-.021.137-.03l.013-.004v-.009q.008-.018.022-.017l.184-.021.01-.008.011-.001c.06 0 .095-.043.138-.056.068-.025.137-.068.218-.064l.03-.004c.043-.03.09-.026.129-.035l.115-.03c.039-.008.086-.004.129-.021.107-.043.236-.03.326-.111a.03.03 0 0 0 .013-.026c-.01-.086.02-.197-.013-.257-.026-.052-.069-.065-.138-.052a.03.03 0 0 1-.034-.008.04.04 0 0 1-.008-.035l.021-.12-.004-.034c-.137-.12-.086-.223-.086-.278q.2-.254.463-.442c.244-.188.428-.3.746-.3l.03-.017a.7.7 0 0 1 .141-.103l.034-.004c.013 0 .03 0 .052.013a.04.04 0 0 1 .017.025.04.04 0 0 1 0 .035l-.052.073c-.042.068-.115.115-.167.184a.06.06 0 0 0-.008.03.08.08 0 0 1-.035.064.06.06 0 0 0-.017.03l-.025.077q-.014.032.013.043a.03.03 0 0 0 .025-.008l.553-.618q.046-.055.034.018c-.008.06 0 .115-.042.184a.54.54 0 0 0-.078.278l.005.018a.04.04 0 0 0 .03.017l.017-.009a.8.8 0 0 0 .158-.163l.472-.643c.09-.128.133-.274.223-.398a8 8 0 0 0 .75-3.412 1 1 0 0 0-.013-.171q.012 0 0 0l.437.429z"/><path fill="#F8A2A0" d="M14.871 12.296a1.16 1.16 0 0 1-.081-.591l.313-.262q.02-.018.013.009a2.1 2.1 0 0 0-.03.805c0 .013 0 .018-.013.022z"/><path fill="#C10202" d="M14.79 11.704c-.021.214 0 .412.081.591l-.253.07a.042.042 0 0 1-.043-.009.1.1 0 0 1-.013-.02q-.005-.01-.003-.023l.012-.399q0-.008.004-.014l.01-.012z"/><path fill="#110202" d="M9.394 12.112v.008l-.004.009h-.017l-.034-.022a.06.06 0 0 1-.026-.042l-.013-.3c0-.013 0-.018.017-.018l.017-.004h.01l.007.004a.02.02 0 0 1 .005.018 1 1 0 0 0 .038.347m.587-.296a1.13 1.13 0 0 0 .3 1.067v.004l-.004.009-.008.004-.013.005-.017-.005a1.12 1.12 0 0 1-.3-1.114h.021c.017 0 .026.013.021.03"/><path fill="#E30200" d="M7.672 11.798a.6.6 0 0 1 .098.15.7.7 0 0 0 .086.155c.158.201.356.278.583.39.163.085.214.231.343.355.072.077.145.137.17.257l.04.146q.1.321.244.626h-.004l-.009.004-.013.004-.013-.004-.008-.008c-.06-.137-.133-.275-.18-.407a4 4 0 0 1-.107-.356c-.048-.15-.163-.202-.245-.326a.75.75 0 0 0-.407-.326c-.056-.021-.098-.055-.15-.085q-.066-.046-.034.03l.047.115.021.022c.026.017.043.034.043.043.013.064 0 .072-.051.025a.6.6 0 0 1-.129-.283.1.1 0 0 0-.017-.025l-.274-.322a.5.5 0 0 1-.039-.18zm7.375.557.034.292-.077-.013a.43.43 0 0 0-.008-.219q-.018-.057-.073-.05a.23.23 0 0 1 .129-.01z"/><path fill="#EF7475" d="M15.047 12.356h.167a.7.7 0 0 1 0 .3c-.043.008-.085 0-.133-.009z"/><path fill="#E30200" d="M15.39 12.382a.7.7 0 0 0 .013.321.5.5 0 0 1-.189-.047.7.7 0 0 0 0-.3c.065 0 .125.004.176.026"/><path fill="#EF7475" d="M14.923 12.364c.038 0 .06.013.073.052a.43.43 0 0 1 .008.218h-.137l-.017-.257q.046 0 .073-.013"/><path fill="#C10202" d="m14.85 12.377.017.257-.107-.004a.6.6 0 0 1-.008-.215.17.17 0 0 1 .098-.038"/><path fill="#EF7475" d="M15.394 12.381a.3.3 0 0 1 .116.035.2.2 0 0 0-.06.077c-.008.021 0 .047.013.085.021.052.043.103.056.155l-.116-.03a.64.64 0 0 1-.009-.322"/><path fill="#C10202" d="m10.727 12.403.103.111q-.044-.001-.043.043c-.008.051-.008.124-.013.21 0 .137-.068.219-.03.373l-.012.03c0 .008 0 .021.012.026l.013.008c.039.223.03.489.052.669.017.12.034.257.064.416.026.154.009.33.034.488.013.086.103.523-.081.493a.06.06 0 0 1-.043-.047c-.017-.172-.06-.369-.056-.54.013-.214-.008-.429-.017-.643-.009-.206-.06-.399-.06-.6 0-.099.004-.184-.008-.287a.8.8 0 0 1 .017-.36 1 1 0 0 0 .034-.172c0-.085.026-.141.034-.214zm3.973.021a.3.3 0 0 0-.013.206l-.094.013q-.013.002-.013.017l-.004.03-.056-.279z"/><path fill="#E30200" d="M15.514 12.416c.018 0 .043.008.086.034l.017.33-.098-.047a1 1 0 0 0-.056-.15c-.017-.043-.021-.069-.013-.09a.2.2 0 0 1 .06-.078z"/><path fill="#EF7475" d="M14.7 12.424a.06.06 0 0 1 .051-.004.5.5 0 0 0 .009.21h-.073a.3.3 0 0 1 .013-.206"/><path fill="#E30200" d="M11.846 12.441c-.03.077-.103.176-.086.262l-.111.034.055-.261z"/><path fill="#EF7475" d="m10.83 12.514.03.013c-.013.18-.03.356.008.531l-.124.082c-.043-.154.03-.236.03-.373l.009-.214q.005-.039.043-.039z"/><path fill="#C10202" d="M10.86 12.527q.064.032.103.03-.045.185-.021.373h.008l.009-.013.034-.355.069.017h-.022v.017q.002.194-.03.394l-.141.069c-.039-.176-.022-.352-.009-.532"/><path fill="#E30200" d="M11.37 12.557q.001.135.047.257a.26.26 0 0 1-.128.047 4 4 0 0 0-.035-.283.05.05 0 0 0-.03 0 .27.27 0 0 1 .146-.021"/><path fill="#EF7475" d="m10.963 12.557.03.004-.034.356c0 .004 0 .009-.01.009l-.008.004a1 1 0 0 1 .022-.373"/><path fill="#C10202" d="M11.207 12.579q-.044.025-.043.094c0 .077.013.154.026.231q-.011.02-.056.026a.85.85 0 0 1-.017-.343l.086-.008z"/><path fill="#EF7475" d="M11.207 12.579h.047l.013.025.022.257a.3.3 0 0 1-.099.043 2 2 0 0 1-.026-.231q-.001-.066.043-.095"/><path fill="#110202" d="M11.743 12.767a.3.3 0 0 0-.107.034l-.223.078a.3.3 0 0 0-.116.05l-.103.044q-.002.024-.043.017l-.167.086a.2.2 0 0 0-.116.068.4.4 0 0 0-.11.06l-.014-.008q-.02-.014-.013-.026l.013-.03.124-.082.142-.068.129-.06q.038-.006.05-.026a.3.3 0 0 0 .1-.043.26.26 0 0 0 .128-.043l.232-.081.11-.034c.232-.073.357-.107.584.008q.027.013.008.039-.006.014-.038.008a.43.43 0 0 0-.429.159.04.04 0 0 1-.017.013h-.021l-.013-.004-.005-.005a.02.02 0 0 1 0-.012v-.01a.53.53 0 0 1 .28-.192q.018-.007 0-.013c-.12-.026-.25.039-.36.073zm2.944-.137h.18l.137.008.077.009a.3.3 0 0 0 .133.009c.06.025.124.042.189.042l.115.035.1.047.282.154c.004 0 .013.009.013.017v.035h-.005l-.005.006-.007.002h-.005l-.257-.137a.23.23 0 0 0-.12-.06l-.085-.034a.6.6 0 0 0-.168-.034q-.032-.02-.077.012c-.004.009-.013.009-.017 0a.03.03 0 0 1-.008-.017c0-.004 0-.013-.01-.013a.02.02 0 0 0-.012-.008l-.146-.005c-.008 0-.012 0-.012.009l.008.004c.077 0 .103.047.172.06q.015.003.025.013a.09.09 0 0 0 .073.043l.159.086.051.047c.026.026.021.043-.017.043l-.021-.009a.5.5 0 0 0-.172-.098l-.137-.069a.2.2 0 0 0-.103-.051.16.16 0 0 0-.12-.022.13.13 0 0 0-.098.017c-.03-.008-.043-.025-.03-.06 0-.013 0-.021-.018-.021h-.06a.14.14 0 0 0-.115 0v-.03l.017-.017z"/><path fill="#EC8941" d="m15.656 15.54.085-.214q.065.024.086-.022c.073-.141.214-.141.249-.364 0-.013.004-.017.013-.026.085-.064.073-.15.124-.218.656-.909.651-.412 1.26-1.269.009-.013.013-.013.021 0l.009.022.009.025a.2.2 0 0 0 .034.052c.008.008.013.021.004.03a.06.06 0 0 0-.004.043q.002.025.017 0c.086-.159.236-.266.279-.54 0-.009 0-.013-.01-.018-.016-.004-.03 0-.033.013q-.012.02-.03 0a.05.05 0 0 1-.009-.038c0-.005 0-.009-.009-.009h-.012v.039l-.003.007-.006.006h-.013q-.063-.013-.043-.065l.026-.15.021-.042a.4.4 0 0 0 .099-.129c.013-.021.026-.03.052-.034.012 0 .02 0 .02.017 0 .034 0 .064-.016.094v.007a.02.02 0 0 0 .006.012l.007.002q.09.014.102.065.02.066-.042.094a.04.04 0 0 0-.022.034.043.043 0 0 0 .013.039l.043.043c.008.008.008.021.008.03l-.055.248-.009.013c-.128.489-.214.969-.548 1.316a3 3 0 0 0-.266.304c-.086.112-.189.206-.274.317-.172.223-.665.408-.866.356a.8.8 0 0 1-.086-.154c-.017-.026-.038-.039-.068-.03a.1.1 0 0 0-.026.017.3.3 0 0 1-.137.077"/><path fill="#E30200" d="M14.691 12.686c.043.146.146.608.03.728l-.015.01a.04.04 0 0 1-.019.003.043.043 0 0 1-.034-.021.26.26 0 0 1-.035-.142 3 3 0 0 0-.042-.574.14.14 0 0 1 .115 0z"/><path fill="#EF7475" d="M15.262 12.729a.2.2 0 0 1-.005.103.11.11 0 0 1-.073-.043.04.04 0 0 0-.03-.017c-.064-.013-.09-.065-.171-.06v-.005q-.002-.007.008-.008l.146.004c.005 0 .009 0 .013.009l.009.012.008.018c.005.004.009.008.017 0q.045-.033.078-.013"/><path fill="#C10202" d="m15.424 12.763-.008.15-.159-.086a.2.2 0 0 0 .004-.098q.098.007.163.034"/><path fill="#E30200" d="M11.743 12.767v.283c0 .098-.043.193-.034.291.012.155.072.343.042.493q-.01.04-.034.009c-.069-.103.03-.214-.026-.313a3 3 0 0 1-.18-.36.05.05 0 0 0-.03-.004c-.038 0-.047.034-.034.09.073.252.064.497.082.754l-.013.039a.05.05 0 0 1-.035.017h-.008q-.065.007-.065-.056c0-.15.01-.27-.025-.42-.034-.163-.034-.322-.06-.48q-.017-.09-.026-.18a.4.4 0 0 1 .116-.051l.214.39q.02.05.021-.005l-.012-.463a.3.3 0 0 1 .111-.034zm3.274.004q.045.01.103.056c-.081.184-.017.42-.021.617 0 .15.017.287.021.437a.04.04 0 0 1-.021.039h-.009l-.009.003-.008-.003v-.009l-.034-.454c-.005-.073-.043-.141-.043-.214q.017-.233.021-.472m.497.026q.051 0 .12.06c.009.099.043.193.043.287.009.086.004.155.03.236.039.111.056.223.099.326.085.188.175.355.184.565l.026.292-.09.193-.035-.519a.4.4 0 0 0-.03-.163c-.077-.18-.154-.355-.205-.548q-.007-.033-.013 0c-.03.18 0 .411.021.595.013.133-.051.352-.008.532.012.068.025.128.025.175l.009.37-.129.312a1.4 1.4 0 0 1-.051-.609c.017-.12-.013-.214 0-.33l.034-.325c.017-.206-.008-.42-.008-.635 0-.137-.047-.257-.013-.407.008-.047-.009-.09 0-.128a.54.54 0 0 0-.009-.279"/><path fill="#EF7475" d="m11.636 12.801.013.463c0 .034-.009.039-.026.004l-.21-.39z"/><path fill="#110202" d="m14.469 14.636-.12.086a1 1 0 0 1-.318-.022.03.03 0 0 1-.021-.021v-.035q.002-.018.021-.017c.142 0 .24.073.356-.051q.129-.13.18-.206c.077-.111.214-.407.09-.536-.27-.274-.488-.497-.48-.921 0-.009 0-.017.009-.021l.008-.004q.005 0 .009.004l.004.004c.034.145.06.3.129.424.098.184.248.343.398.484.15.155-.055.549-.15.686a.03.03 0 0 0 0 .03.7.7 0 0 1 .086.304c.004.035-.009.047-.039.047l-.021-.004a.03.03 0 0 1-.009-.021l-.042-.223q-.013-.044-.052-.03z"/><path fill="#E30200" d="M15.257 12.9a.5.5 0 0 1 .172.094l-.043.249a.04.04 0 0 1-.022.025.04.04 0 0 1-.034 0 .12.12 0 0 1-.051-.085 1.4 1.4 0 0 1-.022-.287zm-4.063.077.06.548c.013.15.078.335.048.532 0 .008-.005.017-.013.017-.026.009-.035 0-.039-.026 0-.09 0-.171-.017-.265a4.4 4.4 0 0 1-.077-.793c.021.004.038 0 .043-.013z"/><path fill="#C10202" d="m10.984 13.076.03.574a.03.03 0 0 1-.012.021l-.01.007-.012.002h-.008q-.046-.006-.052-.051l-.051-.485a.2.2 0 0 1 .115-.068"/><path fill="#EF7475" d="m15.926 14.756-.24.441-.005-.368c0-.047-.012-.107-.025-.172-.043-.184.021-.403.008-.535-.017-.185-.051-.416-.021-.596 0-.022.008-.022.013 0 .051.193.128.368.205.548.026.056.026.108.03.163l.035.515z"/><path fill="#110202" d="M12.866 14.55q-.058.001-.09-.056c-.142-.227-.214-.544.107-.664.116-.043.309-.086.356.06v.034c-.009.013-.018.022-.035.017a.04.04 0 0 1-.025-.017c-.065-.094-.202-.051-.3-.008-.258.111-.129.441.008.587a.03.03 0 0 1 .005.03l-.01.013a.03.03 0 0 1-.016.004"/><path fill="#E30200" d="m8.644 15.686-.013-.12a1 1 0 0 0 .116-.133c.073-.107.06-.236.069-.356.004-.086.06-.128.06-.201v-.313q0-.024.025-.082c.026-.06.086-.12.129-.188.056-.09.163-.056.227-.12.051-.047.064-.043.043.026 0 .012-.026.025-.069.042l-.077.026c-.081.026-.133.124-.188.197-.065.086-.043.193-.039.287q-.001.072.043.013a.7.7 0 0 1 .231-.201h.009l.008.008.004.006v.012l-.004.004c-.205.15-.372.356-.35.621 0 .052-.01.137-.04.176a2.3 2.3 0 0 0-.184.3z"/><path fill="#110202" d="M13.586 14.533a.4.4 0 0 0-.095-.124c-.11-.103-.257-.086-.342.042.008.048-.009.073-.043.073-.009 0-.013 0-.022-.008l-.006-.01-.002-.012c-.005-.111.004-.227.12-.274.18-.069.411.129.454.304v.014a.03.03 0 0 1-.008.012c-.018.009-.035 0-.056-.017"/><path fill="#E30200" d="m13.586 14.537-.018.279q0 .014-.008.025a.04.04 0 0 1-.026.013h-.013q-.05.011-.055-.043c-.009-.115-.03-.231.03-.308q.013-.02-.005-.022h-.043a.03.03 0 0 0-.02.022.2.2 0 0 0-.018.086q.013.205-.004.424a.2.2 0 0 1-.107-.043c-.043-.12-.018-.3-.005-.433q-.002-.02-.017-.021a.24.24 0 0 1-.128-.069c.085-.12.23-.141.342-.038a.4.4 0 0 1 .095.128m-.883.236a.1.1 0 0 1-.056-.026c-.043-.163.077-.18.193-.171.013 0 .021-.005.034-.013l.009-.004q0-.008.013-.009h.012c.052.017.1.013.142-.021q.02-.014.013.012l-.013.052a.03.03 0 0 1-.009.017.03.03 0 0 1-.017.009l-.145.008a.06.06 0 0 0-.052.034.3.3 0 0 1-.129.112z"/><path fill="#110202" d="M12.643 14.743a.2.2 0 0 0 .06.03l.6.197c.025.021.06.039.103.043q.38.137.707.377c.103.073.261.141.368.266.009.008.013.004.013 0l.06-.322q.012-.076.017 0c.022.429-.145.725-.342 1.085h-.005v.004l-.004.001-.004-.001-.013-.009v-.017q.084-.226.214-.433c0-.013 0-.021-.013-.025h-.021a1.4 1.4 0 0 1-.326.094 1.3 1.3 0 0 0-.176.051c-.197.095-.227.262-.373.395-.197.175-.6.287-.835.205l-.463-.145c-.219-.065-.369-.228-.48-.42a.6.6 0 0 1-.034-.24c-.005-.206-.018-.412-.018-.63 0-.12.052-.236.069-.36.021-.142.077-.395.266-.33.103.034.197.077.308.098q.166.034.326.086z"/><path fill="#E30200" d="m14.469 14.636-.026.394a.04.04 0 0 1-.013.03.04.04 0 0 1-.034.009l-.018-.005q-.057-.018-.05-.077l.02-.261z"/><path fill="#EF7475" d="M11.863 14.897c.043-.098.017-.3.201-.218.206.085.45.162.716.257.129.051.27.085.416.094.043 0 .103.026.18.064q.012.012 0 .018a.34.34 0 0 0-.163.222l-.009.005h-.008c-.116-.202-.403-.292-.527-.056-.009.008-.013.008-.022 0-.116-.214-.45-.3-.544-.021h-.013a.44.44 0 0 0-.266-.202.02.02 0 0 1-.012-.008v-.013a.7.7 0 0 1 .051-.142"/><path fill="#E30200" d="M9.309 16.5a.2.2 0 0 1-.056-.043c.047-.034.03-.129.03-.184 0-.078-.043-.215-.021-.283.085-.274.128-.429.12-.694 0-.043-.022-.078-.026-.12q0-.026.021-.018l.013.005.021.03.026.077v.034l-.021.33q-.009.089.043.017a.26.26 0 0 1 .158-.128.086.086 0 0 0 .056-.09.43.43 0 0 1 .086-.287.1.1 0 0 0 .008-.026l.017-.163a.03.03 0 0 1 .022-.026q.019-.011.026.009c.012.137-.026.21-.082.325-.039.082-.03.16-.039.245a.03.03 0 0 1-.017.026l-.094.047c-.069.043-.116.111-.171.171a.4.4 0 0 0-.095.146.35.35 0 0 0-.017.24c.034.12.034.24-.008.36"/><path fill="#fff" d="M11.91 15.201a.54.54 0 0 1 .193.425q0 .012-.013.012l-.283-.004q-.012.001-.013-.017l-.017-.386q0-.05.052-.064.024-.002.081.034m.296.403h-.013v-.008l-.013-.159v-.017c-.077-.116.043-.257.171-.249.185.017.257.172.287.339v.004a.017.017 0 0 1-.017.017q-.214.001-.415.073m1.088-.064h-.004v-.004a.5.5 0 0 1 .013-.236q.037-.103.107-.116c.021 0 .043 0 .064.017a.2.2 0 0 1 .065.065q.03.045.051.098a.4.4 0 0 1 .03.12l.003.001.001.003-.001.004h-.003zm-.36-.313c.15.03.249.184.279.326 0 .013 0 .017-.013.025-.129.086-.343-.012-.471-.051a.02.02 0 0 1-.018-.021c0-.15.03-.313.223-.279m.793.073.287.141q.005 0 .006.003a.01.01 0 0 1-.006.014v.005l-.295.025a.01.01 0 0 1-.009 0v-.193l.004-.004h.009z"/><path fill="#C10202" d="M8.529 15.514c0 .086.021.42.06.476a.5.5 0 0 0 .128.171q.053.064.022.159c0 .013-.009.017-.017.013-.258.364-.416.685-1.08-.133a.07.07 0 0 0-.065-.013.07.07 0 0 0-.047.051.7.7 0 0 0 0 .305 3.6 3.6 0 0 1-.617-.66c-.056-.086-.159-.193-.159-.305 0-.012.009-.021.018-.025.098-.043.188.043.3.021a.3.3 0 0 1 .111-.008c.06.017 1.277.445 1.341-.052z"/><path fill="#F8A2A0" d="M13.016 16.234c-.168.086-.322.06-.515.017-.098-.021-.36.06-.471.086a.04.04 0 0 1-.03-.013l-.159-.189q-.046-.052.018-.085c.35-.189.75-.26 1.144-.202.163.022.347.099.368.283v.009a.02.02 0 0 1-.009.014l-.008.003a.7.7 0 0 0-.343.077z"/><path fill="#E30200" d="m10.843 15.883.047.043-.099.167a.12.12 0 0 0 0 .098.5.5 0 0 1 .022.137l.017.416a.04.04 0 0 1-.013.03c-.06.082-.107.142-.129.18a.4.4 0 0 0-.06.176h-.055q-.002-.103.047-.167a.6.6 0 0 0 .137-.399c-.004-.133.009-.265-.03-.398l.004-.035z"/><path fill="#EF7475" d="M10.89 15.921a.6.6 0 0 1 .129.103c.141.137.291.274.415.429a.8.8 0 0 0 .138.133q.4.281.83.514v.004a.5.5 0 0 1-.243.077q-.358.024-.742.022c-.021-.064 0-.142.065-.223a.04.04 0 0 0 .008-.021q.002-.038-.03-.03l-.006.005-.003.007-.12.258-.184-.009.022-.249.004-.012c0-.009.008-.009.013-.013.12-.086.094-.198.068-.343 0-.013-.012-.017-.021-.013l-.009.009a.026.026 0 0 0-.017.026c.013.06.026.158 0 .213-.017.056-.086.06-.098.13a.2.2 0 0 0 .004.098v.03a.24.24 0 0 0-.013.128l-.471-.064a.4.4 0 0 1 .055-.171l.133-.185a.04.04 0 0 0 .013-.03l-.017-.416a.4.4 0 0 0-.022-.137.12.12 0 0 1 0-.098z"/><path fill="#860101" d="M8.589 15.99c.171.223.355.356.552.523q.186.153.712.467.02.014.051.009c.013 0 .022 0 .03.008.719.248 1.48.35 2.238.3.085.009.18-.03.282-.102a.15.15 0 0 1 .116-.026c.279.085.562.111.857.124.172.009.343.043.506.052.18.008.326.038.493-.056.291-.159.523-.296.66-.6l.004.021q.006.012.017.005l.009-.005.013.026.008.008v.013a.4.4 0 0 0 .039.137v.035l-.017.12a.04.04 0 0 0 .025.043h.018c.068-.013.11 0 .137.047.034.064.004.18.012.257 0 .013 0 .026-.012.03-.09.081-.215.069-.326.111-.043.018-.09.013-.129.022l-.115.03c-.039.008-.086.004-.129.034a.05.05 0 0 1-.03.004c-.081 0-.15.043-.214.065-.043.017-.086.055-.142.055-.008 0-.017 0-.021.009l-.004.009h-.009l-.171.012a.021.021 0 0 0-.021.017v.01l-.014.003c-.051.009-.09 0-.137.03l-.086.06c-.085.069-.188.056-.287.099q-.122.06-.257.086l.005.012.012.013.018.005c.192-.017.394 0 .565-.125a.47.47 0 0 1 .24-.098 2 2 0 0 0 .3-.099q.034-.012.047.013.014.014 0 .021c-.094.103-.205.12-.321.163-.06.026-.129 0-.18.035-.197.145-.394.18-.643.205-.107.013-.223.047-.321.056-.253.026-.497.103-.755.094-.201-.008-.368 0-.557.013a6.4 6.4 0 0 1-1.838-.398c-.18-.069-.356-.133-.528-.219-.248-.124-.47-.231-.71-.407-.087-.056-.185-.107-.27-.171a1 1 0 0 0-.112-.06c-.056-.026-.099-.086-.142-.116a3 3 0 0 1-.527-.472.7.7 0 0 1 0-.308.07.07 0 0 1 .043-.052.07.07 0 0 1 .068.013l.42.36c.01.009.018.005.022-.004l.004-.009v-.017c-.086-.085.017-.184.09-.124l.03.017h.013c.009 0 .017.009.026.017a.24.24 0 0 0 .214.095c.013 0 .017-.01.009-.022a.2.2 0 0 0-.043-.056.04.04 0 0 1-.017-.034l.012-.094q.001-.026.026-.013.045.033.103.009a.1.1 0 0 1 .03-.005l.141.013c.01 0 .018 0 .018-.013.021-.064.012-.12-.026-.158a.5.5 0 0 1-.124-.172"/><path fill="#E30200" d="m9.96 16.907-.069-.03c0-.086.022-.159.069-.206.038-.043.103-.043.154-.081l.009-.013v-.017c-.016-.149 0-.3.047-.441l.013-.005h.021v.009l-.034.171a.6.6 0 0 0-.009.215q0 .008.005.015a.03.03 0 0 0 .012.01.03.03 0 0 0 .03 0l.133-.09.009-.004h.01l.007.004v.009l.009.008v.009l-.005.004a.8.8 0 0 0-.18.142c-.06.068-.115.038-.171.081q-.098.066-.06.214z"/><path fill="#fff" d="m13.363 16.234.184-.034a.03.03 0 0 1 .024.007l.008.01.002.013-.004.017-.111.154a.03.03 0 0 1-.026.009.03.03 0 0 1-.021-.013l-.073-.12-.006-.01q-.002-.006-.001-.012a.03.03 0 0 1 .01-.02zm-.124.009h.012v.008l.043.12a.16.16 0 0 1-.048.157.14.14 0 0 1-.05.028l-.193.06a.14.14 0 0 1-.112-.009.15.15 0 0 1-.068-.09l-.039-.12-.002-.006.002-.007h.005l.008-.004.441-.141zm-.528.364-.295-.103a.04.04 0 0 1-.026-.03l-.03-.107c0-.017 0-.026.017-.026a.47.47 0 0 1 .296.048.1.1 0 0 1 .051.068l.022.12c.004.03-.005.043-.035.03m-.402-.137-.19-.056h-.008v-.017l.009-.004.18-.022h.008v.009l.018.077v.004l-.005.009a.01.01 0 0 1-.012 0"/><path fill="#E30200" d="M11.143 17.19H11.1a.24.24 0 0 1 .013-.124v-.03a.2.2 0 0 1 0-.103c.008-.064.077-.069.098-.128.022-.052.009-.15 0-.215a.03.03 0 0 1 .013-.021l.009-.009q.013-.006.021.013c.026.146.052.257-.068.343l-.012.011-.005.015-.022.248zm.274.013h-.086l.12-.261v-.009h.009q.03-.013.03.026l-.009.017q-.096.13-.064.227"/></g><defs><clipPath id="a"><path fill="#fff" d="M0 0h24v24H0z"/></clipPath></defs></svg>