<svg width="24" height="24" viewBox="0 0 24 24" fill="none" xmlns="http://www.w3.org/2000/svg">
<g clip-path="url(#clip0_31_7470)">
<path d="M0 0H24V24H0V0Z" fill="#F0F3FA"/>
<path d="M19.2858 12.0001C19.2858 13.9324 18.5182 15.7855 17.1518 17.1518C15.7855 18.5182 13.9324 19.2858 12.0001 19.2858C10.0678 19.2858 8.21463 18.5182 6.84829 17.1518C5.48196 15.7855 4.71436 13.9324 4.71436 12.0001C4.71436 10.0678 5.48196 8.21463 6.84829 6.84829C8.21463 5.48196 10.0678 4.71436 12.0001 4.71436C13.9324 4.71436 15.7855 5.48196 17.1518 6.84829C18.5182 8.21463 19.2858 10.0678 19.2858 12.0001Z" fill="url(#paint0_linear_31_7470)"/>
<path fill-rule="evenodd" clip-rule="evenodd" d="M12.0001 18.8572C13.8187 18.8572 15.5628 18.1348 16.8488 16.8488C18.1348 15.5628 18.8572 13.8187 18.8572 12.0001C18.8572 10.1814 18.1348 8.4373 16.8488 7.15134C15.5628 5.86537 13.8187 5.14293 12.0001 5.14293C10.1814 5.14293 8.4373 5.86537 7.15134 7.15134C5.86537 8.4373 5.14293 10.1814 5.14293 12.0001C5.14293 13.8187 5.86537 15.5628 7.15134 16.8488C8.4373 18.1348 10.1814 18.8572 12.0001 18.8572ZM12.0001 19.2858C13.9324 19.2858 15.7855 18.5182 17.1518 17.1518C18.5182 15.7855 19.2858 13.9324 19.2858 12.0001C19.2858 10.0678 18.5182 8.21463 17.1518 6.84829C15.7855 5.48196 13.9324 4.71436 12.0001 4.71436C10.0678 4.71436 8.21463 5.48196 6.84829 6.84829C5.48196 8.21463 4.71436 10.0678 4.71436 12.0001C4.71436 13.9324 5.48196 15.7855 6.84829 17.1518C8.21463 18.5182 10.0678 19.2858 12.0001 19.2858Z" fill="url(#paint1_linear_31_7470)"/>
<path d="M12.1885 8.14307C12.3128 8.14307 12.3728 8.30164 12.2871 8.39164L9.50993 11.3188C9.42422 11.4131 9.48422 11.5674 9.6085 11.5674H10.6156C10.7056 11.5674 10.7742 11.6574 10.7485 11.7516L10.0371 14.4645C10.0296 14.4944 10.0126 14.521 9.98863 14.5404C9.96465 14.5597 9.93501 14.5707 9.90422 14.5716H7.3885C7.3285 14.5716 7.28564 14.5202 7.28564 14.4602V14.4345L7.68422 12.8531C7.68905 12.8304 7.70142 12.81 7.71931 12.7952C7.73721 12.7804 7.75958 12.7721 7.78279 12.7716H8.25422C8.3185 12.7716 8.37422 12.7288 8.38707 12.6645L8.96993 10.2559C8.99564 10.1616 8.92707 10.0716 8.83707 10.0716H8.56707C8.54083 10.0707 8.51585 10.0601 8.49689 10.0419C8.47793 10.0238 8.4663 9.99925 8.46422 9.97307L8.4685 9.9345L8.90564 8.2245C8.91048 8.20179 8.92285 8.18139 8.94074 8.1666C8.95864 8.15182 8.98101 8.14353 9.00422 8.14307H12.1885Z" fill="white"/>
<path d="M13.157 11.143C13.2813 11.143 13.3413 11.3015 13.2556 11.3915L10.4699 14.323C10.4436 14.3492 10.4282 14.3844 10.427 14.4215C10.427 14.4987 10.4827 14.5715 10.5685 14.5715H13.2256C13.2599 14.5715 13.2942 14.5587 13.3199 14.5287L14.417 13.4444C14.4599 13.4015 14.4942 13.3458 14.5113 13.2815L14.7899 12.2744C14.8413 12.103 15.0556 12.0601 15.1542 12.2058L15.2399 12.3215C15.2659 12.3584 15.2833 12.4007 15.2907 12.4452C15.2981 12.4897 15.2954 12.5353 15.2827 12.5787L14.9999 13.6801C14.9825 13.7436 14.9485 13.8013 14.9013 13.8472L13.7613 14.9358C13.7239 14.9737 13.6731 14.9953 13.6199 14.9958H8.15559C8.07845 14.9958 8.00988 15.0387 7.97131 15.1072C7.92845 15.193 7.93702 15.2701 8.00131 15.343L8.33988 15.8144C8.36559 15.8358 8.39559 15.853 8.43416 15.853H14.4342C14.4727 15.853 14.507 15.8358 14.5327 15.8101L15.6385 14.6101C15.6791 14.5648 15.7085 14.5104 15.7242 14.4515L16.0456 13.2258C16.0524 13.2013 16.0527 13.1754 16.0468 13.1507C16.0408 13.1259 16.0286 13.1031 16.0113 13.0844L15.5742 12.643C15.5488 12.6148 15.535 12.578 15.5356 12.5401C15.5356 12.5015 15.5485 12.4672 15.5785 12.4372L16.4356 11.5501C16.4785 11.5072 16.5127 11.4472 16.5256 11.3872L16.7056 10.7015C16.7159 10.6644 16.7166 10.6252 16.7076 10.5877C16.6986 10.5502 16.6802 10.5157 16.6542 10.4872L16.3113 10.123C16.1527 9.9601 15.8827 10.0458 15.8399 10.273L15.7885 10.5644C15.7769 10.6192 15.7501 10.6697 15.7113 10.7101L14.837 11.5672C14.8245 11.5817 14.8091 11.5934 14.7917 11.6014C14.7743 11.6093 14.7554 11.6135 14.7363 11.6135C14.7172 11.6135 14.6983 11.6093 14.6809 11.6014C14.6635 11.5934 14.6481 11.5817 14.6356 11.5672L14.4127 11.3101C14.3871 11.2817 14.3733 11.2446 14.374 11.2064C14.3748 11.1682 14.3902 11.1317 14.417 11.1044L15.2527 10.3201C15.2956 10.2772 15.3299 10.2172 15.347 10.1487L15.5227 9.4501C15.5323 9.41358 15.5326 9.37525 15.5236 9.33859C15.5146 9.30192 15.4967 9.26807 15.4713 9.2401L14.4556 8.16867C14.446 8.15913 14.4347 8.15157 14.4222 8.14642C14.4097 8.14127 14.3963 8.13864 14.3827 8.13867H12.8313C12.767 8.13867 12.7113 8.18153 12.6985 8.24582L12.017 10.9544C11.9956 11.0487 12.0599 11.1387 12.1499 11.1387H13.157V11.143Z" fill="white"/>
</g>
<defs>
<linearGradient id="paint0_linear_31_7470" x1="12.0001" y1="6.13293" x2="12.0001" y2="19.2858" gradientUnits="userSpaceOnUse">
<stop stop-color="#DD4076"/>
<stop offset="0.52" stop-color="#AF3466"/>
<stop offset="1" stop-color="#471840"/>
</linearGradient>
<linearGradient id="paint1_linear_31_7470" x1="12.0001" y1="4.71436" x2="12.0001" y2="19.2858" gradientUnits="userSpaceOnUse">
<stop stop-color="#F42776"/>
<stop offset="1" stop-color="#E92776"/>
</linearGradient>
<clipPath id="clip0_31_7470">
<rect width="24" height="24" fill="white"/>
</clipPath>
</defs>
</svg>
