<svg xmlns="http://www.w3.org/2000/svg" width="24" height="24" fill="none" viewBox="0 0 24 24"><g clip-path="url(#a)"><path fill="url(#b)" d="M0 0h24v24H0z"/><path fill="#F6B744" fill-rule="evenodd" d="M4.234 12.909a1.286 1.286 0 0 1 0-1.817l6.858-6.858a1.285 1.285 0 0 1 1.817 0l6.857 6.858a1.285 1.285 0 0 1 0 1.817l-6.857 6.857a1.286 1.286 0 0 1-1.817 0zm3.502-1.552c-.094-.921.591-2.773 4.071-2.811 4.196-.043 4.393 2.014 4.462 2.734l.008.077c0 .035-.068.103-.351.103-.279 0-.87-.128-1.132-.193-.068-.094-.248-.287-.415-.317-.155-.03-.245.099-.3.18-.03.034-.043.06-.06.06l-.172-.008c-.488-.03-1.911-.129-3.355.008-.013-.154-.116-.463-.455-.441-.334.021-.493.334-.531.488a12 12 0 0 0-1.77.12m1.723-2.031c.043.047.154.116.291 0 .154-.137.094-.214.069-.24v-.004c-.022-.022-.257-.073-.309 0-.051.072-.073.128-.051.244m1.23-.09c.077.163-.017.253-.077.278a.26.26 0 0 1-.219-.115c-.056-.069.056-.283.081-.292h.005v-.004c.034-.017.12-.056.214.129zm1.045.103c.06.034.215.068.339-.095.146-.184.056-.24.017-.257l-.004-.008c-.026-.017-.317.008-.36.098-.039.086-.052.15.008.257zm1.192-.365c-.129.163-.279.129-.339.09-.06-.107-.043-.171-.004-.257.039-.094.33-.115.356-.098h.008c.035.025.129.077-.021.265m.257.519c.073 0 .214-.056.231-.257.022-.24-.085-.236-.128-.236-.03 0-.262.18-.244.279.012.098.034.154.145.214zm1.054-.411c.206.025.257.171.253.24-.064.107-.124.128-.218.141-.099.013-.27-.227-.27-.257v-.009c0-.043 0-.145.235-.115m-3.197.038c.056.043.21.099.369-.038.188-.159.103-.223.068-.249l-.004-.004c-.026-.022-.334-.043-.394.043-.056.077-.086.132-.039.248m-3.163 3.694c1.847.185 6.069.412 8.195-.171.051-.017.154 0 .137.171-.017.206-1.192.665-4.487.6l-1.209-.025c-2.22-.043-2.614-.052-2.713-.155-.111-.12 0-.36.082-.42zm2.512.913c-.455.009-1.852-.068-2.495-.111-.205-.013-.141.313-.085.471.223.853 1.26 1.436 4.38 1.402 3.038-.039 3.63-.943 3.908-1.367l.022-.03a.523.523 0 0 0-.069-.699c-.446.257-3.021.377-4.256.399-.171.197-.587.587-.827.587s-.484-.433-.578-.652m-3.15-1.534c-.026-.043 0-.18.287-.351.364-.219 6.54-.785 9.116.107.107.051.214.214-.232.458-.33-.188-1.024-.544-1.148-.458l-.112.085c-.098.086-.184.159-.347.159a.5.5 0 0 1-.257-.086c-.086-.047-.163-.09-.274-.085-.095.004-.193.064-.3.12-.138.081-.283.162-.416.12a.8.8 0 0 1-.227-.138c-.142-.107-.283-.214-.459-.102a1.5 1.5 0 0 0-.18.132c-.081.069-.103.086-.231.039-.082-.03-.137-.094-.193-.15-.077-.086-.15-.159-.257-.107l-.129.068c-.128.078-.257.15-.471.133-.142-.008-.24-.068-.33-.12-.086-.055-.163-.098-.257-.085-.073.017-.18.09-.3.175-.189.142-.425.305-.626.283a.9.9 0 0 1-.36-.15c-.129-.077-.24-.146-.386-.103-.107.035-.171.077-.231.116-.086.051-.142.086-.257.051a.8.8 0 0 1-.198-.12c-.107-.085-.205-.158-.334-.115-.09.03-.197.085-.296.145-.128.069-.24.129-.308.129-.12 0-.287-.081-.287-.15" clip-rule="evenodd"/></g><defs><linearGradient id="b" x1="4.466" x2="29.207" y1="4.161" y2="32.58" gradientUnits="userSpaceOnUse"><stop stop-color="#1A1E21"/><stop offset="1" stop-color="#06060A"/></linearGradient><clipPath id="a"><path fill="#fff" d="M0 0h24v24H0z"/></clipPath></defs></svg>