<svg xmlns="http://www.w3.org/2000/svg" width="24" height="24" fill="none" viewBox="0 0 24 24"><g clip-path="url(#a)"><path fill="#F0F3FA" d="M0 0h24v24H0z"/><path fill="#D66700" d="m14.143 5.674 1.714-.96 1.714.969v1.929l-1.714.96-.004-.01-1.71-.96zM8.357 18l-3.214-1.714v-3.429l3.214-1.714 3.214 1.714v3.429zm10.5-5.143-3.214-1.714-3.215 1.714v3.429L15.644 18l3.214-1.714zM9 6.96l2.996-1.607 1.29.647v1.89L15 9v1.17l-3 1.607-3-1.607V6.956z"/></g><defs><clipPath id="a"><path fill="#fff" d="M0 0h24v24H0z"/></clipPath></defs></svg>