<svg width="24" height="24" viewBox="0 0 24 24" fill="none" xmlns="http://www.w3.org/2000/svg">
<g clip-path="url(#clip0_31_7666)">
<path d="M0 0H24V24H0V0Z" fill="#F0F3FA"/>
<path d="M12.0001 19.2858C16.0239 19.2858 19.2858 16.0239 19.2858 12.0001C19.2858 7.97628 16.0239 4.71436 12.0001 4.71436C7.97628 4.71436 4.71436 7.97628 4.71436 12.0001C4.71436 16.0239 7.97628 19.2858 12.0001 19.2858Z" fill="url(#paint0_linear_31_7666)"/>
<path d="M12 17.1426C14.8404 17.1426 17.1429 14.8401 17.1429 11.9998C17.1429 9.15947 14.8404 6.85693 12 6.85693C9.15971 6.85693 6.85718 9.15947 6.85718 11.9998C6.85718 14.8401 9.15971 17.1426 12 17.1426Z" fill="url(#paint1_linear_31_7666)"/>
<path d="M19.2601 11.3916C19.093 11.6487 18.6644 12.1287 18.463 12.3473H17.8201L17.7258 12.2916H16.4572L16.423 12.2059L16.2172 12.3473H15.0687L14.833 12.3901C14.3444 12.433 13.2901 12.5701 12.9858 12.7587L13.0715 12.7544C13.513 12.7373 15.0558 12.6773 15.7287 13.783H15.5744C15.8444 14.0059 16.3887 14.6187 16.3801 15.3301H16.2644C16.3758 15.5144 16.5987 16.0116 16.5987 16.5301C16.5987 17.0444 16.453 17.3444 16.3801 17.4301L16.2644 17.323C16.1358 17.5759 15.8401 18.0344 15.4887 18.3944C15.3172 18.4887 15.1372 18.5787 14.953 18.6601C14.9358 18.3859 14.8758 17.9487 14.8415 17.7259L14.9615 17.6144C14.8742 17.4973 14.8128 17.3629 14.7815 17.2201C14.7215 17.0016 14.383 16.3716 14.2201 16.0844V15.883L14.0701 16.0201C13.9758 15.7801 13.7315 15.2144 13.4915 14.8673C13.3972 14.7473 13.3887 14.6016 13.3972 14.5459C13.3844 14.623 13.3544 14.773 13.3158 14.7387C13.1429 14.5774 12.9715 14.4145 12.8015 14.2501C12.8144 14.0359 12.7287 13.513 12.313 13.1059L12.3172 13.2773C12.343 14.0359 12.4115 16.033 10.2258 19.0716C9.60744 18.9163 9.01229 18.6799 8.45581 18.3687C10.079 17.0345 11.2238 15.2082 11.7172 13.1659C11.7172 13.0587 11.803 12.943 11.8501 12.8959C11.6272 12.8744 11.0101 13.0459 10.3201 13.8816L10.2344 13.9887C10.1744 13.9201 10.0587 13.7444 10.0715 13.5516C9.92959 13.7325 9.83529 13.9462 9.79724 14.173C9.66867 14.2587 9.17153 14.6273 9.08153 14.8459C9.00256 14.6887 8.93662 14.5253 8.88439 14.3573C8.86296 14.473 8.82867 14.743 8.83296 14.9016L7.99724 15.4587C7.95746 15.3122 7.94582 15.1595 7.96296 15.0087C7.87724 15.1373 7.84296 15.4116 7.83867 15.5316C7.55582 15.643 6.94296 15.9301 6.73724 16.1916C6.54897 15.9175 6.45564 15.5894 6.47153 15.2573C6.47153 14.7859 6.53153 14.0144 7.52153 12.8959C7.96938 12.3903 8.5522 12.0231 9.20153 11.8373C9.20153 11.7601 9.23581 11.6316 9.25296 11.5801L8.88439 11.8373L8.14296 11.743L7.72296 12.043L7.27296 11.9873L6.88724 12.3301L6.02153 12.373L5.87153 12.4673L5.13867 12.4073C5.44724 11.6401 6.5101 10.1101 8.3101 10.1101C9.0308 10.1056 9.74062 10.2861 10.3717 10.6342C11.0027 10.9824 11.5339 11.4866 11.9144 12.0987C11.7785 11.6909 11.5913 11.3021 11.3572 10.9416L11.473 10.7744H11.293C11.1105 10.3615 10.8091 10.0124 10.4272 9.77157V9.45014L10.3201 9.54443C9.92093 9.19433 9.46419 8.91594 8.9701 8.72157V8.39585L8.81581 8.52442C8.53853 8.32048 8.20802 8.20138 7.86439 8.18157C7.86439 8.01871 7.80439 7.723 7.77867 7.59442L7.67153 7.753C7.32033 7.46627 6.88203 7.30758 6.42867 7.303C7.07144 6.75671 7.88249 6.44803 8.72582 6.42871C9.49296 6.42871 10.1487 6.703 10.3844 6.84443V6.673C10.8644 6.94728 11.833 7.62443 11.8801 8.113H12.0215C12.2444 8.39585 12.7115 9.09871 12.8101 9.68157C12.8101 9.71585 12.7372 9.81443 12.703 9.86157C12.763 9.913 12.883 10.0887 12.883 10.393C12.883 10.6973 12.8358 10.9587 12.8101 11.0487C13.0158 10.8044 13.5087 10.2901 13.8344 10.1916C13.8858 10.2259 13.9115 10.2987 13.9201 10.3287C14.1172 10.1273 14.7515 9.72871 15.733 9.72871V9.86157C16.0201 9.793 16.843 9.76728 17.8158 10.2344V10.4059C18.103 10.483 18.7844 10.7701 19.2558 11.3101L19.2601 11.3916Z" fill="#F0F3FA"/>
</g>
<defs>
<linearGradient id="paint0_linear_31_7666" x1="12.0001" y1="4.71436" x2="12.0001" y2="19.2858" gradientUnits="userSpaceOnUse">
<stop stop-color="#C16EE0"/>
<stop offset="1" stop-color="#5026A4"/>
</linearGradient>
<linearGradient id="paint1_linear_31_7666" x1="12" y1="6.85693" x2="12" y2="17.1426" gradientUnits="userSpaceOnUse">
<stop stop-color="#914AC4"/>
<stop offset="1" stop-color="#442281"/>
</linearGradient>
<clipPath id="clip0_31_7666">
<rect width="24" height="24" fill="white"/>
</clipPath>
</defs>
</svg>
