<svg xmlns="http://www.w3.org/2000/svg" width="24" height="24" fill="none" viewBox="0 0 24 24"><g clip-path="url(#a)"><path fill="#F0F3FA" d="M0 0h24v24H0z"/><path fill="#000" d="M12 15a3 3 0 1 0 0-6 3 3 0 0 0 0 6"/><path fill="#000" d="M14.143 7.311a5.156 5.156 0 0 0-7.286 4.668c0 2.85 2.344 5.164 5.186 5.164.75 0 1.457-.167 2.1-.454v2.288a7.333 7.333 0 0 1-9.429-6.998 7.3 7.3 0 0 1 9.429-6.956zm4.5 7.676h-2.465a5.14 5.14 0 0 0 0-6.017h2.46a7.3 7.3 0 0 1 0 6.017z"/></g><defs><clipPath id="a"><path fill="#fff" d="M0 0h24v24H0z"/></clipPath></defs></svg>