<svg width="24" height="24" viewBox="0 0 24 24" fill="none" xmlns="http://www.w3.org/2000/svg">
<g clip-path="url(#clip0_31_8113)">
<path d="M0 0H24V24H0V0Z" fill="url(#paint0_linear_31_8113)"/>
<path d="M7.9928 17.9999C7.68423 17.9999 7.42709 17.747 7.42709 17.4427C7.42709 17.2927 7.48669 17.1488 7.59278 17.0427C7.69888 16.9366 7.84277 16.877 7.9928 16.877C8.14284 16.877 8.28673 16.9366 8.39283 17.0427C8.49892 17.1488 8.55852 17.2927 8.55852 17.4427C8.55852 17.747 8.30138 17.9999 7.9928 17.9999ZM12.6257 17.2927C12.6257 17.1427 12.6853 16.9988 12.7914 16.8927C12.8974 16.7866 13.0413 16.727 13.1914 16.727C13.3414 16.727 13.4853 16.7866 13.5914 16.8927C13.6975 16.9988 13.7571 17.1427 13.7571 17.2927C13.7571 17.4428 13.6975 17.5867 13.5914 17.6928C13.4853 17.7989 13.3414 17.8585 13.1914 17.8585C13.0413 17.8585 12.8974 17.7989 12.7914 17.6928C12.6853 17.5867 12.6257 17.4428 12.6257 17.2927ZM14.7342 16.9199V16.8942C14.7376 16.764 14.7926 16.6406 14.8871 16.551C14.9815 16.4613 15.1077 16.4129 15.2378 16.4163C15.368 16.4197 15.4914 16.4747 15.581 16.5691C15.6706 16.6636 15.7191 16.7897 15.7157 16.9199C15.7157 17.177 15.5014 17.3913 15.2442 17.4042H15.2228C14.9571 17.4042 14.7385 17.1856 14.7385 16.9199H14.7342ZM9.41995 16.5856C9.03423 16.5856 8.70852 16.2642 8.70852 15.8742C8.70852 15.6844 8.78392 15.5023 8.91815 15.3681C9.05237 15.2339 9.23441 15.1585 9.42423 15.1585C9.61405 15.1585 9.7961 15.2339 9.93032 15.3681C10.0645 15.5023 10.1399 15.6844 10.1399 15.8742C10.1399 16.2642 9.81852 16.5856 9.42423 16.5856H9.41995ZM6.74995 16.3585C6.58466 16.353 6.42786 16.284 6.31212 16.1659C6.19639 16.0477 6.13063 15.8895 6.12852 15.7242C6.14169 15.5633 6.2149 15.4133 6.3336 15.3039C6.45231 15.1945 6.60782 15.1338 6.76923 15.1338C6.93065 15.1338 7.08616 15.1945 7.20487 15.3039C7.32357 15.4133 7.39678 15.5633 7.40995 15.7242C7.40884 15.8093 7.39083 15.8934 7.35695 15.9716C7.32307 16.0497 7.274 16.1203 7.21259 16.1793C7.15119 16.2384 7.07867 16.2846 6.99925 16.3153C6.91982 16.3461 6.83508 16.3607 6.74995 16.3585ZM16.8857 16.2856C16.7761 16.2856 16.6711 16.2424 16.5932 16.1654C16.5154 16.0883 16.4711 15.9837 16.4699 15.8742C16.4804 15.7718 16.5285 15.6768 16.6049 15.6078C16.6813 15.5388 16.7806 15.5006 16.8835 15.5006C16.9865 15.5006 17.0858 15.5388 17.1622 15.6078C17.2386 15.6768 17.2867 15.7718 17.2971 15.8742C17.2971 16.1013 17.1128 16.2856 16.8857 16.2856ZM7.57709 13.937C7.57709 13.7268 7.66062 13.5251 7.80931 13.3764C7.958 13.2277 8.15967 13.1442 8.36995 13.1442C8.58023 13.1442 8.78189 13.2277 8.93058 13.3764C9.07927 13.5251 9.1628 13.7268 9.1628 13.937C9.1628 14.1473 9.07927 14.349 8.93058 14.4977C8.78189 14.6464 8.58023 14.7299 8.36995 14.7299C8.15967 14.7299 7.958 14.6464 7.80931 14.4977C7.66062 14.349 7.57709 14.1473 7.57709 13.937ZM17.7514 14.3099C17.7514 14.2201 17.787 14.134 17.8505 14.0705C17.914 14.007 18.0002 13.9713 18.0899 13.9713C18.1797 13.9713 18.2659 14.007 18.3294 14.0705C18.3928 14.134 18.4285 14.2201 18.4285 14.3099C18.4157 14.3904 18.3745 14.4638 18.3125 14.5167C18.2504 14.5696 18.1715 14.5987 18.0899 14.5987C18.0084 14.5987 17.9295 14.5696 17.8674 14.5167C17.8054 14.4638 17.7642 14.3904 17.7514 14.3099ZM5.95709 14.5713C5.56709 14.5713 5.24138 14.2499 5.24138 13.8642C5.24138 13.6744 5.31678 13.4923 5.451 13.3581C5.58523 13.2239 5.76727 13.1485 5.95709 13.1485C6.14691 13.1485 6.32895 13.2239 6.46318 13.3581C6.5974 13.4923 6.6728 13.6744 6.6728 13.8642C6.6728 14.2499 6.35138 14.5713 5.95709 14.5713ZM6.97709 11.8499C6.97709 11.6203 7.0683 11.4001 7.23065 11.2377C7.39301 11.0754 7.6132 10.9842 7.8428 10.9842C8.07241 10.9842 8.2926 11.0754 8.45496 11.2377C8.61731 11.4001 8.70852 11.6203 8.70852 11.8499C8.70852 12.0795 8.61731 12.2997 8.45496 12.462C8.2926 12.6244 8.07241 12.7156 7.8428 12.7156C7.6132 12.7156 7.39301 12.6244 7.23065 12.462C7.0683 12.2997 6.97709 12.0795 6.97709 11.8499ZM4.71423 11.8499C4.71423 11.6396 4.79777 11.4379 4.94646 11.2893C5.09515 11.1406 5.29681 11.057 5.50709 11.057C5.71737 11.057 5.91904 11.1406 6.06773 11.2893C6.21641 11.4379 6.29995 11.6396 6.29995 11.8499C6.29995 12.0602 6.21641 12.2618 6.06773 12.4105C5.91904 12.5592 5.71737 12.6427 5.50709 12.6427C5.29681 12.6427 5.09515 12.5592 4.94646 12.4105C4.79777 12.2618 4.71423 12.0602 4.71423 11.8499ZM7.57709 9.76275C7.57709 9.55247 7.66062 9.3508 7.80931 9.20211C7.958 9.05342 8.15967 8.96989 8.36995 8.96989C8.58023 8.96989 8.78189 9.05342 8.93058 9.20211C9.07927 9.3508 9.1628 9.55247 9.1628 9.76275C9.1628 9.97303 9.07927 10.1747 8.93058 10.3234C8.78189 10.4721 8.58023 10.5556 8.36995 10.5556C8.15967 10.5556 7.958 10.4721 7.80931 10.3234C7.66062 10.1747 7.57709 9.97303 7.57709 9.76275ZM5.95709 10.547C5.56709 10.547 5.24138 10.2256 5.24138 9.83989C5.24138 9.65007 5.31678 9.46803 5.451 9.3338C5.58523 9.19958 5.76727 9.12418 5.95709 9.12418C6.14691 9.12418 6.32895 9.19958 6.46318 9.3338C6.5974 9.46803 6.6728 9.65007 6.6728 9.83989C6.6728 10.2256 6.35138 10.547 5.95709 10.547ZM17.7471 9.76275C17.7565 9.67897 17.7964 9.6016 17.8593 9.54541C17.9222 9.48922 18.0035 9.45816 18.0878 9.45816C18.1721 9.45816 18.2535 9.48922 18.3163 9.54541C18.3792 9.6016 18.4191 9.67897 18.4285 9.76275C18.4157 9.84329 18.3745 9.91662 18.3125 9.96955C18.2504 10.0225 18.1715 10.0516 18.0899 10.0516C18.0084 10.0516 17.9295 10.0225 17.8674 9.96955C17.8054 9.91662 17.7642 9.84329 17.7514 9.76275H17.7471ZM9.42852 8.75989C9.03423 8.75989 8.7128 8.43846 8.7128 8.04846C8.7128 7.85864 8.78821 7.6766 8.92243 7.54238C9.05666 7.40815 9.2387 7.33275 9.42852 7.33275C9.61834 7.33275 9.80038 7.40815 9.93461 7.54238C10.0688 7.6766 10.1442 7.85864 10.1442 8.04846C10.1442 8.43418 9.8228 8.75989 9.42852 8.75989ZM6.75423 8.68275C6.58895 8.67725 6.43214 8.60827 6.31641 8.49014C6.20068 8.37201 6.13492 8.21382 6.13281 8.04846C6.14597 7.88758 6.21918 7.73755 6.33789 7.62816C6.45659 7.51878 6.6121 7.45805 6.77352 7.45805C6.93494 7.45805 7.09045 7.51878 7.20915 7.62816C7.32785 7.73755 7.40106 7.88758 7.41423 8.04846C7.41313 8.13362 7.39511 8.21771 7.36123 8.29585C7.32735 8.37399 7.27829 8.44462 7.21688 8.50363C7.15547 8.56264 7.08295 8.60887 7.00353 8.63962C6.92411 8.67037 6.83937 8.68503 6.75423 8.68275ZM16.8899 8.60989C16.7804 8.6099 16.6753 8.56669 16.5975 8.48965C16.5197 8.41261 16.4754 8.30797 16.4742 8.19846C16.4847 8.09604 16.5327 8.00113 16.6092 7.93212C16.6856 7.86311 16.7848 7.8249 16.8878 7.8249C16.9908 7.8249 17.0901 7.86311 17.1665 7.93212C17.2429 8.00113 17.2909 8.09604 17.3014 8.19846C17.3014 8.42561 17.1171 8.60989 16.8899 8.60989ZM14.7428 7.07989V7.05418C14.7445 6.9246 14.7976 6.80101 14.8904 6.71059C14.9364 6.66582 14.9907 6.63054 15.0503 6.60676C15.1099 6.58299 15.1736 6.57119 15.2378 6.57203C15.302 6.57288 15.3653 6.58635 15.4243 6.61168C15.4832 6.63702 15.5366 6.67371 15.5814 6.71968C15.6262 6.76564 15.6614 6.81998 15.6852 6.87958C15.709 6.93918 15.7208 7.00287 15.7199 7.06703C15.7208 7.13119 15.709 7.19489 15.6852 7.25449C15.6614 7.31409 15.6262 7.36842 15.5814 7.41439C15.491 7.50722 15.3674 7.56033 15.2378 7.56203C15.1736 7.56288 15.1099 7.55108 15.0503 7.5273C14.9907 7.50353 14.9364 7.46825 14.8904 7.42348C14.7976 7.33306 14.7445 7.20947 14.7428 7.07989ZM12.6299 6.77989C12.6299 6.62985 12.6895 6.48596 12.7956 6.37987C12.9017 6.27378 13.0456 6.21418 13.1957 6.21418C13.3457 6.21418 13.4896 6.27378 13.5957 6.37987C13.7018 6.48596 13.7614 6.62985 13.7614 6.77989C13.7614 6.92993 13.7018 7.07382 13.5957 7.17991C13.4896 7.286 13.3457 7.34561 13.1957 7.34561C13.0456 7.34561 12.9017 7.286 12.7956 7.17991C12.6895 7.07382 12.6299 6.92993 12.6299 6.77989ZM7.99709 7.11846C7.68852 7.11846 7.43138 6.86561 7.43138 6.56132C7.43138 6.41128 7.49098 6.26739 7.59707 6.1613C7.70316 6.05521 7.84705 5.99561 7.99709 5.99561C8.14713 5.99561 8.29102 6.05521 8.39711 6.1613C8.5032 6.26739 8.5628 6.41128 8.5628 6.56132C8.5628 6.86561 8.30566 7.11846 7.99709 7.11846ZM11.9999 16.9285C11.9999 17.099 11.9322 17.2625 11.8117 17.383C11.6911 17.5036 11.5276 17.5713 11.3571 17.5713C11.1866 17.5713 11.0231 17.5036 10.9025 17.383C10.782 17.2625 10.7142 17.099 10.7142 16.9285C10.7142 16.758 10.782 16.5945 10.9025 16.4739C11.0231 16.3533 11.1866 16.2856 11.3571 16.2856C11.5276 16.2856 11.6911 16.3533 11.8117 16.4739C11.9322 16.5945 11.9999 16.758 11.9999 16.9285ZM10.9285 14.5713C11.099 14.5713 11.2625 14.5036 11.3831 14.383C11.5036 14.2625 11.5714 14.099 11.5714 13.9285C11.5714 13.758 11.5036 13.5945 11.3831 13.4739C11.2625 13.3533 11.099 13.2856 10.9285 13.2856C10.758 13.2856 10.5945 13.3533 10.474 13.4739C10.3534 13.5945 10.2857 13.758 10.2857 13.9285C10.2857 14.099 10.3534 14.2625 10.474 14.383C10.5945 14.5036 10.758 14.5713 10.9285 14.5713ZM10.7142 11.7856C10.7142 11.87 10.6976 11.9536 10.6653 12.0316C10.633 12.1096 10.5856 12.1805 10.5259 12.2402C10.4662 12.2999 10.3954 12.3472 10.3174 12.3795C10.2394 12.4118 10.1558 12.4285 10.0714 12.4285C9.98696 12.4285 9.90336 12.4118 9.82537 12.3795C9.74737 12.3472 9.6765 12.2999 9.61681 12.2402C9.55711 12.1805 9.50976 12.1096 9.47745 12.0316C9.44515 11.9536 9.42852 11.87 9.42852 11.7856C9.42852 11.6151 9.49625 11.4516 9.61681 11.331C9.73737 11.2105 9.90088 11.1427 10.0714 11.1427C10.2419 11.1427 10.4054 11.2105 10.5259 11.331C10.6465 11.4516 10.7142 11.6151 10.7142 11.7856ZM10.9285 10.2856C11.099 10.2856 11.2625 10.2179 11.3831 10.0973C11.5036 9.97676 11.5714 9.81324 11.5714 9.64275C11.5714 9.47225 11.5036 9.30874 11.3831 9.18818C11.2625 9.06762 11.099 8.99989 10.9285 8.99989C10.758 8.99989 10.5945 9.06762 10.474 9.18818C10.3534 9.30874 10.2857 9.47225 10.2857 9.64275C10.2857 9.81324 10.3534 9.97676 10.474 10.0973C10.5945 10.2179 10.758 10.2856 10.9285 10.2856ZM12.8571 11.7856C12.8571 11.9561 12.7894 12.1196 12.6688 12.2402C12.5482 12.3607 12.3847 12.4285 12.2142 12.4285C12.0437 12.4285 11.8802 12.3607 11.7597 12.2402C11.6391 12.1196 11.5714 11.9561 11.5714 11.7856C11.5714 11.6151 11.6391 11.4516 11.7597 11.331C11.8802 11.2105 12.0437 11.1427 12.2142 11.1427C12.3847 11.1427 12.5482 11.2105 12.6688 11.331C12.7894 11.4516 12.8571 11.6151 12.8571 11.7856ZM11.3571 7.71418C11.5276 7.71418 11.6911 7.64645 11.8117 7.52589C11.9322 7.40533 11.9999 7.24182 11.9999 7.07132C11.9999 6.90082 11.9322 6.73731 11.8117 6.61675C11.6911 6.49619 11.5276 6.42846 11.3571 6.42846C11.1866 6.42846 11.0231 6.49619 10.9025 6.61675C10.782 6.73731 10.7142 6.90082 10.7142 7.07132C10.7142 7.24182 10.782 7.40533 10.9025 7.52589C11.0231 7.64645 11.1866 7.71418 11.3571 7.71418Z" fill="url(#paint1_linear_31_8113)"/>
</g>
<defs>
<linearGradient id="paint0_linear_31_8113" x1="4.46571" y1="4.16143" x2="29.2071" y2="32.58" gradientUnits="userSpaceOnUse">
<stop stop-color="#1A1E21"/>
<stop offset="1" stop-color="#06060A"/>
</linearGradient>
<linearGradient id="paint1_linear_31_8113" x1="4.71423" y1="17.9999" x2="18.3085" y2="6.82703" gradientUnits="userSpaceOnUse">
<stop stop-color="#964BFF"/>
<stop offset="0.37" stop-color="#A695FF"/>
<stop offset="0.65" stop-color="#3CE9FF"/>
<stop offset="0.86" stop-color="#CAFF2C"/>
<stop offset="1" stop-color="#FFFF21"/>
</linearGradient>
<clipPath id="clip0_31_8113">
<rect width="24" height="24" fill="white"/>
</clipPath>
</defs>
</svg>
