<svg xmlns="http://www.w3.org/2000/svg" width="24" height="24" fill="none" viewBox="0 0 24 24"><g clip-path="url(#a)"><path fill="url(#b)" d="M0 0h24v24H0z"/><path fill="#FFB0C2" d="M14.803 14.143c-.514.994-1.543 1.714-2.717 1.714-1.843 0-3.099-1.294-3.086-3.197s1.226-3.231 3.086-3.231a3.11 3.11 0 0 1 2.717 1.714H18c-.643-2.73-3.043-4.714-5.914-4.714C8.726 6.429 6 9.214 6 12.643s2.726 6.214 6.086 6.214c2.863 0 5.263-1.997 5.914-4.714z"/><path fill="#CC91F0" d="M16.843 8.777A3.14 3.14 0 0 0 18 6.412a2.99 2.99 0 0 0-3-2.983c-1.654 0-3 1.354-3 3h.171c1.912 0 3.57.943 4.672 2.348"/><path fill="#CB65B7" d="M15.004 9.39c.72 0 1.325-.201 1.839-.617a5.89 5.89 0 0 0-4.672-2.344H12a2.983 2.983 0 0 0 3 2.961z"/></g><defs><linearGradient id="b" x1="4.466" x2="29.207" y1="4.161" y2="32.58" gradientUnits="userSpaceOnUse"><stop stop-color="#1A1E21"/><stop offset="1" stop-color="#06060A"/></linearGradient><clipPath id="a"><path fill="#fff" d="M0 0h24v24H0z"/></clipPath></defs></svg>