<svg width="24" height="24" viewBox="0 0 24 24" fill="none" xmlns="http://www.w3.org/2000/svg">
<g clip-path="url(#clip0_31_8402)">
<path d="M0 0H24V24H0V0Z" fill="url(#paint0_linear_31_8402)"/>
<path d="M11.8544 4.71436L18.0001 8.28007L15.1972 11.9529L17.8587 15.8015L11.8544 19.2858L5.57153 15.6429V8.35721L11.8544 4.71436ZM12.4287 16.7144C13.5472 16.7144 14.5758 16.3244 15.3858 15.6729L14.593 14.3872C14.0226 14.7896 13.3409 15.0038 12.643 15.0001C10.8687 15.0001 9.42868 13.6586 9.42868 12.0001C9.42868 10.3415 10.8687 9.00007 12.643 9.00007C13.3287 9.00007 13.963 9.2015 14.4858 9.54007L15.2572 8.22864C14.6597 7.78045 13.9641 7.48068 13.2279 7.35403C12.4918 7.22739 11.736 7.27749 11.023 7.50022C10.31 7.72295 9.66014 8.11192 9.12695 8.63509C8.59377 9.15825 8.19253 9.80063 7.95631 10.5093C7.72009 11.2179 7.65566 11.9726 7.76831 12.711C7.88096 13.4495 8.16748 14.1506 8.60425 14.7566C9.04102 15.3625 9.61554 15.8561 10.2805 16.1965C10.9454 16.5368 11.6817 16.7144 12.4287 16.7144Z" fill="#1FA4FF"/>
</g>
<defs>
<linearGradient id="paint0_linear_31_8402" x1="4.46571" y1="4.16143" x2="29.2071" y2="32.58" gradientUnits="userSpaceOnUse">
<stop stop-color="#1A1E21"/>
<stop offset="1" stop-color="#06060A"/>
</linearGradient>
<clipPath id="clip0_31_8402">
<rect width="24" height="24" fill="white"/>
</clipPath>
</defs>
</svg>
