<svg width="24" height="24" viewBox="0 0 24 24" fill="none" xmlns="http://www.w3.org/2000/svg">
<g clip-path="url(#clip0_31_8541)">
<path d="M0 0H24V24H0V0Z" fill="#F0F3FA"/>
<path fill-rule="evenodd" clip-rule="evenodd" d="M2.57141 14.4299V13.6156C2.57141 13.1699 3.04713 12.8271 3.43284 12.8271C3.74141 12.8271 3.96855 12.9299 4.04141 12.9813L4.17855 12.8785C4.17855 12.6128 4.38855 12.4671 4.4957 12.4285C3.9557 11.9313 3.90855 11.0742 3.9557 10.7099C3.9557 8.92278 5.37855 8.78135 5.66141 8.78135C5.88427 8.78135 6.1457 8.87563 6.24855 8.92278C6.27427 8.8842 6.57855 8.86706 6.85713 9.11992C7.13141 9.37706 7.24284 9.67706 7.24284 10.1742C7.24284 10.5728 6.9857 10.7399 6.85713 10.7742C7.20855 10.8685 7.28998 11.1171 7.2857 11.2285L7.41427 9.9042C7.34602 9.75812 7.30257 9.6017 7.2857 9.44135C6.91713 8.85849 6.14998 7.64563 6.06427 7.46563C5.97855 7.28135 6.02998 7.18278 6.06427 7.15706C6.0265 7.09241 6.01427 7.01598 6.02998 6.94278C6.05141 6.85706 6.17141 6.85278 6.23141 6.85706L9.36855 8.28849L10.0028 9.28706C10.5814 9.26992 10.7657 9.62563 10.7828 9.80135L10.8686 9.9042L11.1471 9.31278L11.1171 9.1842C11.0957 9.11135 11.1514 8.79849 11.5886 8.79849C11.9357 8.79849 12.1543 8.99135 12.2186 9.08992L12.6643 9.82278C12.7328 9.3942 13.17 9.25706 13.3843 9.23992L13.8728 8.35706C14.7943 7.91563 16.6543 7.01992 16.7228 6.98135C16.8086 6.92992 16.9414 6.91706 17.01 6.98135C17.0657 7.03278 17.0314 7.19563 17.01 7.2642C17.0657 7.28135 17.0528 7.40563 17.04 7.46992L16.1357 9.23992C16.2386 9.35135 16.3071 9.56563 16.3243 9.65992V10.1056C16.3243 10.2985 16.1614 10.4571 16.08 10.5085C16.2 10.5771 16.4571 10.9156 16.4571 11.4085C16.4571 11.8028 16.3328 12.1328 16.2728 12.2442C16.35 12.2399 16.56 12.2913 16.6586 12.3171C16.6286 12.2528 16.6328 12.0171 16.6371 11.9099V9.7542C16.5343 9.56563 16.5686 9.41563 16.5986 9.36849L16.5686 9.17992C16.5686 8.94849 16.8171 8.87135 16.9414 8.86278C17.5286 8.86278 17.7214 9.3942 17.7471 9.65992V10.3456L18.4414 10.2042V9.73278C18.2657 9.6042 18.2871 9.38992 18.3214 9.3042C18.1928 8.94849 18.4928 8.80278 18.6643 8.77706C19.3928 8.77706 19.65 9.3642 19.68 9.65992V10.6542C19.68 11.2628 19.74 11.7513 19.77 11.9185C19.77 12.2785 19.71 12.4199 19.6843 12.4499C19.8043 12.4756 20.1386 12.5013 20.4857 12.4071C20.8286 12.3128 21.2143 12.2613 21.36 12.2485C22.2171 12.2485 22.3243 12.8485 22.2771 13.1485C22.2771 13.6499 21.7543 13.6842 21.4928 13.6413V14.9013C21.4928 15.4928 21.1457 15.5656 20.97 15.5271C20.4214 15.5271 20.3271 15.0128 20.3443 14.7556V13.7056C19.9157 13.7056 19.7228 13.5728 19.68 13.5085V14.4685C19.68 15.3856 18.8657 15.5571 18.4586 15.5271C17.2757 15.5271 17.0743 14.5842 17.1257 14.1085C16.6543 14.7085 16.0414 14.6828 15.7928 14.5928V14.8413L16.65 15.5613V16.0671L16.4057 16.3928C16.3628 16.4656 16.2471 16.6242 16.1186 16.6928C15.99 16.7528 15.8443 16.6799 15.7928 16.6371L14.4986 15.4799C14.49 15.5056 14.4086 15.5656 14.1128 15.5656C13.8214 15.5656 13.6586 15.3213 13.6114 15.2013C13.3757 15.5613 13.2043 15.5099 13.0328 15.4585C12.9728 15.4456 12.9128 15.4285 12.8571 15.4285C12.7543 15.4285 12.66 15.4456 12.5486 15.4628C12.4028 15.4885 12.2271 15.5185 11.9786 15.5185C11.6357 15.5185 11.4428 15.3042 11.3914 15.2013C11.3914 15.2571 11.28 15.4756 11.0571 15.4756C10.9586 15.4756 10.9286 15.4671 10.9028 15.4585C10.86 15.4456 10.8128 15.4285 10.5943 15.4285C10.3928 15.4285 10.2686 15.4542 10.1528 15.4756C10.05 15.4971 9.95141 15.5185 9.80998 15.5185C9.56141 15.5185 9.41998 15.4328 9.38141 15.3899L8.18141 16.5428H8.02284C7.69713 16.5428 7.57713 16.3713 7.55998 16.2899C7.29855 16.1356 7.35855 15.9042 7.41855 15.8142C7.3157 15.7071 7.3757 15.5442 7.41855 15.4756C7.08855 15.3856 6.88713 15.4285 6.68998 15.4713C6.5657 15.4971 6.4457 15.5228 6.2957 15.5142C5.90141 15.5013 5.57998 15.2313 5.57998 14.6228C5.57998 14.1342 5.61427 13.5985 5.63141 13.3928C5.58855 13.5299 5.41284 13.6113 5.33141 13.6371V13.8085C5.33141 13.9199 5.21998 13.9799 5.16855 13.9971V14.1342C5.2757 14.1342 5.32284 14.2156 5.33141 14.2542V14.9399C5.33141 15.0813 5.21998 15.1456 5.16855 15.1628H4.08427L4.01998 15.0771C3.87427 15.1971 3.62141 15.2271 3.51427 15.2313C3.28567 15.2386 3.06255 15.1606 2.88829 15.0125C2.71403 14.8643 2.60108 14.6567 2.57141 14.4299ZM6.49713 10.7571C6.38964 10.7286 6.29743 10.6594 6.23998 10.5642V10.5556C6.15427 10.4056 6.00427 10.1185 5.74284 10.1185C5.47713 10.1185 5.30141 10.3842 5.30141 10.7613C5.30141 11.1299 5.4557 11.4299 5.75998 11.4299C6.00427 11.4299 6.11998 11.2885 6.1457 11.2199C6.1457 11.0656 6.20998 10.7571 6.49713 10.7571ZM7.29427 11.7128C7.16041 12.0864 6.88699 12.3936 6.53141 12.5699C6.58713 12.6128 6.69427 12.8356 6.69427 13.3371V14.1428C6.77998 14.1128 7.01998 14.0442 7.32427 14.0442C7.62427 14.0442 7.80427 14.2371 7.8557 14.3356L7.95427 13.1656C7.87713 13.0799 7.74855 12.8785 7.8557 12.7499C7.66713 12.6685 7.29427 12.3471 7.29427 11.7128ZM8.60998 11.2413V10.6842L8.76427 10.7699C8.81998 11.0099 8.94855 11.1171 9.00427 11.1428L8.60998 11.2456V11.2413ZM12.8571 14.0656L12.3943 13.6071L12.42 14.2671C12.4414 14.1899 12.5614 14.0442 12.8571 14.0656ZM13.5771 12.8228L13.2686 12.5656C13.4143 12.4456 13.4228 12.1285 13.41 11.9871L13.6543 12.3342C13.4528 12.4199 13.5171 12.6942 13.5771 12.8228ZM17.7943 11.6656V12.3642C17.9357 12.4585 18.2143 12.7371 18.2143 13.1185V14.2671C18.2143 14.3099 18.24 14.4042 18.36 14.4042C18.4886 14.4042 18.5528 14.3142 18.5743 14.2671V13.2171L18.4286 12.9256V12.5699L18.4971 12.3642C18.408 12.1435 18.3615 11.9079 18.36 11.6699H17.7943V11.6656ZM10.8043 14.0656L11.2671 13.6071L11.2414 14.2671C11.2157 14.1899 11.1 14.0442 10.8043 14.0656Z" fill="black"/>
<path d="M3.49718 14.7685C3.93033 14.7685 4.28146 14.402 4.28146 13.9499C4.28146 13.4978 3.93033 13.1313 3.49718 13.1313C3.06403 13.1313 2.71289 13.4978 2.71289 13.9499C2.71289 14.402 3.06403 14.7685 3.49718 14.7685Z" fill="#40160E"/>
<path d="M8.50718 9.3987L6.18433 7.06299L9.2829 8.46442L8.50718 9.3987Z" fill="white"/>
<path d="M9.69863 10.3029L8.5072 9.39007L9.24863 8.46436L10.2086 9.82721L9.69863 10.3029Z" fill="url(#paint0_linear_31_8541)"/>
<path d="M7.90286 9.81849L6.19714 7.0542L8.49857 9.38991L9.68572 10.3028L9.33429 10.5599L7.90286 9.81849Z" fill="url(#paint1_linear_31_8541)"/>
<path d="M14.04 8.47705L13.4229 9.54848L13.5943 9.71562L14.2886 9.30848L14.8114 8.87991L14.04 8.47705Z" fill="url(#paint2_linear_31_8541)"/>
<path d="M14.8114 8.84981L14.7428 8.97838L15.7242 9.38981L16.8471 7.12695L15.0471 8.20695L14.8114 8.84981Z" fill="#454646"/>
<path d="M15.1457 10.0114L14.7686 10.2042C14.6943 10.1412 14.628 10.0692 14.5714 9.98996C14.8114 9.77567 15.0557 9.91282 15.1457 10.0114Z" fill="#594F46"/>
<path d="M14.8158 8.88019L14.0358 8.4859L16.8515 7.12305L15.3129 8.46019L15.1329 8.20733L15.2186 8.52876L14.8158 8.88019Z" fill="url(#paint3_linear_31_8541)"/>
<path d="M7.57288 15.5956V15.7799L7.7743 16.0413L8.11288 16.1056L13.5429 10.7999C13.3789 10.6013 13.1704 10.4442 12.9343 10.3413L7.57288 15.5999V15.5956Z" fill="url(#paint4_linear_31_8541)"/>
<path d="M15.8657 16.1443L16.05 16.1315L16.2942 15.9043L16.3371 15.5615L10.4142 10.1743C10.2286 10.3534 10.0877 10.5736 10.0028 10.8172L15.8614 16.1486L15.8657 16.1443Z" fill="url(#paint5_linear_31_8541)"/>
<path d="M9.01709 10.2816C8.86281 10.3673 8.95709 10.5816 8.96138 10.603C8.98709 10.6501 9.08995 10.7444 9.33423 10.723C9.63423 10.663 10.0971 10.303 10.2899 10.1273C10.0462 10.4302 9.72477 10.6613 9.35995 10.7958C9.34281 10.9501 9.47995 11.0487 9.54852 11.0787L9.90423 10.9501C9.81852 11.0101 9.66852 11.0573 9.59995 11.0787C9.64281 11.0787 9.74138 11.0873 9.81423 11.0787C9.89138 11.0658 9.95138 10.9716 9.96852 10.9287C10.2171 10.7316 10.7228 10.3073 10.7614 10.1916C10.7957 10.0716 10.6714 9.95584 10.6028 9.91298C10.5942 9.82727 10.5599 9.71155 10.5385 9.66441C10.4142 9.46727 10.0842 9.45441 9.92995 9.47584L10.1185 9.71584C9.99852 9.8187 9.70709 10.0587 9.50138 10.1487C9.24423 10.2644 9.17566 10.1958 9.01709 10.2773V10.2816Z" fill="url(#paint6_linear_31_8541)"/>
<path d="M12.7972 9.90449C12.84 9.79306 12.9558 9.56163 13.0843 9.50163C13.2429 9.43306 13.3672 9.43306 13.7786 9.46734L13.8729 10.5131L13.6715 10.3416C13.53 10.1745 13.1872 9.84449 12.9729 9.83592L12.8015 9.90449H12.7972ZM12.7072 10.3588C12.69 10.2645 12.6815 10.0588 12.7629 9.97306C12.8572 9.86592 12.96 9.84877 13.0543 9.88306C13.1272 9.90877 13.5043 10.2345 13.6843 10.3931L14.01 10.8902L13.6843 11.0488L13.35 10.9931L13.4958 10.8902L13.6372 10.9931C13.4587 10.7285 13.2191 10.511 12.9386 10.3588C12.8958 10.3202 12.81 10.2602 12.8143 10.2945L12.8443 10.3931L12.7072 10.3588Z" fill="url(#paint7_linear_31_8541)"/>
<path d="M13.9071 15.3685C14.2157 15.5142 14.6914 15.0813 14.8886 14.7342V13.1699L14.6014 13.0113L13.7528 12.707H13.5214V14.4513C13.5214 14.8927 13.4786 14.867 13.4271 14.9099C13.4571 14.9999 13.5986 15.2227 13.9071 15.3685Z" fill="black"/>
<path d="M4.18286 13.5857V13.3585L4.56858 12.8057H5.50286C5.52 13.1699 5.28 13.2085 5.16 13.1828V13.5857H4.97143V14.2542L5.15572 14.5114V14.6828H4.18286V14.5114L4.34143 14.2671V13.5814H4.18286V13.5857Z" fill="#42120C"/>
<path d="M4.19141 13.0798V13.3756H4.34141V14.267L4.19141 14.3227V14.5198H5.15998V14.3227L4.98426 14.267V13.3756H5.15998V13.0756H4.98426V12.9427C4.98426 12.9641 5.03998 13.0156 5.22855 13.0156C5.41712 13.0156 5.49426 12.8656 5.51141 12.7927C5.51141 12.4927 5.21569 12.4241 5.06998 12.4284C4.44426 12.4284 4.32426 12.8613 4.34141 13.0798H4.19141Z" fill="#B15A2A"/>
<path d="M4.29858 13.1184V13.277H4.46144V14.3184L4.29858 14.3442V14.4084H5.06144V14.3442L4.86858 14.3184V13.277H5.06144V13.1184H4.86858V12.6984C4.86858 12.5999 4.9543 12.5827 4.99716 12.587V12.5142C4.46573 12.557 4.41858 12.9342 4.46144 13.1184H4.29858Z" fill="url(#paint8_linear_31_8541)"/>
<path d="M5.06575 12.6513V12.5142C5.3229 12.5142 5.39575 12.6513 5.39575 12.7156C5.39575 12.7756 5.31861 12.8656 5.21575 12.8656C5.1129 12.8656 5.04004 12.8227 5.04004 12.7756C5.04004 12.7327 5.05718 12.677 5.06575 12.647V12.6513Z" fill="url(#paint9_linear_31_8541)"/>
<path fill-rule="evenodd" clip-rule="evenodd" d="M3.49718 14.6014C3.93003 14.6014 4.28146 14.2328 4.28146 13.7785C4.28146 13.3285 3.93003 12.96 3.49718 12.96C3.0686 12.96 2.71289 13.3285 2.71289 13.7785C2.71289 14.2328 3.06432 14.6014 3.49718 14.6014ZM3.49718 14.2285C3.57432 14.2285 3.6386 14.0271 3.6386 13.7785C3.6386 13.5342 3.57432 13.3328 3.49718 13.3328C3.42003 13.3328 3.36003 13.5342 3.36003 13.7785C3.36003 14.0271 3.42003 14.2285 3.49718 14.2285Z" fill="#B15A2A"/>
<path fill-rule="evenodd" clip-rule="evenodd" d="M3.49713 14.5029C3.87856 14.5029 4.18713 14.1772 4.18713 13.7786C4.18713 13.38 3.87856 13.0586 3.50141 13.0586C3.1157 13.0586 2.80713 13.38 2.80713 13.7786C2.80713 14.1772 3.1157 14.5029 3.49713 14.5029ZM3.49713 14.37C3.6257 14.37 3.73284 14.1043 3.73284 13.7786C3.73284 13.4572 3.6257 13.1915 3.49713 13.1915C3.36856 13.1915 3.26141 13.4572 3.26141 13.7786C3.26141 14.1043 3.36856 14.37 3.49713 14.37Z" fill="url(#paint10_linear_31_8541)"/>
<path d="M14.6914 9.00439C14.9871 9.00439 15.2571 9.08582 15.3557 9.12439C15.5357 9.03868 15.6086 9.04725 15.7757 9.17154C15.9471 9.30011 16.1014 9.56154 16.1014 9.75011C16.1014 9.93439 16.0157 10.0544 15.8486 10.0544C15.7157 10.0544 15.5871 9.96439 15.54 9.91725L15.2314 9.67297C14.6314 9.34297 14.4728 9.67725 14.4728 9.83154V9.83582C14.4728 9.99011 14.4728 10.2087 15.2014 10.3587C15.9386 10.5087 16.2214 10.9415 16.2214 11.3015C16.2214 11.6658 16.0886 12.3258 14.9786 12.3258C13.8728 12.3258 13.62 11.6658 13.62 11.443C13.62 11.2158 13.71 10.993 14.0786 10.993C14.37 10.993 14.3786 11.2758 14.3528 11.4215C14.6014 11.9273 15.27 11.8544 15.27 11.4215C15.27 11.0658 15.0343 10.9501 14.9186 10.9415L14.3914 10.7873C14.1643 10.7401 13.71 10.4958 13.71 9.88725C13.71 9.12868 14.3186 9.00439 14.6914 9.00439ZM5.54999 9.01297C5.94856 9.01297 6.12428 9.11154 6.15856 9.16297C6.20142 9.14582 6.31285 9.11154 6.37285 9.12011C6.64285 9.12011 7.02428 9.54011 7.02428 9.87439C7.02428 10.2087 6.82285 10.3115 6.62999 10.3115C6.47571 10.3115 6.37285 10.1058 6.34285 10.003C6.29444 9.88932 6.21391 9.79228 6.11113 9.72376C6.00835 9.65524 5.8878 9.61822 5.76428 9.61725C5.07428 9.61725 5.04856 10.2815 5.0657 10.5387L5.06999 10.5987C5.08713 10.9073 5.12999 11.6744 5.70428 11.6744C6.19713 11.6744 6.35999 11.3358 6.37713 11.1687C6.37713 11.023 6.54856 10.9758 6.62999 10.9673C6.95999 10.9673 7.06713 11.1815 7.07999 11.2844C7.07999 11.8415 6.15856 12.3001 5.70856 12.3001C5.24999 12.3001 4.18713 12.1415 4.18713 10.813C4.18713 9.48011 5.04428 9.01297 5.54999 9.01297ZM7.53856 11.4001C7.53856 11.0487 7.61571 10.1401 7.65428 9.72868C7.65428 9.56582 7.57713 9.40297 7.53856 9.34297C7.44856 9.11582 7.58142 9.03439 7.65428 9.02154C8.23713 9.02154 8.37428 9.49297 8.36999 9.72868C8.35285 10.2001 8.31428 11.173 8.31428 11.3358C8.31428 11.5073 8.37856 11.5715 8.41285 11.5887C8.45142 11.5887 8.49856 11.563 8.55856 11.5287C8.79035 11.3957 9.05426 11.3289 9.32142 11.3358C9.91285 11.3358 10.0243 11.7001 10.0243 11.9358C10.0243 12.1715 9.89142 12.3001 9.6257 12.2144C9.41142 12.1458 9.02999 12.1973 8.56713 12.2615C8.47148 12.2762 8.37576 12.2905 8.27999 12.3044C7.67999 12.3815 7.53856 11.8458 7.53856 11.4044V11.4001ZM10.2514 11.773C10.35 11.3915 11.0314 10.0844 11.3614 9.47582C11.4 9.40725 11.3786 9.28725 11.3614 9.23582C11.3357 9.16725 11.3486 9.02582 11.5757 9.02582C11.8114 9.02582 11.94 9.12011 11.9743 9.16297C12.3428 9.55725 12.9728 11.1687 13.0886 11.5201C13.2128 11.8758 13.2171 12.313 12.7028 12.313C12.2914 12.313 12.1843 11.8115 12.18 11.5587C12.0514 11.5501 11.88 11.5758 11.7086 11.6015C11.5837 11.6209 11.4577 11.6323 11.3314 11.6358C11.2642 11.6365 11.1977 11.6213 11.1374 11.5915C11.0771 11.5618 11.0246 11.5182 10.9843 11.4644C10.9524 11.6126 10.9324 11.763 10.9243 11.9144C10.89 12.2573 10.6543 12.3344 10.5386 12.3344C10.1657 12.3344 10.1957 11.9615 10.2514 11.773ZM11.9914 10.9844C11.9271 10.5987 11.76 10.213 11.6871 10.0673C11.497 10.3844 11.3308 10.7153 11.19 11.0573C11.16 11.1301 11.25 11.1644 11.4557 11.0573C11.6228 10.9715 11.8843 10.9715 11.9914 10.9844ZM16.8214 9.32582C16.8471 9.37725 16.8943 9.54011 16.8857 9.77154L16.8814 9.85297C16.86 10.2044 16.8214 11.0187 16.8214 11.6058C16.8214 12.2358 17.0914 12.313 17.2714 12.313C17.4557 12.313 17.5586 12.1758 17.5586 11.9487C17.5586 11.7644 17.5414 11.3058 17.5328 11.0958C17.5328 11.113 17.5843 11.143 17.7557 11.1387L18.6128 11.0958L18.6428 11.7644C18.63 11.9487 18.7028 12.313 19.08 12.313C19.5171 12.313 19.4957 11.9058 19.4828 11.7001V11.6573C19.4743 11.5115 19.4528 10.243 19.4443 9.63011C19.3971 9.42011 19.1786 9.00868 18.6986 9.00868C18.6128 9.02154 18.4671 9.08582 18.5571 9.26154C18.6 9.28725 18.6771 9.39439 18.6771 9.63011V10.3887L17.5886 10.6158C17.5543 10.6158 17.49 10.603 17.49 10.4958V9.67297C17.4771 9.48439 17.3486 9.10297 16.95 9.10297C16.7571 9.10297 16.7786 9.25297 16.8214 9.32582Z" fill="url(#paint11_linear_31_8541)"/>
<path fill-rule="evenodd" clip-rule="evenodd" d="M9.35997 13.0116C9.32997 13.3331 9.27425 14.0488 9.27425 14.3273C9.27425 14.6745 9.3814 15.0988 9.8314 15.0345L10.0543 15.0045C10.3182 14.9422 10.5916 14.9305 10.86 14.9702C11.0571 15.0345 11.16 14.9359 11.16 14.7473C11.16 14.5631 11.0743 14.2759 10.6285 14.2759C10.32 14.2759 10.1528 14.3702 10.0457 14.4302C10.0028 14.4559 9.96425 14.4731 9.93854 14.4731C9.91282 14.4645 9.8614 14.4088 9.8614 14.2759C9.8614 14.1473 9.8914 13.3759 9.90425 13.0116C9.90425 12.8231 9.80568 12.4502 9.35997 12.4545C9.29997 12.4631 9.20568 12.5273 9.27425 12.7073C9.29997 12.7502 9.35997 12.8788 9.35997 13.0073V13.0116ZM5.84568 13.0116C5.81568 13.3331 5.75568 14.0488 5.75568 14.3273C5.75568 14.6745 5.8714 15.0988 6.36854 15.0345L6.60854 15.0045C6.99425 14.9531 7.30711 14.9145 7.4914 14.9702C7.70568 15.0345 7.8214 14.9359 7.8214 14.7473C7.8214 14.5631 7.72711 14.2759 7.23854 14.2759C6.89568 14.2759 6.71568 14.3702 6.59997 14.4302C6.54854 14.4559 6.51425 14.4731 6.47997 14.4731C6.45425 14.4645 6.39425 14.4088 6.39425 14.2759C6.39425 14.1473 6.42854 13.3759 6.44568 13.0116C6.44568 12.8231 6.33425 12.4502 5.84568 12.4545C5.78568 12.4631 5.67854 12.5273 5.75568 12.7073C5.78568 12.7502 5.84997 12.8788 5.84997 13.0073L5.84568 13.0116ZM11.4814 14.3273C11.4814 14.0488 11.5414 13.3331 11.5671 13.0116C11.5671 12.8831 11.5114 12.7545 11.4814 12.7073C11.4128 12.5273 11.5114 12.4631 11.5671 12.4502C12.0171 12.4502 12.1243 12.8231 12.1157 13.0073C12.1028 13.3802 12.0728 14.1473 12.0728 14.2759C12.0728 14.4045 12.1243 14.4645 12.15 14.4731C12.18 14.4731 12.2143 14.4559 12.2614 14.4302C12.3643 14.3702 12.5357 14.2759 12.8443 14.2759C13.2943 14.2759 13.38 14.5631 13.38 14.7473C13.38 14.9359 13.2771 15.0345 13.08 14.9702C12.8088 14.9301 12.5325 14.9417 12.2657 15.0045L12.0471 15.0345C11.5928 15.0988 11.4814 14.6745 11.4814 14.3273ZM8.08711 12.5873C8.09568 12.5316 8.17282 12.4331 8.38282 12.4802C8.64854 12.5402 8.79425 12.7631 8.79425 13.0588V14.7302C8.80711 14.8288 8.76425 15.0302 8.5114 15.0302C8.19425 15.0302 8.08282 14.7602 8.08282 14.4302C8.08282 14.2931 8.10854 14.0188 8.13425 13.7359C8.16854 13.3416 8.20282 12.9345 8.17711 12.8616L8.12997 12.7459C8.10425 12.6945 8.08711 12.6516 8.08711 12.5873ZM14.0443 12.4802C13.83 12.4373 13.7614 12.5316 13.7485 12.5873C13.7485 12.6516 13.77 12.6945 13.7914 12.7459C13.8085 12.7759 13.8257 12.8102 13.8428 12.8616C13.8685 12.9345 13.8343 13.3416 13.8 13.7359C13.7743 14.0188 13.7485 14.2931 13.7485 14.4302C13.7485 14.7602 13.86 15.0302 14.1771 15.0302C14.4257 15.0302 14.4685 14.8288 14.46 14.7302V13.0588C14.46 12.7588 14.3143 12.5402 14.0485 12.4802H14.0443ZM14.9357 12.6945C14.8928 12.6173 14.9357 12.5488 14.9657 12.5231C15.12 12.4373 15.2143 12.5231 15.2871 12.5873C15.3214 12.6173 15.3557 12.6473 15.3857 12.6473C15.4285 12.6473 15.5185 12.6259 15.6343 12.5959C15.8057 12.5488 16.02 12.4888 16.1785 12.4888C16.4443 12.4888 16.9757 12.6173 16.9757 13.2473C16.9757 13.8816 16.6328 14.1302 16.1785 14.1302C15.8143 14.1302 15.6343 14.0573 15.5914 14.0231V14.6359C15.5914 14.9359 15.4157 15.0259 15.3257 15.0345C15 15.0345 14.9485 14.7688 14.9657 14.6359L14.9871 13.0373C14.9871 12.9516 14.9785 12.7716 14.9357 12.6945ZM15.5485 13.7059V13.0631C15.6381 13.0443 15.7268 13.0214 15.8143 12.9945C15.96 12.9473 16.3243 12.8273 16.3243 13.2645C16.3243 13.6331 16.11 13.7102 15.9985 13.7059H15.5485ZM17.3657 13.0502C17.3657 12.9088 17.3357 12.8273 17.3228 12.8059C17.25 12.6859 17.2328 12.5102 17.4257 12.5102C17.6228 12.5102 17.8243 12.6388 17.9271 12.9259C18.0128 13.1616 17.9614 13.7702 17.9357 14.0145C17.9357 14.0702 17.9271 14.1045 17.9271 14.1173C17.9271 14.1945 17.9271 14.6531 18.3685 14.6531C18.7243 14.6531 18.81 14.3531 18.8057 14.2073V12.9259C18.8057 12.7973 18.7543 12.7545 18.7114 12.7116C18.6771 12.6816 18.6471 12.6559 18.6471 12.6002C18.6471 12.4973 18.7543 12.4716 18.8057 12.4716C19.2343 12.4716 19.4014 12.7716 19.4271 12.9259V14.2116C19.4271 14.4516 19.4271 15.0002 18.3685 15.0002C17.5243 15.0002 17.3485 14.3659 17.3657 14.0488V13.0502ZM19.68 12.8531C19.6789 12.822 19.6863 12.7912 19.7014 12.764C19.7165 12.7369 19.7387 12.7143 19.7657 12.6988C19.83 12.6731 19.8343 12.6731 19.86 12.6816C19.8857 12.6859 19.9243 12.6988 20.0228 12.6988C20.1085 12.6988 20.2371 12.6688 20.4 12.6302C20.6571 12.5745 21 12.4973 21.3514 12.4973C21.93 12.4973 22.0457 12.6988 22.0457 12.8959C22.0457 13.0502 21.7157 13.1102 21.5528 13.1145L21.2143 13.1316V14.7302C21.2271 14.8288 21.1843 15.0302 20.9314 15.0302C20.6185 15.0302 20.5028 14.7602 20.5028 14.4302C20.5028 14.2888 20.5328 14.0316 20.5585 13.7702C20.58 13.5431 20.6014 13.3116 20.6057 13.1616L20.2157 13.1702C19.8 13.1702 19.6757 12.9731 19.6757 12.8531H19.68Z" fill="url(#paint12_linear_31_8541)"/>
<path d="M15.3686 9.12847L15.51 9.25704C15.4872 9.2034 15.4553 9.1541 15.4157 9.11133L15.3686 9.12419V9.12847ZM12 9.3599C12 9.44561 11.9529 9.5099 11.8929 9.5099C11.8286 9.5099 11.7814 9.44133 11.7814 9.3599C11.7814 9.27847 11.8286 9.21419 11.8929 9.21419C11.9529 9.21419 12 9.27847 12 9.3599ZM11.7 9.42419C11.7 9.50561 11.6572 9.5699 11.5929 9.5699C11.5329 9.5699 11.4857 9.50561 11.4857 9.42419C11.4857 9.33847 11.5329 9.27418 11.5929 9.27418C11.6529 9.27418 11.7043 9.34276 11.7043 9.42419H11.7ZM12 9.65133C12.0003 9.64457 11.9992 9.63783 11.9969 9.63148C11.9946 9.62514 11.991 9.61931 11.9865 9.61434C11.9819 9.60936 11.9764 9.60534 11.9702 9.60249C11.9641 9.59965 11.9575 9.59804 11.9507 9.59776C11.944 9.59748 11.9372 9.59853 11.9309 9.60085C11.9245 9.60318 11.9187 9.60673 11.9137 9.6113C11.9088 9.61588 11.9047 9.62139 11.9019 9.62752C11.899 9.63366 11.8974 9.64029 11.8972 9.64704C11.8946 9.67042 11.8857 9.69265 11.8714 9.71133C11.8543 9.73276 11.8286 9.7499 11.7857 9.7499C11.7465 9.74961 11.7076 9.74384 11.67 9.73276C11.6626 9.73059 11.6554 9.72772 11.6486 9.72419C11.6441 9.7191 11.6386 9.71495 11.6325 9.71198C11.6264 9.70901 11.6198 9.70728 11.6131 9.70688C11.6063 9.70648 11.5995 9.70743 11.5931 9.70966C11.5867 9.71189 11.5808 9.71538 11.5757 9.7199C11.566 9.72822 11.5598 9.73986 11.5582 9.75253C11.5566 9.76521 11.5598 9.77802 11.5672 9.78847C11.5757 9.80133 11.5886 9.8099 11.6014 9.81418C11.6151 9.82143 11.6294 9.82717 11.6443 9.83133C11.6786 9.84419 11.7257 9.84847 11.7857 9.84847C11.8629 9.84847 11.9143 9.81847 11.9486 9.77561C11.9829 9.73276 11.9914 9.6899 11.9957 9.65133H12ZM6.8143 9.72419C6.8743 9.72419 6.92573 9.6599 6.92573 9.57847C6.92573 9.49276 6.8743 9.42847 6.8143 9.42847C6.7543 9.42847 6.70716 9.49704 6.70716 9.57847C6.70716 9.6599 6.7543 9.72419 6.8143 9.72419ZM6.5143 9.78847C6.57859 9.78847 6.63002 9.72419 6.63002 9.63847C6.63002 9.55704 6.57859 9.49276 6.51859 9.49276C6.45859 9.49276 6.40716 9.55704 6.40716 9.63847C6.40716 9.72419 6.45859 9.78847 6.51859 9.78847H6.5143ZM6.8743 9.81418C6.90002 9.81418 6.92144 9.8399 6.91716 9.8699C6.91722 9.89691 6.91172 9.92364 6.90102 9.94843C6.89032 9.97323 6.87464 9.99557 6.85495 10.0141C6.83526 10.0325 6.81198 10.0468 6.78656 10.0559C6.76113 10.065 6.73411 10.0688 6.70716 10.067C6.64716 10.067 6.60002 10.0585 6.56573 10.0499C6.55087 10.0457 6.5365 10.04 6.52287 10.0328C6.51131 10.0262 6.50112 10.0175 6.49287 10.007C6.4886 10.0017 6.48542 9.9956 6.48353 9.98904C6.48165 9.98247 6.48109 9.9756 6.48188 9.96882C6.48268 9.96203 6.48482 9.95548 6.48818 9.94953C6.49154 9.94359 6.49605 9.93837 6.50145 9.93419C6.5119 9.92684 6.52471 9.92365 6.53739 9.92524C6.55006 9.92682 6.56169 9.93307 6.57002 9.94276L6.59573 9.95133C6.61716 9.9599 6.65573 9.96419 6.71145 9.96419C6.7543 9.96419 6.78002 9.94704 6.79716 9.9299C6.81067 9.90954 6.81811 9.88576 6.81859 9.86133C6.81859 9.83561 6.8443 9.81419 6.8743 9.81847V9.81418ZM19.2214 9.6899L19.4314 9.83561V9.73704C19.3886 9.7199 19.2857 9.69419 19.2214 9.69419V9.6899ZM19.4357 10.1056L19.23 9.9599C19.2943 9.9599 19.3972 9.98561 19.44 10.0028V10.1056H19.4357ZM17.6014 13.2813C17.6357 13.2085 17.73 13.0756 17.8157 13.097C17.8714 13.1099 17.9186 13.1742 17.9443 13.2299C17.9229 13.2128 17.8843 13.2042 17.8157 13.2085C17.67 13.2213 17.61 13.2599 17.6014 13.2813ZM17.97 13.2813C17.97 13.2685 17.97 13.247 17.9486 13.2299C17.9568 13.2466 17.964 13.2637 17.97 13.2813ZM17.5286 11.6528L17.43 11.567H17.5286V11.6528ZM17.4557 9.57847C17.4557 9.6599 17.4086 9.72419 17.3486 9.72419C17.2843 9.72419 17.2372 9.6599 17.2372 9.57847C17.2372 9.49276 17.2843 9.42847 17.3486 9.42847C17.4086 9.42847 17.4557 9.49704 17.4557 9.57847ZM17.1557 9.63847C17.1557 9.72419 17.1129 9.78847 17.0486 9.78847C16.9886 9.78847 16.9414 9.72419 16.9414 9.63847C16.9414 9.55704 16.9886 9.49276 17.0486 9.49276C17.1086 9.49276 17.16 9.55704 17.16 9.63847H17.1557ZM5.06145 10.637C4.94591 10.6189 4.83431 10.5812 4.73145 10.5256C4.73573 10.5642 4.7743 10.6413 4.87287 10.667C4.97145 10.697 5.04002 10.6585 5.06145 10.637ZM4.73145 10.817C4.78716 10.8513 4.93287 10.9156 5.06145 10.9285C5.04002 10.9499 4.97573 10.9885 4.87287 10.9585C4.83883 10.9497 4.80776 10.9319 4.78289 10.907C4.75802 10.8822 4.74026 10.8511 4.73145 10.817ZM6.66859 11.0956C6.65573 11.2242 6.59145 11.3699 6.55716 11.4256C6.59573 11.417 6.67287 11.3828 6.69859 11.2799C6.72859 11.1813 6.69002 11.117 6.66859 11.0956ZM9.28287 11.6956C9.27859 11.6356 9.26144 11.477 9.21002 11.3528C9.24002 11.3656 9.3043 11.4042 9.33002 11.5028C9.35573 11.6013 9.30859 11.6742 9.27859 11.6999L9.28287 11.6956ZM6.08145 12.9942C6.1243 13.0799 6.13287 13.1913 6.13716 13.2342C6.15639 13.2177 6.17031 13.1958 6.17718 13.1714C6.18404 13.147 6.18354 13.1212 6.17573 13.097C6.1543 13.0242 6.10287 12.9985 6.08145 12.9942ZM12.0086 11.3142C12.0086 11.2456 11.9914 11.087 11.9357 10.9713C11.9657 10.9756 12.0343 11.0142 12.06 11.117C12.0814 11.2156 12.0343 11.2885 12.0086 11.3142ZM14.2114 9.71561C14.19 9.58704 14.2157 9.42847 14.2329 9.36419C14.2022 9.3819 14.1768 9.40758 14.1594 9.4385C14.1421 9.46942 14.1334 9.50445 14.1343 9.5399C14.1343 9.64276 14.1857 9.69847 14.2114 9.71133V9.71561ZM14.3143 9.35133C14.3143 9.41133 14.3314 9.55704 14.3829 9.66847C14.3529 9.66418 14.2929 9.62561 14.2672 9.53133C14.2583 9.49984 14.2581 9.46657 14.2663 9.43494C14.2746 9.40331 14.2912 9.37445 14.3143 9.35133ZM15.7157 10.0499C15.7286 9.9299 15.7929 9.79276 15.8186 9.74133C15.7874 9.75019 15.759 9.76714 15.7364 9.79047C15.7139 9.8138 15.6978 9.84268 15.69 9.87419C15.6643 9.96847 15.6986 10.0328 15.7157 10.0499ZM12.4886 11.627C12.3768 11.5979 12.2609 11.5877 12.1457 11.597C12.1586 11.5713 12.2143 11.5199 12.3172 11.5242C12.42 11.5242 12.4757 11.5928 12.4886 11.627ZM13.9372 11.5242C13.8943 11.4342 13.8943 11.3185 13.8943 11.2756C13.8643 11.2885 13.8086 11.3313 13.83 11.4042C13.8472 11.4813 13.9072 11.5156 13.9372 11.5242ZM14.88 12.3042C14.8972 12.2613 14.94 12.1585 14.9357 12.0556C14.9572 12.0746 14.9735 12.0987 14.9832 12.1257C14.993 12.1526 14.9958 12.1816 14.9914 12.2099C14.9743 12.2828 14.9057 12.3042 14.8757 12.3042H14.88ZM15.2657 12.0299C15.2743 12.1328 15.2314 12.2356 15.21 12.2785C15.24 12.2785 15.3086 12.257 15.3214 12.1842C15.3263 12.1562 15.3242 12.1275 15.3152 12.1006C15.3062 12.0736 15.2907 12.0493 15.27 12.0299H15.2657ZM16.1057 11.8328C16.0639 11.7575 16.0052 11.693 15.9343 11.6442C15.9616 11.6378 15.99 11.6384 16.0169 11.6459C16.0439 11.6534 16.0685 11.6676 16.0886 11.687C16.1443 11.7385 16.1229 11.807 16.1057 11.8328ZM15.8957 11.4128C16.0243 11.4899 16.14 11.6142 16.1786 11.6656C16.1957 11.6356 16.2043 11.5628 16.1186 11.4942C16.057 11.4404 15.9775 11.4113 15.8957 11.4128ZM11.16 10.6456C11.0829 10.6456 10.89 10.667 10.7443 10.7228C10.7529 10.6928 10.8 10.6285 10.92 10.5985C11.04 10.5728 11.13 10.6199 11.16 10.6456ZM10.6543 10.8513C10.7614 10.8856 10.8686 10.9713 10.9114 11.0099C10.9147 10.9785 10.9082 10.9469 10.8928 10.9193C10.8775 10.8917 10.8541 10.8695 10.8257 10.8556C10.7999 10.8403 10.7706 10.8319 10.7406 10.8311C10.7106 10.8304 10.6809 10.8373 10.6543 10.8513ZM9.48002 11.6999C9.48002 11.6356 9.46287 11.477 9.41144 11.357C9.43716 11.3656 9.50573 11.3999 9.53144 11.5028C9.55716 11.6013 9.50573 11.6742 9.48002 11.6999ZM6.24002 12.9942C6.28287 13.0799 6.29573 13.1913 6.29573 13.2342C6.31571 13.2182 6.33047 13.1966 6.3381 13.1722C6.34574 13.1477 6.34591 13.1216 6.33859 13.097C6.31716 13.0242 6.26573 12.9985 6.24002 12.9942ZM6.74145 11.477C6.77145 11.4213 6.83573 11.2756 6.85287 11.147C6.8743 11.1685 6.90859 11.2328 6.88287 11.3356C6.87406 11.3697 6.85629 11.4007 6.83143 11.4256C6.80656 11.4505 6.77549 11.4682 6.74145 11.477ZM7.57716 10.547C7.6543 10.4442 7.78287 10.3499 7.8343 10.3156C7.80011 10.3068 7.76418 10.3073 7.73025 10.3171C7.69633 10.3269 7.66565 10.3456 7.64145 10.3713C7.56859 10.4399 7.56859 10.517 7.57716 10.547ZM7.8343 10.5899C7.78287 10.6199 7.6543 10.7142 7.57716 10.817C7.56859 10.7913 7.56859 10.7142 7.64145 10.6413C7.66605 10.6149 7.69744 10.5957 7.73221 10.5859C7.76698 10.576 7.80378 10.5759 7.83859 10.5856L7.8343 10.5899ZM7.6543 12.0385C7.71633 11.9652 7.79021 11.9029 7.87287 11.8542C7.84434 11.8467 7.81435 11.8467 7.78582 11.8542C7.75729 11.8617 7.73118 11.8765 7.71002 11.897C7.65002 11.957 7.64573 12.017 7.6543 12.0385ZM6.11573 14.6613C6.0943 14.7128 6.05145 14.837 6.04716 14.9442C6.02573 14.927 5.99145 14.8756 6.00859 14.7942C6.01397 14.7654 6.02665 14.7384 6.0454 14.7159C6.06416 14.6934 6.08837 14.6761 6.11573 14.6656V14.6613ZM7.38002 14.7256C7.45287 14.8028 7.50859 14.9228 7.53002 14.9742C7.54254 14.9466 7.54756 14.9163 7.54454 14.8862C7.54153 14.8561 7.53061 14.8273 7.51287 14.8028C7.46573 14.7342 7.40573 14.7213 7.38002 14.7256ZM7.31144 14.9399C7.29792 14.8828 7.27627 14.828 7.24716 14.777C7.25573 14.777 7.29002 14.777 7.30716 14.8242C7.32859 14.8713 7.32002 14.9228 7.30716 14.9442L7.31144 14.9399ZM6.57002 14.7942C6.51002 14.7042 6.47573 14.5799 6.46716 14.5242C6.45011 14.5491 6.43995 14.5781 6.43769 14.6082C6.43543 14.6383 6.44116 14.6684 6.4543 14.6956C6.4843 14.7685 6.54002 14.7899 6.57002 14.7942ZM6.29145 14.8242C6.26573 14.8542 6.20145 14.9313 6.16716 15.0128C6.16051 14.9914 6.1586 14.9688 6.16156 14.9466C6.16452 14.9244 6.17228 14.9031 6.1843 14.8842C6.21859 14.8242 6.27002 14.8199 6.29145 14.8242ZM8.22002 12.227C8.1343 12.1285 8.07002 11.9828 8.04859 11.9185C8.02716 11.9485 8.00145 12.0299 8.05287 12.1199C8.10859 12.2056 8.18573 12.227 8.22002 12.227ZM15.6343 9.78419L15.5057 9.92561L15.4886 9.88276C15.5229 9.8399 15.6 9.79704 15.6343 9.78419ZM15.9343 10.0413L15.8786 9.85276C15.8743 9.89133 15.87 9.98133 15.8872 10.0242L15.93 10.037L15.9343 10.0413ZM14.07 11.4556C13.9543 11.3399 13.9672 11.2499 13.9843 11.2199C14.0743 11.3999 14.2672 11.5199 14.3486 11.5628C14.3057 11.5799 14.1857 11.5799 14.07 11.4599V11.4556ZM15.3857 10.7785C15.4157 10.757 15.4843 10.7356 15.5529 10.7785C15.6172 10.8213 15.6257 10.8899 15.6214 10.9156C15.5743 10.8728 15.4586 10.7785 15.3857 10.7785ZM8.27144 13.4228C8.19859 13.4999 8.16002 13.5942 8.14716 13.6285C8.1943 13.5942 8.29716 13.517 8.31859 13.4785C8.3443 13.4399 8.40002 13.3242 8.42144 13.2642C8.4043 13.2899 8.34859 13.3499 8.27573 13.4228H8.27144ZM8.11287 13.8856C8.13859 13.8599 8.19859 13.817 8.25002 13.8428C8.30145 13.8685 8.33573 13.9928 8.34002 14.0485C8.3143 13.997 8.22859 13.8856 8.11287 13.8856ZM8.5843 13.7485L8.78144 13.5985V13.6842L8.58859 13.7485H8.5843ZM9.33859 13.4056C9.33859 13.3242 9.36002 13.157 9.43716 13.1399C9.52287 13.1228 9.40716 13.3113 9.33859 13.4056ZM9.6643 14.5928C9.6454 14.4907 9.6578 14.3854 9.69986 14.2905C9.74193 14.1957 9.81171 14.1158 9.90002 14.0613C9.78937 14.2224 9.70945 14.4026 9.6643 14.5928ZM9.89573 14.2456L9.84859 14.5799C9.87002 14.5413 9.91716 14.4513 9.92144 14.3999C9.92573 14.3442 9.90859 14.2713 9.89573 14.2456ZM10.5729 14.8456C10.5986 14.5542 10.3543 14.4256 10.2257 14.3999C10.2429 14.3785 10.3114 14.3442 10.41 14.387C10.65 14.537 10.62 14.7599 10.5729 14.8499V14.8456ZM10.53 14.3185C10.6243 14.4128 10.7872 14.6613 10.6757 14.8928C10.6972 14.897 10.7486 14.8628 10.7657 14.6913C10.7872 14.5156 10.6157 14.3699 10.53 14.3185ZM11.58 13.247C11.5962 13.2004 11.6301 13.1619 11.6743 13.1399C11.7257 13.1142 11.6314 13.1999 11.58 13.247ZM11.5629 13.3456C11.6057 13.3328 11.6914 13.337 11.7472 13.4399C11.6443 13.397 11.5843 13.3585 11.5629 13.3456ZM11.9143 14.8156C11.9014 14.7256 11.9314 14.5499 12.1886 14.5585C12.12 14.5585 12.03 14.6742 11.9743 14.747C11.9443 14.7899 11.9229 14.8156 11.9143 14.8156ZM14.0143 12.9256V13.2813C14.04 13.247 14.0914 13.1528 14.0914 13.067C14.0914 12.9728 14.04 12.9342 14.0143 12.9256ZM14.2457 13.1399C14.2465 13.0589 14.2192 12.9802 14.1686 12.917V13.1399C14.1686 13.2342 14.1343 13.3242 14.1214 13.3542C14.1643 13.3328 14.2457 13.247 14.2457 13.1399ZM12.5314 10.097L12.3772 10.3328C12.4243 10.3113 12.5314 10.2599 12.5443 10.2128C12.5523 10.1734 12.5463 10.1324 12.5272 10.097H12.5314ZM15.3386 12.6428C15.39 12.6899 15.4929 12.8656 15.5186 13.1785C15.6257 12.8013 15.4414 12.6642 15.3386 12.6428ZM15.5486 13.6842L15.6043 13.9456C15.5572 13.8687 15.5375 13.778 15.5486 13.6885V13.6842ZM12.8786 14.9485L12.8657 14.8028L12.9472 14.9485H12.8786ZM13.0714 14.8242L13.1014 14.9742L13.2 14.9956L13.0714 14.8242ZM14.2543 14.8585V15.0299L14.31 14.9956L14.2543 14.8585ZM15.0214 14.8885C15.0472 14.8285 15.12 14.6999 15.21 14.6656C15.21 14.6785 15.1072 14.8585 15.06 14.9442L15.0172 14.8885H15.0214ZM15.3086 15.0299C15.3 14.9013 15.3557 14.8242 15.3857 14.7985L15.3514 15.0299H15.3086ZM17.0529 11.4728L16.8343 11.6656L16.8086 11.6056C16.8293 11.5596 16.8642 11.5215 16.9081 11.4968C16.9521 11.4721 17.0028 11.4622 17.0529 11.4685V11.4728ZM16.98 11.6699C16.86 11.7085 16.8343 11.7942 16.8343 11.8328L16.86 11.9442L16.98 11.6699ZM17.5372 11.1642L17.4 10.9199L17.6057 11.1128L17.5372 11.1642ZM17.6914 11.1299L17.79 10.8728V11.1299H17.6914ZM17.9743 10.967V11.117H18.0729L17.9743 10.967ZM18.6557 10.8385C18.7029 10.6928 18.6772 10.4656 18.6557 10.367L18.57 10.4142L18.6557 10.8428V10.8385ZM18.4929 11.0999C18.5057 11.0613 18.5657 10.9842 18.7072 10.9499L18.5786 11.1085L18.4929 11.0999ZM19.0029 11.417C18.8572 11.417 18.75 11.537 18.7157 11.6013C18.8872 11.4599 19.1657 11.4642 19.2814 11.4813C19.196 11.4355 19.0998 11.4133 19.0029 11.417ZM18.8314 11.807C18.8529 11.747 18.9257 11.6228 19.0243 11.6228C19.1272 11.6228 19.1957 11.6656 19.2214 11.6913C19.1357 11.6699 18.9472 11.6699 18.8272 11.807H18.8314ZM17.9657 13.5213C17.8672 13.367 17.7472 13.4099 17.6957 13.4485C17.8457 13.4485 17.9357 13.5728 17.9657 13.6328V13.5256V13.5213ZM18.9986 13.3242C19.0329 13.2856 19.1272 13.2213 19.2343 13.247C19.3414 13.277 19.4014 13.3456 19.4186 13.3756L19.4357 13.8342C19.4057 13.7399 19.2943 13.547 19.1057 13.5556C19.1529 13.5128 19.2772 13.4613 19.3414 13.5556V13.4099C19.32 13.3542 19.2172 13.2556 18.9986 13.3242ZM18.2143 14.8113L18.0986 14.9699H18.1757L18.2186 14.8113H18.2143ZM20.0957 12.7542C20.0525 12.7824 20.0209 12.8252 20.0068 12.8748C19.9926 12.9244 19.9968 12.9774 20.0186 13.0242L20.0957 12.7542ZM20.2672 12.8399C20.2286 12.8699 20.1857 12.9513 20.3186 13.0113L20.2672 12.8399ZM20.5886 13.157C20.7172 13.1013 21.0257 13.0413 21.21 13.2556V13.5385L20.8843 13.2813C20.9572 13.2856 21.1243 13.3242 21.1886 13.397V13.277C21.1157 13.2085 20.8972 13.1056 20.6229 13.2085L20.5886 13.157ZM20.7172 14.9742C20.6743 14.687 20.76 14.5928 20.8114 14.5885C20.7772 14.6742 20.7343 14.8885 20.8286 15.0213C20.7902 15.0087 20.7529 14.993 20.7172 14.9742ZM20.9572 14.7385C20.9229 14.7728 20.9014 14.8585 21.1114 14.9142C21.0557 14.8928 20.9829 14.7856 20.9572 14.7428V14.7385Z" fill="#2959A7"/>
<path d="M8.8414 15.5912C8.53283 15.7369 8.0614 15.0769 7.86426 14.7341H7.99283C8.03569 14.8627 8.20711 15.1284 8.51997 15.1284C8.83711 15.1284 8.91854 14.8669 8.91854 14.7341V13.6455H9.14997V14.4512C9.14997 14.8927 9.26569 15.0855 9.3214 15.1284C9.2914 15.2227 9.14997 15.4455 8.8414 15.5912Z" fill="black"/>
</g>
<defs>
<linearGradient id="paint0_linear_31_8541" x1="9.36006" y1="8.46436" x2="9.36006" y2="10.3029" gradientUnits="userSpaceOnUse">
<stop stop-color="#5F635C"/>
<stop offset="0.21" stop-color="#515558"/>
<stop offset="0.39" stop-color="#646863"/>
<stop offset="0.5" stop-color="#65635A"/>
<stop offset="0.59" stop-color="#616158"/>
<stop offset="0.72" stop-color="#686C65"/>
<stop offset="0.81" stop-color="#586164"/>
<stop offset="1" stop-color="#6F756D"/>
</linearGradient>
<linearGradient id="paint1_linear_31_8541" x1="6.63857" y1="7.8342" x2="7.95429" y2="10.5556" gradientUnits="userSpaceOnUse">
<stop stop-color="#6E6B63"/>
<stop offset="0.45" stop-color="#5E554B"/>
<stop offset="1" stop-color="#5F533E"/>
</linearGradient>
<linearGradient id="paint2_linear_31_8541" x1="14.22" y1="8.68277" x2="13.5557" y2="9.47991" gradientUnits="userSpaceOnUse">
<stop stop-color="#6F8CAB"/>
<stop offset="1" stop-color="#BAD7FF"/>
</linearGradient>
<linearGradient id="paint3_linear_31_8541" x1="16.4315" y1="7.44876" x2="14.4729" y2="8.70019" gradientUnits="userSpaceOnUse">
<stop stop-color="#A1C1EE"/>
<stop offset="1" stop-color="#E4FFFF"/>
</linearGradient>
<linearGradient id="paint4_linear_31_8541" x1="9.60002" y1="13.3627" x2="10.4829" y2="14.1899" gradientUnits="userSpaceOnUse">
<stop stop-color="#D87557"/>
<stop offset="0.21" stop-color="#C06548"/>
<stop offset="0.37" stop-color="#863F23"/>
<stop offset="0.59" stop-color="#B45430"/>
<stop offset="0.77" stop-color="#4A1D08"/>
<stop offset="1" stop-color="#63290F"/>
</linearGradient>
<linearGradient id="paint5_linear_31_8541" x1="13.5042" y1="14.2715" x2="14.2714" y2="13.3329" gradientUnits="userSpaceOnUse">
<stop stop-color="#D87557"/>
<stop offset="0.21" stop-color="#C06548"/>
<stop offset="0.37" stop-color="#863F23"/>
<stop offset="0.59" stop-color="#B45430"/>
<stop offset="0.77" stop-color="#4A1D08"/>
<stop offset="1" stop-color="#63290F"/>
</linearGradient>
<linearGradient id="paint6_linear_31_8541" x1="10.4871" y1="9.97727" x2="9.49709" y2="10.8216" gradientUnits="userSpaceOnUse">
<stop stop-color="#3D68FC"/>
<stop offset="1" stop-color="#152B71"/>
</linearGradient>
<linearGradient id="paint7_linear_31_8541" x1="13.3543" y1="9.44592" x2="13.3543" y2="11.0488" gradientUnits="userSpaceOnUse">
<stop offset="0.38" stop-color="#3A61E4"/>
<stop offset="1" stop-color="#061444"/>
</linearGradient>
<linearGradient id="paint8_linear_31_8541" x1="4.29858" y1="14.3227" x2="5.11287" y2="14.2242" gradientUnits="userSpaceOnUse">
<stop offset="0.35" stop-color="#CB7A4B"/>
<stop offset="0.43" stop-color="#DA946B"/>
<stop offset="0.51" stop-color="#D08150"/>
<stop offset="0.58" stop-color="#DC956B"/>
<stop offset="0.69" stop-color="#C9794C"/>
<stop offset="0.8" stop-color="#DD8F5E"/>
<stop offset="1" stop-color="#EBAA7B"/>
</linearGradient>
<linearGradient id="paint9_linear_31_8541" x1="5.07004" y1="12.7499" x2="5.39575" y2="12.6599" gradientUnits="userSpaceOnUse">
<stop stop-color="#E39D6D"/>
<stop offset="0.43" stop-color="#CE7F4F"/>
<stop offset="1" stop-color="#E39A6B"/>
</linearGradient>
<linearGradient id="paint10_linear_31_8541" x1="2.86713" y1="13.9457" x2="4.26856" y2="13.7829" gradientUnits="userSpaceOnUse">
<stop stop-color="#D48F64"/>
<stop offset="0.11" stop-color="#BC7448"/>
<stop offset="0.18" stop-color="#D58E64"/>
<stop offset="0.31" stop-color="#D88F61"/>
<stop offset="0.48" stop-color="#D99062"/>
<stop offset="0.58" stop-color="#CE7B49"/>
<stop offset="0.71" stop-color="#DE9769"/>
<stop offset="0.81" stop-color="#DE9562"/>
<stop offset="1" stop-color="#CC7B49"/>
</linearGradient>
<linearGradient id="paint11_linear_31_8541" x1="11.8371" y1="9.00439" x2="11.8371" y2="12.3344" gradientUnits="userSpaceOnUse">
<stop stop-color="#9FE2EC"/>
<stop offset="1" stop-color="#E7F8FA"/>
</linearGradient>
<linearGradient id="paint12_linear_31_8541" x1="13.8857" y1="12.4545" x2="13.8857" y2="15.0431" gradientUnits="userSpaceOnUse">
<stop stop-color="#9EE2EB"/>
<stop offset="1" stop-color="#D2F2F6"/>
</linearGradient>
<clipPath id="clip0_31_8541">
<rect width="24" height="24" fill="white"/>
</clipPath>
</defs>
</svg>
