<svg xmlns="http://www.w3.org/2000/svg" width="24" height="24" fill="none" viewBox="0 0 24 24"><g clip-path="url(#a)"><path fill="#2992FB" d="M0 0h24v24H0z"/><path fill="#fff" d="M15.522 8.103a4.84 4.84 0 0 0-3.154-1.154 5.006 5.006 0 0 0-4.949 4.708h-.514a5.503 5.503 0 0 1 5.463-5.234c1.286 0 2.515.474 3.515 1.314zm-.177 1.726a3.66 3.66 0 0 0-2.971-1.543A3.697 3.697 0 0 0 8.705 12a3.704 3.704 0 0 0 3.663 3.743A3.64 3.64 0 0 0 15.34 14.2l.366.366a4.16 4.16 0 0 1-3.337 1.703A4.23 4.23 0 0 1 8.197 12a4.217 4.217 0 0 1 4.171-4.24 4.15 4.15 0 0 1 3.337 1.703zm.589-1.338.36-.365c.125.131.228.263.331.394l-.36.366a5 5 0 0 0-.331-.395m-3.589 9.11a5.503 5.503 0 0 1-5.463-5.235h.515a5.006 5.006 0 0 0 4.948 4.714 4.87 4.87 0 0 0 3.155-1.154l.36.365a5.42 5.42 0 0 1-3.515 1.315zm3.589-2.07c.125-.13.228-.257.331-.388l.36.366a5 5 0 0 1-.331.388zm-9.772-3.53a6.285 6.285 0 0 0 6.206 6.33 6.04 6.04 0 0 0 4.771-2.302l.36.365a6.57 6.57 0 0 1-5.13 2.463c-3.715 0-6.715-3.085-6.715-6.857 0-3.794 3.029-6.857 6.714-6.857 1.977 0 3.852.891 5.132 2.457l-.36.372a6.12 6.12 0 0 0-4.772-2.303A6.286 6.286 0 0 0 6.168 12z"/></g><defs><clipPath id="a"><path fill="#fff" d="M0 0h24v24H0z"/></clipPath></defs></svg>