<svg xmlns="http://www.w3.org/2000/svg" width="24" height="24" fill="none" viewBox="0 0 24 24"><g clip-path="url(#a)"><path fill="#DEB132" d="M0 0h24v24H0z"/><path fill="#fff" d="M8.413 11.887 6 13.039l1.26.582a22 22 0 0 0 1.075-.648c.35-.23.559-.096.665 0v2.353l-.857.577v1.79l-.857.335v.829l1.51-.636v-1.67l2.347-1.225v-.973l3.054-1.2c.435-.654 1.142-1.025 1.442-1.13v1.754l-.639.366V15l1.286-.73v-3.543L15 11.075v-2.61l1.135.617.58-1.718c-.04-.344-.461-.852-.716-.667-.37.27.061.611.255.763l-.39.733-1.017-.907h-.704v-.318c.18.02.385-.088.428-.144.008-.112.02-.468 0-.997-.018-.528-.524-.676-.764-.684-1.078-.01-.82 1.084-.521 1.45v.692h-.959l-1.666 1.351c.196.306.62.982.754 1.246.168.33.42.404.558.415.136.01.417.032.48-.351.05-.307-.392-.335-.619-.31l-.27-.768.955-.403.558 2.123-3.638 1.793z"/></g><defs><clipPath id="a"><path fill="#fff" d="M0 0h24v24H0z"/></clipPath></defs></svg>