<svg xmlns="http://www.w3.org/2000/svg" width="24" height="24" fill="none" viewBox="0 0 24 24"><g clip-path="url(#a)"><path fill="url(#b)" d="M0 0h24v24H0z"/><path fill="url(#c)" fill-rule="evenodd" d="M17.451 6.54A7.716 7.716 0 1 0 6.55 17.46 7.716 7.716 0 0 0 17.45 6.54m-5.88 12.317a6.81 6.81 0 0 1-4.607-2.113A6.86 6.86 0 0 1 5.143 12a6.86 6.86 0 0 1 1.821-4.748 6.81 6.81 0 0 1 4.607-2.109V7.71a4.26 4.26 0 0 0-2.768 1.385A4.27 4.27 0 0 0 7.714 12c0 1.072.365 2.109 1.089 2.902a4.25 4.25 0 0 0 2.768 1.384zm5.452-2.113c-1.213 1.286-2.829 2.01-4.594 2.113v-2.571a4.302 4.302 0 0 0 2.755-7.196 4.23 4.23 0 0 0-2.755-1.375V5.143a6.75 6.75 0 0 1 5.987 4.303 6.92 6.92 0 0 1-1.393 7.298M12 15.43a3.428 3.428 0 1 0 0-6.857 3.428 3.428 0 0 0 0 6.857" clip-rule="evenodd"/></g><defs><linearGradient id="b" x1="4.466" x2="29.207" y1="4.161" y2="32.58" gradientUnits="userSpaceOnUse"><stop stop-color="#1A1E21"/><stop offset="1" stop-color="#06060A"/></linearGradient><linearGradient id="c" x1="4.603" x2="19.144" y1="15.335" y2="8.396" gradientUnits="userSpaceOnUse"><stop stop-color="#2D9DFD"/><stop offset="1" stop-color="#36D5FD"/></linearGradient><clipPath id="a"><path fill="#fff" d="M0 0h24v24H0z"/></clipPath></defs></svg>