<svg xmlns="http://www.w3.org/2000/svg" width="24" height="24" fill="none" viewBox="0 0 24 24"><g clip-path="url(#a)"><path fill="#1B38DA" d="M0 0h24v24H0z"/><path fill="#7899F8" d="M7.813 6.081H9.83l1.458-.913H9.44zM8.319 8.4l1.08-1.912h-2.13L6.24 8.473zm-.103.398v2.122H6.039V8.798zm4.487.806 1.457.879h1.907l-1.457-.879zm-.017 9.253h1.821l1.534-.9h-1.928zm-2.867-5.258 1.457.882H9.364l-1.457-.883zm5.944-.433v2.121h2.173v-2.121zm-1.192-2.31 1.08 1.915 2.079.073-1.029-1.988zm-6.257.458 1.08 1.916h-2.13L6.236 11.24zm6.257 6.283 1.08-1.916 2.079-.072-1.029 1.988z"/><path fill="#fff" d="M14.413 5.143h-2.109l1.136 1.933h2.13zm.668.343.935 1.697 1.628.844-.9-1.577-1.663-.968zM12.39 9.214l1.059-1.825 2.164.103-1.054 1.722h-2.173zm2.529.142 1.127-1.757 1.8 1.015-1.089 1.792zM4.714 10.685l.999-1.552v1.8l-.999 1.71v-1.959m1.213.745-1.166 1.877 1.123 1.852 1.037-1.852zm.15 4.029 1.157-1.873 1.925 1.088-1.183 1.788-1.899-.999zm1.869 1.337-1.569-.754.866 1.56 1.551.878zm1.513 2.027-1.063-1.886h2.198l1.012 1.886H9.459m1.671-10.14-.887 1.552 1.714-.986.746-1.462-1.577.896zm-1.011-2.349 1.774-1.105 1.114 1.885-1.864 1.123-1.029-1.903zm-.27.33L8.61 8.538l1.131 1.796 1.085-1.8zM8.61 9.21v1.873l.951 1.526v-1.873zm.909 5.597L8.366 16.51h2.25l1.028-1.702zm1.731 1.428.9-1.5 1.53-.905-.973 1.607zm1.509-.438-1.788 1.046 1.14 1.894 1.745-1.088-1.093-1.852zm1.697-4.384.943 1.56v1.899l-.943-1.543zm-.232 2.336 1.115 1.761-1.222 1.869-1.084-1.809zm3.926-4.877-1.08 1.842.994 1.942 1.222-1.942zm.073 4.243 1.028-1.66v1.818l-1.028 1.521z"/></g><defs><clipPath id="a"><path fill="#fff" d="M0 0h24v24H0z"/></clipPath></defs></svg>