<svg xmlns="http://www.w3.org/2000/svg" width="24" height="24" fill="none" viewBox="0 0 24 24"><g clip-path="url(#a)"><path fill="url(#b)" d="M0 0h24v24H0z"/><path fill="#fff" d="M13.714 7.286c0-1.83 1.037-2.143 2.143-2.143v8.602c0 .96.043 1.8-.428 2.54.857 0 1.714.987 1.714 2.144h-6.215c-2.472 0-4.5-2.1-4.5-4.684C6.428 11.155 8.614 9 11.087 9c.917 0 1.92.364 2.627.857zm-2.627 9c1.372 0 2.627-1.114 2.627-2.542a2.653 2.653 0 0 0-2.601-2.6 2.57 2.57 0 0 0-2.542 2.57c0 1.432 1.149 2.572 2.516 2.572"/></g><defs><linearGradient id="b" x1="3" x2="22.714" y1="19.286" y2="6" gradientUnits="userSpaceOnUse"><stop stop-color="#C41859"/><stop offset="1" stop-color="#4D0E75"/></linearGradient><clipPath id="a"><path fill="#fff" d="M0 0h24v24H0z"/></clipPath></defs></svg>