<svg xmlns="http://www.w3.org/2000/svg" width="24" height="24" fill="none" viewBox="0 0 24 24"><g clip-path="url(#a)"><path fill="url(#b)" d="M0 0h24v24H0z"/><path fill="url(#c)" d="m17.443 8.357-.017.004-8.25 8.417a1.187 1.187 0 0 1-1.702.009l-3.63-3.673c-.887-.891-.265-2.4.973-2.4h2.087c.365 0 .716.141.982.399l1.928 1.855-.985 1.072L6.9 12.214H4.941l3.382 3.36 8.091-8.28a1.44 1.44 0 0 1 1.029-.437h1.568c1.393 0 2.088 1.731 1.093 2.738l-7.097 7.17a1.26 1.26 0 0 1-1.808-.017l-.485-.501 1.029-1.033.368.386 6.986-7.029c.077-.077.022-.214-.086-.214H17.44z"/></g><defs><linearGradient id="b" x1="21.429" x2="4.286" y1="5.357" y2="20.786" gradientUnits="userSpaceOnUse"><stop offset=".33" stop-color="#021826"/><stop offset=".9" stop-color="#0E4460"/></linearGradient><linearGradient id="c" x1="20.559" x2="3.429" y1="8.421" y2="8.421" gradientUnits="userSpaceOnUse"><stop stop-color="#097CB8"/><stop offset="1" stop-color="#8ADECF"/></linearGradient><clipPath id="a"><path fill="#fff" d="M0 0h24v24H0z"/></clipPath></defs></svg>