<svg width="24" height="24" viewBox="0 0 24 24" fill="none" xmlns="http://www.w3.org/2000/svg">
<g clip-path="url(#clip0_31_9070)">
<path d="M0 0H24V24H0V0Z" fill="#F0F3FA"/>
<path d="M10.2856 6.42871H11.9999V18.0001H10.2856V17.143H8.9999V16.7144H8.57132V16.2859H8.14275V15.8573H7.71418V15.4287H7.28561V15.0001H6.85704V13.7144H6.42847V10.2859H6.85704V9.00014H7.28561V8.57157H7.71418V8.143H8.14275V7.71443H8.57132V7.28585H8.9999V6.85728H10.2856V6.42871Z" fill="#FFD058"/>
<path d="M13.7143 6.42871H12V18.0001H13.7143V17.143H15V16.7144H15.4286V16.2859H15.8571V15.8573H16.2857V15.4287H16.7143V15.0001H17.1429V13.7144H17.5714V10.2859H17.1429V9.00014H16.7143V8.57157H16.2857V8.143H15.8571V7.71443H15.4286V7.28585H15V6.85728H13.7143V6.42871Z" fill="#F8C056"/>
<path d="M11.1428 11.5714H10.2856V10.2857H10.7142V9.85714H12.4285V10.2857H11.5714V10.7143H11.1428V11.5714ZM14.1428 9H13.2856V9.85714H13.7142V11.5714H13.2856V12.4286H13.7142V13.2857H14.1428V14.1429H14.5714V15H15.4285V14.1429H14.9999V13.2857H14.5714V12.4286H14.1428V11.5714H14.5714V9.42857H14.1428V9ZM11.1428 12.4286H10.2856V15H11.1428V12.4286Z" fill="#C04A07"/>
<path d="M13.2856 9V9.85714H10.7142V10.2857H10.2856V11.5714H12.4285V12.4286H10.2856V15H9.42847V9.85714H9.85704V9.42857H10.2856V9H13.2856Z" fill="#E86609"/>
<path d="M12.4285 10.2857V9H13.2856V9.85714H13.7142V11.5714H13.2856V12.4286H13.7142V13.2857H14.1428V14.1429H14.5713V15H13.7142V14.5714H13.2856V13.7143H12.857V12.8571H12.4285V11.1429H12.857V10.2857H12.4285Z" fill="#E86609"/>
<path d="M12.0001 5.57129H10.2858V5.99986H9.0001V6.42843H8.14296V6.857H7.71439V7.28557H7.28582V7.71415H6.85725V8.14272H6.42868V8.99986H6.0001V10.2856H5.57153V13.2856H6.0001V14.5713H6.42868V15.4284H6.85725V15.857H7.28582V16.2856H7.71439V16.7141H8.14296V17.1427H9.0001V16.7141H8.57153V16.2856H8.14296V15.857H7.71439V15.4284H7.28582V14.9999H6.85725V13.7141H6.42868V10.2856H6.85725V8.99986H7.28582V8.57129H7.71439V8.14272H8.14296V7.71415H8.57153V7.28557H9.0001V6.857H10.2858V6.42843H12.0001V5.57129Z" fill="white"/>
<path d="M12 5.57129H13.7143V5.99986H15V6.42843H15.8571V6.857H16.2857V7.28557H16.7143V7.71415H17.1429V8.14272H17.5714V8.57129H18V10.2856H18.4286V13.2856H18V14.5713H17.5714V15.4284H17.1429V15.857H16.7143V16.2856H16.2857V17.1427H15V16.7141H15.4286V16.2856H15.8571V15.857H16.2857V15.4284H16.7143V14.9999H17.1429V13.7141H17.5714V10.2856H17.1429V8.99986H16.7143V8.57129H16.2857V8.14272H15.8571V7.71415H15.4286V7.28557H15V6.857H13.7143V6.42843H12V5.57129Z" fill="#F29914"/>
<path d="M10.2857 17.1431H9V17.5716H9.85714V18.0002H10.2857V17.1431Z" fill="white"/>
<path d="M13.7144 17.1431H15.0001V18.0002H13.7144V17.1431Z" fill="#F29914"/>
<path d="M11.9999 18H10.2856V18.4286H11.9999V18Z" fill="#FFE6A6"/>
<path d="M14.1429 18H12V18.4286H14.1429V18Z" fill="#F29914"/>
<path d="M10.2857 5.14307H13.7143V5.57164H10.2857V5.14307ZM13.7143 5.57164H15V6.00021H13.7143V5.57164ZM15 6.00021H15.8571V6.42878H15V6.00021ZM15.4285 6.42878H16.2857V6.85735H15.4285V6.42878ZM15.8571 6.85735H16.7143V7.28592H15.8571V6.85735ZM16.7143 7.28592H17.1428V7.7145H16.7143V7.28592ZM17.1428 7.7145H17.5714V8.14307H17.1428V7.7145ZM17.5714 8.14307H18V8.57164H17.5714V8.14307ZM18 8.57164H18.4285V10.2859H18V8.57164ZM18 13.2859H18.4285V14.5716H18V13.2859ZM17.1428 15.0002H17.5714V15.8574H17.1428V15.0002ZM16.7143 15.8574H17.1428V16.2859H16.7143V15.8574ZM17.5714 14.5716H18V15.0002H17.5714V14.5716ZM16.2857 16.2859H16.7143V16.7145H16.2857V16.2859ZM16.2857 16.7145H16.7143V17.1431H16.2857V16.7145ZM15.8571 17.1431H16.2857V17.5716H15.8571V17.1431ZM15 17.1431H15.8571V17.5716H15V17.1431ZM15 17.5716H15.4285V18.0002H15V17.5716ZM10.2857 18.4288H14.1428V18.8574H10.2857V18.4288ZM8.99997 17.5716H9.85711V18.0002H8.99997V17.5716ZM8.14282 17.1431H8.99997V17.5716H8.14282V17.1431ZM7.71425 16.7145H8.14282V17.1431H7.71425V16.7145ZM9.85711 18.0002H10.2857V18.4288H9.85711V18.0002ZM14.1428 18.0002H15V18.4288H14.1428V18.0002ZM7.28568 16.2859H7.71425V16.7145H7.28568V16.2859ZM6.85711 15.8574H7.28568V16.2859H6.85711V15.8574ZM6.42854 15.4288H6.85711V15.8574H6.42854V15.4288ZM5.99997 14.5716H6.42854V15.4288H5.99997V14.5716ZM5.57139 13.2859H5.99997V14.5716H5.57139V13.2859ZM5.14282 10.2859H5.57139V13.2859H5.14282V10.2859ZM5.57139 9.00021H5.99997V10.2859H5.57139V9.00021ZM5.99997 8.14307H6.42854V9.00021H5.99997V8.14307ZM6.42854 7.7145H6.85711V8.14307H6.42854V7.7145ZM6.85711 7.28592H7.28568V7.7145H6.85711V7.28592ZM7.28568 6.85735H7.71425V7.28592H7.28568V6.85735ZM7.71425 6.42878H8.14282V6.85735H7.71425V6.42878ZM8.14282 6.00021H8.99997V6.42878H8.14282V6.00021ZM8.99997 5.57164H10.2857V6.00021H8.99997V5.57164ZM18.4285 10.2859H18.8571V13.2859H18.4285V10.2859Z" fill="black"/>
</g>
<defs>
<clipPath id="clip0_31_9070">
<rect width="24" height="24" fill="white"/>
</clipPath>
</defs>
</svg>
