<svg xmlns="http://www.w3.org/2000/svg" width="24" height="24" fill="none" viewBox="0 0 24 24"><g clip-path="url(#a)"><path fill="#F0F3FA" d="M0 0h24v24H0z"/><path fill="url(#b)" d="M6.429 16.911V7.088c0-.84.685-1.517 1.542-1.517h4.788c3.6 0 6.527 2.88 6.527 6.429 0 3.548-2.923 6.428-6.527 6.428H7.967a1.525 1.525 0 0 1-1.538-1.517m1.088-3.973 2.092.455 4.534-3.716v5.85l1.714 1.466V7.97l-1.153-.63-7.187 5.593z"/></g><defs><linearGradient id="b" x1="12.857" x2="12.857" y1="5.571" y2="18.428" gradientUnits="userSpaceOnUse"><stop stop-color="#72F64B"/><stop offset=".83" stop-color="#2D6A1C"/></linearGradient><clipPath id="a"><path fill="#fff" d="M0 0h24v24H0z"/></clipPath></defs></svg>