<svg width="24" height="24" viewBox="0 0 24 24" fill="none" xmlns="http://www.w3.org/2000/svg">
<g clip-path="url(#clip0_31_9176)">
<path d="M0 0H24V24H0V0Z" fill="#180A3D"/>
<path d="M12 5.14713V12.03L9.30425 9.28713C8.43425 10.0328 8.16854 11.4428 8.12996 12.03C8.12996 14.3657 10.4614 15.9943 12 15.8271V18.8571C6.59139 18.6 5.17282 14.1986 5.14282 12.03C5.14282 7.21284 9.29568 5.0357 12 5.14713Z" fill="url(#paint0_linear_31_9176)"/>
<path d="M12 18.8531V11.9702L14.6957 14.7131C15.5657 13.9674 15.8314 12.5574 15.87 11.9702C15.87 9.63449 13.5386 8.00592 12 8.17307V5.14307C17.4086 5.40021 18.8271 9.80164 18.8571 11.9702C18.8571 16.7874 14.7043 18.9645 12 18.8531Z" fill="url(#paint1_linear_31_9176)"/>
</g>
<defs>
<linearGradient id="paint0_linear_31_9176" x1="8.57139" y1="5.14284" x2="8.57139" y2="18.8571" gradientUnits="userSpaceOnUse">
<stop offset="0.32" stop-color="#00E8F2"/>
<stop offset="1" stop-color="#3F28F7"/>
</linearGradient>
<linearGradient id="paint1_linear_31_9176" x1="15.4286" y1="18.8574" x2="15.4286" y2="5.14307" gradientUnits="userSpaceOnUse">
<stop offset="0.46" stop-color="#EA00D1"/>
<stop offset="1" stop-color="#6401F2"/>
</linearGradient>
<clipPath id="clip0_31_9176">
<rect width="24" height="24" fill="white"/>
</clipPath>
</defs>
</svg>
