<svg xmlns="http://www.w3.org/2000/svg" width="24" height="24" fill="none" viewBox="0 0 24 24"><g clip-path="url(#a)"><path fill="#341A95" d="M0 0h24v24H0z"/><path fill="url(#b)" d="M11.571 9V7.286h2.143l3.214 2.571.643 2.572c0 5.142-5.143 6.857-7.071 6.857-1.929 0-3.214-1.072-3.214-1.286l3.214-.429c1.428-.928 4.329-3.257 4.5-5.143C15 10.5 12.786 9.358 11.57 9"/><path fill="url(#c)" d="M11.572 15.857H9.429V4.714h1.928c2.972 0 6.429 2.572 6.215 8.143-.429-3.857-4.358-5.571-6-5.571z"/><path fill="url(#d)" d="m9.429 4.714-2.143 1.5V18h1.928c2.972 0 6.214-2.357 5.786-5.571-.857 3-3.929 3.428-5.571 3.428z"/></g><defs><linearGradient id="b" x1="12.428" x2="12.428" y1="7.286" y2="19.286" gradientUnits="userSpaceOnUse"><stop stop-color="#5A3B90"/><stop offset=".292" stop-color="#614397"/><stop offset=".615" stop-color="#8071B3"/><stop offset=".857" stop-color="#AEBADE"/><stop offset="1" stop-color="#C2DCF1"/></linearGradient><linearGradient id="c" x1="17.572" x2="9.429" y1="9.852" y2="9.852" gradientUnits="userSpaceOnUse"><stop stop-color="#6C5DF4"/><stop offset=".437" stop-color="#8093D6"/><stop offset="1" stop-color="#9DE2AE"/></linearGradient><linearGradient id="d" x1="7.286" x2="18" y1="12" y2="12" gradientUnits="userSpaceOnUse"><stop stop-color="#5B51EF"/><stop offset=".19" stop-color="#8367D3"/><stop offset=".45" stop-color="#B483AA"/><stop offset=".715" stop-color="#E7A081"/></linearGradient><clipPath id="a"><path fill="#fff" d="M0 0h24v24H0z"/></clipPath></defs></svg>