<svg xmlns="http://www.w3.org/2000/svg" width="24" height="24" fill="none" viewBox="0 0 24 24"><g clip-path="url(#a)"><path fill="#0D0B70" d="M0 0h24v24H0z"/><path fill="#30128D" d="M12 19.714a7.714 7.714 0 1 0 0-15.428 7.714 7.714 0 0 0 0 15.428"/><path fill="#7D1FA9" d="M12 18.351A6.351 6.351 0 1 0 12 5.65a6.351 6.351 0 0 0 0 12.702"/><path fill="#FB88F3" d="M12 16.804a4.804 4.804 0 1 0 0-9.608 4.804 4.804 0 0 0 0 9.608"/><path fill="#E7B2F8" d="M12 16.423a4.423 4.423 0 1 0 0-8.846 4.423 4.423 0 0 0 0 8.846"/><path fill="url(#b)" d="M15.908 12.146c0 2.228-1.491 3.214-3.681 3.776-.973.252-1.787.141-2.499 0-1.14-.228-1.752-1.029-2.087-2.143a2.8 2.8 0 0 1-.09-.849c0-1.616 2.109-4.808 4.329-4.808a4.03 4.03 0 0 1 4.028 4.028z"/></g><defs><linearGradient id="b" x1="14.554" x2="8.07" y1="9.549" y2="14.73" gradientUnits="userSpaceOnUse"><stop stop-color="#6DDFF4"/><stop offset=".42" stop-color="#10FDF7"/><stop offset=".65" stop-color="#20DFFB"/><stop offset="1" stop-color="#688FEB"/></linearGradient><clipPath id="a"><path fill="#fff" d="M0 0h24v24H0z"/></clipPath></defs></svg>