<svg width="24" height="24" viewBox="0 0 24 24" fill="none" xmlns="http://www.w3.org/2000/svg">
<g clip-path="url(#clip0_31_9239)">
<path d="M0 0H24V24H0V0Z" fill="#F0F3FA"/>
<path fill-rule="evenodd" clip-rule="evenodd" d="M12.0001 18.8572C13.8187 18.8572 15.5628 18.1348 16.8488 16.8488C18.1348 15.5628 18.8572 13.8187 18.8572 12.0001C18.8572 10.1814 18.1348 8.4373 16.8488 7.15134C15.5628 5.86537 13.8187 5.14293 12.0001 5.14293C10.1814 5.14293 8.4373 5.86537 7.15134 7.15134C5.86537 8.4373 5.14293 10.1814 5.14293 12.0001C5.14293 13.8187 5.86537 15.5628 7.15134 16.8488C8.4373 18.1348 10.1814 18.8572 12.0001 18.8572ZM12.0001 19.2858C13.9324 19.2858 15.7855 18.5182 17.1518 17.1518C18.5182 15.7855 19.2858 13.9324 19.2858 12.0001C19.2858 10.0678 18.5182 8.21463 17.1518 6.84829C15.7855 5.48196 13.9324 4.71436 12.0001 4.71436C10.0678 4.71436 8.21463 5.48196 6.84829 6.84829C5.48196 8.21463 4.71436 10.0678 4.71436 12.0001C4.71436 13.9324 5.48196 15.7855 6.84829 17.1518C8.21463 18.5182 10.0678 19.2858 12.0001 19.2858Z" fill="url(#paint0_linear_31_9239)"/>
<path fill-rule="evenodd" clip-rule="evenodd" d="M12 18.8574C13.8186 18.8574 15.5627 18.1349 16.8487 16.8489C18.1347 15.563 18.8571 13.8188 18.8571 12.0002C18.8571 10.1816 18.1347 8.43744 16.8487 7.15148C15.5627 5.86551 13.8186 5.14307 12 5.14307C10.1813 5.14307 8.4372 5.86551 7.15123 7.15148C5.86527 8.43744 5.14282 10.1816 5.14282 12.0002C5.14282 13.8188 5.86527 15.563 7.15123 16.8489C8.4372 18.1349 10.1813 18.8574 12 18.8574ZM9.71997 7.7145C9.68113 7.71505 9.64279 7.72326 9.60712 7.73864C9.57146 7.75402 9.53917 7.77627 9.51211 7.80413C9.48505 7.83199 9.46374 7.8649 9.4494 7.901C9.43506 7.93709 9.42797 7.97566 9.42854 8.0145C9.42854 8.17735 9.55711 8.31449 9.71997 8.31449H9.89997L10.1528 9.00021H13.8728L14.1128 8.31449H14.2757C14.3147 8.31547 14.3535 8.30836 14.3896 8.29361C14.4258 8.27886 14.4585 8.25679 14.4857 8.22878C14.5134 8.20049 14.5353 8.16699 14.55 8.13021C14.5647 8.09343 14.572 8.0541 14.5714 8.0145C14.5716 7.93467 14.5409 7.85786 14.4857 7.80021C14.4578 7.77188 14.4244 7.74963 14.3875 7.73488C14.3506 7.72012 14.3111 7.71318 14.2714 7.7145H9.72425H9.71997ZM9.71997 9.42878C9.68113 9.42934 9.64279 9.43754 9.60712 9.45292C9.57146 9.4683 9.53917 9.49056 9.51211 9.51841C9.48505 9.54627 9.46374 9.57919 9.4494 9.61529C9.43506 9.65138 9.42797 9.68995 9.42854 9.72878C9.42854 9.89164 9.55711 10.0288 9.71997 10.0288H9.89997L10.1528 10.7145H13.8728L14.1128 10.0288H14.2757C14.3136 10.028 14.3509 10.0197 14.3855 10.0042C14.4201 9.98877 14.4513 9.96651 14.4771 9.93878C14.5048 9.91049 14.5267 9.87699 14.5414 9.84021C14.5561 9.80343 14.5634 9.7641 14.5628 9.7245C14.5619 9.64615 14.5313 9.57108 14.4771 9.5145C14.4239 9.46045 14.3515 9.42963 14.2757 9.42878H9.71568H9.71997ZM9.71997 11.1431C9.68113 11.1436 9.64279 11.1518 9.60712 11.1672C9.57146 11.1826 9.53917 11.2048 9.51211 11.2327C9.48505 11.2606 9.46374 11.2935 9.4494 11.3296C9.43506 11.3657 9.42797 11.4042 9.42854 11.4431C9.42854 11.6059 9.55711 11.7431 9.71997 11.7431H9.89997L10.2857 12.4288H13.7143L14.1128 11.7431H14.2757C14.3147 11.744 14.3535 11.7369 14.3896 11.7222C14.4258 11.7074 14.4585 11.6854 14.4857 11.6574C14.5134 11.6291 14.5353 11.5956 14.55 11.5588C14.5647 11.522 14.572 11.4827 14.5714 11.4431C14.5716 11.3632 14.5409 11.2864 14.4857 11.2288C14.4578 11.2004 14.4244 11.1782 14.3875 11.1634C14.3506 11.1487 14.3111 11.1418 14.2714 11.1431H9.72425H9.71997ZM13.7143 12.6431H10.2857V13.2859H13.7143V12.6431ZM9.71997 16.5431C9.68113 16.5436 9.64279 16.5518 9.60712 16.5672C9.57146 16.5826 9.53917 16.6048 9.51211 16.6327C9.48505 16.6606 9.46374 16.6935 9.4494 16.7296C9.43506 16.7657 9.42797 16.8042 9.42854 16.8431C9.42854 17.0102 9.55711 17.1431 9.71568 17.1431H14.2757C14.3147 17.144 14.3535 17.1369 14.3896 17.1222C14.4258 17.1074 14.4585 17.0854 14.4857 17.0574C14.5134 17.0291 14.5353 16.9956 14.55 16.9588C14.5647 16.922 14.572 16.8827 14.5714 16.8431C14.5716 16.7632 14.5409 16.6864 14.4857 16.6288C14.4578 16.6004 14.4244 16.5782 14.3875 16.5634C14.3506 16.5487 14.3111 16.5418 14.2714 16.5431H14.1343C13.9543 16.3588 13.7143 15.7716 13.7143 14.5631V13.7145H12.4285V16.7145H11.5714V13.7145H10.2857V14.5631C10.2857 15.7716 10.05 16.3588 9.86997 16.5474H9.71568L9.71997 16.5431Z" fill="url(#paint1_linear_31_9239)"/>
</g>
<defs>
<linearGradient id="paint0_linear_31_9239" x1="12.0001" y1="4.71436" x2="12.0001" y2="19.2858" gradientUnits="userSpaceOnUse">
<stop stop-color="#DEBF54"/>
<stop offset="1" stop-color="#AA7D2B"/>
</linearGradient>
<linearGradient id="paint1_linear_31_9239" x1="9.21425" y1="6.64307" x2="13.5" y2="18.2145" gradientUnits="userSpaceOnUse">
<stop stop-color="#FACA56"/>
<stop offset="1" stop-color="#C79536"/>
</linearGradient>
<clipPath id="clip0_31_9239">
<rect width="24" height="24" fill="white"/>
</clipPath>
</defs>
</svg>
