<svg width="24" height="24" viewBox="0 0 24 24" fill="none" xmlns="http://www.w3.org/2000/svg">
<g clip-path="url(#clip0_31_9530)">
<path d="M0 0H24V24H0V0Z" fill="url(#paint0_linear_31_9530)"/>
<path d="M5.32283 14.4127C5.30997 14.2842 5.47711 14.0956 5.56283 14.0142L5.5114 13.337C5.30767 13.244 5.13076 13.101 4.99711 12.9213L5.0614 11.5413L5.25854 10.7785C5.18997 10.8856 5.01426 11.0956 4.86426 11.0956C4.71426 11.0956 4.70569 10.8813 4.71854 10.7785V10.1485C4.71854 6.57846 7.39711 5.3056 8.73854 5.11275C8.89283 4.87703 9.28283 4.84703 9.45854 4.86417C9.67283 4.78703 10.2 4.56846 10.5471 4.86417C10.83 5.09989 10.4957 5.4556 10.2943 5.6056C10.38 5.72132 10.7657 5.95703 11.5885 5.95703C12.6171 5.95703 13.5085 5.11275 14.3314 5.11275C14.9957 5.11275 15.4414 5.24132 15.5785 5.30132L15.6385 5.72989C17.49 6.27417 17.6528 8.24989 17.5071 9.16703C18.1671 10.1656 18.15 10.4013 18.15 10.6585C18.1279 10.8688 18.0575 11.0712 17.9443 11.2499C18.09 11.4985 18.1714 12.0685 18.1971 12.3213C18.6128 12.5227 19.2857 12.9985 19.2857 13.7485C19.2857 14.3485 19.0328 14.7642 18.9043 14.897L19.0628 15.2399C19.0628 16.0756 18.7843 16.7656 18.6428 17.0056L18.1971 17.1513C17.5071 18.6856 15.96 19.2856 14.8028 19.2856C13.8814 19.2856 13.0585 19.0756 12.7671 18.9727L11.8971 19.0285C11.8028 19.1142 11.5757 19.2856 11.4257 19.2856C11.2371 19.2856 10.5257 19.1827 10.2428 19.0713C10.0243 18.9813 9.93426 18.8142 9.91711 18.737C9.60666 18.6743 9.30941 18.5583 9.03854 18.3942C8.37854 18.6642 7.96711 18.3427 7.9114 18.3427C7.33158 18.0209 6.8614 17.5328 6.5614 16.9413C6.43283 16.6713 6.47569 16.3413 6.51854 16.2042L6.3514 15.9513C6.08569 15.9642 5.95283 15.9085 5.92283 15.8742C5.60593 15.4437 5.39987 14.9417 5.32283 14.4127Z" fill="#29344A"/>
<path d="M14.0143 9.63012C14.1215 9.6644 14.3443 9.7544 14.4258 9.8444L15.1329 9.96012L15.6172 9.82298V9.48869C15.6343 9.43726 15.6772 9.30012 15.0858 9.36012C14.7163 9.39084 14.3543 9.48206 14.0143 9.63012ZM7.23434 14.4387C7.15291 14.863 7.61577 15.0815 7.85577 15.1415L7.56005 15.4415C7.26863 15.4844 6.68577 15.3601 6.68577 14.5715C6.68577 13.8087 7.23434 12.9773 7.49577 12.5787C7.56863 12.463 7.62434 12.3858 7.62434 12.3601C7.64577 12.2615 7.68863 11.0915 7.70577 10.5173L7.44862 10.153L7.83005 9.9044C7.59005 10.0758 7.7872 10.3844 7.91577 10.5215L8.40863 10.2601C8.55434 10.1915 8.85005 10.0458 8.88434 10.0415C8.91862 10.033 9.13291 9.79298 9.23577 9.67298L9.36005 10.153C8.96901 10.2632 8.62123 10.4908 8.3637 10.8051C8.10618 11.1193 7.95132 11.505 7.92005 11.9101L7.70577 13.8301C7.58148 13.8558 7.32005 14.0144 7.23434 14.4387ZM7.85577 9.88726C7.84696 9.89262 7.83838 9.89834 7.83005 9.9044L7.85577 9.88726ZM6.79291 12.1073C6.79291 11.9444 6.8872 11.893 6.93434 11.8715L6.95577 11.863C6.66434 11.7601 6.63005 12.0601 6.65148 12.223C6.6172 12.223 6.54863 12.1801 6.54863 12.0301C6.54863 11.8801 6.75005 11.7301 6.84863 11.6744C6.48863 11.623 6.41148 11.8887 6.42005 12.0301C6.42005 12.4844 6.74148 12.3901 6.90434 12.2873C6.86577 12.2873 6.78863 12.253 6.79291 12.1073ZM10.3715 9.94726C10.3843 9.91726 10.6372 9.7844 11.5158 10.0201C12.3901 10.2515 13.0501 10.1915 13.5386 9.84869C13.5086 9.92583 13.5086 10.1315 13.7615 10.3373V10.9458C13.4872 11.0058 12.9301 11.1173 12.8915 11.0915C12.8795 11.0821 12.8681 11.0721 12.8572 11.0615C12.7329 10.9373 12.3129 10.5301 11.7172 10.5773C11.4343 10.3415 10.7615 9.88726 10.3715 9.94726ZM14.0786 10.0844C14.0186 9.98155 13.8172 9.96869 13.7186 9.97726C13.7817 9.92997 13.8584 9.9044 13.9372 9.9044C14.016 9.9044 14.0927 9.92997 14.1558 9.97726C14.0701 9.89155 13.9243 9.8444 13.8643 9.82726C13.8986 9.77583 14.0186 9.70298 14.2072 9.85726C14.3915 10.0073 14.2501 10.2258 14.1558 10.3158C14.1558 10.2815 14.1343 10.1873 14.0786 10.0844ZM11.7429 12.6901C11.4943 12.8401 11.0058 13.4358 10.7915 13.7187C11.1086 13.2044 11.7686 12.1587 11.8758 12.0173C12.1604 11.6684 12.54 11.4094 12.9686 11.2715L14.9358 10.7487L15.5701 11.4173H14.5029C14.4001 11.4173 14.3143 11.4473 14.2115 11.4773C14.0743 11.5244 13.9201 11.5801 13.6843 11.563C13.2729 11.5373 12.6429 11.7944 12.4886 12.0815C12.3601 12.3215 12.1458 12.4501 11.8972 12.5958L11.7429 12.6901ZM16.0372 11.4944C16.0715 11.503 16.1101 11.5115 16.1486 11.5115L16.1315 11.5158C16.3715 11.5715 16.8515 11.533 16.8515 10.9287C16.8544 10.778 16.8227 10.6286 16.7588 10.492C16.6949 10.3555 16.6006 10.2354 16.483 10.141C16.3655 10.0466 16.2278 9.98048 16.0807 9.94763C15.9336 9.91478 15.7809 9.91612 15.6343 9.95155C15.8186 9.95155 16.1786 10.0373 16.3758 10.3458C16.2832 10.2463 16.1653 10.1737 16.0347 10.136C15.9041 10.0983 15.7657 10.0967 15.6343 10.1315C15.8058 10.1315 16.1872 10.2301 16.3072 10.6458C16.4615 11.1558 16.1615 11.4601 16.0372 11.4944ZM7.55148 16.783C7.4572 16.6973 7.23863 16.6201 7.14005 16.5901C7.14005 16.7058 7.3072 16.9973 7.47005 17.2844L7.52577 17.383C7.70577 17.7001 8.33577 17.9058 8.38291 17.803C8.43862 17.7001 8.22434 17.533 8.02291 17.383C7.83731 17.2071 7.67849 17.0049 7.55148 16.783ZM9.5572 17.803C9.63005 17.9187 9.77148 18.0815 9.92577 18.0815C10.1058 18.0815 10.1529 17.923 10.1529 17.8458C9.99434 17.8973 9.6772 17.9573 9.55291 17.803H9.5572Z" fill="#4B5C7A"/>
<path d="M13.86 12.8271C13.7486 12.6814 13.8172 12.5699 13.86 12.5356C13.92 12.7242 14.2543 12.8271 14.61 12.8785C14.9658 12.9299 14.8329 12.8271 14.97 12.9642C15.0815 13.0671 14.9272 13.2728 14.8329 13.3585C15.0343 13.3071 15.12 13.1314 15.1415 13.0499L15.7843 13.3585C15.6815 13.3028 15.6215 13.1314 15.6086 13.0499C15.7372 13.2771 16.3029 13.3585 16.4572 13.3585C16.5772 13.3585 16.5858 13.4442 16.5729 13.4871C16.6372 13.4828 16.7615 13.5171 16.7315 13.6842C16.7015 13.8556 16.38 13.9499 16.2258 13.9756C16.7658 14.0185 16.8686 13.8214 16.8515 13.7185C17.1257 13.973 17.3382 14.2867 17.4729 14.6356C17.43 14.6914 17.3143 14.8585 17.1729 15.0728C17.0315 15.2871 16.9629 16.0156 16.95 16.3499C16.86 16.5814 16.2472 17.0571 15.9515 17.2671L16.02 16.6671L16.2258 14.8928L14.5029 13.7785C14.3315 13.5214 13.9715 12.9685 13.86 12.8271Z" fill="#505E81"/>
<path d="M5.42574 8.16016C5.08288 8.8973 5.00574 10.0459 5.00574 10.5302C5.40002 10.2302 6.30431 9.62159 6.76717 9.62159C7.23431 9.62159 7.38002 9.86587 7.39288 9.99016C7.56431 9.80587 8.01002 9.4373 8.43431 9.4373C8.85859 9.4373 9.00431 9.56159 9.02574 9.62159L9.15431 9.39444V9.1373L9.02574 9.27873L8.88002 7.82158V9.27873C8.24574 9.00444 7.71431 9.43301 7.53002 9.68158C7.56748 8.5422 7.9769 7.44639 8.69574 6.56159L8.65717 6.42444C7.96288 6.90873 7.44859 8.75587 7.28145 9.62159C7.23859 9.50159 7.04145 9.2873 6.59574 9.39444C6.15431 9.50158 5.52431 9.90873 5.26717 10.0973C5.23717 9.18444 5.56288 8.38301 5.72574 8.09587C6.41145 6.78016 7.96717 5.91016 8.65717 5.64444L8.80717 5.94444C8.82002 5.91873 8.88431 5.85873 9.02574 5.82016C9.17145 5.78587 9.29574 5.88873 9.33859 5.94873L9.71145 5.70016C9.59059 5.65222 9.48118 5.57935 9.39036 5.48631C9.29953 5.39327 9.22932 5.28214 9.18431 5.16016H9.13717C9.12859 5.29301 9.23574 5.50301 9.29145 5.5973C9.17495 5.50769 9.08345 5.38962 9.02574 5.25444L8.88002 5.36587C8.86717 5.37873 8.79431 5.52444 8.76431 5.5973L8.69574 5.46016C7.99816 5.66937 7.34949 6.01603 6.7879 6.47973C6.22632 6.94342 5.76318 7.51477 5.42574 8.16016Z" fill="#CEDDF7"/>
<path fill-rule="evenodd" clip-rule="evenodd" d="M6.64712 9.92581C6.68998 9.86581 6.80569 9.74581 6.90426 9.77153H6.91283C7.04141 9.80581 7.16998 9.8401 7.23855 10.2258C7.25141 10.2987 7.36712 10.4401 7.72283 10.4401C8.16855 10.4401 8.52426 10.0072 8.55426 9.6001L9.06855 9.77153V10.0287C8.69998 10.1872 7.96283 10.8344 7.96283 12.163C7.97141 12.6901 8.33998 13.7058 9.76284 13.5515L9.88283 13.6372L9.96426 14.0872L9.76712 14.1815L9.37284 13.9887C9.30855 14.1044 9.26141 14.4172 9.59569 14.743C9.53998 14.7644 9.35569 14.7644 9.06855 14.5758C8.97855 14.6615 8.88426 14.9358 9.23141 15.3215V15.4587L9.00426 15.2787C8.89712 15.3815 8.75998 15.6644 9.06855 16.0158C9.02569 16.1915 9.09855 16.5601 9.68141 16.6244C9.76283 16.6972 9.99426 16.843 10.3114 16.8644L10.4271 17.4558C10.4271 17.5415 10.4914 17.7087 10.7614 17.683C11.0314 17.6572 11.1257 17.6101 11.1385 17.5887L11.46 17.8244C11.4085 17.9272 11.3828 18.1715 11.6571 18.3387C11.9314 18.5058 12.0943 18.6387 12.1414 18.6815H11.1685L11.6571 18.7715C11.6743 18.8701 11.6014 19.0458 11.1685 18.9901L11.0057 18.9687C10.5643 18.9172 10.3371 18.8915 10.26 18.5615L10.6114 18.5958C10.1657 18.4801 9.23998 18.2101 9.11141 18.0387L9.23141 17.8972L8.41712 18.1844C8.15569 18.103 7.55998 17.8287 7.25569 17.3787L7.07141 17.1215C6.83141 16.7787 6.74998 16.6672 6.86569 16.3715C6.89998 16.2858 6.93426 16.2172 6.96426 16.1572C7.06283 15.9644 7.11426 15.8572 6.93855 15.6087L6.86569 16.0801L6.39426 15.253L6.45426 15.6087L6.11998 15.6515C5.84805 15.3154 5.67979 14.9074 5.63569 14.4772L5.86283 14.1815L6.11998 14.7815C5.90363 13.9403 5.79845 13.0744 5.80712 12.2058L5.67855 13.1487L5.33569 12.9215C5.25685 12.5267 5.2352 12.1225 5.27141 11.7215C5.32069 11.2946 5.49011 10.8903 5.75998 10.5558L6.19712 10.4401C6.08569 10.7358 5.86283 11.3958 5.86283 11.6872C6.03426 11.2115 6.44141 10.1872 6.64712 9.9301V9.92581ZM6.56141 11.0015C6.61712 11.0187 6.68998 10.933 6.72426 10.8087C6.76283 10.6844 6.74141 10.573 6.68141 10.5601C6.62569 10.543 6.55283 10.6287 6.51426 10.753C6.47998 10.873 6.49712 10.9844 6.55712 11.0015H6.56141ZM7.11855 12.0558C7.10569 12.3387 6.90426 12.5615 6.67712 12.553C6.44998 12.5401 6.27426 12.3001 6.28712 12.013C6.29998 11.7301 6.50141 11.503 6.72855 11.5158C6.95998 11.5287 7.13569 11.7687 7.11855 12.0558ZM7.93283 14.3358C8.12998 14.8415 7.98855 15.3644 7.61998 15.5058C7.25141 15.643 6.78855 15.343 6.59141 14.833C6.39426 14.3272 6.53141 13.8044 6.89998 13.6672C7.27283 13.5301 7.73141 13.8301 7.92855 14.3358H7.93283ZM10.3585 18.0515C10.4143 17.893 10.2471 17.6915 9.98569 17.6058C9.72855 17.5201 9.47141 17.5758 9.41569 17.7344C9.35998 17.8972 9.52283 18.0987 9.78426 18.1887C10.0414 18.2744 10.2985 18.2144 10.3585 18.0515ZM7.99283 16.9887C8.35712 17.4001 8.53712 17.8287 8.39998 17.9444C8.25855 18.0644 7.85141 17.8244 7.48712 17.413C7.12712 17.0015 6.94283 16.573 7.08426 16.453C7.22569 16.3372 7.63283 16.5772 7.99283 16.9887ZM6.25712 13.7572C6.28283 13.8815 6.25712 13.993 6.19712 14.0058C6.14141 14.0187 6.06855 13.9287 6.04283 13.8044C6.01283 13.6758 6.04283 13.5687 6.09855 13.5558C6.15855 13.543 6.22712 13.633 6.25712 13.7572Z" fill="url(#paint1_linear_31_9530)"/>
<path d="M9.78855 11.1384C9.63427 11.1384 9.39855 11.2413 9.2957 11.2927L9.44998 11.1384L9.2957 10.3027C8.9957 10.4742 8.06998 10.9584 8.14713 12.2699C8.21141 13.3156 9.23141 13.4999 9.73284 13.4613C10.0543 13.6113 10.3328 13.4527 10.4314 13.3542C10.2428 13.2556 10.1914 12.977 10.1871 12.8527L9.81427 12.797C10.0371 12.8184 10.32 12.737 10.4314 12.6899C10.4314 12.6342 10.4186 12.5013 10.3843 12.4113C10.349 12.3017 10.3288 12.1878 10.3243 12.0727C10.1528 12.1499 9.8957 12.1284 9.78855 12.1113C9.96449 12.0857 10.1352 12.0322 10.2943 11.9527C10.26 11.9227 10.1871 11.8156 10.1871 11.627C10.1871 11.4427 10.2771 11.3699 10.3243 11.3527C10.2086 11.2799 9.93855 11.1384 9.78855 11.1384Z" fill="url(#paint2_linear_31_9530)"/>
<path d="M10.7786 11.4429C10.6757 11.4857 10.4143 11.4857 10.2986 11.4772C10.29 11.5543 10.29 11.73 10.3286 11.8457C10.4304 11.821 10.5246 11.7717 10.603 11.7023C10.6814 11.6328 10.7417 11.5452 10.7786 11.4472V11.4429ZM10.9928 12.1029C10.8771 12.1457 10.5728 12.1414 10.4357 12.1329C10.4314 12.21 10.4271 12.3857 10.47 12.5014C10.5828 12.482 10.6892 12.4356 10.7802 12.3662C10.8712 12.2968 10.9442 12.2065 10.9928 12.1029ZM10.3071 12.9386C10.4228 12.9129 10.6757 12.8443 10.7571 12.7757C10.7571 12.8914 10.6843 13.1572 10.44 13.2857C10.3767 13.1782 10.3317 13.0609 10.3071 12.9386Z" fill="#E5EFF9"/>
<path d="M13.6971 12.3687C11.31 12.4201 10.7057 14.4044 10.6971 15.3901C10.7983 15.1596 10.9718 14.9683 11.1915 14.8453C11.4111 14.7224 11.6649 14.6744 11.9143 14.7087V14.3829C11.8858 14.1868 11.8858 13.9876 11.9143 13.7915C11.9571 13.6587 12.3043 13.5729 12.4757 13.5472C12.7629 12.8701 13.2686 12.7329 13.4871 12.7501V12.6644L13.6971 12.3687Z" fill="#EBEEF3"/>
<path d="M14.55 11.7427C15.3251 11.8499 16.0542 12.1739 16.6532 12.6774C17.2522 13.1809 17.6968 13.8433 17.9357 14.5885C18.06 14.5885 18.1586 14.627 18.1929 14.6442C18.2143 14.3613 18.0643 13.5642 17.3571 12.647C16.6457 11.7256 15.1886 11.6613 14.55 11.747V11.7427ZM12.7929 12.2356C13.3157 12.1327 14.6271 12.0685 15.6814 12.6427C16.5082 13.1168 17.1989 13.7957 17.6871 14.6142H17.8457C17.6186 13.9713 16.8343 12.5956 15.4886 12.1885C13.8 11.687 12.8743 11.897 12.7886 12.2313L12.7929 12.2356Z" fill="url(#paint3_linear_31_9530)"/>
<path d="M17.0743 16.8002C16.5258 17.4559 15.4286 18.0945 14.9486 18.3302C16.4229 18.0816 17.0829 17.2802 17.2286 16.9116L17.0743 16.7959V16.8002Z" fill="#BCC7D0"/>
<path d="M14.3871 18.6131C13.1871 18.6131 12.2443 18.2231 11.9229 18.0259C12.0943 18.3259 12.8271 18.9345 14.3871 18.9345C16.6543 18.9345 17.6314 17.6616 17.8371 17.0273C17.7943 17.0916 17.5243 17.0531 17.3914 17.0273C17.2071 17.5202 15.8957 18.6131 14.3914 18.6131H14.3871Z" fill="url(#paint4_linear_31_9530)"/>
<path d="M9.62145 14.8972C9.63002 15.0686 9.46716 15.2615 9.38573 15.3343C9.40716 15.6215 9.70716 15.7157 9.85716 15.7243C9.74144 15.7586 9.60002 15.7372 9.54002 15.7243C9.51859 15.8743 9.32573 16.0672 9.23145 16.1443C9.31201 16.1337 9.38708 16.0977 9.44573 16.0415C9.40287 16.1529 9.28287 16.2086 9.23145 16.2215C9.3343 16.4529 9.60859 16.4957 9.73287 16.4872C9.9043 16.7315 10.4014 16.7315 10.6286 16.7015C10.14 15.7757 10.4229 14.6915 10.6286 14.2672C10.3457 14.1129 10.1143 14.1515 10.0372 14.1857C10.0886 14.3957 9.87859 14.6657 9.76716 14.7729C9.81859 14.9015 10.0457 15.0472 10.1529 15.1029C9.82716 15.06 9.73716 14.9486 9.73287 14.8972H9.62145Z" fill="url(#paint5_linear_31_9530)"/>
<path d="M9.44143 14.0957C9.42 14.22 9.44143 14.4986 9.67715 14.6186C9.74572 14.6186 9.88715 14.5457 9.87857 14.2971C9.70715 14.2757 9.44572 14.1086 9.44143 14.0957ZM9.31286 15.21C9.07715 15.0857 9.05572 14.8071 9.07715 14.6828C9.07715 14.6957 9.34286 14.8671 9.51429 14.8886C9.52286 15.1371 9.38572 15.2057 9.31286 15.21ZM9.18 15.99C8.96572 15.8271 9 15.5486 9.04286 15.4328C9.04286 15.4457 9.26572 15.6557 9.43286 15.7071C9.39429 15.9557 9.24857 15.9986 9.17572 15.99H9.18Z" fill="#F9FFFF"/>
<path d="M17.0057 9.81449C16.7518 9.46417 16.4755 9.13062 16.1786 8.81592L16.3071 9.53592L15.4757 9.3302L15.7671 9.72878L15.5443 9.81449C15.33 9.88306 14.9014 10.1316 14.9314 10.5859C14.9571 11.0402 15.4029 11.3573 15.6257 11.4602C15.5143 11.3616 15.2914 11.0702 15.2914 10.6716C15.2914 10.1788 15.6129 9.81449 16.0114 9.81449C16.4143 9.81449 17.0057 10.1573 17.0057 10.8431C17.0057 11.3916 16.7186 11.6488 16.5729 11.7045C17.0311 11.9223 17.444 12.2248 17.79 12.5959C17.7814 11.6402 17.4429 10.6588 17.2757 10.2902C17.49 10.5345 17.6486 10.9759 17.7 11.1688L17.8543 10.8431C17.6443 9.74163 17.0271 9.1202 16.74 8.94449H16.4486C16.6629 9.16735 16.9071 9.61735 17.0057 9.81449Z" fill="url(#paint6_linear_31_9530)"/>
<path d="M10.2343 11.1257L10.1057 10.38L10.1914 10.1315C11.3014 10.1315 12.0471 10.9586 12.2786 11.3743C12.2041 11.1005 12.0488 10.8556 11.8329 10.6715C12.2014 10.71 12.5143 11.0272 12.6257 11.1857C12.6 11.0143 12.4414 10.8429 12.3643 10.7872C12.5186 10.8 12.8914 10.8172 13.1486 10.7872C13.4057 10.7572 13.6843 10.4657 13.7914 10.3243C13.8643 10.3586 14.04 10.4272 14.1771 10.4272C14.3486 10.4272 14.5114 10.3286 14.5114 10.1272C14.5114 9.97288 14.4557 9.87431 14.4257 9.8486L14.9829 9.77145C15.2829 9.7286 15.5057 9.7886 15.5829 9.82288L15.63 9.77145L15.4714 9.34717C15.6514 9.34717 15.7886 9.40288 15.8314 9.4286L16.1057 9.77145C15.6343 9.75431 15.4586 9.93431 15.2829 10.2429C15.1457 10.4872 15.2271 10.9072 15.2829 11.0829C14.49 11.0829 14.1343 11.2029 13.7057 11.34C13.2771 11.4729 13.3414 11.4643 12.8657 11.5115C12.3943 11.5672 12.27 11.9229 12.1329 12.1029C11.9479 12.3552 11.7184 12.5716 11.4557 12.7415C11.1857 12.9129 10.8429 13.6243 10.7014 13.9543L10.6157 13.3029C11.0529 12.8872 10.8771 12.7029 10.8471 12.6729C10.8214 12.6472 10.7057 12.6815 10.6543 12.7029V12.6172C11.1257 12.3815 11.1086 12.06 11.04 11.9229C10.8986 12.0215 10.6157 12.0215 10.4914 12.0086L10.4657 11.9229C10.9071 11.7643 10.9629 11.4643 10.9371 11.3357H10.4486L10.2343 11.1215V11.1257Z" fill="url(#paint7_linear_31_9530)"/>
<path d="M16.0928 8.20262C16.0928 7.95833 16.05 7.40976 15.8785 7.18262C15.8785 7.2469 16.02 7.88976 16.0928 8.20262Z" fill="#BCC8D4"/>
<path d="M16.2215 6.98145L15.9729 7.13144C16.0586 7.2943 16.23 7.7743 16.1872 8.41716C16.23 8.48144 16.41 8.60573 16.7272 8.57573C16.7272 7.76145 16.3886 7.1743 16.2215 6.98145Z" fill="#C0C5CB"/>
<path d="M15.8829 7.07119L15.7629 6.50976L16.0115 6.26547C16.0415 6.23976 16.0886 6.33833 16.1058 6.39404L16.1443 6.68547L16.2515 6.39404C17.0872 6.92976 17.16 8.19833 17.0915 8.76404L16.8343 8.63119C16.8769 7.99053 16.6678 7.35855 16.2515 6.86976L15.8829 7.07119ZM15.8229 6.17119C15.7672 6.21833 15.7372 6.3769 15.7372 6.39833L15.93 6.1669C15.93 6.1669 15.8743 6.11547 15.8229 6.1669V6.17119Z" fill="#D3D9F3"/>
<path d="M15.1501 15.0857L14.2329 15C14.2329 15.1714 14.4558 15.5743 14.8843 15.5743C15.3129 15.5743 15.3386 15.4757 15.3515 15.3729C15.3643 15.27 15.2872 15.2486 15.2143 15.2271C15.1543 15.2057 15.1458 15.1286 15.1501 15.0943V15.0857Z" fill="#D9D8DD"/>
<path d="M12.2358 14.5884C12.0901 14.5756 12.1501 14.6484 12.1501 14.6656C12.1501 14.7127 12.3043 14.8499 12.4501 14.867C12.5915 14.8841 12.6901 14.6999 12.6429 14.6656C12.6001 14.6313 12.3858 14.6013 12.2358 14.5884Z" fill="#E2E3E5"/>
<path fill-rule="evenodd" clip-rule="evenodd" d="M11.8157 14.9273C12.5443 14.9273 13.1572 15.2273 13.3715 15.3773C13.3027 15.255 13.2075 15.1496 13.0929 15.0687L13.1615 15.0087V14.7644C13.2815 14.7859 13.4143 14.6444 13.4143 14.6016C13.4143 14.5587 13.3843 14.3316 13.3715 14.2244C13.3715 14.4987 13.26 14.6187 13.2086 14.6444L12.1157 14.3359L12.1715 13.8773C12.3172 13.8259 12.6129 13.7273 12.6515 13.7273C12.8357 13.0502 13.3115 12.9216 13.5257 12.943C13.5298 12.9993 13.5497 13.0532 13.583 13.0987C13.6164 13.1442 13.6619 13.1794 13.7143 13.2002C13.5857 12.9259 13.7143 12.7759 13.8 12.7373C13.8815 12.9816 14.5329 13.0716 14.85 13.0887C14.85 13.2302 14.7086 13.3544 14.64 13.3973C14.7686 13.4616 15.0043 13.3287 15.1072 13.2516L15.3129 13.363C15.3086 13.5344 15.39 13.6287 15.4329 13.6544C15.39 13.3716 15.4972 13.2344 15.5615 13.2002C15.6986 13.5773 16.2815 13.5516 16.3757 13.5473H16.3843C16.47 13.8044 16.2129 13.9459 16.0715 13.9844H16.3543C16.8129 14.0273 16.9415 14.5416 16.9457 14.7987C16.897 14.7987 16.849 14.8104 16.8058 14.8327C16.7625 14.8551 16.7253 14.8875 16.6972 14.9273C16.6543 15.2702 16.56 15.9816 16.5215 16.0973C16.4786 16.2173 16.4957 16.3287 16.5043 16.3716L16.6157 16.4659C15.9472 17.8673 14.31 18.2144 13.5729 18.2144C11.1815 18.2144 10.8086 16.2859 10.8086 16.0716C10.8086 15.8573 10.9072 14.9273 11.8157 14.9273ZM13.8129 14.893C13.56 14.6873 14.0229 14.4087 14.1429 14.3359L14.1643 14.323C14.0915 14.4044 13.9329 14.593 13.8857 14.6916C13.8429 14.7902 13.9715 14.8073 14.0443 14.803H15.8443C15.8872 14.803 16.0243 14.9916 16.0886 15.0816C15.8572 15.2873 15.2743 15.703 14.7815 15.703C14.2843 15.703 14.1043 15.2016 14.0786 14.953C13.98 14.953 13.8643 14.9102 13.8129 14.893ZM11.64 15.5616C11.6786 15.4887 11.7815 15.3387 11.8972 15.3387C12.0129 15.3387 12.1072 15.5359 12.1372 15.6344C12.0943 15.583 11.9915 15.4802 11.8972 15.4802C11.8072 15.4802 11.6872 15.5359 11.64 15.5659V15.5616ZM11.4515 16.4959C11.5029 16.4102 11.6829 16.2473 12.0086 16.2473C12.4115 16.2473 12.9943 16.6116 13.2943 16.9716C12.9557 16.7702 12.2315 16.363 12.0086 16.363C11.7857 16.363 11.5457 16.4487 11.4515 16.4959ZM13.1743 15.7502C13.0672 15.7116 12.9172 15.823 12.8572 15.883C12.9129 15.8702 13.0415 15.853 13.1315 15.883C13.2172 15.9087 13.2815 16.0416 13.3029 16.1016C13.3072 15.9987 13.2857 15.7844 13.1743 15.7502Z" fill="#CED8F1"/>
<path d="M13.3671 13.02C13.1743 13.1914 12.7714 13.5686 12.7157 13.7357C12.6643 13.8986 12.4157 13.92 12.3 13.9114L12.1843 14.2629L13.1443 14.5114L13.3671 14.1772C13.142 14.1355 12.9162 14.097 12.69 14.0614C12.5529 14.0443 12.5486 14.01 12.69 13.9457C12.8314 13.8857 12.8657 13.86 12.9129 13.7314C12.9557 13.6029 13.2429 13.1443 13.3671 13.02ZM16.0714 13.9843C16.0886 13.9843 16.1014 13.9757 16.1186 13.9714C15.93 14.0014 15.7671 14.04 15.6643 14.07H15.6557C15.6043 14.0829 15.51 14.1257 15.39 14.1814C15.1371 14.3014 14.7686 14.4729 14.3957 14.5329C13.9586 14.6057 14.01 14.7472 14.0871 14.8072C14.7424 14.8212 15.3921 14.931 16.0157 15.1329H15.9043C15.8271 15.3043 15.5186 15.66 14.9186 15.69C14.3186 15.72 14.1171 15.2186 14.0871 14.9657C14.0014 15.1629 14.1214 15.4243 14.1943 15.5272L13.7786 15.7157C13.6626 15.614 13.5167 15.5527 13.3629 15.5411C13.209 15.5295 13.0556 15.5682 12.9257 15.6514C13.0757 15.63 13.3971 15.6514 13.4914 15.93C13.5943 16.2086 13.0114 16.3157 12.7071 16.3414C13.2943 16.6157 13.4571 17.0872 13.3671 17.1472C13.2986 17.19 13.11 17.0186 13.0286 16.9329C13.0114 17.2843 12.6643 17.1043 12.4414 16.9886L12.3214 16.9286C12.15 16.86 11.4643 16.6714 11.4214 17.0872C11.3957 17.2972 11.7043 17.6014 12.0386 17.8586C12.4243 18.0729 12.9257 18.2143 13.5729 18.2143C14.31 18.2143 15.9471 17.8672 16.6157 16.4657L16.5043 16.3714C16.485 16.2802 16.4909 16.1853 16.5214 16.0972C16.5643 15.9814 16.6543 15.27 16.6971 14.9314C16.7229 14.8886 16.8043 14.8029 16.9457 14.7943C16.9414 14.5414 16.8171 14.0229 16.3543 13.9843H16.0714Z" fill="#96A4C1"/>
<path d="M17.5414 14.9399C17.6442 14.9056 17.8757 14.8413 17.9914 14.8413C18.1114 14.8413 18.5057 15.0727 18.6857 15.1885L18.5871 16.1656L18.3214 16.6027C18.1757 16.5599 17.6571 16.3799 17.6442 16.2856C17.6314 16.187 17.5671 15.347 17.5414 14.9399ZM18.1457 16.247C18.2142 16.2556 18.2914 16.1227 18.3171 15.9513C18.3428 15.7799 18.3128 15.6299 18.2442 15.617C18.18 15.6085 18.1028 15.7413 18.0728 15.917C18.0471 16.0885 18.0814 16.2385 18.1457 16.247Z" fill="#B6BFC6"/>
<path d="M17.9357 15.2785L18.6386 15.2527L18.6815 15.1756H17.94L17.5457 14.9185C17.3657 15.1756 17.2457 16.1699 17.2029 16.6327C17.2886 16.6627 17.4729 16.7442 17.5457 16.7999C17.6186 16.8513 18.1672 16.7785 18.4329 16.7313L18.6 16.1313C18.5486 16.1913 18.4157 16.3456 18.3043 16.4313C18.1972 16.5256 17.9486 16.397 17.8329 16.3199L17.9357 15.2785Z" fill="#FFFFFD"/>
<path d="M18.15 12.6602C18.1415 12.6902 18.15 13.003 18.15 13.1616C18.2658 13.123 18.5443 13.0673 18.6986 13.1444C18.6172 13.0244 18.39 12.7587 18.15 12.6602ZM18.9 14.1044C18.8568 13.9743 18.7795 13.858 18.6763 13.7676C18.5731 13.6772 18.4477 13.6159 18.3129 13.5902L18.1929 13.2344C18.2786 13.1916 18.4758 13.1916 18.5615 13.1959C18.9472 13.273 18.9472 13.8344 18.9043 14.1044H18.9ZM18.5315 14.7773C18.5186 14.4344 18.3686 13.9202 18.2958 13.7059C18.51 13.7059 18.8315 13.963 18.8315 14.233C18.8315 14.4516 18.6343 14.6873 18.5315 14.7773Z" fill="#B5BEC5"/>
<path d="M8.61 5.78125C5.86285 6.99839 5.34428 9.02554 5.43 9.88696C5.46 9.84411 6.58714 8.93125 7.23428 9.41125C7.43836 8.2472 7.94869 7.15848 8.71285 6.25696C8.64857 6.14982 8.70428 6.00411 8.74285 5.94411C8.70737 5.8832 8.66254 5.82824 8.61 5.78125ZM8.73 9.13696C8.29285 9.00839 7.83 9.28696 7.65857 9.44554C7.74 8.20268 8.40857 7.07982 8.73 6.67268L8.91 7.54696C8.77714 7.85554 8.73428 8.73839 8.73 9.13696Z" fill="#FBFFFF"/>
<path d="M9.79719 5.61434C9.66862 5.68291 9.41148 5.3872 9.30005 5.22862C10.1272 4.80005 10.3372 5.04862 10.2 5.12577C10.0715 5.20291 9.95576 5.52434 9.79719 5.61005V5.61434Z" fill="#F7F3F2"/>
<path d="M9.70714 11.0441L8.92285 6.26556C8.92285 6.2227 8.94428 6.12842 9.02999 6.12842C9.11571 6.12842 9.15857 6.17985 9.17142 6.20556L10.0071 11.0741L9.70714 11.0441Z" fill="url(#paint8_linear_31_9530)"/>
<path d="M10.1785 14.0271L10.1143 13.6414L10.4014 13.5771L10.4657 14.0614L10.1785 14.0271ZM10.71 17.4386L10.5814 16.8771L10.6585 16.8557L10.92 17.3614C10.86 17.4471 10.7528 17.4471 10.71 17.4386Z" fill="#BDCBD8"/>
<path d="M10.0286 9.8999C10.2 8.81561 9.91713 8.24561 9.75427 8.09561C10.3114 7.75276 11.7857 7.87276 12.4543 7.96704L12.1028 6.2099C12.5828 6.2099 13.9071 5.36133 14.4728 5.36133C14.9271 5.36133 15.2486 5.51561 15.3557 5.59276L16.02 9.21418C15.9986 9.18847 15.7628 9.14561 14.9486 9.14561C13.83 9.14561 13.3114 9.89561 12.4543 9.89561C11.5971 9.89561 11.4043 9.83561 10.8514 9.62133C10.7045 9.55805 10.5394 9.55103 10.3877 9.60161C10.2359 9.65219 10.1081 9.75684 10.0286 9.89561V9.8999Z" fill="#FFFFFD"/>
<path d="M12.7029 6.25704L12.8572 6.17133C13.3629 5.89704 13.8772 5.62276 14.5072 5.62276C14.9357 5.62276 15.2443 5.75561 15.4029 5.85847L15.3557 5.59276C15.2486 5.51561 14.9272 5.36133 14.4729 5.36133C14.1814 5.36133 13.68 5.59276 13.2 5.81133C12.7543 6.01276 12.33 6.20561 12.1029 6.20561L12.1586 6.49276L12.21 6.47561C12.38 6.41459 12.5448 6.34007 12.7029 6.25276V6.25704ZM12.27 7.03704L12.2014 6.71133H12.2186C12.3557 6.71133 12.54 6.68561 12.7243 6.58276C12.81 6.5399 12.8914 6.49704 12.9772 6.44561C13.4486 6.18419 14.01 5.86704 14.6872 5.86704C14.9657 5.86704 15.2143 5.88847 15.4157 5.91847L15.48 6.26561C15.2185 6.2174 14.953 6.19444 14.6872 6.19704C14.1086 6.19704 13.6329 6.45847 13.1614 6.7199L12.8872 6.87419C12.66 6.9899 12.4414 7.03276 12.27 7.03704ZM12.3729 7.55561L12.3086 7.23418C12.4329 7.22561 12.5786 7.19133 12.7243 7.1099C12.81 7.06704 12.8914 7.02419 12.9772 6.97276C13.4486 6.71133 14.01 6.39847 14.6872 6.39847C14.9644 6.39573 15.2413 6.41868 15.5143 6.46704L15.5786 6.81847C15.2843 6.75463 14.984 6.72301 14.6829 6.72418C14.1086 6.72418 13.6329 6.98561 13.1614 7.25133L12.8872 7.40133C12.7029 7.49561 12.5272 7.53847 12.3729 7.55561ZM12.45 7.9499L12.3857 7.61561C12.5804 7.63944 12.7779 7.60826 12.9557 7.52561L13.1872 7.4099C13.6739 7.12667 14.2229 6.9677 14.7857 6.94704C15.0665 6.95085 15.3463 6.98098 15.6214 7.03704L15.6857 7.40561C15.3885 7.32936 15.0838 7.28624 14.7772 7.27704C14.2457 7.26418 13.8 7.47847 13.3543 7.69704L13.0972 7.82133C12.8958 7.91379 12.6757 7.95782 12.4543 7.9499H12.45ZM10.0372 8.7299C10.0114 8.60133 9.97716 8.4899 9.94287 8.3999C10.1829 8.25419 10.5514 8.0999 10.9414 8.0999C11.2629 8.0999 11.5243 8.16847 11.7557 8.23704H11.7686C12.0086 8.3099 12.2272 8.3699 12.5057 8.3699C12.6214 8.3699 12.7929 8.32704 13.0029 8.25419C13.2043 8.17704 13.4229 8.08276 13.6543 7.9799L13.6757 7.97133C13.9114 7.86847 14.1514 7.75704 14.3786 7.6799C14.5809 7.59859 14.7952 7.55082 15.0129 7.53847C15.2572 7.53847 15.51 7.58133 15.7329 7.64133L15.7972 7.99704C15.5657 7.92847 15.2829 7.86847 15.0129 7.86847C14.8843 7.86847 14.7086 7.91133 14.4943 7.98847C14.28 8.06561 14.0486 8.16418 13.8129 8.27133L13.7872 8.2799C13.56 8.37847 13.3329 8.48133 13.1186 8.55847C12.9043 8.6399 12.69 8.6999 12.5057 8.6999C12.1757 8.6999 11.9143 8.62276 11.6786 8.55418H11.6743C11.4377 8.47542 11.1907 8.4321 10.9414 8.42561C10.5814 8.42561 10.23 8.59704 10.0372 8.72561V8.7299ZM10.08 9.24847C10.08 9.1199 10.0757 8.99561 10.0629 8.88847C10.2557 8.79418 10.5043 8.71704 10.7743 8.71704C11.07 8.71704 11.3743 8.81133 11.6572 8.89276L11.6914 8.90561C11.9957 8.99561 12.2829 9.07704 12.5657 9.07704C12.6857 9.07704 12.84 9.03418 13.0372 8.94847C13.1914 8.88418 13.3543 8.80276 13.5343 8.71704L13.6757 8.64419C14.13 8.42133 14.6614 8.17276 15.1757 8.17276C15.4243 8.17276 15.6472 8.19847 15.84 8.24133L15.9086 8.59704C15.6713 8.53164 15.4262 8.49848 15.18 8.49847C14.7514 8.49847 14.2886 8.70847 13.8257 8.93561L13.6929 9.00419C13.5129 9.0899 13.3329 9.18419 13.17 9.25276C12.9643 9.33847 12.7543 9.40704 12.5657 9.40704C12.2229 9.40704 11.8929 9.30847 11.5929 9.21847H11.5843C11.28 9.12419 11.0186 9.04704 10.77 9.04704C10.5 9.04704 10.2472 9.1499 10.0843 9.24847H10.08ZM15.9643 8.91847C15.7329 8.87561 15.4243 8.84561 15.0214 8.84561C14.3914 8.84561 13.9329 9.07704 13.5343 9.29133L13.4786 9.32133C13.0972 9.52704 12.7843 9.69419 12.39 9.69419C12.0742 9.70463 11.7602 9.64154 11.4729 9.5099C11.2757 9.42847 11.0657 9.34276 10.7229 9.34276C10.4529 9.34276 10.2386 9.4199 10.0714 9.52276C10.0629 9.63847 10.05 9.76276 10.0286 9.89561C10.1186 9.73276 10.4143 9.4499 10.8514 9.62133C11.355 9.8433 11.9056 9.93751 12.4543 9.89561C12.8572 9.89561 13.1829 9.73276 13.5257 9.55704C13.9565 9.3028 14.4444 9.1613 14.9443 9.14561C15.7672 9.14561 15.9986 9.18847 16.02 9.21418L15.9643 8.91418V8.91847Z" fill="#96352F"/>
<path d="M10.3929 6.15869L10.4529 6.24012L10.5557 6.26583L10.4872 6.33869L10.4915 6.43298L10.3929 6.40298L10.2943 6.43298V6.33869L10.23 6.26583L10.3329 6.24012L10.3929 6.15869ZM9.94289 6.20155L9.9986 6.28726L10.1015 6.30869L10.0372 6.38583V6.48012L9.94289 6.44583L9.84003 6.48012L9.84431 6.38583L9.78003 6.30869L9.88289 6.28298L9.94289 6.20583V6.20155ZM10.2643 6.53583L10.2043 6.45869L10.1486 6.53583L10.0457 6.56155L10.11 6.63441V6.73298L10.2043 6.69869L10.3072 6.73298L10.3029 6.63441L10.3672 6.56155L10.2643 6.53583ZM10.0457 6.80155L10.1015 6.88298L10.2043 6.90441L10.14 6.98155L10.1443 7.07583L10.0457 7.04155L9.94289 7.07583L9.95146 6.98155L9.88289 6.90441L9.98574 6.88298L10.0457 6.80155ZM10.41 7.15726L10.35 7.07583L10.29 7.15726L10.1915 7.18298L10.2557 7.25583L10.2515 7.35012L10.35 7.32012L10.4486 7.35012V7.25583L10.5129 7.18298L10.41 7.15726ZM10.7915 7.15726L10.8515 7.23441L10.9543 7.26012L10.8857 7.33726L10.89 7.43155L10.7915 7.39726L10.6929 7.43155V7.33726L10.6286 7.26012L10.7315 7.23441L10.7915 7.15726ZM11.3057 7.23441L11.25 7.15726L11.19 7.23441L11.0872 7.26012L11.1515 7.33726V7.43155L11.25 7.39726L11.3486 7.43155L11.3443 7.33726L11.4086 7.26012L11.3057 7.23441ZM11.6572 7.14869L11.7172 7.22583L11.82 7.25155L11.7515 7.32441L11.76 7.42298L11.6572 7.38869L11.5586 7.42298L11.5629 7.32441L11.4986 7.25155L11.6015 7.22583L11.6572 7.14441V7.14869ZM11.9486 7.53441L11.8886 7.45726L11.8286 7.53441L11.7257 7.56012L11.7943 7.63726L11.79 7.73155L11.8886 7.69726L11.9872 7.73155V7.63726L12.0515 7.56012L11.9486 7.53441ZM10.4829 6.73298L10.5429 6.81012L10.6457 6.83583L10.5772 6.91298L10.5815 7.00726L10.4829 6.97298L10.3843 7.00726V6.91298L10.32 6.83583L10.4229 6.81012L10.4829 6.73298ZM10.9843 6.89155L10.9243 6.81012L10.8643 6.89155L10.7615 6.91726L10.83 6.99012L10.8257 7.08441L10.9243 7.05441L11.0229 7.08441V6.99012L11.0872 6.91726L10.9843 6.89155ZM11.3786 6.81012L11.4386 6.89155L11.5415 6.91726L11.4772 6.99012V7.08441L11.3786 7.05441L11.28 7.08441L11.2843 6.99012L11.22 6.91726L11.3229 6.89155L11.3786 6.81012ZM11.85 6.88298L11.79 6.80155L11.73 6.88298L11.6272 6.90441L11.6957 6.98155L11.6915 7.07583L11.79 7.04155L11.8886 7.07583V6.98155L11.9529 6.90441L11.85 6.88298ZM10.6072 6.45441L10.6672 6.54012L10.77 6.56155L10.7057 6.63441V6.73298L10.6115 6.69869L10.5086 6.73298L10.5129 6.63441L10.4486 6.56155L10.5515 6.53583L10.6115 6.45869L10.6072 6.45441ZM11.1086 6.61726L11.0486 6.53583L10.9929 6.61726L10.89 6.64298L10.9543 6.71583V6.81012L11.0486 6.77583L11.1515 6.81012L11.1472 6.71583L11.2115 6.64298L11.1086 6.61726ZM11.5072 6.53583L11.5672 6.61726L11.67 6.64298L11.6015 6.71583L11.6057 6.81012L11.5072 6.77583L11.4086 6.81012V6.71583L11.3443 6.64298L11.4472 6.61726L11.5072 6.53583ZM10.8643 6.28298L10.8043 6.20583L10.7486 6.28298L10.6457 6.30869L10.71 6.38583V6.48012L10.8043 6.44583L10.9072 6.48012L10.9029 6.38583L10.9672 6.30869L10.8643 6.28298ZM11.25 6.28298L11.3057 6.36441L11.4086 6.39012L11.34 6.46298L11.3443 6.55726L11.2457 6.52726L11.1472 6.55726L11.1515 6.46298L11.0872 6.39012L11.1857 6.36441L11.2457 6.28298H11.25ZM11.7643 6.36441L11.7043 6.28298L11.6443 6.36441L11.5415 6.39012L11.61 6.46298L11.6057 6.55726L11.7043 6.52726L11.8029 6.55726L11.7986 6.46298L11.8629 6.39012L11.7643 6.36441ZM10.1015 7.43583L10.1615 7.52155L10.2643 7.54298L10.1957 7.62012L10.2043 7.71441L10.1015 7.68012L10.0029 7.71441L10.0072 7.62012L9.94289 7.54298L10.0457 7.51726L10.1015 7.44012V7.43583ZM10.6029 7.59869L10.5429 7.51726L10.4829 7.59869L10.38 7.62441L10.4486 7.69726L10.4443 7.79155L10.5429 7.76155L10.6415 7.79155V7.69726L10.7057 7.62441L10.6029 7.59869ZM11.0015 7.51726L11.0572 7.59869L11.16 7.62441L11.0957 7.69726L11.1 7.79155L11.0015 7.76155L10.8986 7.79155L10.9072 7.69726L10.8386 7.62441L10.9415 7.59869L11.0015 7.51726ZM11.4729 7.59012L11.4086 7.50869L11.3529 7.59012L11.25 7.61155L11.3143 7.68869L11.31 7.78298L11.4086 7.74869L11.5115 7.78298L11.5072 7.68869L11.5715 7.61155L11.4686 7.59012H11.4729Z" fill="#FFFFFD"/>
</g>
<defs>
<linearGradient id="paint0_linear_31_9530" x1="4.46571" y1="4.16143" x2="29.2071" y2="32.58" gradientUnits="userSpaceOnUse">
<stop stop-color="#1A1E21"/>
<stop offset="1" stop-color="#06060A"/>
</linearGradient>
<linearGradient id="paint1_linear_31_9530" x1="7.42283" y1="10.423" x2="10.6114" y2="18.6515" gradientUnits="userSpaceOnUse">
<stop stop-color="#D5E1F9"/>
<stop offset="1" stop-color="#8493B4"/>
</linearGradient>
<linearGradient id="paint2_linear_31_9530" x1="9.28713" y1="10.3027" x2="9.28713" y2="13.5213" gradientUnits="userSpaceOnUse">
<stop stop-color="#CFD7EC"/>
<stop offset="1" stop-color="#CCD6EF"/>
</linearGradient>
<linearGradient id="paint3_linear_31_9530" x1="15.5914" y1="12.2485" x2="17.4986" y2="14.5627" gradientUnits="userSpaceOnUse">
<stop offset="0.25" stop-color="#FFFCFF"/>
<stop offset="0.66" stop-color="#BFC2C7"/>
</linearGradient>
<linearGradient id="paint4_linear_31_9530" x1="17.0957" y1="17.3488" x2="13.92" y2="18.4673" gradientUnits="userSpaceOnUse">
<stop stop-color="#B8C5CB"/>
<stop offset="1" stop-color="#FAFEFF"/>
</linearGradient>
<linearGradient id="paint5_linear_31_9530" x1="9.93002" y1="14.1557" x2="9.17144" y2="16.3457" gradientUnits="userSpaceOnUse">
<stop stop-color="#C9D5ED"/>
<stop offset="0.24" stop-color="#A2AFCF"/>
<stop offset="0.4" stop-color="#CFDBF3"/>
<stop offset="0.53" stop-color="#A1AECE"/>
<stop offset="0.63" stop-color="#9FACCC"/>
<stop offset="0.71" stop-color="#CEDAF0"/>
<stop offset="0.78" stop-color="#D0DEF8"/>
<stop offset="0.86" stop-color="#A9B7D4"/>
<stop offset="1" stop-color="#B8BFDC"/>
</linearGradient>
<linearGradient id="paint6_linear_31_9530" x1="16.3929" y1="8.81592" x2="17.2029" y2="12.0602" gradientUnits="userSpaceOnUse">
<stop stop-color="#D1D9EE"/>
<stop offset="1" stop-color="#8893B3"/>
</linearGradient>
<linearGradient id="paint7_linear_31_9530" x1="15.1371" y1="10.0886" x2="11.9871" y2="12.39" gradientUnits="userSpaceOnUse">
<stop stop-color="#929FC1"/>
<stop offset="0.6" stop-color="#94A1C4"/>
<stop offset="0.91" stop-color="#D0DCF2"/>
<stop offset="1" stop-color="#98A5C7"/>
</linearGradient>
<linearGradient id="paint8_linear_31_9530" x1="9.46714" y1="6.12842" x2="9.98142" y2="10.997" gradientUnits="userSpaceOnUse">
<stop stop-color="#AEC0CC"/>
<stop offset="0.76" stop-color="#FAF8F9"/>
<stop offset="1" stop-color="#BBC5CE"/>
</linearGradient>
<clipPath id="clip0_31_9530">
<rect width="24" height="24" fill="white"/>
</clipPath>
</defs>
</svg>
