<svg xmlns="http://www.w3.org/2000/svg" width="24" height="24" fill="none" viewBox="0 0 24 24"><g clip-path="url(#a)"><path fill="#0ECC5F" d="M0 0h24v24H0z"/><path fill="#fff" d="M18.857 12q0-.164-.008-.327-.007-.113-.016-.224-.001-.043-.007-.087-.014-.142-.033-.285v-.016a6.857 6.857 0 1 0-1.432 5.215l-2.105-1.498a4.2 4.2 0 0 1-3.253 1.508A4.273 4.273 0 0 1 7.714 12 4.27 4.27 0 0 1 12 7.714a4.28 4.28 0 0 1 4.09 3h-4.087l-1.095 2.572h7.836c.058-.324.094-.697.106-1.027q.007-.1.007-.259"/></g><defs><clipPath id="a"><path fill="#fff" d="M0 0h24v24H0z"/></clipPath></defs></svg>