<svg width="24" height="24" viewBox="0 0 24 24" fill="none" xmlns="http://www.w3.org/2000/svg">
<g clip-path="url(#clip0_31_9935)">
<path d="M0 0H24V24H0V0Z" fill="#F0F3FA"/>
<path d="M14.1428 9.88721L12.4285 10.8601V14.7986L5.14282 10.5258V12.3601C5.14282 12.8144 5.38282 13.2301 5.77282 13.4615L14.1428 18.4286V9.88721Z" fill="#99BCE3"/>
<path d="M12.4285 14.7987V12.6602L9.21425 10.7402L16.2857 6.46731L14.76 5.70874C14.5709 5.61353 14.3614 5.56645 14.1498 5.57168C13.9382 5.57692 13.7312 5.6343 13.5471 5.73874L5.14282 10.5259L12.4285 14.7987Z" fill="#5892CD"/>
<path d="M10.9285 11.8069L9.21423 10.7355L16.2857 6.47119V16.2683C16.2857 16.6883 16.0799 17.0826 15.7371 17.3183L14.1428 18.4283V9.88691L10.9285 11.8069Z" fill="#2A5789"/>
</g>
<defs>
<clipPath id="clip0_31_9935">
<rect width="24" height="24" fill="white"/>
</clipPath>
</defs>
</svg>
