<svg xmlns="http://www.w3.org/2000/svg" width="24" height="24" fill="none" viewBox="0 0 24 24"><g clip-path="url(#a)"><path fill="url(#b)" d="M0 0h24v24H0z"/><path fill="url(#c)" d="M12 9.926 6.857 12 12 3.857z"/><path fill="url(#d)" d="M12 9.926 17.143 12 12 3.857z"/><path fill="url(#e)" d="m12 14.571-5.143-2.708L12 9.857z"/><path fill="#FBFCF7" d="m12.004 14.571 5.139-2.708-5.139-2.006z"/><path fill="#B0B4E9" d="m14.713 8.524-.27 4.77-2.503-3.257-2.486 3.373-.291-4.616.124-.004.266 4.269 2.383-3.228 2.4 3.12.253-4.435.128.008z"/><path fill="url(#f)" d="M9.24 9.004a.64.64 0 0 0 .647-.63c0-.348-.29-.63-.647-.63a.64.64 0 0 0-.647.63c0 .348.29.63.647.63"/><path fill="#DADCF4" d="M9.386 7.89c.051-.035.162.017.214.047.013.047.034.146-.026.171-.073.03-.064-.051-.137-.077-.073-.03-.124-.094-.056-.141z"/><path fill="url(#g)" d="M12.004 10.509a.64.64 0 0 0 .648-.63c0-.348-.29-.63-.648-.63a.64.64 0 0 0-.647.63c0 .348.29.63.647.63"/><path fill="#DADCF4" d="M12.146 9.399c.055-.039.167.012.214.042.017.052.034.15-.021.172-.073.03-.065-.047-.138-.077-.077-.026-.128-.09-.055-.137"/><path fill="url(#h)" d="M14.67 9.004a.64.64 0 0 0 .647-.63c0-.348-.29-.63-.647-.63a.64.64 0 0 0-.647.63c0 .348.29.63.647.63"/><path fill="#DADCF4" d="M14.811 7.89c.056-.035.168.017.215.047.017.047.034.146-.022.171-.073.03-.064-.051-.141-.077-.073-.03-.12-.094-.052-.141"/><path fill="url(#i)" d="M14.396 13.86a.64.64 0 0 0 .647-.63c0-.348-.29-.63-.647-.63a.64.64 0 0 0-.648.63c0 .348.29.63.648.63"/><path fill="#DADCF4" d="M14.537 12.746c.056-.035.167.017.214.047.018.047.035.146-.02.171-.074.03-.065-.051-.142-.077-.073-.03-.12-.094-.052-.141"/><path fill="url(#j)" d="M9.48 13.86a.64.64 0 0 0 .647-.63c0-.348-.29-.63-.647-.63a.64.64 0 0 0-.647.63c0 .348.29.63.647.63"/><path fill="#DADCF4" d="M9.621 12.746c.056-.035.172.017.215.047.017.047.038.146-.022.171-.073.03-.064-.051-.137-.077-.073-.03-.124-.094-.056-.141"/><path fill="url(#k)" d="m12.047 15.771-5.143-2.914 5.143 7.286z"/><path fill="#C8CCF7" d="m12 15.771 5.143-2.914L12 20.143z"/></g><defs><linearGradient id="b" x1="4.466" x2="29.207" y1="4.161" y2="32.58" gradientUnits="userSpaceOnUse"><stop stop-color="#1A1E21"/><stop offset="1" stop-color="#06060A"/></linearGradient><linearGradient id="c" x1="6.947" x2="11.126" y1="10.603" y2="5.593" gradientUnits="userSpaceOnUse"><stop stop-color="#A795F2"/><stop offset="1" stop-color="#B7D0E1"/></linearGradient><linearGradient id="d" x1="12" x2="15.583" y1="5.464" y2="11.473" gradientUnits="userSpaceOnUse"><stop stop-color="#E1F0F3"/><stop offset="1" stop-color="#B3DBF5"/></linearGradient><linearGradient id="e" x1="11.931" x2="7.689" y1="10.65" y2="12.218" gradientUnits="userSpaceOnUse"><stop stop-color="#DEE1F9"/><stop offset="1" stop-color="#D6CDFB"/></linearGradient><linearGradient id="f" x1="9.814" x2="8.936" y1="7.997" y2="8.846" gradientUnits="userSpaceOnUse"><stop stop-color="#C0C7F2"/><stop offset="1" stop-color="#7890D6"/></linearGradient><linearGradient id="g" x1="12.574" x2="11.696" y1="9.506" y2="10.35" gradientUnits="userSpaceOnUse"><stop stop-color="#C0C7F2"/><stop offset="1" stop-color="#7890D6"/></linearGradient><linearGradient id="h" x1="15.24" x2="14.361" y1="7.997" y2="8.846" gradientUnits="userSpaceOnUse"><stop stop-color="#C0C7F2"/><stop offset="1" stop-color="#7890D6"/></linearGradient><linearGradient id="i" x1="14.966" x2="14.087" y1="12.853" y2="13.697" gradientUnits="userSpaceOnUse"><stop stop-color="#C0C7F2"/><stop offset="1" stop-color="#7890D6"/></linearGradient><linearGradient id="j" x1="10.054" x2="9.176" y1="12.853" y2="13.697" gradientUnits="userSpaceOnUse"><stop stop-color="#C0C7F2"/><stop offset="1" stop-color="#7890D6"/></linearGradient><linearGradient id="k" x1="7.453" x2="12.476" y1="13.286" y2="18.844" gradientUnits="userSpaceOnUse"><stop stop-color="#6E89D3"/><stop offset="1" stop-color="#677FF0"/></linearGradient><clipPath id="a"><path fill="#fff" d="M0 0h24v24H0z"/></clipPath></defs></svg>