<svg xmlns="http://www.w3.org/2000/svg" width="24" height="24" fill="none" viewBox="0 0 24 24"><g clip-path="url(#a)"><path fill="#D5EEEF" d="M0 0h24v24H0z"/><path fill="#B0DEDE" d="M13.702 12.532c-.43-2.786-.858-4.715-1.505-5.572-.643-.214-2.533-.514-3.223 0-.685.515-.788 2.786-.857 3.857l2.576.857 1.933 2.358h.643c.214-.073.6-.472.428-1.5z"/><path fill="#47443D" d="m12.12 10.252.643.642.154-.154-.643-.643z"/><path fill="#47443D" d="M12.699 9.669a.107.107 0 0 0-.15.004l-.858.943a.11.11 0 0 0 0 .154.113.113 0 0 0 .155-.008l.857-.943c.043-.043.043-.112-.004-.15"/><path fill="#A39F99" d="M15.42 7.389v1.213l-.304.304a.43.43 0 0 0-.129.3v.754h-.857v-1.2a.21.21 0 0 1 .064-.146l.005-.004z"/><path fill="#47443D" d="M7.684 10.817c0-1.058.442-2.914.656-3.698l.411.115c-.214.785-.634 2.589-.634 3.583h-.433m1.967-1.843c.133-.741.296-1.457.408-1.855l.411.115a25 25 0 0 0-.399 1.818 12.6 12.6 0 0 0-.235 1.98h-.429c0-.536.107-1.32.244-2.058m3.3-.788a3 3 0 0 0-.287-.677l.356-.236c.124.184.24.467.343.78q.166.531.279 1.076c.162.763.274 1.585.274 2.117h-.429c0-.493-.107-1.277-.265-2.027a11 11 0 0 0-.27-1.033"/><path fill="#FFBC50" d="M7.684 6.103c3.785-.343 5.803.214 6.017.857l-.428.857C12.24 7.303 9.69 7.32 8.546 7.39l-.506-.335a.43.43 0 0 1-.18-.257l-.171-.694z"/><path fill="#47443D" d="m7.886 6.917-.09-.386c.75-.214 3.171-.15 3.325 0 .429.429.429.9.429.9a21 21 0 0 0-3.004-.043h-.429l-.197-.385a.4.4 0 0 1-.03-.086z"/><path fill="#FFBC50" d="M13.269 10.174c1.148-.073 3.694-.043 4.727.643.634.42 1.058.943 1.286 1.286 0 0 .098.523-.318.857l-.54.428H15.85l-.515-.685a.43.43 0 0 0-.342-.172h-1.543a.38.38 0 0 1-.3-.128 8 8 0 0 1-.622-.952.4.4 0 0 1 .005-.407c.188-.308.548-.857.737-.87"/><path fill="#47443D" d="M14.559 15.103c.857-.073 2.837-.386 3.865-1.071.309-.185.493-.429.643-.643.429-.643.373-1.08.214-1.286-.857 0-1.212.57-1.285.857l-2.147.214-.519-.514a.43.43 0 0 0-.3-.128h-1.329s-.214 1.285-.428 1.285h-1.076l-.857-1.928-2.366-1.072-2.147.215-1.5 1.071 6.227 3z"/><path fill="#FCFAFD" d="M19.071 13.389c.429-.643.369-1.08.215-1.286-.377 0-.66.111-.857.257 0 .386.308.845.642 1.029"/><path fill="#FFBC50" d="M8.473 11.031a3.69 3.69 0 0 1 3.728 3.236.214.214 0 0 0 .425-.043c-.215-2.04-1.997-3.621-4.153-3.621A4.21 4.21 0 0 0 4.929 12.5a.214.214 0 0 0 .36.232 3.78 3.78 0 0 1 3.184-1.702"/><path fill="#A6A29C" d="M17.353 12.96a.214.214 0 0 0-.214-.214 3.22 3.22 0 0 0-3.193 2.755.216.216 0 1 0 .428.06 2.79 2.79 0 0 1 2.765-2.387.214.214 0 0 0 .214-.214"/><path fill="#FEBC50" d="M13.714 14.357a.214.214 0 0 0-.214-.214h-1.05v.429h1.054a.214.214 0 0 0 .21-.215m-1.474 0c0 .12.094.215.21.215v-.429a.214.214 0 0 0-.214.214z"/><path fill="#A09B95" d="M15.206 8.032c0 .355.094.642.214.642.116 0 .214-.287.214-.642 0-.352-.098-.643-.214-.643-.12 0-.214.291-.214.643"/><path fill="#B2CCC9" d="m15.42 8.589.009-.017a.4.4 0 0 0 .055-.112c.035-.103.06-.257.06-.428 0-.172-.025-.322-.06-.429a.4.4 0 0 0-.068-.124l-.017.017a.4.4 0 0 0-.056.111 1.5 1.5 0 0 0-.056.429c0 .171.022.321.056.428a.3.3 0 0 0 .056.108q.006.01.017.017zm-.004.085c-.116 0-.215-.287-.215-.642 0-.352.099-.643.215-.643.12 0 .214.291.214.643 0 .355-.094.642-.214.642"/><path fill="#47443D" d="m4.714 15.137.026.227a.25.25 0 0 0 .279.223l.27-.03a3 3 0 0 0 .18.544l-.236.137a.25.25 0 0 0-.09.343l.116.202a.253.253 0 0 0 .342.085l.24-.137q.164.22.365.407l-.163.219a.25.25 0 0 0 .051.347l.189.137a.253.253 0 0 0 .347-.051l.167-.219c.163.09.334.172.514.232l-.064.265a.25.25 0 0 0 .193.3l.227.052a.253.253 0 0 0 .3-.193l.06-.266q.302.03.604.005l.065.265a.25.25 0 0 0 .201.193.3.3 0 0 0 .099 0l.223-.051a.25.25 0 0 0 .192-.3l-.06-.257q.277-.09.528-.232l.154.206a.253.253 0 0 0 .351.051l.185-.137a.25.25 0 0 0 .055-.351l-.15-.197a3 3 0 0 0 .386-.429l.214.129a.253.253 0 0 0 .348-.086l.12-.197a.25.25 0 0 0-.086-.343l-.227-.129q.116-.27.18-.552l.27.03a.253.253 0 0 0 .278-.22l.022-.23a.25.25 0 0 0-.129-.245.3.3 0 0 0-.09-.03l-.278-.03a3 3 0 0 0-.065-.6l.262-.085a.25.25 0 0 0 .171-.223c0-.03 0-.065-.013-.095l-.073-.218a.25.25 0 0 0-.321-.159l-.257.086a3 3 0 0 0-.283-.471l.206-.185a.25.25 0 0 0 .017-.356l-.154-.171a.253.253 0 0 0-.356-.013l-.206.18a3 3 0 0 0-.441-.321l.111-.249a.25.25 0 0 0-.129-.33l-.205-.094a.253.253 0 0 0-.335.124l-.111.249a3 3 0 0 0-.587-.125v-.274a.25.25 0 0 0-.249-.248h-.231a.253.253 0 0 0-.253.248v.274a3 3 0 0 0-.583.125l-.111-.249a.25.25 0 0 0-.335-.128l-.214.098a.25.25 0 0 0-.124.33l.116.249a3.3 3.3 0 0 0-.446.325l-.202-.184a.253.253 0 0 0-.355.017l-.155.172a.25.25 0 0 0 .018.351l.201.184v.005q-.161.226-.279.471l-.261-.086a.257.257 0 0 0-.317.159l-.077.219a.25.25 0 0 0 .158.317l.262.085c-.043.198-.06.403-.065.605l-.274.03a.253.253 0 0 0-.223.274"/><path fill="#686259" d="m5.589 12.874.201.184v.005l5.683 3.18-.022-.013-.222-.133q.116-.265.18-.549l.27.03a.253.253 0 0 0 .278-.218l.022-.231a.25.25 0 0 0-.129-.245.3.3 0 0 0-.09-.03l-.279-.03q0-.303-.064-.6l.262-.085a.25.25 0 0 0 .171-.223c0-.03 0-.065-.013-.095l-.073-.218a.25.25 0 0 0-.321-.159l-.257.086a3 3 0 0 0-.283-.471l.206-.185a.25.25 0 0 0 .017-.356l-.155-.171a.253.253 0 0 0-.355-.013l-.206.18a3 3 0 0 0-.441-.321l.111-.249a.25.25 0 0 0-.129-.33l-.205-.094a.253.253 0 0 0-.335.124l-.111.249a3 3 0 0 0-.587-.125v-.274a.25.25 0 0 0-.249-.248h-.231a.253.253 0 0 0-.253.248v.274a3 3 0 0 0-.583.125l-.111-.249a.25.25 0 0 0-.335-.128l-.214.098a.25.25 0 0 0-.124.33l.116.249a3.3 3.3 0 0 0-.446.325l-.202-.184a.253.253 0 0 0-.355.017l-.155.172a.25.25 0 0 0 .018.351"/><path fill="#686259" d="M6.279 14.829A2.06 2.06 0 0 0 7.97 16.86a2.095 2.095 0 0 0 2.328-1.273 2.056 2.056 0 0 0-1.552-2.79 2.1 2.1 0 0 0-2.271 1.149c-.13.276-.198.577-.197.883"/><path fill="#47443D" d="m6.703 13.577 3.596 2.01a2.06 2.06 0 0 0-.918-2.563 2.096 2.096 0 0 0-2.678.553"/><path fill="#FFBC50" d="M8.349 16.419a1.586 1.586 0 0 1-1.59-1.582 1.586 1.586 0 0 1 1.585-1.581 1.587 1.587 0 0 1 1.595 1.581 1.586 1.586 0 0 1-1.59 1.582"/><path fill="#47443D" d="M8.357 15.154a.326.326 0 1 1 .004-.651.326.326 0 1 1 0 .651z"/><path fill="#47443D" d="M8.349 15.802a.98.98 0 0 0 .9-.596.96.96 0 0 0-.712-1.316.977.977 0 0 0-1.164.902.96.96 0 0 0 .976 1.01m0-1.766a.814.814 0 0 1 .807.844.8.8 0 0 1-.649.746.81.81 0 0 1-.831-.343.797.797 0 0 1 .673-1.243z"/><path fill="#FFD591" d="m9.184 13.757.095.095a.11.11 0 0 1 0 .154.11.11 0 0 1-.155 0l-.094-.095a.11.11 0 0 1 0-.154.11.11 0 0 1 .154 0m-.441.557.09.095a.11.11 0 0 1 0 .154.11.11 0 0 1-.154 0l-.095-.094a.107.107 0 0 1 0-.155.11.11 0 0 1 .155 0z"/><path fill="#47443D" d="m14.546 16.114.008.056a.23.23 0 0 0 .167.201c.026.009.06.009.086.005l.12-.009q.05.2.133.395l-.103.06a.23.23 0 0 0-.086.317l.03.051a.236.236 0 0 0 .322.086l.103-.064q.126.154.265.29l-.072.1a.23.23 0 0 0 .047.325l.047.035a.236.236 0 0 0 .325-.052l.078-.103q.18.098.373.163l-.03.129a.23.23 0 0 0 .175.278l.056.013a.236.236 0 0 0 .279-.176l.03-.137q.215.021.432 0l.035.137a.23.23 0 0 0 .187.179.2.2 0 0 0 .091-.003l.056-.013a.235.235 0 0 0 .171-.274l-.03-.142c.129-.042.258-.098.373-.167l.086.112a.236.236 0 0 0 .321.047l.048-.03a.23.23 0 0 0 .05-.326l-.085-.111q.148-.141.27-.3l.125.073a.236.236 0 0 0 .32-.082l.027-.047a.23.23 0 0 0-.078-.317l-.132-.077a2.2 2.2 0 0 0 .12-.386l.162.021a.236.236 0 0 0 .258-.205l.008-.056a.23.23 0 0 0-.205-.257l-.172-.017q.001-.212-.043-.416l.159-.051a.236.236 0 0 0 .146-.296l-.018-.052a.23.23 0 0 0-.295-.145l-.155.051a2 2 0 0 0-.192-.334l.12-.107a.23.23 0 0 0 .012-.326l-.038-.043a.236.236 0 0 0-.33-.017l-.116.107a2 2 0 0 0-.308-.231l.064-.137a.23.23 0 0 0-.12-.309l-.052-.021a.23.23 0 0 0-.308.115l-.06.133a2.2 2.2 0 0 0-.412-.094v-.142a.23.23 0 0 0-.231-.231h-.06a.24.24 0 0 0-.214.142.2.2 0 0 0-.017.09v.137a2.4 2.4 0 0 0-.42.085l-.056-.12a.23.23 0 0 0-.309-.115l-.051.021a.23.23 0 0 0-.116.304l.052.12a2.4 2.4 0 0 0-.322.232l-.094-.086a.236.236 0 0 0-.33.017l-.039.043a.23.23 0 0 0 .017.326l.09.085a2.5 2.5 0 0 0-.205.343l-.116-.038a.235.235 0 0 0-.292.146l-.02.055a.23.23 0 0 0 .15.292l.11.043a2 2 0 0 0-.042.437l-.12.012a.235.235 0 0 0-.21.258z"/><path fill="#686259" d="m15.201 14.486.095.085 4.058 2.293a.2.2 0 0 0-.055-.051l-.133-.077c.051-.125.094-.253.12-.386l.162.021a.236.236 0 0 0 .258-.205l.008-.056a.23.23 0 0 0-.205-.257l-.172-.017q.001-.212-.043-.416l.159-.051a.236.236 0 0 0 .146-.296l-.018-.052a.23.23 0 0 0-.295-.145l-.155.051a2 2 0 0 0-.192-.334l.12-.107a.23.23 0 0 0 .012-.326l-.038-.043a.236.236 0 0 0-.33-.017l-.116.107a2 2 0 0 0-.308-.231l.064-.137a.23.23 0 0 0-.045-.257.2.2 0 0 0-.075-.052l-.052-.021a.23.23 0 0 0-.255.041.2.2 0 0 0-.053.074l-.06.133a2.2 2.2 0 0 0-.412-.094v-.142a.23.23 0 0 0-.231-.231h-.06a.23.23 0 0 0-.232.232v.137a2.4 2.4 0 0 0-.42.085l-.055-.12a.23.23 0 0 0-.309-.115l-.051.021a.23.23 0 0 0-.116.304l.052.12a2.4 2.4 0 0 0-.322.232l-.094-.086a.236.236 0 0 0-.33.017l-.039.043a.23.23 0 0 0 .017.326"/><path fill="#47443D" d="M15.544 15.848a1.58 1.58 0 0 0 1.333 1.565 1.6 1.6 0 0 0 1.766-1.059 1.57 1.57 0 0 0-.763-1.898 1.6 1.6 0 0 0-2.014.441 1.57 1.57 0 0 0-.322.951"/><path fill="#686259" d="M15.544 15.848A1.58 1.58 0 0 0 16.83 17.4a1.6 1.6 0 0 0 1.779-.956l-2.743-1.547a1.57 1.57 0 0 0-.322.951"/><path fill="#FFBC50" d="M17.13 17.078a1.24 1.24 0 0 1-1.243-1.234 1.24 1.24 0 0 1 1.243-1.234c.686 0 1.243.557 1.243 1.234a1.24 1.24 0 0 1-1.243 1.234"/><path fill="#47443D" d="M17.134 16.174a.326.326 0 0 1-.23-.557.328.328 0 0 1 .56.231c0 .18-.145.326-.33.326"/><path fill="#FFD591" d="m17.563 15.291.094.095a.11.11 0 0 1 0 .154.11.11 0 0 1-.154 0l-.095-.094a.11.11 0 0 1-.024-.12.1.1 0 0 1 .024-.035.11.11 0 0 1 .155 0"/><path fill="#FFD48F" d="M12.48 11.288c3.579-.428 5.357.613 5.914 1.106l.06-.064c-.583-.514-2.387-1.556-5.983-1.127z"/><path fill="#47443D" d="M14.987 9.96s-.428-.428-.857-.643v3.643h.857z"/><path fill="#9F9C95" d="M14.987 9.96s-.373-.373-.771-.6l-.086-.043v3.643h.857zm-.086 2.914h-.685v-3.41q.376.225.685.535v2.876"/><path fill="#48453E" d="M15.206 11.674a.43.43 0 0 0-.429-.428h-.428a.43.43 0 0 0-.433.428v1.072a.43.43 0 0 0 .428.428h.429a.43.43 0 0 0 .428-.428v-1.072z"/><path fill="#A49F98" d="M15.116 11.674a.343.343 0 0 0-.343-.343h-.429a.343.343 0 0 0-.342.343v1.072c0 .188.154.342.342.342h.429a.343.343 0 0 0 .343-.342zm-.343-.428a.43.43 0 0 1 .428.428v1.072a.43.43 0 0 1-.428.428h-.429a.43.43 0 0 1-.428-.428v-1.072a.43.43 0 0 1 .428-.428z"/></g><defs><clipPath id="a"><path fill="#fff" d="M0 0h24v24H0z"/></clipPath></defs></svg>