<svg width="24" height="24" viewBox="0 0 24 24" fill="none" xmlns="http://www.w3.org/2000/svg">
<g clip-path="url(#clip0_31_10218)">
<path d="M0 0H24V24H0V0Z" fill="#D5EEEF"/>
<path d="M13.7015 12.5317C13.2729 9.74595 12.8443 7.81738 12.1972 6.96023C11.5543 6.74595 9.66433 6.44595 8.97433 6.96023C8.28862 7.47452 8.18576 9.74595 8.11719 10.8174L10.6929 11.6745L12.6258 14.0317H13.2686C13.4829 13.9588 13.8686 13.5602 13.6972 12.5317H13.7015Z" fill="#B0DEDE"/>
<path d="M12.12 10.2515L12.7629 10.8943L12.9171 10.74L12.2743 10.0972L12.12 10.2515Z" fill="#47443D"/>
<path d="M12.6986 9.66868C12.678 9.64961 12.6508 9.63938 12.6227 9.64018C12.5947 9.64098 12.568 9.65275 12.5486 9.67297L11.6914 10.6158C11.6486 10.6587 11.6486 10.7273 11.6914 10.7701C11.7386 10.8087 11.8072 10.8044 11.8457 10.7615L12.7029 9.81868C12.7457 9.77583 12.7457 9.70725 12.6986 9.66868Z" fill="#47443D"/>
<path d="M15.42 7.38867V8.60153L15.1157 8.90582C15.035 8.98494 14.9888 9.09277 14.9871 9.20581V9.9601H14.13V8.7601C14.1319 8.70507 14.1549 8.6529 14.1943 8.61439L14.1986 8.6101L15.42 7.38867Z" fill="#A39F99"/>
<path d="M7.68433 10.8172C7.68433 9.75865 8.12575 7.90294 8.34004 7.11865L8.75147 7.23437C8.53718 8.01865 8.11718 9.82294 8.11718 10.8172H7.68861H7.68433ZM9.65147 8.97437C9.78433 8.23294 9.94718 7.51722 10.0586 7.11865L10.47 7.23437C10.3672 7.62008 10.2043 8.31865 10.0715 9.05151C9.94089 9.70427 9.86208 10.3663 9.83575 11.0315H9.40718C9.40718 10.4958 9.51433 9.71151 9.65147 8.97437ZM12.9515 8.1858C12.8843 7.94903 12.7878 7.72156 12.6643 7.50865L13.02 7.27294C13.1443 7.45722 13.26 7.74008 13.3629 8.05294C13.4736 8.40665 13.5666 8.76567 13.6415 9.12865C13.8043 9.89151 13.9158 10.7144 13.9158 11.2458H13.4872C13.4872 10.7529 13.38 9.96865 13.2215 9.21865C13.1487 8.87009 13.0586 8.52538 12.9515 8.1858Z" fill="#47443D"/>
<path d="M7.68433 6.10301C11.4686 5.76015 13.4872 6.31729 13.7015 6.96015L13.2729 7.81729C12.24 7.30301 9.69004 7.32015 8.54575 7.38872L8.04004 7.05444C7.94968 6.99457 7.88536 6.90269 7.86004 6.79729L7.68861 6.10301H7.68433Z" fill="#FFBC50"/>
<path d="M7.88565 6.91692L7.79565 6.53121C8.54565 6.31692 10.9671 6.38121 11.1214 6.53121C11.5499 6.95978 11.5499 7.43121 11.5499 7.43121C10.4699 7.32407 9.24423 7.34549 8.54565 7.38835H8.11708L7.91994 7.00264C7.90693 6.97521 7.89688 6.94648 7.88994 6.91692H7.88565Z" fill="#47443D"/>
<path d="M13.2686 10.1742C14.4172 10.1014 16.9629 10.1314 17.9958 10.8171C18.63 11.2371 19.0543 11.76 19.2815 12.1028C19.2815 12.1028 19.38 12.6257 18.9643 12.96L18.4243 13.3885H15.8486L15.3343 12.7028C15.2944 12.6496 15.2426 12.6064 15.1831 12.5766C15.1236 12.5469 15.058 12.5314 14.9915 12.5314H13.4486C13.3922 12.5338 13.3359 12.5235 13.284 12.5012C13.2321 12.479 13.1858 12.4453 13.1486 12.4028C12.9183 12.1014 12.7105 11.7834 12.5272 11.4514C12.4912 11.3894 12.4727 11.3189 12.4734 11.2472C12.4742 11.1756 12.4942 11.1055 12.5315 11.0442C12.72 10.7357 13.08 10.1871 13.2686 10.1742Z" fill="#FFBC50"/>
<path d="M14.5586 15.1031C15.4157 15.0302 17.3957 14.7174 18.4243 14.0317C18.7329 13.8474 18.9171 13.6031 19.0671 13.3888C19.4957 12.746 19.44 12.3088 19.2814 12.1031C18.4243 12.1031 18.0686 12.6731 17.9957 12.9602L15.8486 13.1745L15.33 12.6602C15.2509 12.5795 15.143 12.5333 15.03 12.5317H13.7014C13.7014 12.5317 13.4871 13.8174 13.2729 13.8174H12.1971L11.34 11.8888L8.97429 10.8174L6.82715 11.0317L5.32715 12.1031L11.5543 15.1031H14.5586Z" fill="#47443D"/>
<path d="M19.0714 13.3887C19.5 12.7459 19.44 12.3087 19.2857 12.103C18.9086 12.103 18.6257 12.2145 18.4286 12.3602C18.4286 12.7459 18.7372 13.2045 19.0714 13.3887Z" fill="#FCFAFD"/>
<path d="M8.47283 11.0312C9.38423 11.0147 10.2695 11.3362 10.9579 11.9337C11.6464 12.5311 12.0893 13.3623 12.2014 14.2669C12.212 14.319 12.2415 14.3653 12.2843 14.3968C12.3271 14.4283 12.3801 14.4428 12.4329 14.4375C12.4858 14.4321 12.5348 14.4073 12.5704 14.3679C12.606 14.3285 12.6257 14.2772 12.6257 14.224C12.4114 12.184 10.6285 10.6026 8.47283 10.6026C7.77056 10.5982 7.07836 10.7697 6.4593 11.1013C5.84024 11.4329 5.314 11.9141 4.92855 12.5012C4.90136 12.5489 4.89349 12.6051 4.90656 12.6584C4.91963 12.7117 4.95265 12.758 4.9988 12.7876C5.04495 12.8173 5.10073 12.8281 5.15464 12.8179C5.20855 12.8077 5.25647 12.7771 5.28855 12.7326C5.63499 12.2056 6.10792 11.7739 6.66415 11.4766C7.22038 11.1794 7.8422 11.0263 8.47283 11.0312Z" fill="#FFBC50"/>
<path d="M17.3528 12.9599C17.3528 12.9031 17.3303 12.8486 17.2901 12.8084C17.2499 12.7682 17.1954 12.7456 17.1386 12.7456C16.3638 12.7438 15.6144 13.0214 15.0279 13.5276C14.4413 14.0338 14.0571 14.7346 13.9457 15.5013C13.9377 15.5582 13.9527 15.6158 13.9872 15.6616C14.0218 15.7075 14.0731 15.7377 14.13 15.7456C14.1868 15.7536 14.2445 15.7386 14.2903 15.7041C14.3361 15.6695 14.3663 15.6182 14.3743 15.5613C14.4711 14.8976 14.8038 14.291 15.3115 13.8526C15.8192 13.4142 16.4678 13.1733 17.1386 13.1742C17.1954 13.1742 17.2499 13.1516 17.2901 13.1114C17.3303 13.0712 17.3528 13.0167 17.3528 12.9599Z" fill="#A6A29C"/>
<path d="M13.7143 14.3574C13.7143 14.3005 13.6917 14.246 13.6515 14.2058C13.6113 14.1656 13.5568 14.1431 13.5 14.1431H12.45V14.5716H13.5043C13.5604 14.5705 13.6138 14.5474 13.653 14.5074C13.6923 14.4673 13.7143 14.4134 13.7143 14.3574ZM12.24 14.3574C12.24 14.4774 12.3343 14.5716 12.45 14.5716V14.1431C12.3932 14.1431 12.3387 14.1656 12.2985 14.2058C12.2583 14.246 12.2357 14.3005 12.2357 14.3574H12.24Z" fill="#FEBC50"/>
<path d="M15.2057 8.03153C15.2057 8.38724 15.3 8.67439 15.42 8.67439C15.5357 8.67439 15.6343 8.38724 15.6343 8.03153C15.6343 7.6801 15.5357 7.38867 15.42 7.38867C15.3 7.38867 15.2057 7.6801 15.2057 8.03153Z" fill="#A09B95"/>
<path d="M15.42 8.58867L15.4286 8.57153C15.4531 8.53769 15.4719 8.50005 15.4843 8.4601C15.5186 8.35724 15.5443 8.20296 15.5443 8.03153C15.5443 7.8601 15.5186 7.7101 15.4843 7.60296C15.4714 7.56454 15.4526 7.52838 15.4286 7.49581C15.425 7.48956 15.4207 7.4838 15.4157 7.47867L15.3986 7.49581C15.3741 7.52969 15.3553 7.56733 15.3428 7.60724C15.3086 7.7101 15.2871 7.86439 15.2871 8.03581C15.2871 8.20724 15.3086 8.35724 15.3428 8.46439C15.36 8.51581 15.3814 8.5501 15.3986 8.57153C15.4034 8.57803 15.4092 8.5838 15.4157 8.58867H15.42ZM15.4157 8.67439C15.3 8.67439 15.2014 8.38724 15.2014 8.03153C15.2014 7.6801 15.3 7.38867 15.4157 7.38867C15.5357 7.38867 15.63 7.6801 15.63 8.03153C15.63 8.38724 15.5357 8.67439 15.4157 8.67439Z" fill="#B2CCC9"/>
<path d="M4.71431 15.137L4.74003 15.3642C4.74505 15.4138 4.7649 15.4608 4.79701 15.4991C4.82911 15.5373 4.87198 15.5649 4.92003 15.5785C4.95003 15.587 4.98431 15.5913 5.0186 15.587L5.2886 15.557C5.33146 15.7456 5.39146 15.9256 5.4686 16.1013L5.23289 16.2385C5.20426 16.2549 5.17918 16.2768 5.15912 16.303C5.13906 16.3292 5.12441 16.3591 5.11603 16.391C5.10766 16.4229 5.10572 16.4562 5.11033 16.4889C5.11494 16.5215 5.126 16.553 5.14289 16.5813L5.2586 16.7827C5.29324 16.839 5.3485 16.8794 5.41257 16.8954C5.47664 16.9115 5.54443 16.9018 5.60146 16.8685L5.84146 16.7313C5.9486 16.877 6.07289 17.0142 6.20574 17.1385L6.04289 17.357C6.00378 17.4099 5.98724 17.4762 5.99688 17.5412C6.00652 17.6063 6.04155 17.6649 6.09431 17.7042L6.28289 17.8413C6.33616 17.8793 6.40209 17.8952 6.46683 17.8856C6.53157 17.876 6.59007 17.8417 6.63003 17.7899L6.79717 17.5713C6.96003 17.6613 7.13146 17.7427 7.31146 17.8027L7.24717 18.0685C7.23963 18.1009 7.23867 18.1344 7.24434 18.1672C7.25001 18.2 7.26219 18.2313 7.28018 18.2592C7.29816 18.2872 7.32157 18.3113 7.34903 18.3301C7.37649 18.3488 7.40743 18.3619 7.44003 18.3685L7.66717 18.4199C7.73251 18.4339 7.80075 18.4215 7.85696 18.3854C7.91318 18.3492 7.9528 18.2923 7.96717 18.227L8.02717 17.9613C8.22801 17.9818 8.43034 17.9833 8.63146 17.9656L8.69574 18.2313C8.70618 18.2799 8.73096 18.3243 8.76686 18.3587C8.80277 18.393 8.84816 18.4159 8.89717 18.4242C8.92972 18.4305 8.96319 18.4305 8.99574 18.4242L9.2186 18.3727C9.28387 18.3584 9.34079 18.3188 9.37693 18.2625C9.41307 18.2063 9.42548 18.1381 9.41146 18.0727L9.35146 17.8156C9.53574 17.7556 9.71146 17.6785 9.8786 17.5842L10.0329 17.7899C10.0729 17.8429 10.1323 17.8781 10.1981 17.8877C10.2638 17.8973 10.3307 17.8807 10.3843 17.8413L10.5686 17.7042C10.5957 17.685 10.6186 17.6606 10.6361 17.6325C10.6536 17.6043 10.6653 17.5729 10.6705 17.5402C10.6757 17.5075 10.6743 17.474 10.6664 17.4418C10.6584 17.4096 10.6441 17.3793 10.6243 17.3527L10.4743 17.1556C10.6157 17.027 10.7443 16.8813 10.86 16.727L11.0743 16.8556C11.1317 16.8903 11.2005 16.9007 11.2656 16.8846C11.3307 16.8686 11.3868 16.8273 11.4215 16.7699L11.5415 16.5727C11.5585 16.5447 11.5698 16.5135 11.5748 16.481C11.5797 16.4485 11.5781 16.4153 11.5701 16.3834C11.5622 16.3515 11.548 16.3216 11.5283 16.2952C11.5087 16.2688 11.484 16.2466 11.4557 16.2299L11.2286 16.1013C11.3057 15.9213 11.3657 15.737 11.4086 15.5485L11.6786 15.5785C11.7444 15.5858 11.8104 15.5669 11.8625 15.5261C11.9146 15.4852 11.9486 15.4255 11.9572 15.3599L11.9786 15.1285C11.9837 15.0796 11.9742 15.0303 11.9513 14.9868C11.9285 14.9434 11.8932 14.9076 11.85 14.8842C11.8221 14.8687 11.7916 14.8585 11.76 14.8542L11.4815 14.8242C11.4815 14.6227 11.46 14.4213 11.4172 14.2242L11.6786 14.1385C11.726 14.1225 11.7676 14.0927 11.7981 14.0531C11.8287 14.0134 11.8467 13.9655 11.85 13.9156C11.85 13.8856 11.85 13.8513 11.8372 13.8213L11.7643 13.6027C11.7542 13.5708 11.7377 13.5413 11.7159 13.5159C11.6941 13.4905 11.6674 13.4698 11.6374 13.455C11.6073 13.4402 11.5746 13.4316 11.5412 13.4298C11.5078 13.4279 11.4744 13.4328 11.4429 13.4442L11.1857 13.5299C11.1043 13.367 11.0143 13.2085 10.9029 13.0585L11.1086 12.8742C11.1335 12.8522 11.1537 12.8254 11.168 12.7955C11.1824 12.7656 11.1906 12.7331 11.1922 12.6999C11.1938 12.6668 11.1888 12.6336 11.1773 12.6025C11.1659 12.5713 11.1484 12.5427 11.1257 12.5185L10.9715 12.347C10.9258 12.2984 10.8629 12.2698 10.7962 12.2674C10.7296 12.265 10.6648 12.289 10.6157 12.3342L10.41 12.5142C10.2725 12.3944 10.1248 12.2869 9.9686 12.1927L10.08 11.9442C10.0935 11.9141 10.1009 11.8816 10.1017 11.8487C10.1025 11.8158 10.0968 11.783 10.0848 11.7523C10.0729 11.7216 10.0549 11.6935 10.032 11.6698C10.0091 11.6461 9.98173 11.6272 9.95146 11.6142L9.74574 11.5199C9.68491 11.4922 9.6156 11.4898 9.55296 11.5131C9.49032 11.5364 9.43944 11.5835 9.41146 11.6442L9.30003 11.8927C9.10875 11.8326 8.91213 11.791 8.71289 11.7685V11.4942C8.71289 11.4283 8.6867 11.365 8.64008 11.3184C8.59346 11.2718 8.53024 11.2456 8.46431 11.2456H8.23289C8.16656 11.2456 8.10289 11.2716 8.05559 11.3181C8.00829 11.3646 7.98115 11.4279 7.98003 11.4942V11.7685C7.78289 11.7899 7.58574 11.8327 7.39717 11.8927L7.28574 11.6442C7.27275 11.6134 7.25367 11.5855 7.22965 11.5622C7.20562 11.539 7.17716 11.5208 7.14595 11.5088C7.11474 11.4968 7.08143 11.4912 7.04801 11.4924C7.01459 11.4935 6.98175 11.5014 6.95146 11.5156L6.73717 11.6142C6.69258 11.635 6.65503 11.6684 6.62915 11.7103C6.60326 11.7522 6.59016 11.8007 6.59146 11.8499C6.59146 11.8842 6.60003 11.9142 6.61289 11.9442L6.7286 12.1927C6.57003 12.287 6.42431 12.3985 6.28289 12.5185L6.08146 12.3342C6.03189 12.2895 5.9667 12.2663 5.90007 12.2695C5.83344 12.2727 5.77079 12.3021 5.72574 12.3513L5.57146 12.5227C5.54948 12.5469 5.53249 12.5752 5.52145 12.606C5.51042 12.6367 5.50556 12.6694 5.50715 12.702C5.50875 12.7347 5.51676 12.7667 5.53073 12.7962C5.54471 12.8257 5.56437 12.8522 5.5886 12.8742L5.79003 13.0585V13.0627C5.68289 13.2127 5.5886 13.3713 5.51146 13.5342L5.25003 13.4485C5.18692 13.4291 5.11879 13.4348 5.05976 13.4643C5.00072 13.4939 4.9553 13.545 4.93289 13.607L4.85574 13.8256C4.84503 13.8568 4.84065 13.8899 4.84285 13.9228C4.84504 13.9557 4.85378 13.9879 4.86854 14.0174C4.8833 14.0469 4.90379 14.0732 4.92882 14.0947C4.95385 14.1163 4.98291 14.1326 5.01431 14.1427L5.27574 14.2285C5.23289 14.4256 5.21574 14.6313 5.21146 14.8327L4.93717 14.8627C4.87156 14.8703 4.81151 14.9032 4.76987 14.9545C4.72822 15.0058 4.70828 15.0713 4.71431 15.137Z" fill="#47443D"/>
<path d="M5.58858 12.8742L5.79001 13.0585V13.0627L11.4729 16.2427C11.4659 16.2382 11.4587 16.2339 11.4514 16.2299L11.2286 16.097C11.3057 15.9213 11.3657 15.737 11.4086 15.5485L11.6786 15.5785C11.7444 15.5858 11.8104 15.5669 11.8625 15.5261C11.9146 15.4852 11.9486 15.4255 11.9571 15.3599L11.9786 15.1285C11.9837 15.0796 11.9742 15.0303 11.9513 14.9868C11.9284 14.9434 11.8932 14.9076 11.85 14.8842C11.8221 14.8687 11.7916 14.8585 11.76 14.8542L11.4814 14.8242C11.4814 14.6227 11.46 14.4213 11.4171 14.2242L11.6786 14.1385C11.726 14.1225 11.7676 14.0927 11.7981 14.0531C11.8286 14.0134 11.8467 13.9655 11.85 13.9156C11.85 13.8856 11.85 13.8513 11.8371 13.8213L11.7643 13.6027C11.7542 13.5708 11.7377 13.5413 11.7159 13.5159C11.6941 13.4905 11.6674 13.4698 11.6373 13.455C11.6073 13.4402 11.5746 13.4316 11.5412 13.4298C11.5078 13.4279 11.4743 13.4328 11.4429 13.4442L11.1857 13.5299C11.1043 13.367 11.0143 13.2085 10.9029 13.0585L11.1086 12.8742C11.1334 12.8522 11.1537 12.8254 11.168 12.7955C11.1824 12.7656 11.1906 12.7331 11.1922 12.6999C11.1938 12.6668 11.1887 12.6336 11.1773 12.6025C11.1659 12.5713 11.1484 12.5427 11.1257 12.5185L10.9714 12.347C10.9258 12.2984 10.8628 12.2698 10.7962 12.2674C10.7296 12.265 10.6647 12.289 10.6157 12.3342L10.41 12.5142C10.2725 12.3944 10.1248 12.2869 9.96858 12.1927L10.08 11.9442C10.0935 11.9141 10.1009 11.8816 10.1017 11.8487C10.1025 11.8158 10.0968 11.783 10.0848 11.7523C10.0728 11.7216 10.0549 11.6935 10.032 11.6698C10.0091 11.6461 9.98171 11.6272 9.95143 11.6142L9.74572 11.5199C9.68489 11.4922 9.61557 11.4898 9.55293 11.5131C9.49029 11.5364 9.43942 11.5835 9.41143 11.6442L9.30001 11.8927C9.10873 11.8326 8.91211 11.791 8.71286 11.7685V11.4942C8.71286 11.4283 8.68667 11.365 8.64006 11.3184C8.59344 11.2718 8.53022 11.2456 8.46429 11.2456H8.23286C8.16654 11.2456 8.10286 11.2716 8.05556 11.3181C8.00827 11.3646 7.98113 11.4279 7.98001 11.4942V11.7685C7.78286 11.7899 7.58572 11.8327 7.39715 11.8927L7.28572 11.6442C7.27272 11.6134 7.25364 11.5855 7.22962 11.5622C7.2056 11.539 7.17714 11.5208 7.14593 11.5088C7.11471 11.4968 7.0814 11.4912 7.04798 11.4924C7.01457 11.4935 6.98173 11.5014 6.95143 11.5156L6.73715 11.6142C6.69255 11.635 6.65501 11.6684 6.62913 11.7103C6.60324 11.7522 6.59014 11.8007 6.59143 11.8499C6.59143 11.8842 6.60001 11.9142 6.61286 11.9442L6.72858 12.1927C6.57001 12.287 6.42429 12.3985 6.28286 12.5185L6.08143 12.3342C6.03187 12.2895 5.96667 12.2663 5.90005 12.2695C5.83342 12.2727 5.77076 12.3021 5.72572 12.3513L5.57143 12.5227C5.54946 12.5469 5.53247 12.5752 5.52143 12.606C5.5104 12.6367 5.50554 12.6694 5.50713 12.702C5.50872 12.7347 5.51674 12.7667 5.53071 12.7962C5.54469 12.8257 5.56435 12.8522 5.58858 12.8742Z" fill="#686259"/>
<path d="M6.27857 14.8287C6.27781 15.312 6.44693 15.7803 6.75636 16.1516C7.06579 16.5229 7.49587 16.7737 7.97143 16.8601C8.44661 16.9489 8.93788 16.8707 9.36199 16.6387C9.78611 16.4067 10.117 16.0352 10.2986 15.5872C10.4122 15.3034 10.4611 14.9977 10.4417 14.6926C10.4223 14.3874 10.3352 14.0904 10.1866 13.8232C10.038 13.5559 9.83166 13.3252 9.58266 13.1477C9.33366 12.9702 9.04823 12.8505 8.74714 12.7972C8.295 12.7136 7.82791 12.7807 7.41758 12.9882C7.00725 13.1957 6.67636 13.5321 6.47571 13.9458C6.34531 14.2218 6.27796 14.5234 6.27857 14.8287Z" fill="#686259"/>
<path d="M6.70288 13.5771L10.2986 15.5871C10.4842 15.1215 10.4934 14.6042 10.3245 14.1323C10.1556 13.6604 9.82029 13.2664 9.38145 13.0243C8.94276 12.7804 8.43111 12.7021 7.93955 12.8035C7.44799 12.905 7.00916 13.1795 6.70288 13.5771Z" fill="#47443D"/>
<path d="M8.34854 16.4187C8.14031 16.4193 7.93399 16.3788 7.74139 16.2997C7.54879 16.2205 7.37366 16.1042 7.22602 15.9573C7.07837 15.8105 6.9611 15.636 6.88089 15.4438C6.80068 15.2516 6.75911 15.0455 6.75854 14.8373C6.75968 14.4175 6.92725 14.0153 7.2245 13.7188C7.52176 13.4224 7.92444 13.2559 8.34426 13.2559C8.55286 13.2548 8.75963 13.2948 8.95273 13.3737C9.14583 13.4526 9.32146 13.5689 9.46956 13.7158C9.61766 13.8627 9.73532 14.0374 9.81579 14.2298C9.89627 14.4223 9.93798 14.6287 9.93854 14.8373C9.93798 15.0455 9.89641 15.2516 9.8162 15.4438C9.73599 15.636 9.61872 15.8105 9.47107 15.9573C9.32343 16.1042 9.1483 16.2205 8.9557 16.2997C8.7631 16.3788 8.55678 16.4193 8.34854 16.4187Z" fill="#FFBC50"/>
<path d="M8.35709 15.1544C8.2707 15.1544 8.18785 15.12 8.12677 15.059C8.06569 14.9979 8.03137 14.915 8.03137 14.8286C8.03137 14.6486 8.17709 14.5029 8.36137 14.5029C8.44776 14.5029 8.5306 14.5372 8.59169 14.5983C8.65277 14.6594 8.68709 14.7423 8.68709 14.8286C8.68709 14.915 8.65277 14.9979 8.59169 15.059C8.5306 15.12 8.44776 15.1544 8.36137 15.1544H8.35709Z" fill="#47443D"/>
<path d="M8.34856 15.8015C8.5405 15.8015 8.72822 15.7451 8.88827 15.6391C9.04833 15.5332 9.17364 15.3825 9.24856 15.2058C9.3041 15.0734 9.32927 14.9304 9.32223 14.787C9.31518 14.6437 9.27609 14.5038 9.20784 14.3776C9.13959 14.2514 9.04391 14.142 8.92784 14.0577C8.81177 13.9733 8.67826 13.916 8.53713 13.89C8.34868 13.8529 8.15344 13.8721 7.97584 13.9453C7.79824 14.0184 7.64614 14.1423 7.53856 14.3015C7.43958 14.4469 7.38246 14.6168 7.37345 14.7925C7.36444 14.9682 7.40389 15.143 7.48748 15.2978C7.57108 15.4526 7.6956 15.5814 7.84746 15.6702C7.99931 15.7591 8.17266 15.8045 8.34856 15.8015ZM8.34856 14.0358C8.50786 14.0366 8.66342 14.0841 8.79597 14.1725C8.92852 14.2609 9.03223 14.3862 9.09428 14.5329C9.14046 14.6425 9.16152 14.7611 9.15592 14.8799C9.15031 14.9988 9.11818 15.1148 9.06187 15.2196C9.00557 15.3244 8.92653 15.4153 8.83054 15.4856C8.73455 15.5559 8.62404 15.6038 8.50713 15.6258C8.35019 15.6566 8.18765 15.6405 8.03979 15.5795C7.89193 15.5186 7.7653 15.4154 7.67571 15.2829C7.59424 15.1621 7.54742 15.0214 7.54033 14.8759C7.53325 14.7304 7.56617 14.5857 7.63553 14.4576C7.70488 14.3295 7.80801 14.2228 7.93372 14.1492C8.05943 14.0756 8.2029 14.0378 8.34856 14.04V14.0358Z" fill="#47443D"/>
<path d="M9.1843 13.7572L9.27859 13.8515C9.32145 13.8944 9.32145 13.963 9.27859 14.0058C9.23573 14.0487 9.16716 14.0487 9.1243 14.0058L9.03002 13.9115C9.01965 13.9015 9.0114 13.8895 9.00577 13.8763C9.00013 13.863 8.99723 13.8488 8.99723 13.8344C8.99723 13.82 9.00013 13.8057 9.00577 13.7925C9.0114 13.7792 9.01965 13.7672 9.03002 13.7572C9.07287 13.7144 9.14145 13.7144 9.1843 13.7572ZM8.74287 14.3144L8.83287 14.4087C8.87573 14.4515 8.87573 14.5201 8.83287 14.563C8.79002 14.6058 8.72145 14.6058 8.67859 14.563L8.5843 14.4687C8.57393 14.4587 8.56568 14.4467 8.56005 14.4334C8.55442 14.4202 8.55151 14.4059 8.55151 14.3915C8.55151 14.3771 8.55442 14.3629 8.56005 14.3496C8.56568 14.3364 8.57393 14.3244 8.5843 14.3144C8.62716 14.2715 8.69573 14.2715 8.73859 14.3144H8.74287Z" fill="#FFD591"/>
<path d="M14.5457 16.1143L14.5542 16.17C14.5585 16.2166 14.5768 16.2607 14.6066 16.2967C14.6364 16.3326 14.6764 16.3587 14.7214 16.3715C14.7471 16.38 14.7814 16.38 14.8071 16.3758L14.9271 16.3672C14.9614 16.5 15.0042 16.6329 15.0599 16.7615L14.9571 16.8215C14.9305 16.8366 14.9073 16.8568 14.8886 16.8809C14.8699 16.9051 14.8562 16.9327 14.8482 16.9622C14.8402 16.9917 14.8382 17.0224 14.8421 17.0527C14.8461 17.083 14.8561 17.1122 14.8714 17.1386L14.9014 17.19C14.9327 17.2439 14.9841 17.2832 15.0444 17.2993C15.1046 17.3153 15.1688 17.3069 15.2228 17.2758L15.3257 17.2115C15.4114 17.3143 15.4971 17.4129 15.5914 17.5029L15.5185 17.6015C15.5001 17.6259 15.4866 17.6537 15.479 17.6834C15.4714 17.713 15.4697 17.7439 15.4741 17.7742C15.4785 17.8045 15.4888 17.8336 15.5045 17.8598C15.5203 17.8861 15.541 17.909 15.5657 17.9272L15.6128 17.9615C15.663 17.9972 15.7253 18.0118 15.7861 18.0022C15.847 17.9926 15.9017 17.9595 15.9385 17.91L16.0157 17.8072C16.1357 17.8715 16.2599 17.9272 16.3885 17.97L16.3585 18.0986C16.3516 18.1284 16.3506 18.1594 16.3557 18.1896C16.3608 18.2198 16.3718 18.2487 16.3882 18.2746C16.4045 18.3005 16.4258 18.3229 16.4509 18.3405C16.476 18.3582 16.5043 18.3706 16.5342 18.3772L16.5899 18.39C16.6501 18.4029 16.713 18.3917 16.765 18.3589C16.8171 18.3261 16.8542 18.2742 16.8685 18.2143L16.8985 18.0772C17.0425 18.0906 17.1874 18.0906 17.3314 18.0772L17.3657 18.2143C17.3722 18.2442 17.3847 18.2726 17.4023 18.2976C17.4199 18.3227 17.4423 18.344 17.4682 18.3604C17.4941 18.3767 17.523 18.3878 17.5533 18.3929C17.5835 18.398 17.6144 18.397 17.6442 18.39L17.6999 18.3772C17.7581 18.362 17.8083 18.3251 17.8401 18.2741C17.872 18.2231 17.8832 18.1619 17.8714 18.1029L17.8414 17.9615C17.9699 17.9186 18.0985 17.8629 18.2142 17.7943L18.2999 17.9058C18.3372 17.9533 18.3914 17.9848 18.4512 17.9935C18.5111 18.0023 18.572 17.9878 18.6214 17.9529L18.6685 17.9229C18.6935 17.905 18.7146 17.8824 18.7307 17.8563C18.7469 17.8302 18.7576 17.8011 18.7624 17.7708C18.7672 17.7405 18.7659 17.7095 18.7586 17.6797C18.7513 17.6499 18.7382 17.6219 18.7199 17.5972L18.6342 17.4858C18.7328 17.3915 18.8228 17.2929 18.9042 17.1858L19.0285 17.2586C19.082 17.2901 19.1458 17.2992 19.206 17.284C19.2661 17.2687 19.3179 17.2303 19.3499 17.1772L19.3757 17.13C19.4073 17.0777 19.417 17.015 19.4025 16.9556C19.3881 16.8961 19.3507 16.8448 19.2985 16.8129L19.1657 16.7358C19.2171 16.6072 19.2599 16.4786 19.2857 16.35L19.4485 16.3715C19.5097 16.3775 19.5709 16.3594 19.619 16.321C19.667 16.2825 19.6981 16.2268 19.7057 16.1658L19.7142 16.11C19.7178 16.0796 19.7153 16.0488 19.7069 16.0193C19.6984 15.9899 19.6842 15.9624 19.6651 15.9385C19.646 15.9146 19.6223 15.8947 19.5954 15.88C19.5685 15.8653 19.539 15.8561 19.5085 15.8529L19.3371 15.8358C19.3371 15.6943 19.3242 15.5572 19.2942 15.42L19.4528 15.3686C19.5109 15.3481 19.5587 15.3057 19.5859 15.2505C19.6132 15.1952 19.6177 15.1315 19.5985 15.0729L19.5814 15.0215C19.5717 14.9924 19.5564 14.9654 19.5362 14.9423C19.5161 14.9192 19.4915 14.9003 19.464 14.8867C19.4365 14.8732 19.4065 14.8652 19.3759 14.8633C19.3453 14.8615 19.3146 14.8657 19.2857 14.8758L19.1314 14.9272C19.077 14.8103 19.0125 14.6985 18.9385 14.5929L19.0585 14.4858C19.1032 14.4441 19.1296 14.3866 19.132 14.3255C19.1344 14.2645 19.1126 14.205 19.0714 14.16L19.0328 14.1172C18.991 14.0716 18.933 14.0443 18.8713 14.0411C18.8096 14.0379 18.7491 14.0591 18.7028 14.1L18.5871 14.2072C18.4928 14.1215 18.3899 14.0443 18.2785 13.9758L18.3428 13.8386C18.3555 13.8105 18.3626 13.7802 18.3634 13.7493C18.3643 13.7185 18.3589 13.6878 18.3478 13.6591C18.3366 13.6303 18.3198 13.6041 18.2983 13.5819C18.2768 13.5598 18.2512 13.5421 18.2228 13.53L18.1714 13.5086C18.1435 13.4957 18.1134 13.4885 18.0828 13.4874C18.0522 13.4862 18.0216 13.4912 17.9929 13.5019C17.9642 13.5127 17.9379 13.5291 17.9156 13.5501C17.8932 13.5711 17.8753 13.5963 17.8628 13.6243L17.8028 13.7572C17.6689 13.7128 17.5312 13.6812 17.3914 13.6629V13.5215C17.3912 13.4753 17.3773 13.4302 17.3513 13.392C17.3253 13.3538 17.2886 13.3243 17.2457 13.3072C17.2184 13.2962 17.1893 13.2904 17.1599 13.29H17.0999C17.0544 13.2904 17.0099 13.3039 16.9719 13.329C16.9338 13.3541 16.9039 13.3897 16.8857 13.4315C16.8739 13.46 16.8681 13.4906 16.8685 13.5215V13.6586C16.7271 13.6758 16.5857 13.7015 16.4485 13.7443L16.3928 13.6243C16.3803 13.5963 16.3624 13.5711 16.34 13.5501C16.3177 13.5291 16.2914 13.5127 16.2627 13.5019C16.234 13.4912 16.2034 13.4862 16.1728 13.4874C16.1422 13.4885 16.1121 13.4957 16.0842 13.5086L16.0328 13.53C15.9773 13.5553 15.9341 13.6014 15.9124 13.6584C15.8907 13.7154 15.8924 13.7786 15.9171 13.8343L15.9685 13.9543C15.8571 14.0229 15.7457 14.1 15.6471 14.1858L15.5528 14.1C15.5065 14.0591 15.446 14.0379 15.3843 14.0411C15.3226 14.0443 15.2646 14.0716 15.2228 14.1172L15.1842 14.16C15.1435 14.2056 15.1225 14.2654 15.1257 14.3264C15.1289 14.3874 15.1561 14.4447 15.2014 14.4858L15.2914 14.5715C15.2142 14.6786 15.1457 14.7943 15.0857 14.9143L14.9699 14.8758C14.9119 14.8578 14.8493 14.863 14.795 14.8901C14.7407 14.9173 14.699 14.9643 14.6785 15.0215L14.6571 15.0772C14.6478 15.1062 14.6442 15.1367 14.6467 15.1671C14.6492 15.1974 14.6577 15.227 14.6716 15.254C14.6855 15.2811 14.7047 15.3052 14.7279 15.3248C14.7512 15.3445 14.7781 15.3594 14.8071 15.3686L14.9185 15.4115C14.8885 15.5529 14.8757 15.6986 14.8757 15.8486L14.7557 15.8615C14.6938 15.868 14.637 15.8986 14.5977 15.9468C14.5584 15.995 14.5397 16.0567 14.5457 16.1186V16.1143Z" fill="#47443D"/>
<path d="M15.2014 14.4858L15.2957 14.5715L19.3542 16.8643C19.3386 16.8443 19.3198 16.8269 19.2985 16.8129L19.1657 16.7358C19.2171 16.6115 19.26 16.4829 19.2857 16.35L19.4485 16.3715C19.5098 16.3775 19.5709 16.3594 19.619 16.321C19.667 16.2825 19.6981 16.2268 19.7057 16.1658L19.7142 16.11C19.7178 16.0796 19.7153 16.0488 19.7069 16.0193C19.6984 15.9899 19.6842 15.9624 19.6651 15.9385C19.646 15.9146 19.6223 15.8947 19.5954 15.88C19.5685 15.8653 19.539 15.8561 19.5085 15.8529L19.3371 15.8358C19.3371 15.6943 19.3242 15.5572 19.2942 15.42L19.4528 15.3686C19.5109 15.3481 19.5587 15.3057 19.586 15.2505C19.6132 15.1952 19.6177 15.1315 19.5985 15.0729L19.5814 15.0215C19.5717 14.9924 19.5564 14.9654 19.5362 14.9423C19.5161 14.9192 19.4915 14.9003 19.464 14.8867C19.4365 14.8732 19.4066 14.8652 19.376 14.8633C19.3453 14.8615 19.3146 14.8657 19.2857 14.8758L19.1314 14.9272C19.077 14.8103 19.0125 14.6985 18.9385 14.5929L19.0585 14.4858C19.1032 14.4441 19.1296 14.3866 19.132 14.3255C19.1344 14.2645 19.1126 14.205 19.0714 14.16L19.0328 14.1172C18.991 14.0716 18.933 14.0443 18.8713 14.0411C18.8096 14.0379 18.7491 14.0591 18.7028 14.1L18.5871 14.2072C18.4928 14.1215 18.39 14.0443 18.2785 13.9758L18.3428 13.8386C18.3556 13.8105 18.3626 13.7802 18.3634 13.7493C18.3643 13.7185 18.359 13.6878 18.3478 13.6591C18.3366 13.6303 18.3198 13.6041 18.2983 13.5819C18.2769 13.5598 18.2512 13.5421 18.2228 13.53L18.1714 13.5086C18.1436 13.4957 18.1135 13.4885 18.0828 13.4874C18.0522 13.4862 18.0216 13.4912 17.9929 13.5019C17.9642 13.5127 17.9379 13.5291 17.9156 13.5501C17.8932 13.5711 17.8753 13.5963 17.8628 13.6243L17.8028 13.7572C17.669 13.7128 17.5312 13.6812 17.3914 13.6629V13.5215C17.3913 13.4753 17.3773 13.4302 17.3513 13.392C17.3254 13.3538 17.2886 13.3243 17.2457 13.3072C17.2184 13.2962 17.1894 13.2904 17.16 13.29H17.1C17.0386 13.29 16.9797 13.3144 16.9363 13.3578C16.8929 13.4012 16.8685 13.4601 16.8685 13.5215V13.6586C16.7271 13.6758 16.5857 13.7015 16.4485 13.7443L16.3928 13.6243C16.3803 13.5963 16.3624 13.5711 16.3401 13.5501C16.3177 13.5291 16.2914 13.5127 16.2627 13.5019C16.234 13.4912 16.2035 13.4862 16.1728 13.4874C16.1422 13.4885 16.1121 13.4957 16.0842 13.5086L16.0328 13.53C15.9773 13.5553 15.9341 13.6014 15.9124 13.6584C15.8907 13.7154 15.8924 13.7786 15.9171 13.8343L15.9685 13.9543C15.8571 14.0229 15.7457 14.1 15.6471 14.1858L15.5528 14.1C15.5065 14.0591 15.446 14.0379 15.3843 14.0411C15.3226 14.0443 15.2646 14.0716 15.2228 14.1172L15.1842 14.16C15.1435 14.2056 15.1225 14.2654 15.1257 14.3264C15.1289 14.3874 15.1561 14.4447 15.2014 14.4858Z" fill="#686259"/>
<path d="M15.5443 15.8484C15.5428 16.2254 15.6765 16.5905 15.921 16.8774C16.1655 17.1644 16.5047 17.3543 16.8772 17.4127C17.249 17.4725 17.6301 17.3991 17.9531 17.2055C18.2762 17.0118 18.5204 16.7103 18.6429 16.3541C18.7631 15.9987 18.7523 15.612 18.6124 15.2638C18.4725 14.9157 18.2127 14.629 17.88 14.4555C17.5462 14.2795 17.1609 14.2273 16.7922 14.3081C16.4236 14.3888 16.0954 14.5975 15.8658 14.897C15.6575 15.1705 15.5446 15.5047 15.5443 15.8484Z" fill="#47443D"/>
<path d="M15.5443 15.8484C15.544 16.2164 15.6723 16.5729 15.9071 16.8562C16.1419 17.1395 16.4684 17.3318 16.83 17.3998C17.1912 17.4695 17.5653 17.4124 17.8893 17.2383C18.2133 17.0642 18.4673 16.7837 18.6086 16.4441L15.8657 14.897C15.6572 15.1703 15.5443 15.5046 15.5443 15.8484Z" fill="#686259"/>
<path d="M17.1299 17.0784C16.4442 17.0784 15.8871 16.5213 15.8871 15.8441C15.8871 15.1627 16.4442 14.6099 17.1299 14.6099C17.8157 14.6099 18.3728 15.167 18.3728 15.8441C18.3728 16.5256 17.8157 17.0784 17.1299 17.0784Z" fill="#FFBC50"/>
<path d="M17.1343 16.1741C17.0479 16.1741 16.9651 16.1398 16.904 16.0787C16.8429 16.0176 16.8086 15.9347 16.8086 15.8484C16.8086 15.7614 16.8431 15.678 16.9046 15.6165C16.9661 15.5551 17.0495 15.5205 17.1365 15.5205C17.2234 15.5205 17.3068 15.5551 17.3683 15.6165C17.4298 15.678 17.4643 15.7614 17.4643 15.8484C17.4643 16.0284 17.3186 16.1741 17.1343 16.1741Z" fill="#47443D"/>
<path d="M17.5628 15.2914L17.6571 15.3857C17.6999 15.4286 17.6999 15.4971 17.6571 15.54C17.6142 15.5828 17.5457 15.5828 17.5028 15.54L17.4085 15.4457C17.3982 15.4357 17.3899 15.4237 17.3843 15.4105C17.3786 15.3972 17.3757 15.383 17.3757 15.3686C17.3757 15.3542 17.3786 15.3399 17.3843 15.3267C17.3899 15.3134 17.3982 15.3014 17.4085 15.2914C17.4514 15.2486 17.5199 15.2486 17.5628 15.2914Z" fill="#FFD591"/>
<path d="M12.48 11.2883C16.0586 10.8598 17.8371 11.9012 18.3943 12.394L18.4543 12.3298C17.8714 11.8155 16.0672 10.774 12.4714 11.2026L12.48 11.2883Z" fill="#FFD48F"/>
<path d="M14.9871 9.96024C14.9871 9.96024 14.5586 9.53167 14.13 9.31738V12.9602H14.9871V9.96024Z" fill="#47443D"/>
<path d="M14.9871 9.96024C14.9871 9.96024 14.6143 9.58738 14.2157 9.36024C14.1875 9.34529 14.1589 9.331 14.13 9.31738V12.9602H14.9871V9.96024ZM14.9014 12.8745H14.2157V9.4631C14.4654 9.61293 14.6956 9.79285 14.9014 9.99881V12.8702V12.8745Z" fill="#9F9C95"/>
<path d="M15.2058 11.6742C15.2058 11.5605 15.1606 11.4515 15.0802 11.3712C14.9999 11.2908 14.8909 11.2456 14.7772 11.2456H14.3486C14.292 11.2451 14.2358 11.2557 14.1833 11.277C14.1308 11.2983 14.0831 11.3298 14.0428 11.3696C14.0026 11.4095 13.9706 11.4569 13.9488 11.5092C13.927 11.5615 13.9158 11.6176 13.9158 11.6742V12.7456C13.9158 12.8593 13.9609 12.9683 14.0413 13.0487C14.1217 13.129 14.2307 13.1742 14.3443 13.1742H14.7729C14.8866 13.1742 14.9956 13.129 15.076 13.0487C15.1563 12.9683 15.2015 12.8593 15.2015 12.7456V11.6742H15.2058Z" fill="#48453E"/>
<path d="M15.1158 11.6742C15.1158 11.5832 15.0796 11.496 15.0154 11.4317C14.9511 11.3674 14.8638 11.3313 14.7729 11.3313H14.3443C14.2534 11.3313 14.1662 11.3674 14.1019 11.4317C14.0376 11.496 14.0015 11.5832 14.0015 11.6742V12.7456C14.0015 12.9342 14.1558 13.0885 14.3443 13.0885H14.7729C14.8638 13.0885 14.9511 13.0523 15.0154 12.988C15.0796 12.9237 15.1158 12.8365 15.1158 12.7456V11.6742ZM14.7729 11.2456C14.8866 11.2456 14.9956 11.2908 15.076 11.3711C15.1563 11.4515 15.2015 11.5605 15.2015 11.6742V12.7456C15.2015 12.8593 15.1563 12.9683 15.076 13.0487C14.9956 13.129 14.8866 13.1742 14.7729 13.1742H14.3443C14.2307 13.1742 14.1217 13.129 14.0413 13.0487C13.9609 12.9683 13.9158 12.8593 13.9158 12.7456V11.6742C13.9158 11.5605 13.9609 11.4515 14.0413 11.3711C14.1217 11.2908 14.2307 11.2456 14.3443 11.2456H14.7729Z" fill="#A49F98"/>
</g>
<defs>
<clipPath id="clip0_31_10218">
<rect width="24" height="24" fill="white"/>
</clipPath>
</defs>
</svg>
