<svg xmlns="http://www.w3.org/2000/svg" width="24" height="24" fill="none" viewBox="0 0 24 24"><g clip-path="url(#a)"><path fill="#F0F3FA" d="M0 0h24v24H0z"/><path fill="#E62058" d="M15.771 11.143H9.574c-1.701 0-3.098 1.29-3.141 2.923 0 .043.034.077.085.077h6.202c1.701.009 3.098-1.29 3.141-2.923a.086.086 0 0 0-.085-.077zm3-4.714h-9.24a3.047 3.047 0 0 0-3.103 2.923c0 .042.035.077.078.077h9.244a3.05 3.05 0 0 0 3.107-2.923c0-.043-.038-.077-.081-.077zM7.928 18.857a1.5 1.5 0 1 0 0-3 1.5 1.5 0 0 0 0 3"/></g><defs><clipPath id="a"><path fill="#fff" d="M0 0h24v24H0z"/></clipPath></defs></svg>