<svg xmlns="http://www.w3.org/2000/svg" width="24" height="24" fill="none" viewBox="0 0 24 24"><g clip-path="url(#a)"><path fill="url(#b)" d="M0 0h24v24H0z"/><path fill="#fff" fill-rule="evenodd" d="M6.857 6.669 8.38 5.143l1.68 1.689a3.6 3.6 0 0 1 1.667-.403h1.406c.6 0 1.17.145 1.667.403l1.68-1.689L18 6.67l-1.676 1.684a3.5 3.5 0 0 1 .39 1.607v.716c0 1.95-1.602 3.467-3.582 3.467h-2.846v4.714H8.143V9.956a3.5 3.5 0 0 1 .39-1.603zm3.429 3.386a1.52 1.52 0 0 1 1.543-1.483h1.2c.848 0 1.543.664 1.543 1.483v.462A1.517 1.517 0 0 1 13.029 12h-2.743z" clip-rule="evenodd"/></g><defs><linearGradient id="b" x1="4.466" x2="29.207" y1="4.161" y2="32.58" gradientUnits="userSpaceOnUse"><stop stop-color="#1A1E21"/><stop offset="1" stop-color="#06060A"/></linearGradient><clipPath id="a"><path fill="#fff" d="M0 0h24v24H0z"/></clipPath></defs></svg>