<svg width="24" height="24" viewBox="0 0 24 24" fill="none" xmlns="http://www.w3.org/2000/svg">
<g clip-path="url(#clip0_31_10769)">
<path d="M0 0H24V24H0V0Z" fill="#201F2D"/>
<path d="M13.9457 12.0001H16.4357L18.4286 15.4287V17.5716H10.83C7.92427 17.5716 5.57141 15.1673 5.57141 12.1973V11.803C5.57141 8.82871 7.92855 6.42871 10.83 6.42871H14.0228L15.2571 8.57157H11.0871C10.1907 8.58287 9.33527 8.94928 8.70859 9.59041C8.08192 10.2316 7.73512 11.0951 7.74427 11.9916C7.74427 13.8773 9.23998 15.4287 11.0871 15.4287H15.9386L13.9457 12.0001ZM11.5714 10.5001C11.5714 10.7843 11.4585 11.0568 11.2576 11.2578C11.0567 11.4587 10.7841 11.5716 10.5 11.5716C10.2158 11.5716 9.9433 11.4587 9.74237 11.2578C9.54144 11.0568 9.42855 10.7843 9.42855 10.5001C9.42855 10.216 9.54144 9.94346 9.74237 9.74253C9.9433 9.54159 10.2158 9.42871 10.5 9.42871C10.7841 9.42871 11.0567 9.54159 11.2576 9.74253C11.4585 9.94346 11.5714 10.216 11.5714 10.5001ZM11.5714 13.5001C11.5714 13.7843 11.4585 14.0568 11.2576 14.2578C11.0567 14.4587 10.7841 14.5716 10.5 14.5716C10.2158 14.5716 9.9433 14.4587 9.74237 14.2578C9.54144 14.0568 9.42855 13.7843 9.42855 13.5001C9.42855 13.216 9.54144 12.9435 9.74237 12.7425C9.9433 12.5416 10.2158 12.4287 10.5 12.4287C10.7841 12.4287 11.0567 12.5416 11.2576 12.7425C11.4585 12.9435 11.5714 13.216 11.5714 13.5001Z" fill="#C9B4F9"/>
</g>
<defs>
<clipPath id="clip0_31_10769">
<rect width="24" height="24" fill="white"/>
</clipPath>
</defs>
</svg>
