<svg xmlns="http://www.w3.org/2000/svg" width="24" height="24" fill="none" viewBox="0 0 24 24"><g clip-path="url(#a)"><path fill="#843AF9" d="M0 0h24v24H0z"/><path fill="#fff" d="M10.714 3.857h2.572V6c1.928 0 4.075 1.205 4.584 3.428H15.53c-.444-1.137-1.473-1.285-2.731-1.285l-1.6-.01c-1.657 0-3.058.99-3.058 2.704v2.326c0 1.713 1.451 2.694 3.108 2.694h1.5c1.657 0 3-1.287 3-3H9.429v-2.143H18v2.449C18 15.947 15.75 18 13.286 18v2.143h-2.572V18C8.143 18 6 15.947 6 13.163v-2.326C6 8.053 8.143 6 10.714 6z"/></g><defs><clipPath id="a"><path fill="#fff" d="M0 0h24v24H0z"/></clipPath></defs></svg>