<svg xmlns="http://www.w3.org/2000/svg" width="24" height="24" fill="none" viewBox="0 0 24 24"><g clip-path="url(#a)"><path fill="#F0F3FA" d="M0 0h24v24H0z"/><path fill="url(#b)" d="M14.961 8.276a.94.94 0 0 1 .467.81v5.828c0 .523-.325.943-.857.943-.531 0-.857-.42-.857-.943v-3.63c0-.287-.514-.467-.771-.334l-3.386 1.787a.97.97 0 0 1-1.298-.386.93.93 0 0 1 .39-1.273l5.37-2.824a.98.98 0 0 1 .942.022"/><path fill="url(#c)" d="M9.428 10.65c.772-.227 1.329-.248 1.95-.248.913 0 1.586.23 1.83.514.163.043.506.184.506.368v3.63c0 .523.326.943.857.943.532 0 .857-.42.857-.943V9.086a.93.93 0 0 0-.471-.81.99.99 0 0 0-.947-.022z"/><path fill="url(#d)" d="M12.467 9.06c.484.129 1.247.467 1.247 1.226v.973c0 .008 0-.009 0 0v3.634c0 .514.326.964.857.964.532 0 .857-.42.857-.943V9.086a.93.93 0 0 0-.471-.81.99.99 0 0 0-.947-.022z"/><path fill="url(#e)" d="m11.014 13.907-1.071.626c-.155.09-.227.274-.133.428.124.206.334.467.634.66.309.202.639.245.879.236.163-.013.248-.154.248-.317v-1.311c0-.288-.3-.472-.557-.318z"/><path fill="url(#f)" fill-rule="evenodd" d="M12 18.429A6.429 6.429 0 1 0 12 5.57a6.429 6.429 0 0 0 0 12.858m0 .857a7.285 7.285 0 1 0 0-14.57 7.285 7.285 0 0 0 0 14.57" clip-rule="evenodd"/></g><defs><linearGradient id="b" x1="14.854" x2="9.193" y1="8.143" y2="13.14" gradientUnits="userSpaceOnUse"><stop offset=".45" stop-color="#266E84"/><stop offset="1" stop-color="#56DBAE"/></linearGradient><linearGradient id="c" x1="12.956" x2="12.326" y1="8.331" y2="15.861" gradientUnits="userSpaceOnUse"><stop offset=".18" stop-color="#2F778D"/><stop offset=".27" stop-color="#43B39C"/></linearGradient><linearGradient id="d" x1="13.911" x2="13.911" y1="8.143" y2="15.857" gradientUnits="userSpaceOnUse"><stop stop-color="#4CFB8F"/><stop offset="1" stop-color="#1FC3F1"/></linearGradient><linearGradient id="e" x1="10.637" x2="11.374" y1="14.314" y2="15.823" gradientUnits="userSpaceOnUse"><stop stop-color="#34D6C1"/><stop offset="1" stop-color="#38BFD2"/></linearGradient><linearGradient id="f" x1="8.143" x2="16.286" y1="6.429" y2="18.214" gradientUnits="userSpaceOnUse"><stop stop-color="#4CFB8F"/><stop offset="1" stop-color="#28CEDD"/></linearGradient><clipPath id="a"><path fill="#fff" d="M0 0h24v24H0z"/></clipPath></defs></svg>