<svg width="24" height="24" viewBox="0 0 24 24" fill="none" xmlns="http://www.w3.org/2000/svg">
<g clip-path="url(#clip0_31_11100)">
<path d="M0 0H24V24H0V0Z" fill="#F0F3FA"/>
<path d="M12 18.8574C15.7871 18.8574 18.8571 15.7873 18.8571 12.0002C18.8571 8.21311 15.7871 5.14307 12 5.14307C8.21287 5.14307 5.14282 8.21311 5.14282 12.0002C5.14282 15.7873 8.21287 18.8574 12 18.8574Z" fill="#032B5C"/>
<path fill-rule="evenodd" clip-rule="evenodd" d="M6.96859 11.7426L7.31573 11.5198C7.35859 11.5198 7.46145 11.5498 7.50002 11.6741C7.53859 11.8026 7.37145 11.8455 7.28145 11.8455C7.19683 11.8056 7.10326 11.7886 7.01002 11.7961C6.91679 11.8036 6.82715 11.8354 6.75002 11.8884C6.80145 12.0598 6.96002 12.1412 7.03287 12.1584C6.85716 12.2184 6.79287 12.4455 6.7843 12.5526C7.04145 12.5912 7.17002 12.3555 7.20859 12.2312C7.18716 12.3384 7.17859 12.5226 7.28145 12.3984L7.34573 12.3126C7.42716 12.2141 7.46145 12.1669 7.50002 12.2055C7.52145 12.2269 7.58573 12.1798 7.65859 12.1284C7.72716 12.0726 7.8043 12.0169 7.84716 12.0212C7.94145 12.0298 7.81287 12.2055 7.70145 12.2055C7.61573 12.2055 7.64573 12.2955 7.67573 12.3426C7.62871 12.3251 7.57773 12.3211 7.52853 12.3309C7.47932 12.3407 7.43383 12.3641 7.39716 12.3984C7.39716 12.4841 7.49145 12.5355 7.5343 12.5526C7.44859 12.5912 7.40573 12.7241 7.39716 12.7884C7.58145 12.8269 7.7143 12.7326 7.75716 12.6812C7.75716 12.7969 7.81716 12.8012 7.84716 12.7884C7.9843 12.6684 7.97573 12.5612 7.96716 12.4884C7.96716 12.4455 7.96287 12.4198 7.97573 12.3984C8.0143 12.3469 8.05287 12.5098 8.06573 12.5998C8.18573 12.5312 8.1943 12.4841 8.20716 12.4369C8.21281 12.4005 8.231 12.3671 8.25859 12.3426C8.35287 12.2569 8.39573 12.5784 8.32287 12.5998C8.26716 12.6126 8.1943 12.7026 8.16859 12.7455C8.16859 12.7969 8.27145 12.7969 8.32287 12.7884C8.26716 12.8269 8.1943 12.9255 8.16859 12.9726C8.24145 13.0326 8.32716 13.0155 8.36145 13.0026C8.31002 13.0969 8.38287 13.1741 8.42573 13.1998C8.62287 13.1141 8.5843 13.0112 8.54573 12.9726C8.61859 13.0326 8.70859 12.9984 8.74716 12.9726C8.69573 12.7669 8.56287 12.7369 8.50716 12.7455V12.6512C8.60573 12.6984 8.79002 12.7669 8.70859 12.6812C8.62716 12.5955 8.62287 12.5269 8.62287 12.5098L8.70859 12.3984L8.80716 12.5055L8.95716 12.2912L9.12859 12.3984L9.22287 12.1584L9.3943 12.2012V11.9569L9.22287 11.7426C9.2743 11.6655 9.43287 11.4984 9.61287 11.4084C9.8443 11.3012 10.3929 11.5198 10.7143 11.9569C10.9714 12.3084 11.3443 12.7798 11.5029 12.9726C11.5757 13.8598 10.9457 14.9184 10.7143 14.9184C10.59 14.9184 10.3286 14.7898 10.08 14.6612C9.86573 14.5541 9.66002 14.4469 9.56573 14.4469C9.42859 14.4384 9.37287 14.4984 9.26145 14.7384C9.21859 14.7169 9.17573 14.6955 9.13287 14.6955C8.96145 14.6612 8.71287 14.7298 8.49002 14.7855C8.36573 14.8155 8.2543 14.8455 8.16859 14.8584C7.91942 14.8432 7.67592 14.7776 7.45287 14.6655C7.97145 15.0769 8.47287 14.9526 8.81573 14.8626L8.95716 14.8284C9.04168 14.8098 9.12983 14.8173 9.21002 14.8498L9.15002 14.9784L9.10287 15.0941L9.04287 15.2141C8.91091 15.1089 8.74867 15.0488 8.58002 15.0426C8.31859 15.0426 8.17716 15.2012 8.10859 15.3684C7.89959 15.2806 7.70909 15.1541 7.54716 14.9955C7.79573 15.2526 7.93287 15.3769 8.07859 15.4369C8.06145 15.4969 8.05287 15.5526 8.04859 15.5955C8.05716 15.5526 8.0743 15.5012 8.10002 15.4455C8.21573 15.4884 8.34002 15.5012 8.52859 15.5184L8.58002 15.5226C8.67002 15.5312 8.75145 15.5269 8.8243 15.5184C8.66145 15.6984 8.48145 15.8184 8.38716 15.8612C8.65287 15.8484 8.85859 15.6769 9.02145 15.4626L9.11573 15.4241C9.23573 15.5655 9.3343 15.7241 9.41573 15.8612L9.46716 15.9469C9.41573 16.0455 9.38145 16.1441 9.36002 16.2298C9.2768 16.2011 9.19049 16.1824 9.10287 16.1741C9.1843 16.1869 9.26573 16.2255 9.35145 16.2769L9.33859 16.4269L9.38145 16.2941C9.45859 16.3412 9.53573 16.3969 9.62145 16.4569L9.85716 16.6198C9.76716 16.6798 9.70716 16.7484 9.67716 16.8041C9.71145 16.7612 9.79287 16.6969 9.91287 16.6584L9.97716 16.6926C9.99859 16.7912 10.02 16.8812 10.0457 16.9412C10.0355 16.8688 10.0312 16.7957 10.0329 16.7226C10.1406 16.7836 10.2595 16.8222 10.3824 16.8362C10.5054 16.8502 10.6299 16.8393 10.7486 16.8041L10.8257 16.8898C10.9286 17.0098 11.0272 17.1255 11.3272 17.1426C11.7814 17.1641 11.9186 16.6069 11.9314 16.3284C11.9314 16.5641 12.0172 17.0569 12.3986 17.1126C12.5014 17.1298 12.6129 17.1169 12.72 17.0869C12.7886 17.1041 12.8529 17.1126 12.9129 17.1126C12.87 17.0998 12.8272 17.0826 12.7886 17.0612C12.96 17.0012 13.1186 16.9069 13.2514 16.8169L13.3372 16.8341L13.38 16.8384C13.5043 16.8641 13.6543 16.7398 13.7186 16.6755C13.6055 16.7309 13.48 16.756 13.3543 16.7484C13.4486 16.6841 13.5172 16.6369 13.5514 16.6284C13.6372 16.6155 13.7572 16.6241 13.8686 16.6498L13.8643 16.8855C13.89 16.8212 13.9072 16.7441 13.9114 16.6669L13.9972 16.7012C14.1086 16.7612 14.2457 16.7098 14.3014 16.6755C14.2157 16.6969 14.1129 16.6626 13.9886 16.6241L13.9157 16.6026C13.9157 16.4912 13.9114 16.3884 13.8986 16.3284C13.9629 16.3284 14.3229 16.1269 14.4472 15.8912C14.5114 15.7755 14.6357 15.6169 14.7514 15.4798C14.8457 15.5398 14.9872 15.5955 15.1586 15.6084C15.2142 15.6673 15.2744 15.7218 15.3386 15.7712C15.2957 15.7284 15.2529 15.6769 15.21 15.6126C15.3943 15.6212 15.6043 15.5869 15.8229 15.4669C15.9514 15.3984 16.0886 15.2955 16.2257 15.1584C16.14 15.2312 15.9772 15.3298 15.7629 15.3941C15.5872 15.1712 15.4672 15.0512 15.33 15.0298C15.2014 15.0084 15.0386 15.0812 14.97 15.1198L14.8414 14.8455C15.0343 14.8455 15.1029 14.8669 15.18 14.8884C15.27 14.9184 15.3729 14.9484 15.7329 14.9484C16.2472 14.9484 16.5086 14.6441 16.5729 14.4898C16.3929 14.6098 15.9729 14.8455 15.7329 14.8455C15.4972 14.8455 15.2872 14.7684 15.1372 14.7084L15.0172 14.6655C14.9189 14.6393 14.8154 14.6393 14.7172 14.6655C14.6314 14.6055 14.4257 14.4726 14.2457 14.4255C14.0614 14.3826 13.8172 14.5326 13.5772 14.6826L13.4486 14.7684C13.2257 14.9055 13.05 14.8798 12.9943 14.8455C12.6172 14.4126 12.5443 14.0612 12.4629 13.6669L12.3986 13.3755C12.2743 12.8741 12.4286 12.6212 12.5143 12.4755L12.5272 12.4626C12.6 12.3384 12.9429 12.5055 13.2043 12.6341L13.2943 12.6769C13.47 12.7626 13.8257 12.6641 14.1514 12.5698C14.3229 12.5226 14.4814 12.4755 14.6057 12.4626C14.9614 12.4155 15.12 12.4712 15.33 12.5526C15.4972 12.6169 15.4243 12.7798 15.3643 12.8526C15.6129 13.0241 15.7757 12.9255 15.8229 12.8526C15.8014 13.0369 15.9514 13.1698 16.0372 13.2126C16.14 13.1741 16.3243 13.0712 16.2 12.9469C16.0714 12.8184 16.1443 12.6298 16.2 12.5526L16.4829 12.3169C16.41 12.2869 16.26 12.2098 16.26 12.1155C16.26 12.0169 16.5043 11.9269 16.6286 11.8926L16.7486 12.0641L16.8643 11.9569L17.1514 12.1155C17.1129 11.9398 17.2157 11.8584 17.2672 11.8412C17.1872 11.8044 17.1211 11.7429 17.0787 11.6658C17.0363 11.5886 17.0197 11.4999 17.0314 11.4126C17.0529 11.1469 17.4 10.9241 17.5714 10.8426C17.3786 10.6026 17.1257 10.6712 16.9243 10.7269L16.8643 10.7441C16.6972 10.7869 16.6372 10.6198 16.6286 10.5298C16.6652 10.4272 16.6652 10.3152 16.6286 10.2126C16.5643 10.0584 16.8 10.2126 16.9586 10.3669C17.0829 10.4955 17.4172 10.3841 17.5714 10.3112C17.37 9.94693 17.1986 9.95979 17.04 9.96836L16.9543 9.97265C16.7743 9.97265 16.7486 9.79265 16.8686 9.66408C16.9038 9.62072 16.9296 9.57051 16.9443 9.51666C16.9591 9.4628 16.9625 9.40646 16.9543 9.35122C16.9329 9.35979 16.8557 9.39836 16.7486 9.47122C16.6929 9.50551 16.6757 9.55693 16.6543 9.59122C16.6286 9.65122 16.6114 9.69836 16.4829 9.66408C16.3114 9.62122 16.41 9.41979 16.4829 9.32551C16.7914 9.30408 16.9286 9.14122 16.9543 9.05979C16.7914 8.94408 16.5343 9.10693 16.4272 9.2055L16.3543 8.90551C16.2257 8.99122 16.2386 9.14122 16.26 9.2055L16.0329 9.13265C15.9386 9.24408 15.9643 9.3255 15.99 9.35122C15.8821 9.25741 15.8045 9.13358 15.7672 8.9955C15.7286 8.82408 15.7543 8.82836 15.8914 8.8755L15.9857 8.90551C16.1614 8.95693 16.2429 8.81979 16.26 8.75122C16.1743 8.71265 16.0714 8.51979 16.0329 8.42979C15.9986 8.47265 15.8914 8.57979 15.7672 8.67836C15.6429 8.77265 15.5443 8.6355 15.51 8.55836C15.5229 8.62265 15.51 8.75979 15.3643 8.79408C15.2186 8.83265 15.2786 8.49408 15.33 8.32265C15.5272 8.32265 15.6429 8.14265 15.6729 8.05265C15.5057 7.97979 15.3257 8.06122 15.2529 8.10836C15.21 8.16836 15.0772 8.29693 14.91 8.32265C14.7386 8.33979 14.7643 8.10408 14.7986 7.97979C14.8435 7.93968 14.877 7.88846 14.8958 7.83129C14.9146 7.77411 14.918 7.713 14.9057 7.65408L14.64 7.60693C14.4943 7.75265 14.3914 7.80836 14.3572 7.81693C14.4 7.92836 14.4857 8.18122 14.4686 8.31836C14.4514 8.45979 14.3143 8.3055 14.2457 8.21122C14.2072 8.2455 14.1 8.29693 13.9886 8.21122C13.8814 8.1255 14.1172 7.73551 14.2457 7.55122C14.1857 7.58551 14.0229 7.65408 13.8557 7.65408C13.6843 7.65408 13.6114 7.49979 13.5986 7.42265L13.3586 7.06693L13.2043 7.42265C13.2343 7.10979 13.0929 7.05408 13.02 7.06693C12.9257 7.1955 12.9814 7.35836 13.02 7.42265L12.8357 7.33265L12.5914 7.60693L12.7457 7.19551L12.4629 7.33265L12.3257 7.19551C12.24 7.37979 12.2572 7.54693 12.2829 7.60693L11.9486 7.42265L11.8757 7.74408C11.7429 7.71408 11.5329 7.60693 11.7686 7.42265C12 7.24265 11.9829 7.04122 11.9486 6.96836H11.7686V6.85693C11.5157 7.03265 11.4129 6.96836 11.3914 6.91265C11.3614 7.00693 11.4343 7.13979 11.4772 7.19551L11.22 7.06693C11.1214 7.33265 11.2072 7.49979 11.2629 7.55122L11.0486 7.4955V7.33265L10.8429 7.42265L10.74 7.19551L10.5386 7.4955L10.4186 7.42265C10.4486 7.4955 10.2986 7.60693 10.2172 7.65408C10.26 7.59408 10.2386 7.47408 10.2172 7.42265L10.0714 7.4955L9.94287 7.33265L9.8443 7.42265H9.62573C9.66002 7.56408 9.75002 7.63693 9.78859 7.65408L9.71573 7.81693L9.57859 7.97979H9.33002C9.30859 8.11265 9.3943 8.24551 9.44145 8.29265H9.16716C9.11145 8.29265 9.02145 8.26265 9.0943 8.14693C9.16716 8.02693 9.0643 7.91551 9.00002 7.87265C8.78573 8.04408 8.82859 8.13836 8.86716 8.21551C8.88002 8.25408 8.89716 8.28408 8.89287 8.31836C8.87145 8.43836 8.70002 8.43836 8.70002 8.31836C8.70002 8.22408 8.55859 8.13836 8.48573 8.10836L8.37002 8.14693C8.37002 8.10836 8.2543 8.06979 8.19859 8.05265C8.18145 8.15122 8.19859 8.25408 8.21573 8.29265C8.17287 8.27122 8.09145 8.30122 8.05716 8.31836C8.0743 8.40408 8.15573 8.45979 8.1943 8.47693C8.16002 8.51979 8.08716 8.61836 8.08716 8.63979C8.10859 8.69122 8.2843 8.68265 8.37002 8.67836L8.26716 8.75122C8.2843 8.78551 8.35287 8.88836 8.50716 8.9955C8.66145 9.10693 8.49859 9.18408 8.39573 9.20979L8.21573 8.9955C8.13002 9.0255 8.09145 9.22693 8.08716 9.32551L7.9843 9.13265L7.82145 9.35122C7.85573 9.11979 7.6843 8.95693 7.59002 8.90551C7.4743 9.11979 7.56859 9.30836 7.62859 9.37693C7.52573 9.3855 7.48287 9.50979 7.4743 9.57408C7.55145 9.65122 7.76145 9.60408 7.86002 9.57408C7.80002 9.61693 7.8343 9.78836 7.86002 9.86551L8.14287 9.79265C8.11287 10.0069 7.94145 10.0069 7.85573 9.97265V10.2126C7.72716 10.1312 7.59002 9.97693 7.53859 9.91265L7.4443 9.71979L7.31573 9.86551L7.12287 9.71979L7.08002 9.86551L6.83145 9.90836L7.08002 10.1312V10.3112L6.92145 10.4312C6.95145 10.5726 7.15287 10.6969 7.25145 10.7441L7.20859 10.9326L7.08002 10.9969V11.1084C6.9343 10.9241 6.67716 10.9155 6.56573 10.9369C6.55716 11.0312 6.65145 11.1555 6.70287 11.2069L6.42859 11.4084C6.48002 11.5412 6.88287 11.4641 7.08002 11.4084L6.96859 11.7384V11.7426ZM14.8414 15.3855L14.8157 15.4069L14.9443 15.2698C14.9614 15.3255 14.9872 15.3812 15.0214 15.4326C14.9607 15.4219 14.9006 15.4076 14.8414 15.3898V15.3855ZM15.7629 15.3941C15.5829 15.4498 15.3643 15.4798 15.12 15.4498C15.0808 15.3661 15.0465 15.2803 15.0172 15.1926C15.0386 15.1712 15.1286 15.1198 15.33 15.1198C15.4886 15.1198 15.66 15.2741 15.7629 15.3941ZM11.9486 11.6312C11.9914 11.5712 12.1072 11.4169 12.2614 11.2626C12.4157 11.1084 12.4843 10.9026 12.4972 10.8169C12.3514 10.7655 12.0214 10.6841 11.9057 10.7441C11.7857 10.7998 11.8843 11.3569 11.9486 11.6312ZM12.2057 12.0512C12.1672 11.9055 12.1372 11.5884 12.3086 11.4641C12.4757 11.3398 12.6214 11.1084 12.6729 11.0055C12.6257 11.1384 12.57 11.4341 12.7457 11.5626C12.9214 11.6955 13.1143 11.7298 13.1872 11.7298C12.96 11.8369 12.4457 12.0512 12.2057 12.0512ZM11.5372 12.3684C11.2586 12.2312 10.68 11.8284 10.6029 11.3098C10.77 11.4384 11.1429 11.7084 11.3186 11.7298C11.49 11.7512 11.5372 12.1669 11.5372 12.3726V12.3684ZM12.8014 12.2226L13.7357 11.8498C13.7786 11.8498 14.0272 11.8069 14.8072 11.6784L15.0986 11.8926C14.8629 11.8712 14.4 11.8498 14.4472 11.9569C14.5114 12.0941 14.3872 12.1884 14.2029 12.2784C14.0186 12.3684 13.7314 12.4241 13.5343 12.2784C13.3714 12.1626 12.9772 12.1926 12.8014 12.2226ZM11.2157 11.0698C11.37 11.0569 11.4943 11.4384 11.5372 11.6269C11.4008 11.5586 11.2715 11.4768 11.1514 11.3826C10.9886 11.2455 11.0229 11.0912 11.2157 11.0698ZM10.44 11.4641C10.38 11.2712 10.2172 10.9112 10.0372 11.0055C9.80573 11.1255 10.1014 11.3012 10.44 11.4641ZM13.6157 10.8984C13.4314 11.0226 13.3029 11.3269 13.26 11.4641L13.7443 11.2626C13.98 11.1684 14.0314 10.9241 14.0272 10.8169C13.9672 10.7912 13.8 10.7741 13.6157 10.8984ZM13.4872 15.0684C13.6157 14.9226 13.9457 14.6398 14.2029 14.6398C14.46 14.6398 14.5757 14.7084 14.6057 14.7469C14.5457 14.8241 14.3614 14.9826 14.1214 15.0212C13.8772 15.0555 13.5986 15.0641 13.4872 15.0641V15.0684ZM14.3743 15.0684L14.7429 14.8755L14.88 15.1412L14.6872 15.2784L14.3743 15.0641V15.0684ZM12.7886 15.9898C12.9043 16.0755 13.2172 16.2384 13.5772 16.2041L13.6543 16.1826C13.6157 16.0969 13.4914 15.9041 13.2857 15.8269C13.1597 15.7729 13.0272 15.7354 12.8914 15.7155L12.7929 15.9898H12.7886ZM14.16 15.2484C14.01 15.4326 13.6029 15.5741 13.4143 15.6255C13.6029 15.7498 13.7872 16.0112 13.8557 16.1269C14.1659 15.9548 14.4247 15.7034 14.6057 15.3984C14.4643 15.3984 14.2457 15.2998 14.1557 15.2484H14.16ZM12.6172 16.1998C12.7029 16.2684 12.9 16.4098 13.0114 16.4012L12.8657 16.5469C12.8057 16.5426 12.6686 16.4612 12.6172 16.2041V16.1998ZM9.36002 14.8026C9.40799 14.7495 9.47087 14.7121 9.54045 14.6953C9.61004 14.6784 9.68307 14.683 9.75002 14.7084C9.94287 14.7812 10.2943 15.0212 10.4486 15.1326L9.79716 15.0855L9.36002 14.8026ZM9.24859 15.4155C9.31716 15.3512 9.51859 15.2484 9.79716 15.3212C9.81002 15.3598 9.79716 15.4369 9.66002 15.4584C9.52288 15.4798 9.4543 15.5355 9.44145 15.5612C9.46716 15.5741 9.54859 15.5955 9.66002 15.5612C9.7243 15.5398 9.76716 15.5012 9.80145 15.4669C9.84002 15.4326 9.8743 15.3984 9.93002 15.4069C10.0072 15.4112 10.05 15.4584 10.0629 15.4798C9.9343 15.5441 9.65573 15.7026 9.6043 15.8355C9.49287 15.7584 9.26145 15.5698 9.24859 15.4155ZM11.0057 15.6726C10.9359 15.6876 10.8729 15.725 10.8265 15.7792C10.78 15.8334 10.7526 15.9014 10.7486 15.9726C10.7272 16.1869 10.74 16.1869 10.7486 16.1655C10.8214 16.1441 10.9714 16.0798 11.0057 15.9726C11.0443 15.8612 11.0229 15.7241 11.0057 15.6726ZM12.4543 17.0012C12.0514 16.9155 12.0429 16.2384 12.0857 15.9084L12.2872 16.2812C12.1586 16.7098 12.3429 16.9412 12.4543 17.0055V17.0012ZM13.14 16.4655L13.0114 16.6498C13.0114 16.7055 13.0972 16.7269 13.14 16.7312C13.1829 16.6884 13.3072 16.6026 13.4229 16.5769C13.5429 16.5469 13.7229 16.5641 13.8 16.5769L13.7614 16.4098C13.5814 16.4698 13.2729 16.4698 13.14 16.4655ZM12.4157 16.4098C12.39 16.5641 12.3986 16.8898 12.6557 16.9755C12.72 16.9712 12.8829 16.9326 12.9857 16.8384C12.81 16.7741 12.4543 16.5941 12.4157 16.4098ZM11.7386 16.3455C11.6272 16.2512 11.6443 16.1141 11.6657 16.0541C11.5543 16.1355 11.5714 16.3026 11.5843 16.4398L11.5929 16.5769C11.5843 16.6841 11.4472 16.9069 11.3786 17.0055C11.7129 16.9241 11.7557 16.5341 11.7386 16.3455ZM10.8814 16.7955C10.9929 16.7441 11.25 16.6026 11.3829 16.4098C11.4257 16.4955 11.4814 16.6926 11.3657 16.8298L11.2372 17.0012C11.1429 17.0184 10.9372 16.9926 10.8772 16.7955H10.8814ZM10.4486 16.6112C10.3114 16.5769 10.0457 16.5769 10.0286 16.5769L10.0457 16.3926C10.2514 16.4055 10.7229 16.4355 10.9329 16.4098C11.0614 16.3969 11.1686 16.3326 11.2372 16.2898C11.3057 16.2469 11.3357 16.2255 11.31 16.3198C11.2672 16.4655 10.8643 16.6541 10.6672 16.7312C10.6414 16.7012 10.56 16.6412 10.4486 16.6112ZM10.0929 16.6755C10.1786 16.6584 10.3843 16.6412 10.5386 16.7312C10.4314 16.7312 10.1957 16.7269 10.0929 16.6755ZM9.54002 16.0798L9.44145 16.2384L9.94287 16.5769V16.3455C9.78505 16.2992 9.64473 16.2066 9.54002 16.0798ZM10.5857 16.1912C10.35 16.2555 10.1957 16.2169 10.1443 16.1912C10.23 15.9941 10.4657 15.9341 10.5729 15.9255L10.5857 16.1912ZM10.1914 15.5912C10.1314 15.5655 9.8443 15.7926 9.70716 15.9084C9.72859 16.0455 9.9043 16.1355 9.99002 16.1655L10.1186 15.9726C10.1914 15.8612 10.3929 15.7241 10.4829 15.6726C10.41 15.5869 10.0972 15.7755 9.94287 15.8784C10.05 15.7926 10.2514 15.6084 10.1914 15.5869V15.5912ZM9.2743 15.0126L9.10287 15.2569L9.1843 15.3212L9.49716 15.1669L9.2743 15.0126ZM8.1943 15.4069C8.23716 15.2998 8.3743 15.1026 8.57145 15.1326C8.76859 15.1584 8.90573 15.2269 8.9443 15.2612C8.90573 15.3255 8.79859 15.4584 8.68287 15.4584C8.56287 15.4584 8.31002 15.4241 8.1943 15.4069Z" fill="url(#paint0_linear_31_11100)"/>
<path fill-rule="evenodd" clip-rule="evenodd" d="M13.4571 5.92691V5.90977C13.456 5.8853 13.4474 5.86176 13.4325 5.84231C13.4176 5.82287 13.3971 5.80844 13.3738 5.80098C13.3505 5.79351 13.3254 5.79336 13.302 5.80055C13.2786 5.80774 13.2579 5.82193 13.2428 5.8412L11.4728 5.04834L12.6085 7.27691C12.5731 7.29768 12.5436 7.32719 12.5228 7.36263L9.12425 5.93548C9.12815 5.91773 9.12797 5.89931 9.12371 5.88164C9.11945 5.86396 9.11124 5.84749 9.09968 5.83345C9.08812 5.81942 9.07352 5.80819 9.05699 5.80062C9.04046 5.79306 9.02243 5.78935 9.00425 5.78977C8.98157 5.79013 8.95946 5.79691 8.94047 5.80933C8.92149 5.82174 8.90641 5.83928 8.89699 5.85992C8.88757 5.88055 8.88419 5.90344 8.88725 5.92591C8.8903 5.94839 8.89967 5.96954 8.91425 5.98691L6.89997 8.4512C6.88149 8.44052 6.86049 8.43496 6.83915 8.4351C6.8178 8.43524 6.79688 8.44106 6.77854 8.45198C6.7602 8.4629 6.74511 8.47851 6.73481 8.4972C6.72451 8.5159 6.71939 8.537 6.71997 8.55834C6.71997 8.58405 6.72425 8.6012 6.73711 8.62263L5.48568 9.75834L6.20568 11.3998L5.14282 12.0298L5.16854 12.0726L6.23139 11.4383L7.21711 12.6212L5.23282 13.3626L6.77568 15.0212C6.74364 15.0572 6.72318 15.102 6.71694 15.1497C6.71071 15.1975 6.71899 15.2461 6.74072 15.289C6.76245 15.332 6.79662 15.3675 6.83878 15.3908C6.88094 15.4141 6.92914 15.4242 6.97711 15.4198L7.23854 16.8855L10.0928 17.5541V17.5841C10.0939 17.6385 10.1135 17.6909 10.1483 17.7328C10.1831 17.7747 10.2311 17.8034 10.2844 17.8144C10.3378 17.8254 10.3932 17.8179 10.4418 17.7931C10.4903 17.7684 10.5289 17.7279 10.5514 17.6783L11.6143 17.9912L11.3143 19.0541L11.3571 19.0712L11.6571 18.0041L13.7143 18.7541L15.2143 16.6112C15.2291 16.6182 15.2452 16.6221 15.2616 16.6226C15.278 16.6232 15.2943 16.6204 15.3096 16.6143C15.3249 16.6083 15.3387 16.5992 15.3503 16.5876C15.362 16.576 15.3711 16.5622 15.3771 16.5469L17.1857 16.9283L17.6743 14.2155C17.6974 14.215 17.7199 14.2079 17.739 14.1949C17.7582 14.182 17.7732 14.1638 17.7823 14.1425C17.7913 14.1212 17.794 14.0978 17.7901 14.075C17.7861 14.0522 17.7757 14.031 17.76 14.0141L19.1314 12.2055L17.3014 11.0141C17.3138 10.9866 17.3153 10.9555 17.3058 10.9269C17.2963 10.8983 17.2763 10.8743 17.25 10.8598L18.0471 8.37405L18 8.35691L17.2028 10.8469L17.0657 7.07548L13.4571 5.92691ZM11.5714 5.14263L12.6514 7.2512C12.6992 7.23236 12.7518 7.22936 12.8014 7.24263L13.2728 6.01263C13.252 5.99913 13.2359 5.97953 13.2267 5.95651C13.2175 5.93348 13.2156 5.90817 13.2214 5.88405L11.5714 5.14263ZM12.8443 7.25977C12.9128 7.29405 12.96 7.35834 12.9728 7.4312L16.9285 7.0712L13.4443 5.97405C13.4314 5.99564 13.412 6.01263 13.3889 6.02263C13.3659 6.03262 13.3402 6.03512 13.3157 6.02977L12.8443 7.25977ZM12.9771 7.48263C12.9771 7.53405 12.96 7.5812 12.93 7.61977L15.0428 9.95977C15.0955 9.9182 15.1587 9.89217 15.2253 9.8846C15.2919 9.87702 15.3593 9.88822 15.42 9.91691L17.0014 7.11834L12.9771 7.48691V7.48263ZM15.6085 10.3498C15.6316 10.2753 15.6299 10.1953 15.6036 10.1219C15.5773 10.0485 15.5279 9.98555 15.4628 9.94263L17.0271 7.17405L17.1557 10.8512C17.1273 10.8593 17.1029 10.8776 17.0871 10.9026L15.6085 10.3455V10.3498ZM15.4585 10.5512C15.5188 10.5129 15.5665 10.4578 15.5957 10.3926L17.07 10.9498V10.9669C17.07 11.0141 17.1 11.0526 17.1385 11.0741L16.7143 12.7712H16.71L16.6714 12.7755L15.4585 10.5469V10.5512ZM15.2185 10.6026C15.2858 10.6112 15.354 10.6008 15.4157 10.5726L16.6328 12.8012C16.6155 12.8145 16.6022 12.8323 16.5943 12.8526L14.9014 12.6212C14.8972 12.602 14.8883 12.5842 14.8756 12.5693C14.8629 12.5543 14.8468 12.5427 14.8285 12.5355L15.2143 10.6026H15.2185ZM14.9314 10.3798C14.9743 10.4826 15.06 10.5641 15.1714 10.5941L14.7771 12.5312C14.7481 12.5329 14.7207 12.5451 14.7 12.5655L12.2443 11.4083C12.2582 11.3653 12.2596 11.3193 12.2485 11.2755L14.9314 10.3798ZM15.0043 9.99405C14.9617 10.039 14.9314 10.0942 14.9164 10.1542C14.9014 10.2143 14.9021 10.2772 14.9185 10.3369L12.2357 11.2283C12.2208 11.197 12.1993 11.1693 12.1726 11.1471C12.146 11.1249 12.1149 11.1088 12.0814 11.0998L12.7157 7.71405H12.7371C12.7971 7.71405 12.8528 7.69263 12.8957 7.65834L15.0043 9.99405ZM12.6685 7.70548C12.6321 7.69479 12.5988 7.67563 12.5712 7.64955C12.5436 7.62348 12.5227 7.59124 12.51 7.55548L9.36854 8.31405V8.31834C9.36854 8.34405 9.35996 8.36977 9.34282 8.3912L11.8714 11.1341C11.9187 11.1006 11.9766 11.0853 12.0343 11.0912L12.6685 7.70548ZM12.4971 7.47834C12.4971 7.45263 12.4971 7.42691 12.5057 7.40548L9.10711 5.97834C9.09168 6.00092 9.069 6.01755 9.04282 6.02548L9.25711 8.19834C9.29997 8.20263 9.33854 8.22834 9.35568 8.26691L12.4971 7.50834V7.47834ZM15.1457 16.5041V16.4655L12.7071 15.1369C12.6977 15.149 12.6861 15.1592 12.6728 15.1669L13.7143 18.6769L15.1757 16.5855C15.1548 16.5619 15.1441 16.5312 15.1457 16.4998V16.5041ZM15.1714 16.4269C15.1859 16.409 15.2052 16.3956 15.2271 16.3883L15.0085 14.6312L12.7371 15.0598L12.7328 15.0941L15.1757 16.4226L15.1714 16.4269ZM15.2743 16.3841H15.2871L16.0714 14.4255L15.0557 14.6183L15.27 16.3841H15.2743ZM15.33 16.4012L17.5714 14.1641C17.5663 14.1574 17.562 14.1502 17.5585 14.1426L16.1271 14.4169L15.33 16.4012ZM15.3643 16.4355C15.3771 16.4526 15.3814 16.4741 15.3857 16.4912L17.1514 16.8769L17.61 14.1983H17.6057L15.3643 16.4355ZM6.96425 14.9355C7.01997 14.9355 7.07139 14.9569 7.11425 14.9912L8.01425 14.0912C7.95314 14.0215 7.92125 13.9309 7.92524 13.8383C7.92924 13.7457 7.96879 13.6582 8.03568 13.5941L7.25568 12.6598L5.31854 13.3841L6.81854 14.9869C6.85711 14.9569 6.90425 14.9398 6.95997 14.9398L6.96425 14.9355ZM7.14854 15.0255C7.17425 15.0598 7.19139 15.1026 7.19996 15.1498L12.4543 15.0383L8.62711 13.9755C8.60754 14.0312 8.57456 14.0813 8.53108 14.1212C8.4876 14.1612 8.43496 14.1898 8.3778 14.2047C8.32063 14.2195 8.26069 14.22 8.20327 14.2062C8.14585 14.1924 8.09271 14.1647 8.04854 14.1255L7.14854 15.0255ZM7.19996 15.1969C7.19996 15.2355 7.18711 15.2698 7.16996 15.2998L10.1485 17.4255C10.1884 17.3796 10.2442 17.3505 10.3046 17.3441C10.3651 17.3378 10.4257 17.3546 10.4743 17.3912L12.5185 15.1283C12.5101 15.1153 12.5043 15.1007 12.5014 15.0855L7.19996 15.1969ZM7.13997 15.3383C7.10927 15.3733 7.06907 15.3986 7.02425 15.4112L7.28139 16.8426L10.1014 17.5069C10.1071 17.4919 10.1143 17.4776 10.1228 17.4641L7.13997 15.3383ZM17.7128 13.9841L19.0714 12.2141L17.2714 11.0569C17.2587 11.0669 17.2441 11.0742 17.2285 11.0783L17.6785 13.9755C17.6914 13.9755 17.7043 13.9755 17.7128 13.9841ZM17.6271 13.9841L17.1857 11.0869L16.7571 12.7841C16.7737 12.7917 16.7882 12.8031 16.7997 12.8172C16.8112 12.8314 16.8194 12.848 16.8235 12.8657C16.8276 12.8835 16.8277 12.902 16.8236 12.9198C16.8195 12.9375 16.8114 12.9542 16.8 12.9683L17.6143 13.9883H17.6228V13.9841H17.6314H17.6271ZM16.7657 12.9983L17.58 14.0183C17.5611 14.0397 17.5505 14.067 17.55 14.0955L16.1485 14.3612L16.6885 13.0112C16.715 13.0156 16.7421 13.0111 16.7657 12.9983ZM16.6414 12.9941L16.0928 14.3741L15.0471 14.5712L14.8243 12.7669C14.8671 12.7498 14.8928 12.7155 14.9014 12.6726L16.59 12.8998C16.59 12.9426 16.6114 12.9726 16.6414 12.9941ZM6.77139 8.65691L5.54997 9.7712L6.25282 11.3741L8.18997 10.2255C8.17044 10.1838 8.16329 10.1375 8.16937 10.0919C8.17545 10.0463 8.1945 10.0034 8.22425 9.96834L6.90854 8.6612C6.88798 8.67459 6.86381 8.68136 6.83929 8.68059C6.81477 8.67982 6.79107 8.67156 6.77139 8.65691ZM6.94282 8.62691L8.25854 9.93834C8.30139 9.90405 8.35282 9.88263 8.40854 9.88263C8.44498 9.88228 8.48103 9.89024 8.51394 9.9059C8.54685 9.92157 8.57576 9.94452 8.59848 9.97302C8.6212 10.0015 8.63713 10.0348 8.64506 10.0704C8.65299 10.106 8.65271 10.1429 8.64425 10.1783L11.7985 11.2283L11.8414 11.1683L9.31282 8.42548C9.29717 8.4347 9.27963 8.44024 9.26153 8.44169C9.24343 8.44314 9.22523 8.44047 9.20831 8.43386C9.1914 8.42726 9.1762 8.41691 9.16386 8.40358C9.15153 8.39025 9.14238 8.37429 9.13711 8.35691L6.96425 8.5712C6.96425 8.59263 6.95568 8.61405 6.94282 8.62691ZM12.2271 11.4555L14.6743 12.6041C14.6673 12.6214 14.6644 12.64 14.6659 12.6586C14.6674 12.6772 14.6732 12.6952 14.6828 12.7112L12.6814 14.9526C12.6641 14.9439 12.645 14.9395 12.6257 14.9398L12.0814 11.5583C12.1421 11.543 12.1944 11.5045 12.2271 11.4512V11.4555ZM12.0343 11.5669L12.5785 14.9441C12.571 14.9476 12.5638 14.9519 12.5571 14.9569L9.59139 11.7598C9.60425 11.7426 9.61282 11.7169 9.61282 11.6955L11.7857 11.3869C11.7996 11.4412 11.832 11.489 11.8774 11.5218C11.9228 11.5547 11.9783 11.5707 12.0343 11.5669ZM11.7857 11.2755C11.78 11.2964 11.7771 11.3181 11.7771 11.3398L9.60425 11.6483C9.59858 11.6332 9.58993 11.6194 9.57881 11.6078C9.56769 11.5961 9.55433 11.5868 9.53953 11.5804C9.52473 11.574 9.50879 11.5706 9.49267 11.5705C9.47654 11.5704 9.46056 11.5736 9.44568 11.5798L8.56711 10.3069C8.59317 10.2831 8.61365 10.2538 8.62711 10.2212L11.7857 11.2755ZM6.95997 8.52405L9.13282 8.30977C9.13282 8.25834 9.17139 8.21977 9.21854 8.20263L8.99997 6.02977C8.985 6.02821 8.97046 6.02385 8.95711 6.01691L6.93854 8.48548L6.95997 8.52405ZM11.6314 17.9441L10.5728 17.6312C10.5791 17.5946 10.577 17.5571 10.5666 17.5214C10.5562 17.4858 10.5378 17.453 10.5128 17.4255L12.5614 15.1626L11.6314 17.9483V17.9441ZM12.6085 15.1798L11.6785 17.9612L13.6714 18.6898L12.63 15.1755H12.6085V15.1798ZM12.7328 15.0126L15.0043 14.5841L14.7814 12.7712C14.7584 12.7704 14.736 12.7629 14.7171 12.7498L12.7157 14.9869L12.7328 15.0126ZM9.55282 11.7898L12.5228 14.9869L12.5143 15.0041L8.63997 13.9283C8.65536 13.8572 8.64886 13.7832 8.62132 13.7158C8.59378 13.6485 8.54649 13.5911 8.48568 13.5512L9.45425 11.8026C9.47065 11.8077 9.48793 11.8091 9.50493 11.8069C9.52193 11.8047 9.53826 11.7988 9.55282 11.7898ZM9.40711 11.6055C9.39624 11.6172 9.38784 11.631 9.38238 11.646C9.37691 11.6611 9.37451 11.677 9.37531 11.693C9.37611 11.709 9.38009 11.7246 9.38702 11.739C9.39396 11.7534 9.4037 11.7663 9.41568 11.7769L8.44282 13.5298C8.38404 13.5016 8.31871 13.4899 8.25379 13.4959C8.18888 13.5019 8.12682 13.5255 8.07425 13.5641L6.27854 11.4126L8.21568 10.2683C8.25008 10.3152 8.30033 10.348 8.35708 10.3606C8.41383 10.3732 8.47324 10.3648 8.52425 10.3369L9.40711 11.6055Z" fill="#26B6EB"/>
<path d="M19.2857 12.0001C19.2857 13.9324 18.5181 15.7855 17.1517 17.1518C15.7854 18.5182 13.9322 19.2858 11.9999 19.2858C10.0677 19.2858 8.21451 18.5182 6.84817 17.1518C5.48183 15.7855 4.71423 13.9324 4.71423 12.0001C4.71423 10.0678 5.48183 8.21463 6.84817 6.84829C8.21451 5.48196 10.0677 4.71436 11.9999 4.71436C13.9322 4.71436 15.7854 5.48196 17.1517 6.84829C18.5181 8.21463 19.2857 10.0678 19.2857 12.0001ZM11.9999 18.8572C13.8186 18.8572 15.5627 18.1348 16.8487 16.8488C18.1346 15.5628 18.8571 13.8187 18.8571 12.0001C18.8571 10.1814 18.1346 8.4373 16.8487 7.15134C15.5627 5.86537 13.8186 5.14293 11.9999 5.14293C10.1813 5.14293 8.43718 5.86537 7.15122 7.15134C5.86525 8.4373 5.1428 10.1814 5.1428 12.0001C5.1428 13.8187 5.86525 15.5628 7.15122 16.8488C8.43718 18.1348 10.1813 18.8572 11.9999 18.8572Z" fill="#13D7F6"/>
</g>
<defs>
<linearGradient id="paint0_linear_31_11100" x1="12" y1="6.85693" x2="12" y2="17.1426" gradientUnits="userSpaceOnUse">
<stop stop-color="#008E30"/>
<stop offset="0.49" stop-color="#67B82C"/>
<stop offset="0.61" stop-color="#F8D90F"/>
<stop offset="0.76" stop-color="#F19B20"/>
<stop offset="1" stop-color="#C84543"/>
</linearGradient>
<clipPath id="clip0_31_11100">
<rect width="24" height="24" fill="white"/>
</clipPath>
</defs>
</svg>
