<svg width="24" height="24" viewBox="0 0 24 24" fill="none" xmlns="http://www.w3.org/2000/svg">
<g clip-path="url(#clip0_31_11186)">
<path d="M0 0H24V24H0V0Z" fill="#2F6EB6"/>
<path d="M11.9999 11.9999C12.9467 11.9999 13.7142 11.2323 13.7142 10.2856C13.7142 9.3388 12.9467 8.57129 11.9999 8.57129C11.0532 8.57129 10.2856 9.3388 10.2856 10.2856C10.2856 11.2323 11.0532 11.9999 11.9999 11.9999Z" fill="#EFF2F6"/>
<path d="M18.2058 5.57129C18.0001 9.02557 14.7001 11.9184 13.0801 12.9384C14.055 13.159 15.0668 13.1592 16.0418 12.939C17.0168 12.7188 17.9303 12.2838 18.7158 11.6656C19.1272 9.02557 18.5444 6.50129 18.2015 5.57129H18.2058Z" fill="#EFF2F6"/>
<path d="M18.2055 12.9384C10.007 15.9813 6.59126 9.29557 5.90555 5.57129C3.08983 13.9541 8.72555 18.017 12.0555 19.2856C15.7413 17.8627 17.6913 14.4599 18.2055 12.9384Z" fill="#EFF2F6"/>
</g>
<defs>
<clipPath id="clip0_31_11186">
<rect width="24" height="24" fill="white"/>
</clipPath>
</defs>
</svg>
