<svg xmlns="http://www.w3.org/2000/svg" width="24" height="24" fill="none" viewBox="0 0 24 24"><g clip-path="url(#a)"><path fill="#F7F0E0" d="M0 0h24v24H0z"/><path fill="#000" fill-rule="evenodd" d="M12 18.857a6.857 6.857 0 1 0 0-13.714 6.857 6.857 0 0 0 0 13.714m0 .429a7.285 7.285 0 1 0 0-14.57 7.285 7.285 0 0 0 0 14.57" clip-rule="evenodd"/><path fill="#000" d="M11.572 9H9.857l.429.429v4.714l-.429.428h1.715l-.43-.428V9.429z"/><path fill="#3FD0C8" d="M7.714 13.286V12.17c.493-.548 1.415-1.495 2.255-1.35.518.086.728.716.677 1.175.171-.172.343-.352.544-.49.15-.106.459-.27.789-.102.304.15.428.416.484.621l.12-.072c.274-.163.686-.382 1.131-.382h2.572v.857h-2.572c-.317 0-.613.21-.87.373-.188.12-.394.27-.63.27a.5.5 0 0 1-.385-.175c-.163-.19-.129-.43-.193-.656-.27.21-.472.488-.754.685-.15.103-.46.266-.79.1a.7.7 0 0 1-.27-.22c-.278-.385.104-.75-.055-1.118-.745.266-1.543 1.033-2.053 1.599"/><path fill="#000" d="M14.143 9h-1.715l.429.429v4.714l-.428.428h1.714l-.429-.428V9.429z"/></g><defs><clipPath id="a"><path fill="#fff" d="M0 0h24v24H0z"/></clipPath></defs></svg>