<svg xmlns="http://www.w3.org/2000/svg" width="24" height="24" fill="none" viewBox="0 0 24 24"><g clip-path="url(#a)"><path fill="url(#b)" d="M0 0h24v24H0z"/><path fill="#fff" d="M16.616 6.36a7.32 7.32 0 0 1 2.67 5.717l-.069.828a7.286 7.286 0 0 1-6.947 6.38 7.39 7.39 0 0 1-6.943-4.34A7.3 7.3 0 0 1 11.23 4.749q3.04-.27 5.391 1.611zM5.6 12.077q-.001.642.133 1.29a6.49 6.49 0 0 0 6.322 5.04 6.49 6.49 0 0 0 6.343-6.33 6.48 6.48 0 0 0-6.365-6.488c-3.514-.026-6.471 2.957-6.437 6.488zm7.192-3.283q.156.103.287.236l1.894 1.95.009.009c.182.162.333.357.446.574l-.005.004h-1.011a.06.06 0 0 1-.043-.017l-.159-.167-1.071-1.106q-.21-.207-.42-.428c-.309-.322-.557-.557-.973-.377-.103.043-.218.133-.355.274l-1.745 1.8a.056.056 0 0 1-.043.017l-.141.009h-.857l-.017-.005-.009-.008a.03.03 0 0 1 0-.03q.09-.152.21-.283.95-1.002 1.92-1.997c.24-.245.42-.407.544-.472a1.51 1.51 0 0 1 1.543.018zM9.579 12.43h-.986q-.005 0-.01.002l-.007.006a.02.02 0 0 0 0 .022c.115.227.308.42.484.6l.026.021 1.556 1.603q.289.322.65.562.645.359 1.41.017a1.7 1.7 0 0 0 .335-.249q1.082-1.113 2.16-2.229.139-.149.232-.33a.03.03 0 0 0-.013-.02h-.99a.11.11 0 0 0-.086.033l-1.401 1.445-.086.094c-.171.193-.386.437-.579.518-.278.12-.57.043-.788-.175l-.613-.635-1.217-1.255a.11.11 0 0 0-.082-.034z"/></g><defs><linearGradient id="b" x1="0" x2="18.21" y1="4.149" y2="24" gradientUnits="userSpaceOnUse"><stop stop-color="#4A5DCD"/><stop offset=".11" stop-color="#4A53C4"/><stop offset=".47" stop-color="#3D065D"/><stop offset="1" stop-color="#C772AD"/></linearGradient><clipPath id="a"><path fill="#fff" d="M0 0h24v24H0z"/></clipPath></defs></svg>