<svg width="24" height="24" viewBox="0 0 24 24" fill="none" xmlns="http://www.w3.org/2000/svg">
<g clip-path="url(#clip0_31_11459)">
<path d="M0 0H24V24H0V0Z" fill="#181B1E"/>
<path d="M18.8571 17.0831L12.0085 5.14307L5.14282 17.1431C5.85425 16.8131 6.99854 16.4059 8.02711 16.4059C8.61854 16.4059 9.20139 16.5216 9.64711 16.6116C9.91282 16.6631 10.1528 16.7145 10.2857 16.7145C11.46 16.7145 12.4157 15.9816 12.8914 15.6216C13.0457 15.5059 13.1485 15.4288 13.1914 15.4288C13.4914 15.4288 13.6285 15.6516 13.7614 15.8659C13.8985 16.0802 14.0314 16.2902 14.31 16.2902C14.4214 16.2902 14.4985 16.2045 14.5843 16.1102C14.6914 15.9902 14.8114 15.8574 15.0214 15.8574C15.5014 15.8574 15.8228 16.4059 15.9514 16.7102C15.9857 16.5602 16.1357 16.2902 16.44 16.2902C16.6671 16.2902 16.8043 16.5002 16.92 16.6759C17.0057 16.7959 17.0743 16.9031 17.1514 16.9031C17.22 16.9031 17.2585 16.8774 17.3143 16.8474C17.4085 16.7874 17.5414 16.7102 17.9443 16.7102C18.2957 16.7102 18.6085 16.8816 18.8528 17.0831H18.8571Z" fill="url(#paint0_linear_31_11459)"/>
<path d="M18.8572 17.0916L12.0129 5.14307L5.15576 17.1259C5.86719 16.7659 6.99862 16.2902 8.02719 16.2902C8.61862 16.2902 9.20148 16.4531 9.64719 16.5774C9.9129 16.6545 10.1529 16.7145 10.2858 16.7145C11.46 16.7145 12.4158 15.9859 12.8915 15.6259C13.0458 15.5059 13.1486 15.4288 13.1915 15.4288C13.4915 15.4288 13.6286 15.6474 13.7658 15.8659C13.8986 16.0802 14.0315 16.2859 14.3143 16.2859C14.4215 16.2859 14.4986 16.2002 14.5843 16.1059C14.6915 15.9902 14.8115 15.8574 15.0215 15.8574C15.5015 15.8574 15.8229 16.4145 15.9515 16.7145C15.9858 16.5688 16.1358 16.2859 16.44 16.2859C16.6672 16.2859 16.8043 16.5002 16.92 16.6716C17.0058 16.7959 17.0743 16.9031 17.1515 16.9031C17.22 16.9031 17.2586 16.8774 17.3143 16.8474C17.4086 16.7916 17.5415 16.7188 17.9443 16.7188C18.2958 16.7188 18.6129 16.8902 18.8572 17.0916Z" fill="url(#paint1_linear_31_11459)"/>
</g>
<defs>
<linearGradient id="paint0_linear_31_11459" x1="12" y1="5.14307" x2="12" y2="17.1431" gradientUnits="userSpaceOnUse">
<stop stop-color="#B4386C"/>
<stop offset="1" stop-color="#F87056"/>
</linearGradient>
<linearGradient id="paint1_linear_31_11459" x1="13.4058" y1="14.1002" x2="17.6786" y2="16.4531" gradientUnits="userSpaceOnUse">
<stop stop-color="#FDC570" stop-opacity="0"/>
<stop offset="1" stop-color="#FEC574"/>
</linearGradient>
<clipPath id="clip0_31_11459">
<rect width="24" height="24" fill="white"/>
</clipPath>
</defs>
</svg>
