<svg xmlns="http://www.w3.org/2000/svg" width="24" height="24" fill="none" viewBox="0 0 24 24"><g clip-path="url(#a)"><path fill="url(#b)" d="M0 0h24v24H0z"/><path fill="#fff" d="M14.207 5.486A8 8 0 0 0 12 5.006a8 8 0 0 0-2.207.471l.921 2.006L12 8.237l1.286-.754.921-2.001zm-2.288-.772L12 4.72l.086-.005v.013c1.385.11 2.72.568 3.883 1.329l-.215.205a7.6 7.6 0 0 0-1.277-.672l-.968 2.095-1.475.87-.017.03L12 8.576l-.017.008-.017-.03-1.475-.87-.968-2.095a8 8 0 0 0-1.243.647l-.214-.202a8 8 0 0 1 3.853-1.307zM6 8.28v6.823c.004.201.043.527.154.857.107.326.283.681.575.917l.6.472 2.914 1.907c.128.085.3-.009.3-.163v-1.217a2.9 2.9 0 0 0 1.547.411c.483-.019.954-.16 1.367-.411v1.217c0 .154.172.244.3.163l2.914-1.912.6-.467c.274-.245.473-.563.575-.917.107-.33.15-.656.154-.857V8.357l-.291.377V15.1c0 .171-.043.471-.138.771-.098.3-.257.596-.484.784l-.587.459-2.786 1.8v-4.684c.557 0 1.325-.146 1.886-.677.621-.592 1.003-1.616.759-3.318l-.013-.09-.086-.03a6.4 6.4 0 0 0-1.543-.235c-.656-.018-1.401.055-2.083.338l-.085.034v3.146l-.549.309-.544-.309v-3.145l-.086-.035a5.1 5.1 0 0 0-2.083-.338 6.4 6.4 0 0 0-1.543.235l-.09.03-.013.086c-.244 1.706.138 2.73.759 3.322a2.76 2.76 0 0 0 1.886.677v4.688l-2.786-1.8-.587-.458a1.7 1.7 0 0 1-.484-.789c-.099-.3-.133-.6-.138-.771V8.657zm7.457 9.24c-.42.314-.932.483-1.457.48a2.4 2.4 0 0 1-1.457-.48V13.93l-.15.004a2.44 2.44 0 0 1-1.792-.6c-.522-.489-.9-1.384-.685-2.974a6.4 6.4 0 0 1 1.38-.197c.6-.018 1.243.047 1.847.278v3.12l.857.489.857-.489v-3.12a4.8 4.8 0 0 1 1.847-.278c.57.02 1.072.11 1.38.197.215 1.59-.163 2.485-.685 2.978a2.44 2.44 0 0 1-1.792.6l-.15-.008zm-4.997-6-.039-.077a1.81 1.81 0 0 1 1.26-.626c.583 0 .999.33 1.132.497l-.064.099a1.87 1.87 0 0 0-1.072-.403c-.463 0-1.003.343-1.217.514zm.021.446-.042-.086c.188-.206.72-.741 1.345-.741.626 0 1.127.505 1.269.668l-.069.099a2.6 2.6 0 0 0-.788-.39v.064c-.013.021-.022.017-.035.009-.021-.013-.051-.03-.128-.03-.129 0-.099.184.026.184.055 0 .098-.034.128-.06.03-.034.047-.047.047.043a.493.493 0 0 1-.501.463c-.343 0-.459-.24-.459-.446a.6.6 0 0 1 .035-.206 3 3 0 0 0-.828.429m4.586-.523.039.081c.214-.171.75-.514 1.217-.514s.904.266 1.071.403l.06-.099a1.53 1.53 0 0 0-1.131-.497c-.587 0-1.08.416-1.256.626m.017.441.043.082c.251-.184.529-.328.823-.429a.7.7 0 0 0-.03.206c0 .206.111.446.459.446a.496.496 0 0 0 .501-.463c0-.09-.017-.077-.051-.043-.03.026-.073.06-.129.06-.124 0-.154-.184-.021-.184.072 0 .107.017.124.03.017.008.021.012.034-.009a.08.08 0 0 0 0-.064c.356.098.669.296.793.39l.069-.099c-.146-.163-.643-.668-1.269-.668s-1.157.535-1.346.745m-1.303 2.82c-.021-.085-.244-.278-.351-.364-.034.056-.09.197-.043.322.056.158.416.154.394.042m1.072-.364c-.112.086-.334.274-.352.364-.021.112.339.116.395-.043a.42.42 0 0 0-.043-.32m-.772 1.642a.42.42 0 0 0-.257-.09c-.094 0-.163.02-.223.038a.36.36 0 0 1-.21.013 3 3 0 0 0-.282-.051c.017.047.102.17.3.17h1.354c.193 0 .283-.123.3-.17a3 3 0 0 0-.287.05c-.082.022-.142.005-.21-.012-.06-.017-.129-.038-.223-.038a.47.47 0 0 0-.257.085zm-.471.317c.043.038.193.111.42.111.231 0 .45-.073.531-.111-.021.085-.15.257-.505.257-.356 0-.446-.172-.446-.257"/><path fill="url(#c)" d="M6.27 5.499c.964.222 2.906 1.062 2.949 2.64-.086.201-.343.664-.712.9-.651.184-2.066.192-2.494-1.26.034 0 .116.012.154.068.043.069.343.343.686.476.043.021.098 0 .124-.047.03-.06 0-.133-.064-.159a1.37 1.37 0 0 1-.9-1.401l.48.171c.3.344.664.628 1.071.836a.13.13 0 0 0 .191-.098.14.14 0 0 0-.08-.142c-.62-.3-1.594-1.029-1.405-1.984m11.464 0c-.964.222-2.901 1.062-2.944 2.64.081.201.343.664.711.9.652.184 2.066.192 2.495-1.26-.035 0-.116.012-.155.068-.042.069-.342.343-.685.476a.1.1 0 0 1-.129-.047.12.12 0 0 1 .069-.159 1.37 1.37 0 0 0 .9-1.401l-.485.171c-.3.344-.664.628-1.071.836a.128.128 0 0 1-.19-.098.14.14 0 0 1 .079-.142c.621-.3 1.598-1.029 1.405-1.984"/></g><defs><linearGradient id="b" x1="4.466" x2="29.207" y1="4.161" y2="32.58" gradientUnits="userSpaceOnUse"><stop stop-color="#1A1E21"/><stop offset="1" stop-color="#06060A"/></linearGradient><linearGradient id="c" x1="12.004" x2="12.004" y1="5.499" y2="9.124" gradientUnits="userSpaceOnUse"><stop stop-color="#DFB579"/><stop offset=".24" stop-color="#E2A761"/><stop offset=".91" stop-color="#976C3F"/></linearGradient><clipPath id="a"><path fill="#fff" d="M0 0h24v24H0z"/></clipPath></defs></svg>