<svg xmlns="http://www.w3.org/2000/svg" width="24" height="24" fill="none" viewBox="0 0 24 24"><g clip-path="url(#a)"><path fill="url(#b)" d="M0 0h24v24H0z"/><path fill="#E6EEFA" d="M13.714 8.44c0-2.337-1.12-4.348-1.971-5.003-.004-.002-.066-.037-.06.056l-.002.003c-.07 4.515-2.338 5.739-3.585 7.387-2.877 3.804-.201 7.974 2.524 8.745 1.524.431-.353-.763-.594-3.286-.293-3.05 3.688-5.377 3.688-7.901"/><path fill="#2EA7DF" d="M15.2 9.868c-.017-.012-.041-.02-.059.009-.046.574-.615 1.804-1.335 2.933-2.442 3.829-1.05 5.675-.267 6.666.454.575 0 0 1.135-.588.09-.047 2.217-1.28 2.447-4.088.223-2.72-1.358-4.434-1.92-4.932"/></g><defs><linearGradient id="b" x1="4.465" x2="29.206" y1="4.162" y2="32.579" gradientUnits="userSpaceOnUse"><stop stop-color="#1A1E21"/><stop offset="1" stop-color="#06060A"/></linearGradient><clipPath id="a"><path fill="#fff" d="M0 0h24v24H0z"/></clipPath></defs></svg>