<svg xmlns="http://www.w3.org/2000/svg" width="24" height="24" fill="none" viewBox="0 0 24 24"><g clip-path="url(#a)"><path fill="#FB6F6E" d="M0 0h24v24H0z"/><path fill="#FEFEFF" d="M8.143 5.143a.857.857 0 0 1 1.714 0v3.651a3.857 3.857 0 0 1 6 3.206v3.857a.857.857 0 0 1-1.714 0V12a2.143 2.143 0 1 0-4.286 0v3.857a.857.857 0 0 1-1.714 0zm1.714 13.285a.857.857 0 1 1-1.715 0 .857.857 0 0 1 1.715 0m5.143.858a.857.857 0 1 0 0-1.715.857.857 0 0 0 0 1.715"/></g><defs><clipPath id="a"><path fill="#fff" d="M0 0h24v24H0z"/></clipPath></defs></svg>