<svg xmlns="http://www.w3.org/2000/svg" width="24" height="24" fill="none" viewBox="0 0 24 24"><g clip-path="url(#a)"><path fill="#F0F3FA" d="M0 0h24v24H0z"/><path fill="url(#b)" d="M6.056 17.566V18h.439l1.414-1.527v-.436H7.47z"/><path fill="url(#c)" d="m10.174 18.001.696-1.54v-.423h-.453l-.697 1.54v.424z"/><path fill="url(#d)" d="M18.001 14.423v-.451l-1.481-.796h-.427v.45l1.482.796z"/><path fill="url(#e)" d="M18.001 10.03v-.45h-.426l-1.482.796v.45h.427z"/><path fill="url(#f)" d="M9.72 6v.424l.697 1.54h.454v-.425L10.174 6z"/><path fill="url(#g)" d="M17.947 6.436V6h-.439l-1.414 1.527v.436h.439z"/><path fill="#BE5095" d="M13.714 10.286h-.428v.428h.428z"/><path fill="url(#h)" d="M13.133 16.038v.424l.696 1.54h.454v-.425l-.697-1.539z"/><path fill="url(#i)" d="M14.282 6h-.453l-.696 1.54v.424h.453l.696-1.54z"/><path fill="url(#j)" d="M17.947 18.001v-.436l-1.415-1.527h-.44v.436l1.416 1.527z"/><path fill="url(#k)" d="M6.002 13.972v.45h.426l1.482-.796v-.45h-.426z"/><path fill="url(#l)" d="M6.056 6v.436L7.47 7.963h.44v-.436L6.494 6z"/><path fill="#BD687B" d="M10.286 13.714h.428v-.428h-.428z"/><path fill="url(#m)" d="M6.002 9.58v.45l1.482.796h.426v-.45L6.428 9.58z"/><path fill="#AC5E90" d="M10.286 10.714h.428v-.428h-.428z"/><path fill="#C85C7F" d="M13.714 13.286h-.428v.428h.428z"/></g><defs><linearGradient id="b" x1="7.909" x2="5.949" y1="16.038" y2="17.889" gradientUnits="userSpaceOnUse"><stop stop-color="#C27E64"/><stop offset="1" stop-color="#CD8D56"/></linearGradient><linearGradient id="c" x1="10.608" x2="9.099" y1="16.038" y2="17.182" gradientUnits="userSpaceOnUse"><stop stop-color="#CB7365"/><stop offset="1" stop-color="#D57D56"/></linearGradient><linearGradient id="d" x1="16.093" x2="17.316" y1="13.176" y2="14.76" gradientUnits="userSpaceOnUse"><stop stop-color="#D75080"/><stop offset="1" stop-color="#E34B76"/></linearGradient><linearGradient id="e" x1="16.035" x2="17.289" y1="10.68" y2="9.036" gradientUnits="userSpaceOnUse"><stop stop-color="#CF4794"/><stop offset="1" stop-color="#D739A3"/></linearGradient><linearGradient id="f" x1="9.721" x2="11.331" y1="6" y2="7.067" gradientUnits="userSpaceOnUse"><stop stop-color="#8554B2"/><stop offset="1" stop-color="#9C55A5"/></linearGradient><linearGradient id="g" x1="16.129" x2="18.052" y1="7.926" y2="6.111" gradientUnits="userSpaceOnUse"><stop stop-color="#C43CAE"/><stop offset="1" stop-color="#CD2CC3"/></linearGradient><linearGradient id="h" x1="13.155" x2="14.652" y1="16.087" y2="17.182" gradientUnits="userSpaceOnUse"><stop stop-color="#D66766"/><stop offset="1" stop-color="#E26A55"/></linearGradient><linearGradient id="i" x1="13.133" x2="14.69" y1="7.963" y2="6.858" gradientUnits="userSpaceOnUse"><stop stop-color="#AD4AA9"/><stop offset="1" stop-color="#AD3EBB"/></linearGradient><linearGradient id="j" x1="16.093" x2="18.053" y1="16.038" y2="17.889" gradientUnits="userSpaceOnUse"><stop stop-color="#E15A68"/><stop offset="1" stop-color="#EB5A55"/></linearGradient><linearGradient id="k" x1="7.91" x2="6.677" y1="13.176" y2="14.742" gradientUnits="userSpaceOnUse"><stop stop-color="#AC757A"/><stop offset="1" stop-color="#AC8270"/></linearGradient><linearGradient id="l" x1="6.056" x2="8.01" y1="6" y2="7.845" gradientUnits="userSpaceOnUse"><stop stop-color="#6466AA"/><stop offset="1" stop-color="#8563A1"/></linearGradient><linearGradient id="m" x1="6.03" x2="7.227" y1="9.595" y2="11.17" gradientUnits="userSpaceOnUse"><stop stop-color="#857390"/><stop offset="1" stop-color="#986C8D"/></linearGradient><clipPath id="a"><path fill="#fff" d="M0 0h24v24H0z"/></clipPath></defs></svg>