<svg xmlns="http://www.w3.org/2000/svg" width="24" height="24" fill="none" viewBox="0 0 24 24"><g clip-path="url(#a)"><path fill="url(#b)" d="M0 0h24v24H0z"/><path fill="#fff" d="M12 13.286a1.286 1.286 0 1 0 0-2.572 1.286 1.286 0 0 0 0 2.572m-1.714-6a.857.857 0 1 0 0-1.715.857.857 0 0 0 0 1.715m7.693 5.142a1.071 1.071 0 1 0 0 2.143 1.071 1.071 0 0 0 0-2.143"/><path fill="#fff" d="M16.328 9.613c.592-1.817.515-3.253-.334-3.814-.943-.609-2.541.051-4.2 1.607q-.2-.185-.394-.351a1.3 1.3 0 0 1-.287.407c.107.094.223.188.321.287q-.642.65-1.208 1.363c-.836.06-1.672.184-2.486.377-.506-1.56-.493-2.782.167-3.214a1.24 1.24 0 0 1 .977-.112q.078-.258.257-.471c-.621-.185-1.157-.163-1.568.111-.849.557-.922 1.993-.33 3.81-1.865.523-3.035 1.38-3.035 2.392 0 1.01 1.17 1.86 3.035 2.387a7 7 0 0 0-.137.467h.072q.221-.001.43.068c.038-.133.076-.27.123-.407.819.184 1.655.309 2.495.364q.57.714 1.212 1.363c-1.444 1.333-2.798 1.959-3.53 1.475a1 1 0 0 1-.3-.318 1.2 1.2 0 0 1-.584.056c.103.3.3.557.557.737.943.622 2.537-.038 4.209-1.602 1.663 1.564 3.257 2.228 4.204 1.602.853-.557.926-1.992.334-3.814.172-.043.343-.098.502-.15a1.3 1.3 0 0 1-.223-.441l-.45.137q-.379-.992-.891-1.92c.342-.617.643-1.26.891-1.92 1.599.441 2.623 1.144 2.623 1.92a.9.9 0 0 1-.094.403c.158.115.291.265.385.437.185-.245.287-.54.292-.844 0-1.012-1.17-1.87-3.035-2.392m-4.542-1.521c.3.3.604.63.895.985a21 21 0 0 0-.895-.021c-.3 0-.609 0-.892.021.283-.355.587-.685.892-.985M9.814 9.63a21 21 0 0 0-1.23 1.856q-.39-.75-.69-1.543c.63-.141 1.273-.244 1.916-.308zm-2.408 4.286c-1.599-.437-2.623-1.14-2.623-1.916 0-.775 1.028-1.47 2.623-1.92q.38.992.895 1.92c-.343.617-.643 1.26-.891 1.92zm.484.128c.197-.527.429-1.04.686-1.542.227.377.45.754.72 1.131.171.257.343.497.514.729a15.5 15.5 0 0 1-1.92-.318m1.808-.677q-.449-.666-.848-1.363a20 20 0 0 1 1.62-2.417 20 20 0 0 1 2.627 0q.899 1.147 1.62 2.413-.721 1.268-1.616 2.417-1.313.082-2.627 0a21 21 0 0 1-.771-1.054zm1.183 1.556c.292.013.592.017.892.017s.608 0 .896-.017c-.3.356-.605.686-.896.986-.292-.3-.596-.63-.892-.986m4.788 2.799c-.73.48-2.088-.142-3.532-1.475q.646-.649 1.213-1.363 1.262-.09 2.486-.372c.505 1.555.492 2.768-.168 3.21m0-3.682a14 14 0 0 1-1.92.317q.666-.893 1.23-1.855.392.75.694 1.542zm-.686-2.55c-.223-.368-.446-.75-.712-1.127a25 25 0 0 0-.518-.728c.643.064 1.286.17 1.92.317a15 15 0 0 1-.686 1.543zm.857-2.001a16 16 0 0 0-2.486-.377q-.569-.714-1.213-1.363c1.44-1.333 2.799-1.954 3.532-1.47.655.428.668 1.65.163 3.21z"/><path fill="#fff" d="M8.571 16.5a1.072 1.072 0 1 0-2.143 0 1.072 1.072 0 0 0 2.143 0"/></g><defs><linearGradient id="b" x1="6" x2="18" y1="22.393" y2="1.607" gradientUnits="userSpaceOnUse"><stop stop-color="#383D63"/><stop offset=".23" stop-color="#693566"/><stop offset=".48" stop-color="#982D6A"/><stop offset=".7" stop-color="#BB276C"/><stop offset=".88" stop-color="#D0236D"/><stop offset="1" stop-color="#D8226E"/></linearGradient><clipPath id="a"><path fill="#fff" d="M0 0h24v24H0z"/></clipPath></defs></svg>