<svg xmlns="http://www.w3.org/2000/svg" width="24" height="24" fill="none" viewBox="0 0 24 24"><g clip-path="url(#a)"><path fill="url(#b)" d="M0 0h24v24H0z"/><path fill="url(#c)" d="m3.857 12 1.286-1.286L6.429 12l-1.286 1.286z"/><path fill="url(#d)" d="m5.572 13.714 1.285-1.285 3 3-1.285 1.285z"/><path fill="url(#e)" d="m9 13.714 1.286-1.285 1.285 1.285L10.286 15z"/><path fill="url(#f)" d="M10.714 12 12 10.714 13.286 12 12 13.286z"/><path fill="url(#g)" d="M12.429 10.286 13.714 9 15 10.286l-1.286 1.285z"/><path fill="#F3BA2F" d="m14.143 8.571 1.285-1.285 3 3-1.285 1.285z"/><path fill="url(#h)" d="m12.429 13.714 1.285-1.285L15 13.714 13.714 15z"/><path fill="url(#i)" d="m14.143 15.429 3-3 1.285 1.285-3 3z"/><path fill="#F3BA2F" d="m17.572 12 1.285-1.286L20.143 12l-1.286 1.286z"/><path fill="url(#j)" d="m5.572 10.286 3-3L9.857 8.57l-3 3z"/><path fill="url(#k)" d="M9 10.286 10.286 9l1.285 1.286-1.285 1.285z"/></g><defs><linearGradient id="b" x1="4.466" x2="29.207" y1="4.161" y2="32.58" gradientUnits="userSpaceOnUse"><stop stop-color="#1A1E21"/><stop offset="1" stop-color="#06060A"/></linearGradient><linearGradient id="c" x1="4.5" x2="5.794" y1="12.643" y2="11.353" gradientUnits="userSpaceOnUse"><stop stop-color="#4086FF"/><stop offset="1" stop-color="#48D5FF"/></linearGradient><linearGradient id="d" x1="7.072" x2="8.362" y1="15.214" y2="13.924" gradientUnits="userSpaceOnUse"><stop stop-color="#4086FF"/><stop offset="1" stop-color="#48D5FF"/></linearGradient><linearGradient id="e" x1="9.643" x2="10.937" y1="14.357" y2="13.067" gradientUnits="userSpaceOnUse"><stop stop-color="#4086FF"/><stop offset="1" stop-color="#48D5FF"/></linearGradient><linearGradient id="f" x1="11.357" x2="12.643" y1="12.643" y2="11.357" gradientUnits="userSpaceOnUse"><stop stop-color="#E8BB41"/><stop offset="1" stop-color="#F6DA5B"/></linearGradient><linearGradient id="g" x1="13.071" x2="14.357" y1="10.929" y2="9.643" gradientUnits="userSpaceOnUse"><stop stop-color="#E8BB41"/><stop offset="1" stop-color="#F6DA5B"/></linearGradient><linearGradient id="h" x1="13.071" x2="14.357" y1="14.357" y2="13.072" gradientUnits="userSpaceOnUse"><stop stop-color="#E8BB41"/><stop offset="1" stop-color="#F6DA5B"/></linearGradient><linearGradient id="i" x1="14.786" x2="17.786" y1="16.072" y2="13.072" gradientUnits="userSpaceOnUse"><stop stop-color="#E8BB41"/><stop offset="1" stop-color="#F6DA5B"/></linearGradient><linearGradient id="j" x1="6.214" x2="9.24" y1="10.928" y2="7.928" gradientUnits="userSpaceOnUse"><stop stop-color="#4086FF"/><stop offset="1" stop-color="#48D5FF"/></linearGradient><linearGradient id="k" x1="9.643" x2="10.937" y1="10.929" y2="9.639" gradientUnits="userSpaceOnUse"><stop stop-color="#4086FF"/><stop offset="1" stop-color="#48D5FF"/></linearGradient><clipPath id="a"><path fill="#fff" d="M0 0h24v24H0z"/></clipPath></defs></svg>