<svg xmlns="http://www.w3.org/2000/svg" width="24" height="24" fill="none" viewBox="0 0 24 24"><g clip-path="url(#a)"><path fill="url(#b)" d="M0 0h24v24H0z"/><path fill="#fff" fill-rule="evenodd" d="M7.041 9.082c-.008-.073-.017-.142 0-.215 0-.013.005-.017.013 0q.129.36.219.733c.021.086.047.163.077.244l.043.138c.127.367.313.71.548 1.02h.01l.008-.005c.042-.043.068-.085.102-.133l.095-.124.128-.159.129-.167c.064-.064.12-.128.171-.201l.215-.244.278-.292c.06-.064.052-.141.039-.214a8 8 0 0 0-.587-1.907c-.108-.244-.215-.493-.343-.729a.06.06 0 0 1 0-.047c0-.026.017-.026.03-.004l.57.746q.231.3.527.865.167.31.27.626.155.477.163.904a2.4 2.4 0 0 1-.536 1.53l-.01.004a.02.02 0 0 1-.011-.004.04.04 0 0 1-.013-.03 1.3 1.3 0 0 0-.052-.377.055.055 0 0 0-.068-.013.7.7 0 0 0-.107.086q-.116.103-.078-.051a2 2 0 0 1 .159-.412.013.013 0 0 0-.009-.013h-.008a.2.2 0 0 0-.09.052 9.4 9.4 0 0 0-.986.998 4 4 0 0 1-.347.369.2.2 0 0 0-.064.128c-.055.495-.026.994.085 1.479l-.017.026q-.163.141-.3.308l.005.013.008.009.017.004c.12 0 .236.013.356.047a.04.04 0 0 1 .034.034.05.05 0 0 1-.013.043c-.347.35-.64.75-.87 1.187-.055.107-.034.125.06.043l.073-.068a1 1 0 0 1 .112-.099c.107-.077.214-.163.33-.257l.188-.129.185-.128c.047-.043.102-.022.115.043.013.068-.055.201-.098.282l-.013.03c-.1.22-.14.463-.12.703q.022.193.03.386l.011.01.015.003.012-.004q.246-.17.472-.365h.008l.009.009c.073.111.12.231.167.347a3 3 0 0 0 .142.339.7.7 0 0 0 .102.214l.172.218c.171.228.394.386.673.43.021 0 .043.012.055.025.018.017.022.034.022.06q-.015.303.056.613c.038.158.111.308.184.462q.066.129.124.27c.107.275.309.498.515.686l.077.052.128.051c.236.107.463.21.737.12a3 3 0 0 0 .515-.218.18.18 0 0 1 .171-.01l.377.18c.352.168.686.044 1.024-.145a1.56 1.56 0 0 0 .476-.514c.065-.159.129-.304.21-.45q.043-.085.073-.176l.043-.103c.107-.257.133-.565.12-.848a.05.05 0 0 1 .043-.056c.415-.034.643-.33.874-.634l.026-.034c.064-.086.111-.163.146-.24q.141-.316.27-.64h.008a.6.6 0 0 1 .189.108c.094.077.188.15.291.223q.02.01.039.008a.017.017 0 0 0 .017-.017l.038-.403a1.4 1.4 0 0 0-.154-.728 1 1 0 0 1-.099-.274.05.05 0 0 1 .039-.043c.064-.009.193.085.257.128l.009.005q.419.294.805.63c.035.008.043 0 .026-.035l-.047-.068c-.017-.026-.038-.052-.051-.082a6 6 0 0 0-.27-.445 3 3 0 0 0-.545-.609c-.06-.056-.034-.128.043-.141q.153-.027.309-.043a.04.04 0 0 0 .012-.02.04.04 0 0 0-.004-.023.7.7 0 0 0-.27-.274.04.04 0 0 1-.021-.047c.073-.33.116-.67.124-1.008 0-.107-.013-.205-.021-.3l-.013-.128a.33.33 0 0 0-.086-.197l-.355-.373a9 9 0 0 0-.9-.922c-.04-.03-.07-.06-.112-.077l-.011-.002a.02.02 0 0 0-.01.007.02.02 0 0 0 0 .02c.068.172.128.335.171.477.009.017 0 .03-.017.034a.07.07 0 0 1-.056-.021l-.017-.018c-.043-.043-.103-.111-.15-.128a.04.04 0 0 0-.043.034q-.05.2-.056.407l-.008.009a.02.02 0 0 1-.026-.009 1.8 1.8 0 0 1-.338-.557 2.3 2.3 0 0 1-.18-.75 3.1 3.1 0 0 1 .248-1.346c.086-.197.172-.398.283-.587.25-.44.54-.86.862-1.251q.061-.092.137-.172c.047-.051.06-.042.034.018l-.03.085c-.034.082-.064.163-.111.245q-.088.155-.163.33-.16.38-.275.677a6.5 6.5 0 0 0-.364 1.5l.017.021a6 6 0 0 1 .527.566l.189.231c.141.172.287.343.42.532q.024.032.047 0a3.6 3.6 0 0 0 .553-1.072q.173-.545.313-1.071.013-.059.021 0c.009.086 0 .167-.008.248l-.013.142a5.5 5.5 0 0 1-.335 1.65l-.231.553a.12.12 0 0 0 .021.128.6.6 0 0 1 .138.227q.007.031.034.047a.02.02 0 0 0 .017 0h.004l.005-.004a2.6 2.6 0 0 0 .214-.437l.107-.244q.06-.127.107-.249l.159-.415c.628-1.854.893-3.811.78-5.765l-.013-.008-.013.004a18 18 0 0 0-3.356 2.61l-.385.429a6.5 6.5 0 0 0-.857 1.234c-.022.043-.065.056-.112.043l-.514-.099a4.35 4.35 0 0 0-1.869.082l-.15.03a.04.04 0 0 1-.043-.026 2 2 0 0 0-.201-.394c-.15-.228-.317-.46-.506-.708-.068-.085-.141-.162-.214-.24l-.159-.18a4 4 0 0 0-.223-.252 7 7 0 0 0-.355-.335c-.077-.068-.159-.137-.236-.214q-.713-.634-1.487-1.191a47 47 0 0 0-1.196-.798.043.043 0 0 0-.043.035 14.4 14.4 0 0 0 .189 3.411q.167.979.458 1.929c.078.257.21.6.39 1.045q.15.353.343.682a.03.03 0 0 0 .026 0l.013-.013.141-.232a.22.22 0 0 0 .013-.214 4.6 4.6 0 0 1-.514-1.731zm6.793 5.554c.592.021 1.059-.36 1.042-.969 0-.017-.013-.025-.03-.017l-.043.013-.064.021-.892.159a.14.14 0 0 0-.103.069 8 8 0 0 0-.342.668q0 .01.006.02a.04.04 0 0 0 .015.014zm-4.23-.193a1.03 1.03 0 0 1-.355-.784h.008l1.046.188a.1.1 0 0 1 .064.043l.356.634a.06.06 0 0 1-.006.07.1.1 0 0 1-.02.016q-.301.04-.604.013a1 1 0 0 1-.489-.18m1.702 4.247a1.29 1.29 0 0 0 1.123.103c.261-.094.535-.326.514-.626-.013-.171-.129-.278-.24-.39l-.009-.008c-.034-.039-.085-.039-.128-.022q-.238.09-.532.103a2.5 2.5 0 0 1-.685-.073c-.138-.034-.236.112-.296.219a.5.5 0 0 0-.06.236c-.004.184.171.38.313.458" clip-rule="evenodd"/></g><defs><linearGradient id="b" x1="0" x2="24" y1="8.289" y2="16.8" gradientUnits="userSpaceOnUse"><stop stop-color="#042457"/><stop offset=".49" stop-color="#050C22"/><stop offset="1" stop-color="#042459"/></linearGradient><clipPath id="a"><path fill="#fff" d="M0 0h24v24H0z"/></clipPath></defs></svg>