<svg xmlns="http://www.w3.org/2000/svg" width="24" height="24" fill="none" viewBox="0 0 24 24"><g clip-path="url(#a)"><path fill="#C36EFF" d="M0 0h24v24H0z"/><path fill="#3E0176" d="m13.984 6.823.356-.737.244-.386.283-.356.232-.227.402-.248c.626-.296 1.252-.009 1.646.501.365.471.635 1.003.815 1.607.415 1.397.557 2.786.552 4.209 0 .171.189.471.266.643a4.97 4.97 0 0 1 .416 3.12l-.373 1.058-.129.244-.325.485c-1.243 1.577-3.395 2.323-5.357 2.507-2.41.223-5.495-.394-7.158-2.259-1.44-1.615-1.457-3.865-.385-5.665a.23.23 0 0 0 .034-.133c-.01-1.45.191-2.894.6-4.286q.147-.482.386-.926l.334-.535c.163-.215.364-.39.6-.536.848-.527 1.624.15 2.074.814.232.343.416.755.6 1.14q.009.025.03.017a5.4 5.4 0 0 1 3.802.013c.017.009.03 0 .038-.013a.1.1 0 0 0 .017-.051"/><path fill="#646484" d="m15.502 4.869-.403.248a.7.7 0 0 1 .402-.248"/><path fill="#C1C1CF" d="M9.202 6.077a2.1 2.1 0 0 0-.738-.609.91.91 0 0 0-.865.018l-.112.055c-.154.077-.291.232-.398.365q-.034.037-.022-.009l.022-.081c.257-.378.728-.815 1.2-.626.3.128.398.274.6.454q.134.117.313.433m7.83-.111v.012q-.009.014-.018 0c-.235-.274-.415-.458-.788-.548-.326-.077-.527.013-.806.163a.5.5 0 0 0-.12.081q-.21.182-.429.403l.292-.394.351-.317c.63-.472 1.23.064 1.518.6"/><path fill="#646484" d="m14.871 5.344-.287.356a1 1 0 0 1 .283-.356zm.643.022-.351.317a.64.64 0 0 1 .351-.317"/><path fill="#646484" d="M9.201 6.077c.099.112.18.24.245.394.115.288.231.536.343.815q.044.114.222.107c.223.146.455.026.673-.039a5 5 0 0 1 2.945.09c.15.052.291.047.411-.043.133.022.201-.042.253-.158l.308-.729q.104-.25.27-.437a7 7 0 0 1 .429-.403.6.6 0 0 1 .12-.085c.279-.146.48-.236.806-.159.373.09.553.274.788.553q.007.007.013-.004v-.013q.031-.002.043.03c.073.167.18.334.244.475q.142.326.236.669c.394 1.341.493 2.7.514 4.071 0 .253.073.326.189.536.453.823.646 1.765.553 2.7a.04.04 0 0 1-.007.02.04.04 0 0 1-.015.014l-.03.022-.043-.124-.12-.292a.73.73 0 0 0-.347-.386c-.493-.3-1.101-.197-1.603.026q-.354.159-.445.227c-.532.386-1.166.609-1.822.399l-.351-.18-.142-.112a.95.95 0 0 0-.445-.295c-.013 0-.017.008-.022.017l.005.017c-.198-.287-.729-.356-1.063-.364a9 9 0 0 0-1.072.038c-.231.022-.557.099-.703.3q-.012-.038-.102.026a.6.6 0 0 0-.266.159 1.58 1.58 0 0 1-1.659.364c-.36-.112-.664-.352-.943-.506-.552-.3-1.35-.531-1.915-.111a.58.58 0 0 0-.275.304l-.141.309-.064.188a3 3 0 0 1-.056-.63c.043-.883.3-1.697.771-2.451a.22.22 0 0 0 .026-.12c.009-1.17.099-2.349.356-3.493q.121-.465.266-.922l.008-.017a1.5 1.5 0 0 1 .129-.377q.173-.354.373-.681l-.022.081q-.01.046.017.009c.134-.181.31-.325.515-.42a.91.91 0 0 1 .865-.017q.395.185.737.608M6.823 5.44l-.334.535q.115-.303.334-.535"/><path fill="#646484" d="m14.34 6.086-.356.737q.124-.384.356-.737"/><path fill="#3E0176" d="M8.233 8.421c-.154.155-.304.365-.467.545-.184.205-.317.454-.48.677-.06.086-.107.197-.159.266-.077.102-.253.085-.317-.013a.32.32 0 0 1-.03-.18 9.3 9.3 0 0 1 .377-2.349c.017-.064.073-.12.073-.188 0-.095.056-.168.086-.232.103-.253.248-.441.437-.578.36-.258.75.072.874.42l.052.102c.034.065.034.138.064.206.073.172.099.399.141.583q.037.141-.055.206c-.206.145-.373.313-.596.535m7.024-.484c-.073-.06-.128-.133-.111-.236q.087-.449.257-.874c.154-.343.48-.664.9-.428.261.141.459.595.544.87q.387 1.232.407 2.524c0 .223-.244.313-.364.116a8 8 0 0 0-1.629-1.972z"/><path fill="#C33979" d="M8.426 7.393c-.163-.193-.343-.459-.613-.215-.167.155-.189.296-.317.43.055-.245.257-.815.497-.93a.116.116 0 0 1 .145.038q.217.305.288.677m8.134.266c-.137-.232-.403-.716-.699-.498q-.116.089-.24.275c.047-.236.159-.57.348-.729a.08.08 0 0 1 .102 0c.262.197.416.643.489.952"/><path fill="#C1C1CF" d="M14.04 7.406c-.12.086-.257.086-.411.038a4.96 4.96 0 0 0-2.945-.085c-.218.06-.45.18-.672.034a5.04 5.04 0 0 1 4.028.013"/><path fill="#FC517B" d="m8.426 7.393.055.236a.04.04 0 0 1-.012.043l-.429.415a3 3 0 0 0-.24.257l-.557.665q-.013.01-.013-.005.06-.708.266-1.397c.128-.133.15-.274.317-.428.274-.245.45.021.613.214m8.134.266q.206.668.244 1.363.007.058-.025.008a8.2 8.2 0 0 0-1.213-1.35.04.04 0 0 1 0-.026l.055-.214a1.2 1.2 0 0 1 .24-.278c.296-.215.558.265.699.497"/><path fill="#fff" d="M8.67 10.715c-.321-.3-.184-.733.227-.87.416-.142.913.017 1.072.432.128.326-.035.798-.429.857-.338.048-.626-.188-.87-.42m6.793-.103c-.236.398-1.063.87-1.384.223-.3-.613.351-1.123.942-1.003.386.073.66.411.442.78"/><path fill="#3E0176" d="M9.686 12.699a1.1 1.1 0 0 1 .154.685q-.002.034-.043.022l-.013-.009a5 5 0 0 0-.308-.321c-.545-.523-1.136-.386-1.689.043-.021.013-.043.021-.064.013a.03.03 0 0 1-.026-.035c.137-.985 1.466-1.243 1.993-.398zm6.574.094q.084.128.09.287l-.004.017-.013.013a.04.04 0 0 1-.043 0c-.523-.343-1.174-.497-1.646.043a7 7 0 0 0-.334.407h-.013a.03.03 0 0 1-.03 0 .03.03 0 0 1-.017-.021q-.097-.684.403-1.059a1.107 1.107 0 0 1 1.607.313"/><path fill="#fff" d="M10.213 13.959a.46.46 0 0 0 .266-.159q.089-.064.107-.026c-.18.258.201.798.394.965a.6.6 0 0 0 .172.128c.012 0 .02.013.025.022s.009.021.005.03c-.086.488-.46.715-.935.66a1 1 0 0 1-.45-.163q-.156-.104-.236-.077a1.6 1.6 0 0 1-.154-.275.04.04 0 0 0-.038-.025h-.007a.02.02 0 0 0-.015.013q-.051.384.129.71c.184.75.668 1.197 1.457 1.33q.064.359.424.634a9.3 9.3 0 0 1-3.746-.999 5.3 5.3 0 0 1-1.954-1.671 3.2 3.2 0 0 1-.377-.737l.141-.309.275-.304c.565-.42 1.363-.189 1.915.111.279.155.583.394.943.506.613.193 1.196.09 1.659-.364m8.031-.253.348.381.12.292c-.4 1.041-1.3 1.855-2.302 2.365a9.5 9.5 0 0 1-3.69.99q-.063.014-.056-.043c.185-.124.3-.3.356-.518a1.1 1.1 0 0 1 .283-.15c.587-.206.956-.536 1.131-1.144a1.03 1.03 0 0 0 .21-.815.02.02 0 0 0-.012-.008h-.01a.07.07 0 0 0-.038.021c-.463.557-1.521.857-1.817-.073a.1.1 0 0 1 .005-.077c.012-.021.03-.043.055-.051a.92.92 0 0 0 .472-.472c.077-.154.214-.454.12-.6v-.021q-.001-.015.017-.017.024 0 .043.013c.085.12.261.214.403.283l.14.11a.6.6 0 0 0 .352.18c.656.215 1.29-.012 1.822-.398q.097-.066.445-.227c.502-.223 1.115-.321 1.603-.021m-5.623.09-.03.056a.06.06 0 0 1-.034.03l-.257.085a1.8 1.8 0 0 1-.506 0l-.364-.09a.06.06 0 0 1-.03-.017.056.056 0 0 1-.004-.064.06.06 0 0 1 .021-.026l.129-.064c.3-.069.797-.099 1.076.085z"/><path fill="#C1C1CF" d="m5.696 13.706-.275.304a.58.58 0 0 1 .275-.304"/><path fill="#646484" d="m11.541 13.706-.124.064a.06.06 0 0 0-.021.026.06.06 0 0 0 .004.064l.03.017.364.094c-.111.022-.373 0-.428-.115-.047-.09.094-.163.175-.15"/><path fill="#C1C1CF" d="M18.244 13.706c.163.086.283.21.348.381l-.348-.385zm-4.77.073a.96.96 0 0 1 .408.283 1.2 1.2 0 0 1-.408-.283"/><path fill="#646484" d="M12.621 13.796q.031.128-.162.167h-.163l.261-.086a.06.06 0 0 0 .034-.025z"/><path fill="#C1C1CF" d="M10.479 13.8a.46.46 0 0 1-.266.158.6.6 0 0 1 .266-.158"/><path fill="#C5B2D6" d="M5.28 14.315c.103.287.232.535.377.745a5.3 5.3 0 0 0 1.955 1.667 9.3 9.3 0 0 0 3.745.999q.252.155.575.18.417.031.732-.214-.007.056.056.043l.06-.01a9.5 9.5 0 0 0 3.63-.98c1.007-.515 1.903-1.325 2.302-2.366l.042.124q.046.16.009.326-.064.258-.133.497l-.356.746-.145.231-.236.313q-.354.406-.771.729-.265.135-.485.32a5 5 0 0 1-.711.387 9.9 9.9 0 0 1-6.549.441c-1.963-.523-3.78-1.71-4.157-3.793-.013-.064.009-.128-.004-.193l.064-.188z"/><path fill="#C5B2D6" d="M13.299 14.4a.9.9 0 0 1-.472.471.1.1 0 0 0-.056.056.1.1 0 0 0 0 .077c.292.926 1.35.626 1.813.073a1.27 1.27 0 0 1-.72.75c-.18.017-.343.077-.51.073-.171 0-.343-.026-.523-.069-.312-.111-.6-.42-.6-.771q0-.025.026-.03a1.54 1.54 0 0 0 1.042-.626zm-2.319.338q.108.044.21.108c.17.103.36.167.557.188a.05.05 0 0 1 .022.034v.026c-.082.352-.275.6-.592.733a1 1 0 0 0-.223.043q-.225.049-.454.026a.5.5 0 0 0-.193-.03 1.11 1.11 0 0 1-.75-.527q.085-.027.24.077.194.129.45.162c.476.056.853-.171.934-.66l-.004-.03a.05.05 0 0 0-.026-.021.5.5 0 0 1-.171-.129"/><path fill="#646484" d="M19.196 14.949a2.5 2.5 0 0 1-.373 1.058zm-.566.377c-.056.27-.171.523-.356.746z"/><path fill="#C5B2D6" d="M9.48 15.763a1.38 1.38 0 0 0 .994.617q.012.006.017.017c.081.2.222.369.403.484l.005.022.03.193q-1.178-.209-1.449-1.329z"/><path fill="#646484" d="M11.177 15.827c-.227.107-.428.077-.66.077q.264.013.437-.038c.095-.022.167-.039.223-.039m2.687 0a.63.63 0 0 1-.291.082c-.202 0-.497.06-.742-.078q.271.064.523.069c.167.004.33-.056.51-.073"/><path fill="#C5B2D6" d="M14.434 15.878c-.171.609-.544.939-1.127 1.145-.116.043-.21.09-.287.15l.039-.227a.05.05 0 0 1 .025-.039q.31-.182.459-.506a.04.04 0 0 1 .034-.025c.338-.053.643-.23.857-.498"/><path fill="#F42F42" d="M12 16.766c.004 0 .013 0 .021-.009q.066-.415.116-.831l.463.321c.009.004.009.013.009.017-.009.266.03.643-.043.857-.142.369-.609.429-.922.258-.381-.215-.287-.742-.287-1.115q0-.012.007-.023a.04.04 0 0 1 .019-.015q.267-.124.48-.326.005.001.006.005l.002.008.1.831q-.002.027.03.022"/><path fill="#646484" d="M18.694 16.252a1.5 1.5 0 0 1-.325.484zm-.565.05a.77.77 0 0 1-.236.314zm-1.012 1.047c-.137.137-.3.244-.48.317q.218-.189.48-.317"/></g><defs><clipPath id="a"><path fill="#fff" d="M0 0h24v24H0z"/></clipPath></defs></svg>