<svg width="24" height="24" viewBox="0 0 24 24" fill="none" xmlns="http://www.w3.org/2000/svg">
<g clip-path="url(#clip0_31_12787)">
<path d="M0 0H24V24H0V0Z" fill="#1A56FF"/>
<path d="M5.59281 14.297L7.89852 18.3727C7.94138 18.4455 8.04424 18.4455 8.08281 18.3727L12.8357 9.97269C12.8496 9.94779 12.8568 9.91976 12.8568 9.89126C12.8568 9.86275 12.8496 9.83472 12.8357 9.80983L10.4785 5.65269C10.4653 5.62883 10.4461 5.60879 10.4228 5.59453C10.3995 5.58026 10.3729 5.57225 10.3457 5.57126H5.67423C5.65535 5.57152 5.63686 5.57678 5.62066 5.58649C5.60446 5.59621 5.59111 5.61003 5.58197 5.62657C5.57283 5.6431 5.56823 5.66176 5.56863 5.68065C5.56902 5.69953 5.57441 5.71798 5.58423 5.73412L7.49138 9.0084C7.52566 9.07269 7.61566 9.08126 7.66281 9.02554L9.76281 6.87412C9.7716 6.8642 9.78388 6.85806 9.79709 6.85697C9.82709 6.85269 9.86138 6.8784 9.85709 6.91269C9.85709 6.92126 9.85709 6.92983 9.84852 6.9384L5.59281 14.1341C5.57892 14.159 5.57163 14.187 5.57163 14.2155C5.57163 14.244 5.57892 14.2721 5.59281 14.297ZM14.1514 17.0613L18.4071 9.86554C18.421 9.84065 18.4283 9.81262 18.4283 9.78412C18.4283 9.75561 18.421 9.72758 18.4071 9.70269L16.1014 5.62697C16.0929 5.60981 16.0797 5.59537 16.0634 5.58527C16.0472 5.57517 16.0284 5.56982 16.0092 5.56982C15.9901 5.56982 15.9713 5.57517 15.955 5.58527C15.9387 5.59537 15.9256 5.60981 15.9171 5.62697L11.1642 14.027C11.1503 14.0519 11.1431 14.0799 11.1431 14.1084C11.1431 14.1369 11.1503 14.1649 11.1642 14.1898L13.5214 18.347C13.5471 18.3984 13.5985 18.4284 13.6542 18.4284H18.3257C18.3814 18.4284 18.4242 18.3855 18.4285 18.3298C18.4285 18.3084 18.4285 18.287 18.4157 18.2655L16.5085 14.9913C16.5006 14.9761 16.4891 14.9631 16.475 14.9535C16.4608 14.9439 16.4445 14.938 16.4274 14.9363C16.4104 14.9346 16.3933 14.9371 16.3775 14.9437C16.3617 14.9504 16.3478 14.9608 16.3371 14.9741L14.2371 17.1255C14.2283 17.1355 14.216 17.1416 14.2028 17.1427C14.1951 17.1433 14.1874 17.1423 14.1802 17.1397C14.1729 17.1372 14.1662 17.1332 14.1606 17.128C14.155 17.1227 14.1505 17.1164 14.1474 17.1093C14.1444 17.1023 14.1428 17.0947 14.1428 17.087C14.1428 17.0784 14.1428 17.0698 14.1514 17.0613Z" fill="#F0F3FA"/>
</g>
<defs>
<clipPath id="clip0_31_12787">
<rect width="24" height="24" fill="white"/>
</clipPath>
</defs>
</svg>
