<svg xmlns="http://www.w3.org/2000/svg" width="24" height="24" fill="none" viewBox="0 0 24 24"><g clip-path="url(#a)"><path fill="#F0F3FA" d="M0 0h24v24H0z"/><path fill="#00934B" d="m6.347 9.266.043.017.395.175.432.193A5.04 5.04 0 0 1 9.63 7.238l-.193-.432-.274-.64c-.313-.62-.874-.41-1.071-.308A7 7 0 0 0 5.91 7.984l-.004.034c-.356.823.266 1.166.441 1.248"/><path fill="#22D511" d="m7.226 9.643.702.313.613.265.485.219a3.1 3.1 0 0 1 1.41-1.406l-.219-.488-.27-.609-.309-.707a5.07 5.07 0 0 0-2.412 2.413"/><path fill="#BEF000" d="m9.017 10.44 1.016.446.938.411a.343.343 0 0 0 .309-.33l-.412-.93-.44-1.011a3.15 3.15 0 0 0-1.41 1.414"/><path fill="#00934B" d="M19.119 10.5c-.326-.814-.995-.63-1.18-.557l-.05.021-.412.159-.441.171a5.08 5.08 0 0 1 0 3.425l.441.171.57.219c.66.278.939-.193 1.037-.442.253-1.024.27-2.1.035-3.171z"/><path fill="#22D511" d="m17.044 10.298-.716.275-.625.244-.493.193a3.1 3.1 0 0 1 0 1.993l.484.192.63.245.712.278a5.04 5.04 0 0 0 .008-3.42"/><path fill="#BEF000" d="m15.214 11.014-1.028.399-.956.377a.33.33 0 0 0-.056.351.5.5 0 0 0 .056.095l.956.368 1.028.399a3.13 3.13 0 0 0 0-1.993z"/><path fill="#00934B" d="m6.515 13.894.445-.176a5.04 5.04 0 0 1 0-3.42l-.445-.175-.58-.227c-.668-.27-.933.227-1.028.47a7 7 0 0 0-.034 3.117v.008c.326.836 1.007.643 1.192.579z"/><path fill="#22D511" d="m6.96 13.714.712-.274.621-.244.493-.193a3.07 3.07 0 0 1 0-1.993l-.493-.193-.621-.236-.712-.274a5 5 0 0 0 0 3.412z"/><path fill="#BEF000" d="m8.794 13.003 1.029-.399.947-.368a.334.334 0 0 0-.009-.455l-.943-.368-1.032-.403a3.13 3.13 0 0 0 .008 1.993"/><path fill="#00934B" d="m7.234 14.37-.433.193-.454.201s-.793.429-.429 1.248v.008a7 7 0 0 0 2.212 2.164c.227.107.797.292 1.084-.402l.24-.558.193-.428a5.13 5.13 0 0 1-2.413-2.426"/><path fill="#22D511" d="m10.234 15.472.21-.48a3.1 3.1 0 0 1-1.41-1.41l-.484.214-.613.266-.703.308a5.05 5.05 0 0 0 2.422 2.413l.308-.703.27-.613z"/><path fill="#BEF000" d="m10.445 14.983.44-1.016.412-.93a.34.34 0 0 0-.325-.317l-.93.412-1.016.441c.304.613.8 1.108 1.414 1.41z"/><path fill="#00934B" d="m16.775 9.651.437-.192.484-.215-.043.009c.176-.086.789-.42.446-1.226a6.9 6.9 0 0 0-2.28-2.211c-.635-.326-1.029.42-1.029.42l-.244.557-.193.437a5.04 5.04 0 0 1 2.422 2.421"/><path fill="#22D511" d="m13.774 8.537-.206.489c.614.304 1.11.8 1.415 1.414l.484-.21.613-.266.694-.313a5.07 5.07 0 0 0-2.421-2.421l-.309.707z"/><path fill="#BEF000" d="m13.569 9.026-.446 1.011-.412.947a.33.33 0 0 0 .215.288c.03.017.073.025.115.025l.935-.411 1.015-.446a3.23 3.23 0 0 0-1.422-1.414"/><path fill="#00934B" d="m13.886 17.486-.176-.442a5.03 5.03 0 0 1-3.416 0l-.176.442-.287.737s-.141.579.695.9a7 7 0 0 0 3.021-.009c.146-.042.84-.261.591-.99z"/><path fill="#22D511" d="m13.714 17.045-.274-.712-.24-.63-.193-.484a3.1 3.1 0 0 1-1.993 0l-.193.484-.244.63-.274.712a5.03 5.03 0 0 0 3.415 0z"/><path fill="#BEF000" d="m12.999 15.215-.403-1.03-.369-.942a.35.35 0 0 0-.36-.064c-.034.017-.068.034-.09.06l-.368.947-.403 1.028a3.08 3.08 0 0 0 1.993 0"/><path fill="#00934B" d="m10.11 6.518.172.446a5.1 5.1 0 0 1 3.42-.008l.175-.446.176-.45c.069-.184.257-.874-.579-1.192l-.017-.008a7.2 7.2 0 0 0-3.073.043c-.235.073-.788.343-.492 1.054l.214.561z"/><path fill="#22D511" d="m10.286 6.964.274.711.244.622.193.493a3.06 3.06 0 0 1 1.993 0l.193-.493.24-.622.278-.71a5.03 5.03 0 0 0-3.415 0"/><path fill="#BEF000" d="m10.997 8.79.403 1.029.377.964a.34.34 0 0 0 .442-.017l.368-.956.403-1.029a3.18 3.18 0 0 0-1.993.009"/><path fill="#00934B" d="m17.657 14.747-.051-.017-.394-.171-.437-.198a5.07 5.07 0 0 1-2.422 2.422l.193.437.244.553c.317.771.973.471 1.14.368a7 7 0 0 0 2.143-2.112l.017-.035c.36-.818-.257-1.161-.437-1.247z"/><path fill="#22D511" d="m16.774 14.361-.703-.308-.621-.27-.476-.21c-.3.61-.795 1.102-1.406 1.401l.206.476.27.621.309.703a5.02 5.02 0 0 0 2.421-2.413"/><path fill="#BEF000" d="m14.975 13.586-1.012-.446-.921-.403a.3.3 0 0 0-.112.026.33.33 0 0 0-.184.184.23.23 0 0 0-.026.107l.403.922.446 1.016c.61-.305 1.103-.8 1.406-1.41z"/></g><defs><clipPath id="a"><path fill="#fff" d="M0 0h24v24H0z"/></clipPath></defs></svg>