<svg width="24" height="24" viewBox="0 0 24 24" fill="none" xmlns="http://www.w3.org/2000/svg">
<g clip-path="url(#clip0_31_13346)">
<path d="M0 0H24V24H0V0Z" fill="#F0F3FA"/>
<path fill-rule="evenodd" clip-rule="evenodd" d="M12.0411 5.14307C11.7951 5.14307 11.5495 5.15635 11.3048 5.18335C7.84111 5.5485 5.14282 8.46192 5.14282 12.0015C5.14282 15.7879 8.23025 18.8578 12.0411 18.8574H12.0565C13.1539 18.8568 14.2353 18.5942 15.2108 18.0915C15.4894 17.9475 15.369 17.5292 15.0557 17.5382H15.0428C12.2841 17.6076 9.71139 16.4179 8.70254 14.2686C8.18482 13.1689 7.99454 12.2745 8.43297 10.8585C8.57739 10.2782 8.91982 9.73907 9.31882 9.3225C9.34922 9.28567 9.38216 9.25101 9.41739 9.21878C9.44011 9.19521 9.46411 9.17335 9.48939 9.15364C9.49876 9.14358 9.50863 9.13399 9.51897 9.12492C9.52797 9.11807 9.53439 9.11121 9.54382 9.10435C9.56158 9.0868 9.58111 9.07115 9.60211 9.05764C10.2823 8.50692 11.1253 8.14007 12.0021 8.14307C14.0597 8.14307 15.858 9.82307 15.858 11.7962C15.858 12.4742 15.5464 13.1869 15.1693 13.7526C16.8145 13.1882 17.9803 11.6162 17.9798 9.84407C17.9798 8.83564 17.5975 7.91292 16.9624 7.19892C16.6961 6.92744 16.4075 6.67872 16.0997 6.45535L16.0971 6.45321C14.9207 5.60118 13.5052 5.14264 12.0527 5.14307H12.0411Z" fill="url(#paint0_linear_31_13346)"/>
<path fill-rule="evenodd" clip-rule="evenodd" d="M17.9444 9.86058C17.9459 10.7004 17.6884 11.5203 17.207 12.2085C16.7256 12.8967 16.0437 13.4197 15.2542 13.7062C14.813 13.8666 14.3471 13.9481 13.8776 13.947C12.3682 13.947 11.0521 13.1212 10.3505 11.892C10.1791 11.5924 10.0445 11.0833 9.95321 10.6504C9.8675 10.2399 9.32921 10.1327 9.09221 10.479C8.73479 10.9954 8.7365 11.7707 8.79864 12.3643C8.79802 12.3704 8.79876 12.3765 8.80078 12.3823C8.82221 12.5979 8.86079 12.8109 8.9165 13.02C8.98336 13.2952 9.07636 13.5634 9.19336 13.8214C10.0514 15.7384 11.9842 16.9582 14.5162 16.7533C14.7665 16.7327 15.0039 16.656 15.2499 16.6059C17.3388 16.167 18.8444 14.28 18.8572 12.0583C18.8572 10.2754 18.1938 8.52258 16.9689 7.21973C17.5981 7.95583 17.944 8.89225 17.9444 9.86058Z" fill="url(#paint1_linear_31_13346)"/>
</g>
<defs>
<linearGradient id="paint0_linear_31_13346" x1="5.14668" y1="18.9139" x2="17.9837" y2="18.9139" gradientUnits="userSpaceOnUse">
<stop stop-color="#2D2D4B"/>
<stop offset="1" stop-color="#1D1D3A"/>
</linearGradient>
<linearGradient id="paint1_linear_31_13346" x1="8.77636" y1="16.7353" x2="18.8572" y2="16.7353" gradientUnits="userSpaceOnUse">
<stop stop-color="#858EB7"/>
<stop offset="1" stop-color="#705E94"/>
</linearGradient>
<clipPath id="clip0_31_13346">
<rect width="24" height="24" fill="white"/>
</clipPath>
</defs>
</svg>
