<svg xmlns="http://www.w3.org/2000/svg" width="24" height="24" fill="none" viewBox="0 0 24 24"><g clip-path="url(#a)"><path fill="#F0F3FA" d="M0 0h24v24H0z"/><path fill="#F2E373" d="M12 18.857a6.857 6.857 0 1 0 0-13.714 6.857 6.857 0 0 0 0 13.714"/><path fill="url(#b)" d="M14.143 3.429c-.575.857-1.684 1.453-2.452 1.718a6.857 6.857 0 0 0-6.462 7.937c.617 1.886 1.898 3.172 3.664 3.27 1.843.108 3.638-.552 4.478-2.58.678-1.628 1.869-2.104 2.379-2.202h3.964l-.964-.686c-1.427-1.222-3.634-1.084-4.217-.579a3.17 3.17 0 0 1-1.792.755c-2.19 0-2.383-1.659-2.383-2.049V8.97c-.004-.446-.012-1.727 2.045-2.417.629-.18 1.17-.586 1.517-1.14h-.004c.437-.677.342-1.629.227-1.984"/><path fill="url(#c)" d="M17.606 15.951a6.857 6.857 0 0 1-12.352-2.73c.416 1.217 1.65 3.176 3.952 3.133 2.498-.043 3.737-1.603 4.071-2.468.339-.858 1.179-2.006 2.464-2.315-.527.326-1.487 1.222-1.388 2.315.116 1.332 1.191 2.215 3.253 2.065"/></g><defs><linearGradient id="b" x1="8.229" x2="15.3" y1="5.512" y2="12.682" gradientUnits="userSpaceOnUse"><stop stop-color="#F5C859"/><stop offset="1" stop-color="#DE3633"/></linearGradient><linearGradient id="c" x1="9.591" x2="12.021" y1="14.648" y2="18.896" gradientUnits="userSpaceOnUse"><stop stop-color="#F3BE56"/><stop offset="1" stop-color="#E04437"/></linearGradient><clipPath id="a"><path fill="#fff" d="M0 0h24v24H0z"/></clipPath></defs></svg>