<svg xmlns="http://www.w3.org/2000/svg" width="24" height="24" fill="none" viewBox="0 0 24 24"><g clip-path="url(#a)"><path fill="#77D563" d="M0 0h24v24H0z"/><path fill="#fff" d="M10.607 4.809c-2.301.458-2.297 1.29-2.293 2.271v.12l.806-.154c-.064-.429.163-1.226 1.586-1.5 1.397-.274 1.809.403 1.856.857l.771-.146c.017-.668-.51-1.89-2.726-1.448M7.05 13.766l-1.757 1.77-.823-4.414zM5.53 16.83l-.116-.63 2.027-2.035 3.532 3.62-3.18.61a1.937 1.937 0 0 1-2.263-1.565m10.491-.004-4.393.831-.793-.814 2.632-2.64 2.554 2.614zm2.117-.403-1.461.279-2.82-2.889 2.679-2.687 3.18 3.317a1.955 1.955 0 0 1-1.578 1.972zm.579-7.483.844 4.543-2.631-2.751zm-.244-1.32.12.656-2.049 2.057-2.584-2.709 1.397-1.405.857-.163a1.937 1.937 0 0 1 2.259 1.564m-10.629.03 6.544-1.243-3.921 3.93L7.847 7.65zm-1.98.382 1.329-.258 2.884 2.958-2.632 2.64-3.15-3.223a1.96 1.96 0 0 1 1.57-2.117m7.702-.013 2.588 2.704-2.683 2.691-2.614-2.678zm-2.208 5.695a.857.857 0 1 1-1.715 0 .857.857 0 0 1 1.715 0"/></g><defs><clipPath id="a"><path fill="#fff" d="M0 0h24v24H0z"/></clipPath></defs></svg>