<svg xmlns="http://www.w3.org/2000/svg" width="24" height="24" fill="none" viewBox="0 0 24 24"><g clip-path="url(#a)"><path fill="url(#b)" d="M0 0h24v24H0z"/><path fill="#fff" fill-rule="evenodd" d="M8.786 9.429a1.071 1.071 0 1 0 0-2.143 1.071 1.071 0 0 0 0 2.143m0 3.428a1.072 1.072 0 1 0 0-2.143 1.072 1.072 0 0 0 0 2.143m7.5-1.071a1.072 1.072 0 1 1-2.144 0 1.072 1.072 0 0 1 2.144 0m-9.215-.643a1.072 1.072 0 1 0 0-2.143 1.072 1.072 0 0 0 0 2.143m7.5-1.072a1.072 1.072 0 1 1-2.143 0 1.072 1.072 0 0 1 2.143 0M10.5 11.143A1.071 1.071 0 1 0 10.5 9a1.071 1.071 0 0 0 0 2.143M18 10.07a1.072 1.072 0 1 1-2.144 0 1.072 1.072 0 0 1 2.144 0m-2.786-.643a1.071 1.071 0 1 0 0-2.142 1.071 1.071 0 0 0 0 2.143M12.857 12a.857.857 0 1 1-1.714 0 .857.857 0 0 1 1.714 0m-2.571 2.571a.857.857 0 1 0 0-1.714.857.857 0 0 0 0 1.714m9-2.571a.857.857 0 1 1-1.715 0 .857.857 0 0 1 1.715 0m-2.143 2.571a.857.857 0 1 0 0-1.713.857.857 0 0 0 0 1.713M6.428 12a.857.857 0 1 1-1.713 0 .857.857 0 0 1 1.713 0m-2.571 1.714a.428.428 0 1 0 0-.857.428.428 0 0 0 0 .857M6 15a.429.429 0 1 1-.857 0A.429.429 0 0 1 6 15m6 .428a.429.429 0 1 0 0-.857.429.429 0 0 0 0 .857M18.857 15A.429.429 0 1 1 18 15a.429.429 0 0 1 .857 0m1.286-1.286a.428.428 0 1 0 0-.857.428.428 0 0 0 0 .857m-12.215 0a.857.857 0 1 1-1.714 0 .857.857 0 0 1 1.714 0m5.572.857a.857.857 0 1 0 0-1.714.857.857 0 0 0 0 1.714" clip-rule="evenodd"/></g><defs><linearGradient id="b" x1="4.465" x2="29.206" y1="4.162" y2="32.579" gradientUnits="userSpaceOnUse"><stop stop-color="#1A1E21"/><stop offset="1" stop-color="#06060A"/></linearGradient><clipPath id="a"><path fill="#fff" d="M0 0h24v24H0z"/></clipPath></defs></svg>