<svg width="24" height="24" viewBox="0 0 24 24" fill="none" xmlns="http://www.w3.org/2000/svg">
<g clip-path="url(#clip0_31_13827)">
<path d="M0 0H24V24H0V0Z" fill="#F0F3FA"/>
<path d="M12.0001 18.4286C13.705 18.4286 15.3402 17.7513 16.5458 16.5458C17.7513 15.3402 18.4286 13.705 18.4286 12.0001C18.4286 10.2951 17.7513 8.65997 16.5458 7.45438C15.3402 6.24879 13.705 5.5715 12.0001 5.5715C10.2951 5.5715 8.65997 6.24879 7.45438 7.45438C6.24879 8.65997 5.5715 10.2951 5.5715 12.0001C5.5715 13.705 6.24879 15.3402 7.45438 16.5458C8.65997 17.7513 10.2951 18.4286 12.0001 18.4286ZM12.0001 19.2858C13.9324 19.2858 15.7855 18.5182 17.1518 17.1518C18.5182 15.7855 19.2858 13.9324 19.2858 12.0001C19.2858 10.0678 18.5182 8.21463 17.1518 6.84829C15.7855 5.48196 13.9324 4.71436 12.0001 4.71436C10.0678 4.71436 8.21463 5.48196 6.84829 6.84829C5.48196 8.21463 4.71436 10.0678 4.71436 12.0001C4.71436 13.9324 5.48196 15.7855 6.84829 17.1518C8.21463 18.5182 10.0678 19.2858 12.0001 19.2858Z" fill="#CEEBFF"/>
<path d="M11.9999 18.4284C15.5503 18.4284 18.4284 15.5503 18.4284 11.9999C18.4284 8.44946 15.5503 5.57129 11.9999 5.57129C8.44946 5.57129 5.57129 8.44946 5.57129 11.9999C5.57129 15.5503 8.44946 18.4284 11.9999 18.4284Z" fill="#91C5FF"/>
<path d="M11.9999 13.714C14.2756 13.714 16.2942 12.5998 17.5414 10.894C17.4985 11.3955 17.3914 11.8798 17.2414 12.334L16.7142 12.8569L17.0742 12.7669C16.9928 12.9598 16.9028 13.144 16.8042 13.324L16.2856 13.714L16.6285 13.6283C16.1479 14.4295 15.4703 15.0942 14.6601 15.5593C13.8499 16.0245 12.9341 16.2744 11.9999 16.2855C10.0714 16.2855 8.37421 15.2312 7.37135 13.6283L7.71421 13.714L7.19564 13.3283C7.09278 13.1355 6.99421 12.934 6.91278 12.7283L7.28564 12.8569L6.76278 12.334C6.6085 11.8755 6.50564 11.3912 6.4585 10.894C7.09417 11.768 7.92763 12.479 8.89074 12.9692C9.85385 13.4593 10.9193 13.7145 11.9999 13.714Z" fill="url(#paint0_linear_31_13827)"/>
<path d="M16.0716 12.2013C16.0716 13.2811 15.6426 14.3167 14.8791 15.0802C14.1155 15.8438 13.0799 16.2727 12.0001 16.2727C10.9203 16.2727 9.88475 15.8438 9.12121 15.0802C8.35766 14.3167 7.92871 13.2811 7.92871 12.2013C7.92871 11.1215 8.35766 10.0859 9.12121 9.32238C9.88475 8.55884 10.9203 8.12988 12.0001 8.12988C13.0799 8.12988 14.1155 8.55884 14.8791 9.32238C15.6426 10.0859 16.0716 11.1215 16.0716 12.2013Z" fill="url(#paint1_linear_31_13827)"/>
<path d="M15.7455 13.9287C15.3317 14.5254 14.7795 15.013 14.1361 15.3498C13.4928 15.6865 12.7774 15.8625 12.0512 15.8625C11.3251 15.8625 10.6097 15.6865 9.96633 15.3498C9.32297 15.013 8.77076 14.5254 8.35693 13.9287C8.68343 14.6335 9.20474 15.2302 9.85932 15.6484C10.5139 16.0666 11.2745 16.2888 12.0512 16.2888C12.828 16.2888 13.5885 16.0666 14.2431 15.6484C14.8977 15.2302 15.419 14.6335 15.7455 13.9287Z" fill="url(#paint2_linear_31_13827)"/>
<path d="M15.6429 11.5585C15.6429 12.0132 15.4623 12.4492 15.1408 12.7707C14.8193 13.0922 14.3833 13.2728 13.9286 13.2728C13.474 13.2728 13.0379 13.0922 12.7165 12.7707C12.395 12.4492 12.2144 12.0132 12.2144 11.5585C12.2144 11.1039 12.395 10.6678 12.7165 10.3463C13.0379 10.0249 13.474 9.84424 13.9286 9.84424C14.3833 9.84424 14.8193 10.0249 15.1408 10.3463C15.4623 10.6678 15.6429 11.1039 15.6429 11.5585Z" fill="#FDFFFF"/>
<path d="M11.5713 13.0716L11.9999 12.4287L12.4284 13.0716L11.9999 13.7144L11.5713 13.0716Z" fill="url(#paint3_linear_31_13827)"/>
<path d="M14.143 11.7859C14.143 12.0132 14.0527 12.2312 13.8919 12.3919C13.7312 12.5527 13.5132 12.643 13.2859 12.643C13.0585 12.643 12.8405 12.5527 12.6798 12.3919C12.519 12.2312 12.4287 12.0132 12.4287 11.7859C12.4287 11.5585 12.519 11.3405 12.6798 11.1798C12.8405 11.019 13.0585 10.9287 13.2859 10.9287C13.5132 10.9287 13.7312 11.019 13.8919 11.1798C14.0527 11.3405 14.143 11.5585 14.143 11.7859Z" fill="#1474B0"/>
<path d="M13.9288 11.7859C13.9288 11.9564 13.8611 12.1199 13.7405 12.2405C13.6199 12.3611 13.4564 12.4288 13.2859 12.4288C13.1154 12.4288 12.9519 12.3611 12.8314 12.2405C12.7108 12.1199 12.6431 11.9564 12.6431 11.7859C12.6431 11.6154 12.7108 11.4519 12.8314 11.3314C12.9519 11.2108 13.1154 11.1431 13.2859 11.1431C13.4564 11.1431 13.6199 11.2108 13.7405 11.3314C13.8611 11.4519 13.9288 11.6154 13.9288 11.7859Z" fill="#0C192A"/>
<path d="M13.7142 11.3574C13.7142 11.4142 13.6916 11.4687 13.6515 11.5089C13.6113 11.5491 13.5568 11.5716 13.4999 11.5716C13.4431 11.5716 13.3886 11.5491 13.3484 11.5089C13.3082 11.4687 13.2856 11.4142 13.2856 11.3574C13.2856 11.3005 13.3082 11.246 13.3484 11.2058C13.3886 11.1656 13.4431 11.1431 13.4999 11.1431C13.5568 11.1431 13.6113 11.1656 13.6515 11.2058C13.6916 11.246 13.7142 11.3005 13.7142 11.3574Z" fill="#FEFFFF"/>
<path d="M8.35693 11.5712C8.35693 12.0259 8.53755 12.4619 8.85904 12.7834C9.18053 13.1049 9.61656 13.2855 10.0712 13.2855C10.5259 13.2855 10.9619 13.1049 11.2834 12.7834C11.6049 12.4619 11.7855 12.0259 11.7855 11.5712C11.7855 11.1166 11.6049 10.6805 11.2834 10.359C10.9619 10.0375 10.5259 9.85693 10.0712 9.85693C9.61656 9.85693 9.18053 10.0375 8.85904 10.359C8.53755 10.6805 8.35693 11.1166 8.35693 11.5712Z" fill="#FDFFFF"/>
<path d="M9.85693 11.7985C9.85693 12.0259 9.94724 12.2439 10.108 12.4046C10.2687 12.5654 10.4867 12.6557 10.7141 12.6557C10.9414 12.6557 11.1594 12.5654 11.3202 12.4046C11.4809 12.2439 11.5712 12.0259 11.5712 11.7985C11.5712 11.5712 11.4809 11.3532 11.3202 11.1925C11.1594 11.0317 10.9414 10.9414 10.7141 10.9414C10.4867 10.9414 10.2687 11.0317 10.108 11.1925C9.94724 11.3532 9.85693 11.5712 9.85693 11.7985Z" fill="#1474B0"/>
<path d="M10.0713 11.7986C10.0713 11.883 10.0879 11.9666 10.1202 12.0446C10.1525 12.1226 10.1999 12.1935 10.2596 12.2532C10.3193 12.3129 10.3901 12.3602 10.4681 12.3925C10.5461 12.4248 10.6297 12.4415 10.7141 12.4415C10.7986 12.4415 10.8822 12.4248 10.9602 12.3925C11.0382 12.3602 11.109 12.3129 11.1687 12.2532C11.2284 12.1935 11.2758 12.1226 11.3081 12.0446C11.3404 11.9666 11.357 11.883 11.357 11.7986C11.357 11.6281 11.2893 11.4646 11.1687 11.344C11.0482 11.2235 10.8846 11.1558 10.7141 11.1558C10.5436 11.1558 10.3801 11.2235 10.2596 11.344C10.139 11.4646 10.0713 11.6281 10.0713 11.7986Z" fill="#0C192A"/>
<path d="M10.2856 11.3574C10.2856 11.4142 10.3082 11.4687 10.3484 11.5089C10.3886 11.5491 10.4431 11.5716 10.4999 11.5716C10.5568 11.5716 10.6113 11.5491 10.6515 11.5089C10.6916 11.4687 10.7142 11.4142 10.7142 11.3574C10.7142 11.3005 10.6916 11.246 10.6515 11.2058C10.6113 11.1656 10.5568 11.1431 10.4999 11.1431C10.4431 11.1431 10.3886 11.1656 10.3484 11.2058C10.3082 11.246 10.2856 11.3005 10.2856 11.3574Z" fill="#FEFFFF"/>
</g>
<defs>
<linearGradient id="paint0_linear_31_13827" x1="17.3571" y1="12.4283" x2="6.85707" y2="12.4283" gradientUnits="userSpaceOnUse">
<stop stop-color="#68AFE7"/>
<stop offset="0.07" stop-color="#106EBE"/>
<stop offset="0.16" stop-color="#0A3256"/>
<stop offset="0.81" stop-color="#083459"/>
<stop offset="0.91" stop-color="#1879CA"/>
<stop offset="1" stop-color="#67AEE6"/>
</linearGradient>
<linearGradient id="paint1_linear_31_13827" x1="11.7859" y1="8.14274" x2="11.7859" y2="16.2856" gradientUnits="userSpaceOnUse">
<stop stop-color="#06111D"/>
<stop offset="1" stop-color="#154983"/>
</linearGradient>
<linearGradient id="paint2_linear_31_13827" x1="8.40836" y1="14.1473" x2="15.6941" y2="14.1473" gradientUnits="userSpaceOnUse">
<stop stop-color="#083A5E"/>
<stop offset="0.09" stop-color="#699AC3"/>
<stop offset="0.29" stop-color="#FFFDFF"/>
<stop offset="0.85" stop-color="#FDFDFD"/>
<stop offset="0.94" stop-color="#4197DE"/>
<stop offset="1" stop-color="#114873"/>
</linearGradient>
<linearGradient id="paint3_linear_31_13827" x1="11.9999" y1="12.4287" x2="11.9999" y2="13.7144" gradientUnits="userSpaceOnUse">
<stop stop-color="#C7C4BD"/>
<stop offset="1" stop-color="#ADA9AA"/>
</linearGradient>
<clipPath id="clip0_31_13827">
<rect width="24" height="24" fill="white"/>
</clipPath>
</defs>
</svg>
