<svg xmlns="http://www.w3.org/2000/svg" width="24" height="24" fill="none" viewBox="0 0 24 24"><g clip-path="url(#a)"><path fill="url(#b)" d="M0 0h24v24H0z"/><path fill="#fff" d="M13.286 6.857c-.712 0-1.286.591-1.286 1.32V12H9.429V9.433a.857.857 0 1 0-1.715 0V12H5.571v-.857a.857.857 0 1 0-1.714 0V12h1.714v1.384c0 .656.48 1.187 1.072 1.187.591 0 1.071-.531 1.071-1.187V12H9.43V15.8a1.316 1.316 0 0 0 1.285 1.342c.712 0 1.286-.6 1.286-1.342V12h2.572v3.013c0 .467.385.844.857.844a.85.85 0 0 0 .857-.844V12H18v.857a.857.857 0 1 0 1.714 0V12H18V9.308c0-.407-.386-.737-.857-.737s-.857.33-.857.737V12H14.57V8.177c0-.729-.574-1.32-1.285-1.32"/></g><defs><linearGradient id="b" x1="12" x2="12" y1="0" y2="24" gradientUnits="userSpaceOnUse"><stop offset=".24" stop-color="#6F4AEF"/><stop offset=".66" stop-color="#01CBBF"/></linearGradient><clipPath id="a"><path fill="#fff" d="M0 0h24v24H0z"/></clipPath></defs></svg>