<svg xmlns="http://www.w3.org/2000/svg" width="24" height="24" fill="none" viewBox="0 0 24 24"><g clip-path="url(#a)"><path fill="url(#b)" d="M0 0h24v24H0z"/><path fill="#fff" d="m12.707 7.492.351-2.268A7 7 0 0 0 12 5.144h-.004v4.628H12q.294 0 .574.072l.6-2.254a4 4 0 0 0-.467-.098m-1.821 2.58L9.729 8.087a4 4 0 0 0-.39.257L7.963 6.46a6.5 6.5 0 0 1 .913-.566l1.05 2.044c.214-.107.428-.201.655-.274L9.87 5.477q.513-.165 1.046-.248l.368 2.305a4 4 0 0 0-.463.1l.6 2.215a2 2 0 0 0-.535.223M5.884 8.893l2.083 1.059a4.6 4.6 0 0 0-.274.655l-2.22-.72q.167-.514.411-.994m10.029.836-1.985 1.157q.148.25.223.531l2.216-.6q.065.232.099.463l2.305-.364a7 7 0 0 0-.253-1.05l-2.185.716a4 4 0 0 0-.27-.66l2.04-1.05a7 7 0 0 0-.562-.913l-1.885 1.376q.141.19.257.394m-1.805-4.256c.343.112.678.249.995.411l-1.059 2.08a4.5 4.5 0 0 0-.651-.27zm.168 2.571-1.166 2.023q.257.146.463.356l3.265-3.278a6.6 6.6 0 0 0-.814-.7l-1.35 1.86a4 4 0 0 0-.398-.256zm-4.209 2.846L8.044 9.725q.125-.206.262-.4l-1.86-1.35c.214-.29.445-.565.698-.813l3.279 3.265a2.2 2.2 0 0 0-.356.463m-2.477-.064 2.254.6a2.3 2.3 0 0 0-.073.574H5.143c0-.355.026-.716.086-1.063l2.262.352c.026-.155.06-.313.099-.463m8.443 3.223 2.083 1.058q.244-.483.411-.994l-2.22-.72a4.6 4.6 0 0 1-.274.656m-2.915-.12 1.15 1.984a3.5 3.5 0 0 0 .393-.257l1.376 1.886a6.5 6.5 0 0 1-.913.565l-1.05-2.044a4.5 4.5 0 0 1-.66.274l.716 2.186a7 7 0 0 1-1.05.249l-.364-2.306q.23-.033.463-.099l-.6-2.215q.283-.077.535-.223zm-5.03.343 1.983-1.158a2 2 0 0 1-.222-.53l-2.216.6a4 4 0 0 1-.099-.464l-2.305.364q.084.535.252 1.05l2.186-.715q.11.339.27.66l-2.04 1.05c.163.317.352.626.562.913l1.885-1.376a4 4 0 0 1-.257-.394m1.803 4.255a7 7 0 0 1-.994-.411l1.054-2.079q.322.162.656.27zm-.167-2.571 1.166-2.023a2.2 2.2 0 0 1-.463-.351L7.161 16.86c.253.249.528.485.815.695l1.35-1.856q.192.135.398.257m4.209-2.846 2.018 1.166a4 4 0 0 1-.257.403l1.856 1.345q-.316.438-.694.82l-3.279-3.27q.207-.206.356-.464m-2.507 1.046-.6 2.254c.154.043.308.073.467.099l-.352 2.267q.524.083 1.059.081h.004V14.23H12q-.29-.001-.574-.073m2.73-1.582a2.3 2.3 0 0 0 .072-.574h4.63c0 .356-.027.716-.087 1.063l-2.262-.351c-.026.154-.06.313-.099.463z"/></g><defs><linearGradient id="b" x1="4.466" x2="29.207" y1="4.161" y2="32.58" gradientUnits="userSpaceOnUse"><stop stop-color="#1A1E21"/><stop offset="1" stop-color="#06060A"/></linearGradient><clipPath id="a"><path fill="#fff" d="M0 0h24v24H0z"/></clipPath></defs></svg>