<svg width="24" height="24" viewBox="0 0 24 24" fill="none" xmlns="http://www.w3.org/2000/svg">
<g clip-path="url(#clip0_31_14258)">
<path d="M0 0H24V24H0V0Z" fill="#F0F3FA"/>
<path d="M13.7786 5.35707C14.1214 5.4685 14.5971 5.57564 14.9229 5.73422C15.9202 6.19845 16.7906 6.89682 17.46 7.76988C18.1293 8.64293 18.5778 9.66481 18.7671 10.7485C19.0243 12.3856 18.7329 13.9199 17.8971 15.3471C17.8828 15.3719 17.8622 15.3925 17.8374 15.4068C17.8125 15.4211 17.7844 15.4286 17.7557 15.4285H15.9214L15.9043 15.4199C15.8991 15.416 15.8952 15.4107 15.8929 15.4046C15.8906 15.3986 15.8901 15.392 15.8914 15.3856C16.4391 14.7972 16.8419 14.0891 17.0679 13.3176C17.2939 12.5461 17.3368 11.7326 17.1932 10.9416C17.0497 10.1507 16.7236 9.40412 16.241 8.76127C15.7583 8.11842 15.1324 7.59702 14.4129 7.2385C13.677 6.86427 12.8641 6.6662 12.0386 6.65993C12.0283 6.65993 12.0185 6.65587 12.0113 6.64863C12.0041 6.6414 12 6.63159 12 6.62136V4.4785C12 4.34993 12.0643 4.28564 12.1929 4.28564H13.5C13.65 4.28564 13.7143 4.3585 13.7143 4.50422V5.27564C13.7143 5.31422 13.74 5.33993 13.7786 5.35279V5.35707ZM10.2129 18.6299C9.88714 18.5099 9.41143 18.4071 9.09857 18.2571C8.23921 17.8556 7.4725 17.2801 6.8469 16.5672C6.22131 15.8542 5.75044 15.0192 5.46405 14.1149C5.17767 13.2106 5.08201 12.2568 5.18311 11.3137C5.28421 10.3705 5.57988 9.45866 6.05143 8.63564C6.06272 8.61609 6.07896 8.59985 6.09852 8.58856C6.11808 8.57728 6.14027 8.57134 6.16285 8.57136H7.98C7.98747 8.57226 7.99457 8.57511 8.00059 8.57962C8.0066 8.58414 8.01133 8.59015 8.01428 8.59707C8.01791 8.60383 8.01944 8.61152 8.01868 8.61916C8.01792 8.62679 8.01489 8.63402 8.01 8.63993C7.22054 9.55229 6.7709 10.7096 6.73731 11.9156C6.70372 13.1217 7.08826 14.3022 7.82571 15.2571C8.3094 15.8852 8.92779 16.3968 9.63537 16.7543C10.3429 17.1118 11.1217 17.3061 11.9143 17.3228C11.9486 17.3228 12 17.3528 12 17.3914V19.5514C12 19.5942 11.9614 19.6371 11.9314 19.6671C11.9002 19.6968 11.8588 19.7136 11.8157 19.7142H10.4957C10.3457 19.7142 10.2814 19.6414 10.2857 19.4914V18.7199C10.2857 18.6814 10.2429 18.6428 10.2129 18.6342V18.6299Z" fill="#1C1C1B"/>
<path fill-rule="evenodd" clip-rule="evenodd" d="M15.5487 12.8572L14.863 12.7757V12.7672L14.8715 12.7414L14.8844 12.7329L15.613 12.6729C15.6395 12.6706 15.6647 12.6603 15.6853 12.6435C15.7059 12.6267 15.721 12.6041 15.7287 12.5786C15.913 12.0557 16.0415 11.4129 15.943 10.8729C15.8959 10.5808 15.7852 10.3026 15.6185 10.0582C15.4519 9.81377 15.2334 9.60905 14.9787 9.45859C14.6703 9.2809 14.3204 9.18773 13.9645 9.18848C13.6086 9.18923 13.2592 9.28388 12.9515 9.46288C12.6485 9.64326 12.3976 9.89926 12.2233 10.2058C12.049 10.5123 11.9573 10.8588 11.9572 11.2114C11.9581 11.6861 11.7891 12.1454 11.4809 12.5063C11.1727 12.8673 10.7455 13.1061 10.2766 13.1796C9.80767 13.253 9.32793 13.1564 8.92405 12.9071C8.52017 12.6577 8.2188 12.2722 8.07438 11.82C8.06089 11.7764 8.04515 11.7335 8.02724 11.6914C7.97153 11.5757 7.95867 11.58 7.98438 11.7086C8.13344 12.773 8.68769 13.7387 9.53153 14.4043C9.53804 14.4176 9.54099 14.4324 9.5401 14.4472L9.42867 15.4072C9.41153 15.5529 9.47153 15.6386 9.61724 15.6643C9.91724 15.72 10.2472 15.7586 10.603 15.7929C10.8815 15.81 10.8901 15.4972 10.8944 15.2829V15.2014C10.903 15.1072 10.9501 15.0729 11.0444 15.0943L11.1215 15.1157C11.1901 15.1329 11.2287 15.1757 11.2287 15.2486V15.3514C11.2201 15.54 11.2115 15.7843 11.4558 15.7886H12.5101C12.5347 15.7886 12.559 15.7837 12.5816 15.7742C12.6043 15.7646 12.6248 15.7507 12.6419 15.7331C12.6591 15.7155 12.6726 15.6947 12.6816 15.6719C12.6906 15.649 12.695 15.6246 12.6944 15.6V15.2572C12.6944 15.18 12.7372 15.1329 12.8058 15.12L12.9472 15.09C13.0115 15.0814 13.0501 15.1072 13.063 15.1672L13.1701 15.66C13.1751 15.684 13.1849 15.7067 13.199 15.7268C13.2131 15.7468 13.2311 15.7638 13.252 15.7766C13.2728 15.7894 13.2961 15.7979 13.3203 15.8014C13.3446 15.805 13.3693 15.8035 13.393 15.7972L14.443 15.5057C14.4883 15.4927 14.5269 15.4627 14.5508 15.4221C14.5747 15.3814 14.5821 15.3331 14.5715 15.2872L14.3787 14.4857C14.3726 14.4625 14.3734 14.4379 14.381 14.4151C14.3886 14.3923 14.4027 14.3721 14.4215 14.3572C14.9278 13.9776 15.3303 13.4764 15.5915 12.9C15.5918 12.8923 15.5899 12.8846 15.5862 12.8778C15.5824 12.871 15.5768 12.8653 15.5701 12.8614C15.5634 12.8582 15.5561 12.8567 15.5487 12.8572ZM14.563 11.7857C14.6791 11.6675 14.7578 11.5176 14.7893 11.3549C14.8209 11.1922 14.8038 11.0238 14.7403 10.8707C14.6768 10.7176 14.5696 10.5866 14.4321 10.494C14.2947 10.4014 14.133 10.3513 13.9672 10.35C13.8568 10.35 13.7474 10.3719 13.6454 10.4144C13.5435 10.457 13.451 10.5193 13.3732 10.5978C13.2955 10.6763 13.2342 10.7695 13.1927 10.8719C13.1512 10.9742 13.1304 11.0838 13.1315 11.1943C13.1326 11.416 13.2209 11.6284 13.3773 11.7855C13.5336 11.9427 13.7456 12.0321 13.9672 12.0343C14.1901 12.0343 14.4044 11.9486 14.563 11.79V11.7857Z" fill="#007295"/>
<path d="M14.0315 11.6271C14.2801 11.5885 14.4515 11.37 14.4172 11.1343C14.4078 11.0767 14.3872 11.0217 14.3565 10.9722C14.3257 10.9227 14.2855 10.8798 14.2381 10.8459C14.1907 10.812 14.137 10.7879 14.0802 10.7749C14.0234 10.7618 13.9646 10.7602 13.9072 10.77C13.6629 10.8085 13.4872 11.0271 13.5215 11.2671C13.56 11.5028 13.7872 11.6614 14.0358 11.6271H14.0315ZM9.96434 11.4643C10.11 11.4643 10.2301 11.3443 10.2301 11.1943C10.2301 11.1234 10.2022 11.0553 10.1525 11.0048C10.1028 10.9543 10.0352 10.9254 9.96434 10.9243C9.89273 10.9243 9.82405 10.9527 9.77342 11.0033C9.72278 11.054 9.69434 11.1226 9.69434 11.1943C9.69434 11.3443 9.81434 11.4643 9.96434 11.4643Z" fill="#1C1C1B"/>
</g>
<defs>
<clipPath id="clip0_31_14258">
<rect width="24" height="24" fill="white"/>
</clipPath>
</defs>
</svg>
