<svg width="24" height="24" viewBox="0 0 24 24" fill="none" xmlns="http://www.w3.org/2000/svg">
<g clip-path="url(#clip0_31_14505)">
<path d="M0 0H24V24H0V0Z" fill="url(#paint0_linear_31_14505)"/>
<path d="M15.8571 4.71436C15.6883 4.71436 15.5211 4.74761 15.3651 4.81222C15.2091 4.87684 15.0674 4.97154 14.948 5.09093C14.8286 5.21032 14.7339 5.35206 14.6693 5.50805C14.6047 5.66404 14.5714 5.83123 14.5714 6.00007C14.5714 6.16891 14.6047 6.3361 14.6693 6.49209C14.7339 6.64808 14.8286 6.78982 14.948 6.90921C15.0674 7.0286 15.2091 7.1233 15.3651 7.18792C15.5211 7.25253 15.6883 7.28578 15.8571 7.28578C16.026 7.28578 16.1931 7.25253 16.3491 7.18792C16.5051 7.1233 16.6469 7.0286 16.7662 6.90921C16.8856 6.78982 16.9803 6.64808 17.045 6.49209C17.1096 6.3361 17.1428 6.16891 17.1428 6.00007C17.1428 5.83123 17.1096 5.66404 17.045 5.50805C16.9803 5.35206 16.8856 5.21032 16.7662 5.09093C16.6469 4.97154 16.5051 4.87684 16.3491 4.81222C16.1931 4.74761 16.026 4.71436 15.8571 4.71436ZM6.76282 10.5001C6.76282 9.91293 9.10711 9.42864 12 9.42864C14.8928 9.42864 17.2371 9.91293 17.2371 10.5001C17.2371 11.0915 14.6143 11.5715 12 11.5715C9.37711 11.5715 6.76282 11.1001 6.76282 10.5001ZM5.14282 10.7144C5.14282 10.7144 5.14282 12.4286 12 12.4286C18.8571 12.4286 18.8571 10.7144 18.8571 10.7144C18.8571 12.4715 17.2371 16.1744 16.2343 16.8086C15.72 17.1344 15.57 16.5601 15.4114 15.9386C15.2614 15.3558 15.0985 14.7344 14.6143 14.7644C14.1171 14.7986 13.7143 15.8058 13.3114 16.8172C12.9043 17.8372 12.4971 18.8572 12 18.8572C11.5028 18.8572 11.1 17.8286 10.6971 16.8086C10.2857 15.7715 9.88282 14.7386 9.37711 14.7686C8.90139 14.8029 8.73425 15.4115 8.58854 15.9772C8.42568 16.5901 8.27997 17.1472 7.75711 16.8129C6.76711 16.1786 5.14282 12.4801 5.14282 10.7144Z" fill="white"/>
</g>
<defs>
<linearGradient id="paint0_linear_31_14505" x1="19.7529" y1="2.68714" x2="4.56" y2="21.2143" gradientUnits="userSpaceOnUse">
<stop stop-color="#3AFCE7"/>
<stop offset="1" stop-color="#FC5CDD"/>
</linearGradient>
<clipPath id="clip0_31_14505">
<rect width="24" height="24" fill="white"/>
</clipPath>
</defs>
</svg>
