<svg xmlns="http://www.w3.org/2000/svg" width="24" height="24" fill="none" viewBox="0 0 24 24"><g clip-path="url(#a)"><path fill="#F0F3FA" d="M0 0h24v24H0z"/><path fill="#1977F3" d="M7.659 7.414a1.911 1.911 0 0 1 3.347 0l5.258 9.3H5.85c-1.53 0-2.486-1.693-1.723-3.047z"/><path fill="#002F81" d="M16.342 7.414a1.911 1.911 0 0 0-3.348 0l-3.728 6.6c-.682 1.2.167 2.7 1.521 2.7h7.363c1.53 0 2.486-1.693 1.723-3.047z"/><path fill="url(#b)" d="M10.787 16.714h5.477L12 9.171l-2.739 4.843c-.677 1.2.172 2.7 1.526 2.7"/></g><defs><linearGradient id="b" x1="9.313" x2="17.597" y1="15.171" y2="15.171" gradientUnits="userSpaceOnUse"><stop offset=".12" stop-color="#1C6AD9"/><stop offset=".76" stop-color="#1C6AD9" stop-opacity="0"/></linearGradient><clipPath id="a"><path fill="#fff" d="M0 0h24v24H0z"/></clipPath></defs></svg>