<svg xmlns="http://www.w3.org/2000/svg" width="24" height="24" fill="none" viewBox="0 0 24 24"><g clip-path="url(#a)"><path fill="url(#b)" d="M0 0h24v24H0z"/><path fill="url(#c)" d="M12 18.947A6.964 6.964 0 1 0 12 5.02a6.964 6.964 0 0 0 0 13.928"/><path fill="#17D6FF" d="M15.759 6.394c.042 0 .098.004.141.034.103.052.167.193.111.386-.021.073-.03.257.018.48.042.214.141.446.312.613l.073.073c.506.493 2.285 2.237 2.285 4.705a3.63 3.63 0 0 1-1.749 3.133q-.147.1-.3.185c.129.128.291.325.429.557.257.784-1.946 2.254-2.898 1.187a3.6 3.6 0 0 1-.6-.857q-.643.066-1.358.068c-.377 0-.832-.03-1.316-.102a4.4 4.4 0 0 1-.458.595c-.438.489-1.222.622-1.882.549a2.3 2.3 0 0 1-.878-.257c-.232-.129-.416-.322-.425-.566-.008-.326.129-.651.287-.917.116-.193.253-.365.369-.489a3.4 3.4 0 0 1-1.594-2.914c0-2.031 1.033-3.467 2.353-4.406a8.2 8.2 0 0 1 4.08-1.448c1.144-.065 1.787-.18 2.168-.292.279-.086.403-.154.502-.206q.051-.034.102-.055a.5.5 0 0 1 .228-.056"/><path fill="#FD8727" d="M6.981 16.179c-.145.39-.085.711-.042.827.077.313.587.523 1.414.523.823 0 1.586-.485 1.83-.973.24-.493.283-.725.257-.746-.013-.017-1.86-.326-2.777-.48a2.1 2.1 0 0 0-.686.849z"/><path fill="#D95D15" d="M8.194 16.187c-.454.3-.488.63-.45.754.18.163.75.36 1.586-.145.844-.506.154-.947-.296-1.106a8 8 0 0 0-.84.497"/><path fill="#F16607" d="M9.874 16.976c-1.003-.364-1.517-.909-1.633-1.14l.223-.18 1.877.523c-.15.265-.454.797-.471.797z"/><path fill="#D43C00" d="M9.514 15.943c.257.214.365.501-.133.823a3.3 3.3 0 0 1-.985-.712q.309-.192.484-.282z"/><path fill="#FFECDD" d="M7.719 16.74a.27.27 0 1 0 0-.54.27.27 0 0 0 0 .54"/><path fill="#D43C00" d="m7.551 15.24 3 .467.026.056c.03.056.034.129.021.197a.8.8 0 0 1-.085.266c-.157.313-.36.602-.6.857-.433.489-1.222.622-1.877.549a2.4 2.4 0 0 1-.883-.258c-.232-.128-.416-.32-.424-.565-.009-.326.128-.652.287-.917.163-.266.355-.489.493-.609zm.078.257c-.116.116-.275.3-.408.519-.15.249-.257.527-.252.784.004.12.098.249.3.364.201.112.484.198.792.228.626.068 1.316-.065 1.672-.472q.34-.354.566-.793a.8.8 0 0 0 .064-.205z"/><path fill="#FD8727" d="M16.586 16.474c.146.394.086.716.043.827-.086.313-.588.523-1.415.523s-1.59-.484-1.83-.973c-.24-.493-.283-.724-.261-.745.017-.013 1.86-.326 2.781-.48a2.1 2.1 0 0 1 .677.848z"/><path fill="#D95D15" d="M15.369 16.483c.454.3.488.63.45.754-.18.163-.746.36-1.586-.145-.844-.506-.155-.948.295-1.106.095.043.39.197.84.497"/><path fill="#F16607" d="M13.693 17.272c.998-.36 1.517-.909 1.628-1.136l-.222-.184-1.878.522c.15.266.455.802.472.802z"/><path fill="#D43C00" d="M14.049 16.243c-.258.21-.36.502.137.819.368-.175.7-.416.981-.712a9 9 0 0 0-.48-.283z"/><path fill="#FFECDD" d="M15.844 17.036a.27.27 0 1 1 0-.54.27.27 0 0 1 0 .54"/><path fill="#D43C00" d="m16.016 15.536-3 .471-.03.051a.33.33 0 0 0-.022.198 1 1 0 0 0 .086.265c.094.215.274.493.6.857.433.49 1.221.622 1.881.55.33-.035.643-.125.879-.258.232-.129.416-.322.424-.566.009-.325-.128-.651-.287-.917a3 3 0 0 0-.488-.609zm-.082.257c.12.116.275.3.408.518.15.249.257.527.252.785-.004.12-.098.248-.3.364-.201.111-.48.197-.793.231-.625.069-1.315-.068-1.671-.471a3.4 3.4 0 0 1-.561-.797.8.8 0 0 1-.069-.206z"/><path fill="url(#d)" d="m12.75 16.47-1.791-.086c-1.942-.03-3.446-.793-4.273-1.761-.489-.579-.639-1.329-.785-1.762l.228-1.907.557-1.118.733-1.046 1.217-.887 1.877-.862 1.479-.244 1.67-.184 1.15-.317.402-.142.142.142v.587l.317.758.943.862.69 1.058.458 1.119.317 1.32-.102 1.23-.673 1.29-.802.729-1.148.578z"/><path fill="url(#e)" d="M10.144 7.873c1.616-.763 3.707-.947 4.552-.943.043.189.218.673.617 1.071.493.489 2.066 2.242 2.066 3.978h.728l-.265-1.41-.935-1.595-1.35-1.491-.244-.844.103-.506h-.27l-.566.3-1.358.206-1.63.205-1.61.412-1.813.874-.823.844-.845 1.072-.41.985-.228 1.762.566.167c0-3.026 1.701-4.127 3.715-5.087"/><path fill="url(#f)" d="M10.856 9.553c-2.546.548-2.949 2.464-2.833 3.355l7.907-1.234c-.849-1.046-1.894-2.807-5.074-2.121"/><path fill="#FFFEF9" d="M11.31 8.546c-.043-.069-.094-.24.086-.377.227-.172.377-.12.454-.056s.107.214-.081.39c-.189.171-.386.124-.459.043m-1.98.784c-.073-.189-.094-.626.42-.866.643-.296.977-.081 1.131.12.15.197.142.587-.415.9-.557.317-1.007.086-1.136-.154"/><path fill="url(#g)" d="M12.009 15.913c2.447 0 4.431-.852 4.431-1.903s-1.984-1.903-4.431-1.903-4.432.852-4.432 1.903c0 1.05 1.984 1.903 4.432 1.903"/><path fill="#792207" d="M7.431 13.762c.367 0 .665-.398.665-.888s-.298-.887-.665-.887-.664.397-.664.887.297.888.664.888"/><path fill="#F6FEF8" d="M7.483 12.604a.249.249 0 1 0 0-.497.249.249 0 0 0 0 .497"/><path fill="#792207" d="M13.371 14.833c.367 0 .665-.397.665-.887s-.298-.887-.665-.887c-.366 0-.664.397-.664.887s.298.887.664.887"/><path fill="#F6FEF8" d="M13.423 13.676a.249.249 0 1 0 0-.497.249.249 0 0 0 0 .497"/><path fill="#792207" d="M9.394 13.526c.06-.03.129 0 .163.055l.004.013c.043.086.103.219.18.334q.066.09.125.142c.038.034.064.043.081.043a.7.7 0 0 0 .317-.09c.103-.056.189-.125.249-.18a.121.121 0 1 1 .171.171 1.6 1.6 0 0 1-.308.223 1 1 0 0 1-.429.116.38.38 0 0 1-.24-.099 1 1 0 0 1-.163-.193 3 3 0 0 1-.197-.36l-.008-.017c-.03-.06 0-.128.055-.159"/><path fill="#FBF9EB" d="M15.223 14.998c.121.127.337.116.482-.024s.165-.354.043-.48c-.121-.127-.337-.116-.482.023-.145.14-.165.355-.043.481"/><path fill="#E7B45B" fill-rule="evenodd" d="M15.227 6.261a.4.4 0 0 0-.133.043c-.017 0-.034.017-.064.03-.09.052-.257.146-.57.24-.727.18-1.471.281-2.22.3A8 8 0 0 0 8.284 8.28c-1.268.9-2.25 2.271-2.25 4.209 0 1.525.922 2.485 2.1 3.072a8.5 8.5 0 0 0 3.557.789c1.959 0 3.523-.399 4.59-1.102a3.39 3.39 0 0 0 1.646-2.93c0-2.367-1.714-4.042-2.22-4.54a1.47 1.47 0 0 1-.45-.805 1.4 1.4 0 0 1-.008-.596c.017-.064.008-.094.004-.103v-.008l.008.008-.038-.021.017.008h.004zm.137-.205a.25.25 0 0 0-.141-.035.6.6 0 0 0-.227.06l-.103.052a2 2 0 0 1-.502.21c-.377.107-1.024.227-2.164.291-1.165.065-2.768.515-4.084 1.449-1.316.938-2.349 2.37-2.349 4.406 0 1.645 1.003 2.674 2.229 3.287a8.8 8.8 0 0 0 3.664.814c1.993 0 3.609-.403 4.727-1.14a3.63 3.63 0 0 0 1.753-3.133c0-2.468-1.783-4.213-2.288-4.706l-.073-.072a1.2 1.2 0 0 1-.309-.613 1.2 1.2 0 0 1-.017-.485c.051-.188-.008-.334-.116-.385" clip-rule="evenodd"/><path fill="#FEFEFC" fill-rule="evenodd" d="M12 19.269a7.287 7.287 0 0 0 2.788-14.017A7.286 7.286 0 1 0 12 19.269m0-.412a6.857 6.857 0 1 0 0-13.715 6.857 6.857 0 0 0 0 13.715" clip-rule="evenodd"/></g><defs><linearGradient id="b" x1="3.489" x2="16.144" y1="1.513" y2="21.994" gradientUnits="userSpaceOnUse"><stop stop-color="#009CFC"/><stop offset="1" stop-color="#016FD1"/></linearGradient><linearGradient id="c" x1="12" x2="12" y1="5.023" y2="18.947" gradientUnits="userSpaceOnUse"><stop stop-color="#7DEAF9"/><stop offset="1" stop-color="#C9F6FC"/></linearGradient><linearGradient id="d" x1="11.992" x2="11.992" y1="6.154" y2="16.47" gradientUnits="userSpaceOnUse"><stop stop-color="#FDDC2A"/><stop offset="1" stop-color="#FFD829"/></linearGradient><linearGradient id="e" x1="11.987" x2="11.987" y1="9.197" y2="12.96" gradientUnits="userSpaceOnUse"><stop stop-color="#FFFF79"/><stop offset=".94" stop-color="#FFFF79" stop-opacity="0"/></linearGradient><linearGradient id="f" x1="11.7" x2="11.966" y1="9.398" y2="12.908" gradientUnits="userSpaceOnUse"><stop stop-color="#FCC216"/><stop offset="1" stop-color="#FCC216" stop-opacity="0"/></linearGradient><linearGradient id="g" x1="7.886" x2="15.939" y1="13.71" y2="15.505" gradientUnits="userSpaceOnUse"><stop stop-color="#FF9503"/><stop offset="1" stop-color="#FF9503" stop-opacity="0"/></linearGradient><clipPath id="a"><path fill="#fff" d="M0 0h24v24H0z"/></clipPath></defs></svg>