<svg width="24" height="24" viewBox="0 0 24 24" fill="none" xmlns="http://www.w3.org/2000/svg">
<g clip-path="url(#clip0_31_14606)">
<path d="M0 0H24V24H0V0Z" fill="#F0F3FA"/>
<path d="M8.99854 13.6615L5.99854 17.0357V7.27539C5.99854 6.87757 6.15657 6.49604 6.43788 6.21473C6.71918 5.93343 7.10071 5.77539 7.49854 5.77539C7.89636 5.77539 8.27789 5.93343 8.5592 6.21473C8.8405 6.49604 8.99854 6.87757 8.99854 7.27539V13.6611V13.6615Z" fill="url(#paint0_linear_31_14606)"/>
<path d="M8.89067 11.25L8.75781 6.45557L17.0318 16.4314C17.1571 16.5818 17.2511 16.7557 17.3083 16.9429C17.3656 17.13 17.3848 17.3268 17.365 17.5215C17.3451 17.7162 17.2866 17.905 17.1928 18.0768C17.099 18.2486 16.9719 18.4 16.8188 18.522C16.5097 18.7685 16.1162 18.8839 15.7229 18.8435C15.3296 18.803 14.9678 18.6099 14.7154 18.3056L8.89067 11.25Z" fill="url(#paint1_linear_31_14606)"/>
<path d="M6.00195 16.9199L9.00195 13.3589V17.3562C9.00195 17.754 8.84392 18.1355 8.56261 18.4168C8.28131 18.6981 7.89978 18.8562 7.50195 18.8562C7.10413 18.8562 6.7226 18.6981 6.44129 18.4168C6.15999 18.1355 6.00195 17.754 6.00195 17.3562V16.9199Z" fill="#FFC524"/>
<path d="M6.00195 7.74853L9.00195 11.4175V7.27539C9.00195 6.87757 8.84392 6.49604 8.56261 6.21473C8.28131 5.93343 7.89978 5.77539 7.50195 5.77539C7.10413 5.77539 6.7226 5.93343 6.44129 6.21473C6.15999 6.49604 6.00195 6.87757 6.00195 7.27539V7.74853Z" fill="#91D450"/>
<path d="M17.8509 8.43549C17.9496 8.19119 18.0003 7.93013 18.0001 7.66663C18.0001 6.50949 17.0405 5.57178 15.8572 5.57178C14.6739 5.57178 13.7144 6.50949 13.7144 7.66663C13.7144 7.92378 13.7615 8.17021 13.8485 8.39778C14.2544 9.72806 15.3159 10.7631 15.8461 11.1432C17.0281 10.2728 17.6144 9.16492 17.8509 8.43549Z" fill="#FF7819"/>
<path d="M15.8576 8.57122C16.3312 8.57122 16.7151 8.18746 16.7151 7.71408C16.7151 7.24069 16.3312 6.85693 15.8576 6.85693C15.3839 6.85693 15 7.24069 15 7.71408C15 8.18746 15.3839 8.57122 15.8576 8.57122Z" fill="#AC46BC"/>
</g>
<defs>
<linearGradient id="paint0_linear_31_14606" x1="8.99854" y1="11.718" x2="5.99854" y2="11.6875" gradientUnits="userSpaceOnUse">
<stop stop-color="#5DC17C"/>
<stop offset="1" stop-color="#8CD037"/>
</linearGradient>
<linearGradient id="paint1_linear_31_14606" x1="8.75653" y1="8.7" x2="16.6988" y2="18.6189" gradientUnits="userSpaceOnUse">
<stop stop-color="#9CD863"/>
<stop offset="1" stop-color="#49ADDA"/>
</linearGradient>
<clipPath id="clip0_31_14606">
<rect width="24" height="24" fill="white"/>
</clipPath>
</defs>
</svg>
