<svg width="24" height="24" viewBox="0 0 24 24" fill="none" xmlns="http://www.w3.org/2000/svg">
<g clip-path="url(#clip0_31_14657)">
<path d="M0 0H24V24H0V0Z" fill="#F0F3FA"/>
<path d="M18.1541 15.8744C18.1498 15.8487 18.137 15.8316 18.1198 15.8316L15.7198 15.8616C15.7124 15.8486 15.7093 15.8335 15.7112 15.8187C15.9127 15.763 16.097 15.6987 16.2684 15.6301C16.662 15.4697 17.0182 15.2296 17.3146 14.925C17.6111 14.6205 17.8415 14.2579 17.9912 13.8601C17.9969 13.8421 18.0084 13.8264 18.0239 13.8155C18.0394 13.8047 18.058 13.7993 18.077 13.8001C18.2012 13.7916 18.3341 13.8001 18.4541 13.7744C18.677 13.723 18.8827 13.5687 19.0112 13.3716C19.1827 13.0973 19.2427 12.7801 19.1312 12.4716C19.0851 12.3243 19.0035 12.1907 18.8937 12.0823C18.7838 11.974 18.6491 11.8943 18.5012 11.8501C18.3547 11.8067 18.2038 11.7794 18.0512 11.7687C18.0376 11.7683 18.0243 11.7641 18.0129 11.7565C18.0016 11.7489 17.9926 11.7383 17.987 11.7258C17.9012 11.5458 17.8327 11.3573 17.7212 11.1944C17.3511 10.608 16.7962 10.1617 16.1441 9.92584C15.7716 9.80216 15.3782 9.75408 14.987 9.78442C14.2541 9.82299 13.6112 10.1144 13.0884 10.6458C12.9555 10.7873 12.8227 10.9373 12.6898 11.1001C12.647 11.1558 12.6041 11.113 12.5698 11.0744L12.377 10.7916C12.3598 10.7658 12.3512 10.7273 12.377 10.7058C12.5741 10.5601 12.7627 10.4101 12.9341 10.2644C13.1517 10.0912 13.3449 9.88938 13.5084 9.66441C13.7484 9.30442 13.8041 8.9187 13.6712 8.50299C13.6476 8.43136 13.6084 8.36581 13.5566 8.311C13.5047 8.2562 13.4414 8.21347 13.3712 8.18584C13.2871 8.14511 13.1907 8.13746 13.1012 8.16441C12.9212 8.21584 12.7498 8.29299 12.5827 8.38727C12.5612 8.40013 12.527 8.40442 12.4798 8.40013C12.4584 8.3787 12.4584 8.35727 12.4798 8.33156C12.5055 8.30156 12.5398 8.27584 12.5527 8.23299C12.6041 8.03156 12.6084 7.83013 12.4755 7.66299C12.3812 7.53441 12.2998 7.4187 12.2312 7.30727C12.1884 7.2387 12.2098 7.1787 12.2184 7.11013C12.2355 6.98584 12.107 7.04584 12.0555 7.06727C12.0127 7.08013 11.9698 7.07584 11.927 7.04584C11.8927 7.02442 11.8755 6.99013 11.8584 6.95584C11.8561 6.95029 11.8527 6.94527 11.8483 6.94112C11.844 6.93698 11.8388 6.93379 11.8332 6.93177C11.8275 6.92975 11.8215 6.92894 11.8155 6.9294C11.8095 6.92985 11.8037 6.93156 11.7984 6.93442C11.5841 7.03727 11.3698 7.1487 11.1298 7.16156L10.7055 7.1787C10.5255 7.18299 10.3284 7.20442 10.1227 7.24299C10.0584 7.25156 9.98553 7.27727 9.89553 7.31156C9.27439 7.56096 8.7037 7.92109 8.21124 8.37442C8.17695 8.43013 8.10838 8.45156 8.05695 8.40442C8.0412 8.39168 8.02683 8.37732 8.0141 8.36156C7.84267 8.10442 7.64124 7.8987 7.31124 7.88156C7.0541 7.85584 6.82695 7.9587 6.68981 8.17727C6.5159 8.48278 6.36823 8.8025 6.24838 9.13299C6.22267 9.20584 6.20553 9.28299 6.20553 9.36013C6.23981 9.76299 6.39838 10.1358 6.65553 10.4487C6.74981 10.5601 6.89553 10.6758 7.04124 10.7058C7.08838 10.7144 7.13981 10.7144 7.19981 10.7058C7.25553 10.6973 7.30695 10.693 7.36267 10.693L7.73124 10.7016C7.85981 10.7058 7.98838 10.6887 8.11267 10.6416C8.15981 10.6244 8.21981 10.6201 8.23267 10.6844C8.23267 10.7144 8.24124 10.7401 8.24981 10.7616L8.00981 12.2144C8.00981 12.2177 8.01059 12.221 8.01207 12.224C8.01356 12.227 8.01572 12.2296 8.01838 12.2316L8.02267 12.2358H8.03124C8.0441 12.193 8.06981 12.1758 8.10838 12.1801C8.11267 12.1801 8.11695 12.1801 8.12124 12.1887C8.13499 12.2057 8.14652 12.2245 8.15553 12.2444C8.20696 12.3516 8.23267 12.4544 8.24124 12.5573C8.2541 13.0287 8.23267 13.5001 8.1641 13.9801C8.14267 14.1216 8.1041 14.2501 8.04838 14.3701C7.97981 14.5201 7.8341 14.5887 7.71838 14.6958C7.64553 14.7644 7.58124 14.8587 7.51267 14.9444C7.43124 15.0558 7.34124 15.1501 7.23838 15.2316L6.25267 15.6301L5.80267 15.823C4.99444 14.5188 4.62044 12.992 4.7344 11.4619C4.84837 9.93187 5.44444 8.47732 6.43695 7.30727C7.43681 6.1241 8.78756 5.29019 10.2933 4.92647C11.7991 4.56274 13.3815 4.68812 14.8112 5.28442C16.0799 5.82242 17.1715 6.70662 17.9612 7.83589C18.751 8.96516 19.2069 10.2939 19.277 11.6701C19.3449 13.1524 18.9527 14.6195 18.1541 15.8701V15.8744Z" fill="#CFCBCB"/>
<path d="M12.4801 8.40006C12.4453 8.40649 12.4094 8.402 12.3773 8.3872H12.3558C12.3288 8.39588 12.306 8.41418 12.2916 8.43863C12.2896 8.44265 12.2887 8.44704 12.2887 8.45149C12.2887 8.45593 12.2896 8.46032 12.2916 8.46434L12.3344 8.5672V8.58863C12.2916 8.70863 12.2573 8.82434 12.2273 8.94434C12.2144 9.00006 12.1587 9.03006 12.1416 9.08577L12.1287 9.1372C12.119 9.12686 12.1068 9.1191 12.0934 9.11461C12.0799 9.11012 12.0655 9.10905 12.0516 9.11149C12.0177 9.11796 11.983 9.1194 11.9487 9.11577L11.7516 9.08577C11.7387 9.08577 11.7301 9.0772 11.7258 9.06006V9.05149C11.7258 9.03434 11.7301 9.02577 11.7473 9.02577L11.8758 9.02149C11.8973 9.02149 11.9101 9.00863 11.923 8.99149C11.9787 8.91006 11.9487 8.84149 11.8801 8.7772C11.8721 8.76929 11.8674 8.7585 11.8673 8.7472C11.8673 8.74055 11.8688 8.73398 11.8718 8.72803C11.8748 8.72208 11.8791 8.71691 11.8844 8.71291C11.9273 8.67006 11.953 8.71291 11.9701 8.7472C11.9916 8.80291 12.0173 8.85434 12.0516 8.90149C12.0687 8.9872 12.0987 9.0172 12.1416 9.00434C12.1844 8.99577 12.1973 8.94863 12.2058 8.91006L12.2916 8.61006C12.3087 8.5672 12.2916 8.52006 12.2573 8.49006C12.2503 8.48353 12.2461 8.47466 12.2453 8.46516C12.2445 8.45567 12.2472 8.44622 12.253 8.43863C12.283 8.39149 12.2916 8.33577 12.2787 8.28006L12.1844 7.87291C12.1798 7.85468 12.1701 7.83813 12.1565 7.82522C12.1428 7.81231 12.1257 7.80358 12.1073 7.80006C12.0901 7.80006 12.0644 7.80006 12.0216 7.8172C11.9787 7.83863 11.9316 7.8472 11.8844 7.85149C11.7001 7.86863 11.533 7.94577 11.3916 8.08291C11.3401 8.13006 11.263 8.13006 11.203 8.10006C10.8791 7.93973 10.5173 7.87153 10.1573 7.90291C9.94727 7.91577 9.73727 7.98006 9.57441 8.10434L9.25298 8.35291C9.12441 8.45149 9.0087 8.5672 8.94441 8.7172C8.90156 8.81577 8.86727 8.91434 8.83727 9.0172C8.72156 9.38149 8.78156 9.93434 9.28298 9.95149C9.37727 9.95149 9.54013 10.1829 9.58727 10.2601C9.63441 10.3372 9.70727 10.3801 9.80156 10.3972C9.87441 10.4572 9.95156 10.4958 10.0373 10.5172C9.94298 10.6458 9.86584 10.7658 9.79727 10.8901C9.65539 11.1591 9.5024 11.4222 9.3387 11.6786C9.21441 11.8801 9.15013 12.1072 9.07727 12.3386C9.0387 12.4458 9.02156 12.5315 9.02584 12.6001C9.02584 12.7672 9.11156 12.9258 9.19298 13.0629C9.15807 13.0473 9.12834 13.022 9.10727 12.9901L9.04298 12.8829C9.04121 12.8788 9.03818 12.8753 9.03434 12.873C9.03049 12.8707 9.02602 12.8697 9.02156 12.8701C8.96584 12.8743 8.89298 12.8615 8.87584 12.8015C8.83298 12.6729 8.7687 12.5486 8.73013 12.4158C8.70013 12.3301 8.65727 12.2443 8.60156 12.1586C8.57584 12.1329 8.56727 12.1329 8.57584 12.1715C8.63156 12.3986 8.67013 12.6258 8.70441 12.8486C8.71727 12.9643 8.78584 13.0115 8.88441 13.0715C8.92727 13.0972 8.95727 13.0758 8.98727 13.0501C9.00441 13.0372 9.02156 13.0415 9.03441 13.0543C9.12441 13.1401 9.17584 13.2429 9.19298 13.3672C9.19727 13.3886 9.21441 13.4101 9.23584 13.4315C9.37298 13.5686 9.52298 13.6886 9.69441 13.7915C9.89156 13.9029 10.1101 13.9758 10.3544 14.0058C10.3201 14.0658 10.3073 14.1558 10.3116 14.2715C10.2945 14.2552 10.2801 14.2364 10.2687 14.2158C10.2601 14.1858 10.2516 14.1901 10.2516 14.2158C10.243 14.2672 10.2516 14.3186 10.2644 14.3743C10.3501 14.6915 10.5301 14.9615 10.7916 15.1886C10.873 15.2615 10.9244 15.3429 10.9544 15.4372C11.0273 15.6558 10.993 15.9172 10.9201 16.1401C10.8773 16.2772 10.7787 16.3886 10.7744 16.5386C10.7744 16.6115 10.7616 16.6758 10.7401 16.7358C10.6867 16.8892 10.6465 17.0469 10.6201 17.2072L10.3287 17.1429C10.2723 17.1095 10.2285 17.0582 10.2044 16.9972C10.1987 16.9814 10.19 16.9668 10.1787 16.9543C10.1712 16.9462 10.1618 16.94 10.1513 16.9362C10.1409 16.9325 10.1297 16.9314 10.1187 16.9329C10.0544 16.9458 9.91727 16.9458 9.88298 16.8858C9.83156 16.8001 9.77156 16.7229 9.6987 16.6586C9.68836 16.6163 9.66231 16.5796 9.62584 16.5558C9.6228 16.5533 9.61902 16.552 9.61513 16.552C9.61123 16.552 9.60745 16.5533 9.60441 16.5558C9.55298 16.6243 9.49298 16.6329 9.42013 16.5858C9.37727 16.5129 9.35156 16.4358 9.3387 16.3543L9.32584 16.2172C9.31159 16.1729 9.28824 16.132 9.25727 16.0972C9.23584 16.0672 9.21441 16.0672 9.1887 16.0886C9.16298 16.1101 9.15441 16.1315 9.1587 16.1572C9.1587 16.1658 9.16727 16.1743 9.17584 16.1743C9.29156 16.2258 9.33013 16.3158 9.28727 16.4443C9.27441 16.4872 9.22298 16.5086 9.18013 16.4786C9.15034 16.4587 9.12504 16.4328 9.10585 16.4025C9.08666 16.3723 9.074 16.3383 9.0687 16.3029C9.06441 16.2729 9.0387 16.2601 9.0087 16.2601C8.9724 16.2597 8.93656 16.2519 8.9034 16.2372C8.87023 16.2224 8.84043 16.201 8.81584 16.1743C8.68343 16.0367 8.5462 15.9037 8.40441 15.7758L8.07441 15.4501C8.06408 15.4403 8.05631 15.4282 8.05183 15.4147C8.04734 15.4013 8.04626 15.3869 8.0487 15.3729C8.0487 15.3301 8.04441 15.2229 7.99298 15.2015C7.92652 15.1754 7.85935 15.1511 7.79156 15.1286C7.76156 15.1201 7.74441 15.0943 7.7487 15.0686C7.7487 15.0558 7.75727 15.0386 7.7787 15.0172C7.83441 14.9529 7.86441 14.8715 7.86441 14.7858C8.06156 14.5286 8.17727 14.2501 8.22441 13.9415C8.27584 13.5986 8.30584 13.2129 8.31013 12.7843C8.31013 12.6943 8.39584 12.7286 8.45156 12.7372C8.45658 12.7374 8.46156 12.7363 8.46605 12.7341C8.47055 12.7318 8.4744 12.7285 8.47727 12.7243C8.48097 12.7204 8.48368 12.7156 8.48517 12.7104C8.48666 12.7052 8.48689 12.6997 8.48584 12.6943C8.44298 12.5743 8.40013 12.4501 8.34441 12.3258C8.30156 12.2229 8.23298 12.1115 8.20727 12.0129C8.15834 11.8459 8.14953 11.6697 8.18156 11.4986C8.23727 11.2501 8.26727 11.0186 8.28013 10.8129C8.28013 10.7615 8.27584 10.7443 8.25013 10.7615C8.24003 10.7369 8.23423 10.7108 8.23298 10.6843C8.2587 10.6801 8.27584 10.6715 8.28013 10.6586C8.31441 10.5943 8.33584 10.5172 8.34013 10.4272C8.34292 10.3844 8.33497 10.3416 8.317 10.3027C8.29904 10.2638 8.27163 10.23 8.23727 10.2043C8.23727 10.1358 8.23727 10.0672 8.2287 9.99863C8.2287 9.93434 8.1687 9.91291 8.19013 9.84434C8.1987 9.84434 8.1987 9.84863 8.1987 9.8572C8.1987 9.86149 8.1987 9.86577 8.20727 9.87006H8.21584L8.2287 9.8572C8.27584 9.69434 8.2887 9.54434 8.27156 9.41149C8.22013 9.12006 8.18584 8.8672 8.17298 8.64863C8.16444 8.55646 8.17918 8.46362 8.21584 8.37863V8.37434C8.7083 7.92102 9.27899 7.56089 9.90013 7.31149C9.98584 7.2772 10.0587 7.25149 10.123 7.24291C10.3287 7.20434 10.5258 7.18291 10.7058 7.17863L11.1301 7.16149C11.3701 7.15291 11.5801 7.03291 11.7987 6.93434C11.804 6.93149 11.8098 6.92978 11.8158 6.92932C11.8218 6.92887 11.8278 6.92968 11.8335 6.9317C11.8391 6.93372 11.8443 6.9369 11.8486 6.94105C11.853 6.9452 11.8564 6.95021 11.8587 6.95577C11.8758 6.99006 11.893 7.02434 11.9273 7.04577C11.9701 7.07577 12.013 7.08006 12.0558 7.06291C12.1073 7.04577 12.2358 6.98577 12.2187 7.10577C12.2101 7.17863 12.1887 7.23863 12.2316 7.3072C12.3001 7.41863 12.3816 7.53434 12.4758 7.66291C12.6044 7.83434 12.6044 8.03149 12.553 8.23291C12.5401 8.27577 12.5101 8.30149 12.4801 8.33149C12.4587 8.3572 12.4587 8.37434 12.4801 8.40006Z" fill="#A58443"/>
<path d="M12.0516 8.90132C12.0301 8.81561 11.9958 8.72989 11.9487 8.63561C11.9273 8.60132 11.9401 8.56703 11.9787 8.54132L12.0901 8.48132L12.0944 8.47275C12.0954 8.46998 12.0954 8.46695 12.0944 8.46418L12.0773 8.45132C11.9784 8.39981 11.8641 8.3861 11.7558 8.41275L11.5716 8.49418C11.4987 8.53703 11.4216 8.57132 11.3401 8.58418C11.3299 8.58605 11.3205 8.59127 11.3135 8.59902C11.3065 8.60678 11.3023 8.61663 11.3016 8.62703L11.1944 9.17561C11.1944 9.18846 11.1858 9.19275 11.1773 9.20132C11.1344 9.23132 11.0787 9.25703 11.0144 9.27846C10.9905 9.28638 10.9653 9.28932 10.9402 9.28711C10.9152 9.2849 10.8908 9.27758 10.8687 9.26561L10.8816 9.18846C10.8944 9.09846 10.8816 9.01275 10.8516 8.93132L10.8087 8.46846C10.8516 8.43418 10.8301 8.39989 10.7487 8.36132C10.6158 8.30561 10.4658 8.31846 10.3287 8.34418C10.1058 8.39676 9.89883 8.50204 9.72507 8.65119C9.55132 8.80034 9.41588 8.98899 9.33013 9.20132C9.32944 9.20598 9.32985 9.21073 9.33134 9.2152C9.33283 9.21967 9.33535 9.22372 9.3387 9.22703L9.34727 9.23132L9.65156 9.35989C9.68156 9.38561 9.72013 9.38989 9.76299 9.38561C9.85299 9.43703 9.95156 9.47132 10.0544 9.48418C10.153 9.50132 10.243 9.51418 10.3373 9.54418C10.4701 9.59561 10.5687 9.64275 10.7273 9.61703L11.1987 9.63418C11.2844 9.63418 11.3273 9.67703 11.3358 9.76275C11.3358 9.78205 11.3314 9.80109 11.323 9.81846C11.2716 9.91703 11.2501 10.0113 11.2673 10.1099C11.2608 10.1627 11.2479 10.2145 11.2287 10.2642C11.1861 10.3522 11.1769 10.4528 11.203 10.547C11.233 10.6456 11.2587 10.7399 11.2758 10.847C11.3101 11.0913 11.4344 11.3742 11.6401 11.5199C11.683 11.5499 11.7344 11.5713 11.7987 11.5927C11.9573 11.6356 12.1158 11.6913 12.2744 11.7556C12.3344 11.7813 12.4587 11.8585 12.4458 11.9399C12.4435 11.9507 12.4388 11.9609 12.4322 11.9698C12.4255 11.9787 12.417 11.986 12.4073 11.9913C12.3118 12.0465 12.2175 12.1037 12.1244 12.1627H12.1073C11.9701 12.2356 11.8287 12.2956 11.683 12.3427C11.6187 12.3599 11.5544 12.3899 11.503 12.4285C11.2844 12.5913 11.0316 12.617 10.7616 12.6299C10.732 12.632 10.703 12.6393 10.6758 12.6513V12.6556C10.6751 12.6569 10.6747 12.6584 10.6747 12.6599C10.6747 12.6614 10.6751 12.6629 10.6758 12.6642C10.8001 12.7585 11.0358 12.7499 11.1816 12.7499C11.2544 12.7542 11.3316 12.7627 11.4173 12.7799L11.773 12.8485C11.9316 12.8742 12.0601 12.977 12.2316 12.9685C12.2701 12.9685 12.3001 12.9727 12.3301 12.9856C12.5401 13.0842 12.7587 13.1613 12.9773 13.2256C13.1916 13.3113 13.303 13.1527 13.3287 12.9599C13.3293 12.9579 13.3304 12.956 13.3319 12.9545C13.3334 12.953 13.3352 12.9519 13.3373 12.9513H13.3501C13.4358 13.0327 13.4273 13.1313 13.3544 13.2213C13.2687 13.3327 13.1487 13.4013 12.9987 13.4227C12.8273 13.3799 12.6473 13.3456 12.4844 13.2942C11.9701 13.1227 11.443 12.9856 10.9501 12.917C10.7767 12.8962 10.6018 12.8891 10.4273 12.8956C10.4144 12.8956 10.4058 12.9042 10.4058 12.9213L10.4101 12.9427C10.411 12.9504 10.4145 12.9575 10.4199 12.9629C10.4254 12.9684 10.4325 12.9718 10.4401 12.9727C10.8516 13.007 11.2544 13.0885 11.6401 13.2127L11.7001 13.2642C11.7601 13.3156 11.7001 13.4099 11.6487 13.4356C11.6159 13.4479 11.5807 13.4523 11.5458 13.4485C11.3975 13.4374 11.2485 13.4374 11.1001 13.4485C10.4943 13.5248 9.87909 13.4391 9.31727 13.1999C9.26584 13.1699 9.22727 13.1227 9.1887 13.0627C9.10727 12.9256 9.03013 12.767 9.02584 12.5999C9.02584 12.5313 9.0387 12.4456 9.07727 12.3385C9.15013 12.1113 9.21441 11.8799 9.3387 11.6785C9.4955 11.4179 9.64837 11.155 9.79727 10.8899C9.86584 10.7656 9.94299 10.6413 10.0373 10.517L10.3716 10.3756C10.3885 10.3643 10.4031 10.3497 10.4144 10.3327C10.4187 10.3113 10.4144 10.2985 10.393 10.2899C10.3716 10.2899 10.3544 10.2899 10.3416 10.2985L10.0116 10.2942C9.87448 10.2766 9.74041 10.2405 9.61299 10.187C9.58727 10.1742 9.57013 10.1613 9.57013 10.1442C9.55298 10.1013 9.52727 9.95561 9.57013 9.91275L9.73298 9.76703C9.83584 9.75418 9.8787 9.80989 9.87013 9.90418V10.0413C9.87013 10.0799 9.90441 10.1527 9.95584 10.1485L9.9687 10.157C10.2168 10.2087 10.4719 10.2174 10.723 10.1827C10.8173 10.217 10.8601 10.3156 10.8944 10.4056C10.903 10.4313 10.9158 10.4399 10.9373 10.4399C10.9544 10.4399 10.963 10.427 10.9587 10.4142C10.9397 10.3128 10.8972 10.2174 10.8344 10.1356L10.8258 10.127C10.8236 10.1176 10.8192 10.1088 10.813 10.1013C10.7401 10.0156 10.6544 9.97275 10.5473 9.95132C10.3129 9.77787 10.0288 9.68468 9.73727 9.68561C9.68584 9.68561 9.6087 9.68561 9.51013 9.69846C9.3987 9.70703 9.29584 9.68989 9.19727 9.63418C9.10079 9.57583 9.02395 9.48999 8.97661 9.38766C8.92927 9.28533 8.91358 9.1712 8.93156 9.05989C8.97013 8.84132 9.09013 8.62275 9.24441 8.46418C9.52298 8.17275 9.8487 7.94132 10.2601 7.94989C10.5558 7.94989 10.8216 8.00561 11.0701 8.10846C11.1773 8.15132 11.2887 8.24561 11.4044 8.17703L11.8844 7.85132C11.9273 7.85132 11.9787 7.83846 12.0258 7.81703C12.0512 7.80488 12.0791 7.799 12.1073 7.79989C12.1416 7.80418 12.1758 7.83418 12.1844 7.87275L12.2787 8.27989C12.2916 8.33561 12.2787 8.39132 12.253 8.43846C12.2472 8.44605 12.2445 8.4555 12.2453 8.465C12.2461 8.4745 12.2503 8.48336 12.2573 8.48989C12.2916 8.51989 12.3087 8.56275 12.2958 8.60989L12.2101 8.90989C12.1973 8.95275 12.1887 8.99561 12.1416 9.00418C12.0987 9.01703 12.0687 8.98275 12.0516 8.90132Z" fill="#DECDAF"/>
<path d="M11.8845 7.85156L11.4045 8.17728C11.2888 8.24585 11.1774 8.15156 11.0702 8.10871C10.8131 8.00322 10.5381 7.94794 10.2602 7.94585C9.84879 7.94156 9.52307 8.17299 9.2445 8.46442C9.09021 8.62299 8.97021 8.84156 8.93164 9.06013C8.88879 9.27442 9.0045 9.53156 9.19736 9.63442C9.29593 9.69013 9.39879 9.70728 9.51021 9.69871C9.60879 9.68585 9.68593 9.68156 9.73736 9.68585V9.76728C9.66879 9.82299 9.60879 9.87013 9.56593 9.91299C9.52307 9.95585 9.55307 10.1016 9.56593 10.1487C9.5745 10.1616 9.58736 10.1744 9.61307 10.1873C9.74164 10.2387 9.87021 10.273 10.0116 10.2944C9.95593 10.2987 9.88307 10.2944 9.80164 10.2858C9.77164 10.2816 9.75021 10.2944 9.73736 10.3244L9.74164 10.3416L9.80164 10.3973C9.75788 10.3921 9.71586 10.3771 9.67874 10.3533C9.64163 10.3296 9.61038 10.2977 9.58736 10.2601C9.54021 10.183 9.37736 9.95156 9.28736 9.95156C8.78164 9.93442 8.72164 9.38156 8.83736 9.01728C8.86736 8.91442 8.90593 8.81585 8.9445 8.71728C9.00879 8.56728 9.1245 8.45156 9.25307 8.35299C9.3645 8.26728 9.46736 8.18156 9.5745 8.10442C9.73736 7.98013 9.94736 7.91585 10.1574 7.90299C10.5174 7.87161 10.8792 7.93981 11.2031 8.10013C11.2588 8.13013 11.3402 8.13013 11.3916 8.08299C11.5331 7.94585 11.7002 7.86871 11.8845 7.85156ZM7.31164 7.88156L7.3245 7.96728C7.3545 8.09585 7.45736 8.11728 7.54307 8.16871C7.80879 8.32728 7.97164 8.55442 8.01879 8.85871C7.97419 8.85252 7.92881 8.8554 7.88536 8.86719C7.84191 8.87897 7.80129 8.89941 7.76593 8.92728C7.66349 8.99995 7.5766 9.09235 7.51036 9.19907C7.44412 9.30578 7.39987 9.42465 7.38021 9.54871C7.37593 9.57442 7.38021 9.60442 7.39307 9.63013C7.42409 9.71549 7.45409 9.80121 7.48307 9.88728L7.47021 9.90013C7.44879 9.91299 7.43164 9.90871 7.41879 9.88728C7.19593 9.54442 7.33736 9.27871 7.56879 9.01299L7.77021 8.77299C7.79164 8.74728 7.8045 8.71299 7.77021 8.69156C7.74929 8.68171 7.73078 8.66739 7.71597 8.64962C7.70116 8.63186 7.69042 8.61106 7.6845 8.58871C7.66307 8.49013 7.50021 8.40013 7.4145 8.35728C7.24736 8.27156 7.07593 8.35728 6.95164 8.48156C6.83862 8.58982 6.76603 8.73349 6.74593 8.88871C6.72879 9.00442 6.71593 9.13728 6.70736 9.28299C6.6945 9.51442 6.7245 9.72871 6.81021 9.93442C6.8445 10.0201 6.88307 10.0801 6.92164 10.123C7.13593 10.3501 7.49164 10.5473 7.80879 10.4744C7.91164 10.4487 7.97593 10.4444 8.06593 10.4744C8.08736 10.483 8.10021 10.4744 8.10879 10.453C8.12593 10.363 8.16879 10.2816 8.23736 10.2044C8.27172 10.23 8.29913 10.2639 8.31709 10.3028C8.33506 10.3417 8.343 10.3845 8.34021 10.4273C8.33164 10.5173 8.3145 10.5987 8.28021 10.6587C8.27593 10.6716 8.25879 10.6801 8.23307 10.6844C8.22021 10.6201 8.16021 10.6244 8.11307 10.6416C7.9845 10.6844 7.86021 10.7058 7.73164 10.7016L7.36307 10.693C7.30736 10.693 7.25593 10.693 7.20021 10.7058C7.14021 10.7144 7.08879 10.7144 7.04164 10.7058C6.88889 10.6636 6.75371 10.5734 6.65593 10.4487C6.39879 10.1358 6.24021 9.76299 6.21021 9.36013C6.20164 9.28299 6.21879 9.20585 6.24879 9.13299C6.36863 8.80251 6.5163 8.48279 6.69021 8.17728C6.82736 7.95871 7.05021 7.85585 7.31164 7.88156Z" fill="#806936"/>
<path d="M7.31152 7.88135C7.64152 7.89849 7.84295 8.10421 8.01867 8.36563L8.06152 8.40849C8.10867 8.45135 8.17724 8.42992 8.21152 8.37421H8.21581L8.2201 8.37849C8.18152 8.4642 8.16867 8.55421 8.17724 8.64849C8.1901 8.86278 8.2201 9.11992 8.26724 9.41135C8.28867 9.5442 8.27581 9.69421 8.22438 9.85706C8.22438 9.86135 8.22438 9.86563 8.21581 9.86992H8.20724C8.20461 9.869 8.20235 9.86724 8.20081 9.86492C8.19926 9.8626 8.19851 9.85984 8.19867 9.85706C8.19867 9.84849 8.19867 9.8442 8.1901 9.8442L8.19438 9.77563C8.26295 9.44563 8.20295 9.14135 8.02295 8.85849C8.00113 8.7144 7.9465 8.57725 7.86328 8.45761C7.78006 8.33798 7.67046 8.23906 7.54295 8.16849C7.45724 8.11706 7.35438 8.09135 7.32867 7.96278C7.32149 7.93596 7.31577 7.90878 7.31152 7.88135Z" fill="#403813"/>
<path d="M12.5702 11.0742C12.5444 11.0742 12.5273 11.0828 12.5102 11.1C12.3916 11.0065 12.2826 10.9018 12.1844 10.7871C12.1159 10.7014 12.0644 10.6157 12.013 10.53C11.953 10.4142 11.8544 10.3157 11.7302 10.2942C11.6787 10.2857 11.6444 10.2514 11.6273 10.2085C11.6268 10.2055 11.6269 10.2025 11.6276 10.1995C11.6283 10.1965 11.6297 10.1938 11.6316 10.1914C11.6435 10.1691 11.6632 10.152 11.6869 10.1433C11.7106 10.1346 11.7367 10.1349 11.7602 10.1442C11.9873 10.2214 12.2059 10.2428 12.343 9.99853C12.348 9.99088 12.3506 9.98195 12.3506 9.97282C12.3506 9.96369 12.348 9.95475 12.343 9.9471C12.2873 9.85282 12.1544 9.65996 12.0516 9.6471C12.0024 9.64095 11.9545 9.62645 11.9102 9.60424C11.8947 9.59795 11.8789 9.59224 11.863 9.5871C11.863 9.56567 11.863 9.54853 11.8544 9.53567L11.983 9.49282C11.9933 9.49045 12.0029 9.48574 12.0111 9.47905C12.0193 9.47236 12.0258 9.46387 12.0302 9.45424C12.0661 9.36577 12.1018 9.2772 12.1373 9.18853L12.1287 9.1371L12.1459 9.08567C12.1587 9.02567 12.2144 8.99996 12.2273 8.94425C12.2555 8.81696 12.2899 8.6911 12.3302 8.5671L12.2916 8.46425C12.2897 8.46023 12.2887 8.45583 12.2887 8.45139C12.2887 8.44694 12.2897 8.44255 12.2916 8.43853C12.3087 8.41282 12.3302 8.39567 12.3559 8.38282H12.3773C12.409 8.39907 12.4449 8.40506 12.4802 8.39996C12.5273 8.39996 12.5659 8.39996 12.583 8.3871C12.7502 8.29282 12.9259 8.21567 13.1016 8.16424C13.1916 8.13424 13.2859 8.14282 13.3716 8.18567C13.5173 8.25425 13.6202 8.34425 13.6716 8.50282C13.8002 8.91853 13.7487 9.30425 13.5087 9.65996C13.3442 9.88672 13.1496 10.09 12.9302 10.2642C12.7587 10.41 12.5787 10.56 12.3816 10.7057C12.3516 10.7271 12.3602 10.7657 12.3773 10.7914L12.5702 11.0742Z" fill="#766846"/>
<path d="M8.01838 8.85845C8.20267 9.14131 8.26267 9.44559 8.1941 9.77559V9.84416C8.16838 9.91702 8.22838 9.93416 8.22838 9.99845L8.23695 10.2042C8.16838 10.277 8.12552 10.3627 8.10838 10.4527C8.09981 10.4742 8.08695 10.4827 8.06552 10.4742C7.97552 10.4442 7.91124 10.4485 7.80838 10.4742C7.49124 10.547 7.13552 10.3456 6.92124 10.1227C6.87358 10.0667 6.83589 10.0029 6.80981 9.93416C6.7241 9.72845 6.6941 9.51416 6.70695 9.28274C6.71552 9.13702 6.72838 9.00416 6.74552 8.88845C6.76695 8.72559 6.83552 8.58845 6.95124 8.48131C7.07981 8.35702 7.25124 8.27131 7.4141 8.35274C7.49981 8.39559 7.66267 8.48988 7.68838 8.58845C7.69695 8.63131 7.72695 8.66988 7.76981 8.69131C7.80409 8.71274 7.79124 8.74702 7.76981 8.77274L7.56838 9.01274C7.33695 9.27845 7.19552 9.54845 7.41838 9.88702C7.43124 9.90845 7.44838 9.91274 7.46981 9.89988C7.4764 9.89624 7.48139 9.89025 7.48377 9.8831C7.48615 9.87596 7.48576 9.86818 7.48267 9.86131L7.39267 9.62988C7.38072 9.60299 7.37627 9.57337 7.37981 9.54416C7.40001 9.42087 7.44451 9.30282 7.51072 9.19688C7.57694 9.09093 7.66355 8.9992 7.76552 8.92702C7.80141 8.89859 7.84274 8.87784 7.88698 8.86604C7.93121 8.85425 7.97739 8.85166 8.02267 8.85845H8.01838Z" fill="#DECDAF"/>
<path d="M10.8087 8.46874C10.3501 8.22017 9.85725 8.49445 9.56153 8.85874C9.51883 8.90432 9.48922 8.96059 9.47582 9.0216C9.46725 9.10302 9.49296 9.16731 9.56153 9.21874C9.61725 9.2616 9.64725 9.30874 9.65153 9.36445L9.34725 9.23588C9.34289 9.23393 9.33906 9.23097 9.33608 9.22724C9.3331 9.22352 9.33105 9.21913 9.3301 9.21445C9.32747 9.20755 9.32747 9.19992 9.3301 9.19303C9.53153 8.76017 9.8701 8.44731 10.3287 8.34445C10.4658 8.31445 10.6158 8.30588 10.7487 8.3616C10.8344 8.40017 10.8515 8.43445 10.8087 8.46874Z" fill="#202124"/>
<path d="M10.8083 8.46836L10.8512 8.93122C10.7783 8.90122 10.7441 8.98264 10.7183 9.02979L10.7012 9.04264L10.6326 9.07264C10.4355 9.10264 10.2341 9.11979 10.0326 9.12836C9.98978 9.12836 9.97264 9.15407 9.98121 9.2055L9.80121 9.22264C9.7696 9.22416 9.73942 9.23624 9.71549 9.25693C9.69406 9.27407 9.68978 9.29979 9.70692 9.32122C9.72835 9.34264 9.74978 9.34264 9.77121 9.36407C9.76843 9.3669 9.76625 9.37025 9.76478 9.37393C9.76331 9.37761 9.76258 9.38154 9.76263 9.3855C9.71978 9.38979 9.68121 9.3855 9.65121 9.36407C9.65121 9.30836 9.61692 9.26122 9.56549 9.21836C9.53366 9.19732 9.50861 9.16749 9.4934 9.1325C9.47818 9.0975 9.47345 9.05885 9.47978 9.02122C9.49195 8.96065 9.52006 8.90443 9.56121 8.85836C9.85692 8.49407 10.3498 8.21979 10.8083 8.47264V8.46836Z" fill="#A89773"/>
<path d="M11.9785 8.54152C11.9056 8.53295 11.837 8.54152 11.7599 8.51152C11.7256 8.49867 11.7213 8.46867 11.7556 8.41295C11.8703 8.38444 11.9916 8.40133 12.0942 8.4601V8.46867C12.0952 8.47144 12.0952 8.47447 12.0942 8.47724L12.0899 8.48152L11.9785 8.54152Z" fill="#806936"/>
<path d="M11.7555 8.41309C11.7212 8.46451 11.7255 8.4988 11.7555 8.51166C11.8369 8.54166 11.9055 8.53309 11.9784 8.54166C11.9355 8.56737 11.9269 8.60166 11.9484 8.63594C11.9998 8.73023 12.0341 8.82023 12.0512 8.90166C12.018 8.85293 11.9893 8.80129 11.9655 8.74737C11.9526 8.71309 11.9226 8.67023 11.8798 8.71309C11.8745 8.71708 11.8701 8.72225 11.8672 8.72821C11.8642 8.73416 11.8626 8.74072 11.8626 8.74737C11.8626 8.75403 11.8642 8.76059 11.8672 8.76654C11.8701 8.77249 11.8745 8.77767 11.8798 8.78166C11.9484 8.84166 11.9784 8.91023 11.9226 8.99594C11.9173 9.0036 11.9103 9.00991 11.9021 9.01437C11.8939 9.01883 11.8848 9.02133 11.8755 9.02166L11.7469 9.02594C11.7298 9.02594 11.7255 9.03452 11.7255 9.05166V9.06023C11.7255 9.07737 11.7384 9.08594 11.7512 9.08594L11.9484 9.11594C11.9055 9.1288 11.8626 9.13737 11.8284 9.13309C11.8069 9.13309 11.7941 9.14166 11.7855 9.15452C11.7769 9.18023 11.8026 9.20594 11.8198 9.22737C11.6614 9.20929 11.5075 9.16284 11.3655 9.09023C11.3312 9.07309 11.3226 9.04737 11.3312 9.00451C11.3526 8.9188 11.3741 8.82452 11.4084 8.72166C11.4141 8.70016 11.4279 8.68172 11.4469 8.67023L11.6398 8.55451C11.6569 8.54594 11.6612 8.53309 11.6526 8.51594C11.6482 8.51098 11.6421 8.50791 11.6355 8.50737L11.5712 8.49451L11.7555 8.41309Z" fill="#A89773"/>
<path d="M11.5715 8.49414L11.6358 8.507C11.6444 8.507 11.6486 8.507 11.6529 8.51557C11.6615 8.53271 11.6572 8.54557 11.6401 8.55843L11.4472 8.66985C11.437 8.67511 11.4279 8.68238 11.4206 8.69121C11.4132 8.70005 11.4077 8.71027 11.4044 8.72128L11.3315 9.00843C11.3186 9.047 11.3315 9.07271 11.3658 9.09414C11.5363 9.18017 11.7235 9.22841 11.9144 9.23557C11.9572 9.23557 11.9786 9.257 11.9829 9.29128C11.9829 9.29986 11.9829 9.31271 11.9744 9.317C11.9696 9.32515 11.9619 9.33125 11.9529 9.33414C11.8029 9.36414 11.6786 9.34271 11.5458 9.27843C11.4901 9.24843 11.4215 9.227 11.3486 9.21843C11.3229 9.21414 11.3058 9.22271 11.2972 9.24843C11.2932 9.27111 11.2932 9.29432 11.2972 9.317C11.2972 9.347 11.3144 9.35986 11.3401 9.36414C11.3829 9.36843 11.4086 9.377 11.4258 9.38985C11.5415 9.50985 11.6829 9.557 11.8544 9.53557L11.8629 9.587H11.4601C11.4344 9.587 11.4258 9.59985 11.4301 9.62557C11.4448 9.6979 11.4358 9.77306 11.4044 9.83985C11.3744 9.89557 11.3315 9.95557 11.3829 10.0156C11.4129 10.0499 11.4558 10.0456 11.4858 10.0156C11.5329 9.96414 11.5844 9.92557 11.6315 9.887C11.7686 9.797 11.9058 9.80128 12.0558 9.887C12.1029 9.92128 12.1244 9.98985 12.0644 10.0241C11.9596 10.0813 11.8371 10.0966 11.7215 10.067C11.6951 10.0632 11.6681 10.0677 11.6444 10.0799C11.5586 10.1099 11.4858 10.1613 11.4172 10.2256H11.3272C11.3215 10.2239 11.3164 10.2206 11.3126 10.216C11.3088 10.2114 11.3064 10.2058 11.3058 10.1999C11.3101 10.1484 11.2972 10.1184 11.2672 10.1099C11.2501 10.0113 11.2672 9.917 11.3229 9.81843C11.3313 9.80106 11.3357 9.78201 11.3358 9.76271C11.3272 9.677 11.2801 9.63414 11.1986 9.63414L10.7272 9.617C10.7572 9.60414 10.7701 9.58271 10.7701 9.557C10.7701 9.51843 10.7401 9.497 10.7144 9.47128L10.8686 9.26557C10.9115 9.29128 10.9629 9.29557 11.0144 9.27843C11.0786 9.257 11.1344 9.23557 11.1772 9.20128C11.1817 9.19841 11.1855 9.19464 11.1885 9.19022C11.1914 9.18579 11.1934 9.18081 11.1944 9.17557C11.2359 8.98416 11.2773 8.79273 11.3186 8.60128C11.3239 8.59357 11.3314 8.5876 11.3401 8.58414C11.4215 8.57128 11.4986 8.54128 11.5715 8.49414Z" fill="#655B42"/>
<path d="M12.7458 8.78564C12.7419 8.76364 12.7438 8.741 12.7513 8.71996C12.7588 8.69892 12.7717 8.6802 12.7886 8.66564C12.9344 8.54993 13.0972 8.52422 13.2686 8.59279C13.3115 8.60993 13.3972 8.63564 13.3929 8.69993C13.3801 8.78136 13.3801 8.8585 13.3929 8.93564C13.4058 9.06422 13.3758 9.1885 13.3244 9.29993C13.1176 9.70154 12.825 10.0527 12.4672 10.3285C12.4072 10.3756 12.3386 10.3371 12.3386 10.2685C12.3273 10.1729 12.3484 10.0763 12.3986 9.99422C12.4042 9.9868 12.4072 9.97777 12.4072 9.9685C12.4072 9.95923 12.4042 9.95021 12.3986 9.94279L12.1629 9.58707C12.1576 9.57892 12.1541 9.56974 12.1527 9.56014C12.1512 9.55053 12.1518 9.54072 12.1544 9.53136C12.1886 9.38564 12.2401 9.2485 12.3129 9.11993C12.3815 8.99136 12.4758 8.90564 12.6086 8.86279L12.7201 8.81993C12.728 8.81716 12.7347 8.8119 12.7394 8.80494C12.744 8.79798 12.7463 8.78971 12.7458 8.78136V8.78564Z" fill="#DECDAF"/>
<path d="M13.1142 8.8069C13.067 8.82404 13.0285 8.86261 13.0413 8.91404C13.1013 9.1969 13.0413 9.45404 12.8528 9.68547C12.827 9.7069 12.8099 9.7069 12.797 9.6769L12.7885 9.66404C12.7812 9.65052 12.7782 9.63515 12.7797 9.61988C12.7812 9.60461 12.7873 9.59014 12.797 9.57833C12.9256 9.39833 13.0328 9.1669 12.9256 8.96119C12.9085 8.93119 12.8828 8.90976 12.8656 8.88404C12.8606 8.8749 12.8591 8.86423 12.8613 8.85404C12.863 8.84854 12.8657 8.84342 12.8694 8.83901C12.8731 8.83459 12.8776 8.83096 12.8828 8.82833L12.9856 8.77261C13.0156 8.75547 13.0285 8.72547 13.0499 8.69547C13.0534 8.68993 13.059 8.68596 13.0653 8.68436C13.0717 8.68277 13.0785 8.68368 13.0842 8.6869C13.127 8.70833 13.1442 8.7469 13.127 8.79404C13.127 8.80261 13.1228 8.8069 13.1142 8.8069Z" fill="#A58443"/>
<path d="M10.8513 8.93128C10.8856 9.0127 10.8942 9.09842 10.8813 9.18842C10.8813 9.21842 10.8727 9.24413 10.8685 9.26556L10.7142 9.47556C10.6284 9.49176 10.5399 9.48586 10.457 9.45842C10.4888 9.44807 10.5222 9.44371 10.5556 9.44556C10.5727 9.44556 10.5942 9.43699 10.607 9.42413C10.6117 9.41951 10.6147 9.41349 10.6156 9.40699C10.6285 9.32985 10.6627 9.27842 10.7227 9.23556C10.7656 9.20985 10.7956 9.14128 10.7442 9.1027C10.7185 9.08128 10.667 9.09842 10.6327 9.1027V9.0727L10.7013 9.0427C10.7099 9.0427 10.7142 9.03413 10.7185 9.02985C10.7442 8.9827 10.7785 8.90128 10.847 8.93128H10.8513Z" fill="#202124"/>
<path d="M10.6288 9.07275L10.633 9.10275C10.573 9.15847 10.5473 9.19704 10.453 9.22704C10.363 9.25275 10.273 9.2399 10.1788 9.22704C10.1102 9.21418 10.0459 9.2099 9.98162 9.20561C9.97304 9.15418 9.99019 9.12847 10.0373 9.12847C10.2345 9.1199 10.4359 9.10275 10.633 9.07275H10.6288Z" fill="#19110A"/>
<path d="M10.4571 9.45855C10.4358 9.45542 10.4143 9.45399 10.3928 9.45426L10.3285 9.44998C10.1425 9.42325 9.95678 9.39467 9.77135 9.36426C9.74992 9.34284 9.72849 9.34283 9.70706 9.32141C9.68992 9.29569 9.69421 9.27855 9.71992 9.25712C9.74385 9.23643 9.77403 9.22435 9.80563 9.22284C9.86135 9.22284 9.92135 9.21426 9.97706 9.20569C10.0456 9.20569 10.1099 9.21426 10.1785 9.22712C10.2728 9.23998 10.3628 9.25284 10.4528 9.22712C10.5428 9.19712 10.5728 9.15855 10.6328 9.10283C10.6671 9.09855 10.7185 9.08141 10.7442 9.10283C10.7956 9.14141 10.7656 9.20998 10.7228 9.23569C10.6933 9.25453 10.6684 9.27969 10.6499 9.30934C10.6314 9.33899 10.6197 9.37239 10.6156 9.40712C10.6156 9.41569 10.6156 9.41998 10.6071 9.42426C10.5934 9.43794 10.5749 9.44565 10.5556 9.44569C10.5213 9.44569 10.4871 9.44569 10.4528 9.45855H10.4571ZM12.1285 9.13712L12.1371 9.18855L12.1328 9.20998L12.0299 9.45426C12.0265 9.46421 12.0209 9.47325 12.0135 9.48068C12.0061 9.48812 11.997 9.49374 11.9871 9.49712L11.8542 9.53569C11.6828 9.55712 11.5413 9.50998 11.4256 9.38998C11.4085 9.37712 11.3828 9.36855 11.3399 9.36426C11.3142 9.36426 11.2971 9.34712 11.2971 9.32141V9.24855C11.3056 9.22283 11.3228 9.21426 11.3485 9.21855C11.4213 9.22712 11.4899 9.24855 11.5456 9.27855C11.6785 9.34283 11.8028 9.36426 11.9528 9.33426C11.9613 9.33426 11.9699 9.32569 11.9742 9.31712C11.9801 9.30987 11.9831 9.30073 11.9828 9.29141C11.9785 9.25712 11.9571 9.23569 11.9142 9.23569C11.8828 9.2331 11.8513 9.23025 11.8199 9.22712C11.8028 9.20569 11.7771 9.18426 11.7856 9.15426C11.7942 9.14141 11.8071 9.13283 11.8285 9.13283C11.8628 9.13283 11.9013 9.13284 11.9485 9.11569L12.0513 9.11141C12.0653 9.10897 12.0797 9.11004 12.0932 9.11453C12.1066 9.11902 12.1188 9.12678 12.1285 9.13712Z" fill="#DECDAF"/>
<path d="M9.77127 9.36426C9.99945 9.39843 10.228 9.42986 10.457 9.45854C10.5384 9.48426 10.6241 9.49283 10.7141 9.47569C10.7398 9.49712 10.7698 9.51854 10.7698 9.5614C10.7698 9.58283 10.757 9.60426 10.727 9.61712C10.5684 9.64283 10.4698 9.59569 10.337 9.54426C10.2427 9.51426 10.1527 9.5014 10.0541 9.48426C9.95198 9.46862 9.85336 9.43526 9.7627 9.38569C9.7627 9.37711 9.76269 9.36854 9.77127 9.36426Z" fill="#19110A"/>
<path d="M11.2416 9.38136C11.2455 9.38123 11.2493 9.38244 11.2525 9.38478C11.2556 9.38711 11.2578 9.39044 11.2588 9.39421V9.40279C11.2614 9.41613 11.2612 9.42987 11.2583 9.44315C11.2553 9.45643 11.2497 9.46895 11.2416 9.47993C11.2248 9.50136 11.2001 9.51524 11.1731 9.5185H11.1559C11.1302 9.52278 11.1045 9.5185 11.0831 9.50136C11.0715 9.49361 11.0617 9.48349 11.0543 9.47167C11.0469 9.45985 11.0421 9.4466 11.0402 9.43279V9.42421C11.0396 9.42196 11.0394 9.4196 11.0397 9.41728C11.04 9.41496 11.0408 9.41273 11.042 9.41072C11.0432 9.40871 11.0448 9.40697 11.0467 9.40561C11.0486 9.40424 11.0508 9.40328 11.0531 9.40279L11.2416 9.38136ZM11.8631 9.58707L11.9102 9.6085C11.9531 9.62993 12.0002 9.6385 12.0516 9.64707C12.1545 9.65993 12.2873 9.85278 12.3388 9.94707C12.3516 9.96421 12.3516 9.98136 12.3388 9.9985C12.2059 10.2428 11.9873 10.2214 11.7602 10.1442C11.7372 10.1346 11.7115 10.1336 11.6879 10.1415C11.6642 10.1494 11.6442 10.1656 11.6316 10.1871V10.2085C11.6445 10.2514 11.6745 10.2856 11.7302 10.2942C11.8545 10.3156 11.9531 10.4142 12.0131 10.5256C12.0645 10.6199 12.1159 10.7056 12.1845 10.7828C12.2831 10.9028 12.3902 11.0056 12.5102 11.0999C12.5959 11.1856 12.6559 11.2499 12.6902 11.2756C12.8445 11.4042 12.9816 11.5499 13.1016 11.7085C13.1231 11.7685 13.1616 11.8199 13.1488 11.8885C13.1316 12.0042 12.9773 11.9399 12.9173 11.9142C12.8616 11.8885 12.8188 11.8456 12.7631 11.8328C12.7082 11.82 12.6522 11.8128 12.5959 11.8114C12.5564 11.8102 12.5176 11.7999 12.4827 11.7813C12.4477 11.7628 12.4176 11.7364 12.3945 11.7042C12.3873 11.6942 12.3775 11.6865 12.3661 11.682C12.3547 11.6774 12.3423 11.6762 12.3302 11.6785C12.2656 11.6919 12.1985 11.686 12.1373 11.6614C11.8459 11.5414 11.5802 11.3185 11.4602 11.0314L11.3916 10.8171C11.3745 10.7485 11.3488 10.6756 11.3145 10.5985C11.2716 10.5128 11.2631 10.4356 11.3059 10.3542C11.3323 10.3031 11.3705 10.259 11.4173 10.2256C11.4859 10.1614 11.5631 10.1099 11.6445 10.0799C11.6687 10.0692 11.6956 10.0662 11.7216 10.0714C11.8416 10.0971 11.9573 10.0842 12.0645 10.0285C12.1245 9.98993 12.1073 9.92136 12.0559 9.89136C11.9059 9.79707 11.7688 9.79707 11.6359 9.89136C11.5845 9.92564 11.5331 9.96421 11.4859 10.0156C11.4559 10.0456 11.4131 10.0499 11.3831 10.0156C11.3359 9.95564 11.3745 9.89564 11.4045 9.84421C11.4368 9.77616 11.4459 9.69935 11.4302 9.62564C11.4259 9.59993 11.4345 9.58279 11.4602 9.58279H11.8631V9.58707Z" fill="#DECDAF"/>
<path d="M9.7373 9.68593C10.0373 9.68593 10.3073 9.77164 10.5516 9.95164C10.4616 9.9645 10.3716 9.95593 10.2902 9.9345C10.2611 9.92365 10.2292 9.92365 10.2002 9.9345C10.1444 9.96021 10.0844 9.98164 10.0159 9.99878C9.94731 10.0159 9.91302 10.0759 9.95159 10.1488C9.90873 10.1531 9.87445 10.0802 9.86588 10.0416V9.9045C9.87873 9.80593 9.83588 9.7545 9.7373 9.76736V9.68164V9.68593Z" fill="#7C7B79"/>
<path d="M15.7117 15.8185L15.716 15.8613L18.1202 15.8356C18.1374 15.8356 18.1502 15.8485 18.1545 15.8742V15.887C17.3342 17.1746 16.1348 18.1763 14.7217 18.7542C14.606 18.8013 14.486 18.8399 14.3617 18.8785L13.6074 19.0927C13.4874 19.1313 13.3631 19.157 13.2302 19.1785C12.9088 19.2342 12.5831 19.2685 12.2531 19.2813C12.2445 18.7413 12.236 18.2013 12.2402 17.6613C12.2363 17.4811 12.2277 17.3011 12.2145 17.1213C12.1545 16.997 12.086 16.8727 12.0088 16.7485C11.9937 16.7243 11.9749 16.7026 11.9531 16.6842C11.8374 16.5899 11.8288 16.4013 11.8245 16.2642C11.8245 16.2513 11.8245 16.2385 11.8331 16.2256C11.9188 16.0627 11.9617 15.8827 11.9617 15.6813C12.0731 15.7927 12.1974 15.8442 12.3345 15.8442C13.1158 15.8222 13.8977 15.825 14.6788 15.8527C14.6788 15.8485 14.6788 15.8442 14.6702 15.8442L14.2117 15.677C13.7839 15.5248 13.3948 15.2805 13.0719 14.9613C12.749 14.6421 12.5002 14.2559 12.3431 13.8299C12.3302 13.8127 12.3174 13.8085 12.3045 13.8042L11.7645 13.7356C11.7217 13.7142 11.7131 13.6842 11.726 13.6499C11.7345 13.6309 11.7498 13.6156 11.7688 13.607C11.9574 13.5213 12.146 13.4656 12.3345 13.4442L12.4117 13.4227C12.4146 13.4211 12.417 13.4185 12.4186 13.4155C12.4201 13.4124 12.4207 13.409 12.4202 13.4056V13.397L12.4117 13.3927C11.7784 13.1318 11.1034 12.9867 10.4188 12.9642C10.4136 12.9582 10.4105 12.9507 10.4102 12.9427V12.9213C10.406 12.9042 10.4102 12.8956 10.4274 12.8956C10.6545 12.8956 10.8302 12.8956 10.9502 12.917C11.4431 12.9856 11.9702 13.1185 12.4845 13.2899C12.6474 13.3456 12.8274 13.3842 12.9988 13.4185C12.9939 13.5098 12.9736 13.5996 12.9388 13.6842C12.9342 13.6943 12.9318 13.7052 12.9318 13.7163C12.9318 13.7274 12.9342 13.7384 12.9388 13.7485C12.9774 13.8342 13.0245 13.9285 13.076 14.0185C13.3331 14.447 14.0488 15.0556 14.5631 15.137C14.876 15.1885 15.1888 15.2013 15.506 15.1799C16.2731 15.1199 16.9674 14.5285 17.3231 13.877C17.5074 13.5385 17.5888 13.1742 17.5717 12.7842C17.5743 12.3547 17.462 11.9323 17.2465 11.5608C17.031 11.1893 16.7201 10.8822 16.346 10.6713C16.0001 10.4894 15.6138 10.3979 15.2231 10.4056C14.6138 10.3817 14.0176 10.5866 13.5517 10.9799C13.4017 11.1042 13.286 11.2499 13.2045 11.4256C13.1711 11.4917 13.1591 11.5666 13.1702 11.6399C13.1731 11.6501 13.172 11.6611 13.1673 11.6706C13.1625 11.6801 13.1544 11.6875 13.1445 11.6913L13.1017 11.7085C12.9817 11.5499 12.8445 11.4085 12.6902 11.2799C12.6274 11.2228 12.5673 11.1627 12.5102 11.0999C12.5265 11.0844 12.5478 11.0753 12.5702 11.0742C12.6045 11.1127 12.6517 11.1556 12.6902 11.0999C12.8188 10.937 12.956 10.787 13.0888 10.6456C13.5854 10.1254 14.2645 9.81811 14.9831 9.78846C15.386 9.76703 15.7674 9.79274 16.1402 9.9256C16.7955 10.1598 17.3536 10.6063 17.726 11.1942C17.8331 11.357 17.9017 11.5456 17.9874 11.7256C18.0002 11.7513 18.0217 11.7685 18.0517 11.7685C18.2145 11.7813 18.3645 11.8113 18.5017 11.8542C18.8188 11.9485 19.016 12.1627 19.1317 12.4756C19.2431 12.7756 19.1831 13.097 19.0074 13.3756C18.8831 13.5685 18.6774 13.7227 18.4502 13.7742C18.3302 13.7999 18.2017 13.7913 18.0731 13.7999C18.0549 13.8 18.0372 13.8058 18.0226 13.8166C18.0079 13.8274 17.9971 13.8425 17.9917 13.8599C17.8419 14.2577 17.6115 14.6202 17.3151 14.9248C17.0186 15.2294 16.6624 15.4694 16.2688 15.6299C16.0974 15.6985 15.9131 15.7585 15.7117 15.8185Z" fill="#655B42"/>
<path d="M10.5473 9.95154C10.6544 9.96869 10.7402 10.0201 10.813 10.1015L10.8259 10.1273C10.813 10.1701 10.7744 10.1873 10.723 10.183L10.5002 10.2001C10.3157 10.2045 10.1314 10.1857 9.95159 10.1444C9.90873 10.0758 9.9473 10.0158 10.0159 9.99869C10.0844 9.98154 10.1444 9.96012 10.2002 9.9344C10.2292 9.92356 10.2611 9.92356 10.2902 9.9344C10.3759 9.95583 10.4616 9.9644 10.5473 9.95154Z" fill="#19110A"/>
<path d="M11.2713 10.1099C11.2971 10.1184 11.3142 10.1527 11.3056 10.1956C11.3049 10.2002 11.3053 10.205 11.3067 10.2095C11.3082 10.214 11.3107 10.2181 11.3141 10.2214C11.3174 10.2248 11.3215 10.2273 11.326 10.2288C11.3305 10.2302 11.3352 10.2306 11.3399 10.2299C11.3652 10.2242 11.3913 10.2228 11.4171 10.2256C11.3702 10.2589 11.332 10.303 11.3056 10.3541C11.2628 10.4399 11.2713 10.5127 11.3142 10.5984C11.3462 10.6674 11.372 10.7392 11.3913 10.8127C11.4128 10.8984 11.4342 10.9713 11.4599 11.027C11.5799 11.3184 11.8456 11.5413 12.1371 11.6613C12.2013 11.687 12.2656 11.6913 12.3299 11.6784C12.3556 11.6784 12.3771 11.6827 12.3942 11.7041C12.4173 11.7363 12.4474 11.7627 12.4824 11.7813C12.5173 11.7999 12.5561 11.8101 12.5956 11.8113C12.6599 11.8113 12.7156 11.8199 12.7628 11.8327C12.8185 11.8456 12.8613 11.8884 12.9171 11.9141C12.9771 11.9399 13.1313 11.9999 13.1485 11.8884C13.1613 11.8199 13.1228 11.7684 13.1013 11.7084L13.1442 11.6913C13.1541 11.6874 13.1622 11.68 13.167 11.6705C13.1717 11.661 13.1728 11.6501 13.1699 11.6399C13.1587 11.5666 13.1707 11.4917 13.2042 11.4256C13.2856 11.2541 13.4013 11.1041 13.5471 10.9799C14.013 10.5865 14.6092 10.3817 15.2185 10.4056C15.6106 10.3972 15.9985 10.4886 16.3456 10.6713C16.7198 10.8822 17.0307 11.1893 17.2462 11.5608C17.4617 11.9323 17.574 12.3547 17.5713 12.7841C17.5912 13.1644 17.5052 13.5427 17.3228 13.877C16.9671 14.5284 16.2728 15.1199 15.5013 15.1756C15.1885 15.2013 14.8756 15.1884 14.5585 15.137C14.0485 15.0556 13.3285 14.4513 13.0756 14.0184C13.0248 13.9311 12.979 13.841 12.9385 13.7484C12.9339 13.7384 12.9315 13.7274 12.9315 13.7163C12.9315 13.7052 12.9339 13.6942 12.9385 13.6841C12.9728 13.5984 12.9899 13.5127 12.9985 13.4227C13.1485 13.4013 13.2685 13.337 13.3542 13.2213C13.4271 13.1313 13.4356 13.0327 13.3499 12.9513H13.3413C13.3386 12.9511 13.3358 12.9519 13.3335 12.9534C13.3312 12.955 13.3294 12.9572 13.3285 12.9599C13.3028 13.1527 13.1956 13.307 12.9771 13.2256L13.1913 12.8699C13.2008 12.8529 13.2053 12.8336 13.2042 12.8141C13.2039 12.8115 13.2029 12.8089 13.2014 12.8067C13.2 12.8045 13.198 12.8026 13.1956 12.8013C13.1542 12.772 13.105 12.7556 13.0542 12.7541C12.9685 12.7541 12.9299 12.6684 12.9599 12.5913C12.9942 12.4841 12.9985 12.3556 12.8871 12.2913C12.8956 12.2784 12.8913 12.257 12.8871 12.227L13.1913 12.2313C13.2471 12.2313 13.2685 12.2056 13.2513 12.1541V12.1413C13.2433 12.1168 13.2279 12.0953 13.2072 12.08C13.1864 12.0646 13.1614 12.0561 13.1356 12.0556L12.5956 12.0127C12.5742 12.0127 12.5528 12.0127 12.5399 12.0299C12.4371 12.1284 12.3085 12.1884 12.1542 12.2227H12.1371C12.1199 12.2099 12.1199 12.1927 12.1413 12.1584L12.4071 11.9913C12.4176 11.9865 12.4269 11.9794 12.4344 11.9705C12.4418 11.9616 12.4471 11.9511 12.4499 11.9399C12.4585 11.8584 12.3342 11.7813 12.2785 11.7556C12.1156 11.6913 11.9571 11.6399 11.7985 11.5927C11.7342 11.5713 11.6828 11.5499 11.6399 11.5199C11.4365 11.3508 11.306 11.1098 11.2756 10.847C11.2585 10.7399 11.2328 10.6456 11.2071 10.547C11.1923 10.4955 11.1879 10.4416 11.1942 10.3884C11.1942 10.3627 11.2071 10.3241 11.2285 10.2599C11.2499 10.217 11.2628 10.1613 11.2713 10.1099Z" fill="#7C7B79"/>
<path d="M10.8255 10.127L10.8341 10.1355L10.8427 10.1398C10.9027 10.2255 10.9412 10.3112 10.9584 10.4141C10.9584 10.427 10.9584 10.4355 10.9412 10.4398C10.9155 10.4398 10.8984 10.4312 10.8941 10.4055C10.8598 10.3198 10.8169 10.217 10.7227 10.1827C10.7741 10.187 10.8084 10.1698 10.8255 10.127Z" fill="#A89773"/>
<path d="M10.0116 10.294H10.3416C10.363 10.3112 10.3716 10.3369 10.3716 10.3798L10.0373 10.5169C9.95156 10.4955 9.87441 10.4569 9.80156 10.3969L9.74156 10.3412C9.73945 10.3388 9.73828 10.3358 9.73828 10.3326C9.73828 10.3295 9.73945 10.3264 9.74156 10.324C9.75013 10.294 9.77156 10.2812 9.80156 10.2855C9.88727 10.2983 9.95584 10.2983 10.0116 10.294Z" fill="#19110A"/>
<path d="M12.1286 10.4142C12.1586 10.4056 12.1758 10.3842 12.1715 10.3585C12.1629 10.337 12.1372 10.3242 12.1115 10.3285C12.0858 10.337 12.0686 10.3627 12.0729 10.3842C12.0772 10.4099 12.1072 10.4227 12.1329 10.4142H12.1286Z" fill="#A89773"/>
<path d="M7.86858 14.7856C7.80001 14.8542 7.73572 14.9227 7.66715 14.9827C7.61572 15.0342 7.58143 15.0684 7.56858 15.0942C7.51715 15.1799 7.53429 15.287 7.54286 15.3856V15.5142C7.52572 15.6556 7.52143 15.7927 7.52143 15.9213C7.52143 15.9899 7.58572 16.0242 7.64143 15.9985C7.84715 15.9042 8.01429 16.0842 8.01858 16.277C8.01858 16.3199 7.99286 16.3584 7.96286 16.3842C7.90715 16.4313 7.85572 16.4827 7.80858 16.5384C7.74 16.6199 7.60286 16.4956 7.55572 16.4399C7.46223 16.396 7.36637 16.3574 7.26858 16.3242C7.22709 16.3104 7.18804 16.2901 7.15286 16.2642C7.03715 16.1784 6.99429 16.0027 7.03286 15.8699C7.05 15.8056 7.11429 15.7713 7.17429 15.767C7.23429 15.767 7.36715 15.737 7.38858 15.6642C7.42287 15.5745 7.42287 15.4753 7.38858 15.3856C7.37143 15.3556 7.35 15.3342 7.32 15.3299C7.26429 15.3256 7.23429 15.3727 7.17858 15.3642C7.12286 15.3599 7.11858 15.3427 7.16572 15.3084L7.23858 15.2313C7.34143 15.1499 7.43143 15.0599 7.51286 14.9442C7.58143 14.8584 7.64143 14.7642 7.71858 14.6956C7.83 14.5884 7.97572 14.5199 8.04858 14.3699C8.10429 14.2499 8.14286 14.1213 8.16429 13.9842C8.22858 13.4999 8.25429 13.0284 8.23715 12.557C8.23715 12.4542 8.20715 12.3513 8.15572 12.2442C8.14671 12.2242 8.13519 12.2055 8.12143 12.1884C8.11836 12.1841 8.11378 12.181 8.10858 12.1799C8.06572 12.1756 8.04429 12.1927 8.03572 12.2313C8.03486 12.2332 8.03334 12.2347 8.03143 12.2356H8.01858L8.01429 12.2227V12.2142L8.25 10.757C8.27572 10.7442 8.28429 10.7613 8.28 10.8127C8.26715 11.0184 8.23715 11.2499 8.18143 11.4984C8.15143 11.6613 8.15572 11.8327 8.20286 12.0127C8.23286 12.1113 8.30143 12.2227 8.34429 12.3256C8.39781 12.4517 8.44502 12.5805 8.48572 12.7113C8.48403 12.7163 8.48122 12.7208 8.4775 12.7245C8.47379 12.7282 8.46927 12.731 8.46429 12.7327H8.45143C8.4 12.7284 8.31 12.6899 8.31 12.7842C8.30572 13.2127 8.27572 13.5984 8.22429 13.9413C8.18143 14.2499 8.06143 14.5284 7.86858 14.7856Z" fill="#301813"/>
<path d="M14.8841 12.0987C14.8841 12.2873 14.807 12.4673 14.6741 12.6002C14.5756 12.6988 14.4499 12.7659 14.3131 12.7929C14.1764 12.8199 14.0346 12.8056 13.906 12.7519C13.7773 12.6981 13.6676 12.6073 13.5907 12.491C13.5138 12.3747 13.4732 12.2382 13.4741 12.0987C13.4741 11.9112 13.5486 11.7313 13.6813 11.5987C13.8139 11.4661 13.9937 11.3916 14.1813 11.3916C14.3688 11.3916 14.5487 11.4661 14.6813 11.5987C14.8139 11.7313 14.8884 11.9112 14.8884 12.0987H14.8841ZM16.9113 12.2402C16.9105 12.3654 16.8732 12.4877 16.8039 12.592C16.7346 12.6963 16.6364 12.7781 16.5213 12.8273C16.4446 12.8601 16.3621 12.8773 16.2787 12.8778C16.1952 12.8782 16.1126 12.862 16.0355 12.8301C15.9584 12.7981 15.8885 12.7511 15.8299 12.6918C15.7713 12.6324 15.7251 12.5619 15.6941 12.4845C15.6466 12.368 15.6342 12.2402 15.6586 12.1167C15.6829 11.9933 15.743 11.8798 15.8313 11.7902C15.9194 11.7002 16.0325 11.6387 16.1559 11.6136C16.2793 11.5886 16.4074 11.601 16.5237 11.6495C16.6399 11.6979 16.739 11.7801 16.8081 11.8854C16.8772 11.9907 16.9131 12.1142 16.9113 12.2402Z" fill="#F9FBFD"/>
<path d="M14.5971 12.2016C14.5971 12.3067 14.5553 12.4076 14.4809 12.4819C14.4066 12.5563 14.3058 12.598 14.2006 12.598C14.0955 12.598 13.9947 12.5563 13.9203 12.4819C13.846 12.4076 13.8042 12.3067 13.8042 12.2016C13.8042 12.0965 13.846 11.9956 13.9203 11.9213C13.9947 11.8469 14.0955 11.8052 14.2006 11.8052C14.3058 11.8052 14.4066 11.8469 14.4809 11.9213C14.5553 11.9956 14.5971 12.0965 14.5971 12.2016Z" fill="#BEC4D9"/>
<path d="M16.0414 12.2744C16.0971 12.3601 16.2 12.3901 16.2728 12.3429C16.3457 12.2958 16.3585 12.1844 16.3028 12.0986C16.2471 12.0129 16.1442 11.9829 16.0714 12.0301C15.9985 12.0815 15.9857 12.1886 16.0414 12.2744Z" fill="#202124"/>
<path d="M12.8829 12.227C12.8501 12.224 12.8172 12.2225 12.7843 12.2227C12.75 12.2227 12.72 12.2227 12.69 12.2355C12.4543 12.3084 12.2486 12.4155 12.0643 12.5527C12.0343 12.5741 12.0343 12.617 12.0643 12.6384L12.2529 12.7627C12.2743 12.7755 12.3 12.7841 12.3258 12.7841H12.5486C12.5615 12.7841 12.5743 12.7798 12.5829 12.7712L12.7243 12.6427C12.7886 12.587 12.8143 12.4841 12.7243 12.437C12.7176 12.4331 12.712 12.4274 12.7083 12.4206C12.7045 12.4138 12.7026 12.4062 12.7029 12.3984C12.7034 12.3913 12.7056 12.3845 12.7093 12.3786C12.7131 12.3726 12.7182 12.3676 12.7243 12.3641L12.8872 12.2912C12.9986 12.3555 12.9943 12.4841 12.96 12.5912C12.93 12.6684 12.9686 12.7498 13.0543 12.7541C13.1046 12.7542 13.1538 12.7691 13.1958 12.797C13.1987 12.7986 13.2011 12.8012 13.2027 12.8042C13.2042 12.8073 13.2048 12.8107 13.2043 12.8141C13.2043 12.8312 13.2 12.8484 13.1872 12.8698L12.9772 13.2255C12.7543 13.1612 12.54 13.0841 12.33 12.9855C12.2989 12.9724 12.2652 12.9666 12.2315 12.9684C12.06 12.977 11.9315 12.8741 11.7729 12.8484L11.4172 12.7798C11.3315 12.7627 11.2543 12.7541 11.1815 12.7541C11.0358 12.7541 10.7958 12.7584 10.6758 12.6641C10.6748 12.6633 10.6741 12.6623 10.6736 12.6612C10.6731 12.6601 10.6729 12.6589 10.6729 12.6577C10.6729 12.6565 10.6731 12.6553 10.6736 12.6541C10.6741 12.653 10.6748 12.652 10.6758 12.6512C10.7029 12.6392 10.7319 12.632 10.7615 12.6298C11.0315 12.617 11.2843 12.5912 11.5029 12.4327C11.5543 12.3898 11.6186 12.3598 11.6829 12.3427C11.8355 12.2972 11.9834 12.2369 12.1243 12.1627H12.1415C12.12 12.1927 12.12 12.2098 12.1372 12.2184H12.1586C12.3086 12.1884 12.4372 12.1284 12.54 12.0298C12.5476 12.0233 12.5565 12.0184 12.5661 12.0154C12.5757 12.0125 12.5858 12.0115 12.5958 12.0127L13.1358 12.0555C13.1632 12.0568 13.1895 12.0672 13.2104 12.0851C13.2314 12.1029 13.2458 12.1272 13.2515 12.1541C13.2686 12.2055 13.2472 12.2312 13.1915 12.2312H12.8829V12.227Z" fill="#A89773"/>
<path d="M14.2285 12.0429H14.1428C14.1147 12.0439 14.0881 12.0555 14.0682 12.0754C14.0483 12.0953 14.0367 12.1219 14.0356 12.15V12.2186C14.0356 12.2786 14.0785 12.33 14.1428 12.33H14.2199C14.2842 12.33 14.3314 12.2829 14.3314 12.2186V12.1543C14.3319 12.1397 14.3296 12.125 14.3245 12.1113C14.3195 12.0976 14.3117 12.085 14.3018 12.0742C14.2918 12.0635 14.2799 12.0548 14.2665 12.0487C14.2532 12.0426 14.2389 12.0391 14.2242 12.0386L14.2285 12.0429Z" fill="#202124"/>
<path d="M9.19269 13.0629C9.22698 13.1229 9.26555 13.17 9.31698 13.2043C9.32984 13.3286 9.38126 13.4272 9.47126 13.4958C9.71555 13.6886 10.0027 13.7915 10.3284 13.8043C10.7356 13.8258 11.1427 13.8043 11.5456 13.7358C11.4469 13.8006 11.3403 13.8525 11.2284 13.89C11.1513 13.9158 11.0441 13.9329 10.8984 13.95L10.3541 14.0058C10.1216 13.9813 9.89671 13.9083 9.69412 13.7915C9.52269 13.6886 9.37269 13.5686 9.23126 13.4315C9.21412 13.4143 9.19698 13.3886 9.19269 13.3672C9.17813 13.2475 9.12201 13.1368 9.03412 13.0543C9.02126 13.0415 9.00412 13.0372 8.98698 13.0543C8.95698 13.0758 8.92698 13.0972 8.88412 13.0715C8.78555 13.0115 8.71698 12.9643 8.69984 12.8486C8.66984 12.6258 8.63126 12.3986 8.57555 12.1715C8.56698 12.1329 8.57555 12.1286 8.59698 12.1629C8.65698 12.2443 8.69984 12.33 8.72555 12.42C8.76841 12.5486 8.83698 12.6686 8.87555 12.8015C8.89698 12.8615 8.96555 12.8743 9.02126 12.87C9.02984 12.87 9.03841 12.8743 9.04269 12.8829L9.10698 12.99C9.12841 13.02 9.15412 13.0458 9.19269 13.0629ZM12.8827 12.2272C12.8913 12.2572 12.8955 12.2786 12.887 12.2915L12.7241 12.3643C12.7148 12.3697 12.7078 12.3785 12.7046 12.3888C12.7014 12.3992 12.7023 12.4103 12.707 12.42C12.707 12.4286 12.7155 12.4329 12.7241 12.4372C12.8141 12.4843 12.7884 12.5872 12.7241 12.6472C12.6813 12.69 12.6341 12.7329 12.5827 12.7715C12.5732 12.7798 12.561 12.7844 12.5484 12.7843H12.3255C12.2997 12.7847 12.2743 12.7772 12.2527 12.7629L12.0641 12.6386C12.0341 12.6172 12.0341 12.5743 12.0641 12.5529C12.2484 12.4158 12.4541 12.3086 12.6898 12.2358C12.7203 12.2262 12.7522 12.2218 12.7841 12.2229L12.8827 12.2272Z" fill="#19110A"/>
<path d="M18.1498 12.4714C18.1509 12.4613 18.1539 12.4514 18.1588 12.4425C18.1637 12.4335 18.1703 12.4256 18.1783 12.4192C18.1863 12.4129 18.1955 12.4081 18.2053 12.4053C18.2151 12.4025 18.2254 12.4017 18.2355 12.4029H18.2441C18.3341 12.4072 18.4198 12.4543 18.4798 12.5314C18.5398 12.6086 18.5655 12.7072 18.5655 12.81L18.5569 12.8614C18.5523 12.9612 18.5111 13.0558 18.4412 13.1272C18.4083 13.16 18.3686 13.1855 18.325 13.2017C18.2814 13.218 18.2348 13.2247 18.1884 13.2214H18.1798C18.1693 13.2209 18.159 13.2183 18.1495 13.2136C18.14 13.2089 18.1316 13.2024 18.1248 13.1944C18.118 13.1863 18.1129 13.177 18.1098 13.1669C18.1067 13.1568 18.1057 13.1462 18.1069 13.1357L18.1498 12.4757V12.4714Z" fill="#7C7B79"/>
<path d="M9.31299 13.2002L9.51442 13.2731C10.0217 13.4562 10.5648 13.5178 11.1001 13.4531C11.2373 13.4402 11.3873 13.4359 11.5458 13.4488C11.5887 13.4488 11.623 13.4488 11.6487 13.4359C11.7001 13.4102 11.7601 13.3159 11.7001 13.2645C11.6808 13.2481 11.6623 13.231 11.6444 13.2131C11.9048 13.2584 12.1623 13.3185 12.4158 13.3931V13.3973L12.4201 13.4059C12.4206 13.4093 12.42 13.4127 12.4185 13.4158C12.4169 13.4188 12.4145 13.4214 12.4116 13.4231C12.3872 13.4343 12.3611 13.4416 12.3344 13.4445C12.1458 13.4659 11.9573 13.5216 11.7687 13.6073C11.7497 13.6159 11.7344 13.6312 11.7258 13.6502C11.713 13.6845 11.7258 13.7102 11.7687 13.7359C11.6744 13.7702 11.5973 13.7702 11.5458 13.7359C11.1387 13.8045 10.7316 13.8259 10.3244 13.8045C10.0147 13.7941 9.71622 13.6861 9.47156 13.4959C9.42654 13.4608 9.38922 13.4168 9.36194 13.3667C9.33466 13.3166 9.318 13.2613 9.31299 13.2045V13.2002Z" fill="#A89773"/>
<path d="M16.8641 14.1171C16.8641 14.3014 16.6884 14.4814 16.3712 14.6143C15.7803 14.8155 15.1493 14.8699 14.5326 14.7729C14.3312 14.7343 14.1469 14.6871 13.9884 14.6229C13.852 14.5717 13.7268 14.4945 13.6198 14.3957C13.5434 14.3277 13.4971 14.2321 13.4912 14.13C13.4912 13.9414 13.6669 13.7657 13.9841 13.6329C14.3012 13.5043 14.7298 13.4271 15.1755 13.4229C15.3984 13.4229 15.6169 13.44 15.8184 13.4743C16.0241 13.5086 16.2126 13.56 16.3669 13.6243C16.5255 13.6886 16.6498 13.7657 16.7355 13.8514C16.8212 13.9371 16.8641 14.0229 16.8641 14.1171Z" fill="#DD999E"/>
<path d="M14.8716 13.62L14.7859 13.6157C14.7639 13.6157 14.7427 13.6241 14.7268 13.6393C14.7108 13.6545 14.7013 13.6752 14.7002 13.6972V13.7229C14.7002 13.7657 14.7345 13.8086 14.7773 13.8086L14.8631 13.8129C14.9102 13.8129 14.9488 13.7786 14.9488 13.7357L14.9531 13.71C14.9543 13.688 14.9469 13.6663 14.9325 13.6495C14.9182 13.6328 14.8979 13.6222 14.8759 13.62H14.8716Z" fill="#655B42"/>
<path d="M15.5484 13.8214C15.6255 13.7999 15.6769 13.7356 15.6598 13.6842C15.6427 13.6285 15.5698 13.6028 15.4927 13.6242C15.4155 13.6456 15.3641 13.7099 15.3812 13.7614C15.3984 13.8171 15.4712 13.8428 15.5484 13.8214Z" fill="#A15045"/>
<path d="M11.7641 13.7358L12.3041 13.8044C12.317 13.8044 12.3298 13.813 12.3427 13.8301L12.3598 13.8601C12.6898 14.7173 13.3498 15.3687 14.2113 15.6773L14.6698 15.8444C14.5055 15.8438 14.3413 15.8438 14.177 15.8444C13.5628 15.8291 12.9483 15.8291 12.3341 15.8444C12.197 15.8444 12.077 15.793 11.9655 15.6816C11.7513 15.5444 11.5284 15.4201 11.2884 15.2958C11.2455 15.2787 11.1941 15.2401 11.1598 15.2058C10.9584 14.9873 10.7527 14.8201 10.4998 14.6316C10.4437 14.5926 10.3956 14.5431 10.3584 14.4858C10.3225 14.4205 10.3076 14.3457 10.3155 14.2716C10.307 14.1558 10.3155 14.0658 10.3541 14.0058L10.8984 13.9501C11.0441 13.9373 11.1555 13.9158 11.2284 13.8901C11.3398 13.8516 11.4427 13.8044 11.5455 13.7358C11.6013 13.7701 11.6741 13.7701 11.7641 13.7358Z" fill="#CFCBCB"/>
<path d="M10.3159 14.2715C10.3073 14.3529 10.3202 14.4215 10.3588 14.4857C10.3802 14.5286 10.4316 14.5757 10.5002 14.6315C10.7573 14.82 10.9588 14.9872 11.1645 15.2057C11.1945 15.24 11.2502 15.2786 11.2931 15.3C11.5288 15.42 11.7559 15.5443 11.9659 15.6815C11.9616 15.8786 11.9188 16.0629 11.8373 16.2257C11.8297 16.2372 11.8252 16.2505 11.8245 16.2643C11.8288 16.4015 11.8373 16.59 11.9531 16.6843C11.9745 16.7015 11.9959 16.7272 12.0088 16.7486C12.0859 16.8772 12.1545 16.9972 12.2145 17.1215C12.2262 17.3013 12.2334 17.4813 12.2359 17.6615C12.2359 18.2015 12.2445 18.7415 12.2531 19.2815L11.9659 19.2857L11.9359 18.1457V17.8886C11.9402 17.8586 11.9488 17.8372 11.9573 17.8243C11.9643 17.8153 11.9695 17.8049 11.9724 17.7939C11.9753 17.7829 11.9761 17.7714 11.9745 17.76C11.9553 17.631 11.9495 17.5003 11.9573 17.37C11.9616 17.2843 11.9016 17.2115 11.8116 17.2157C11.7473 17.2157 11.6831 17.2586 11.6145 17.25C11.5459 17.2415 11.5116 17.1729 11.5159 17.1086C11.5245 16.9457 11.5588 16.8043 11.6059 16.6757C11.612 16.6609 11.6145 16.6448 11.6133 16.6287C11.612 16.6127 11.607 16.5972 11.5987 16.5834C11.5904 16.5697 11.5789 16.5581 11.5653 16.5495C11.5517 16.541 11.5362 16.5358 11.5202 16.5343L11.1902 16.4915C11.0831 16.4829 10.9716 16.53 10.9673 16.65C10.9673 16.68 10.9759 16.7057 10.9973 16.7272C11.0831 16.8086 11.1216 16.9029 11.1131 17.0186C11.1088 17.1343 11.0702 17.2372 10.9673 17.3015C10.9142 17.3331 10.8627 17.3675 10.8131 17.4043C10.7188 17.4729 10.5816 17.4129 10.5988 17.2843L10.6202 17.2072C10.6459 17.0486 10.6845 16.8943 10.7402 16.7357C10.7616 16.6757 10.7745 16.6072 10.7745 16.5386C10.7788 16.3886 10.8773 16.2772 10.9202 16.14C10.9931 15.9172 11.0273 15.6557 10.9545 15.4372C10.9245 15.3429 10.8688 15.2615 10.7916 15.1929C10.5385 14.9802 10.3549 14.6966 10.2645 14.3786C10.25 14.3256 10.2456 14.2704 10.2516 14.2157C10.2516 14.19 10.2602 14.1857 10.2731 14.2157C10.2773 14.2286 10.2902 14.2457 10.3159 14.2715Z" fill="#202124"/>
<path d="M16.2727 14.383L14.0656 14.3701C14.061 14.3701 14.0566 14.3719 14.0534 14.3751C14.0502 14.3784 14.0484 14.3827 14.0484 14.3873V14.4773C14.0484 14.4901 14.0527 14.4987 14.0656 14.4987L16.2727 14.5115C16.2856 14.5115 16.2898 14.5073 16.2898 14.4944V14.4044C16.2905 14.4018 16.2906 14.3991 16.29 14.3965C16.2895 14.3939 16.2883 14.3915 16.2866 14.3894C16.285 14.3873 16.2828 14.3857 16.2804 14.3845C16.278 14.3834 16.2754 14.3829 16.2727 14.383ZM7.86841 14.7858C7.86841 14.8715 7.83413 14.953 7.77841 15.0173C7.75698 15.0387 7.74841 15.0558 7.74841 15.0687C7.74413 15.0944 7.76127 15.1201 7.79127 15.1287C7.85556 15.1501 7.92413 15.1715 7.9927 15.2015C8.04413 15.223 8.0527 15.3301 8.04841 15.373C8.04413 15.403 8.04841 15.4287 8.07413 15.4501C8.18497 15.5636 8.29498 15.6779 8.40413 15.793L8.34841 15.7801C8.34564 15.7791 8.34261 15.7791 8.33984 15.7801C8.33736 15.7823 8.33583 15.7854 8.33556 15.7887C8.33556 15.8573 8.33984 15.9258 8.3827 15.9815C8.45555 16.0673 8.52413 16.1487 8.58841 16.2087C8.63984 16.2601 8.60984 16.3373 8.55413 16.3715C8.42555 16.4401 8.29698 16.4873 8.17698 16.5215C8.16841 16.5215 8.16841 16.5258 8.16841 16.5344C8.16841 16.5558 8.16841 16.5687 8.18127 16.5773C8.18556 16.5858 8.19413 16.5901 8.20698 16.5901L8.67841 16.5558C8.72556 16.5558 8.75984 16.5215 8.76841 16.4701L8.78127 16.453C8.82413 16.4144 8.87984 16.4101 8.9227 16.4487C8.98422 16.4969 9.05895 16.5253 9.13698 16.5301C9.17984 16.5301 9.20984 16.5558 9.23984 16.5773C9.29984 16.6201 9.36413 16.6244 9.41984 16.5858C9.4927 16.633 9.5527 16.6244 9.60413 16.5601L9.61698 16.5515H9.62555C9.66841 16.5858 9.68984 16.6201 9.69841 16.6587C9.65127 16.6373 9.6127 16.5987 9.56984 16.6587C9.54745 16.6825 9.53079 16.711 9.52114 16.7422C9.51148 16.7734 9.50908 16.8064 9.51413 16.8387C9.53556 16.9373 9.54841 17.0444 9.55698 17.1558C9.55698 17.1858 9.56555 17.2073 9.59127 17.2287C9.71984 17.353 9.86555 17.3401 10.0198 17.2801C10.1398 17.2373 10.2427 17.1944 10.3284 17.143L10.6198 17.2073L10.6027 17.2844C10.5813 17.413 10.7184 17.473 10.817 17.4044C10.8641 17.3615 10.9156 17.3315 10.967 17.3015C11.0741 17.2373 11.1084 17.1344 11.1127 17.0187C11.1166 16.9645 11.1083 16.9102 11.0882 16.8597C11.0682 16.8092 11.037 16.764 10.997 16.7273C10.9864 16.7175 10.9783 16.7055 10.9731 16.6922C10.9679 16.6788 10.9658 16.6644 10.967 16.6501C10.9713 16.5301 11.0827 16.4787 11.1898 16.4958L11.5198 16.5344C11.5927 16.5387 11.6313 16.6115 11.6056 16.6758C11.5584 16.8044 11.5284 16.9458 11.5198 17.1044C11.5113 17.173 11.5456 17.2415 11.6141 17.2501C11.6784 17.2587 11.7427 17.2158 11.8113 17.2158C11.897 17.2115 11.9613 17.2801 11.957 17.3701C11.9484 17.4901 11.957 17.6187 11.9741 17.7601C11.9741 17.7815 11.9741 17.803 11.957 17.8244C11.9457 17.8424 11.9397 17.8632 11.9398 17.8844L11.9356 18.1415L11.9656 19.2858C10.8058 19.2717 9.66578 18.9841 8.63811 18.4465C7.61045 17.9088 6.72415 17.1362 6.05127 16.1915C6.06841 16.1787 6.08127 16.1615 6.07698 16.1401C6.06841 16.0973 6.08127 16.0544 6.11984 16.033C6.12453 16.0291 6.13015 16.0266 6.13615 16.0256C6.14214 16.0246 6.14828 16.0253 6.15395 16.0274C6.15962 16.0296 6.1646 16.0333 6.1684 16.038C6.17219 16.0427 6.17466 16.0484 6.17556 16.0544C6.17556 16.0844 6.18413 16.1101 6.1927 16.1401C6.2227 16.2515 6.38556 16.3115 6.49698 16.3287C6.5227 16.333 6.53984 16.3244 6.55698 16.303C6.59984 16.2301 6.60841 16.1487 6.5827 16.063C6.55847 15.9749 6.52395 15.8901 6.47984 15.8101C6.44127 15.7415 6.36841 15.6815 6.25698 15.6301L7.2427 15.2315L7.16555 15.3087C7.11841 15.343 7.1227 15.3601 7.17841 15.3644C7.22984 15.3687 7.26413 15.3215 7.31984 15.3301C7.34984 15.3344 7.37127 15.3558 7.38841 15.3858C7.4227 15.463 7.4227 15.5573 7.38841 15.6644C7.36698 15.7373 7.23413 15.7673 7.17413 15.7673C7.11413 15.7673 7.04984 15.8101 7.0327 15.8701C6.99413 15.9987 7.0327 16.1787 7.1527 16.2644C7.1827 16.2858 7.22127 16.3073 7.2727 16.3244C7.36903 16.3578 7.46346 16.3964 7.55555 16.4401C7.6027 16.5001 7.73984 16.6201 7.80841 16.5387C7.85127 16.483 7.90698 16.4315 7.9627 16.3844C7.9927 16.3587 8.0227 16.3244 8.01841 16.2773C8.01841 16.0801 7.84698 15.9044 7.64127 15.9987C7.58556 16.0244 7.52127 15.9901 7.52127 15.9215C7.52127 15.793 7.52556 15.6558 7.5427 15.5144V15.3858C7.53413 15.2873 7.51698 15.1801 7.56841 15.0944C7.58127 15.0687 7.61555 15.0344 7.66698 14.983C7.73555 14.923 7.79984 14.8544 7.86841 14.7858ZM11.1556 16.0415C11.1056 15.8452 11.0769 15.644 11.0698 15.4415C11.0698 15.3644 11.1556 15.343 11.2113 15.3815C11.4941 15.6044 11.6741 15.8958 11.7084 16.2644C11.7213 16.4487 11.4856 16.393 11.4084 16.333C11.297 16.2473 11.2156 16.153 11.1556 16.0415Z" fill="#A15045"/>
<path d="M6.25702 15.6299C6.36845 15.6813 6.44131 15.7413 6.47988 15.8099C6.52273 15.887 6.55702 15.9685 6.58273 16.0627C6.60845 16.1485 6.59988 16.2342 6.55702 16.3027C6.54416 16.3242 6.52273 16.3327 6.49702 16.3285C6.38559 16.307 6.22273 16.2513 6.19273 16.1356C6.18307 16.1045 6.17449 16.073 6.16702 16.0413C6.16199 16.0351 6.15496 16.0309 6.14713 16.0293C6.13931 16.0277 6.13119 16.029 6.12416 16.0327C6.08131 16.0585 6.06845 16.0927 6.07702 16.1399C6.07702 16.1613 6.06845 16.1785 6.04702 16.1913L5.80273 15.8227L6.25702 15.6299Z" fill="#301813"/>
<path d="M8.40417 15.7886L8.43846 15.81C8.55846 15.9172 8.68274 16.0415 8.8156 16.1743C8.87131 16.2258 8.9356 16.2558 9.00846 16.26C9.03846 16.26 9.06417 16.2729 9.06846 16.3029C9.07376 16.3383 9.08642 16.3723 9.10561 16.4025C9.12479 16.4328 9.1501 16.4587 9.17989 16.4786C9.22274 16.5086 9.27417 16.4915 9.28703 16.4443C9.32989 16.3158 9.29131 16.2258 9.1756 16.1743C9.17155 16.1731 9.16787 16.1709 9.16488 16.1679C9.16189 16.1649 9.15969 16.1612 9.15846 16.1572C9.15846 16.1315 9.16274 16.11 9.18846 16.0886C9.21417 16.0672 9.2356 16.0672 9.25703 16.0972C9.29131 16.1358 9.31274 16.1743 9.3256 16.2172L9.33846 16.3543C9.35132 16.4358 9.37703 16.5129 9.41989 16.5858C9.36417 16.6286 9.29989 16.6243 9.23989 16.5772C9.20989 16.56 9.17989 16.5343 9.14131 16.53C9.06132 16.5249 8.98492 16.4949 8.92274 16.4443C8.90256 16.4274 8.87664 16.4188 8.85032 16.4204C8.824 16.422 8.7993 16.4336 8.78131 16.4529C8.77477 16.4584 8.77025 16.466 8.76846 16.4743C8.75989 16.5172 8.7256 16.5515 8.68274 16.56C8.51989 16.5643 8.3656 16.5772 8.20703 16.59C8.19417 16.59 8.1856 16.59 8.18131 16.5815C8.17289 16.5688 8.16841 16.5539 8.16846 16.5386C8.16846 16.5258 8.16846 16.5215 8.17703 16.5215C8.29703 16.4915 8.42131 16.4358 8.55417 16.3715C8.60989 16.3415 8.63989 16.26 8.58846 16.2086C8.52417 16.1486 8.4556 16.0715 8.38274 15.9815C8.33989 15.9258 8.3356 15.8572 8.3356 15.7886C8.33462 15.7858 8.33462 15.7828 8.3356 15.78C8.33756 15.7789 8.33977 15.7783 8.34203 15.7783C8.34429 15.7783 8.3465 15.7789 8.34846 15.78L8.40417 15.7886ZM9.69846 16.6586C9.77131 16.7229 9.83131 16.7958 9.88274 16.8858C9.91703 16.9458 10.0542 16.9458 10.1185 16.9329C10.1399 16.9329 10.1613 16.9372 10.1785 16.9586C10.1897 16.9711 10.1985 16.9856 10.2042 17.0015C10.2299 17.0572 10.2685 17.1043 10.3285 17.1429C10.2427 17.19 10.1399 17.2372 10.0242 17.28C9.8656 17.34 9.71989 17.3529 9.59131 17.2286C9.58079 17.2196 9.5723 17.2084 9.56639 17.1958C9.56048 17.1833 9.55729 17.1696 9.55703 17.1558C9.54807 17.0494 9.53376 16.9435 9.51417 16.8386C9.50913 16.8064 9.51153 16.7734 9.52118 16.7422C9.53084 16.711 9.5475 16.6824 9.56989 16.6586C9.61274 16.5986 9.65131 16.6372 9.69846 16.6586Z" fill="#19110A"/>
<path d="M7.38845 17.3315L7.29417 17.0187C7.29096 17.0066 7.29019 16.994 7.29191 16.9816C7.29363 16.9692 7.2978 16.9572 7.30419 16.9464C7.31057 16.9357 7.31904 16.9263 7.32909 16.9188C7.33914 16.9114 7.35058 16.906 7.36274 16.903L7.71845 16.8258C7.74417 16.8215 7.76559 16.8258 7.78702 16.8387C7.80845 16.8473 7.82131 16.8687 7.82988 16.8901L7.94131 17.3401C7.94716 17.3623 7.94473 17.3858 7.93448 17.4063C7.92422 17.4268 7.90684 17.4429 7.88559 17.4515C7.87154 17.4552 7.85679 17.4552 7.84274 17.4515L7.46131 17.3958C7.44429 17.3932 7.42837 17.3858 7.41546 17.3744C7.40255 17.363 7.39317 17.3481 7.38845 17.3315Z" fill="#301813"/>
<path d="M8.91448 17.3873L8.61448 17.4302C8.57996 17.4353 8.54478 17.4271 8.51612 17.4072C8.48745 17.3873 8.46745 17.3572 8.4602 17.323L8.40877 17.0316C8.40374 17.0027 8.4081 16.973 8.42122 16.9468C8.43433 16.9205 8.4555 16.8992 8.48163 16.8859C8.49741 16.8767 8.51492 16.8709 8.53305 16.8688L8.8202 16.8516C8.85223 16.8487 8.88421 16.8576 8.91022 16.8765C8.93623 16.8954 8.95449 16.9231 8.96163 16.9545L9.02591 17.2202C9.03349 17.2479 9.03219 17.2772 9.0222 17.3041C9.0122 17.3311 8.99402 17.3542 8.9702 17.3702C8.95312 17.3799 8.93409 17.3858 8.91448 17.3873Z" fill="#19110A"/>
</g>
<defs>
<clipPath id="clip0_31_14657">
<rect width="24" height="24" fill="white"/>
</clipPath>
</defs>
</svg>
