<svg xmlns="http://www.w3.org/2000/svg" width="24" height="24" fill="none" viewBox="0 0 24 24"><g clip-path="url(#a)"><path fill="#F0F3FA" d="M0 0h24v24H0z"/><path fill="#153C4E" d="M5.571 7.487a1.907 1.907 0 0 1 1.903-1.916h9.052a1.91 1.91 0 0 1 1.902 1.916v9.026a1.91 1.91 0 0 1-1.902 1.915H7.474a1.91 1.91 0 0 1-1.903-1.915z"/><path fill="#7A6245" d="M6.986 8.546a1.487 1.487 0 0 1 1.487-1.492h7.084a1.487 1.487 0 0 1 1.487 1.492v7.011a1.49 1.49 0 0 1-1.487 1.492H8.473a1.487 1.487 0 0 1-1.487-1.492z"/><path fill="url(#b)" d="M7.423 8.785a1.367 1.367 0 0 1 1.354-1.37h6.446a1.367 1.367 0 0 1 1.354 1.37v6.498a1.37 1.37 0 0 1-1.354 1.38H8.777a1.367 1.367 0 0 1-1.354-1.38V8.785"/><path fill="#143A3F" fill-rule="evenodd" d="M15.223 7.68H8.777A1.097 1.097 0 0 0 7.69 8.79v6.493a1.097 1.097 0 0 0 1.088 1.11h6.446a1.1 1.1 0 0 0 1.088-1.11V8.79a1.1 1.1 0 0 0-1.088-1.11m-6.446-.27a1.367 1.367 0 0 0-1.354 1.38v6.493a1.367 1.367 0 0 0 1.354 1.38h6.446a1.366 1.366 0 0 0 1.354-1.38V8.79a1.37 1.37 0 0 0-1.354-1.38z" clip-rule="evenodd"/><path fill="#CAB34C" d="M8.871 5.143h.523v1.2h.176v1.123H8.7V6.347h.176V5.143zm1.899 0h.519v1.2h.18v1.123h-.883V6.347h.18V5.143zm2.357 0H12.6v1.2h-.171v1.123h.878V6.347h-.18zm1.371 0h.523v1.2h.18v1.123h-.878V6.347h.18V5.143z"/><path fill="#CAB349" d="M8.923 18.857h.518v-1.2h.18v-1.123h-.878v1.119h.18zm1.899 0h.514v-1.2h.184v-1.123h-.878v1.119h.18zm2.352 0h-.518v-1.2h-.18v-1.123h.878v1.119h-.18zm1.376 0h.523v-1.2h.176v-1.123h-.875v1.119h.176z"/><path fill="#817036" d="M5.143 15.167v-.531h1.183v-.18h1.097v.891H6.326v-.18zm0-1.929v-.531h1.183v-.184h1.097v.895H6.326v-.184H5.143zm0-2.4v.528h1.183v.184h1.097v-.892H6.326v.18zm0-1.401v-.531h1.183v-.18h1.097v.891H6.326v-.18z"/><path fill="#FEFCBE" d="M18.857 15.004v-.527h-1.183v-.18h-1.097v.891h1.097v-.184zm0-1.928v-.528h-1.183v-.184h-1.097v.892h1.097v-.18zm0-2.4v.531h-1.183v.184h-1.097v-.895h1.097v.184h1.183zm0-1.398v-.535h-1.183V8.57h-1.097v.892h1.097v-.18h1.183z"/><path fill="#19667D" d="M11.949 15.956c2.213 0 4.007-1.827 4.007-4.08s-1.794-4.08-4.008-4.08-4.007 1.827-4.007 4.08 1.794 4.08 4.007 4.08"/><path fill="#FAF6CE" d="M11.949 15.703c2.03 0 3.677-1.677 3.677-3.746s-1.646-3.746-3.677-3.746S8.27 9.888 8.27 11.957s1.647 3.746 3.678 3.746"/><path fill="#214242" d="M12.013 15.471c1.83 0 3.313-1.51 3.313-3.373 0-1.862-1.484-3.372-3.313-3.372S8.7 10.236 8.7 12.098c0 1.863 1.483 3.373 3.313 3.373"/><path fill="#7EE2E4" d="M12.163 9.527q.167.04.373.009c.334-.052.638.017.904.201a.17.17 0 0 0 .103.03q.277-.01.497.262a.15.15 0 0 0 .069.051c.09.034.17.086.235.167q.034.034.022.086c-.018.094-.03.193-.026.291a.1.1 0 0 1-.013.047.1.1 0 0 1-.03.04.48.48 0 0 0-.182.293q0 .01.006.019.007.008.015.013a.04.04 0 0 0 .02.004h.342a.09.09 0 0 1 .069.043q.03.045.082.077c.025.017.034.013.034-.021a1.25 1.25 0 0 0-.232-.733q-.027-.041.018-.043.053.001.072.047.105.277.236.536c.06.12.06.231.06.364a.34.34 0 0 1 .056.33q-.024.065-.06.009a.1.1 0 0 0-.018-.02.1.1 0 0 0-.025-.01c-.03 0-.047.008-.051.043a.6.6 0 0 0 .008.201l.009.017a.03.03 0 0 0 .037.005l.01-.01c.017-.03.043-.034.068-.02a.06.06 0 0 1 .039.055c0 .043-.017.064-.047.051h-.005v.04q-.043.063-.03.102a.77.77 0 0 1-.107.66.1.1 0 0 1-.043.034l-.034.013a.08.08 0 0 0-.051.06c-.026.12-.086.184-.172.197-.03 0-.047.017-.055.043q-.079.223-.33.304c-.026-.008-.03-.051-.022-.128q.02-.234.026-.467.015-.004.03.004l.013.017.043.351c.004.052.025.06.055.018.288-.343.643-.54.558-1.055a.094.094 0 0 0-.078-.085h-.021a.03.03 0 0 0-.03 0 .03.03 0 0 0-.013.034c0 .107-.043.154-.146.133a.2.2 0 0 0-.025-.06q-.032-.04-.065-.005a.2.2 0 0 1-.124.052.48.48 0 0 0-.343.171l-.004.013a.03.03 0 0 0 .013.022.1.1 0 0 0 .051.017c.017 0 .03 0 .052-.013l.428-.214c-.098.205-.236.295-.411.257q-.009.159-.159.137a.7.7 0 0 0-.141.077q.178.185.171.442c-.008.064-.038.085-.098.081q-.05-.005-.043-.043a.09.09 0 0 0-.026-.086c-.034-.034-.073-.043-.111-.012a.06.06 0 0 0-.026.072l.116.279a.08.08 0 0 0 .051.043.08.08 0 0 0 .069-.009.3.3 0 0 1 .158-.056c.043.056.034.108-.017.163-.154-.051-.18.069-.248.15a.4.4 0 0 1-.168.026c-.115-.008-.171-.111-.308-.12l-.274-.171a.02.02 0 0 1-.01-.026l.01-.009.042-.021a.04.04 0 0 1 .052 0 .79.79 0 0 0 .557.184q.097-.006.021-.077a.39.39 0 0 1-.137-.257.15.15 0 0 0-.047-.09.14.14 0 0 0-.094-.043.49.49 0 0 0-.42.244.12.12 0 0 1-.056.048l-.844.33a.12.12 0 0 1-.099-.009.36.36 0 0 1 .107-.133.06.06 0 0 0 .022-.051.06.06 0 0 0-.022-.047h-.043l.06-.052a.09.09 0 0 1 .069-.021c.124.012.231-.116.313-.193.094-.099.077-.15-.06-.15h-.3c-.026 0-.043.013-.06.034a.46.46 0 0 1-.146.142.09.09 0 0 0-.038.068.6.6 0 0 1-.056.24.06.06 0 0 1-.051.009q-.04-.008-.035-.048v-.394a.09.09 0 0 0-.043-.081.09.09 0 0 0-.094 0 .46.46 0 0 0-.206.334.3.3 0 0 0 .069.24.33.33 0 0 0 .257.142q.045.11.013.188-.026.057-.064.017a.07.07 0 0 1-.026-.064c.004-.043-.013-.064-.051-.073a.17.17 0 0 0-.155.043q-.184.168-.484.111c-.086-.012-.137-.102-.137-.188q.001-.05-.043-.056l-.257-.017a1.5 1.5 0 0 1-.287-.557 6 6 0 0 1-.035-.42q-.02-.315-.317-.27-.162-.051-.214-.159a.2.2 0 0 0-.047-.06 1.1 1.1 0 0 1-.309-.454c0-.009 0-.013.009-.017l.025-.056q.025-.039.043 0a.5.5 0 0 0 .073.141q.04.06.034-.012a.7.7 0 0 1 .228-.57.1.1 0 0 0 .025-.06l.095-.857a.03.03 0 0 1 .012-.022h.043q.013.005.013.017l-.004.515c0 .145-.009.295-.022.441q-.01.114.018.326.018.181-.035.355a1.3 1.3 0 0 1-.12-.57l-.004-.03a.02.02 0 0 0-.021-.012q-.035-.002-.043.03a1.1 1.1 0 0 0 0 .758.1.1 0 0 0 .025.039l.043.017q.058-.002.103.03c.043.017.056.008.052-.034l-.009-.129c.056-.047.086-.021.099.081a.1.1 0 0 0 .038.065q.136.114.305.03a.1.1 0 0 0 .047-.047l.085-.168.022-.068a.56.56 0 0 1 .248-.442v.043q.009.026.035.035h.03a.6.6 0 0 0-.21.364q-.014.085.068.111l.086.026h.026a.07.07 0 0 0 .051-.026.1.1 0 0 0 .013-.025c.026-.116.043-.133.128-.245q.066-.085-.008-.21a.57.57 0 0 0 .377.009q.015-.006.028-.018a.1.1 0 0 0 .015-.03l.077-.32q.012-.044-.034-.057a.3.3 0 0 1-.116-.055q-.05-.038.009-.056l.205-.069a.1.1 0 0 1 .095.018q.115.083.231.141a.09.09 0 0 1 .051.073c.005.026-.008.043-.034.043-.064-.004-.098.026-.111.086q-.011.061.043.06l.745.004q.038 0 .073.013l.18.068a.05.05 0 0 0 .069-.037.1.1 0 0 0 0-.027.11.11 0 0 0-.065-.073 1.3 1.3 0 0 1-.398-.317.05.05 0 0 1 .013-.043.04.04 0 0 1 .021-.017.18.18 0 0 0 .12-.103.13.13 0 0 1 .073-.06q.141-.033 0-.086l-.416-.184a.1.1 0 0 0-.072 0 1 1 0 0 0-.288.137.12.12 0 0 1-.072.022h-.16a.05.05 0 0 0-.042.021.06.06 0 0 0-.009.047.14.14 0 0 1-.017.124.06.06 0 0 1-.068.026.4.4 0 0 0-.197.005.27.27 0 0 1-.185-.013 1.1 1.1 0 0 1-.27-.18l.24-.498.026.065a.4.4 0 0 0-.021.24.26.26 0 0 0-.043.124q-.014.038.03.026l.146-.065.107.086.115.163.013.013h.017l.043-.021.006-.008.003-.01a.03.03 0 0 0 0-.017l-.125-.236c-.102-.094-.102-.24-.218-.3l.077-.077q.15.143.201.343a.1.1 0 0 0 .043.056.34.34 0 0 0 .258.021.1.1 0 0 0 .055-.047.43.43 0 0 0-.107-.488q.242-.25.266-.506l.098-.03q.046-.02.009-.051c-.343-.343-.81-.326-1.213-.116a.1.1 0 0 0-.051.06q-.026.066.021.086c.064.205.287.154.3.428q.005.033.043.034a.13.13 0 0 1 .086.026q-.16.007-.172.15c-.026-.373-.394-.703-.716-.398a.04.04 0 0 0 0 .047c0 .004 0 .008.009.013a.26.26 0 0 1 .116.12c.077.162.33.342.338.505q.002.092-.03.15c-.025.052-.042.052-.042-.008a.5.5 0 0 0-.103-.258 9 9 0 0 1-.33-.492c-.018-.026-.039-.035-.065-.017a.8.8 0 0 0-.3.321.07.07 0 0 1-.047.043c-.004 0-.008 0-.013-.009-.025-.025-.055-.025-.09.009-.154.128-.3.27-.437.415q-.02-.13.039-.188c.133-.142.261-.287.385-.446l.009.022c0 .013.013.021.021.021q.025.001.043-.017.22-.232.472-.429a.6.6 0 0 1 .175-.09c.095-.034.163-.128.258-.171.12-.06.244-.116.368-.154a.87.87 0 0 1 .849.158l.214.15z"/><path fill="#386868" d="M11.919 9.643a2 2 0 0 0-1.033-.086l-.099.034q-.046-.02-.021-.085a.2.2 0 0 1 .051-.06c.403-.21.87-.232 1.213.115.026.022.022.043-.008.052z"/><path fill="#FEFFFE" d="M11.919 9.643q-.018.256-.266.506l-.351-.017a.07.07 0 0 0-.065.03.2.2 0 0 0-.03.102l-.077.078-.073.004-.026-.064.018-.052c0-.094.06-.146.171-.15q.065-.115.009-.171l-.343-.352a2 2 0 0 1 1.033.086"/><path fill="#4B9291" d="M12.163 9.527a.65.65 0 0 1 .373.009 1 1 0 0 1-.373-.009m-1.277.03.343.352c.042.038.034.094-.009.171a.13.13 0 0 0-.09-.026q-.038 0-.043-.038c-.013-.27-.236-.219-.3-.425z"/><path fill="#386868" d="m12.969 9.767-.073.005c-.043 0-.086 0-.129.017a.3.3 0 0 1-.128.021.28.28 0 0 1-.215-.137c-.017-.03-.008-.043.026-.047.202-.022.39 0 .562.056q.051.018.012.055a.12.12 0 0 1-.055.03"/><path fill="#407F7F" d="M12.66 10.243q-.072.026-.086.077L12 10.52c-.03.013-.051 0-.064-.025a2 2 0 0 1-.129-.318c-.021-.064 0-.094.073-.094a.064.064 0 0 0 .064-.043q.046-.129.06-.253a.153.153 0 0 1 .215-.124c.111.052.244.099.313.214.034.06.077.116.12.163a.1.1 0 0 1 .025.077l-.017.129z"/><path fill="#FEFFFE" d="m12.896 9.771.072-.004.33.013c.026 0 .048.013.065.03q.12.128.043.338a.6.6 0 0 1-.223.236c0 .03-.03.026-.095 0-.102-.038-.167-.077-.282-.047-.073.013-.146.026-.215.03q-.017-.014-.017-.047.014-.052.086-.073.046-.001.086-.034a.1.1 0 0 0 .038-.064c.022-.15.056-.275.112-.378"/><path fill="#214242" d="M13.183 10.384a.57.57 0 0 0 .227-.236l.27-.038c.03 0 .043-.021.034-.051a.1.1 0 0 0-.021-.035q-.046-.057.03-.051h.021l.026.017q.105.11.249.141a.13.13 0 0 1 .072.047l.15.206q.018.02.022.052.013.194-.184.342l-.01.007a.03.03 0 0 1-.024 0l-.01-.007a1 1 0 0 0-.265-.578h-.013a.03.03 0 0 0-.021.026v.06a.2.2 0 0 0 .025.098c.112.172.172.416.022.596a.2.2 0 0 1-.202.069q-.141-.041 0-.082l.095-.026c.068-.021.068-.043 0-.055a.33.33 0 0 0-.163 0 .064.064 0 0 1-.073-.021.07.07 0 0 1-.017-.052.13.13 0 0 0-.022-.073z"/><path fill="#386868" d="M11.657 10.149a.43.43 0 0 1 .107.488.08.08 0 0 1-.051.047.34.34 0 0 1-.257-.021.09.09 0 0 1-.043-.056.73.73 0 0 0-.206-.343c0-.042.013-.077.03-.102a.06.06 0 0 1 .028-.025q.017-.008.036-.005l.352.017z"/><path fill="#407F7F" d="M13.089 10.384a.66.66 0 0 0 .231.343.09.09 0 0 1 .034.077c0 .056-.021.086-.064.082a3 3 0 0 1-.437-.073.04.04 0 0 1-.022-.018l-.008-.02c0-.01-.009-.018-.017-.022a2 2 0 0 0-.245-.086.07.07 0 0 1-.042-.043.24.24 0 0 1 .068-.257c.073-.004.146-.017.214-.03.12-.03.185.008.288.043z"/><path fill="#2C7792" d="M11.036 10.586q.032.065.128.086l-.141.064q-.04.012-.034-.026a.3.3 0 0 1 .047-.124"/><path fill="#FEFFFE" d="m10.92 11.627-.154.004h-.03c-.017-.004-.03-.017-.03-.034l-.005-.043q.122-.18-.008-.308a.06.06 0 0 0-.064-.013 1.06 1.06 0 0 1-.6.03c.3-.069.514-.137.66-.21q.09-.044.102-.275c.099.086.189.142.27.18q.096.039.185.013a.4.4 0 0 1 .197-.004.06.06 0 0 0 .068-.026q.037-.052.018-.124a.056.056 0 0 1 .026-.064l.025-.005h.159a.14.14 0 0 0 .072-.02 1 1 0 0 1 .288-.138.1.1 0 0 1 .068 0l.424.18c.09.043.086.069-.004.09a.1.1 0 0 0-.073.06.19.19 0 0 1-.12.103.04.04 0 0 0-.034.034.05.05 0 0 0 .009.047c.124.129.252.232.39.296a.11.11 0 0 1 .064.073.06.06 0 0 1-.013.055.05.05 0 0 1-.056.01l-.18-.07a.2.2 0 0 0-.077-.012h-.737q-.062-.002-.047-.06c.013-.065.047-.095.111-.095.026 0 .043-.012.035-.043a.09.09 0 0 0-.052-.068c-.077-.043-.158-.086-.231-.141a.1.1 0 0 0-.095-.018l-.205.069c-.043.013-.043.03-.009.056.034.03.077.047.116.055q.046.012.034.056l-.077.322a.05.05 0 0 1-.013.03.1.1 0 0 1-.03.017.54.54 0 0 1-.377-.009"/><path fill="#4B9291" d="m11.349 10.642.124.235a.03.03 0 0 1 0 .018.03.03 0 0 1-.013.017l-.039.017h-.017a.02.02 0 0 1-.013-.009l-.115-.163a.06.06 0 0 1 .034-.008q.03-.001.043-.035a.12.12 0 0 0 0-.072z"/><path fill="#7EE2E4" d="M9.27 10.843c.03.206.039.411.026.626 0 .034-.013.06-.03.077l-.013.004H9.24l-.009-.009-.004-.013-.008-.6z"/><path fill="#386868" d="m9.87 10.877.022.338c0 .026.017.043.042.043l.095.005q.302.071.6-.03c.025-.013.043-.005.064.012.086.086.086.19.008.31a.56.56 0 0 0-.248.44l-.021.07-.086.166a.1.1 0 0 1-.047.047.26.26 0 0 1-.33-.058.1.1 0 0 1-.013-.036c-.013-.103-.043-.128-.099-.081l-.025-.099a.8.8 0 0 0 .034-.356 1.5 1.5 0 0 1-.017-.325q.02-.22.021-.446"/><path fill="#4B9291" d="M15.026 10.959c.025-.018.047-.013.068.004l.022.03v.034q-.04.302.03.545c.043.162.034.321.025.488q.034-.205-.094-.309c-.026-.02-.043-.017-.064.01a.5.5 0 0 0-.082.188q0 .02-.021.034a.06.06 0 0 1-.056.017v-.039h.005q.051.02.051-.05a.05.05 0 0 0-.013-.03.06.06 0 0 0-.026-.027c-.025-.012-.051-.008-.068.022a.03.03 0 0 1-.013.01.03.03 0 0 1-.017.003.03.03 0 0 1-.026-.026.7.7 0 0 1-.008-.201c.004-.035.021-.043.055-.043.017 0 .03.013.043.03q.035.063.056-.009a.34.34 0 0 0-.056-.33c.069 0 .129-.043.184-.111a.21.21 0 0 0 0-.24z"/><path fill="#386868" d="m13.016 10.98.364-.009q.012 0 .021.009.026.025.018.051-.002.013-.022.013a1 1 0 0 1-.386-.03q-.09-.03 0-.034zm1.564.668.008.245q0 .108-.102.128l-.386.086c-.043.013-.069-.009-.069-.06v-.27a.12.12 0 0 0-.03-.077l-.15-.197a.07.07 0 0 1-.004-.086.35.35 0 0 1 .099-.111.17.17 0 0 0 .081-.125q.007-.05.06-.034a.74.74 0 0 1 .399.36q.044.084.094.141"/><path fill="#214242" d="M14.58 11.649q.057-.321-.189-.365a.06.06 0 0 1-.047-.055l-.008-.026q-.002-.044.043-.043c.205.03.308.146.3.343q-.008.137-.099.146"/><path fill="#FEFFFE" d="m11.032 12.591.025.433q0 .024.013.043l.051.051q.031.027.03.065-.005.159.073.227.118.104-.043.098a.43.43 0 0 0-.372.185.08.08 0 0 1-.099.025c-.137-.06-.236-.18-.227-.342a1.3 1.3 0 0 0-.06-.438.15.15 0 0 1 0-.085.7.7 0 0 0 0-.386q0-.005.002-.01l.006-.007h.01c.166-.043.363-.15.42-.326.068-.214.196-.244.398-.257.034 0 .055-.022.072-.052a.1.1 0 0 1 .043-.055h.018a.02.02 0 0 1 .017.008v.013a.7.7 0 0 1-.125.42.09.09 0 0 1-.064.034l-.343-.004c-.008 0-.017 0-.013.013l.005.052q.002.01.017.017h.073q.044-.002.055.042a.3.3 0 0 1 .013.086q0 .015.009.026l.008.008h.018q.129.002.265-.03c.086-.017.129-.072.103-.158q-.008-.038.03-.043c.086 0 .154-.043.21-.111q.026-.034.064-.022.155.051.305.116c.171.073.257.257.428.36a.04.04 0 0 0 .026.003.04.04 0 0 0 .021-.016l.009-.017v-.021a.1.1 0 0 0-.017-.035 1 1 0 0 1-.232-.754.07.07 0 0 1 .022-.052.1.1 0 0 1 .098-.038c.022.004.035.017.047.03a1 1 0 0 0 .37.231c.085.03.17.009.265-.06a.07.07 0 0 0 .021-.085c-.047-.129-.056-.266.026-.382q.027-.036.073-.034l.296.021c.02 0 .042.013.06.03q.417.418.012.823a.25.25 0 0 0-.072.223c0 .021-.01.039-.03.043a.03.03 0 0 0-.021.021.2.2 0 0 1-.018.039c-.026.043-.021.077.008.111q.1.11-.047.129a.3.3 0 0 0-.077.021.09.09 0 0 0-.051.052.4.4 0 0 1-.245.244q-.052.02-.085-.026c-.077-.107-.172-.12-.283-.03a.09.09 0 0 1-.094.009.1.1 0 0 1-.047-.086c0-.043.017-.077.05-.111a.06.06 0 0 1 .044-.017c.085.013.137-.03.171-.116q.014-.045-.03-.052a.2.2 0 0 0-.206.07.1.1 0 0 1-.064.03l-.39.042a.2.2 0 0 0-.077.026l-.086.051a.08.08 0 0 1-.081 0c-.18-.086-.36-.137-.523-.257a.5.5 0 0 0-.257-.086c-.013 0-.022.013-.022.03"/><path fill="#4B9291" d="M10.766 11.631h.154c.047.078.051.15.004.206-.085.111-.098.129-.128.244a.07.07 0 0 1-.03.043.07.07 0 0 1-.06.009l-.086-.026q-.077-.027-.064-.111a.6.6 0 0 1 .21-.365m-1.805.06q.304.2.24.502a.09.09 0 0 1-.042.056l-.193.11a1.7 1.7 0 0 0 0-.668z"/><path fill="#0C1918" d="M15.172 12.06c.017.223.02.446 0 .669-.018.265-.215.463-.25.728a.43.43 0 0 1-.15.283c-.145.103-.153.219-.342.266a.09.09 0 0 0-.056.047q-.193.405-.304.488l-.39.31c-.073.06-.176.085-.313.085a.12.12 0 0 0-.077.017 1.08 1.08 0 0 1-.866.201 1.7 1.7 0 0 0-.745.035 3.2 3.2 0 0 1-1.145-.365.2.2 0 0 1-.055-.051.2.2 0 0 0-.086-.077c-.039-.176.013-.3.141-.373a3 3 0 0 1 .309-.142.7.7 0 0 1 .343-.03.1.1 0 0 0 .081-.017l.086-.055a.23.23 0 0 1 .283.008c.021.017.03.034.026.065-.022.17.012.308.098.402a.3.3 0 0 1 .129.133q.024.04.055.009.02-.02 0-.052a1.1 1.1 0 0 1-.171-.54.73.73 0 0 1 .36-.081c.017 0 .03 0 .043-.009q.018-.011.017-.03 0-.007.013-.008l.921-.06.27-.112q.046-.02.009-.047-.055-.043-.184-.008c.02-.056.03-.099.02-.129.138.009.194.112.31.12a.5.5 0 0 0 .167-.026q.044-.018.055.086a.3.3 0 0 1-.038.111 5 5 0 0 1-.257.43c-.06.085-.043.162-.09.248a2 2 0 0 1-.215.287c-.021.017-.017.034.009.043l.03.004h.017q.2-.205.291-.463a.12.12 0 0 1 .043-.06.26.26 0 0 0 .095-.111c.094-.185.184-.373.313-.54q.083-.11.064-.335.251-.08.33-.304.013-.041.051-.043.14-.018.172-.197a.08.08 0 0 1 .055-.06l.03-.013a.1.1 0 0 0 .043-.034.78.78 0 0 0 .112-.66q-.013-.039.025-.103.029.007.056-.017a.06.06 0 0 0 .021-.034.5.5 0 0 1 .082-.189c.017-.026.043-.03.064-.008q.128.101.095.308"/><path fill="#386868" d="m14.451 12.236-.017-.022-.428.219a.1.1 0 0 1-.052.013.1.1 0 0 1-.051-.017l-.009-.009-.003-.013q0-.007.003-.013v-.008a.5.5 0 0 1 .343-.163.2.2 0 0 0 .124-.051q.032-.037.065.004z"/><path fill="#7EE2E4" d="m13.247 12.424.12-.072a.04.04 0 0 1 .056.004.043.043 0 0 1 .008.056q-.043.095-.171.068l-.013-.005-.008-.01a.03.03 0 0 1 0-.028z"/><path fill="#4B9291" d="M9.844 12.472q.293-.04.317.274.012.22.035.42c.008.107.107.296.287.557a1 1 0 0 1-.245-.013.4.4 0 0 1-.23-.146 1 1 0 0 1-.112-.18.65.65 0 0 1-.043-.27c0-.222 0-.437-.009-.642m4.179 0c0 .072.008.141.013.201a.11.11 0 0 1-.06.124c-.022.009-.043 0-.056-.017-.052-.086-.12-.12-.197-.09a.7.7 0 0 1 .141-.077c.099.013.154-.03.159-.137z"/><path fill="#FEFFFE" d="M11.79 13.56a.34.34 0 0 0 .214-.064q.041-.012.043-.004a.06.06 0 0 1 .026.047.06.06 0 0 1-.026.051.36.36 0 0 0-.103.133l-.257.043a.34.34 0 0 1-.257-.146.3.3 0 0 1-.069-.24.45.45 0 0 1 .206-.33.09.09 0 0 1 .105.001q.015.012.024.03l.008.042v.399q-.002.04.034.047c.018.008.035 0 .052-.009"/><path fill="#4B9291" d="M12.009 13.496a.33.33 0 0 1-.215.064.8.8 0 0 0 .052-.24.09.09 0 0 1 .038-.069.5.5 0 0 0 .146-.141.06.06 0 0 1 .056-.034h.3c.141 0 .158.051.064.15-.082.077-.189.205-.313.192a.09.09 0 0 0-.069.022z"/><path fill="#407F7F" d="m12.514 13.346.013-.073a.07.07 0 0 1 .043-.056c.086-.038.154-.021.197.043a.1.1 0 0 1 .016.079.1.1 0 0 1-.05.063.1.1 0 0 1-.047.008c-.172-.017-.24.094-.408.094q-.019 0-.02-.021v-.022a.03.03 0 0 1 .025-.025l.188-.043c.009 0 .022-.009.026-.017a.06.06 0 0 0 .017-.03"/><path fill="#4B9291" d="M14.014 13.286q-.011.116.022.128.02.225-.065.335c-.128.167-.214.355-.312.54a.3.3 0 0 1-.095.11.12.12 0 0 0-.043.06 1.2 1.2 0 0 1-.299.464h-.01l-.03-.009c-.025-.004-.03-.021-.012-.043.086-.085.154-.184.214-.283.056-.085.034-.162.095-.248q.128-.192.257-.429a.3.3 0 0 0 .038-.115q.008-.064.035-.069.179-.046.158-.163c.051-.056.056-.107.017-.163q.031-.032.03-.115"/><path fill="#386868" d="M13.967 13.565q.02.116-.159.162-.026.009-.038.069c-.004-.064-.021-.094-.056-.082.073-.085.099-.201.253-.15m-3.064.18.377-.018c.009 0 .017 0 .026.009a.04.04 0 0 1 .013.043.04.04 0 0 1-.022.021l-.279.142a.04.04 0 0 1-.042-.009l-.099-.124a.043.043 0 0 1 .009-.056.04.04 0 0 1 .017-.008"/><path fill="#7EE2E4" d="M13.222 13.749c.085-.022.15-.022.184.008.025.017.021.034-.009.043l-.27.116a3 3 0 0 1-.416 0c-.15-.013-.257-.086-.415-.107q-.198-.02-.005-.065a.6.6 0 0 1 .313.034q.341.124.618-.03"/><path fill="#4B9291" d="M11.769 14.105q.02.288.175.54.02.031 0 .05-.031.032-.051-.008a.3.3 0 0 0-.129-.132 3 3 0 0 0-.047-.326q-.032-.156.052-.124"/><path fill="#7EE2E4" d="M12.892 14.983a.8.8 0 0 0 .184-.065c.017-.008.025 0 .03.013l.004.022v.017c0 .008-.008.013-.013.013a1.07 1.07 0 0 1-.874.021.04.04 0 0 1-.022-.021.04.04 0 0 1-.004-.026v-.026q.008-.013.022-.008c.244.077.471.098.673.06"/><path fill="#8B8B8B" d="m12.424 15.154-.745.034c.257-.068.5-.077.745-.034"/></g><defs><linearGradient id="b" x1="17.494" x2="7.654" y1="12.038" y2="12.257" gradientUnits="userSpaceOnUse"><stop stop-color="#FCF8B7"/><stop offset="1" stop-color="#8F7E40"/></linearGradient><clipPath id="a"><path fill="#fff" d="M0 0h24v24H0z"/></clipPath></defs></svg>