<svg xmlns="http://www.w3.org/2000/svg" width="24" height="24" fill="none" viewBox="0 0 24 24"><g clip-path="url(#a)"><path fill="url(#b)" d="M0 0h24v24H0z"/><path fill="#fff" d="m14.336 14.006.18.043c.055.012.115.034.175.038.052.009.095-.038.116-.077.009-.013.017-.013.03-.013q.017 0 .03.013c.043.051.06.116.043.184a.26.26 0 0 1-.12.146.5.5 0 0 1-.351.026c-.108-.026-.245-.086-.31-.176 0-.009-.008-.009-.008-.013 0-.013-.017-.021-.03-.026a.04.04 0 0 0-.03-.012.7.7 0 0 1-.381-.013c-.017-.009-.021-.022-.03-.039q0-.026.026-.038c.15-.078.3-.146.415-.27a.6.6 0 0 1 .116-.095c.197-.12.493-.145.673.017.06.056.09.163.038.24a.05.05 0 0 1-.038.022.03.03 0 0 1-.03-.022c-.047-.081-.129-.077-.206-.068a.55.55 0 0 0-.313.146zm1.011 3.424c.107.081.176.227.116.36-.039.129-.112.253-.244.291-.048.018-.095.018-.15.022l-.086.008c0 .026.008.052.013.069l.012.128a.8.8 0 0 1-.098.42.63.63 0 0 1-.351.305q-.028.01-.048-.017c-.012-.022-.012-.043 0-.052.18-.227.18-.471.129-.745-.03-.108-.03-.228.051-.318.086-.085.219-.107.335-.107.038 0 .077.009.115-.004.03-.021.06-.073.086-.103a.2.2 0 0 0 .03-.064v-.005c.013-.051-.017-.115-.047-.162a1.4 1.4 0 0 1-.33 0 3.7 3.7 0 0 1-.772-.193c-.021-.005-.034-.03-.025-.047a.04.04 0 0 1 .043-.035c.33.065.685.12 1.015.086a.74.74 0 0 0 .42-.236v-.021c0-.086-.012-.18-.021-.27a.8.8 0 0 1 .026-.291c.034-.13.188-.18.3-.215l.304-.081c.09-.026.184-.052.261-.095a.33.33 0 0 0-.043-.15 2 2 0 0 0-.12-.167c-.042-.064-.072-.137-.102-.205q-.181-.437-.343-.879c-.086-.257-.155-.531-.009-.78.09-.15.232-.257.356-.377.188-.214.068-.63-.03-.866a1.5 1.5 0 0 1-.047-.591c0-.022.017-.043.034-.043.021 0 .039.017.043.043.03.18.051.364.124.536.086.162.172.342.197.535.039.202.013.403-.115.562-.073.085-.155.158-.223.24a.4.4 0 0 0-.103.257c-.004.128.06.27.103.386q.18.488.386.95a.5.5 0 0 0 .094.13.6.6 0 0 1 .103.167c.077.175.09.403-.103.505a1.6 1.6 0 0 1-.412.137l-.205.043-.155.043c-.03.112-.017.309-.017.416 0 .038 0 .073-.013.12s-.03.094-.072.12l-.013.004-.048.039a1 1 0 0 1-.355.188zm2.713-6.399c-.266.27-.677.18-1.003.112-.613-.137-1.226-.279-1.847-.253-.026 0-.043-.017-.043-.039s.009-.043.034-.043a4.5 4.5 0 0 1 .956 0c.317.03.63.086.947.142.129.017.257.043.382.047a.54.54 0 0 0 .244-.03.5.5 0 0 0 .18-.137c.073-.09.137-.193.201-.287.095-.159.223-.292.403-.326a.9.9 0 0 0 .279-.214 1 1 0 0 0 .167-.245c-.082-.034-.176-.047-.262-.06a1.5 1.5 0 0 0-.527.018.4.4 0 0 1-.162.012c-.258-.017-.493-.107-.733-.184a9 9 0 0 1-.879-.343c-.287-.115-.57-.244-.848-.364a2.4 2.4 0 0 1-.66-.399 3 3 0 0 1-.27-.24 1.6 1.6 0 0 1-.206-.27c-.043-.085-.073-.175-.034-.265a.2.2 0 0 1 .085-.086l-.943-.664a.6.6 0 0 0-.235-.086h-.03l-.12-.009c-.866-.09-1.74-.18-2.606-.278-.021 0-.034-.026-.034-.043 0-.026.017-.043.043-.043.93.034 1.86.09 2.79.142.197.012.372.132.527.24l.758.492.189.129a.6.6 0 0 1 .15.12.17.17 0 0 1 .038.137.16.16 0 0 1-.102.12.4.4 0 0 1-.138.026c.2.254.453.46.742.604.343.159.698.304 1.05.454q.42.184.853.339c.214.069.437.154.66.163.226-.051.46-.059.69-.022.175.035.51.086.54.313v.005c.004.12-.039.184-.09.274a1.5 1.5 0 0 1-.335.351.9.9 0 0 1-.343.163.14.14 0 0 0-.055.043c-.073.064-.129.154-.189.236-.068.094-.128.184-.214.257zm-1.727.527c-.184-.042-.382-.06-.566-.081l-.596-.039-1.131-.047c-.287-.008-.579.005-.861 0-.103-.008-.206-.008-.3-.051-.022-.009-.035-.03-.026-.051a.04.04 0 0 1 .016-.023.04.04 0 0 1 .027-.008c.085.013.184-.008.27-.021.098-.013.188-.039.287-.043.771-.128 1.556-.107 2.323-.026.227.026.454.065.668.146h.005c.02.005.038.017.055.026a.2.2 0 0 1 .056.03c.248.154.531.051.729-.146.008-.013.034-.013.05 0 .018.013.018.043.014.052a.7.7 0 0 1-.386.342.72.72 0 0 1-.548-.034l-.078-.03zM13.959 8.43c-.223.446-.956.287-1.312.137-.137-.056-.248-.129-.386-.171q-.033-.008-.034-.039 0-.012.007-.023a.04.04 0 0 1 .019-.016.7.7 0 0 1 .248-.034c.215.013.429.056.643.094.266.043.502.108.763-.008a.04.04 0 0 1 .043.013c.017.013.017.034.009.051v-.008zM9.493 6.2c.003-.395.098-.784.278-1.135a1.54 1.54 0 0 1 .887-.828c.018-.004.035 0 .048.022a.04.04 0 0 1-.005.051c-.278.262-.428.579-.608.909l-.249.497c-.086.171-.171.343-.27.501-.013.013-.03.026-.043.018a.04.04 0 0 1-.03-.039l-.008.009zm1.886.18a1.75 1.75 0 0 1-.73-1.997c.01-.017.022-.03.04-.03.017 0 .03.013.034.03.094.292.154.587.244.879q.18.56.459 1.063c.012.017.008.038-.005.047-.012.013-.03.021-.047.008zm4.328 7.145a3 3 0 0 0-.514-.215 1.1 1.1 0 0 0-.386-.051 2.4 2.4 0 0 0-.386.051c-.184.03-.364.069-.544.095h-.009a.8.8 0 0 1-.325-.039.04.04 0 0 1-.026-.043c0-.021.017-.034.039-.043.085-.008.171-.043.257-.072q.236-.107.493-.198c.171-.055.355-.085.54-.081.351.013.72.223.912.531q.018.033-.004.052a.043.043 0 0 1-.051.013h.008zm-2.533 2.053a4.56 4.56 0 0 1-1.988-.545 3.4 3.4 0 0 1-1.402-1.328 2.7 2.7 0 0 1-.33-1.175c0-.017.009-.034.03-.043.017-.004.034.009.047.026.133.373.292.733.515 1.055.711 1.05 1.98 1.628 3.137 1.928.021.004.038.026.03.043 0 .017-.017.039-.043.039zM12 13.144c-.013-.257.06-.51.193-.728a2.23 2.23 0 0 1 1.11-.883c.017-.009.043 0 .047.017a.043.043 0 0 1-.013.056c-.416.3-.891.728-.969 1.281-.09.93.352 1.813.956 2.464q.01.012.01.028 0 .015-.01.028c-.013.017-.034.017-.051.009a2.8 2.8 0 0 1-.943-1.008 2.6 2.6 0 0 1-.339-1.268zm1.757-2.511c-1.011-.064-2.048-.129-3.056.081l-.128.03c-.043.013-.095.022-.129.043-.158.043-.304.103-.463.15-.274.06-.57.082-.84.03a2.1 2.1 0 0 1-1.298-.81c-.013-.017-.013-.043.004-.056a.04.04 0 0 1 .056 0q.276.239.604.399c.428.215.92.267 1.384.146.116-.043.236-.086.352-.12.128-.043.257-.086.394-.116 1.041-.206 2.126-.111 3.15.146.017.008.034.025.03.051-.008.017-.026.039-.043.039zM8.764 8.156c.677.342 1.38.638 2.096.9.103.042.214.072.313.124.021.004.034.026.025.043q-.007.033-.034.034c-.47.018-.939-.07-1.371-.257a2.6 2.6 0 0 1-1.072-.78.04.04 0 0 1 0-.052.04.04 0 0 1 .047-.012zm-1.761.45a3.5 3.5 0 0 1-.317-1.209 5 5 0 0 1 .737-2.991c.111-.185.24-.356.364-.532.013-.021.039-.021.056-.013q.027.02.017.052c-.107.283-.24.557-.339.853a7.2 7.2 0 0 0-.437 3.801c.009.017-.004.043-.021.051-.022.005-.043 0-.052-.021zm2.25-2.01a.76.76 0 0 1 .124.492.57.57 0 0 1-.274.442q-.025.019-.056-.013a.05.05 0 0 1 0-.056c.244-.283.069-.617-.163-.84a3.3 3.3 0 0 1-.848-1.5 2.1 2.1 0 0 1-.022-.93q.005-.033.043-.034a.04.04 0 0 1 .043.034c.051.287.12.579.231.849.159.42.39.814.643 1.17.094.128.202.248.279.386m3.801 12.685a3.84 3.84 0 0 1-1.808-.664 5.23 5.23 0 0 1-2.053-2.871 6.7 6.7 0 0 1-.296-1.663.04.04 0 0 1 .034-.043c.022-.009.043.009.052.03.291 1.093.634 2.151 1.277 3.086a4.9 4.9 0 0 0 2.816 2.04c.021.008.038.025.03.051-.005.021-.022.039-.043.039zm-6.116-8.194a10.3 10.3 0 0 0-.192 1.774q-.019.901.137 1.783a7.44 7.44 0 0 0 1.465 3.3c.219.287.472.553.716.815.013.02.017.042 0 .06q-.021.024-.056.004a6.55 6.55 0 0 1-2.477-4.114 7.2 7.2 0 0 1 .322-3.652c.008-.021.03-.034.047-.026.021.005.034.026.034.047z"/></g><defs><linearGradient id="b" x1="4.466" x2="29.207" y1="4.161" y2="32.58" gradientUnits="userSpaceOnUse"><stop stop-color="#1A1E21"/><stop offset="1" stop-color="#06060A"/></linearGradient><clipPath id="a"><path fill="#fff" d="M0 0h24v24H0z"/></clipPath></defs></svg>