<svg xmlns="http://www.w3.org/2000/svg" width="24" height="24" fill="none" viewBox="0 0 24 24"><g clip-path="url(#a)"><path fill="#F0F3FA" d="M0 0h24v24H0z"/><path fill="#050708" d="M18.857 14.602V9.394a.56.56 0 0 0-.227-.458l-6.287-4.53a.566.566 0 0 0-.716.017l-6.235 4.5a.58.58 0 0 0-.253.476v5.207c0 .184.098.368.257.471l6.231 4.5a.574.574 0 0 0 .716.022l6.257-4.517a.57.57 0 0 0 .253-.48"/><path fill="#fff" d="M11.143 5.704c.034-.068.154-.146.278-.133h1.24c.072.03.136.095.196.133v.724h-.385l-.043-.085V6h-.857v.223h-.429zM10.286 6h.428v1.286h-.428zm3 .428h.857v.429l-.857-.004zm-1.869.176h.395c.128.227.287.437.385.673a5 5 0 0 1-.36.009c-.146-.228-.283-.455-.42-.682m1.012.467h.428l.857 1.346v.446h-.137l-.72-1.149V9h-.428zM9.857 12h.429l.857 1.187v.407h-.137l-.72-.964v1.084h-.429zm4.286-4.714h.428v.428h-.428zm-5.67 0h.956v.428l-1.02.857-.266-.274.681-.583h-.351zm2.67 0h.428v.428h-.428zm-1.461.428c.197.257.385.514.591.772.201-.258.394-.515.6-.772 0 .172.009.339-.009.506-.184.27-.394.518-.595.78-.193-.257-.399-.506-.583-.767-.022-.172-.004-.343-.004-.515zm-1.968 6.004.643.772.643-.776v.51L8.357 15l-.643-.763v-.519M15 15.433l.643.771.643-.776v.51l-.643.776-.643-.763v-.518m-.428-7.719h1.714v.429H14.57zm-3 .429H12v1.555l-.137.155c-.334.008-.673 0-1.011.004-.043-.051-.099-.099-.138-.154V9h.429v.428h.428zm5.142 1.285v-.857h.429v.857zM15 9h.857l.429 1.286h-.429l-.317-.858h-.227l-.313.857h-.428zm-6.857 2.143H9l.429 1.285H9l-.321-.857h-.227l-.309.857h-.429zM13.286 15h.857l.428 1.285h-.428l-.322-.857h-.227l-.312.857h-.429L13.281 15zM6.429 9h1.285v.428H6.43zm3 7.714h1.285v.429H9.43zm-1.715-3.857H9v.429H7.714zm6.429-.429h1.286v.429h-1.286zM8.143 9h.429v.428h-.429zm1.286 0h.428v.857H9.43zm1.714 3h.428v.857h-.428zm.428 6.428h.43v.857h-.43zm5.752-9.257h.437l.429.686h-.463zM12 15h.429l.428.685H12.4L11.996 15zm-1.714 2.743h.437l.42.685h-.454zm2.571-8.315h.429v.857h-.429zm.857.429v-.429h.429v.429zm-6 .527c.288-.206.592-.386.888-.578l.582.004c-.287.201-.595.377-.887.578l.892.562h-.6c-.292-.189-.592-.364-.875-.566m9-.527h.429v.429h-.429zm-11.142 0h1.714v.429l-.772.428-.222-.248.317-.18H5.572zm4.714.429h1.286v.428h-1.286zm1.714 0h.429v.428H12zm1.286.655c0-.107.103-.227.18-.227h.677v.429h-.429v.428H15V12h-1.539c-.085 0-.17-.12-.17-.227v-.832m-7.72 2.576c0-.111.1-.231.18-.231h.678v.428H6v.429h1.286v.428H5.747c-.085 0-.171-.12-.171-.227v-.827M15 10.714h.429v.429H15zm1.286 0h1.285v.429h-1.285zm-6.857.429h.857v.428h-.857zm-2.143 4.285h.857v.429h-.857z"/><path fill="#fff" d="M11.143 11.143h1.397c.184 0 .313.129.317.266v.857l-.18.163H12V12h.429v-.428h-1.286zm-.429 5.143h1.397c.185 0 .313.128.318.266v.857l-.18.163h-.678v-.429H12v-.428h-1.286zm6.176-4.714h1.324c.107.055.24.154.215.274v1.44H18V12h-.857v.429h-.429v-.703zm-2.996 1.714h1.316c.111.056.24.154.214.274V15H15v-1.286h-.857v.43h-.429v-.704zm-7.037-1.714h.429v1.285h-.429zm4.286 3h.428v1.285h-.428zm4.714-2.143h.429v1.285h-.429zM6 11.572h.429V12H6zm3.429 2.571h.428v.429H9.43zm-.858 2.143H9v.428h-.429zM12.43 18h.428v.429h-.428zm3.857-3h.428v.429h-.428zm-3-2.571h.428v.428h-.428zm-.857.428h.428v.429h-.428zM9 15.43l1.05-.797.266.3-.669.497h1.067v.428H9zm2.571-1.303 1.05-.84.266.313-.668.527h1.067v.446H11.57zm4.715 0 1.05-.84.265.313-.672.527H18v.446h-1.714zM14.03 16.5c.146-.107.536.116.536.116v.043s-.656.287-.973.484h.549v.429h-1.286v-.429z"/></g><defs><clipPath id="a"><path fill="#fff" d="M0 0h24v24H0z"/></clipPath></defs></svg>