<svg width="24" height="24" viewBox="0 0 24 24" fill="none" xmlns="http://www.w3.org/2000/svg">
<g clip-path="url(#clip0_31_14996)">
<path d="M0 0H24V24H0V0Z" fill="#F0F3FA"/>
<path fill-rule="evenodd" clip-rule="evenodd" d="M8.42134 8.75127C8.98705 9.35127 10.1313 10.5641 10.1485 10.5941L9.94277 10.8513L7.67134 9.8227L5.57991 9.71127C5.49253 9.70578 5.40828 9.67671 5.3361 9.62715C5.26393 9.57759 5.20655 9.50938 5.17005 9.4298C5.13356 9.35022 5.11932 9.26223 5.12886 9.1752C5.13839 9.08817 5.17134 9.00535 5.2242 8.93556L6.76277 6.89127C6.97705 6.60413 7.41848 6.64699 7.57705 6.97699L8.42134 8.75127ZM7.48705 9.2827C7.02177 9.23395 6.55741 9.17679 6.0942 9.11127C6.07189 9.10817 6.05047 9.10047 6.03129 9.08867C6.01211 9.07687 5.99559 9.06121 5.98277 9.0427C5.95791 9.00662 5.94496 8.96368 5.94573 8.91987C5.9465 8.87607 5.96095 8.8336 5.98705 8.79842L6.71991 7.83841C6.75614 7.78859 6.80469 7.74904 6.86081 7.72361C6.91692 7.69819 6.97868 7.68778 7.04002 7.6934C7.10137 7.69901 7.16021 7.72047 7.21077 7.75565C7.26134 7.79084 7.3019 7.83856 7.32848 7.89413L7.79563 8.81556C7.83848 8.90127 7.83848 9.0127 7.79563 9.1027C7.76846 9.16134 7.72379 9.21014 7.66777 9.24237C7.61175 9.2746 7.54712 9.28869 7.48277 9.2827H7.48705ZM6.42848 8.85413L7.2342 8.94841C7.31134 8.95699 7.37991 8.91413 7.4142 8.84556C7.42774 8.81902 7.4348 8.78964 7.4348 8.75984C7.4348 8.73005 7.42774 8.70067 7.4142 8.67413L7.13991 8.1427C7.124 8.11173 7.1005 8.0853 7.07159 8.06589C7.04268 8.04649 7.00932 8.03473 6.97463 8.03173C6.93994 8.02874 6.90506 8.03459 6.87326 8.04875C6.84145 8.06291 6.81375 8.08492 6.79277 8.1127L6.3642 8.66984C6.34922 8.69038 6.34115 8.71514 6.34115 8.74056C6.34115 8.76598 6.34922 8.79074 6.3642 8.81127C6.37705 8.8327 6.40277 8.84556 6.42848 8.85413Z" fill="url(#paint0_linear_31_14996)"/>
<path d="M6.08988 14.2712C6.16274 14.1855 6.37703 13.9155 6.52703 13.7141C6.54503 13.6916 6.55656 13.6646 6.56037 13.6361C6.56419 13.6075 6.56016 13.5784 6.5487 13.552C6.53724 13.5256 6.5188 13.5027 6.49535 13.486C6.47189 13.4693 6.44432 13.4592 6.4156 13.457L5.90131 13.4141C5.87061 13.4117 5.83982 13.4173 5.81188 13.4302C5.78394 13.4432 5.75979 13.4631 5.74173 13.488C5.72367 13.5129 5.71231 13.5421 5.70874 13.5727C5.70516 13.6033 5.70949 13.6342 5.72131 13.6627L5.93131 14.2284C5.94845 14.2712 5.98703 14.297 6.02988 14.297C6.0556 14.297 6.07274 14.2841 6.08988 14.267V14.2712Z" fill="#00A69C"/>
<path fill-rule="evenodd" clip-rule="evenodd" d="M6.92578 12.7459C7.62435 12.6002 9.75435 11.9316 9.78863 11.9316L9.87863 12.2016L7.36292 13.7874L6.33006 15.2874C6.28798 15.3506 6.22921 15.4009 6.16027 15.4328C6.09134 15.4647 6.01492 15.4769 5.93948 15.468C5.86404 15.4591 5.79254 15.4296 5.73288 15.3825C5.67322 15.3355 5.62775 15.2729 5.60149 15.2016L4.82149 13.1274C4.79518 13.0607 4.78656 12.9883 4.79647 12.9173C4.80638 12.8463 4.83448 12.7791 4.87804 12.7222C4.9216 12.6652 4.97914 12.6205 5.04508 12.5924C5.11102 12.5643 5.18311 12.5537 5.25435 12.5616L6.92578 12.7459ZM6.88292 13.6802C6.62578 14.0274 6.25292 14.4902 6.12863 14.6359C6.11623 14.6514 6.10061 14.6641 6.08285 14.6729C6.0651 14.6818 6.04562 14.6867 6.02578 14.6874C5.98864 14.6887 5.95204 14.6782 5.92123 14.6574C5.89043 14.6366 5.86701 14.6066 5.85435 14.5716L5.49006 13.5859C5.47197 13.5368 5.46652 13.4839 5.4742 13.432C5.48187 13.3802 5.50244 13.3312 5.534 13.2894C5.56557 13.2476 5.60712 13.2144 5.65485 13.1928C5.70259 13.1712 5.75497 13.162 5.8072 13.1659L6.69006 13.2388C6.73954 13.2424 6.78712 13.2593 6.82774 13.2878C6.86836 13.3162 6.90049 13.3552 6.92072 13.4005C6.94095 13.4458 6.94852 13.4957 6.94262 13.545C6.93671 13.5942 6.91756 13.641 6.8872 13.6802H6.88292Z" fill="url(#paint1_linear_31_14996)"/>
<path d="M17.9274 12.0772C17.8374 12.1072 17.5631 12.2058 17.3659 12.2829C17.3437 12.2922 17.3243 12.3072 17.3097 12.3264C17.2952 12.3455 17.2859 12.3682 17.2828 12.3921C17.2798 12.416 17.2831 12.4403 17.2924 12.4625C17.3017 12.4847 17.3167 12.5041 17.3359 12.5186L17.6831 12.7758C17.7731 12.8486 17.9059 12.7972 17.9274 12.6858L18.0259 12.1801C18.03 12.1618 18.0281 12.1427 18.0203 12.1257C18.0126 12.1087 17.9995 12.0947 17.9831 12.0858C17.9749 12.0805 17.9657 12.077 17.9561 12.0755C17.9465 12.074 17.9367 12.0746 17.9274 12.0772Z" fill="#00A69C"/>
<path fill-rule="evenodd" clip-rule="evenodd" d="M16.6501 12.8014C16.0844 12.5957 12.5058 11.8114 12.4844 11.7943L12.5358 11.5586L16.7958 11.85L18.2015 11.2328C18.2606 11.2071 18.3257 11.1981 18.3896 11.2069C18.4535 11.2156 18.5137 11.2418 18.5637 11.2825C18.6137 11.3232 18.6516 11.3769 18.6731 11.4377C18.6946 11.4985 18.699 11.564 18.6858 11.6271L18.3429 13.4743C18.3325 13.5344 18.3065 13.5908 18.2677 13.6379C18.2288 13.685 18.1783 13.7211 18.1212 13.7427C18.0641 13.7644 18.0023 13.7707 17.942 13.7612C17.8817 13.7517 17.8249 13.7267 17.7772 13.6886L16.6501 12.8014ZM17.0915 12.1457L18.0601 11.7943C18.0758 11.7896 18.0924 11.7883 18.1086 11.7906C18.1249 11.7928 18.1405 11.7984 18.1544 11.8071C18.2101 11.8371 18.2401 11.9014 18.2315 11.97L18.0601 12.84C18.0523 12.8842 18.0333 12.9256 18.0049 12.9603C17.9766 12.995 17.9397 13.0218 17.898 13.0382C17.8562 13.0545 17.811 13.0599 17.7666 13.0537C17.7221 13.0475 17.6801 13.03 17.6444 13.0028L17.0401 12.5528C17.0066 12.5279 16.9804 12.4945 16.964 12.4561C16.9477 12.4177 16.9418 12.3757 16.947 12.3343C16.9523 12.2929 16.9684 12.2536 16.9938 12.2205C17.0192 12.1873 17.0529 12.1615 17.0915 12.1457Z" fill="url(#paint2_linear_31_14996)"/>
<path fill-rule="evenodd" clip-rule="evenodd" d="M12.6642 9.46716C12.7468 9.37433 12.8082 9.26466 12.8442 9.14574C12.8527 9.10716 12.857 9.07288 12.857 9.03431V7.72716C12.857 7.56002 12.917 7.40145 13.037 7.28574L13.487 6.96002C13.5899 6.86145 13.7185 6.86574 13.8599 6.86574H14.8456C14.9613 6.86145 15.0727 6.85716 15.1627 6.93431L15.6556 7.35859C15.7842 7.47002 15.8613 7.63716 15.8613 7.80859V9.02145C15.8613 9.10716 15.8442 9.19288 15.8099 9.26574C15.7499 9.40716 15.617 9.49716 15.4842 9.57859L15.3599 9.66431C15.2742 9.72859 15.1885 9.79288 15.0899 9.82288C15.017 9.84859 14.9313 9.86145 14.8456 9.85716H13.9413C13.8385 9.85716 13.7356 9.86145 13.6413 9.91288L12.1327 10.8557L11.8413 10.53L12.6642 9.46716ZM13.2856 7.80002C13.2856 7.51716 13.517 7.28574 13.7999 7.28574H14.9142C15.197 7.28574 15.4285 7.51716 15.4285 7.80002V8.91431C15.4285 9.19716 15.197 9.42859 14.9142 9.42859H13.7999C13.6635 9.42859 13.5327 9.37441 13.4362 9.27796C13.3398 9.18151 13.2856 9.0507 13.2856 8.91431V7.80002ZM14.9999 8.35716C14.9999 8.52766 14.9322 8.69117 14.8116 8.81173C14.691 8.93229 14.5275 9.00002 14.357 9.00002C14.1865 9.00002 14.023 8.93229 13.9025 8.81173C13.7819 8.69117 13.7142 8.52766 13.7142 8.35716C13.7142 8.18667 13.7819 8.02316 13.9025 7.9026C14.023 7.78204 14.1865 7.71431 14.357 7.71431C14.5275 7.71431 14.691 7.78204 14.8116 7.9026C14.9322 8.02316 14.9999 8.18667 14.9999 8.35716Z" fill="#1259A2"/>
<path fill-rule="evenodd" clip-rule="evenodd" d="M9.2141 14.9485C9.14124 15.0685 9.06838 15.1971 9.07695 15.3343L9.08124 15.3643L9.23553 16.3971C9.25267 16.53 9.21838 16.6628 9.13695 16.77L8.90553 17.07C8.82838 17.1685 8.71695 17.2328 8.59695 17.25L7.73124 17.3785C7.62125 17.3952 7.50892 17.3724 7.4141 17.3143L6.97267 17.0357C6.91498 16.9987 6.86597 16.9497 6.82898 16.892C6.792 16.8343 6.76791 16.7693 6.75838 16.7014L6.61695 15.7414C6.59981 15.6128 6.62981 15.4843 6.71124 15.3771L6.97696 15.0214C7.0541 14.9143 7.1741 14.85 7.30267 14.8328L8.03124 14.7471C8.04838 14.7471 8.06553 14.7471 8.08696 14.7385C8.20696 14.7085 8.29695 14.6185 8.38267 14.5285L10.4141 12.4414L10.5984 12.5871L9.20981 14.9485H9.2141ZM8.78553 16.3628C8.80024 16.464 8.7742 16.5668 8.71313 16.6488C8.65205 16.7308 8.56094 16.7851 8.45981 16.8L7.64553 16.9243C7.5444 16.9377 7.44208 16.9105 7.36096 16.8486C7.27984 16.7868 7.22652 16.6953 7.21267 16.5943L7.08838 15.7671C7.08049 15.7167 7.08267 15.6652 7.0948 15.6157C7.10694 15.5661 7.12878 15.5195 7.15908 15.4784C7.18937 15.4373 7.22751 15.4027 7.27129 15.3765C7.31506 15.3503 7.3636 15.333 7.4141 15.3257L8.22838 15.2057C8.32886 15.1922 8.43061 15.2188 8.51161 15.2798C8.59262 15.3407 8.64637 15.4311 8.66124 15.5314L8.78553 16.3585V16.3628ZM7.45695 16.1357C7.4141 15.8657 7.60267 15.6214 7.8641 15.5785C7.92798 15.5693 7.99306 15.5726 8.05563 15.5885C8.1182 15.6044 8.17703 15.6324 8.22877 15.671C8.2805 15.7096 8.32413 15.758 8.35715 15.8135C8.39018 15.869 8.41195 15.9304 8.42124 15.9943C8.43053 16.0581 8.42714 16.1232 8.41127 16.1858C8.39541 16.2484 8.36737 16.3072 8.32877 16.3589C8.29017 16.4107 8.24175 16.4543 8.18629 16.4873C8.13083 16.5203 8.06941 16.5421 8.00553 16.5514C7.7441 16.59 7.49553 16.4057 7.45695 16.1357Z" fill="url(#paint3_linear_31_14996)"/>
<path fill-rule="evenodd" clip-rule="evenodd" d="M10.6931 8.37C10.8998 8.22136 11.0468 8.00398 11.1078 7.7568C11.1687 7.50962 11.1397 7.2488 11.0259 7.02108C10.9121 6.79336 10.7209 6.61361 10.4865 6.51404C10.2522 6.41448 9.99011 6.4016 9.74717 6.47773C9.50423 6.55385 9.29633 6.71399 9.16072 6.92946C9.02512 7.14494 8.97068 7.40165 9.00715 7.65362C9.04361 7.90558 9.16861 8.13633 9.35975 8.30451C9.55088 8.47269 9.79565 8.56731 10.0502 8.57143L10.6759 10.2429L11.0102 10.2L10.6931 8.37ZM10.0716 8.14286C10.2421 8.14286 10.4056 8.07513 10.5262 7.95457C10.6468 7.83401 10.7145 7.6705 10.7145 7.5C10.7145 7.3295 10.6468 7.16599 10.5262 7.04543C10.4056 6.92487 10.2421 6.85714 10.0716 6.85714C9.90114 6.85714 9.73763 6.92487 9.61707 7.04543C9.49651 7.16599 9.42878 7.3295 9.42878 7.5C9.42878 7.6705 9.49651 7.83401 9.61707 7.95457C9.73763 8.07513 9.90114 8.14286 10.0716 8.14286ZM10.5002 7.5C10.5002 7.61366 10.4551 7.72267 10.3747 7.80305C10.2943 7.88342 10.1853 7.92857 10.0716 7.92857C9.95797 7.92857 9.84896 7.88342 9.76859 7.80305C9.68822 7.72267 9.64307 7.61366 9.64307 7.5C9.64307 7.38634 9.68822 7.27733 9.76859 7.19695C9.84896 7.11658 9.95797 7.07143 10.0716 7.07143C10.1853 7.07143 10.2943 7.11658 10.3747 7.19695C10.4551 7.27733 10.5002 7.38634 10.5002 7.5Z" fill="url(#paint4_linear_31_14996)"/>
<path fill-rule="evenodd" clip-rule="evenodd" d="M10.8345 13.7828C10.6068 13.8653 10.4104 14.0163 10.2722 14.2151C10.1341 14.4139 10.061 14.6507 10.063 14.8928C10.0653 15.2062 10.1914 15.5059 10.4138 15.7267C10.6361 15.9475 10.9368 16.0714 11.2502 16.0714C11.4045 16.0714 11.5574 16.0408 11.6999 15.9815C11.8424 15.9222 11.9718 15.8352 12.0805 15.7257C12.1893 15.6161 12.2753 15.4861 12.3336 15.3432C12.3919 15.2002 12.4213 15.0472 12.4202 14.8928C12.4202 14.3228 12.013 13.8471 11.4773 13.7356L11.3659 12.6599L11.0316 12.6128L10.8345 13.7828ZM11.2416 14.1428C10.8259 14.1428 10.4916 14.4814 10.4959 14.8928C10.4959 15.3085 10.8387 15.6428 11.2502 15.6428C11.6659 15.6428 12.0002 15.3085 11.9959 14.8928C11.9959 14.4814 11.653 14.1428 11.2416 14.1428ZM10.7959 14.8885C10.7959 14.7748 10.841 14.6658 10.9214 14.5855C11.0018 14.5051 11.1108 14.4599 11.2245 14.4599C11.3381 14.4599 11.4471 14.5051 11.5275 14.5855C11.6079 14.6658 11.653 14.7748 11.653 14.8885C11.653 15.0022 11.6079 15.1112 11.5275 15.1916C11.4471 15.2719 11.3381 15.3171 11.2245 15.3171C11.1108 15.3171 11.0018 15.2719 10.9214 15.1916C10.841 15.1112 10.7959 15.0022 10.7959 14.8885Z" fill="url(#paint5_linear_31_14996)"/>
<path d="M12.4285 5.78551C12.4328 6.02122 12.2443 6.21408 12.0085 6.21408C11.7685 6.21408 11.58 6.02122 11.5757 5.78551C11.5757 5.54979 11.7643 5.35693 12 5.35693C12.2357 5.35693 12.4285 5.54979 12.4285 5.78551Z" fill="#2F9AD5"/>
<path fill-rule="evenodd" clip-rule="evenodd" d="M12.3342 6.81007C12.552 6.742 12.7421 6.60565 12.8764 6.42119C13.0106 6.23673 13.082 6.01394 13.0799 5.78578C13.0776 5.50084 12.9629 5.22833 12.7606 5.02764C12.5583 4.82695 12.2849 4.71435 11.9999 4.71436C11.8596 4.71435 11.7207 4.74212 11.5912 4.79607C11.4617 4.85002 11.3441 4.92908 11.2453 5.02868C11.1465 5.12829 11.0684 5.24647 11.0155 5.37641C10.9626 5.50636 10.9359 5.64549 10.937 5.78578C10.937 6.24436 11.2328 6.63436 11.6399 6.78864L11.1428 10.3929L11.4685 10.4829L12.3428 6.81007H12.3342ZM12.0085 6.42864C12.3642 6.42864 12.6513 6.1415 12.6513 5.78578C12.647 5.43007 12.3513 5.14293 11.9999 5.14293C11.6442 5.14293 11.357 5.43007 11.3613 5.78578C11.3613 6.1415 11.657 6.42864 12.0085 6.42864Z" fill="url(#paint6_linear_31_14996)"/>
<path d="M18.4286 15.8526C18.1929 15.8526 18 15.6555 18 15.4198C18 15.1841 18.1929 14.9912 18.4286 14.9912C18.6643 14.9998 18.8571 15.1926 18.8571 15.4284C18.8571 15.6641 18.6643 15.8569 18.4286 15.8526Z" fill="#1082B5"/>
<path fill-rule="evenodd" clip-rule="evenodd" d="M17.143 15.3986C17.143 15.7412 17.2779 16.07 17.5185 16.3139C17.7592 16.5577 18.0862 16.697 18.4287 16.7015C19.1402 16.71 19.7145 16.14 19.7145 15.4286C19.7134 15.0868 19.578 14.759 19.3374 14.5161C19.0969 14.2732 18.7706 14.1345 18.4287 14.13C18.0902 14.1258 17.7859 14.25 17.5545 14.46L12.3473 11.8286L12.1416 12.1715L17.1559 15.2486L17.143 15.4029V15.3986ZM17.5716 15.4115C17.5716 15.8829 17.9573 16.2686 18.4287 16.2772C18.9002 16.2815 19.2859 15.9 19.2859 15.4286C19.2859 14.9572 18.9002 14.5672 18.4287 14.5629C17.9573 14.5586 17.5716 14.9358 17.5716 15.4115Z" fill="url(#paint7_linear_31_14996)"/>
<path d="M14.2327 16.6116C14.2242 16.6501 14.0056 17.1216 13.7999 17.5544C13.7286 17.7029 13.7016 17.8687 13.7221 18.0322C13.7427 18.1956 13.8098 18.3496 13.9156 18.4758L14.7042 19.4187C14.8885 19.633 15.1756 19.7444 15.4585 19.7058L16.4013 19.5773C16.6799 19.5387 16.9156 19.3673 17.0442 19.1187L17.5756 18.0473C17.6475 17.9036 17.6775 17.7427 17.6624 17.5828C17.6472 17.423 17.5874 17.2705 17.4899 17.143L16.7613 16.213C16.6738 16.0991 16.5584 16.0097 16.4263 15.9534C16.2942 15.8971 16.1498 15.8758 16.007 15.8916L15.2485 15.9816L11.9699 12.2744L11.8413 12.4887L14.2327 16.6116ZM16.9027 17.7687C16.9039 17.928 16.8736 18.0859 16.8137 18.2335C16.7538 18.3811 16.6654 18.5154 16.5536 18.6288C16.4417 18.7423 16.3087 18.8325 16.1619 18.8945C16.0152 18.9565 15.8577 18.989 15.6985 18.9901C15.5392 18.9896 15.3816 18.9576 15.2346 18.8962C15.0877 18.8347 14.9543 18.7449 14.8421 18.6319C14.7299 18.5188 14.641 18.3848 14.5806 18.2375C14.5201 18.0901 14.4893 17.9323 14.4899 17.773C14.4888 17.6134 14.5191 17.4551 14.5793 17.3072C14.6395 17.1593 14.7283 17.0248 14.8406 16.9113C14.9528 16.7979 15.0864 16.7077 15.2336 16.6459C15.3809 16.5842 15.5388 16.5521 15.6985 16.5516C15.8577 16.5527 16.0152 16.5852 16.1619 16.6472C16.3087 16.7091 16.4417 16.7994 16.5536 16.9128C16.6654 17.0263 16.7538 17.1606 16.8137 17.3082C16.8736 17.4558 16.9039 17.6137 16.9027 17.773V17.7687ZM16.3027 17.7687C16.3027 18.1116 16.0285 18.3816 15.6985 18.3816C15.3642 18.3816 15.0942 18.1073 15.0942 17.773C15.0942 17.4301 15.3642 17.1601 15.6942 17.1601C16.0285 17.1601 16.2985 17.4344 16.2985 17.773L16.3027 17.7687Z" fill="url(#paint8_linear_31_14996)"/>
<path d="M16.6027 10.6158C16.6541 10.6629 16.7184 10.7229 16.8084 10.8215C16.937 10.9629 17.1427 11.0101 17.3227 10.9458L17.9999 10.7015C18.1541 10.6458 18.2741 10.5129 18.3127 10.3501L18.437 9.79722C18.4713 9.63865 18.4284 9.4715 18.3213 9.3515L17.8541 8.83722C17.7256 8.6915 17.5284 8.64007 17.3441 8.69579L16.6927 8.9015C16.5299 8.95722 16.4056 9.09007 16.3627 9.25722L16.2556 9.69436L12.3213 11.1215L12.407 11.2372L16.457 10.4658C16.4999 10.5215 16.5427 10.5601 16.6027 10.6158ZM17.357 9.21865C17.7127 9.21865 17.9999 9.51007 17.9999 9.86579C17.9999 10.2215 17.7127 10.5086 17.357 10.5086C17.0013 10.5001 16.7141 10.2086 16.7141 9.85722C16.7141 9.5015 17.0013 9.21436 17.357 9.21865ZM17.4427 9.48436C17.6227 9.55293 17.7127 9.75865 17.6441 9.94293C17.628 9.98636 17.6033 10.0262 17.5717 10.06C17.5401 10.0939 17.502 10.1212 17.4598 10.1403C17.4176 10.1595 17.372 10.17 17.3257 10.1715C17.2793 10.1729 17.2332 10.1651 17.1899 10.1486C17.1018 10.115 17.0307 10.0479 16.9922 9.96191C16.9536 9.87593 16.9507 9.77817 16.9841 9.69007C17.0003 9.64664 17.025 9.60684 17.0566 9.57296C17.0882 9.53908 17.1263 9.5118 17.1685 9.49268C17.2107 9.47355 17.2563 9.46298 17.3026 9.46155C17.349 9.46012 17.3951 9.46787 17.4384 9.48436H17.4427Z" fill="url(#paint9_linear_31_14996)"/>
<path d="M6.8312 11.5159L7.38834 12.1759C7.55977 12.3773 7.85977 12.403 8.0612 12.2359L8.66549 11.7216L9.90834 11.5844L9.9512 11.2416L8.7212 11.0144L8.16406 10.3844C7.99692 10.1959 7.70977 10.1701 7.51263 10.3287L6.89549 10.8216C6.6812 10.993 6.6512 11.3101 6.8312 11.5159ZM7.24692 11.4559C7.2019 11.4102 7.17666 11.3486 7.17666 11.2844C7.17666 11.2203 7.2019 11.1587 7.24692 11.113L7.63263 10.7273C7.67741 10.6838 7.73737 10.6595 7.79977 10.6595C7.86218 10.6595 7.92213 10.6838 7.96692 10.7273L8.35263 11.113C8.44263 11.2073 8.44263 11.3616 8.35263 11.4559L7.96692 11.8416C7.92194 11.8863 7.86108 11.9114 7.79763 11.9114C7.73418 11.9114 7.67332 11.8863 7.62834 11.8416L7.24692 11.4559ZM7.47406 11.3873C7.44684 11.36 7.43156 11.323 7.43156 11.2844C7.43156 11.2459 7.44684 11.2089 7.47406 11.1816L7.69692 10.9544C7.71007 10.9411 7.72575 10.9305 7.74304 10.9233C7.76033 10.916 7.77889 10.9123 7.79763 10.9123C7.81637 10.9123 7.83493 10.916 7.85222 10.9233C7.86951 10.9305 7.88519 10.9411 7.89834 10.9544L8.12549 11.1816C8.1812 11.2416 8.1812 11.3316 8.12549 11.3873L7.89834 11.6144C7.88519 11.6278 7.86951 11.6384 7.85222 11.6456C7.83493 11.6528 7.81637 11.6566 7.79763 11.6566C7.77889 11.6566 7.76033 11.6528 7.74304 11.6456C7.72575 11.6384 7.71007 11.6278 7.69692 11.6144L7.47406 11.3873Z" fill="#1159A2"/>
<path fill-rule="evenodd" clip-rule="evenodd" d="M11.143 13.2855C11.5977 13.2855 12.0337 13.1049 12.3552 12.7834C12.6767 12.4619 12.8573 12.0259 12.8573 11.5712C12.8573 11.1166 12.6767 10.6805 12.3552 10.359C12.0337 10.0375 11.5977 9.85693 11.143 9.85693C10.6883 9.85693 10.2523 10.0375 9.93081 10.359C9.60932 10.6805 9.42871 11.1166 9.42871 11.5712C9.42871 12.0259 9.60932 12.4619 9.93081 12.7834C10.2523 13.1049 10.6883 13.2855 11.143 13.2855ZM11.143 12.4284C11.3703 12.4284 11.5883 12.3381 11.7491 12.1773C11.9098 12.0166 12.0001 11.7985 12.0001 11.5712C12.0001 11.3439 11.9098 11.1259 11.7491 10.9651C11.5883 10.8044 11.3703 10.7141 11.143 10.7141C10.9157 10.7141 10.6977 10.8044 10.5369 10.9651C10.3762 11.1259 10.2859 11.3439 10.2859 11.5712C10.2859 11.7985 10.3762 12.0166 10.5369 12.1773C10.6977 12.3381 10.9157 12.4284 11.143 12.4284Z" fill="#1259A2"/>
</g>
<defs>
<linearGradient id="paint0_linear_31_14996" x1="5.94848" y1="8.3827" x2="11.2799" y2="11.7598" gradientUnits="userSpaceOnUse">
<stop offset="0.27" stop-color="#00A69C"/>
<stop offset="1" stop-color="#006771"/>
</linearGradient>
<linearGradient id="paint1_linear_31_14996" x1="5.24578" y1="13.6802" x2="10.2986" y2="12.0002" gradientUnits="userSpaceOnUse">
<stop offset="0.32" stop-color="#00A69C"/>
<stop offset="1" stop-color="#186472"/>
</linearGradient>
<linearGradient id="paint2_linear_31_14996" x1="14.5801" y1="11.7857" x2="11.9529" y2="11.5071" gradientUnits="userSpaceOnUse">
<stop stop-color="#00A69C"/>
<stop offset="1" stop-color="#13626F"/>
</linearGradient>
<linearGradient id="paint3_linear_31_14996" x1="9.39838" y1="14.9614" x2="10.697" y2="12.6985" gradientUnits="userSpaceOnUse">
<stop stop-color="#1159A2"/>
<stop offset="1" stop-color="#035C72"/>
</linearGradient>
<linearGradient id="paint4_linear_31_14996" x1="9.89592" y1="8.77286" x2="10.6931" y2="10.6671" gradientUnits="userSpaceOnUse">
<stop stop-color="#1182B5"/>
<stop offset="1" stop-color="#086B88"/>
</linearGradient>
<linearGradient id="paint5_linear_31_14996" x1="10.8645" y1="16.0371" x2="10.9716" y2="13.0199" gradientUnits="userSpaceOnUse">
<stop offset="0.66" stop-color="#1081B4"/>
<stop offset="1" stop-color="#0A5E7B"/>
</linearGradient>
<linearGradient id="paint6_linear_31_14996" x1="12.5613" y1="4.75293" x2="11.4342" y2="10.1658" gradientUnits="userSpaceOnUse">
<stop offset="0.53" stop-color="#2F9AD5"/>
<stop offset="1" stop-color="#125E7D"/>
</linearGradient>
<linearGradient id="paint7_linear_31_14996" x1="19.1573" y1="16.47" x2="10.7316" y2="11.5115" gradientUnits="userSpaceOnUse">
<stop offset="0.49" stop-color="#1082B5"/>
<stop offset="1" stop-color="#015E6D"/>
</linearGradient>
<linearGradient id="paint8_linear_31_14996" x1="14.2585" y1="15.3773" x2="11.807" y2="12.0301" gradientUnits="userSpaceOnUse">
<stop stop-color="#2D99D5"/>
<stop offset="1" stop-color="#176273"/>
</linearGradient>
<linearGradient id="paint9_linear_31_14996" x1="14.8284" y1="10.6758" x2="11.7727" y2="11.2715" gradientUnits="userSpaceOnUse">
<stop stop-color="#2E99D5"/>
<stop offset="1" stop-color="#136371"/>
</linearGradient>
<clipPath id="clip0_31_14996">
<rect width="24" height="24" fill="white"/>
</clipPath>
</defs>
</svg>
