<svg xmlns="http://www.w3.org/2000/svg" width="24" height="24" fill="none" viewBox="0 0 24 24"><g clip-path="url(#a)"><path fill="url(#b)" d="M0 0h24v24H0z"/><path fill="#00E789" d="M10.714 14.867 12 16.65v3.874l-4.714-2.271V8.27c0-.15.047-.291.154-.386l.557-.5a.51.51 0 0 1 .754.076l4.295 6.116 2.383 1.569V6.728l-2.143-1.14v5.285L12 9.278V3.471l4.714 2.37v9.943l-.943.956L12.3 14.7 8.57 9.403v8.057l2.143 1.041z"/></g><defs><linearGradient id="b" x1="4.466" x2="29.207" y1="4.161" y2="32.58" gradientUnits="userSpaceOnUse"><stop stop-color="#1A1E21"/><stop offset="1" stop-color="#06060A"/></linearGradient><clipPath id="a"><path fill="#fff" d="M0 0h24v24H0z"/></clipPath></defs></svg>