<svg width="24" height="24" viewBox="0 0 24 24" fill="none" xmlns="http://www.w3.org/2000/svg">
<g clip-path="url(#clip0_31_15128)">
<path d="M0 0H24V24H0V0Z" fill="#FE0000"/>
<path fill-rule="evenodd" clip-rule="evenodd" d="M5.57153 5.57129H10.7144V7.71415H13.2858V5.57129H18.4287V10.7141H16.2858V13.2856H18.4287V18.4284H13.2858V16.2856H10.7144V18.4284H5.57153V13.2856H7.71439V10.7141H5.57153V5.57129ZM8.57153 10.7141V13.2856H10.7144V15.4284H13.2858V13.2856H15.4287V10.7141H13.2858V8.57129H10.7144V10.7141H8.57153ZM6.85725 6.857H9.42868V9.42843H6.85725V6.857ZM6.85725 14.5713H9.42868V17.1427H6.85725V14.5713ZM17.143 6.857H14.5715V9.42843H17.143V6.857ZM14.5715 14.5713H17.143V17.1427H14.5715V14.5713Z" fill="white"/>
</g>
<defs>
<clipPath id="clip0_31_15128">
<rect width="24" height="24" fill="white"/>
</clipPath>
</defs>
</svg>
