<svg xmlns="http://www.w3.org/2000/svg" width="24" height="24" fill="none" viewBox="0 0 24 24"><g clip-path="url(#a)"><path fill="#F0F3FA" d="M0 0h24v24H0z"/><path fill="#1FBAE5" d="M18.118 12a4.94 4.94 0 0 1 .034 2.547 4.95 4.95 0 0 0 0-5.094c.212.838.2 1.716-.034 2.547"/><path fill="#1FBAE5" d="M16.325 7.675c.393.695.61 1.475.632 2.273.548.579.947 1.284 1.16 2.052.235-.831.247-1.71.035-2.547a4.93 4.93 0 0 0-1.827-1.778"/><path fill="#1FBAE5" d="M15.235 8.791a5 5 0 0 1 1.642 1.112l.11.122a5.1 5.1 0 0 0-.645-2.356 4.96 4.96 0 0 0-2.325-.655l.12.111a5.1 5.1 0 0 1 1.098 1.666"/><path fill="#1FBAE5" d="M12 7.415a5 5 0 0 1 1.499.98c.599.02 1.19.148 1.744.377A4.9 4.9 0 0 0 14.17 7.15l-.118-.108h-.156A4.9 4.9 0 0 0 12 7.415"/><path fill="#1FBAE5" d="M12 8.572a5 5 0 0 1 1.499-.182 5 5 0 0 0-1.5-.98 5 5 0 0 0-1.498.98A5 5 0 0 1 12 8.57z"/><path fill="#1FBAE5" d="M9.551 9.585c.39-.223.807-.393 1.24-.504a5 5 0 0 1 1.251-.504 5 5 0 0 0-1.524-.187c-.38.348-.707.75-.967 1.195"/><path fill="#1FBAE5" d="M9.909 9.757q.403-.395.881-.696a5 5 0 0 0-1.239.49c-.216.383-.38.793-.49 1.22q.292-.478.676-.882c.069-.034.118-.083.172-.132"/><path fill="#1FBAE5" d="M9.706 9.89c-.262.268-.45.55-.65.868-.089.36-.133.763-.142 1.134A3.3 3.3 0 0 1 9.8 9.838z"/><path fill="#0ED2D7" d="M16.325 7.675a4.93 4.93 0 0 1 1.827 1.778 4.95 4.95 0 0 0-3.605-3.605 4.93 4.93 0 0 1 1.778 1.827"/><path fill="#0ED2D7" d="M12 5.882a4.9 4.9 0 0 1 2.052 1.16c.798.023 1.578.24 2.273.633a4.93 4.93 0 0 0-1.778-1.827A4.94 4.94 0 0 0 12 5.882"/><path fill="#0ED2D7" d="M12 7.46a5 5 0 0 1 1.932-.388h.16A5 5 0 0 0 12 5.882a5 5 0 0 0-2.092 1.195h.16A5 5 0 0 1 12 7.459"/><path fill="#0ED2D7" d="M8.757 8.757a5.3 5.3 0 0 1 1.802-.377 5.2 5.2 0 0 1 1.548-.98 5.2 5.2 0 0 0-1.958-.377h-.162l-.121.108a4.9 4.9 0 0 0-1.109 1.626"/><path fill="#0ED2D7" d="M9.586 9.55c.257-.443.58-.844.959-1.19a5.3 5.3 0 0 0-1.796.377 4.9 4.9 0 0 0-.388 1.744c.36-.37.772-.684 1.225-.93"/><path fill="#0ED2D7" d="M8.571 12c.11-.423.276-.83.49-1.21.108-.433.272-.85.49-1.24a5 5 0 0 0-1.19.932A5 5 0 0 0 8.571 12"/><path fill="#0ED2D7" d="M8.934 12v-.108q.003-.557.127-1.102a5 5 0 0 0-.49 1.21c.111.422.276.83.49 1.21a5 5 0 0 1-.147-1.103z"/><path fill="#0ED2D7" d="M8.911 12.13c.003.39.03.7.115 1.08q.298.5.692.928c-.51-.571-.765-1.354-.786-2.128z"/><path fill="#25B1EA" d="M18.152 14.547a4.93 4.93 0 0 1-1.827 1.778 4.93 4.93 0 0 1-1.778 1.827 4.95 4.95 0 0 0 3.605-3.605"/><path fill="#25B1EA" d="M18.118 12a4.9 4.9 0 0 1-1.162 2.052 4.9 4.9 0 0 1-.63 2.273 4.93 4.93 0 0 0 1.826-1.778c.212-.837.2-1.716-.034-2.547"/><path fill="#25B1EA" d="M16.585 12c.25.6.378 1.245.377 1.895v.157A4.9 4.9 0 0 0 18.118 12a4.9 4.9 0 0 0-1.162-2.052v.157A4.9 4.9 0 0 1 16.586 12"/><path fill="#25B1EA" d="M15.208 8.757c.235.573.366 1.183.387 1.802.426.451.766.976 1.005 1.549.258-.621.39-1.287.387-1.96v-.161l-.11-.121a5 5 0 0 0-1.67-1.109"/><path fill="#25B1EA" d="M14.449 9.58c.443.256.845.578 1.19.955a5.3 5.3 0 0 0-.377-1.788 4.9 4.9 0 0 0-1.744-.387c.37.358.684.77.93 1.22"/><path fill="#25B1EA" d="M12 8.571c.423.11.83.275 1.21.49a5 5 0 0 1 1.239.49 5 5 0 0 0-.93-1.19A5 5 0 0 0 12 8.57"/><path fill="#25B1EA" d="M12.024 8.933h.11a5.3 5.3 0 0 1 1.123.147 5.2 5.2 0 0 0-1.233-.509c-.43.11-.845.275-1.234.49a5.3 5.3 0 0 1 1.124-.147z"/><path fill="#25B1EA" d="M11.892 8.901a5 5 0 0 0-1.105.153 5.3 5.3 0 0 0-.885.703 3.02 3.02 0 0 1 1.99-.856"/><path fill="#2DA5F2" d="M12 18.117a4.94 4.94 0 0 1-2.547.034 4.95 4.95 0 0 0 5.094 0c-.838.212-1.716.2-2.547-.034"/><path fill="#2DA5F2" d="M16.325 16.325a4.9 4.9 0 0 1-2.273.631A4.9 4.9 0 0 1 12 18.118c.831.234 1.71.246 2.547.035a4.93 4.93 0 0 0 1.778-1.828"/><path fill="#2DA5F2" d="M16.849 14.17a4.9 4.9 0 0 1-1.606 1.072 4.9 4.9 0 0 1-1.073 1.607l-.117.107a4.9 4.9 0 0 0 2.272-.631c.393-.695.61-1.475.632-2.273z"/><path fill="#2DA5F2" d="M16.566 11.943a5 5 0 0 1-.956 1.547 5 5 0 0 1-.334 1.777 5 5 0 0 0 1.61-1.134l.106-.122-.004-.159a4.9 4.9 0 0 0-.422-1.91"/><path fill="#2DA5F2" d="M15.429 12c.135.488.196.993.18 1.499.415-.436.747-.944.98-1.499a5 5 0 0 0-.98-1.499c.016.506-.077.983-.213 1.47z"/><path fill="#2DA5F2" d="M14.425 9.55c.22.384.388.794.5 1.22.22.386.388.8.5 1.23.138-.487.2-.992.184-1.499a5 5 0 0 0-1.184-.95"/><path fill="#2DA5F2" d="M14.939 10.79a5 5 0 0 0-.49-1.24 5 5 0 0 0-1.22-.489c.688.42 1.282 1.048 1.71 1.73"/><path fill="#2DA5F2" d="M14.134 9.756a5.4 5.4 0 0 0-.9-.695 5.3 5.3 0 0 0-1.126-.147c.754.03 1.473.329 2.026.842"/><path fill="#1FBAE5" d="M5.883 12a4.94 4.94 0 0 1-.035-2.547 4.95 4.95 0 0 0 0 5.094A4.94 4.94 0 0 1 5.883 12"/><path fill="#1FBAE5" d="M7.675 16.325a4.9 4.9 0 0 1-.632-2.273A4.9 4.9 0 0 1 5.883 12a4.94 4.94 0 0 0-.035 2.547 4.93 4.93 0 0 0 1.827 1.778"/><path fill="#1FBAE5" d="M8.765 15.234a5 5 0 0 1-1.642-1.096l-.11-.12c.023.815.244 1.612.646 2.322.71.401 1.507.623 2.322.646l-.12-.11a5 5 0 0 1-1.096-1.642"/><path fill="#1FBAE5" d="M12 16.584a5 5 0 0 1-1.499-.98c-.599-.02-1.19-.148-1.744-.377.246.607.61 1.159 1.073 1.622l.117.108h.157A4.9 4.9 0 0 0 12 16.584"/><path fill="#1FBAE5" d="M12 15.39c-.52.14-1.058.203-1.596.186A5.3 5.3 0 0 0 12 16.59a5.3 5.3 0 0 0 1.596-1.013A5.5 5.5 0 0 1 12 15.39"/><path fill="#1FBAE5" d="M14.449 14.415a5 5 0 0 1-1.22.504c-.386.223-.8.392-1.229.504.488.14.993.203 1.499.186a5.1 5.1 0 0 0 .95-1.194"/><path fill="#1FBAE5" d="M14.243 14.092a2 2 0 0 1-.152.151 5.3 5.3 0 0 1-.881.696c.433-.108.85-.272 1.239-.49.216-.383.369-.813.477-1.24-.2.312-.421.62-.683.883"/><path fill="#1FBAE5" d="M14.243 14.091q.395-.404.696-.882c.089-.36.138-.73.147-1.101a3.07 3.07 0 0 1-.843 1.983"/><path fill="#19C2E0" d="M7.675 7.675a4.93 4.93 0 0 1 1.778-1.827 4.95 4.95 0 0 0-3.605 3.605 4.93 4.93 0 0 1 1.827-1.778"/><path fill="#19C2E0" d="M5.883 12a4.9 4.9 0 0 1 1.16-2.052c.022-.798.24-1.578.632-2.273a4.93 4.93 0 0 0-1.827 1.778c-.212.837-.2 1.716.035 2.547"/><path fill="#19C2E0" d="M7.42 12c-.257-.601-.36-1.269-.358-1.92v-.156A5 5 0 0 0 5.848 12c.221.771.63 1.476 1.19 2.052v-.157A4.8 4.8 0 0 1 7.42 12"/><path fill="#19C2E0" d="M8.772 15.242a5 5 0 0 1-.38-1.755 5 5 0 0 1-.988-1.509 4.9 4.9 0 0 0-.38 1.908v.158l.108.118a4.9 4.9 0 0 0 1.64 1.08"/><path fill="#19C2E0" d="M9.551 14.422a5 5 0 0 1-1.19-.953c.02.613.148 1.217.377 1.784a4.9 4.9 0 0 0 1.744.386 5.1 5.1 0 0 1-.93-1.217"/><path fill="#19C2E0" d="M12 15.428c-.423-.11-.707-.269-1.087-.483-.433-.108-.973-.279-1.362-.496.248.441.562.842.93 1.19a5 5 0 0 0 1.519-.21"/><path fill="#19C2E0" d="M12.018 15.059h-.11a5 5 0 0 1-1.118-.16c.385.24.798.425 1.228.55a5 5 0 0 0 1.228-.528c-.366.096-.742.149-1.119.159z"/><path fill="#19C2E0" d="M12.01 15.07c.237.092.838-.035 1.199-.124a5.4 5.4 0 0 0 .882-.703c-.54.505-1.885.795-2.081.826"/><path fill="#25B1EA" d="M7.675 16.325a4.93 4.93 0 0 1-1.827-1.778 4.95 4.95 0 0 0 3.605 3.605 4.93 4.93 0 0 1-1.778-1.827"/><path fill="#25B1EA" d="M12 18.117a4.9 4.9 0 0 1-2.052-1.16 4.9 4.9 0 0 1-2.273-.632 4.93 4.93 0 0 0 1.778 1.827c.837.211 1.716.2 2.547-.035"/><path fill="#25B1EA" d="M12 16.585a4.9 4.9 0 0 1-1.896.377h-.156c.58.546 1.284.943 2.052 1.156a4.9 4.9 0 0 0 2.052-1.162h-.156A4.9 4.9 0 0 1 12 16.585"/><path fill="#25B1EA" d="M15.243 15.242a5 5 0 0 1-1.744.377A5 5 0 0 1 12 16.6c.6.25 1.245.379 1.896.378h.156l.118-.108a4.9 4.9 0 0 0 1.073-1.626"/><path fill="#25B1EA" d="M14.438 14.367c-.27.473-.61.902-1.009 1.273a5.5 5.5 0 0 0 1.89-.404 5.3 5.3 0 0 0 .41-1.864c-.378.394-.813.73-1.29.995"/><path fill="#25B1EA" d="M15.424 11.966c-.112.429-.28.841-.5 1.227-.11.44-.277.862-.5 1.256a5.1 5.1 0 0 0 1.215-.943 5 5 0 0 0-.215-1.54"/><path fill="#25B1EA" d="M14.92 13.21a5 5 0 0 0 .509-1.21 5 5 0 0 0-.49-1.21c.193.78.172 1.64-.02 2.42"/><path fill="#25B1EA" d="M15.084 11.894a5.4 5.4 0 0 0-.13-1.144c-.193-.317-.438-.585-.694-.854.505.545.798 1.254.824 1.997"/><path fill="#14CADB" d="M12 5.882a4.94 4.94 0 0 1 2.547-.034 4.95 4.95 0 0 0-5.094 0A4.94 4.94 0 0 1 12 5.882"/><path fill="#14CADB" d="M7.675 7.675a4.9 4.9 0 0 1 2.273-.632A4.9 4.9 0 0 1 12 5.882a4.94 4.94 0 0 0-2.547-.034 4.93 4.93 0 0 0-1.778 1.827"/><path fill="#14CADB" d="M8.82 8.766a5 5 0 0 1 1.13-1.642l.125-.11a5.3 5.3 0 0 0-2.396.646 4.9 4.9 0 0 0-.666 2.322l.114-.12A5.2 5.2 0 0 1 8.82 8.766"/><path fill="#14CADB" d="M7.416 12a5 5 0 0 1 .979-1.499c.021-.599.149-1.19.377-1.744a4.9 4.9 0 0 0-1.62 1.073l-.109.117v.157c-.003.65.124 1.295.373 1.896"/><path fill="#14CADB" d="M8.571 12a5 5 0 0 1-.18-1.499 5 5 0 0 0-.98 1.5c.233.554.565 1.062.98 1.498A5 5 0 0 1 8.57 12"/><path fill="#14CADB" d="M9.592 14.498a5.1 5.1 0 0 1-.507-1.255 5.2 5.2 0 0 1-.507-1.265 5.1 5.1 0 0 0-.188 1.542 5.2 5.2 0 0 0 1.202.978"/><path fill="#14CADB" d="M9.757 14.092a5.3 5.3 0 0 1-.696-.883c.108.434.272.85.49 1.24.383.216.793.38 1.22.49a5.3 5.3 0 0 1-.882-.676c-.034-.069-.083-.118-.132-.171"/><path fill="#14CADB" d="M9.886 14.263q.39.38.855.667.568.138 1.152.156c-.742-.032-1.47-.311-2.008-.823"/><g fill="#fff" opacity=".3"><path d="M9.908 9.756a2 2 0 0 0-.152.152l.073-.078z" opacity=".3"/><path d="M8.203 16.492a5 5 0 0 1-.49-.23q.036.072.079.141c.66.342 1.388.532 2.13.553l-.093-.087a4.8 4.8 0 0 1-1.626-.378m-.528-.167a1 1 0 0 1-.084-.142 4.9 4.9 0 0 1-.935-.754 4.7 4.7 0 0 1-.73-.931c0 .093.049.186.078.28.429.638 1.001 1.168 1.67 1.547m6.612-6.833q.083.024.162.059a5 5 0 0 0-.838-1.102h-.142l.088.088q.424.433.73.955m-2.4-2.033.112-.044a4.9 4.9 0 0 0-1.895-.377h-.03l-.092.088h.122c.61 0 1.214.112 1.783.333m.112 9.032.113.05c.51-.23.978-.54 1.386-.922h-.127a4.8 4.8 0 0 1-1.372.872m2.45-2.042a1 1 0 0 1-.143.078q-.322.497-.754.902l-.088.088h.127c.334-.315.623-.674.858-1.068M7.59 7.817q.036-.074.078-.142a4.95 4.95 0 0 0-1.665 1.528q-.043.14-.078.28c.205-.333.45-.64.73-.911q.421-.436.935-.755m7.166 5.652q-.066.226-.161.441a4 4 0 0 1-.231.49 1 1 0 0 0 .142-.078q.268-.516.412-1.078c-.054.05-.103.127-.162.225m-.161-3.364q.095.215.161.44c.059.084.108.162.162.245a5 5 0 0 0-.412-1.078 1 1 0 0 0-.142-.078q.13.228.23.47M8.203 7.509a4.8 4.8 0 0 1 1.651-.377l.093-.089c-.742.02-1.47.208-2.13.549a1 1 0 0 0-.079.142q.226-.127.465-.226m3.796 0c.504.21.967.505 1.372.871h.127a5.1 5.1 0 0 0-1.386-.92z" opacity=".7"/><path d="M14.845 13.146v.03q.076-.126.142-.25.075-.406.088-.818a3.2 3.2 0 0 1-.23 1.038" opacity=".3"/><path d="m12 16.585-.114-.045a4.9 4.9 0 0 1-1.782.338H9.98l.093.088h.03a4.9 4.9 0 0 0 1.895-.382m.489 1.293q-.24.1-.49.17l.157.045a4.94 4.94 0 0 0 1.896-1.117h-.128c-.42.385-.906.69-1.435.902m3.042-4.286a4.9 4.9 0 0 1-.353 1.582l.108-.05a5 5 0 0 0 .333-1.63z" opacity=".7"/><path d="M14.09 9.757a5.4 5.4 0 0 0-.621-.57 3 3 0 0 0-.28-.086h.025c.325.159.622.381.877.656" opacity=".3"/><path d="m11.843 8.61.156-.038a5 5 0 0 0-1.342-.182h-.03l-.097.074h.122c.402-.001.802.048 1.19.146m-3.017.21a4.9 4.9 0 0 1 1.582-.352l.093-.088c-.559.018-1.11.131-1.632.333q-.027.053-.048.108zM15.428 12c0 .054-.03.103-.049.156.099.388.147.787.147 1.186v.127l.083-.093A5 5 0 0 0 15.428 12m-.25-.49q.097.245.172.49c0-.054.029-.103.039-.157a5 5 0 0 0-.49-1.053c0 .093.044.19.059.284s.161.284.22.436m.064 3.732-.113.044a4.9 4.9 0 0 1-1.023 1.504l-.089.083h.152a4.9 4.9 0 0 0 1.073-1.63m-2.753-6.421q.22.09.431.2l.284.06a5 5 0 0 0-1.053-.49L12 8.65q.252.075.49.17M12 18.118l-.156-.045c-.776.19-1.585.19-2.361 0q.123.076.254.143A4.9 4.9 0 0 0 12 18.117M8.713 8.87l.044-.112A4.9 4.9 0 0 0 7.15 9.83a1 1 0 0 0 0 .128l.084-.089c.427-.42.929-.76 1.479-.999m-2.787 3.287L5.882 12a5 5 0 0 0-.098 2.263q.067.13.142.255a5 5 0 0 1 0-2.362m.2-.647a4.7 4.7 0 0 1 .917-1.43 1 1 0 0 1 0-.128 4.9 4.9 0 0 0-1.117 1.891l.045.157q.063-.25.155-.49" opacity=".7"/><path d="M14.82 10.8c0-.095-.049-.19-.078-.285a5.3 5.3 0 0 0-.519-.65c.254.273.457.59.598.935" opacity=".3"/><path d="M5.926 14.518a4 4 0 0 1-.142-.255c0 .098.04.19.064.284s.102.166.156.25q-.043-.14-.078-.28m8.91-3.693q.073.124.141.25c0-.094-.039-.192-.058-.285s-.103-.162-.162-.245q.047.14.079.28M7.507 12a4.8 4.8 0 0 1 .872-1.371V10.5c-.381.409-.692.877-.921 1.386q.02.059.049.113m6.387-2.596q.253.1.49.23a1 1 0 0 0-.079-.142 5 5 0 0 0-1.097-.431l.245.162q.226.076.44.18M16.585 12l-.045.113c.23.567.35 1.171.357 1.782v.123l.089-.093v-.03A4.9 4.9 0 0 0 16.584 12m-.094 0a1 1 0 0 0 .049-.113c-.23-.509-.54-.977-.921-1.386v.128A4.8 4.8 0 0 1 16.491 12m.377 2.145a4.8 4.8 0 0 1-.607 2.117q.073-.036.142-.079c.342-.66.531-1.388.553-2.13zm-9.409-2.032L7.414 12c-.25.6-.378 1.245-.377 1.895v.03l.089.093v-.122c-.001-.61.112-1.215.333-1.783" opacity=".7"/><path d="M13.146 9.154h.029a3 3 0 0 0-.25-.142 6 6 0 0 0-.818-.088c.357.018.708.096 1.039.23" opacity=".3"/><path d="M16.325 16.325q-.07.044-.143.078c-.211.344-.465.66-.754.94a4.7 4.7 0 0 1-.93.73l.279-.078c.638-.429 1.168-1 1.548-1.67m-8.509.083a1 1 0 0 1-.141-.078A4.95 4.95 0 0 0 9.203 18l.279.078a4.7 4.7 0 0 1-.911-.735 4.9 4.9 0 0 1-.755-.935M10.1 9.404q.211-.093.431-.162l.245-.161a5 5 0 0 0-1.078.411 1 1 0 0 0-.078.142q.233-.13.48-.23m4.35.147q.043.069.078.142.496.322.9.754l.09.088a1 1 0 0 1 0-.127 5 5 0 0 0-1.068-.857m-4.957.161a1 1 0 0 1 .058-.161 5 5 0 0 0-1.102.838q.005.063 0 .127l.123-.069q.416-.423.92-.735m-1.984 6.084a4.8 4.8 0 0 1-.377-1.651l-.089-.093c.021.742.209 1.47.55 2.13q.067.044.141.08a5 5 0 0 1-.225-.466" opacity=".7"/><path d="M7.591 16.183q.036.073.078.142.07.044.143.078a1 1 0 0 1-.079-.141 1 1 0 0 1-.142-.079" opacity=".3"/><path d="M14.507 9.712a1 1 0 0 0-.058-.161 1 1 0 0 0-.143-.079q.045.07.079.143.064.045.122.097m-5.025 8.361-.28-.078.25.157.284.064a2 2 0 0 1-.254-.143m3.693-8.91c.093 0 .186.05.28.08l-.246-.182-.284-.059c.084.059.167.108.25.162M8.87 15.287l-.113-.044A4.9 4.9 0 0 0 9.83 16.85h.128l-.088-.083a4.9 4.9 0 0 1-1-1.48m3.286 2.787-.157.044a4.89 4.89 0 0 0 2.263.098c.088-.043.172-.093.255-.142-.775.19-1.585.19-2.36 0m3.086-9.315.044.112c.56.245 1.07.592 1.504 1.024l.083.088a1 1 0 0 0 0-.127 4.9 4.9 0 0 0-1.631-1.097M8.61 12.157c-.04-.054-.04-.103-.04-.157a5 5 0 0 0-.18 1.371l.083.093v-.122q-.006-.601.137-1.186M12 8.572l.156.048a4.8 4.8 0 0 1 1.186-.147h.127l-.093-.083h-.03A5 5 0 0 0 12 8.572M18.116 12l-.044.156c.19.776.19 1.586 0 2.361q.075-.123.142-.254A5 5 0 0 0 18.117 12m-6.608 5.878a4.7 4.7 0 0 1-1.43-.897h-.132c.54.51 1.188.892 1.896 1.117l.156-.044a5 5 0 0 1-.49-.176m6.368-6.368q.1.24.172.49l.044-.157a4.94 4.94 0 0 0-1.117-1.895q.005.064 0 .127c.384.42.69.906.901 1.435m-9.056 0q.089-.22.2-.43c.074-.143.04-.192.06-.285-.205.33-.37.684-.49 1.053 0 .054 0 .103.039.157.068-.172.127-.338.19-.495m0 3.664a4.9 4.9 0 0 1-.353-1.582l-.088-.093c.018.558.13 1.11.333 1.63l.108.05zm6.352-6.353a1 1 0 0 0-.049-.108 5 5 0 0 0-1.63-.333l.092.089a4.9 4.9 0 0 1 1.587.352m-3.664 0c.162-.063.329-.122.49-.171l-.156-.04q-.556.183-1.053.49l.284-.058q.206-.134.435-.221" opacity=".7"/><path d="M13.469 8.464h.127l-.093-.089h-.132zm-3.487 8.434h-.128l.093.088h.128z" opacity=".7"/><path d="m11.843 18.073.156.045.157-.045L12 18.03z" opacity=".3"/><path d="M12.156 8.61 12 8.572l-.156.049.156.039zm2.361 9.464q-.124.075-.255.142l.284-.064.25-.157zm-3.693-8.91q.12-.076.25-.142l-.285.04-.244.161c.093-.01.186-.04.279-.059m-1.42.94a4 4 0 0 1 .23-.49q-.075.036-.142.08a5 5 0 0 0-.431 1.096c.054-.083.102-.161.161-.245q.077-.225.181-.44m0 3.792a4 4 0 0 1-.162-.441c-.059-.083-.108-.162-.162-.245q.144.561.412 1.078.068.043.142.078a4 4 0 0 1-.23-.47" opacity=".7"/><path d="M9.153 10.854v-.03a3 3 0 0 0-.141.25 5 5 0 0 0-.089.818c.018-.356.096-.707.23-1.038" opacity=".3"/><path d="M15.795 16.492a4.8 4.8 0 0 1-1.65.377l-.093.088a4.95 4.95 0 0 0 2.13-.549q.044-.068.078-.142-.225.127-.465.226M12 7.508l-.113-.05c-.509.23-.977.54-1.386.921h.128a4.8 4.8 0 0 1 1.371-.871m4.325.166q.045.069.079.142c.343.211.66.465.94.755q.423.418.73.93c0-.093-.049-.186-.079-.279-.428-.639-1-1.169-1.67-1.548m-4.212 8.865-.113.044c.601.25 1.245.379 1.896.378h.03l.092-.089h-.122a4.9 4.9 0 0 1-1.783-.333m3.683-9.031q.24.1.465.23-.034-.076-.078-.147a4.95 4.95 0 0 0-2.13-.554l.093.088a4.8 4.8 0 0 1 1.65.383M9.55 9.55q.069-.043.142-.079.322-.496.754-.9l.084-.108h-.127c-.334.32-.62.686-.853 1.087M12 7.415l.112.044a4.9 4.9 0 0 1 1.783-.357h.122l-.093-.088h-.03A4.9 4.9 0 0 0 12 7.415m5.343 8.014q-.422.435-.936.754-.034.073-.078.142A4.95 4.95 0 0 0 18 14.797q.043-.14.078-.28a4.7 4.7 0 0 1-.735.912m-5.344 1.062a4.8 4.8 0 0 1-1.371-.872H10.5c.409.381.877.693 1.386.922zm-2.287-1.983a1 1 0 0 1-.162-.059c.227.405.509.776.838 1.102h.142l-.084-.122a5 5 0 0 1-.734-.921" opacity=".7"/><path d="m11.887 16.54.112.045.113-.044-.113-.05z" opacity=".3"/><path d="m12.112 7.46-.113-.044-.113.044.113.049zm1.905 9.438-.093.088h.128l.093-.088z" opacity=".7"/><path d="m10.53 8.464.093-.084h-.127l-.093.089z" opacity=".3"/><path d="M9.712 9.492a1 1 0 0 0-.162.059 1 1 0 0 0-.078.142q.069-.044.142-.078.045-.064.098-.123" opacity=".7"/><path d="M16.182 16.408q.075-.035.142-.078.045-.069.079-.142-.069.044-.142.078-.036.073-.079.142" opacity=".3"/><path d="M9.163 10.825c0-.094.05-.187.079-.28-.059.083-.108.162-.162.245s-.044.191-.059.284q.064-.13.142-.25m8.91 3.693c0 .093-.049.186-.079.279q.083-.126.157-.25c.05-.083.044-.186.064-.284a2 2 0 0 1-.142.255m-6.074-8.636.157.044a5 5 0 0 1 2.361 0 4 4 0 0 0-.255-.142 5 5 0 0 0-.92-.088c-.454 0-.906.064-1.343.186m5.878 6.608a4.7 4.7 0 0 1-.896 1.43q.003.064 0 .127c.51-.54.891-1.187 1.116-1.895L18.03 12q-.062.25-.152.49m-6.368 2.689a5 5 0 0 1-.43-.201l-.29-.04q.497.309 1.054.49l.156-.039c-.166-.088-.333-.147-.49-.21m.647.21-.157.04c.437.121.889.182 1.342.181h.03l.093-.084h-.123c-.399.005-.797-.042-1.185-.137M8.757 8.758l.112-.045c.245-.56.592-1.07 1.024-1.503l.088-.084h-.127a4.9 4.9 0 0 0-1.097 1.632m.063.068-.107.049a5 5 0 0 0-.333 1.631l.088-.093a4.9 4.9 0 0 1 .352-1.587M8.57 12c0-.054.03-.103.05-.157a4.8 4.8 0 0 1-.147-1.185v-.127l-.084.093c-.004.465.057.928.182 1.376m8.22 2.106c-.433.432-.943.78-1.504 1.024l-.044.112a4.9 4.9 0 0 0 1.607-1.072v-.025a1 1 0 0 0 0-.127zM8.82 12.49A7 7 0 0 1 8.65 12c0 .054-.03.103-.039.157.12.369.285.723.49 1.053 0-.093-.044-.191-.06-.284-.014-.094-.16-.284-.22-.436m6.353 2.689a4.9 4.9 0 0 1-1.582.353l-.093.087a5 5 0 0 0 1.631-.333q.028-.051.05-.107zm2.9-3.336.044.157a5 5 0 0 0 .098-2.263q-.067-.13-.142-.255c.19.776.19 1.586 0 2.361" opacity=".7"/><path d="M9.178 13.2v-.025c0 .094.05.187.078.28q.233.338.515.637c-.25-.26-.45-.562-.593-.892" opacity=".3"/><path d="M11.51 6.122q.24-.099.49-.171l-.157-.044c-.71.23-1.358.62-1.896 1.136h.128a4.7 4.7 0 0 1 1.434-.92" opacity=".7"/><path d="m13.469 15.537-.093.083h.127l.093-.088z" opacity=".3"/><path d="m9.982 7.126.093-.088h-.128l-.093.088z" opacity=".7"/><path d="m15.13 15.286.112-.044.044-.112-.108.049q-.02.055-.049.107" opacity=".3"/><path d="m8.87 8.713-.113.044-.044.113.107-.05a1 1 0 0 1 .05-.107m-.407 1.818a1 1 0 0 0 0-.128l-.088.093v.127zm8.434 3.487a1 1 0 0 1 0 .127l.089-.093a1 1 0 0 0 0-.127z" opacity=".7"/><path d="m18.073 12.157.044-.157-.044-.157-.044.157z" opacity=".3"/><path d="M8.61 11.843c0 .054-.034.103-.05.157-.014.054.03.103.05.156 0-.053 0-.102.039-.156.04-.054-.03-.103-.039-.157" opacity=".7"/><path d="M9.163 13.175a3 3 0 0 1-.142-.25c0 .094.04.191.06.285s.102.161.16.245a3 3 0 0 1-.078-.28" opacity=".3"/><path d="M18.073 9.482q.075.124.142.255c0-.098-.04-.19-.064-.284s-.102-.166-.157-.25q.044.14.079.28M7.508 8.204q.1-.251.23-.49-.077.047-.147.103a4.95 4.95 0 0 0-.549 2.13l.089-.092a4.8 4.8 0 0 1 .377-1.651m8.983 0c.222.524.35 1.083.377 1.65l.088.094a4.95 4.95 0 0 0-.549-2.13 1 1 0 0 0-.141-.079q.124.226.225.465m-.309-.612q.075.035.142.078A4.95 4.95 0 0 0 14.796 6l-.279-.078q.501.31.911.734.436.422.754.936m.358 4.296.044.112c.25-.6.379-1.245.377-1.895v-.03l-.064-.093v.123a4.9 4.9 0 0 1-.357 1.783M7.415 12l.044-.112a4.9 4.9 0 0 1-.358-1.783v-.123l-.088.093v.03c.006.652.143 1.297.401 1.895m2.684 2.596a5 5 0 0 1-.466-.23q.036.073.079.142.516.266 1.077.411l-.244-.161q-.228-.068-.446-.162m3.796 0q-.215.095-.44.162l-.246.161a5 5 0 0 0 1.078-.411 1 1 0 0 0 .078-.142 4 4 0 0 1-.47.23" opacity=".7"/><path d="M10.853 14.846h-.03c.084.053.167.097.25.142q.406.073.819.088a3.2 3.2 0 0 1-1.039-.23" opacity=".3"/><path d="M7.508 12a1 1 0 0 0-.049.112c.229.51.54.978.92 1.387v-.128A4.8 4.8 0 0 1 7.509 12m2.042 2.449a1 1 0 0 1-.078-.142 5 5 0 0 1-.901-.754l-.108-.084q.005.064 0 .127c.321.334.687.62 1.087.853M7.675 7.675q.067-.046.141-.083.32-.514.755-.936c.272-.28.578-.525.91-.73l-.278.079a4.95 4.95 0 0 0-1.528 1.67" opacity=".7"/><path d="M12.107 15.066q.413-.015.818-.088c.083-.044.167-.088.25-.142h-.03a3.2 3.2 0 0 1-1.038.23" opacity=".3"/><path d="M15.428 13.552c-.282.283-.598.53-.94.735a1 1 0 0 1-.04.162 5 5 0 0 0 1.102-.838 1 1 0 0 1 0-.127zM16.49 12c-.21.503-.506.967-.872 1.371v.128c.38-.409.692-.877.92-1.387a1 1 0 0 0-.048-.112" opacity=".7"/><path d="M14.287 14.508q.083-.024.162-.059.043-.069.078-.142a1 1 0 0 1-.142.078 1 1 0 0 1-.098.123" opacity=".3"/><path d="M7.816 7.592a1 1 0 0 0-.141.078 1 1 0 0 0-.084.147q.07-.044.147-.078.035-.076.078-.147" opacity=".7"/><path d="M15.536 13.47a1 1 0 0 0 0 .127l.088-.093v-.132z" opacity=".3"/><path d="M7.126 9.982a1 1 0 0 1 0-.127l-.088.093a1 1 0 0 0 0 .127zm.333 1.905L7.414 12l.045.112A1 1 0 0 1 7.507 12a1 1 0 0 1-.048-.113m9.081.225.044-.112-.044-.113a1 1 0 0 1-.05.113q.03.055.05.112M8.463 13.47l-.083-.093v.128l.088.093q0-.064-.005-.128m8.434-3.487.089.093a1 1 0 0 0 0-.127l-.089-.093a1 1 0 0 1 0 .127m-7.405 4.305q.024.083.058.162.069.044.142.078a1 1 0 0 1-.078-.142 1 1 0 0 1-.122-.098m6.916-6.47a1 1 0 0 0-.079-.142 1 1 0 0 0-.147-.083q.045.068.079.142.076.036.147.083m-1.89-1.89.278.078-.25-.157-.284-.063c.088.043.187.093.255.141m-3.694 8.909c-.093 0-.186-.049-.28-.078l.245.161.284.059a2 2 0 0 1-.25-.142m1.019-8.91.156-.044a4.887 4.887 0 0 0-2.263-.098c-.088.044-.171.094-.254.142a5 5 0 0 1 2.36 0M6.122 12.49A5 5 0 0 1 5.95 12l-.044.157a4.94 4.94 0 0 0 1.117 1.895 1 1 0 0 1 0-.127 4.7 4.7 0 0 1-.901-1.435m-.24-.49.044-.157a5 5 0 0 1 0-2.36q-.075.125-.142.254A5 5 0 0 0 5.882 12" opacity=".7"/><path d="M14.821 13.2c-.138.33-.334.631-.578.892a5 5 0 0 0 .514-.623c.03-.093.06-.186.079-.279z" opacity=".3"/><path d="M12.49 15.179a7 7 0 0 1-.49.171l.156.04q.556-.183 1.053-.49l-.284.058a2.3 2.3 0 0 1-.436.22m2.688-2.69q-.09.22-.2.432c-.074.142-.04.19-.06.284a5 5 0 0 0 .49-1.053c0-.054-.024-.103-.039-.157-.069.171-.127.338-.19.494m-6.42 2.753-.045-.112a4.9 4.9 0 0 1-1.504-1.024l-.083-.088a1 1 0 0 0 0 .127v.024a4.9 4.9 0 0 0 1.631 1.073m.068-.063q.02.056.049.107c.52.203 1.072.315 1.63.333l-.093-.088a4.9 4.9 0 0 1-1.586-.352m6.352-6.353c.205.504.324 1.039.353 1.582l.088.093a5 5 0 0 0-.333-1.63l-.108-.05zm-.049-.113.113.044a4.9 4.9 0 0 0-1.073-1.606h-.152l.089.083a4.9 4.9 0 0 1 1.023 1.479M12 15.429l-.156-.05a4.8 4.8 0 0 1-1.186.147h-.127l.093.084h.03c.454.001.908-.06 1.346-.181m3.39-3.586c0 .054.034.103.049.157.123-.447.184-.909.181-1.371l-.083-.099v.123a4.8 4.8 0 0 1-.147 1.19m-2.9-5.72c.527.21 1.011.513 1.43.896h.128a4.94 4.94 0 0 0-1.89-1.093l-.158.044a5 5 0 0 1 .49.152m-6.563 3.36c0-.094.049-.187.078-.28a6 6 0 0 0-.156.25c-.05.083-.045.186-.064.284.044-.088.093-.186.142-.255" opacity=".7"/><path d="M14.836 13.175c0 .094-.05.187-.079.28.059-.084.108-.162.162-.245.054-.084.044-.191.058-.284-.039.083-.093.166-.142.25" opacity=".3"/><path d="M15.389 12.157c0-.054.034-.103.049-.157s-.03-.103-.05-.157c0 .054-.024.103-.038.157-.015.054.029.103.039.156m-9.463-.314L5.882 12l.044.156L5.97 12zm1.2 2.175-.088-.093a1 1 0 0 0 0 .127l.088.093a1 1 0 0 1 0-.127m8.41-3.488.083.094v-.128l-.088-.093q-.001.064.005.127m-.25-1.66-.044-.112-.113-.045q.028.054.05.108z" opacity=".7"/><path d="m8.713 15.13.044.112.112.044a1 1 0 0 1-.049-.107z" opacity=".3"/><path d="M14.017 7.126h.128l-.093-.088h-.128z" opacity=".7"/><path d="M10.53 15.536h-.127l.093.088h.127zm1.313-.147.156.04.157-.05L12 15.35z" opacity=".3"/><path d="M12.156 5.926 12 5.882l-.156.044.156.045z" opacity=".7"/><path d="M13.175 14.836c-.083.054-.166.098-.25.142l.284-.059.245-.161a3 3 0 0 1-.28.078" opacity=".3"/><path d="M9.482 5.927q.124-.076.254-.142l-.284.063-.25.157z" opacity=".7"/></g><path fill="#F0F3FA" d="M12 15.107a3.107 3.107 0 1 0 0-6.214 3.107 3.107 0 0 0 0 6.214"/></g><defs><clipPath id="a"><path fill="#fff" d="M0 0h24v24H0z"/></clipPath></defs></svg>