<svg xmlns="http://www.w3.org/2000/svg" width="24" height="24" fill="none" viewBox="0 0 24 24"><g clip-path="url(#a)"><path fill="#4100A8" d="M0 0h24v24H0z"/><path fill="#fff" d="M8.126 8.267a4.3 4.3 0 0 1 1.517-.977 3.75 3.75 0 0 1 3.244.343c.343.223.634.493.9.801l-.488.39a4 4 0 0 0-.579-.621 2.9 2.9 0 0 0-.857-.502 3.36 3.36 0 0 0-1.993-.128 3.6 3.6 0 0 0-1.59.836c-.013.012-.017.021-.026.008l-.043-.051z"/><path fill="#fff" d="m19.067 6.343-1.294.145c-.137.018-.287.026-.386.133-.146.159-.008.36.107.48l.343.369.125.128c.008.01-.095.108-.108.12l-.608.665-.03.034a8.4 8.4 0 0 0-.96-1.131c-.009-.009-.06-.073-.069-.06l-.085.077-.082.073c-.008.012.06.081.069.09l.3.36q.311.387.565.814c.022.034.026.034-.004.068l-.377.412a5.93 5.93 0 0 0-2.597-2.567 5.6 5.6 0 0 0-4.234-.257 5.95 5.95 0 0 0-3.266 2.751 6.2 6.2 0 0 0-.48 4.791c.008.03.017.043 0 .065l-.052.051-.094.099-.197.21-.647.685-.694.733c0 .005-.03.026-.026.03l.171.163c.017.022.03.056.052.034l.073-.077.887-.904.664-.686a6.06 6.06 0 0 0 1.701 2.405 5.67 5.67 0 0 0 7.749-.36 5.95 5.95 0 0 0 1.667-3.378 6.3 6.3 0 0 0-.313-2.957c-.013-.038-.043-.073-.013-.098l.095-.095.343-.342a6.36 6.36 0 0 1 .372 4.388 7 7 0 0 1-.48 1.286q-.277.546-.613 1.054l.763.485c.322-.57.6-1.158.806-1.783a7.05 7.05 0 0 0-.39-5.435l-.12-.223-.03-.05c-.013-.027 0-.03.026-.048l.107-.112.373-.368.381-.377.557.595c.129.13.356.266.467.048.052-.108.052-.232.056-.352l.052-1.041.021-.433c.009-.137.009-.27-.056-.399a.58.58 0 0 0-.587-.3zM6.472 12.9a5.31 5.31 0 0 1 .66-4.029 4.85 4.85 0 0 1 3.282-2.228c1.406-.232 2.867.214 3.939 1.148a5 5 0 0 1 1.414 2.049c.013.034.052.094.022.124l-.103.116-.729.788-1.53 1.646-.784.845-.279.3c-.064.068-.201.214-.312.162-.138-.06-.159-.317-.185-.45l-.201-1.093c-.137-.737-.257-1.482-.412-2.215-.064-.317-.244-.656-.6-.69-.24-.026-.467.094-.634.257-.171.171-.33.347-.493.523l-.793.835-2.155 2.298-.103-.377c.03.128-.232-.965 0 0zm5.425.626c0 .008 0 .004 0 0m4.063-.785a5.19 5.19 0 0 1-2.254 3.317 4.684 4.684 0 0 1-5.726-.552l-.043-.043-.013-.009a5.1 5.1 0 0 1-1.174-1.701c-.013-.034-.056-.086-.026-.116l.103-.107.703-.716 1.517-1.556.81-.822c.163-.163.317-.339.485-.493.072-.065.192-.155.295-.116.137.056.163.266.184.39l.198 1.123.368 2.16c.026.163.052.334.137.476.146.257.386.42.695.368.257-.043.45-.223.63-.403l.814-.814 2.349-2.37c.102.66.09 1.333-.048 1.984.146-.694-.072.352 0 0z"/></g><defs><clipPath id="a"><path fill="#fff" d="M0 0h24v24H0z"/></clipPath></defs></svg>