<svg width="24" height="24" viewBox="0 0 24 24" fill="none" xmlns="http://www.w3.org/2000/svg">
<g clip-path="url(#clip0_31_15277)">
<path d="M0 0H24V24H0V0Z" fill="#F0F3FA"/>
<path d="M12.0001 19.2858C16.0239 19.2858 19.2858 16.0239 19.2858 12.0001C19.2858 7.97628 16.0239 4.71436 12.0001 4.71436C7.97628 4.71436 4.71436 7.97628 4.71436 12.0001C4.71436 16.0239 7.97628 19.2858 12.0001 19.2858Z" fill="#0074F0"/>
<path d="M16.5428 16.5429C17.1366 15.9427 17.6063 15.2314 17.9251 14.4496C18.244 13.6678 18.4058 12.8309 18.4012 11.9866C18.3966 11.1424 18.2258 10.3072 17.8985 9.52898C17.5712 8.75072 17.0937 8.04454 16.4935 7.45078C15.8933 6.85702 15.182 6.3873 14.4002 6.06843C13.6184 5.74957 12.7815 5.5878 11.9372 5.59238C11.0929 5.59696 10.2578 5.76778 9.47957 6.0951C8.7013 6.42242 7.99513 6.89983 7.40137 7.50007L16.5471 16.5429H16.5428Z" fill="#3390F3"/>
<path d="M12 13.2859V11.1431L9.85718 12.0002L12 13.2859Z" fill="#CEE5FD"/>
<path d="M12 13.2859V11.1431L14.1429 12.0002L12 13.2859Z" fill="#E5F1FE"/>
<path d="M7.7144 12.0001C7.71368 10.8897 8.14397 9.82232 8.91463 9.02288C9.68528 8.22345 10.7361 7.75433 11.8458 7.71436L10.933 9.19721C10.3647 9.41349 9.87559 9.79734 9.53041 10.2979C9.18524 10.7984 9.0003 11.392 9.00011 12.0001C8.99428 12.4233 9.07937 12.8429 9.24964 13.2304C9.41991 13.6179 9.67139 13.9644 9.98708 14.2463C10.3028 14.5283 10.6753 14.7392 11.0795 14.8648C11.4837 14.9904 11.9102 15.0278 12.3301 14.9744L11.4001 16.2858C10.3696 16.142 9.42684 15.6274 8.74839 14.8386C8.06994 14.0497 7.70233 13.0405 7.7144 12.0001Z" fill="white"/>
<path d="M12.0813 16.2858C13.2038 16.2645 14.2731 15.8035 15.0593 15.0021C15.8455 14.2007 16.2858 13.1227 16.2856 12.0001C16.2998 10.9447 15.9212 9.92169 15.2235 9.12971C14.5258 8.33774 13.5587 7.83331 12.5099 7.71436L11.717 9.0215C11.8285 9.00864 11.8842 9.00007 11.9999 9.00007C12.6895 9.00006 13.3581 9.23765 13.8931 9.67284C14.4281 10.108 14.7968 10.7142 14.9371 11.3894C15.0775 12.0646 14.981 12.7676 14.6638 13.3799C14.3466 13.9923 13.8281 14.4766 13.1956 14.7515L12.0813 16.2858Z" fill="white"/>
<path d="M12 11.1427V8.57129L9.85718 11.9999L12 11.1427Z" fill="#E5F1FE"/>
<path d="M12 11.1427V8.57129L14.1429 11.9999L12 11.1427Z" fill="white"/>
<path d="M12 15.4287V13.7444L14.1429 12.4287L12 15.4287Z" fill="#E5F1FE"/>
<path d="M12 15.4287V13.7444L9.85718 12.4287L12 15.4287Z" fill="white"/>
</g>
<defs>
<clipPath id="clip0_31_15277">
<rect width="24" height="24" fill="white"/>
</clipPath>
</defs>
</svg>
