<svg xmlns="http://www.w3.org/2000/svg" width="24" height="24" fill="none" viewBox="0 0 24 24"><g clip-path="url(#a)"><path fill="url(#b)" d="M0 0h24v24H0z"/><path fill="url(#c)" d="M12.454 6.446a5.6 5.6 0 0 1 4.076 2.258l1.041-.758a6.88 6.88 0 0 0-5.117-2.786zm-4.693.171a6.857 6.857 0 0 0 1.655 11.73l.441-1.208a5.57 5.57 0 0 1-1.286-9.527l-.814-.995zm5.25 10.869.215 1.268A6.86 6.86 0 0 0 17.46 16.2l-.947-.878a5.6 5.6 0 0 1-3.502 2.164"/><path fill="url(#d)" d="M10.303 7.714c.712 0 1.29-.575 1.29-1.285s-.578-1.286-1.29-1.286-1.29.576-1.29 1.286.577 1.285 1.29 1.285"/><path fill="url(#e)" d="M9.013 12.857A.86.86 0 0 0 9.874 12a.86.86 0 0 0-.861-.857.86.86 0 0 0-.862.857.86.86 0 0 0 .862.857"/><path fill="url(#f)" d="M11.362 18.857c.594 0 1.075-.48 1.075-1.071 0-.592-.481-1.072-1.075-1.072-.595 0-1.076.48-1.076 1.072 0 .591.481 1.071 1.076 1.071"/><path fill="url(#g)" d="M13.847 13.817a2.576 2.576 0 0 1-4.084-.574l-1.286.3a3.87 3.87 0 0 0 6.283 1.183zm.129-3.497a2.576 2.576 0 0 0-4.187.394H8.374a3.87 3.87 0 0 1 6.575-1.242z"/></g><defs><linearGradient id="b" x1="4.466" x2="29.207" y1="4.161" y2="32.58" gradientUnits="userSpaceOnUse"><stop stop-color="#1A1E21"/><stop offset="1" stop-color="#06060A"/></linearGradient><linearGradient id="c" x1="15.249" x2="7.757" y1="7.072" y2="18.022" gradientUnits="userSpaceOnUse"><stop stop-color="#3AD02C"/><stop offset=".28" stop-color="#3DD22D"/><stop offset=".59" stop-color="#79D41C"/><stop offset="1" stop-color="#C9D505"/></linearGradient><linearGradient id="d" x1="11.164" x2="9.879" y1="5.786" y2="7.29" gradientUnits="userSpaceOnUse"><stop stop-color="#233D1A"/><stop offset="1" stop-color="#2BD009"/></linearGradient><linearGradient id="e" x1="9.66" x2="8.37" y1="11.786" y2="12.647" gradientUnits="userSpaceOnUse"><stop stop-color="#A7A710"/><stop offset="1" stop-color="#162C00"/></linearGradient><linearGradient id="f" x1="12.437" x2="10.714" y1="18" y2="18" gradientUnits="userSpaceOnUse"><stop stop-color="#489722"/><stop offset="1" stop-color="#516D3A"/></linearGradient><linearGradient id="g" x1="10.303" x2="13.513" y1="9.214" y2="14.794" gradientUnits="userSpaceOnUse"><stop stop-color="#47D12D"/><stop offset=".45" stop-color="#C8D65E" stop-opacity=".59"/><stop offset=".74" stop-color="#51CE32"/><stop offset="1" stop-color="#BFD30F"/></linearGradient><clipPath id="a"><path fill="#fff" d="M0 0h24v24H0z"/></clipPath></defs></svg>