<svg xmlns="http://www.w3.org/2000/svg" width="24" height="24" fill="none" viewBox="0 0 24 24"><g clip-path="url(#a)"><path fill="#1D3F7B" d="M0 0h24v24H0z"/><path fill="#fff" d="M18.429 7.884V5.571h-2.434c.879.557 1.853 1.463 2.434 2.313M8.07 5.571h-2.5v2.372c.517-.983 1.485-1.881 2.5-2.372m-2.5 10.486v2.371h2.466c-.882-.566-1.889-1.509-2.466-2.371m10.464 2.371h2.394v-2.313c-.572.838-1.533 1.76-2.394 2.313"/><path fill="#fff" fill-rule="evenodd" d="M11.818 18.857v-.006c3.888 0 7.04-3.068 7.04-6.854 0-3.78-3.152-6.854-7.04-6.854C8.2 5.332 5.143 8.327 5.143 12s3.056 6.669 6.675 6.857m.175-12c-2.801.004-5.14 2.349-5.136 5.15s2.349 5.14 5.15 5.136 5.14-2.349 5.136-5.15c-.004-2.8-2.349-5.14-5.15-5.136" clip-rule="evenodd"/></g><defs><clipPath id="a"><path fill="#fff" d="M0 0h24v24H0z"/></clipPath></defs></svg>