<svg xmlns="http://www.w3.org/2000/svg" width="24" height="24" fill="none" viewBox="0 0 24 24"><g clip-path="url(#a)"><path fill="#F0F3FA" d="M0 0h24v24H0z"/><path fill="#6E6E6E" d="M12 18.857a6.857 6.857 0 1 0 0-13.714 6.857 6.857 0 0 0 0 13.714"/><path fill="#EC9835" fill-rule="evenodd" d="m8.053 6.395-.15.107c.317.411.664.921.574 1.045l-.043.06c-.15.223-.386.57-1.337.506a3.5 3.5 0 0 0-.763.026 6.8 6.8 0 0 0-.883 1.826c.377-.193.857-.369 1.325-.369.985 0 1.41.428 1.255.668-.154.24-.797.493-1.255.506-.395.017-1.2.549-1.629 1.393 0 .266.026.527.06.789.099-.51.343-1.166.874-1.462.887-.501 1.993-.373 2.396 0 .403.369.874.892.806 1.5a1.52 1.52 0 0 1-.695 1.166c-.321.201-.685 1.226-.604 1.971.043.442.094 1.063.129 1.522q.39.27.814.484a4.65 4.65 0 0 1-.45-2.156c.111-1.251.789-2.065 1.046-1.941.064.03.167.129.3.257.394.394 1.071 1.067 1.988 1.102q.34.01.617.008c.802 0 1.213 0 1.535.767q.438 1.037.891 2.066c.172-.077.347-.172.514-.262-.18-.587-.471-1.5-.617-1.804a4 4 0 0 0-.137-.257c-.133-.248-.206-.373-.056-.668a1.38 1.38 0 0 1 1.256-.733c.622 0 1.029.012 1.53.313.236.137.424.41.557.668a6.8 6.8 0 0 0 .934-2.974 1.1 1.1 0 0 0-.2-.236c-.3-.253-.164-.536.21-.728l-.01-.116a3 3 0 0 1-.587-.33 5 5 0 0 0-.377-.232c-.411-.24-.814-.471-.72-.822.112-.438.236-.755 1.093-.888a7 7 0 0 0-.197-.407c-.154.056-.386.086-.703.017-.536-.12-1.166-.784-1.414-1.101q-.508-.397-1.054-.741c-.258-.146-.51-.87-.558-1.393l-.24-.077c.039.6.013 1.401-.3 1.47a2.06 2.06 0 0 1-1.56-.176c-.351-.193-.857-.317-1.264-.416a2.6 2.6 0 0 1-.639-.21c-.175-.128-.44-.317-.355-.681a6 6 0 0 0-.399.137c-.008.227-.115.484-.445.694-.729.454-.862.317-1.059.112zm3.87 1.032c-.099.288-.66.36-1.252.159-.6-.201-.998-.596-.9-.883.095-.287.656-.36 1.247-.158.6.2.999.595.9.882zM7.028 8.79c0 .133-.162.24-.364.24S6.3 8.923 6.3 8.79c0-.128.163-.24.364-.24.202 0 .364.107.364.24m1.603.6c.172.172.429.197.579.056.141-.146.12-.407-.056-.579-.171-.175-.428-.201-.578-.055-.142.145-.12.403.055.578m8.825 2.006a.287.287 0 0 1-.403-.004.287.287 0 0 1-.009-.407.287.287 0 0 1 .407.004c.112.115.116.3 0 .407zm-8.229-.892.171-.244a.6.6 0 0 1 .656-.236.59.59 0 0 1 .437.536l.022.352a1.2 1.2 0 0 1-.502 1.02.5.5 0 0 1-.343.085h-.012a.5.5 0 0 1-.335-.227l-.124-.193a.99.99 0 0 1 .03-1.092m4.084-3.107c-.411.065-.87.703-1.05 1.016 0 .42.18.784.849.784.664 0 1.011-.257 1.058-.6.043-.334-.342-1.281-.857-1.2m1.149.6c-.005.245.038.806.253 1.038.265.295 1.127.428 1.388.145.257-.287.184-.608-.214-.973l-.167-.154c-.347-.326-.699-.656-.93-.488a.9.9 0 0 0-.33.428zm-3.116 2.473c-.098-.266.189-.531.347-.634.082.06.287.24.472.484.231.3-.142.497-.309.515-.171.017-.386-.035-.51-.365m4.779-.634c-.172.103-.485.368-.378.634.138.33.37.386.553.364.18-.017.588-.214.339-.514a3 3 0 0 0-.514-.484m-1.642-.193c.279.043.364.429.373.617-.09.043-.351.129-.651.172-.382.043-.365-.377-.292-.532.069-.154.223-.313.57-.257m.159 2.366c.111-.06.403-.159.668-.043.417.24.783.561 1.076.943.107.197-.24 1.054-.836 1.114-.6.064-.865-.197-1.071-.6-.202-.399-.506-1.011.163-1.414m3.223.964c-.193-.159-.502-.009-.63.086-.086.098-.232.343-.163.574.09.283.343.587.793.887.351.236.398-.103.445-.424.013-.09.026-.184.043-.257.09-.343-.248-.669-.488-.866m-5.786-1.299q.445.139.844.378c.279.197 1.042.96 1.042 1.847 0 .891-.399 1.05-1.235 1.05-.84 0-2.087-1.003-2.25-1.359a1 1 0 0 1 .292-1.191c.081-.069.154-.133.223-.202.3-.278.557-.522 1.084-.522" clip-rule="evenodd"/><path fill="#FFED68" d="M14.113 7.483c-.107-.008-.304-.064-.201-.231l.06-.099c.11-.18.214-.356.342-.317.155.047.412.446-.201.647m-1.5-.308a1.7 1.7 0 0 0-.407-.095c-.086.112-.022.313.103.51.111.172.257.026.377-.09l.051-.051c.129-.116.022-.214-.128-.274zm-3.056.484a1.5 1.5 0 0 0-.531-.069c-.155.399.133.665.343.857.06.056.111.099.145.142.172.206.36.463.36.848 0 .215.099.24.236.279a.7.7 0 0 1 .386.236c.295.351.471.48.634.137.12-.244.377-.399.579-.519.077-.047.15-.09.201-.128.18-.15-.008-.356-.18-.515-.171-.162-.06-.3.077-.471s-.403-.437-.973-.369c-.398.043-.707-.128-.96-.274a1.7 1.7 0 0 0-.317-.154m-1.616.626a1.23 1.23 0 0 1-.745.175c-.326.24.565.677.934.695.201.008.231-.146.261-.3.026-.125.052-.25.168-.292.257-.094.33-.493.158-.613-.133-.094-.313.026-.566.193l-.214.142zm.343 1.08c.056.128.223.394.485.45.33.072.36.18.205.308-.154.129-.771.022-.801-.231v-.043c-.03-.249-.064-.592.116-.484zm.099 1.118c-.154 0-.236.172-.257.257 0 .065.021.214.115.33.112.146.472.15.536.073.034-.039.013-.064-.021-.103a.36.36 0 0 1-.09-.167c-.043-.171-.09-.386-.283-.386zM9.86 12.24c-.085-.017-.287-.026-.364.073-.098.129.086 1.131.287 1.2.15.052.227-.291.279-.514l.043-.172c.021-.043.06-.077.098-.115.069-.065.137-.133.103-.223-.06-.137-.214-.249-.446-.249m1.273-1.526c-.128-.06-.308.275-.27.318-.021.09-.085.304-.18.437-.115.167.112.356.309.274.128-.047.42-.141.668-.214l.326-.107c.214-.069-.094-.39-.287-.39-.137 0-.291-.12-.42-.215-.056-.043-.107-.085-.146-.103M12.4 9.57c.094-.055.338-.171.523-.171.23 0 .685.368.672.527-.012.154-.004.523.163.643.172.115.857.283 1.042.141.068-.056.128-.146.188-.227.095-.133.18-.257.279-.223.064.022.085.12.107.24.03.176.073.403.3.497l.437.193c.274.129.553.257.707.292.099.025.257.03.429.034.257.008.523.013.621.094.107.086.193.257.274.425.043.085.086.17.13.24.132.214.213.282.393.428.185.154.137.484 0 .596-.133.111-.257 0-.523-.249l-.004-.008c-.27-.249-.527-.485-.973-.412l-.025.004c-.429.073-.442.073-.639-.102l-.073-.069c-.265-.253-.913-.866-1.466-.78-.415.064-.668.407-.844.634-.086.112-.146.197-.197.215l-.077.03c-.116.043-.189.077-.3-.206l-.004-.017c-.129-.322-.129-.335-.472-.532h-.004c-.352-.201-.664-.381-.617-.634.021-.103.085-.137.146-.171.098-.06.192-.116.115-.399a1 1 0 0 0-.21-.394c-.128-.172-.231-.309-.098-.643zm2.978-.03c-.167-.008-.506-.128-.643-.18l-.064-.021c-.248-.086.137.36.313.523.171.158.489.098.66 0 .171-.099-.06-.313-.266-.322m1.419.463c-.073-.021-.244-.128-.352-.39-.128-.334-.085-.737.086-.746.18-.004.446.142.57.309.124.171-.154 1.149-.3.827zm-2.666 4.432c.047-.25.03-.673.026-.708 0-.06.03-.18.158-.171.099.009.176.176.266.356.052.111.103.222.172.313.15.214-.056.308-.258.398l-.051.026c-.214.098-.36.038-.313-.214m1.963-.472c.043.03.18.026.377-.197.253-.279.313-.227.373-.137l.043.068c.098.142.283.403.317.51.038.129-.3.129-.651.099l-.133-.009c-.3-.021-.536-.034-.326-.33z"/><path fill="url(#b)" d="M12.566 5.383c1.354-.343 3.154.677 4.238 1.65.943.985 2.417 3.193 1.355 3.9-1.162.771-5.743-1.963-6.078-3.562-.274-1.277.21-1.855.485-1.988"/></g><defs><linearGradient id="b" x1="17.601" x2="15.617" y1="8.181" y2="9.72" gradientUnits="userSpaceOnUse"><stop stop-color="#fff" stop-opacity=".7"/><stop offset="1" stop-color="#A3A397" stop-opacity="0"/></linearGradient><clipPath id="a"><path fill="#fff" d="M0 0h24v24H0z"/></clipPath></defs></svg>