<svg xmlns="http://www.w3.org/2000/svg" width="24" height="24" fill="none" viewBox="0 0 24 24"><g clip-path="url(#a)"><path fill="#1E1F3E" d="M0 0h24v24H0z"/><path fill="url(#b)" d="M18.836 13.491c.073-.321-.077-.643-.352-.827l-.351-.236-.866.429c.652 0 1.2.296 1.157.501a6.484 6.484 0 0 1-6.351 5.07A6.46 6.46 0 0 1 5.57 12c0-3.549 2.91-6.429 6.498-6.429 3.115 0 5.721 2.173 6.351 5.07.043.214-.506.502-1.157.502l.865.428.343-.214a.79.79 0 0 0 .365-.836 6.92 6.92 0 0 0-6.767-5.378A6.89 6.89 0 0 0 5.143 12c0 3.788 3.103 6.857 6.93 6.857 3.308 0 6.077-2.297 6.763-5.366m-5.769-.154a2.7 2.7 0 0 0 1.556-2.482c0-1.5-1.17-2.712-2.632-2.712-1.461 0-2.622 1.243-2.622 2.742a2.66 2.66 0 0 0 1.56 2.456l-.999.866c-.206-.227-.686-.686-.93-.742.116.138.253.386.377.618.133.244.257.471.343.544.154.128.913.03 1.346-.472v.13l-.656 1.05a2.24 2.24 0 0 0-.981-.365l.06.047c.115.094.227.18.368.351.172.215.339.416.437.472.189.098 1.016-.193 1.299-.87L12 14.57l.394.364c.266.703 1.119 1.003 1.312.9.098-.05.261-.252.437-.467.12-.145.218-.214.317-.287l.111-.081c-.349.03-.685.146-.981.334l-.669-1.063.035-.098c.428.484 1.17.578 1.32.454.09-.073.214-.3.342-.544.13-.232.266-.48.382-.617-.249.055-.724.514-.93.741zM12.034 10.8h-.068l-.116.15c-.223.291-.476.621-.801.621-.42 0-.763-.386-.763-.857 0-.446.3-.81.685-.853v-.004h2.135v.017c.342.082.608.429.608.84 0 .471-.343.857-.763.857-.325 0-.578-.33-.801-.621z"/></g><defs><linearGradient id="b" x1="12" x2="12" y1="5.143" y2="18.857" gradientUnits="userSpaceOnUse"><stop stop-color="#A520B6"/><stop offset="1" stop-color="#15E6FC"/></linearGradient><clipPath id="a"><path fill="#fff" d="M0 0h24v24H0z"/></clipPath></defs></svg>