<svg xmlns="http://www.w3.org/2000/svg" width="24" height="24" fill="none" viewBox="0 0 24 24"><g clip-path="url(#a)"><path fill="url(#b)" d="M0 0h24v24H0z"/><path fill="#fff" d="M4.714 10.286h2.143a.857.857 0 0 1 .857.857v.428a.214.214 0 1 0 .429 0v-.428a1.286 1.286 0 0 0-1.286-1.286H4.714a1.286 1.286 0 0 0-1.286 1.286v.428a.214.214 0 1 0 .429 0v-.428a.86.86 0 0 1 .857-.857m-.857 2.142a.214.214 0 1 0-.429 0v.429a1.286 1.286 0 0 0 1.286 1.286h2.143a1.286 1.286 0 0 0 1.286-1.286v-.429a.214.214 0 1 0-.429 0v.429a.857.857 0 0 1-.857.857H4.714a.857.857 0 0 1-.857-.857zM9.484 9.93a.214.214 0 0 1 .3-.017l2.143 1.928a.215.215 0 0 1 0 .317l-2.143 1.929a.215.215 0 0 1-.283-.317L11.464 12l-1.963-1.77a.214.214 0 0 1-.017-.3"/><path fill="#27E9AF" d="M14.52 9.934a.24.24 0 0 1-.017.322L12.703 12l-.274-.343 1.8-1.744c.085-.086.214-.073.29.021m0 4.132a.244.244 0 0 0-.017-.322L12.703 12l-.274.343 1.8 1.744c.085.086.214.073.29-.021"/><path fill="#fff" d="M15.857 10.071c0-.12.095-.214.215-.214h3.214c.887 0 1.285.399 1.285 1.286a.99.99 0 0 1-.45.848c.258.172.45.459.45.866 0 .754-.531 1.286-1.285 1.286H16.07a.214.214 0 1 1 0-.429h3.215c.518 0 .857-.338.857-.857 0-.386-.3-.609-.656-.643h-3.415a.214.214 0 1 1 0-.428h3.205c.064-.005.129-.01.202 0 .343-.043.664-.27.664-.643 0-.66-.197-.857-.857-.857H16.07a.214.214 0 0 1-.214-.215"/></g><defs><linearGradient id="b" x1="4.466" x2="29.207" y1="4.161" y2="32.58" gradientUnits="userSpaceOnUse"><stop stop-color="#1A1E21"/><stop offset="1" stop-color="#06060A"/></linearGradient><clipPath id="a"><path fill="#fff" d="M0 0h24v24H0z"/></clipPath></defs></svg>