<svg width="24" height="24" viewBox="0 0 24 24" fill="none" xmlns="http://www.w3.org/2000/svg">
<g clip-path="url(#clip0_31_15682)">
<path d="M0 0H24V24H0V0Z" fill="#F0F3FA"/>
<path d="M7.9286 18.0002C7.53476 17.9934 7.15799 17.8382 6.87357 17.5657C6.58914 17.2932 6.418 16.9234 6.39431 16.5302C6.39037 16.523 6.38441 16.517 6.37717 16.5131C6.03431 16.3931 5.76431 16.1702 5.57574 15.8574C5.44769 15.6446 5.37028 15.4052 5.34947 15.1578C5.32866 14.9103 5.36502 14.6614 5.45574 14.4302C5.45715 14.4242 5.4571 14.418 5.45561 14.412C5.45412 14.4061 5.45123 14.4006 5.44717 14.3959C5.27906 14.1611 5.17587 13.8861 5.14803 13.5987C5.12019 13.3112 5.16867 13.0215 5.2886 12.7588C5.3186 12.6817 5.3786 12.6088 5.41717 12.5317C5.42358 12.5199 5.42512 12.506 5.42146 12.4931C5.35072 12.2679 5.33017 12.03 5.36127 11.796C5.39237 11.562 5.47435 11.3377 5.60146 11.1388C5.60446 11.1336 5.60605 11.1277 5.60605 11.1217C5.60605 11.1156 5.60446 11.1097 5.60146 11.1045C5.41886 10.7529 5.37256 10.3463 5.47144 9.96268C5.57031 9.57906 5.80739 9.24546 6.13717 9.02594C6.09177 8.75485 6.12685 8.47639 6.23806 8.22502C6.34927 7.97365 6.53174 7.7604 6.76288 7.61166C6.77074 7.60616 6.77744 7.59917 6.78258 7.59108C6.78773 7.58299 6.79123 7.57396 6.79288 7.56451C6.82066 7.31865 6.91246 7.08437 7.05911 6.88508C7.20576 6.68579 7.40212 6.52846 7.6286 6.4288L7.65431 6.41166C7.66111 6.40293 7.66554 6.3926 7.66717 6.38166C7.7234 6.05597 7.8943 5.76114 8.14897 5.55049C8.40364 5.33983 8.72528 5.22724 9.05574 5.23309C9.06697 5.23317 9.0781 5.23093 9.08843 5.2265C9.09876 5.22208 9.10806 5.21556 9.11574 5.20737C9.33274 4.94087 9.64457 4.76882 9.98574 4.72737C10.6886 4.64166 11.2243 4.98451 11.5157 5.60166C11.5543 5.68309 11.5715 5.76023 11.5715 5.84166V18.1802C11.5715 18.2274 11.5629 18.2745 11.55 18.3174C11.4812 18.5277 11.3642 18.7191 11.2084 18.8762C11.0526 19.0334 10.8623 19.1521 10.6526 19.2228C10.4429 19.2936 10.2195 19.3144 10.0004 19.2837C9.7812 19.253 9.57222 19.1716 9.39003 19.0459C9.27431 18.9602 9.15003 18.9859 9.02145 18.9474C8.66226 18.8453 8.34905 18.6229 8.13431 18.3174C8.07003 18.2317 8.02288 18.1245 7.97574 18.0259C7.97193 18.0176 7.96595 18.0104 7.95841 18.0051C7.95087 17.9998 7.94206 17.9967 7.93288 17.9959L7.9286 18.0002Z" fill="#061D41"/>
<path d="M9.27009 16.6715C9.29581 16.2515 8.79866 16.2558 8.76009 16.6286C8.75233 16.8123 8.69153 16.9897 8.58505 17.1396C8.47857 17.2894 8.33097 17.4052 8.16009 17.4729C8.03152 17.5243 7.91152 17.5372 7.77866 17.5158C7.59836 17.4951 7.42717 17.4254 7.28363 17.3144C7.14009 17.2033 7.02968 17.0551 6.96438 16.8858C6.91173 16.7301 6.8956 16.5644 6.91723 16.4015C6.92581 16.2601 6.83152 16.1443 6.68581 16.1015C6.46295 16.0329 6.25723 15.9901 6.08581 15.8101C5.74295 15.4372 5.69581 15.0129 5.95723 14.5415C5.98295 14.4943 5.98723 14.4301 5.97009 14.3529C5.95535 14.2962 5.92576 14.2444 5.88438 14.2029C5.80959 14.1256 5.7448 14.0392 5.69152 13.9458C5.6146 13.8104 5.57275 13.6579 5.56975 13.5022C5.56676 13.3465 5.60272 13.1926 5.67438 13.0543C5.73009 12.9386 5.81581 12.8401 5.88866 12.7372C5.99581 12.5786 5.85866 12.3943 5.82009 12.2358C5.76365 12.0128 5.78952 11.7769 5.89295 11.5715C5.97009 11.4215 6.08152 11.3143 6.15438 11.1558C6.16273 11.1382 6.16671 11.1189 6.16596 11.0995C6.16522 11.0801 6.15977 11.0612 6.15009 11.0443C5.97866 10.7701 5.80295 10.4743 5.88866 10.1315C5.97866 9.77148 6.18866 9.5272 6.52723 9.39434C6.64723 9.3472 6.82723 9.30005 6.95581 9.33005C7.38009 9.42434 7.59866 9.68148 7.74009 10.0586C7.78295 10.1743 7.91152 10.2815 8.04009 10.2386C8.16866 10.1958 8.29723 10.0801 8.25438 9.93862C8.18129 9.63882 8.0195 9.36803 7.79013 9.1616C7.56076 8.95517 7.27448 8.82269 6.96866 8.78148C6.86152 8.76862 6.75438 8.7772 6.64723 8.76434C6.64241 8.7638 6.63783 8.7619 6.63404 8.75886C6.63025 8.75583 6.62739 8.75178 6.62581 8.7472C6.60828 8.6725 6.60828 8.59475 6.62581 8.52005C6.69866 8.21148 6.89152 8.0572 7.16581 7.92005C7.32438 7.84291 7.31581 7.66291 7.31581 7.50862C7.32009 7.32434 7.44009 7.12291 7.56866 6.99434C7.68438 6.87862 7.85152 6.82291 8.01009 6.78005C8.13866 6.7372 8.20723 6.62148 8.21152 6.48434C8.21202 6.28654 8.28449 6.09569 8.41541 5.94742C8.54633 5.79916 8.72674 5.70361 8.92295 5.67862C9.35581 5.60577 9.62581 5.95291 9.70295 6.34291C9.72866 6.4672 9.72438 6.57005 9.86581 6.61291C10.0929 6.69005 10.3201 6.59148 10.2772 6.31291C10.2606 6.18073 10.2275 6.05116 10.1787 5.9272C10.0821 5.70279 9.9355 5.50342 9.75009 5.34434C9.74772 5.33803 9.74687 5.33124 9.74762 5.32454C9.74836 5.31784 9.75068 5.31141 9.75438 5.30577C9.75769 5.30061 9.76208 5.29623 9.76723 5.29291C9.96866 5.14291 10.1958 5.12148 10.4401 5.15577C10.5644 5.17291 10.6844 5.23291 10.8001 5.3272C11.0272 5.5072 11.1429 5.78577 11.1429 6.07291V17.8929C11.1429 18.4201 10.8387 18.8101 10.3029 18.8529C10.2129 18.8615 10.1101 18.8529 10.0029 18.8229C9.81438 18.7801 9.69866 18.6172 9.52295 18.5529C9.49544 18.5433 9.46636 18.5389 9.43723 18.5401C9.03866 18.5486 8.73009 18.3601 8.52009 17.9743C8.50991 17.9559 8.5069 17.9343 8.51165 17.9137C8.51639 17.8931 8.52856 17.8751 8.54581 17.8629C8.97438 17.5801 9.23152 17.2029 9.27009 16.6758V16.6715Z" fill="#613CC0"/>
<path fill-rule="evenodd" clip-rule="evenodd" d="M17.6356 16.5084C17.8322 16.4322 18.0118 16.3178 18.164 16.1719C18.3162 16.026 18.438 15.8514 18.5225 15.6582C18.6069 15.465 18.6523 15.257 18.656 15.0462C18.6598 14.8354 18.6218 14.6259 18.5442 14.4299C18.5415 14.4245 18.5402 14.4187 18.5402 14.4127C18.5402 14.4068 18.5415 14.4009 18.5442 14.3956C18.947 13.787 18.9599 13.1656 18.587 12.5356C18.5831 12.53 18.5804 12.5238 18.5789 12.5171C18.5774 12.5105 18.5773 12.5037 18.5785 12.497C18.5785 12.4627 18.5913 12.4284 18.6042 12.3941L18.6256 12.3084C18.6985 11.8927 18.6256 11.5027 18.3985 11.1384C18.3955 11.1332 18.3939 11.1273 18.3939 11.1213C18.3939 11.1153 18.3955 11.1094 18.3985 11.1041C18.5765 10.7556 18.6216 10.3543 18.5254 9.97493C18.4292 9.5956 18.1982 9.26425 17.8756 9.04272C17.87 9.04009 17.8654 9.0358 17.8623 9.03043C17.8592 9.02506 17.8579 9.01888 17.8585 9.01272C17.8991 8.74526 17.8626 8.47177 17.7533 8.22432C17.6439 7.97686 17.4664 7.7657 17.2413 7.61557C17.231 7.60893 17.2222 7.60013 17.2155 7.58978C17.2088 7.57942 17.2045 7.56776 17.2028 7.55557C17.174 7.31168 17.0821 7.07949 16.9364 6.88185C16.7906 6.68422 16.5958 6.52795 16.3713 6.42843C16.3606 6.4227 16.3513 6.41477 16.3439 6.40517C16.3365 6.39557 16.3313 6.38451 16.3285 6.37272C16.2693 6.05624 16.1026 5.76993 15.8566 5.56221C15.6106 5.35448 15.3004 5.23809 14.9785 5.23272C14.9399 5.23272 14.9056 5.23272 14.8756 5.20272C14.6356 4.92843 14.3485 4.76986 14.0142 4.73129C13.547 4.67129 13.157 4.79129 12.8313 5.09557C12.647 5.267 12.4285 5.567 12.4285 5.837V18.1713C12.4285 18.2399 12.4413 18.3041 12.4713 18.3684C12.5832 18.6689 12.7938 18.9225 13.0687 19.0876C13.3435 19.2527 13.6664 19.3195 13.9842 19.277C14.2242 19.2505 14.4532 19.1619 14.6485 19.0199C14.6999 18.9856 14.7642 18.977 14.8242 18.977C14.867 18.9684 14.9013 18.9684 14.9356 18.9556C15.3642 18.8441 15.6942 18.5999 15.9299 18.2227L15.9856 18.107L16.0285 18.0213C16.0313 18.0155 16.0355 18.0105 16.0407 18.0068C16.046 18.003 16.0521 18.0006 16.0585 17.9999C16.4447 17.9891 16.8137 17.8378 17.0962 17.5742C17.3787 17.3106 17.5553 16.953 17.5928 16.5684C17.5934 16.5554 17.5978 16.5428 17.6054 16.5322C17.613 16.5216 17.6235 16.5133 17.6356 16.5084ZM14.3142 6.35557C14.297 6.497 14.2285 6.62129 14.0785 6.64272C13.8813 6.66843 13.667 6.59557 13.6842 6.35557C13.7014 6.15596 13.7589 5.96191 13.8532 5.78512C13.9474 5.60834 14.0766 5.4525 14.2328 5.327C14.235 5.32309 14.2362 5.31866 14.2362 5.31415C14.2362 5.30963 14.235 5.3052 14.2328 5.30129L14.2242 5.29272C14.1092 5.2139 13.9768 5.16402 13.8384 5.14734C13.7 5.13065 13.5595 5.14765 13.4291 5.19688C13.2987 5.24612 13.182 5.32613 13.0891 5.43012C12.9963 5.53411 12.9299 5.65899 12.8956 5.79415C12.8613 5.90986 12.8613 6.04272 12.8613 6.167V17.6913C12.8613 17.9913 12.8785 18.1927 12.9213 18.2913C12.963 18.4025 13.0271 18.504 13.1095 18.5895C13.192 18.6751 13.2911 18.7428 13.4007 18.7886C13.5103 18.8344 13.6281 18.8572 13.7469 18.8557C13.8657 18.8542 13.9829 18.8284 14.0913 18.7799C14.147 18.7584 14.1985 18.7156 14.2499 18.677C14.3313 18.617 14.4085 18.557 14.5028 18.5484H14.5456C14.6313 18.5399 14.717 18.5356 14.8028 18.5141C14.9536 18.4777 15.0939 18.4069 15.2129 18.3073C15.3318 18.2077 15.4261 18.0819 15.4885 17.9399V17.9141C15.4847 17.9067 15.4787 17.9007 15.4713 17.897C15.2497 17.7753 15.0632 17.5986 14.9296 17.3839C14.796 17.1693 14.7199 16.9239 14.7085 16.6713C14.6993 16.5985 14.7144 16.5247 14.7513 16.4613C14.8628 16.2899 15.1113 16.3199 15.2228 16.4784C15.2613 16.5384 15.2656 16.6199 15.2742 16.6927V16.7313C15.3128 17.0613 15.5313 17.3313 15.8313 17.4599C16.1399 17.5884 16.5042 17.4899 16.7442 17.2884C16.9756 17.087 17.1128 16.817 17.1042 16.517V16.457C17.0956 16.3756 17.087 16.2941 17.1299 16.2256C17.2028 16.1141 17.3056 16.0884 17.4213 16.0627L17.5113 16.0413C17.6553 16.0003 17.7879 15.9267 17.8988 15.8261C18.0097 15.7255 18.0958 15.6006 18.1506 15.4613C18.2053 15.322 18.2272 15.1719 18.2144 15.0227C18.2016 14.8735 18.1546 14.7293 18.077 14.6013C17.9485 14.387 18.0513 14.2713 18.1885 14.1213L18.2013 14.1041C18.4628 13.817 18.4928 13.397 18.3342 13.0584C18.2813 12.9495 18.2135 12.8486 18.1328 12.7584C18.0299 12.6299 18.0813 12.5099 18.1413 12.377L18.1456 12.3599C18.2742 12.0727 18.2313 11.7384 18.0599 11.477L17.987 11.3784C17.8885 11.2499 17.7899 11.1213 17.9099 10.9413C17.9913 10.8213 18.047 10.7141 18.0813 10.6156C18.1756 10.3627 18.137 10.067 17.9999 9.83986C17.8413 9.56986 17.6099 9.407 17.3013 9.35129C16.8299 9.26557 16.427 9.62986 16.2985 10.0456C16.2428 10.217 16.067 10.307 15.8999 10.2299C15.7413 10.157 15.6985 10.0199 15.7628 9.82272C15.8702 9.48911 16.0877 9.20185 16.3796 9.00798C16.6716 8.81411 17.0207 8.72512 17.3699 8.75557C17.387 8.75557 17.3956 8.75129 17.3913 8.73415C17.3989 8.56707 17.3537 8.40184 17.2622 8.26185C17.1707 8.12187 17.0374 8.01422 16.8813 7.95415C16.697 7.86843 16.6928 7.73986 16.6885 7.59415C16.6885 7.53843 16.6842 7.47843 16.667 7.41843C16.6371 7.27469 16.5674 7.14225 16.4658 7.03617C16.3643 6.9301 16.235 6.85466 16.0928 6.81843C15.9813 6.79272 15.8785 6.75415 15.8185 6.647C15.7855 6.57272 15.768 6.49253 15.767 6.41129C15.7585 6.34272 15.7542 6.27415 15.7242 6.20557C15.6716 6.05313 15.5736 5.92046 15.4434 5.82544C15.3131 5.73042 15.1568 5.67761 14.9956 5.67415C14.6185 5.64415 14.3528 6.02557 14.3099 6.35986L14.3142 6.35557Z" fill="#061D41"/>
<path d="M14.5714 7.71408C14.685 7.71408 14.794 7.66892 14.8744 7.58855C14.9548 7.50818 14.9999 7.39917 14.9999 7.28551C14.9999 7.17184 14.9548 7.06283 14.8744 6.98246C14.794 6.90209 14.685 6.85693 14.5714 6.85693C14.4577 6.85693 14.3487 6.90209 14.2683 6.98246C14.1879 7.06283 14.1428 7.17184 14.1428 7.28551C14.1428 7.39917 14.1879 7.50818 14.2683 7.58855C14.3487 7.66892 14.4577 7.71408 14.5714 7.71408ZM15.8571 8.99979C15.9707 8.99979 16.0797 8.95464 16.1601 8.87427C16.2405 8.79389 16.2856 8.68488 16.2856 8.57122C16.2856 8.45756 16.2405 8.34855 16.1601 8.26817C16.0797 8.1878 15.9707 8.14265 15.8571 8.14265C15.7434 8.14265 15.6344 8.1878 15.554 8.26817C15.4737 8.34855 15.4285 8.45756 15.4285 8.57122C15.4285 8.68488 15.4737 8.79389 15.554 8.87427C15.6344 8.95464 15.7434 8.99979 15.8571 8.99979ZM13.7142 8.99979C13.8279 8.99979 13.9369 8.95464 14.0173 8.87427C14.0976 8.79389 14.1428 8.68488 14.1428 8.57122C14.1428 8.45756 14.0976 8.34855 14.0173 8.26817C13.9369 8.1878 13.8279 8.14265 13.7142 8.14265C13.6006 8.14265 13.4915 8.1878 13.4112 8.26817C13.3308 8.34855 13.2856 8.45756 13.2856 8.57122C13.2856 8.68488 13.3308 8.79389 13.4112 8.87427C13.4915 8.95464 13.6006 8.99979 13.7142 8.99979ZM14.1428 11.5712C14.3701 11.5712 14.5881 11.4809 14.7489 11.3202C14.9096 11.1594 14.9999 10.9414 14.9999 10.7141C14.9999 10.4867 14.9096 10.2687 14.7489 10.108C14.5881 9.94724 14.3701 9.85693 14.1428 9.85693C13.9155 9.85693 13.6974 9.94724 13.5367 10.108C13.376 10.2687 13.2856 10.4867 13.2856 10.7141C13.2856 10.9414 13.376 11.1594 13.5367 11.3202C13.6974 11.4809 13.9155 11.5712 14.1428 11.5712ZM16.2856 11.5712C16.3993 11.5712 16.5083 11.5261 16.5887 11.4457C16.6691 11.3653 16.7142 11.2563 16.7142 11.1426C16.7142 11.029 16.6691 10.92 16.5887 10.8396C16.5083 10.7592 16.3993 10.7141 16.2856 10.7141C16.172 10.7141 16.063 10.7592 15.9826 10.8396C15.9022 10.92 15.8571 11.029 15.8571 11.1426C15.8571 11.2563 15.9022 11.3653 15.9826 11.4457C16.063 11.5261 16.172 11.5712 16.2856 11.5712ZM14.1428 12.8569C14.2565 12.8569 14.3655 12.8118 14.4458 12.7314C14.5262 12.651 14.5714 12.542 14.5714 12.4284C14.5714 12.3147 14.5262 12.2057 14.4458 12.1253C14.3655 12.0449 14.2565 11.9998 14.1428 11.9998C14.0291 11.9998 13.9201 12.0449 13.8397 12.1253C13.7594 12.2057 13.7142 12.3147 13.7142 12.4284C13.7142 12.542 13.7594 12.651 13.8397 12.7314C13.9201 12.8118 14.0291 12.8569 14.1428 12.8569ZM15.6428 14.1426C15.8133 14.1426 15.9768 14.0749 16.0974 13.9544C16.2179 13.8338 16.2856 13.6703 16.2856 13.4998C16.2856 13.3293 16.2179 13.1658 16.0974 13.0452C15.9768 12.9247 15.8133 12.8569 15.6428 12.8569C15.4723 12.8569 15.3088 12.9247 15.1882 13.0452C15.0677 13.1658 14.9999 13.3293 14.9999 13.4998C14.9999 13.6703 15.0677 13.8338 15.1882 13.9544C15.3088 14.0749 15.4723 14.1426 15.6428 14.1426ZM17.1428 14.1426C17.2565 14.1426 17.3655 14.0975 17.4458 14.0171C17.5262 13.9367 17.5714 13.8277 17.5714 13.7141C17.5714 13.6004 17.5262 13.4914 17.4458 13.411C17.3655 13.3307 17.2565 13.2855 17.1428 13.2855C17.0291 13.2855 16.9201 13.3307 16.8397 13.411C16.7594 13.4914 16.7142 13.6004 16.7142 13.7141C16.7142 13.8277 16.7594 13.9367 16.8397 14.0171C16.9201 14.0975 17.0291 14.1426 17.1428 14.1426ZM13.9285 15.4284C14.099 15.4284 14.2625 15.3606 14.3831 15.2401C14.5036 15.1195 14.5714 14.956 14.5714 14.7855C14.5714 14.615 14.5036 14.4515 14.3831 14.3309C14.2625 14.2104 14.099 14.1426 13.9285 14.1426C13.758 14.1426 13.5945 14.2104 13.4739 14.3309C13.3534 14.4515 13.2856 14.615 13.2856 14.7855C13.2856 14.956 13.3534 15.1195 13.4739 15.2401C13.5945 15.3606 13.758 15.4284 13.9285 15.4284ZM15.8571 15.8569C15.9707 15.8569 16.0797 15.8118 16.1601 15.7314C16.2405 15.651 16.2856 15.542 16.2856 15.4284C16.2856 15.3147 16.2405 15.2057 16.1601 15.1253C16.0797 15.0449 15.9707 14.9998 15.8571 14.9998C15.7434 14.9998 15.6344 15.0449 15.554 15.1253C15.4737 15.2057 15.4285 15.3147 15.4285 15.4284C15.4285 15.542 15.4737 15.651 15.554 15.7314C15.6344 15.8118 15.7434 15.8569 15.8571 15.8569ZM13.7142 17.1426C13.8279 17.1426 13.9369 17.0975 14.0173 17.0171C14.0976 16.9367 14.1428 16.8277 14.1428 16.7141C14.1428 16.6004 14.0976 16.4914 14.0173 16.411C13.9369 16.3307 13.8279 16.2855 13.7142 16.2855C13.6006 16.2855 13.4915 16.3307 13.4112 16.411C13.3308 16.4914 13.2856 16.6004 13.2856 16.7141C13.2856 16.8277 13.3308 16.9367 13.4112 17.0171C13.4915 17.0975 13.6006 17.1426 13.7142 17.1426Z" fill="#613CC0"/>
</g>
<defs>
<clipPath id="clip0_31_15682">
<rect width="24" height="24" fill="white"/>
</clipPath>
</defs>
</svg>
