<svg xmlns="http://www.w3.org/2000/svg" width="24" height="24" fill="none" viewBox="0 0 24 24"><g clip-path="url(#a)"><path fill="#F0F3FA" d="M0 0h24v24H0z"/><path fill="#FD0001" d="M19.273 12.386a7.25 7.25 0 0 0-6.857-7.663c-4.02-.214-7.462 2.871-7.689 6.891a7.25 7.25 0 0 0 6.857 7.663c4.02.214 7.462-2.871 7.689-6.891"/><path fill="#FF0F2B" d="M18.42 12.343a6.4 6.4 0 0 0-6.056-6.763 6.46 6.46 0 0 0-6.784 6.082 6.4 6.4 0 0 0 6.056 6.758 6.46 6.46 0 0 0 6.784-6.081z"/><path fill="#000" d="M18.334 12.369A6.317 6.317 0 0 0 12.36 5.7a6.373 6.373 0 0 0-6.694 6 6.317 6.317 0 0 0 5.974 6.673 6.373 6.373 0 0 0 6.694-6zm-5.97-6.755a6.4 6.4 0 0 1 6.056 6.759 6.46 6.46 0 0 1-6.784 6.086 6.4 6.4 0 0 1-6.056-6.763 6.46 6.46 0 0 1 6.784-6.082"/><path fill="#FD9F01" d="M16.2 13.487a1.955 1.955 0 0 0-.017-2.687 2.2 2.2 0 0 0-.836-.557 1.93 1.93 0 0 0-.488-1.736 2.16 2.16 0 0 0-1.44-.673 2 2 0 0 0-1.325.416 2.057 2.057 0 0 0-2.768.004 1.93 1.93 0 0 0-.609 1.706 2.1 2.1 0 0 0-1.024.699 2.006 2.006 0 0 0 .24 2.67c.236.287.428.604.574.942.257.656 1.042 1.942 3.343 2.002 2.297.15 3.171-1.059 3.467-1.689.213-.423.512-.796.879-1.097z"/><path fill="#FF8300" d="M11.07 10.843c.523-.129.814-.733.643-1.359-.167-.621-.729-1.028-1.247-.9-.523.129-.815.729-.643 1.355.167.625.729 1.028 1.247.9zM9.831 12.9c.45-.287.515-.951.129-1.479-.373-.527-1.046-.72-1.5-.428-.446.287-.506.947-.129 1.474.378.527 1.05.72 1.5.433m3.798-4.183c.523.137.797.746.617 1.363-.184.617-.755 1.003-1.277.866-.523-.142-.797-.75-.613-1.367.18-.613.75-1.003 1.273-.862m1.92 4.059c.402-.497.377-1.157-.06-1.479-.442-.317-1.123-.171-1.526.33-.403.502-.377 1.157.06 1.479.441.317 1.123.171 1.526-.33m-2.773-.943c.139.496.422.939.814 1.273a.8.8 0 0 1 .309.685.7.7 0 0 1-.09.356.84.84 0 0 1-.999.373 3.43 3.43 0 0 0-1.826-.086.8.8 0 0 1-.235.026.94.94 0 0 1-.48-.189.83.83 0 0 1-.283-.407.84.84 0 0 1 .008-.493.8.8 0 0 1 .3-.398l.03-.022.018-.008c.6-.412.805-1.174.805-1.174a.76.76 0 0 1 .292-.472.841.841 0 0 1 1.076.043c.145.129.24.3.26.489z"/><path fill="#D55B03" d="M11.713 9.484c.171.626-.12 1.23-.643 1.359a.97.97 0 0 1-.913-.309c.433-.102 1.132-.428 1.53-1.144zM10.016 11.5c-.3.848-.879 1.2-1.342 1.307.369.257.823.308 1.157.094.429-.274.506-.887.185-1.401m5.558 1.243a2.46 2.46 0 0 1-1.058-1.526 1.4 1.4 0 0 0-.553.411c-.403.502-.377 1.157.064 1.479.437.317 1.119.171 1.522-.33zm-1.53-2.25c-.921-.206-1.431-.656-1.658-.999l-.03.086c-.184.617.094 1.225.613 1.367.394.103.814-.09 1.075-.454m-.805 3.514c.27 0 .497-.086.66-.18a.7.7 0 0 1-.09.321.844.844 0 0 1-.999.373 3.43 3.43 0 0 0-1.826-.086.8.8 0 0 1-.235.026.9.9 0 0 1-.476-.188.83.83 0 0 1-.287-.408.8.8 0 0 1-.022-.381c.056.189.223.429.626.429.309 0 .476-.026.643-.052.171-.021.343-.047.681-.047.343 0 .536.051.72.103.172.043.335.09.6.09z"/><path fill="#301409" fill-rule="evenodd" d="M10.496 8.704c-.429.103-.707.622-.549 1.2.154.583.66.917 1.093.815.429-.103.707-.622.549-1.2-.155-.583-.66-.918-1.093-.815m1.217.78c.171.626-.12 1.23-.643 1.359-.523.124-1.08-.279-1.247-.9-.172-.626.12-1.234.643-1.359.523-.128 1.08.279 1.247.9M8.439 12.4c.351.488.947.638 1.324.398.368-.24.45-.814.094-1.303-.351-.488-.947-.643-1.324-.398-.369.235-.446.81-.094 1.298zm1.525-.978c.377.528.317 1.192-.128 1.479-.455.287-1.127.094-1.5-.429-.382-.531-.322-1.191.128-1.482.45-.288 1.123-.095 1.5.432m3.54 1.779a2.7 2.7 0 0 1-.853-1.337v-.017a.68.68 0 0 0-.222-.412.76.76 0 0 0-.45-.188.74.74 0 0 0-.463.15.66.66 0 0 0-.245.394v.009l-.128-.03a.78.78 0 0 1 .296-.472.841.841 0 0 1 1.076.043c.145.129.24.3.26.489.139.497.422.942.815 1.277a.83.83 0 0 1 .309.685.7.7 0 0 1-.09.356.84.84 0 0 1-.999.373 3.43 3.43 0 0 0-1.826-.086.8.8 0 0 1-.235.026.94.94 0 0 1-.48-.189.83.83 0 0 1-.283-.407.84.84 0 0 1 .008-.493.8.8 0 0 1 .3-.398l.03-.022.017-.008c.6-.412.806-1.174.806-1.174l.124.03-.004.008a3.26 3.26 0 0 1-.184.45 2.1 2.1 0 0 1-.669.789l-.021.013-.026.017a.674.674 0 0 0-.257.75.7.7 0 0 0 .24.347c.116.09.257.15.407.163a.7.7 0 0 0 .193-.022 3.56 3.56 0 0 1 1.903.086.73.73 0 0 0 .63-.077.7.7 0 0 0 .214-.232m0 0a.66.66 0 0 0 .073-.3v-.004a.7.7 0 0 0-.261-.587m.612-3.154c.172-.57-.094-1.097-.522-1.209-.438-.116-.952.206-1.123.776-.172.574.094 1.097.527 1.208.433.116.951-.205 1.118-.775m-1.765-.467c-.185.617.09 1.225.613 1.367.522.137 1.092-.249 1.277-.866.18-.617-.095-1.226-.617-1.363-.523-.141-1.093.249-1.273.862m3.094 3.12c.373-.463.326-1.038-.039-1.299-.368-.266-.972-.159-1.35.304-.372.463-.321 1.037.043 1.299.365.266.973.158 1.346-.304m.039-1.402c.437.317.462.982.06 1.479-.403.497-1.085.643-1.526.33-.437-.317-.463-.977-.06-1.479.403-.497 1.084-.643 1.526-.33" clip-rule="evenodd"/><path fill="#B97405" d="M16.414 13.196c-.123.196-.278.37-.458.514a3.7 3.7 0 0 0-.643.874c-.292.63-1.166 1.839-3.463 1.689-2.297-.06-3.086-1.346-3.343-2.002a3.9 3.9 0 0 0-.574-.943 2 2 0 0 1-.45-.6 2.94 2.94 0 0 0 1.23.802c.086.06.3.231.446.446l.017.025c.205.3.925 1.372 2.837 1.372 1.569 0 2.481-.93 2.739-1.397.173-.27.443-.461.754-.536q.46-.097.908-.244"/><path fill="#FDC082" d="M7.299 11.606c.197-.437.732-1.067 1.817-1.157-.043-.536.034-1.689.668-2.023.797-.424 1.333-.163 2.143.3.42-.386 1.372-.814 2.314 0a1.77 1.77 0 0 1 .493 1.594c.493-.034 1.543.429 1.8 2.572l.125-.275a1.96 1.96 0 0 0-.48-1.817 2.2 2.2 0 0 0-.832-.557 1.93 1.93 0 0 0-.488-1.736 2.16 2.16 0 0 0-1.44-.673 2 2 0 0 0-1.325.416 2.057 2.057 0 0 0-2.768.004 1.93 1.93 0 0 0-.609 1.706 2.1 2.1 0 0 0-1.024.699 1.95 1.95 0 0 0-.394.942z"/><path fill="#41100A" d="m15.201 10.32.018-.103a1.81 1.81 0 0 0-.459-1.628 2.04 2.04 0 0 0-1.346-.63 1.9 1.9 0 0 0-1.243.385l-.085.069-.077-.073a1.93 1.93 0 0 0-1.959-.377c-.468.174-.85.523-1.067.973-.1.218-.152.454-.154.694v.004c0 .103 0 .206.017.309l.013.103-.103.03c-.386.12-.72.351-.96.66a1.88 1.88 0 0 0 .223 2.503l.008.008v.005c.246.293.448.62.6.972.129.317.373.78.87 1.175.489.39 1.234.72 2.357.75h.005c1.122.072 1.885-.189 2.4-.532a2.67 2.67 0 0 0 .942-1.084 3.5 3.5 0 0 1 .665-.909l.004-.004.004-.004a1.864 1.864 0 0 0 .21-2.73 2.06 2.06 0 0 0-.784-.527l-.099-.043zm1.458 2.306c-.11.428-.357.81-.703 1.084a3.7 3.7 0 0 0-.643.874c-.292.63-1.166 1.839-3.463 1.689-2.301-.06-3.086-1.346-3.343-2.001a3.9 3.9 0 0 0-.574-.943 1.993 1.993 0 0 1-.24-2.67c.262-.332.62-.575 1.024-.699a2.06 2.06 0 0 1 .15-1.076c.107-.235.266-.45.459-.63a2.06 2.06 0 0 1 2.768-.004c.38-.292.85-.44 1.329-.416a2.16 2.16 0 0 1 1.431.673 1.93 1.93 0 0 1 .493 1.732c.317.12.602.312.832.561a1.95 1.95 0 0 1 .475 1.826z"/></g><defs><clipPath id="a"><path fill="#fff" d="M0 0h24v24H0z"/></clipPath></defs></svg>