<svg width="24" height="24" viewBox="0 0 24 24" fill="none" xmlns="http://www.w3.org/2000/svg">
<g clip-path="url(#clip0_31_15902)">
<path d="M0 0H24V24H0V0Z" fill="#F0F3FA"/>
<path d="M12.0002 18.8574C15.7873 18.8574 18.8574 15.7873 18.8574 12.0002C18.8574 8.21311 15.7873 5.14307 12.0002 5.14307C8.21311 5.14307 5.14307 8.21311 5.14307 12.0002C5.14307 15.7873 8.21311 18.8574 12.0002 18.8574Z" fill="url(#paint0_linear_31_15902)"/>
<path d="M5.18989 11.1858L5.16846 11.4258C6.18846 10.5558 8.74274 9.00006 11.507 9.00006C13.7485 9.00006 15.0342 10.2858 15.3942 10.9458L15.0342 13.7829L11.0099 16.0029L10.7142 16.2301V11.1001C10.7142 10.8858 10.6291 10.6803 10.4776 10.5288C10.3261 10.3773 10.1206 10.2922 9.90631 10.2922C9.69206 10.2922 9.48658 10.3773 9.33507 10.5288C9.18357 10.6803 9.09846 10.8858 9.09846 11.1001V18.2143C9.60846 18.4501 10.1485 18.6258 10.7142 18.7286V17.3143C12.797 17.0401 16.2856 15.7929 16.2856 12.3558C16.2856 11.0486 15.317 9.63434 14.8027 9.09434L12.1027 8.31006L9.06417 8.76863L6.72417 9.97292L5.18989 11.1858Z" fill="url(#paint1_linear_31_15902)"/>
<path d="M5.20296 11.0188L5.17725 11.2331C6.65582 9.82735 9.40296 8.78164 11.4215 8.78164C13.5001 8.78164 15.0001 10.0245 15.0001 11.5502C15.0001 13.7874 11.6958 14.8502 10.2858 15.0516V11.1431C10.2858 10.9157 10.1955 10.6977 10.0348 10.537C9.87402 10.3762 9.656 10.2859 9.42867 10.2859C9.20135 10.2859 8.98333 10.3762 8.82258 10.537C8.66184 10.6977 8.57153 10.9157 8.57153 11.1431V19.2859C8.57153 19.5133 8.66184 19.7313 8.82258 19.892C8.98333 20.0528 9.20135 20.1431 9.42867 20.1431C9.656 20.1431 9.87402 20.0528 10.0348 19.892C10.1955 19.7313 10.2858 19.5133 10.2858 19.2859V16.7059C15.6858 15.4288 16.2858 12.6002 16.2858 11.7388C16.2858 10.8816 15.6472 8.14307 11.6915 8.14307C8.82867 8.14307 6.35582 9.89164 5.20296 11.0188Z" fill="url(#paint2_linear_31_15902)"/>
</g>
<defs>
<linearGradient id="paint0_linear_31_15902" x1="17.2759" y1="7.87735" x2="5.80307" y2="14.9016" gradientUnits="userSpaceOnUse">
<stop stop-color="#FD2307"/>
<stop offset="1" stop-color="#FDB106"/>
</linearGradient>
<linearGradient id="paint1_linear_31_15902" x1="14.4513" y1="8.82863" x2="10.3242" y2="18.4929" gradientUnits="userSpaceOnUse">
<stop stop-color="#E67F5E"/>
<stop offset="1" stop-color="#FCC252"/>
</linearGradient>
<linearGradient id="paint2_linear_31_15902" x1="10.153" y1="17.6016" x2="9.18439" y2="19.9245" gradientUnits="userSpaceOnUse">
<stop stop-color="#FEFEFC"/>
<stop offset="1" stop-color="#FFC125"/>
</linearGradient>
<clipPath id="clip0_31_15902">
<rect width="24" height="24" fill="white"/>
</clipPath>
</defs>
</svg>
