<svg xmlns="http://www.w3.org/2000/svg" width="24" height="24" fill="none" viewBox="0 0 24 24"><g clip-path="url(#a)"><path fill="url(#b)" d="M0 0h24v24H0z"/><path fill="url(#c)" d="M9 15h3.429v3.429H9z"/><path fill="url(#d)" d="M12.429 5.571h1.341a4.66 4.66 0 0 1 4.659 4.663c0 2.572-2.088 4.766-4.663 4.766H9V8.57h3.429v3h1.341c.844 0 1.659-.655 1.659-1.5 0-.844-.815-1.5-1.663-1.5h-1.337z"/><path fill="url(#e)" d="M5.572 11.571H9V15H5.572z"/><path fill="url(#f)" d="M9 11.571h3.429V15H9z"/></g><defs><linearGradient id="b" x1="4.466" x2="29.207" y1="4.161" y2="32.58" gradientUnits="userSpaceOnUse"><stop stop-color="#1A1E21"/><stop offset="1" stop-color="#06060A"/></linearGradient><linearGradient id="c" x1="9" x2="12.429" y1="16.029" y2="17.473" gradientUnits="userSpaceOnUse"><stop stop-color="#3EFF6E"/><stop offset="1" stop-color="#16DDDE"/></linearGradient><linearGradient id="d" x1="9.107" x2="19.239" y1="8.121" y2="12.698" gradientUnits="userSpaceOnUse"><stop stop-color="#FF5B3C"/><stop offset="1" stop-color="#FF3196"/></linearGradient><linearGradient id="e" x1="5.572" x2="9" y1="12.6" y2="14.044" gradientUnits="userSpaceOnUse"><stop stop-color="#FF6F3F"/><stop offset="1" stop-color="#FFC546"/></linearGradient><linearGradient id="f" x1="9" x2="12.429" y1="12.6" y2="14.044" gradientUnits="userSpaceOnUse"><stop stop-color="#E059FE"/><stop offset="1" stop-color="#656FFF"/></linearGradient><clipPath id="a"><path fill="#fff" d="M0 0h24v24H0z"/></clipPath></defs></svg>