<svg xmlns="http://www.w3.org/2000/svg" width="24" height="24" fill="none" viewBox="0 0 24 24"><g clip-path="url(#a)"><path fill="url(#b)" d="M0 0h24v24H0z"/><path fill="#0079F0" d="M10.629 7.114a1.286 1.286 0 0 1 2.314 0l4.328 8.988a.43.43 0 0 1-.385.612h-10.2a.43.43 0 0 1-.386-.612z"/><path fill="#fff" d="M10.05 6.835a1.928 1.928 0 0 1 3.471 0l4.333 8.983a1.072 1.072 0 0 1-.964 1.539H6.68a1.07 1.07 0 0 1-.964-1.539l4.329-8.983zm2.314.558a.642.642 0 0 0-1.157 0L7.024 16.07h9.519L12.36 7.397z"/></g><defs><linearGradient id="b" x1="4.466" x2="29.207" y1="4.161" y2="32.58" gradientUnits="userSpaceOnUse"><stop stop-color="#1A1E21"/><stop offset="1" stop-color="#06060A"/></linearGradient><clipPath id="a"><path fill="#fff" d="M0 0h24v24H0z"/></clipPath></defs></svg>