<svg xmlns="http://www.w3.org/2000/svg" width="24" height="24" fill="none" viewBox="0 0 24 24"><g clip-path="url(#a)"><path fill="#F0F3FA" d="M0 0h24v24H0z"/><path fill="#F08296" d="M18.853 10.886c0-.056.385-5.743-5.13-5.743-1.727 0-8.58.51-8.58 5.52v2.456c0 4.988 3.493 5.738 5.13 5.738 5.717 0 8.58-2.601 8.58-5.52v-2.455z"/><path fill="#002048" d="M12.849 8.143c1.264 0 2.15 1.029 2.15 2.7 0 1.676-1.178 2.871-2.57 2.871-.55 0-.883-.214-1.286-.36v2.503H9.428V9.172c.759-.3 2.503-1.029 3.42-1.029M11.143 9.43v3H12c.758 0 1.286-.575 1.286-1.5 0-1.157-.399-1.5-1.286-1.5z"/></g><defs><clipPath id="a"><path fill="#fff" d="M0 0h24v24H0z"/></clipPath></defs></svg>