<svg width="24" height="24" viewBox="0 0 24 24" fill="none" xmlns="http://www.w3.org/2000/svg">
<g clip-path="url(#clip0_31_16108)">
<path d="M0 0H24V24H0V0Z" fill="url(#paint0_linear_31_16108)"/>
<path d="M19.2857 11.9998L12 4.71582L4.71301 11.9998L12 19.2868L19.2857 11.9998Z" fill="#0A3957"/>
<path d="M18.6866 11.9998L12.0428 5.31836L5.31555 11.9998L12.0428 18.6041L18.6866 11.9998Z" fill="#4490CA"/>
<path d="M10.3483 16.3758L11.3348 17.3414L11.6755 16.9685L11.0494 16.3454L12.0021 15.388L12.942 16.3754L12.3355 16.9681L12.7127 17.341L13.6337 16.3754L12.0021 14.686L10.3487 16.3754L10.3483 16.3758ZM12.4285 13.2871L11.9927 13.7157L11.5714 13.2871H12.4285ZM12.6493 8.0791L11.6571 9.05367L11.9918 9.41282L12.6488 8.72367L12.9788 9.05367L12.3677 9.70167L12.702 10.003L13.3033 9.34896L14.6575 10.6827L15.2931 10.0668L16.2827 11.0182L16.6294 10.6827L15.2931 9.34896L14.6575 10.003L12.6493 8.0791ZM7.05898 11.0795L6.73755 11.4104L7.66455 12.3892L9.04026 11.0285L8.70255 10.6754L7.66455 11.6825L7.05898 11.0795ZM14.613 11.3577L14.289 11.0294L13.3075 11.953L14.6404 13.3561L14.9944 13.0201L14.0078 11.9615L14.613 11.3577Z" fill="#0A3957"/>
<path d="M16.8857 11.0945L17.1857 11.4455L16.1987 12.3626L14.8954 10.9509L15.2618 10.6055L16.263 11.6696L16.8857 11.0945Z" fill="#0A3957"/>
<path d="M16.8956 12.4518L17.1956 12.8024L16.2086 13.7196L14.6392 12.0541L15.024 11.7061L16.2532 13.0146L16.8956 12.4518ZM9.43076 11.4258L9.76762 11.1108L10.7126 12.0726L9.32619 13.4217L8.98547 13.072L10.0123 12.0533L9.43076 11.4258Z" fill="#0A3957"/>
<path d="M7.05896 12.406L6.73754 12.7369L7.66454 13.7157L9.35225 12.0657L9.01496 11.7121L7.66496 13.009L7.05896 12.406ZM11.6507 6.39486L12.0115 6.05029L12.3728 6.39486L12.0115 6.73986L11.6507 6.39486ZM6.03125 12.0019L6.39211 11.6569L6.75339 12.0019L6.39211 12.3464L6.03125 12.0019ZM17.2324 12.0014L17.5932 11.6569L17.9541 12.0014L17.5932 12.346L17.2324 12.0014ZM11.6507 17.6701L12.0115 17.3256L12.3724 17.6701L12.0115 18.0151L11.6507 17.6701ZM11.6507 16.3587L12.0115 16.0137L12.3724 16.3583L12.0115 16.7029L11.6507 16.3587ZM11.3155 6.74029L8.99911 9.02158L9.31196 9.37129L11.3155 7.36558L11.6623 7.69686L9.41868 10.0154L8.68925 9.37129L7.38939 10.6956L7.69025 11.0187L8.68882 10.015L9.41868 10.6956L10.677 9.37129L11.3155 10.015L11.6623 9.64729L11.0601 9.02158L12.6471 7.36558L14.6352 9.37129L14.9451 9.02158L12.6471 6.74029L11.9721 7.36601L11.3155 6.74029Z" fill="#0A3957"/>
<path d="M10.5982 10.2856H11.1429V10.7142H10.2858L10.5982 10.2856ZM13.4023 10.2856H12.8572V10.7142H13.7143L13.4023 10.2856ZM11.7515 10.9144V10.2856H12.2653V10.9144L12.9952 11.6986L12.6592 11.9798L14.9636 14.3241L15.2898 14.0138L14.9876 13.6692L15.3348 13.3371L16.0003 14.0142L14.9632 15.0501L12.75 12.8571H11.2728L9.03947 15.0501L8.06018 14.0138L8.73475 13.3422L9.07418 13.6808L8.76132 14.0138L9.03947 14.3236L11.3345 11.9798L11.0272 11.6991L11.7515 10.9144Z" fill="#0A3957"/>
<path d="M10.0398 16.017L9.37976 15.36L9.69605 15.0227L10.0398 15.36L11.0165 14.3657L10.68 14.0306L11.0165 13.6821L11.6945 14.3661L10.0398 16.017ZM13.929 16.017L14.589 15.36L14.2728 15.0227L13.929 15.36L12.9523 14.3657L13.2888 14.0306L12.9523 13.6821L12.2743 14.3661L13.929 16.017Z" fill="#0A3957"/>
<path d="M11.5714 12.4287L12.0073 12.0002L12.4286 12.4287H11.5714ZM11.6378 11.6556L11.9987 11.311L12.36 11.6556L11.9987 12.0002L11.6378 11.6556Z" fill="#4490CA"/>
</g>
<defs>
<linearGradient id="paint0_linear_31_16108" x1="12" y1="0" x2="12" y2="24" gradientUnits="userSpaceOnUse">
<stop stop-color="#CDE9F0"/>
<stop offset="0.498" stop-color="#F7E4EA"/>
<stop offset="1" stop-color="#FFEEE6"/>
</linearGradient>
<clipPath id="clip0_31_16108">
<rect width="24" height="24" fill="white"/>
</clipPath>
</defs>
</svg>
