<svg xmlns="http://www.w3.org/2000/svg" width="24" height="24" fill="none" viewBox="0 0 24 24"><g clip-path="url(#a)"><path fill="#F0F3FA" d="M0 0h24v24H0z"/><path fill="url(#b)" d="M12.784 12c.84 0 1.787-.356 1.787-1.286 0-.896-.908-1.286-1.787-1.286h-2.498v-.857h2.631c1.38 0 2.512.699 2.512 2.143s-1.188 2.143-2.512 2.143h-1.774v3h-.857V12z"/><path fill="url(#c)" fill-rule="evenodd" d="M12 19.286a7.285 7.285 0 1 0 0-14.57 7.285 7.285 0 0 0 0 14.57m0-.857A6.429 6.429 0 1 0 12 5.57a6.429 6.429 0 0 0 0 12.858" clip-rule="evenodd"/></g><defs><linearGradient id="b" x1="40.521" x2="40.491" y1="8.43" y2="22.474" gradientUnits="userSpaceOnUse"><stop stop-color="#FF2E72"/><stop offset=".93" stop-color="#4A125E"/></linearGradient><linearGradient id="c" x1="12" x2="12" y1="4.714" y2="19.286" gradientUnits="userSpaceOnUse"><stop stop-color="#FF2E72"/><stop offset="1" stop-color="#631661"/></linearGradient><clipPath id="a"><path fill="#fff" d="M0 0h24v24H0z"/></clipPath></defs></svg>