<svg width="24" height="24" viewBox="0 0 24 24" fill="none" xmlns="http://www.w3.org/2000/svg">
<g clip-path="url(#clip0_31_16210)">
<path d="M0 0H24V24H0V0Z" fill="url(#paint0_linear_31_16210)"/>
<path d="M6.78411 9.41992L6.56982 10.3542L7.55982 10.1142L6.78411 9.41992Z" fill="#FBF9DC"/>
<path d="M6.54834 11.6188L7.08405 13.1788L7.6412 11.6831V11.3402L6.56977 10.3545L6.54834 11.6188Z" fill="#FCF6BB"/>
<path d="M6.56982 10.3501L7.6284 11.3658L7.6584 10.5772L6.56982 10.3501Z" fill="#FCF9D3"/>
<path d="M7.55993 10.1143L6.57422 10.35L7.65422 10.5814L7.55993 10.1143Z" fill="#F8F7F0"/>
<path d="M7.55561 10.1144L6.78418 9.42871L7.69704 9.75443L7.55561 10.1144Z" fill="#F4F2E9"/>
<path d="M7.65434 10.5856L7.56006 10.1142L7.68863 9.74561L8.13434 10.1099L7.65434 10.5856Z" fill="#312E21"/>
<path d="M8.1943 11.143L7.6543 10.5858L8.12144 10.1016L8.1943 11.1387V11.143Z" fill="#38382D"/>
<path d="M8.19012 11.1387L7.62012 11.353L7.64155 10.5815L8.19012 11.1387Z" fill="#FAE8CD"/>
<path d="M8.11279 10.1143L8.19422 11.1428L8.90565 10.86L8.11279 10.1143Z" fill="#313126"/>
<path d="M8.0998 10.1271L7.68408 9.74999L8.55408 9.55713L8.10408 10.1271H8.0998Z" fill="#AE7F59"/>
<path d="M7.88562 9.23584L7.68848 9.75013L8.57133 9.56584L8.64848 9.41584L7.88562 9.23584Z" fill="#FBF17E"/>
<path d="M7.68418 9.75419L6.78418 9.42848L7.88989 9.22705L7.68418 9.75419Z" fill="#FFF6C0"/>
<path d="M7.38418 8.7087L7.09704 8.56299L6.78418 9.4287L7.88132 9.2487L7.43132 8.92299L7.38418 8.7087Z" fill="#FFF2DB"/>
<path d="M7.09717 8.57126L7.1786 8.18555L7.31145 8.71269L7.09717 8.56698V8.57126Z" fill="#E7DCA8"/>
<path d="M8.21557 13.774L7.07129 13.1698L7.63272 11.6826L8.10415 12.0812L8.21557 13.774Z" fill="#FBE38E"/>
<path d="M6.42871 14.9998L7.08443 13.1655L8.22871 13.7655L6.42871 14.9998Z" fill="#F9EFC5"/>
<path d="M6.42871 16.2857V15L7.71443 15.3471V15.9171L6.42871 16.2857Z" fill="#F9EEC6"/>
<path d="M7.44871 14.2885L6.42871 14.9999L7.603 15.3985L8.323 15.3556L7.44871 14.2842V14.2885Z" fill="#FDF39F"/>
<path d="M8.23307 13.7144L7.43164 14.2715L8.18164 15.1886H8.40021L8.23307 13.7144Z" fill="#F3E27B"/>
<path d="M8.17737 11.1343L8.10451 11.5628L7.62451 11.3486L8.17737 11.1343Z" fill="#443F33"/>
<path d="M8.57158 11.5714L8.16872 11.1128L8.08301 11.5499L8.57158 11.5714Z" fill="#3A3416"/>
<path d="M8.10023 11.5459V12.0816L7.62451 11.6745L8.09594 11.5459H8.10023Z" fill="#2A2122"/>
<path d="M8.90158 12.0857L8.08301 12.0771L8.52015 11.5371L8.90158 12.0857Z" fill="#3D371F"/>
<path d="M9.66002 12.0173L8.52002 11.5459L8.89288 12.1202L9.66002 12.0173Z" fill="#37321D"/>
<path d="M10.1614 11.9231L8.48145 11.5288L9.66002 12.0174L10.1614 11.9231Z" fill="#56421E"/>
<path d="M10.367 12.1843L9.64697 12.0129L10.1527 11.9229L10.367 12.18V12.1843Z" fill="#563918"/>
<path d="M11.0142 11.8115L10.1484 11.923L10.3327 12.1887L11.0184 11.8115H11.0142Z" fill="#3D371F"/>
<path d="M8.87153 12.0899L8.1001 12.0728L8.20724 13.7785L9.62153 14.3956L8.87153 12.0899Z" fill="#E4C568"/>
<path d="M8.39121 15.1712L8.20264 13.7227L9.62121 14.3869L8.93549 15.2012L8.39121 15.1755V15.1712Z" fill="#EDBC69"/>
<path d="M9.64301 12.0127L8.87158 12.0898L9.62158 14.387L10.3202 12.1756L9.6473 12.0127H9.64301Z" fill="#CCAD5B"/>
<path d="M10.967 14.6488L9.6084 14.3874L10.3155 12.1631L10.967 14.6488Z" fill="#BF9F5E"/>
<path d="M11.0144 11.8071L10.3115 12.1843L10.9544 14.6271L11.0144 11.8071Z" fill="#BB9C5F"/>
<path d="M10.3457 15.2488L9.60428 14.3745L8.92285 15.2017L10.3457 15.2488Z" fill="#C19E5C"/>
<path d="M10.9458 14.6401L9.6001 14.3701L10.3458 15.253L10.9458 15.3258V14.6401Z" fill="#97764B"/>
<path d="M13.0843 14.3745L10.9414 14.6317V15.3174L11.9271 15.3517L13.0843 14.3745Z" fill="#A67E40"/>
<path d="M11.0015 11.8027L10.9458 14.6313L13.1058 14.3827L11.0015 11.8027Z" fill="#C6AC61"/>
<path d="M8.89698 10.8427L8.18555 11.1384L8.51555 11.5412L9.16698 11.6912L8.89698 10.8384V10.8427Z" fill="#E1BD5F"/>
<path d="M10.4701 10.3413L9.16296 11.687L8.88867 10.847L9.19724 10.3027L10.4701 10.3456V10.3413Z" fill="#FADA7C"/>
<path d="M10.4445 10.3455L9.1416 9.93408L9.21017 10.3198L10.4445 10.3455Z" fill="#FBE88D"/>
<path d="M9.14134 9.92592L8.5542 9.56163L8.68706 9.32163L10.7142 8.06592L10.8599 8.63163L10.3071 9.39449L9.14991 9.92592H9.14134Z" fill="#FBDA50"/>
<path d="M10.457 10.3501L9.11133 9.93014L10.3113 9.39014L10.7142 9.80585L10.457 10.3501Z" fill="#FFD243"/>
<path d="M10.7916 9.64307L10.4316 10.3416L11.2116 10.0374L10.7916 9.64307Z" fill="#FAAA26"/>
<path d="M10.1569 11.9358L10.4441 10.3501L9.14551 11.6872L10.1569 11.9358Z" fill="#FCE273"/>
<path d="M11.1899 10.6884L10.1484 11.9441L10.4399 10.3413L11.2113 10.0327L11.1899 10.6884Z" fill="#FBDA66"/>
<path d="M11.0057 11.8073L10.1528 11.9316L11.1643 10.663L12 10.2944L12.42 10.333L11.0057 11.8073Z" fill="#F9DD80"/>
<path d="M11.2116 9.97266L11.1816 10.6669L12.0088 10.2941L12.0731 10.2384L11.2116 9.97266Z" fill="#FBE88D"/>
<path d="M12.8145 9.87012L10.9888 11.8115L13.1016 14.383L12.8145 9.87012Z" fill="#E8CE70"/>
<path d="M7.35014 17.2459L6.42871 16.243L7.38871 15.9688L7.35014 17.2459Z" fill="#FFEDA5"/>
<path d="M12.6685 15.3514H11.9399L13.0885 14.3657L12.6685 15.3514Z" fill="#AB8E4D"/>
<path d="M14.5541 15.2571L13.0583 14.3828L12.6641 15.3257L14.5498 15.2571H14.5541Z" fill="#D3B053"/>
<path d="M15.0512 13.4574L13.0755 14.3831L12.8184 9.87451L15.0512 13.4574Z" fill="#E1B857"/>
<path d="M14.7002 15.3685L13.0288 14.3827L15.0388 13.457L15.2531 15.3685H14.696H14.7002Z" fill="#F69026"/>
<path d="M17.25 14.5755L15 13.4141L15.2486 15.3598L16.1271 15.2912L17.25 14.5755Z" fill="#E88429"/>
<path d="M17.5714 14.7428L15 13.4142L16.9286 11.7856L17.5714 14.7428Z" fill="#AE6328"/>
<path d="M15.5957 11.1299L15 13.4142L16.9286 11.7856L15.5957 11.1299Z" fill="#F5871F"/>
<path d="M15.6172 11.1387L12.7329 9.79297L15.0001 13.4144L15.6172 11.1387Z" fill="#EFBF61"/>
<path d="M17.2026 11.927L15.5869 11.147L16.1569 8.97412L17.2026 11.9313V11.927Z" fill="#E88429"/>
<path d="M14.7641 9.02979L12.8784 9.89121L15.6256 11.1598L14.7641 9.02979Z" fill="#FCDB69"/>
<path d="M16.1742 8.97412L14.7471 9.05983L15.6042 11.1513L16.1742 8.97412Z" fill="#F69026"/>
<path d="M14.7771 9.05576L12.75 9.95147L13.5857 8.82861L14.7771 9.05576Z" fill="#FCD756"/>
<path d="M15.0514 7.3888L14.7685 9.08594L13.5899 8.82023L13.4399 8.3788L14.5671 6.91309L15.0514 7.38451V7.3888Z" fill="#FAAE32"/>
<path d="M15.0516 7.37988L14.7559 9.13274L15.763 7.74417L15.0516 7.37988Z" fill="#F58A1F"/>
<path d="M16.1745 8.98298L14.7773 9.08584L15.7373 7.73584L16.1745 8.9787V8.98298Z" fill="#F5863C"/>
<path d="M15.4629 7.11415L15.0601 7.38415L15.7543 7.75272L15.4629 7.10986V7.11415Z" fill="#CE7637"/>
<path d="M15.8655 6.78418L15.4541 7.10989L15.7412 7.75275L15.8655 6.78418Z" fill="#D96D27"/>
<path d="M15.4631 7.11424L14.5674 6.92139L15.0517 7.39282L15.4631 7.11424Z" fill="#494341"/>
<path d="M15.257 6.18007L14.5713 6.9215L15.4756 7.11864L15.2613 6.17578L15.257 6.18007Z" fill="#49352E"/>
<path d="M15.6986 5.45996L15.4629 7.11853L15.8657 6.80139L15.6986 5.45996Z" fill="#AC6E32"/>
<path d="M15.2573 6.18425L15.4673 7.10996L15.7116 5.49854L14.9102 5.84568L15.2616 6.18425H15.2573Z" fill="#885C30"/>
<path d="M14.9102 6.56564L14.1431 5.78564L14.9102 5.82422L15.2702 6.18422L14.9102 6.56564Z" fill="#E07726"/>
<path d="M14.1431 6.7285V5.78564L14.9231 6.55279L14.5631 6.9385L14.1431 6.7285Z" fill="#F89D1C"/>
<path d="M14.5712 6.91709L14.1427 6.72852L13.0112 7.14852L13.5169 8.28423L14.5712 6.91709Z" fill="#FBC244"/>
<path d="M14.4259 4.75729L14.1431 5.78586L14.9274 5.85014L15.2016 4.25586L14.4302 4.753L14.4259 4.75729Z" fill="#E68025"/>
<path d="M15.7029 5.49872L14.9229 5.85443L15.1929 4.25586L15.7071 5.49872H15.7029Z" fill="#DC8226"/>
<path d="M13.5557 5.61447L14.4257 4.75732L14.1471 5.80732L13.5557 5.61447Z" fill="#F9A943"/>
<path d="M14.1428 6.7286L13.5728 5.59717L14.1428 5.78574V6.7286Z" fill="#FBB544"/>
<path d="M13.5856 5.59716L12.5142 5.52002L14.1556 6.75002L13.5813 5.59288L13.5856 5.59716Z" fill="#F9DF65"/>
<path d="M11.5969 5.79013L10.6069 5.64013L10.9712 6.96441L12.9555 7.19584L14.1426 6.7287L12.5226 5.52441L11.5969 5.79013Z" fill="#FDE54B"/>
<path d="M9.94263 6.53119L10.6112 5.64404L11.0183 7.07976L9.93835 8.28833L9.62549 7.35404L9.93835 6.53119H9.94263Z" fill="#FDD94D"/>
<path d="M9.99858 5.64404L9.07715 6.11119L9.95143 6.53547L10.6114 5.64404H9.99858Z" fill="#EBE96E"/>
<path d="M9.28705 5.07861L9.1499 6.09004L9.65562 5.82004L9.28705 5.07861Z" fill="#49352E"/>
<path d="M9.42008 3.85693L9.2915 5.07836L9.66008 5.82836L9.71579 4.27693L9.42008 3.85693Z" fill="#E68025"/>
<path d="M10.0629 5.65734L9.71148 4.27734L9.65576 5.8202L10.0629 5.65734Z" fill="#AE6328"/>
<path d="M10.6072 5.64427L9.71582 4.26855L10.0501 5.65713L10.6072 5.64427Z" fill="#B76F3F"/>
<path d="M8.09582 5.94449L7.04153 6.99878C6.92582 7.11449 6.87867 7.28592 6.92582 7.44449L7.34153 8.87164C7.38439 9.02592 7.50439 9.14164 7.65867 9.18449L9.36867 9.61306L10.7058 8.21592L10.8472 8.59306L10.2558 9.19735L10.4144 9.73735C10.4572 9.89164 10.5858 10.0116 10.7444 10.0502L12.1801 10.3673C12.3258 10.4016 12.4801 10.3545 12.5915 10.2516L13.6372 9.21021C13.753 9.09449 13.8001 8.92735 13.7572 8.76878L13.3672 7.33735C13.3244 7.18306 13.2001 7.06306 13.0458 7.02021L11.6058 6.64735C11.4515 6.60449 11.2887 6.65164 11.1772 6.76735L9.96867 7.99735L9.69439 7.77449L10.423 7.08878L10.243 6.50592C10.2001 6.35592 10.0801 6.24021 9.9301 6.20164L8.52439 5.82878C8.3701 5.78592 8.20725 5.82878 8.09582 5.94449Z" fill="#8247E5"/>
<path d="M7.58594 7.35427L8.45594 6.47998L9.64308 6.79712L9.96022 7.99284L9.09022 8.86712L7.90737 8.5457L7.59022 7.35427H7.58594ZM10.6888 8.21141L11.5545 7.33712L12.7417 7.65855L13.0588 8.84998L12.1931 9.72427L11.0059 9.40712L10.6888 8.20712V8.21141Z" fill="black"/>
<path d="M7.83022 7.11426L7.58594 7.36283L8.35737 7.88569L8.13451 8.03997L9.18451 8.76854L9.44165 8.49426L8.71308 8.03997L8.94879 7.86426L7.83022 7.11426ZM10.9588 7.93711L10.7145 8.18997L11.4859 8.71283L11.2631 8.86712L12.3131 9.5914L12.5702 9.3214L11.8417 8.86712L12.0774 8.6914L10.9588 7.93711Z" fill="#C1C1C1"/>
<path d="M7.28573 15.4371C7.2846 15.3809 7.29456 15.3249 7.31505 15.2725C7.33555 15.22 7.36617 15.1722 7.40517 15.1316C7.44417 15.091 7.49079 15.0585 7.54236 15.0359C7.59393 15.0133 7.64945 15.0011 7.70573 15H16.2943C16.3506 15.0011 16.4061 15.0133 16.4577 15.0359C16.5092 15.0585 16.5559 15.091 16.5949 15.1316C16.6339 15.1722 16.6645 15.22 16.685 15.2725C16.7055 15.3249 16.7154 15.3809 16.7143 15.4371V19.2771C16.7154 19.3334 16.7055 19.3894 16.685 19.4418C16.6645 19.4942 16.6339 19.5421 16.5949 19.5827C16.5559 19.6233 16.5092 19.6558 16.4577 19.6784C16.4061 19.701 16.3506 19.7132 16.2943 19.7143H7.70573C7.64945 19.7132 7.59393 19.701 7.54236 19.6784C7.49079 19.6558 7.44417 19.6233 7.40517 19.5827C7.36617 19.5421 7.33555 19.4942 7.31505 19.4418C7.29456 19.3894 7.2846 19.3334 7.28573 19.2771V15.4371Z" fill="#D92F85"/>
<path fill-rule="evenodd" clip-rule="evenodd" d="M12.8573 15V18H13.5001V15H12.8573ZM10.0716 17.1429C10.0713 17.3169 10.0181 17.4867 9.91904 17.6297C9.81996 17.7727 9.6797 17.8822 9.51689 17.9436C9.35409 18.005 9.17645 18.0154 9.0076 17.9734C8.83874 17.9315 8.68666 17.8391 8.57157 17.7086V18.8571H7.92871V16.2857H8.57157V16.5771C8.68666 16.4466 8.83874 16.3543 9.0076 16.3123C9.17645 16.2703 9.35409 16.2807 9.51689 16.3421C9.6797 16.4035 9.81996 16.513 9.91904 16.656C10.0181 16.7991 10.0713 16.9689 10.0716 17.1429ZM8.57157 17.1429C8.57157 17.2565 8.61672 17.3655 8.69709 17.4459C8.77747 17.5263 8.88648 17.5714 9.00014 17.5714C9.1138 17.5714 9.22281 17.5263 9.30319 17.4459C9.38356 17.3655 9.42871 17.2565 9.42871 17.1429C9.42871 17.0292 9.38356 16.9202 9.30319 16.8398C9.22281 16.7594 9.1138 16.7143 9.00014 16.7143C8.88648 16.7143 8.77747 16.7594 8.69709 16.8398C8.61672 16.9202 8.57157 17.0292 8.57157 17.1429ZM11.3573 18C11.9487 18 12.4287 17.6143 12.4287 17.1429C12.4287 16.6714 11.9487 16.2857 11.3573 16.2857C10.7659 16.2857 10.2859 16.6714 10.2859 17.1429C10.2859 17.6143 10.7659 18 11.3573 18ZM11.3573 17.5714C11.4709 17.5714 11.58 17.5263 11.6603 17.4459C11.7407 17.3655 11.7859 17.2565 11.7859 17.1429C11.7859 17.0292 11.7407 16.9202 11.6603 16.8398C11.58 16.7594 11.4709 16.7143 11.3573 16.7143C11.2436 16.7143 11.1346 16.7594 11.0542 16.8398C10.9739 16.9202 10.9287 17.0292 10.9287 17.1429C10.9287 17.2565 10.9739 17.3655 11.0542 17.4459C11.1346 17.5263 11.2436 17.5714 11.3573 17.5714ZM14.4944 17.7514L13.7144 16.2857H14.3744L14.7987 17.1429L15.1973 16.2857H15.8573L14.5887 18.8571H13.9587L14.4944 17.7514ZM11.0573 19.2857C11.3401 19.2857 11.5716 19.0929 11.5716 18.8571C11.5716 18.6214 11.3401 18.4286 11.0573 18.4286C10.7744 18.4286 10.543 18.6214 10.543 18.8571C10.543 19.0929 10.7744 19.2857 11.0573 19.2857ZM11.0573 19.1314C11.1987 19.1314 11.3144 19.0071 11.3144 18.8571C11.3144 18.7071 11.1987 18.5829 11.0573 18.5829C10.9159 18.5829 10.8001 18.7071 10.8001 18.8571C10.8001 19.0071 10.9159 19.1314 11.0573 19.1314ZM9.60014 18.5743H9.42871V18.4286H9.97728C10.2387 18.4286 10.4487 18.6214 10.4487 18.8571C10.4487 19.0929 10.2387 19.2857 9.97728 19.2857H9.42871V19.1314H9.60014V18.5743ZM9.85728 19.1357H9.90014C10.0673 19.1357 10.2001 19.0071 10.2001 18.8529C10.199 18.8146 10.1904 18.7769 10.1747 18.742C10.159 18.707 10.1366 18.6755 10.1088 18.6493C10.0809 18.623 10.0481 18.6025 10.0123 18.5889C9.97654 18.5753 9.93841 18.5689 9.90014 18.57H9.85728V19.1357ZM12.7501 18.8571C12.7501 18.8871 12.7459 18.9171 12.7373 18.9429V18.99H12.7244C12.6559 19.1614 12.4587 19.2857 12.2273 19.2857C11.9401 19.2857 11.7044 19.0929 11.7044 18.8571C11.7044 18.6214 11.9401 18.4286 12.2273 18.4286C12.3087 18.4286 12.3859 18.4414 12.4501 18.4714V18.4586H12.6773V18.7371H12.4501V18.72C12.4287 18.6793 12.3967 18.6451 12.3575 18.621C12.3183 18.5968 12.2733 18.5837 12.2273 18.5829C12.0859 18.5829 11.9701 18.7071 11.9701 18.8571C11.9701 19.0071 12.0859 19.1314 12.2273 19.1314C12.2745 19.131 12.3206 19.1175 12.3607 19.0926C12.4008 19.0676 12.4332 19.0321 12.4544 18.99H12.2873V18.8571H12.7501ZM12.913 18.5914H13.0416V19.1357H12.913V19.2857H13.7144V19.0157H13.5644V19.1357H13.2859V18.9171H13.5087V18.7886H13.2859V18.5914H13.5644V18.7029H13.7144V18.4286H12.913V18.5914Z" fill="white"/>
<path d="M8.89279 10.8558L8.11279 10.1229L9.14565 9.92578L9.22279 10.3286L8.89279 10.8558Z" fill="#312F32"/>
<path d="M8.55427 9.55713L8.0957 10.1228L9.16285 9.93427L8.55427 9.55713Z" fill="#715421"/>
<path d="M8.51549 11.5459H8.08691V12.073L8.51549 11.5459Z" fill="#37321D"/>
</g>
<defs>
<linearGradient id="paint0_linear_31_16210" x1="12" y1="0" x2="12" y2="24" gradientUnits="userSpaceOnUse">
<stop stop-color="#CF2C82"/>
<stop offset="1" stop-color="#53065C"/>
</linearGradient>
<clipPath id="clip0_31_16210">
<rect width="24" height="24" fill="white"/>
</clipPath>
</defs>
</svg>
