<svg xmlns="http://www.w3.org/2000/svg" width="24" height="24" fill="none" viewBox="0 0 24 24"><g clip-path="url(#a)"><path fill="#337243" d="M0 0h24v24H0z"/><path fill="#FAC736" d="M8.927 11.614c1.384 1.149 3.729 1.989 4.723 2.268l1.2-.96c-.069-.086-.206-.3-.206-.485 0-.715.952-1.825.952-2.443 0-.617-.506-.942-.506-1.341s.15-.544.15-.896c0-.274-.913-1.174-1.367-1.585.128-.18.373-.613.373-.926 0-.386-.446-.913-.853-.913s-.78.321-.78.716c0 .313.257.69.386.84a5 5 0 0 0-1.132-.103c-.621 0-1.393.257-1.697.386.013-.069.043-.249.043-.463 0-.446-.514-.815-.9-.815-.382 0-.832.275-.832.892s.549.943.729 1.136c-.643.921-.283 3.934-.283 4.692"/><path fill="#E39F2E" d="M11.349 13.037c-.858-.386-1.753-.87-2.422-1.423 0-.154-.017-.403-.034-.707-.073-1.191-.193-3.253.317-3.986-.034-.038-.086-.081-.137-.128-.236-.202-.592-.51-.592-1.007 0-.202.048-.369.129-.497-.017.291.034.647.257.951.142.184.257.33.356.446.214.265.317.394.3.565-.03.253-.056 1.32.227 1.86 0 .099-.017.18-.039.275-.025.137-.06.3-.06.574 0 .459.202 1.56 1.698 3.077"/><path fill="#000" d="M13.393 4.384c-.386 0-.729.3-.729.664 0 .146.06.31.137.46.082.15.176.278.24.35a.05.05 0 0 1 0 .06.05.05 0 0 1-.051.018 4.8 4.8 0 0 0-1.123-.099c-.609 0-1.371.249-1.68.377a.05.05 0 0 1-.051-.008.05.05 0 0 1-.018-.048c.013-.06.043-.24.043-.45 0-.2-.115-.394-.287-.54-.171-.14-.386-.227-.557-.227a.8.8 0 0 0-.527.202c-.15.137-.257.347-.257.643 0 .291.128.518.283.694q.132.148.287.274l.146.133c.012.017.017.043 0 .06a2.4 2.4 0 0 0-.305.994c-.056.42-.073.905-.068 1.385.004.484.03.96.055 1.362 0 .073.009.146.013.215.017.291.03.531.03.685 1.372 1.128 3.66 1.955 4.663 2.238l1.144-.913a1 1 0 0 1-.103-.172.8.8 0 0 1-.085-.304c0-.188.064-.398.154-.617.09-.214.214-.441.33-.664l.026-.048c.111-.205.214-.407.3-.59.085-.202.141-.382.141-.524 0-.3-.12-.523-.244-.728l-.043-.065a3 3 0 0 1-.133-.235.7.7 0 0 1-.085-.313c0-.206.042-.347.077-.48l.004-.013a1.3 1.3 0 0 0 .073-.403.3.3 0 0 0-.039-.107 1.3 1.3 0 0 0-.103-.171 5 5 0 0 0-.36-.43 14 14 0 0 0-.853-.843.047.047 0 0 1-.008-.065c.064-.085.154-.235.231-.402a1.25 1.25 0 0 0 .133-.493c0-.18-.103-.395-.257-.57-.159-.172-.36-.292-.544-.292m-.832.664c0-.424.399-.762.832-.762.227 0 .45.141.617.325.171.185.287.425.287.635 0 .171-.069.364-.146.531a2.5 2.5 0 0 1-.214.386c.227.205.557.523.827.818.146.159.275.309.369.442.043.068.086.128.111.184a.3.3 0 0 1 .043.15c0 .176-.034.3-.069.429l-.004.012a1.5 1.5 0 0 0-.073.455q.001.135.073.27.076.152.172.296c.128.205.257.45.257.77 0 .172-.06.36-.15.567-.086.188-.193.39-.3.6l-.026.042c-.12.223-.24.446-.326.66-.085.215-.145.408-.145.58a.6.6 0 0 0 .072.256c.043.086.086.159.12.197a.05.05 0 0 1-.008.069l-1.2.96a.05.05 0 0 1-.043.008c-.998-.278-3.347-1.122-4.744-2.275a.05.05 0 0 1-.017-.039q-.024-.46-.043-.921a25 25 0 0 1-.056-1.363 10 10 0 0 1 .069-1.402c.051-.407.145-.762.3-1.002l-.107-.095-.052-.043a3 3 0 0 1-.248-.244 1.14 1.14 0 0 1-.31-.758c0-.322.12-.557.292-.716a.9.9 0 0 1 .596-.227c.206 0 .441.098.621.257.185.15.326.369.326.609 0 .154-.017.29-.03.38.352-.136 1.055-.35 1.629-.35.471 0 .818.042 1.016.072a2 2 0 0 1-.168-.257c-.081-.158-.15-.338-.15-.506"/><path fill="#49573E" d="M6.604 16.912A26 26 0 0 0 6 16.209a10.8 10.8 0 0 1 1.174-2.435c-.985 2.688.026 3.048.36 3.279a4 4 0 0 0-.93-.141m4.972 2.361c-1.286-1.136-1.946-3.339-2.117-4.299a8.9 8.9 0 0 0-.438 2.688l-.578.06c-.017.128.017.458.257.737 1.671.801 2.721.865 2.876.814"/><path fill="#FAC736" d="M8.503 17.443c.043.3.248.861.347 1.105a7.3 7.3 0 0 1-2.207-1.641c.617-.013 1.693.424 1.86.536"/><path fill="#49573E" d="M17.979 16.016c-.099-1.269-1.046-2.572-1.505-3.06.185 1.092.523 2.858.669 3.608l.758-.116c.026-.064.078-.235.078-.428z"/><path fill="#FAC736" d="M18.343 16.56c-.307.42-.684.784-1.114 1.076 0-.609-.108-.948-.108-1.076.189-.069.763-.407 1.029-.566.064.129.189.429.189.566z"/><path fill="#000" d="M10.179 6.116c.025.008.043.034.034.06a3 3 0 0 1-.159.445.05.05 0 0 1-.068.026.047.047 0 0 1-.022-.068c.073-.146.129-.343.155-.429.004-.021.034-.043.06-.034m2.794-.219c.008-.026.034-.043.06-.038l.36.081c.026.004.043.034.038.06a.05.05 0 0 1-.06.034l-.36-.081a.05.05 0 0 1-.038-.037zm2.378 6.244c.013-.025.043-.034.065-.021q.419.199.784.484a6.8 6.8 0 0 1 2.229 3.146.1.1 0 0 1-.013.047.3.3 0 0 1-.03.043l-.095.09c-.072.064-.18.141-.3.223-.244.158-.557.33-.822.45a.05.05 0 0 1-.043 0 .05.05 0 0 1-.03-.039c-.296-1.877-.767-3.368-.969-3.891a4.3 4.3 0 0 0-.766-.478.05.05 0 0 1-.01-.054m.926.656c.408 1.2.712 2.433.909 3.686a6.3 6.3 0 0 0 1.041-.626.7.7 0 0 0 .099-.103 6.74 6.74 0 0 0-2.049-2.957"/><path fill="#000" d="M8.927 11.117c.013.026.009.056-.017.068a7 7 0 0 0-.364.24.052.052 0 0 1-.088-.028.05.05 0 0 1 .01-.036q.184-.146.39-.257a.05.05 0 0 1 .07.013m6.022.351a.05.05 0 0 1 .072 0c.065.082.163.215.245.36.085.146.15.313.15.468 0 .514-.356.942-.755 1.242q-.279.21-.6.352c-.188.081-.355.128-.462.128a7.6 7.6 0 0 1-2.229-.591c-.754-.3-1.436-.643-1.817-.844-.6-.322-1.037-.292-1.17-.245a.05.05 0 0 1-.064-.025.05.05 0 0 1 .012-.055.1.1 0 0 1 .018-.01c.167-.06.634-.081 1.251.249q.878.466 1.8.84c.75.3 1.56.553 2.199.583.085 0 .24-.043.42-.12.184-.077.385-.193.582-.343.386-.292.716-.694.716-1.162 0-.128-.06-.278-.137-.424a2 2 0 0 0-.236-.334.047.047 0 0 1 .005-.069m3.291 3.96c.022.022.022.052 0 .069a.9.9 0 0 1-.218.167 9 9 0 0 1-.952.45.05.05 0 0 1-.069-.044.05.05 0 0 1 .03-.046q.48-.196.935-.446a.8.8 0 0 0 .201-.145.05.05 0 0 1 .037-.015.05.05 0 0 1 .036.015zm-9.248 1.723a5.3 5.3 0 0 0-2.855-.754.05.05 0 0 1-.055-.043c0-.03.021-.051.047-.056.527-.03 1.843.086 2.914.772.026.017.03.043.017.068a.05.05 0 0 1-.068.013"/><path fill="#49573E" d="M11.391 13.389c-.998-.197-2.991-.172-3.865-.137.177-.397.468-.732.835-.965-.055-.013-.171-.09-.171-.308 0-.274.33-.694.45-.587.398 1.058 3.086 1.98 4.38 2.305a12 12 0 0 0-1.629-.308"/><path fill="#000" d="M7.517 13.157a.053.053 0 0 1 .064-.03 2.95 2.95 0 0 1 1.847 1.992.05.05 0 0 1-.02.036.052.052 0 0 1-.079-.026 2.85 2.85 0 0 0-1.795-1.916.05.05 0 0 1-.017-.051z"/><path fill="#000" d="M7.697 12.883a.05.05 0 0 1 .064-.03c.262.094.66.304 1.016.643.401.366.663.86.742 1.397 0 .025-.018.051-.043.055a.05.05 0 0 1-.04-.008.05.05 0 0 1-.02-.034 2.25 2.25 0 0 0-.712-1.342 2.9 2.9 0 0 0-.977-.617.047.047 0 0 1-.03-.064m6.296-3.386c-.626 0-.883.343-.93.514 0 .36.561.678.835.678.275 0 .635-.61.635-.82 0-.213-.266-.372-.54-.372m-.412 2.254a.05.05 0 0 1 0 .069c-.06.06-.138.1-.223.111a.5.5 0 0 1-.22 0 .05.05 0 0 1-.023-.031.1.1 0 0 1 0-.02c0-.026.03-.043.055-.043a.5.5 0 0 0 .171 0 .3.3 0 0 0 .172-.086.05.05 0 0 1 .068 0m-1.778-.964a.8.8 0 0 0-.129.176.05.05 0 0 1-.064.026l-.016-.01a.05.05 0 0 1-.01-.055.8.8 0 0 1 .146-.205c.069-.07.159-.13.27-.12.026 0 .047.02.043.05 0 .027-.022.044-.047.044a.27.27 0 0 0-.193.094"/><path fill="#000" d="M13.38 9.176c0-.026.026-.047.056-.043.3.013.638.047.9.158.137.06.257.138.338.24a.6.6 0 0 1 .133.399c.004.361-.081.717-.248 1.037a1.09 1.09 0 0 1-.986.587c-.39 0-.767-.141-1.08-.313a3.2 3.2 0 0 1-.699-.514.05.05 0 0 1-.01-.053l.01-.015a.05.05 0 0 1 .069 0c.129.128.377.334.681.497.3.171.665.3 1.029.3a.99.99 0 0 0 .9-.536c.171-.309.236-.694.236-.99a.54.54 0 0 0-.112-.339.8.8 0 0 0-.3-.21c-.28-.099-.573-.15-.87-.154a.05.05 0 0 1-.043-.051z"/><path fill="#000" d="M13.899 10.586c.03-.005.055.017.055.043.018.184-.043.625-.398.904a.05.05 0 0 1-.038.01.05.05 0 0 1-.035-.019.046.046 0 0 1-.01-.036.05.05 0 0 1 .018-.032c.326-.253.378-.652.365-.819 0-.026.017-.051.043-.056zM11.944 9.11c0 .16-.085.288-.193.288-.107 0-.192-.129-.192-.288 0-.162.085-.29.193-.29.107 0 .192.128.192.29m2.696-.38c0 .162-.086.29-.193.29s-.193-.128-.193-.29c0-.16.086-.288.193-.288s.193.128.193.287m-2.743-.995c-.308.055-.66.394-.694.415 0-.214.446-.56.574-.565.129-.009.12.12.12.15m2.405-.129c.222-.038.514.099.54.103-.03-.129-.386-.257-.476-.227-.095.026-.069.103-.064.124m-7.745 9.266c0-.026.026-.043.056-.043a7.1 7.1 0 0 1 2.421.754c.022.013.03.043.017.069a.05.05 0 0 1-.068.017A7 7 0 0 0 6.6 16.93a.05.05 0 0 1-.034-.019.05.05 0 0 1-.009-.037"/><path fill="#FAC736" d="M15.6 16.5a1.31 1.31 0 0 1-1.329 1.294 1.31 1.31 0 0 1-1.32-1.294 1.31 1.31 0 0 1 1.32-1.294c.733 0 1.329.578 1.329 1.294"/><path fill="#000" d="M11.237 12.977a.103.103 0 0 1 .137.043c.18.33.485.857.836 1.393.318.507.698.972 1.131 1.384a.096.096 0 0 1 .01.137c-.035.043-.1.043-.142.009a7.4 7.4 0 0 1-1.166-1.423q-.452-.69-.844-1.414a.1.1 0 0 1 .043-.129zm.09.064a.05.05 0 0 0-.064-.02.05.05 0 0 0-.024.027.05.05 0 0 0 .002.036c.18.335.485.87.845 1.406a7.3 7.3 0 0 0 1.157 1.414c.021.022.051.022.069 0a.05.05 0 0 0 .014-.034l-.004-.019-.01-.015a7.2 7.2 0 0 1-1.145-1.397q-.45-.681-.84-1.398m3.596 2.653a.1.1 0 0 1-.053-.095.1.1 0 0 1 .01-.037c.223-.42.3-1.02.304-1.608 0-.587-.068-1.148-.137-1.482a.1.1 0 0 1 .045-.102.1.1 0 0 1 .037-.014c.051-.009.107.026.115.077.069.347.142.921.142 1.521s-.082 1.235-.326 1.697a.103.103 0 0 1-.137.043m.274-3.248a.05.05 0 0 0-.02-.034.05.05 0 0 0-.04-.01.05.05 0 0 0-.044.04.1.1 0 0 0 .001.02c.069.34.142.9.142 1.492a3.7 3.7 0 0 1-.309 1.629c-.013.026-.004.051.022.064.021.013.055.005.068-.021.236-.45.313-1.076.317-1.672a8.3 8.3 0 0 0-.137-1.508"/><path fill="#000" fill-rule="evenodd" d="m13.282 16.504.038.172a.4.4 0 0 0 .09-.043.1.1 0 0 0 .039-.043v-.043c-.018-.038-.047-.051-.086-.051a.3.3 0 0 0-.086.008zm.06.27a.5.5 0 0 0 .128-.068.2.2 0 0 0 .073-.086.14.14 0 0 0-.004-.116.19.19 0 0 0-.172-.107.4.4 0 0 0-.167.034l-.034.018.107.462.094-.021zm.565-.124a.12.12 0 0 0 .096-.024.115.115 0 0 0-.096-.203.115.115 0 0 0-.116.111c0 .065.052.116.116.116m0 .094a.214.214 0 0 0 .214-.21.214.214 0 1 0-.214.215zm.622-.223c.068 0 .12-.051.12-.115a.116.116 0 0 0-.196-.08.12.12 0 0 0-.036.08c0 .064.052.115.116.115zm0 .095a.213.213 0 0 0 .218-.21.214.214 0 1 0-.214.214z" clip-rule="evenodd"/><path fill="#000" d="m15.223 16.2-.039-.189.099-.017.047.232.051.231-.098.021-.043-.18-.231.069.042.189-.098.021-.107-.467.098-.022.043.185.236-.069z"/></g><defs><clipPath id="a"><path fill="#fff" d="M0 0h24v24H0z"/></clipPath></defs></svg>