<svg width="24" height="24" viewBox="0 0 24 24" fill="none" xmlns="http://www.w3.org/2000/svg">
<g clip-path="url(#clip0_31_16318)">
<path d="M0 0H24V24H0V0Z" fill="#337243"/>
<path d="M8.92716 11.6144C10.3114 12.763 12.6557 13.603 13.65 13.8816L14.85 12.9216C14.7814 12.8359 14.6443 12.6216 14.6443 12.4373C14.6443 11.7216 15.5957 10.6116 15.5957 9.99444C15.5957 9.37729 15.09 9.05158 15.09 8.65301C15.09 8.25444 15.24 8.10872 15.24 7.75729C15.24 7.48301 14.3272 6.58301 13.8729 6.17158C14.0014 5.99158 14.2457 5.55872 14.2457 5.24586C14.2457 4.86015 13.8 4.33301 13.3929 4.33301C12.9857 4.33301 12.6129 4.65444 12.6129 5.04872C12.6129 5.36158 12.87 5.73872 12.9986 5.88872C12.6267 5.81055 12.247 5.77604 11.8672 5.78587C11.2457 5.78587 10.4743 6.04301 10.17 6.17158C10.1829 6.10301 10.2129 5.92301 10.2129 5.70872C10.2129 5.26301 9.69859 4.89444 9.31287 4.89444C8.93144 4.89444 8.48145 5.16872 8.48145 5.78587C8.48145 6.40301 9.03002 6.72872 9.21002 6.92158C8.56716 7.84301 8.92716 10.8559 8.92716 11.6144Z" fill="#FAC736"/>
<path d="M11.3486 13.0371C10.4914 12.6514 9.59573 12.1671 8.92716 11.6143C8.92716 11.46 8.91002 11.2114 8.89287 10.9071C8.82002 9.71572 8.70002 7.65429 9.21002 6.92143C9.17573 6.88286 9.1243 6.84 9.07287 6.79286C8.83716 6.59143 8.48145 6.28286 8.48145 5.78572C8.48145 5.58429 8.52859 5.41715 8.61002 5.28857C8.59287 5.58 8.6443 5.93572 8.86716 6.24C9.00859 6.42429 9.1243 6.57 9.22287 6.68572C9.43716 6.95143 9.54002 7.08 9.52287 7.25143C9.49287 7.50429 9.46716 8.57143 9.75002 9.11143C9.75002 9.21 9.73287 9.29143 9.71144 9.38572C9.68573 9.52286 9.65145 9.68572 9.65145 9.96C9.65145 10.4186 9.85287 11.52 11.3486 13.0371Z" fill="#E39F2E"/>
<path d="M13.3928 4.38422C13.0071 4.38422 12.6642 4.68422 12.6642 5.0485C12.6642 5.19422 12.7242 5.35707 12.8014 5.50707C12.8828 5.65707 12.9771 5.78564 13.0414 5.8585C13.0542 5.87564 13.0542 5.90136 13.0414 5.9185C13.0352 5.92586 13.0272 5.93137 13.0181 5.9344C13.009 5.93743 12.9992 5.93786 12.9899 5.93564C12.6208 5.85919 12.2439 5.82611 11.8671 5.83707C11.2585 5.83707 10.4956 6.08564 10.1871 6.21422C10.1785 6.2175 10.1692 6.21844 10.1602 6.21693C10.1512 6.21542 10.1427 6.21153 10.1356 6.20564C10.1286 6.2002 10.1233 6.19288 10.1203 6.18454C10.1173 6.1762 10.1166 6.16718 10.1185 6.1585C10.1314 6.0985 10.1614 5.9185 10.1614 5.7085C10.1614 5.50707 10.0456 5.31422 9.87422 5.1685C9.70279 5.02707 9.4885 4.94136 9.31707 4.94136C9.13707 4.94136 8.93993 5.00564 8.78993 5.14279C8.63993 5.27993 8.53279 5.48993 8.53279 5.78564C8.53279 6.07707 8.66136 6.30422 8.81565 6.47993C8.90383 6.57893 8.99985 6.67066 9.10279 6.75422L9.2485 6.88707C9.26136 6.90422 9.26565 6.92993 9.2485 6.94707C9.07446 7.25178 8.97051 7.59144 8.94422 7.94136C8.8885 8.36136 8.87136 8.84564 8.87565 9.32564C8.87993 9.80993 8.90565 10.2856 8.93136 10.6885C8.93136 10.7614 8.93993 10.8342 8.94422 10.9028C8.96136 11.1942 8.97422 11.4342 8.97422 11.5885C10.3456 12.7156 12.6342 13.5428 13.6371 13.8256L14.7814 12.9128C14.7471 12.8699 14.7085 12.8056 14.6785 12.7414C14.6356 12.6471 14.5928 12.5399 14.5928 12.4371C14.5928 12.2485 14.6571 12.0385 14.7471 11.8199C14.8371 11.6056 14.9614 11.3785 15.0771 11.1556L15.1028 11.1085C15.2142 10.9028 15.3171 10.7014 15.4028 10.5171C15.4885 10.3156 15.5442 10.1356 15.5442 9.99422C15.5442 9.69422 15.4242 9.47136 15.2999 9.26564L15.2571 9.20136C15.2092 9.12489 15.1648 9.04623 15.1242 8.96564C15.0728 8.86707 15.0385 8.76422 15.0385 8.65279C15.0385 8.44707 15.0814 8.30564 15.1156 8.17279L15.1199 8.15993C15.1585 8.03564 15.1928 7.91993 15.1928 7.75707C15.1876 7.71905 15.1744 7.68255 15.1542 7.64993C15.1244 7.59025 15.09 7.53294 15.0514 7.4785C14.9614 7.34993 14.8328 7.20422 14.6914 7.04993C14.4191 6.75659 14.1346 6.47491 13.8385 6.20564C13.8291 6.19806 13.823 6.18717 13.8214 6.17521C13.8198 6.16325 13.8229 6.15114 13.8299 6.14136C13.8942 6.05564 13.9842 5.90564 14.0614 5.7385C14.1385 5.57136 14.1942 5.39564 14.1942 5.24564C14.1942 5.06564 14.0914 4.85136 13.9371 4.67564C13.7785 4.50422 13.5771 4.38422 13.3928 4.38422ZM12.5614 5.0485C12.5614 4.62422 12.9599 4.28564 13.3928 4.28564C13.6199 4.28564 13.8428 4.42707 14.0099 4.61136C14.1814 4.79564 14.2971 5.03564 14.2971 5.24564C14.2971 5.41707 14.2285 5.60993 14.1514 5.77707C14.0828 5.93136 14.0014 6.0685 13.9371 6.16279C14.1642 6.3685 14.4942 6.68564 14.7642 6.98136C14.9099 7.13993 15.0385 7.28993 15.1328 7.42279C15.1756 7.49136 15.2185 7.55136 15.2442 7.60707C15.2742 7.6585 15.2871 7.71422 15.2871 7.75707C15.2871 7.93279 15.2528 8.05707 15.2185 8.18564L15.2142 8.1985C15.1756 8.32707 15.1414 8.45993 15.1414 8.65279C15.1414 8.74279 15.1671 8.83279 15.2142 8.92279C15.2653 9.02477 15.3225 9.12353 15.3856 9.2185C15.5142 9.42422 15.6428 9.6685 15.6428 9.98993C15.6428 10.1614 15.5828 10.3499 15.4928 10.5556C15.4071 10.7442 15.2999 10.9456 15.1928 11.1556L15.1671 11.1985C15.0471 11.4214 14.9271 11.6442 14.8414 11.8585C14.7556 12.0728 14.6956 12.2656 14.6956 12.4371C14.6956 12.5185 14.7256 12.6085 14.7685 12.6942C14.8114 12.7799 14.8542 12.8528 14.8885 12.8914C14.9056 12.9128 14.9014 12.9428 14.8799 12.9599L13.6799 13.9199C13.6739 13.9244 13.6669 13.9275 13.6595 13.929C13.6521 13.9305 13.6444 13.9303 13.6371 13.9285C12.6385 13.6499 10.2899 12.8056 8.89279 11.6528C8.88713 11.6481 8.88263 11.6422 8.87966 11.6355C8.87668 11.6288 8.87531 11.6215 8.87565 11.6142C8.86021 11.3071 8.84592 11 8.83279 10.6928C8.80707 10.2899 8.78136 9.80993 8.77707 9.32993C8.77279 8.84564 8.78565 8.35707 8.84565 7.9285C8.89707 7.52136 8.99136 7.16564 9.14565 6.92564C9.1107 6.89335 9.07498 6.86191 9.0385 6.83136L8.98707 6.7885C8.89879 6.71279 8.81574 6.63117 8.7385 6.54422C8.54489 6.33853 8.43487 6.06808 8.42993 5.78564C8.42993 5.46422 8.54993 5.2285 8.72136 5.06993C8.89279 4.91564 9.11136 4.84279 9.31707 4.84279C9.52279 4.84279 9.7585 4.94136 9.9385 5.09993C10.1228 5.24993 10.2642 5.4685 10.2642 5.7085C10.2642 5.86279 10.2471 5.99993 10.2342 6.08993C10.5856 5.95279 11.2885 5.7385 11.8628 5.7385C12.3342 5.7385 12.6814 5.78136 12.8785 5.81136C12.8169 5.72964 12.761 5.64372 12.7114 5.55422C12.6299 5.39564 12.5614 5.21564 12.5614 5.0485Z" fill="black"/>
<path d="M6.60429 16.9116C6.46286 16.7358 6.14143 16.3673 6 16.2087C6.28825 15.3514 6.68275 14.5336 7.17429 13.7744C6.18857 16.4616 7.2 16.8216 7.53429 17.053C7.20857 16.9673 6.84857 16.9116 6.60429 16.9116ZM11.5757 19.273C10.29 18.1373 9.63 15.9344 9.45857 14.9744C9.1756 15.8423 9.02815 16.7487 9.02143 17.6616L8.44286 17.7216C8.42571 17.8501 8.46 18.1801 8.7 18.4587C10.3714 19.2601 11.4214 19.3244 11.5757 19.273Z" fill="#49573E"/>
<path d="M8.50282 17.4427C8.54568 17.7427 8.75139 18.3042 8.84996 18.5484C8.01719 18.1456 7.26827 17.5886 6.64282 16.907C7.25997 16.8942 8.33568 17.3313 8.50282 17.4427Z" fill="#FAC736"/>
<path d="M17.9787 16.0156C17.8801 14.747 16.9329 13.4441 16.4744 12.9556C16.6587 14.0484 16.9972 15.8141 17.1429 16.5641L17.9015 16.4484C17.9272 16.3841 17.9787 16.2127 17.9787 16.0199V16.0156Z" fill="#49573E"/>
<path d="M18.3428 16.5599C18.0363 16.9801 17.6593 17.3441 17.2285 17.6356C17.2285 17.027 17.1213 16.6884 17.1213 16.5599C17.3099 16.4913 17.8842 16.1527 18.1499 15.9941C18.2142 16.1227 18.3385 16.4227 18.3385 16.5599H18.3428Z" fill="#FAC736"/>
<path d="M10.1786 6.11571C10.2043 6.12428 10.2215 6.14999 10.2129 6.17571C10.1915 6.26142 10.1272 6.46714 10.0543 6.62142C10.0515 6.62765 10.0476 6.63325 10.0426 6.63792C10.0376 6.64259 10.0318 6.64623 10.0254 6.64862C10.019 6.65101 10.0122 6.65212 10.0054 6.65186C9.99862 6.65161 9.99193 6.65 9.98575 6.64714C9.97946 6.64447 9.97382 6.64046 9.96924 6.6354C9.96465 6.63033 9.96122 6.62433 9.95918 6.61781C9.95714 6.61128 9.95654 6.6044 9.95743 6.59762C9.95832 6.59085 9.96067 6.58434 9.96432 6.57857C10.0372 6.43285 10.0929 6.23571 10.1186 6.15C10.1229 6.12857 10.1529 6.10714 10.1786 6.11571ZM12.9729 5.89714C12.9815 5.87142 13.0072 5.85428 13.0329 5.85857L13.3929 5.93999C13.4186 5.94428 13.4357 5.97428 13.4315 6C13.4275 6.01214 13.4192 6.02238 13.4081 6.02872C13.397 6.03505 13.3839 6.03704 13.3715 6.03428L13.0115 5.95285C13.0052 5.95182 12.9993 5.94955 12.9939 5.94617C12.9886 5.94279 12.984 5.93837 12.9804 5.93317C12.9768 5.92797 12.9743 5.9221 12.973 5.91591C12.9717 5.90972 12.9717 5.90334 12.9729 5.89714ZM15.3515 12.1414C15.3643 12.1157 15.3943 12.1071 15.4157 12.12C15.6945 12.2515 15.9576 12.414 16.2 12.6043C17.2304 13.4163 18.0042 14.5087 18.4286 15.75C18.4286 15.7671 18.4243 15.7843 18.4157 15.7971C18.4073 15.8124 18.3972 15.8268 18.3857 15.84L18.2915 15.93C18.2186 15.9943 18.1115 16.0714 17.9915 16.1529C17.7472 16.3114 17.4343 16.4829 17.1686 16.6029C17.1619 16.6059 17.1546 16.6075 17.1472 16.6075C17.1398 16.6075 17.1325 16.6059 17.1257 16.6029C17.1177 16.5998 17.1106 16.5946 17.1054 16.5878C17.1001 16.581 17.0967 16.5728 17.0957 16.5643C16.8 14.6871 16.3286 13.1957 16.1272 12.6729C15.8272 12.45 15.57 12.2914 15.3772 12.2057C15.3711 12.2034 15.3656 12.1998 15.3609 12.1953C15.3563 12.1907 15.3527 12.1852 15.3503 12.1792C15.3478 12.1732 15.3467 12.1667 15.3469 12.1602C15.3471 12.1537 15.3487 12.1473 15.3515 12.1414ZM16.2772 12.7971C16.6852 13.9974 16.9891 15.2305 17.1857 16.4829C17.5521 16.3082 17.9009 16.0986 18.2272 15.8571C18.2635 15.8264 18.2965 15.7919 18.3257 15.7543C17.9235 14.6011 17.2154 13.579 16.2772 12.7971Z" fill="black"/>
<path d="M8.92726 11.1169C8.94011 11.1426 8.93583 11.1726 8.91011 11.1855C8.78615 11.2616 8.66466 11.3416 8.54583 11.4255C8.53694 11.4345 8.52502 11.44 8.51236 11.4408C8.49971 11.4415 8.48721 11.4376 8.47726 11.4298C8.47199 11.426 8.46757 11.4211 8.46426 11.4156C8.46094 11.41 8.45882 11.4038 8.45802 11.3973C8.45721 11.3909 8.45774 11.3844 8.45958 11.3782C8.46142 11.3719 8.46452 11.3662 8.46869 11.3612C8.59082 11.2641 8.72133 11.1781 8.85869 11.104C8.86964 11.0972 8.88278 11.0947 8.89549 11.0971C8.90819 11.0995 8.91954 11.1065 8.92726 11.1169ZM14.9487 11.4683C14.9535 11.4635 14.9591 11.4597 14.9654 11.4571C14.9716 11.4545 14.9783 11.4532 14.9851 11.4532C14.9919 11.4532 14.9986 11.4545 15.0048 11.4571C15.0111 11.4597 15.0168 11.4635 15.0215 11.4683C15.0858 11.5498 15.1844 11.6826 15.2658 11.8283C15.3515 11.974 15.4158 12.1412 15.4158 12.2955C15.4158 12.8098 15.0601 13.2383 14.6615 13.5383C14.4756 13.678 14.2743 13.7959 14.0615 13.8898C13.873 13.9712 13.7058 14.0183 13.5987 14.0183C12.8301 13.9355 12.0786 13.7361 11.3701 13.4269C10.6158 13.1269 9.9344 12.784 9.55297 12.5826C8.95297 12.2612 8.51583 12.2912 8.38297 12.3383C8.37098 12.3428 8.35774 12.3427 8.34585 12.3379C8.33396 12.3332 8.32428 12.3241 8.31869 12.3126C8.31598 12.3065 8.31461 12.2998 8.31469 12.2931C8.31476 12.2864 8.31626 12.2798 8.31911 12.2737C8.32195 12.2676 8.32606 12.2622 8.33116 12.2578C8.33626 12.2534 8.34223 12.2502 8.34869 12.2483C8.51583 12.1883 8.98297 12.1669 9.60011 12.4969C10.1852 12.8079 10.786 13.0883 11.4001 13.3369C12.1501 13.6369 12.9601 13.8898 13.5987 13.9198C13.6844 13.9198 13.8387 13.8769 14.0187 13.7998C14.203 13.7226 14.4044 13.6069 14.6015 13.4569C14.9873 13.1655 15.3173 12.7626 15.3173 12.2955C15.3173 12.1669 15.2573 12.0169 15.1801 11.8712C15.103 11.734 15.0087 11.6055 14.9444 11.5369C14.94 11.5322 14.9366 11.5267 14.9344 11.5206C14.9322 11.5146 14.9313 11.5081 14.9317 11.5017C14.9321 11.4953 14.9338 11.489 14.9367 11.4833C14.9397 11.4775 14.9437 11.4724 14.9487 11.4683ZM18.2401 15.4283C18.2615 15.4498 18.2615 15.4798 18.2401 15.4969C18.1973 15.5526 18.1115 15.6083 18.0215 15.664C17.7134 15.8323 17.3957 15.9826 17.0701 16.114C17.0581 16.1185 17.0449 16.1184 17.033 16.1136C17.0211 16.1089 17.0114 16.0999 17.0058 16.0883C17.003 16.0825 17.0015 16.0761 17.0013 16.0696C17.0011 16.0631 17.0022 16.0566 17.0046 16.0506C17.007 16.0445 17.0107 16.0391 17.0153 16.0345C17.0199 16.0299 17.0255 16.0264 17.0315 16.024C17.3513 15.8936 17.6632 15.7448 17.9658 15.5783C18.0601 15.5269 18.1287 15.4755 18.1673 15.4326C18.172 15.4278 18.1777 15.424 18.184 15.4214C18.1902 15.4188 18.1969 15.4175 18.2037 15.4175C18.2105 15.4175 18.2172 15.4188 18.2234 15.4214C18.2297 15.424 18.2353 15.4278 18.2401 15.4326V15.4283ZM8.99154 17.1512C8.13063 16.6348 7.14089 16.3732 6.13726 16.3969C6.12427 16.3982 6.11128 16.3944 6.10094 16.3865C6.09059 16.3785 6.08366 16.3669 6.08154 16.354C6.08154 16.324 6.10297 16.3026 6.12869 16.2983C6.65583 16.2683 7.97154 16.3841 9.04297 17.0698C9.06869 17.0869 9.07297 17.1126 9.06011 17.1383C9.05239 17.1487 9.04105 17.1558 9.02834 17.1582C9.01563 17.1606 9.0025 17.1581 8.99154 17.1512Z" fill="black"/>
<path d="M11.3913 13.3888C10.3928 13.1916 8.39992 13.2173 7.52563 13.2516C7.70341 12.8551 7.99408 12.5197 8.36135 12.2873C8.30564 12.2745 8.18992 12.1973 8.18992 11.9788C8.18992 11.7045 8.51992 11.2845 8.63992 11.3916C9.03849 12.4502 11.7256 13.3716 13.0199 13.6973C12.4851 13.5558 11.9409 13.4527 11.3913 13.3888Z" fill="#49573E"/>
<path d="M7.51705 13.1573C7.52562 13.1358 7.55133 13.1187 7.58133 13.1273C8.02325 13.2855 8.42101 13.5469 8.74154 13.8898C9.06207 14.2327 9.2961 14.6471 9.42419 15.0987C9.42686 15.1051 9.42807 15.1121 9.42773 15.119C9.42739 15.126 9.42552 15.1328 9.42224 15.1389C9.41896 15.1451 9.41436 15.1504 9.40877 15.1546C9.40318 15.1587 9.39674 15.1616 9.3899 15.163C9.37743 15.1657 9.36438 15.1637 9.35329 15.1574C9.3422 15.1511 9.33386 15.1408 9.3299 15.1287C9.20659 14.6922 8.98088 14.2915 8.67154 13.9598C8.3622 13.6281 7.97816 13.375 7.55133 13.2215C7.54502 13.2201 7.53907 13.2173 7.53387 13.2134C7.52867 13.2096 7.52432 13.2046 7.5211 13.199C7.51789 13.1934 7.51586 13.1872 7.51517 13.1807C7.51447 13.1743 7.51511 13.1677 7.51705 13.1615V13.1573Z" fill="black"/>
<path d="M7.69712 12.8828C7.70193 12.8705 7.71129 12.8605 7.72326 12.8549C7.73523 12.8493 7.74889 12.8486 7.7614 12.8528C8.02283 12.9471 8.4214 13.1571 8.77712 13.4956C9.17837 13.8616 9.44038 14.3554 9.51855 14.8928C9.51855 14.9185 9.5014 14.9442 9.47569 14.9485C9.46893 14.9497 9.46198 14.9496 9.45528 14.9481C9.44857 14.9466 9.44223 14.9437 9.43664 14.9397C9.43104 14.9357 9.42631 14.9307 9.42271 14.9248C9.41911 14.919 9.41672 14.9124 9.41569 14.9056C9.34114 14.3896 9.08967 13.9154 8.70426 13.5642C8.42301 13.2953 8.09077 13.0855 7.72712 12.9471C7.72067 12.9452 7.71469 12.942 7.70959 12.9376C7.70449 12.9332 7.70038 12.9278 7.69754 12.9217C7.6947 12.9156 7.69319 12.909 7.69312 12.9023C7.69305 12.8956 7.69441 12.8889 7.69712 12.8828ZM13.9928 9.49707C13.3671 9.49707 13.11 9.83993 13.0628 10.0114C13.0628 10.3714 13.6243 10.6885 13.8985 10.6885C14.1728 10.6885 14.5328 10.0799 14.5328 9.86993C14.5328 9.65564 14.2671 9.49707 13.9928 9.49707ZM13.5814 11.7514C13.5985 11.7685 13.6028 11.7985 13.5814 11.8199C13.5211 11.8802 13.4429 11.9193 13.3585 11.9314C13.2771 11.9485 13.2043 11.9442 13.1571 11.9356C13.1505 11.9352 13.1441 11.9333 13.1382 11.9301C13.1324 11.927 13.1273 11.9226 13.1232 11.9174C13.1192 11.9121 13.1163 11.9061 13.1147 11.8996C13.1132 11.8932 13.113 11.8864 13.1143 11.8799C13.1143 11.8542 13.1443 11.8371 13.17 11.8371C13.2128 11.8456 13.2728 11.8499 13.3414 11.8371C13.4064 11.828 13.4666 11.7979 13.5128 11.7514C13.5223 11.7429 13.5345 11.7383 13.5471 11.7383C13.5598 11.7383 13.572 11.7429 13.5814 11.7514ZM11.8028 10.7871C11.7428 10.8471 11.7 10.9156 11.6743 10.9628C11.6687 10.9743 11.659 10.9833 11.6471 10.9881C11.6352 10.9928 11.622 10.993 11.61 10.9885C11.6039 10.9862 11.5984 10.9826 11.5937 10.9781C11.5891 10.9735 11.5855 10.968 11.5831 10.962C11.5806 10.9559 11.5795 10.9495 11.5797 10.943C11.5799 10.9365 11.5815 10.9301 11.5843 10.9242C11.61 10.8685 11.6614 10.7871 11.73 10.7185C11.7985 10.6499 11.8885 10.5899 12 10.5985C12.0257 10.5985 12.0471 10.6199 12.0428 10.6499C12.0428 10.6756 12.0214 10.6928 11.9957 10.6928C11.9271 10.6928 11.8585 10.7271 11.8028 10.7871Z" fill="black"/>
<path d="M13.38 9.17573C13.38 9.15002 13.4058 9.12859 13.4358 9.13287C13.7358 9.14573 14.0743 9.18002 14.3358 9.29144C14.4729 9.35144 14.5929 9.42859 14.6743 9.53144C14.76 9.63859 14.8072 9.76716 14.8072 9.93002C14.8112 10.291 14.7258 10.6473 14.5586 10.9672C14.4657 11.1474 14.324 11.298 14.1498 11.4018C13.9755 11.5056 13.7757 11.5584 13.5729 11.5543C13.1829 11.5543 12.8058 11.4129 12.4929 11.2414C12.238 11.1022 12.003 10.9292 11.7943 10.7272C11.7897 10.7228 11.7859 10.7174 11.7834 10.7115C11.7809 10.7056 11.7795 10.6993 11.7795 10.6929C11.7795 10.6865 11.7809 10.6801 11.7834 10.6742C11.7859 10.6683 11.7897 10.663 11.7943 10.6586C11.8038 10.6502 11.816 10.6455 11.8286 10.6455C11.8413 10.6455 11.8535 10.6502 11.8629 10.6586C11.9915 10.7872 12.24 10.9929 12.5443 11.1557C12.8443 11.3272 13.2086 11.4557 13.5729 11.4557C13.7581 11.46 13.9408 11.412 14.0999 11.3173C14.2591 11.2225 14.3884 11.0849 14.4729 10.92C14.6443 10.6114 14.7086 10.2257 14.7086 9.93002C14.7086 9.78859 14.6658 9.68144 14.5972 9.59144C14.5243 9.50573 14.4258 9.43716 14.2972 9.38144C14.0177 9.28229 13.7237 9.23015 13.4272 9.22716C13.4151 9.22511 13.4041 9.2188 13.3962 9.20937C13.3884 9.19994 13.3842 9.18801 13.3843 9.17573H13.38Z" fill="black"/>
<path d="M13.8986 10.5858C13.9286 10.5815 13.9544 10.6029 13.9544 10.6286C13.9715 10.8129 13.9115 11.2543 13.5558 11.5329C13.5505 11.5372 13.5443 11.5404 13.5378 11.5423C13.5312 11.5441 13.5243 11.5447 13.5176 11.5439C13.5108 11.5431 13.5042 11.541 13.4983 11.5376C13.4923 11.5343 13.4871 11.5297 13.4829 11.5243C13.4788 11.5194 13.4757 11.5136 13.4738 11.5074C13.472 11.5012 13.4714 11.4946 13.4723 11.4882C13.4731 11.4818 13.4752 11.4756 13.4785 11.47C13.4818 11.4644 13.4862 11.4596 13.4915 11.4558C13.8172 11.2029 13.8686 10.8043 13.8558 10.6372C13.8558 10.6115 13.8729 10.5858 13.8986 10.5815V10.5858ZM11.9443 9.11149C11.9443 9.27006 11.8586 9.39863 11.7515 9.39863C11.6443 9.39863 11.5586 9.27006 11.5586 9.11149C11.5586 8.94863 11.6443 8.82006 11.7515 8.82006C11.8586 8.82006 11.9443 8.94863 11.9443 9.11149ZM14.6401 8.73006C14.6401 8.89292 14.5543 9.02149 14.4472 9.02149C14.3401 9.02149 14.2543 8.89292 14.2543 8.73006C14.2543 8.57149 14.3401 8.44292 14.4472 8.44292C14.5543 8.44292 14.6401 8.57149 14.6401 8.73006ZM11.8972 7.73577C11.5886 7.79149 11.2372 8.13006 11.2029 8.15149C11.2029 7.9372 11.6486 7.59006 11.7772 7.58577C11.9058 7.5772 11.8972 7.70577 11.8972 7.73577ZM14.3015 7.6072C14.5243 7.56863 14.8158 7.70577 14.8415 7.71006C14.8115 7.58149 14.4558 7.45292 14.3658 7.48292C14.2715 7.50863 14.2972 7.58577 14.3015 7.6072ZM6.55721 16.8729C6.55721 16.8472 6.58292 16.8301 6.61292 16.8301C7.45892 16.9335 8.27926 17.189 9.03435 17.5843C9.05578 17.5972 9.06435 17.6272 9.05149 17.6529C9.04442 17.664 9.03337 17.6719 9.02062 17.6751C9.00787 17.6783 8.99438 17.6765 8.98292 17.6701C8.23968 17.2816 7.43247 17.0305 6.60006 16.9286C6.59345 16.9281 6.58701 16.9263 6.58117 16.9231C6.57533 16.92 6.57022 16.9156 6.56617 16.9104C6.56213 16.9051 6.55924 16.899 6.55769 16.8926C6.55615 16.8861 6.55598 16.8794 6.55721 16.8729Z" fill="black"/>
<path d="M15.6 16.4999C15.5978 16.6721 15.5616 16.8422 15.4936 17.0005C15.4257 17.1587 15.3272 17.302 15.2038 17.4222C15.0804 17.5424 14.9346 17.6371 14.7746 17.7009C14.6146 17.7648 14.4436 17.7964 14.2714 17.7942C13.9251 17.7965 13.5919 17.6616 13.3446 17.4192C13.0973 17.1767 12.9559 16.8462 12.9514 16.4999C12.9559 16.1536 13.0973 15.8231 13.3446 15.5806C13.5919 15.3381 13.9251 15.2033 14.2714 15.2056C15.0043 15.2056 15.6 15.7842 15.6 16.4999Z" fill="#FAC736"/>
<path d="M11.2373 12.9772C11.2612 12.9651 11.2889 12.9627 11.3146 12.9707C11.3402 12.9788 11.3617 12.9965 11.3744 13.0201C11.5544 13.3501 11.8587 13.8772 12.2101 14.4129C12.5282 14.9197 12.9083 15.3847 13.3415 15.7972C13.3844 15.8358 13.3844 15.8958 13.3501 15.9344C13.3158 15.9772 13.2515 15.9772 13.2087 15.9429C12.7622 15.5192 12.3706 15.0412 12.043 14.5201C11.7417 14.0608 11.4601 13.5889 11.1987 13.1058C11.188 13.083 11.1865 13.0569 11.1945 13.033C11.2025 13.0091 11.2193 12.9891 11.2415 12.9772H11.2373ZM11.3273 13.0415C11.321 13.0308 11.311 13.0227 11.2991 13.0187C11.2873 13.0148 11.2745 13.0153 11.263 13.0201C11.2573 13.0228 11.2522 13.0267 11.248 13.0314C11.2438 13.0362 11.2406 13.0417 11.2386 13.0477C11.2366 13.0537 11.2359 13.06 11.2364 13.0663C11.2369 13.0726 11.2386 13.0788 11.2415 13.0844C11.4215 13.4187 11.7258 13.9544 12.0858 14.4901C12.411 15.0079 12.7998 15.4831 13.243 15.9044C13.2644 15.9258 13.2944 15.9258 13.3115 15.9044C13.3162 15.9 13.3199 15.8947 13.3225 15.8888C13.325 15.8829 13.3263 15.8765 13.3263 15.8701C13.3263 15.8637 13.325 15.8573 13.3225 15.8514C13.3199 15.8455 13.3162 15.8402 13.3115 15.8358C12.8733 15.4197 12.4888 14.9503 12.1673 14.4387C11.8678 13.985 11.5875 13.5188 11.3273 13.0415ZM14.923 15.6944C14.9114 15.6885 14.9011 15.6804 14.8927 15.6705C14.8843 15.6606 14.878 15.6492 14.874 15.6368C14.87 15.6245 14.8685 15.6115 14.8695 15.5986C14.8706 15.5856 14.8742 15.5731 14.8801 15.5615C15.103 15.1415 15.1801 14.5415 15.1844 13.9544C15.1844 13.3672 15.1158 12.8058 15.0473 12.4715C15.0448 12.4586 15.045 12.4452 15.0478 12.4323C15.0505 12.4194 15.0559 12.4072 15.0635 12.3964C15.0711 12.3856 15.0808 12.3765 15.092 12.3695C15.1032 12.3625 15.1157 12.3579 15.1287 12.3558C15.1801 12.3472 15.2358 12.3815 15.2444 12.4329C15.313 12.7801 15.3858 13.3544 15.3858 13.9544C15.3858 14.5544 15.3044 15.1887 15.0601 15.6515C15.0474 15.6751 15.0259 15.6929 15.0003 15.7009C14.9746 15.7089 14.9469 15.7065 14.923 15.6944ZM15.1973 12.4458C15.1962 12.439 15.1938 12.4325 15.1902 12.4266C15.1866 12.4208 15.1819 12.4157 15.1763 12.4117C15.1707 12.4077 15.1644 12.4049 15.1577 12.4034C15.151 12.4019 15.144 12.4017 15.1373 12.4029C15.1302 12.4033 15.1233 12.4053 15.1171 12.4087C15.1109 12.4121 15.1055 12.4169 15.1014 12.4226C15.0973 12.4284 15.0945 12.435 15.0933 12.442C15.0921 12.449 15.0925 12.4561 15.0944 12.4629C15.163 12.8015 15.2358 13.3629 15.2358 13.9544C15.258 14.5136 15.1524 15.0706 14.9273 15.5829C14.9144 15.6087 14.923 15.6344 14.9487 15.6472C14.9701 15.6601 15.0044 15.6515 15.0173 15.6258C15.253 15.1758 15.3301 14.5501 15.3344 13.9544C15.3344 13.3587 15.2658 12.7887 15.1973 12.4458Z" fill="black"/>
<path fill-rule="evenodd" clip-rule="evenodd" d="M13.2815 16.5043L13.3201 16.6757C13.3519 16.6656 13.3822 16.6512 13.4101 16.6328C13.4265 16.6222 13.4398 16.6074 13.4486 16.59V16.5471C13.4315 16.5085 13.4015 16.4957 13.3629 16.4957C13.3341 16.4936 13.3051 16.4965 13.2772 16.5043H13.2815ZM13.3415 16.7743C13.3843 16.7571 13.4315 16.7357 13.4701 16.7057C13.5017 16.6843 13.5269 16.6546 13.5429 16.62C13.5504 16.6015 13.5539 16.5816 13.5532 16.5617C13.5524 16.5417 13.5475 16.5222 13.5386 16.5043C13.5232 16.472 13.4988 16.4448 13.4685 16.4258C13.4381 16.4068 13.403 16.3969 13.3672 16.3971C13.3029 16.3971 13.2386 16.4143 13.2001 16.4314L13.1658 16.4486L13.2729 16.9114L13.3672 16.89L13.3415 16.7743ZM13.9072 16.65C13.924 16.6532 13.9412 16.6528 13.9578 16.6486C13.9743 16.6444 13.9898 16.6366 14.0029 16.6257C14.0161 16.6149 14.0267 16.6012 14.034 16.5858C14.0413 16.5703 14.0451 16.5535 14.0451 16.5364C14.0451 16.5193 14.0413 16.5025 14.034 16.487C14.0267 16.4716 14.0161 16.4579 14.0029 16.4471C13.9898 16.4362 13.9743 16.4284 13.9578 16.4242C13.9412 16.42 13.924 16.4196 13.9072 16.4228C13.8772 16.4228 13.8484 16.4344 13.8269 16.4552C13.8053 16.476 13.7926 16.5043 13.7915 16.5343C13.7915 16.5986 13.8429 16.65 13.9072 16.65ZM13.9072 16.7443C13.9633 16.7443 14.0172 16.7223 14.0572 16.683C14.0973 16.6438 14.1204 16.5904 14.1215 16.5343C14.1215 16.4774 14.0989 16.4229 14.0587 16.3827C14.0185 16.3426 13.964 16.32 13.9072 16.32C13.8504 16.32 13.7959 16.3426 13.7557 16.3827C13.7155 16.4229 13.6929 16.4774 13.6929 16.5343C13.6929 16.65 13.7872 16.7486 13.9072 16.7486V16.7443ZM14.5286 16.5214C14.5972 16.5214 14.6486 16.47 14.6486 16.4057C14.6475 16.3758 14.6348 16.3474 14.6133 16.3266C14.5917 16.3058 14.5629 16.2942 14.5329 16.2943C14.503 16.2942 14.4742 16.3058 14.4526 16.3266C14.431 16.3474 14.4183 16.3758 14.4172 16.4057C14.4172 16.47 14.4686 16.5214 14.5329 16.5214H14.5286ZM14.5286 16.6157C14.5568 16.6163 14.5847 16.6113 14.611 16.601C14.6372 16.5908 14.6611 16.5755 14.6814 16.556C14.7017 16.5365 14.718 16.5132 14.7293 16.4874C14.7405 16.4616 14.7466 16.4338 14.7472 16.4057C14.7472 16.3489 14.7246 16.2944 14.6844 16.2542C14.6443 16.214 14.5897 16.1914 14.5329 16.1914C14.4761 16.1914 14.4216 16.214 14.3814 16.2542C14.3412 16.2944 14.3186 16.3489 14.3186 16.4057C14.3186 16.5214 14.4129 16.62 14.5329 16.62L14.5286 16.6157Z" fill="black"/>
<path d="M15.2228 16.1999L15.1843 16.0113L15.2828 15.9941L15.33 16.2256L15.3814 16.457L15.2828 16.4784L15.24 16.2984L15.0086 16.367L15.0514 16.5556L14.9528 16.577L14.8457 16.1099L14.9443 16.0884L14.9871 16.2727L15.2228 16.2041V16.1999Z" fill="black"/>
</g>
<defs>
<clipPath id="clip0_31_16318">
<rect width="24" height="24" fill="white"/>
</clipPath>
</defs>
</svg>
