<svg xmlns="http://www.w3.org/2000/svg" width="24" height="24" fill="none" viewBox="0 0 24 24"><g clip-path="url(#a)"><path fill="#1E375E" d="M0 0h24v24H0z"/><path fill="#fff" d="M11.143 19.86V6.858h4.024c.154 0 .262.125.262.273v7.168c0 .149-.108.274-.254.274h-2.316v5.289c0 .148-.116.282-.27.282H11.37c-.186-.01-.227-.124-.227-.282m-.857-5.289h-1.43a.29.29 0 0 1-.284-.264V7.13c0-.148.13-.273.284-.273h1.43zm0-9.43c0 .706.859 1.286 1.928 1.286 1.07 0 1.929-.58 1.929-1.285 0-.713-.859-1.285-1.929-1.285s-1.928.58-1.928 1.285"/></g><defs><clipPath id="a"><path fill="#fff" d="M0 0h24v24H0z"/></clipPath></defs></svg>