<svg xmlns="http://www.w3.org/2000/svg" width="24" height="24" fill="none" viewBox="0 0 24 24"><g clip-path="url(#a)"><path fill="#2D8EFF" d="M0 0h24v24H0z"/><path fill="#fff" d="M10.286 13.714h1.285c1.56.005 2.576-1.568 2.572-3 .008-1.422-1.059-3.008-2.572-3H8.143v8.572h2.143zm0-3.857h1.084c.471.035.63.463.63.857 0 .33-.146.857-.583.857h-1.136V9.858z"/><path fill="#fff" d="M5.143 5.932v12.137c0 .428.36.788.788.788H18.07c.428 0 .788-.36.788-.788V5.932a.8.8 0 0 0-.788-.789H5.93a.8.8 0 0 0-.788.789m11.314 11.211H7.526c-.429 0-.673-.257-.673-.686V7.526c0-.429.248-.673.673-.673h8.923c.428 0 .69.244.69.673v8.923c0 .428-.258.69-.686.69z"/><path fill="#fff" d="M15.857 14.571h-4.714v1.715h4.714z"/></g><defs><clipPath id="a"><path fill="#fff" d="M0 0h24v24H0z"/></clipPath></defs></svg>