<svg xmlns="http://www.w3.org/2000/svg" width="24" height="24" fill="none" viewBox="0 0 24 24"><g clip-path="url(#a)"><path fill="#38A6FA" d="M0 0h24v24H0z"/><path fill="#fff" d="M16.714 15.824c0 .249-.239.461-.489.461H9.23a.487.487 0 0 1-.477-.484v-.159c0-.022.023-.34.227-.725.34-.635.977-1.089 1.885-1.406 1.305-.434 2.907-.7 3.975-1.632.773-.658.995-1.686 1.018-2.683.395.283.857.569.857 1.118zm-2.57-6.628c0 .499-.008 1.028-.372 1.368-.864.796-2.357.98-3.43 1.337-1.659.544-2.476 1.497-2.862 2.2-.069.135-.137.271-.182.408 0 .022-.012.022-.012.045v-4.217c0-.499.375-.793.443-.839l3.817-2.494c.431-.294.886 0 .886 0l1.712 1.126zm4.285 6.537v-5.396c0-.25-.069-1.496-1.227-2.267l-.916-.643V5.554c0-.272-.265-.41-.515-.41h-.694c-.272 0-.505.138-.505.41v.74l-1.164-.74c-.704-.453-1.817-.635-2.794 0L6.798 8.048c-.227.136-1.226.884-1.226 2.267v5.396c0 .52.113.952.363 1.314.182.295.454.522.772.68A3.1 3.1 0 0 0 7.843 18h8.337c.023 0 .568 0 1.136-.295.34-.158.59-.385.795-.68.204-.34.318-.77.318-1.292"/></g><defs><clipPath id="a"><path fill="#fff" d="M0 0h24v24H0z"/></clipPath></defs></svg>