<svg width="24" height="24" viewBox="0 0 24 24" fill="none" xmlns="http://www.w3.org/2000/svg">
<g clip-path="url(#clip0_31_16540)">
<path d="M0 0H24V24H0V0Z" fill="url(#paint0_linear_31_16540)"/>
<path d="M10.7228 10.7141H8.4857C7.60713 10.7141 6.56142 10.9412 6.40284 11.9226C6.21856 13.0198 7.15284 13.2855 8.06999 13.2855H11.3957C12.48 13.2855 13.3243 12.0726 13.4786 11.1555L13.5428 10.7141H12.7028L12.6514 11.0141C12.5571 11.6055 12.0814 12.4198 11.3914 12.4284H8.14284C7.78713 12.4284 7.20856 12.4026 7.2857 11.9226C7.3457 11.5712 8.05284 11.5712 8.4857 11.5712H10.0714C10.2086 11.2841 10.4743 10.9798 10.7228 10.7141ZM10.9371 10.5041C11.2028 10.2726 11.5243 10.0755 11.9057 9.95979L12.3771 7.71408H13.1914C13.1914 7.71408 13.02 8.81979 12.8486 9.85693H13.6843L14.1428 6.85693H11.6657L10.9371 10.5041Z" fill="#FEFEFC"/>
<path d="M14.2973 11.2931L14.3958 10.7145H15.2701C15.2144 10.9716 15.1673 11.2159 15.1158 11.4302C14.8287 13.2002 13.3073 15.0002 11.4001 15.0002H8.07442C7.20442 15.0002 6.28299 14.8116 5.59728 14.2159C4.83871 13.5516 4.61156 12.6045 4.76585 11.6445C5.06585 9.84021 6.78013 9.00021 8.49013 9.00021H9.56585L10.3973 5.14307H16.2858C16.2858 5.14307 15.8487 7.73592 15.4373 9.85735H14.5458C14.8544 8.08735 15.2401 6.00021 15.2401 6.00021H11.0616L10.2301 9.85735H8.48585C7.07156 9.85735 5.64871 10.5174 5.55013 12.0559C5.54156 12.1845 5.54585 12.3045 5.55442 12.4245C5.59728 12.8702 5.79871 13.2859 6.13728 13.5816C6.66013 14.0402 7.38871 14.1431 8.06585 14.1431H11.3958C12.8958 14.1431 14.0701 12.6602 14.2973 11.2931Z" fill="#FEFEFC"/>
<path d="M12.8269 14.6699L11.8926 14.9999L11.6184 16.2856H10.8041L11.0141 14.9999H10.1826L9.85693 17.1428H12.3341L12.8269 14.6699Z" fill="#32D7AF"/>
<path d="M9.30436 15C9.03436 16.5214 8.76007 18 8.76007 18H12.9386L13.7701 14.1429H15.5144C16.9286 14.1429 18.3515 13.4829 18.4501 11.9443C18.4586 11.8157 18.4586 11.6957 18.4458 11.5757C18.4068 11.1296 18.1982 10.7154 17.8629 10.4186C17.3401 9.96 16.6115 9.85714 15.9344 9.85714H12.6001C11.1986 9.85714 10.0844 11.1429 9.75864 12.4286H8.9015C9.25293 10.7057 10.7401 9 12.6001 9H15.9258C16.7958 9 17.7172 9.18857 18.4029 9.78429C19.1615 10.4486 19.3886 11.3957 19.2344 12.3557C18.9344 14.16 17.2201 15 15.5101 15H14.4429L13.6115 18.8571H7.71436C7.71436 18.8571 8.04436 16.9029 8.40007 15H9.30436Z" fill="#32D7AF"/>
<path d="M10.6284 12.4286C10.9284 11.5972 11.6784 10.7144 12.6041 10.7144H15.9298C16.847 10.7144 17.7813 10.9801 17.6013 12.0772C17.4384 13.0586 16.3927 13.2858 15.5141 13.2858H14.357L14.8284 12.4286H15.5141C15.947 12.4286 16.6541 12.4286 16.7141 12.0772C16.7913 11.5972 16.2127 11.5715 15.857 11.5715H12.6041C12.1198 11.5758 11.7384 11.9829 11.5241 12.4286H10.6284Z" fill="#32D7AF"/>
</g>
<defs>
<linearGradient id="paint0_linear_31_16540" x1="4.46571" y1="4.16143" x2="29.2071" y2="32.58" gradientUnits="userSpaceOnUse">
<stop stop-color="#1A1E21"/>
<stop offset="1" stop-color="#06060A"/>
</linearGradient>
<clipPath id="clip0_31_16540">
<rect width="24" height="24" fill="white"/>
</clipPath>
</defs>
</svg>
