<svg xmlns="http://www.w3.org/2000/svg" width="24" height="24" fill="none" viewBox="0 0 24 24"><g clip-path="url(#a)"><path fill="url(#b)" d="M0 0h24v24H0z"/><path fill="#B805F7" d="M6.429 9h2.143A.43.43 0 0 1 9 9.429v2.142H6.857a.43.43 0 0 1-.428-.428zM18 9h-2.143a.43.43 0 0 0-.428.429v2.142h2.143a.43.43 0 0 0 .428-.428zm-8.571.429A.43.43 0 0 1 9.857 9h1.715a.43.43 0 0 1 .428.429v1.714a.43.43 0 0 1-.428.428H9.857a.43.43 0 0 1-.428-.428z"/><path fill="#F4D70D" d="M6.429 12.429A.43.43 0 0 1 6.857 12h1.715a.43.43 0 0 1 .428.429v1.714a.43.43 0 0 1-.428.428H6.857a.43.43 0 0 1-.428-.428zm9 0a.43.43 0 0 1 .428-.429h1.715a.43.43 0 0 1 .428.429v1.714a.43.43 0 0 1-.428.428h-1.715a.43.43 0 0 1-.428-.428zm-3 3a.43.43 0 0 1 .428-.429h1.715a.43.43 0 0 1 .428.429v1.714a.43.43 0 0 1-.428.428h-1.715a.43.43 0 0 1-.428-.428zm-3 0A.43.43 0 0 1 9.857 15h1.715a.43.43 0 0 1 .428.429v1.714a.43.43 0 0 1-.428.428H9.857a.43.43 0 0 1-.428-.428z"/><path fill="#B805F7" d="M12.429 9.429A.43.43 0 0 1 12.857 9h1.715a.43.43 0 0 1 .428.429v1.714a.43.43 0 0 1-.428.428h-1.715a.43.43 0 0 1-.428-.428z"/><path fill="#F4D70D" d="M6.429 15.429A.43.43 0 0 1 6.857 15H9v2.143a.43.43 0 0 1-.428.428H6.857a.43.43 0 0 1-.428-.428z"/><path fill="#B805F7" d="M14.885 5.872a.36.36 0 0 1 0 .527L13.5 7.715l-1.384-1.316a.36.36 0 0 1 0-.523l1.106-1.054a.407.407 0 0 1 .557 0l1.105 1.054z"/><path fill="#F4D70D" d="m12 5.576-.313.3a.36.36 0 0 0 0 .523l.313.3-1.072 1.016-1.384-1.316a.36.36 0 0 1 0-.523l1.106-1.054a.407.407 0 0 1 .557 0zm6 9.853A.43.43 0 0 0 17.57 15h-2.143v2.143a.43.43 0 0 0 .429.429h1.714a.43.43 0 0 0 .429-.429z"/></g><defs><linearGradient id="b" x1="4.466" x2="29.207" y1="4.161" y2="32.58" gradientUnits="userSpaceOnUse"><stop stop-color="#1A1E21"/><stop offset="1" stop-color="#06060A"/></linearGradient><clipPath id="a"><path fill="#fff" d="M0 0h24v24H0z"/></clipPath></defs></svg>