<svg xmlns="http://www.w3.org/2000/svg" width="24" height="24" fill="none" viewBox="0 0 24 24"><g clip-path="url(#a)"><path fill="#1347E8" d="M0 0h24v24H0z"/><path fill="#fff" d="M12 5.143a6.857 6.857 0 1 0 0 13.714 6.857 6.857 0 0 0 0-13.714m6.508 6.577h-.555v-.225l.555-.006zm-.143-1.197-.549.075-.031-.231.548-.075zm-.474-1.465.1.218-.512.224-.093-.211zM17.2 8.01l.156.174-.418.368-.156-.175zm-.81-.873.174.156-.361.418-.181-.15.367-.418zm-.973-.78.193.125-.299.468-.193-.124zm-1.104-.548.225.062-.137.536-.23-.062.143-.53zm-1.215-.293.237.019-.05.548-.23-.018zm-1.247-.15h.225v.562h-.231v-.562zm-1.035.15.044.549-.23.025-.044-.562zM9.6 5.81l.144.542-.225.063-.144-.543zm-1.103.549.305.467-.2.125-.298-.467zm-.967.779.362.417-.175.157-.361-.425zm-.81.866.411.368-.15.175-.417-.374.15-.169zm-.699 1.06.506.225-.094.211-.505-.23.094-.212zm-.435 1.228.548.075-.038.23-.548-.074.031-.23zM5.41 11.49h.555v.237l-.562-.006v-.231zm.05 1.303.554-.062.02.236-.55.056zm.25 1.184.541-.124.057.218-.543.124-.056-.224zm.604 1.41-.112-.207.48-.274.118.2zm.792.978-.175-.156.386-.405.169.162zm.885.791-.187-.137.318-.448.187.137zm1.035.693-.206-.107.261-.492.206.106-.261.499zm1.146.436-.224-.031.087-.549.23.037-.093.549zm1.004.193v-.555h.23v.555zM6.227 12a5.779 5.779 0 0 1 11.546 0 5.779 5.779 0 0 1-11.546 0m6.228 6.533h-.013l-.05-.548.231-.025h.013l.05.555zm1.234-.262-.093-.542.224-.043.1.548zm1.185-.405-.194-.523.219-.075.187.517-.219.081zm1.047-.642-.343-.436.181-.144.343.437-.187.143zm.891-.872-.398-.387.161-.162.4.386zm.73-.936-.449-.33.137-.187.449.33zm.592-1.122-.524-.174.081-.219.524.188-.081.218zm.33-1.26-.56-.024.018-.237.555.031z"/><path fill="#fff" fill-rule="evenodd" d="M12.429 9h-.857a1.286 1.286 0 0 0-1.286 1.286v2.571a1.286 1.286 0 0 0 1.286 1.286h.857a1.285 1.285 0 0 0 1.285-1.286v-2.571A1.285 1.285 0 0 0 12.43 9m-.857-.429a1.714 1.714 0 0 0-1.715 1.715v2.571a1.714 1.714 0 0 0 1.715 1.714h.857a1.714 1.714 0 0 0 1.714-1.714v-2.571a1.714 1.714 0 0 0-1.714-1.715z" clip-rule="evenodd"/><path fill="#fff" d="M12.489 13.34a.214.214 0 0 1 .303.006l1.244 1.294a.214.214 0 1 1-.309.297l-1.244-1.294a.21.21 0 0 1-.042-.235.2.2 0 0 1 .048-.068"/></g><defs><clipPath id="a"><path fill="#fff" d="M0 0h24v24H0z"/></clipPath></defs></svg>