<svg width="24" height="24" viewBox="0 0 24 24" fill="none" xmlns="http://www.w3.org/2000/svg">
<g clip-path="url(#clip0_31_16781)">
<path d="M0 0H24V24H0V0Z" fill="#F0F3FA"/>
<path fill-rule="evenodd" clip-rule="evenodd" d="M17.9999 12.0001C17.9999 15.2701 15.2699 18.0001 11.9999 18.0001C10.3971 18.0001 8.91852 17.3444 7.83423 16.2858H9.42852V13.7144H10.5299L12.4885 16.2858H14.9399L12.8571 13.7144C13.9285 13.5001 14.9999 12.2144 14.9999 10.7144C14.9999 8.5715 12.9814 7.71436 11.9999 7.71436H7.83423C8.91852 6.65578 10.3971 6.00007 11.9999 6.00007C15.2699 6.00007 17.9999 8.73007 17.9999 12.0001ZM7.28566 8.32293C6.48423 9.34721 5.99995 10.6244 5.99995 12.0001C5.99995 13.3715 6.48423 14.6572 7.28566 15.6772V8.32293ZM19.2857 12.0001C19.2857 13.9324 18.5181 15.7855 17.1517 17.1518C15.7854 18.5182 13.9322 19.2858 11.9999 19.2858C10.0677 19.2858 8.21451 18.5182 6.84817 17.1518C5.48183 15.7855 4.71423 13.9324 4.71423 12.0001C4.71423 10.0678 5.48183 8.21463 6.84817 6.84829C8.21451 5.48196 10.0677 4.71436 11.9999 4.71436C13.9322 4.71436 15.7854 5.48196 17.1517 6.84829C18.5181 8.21463 19.2857 10.0678 19.2857 12.0001ZM11.5714 12.0001H9.42852V9.42864H11.5714C12.2142 9.42864 12.8571 9.76293 12.8571 10.7144C12.8571 11.6658 12.2142 12.0001 11.5714 12.0001Z" fill="#EC1D25"/>
</g>
<defs>
<clipPath id="clip0_31_16781">
<rect width="24" height="24" fill="white"/>
</clipPath>
</defs>
</svg>
