<svg xmlns="http://www.w3.org/2000/svg" width="24" height="24" fill="none" viewBox="0 0 24 24"><g clip-path="url(#a)"><path fill="#F0F3FA" d="M0 0h24v24H0z"/><path fill="url(#b)" d="M12 19.286a7.286 7.286 0 1 0 0-14.572 7.286 7.286 0 0 0 0 14.572"/><path fill="#F6F7F3" fill-rule="evenodd" d="M8.259 15.772c.638.801 2.066 2.43 5.88 1.542-.673-.578-2.023-2.1-2.07-3.544-.665-.094-1.937-.57-1.697-1.727.051.411.454 1.286 1.628 1.479.176.012.613.012.956-.082.231-.064.369-.03.54.009.141.034.304.072.574.072.596 0 1.354-.758 1.629-1.05l-.952-.908a1.66 1.66 0 0 0 .527-1.376l2.298-1.971-2.829 1.003a3.1 3.1 0 0 0-1.787-.583c-1.072 0-4.269.994-4.697 4.521zm5.52-5.739c-.206.381-.562 1.187-.313 1.367.253.18.729-.296.943-.557-.215-.137-.63-.502-.63-.81" clip-rule="evenodd"/><path fill="url(#c)" d="M10.222 9.137c-2.443 1.629-2.662 5.027-2.465 6.523-.497-.698-1.328-2.078-1.328-3.548 0-1.179.471-2.272.703-2.67l.548-.3h1.757L8.25 8.417h-.428c.917-1.2 2.657-1.825 3.415-1.988l1.085 1.375V6.677l-.095-.248c2.297.085 3.485 1.285 3.793 1.868l-1.62.356c-1.53-.866-3.424-.039-4.178.484"/><path fill="url(#d)" d="M18.428 12a6.428 6.428 0 1 1-1.315-3.9l-.437.137a6 6 0 1 0 .428.6l.343-.244A6.4 6.4 0 0 1 18.428 12"/></g><defs><linearGradient id="b" x1="20.426" x2="12" y1="8.366" y2="19.286" gradientUnits="userSpaceOnUse"><stop stop-color="#0D183A"/><stop offset=".22" stop-color="#112A73"/><stop offset=".29" stop-color="#13224E"/><stop offset=".46" stop-color="#18417B"/><stop offset=".73" stop-color="#0F2771"/><stop offset="1" stop-color="#0D1839"/></linearGradient><linearGradient id="c" x1="15.082" x2="9.176" y1="8.4" y2="16.582" gradientUnits="userSpaceOnUse"><stop stop-color="#8EF6EE"/><stop offset=".3" stop-color="#5C71D9"/><stop offset=".67" stop-color="#D73960"/><stop offset="1" stop-color="#F8CF44"/></linearGradient><linearGradient id="d" x1="5.374" x2="19.101" y1="11.271" y2="15.227" gradientUnits="userSpaceOnUse"><stop stop-color="#1774C8"/><stop offset="1" stop-color="#17458A"/></linearGradient><clipPath id="a"><path fill="#fff" d="M0 0h24v24H0z"/></clipPath></defs></svg>