<svg xmlns="http://www.w3.org/2000/svg" width="24" height="24" fill="none" viewBox="0 0 24 24"><g clip-path="url(#a)"><path fill="#F0F3FA" d="M0 0h24v24H0z"/><path fill="url(#b)" d="M11.079 16.856c-.609-.048-.708-.845-.682-1.243l.172-.729.917-.197c.154.236.454.759.428 1.007-.043.309-.471.656-.51.754-.038.095-.133.408-.325.408"/><path fill="#B46014" d="M11.181 16.821a.6.6 0 0 1-.115-.338c0-.133.098-.279.197-.429.107-.163.214-.33.214-.497 0-.189.056-.489.103-.716.159.262.356.652.33.853-.026.214-.236.446-.377.6a1 1 0 0 0-.129.154l-.008.035c-.039.09-.103.265-.215.343z"/><path fill="#FAD33F" d="m12.9 14.709 1.74 3.942-2.469.635.043-3.93z"/><path fill="url(#c)" d="M11.524 15.154c.09.913 1.115 1.372 1.608 1.487.115-.077.077-.407 0-.655-.06-.202-.026-.935 0-1.277-.575-.232-1.702-.472-1.608.445"/><path fill="#B05A0D" d="M12.604 14.743c.017.026.223.613.223.887 0 .244.129.669.343.973.069-.116.03-.399-.039-.617-.06-.202-.025-.934 0-1.277a3 3 0 0 0-.321-.112l-.206.15z"/><path fill="#FAD33F" d="m14.584 13.29 4.055 1.612-1.466 2.074-2.683-2.752z"/><path fill="url(#d)" d="M15.034 14.786c-.021-.232-.446-.793-.484-.815-1.089-.578-2.387.215-1.997.815.385.6 1.315.968 1.898.968.467 0 .75-.158.836-.236a3.1 3.1 0 0 1-.257-.732z"/><path fill="#B25F05" d="M13.757 13.92c.257.022.802.189.87.686.04.385.21.746.484 1.02a.6.6 0 0 0 .172-.107 3.1 3.1 0 0 1-.249-.733c-.021-.232-.446-.793-.484-.814a1.7 1.7 0 0 0-.729-.198z"/><path fill="#1A739F" d="m7.723 13.414-.964.493-.382-1.68h1.059zm2.443 2.456-.485 1.226-1.452-.866.852-.934z"/><path fill="#FAD33F" d="m14.841 11.023 4.016-1.71.429 2.503H15.5zm-1.495-1.749 1.705-3.998 1.942 1.393-2.619 2.725z"/><path fill="url(#e)" d="M7.157 12.429c0-.343.712-.558 1.072-.622.313.532.78 1.573.111 1.509-.831-.073-1.183-.459-1.183-.887"/><path fill="#63CBE6" d="M12.201 6.03V4.714l2.426.429-.428 1.251z"/><path fill="#1A739F" d="M11.833 6.03V4.714l-2.349.446.45 1.179z"/><path fill="#63CBE6" d="M11.833 17.842v1.311l-2.349-.441.45-1.183z"/><path fill="#1A739F" d="m9.592 6.574-.48-1.221-2.023 1.269.848.934zm0 10.775-.48 1.226-2.023-1.27.848-.933zM7.607 7.843l-.887-.827-1.337 1.971 1.157.515 1.067-1.655zm-1.26 6.27-1.136.429-.47-2.336 1.263-.03zm1.265 1.929-.853.865-1.41-1.92 1.135-.557zM6.407 9.934l-1.221-.492-.472 2.331 1.265.034zm5.327-2.28V6.34l-1.667.27.446 1.178zM8.572 8.927l-.733-.793L6.9 9.583l.994.364zm-.832 1.548-.943-.42-.394 1.68 1.106.055z"/><path fill="url(#f)" d="M8.593 9.141c0 .386.287.665.428.755h1.492l-.214-1.063c-.078-.459-.258-1.372-.365-1.372-.458 0-1.341 1.273-1.341 1.68"/><path fill="url(#g)" d="M10.029 7.628a2.6 2.6 0 0 0-.193.939c0 .343.291.561.548.673l-.085-.407a10 10 0 0 0-.266-1.2z"/><path fill="url(#h)" d="M7.487 14.516a2.03 2.03 0 0 1 .737-1.47l1.65 1.084c-.343.172-1.114.574-1.457.793-.424.27-.484.617-.579.617-.098 0-.35-.137-.35-1.028z"/><path fill="#D7841A" d="M7.83 15.54c.124-.488.746-1.007.917-1.118-.077-.138-.351.042-.579.188l-.162.103c.068-.214.398-.484.48-.548l.012-.013c.022-.018-.111-.022-.265-.026-.176-.009-.382-.013-.407-.043-.026-.021.051-.18.128-.343.09-.184.184-.377.154-.42a2 2 0 0 0-.072-.094 2 2 0 0 1 .188-.18l1.65 1.084c-.343.172-1.114.574-1.457.793a1.4 1.4 0 0 0-.463.489c-.047.077-.081.128-.116.128z"/><path fill="url(#i)" d="M10.089 8.58c0 .403.282.578.428.617l1.547.197c.185-.664.553-2.048.583-2.263.043-.27-.214-.291-.308-.291-1.826.484-2.25 1.238-2.25 1.74"/><path fill="url(#j)" d="M12.6 6.926c-.343.638-.913 1.796-.891 2.07.013.214.197.334.36.39.18-.664.548-2.04.578-2.254.013-.1-.008-.163-.051-.206z"/><path fill="url(#k)" d="M14.511 9.159c-.081-.476.275-.922.463-1.08-.068-.09-.415-.27-1.221-.27-1.007 0-1.959.578-1.959 1.041 0 .373.814.994 1.222 1.256.531-.116 1.572-.467 1.495-.943z"/><path fill="url(#l)" d="M14.76 8.314c-.19.238-.28.542-.249.845.065.398-.647.711-1.191.87a.4.4 0 0 1-.03-.236c.094-.729.96-1.264 1.47-1.479"/><path fill="url(#m)" d="M14.722 9.159c-1.085 0-1.316.531-1.3.793-.076 1.2 1.377 1.645 1.904 1.007.347-1.123.694-1.256.814-1.415-.077-.325-.776-.385-1.414-.385z"/><path fill="url(#n)" d="M16.119 9.493c-.262.18-.798.612-1.398 1.29-.111.12-.283.27-.454.407.39.124.819.056 1.059-.232.278-.904.557-1.165.72-1.315l.094-.095a.3.3 0 0 0-.021-.055"/><path fill="url(#o)" d="M14.914 10.937c-.617 0-.814.253-.852.291-.13.372-.162.77-.095 1.158.116.621 1.183.291 1.415.291.23 0 .737-.386.835-.48.095-.099.407-.313.407-.386 0-.235-1.088-.874-1.705-.874z"/><path fill="#B25F05" d="M16.594 11.73c-.287.227-.857.583-1.268.583-.399 0-1.02-.039-1.38-.064l.021.141c.095.497.802.381 1.196.317.094-.017.171-.03.219-.03.235 0 .737-.386.835-.48.03-.034.086-.077.146-.128.12-.095.257-.21.257-.258a.15.15 0 0 0-.026-.081"/><path fill="url(#p)" d="M16.35 13.993c-.587-1.53-1.757-1.68-2.267-1.565-.142.313-.429 1.072-.429 1.565 2.002.501 2.602.077 2.7 0z"/><path fill="#B25F05" d="M16.307 14.027c-.266.013-.664.026-1.183.026-.745 0-1.238-.172-1.453-.287-.008.081-.017.158-.017.227 1.8.45 2.465.154 2.653.034"/><path fill="url(#q)" d="M11.173 15.287a3.156 3.156 0 0 0 3.163-3.15c0-1.74-1.416-3.15-3.163-3.15a3.156 3.156 0 0 0-3.163 3.15c0 1.74 1.416 3.15 3.163 3.15"/><path fill="#DF9A1C" d="M13.093 13.337c.171-.45.124-.754.077-.853.137-.282.386-.462.386-.214a1.24 1.24 0 0 1-.463 1.067"/><path fill="#656D62" d="M8.961 9.626c-.99.03-1.067.677-1.067 1.08 0 .891.292 1.046.566 1.046 1.046 0 1.474-1.548 1.474-1.856s-.235-.309-.973-.27"/><path fill="#656D62" d="M10.826 9.818a3.6 3.6 0 0 0-.952.018l-.025-.112c.128-.03.497-.068.985-.021zm-.575.262c-.154.008-.3.034-.394.081l-.047-.107c.293-.105.611-.12.913-.043l-.03.112a1.6 1.6 0 0 0-.441-.043"/><path fill="#656D62" d="M12.009 9.51c1.071 0 1.478.591 1.551.887 0 1.294-.681 1.586-1.05 1.586-1.899 0-1.86-1.393-1.86-1.895 0-.501.368-.578 1.358-.578"/><path fill="url(#r)" d="M10.749 12.861c-1.183 0-1.942-.437-2.173-.655 0 1.414.814 2.027 2.344 2.027 1.534 0 1.864-1.14 1.959-1.372.098-.231.06-.27 0-.287-.056-.021-.656.287-2.13.287"/><path fill="#CBCAC9" d="m8.683 12.999.043-.06.257.192a.4.4 0 0 1 .077-.051c.043-.017.103-.034.154-.013s.09.064.12.103a.5.5 0 0 1 .056.098c.236.095.96.258 2.096.185a.4.4 0 0 1 .141.034l.043.017a.1.1 0 0 0 .034.005l.052-.01.073-.03.055-.02q.066-.025.133-.043l.073-.013.03-.005q.192-.032.381-.072a.5.5 0 0 0 .138-.052l.042.065a.6.6 0 0 1-.162.06 3 3 0 0 1-.386.077h-.03l-.107.021a1 1 0 0 0-.137.056l-.086.03a.194.194 0 0 1-.129.004l-.047-.017-.008-.004a.3.3 0 0 0-.103-.026c-1.162.077-1.907-.099-2.143-.197l-.013-.009-.004-.013a.5.5 0 0 0-.052-.094.2.2 0 0 0-.085-.077.13.13 0 0 0-.095.013.3.3 0 0 0-.085.056l-.022.02z"/><path fill="url(#s)" d="M10.513 10.264h-.407c.077.146-.078.463-.078.557-.308.116-.445.33-.445.545 0 .214.193.518.445.518.369 0 .622-.214.622-.48 0-.27-.232-.386-.253-.523-.013-.107.073-.458.116-.617"/><path fill="url(#t)" d="M8.769 15.193c0-.403.385-.801.582-.947.485-.137 1.646.287 1.728.364.077.077.287.386.287.643 0 .501-.87.711-1.2.771-.33.056-.815.558-.952.558s-.445-.888-.445-1.389"/><path fill="url(#u)" d="M11.19 14.764c.086.129.176.322.176.484 0 .506-.87.716-1.2.772-.189.034-.429.214-.63.364l-.159.116c.2-.31.474-.563.797-.737.459-.197.888-.579 1.016-.999"/><path fill="url(#v)" d="M8.944 9.694c-.913.03-.977.617-.977.986 0 .806.266.943.514.943.96 0 1.355-1.402 1.355-1.68 0-.283-.215-.283-.892-.249"/><path fill="url(#w)" d="M12.017 9.608c.986 0 1.363.545 1.427.815 0 1.195-.626 1.461-.964 1.461-1.749 0-1.714-1.281-1.714-1.744s.342-.532 1.251-.532"/><path fill="#B25C06" d="m10.084 14.259-.343.724.138-.729h.205zm.63.184-.531.699.643-.635-.116-.064z"/></g><defs><linearGradient id="b" x1="11.152" x2="11.683" y1="14.687" y2="16.83" gradientUnits="userSpaceOnUse"><stop offset=".15" stop-color="#B45A0F"/><stop offset=".33" stop-color="#FACA30"/></linearGradient><linearGradient id="c" x1="12.36" x2="12.836" y1="14.498" y2="16.641" gradientUnits="userSpaceOnUse"><stop offset=".15" stop-color="#B45A0F"/><stop offset=".33" stop-color="#FACA30"/></linearGradient><linearGradient id="d" x1="12.48" x2="15.574" y1="14.456" y2="15.681" gradientUnits="userSpaceOnUse"><stop offset=".27" stop-color="#DB8611"/><stop offset=".53" stop-color="#FBE04C"/></linearGradient><linearGradient id="e" x1="7.157" x2="8.816" y1="12.566" y2="12.566" gradientUnits="userSpaceOnUse"><stop stop-color="#F8E467"/><stop offset="1" stop-color="#D78519"/></linearGradient><linearGradient id="f" x1="9.553" x2="9.553" y1="7.457" y2="9.896" gradientUnits="userSpaceOnUse"><stop stop-color="#FAED84"/><stop offset="1" stop-color="#E79D20"/></linearGradient><linearGradient id="g" x1="10.11" x2="10.11" y1="7.628" y2="9.24" gradientUnits="userSpaceOnUse"><stop stop-color="#D8A935"/><stop offset="1" stop-color="#AE5C04"/></linearGradient><linearGradient id="h" x1="9.176" x2="8.464" y1="13.2" y2="15.763" gradientUnits="userSpaceOnUse"><stop offset=".27" stop-color="#DB8611"/><stop offset=".53" stop-color="#FBE04C"/></linearGradient><linearGradient id="i" x1="11.37" x2="11.37" y1="6.84" y2="9.394" gradientUnits="userSpaceOnUse"><stop stop-color="#FAED84"/><stop offset="1" stop-color="#E79D20"/></linearGradient><linearGradient id="j" x1="12.18" x2="12.18" y1="6.926" y2="9.386" gradientUnits="userSpaceOnUse"><stop stop-color="#D8A935"/><stop offset="1" stop-color="#AE5C04"/></linearGradient><linearGradient id="k" x1="13.384" x2="13.384" y1="7.809" y2="10.106" gradientUnits="userSpaceOnUse"><stop stop-color="#FAED84"/><stop offset="1" stop-color="#E79D20"/></linearGradient><linearGradient id="l" x1="14.023" x2="14.023" y1="8.314" y2="10.029" gradientUnits="userSpaceOnUse"><stop stop-color="#D8A935"/><stop offset="1" stop-color="#AE5C04"/></linearGradient><linearGradient id="m" x1="16.14" x2="13.637" y1="9.476" y2="10.209" gradientUnits="userSpaceOnUse"><stop offset=".47" stop-color="#FBF387"/><stop offset=".88" stop-color="#E59718"/></linearGradient><linearGradient id="n" x1="14.73" x2="15.527" y1="10.65" y2="10.89" gradientUnits="userSpaceOnUse"><stop stop-color="#B76708"/><stop offset="1" stop-color="#CD7F13"/></linearGradient><linearGradient id="o" x1="16.624" x2="14.199" y1="11.211" y2="12.017" gradientUnits="userSpaceOnUse"><stop offset=".47" stop-color="#FBF387"/><stop offset=".88" stop-color="#E59718"/></linearGradient><linearGradient id="p" x1="13.654" x2="16.599" y1="13.033" y2="14.241" gradientUnits="userSpaceOnUse"><stop offset=".27" stop-color="#DB8611"/><stop offset=".53" stop-color="#FBE04C"/></linearGradient><linearGradient id="q" x1="11.173" x2="11.173" y1="8.987" y2="15.287" gradientUnits="userSpaceOnUse"><stop stop-color="#FFD133"/><stop offset=".46" stop-color="#F8C72D"/><stop offset="1" stop-color="#EFA914"/></linearGradient><linearGradient id="r" x1="10.886" x2="10.757" y1="12.698" y2="14.233" gradientUnits="userSpaceOnUse"><stop stop-color="#DEDCD0"/><stop offset=".45" stop-color="#FCFAFB"/><stop offset="1" stop-color="#E7E9E6"/></linearGradient><linearGradient id="s" x1="10.358" x2="10.118" y1="10.264" y2="12.03" gradientUnits="userSpaceOnUse"><stop offset=".17" stop-color="#F9CC38"/><stop offset=".35" stop-color="#FFEE7E"/><stop offset=".8" stop-color="#D8880B"/></linearGradient><linearGradient id="t" x1="10.496" x2="9.137" y1="14.34" y2="16.586" gradientUnits="userSpaceOnUse"><stop stop-color="#E89D0E"/><stop offset="1" stop-color="#FEEE76"/></linearGradient><linearGradient id="u" x1="11.224" x2="9.159" y1="14.764" y2="16.633" gradientUnits="userSpaceOnUse"><stop stop-color="#B35D0A"/><stop offset=".42" stop-color="#D27F08"/><stop offset="1" stop-color="#B5650B"/></linearGradient><linearGradient id="v" x1="8.901" x2="9.248" y1="9.681" y2="11.627" gradientUnits="userSpaceOnUse"><stop offset=".16" stop-color="#8DF1ED"/><stop offset=".34" stop-color="#D2EDA9"/><stop offset=".46" stop-color="#D6EDA5"/><stop offset=".54" stop-color="#54D8ED"/><stop offset=".9" stop-color="#1180AE"/></linearGradient><linearGradient id="w" x1="12.103" x2="11.807" y1="9.608" y2="11.884" gradientUnits="userSpaceOnUse"><stop offset=".16" stop-color="#8DF1ED"/><stop offset=".34" stop-color="#D2EDA9"/><stop offset=".46" stop-color="#D6EDA5"/><stop offset=".54" stop-color="#54D8ED"/><stop offset=".9" stop-color="#1180AE"/></linearGradient><clipPath id="a"><path fill="#fff" d="M0 0h24v24H0z"/></clipPath></defs></svg>