<svg width="24" height="24" viewBox="0 0 24 24" fill="none" xmlns="http://www.w3.org/2000/svg">
<g clip-path="url(#clip0_31_17128)">
<path d="M0 0H24V24H0V0Z" fill="#ADB9C2"/>
<path d="M16.6927 7.97578L16.5642 8.29293C16.5385 8.34436 16.517 8.34436 16.487 8.29721L16.4227 8.19007C16.4056 8.16007 16.3885 8.16007 16.367 8.19007C16.3558 8.20908 16.341 8.22569 16.3233 8.23893C16.3057 8.25217 16.2856 8.26178 16.2642 8.26721C15.7113 8.37864 15.1542 8.4815 14.5927 8.56721L13.997 8.68293C13.7656 8.73436 13.5899 8.76864 13.4699 8.79007H11.2199L11.2156 8.02721C11.2156 7.98864 11.1985 7.9715 11.1599 7.9715L10.4999 7.95864C10.4356 7.95864 10.4013 7.99293 10.4013 8.05721L10.3927 8.78578L7.15703 8.79864L7.16132 8.01436C7.16132 7.98864 7.14846 7.97578 7.12275 7.97578L6.4156 7.98007C6.38132 7.98007 6.36846 7.96293 6.36418 7.93293L6.35132 7.26864C6.35132 7.20007 6.3856 7.16578 6.45418 7.16578H7.92418C7.95418 7.16578 7.97132 7.14864 7.97132 7.11436V5.59721C7.97132 5.55864 7.99275 5.5415 8.02703 5.5415H8.72989C8.76418 5.5415 8.78132 5.55436 8.78132 5.59293L8.79418 6.29578C8.79418 6.33864 8.8156 6.35578 8.85846 6.35578H9.53132C9.57418 6.35578 9.5956 6.33436 9.5956 6.29578L9.58275 5.61007C9.58275 5.54578 9.61275 5.51578 9.68132 5.51578L10.307 5.5415C10.3627 5.5415 10.3927 5.51578 10.3927 5.46007L10.4099 4.79578C10.4099 4.74007 10.4356 4.71436 10.4913 4.71436H13.5599C13.6156 4.71436 13.6456 4.74007 13.6456 4.80007V5.44721C13.6456 5.49007 13.667 5.51578 13.7099 5.51578L14.3956 5.53721C14.4385 5.53721 14.4599 5.52007 14.4599 5.47721L14.447 4.7615C14.447 4.73578 14.4599 4.71864 14.4856 4.71864L15.2013 4.72293C15.2485 4.72293 15.2742 4.74864 15.2699 4.79578V5.46007C15.2699 5.49864 15.2485 5.51578 15.2142 5.51578L14.4899 5.54578C14.4642 5.54578 14.447 5.56293 14.447 5.58864L14.4599 6.27864C14.4599 6.3215 14.4856 6.34721 14.5285 6.3515L15.2313 6.36007C15.257 6.36007 15.2699 6.37293 15.2699 6.39864L15.2742 7.08864C15.2742 7.1315 15.2956 7.15293 15.3385 7.15293H16.037C16.0713 7.15293 16.0885 7.13578 16.0885 7.1015L16.0799 6.41578C16.0799 6.37293 16.097 6.35578 16.1313 6.35578H16.8427C16.8727 6.35578 16.8856 6.37293 16.8856 6.39864L16.8727 7.09721C16.8727 7.1315 16.8513 7.14436 16.8213 7.14436L16.1527 7.13578C16.1013 7.13578 16.0756 7.15721 16.0756 7.20864V7.89436C16.0756 7.94578 16.1056 7.9715 16.1613 7.9715L16.6927 7.97578ZM17.7085 8.50721L17.1942 8.37864C17.1548 8.36998 17.1144 8.36709 17.0742 8.37007L16.9499 8.37864C16.9499 8.34864 16.9413 8.32721 16.9327 8.31436C16.9156 8.28864 16.8985 8.28864 16.8856 8.31436C16.847 8.36578 16.8127 8.38293 16.7785 8.3615C16.7913 8.31436 16.8127 8.26293 16.8427 8.2115C16.8899 8.13436 16.8727 8.11293 16.787 8.14293C16.7681 8.14906 16.7513 8.16032 16.7384 8.17545C16.7256 8.19059 16.7172 8.209 16.7142 8.22864C16.7142 8.24578 16.697 8.25007 16.6799 8.2415L16.6585 8.23293V8.22864C16.6828 8.19417 16.6999 8.15514 16.7087 8.1139C16.7175 8.07265 16.7179 8.03005 16.7099 7.98864L16.8299 7.95864C16.8599 7.95007 16.8727 7.93293 16.8727 7.90293V7.23007C16.8727 7.17864 16.8985 7.15293 16.9456 7.15293H17.6313C17.6742 7.15293 17.6956 7.17436 17.6956 7.21721L17.7085 8.50721Z" fill="white"/>
<path d="M11.22 8.78564H10.3928L10.4014 8.05707C10.4014 7.99278 10.4357 7.9585 10.5 7.9585L11.16 7.97135C11.1985 7.97135 11.2157 7.9885 11.2157 8.02707L11.22 8.78564Z" fill="#AB8A67"/>
<path d="M16.6929 7.97559L16.71 7.98844C16.7272 8.07416 16.71 8.1513 16.6586 8.22844L16.68 8.2413C16.6972 8.24987 16.71 8.24559 16.7143 8.22416C16.7229 8.1813 16.7486 8.15559 16.7872 8.13844C16.8729 8.11273 16.89 8.13844 16.8429 8.2113C16.8129 8.26273 16.7915 8.31416 16.7786 8.3613C16.3157 8.4213 15.8486 8.49844 15.3857 8.58844C15.2657 8.61416 15.0857 8.64416 14.8415 8.68273L14.4515 8.74273C14.34 8.76416 14.1986 8.8113 14.0315 8.88844C13.7957 8.99559 13.56 9.04701 13.3157 9.04273C13.1272 9.03844 12.9429 9.06416 12.7629 9.11987C12.739 9.12623 12.7139 9.12623 12.69 9.11987L12.5829 9.09416C12.5728 9.09146 12.5623 9.09083 12.552 9.0923C12.5417 9.09378 12.5318 9.09732 12.5229 9.10273L12.4329 9.16273C12.24 9.27844 12.09 9.35559 11.9786 9.38987C11.4043 9.56559 10.8343 9.74987 10.2643 9.94273C10.2343 9.9513 10.2129 9.96844 10.2043 9.98559C10.1872 10.0113 10.2 10.0413 10.2343 10.0713C10.2129 10.0713 10.2 10.0756 10.1915 10.0842C9.70501 9.94086 9.198 9.88001 8.69146 9.90416C8.65717 9.90416 8.64003 9.89559 8.63574 9.87844C8.63574 9.85701 8.63574 9.83559 8.65717 9.79701C8.74289 9.72844 8.80289 9.63844 8.8286 9.5313C8.8286 9.52273 8.83288 9.51844 8.84146 9.52273L8.86289 9.52701V9.53559C8.80289 9.6213 8.80289 9.69844 8.86289 9.76701C8.88003 9.78416 8.89717 9.78844 8.9186 9.78416C9.00431 9.76701 9.09003 9.76273 9.17146 9.77559C9.40717 9.80987 9.64289 9.85273 9.88717 9.89987C9.9086 9.89987 9.93003 9.89987 9.94717 9.8913C9.96144 9.88506 9.97449 9.87635 9.98574 9.86559C10.0003 9.8517 10.0179 9.84142 10.0372 9.83559C10.7186 9.60416 11.3572 9.39844 11.9529 9.20559C12 9.19273 12.0686 9.16273 12.1543 9.1113L12.2957 9.03416C12.3215 9.02559 12.3386 9.00844 12.3472 8.98273L12.3815 8.90987C12.3943 8.87987 12.4115 8.87559 12.4372 8.89273C12.54 8.96559 12.6515 8.9913 12.7715 8.9613C12.93 8.91844 13.1315 8.89701 13.3757 8.88416C13.4615 8.87987 13.4915 8.84559 13.47 8.78987C13.59 8.76844 13.7657 8.73416 13.9972 8.68273L14.5886 8.56701C15.1543 8.4813 15.7115 8.37844 16.26 8.26701C16.3029 8.25844 16.3415 8.23273 16.3672 8.18987C16.3886 8.15987 16.41 8.15987 16.4229 8.18987L16.4872 8.29701C16.5172 8.34416 16.5386 8.33987 16.56 8.29701L16.6886 7.97559H16.6929Z" fill="#E32262"/>
<path d="M16.95 8.37849C16.92 8.42135 16.9157 8.45564 16.9414 8.47707C16.9543 8.48992 16.98 8.49849 17.0143 8.49849C17.1814 8.49849 17.3014 8.50706 17.3743 8.52421L18.1757 8.75135L18.6514 9.30421C18.75 9.98135 18.5657 10.4956 18.0943 10.8556C17.8286 11.0142 17.58 11.1728 17.3529 11.3399C17.3142 11.3696 17.2797 11.4041 17.25 11.4428L17.2243 11.4771C17.1939 11.5135 17.1559 11.5428 17.1129 11.5628L16.5214 11.8328C16.38 11.9828 16.2343 12.0814 16.08 12.1328L15.7972 12.2399C15.6943 12.2956 15.6172 12.3685 15.57 12.4542C15.48 12.6085 15.4372 12.7756 15.4414 12.9471C15.3214 13.1014 15.27 13.2685 15.2829 13.4485C15.1972 13.4485 15.15 13.3756 15.15 13.2171L15.24 12.8656C15.247 12.8419 15.247 12.8166 15.24 12.7928C15.2155 12.7235 15.2155 12.6478 15.24 12.5785C15.2529 12.5442 15.24 12.5356 15.21 12.5485C15.12 12.5914 15.0772 12.6471 15.0814 12.7199C15.0643 12.7499 15.0343 12.7628 14.9914 12.7585L14.9529 12.5571C14.9486 12.5271 14.9314 12.5142 14.9014 12.5228L13.2386 13.0842C12.9986 13.1056 12.8786 13.0671 12.8743 12.9685C12.9943 12.9256 13.1143 12.8914 13.2386 12.8785C13.2816 12.8766 13.3232 12.8628 13.3588 12.8386C13.3944 12.8144 13.4225 12.7807 13.44 12.7414C13.453 12.7118 13.4757 12.6876 13.5043 12.6728C13.5557 12.6428 13.6072 12.6085 13.6543 12.5699C13.7829 12.4628 13.7743 12.4414 13.62 12.5142C13.5772 12.5314 13.5129 12.5314 13.4186 12.5142L13.5857 12.3856C13.6414 12.3856 13.7186 12.3428 13.8214 12.2571C13.9457 12.1456 14.19 12.0128 14.5629 11.8671C14.7429 11.7942 14.9057 11.6742 15.0514 11.5071C15.0772 11.4771 15.0729 11.4556 15.0386 11.4385C15.0086 11.4256 14.9957 11.3999 15 11.3699C15.06 10.9671 15.1457 10.6371 15.2657 10.3799C15.4263 10.0341 15.5666 9.67924 15.6857 9.31706C15.6857 9.29135 15.6729 9.27421 15.6429 9.27421C15.5314 9.26135 15.42 9.27421 15.3214 9.31706L14.9143 9.41992L14.7729 9.41135C14.7472 9.41135 14.7472 9.39849 14.7643 9.38564C14.8872 9.28335 15.0262 9.20224 15.1757 9.14564C15.0472 9.15421 14.9186 9.18849 14.7943 9.23992C14.7643 9.25278 14.7257 9.28278 14.6786 9.32564C14.6381 9.36502 14.59 9.39566 14.5372 9.41564C14.4643 9.44135 14.3486 9.47135 14.1943 9.51421C13.7829 9.62564 13.4914 9.71992 13.3072 9.80135C13.1786 9.86135 13.0372 9.91707 12.8957 9.97278C12.8229 9.99849 12.7843 10.0456 12.7757 10.1142C12.7757 10.1399 12.7672 10.1656 12.7586 10.1914L12.7072 10.3199C12.6986 10.3499 12.6857 10.3499 12.6729 10.3199L12.6557 10.2899C12.6429 10.2599 12.63 10.2556 12.6086 10.2814C12.5904 10.3002 12.5785 10.3241 12.5743 10.3499C12.57 10.3799 12.5829 10.4014 12.6129 10.4056C12.7543 10.4399 12.87 10.4185 12.9686 10.3371L13.5729 10.2985C13.7914 10.3499 14.01 10.3842 14.2286 10.3971C14.2414 10.3971 14.25 10.4056 14.2543 10.4142C14.2672 10.4314 14.2629 10.4399 14.2414 10.4442L13.9843 10.4699C13.9262 10.4546 13.8649 10.4576 13.8086 10.4785L13.6372 10.5342C13.5271 10.5678 13.4197 10.6093 13.3157 10.6585C13.4872 10.6414 13.65 10.6071 13.8086 10.5642C13.8514 10.5514 13.8686 10.5942 13.8557 10.6928C13.7486 10.7271 13.7143 10.7571 13.7486 10.7785C13.3972 10.9242 13.0329 11.0485 12.66 11.1514C12.6086 11.1685 12.5357 11.2028 12.4457 11.2585C12.3814 11.3014 12.3257 11.3356 12.2872 11.3528C12.277 11.3558 12.2678 11.3614 12.2604 11.3688C12.2529 11.3763 12.2474 11.3855 12.2443 11.3956L12.1457 11.7085C12.1414 11.7342 12.1457 11.7514 12.1629 11.7728C12.2186 11.8285 12.2272 11.8928 12.1886 11.9656C12.179 11.9851 12.1641 12.0014 12.1457 12.0128C12.1218 12.0228 12.1017 12.0404 12.0886 12.0628C12.0754 12.0852 12.0699 12.1113 12.0729 12.1371C12.0857 12.2828 12.03 12.3899 11.9186 12.4499C11.9003 12.4596 11.8854 12.4745 11.8757 12.4928C11.8072 12.6342 11.7472 12.7714 11.7043 12.9128C11.7015 12.9246 11.6962 12.9356 11.6888 12.9452C11.6815 12.9548 11.6721 12.9628 11.6614 12.9685C11.5843 13.0156 11.5243 13.0842 11.4772 13.1742C11.4686 13.1956 11.4772 13.2085 11.49 13.2171C11.4777 13.2263 11.4625 13.2309 11.4472 13.2299H11.4172C11.4031 13.2336 11.3883 13.2336 11.3743 13.2299L11.3872 13.1356C11.3957 12.9985 11.3657 12.9899 11.2972 13.1056C11.2202 13.2267 11.1416 13.3467 11.0614 13.4656L11.0443 13.4571C11.0314 13.4485 11.0314 13.4356 11.0443 13.4228C11.07 13.3842 11.0914 13.3371 11.1 13.2899C11.1129 13.2471 11.1 13.2471 11.07 13.2728C11.0092 13.3332 10.9687 13.4111 10.9543 13.4956C10.9543 13.5256 10.9586 13.5471 10.98 13.5642L11.1086 13.6799C11.1086 13.7099 11.0914 13.7356 11.0657 13.7656C11.018 13.7315 10.9641 13.7068 10.9072 13.6928C10.8643 13.6928 10.83 13.6971 10.7914 13.7099C10.7814 13.7148 10.7704 13.7174 10.7593 13.7174C10.7481 13.7174 10.7372 13.7148 10.7272 13.7099C10.6843 13.6842 10.6886 13.6585 10.7272 13.6242C10.7014 13.4871 10.5772 13.4099 10.3629 13.3842C10.302 13.377 10.2435 13.3565 10.1914 13.3242C10.17 13.3071 10.1486 13.3114 10.1272 13.3285C10.1014 13.3542 10.0972 13.3885 10.1229 13.4228C10.1272 13.4442 10.1057 13.4571 10.05 13.4656C10.0286 13.4399 9.99858 13.4228 9.95144 13.4185C9.84429 13.4356 9.72858 13.4014 9.60001 13.3071C9.54429 13.1656 9.45429 13.1056 9.32144 13.1228L9.07287 12.9342C8.83747 12.6886 8.53731 12.5148 8.20715 12.4328C8.03572 12.3899 7.91572 12.4456 7.85572 12.6042C7.76572 12.8442 7.67572 13.0328 7.58144 13.1785L7.49144 13.2814C7.50001 13.1914 7.49144 13.1228 7.46144 13.0842C7.41858 13.0285 7.38858 13.0328 7.36287 13.0928C7.29858 13.2599 7.21715 13.3928 7.11858 13.4999L6.90429 13.9071C6.92144 13.7056 6.96858 13.5128 7.05001 13.3285C7.06287 13.3071 7.05429 13.2942 7.02858 13.3028C7.01572 13.3028 7.00715 13.3114 7.00287 13.3242L6.72001 13.8299L6.47144 14.2199H6.46715L6.44572 14.2114C6.43715 14.2114 6.43715 14.2028 6.43715 14.1942L6.54001 13.7914L6.81429 12.8914L6.84001 12.7628C6.84429 12.7414 6.84001 12.7285 6.81429 12.7328C6.64287 12.7328 6.48001 12.7671 6.34287 12.8271C6.24858 12.8699 6.12001 12.9385 5.95715 13.0371L5.77287 13.0542C5.75572 13.0542 5.74715 13.0456 5.74715 13.0328L5.74287 13.0114C5.74287 12.9985 5.74287 12.9942 5.75572 12.9899C5.78603 12.9796 5.81804 12.9752 5.85001 12.9771C5.87572 12.9771 5.89287 12.9642 5.89287 12.9385L5.89715 12.8571H5.91858L5.96144 12.8399C6.18429 12.6685 6.42001 12.5099 6.66858 12.3685C6.79399 12.3028 6.90515 12.213 6.99563 12.1041C7.08611 11.9952 7.15411 11.8695 7.19572 11.7342C7.26858 11.4599 7.35858 11.1985 7.46572 10.9542C7.47503 10.9308 7.47503 10.9047 7.46572 10.8814L7.42287 10.7528C7.44858 10.7228 7.45715 10.6971 7.45715 10.6799C7.45287 10.6671 7.43572 10.6585 7.40572 10.6542C7.13036 10.6405 6.85532 10.6873 6.60001 10.7914L6.49715 10.8128C6.46189 10.7937 6.43232 10.7656 6.41144 10.7314C6.40541 10.7213 6.39637 10.7134 6.3856 10.7088C6.37483 10.7042 6.36287 10.7031 6.35144 10.7056H6.30858C6.29505 10.7114 6.28011 10.7128 6.26572 10.7099L5.39572 10.9328C5.38715 10.9328 5.37858 10.9328 5.37429 10.9156L5.36572 10.8814C5.36572 10.8685 5.36572 10.8599 5.37858 10.8556L5.73429 10.7228L5.80715 10.6756L5.88001 10.6328C6.48693 10.3925 7.10987 10.1949 7.74429 10.0414C7.75996 10.0377 7.77429 10.0298 7.78566 10.0184C7.79703 10.0071 7.80497 9.99273 7.80858 9.97707L7.92001 9.60849L8.23286 8.98706C8.23286 8.98278 8.24144 8.97849 8.24572 8.98278L8.26287 8.99135C8.27572 8.99135 8.28001 9.00421 8.27144 9.01278C8.19001 9.19278 8.14287 9.37706 8.13001 9.56992C8.13001 9.63849 8.14287 9.64707 8.18144 9.58707C8.27144 9.45849 8.34001 9.32135 8.39144 9.17135C8.39144 9.16278 8.40001 9.15849 8.40858 9.16278C8.42144 9.16278 8.42144 9.17135 8.42144 9.17992L8.32715 9.55706C8.28858 9.68564 8.29715 9.75849 8.35287 9.77135C8.30382 9.82393 8.26462 9.8849 8.23715 9.95135C8.22429 9.97706 8.23287 9.98564 8.25858 9.97707C8.31429 9.95992 8.37429 9.89992 8.44287 9.79707L8.50715 9.70706C8.53715 9.73278 8.56287 9.74992 8.58429 9.74564C8.60572 9.74135 8.61001 9.72849 8.59715 9.71135L8.53715 9.62992C8.53197 9.62249 8.52884 9.61382 8.52809 9.60478C8.52734 9.59575 8.52899 9.58668 8.53287 9.57849C8.55001 9.53564 8.58858 9.51421 8.64858 9.50992C8.70001 9.50992 8.71287 9.52706 8.68287 9.56564C8.61001 9.65992 8.60144 9.73707 8.65715 9.79707C8.64001 9.83135 8.63144 9.85706 8.63572 9.87849C8.63572 9.89564 8.65715 9.90421 8.69144 9.90421C8.87144 9.91278 9.05144 9.91706 9.23144 9.91278C9.40715 9.91278 9.72858 9.96849 10.1914 10.0842L10.26 10.1699C10.4829 10.3456 10.5514 10.5256 10.4657 10.7099C10.3886 10.8685 10.2214 11.0399 9.95572 11.2242C9.83144 11.3099 9.74144 11.3785 9.68572 11.4299L9.37287 11.7042C9.255 11.8014 9.12542 11.8835 8.98715 11.9485C8.95715 11.9656 8.95715 11.9871 8.98715 12.0042C9.06001 12.0556 9.13715 12.0856 9.23144 12.0985L10.2557 12.8271L10.6543 13.2385C10.6843 13.2642 10.71 13.2814 10.7314 13.2814C10.7572 13.2814 10.7743 13.2685 10.7786 13.2428L11.1514 11.8885C11.1595 11.857 11.1565 11.8237 11.1429 11.7942C11.13 11.7642 11.1386 11.7428 11.1686 11.7256C11.1868 11.7144 11.2028 11.6999 11.2157 11.6828C11.2457 11.6442 11.2372 11.6314 11.19 11.6356C11.1241 11.6429 11.0624 11.6715 11.0143 11.7171L10.3714 11.9314C10.3457 11.9356 10.3286 11.9314 10.3157 11.9056C10.3072 11.8842 10.3114 11.8456 10.3329 11.7942H10.4486C10.4415 11.8034 10.4358 11.8135 10.4314 11.8242C10.4186 11.8499 10.4314 11.8585 10.4529 11.8542C10.4914 11.8453 10.5276 11.8285 10.5593 11.8049C10.591 11.7813 10.6175 11.7514 10.6372 11.7171C10.71 11.6271 10.8086 11.5585 10.9243 11.5114C10.9372 11.5114 10.9414 11.5028 10.9372 11.4899L10.9243 11.4556C10.92 11.4428 10.9114 11.4385 10.8943 11.4428L10.5686 11.5714C10.5454 11.5802 10.5203 11.5831 10.4957 11.5799C10.4214 11.5678 10.3453 11.5722 10.2729 11.5928C10.23 11.5628 10.23 11.5242 10.2857 11.4771C10.3029 11.4642 10.3029 11.4556 10.2814 11.4471C10.2762 11.4441 10.2703 11.4425 10.2643 11.4425C10.2583 11.4425 10.2524 11.4441 10.2472 11.4471C10.1657 11.4899 10.08 11.5156 9.99001 11.5328C9.99858 11.5199 9.99429 11.5071 9.99001 11.4899C9.99001 11.4685 9.99429 11.4514 10.0157 11.4428L10.1057 11.3914C10.5628 11.231 11.0094 11.042 11.4429 10.8256C11.5114 10.7914 11.55 10.7485 11.5629 10.6971C11.5929 10.5814 11.6272 10.4614 11.6743 10.3371C11.7 10.3071 11.7172 10.2599 11.7172 10.1956C11.7172 10.1399 11.73 10.0971 11.7514 10.0671V10.0414C11.7455 10.0361 11.7379 10.0331 11.73 10.0328C11.7215 10.03 11.7122 10.0308 11.7042 10.0348C11.6962 10.0388 11.6901 10.0457 11.6872 10.0542C11.6443 10.1442 11.5586 10.1828 11.43 10.1614C11.4553 10.1161 11.4943 10.0801 11.5414 10.0585C11.5351 10.0551 11.5293 10.0507 11.5243 10.0456C11.521 10.0438 11.5173 10.0428 11.5136 10.0428C11.5098 10.0428 11.5061 10.0438 11.5029 10.0456L11.1772 10.1442L10.8343 10.2471L10.5986 10.2685L10.5557 10.2471C10.6135 10.226 10.6641 10.1888 10.7014 10.1399C10.7143 10.1185 10.71 10.0971 10.6843 10.0928C10.5986 10.0628 10.5 10.0628 10.3843 10.0885L10.23 10.0756C10.2 10.0414 10.1872 10.0114 10.2043 9.98564C10.2129 9.96849 10.2343 9.95135 10.2686 9.94278C10.8343 9.74992 11.4043 9.56564 11.9786 9.38992C12.1732 9.32157 12.3566 9.22481 12.5229 9.10278C12.5443 9.09421 12.5657 9.08992 12.5829 9.09421L12.69 9.11992H12.7629C12.9429 9.06421 13.1272 9.03421 13.32 9.04278C13.5557 9.04278 13.7957 8.99564 14.0314 8.88849C14.2029 8.81135 14.34 8.75992 14.4514 8.74278L14.8372 8.68278C15.0857 8.63992 15.2657 8.61421 15.3857 8.58849C15.8486 8.49849 16.3157 8.41706 16.7786 8.36135C16.8129 8.38278 16.8472 8.36564 16.8857 8.31421C16.8986 8.28849 16.9157 8.28849 16.9329 8.31421C16.9414 8.32706 16.95 8.34849 16.95 8.37849Z" fill="#E645F4"/>
<path d="M16.95 8.37869C16.9886 8.37869 17.0272 8.37869 17.0743 8.37012C17.1129 8.37012 17.1514 8.37012 17.19 8.37869L17.7043 8.50726C17.9014 8.5544 18.0557 8.63583 18.1757 8.75155L17.3743 8.5244C17.2559 8.50049 17.1349 8.49185 17.0143 8.49869C16.98 8.49869 16.9543 8.49012 16.9414 8.47726C16.9157 8.45583 16.92 8.42155 16.95 8.37869Z" fill="#E32262"/>
<path d="M7.15719 8.7985L10.3929 8.78564H13.4701C13.4915 8.84564 13.4615 8.87993 13.3758 8.88422C13.1315 8.89707 12.9301 8.92279 12.7758 8.96136C12.7172 8.97707 12.6558 8.97905 12.5963 8.96716C12.5369 8.95526 12.4809 8.92981 12.4329 8.89279C12.4115 8.87564 12.3901 8.87993 12.3815 8.90993L12.3472 8.98279C12.3425 8.99434 12.3355 9.00483 12.3266 9.01366C12.3178 9.02249 12.3073 9.02948 12.2958 9.03422L12.1543 9.11136C12.0686 9.1585 12.0001 9.19279 11.9529 9.20564C11.3529 9.3985 10.7186 9.60422 10.0372 9.83564C10.0179 9.84148 10.0003 9.85176 9.98577 9.86564C9.97446 9.87634 9.96142 9.88504 9.94719 9.89136C9.92851 9.90018 9.9076 9.90316 9.88719 9.89993C9.64968 9.85261 9.41104 9.81117 9.17148 9.77564C9.08577 9.76279 9.00005 9.76707 8.91862 9.78422C8.89719 9.7885 8.87577 9.78422 8.86291 9.76707C8.80291 9.6985 8.80291 9.62136 8.86291 9.53564V9.52707L8.84148 9.52279C8.83291 9.5185 8.82862 9.52279 8.82434 9.53136C8.80291 9.6385 8.74291 9.7285 8.65291 9.79707C8.60148 9.73707 8.61005 9.65993 8.68291 9.56564C8.71291 9.52707 8.70005 9.50993 8.64862 9.50993C8.58862 9.51422 8.55005 9.53564 8.53291 9.5785C8.52903 9.58669 8.52738 9.59576 8.52813 9.60479C8.52889 9.61382 8.53201 9.6225 8.53719 9.62993L8.59719 9.71564C8.61005 9.7285 8.60577 9.74136 8.58434 9.74564C8.56291 9.74564 8.53719 9.73279 8.50719 9.70279C8.45148 9.64279 8.42148 9.62136 8.40434 9.64707L8.32719 9.55707L8.42148 9.17993C8.42148 9.17136 8.42148 9.16279 8.40862 9.16279C8.40005 9.1585 8.39148 9.16279 8.39148 9.17136C8.34005 9.32136 8.27148 9.46279 8.18148 9.58707C8.14291 9.64707 8.12577 9.6385 8.13005 9.56993C8.14291 9.37707 8.19005 9.19279 8.27148 9.01279C8.28005 9.00422 8.27148 8.99564 8.26291 8.99136L8.24577 8.98279L8.23291 8.98707L7.92005 9.6085C7.98166 9.36209 8.04595 9.11637 8.11291 8.87136H8.10862C8.09577 8.87136 8.08719 8.87136 8.08719 8.88422C8.01862 9.06422 7.95005 9.22707 7.87291 9.37279C7.78722 9.5302 7.71275 9.69346 7.65005 9.86136C7.64625 9.87178 7.63997 9.88113 7.63176 9.8886C7.62355 9.89606 7.61365 9.90142 7.60291 9.90422L6.33862 10.2471L6.34291 9.5785L6.35148 8.83279C6.35148 8.80707 6.36434 8.79422 6.39005 8.79422H7.15719V8.7985Z" fill="black"/>
<path d="M7.91988 9.60862L7.80845 9.97719C7.80484 9.99285 7.7969 10.0072 7.78553 10.0186C7.77417 10.0299 7.75983 10.0379 7.74417 10.0415C7.08393 10.2057 6.43651 10.4176 5.80702 10.6758L5.73417 10.7229C5.65274 10.6843 5.54988 10.6929 5.42131 10.7529C5.38702 10.7658 5.36131 10.7658 5.34417 10.7529C5.32274 10.7358 5.32702 10.7186 5.34845 10.71L5.91417 10.4058C6.05988 10.3843 6.20131 10.3329 6.33845 10.2472L7.60274 9.90433C7.62417 9.89576 7.64131 9.8829 7.64988 9.86147L7.67988 9.78433C7.75274 9.60862 7.81274 9.47147 7.86845 9.3729C7.94988 9.23147 8.01845 9.06433 8.08274 8.88433C8.08702 8.87147 8.09559 8.86719 8.10845 8.86719L8.11274 8.87147V8.88862L7.91988 9.60862Z" fill="#E32262"/>
<path d="M14.3228 9.23138C14.4214 9.20996 14.4986 9.17567 14.4943 9.15853C14.49 9.14138 14.4086 9.14567 14.3057 9.1671C14.2071 9.18853 14.1343 9.22281 14.1343 9.23996C14.1428 9.26138 14.2243 9.2571 14.3228 9.23138Z" fill="#AB8A67"/>
<path d="M14.9144 9.41979L14.6915 9.59551C14.6704 9.6137 14.6455 9.62689 14.6186 9.63408C14.0444 9.75836 13.5986 9.89979 13.2901 10.0541C13.2258 10.0841 13.1615 10.1055 13.0929 10.1227C13.0707 10.1267 13.0508 10.1389 13.0372 10.1569C13.0286 10.1698 13.0286 10.1784 13.0329 10.1827C12.9901 10.2512 12.9729 10.3027 12.9729 10.3369C12.923 10.3767 12.8641 10.4036 12.8014 10.4156C12.7387 10.4275 12.674 10.4241 12.6129 10.4055C12.5829 10.4012 12.5701 10.3798 12.5701 10.3498C12.5754 10.3235 12.5889 10.2995 12.6086 10.2812C12.6301 10.2555 12.6472 10.2598 12.6558 10.2898L12.6729 10.3198C12.6858 10.3498 12.6986 10.3498 12.7072 10.3198L12.7586 10.1912C12.7678 10.1664 12.7735 10.1404 12.7758 10.1141C12.7844 10.0455 12.8229 9.99837 12.8958 9.97265C13.0372 9.91694 13.1744 9.86122 13.3072 9.80122C13.4915 9.71551 13.7829 9.62122 14.1901 9.51408C14.3486 9.47122 14.4644 9.44122 14.5372 9.41551C14.5758 9.40694 14.6229 9.37265 14.6786 9.32979C14.7215 9.28265 14.7644 9.25265 14.7944 9.24408C14.9159 9.18807 15.0466 9.15466 15.1801 9.14551C15.0258 9.20122 14.8886 9.28265 14.7644 9.38551C14.7472 9.39836 14.7472 9.40694 14.7729 9.41122L14.9144 9.41979ZM17.5886 9.38122L17.5844 9.41551C17.5844 9.42836 17.5715 9.44122 17.5586 9.44551C17.5415 9.45408 17.5329 9.44551 17.5329 9.43265L16.9929 9.40265C16.9672 9.40265 16.9501 9.41551 16.9415 9.44551L16.9029 9.58265C16.8986 9.59979 16.8901 9.59979 16.8815 9.58694C16.8763 9.58362 16.872 9.57924 16.8686 9.57408C16.8686 9.56551 16.8601 9.56122 16.8515 9.56122C16.8172 9.56122 16.7915 9.57836 16.7786 9.60408C16.7701 9.63408 16.7529 9.63837 16.7358 9.61265C16.7281 9.59573 16.7163 9.581 16.7015 9.56979C16.6586 9.53979 16.6415 9.54836 16.6586 9.60408L16.6672 9.62122C16.6715 9.64694 16.6886 9.65551 16.7101 9.65122C16.7529 9.63837 16.7958 9.64265 16.8344 9.66836C16.8601 9.68551 16.8686 9.71122 16.8601 9.73694C16.8538 9.76502 16.8369 9.7896 16.8129 9.80551C16.8035 9.81171 16.7955 9.81992 16.7896 9.82955C16.7837 9.83918 16.7799 9.84999 16.7786 9.86122C16.773 9.91057 16.7585 9.95848 16.7358 10.0027C16.6715 10.0541 16.6201 10.1184 16.5858 10.1955C16.5758 10.214 16.57 10.2345 16.5686 10.2555C16.5686 10.2812 16.5601 10.2984 16.5386 10.3027C16.4958 10.3155 16.4915 10.3369 16.5258 10.3584C16.5558 10.3798 16.5772 10.3841 16.5901 10.3798L16.4529 10.7398C16.4444 10.7612 16.4315 10.7698 16.4101 10.7698C16.3672 10.7698 16.3415 10.7869 16.3201 10.8255C16.2986 10.8684 16.3072 10.8684 16.3372 10.8384C16.3886 10.7869 16.4315 10.7784 16.4615 10.8084C16.4144 10.8769 16.3758 10.9627 16.3501 11.0655C16.3072 11.1169 16.2729 11.1512 16.2429 11.1512C16.2228 11.155 16.2021 11.153 16.1831 11.1455C16.1641 11.1379 16.1477 11.125 16.1358 11.1084C16.123 11.0913 16.1154 11.0709 16.1139 11.0496C16.1124 11.0284 16.117 11.0071 16.1272 10.9884C16.2129 10.7998 16.2944 10.6027 16.3629 10.3927C16.3763 10.3565 16.4002 10.3251 16.4315 10.3027C16.4572 10.2812 16.4572 10.2598 16.4315 10.2427L16.3586 10.1912C16.5686 10.1141 16.6286 9.98979 16.5386 9.82694C16.5901 9.76694 16.6029 9.70694 16.5815 9.64694C16.5686 9.62551 16.5644 9.60408 16.5644 9.59551C16.5686 9.56979 16.5858 9.55265 16.6072 9.55694C16.6501 9.55694 16.6586 9.54408 16.6501 9.50979L16.6458 9.47979C16.6458 9.43694 16.6672 9.40694 16.6972 9.38551C16.7401 9.35551 16.7658 9.32122 16.7829 9.27408C16.7872 9.26002 16.7956 9.24759 16.8071 9.23842C16.8186 9.22924 16.8326 9.22374 16.8472 9.22265C17.1129 9.19694 17.3615 9.24836 17.5886 9.38122ZM15.6386 9.45408L15.4158 9.50979C15.2236 9.53803 15.0321 9.57089 14.8415 9.60836V9.59979C14.8415 9.59122 14.8458 9.58265 14.8586 9.57837C15.0172 9.50979 15.1715 9.41979 15.3215 9.32122C15.4201 9.27836 15.5315 9.26122 15.6472 9.27408C15.6729 9.27408 15.6858 9.29122 15.6858 9.31694C15.6858 9.35979 15.6686 9.40694 15.6386 9.45408Z" fill="#DBF127"/>
<path d="M15.3213 9.31738C15.1713 9.42024 15.0171 9.51024 14.8585 9.57881C14.8456 9.5831 14.8413 9.59167 14.8413 9.60024V9.60881C14.8456 9.61738 14.8499 9.61738 14.8585 9.61738C15.0385 9.57453 15.2271 9.54453 15.4156 9.51024C15.3856 9.66881 15.3471 9.78881 15.3085 9.87024C15.1242 10.2217 14.9828 10.5774 14.8713 10.9417C14.8585 10.9931 14.8499 11.0402 14.8542 11.0917C14.8542 11.156 14.8413 11.216 14.8113 11.2717C14.7771 11.3231 14.7899 11.3574 14.8542 11.366C14.8713 11.3702 14.8885 11.366 14.9056 11.3488C14.9228 11.336 14.9271 11.3402 14.9228 11.3617V11.3874C14.7299 11.5802 14.4771 11.7302 14.1599 11.8331C14.0617 11.8713 13.9693 11.9232 13.8856 11.9874C13.7999 12.0474 13.7313 12.0902 13.6799 12.116C13.6563 12.1266 13.6367 12.1447 13.6242 12.1674C13.5642 12.2617 13.4228 12.3431 13.1913 12.4117C13.1485 12.4202 13.1485 12.4331 13.1913 12.4417C13.2216 12.4536 13.2553 12.4536 13.2856 12.4417C13.3928 12.386 13.4956 12.3645 13.5856 12.386L13.4185 12.5145L13.2728 12.566C13.2428 12.5745 13.2428 12.5874 13.2728 12.596C13.2899 12.6045 13.3071 12.6045 13.3242 12.596C13.3585 12.5788 13.3671 12.5917 13.3628 12.626C13.3628 12.6431 13.3499 12.656 13.3328 12.6645C13.1613 12.746 12.9685 12.806 12.7585 12.8402L11.9871 12.8274C12.0085 12.686 12.0685 12.596 12.1628 12.566C12.1758 12.5618 12.1877 12.5546 12.1974 12.5449C12.2071 12.5352 12.2143 12.5233 12.2185 12.5102C12.2528 12.416 12.2613 12.3217 12.2313 12.2274C12.2289 12.2187 12.2292 12.2095 12.2323 12.201C12.2354 12.1926 12.241 12.1853 12.2485 12.1802C12.2571 12.1737 12.2678 12.1707 12.2785 12.1717C12.2913 12.1717 12.2999 12.1802 12.2999 12.1931C12.2999 12.2017 12.2999 12.2102 12.3085 12.2145C12.3213 12.236 12.3342 12.2317 12.3385 12.2102C12.4242 11.9402 12.5228 11.6831 12.6471 11.4302C12.6599 11.4045 12.6771 11.3874 12.7071 11.3788C12.9873 11.281 13.2687 11.1867 13.5513 11.096C13.6885 11.0531 13.8171 10.9931 13.9456 10.9245C13.9542 10.9245 13.9542 10.916 13.9456 10.9074L13.9328 10.8902H13.9285C13.9002 10.9116 13.8653 10.9222 13.8299 10.9202C13.7871 10.9202 13.7871 10.9117 13.8256 10.8988C14.0613 10.8131 14.2885 10.7531 14.5071 10.706C14.5542 10.6974 14.5542 10.6888 14.5071 10.6845C14.2503 10.6694 13.9929 10.7028 13.7485 10.7831C13.7142 10.7574 13.7485 10.7274 13.8556 10.6931C13.9756 10.6717 14.0828 10.6288 14.1771 10.5731C14.1985 10.5602 14.1985 10.5517 14.1771 10.5474C14.1042 10.5302 14.0442 10.5045 13.9842 10.4702L14.2413 10.4445C14.2628 10.4445 14.2671 10.4317 14.2542 10.4145C14.2499 10.406 14.2413 10.4017 14.2285 10.3974C14.0077 10.3818 13.7884 10.3488 13.5728 10.2988L13.7142 10.2131C13.7399 10.1917 13.7356 10.1831 13.7056 10.1831H13.0285C13.0242 10.1788 13.0285 10.1702 13.0328 10.1574C13.0464 10.1394 13.0663 10.1271 13.0885 10.1231C13.1571 10.106 13.2213 10.0802 13.2813 10.0545C13.5942 9.90024 14.0399 9.75453 14.6099 9.63453C14.6383 9.62795 14.6648 9.61473 14.6871 9.59595L14.9099 9.42024L15.3171 9.31738H15.3213Z" fill="black"/>
<path d="M18.6513 9.2998C18.7971 9.39838 18.8656 9.57409 18.8571 9.82695C18.8519 10.1639 18.741 10.4908 18.5399 10.7612C18.5299 10.7739 18.5226 10.7885 18.5185 10.8041L18.5142 10.8641H18.4713L18.1113 11.1941C17.9228 11.2927 17.7813 11.4084 17.6871 11.5369C17.6032 11.5507 17.5255 11.5895 17.4642 11.6484C17.4407 11.6759 17.4115 11.6978 17.3785 11.7127C17.0056 11.8584 16.7013 12.0169 16.4656 12.1884C16.3713 12.2569 16.2771 12.2955 16.1785 12.3084C16.1656 12.3084 16.1613 12.3084 16.1613 12.2955V12.2655C16.1613 12.2484 16.1528 12.2441 16.1399 12.2398C16.1313 12.2398 16.1228 12.2398 16.1142 12.2484C16.1013 12.2569 16.0971 12.2698 16.1056 12.2827L16.1228 12.3041C16.1571 12.3298 16.1528 12.3469 16.1142 12.3555C15.9342 12.4069 15.8142 12.4841 15.7713 12.5955C15.6385 12.8912 15.5228 13.1955 15.4285 13.5084L15.3428 13.4869C15.4242 13.2855 15.4542 13.1055 15.4413 12.9469C15.4371 12.7755 15.4799 12.6084 15.5699 12.4541C15.6171 12.3684 15.6942 12.2955 15.7971 12.2398C15.8056 12.2355 15.8999 12.1969 16.0799 12.1369C16.2342 12.0812 16.3799 11.9827 16.5213 11.8369C16.5771 11.8455 16.6071 11.8969 16.5985 11.9827C16.5985 12.0469 16.5985 12.0469 16.6156 11.9827L16.6371 11.9398C16.6465 11.9228 16.6597 11.9081 16.6756 11.8969C16.8042 11.8112 16.9456 11.7427 17.0956 11.6869C17.2242 11.6398 17.3185 11.5669 17.3742 11.4684C17.3847 11.4508 17.3995 11.436 17.4171 11.4255C17.6742 11.2712 17.9013 11.0827 18.0899 10.8555C18.5613 10.4955 18.7499 9.98123 18.6513 9.30409V9.2998Z" fill="#DBF127"/>
<path d="M8.59293 9.38548C8.6033 9.37264 8.6165 9.36237 8.6315 9.35548C8.67436 9.34262 8.67864 9.35548 8.65293 9.38976C8.64603 9.3987 8.63725 9.40602 8.62721 9.41119C8.55436 9.44548 8.49007 9.48405 8.43007 9.53548C8.37436 9.57833 8.3615 9.56548 8.38721 9.50548C8.41721 9.43262 8.46864 9.39833 8.53721 9.40262C8.55864 9.40262 8.58007 9.39833 8.59293 9.38119V9.38548ZM17.5886 9.38119C17.7172 9.69405 17.6744 9.98976 17.4558 10.264C17.1653 10.6241 16.7834 10.8994 16.3501 11.0612C16.3758 10.9626 16.4144 10.8769 16.4615 10.8083C16.8443 10.6193 17.1753 10.3398 17.4258 9.99405C17.4772 9.92119 17.5115 9.73691 17.5329 9.43691C17.5329 9.44976 17.5415 9.45405 17.5586 9.44548C17.5652 9.44326 17.5711 9.4393 17.5756 9.43402C17.5802 9.42874 17.5832 9.42233 17.5844 9.41548V9.38119H17.5886Z" fill="#E32262"/>
<path d="M18.5013 9.51849C18.5013 9.59563 18.5099 9.65992 18.527 9.65992C18.5442 9.65992 18.5656 9.59992 18.5699 9.52278C18.5699 9.44563 18.5613 9.38135 18.5442 9.38135C18.527 9.38135 18.5056 9.44135 18.5013 9.51849ZM16.5813 9.44992C16.5813 9.4842 16.5642 9.49706 16.5299 9.49278C16.5042 9.48849 16.4956 9.47563 16.5042 9.44992C16.5085 9.43504 16.5167 9.42161 16.5281 9.41105C16.5394 9.40048 16.5533 9.39318 16.5685 9.38992C16.577 9.38992 16.5856 9.38992 16.5942 9.39849C16.6113 9.41992 16.607 9.43278 16.5856 9.44135L16.5813 9.44992Z" fill="#AB8A67"/>
<path d="M17.5329 9.433C17.5114 9.733 17.4771 9.92157 17.4257 9.99014C17.1758 10.3375 16.8447 10.6185 16.4614 10.8087C16.4314 10.7787 16.3886 10.7873 16.3329 10.8387C16.3071 10.8687 16.2986 10.8644 16.32 10.8259C16.3414 10.783 16.3714 10.7659 16.4143 10.7701C16.4314 10.7701 16.4443 10.7616 16.4529 10.7401L16.59 10.3801C16.6757 10.273 16.7229 10.1444 16.74 10.003C16.7571 9.96014 16.7743 9.91729 16.7786 9.86157C16.7786 9.83586 16.7914 9.81871 16.8129 9.80586C16.8343 9.78871 16.8557 9.763 16.86 9.73729C16.8686 9.70729 16.86 9.68586 16.8343 9.66871C16.8169 9.65685 16.7971 9.64914 16.7763 9.64616C16.7555 9.64319 16.7343 9.64504 16.7143 9.65157C16.6886 9.65586 16.6714 9.65157 16.6671 9.62157L16.6586 9.60443C16.6414 9.54871 16.6586 9.54014 16.7014 9.57014C16.7186 9.57871 16.7314 9.59586 16.74 9.613C16.7529 9.63871 16.77 9.63443 16.7829 9.60871C16.7914 9.57871 16.8171 9.56586 16.8514 9.56586C16.86 9.56586 16.8686 9.56586 16.8686 9.57443C16.8686 9.57871 16.8729 9.58729 16.8814 9.58729C16.89 9.60014 16.8986 9.60014 16.9029 9.58729L16.9414 9.44157C16.95 9.41586 16.9671 9.39871 16.9929 9.403L17.5329 9.433Z" fill="black"/>
<path d="M15.6385 9.4541C15.53 9.76882 15.4056 10.0778 15.2656 10.3798C15.1456 10.637 15.0599 10.967 14.9999 11.3655C14.9999 11.3998 15.0085 11.4255 15.0427 11.4384C15.0727 11.4555 15.077 11.4812 15.0513 11.507C14.9056 11.6741 14.7428 11.7941 14.5628 11.867C14.1899 12.0127 13.9456 12.1455 13.8213 12.2527C13.7185 12.3427 13.6413 12.3855 13.5856 12.3855C13.4956 12.3641 13.3928 12.3855 13.2856 12.4412C13.2553 12.4532 13.2216 12.4532 13.1913 12.4412C13.1485 12.4327 13.1485 12.4198 13.1913 12.4112C13.4228 12.3427 13.5642 12.2612 13.6199 12.167C13.637 12.1412 13.6542 12.1241 13.6799 12.1155C13.7313 12.0898 13.7999 12.047 13.8856 11.987C13.997 11.9055 14.087 11.8584 14.1599 11.8327C14.4464 11.7435 14.7078 11.5879 14.9228 11.3784C14.9208 11.3728 14.9208 11.3668 14.9228 11.3612C14.927 11.3398 14.9228 11.3355 14.9056 11.3484C14.8983 11.3554 14.8895 11.3607 14.8798 11.3636C14.8701 11.3666 14.8599 11.3673 14.8499 11.3655C14.7899 11.357 14.777 11.3227 14.807 11.2712C14.8389 11.2168 14.8538 11.1542 14.8499 11.0912C14.8499 11.0398 14.8585 10.9927 14.8713 10.937C14.9828 10.577 15.1285 10.2212 15.3085 9.86553C15.3513 9.78839 15.3856 9.66839 15.4156 9.50982L15.6385 9.4541Z" fill="#E32262"/>
<path d="M6.34282 9.57861L6.33854 10.2472C6.2014 10.3329 6.05997 10.3843 5.91425 10.4058L5.57997 10.3715C5.55425 10.3715 5.53711 10.3543 5.53711 10.3286V9.6729C5.53711 9.61718 5.56711 9.59147 5.61854 9.58718L6.34282 9.57861Z" fill="white"/>
<path d="M8.32714 9.55713L8.40428 9.64713L8.35285 9.7757C8.29714 9.75856 8.28856 9.6857 8.32714 9.55713Z" fill="#E32262"/>
<path d="M8.50711 9.70733L8.44282 9.79733C8.37425 9.90018 8.31425 9.96018 8.25854 9.97733C8.23282 9.9859 8.22425 9.97733 8.23711 9.95161C8.25854 9.89161 8.29711 9.8359 8.35282 9.7759L8.40425 9.64733C8.41711 9.62161 8.45139 9.64304 8.50711 9.70733Z" fill="#DBF127"/>
<path d="M16.5385 9.82715C16.6243 9.99001 16.5685 10.1143 16.3585 10.1914L16.26 10.1486C16.2085 10.1314 16.2085 10.1143 16.2643 10.1057L16.35 10.0971C16.38 10.0929 16.3971 10.0757 16.4014 10.0543C16.4228 9.95572 16.4657 9.88286 16.5385 9.82715Z" fill="#AB8A67"/>
<path d="M18.4928 10.0242C18.5056 9.98133 18.5142 9.92991 18.5099 9.87848C18.5099 9.86133 18.5185 9.85276 18.5356 9.85705H18.5614C18.5656 9.86133 18.5699 9.86562 18.5656 9.87419C18.5058 10.1092 18.401 10.3305 18.2571 10.5256C18.2485 10.5342 18.2356 10.5385 18.2228 10.5256L18.2056 10.5128C18.1971 10.5085 18.1971 10.4999 18.2056 10.4913C18.2999 10.3756 18.3642 10.2513 18.3985 10.1185C18.4071 10.0928 18.4242 10.0756 18.4414 10.0628L18.4671 10.0542C18.4733 10.0513 18.4788 10.0472 18.4832 10.042C18.4877 10.0368 18.4909 10.0308 18.4928 10.0242Z" fill="#DBF127"/>
<path d="M16.7401 10.0029C16.7268 10.1403 16.6748 10.2711 16.5901 10.3801C16.5772 10.3844 16.5558 10.3801 16.5258 10.3586C16.4915 10.3372 16.4915 10.3158 16.5387 10.3029C16.5601 10.2986 16.5687 10.2815 16.5687 10.2601C16.5687 10.2344 16.5772 10.2172 16.5858 10.1958C16.6201 10.1186 16.6715 10.0544 16.7401 10.0029ZM11.4344 10.1615C11.351 10.1574 11.2685 10.1799 11.1987 10.2258C11.2072 10.1872 11.1987 10.1615 11.1772 10.1444L11.503 10.0415L11.5244 10.0458L11.5415 10.0586C11.496 10.081 11.4586 10.1169 11.4344 10.1615Z" fill="#AB8A67"/>
<path d="M11.6743 10.3371L11.4471 10.4571V10.4186C11.4471 10.3886 11.4343 10.3886 11.4128 10.41C11.3828 10.4529 11.3485 10.4529 11.3057 10.4314C11.28 10.4186 11.28 10.4057 11.3057 10.3929C11.3171 10.3875 11.3295 10.3847 11.3421 10.3847C11.3547 10.3847 11.3671 10.3875 11.3785 10.3929C11.3858 10.3954 11.3936 10.396 11.4011 10.3944C11.4087 10.3929 11.4157 10.3894 11.4214 10.3843C11.4313 10.3755 11.4375 10.3632 11.4385 10.35C11.4428 10.32 11.43 10.3071 11.4043 10.3071C11.3314 10.3071 11.2714 10.3157 11.22 10.3371C11.0637 10.3995 10.8991 10.4385 10.7314 10.4529C10.7114 10.4542 10.6915 10.4481 10.6757 10.4357C10.6414 10.4057 10.6457 10.3929 10.6885 10.3929L10.8085 10.3843C10.83 10.3843 10.8471 10.3714 10.8514 10.3457C10.8643 10.32 10.8557 10.29 10.8385 10.2471L11.1771 10.1443C11.1985 10.1614 11.2071 10.1871 11.1985 10.2257C11.3271 10.2471 11.4 10.2257 11.4343 10.1614C11.5585 10.1829 11.6443 10.1443 11.6914 10.0543C11.6943 10.0467 11.6997 10.0405 11.7068 10.0365C11.7138 10.0326 11.7221 10.0313 11.73 10.0329L11.7471 10.0414C11.7557 10.05 11.7557 10.0586 11.7471 10.0671C11.7248 10.1062 11.7144 10.1509 11.7171 10.1957C11.7171 10.26 11.7 10.3071 11.6743 10.3371ZM12.7371 10.1571C12.7285 10.1743 12.7157 10.1829 12.6943 10.1829C12.6814 10.1829 12.6685 10.1743 12.66 10.1571C12.6504 10.1323 12.6504 10.1048 12.66 10.08C12.6685 10.0629 12.6814 10.0543 12.7028 10.0543C12.7457 10.0586 12.7543 10.0971 12.7371 10.1571Z" fill="#DBF127"/>
<path d="M10.2343 10.0713L10.3843 10.0884L10.26 10.1741L10.1914 10.0884C10.2037 10.0792 10.2189 10.0746 10.2343 10.0756V10.0713Z" fill="#696868"/>
<path d="M10.5514 10.2472C10.5342 10.2515 10.5171 10.2386 10.5 10.2129C10.4891 10.1978 10.475 10.1854 10.4587 10.1765C10.4423 10.1676 10.4242 10.1625 10.4057 10.1615C10.3628 10.1615 10.3585 10.1743 10.3971 10.2L10.5085 10.2729C10.4957 10.3158 10.4957 10.35 10.5085 10.3629C10.7228 10.5772 10.7228 10.8043 10.5214 11.0572L10.2557 11.3186C10.2342 11.34 10.2128 11.3358 10.2 11.3186C10.1944 11.313 10.19 11.3063 10.1871 11.2989C10.1842 11.2916 10.1827 11.2837 10.1828 11.2758C10.1828 11.2458 10.2 11.22 10.2342 11.2029C10.3671 11.0915 10.4785 10.9715 10.5642 10.8386C10.6071 10.7701 10.6071 10.7658 10.5428 10.8215C10.44 10.92 10.3285 11.0401 10.2128 11.1858C10.1057 11.2415 10.0671 11.31 10.1057 11.3915L10.0157 11.4429C9.99424 11.4515 9.98996 11.4686 9.99424 11.4858V11.5372L9.89567 11.5672C9.87385 11.5751 9.85355 11.5867 9.83567 11.6015L9.23139 12.0986C9.1371 12.0858 9.05996 12.0558 8.9871 12.0043C8.9571 11.9872 8.9571 11.9658 8.9871 11.9486L9.08139 11.8972C9.21424 11.82 9.31281 11.7558 9.37281 11.7043L9.68567 11.43C9.74139 11.3786 9.83139 11.3101 9.95567 11.2243C10.1653 11.0974 10.3405 10.9208 10.4657 10.71C10.5514 10.5258 10.4828 10.3458 10.26 10.1743L10.3842 10.0886C10.5 10.0629 10.5985 10.0629 10.6842 10.0886C10.71 10.1015 10.7142 10.1186 10.7014 10.14C10.6629 10.1896 10.6108 10.2269 10.5514 10.2472Z" fill="#DBF127"/>
<path d="M10.5514 10.2473L10.5985 10.2687C10.5556 10.2773 10.5256 10.2816 10.5128 10.273L10.3971 10.2001C10.3542 10.1744 10.3585 10.1616 10.4056 10.1659C10.4238 10.1663 10.4417 10.1708 10.458 10.1789C10.4743 10.1871 10.4886 10.1987 10.4999 10.213C10.5171 10.2387 10.5342 10.2516 10.5514 10.2473Z" fill="#696868"/>
<path d="M11.4342 10.1616C11.3999 10.2259 11.3228 10.2473 11.1985 10.2259C11.2499 10.1831 11.3271 10.1659 11.4342 10.1616Z" fill="#E645F4"/>
<path d="M13.5729 10.2983L12.9729 10.3369C12.9729 10.3026 12.9943 10.2512 13.0329 10.1826H13.7058C13.7358 10.1826 13.74 10.1912 13.7143 10.2083L13.5729 10.2983Z" fill="#E32262"/>
<path d="M11.5072 10.2641C11.534 10.2511 11.5632 10.2438 11.5929 10.2427C11.6058 10.2427 11.6143 10.247 11.6143 10.2598V10.2855C11.6143 10.2941 11.61 10.2984 11.5972 10.3027L11.52 10.3155C11.4343 10.3198 11.4258 10.3027 11.5072 10.2641Z" fill="#696868"/>
<path d="M10.8386 10.2471C10.8557 10.2899 10.8643 10.3199 10.8557 10.3456C10.8537 10.3566 10.8478 10.3665 10.8392 10.3736C10.8306 10.3806 10.8197 10.3844 10.8086 10.3842L10.6886 10.3885C10.6457 10.3928 10.6414 10.4056 10.6757 10.4356C10.6929 10.4485 10.71 10.4528 10.7314 10.4528C10.8991 10.4384 11.0637 10.3994 11.22 10.3371C11.2714 10.3156 11.3314 10.3071 11.4043 10.3071C11.43 10.3071 11.4471 10.3199 11.4386 10.3499C11.4386 10.3628 11.43 10.3756 11.4214 10.3842C11.4153 10.3886 11.4081 10.3914 11.4006 10.3921C11.393 10.3929 11.3855 10.3916 11.3786 10.3885C11.3669 10.3838 11.3543 10.3818 11.3417 10.3825C11.3291 10.3832 11.3168 10.3868 11.3057 10.3928C11.28 10.4056 11.28 10.4185 11.3057 10.4314C11.3486 10.4571 11.3829 10.4485 11.4129 10.4099C11.4343 10.3885 11.4429 10.3885 11.4514 10.4185V10.4571C11.4429 10.5856 11.4086 10.6671 11.34 10.6971C11.0829 10.8171 10.8043 10.9371 10.5214 11.0571C10.7271 10.7999 10.7229 10.5728 10.5129 10.3628C10.4957 10.3499 10.4957 10.3199 10.5129 10.2728C10.5257 10.2814 10.5557 10.2771 10.5986 10.2685L10.8386 10.2471Z" fill="black"/>
<path d="M11.6742 10.3369C11.6314 10.4655 11.5885 10.5812 11.5628 10.7012C11.55 10.7483 11.5114 10.7912 11.4428 10.8298C11.0142 11.0441 10.5642 11.2326 10.1057 11.3912C10.0671 11.3055 10.1057 11.2412 10.2128 11.1855C10.1871 11.1855 10.1914 11.1898 10.2342 11.2026C10.2 11.2198 10.1871 11.2455 10.1828 11.2755C10.1828 11.2883 10.1871 11.3055 10.2 11.3183C10.2171 11.3355 10.2342 11.3398 10.2557 11.3183L10.5214 11.0569C10.8042 10.9369 11.0785 10.8169 11.3357 10.6969C11.4085 10.6669 11.4428 10.5855 11.4471 10.4569L11.6742 10.3369Z" fill="#E32262"/>
<path d="M13.9844 10.4701C14.0444 10.5087 14.1044 10.5301 14.173 10.5472C14.1987 10.5472 14.1987 10.5601 14.1772 10.5729C14.083 10.6287 13.9758 10.6715 13.8558 10.6929C13.8687 10.5944 13.8558 10.5515 13.813 10.5644C13.6486 10.6082 13.4809 10.6383 13.3115 10.6544C13.3801 10.6201 13.4872 10.5815 13.6372 10.5344L13.8087 10.4787C13.865 10.4578 13.9263 10.4548 13.9844 10.4701Z" fill="#AB8A67"/>
<path d="M7.42296 10.753L7.27724 10.8259L6.49296 11.0402C6.46296 11.0445 6.4501 11.0359 6.46296 11.0059C6.4801 10.9716 6.51867 10.9416 6.58296 10.9073C6.6001 10.873 6.60867 10.8345 6.6001 10.7916C6.85724 10.6888 7.12724 10.6416 7.40581 10.6545C7.43581 10.6545 7.45296 10.6673 7.45724 10.6802C7.45724 10.6973 7.44867 10.723 7.42296 10.753ZM9.23153 10.8259L8.90581 10.843C8.74296 10.8002 8.65724 10.8602 8.64867 11.0145C8.60581 11.0445 8.5801 11.1002 8.57153 11.1687C8.57153 11.1902 8.55867 11.203 8.54153 11.2116C8.5201 11.2202 8.50724 11.2116 8.50724 11.1902V11.1088C8.51153 11.0745 8.49867 11.0659 8.46438 11.0873C8.45583 11.0927 8.44891 11.1004 8.44438 11.1095C8.43985 11.1185 8.43788 11.1286 8.43867 11.1388C8.43867 11.1645 8.43438 11.1902 8.41724 11.2116C8.39664 11.2345 8.38196 11.2621 8.37449 11.292C8.36702 11.3219 8.36698 11.3531 8.37439 11.383C8.34439 11.4602 8.30153 11.4902 8.25439 11.4859C8.2201 11.4773 8.21153 11.4602 8.22867 11.4345C8.27581 11.3445 8.31438 11.2502 8.35296 11.1559V11.1302C8.33581 11.113 8.32296 11.113 8.3101 11.1302L8.23724 11.1987C8.20296 11.2287 8.1901 11.2202 8.19439 11.1773C8.20371 11.1205 8.2307 11.068 8.27153 11.0273C8.27724 11.0275 8.28296 11.0275 8.28867 11.0273C8.31867 11.053 8.35296 11.053 8.38724 11.0273C8.40867 11.0102 8.42153 10.9845 8.42581 10.9588C8.45153 10.7702 8.5201 10.6673 8.63581 10.6588C8.8517 10.6441 9.06851 10.6513 9.28296 10.6802C9.31724 10.6802 9.33439 10.7016 9.33867 10.7359C9.34296 10.7659 9.3301 10.7873 9.29581 10.8002L9.22724 10.8259H9.23153ZM11.983 12.8273C11.9401 12.8873 11.9058 12.9645 11.8887 13.0588C11.8872 13.071 11.883 13.0828 11.8763 13.0932C11.8696 13.1036 11.8607 13.1123 11.8501 13.1188C11.743 13.1873 11.6272 13.3545 11.5072 13.6288L11.4901 13.6716C11.4901 13.6802 11.4815 13.6802 11.4772 13.6802C11.4687 13.6759 11.4644 13.6716 11.4687 13.663C11.4944 13.5602 11.5201 13.4573 11.5372 13.3502C11.5501 13.2902 11.5372 13.2473 11.4944 13.2173C11.473 13.2088 11.4687 13.1959 11.4772 13.1745C11.5201 13.0888 11.5844 13.0159 11.6658 12.9688C11.6763 12.9628 11.6855 12.9548 11.6929 12.9452C11.7003 12.9357 11.7056 12.9247 11.7087 12.913C11.7515 12.7716 11.8072 12.6345 11.8715 12.4973C11.8812 12.4791 11.8961 12.4641 11.9144 12.4545C12.0344 12.3902 12.0858 12.283 12.073 12.1373C12.073 12.0816 12.0944 12.0388 12.1415 12.013C12.1615 12.0023 12.1779 11.9859 12.1887 11.9659C12.2272 11.893 12.2187 11.8287 12.163 11.773C12.1545 11.7649 12.1484 11.7546 12.1454 11.7433C12.1424 11.732 12.1425 11.72 12.1458 11.7088L12.2444 11.3959C12.2475 11.3858 12.253 11.3766 12.2604 11.3691C12.2679 11.3616 12.2771 11.3561 12.2872 11.353C12.3258 11.3359 12.3772 11.3059 12.4501 11.2588C12.5358 11.203 12.6087 11.1688 12.6644 11.1516C13.033 11.0488 13.3972 10.9245 13.7487 10.783C14.0058 10.7016 14.263 10.6716 14.503 10.6845C14.5544 10.6888 14.5544 10.6973 14.503 10.7059C14.2887 10.7488 14.0615 10.8173 13.8258 10.8988C13.783 10.9116 13.783 10.9202 13.8258 10.9202C13.8687 10.9202 13.8987 10.9116 13.9287 10.8902H13.933L13.9458 10.9073C13.9544 10.9159 13.9544 10.9202 13.9458 10.9245C13.8172 10.993 13.6887 11.053 13.5515 11.0959C13.2558 11.1902 12.9772 11.2845 12.7072 11.3787C12.6943 11.3829 12.6824 11.3896 12.6721 11.3985C12.6618 11.4073 12.6534 11.4181 12.6472 11.4302C12.523 11.683 12.4201 11.9445 12.3387 12.2102C12.3344 12.2316 12.3215 12.2359 12.3087 12.2145C12.3034 12.2085 12.3004 12.201 12.3001 12.193C12.3001 12.1802 12.2915 12.1716 12.2787 12.1716C12.2679 12.1706 12.2572 12.1737 12.2487 12.1802C12.2412 12.1852 12.2356 12.1925 12.2325 12.201C12.2294 12.2094 12.2291 12.2187 12.2315 12.2273C12.2572 12.3216 12.253 12.4159 12.2187 12.5102C12.2145 12.5232 12.2073 12.5351 12.1976 12.5448C12.1879 12.5545 12.176 12.5617 12.163 12.5659C12.0687 12.5959 12.0087 12.6859 11.983 12.823V12.8273ZM6.2701 10.7145L6.31296 10.7102C6.35581 10.7016 6.37296 10.7145 6.37296 10.753C6.37296 10.7702 6.36867 10.7788 6.35581 10.783C6.10724 10.9373 5.83724 11.0488 5.53724 11.1173C5.52705 11.1196 5.51639 11.1181 5.50724 11.113C5.49439 11.1045 5.49438 11.0959 5.49438 11.0916C5.74557 10.9541 6.00299 10.8282 6.26581 10.7145H6.2701Z" fill="#DBF127"/>
<path d="M7.42276 10.7529L7.46562 10.8815C7.47419 10.9072 7.47419 10.9286 7.46562 10.9544C7.35848 11.1986 7.26848 11.4601 7.19562 11.7344C7.15351 11.8689 7.08528 11.9938 6.99482 12.1019C6.90436 12.21 6.79346 12.2992 6.66848 12.3644C6.4199 12.5101 6.18419 12.6686 5.96133 12.8358C5.94928 12.846 5.93424 12.852 5.91848 12.8529L5.89705 12.8572C5.86276 12.8658 5.83276 12.8615 5.81133 12.8444C5.84133 12.8015 5.83705 12.7586 5.79419 12.7329L6.34705 12.3301C6.5494 12.2361 6.73251 12.1053 6.88705 11.9444C6.9299 11.9015 6.96847 11.8372 6.99419 11.7601C7.11419 11.4086 7.20847 11.0958 7.27705 10.8258L7.42276 10.7529Z" fill="#E32262"/>
<path d="M10.2344 11.203C10.1915 11.1902 10.1872 11.1859 10.2129 11.1859C10.3286 11.0402 10.4401 10.9202 10.5429 10.8216C10.6029 10.7659 10.6115 10.7702 10.5644 10.8387C10.4786 10.9716 10.3672 11.0959 10.2344 11.203Z" fill="black"/>
<path d="M6.59993 10.7915C6.6085 10.8344 6.59993 10.8729 6.58278 10.9072C6.53993 10.8901 6.50564 10.8644 6.49707 10.8472C6.50564 10.8344 6.50564 10.8258 6.49707 10.8129L6.59993 10.7915Z" fill="#AB8A67"/>
<path d="M7.27717 10.8257C7.2086 11.0957 7.11431 11.4085 6.99431 11.76C6.9686 11.8371 6.93431 11.8971 6.88717 11.9443C6.72431 12.1114 6.54431 12.24 6.34717 12.33L6.34288 11.2157C6.35145 11.16 6.35145 11.0871 6.34288 10.9971C6.33003 10.8985 6.38574 10.8514 6.49717 10.8471C6.50574 10.8685 6.54003 10.89 6.58288 10.9071C6.5186 10.9414 6.48003 10.9714 6.46288 11.0057C6.45003 11.0357 6.46288 11.0485 6.49288 11.0357L7.27717 10.8257ZM8.90574 10.8428C8.8286 10.9114 8.74288 10.9714 8.6486 11.0143C8.65717 10.86 8.74288 10.8 8.90574 10.8428Z" fill="black"/>
<path d="M8.90573 10.8428L9.22716 10.8257V10.8514C9.22287 10.8643 9.2143 10.8771 9.20145 10.8857C8.98716 11.0314 8.7643 11.1685 8.53716 11.3057C8.51573 11.3185 8.50287 11.3143 8.4943 11.2843C8.4943 11.28 8.49002 11.2757 8.48145 11.28C8.47629 11.2813 8.47159 11.284 8.46783 11.2878C8.46406 11.2915 8.46137 11.2962 8.46002 11.3014C8.44716 11.3614 8.41716 11.3871 8.3743 11.3871C8.36615 11.3566 8.3658 11.3245 8.37329 11.2938C8.38078 11.2631 8.39586 11.2347 8.41716 11.2114C8.4343 11.19 8.44287 11.1643 8.43859 11.1385C8.43859 11.1128 8.44716 11.0957 8.46859 11.0871C8.49859 11.0657 8.51145 11.0743 8.51145 11.1085V11.19C8.51145 11.2157 8.52002 11.22 8.54145 11.2114C8.54982 11.2076 8.55703 11.2016 8.5623 11.1941C8.56758 11.1865 8.57074 11.1777 8.57145 11.1685C8.58002 11.0957 8.60573 11.0443 8.6443 11.0143C8.74287 10.9714 8.82859 10.9157 8.90573 10.8428Z" fill="#E32262"/>
<path d="M18.0901 10.856C17.9015 11.0831 17.6786 11.2717 17.4215 11.4217C17.4039 11.4322 17.3892 11.4469 17.3786 11.4645C17.3186 11.5674 17.2243 11.636 17.0958 11.6874C16.9458 11.7431 16.8043 11.816 16.6758 11.9017C16.6583 11.9123 16.6436 11.927 16.6329 11.9445C16.6256 11.9581 16.6198 11.9725 16.6158 11.9874C16.6029 12.0474 16.5943 12.0474 16.5986 11.9831C16.6029 11.8974 16.5772 11.846 16.5215 11.8331L17.1129 11.5631C17.1692 11.5372 17.2169 11.4955 17.2501 11.4431C17.2929 11.3917 17.3272 11.3574 17.3529 11.3402C17.5801 11.1731 17.8243 11.0145 18.0901 10.856Z" fill="#AB8A67"/>
<path d="M18.5142 10.8643L18.497 11.1514C18.497 11.1771 18.4799 11.1943 18.4542 11.1985C18.3409 11.2195 18.2247 11.2195 18.1113 11.1985L18.4713 10.8685C18.4746 10.8667 18.4783 10.8657 18.482 10.8657C18.4858 10.8657 18.4895 10.8667 18.4928 10.8685L18.5142 10.8643Z" fill="white"/>
<path d="M8.28863 11.0229H8.27148C8.27148 10.9887 8.28006 10.9544 8.30577 10.9244C8.31863 10.9072 8.33148 10.9029 8.34863 10.9115C8.35413 10.9132 8.35925 10.9159 8.36366 10.9196C8.36808 10.9233 8.37171 10.9278 8.37434 10.9329C8.3781 10.9395 8.38008 10.9468 8.38008 10.9544C8.38008 10.9619 8.3781 10.9693 8.37434 10.9758C8.35291 11.0058 8.3272 11.0187 8.28863 11.0229Z" fill="#AB8A67"/>
<path d="M6.34293 11.2158V12.3301L5.79436 12.733C5.76007 12.6858 5.7215 12.733 5.68721 12.8744L4.74436 12.8487C4.72293 12.8487 4.71436 12.8358 4.71436 12.8144L4.75293 12.0944C4.75293 12.0644 4.77007 12.0472 4.80436 12.0472H5.47721C5.5115 12.0472 5.52864 12.0301 5.52864 11.9958L5.5415 11.2672C5.5415 11.2372 5.55864 11.2201 5.58864 11.2201L6.34293 11.2158Z" fill="white"/>
<path d="M8.18579 11.3998C8.17722 11.4341 8.1515 11.4513 8.11722 11.4684C8.08293 11.4813 8.07436 11.4684 8.08722 11.4384C8.1001 11.4115 8.11919 11.388 8.14293 11.3698C8.19865 11.327 8.2115 11.3398 8.18579 11.4041V11.3998ZM12.4286 11.357C12.4372 11.3613 12.4415 11.3698 12.4372 11.3741L12.3001 11.6827C12.2701 11.7513 12.2444 11.7856 12.2272 11.7727C12.2058 11.7641 12.2144 11.7298 12.2444 11.657L12.3815 11.3484C12.3815 11.3398 12.3901 11.3398 12.3944 11.3441L12.4329 11.3613L12.4286 11.357Z" fill="#AB8A67"/>
<path d="M12.4413 11.5841C12.467 11.5214 12.5141 11.4698 12.5742 11.4384C12.5999 11.4255 12.6042 11.4298 12.587 11.4512C12.5337 11.5109 12.5006 11.5859 12.4927 11.6655C12.4927 11.6912 12.4799 11.7127 12.467 11.7298C12.4156 11.7941 12.3813 11.867 12.3513 11.9484C12.3427 11.9612 12.3342 11.9655 12.3213 11.9612L12.3042 11.957C12.2913 11.9527 12.287 11.9441 12.2913 11.9312C12.3493 11.8192 12.3995 11.7032 12.4413 11.5841ZM9.42846 11.807C9.45846 11.7641 9.49703 11.7212 9.53989 11.6955C9.66976 11.6203 9.79306 11.5343 9.90846 11.4384L9.92132 11.4512C9.93417 11.4641 9.92989 11.477 9.91703 11.4898C9.75846 11.597 9.60417 11.7041 9.45417 11.8155C9.44684 11.8202 9.4407 11.8265 9.43624 11.8339C9.43178 11.8414 9.42911 11.8497 9.42846 11.8584C9.42846 11.8884 9.4156 11.9012 9.38989 11.9055C9.29989 11.9227 9.20989 11.9612 9.11989 12.0212C9.11132 12.0255 9.10274 12.0255 9.09417 12.017L9.0856 11.9998C9.07274 11.9784 9.07703 11.9655 9.09846 11.957L9.39846 11.837C9.41121 11.8302 9.42166 11.8197 9.42846 11.807ZM10.2727 11.5927L9.72417 11.8241C9.7156 11.8241 9.71132 11.8327 9.7156 11.8412L9.72417 11.8627C9.96417 11.777 10.2042 11.6998 10.4527 11.6227C10.4785 11.6141 10.4827 11.6227 10.4656 11.6484C10.4527 11.6741 10.427 11.6912 10.397 11.7041C10.3499 11.7212 10.3242 11.7512 10.3327 11.7941C10.3113 11.8455 10.307 11.8798 10.3156 11.9055C10.3285 11.927 10.3456 11.9355 10.367 11.927L11.0099 11.7127C10.9156 11.777 10.7956 11.8327 10.667 11.8755C10.6285 11.8884 10.6113 11.9141 10.6156 11.9441C10.609 11.9444 10.6025 11.9461 10.5966 11.949C10.5907 11.952 10.5855 11.9561 10.5813 11.9612C10.5127 11.9484 10.4742 11.9612 10.4656 12.0084C10.4527 12.0641 10.4742 12.0941 10.5299 12.0941C10.5727 12.0941 10.6156 12.077 10.6456 12.0512L10.7485 11.9955L10.9756 11.9527L10.7056 12.8355L10.2556 12.8312L9.22703 12.0984L9.8356 11.6012L9.8956 11.567L9.99417 11.537C10.0799 11.5155 10.1656 11.4898 10.2513 11.447C10.256 11.4447 10.2611 11.4435 10.2663 11.4435C10.2715 11.4435 10.2766 11.4447 10.2813 11.447C10.3027 11.4555 10.3027 11.4641 10.2856 11.477C10.2299 11.5241 10.2256 11.5627 10.2727 11.5927Z" fill="black"/>
<path d="M10.6372 11.7172L10.4487 11.7986H10.333C10.3244 11.7557 10.3501 11.7214 10.3972 11.7043C10.4256 11.6938 10.4497 11.6742 10.4658 11.6486C10.483 11.6229 10.4787 11.6143 10.4487 11.6229C10.2043 11.6981 9.96136 11.7781 9.72011 11.8629L9.71582 11.8414C9.71582 11.8329 9.71582 11.8243 9.72439 11.8243L10.273 11.5929C10.3415 11.5714 10.4144 11.5672 10.4958 11.58C10.5215 11.58 10.543 11.58 10.5687 11.5714L10.8944 11.4429C10.9115 11.4429 10.9201 11.4429 10.9244 11.4557L10.9372 11.49C10.9372 11.5029 10.9372 11.5072 10.9244 11.5114C10.8087 11.5586 10.7101 11.6272 10.6372 11.7172Z" fill="#DBF127"/>
<path d="M17.6872 11.5371L17.7001 12.8357L16.123 12.8443C16.1015 12.8443 16.0887 12.8528 16.0887 12.8785V16.0157C16.0887 16.0714 16.0587 16.0971 16.003 16.0971L15.3601 16.0885C15.3044 16.0885 15.2744 16.1143 15.2744 16.17L15.2615 16.8428C15.2615 16.8857 15.2444 16.9028 15.2058 16.9028L14.5115 16.92C14.4772 16.92 14.4644 16.9371 14.4644 16.9671L14.4515 17.6571C14.4515 17.6828 14.4387 17.6957 14.413 17.6957H13.7144C13.6715 17.6957 13.6458 17.7171 13.6458 17.7643L13.6587 18.4585C13.6587 18.5014 13.6372 18.5185 13.5987 18.5185H12.883C12.853 18.5228 12.8401 18.5357 12.8401 18.5614V19.2171C12.8401 19.26 12.8187 19.2771 12.7801 19.2814L12.043 19.2857C12.0344 19.2857 12.0258 19.2771 12.013 19.2557L12.0258 18.5528C12.0258 18.5314 12.0172 18.5185 11.9915 18.5185L11.263 18.5014C11.2372 18.5014 11.2244 18.4843 11.2244 18.4585L11.2158 17.7128H13.5944C13.6201 17.7128 13.6287 17.7 13.633 17.6785L13.6587 16.9585C13.6587 16.9328 13.6758 16.9157 13.7015 16.9157H14.413C14.443 16.9157 14.4558 16.8985 14.4558 16.8728V16.1443C14.4558 16.1143 14.473 16.1014 14.4987 16.1014H15.2401C15.2701 16.1014 15.283 16.0843 15.283 16.0585V13.98C15.283 13.8857 15.3215 13.7528 15.3944 13.5857L15.4287 13.5085C15.523 13.1957 15.6387 12.8914 15.7715 12.5957C15.8144 12.4843 15.9344 12.4071 16.1144 12.3557C16.1572 12.3471 16.1572 12.33 16.123 12.3043C16.1156 12.2986 16.1097 12.2913 16.1058 12.2828C16.0972 12.27 16.1058 12.2571 16.1144 12.2485C16.1216 12.2427 16.1308 12.2396 16.1401 12.24C16.153 12.24 16.1615 12.2485 16.1615 12.2657V12.2957C16.1615 12.3085 16.1658 12.3128 16.1787 12.3085C16.2772 12.2957 16.3715 12.2571 16.4658 12.1885C16.7015 12.0171 17.0058 11.8585 17.3744 11.7128C17.4089 11.6986 17.4397 11.6766 17.4644 11.6485C17.5257 11.5897 17.6034 11.5509 17.6872 11.5371Z" fill="black"/>
<path d="M11.1514 11.8885C11.0996 11.925 11.0389 11.9472 10.9757 11.9528L10.7486 11.9956C10.7314 11.9528 10.6886 11.9356 10.6157 11.9442C10.6157 11.9142 10.6286 11.8885 10.6672 11.8756C10.7957 11.8328 10.9157 11.7771 11.01 11.7171C11.0587 11.6691 11.1221 11.6389 11.19 11.6313C11.2329 11.6313 11.2457 11.6442 11.2157 11.6828C11.2028 11.6999 11.1868 11.7144 11.1686 11.7256C11.1386 11.7428 11.13 11.7685 11.1429 11.7942C11.1557 11.8242 11.16 11.8542 11.1514 11.8885Z" fill="#DBF127"/>
<path d="M10.6372 11.7172C10.6175 11.7515 10.591 11.7814 10.5593 11.805C10.5276 11.8286 10.4914 11.8454 10.4529 11.8543C10.4272 11.8586 10.4186 11.85 10.4314 11.8243C10.4361 11.8151 10.4419 11.8065 10.4486 11.7986L10.6372 11.7129V11.7172Z" fill="black"/>
<path d="M10.7785 11.8928C10.7999 11.8671 10.8214 11.8671 10.8514 11.8928C10.8771 11.9185 10.8728 11.9357 10.8428 11.9442C10.815 11.9527 10.7859 11.9556 10.7571 11.9528C10.7356 11.9528 10.7271 11.94 10.7399 11.9185C10.7423 11.9136 10.7459 11.9094 10.7504 11.9064C10.7549 11.9034 10.7602 11.9016 10.7656 11.9014C10.7656 11.9014 10.7742 11.9014 10.7785 11.8928Z" fill="#696868"/>
<path d="M11.1514 11.8887L10.7786 13.243C10.7743 13.2687 10.7571 13.2815 10.7357 13.2815C10.71 13.2815 10.6843 13.2644 10.6543 13.2387C10.6414 13.093 10.6586 12.9601 10.7057 12.8358L10.9757 11.953C11.0357 11.953 11.0914 11.9272 11.1514 11.8887Z" fill="#E32262"/>
<path d="M10.6158 11.9445C10.6887 11.936 10.7315 11.9531 10.7444 11.996L10.6458 12.056C10.6458 12.026 10.6244 11.996 10.5815 11.9617C10.5857 11.9566 10.591 11.9524 10.5969 11.9495C10.6028 11.9465 10.6092 11.9448 10.6158 11.9445Z" fill="#696868"/>
<path d="M9.07297 12.9343L8.82011 12.78C8.70048 12.7212 8.5774 12.6697 8.45154 12.6257C8.16869 12.5272 8.00583 12.66 7.96726 13.02L7.68011 13.4186C7.65869 13.4486 7.65011 13.4443 7.65869 13.4057C7.66526 13.3645 7.66167 13.3222 7.64822 13.2826C7.63478 13.243 7.61189 13.2073 7.58154 13.1786C7.67583 13.0329 7.76583 12.8443 7.85583 12.6043C7.91583 12.4457 8.03154 12.39 8.20726 12.4329C8.55011 12.5229 8.83726 12.69 9.07297 12.9343Z" fill="#DBF127"/>
<path d="M12.8744 12.9686C12.7424 12.9565 12.6096 12.9787 12.4886 13.0329C12.4639 13.0418 12.4378 13.0461 12.4115 13.0457L12.3686 13.05C12.3258 13.0543 12.3215 13.0415 12.3472 13.0157C12.3601 12.9986 12.3729 12.99 12.3901 12.99C12.5615 12.99 12.6858 12.9343 12.7586 12.84C12.9686 12.8057 13.1572 12.7457 13.3329 12.6643C13.341 12.6612 13.348 12.656 13.3533 12.6492C13.3586 12.6424 13.3619 12.6343 13.3629 12.6257C13.3715 12.5915 13.3586 12.5829 13.3201 12.5957C13.3127 12.5992 13.3046 12.601 13.2965 12.601C13.2884 12.601 13.2803 12.5992 13.2729 12.5957C13.2429 12.5872 13.2429 12.5743 13.2729 12.5657L13.4186 12.51C13.5129 12.5315 13.5772 12.5315 13.6201 12.51C13.7744 12.4457 13.7872 12.4672 13.6544 12.57C13.6072 12.6129 13.5558 12.6429 13.5044 12.6729C13.4757 12.6877 13.4531 12.7119 13.4401 12.7415C13.4058 12.8229 13.3372 12.87 13.2386 12.8786C13.1144 12.8915 12.9944 12.9215 12.8744 12.9686Z" fill="#E32262"/>
<path d="M14.9914 12.7584C14.9436 12.7574 14.8968 12.7725 14.8586 12.8012C14.4814 12.8998 14.1129 13.0155 13.7443 13.1441C13.6329 13.1869 13.4486 13.2127 13.1914 13.2298C13.1229 13.2384 13.02 13.2555 12.9 13.2941C12.7886 13.3241 12.7072 13.3412 12.6514 13.3498C12.6386 13.3498 12.6343 13.3498 12.6257 13.3412V13.3198C12.63 13.3112 12.6386 13.3069 12.6472 13.3069C12.7243 13.2984 12.7757 13.2898 12.8014 13.2769C12.9386 13.2084 13.0843 13.1441 13.2386 13.0841L14.9014 12.5269C14.9314 12.5141 14.9443 12.5269 14.9529 12.5569L14.9914 12.7584ZM15.15 13.2169C15.1243 13.2984 15.0814 13.3669 15.0214 13.4227C15.0043 13.4398 15 13.4398 15.0086 13.4141C15.0943 13.2084 15.1457 13.0027 15.1586 12.7969L15.1757 12.7327C15.1843 12.6984 15.1714 12.6898 15.1329 12.7027L15.0857 12.7241C15.0772 12.6469 15.12 12.5912 15.2143 12.5527C15.24 12.5355 15.2529 12.5441 15.24 12.5741C15.2155 12.6434 15.2155 12.719 15.24 12.7884C15.2479 12.8135 15.2479 12.8404 15.24 12.8655L15.15 13.2169Z" fill="#DBF127"/>
<path d="M8.81995 12.7801C8.79605 12.8191 8.78139 12.8631 8.77709 12.9086V16.0201C8.77709 16.0715 8.80281 16.0972 8.85424 16.0972L9.53995 16.0886C9.56995 16.0886 9.58281 16.1015 9.58281 16.1315V19.2386C9.59567 19.2643 9.58281 19.2815 9.54424 19.2815H8.82852C8.80709 19.2815 8.79852 19.2729 8.79852 19.2558L8.78995 16.1529C8.78995 16.1101 8.76852 16.0929 8.72995 16.0886H8.01424C7.97995 16.0886 7.96281 16.0715 7.96281 16.0372L7.94995 14.4686L7.96709 13.0201C8.00995 12.6601 8.16852 12.5272 8.45138 12.6258C8.57567 12.6686 8.69995 12.7201 8.81995 12.7801ZM15.1585 12.7972C15.1028 12.8315 15.0514 12.8401 15.0128 12.8101C15.0037 12.8048 14.9933 12.802 14.9828 12.802C14.9723 12.802 14.9619 12.8048 14.9528 12.8101C14.91 12.8272 14.8757 12.8272 14.8585 12.8015C14.8968 12.7728 14.9436 12.7577 14.9914 12.7586C15.0342 12.7586 15.0642 12.7501 15.0857 12.7243L15.1371 12.7029C15.1714 12.6858 15.1842 12.6986 15.1757 12.7329L15.1585 12.7972Z" fill="black"/>
<path d="M5.7944 12.7287C5.83726 12.7587 5.83726 12.7973 5.80726 12.8444C5.77238 12.869 5.7296 12.8797 5.68726 12.8744C5.72154 12.733 5.76011 12.6859 5.7944 12.733V12.7287Z" fill="#E645F4"/>
<path d="M6.81417 12.8915L6.59988 12.9772C6.51417 12.9858 6.42845 13.0243 6.34274 13.0929C6.22433 13.1149 6.11188 13.1617 6.01274 13.2301C5.9986 13.2401 5.98258 13.2472 5.96564 13.2508C5.9487 13.2545 5.9312 13.2547 5.91417 13.2515C5.89274 13.2429 5.88845 13.2343 5.9056 13.2172C5.95703 13.1743 5.97417 13.1101 5.96131 13.0372C6.11988 12.9386 6.24845 12.8658 6.34703 12.8272C6.47988 12.7672 6.63845 12.7372 6.81845 12.7329C6.8356 12.7329 6.84417 12.7415 6.83988 12.7629L6.81417 12.8915Z" fill="#DBF127"/>
<path d="M9.07281 12.9341L9.32139 13.1269C9.39424 13.2898 9.48424 13.3498 9.59996 13.3069C9.72853 13.4012 9.84424 13.4355 9.95139 13.4184C9.90853 13.4098 9.89139 13.4184 9.89139 13.4441C9.89139 13.5298 9.93424 13.6069 10.02 13.6755C10.0414 13.6969 10.0585 13.6884 10.0628 13.6584C10.0671 13.6498 10.0628 13.6412 10.0628 13.6284C10.0371 13.5984 10.0457 13.5769 10.0842 13.5684C10.11 13.5684 10.1357 13.5684 10.1571 13.5855L10.2857 13.6626C10.4614 13.6969 10.4742 13.6669 10.3157 13.5769C10.2428 13.5341 10.1571 13.4998 10.05 13.4655C10.1057 13.4569 10.1271 13.4441 10.1228 13.4226L10.7271 13.6198C10.6885 13.6584 10.6842 13.6841 10.7271 13.7055C10.7485 13.7184 10.77 13.7226 10.7914 13.7098C10.8283 13.6959 10.8678 13.6901 10.9071 13.6926L10.8728 14.0098C10.8642 14.0526 10.8728 14.0526 10.8942 14.0184L10.9628 13.9069C10.9702 13.8941 10.9808 13.8834 10.9936 13.8759C11.0064 13.8684 11.0209 13.8643 11.0357 13.8641C11.1557 13.8598 11.2928 13.9326 11.4385 14.0912C11.4985 14.1555 11.5114 14.1469 11.4685 14.0698C11.4428 14.0141 11.34 13.9326 11.1642 13.8255L11.0657 13.7612C11.0914 13.7355 11.1085 13.7098 11.1085 13.6755L11.3742 13.2298C11.3883 13.2334 11.403 13.2334 11.4171 13.2298C11.3957 13.2726 11.3871 13.3069 11.3957 13.3326C11.4042 13.3755 11.4214 13.3755 11.4428 13.3369C11.4557 13.3155 11.4557 13.2812 11.4428 13.2298C11.4642 13.2298 11.4771 13.2298 11.49 13.2169C11.5328 13.2469 11.55 13.2898 11.5371 13.3541C11.52 13.4569 11.4942 13.5598 11.4685 13.6626C11.4685 13.6712 11.4685 13.6755 11.4771 13.6798C11.4814 13.6798 11.4857 13.6798 11.49 13.6712L11.5114 13.6284C11.6271 13.3541 11.7428 13.1869 11.85 13.1141C11.8608 13.1086 11.8703 13.1007 11.8777 13.0911C11.8851 13.0814 11.8903 13.0703 11.8928 13.0584C11.9057 12.9641 11.9357 12.8869 11.9828 12.8269L12.7585 12.8398C12.6857 12.9341 12.5614 12.9855 12.3857 12.9898C12.3728 12.9898 12.36 12.9984 12.3428 13.0155C12.3214 13.0412 12.3257 13.0584 12.3642 13.0498H12.4071C12.4414 13.0498 12.4671 13.0412 12.4928 13.0326C12.6128 12.9769 12.7414 12.9555 12.8785 12.9684C12.8785 13.0669 12.9985 13.1055 13.2385 13.0841C13.0842 13.1441 12.9385 13.2084 12.8014 13.2769C12.7757 13.2898 12.7242 13.2984 12.6471 13.3069C12.6426 13.3066 12.6382 13.3076 12.6343 13.3099C12.6305 13.3122 12.6274 13.3157 12.6257 13.3198V13.3412C12.6342 13.3498 12.6385 13.3498 12.6514 13.3498C12.7071 13.3412 12.7885 13.3241 12.9 13.2941C13.0242 13.2555 13.1228 13.2384 13.1914 13.2298C13.4485 13.2126 13.6328 13.1869 13.7485 13.1441C14.1128 13.0155 14.4814 12.8998 14.8585 12.8012C14.8757 12.8269 14.91 12.8269 14.9528 12.8098C14.9742 12.7969 14.9957 12.8012 15.0128 12.8098C15.0557 12.8355 15.0985 12.8312 15.1585 12.7969C15.1457 13.0026 15.0942 13.2084 15.0085 13.4141C15 13.4398 15.0042 13.4398 15.0214 13.4226C15.0814 13.3669 15.1242 13.2984 15.15 13.2169C15.15 13.3755 15.1928 13.4526 15.2785 13.4484L15.27 13.6198C15.27 13.6326 15.27 13.6369 15.2871 13.6412H15.3042C15.3128 13.6455 15.3128 13.6412 15.3171 13.6369L15.3428 13.4869L15.4285 13.5084L15.3942 13.5855C15.3214 13.7569 15.2828 13.8855 15.2828 13.9798V16.0584C15.2828 16.0841 15.27 16.1012 15.24 16.1012H14.4985C14.4728 16.1012 14.4557 16.1141 14.4557 16.1441V16.8726C14.4557 16.8984 14.4428 16.9155 14.4128 16.9155H13.7014C13.6757 16.9155 13.6585 16.9326 13.6585 16.9584L13.6328 17.6784C13.6328 17.6998 13.62 17.7126 13.59 17.7126H11.2157L11.19 16.9626C11.19 16.9326 11.1728 16.9198 11.1428 16.9198H10.4485C10.4185 16.9198 10.4057 16.9284 10.4057 16.9584V17.6355C10.4057 17.6784 10.4271 17.7041 10.4742 17.7041L11.2157 17.7126L11.2242 18.4584C11.2242 18.4841 11.2371 18.5012 11.2671 18.5012L11.9914 18.5184C12.0171 18.5184 12.0257 18.5312 12.0257 18.5526L12.0128 19.2555C12.0085 19.2684 11.9957 19.2769 11.9785 19.2769H9.62139C9.60853 19.2769 9.59567 19.2641 9.58281 19.2341V16.1269C9.58281 16.1012 9.56996 16.0841 9.53996 16.0841L8.85424 16.0969C8.80281 16.0969 8.7771 16.0712 8.7771 16.0198V12.9084C8.78139 12.8628 8.79605 12.8188 8.81996 12.7798L9.07281 12.9341Z" fill="#AB8A67"/>
<path d="M10.2556 12.8315L10.7056 12.8358C10.6585 12.9601 10.6413 13.093 10.6542 13.2387L10.2556 12.8315Z" fill="#AB8A67"/>
<path d="M17.7001 12.8359L18.4458 12.8659C18.4843 12.8659 18.5015 12.8831 18.5015 12.9217V13.5817C18.5015 13.6331 18.4758 13.6588 18.4243 13.6588H16.9243C16.9029 13.6588 16.8901 13.6717 16.8901 13.6931L16.8686 14.4345C16.8686 14.4602 16.8558 14.4688 16.8301 14.4731L16.0886 14.4859V12.8788C16.0886 12.8531 16.1015 12.8445 16.1229 12.8445L17.7001 12.8359Z" fill="white"/>
<path d="M6.81428 12.8916L6.54 13.7916L6.39857 13.9802C6.36428 13.9459 6.35571 13.9159 6.35571 13.8902L6.6 12.973L6.81428 12.8916Z" fill="#E32262"/>
<path d="M15.3428 13.4873L15.3171 13.6373C15.3171 13.6458 15.3128 13.6458 15.3042 13.6458L15.2871 13.6416C15.2742 13.6416 15.2656 13.633 15.2699 13.6201L15.2828 13.4487C15.2699 13.2687 15.3256 13.1058 15.4413 12.9473C15.4542 13.1058 15.4242 13.2901 15.3428 13.4873Z" fill="black"/>
<path d="M6.6001 12.9727L6.3601 13.8898C6.35339 13.8926 6.34749 13.897 6.34296 13.9027C6.3301 13.9241 6.32153 13.9198 6.32153 13.8941C6.32153 13.8769 6.32153 13.8598 6.3301 13.8427C6.33803 13.8251 6.34239 13.8062 6.34296 13.7869V13.0927C6.42867 13.0241 6.51439 12.9855 6.6001 12.9727ZM7.96724 13.0198L7.9501 14.4684L6.38582 14.4812C6.3601 14.4812 6.34724 14.4941 6.34724 14.5241L6.33439 15.2098C6.33439 15.2527 6.31296 15.2741 6.2701 15.2741L5.58867 15.2869C5.5501 15.2869 5.53296 15.2698 5.53296 15.2312V14.5027C5.53296 14.4769 5.54582 14.4598 5.56724 14.4598L6.25724 14.4555C6.33439 14.4555 6.36439 14.4127 6.34724 14.3398C6.33155 14.2794 6.32802 14.2164 6.33685 14.1546C6.34568 14.0928 6.36669 14.0334 6.39867 13.9798L6.5401 13.7912L6.43724 14.1941C6.43724 14.2027 6.43724 14.2069 6.44582 14.2112L6.46724 14.2241H6.47153L6.7201 13.8298C6.69867 14.0098 6.66867 14.1512 6.63439 14.2498C6.59153 14.3955 6.61296 14.4084 6.70724 14.2884C6.79296 14.1684 6.86153 14.0441 6.90439 13.9069L7.11867 13.4998C7.1701 13.6155 7.16153 13.7569 7.08867 13.9284C7.07582 13.9541 7.08439 13.9627 7.1101 13.9455C7.12302 13.9389 7.13352 13.9284 7.1401 13.9155C7.21296 13.7698 7.29867 13.6412 7.40582 13.5298C7.45725 13.4698 7.48724 13.3884 7.49153 13.2812L7.58153 13.1827C7.64582 13.2469 7.66725 13.3198 7.65867 13.4055C7.6501 13.4441 7.65867 13.4484 7.6801 13.4184L7.96724 13.0198Z" fill="white"/>
<path d="M11.3743 13.2301L11.1043 13.68L10.98 13.5643C10.9701 13.5562 10.9624 13.5456 10.9579 13.5335C10.9534 13.5215 10.9522 13.5084 10.9543 13.4958C10.9714 13.41 11.01 13.3372 11.07 13.2729C11.1 13.2429 11.1129 13.2472 11.1 13.29C11.0908 13.3384 11.0702 13.384 11.04 13.4229C11.0314 13.4358 11.0314 13.4486 11.0443 13.4572L11.0614 13.4658H11.07L11.2972 13.1058C11.3657 12.99 11.3957 12.9986 11.3829 13.1358L11.3743 13.2301ZM7.49145 13.2858C7.48716 13.3886 7.45716 13.47 7.40573 13.5258C7.29859 13.6415 7.21288 13.7701 7.14002 13.9158C7.13344 13.9287 7.12294 13.9392 7.11002 13.9458C7.0843 13.9629 7.07573 13.9543 7.08859 13.9243C7.16145 13.7615 7.1743 13.6158 7.11859 13.4958C7.21716 13.3929 7.29859 13.26 7.36288 13.0929C7.38859 13.0329 7.42288 13.0286 7.46145 13.0843C7.48716 13.1272 7.50002 13.1915 7.49145 13.2815V13.2858ZM9.32145 13.1272C9.45002 13.1058 9.5443 13.1658 9.60002 13.3072C9.4843 13.35 9.3943 13.2901 9.32145 13.1229V13.1272ZM11.4172 13.2301H11.4472C11.4557 13.2815 11.4557 13.3158 11.4429 13.3372C11.4214 13.3758 11.4043 13.3715 11.3957 13.3329C11.3872 13.3072 11.3957 13.2729 11.4172 13.2301ZM6.9043 13.9072C6.86145 14.0443 6.79716 14.1686 6.70716 14.2886C6.61288 14.4086 6.58716 14.3958 6.63859 14.2458C6.66859 14.1515 6.69859 14.01 6.72002 13.83C6.8143 13.6715 6.90859 13.5 7.00288 13.3243C7.00716 13.3115 7.01573 13.3029 7.02859 13.3029C7.0543 13.2943 7.06288 13.3029 7.05002 13.3286C6.96859 13.5129 6.92145 13.7058 6.9043 13.9072ZM10.7272 13.6201L10.1229 13.4229C10.0972 13.3886 10.1014 13.3543 10.1272 13.3286C10.1486 13.3115 10.17 13.3072 10.1957 13.3243C10.26 13.3586 10.3157 13.38 10.3629 13.3843C10.5772 13.4058 10.7014 13.4872 10.7272 13.6201ZM9.95145 13.4143C9.9943 13.4229 10.0286 13.44 10.05 13.4658C10.1572 13.5 10.2429 13.5386 10.3157 13.5772C10.4743 13.6672 10.4614 13.6972 10.2857 13.6629C10.2772 13.6629 10.2343 13.6372 10.1572 13.5858C10.1361 13.5707 10.1099 13.5645 10.0843 13.5686C10.0457 13.5772 10.0414 13.5986 10.0586 13.6286C10.0672 13.6415 10.0672 13.6501 10.0629 13.6586C10.0586 13.6886 10.0414 13.6972 10.02 13.6758C9.9343 13.6072 9.89145 13.5301 9.89145 13.4443C9.89145 13.4186 9.91288 13.41 9.95145 13.4186V13.4143Z" fill="#DBF127"/>
<path d="M12.8013 13.6587H12.0685C12.0605 13.6587 12.0529 13.6619 12.0473 13.6675C12.0416 13.6731 12.0385 13.6807 12.0385 13.6887L12.0342 14.4216C12.0342 14.443 12.047 14.4558 12.0642 14.4558H12.7928C12.8142 14.4558 12.827 14.443 12.827 14.4258L12.8313 13.693C12.8319 13.6887 12.8316 13.6843 12.8304 13.6802C12.8292 13.676 12.8271 13.6722 12.8242 13.6689C12.8214 13.6657 12.8178 13.6631 12.8139 13.6613C12.8099 13.6595 12.8057 13.6586 12.8013 13.6587Z" fill="black"/>
<path d="M10.9072 13.6929C10.9629 13.7057 11.0143 13.7272 11.0658 13.7614L11.1643 13.8257C11.3358 13.9329 11.4429 14.0143 11.4686 14.07C11.5115 14.1472 11.4986 14.1557 11.4386 14.0914C11.2886 13.9329 11.1558 13.86 11.0358 13.8643C11.021 13.8645 11.0065 13.8686 10.9937 13.8761C10.9809 13.8836 10.9703 13.8943 10.9629 13.9072L10.8943 14.0186C10.8729 14.0529 10.8643 14.0486 10.8729 14.01L10.9072 13.6929Z" fill="#DBF127"/>
<path d="M17.6313 14.4684H16.9585C16.9497 14.4678 16.9408 14.469 16.9325 14.472C16.9242 14.475 16.9166 14.4796 16.9102 14.4856C16.9038 14.4917 16.8987 14.499 16.8952 14.5071C16.8917 14.5152 16.8899 14.5239 16.8899 14.5327V15.2055C16.8899 15.2441 16.9199 15.2741 16.9585 15.2741H17.6313C17.6656 15.2741 17.6956 15.2441 17.6956 15.2055V14.5327C17.6956 14.5156 17.6888 14.4993 17.6768 14.4872C17.6647 14.4752 17.6484 14.4684 17.6313 14.4684Z" fill="white"/>
<path d="M13.6115 15.2827H11.2543C11.2452 15.2827 11.2365 15.2863 11.2301 15.2928C11.2237 15.2992 11.22 15.3079 11.22 15.317V16.0584C11.22 16.0756 11.2372 16.0884 11.2543 16.0884H13.6115C13.6286 16.0884 13.6458 16.0756 13.6458 16.0584V15.317C13.6458 15.3079 13.6421 15.2992 13.6357 15.2928C13.6293 15.2863 13.6206 15.2827 13.6115 15.2827ZM11.2158 17.7127L10.4743 17.7041C10.4315 17.7041 10.4058 17.6827 10.4058 17.6356V16.9584C10.4058 16.9284 10.4186 16.9156 10.4486 16.9156H11.1429C11.1729 16.9156 11.19 16.9327 11.19 16.9627L11.2158 17.7127Z" fill="black"/>
</g>
<defs>
<clipPath id="clip0_31_17128">
<rect width="24" height="24" fill="white"/>
</clipPath>
</defs>
</svg>
