<svg xmlns="http://www.w3.org/2000/svg" width="24" height="24" fill="none" viewBox="0 0 24 24"><g clip-path="url(#a)"><path fill="#F0F3FA" d="M0 0h24v24H0z"/><path fill="#F11E99" d="M6.193 7.629c1.543-1.77 5.083-.9 6.514-.274-.103-.39.33-1.205 2.889-1.346 3.192-.172 5.074 2.91 4.414 4.864-.652 1.95-1.53 1.299-2.057 3.214-.523 1.908-1.47 4.145-3.3 4.758-1.359.454-3.424.99-6.309-.832-2.314-1.457-1.705-3.93-1.105-4.8C6.347 12.116 4.654 9.4 6.193 7.63"/><path fill="url(#b)" d="M6.163 16.543c-.613-1.577.634-2.872 1.337-3.326l3.518-1.123 2.178 5.812c-1.796.154-1.8.39-2.996.617-1.191.223-3.27 0-4.037-1.976z"/><path fill="#873DEE" d="M19.037 15.703c-1.144 2.871-4.17 2.614-6.321 2.614-1.526 0-3.459.502-4.595-.518a4.06 4.06 0 0 1-1.165-1.66c-.845-2.472.985-2.982 1.208-4.37.219-1.398-4.435-7.338 3.253-7.046 8.186.313 8.76 8.104 7.62 10.98"/><path fill="url(#c)" d="M19.444 12.017a4 4 0 0 1-.475.472c-.512.4-.864.97-.995 1.607-.403 1.466-1.058 3.128-2.173 4.097-.857.15-1.757.141-2.571.133h-.497c-.416 0-.866.047-1.32.094-.814.086-1.654.18-2.357 0a8 8 0 0 1-.695-.399 4 4 0 0 1-.582-.44 5.4 5.4 0 0 1-1.02-1.83 3.75 3.75 0 0 1 .175-1.887 6 6 0 0 1 .54-.771c.322-.42.63-.823.707-1.316.052-.334-.171-.93-.445-1.637C7.37 9.19 6.93 8.031 6.99 7.03c1.74-.913 4.509-.198 5.734.338-.103-.394.33-1.208 2.889-1.346q.191-.013.377-.008c2.271 1.436 3.236 3.831 3.454 6z"/><path fill="#fff" d="M12.227 7.354c-2.558 0-4.624 2.057-4.624 4.586 0 2.52 2.066 4.577 4.624 4.577 2.554 0 4.62-2.057 4.62-4.581s-2.061-4.582-4.62-4.582M6.201 11.94c0-3.313 2.7-5.987 6.026-5.987 3.322 0 6.022 2.674 6.022 5.982 0 3.313-2.7 5.983-6.022 5.983a6.003 6.003 0 0 1-6.026-5.982z"/></g><defs><linearGradient id="b" x1="6.394" x2="19.41" y1="16.024" y2="11.953" gradientUnits="userSpaceOnUse"><stop stop-color="#4BDAF7"/><stop offset="1" stop-color="#6A63E3"/></linearGradient><linearGradient id="c" x1="8.563" x2="18.639" y1="16.453" y2="10.072" gradientUnits="userSpaceOnUse"><stop stop-color="#2424E5"/><stop offset="1" stop-color="#781390"/></linearGradient><clipPath id="a"><path fill="#fff" d="M0 0h24v24H0z"/></clipPath></defs></svg>