<svg width="24" height="24" viewBox="0 0 24 24" fill="none" xmlns="http://www.w3.org/2000/svg">
<g clip-path="url(#clip0_31_18273)">
<path d="M0 0H24V24H0V0Z" fill="#F0F3FA"/>
<path d="M8.57139 10.0715V6.21436L5.14282 8.14293L8.57139 10.0715Z" fill="#348AA7"/>
<path d="M12.0001 8.14307L8.57153 10.0716V13.9288L12.0001 15.8574V8.14307Z" fill="#55CF98"/>
<path d="M5.14282 8.14307L8.57139 10.0716V13.9288L5.14282 15.8574V8.14307Z" fill="#1A6882"/>
<path d="M8.57153 6.21436L12.0001 8.14293L8.57153 10.0715V6.21436Z" fill="#76E8B5"/>
<path d="M5.14282 15.8573L8.57139 13.9287L12 15.8573V19.7144L5.14282 15.8573Z" fill="#12556B"/>
<path d="M15.4287 6.21422L12.0001 8.14279L8.57153 6.21422L12.0001 4.28564L15.4287 6.21422Z" fill="#BCE784"/>
<path d="M12 8.14307L15.4286 10.0716V13.9288L12 15.8574V8.14307Z" fill="#48B081"/>
<path d="M18.857 8.14307L15.4285 10.0716V13.9288L18.857 15.8574V8.14307Z" fill="#1A6882"/>
<path d="M15.4286 6.21436L12 8.14293L15.4286 10.0715V6.21436Z" fill="#57C795"/>
<path d="M18.8571 15.8573L15.4286 13.9287L12 15.8573V19.7144L18.8571 15.8573Z" fill="#0D3E4F"/>
<path d="M15.4285 10.0715V6.21436L18.857 8.14293L15.4285 10.0715Z" fill="#348AA7"/>
</g>
<defs>
<clipPath id="clip0_31_18273">
<rect width="24" height="24" fill="white"/>
</clipPath>
</defs>
</svg>
