<svg width="24" height="24" viewBox="0 0 24 24" fill="none" xmlns="http://www.w3.org/2000/svg">
<g clip-path="url(#clip0_31_18382)">
<path d="M0 0H24V24H0V0Z" fill="#F0F3FA"/>
<path fill-rule="evenodd" clip-rule="evenodd" d="M4.71423 12.0001C4.71423 7.97621 7.97566 4.71436 11.9999 4.71436C16.0242 4.71436 19.2857 7.97621 19.2857 12.0001C19.2857 16.0239 16.0242 19.2858 11.9999 19.2858C7.97566 19.2858 4.71423 16.0239 4.71423 12.0001ZM5.99995 12.0001C5.99995 15.3862 8.6138 18.0001 11.9999 18.0001C15.3861 18.0001 17.9999 15.3862 17.9999 12.0001C17.9999 8.61393 15.3861 6.00007 11.9999 6.00007C8.6138 6.00007 5.99995 8.61393 5.99995 12.0001ZM11.9999 8.14293C10.4571 8.14293 9.22109 8.99878 8.56623 10.2858H16.7472C16.9547 10.8446 17.1428 11.3859 17.1428 12.0172C17.1428 12.6481 17.0297 13.1555 16.8222 13.7144H13.7142V16.8566C13.3345 16.9976 12.8442 17.0949 12.4285 17.1429V13.7144H11.5714V17.1429C11.1557 17.0945 10.6654 16.9972 10.2857 16.8562V13.7144H7.14338C7.00409 13.3372 6.9068 13.0372 6.85838 12.6245L6.85709 12.4286H10.2857V11.5715H6.85752C7.15409 9.0035 9.33595 6.85721 11.9832 6.85721C13.9778 6.85721 15.3394 7.91793 16.2749 9.23064H14.8049C14.1089 8.62507 13.2908 8.14293 11.9999 8.14293ZM11.5714 11.5715V12.4286H12.4285V11.5715H11.5714ZM13.7142 12.4286H15.9021C15.9102 12.3764 15.9171 12.3374 15.9227 12.3044C15.9389 12.2131 15.9471 12.1664 15.9471 12.0172C15.9471 11.8526 15.9372 11.7901 15.9171 11.6688L15.9025 11.5715H13.7142V12.4286Z" fill="#1F2336"/>
</g>
<defs>
<clipPath id="clip0_31_18382">
<rect width="24" height="24" fill="white"/>
</clipPath>
</defs>
</svg>
