<svg xmlns="http://www.w3.org/2000/svg" width="24" height="24" fill="none" viewBox="0 0 24 24"><g clip-path="url(#a)"><path fill="#F0F3FA" d="M0 0h24v24H0z"/><path fill="url(#b)" d="m14.975 5.584-3.472 3.57a.2.2 0 0 0-.034.03l-2.52 2.52a.623.623 0 0 0 0 .883l2.387 2.387-2.94 3.086a9 9 0 0 1-1.32-1.11c-3.082-3.073-3.189-6.878-.086-9.986 2.46-2.46 5.362-2.875 7.985-1.38"/><path fill="url(#c)" d="M17.04 17.01c-2.451 2.447-5.336 2.888-7.941 1.478l1.037-1.08 2.374-2.455.797-.797 1.564-1.565a.63.63 0 0 0 0-.883l-.715-.715L12.5 9.338l2.91-3.042.258-.266c.428.3.857.664 1.264 1.071 3.056 3.047 3.184 6.827.107 9.909"/></g><defs><linearGradient id="b" x1="13.132" x2="-6.467" y1="-.184" y2="42.639" gradientUnits="userSpaceOnUse"><stop stop-color="#00DECA"/><stop offset=".38" stop-color="#3A8AFA"/><stop offset="1" stop-color="#1A6AF4"/></linearGradient><linearGradient id="c" x1="17.46" x2="-2.019" y1="1.165" y2="43.697" gradientUnits="userSpaceOnUse"><stop stop-color="#00DECA"/><stop offset=".38" stop-color="#3A8AFA"/><stop offset="1" stop-color="#1A6AF4"/></linearGradient><clipPath id="a"><path fill="#fff" d="M0 0h24v24H0z"/></clipPath></defs></svg>