<svg xmlns="http://www.w3.org/2000/svg" width="24" height="24" fill="none" viewBox="0 0 24 24"><g clip-path="url(#a)"><path fill="#F0F3FA" d="M0 0h24v24H0z"/><path fill="url(#b)" d="M11.571 6.728V3.857L10.53 5.293v.48c-1.371.385-3.999 1.757-5.143 2.395 0 1.342.489 4.71.737 6.228l-.248.24-.733 1.67 2.203-1.43c-.587-1.535-.57-4.792-.489-6.228 1.174-.96 3.651-1.68 4.714-1.915z"/><path fill="url(#c)" d="M12.429 6.728V3.857l1.04 1.436v.48c1.372.385 4 1.757 5.144 2.395 0 1.342-.489 4.71-.737 6.228l.248.24.733 1.67-2.203-1.43c.587-1.535.57-4.792.489-6.228-1.174-.96-3.652-1.68-4.715-1.915z"/><path fill="url(#d)" d="m7.839 15.591-2.452 1.44 1.959.236.244-.236c.981 1.526 3.347 2.713 4.41 3.112 2.353-.96 3.917-2.473 4.41-3.112l.244.236 1.959-.236-2.451-1.44c-.78 1.728-3.1 2.958-4.162 3.356-2.156-.578-3.673-2.477-4.161-3.356"/><path fill="#303435" d="M12.052 6.429c-1.835 0-4.582.973-5.345 1.95C5.28 15.399 9.621 18.502 12 19.072c5.597-1.462 5.901-7.282 5.396-10.693-1.024-1.222-3.514-1.95-5.344-1.95"/><path fill="#CACAD4" d="M10.714 10.316c.583-.189.776-.236.857-.236V7.286c-1.358.184-3.313 1.165-4.123 1.628-.385.934 0 3.343.245 4.427.583-.372 2.293-.93 3.021-1.165v3.728c-.968-.188-1.808-1.628-2.053-2.331l-.968.471c.583 2.417 2.828 3.643 3.878 3.956v-7.222c-1.165 0-2.515.558-3 .793V9.857l2.143-.943z"/><path fill="#949398" fill-rule="evenodd" d="M12.429 7.286V18c.994-.386 3.128-1.676 3.728-3.729a16.5 16.5 0 0 0 .497-5.357 8.7 8.7 0 0 0-4.225-1.628m.857 1.285v7.715c.955-.6 2.803-2.829 2.545-6.943-.527-.257-1.782-.772-2.545-.772" clip-rule="evenodd"/></g><defs><linearGradient id="b" x1="8.327" x2="8.327" y1="3.857" y2="16.311" gradientUnits="userSpaceOnUse"><stop stop-color="#1BA9D1"/><stop offset="1" stop-color="#126DB0"/></linearGradient><linearGradient id="c" x1="15.673" x2="15.673" y1="3.857" y2="16.311" gradientUnits="userSpaceOnUse"><stop stop-color="#1AA3CB"/><stop offset="1" stop-color="#126DB1"/></linearGradient><linearGradient id="d" x1="12" x2="12" y1="15.591" y2="20.143" gradientUnits="userSpaceOnUse"><stop stop-color="#1868A7"/><stop offset="1" stop-color="#0E59AB"/></linearGradient><clipPath id="a"><path fill="#fff" d="M0 0h24v24H0z"/></clipPath></defs></svg>