<svg xmlns="http://www.w3.org/2000/svg" width="24" height="24" fill="none" viewBox="0 0 24 24"><g clip-path="url(#a)"><path fill="url(#b)" d="M0 0h24v24H0z"/><path fill="#FF8003" d="M14.829 5.289q.01.018-.018.043a17 17 0 0 1-1.405 1.628c-.035.03-.077.034-.12.026-.403-.052-.759-.086-1.067-.116a11 11 0 0 0-1.307-.034 4.1 4.1 0 0 0-1.158.18 3.53 3.53 0 0 0-1.452-1.29 7.29 7.29 0 0 1 6.527-.437"/><path fill="#FFA403" d="M16.299 6.193a4.86 4.86 0 0 1-.51 2.55c-.013.03-.035.085-.065.124-.013.017-.034.021-.055.013-.19-.1-.396-.165-.609-.193a.01.01 0 0 0 0 .013q.254.25.489.518.146.168.261.348l.33.544a8.3 8.3 0 0 1 .964 2.601c.076.328.055.67-.06.986a1.6 1.6 0 0 0-1.157-.63.4.4 0 0 1 0-.124c.086-.48.116-.964.099-1.444q-.04-.505-.125-1.003-.035-.227-.107-.446c-.004 0-.008 0-.008-.009v-.017a.5.5 0 0 1-.069-.103v-.017a.13.13 0 0 0-.021-.064.3.3 0 0 1-.035-.086.04.04 0 0 0-.008-.021.2.2 0 0 1-.043-.069.24.24 0 0 0-.051-.086.4.4 0 0 1-.047-.064.2.2 0 0 0-.065-.068.2.2 0 0 1-.064-.056l-.107-.129h-.022l-.006.008-.002.01a.1.1 0 0 1-.03.068.27.27 0 0 0-.017-.189 1 1 0 0 0-.215-.252 4 4 0 0 0-.865-.566.8.8 0 0 0-.463-.06.5.5 0 0 0-.373.297.4.4 0 0 0-.017.161c.021.176.163.335.304.433l.154.09.159.086a1.4 1.4 0 0 0-.42.381c-.177.24-.258.536-.227.832q.027.314.073.673.039.32.15.553c.09.197.24.385.355.57.03.051.069.055.116.021.021-.017.026-.034.017-.06l-.068-.154a4 4 0 0 1-.193-.416c-.043-.103-.056-.219-.073-.326 0-.017 0-.021.017-.012l.077.06c.279.205.656.33.99.257a1.285 1.285 0 0 0 1.08-1.187.24.24 0 0 1 .022.128 3 3 0 0 1-.026.146l-.017.051a.4.4 0 0 1-.034.077.2.2 0 0 0-.018.052 2 2 0 0 1-.257.398q-.024.066-.085.073l-.011.004-.007.009a.1.1 0 0 1-.021.026.2.2 0 0 1-.034.021.1.1 0 0 0-.043.03l-.009.005h-.004a.04.04 0 0 0-.026.008.7.7 0 0 1-.227.12.1.1 0 0 0-.034.022c-.026.03 0 .077.008.115.043.36.03.737.03 1.097a.9.9 0 0 1-.043.228c-.287.085-.57.21-.848.36a16 16 0 0 0-.386.214l-.013-.009a5.9 5.9 0 0 0-1.033-1.731 3.1 3.1 0 0 0-.625-.57 2.3 2.3 0 0 0-.673-.313 1.2 1.2 0 0 0-.527-.034 2.16 2.16 0 0 0-1.097.497c-.52.433-.96.954-1.299 1.538q-.111.18-.218.36h-.007l-.006-.004a4 4 0 0 0-.227-.27l-.438-.471c.129-.129.249-.279.369-.42.111-.133.206-.3.283-.489q.226-.637.343-1.303a1.3 1.3 0 0 0-.215-.831c.206-.043.412-.077.605-.137.287-.086.587-.18.647-.519a.3.3 0 0 0-.154-.313c-.176-.103-.356-.094-.553-.034-.2.06-.38.174-.519.33l-.146.146a.3.3 0 0 1-.077.038q.407-.666.909-1.264c.217-.263.497-.467.814-.592.381-.141.853-.171 1.286-.158.819.022 1.633.137 2.425.343a1 1 0 0 0 .116-.163l.214-.403a5 5 0 0 1 .416-.634c.287-.373.549-.686.78-.93l.313-.287c.116-.103.309-.249.472-.185.184.073.261.24.317.42.09.283.137.57.15.866zM8.062 6.02c.214.086.428.163.625.3.304.222.56.503.75.827a.02.02 0 0 1-.013.022 3.8 3.8 0 0 0-.724.608l.03-.064a.14.14 0 0 1 .043-.056q.067-.07.129-.145c0-.026-.018-.043-.026-.065-.009-.034-.034-.055-.047-.085a9 9 0 0 0-.27-.497 1.8 1.8 0 0 0-.215-.296.94.94 0 0 0-.308-.253c-.052-.021-.099-.043-.146-.047l-.171-.03a.3.3 0 0 0-.137.013q-.032.052-.06.107a.2.2 0 0 0-.009.068c0 .005 0 .009-.009.009h-.038c-.004 0-.009.004-.004.009l.012.047v.021c0 .022 0 .043.009.064.013.03 0 .06.013.095l.03.124.026.081a.3.3 0 0 1 .025.116c0 .009.005.013.013.022l.009.017v.021c.017.086.043.18.073.266a.3.3 0 0 1 .021.073c.013.043.026.081.03.12.004.025.004.047.017.073v.042l-.064-.197c-.022-.038-.009-.085-.03-.115l-.022-.039a.2.2 0 0 1-.025-.069 2 2 0 0 1-.026-.124.02.02 0 0 1-.009-.008c-.008-.043-.004-.082-.012-.116l-.073-.257c-.005 0-.009 0-.013-.009a2 2 0 0 1-.043-.141.3.3 0 0 1-.026-.112q.002-.037-.008-.068l-.022-.193a.5.5 0 0 1-.017-.116.2.2 0 0 0-.013-.073.3.3 0 0 1-.017-.137c0-.008 0-.008.009-.008h.047l-.039-.005H7.32q-.033.026-.021.065l.008.042c0 .043 0 .078.009.112l.008.064c0 .047.018.099.043.15l.009.022v.064l.008.064q0 .045.018.103.066.204.102.416l.043.163c.013.03.017.06.022.09l.025.09a.13.13 0 0 1 .013.055c0 .017.005.039.013.056l.017.073c0 .021.009.043.017.073q.05.13.073.265-.006.014-.013 0l-.008-.03v-.004l-.004-.043-.052-.171-.026-.03a.03.03 0 0 1-.008-.017v-.069c0-.004 0-.008-.009-.008H7.6v-.013a.06.06 0 0 0-.017-.043.02.02 0 0 1-.005-.022l-.004-.06a.4.4 0 0 1-.021-.141l-.035-.069a.2.2 0 0 0-.025-.06 1 1 0 0 0-.052-.291.1.1 0 0 0-.017-.034.04.04 0 0 1-.009-.043l-.004-.017a.05.05 0 0 1-.008-.043l-.005-.017-.038-.06a11 11 0 0 1-.133-.763q.001-.014.034-.009c.287.056.514.15.802.27"/><path fill="#FF8003" d="M15.218 8.648a.3.3 0 0 1-.077-.043c-.223-.167-.458-.334-.655-.535-.155-.167-.27-.313-.279-.545-.009-.184.137-.381.27-.531q.277-.312.557-.621c.06-.056.116-.129.176-.185.086-.085.176-.167.257-.257a1 1 0 0 1 .116-.098c.077-.052.111 0 .158.06a.9.9 0 0 1 .159.317q.092.434.077.878l-.004.296q-.015.18-.039.36l.004.021c0 .01 0 .013.009.022a.08.08 0 0 1 .013.064l-.013.06c-.009.052-.004.099-.021.15q-.04.134-.086.266l-.009.004-.013.064-.008.018a.2.2 0 0 0-.043.06q-.099.1-.193.205.002.012-.008.017a.24.24 0 0 1-.129.03.3.3 0 0 1-.146-.042.3.3 0 0 0-.073-.035M8.7 7.778q-.4.435-.737.917a2 2 0 0 1-.086-.227 19 19 0 0 1-.514-1.945l.034.06V6.6c0 .017 0 .03.013.043.004.008.008.012.004.021 0 .013 0 .026.009.039l.017.034q.046.142.051.291l.03.06.009.026.021.043q-.002.07.022.141c0 .017.004.043 0 .06q-.002.012.008.017c.013.018.017.03.013.048l.004.012h.009c.004 0 .009 0 .009.009v.069q-.002.01.008.017l.026.034q.027.108.06.214l.004.03q.007.014.013 0v-.017a1.5 1.5 0 0 0-.073-.248.4.4 0 0 1-.017-.073.4.4 0 0 0-.017-.073.2.2 0 0 1-.013-.056.2.2 0 0 0-.013-.056.4.4 0 0 1-.026-.09.2.2 0 0 0-.021-.09 1 1 0 0 1-.043-.162l-.021-.133a3 3 0 0 0-.082-.283.3.3 0 0 1-.017-.103c0-.021 0-.043-.008-.064v-.065l-.005-.021a.34.34 0 0 1-.043-.15l-.012-.064c-.013-.035-.005-.073-.009-.107 0-.018 0-.035-.009-.048q-.011-.039.022-.06l.017-.004h.043v.004h-.052c-.004 0-.008 0-.008.009a.24.24 0 0 0 .017.137.2.2 0 0 1 .013.073c0 .043.004.077.013.116l.013.064q.009.1.021.197a.3.3 0 0 0 .026.112l.021.068.022.073.012.009h.009v.008l.064.249c.009.034 0 .077.013.115l.009.009h.004l.004.009.017.115a.2.2 0 0 0 .026.069l.022.038c.021.035.008.078.03.116.012.017.017.039.025.06q.023.069.043.137l-.004-.043c-.013-.025-.013-.047-.017-.072 0-.043-.017-.082-.026-.12a1 1 0 0 0-.026-.073q-.06-.147-.085-.305a.03.03 0 0 1-.009-.021.4.4 0 0 0-.026-.116 1 1 0 0 1-.025-.085l-.03-.12c-.009-.035 0-.065-.013-.095a.14.14 0 0 1-.009-.064v-.021l-.013-.043.005-.013h.038c.004 0 .009 0 .009-.009q-.002-.056.008-.068l.06-.107a.4.4 0 0 1 .137-.013l.172.03a1 1 0 0 1 .146.047q.166.083.312.257.12.136.215.291.156.278.265.498c.013.03.039.051.048.085.008.022.025.039.025.065l-.004.017-.129.128a.2.2 0 0 0-.038.056z"/><path fill="#FF8003" d="M6.943 6.772c.06.282.12.578.184.84.137.535.283 1.015.471 1.491a.3.3 0 0 1 .022.086c0 .03-.009.043-.034.047-.108.021-.206.021-.309.047a1.1 1.1 0 0 0-.441.236 1.41 1.41 0 0 0-.378 1.572c.018.043.01.078-.012.116l-.442.729c-.2.33-.311.704-.326 1.088q-.013.418.069.798.128.579.454 1.152a5.7 5.7 0 0 0 1.475 1.749c.403.328.88.554 1.388.66q.617.128 1.119.167a10 10 0 0 0 3.57-.411 8.1 8.1 0 0 0 2.901-1.719q.375-.351.656-.78.225-.328.36-.733c.137-.403.154-.814.073-1.234a7.3 7.3 0 0 0-.454-1.492 10 10 0 0 0-1.136-1.962c-.034-.052-.06-.073-.03-.142a5.6 5.6 0 0 0 .471-2.537l-.004-.171V6.36a.01.01 0 0 1 .013 0q.537.424.973.952a7.2 7.2 0 0 1 1.598 3.428 7.274 7.274 0 0 1-9.42 8.194 7.31 7.31 0 0 1-4.838-8.64A7.3 7.3 0 0 1 6.68 7.02c.073-.086.159-.154.232-.24.008-.013.021-.017.03-.008"/><path fill="#fff" d="m15.176 9.343-.005.064a1.29 1.29 0 0 0-1.328-.055 3 3 0 0 0-.159-.09l-.154-.086c-.141-.103-.283-.257-.3-.441a.37.37 0 0 1 .099-.296.5.5 0 0 1 .287-.159.85.85 0 0 1 .463.06l.223.112q.343.195.642.454.143.128.215.257a.26.26 0 0 1 .017.184zm-6.892.326a1.4 1.4 0 0 0-.321-.304v-.01l.124-.175a.2.2 0 0 0 .077-.038l.146-.146c.14-.157.321-.272.523-.33.193-.06.373-.069.548.034.112.065.18.18.155.313-.06.339-.36.437-.643.519-.197.06-.403.098-.609.137"/><path fill="#FF8003" d="M15.883 13.071c-.334-.056-.647-.004-.986.077a.7.7 0 0 0 .047-.227c0-.36.009-.737-.03-1.097-.004-.038-.034-.086-.008-.116a.1.1 0 0 1 .034-.021.7.7 0 0 0 .227-.12.04.04 0 0 1 .03-.009h.009a.1.1 0 0 1 .043-.034.2.2 0 0 0 .034-.021.1.1 0 0 0 .021-.026c0-.009.009-.013.018-.013q.061-.001.085-.073c0-.004.005-.013.013-.013a.13.13 0 0 0 .06-.068c0-.005.004-.013.013-.013l.008-.013.01-.017q.088-.131.153-.274a.2.2 0 0 1 .018-.052.4.4 0 0 0 .034-.077l.017-.051q.015-.075.026-.15a.2.2 0 0 0-.022-.129 1.3 1.3 0 0 0-.291-.861 1.8 1.8 0 0 0-.274-.266l.004-.06a.1.1 0 0 0 .03-.069V9.27l.008-.009h.022l.107.129a.3.3 0 0 0 .064.056.2.2 0 0 1 .065.068l.042.06a.2.2 0 0 1 .056.09c.013.026.026.052.043.069a.04.04 0 0 1 .008.021c.01.03.018.056.035.086a.1.1 0 0 1 .017.064v.017l.069.107v.013l.012.009h.009q.083.258.116.527l.017.086c.055.428.085.703.09.835.017.48-.013.965-.099 1.445a1 1 0 0 0-.004.128"/><path fill="#fff" d="M14.46 11.297a.828.828 0 1 0 .119-1.651.828.828 0 0 0-.12 1.651m-7.667-.943c-.103.459.107.892.458.969.356.077.72-.232.823-.686.099-.458-.107-.891-.463-.968-.351-.078-.72.231-.818.685"/><path fill="#FFA403" d="M7.427 12.643a4.4 4.4 0 0 0-.999-.746l.172-.3.081-.128.006-.006.007-.003h.009l.008.004a.95.95 0 0 0 1.239.073h.008l.005.004v.005c0 .034-.013.068-.022.103q-.1.361-.308.672l-.206.313z"/><path fill="#fff" d="M15.883 13.071c-.334-.055-.647-.004-.986.078-.283.085-.566.21-.844.36q-.195.104-.386.214a.02.02 0 0 1-.017-.013 5.9 5.9 0 0 0-1.033-1.732 3.1 3.1 0 0 0-.617-.57 2.3 2.3 0 0 0-.673-.312 1.2 1.2 0 0 0-.527-.035c-.405.059-.786.23-1.097.498-.52.433-.96.953-1.299 1.538l-.218.36h-.007l-.006-.004a4 4 0 0 0-.227-.27l-.437-.472-.078-.072A4.4 4.4 0 0 0 6.43 11.9a2.12 2.12 0 0 0-.322 1.65q.116.574.45 1.115a5.9 5.9 0 0 0 1.517 1.645c.257.193.57.326.887.407q.555.15 1.166.168c.673.021 1.346-.026 2.006-.129a9.5 9.5 0 0 0 1.967-.531 8 8 0 0 0 1.337-.729 5.2 5.2 0 0 0 1.2-1.088q.259-.332.407-.712a1.6 1.6 0 0 0-1.157-.63zm-4.976-.248a.26.26 0 0 0-.15.236c0 .085-.098.137-.163.162a.6.6 0 0 1-.214.039c-.073 0-.201-.043-.18-.142.022-.085.043-.167-.017-.244a.5.5 0 0 0-.142-.116l-.257-.15c-.163-.098-.3-.274-.3-.47 0-.207.189-.28.36-.3a7 7 0 0 1 .802-.057c.265 0 .535.022.78.137a.76.76 0 0 1 .428.63c.009.206-.171.378-.385.31a3 3 0 0 0-.215-.065.48.48 0 0 0-.347.03M9.343 14.34a.7.7 0 0 0 .278.098q.115.02.313 0c.33-.02.665-.055.978-.098a8.4 8.4 0 0 1 1.855.043h.022c.085.013.145.021.197.09.021.025.025.064.021.107-.013.098-.111.15-.201.129a6.4 6.4 0 0 0-1.444-.185 7 7 0 0 0-.956.073l-.12.017-.24.017-.746.009c-.077 0-.129-.034-.141-.103a.15.15 0 0 1 .012-.111c.03-.06.099-.12.172-.086"/></g><defs><linearGradient id="b" x1="4.466" x2="29.207" y1="4.161" y2="32.58" gradientUnits="userSpaceOnUse"><stop stop-color="#1A1E21"/><stop offset="1" stop-color="#06060A"/></linearGradient><clipPath id="a"><path fill="#fff" d="M0 0h24v24H0z"/></clipPath></defs></svg>