<svg width="24" height="24" viewBox="0 0 24 24" fill="none" xmlns="http://www.w3.org/2000/svg">
<g clip-path="url(#clip0_31_18613)">
<path d="M0 0H24V24H0V0Z" fill="#F8EE5A"/>
<path d="M12.6642 4.74876L12.5442 5.38733C12.1842 5.35733 11.8199 5.36162 11.4556 5.39591L11.0913 4.77876C11.6185 4.70162 12.1413 4.69305 12.6642 4.74876Z" fill="#B16D04"/>
<path d="M12.6642 4.74854C12.9471 4.76139 13.2128 4.80425 13.4699 4.87711C13.6799 5.07425 13.7699 5.30139 13.7357 5.55425C13.7142 5.71711 13.6585 5.86282 13.5642 5.98282C13.4614 6.12854 13.3328 6.19711 13.1785 6.19711C12.9771 6.20139 12.7671 6.17568 12.5357 6.11996C12.4628 6.10282 12.4328 6.05139 12.4457 5.97425L12.5442 5.38711L12.6642 4.74854ZM11.0914 4.77854L11.4557 5.39568L11.7685 5.94425C11.7942 5.98711 11.7899 6.02996 11.7599 6.07282C11.7494 6.08547 11.7363 6.0958 11.7215 6.10318C11.7068 6.11055 11.6907 6.11481 11.6742 6.11568C11.6544 6.11938 11.6339 6.11633 11.616 6.107C11.5982 6.09768 11.5839 6.08262 11.5757 6.06425L11.4514 5.84996C11.4463 5.84104 11.4387 5.83383 11.4296 5.82925C11.4204 5.82467 11.4101 5.82293 11.3999 5.82425L10.8857 5.89711C10.8557 5.89711 10.8385 5.91425 10.8342 5.93996L10.7828 6.14568C10.7657 6.21425 10.7228 6.24425 10.6542 6.24425C10.6446 6.24448 10.6351 6.24268 10.6262 6.23899C10.6174 6.2353 10.6094 6.22979 10.6028 6.22282C10.5866 6.20789 10.5749 6.18879 10.5688 6.16763C10.5628 6.14646 10.5627 6.12404 10.5685 6.10282L10.7142 5.52425L10.8942 4.81711C10.9536 4.78198 11.0232 4.76836 11.0914 4.77854Z" fill="#F6C11B"/>
<path d="M10.8944 4.8171L10.7144 5.52424C10.5429 5.51567 10.3715 5.55424 10.1958 5.63567L10.1187 5.61853C10.1015 5.61853 10.0929 5.60567 10.1015 5.58424C10.1958 5.3571 10.1187 5.1771 9.87866 5.04424C10.1845 4.92727 10.5044 4.8509 10.8301 4.8171C10.8361 4.81601 10.8422 4.81621 10.8482 4.81769C10.8541 4.81916 10.8596 4.82189 10.8644 4.82567V4.83424C10.8644 4.84281 10.8687 4.84281 10.8729 4.83424C10.8729 4.82996 10.8815 4.82138 10.8944 4.8171Z" fill="#B16D04"/>
<path d="M14.6228 5.21124C14.5225 5.21249 14.4235 5.23446 14.332 5.27575C14.2406 5.31705 14.1587 5.3768 14.0914 5.45124C13.7914 5.80267 13.8085 6.17124 14.1514 6.55695C13.5385 6.3641 13.1142 6.25695 12.8742 6.22695C11.8542 6.09838 10.9028 6.19267 10.0114 6.50981C9.28977 6.77787 8.63057 7.19061 8.07424 7.72267L7.6671 8.0741C7.76139 7.67552 7.62853 7.45695 7.2771 7.42267C7.28567 7.34981 7.34567 7.2641 7.46139 7.15695L7.52996 7.08838L7.89424 7.56838C7.93281 7.61124 7.97996 7.62838 8.03567 7.61981C8.05273 7.61452 8.06772 7.60403 8.07853 7.58981C8.13853 7.52981 8.13853 7.46552 8.0871 7.40124L7.85139 7.10124C7.82996 7.07124 7.83424 7.04981 7.85996 7.02838L8.2971 6.68552C8.30996 6.67695 8.32281 6.67695 8.33567 6.6941L8.59281 7.02838C8.64424 7.09267 8.70424 7.10124 8.77281 7.0541C8.78579 7.04601 8.79737 7.03588 8.8071 7.0241C8.8371 6.98124 8.8371 6.92981 8.80281 6.88267L8.03139 5.88838L8.44281 5.63552L9.04281 6.77552C9.08139 6.83981 9.12853 6.85695 9.20139 6.81838C9.24424 6.80124 9.26567 6.77124 9.27853 6.72838C9.28113 6.71902 9.28171 6.70921 9.28023 6.6996C9.27875 6.69 9.27525 6.68082 9.26996 6.67267L8.64853 5.53695L9.06853 5.32695L9.50139 6.54838C9.51853 6.59981 9.55281 6.61695 9.59996 6.59981L10.0971 6.43267C10.3971 6.32981 10.4957 6.12838 10.3971 5.8241C10.38 5.7641 10.3114 5.69981 10.1957 5.63552C10.3671 5.5541 10.5428 5.51552 10.7142 5.5241L10.5685 6.10267C10.5557 6.14981 10.5685 6.18838 10.6028 6.22267C10.6157 6.23981 10.6328 6.2441 10.65 6.2441C10.7228 6.2441 10.7657 6.2141 10.7785 6.14552L10.8342 5.93981C10.8385 5.9141 10.8557 5.89695 10.8814 5.89695L11.3957 5.8241C11.4214 5.8241 11.4385 5.82838 11.4514 5.84981L11.58 6.0641C11.6014 6.10267 11.6314 6.11981 11.6742 6.11124C11.6907 6.11037 11.7068 6.10611 11.7216 6.09874C11.7363 6.09136 11.7494 6.08103 11.76 6.06838C11.79 6.02552 11.7942 5.98695 11.7685 5.93981L11.4557 5.39552C11.82 5.36124 12.1842 5.35695 12.5442 5.38695L12.4457 5.9741C12.4328 6.05124 12.4628 6.10267 12.54 6.11981C12.7671 6.17552 12.9771 6.20552 13.1828 6.20124C13.3328 6.20124 13.4614 6.12838 13.5685 5.98695C13.6542 5.85838 13.7142 5.71695 13.7357 5.55838C13.77 5.30124 13.68 5.0741 13.47 4.87695C13.8771 4.93267 14.2585 5.03981 14.6228 5.21124Z" fill="#985E04"/>
<path d="M13.4571 5.53726L12.7971 5.40011L12.8657 5.03154C12.8657 5.00583 12.8828 4.99725 12.9085 5.00154C12.9343 5.01011 12.9814 5.0144 13.0414 5.02297C13.17 5.04011 13.2557 5.06583 13.3071 5.09583C13.4485 5.18154 13.5 5.33154 13.4614 5.53726H13.4571Z" fill="#B16D04"/>
<path d="M9.8786 5.04443C10.1186 5.17301 10.1957 5.35729 10.1015 5.58443C10.0929 5.60586 10.1015 5.61443 10.1186 5.61872L10.1957 5.63586C10.3115 5.70015 10.38 5.76443 10.3972 5.82443C10.4957 6.12443 10.3972 6.33015 10.0972 6.433L9.60003 6.60015C9.55289 6.61729 9.5186 6.60015 9.50146 6.54872L9.0686 5.32729C9.33003 5.203 9.60003 5.10872 9.8786 5.04443Z" fill="#F6C11B"/>
<path d="M10.9156 5.62711L11.0313 5.21997C11.0356 5.19426 11.0485 5.19426 11.0613 5.21997L11.2842 5.57568C11.2928 5.59283 11.2842 5.6014 11.2713 5.60568L10.9328 5.64854C10.9156 5.65283 10.9113 5.64854 10.9156 5.62711Z" fill="#985E04"/>
<path d="M14.6228 5.21143C14.8028 5.25 14.9656 5.31857 15.107 5.42571C15.3256 5.76428 15.3256 6.08143 15.107 6.37714C14.9613 6.57 14.7599 6.66428 14.5028 6.66428L14.1513 6.55714C13.8085 6.17143 13.787 5.80285 14.0913 5.45143C14.2156 5.30571 14.3913 5.22857 14.6228 5.21143Z" fill="#F6C11B"/>
<path d="M9.3944 5.48577C9.38583 5.46435 9.3944 5.4472 9.41583 5.44292L9.71583 5.33577C9.79726 5.30577 9.85297 5.3272 9.87868 5.40435L9.90011 5.46435C9.92583 5.54149 9.90011 5.59292 9.8144 5.6272L9.51868 5.73006C9.49725 5.73863 9.4844 5.73006 9.47583 5.70863L9.3944 5.48577Z" fill="#B16D04"/>
<path d="M12.7972 5.3999L13.4615 5.53705C13.453 5.65705 13.4187 5.7599 13.3458 5.84562C13.3126 5.88893 13.2686 5.9228 13.2182 5.94385C13.1679 5.9649 13.1128 5.97241 13.0587 5.96562C12.9508 5.95548 12.8435 5.93974 12.7372 5.91847C12.7201 5.91419 12.7158 5.90133 12.7158 5.88419L12.7972 5.3999Z" fill="#985E04"/>
<path d="M16.2172 6.06853C15.7887 6.00424 15.493 6.13282 15.3301 6.46282C15.2187 6.68567 15.2444 6.94282 15.4072 7.23424L14.4944 6.73282C14.4858 6.72853 14.4815 6.71996 14.4858 6.71139C14.4858 6.70282 14.4901 6.69853 14.4987 6.70282C14.5115 6.71139 14.5158 6.70282 14.5158 6.68996C14.5135 6.68053 14.5091 6.67174 14.503 6.66424C14.7601 6.66424 14.9615 6.56996 15.103 6.3771C15.3258 6.08139 15.3258 5.76424 15.103 5.42139C15.5101 5.57996 15.883 5.79424 16.2172 6.06853Z" fill="#B16D04"/>
<path d="M14.9871 6.02582L14.22 5.72582C14.2843 5.6101 14.3785 5.53296 14.4943 5.49439C14.6528 5.43867 14.7857 5.47296 14.8928 5.58867C15 5.70439 15.0343 5.85439 14.9871 6.02582Z" fill="#B16D04"/>
<path d="M8.64859 5.53711L9.27001 6.67282C9.27858 6.68997 9.28287 6.70711 9.27858 6.72854C9.27356 6.74901 9.26403 6.7681 9.25069 6.78441C9.23734 6.80073 9.22051 6.81385 9.20144 6.82282C9.13287 6.85711 9.08144 6.83997 9.04287 6.77568L8.44287 5.63568L8.64859 5.53711Z" fill="#F6C11B"/>
<path d="M14.2201 5.72559L14.9915 6.02559C14.9572 6.14987 14.8929 6.24844 14.7944 6.32559C14.6144 6.46273 14.4472 6.46273 14.2886 6.32559C14.1086 6.16273 14.0872 5.96559 14.2201 5.72559ZM9.57435 5.97844L9.57864 5.9613L9.93007 5.83273C10.0372 5.78987 10.1101 5.82416 10.1444 5.92273L10.1658 5.97844C10.2086 6.0813 10.1701 6.14987 10.0629 6.19273L9.71578 6.3213C9.70721 6.3213 9.70293 6.3213 9.69864 6.31273L9.57007 5.97844H9.57435Z" fill="#985E04"/>
<path d="M8.03143 5.88867L8.80286 6.88296C8.83714 6.9301 8.83714 6.97724 8.80286 7.02439C8.79442 7.03584 8.78431 7.04595 8.77286 7.05439C8.70429 7.10153 8.64429 7.09724 8.59286 7.02867L8.33572 6.69439C8.32286 6.67724 8.31 6.67724 8.29714 6.6901L7.86 7.02867C7.83429 7.0501 7.83 7.07153 7.85143 7.10153L8.08714 7.40153C8.13857 7.46582 8.13857 7.5301 8.08286 7.5901C8.07094 7.60509 8.05434 7.61565 8.03572 7.6201C8.00973 7.62747 7.98208 7.62647 7.95669 7.61724C7.9313 7.60801 7.90947 7.59101 7.89429 7.56867L7.53 7.08867L7.14429 6.57439L7.32429 6.4201L7.66286 6.84439C7.67572 6.85724 7.68857 6.86153 7.70572 6.84439L8.14714 6.5101C8.16857 6.49296 8.16857 6.47581 8.15572 6.45867L7.84286 6.01296L8.03143 5.88867Z" fill="#F6C11B"/>
<path d="M7.84279 6.0127L8.15565 6.45841C8.1685 6.47555 8.1685 6.4927 8.14708 6.50984L7.70565 6.84841C7.6885 6.86127 7.67565 6.85698 7.66279 6.84412L7.32422 6.41555C7.48279 6.25698 7.6585 6.12412 7.84279 6.0127Z" fill="#B16D04"/>
<path d="M16.2173 6.06879C16.3758 6.1545 16.5173 6.27021 16.6544 6.42021V6.46307C16.6587 6.52736 16.6544 6.57021 16.6287 6.59164C16.6144 6.60681 16.5971 6.61883 16.5779 6.62695C16.5587 6.63506 16.5381 6.6391 16.5173 6.63879C16.5072 6.63958 16.497 6.63761 16.488 6.63308C16.4789 6.62854 16.4712 6.62163 16.4658 6.61307C16.3801 6.49307 16.2944 6.40307 16.2001 6.35593C16.0201 6.25307 15.8358 6.28736 15.643 6.45879C15.4244 6.81021 15.5015 7.07593 15.8744 7.24736C15.8958 7.26021 15.9173 7.25164 15.9344 7.2345L16.033 7.10593C16.0587 7.07593 16.0544 7.04593 16.0201 7.0245C15.8358 6.91307 15.8187 6.81021 15.9601 6.71593C16.1187 6.78879 16.2558 6.88736 16.3673 7.01593C16.3844 7.03307 16.3844 7.05021 16.3715 7.06736C16.2944 7.19593 16.2087 7.3245 16.1058 7.44879C16.0544 7.50879 15.9601 7.52164 15.8187 7.48307L15.7158 7.46164L15.4073 7.23021C15.2444 6.94307 15.2187 6.68593 15.3301 6.45879C15.493 6.13307 15.7887 6.0045 16.213 6.06879H16.2173Z" fill="#F6C11B"/>
<path d="M16.6544 6.42008C16.8344 6.52294 16.9972 6.66437 17.1387 6.84008C16.7572 7.12294 16.4101 7.44437 16.0887 7.80008C15.9472 7.75722 15.823 7.64579 15.7158 7.45722L15.8187 7.48294C15.9601 7.52579 16.0544 7.50865 16.1058 7.44865C16.2087 7.32008 16.2944 7.19151 16.3715 7.06722C16.3844 7.05008 16.3844 7.03294 16.3715 7.01579C16.2558 6.88722 16.1187 6.78437 15.9601 6.71579C15.8799 6.60097 15.7683 6.51169 15.6387 6.45865C15.8358 6.28722 16.0244 6.25294 16.1958 6.35151C16.2901 6.40294 16.3801 6.49294 16.4658 6.61294C16.4787 6.63008 16.4958 6.63865 16.5172 6.63865C16.5601 6.63865 16.5987 6.62151 16.6287 6.59579C16.6501 6.57008 16.6587 6.52722 16.6587 6.46722V6.42008H16.6544Z" fill="#B16D04"/>
<path d="M15.6428 6.4585C15.7885 6.52707 15.8956 6.61278 15.9599 6.71564C15.8185 6.80992 15.8356 6.91278 16.0199 7.02421C16.0542 7.04564 16.0585 7.07564 16.0328 7.10992L15.9342 7.23421C15.917 7.25135 15.8956 7.25992 15.8742 7.24707C15.5013 7.07564 15.4242 6.80992 15.6385 6.4585H15.6428Z" fill="#985E04"/>
<path d="M7.14434 6.57422L7.53005 7.0885L7.46148 7.15708C7.34577 7.26422 7.28577 7.34993 7.2772 7.42279C7.14005 7.4785 7.02005 7.55136 6.91291 7.63708C6.74148 7.78279 6.62577 7.79565 6.56148 7.67993C6.55161 7.66331 6.54536 7.6448 6.54314 7.62559C6.54092 7.60639 6.54279 7.58693 6.54862 7.5685C6.5872 7.4485 6.69434 7.34565 6.88291 7.25993L6.93005 7.2385C7.0072 7.20422 7.02005 7.15279 6.97291 7.07565C6.96452 7.06078 6.95187 7.04876 6.9366 7.04112C6.92133 7.03348 6.90413 7.03058 6.8872 7.03279L6.69862 7.03708C6.81434 6.85279 6.96434 6.69422 7.14434 6.57422Z" fill="#B16D04"/>
<path d="M17.1429 6.84022L17.7258 7.49165L17.6229 7.60308C17.58 7.64594 17.5372 7.64594 17.4986 7.60308L17.1429 7.20022C17.1258 7.17879 17.1086 7.1788 17.0872 7.19594L16.89 7.36737C16.8729 7.38451 16.8729 7.39737 16.89 7.41022C17.04 7.55594 17.1472 7.70165 17.2072 7.86022C17.1215 7.95451 17.0358 7.95451 16.9586 7.86022L16.7143 7.56022C16.7058 7.55165 16.6929 7.54737 16.6843 7.56022L16.44 7.77022C16.4272 7.77879 16.4272 7.79165 16.44 7.80451L16.77 8.17737C16.8129 8.22022 16.8215 8.27165 16.8 8.32737C16.7786 8.39165 16.7143 8.41308 16.6243 8.38737L16.0886 7.79594C16.41 7.44022 16.7572 7.11879 17.1386 6.83594L17.1429 6.84022ZM7.27719 7.42308C7.62862 7.45737 7.76148 7.67594 7.66719 8.07451L7.46576 8.32308C7.32005 8.40879 7.17862 8.44308 7.05433 8.44308C7.04429 8.44344 7.03432 8.44128 7.02534 8.43678C7.01635 8.43229 7.00864 8.42561 7.0029 8.41737C6.96433 8.36594 6.96005 8.31879 6.99862 8.26308C7.00876 8.24726 7.02382 8.23522 7.04148 8.22879C7.17005 8.19022 7.27719 8.13022 7.35862 8.05308C7.46148 7.95022 7.48719 7.84308 7.43148 7.73165C7.42656 7.72039 7.41887 7.71055 7.40913 7.70306C7.39939 7.69557 7.38791 7.69066 7.37576 7.68879C7.29862 7.67594 7.1829 7.72308 7.0329 7.8388L6.93862 7.90737C6.84433 7.97165 6.75433 8.00594 6.66433 8.01022C6.41576 7.97594 6.29148 7.79594 6.29576 7.47451C6.40719 7.30308 6.54005 7.16165 6.69862 7.03737L6.89148 7.02879C6.90887 7.02697 6.9264 7.03051 6.94172 7.03894C6.95704 7.04736 6.96942 7.06028 6.97719 7.07594C7.02005 7.14879 7.00719 7.20451 6.93433 7.23879L6.8829 7.26022C6.69433 7.34594 6.5829 7.44879 6.54862 7.56879C6.54005 7.61165 6.54433 7.64594 6.56148 7.68022C6.62576 7.79594 6.74576 7.78308 6.9129 7.63737C7.02005 7.55165 7.14433 7.47879 7.27719 7.42308Z" fill="#F6C11B"/>
<path d="M17.7256 7.4913C18.2841 8.1851 18.7045 8.9794 18.9642 9.8313C19.3285 11.0356 19.3842 12.2656 19.1271 13.5256C18.7437 15.2812 17.7316 16.8359 16.2814 17.897C15.4217 18.526 14.4315 18.9537 13.3842 19.1484C11.8971 19.4313 10.4699 19.277 9.0985 18.677C7.5685 18.0127 6.41135 16.9627 5.62707 15.527C4.92412 14.2707 4.61223 12.8331 4.73134 11.3985C4.85045 9.9638 5.39514 8.59735 6.29564 7.47416C6.29564 7.79987 6.41564 7.97558 6.66421 8.00987L6.50135 8.34415C6.4885 8.36558 6.47564 8.36987 6.45421 8.3613C6.38088 8.32565 6.29705 8.31803 6.2185 8.33987C6.20898 8.3428 6.20022 8.34777 6.19282 8.35443C6.18542 8.36109 6.17955 8.36929 6.17564 8.37844L5.80707 9.1713C5.70421 9.37701 5.71707 9.51844 5.83707 9.60415C5.80177 9.63222 5.7726 9.66723 5.75135 9.70701C5.7385 9.72844 5.74707 9.74558 5.7685 9.74987L5.93135 9.82701C5.95707 9.83558 5.96564 9.85273 5.96564 9.87844L5.95707 9.93844C5.95278 9.96844 5.93564 9.9813 5.90564 9.96844L5.72564 9.91273C5.70421 9.90415 5.69135 9.91273 5.6785 9.92987C5.66742 9.94513 5.6601 9.96278 5.65712 9.98139C5.65415 10 5.6556 10.0191 5.66135 10.037C5.67421 10.0627 5.66135 10.0799 5.63135 10.0927C5.5885 10.1056 5.57135 10.127 5.57993 10.1613C5.51993 10.1827 5.48993 10.217 5.49421 10.2513C5.43421 10.2384 5.41278 10.2813 5.4385 10.3713C5.44278 10.4013 5.45564 10.4013 5.46421 10.3713L5.47278 10.3584C5.48564 10.3413 5.50278 10.3413 5.51993 10.3584L5.80707 10.5984C5.8585 10.6413 5.88421 10.6284 5.87993 10.5599C5.87993 10.5427 5.8885 10.5256 5.90564 10.517C5.93135 10.4913 5.93993 10.4956 5.93564 10.5299L5.85421 10.9884L5.81564 10.9627C5.67657 10.8845 5.55425 10.7796 5.45564 10.6542C5.44707 10.6413 5.4385 10.6413 5.42993 10.6542C5.38707 10.7484 5.36135 10.847 5.35707 10.9542C5.27993 11.0099 5.24993 11.1127 5.26707 11.2542C5.27564 11.3227 5.30993 11.3827 5.3785 11.4384C5.39564 11.4513 5.39564 11.4642 5.39135 11.4813C5.29278 11.6742 5.29707 11.8627 5.40421 12.047C5.33993 12.077 5.30135 12.1199 5.29278 12.1756C5.29278 12.1842 5.29707 12.1884 5.31421 12.1799L5.30993 12.2013C5.30993 12.2227 5.3185 12.227 5.33564 12.2184C5.54993 12.107 5.7085 12.1199 5.80278 12.2527L5.89278 12.7927C5.70708 12.7648 5.52827 12.7023 5.36564 12.6084C5.37421 12.5142 5.36564 12.4284 5.33564 12.3513C5.30564 12.2784 5.29707 12.2827 5.30564 12.3599L5.3185 12.5056C5.32707 12.6213 5.33564 12.7113 5.3485 12.7713C5.37421 12.8956 5.39135 13.0156 5.4085 13.1399C5.42135 13.2642 5.47707 13.3456 5.57564 13.3842C5.57993 13.577 5.6185 13.7699 5.69564 13.9627C5.67421 13.967 5.66564 13.9799 5.66993 14.0013C5.66993 14.0013 5.66993 14.0099 5.6785 14.0142L5.69564 14.0099C5.67974 14.0286 5.66804 14.0505 5.66135 14.0742C5.6485 14.087 5.6485 14.0999 5.65278 14.117C5.7385 14.3742 5.8585 14.6827 6.0085 15.0384C6.05135 15.1327 6.12421 15.1799 6.23564 15.1799C6.26564 15.3813 6.35564 15.5484 6.50993 15.6813C6.52278 15.6942 6.53135 15.707 6.52707 15.7242C6.52278 15.7713 6.53564 15.8184 6.56564 15.8613C6.56564 15.8827 6.57421 15.9042 6.58707 15.917C6.79707 16.1742 7.00707 16.427 7.22993 16.6756C7.27278 16.7313 7.34564 16.7484 7.44421 16.7313C7.55993 16.8942 7.70135 17.0399 7.87278 17.1599C7.85993 17.2156 7.87707 17.2584 7.93278 17.2842C7.86421 17.297 7.87707 17.327 7.97564 17.3742C8.30564 17.6442 8.55421 17.8284 8.71707 17.9313C8.77707 17.9656 8.8585 17.9613 8.95707 17.9099C9.10278 18.0984 9.2785 18.1756 9.48421 18.1499C9.48421 18.2356 9.50564 18.2784 9.53993 18.2613C9.5485 18.2956 9.56135 18.317 9.58278 18.3256C9.59993 18.3384 9.61278 18.3342 9.61278 18.3084V18.2356C9.62564 18.2827 9.62135 18.3299 9.6085 18.377C9.59993 18.4027 9.6085 18.4199 9.63421 18.4199L9.70707 18.4284C9.77564 18.4327 9.82278 18.4413 9.85278 18.4499C10.2471 18.5913 10.4956 18.6642 10.5942 18.677C10.6671 18.677 10.7142 18.6556 10.7314 18.6084C10.7656 18.5913 10.7956 18.5656 10.8171 18.5227L10.8942 18.6084C10.9371 18.6513 10.9628 18.6513 10.9799 18.587L11.0271 18.4156C11.0299 18.407 11.035 18.3993 11.0417 18.3933C11.0485 18.3872 11.0568 18.3831 11.0656 18.3813C11.096 18.3698 11.1296 18.3698 11.1599 18.3813C11.1771 18.3899 11.1814 18.4027 11.1856 18.4156C11.1925 18.4525 11.1911 18.4905 11.1815 18.5269C11.1719 18.5632 11.1542 18.5969 11.1299 18.6256C11.1128 18.6427 11.1171 18.6513 11.1428 18.6513L11.3785 18.6342C11.3914 18.6942 11.4214 18.7327 11.4642 18.7627L11.4728 18.7842C11.4771 18.8056 11.4899 18.8142 11.5071 18.8142C11.8028 18.827 12.1156 18.8227 12.4499 18.8013C12.5914 18.7927 12.6728 18.737 12.7071 18.6299C12.7114 18.5999 12.7242 18.5956 12.7456 18.617L12.7671 18.6427C12.7799 18.6556 12.7971 18.6684 12.8142 18.6727C12.8399 18.677 12.8656 18.6727 12.8828 18.6556C12.8902 18.6494 12.8961 18.6415 12.8998 18.6325C12.9036 18.6235 12.9051 18.6138 12.9042 18.6042L12.8785 18.4113C12.8785 18.3856 12.8871 18.3684 12.9128 18.3642L12.9856 18.3384C13.0156 18.3299 13.0371 18.3384 13.0456 18.3727L13.0842 18.5442C13.0842 18.5699 13.0799 18.587 13.0542 18.5956L13.0028 18.617C12.9599 18.6299 12.9599 18.6384 13.0028 18.6384C13.1056 18.6342 13.2085 18.617 13.3199 18.5827C13.3414 18.647 13.3628 18.6899 13.3971 18.7113C13.4142 18.7199 13.4399 18.7242 13.4614 18.7113C13.4871 18.7027 13.4914 18.6942 13.4656 18.677L13.4228 18.6427C13.4049 18.6325 13.3901 18.6177 13.3799 18.5999C13.2856 18.4242 13.2856 18.2999 13.3799 18.2184L13.9714 18.0342C13.9671 18.197 13.9328 18.3556 13.8728 18.5056C13.8701 18.5159 13.8647 18.5253 13.8572 18.5328C13.8496 18.5404 13.8402 18.5457 13.8299 18.5484L13.5856 18.6127C13.5771 18.617 13.5728 18.6256 13.5771 18.6342L13.5899 18.6427C13.8085 18.6042 14.0099 18.5442 14.1899 18.4542C14.2756 18.4542 14.3699 18.4284 14.4728 18.3813C14.5414 18.3556 14.5671 18.3042 14.5456 18.2313L14.4985 18.0299C14.4944 18.0111 14.4837 17.9944 14.4685 17.9827L14.3999 17.9356C14.3742 17.9142 14.3742 17.9099 14.4085 17.9184C14.4814 17.9442 14.5242 17.987 14.5371 18.047C14.5499 18.1156 14.5714 18.1884 14.6014 18.2613C14.6271 18.3127 14.6656 18.3299 14.7214 18.3042C14.8756 18.2484 15.0128 18.1627 15.1371 18.0556C15.1499 18.0427 15.1499 18.0299 15.1371 18.017C15.0706 17.964 15.0153 17.8985 14.9742 17.8242C14.9314 17.7384 14.9528 17.6527 15.0514 17.5713L15.3171 17.3484C15.3797 17.3398 15.4374 17.3095 15.4799 17.2627C15.4928 17.2456 15.5228 17.2284 15.5656 17.2113C15.6562 17.382 15.6864 17.5784 15.6514 17.7684L15.4885 17.9184C15.4739 17.9333 15.4564 17.945 15.4371 17.9527C15.3899 17.9656 15.3814 17.9527 15.4071 17.9099C15.4328 17.8799 15.4371 17.8499 15.4199 17.8156C15.3771 17.7384 15.3514 17.6484 15.3342 17.5499C15.3299 17.507 15.2999 17.477 15.2528 17.4642C15.2056 17.4599 15.1671 17.477 15.1456 17.5199L15.1199 17.5713C15.0256 17.627 14.9914 17.6913 15.0214 17.7599C15.0942 17.9399 15.2014 18.0342 15.3428 18.0384C15.3942 18.0513 15.4499 18.0127 15.5056 17.9356L16.1099 17.4727C16.2128 17.3956 16.2514 17.3013 16.2256 17.1984C16.3971 17.0913 16.5471 16.9542 16.6799 16.7827C16.7699 16.8127 16.8085 16.7999 16.7914 16.7527C16.8471 16.7099 16.8599 16.6542 16.8256 16.5856C16.7635 16.4638 16.6888 16.3489 16.6028 16.2427L16.8299 15.9427L17.0228 16.2942C17.0356 16.3113 17.0356 16.3327 17.0314 16.3499L16.9928 16.5299C16.9725 16.5931 16.9372 16.6504 16.8899 16.697V16.7099H16.9028L17.4814 16.0242C17.5585 15.9299 17.5671 15.8399 17.5071 15.7456C17.5498 15.7403 17.5909 15.7261 17.6278 15.704C17.6647 15.6818 17.6966 15.6522 17.7214 15.617C17.8071 15.4842 17.8542 15.3599 17.8628 15.257C17.8628 15.2399 17.8756 15.227 17.8928 15.2184L18.0128 15.1842C18.0311 15.1766 18.0462 15.163 18.0556 15.1456C18.1114 15.0599 18.1414 14.9742 18.1542 14.8842H18.1585L18.1671 14.8756L18.4456 14.1213C18.4714 14.0527 18.4456 13.9842 18.3599 13.9113C18.4628 13.8256 18.5185 13.7142 18.5314 13.5684L18.5571 13.3199C18.6128 13.307 18.6428 13.2899 18.6599 13.2642C18.6728 13.247 18.6642 13.2384 18.6428 13.2384C18.5185 13.2556 18.3985 13.2384 18.2828 13.1999C18.2571 13.1913 18.2314 13.1484 18.2142 13.067L18.2785 12.4799C18.4499 12.5784 18.5956 12.6984 18.7285 12.8484V13.0584C18.7285 13.1613 18.7328 13.1613 18.7456 13.0584L18.8571 12.1713C18.8442 12.0856 18.7928 12.0256 18.7156 11.9999C18.7714 11.8884 18.7842 11.7684 18.7585 11.6399C18.7456 11.5542 18.7199 11.4599 18.6856 11.3742C18.7714 11.3227 18.8142 11.2713 18.8142 11.2199C18.8099 11.1342 18.8014 11.1299 18.7885 11.1899C18.6385 11.2756 18.5099 11.3184 18.4028 11.3184C18.3685 11.3227 18.3256 11.2842 18.2828 11.207L18.1842 10.937L18.1414 10.6156L18.6856 10.787L18.7714 11.087C18.7714 11.0999 18.7756 11.0999 18.7842 11.0956L18.7885 11.0742C18.7371 10.7999 18.6771 10.5213 18.6128 10.247C18.5785 10.1184 18.5099 10.0413 18.4071 10.0199C18.4028 9.82701 18.3471 9.63415 18.2442 9.45844C18.3171 9.40273 18.3385 9.34273 18.3085 9.27415C18.2356 9.08558 18.0856 8.75987 17.8499 8.30558C17.8363 8.2749 17.813 8.24951 17.7836 8.23327C17.7542 8.21703 17.7203 8.21082 17.6871 8.21558C17.6263 8.22311 17.5678 8.24357 17.5156 8.27558L17.2156 7.86416C17.1514 7.70558 17.0442 7.55987 16.8942 7.41415C16.8771 7.4013 16.8771 7.38844 16.8942 7.3713L17.0914 7.19987C17.1128 7.18273 17.1342 7.18273 17.1471 7.19987L17.5028 7.60273C17.5456 7.64558 17.5885 7.64558 17.6271 7.60273L17.7299 7.4913H17.7256Z" fill="#B16D04"/>
<path d="M11.9144 9.12866C11.923 9.15009 11.9316 9.15009 11.9401 9.13294C11.9958 9.04723 12.0558 9.00437 12.1201 9.00009C12.2316 8.99151 12.3516 9.03437 12.4716 9.12009C12.6858 9.27437 12.8916 9.46294 13.0844 9.67294C13.1058 9.69437 13.1273 9.70294 13.1615 9.69437C13.5815 9.5958 14.0187 9.5958 14.4901 9.69437C14.5116 9.69866 14.5287 9.69437 14.5416 9.67723C14.777 9.3582 15.1069 9.12131 15.4844 9.00009C15.583 8.9658 15.6515 9.00009 15.6815 9.10723C15.7844 9.46294 15.7373 9.99866 15.5316 10.7101C15.5273 10.7272 15.5273 10.7487 15.5358 10.7658L15.5616 10.8087C15.7547 11.0983 15.8392 11.4469 15.8 11.7928C15.7608 12.1388 15.6004 12.4596 15.3473 12.6987C15.3344 12.7201 15.3344 12.7372 15.3558 12.7544L15.6344 13.0244C15.7115 13.1058 15.7201 13.1872 15.6473 13.2815V13.2987L15.6601 13.3072C15.7887 13.1701 15.8573 12.9558 15.8744 12.6644C15.8767 12.6176 15.8885 12.5718 15.9091 12.5298C15.9298 12.4878 15.9588 12.4505 15.9944 12.4201C16.0801 12.3472 16.1658 12.3215 16.2558 12.3515C16.423 12.3944 16.5087 12.5015 16.513 12.6644C16.543 13.2558 16.3501 13.6929 15.9344 13.9758C15.9173 13.9887 15.913 14.0058 15.9216 14.0272C16.0073 14.2758 15.9987 14.5244 15.9001 14.7687C15.8915 14.7944 15.9001 14.8115 15.9173 14.8287C16.0973 14.9658 16.2001 15.1072 16.2173 15.2572C16.273 15.6344 16.0501 15.8144 15.553 15.7929L15.4501 15.7844C15.3387 15.7702 15.2258 15.7745 15.1158 15.7972C14.9144 15.8572 14.6958 15.8787 14.4601 15.8572C14.2344 15.8526 14.0151 15.781 13.8301 15.6515C13.8087 15.6344 13.7915 15.6387 13.7744 15.6515C13.6587 15.7672 13.4915 15.8358 13.273 15.8529C12.973 15.8787 12.7158 15.8615 12.5187 15.8101C12.2886 15.7755 12.0536 15.7961 11.833 15.8701C11.8116 15.8701 11.7901 15.8701 11.7687 15.8615C11.6908 15.8304 11.6082 15.813 11.5244 15.8101C11.4044 15.8058 11.2844 15.7415 11.1687 15.6172C11.144 15.5924 11.1146 15.5728 11.0822 15.5595C11.0498 15.5463 11.0151 15.5397 10.9801 15.5401C10.7273 15.5272 10.4658 15.5272 10.183 15.5315C10.1616 15.5315 10.1401 15.5401 10.1316 15.5572C9.94298 15.7844 9.70298 15.8572 9.40298 15.7715C9.36441 15.7587 9.31298 15.7287 9.24441 15.6858C9.14155 15.6258 9.06012 15.6001 9.00441 15.6001C8.73869 15.6172 8.57584 15.5529 8.52869 15.4115C8.45584 15.2187 8.54584 15.0387 8.78584 14.8801C8.81155 14.8629 8.81584 14.8458 8.79869 14.8244C8.71298 14.7129 8.61869 14.6529 8.50726 14.6529C8.43012 14.6529 8.36584 14.6358 8.31012 14.6101C7.85155 14.3829 7.59869 13.9715 7.55155 13.3844C7.53207 13.2047 7.53495 13.0233 7.56012 12.8444C7.65869 12.2787 7.86012 11.8629 8.16012 11.6101C8.31012 11.4815 8.41726 11.4387 8.49441 11.4944C8.57584 11.5501 8.60155 11.6358 8.58012 11.7515C8.49869 12.1372 8.45155 12.4801 8.43441 12.7972C8.42584 12.9344 8.44726 13.0629 8.50298 13.1829C8.51584 13.2001 8.53298 13.2044 8.55012 13.1915L8.77298 13.0629C8.78466 13.0563 8.79462 13.0471 8.80206 13.0359C8.80951 13.0247 8.81422 13.012 8.81584 12.9987C8.85869 12.7201 8.91869 12.4458 9.00441 12.1758C9.03869 12.0687 9.05584 11.9572 9.04727 11.8458C9.04776 11.8215 9.04113 11.7976 9.02818 11.777C9.01523 11.7565 8.99654 11.7401 8.97441 11.7301C8.79441 11.6444 8.66584 11.5158 8.58441 11.3358L8.54155 11.2501C8.31012 10.7529 8.22869 10.3544 8.30584 10.0544L8.48155 9.34723C8.52758 9.17956 8.5878 9.01611 8.66155 8.85866C8.68747 8.79329 8.69344 8.7217 8.67869 8.65294C8.59298 8.2758 8.60155 7.98437 8.70441 7.77866C8.74726 7.69294 8.82012 7.63723 8.91441 7.62009C9.00869 7.60294 9.09012 7.63294 9.15441 7.7058C9.21441 7.77009 9.28298 7.82151 9.35584 7.86009C9.46298 7.91151 9.55298 7.9758 9.62584 8.06151C9.64298 8.07866 9.66441 8.08723 9.68584 8.08294L10.243 8.04009C10.288 8.03735 10.3314 8.02285 10.369 7.99803C10.4066 7.97321 10.4371 7.93894 10.4573 7.89866C10.5601 7.71437 10.6716 7.54723 10.783 7.39723C10.7957 7.37912 10.8134 7.36505 10.8339 7.3567C10.8544 7.34834 10.8769 7.34605 10.8987 7.35009C10.9149 7.35152 10.9303 7.35752 10.9432 7.36738C10.9561 7.37724 10.9659 7.39057 10.9716 7.4058C11.0487 7.59009 11.0958 7.79151 11.113 7.99294C11.113 8.02723 11.1301 8.05294 11.1601 8.0658C11.503 8.22009 11.7173 8.43009 11.7858 8.6958L11.9144 9.13294V9.12866Z" fill="black"/>
<path d="M11.73 8.85864C11.6015 8.82435 11.4729 8.73007 11.3486 8.5715C11.2715 8.47292 11.1643 8.46007 11.0315 8.53721C11.0207 8.54173 11.0112 8.54876 11.0038 8.55771C10.9963 8.56666 10.9911 8.57727 10.9886 8.58864C10.9759 8.65609 10.9818 8.72574 11.0058 8.79007C11.01 8.80292 11.0186 8.8115 11.0358 8.80721C11.0443 8.80721 11.0486 8.79864 11.0529 8.79435C11.0529 8.82435 11.0658 8.83721 11.0829 8.82435C11.0486 8.85435 11.04 8.88864 11.0529 8.93578C11.07 9.01292 11.1086 9.06864 11.1643 9.1115C11.1815 9.12435 11.1986 9.12864 11.2158 9.12864C11.3015 9.13292 11.3657 9.15435 11.4172 9.18864C11.5029 9.24435 11.49 9.26578 11.3958 9.24864C11.2758 9.22721 11.16 9.24864 11.0529 9.30435C10.9843 9.34721 10.9243 9.39007 10.8686 9.44578C10.71 9.59578 10.4829 9.64721 10.2 9.60007C10.1615 9.5915 10.1272 9.55721 10.0972 9.49292C10.08 9.45435 10.0886 9.43721 10.1272 9.43721C10.1957 9.43721 10.26 9.43721 10.3286 9.45435C10.5 9.48864 10.5986 9.40292 10.6072 9.2015C10.6158 9.06435 10.59 8.91864 10.5343 8.76435C10.4915 8.63578 10.3972 8.59292 10.26 8.62721C10.0629 8.67435 9.91289 8.8115 9.79718 9.02578C9.74146 9.13292 9.58289 9.21007 9.32575 9.2615L9.20575 9.2915C9.04718 9.33007 8.97432 9.40721 8.99146 9.52721L9.03432 9.93864C9.05575 10.1015 9.14575 10.2858 9.30861 10.4958C9.48861 10.7186 9.56575 10.9244 9.54432 11.1086C9.53575 11.1515 9.51861 11.1601 9.48004 11.1386L9.45861 11.1301C9.13289 10.9586 8.87146 10.9029 8.68289 10.9586C8.66146 10.9629 8.65718 10.9758 8.67004 10.9886C8.76861 11.1086 8.88004 11.1986 9.00004 11.2544C9.27004 11.3915 9.54861 11.5115 9.83575 11.6186C9.85289 11.6272 9.85718 11.6401 9.84861 11.6572C9.67718 11.9101 9.58289 12.1886 9.55718 12.4972C9.52718 12.8229 9.57861 13.1144 9.71575 13.3758C9.86575 13.6629 10.0029 13.9544 10.1186 14.2501C10.1031 14.2664 10.0919 14.2863 10.0859 14.3079C10.08 14.3296 10.0794 14.3524 10.0843 14.3744C10.1058 14.5158 10.11 14.6444 10.0972 14.7601C9.95146 14.9229 9.80575 14.9958 9.66004 14.9872L9.33861 14.9658C9.23412 14.4379 9.08794 13.9191 8.90146 13.4144L8.87575 13.2001C8.91809 12.78 9.00722 12.366 9.14146 11.9658C9.15004 11.9358 9.15432 11.8886 9.15432 11.8244C9.15558 11.8063 9.15108 11.7883 9.14146 11.7729C9.10291 11.7183 9.05136 11.6741 8.99146 11.6444C8.75146 11.5244 8.55861 11.2072 8.40432 10.6972C8.34691 10.4757 8.35285 10.2426 8.42146 10.0244C8.48575 9.7715 8.55004 9.51435 8.60575 9.25292C8.64004 9.09007 8.71289 8.93578 8.82861 8.7815C8.83239 8.77672 8.83511 8.77119 8.83659 8.76528C8.83807 8.75937 8.83827 8.75321 8.83718 8.74721C8.83335 8.73176 8.82425 8.71812 8.81146 8.70864L8.82861 8.66578C8.83416 8.64909 8.83416 8.63105 8.82861 8.61435C8.74718 8.35292 8.78575 8.11292 8.93575 7.89864C8.97004 7.84721 9.01289 7.83864 9.06432 7.86864C9.29575 8.00578 9.48432 8.23721 9.62146 8.56292C9.63861 8.6015 9.66432 8.61007 9.70289 8.59292C9.78861 8.55007 9.86146 8.48578 9.92146 8.40864C9.98146 8.33578 10.05 8.31864 10.1358 8.35292C10.2215 8.38721 10.3072 8.40864 10.3972 8.41721C10.4129 8.41827 10.428 8.42363 10.4408 8.4327C10.4537 8.44177 10.4638 8.45421 10.47 8.46864C10.53 8.6015 10.5986 8.68292 10.6758 8.71721C10.7272 8.74292 10.7615 8.72578 10.7786 8.67007C10.7915 8.62721 10.7872 8.58435 10.7529 8.55007L10.6672 8.46007C10.6029 8.38721 10.6115 8.32292 10.6929 8.26721C10.7786 8.20721 10.8215 8.08721 10.8172 7.9115V7.81292L10.8043 7.53007C10.8168 7.49694 10.8393 7.46849 10.8686 7.44864C10.8858 7.43578 10.8986 7.44007 10.9072 7.4615C10.9929 7.64578 11.0358 7.83435 11.0358 8.02721C11.0358 8.07864 11.0615 8.11292 11.1129 8.13007C11.31 8.20292 11.4729 8.31435 11.6058 8.47292C11.6486 8.52864 11.6915 8.65292 11.7343 8.85864H11.73Z" fill="#CD9D47"/>
<path d="M10.7999 7.52979C10.8157 7.65628 10.8214 7.78382 10.8171 7.91121C10.8213 8.08693 10.7785 8.20693 10.6928 8.26693C10.6071 8.32264 10.6028 8.38693 10.6713 8.45979L10.7571 8.54979C10.7871 8.58407 10.7913 8.62264 10.7785 8.66979C10.7613 8.7255 10.7271 8.74264 10.6756 8.71693C10.5985 8.68693 10.5299 8.60121 10.4699 8.46836C10.4637 8.45392 10.4536 8.44149 10.4407 8.43242C10.4279 8.42335 10.4128 8.41799 10.3971 8.41693C10.3072 8.40879 10.219 8.38712 10.1356 8.35264C10.0499 8.31836 9.98135 8.3355 9.92135 8.40836C9.86135 8.4855 9.78849 8.5455 9.70278 8.59264C9.65992 8.60978 9.63849 8.60121 9.61706 8.56264C9.51174 8.27681 9.31615 8.03308 9.05992 7.86836C9.01278 7.83836 8.96992 7.84693 8.93135 7.89836C8.78135 8.11264 8.74706 8.35264 8.82849 8.61407V8.6655L8.81135 8.70836C8.73851 8.55287 8.70188 8.3829 8.70421 8.21121C8.70421 7.99693 8.75992 7.83836 8.86706 7.73979C8.90135 7.70979 8.93992 7.70121 8.98706 7.72264C9.16706 7.79979 9.32992 7.9155 9.46706 8.0655C9.54421 8.15121 9.63421 8.18121 9.73706 8.16836C9.95135 8.13836 10.1656 8.11693 10.3671 8.09979C10.4099 8.09979 10.4442 8.07407 10.4656 8.03121C10.5385 7.8555 10.6499 7.68836 10.8042 7.52979H10.7999Z" fill="#795A39"/>
<path d="M17.2071 7.86413L17.5071 8.27556C17.3443 8.34842 17.3014 8.45985 17.3743 8.60985C17.4857 8.84985 17.5971 9.08556 17.7 9.32985L17.7171 9.32128C17.7214 9.32128 17.7257 9.3127 17.7214 9.30842L17.5157 8.85413H18C18.03 8.85413 18.0471 8.86699 18.06 8.89699C18.1028 8.99556 18.1457 9.09842 18.1971 9.19699C18.21 9.22699 18.2186 9.22699 18.2228 9.19699L18.2314 9.17556L18.2657 9.29556C18.1586 9.38985 18.0386 9.44985 17.91 9.47985C17.891 9.48335 17.8713 9.48033 17.8543 9.47128C17.8461 9.46697 17.8388 9.46115 17.8328 9.45413C17.79 9.39413 17.7686 9.40271 17.7814 9.47556C17.7943 9.53128 17.8328 9.55271 17.9057 9.53985C17.9828 9.59985 18.0943 9.56985 18.24 9.45842C18.3428 9.63842 18.3986 9.82699 18.4028 10.0198C18.2314 10.007 18.1157 10.067 18.0428 10.2041C18.0332 10.2195 18.0287 10.2375 18.03 10.2556C18.0471 10.4056 18.0728 10.5384 18.1114 10.6498C18.12 10.6798 18.1243 10.7141 18.12 10.7441C18.1157 10.7741 18.1328 10.8384 18.18 10.937L18.2786 11.207C18.2571 11.2584 18.27 11.3141 18.3171 11.3698C18.3043 11.4127 18.3386 11.4298 18.42 11.4341C18.4928 11.4341 18.5828 11.417 18.6814 11.3741C18.7157 11.4598 18.7414 11.5498 18.7586 11.6398C18.78 11.7684 18.7671 11.8884 18.7157 12.0041C18.4971 11.9184 18.36 11.9441 18.3043 12.077C18.2914 12.1113 18.2957 12.1156 18.3214 12.0856L18.3557 12.0513C18.3688 12.0377 18.385 12.0274 18.4028 12.0213C18.5786 11.9656 18.7286 12.0127 18.8528 12.1713L18.7457 13.0584C18.7328 13.1613 18.7286 13.1613 18.7286 13.0584V12.8484C18.7628 12.7284 18.7714 12.6127 18.7586 12.5056C18.7573 12.4971 18.7544 12.4889 18.75 12.4815C18.7456 12.4742 18.7398 12.4678 18.7328 12.4627C18.7117 12.4467 18.6902 12.4309 18.6686 12.4156C18.4886 12.287 18.3814 12.1927 18.3514 12.1284C18.3343 12.0941 18.3214 12.0941 18.3171 12.137L18.2786 12.4798L18.2143 13.067C18.15 13.1484 18.1543 13.2084 18.2357 13.2513C18.3128 13.2898 18.42 13.3113 18.5571 13.3198L18.5314 13.5684C18.5186 13.7141 18.4628 13.8256 18.36 13.9113C18.1071 13.7527 17.94 13.787 17.8628 14.0141L17.5843 14.7856C17.5714 14.8284 17.5843 14.837 17.6186 14.8156C17.6271 14.8156 17.6314 14.7898 17.64 14.747C17.6528 14.7641 17.6657 14.7641 17.6828 14.7513C17.6886 14.7458 17.6931 14.7391 17.6961 14.7317C17.699 14.7243 17.7004 14.7164 17.7 14.7084C17.7 14.687 17.7043 14.6741 17.7257 14.6656C17.7471 14.657 17.7686 14.6613 17.7814 14.6784L18.03 14.927C18.0386 14.9356 18.0428 14.9484 18.0386 14.957C18.0386 14.9698 18.0386 14.9827 18.0471 14.9956C18.0643 15.017 18.0771 15.0127 18.09 14.987L18.1371 14.8627L18.1543 14.8841C18.1414 14.9741 18.1114 15.0641 18.06 15.1456C18.0495 15.1638 18.0327 15.1775 18.0128 15.1841L17.8928 15.2184C17.8842 15.2204 17.8764 15.2253 17.871 15.2323C17.8655 15.2394 17.8626 15.2481 17.8628 15.257C17.8458 15.3875 17.7956 15.5114 17.7171 15.617C17.6928 15.6517 17.6616 15.681 17.6255 15.7031C17.5894 15.7253 17.5491 15.7397 17.5071 15.7456C17.4558 15.6573 17.3732 15.5915 17.2757 15.5613C17.232 15.5474 17.1851 15.5474 17.1414 15.5612C17.0976 15.575 17.0593 15.602 17.0314 15.6384C16.8723 15.8259 16.7179 16.0174 16.5686 16.2127C16.4743 16.3198 16.4143 16.4056 16.3843 16.4698C16.3762 16.4841 16.3732 16.5008 16.3757 16.517C16.41 16.6627 16.4957 16.7484 16.6414 16.7741C16.6328 16.757 16.6457 16.7613 16.6843 16.7827C16.5471 16.9541 16.3971 17.0913 16.2257 17.1984C16.1914 17.1041 16.14 17.027 16.0671 16.9713C15.9814 16.907 15.9043 16.9027 15.8271 16.9584L15.3128 17.3484L15.0514 17.5713C14.9528 17.657 14.9271 17.7427 14.9743 17.8241C15.0171 17.9013 15.0728 17.9656 15.1371 18.017C15.15 18.0298 15.1543 18.0427 15.1371 18.0556C15.0128 18.1627 14.8757 18.2484 14.7214 18.3084C14.6657 18.3298 14.6271 18.3127 14.6014 18.257C14.5716 18.1884 14.55 18.1164 14.5371 18.0427C14.5243 17.987 14.4814 17.9441 14.4086 17.9184C14.3743 17.9098 14.3743 17.9141 14.4 17.9356L14.4686 17.9784C14.4814 17.9956 14.4943 18.0084 14.4986 18.0298L14.5457 18.2313C14.5671 18.3041 14.5414 18.3556 14.4728 18.3813C14.37 18.4241 14.28 18.4498 14.1943 18.4541L14.2971 17.9656C14.3014 17.9484 14.2971 17.9398 14.28 17.9441C14.1728 17.957 14.0657 17.987 13.9714 18.0341L13.3843 18.2184C13.3578 18.2177 13.3314 18.2226 13.307 18.233C13.2826 18.2433 13.2607 18.2588 13.2428 18.2784C13.2365 18.2852 13.2323 18.2937 13.2308 18.3028C13.2293 18.312 13.2305 18.3214 13.2343 18.3298L13.32 18.587C13.2086 18.617 13.1057 18.6298 13.0071 18.6384C12.9643 18.6384 12.9643 18.6298 13.0028 18.617L13.0543 18.5956C13.08 18.587 13.0886 18.5698 13.0843 18.5441L13.0414 18.3727C13.0371 18.3427 13.0157 18.3298 12.9857 18.3384L12.9128 18.3641C12.8871 18.3727 12.8786 18.3856 12.8786 18.407L12.9043 18.6041C12.9043 18.6256 12.9 18.6427 12.8828 18.6556C12.8657 18.6727 12.84 18.677 12.8143 18.6727C12.7959 18.6677 12.7794 18.6572 12.7671 18.6427L12.7457 18.617C12.7243 18.5956 12.7114 18.5998 12.7028 18.6298C12.6728 18.737 12.5914 18.7927 12.4543 18.8013C12.1157 18.8227 11.8028 18.827 11.5114 18.8141C11.5018 18.8154 11.4921 18.8131 11.4841 18.8075C11.4762 18.802 11.4706 18.7936 11.4686 18.7841L11.4643 18.7584L11.4814 18.7541V18.7327C11.4428 18.6727 11.43 18.5741 11.4471 18.4456L11.4557 18.3598C11.4557 18.3298 11.4728 18.317 11.4986 18.3084L11.5586 18.2998C11.5886 18.2913 11.5886 18.2827 11.5628 18.2656C11.5462 18.2549 11.5269 18.2492 11.5071 18.2492C11.4874 18.2492 11.468 18.2549 11.4514 18.2656C11.4369 18.2729 11.4246 18.2839 11.4156 18.2974C11.4066 18.3109 11.4012 18.3265 11.4 18.3427L11.3786 18.6341L11.1428 18.6513C11.1171 18.6513 11.1128 18.6427 11.13 18.6256C11.1771 18.5656 11.1986 18.497 11.1857 18.4113C11.1839 18.4052 11.1805 18.3997 11.1761 18.3952C11.1716 18.3907 11.1661 18.3874 11.16 18.3856C11.1301 18.3726 11.0966 18.3711 11.0657 18.3813C11.0568 18.3831 11.0486 18.3872 11.0418 18.3932C11.035 18.3993 11.03 18.407 11.0271 18.4156L10.98 18.587C10.9628 18.647 10.9371 18.6556 10.8943 18.6084L10.8171 18.5227C10.9028 18.4027 10.9028 18.287 10.8128 18.1798C10.7828 18.1456 10.7486 18.137 10.71 18.1456L10.3671 18.0556C10.2312 17.9983 10.0887 17.958 9.94284 17.9356C9.90427 17.927 9.89998 17.9356 9.93427 17.957L10.0028 18.0041C10.02 18.017 10.02 18.0341 10.0028 18.047L9.7457 18.3041C9.74422 18.3076 9.74186 18.3106 9.73885 18.3129C9.73584 18.3151 9.73229 18.3165 9.72856 18.317C9.7157 18.317 9.70713 18.317 9.69855 18.3298C9.68998 18.3513 9.69856 18.3684 9.71998 18.3727L9.9857 18.4498L10.2943 18.5313C10.3023 18.5328 10.3106 18.532 10.3182 18.529C10.3258 18.5259 10.3324 18.5208 10.3371 18.5141C10.4228 18.4113 10.5214 18.317 10.6286 18.2356C10.6435 18.2222 10.661 18.212 10.68 18.2056L10.74 18.1884C10.7957 18.2313 10.8214 18.2827 10.8171 18.347C10.8128 18.4156 10.7828 18.5013 10.7314 18.6041C10.7143 18.6556 10.6671 18.6813 10.5943 18.677C10.3404 18.6253 10.0921 18.5492 9.85284 18.4498C9.80533 18.4367 9.75639 18.4296 9.70713 18.4284L9.63427 18.4198C9.60855 18.4198 9.59998 18.4027 9.60856 18.377C9.62141 18.3341 9.6257 18.2827 9.61713 18.2356C9.61713 18.1413 9.62998 18.0513 9.65998 17.9613C9.66265 17.9518 9.66822 17.9434 9.67591 17.9373C9.68359 17.9311 9.69301 17.9275 9.70284 17.927L9.77998 17.9098C9.8057 17.9013 9.8057 17.897 9.77998 17.8841C9.71141 17.8584 9.65141 17.8713 9.60856 17.9227C9.53998 17.9656 9.49713 18.0384 9.47998 18.1498C9.27856 18.1756 9.10284 18.0984 8.95713 17.9098C9.04284 17.837 9.08998 17.7598 9.11141 17.6784C9.12856 17.5927 9.10713 17.5284 9.04284 17.477C8.7857 17.267 8.51998 17.0741 8.24141 16.8898C8.21103 16.8861 8.1818 16.8759 8.1557 16.8598C8.11284 16.8341 8.08284 16.8427 8.05713 16.8856L7.87284 17.1598C7.70141 17.0398 7.55998 16.8941 7.44427 16.7313C7.68856 16.577 7.74856 16.4313 7.61998 16.2813C7.43344 16.0562 7.24772 15.8305 7.06284 15.6041C7.03713 15.5441 7.01998 15.5398 6.99856 15.5784C6.9557 15.5313 6.90427 15.5184 6.84427 15.5441C6.82713 15.5184 6.79713 15.5227 6.7457 15.5527C6.64284 15.6213 6.58713 15.6813 6.59141 15.7327C6.57237 15.7651 6.56341 15.8024 6.5657 15.8398V15.857C6.5354 15.8181 6.52156 15.7688 6.52713 15.7198C6.52713 15.7027 6.52713 15.6898 6.50998 15.677C6.3557 15.5441 6.2657 15.377 6.2357 15.1756C6.42427 15.1584 6.5357 15.047 6.55713 14.8498C6.55713 14.837 6.55713 14.8327 6.54427 14.8284H6.52713C6.51427 14.8284 6.50998 14.8284 6.50998 14.8456C6.50998 15.0256 6.41141 15.1198 6.20998 15.1241C6.09427 15.1284 6.01284 15.0213 5.95284 14.807V14.7898L6.48856 14.8327L6.32141 14.3656L6.14998 13.9798C6.17141 13.937 6.16713 13.907 6.13284 13.877C6.10284 13.8513 6.05998 13.8427 6.00427 13.847C5.89713 13.8213 5.78998 13.8556 5.6957 13.9584C5.6241 13.7735 5.58355 13.578 5.5757 13.3798C5.74713 13.4013 5.88427 13.3413 5.98284 13.2084V13.1998L5.96998 13.1913C5.96141 13.1827 5.95284 13.1827 5.94427 13.1913C5.8457 13.3284 5.70856 13.3627 5.53284 13.3027C5.51381 13.2941 5.49857 13.2789 5.48998 13.2598C5.43856 13.1741 5.4257 13.0756 5.43855 12.977C5.60141 12.9898 5.75141 13.0327 5.89713 13.1013C5.91427 13.1098 5.92284 13.1013 5.92284 13.0841C5.93141 12.9856 5.92284 12.887 5.89284 12.7884L5.80284 12.2484C5.83284 12.2141 5.8157 12.1541 5.75998 12.0727C5.70855 11.9784 5.58855 11.9698 5.40427 12.0427C5.35223 11.958 5.32362 11.861 5.32136 11.7616C5.3191 11.6622 5.34327 11.564 5.39141 11.477C5.3957 11.4598 5.39141 11.447 5.37856 11.4341C5.34851 11.4125 5.32315 11.3851 5.304 11.3534C5.28485 11.3217 5.27231 11.2865 5.26713 11.2498C5.24998 11.1041 5.27998 11.0056 5.35713 10.9498C5.47713 11.0613 5.59713 11.1556 5.70855 11.2456C5.75141 11.2756 5.75998 11.3141 5.73427 11.3613V11.3784L5.75141 11.3741C5.81141 11.2498 5.8457 11.1213 5.85427 10.9884L5.9357 10.5256C5.93998 10.4913 5.93141 10.487 5.9057 10.5084C5.89779 10.5135 5.89128 10.5204 5.88679 10.5287C5.88229 10.5369 5.87995 10.5462 5.87998 10.5556C5.87998 10.6241 5.85856 10.6413 5.80713 10.5941C5.71098 10.5132 5.61526 10.4318 5.51998 10.3498C5.50284 10.337 5.4857 10.337 5.47713 10.3541L5.46427 10.3713C5.4557 10.397 5.44284 10.397 5.43855 10.3713C5.41284 10.277 5.43427 10.2341 5.48998 10.247C5.54818 10.2283 5.61028 10.2254 5.66998 10.2384L5.88427 10.2813C5.90998 10.2898 5.92284 10.307 5.92713 10.3327V10.4227H5.94427C5.96141 10.4227 5.96998 10.4141 5.97427 10.4013C5.9957 10.3156 5.97427 10.2598 5.90998 10.2298C5.80638 10.1829 5.69369 10.1595 5.57998 10.1613C5.57141 10.127 5.58856 10.1056 5.63141 10.0927C5.66141 10.0841 5.67427 10.0627 5.6657 10.037C5.65933 10.0194 5.65717 10.0005 5.6594 9.98189C5.66164 9.96329 5.6682 9.94546 5.67856 9.92985C5.69141 9.91271 5.70427 9.90413 5.7257 9.9127L5.9057 9.96842C5.9357 9.98128 5.95284 9.96842 5.95713 9.93842L5.9657 9.87842C5.9657 9.8527 5.95713 9.83556 5.93141 9.82699L5.76856 9.75413C5.74713 9.74128 5.74284 9.72842 5.75141 9.71128C5.76427 9.67699 5.79427 9.64271 5.83713 9.60413C5.97427 9.70699 6.09427 9.71985 6.19284 9.64271C6.26141 9.58699 6.25284 9.57413 6.16713 9.59556C5.8157 9.68128 5.6957 9.53985 5.80713 9.16699L6.17141 8.37842C6.17479 8.36847 6.18042 8.35943 6.18785 8.352C6.19528 8.34457 6.20432 8.33894 6.21427 8.33556C6.29998 8.31842 6.38141 8.32699 6.45427 8.36128C6.4757 8.36985 6.48856 8.36556 6.49713 8.34413L6.66856 8.00985C6.75427 8.00556 6.83998 7.96699 6.93856 7.90699L7.03284 7.83842C7.18284 7.72271 7.29855 7.67556 7.3757 7.68842C7.40141 7.69271 7.41856 7.70556 7.43141 7.73128C7.48713 7.84271 7.46141 7.94985 7.35856 8.05271C7.27713 8.12985 7.17427 8.18985 7.04141 8.22842C7.02375 8.23484 7.0087 8.24689 6.99856 8.26271C6.96427 8.31842 6.96427 8.36556 7.00284 8.41699C7.0157 8.43413 7.03284 8.44271 7.05427 8.44271C7.18284 8.44271 7.31998 8.40413 7.4657 8.32271L7.13141 8.82842C6.33292 10.0154 6.02001 11.4634 6.25713 12.8741C6.43402 14.117 7.01896 15.2657 7.91998 16.1398C8.81122 17.0273 9.96899 17.5979 11.2157 17.7641C12.3428 17.9227 13.4314 17.7556 14.4728 17.2584C15.4929 16.7805 16.3509 16.0148 16.9414 15.0556C17.5644 14.0619 17.8681 12.9013 17.8114 11.7298C17.7695 10.544 17.3523 9.40207 16.62 8.46842C16.5943 8.43842 16.5986 8.41271 16.62 8.39128C16.7186 8.41699 16.7786 8.39556 16.8 8.33128C16.8104 8.30612 16.8132 8.27842 16.8078 8.25171C16.8025 8.22499 16.7893 8.20047 16.77 8.18128L16.4357 7.80842C16.4271 7.79556 16.4271 7.78271 16.4357 7.77413L16.6843 7.55985C16.6928 7.55128 16.7057 7.55556 16.7143 7.56413L16.9586 7.86413C17.0357 7.95842 17.1214 7.95842 17.2071 7.86413Z" fill="#985E04"/>
<path d="M9.08574 8.34438H9.12003C9.14574 8.34438 9.15431 8.35295 9.14574 8.37438C9.13891 8.39311 9.12508 8.40847 9.10717 8.41723C9.08146 8.43438 9.08574 8.44723 9.11146 8.46009C9.15431 8.46866 9.19717 8.49438 9.22717 8.52866C9.24431 8.54152 9.24003 8.55438 9.2186 8.56295C9.10717 8.59295 9.01717 8.57581 8.9486 8.50295C8.88003 8.43866 8.8586 8.34866 8.87574 8.23723C8.87574 8.21581 8.89288 8.20723 8.91431 8.21152L9.04288 8.23295C9.07288 8.23723 9.07717 8.25438 9.06003 8.27581C9.05365 8.28477 9.04927 8.295 9.04717 8.30581C9.0386 8.33581 9.04717 8.34866 9.08146 8.34866L9.08574 8.34438ZM18.24 9.45866C18.0943 9.57009 17.9829 9.60009 17.9057 9.54009C18.15 9.48866 18.27 9.40724 18.2657 9.29581L18.2315 9.17581L17.9572 8.57152C17.9229 8.48581 17.88 8.40009 17.8286 8.33152C17.7857 8.26295 17.7215 8.24152 17.64 8.26295C17.5629 8.28438 17.4943 8.31866 17.4343 8.36152C17.3615 8.41724 17.3486 8.48152 17.3915 8.55866L17.52 8.85438L17.7257 9.30866L17.7215 9.32152L17.7043 9.33009C17.6008 9.08782 17.4922 8.84777 17.3786 8.61009C17.3057 8.46009 17.3486 8.34866 17.5115 8.27581C17.5649 8.24321 17.6249 8.22273 17.6872 8.21581C17.7643 8.20724 17.8157 8.23723 17.85 8.30581C18.0857 8.76438 18.2357 9.08581 18.3086 9.27438C18.3386 9.34295 18.3172 9.40295 18.2443 9.45866H18.24Z" fill="#4F2E05"/>
<path d="M17.957 8.57142L17.3827 8.55857C17.3399 8.48142 17.357 8.41714 17.4256 8.36142C17.4899 8.31857 17.5585 8.28428 17.6356 8.26285C17.7213 8.24142 17.7813 8.26285 17.8242 8.33142C17.8756 8.40428 17.9185 8.48142 17.9527 8.57142H17.957Z" fill="#985E04"/>
<path d="M6.59147 8.69573C6.62575 8.56716 6.4929 8.47288 6.18433 8.41716C6.32147 8.36573 6.46718 8.4043 6.63433 8.52859C6.64718 8.54145 6.65575 8.5543 6.66004 8.57145C6.66433 8.62716 6.6429 8.66573 6.59147 8.69573Z" fill="#F8F774"/>
<path d="M6.18433 8.41699C6.49291 8.47271 6.62576 8.56699 6.59148 8.69556L6.27005 9.50985C6.27005 9.51842 6.26148 9.51842 6.25719 9.50985L5.91433 9.10699C5.91208 9.10308 5.91089 9.09865 5.91089 9.09413C5.91089 9.08962 5.91208 9.08519 5.91433 9.08128L6.18433 8.41699Z" fill="#B16D04"/>
<path d="M11.7301 8.85867L11.8415 9.11581C11.8758 9.19724 11.8886 9.28724 11.8844 9.38152C11.8801 9.76724 11.9272 10.1444 12.0301 10.5087C11.9058 10.6887 11.8286 10.8301 11.8029 10.9372C11.7772 11.0358 11.8158 11.1044 11.9229 11.1344L11.8329 11.3958L11.2629 11.9358C11.2501 11.9487 11.2501 11.9572 11.2629 11.9701C11.5544 12.2015 11.7044 12.4287 11.7172 12.6472C11.7258 12.7758 11.7129 12.9087 11.6744 13.0587C11.6315 13.2301 11.5286 13.4701 11.3658 13.783L11.2458 14.0101C11.2158 14.0744 11.1944 14.1387 11.1729 14.203C11.1686 14.2158 11.1729 14.233 11.1772 14.2458L11.2201 14.3315C11.2329 14.3487 11.2372 14.3658 11.2329 14.3872L11.1901 14.7087C11.1901 14.7215 11.1858 14.7258 11.1729 14.7172L11.1601 14.713L11.1858 14.3358C11.1868 14.3251 11.1837 14.3144 11.1772 14.3058C11.1515 14.263 11.1129 14.2715 11.0658 14.3358C10.9764 14.6841 10.9735 15.049 11.0572 15.3987C11.0615 15.4158 11.0572 15.4201 11.0401 15.4201L10.2258 15.403C10.2044 15.403 10.1958 15.3901 10.2001 15.3687C10.2686 15.0687 10.2772 14.7558 10.2172 14.4215C10.2044 14.3272 10.1744 14.2715 10.1186 14.2501C10.0029 13.9544 9.86579 13.663 9.71579 13.3758C9.57847 13.1047 9.52336 12.7993 9.55722 12.4972C9.58293 12.1887 9.6815 11.9101 9.84865 11.6572C9.85722 11.6401 9.85293 11.6272 9.83579 11.6187C9.54865 11.5115 9.27007 11.3915 9.00007 11.2544C8.87248 11.1902 8.75999 11.0996 8.67007 10.9887C8.65722 10.9758 8.6615 10.963 8.68293 10.9587C8.8715 10.903 9.13293 10.9587 9.45865 11.1301L9.48007 11.1387C9.51865 11.1601 9.53579 11.1472 9.54436 11.1087C9.56579 10.9244 9.48865 10.723 9.30865 10.4958C9.14579 10.2858 9.0515 10.1015 9.03436 9.93867L8.9915 9.52724C8.97436 9.40724 9.04722 9.3301 9.20579 9.29153L9.32579 9.26153C9.58293 9.2101 9.7415 9.13295 9.79722 9.02581C9.91293 8.81152 10.0629 8.67438 10.2601 8.62724C10.3972 8.58867 10.4915 8.63581 10.5344 8.76438C10.5901 8.91867 10.6158 9.06438 10.6072 9.20152C10.5986 9.40295 10.5044 9.48867 10.3286 9.45438C10.2601 9.43724 10.1958 9.43295 10.1272 9.43724C10.0886 9.43724 10.0801 9.45438 10.0972 9.49295C10.1272 9.55724 10.1615 9.59152 10.2001 9.6001C10.4872 9.64295 10.7101 9.59581 10.8686 9.44581C10.9244 9.3901 10.9844 9.34724 11.0572 9.30438C11.1601 9.24438 11.2715 9.22724 11.3958 9.24867C11.4901 9.26581 11.4986 9.24867 11.4172 9.18867C11.3571 9.14999 11.2873 9.12918 11.2158 9.12867C11.1973 9.12811 11.1795 9.12215 11.1644 9.11152C11.1077 9.06971 11.0682 9.00882 11.0529 8.9401C11.0701 8.91867 11.0744 8.91867 11.0658 8.9401C11.1086 8.99581 11.1558 9.04295 11.2201 9.07724C11.2372 9.08581 11.2544 9.0901 11.2715 9.08153C11.3572 9.04724 11.4044 8.99581 11.4172 8.93152C11.4228 8.90092 11.421 8.86943 11.4121 8.83964C11.4031 8.80984 11.3873 8.78259 11.3658 8.7601C11.348 8.73694 11.3254 8.71801 11.2995 8.70467C11.2735 8.69133 11.2449 8.68391 11.2158 8.68295C11.1472 8.68295 11.0958 8.72153 11.0529 8.79438C11.0529 8.80295 11.0444 8.80724 11.0358 8.80724C11.0186 8.80724 11.0101 8.80724 11.0058 8.7901C10.9833 8.72537 10.9788 8.65573 10.9929 8.58867C10.9929 8.56295 11.0101 8.54581 11.0315 8.53724C11.1644 8.4601 11.2715 8.47295 11.3486 8.57152C11.4729 8.7301 11.6015 8.82438 11.7344 8.85867H11.7301Z" fill="#F8F774"/>
<path d="M17.9572 8.57145L18.2315 9.17145C18.2281 9.17984 18.2252 9.18842 18.2229 9.19717C18.2229 9.22717 18.2101 9.22717 18.1972 9.19717L18.0601 8.89717C18.0557 8.88473 18.0476 8.87395 18.0368 8.86628C18.0261 8.85861 18.0133 8.85443 18.0001 8.85431H17.5158L17.3872 8.55859L17.9529 8.57145H17.9572Z" fill="#C48306"/>
<path d="M11.0658 8.93589C11.0744 8.91874 11.0658 8.91874 11.053 8.93589C11.0358 8.89303 11.0487 8.85017 11.083 8.82446C11.1558 8.73874 11.233 8.72589 11.3101 8.79446C11.3487 8.82446 11.3658 8.87589 11.3615 8.94874C11.3615 8.95732 11.3615 8.9616 11.353 8.9616C11.3452 8.96185 11.3375 8.95943 11.3313 8.95476C11.3251 8.95009 11.3206 8.94343 11.3187 8.93589L11.293 8.88017C11.2801 8.85017 11.263 8.84589 11.2415 8.8716C11.2366 8.87934 11.2337 8.88817 11.233 8.89732C11.2244 8.92732 11.2158 8.9316 11.1944 8.90589C11.1871 8.89456 11.18 8.88313 11.173 8.8716C11.1558 8.85017 11.143 8.85017 11.1258 8.8716L11.0658 8.93589Z" fill="#FDFCFA"/>
<path d="M10.4613 9.15444C10.4699 9.28301 10.3842 9.35158 10.2085 9.36015C10.0328 9.37301 9.93849 9.31301 9.93421 9.18872C9.92563 9.06015 10.0071 8.98729 10.1871 8.97444C10.3585 8.96586 10.4528 9.02586 10.4613 9.15444Z" fill="black"/>
<path d="M10.2429 9.1672C10.2001 9.14695 10.1529 9.13809 10.1057 9.14148C10.0963 9.14105 10.0869 9.14376 10.0792 9.14919C10.0714 9.15461 10.0657 9.16245 10.0629 9.17148C10.0559 9.19217 10.053 9.21399 10.0543 9.23577C10.0543 9.2572 10.0457 9.26148 10.0243 9.25291L9.99858 9.24005C9.99561 9.23837 9.99321 9.23585 9.99168 9.23279C9.99015 9.22974 9.98957 9.2263 9.99001 9.22291C9.98573 9.12434 10.0329 9.06434 10.14 9.0472C10.2472 9.02577 10.32 9.06005 10.3543 9.15005C10.3757 9.21434 10.3543 9.26577 10.29 9.29577C10.2686 9.30863 10.26 9.30005 10.2643 9.27434L10.2729 9.21863C10.2729 9.19291 10.2686 9.17577 10.2429 9.1672Z" fill="#FDFCFA"/>
<path d="M15.7242 11.8158C15.2999 11.7472 14.9485 11.8586 14.6613 12.1372C14.6399 12.1543 14.6271 12.1543 14.6185 12.1286C14.4899 11.7001 14.2242 11.4858 13.8299 11.4858C13.4399 11.4943 13.1656 11.7086 13.0156 12.1286C13.0028 12.1543 12.9899 12.1543 12.9728 12.1372C12.8374 11.9977 12.669 11.8947 12.4832 11.8378C12.2974 11.7808 12.1002 11.7718 11.9099 11.8115C11.9271 11.4386 12.0128 11.0958 12.1713 10.7829C12.1786 10.77 12.1831 10.7557 12.1846 10.741C12.1861 10.7262 12.1845 10.7113 12.1799 10.6972C12.0185 10.2734 11.9428 9.82187 11.9571 9.36864C11.9571 9.27864 11.9785 9.19721 12.0171 9.11578C12.0471 9.05149 12.0985 9.03006 12.1628 9.05149C12.4456 9.12864 12.7499 9.36435 13.0756 9.76292C13.0809 9.77127 13.0889 9.77753 13.0983 9.78066C13.1077 9.78378 13.1178 9.78357 13.1271 9.78006C13.5774 9.63717 14.061 9.63717 14.5113 9.78006C14.5328 9.78864 14.5542 9.78435 14.5671 9.76721C14.793 9.42952 15.1269 9.17866 15.5142 9.05578C15.5613 9.04292 15.5956 9.05578 15.6128 9.10292C15.6642 9.22292 15.6899 9.35149 15.6856 9.48435C15.6684 9.88523 15.5903 10.2812 15.4542 10.6586C15.4479 10.6753 15.4454 10.6932 15.4469 10.711C15.4483 10.7288 15.4538 10.7461 15.4628 10.7615C15.6342 11.0786 15.7199 11.4301 15.7199 11.8158H15.7242Z" fill="#EC811E"/>
<path d="M5.8071 9.17139C5.69568 9.53996 5.81568 9.68139 6.1671 9.59567C6.25282 9.57424 6.26139 9.5871 6.19282 9.63853C6.08996 9.72424 5.97425 9.7071 5.8371 9.60424C5.7171 9.51853 5.70853 9.3771 5.8071 9.17139Z" fill="#4F2E05"/>
<path d="M15.2829 10.4957C15.1591 10.2465 14.9616 10.0415 14.7171 9.90857C14.6957 9.89571 14.6914 9.87857 14.7086 9.85714C14.8937 9.61581 15.1478 9.43646 15.4371 9.34285C15.4543 9.33857 15.4671 9.34285 15.4757 9.36C15.6129 9.71571 15.57 10.0971 15.3471 10.5171C15.3343 10.5343 15.3171 10.5386 15.3043 10.5214C15.2957 10.5141 15.2885 10.5054 15.2829 10.4957Z" fill="#F8F774"/>
<path d="M11.7172 9.68158C11.6535 9.74717 11.5797 9.80215 11.4986 9.84443C11.4547 9.86614 11.4043 9.87072 11.3572 9.85729C11.306 9.84386 11.2558 9.82667 11.2072 9.80586C11.1857 9.79729 11.1729 9.80586 11.1686 9.82729L11.1557 9.90015C11.0957 9.86158 11.0786 9.80586 11.1129 9.72872C11.1164 9.72049 11.1216 9.71315 11.1283 9.70722C11.135 9.70129 11.1429 9.69692 11.1514 9.69443L11.2243 9.673C11.25 9.66443 11.25 9.66015 11.2243 9.66015C11.1986 9.66015 11.1814 9.66015 11.1557 9.673C11.1386 9.68158 11.1257 9.68158 11.1129 9.66872C11.0856 9.64158 11.0664 9.60749 11.0572 9.57015C11.0549 9.56118 11.0548 9.55178 11.0571 9.54281C11.0593 9.53383 11.0638 9.52555 11.07 9.51872C11.1643 9.41586 11.28 9.35586 11.4086 9.34729C11.58 9.33015 11.6657 9.39872 11.6614 9.56158C11.6614 9.57443 11.6614 9.59158 11.6743 9.60443C11.7086 9.64729 11.7214 9.673 11.7172 9.68158Z" fill="black"/>
<path d="M12.27 10.5173C12.0738 10.1742 12.0214 9.76744 12.1243 9.38585C12.1328 9.343 12.1585 9.32585 12.2014 9.34299C12.4885 9.44585 12.7243 9.62157 12.9128 9.87014C12.9257 9.883 12.9214 9.89585 12.9043 9.90442C12.6471 10.0416 12.4457 10.2473 12.3171 10.5173C12.3043 10.5473 12.2871 10.5473 12.27 10.5173Z" fill="#F8F774"/>
<path d="M11.7172 9.68164L11.6743 9.97307C11.5286 9.96878 11.3872 9.99878 11.2586 10.0631C11.2415 10.0759 11.2243 10.0716 11.2115 10.0588L11.1858 10.0331C11.1943 9.97735 11.1858 9.9345 11.1558 9.90021L11.1686 9.82735C11.1729 9.80593 11.1858 9.79735 11.2072 9.80593C11.2586 9.82735 11.3058 9.84878 11.3572 9.85735C11.4043 9.87021 11.4515 9.86593 11.4986 9.8445C11.5629 9.81021 11.6358 9.75878 11.7129 9.68164H11.7172Z" fill="#4F2E05"/>
<path d="M11.6742 9.97306C11.717 10.0802 11.687 10.1531 11.597 10.1873C11.4042 10.0888 11.2456 10.1188 11.1256 10.2773C10.9285 10.2988 10.7399 10.2816 10.5556 10.2345C10.5385 10.2302 10.5299 10.2173 10.5256 10.2045C10.5213 10.1831 10.5256 10.1745 10.5513 10.1745L10.6713 10.1916C10.8642 10.2216 10.997 10.2259 11.0742 10.2045C11.0834 10.2023 11.0921 10.1981 11.0995 10.1921C11.1069 10.1862 11.1129 10.1787 11.117 10.1702L11.1856 10.0331L11.2113 10.0588C11.2242 10.0716 11.2413 10.0759 11.2585 10.0631C11.387 9.99877 11.5285 9.96877 11.6742 9.97306Z" fill="black"/>
<path d="M18.4029 10.0198C18.5057 10.0412 18.5743 10.1141 18.6086 10.2469C18.673 10.5283 18.7301 10.8112 18.78 11.0955C18.7715 11.0998 18.7672 11.0955 18.7672 11.0912L18.6815 10.7912L18.5957 10.4141C18.5957 10.1912 18.5229 10.0712 18.3943 10.0583C18.2529 10.0455 18.1457 10.0926 18.0729 10.1998C18.0666 10.2074 18.0622 10.2164 18.0599 10.2261C18.0577 10.2358 18.0577 10.2458 18.06 10.2555L18.0772 10.3283C18.0772 10.4355 18.0986 10.5341 18.1372 10.6155L18.18 10.9369C18.1372 10.8383 18.1157 10.7741 18.12 10.7441C18.1249 10.7124 18.1219 10.68 18.1115 10.6498C18.0685 10.5221 18.0412 10.3897 18.03 10.2555C18.03 10.2341 18.03 10.2169 18.0429 10.2041C18.1157 10.0669 18.2357 10.0069 18.4029 10.0198Z" fill="#4F2E05"/>
<path d="M18.6001 10.4144C18.43 10.4048 18.2644 10.3564 18.1158 10.273C18.0987 10.2644 18.0858 10.2687 18.0772 10.2901V10.3287L18.0601 10.2559C18.0578 10.2462 18.0578 10.2362 18.06 10.2265C18.0622 10.2168 18.0667 10.2078 18.073 10.2001C18.1458 10.093 18.253 10.0458 18.3944 10.0587C18.523 10.0716 18.5915 10.1873 18.6001 10.4144Z" fill="#985E04"/>
<path d="M11.5972 10.1913C11.4429 10.2942 11.2843 10.3199 11.1257 10.277C11.2457 10.1185 11.4043 10.0885 11.5972 10.1913Z" fill="#4F2E05"/>
<path d="M5.57999 10.1616C5.71713 10.1616 5.82856 10.1873 5.90999 10.2302C5.97428 10.2602 5.9957 10.3159 5.97428 10.4016C5.96999 10.4145 5.96142 10.423 5.94428 10.423H5.92713V10.3373C5.92285 10.3116 5.90999 10.2945 5.88428 10.2902C5.81328 10.2726 5.74182 10.2569 5.66999 10.243C5.61028 10.23 5.54819 10.233 5.48999 10.2516C5.48999 10.2173 5.51999 10.183 5.57999 10.1659V10.1616Z" fill="#F8F774"/>
<path d="M18.6 10.4143L18.6857 10.7871L18.1371 10.6157C18.0943 10.5343 18.0771 10.44 18.0771 10.3286V10.2857C18.0857 10.2686 18.0986 10.2643 18.12 10.2728C18.2743 10.3586 18.4371 10.4057 18.6 10.4143Z" fill="#C48306"/>
<path d="M9.05135 10.6415L9.21421 10.68C9.25707 10.6886 9.29135 10.7058 9.31707 10.74C9.33831 10.7659 9.35563 10.7948 9.3685 10.8258C9.38135 10.86 9.3685 10.8686 9.33421 10.8643C8.98278 10.7786 8.77278 10.5986 8.7085 10.3286L8.71278 10.2986L8.72993 10.29C8.74278 10.29 8.75135 10.2943 8.75564 10.3072C8.78564 10.3715 8.83278 10.4058 8.90135 10.41C8.92278 10.41 8.94421 10.4229 8.95278 10.44C8.98278 10.4872 9.00421 10.5429 9.01278 10.5986C9.01278 10.6243 9.02992 10.6415 9.05564 10.6415H9.05135Z" fill="#795A39"/>
<path d="M12.03 10.5088L12.1028 10.7359L12.0986 10.7788L11.9228 11.1345C11.8157 11.1045 11.7771 11.0359 11.8028 10.9331C11.8286 10.8302 11.9057 10.6888 12.03 10.5088Z" fill="#CD9D47"/>
<path d="M12.7842 10.8987C12.7413 10.8987 12.7199 10.8773 12.7199 10.8345V10.7959C12.7156 10.6287 12.7928 10.543 12.947 10.5387H12.9685C13.1228 10.5387 13.2042 10.6159 13.2085 10.783V10.8259C13.2085 10.8687 13.1913 10.8859 13.1485 10.8859L12.7842 10.8987ZM14.4856 10.8859C14.4299 10.8859 14.4042 10.8559 14.4085 10.8045V10.783C14.417 10.6116 14.4942 10.5345 14.6528 10.5387H14.6656C14.8199 10.5473 14.8928 10.633 14.8885 10.8045V10.8259C14.8842 10.8773 14.8542 10.903 14.8028 10.903L14.4813 10.8859H14.4856Z" fill="#F8F774"/>
<path d="M5.85432 10.9884C5.84575 11.1255 5.81146 11.2541 5.75146 11.3741C5.75146 11.3827 5.74289 11.3869 5.73861 11.3827C5.73004 11.3784 5.73003 11.3741 5.73432 11.3655C5.76003 11.3227 5.75146 11.2798 5.70861 11.2498C5.59718 11.1641 5.47718 11.0655 5.35718 10.9584C5.36146 10.8469 5.38718 10.7441 5.43003 10.6584C5.43861 10.6412 5.44718 10.6412 5.45575 10.6584C5.56342 10.7957 5.69935 10.9082 5.85432 10.9884Z" fill="#C48306"/>
<path d="M10.2429 11.3272C10.3029 11.3958 10.3886 11.4472 10.5 11.4772C10.5943 11.5072 10.6586 11.5329 10.6971 11.5629C10.7571 11.6058 10.8086 11.6615 10.8557 11.7215C10.8729 11.7429 10.8857 11.7386 10.89 11.7129C10.8986 11.6615 10.92 11.6186 10.9457 11.5715C10.9721 11.5316 11.0055 11.4967 11.0443 11.4686C11.16 11.3829 11.2371 11.2844 11.2886 11.1772L11.4986 10.9544C11.5371 10.9115 11.55 10.9201 11.5457 10.9758C11.5457 11.0186 11.5243 11.0572 11.4943 11.0915C11.4586 11.1303 11.4243 11.1703 11.3914 11.2115L11.2629 11.3658C11.1086 11.5158 11.0057 11.6915 10.9586 11.8886C10.95 11.9229 10.9286 11.9315 10.8986 11.9058C10.7957 11.8201 10.6886 11.7301 10.5857 11.6315C10.5333 11.5822 10.4702 11.5455 10.4014 11.5243C10.2814 11.4815 10.1271 11.3958 9.93 11.2586C9.87 11.2158 9.87429 11.2029 9.94714 11.2158C10.0414 11.2415 10.14 11.2801 10.2471 11.3272H10.2429Z" fill="#CD9D47"/>
<path d="M14.9872 11.2715C14.7986 11.4258 14.5757 11.4986 14.3186 11.4944C14.3075 11.495 14.2964 11.492 14.2871 11.4858C14.2779 11.4796 14.2709 11.4706 14.2672 11.4601C14.2626 11.4503 14.2611 11.4395 14.2626 11.4288C14.2641 11.4182 14.2687 11.4082 14.2757 11.4001C14.4472 11.2115 14.6743 11.0744 14.9486 10.9844C14.9743 10.9801 14.9914 10.9844 14.9914 11.0101C15.0172 11.0829 15.0214 11.1515 15.0129 11.2244C15.0129 11.2458 15.0043 11.2629 14.9872 11.2758V11.2715ZM13.3543 11.5029C13.1381 11.494 12.9269 11.4354 12.7372 11.3315C12.6129 11.2672 12.5914 11.1686 12.6643 11.0315C12.6681 11.0225 12.6748 11.015 12.6833 11.0103C12.6919 11.0057 12.7018 11.0041 12.7114 11.0058C12.8829 11.0186 13.0886 11.1258 13.3414 11.3315C13.38 11.3615 13.4014 11.4044 13.4057 11.4515C13.4057 11.4901 13.3929 11.5072 13.3543 11.5029Z" fill="black"/>
<path d="M18.6858 11.3742C18.5829 11.417 18.4929 11.4385 18.4201 11.4342C18.3343 11.4342 18.3043 11.4085 18.3172 11.3699C18.5701 11.3956 18.7243 11.3356 18.7843 11.1899C18.7972 11.1299 18.8058 11.1385 18.8101 11.2199C18.8101 11.2713 18.7672 11.3228 18.6815 11.3742H18.6858ZM11.2886 11.177C11.2372 11.2842 11.1601 11.3828 11.0443 11.4685C11.0056 11.4966 10.9722 11.5314 10.9458 11.5713C10.9201 11.6142 10.9029 11.6613 10.8901 11.7128C10.8858 11.7385 10.8729 11.7428 10.8558 11.7213C10.8098 11.662 10.7566 11.6087 10.6972 11.5628C10.6368 11.5233 10.5701 11.4943 10.5001 11.477C10.3886 11.447 10.3029 11.3913 10.2429 11.327L10.5472 11.3485C10.7443 11.3999 10.9115 11.3913 11.0486 11.3099L11.2886 11.1813V11.177Z" fill="#4F2E05"/>
<path d="M18.7842 11.1899C18.7242 11.3357 18.5699 11.3957 18.3128 11.3699C18.2699 11.3142 18.2571 11.2585 18.2785 11.2071C18.3213 11.2842 18.3642 11.3228 18.3985 11.3228C18.5056 11.3185 18.6342 11.2714 18.7842 11.1942V11.1899Z" fill="#F8F774"/>
<path d="M11.0485 11.3143C10.9114 11.3915 10.7485 11.4001 10.5471 11.3486L11.0485 11.3101V11.3143ZM11.8285 11.4001V11.6143C11.82 11.7343 11.82 11.8201 11.8285 11.8715C11.8543 12.1372 12.0085 12.3943 12.2871 12.6343C12.3085 12.6472 12.3085 12.6643 12.2957 12.6858C12.1488 12.9217 12.0771 13.1967 12.09 13.4743C12.09 13.5001 12.0814 13.5172 12.0643 13.5386L11.9871 13.6115C11.91 13.6886 11.8585 13.7443 11.8285 13.7872C11.6357 14.0872 11.6143 14.4001 11.76 14.7343C11.7685 14.7515 11.7643 14.7686 11.7514 14.7772L11.4771 15.0086C11.4433 14.9773 11.4059 14.9499 11.3657 14.9272C11.2848 14.8827 11.2157 14.8195 11.1643 14.7429L11.16 14.7129L11.1728 14.7172C11.1857 14.7258 11.19 14.7172 11.1943 14.7086L11.2371 14.3872C11.2371 14.3658 11.2328 14.3443 11.2243 14.3272L11.1814 14.2501C11.1766 14.2433 11.1733 14.2356 11.1718 14.2275C11.1703 14.2193 11.1707 14.2109 11.1728 14.2029C11.1943 14.1343 11.2157 14.0743 11.2457 14.0101L11.3657 13.7829C11.5285 13.4701 11.6314 13.2258 11.6743 13.0543C11.7128 12.9086 11.7257 12.7715 11.7171 12.6472C11.7043 12.4286 11.5543 12.2015 11.2671 11.9701C11.25 11.9572 11.25 11.9486 11.2671 11.9358L11.8328 11.3958L11.8285 11.4001Z" fill="#CD9D47"/>
<path d="M15.7242 11.8158C15.6813 12.1416 15.5313 12.4158 15.2699 12.6344C15.177 12.7027 15.0702 12.7495 14.9571 12.7716C14.8713 12.793 14.8285 12.8573 14.8285 12.9558C14.4299 13.1787 14.0571 13.2773 13.7185 13.2516C13.2686 13.2007 12.8445 13.0155 12.5013 12.7201C12.3821 12.6245 12.2704 12.5199 12.1671 12.4073C12.0113 12.2469 11.9198 12.0349 11.9099 11.8116C12.3299 11.743 12.6813 11.8544 12.9728 12.1373C12.9899 12.1544 13.0028 12.1544 13.0156 12.1287C13.1656 11.7087 13.4399 11.4944 13.8299 11.4858C14.2242 11.4858 14.4856 11.7001 14.6185 12.1287C14.6271 12.1544 14.6399 12.1544 14.6613 12.1373C14.9485 11.8544 15.3042 11.7516 15.7242 11.8158Z" fill="#FDFCFA"/>
<path d="M8.27154 13.5299C8.27154 13.4441 8.29726 13.3713 8.35297 13.307C8.36818 13.2906 8.3783 13.2701 8.38211 13.248C8.38591 13.226 8.38323 13.2033 8.3744 13.1827C8.33534 13.0828 8.3136 12.977 8.31012 12.8699C8.29994 12.5664 8.3346 12.2632 8.41297 11.9699C8.43869 11.8799 8.44297 11.777 8.42583 11.6656C8.41726 11.6099 8.39154 11.6013 8.34869 11.6313C8.15854 11.7612 8.00504 11.9378 7.90296 12.1443C7.80088 12.3507 7.75365 12.5799 7.76583 12.8099C7.78533 13.208 7.94294 13.5868 8.21154 13.8813C8.2544 14.1299 8.34869 14.3399 8.49869 14.5241C8.53726 14.567 8.52869 14.5841 8.47297 14.567C8.11297 14.4427 7.87297 14.2241 7.7444 13.9027C7.62443 13.5902 7.58014 13.2536 7.61515 12.9207C7.65016 12.5877 7.76347 12.2678 7.94583 11.987C8.0444 11.8156 8.18583 11.6827 8.37869 11.5756C8.42154 11.5541 8.45154 11.5627 8.4644 11.6099C8.48583 11.6784 8.4944 11.7384 8.48154 11.807L8.45154 11.957C8.33728 12.3727 8.32991 12.8105 8.43012 13.2299C8.43869 13.247 8.4344 13.2641 8.42583 13.2813L8.27583 13.5299H8.27154Z" fill="#F8F774"/>
<path d="M8.2714 13.5299L8.2114 13.8856C7.94188 13.59 7.7842 13.2094 7.76569 12.8099C7.75224 12.5797 7.79891 12.3501 7.9011 12.1434C8.00329 11.9368 8.15749 11.7603 8.34855 11.6313C8.3914 11.6013 8.41712 11.6099 8.42569 11.6656C8.44283 11.777 8.43855 11.8799 8.41283 11.9699C8.33446 12.2632 8.2998 12.5664 8.30997 12.8699C8.30997 12.9813 8.33569 13.0841 8.37426 13.1827C8.3914 13.2256 8.38283 13.2684 8.35283 13.3113C8.30046 13.3718 8.2729 13.4499 8.27569 13.5299H8.2714Z" fill="#CD9D47"/>
<path d="M5.57133 11.8244L5.3999 11.7944C5.37419 11.7944 5.36133 11.7773 5.36133 11.7516L5.36561 11.683C5.36561 11.653 5.38704 11.6401 5.41704 11.6401L5.56704 11.6659C5.57632 11.6666 5.58511 11.6704 5.59207 11.6765C5.59903 11.6827 5.60378 11.691 5.60561 11.7001L5.62276 11.7687C5.63133 11.8116 5.61419 11.8287 5.57133 11.8244Z" fill="#C48306"/>
<path d="M14.1685 12.5358L13.6028 12.5272C13.5771 12.5272 13.5685 12.5401 13.5685 12.5615L13.5814 12.7158C13.5814 12.7287 13.5728 12.7372 13.5643 12.7415C13.5572 12.7433 13.5499 12.7433 13.5428 12.7415C13.5372 12.7401 13.532 12.7375 13.5275 12.7337C13.5231 12.73 13.5195 12.7254 13.5171 12.7201C13.4743 12.6344 13.4314 12.5529 13.3757 12.4715C13.3585 12.4458 13.3671 12.4287 13.3971 12.4287C13.4743 12.4244 13.56 12.4287 13.6457 12.4544C13.7228 12.4758 13.7871 12.4544 13.8343 12.3858C13.8421 12.374 13.8479 12.361 13.8514 12.3472C13.8685 12.2872 13.8514 12.2487 13.7914 12.2229C13.62 12.1587 13.5557 12.0344 13.5814 11.8587C13.59 11.8072 13.6243 11.7815 13.6757 11.7772L13.9671 11.7729C14.1128 11.7729 14.1771 11.8458 14.1557 11.9958C14.1486 12.049 14.1274 12.0994 14.0942 12.1416C14.061 12.1838 14.0171 12.2163 13.9671 12.2358C13.9562 12.2393 13.9466 12.2462 13.9397 12.2554C13.9328 12.2646 13.9289 12.2757 13.9285 12.2872C13.9243 12.3515 13.95 12.4072 14.0057 12.4458C14.0228 12.4587 14.04 12.4629 14.0614 12.4587L14.3271 12.4244C14.3871 12.4201 14.4043 12.4415 14.37 12.4929L14.2543 12.6944C14.2071 12.7715 14.1814 12.7672 14.1771 12.6772C14.1771 12.6344 14.1814 12.6001 14.1943 12.5701C14.2028 12.5487 14.1943 12.5358 14.1685 12.5358Z" fill="black"/>
<path d="M18.7115 12C18.7887 12.0257 18.8401 12.0857 18.853 12.1714C18.7287 12.0129 18.5787 11.9657 18.403 12.0214C18.3852 12.0277 18.3691 12.038 18.3558 12.0514L18.3215 12.0857C18.2958 12.1157 18.2915 12.1114 18.3044 12.0771C18.3601 11.9443 18.4973 11.9186 18.7115 12.0043V12ZM5.76011 12.0771C5.5544 12.0343 5.4044 12.0729 5.3144 12.18C5.29725 12.1886 5.29297 12.1843 5.29297 12.1757C5.30154 12.12 5.33583 12.0771 5.4044 12.0471C5.58868 11.9743 5.7044 11.9829 5.76011 12.0771Z" fill="#4F2E05"/>
<path d="M5.76006 12.0773C5.81577 12.163 5.83292 12.2188 5.80292 12.2488C5.70863 12.1202 5.55434 12.1073 5.33149 12.2188C5.31863 12.2273 5.31006 12.2188 5.31006 12.2016V12.1802C5.40434 12.073 5.55434 12.0388 5.76006 12.0773Z" fill="#F8F774"/>
<path d="M18.7286 12.8487C18.6 12.6987 18.4457 12.5787 18.2786 12.4802L18.3214 12.1373C18.3214 12.0945 18.3343 12.0945 18.3514 12.1287C18.3814 12.193 18.4886 12.2873 18.6686 12.4159L18.7328 12.4587C18.7457 12.4716 18.7543 12.4845 18.7586 12.5016C18.7714 12.613 18.7628 12.7287 18.7286 12.8487Z" fill="#C48306"/>
<path d="M5.36564 12.6085L5.4385 12.9814C5.42564 13.08 5.4385 13.1742 5.48564 13.2642C5.49526 13.2841 5.51215 13.2994 5.53278 13.3071C5.7085 13.3714 5.84564 13.3328 5.94421 13.1957C5.95278 13.1871 5.96135 13.1871 5.96993 13.1957L5.98278 13.2042V13.2128C5.93824 13.2771 5.87628 13.3274 5.80417 13.3578C5.73206 13.3882 5.65278 13.3973 5.57564 13.3842C5.47707 13.3414 5.42135 13.2642 5.4085 13.14C5.39404 13.0163 5.37402 12.8933 5.3485 12.7714C5.32054 12.636 5.30618 12.4982 5.30564 12.36C5.29707 12.2828 5.30564 12.2785 5.33564 12.3514C5.36135 12.4285 5.37421 12.5142 5.36564 12.6085Z" fill="#4F2E05"/>
<path d="M16.2473 12.4886C16.2687 12.7414 16.2473 12.9429 16.1958 13.0886L16.0673 13.4571H16.033L15.8315 13.2943C15.9001 13.1486 15.9387 13.0157 15.9473 12.9043C15.9773 12.5186 16.0758 12.3857 16.2473 12.4886Z" fill="#F8F774"/>
<path d="M16.2471 12.4888C16.3329 12.5059 16.3757 12.5488 16.3843 12.6131C16.4143 12.8445 16.3886 13.0631 16.3071 13.2731C16.2343 13.2988 16.1871 13.3631 16.1571 13.4616L16.0671 13.4573L16.1957 13.0931C16.2514 12.9431 16.2686 12.7416 16.2471 12.4888Z" fill="#CD9D47"/>
<path d="M13.9157 12.6641C13.9086 12.6782 13.8963 12.689 13.8814 12.6941C13.86 12.7027 13.8385 12.6941 13.83 12.6727C13.8085 12.6298 13.7785 12.6213 13.74 12.647C13.7143 12.6641 13.6971 12.6598 13.68 12.6298C13.6714 12.6084 13.6757 12.587 13.6843 12.5741C13.6882 12.569 13.6935 12.565 13.6995 12.5627C13.7056 12.5605 13.7122 12.5599 13.7185 12.5613C13.8257 12.5741 13.92 12.5784 14.0057 12.5784C14.0185 12.5784 14.0271 12.5827 14.0314 12.5998V12.6213C14.0357 12.6427 14.0314 12.6513 14.01 12.647L13.9585 12.6427C13.9414 12.6384 13.9243 12.6427 13.9157 12.6641Z" fill="black"/>
<path d="M5.36572 12.6084C5.53715 12.7027 5.70858 12.767 5.89287 12.7927C5.92287 12.8913 5.93144 12.9898 5.92287 13.0927C5.92287 13.1055 5.91429 13.1141 5.89715 13.1055C5.75144 13.037 5.59715 12.9941 5.43858 12.977L5.36572 12.6084Z" fill="#C48306"/>
<path d="M12.5013 12.7202C12.5356 12.7631 12.5656 12.7845 12.587 12.7845C12.5528 12.8959 12.5399 12.9988 12.5442 13.0931C12.527 13.1059 12.5099 13.0931 12.5013 13.0674C12.4973 13.0595 12.4912 13.0529 12.4836 13.0484C12.476 13.0438 12.4673 13.0415 12.4585 13.0416L12.3985 13.0331C12.3385 13.0202 12.3213 12.9902 12.3556 12.9345L12.4713 12.7502C12.4842 12.7502 12.4928 12.7374 12.5013 12.7202Z" fill="#985E04"/>
<path d="M12.4714 12.7502L12.3556 12.9345C12.3214 12.9902 12.3385 13.0202 12.3985 13.033L12.4628 13.0416C12.4799 13.0416 12.4928 13.0545 12.4971 13.0673C12.5099 13.0973 12.5271 13.1059 12.5485 13.093C12.5571 13.1059 12.5614 13.123 12.5528 13.153L12.5956 13.453C12.6814 13.7702 12.8656 14.0145 13.1528 14.1945C13.3456 14.3145 13.5385 14.4259 13.7399 14.5245C13.7699 14.5416 13.7828 14.5673 13.7828 14.6016L13.7571 15.1673C13.6456 15.0816 13.5428 15.0388 13.4442 15.0516L13.3071 15.073C13.0156 15.1159 12.8142 15.0902 12.7071 14.9959C12.6264 14.9156 12.5661 14.8171 12.5314 14.7088L12.3342 14.1859C12.2485 13.9588 12.2056 13.7145 12.2142 13.4659C12.2077 13.2191 12.2748 12.9759 12.4071 12.7673C12.4199 12.7416 12.4456 12.7373 12.4714 12.7502Z" fill="#EC811E"/>
<path d="M15.3215 12.8144C15.4458 12.9087 15.5358 12.9987 15.6086 13.0844C15.6344 13.1144 15.6429 13.1487 15.6301 13.1872C15.6261 13.2048 15.6177 13.2211 15.6057 13.2346C15.5937 13.2481 15.5785 13.2583 15.5615 13.2644C15.4072 13.3201 15.2615 13.3244 15.1329 13.2772C14.9786 13.2258 14.9015 13.1101 14.8972 12.943C14.8972 12.8915 14.9186 12.8572 14.9658 12.8358C15.0301 12.8101 15.0944 12.793 15.1672 12.7758C15.2186 12.763 15.2744 12.7758 15.3215 12.8144Z" fill="#CD9D47"/>
<path d="M12.5828 12.7842C12.9685 13.0628 13.3499 13.2213 13.7185 13.2513C14.0614 13.277 14.4299 13.1785 14.8285 12.9556C14.8499 13.067 14.8842 13.1528 14.9314 13.2128C14.7256 13.2985 14.5371 13.3328 14.3656 13.3285H13.7056C13.3233 13.3269 12.9449 13.2512 12.5914 13.1056C12.5742 13.097 12.5614 13.1142 12.5528 13.1485C12.5614 13.1228 12.5571 13.1056 12.5485 13.0928C12.5399 12.9985 12.5485 12.8956 12.5828 12.7842Z" fill="#ABAAA8"/>
<path d="M18.2143 13.0674C18.2314 13.1488 18.2571 13.196 18.2828 13.2002C18.3986 13.2431 18.5186 13.256 18.6428 13.2431C18.6643 13.2388 18.6728 13.2431 18.66 13.2645C18.6428 13.2902 18.6128 13.3074 18.5571 13.3202C18.4465 13.3192 18.3371 13.2959 18.2357 13.2517C18.1543 13.2088 18.15 13.1488 18.2143 13.0674Z" fill="#F8F774"/>
<path d="M14.9314 13.217L15.1028 13.3327L15.0514 13.577C14.9786 13.6412 14.91 13.7141 14.8414 13.7912C14.7557 13.9027 14.6828 13.9755 14.64 14.0141C14.4086 14.2112 14.1428 14.3398 13.8471 14.4127C13.8375 14.4144 13.8275 14.4142 13.818 14.4119C13.8084 14.4097 13.7994 14.4056 13.7914 14.3998C13.6995 14.3455 13.6051 14.2955 13.5086 14.2498C13.3328 14.1641 13.2086 14.0955 13.1314 14.0355C12.9257 13.8812 12.7457 13.6884 12.6 13.457L12.5571 13.1527C12.5614 13.1098 12.5743 13.097 12.5957 13.1055C12.9482 13.2491 13.3251 13.3234 13.7057 13.3241H14.3657C14.5371 13.3327 14.7257 13.2984 14.9314 13.217Z" fill="#FDFCFA"/>
<path d="M8.87574 13.2002L8.90145 13.4145C8.88003 13.4188 8.86717 13.4316 8.86717 13.4445C8.84574 13.4573 8.82431 13.4531 8.80717 13.4445C8.79398 13.4334 8.77727 13.4273 8.76003 13.4273L8.56288 13.4402C8.55454 13.44 8.54627 13.4419 8.53881 13.4456C8.53134 13.4493 8.52489 13.4548 8.52002 13.4616C8.39145 13.6673 8.37003 13.9073 8.46431 14.1816C8.35717 14.0316 8.33574 13.8473 8.39574 13.6245C8.4686 13.3716 8.62717 13.2302 8.87574 13.2002ZM16.3072 13.2731C16.2857 13.3845 16.2429 13.4745 16.1743 13.5431C16.1486 13.5216 16.1443 13.4959 16.1572 13.4616C16.1872 13.3631 16.2343 13.2988 16.3072 13.2731Z" fill="#F8F774"/>
<path d="M15.8314 13.2944L16.0328 13.4573L15.7799 13.7744L15.6771 13.6459C15.6299 13.5859 15.6342 13.5301 15.6771 13.4701L15.8314 13.2987V13.2944ZM15.1028 13.333L15.4071 13.3716C15.4285 13.3716 15.4371 13.3844 15.4371 13.4016C15.4585 13.7273 15.4242 14.0059 15.3385 14.2373C15.2528 14.4687 15.1671 14.683 15.0814 14.8887C15.0523 14.9656 15.0008 15.032 14.9336 15.0794C14.8663 15.1268 14.7865 15.1529 14.7042 15.1544C14.6357 15.1587 14.4728 15.1459 14.2114 15.1116C14.1079 15.0919 14.0009 15.1118 13.9114 15.1673L13.9242 14.5673C13.9242 14.5501 13.9371 14.5373 13.9542 14.533C14.2015 14.4759 14.4308 14.3588 14.6222 14.1922C14.8135 14.0255 14.9609 13.8143 15.0514 13.5773L15.1028 13.333Z" fill="#EC811E"/>
<path d="M8.86709 13.4444L9.19709 14.6015L8.59709 14.3872C8.51137 14.323 8.46852 14.2587 8.46423 14.1815C8.36995 13.9072 8.38709 13.6672 8.52423 13.4615C8.5291 13.4547 8.53554 13.4493 8.54301 13.4455C8.55048 13.4418 8.55874 13.4399 8.56709 13.4401L8.75995 13.4272C8.77709 13.4272 8.79423 13.4272 8.80709 13.4401C8.82423 13.453 8.84566 13.4572 8.86709 13.4444Z" fill="#CD9D47"/>
<path d="M16.0286 13.457H16.0672L16.1572 13.4613C16.1443 13.4956 16.1486 13.5213 16.1743 13.547C16.11 13.6713 16.0157 13.7699 15.8957 13.847C15.8887 13.8516 15.8806 13.8541 15.8722 13.8541C15.8638 13.8541 15.8556 13.8516 15.8486 13.847C15.8203 13.8285 15.7968 13.8035 15.78 13.7742L16.0329 13.457H16.0286Z" fill="#985E04"/>
<path d="M5.84151 13.5001L5.68723 13.5429C5.67542 13.546 5.66524 13.5535 5.65885 13.5639C5.65246 13.5743 5.65034 13.5867 5.65294 13.5986L5.67009 13.6672C5.67866 13.6929 5.70437 13.7101 5.73009 13.7015L5.88437 13.6586C5.91009 13.6501 5.92723 13.6244 5.91866 13.5986L5.90151 13.5301C5.89958 13.5241 5.89648 13.5187 5.89241 13.5139C5.88833 13.5092 5.88336 13.5053 5.87778 13.5025C5.8722 13.4997 5.86612 13.4981 5.85989 13.4977C5.85367 13.4972 5.84742 13.4981 5.84151 13.5001Z" fill="#C48306"/>
<path d="M12.0857 13.7869C12.0086 13.8384 11.9486 13.9112 11.91 14.0012C11.88 14.0741 11.8457 14.1384 11.8071 14.1984C11.82 14.0098 11.9057 13.8469 12.0643 13.7098C12.0814 13.6927 12.09 13.6969 12.0943 13.7184C12.0977 13.7416 12.0948 13.7653 12.0857 13.7869ZM15.8528 14.2541C15.8186 14.2541 15.7928 14.2241 15.7757 14.1598C15.7671 14.1084 15.7543 14.0741 15.7457 14.0484C15.7083 13.9723 15.6484 13.9095 15.5743 13.8684C15.5605 13.842 15.5574 13.8113 15.5657 13.7827C15.5743 13.7655 15.5828 13.7612 15.6 13.7741C15.7371 13.9027 15.8228 14.0612 15.8528 14.2541Z" fill="#F8F774"/>
<path d="M12.0857 13.7871C12.1328 14.0485 12.21 14.3014 12.3171 14.5371L12.0685 14.8543C11.9657 14.8543 11.8885 14.7685 11.8414 14.5971C11.7985 14.4557 11.79 14.3228 11.8071 14.1985C11.8457 14.1385 11.88 14.07 11.91 14.0014C11.9485 13.9114 12.0085 13.8385 12.0857 13.7871Z" fill="#EC811E"/>
<path d="M6.00859 13.8514C5.87573 13.8942 5.76859 13.95 5.69573 14.01H5.67859C5.67478 14.0082 5.67173 14.0052 5.67002 14.0014C5.66573 13.98 5.6743 13.9671 5.69573 13.9585C5.79002 13.86 5.89716 13.8257 6.00859 13.8514ZM18.36 13.9114C18.4457 13.9842 18.4714 14.0528 18.4457 14.1214C18.3492 14.3739 18.2534 14.6268 18.1586 14.88L18.1372 14.8628L18.1929 14.6914L18.3086 14.3742C18.3214 14.3314 18.3386 14.28 18.3643 14.2242C18.3943 14.1685 18.4072 14.1214 18.4029 14.0914C18.39 13.9457 18.2914 13.8685 18.1029 13.8557C18.0533 13.8513 18.004 13.8667 17.9657 13.8985C17.8757 14.0314 17.82 14.1642 17.8029 14.2971L17.64 14.7471C17.6314 14.79 17.6272 14.8157 17.6186 14.8157C17.58 14.8371 17.5714 14.8285 17.5843 14.79L17.8629 14.0142C17.94 13.7871 18.1072 13.7571 18.36 13.9114Z" fill="#4F2E05"/>
<path d="M6.15423 13.9845C6.03423 13.8859 5.87566 13.9245 5.68281 14.1002C5.69566 14.1002 5.68709 14.0959 5.66138 14.0745C5.66807 14.0509 5.67976 14.0289 5.69566 14.0102C5.76852 13.9502 5.87566 13.8988 6.00852 13.8516C6.05995 13.8474 6.10281 13.8559 6.13281 13.8816C6.16709 13.9116 6.17566 13.9459 6.15423 13.9845Z" fill="#F8F774"/>
<path d="M18.3085 14.3745L17.9785 14.0488C17.9725 14.0427 17.9685 14.035 17.967 14.0266C17.9655 14.0182 17.9665 14.0095 17.9699 14.0017C17.9828 13.9686 17.9828 13.9319 17.9699 13.8988C18.0042 13.8688 18.0513 13.856 18.0985 13.856C18.2913 13.8688 18.3899 13.946 18.3985 14.0917C18.4071 14.1217 18.3942 14.1688 18.3642 14.2245C18.3385 14.2802 18.3213 14.3317 18.3085 14.3745Z" fill="#985E04"/>
<path d="M15.5786 13.8687C15.6472 13.9115 15.7029 13.9672 15.7458 14.0487C15.7543 14.0701 15.7672 14.1087 15.7758 14.1601C15.7929 14.2244 15.8186 14.2587 15.8529 14.2544C15.8829 14.4472 15.8486 14.6272 15.75 14.7987C15.7072 14.8715 15.6643 14.9101 15.6086 14.9144L15.3943 14.6958C15.3643 14.6658 15.3472 14.6701 15.3386 14.7129C15.3258 14.7944 15.2872 14.8501 15.2229 14.8844C15.3686 14.5544 15.4886 14.2201 15.5786 13.8687Z" fill="#EC811E"/>
<path d="M17.9657 13.8984C17.9786 13.9284 17.9828 13.9627 17.9657 14.0013C17.9637 14.0089 17.9638 14.017 17.9661 14.0245C17.9684 14.0321 17.9727 14.0389 17.9786 14.0442L18.3086 14.3742L18.1928 14.6913C18.0837 14.5421 17.9538 14.4094 17.8071 14.297C17.82 14.1684 17.8757 14.0313 17.9657 13.8984Z" fill="#C48306"/>
<path d="M6.15429 13.9843L6.32572 14.37C6.25715 14.3829 6.24858 14.4129 6.29572 14.4643C6.33 14.5071 6.32143 14.5243 6.26572 14.5243L5.83715 14.5114L5.68286 14.1C5.87572 13.9243 6.03429 13.8857 6.15429 13.9843Z" fill="#B16D04"/>
<path d="M5.66138 14.0742C5.68709 14.0956 5.69566 14.1042 5.6828 14.0999L5.84138 14.5114L5.94852 14.7942L5.9528 14.8114C6.0128 15.0256 6.09423 15.1328 6.20995 15.1285C6.41138 15.1242 6.50995 15.0299 6.50995 14.8499C6.50995 14.8371 6.51423 14.8285 6.52709 14.8328H6.54423C6.5528 14.8328 6.55709 14.8414 6.55709 14.8542C6.53138 15.0514 6.42852 15.1628 6.23566 15.1799C6.12423 15.1799 6.04709 15.1371 6.00852 15.0385C5.85852 14.6828 5.7428 14.3785 5.6528 14.1214C5.64852 14.0999 5.6528 14.0871 5.66138 14.0785V14.0742Z" fill="#4F2E05"/>
<path d="M17.8028 14.2974C17.9528 14.4088 18.0813 14.5416 18.1928 14.6916L18.137 14.8631L18.0856 14.9916C18.077 15.0131 18.0642 15.0174 18.0427 14.9916C18.0404 14.9862 18.0392 14.9804 18.0392 14.9745C18.0392 14.9686 18.0404 14.9628 18.0427 14.9574C18.0427 14.9488 18.0427 14.9359 18.0299 14.9274L17.7813 14.6788C17.7743 14.6714 17.7653 14.6662 17.7554 14.6639C17.7455 14.6616 17.7351 14.6623 17.7256 14.6659C17.7042 14.6745 17.6956 14.6874 17.6999 14.7088C17.6999 14.7259 17.6913 14.7431 17.6785 14.7516C17.6656 14.7645 17.6527 14.7645 17.6399 14.7516L17.8028 14.2974Z" fill="#B16D04"/>
<path d="M6.32144 14.3701L6.49287 14.833C6.49287 14.8373 6.49287 14.8415 6.48859 14.8373L5.94859 14.7944L5.83716 14.5115L6.26573 14.5244C6.32144 14.5244 6.33002 14.503 6.29573 14.4644C6.25287 14.413 6.25716 14.3787 6.32144 14.3701Z" fill="#C48306"/>
<path d="M8.59717 14.3916L9.19717 14.6059L9.22717 14.9059C9.19808 14.9053 9.16909 14.9096 9.14145 14.9187C9.13288 14.893 9.12003 14.8759 9.11145 14.8759C8.89717 14.7687 8.72574 14.6059 8.59717 14.3916Z" fill="#795A39"/>
<path d="M10.6885 15.3383C10.5685 15.3383 10.4528 15.3469 10.3414 15.3555C10.26 15.3555 10.2385 15.3255 10.2685 15.2526C10.292 15.2044 10.3051 15.1519 10.3071 15.0983C10.3071 14.9269 10.3071 14.7512 10.2985 14.5798C10.2985 14.5626 10.3028 14.5498 10.32 14.5455C10.3328 14.5369 10.3457 14.5412 10.3585 14.554C10.5 14.7169 10.68 14.734 10.8857 14.6055C10.8931 14.5999 10.9021 14.5969 10.9114 14.5969C10.9207 14.5969 10.9297 14.5999 10.9371 14.6055C10.9445 14.6097 10.9506 14.616 10.9544 14.6236C10.9582 14.6313 10.9596 14.6399 10.9585 14.6483C10.9285 14.8626 10.9414 15.0769 10.9885 15.2912C10.9928 15.3126 10.9885 15.3255 10.9671 15.334C10.9242 15.3555 10.86 15.3598 10.7657 15.3469C10.7402 15.3422 10.7144 15.3393 10.6885 15.3383Z" fill="#CD9D47"/>
<path d="M12.3172 14.5371C12.4115 14.6785 12.4415 14.8243 12.4072 14.9785C12.3943 14.9614 12.3686 14.9528 12.3429 14.9571C12.3343 14.9571 12.3343 14.9528 12.3343 14.9443C12.3343 14.9357 12.3257 14.9314 12.3172 14.9314C12.2315 14.9228 12.1457 14.9014 12.0686 14.8543L12.3172 14.5371ZM15.6086 14.9143C15.5229 14.9485 15.48 14.9828 15.4886 15.0214L15.2229 14.9914V14.88C15.2872 14.85 15.3257 14.7943 15.3386 14.7085C15.3472 14.67 15.3643 14.6657 15.3943 14.6957L15.6086 14.9143Z" fill="#985E04"/>
<path d="M11.1643 14.7427C11.217 14.8198 11.2875 14.883 11.37 14.927C11.4171 14.957 11.4557 14.987 11.4771 15.0084C11.4707 15.0308 11.4589 15.0514 11.4428 15.0684L11.1514 15.1112L11.1643 14.7427ZM10.0971 14.7598L10.1014 15.0941C9.85004 15.0351 9.58989 15.0235 9.33426 15.0598C9.32569 15.0427 9.32998 15.0127 9.33855 14.9655L9.65998 14.987C9.80569 14.9955 9.9514 14.9227 10.0971 14.7598Z" fill="#795A39"/>
<path d="M17.9143 15.0901C17.9486 15.0944 17.9786 15.0901 18.0086 15.0644C18.0257 15.0516 18.0386 15.0559 18.0429 15.0816V15.0987C18.0215 15.1459 17.9872 15.1673 17.9315 15.1587C17.7986 15.1373 17.6786 15.0987 17.5757 15.0387C17.5543 15.0259 17.5457 15.0087 17.5543 14.983C17.566 14.9489 17.5834 14.917 17.6057 14.8887C17.6272 14.8587 17.6357 14.863 17.6315 14.8973L17.6229 14.9701C17.6186 14.9959 17.6272 15.013 17.6529 15.0173C17.7386 15.0516 17.8243 15.073 17.91 15.0901H17.9143Z" fill="#F8F774"/>
<path d="M12.343 14.9569C12.3687 14.9527 12.3944 14.9569 12.4072 14.9784C12.223 15.2098 12.1801 15.4241 12.2787 15.6212C12.2958 15.6469 12.2872 15.6641 12.2572 15.6641L12.1458 15.6769C12.1158 15.6769 12.0944 15.6684 12.0858 15.6341C12.0691 15.5754 12.059 15.515 12.0558 15.4541C12.0472 15.3255 12.0215 15.3212 11.9744 15.4412C11.9529 15.5002 11.947 15.5636 11.9572 15.6255C11.9658 15.6598 11.9487 15.6727 11.9144 15.6684L11.803 15.6598C11.7687 15.6555 11.7472 15.6341 11.743 15.5998L11.7172 15.3684C11.7172 15.3469 11.7044 15.3384 11.683 15.3427C11.6615 15.3512 11.653 15.3641 11.6444 15.3855C11.6358 15.4241 11.6315 15.4627 11.6315 15.5055C11.6315 15.5827 11.6144 15.5912 11.5715 15.5184C11.5373 15.4636 11.5178 15.4009 11.5148 15.3363C11.5118 15.2718 11.5254 15.2076 11.5544 15.1498C11.6101 15.0341 11.7044 14.9527 11.8415 14.8927C11.8567 14.8867 11.8735 14.8867 11.8887 14.8927C12.103 14.9827 12.253 15.0041 12.343 14.9569Z" fill="#FDFCFA"/>
<path d="M9.22707 14.9059C9.26135 14.9745 9.26992 15.0302 9.24849 15.0645C9.17564 15.2016 9.11992 15.3345 9.08992 15.4673C9.08135 15.493 9.06849 15.5016 9.04707 15.5016C8.92647 15.5029 8.80735 15.475 8.69992 15.4202C8.57992 15.3516 8.57564 15.2487 8.69135 15.1202C8.75992 15.0387 8.84135 14.983 8.93135 14.953C8.94042 14.9498 8.95006 14.9485 8.95966 14.9492C8.96926 14.95 8.9786 14.9527 8.98706 14.9573C9.05564 15.0002 9.10706 14.9873 9.14135 14.9145C9.16924 14.9068 9.19822 14.9039 9.22707 14.9059Z" fill="#CD9D47"/>
<path d="M15.8785 15.497C15.8056 15.437 15.7328 15.4541 15.6599 15.5527C15.6568 15.5061 15.6482 15.4601 15.6342 15.4155C15.5913 15.3341 15.5699 15.3384 15.5613 15.4327C15.5571 15.5055 15.5442 15.5827 15.5185 15.6598C15.5185 15.6727 15.5099 15.6813 15.4928 15.677L15.3213 15.6641C15.3085 15.6641 15.3085 15.6555 15.3128 15.6427C15.4199 15.467 15.3899 15.2484 15.2271 14.9913L15.4842 15.0213C15.5999 15.0213 15.6899 15.0041 15.7585 14.9613C15.7807 14.9454 15.8077 14.9376 15.835 14.9392C15.8623 14.9407 15.8882 14.9515 15.9085 14.9698C16.1056 15.1241 16.1485 15.3127 16.0371 15.5441L16.0156 15.5527H16.0028C15.9771 15.5484 15.9728 15.5355 15.9813 15.5184C16.0028 15.4584 15.9899 15.407 15.9428 15.3555C15.9213 15.3341 15.9085 15.3384 15.8999 15.3684L15.8785 15.497Z" fill="#FDFCFA"/>
<path d="M10.1015 15.0944C10.1101 15.4801 9.94298 15.6773 9.59583 15.673C9.50124 15.6654 9.40855 15.6423 9.32155 15.6044C9.2793 15.5883 9.23641 15.574 9.19298 15.5615C9.16726 15.553 9.15869 15.5401 9.15869 15.5187C9.15869 15.3472 9.21869 15.1972 9.33441 15.0601C9.59143 15.0233 9.85309 15.0349 10.1058 15.0944H10.1015Z" fill="#CD9D47"/>
<path d="M13.4443 15.0512C13.5386 15.0426 13.6457 15.0812 13.7571 15.1669C13.7443 15.2398 13.74 15.3169 13.7357 15.3984C13.7357 15.4541 13.7228 15.5012 13.6928 15.5398C13.6071 15.6598 13.4143 15.7241 13.1271 15.7369C13.1057 15.7369 13.0928 15.7241 13.0843 15.7026C13.0659 15.6284 13.0587 15.5519 13.0628 15.4755C13.0757 15.3169 13.0457 15.3084 12.9771 15.4498C12.9343 15.5312 12.9257 15.6212 12.9471 15.7284C12.9471 15.7412 12.9471 15.7455 12.9343 15.7412L12.6471 15.7112L12.6386 15.7026C12.6144 15.5959 12.6043 15.4863 12.6086 15.3769C12.6086 15.2912 12.5871 15.2784 12.5357 15.3512C12.4928 15.4069 12.48 15.4798 12.4886 15.5569C12.4971 15.6298 12.4757 15.6426 12.4243 15.5826C12.3043 15.4455 12.33 15.2741 12.4971 15.0641C12.5143 15.0426 12.5357 15.0384 12.5571 15.0555C12.8357 15.2869 13.1314 15.2869 13.4443 15.0555V15.0512Z" fill="#FDFCFA"/>
<path d="M11.4429 15.0684C11.3744 15.2698 11.3829 15.4541 11.4644 15.6298C11.4729 15.6469 11.4644 15.6555 11.4472 15.6512C11.3486 15.6298 11.2715 15.5569 11.2115 15.4326C11.1644 15.3212 11.1429 15.2184 11.1515 15.1069L11.4429 15.0684Z" fill="#CD9D47"/>
<path d="M13.907 15.1672C14.0185 15.1072 14.1213 15.0901 14.207 15.1115C14.4813 15.3087 14.7513 15.3258 15.0213 15.1672C15.0427 15.1544 15.0513 15.133 15.0427 15.103C15.0385 15.0815 15.0427 15.073 15.0685 15.0772C15.0899 15.0815 15.1113 15.0944 15.1285 15.1115C15.2742 15.2572 15.2999 15.4115 15.2099 15.5701C15.1963 15.5926 15.175 15.6094 15.1499 15.6172C15.1285 15.6258 15.1199 15.6172 15.1199 15.5958C15.137 15.4887 15.1199 15.403 15.0685 15.3387C15.0213 15.283 14.9999 15.2915 15.0042 15.3644C15.0085 15.4758 15.0042 15.583 14.9827 15.6815C14.9785 15.703 14.9613 15.7158 14.9399 15.7201L14.6956 15.733C14.6699 15.733 14.6613 15.7244 14.6656 15.703C14.6893 15.6053 14.6739 15.5023 14.6227 15.4158C14.5799 15.343 14.5542 15.3472 14.5499 15.433L14.5327 15.6987C14.5327 15.7201 14.5156 15.733 14.4899 15.733C13.9756 15.7287 13.7785 15.5401 13.907 15.1672Z" fill="#FDFCFA"/>
<path d="M6.33436 15.3772C6.32579 15.3643 6.33436 15.3557 6.34293 15.3472L6.4415 15.2957C6.51436 15.2614 6.55722 15.2572 6.57008 15.2872L6.59579 15.33C6.61293 15.3643 6.58722 15.3986 6.51008 15.4372L6.41579 15.4886C6.40293 15.4972 6.39436 15.4886 6.38579 15.48L6.33436 15.3772Z" fill="#C48306"/>
<path d="M15.8786 15.4972L15.8657 15.6172C15.8657 15.6343 15.8486 15.6472 15.8314 15.6514L15.69 15.6814C15.6686 15.6814 15.6557 15.6729 15.6514 15.6514C15.6462 15.6184 15.6492 15.5845 15.66 15.5529C15.7329 15.4543 15.8057 15.4372 15.8743 15.4972H15.8786Z" fill="#ABAAA8"/>
<path d="M6.8443 15.5442L6.58716 15.7328C6.58716 15.6814 6.64287 15.6214 6.74573 15.5528C6.79716 15.5228 6.83144 15.5185 6.8443 15.5442Z" fill="#4F2E05"/>
<path d="M15.4115 15.5573C15.4182 15.5487 15.4266 15.5415 15.4362 15.5364C15.4458 15.5312 15.4564 15.5281 15.4672 15.5273C15.5101 15.5273 15.5144 15.5359 15.4844 15.5702C15.463 15.5831 15.4415 15.5916 15.4244 15.5873C15.403 15.5831 15.3987 15.5702 15.4115 15.5531V15.5573Z" fill="#696868"/>
<path d="M7.44425 16.7314C7.34567 16.7485 7.27282 16.7314 7.22996 16.6757C7.0071 16.4271 6.7971 16.1743 6.5871 15.9171C6.57461 15.9011 6.56715 15.8817 6.56567 15.8614V15.84L6.5871 15.8443L6.83996 16.17L7.08425 16.4571C7.14853 16.5557 7.19567 16.6114 7.22139 16.6371C7.34996 16.74 7.4871 16.7014 7.63282 16.5085C7.6671 16.4657 7.6671 16.4228 7.64567 16.3714L7.40139 16.0628L7.02425 15.6214C7.01866 15.6055 7.00992 15.5909 6.99853 15.5785C7.01567 15.5357 7.0371 15.5443 7.05853 15.6043L7.08425 15.6471L7.61996 16.2814C7.74853 16.4271 7.68853 16.5814 7.44425 16.7314ZM17.5071 15.7457C17.5671 15.84 17.5585 15.93 17.4814 16.0243C17.2827 16.2515 17.0855 16.4801 16.89 16.71V16.6971C16.9328 16.65 16.9714 16.5943 16.9928 16.53L17.2928 16.17C17.3914 16.1014 17.4514 16.0157 17.4857 15.9128C17.52 15.7971 17.4685 15.6985 17.3228 15.6257C17.22 15.57 17.1342 15.5828 17.0657 15.66L16.83 15.9428L16.6028 16.2428L16.4957 16.3714C16.4528 16.4143 16.4228 16.4571 16.4185 16.4914C16.41 16.5257 16.4314 16.56 16.47 16.6071L16.6414 16.7785C16.5755 16.7695 16.5143 16.7397 16.4665 16.6934C16.4187 16.6472 16.3869 16.5869 16.3757 16.5214C16.3733 16.512 16.3729 16.5022 16.3744 16.4927C16.3758 16.4831 16.3792 16.4739 16.3842 16.4657C16.4142 16.4057 16.4742 16.32 16.5685 16.2128L16.6714 16.0928C16.7871 15.9385 16.9071 15.7885 17.0314 15.6385C17.0957 15.5614 17.1771 15.5357 17.2757 15.5614C17.3614 15.5871 17.4428 15.6471 17.5071 15.7457Z" fill="#4F2E05"/>
<path d="M7.02859 15.6216L7.40144 16.0631C7.22234 16.1325 7.0321 16.1688 6.84002 16.1702L6.58716 15.8445C6.66859 15.7374 6.77144 15.6516 6.89573 15.5874C6.91287 15.5745 6.92573 15.5788 6.93859 15.5916C6.98144 15.6516 7.01573 15.6602 7.0243 15.6216H7.02859Z" fill="#B16D04"/>
<path d="M17.2971 16.1701C17.187 16.0155 17.1084 15.8408 17.0657 15.6559C17.1342 15.583 17.22 15.5701 17.3228 15.6259C17.4685 15.703 17.52 15.7973 17.4857 15.913C17.4514 16.0159 17.3914 16.1016 17.2971 16.1701Z" fill="#985E04"/>
<path d="M17.0658 15.6602C17.1087 15.8487 17.1858 16.0202 17.2972 16.1744L16.9972 16.5302L17.0315 16.3502C17.0358 16.3312 17.0327 16.3113 17.0229 16.2944L16.8301 15.943L17.0658 15.6602ZM7.40152 16.063L7.6458 16.3716C7.45431 16.3388 7.25736 16.3689 7.08437 16.4573L6.84009 16.1702C7.03295 16.1702 7.21723 16.1316 7.39723 16.063H7.40152Z" fill="#C48306"/>
<path d="M16.6028 16.2427C16.6885 16.3498 16.7614 16.4655 16.8257 16.5855C16.8599 16.6541 16.8471 16.7055 16.7914 16.7527C16.7142 16.7527 16.6114 16.6798 16.4871 16.5341C16.4802 16.5277 16.4756 16.5191 16.4741 16.5098C16.4725 16.5005 16.4741 16.491 16.4785 16.4827L16.5128 16.4012V16.3798C16.5111 16.3768 16.5086 16.3744 16.5055 16.3729C16.5025 16.3714 16.499 16.3708 16.4957 16.3712L16.6028 16.2427ZM7.64566 16.3712C7.66709 16.4184 7.66709 16.4655 7.6328 16.5084C7.48709 16.7012 7.35423 16.7398 7.22137 16.637C7.19566 16.6112 7.14851 16.5512 7.08423 16.457C7.25566 16.3712 7.43994 16.3412 7.64137 16.3712H7.64566Z" fill="#985E04"/>
<path d="M16.5001 16.3716C16.5001 16.3716 16.5086 16.3716 16.5129 16.3802V16.4016L16.4786 16.4873C16.4761 16.4946 16.4755 16.5024 16.4771 16.5099C16.4786 16.5174 16.4821 16.5244 16.4872 16.5302C16.6115 16.6802 16.7144 16.753 16.7915 16.753C16.8086 16.8002 16.7701 16.813 16.6801 16.783C16.6458 16.7616 16.6329 16.7573 16.6372 16.7787L16.4701 16.6073C16.4272 16.5644 16.4101 16.5216 16.4186 16.4916C16.4316 16.4447 16.4585 16.4028 16.4958 16.3716H16.5001Z" fill="#F8F774"/>
<path d="M7.8558 16.8001L7.75295 16.9287C7.7358 16.9501 7.71438 16.9501 7.69295 16.9287L7.62866 16.8773C7.60295 16.8558 7.60295 16.8344 7.62866 16.813L7.75723 16.7101C7.77009 16.693 7.78723 16.693 7.80866 16.7101L7.85152 16.7401C7.87723 16.7573 7.87723 16.783 7.8558 16.8044V16.8001Z" fill="#C48306"/>
<path d="M8.95715 17.9144C8.85858 17.9616 8.77715 17.9659 8.71715 17.9273C8.55429 17.8287 8.30572 17.6444 7.97144 17.3744C7.97144 17.3573 7.98429 17.353 8.00572 17.3573L8.04001 17.3787L8.51144 17.7216C8.69144 17.9059 8.84144 17.9444 8.96144 17.8287C9.06001 17.7344 9.08572 17.6316 9.03429 17.5159L8.73001 17.2801L8.43858 17.0659C8.40065 17.0147 8.3461 16.9783 8.28429 16.963C8.27516 16.9612 8.26688 16.9564 8.26069 16.9494C8.25451 16.9425 8.25076 16.9337 8.25001 16.9244L8.24144 16.8901C8.52001 17.0744 8.78572 17.2673 9.04286 17.4773C9.10715 17.5287 9.12858 17.593 9.11144 17.6787C9.09001 17.7601 9.03858 17.8373 8.95715 17.9101V17.9144Z" fill="#4F2E05"/>
<path d="M8.24153 16.8857L8.2501 16.9286C8.2501 16.9457 8.26296 16.9586 8.28439 16.9629C8.34867 16.98 8.4001 17.0143 8.43867 17.0615C8.30153 17.1772 8.15153 17.2629 7.98867 17.3186C7.9801 17.3186 7.98867 17.3357 8.00581 17.3615C7.98439 17.3529 7.97153 17.3615 7.97153 17.3743C7.87724 17.3272 7.86439 17.2972 7.93296 17.2843C7.93296 17.1429 7.99296 17.0272 8.10439 16.92C8.11065 16.9142 8.11868 16.9106 8.12722 16.9098C8.13576 16.909 8.14431 16.9111 8.15153 16.9157C8.20724 16.9415 8.23724 16.9329 8.24153 16.89V16.8857Z" fill="#985E04"/>
<path d="M16.2257 17.1986C16.2514 17.3014 16.2129 17.3957 16.11 17.4729L15.5057 17.9357C15.5057 17.9614 15.5014 17.9571 15.4886 17.9186L15.6557 17.7729L15.9386 17.5586C16.0329 17.5071 16.1014 17.4514 16.1443 17.3871C16.2 17.3143 16.2086 17.2414 16.1786 17.1729C16.1014 17.0014 15.9986 16.9414 15.8657 16.98L15.5657 17.2114C15.5346 17.2239 15.5057 17.2413 15.48 17.2629C15.4374 17.3096 15.3798 17.34 15.3171 17.3486L15.8271 16.9629C15.9043 16.9029 15.9814 16.9071 16.0671 16.9714C16.14 17.0271 16.1957 17.1 16.2257 17.1986Z" fill="#4F2E05"/>
<path d="M15.9386 17.5545L15.8657 16.9802C15.9943 16.9373 16.1014 17.0016 16.1786 17.1687C16.2086 17.2416 16.2 17.3145 16.1443 17.3916C16.1014 17.4516 16.0329 17.5073 15.9386 17.5545Z" fill="#985E04"/>
<path d="M15.8658 16.98L15.9387 17.5543L15.6558 17.7686C15.6883 17.5775 15.655 17.3811 15.5615 17.2114L15.8658 16.98Z" fill="#C48306"/>
<path d="M8.43851 17.0615L8.72994 17.2801C8.63614 17.3402 8.53883 17.3945 8.43851 17.443C8.30994 17.5072 8.19851 17.4858 8.11709 17.3701C8.11202 17.3626 8.10475 17.357 8.09628 17.3539C8.08782 17.3508 8.07861 17.3505 8.06994 17.353C8.05709 17.353 8.04423 17.3615 8.03994 17.3787L8.00566 17.3572C7.98423 17.3358 7.97994 17.3187 7.98851 17.3144C8.15137 17.263 8.30137 17.1772 8.43851 17.0615Z" fill="#B16D04"/>
<path d="M8.73004 17.2798L9.03432 17.5155C8.85432 17.5369 8.67861 17.6098 8.51147 17.7255L8.04004 17.3784C8.04432 17.3612 8.05718 17.3526 8.07004 17.3526C8.07807 17.3511 8.08638 17.3519 8.09397 17.355C8.10157 17.358 8.10813 17.3631 8.1129 17.3698C8.19861 17.4855 8.30575 17.5069 8.43861 17.4426C8.53718 17.3998 8.63147 17.3441 8.73004 17.2798Z" fill="#C48306"/>
<path d="M15.4886 17.9185C15.5015 17.957 15.5058 17.9613 15.5058 17.9356C15.45 18.0127 15.3943 18.0513 15.3429 18.0385C15.2229 17.9527 15.1329 17.8542 15.0772 17.7385C15.0719 17.7247 15.0719 17.7094 15.0772 17.6956L15.12 17.567L15.1458 17.5199C15.1715 17.477 15.2058 17.4599 15.2529 17.4685C15.3 17.477 15.33 17.5027 15.3386 17.5542C15.3515 17.6485 15.3815 17.7385 15.42 17.8113C15.4372 17.8499 15.4329 17.8799 15.4115 17.9142C15.3815 17.9485 15.39 17.9656 15.4372 17.957C15.4458 17.9527 15.4672 17.9399 15.4886 17.9185ZM9.03433 17.5156C9.08576 17.6313 9.06005 17.7342 8.96147 17.8285C8.84147 17.9442 8.69147 17.9056 8.51147 17.7256C8.6829 17.6099 8.85433 17.537 9.03433 17.5156Z" fill="#985E04"/>
<path d="M15.1201 17.5713L15.0773 17.6913C15.0734 17.6993 15.0715 17.7081 15.0715 17.717C15.0715 17.7259 15.0734 17.7347 15.0773 17.7427C15.133 17.8541 15.223 17.9527 15.343 18.0427C15.2015 18.0341 15.0944 17.9399 15.0215 17.7599C14.9915 17.6913 15.0258 17.6313 15.1201 17.5713Z" fill="#F8F774"/>
<path d="M9.14997 18.03C9.12854 18.0128 9.12426 17.9957 9.13711 17.9743L9.1414 17.97C9.21426 17.85 9.26997 17.8071 9.31283 17.8285L9.33854 17.8457C9.3814 17.8714 9.36426 17.9443 9.29569 18.06L9.28712 18.0685C9.27426 18.09 9.25711 18.0943 9.23569 18.0814L9.14997 18.03Z" fill="#C48306"/>
<path d="M9.61707 18.2355V18.3084C9.61279 18.3341 9.59993 18.3384 9.5785 18.3255C9.56136 18.317 9.5485 18.2955 9.53564 18.2613L9.6085 17.9184C9.65136 17.8713 9.71136 17.8584 9.77993 17.8841C9.80564 17.897 9.80564 17.9013 9.77993 17.9098L9.6985 17.927C9.68944 17.9283 9.68096 17.9323 9.67411 17.9384C9.66726 17.9445 9.66233 17.9524 9.65993 17.9613C9.62993 18.047 9.61707 18.1413 9.61707 18.2355Z" fill="#F8F774"/>
<path d="M9.60866 17.9229L9.54009 18.2657C9.5058 18.2743 9.48438 18.2357 9.48438 18.15C9.49723 18.0386 9.54009 17.9657 9.61295 17.9229H9.60866Z" fill="#4F2E05"/>
<path d="M10.3714 18.0559C10.2629 18.2055 10.1329 18.3384 9.98573 18.4502L9.72002 18.373C9.69431 18.3688 9.69002 18.3516 9.69859 18.3302C9.70716 18.3216 9.71574 18.3173 9.72859 18.3173L9.74573 18.3088L10.0029 18.0516C10.02 18.0345 10.02 18.0173 10.0029 18.0088L9.93431 17.9573C9.90431 17.9359 9.90431 17.9273 9.94288 17.9359C10.1014 17.9616 10.2429 18.0002 10.3714 18.0559Z" fill="#B16D04"/>
<path d="M14.1942 18.4543C13.9984 18.5444 13.7905 18.6051 13.577 18.6343C13.5727 18.6258 13.577 18.6172 13.5856 18.6129L13.8342 18.5443C13.844 18.542 13.853 18.5373 13.8605 18.5305C13.868 18.5238 13.8737 18.5153 13.877 18.5058C13.9327 18.3558 13.9627 18.1972 13.9713 18.0343C14.0699 17.9915 14.1727 17.9572 14.2799 17.9443C14.297 17.9443 14.3013 17.9486 14.297 17.9658L14.1942 18.4543ZM10.3713 18.0558L10.7099 18.1458C10.7185 18.1543 10.7313 18.1672 10.7399 18.1886L10.6799 18.2058C10.6609 18.2122 10.6434 18.2224 10.6285 18.2358C10.5213 18.3172 10.427 18.4072 10.337 18.5143C10.3323 18.521 10.3257 18.5261 10.3181 18.5292C10.3105 18.5322 10.3022 18.533 10.2942 18.5315L9.9856 18.4501C10.1399 18.3301 10.2685 18.1972 10.3713 18.0558Z" fill="#C48306"/>
<path d="M10.8171 18.5231C10.799 18.5605 10.7688 18.5907 10.7314 18.6088C10.7828 18.5016 10.8128 18.4159 10.8171 18.3474C10.8198 18.3164 10.8141 18.2853 10.8005 18.2574C10.7869 18.2295 10.766 18.2058 10.74 18.1888C10.7314 18.1674 10.7185 18.1545 10.71 18.1459C10.7485 18.1331 10.7828 18.1459 10.8128 18.1845C10.8985 18.2874 10.8985 18.3988 10.8171 18.5274V18.5231Z" fill="#4F2E05"/>
<path d="M13.3844 18.2188C13.2858 18.2959 13.2858 18.4245 13.3801 18.6045C13.3887 18.6173 13.4015 18.6345 13.4229 18.6473L13.4658 18.6773C13.4915 18.6945 13.4872 18.703 13.4658 18.7159C13.4358 18.7245 13.4144 18.7202 13.3972 18.7073C13.3672 18.6902 13.3415 18.6473 13.3201 18.583L13.2344 18.3302C13.2306 18.3217 13.2294 18.3123 13.2309 18.3032C13.2324 18.294 13.2366 18.2855 13.2429 18.2788C13.2772 18.2402 13.3201 18.223 13.3844 18.2188ZM11.4644 18.7588C11.4416 18.746 11.422 18.7281 11.4071 18.7066C11.3922 18.685 11.3825 18.6603 11.3787 18.6345L11.4001 18.343C11.4044 18.3088 11.4215 18.283 11.4515 18.2659C11.4681 18.2552 11.4875 18.2495 11.5072 18.2495C11.527 18.2495 11.5463 18.2552 11.5629 18.2659C11.5887 18.283 11.5887 18.2916 11.5629 18.3002L11.4987 18.3088C11.4729 18.3173 11.4558 18.3302 11.4558 18.3602L11.4472 18.4459C11.4301 18.5745 11.4429 18.673 11.4815 18.733V18.7545L11.4644 18.7588Z" fill="#F8F774"/>
<path d="M12.1372 18.2745C12.0857 18.4459 12 18.6045 11.8715 18.7459C11.7928 18.7806 11.7038 18.7837 11.6229 18.7545C11.5843 18.7416 11.5757 18.7202 11.5929 18.6859L11.7515 18.3773C11.76 18.3602 11.7557 18.343 11.7429 18.3302C11.7361 18.3221 11.7272 18.3162 11.7172 18.313C11.7095 18.3107 11.7026 18.3063 11.6972 18.3002C11.6919 18.2941 11.6884 18.2867 11.6872 18.2787V18.2745L11.7043 18.2659C11.8415 18.2573 11.9872 18.2573 12.1372 18.2745Z" fill="#B16D04"/>
<path d="M11.8713 18.7501C11.9999 18.6044 12.0856 18.4501 12.1371 18.2786C12.2442 18.2529 12.3556 18.2529 12.4799 18.2744C12.5013 18.2744 12.5056 18.2872 12.4928 18.3044C12.4071 18.4115 12.3256 18.5315 12.2613 18.6686C12.2542 18.6802 12.2512 18.6938 12.2528 18.7072C12.2571 18.7329 12.2485 18.7501 12.2228 18.7501C12.1413 18.7629 12.0256 18.7629 11.8713 18.7501Z" fill="#C48306"/>
</g>
<defs>
<clipPath id="clip0_31_18613">
<rect width="24" height="24" fill="white"/>
</clipPath>
</defs>
</svg>
