<svg xmlns="http://www.w3.org/2000/svg" width="24" height="24" fill="none" viewBox="0 0 24 24"><g clip-path="url(#a)"><path fill="#008CFF" d="M0 0h24v24H0z"/><path fill="#fff" d="M9.377 13.389a1.79 1.79 0 0 0 .579-1.912 1.8 1.8 0 0 0-.326-.617l-.064-.077c-.776-.827-1.599-1.616-2.4-2.422L6.84 8.01q-.675.588-1.286 1.243a1.8 1.8 0 0 0 .227 2.52l.78-.772c-.42-.57-.355-.977.236-1.388l1.972 1.963a.6.6 0 0 1 .06.124.776.776 0 0 1-.215.909zm7.826.99c-.643-.643-1.299-1.282-1.929-1.938a.61.61 0 0 1-.158-.428c.043-.232.115-.45.205-.66l-.75-.746-.072.069a1.864 1.864 0 0 0 .004 2.635l.077.073 2.486 2.482a1 1 0 0 0 .128.107c.403-.399.815-.772 1.187-1.174.155-.185.275-.395.348-.622a1.76 1.76 0 0 0-.545-1.95l-.763.767c.429.6.386.892-.223 1.385zM12.17 5.833c.146.137.288.257.416.386.129.128.249.265.369.394.574-.502.955-.442 1.435.18l-.158.171-1.565 1.565c-.475.471-.77.488-1.25.09l-.807.775a1.856 1.856 0 0 0 2.627.155l.065-.06c.87-.858 1.731-1.732 2.597-2.598l.103-.12-1.08-1.071a1.856 1.856 0 0 0-2.752.129zm1.2 8.76a1.827 1.827 0 0 0-2.575-.189l-.022.017c-.557.515-1.084 1.072-1.628 1.608L8.01 17.16c.407.424.784.849 1.2 1.234a1.74 1.74 0 0 0 1.508.399 1.73 1.73 0 0 0 1.085-.617l-.699-.686-.085-.081c-.6.428-1.012.355-1.398-.24.626-.63 1.247-1.265 1.882-1.886a.66.66 0 0 1 .668-.167q.233.096.433.244l.772-.771zm1.029 2.576c-.506.672-1.003.694-1.526.124-.433-.472-.9-.913-1.354-1.363l-.137-.116-.724.716c.608.643 1.191 1.329 1.851 1.933a1.69 1.69 0 0 0 2.079.068q.734-.608 1.401-1.29l-1.41-1.397-.771.78.595.545zm-1.029-9.763c-.6-.605-1.178-1.235-1.808-1.813a1.76 1.76 0 0 0-2.242-.086c-.475.373-.891.836-1.302 1.226l1.405 1.401.772-.771c-.09-.086-.193-.189-.305-.279-.111-.094-.227-.171-.377-.283.146-.12.219-.171.283-.235a.75.75 0 0 1 1.174.008l.545.545 1.067 1.071zm3.159 5.978c.656-.634 1.316-1.2 1.89-1.843a1.766 1.766 0 0 0-.009-2.34c-.377-.42-.805-.797-1.183-1.165l-1.362 1.371.771.806.591-.643c.073.081.13.159.198.227a.73.73 0 0 1 .265.772.74.74 0 0 1-.265.402l-.523.528-1.11 1.105.086.112c.227.227.445.458.651.673zM6.789 14.43c-.086-.099-.133-.163-.189-.214a.75.75 0 0 1-.231-.96.7.7 0 0 1 .227-.27l1.174-1.17c.141-.142.3-.279.411-.386l-.818-.814-1.654 1.663a1.78 1.78 0 0 0-.249 2.305q.598.734 1.281 1.389l1.385-1.384-.78-.776zm3.334.197L7.774 12.28l-.737.711 2.366 2.361zm2.837 2.336 2.387-2.387-.72-.729-2.391 2.387zM11.031 7.04l-2.4 2.4.708.712 2.404-2.4-.707-.712zm2.825 2.332 2.357 2.348.72-.724-2.357-2.353z"/></g><defs><clipPath id="a"><path fill="#fff" d="M0 0h24v24H0z"/></clipPath></defs></svg>