<svg xmlns="http://www.w3.org/2000/svg" width="24" height="24" fill="none" viewBox="0 0 24 24"><g clip-path="url(#a)"><path fill="#52DFFF" d="M0 0h24v24H0z"/><path fill="#83D3E3" d="M6.643 8.13V5.957L6.45 7.303 6 8.494c-.163.42-.484 1.35-.489 1.727-.008.472.326 1.029.455 1.273.128.245.643.746.711 1.157.069.408-.326.639-.45.772-.129.128-.621.27-1.089.523-.47.252-.44.565-.308.977.103.33.63.99.883 1.281l.776.043c-.056-.004-.228-.103-.45-.403-.288-.377-.386-.531-.326-1.093.043-.45.745-1.045 1.093-1.285.214-.172.664-.527.771-.6.137-.086.137-.287.107-.399-.026-.086-.317-.313-.463-.416l-.69-.634a5 5 0 0 1-.342-.574.7.7 0 0 1-.06-.459l.132-.334c.048-.146.172-.544.262-.986.094-.446.12-.81.12-.934"/><path fill="#235863" d="M6.656 6.257c-.013.133 0-.214-.077.527a7.6 7.6 0 0 1-.545 1.745c-.12.317-.235.63-.325.917-.083.249-.13.509-.142.771 0 .429.184.832.412 1.2.111.18.231.347.342.506h.005c.111.158.214.3.287.428.154.27.107.532-.03.746a1.43 1.43 0 0 1-.57.484 3 3 0 0 1-.292.125l-.077.03a3 3 0 0 0-.403.184c-.257.146-.45.334-.445.626 0 .12.043.257.111.411.069.15.159.309.266.467q.28.415.621.78l-.051.052a6 6 0 0 1-.63-.793 3.4 3.4 0 0 1-.27-.48 1.2 1.2 0 0 1-.116-.437c-.004-.33.214-.54.48-.686a3.4 3.4 0 0 1 .489-.219l.287-.12c.197-.098.411-.261.54-.463.128-.197.171-.428.03-.668-.073-.129-.172-.266-.287-.429a8 8 0 0 1-.347-.514 2.4 2.4 0 0 1-.42-1.234c0-.223.06-.493.145-.784.086-.296.206-.609.326-.926l.051-.129A7.5 7.5 0 0 0 6.51 6.78l.146-1.32v.801zM6.399 9.58c.111-.39.218-1.269.257-1.659v.514c-.039.386-.077.767-.193 1.166-.056.193-.124.343-.18.471l-.043.116c-.064.154-.103.279-.086.416.017.141.086.313.193.484.099.172.232.343.369.48q.264.252.557.472.185.147.36.308l.06.077a.35.35 0 0 1 .03.296c-.043.111-.137.227-.317.351l-.026.018c-.189.132-.591.411-.956.758a3 3 0 0 0-.493.583c-.128.206-.214.411-.21.609.005.321.15.591.33.797.185.205.403.347.545.415l-.026.06a1.8 1.8 0 0 1-.57-.428 1.3 1.3 0 0 1-.343-.844c-.004-.215.082-.438.214-.643.129-.215.313-.416.506-.6.364-.348.772-.63.964-.763l.026-.017c.172-.125.257-.227.292-.322a.28.28 0 0 0-.073-.3 7 7 0 0 0-.42-.355 6 6 0 0 1-.497-.42 2.5 2.5 0 0 1-.386-.493 1.5 1.5 0 0 1-.197-.515c-.022-.154.021-.295.085-.45l.052-.115c.051-.129.116-.279.171-.467z"/><path fill="url(#b)" d="M12.506 7.997a8.6 8.6 0 0 0-2.169 1.397l1.569.09c.454-.086 1.423-.257 1.68-.257.317 0 .951.064 1.2.42.197.279.214 1.046.193 1.393L18.429 9V5.263c-1.53.711-4.852 2.254-5.915 2.734z"/><path fill="url(#c)" d="M11.044 9.437a14 14 0 0 0-1.585-.184c-.322-.026-.853.21-1.076.33l-.583.505-.086.652.146 1.234.836 1.042.437.6c.253.205.857.655 1.269.771.514.146.878-.021 1.864-.33a2.66 2.66 0 0 0 1.547-1.423c.086-.197.703-.771.999-1.028.064-.206.17-.772.09-1.415-.078-.634-.635-.891-.9-.942l-1.016.128c-.39.064-1.329.172-1.942.06"/><path fill="#150E73" fill-rule="evenodd" d="m10.68 9.343-.334-.24.043-.056.36.266v.107l.398.15.184-.111.039.056-.197.12v.085l.407.185.467-.288-.377-.141.021-.064.429.163.3-.185.043.06-.326.193v.077l.412.185v.03l.432-.262-.39-.176v-.162h.069v.115l.394.18.502-.3v-.025h.038l.107-.065.035.06-.112.065v.055l.339.155.416-.258.038.056-.386.236v.128l.386.172.257-.15.035.06-.24.146v.077l.462.193v.128h-.068v-.056l-.506.309v.077l.313.172.154-.095.035.06-.12.077.042.026v.094h-.068v-.051l-.043-.026-.407.257v.069l.45.227v.137h-.069v-.034a9 9 0 0 1-.343.214c-.008 0-.008.005-.012.009l.042.043c.035.043.073.085.095.12l.017.025-.536.455-.3-.296-.334.399.351.257-.668.394h.445l-.3.441-.527-.09-.214.472-.416-.27-.394.523-.651-.33-.36.334-.515-.394-.193.197-.047-.047.343-.356.249-.159.013-.115-.313-.202-.33.202-.399.325-.043-.051.399-.334.308-.185-.051-.034.004-.077-.257-.184-.274.163-.034-.06.244-.15-.082-.056.009-.09-.236-.18-.63.386-.008.004-.022-.065.009-.008a4 4 0 0 0 .163-.099c.107-.06.253-.15.428-.261l-.073-.056.013-.103-.24-.128q-.282.176-.561.355v-.004l.008-.017h-.068v-.017l.008-.009.013-.012.035-.022.115-.073.382-.24-.137-.073.008-.115-.223-.129-.527.322-.034-.06.493-.3-.12-.07.013-.136-.198-.116-.3.184-.042-.06.274-.167-.129-.073.017-.141-.227-.111-.047.025-.034-.06H7.7l-.085-.043.03-.064.128.06.3-.171v-.009L7.74 10.6l.043-.056.36.266.484-.279-.373-.141v-.124l-.025-.018-.502.279-.034-.064.471-.258-.244-.184.043-.055.27.2.446-.248-.326-.24.043-.055.351.257.48-.266-.313-.231.043-.056.339.253.651-.364.034.06-.094.055.309.223v.064l.428-.252.035.06-.429.252.386.142v.077l.458-.279-.394-.15v-.124m-.557.313v-.069l-.3-.222-.506.278v.06l.424.159v.021l.386-.227zm-.386.304.416-.24.394.15v.069l-.403.248-.403-.184V9.96zm-.068-.038v-.013l-.42-.159v-.068l-.493.274v.043l.424.154v.056zm-.489.364.489-.283v.043l.402.184-.484.3v-.051l-.407-.184zm-.073-.039v-.043l-.42-.162v-.047l-.394.214.03.021v.112l.381.141zm-.36.292.36-.214v.012l.412.189v.043l-.395.244-.377-.171zm-.068.043-.536.304v.026l.424.158v.077l.484-.3-.372-.167v-.103zm-.605.347-.227.133.227.115-.013.142.12.073.313-.197v-.073l-.42-.155zm2.559-.96.471-.292v.086l.403.184-.48.296v-.094zm.433.33.445-.27v.056l.429.192v.022l-.471.287h-.009v-.116zm.484.321.394-.24v.009l.425.171-.446.274v-.06zm.463-.278.428.171.42-.257-.385-.171v-.026zm-.06.557.454-.279v.06l.386.232-.476.291v-.086l-.364-.214zm.527-.257.381.227.489-.3-.441-.18v-.086c-.142.094-.283.18-.429.27zm-.094.6.411-.253v.013l.412.231-.468.283v-.073zm.484-.279.407.227.472-.287-.373-.223v-.043l-.506.309zm-.056.592.412-.25v.014l.398.201-.428.27v-.043zm.48-.28.399.202.433-.27-.36-.205v-.026l-.472.287zm.386.387v-.09l-.476.3.215.085-.03.069-.258-.111-.351.218v.103l.424.21v.111l.382-.454.004-.004q.296-.157.6-.3l.017-.005.013-.008q.21-.108.399-.249l-.429-.214v-.073l-.441.279v.094l.218.094-.026.065-.265-.112zm-.557.128v.043l-.412.257-.398-.188v-.043l.433-.262.377.189zm-.879.155.395.188-.438.274-.437-.21.48-.295zm-.553.3.442.205-.429.27-.385-.18v-.073l.372-.227zm.459.278-.377.236h.013v.111l.424.206.36-.227v-.073l-.42-.21zm-.9.06.381.18-.488.309v-.073l-.382-.189.489-.3zm.454.214-.531.335.433.205v.107l.008.005.523-.326-.42-.214v-.103l-.013-.004zm-.634.245v.072l-.621.386.012-.107-.321-.206.553-.334zm.034.133-.6.372.369.227-.039.06-.394-.244-.27.172-.099.098.463.352.343-.317h.009l.013-.01.055-.03q.302-.171.592-.363h-.009v-.112l-.428-.206zm.073.63.442-.275.36.176.03-.06-.322-.159.09-.055.364-.228v.03l.249.176.043-.056-.223-.158v-.034l.394-.253.219.158.043-.06-.197-.137.462-.3v.009h.052l-.009.008.326.24-.806.467h.575l-.198.296-.54-.09-.201.446-.403-.257-.398.527-.558-.287.018-.013zm1.466-1.072v.069l.488-.309v.004-.012l-.42-.215v-.098l-.492.308v.043zm-2.023.082-.544.334-.043-.03.004-.077-.27-.193.502-.305.351.198zm-.42-.313-.493.304-.073-.051.009-.09-.244-.185.45-.274.342.206v.085zm-.399-.352-.462.287-.065-.047.013-.116-.244-.128.377-.227.386.154v.077zm-.462-.266-.365.223-.133-.068.009-.116-.227-.129.317-.197.399.172zm-.433-.347-.352.215-.115-.065.012-.137-.201-.12.261-.163.395.18v.09m.068-.137-.39-.175.502-.31v.087l.403.18-.515.313zm.18-.441v-.086l.365-.223v.009l.428.193v.047l-.386.24zm.433-.343v-.009l.493-.3v.06l.429.189-.489.3v-.051l-.429-.19zm.562-.296v-.056l.411-.257.399.185v.09l-.378.231-.428-.193zm.428.274.416-.252.398.171v.116h.005l-.352.214v-.03l-.463-.189v-.03zm.472.33.428-.257.377.15v.065l-.428.265zm.385.3.455-.282.355.214v.086h.005l-.386.24-.429-.24v-.022zm.433.335.45-.274.356.2v.074l-.364.223zm-.068.043.441.223-.484.3v-.043l-.403-.206zm-.116.518v.043l-.394.244-.42-.214v-.017l.415-.257zm-.883.12.42.21-.531.322v-.073l-.352-.197.463-.283zm-.021-.09-.51.313-.005-.004v-.086l-.351-.21.458-.283v.043zm-.438-.334-.471.291v-.081l-.377-.154.488-.3v.03zm-.364-.322-.566.343h-.004v-.111l-.394-.171.506-.31v.06zm-.386-.23v-.06l.378-.237.445.185v.077l-.043.03-.321.193-.463-.189zm.892-.16-.442-.18.472-.287v.03l.463.193v.026l-.493.3zm.043.138.454-.275.377.223c-.163.099-.326.197-.48.3v-.043zm.377.308.463-.287v.021l.428.24-.493.3v-.047zm.33.266v.056l-.386.235-.403-.227v-.043l.39-.244zm-.429-.287-.394.244-.356-.214v-.03l.352-.214.055-.035.343.206zm3.797-.617-.407.252-.36-.2v-.03l.45-.275v.073zm-.372-.3-.412.252-.373-.222v-.047l.45-.28v.095zm-.408-.335-.394.245-.446-.18v-.078L13.41 10l.021.008v.112zm-.488-.312-.399.244-.385-.172v-.021l.45-.27v.069zm-.266-.193v-.069l.489-.296v.06l.334.15-.484.3zm.416.18.48-.3v.133l.386.17-.45.28-.399-.163V9.96zm.484.321.429-.266v.086l.411.163-.514.313-.326-.197zm-1.954-.013.467-.283v-.025l-.411-.189v-.077l-.489.3v.056l.433.188zm2.194 1.599-.017.004-.056.026-.163.077-.308.167.248.244.438-.373a1 1 0 0 0-.116-.132z" clip-rule="evenodd" opacity=".7"/><path fill="#0032A7" d="M5.769 16.294c.57-.03.84.137.9.223.188.086.167.287.128.381q-.032.233-.047.468c.004.038.064.068.249.102.15.026.377-.163.471-.257.343.03.579.497.656.729l-.112.3c-.312.243-.67.42-1.054.518-.428.056-.878.073-1.234-.158a2.4 2.4 0 0 1-.643-.815 3 3 0 0 0-.137-.35 1.5 1.5 0 0 1-.116-.42c.077-.228.369-.687.943-.72z"/><path fill="#002786" d="M6.514 18.493a3.3 3.3 0 0 1-1.255-.227c1.157 1.084 2.948.15 2.957-.227.013-.305-.283-.596-.429-.703.03.283-.21.501-.3.596-.098.094-.201.561-.973.561"/><path fill="#000" d="M9.531 11.571c-.193.193-.698.112-1.037-.227-.338-.338-.386-.806-.188-.998.192-.193.698-.142 1.037.197s.385.835.188 1.028"/><path fill="#2F028A" d="m9.411 11.186-.934-.6c.034-.086.171-.232.459-.086.287.15.437.514.471.686z"/><path fill="#AB0D00" d="m9.416 11.4-.84-.463c-.009.051.025.201.252.399a.52.52 0 0 0 .588.064"/><path fill="#D39338" d="M8.944 11.379a.111.111 0 1 0 0-.223.111.111 0 0 0 0 .223"/><path fill="#000" d="M12.96 11.357c.193.197.698.116 1.037-.223.343-.343.386-.806.193-.998-.193-.193-.699-.146-1.037.192-.343.343-.386.84-.193 1.029"/><path fill="#2F028A" d="m13.084 10.971.934-.6c-.034-.085-.17-.227-.462-.081-.287.146-.433.514-.472.681"/><path fill="#AB0D00" d="m13.076 11.186.84-.459c.012.051-.022.201-.249.394a.51.51 0 0 1-.591.065"/><path fill="#D39338" d="M13.551 11.169a.111.111 0 1 1 0-.223.111.111 0 0 1 0 .223"/><path fill="#1C1C1C" d="m9.519 13.239-.133-.326c-.283.261-.922.836-1.222 1.02-.368.236-.54.926-.471 1.779a3.2 3.2 0 0 1-.21 1.478l.763.75.081-.068.172-1.136c-.086-.3-.266-.977-.258-1.251A4.1 4.1 0 0 1 8.5 14.31c.111-.287.728-.831 1.02-1.071"/><path fill="url(#d)" fill-rule="evenodd" d="M18.429 5.61h-.01l-.492-.043.017-.026-.051-.042-.052.06-.24-.022-.008.073.197.017-.279.356q-.231-.015-.437-.017l.112-.142-.052-.043-.15.18h-.257v.069h.201l-.342.429-.502-.005.279-.355-.056-.043-.308.398h-.313v.073h.257l-.262.339a18 18 0 0 0-.531-.009l.159-.206-.052-.042-.197.248c-.176 0-.322.013-.42.03l.013.069a3 3 0 0 1 .351-.026l-.334.42-.48-.017.184-.244-.056-.043-.214.283-.24-.009v.069l.189.008-.283.373-.467-.017.103-.137-.056-.043-.129.18h-.257v.073l.202-.005-.33.446-.54-.008.128-.172-.051-.043-.163.215h-.3v.068h.248l-.235.309h-.583v.073h.531l-.3.385-.501-.017.248-.386-.06-.034-.27.42-.308-.008v.068l.266.009-.146.218.06.043.167-.257.497.009-.214.278.06.043.24-.317.544.013-.231.308.056.043.257-.347.467.013-.129.171.056.043.159-.214.41.013.052.043.035-.043.158.004v-.069h-.103l.283-.36.536.043-.257.33.056.043.282-.368.386.034-.309.386.052.042.343-.42.501.043-.343.442q-.15-.005-.3-.005v.069h.245l-.086.111.056.043.115-.145.536.038-.343.429-.18-.022-.013.069.142.017q-.046.054-.095.107l.043.056q.069-.075.133-.15c.163.026.352.051.54.085l-.655.892.055.043.677-.926.613.103-.034.039.034.064q.04-.041.077-.086l.18.03.013-.069-.145-.025q.168-.225.33-.454c.184.038.342.068.458.098l.017-.068-.428-.09.33-.472.51.069-.026.038q-.055.092-.107.185l.068.017.005-.009.021-.034q.056-.096.116-.189l.347.052.013-.069-.322-.043.27-.415.348.055v-.068l-.31-.052.28-.428.03.004v-.171l-.065.098-.471-.051.325-.472q.108.02.215.043V7.62a3 3 0 0 0-.172-.026l.172-.244v-.12c-.082.107-.163.227-.249.351a11 11 0 0 0-.566-.06l.34-.458.47.038V7.03l-.424-.03.283-.386.142.021v-.073l-.095-.012.095-.129v-.099l-.01-.004-.162.223a6 6 0 0 0-.433-.043l.3-.39q.169.02.305.052V6.09a3 3 0 0 0-.258-.047l.258-.334zm-2.94 3.793a7 7 0 0 0-.536-.043l.343-.433.523.052zm.38-.489-.522-.051.304-.394.532.042zm.365-.467q-.265-.023-.531-.043l.308-.394.523.047-.227.3zm-.613-.051L15.93 8l-.429-.034-.051-.004-.326.403zm.965-.403-.523-.047.343-.442q.265.015.531.035zm-.605-.056.343-.437-.476-.026-.342.42.471.043zm.6-.493-.12-.004.352-.454.523.034-.348.45-.402-.026zm-.205-.013.355-.45-.463-.025-.364.45zm1.011-.48-.518-.034.295-.377q.262.007.523.021zm-.604-.038.295-.377-.462-.009-.292.36.056.004zm.48-.442h-.043l.326-.415q.248.016.497.043l-.3.394zm-.129 0 .326-.424-.442-.013-.342.425.454.008zm.523-.48-.06-.004.279-.356.492.043-.274.36a8 8 0 0 0-.437-.043m-1.628.532h.497l-.292.364-.471-.021.27-.343zm-.318.411.472.017-.369.45-.446-.021zm-.394.515.446.021-.343.42-.42-.034zm-.369.471.42.034-.33.403-.41-.021zm-.372.48.411.026-.3.373-.394-.035zm.685.454-.492-.047.3-.377.5.034-.303.386zm-.771-.458-.279.36-.535-.043.274-.343zm-.626-.026-.27.343-.42-.03.249-.33zm-.527-.021-.248.33-.46-.022.24-.321zm-.3.398-.459-.026-.29.39.466.013zm-.257-.411-.236.317-.536-.017.236-.309.54.009zm-.287.385-.536-.017-.3.39.549.013zm.63.03-.283.373.416.013.283-.36zm.266-.471c-.163 0-.322-.009-.472-.013l.339-.446c.133 0 .291.009.467.018zm.085.004.33-.441.454.026-.342.428c-.15 0-.3-.008-.442-.013m.527.022.343-.429.523.034-.326.42zm.395-.497.522.042.313-.407-.527-.025zm1.23-.879-.343.446-.527-.022.338-.428q.266-.005.532.004m-1.316.874.308-.385-.48-.022-.282.377zm3.163-.848.3-.386q.218.012.437.034l-.287.386zm-.052.068.455.03-.339.459-.467-.034zm-.402.519.47.038-.342.468-.48-.043zm-.403.523.48.047-.288.39-.492-.047.043-.06zm.557.055-.283.39c.201.022.403.043.6.073l.279-.403-.592-.06zm-.909.399.497.047-.3.416-.514-.06zm.579.056-.305.415.613.073.013-.017.279-.398zm-.943.411.51.06-.317.429-.523-.065zm.591.069-.321.433.608.102.326-.462zm-.973.42c.18.017.356.043.528.064l-.335.454-.54-.085.258-.322zm.605.077-.335.454.613.103q.171-.224.33-.454a11 11 0 0 0-.608-.103m1.615-.412-.51-.064.292-.42.484.069zm.31-.48-.48-.068.278-.403.471.051zm-.824-.604.592.06.325-.471q-.285-.038-.57-.06l-.343.471z" clip-rule="evenodd" opacity=".7"/><path fill="#000" fill-rule="evenodd" d="M14.233 6.986a89 89 0 0 1 4.196-1.843v.3a88 88 0 0 0-4.072 1.8 31 31 0 0 0-3.771 2.027l.077.022.034.008c.283.069.536.129.857.129.33 0 .75-.069 1.175-.142h.021c.412-.073.832-.141 1.162-.141.355 0 .655.137.865.411.256.38.366.84.309 1.295q.431-.263.865-.519l.845-.501c.651-.395 1.285-.763 1.633-.926v.308c-.348.176-.9.498-1.487.858l-.84.497c-.403.24-.79.467-1.063.638a1.93 1.93 0 0 1-.943 1.265.8.8 0 0 0-.236.24c-.073.107-.141.231-.214.36l-.013.025c-.069.12-.133.245-.206.352-.081.12-.171.227-.278.304-.202.142-.57.33-.986.484-.416.155-.896.279-1.307.279-.416 0-.823-.15-1.136-.322a2.7 2.7 0 0 1-.527-.38 1 1 0 0 1-.064-.078 6 6 0 0 0-.3.317 1.9 1.9 0 0 0-.335.549c-.085.227-.141.514-.141.908 0 .193.013.326.034.42.017.099.043.167.073.24.03.077.064.159.086.27.026.116.043.257.043.463 0 .412-.103.9-.412 1.286-.317.394-.84.668-1.65.668-.655 0-1.071-.214-1.307-.505a1.24 1.24 0 0 1-.291-.793.7.7 0 0 1-.107-.112.42.42 0 0 1-.108-.257c0-.103.017-.236.103-.386.09-.145.244-.3.51-.445.536-.292 1.02-.223 1.363.008.154.099.219.24.24.373a.6.6 0 0 1-.03.322 1 1 0 0 0-.03.184c0 .073.004.129.017.15h.026a.4.4 0 0 0 .15-.039 1 1 0 0 0 .386-.3.56.56 0 0 0 .103-.257 2 2 0 0 0 .03-.373l-.013-.42v-.025a6 6 0 0 1-.018-.382v-.137c-.02-.282.006-.566.078-.84.12-.394.394-.806.998-1.17h.005v-.004h.004l.017-.013q.077-.06.146-.129a3 3 0 0 1-.245-.36 1 1 0 0 0-.128-.158l-.21-.223-.009-.013-.206-.214a1.3 1.3 0 0 1-.15-.193 2.6 2.6 0 0 1-.115-.382l-.06-.385a3.4 3.4 0 0 1-.069-.669c0-.257.034-.54.167-.728.3-.446.995-.836 1.847-.836.223 0 .416.017.592.047.874-.643 2.434-1.457 4.02-2.203zm.63 4.003-.047.03.038.056a1.72 1.72 0 0 1-.865 1.22c-.12.074-.215.18-.3.3-.086.112-.155.25-.228.374l-.012.026a4 4 0 0 1-.197.342.9.9 0 0 1-.223.245c-.18.128-.532.308-.943.458-.403.15-.853.266-1.23.266a2.48 2.48 0 0 1-1.513-.634.3.3 0 0 1-.047-.06l-.086.043.313-.3a1.87 1.87 0 0 0 1.427.655 3.2 3.2 0 0 0 1.864-.608.8.8 0 0 0 .137-.159l.146-.227c.099-.167.193-.347.257-.467v-.009l.005-.008q.048-.164.137-.309a.8.8 0 0 1 .265-.274c.384-.198.683-.529.84-.93.078.008.146-.017.176-.073.052-.086 0-.201-.107-.261-.107-.065-.231-.043-.278.034-.035.06-.022.133.025.193a1.56 1.56 0 0 1-.75.852.9.9 0 0 0-.351.352 1.5 1.5 0 0 0-.155.347 8 8 0 0 1-.38.66.6.6 0 0 1-.095.116 3 3 0 0 1-1.736.566 1.64 1.64 0 0 1-1.324-.665l-.184-.248c-.13-.266-.266-.377-.558-.6a2.6 2.6 0 0 1-.415-.429c.055-.06.072-.141.034-.201-.043-.082-.171-.099-.279-.035-.107.06-.154.18-.107.257.03.056.094.086.167.078.103.137.279.343.472.492.265.202.373.292.467.472l-.266.244a3 3 0 0 1-.223-.321 1 1 0 0 0-.15-.202l-.214-.227-.013-.008-.201-.215a1 1 0 0 1-.125-.154 2.4 2.4 0 0 1-.09-.317c-.025-.137-.042-.283-.055-.373v-.008a3.4 3.4 0 0 1-.073-.635c0-.253.043-.48.128-.613.258-.377.883-.745 1.68-.745.4 0 .7.068.99.141l.043.009c.279.068.557.137.9.137.352 0 .789-.073 1.209-.146h.008c.425-.073.828-.141 1.14-.141.3 0 .536.115.7.334.17.219.27.557.27 1.028q0 .149-.018.275m-5.464 2.194c-.197.184-.532.506-.729.733-.137.167-.27.356-.368.613-.1.253-.16.566-.16.981 0 .206.018.347.044.463.021.116.051.197.081.274.03.073.056.142.077.236.018.099.035.227.035.42 0 .382-.095.814-.365 1.157-.27.335-.728.587-1.487.587-.608 0-.955-.197-1.148-.428a1.03 1.03 0 0 1-.24-.677c.235.042.608.06.951-.078.27-.11.459-.214.579-.295l-.005.064a.53.53 0 0 0 .048.279.2.2 0 0 0 .08.068.51.51 0 0 0 .438.219c.394 0 .334-.24-.026-.274.142-.073.292-.19.408-.335a.8.8 0 0 0 .145-.343c.026-.128.035-.274.035-.42A7 7 0 0 0 7.774 16v-.026l-.013-.373v-.154c-.008-.223-.017-.484.07-.763a1.84 1.84 0 0 1 .946-1.08l.065-.051q.257-.215.497-.45l.06.085zm-2.717 3.892.017-.073v-.005l.004-.004a.5.5 0 0 0 .021-.223.4.4 0 0 0-.043-.116 1.18 1.18 0 0 1-.985.472 2.5 2.5 0 0 1-.639-.056.5.5 0 0 1-.111-.043.6.6 0 0 0-.022.163q-.001.051.056.129l.111.098.052.035v.021c.223.043.591.06.921-.073a3 3 0 0 0 .617-.325m-1.71-.116a.4.4 0 0 0 .102.043c.116.03.305.055.617.055.523 0 .823-.27.952-.462a.4.4 0 0 0-.069-.056c-.274-.184-.677-.253-1.148.004a1.07 1.07 0 0 0-.455.42zm.35-.206c-.106.159.33.124.442.116h.026c.257-.013.57-.223.596-.283.021-.056-.082-.129-.343-.129-.257 0-.6.116-.72.296" clip-rule="evenodd"/></g><defs><linearGradient id="b" x1="14.151" x2="16.046" y1="7.547" y2="10.264" gradientUnits="userSpaceOnUse"><stop stop-color="#9D35B8"/><stop offset=".54" stop-color="#3B3299"/><stop offset="1" stop-color="#1A5994"/></linearGradient><linearGradient id="c" x1="11.323" x2="11.323" y1="9.249" y2="14.438" gradientUnits="userSpaceOnUse"><stop offset=".04" stop-color="#6C34AA"/><stop offset=".17" stop-color="#46319D"/><stop offset=".72" stop-color="#129BD2"/></linearGradient><linearGradient id="d" x1="14.336" x2="15.493" y1="7.119" y2="9.257" gradientUnits="userSpaceOnUse"><stop stop-color="#610C8B"/><stop offset="1" stop-color="#231C81"/></linearGradient><clipPath id="a"><path fill="#fff" d="M0 0h24v24H0z"/></clipPath></defs></svg>