<svg xmlns="http://www.w3.org/2000/svg" width="24" height="24" fill="none" viewBox="0 0 24 24"><g clip-path="url(#a)"><path fill="url(#b)" d="M0 0h24v24H0z"/><path fill="#fff" d="M15.043 15.857c-.099.249-1.294 1.286-2.541 1.286-1.852 0-3.073-.673-3.073-2.014 0-1.234 1.543-1.826 3.437-2.512 2.284-.771 3.42-2.134 3.42-4.003 0-2.228-1.809-3.47-4.526-3.47-1.436 0-3.274.745-3.758 1.242l1.14 1.329c.458-.236 1.328-.858 2.6-.858 1.908 0 2.83.853 2.83 1.757 0 1.24-.7 1.81-2.632 2.516-2.366.87-4.226 1.916-4.226 3.862 0 2.048 1.483 3.865 4.788 3.865 1.35 0 2.914-.745 3.784-1.662z"/></g><defs><linearGradient id="b" x1="4.466" x2="29.207" y1="4.161" y2="32.58" gradientUnits="userSpaceOnUse"><stop stop-color="#1A1E21"/><stop offset="1" stop-color="#06060A"/></linearGradient><clipPath id="a"><path fill="#fff" d="M0 0h24v24H0z"/></clipPath></defs></svg>