<svg width="24" height="24" viewBox="0 0 24 24" fill="none" xmlns="http://www.w3.org/2000/svg">
<g clip-path="url(#clip0_31_19015)">
<path d="M0 0H24V24H0V0Z" fill="#2C2F4E"/>
<path d="M16.4143 5.26725C15.6472 5.0144 14.6872 5.13868 13.44 5.70868L13.4186 5.71725L13.4015 5.73011L13.3158 5.78154C13.2884 5.79382 13.2596 5.80246 13.23 5.80725C13.1229 5.8244 12.9386 5.83297 12.5572 5.83297C12.1715 5.83297 10.9929 5.85011 9.81433 6.21011C8.67005 6.56154 7.46147 7.26011 7.05862 8.64011L7.00719 8.67011C6.78005 8.79868 6.59147 8.91011 6.45005 9.03011C6.26147 9.20154 6.15862 9.38582 6.09005 9.6644C6.06433 9.75868 6.04719 9.89154 6.1029 10.0158C6.18005 10.1701 6.33005 10.2173 6.45005 10.2173C6.55719 10.2173 6.6729 10.183 6.78005 10.1401C6.8829 10.0973 7.0029 10.0373 7.13147 9.9644C7.76068 9.81175 8.40144 9.71141 9.04719 9.6644C9.50148 9.63868 9.86147 9.6644 10.1272 9.73725C10.2935 10.392 10.5942 11.0049 11.01 11.5373C11.1686 11.7215 11.3615 11.893 11.5843 11.9573C11.6443 11.9744 11.7129 11.9873 11.7729 11.9915C11.8286 11.9915 11.9143 11.9915 11.9958 11.9444C12.0338 11.922 12.067 11.8923 12.0935 11.857C12.12 11.8217 12.1392 11.7815 12.15 11.7387C12.1672 11.6744 12.1672 11.6101 12.1629 11.563C12.1586 11.4901 12.1415 11.4001 12.12 11.3058L12.1115 11.2373C12.09 11.1173 12.0686 10.9801 12.0558 10.813C12.0429 10.6287 12.0429 10.2687 12.0515 9.73297C14.6786 10.1701 16.5858 11.4944 17.7986 13.7144C17.8158 13.7401 17.8586 13.8001 17.9443 13.8344C18.0429 13.8687 18.1286 13.8344 18.1758 13.8044C18.2186 13.7744 18.2443 13.7401 18.2572 13.723C18.2686 13.7067 18.2786 13.6895 18.2872 13.6715C18.3086 13.6201 18.33 13.5515 18.3429 13.483C18.3729 13.3415 18.3986 13.1315 18.4158 12.8787C18.4458 12.3644 18.4286 11.6487 18.27 10.8644V10.8515L18.2615 10.8344C18.0259 10.064 17.6794 9.33208 17.2329 8.66154C16.7371 8.00529 16.1612 7.41356 15.5186 6.90011L15.3643 6.76725L15.4672 6.65154C15.5486 6.56582 15.6386 6.4844 15.7243 6.40297L15.8529 6.28297C15.96 6.2144 16.0415 6.15011 16.11 6.0944L16.1443 6.0644C16.2172 6.0044 16.2986 5.9444 16.4443 5.87582C16.4786 5.85868 16.5258 5.83297 16.5643 5.79868C16.5971 5.77198 16.6239 5.73875 16.643 5.70112C16.6622 5.66349 16.6734 5.62228 16.6758 5.58011C16.6773 5.53313 16.6676 5.48646 16.6474 5.44397C16.6273 5.40149 16.5974 5.36441 16.56 5.33582C16.516 5.30341 16.4667 5.27877 16.4143 5.26297V5.26725Z" fill="url(#paint0_linear_31_19015)"/>
<path d="M6.26998 11.3098C6.28135 11.2285 6.25997 11.1461 6.21054 11.0806C6.16111 11.0151 6.08768 10.9719 6.00641 10.9605C5.92514 10.9491 5.84268 10.9705 5.77718 11.0199C5.71168 11.0694 5.66849 11.1428 5.65713 11.2241C5.61427 11.5241 5.57141 12.0212 5.57141 12.3426C5.57141 16.0284 8.42141 18.8569 12.0557 18.8569C14.6357 18.8569 16.8214 17.2026 17.9014 15.0512C17.9196 15.015 17.9304 14.9755 17.9331 14.9351C17.9358 14.8946 17.9304 14.8541 17.9172 14.8158C17.9041 14.7774 17.8834 14.7421 17.8564 14.7119C17.8294 14.6817 17.7966 14.6572 17.76 14.6398C17.7237 14.6214 17.6841 14.6103 17.6436 14.6072C17.603 14.6042 17.5622 14.6091 17.5236 14.6219C17.485 14.6346 17.4492 14.6549 17.4184 14.6815C17.3877 14.7081 17.3625 14.7405 17.3443 14.7769C16.3543 16.7612 14.3614 18.2441 12.0557 18.2441C11.2797 18.2534 10.5098 18.1068 9.79151 17.8131C9.07322 17.5194 8.4212 17.0845 7.87407 16.5342C7.32694 15.9838 6.89584 15.3293 6.60632 14.6093C6.31679 13.8893 6.17473 13.1185 6.18855 12.3426C6.18855 12.0598 6.23141 11.5926 6.26998 11.3098Z" fill="url(#paint1_linear_31_19015)"/>
</g>
<defs>
<linearGradient id="paint0_linear_31_19015" x1="6.06433" y1="11.0573" x2="17.8843" y2="12.8401" gradientUnits="userSpaceOnUse">
<stop stop-color="#E3BF9F"/>
<stop offset="0.47" stop-color="#C2DAA8"/>
<stop offset="1" stop-color="#61B2C8"/>
</linearGradient>
<linearGradient id="paint1_linear_31_19015" x1="6.06427" y1="11.0569" x2="17.8843" y2="12.8398" gradientUnits="userSpaceOnUse">
<stop stop-color="#E3BF9F"/>
<stop offset="0.47" stop-color="#C2DAA8"/>
<stop offset="1" stop-color="#61B2C8"/>
</linearGradient>
<clipPath id="clip0_31_19015">
<rect width="24" height="24" fill="white"/>
</clipPath>
</defs>
</svg>
