<svg xmlns="http://www.w3.org/2000/svg" width="24" height="24" fill="none" viewBox="0 0 24 24"><g clip-path="url(#a)"><path fill="#F0F3FA" d="M0 0h24v24H0z"/><path fill="#14171A" d="M11.962 7.393c-.558.334-1.17.986-1.26 1.671-.07.493.162 1.089.41 1.518q.395.681.828 1.401c.163.266.36.669.386.977.024.36-.077.715-.287 1.007-.026.03-.047.035-.073 0a21 21 0 0 1-1.659-2.284c-.471-.754-1.114-1.894-.9-2.837.287-1.234 1.47-2.267 2.546-2.837a.08.08 0 0 1 .086.004c.84.561 1.628 1.286 2.117 2.173q.576 1.04.394 2.263c-.013.077-.034.081-.073.013a10.5 10.5 0 0 0-2.186-2.859 2.4 2.4 0 0 0-.257-.206.06.06 0 0 0-.073-.004"/><path fill="#14171A" d="M12.026 15.111a3.28 3.28 0 0 0 1.234-1.675 1.73 1.73 0 0 0-.206-1.376 30 30 0 0 0-.84-1.444 4.7 4.7 0 0 1-.428-.866c-.172-.442-.103-.857.18-1.23q.025-.038.051-.004a17.5 17.5 0 0 1 1.761 2.232c.386.592.87 1.428.875 2.156.008.9-.557 1.817-1.153 2.486-.42.473-.912.878-1.457 1.2a.07.07 0 0 1-.064.008c-.065-.021-.116-.068-.172-.107-1.598-1.08-3.514-3.145-2.871-5.297q.05-.153.107-.004c.33.814.77 1.579 1.311 2.271a8.3 8.3 0 0 0 1.616 1.65.045.045 0 0 0 .056 0"/><path fill="#14171A" d="M7.269 10.239q.024 1.466.557 2.79a7.06 7.06 0 0 0 3.188 3.595c.095.052.086.073-.017.06a4.2 4.2 0 0 1-1.633-.505 5.74 5.74 0 0 1-2.785-3.343c-.3-.969-.429-1.985-.558-2.983a5 5 0 0 0-.145-.724.03.03 0 0 1 .017-.013q1.338-.013 2.618.308a.1.1 0 0 1 .052.035.1.1 0 0 1 .021.055v.9a.04.04 0 0 1-.017.035.04.04 0 0 1-.043.008 5.3 5.3 0 0 0-1.251-.236l-.004.009zm9.432-.018a4.7 4.7 0 0 0-1.242.24q-.007.002-.013-.008l-.009-.009-.004-.017V9.48q-.001-.053.043-.06a10.8 10.8 0 0 1 2.614-.3.04.04 0 0 1 .03.03v.021a3.5 3.5 0 0 0-.103.472c-.214 1.358-.321 2.816-.951 4.063-.707 1.405-2.113 2.588-3.652 2.923a2.4 2.4 0 0 1-.45.055q-.103.001-.013-.043c2.4-1.332 3.665-3.6 3.785-6.385a.03.03 0 0 0-.009-.026l-.013-.004h-.013z"/><path fill="#14171A" d="M5.211 14.057q.142.194.313.369c.716.762 1.625 1.414 2.563 1.894a7 7 0 0 0 2.1.698q.2.034-.004.052c-.227.021-.446.043-.647.056-1.5.124-2.902-.48-4.042-1.458a36 36 0 0 1-1.221-1.092 5.6 5.6 0 0 0-.836-.643.05.05 0 0 1 .009-.065 8.2 8.2 0 0 1 2.228-1.285c.03-.013.047 0 .056.03q.155.532.411 1.024a.04.04 0 0 1-.012.034 5 5 0 0 0-.922.365v.01q0 .007.004.011m13.56.013c.018-.026.013-.043-.012-.06a5 5 0 0 0-.879-.33q-.046-.014-.021-.051.263-.504.42-1.05a.03.03 0 0 1 .021 0 7.9 7.9 0 0 1 2.271 1.307.04.04 0 0 1-.017.051c-.66.416-1.2.977-1.783 1.5-1.204 1.084-2.635 1.792-4.251 1.693a19 19 0 0 1-.75-.069q-.09-.011 0-.03c.407-.09.827-.171 1.2-.312a9.4 9.4 0 0 0 3.549-2.345q.135-.141.257-.308z"/></g><defs><clipPath id="a"><path fill="#fff" d="M0 0h24v24H0z"/></clipPath></defs></svg>