<svg xmlns="http://www.w3.org/2000/svg" width="24" height="24" fill="none" viewBox="0 0 24 24"><g clip-path="url(#a)"><path fill="url(#b)" d="M0 0h24v24H0z"/><path fill="#24B4E6" d="M8.366 13.714 7.033 11.28a1.414 1.414 0 0 1 .544-1.912l7.663-4.337c.098-.098.248-.36.098-.587l.27-.158 1.449 2.541c.146.407.21 1.35-.681 1.856-.888.501-5.396 2.987-7.54 4.166-.145.08-.402.334-.273.707a2 2 0 0 1-.197.158m0 6L7.033 17.28a1.414 1.414 0 0 1 .544-1.912l7.663-4.337c.098-.098.248-.36.098-.587l.27-.158 1.449 2.541c.146.407.21 1.35-.681 1.856-.888.501-5.396 2.987-7.54 4.166-.145.08-.402.334-.273.707a2 2 0 0 1-.197.158"/></g><defs><linearGradient id="b" x1="12" x2="12" y1="0" y2="24" gradientUnits="userSpaceOnUse"><stop stop-color="#0D141A"/><stop offset="1" stop-color="#37434F"/></linearGradient><clipPath id="a"><path fill="#fff" d="M0 0h24v24H0z"/></clipPath></defs></svg>