<svg xmlns="http://www.w3.org/2000/svg" width="24" height="24" fill="none" viewBox="0 0 24 24"><g clip-path="url(#a)"><path fill="#F0F3FA" d="M0 0h24v24H0z"/><path fill="url(#b)" d="M9.287 5.237a.45.45 0 0 1 .647.107l2.207 3.18 1.916-3.162a.45.45 0 0 1 .647-.13.51.51 0 0 1 .12.687l-2.1 3.441.317.463 2.88-4.47a.45.45 0 0 1 .652-.111.51.51 0 0 1 .107.685l-3.06 4.732.514.745 3.879-6.047a.45.45 0 0 1 .643-.12.504.504 0 0 1 .115.686l-4.054 6.317 4.05 5.837a.51.51 0 0 1-.098.686.45.45 0 0 1-.652-.107L9.184 5.923a.506.506 0 0 1 .103-.686m-3.956 0a.45.45 0 0 1 .652.103l6.54 9.3 2.516 3.429a.5.5 0 0 1-.082.685.447.447 0 0 1-.651-.085l-2.143-2.915-1.993 2.902a.456.456 0 0 1-.651.107.506.506 0 0 1-.103-.686l2.155-3.133-.295-.415-3.069 4.144a.447.447 0 0 1-.651.086.505.505 0 0 1-.082-.686l3.227-4.363-.454-.643-4.041 5.602a.45.45 0 0 1-.652.094.506.506 0 0 1-.085-.686l4.2-5.828-4.44-6.322a.51.51 0 0 1 .098-.685zm1.856 0a.45.45 0 0 1 .652.103l9.064 12.733a.507.507 0 0 1-.09.686.45.45 0 0 1-.652-.099L7.097 5.927a.507.507 0 0 1 .09-.685zm5.67 1.406a.643.643 0 1 1-1.285 0 .643.643 0 0 1 1.285 0M12.214 18a.643.643 0 1 0 0-1.286.643.643 0 0 0 0 1.286"/></g><defs><linearGradient id="b" x1="12" x2="12" y1="5.143" y2="18.857" gradientUnits="userSpaceOnUse"><stop stop-color="#5E189B"/><stop offset=".27" stop-color="#D11EF8"/><stop offset=".46" stop-color="#6B78FB"/><stop offset="1" stop-color="#31A8FA"/></linearGradient><clipPath id="a"><path fill="#fff" d="M0 0h24v24H0z"/></clipPath></defs></svg>