<svg xmlns="http://www.w3.org/2000/svg" width="24" height="24" fill="none" viewBox="0 0 24 24"><g clip-path="url(#a)"><path fill="#F0F3FA" d="M0 0h24v24H0z"/><path fill="#88B1CA" d="M9.857 18.429H5.143l4.714-4.286h4.714z"/><path fill="#F8782F" d="m18.857 9.857-4.285 4.286V9.857z"/><path fill="#CF4A00" d="m18.857 5.571-4.285 4.286V5.571z"/><path fill="#488EB2" d="m14.572 9.857-4.715 4.286V9.857z"/><path fill="#295C7B" d="M14.572 5.571 9.857 9.857V5.571z"/><path fill="#2471A5" d="m9.857 9.857-4.714 4.286V9.857z"/><path fill="#FA965A" d="m18.857 14.143-4.285 4.286v-4.286z"/><path fill="#F26A1E" d="M14.572 14.143H9.857l4.715-4.286z"/><path fill="#E75105" d="M14.572 9.857H9.857l4.715-4.286z"/><path fill="#377DAE" d="M9.857 14.143H5.143l4.714-4.286z"/><path fill="#206996" d="M9.857 9.857H5.143l4.714-4.286z"/><path fill="#F98749" d="M18.857 14.143h-4.285l4.285-4.286z"/><path fill="#F8A77A" d="M14.572 18.429H9.857l4.715-4.286z"/></g><defs><clipPath id="a"><path fill="#fff" d="M0 0h24v24H0z"/></clipPath></defs></svg>