<svg width="24" height="24" viewBox="0 0 24 24" fill="none" xmlns="http://www.w3.org/2000/svg">
<g clip-path="url(#clip0_31_19297)">
<path d="M0 0H24V24H0V0Z" fill="#1E2C5D"/>
<path fill-rule="evenodd" clip-rule="evenodd" d="M5.61719 18C5.61719 17.9293 6.69762 14.7583 7.23804 13.1816C7.41804 13.4889 8.11533 13.995 9.47176 14.058C9.49176 14.0844 9.51762 14.1058 9.54729 14.1205C9.57696 14.1352 9.60964 14.1429 9.64276 14.1429H12.8935C12.944 14.2858 13.0435 14.4063 13.1743 14.4831C13.3051 14.5598 13.4588 14.5878 13.6083 14.5622C13.7577 14.5365 13.8933 14.4589 13.9911 14.3429C14.0888 14.227 14.1424 14.0802 14.1424 13.9286C14.1424 13.7769 14.0888 13.6302 13.9911 13.5142C13.8933 13.3983 13.7577 13.3206 13.6083 13.295C13.4588 13.2693 13.3051 13.2973 13.1743 13.3741C13.0435 13.4508 12.944 13.5713 12.8935 13.7143H9.64276C9.60412 13.7143 9.5662 13.7247 9.53301 13.7445C9.49981 13.7642 9.47258 13.7926 9.45419 13.8266C8.21947 13.788 6.27504 13.0166 6.51804 9.80229C6.69333 7.48329 9.10833 6 10.3388 6H18.4743L16.79 10.8926C16.3298 10.2407 15.1623 9.96471 14.4916 9.90471C14.4536 9.87385 14.406 9.85705 14.357 9.85714H11.1063C11.0558 9.71417 10.9563 9.59367 10.8255 9.51694C10.6947 9.44021 10.541 9.41219 10.3915 9.43783C10.2421 9.46347 10.1065 9.54113 10.0087 9.65707C9.91099 9.77302 9.85738 9.91978 9.85738 10.0714C9.85738 10.2231 9.91099 10.3698 10.0087 10.4858C10.1065 10.6017 10.2421 10.6794 10.3915 10.705C10.541 10.7307 10.6947 10.7027 10.8255 10.6259C10.9563 10.5492 11.0558 10.4287 11.1063 10.2857H14.357C14.411 10.2857 14.4599 10.266 14.4976 10.233C15.9736 10.3954 17.5388 11.1784 17.5388 13.9217C17.5388 16.7687 15.0668 17.8269 13.8308 18H5.61719Z" fill="#F23A2E"/>
</g>
<defs>
<clipPath id="clip0_31_19297">
<rect width="24" height="24" fill="white"/>
</clipPath>
</defs>
</svg>
