<svg xmlns="http://www.w3.org/2000/svg" width="24" height="24" fill="none" viewBox="0 0 24 24"><g clip-path="url(#a)"><path fill="#F0F3FA" d="M0 0h24v24H0z"/><path fill="#666565" d="M17.421 16.856a.7.7 0 0 0-.115.103l-.082.085a7.6 7.6 0 0 1-1.671 1.282 7.8 7.8 0 0 1-2.58.857 9 9 0 0 0-.485.086l-.797.017a.4.4 0 0 0-.171-.017l-.039-.004-.034-.022a2 2 0 0 1-.214-.03l-.545-.086a3 3 0 0 1-.41-.085 7.458 7.458 0 0 1-4.384-3.077 7 7 0 0 1-1.141-3.21c-.159-1.638.18-3.146 1.015-4.535a7.1 7.1 0 0 1 2.67-2.576 7.1 7.1 0 0 1 3.613-.93 7.2 7.2 0 0 1 4.372 1.492 7.27 7.27 0 0 1 .994 10.65zm1.792-4.886A7.12 7.12 0 0 0 17.1 6.887a7.16 7.16 0 0 0-7.856-1.56 7.14 7.14 0 0 0-3.9 3.896 7.1 7.1 0 0 0 0 5.499 7.14 7.14 0 0 0 3.9 3.891 7.16 7.16 0 0 0 5.516 0 7.14 7.14 0 0 0 3.9-3.891 7 7 0 0 0 .553-2.747z"/><path fill="url(#b)" d="m14.117 11.987-1.911-1.916-.21-.201a.7.7 0 0 1-.039-.214l.009-.035a.09.09 0 0 0 .009-.068v-.009a.6.6 0 0 1-.03-.265.17.17 0 0 0-.013-.112.06.06 0 0 1-.005-.038.27.27 0 0 0-.021-.155s.008 0 .008-.008V8.96a.4.4 0 0 1-.025-.141 5 5 0 0 0-.043-.497 3 3 0 0 1-.039-.287 3 3 0 0 0-.043-.283 1 1 0 0 1-.017-.137.5.5 0 0 0-.021-.137.3.3 0 0 1-.009-.1.3.3 0 0 0-.013-.128.1.1 0 0 1-.004-.034.33.33 0 0 0-.068-.248q-.012-.018.008-.022l.009-.004c.008-.013 0-.022-.009-.026a.24.24 0 0 0-.133-.013 2.94 2.94 0 0 1 2.298.553c.514.386.87.896 1.07 1.517.212.731.151 1.514-.17 2.203-.163.33-.356.6-.588.81"/><path fill="url(#c)" d="M11.507 6.9a.24.24 0 0 1 .129.013q.025.011.013.03l-.009.004q-.02.001-.009.022a.35.35 0 0 1 .069.248v.034a.3.3 0 0 1 .017.13c0 .033 0 .063.009.098a.5.5 0 0 1 .021.137q.004.065.022.137l.042.283c.005.098.018.193.03.287.026.171.043.334.043.497a.4.4 0 0 0 .03.141v.005c0 .004-.004.008-.008.004v.004c.021.052.025.103.021.155v.038a.17.17 0 0 1 .017.112c-.017.055-.004.145.03.265v.009a.09.09 0 0 1-.008.068.1.1 0 0 0-.009.035.6.6 0 0 0 .043.214.7.7 0 0 0-.253-.034.34.34 0 0 1-.154-.043.3.3 0 0 0-.082-.03l-.081-.013a.06.06 0 0 1-.03-.017c-.017-.022-.043-.026-.064-.013a.06.06 0 0 1-.043.004l-.266-.047q-.195-.057-.39-.124a1.4 1.4 0 0 0-.283-.06 4 4 0 0 1-.574-.107 4 4 0 0 0-.18-.03 1.4 1.4 0 0 1-.184-.043c-.013 0-.013-.009 0-.017q.02-.02.013-.052a.03.03 0 0 0-.022-.025l-.137-.043h-.021a.04.04 0 0 1-.039-.017q-.014-.014-.021 0c0 .008-.005.008-.009.012q-.019.025-.026-.008a.04.04 0 0 0-.017-.03.03.03 0 0 1-.013-.03c.009-.026 0-.043-.008-.06A3.01 3.01 0 0 1 11.507 6.9"/><path fill="url(#d)" d="M9.116 9.043c.012.017.017.034.008.06 0 .013 0 .021.013.03a.04.04 0 0 1 .017.03c0 .021.013.026.026.009l.008-.009q.008-.02.022 0a.04.04 0 0 0 .043.013h.017l.137.043q.02 0 .021.025.007.033-.013.052-.018.011 0 .017.104.03.185.043.236.028.467.086.13.032.287.051.18.02.283.06.194.066.39.124l.27.047.038-.004c.026-.013.043-.008.065.013l.03.017.085.013a.3.3 0 0 1 .078.03c.06.03.107.043.154.043.111 0 .197.013.248.034l.215.202a.2.2 0 0 1-.086-.022c-.013-.009-.021 0-.017.013a.17.17 0 0 1-.043.116 4 4 0 0 1-.489.437.1.1 0 0 0-.025.034q-.448.453-.892.909a.8.8 0 0 0-.145.154.4.4 0 0 1-.086.086l-.056.043a1 1 0 0 1-.343.227l-.017.003-.017-.003-.069-.035L9.884 12a3.02 3.02 0 0 1-.767-2.957"/><path fill="url(#e)" d="m12.206 10.072 1.911 1.915c.317.318.557.686.712 1.115a.1.1 0 0 0-.043-.009c-.013 0-.021 0-.03-.013a.04.04 0 0 1 0-.021q0-.018.013-.004h.021q.024-.032-.008-.03a.1.1 0 0 1-.06-.03q-.02-.02-.026.008v.03c0 .017 0 .022-.013.004q-.025-.046-.081-.034h-.03c-.03-.013-.052 0-.06.03a.07.07 0 0 1-.03.056q-.015.014-.035.008c-.004 0-.012 0-.012.009s-.01.013-.018.013l-.008-.009-.017-.008h-.013q-.092.043-.172.098a.1.1 0 0 0-.021.03.25.25 0 0 1-.099.107l-.064.043a.7.7 0 0 1-.167.129.3.3 0 0 0-.06.051.06.06 0 0 1-.06.013c-.017 0-.03 0-.034.021a.1.1 0 0 1-.039.06.05.05 0 0 1-.043.013c-.004 0-.013 0-.021.009q-.126.053-.257.086-.05.016-.172.085c-.051.022-.098.043-.141.052a.5.5 0 0 0-.142.047.13.13 0 0 1-.12 0l-.012-.009q-.074-.039-.12-.034l-.202.021a.1.1 0 0 0-.06.022l-.051.03a.26.26 0 0 0-.107.086q-.072.114-.215.068l-2.07-2.1.069.035a.04.04 0 0 0 .034 0 .9.9 0 0 0 .343-.22l.056-.046a.5.5 0 0 0 .085-.086.8.8 0 0 1 .146-.154.7.7 0 0 0 .116-.112q.014-.016.034-.025.369-.388.742-.772a.1.1 0 0 1 .025-.034c.184-.141.347-.291.489-.437a.17.17 0 0 0 .043-.116c0-.017 0-.021.017-.013a.2.2 0 0 0 .085.022z"/><path fill="url(#f)" d="m9.883 12 .043.034 2.065 2.096q.045.096 0 .193l-.038.098q-.014.045-.005.09a.3.3 0 0 1 0 .095q-.034.31-.141.604a1 1 0 0 1-.056.077.3.3 0 0 0-.055.116l-.022.15a.1.1 0 0 1-.008.034.1.1 0 0 0-.013.06v.039l-.009.055c-.021.215-.034.407-.043.587q0 .143.039.343.008.051.004.108 0 .052.03.098.014.018 0 .03a.08.08 0 0 0-.03.073.04.04 0 0 1-.008.03.1.1 0 0 1-.03.03c-.018.009-.013.013 0 .009a.2.2 0 0 1 .12.02.15.15 0 0 0 .085.018c.013 0 .017 0 .013.017l-.008.013a.02.02 0 0 1-.022 0 .2.2 0 0 0-.15.004 3.01 3.01 0 0 1-2.588-3.54c.107-.6.395-1.154.827-1.585z"/><path fill="#4B1CB7" d="M14.829 13.097c.196.58.226 1.204.085 1.8a3.01 3.01 0 0 1-3.27 2.229.2.2 0 0 1 .15-.009h.022l.008-.013c0-.013 0-.017-.013-.017-.03 0-.06 0-.085-.017a.18.18 0 0 0-.116-.021q-.027.005-.004-.009a.1.1 0 0 0 .03-.03.04.04 0 0 0 .008-.03c0-.03.005-.056.03-.073q.014-.011 0-.03a.15.15 0 0 1-.03-.098l-.004-.108a1.6 1.6 0 0 1-.034-.342q.019-.466.09-.926a.4.4 0 0 1 .055-.116l.052-.077a2.6 2.6 0 0 0 .145-.6.4.4 0 0 0 0-.099.2.2 0 0 1 .005-.085l.043-.103a.22.22 0 0 0 0-.193q.142.046.214-.069a.26.26 0 0 1 .107-.085l.051-.03c.018-.013.043-.017.06-.022l.202-.021a.26.26 0 0 1 .133.043.12.12 0 0 0 .12 0 .5.5 0 0 1 .141-.047.7.7 0 0 0 .137-.056c.086-.043.142-.069.176-.077q.166-.04.322-.112a.1.1 0 0 0 .042-.06c0-.017.013-.025.03-.021.022.008.043 0 .06-.013a.3.3 0 0 1 .06-.051 1 1 0 0 0 .172-.129l.06-.043a.25.25 0 0 0 .098-.107.06.06 0 0 1 .022-.03.7.7 0 0 1 .184-.099c.009 0 .013 0 .017.009 0 .004 0 .009.009.009q.011 0 .017-.013c0-.009.008-.013.013-.009q.02.002.034-.008a.1.1 0 0 0 .03-.056c.009-.03.03-.043.06-.03h.034c.035-.004.065.004.086.034.009.017.009.013.009 0v-.034q.006-.027.025-.009a.08.08 0 0 0 .06.03q.034 0 .009.026-.007.014-.021 0c-.01-.004-.013-.004-.013.009a.04.04 0 0 0 0 .021q.012.02.025.013a.1.1 0 0 1 .047.004"/></g><defs><linearGradient id="b" x1="11.507" x2="13.029" y1="7.23" y2="11.147" gradientUnits="userSpaceOnUse"><stop offset=".46" stop-color="#B87AFF"/><stop offset="1" stop-color="#DCB1FF"/></linearGradient><linearGradient id="c" x1="11.996" x2="11.241" y1="7.851" y2="10.564" gradientUnits="userSpaceOnUse"><stop offset=".5" stop-color="#B87AFF"/><stop offset="1" stop-color="#914CFD"/></linearGradient><linearGradient id="d" x1="11.04" x2="12.214" y1="9.287" y2="11.147" gradientUnits="userSpaceOnUse"><stop stop-color="#A462FE"/><stop offset="1" stop-color="#5823CF"/></linearGradient><linearGradient id="e" x1="10.779" x2="13.337" y1="11.272" y2="13.822" gradientUnits="userSpaceOnUse"><stop stop-color="#6A32DA"/><stop offset=".14" stop-color="#4B1CB7"/><stop offset="1" stop-color="#4E1EBF"/></linearGradient><linearGradient id="f" x1="9.707" x2="12.351" y1="15.36" y2="15.287" gradientUnits="userSpaceOnUse"><stop stop-color="#4217A2"/><stop offset="1" stop-color="#4B1CB7"/></linearGradient><clipPath id="a"><path fill="#fff" d="M0 0h24v24H0z"/></clipPath></defs></svg>