<svg xmlns="http://www.w3.org/2000/svg" width="24" height="24" fill="none" viewBox="0 0 24 24"><g clip-path="url(#a)"><path fill="#053C50" d="M0 0h24v24H0z"/><path fill="#0D4947" fill-opacity=".53" d="M6.857 13.286H5.572c.685.857 1.572 1.213 1.928 1.285z"/><path fill="url(#b)" d="M7.328 14.614a4.03 4.03 0 0 0 2.1.386c2.572-.214 4.286-2.357 4.286-3 .772.129 2.507.129 3.849-.741a5.573 5.573 0 1 0-10.23 3.355z"/><path fill="url(#c)" d="M17.537 10.864c-1.354.557-3.437.707-4.457.707A8.44 8.44 0 0 1 9.403 15h.034c2.572-.214 4.286-2.357 4.286-3 .771.129 2.507.129 3.848-.742a6 6 0 0 0-.034-.394"/><path fill="url(#d)" d="M11.859 18c3.865 0 6.998-2.987 6.998-6.668v-.189c-1.243 1.093-2.644 1.68-4.5 1.5-.287 1.114-1.5 3.214-4.067 3.214-2.198 0-4.114-1.465-5.143-2.635C6 15.986 8.68 18 11.854 18z"/></g><defs><linearGradient id="b" x1="15.214" x2="7.286" y1="6.857" y2="13.929" gradientUnits="userSpaceOnUse"><stop stop-color="#D1FAFE"/><stop offset=".12" stop-color="#E9FDFE"/><stop offset=".28" stop-color="#A6EAED"/><stop offset=".43" stop-color="#77D4D7"/><stop offset=".65" stop-color="#5DC8C8"/><stop offset=".84" stop-color="#439CBA"/><stop offset="1" stop-color="#3B7DB2"/></linearGradient><linearGradient id="c" x1="17.357" x2="9.214" y1="10.928" y2="15" gradientUnits="userSpaceOnUse"><stop stop-color="#55A6AD"/><stop offset=".16" stop-color="#9CB6BA"/><stop offset=".57" stop-color="#4092A0"/><stop offset="1" stop-color="#35729F"/></linearGradient><linearGradient id="d" x1="18.493" x2="7.509" y1="11.559" y2="16.535" gradientUnits="userSpaceOnUse"><stop stop-color="#8CF2FC"/><stop offset=".39" stop-color="#A6F3FB"/><stop offset=".86" stop-color="#46A7BA"/><stop offset="1" stop-color="#3B7CB2"/></linearGradient><clipPath id="a"><path fill="#fff" d="M0 0h24v24H0z"/></clipPath></defs></svg>