<svg xmlns="http://www.w3.org/2000/svg" width="24" height="24" fill="none" viewBox="0 0 24 24"><g clip-path="url(#a)"><path fill="#F0F3FA" d="M0 0h24v24H0z"/><path fill="#090502" fill-rule="evenodd" d="M19.286 12a7.286 7.286 0 1 1-14.572 0 7.286 7.286 0 0 1 14.572 0m-1.715 0A5.571 5.571 0 1 1 6.43 12a5.571 5.571 0 0 1 11.143 0M12.858 9.43a.857.857 0 1 1-1.714 0 .857.857 0 0 1 1.714 0m1.715 2.143H9.429v.857h2.143V15h.857V12.43h2.143z" clip-rule="evenodd"/></g><defs><clipPath id="a"><path fill="#fff" d="M0 0h24v24H0z"/></clipPath></defs></svg>