<svg xmlns="http://www.w3.org/2000/svg" width="24" height="24" fill="none" viewBox="0 0 24 24"><g clip-path="url(#a)"><path fill="#F94081" d="M0 0h24v24H0z"/><path fill="#fff" d="M15 14.263a40.6 40.6 0 0 0-6 0l-.201-2.658a43 43 0 0 1 6.402 0zm-1.714 4.165a21 21 0 0 0-2.572 0c-.026-.908-.068-1.234-.094-2.143a23 23 0 0 1 2.743 0zM5.143 7.453l.441 3.107c.257-.455.386-.686.652-1.132 3.867-.577 7.8-.57 11.665.022.215.441.313.664.515 1.11.171-1.243.261-1.864.441-3.107a39.9 39.9 0 0 0-13.714 0"/></g><defs><clipPath id="a"><path fill="#fff" d="M0 0h24v24H0z"/></clipPath></defs></svg>