<svg width="24" height="24" viewBox="0 0 24 24" fill="none" xmlns="http://www.w3.org/2000/svg">
<g clip-path="url(#clip0_31_19923)">
<path d="M0 0H24V24H0V0Z" fill="#F0F3FA"/>
<path d="M16.6758 8.02301C16.1223 7.3121 15.4142 6.73662 14.6051 6.34024C13.796 5.94386 12.9073 5.73699 12.0064 5.73534C11.1054 5.73369 10.2159 5.93729 9.40543 6.3307C8.59492 6.72412 7.88468 7.297 7.32862 8.00586C7.31576 8.01872 7.3029 8.02301 7.29005 8.01443C6.99573 7.83308 6.665 7.71893 6.32147 7.68015C6.31959 7.67689 6.3186 7.6732 6.3186 7.66943C6.3186 7.66567 6.31959 7.66198 6.32147 7.65872C7.16795 6.4494 8.3793 5.54279 9.77821 5.0716C11.1771 4.60041 12.6901 4.58939 14.0958 5.04015C15.5431 5.5046 16.8005 6.42656 17.6786 7.66729C17.679 7.67128 17.6784 7.6753 17.6769 7.67902C17.6754 7.68274 17.673 7.68606 17.67 7.68872L17.6572 7.69301C17.3226 7.73569 17.0011 7.84969 16.7143 8.02729C16.7015 8.03586 16.6886 8.03586 16.6758 8.02301Z" fill="#3E3E3E"/>
<path d="M15.9472 8.66158C15.4827 8.05276 14.8838 7.55947 14.1973 7.22019C13.5108 6.88092 12.7551 6.70483 11.9894 6.70566C11.2236 6.70649 10.4683 6.88421 9.78254 7.22498C9.09675 7.56574 8.49895 8.06032 8.03577 8.67016C8.03245 8.67016 8.02917 8.66938 8.02619 8.66789C8.02321 8.66641 8.02063 8.66424 8.01863 8.66158C7.8853 8.48401 7.73136 8.32288 7.56006 8.18158C7.5472 8.17301 7.5472 8.16444 7.56006 8.15158C8.09126 7.4811 8.7675 6.9397 9.53796 6.56807C10.3084 6.19643 11.1531 6.00422 12.0085 6.00587C12.8639 6.00752 13.7078 6.20299 14.4768 6.57759C15.2459 6.9522 15.92 7.4962 16.4486 8.16873C16.449 8.17272 16.4484 8.17674 16.4469 8.18046C16.4454 8.18418 16.4431 8.1875 16.4401 8.19016C16.2601 8.32601 16.1012 8.48776 15.9686 8.67016C15.9646 8.67092 15.9605 8.67052 15.9567 8.669C15.9529 8.66748 15.9496 8.66491 15.9472 8.66158Z" fill="#138842"/>
<path d="M11.5028 12.2699C11.0038 12.153 10.5609 11.8664 10.2498 11.4592C9.93864 11.0519 9.77864 10.5492 9.7971 10.037C9.80431 9.73685 9.87268 9.44131 9.99803 9.16848C10.1234 8.89565 10.3031 8.65127 10.5261 8.45028C10.7492 8.24929 11.0109 8.09592 11.2953 7.99957C11.5796 7.90321 11.8807 7.86588 12.18 7.88987C12.5818 7.92442 12.9666 8.06801 13.2929 8.30515C13.6192 8.5423 13.8745 8.864 14.0314 9.23558C14.04 9.25701 14.0357 9.26558 14.0142 9.26558H13.2042C13.1959 9.26576 13.1876 9.2639 13.1802 9.26016C13.1727 9.25643 13.1663 9.25094 13.1614 9.24415C13.0317 9.0675 12.8634 8.92279 12.6693 8.82103C12.4752 8.71927 12.2604 8.66315 12.0414 8.65695C11.8223 8.65075 11.6047 8.69463 11.4052 8.78525C11.2057 8.87587 11.0294 9.01084 10.89 9.17987C10.7626 9.33577 10.6688 9.51624 10.6142 9.71001C10.5597 9.90379 10.5457 10.1067 10.573 10.3062C10.6003 10.5056 10.6685 10.6973 10.7731 10.8692C10.8778 11.0412 11.0168 11.1897 11.1814 11.3056C11.4883 11.5248 11.8698 11.6132 12.2418 11.5513C12.6139 11.4895 12.9462 11.2824 13.1657 10.9756C13.173 10.9666 13.1821 10.9593 13.1924 10.9541C13.2028 10.9489 13.2141 10.946 13.2257 10.9456H14.0185L14.0271 10.9499C14.0298 10.9519 14.0319 10.9545 14.0334 10.9574C14.0349 10.9604 14.0357 10.9637 14.0357 10.967V10.9756C13.8996 11.2988 13.6895 11.5855 13.4222 11.8126C13.155 12.0396 12.8381 12.2007 12.4971 12.2827C12.4842 12.2827 12.4757 12.2956 12.4757 12.3127V15.7242C12.4764 15.7323 12.4797 15.74 12.4851 15.7462C12.4905 15.7524 12.4977 15.7567 12.5057 15.7584C12.9285 15.8602 13.3123 16.0838 13.6094 16.4014C13.9066 16.719 14.1041 17.1168 14.1775 17.5455C14.251 17.9742 14.1971 18.415 14.0226 18.8134C13.8481 19.2118 13.5606 19.5503 13.1957 19.787C12.7777 20.0589 12.2795 20.1803 11.7833 20.1312C11.287 20.0822 10.8223 19.8655 10.4657 19.517C10.1794 19.2372 9.97358 18.8855 9.86984 18.4988C9.7661 18.1121 9.76824 17.7047 9.87602 17.3191C9.98381 16.9335 10.1933 16.584 10.4825 16.3072C10.7717 16.0304 11.13 15.8364 11.52 15.7456C11.5227 15.7428 11.5249 15.7394 11.5264 15.7357C11.5279 15.732 11.5286 15.7281 11.5285 15.7242V12.2999C11.5285 12.2827 11.52 12.2699 11.5028 12.2656V12.2699Z" fill="#3E3E3E"/>
<path d="M8.2071 9.61736C8.2081 9.62228 8.21079 9.62668 8.21471 9.62982C8.21863 9.63295 8.22352 9.63461 8.22853 9.63451H9.46281C9.46577 9.63558 9.46845 9.63728 9.47067 9.6395C9.4729 9.64173 9.4746 9.64441 9.47567 9.64736V9.66022C9.41635 9.96594 9.41635 10.2802 9.47567 10.5859C9.47301 10.5889 9.46969 10.5913 9.46597 10.5928C9.46225 10.5942 9.45824 10.5948 9.45424 10.5945H8.22853C8.21567 10.5945 8.21139 10.5988 8.2071 10.6116C8.11829 11.0164 7.91669 11.3877 7.62563 11.6827C7.33457 11.9776 6.96594 12.1841 6.56241 12.2783C6.15887 12.3724 5.73692 12.3504 5.34538 12.2147C4.95384 12.0791 4.60872 11.8353 4.34996 11.5116C4.0703 11.1618 3.90252 10.7359 3.8685 10.2893C3.83448 9.84276 3.9358 9.3963 4.15924 9.00817C4.38269 8.62003 4.71789 8.30822 5.12115 8.11339C5.52441 7.91856 5.97702 7.84975 6.41996 7.91593C6.85387 7.9882 7.25613 8.18898 7.57473 8.49229C7.89332 8.79561 8.11361 9.18752 8.2071 9.61736ZM15.7628 10.5945H11.07C11.0549 10.5953 11.0401 10.591 11.0277 10.5825C11.0153 10.574 11.0061 10.5617 11.0014 10.5474C10.8942 10.2474 10.8942 9.94736 11.01 9.66022C11.0135 9.65199 11.0196 9.64508 11.0272 9.64047C11.0349 9.63586 11.0439 9.63377 11.0528 9.63451H15.7542C15.762 9.63475 15.7697 9.63234 15.7759 9.62767C15.7821 9.62299 15.7866 9.61634 15.7885 9.60879C15.8792 9.20147 16.084 8.82838 16.3789 8.53312C16.6738 8.23786 17.0466 8.03262 17.4538 7.94138C17.861 7.85014 18.2858 7.87667 18.6785 8.01788C19.0711 8.15908 19.4155 8.40913 19.6714 8.73879C19.9757 9.12915 20.1416 9.60954 20.1431 10.1045C20.1447 10.5994 19.9818 11.0808 19.68 11.4731C19.4997 11.713 19.2712 11.9124 19.0092 12.0586C18.7471 12.2048 18.4573 12.2944 18.1585 12.3216C17.6235 12.3815 17.0853 12.2406 16.6482 11.9263C16.2111 11.6119 15.9063 11.1465 15.7928 10.6202C15.7928 10.6031 15.78 10.5945 15.7628 10.5945Z" fill="#138842"/>
<path d="M7.5086 10.1141C7.50721 10.4004 7.42206 10.6799 7.26365 10.9183C7.10524 11.1567 6.8805 11.3434 6.61717 11.4556C6.35372 11.5664 6.06313 11.5958 5.78281 11.5401C5.5025 11.4843 5.24529 11.3459 5.04431 11.1427C4.84377 10.9387 4.70752 10.6803 4.65245 10.3996C4.59739 10.1188 4.62592 9.82813 4.73453 9.56347C4.84313 9.29881 5.02702 9.07184 5.2634 8.9107C5.49979 8.74957 5.77827 8.66136 6.06431 8.65701C6.35106 8.65626 6.63143 8.74165 6.86908 8.90212C7.10673 9.0626 7.29071 9.29074 7.39717 9.55701C7.47002 9.72843 7.5086 9.92129 7.5086 10.1141ZM19.38 10.1141C19.3783 10.4008 19.2925 10.6807 19.1333 10.9192C18.9741 11.1576 18.7484 11.3441 18.4843 11.4556C18.3089 11.5289 18.1206 11.5667 17.9304 11.5667C17.7403 11.5667 17.552 11.5289 17.3766 11.4555C17.2012 11.3822 17.042 11.2747 16.9085 11.1393C16.7749 11.004 16.6696 10.8434 16.5986 10.667C16.4896 10.4011 16.4611 10.1091 16.5167 9.82713C16.5723 9.54519 16.7096 9.28583 16.9115 9.08129C17.1129 8.87565 17.3713 8.73509 17.6534 8.67777C17.9355 8.62044 18.2283 8.64898 18.494 8.7597C18.7597 8.87041 18.9862 9.05822 19.1441 9.29889C19.302 9.53956 19.3842 9.82203 19.38 10.1099V10.1141Z" fill="white"/>
<path d="M19.1229 9.73284C19.1572 9.91284 19.1658 10.0671 19.1572 10.1914C19.1466 10.3567 19.1026 10.5181 19.0277 10.6659C18.9528 10.8136 18.8487 10.9446 18.7216 11.0508C18.5945 11.157 18.4472 11.2363 18.2885 11.2838C18.1298 11.3313 17.9632 11.3461 17.7986 11.3271C17.5055 11.2927 17.2339 11.1561 17.0315 10.9414C16.9794 10.8913 16.9397 10.8296 16.9158 10.7614C16.8858 10.6757 16.8772 10.5771 16.8943 10.4614C16.8956 10.4433 16.8911 10.4253 16.8815 10.41C16.8386 10.3243 16.7743 10.2686 16.7529 10.1743C16.6972 9.89998 16.7615 9.63427 16.9458 9.38141C17.0058 9.30427 17.0829 9.25284 17.1772 9.22284L17.2115 9.20141C17.2886 9.1157 17.3315 9.02998 17.4343 8.98284C17.7043 8.85427 18.0343 8.84141 18.3 8.92712C18.3429 8.94427 18.3429 8.95284 18.3 8.96141L18.2572 8.96998C18.2515 8.97165 18.2464 8.97499 18.2425 8.97957C18.2387 8.98415 18.2364 8.98977 18.2358 8.9957C18.2358 9.02998 18.2443 9.0557 18.27 9.07712C18.2829 9.0857 18.2829 9.08998 18.2658 9.08998C18.1929 9.10284 18.1372 9.13284 18.09 9.17998C18.0772 9.19712 18.0686 9.19284 18.0686 9.17141C18.0675 9.16575 18.0675 9.15992 18.0686 9.15427C18.0772 9.1457 18.0729 9.13712 18.0686 9.13284C17.9786 9.04712 17.8458 9.16713 17.7772 9.22713L17.7686 9.2357V9.24427L17.7729 9.25284L17.7815 9.26141L17.8372 9.28284C17.8543 9.29141 17.8672 9.28712 17.88 9.27427L17.9058 9.22713C17.9186 9.21427 17.9315 9.20998 17.9486 9.21855L17.9615 9.22713C17.9743 9.2357 17.9786 9.24427 17.97 9.26141C17.9272 9.32141 17.8758 9.34713 17.8072 9.33427C17.79 9.32998 17.7729 9.33427 17.7558 9.33855L17.6015 9.42427C17.5948 9.42754 17.589 9.43236 17.5845 9.43832C17.58 9.44428 17.577 9.45121 17.5758 9.45855L17.5715 9.49712C17.5672 9.51855 17.5543 9.52712 17.5286 9.52284L17.4943 9.50998C17.4772 9.50998 17.4643 9.50998 17.4515 9.52284C17.4129 9.57427 17.4086 9.61712 17.4386 9.65141C17.4464 9.65805 17.4563 9.6617 17.4665 9.6617C17.4767 9.6617 17.4866 9.65805 17.4943 9.65141L17.6529 9.5357C17.663 9.52869 17.6749 9.52494 17.6872 9.52494C17.6994 9.52494 17.7114 9.52869 17.7215 9.5357C17.7643 9.56141 17.79 9.59998 17.7943 9.64712C17.7943 9.65141 17.7943 9.6557 17.8029 9.6557H17.82V9.64712C17.8228 9.62516 17.8203 9.60287 17.8129 9.58202C17.8054 9.56118 17.7932 9.54238 17.7772 9.52712V9.5057L17.7986 9.49712H17.8072C17.85 9.5357 17.8715 9.57855 17.8843 9.6257C17.8886 9.64712 17.9015 9.65141 17.9186 9.64712C17.9393 9.64059 17.9581 9.62891 17.9731 9.61317C17.9881 9.59743 17.9988 9.57815 18.0043 9.55712C18.0061 9.54913 18.0104 9.54192 18.0166 9.53652C18.0227 9.53113 18.0304 9.52784 18.0386 9.52712C18.09 9.52284 18.1286 9.52713 18.1629 9.55284C18.2315 9.60427 18.2229 9.6257 18.1372 9.61284C18.089 9.60244 18.0387 9.61006 17.9958 9.63427C17.9829 9.64284 17.9829 9.65141 17.9872 9.66427C17.9958 9.6857 18.0172 9.69855 18.0429 9.69855H18.1072C18.1243 9.69855 18.1329 9.70712 18.1372 9.72427C18.1415 9.75855 18.12 9.79284 18.0858 9.79712C18.0285 9.80893 17.9691 9.80448 17.9143 9.78427C17.9089 9.78136 17.9026 9.78021 17.8965 9.78098C17.8904 9.78175 17.8846 9.78439 17.88 9.78855C17.8158 9.85284 17.7 9.77141 17.6915 9.69855C17.6915 9.68141 17.6829 9.67284 17.6658 9.67284L17.4215 9.70284C17.4132 9.703 17.405 9.705 17.3976 9.70871C17.3902 9.71242 17.3837 9.71773 17.3786 9.72427C17.3186 9.80998 17.2243 9.84427 17.19 9.93855C17.1386 10.0928 17.1558 10.2086 17.2758 10.3243C17.2843 10.3308 17.295 10.3339 17.3058 10.3328H17.4815C17.4986 10.3328 17.5115 10.3371 17.5243 10.3457L17.61 10.3886C17.6179 10.3922 17.6243 10.3985 17.6282 10.4063C17.6321 10.414 17.6332 10.4229 17.6315 10.4314C17.6297 10.4436 17.6253 10.4553 17.6186 10.4657C17.612 10.4735 17.6083 10.4833 17.6083 10.4936C17.6083 10.5038 17.612 10.5136 17.6186 10.5214C17.6872 10.5857 17.7343 10.6843 17.6829 10.7743C17.6784 10.7821 17.676 10.791 17.676 10.8C17.676 10.809 17.6784 10.8179 17.6829 10.8257L17.8115 11.0657C17.816 11.0744 17.8227 11.0818 17.831 11.087C17.8393 11.0923 17.8488 11.0953 17.8586 11.0957C18 11.1043 18.0943 11.0357 18.1458 10.89C18.1512 10.8731 18.1602 10.8575 18.172 10.8442C18.1838 10.831 18.1982 10.8203 18.2143 10.8128C18.2308 10.8057 18.2446 10.7936 18.2538 10.7783C18.2631 10.7629 18.2672 10.745 18.2658 10.7271C18.2648 10.7167 18.2618 10.7065 18.2572 10.6971C18.2416 10.6651 18.2342 10.6298 18.2358 10.5943C18.2358 10.5728 18.2443 10.5514 18.2615 10.5343C18.3472 10.4443 18.4329 10.3628 18.4672 10.2343C18.4758 10.2086 18.4672 10.2043 18.4415 10.2128L18.3515 10.2557C18.3429 10.2557 18.3343 10.2557 18.33 10.2471L18.3172 10.23C18.3086 10.2214 18.3129 10.2128 18.3258 10.2086C18.4372 10.1528 18.5229 10.08 18.5829 9.99427C18.5892 9.98552 18.5926 9.97503 18.5926 9.96427C18.5926 9.9535 18.5892 9.94301 18.5829 9.93427C18.5769 9.92558 18.5681 9.91916 18.558 9.91605C18.5479 9.91294 18.537 9.91332 18.5272 9.91712C18.4586 9.93427 18.4072 9.91284 18.3729 9.84427C18.3558 9.81427 18.3643 9.8057 18.3943 9.82712C18.4629 9.86998 18.5486 9.88284 18.6472 9.86141H18.69C18.8015 9.9257 18.8186 10.0071 18.87 10.11C18.9086 10.1871 18.9258 10.1786 18.9258 10.0971C18.9248 10.0003 18.9363 9.90382 18.96 9.80998C18.9629 9.80741 18.9664 9.80566 18.9702 9.8049C18.9739 9.80415 18.9778 9.80442 18.9815 9.8057L18.99 9.80998L19.0715 9.91712C19.0762 9.92377 19.0828 9.92892 19.0904 9.93196C19.098 9.935 19.1063 9.9358 19.1143 9.93427C19.1229 9.93427 19.1315 9.93427 19.1358 9.92141C19.1405 9.91635 19.1438 9.9101 19.1454 9.90331C19.1469 9.89652 19.1465 9.88944 19.1443 9.88284C19.1294 9.83427 19.1221 9.78365 19.1229 9.73284ZM6.35575 9.80998L6.28289 9.6557C6.27861 9.64284 6.28289 9.62998 6.29147 9.62141L6.34289 9.56998C6.35248 9.56094 6.35856 9.54879 6.36004 9.5357C6.36861 9.46284 6.40289 9.40712 6.45432 9.36427C6.47147 9.34712 6.49718 9.34284 6.51432 9.34712C6.53147 9.35141 6.54004 9.34713 6.54861 9.33427V9.32141C6.54689 9.3176 6.54384 9.31456 6.54004 9.31284L6.45432 9.26998C6.45135 9.2683 6.44894 9.26577 6.44742 9.26272C6.44589 9.25967 6.44531 9.25623 6.44575 9.25284V9.24427L6.45432 9.23998C6.49718 9.22712 6.54432 9.2357 6.58718 9.2657H6.60004L6.60861 9.25712C6.53575 9.17141 6.44575 9.1157 6.33861 9.09427C6.33285 9.09319 6.32746 9.09066 6.32296 9.0869C6.31846 9.08315 6.31499 9.07831 6.31289 9.07284C6.31289 9.06427 6.31289 9.05141 6.32147 9.04713C6.32599 9.04376 6.32927 9.03899 6.33082 9.03357C6.33237 9.02815 6.33209 9.02237 6.33004 9.01713L6.32575 9.00427C6.29909 8.97863 6.26411 8.96342 6.22718 8.96141C6.20575 8.96141 6.20147 8.97427 6.21432 8.99141L6.24432 9.03427C6.25289 9.04712 6.25718 9.05998 6.25289 9.07712C6.25289 9.09855 6.25289 9.11998 6.26147 9.13712C6.27861 9.16712 6.27432 9.19284 6.25718 9.21427L6.24861 9.21855C6.2459 9.21973 6.24299 9.22034 6.24004 9.22034C6.23709 9.22034 6.23417 9.21973 6.23147 9.21855L6.22289 9.20998C6.21251 9.19242 6.19821 9.17748 6.18111 9.16633C6.16402 9.15518 6.14459 9.14812 6.12432 9.1457C6.03861 9.13284 6.03004 9.10284 6.10289 9.05998C6.12245 9.0483 6.1389 9.03207 6.15084 9.01267C6.16278 8.99327 6.16985 8.97128 6.17147 8.94855C6.17378 8.93815 6.17989 8.92898 6.18861 8.92284C6.19306 8.92014 6.19801 8.91836 6.20317 8.91763C6.20833 8.91689 6.21358 8.91721 6.21861 8.91855C6.30432 8.93998 6.39432 8.98713 6.48432 9.05141C6.49289 9.05998 6.50147 9.05998 6.50575 9.05141C6.51 9.04521 6.51294 9.03822 6.51441 9.03086C6.51589 9.02349 6.51586 9.01591 6.51432 9.00855C6.5095 8.98896 6.49719 8.97204 6.48004 8.96141L6.44575 8.9357C6.42004 8.91855 6.42432 8.91427 6.45004 8.92712C6.73718 9.0257 7.07147 9.26141 7.16575 9.56998C7.20861 9.70284 7.25147 9.8357 7.28147 9.9557C7.29822 10.2584 7.20258 10.5566 7.01292 10.7932C6.82326 11.0297 6.55293 11.1878 6.25381 11.2372C5.95469 11.2866 5.64786 11.2238 5.39221 11.0609C5.13656 10.8979 4.9501 10.6463 4.86861 10.3543C4.81648 10.0812 4.85739 9.79858 4.98481 9.55152C5.11222 9.30447 5.31878 9.10726 5.57147 8.99141C5.61432 8.96998 5.61861 8.97427 5.58432 9.00855C5.5579 9.0346 5.52753 9.0563 5.49432 9.07284C5.46432 9.0857 5.46432 9.09427 5.49861 9.09427L5.56289 9.08141C5.56862 9.07819 5.57537 9.07728 5.58174 9.07887C5.58812 9.08047 5.59364 9.08444 5.59718 9.08998V9.25712C5.59718 9.27427 5.59289 9.29141 5.58004 9.29998C5.52432 9.36427 5.48575 9.44998 5.53718 9.53141C5.56289 9.58284 5.58004 9.64284 5.62718 9.68141C5.69147 9.73284 5.73432 9.80141 5.75147 9.87855C5.75575 9.89998 5.76432 9.91284 5.78147 9.92141C5.82432 9.95141 5.86718 9.97284 5.91432 9.98141C6.05745 10.007 6.18668 10.083 6.27861 10.1957L6.28718 10.1828C6.28961 10.1798 6.29094 10.176 6.29094 10.1721C6.29094 10.1682 6.28961 10.1645 6.28718 10.1614C6.2758 10.1471 6.26825 10.1302 6.26525 10.1122C6.26225 10.0942 6.2639 10.0757 6.27004 10.0586C6.2713 10.0537 6.2715 10.0487 6.27063 10.0438C6.26975 10.0389 6.26782 10.0343 6.26497 10.0302C6.26211 10.0261 6.2584 10.0227 6.2541 10.0202C6.24979 10.0177 6.24499 10.0162 6.24004 10.0157L6.17147 10.0028C6.15004 10.0028 6.14147 9.98998 6.15004 9.96855L6.17575 9.91284C6.18004 9.89141 6.17575 9.87855 6.15861 9.86998C6.1559 9.8688 6.15299 9.86819 6.15004 9.86819C6.14709 9.86819 6.14417 9.8688 6.14147 9.86998C6.13367 9.87083 6.12626 9.87379 6.12004 9.87855C6.10729 9.89327 6.09582 9.90904 6.08575 9.9257C6.08138 9.93327 6.07516 9.93961 6.06766 9.94411C6.06016 9.94861 6.05163 9.95112 6.04289 9.95141C5.91432 9.94284 5.91861 9.78427 5.97432 9.70284C5.97919 9.69606 5.98564 9.69056 5.9931 9.68683C6.00057 9.6831 6.00883 9.68124 6.01718 9.68141C6.07289 9.6857 6.12432 9.68141 6.17147 9.66855C6.18861 9.66427 6.20575 9.66855 6.21861 9.67712C6.27861 9.7157 6.28718 9.77998 6.34718 9.82712C6.36432 9.83998 6.36861 9.8357 6.35575 9.81427V9.80998Z" fill="#3E3E3E"/>
<path d="M6.17997 9.3215C6.1479 9.31565 6.11817 9.30079 6.09425 9.27864L6.08997 9.26579V9.25293H6.11568C6.14139 9.26579 6.16711 9.28293 6.18854 9.30436C6.21425 9.3215 6.20997 9.33007 6.17997 9.3215ZM18.3085 9.49293L18.2871 9.50579C18.2851 9.50655 18.2832 9.50783 18.2818 9.5095C18.2804 9.51116 18.2794 9.51316 18.279 9.51531C18.2786 9.51745 18.2787 9.51967 18.2794 9.52176C18.28 9.52384 18.2812 9.52572 18.2828 9.52722L18.3771 9.67722C18.3771 9.68579 18.39 9.69007 18.3943 9.6815L18.42 9.66864C18.4217 9.66747 18.4232 9.66588 18.4242 9.66401C18.4252 9.66214 18.4257 9.66005 18.4257 9.65793C18.4257 9.65581 18.4252 9.65372 18.4242 9.65185C18.4232 9.64998 18.4217 9.64839 18.42 9.64722L18.33 9.49722C18.3288 9.49545 18.3272 9.494 18.3253 9.49299C18.3235 9.49199 18.3214 9.49147 18.3193 9.49147C18.3171 9.49147 18.315 9.49199 18.3132 9.49299C18.3113 9.494 18.3097 9.49545 18.3085 9.49722V9.49293Z" fill="#3E3E3E"/>
<path d="M6.42852 9.87422H6.40709C6.39423 9.86136 6.39423 9.85279 6.41566 9.85707C6.45852 9.85707 6.50138 9.86136 6.54423 9.87422C6.56138 9.88279 6.56566 9.89136 6.54423 9.89564C6.51852 9.9085 6.48852 9.90421 6.45852 9.8785L6.44566 9.87422H6.42852Z" fill="white"/>
<path d="M18.1929 10.0544C18.2486 10.1401 18.3 10.1958 18.3129 10.1873C18.3257 10.1787 18.2914 10.1058 18.2357 10.0244C18.18 9.94726 18.1286 9.88726 18.1157 9.89584C18.1029 9.90441 18.1372 9.97726 18.1929 10.0544Z" fill="#3E3E3E"/>
<path d="M6.50576 10.7486C6.40291 10.7143 6.37719 10.5986 6.31719 10.5172C6.3127 10.5111 6.30961 10.5041 6.30813 10.4967C6.30665 10.4893 6.30681 10.4817 6.30862 10.4743C6.31719 10.4229 6.32576 10.3758 6.36005 10.3329C6.39005 10.2986 6.40291 10.2601 6.40291 10.2215C6.40291 10.2043 6.40291 10.1958 6.41148 10.1872C6.47148 10.1229 6.54005 10.0843 6.62576 10.1143C6.66005 10.1272 6.69434 10.1315 6.72862 10.1272C6.74576 10.1272 6.75434 10.1272 6.76291 10.1401C6.80576 10.1872 6.84862 10.2129 6.90434 10.2258C6.92148 10.2258 6.93434 10.2301 6.94719 10.2429C6.97719 10.2729 6.99005 10.3158 7.02434 10.3415C7.06291 10.3672 7.10148 10.3843 7.14005 10.3929C7.14581 10.394 7.1512 10.3965 7.1557 10.4003C7.1602 10.404 7.16367 10.4089 7.16576 10.4143C7.16841 10.4197 7.16978 10.4255 7.16978 10.4315C7.16978 10.4374 7.16841 10.4433 7.16576 10.4486C7.09291 10.5686 7.06719 10.7101 6.95148 10.8043C6.86148 10.8815 6.80576 10.9843 6.69434 11.0486C6.57096 11.1182 6.45593 11.2016 6.35148 11.2972H6.33005C6.30862 11.2929 6.30434 11.2801 6.31719 11.2629C6.41148 11.1343 6.48862 10.9801 6.53576 10.8043C6.53773 10.7987 6.5385 10.7928 6.53804 10.7868C6.53757 10.7809 6.53587 10.7751 6.53305 10.7699C6.53022 10.7646 6.52634 10.76 6.52164 10.7564C6.51694 10.7527 6.51154 10.7501 6.50576 10.7486Z" fill="white"/>
<path d="M9.06427 18.1288C7.94634 17.5999 6.98741 16.7859 6.28397 15.7688C5.58053 14.7516 5.15739 13.5671 5.05713 12.3345H5.07427C5.3657 12.463 5.68713 12.5359 6.04713 12.5488C6.05817 12.5497 6.06852 12.5545 6.07636 12.5624C6.08419 12.5702 6.08902 12.5806 6.08999 12.5916C6.23484 13.6153 6.63991 14.5847 7.26646 15.4071C7.893 16.2295 8.72007 16.8773 9.66856 17.2888C9.6857 17.2973 9.69427 17.3102 9.68999 17.3273C9.60509 17.665 9.5905 18.0166 9.64713 18.3602C9.64436 18.3612 9.64133 18.3612 9.63856 18.3602C9.4457 18.3002 9.25284 18.223 9.06427 18.1288Z" fill="#138842"/>
<path d="M9.71139 17.0143C8.82408 16.6127 8.05249 15.9937 7.46813 15.2146C6.88377 14.4354 6.50555 13.5214 6.36853 12.5571C6.37048 12.5528 6.37344 12.5489 6.37717 12.5459C6.3809 12.543 6.38528 12.5409 6.38996 12.54C6.6106 12.5101 6.82659 12.4525 7.03282 12.3685C7.03577 12.3696 7.03845 12.3713 7.04068 12.3735C7.0429 12.3758 7.0446 12.3784 7.04567 12.3814C7.15223 13.2583 7.48857 14.0916 8.02065 14.7967C8.55272 15.5019 9.26165 16.054 10.0757 16.3971C10.0928 16.4057 10.0928 16.4185 10.0842 16.4314C9.95567 16.6028 9.84853 16.7871 9.75853 16.9928C9.74996 17.0143 9.73282 17.0228 9.71139 17.01V17.0143ZM17.6442 12.57C17.5025 13.5374 17.1175 14.453 16.5253 15.2311C15.9332 16.0091 15.1532 16.6241 14.2585 17.0185C14.2542 17.0155 14.2511 17.0109 14.25 17.0057C14.1629 16.7926 14.0476 16.5923 13.9071 16.41L13.9114 16.4014H13.92C14.7386 16.0567 15.4515 15.5017 15.9866 14.7928C16.5217 14.0838 16.86 13.246 16.9671 12.3643H16.9842C17.1913 12.4569 17.4108 12.519 17.6357 12.5485C17.6384 12.5514 17.6406 12.5547 17.6421 12.5584C17.6436 12.5621 17.6443 12.566 17.6442 12.57Z" fill="#3E3E3E"/>
<path d="M18.9471 12.3774C18.8279 13.6938 18.3412 14.9503 17.5426 16.0036C16.7439 17.0568 15.6654 17.8645 14.43 18.3345C14.4276 18.3332 14.4256 18.3314 14.4241 18.3291C14.4226 18.3269 14.4217 18.3243 14.4214 18.3217C14.4749 17.9815 14.4559 17.6339 14.3657 17.3017C14.3571 17.2845 14.3657 17.2717 14.3828 17.2631C15.3215 16.8469 16.1383 16.1977 16.7556 15.3771C17.3729 14.5565 17.7702 13.5918 17.91 12.5745C17.91 12.5574 17.9228 12.5488 17.9442 12.5488C18.2823 12.5503 18.6173 12.4847 18.93 12.356C18.9337 12.3564 18.9372 12.3578 18.9402 12.3601C18.9433 12.3623 18.9456 12.3654 18.9471 12.3688V12.3774Z" fill="#138842"/>
<path d="M13.4443 17.9274C13.4432 18.3113 13.2911 18.6793 13.0208 18.952C12.7505 19.2246 12.3839 19.38 12 19.3845C11.6328 19.3563 11.2898 19.1906 11.0396 18.9204C10.7894 18.6503 10.6504 18.2956 10.6504 17.9274C10.6504 17.5591 10.7894 17.2045 11.0396 16.9343C11.2898 16.6641 11.6328 16.4984 12 16.4702C12.3839 16.4747 12.7505 16.6301 13.0208 16.9027C13.2911 17.1754 13.4432 17.5435 13.4443 17.9274Z" fill="white"/>
<path d="M12.18 16.9328C12.2014 16.9114 12.1971 16.8942 12.1628 16.89C12.1443 16.8867 12.1268 16.8793 12.1114 16.8685C12.1078 16.8668 12.1047 16.864 12.1026 16.8606C12.1004 16.8572 12.0993 16.8533 12.0993 16.8492C12.0993 16.8452 12.1004 16.8413 12.1026 16.8379C12.1047 16.8345 12.1078 16.8317 12.1114 16.83H12.12L12.3085 16.8214C12.3128 16.8214 12.3171 16.8214 12.3214 16.83L12.33 16.8471L12.3342 16.89L12.3514 16.9071H12.3728C12.3857 16.9071 12.3942 16.8985 12.3942 16.8857V16.8428C12.3944 16.8379 12.3956 16.833 12.3979 16.8285C12.4001 16.8241 12.4032 16.8202 12.4071 16.8171C12.4119 16.8134 12.4176 16.8111 12.4237 16.8103C12.4297 16.8096 12.4358 16.8104 12.4414 16.8128C12.6694 16.905 12.8646 17.0632 13.0021 17.267C13.1396 17.4709 13.213 17.7112 13.213 17.9571C13.213 18.203 13.1396 18.4433 13.0021 18.6472C12.8646 18.851 12.6694 19.0092 12.4414 19.1014C12.3471 19.1442 12.2485 19.1614 12.1414 19.1571C11.8842 19.1442 11.6185 19.1657 11.3871 19.0285C11.2205 18.9314 11.0787 18.7968 10.9731 18.6353C10.8674 18.4739 10.8008 18.2901 10.7785 18.0985C10.7571 17.9271 10.7742 17.7385 10.8514 17.5842C10.884 17.5219 10.9084 17.4556 10.9242 17.3871L10.9285 17.3828C10.9309 17.3807 10.9339 17.3795 10.9371 17.3795C10.9403 17.3795 10.9433 17.3807 10.9457 17.3828L10.9542 17.3957C10.9656 17.4082 10.9736 17.4235 10.9773 17.44C10.9811 17.4565 10.9805 17.4737 10.9757 17.49C10.9457 17.6271 10.9542 17.7257 11.0014 17.7771C11.0271 17.8028 11.0357 17.8028 11.0228 17.7685L11.0057 17.7042C11.0005 17.689 11.0005 17.6724 11.0057 17.6571C11.0485 17.5628 11.1042 17.4857 11.1857 17.4171C11.19 17.4141 11.195 17.4122 11.2002 17.4115C11.2054 17.4107 11.2107 17.4112 11.2157 17.4128L11.2328 17.4214L11.2371 17.4385C11.2542 17.5242 11.2971 17.5928 11.3657 17.6314C11.3957 17.6485 11.4085 17.67 11.4342 17.6914C11.442 17.698 11.4519 17.7017 11.4621 17.7017C11.4723 17.7017 11.4822 17.698 11.49 17.6914C11.5414 17.6314 11.5457 17.5757 11.5071 17.52C11.4685 17.4685 11.4814 17.4385 11.5457 17.4342C11.6957 17.4128 11.9228 17.31 11.8028 17.1128C11.7857 17.0828 11.79 17.07 11.8242 17.0614H11.8671C11.879 17.0626 11.8902 17.0673 11.8994 17.075C11.9085 17.0826 11.9152 17.0928 11.9185 17.1042C11.9357 17.1471 11.9657 17.1771 12.0128 17.2028C12.0257 17.2114 12.0342 17.2071 12.0385 17.1942C12.0405 17.1899 12.0434 17.1861 12.0472 17.1831C12.0509 17.1801 12.0553 17.178 12.06 17.1771C12.1114 17.1642 12.1842 17.16 12.21 17.1042C12.2262 17.0695 12.2321 17.0308 12.2271 16.9928C12.2271 16.9671 12.2228 16.9671 12.2142 16.9928C12.1885 17.0785 12.1285 17.1342 12.0257 17.1728H12.0128C12.0076 17.1717 12.003 17.1686 12 17.1642C11.97 17.1214 11.9657 17.0871 11.9828 17.0528C11.9863 17.0467 11.9913 17.0415 11.9973 17.0378C12.0033 17.0341 12.0101 17.0319 12.0171 17.0314C12.0771 17.0185 12.1285 16.9885 12.18 16.9328Z" fill="#138842"/>
<path d="M11.7986 17.5843C11.7772 17.5671 11.7686 17.5414 11.7815 17.5157C11.8029 17.4771 11.8158 17.4814 11.8243 17.5243C11.8329 17.61 11.8758 17.67 11.9186 17.7471C11.9205 17.7504 11.9215 17.7541 11.9215 17.7578C11.9215 17.7616 11.9205 17.7653 11.9186 17.7686C11.9171 17.772 11.9148 17.775 11.9118 17.7773C11.9088 17.7795 11.9052 17.781 11.9015 17.7814H11.8843C11.8758 17.7857 11.8672 17.7814 11.8629 17.7686L11.8329 17.6314C11.8273 17.6122 11.8152 17.5955 11.7986 17.5843ZM11.3229 17.7043L11.3829 17.7943C11.3915 17.8114 11.3958 17.8286 11.3958 17.85C11.3829 17.9143 11.4086 17.9871 11.4686 18.0557C11.5115 18.1028 11.5672 18.09 11.6143 18.1286C11.6272 18.1414 11.6229 18.15 11.6058 18.1457C11.4172 18.1328 11.3358 18.0086 11.2586 17.8543C11.2415 17.8243 11.25 17.82 11.28 17.8328C11.2881 17.8374 11.2953 17.8432 11.3015 17.85C11.3143 17.8586 11.3229 17.8586 11.3315 17.85C11.336 17.8422 11.3384 17.8333 11.3384 17.8243C11.3384 17.8152 11.336 17.8064 11.3315 17.7986C11.3203 17.7708 11.3117 17.7421 11.3058 17.7128C11.3058 17.6871 11.3058 17.6828 11.3229 17.7043ZM11.6443 18.0343L11.55 18C11.5443 17.9974 11.5398 17.9928 11.5372 17.9871L11.5158 17.9443C11.5121 17.939 11.5105 17.9326 11.5113 17.9263C11.5121 17.92 11.5152 17.9141 11.52 17.91L11.7 17.7643C11.7042 17.7618 11.709 17.7606 11.7138 17.7607C11.7187 17.7608 11.7234 17.7623 11.7274 17.765C11.7314 17.7677 11.7346 17.7715 11.7366 17.7759C11.7386 17.7803 11.7393 17.7852 11.7386 17.79L11.6743 18.0171C11.6718 18.0228 11.6672 18.0274 11.6615 18.03C11.6559 18.0319 11.6499 18.0319 11.6443 18.03V18.0343ZM11.8115 18.0086L11.82 18.03C11.819 18.0349 11.8163 18.0393 11.8124 18.0424C11.8085 18.0456 11.8036 18.0472 11.7986 18.0471C11.7515 18.0428 11.7343 18.0171 11.7558 17.9786C11.7729 17.94 11.7986 17.9186 11.8415 17.9143C11.8715 17.9057 11.8715 17.9143 11.8543 17.9357L11.8115 17.9786C11.8088 17.9806 11.8067 17.9831 11.8052 17.9861C11.8037 17.9891 11.8029 17.9924 11.8029 17.9957C11.8041 18.0009 11.8071 18.0055 11.8115 18.0086ZM12.3343 18.1286C12.2743 18.1628 12.2358 18.15 12.21 18.0857C12.2069 18.0765 12.2012 18.0684 12.1936 18.0624C12.186 18.0563 12.1768 18.0525 12.1672 18.0514C12.1394 18.0466 12.1128 18.0362 12.0893 18.0207C12.0657 18.0052 12.0455 17.985 12.03 17.9614C12.0284 17.9595 12.0273 17.9573 12.0266 17.9549C12.026 17.9525 12.0259 17.95 12.0263 17.9476C12.0267 17.9451 12.0276 17.9428 12.029 17.9407C12.0304 17.9387 12.0322 17.937 12.0343 17.9357H12.0429C12.0643 17.9357 12.0772 17.9443 12.0943 17.9571C12.1072 17.97 12.12 17.9743 12.1372 17.9743C12.2743 17.9743 12.3772 18.0171 12.45 18.1243C12.4843 18.1714 12.4758 18.1843 12.4243 18.1543C12.4113 18.1474 12.3984 18.1403 12.3858 18.1328C12.3779 18.1283 12.3691 18.126 12.36 18.126C12.351 18.126 12.3421 18.1283 12.3343 18.1328V18.1286ZM12.0172 18.2657C12.0472 18.2228 12.0858 18.21 12.1372 18.2228C12.1436 18.2247 12.1492 18.2287 12.1531 18.2342C12.1569 18.2396 12.1589 18.2462 12.1586 18.2528C12.1586 18.3086 12.1886 18.3428 12.2443 18.3643C12.2515 18.3673 12.2594 18.3682 12.2671 18.3666C12.2747 18.3651 12.2817 18.3613 12.2872 18.3557C12.2912 18.3511 12.2941 18.3456 12.2956 18.3396C12.2971 18.3336 12.2972 18.3274 12.2958 18.3214C12.2935 18.3043 12.2935 18.2871 12.2958 18.27C12.3086 18.2186 12.33 18.2186 12.3472 18.27C12.3772 18.3557 12.4243 18.4328 12.48 18.4971C12.4903 18.5086 12.4973 18.5226 12.5004 18.5376C12.5034 18.5527 12.5023 18.5683 12.4972 18.5828C12.4758 18.6386 12.4329 18.6986 12.39 18.7457C12.3744 18.7612 12.3556 18.7731 12.3348 18.7805C12.3141 18.7879 12.292 18.7907 12.27 18.7886C12.2548 18.7889 12.2398 18.7844 12.2272 18.7757C12.1415 18.7114 12.0686 18.6471 11.9572 18.6771L11.8072 18.72C11.7686 18.7243 11.7472 18.7157 11.73 18.6771L11.67 18.5143C11.6665 18.5062 11.6647 18.4974 11.6647 18.4886C11.6647 18.4797 11.6665 18.471 11.67 18.4628C11.6745 18.4549 11.6806 18.4481 11.688 18.4429C11.6955 18.4377 11.704 18.4343 11.7129 18.4328L11.7986 18.4114C11.8115 18.4114 11.8243 18.3986 11.8329 18.3857L11.8972 18.3043C11.9021 18.2975 11.9085 18.292 11.916 18.2883C11.9234 18.2845 11.9317 18.2827 11.94 18.2828H11.9829C11.9896 18.2832 11.9963 18.2818 12.0023 18.2788C12.0083 18.2758 12.0135 18.2713 12.0172 18.2657Z" fill="white"/>
</g>
<defs>
<clipPath id="clip0_31_19923">
<rect width="24" height="24" fill="white"/>
</clipPath>
</defs>
</svg>
