<svg xmlns="http://www.w3.org/2000/svg" width="24" height="24" fill="none" viewBox="0 0 24 24"><g clip-path="url(#a)"><path fill="url(#b)" d="M0 0h24v24H0z"/><path fill="#82DEFF" d="M17.572 11.82V10.49c0-.068.02-.205.214-.205.193 0 .214.137.214.205a38 38 0 0 0 0 1.218c.009.197.244.274.334.29.832 0 2.555.014 2.769 0 .214-.016.326-.2.326-.29V10.49c0-.102.077-.205.218-.205.133 0 .21.107.21.205v1.277a.66.66 0 0 1-.63.66H19.93V14.4c0 .069-.052.171-.215.171-.145 0-.214-.081-.214-.171v-1.972h-1.268c-.493 0-.643-.39-.66-.608m-1.603-1.534h-2.82c-.557 0-.712.492-.716.737 0 .728-.009 2.301 0 2.764.004.463.471.784.716.784h2.82c.557 0 .745-.501.745-.784v-2.764c0-.536-.428-.737-.745-.737"/><path fill="#111317" d="M15.832 10.714h-2.47c-.45 0-.496.227-.5.425 0 .583-.01 2.194 0 2.563 0 .368.265.44.462.44h2.473c.446 0 .489-.243.489-.47V11.25c0-.428-.206-.536-.455-.536"/><path fill="#82DEFF" d="M7.286 10.856v3.475c0 .138.051.24.214.24.184 0 .214-.141.214-.24v-3.325c0-.202.137-.296.193-.292h2.88c.249 0 .356.21.356.262 0 .257.008.552 0 .758a.274.274 0 0 1-.27.266H9.59c-.064 0-.218.008-.291.124s-.009.253.034.304l1.809 2.015c.085.085.287.188.385.043.103-.142-.03-.27-.11-.36l-1.475-1.697h1.028a.634.634 0 0 0 .6-.553v-.943c-.012-.506-.441-.643-.647-.647H7.907c-.458 0-.643.368-.617.57zm-1.127-.57H1.933c-.064 0-.219.043-.219.218 0 .137.146.193.219.21h1.924v3.665c0 .085.082.192.214.192.138 0 .215-.09.215-.192v-3.665h1.873c.09.005.27-.008.27-.201 0-.189-.18-.223-.27-.227"/></g><defs><linearGradient id="b" x1="4.466" x2="29.207" y1="4.161" y2="32.58" gradientUnits="userSpaceOnUse"><stop stop-color="#1A1E21"/><stop offset="1" stop-color="#06060A"/></linearGradient><clipPath id="a"><path fill="#fff" d="M0 0h24v24H0z"/></clipPath></defs></svg>