<svg xmlns="http://www.w3.org/2000/svg" width="24" height="24" fill="none" viewBox="0 0 24 24"><g clip-path="url(#a)"><path fill="url(#b)" d="M0 0h24v24H0z"/><path fill="#fff" d="M6.857 7.286H5.143v6a3.43 3.43 0 0 0 3.428 3.428H9a3.43 3.43 0 0 0 3.428-3.428v-6h-1.714v5.785a1.929 1.929 0 0 1-3.857 0zm6.429 2.571H15v6.429h-1.714z"/><path fill="#fff" d="M16.929 9.643A2.357 2.357 0 0 0 14.572 12v4.286H15v-3.857a1.286 1.286 0 0 1 2.572 0v3.857h1.714V12a2.357 2.357 0 0 0-2.357-2.357"/></g><defs><linearGradient id="b" x1="12" x2="12" y1="0" y2="24" gradientUnits="userSpaceOnUse"><stop stop-color="#5079DD"/><stop offset="1" stop-color="#3E3BAC"/></linearGradient><clipPath id="a"><path fill="#fff" d="M0 0h24v24H0z"/></clipPath></defs></svg>