<svg xmlns="http://www.w3.org/2000/svg" width="24" height="24" fill="none" viewBox="0 0 24 24"><g clip-path="url(#a)"><path fill="#F0F3FA" d="M0 0h24v24H0z"/><path fill="url(#b)" d="M8.713 9.356c-1.329-1.997.446-3.926 1.5-4.642C6.746 5.284 6.549 7.81 6.883 9c-.669-.141-.836-1.487-.836-2.143-1.465 2.713-.055 4.466.836 5.002a3.47 3.47 0 0 1-2.169-1.787c0 2.43 2.225 3.63 3.335 3.93-.802 0-1.779-.24-2.169-.36.403 1.714 3.172 2.742 4.5 3.038-.227-.124-.793-.771-1.157-1.217.377.39 1.114.836 1.491 1.037-.12 0-.244.142-.398.326-.27.317-.635.745-1.269.745-.801 0-1.556-.595-1.834-.89.334 1.246.668 1.782 1.5 1.962.669.141 1.389-.536 1.671-.892-.402 1.14-1.5 1.188-2.001 1.072.107.176.531.536 1.329.536.8 0 1.337-1.192 1.5-1.788a2.63 2.63 0 0 1-1.166 2.143h1.003c1.328-.287 1.221-1.787.998-2.498.669.998.386 1.843.167 2.143 1.2-.575.943-1.672.669-2.143.266.141.441.771.497 1.071.266-.857 0-1.431-.167-1.607.536-.146 1.444-1.011 1.834-1.431a4.5 4.5 0 0 1-1.333 1.431c3.069 0 4.389-2.027 4.667-3.038-1.2.428-1.945.42-2.168.36a4.35 4.35 0 0 0 3.501-3.93 2.64 2.64 0 0 1-2.168 1.787c2.271-1.573 1.397-3.986.668-5.002.133 1.427-.501 2.143-.831 2.323.531-3.287-2.001-4.346-3.334-4.466 2.931 2.143 2.22 4.106 1.5 4.822 1.067 3-.557 4.106-1.5 4.286 1.328-.858 1.328-1.903 1.165-2.323-.133 1.144-1.165 1.431-1.667 1.431.536-1.286-.334-2.678-.831-3.214.128-.146.497-.06.664 0 0-.146-.441-.18-.664-.18.325-.104.674-.104.998 0a1.93 1.93 0 0 0-1.5-.356c.532-.146.887-.06.999 0a1.44 1.44 0 0 0-.999-.36c-.531 0-1.221.476-1.5.716l-.167-.18c.056.12.099.428-.167.716-.266.287-.334.83-.334 1.07 0-.286.334-.355.501-.355l-.167.176c.934-.429 1.277.42 1.333.896 0 .857-.557 1.187-.831 1.247-1.068-.142-1.668-1.132-1.835-1.607-.214 1.17.364 1.86.857 2.168-1.928-1.071-1.611-3.291-1.191-4.311m2.001.896c0-.12.133-.395.665-.536v.176z"/><path fill="url(#c)" d="m14.267 13.766-.051.056c.33.18 1.23.535 2.164.535a3.43 3.43 0 0 0 2.002-.711c-1.2.428-1.946.415-2.169.355a4.29 4.29 0 0 0 3.038-2.297l.416-1.221.034-.232c-1.217 2.636-3.385 3.168-4.645 3.078-.257.214-.536.36-.789.437"/><path fill="url(#d)" d="M15.141 13.251c1.74 0 3.442-.788 4.449-2.438q.1-.365.124-.742a2.65 2.65 0 0 1-2.168 1.787c2.057-1.423 1.53-3.54.874-4.675.244 1.538-.064 3.707-2.529 4.414a2.45 2.45 0 0 1-.75 1.654"/><path fill="url(#e)" d="M8.486 11.798C5.91 11.096 5.64 8.713 5.9 7.148c-1.221 2.546.125 4.192.978 4.71a3.45 3.45 0 0 1-2.045-1.56c.665 2.332 3.09 2.855 4.342 2.812a2.8 2.8 0 0 1-.69-1.312"/><path fill="url(#f)" d="M9.193 13.127c-2.7.086-3.921-1.551-4.329-2.786a3 3 0 0 1-.15-.27c0 2.43 2.225 3.63 3.335 3.93-.802 0-1.779-.24-2.169-.36l.017.06a3.25 3.25 0 0 0 1.817.656c1.2 0 2.169-.356 2.499-.536 0 0-1.243-.741-.304-.154a3 3 0 0 1-.716-.54"/><path fill="url(#g)" d="M10.174 4.744C9.16 5.19 7.714 6.142 7.38 7.573a2.86 2.86 0 0 0 1.046 2.906c-.057.438-.038.883.055 1.315-2.82-.822-2.897-3.291-2.468-4.868l.034-.069c0 .656.167 2.002.832 2.143-.33-1.191-.129-3.716 3.334-4.286l-.043.03z"/></g><defs><linearGradient id="b" x1="12.214" x2="12.214" y1="4.714" y2="19.714" gradientUnits="userSpaceOnUse"><stop stop-color="#FF680B"/><stop offset=".37" stop-color="#DF0B1B"/><stop offset=".5" stop-color="#F9580E"/><stop offset=".71" stop-color="#E51E18"/><stop offset="1" stop-color="#DB001D"/></linearGradient><linearGradient id="c" x1="16.547" x2="16.929" y1="13.106" y2="14.344" gradientUnits="userSpaceOnUse"><stop stop-color="#F34711"/><stop offset="1" stop-color="#FB5C0D"/></linearGradient><linearGradient id="d" x1="17.383" x2="17.383" y1="10.607" y2="12.75" gradientUnits="userSpaceOnUse"><stop stop-color="#ED3414"/><stop offset="1" stop-color="#F9560E"/></linearGradient><linearGradient id="e" x1="7.213" x2="6.476" y1="11.323" y2="12.527" gradientUnits="userSpaceOnUse"><stop stop-color="#EF3913"/><stop offset="1" stop-color="#FA580E"/></linearGradient><linearGradient id="f" x1="7.881" x2="7.41" y1="12.93" y2="14.34" gradientUnits="userSpaceOnUse"><stop stop-color="#F24311"/><stop offset="1" stop-color="#FB5C0D"/></linearGradient><linearGradient id="g" x1="8.019" x2="8.019" y1="4.714" y2="11.794" gradientUnits="userSpaceOnUse"><stop stop-color="#E21519"/><stop offset="1" stop-color="#F54A10"/></linearGradient><clipPath id="a"><path fill="#fff" d="M0 0h24v24H0z"/></clipPath></defs></svg>