<svg xmlns="http://www.w3.org/2000/svg" width="24" height="24" fill="none" viewBox="0 0 24 24"><g clip-path="url(#a)"><path fill="#00CCDA" d="M0 0h24v24H0z"/><path fill="#fff" d="M9.43 6.377c0-.944-.436-1.234-.858-1.234-.77 0-.873.848-.857 1.234v11.628c.006.098.055.403.352.69.26.25.772.158.953.077l10.042-5.837c.208-.107.636-.379.652-.922s-.37-.788-.566-.907l-5.95-3.451c-.214-.146-.762-.289-1.128-.052-.498.321-.498.723-.498.881v6.398c0 .13-.062.197-.096.214-.48.287-1.61.87-1.808.957s-.241-.036-.238-.108z"/><path fill="#00CCDA" d="M13.607 14.101a.214.214 0 0 1-.321-.187V10.14c0-.166.178-.269.32-.185l3.22 1.888a.216.216 0 0 1 0 .371z"/></g><defs><clipPath id="a"><path fill="#fff" d="M0 0h24v24H0z"/></clipPath></defs></svg>