<svg width="24" height="24" viewBox="0 0 24 24" fill="none" xmlns="http://www.w3.org/2000/svg">
<g clip-path="url(#clip0_31_20665)">
<path d="M0 0H24V24H0V0Z" fill="#1A3CF6"/>
<path fill-rule="evenodd" clip-rule="evenodd" d="M15.4285 9.85707H16.4013C16.4485 9.05136 16.9842 7.28564 18.7199 7.28564C19.1228 7.28564 19.6113 7.4485 19.8042 7.53422L19.6499 8.72993C19.414 8.61304 19.1546 8.55148 18.8913 8.54993C18.4542 8.54993 18.0599 8.75993 17.7985 9.85707H20.1428L19.457 14.5714H18.0428L18.5999 10.7142H17.6442L17.0999 14.5714H15.6856L16.2685 10.7142H15.2528L15.4242 9.85707H15.4285ZM4.1699 11.3399C4.36653 11.3399 4.55512 11.2618 4.69416 11.1228C4.83321 10.9837 4.91132 10.7951 4.91132 10.5985C4.91132 10.4019 4.83321 10.2133 4.69416 10.0742C4.55512 9.93519 4.36653 9.85707 4.1699 9.85707C3.97326 9.85707 3.78467 9.93519 3.64563 10.0742C3.50658 10.2133 3.42847 10.4019 3.42847 10.5985C3.42847 10.7951 3.50658 10.9837 3.64563 11.1228C3.78467 11.2618 3.97326 11.3399 4.1699 11.3399ZM3.74561 11.7428C3.99847 11.8114 4.59418 11.8585 4.98418 11.4856L5.20704 12.5099L6.7199 9.85707H7.59847L8.03561 12.5099L9.52704 9.85707H10.997L8.22418 14.5714H7.25561L6.74132 12.1028L5.35704 14.5714H4.44418L3.74561 11.7428ZM11.957 12.4285H15.1799C15.3213 11.5971 15.107 9.85707 13.097 9.85707C10.5856 9.85707 10.4999 12.0299 10.4999 12.4885C10.4999 12.9471 10.7313 14.5714 12.8999 14.5714C13.7185 14.5714 14.3913 14.3228 14.6228 14.2028L14.8885 12.9942C14.5928 13.1699 13.8299 13.5171 13.1442 13.5171C12.287 13.5171 11.8842 13.1314 11.957 12.4285ZM12.1585 11.5714H13.7999C13.8428 11.2842 13.7699 10.7142 13.1356 10.7142C12.5056 10.7142 12.2228 11.2842 12.1585 11.5714Z" fill="#36FEBC"/>
</g>
<defs>
<clipPath id="clip0_31_20665">
<rect width="24" height="24" fill="white"/>
</clipPath>
</defs>
</svg>
