<svg xmlns="http://www.w3.org/2000/svg" width="24" height="24" fill="none" viewBox="0 0 24 24"><g clip-path="url(#a)"><path fill="#F0F3FA" d="M0 0h24v24H0z"/><path fill="#040707" fill-rule="evenodd" d="m18.12 13.843-.36-2.383h.009v-.013l-.759-1.427v-.013l.043-.051c.047-.069.086-.12.098-.159a3.4 3.4 0 0 0 .15-.497 9 9 0 0 0 .129-.698.4.4 0 0 0 .004-.129 5.7 5.7 0 0 0-.223-1.166q-.238-.848-.574-1.663a2.5 2.5 0 0 0-.321-.621q-.242.129-.437.321-.475.484-.879 1.029-.44.592-.823 1.221c-.008 0-.008 0-.013.009l-.544 1.17v.013q.424.231.823.488a1 1 0 0 0 .146.078q.231.102.488.257c.152.086.278.21.369.36.064.103.128.214.188.343q.149.3.292.552l.077.099q.089.096.274.36.116.165.266.403l.236.317a.6.6 0 0 1 .098.171q.06.159.107.322l-.394.351c-.009.005-.009.013-.009.017l.013.026.202.557c.202.534.338 1.091.403 1.659l.068.244.429-.064q.08-.17.128-.352.144-.549.193-1.114l.099-.008zm-12.236.008.095.01q.006-.002.012.008.043.532.168 1.05.044.201.128.39c0 .008.009.017.022.017l.424.068v-.004l.068-.248a.7.7 0 0 0 .026-.15l.047-.33q.108-.601.326-1.166.108-.303.21-.609l-.403-.351v-.009l.043-.141q.091-.246.163-.343.267-.338.493-.703c.085-.12.171-.24.27-.356l.107-.145.137-.24.257-.502c.107-.214.236-.36.382-.454.184-.111.372-.214.557-.296a.6.6 0 0 0 .128-.068q.459-.294.935-.557l-.643-1.115a.02.02 0 0 0-.017-.013L9.81 7.59q-.502-.844-1.114-1.611-.301-.39-.669-.72a2 2 0 0 0-.343-.232l-.013.005a2.4 2.4 0 0 0-.291.565c-.03.086-.056.167-.086.232-.154.385-.3.788-.428 1.208-.155.51-.257.956-.296 1.342a1 1 0 0 0 0 .235q.09.575.257 1.132a.5.5 0 0 0 .056.116l.107.158-.763 1.431v.005l.009.004v.013l-.356 2.374v.005zm10.397.986c-.711.257-1.384.716-2.022 1.367q-.187.186-.463.532-.007.012-.013 0a5.3 5.3 0 0 0-.536-1.612 4 4 0 0 0-.574-.835 1.3 1.3 0 0 1-.077-.369 3 3 0 0 1-.009-.33c.009-.274.043-.57.09-.883q.02-.1.052-.201c.068-.215.128-.403.171-.566q.085-.272.214-.506a.86.86 0 0 1 .287-.312.1.1 0 0 1 .048-.013q.532-.02.814-.052.173-.02.326-.085.2-.091.111-.296c-.215-.488-.57-.9-1.02-1.187q.354.118.656.338a3.6 3.6 0 0 1 1.217 1.822q.083.238.377.484l.283.227c.043.034.013.09-.099.172l-.428.484c.344.32.57.748.638 1.213q.05.285.052.574l-.095.03zm-8.597-.013.022.005.008.004.026.013h.013l.008.004q.29.115.54.249c.732.402 1.371.952 1.878 1.615.097-.565.285-1.11.557-1.615q.229-.441.557-.815c.051-.12.077-.27.086-.441a5.7 5.7 0 0 0-.429-2.271 1.03 1.03 0 0 0-.386-.46 9 9 0 0 1-.857-.055 1 1 0 0 1-.248-.064c-.125-.043-.185-.103-.189-.18 0-.043.009-.086.021-.12.214-.5.575-.922 1.033-1.213l-.094.034a2.2 2.2 0 0 0-.54.3c-.6.46-1.035 1.1-1.243 1.826a.9.9 0 0 1-.206.334 4 4 0 0 1-.458.39q-.064.05.098.172l.429.48c-.308.285-.52.66-.604 1.071a3.3 3.3 0 0 0-.086.72l.064.022zm4.23 2.743v-.008l-.874-.6a.03.03 0 0 1-.013-.017l-.06-.3.004-.013.472-.412h.013q.256.126.531.197.28-.066.54-.188l.472.407v.017l-.056.3c0 .009 0 .013-.009.017l-.878.6v.005l.591.102.013.009.09.308q0 .015.009 0l.158-.26c0-.005.004-.01.013-.005l.201.034h.013l.279-.133.008-.013.313-.643h.009a.6.6 0 0 0 .201-.038q.212-.079.609-.291l.038-.022q.014-.005.009.009c-.159.347-.317.694-.489 1.032a9 9 0 0 1-.27.498 1 1 0 0 1-.145.197l-.172.158c-.25.203-.533.362-.835.472l-.12.017q-.638.009-1.273-.017a2 2 0 0 1-.27-.103 3 3 0 0 1-.69-.471 1.2 1.2 0 0 1-.232-.31 28 28 0 0 1-.72-1.482l.056.03q.352.192.531.262.09.037.18.055h.052q.011 0 .017.013l.309.63.004.009.283.128c0 .005.008.009.013.005l.24-.043q.01-.002.017.008l.163.279h.008l.099-.33.008-.005.54-.098zm2.529-9.441 2.078.827q.039.019.052-.009a.4.4 0 0 0 .051-.141c.093-.483.123-.975.09-1.466a2.66 2.66 0 0 0-.501-1.367l-.18.227-.857 1.102q-.239.302-.45.54-.13.156-.287.287zM7.8 5.97a2.55 2.55 0 0 0-.514 1.646v.206c.004.282.03.544.064.784.026.146.051.253.086.326q.011.04.055.02l.613-.235 1.466-.6a3 3 0 0 1-.321-.321 11 11 0 0 1-.395-.476L7.796 5.97zm5.983 6.257-.004.009-.138.085-.278-.805q-.001-.013.004 0zm.591 1.303-.274-.673h-.223l.484.677q.021.027.009 0zm-2.905 5.044v.21h-.009a13 13 0 0 0-.424-.355.1.1 0 0 1-.026-.043.19.19 0 0 1 .013-.167c.034-.052.09-.078.171-.086l.197-.021.146-.322.129.3.017.004.24-.021h.146l.248.017.129-.308h.008l.15.33.009.008.171.013c.107.009.172.047.197.129.009.02.009.042 0 .05l-.094.155a.2.2 0 0 1-.051.056q-.16.127-.317.257v-.21h-.009l-.514.373h-.009l-.51-.377c-.004 0-.008 0-.008.008" clip-rule="evenodd"/><path fill="#373636" fill-rule="evenodd" d="M5.143 13.946v.107l.03.128a.6.6 0 0 0 .158.228c.009 0 .009.008.013.017.039.295.099.582.185.87q.063.225.167.398.063.108.184.236.045.045.116.051.74.09 1.453.27c.278.073.535.155.775.258.18.068.322.15.429.23a.06.06 0 0 1 .03.035q.363.813.776 1.603c.128.223.248.394.368.506q.322.3.716.523.336.19.664.265a.7.7 0 0 0 .167.022q.36.006.72.021l.06-.004.052-.009q.267-.012.535-.021.297-.052.613-.214.428-.23.785-.558.129-.116.214-.23.146-.212.291-.494.357-.691.669-1.405a.35.35 0 0 1 .128-.108h.005q.127-.075.248-.133.357-.156.733-.257.72-.193 1.543-.295a.27.27 0 0 0 .137-.048q.136-.128.214-.27.116-.219.206-.574.09-.34.142-.685a.51.51 0 0 0 .18-.498q-.156-1.015-.305-2.031a.43.43 0 0 0 .06-.33.7.7 0 0 0-.068-.171q-.36-.677-.716-1.355a4 4 0 0 0 .189-.655q.07-.344.128-.69.014-.084.009-.168a4 4 0 0 0-.026-.338c-.043-.3-.111-.63-.214-.986a15 15 0 0 0-.622-1.826 3 3 0 0 0-.39-.745 2 2 0 0 0-.248-.283.17.17 0 0 0-.12-.047q-.34.001-.635.175a3.3 3.3 0 0 0-.694.57 14 14 0 0 0-1.401 1.843l-.729-.047a.3.3 0 0 0-.094.017l-.986.343-.977-.347a.2.2 0 0 0-.073-.013l-.741.043a16 16 0 0 0-.802-1.14 9 9 0 0 0-.6-.703l-.034-.034a4 4 0 0 0-.257-.244 2.3 2.3 0 0 0-.412-.296 1.23 1.23 0 0 0-.608-.167.17.17 0 0 0-.112.038 1.7 1.7 0 0 0-.252.27 3 3 0 0 0-.403.767l-.086.228c-.163.41-.309.822-.437 1.247q-.15.484-.253.981a5 5 0 0 0-.086.622l.005.214c.03.214.077.454.132.724q.072.338.189.664l-.711 1.333a.6.6 0 0 0-.073.18.44.44 0 0 0 .055.317q.01.018.005.035zm9.111-7.517a15 15 0 0 0-.39.582l-.81-.055h-.017l-1.029.368h-.02l-1.008-.36a.14.14 0 0 0-.056-.008l-.801.043a16 16 0 0 0-.802-1.15 8 8 0 0 0-.608-.72 4 4 0 0 0-.472-.428c-.161-.13-.35-.22-.552-.265a2 2 0 0 0-.232-.017 4 4 0 0 1-.15.15 2.6 2.6 0 0 0-.471.83q-.293.714-.519 1.45a10 10 0 0 0-.257 1.045c-.039.18-.06.365-.073.557-.008.086-.004.15 0 .206q.07.462.18.904.058.25.154.489l-.75 1.401a.6.6 0 0 0-.055.137.31.31 0 0 0 .077.258v.012l-.3 1.98-.013.078a.4.4 0 0 0 .171.424l.009.008c.034.266.086.52.15.772q.032.13.103.317c.06.16.157.304.283.42q.804.095 1.564.3.436.11.789.266c.167.073.3.15.411.24a.1.1 0 0 1 .034.043c.146.33.309.685.485 1.05.098.201.205.398.317.6q.075.134.163.257c.042.064.102.128.171.193.201.184.428.351.673.492.224.13.47.22.724.266l.797.022.09-.009.416-.013q.089-.002.159-.017c.098-.026.197-.056.295-.099.343-.14.673-.355.982-.642.098-.086.184-.198.257-.318.085-.128.158-.265.227-.394q.349-.68.651-1.38a.2.2 0 0 1 .073-.085q.178-.124.395-.215a6 6 0 0 1 .818-.274 12 12 0 0 1 1.526-.287c.12-.112.214-.257.287-.454q.065-.173.111-.365.087-.345.137-.698a.4.4 0 0 0 .18-.377l-.017-.086-.3-2.027a.32.32 0 0 0 .069-.262.4.4 0 0 0-.047-.128q-.379-.71-.755-1.423.132-.361.215-.737c.043-.215.085-.416.116-.613a.8.8 0 0 0 .008-.172 8 8 0 0 0-.334-1.654q-.215-.705-.493-1.388a2.54 2.54 0 0 0-.656-1.06c-.26 0-.515.088-.72.25a3.3 3.3 0 0 0-.501.437q-.501.52-1.059 1.328z" clip-rule="evenodd"/><path fill="#45C6E4" d="M14.104 12.857h-.218l-1.149.022c-.008 0-.013 0 0-.005l.904-.557.138-.081v-.005l.004-.004h.008l1.496-.909c.009-.008.009-.004.004 0l-.792 1.526-.009.005zm-2.858.022-1.757-.026h-.005l-.797-1.53c0-.009 0-.013.009-.009l2.55 1.556c.008.009.008.009 0 .009"/></g><defs><clipPath id="a"><path fill="#fff" d="M0 0h24v24H0z"/></clipPath></defs></svg>