<svg xmlns="http://www.w3.org/2000/svg" width="24" height="24" fill="none" viewBox="0 0 24 24"><g clip-path="url(#a)"><path fill="#283870" d="M0 0h24v24H0z"/><path fill="#fff" d="M12 15.857a1.286 1.286 0 1 0 0-2.572 1.286 1.286 0 0 0 0 2.572"/><path fill="#fff" d="M15.24 16.534c-.506-.291-1.14-.128-1.637.176a2.7 2.7 0 0 1-1.419.398 2.59 2.59 0 0 1-2.64-2.537 2.59 2.59 0 0 1 2.64-2.537 2.7 2.7 0 0 1 1.428.403c.527.33 1.22.493 1.73.141.502-.342.635-1.045.18-1.457a4.98 4.98 0 0 0-3.342-1.264c-2.696 0-4.894 2.109-4.894 4.714s2.194 4.715 4.898 4.715c1.273 0 2.43-.468 3.3-1.235.493-.428.322-1.187-.244-1.517"/><path fill="#E5B909" d="M18.643 8.015c.287-.275.287-.72-.021-.973a10.53 10.53 0 0 0-6.665-2.327A10.54 10.54 0 0 0 5.38 6.973a.64.64 0 0 0-.035.973c.292.283.772.287 1.097.039a9 9 0 0 1 5.516-1.86c2.13 0 4.08.72 5.589 1.915.321.257.801.257 1.093-.025zM16.8 9.775c.291-.273.291-.715-.021-.959a7.8 7.8 0 0 0-4.818-1.633c-1.8 0-3.458.592-4.752 1.582-.318.24-.322.685-.039.96.291.287.771.287 1.106.042a6.26 6.26 0 0 1 3.685-1.174c1.41 0 2.709.454 3.733 1.217.335.245.815.249 1.11-.034zm-2.096 2.294c.283-.275.287-.712-.034-.939a4.7 4.7 0 0 0-2.713-.844c-.998 0-1.92.3-2.67.814-.326.227-.326.665-.043.939.292.287.78.278 1.145.068a3.15 3.15 0 0 1 3.167.018c.36.214.848.227 1.144-.056z"/></g><defs><clipPath id="a"><path fill="#fff" d="M0 0h24v24H0z"/></clipPath></defs></svg>