<svg width="24" height="24" viewBox="0 0 24 24" fill="none" xmlns="http://www.w3.org/2000/svg">
<g clip-path="url(#clip0_31_20761)">
<path d="M0 0H24V24H0V0Z" fill="#F0F3FA"/>
<path d="M5.30143 13.6845C5.0414 12.6754 5.01552 11.6202 5.22577 10.5996C5.43601 9.57899 5.87681 8.61994 6.51447 7.79577C7.15214 6.9716 7.96979 6.30413 8.90493 5.84437C9.84007 5.38461 10.8679 5.14473 11.91 5.14307C14.4557 5.14307 16.6757 6.54878 17.8457 8.62735C19.29 8.53735 20.28 8.77307 20.5157 9.37735C20.7814 10.0416 20.0786 11.0188 18.7286 12.0645C18.7173 13.8663 17.995 15.5908 16.719 16.8629C15.4429 18.1349 13.7161 18.8517 11.9143 18.8574C9.98571 18.8574 8.24143 18.0516 7.00286 16.7574C5.33143 16.9288 4.17428 16.7016 3.91286 16.0459C3.67714 15.4502 4.21286 14.6016 5.30143 13.6845Z" fill="#58CEF9"/>
<path d="M10.2857 6C9.59995 6.85714 9.28709 8.21571 9.21423 8.78571C9.89995 8.27143 10.7871 8.00143 11.1428 7.92857C10.9714 6.72857 10.4999 6.14143 10.2857 6ZM15.4285 6.42857C14.6417 6.84169 14.0322 7.52728 13.7142 8.35714C14.3999 8.52857 15.1414 9 15.4285 9.21429C15.7714 8.18571 15.5699 6.93 15.4285 6.42857Z" fill="#E2E9E8"/>
<path fill-rule="evenodd" clip-rule="evenodd" d="M9.26138 8.49C9.23995 8.60143 9.2228 8.70429 9.21423 8.78571C9.79603 8.37872 10.4508 8.08769 11.1428 7.92857C11.0057 6.97286 10.6799 6.40714 10.4442 6.14571C10.396 6.09232 10.3429 6.04354 10.2857 6C9.69852 6.72857 9.38566 7.83 9.26138 8.49ZM10.3157 6.32143C10.0585 6.69 9.86566 7.13571 9.72423 7.56429C9.62995 7.84286 9.56138 8.10857 9.50995 8.33571C9.94682 8.08772 10.4134 7.89619 10.8985 7.76571C10.8366 7.38401 10.7166 7.01401 10.5428 6.66857C10.479 6.54682 10.4029 6.43193 10.3157 6.32571V6.32143ZM13.7142 8.35714L13.9199 8.41714C14.4594 8.60696 14.9678 8.87558 15.4285 9.21429L15.4928 8.99571C15.6761 8.14709 15.6541 7.26696 15.4285 6.42857L15.2357 6.53571C14.5441 6.96142 14.01 7.60082 13.7142 8.35714ZM14.0014 8.21571C14.4607 8.37874 14.8982 8.59752 15.3042 8.86714C15.4757 8.10857 15.3899 7.26429 15.2871 6.75429C14.7305 7.11189 14.2852 7.61813 14.0014 8.21571Z" fill="#000005"/>
<path fill-rule="evenodd" clip-rule="evenodd" d="M6.85718 12.8573C6.85718 13.333 6.92146 13.8001 7.04575 14.2373C8.12626 14.7448 9.30625 15.0054 10.5 15.0001C13.3715 15.0001 15.8443 13.5473 16.95 11.4601C16.6131 10.2645 15.8548 9.23133 14.8153 8.55138C13.7757 7.87142 12.5253 7.59067 11.2948 7.76099C10.0644 7.93132 8.93723 8.54121 8.12152 9.47798C7.3058 10.4148 6.8567 11.6151 6.85718 12.8573ZM11.5715 13.5001C11.4986 12.5015 11.6572 10.4573 12.8572 10.2858C14.0572 10.1144 14.7857 11.6444 15 12.4287C14.4986 12.7844 13.1143 13.5001 11.5715 13.5001ZM9.00004 13.5001C9.07289 12.5701 9.07718 10.2858 7.92861 10.2858C7.50004 10.2858 7.07146 12.1415 7.07146 13.2858C7.21289 13.573 7.50004 13.7144 7.71432 13.7144C8.35718 13.7144 8.78575 13.573 9.00004 13.5001Z" fill="#000005"/>
<path d="M11.9999 18C12.7946 18 13.5785 17.816 14.2901 17.4622C15.0017 17.1084 15.6216 16.5945 16.1012 15.9608C16.5808 15.3272 16.907 14.591 17.0543 13.8101C17.2015 13.0292 17.1658 12.2248 16.9499 11.46C15.8442 13.5471 13.3714 15 10.4999 15C9.24423 15 8.06565 14.7214 7.04565 14.2371C8.1691 14.2371 9.26164 14.605 10.1563 15.2845C11.0509 15.964 11.6985 16.9177 11.9999 18Z" fill="#E7E7E7"/>
<path fill-rule="evenodd" clip-rule="evenodd" d="M7.12708 14.5114C7.53173 15.814 8.43725 16.9025 9.64445 17.5374C10.8516 18.1724 12.2616 18.3017 13.5642 17.8971C14.8668 17.4925 15.9553 16.5869 16.5903 15.3797C17.2252 14.1725 17.3546 12.7626 16.9499 11.46C16.9071 11.55 16.8514 11.64 16.7999 11.73C15.6299 13.6714 13.2428 15 10.4999 15C9.30631 15.0039 8.12663 14.7433 7.04565 14.2371C7.07137 14.3271 7.09708 14.4214 7.13137 14.5114H7.12708ZM7.39708 14.6228C7.83329 15.7667 8.67963 16.7073 9.77128 17.2615C10.8629 17.8156 12.1218 17.9437 13.3026 17.6206C14.4835 17.2976 15.5019 16.5467 16.1594 15.514C16.817 14.4813 17.0667 13.2409 16.8599 12.0342C15.6085 13.9414 13.2171 15.2142 10.4999 15.2142C9.38994 15.2142 8.33994 15 7.39708 14.6228Z" fill="#000005"/>
<path d="M9.04282 9.20129C8.68711 9.33843 8.33997 9.52272 8.14282 9.64272C8.57139 8.99986 9.98568 7.757 12.2143 7.92843C14.4428 8.09986 15.8571 9.56986 16.2857 10.2856C14.2243 8.66557 11.8028 8.61415 10.4357 8.86272C10.4657 9.107 10.3928 9.41986 10.2214 9.71986C9.92139 10.2256 9.43282 10.4956 9.12425 10.3199C8.84568 10.1484 8.81568 9.67272 9.04282 9.20129ZM13.2857 5.57129L13.1443 6.04272L12.8571 6.19272L13.1443 6.35129L13.2857 7.28557L13.4271 6.35129L13.7143 6.19272L13.4271 6.03843L13.2857 5.57129Z" fill="#E5E5E5"/>
<path d="M19.6971 9.83993C19.7314 9.92136 19.74 10.1185 19.4742 10.4828C19.2257 10.8385 18.7971 11.2542 18.1971 11.6999C17.8416 11.9639 17.474 12.2113 17.0957 12.4414L17.0357 12.9728C19.1571 11.7299 20.4085 10.4571 20.0957 9.67707C19.6242 8.50707 15.8057 8.8885 11.5714 10.5256C7.3371 12.1671 4.28567 14.4385 4.76139 15.6085C5.01853 16.2514 6.2871 16.4228 8.07425 16.1828L7.80853 15.7842L7.57282 15.8099C6.82282 15.8828 6.21853 15.8699 5.78568 15.7799C5.33568 15.6856 5.19425 15.5356 5.15996 15.4456C5.12568 15.3642 5.1171 15.1671 5.38282 14.8028C5.63139 14.4471 6.05996 14.0314 6.65996 13.5856C7.85139 12.6985 9.63425 11.7385 11.7257 10.9285C13.8171 10.1185 15.7928 9.62564 17.2842 9.47564C18.0342 9.40279 18.6385 9.41564 19.0714 9.50564C19.5214 9.59993 19.6628 9.74993 19.6971 9.83993ZM6.21425 10.4999L5.99996 11.7856L5.57139 11.9999H5.99996V12.8571L6.21425 11.9999H6.64282L6.21425 11.7856V10.4999Z" fill="#E5E5E5"/>
</g>
<defs>
<clipPath id="clip0_31_20761">
<rect width="24" height="24" fill="white"/>
</clipPath>
</defs>
</svg>
