<svg xmlns="http://www.w3.org/2000/svg" width="24" height="24" fill="none" viewBox="0 0 24 24"><g clip-path="url(#a)"><path fill="url(#b)" d="M0 0h24v24H0z"/><path fill="#fff" fill-rule="evenodd" d="M10.071 5.143a.643.643 0 0 0-.642.643v.792a6 6 0 0 0 0 10.845v.792a.643.643 0 0 0 1.285 0v-.353a6.05 6.05 0 0 0 2.572 0v.353a.643.643 0 1 0 1.285 0v-.792a6 6 0 0 0 0-10.845v-.792a.643.643 0 1 0-1.285 0v.352a6 6 0 0 0-2.572 0v-.352a.643.643 0 0 0-.643-.643m3.215 2.342a4.3 4.3 0 0 0-1.286-.2c-.44 0-.873.07-1.286.2v2.587a.643.643 0 1 1-1.285 0V8.113C8.162 8.984 7.286 10.442 7.286 12c0 2.486 2.229 4.715 4.714 4.715s4.714-2.23 4.714-4.715c0-1.558-.876-3.016-2.143-3.887v1.959a.643.643 0 1 1-1.285 0zm-3.241-1.996a.184.184 0 0 0-.271.042l-.163.243a.22.22 0 0 0 .045.293.184.184 0 0 0 .271-.042l.163-.243a.22.22 0 0 0-.045-.293M9.01 13.281c.234-.234.597-.198.974.148.087.08.173.17.261.262.39.41.84.88 1.755.88.983 0 1.69-.69 1.986-1.054.169-.207.616-.46.98-.236.239.148.319.604.178.807-.424.61-1.464 1.78-3.144 1.77s-2.7-1.168-3.099-1.77a.626.626 0 0 1 .109-.807m4.618-7.75a.185.185 0 0 1 .271-.042.22.22 0 0 1 .046.293l-.164.242a.184.184 0 0 1-.27.042.22.22 0 0 1-.046-.293z" clip-rule="evenodd"/></g><defs><linearGradient id="b" x1="4.465" x2="29.206" y1="4.162" y2="32.579" gradientUnits="userSpaceOnUse"><stop stop-color="#1A1E21"/><stop offset="1" stop-color="#06060A"/></linearGradient><clipPath id="a"><path fill="#fff" d="M0 0h24v24H0z"/></clipPath></defs></svg>