<svg xmlns="http://www.w3.org/2000/svg" width="24" height="24" fill="none" viewBox="0 0 24 24"><g clip-path="url(#a)"><path fill="url(#b)" d="M0 0h24v24H0z"/><path fill="#fff" d="M12 13.286c2.604 0 4.714-.384 4.714-.858 0-.473-2.11-.857-4.714-.857s-4.714.384-4.714.857c0 .474 2.11.858 4.714.858"/><path fill="#fff" fill-rule="evenodd" d="M17.363 5.571H6.613L3.428 12.56 12 21l8.571-8.44zm-4.506 8.126c2.433-.102 4.288-.631 4.288-1.269 0-.71-2.303-1.285-5.143-1.285s-5.143.575-5.143 1.285c0 .637 1.852 1.166 4.284 1.268v3.875h1.714z" clip-rule="evenodd"/><path fill="#DDA85B" d="M15.857 8.143H8.143v1.714h3v3h1.714v-3h3z"/></g><defs><linearGradient id="b" x1="12" x2="12" y1="0" y2="24" gradientUnits="userSpaceOnUse"><stop stop-color="#D29C55"/><stop offset="1" stop-color="#E9B662"/></linearGradient><clipPath id="a"><path fill="#fff" d="M0 0h24v24H0z"/></clipPath></defs></svg>