<svg xmlns="http://www.w3.org/2000/svg" width="24" height="24" fill="none" viewBox="0 0 24 24"><g clip-path="url(#a)"><path fill="url(#b)" d="M0 0h24v24H0z"/><path fill="#fff" d="M12.386 6.129a13.3 13.3 0 0 1 3.951 2.533c.622.564 1.176 1.2 1.65 1.894.647.951 1.286 2.383.523 3.454l-2.563 3.622c-.703.985-2.164.882-3.197.617q-.69-.18-1.316-.45a13.3 13.3 0 0 1-4.68-3.386c-.938-1.05-2.228-3.009-1.281-4.406l2.593-3.655c.488-.686 1.47-.845 2.284-.759q.992.109 2.036.531z"/><path fill="url(#c)" d="m18.454 11.936-.493-.103a7 7 0 0 0-.831-1.358 12.6 12.6 0 0 0-4.157-3.365 7.4 7.4 0 0 0-2.953-.878c-.874-.043-1.701.291-1.62 1.345q.026.342.154.682.316.835.96 1.65a12.65 12.65 0 0 0 4.157 3.334 9.5 9.5 0 0 0 1.959.729l-.266.347-.343-.077q-.062-.016-.094.047-.041.096.086.141h.004l.232.052c-.2.238-.432.448-.69.621q-.484.313-1.038.214c-.492-.094-.942-.492-1.247-.891l-.613-.802c-.445-.574-.934-.844-1.611-.462a2.3 2.3 0 0 0-.394.274q-.585.535-1.183 1.054a1.9 1.9 0 0 1-.926.429.05.05 0 0 0-.026-.017.1.1 0 0 1-.042-.026 9.1 9.1 0 0 1-1.629-2.087c-.394-.686-.711-1.714-.334-2.452q.056-.122.184-.295l2.511-3.545c.678-.96 2.203-.771 3.155-.505 1.783.501 3.471 1.568 4.851 2.841a8.7 8.7 0 0 1 2.16 2.859q.045.102.077.244"/><path fill="#fff" d="M7.959 7.714h-.013a.086.086 0 0 0-.077.094l.017.189c0 .051.043.086.094.086l.009-.005a.086.086 0 0 0 .081-.094l-.017-.193a.086.086 0 0 0-.094-.081z"/><path fill="#FFB060" d="M12.63 11.109c1.286.934 2.627 1.264 3 .741.369-.523-.377-1.701-1.659-2.631-1.285-.93-2.627-1.26-3-.737-.368.522.378 1.697 1.659 2.627"/><path fill="#fff" d="M8.134 8.349c.133.531.394 1.037.712 1.482.453.632.973 1.213 1.551 1.732l.536.489a.09.09 0 0 1 .021.094.1.1 0 0 1-.021.03q-.065.062-.129.008a15 15 0 0 1-1.718-1.727 5.4 5.4 0 0 1-1.132-2.066.1.1 0 0 1 .004-.055c.022-.043.043-.065.078-.065q.031.002.064.022.027.021.034.056"/><path fill="#0E0F23" d="M18.454 11.936q.174.392.193.9c.02.424-.117.841-.386 1.17a615 615 0 0 0-2.318 3.283 2.5 2.5 0 0 1-.506.557c-.484.36-1.183.411-1.77.351a6.8 6.8 0 0 1-1.556-.36 9 9 0 0 1-1.058-.437 13.4 13.4 0 0 1-3.493-2.447.04.04 0 0 1-.013-.034c.342-.056.662-.204.926-.429q.32-.27 1.183-1.054a2.3 2.3 0 0 1 .394-.274c.677-.386 1.166-.112 1.611.462l.613.802c.3.398.755.797 1.243.891q.56.1 1.042-.214c.235-.154.467-.36.685-.621.077.034.133.042.172.034a.1.1 0 0 0 .051-.056.1.1 0 0 0 0-.073q-.025-.056-.103-.068l.266-.347c.698.171 1.928.308 2.408-.416.33-.506.138-1.217-.077-1.723z"/><path fill="#fff" d="M17.074 14.627c-.428.073-.9.043-1.341-.038q-.078-.015-.077-.095 0-.045.051-.077a.1.1 0 0 1 .064-.012c.429.08.858.094 1.273.034q.076-.007.086.064l.004.034q.013.079-.06.086z"/></g><defs><linearGradient id="b" x1="4.466" x2="29.207" y1="4.161" y2="32.58" gradientUnits="userSpaceOnUse"><stop stop-color="#1A1E21"/><stop offset="1" stop-color="#06060A"/></linearGradient><linearGradient id="c" x1="11.901" x2="11.901" y1="5.777" y2="15.339" gradientUnits="userSpaceOnUse"><stop stop-color="#FF9359"/><stop offset="1" stop-color="#FFC664"/></linearGradient><clipPath id="a"><path fill="#fff" d="M0 0h24v24H0z"/></clipPath></defs></svg>