<svg xmlns="http://www.w3.org/2000/svg" width="24" height="24" fill="none" viewBox="0 0 24 24"><g clip-path="url(#a)"><path fill="#3377F8" d="M0 0h24v24H0z"/><path fill="#fff" d="M15.429 5.143H8.57a3.43 3.43 0 0 0-3.428 3.429v6.857a3.43 3.43 0 0 0 3.428 3.428h6.858a3.43 3.43 0 0 0 3.428-3.428V8.572a3.43 3.43 0 0 0-3.428-3.429"/><path fill="#3377F8" d="M7.02 11.863c0-3.399 2.777-4.852 4.933-4.852 3.758 0 5.083 2.936 5.083 4.997 0 1.08-.27 1.655-.365 1.878-.077.184-.343.514-.711.325-.296-.15-.244-.621-.107-.857.227-.386.248-1.037.227-1.346 0-3.042-2.713-4.075-4.127-4.075-1.174 0-3.986.801-4.007 4.075-.013 2.623 2.387 3.823 3.557 4.05.24.018.668.129.617.497-.047.37-.42.37-.617.37a5.03 5.03 0 0 1-4.483-5.062"/><path fill="#3377F8" d="M8.859 11.888c0-1.821 1.675-3.085 3.252-3.008 2.34.107 3 2.031 3 3.103 0 .668-.2.754-.47.754-.267 0-.344-.399-.344-.754a2.186 2.186 0 0 0-2.186-2.173c-.74 0-2.357.403-2.37 2.173-.004 1.157.703 1.984 1.436 2.121.202.043.399.257.343.484-.06.232-.24.275-.458.275-1.012-.052-2.203-1.149-2.203-2.975"/><path fill="#3377F8" d="M13.787 13.406c-.38.378-.842.665-1.35.84-.193.055-.248.407-.128.634.115.227.385.321.544.244a5 5 0 0 0 1.513-.998.48.48 0 0 0 0-.613c-.206-.257-.489-.193-.579-.107"/></g><defs><clipPath id="a"><path fill="#fff" d="M0 0h24v24H0z"/></clipPath></defs></svg>