<svg xmlns="http://www.w3.org/2000/svg" width="24" height="24" fill="none" viewBox="0 0 24 24"><g clip-path="url(#a)"><path fill="#F0F3FA" d="M0 0h24v24H0z"/><path fill="url(#b)" d="M4.581 12.995c-.681-.738-.107-1.938.879-1.852l13.269 1.179c.865.077 1.29 1.114.733 1.8l-2.49 3.051-.28-.236.275.236a1.07 1.07 0 0 1-.823.394H9.253c-.3 0-.583-.128-.784-.347L4.58 12.99zm.815-1.115c-.326-.03-.515.369-.292.613l3.887 4.23a.36.36 0 0 0 .262.116h6.891a.36.36 0 0 0 .275-.129l2.494-3.056c.184-.227.043-.574-.244-.6L5.396 11.877z"/><path fill="url(#c)" d="M7.063 7.5c.21-.767 1.054-1.23 1.877-1.024l8.216 2.061A1.08 1.08 0 0 1 18 9.566v.085c0 .63-.587 1.123-1.264 1.059L8.22 9.857c-.921-.09-1.543-.917-1.316-1.757zm1.676-.339c-.412-.102-.832.129-.935.515l-.163.6c-.111.42.198.831.66.878l8.516.849c.223.021.42-.142.42-.352v-.085a.36.36 0 0 0-.283-.343L8.74 7.166z"/></g><defs><linearGradient id="b" x1="4.277" x2="18.291" y1="12.81" y2="15.274" gradientUnits="userSpaceOnUse"><stop stop-color="#45C1CB"/><stop offset=".82" stop-color="#A274BF"/><stop offset="1" stop-color="#6A66B2"/></linearGradient><linearGradient id="c" x1="6.574" x2="17.931" y1="7.959" y2="10.397" gradientUnits="userSpaceOnUse"><stop stop-color="#45C1CB"/><stop offset=".72" stop-color="#A991CB"/><stop offset="1" stop-color="#6A66B2"/></linearGradient><clipPath id="a"><path fill="#fff" d="M0 0h24v24H0z"/></clipPath></defs></svg>