<svg xmlns="http://www.w3.org/2000/svg" width="24" height="24" fill="none" viewBox="0 0 24 24"><g clip-path="url(#a)"><path fill="#11F" d="M0 0h24v24H0z"/><path fill="#fff" d="M15.322 5.571H7.929c-.309 0-.643.245-.643.54v1.492c0 .3.334.54.643.54h4.294L4.714 15h3.613l7.989-7.132c.857-.857.236-2.297-.994-2.297M8.679 18.428h7.607c.308 0 .428-.244.428-.54v-1.491c0-.3-.12-.54-.428-.54h-4.509L19.286 9h-3.613L7.684 16.13c-.857.857-.235 2.297.995 2.297"/></g><defs><clipPath id="a"><path fill="#fff" d="M0 0h24v24H0z"/></clipPath></defs></svg>