<svg xmlns="http://www.w3.org/2000/svg" width="24" height="24" fill="none" viewBox="0 0 24 24">
    <g clip-path="url(#paradex__a)">
        <path fill="#04040F" d="M24 0H0v24h24z"/>
        <path fill="#CC38FF" fill-rule="evenodd" d="M17.787 7.748 20 11.098h-2.096l-2.117-3.207h-2.873V6.219h3.89c.763 0 1.381-.571 1.381-1.275 0-.35-.154-.669-.404-.898a1.43 1.43 0 0 0-.978-.374h-3.89V2h3.89c.884 0 1.682.33 2.261.863q.245.226.432.496a2.74 2.74 0 0 1 .189 2.86c-.375.72-1.06 1.28-1.898 1.53m-7.204-4.39a3 3 0 0 0-.432-.495A3.33 3.33 0 0 0 7.89 2H4v1.672h3.89c.383 0 .728.143.977.373.25.23.405.548.405.9 0 .703-.618 1.273-1.381 1.273H4v4.881h1.703v-3.21h2.188c1.27 0 2.366-.682 2.881-1.671a2.74 2.74 0 0 0-.189-2.86M20 12.901h-2.086l-1.947 2.963-1.948-2.963h-2.086l2.99 4.55L11.934 22h2.086l1.948-2.963L17.914 22H20l-2.99-4.55zm-9.003 4.55a4.52 4.52 0 0 1-1.34 3.216A4.58 4.58 0 0 1 6.42 22H4v-1.675h2.42a2.883 2.883 0 0 0 2.892-2.874c0-.794-.324-1.513-.847-2.033a2.9 2.9 0 0 0-2.045-.842H4V12.9h2.42c2.527 0 4.577 2.036 4.577 4.55" clip-rule="evenodd"/>
    </g>
    <defs>
        <clipPath id="paradex__a">
            <path fill="#fff" d="M0 0h24v24H0z"/>
        </clipPath>
    </defs>
</svg>
