<svg width="24" height="24" viewBox="0 0 24 24" fill="none" xmlns="http://www.w3.org/2000/svg">
<path d="M6.11624 10.8745L7.07999 9.37451L7.21124 9.63701L7.40625 9.37451L10.125 14.6245H8.21249C8.14874 14.6321 7.995 14.5982 7.92749 14.3845C7.87499 14.2195 7.17749 12.8282 6.61124 11.7183C6.55125 11.6057 6.46125 11.5157 6.36 11.4633C6.20999 11.4707 6.06374 11.5383 5.96249 11.6695L5.28749 12.6295H6.14625C6.74624 12.6295 7.27124 13.0383 7.27124 13.627C7.27124 14.2158 6.74624 14.6245 6.14625 14.6245H3.46125L4.71374 12.7495H4.02375C3.46125 12.7495 3 12.3745 3 11.812C3 11.2495 3.4575 10.8745 4.02375 10.8745H6.11624ZM6.31124 14.4521C6.70499 14.3545 7.125 14.047 7.125 13.627C7.125 13.207 6.70499 12.8996 6.31124 12.802C6.4466 12.8929 6.5575 13.0158 6.6342 13.1596C6.71088 13.3034 6.75099 13.464 6.75099 13.627C6.75099 13.79 6.71088 13.9506 6.6342 14.0944C6.5575 14.2383 6.4466 14.3612 6.31124 14.4521ZM4.875 12.6295H5.05874L5.84624 11.587C5.91375 11.5008 5.99624 11.437 6.08249 11.392C5.98715 11.3892 5.8925 11.4092 5.80642 11.4503C5.72033 11.4913 5.64528 11.5524 5.5875 11.6282L5.18624 12.157L4.875 12.6295ZM9.6225 14.482H9.89624L7.38375 9.65201L7.28625 9.78702L9.6225 14.482ZM11.2499 11.4596V12.5395H13.2749C13.5263 12.6145 13.7063 12.8583 13.7063 13.1245C13.7063 13.4508 13.4287 13.7095 13.0837 13.7095H10.5V14.6245H13.4025C14.31 14.6245 15 14.062 15 13.1995C15 12.607 14.6062 12.277 14.3325 11.9995C14.6062 11.722 15 11.4745 15 10.8521C15 9.98952 14.31 9.37451 13.4025 9.37451H10.5V10.2895H13.0837C13.4287 10.2895 13.7063 10.6083 13.7063 10.9345C13.7063 11.2007 13.5263 11.3845 13.2713 11.4596H11.2499ZM14.0925 11.9995C14.43 12.3445 14.8275 12.6745 14.8275 13.1995C14.8275 13.987 14.1412 14.4595 13.4025 14.4595H10.6725V13.8745H13.0837C13.5263 13.8745 13.8825 13.5445 13.8825 13.1245C13.8825 12.772 13.6874 12.3745 13.3012 12.3745H11.4375V11.6245H13.3012C13.6874 11.6245 13.8825 11.287 13.8825 10.9345C13.8787 10.7228 13.7938 10.5206 13.645 10.3699C13.4963 10.219 13.2954 10.1312 13.0837 10.1245H10.6725V9.53952H13.4025C14.2199 9.53952 14.8275 10.087 14.8275 10.8521C14.8275 11.377 14.4262 11.662 14.0925 11.9995ZM15.75 10.9345C15.75 10.072 16.4925 9.37451 17.4075 9.37451H20.625V10.312H17.88C17.5312 10.312 17.25 10.5482 17.25 10.8745C17.25 11.137 17.4375 11.362 17.6887 11.437H19.3425C19.7763 11.4389 20.1923 11.61 20.5019 11.9139C20.8115 12.2179 20.9902 12.6307 21 13.0645C21 13.927 20.2575 14.6245 19.3425 14.6245H16.1251V13.6871H18.87C19.2187 13.6871 19.5 13.4508 19.5 13.1245C19.5 12.862 19.3125 12.637 19.0612 12.5621H17.4075C16.9736 12.5601 16.5576 12.3891 16.2481 12.0851C15.9385 11.7811 15.7597 11.3683 15.75 10.9345Z" fill="white"/>
</svg>
