<svg width="24" height="24" viewBox="0 0 24 24" fill="none" xmlns="http://www.w3.org/2000/svg">
<path d="M12.0113 8.31592C10.5113 8.31592 9.36816 8.54749 9.36816 8.54749V10.9475H14.6314V8.54855C14.656 8.54855 13.5123 8.31592 12.0113 8.31592Z" fill="white"/>
<path d="M11.9999 2C8.15568 2 3.57886 3.97579 3.57886 3.97579V15.9999L11.9999 22L20.421 16.0242V3.95053C20.4452 3.95053 15.8667 2 11.9999 2ZM16.7368 14.7068L14.6315 16.2437V13.0526H9.36831V16.2426L7.26306 14.7068V6.73315C7.26306 6.73315 10.042 6.09894 12.0241 6.09894C14.0062 6.09894 16.7368 6.73315 16.7368 6.73315V14.7068Z" fill="white"/>
</svg>
