<svg width="24" height="24" viewBox="0 0 24 24" fill="none" xmlns="http://www.w3.org/2000/svg">
<path d="M11.1643 4.50532C10.4931 5.06541 9.3329 6.33227 9.3329 7.75916C9.3329 9.53277 11.4577 10.7374 12.5645 11.3819L12.9201 11.5953C13.8447 12.1643 16.0006 13.5867 16.0006 15.8626C16.0006 18.023 14.1337 19.4499 13.1468 19.9743C13.0579 20.0188 12.9468 20.0055 12.8712 19.9343C12.8488 19.913 12.8312 19.8871 12.8194 19.8584C12.8076 19.8297 12.802 19.7989 12.8029 19.7679C12.8037 19.737 12.811 19.7064 12.8243 19.6784C12.8376 19.6506 12.8565 19.6256 12.8801 19.6055C13.5914 18.9831 14.667 17.6407 14.667 16.2938C14.667 14.4402 13.0757 13.449 11.8444 12.7378L11.6977 12.6487C10.1641 11.7642 7.99936 10.5151 7.99936 8.03921C7.99936 6.14114 9.80408 4.62534 10.8442 4.03858C10.9776 3.96302 11.1421 4.00303 11.2265 4.1186C11.3154 4.24306 11.2843 4.40754 11.1643 4.50532Z" fill="white"/>
<path d="M14.6667 7.68722C14.6667 6.23809 13.5199 4.99791 12.862 4.46005C12.7643 4.38003 12.7376 4.23779 12.8176 4.14C12.8535 4.09431 12.9043 4.06263 12.9612 4.05045C13.018 4.03827 13.0773 4.04636 13.1288 4.07332C14.1511 4.63341 15.8981 6.06473 15.8981 7.98947C15.8981 9.12298 15.4092 10.0431 14.7513 10.7766C14.5379 10.9011 14.2934 10.941 14.0401 10.7988C13.5555 10.5277 13.7911 9.97195 14.0267 9.54083C14.4351 9.00687 14.6597 8.355 14.6667 7.68276V7.68722ZM9.955 14.506H9.98165C9.58696 15.0124 9.36008 15.6293 9.33265 16.2708C9.33265 17.6221 10.4573 18.9912 11.1419 19.6135C11.2352 19.7024 11.244 19.8446 11.1507 19.929C11.1111 19.9643 11.0617 19.9862 11.009 19.9918C10.9564 19.9973 10.9034 19.9863 10.8574 19.9601L10.8439 19.9558C10.1328 19.5556 8.1058 18.4222 8.1058 15.9863C8.1058 14.986 8.53253 14.146 9.09262 13.4659C9.35933 13.2348 9.67049 13.0836 9.955 13.2436C10.4884 13.5503 10.1728 14.1949 9.955 14.5016V14.506Z" fill="white"/>
</svg>
