<svg width="24" height="24" viewBox="0 0 24 24" fill="none" xmlns="http://www.w3.org/2000/svg">
<path d="M11.0598 3.56849C10.3047 4.19859 8.9995 5.6238 8.9995 7.22905C8.9995 9.22436 11.39 10.5795 12.635 11.3047L13.0352 11.5447C14.0753 12.1848 16.5007 13.785 16.5007 16.3454C16.5007 18.7759 14.4004 20.3811 13.2901 20.9711C13.1901 21.0212 13.0651 21.0061 12.9801 20.9261C12.9549 20.9021 12.9351 20.8729 12.9218 20.8407C12.9085 20.8084 12.9022 20.7738 12.9032 20.7389C12.9041 20.7041 12.9124 20.6697 12.9273 20.6382C12.9423 20.6069 12.9636 20.5788 12.9902 20.5561C13.7903 19.856 15.0004 18.3457 15.0004 16.8305C15.0004 14.7452 13.2102 13.6301 11.8249 12.83L11.66 12.7298C9.93463 11.7348 7.49927 10.3295 7.49927 7.54411C7.49927 5.40878 9.52958 3.70351 10.6997 3.04341C10.8498 2.9584 11.0348 3.00341 11.1299 3.13342C11.2298 3.27345 11.1948 3.45848 11.0598 3.56849Z" fill="white"/>
<path d="M15.0001 7.14812C15.0001 5.51786 13.7099 4.12265 12.9698 3.51756C12.8599 3.42753 12.8298 3.26751 12.9198 3.1575C12.9602 3.1061 13.0174 3.07046 13.0814 3.05676C13.1453 3.04305 13.2119 3.05216 13.2699 3.08249C14.42 3.71259 16.3854 5.32283 16.3854 7.48816C16.3854 8.76335 15.8354 9.7985 15.0952 10.6237C14.8552 10.7637 14.58 10.8086 14.2951 10.6487C13.75 10.3437 14.015 9.71845 14.2801 9.23343C14.7395 8.63273 14.9922 7.89938 15.0001 7.1431V7.14812ZM9.69936 14.8193H9.72935C9.28532 15.389 9.03008 16.083 8.99922 16.8046C8.99922 18.3249 10.2644 19.8651 11.0346 20.5652C11.1396 20.6652 11.1495 20.8252 11.0445 20.9201C11 20.9598 10.9444 20.9845 10.8851 20.9908C10.826 20.997 10.7663 20.9846 10.7145 20.9551L10.6994 20.9503C9.89935 20.5001 7.61902 19.225 7.61902 16.4846C7.61902 15.3593 8.09909 14.4142 8.72919 13.6491C9.02923 13.3891 9.37929 13.219 9.69936 13.399C10.2995 13.7441 9.9444 14.4693 9.69936 14.8143V14.8193Z" fill="white"/>
</svg>
