<svg width="24" height="24" viewBox="0 0 24 24" fill="none" xmlns="http://www.w3.org/2000/svg">
<path fill-rule="evenodd" clip-rule="evenodd" d="M7.46106 12.6733C5.77546 12.9169 3.87324 14.6026 3 15.6856C3.93757 17.1971 5.23312 18.4541 6.77209 19.3458C8.31107 20.2373 10.0461 20.7359 11.8235 20.7976C13.6011 20.8591 15.3664 20.4817 16.9633 19.6988C18.5603 18.9158 19.9398 17.7514 20.9797 16.3084L21 16.058C19.646 13.8918 17.7304 12.8967 16.9382 12.6733C18.0689 9.74203 19.5852 3.19604 16.5389 3.19604C13.4926 3.19604 12.6532 7.71122 12.5381 10.304H11.8613C11.7461 7.71122 10.7848 3.19604 7.79954 3.19604C4.69235 3.19604 6.33057 9.74203 7.46106 12.6733ZM12.4773 17.7503C12.4773 17.6606 12.4416 17.5745 12.3781 17.511C12.3146 17.4475 12.2285 17.4119 12.1388 17.4119C12.049 17.4119 11.9628 17.4475 11.8994 17.511C11.836 17.5745 11.8003 17.6606 11.8003 17.7503C11.8003 18.0414 11.7325 18.3055 11.5972 18.4951C11.4888 18.671 11.3264 18.7658 11.1233 18.7658C10.5344 18.7658 10.4463 18.4951 10.4463 18.4273C10.4463 18.3376 10.4108 18.2515 10.3472 18.188C10.2838 18.1245 10.1977 18.0888 10.108 18.0888C10.0181 18.0888 9.93202 18.1245 9.86852 18.188C9.80503 18.2515 9.76949 18.3376 9.76949 18.4273C9.76949 19.0365 10.3583 19.4428 11.1233 19.4428C11.5972 19.4428 11.9425 19.1991 12.1658 18.8673C12.3689 19.1652 12.6938 19.4428 13.1542 19.4428C13.9191 19.4428 14.5081 19.0365 14.5081 18.4273C14.5081 18.3376 14.4724 18.2515 14.4089 18.188C14.3454 18.1245 14.2594 18.0888 14.1696 18.0888C14.0799 18.0888 13.9937 18.1245 13.9303 18.188C13.8668 18.2515 13.8311 18.3376 13.8311 18.4273C13.8311 18.4951 13.7431 18.7658 13.1542 18.7658C12.985 18.7658 12.8224 18.6574 12.6802 18.4273C12.5449 18.1903 12.4773 17.9128 12.4773 17.7503Z" fill="white"/>
</svg>
