<svg width="24" height="24" viewBox="0 0 24 24" fill="none" xmlns="http://www.w3.org/2000/svg">
<path d="M10.6275 3.91465L10.5439 3.979C9.32131 5.25305 10.087 8.10357 9.41786 10.3492C8.78719 12.4726 5.5506 13.6823 4.18003 14.9821C3.83786 15.2616 3.55703 15.6085 3.35509 16.0014C3.15316 16.3943 3.03448 16.8247 3.00646 17.2656C2.97845 17.7064 3.04171 18.1483 3.19227 18.5636C3.34284 18.9788 3.5775 19.3587 3.88153 19.6791C4.18558 19.9997 4.55248 20.2539 4.9593 20.426C5.3661 20.5983 5.80407 20.6846 6.2458 20.6798C6.68752 20.675 7.1235 20.5792 7.52648 20.3981C7.92944 20.2172 8.29072 19.9549 8.58771 19.6279H8.6006C8.84511 19.3898 9.03169 19.0938 9.15391 18.7721L9.18619 18.682V18.6499C9.23769 18.5212 9.28273 18.3861 9.31486 18.251C9.93254 15.986 9.54653 12.138 10.0741 10.761C10.7369 9.03015 11.9338 8.15505 12.9311 7.19629C13.6196 6.53997 14.0572 5.84502 13.9542 5.08575V5.0407C13.9256 4.76581 13.8382 4.50029 13.698 4.26206C13.558 4.02384 13.3684 3.81847 13.1421 3.65986C12.9157 3.50125 12.6579 3.39308 12.3863 3.34267C12.1146 3.29227 11.8351 3.30081 11.567 3.3677C11.2067 3.45779 10.8784 3.65084 10.6275 3.91465ZM17.1393 18.7592C17.1393 19.2711 17.3428 19.7623 17.7047 20.1243C18.0667 20.4862 18.5577 20.6897 19.0697 20.6897C19.5816 20.6897 20.0726 20.4862 20.4347 20.1243C20.7967 19.7623 21 19.2711 21 18.7592C21 18.2474 20.7967 17.7563 20.4347 17.3943C20.0726 17.0323 19.5816 16.8288 19.0697 16.8288C18.5577 16.8288 18.0667 17.0323 17.7047 17.3943C17.3428 17.7563 17.1393 18.2474 17.1393 18.7592Z" fill="white"/>
</svg>
