<svg width="24" height="24" viewBox="0 0 24 24" fill="none" xmlns="http://www.w3.org/2000/svg">
<path d="M5.72998 17.4375C5.47454 17.1413 5.24061 16.8272 5.02998 16.4975L9.51498 12.0026L5.01999 7.50756C5.23499 7.17756 5.46999 6.86256 5.72499 6.56756L11.165 12.0026L5.72998 17.4375ZM4.43 8.59256C4.25999 8.98255 4.115 9.39255 4 9.80261L6.19998 12.0026L4 14.1975C4.115 14.6075 4.25999 15.0126 4.43499 15.4026L7.84498 12.0026L4.43499 8.59256H4.43ZM11.9999 12.8426L6.56499 18.2726C6.85998 18.5325 7.17499 18.7626 7.50498 18.9726L11.9999 14.4875L16.5 18.9825C16.825 18.7725 17.1399 18.5325 17.435 18.2825L11.9999 12.8375V12.8426ZM15.41 19.5675L11.9999 16.1525L8.58998 19.5626C8.97998 19.7375 9.38998 19.8826 9.79998 19.9975L11.9999 17.7975L14.1949 19.9975C14.6107 19.8844 15.017 19.7391 15.41 19.5626V19.5675ZM11.9999 11.1676L17.435 5.73256C17.1387 5.47712 16.8246 5.24319 16.495 5.03256L11.9999 9.51756L7.50498 5.02257C7.17499 5.23756 6.85998 5.47256 6.56499 5.72756L11.9999 11.1676ZM19.565 15.4125C19.7399 15.0225 19.885 14.6175 20 14.2075L17.7999 12.0026L20 9.80261C19.885 9.38756 19.7399 8.98255 19.565 8.58755L16.15 12.0026L19.5599 15.4125H19.565ZM14.4799 12.0026L18.975 7.50756C18.765 7.17756 18.525 6.86256 18.275 6.56756L12.835 12.0026L18.265 17.4375C18.525 17.1375 18.7599 16.8275 18.965 16.4975L14.485 12.0026H14.4799ZM11.9999 7.85256L15.41 4.43757C15.0185 4.2615 14.614 4.11606 14.1999 4.00256L11.9999 6.20256L9.79998 4.00256C9.38998 4.11756 8.98498 4.26257 8.59498 4.43757L11.995 7.84756L11.9999 7.85256Z" fill="white"/>
</svg>
