<svg width="24" height="24" viewBox="0 0 24 24" fill="none" xmlns="http://www.w3.org/2000/svg">
<path d="M10.4835 5.20825C10.426 5.10082 10.3371 5.0134 10.2288 4.95755C10.1204 4.90171 9.99779 4.88004 9.87682 4.89546L7.06637 5.3694C6.82941 5.40731 6.72513 5.60636 6.82466 5.81964L13.0428 18.7914C13.1423 18.9999 13.4172 19.1421 13.6541 19.1042L16.4599 18.6303C16.6969 18.5924 16.8012 18.3933 16.7017 18.18L10.4835 5.20825ZM10.1043 14.5781C10.1043 14.3743 9.93377 14.2321 9.72044 14.2653L7.17538 14.6729C7.07048 14.6901 6.97467 14.7428 6.90395 14.8221C6.83322 14.9014 6.79186 15.0028 6.78674 15.109V19.6825C6.78674 19.8862 6.96211 20.0283 7.17538 19.9952L9.72044 19.5877C9.82451 19.5694 9.91917 19.5163 9.98895 19.437C10.0587 19.3577 10.0994 19.2571 10.1043 19.1517V14.5781Z" fill="white"/>
<path d="M17.2132 4.32234C17.2132 4.11381 17.0426 3.97163 16.8293 4.0048L14.2795 4.41239C14.1755 4.43059 14.0808 4.48372 14.011 4.56298C13.9412 4.64225 13.9005 4.74293 13.8956 4.84843V9.42196C13.8956 9.62575 14.0662 9.76794 14.2795 9.73476L16.8293 9.32717C16.9334 9.30896 17.028 9.25584 17.0978 9.17659C17.1676 9.09732 17.2083 8.99665 17.2132 8.89114V4.31761V4.32234Z" fill="white"/>
</svg>
