<svg width="24" height="24" viewBox="0 0 24 24" fill="none" xmlns="http://www.w3.org/2000/svg">
<path fill-rule="evenodd" clip-rule="evenodd" d="M19.503 7.27194C18.2276 10.2069 16.141 12.7158 13.4893 14.5027C10.8377 16.2899 7.73139 17.2807 4.53635 17.3586C3.87509 16.3743 3.4139 15.2692 3.17905 14.1063C2.94422 12.9436 2.94033 11.7458 3.16769 10.5814C3.395 9.41712 3.84904 8.30911 4.50396 7.32054C5.15882 6.33201 6.00166 5.48235 6.9844 4.82002C7.96715 4.15773 9.07048 3.6958 10.2315 3.46056C11.3925 3.22539 12.5883 3.22151 13.7508 3.44914C14.9133 3.67684 16.0196 4.13162 17.0064 4.78755C17.9936 5.44347 18.8418 6.28767 19.503 7.27194ZM19.8756 7.21568V6.09559C19.8756 6.084 19.8785 6.07258 19.8845 6.06261C19.89 6.05267 19.8984 6.04445 19.9081 6.03889L20.9099 5.47177C20.9197 5.46604 20.9303 5.463 20.9414 5.463C20.9523 5.46306 20.9631 5.46604 20.9727 5.47182C20.9821 5.47758 20.99 5.48584 20.9953 5.49579C21.0009 5.50575 20.9999 5.517 20.9999 5.52847V6.64858C20.9997 6.66005 21.0007 6.67125 20.9952 6.68119C20.9898 6.69116 20.982 6.69943 20.9726 6.70528L19.9694 7.27243C19.9597 7.27818 19.9491 7.28116 19.9379 7.28116C19.927 7.28116 19.9162 7.27812 19.9065 7.27238C19.8971 7.26659 19.8893 7.25832 19.8838 7.24841C19.8784 7.23846 19.8756 7.22715 19.8756 7.21568ZM19.3147 17.505C20.4104 15.9708 20.9996 14.1318 20.9996 12.2455C20.9999 10.8554 20.6784 9.48411 20.0601 8.2396C17.2424 11.8863 15.4566 16.1427 14.8896 20.7186C16.6719 20.1092 18.2192 19.0391 19.3147 17.505Z" fill="white"/>
</svg>
