<svg width="24" height="24" viewBox="0 0 24 24" fill="none" xmlns="http://www.w3.org/2000/svg">
<path d="M4.51422 15.1409C4.11427 15.1409 3.86859 14.7237 4.07428 14.3923L10.1305 4.53096C10.178 4.45665 10.2436 4.3955 10.3209 4.35313C10.3982 4.31078 10.4851 4.28857 10.5733 4.28857C10.6615 4.28857 10.7483 4.31078 10.8258 4.35313C10.9031 4.3955 10.9686 4.45665 11.0162 4.53096L19.9291 18.9631C20.1291 19.2945 19.8834 19.7115 19.4777 19.7115H6.98813C6.58819 19.7115 6.3368 19.2887 6.54249 18.9574L8.09654 16.5235C8.14372 16.4496 8.20877 16.389 8.28568 16.347C8.3626 16.3051 8.44887 16.2832 8.53647 16.2835H12.7644C12.8542 16.2858 12.9428 16.2636 13.0209 16.2196C13.0991 16.1755 13.1638 16.1111 13.2083 16.0333C13.2529 15.9553 13.2755 15.8667 13.2738 15.7771C13.2721 15.6873 13.2461 15.5997 13.1986 15.5236L10.999 11.9469C10.954 11.8738 10.891 11.8132 10.8159 11.7712C10.741 11.7292 10.6565 11.7072 10.5705 11.7072C10.4845 11.7072 10.4 11.7292 10.3249 11.7712C10.2499 11.8132 10.1869 11.8738 10.142 11.9469L8.3308 14.9179C8.28163 14.9886 8.21571 15.0459 8.13892 15.0849C8.06214 15.1238 7.9769 15.143 7.89086 15.1409H4.51992H4.51422Z" fill="white"/>
</svg>
