<svg width="24" height="24" viewBox="0 0 24 24" fill="none" xmlns="http://www.w3.org/2000/svg">
<path d="M11.4499 3.56539L4.3201 10.5952C3.9101 10.9952 3.74511 11.4953 3.75011 12.0002C3.74834 12.5251 3.95306 13.0299 4.3201 13.4052L11.4499 20.44C11.855 20.8401 12.3649 21 12.8749 21C13.3849 21 13.895 20.8401 14.2999 20.435L18.8498 15.9551C17.6798 15.8501 17.2848 16.1051 16.8198 16.3951C16.5149 16.5901 16.1748 16.8051 15.5699 16.9451C15.2648 17.0151 15.0099 17.0602 14.7999 17.0602C14.2849 17.0602 14.0299 16.8851 13.8049 16.7301C13.6298 16.6051 13.4798 16.5002 13.2399 16.5002H10.59C11.02 15.8402 10.73 15.6302 10.73 15.6302C10.73 15.6302 9.80997 15.4102 10.025 13.1252C8.15002 11.0803 8.31502 8.62528 8.31502 8.62528C8.31502 8.62528 8.94 10.6452 11.7349 11.7202C11.615 10.1802 12.04 9.57026 12.2349 9.30026L12.305 9.18527L12.3999 9.38527C12.655 9.94526 13.0099 10.7252 14.87 11.1552C15.4699 10.4053 15.7049 10.2203 16.2049 9.8252L16.2999 9.75031C15.8699 8.32028 15.9448 7.5253 16.2999 6.93531L16.4198 7.23531C16.8198 8.23528 17.4599 9.84527 20.2498 9.43026L14.2999 3.56539C14.1118 3.38122 13.889 3.23641 13.6442 3.13939C13.3996 3.04238 13.138 2.99513 12.8749 3.0004C12.3649 3.0004 11.855 3.16039 11.4499 3.56539Z" fill="white"/>
<path d="M13.7195 12.975C13.6194 13.03 13.5194 13.0751 13.4443 13.125C14.5444 14.06 15.6543 12.31 15.1544 12C14.7248 12.3916 14.2416 12.7198 13.7195 12.975Z" fill="white"/>
</svg>
