<svg width="24" height="24" viewBox="0 0 24 24" fill="none" xmlns="http://www.w3.org/2000/svg">
<path d="M15.636 10.7842L14.4213 11.999L7.6377 5.22037V5.20537L8.83745 4.00562H8.85745L15.636 10.7842Z" fill="white"/>
<path d="M16.3656 5.21036L15.1559 4.00562H15.1459L12.6064 6.54508V6.55508L13.8112 7.76482H13.8262L16.3656 5.22037V5.21036Z" fill="white"/>
<path d="M8.36272 10.7785L7.15297 11.9983L4.01363 8.85891L4.01113 8.85552L4.01025 8.85142L4.01113 8.8473L4.01363 8.84391L5.21338 7.64417C5.21662 7.64302 5.22014 7.64302 5.22337 7.64417H5.22838L8.36773 10.7834L8.36272 10.7785Z" fill="white"/>
<path d="M16.8506 12.0035L15.6359 13.2131L13.8214 15.0278H13.8163L12.6115 13.8279L12.6066 13.818V13.808L14.4262 11.9984L18.7802 7.63931C18.783 7.63686 18.7866 7.6355 18.7903 7.6355C18.7939 7.6355 18.7975 7.63686 18.8003 7.63931L20 8.83907V8.85906L16.8607 12.0083L16.8506 12.0035ZM9.58222 11.9984L8.37246 13.2182L5.22312 16.3575L5.21813 16.3589L5.21313 16.3575L4.00338 15.1577L4.00089 15.1543L4 15.1503L4.00089 15.1462L4.00338 15.1427L7.14273 11.9935L8.35747 10.7787L10.1721 8.97903V8.97404L10.1771 8.9727L10.1821 8.97404L11.3868 10.1788V10.1887L9.57722 12.0035L9.58222 11.9984Z" fill="white"/>
<path d="M9.58183 11.9998L16.3604 18.7783V18.7934L15.1607 19.993L15.1557 19.9944L15.1507 19.993L8.37207 13.2194L9.58183 11.9998ZM16.8503 12.0047L19.9996 15.149V15.164L18.7949 16.3638L18.7899 16.3652L18.7849 16.3638L15.6356 13.2194L16.8452 12.0097H16.8553L16.8503 12.0047Z" fill="white"/>
<path d="M7.63707 18.7769L10.1766 16.2376L10.1799 16.235L10.184 16.2341L10.1882 16.235L10.1916 16.2376L11.3913 17.4422H11.3963V17.4473L11.3977 17.4523L11.3963 17.4573L8.85682 19.9917H8.84683L7.63707 18.7921V18.787L7.63574 18.782L7.63707 18.7769Z" fill="white"/>
</svg>
