<svg width="24" height="24" viewBox="0 0 24 24" fill="none" xmlns="http://www.w3.org/2000/svg">
<path d="M18.9877 6.39258C18.3574 6.5164 17.7664 6.69086 17.2767 6.79779C16.6457 6.93447 16.074 7.26716 15.6433 7.7483C15.2127 8.22945 14.9452 8.83443 14.8792 9.47671C14.6766 10.8782 15.1494 11.4802 14.9412 13.1125C14.5809 15.9546 11.8457 16.9396 10.5739 17.5305C9.84215 17.868 8.04683 18.656 6.66797 19.2582C8.42591 20.5466 10.5914 21.1536 12.7629 20.9669C14.9344 20.7799 16.9644 19.8119 18.4764 18.2421C19.9884 16.6724 20.8798 14.6075 20.9852 12.4305C21.0906 10.2536 20.403 8.1123 19.0495 6.40383L18.982 6.39258H18.9877Z" fill="white"/>
<path d="M10.9962 10.6857C11.6884 9.18874 11.4409 9.18311 11.9642 7.77611C12.1006 7.35481 12.3718 6.99 12.7358 6.73783C13.0999 6.48564 13.5366 6.36004 13.979 6.38035C14.4968 6.38035 15.037 6.54358 15.2678 6.5717C16.2078 6.70116 16.4497 6.36347 18.4364 6.0483L18.7179 6.0089C17.7301 4.90142 16.4835 4.05544 15.0896 3.54627C13.6957 3.0371 12.1975 2.88055 10.7285 3.09059C9.25931 3.3006 7.86496 3.87069 6.66953 4.75005C5.4741 5.62942 4.51469 6.79076 3.87675 8.13067C6.85397 8.86231 10.062 10.4663 10.9962 10.6857ZM9.02638 4.57939C9.29091 4.61878 10.5629 6.19463 10.7992 10.2524C10.7992 10.2524 9.16708 9.85841 8.81252 9.01427C8.52549 8.32766 8.90257 7.41591 9.02638 4.57939ZM19.0443 6.38035L19.0611 6.39724L18.9879 6.39161C19.0104 6.38035 19.0274 6.38035 19.0443 6.38035ZM3.0044 12.0084C3.0044 11.288 3.08883 10.5902 3.24642 9.92605C3.57283 10.1962 3.92177 10.5001 4.29322 10.8433C6.6401 13.0157 10.456 14.7324 11.846 13.1396H11.8516C11.5985 13.4773 10.681 14.4566 8.8294 14.1245L5.84656 18.5762C4.94802 17.7348 4.23205 16.7174 3.74313 15.5875C3.25421 14.4577 3.00277 13.2395 3.0044 12.0084Z" fill="white"/>
</svg>
