<svg width="24" height="24" viewBox="0 0 24 24" fill="none" xmlns="http://www.w3.org/2000/svg">
<path fill-rule="evenodd" clip-rule="evenodd" d="M8.94998 4C7.63498 4 6.74998 5.19999 6.99998 6.49999L7.49999 9.49998C5.52998 10.35 4 11.9 4 13.75V14.9C4 16.45 5.00999 17.7499 6.42499 18.5999C7.88498 19.4999 9.79998 19.9999 11.975 19.9999C14.15 19.9999 16.065 19.4999 17.525 18.5999C18.9899 17.7499 20 16.45 20 14.9V13.75C20 11.9 18.4699 10.3999 16.5 9.54999L16.9999 6.49999C17.2 5.19999 16.265 4 14.95 4C13.79 4 13 4.95 13 6.09999V8.78999C12.605 8.73999 12.275 8.73998 11.975 8.73998H10.835L11 6.09999C11 4.95 10.1049 4 8.94998 4ZM9.24974 14.9998C9.66978 14.9998 9.99971 14.425 9.99971 13.7499C9.99971 13.0749 9.66978 12.4999 9.24974 12.4999C8.82974 12.4999 8.49974 13.0749 8.49974 13.7499C8.49974 14.425 8.82974 14.9998 9.24974 14.9998ZM14.7497 14.9998C15.1697 14.9998 15.4997 14.425 15.4997 13.7499C15.4997 13.0749 15.1697 12.4999 14.7497 12.4999C14.3297 12.4999 13.9998 13.0749 13.9998 13.7499C13.9998 14.425 14.3297 14.9998 14.7497 14.9998Z" fill="white"/>
</svg>
