<svg width="24" height="24" viewBox="0 0 24 24" fill="none" xmlns="http://www.w3.org/2000/svg">
<path d="M16.2497 17.8776L19.5297 16.2352L7.76513 10.3623L4.48047 12L16.245 17.8776H16.2497ZM12.0003 19.9999L15.2944 18.3575L7.76513 14.5929L4.4946 16.2352L12.0003 19.9999ZM19.5203 12L16.2357 13.6376L12.9604 12L16.2403 10.3623L19.5203 12Z" fill="white"/>
<path d="M8.71065 5.64704L12.0048 4L15.294 5.64704L12 7.28466L8.71065 5.64232V5.64704ZM7.75067 6.12231L4.4707 7.76466L12 11.5246L15.28 9.88699L7.75067 6.12703V6.12231ZM16.2353 9.41169L19.5247 7.76466L16.2447 6.13173L12.9506 7.77406L16.2353 9.41169Z" fill="white"/>
</svg>
