<svg width="24" height="24" viewBox="0 0 24 24" fill="none" xmlns="http://www.w3.org/2000/svg">
<path d="M11.9999 21.0625C14.4034 21.0625 16.7086 20.1076 18.4081 18.4081C20.1077 16.7085 21.0624 14.4035 21.0624 12C21.0624 9.5964 20.1077 7.29139 18.4081 5.59183C16.7086 3.8923 14.4034 2.9375 11.9999 2.9375C9.59648 2.9375 7.29137 3.8923 5.59183 5.59183C3.89228 7.29139 2.93749 9.5964 2.93749 12C2.93749 14.4035 3.89228 16.7085 5.59183 18.4081C7.29137 20.1076 9.59648 21.0625 11.9999 21.0625ZM22 12C22 14.6521 20.9464 17.1956 19.0709 19.071C17.1957 20.9464 14.6521 21.9999 11.9999 21.9999C9.34783 21.9999 6.80427 20.9464 4.92892 19.071C3.05355 17.1956 2 14.6521 2 12C2 9.34776 3.05355 6.80429 4.92892 4.92892C6.80427 3.05357 9.34783 2 11.9999 2C14.6521 2 17.1957 3.05357 19.0709 4.92892C20.9464 6.80429 22 9.34776 22 12Z" fill="white"/>
<path d="M12 4.5V9.81253L16.375 11.8188L12 4.5Z" fill="white"/>
<path d="M12 4.5L7.625 11.8188L12 9.8188V4.5Z" fill="white"/>
<path d="M12 15.2629V18.8755L16.375 12.6567L12 15.2629Z" fill="white"/>
<path d="M12 18.8755V15.2629L7.625 12.6567L12 18.8755Z" fill="white"/>
<path d="M12 14.4315L16.375 11.819L12 9.81909V14.4315Z" fill="white"/>
<path d="M7.625 11.8192L12 14.4317V9.81299L7.625 11.8192Z" fill="white"/>
</svg>
