<svg width="24" height="24" viewBox="0 0 24 24" fill="none" xmlns="http://www.w3.org/2000/svg">
<path d="M17.0071 6.58811C17.1435 6.79518 17.1529 7.20929 16.9412 7.51518C16.7247 7.82106 16.1412 8.0187 15.6705 7.56223C14.4424 6.37635 12.56 6.14577 11.6801 6.14577C10.8959 6.12315 10.1154 6.25769 9.38417 6.54145C8.65291 6.82521 7.98588 7.25246 7.42234 7.79802C6.8588 8.34358 6.41016 8.99641 6.10285 9.71805C5.79553 10.4397 5.63575 11.2156 5.63294 12C5.68 14.4282 7.32235 17.8541 11.6801 17.8541C12.9035 17.8541 14.9553 17.3269 15.9907 16.2446C16.1694 16.0564 16.8095 16.174 17.0353 16.4563C17.2659 16.7387 17.2 17.3976 16.9412 17.6187C15.4611 18.8479 13.5992 19.5234 11.6754 19.5293C7.44 19.5293 4 16.1598 4 12C4 7.83988 7.4353 4.47046 11.6801 4.47046C15.2094 4.47046 16.9177 6.45165 17.0071 6.58811Z" fill="white"/>
<path d="M18.5883 11.0596C19.368 11.0596 20 10.4276 20 9.64786C20 8.86816 19.368 8.23608 18.5883 8.23608C17.8086 8.23608 17.1765 8.86816 17.1765 9.64786C17.1765 10.4276 17.8086 11.0596 18.5883 11.0596Z" fill="white"/>
<path d="M18.5878 10.118C18.8477 10.118 19.0584 9.90725 19.0584 9.64734C19.0584 9.38744 18.8477 9.17676 18.5878 9.17676C18.3279 9.17676 18.1172 9.38744 18.1172 9.64734C18.1172 9.90725 18.3279 10.118 18.5878 10.118Z" fill="white"/>
</svg>
