<svg width="24" height="24" viewBox="0 0 24 24" fill="none" xmlns="http://www.w3.org/2000/svg">
<path d="M17.6329 5.91165C17.7865 6.14461 17.797 6.61049 17.5589 6.95461C17.3152 7.29872 16.6588 7.52107 16.1293 7.00754C14.7477 5.67343 12.63 5.41402 11.6401 5.41402C10.7579 5.38857 9.87977 5.53993 9.05719 5.85917C8.23452 6.17839 7.48411 6.65905 6.85013 7.27281C6.21615 7.88656 5.71143 8.62099 5.36571 9.43284C5.01997 10.2447 4.84022 11.1175 4.83706 12C4.89 14.7317 6.73764 18.5858 11.6401 18.5858C13.0164 18.5858 15.3247 17.9928 16.4895 16.7752C16.6906 16.5635 17.4106 16.6958 17.6647 17.0134C17.9241 17.3311 17.85 18.0723 17.5589 18.3211C15.8937 19.7039 13.7991 20.4638 11.6348 20.4705C6.87 20.4705 3 16.6798 3 12C3 7.31989 6.86471 3.5293 11.6401 3.5293C15.6106 3.5293 17.5324 5.75813 17.6329 5.91165Z" fill="white"/>
<path d="M19.4118 10.9421C20.289 10.9421 21 10.2311 21 9.35387C21 8.47671 20.289 7.76562 19.4118 7.76562C18.5347 7.76562 17.8236 8.47671 17.8236 9.35387C17.8236 10.2311 18.5347 10.9421 19.4118 10.9421Z" fill="white"/>
<path d="M19.4113 9.88282C19.7037 9.88282 19.9407 9.64577 19.9407 9.35338C19.9407 9.061 19.7037 8.82397 19.4113 8.82397C19.1189 8.82397 18.8818 9.061 18.8818 9.35338C18.8818 9.64577 19.1189 9.88282 19.4113 9.88282Z" fill="white"/>
</svg>
