<svg width="24" height="24" viewBox="0 0 24 24" fill="none" xmlns="http://www.w3.org/2000/svg">
<path d="M11.4976 3.13393C11.6496 3.04619 11.8221 3 11.9975 3C12.173 3 12.3454 3.04619 12.4974 3.13393L12.7023 3.2539L12.2525 4.14864H12.2474C12.1715 4.10478 12.0852 4.08167 11.9975 4.08167C11.9098 4.08167 11.8236 4.10478 11.7476 4.14864H11.7377L11.2677 3.2689L11.5026 3.13393H11.4976ZM10.323 3.80874L10.8478 4.65849L9.85308 5.22834L9.38826 4.34358L10.323 3.80874ZM8.43853 4.88843L7.4988 5.42827L7.96366 6.30803L8.97338 5.73318L8.44353 4.88343L8.43853 4.88843ZM6.54907 5.96812L7.07892 6.81788L6.0992 7.37273L5.64433 6.48798L6.54407 5.96812H6.54907ZM4.69959 7.02781L4.49965 7.13779C4.3471 7.22587 4.22051 7.3527 4.13273 7.50544C4.04496 7.65817 3.99909 7.83139 3.99979 8.00754V8.5024H5.10948C5.16679 8.34333 5.24406 8.19215 5.33941 8.05253L4.69959 7.02781ZM13.1622 4.6685L14.1719 5.24833L14.6368 4.36358L13.677 3.81374L13.1622 4.6685ZM16.0913 6.34301L15.0567 5.75319L15.5865 4.90342L16.5562 5.45827L16.0913 6.34301ZM16.9761 6.84788L17.8508 7.34773L18.3556 6.48798L17.506 6.00311L16.9761 6.85286V6.84788ZM18.8855 8.5024C18.8306 8.34728 18.7568 8.19954 18.6657 8.06254L19.3054 7.03282L19.4904 7.13779C19.6439 7.22523 19.7714 7.35179 19.8601 7.50457C19.9488 7.65735 19.9954 7.83088 19.9953 8.00754V8.5024H18.8855ZM3.99979 9.50211V10.5019H4.99951V9.50211H3.99979ZM3.99979 12.5013V11.5015H4.99951V12.5013H3.99979ZM3.99979 13.5009V14.5007H4.99951V13.5009H3.99979ZM3.99979 16.0003V15.5004H4.99951V15.7103C4.99951 15.8903 5.09949 16.0552 5.24944 16.1452L5.27444 16.1602L4.77458 17.02L4.50465 16.865C4.35116 16.7776 4.22358 16.6509 4.1349 16.4983C4.04622 16.3455 3.99961 16.1719 3.99979 15.9953V16.0003ZM5.65932 17.5248L6.63904 18.0846L7.1639 17.2349L6.18918 16.685L5.65932 17.5248ZM8.53351 19.1693L7.5088 18.5845L8.01865 17.7248L9.05836 18.3246L8.53351 19.1693ZM9.40826 19.6692L10.378 20.224L10.8979 19.3742L9.92305 18.8144L9.40826 19.6692ZM11.5026 20.8689L11.2428 20.7189L11.8126 19.6892C11.934 19.7003 12.056 19.7003 12.1774 19.6892L12.7823 20.699L12.4924 20.8689C12.3416 20.9547 12.171 21 11.9975 21C11.824 21 11.6534 20.9547 11.5026 20.8689ZM13.667 20.194L14.6418 19.6392L14.147 18.7695L13.1822 19.3193L13.667 20.194ZM16.5362 18.5545L15.5215 19.1343L15.0517 18.2545L16.0213 17.7047L16.5362 18.5545ZM17.4209 18.0496L18.3907 17.4949L17.8459 16.6551L16.9462 17.1699L17.4209 18.0496ZM19.4954 16.865L19.2905 16.985L18.7805 16.1251C18.8484 16.0793 18.9039 16.0175 18.9424 15.9452C18.9807 15.8729 19.0007 15.7922 19.0005 15.7103V15.5004H20.0002V16.0003C20 16.1755 19.9538 16.3477 19.866 16.4995C19.7784 16.6513 19.6522 16.7774 19.5004 16.865H19.4954ZM19.9953 14.5007H18.9955V13.5009H19.9953V14.5007ZM18.9955 12.5013H19.9953V11.5015H18.9955V12.5013ZM19.9953 10.5019H18.9955V9.50211H19.9953V10.5019ZM7.26386 8.90229L6.18418 8.26747L5.78429 8.93728L6.86398 9.5671L7.26386 8.89729V8.90229ZM9.45824 10.1019L8.37855 9.47712L7.97866 10.1469L9.05836 10.7767L9.45824 10.1069V10.1019ZM10.548 10.7767L11.6276 11.4065L11.2277 12.0814L10.148 11.4466L10.548 10.7767ZM16.6811 8.89729L17.7608 8.26747L18.1608 8.93728L17.0811 9.5671L16.6811 8.89729ZM15.5715 9.47712L14.4919 10.1069L14.8916 10.7767L15.9664 10.1469L15.5665 9.47712H15.5715ZM12.3224 11.4065L13.3971 10.7767L13.7971 11.4466L12.7173 12.0814L12.3175 11.4065H12.3224ZM12.4974 12.0013H11.4976V13.0012H12.4974V12.0013ZM12.4974 13.9908H11.4976V15.0005H12.4974V13.9908ZM11.4976 16.9999V16.0003H12.4974V16.9999H11.4976ZM11.4976 17.9998V18.9994H12.4974V17.9998H11.4976Z" fill="white"/>
</svg>
