<svg width="24" height="24" viewBox="0 0 24 24" fill="none" xmlns="http://www.w3.org/2000/svg">
<path fill-rule="evenodd" clip-rule="evenodd" d="M16.8873 14.0498C17.3232 13.916 17.714 13.6633 18.0134 13.3192C18.3127 12.9751 18.5096 12.5538 18.5818 12.1033C18.6873 11.545 18.5879 10.9672 18.3017 10.476C17.8882 9.79587 17.2347 9.44233 17.2347 9.44233C17.7675 7.16444 14.4821 5.98411 12.6799 5.33667L12.6731 5.3342C12.3862 5.23415 12.1395 5.14745 11.9527 5.06743C10.9793 4.60118 10.1447 3.88845 9.53182 3C9.10499 4.53389 10.4988 6.16783 10.4988 6.16783C9.32507 5.14745 6.17726 4.74064 5.55702 4.66729C5.43777 5.09959 5.37721 5.54598 5.37695 5.99443V15.9982C5.37695 17.3248 5.90394 18.5969 6.84196 19.5349C7.77999 20.473 9.05222 21 10.3788 21H15.8403C15.2805 20.9332 14.7673 20.8465 14.3007 20.7466C11.8132 20.2264 10.346 19.1861 9.14556 17.6255C8.28524 16.5118 7.99846 15.198 7.95177 14.8911C7.30488 10.8164 10.9729 9.90263 10.9729 9.90263C9.92585 11.0096 10.326 12.6837 10.326 12.6837C10.5914 12.0812 11.0185 11.5639 11.56 11.1895C12.1017 10.8153 12.7363 10.5982 13.3939 10.5629C13.9701 10.543 14.5416 10.674 15.0518 10.943C15.5617 11.2121 15.9925 11.6098 16.3015 12.0967C16.8826 13.0214 16.8873 14.0306 16.8873 14.0498ZM15.5075 9.82249L15.9611 9.24905L14.1537 7.96851C15.0407 8.83544 15.5075 9.82249 15.5075 9.82249Z" fill="white"/>
</svg>
