<svg width="24" height="24" viewBox="0 0 24 24" fill="none" xmlns="http://www.w3.org/2000/svg">
<path d="M6.82739 4.68879H9.32091L11.1209 3.56116H8.83915L6.82739 4.68879ZM7.45209 7.55292L8.7862 5.19174H6.15504L4.88444 7.64291L7.45209 7.55292ZM7.32503 8.04527V10.6659H4.63562V8.04527H7.32503ZM12.8679 9.04055L14.668 10.1258H17.0239L15.2239 9.04055H12.8679ZM12.8468 20.4706H15.0968L16.9921 19.3588H14.6097L12.8468 20.4706ZM9.30503 13.9746L11.105 15.0653H8.74386L6.94385 13.9746H9.30503ZM16.6479 13.44V16.0606H19.3321V13.44H16.6479ZM15.1762 10.5865L16.5103 12.9529L19.078 13.043L17.8074 10.5865H15.1762ZM7.44681 11.153L8.78092 13.5194H6.14974L4.87914 11.0629L7.44681 11.153ZM15.1762 18.9141L16.5103 16.5477L19.078 16.4576L17.8074 18.9141H15.1762Z" fill="white"/>
<path d="M14.9805 3.52954H12.3759L13.7788 5.91719H16.41L14.9805 3.52954ZM15.8065 3.95307L16.9606 6.04953L18.9724 7.09248L17.8606 5.14425L15.8065 3.94777V3.95307ZM12.4818 8.55895L13.7894 6.30366L16.4629 6.43071L15.1605 8.55895H12.4765H12.4818ZM15.6052 8.73366L16.9976 6.56307L19.2211 7.81777L17.8765 10.0307L15.6052 8.73366ZM3 10.3749L4.23353 8.45835V10.6819L3 12.7942V10.3749ZM4.49822 11.296L3.05823 13.6148L4.44529 15.9019L5.72647 13.6148L4.49822 11.296ZM4.68352 16.2724L6.11294 13.959L8.48999 15.3037L7.0288 17.5113L4.68352 16.2777V16.2724ZM6.99175 17.9243L5.05411 16.9925L6.12352 18.9196L8.04 20.0049L6.99175 17.9243ZM8.86058 20.4283L7.54763 18.099H10.2635L11.5129 20.4283H8.86058ZM10.9253 7.90248L9.82937 9.81901L11.947 8.6013L12.8682 6.79601L10.92 7.90248H10.9253ZM9.67582 5.0013L11.8676 3.63543L13.2441 5.96483L10.9411 7.35189L9.67063 5.0013H9.67582ZM9.34235 5.40895L7.81235 7.72248L9.20999 9.94068L10.5494 7.71718L9.34235 5.40895ZM7.81235 8.55366V10.8672L8.98764 12.7519V10.4384L7.81235 8.55366ZM8.93469 15.4677L7.51058 17.5695H10.29L11.5606 15.4677H8.93469ZM11.0735 17.2307L12.1853 15.3778L14.0753 14.2607L12.8735 16.246L11.0735 17.2307ZM12.937 16.6907L10.7294 17.9824L12.1376 20.3225L14.2924 18.9777L12.9423 16.6907H12.937ZM15.0335 11.2748L16.1981 13.2019V15.5472L15.0335 13.6413V11.2748ZM14.7477 14.1601L16.1241 16.336L14.6152 18.6442L13.2758 16.4102L14.7477 14.1601ZM19.5971 8.13542L18.2629 10.412L19.4912 12.8101L21 10.412L19.5971 8.13542ZM19.687 13.3767L20.9576 11.3278V13.5724L19.687 15.452V13.3767Z" fill="white"/>
</svg>
