<svg width="24" height="24" viewBox="0 0 24 24" fill="none" xmlns="http://www.w3.org/2000/svg">
<path d="M3.28955 9.28418L3.79681 14.6186L6.54586 19.3313L8.25311 17.2204L6.05496 10.3532L3.28955 9.28418Z" fill="white"/>
<path d="M20.689 9.28418L20.1871 14.6186L17.4381 19.3313L15.709 17.2041L17.929 10.3532L20.689 9.28418Z" fill="white"/>
<path d="M15.633 17.291H8.43854L6.74219 19.4128L12.093 21L17.2748 19.4128L15.633 17.291Z" fill="white"/>
<path d="M6.03835 10.1399L3.27295 9.14172L6.96016 5.10542L11.9237 3V5.99995L6.0329 10.1399H6.03835Z" fill="white"/>
<path d="M17.9615 10.1399L20.727 9.14172L17.0398 5.10542L12.0762 3V5.99995L17.967 10.1399H17.9615Z" fill="white"/>
<path fill-rule="evenodd" clip-rule="evenodd" d="M17.8146 10.4404L12.0111 6.27319L6.20752 10.4404L8.42203 17.1821H15.6001L17.8201 10.4404H17.8146ZM7.58204 13.7186L12.0111 16.9695L16.4402 13.7186L14.7492 8.45498H9.27293L7.58204 13.7186Z" fill="white"/>
</svg>
