<svg width="24" height="24" viewBox="0 0 24 24" fill="none" xmlns="http://www.w3.org/2000/svg">
<path d="M17.7144 8.17616L17.6963 8.18066L9.03535 17.0171C8.91982 17.137 8.78144 17.2325 8.62837 17.298C8.47529 17.3636 8.31066 17.3978 8.14416 17.3986C7.97766 17.3994 7.81267 17.3669 7.65895 17.3029C7.50523 17.2389 7.3659 17.1449 7.24917 17.0261L3.43834 13.1702C2.507 12.2345 3.15939 10.6507 4.45966 10.6507H6.65078C7.0332 10.6507 7.40213 10.7992 7.68108 11.0692L9.70572 13.0173L8.67091 14.142L6.64627 12.2254H4.59014L8.14001 15.7528L16.6345 7.06036C16.7747 6.91556 16.9424 6.80034 17.1279 6.72152C17.3134 6.64269 17.5128 6.60186 17.7144 6.60144H19.361C20.8232 6.60144 21.5521 8.41913 20.5083 9.47644L13.0577 17.0036C12.9332 17.1295 12.7846 17.2291 12.6208 17.2965C12.4572 17.364 12.2815 17.398 12.1045 17.3963C11.9275 17.3946 11.7524 17.3574 11.5901 17.2868C11.4276 17.2163 11.2811 17.1138 11.159 16.9856L10.6505 16.4592L11.7304 15.3749L12.1173 15.7798L19.451 8.40112C19.532 8.32013 19.4735 8.17616 19.361 8.17616H17.7099H17.7144Z" fill="white"/>
</svg>
