<svg width="24" height="24" viewBox="0 0 24 24" fill="none" xmlns="http://www.w3.org/2000/svg">
<path fill-rule="evenodd" clip-rule="evenodd" d="M14.456 6.59379H12.7151L13.1747 4.97192H11.4177L10.8932 6.59379H3.36237L4.74638 8.55627L2 17.4063H7.50897L6.98456 19.0281H8.81728L9.27679 17.4063H11.0717L10.5526 19.0281H12.38L12.8449 17.4063H17.2618C17.7825 17.4046 18.2891 17.2371 18.7082 16.9279C19.1271 16.6187 19.4367 16.1842 19.592 15.6872L21.9436 8.18864C22.0011 8.00553 22.0149 7.81149 21.9838 7.62211C21.9527 7.43272 21.8776 7.25327 21.7646 7.09817C21.6516 6.94306 21.5037 6.81664 21.3329 6.72905C21.1621 6.64145 20.9733 6.59513 20.7813 6.59379H16.2725L16.732 4.97192H14.975L14.4505 6.59379H14.456ZM14.4398 14.7032L16.1698 9.29692H9.41202L8.89297 10.9188H11.2447L10.6716 12.5407H8.36857L7.67656 14.7032H14.4398Z" fill="white"/>
</svg>
