<svg width="24" height="24" viewBox="0 0 24 24" fill="none" xmlns="http://www.w3.org/2000/svg">
<path d="M8.89867 5.48938L7.81763 9.90946H16.1622L15.0483 5.48938H8.89867ZM20 13.4748L16.5017 10.385L12.3288 17.2176L16.9255 18.5105L20 13.4748Z" fill="white"/>
<path fill-rule="evenodd" clip-rule="evenodd" d="M15.4377 10.3051H15.9942L12.0325 16.6845L8.02686 10.3051H13.9545L12.7206 12.6088L13.343 13.602L15.4377 10.3051ZM8.84226 10.7064H10.9498L13.0805 14.0365L12.0325 15.774L8.84226 10.7064ZM13.2937 10.7064H11.4851L12.4694 12.1846L13.2937 10.7064Z" fill="white"/>
<path d="M4 13.4745L7.49914 10.3847L11.6717 17.2173L7.07499 18.5106L4 13.4745Z" fill="white"/>
</svg>
