<svg width="24" height="24" viewBox="0 0 24 24" fill="none" xmlns="http://www.w3.org/2000/svg">
<path d="M4.00121 7.50246L11.999 3L19.9967 7.50246V16.4976L11.999 21L4.00121 16.4976V7.50246Z" fill="white"/>
<path d="M7.09935 9.298L12.0042 6.62451L16.9132 9.38632V14.7881L11.9949 17.3753L7.09935 14.7885V9.298Z" fill="white"/>
<path d="M8.64867 10.195L12.006 8.27515L15.3633 10.1955V13.8608L12.0086 15.8699L8.64867 13.8608V10.195Z" fill="white"/>
<path d="M11.5643 4.104V4.97898L5.89561 8.10182L5.06712 7.69068L11.5643 4.104ZM12.4353 4.104V4.99293L18.1009 8.11628L18.933 7.69068L12.4353 4.104Z" fill="white"/>
<path d="M12.4168 19.8503V19.0017L18.0612 15.8354L18.9384 16.3044L12.4168 19.8503ZM11.5651 19.873V19.0203L5.9299 15.8696L5.07713 16.2935L11.5651 19.873Z" fill="white"/>
<path d="M12.0024 3.01928L11.5732 4.10913L5.06712 7.702V6.87868L12.0003 3.01412L11.9993 3.01153L12.0018 3.01308L12.006 3.0105L12.0043 3.01464L18.933 6.826L18.9206 7.68962L12.4389 4.10913L12.0024 3.01928Z" fill="white"/>
<path d="M12.0086 20.9601L11.566 19.8526L5.07957 16.282V17.1508L12.0076 20.9632L12.0065 20.9663L12.0097 20.9647L18.933 17.1508V16.2985L12.4167 19.8418L12.0086 20.9601Z" fill="white"/>
<path d="M11.5554 4.121L12.0032 3.0105L12.4361 4.0988V4.96654L12.0194 4.74134L11.5554 4.98203V4.121Z" fill="white"/>
<path d="M11.5554 19.8425L12.0074 20.9669L12.416 19.8434L12.4154 19.0103L11.9733 19.2505L11.5554 19.0103V19.8425Z" fill="white"/>
<path d="M3.96532 7.51458L5.07685 6.87256V7.68709L3.96532 7.51458Z" fill="white"/>
<path d="M20.0206 7.50108L18.9309 6.82495L18.917 7.68443L20.0206 7.50108Z" fill="white"/>
<path d="M20.0439 16.4753L18.9319 17.1172V16.3171L20.0439 16.4753Z" fill="white"/>
<path d="M3.95531 16.4653L5.09113 17.1631V16.3032L3.95531 16.4653Z" fill="white"/>
<path d="M4.60772 7.89793L3.96776 7.51416L5.07776 7.68203L4.60772 7.89793Z" fill="white"/>
<path d="M19.3748 7.88807L20.0138 7.50171L18.9126 7.66804L19.3748 7.88807Z" fill="white"/>
<path d="M4.35683 8.00588L3.96532 7.51416L4.61715 7.88865L4.35683 8.00588Z" fill="white"/>
<path d="M19.6188 8.00221L20.0206 7.50171L19.375 7.88082L19.6188 8.00221Z" fill="white"/>
<path d="M5.05528 7.67958L5.91166 8.10001L5.47778 8.35L5.28977 8.82727L4.7743 8.40631V15.6188L3.96336 16.4753V7.521L4.36264 7.99774L5.05528 7.67958Z" fill="white"/>
<path d="M18.9223 7.67324L18.0654 8.0937L18.4993 8.34369V8.80958L19.2379 8.34369V15.6224L20.0447 16.4799L20.0137 7.51416L19.6145 7.99142L18.9223 7.67324Z" fill="white"/>
<path d="M5.29133 8.81964L4.77482 8.38062V15.619L3.97215 16.4605L5.29133 15.7879V8.81964Z" fill="white"/>
<path d="M18.7209 8.65022L19.2374 8.32275V15.5922L20.0427 16.478L18.7209 15.7276V8.65022Z" fill="white"/>
<path d="M6.32427 8.79749L5.29124 8.21899V15.8102L6.32427 15.1971V8.79749Z" fill="white"/>
<path d="M17.6875 8.77974L18.7205 8.2312V15.7537L17.6875 15.187V8.77974Z" fill="white"/>
<path d="M6.84047 9.11724L6.32396 8.79907V15.2053L6.84047 14.898V9.11724Z" fill="white"/>
<path d="M17.1716 9.24291L17.6882 8.79199V15.1988L17.1716 14.8982V9.24291Z" fill="white"/>
<path d="M5.90808 8.57158L5.48143 8.32263L12.0065 4.72974L18.5219 8.33863L18.1139 8.6129L12.0065 5.13417L5.90808 8.57158Z" fill="white"/>
<path d="M6.84206 9.15008L5.89012 8.5597L12.0067 5.10938L18.1109 8.61342L17.1724 9.24461L12.0067 6.33766L6.84206 9.15008Z" fill="white"/>
<path d="M6.83723 14.8845L5.52684 15.6556L11.9765 19.2583L18.5006 15.6025L17.1649 14.8845L12.0014 17.6499L6.83723 14.8845Z" fill="white"/>
<path d="M8.39089 10.0744L7.31395 9.40082L12.0064 6.83374L16.6645 9.41219L15.6232 10.0749L12.0064 7.99848L8.39089 10.0744Z" fill="white"/>
<path d="M8.38784 13.9863L7.35789 14.6889L11.9746 17.1412L16.6505 14.6868L15.6221 13.9863L11.9746 16.1635L8.38784 13.9863Z" fill="white"/>
<path d="M7.35789 9.41602L8.39093 10.0741V14.0047L7.35789 14.6932V9.41602ZM16.6552 9.41602L15.6232 10.0746L15.6221 14.0047L16.6552 14.6932V9.41602Z" fill="white"/>
<path d="M12.0062 8.54419L8.90721 10.2704L10.0581 10.9139L12.0062 9.86177L13.9438 10.9139L15.1055 10.2704L12.0062 8.54419Z" fill="white"/>
<path d="M8.90721 13.7252V10.2527L10.0719 10.9308H13.9406L15.1055 10.2527V13.7252L13.2335 14.8352H10.7997L8.90721 13.7252Z" fill="white"/>
<path d="M9.93993 10.9071L12.0169 9.76416L14.072 10.9071V13.1721L13.16 13.6964L13.5664 16.5905L12.0169 17.4505L10.4457 16.5905L10.896 13.6964L9.93993 13.1721V10.9071Z" fill="white"/>
<path d="M18.0644 15.8453L18.504 15.6001L20.0438 16.4791L18.9337 16.3309L18.0644 15.8453Z" fill="white"/>
<path d="M5.93614 15.8785L5.5343 15.6492L3.9641 16.4606L5.07562 16.3155L5.93614 15.8785Z" fill="white"/>
</svg>
