<svg width="24" height="24" viewBox="0 0 24 24" fill="none" xmlns="http://www.w3.org/2000/svg">
<path d="M7.43456 21.9994L8.00824 20.4433L7.07897 20.5308L6.66966 21.5732C6.58029 21.7756 6.4928 21.9888 6.23221 21.9888L4.09997 22L4.54367 20.7495H2.18708C2.19771 20.5964 6.70715 9.21537 6.88212 8.87601H10.7204C11.0703 8.90852 11.2672 9.17906 11.1578 9.52902L10.6223 10.907L8.30382 17.1075C11.5178 17.1075 14.5581 15.2221 15.9372 12.3068C16.9777 10.3415 17.2621 7.00125 14.1981 7.00125H2.15771L3.74315 4.35658C3.8141 4.2153 3.92373 4.09707 4.05925 4.01565C4.19477 3.93422 4.35061 3.89296 4.50868 3.89665H10.9172L11.6403 2H13.7401C13.8713 2.02187 13.9588 2.13123 13.9375 2.27372L13.8825 2.4487L13.4107 3.6998L13.3451 3.88602H14.2199L14.2856 3.74354L14.8999 2.15311C14.9543 2 14.9543 2 15.0967 2H16.9553C17.2071 2 17.3052 2.14249 17.2071 2.3937L16.7027 3.75478L16.6259 3.94039L16.7902 3.97351C17.6432 4.08287 18.485 4.26909 19.2724 4.62967C19.8742 4.90338 20.421 5.25334 20.8691 5.7564C21.4815 6.43444 21.7878 7.23247 21.8315 8.14048C21.8865 9.01537 21.7221 9.86775 21.4271 10.6882C20.7771 12.6206 19.7218 14.3918 18.3319 15.8832C16.291 17.9924 13.5838 19.2454 10.7641 19.9402C10.6329 19.9733 10.5673 20.0277 10.5235 20.1589L9.97177 21.6388C9.86241 21.9125 9.75305 21.9994 9.47994 21.9994H7.43456Z" fill="white"/>
</svg>
