<svg width="24" height="24" viewBox="0 0 24 24" fill="none" xmlns="http://www.w3.org/2000/svg">
<path d="M7.89125 20.9995L8.40757 19.599L7.57122 19.6777L7.20284 20.6159C7.12241 20.798 7.04367 20.9899 6.80914 20.9899L4.89012 21L5.28945 19.8745H3.16852C3.17809 19.7368 7.23659 9.49383 7.39406 9.18841H10.8485C11.1634 9.21767 11.3406 9.46115 11.2422 9.77612L10.7602 11.0163L8.67359 16.5967C11.5662 16.5967 14.3024 14.8999 15.5436 12.2761C16.4801 10.5073 16.736 7.50112 13.9784 7.50112H3.14209L4.56899 5.12092C4.63284 4.99377 4.73151 4.88736 4.85348 4.81408C4.97544 4.7408 5.1157 4.70366 5.25796 4.70699H11.0256L11.6764 3H13.5662C13.6843 3.01968 13.7631 3.11811 13.7439 3.24635L13.6944 3.40383L13.2698 4.52982L13.2107 4.69742H13.9981L14.0572 4.56919L14.6101 3.1378C14.659 3 14.659 3 14.7872 3H16.4599C16.6865 3 16.7748 3.12824 16.6865 3.35433L16.2326 4.5793L16.1635 4.74635L16.3113 4.77616C17.079 4.87458 17.8366 5.04218 18.5453 5.3667C19.0869 5.61304 19.5791 5.92801 19.9823 6.38076C20.5335 6.991 20.8092 7.70922 20.8485 8.52643C20.898 9.31383 20.75 10.081 20.4845 10.8194C19.8995 12.5585 18.9498 14.1526 17.6989 15.4949C15.8621 17.3932 13.4256 18.5209 10.8878 19.1462C10.7698 19.176 10.7107 19.2249 10.6713 19.343L10.1747 20.6749C10.0763 20.9212 9.9779 20.9995 9.7321 20.9995H7.89125Z" fill="white"/>
</svg>
