<svg width="24" height="24" viewBox="0 0 24 24" fill="none" xmlns="http://www.w3.org/2000/svg">
<path d="M19.871 13.4342C20.0467 12.4649 20.0429 11.4713 19.8596 10.5034L16.9997 9.99842V13.9887L19.871 13.4342ZM19.7286 14.0722L17.1162 14.5737V14.5786L18.1358 17.1335C18.8836 16.2415 19.4273 15.1965 19.7286 14.0722ZM17.6812 17.6315L17.6582 17.6545L14.9144 16.557L16.5882 14.8826L17.6812 17.6315ZM17.1687 18.1055C16.291 18.8501 15.2625 19.3961 14.1539 19.7058L14.615 17.0801L17.1687 18.1055ZM13.5165 19.8554L14.0249 16.9996H10.0401L10.5961 19.8764C11.5629 20.0477 12.5522 20.0403 13.5165 19.8554ZM9.95868 19.7364L9.45016 17.0855L6.84981 18.121C7.75379 18.8836 8.81603 19.4357 9.95961 19.7373L9.95868 19.7364ZM5.90537 17.1815L6.94331 14.5832L4.28346 14.1166C4.59289 15.2449 5.14659 16.2912 5.90537 17.1815ZM4.13746 13.4807C3.95726 12.5184 3.9542 11.5313 4.12847 10.5678L7.00031 10.0079V13.9937L4.13746 13.4807ZM4.27046 9.93146L6.93881 9.41845L5.90737 6.81609C5.13666 7.71976 4.57742 8.78409 4.27046 9.93146ZM6.35885 6.32812L9.13619 7.44005L7.46628 9.11397L6.35885 6.32812ZM6.85131 5.87715C7.73986 5.12834 8.78123 4.58265 9.90268 4.27824L9.44016 6.91209L6.85131 5.87715ZM10.5346 4.13424L10.0296 7.02609H14.0204L13.462 4.13374C12.9797 4.04478 12.4904 4.0001 12 4.00024C11.4995 4.00024 11.0095 4.04624 10.5346 4.13424ZM14.0994 4.27874L14.6054 6.90709L17.1663 5.89215C16.2746 5.13623 15.2274 4.58544 14.0994 4.27874ZM17.6532 6.33962L17.6837 6.37062L16.5888 9.11397L14.9144 7.44005L17.6532 6.33962ZM18.1302 6.85959C18.867 7.73657 19.4064 8.76192 19.7116 9.8659L17.1068 9.40895L18.1302 6.85959ZM12.0275 11.3303L13.8964 7.50005H10.1632L12.0275 11.3303ZM7.50027 10.1319V13.8653L11.3615 11.9964L7.50027 10.1319ZM16.1938 9.56094L14.4623 7.83454L12.7025 11.3209L16.1938 9.56094ZM16.4998 13.8653V10.1319L12.6885 11.9964L16.4998 13.8653ZM9.1452 16.5616L9.14218 16.5581L9.14568 16.557L9.1452 16.5616ZM9.14218 16.5581L6.35835 17.6649L7.47128 14.8877L9.14218 16.5581ZM16.1938 14.4357L16.1908 14.4342L16.1938 14.4312V14.4357ZM12.7075 12.6757L16.1908 14.4342L14.4674 16.1621L12.7075 12.6757ZM12.0275 12.6573L10.1632 16.4996H13.8964L12.0275 12.6573ZM7.86626 9.56094L11.3521 11.3209L9.59216 7.83454L7.86626 9.56094ZM7.86626 14.4307L7.86926 14.4342L7.86626 14.4357V14.4307ZM7.86926 14.4342L9.59267 16.1621L11.3526 12.6762L7.86926 14.4342Z" fill="white"/>
</svg>
