<svg width="24" height="24" viewBox="0 0 24 24" fill="none" xmlns="http://www.w3.org/2000/svg">
<path d="M7.20774 3.35997C7.62958 3.07874 8.06267 3 8.44514 3C10.7962 3 13.4229 4.24303 15.4533 5.95851C17.4725 7.66274 18.9911 9.91825 18.9911 12.0104C18.9911 14.1253 17.36 15.9589 15.4083 17.2301C13.4397 18.5125 11.0325 19.3111 9.2719 19.3111C8.47347 19.3327 7.68968 19.0939 7.039 18.6306C6.47146 18.1941 6.02592 17.6189 5.74535 16.9602C5.14915 15.6665 5.01416 14.0803 5.01416 12.8599C5.01416 8.64141 5.44725 6.20036 6.08283 4.79986C6.31514 4.22378 6.70498 3.72477 7.20774 3.35997ZM6.70152 5.07545C6.1222 6.33535 5.59349 8.65829 5.59349 12.8599C5.59349 14.0523 5.81847 15.5202 6.3528 16.6846C6.58609 17.2698 6.95874 17.7891 7.43834 18.1975C7.89955 18.535 8.49575 18.7486 9.2719 18.7486C10.8693 18.7486 13.1529 17.9051 15.0371 16.6732C16.9383 15.4358 18.4118 13.7822 18.4118 12.0049C18.4118 10.205 16.9776 8.12396 15.0145 6.46472C13.0685 4.81673 10.5825 3.56245 8.45638 3.56245C8.16953 3.56245 7.87705 3.6187 7.5902 3.80993C7.19494 4.15155 6.89138 4.58659 6.70715 5.07545H6.70152Z" fill="white"/>
<path d="M8.37228 4.48496C8.79407 4.20374 9.22716 4.125 9.60973 4.125C11.9664 4.125 14.5874 5.36802 16.6179 7.0835C18.637 8.78774 20.1557 11.0432 20.1557 13.1355C20.1557 15.2503 18.5246 17.084 16.5728 18.3551C14.6043 19.6375 12.2026 20.4361 10.4366 20.4361C9.63808 20.4577 8.85418 20.2189 8.20355 19.7557C7.63601 19.3192 7.19047 18.7438 6.90991 18.0851C6.3137 16.7915 6.17871 15.2053 6.17871 13.9848C6.17871 9.76636 6.6118 7.32536 7.24738 5.92484C7.47969 5.34877 7.86954 4.84977 8.37228 4.48496ZM7.86608 6.20044C7.28675 7.46034 6.75804 9.78329 6.75804 13.9848C6.75804 15.1773 6.98302 16.6453 7.51735 17.8095C7.75066 18.3947 8.12329 18.914 8.60286 19.3226C9.06967 19.66 9.66025 19.8737 10.4366 19.8737C12.0395 19.8737 14.3174 19.03 16.2073 17.7982C18.1028 16.5608 19.5707 14.9073 19.5707 13.1299C19.5707 11.33 18.1421 9.24895 16.1792 7.58972C14.2274 5.94172 11.7526 4.68745 9.61537 4.68745C9.32848 4.68745 9.03595 4.74369 8.74919 4.93493C8.35387 5.27655 8.05031 5.71157 7.86608 6.20044Z" fill="white"/>
<path d="M6.04344 5.04746C6.46527 4.76624 6.89836 4.6875 7.28083 4.6875C9.63187 4.6875 12.2585 5.93052 14.289 7.646C16.3082 9.35024 17.8268 11.6057 17.8268 13.698C17.8268 15.8128 16.1956 17.6464 14.244 18.9176C12.2754 20.1999 9.86811 20.9986 8.10764 20.9986C7.30917 21.0203 6.52537 20.7813 5.87469 20.3181C5.3051 19.8823 4.85757 19.307 4.57542 18.6477C3.98485 17.354 3.84424 15.7678 3.84424 14.5474C3.84424 10.3289 4.28296 7.88786 4.91852 6.48736C5.15084 5.91127 5.54069 5.41227 6.04344 5.04746ZM5.53723 6.76295C4.9579 8.02285 4.4292 10.3458 4.4292 14.5474C4.4292 15.7398 4.65417 17.2077 5.1885 18.372C5.4218 18.9573 5.79444 19.4766 6.27404 19.885C6.73525 20.2225 7.33145 20.4361 8.10764 20.4361C9.70497 20.4361 11.9885 19.5926 13.8727 18.3607C15.7682 17.1234 17.2476 15.4698 17.2476 13.6924C17.2476 11.8924 15.8132 9.81142 13.8503 8.15222C11.8986 6.50422 9.41821 5.24995 7.28083 5.24995C6.99961 5.24995 6.7015 5.3062 6.42028 5.49743C6.02219 5.83997 5.71661 6.27707 5.53161 6.76857L5.53723 6.76295Z" fill="white"/>
</svg>
