<svg width="24" height="24" viewBox="0 0 24 24" fill="none" xmlns="http://www.w3.org/2000/svg">
<path fill-rule="evenodd" clip-rule="evenodd" d="M4.36922 3.14193C4.38031 3.10017 4.40522 3.06341 4.4399 3.03766C4.47457 3.01189 4.51697 2.99866 4.56013 3.00011H9.51276L19.5382 8.82551C19.6146 8.86913 19.6473 8.96187 19.6309 9.04369H19.6363L19.6255 9.06006C19.6155 9.08459 19.6007 9.10686 19.5818 9.1255L12.0164 21H6.82921L4.38013 3.27283C4.3659 3.23831 4.36211 3.20038 4.36922 3.16374L4.36377 3.14193H4.36922ZM7.24921 3.38737L7.39647 4.46191L9.58378 5.74918L9.25643 3.38737H7.24921ZM9.1583 17.4382L7.46193 4.94737L9.65466 6.23463L10.8546 14.7982L9.16378 17.4382H9.1583ZM9.24014 18.0272L9.56735 20.4163L11.2691 17.7436L10.9364 15.3873L9.24549 18.0272H9.24014ZM11.2583 14.8855L11.5855 17.2363L16.6582 9.25091H14.8746L11.2583 14.8855ZM14.8855 8.86369C14.8769 8.85751 14.8677 8.85203 14.8582 8.84733L10.0038 5.99461L9.66013 3.53464L18.8345 8.86369H14.8855ZM14.5146 9.09278L11.171 14.3018L10.0801 6.48553L14.5146 9.09278Z" fill="white"/>
</svg>
