<svg width="24" height="24" viewBox="0 0 24 24" fill="none" xmlns="http://www.w3.org/2000/svg">
<path fill-rule="evenodd" clip-rule="evenodd" d="M16.68 9.63001L13 6.07501V13.19L16.68 9.63001ZM9.14 17.165L11.0001 15.365V15.295L7.04 11.47V15.1401L9.14 17.165ZM10.23 18.2201L11.0001 17.4751V21H13V17.5L14.5501 19V18.99L14.85 19.28L18.485 15.7651H18.5V9.25001H18.4701L13.0899 4.05L12 3L5.53001 9.25001H5.5V15.7651H5.515L8.05001 18.2201L9.13501 19.275H9.14501L10.2351 18.2249L10.23 18.2201ZM13 15.4L14.85 17.185L17.0001 15.1V11.43L13 15.295V15.4ZM7.32001 9.63001L11.0001 13.19V6.07501L7.32001 9.63001Z" fill="white"/>
</svg>
