<svg width="24" height="24" viewBox="0 0 24 24" fill="none" xmlns="http://www.w3.org/2000/svg">
<path d="M19.2254 9.19663V14.5258C19.2254 14.7658 19.2336 15.0058 19.185 15.238C19.0633 15.7767 18.7835 16.2669 18.3815 16.6455C18.1885 16.8216 17.9557 16.9418 17.7224 17.0775L13.1411 19.7425C12.6585 19.9902 12.1124 20.0381 11.5896 19.9747C11.3209 19.9392 11.0617 19.8522 10.8261 19.7181L5.98737 16.9099C5.60167 16.68 5.28724 16.3476 5.07897 15.9498C4.88965 15.6144 4.78494 15.2379 4.77393 14.853V9.10061C4.80593 8.54008 5.05522 8.01208 5.40877 7.58833C5.55308 7.41019 5.72719 7.25843 5.92337 7.1398L10.4163 4.52296C10.6574 4.38722 10.8984 4.21947 11.1637 4.13122C11.6163 3.98959 12.0967 3.9621 12.5625 4.05122C12.7633 4.10747 12.9723 4.17148 13.1653 4.28348L18.06 7.13206C18.4935 7.38806 18.8073 7.82008 19.0246 8.27635C19.1531 8.56436 19.2254 8.87661 19.2254 9.19663ZM11.9513 7.2198C11.6043 7.73119 11.2028 8.20345 10.7539 8.62835C10.5206 8.84461 10.2957 9.08462 10.1593 9.38037C10.0432 9.59019 9.99288 9.83012 10.0148 10.0689C10.0464 10.3889 10.2796 10.6769 10.5774 10.7889C10.8824 10.9169 11.2278 10.8849 11.5415 10.7729C11.5921 10.7513 11.6474 10.7429 11.7021 10.7486C11.6458 11.1249 11.4207 11.4449 11.236 11.7732V11.829L11.7506 12.3409C11.7908 12.3812 11.8305 12.437 11.8874 12.4529C12.0798 12.309 12.2332 12.1092 12.4097 11.9493C12.4417 11.9012 12.5222 11.8531 12.4897 11.7892C12.3131 11.4692 12.1202 11.1492 12.0717 10.7724C12.1042 10.6929 12.1925 10.757 12.2487 10.7724C12.3912 10.8434 12.5468 10.8844 12.7059 10.8927C12.8649 10.9011 13.0239 10.8766 13.173 10.8209C13.5752 10.6687 13.8321 10.1963 13.7357 9.77267C13.6627 9.38784 13.4716 9.03534 13.189 8.7641C12.749 8.33866 12.3702 7.85399 12.0638 7.32406C12.0537 7.29963 12.0385 7.27766 12.019 7.25967C11.9995 7.24167 11.9765 7.22808 11.9513 7.2198ZM9.03363 12.421C8.74481 12.5837 8.50668 12.8234 8.34562 13.1131C8.18461 13.4025 8.10724 13.731 8.12218 14.0618C8.13714 14.3927 8.2438 14.713 8.43026 14.9866C8.61659 15.2602 8.8757 15.477 9.17867 15.6138C9.62303 15.7965 10.1222 15.7996 10.5692 15.6221C10.7942 15.5343 10.995 15.3816 11.1637 15.206C11.22 15.1415 11.3165 15.0858 11.3165 14.9815C11.3082 14.8778 11.2117 14.8216 11.1555 14.7414C11.0754 14.6775 11.011 14.5815 10.9227 14.5335C10.7782 14.4695 10.6894 14.6294 10.6012 14.7096C10.2316 15.0775 9.57249 15.0775 9.20241 14.7178C9.08147 14.6051 8.9903 14.4644 8.93707 14.3079C8.88384 14.1514 8.87021 13.9842 8.89738 13.8213C8.93764 13.5173 9.12241 13.2292 9.39545 13.0774C9.57249 12.9975 9.77321 12.9413 9.96627 12.9494C10.2476 12.9732 10.4964 13.1095 10.6894 13.3174L12.5625 15.2375C12.8578 15.5363 13.2507 15.7193 13.6694 15.753C14.0883 15.7868 14.5053 15.6693 14.8449 15.4218C15.0596 15.2655 15.2361 15.0626 15.3614 14.8284C15.4868 14.5943 15.5576 14.3349 15.5685 14.0694C15.5935 13.6517 15.4703 13.2385 15.2206 12.9025C14.9702 12.5656 14.6097 12.3273 14.2017 12.2289C13.6794 12.1329 13.0925 12.2372 12.691 12.6053C12.402 12.8694 12.1439 13.1653 11.8631 13.4212C11.5658 13.1813 11.3408 12.8855 11.0594 12.6371C10.935 12.5215 10.7905 12.4294 10.6331 12.3652L10.5531 12.325C10.3082 12.2212 10.0423 12.1765 9.77683 12.1947C9.51139 12.2127 9.25397 12.293 9.02537 12.4292L9.03363 12.421ZM13.0765 13.2694C13.1809 13.1643 13.3067 13.0826 13.4453 13.0302C13.584 12.9776 13.7323 12.9554 13.8802 12.965C14.0382 12.9695 14.1926 13.0128 14.3299 13.091C14.4673 13.1692 14.5833 13.2799 14.6678 13.4134C14.9332 13.8135 14.8609 14.3894 14.5156 14.7178C14.1697 15.0614 13.5752 15.1018 13.1973 14.7818C12.9161 14.5418 12.6828 14.2615 12.4179 14.0132L12.4097 13.9498L13.0765 13.2694Z" fill="white"/>
</svg>
