<svg width="24" height="24" viewBox="0 0 24 24" fill="none" xmlns="http://www.w3.org/2000/svg">
<path fill-rule="evenodd" clip-rule="evenodd" d="M19.0208 11H17.2207C17.2207 9.97495 16.9608 8.86997 16.4807 7.99995H18.8257C19.1258 7.99995 19.6158 8.00996 19.7758 7.76496C20.5707 6.47995 18.5757 6.11494 17.8057 6.09494L17.5458 6.08994C15.8207 6.04994 13.6307 5.99994 11.9606 5.99994C10.4807 5.99994 7.46562 6.03993 5.8656 6.11993C5.22061 6.15493 4.03558 6.51994 4.07559 7.31995C4.10059 7.81995 4.36559 7.99995 4.8356 7.99995H7.50062C7.12062 8.84996 6.70061 10.08 6.70061 11H4.9156C4.4856 11 4.10059 11.025 4.07559 11.545V12.4451C4.10059 12.96 4.4856 13 4.9156 13H6.70561C6.70561 13.9751 6.83062 15.1 7.19561 16H4.8356C4.5556 16 4.28559 16.0851 4.11059 16.35C3.84558 16.7751 4.07559 17.6051 4.6006 17.6951C5.0856 17.8701 5.6006 17.8951 6.12561 17.91C7.90562 17.95 10.2106 18.0001 11.9606 18.0001C13.4457 18.0001 15.8257 17.9651 17.9658 17.9251L18.1658 17.915C18.6258 17.9001 19.1908 17.875 19.5458 17.6151C19.9858 17.33 20.1408 16.5751 19.8558 16.13C19.7158 15.93 19.5358 15.955 19.3308 15.9801C19.2608 15.99 19.1908 16 19.1158 16H16.7307C17.0907 15.2051 17.2207 13.86 17.2207 13H19.0208C19.4307 13 19.8258 12.975 19.8507 12.455V11.555C19.8308 11.145 19.4008 11 19.0208 11ZM11.9706 7.99995C10.4107 8.03995 9.09064 8.64496 9.01563 10.5699C8.98564 10.9099 8.98564 11 9.20063 11H14.6507C15.0258 11 15.0258 10.97 14.9807 10.5699C14.8958 8.59495 13.5307 8.08996 11.9706 7.99995ZM14.7858 13H9.35065C8.97564 13 8.97564 13.03 9.02064 13.4299C9.10064 15.47 10.4706 15.9101 12.0057 16C13.5607 15.96 14.9057 15.355 14.9857 13.4299C15.0157 13.09 15.0157 13.015 14.7858 13Z" fill="white"/>
</svg>
