<svg width="24" height="24" viewBox="0 0 24 24" fill="none" xmlns="http://www.w3.org/2000/svg">
<path d="M18 13.861C18 17.251 15.3136 20 12.0001 20C8.68663 20 6.00012 17.2516 6.00012 13.861C6.00012 10.47 7.97412 4 12.0001 4C16.0256 4 18 10.47 18 13.861Z" fill="white"/>
<path d="M17.5484 16.202C17.8478 15.4579 18.0012 14.6631 17.9999 13.861C17.9999 10.47 16.0254 4 11.9999 4C9.39241 4 7.6454 6.7145 6.7384 9.5485L17.5484 16.202Z" fill="white"/>
<path d="M10.3084 4.41248L8.96091 10.9155L6.7384 9.54748C7.43341 7.37748 8.61992 5.27748 10.3084 4.41248Z" fill="white"/>
<path d="M6.73863 9.54846C6.24512 11.0894 6.00012 12.6665 6.00012 13.8609C6.00012 15.422 6.57012 16.847 7.50763 17.9306L8.96112 10.9165L6.73863 9.54846Z" fill="white"/>
<path d="M17.9993 13.8609C17.9993 14.69 17.8389 15.4805 17.5477 16.202L14.4993 14.3249V4.94843C16.8443 6.87193 17.9993 11.2674 17.9993 13.8609Z" fill="white"/>
<path d="M17.9996 13.8611C17.9996 14.6902 17.8392 15.4807 17.5481 16.2022L14.4821 14.3152L17.8792 12.2531C17.9597 12.8332 17.9996 13.3782 17.9996 13.8611Z" fill="white"/>
<path d="M7.51025 17.9172L14.4883 14.3192L8.96075 10.9172L7.51025 17.9172Z" fill="white"/>
<path d="M14.4993 19.4436V14.325L17.5478 16.2021C16.9689 17.6371 15.8738 18.7981 14.4993 19.4436Z" fill="white"/>
</svg>
