<svg width="24" height="24" viewBox="0 0 24 24" fill="none" xmlns="http://www.w3.org/2000/svg">
<path d="M11.9428 5.59066L5.39604 8.054C5.39274 8.05459 5.38932 8.05449 5.38606 8.05367C5.38278 8.05285 5.37973 8.05134 5.37709 8.04926L5.36761 8.03978V8.02557C6.33401 1.34618 17.6037 1.31775 18.6317 7.98293C18.6364 8.03031 18.6174 8.04452 18.5749 8.03031L12.0375 5.59066C12.0072 5.57854 11.9733 5.57854 11.9428 5.59066Z" fill="white"/>
<path d="M17.8827 11.214C17.8707 11.2375 17.8504 11.2562 17.8258 11.266L12.0275 14.0989C12.0166 14.1046 12.0044 14.1077 11.992 14.1077C11.9797 14.1077 11.9674 14.1046 11.9564 14.0989L6.16767 11.266C6.14322 11.2558 6.12311 11.2374 6.11082 11.214C5.85027 10.6502 5.64184 10.0722 5.48077 9.47534C5.48077 9.45644 5.48551 9.43743 5.50446 9.42792L11.9471 7.01202C11.9745 7.00185 12.0048 7.00185 12.0323 7.01202L18.4842 9.41377C18.4938 9.41377 18.5032 9.42328 18.5032 9.42792C18.3494 10.0395 18.1401 10.6356 17.878 11.2092L17.8827 11.214Z" fill="white"/>
<path d="M11.9761 19.2231C11.9822 19.2149 11.9856 19.205 11.9856 19.1947C11.9867 19.1829 11.9833 19.171 11.9761 19.1615C10.7634 17.8446 9.60752 16.4803 8.50851 15.0686C8.06771 14.5039 7.66267 13.9122 7.2958 13.2969C7.27684 13.259 7.28631 13.2496 7.32421 13.2685L11.9524 15.528C11.9856 15.5423 12.014 15.5423 12.0472 15.528L16.6612 13.2827C16.7274 13.2496 16.7417 13.2638 16.7038 13.3253C15.401 15.4097 13.6957 17.3519 12.0235 19.1663C12.0162 19.1748 12.012 19.1857 12.012 19.197C12.012 19.2082 12.0162 19.2192 12.0235 19.2279C12.3077 19.5027 12.9235 20.2274 12.6818 20.6395C12.4783 20.9853 11.9667 21.0943 11.6161 20.9143C10.8203 20.5021 11.6161 19.5973 11.9761 19.2231Z" fill="white"/>
</svg>
