<svg width="24" height="24" viewBox="0 0 24 24" fill="none" xmlns="http://www.w3.org/2000/svg">
<path d="M16.5522 19.7606L17.6321 20.9924H20.4446L14.2571 14.2425H11.7258L15.039 18.0281C13.5363 18.7816 11.8066 18.9474 10.1883 18.4929C8.56982 18.0384 7.17925 16.9964 6.28857 15.5708C5.3979 14.1451 5.07124 12.4385 5.37249 10.7846C5.67374 9.13086 6.58124 7.64898 7.9174 6.629C9.25356 5.60899 10.9222 5.12425 12.5969 5.26963C14.2717 5.41502 15.8318 6.18004 16.9723 7.41505C18.1127 8.65003 18.7512 10.2662 18.763 11.9471C18.7747 13.628 18.1588 15.2528 17.0358 16.5036L18.5321 18.1913C20.0988 16.5382 20.9806 14.3526 20.9997 12.0752C21.0187 9.79775 20.1736 7.59784 18.6347 5.91887C17.0958 4.23992 14.9775 3.20683 12.707 3.0279C10.4366 2.84896 8.18271 3.53749 6.39982 4.95466C4.61692 6.37182 3.43761 8.41224 3.09967 10.6645C2.76171 12.9169 3.29024 15.2135 4.5787 17.0915C5.86715 18.9695 7.8197 20.2893 10.0427 20.7846C12.2657 21.2798 14.5939 20.9139 16.5577 19.7606H16.5522Z" fill="white"/>
</svg>
