<svg width="24" height="24" viewBox="0 0 24 24" fill="none" xmlns="http://www.w3.org/2000/svg">
<path d="M14.0388 8.73806V15.5428C14.0428 15.6186 14.0252 15.6938 13.9878 15.7598C13.9504 15.8258 13.8948 15.8797 13.8278 15.9151C13.2456 16.2585 12.3467 16.6308 11.7265 17.0124V10.122C11.7265 9.94044 11.6982 9.83523 11.5265 9.74971C11.5265 9.74971 10.7177 9.17742 10.2119 8.89068C10.1547 8.85253 10.0783 8.83288 9.99212 8.7953V14.9699C9.99212 15.1705 9.95408 15.2757 9.79222 15.3711C9.28632 15.648 8.43826 15.9434 7.94226 16.2302L7.67979 16.3632V10.1417C7.67979 9.90295 7.61737 9.78843 7.42602 9.68321C6.87278 9.37796 6.48719 9.04388 5.91431 8.70974C6.55368 8.33744 7.16472 7.97498 7.79484 7.6316C7.85207 7.60269 7.96654 7.64084 8.04285 7.68882L9.85858 8.61436C9.98295 8.69066 10.0783 8.70974 10.2119 8.61436C10.7084 8.31837 11.0206 8.04204 11.5166 7.73623C11.6982 7.62177 11.8224 7.64084 11.9941 7.73623L14.0388 8.73806ZM14.0284 8.74732L14.1614 8.61436C14.6968 8.30796 15.3321 7.99348 15.876 7.69749C15.9286 7.67406 15.9855 7.66195 16.0431 7.66195C16.1007 7.66195 16.1576 7.67406 16.2102 7.69749C16.7634 7.99348 17.3929 8.30854 17.9271 8.63285C18.004 8.67101 18.0854 8.79472 18.0854 8.8716V15.0751C18.0854 15.133 18.0705 15.237 18.0231 15.2658C17.4022 15.6381 16.4414 15.9914 15.7732 16.373V10.0931C15.7732 9.93127 15.739 9.82606 15.5863 9.74054C15.0043 9.41559 14.621 9.07221 14.0388 8.73806L14.0284 8.74732Z" fill="white"/>
<path d="M11.1854 4.10384C11.6418 4.10384 12.0116 3.73399 12.0116 3.27776C12.0116 2.82151 11.6418 2.45166 11.1854 2.45166C10.7292 2.45166 10.3594 2.82151 10.3594 3.27776C10.3594 3.73399 10.7292 4.10384 11.1854 4.10384Z" fill="white"/>
<path d="M15.9338 4.63241C16.3019 4.63241 16.6003 4.33398 16.6003 3.96585C16.6003 3.59774 16.3019 3.29932 15.9338 3.29932C15.5657 3.29932 15.2673 3.59774 15.2673 3.96585C15.2673 4.33398 15.5657 4.63241 15.9338 4.63241Z" fill="white"/>
<path d="M19.3489 7.3748C19.6302 7.3748 19.8583 7.14678 19.8583 6.8655C19.8583 6.58422 19.6302 6.3562 19.3489 6.3562C19.0677 6.3562 18.8396 6.58422 18.8396 6.8655C18.8396 7.14678 19.0677 7.3748 19.3489 7.3748Z" fill="white"/>
<path d="M20.8219 12.3144C21.4726 12.3144 22 11.7868 22 11.1361C22 10.4854 21.4726 9.95801 20.8219 9.95801C20.1712 9.95801 19.6438 10.4854 19.6438 11.1361C19.6438 11.7868 20.1712 12.3144 20.8219 12.3144Z" fill="white"/>
<path d="M4.14595 10.069C4.82536 10.069 5.37614 9.51829 5.37614 8.83883C5.37614 8.15942 4.82536 7.60864 4.14595 7.60864C3.46653 7.60864 2.91577 8.15942 2.91577 8.83883C2.91577 9.51829 3.46653 10.069 4.14595 10.069Z" fill="white"/>
<path d="M20.2271 16.7165C20.8108 16.7165 21.2838 16.2434 21.2838 15.6597C21.2838 15.0761 20.8108 14.603 20.2271 14.603C19.6435 14.603 19.1704 15.0761 19.1704 15.6597C19.1704 16.2434 19.6435 16.7165 20.2271 16.7165Z" fill="white"/>
<path d="M6.9093 6.08031C7.49292 6.08031 7.96605 5.60719 7.96605 5.02355C7.96605 4.43993 7.49292 3.9668 6.9093 3.9668C6.32566 3.9668 5.85254 4.43993 5.85254 5.02355C5.85254 5.60719 6.32566 6.08031 6.9093 6.08031Z" fill="white"/>
<path d="M17.4969 19.9933C17.9337 19.9933 18.2876 19.6392 18.2876 19.2025C18.2876 18.7657 17.9337 18.4116 17.4969 18.4116C17.0601 18.4116 16.7061 18.7657 16.7061 19.2025C16.7061 19.6392 17.0601 19.9933 17.4969 19.9933Z" fill="white"/>
<path d="M13.4315 21.5482C13.8404 21.5482 14.172 21.2167 14.172 20.8077C14.172 20.3987 13.8404 20.0671 13.4315 20.0671C13.0225 20.0671 12.6909 20.3987 12.6909 20.8077C12.6909 21.2167 13.0225 21.5482 13.4315 21.5482Z" fill="white"/>
<path d="M9.09347 20.7439C9.41274 20.7439 9.67155 20.4851 9.67155 20.1658C9.67155 19.8465 9.41274 19.5876 9.09347 19.5876C8.7742 19.5876 8.51538 19.8465 8.51538 20.1658C8.51538 20.4851 8.7742 20.7439 9.09347 20.7439Z" fill="white"/>
<path d="M5.18187 18.7637C5.88396 18.7637 6.4531 18.1946 6.4531 17.4925C6.4531 16.7904 5.88396 16.2212 5.18187 16.2212C4.47979 16.2212 3.91064 16.7904 3.91064 17.4925C3.91064 18.1946 4.47979 18.7637 5.18187 18.7637Z" fill="white"/>
<path d="M3.36256 14.69C4.11509 14.69 4.72514 14.0799 4.72514 13.3274C4.72514 12.5748 4.11509 11.9648 3.36256 11.9648C2.61005 11.9648 2 12.5748 2 13.3274C2 14.0799 2.61005 14.69 3.36256 14.69Z" fill="white"/>
</svg>
