<svg width="24" height="24" viewBox="0 0 24 24" fill="none" xmlns="http://www.w3.org/2000/svg">
<path d="M11.7774 3.31274H12.237V7.43381H11.7774V3.31274ZM7.80326 14.0985L8.04484 14.4916L4.56326 16.5759L4.32642 16.1875L7.80326 14.0985ZM16.2632 14.1696L16.0263 14.5627L19.5601 16.6801L19.797 16.2917L16.2632 14.1696Z" fill="white"/>
<path fill-rule="evenodd" clip-rule="evenodd" d="M7.73706 9.64534L12.0002 7.2627L16.2634 9.64534V14.3585L12.0002 16.7363L7.73706 14.3585V9.64534ZM8.21074 9.85374L12.0002 7.73638L15.7896 9.85374V14.0412L12.005 16.2627L8.21074 14.0412V9.85374Z" fill="white"/>
<path d="M11.7675 11.863H12.2269V20.863H11.7675V11.863Z" fill="white"/>
<path d="M12.2838 11.8637L12.0469 12.2522L4.22644 7.77587L4.46328 7.38745L12.2838 11.8637Z" fill="white"/>
<path d="M11.7631 11.8637L11.9999 12.2522L19.8156 7.77587L19.5788 7.38745L11.7631 11.8637Z" fill="white"/>
<path fill-rule="evenodd" clip-rule="evenodd" d="M3.94739 7.52369L12 3L20.0527 7.52369V16.481L12 21L3.94739 16.481V7.52369ZM4.42108 7.73684L12 3.47368L19.5789 7.73684V16.2632L12 20.5262L4.42108 16.2632V7.73684Z" fill="white"/>
</svg>
