<svg width="24" height="24" viewBox="0 0 24 24" fill="none" xmlns="http://www.w3.org/2000/svg">
<path d="M6.35119 15.9366C9.65787 16.7746 10.3721 18.3772 10.3103 19.0746L6.35119 20.998H5.56388C4.88922 21.0008 4.24091 20.7362 3.76122 20.2617C3.28151 19.7872 3.0096 19.1419 3.00514 18.4672C3.00514 17.067 4.15236 15.9366 5.56388 15.9366H6.35119ZM9.46668 16.1221L3.06138 12.9618C2.61148 10.2961 4.73159 9.71125 6.26121 9.75626C6.6605 9.7619 7.04853 9.89692 7.40281 10.0768C8.9943 10.8866 11.7893 12.2983 13.465 13.1248C15.3545 14.0527 15.4895 15.5092 15.3209 16.1221L11.1144 18.1861C10.8367 17.3194 10.2503 16.5848 9.46668 16.1221Z" fill="white"/>
<path d="M14.7296 12.4778L3.00439 6.65742C3.00439 3.73314 5.16387 3.00208 6.32796 3.00208C7.26149 3.00208 7.95319 3.23264 8.18375 3.35074C10.8662 4.65542 16.6192 7.45598 18.1544 8.22079C20.0722 9.17681 21 9.7786 21 11.37C21 12.8322 20.3814 13.5801 19.8021 13.8781C18.908 14.3337 17.4234 15.0704 16.6811 15.374C16.6213 14.7673 16.4117 14.1851 16.0711 13.6796C15.7304 13.174 15.2694 12.7611 14.7296 12.4778Z" fill="white"/>
</svg>
