<svg width="24" height="24" viewBox="0 0 24 24" fill="none" xmlns="http://www.w3.org/2000/svg">
<path d="M14.3391 7.46493C14.2771 7.54406 14.1844 7.62557 14.0527 7.71435L12.3354 6.89718C12.5401 6.83468 12.8353 6.79465 13.1347 6.78529C13.4698 6.7627 13.8062 6.80687 14.1242 6.91522C14.364 7.01516 14.5189 7.22505 14.3391 7.46493Z" fill="white"/>
<path d="M9.93872 6.14575L11.4442 6.85964C11.1336 6.95816 10.8118 7.01906 10.4861 7.04077C10.2161 7.04077 9.78142 6.96082 9.64648 6.69096C9.54335 6.47785 9.74049 6.28364 9.93872 6.14575Z" fill="white"/>
<path fill-rule="evenodd" clip-rule="evenodd" d="M10.1758 4.40234L5.88809 6.3613C5.77595 6.41161 5.68052 6.49294 5.61309 6.59569C5.54562 6.69843 5.50895 6.81831 5.50738 6.94121C5.50579 7.0641 5.53939 7.18489 5.60418 7.28934C5.66898 7.39378 5.76228 7.47751 5.87309 7.53068L10.0909 9.55961C10.6994 9.85146 11.3661 10.0022 12.041 10.0005C12.7159 9.99873 13.3818 9.84458 13.9888 9.54962L18.1316 7.52569C18.6264 7.28581 18.6163 6.59118 18.1166 6.3613L13.9089 4.41233C13.3239 4.14253 12.6876 4.00199 12.0435 4.00026C11.3992 3.99853 10.7622 4.13567 10.1758 4.40234ZM14.6184 8.36513L14.135 8.13589C13.4995 8.41431 12.6829 8.49012 12.1497 8.50005L11.9498 8.16523L12.0788 8.16132C12.6095 8.14565 13.1912 8.12847 13.6815 7.92089L11.8632 7.05862C11.3375 7.2331 10.8024 7.37703 10.2457 7.34566C9.86095 7.31569 9.30619 7.17576 9.0963 6.81095C8.97138 6.58607 9.07632 6.37618 9.24623 6.20127C9.33886 6.10863 9.43812 6.02814 9.54269 5.95823L9.00135 5.70154L9.40114 5.50164L9.93033 5.75346C10.4757 5.52981 11.1061 5.50164 11.6849 5.50164L11.7199 5.7665L11.6658 5.76642C11.3465 5.76573 10.7342 5.76438 10.3111 5.93469L11.9173 6.69906C12.2502 6.60216 12.6413 6.52428 13.0393 6.49111C13.564 6.45115 14.0986 6.49111 14.5035 6.67103C14.8432 6.82094 15.1281 7.16077 14.9031 7.53557C14.8044 7.69068 14.6686 7.82156 14.5078 7.93187L14.9982 8.16523L14.6184 8.36513Z" fill="white"/>
<path fill-rule="evenodd" clip-rule="evenodd" d="M4.00439 15.1609V9.27901C4.00439 8.56438 4.75399 8.08963 5.41365 8.38947L9.75632 10.3785C10.2754 10.6148 10.7157 10.9952 11.0248 11.4744C11.334 11.9537 11.4991 12.5116 11.5004 13.0819V18.9989C11.5004 19.7185 10.7458 20.1932 10.0862 19.8884L5.73847 17.8595C5.22206 17.6219 4.78439 17.2417 4.47712 16.7635C4.16985 16.2854 4.00582 15.7292 4.00439 15.1609ZM9.21155 17.3246C9.01165 17.4496 8.81176 17.4945 8.52192 17.4945C7.65737 17.4945 6.73287 16.715 6.2831 15.6256C6.1093 15.1862 6.00477 14.7226 5.97327 14.2512L5.50352 14.0514L5.74339 13.5766L5.95327 13.6666C5.95827 13.4268 5.97826 13.1819 6.00325 12.9419L5.50352 12.7271L5.74339 12.2573L6.0882 12.4073L6.0982 12.3373C6.26311 11.5076 6.62292 10.998 7.39752 10.998C8.01219 10.998 8.67683 11.4477 9.19157 12.1274C9.14158 12.3023 9.06163 12.5422 8.9167 12.777C8.60687 12.1274 8.13712 11.6776 7.59742 11.6776C7.01771 11.6776 6.73287 12.0323 6.59294 12.6222L8.65685 13.5066L8.41697 13.9814L6.49799 13.1568C6.468 13.3917 6.44802 13.6366 6.44802 13.8815L8.22208 14.6461L7.9822 15.1158L6.488 14.4712C6.52797 14.771 6.59793 15.0709 6.71287 15.3407C7.06269 16.2052 7.76232 16.8348 8.44696 16.8348C8.65185 16.8348 8.81175 16.7948 8.9317 16.7249C9.00666 16.8499 9.1066 17.0548 9.21155 17.3246Z" fill="white"/>
<path fill-rule="evenodd" clip-rule="evenodd" d="M18.5863 8.40505C19.246 8.10521 19.9956 8.57996 19.9956 9.29957V15.1814C19.9941 15.7498 19.8301 16.306 19.5227 16.7841C19.2155 17.2623 18.7779 17.6426 18.2614 17.88L13.9137 19.9039C13.254 20.2139 12.4995 19.734 12.4995 19.0144V13.0976C12.5018 12.5281 12.6673 11.9711 12.9765 11.493C13.2856 11.0147 13.7252 10.635 14.2436 10.399L18.5863 8.40505ZM17.2169 11.0235L17.7866 10.8287L16.4973 14.4167V14.7315L17.4967 14.2319V14.7315L16.4973 15.2314V15.866L17.4967 15.3713V15.871L16.4973 16.3707V17.2253L15.9976 17.4951V16.6156L14.9982 17.1153V16.6156L15.9976 16.1159V15.4762L14.9982 15.976V15.4762L15.9976 14.9814V14.7315L14.5434 12.3278L15.093 12.008L16.2024 13.9071L17.2169 11.0235Z" fill="white"/>
</svg>
