<svg width="24" height="24" viewBox="0 0 24 24" fill="none" xmlns="http://www.w3.org/2000/svg">
<path fill-rule="evenodd" clip-rule="evenodd" d="M3.07813 11.9789L7.77415 3.81518H7.77945C7.87473 3.63517 8.06004 3.5293 8.25593 3.5293H15.742C15.9379 3.5293 16.1179 3.63517 16.2238 3.81518L20.9198 11.9789C21.0309 12.1748 21.0258 12.4132 20.9093 12.5984L16.2238 20.2063C16.1232 20.3651 15.9432 20.471 15.7527 20.471H8.24534C8.05476 20.471 7.88004 20.3704 7.77415 20.201L3.08873 12.5984C2.97225 12.4132 2.97225 12.1696 3.07813 11.9789ZM8.10134 7.026C8.028 7.19581 7.98883 7.3784 7.98608 7.56333C7.98608 8.33101 8.62139 8.82337 9.41553 8.82337H9.70669C10.0244 8.82337 10.4108 9.04574 10.4108 9.35279V10.3851C10.4108 10.6922 10.0244 10.9411 9.70669 10.9411H6.54603C5.75719 10.9411 5.11658 11.497 5.11658 12.2647C5.11658 13.0324 5.7519 13.5882 6.54603 13.5882H11.4274C11.745 13.5882 11.9991 13.8106 11.9991 14.1176V14.4935C11.9991 14.8059 11.745 15.1765 11.4274 15.1765H9.42083C8.62668 15.1765 8.02842 15.7324 8.02842 16.5001C8.02842 17.2678 8.62668 17.8235 9.42083 17.8235H14.5775C15.3716 17.8235 15.9698 17.2678 15.9698 16.5001C15.9698 15.7324 15.3769 15.1765 14.5828 15.1765H14.2916C13.9739 15.1765 13.5875 14.8006 13.5875 14.4935V14.1176C13.5875 13.8106 13.9739 13.5882 14.2916 13.5882H17.4522C18.241 13.5882 18.8817 13.0324 18.8817 12.2647C18.8817 11.497 18.241 10.9411 17.4469 10.9411H12.5709C12.2533 10.9411 11.9991 10.6922 11.9991 10.3851V9.35279C11.9991 9.04574 12.2533 8.82337 12.5709 8.82337H14.5828C15.3769 8.82337 16.0122 8.33101 16.0122 7.56333C16.0122 6.79567 15.3716 6.17624 14.5775 6.17624H9.41553C9.23058 6.17344 9.04691 6.20709 8.87497 6.27529C8.70305 6.34349 8.54623 6.44488 8.41348 6.57368C8.28075 6.70249 8.17468 6.85619 8.10134 7.026Z" fill="white"/>
</svg>
