<svg width="24" height="24" viewBox="0 0 24 24" fill="none" xmlns="http://www.w3.org/2000/svg">
<path d="M13.6875 20.9991V13.6871C15.4536 13.8782 16.528 14.5981 16.528 14.5981L17.6528 13.3326C15.808 12.0164 13.108 11.9995 13.108 11.9995L12.6131 6.99355C12.7709 6.88864 12.8987 6.74466 12.9842 6.57564C13.0698 6.40663 13.1102 6.21833 13.1012 6.0291C13.0924 5.83987 13.0346 5.65616 12.9338 5.49587C12.8328 5.33557 12.6921 5.20415 12.5253 5.1144C12.3585 5.02466 12.1712 4.97965 11.9818 4.98376C11.7925 4.98788 11.6074 5.04097 11.4445 5.13788C11.2818 5.23477 11.1468 5.37219 11.053 5.53671C10.9592 5.70125 10.9094 5.88729 10.9088 6.07673C10.9088 6.46483 11.1057 6.80794 11.4038 6.99355L10.875 11.9995C10.875 11.9995 8.21458 12.0108 6.36404 13.3326L7.48899 14.5981C7.48899 14.5981 8.54644 13.8782 10.3127 13.6871V20.9991C3.40543 15.8863 2.98358 8.46157 3.00045 5.99798C3.00045 5.48613 3.30982 5.01366 3.77667 4.81116C6.36751 3.6588 9.16478 3.04271 12.0001 3C15.6955 3 18.8453 4.19807 20.2234 4.81116C20.6902 5.01366 20.9996 5.48613 20.9996 5.99235C21.0165 8.46721 20.5777 15.8919 13.6875 20.9991Z" fill="white"/>
</svg>
