<svg width="24" height="24" viewBox="0 0 24 24" fill="none" xmlns="http://www.w3.org/2000/svg">
<path fill-rule="evenodd" clip-rule="evenodd" d="M20.3172 11.0586C20.6691 10.6208 20.7754 10.2527 20.714 9.95806C20.6486 9.6635 20.4032 9.38122 19.904 9.13984C19.4132 8.90664 18.7177 8.73891 17.8585 8.65709C16.1524 8.49344 13.8655 8.67754 11.4068 9.2503C8.948 9.82715 6.80426 10.6822 5.32736 11.5904C4.70868 11.947 4.15303 12.4031 3.68273 12.9405C3.3268 13.3783 3.22452 13.7464 3.2859 14.0452C3.35135 14.3396 3.59682 14.622 4.09594 14.8633C4.58687 15.0965 5.28235 15.2642 6.14149 15.346C7.8475 15.5097 10.1345 15.3256 12.5933 14.7528C15.052 14.176 17.1957 13.3209 18.6726 12.4127C19.2912 12.0562 19.8469 11.6 20.3172 11.0627V11.0586ZM12.6546 15.0229C17.613 13.861 21.3359 11.5658 20.9759 9.8967C20.6159 8.22752 16.3039 7.81431 11.3454 8.97619C6.38697 10.1381 2.66404 12.4332 3.02406 14.1024C3.38408 15.7715 7.69613 16.1847 12.6546 15.0229Z" fill="white"/>
<path fill-rule="evenodd" clip-rule="evenodd" d="M18.8114 11.1814C19.0978 10.8296 19.1754 10.5472 19.1264 10.3304C19.0814 10.1136 18.8932 9.8886 18.4922 9.69631C18.0914 9.50811 17.5267 9.36902 16.8231 9.30765C15.4239 9.17674 13.546 9.32811 11.5251 9.79859C9.50403 10.2772 7.74076 10.9768 6.53387 11.7215C6.02704 12.0091 5.57094 12.3781 5.1838 12.8138C4.89742 13.1697 4.82377 13.4519 4.87287 13.6729C4.91788 13.8856 5.10607 14.1106 5.507 14.3029C5.90793 14.4911 6.47251 14.6302 7.17618 14.6915C8.57534 14.8225 10.4532 14.6711 12.4742 14.2006C14.4952 13.722 16.2585 13.0223 17.4654 12.2778C17.9722 11.9901 18.4283 11.6211 18.8154 11.1855L18.8114 11.1814ZM12.5356 14.4707C16.6185 13.5174 19.6868 11.6355 19.3922 10.2691C19.0978 8.90263 15.5466 8.57125 11.4637 9.52857C7.38074 10.4818 4.31239 12.3637 4.60695 13.7302C4.90151 15.0966 8.4526 15.4279 12.5356 14.4707Z" fill="white"/>
<path fill-rule="evenodd" clip-rule="evenodd" d="M17.3057 11.3118C17.5266 11.0418 17.5757 10.8414 17.543 10.6982C17.5143 10.559 17.3875 10.3995 17.0766 10.2522C16.6664 10.0828 16.2309 9.98327 15.7879 9.95767C14.6955 9.85949 13.2269 9.97812 11.6436 10.3505C10.2733 10.6478 8.9559 11.1513 7.73654 11.8437C7.26197 12.1301 6.91014 12.4204 6.69331 12.6864C6.47239 12.9565 6.4233 13.1569 6.45602 13.3001C6.48466 13.4392 6.61149 13.5987 6.92242 13.7461C7.22515 13.8892 7.65881 13.9916 8.21112 14.0406C9.30345 14.1387 10.7722 14.0202 12.3554 13.6479C13.7258 13.3504 15.0431 12.847 16.2625 12.1546C16.737 11.8682 17.0889 11.5778 17.3057 11.3118ZM12.4168 13.922C15.6242 13.1692 18.038 11.7005 17.8089 10.6368C17.5799 9.57311 14.7897 9.32763 11.5822 10.0763C8.37476 10.8291 5.96099 12.2978 6.1901 13.3615C6.4192 14.4251 9.20935 14.6706 12.4168 13.922Z" fill="white"/>
<path fill-rule="evenodd" clip-rule="evenodd" d="M15.8046 11.4395C15.9601 11.2512 15.9724 11.1326 15.9601 11.0713C15.9478 11.0099 15.8824 10.9076 15.6655 10.8095C15.3745 10.6928 15.0663 10.6251 14.7532 10.609C13.9719 10.5436 12.9122 10.6336 11.7627 10.8995C10.6171 11.1694 9.61883 11.5622 8.93971 11.9713C8.59605 12.1759 8.3465 12.3805 8.19512 12.5605C8.03967 12.7487 8.02739 12.8673 8.03967 12.9287C8.05193 12.99 8.1174 13.0923 8.33423 13.1906C8.54287 13.2846 8.84971 13.3542 9.24654 13.391C10.0279 13.4564 11.0876 13.3663 12.2371 13.1006C13.2261 12.8855 14.1775 12.5241 15.0601 12.0286C15.4037 11.824 15.6533 11.6194 15.8046 11.4395ZM12.2985 13.3746C14.6305 12.8263 16.3896 11.7709 16.226 11.0099C16.0624 10.253 14.0372 10.0812 11.7013 10.6254C9.36927 11.1736 7.6101 12.2291 7.77373 12.99C7.93738 13.7468 9.96249 13.9187 12.2985 13.3746Z" fill="white"/>
<path fill-rule="evenodd" clip-rule="evenodd" d="M14.4949 11.9917C14.4827 11.9836 14.4541 11.9508 14.3763 11.9182C14.2044 11.8544 14.0235 11.8185 13.8404 11.8118C13.3617 11.775 12.7112 11.8322 11.9993 12C11.2875 12.1636 10.6739 12.405 10.2566 12.6504C10.0479 12.7732 9.90062 12.8877 9.81879 12.9859C9.75743 13.0554 9.74515 13.0923 9.74515 13.1086C9.75333 13.1168 9.77788 13.1455 9.8597 13.1823C9.97425 13.2314 10.1543 13.2723 10.3956 13.2887C10.8743 13.3255 11.5248 13.2641 12.2367 13.1005C12.9485 12.9327 13.5622 12.6914 13.9794 12.4459C14.1881 12.3232 14.3354 12.2086 14.4173 12.1104C14.4786 12.045 14.4908 12.0082 14.4908 11.9917H14.4949ZM12.298 13.3746C13.7544 13.0309 14.855 12.3846 14.7567 11.9304C14.6586 11.4763 13.3986 11.3822 11.938 11.7258C10.4815 12.0654 9.38105 12.7118 9.47924 13.1659C9.57743 13.6241 10.8375 13.7141 12.298 13.3705V13.3746Z" fill="white"/>
<path d="M13.8982 12.5836C13.4522 12.866 12.7771 13.1319 11.9998 13.316C11.2227 13.496 10.5067 13.5573 9.98705 13.5041C9.82603 13.2631 9.7122 12.9938 9.65158 12.7104C9.51883 12.1369 9.61569 11.5341 9.9215 11.0312C10.2273 10.5281 10.7178 10.1646 11.288 10.0185C11.57 9.95703 11.8614 9.95248 12.1452 10.0051C12.429 10.0577 12.6995 10.1665 12.9407 10.325C13.1819 10.4836 13.389 10.6886 13.5499 10.9282C13.7108 11.1678 13.8223 11.4372 13.8777 11.7204C13.9391 12.015 13.9432 12.3054 13.8982 12.5836Z" fill="white"/>
<path d="M12.5358 8.93115C12.4007 10.3303 12.5644 11.4021 12.6585 11.844L12.3967 11.9053C12.2046 10.9164 12.1604 9.90443 12.2657 8.90251L12.5358 8.92705V8.93115ZM9.64333 9.57755C10.4984 10.3344 11.0384 11.6231 11.2061 12.1754L10.9442 12.2572C10.7848 11.7254 10.2652 10.4981 9.4715 9.79029L9.64333 9.57755ZM16.2709 8.5425C14.1026 9.49981 13.7549 11.394 13.8408 12.1878H13.6362C13.5422 11.2917 13.7999 9.3689 16.091 8.3584L16.2709 8.5425ZM8.31779 11.4881C8.5919 11.5577 8.83737 11.6395 8.98465 11.7335C9.37987 11.9763 9.67352 12.3543 9.81106 12.7972L9.54514 12.8628C9.42279 12.493 9.17351 12.1785 8.84146 11.9749C8.65678 11.8741 8.45829 11.8011 8.25233 11.7582C7.98232 11.6927 7.65912 11.6313 7.31957 11.5781C6.69518 11.4833 6.06742 11.4124 5.43764 11.3653L5.60129 11.1281C6.07586 11.1649 6.66907 11.1894 7.36048 11.2999C7.70413 11.3531 8.03551 11.4145 8.31779 11.4881ZM17.6783 9.48345C18.5252 9.19707 19.3802 8.97206 19.912 8.84523L19.9734 9.11934C19.4456 9.24207 18.5988 9.47117 17.7642 9.75347C16.9215 10.0398 16.1114 10.3671 15.6491 10.6985C15.0393 11.1869 14.4997 11.7567 14.0454 12.3922C14.6344 12.0118 14.9945 11.4431 15.7227 11.2713C16.361 11.124 17.0442 11.0709 17.6906 11.0462C18.6315 11.0053 19.6952 10.9726 20.3867 10.9563L20.3948 11.2385C19.7034 11.2549 18.6437 11.2877 17.7028 11.3245C17.0728 11.3531 16.4019 11.4021 15.7841 11.5453C15.1705 11.6885 14.5691 12.1754 14.0658 12.5354C14.2418 12.5232 14.4504 12.5272 14.6876 12.5518C15.2809 12.6213 16.0786 12.8259 17.0769 13.2923L16.9664 13.55C16.2408 13.1888 15.4617 12.9471 14.6591 12.834C14.3101 12.7696 13.9504 12.7979 13.6158 12.9159L13.493 12.6622C13.5749 12.6213 13.6813 12.5886 13.8204 12.564C13.9431 12.2203 14.5158 11.1731 15.4977 10.4695C15.9968 10.1135 16.8436 9.76983 17.6824 9.48755L17.6783 9.48345ZM7.74503 12.8504C8.1206 12.7478 8.51529 12.7365 8.89607 12.8177C9.27687 12.8988 9.6327 13.0699 9.93379 13.3168L10.0893 15.3542L9.81924 15.3747L9.68014 13.37C9.39376 13.2759 8.73918 13.3291 8.50599 13.5255C8.1296 13.8447 6.60771 15.031 5.89585 15.5834L5.7322 15.3542C6.44815 14.8019 7.96595 13.6236 8.33825 13.3086C8.48962 13.1736 9.36103 13.235 9.54922 13.2146C9.04193 12.9159 8.21961 13.0304 7.8064 13.1246L3.31844 14.1759L3.25708 13.9019L7.74503 12.8504Z" fill="white"/>
</svg>
