<svg width="24" height="24" viewBox="0 0 24 24" fill="none" xmlns="http://www.w3.org/2000/svg">
<path d="M17.9061 6.9375L18.4688 4.6875H8.62498C7.87685 4.6875 6.26248 5.1375 5.81248 6.9375L5.24998 10.875H7.21873L7.78123 8.06249C7.78123 7.68563 8.06248 6.9375 9.18748 6.9375H17.9061ZM17.9061 6.9375L17.6249 9.18748H9.46868L9.18748 10.875H21L17.9061 6.9375ZM6.09373 17.0625L5.53124 19.3125H15.3749C16.123 19.3125 17.7374 18.8624 18.1874 17.0625L18.75 13.125H16.7812L16.2188 15.9374C16.2188 16.3144 15.9374 17.0625 14.8125 17.0625H6.09373ZM6.09373 17.0625L6.37498 14.8125H14.5312L14.8125 13.125H3L6.09373 17.0625Z" fill="white"/>
</svg>
