<svg width="24" height="24" viewBox="0 0 24 24" fill="none" xmlns="http://www.w3.org/2000/svg">
<path d="M16.6232 13.9632C15.2458 13.7943 14.1173 13.0879 13.5752 12.177C14.3172 11.4306 15.5836 11.0218 16.9521 11.1906C18.3293 11.3594 19.458 12.066 20 12.9767L19.8712 13.0967C19.1158 13.7677 17.9162 14.123 16.6232 13.9632Z" fill="white"/>
<path d="M15.4897 15.1987C14.3433 14.4078 13.6547 13.257 13.5791 12.195C14.5744 11.8707 15.8807 12.0929 17.027 12.8838C18.1733 13.6702 18.862 14.821 18.9376 15.8785C18.8754 15.9006 18.8132 15.923 18.751 15.9362C17.7824 16.1762 16.5649 15.9362 15.4897 15.1942V15.1987Z" fill="white"/>
<path d="M14.0683 15.7317C13.3573 14.5319 13.2063 13.1901 13.5796 12.1948C14.6148 12.3282 15.7122 13.0924 16.4232 14.2965C17.1341 15.4962 17.2807 16.8424 16.912 17.8333C16.8231 17.8243 16.7386 17.8066 16.6542 17.7889C15.6989 17.5711 14.7214 16.838 14.0683 15.7362V15.7317Z" fill="white"/>
<path d="M14.5436 9.13436C14.7298 8.54706 14.7982 7.92876 14.7448 7.31497C14.6915 6.70116 14.5174 6.10396 14.2326 5.55762L10.447 10.2585C10.0871 10.0408 9.71389 9.85414 9.32734 9.76529C9.10425 9.70919 8.87139 9.70402 8.64604 9.75018C8.42067 9.79633 8.20858 9.89261 8.02549 10.0319C7.82556 10.1829 7.71447 10.374 7.6034 10.5695C7.52342 10.7072 7.44344 10.8495 7.32793 10.9738C7.07911 11.2538 4 12.6044 4 12.6044L4.04442 12.7066C4.04442 12.7066 6.91916 11.4181 7.50121 11.5248C8.0877 11.6314 9.27402 11.9958 10.0249 13.533C10.8247 15.1548 12.3531 16.1545 13.2062 16.0301L12.3798 18.4339C16.6451 18.6427 15.1256 15.0126 13.8105 13.1909C14.3932 13.0139 14.956 12.7771 15.49 12.4845C15.8099 12.3157 16.1121 12.098 16.3875 11.8535C16.988 11.3108 17.4848 10.6635 17.8538 9.94301C18.3827 8.96382 18.7403 7.90141 18.9113 6.8017L14.5392 9.13436H14.5436Z" fill="white"/>
</svg>
