<svg width="24" height="24" viewBox="0 0 24 24" fill="none" xmlns="http://www.w3.org/2000/svg">
<path d="M16.3751 5.31676C16.3797 5.31736 16.3843 5.31657 16.3885 5.3145C16.3926 5.31242 16.396 5.30918 16.3983 5.30515V5.28191L15.0802 3.03483V3.01161L15.0918 3H15.1035C15.5912 3.02902 16.0035 3.19741 16.3229 3.50515C16.4738 3.6387 16.6712 3.92902 16.9267 4.3703C17.1116 4.68247 17.2974 4.99409 17.4841 5.30515C17.7255 5.06668 18.0256 4.89614 18.3539 4.81077C18.6822 4.7254 19.0274 4.72823 19.3544 4.81895C19.6814 4.90967 19.9786 5.08508 20.216 5.32745C20.4534 5.56983 20.6226 5.87059 20.7067 6.19935L20.7009 6.21675C20.6949 6.22292 20.6876 6.22766 20.6796 6.23068C20.6716 6.23369 20.6629 6.23488 20.6544 6.23418C19.7913 6.2375 18.9279 6.2375 18.0648 6.23418C18.0554 6.24016 18.0485 6.24932 18.0453 6.25997C18.0421 6.27064 18.0428 6.28208 18.0473 6.29224L19.2203 8.28964C19.2264 8.30025 19.2297 8.31226 19.2297 8.32449C19.2297 8.33671 19.2264 8.34872 19.2203 8.35932L18.3899 9.77609C18.3816 9.78734 18.3777 9.80106 18.3788 9.8149C18.3798 9.82885 18.3858 9.84179 18.3957 9.85158C19.6913 11.424 20.3884 13.4042 20.364 15.4415C20.3396 17.4787 19.5951 19.4416 18.2622 20.9825C18.239 21.0058 18.2214 21.0058 18.2042 20.9825L15.7073 16.6277C15.6842 16.5848 15.6501 16.5487 15.6087 16.5232C14.4473 15.8612 13.2918 15.1529 12.1306 14.4386C10.9694 13.7245 9.79644 13.0102 8.62352 12.3425C8.54406 12.3041 8.45623 12.2861 8.36803 12.2902C6.67642 12.288 4.98483 12.2858 3.29321 12.2845V12.2555C4.75063 8.20257 8.81512 6.12385 13.0596 6.76257C13.0783 6.76595 13.0973 6.76394 13.115 6.75673C13.1324 6.74953 13.1475 6.73745 13.1584 6.72191L13.9538 5.35741C13.9613 5.34551 13.9715 5.33561 13.9838 5.32853C13.9958 5.32146 14.0094 5.31742 14.0234 5.31676H16.3751ZM16.857 12.1451L11.7357 9.22448C11.7241 9.21794 11.7104 9.21609 11.6974 9.21934C11.6844 9.22257 11.6734 9.23064 11.666 9.24191L10.5455 11.158C10.5279 11.1812 10.5396 11.2162 10.5629 11.2277L15.6842 14.1541C15.7131 14.1657 15.7422 14.1541 15.7538 14.131L16.8744 12.2147C16.881 12.2032 16.8828 12.1894 16.8795 12.1765C16.8764 12.1636 16.8683 12.1523 16.857 12.1451ZM9.83121 18.6773H14.4648C14.4701 18.6775 14.4752 18.6758 14.4795 18.6727C14.4836 18.6695 14.4867 18.665 14.488 18.6599C14.4886 18.6554 14.4878 18.6506 14.4857 18.6466C14.4837 18.6424 14.4804 18.6389 14.4763 18.6367L7.51448 14.6128C7.51144 14.612 7.50823 14.6118 7.50509 14.6122C7.50195 14.6126 7.49893 14.6137 7.49621 14.6153C7.49348 14.6168 7.49112 14.6191 7.48928 14.6217C7.48743 14.6243 7.48613 14.6272 7.48546 14.6303V14.6477L9.80803 18.6657C9.80983 18.669 9.81231 18.6717 9.81534 18.6736C9.81838 18.6756 9.82187 18.677 9.82547 18.6773H9.83121Z" fill="white"/>
</svg>
