<svg width="24" height="24" viewBox="0 0 24 24" fill="none" xmlns="http://www.w3.org/2000/svg">
<path fill-rule="evenodd" clip-rule="evenodd" d="M12 13.3855L12.0225 13.3586C13.3365 14.6365 15.2311 16.1216 16.8736 16.1216C17.4106 16.1269 17.9432 16.0264 18.4413 15.8257C18.9395 15.6249 19.3931 15.3281 19.7764 14.9519C20.1596 14.5757 20.465 14.1278 20.675 13.6335C20.8848 13.1392 20.9954 12.6085 21.0001 12.0714C21.0001 9.83505 19.155 8.02148 16.8736 8.02148C15.1276 8.02148 13.4086 9.3175 12 10.7574V13.3855ZM16.8152 14.4835C18.219 14.4835 19.3576 13.4035 19.3576 12.0714C19.3576 10.7395 18.219 9.6595 16.8106 9.6595C15.402 9.6595 14.0295 10.9645 13.0666 12.0714C13.7055 12.7915 15.4065 14.4835 16.8106 14.4835H16.8152Z" fill="white"/>
<path fill-rule="evenodd" clip-rule="evenodd" d="M12.0541 13.4395L11.9641 13.3495C10.6906 14.6141 8.81405 16.1216 7.12655 16.1216C6.58957 16.1269 6.05682 16.0264 5.55874 15.8257C5.06066 15.6249 4.60702 15.3281 4.22377 14.9519C3.84052 14.5757 3.53518 14.1278 3.3252 13.6335C3.11521 13.1392 3.0047 12.6085 3 12.0714C3 9.83505 4.84502 8.02148 7.12655 8.02148C8.89955 8.02148 10.5466 9.421 11.9326 10.9149L12.0541 10.7889V13.4395ZM7.18504 14.4835C5.77653 14.4835 4.63801 13.4035 4.63801 12.0714C4.63801 10.7395 5.77653 9.6595 7.18504 9.6595C8.59355 9.6595 9.96603 10.9645 10.929 12.0714C10.2901 12.7915 8.58905 14.4835 7.18504 14.4835Z" fill="white"/>
<path d="M10.7578 11.9235L10.8658 12.018L11.9683 13.4221C13.2643 14.6324 15.1544 16.122 16.8733 16.122C17.8217 16.1287 18.7432 15.8069 19.4815 15.2114C20.2196 14.6159 20.7291 13.7833 20.9234 12.8551C20.5724 13.4894 19.3484 14.484 17.1613 14.4615C17.0488 14.4749 16.9318 14.484 16.8103 14.484C15.4019 14.484 13.7054 12.7921 13.0664 12.072L13.0799 12.054L11.7523 10.4565L10.4248 9.19644C9.36278 8.38643 8.26477 7.87793 7.05876 7.87793C5.02023 7.87793 3.38222 9.49794 3.05371 11.433C3.96272 9.786 5.92024 9.25493 7.63925 9.70944C8.76427 9.90299 9.74079 10.7985 10.7578 11.9235Z" fill="white"/>
</svg>
