<svg width="24" height="24" viewBox="0 0 24 24" fill="none" xmlns="http://www.w3.org/2000/svg">
<path d="M11.9992 20.9976C13.2898 20.998 14.5653 20.7206 15.7394 20.1845C16.9132 19.6485 17.9582 18.8662 18.8032 17.8906C19.6482 16.9152 20.2734 15.7693 20.6365 14.5309C20.9997 13.2924 21.092 11.9904 20.9076 10.713L18.8698 12.3645C18.7723 14.1303 17.9986 15.7908 16.7095 17.0014C15.4203 18.212 13.7146 18.8798 11.9461 18.8662C10.1776 18.8526 8.48234 18.1586 7.21196 16.9283C5.94158 15.698 5.19367 14.0258 5.12345 12.2586L4.95936 12.2533L3.09088 10.7236C2.90807 12.0001 3.00177 13.3009 3.36562 14.5382C3.72946 15.7754 4.35499 16.9198 5.19978 17.8941C6.04458 18.8684 7.08892 19.6498 8.26205 20.1853C9.43518 20.7206 10.7096 20.9976 11.9992 20.9976ZM16.9113 6.70611L20.0502 7.97646C19.4557 6.78778 18.6057 5.74549 17.5607 4.92448C16.5156 4.10349 15.3017 3.52414 14.0062 3.22808C12.7107 2.93202 11.3656 2.92661 10.0677 3.21223C8.76978 3.49784 7.55126 4.06741 6.49966 4.87997L10.0778 5.28755L10.2896 5.33518C11.306 5.0751 12.3683 5.05053 13.3958 5.26335C14.4231 5.47617 15.3884 5.92074 16.2179 6.56319L16.9113 6.71139V6.70611ZM9.22564 14.434C7.553 12.0099 4.7741 9.76551 3.58843 8.9398C3.50904 8.871 3.35025 8.67515 3.36613 8.45812C3.36613 6.84373 5.67394 6.15561 7.15072 6.15561C7.99762 6.15561 8.57987 6.2456 9.08272 6.3197C9.45324 6.37263 9.7761 6.42558 10.1308 6.42558C10.5384 6.42558 11.0942 6.33559 11.6551 6.2509C12.2375 6.16091 12.825 6.07093 13.2696 6.07093C13.9683 6.07093 14.4976 6.38323 14.6722 6.53673C13.6665 6.64259 12.5551 6.98136 12.1209 7.14014C12.5285 7.27777 12.8778 7.62182 13.005 7.77532C15.5775 6.88078 17.4512 7.61124 18.0599 8.08761C16.6736 8.09765 15.3041 8.39314 14.037 8.95569L14.6722 9.53789C16.4454 9.02981 17.5146 9.4797 17.8271 9.7708C17.1123 9.82378 16.1333 10.0619 15.7308 10.1784C16.4614 10.5595 17.9329 11.3217 17.9752 11.3217C18.2452 14.164 16.6253 14.7198 14.7941 14.7358C13.0684 14.7516 12.788 15.5351 12.5392 16.2338L12.4968 16.3661C12.2851 16.9483 12.2322 18.1816 12.2322 18.7268C11.9358 17.4406 11.3059 14.5929 11.1947 13.5394C11.0729 12.3751 11.5439 12.2745 11.9622 12.1845L12.1209 12.1475C12.5657 12.0256 13.058 11.5546 12.862 10.93C12.7084 10.4377 12.3539 10.0302 12.1951 9.89263C12.9626 11.3905 12.5444 11.5333 11.7716 11.7928C11.6393 11.8405 11.4912 11.888 11.3429 11.9516C10.3213 12.3645 10.5806 14.106 10.6443 14.5347C10.697 14.8733 11.1206 16.6254 11.3323 17.4566C9.7761 17.7581 9.29445 16.6254 9.07213 16.1174C8.89747 15.7097 8.42636 14.5293 8.21464 13.9948C8.5534 14.0848 9.02978 14.3229 9.22034 14.4287L9.22564 14.434ZM7.4736 6.81196C7.05854 6.77985 6.64106 6.82105 6.24029 6.9337C6.29549 7.17337 6.43238 7.38635 6.6275 7.53604C6.82259 7.68576 7.06374 7.76287 7.30952 7.75414C7.72238 7.75414 8.06114 7.4048 8.17759 7.22483L7.4736 6.80668V6.81196Z" fill="white"/>
</svg>
