<svg width="24" height="24" viewBox="0 0 24 24" fill="none" xmlns="http://www.w3.org/2000/svg">
<path fill-rule="evenodd" clip-rule="evenodd" d="M11.9998 4L18.5881 9.64705V14.3529L11.9998 20L5.41162 14.5977V9.64705L11.9998 4ZM5.88221 10.2494V13.9858L8.15985 12.1176L5.88221 10.2494ZM8.53632 12.4235L6.01868 14.4846L11.7645 19.1906V15.0729L8.53632 12.4235ZM12.2352 15.0729V19.1812L17.9764 14.2588L15.5481 12.3577L12.2352 15.0729ZM15.9245 12.047L18.1174 13.7646V10.2494L15.9245 12.047ZM17.9857 9.75058L15.5387 11.7506L12.2352 9.16234V4.82353L17.9857 9.75058ZM11.7645 4.82353V9.16705L8.53632 11.8164L6.01397 9.74587L11.7645 4.82822V4.82353ZM11.9998 9.58116L8.90809 12.1223L11.9998 14.6494L15.1669 12.0518L12.0045 9.57646L11.9998 9.58116Z" fill="white"/>
</svg>
