<svg width="24" height="24" viewBox="0 0 24 24" fill="none" xmlns="http://www.w3.org/2000/svg">
<path d="M3.08252 20.3451V20.9989H3.74074L5.86259 18.7086V18.0542H5.20438L3.08252 20.3451Z" fill="white"/>
<path d="M9.25917 20.9994L10.3037 18.6906V18.0542H9.62424L8.5791 20.3636V21.0001L9.25917 20.9994Z" fill="white"/>
<path d="M20.999 15.6315V14.9552L18.7769 13.7617H18.1372V14.4366L20.3594 15.631L20.999 15.6315Z" fill="white"/>
<path d="M20.999 9.04429V8.36865H20.3594L18.1372 9.56294V10.2379H18.7769L20.999 9.04429Z" fill="white"/>
<path d="M8.5791 3V3.63637L9.62424 5.94464H10.3037V5.30826L9.25917 3H8.5791Z" fill="white"/>
<path d="M20.9177 3.65437V3H20.2588L18.1377 5.29091V5.94464H18.7958L20.9177 3.65437Z" fill="white"/>
<path d="M14.5695 9.42871H13.9268V10.0715H14.5695V9.42871Z" fill="white"/>
<path d="M13.6968 18.0542V18.6906L14.7412 20.9989H15.4213V20.3625L14.3762 18.0548L13.6968 18.0542Z" fill="white"/>
<path d="M15.4207 3H14.7412L13.6968 5.30891V5.94527H14.3762L15.4207 3.63637V3Z" fill="white"/>
<path d="M20.918 20.9989V20.3451L18.7963 18.0542H18.1367V18.7086L20.2586 20.9989H20.918Z" fill="white"/>
<path d="M3.00098 14.9569V15.6318H3.64056L5.86269 14.4381V13.7632H5.2231L3.00098 14.9569Z" fill="white"/>
<path d="M3.08252 3V3.65437L5.20374 5.94464H5.86259V5.29091L3.74074 3H3.08252Z" fill="white"/>
<path d="M9.42725 14.5715H10.0699V13.9287H9.42725V14.5715Z" fill="white"/>
<path d="M3.00098 8.36865V9.04354L5.2231 10.2379H5.86269V9.56294L3.64056 8.36865H3.00098Z" fill="white"/>
<path d="M9.42725 10.0715H10.0699V9.42871H9.42725V10.0715Z" fill="white"/>
<path d="M14.5695 13.9287H13.9268V14.5715H14.5695V13.9287Z" fill="white"/>
</svg>
