<svg width="24" height="24" viewBox="0 0 24 24" fill="none" xmlns="http://www.w3.org/2000/svg">
<path d="M8.67056 5.07574C8.39058 5.17573 8.02561 5.47571 7.90061 5.70069C7.82307 5.92503 7.76617 6.15597 7.73063 6.39065C7.55063 7.40057 7.19066 7.69556 5.89575 7.89054C5.36579 7.96554 4.85582 8.61549 4.84582 9.22045C4.8309 9.50505 4.73627 9.77967 4.57271 10.0131C4.40917 10.2465 4.18329 10.4292 3.92088 10.5404C3.7859 10.5903 3.49592 10.6653 3.28093 10.6903C2.79096 10.7553 2.58098 10.8603 2.296 11.1753C2.04602 11.4552 1.96102 11.7752 2.01602 12.2352C2.08602 12.8551 2.59598 13.2552 3.43592 13.3501C3.99088 13.4151 4.42585 13.7101 4.66584 14.1802C4.76583 14.3801 4.84582 14.6351 4.85083 14.755C4.84875 14.9465 4.88524 15.1363 4.95813 15.3131C5.03102 15.4901 5.13881 15.6506 5.27506 15.785C5.4113 15.9194 5.57324 16.0249 5.75116 16.0953C5.9291 16.1658 6.11941 16.1996 6.31073 16.195C6.43071 16.195 6.6957 16.275 6.89568 16.375C7.37565 16.6099 7.66063 17.0249 7.73063 17.5749C7.85061 18.5098 8.31559 18.9998 9.08053 18.9998C9.49551 18.9998 9.74551 18.8998 10.0305 18.6297C10.2805 18.3948 10.3704 18.1748 10.4455 17.6299C10.4893 17.2385 10.6678 16.8744 10.9504 16.6C11.2361 16.3723 11.5856 16.2395 11.9504 16.2199C12.7103 16.2199 13.3903 15.61 13.3953 14.925C13.4002 14.2601 13.8052 13.5951 14.4251 13.4251C14.6251 13.3752 14.9352 13.3101 15.1151 13.2902C15.4851 13.2401 15.9001 12.9402 16.0801 12.5952C16.145 12.4752 16.2 12.2203 16.2 12.0252C16.21 11.3153 15.7001 10.7903 14.8952 10.6903C14.1452 10.5903 13.6602 10.2754 13.3953 9.7154L13.2352 9.38544L13.1053 9.67037C12.9488 9.98266 12.6813 10.2252 12.3553 10.3504C12.1853 10.4153 12.1903 10.4204 12.4854 10.5404C13.0753 10.7703 13.6053 11.5753 13.5202 12.2002C13.4203 12.9152 12.7702 13.4302 11.9504 13.5301C11.0754 13.6351 10.7404 13.9601 10.5804 14.86C10.4054 15.86 9.96552 16.345 9.08553 16.345C8.63556 16.345 8.42557 16.265 8.08559 15.9699C7.92857 15.8365 7.80054 15.6722 7.70939 15.4873C7.61826 15.3025 7.56593 15.1009 7.55564 14.895C7.54275 14.5302 7.38936 14.1846 7.12755 13.9302C6.86574 13.6758 6.51576 13.5325 6.15073 13.5301C5.77575 13.5301 5.35079 13.3201 5.0758 13.0102C4.76583 12.6602 4.69583 12.4603 4.69583 11.9653C4.69583 11.1704 5.2108 10.6404 6.10573 10.5054C7.05567 10.3554 7.42565 10.0104 7.55063 9.16546C7.67063 8.30552 8.19059 7.74055 8.93054 7.66056C9.28154 7.64847 9.62874 7.73655 9.93158 7.91451C10.2343 8.09246 10.4802 8.35294 10.6404 8.66549L10.7604 8.96547L10.8904 8.67549C11.0404 8.35051 11.3854 8.06553 11.7504 7.96554C11.9353 7.91554 11.9554 7.89554 11.8353 7.89054C11.4693 7.79377 11.1327 7.60832 10.8554 7.35059C10.6124 7.05547 10.4674 6.69199 10.4404 6.31066C10.4065 6.07694 10.3338 5.85052 10.2254 5.6407C10.0633 5.38992 9.82367 5.19899 9.54292 5.09701C9.26223 4.99501 8.95589 4.98755 8.67056 5.07574Z" fill="white"/>
<path d="M14.715 5.01031C14.675 5.02531 14.5599 5.05531 14.4549 5.07531C14 5.1753 13.545 5.79526 13.54 6.32523C13.54 6.6902 13.3151 7.15516 13.0101 7.42015C12.6901 7.69513 12.5601 7.74513 12.0451 7.82012C11.5302 7.88512 11.3402 7.96011 11.0952 8.1901C10.8003 8.46008 10.6953 8.70006 10.6253 9.24003C10.5153 10.12 10.0953 10.5249 9.12534 10.6899C8.43539 10.8099 8.11041 11.0149 7.90543 11.4548C7.73044 11.8349 7.73543 12.2248 7.92043 12.6048C8.12041 13.0148 8.49538 13.2497 9.07035 13.3197C9.82033 13.4098 10.2803 13.7097 10.5203 14.2647L10.6352 14.5396L10.7253 14.3346C10.8353 14.0697 11.2452 13.6747 11.4552 13.6247C11.6652 13.5747 11.6602 13.4847 11.4401 13.4297C11.1903 13.3698 10.7752 12.9947 10.6102 12.6698C10.4103 12.2798 10.4203 11.7148 10.6352 11.2949C10.8802 10.8299 11.2603 10.5949 11.9051 10.505C12.5151 10.425 12.7401 10.325 12.9951 10.0249C13.195 9.79499 13.295 9.49501 13.365 8.96504C13.4015 8.73711 13.4882 8.52012 13.6187 8.32975C13.7493 8.13936 13.9204 7.98032 14.1199 7.86411C14.3194 7.74788 14.5421 7.67737 14.7721 7.65766C15.0021 7.63795 15.2336 7.66953 15.4499 7.75012C16.0099 7.98011 16.2949 8.37508 16.4248 9.11003C16.5399 9.74495 16.5848 9.84492 16.8648 10.11C17.1148 10.3349 17.3048 10.4099 17.8147 10.4799C18.7896 10.61 19.3747 11.2699 19.2997 12.1648C19.2347 12.9198 18.7047 13.4048 17.8147 13.5297C16.9299 13.6548 16.5399 14.0496 16.4248 14.9296C16.3398 15.5696 16.0749 15.9646 15.5449 16.2295C15.2349 16.3796 14.565 16.3846 14.235 16.2295C13.8809 16.0523 13.5997 15.7571 13.44 15.3946L13.3501 15.1396L13.2201 15.4296C13.0646 15.7438 12.797 15.9882 12.4701 16.1145C12.3001 16.1746 12.3001 16.1795 12.5951 16.2995C12.9151 16.4245 13.2901 16.7895 13.41 17.0995C13.45 17.1994 13.51 17.4844 13.55 17.7344C13.6301 18.2944 13.87 18.6594 14.285 18.8543C14.4822 18.9563 14.702 19.0068 14.9239 19.0013C15.1459 18.9957 15.3629 18.9343 15.5548 18.8226C15.7467 18.711 15.9073 18.5528 16.0218 18.3625C16.1363 18.1724 16.201 17.9563 16.2098 17.7344C16.3398 16.7595 16.8298 16.2845 17.8197 16.1646C18.5697 16.0745 18.9947 15.6595 19.1046 14.8996C19.1947 14.2797 19.3047 14.0347 19.6547 13.7297C19.9496 13.4647 20.3146 13.3197 20.7046 13.3197C20.9895 13.2987 21.2614 13.192 21.4844 13.0135C21.7076 12.835 21.8714 12.5932 21.9545 12.3198C22.1695 11.5298 21.6045 10.8049 20.6845 10.6899C19.6846 10.57 19.2697 10.1599 19.1096 9.15503C19.0754 8.89286 18.9905 8.63985 18.8596 8.41008C18.7312 8.2427 18.5673 8.10574 18.3797 8.00895C18.1922 7.91216 17.9856 7.85794 17.7747 7.85012C17.4098 7.85012 16.8249 7.58014 16.5898 7.30016C16.3798 7.05517 16.2798 6.7902 16.2149 6.27523C16.1948 6.05995 16.1257 5.85211 16.0132 5.66755C15.9005 5.483 15.7472 5.32661 15.565 5.2103C15.2949 5.07031 14.86 4.96032 14.715 5.01031Z" fill="white"/>
</svg>
