<svg width="24" height="24" viewBox="0 0 24 24" fill="none" xmlns="http://www.w3.org/2000/svg">
<path d="M11.2014 4C8.27646 4.24999 6.20147 6.25999 5.52148 7.23998L6.66647 7.13999C7.74944 5.90562 9.23319 5.09292 10.8565 4.84499L11.2065 4H11.2014ZM11.2014 20C8.27646 19.75 6.13647 17.745 5.50147 16.675L6.43147 16.5749C7.64647 18.135 9.72143 19.0249 10.5515 19.09L11.2014 20ZM12.8114 4C15.7114 4.19999 17.7364 6.22499 18.4965 7.29498L17.5564 7.42498C16.1564 5.69498 14.3414 4.99999 13.4565 4.91L12.8114 4ZM12.8114 20C15.7114 19.7999 17.7364 17.775 18.4965 16.705L17.3814 16.7999C16.2966 18.0504 14.8061 18.8788 13.1715 19.1399L12.8114 20ZM4.70148 15.305C3.43148 12.39 4.17147 9.65997 4.70148 8.66498L5.26147 9.39998C4.69795 10.9758 4.66285 12.6924 5.16147 14.29L4.70148 15.305ZM19.3015 15.305C20.5764 12.39 19.8165 9.68495 19.2864 8.68498L18.8465 9.70502C19.5614 11.62 19.0165 13.755 18.7314 14.555L19.3064 15.305H19.3015Z" fill="white"/>
<path fill-rule="evenodd" clip-rule="evenodd" d="M11.9669 4.05469L10.5069 7.37967L5.17188 8.01468L7.33688 11.0397L5.17188 16.0096L8.83687 15.5896L12.0469 19.9296L13.5118 16.5397L18.8668 15.9296L16.6669 12.9446L18.8168 8.00967L15.1669 8.38968L11.9669 4.05469ZM12.1574 5.72949L10.9074 8.54947C10.8874 8.59447 10.8374 8.73447 10.8374 8.92447L13.8624 8.61447L12.4924 11.9245L13.7623 13.6495L14.9474 11.0344C15.0542 10.7611 15.0963 10.4667 15.0703 10.1744C15.0442 9.88199 14.9508 9.59967 14.7974 9.34948C14.4134 8.75717 13.0786 6.96575 12.3269 5.95693L12.1574 5.72949ZM15.6874 9.18947L17.4524 8.98448H17.4574L16.0874 12.1795C16.0174 12.0895 15.8074 11.8695 15.5523 11.7195C15.7874 11.3895 16.1374 10.4095 15.6874 9.18947ZM10.1124 8.29448L6.66242 8.68447L7.7624 10.1845C8.01603 9.82867 8.35035 9.53805 8.73797 9.33641C9.1256 9.13478 9.55548 9.02788 9.99239 9.02447C9.99239 8.63947 10.0724 8.37447 10.1124 8.29448ZM12.5325 9.59448L9.56741 9.92446C9.29116 9.97019 9.03076 10.0843 8.80983 10.2564C8.58891 10.4283 8.41447 10.6529 8.30241 10.9095C7.97741 11.6344 6.97742 13.9444 6.51741 15.0095L9.2824 14.7045C9.4224 14.6844 9.75742 14.6245 9.94246 14.5344L8.14241 12.0595L11.6925 11.6044L12.5325 9.59448ZM11.7924 12.4495L9.67739 12.7244C10.2442 13.5101 10.8142 14.2935 11.3874 15.0744C11.9124 15.7845 12.8374 15.7744 13.3123 15.7244L17.3274 15.2394L15.5874 12.8845C15.4374 12.6844 15.2624 12.5545 15.1974 12.5144L13.9723 15.2895L11.7924 12.4495ZM9.8224 15.4794C10.0339 15.4214 10.2397 15.3444 10.4374 15.2495V15.2545C10.6759 15.6191 10.99 15.9283 11.3583 16.1613C11.7266 16.3942 12.1406 16.5453 12.5723 16.6044L11.8723 18.2544L9.8224 15.4794Z" fill="white"/>
</svg>
