<svg width="24" height="24" viewBox="0 0 24 24" fill="none" xmlns="http://www.w3.org/2000/svg">
<path d="M14.1173 5.11777C14.1173 5.67945 13.8942 6.21811 13.497 6.61527C13.0999 7.01244 12.5612 7.23556 11.9996 7.23556C11.4379 7.23556 10.8992 7.01244 10.5021 6.61527C10.1049 6.21811 9.88177 5.67945 9.88177 5.11777C9.88177 4.5561 10.1049 4.01744 10.5021 3.62028C10.8992 3.22312 11.4379 3 11.9996 3C12.5612 3 13.0999 3.22312 13.497 3.62028C13.8942 4.01744 14.1173 4.5561 14.1173 5.11777ZM14.1173 18.8823C14.1173 19.4439 13.8942 19.9826 13.497 20.3797C13.0999 20.7769 12.5612 21 11.9996 21C11.4379 21 10.8992 20.7769 10.5021 20.3797C10.1049 19.9826 9.88177 19.4439 9.88177 18.8823C9.88177 18.3206 10.1049 17.7819 10.5021 17.3848C10.8992 16.9876 11.4379 16.7645 11.9996 16.7645C12.5612 16.7645 13.0999 16.9876 13.497 17.3848C13.8942 17.7819 14.1173 18.3206 14.1173 18.8823ZM4.05786 13.0584H19.9412V15.7055H4.05786V13.0584Z" fill="white"/>
<path d="M3.52881 3.52832C3.72999 7.9476 7.44564 11.4701 12 11.4701C16.5542 11.4701 20.2698 7.9476 20.4711 3.52832H17.8064C17.5352 6.44026 15.0394 8.72008 12.001 8.72008C8.96196 8.72008 6.46669 6.43973 6.19561 3.52832H3.52881Z" fill="white"/>
</svg>
