<svg width="24" height="24" viewBox="0 0 24 24" fill="none" xmlns="http://www.w3.org/2000/svg">
<path d="M5.53125 16.3726C6.20125 17.2695 7.06067 18.0201 8.05315 18.5749C9.04566 19.1298 10.1487 19.4765 11.2902 19.5923C10.703 18.7416 9.84936 17.9591 8.78367 17.3634C7.71799 16.7675 6.58942 16.4421 5.53125 16.3726Z" fill="white"/>
<path d="M10.216 14.9911C8.16287 13.8431 5.94065 13.5505 4.35059 14.0673C4.50408 14.5556 4.70653 15.0285 4.95506 15.4791C6.33655 15.4483 7.84491 15.8093 9.24842 16.594C10.6519 17.3786 11.7254 18.4615 12.3823 19.6321C12.9124 19.6165 13.4397 19.5514 13.9568 19.4381C13.6353 17.8528 12.2686 16.1395 10.216 14.9911Z" fill="white"/>
<path d="M20.0003 10.331C19.7393 9.30912 19.267 8.34827 18.6115 7.50589C17.9562 6.66351 17.1311 5.95689 16.1856 5.42823C15.2402 4.89956 14.1937 4.55968 13.1089 4.42889C12.024 4.2981 10.9228 4.37908 9.87109 4.66699C11.628 4.87393 13.5783 5.50878 15.4908 6.57822C17.4034 7.64765 18.9437 8.96363 20.0003 10.331Z" fill="white"/>
<path d="M17.444 14.0778C16.5447 12.6402 15.0041 11.2636 13.1063 10.2026C11.2085 9.14137 9.20344 8.53525 7.46206 8.49514C5.93005 8.46022 4.78024 8.88887 4.30828 9.67093C4.3056 9.67556 4.30184 9.67995 4.29887 9.68463C4.2564 9.83134 4.21985 9.97821 4.18652 10.1257C4.84556 9.87529 5.60914 9.73585 6.45819 9.7203C8.34632 9.6862 10.4594 10.2675 12.4094 11.3579C14.3593 12.4482 15.9319 13.9277 16.8361 15.5229C17.2413 16.2414 17.4943 16.949 17.5945 17.625C17.7112 17.5246 17.8256 17.4208 17.9368 17.313C17.9396 17.3081 17.9416 17.3029 17.9444 17.2978C18.4164 16.5149 18.234 15.3414 17.444 14.0778Z" fill="white"/>
<path d="M11.6622 12.5952C8.75594 10.9702 5.54437 10.7156 4 11.8497C4.00303 12.2047 4.03122 12.5591 4.0844 12.9103C4.5387 12.7779 5.00691 12.6943 5.4804 12.6615C7.20619 12.5366 9.10883 12.9994 10.8355 13.9653C12.562 14.9313 13.9231 16.2936 14.6654 17.7973C14.8707 18.2093 15.0272 18.6422 15.1321 19.0877C15.4755 18.9581 15.8094 18.8063 16.1316 18.6331C16.3901 16.7799 14.5693 14.2206 11.6622 12.5952Z" fill="white"/>
<path d="M18.9382 11.673C18.0288 10.237 16.4747 8.85661 14.5634 7.78847C12.6522 6.72032 10.6393 6.10462 8.89232 6.05521C7.56056 6.01822 6.529 6.32891 5.99414 6.91588C8.21501 6.55371 11.1444 7.16242 13.9837 8.75002C16.8231 10.3376 18.8243 12.4858 19.5967 14.522C19.8616 13.7845 19.6312 12.7681 18.9382 11.673Z" fill="white"/>
</svg>
