<svg width="25" height="24" viewBox="0 0 25 24" fill="none" xmlns="http://www.w3.org/2000/svg">
<path d="M7.69988 9.33334H9.5932C9.8386 9.33334 10.5585 9.0827 11.4812 8.20802C12.3985 7.32802 14.8572 5.02401 15.9665 4H19.9665L13.5666 10.1334L19.9133 18.9334H16.7666L14.0999 15.2C14.4412 16.016 14.6439 18.0908 13.9985 20C14.1586 18.1547 13.1399 16.128 12.9425 15.8667C12.7665 15.632 11.8332 13.7653 11.3852 12.8641C10.9799 11.1146 12.8039 9.35997 13.7692 8.70402C12.4999 7.89334 11.3692 8.83202 10.9638 9.3973C10.2386 9.30135 9.6146 9.80274 9.3906 10.0641L7.28921 13.0347C6.80922 13.728 6.30788 13.776 6.11588 13.7121C6.51055 14.6454 7.46522 14.1654 7.89189 13.8134C7.99855 14.5174 7.69456 14.9334 7.52922 15.0507C7.80201 15.0183 8.05797 14.9018 8.26155 14.7174C8.46512 14.5329 8.6062 14.2898 8.66521 14.0214C8.82523 14.256 9.09193 15.184 8.87322 16.9814C8.83267 17.3994 8.68332 17.7997 8.44003 18.1422C8.19676 18.4846 7.86802 18.7574 7.48655 18.9334L7.45455 18.928H5.0332V4H7.69988V9.33334ZM9.8172 10.9601C9.8172 10.6507 9.98794 10.0267 10.6866 10.016C10.6278 10.7307 10.0785 10.944 9.8172 10.9601Z" fill="white"/>
</svg>
