<svg width="24" height="24" viewBox="0 0 24 24" fill="none" xmlns="http://www.w3.org/2000/svg">
<path fill-rule="evenodd" clip-rule="evenodd" d="M11.9998 4.87111L5.77756 8.43557V15.5645L11.9998 19.1289L18.222 15.5645V8.43557L11.9998 4.87111ZM19.111 8.00001L11.9998 4L4.88867 8.00001V16.0001L11.9998 20L19.111 16.0001V8.00001Z" fill="white"/>
<path fill-rule="evenodd" clip-rule="evenodd" d="M11.9998 9.33273L9.77756 10.6439V13.355L11.9998 14.6661L14.2221 13.355V10.6439L11.9998 9.33273ZM15.1109 10.2216L11.9998 8.44385L8.88867 10.2216V13.7771L11.9998 15.5549L15.1109 13.7771V10.2216Z" fill="white"/>
<path d="M11.5556 12.177L5.12012 8.55476L5.50679 7.89697L12.0001 11.5548L18.3379 7.90143L18.7246 8.55031L12.4446 12.177V19.4347H11.5556V12.177Z" fill="white"/>
</svg>
