<svg width="24" height="24" viewBox="0 0 24 24" fill="none" xmlns="http://www.w3.org/2000/svg">
<path fill-rule="evenodd" clip-rule="evenodd" d="M20 10.444L15.2 5.77734H8.80002L4 10.444L12 18.2218L20 10.444ZM17.7778 10.6662C17.7778 10.6662 12.4622 2.66623 6.22222 10.6662C12.4445 18.6662 17.7778 10.6662 17.7778 10.6662Z" fill="white"/>
<path fill-rule="evenodd" clip-rule="evenodd" d="M14.6669 10.6667C14.6669 10.3164 14.5978 9.96976 14.4638 9.6462C14.3298 9.32265 14.1334 9.02866 13.8857 8.78104C13.6381 8.53343 13.3442 8.337 13.0207 8.20298C12.6971 8.06897 12.3504 8 12.0001 8C11.6499 8 11.3033 8.06897 10.9797 8.20298C10.6561 8.337 10.3621 8.53343 10.1146 8.78104C9.86693 9.02866 9.6705 9.32265 9.53649 9.6462C9.40247 9.96976 9.3335 10.3164 9.3335 10.6667C9.3335 11.3739 9.61445 12.0522 10.1146 12.5523C10.6146 13.0524 11.2929 13.3333 12.0001 13.3333C12.7074 13.3333 13.3857 13.0524 13.8857 12.5523C14.3858 12.0522 14.6669 11.3739 14.6669 10.6667ZM13.3334 10.6667C13.3334 10.313 13.193 9.9739 12.943 9.72387C12.6929 9.47385 12.3537 9.33333 12.0001 9.33333C11.2579 9.33333 10.6668 9.92444 10.6668 10.6667C10.6668 11.4088 11.2579 12 12.0001 12C12.7424 12 13.3334 11.4088 13.3334 10.6667Z" fill="white"/>
</svg>
