<svg width="24" height="24" viewBox="0 0 24 24" fill="none" xmlns="http://www.w3.org/2000/svg">
<path fill-rule="evenodd" clip-rule="evenodd" d="M12 21C14.387 21 16.6761 20.0518 18.3639 18.3639C20.0518 16.6761 21 14.387 21 12C21 9.61306 20.0518 7.32386 18.3639 5.63603C16.6761 3.94821 14.387 3 12 3C9.61306 3 7.32386 3.94821 5.63603 5.63603C3.94821 7.32386 3 9.61306 3 12C3 14.387 3.94821 16.6761 5.63603 18.3639C7.32386 20.0518 9.61306 21 12 21ZM11.9788 20.4705C10.7168 20.4656 9.50819 19.9602 8.61838 19.0652C7.72856 18.1702 7.23019 16.9587 7.23265 15.6967C7.2351 14.4345 7.73818 13.2251 8.63147 12.3334C9.52476 11.4419 10.7352 10.9412 11.9973 10.9412C13.2594 10.9412 14.4699 11.4419 15.3632 12.3334C16.2565 13.2251 16.7597 14.4345 16.7621 15.6967C16.7644 16.9587 16.2661 18.1702 15.3763 19.0652C14.4865 19.9602 13.2779 20.4656 12.0158 20.4705H12.0212C15.2295 20.4599 17.8235 17.7388 17.8235 14.3823C17.8235 11.0205 15.2188 8.29411 12 8.29411C8.78117 8.29411 6.17646 11.0205 6.17646 14.3823C6.17646 17.7388 8.77058 20.4599 11.9788 20.4705ZM16.2352 16.2352C16.2353 17.3549 15.792 18.429 15.0023 19.2227C14.2126 20.0163 13.1408 20.4649 12.0212 20.4705C13.7682 20.4599 15.1765 19.1577 15.1765 17.5588C15.1765 15.9494 13.7523 14.647 12 14.647C10.2476 14.647 8.82352 15.9494 8.82352 17.5588C8.82352 19.1577 10.2317 20.4599 11.9788 20.4705C11.1421 20.4664 10.3254 20.2145 9.6316 19.7466C8.9379 19.2787 8.39835 18.6156 8.08104 17.8414C7.76372 17.0672 7.68287 16.2163 7.84867 15.3961C8.01448 14.576 8.41951 13.8233 9.01267 13.2331C9.60578 12.6429 10.3606 12.2417 11.1815 12.0798C12.0025 11.9181 12.853 12.0032 13.6257 12.3245C14.3982 12.6456 15.0585 13.1885 15.523 13.8844C15.9874 14.5806 16.2352 15.3986 16.2352 16.2352ZM18.8823 13.8529C18.8823 17.4952 15.8276 20.4495 12.0476 20.4705C14.1496 20.4579 16.1609 19.6126 17.6405 18.1195C19.1202 16.6264 19.9474 14.6077 19.9411 12.5057C19.9348 10.4038 19.0954 8.38997 17.6067 6.90587C16.1182 5.42176 14.102 4.58837 12 4.58837C9.89792 4.58837 7.88173 5.42176 6.39316 6.90587C4.9046 8.38997 4.06516 10.4038 4.05886 12.5057C4.05254 14.6077 4.87988 16.6264 6.35951 18.1195C7.83916 19.6126 9.85037 20.4579 11.9523 20.4705C8.17234 20.4495 5.11764 17.4952 5.11764 13.8529C5.11764 10.2 8.19881 7.23529 12 7.23529C15.8011 7.23529 18.8823 10.2 18.8823 13.8529ZM13.0218 20.1C13.5634 19.865 14.0075 19.4506 14.2792 18.9266C14.5511 18.4024 14.634 17.8007 14.5141 17.2226C14.3942 16.6446 14.0785 16.1255 13.6206 15.7528C13.1627 15.3801 12.5904 15.1767 12 15.1767C11.4095 15.1767 10.8372 15.3801 10.3793 15.7528C9.9214 16.1255 9.6059 16.6446 9.48592 17.2226C9.36594 17.8007 9.44885 18.4024 9.72066 18.9266C9.99242 19.4506 10.4366 19.865 10.9782 20.1C10.7288 19.8903 10.5498 19.609 10.4657 19.2943C10.3815 18.9796 10.3961 18.6465 10.5078 18.3403C10.6193 18.0341 10.8223 17.7697 11.0892 17.583C11.3562 17.396 11.6741 17.2959 12 17.2959C12.3258 17.2959 12.6438 17.396 12.9107 17.583C13.1776 17.7697 13.3807 18.0341 13.4923 18.3403C13.6038 18.6465 13.6185 18.9796 13.5344 19.2943C13.4502 19.609 13.2712 19.8903 13.0218 20.1Z" fill="white"/>
</svg>
