<svg width="24" height="24" viewBox="0 0 24 24" fill="none" xmlns="http://www.w3.org/2000/svg">
<path d="M10.3754 4.1115C7.69084 4.64644 7.69586 5.6163 7.70086 6.76116V6.90114L8.64073 6.72117C8.56575 6.22124 8.83071 5.29135 10.4904 4.9714C12.1203 4.65143 12.6002 5.44132 12.6552 5.97126L13.5551 5.80129C13.5751 5.02138 12.9602 3.59657 10.3754 4.1115ZM6.22604 14.5602L4.1763 16.6249L3.21642 11.4756L6.22604 14.5602ZM4.45126 18.1347L4.31629 17.3998L6.68098 15.0252L10.8004 19.2495L7.09093 19.9595C6.79767 20.0143 6.49647 20.0105 6.20469 19.9482C5.91293 19.886 5.63636 19.7667 5.39095 19.5969C5.14555 19.4274 4.93616 19.2108 4.77488 18.9598C4.6136 18.7089 4.50362 18.4285 4.45126 18.1347ZM16.6897 18.1297L11.5653 19.0996L10.6405 18.1496L13.7101 15.0701L16.6897 18.1197V18.1297ZM19.1594 17.6598L17.4546 17.9848L14.165 14.6151L17.2897 11.4805L20.9991 15.35C21.014 15.8891 20.8372 16.4159 20.5004 16.8369C20.1636 17.2578 19.6885 17.5459 19.1594 17.6498V17.6598ZM19.8343 8.93088L20.8191 14.2301L17.7496 11.0206L19.8343 8.93088ZM19.5493 7.39108L19.6893 8.15599L17.2997 10.5556L14.285 7.39608L15.9148 5.75629L16.9147 5.56632C17.2075 5.51225 17.5082 5.51663 17.7994 5.57919C18.0907 5.64174 18.3665 5.76125 18.6114 5.93083C18.8563 6.10041 19.0652 6.31672 19.2262 6.56733C19.3871 6.81793 19.4969 7.09788 19.5493 7.39108ZM7.15093 7.42608L14.7849 5.97627L10.2105 10.5606L7.15592 7.42608H7.15093ZM4.84122 7.87102L6.39102 7.57106L9.75557 11.0206L6.68598 14.1003L3.01146 10.3408C2.95462 9.77521 3.11061 9.20884 3.44895 8.75217C3.78729 8.29551 4.28368 7.98134 4.84122 7.87102ZM13.8251 7.85602L16.8447 11.0106L13.7151 14.1503L10.6655 11.0256L13.8251 7.85602ZM11.2503 14.5002C11.2503 14.7654 11.145 15.0197 10.9575 15.2073C10.77 15.3947 10.5156 15.5 10.2505 15.5C9.98538 15.5 9.73108 15.3947 9.54352 15.2073C9.35599 15.0197 9.25066 14.7654 9.25066 14.5002C9.25066 14.235 9.35599 13.9806 9.54352 13.7932C9.73108 13.6056 9.98538 13.5003 10.2505 13.5003C10.5156 13.5003 10.77 13.6056 10.9575 13.7932C11.145 13.9806 11.2503 14.235 11.2503 14.5002Z" fill="white"/>
</svg>
