<svg width="24" height="24" viewBox="0 0 24 24" fill="none" xmlns="http://www.w3.org/2000/svg">
<path d="M16.9201 5.95456C14.3369 3.34848 9.6642 3.34848 7.08097 5.95456C4.49775 8.56065 4.49775 13.1921 7.08097 15.8028L9.25728 17.6225V15.9537C9.25728 15.0027 9.77392 13.3979 11.2371 12.0949C12.226 11.2158 13.2227 10.3456 14.2271 9.4842L14.2865 9.60307L12.0326 11.7702C11.5753 12.3646 10.661 13.9328 10.661 15.4554C10.661 17.1058 11.2827 18.7106 12.3663 20L16.9201 15.4004C18.1603 14.1414 18.8556 12.4449 18.8556 10.6775C18.8556 8.91012 18.1603 7.21366 16.9201 5.95456Z" fill="white"/>
</svg>
