<svg width="24" height="24" viewBox="0 0 24 24" fill="none" xmlns="http://www.w3.org/2000/svg">
<path d="M12.0021 16.4427C14.4563 16.4427 16.4457 14.5528 16.4457 12.2213C16.4457 9.88997 14.4563 8 12.0021 8C9.54804 8 7.55859 9.88997 7.55859 12.2213C7.55859 14.5528 9.54804 16.4427 12.0021 16.4427Z" fill="white"/>
<path fill-rule="evenodd" clip-rule="evenodd" d="M12.1081 19.9987C16.4628 19.9987 19.9998 16.4572 19.9998 12.0891C19.9998 7.7212 16.4672 4.17969 12.1081 4.17969C11.0703 4.18027 10.0425 4.38535 9.08398 4.78321C8.12536 5.18107 7.25453 5.76391 6.52125 6.49843C5.78796 7.23297 5.20659 8.10477 4.81035 9.06405C4.4141 10.0234 4.21075 11.0513 4.21192 12.0891C4.21192 16.4572 7.74454 19.9987 12.1081 19.9987ZM12.1081 19.7765C16.3428 19.7765 19.7776 16.3328 19.7776 12.0891C19.7776 7.84561 16.3428 4.40186 12.1081 4.40186C11.0994 4.40245 10.1007 4.60177 9.169 4.98847C8.23734 5.37516 7.391 5.94165 6.67834 6.65554C5.9657 7.36943 5.40068 8.21675 5.0156 9.14908C4.63053 10.0814 4.43293 11.0805 4.4341 12.0891C4.4341 16.3328 7.86895 19.7765 12.1081 19.7765Z" fill="white"/>
<path d="M19.4271 13.666C19.175 14.8261 18.6518 15.9101 17.9004 16.8291C17.1489 17.7483 16.1904 18.4763 15.1035 18.9538L15.2546 19.3004C16.3903 18.7914 17.3915 18.0241 18.1783 17.0598C18.9652 16.0954 19.5161 14.9607 19.7869 13.7459L19.4316 13.666H19.4271Z" fill="white"/>
<path d="M5.41619 8.66763L4.85631 8.3877C4.29705 9.49884 4.00389 10.7249 4.00004 11.9688C3.99618 13.2127 4.28173 14.4405 4.83409 15.5551L5.33177 15.3063C4.8362 14.2686 4.58641 13.1309 4.60183 11.9809C4.61724 10.8313 4.89744 9.70048 5.42063 8.67653L5.41619 8.66763Z" fill="white"/>
<path d="M15.9877 5.05854C14.9213 4.43645 13.7215 4.08097 12.4907 4.00098L12.4551 4.57865C13.6084 4.63287 14.7336 4.95309 15.7426 5.51427C16.7516 6.07544 17.6171 6.86238 18.2717 7.81355L18.6495 7.56026C17.967 6.53222 17.056 5.67599 15.9877 5.05854Z" fill="white"/>
<path fill-rule="evenodd" clip-rule="evenodd" d="M11.9933 17.4963C14.9794 17.4963 17.3966 15.0701 17.3966 12.0796C17.3949 11.0102 17.0762 9.96541 16.4806 9.07712C15.8852 8.18889 15.0398 7.49714 14.0511 7.08934C13.0626 6.68154 11.9753 6.57596 10.9267 6.78599C9.87821 6.99602 8.91548 7.5122 8.16026 8.26929C7.40503 9.02638 6.89122 9.99039 6.68378 11.0394C6.47634 12.0886 6.58458 13.1755 6.99483 14.1631C7.40507 15.1505 8.0989 15.9944 8.9886 16.5877C9.87829 17.1809 10.9239 17.4971 11.9933 17.4963ZM11.9933 16.9185C13.2743 16.9174 14.5025 16.4074 15.4074 15.5007C16.3124 14.5941 16.8202 13.365 16.819 12.0841C16.8178 10.803 16.3078 9.57489 15.4012 8.6699C14.4945 7.7649 13.2654 7.25715 11.9844 7.25832C10.7293 7.29754 9.53887 7.82398 8.66537 8.72604C7.79186 9.6281 7.30397 10.8349 7.30513 12.0906C7.30629 13.3461 7.79639 14.5521 8.67155 15.4525C9.54672 16.353 10.7382 16.8772 11.9933 16.9141V16.9185Z" fill="white"/>
<path fill-rule="evenodd" clip-rule="evenodd" d="M12.0027 16.4429C12.5924 16.4495 13.1777 16.3396 13.7249 16.1197C14.2722 15.8999 14.7708 15.5743 15.1922 15.1616C15.6135 14.7489 15.9494 14.2573 16.1806 13.7146C16.4118 13.1721 16.5338 12.5892 16.5396 11.9994C16.5396 9.54665 14.5089 7.55593 12.0027 7.55593C11.4129 7.54948 10.8277 7.65933 10.2805 7.87921C9.73316 8.09909 9.23461 8.42467 8.81326 8.83736C8.3919 9.25005 8.05603 9.74173 7.82483 10.2843C7.59362 10.8269 7.47163 11.4097 7.46582 11.9994C7.46582 14.4522 9.49652 16.4429 12.0027 16.4429ZM12.0027 15.9676C14.2378 15.9676 16.0552 14.1902 16.0552 11.9994C16.05 11.4727 15.941 10.9522 15.7344 10.4676C15.5278 9.98302 15.2278 9.54394 14.8514 9.17541C14.475 8.80687 14.0298 8.51615 13.541 8.31984C13.0521 8.12355 12.5295 8.02552 12.0027 8.0314C9.76758 8.0314 7.95018 9.80881 7.95018 11.9994C7.95539 12.5262 8.06439 13.0467 8.27094 13.5314C8.47749 14.0158 8.77752 14.455 9.1539 14.8236C9.53028 15.1921 9.97565 15.4828 10.4644 15.6791C10.9533 15.8754 11.4759 15.9734 12.0027 15.9676Z" fill="white"/>
<path fill-rule="evenodd" clip-rule="evenodd" d="M11.9934 18.6649C15.6283 18.6649 18.5698 15.7144 18.5698 12.0751C18.5698 8.43587 15.6283 5.48535 11.9934 5.48535C8.36306 5.48535 5.41699 8.43587 5.41699 12.0751C5.41699 15.7189 8.36306 18.6649 11.9934 18.6649ZM11.9934 18.1984C15.3706 18.1984 18.1077 15.4566 18.1077 12.0751C18.1464 11.2485 18.0169 10.4226 17.7271 9.64737C17.4374 8.87218 16.9934 8.16382 16.4221 7.56515C15.8507 6.96647 15.1639 6.48992 14.403 6.16432C13.6422 5.83872 12.8233 5.67085 11.9957 5.67085C11.1681 5.67085 10.3492 5.83872 9.5883 6.16432C8.82748 6.48992 8.1406 6.96647 7.56925 7.56515C6.99788 8.16382 6.5539 8.87218 6.26416 9.64737C5.97442 10.4226 5.84494 11.2485 5.88356 12.0751C5.88356 15.4566 8.62078 18.1984 11.9934 18.1984Z" fill="white"/>
<path fill-rule="evenodd" clip-rule="evenodd" d="M11.9936 17.999C15.2372 17.999 17.8679 15.3596 17.8679 12.1113C17.8679 8.85866 15.2372 6.22363 11.9936 6.22363C8.74972 6.22363 6.11914 8.85866 6.11914 12.1113C6.11914 15.3596 8.74972 17.999 11.9936 17.999ZM11.9936 17.7946C15.1262 17.7946 17.6679 15.2485 17.6679 12.1069C17.6679 8.96974 15.1262 6.4236 11.9936 6.4236C11.2473 6.42418 10.5087 6.57179 9.81962 6.858C9.13056 7.14421 8.50466 7.56339 7.97769 8.0916C7.4507 8.61982 7.03299 9.2467 6.7484 9.93641C6.46381 10.6261 6.31793 11.3652 6.3191 12.1113C6.3191 15.2485 8.86081 17.7991 11.9936 17.7991V17.7946Z" fill="white"/>
<path fill-rule="evenodd" clip-rule="evenodd" d="M11.9935 15.4972C12.4391 15.4969 12.8801 15.4089 13.2916 15.2381C13.7031 15.0674 14.077 14.8171 14.3918 14.5019C14.7066 14.1867 14.9562 13.8126 15.1265 13.4009C15.2968 12.9891 15.3842 12.5479 15.3839 12.1023C15.3837 11.6568 15.2956 11.2158 15.1249 10.8043C14.9541 10.3927 14.7039 10.0188 14.3887 9.70402C14.0734 9.3892 13.6992 9.13955 13.2875 8.96931C12.8758 8.79909 12.4346 8.71163 11.9891 8.71191C11.0893 8.71251 10.2266 9.07051 9.59074 9.70717C8.95492 10.3439 8.59804 11.2071 8.59863 12.1068C8.59923 13.0066 8.95723 13.8693 9.59389 14.5051C10.2305 15.141 11.0937 15.4979 11.9935 15.4972ZM11.9935 13.9953C12.5073 13.9953 13.0001 13.7912 13.3634 13.4278C13.7268 13.0645 13.9308 12.5717 13.9308 12.0579C13.9308 11.5441 13.7268 11.0513 13.3634 10.688C13.0001 10.3246 12.5073 10.1206 11.9935 10.1206C11.4797 10.1206 10.9869 10.3246 10.6235 10.688C10.2603 11.0513 10.0561 11.5441 10.0561 12.0579C10.0561 12.5717 10.2603 13.0645 10.6235 13.4278C10.9869 13.7912 11.4797 13.9953 11.9935 13.9953Z" fill="white"/>
<path d="M6.04726 10.7384L5.14967 10.5518C4.93433 11.5814 4.9531 12.6462 5.2046 13.6677C5.4561 14.689 5.93392 15.6409 6.6027 16.4528L7.2248 15.9329C6.65481 15.209 6.25336 14.3671 6.04967 13.4685C5.84597 12.5699 5.84516 11.6374 6.04726 10.7384Z" fill="white"/>
<path d="M11.989 5.15638C10.3643 5.1597 8.78638 5.70025 7.50098 6.69385L7.96755 7.25374C9.12899 6.35236 10.5588 5.86585 12.029 5.87179C13.5398 5.87179 14.9306 6.36947 16.0282 7.2093L16.4903 6.65829C15.1965 5.67493 13.614 5.14688 11.989 5.15638Z" fill="white"/>
<path d="M11.4469 17.163C10.2811 17.0162 9.20068 16.4745 8.38569 15.6279C7.57072 14.7815 7.07031 13.6813 6.9678 12.5107L6.25684 12.5774C6.37728 13.9072 6.9489 15.1559 7.8768 16.1161C8.8047 17.0764 10.0331 17.6904 11.358 17.8563L11.4469 17.163Z" fill="white"/>
<path d="M13.9566 18.0249C14.8599 17.7418 15.6867 17.2562 16.374 16.6051C17.0612 15.9543 17.5909 15.155 17.9226 14.2684C18.2543 13.3817 18.3793 12.4311 18.288 11.4888C18.1966 10.5466 17.8916 9.63766 17.3959 8.83117L17.9958 8.4668C18.5433 9.36444 18.8793 10.375 18.978 11.4219C19.0767 12.4687 18.9358 13.5243 18.5657 14.5084C18.1957 15.4927 17.6063 16.3796 16.8423 17.1021C16.0784 17.8246 15.1599 18.3635 14.1565 18.6781L13.9521 18.0249H13.9566Z" fill="white"/>
<path d="M17.6634 13.9473C17.2946 15.0137 16.6369 15.9468 15.7793 16.6489L16.4103 17.4265C17.4218 16.6 18.1821 15.5073 18.6054 14.2716L17.6634 13.9473Z" fill="white"/>
<path d="M9.33496 10.667V13.7775H9.77931V11.4446L10.0548 13.7775H10.3925L10.668 11.4446V13.7775H11.1124V10.667H10.4104L10.2237 12.3067L10.0371 10.667H9.33496Z" fill="white"/>
<path fill-rule="evenodd" clip-rule="evenodd" d="M12.2419 10.6671C12.4463 10.6626 12.8462 10.7738 12.8462 11.2847V11.7736C12.8329 11.8713 12.7573 12.0846 12.5351 12.1068C12.6774 12.1334 12.8907 12.289 12.8907 12.6178V13.3866C12.8817 13.5198 12.8018 13.7776 12.5351 13.7776H11.5576V10.6671H12.2419ZM12.0019 11.1114V12.0002H12.2419C12.2771 11.9854 12.3071 11.9609 12.3284 11.9292C12.3498 11.8976 12.3614 11.8605 12.3619 11.8224V11.2802C12.353 11.2225 12.3174 11.1114 12.2063 11.1114H12.0019ZM12.0019 13.3332V12.4446H12.2108C12.3219 12.4446 12.3619 12.5823 12.3663 12.6534V13.1154C12.3663 13.2443 12.2863 13.3154 12.2507 13.3332H12.0019ZM14.2682 10.6671H13.3351V13.7776H14.2682C14.4902 13.7776 14.6681 13.591 14.6681 13.3599V11.0848C14.6681 10.8537 14.4902 10.6671 14.2682 10.6671ZM14.0859 11.1114H13.7793V13.3332H14.0859C14.1304 13.3332 14.1614 13.2088 14.1614 13.0533V11.3914C14.1614 11.2359 14.1304 11.1114 14.0859 11.1114Z" fill="white"/>
</svg>
