<svg width="24" height="24" viewBox="0 0 24 24" fill="none" xmlns="http://www.w3.org/2000/svg">
<path d="M12.0024 16.9981C14.7634 16.9981 17.0015 14.8719 17.0015 12.249C17.0015 9.62624 14.7634 7.5 12.0024 7.5C9.24156 7.5 7.00342 9.62624 7.00342 12.249C7.00342 14.8719 9.24156 16.9981 12.0024 16.9981Z" fill="white"/>
<path fill-rule="evenodd" clip-rule="evenodd" d="M12.1216 20.9987C17.0207 20.9987 20.9999 17.0145 20.9999 12.1004C20.9999 7.18639 17.0256 3.20215 12.1216 3.20215C10.954 3.20281 9.7978 3.43352 8.71941 3.88112C7.64096 4.32871 6.66126 4.98442 5.83631 5.81076C5.01135 6.63712 4.3573 7.61791 3.91153 8.69711C3.46575 9.77636 3.23697 10.9328 3.23829 12.1004C3.23829 17.0145 7.21253 20.9987 12.1216 20.9987ZM12.1216 20.7487C16.8857 20.7487 20.7499 16.8745 20.7499 12.1004C20.7499 7.32636 16.8857 3.4521 12.1216 3.4521C10.9868 3.45276 9.86324 3.677 8.81506 4.11204C7.76693 4.54707 6.81479 5.18438 6.01304 5.98751C5.21131 6.79064 4.57566 7.74389 4.14244 8.79277C3.70923 9.84168 3.48693 10.9656 3.48825 12.1004C3.48825 16.8745 7.35249 20.7487 12.1216 20.7487Z" fill="white"/>
<path d="M20.3558 13.874C20.0722 15.1791 19.4836 16.3986 18.6382 17.4326C17.7927 18.4667 16.7144 19.2857 15.4917 19.8229L15.6616 20.2128C16.9394 19.6401 18.0657 18.7769 18.9509 17.692C19.8361 16.6071 20.4559 15.3305 20.7606 13.9639L20.3608 13.874H20.3558Z" fill="white"/>
<path d="M4.59323 8.25145L3.96336 7.93652C3.33418 9.18657 3.00438 10.5659 3.00004 11.9653C2.99571 13.3647 3.31694 14.746 3.93836 15.9999L4.49826 15.72C3.94073 14.5526 3.65972 13.2726 3.67706 11.979C3.6944 10.6856 4.00963 9.41342 4.59823 8.26146L4.59323 8.25145Z" fill="white"/>
<path d="M16.4865 4.19075C15.2867 3.49089 13.9369 3.09097 12.5523 3.00098L12.5122 3.65086C13.8097 3.71186 15.0755 4.07211 16.2107 4.70345C17.3459 5.33477 18.3196 6.22008 19.056 7.29016L19.481 7.00521C18.7132 5.84865 17.6883 4.88538 16.4865 4.19075Z" fill="white"/>
<path fill-rule="evenodd" clip-rule="evenodd" d="M11.9926 18.1833C15.352 18.1833 18.0715 15.4539 18.0715 12.0895C18.0695 10.8864 17.7109 9.711 17.0409 8.71167C16.3711 7.7124 15.4199 6.93417 14.3077 6.47539C13.1956 6.01661 11.9724 5.89783 10.7927 6.13411C9.61315 6.3704 8.53007 6.95111 7.68043 7.80285C6.83079 8.65458 6.25275 9.73911 6.01938 10.9193C5.786 12.0996 5.90777 13.3224 6.36931 14.4335C6.83084 15.5443 7.6114 16.4937 8.61233 17.1611C9.61323 17.8285 10.7896 18.1842 11.9926 18.1833ZM11.9926 17.5334C13.4338 17.5321 14.8155 16.9583 15.8335 15.9383C16.8517 14.9184 17.4229 13.5356 17.4217 12.0945C17.4202 10.6533 16.8465 9.27166 15.8266 8.25354C14.8065 7.23541 13.4238 6.66418 11.9826 6.6655C10.5706 6.70962 9.23139 7.30187 8.24869 8.3167C7.26598 9.33152 6.7171 10.6892 6.71841 12.1018C6.7197 13.5144 7.27107 14.8711 8.25565 15.884C9.24022 16.8971 10.5806 17.4868 11.9926 17.5284V17.5334Z" fill="white"/>
<path fill-rule="evenodd" clip-rule="evenodd" d="M12.0029 16.9983C12.6664 17.0057 13.3248 16.882 13.9404 16.6346C14.5561 16.3874 15.1171 16.0211 15.5912 15.5568C16.0652 15.0924 16.443 14.5394 16.7031 13.9289C16.9632 13.3185 17.1005 12.6628 17.107 11.9993C17.107 9.23988 14.8225 7.0003 12.0029 7.0003C11.3394 6.99304 10.6811 7.11663 10.0654 7.364C9.44971 7.61136 8.88883 7.97765 8.41481 8.44192C7.94077 8.9062 7.56291 9.45935 7.30281 10.0698C7.0427 10.6802 6.90546 11.3358 6.89893 11.9993C6.89893 14.7587 9.18348 16.9983 12.0029 16.9983ZM12.0029 16.4635C14.5175 16.4635 16.5621 14.4639 16.5621 11.9993C16.5562 11.4067 16.4336 10.8212 16.2012 10.276C15.9688 9.7308 15.6312 9.23684 15.2078 8.82223C14.7844 8.40762 14.2834 8.08055 13.7335 7.85971C13.1835 7.63887 12.5956 7.5286 12.0029 7.5352C9.48843 7.5352 7.44383 9.53481 7.44383 11.9993C7.4497 12.592 7.57233 13.1775 7.80469 13.7227C8.03706 14.2678 8.3746 14.7618 8.79804 15.1765C9.22146 15.591 9.72252 15.9181 10.2724 16.139C10.8224 16.3598 11.4104 16.4701 12.0029 16.4635Z" fill="white"/>
<path fill-rule="evenodd" clip-rule="evenodd" d="M11.9928 19.4981C16.0821 19.4981 19.3913 16.1787 19.3913 12.0844C19.3913 7.99027 16.0821 4.6709 11.9928 4.6709C7.9086 4.6709 4.59424 7.99027 4.59424 12.0844C4.59424 16.1837 7.9086 19.4981 11.9928 19.4981ZM11.9928 18.9732C15.7921 18.9732 18.8715 15.8887 18.8715 12.0844C18.915 11.1545 18.7693 10.2253 18.4433 9.35322C18.1174 8.48112 17.6179 7.6842 16.9751 7.01069C16.3323 6.33717 15.5596 5.80105 14.7036 5.43474C13.8477 5.06844 12.9264 4.87958 11.9953 4.87958C11.0643 4.87958 10.143 5.06844 9.28701 5.43474C8.43107 5.80105 7.65833 6.33717 7.01555 7.01069C6.37276 7.6842 5.87327 8.48112 5.54731 9.35322C5.22135 10.2253 5.07569 11.1545 5.11913 12.0844C5.11913 15.8887 8.19854 18.9732 11.9928 18.9732Z" fill="white"/>
<path fill-rule="evenodd" clip-rule="evenodd" d="M11.9931 18.7494C15.6422 18.7494 18.6017 15.78 18.6017 12.1257C18.6017 8.46638 15.6422 5.50195 11.9931 5.50195C8.34371 5.50195 5.38428 8.46638 5.38428 12.1257C5.38428 15.78 8.34371 18.7494 11.9931 18.7494ZM11.9931 18.5194C15.5173 18.5194 18.3767 15.6551 18.3767 12.1207C18.3767 8.59136 15.5173 5.72692 11.9931 5.72692C11.1536 5.72757 10.3226 5.89364 9.54736 6.21562C8.77216 6.53761 8.06802 7.00919 7.47516 7.60344C6.8823 8.19769 6.41236 8.90294 6.0922 9.67887C5.77204 10.4548 5.60792 11.2862 5.60923 12.1257C5.60923 15.6551 8.46869 18.5245 11.9931 18.5245V18.5194Z" fill="white"/>
<path fill-rule="evenodd" clip-rule="evenodd" d="M11.9926 15.9343C12.4939 15.934 12.99 15.835 13.453 15.6428C13.916 15.4507 14.3365 15.1692 14.6908 14.8146C15.0448 14.4599 15.3257 14.0391 15.5172 13.5759C15.7089 13.1127 15.8071 12.6163 15.8069 12.1151C15.8066 11.6138 15.7075 11.1177 15.5154 10.6547C15.3233 10.1917 15.0419 9.77109 14.6873 9.41692C14.3326 9.06274 13.9115 8.78187 13.4484 8.59036C12.9852 8.39886 12.4888 8.30046 11.9876 8.30078C10.9754 8.30145 10.0048 8.70421 9.28947 9.42045C8.57417 10.1368 8.17267 11.1079 8.17334 12.1201C8.17401 13.1323 8.57677 14.1029 9.29301 14.8181C10.0092 15.5335 10.9803 15.935 11.9926 15.9343ZM11.9926 14.2446C12.5706 14.2446 13.125 14.0151 13.5337 13.6062C13.9426 13.1975 14.1721 12.6431 14.1721 12.065C14.1721 11.487 13.9426 10.9326 13.5337 10.5239C13.125 10.1151 12.5706 9.88551 11.9926 9.88551C11.4146 9.88551 10.8602 10.1151 10.4514 10.5239C10.0427 10.9326 9.81304 11.487 9.81304 12.065C9.81304 12.6431 10.0427 13.1975 10.4514 13.6062C10.8602 14.0151 11.4146 14.2446 11.9926 14.2446Z" fill="white"/>
<path d="M5.30306 10.5811L4.29326 10.3711C4.051 11.5294 4.07211 12.7274 4.35505 13.8765C4.638 15.0256 5.17554 16.0964 5.92793 17.0098L6.6278 16.4249C5.98656 15.6106 5.53493 14.6634 5.30577 13.6525C5.07661 12.6415 5.07569 11.5924 5.30306 10.5811Z" fill="white"/>
<path d="M11.9875 4.30092C10.1597 4.30466 8.38457 4.91278 6.93848 6.0306L7.46338 6.66048C8.77001 5.64641 10.3785 5.09908 12.0325 5.10577C13.7322 5.10577 15.2969 5.66567 16.5317 6.61048L17.0515 5.99059C15.596 4.8843 13.8157 4.29024 11.9875 4.30092Z" fill="white"/>
<path d="M11.3779 17.8091C10.0664 17.6439 8.85092 17.0345 7.93405 16.0821C7.0172 15.1298 6.45423 13.8921 6.33891 12.5752L5.53906 12.6502C5.67457 14.1462 6.31764 15.551 7.36154 16.6313C8.40544 17.7116 9.78735 18.4024 11.2779 18.589L11.3779 17.8091Z" fill="white"/>
<path d="M14.2013 18.7784C15.2175 18.4599 16.1477 17.9136 16.9209 17.1811C17.694 16.4489 18.29 15.5497 18.6631 14.5522C19.0363 13.5547 19.1768 12.4853 19.0741 11.4252C18.9714 10.3652 18.6282 9.34262 18.0705 8.43532L18.7455 8.02539C19.3614 9.03525 19.7393 10.1721 19.8504 11.3499C19.9615 12.5276 19.803 13.7151 19.3866 14.8223C18.9704 15.9296 18.3072 16.9274 17.4477 17.7402C16.5883 18.553 15.555 19.1593 14.4262 19.5132L14.1963 18.7784H14.2013Z" fill="white"/>
<path d="M18.3716 14.1904C17.9567 15.3901 17.2168 16.4399 16.252 17.2298L16.9619 18.1046C18.0998 17.1748 18.9551 15.9454 19.4313 14.5553L18.3716 14.1904Z" fill="white"/>
<path d="M9.00195 10.501V14.0003H9.50185V11.3758L9.8118 14.0003H10.1917L10.5016 11.3758V14.0003H11.0015V10.501H10.2118L10.0018 12.3456L9.79185 10.501H9.00195Z" fill="white"/>
<path fill-rule="evenodd" clip-rule="evenodd" d="M12.2723 10.5011C12.5022 10.4961 12.9521 10.6211 12.9521 11.1959V11.7459C12.9371 11.8558 12.8521 12.0958 12.6022 12.1208C12.7622 12.1507 13.0021 12.3257 13.0021 12.6956V13.5605C12.992 13.7105 12.9021 14.0004 12.6022 14.0004H11.5024V10.5011H12.2723ZM12.0022 11.001V12.0008H12.2723C12.3118 11.9842 12.3457 11.9566 12.3696 11.921C12.3936 11.8854 12.4067 11.8437 12.4072 11.8008V11.1909C12.3972 11.1259 12.3572 11.001 12.2323 11.001H12.0022ZM12.0022 13.5005V12.5008H12.2373C12.3622 12.5008 12.4072 12.6557 12.4123 12.7357V13.2555C12.4123 13.4005 12.3222 13.4805 12.2822 13.5005H12.0022ZM14.5518 10.5011H13.5021V14.0004H14.5518C14.8017 14.0004 15.0018 13.7905 15.0018 13.5305V10.971C15.0018 10.711 14.8017 10.5011 14.5518 10.5011ZM14.3468 11.001H14.0018V13.5005H14.3468C14.3969 13.5005 14.4318 13.3605 14.4318 13.1856V11.316C14.4318 11.141 14.3969 11.001 14.3468 11.001Z" fill="white"/>
</svg>
