<svg width="24" height="24" viewBox="0 0 24 24" fill="none" xmlns="http://www.w3.org/2000/svg">
<path fill-rule="evenodd" clip-rule="evenodd" d="M12.0001 20.7879C14.411 20.7879 16.7234 19.8301 18.4282 18.1252C20.133 16.4204 21.0908 14.1081 21.0908 11.697C21.0908 9.28594 20.133 6.9737 18.4282 5.26884C16.7234 3.56398 14.411 2.6062 12.0001 2.6062C9.58898 2.6062 7.2767 3.56398 5.57182 5.26884C3.86696 6.9737 2.90918 9.28594 2.90918 11.697C2.90918 14.1081 3.86696 16.4204 5.57182 18.1252C7.2767 19.8301 9.58898 20.7879 12.0001 20.7879ZM12.0001 20C14.2022 20 16.314 19.1252 17.8711 17.5681C19.4282 16.011 20.303 13.8991 20.303 11.697C20.303 9.49494 19.4282 7.38307 17.8711 5.82595C16.314 4.26885 14.2022 3.39407 12.0001 3.39407C9.79799 3.39407 7.68604 4.26885 6.12893 5.82595C4.57183 7.38307 3.69705 9.49494 3.69705 11.697C3.69705 13.8991 4.57183 16.011 6.12893 17.5681C7.68604 19.1252 9.79799 20 12.0001 20Z" fill="white"/>
<path fill-rule="evenodd" clip-rule="evenodd" d="M12.0006 20.3271C13.1536 20.3577 14.301 20.1569 15.3752 19.7367C16.4493 19.3167 17.4283 18.6856 18.2548 17.881C19.081 17.0762 19.7378 16.1142 20.1862 15.0516C20.6346 13.9889 20.8657 12.8472 20.8657 11.6939C20.8657 10.5405 20.6346 9.39874 20.1862 8.33609C19.7378 7.27344 19.081 6.31138 18.2548 5.50668C17.4283 4.702 16.4493 4.07096 15.3752 3.65083C14.301 3.23071 13.1536 3.03 12.0006 3.06056C9.71001 3.06056 7.5134 3.97045 5.89378 5.59007C4.27416 7.20969 3.36427 9.40637 3.36427 11.6968C3.36427 13.9873 4.27416 16.184 5.89378 17.8036C7.5134 19.4232 9.71001 20.3332 12.0006 20.3332V20.3271ZM12.0006 20.5393C13.1618 20.5393 14.3116 20.3105 15.3844 19.8661C16.4573 19.4218 17.432 18.7705 18.2531 17.9493C19.0741 17.1282 19.7255 16.1535 20.1698 15.0807C20.6142 14.0078 20.8429 12.858 20.8429 11.6968C20.8429 10.5357 20.6142 9.38587 20.1698 8.31302C19.7255 7.24022 19.0741 6.26545 18.2531 5.44436C17.432 4.62327 16.4573 3.97195 15.3844 3.52758C14.3116 3.08321 13.1618 2.85449 12.0006 2.85449C9.65543 2.85449 7.40634 3.78609 5.74807 5.44436C4.0898 7.10263 3.1582 9.35165 3.1582 11.6968C3.1582 14.042 4.0898 16.2911 5.74807 17.9493C7.40634 19.6076 9.65543 20.5393 12.0006 20.5393Z" fill="white"/>
<path d="M7.61735 17.0547C6.96281 17.8425 5.64767 19.4243 5.63555 19.4607C5.56889 19.3758 5.23555 19.3941 5.0598 19.5819C5.01093 19.6397 4.97842 19.7096 4.96563 19.7841C4.95285 19.8588 4.96024 19.9354 4.98707 20.0061L4.71434 20.0668L4.22949 21.8849L4.3689 22L6.14464 21.2971L6.0416 20.9213C6.1507 20.9153 6.39918 20.8607 6.47796 20.7273C6.55676 20.594 6.53857 20.394 6.51433 20.3152L8.72038 17.7213L7.61735 17.0547Z" fill="white"/>
<path d="M6.66671 20.2486L5.63641 19.3091L5.84853 19.0666L6.87883 20.006L6.66671 20.2486ZM6.92732 19.897L5.89703 18.9576L6.1152 18.7152L7.14549 19.6606L6.92732 19.897ZM7.28488 19.5454L6.25459 18.606L6.46671 18.3637L7.497 19.3091L7.28488 19.5454ZM7.54549 19.2606L6.5152 18.3212L6.73337 18.0789L7.76368 19.0242L7.54549 19.2606ZM7.75761 18.9091L6.73337 17.9697L6.94549 17.7273L7.9758 18.6728L7.75761 18.9091ZM8.04246 18.5636L7.01217 17.6183L7.23034 17.3757L8.26063 18.3212L8.04246 18.5636ZM8.42428 18.2122L7.40003 17.2667L7.61822 17.0303L8.64851 17.9697L8.42428 18.2122ZM5.53338 19.7576C5.30309 19.6364 5.10914 19.6546 5.04248 19.6788C5.07884 19.4425 5.46672 19.4121 5.61218 19.4667C5.75762 19.5213 6.27884 20.1272 6.43035 20.2606C6.55156 20.3697 6.50913 20.4182 6.46671 20.4303C6.24854 20.2606 5.76369 19.8848 5.53338 19.7636V19.7576Z" fill="white"/>
<path d="M6.32713 20.7999L5.32107 19.9392C5.50289 19.9756 5.90895 20.0907 6.13319 20.2847C6.35743 20.4846 6.35743 20.7089 6.32713 20.7999ZM4.32715 21.9149L4.42412 21.6118L4.58169 21.6908L5.73319 21.3573L4.48471 21.9149H4.32715Z" fill="white"/>
<path d="M5.7151 21.1211L4.91511 20.4363C4.91511 20.4484 4.91511 20.4787 4.93329 20.5211C4.95147 20.5818 4.97572 20.6423 4.99996 20.8666C5.02419 21.0909 4.96965 20.9393 4.95147 21C4.92723 21.0605 4.95147 21.0787 4.86057 21.1029C4.76965 21.1333 4.75753 21.2302 4.70299 21.3272C4.6545 21.4059 4.72117 21.4605 4.7636 21.4727C4.84238 21.3878 5.02419 21.1938 5.09087 21.1394C5.16965 21.0726 5.24843 21.1211 5.27269 21.1211C5.29692 21.1211 5.38177 21.0848 5.46662 21.0605C5.53328 21.0363 5.55147 21.0909 5.55753 21.1211H5.7151Z" fill="white"/>
<path d="M8.43677 15.1817L8.09131 14.8787L8.57011 14.5029L10.6912 16.1211L10.6004 16.8362L10.0792 16.5939L9.65496 16.9089L8.31556 16.0119L8.43677 15.1817Z" fill="white"/>
<path d="M8.64209 15.9577L8.68453 15.3638L9.06028 15.6668L8.64209 15.9577ZM9.26025 15.8849L8.73907 16.1637L9.2239 16.5334L9.26025 15.8849ZM9.42386 16.0243L9.49061 16.6485L9.93295 16.3698L9.42386 16.0243Z" fill="white"/>
<path d="M12.242 18.9697C13.8783 18.9697 15.3874 18.4302 16.5995 17.5151C16.5692 17.4364 16.5692 17.3152 16.5631 17.1879C16.5631 17.0546 16.5571 16.9273 16.5207 16.8485C16.4844 16.7576 16.5571 16.7515 16.6297 16.7454C16.7511 16.7333 16.8723 16.7212 16.6177 16.4243C16.6541 16.3031 16.5753 16.2666 16.448 16.2788L16.2298 16.4728C16.2198 16.4198 16.2076 16.3672 16.1935 16.3151C16.1511 16.1637 16.1026 16.1878 15.8783 16.3031C15.5025 16.4909 14.6056 16.9454 12.3753 17.2303C9.53901 17.5878 7.40563 15.503 6.70261 14.4182C6.83594 14.7334 7.29655 15.4666 8.18745 16.4182C7.2951 15.6515 6.63858 14.6473 6.29411 13.5225C5.94964 12.3975 5.93139 11.1979 6.24144 10.0631C6.5515 8.92811 7.17715 7.90452 8.04574 7.11101C8.91433 6.3175 9.99026 5.78668 11.1484 5.58019C12.3066 5.37371 13.4997 5.50005 14.589 5.94452C15.6782 6.38899 16.6191 7.13337 17.3022 8.09119C17.9853 9.04902 18.3827 10.181 18.4482 11.3556C18.5138 12.5303 18.2447 13.6994 17.6722 14.7273C17.7388 14.7637 17.8176 14.7939 17.9146 14.8061C18.0965 14.8303 18.2419 14.594 18.351 14.2667C18.3147 14.5696 18.351 14.8546 18.4115 14.8727C18.4964 14.9031 18.8965 13.8001 18.9206 13.6061C18.9389 13.4849 18.9389 14.1091 18.8419 14.7454C19.5011 13.3176 19.6797 11.7144 19.351 10.1764C19.022 8.6384 18.2035 7.24845 17.0181 6.21496C15.8325 5.18147 14.3439 4.56013 12.7754 4.44413C11.207 4.32813 9.64309 4.72371 8.31845 5.57153C6.9938 6.41936 5.97967 7.67377 5.42814 9.1466C4.87662 10.6196 4.81742 12.2315 5.25942 13.7408C5.70142 15.2503 6.6208 16.5757 7.87971 17.5184C9.13862 18.4611 10.6692 18.9703 12.242 18.9697ZM18.351 14.2727C18.3632 14.1758 18.3874 14.0727 18.4115 13.9818C18.5032 13.6611 18.564 13.3323 18.5934 13C18.5631 13.3454 18.4844 13.8728 18.351 14.2727Z" fill="white"/>
<path d="M7.43619 13.9453C7.28727 14.0087 7.1219 14.0222 6.96465 13.9839C6.80741 13.9457 6.66671 13.8578 6.56348 13.7332C6.73922 14.9454 7.99982 14.9574 8.61194 14.812C9.05477 15.4682 9.67473 15.9852 10.3998 16.3029C10.1998 17.9332 11.2604 18.1574 11.8119 18.0604C11.3211 17.1938 11.6422 16.5938 11.8665 16.3998L8.25437 13.5938C8.16345 13.6423 7.87255 13.7756 7.43619 13.9453Z" fill="white"/>
<path d="M8.24295 13.8181L8.17627 14.4969L8.85505 14.2726L8.23688 13.812L8.24295 13.8181ZM10.8066 16.0485L10.7459 16.7272L11.4247 16.509L10.8066 16.0485Z" fill="white"/>
<path d="M10.6732 12.2545H10.1095L10.249 12.8302H9.67314L9.78231 13.2968H9.25498V13.4121H9.10352V13.6908L9.92768 14.9635L14.455 9.87265L20.861 2.15151L20.6913 2C19.0913 2.93333 17.8185 2.97575 17.3823 2.88484L11.1701 11.1029L10.4672 11.6605L10.6732 12.2545Z" fill="white"/>
<path d="M10.1095 12.2545H10.6732L10.4672 11.6605L11.1701 11.103L12.9519 8.75146C13.4369 8.98176 14.0489 9.34547 13.8914 9.52719C13.6975 9.74539 13.0246 9.58785 12.7156 9.47868L11.9277 10.3878H12.6913C12.7762 10.3757 12.9641 10.3939 12.9641 10.5697C12.9641 10.7999 12.2792 10.9757 11.461 10.9454L12.3034 12.2908L9.92768 14.9635L9.10352 13.6908V13.4121H9.25498V13.2968H9.78231L9.67314 12.8302H10.249L10.1095 12.2545Z" fill="white"/>
<path d="M16.5874 3.93937C16.939 3.86059 17.4359 3.80604 17.7996 3.9515C18.2844 4.14543 18.4965 4.43634 18.4845 5.0121L20.8602 2.15151L20.6905 2C19.0904 2.93333 17.8177 2.97575 17.3814 2.88484L16.5874 3.93937Z" fill="white"/>
<path d="M12.6604 13.9634L12.7513 14.527L12.1696 14.4786L12.2604 15.0543L11.7878 15.024L11.8726 15.5452L11.7634 15.5634L11.7878 15.7209L11.515 15.7634L10.1392 15.1513L14.5512 9.75132L20.8665 2.15137L21.0482 2.29682C20.3937 4.05438 20.5513 5.3271 20.7149 5.75134L13.6968 13.2725L13.2726 14.0725L12.6543 13.9574L12.6604 13.9634Z" fill="white"/>
<path d="M18.3149 5.23013C18.9089 4.75741 19.6179 4.2665 19.7634 4.43014C19.9634 4.65438 20.2482 5.02408 20.2421 6.25437L20.7149 5.75133C20.5513 5.3271 20.3937 4.05438 21.0421 2.29682L20.8665 2.15137L18.3149 5.23013Z" fill="white"/>
<path d="M14.0854 10.6486L19.9036 3.6062C17.7824 6.73345 13.4795 13.0546 13.2976 13.297C13.1097 13.5395 12.8673 13.7212 12.7643 13.7819H12.3704V14.3456H11.8674V14.7576H11.3825V15.2425L10.7461 15.0304L11.2915 14.3456L12.7643 13.4062L12.534 13.1819L13.2976 12.6971L13.0248 12.4304L13.6067 12.0303L13.4249 11.794L14.0915 10.6425L14.0854 10.6486Z" fill="white"/>
<path d="M10.5812 13.4182C10.4297 13.8545 9.70853 14.3151 9.36914 14.4908L9.96902 15.1576L10.5812 15.497C10.5812 14.8363 11.8297 13.8 12.46 13.3636L12.3084 13.1939L13.0357 12.6303L12.7327 12.5273L13.357 12.0546L13.1508 11.9515L14.4235 9.79395L12.6175 11.4787L12.4478 11.2181L12.1267 12.0546L11.9266 11.6909L11.5328 12.6303L11.3146 12.3091L10.7326 13.4182H10.5751H10.5812Z" fill="white"/>
<path d="M10.8179 13.4181L10.418 13.9636L11.0846 13.4181H11.2906L13.533 10.8484L12.5877 11.7636L12.4422 11.6303L12.1876 12.2181H11.9816L11.5876 12.8181L11.3513 12.6969L10.9756 13.4181H10.8179Z" fill="white"/>
</svg>
