<svg width="24" height="24" viewBox="0 0 24 24" fill="none" xmlns="http://www.w3.org/2000/svg">
<path d="M2 10.1438V17.7125C2 18.1437 2.37499 18.8749 3.30624 18.8749C4.23748 18.8749 4.48749 18.1 4.49998 17.7125V10.3688C4.5864 9.59107 4.96487 8.87515 5.5589 8.36581C6.15293 7.85648 6.9182 7.59171 7.69998 7.625C8.46417 7.60035 9.20827 7.87214 9.77673 8.3835C10.3452 8.89487 10.6939 9.60624 10.75 10.3688V17.7125C10.75 18.1437 11.1124 18.8749 12.0125 18.8749C12.9062 18.8749 13.25 18.1624 13.25 17.8561C13.2375 15.4687 13.25 10.6313 13.25 10.3688C13.25 9.8562 13.7499 7.625 16.525 7.625C17.2806 7.60436 18.0145 7.87962 18.5702 8.39212C19.1259 8.90464 19.4594 9.61382 19.5 10.3688V17.7125C19.5 18.2124 19.9249 18.8749 20.8125 18.8749C21.6749 18.8749 21.9875 18.05 22 17.7125V10.1438C22 7.26874 19.3499 5.125 16.525 5.125C15.6644 5.14518 14.8177 5.34652 14.0402 5.7159C13.2627 6.08528 12.5718 6.61439 12.0125 7.26874C11.4859 6.62703 10.8293 6.1042 10.086 5.73468C9.34258 5.36517 8.52945 5.15739 7.69998 5.125C3.49374 5.15625 2 8.5 2 10.1438Z" fill="white"/>
</svg>
