<svg width="24" height="24" viewBox="0 0 24 24" fill="none" xmlns="http://www.w3.org/2000/svg">
<path d="M11.8148 12.816C12.0001 12.4772 12.3178 12.1118 12.6037 11.7465C13.3766 11.7572 13.9008 11.7889 14.6472 11.3919C14.912 11.2543 14.9808 11.2648 15.0602 10.9578C14.1391 10.9578 13.9378 11.0637 13.1861 11.2437C13.6785 10.5342 15.5895 10.0789 15.7061 9.17892C15.0443 9.32715 14.8062 9.43832 14.3508 9.78242L13.2654 10.6614C13.3131 10.3649 13.5195 10.0471 13.6361 9.78242C13.8055 9.3854 13.7578 9.23716 13.869 8.82422C13.5462 8.85599 13.3819 9.21069 13.1808 9.49657C12.2966 10.82 12.6301 11.8948 11.6508 12.4719C11.7143 11.8153 11.9737 11.0742 11.7778 10.3383C11.2219 10.2854 11.1585 11.5401 11.1585 12.2549C11.1585 13.9013 11.1848 13.1019 10.6185 14.2771C10.5761 13.8218 10.6131 12.7684 10.4861 12.4507C10.3325 12.0537 10.449 12.1913 10.1261 12.186C9.89311 12.6201 10.0467 13.8324 10.1472 14.3195C10.2266 14.7325 10.3325 14.8912 10.2266 15.2353C10.179 15.3836 9.97255 15.9184 9.89311 16.0771C9.75019 15.4153 9.38489 14.2401 8.84489 14.3089C8.69136 14.9442 9.41136 16.0877 9.77663 16.3736C9.76612 16.9561 9.60726 17.1253 9.59133 17.8242C9.6867 17.6548 9.71313 17.5647 9.76081 17.3795C9.80318 17.1995 9.84024 16.9824 9.85605 16.7971C10.5601 16.7761 11.9208 16.6278 12.0478 15.6854C11.4655 15.4948 10.4861 16.1618 10.036 16.4107C10.0997 16.056 10.3855 15.2989 10.5761 15.0661C11.1214 15.2037 12.5508 15.1084 12.736 14.3353L10.6661 14.7325L11.3648 13.446C12.1273 13.446 13.6944 13.213 13.8743 12.4772C12.9796 12.3712 12.5243 12.6784 11.8095 12.816H11.8148Z" fill="white"/>
<path d="M12.0212 3C16.9766 3 21 7.09764 21 12.1482C21 17.2411 17.0612 19.8776 14.303 21H14.2871C13.62 20.1529 13.8636 20.3117 14.5624 18.6018C15.0706 17.3576 14.986 17.1829 15.1765 16.6218C15.2506 16.41 15.3936 16.2512 15.4782 16.0923C17.8977 16.0605 18.0883 16.0342 18.0724 15.0335C18.0724 14.3505 18.03 14.5942 18.3159 14.1599C18.1147 13.8423 18.1677 13.7205 18.2366 13.4928C18.3583 13.0958 18.2206 13.1435 18.1306 12.7994C18.4272 12.5347 18.7024 12.5242 18.8823 12.1217C18.6812 11.7934 18.3795 11.6399 18.0777 11.3965C17.5482 10.9624 17.3048 10.6235 17.2942 10.3482C17.2783 9.9776 17.6172 9.71818 17.6223 9.50116C17.6329 9.25234 17.3101 8.86588 17.1566 8.58527L16.6801 7.52646C16.1612 6.24528 15.4518 6.11822 13.9642 5.94881C12.7572 5.80587 12.0159 5.64176 11.3859 5.64704C10.5918 5.65235 9.96711 6.09705 8.79182 7.02352C8.27337 7.42563 7.70806 7.76338 7.10829 8.0294C6.293 8.65411 5.14947 9.61764 5.13889 10.6606C5.123 11.1106 5.12828 11.5553 5.1177 12C5.09123 13.207 5.98594 13.4241 6.12359 13.7258C6.22947 13.9482 6.16594 14.1811 6.30889 14.4988C6.52594 14.9752 6.49946 14.7 6.81182 14.9541C7.08712 15.1658 7.20888 15.8542 7.39947 16.1877C7.78065 16.8547 9.28947 17.2041 9.58058 17.4371C9.53302 18.2576 8.69123 19.687 8.09829 20.3911C6.56213 19.6293 5.27021 18.4522 4.36908 16.9933C3.46795 15.5346 2.99367 13.8524 3.00006 12.1376C3.03713 7.09764 7.06065 3 12.0212 3Z" fill="white"/>
</svg>
