<svg width="24" height="24" viewBox="0 0 24 24" fill="none" xmlns="http://www.w3.org/2000/svg">
<path fill-rule="evenodd" clip-rule="evenodd" d="M4.74072 6.58193L9.93255 4.4001C10.6914 4.09852 12.5366 3.67525 13.8477 4.4001C15.1587 5.12592 15.1287 5.93998 14.9502 6.25611L19.547 7.27623L17.6619 8.28181L13.6305 7.27623L12.1948 7.84302L15.2106 9.50026L12.7311 10.8462L4.74072 6.58193ZM9.41273 6.31913L11.1971 5.58362C11.4204 5.50312 11.9335 5.38968 12.1976 5.58362C12.5275 5.82507 12.3417 6.12761 12.0426 6.31913C11.8036 6.47235 11.0835 6.79913 10.7539 6.94362L9.41273 6.31913Z" fill="white"/>
<path d="M4.24219 7.42383V15.6959L6.18159 16.6932V11.7942L7.56148 15.0074L9.57553 13.2313V18.4993L12.4847 20.0003V11.5945L9.75638 10.3135L7.90911 11.7254L6.18304 8.44153L4.24219 7.42383Z" fill="white"/>
<path d="M19.7581 8.15137L12.9702 11.5114V13.5303L15.3944 12.3594V16.5843L12.9702 17.7722V19.7742L19.7581 16.194V14.2092L17.8187 15.3455V11.1206L19.7581 10.1025V8.15137Z" fill="white"/>
</svg>
