<svg width="24" height="24" viewBox="0 0 24 24" fill="none" xmlns="http://www.w3.org/2000/svg">
<path d="M13.3999 14.7693C12.61 16.6343 11.0899 17.8692 9.24494 18.0542C9.20493 18.0542 8.69493 18.0993 8.41992 18.0792C9.84551 19.0528 11.479 19.6795 13.19 19.9093C13.74 19.9642 14.365 20.0092 14.99 19.9943C15.2149 19.4293 15.34 18.7792 15.305 18.0442C15.2199 16.3342 16.23 15.4542 17.325 15.0042C16.7697 14.1193 16.3436 13.1595 16.06 12.1543C15.205 12.3792 14.12 13.0792 13.4049 14.7693H13.3999Z" fill="white"/>
<path d="M15.2701 18.0303C15.299 18.7032 15.185 19.3747 14.9351 20.0002C16.5551 19.9603 18.2502 19.5003 18.6851 17.7753C18.7751 17.4053 18.785 17.0053 18.6351 16.6602C18.4851 16.3252 18.2001 16.0652 17.9451 15.7953C17.7051 15.5403 17.49 15.2603 17.2951 14.9702C16.2051 15.4202 15.1851 16.3203 15.2701 18.0303Z" fill="white"/>
<path d="M16.0006 11.9653C15.7506 11.3153 15.5406 10.6551 15.2206 10.0452C14.8342 9.35392 14.3453 8.72514 13.7706 8.18022C13.0261 8.19887 12.2877 8.04125 11.6155 7.72021C10.9156 8.69022 10.1256 10.3303 10.8506 12.2002C11.9255 14.9652 9.75059 16.8552 8.35059 18.0253L8.42058 18.0752C8.68058 18.1003 8.94559 18.0953 9.20558 18.0653C11.0556 17.8802 12.6606 16.6152 13.4557 14.7552C14.1756 13.0653 15.2206 12.4253 16.0706 12.2052L16.0006 11.9653Z" fill="white"/>
<path d="M6.86507 8.28418C5.79801 9.477 5.22115 11.029 5.25006 12.6292C5.26734 13.6642 5.5608 14.6757 6.10006 15.5592C8.35007 13.3443 7.54008 10.0392 6.86507 8.28418Z" fill="white"/>
<path d="M10.8904 12.1993C10.1655 10.3244 10.9404 8.69935 11.6304 7.72935C11.1756 7.49975 10.7697 7.18388 10.4354 6.79935C9.75068 6.78532 9.07083 6.91767 8.44137 7.18757C7.81189 7.45747 7.24733 7.85867 6.78542 8.36436C7.44542 10.0844 8.24042 13.3144 6.04541 15.4794C6.64554 16.487 7.44318 17.3629 8.39042 18.0544C9.78542 16.8843 11.9654 14.9644 10.8904 12.2044V12.1993Z" fill="white"/>
<path d="M13.6003 5.73455C15.1203 6.32456 16.1854 6.48457 16.9604 6.45956L16.9803 6.44457C14.1053 1.62455 10.3403 5.41955 10.3403 5.41955L10.3453 5.42956C11.4358 5.2325 12.5593 5.33622 13.5954 5.72956L13.6003 5.73455Z" fill="white"/>
<path d="M13.6202 5.69938C12.3552 5.20937 11.1702 5.22938 10.3452 5.42938C12.5102 9.15439 16.6202 6.66938 16.9552 6.45938C16.1852 6.48438 15.1402 6.28939 13.6202 5.69938Z" fill="white"/>
</svg>
