<svg width="24" height="24" viewBox="0 0 24 24" fill="none" xmlns="http://www.w3.org/2000/svg">
<path d="M7.25287 8.80029C4.78369 8.8511 4.0841 10.8103 4.0293 11.7819L4.4321 11.9051C5.65849 10.2323 7.45767 10.9691 8.25485 11.4195C9.27684 11.9967 11.6972 13.3583 13.2016 14.1862C14.7059 15.0142 16.2679 15.207 16.8607 15.1998C19.248 15.0986 19.8311 12.9959 19.9676 12.0107L19.6407 11.7787C18.8392 13.637 16.5812 12.9895 15.5524 12.4331C14.5031 11.8347 12.0608 10.4563 10.6872 9.72948C9.31364 9.00309 7.82486 8.80749 7.25287 8.80029Z" fill="white"/>
<path d="M19.7523 12.8539C19.4603 11.2852 17.7964 10.8927 17.0015 10.8927C16.3059 10.8528 15.0368 10.948 13.7824 11.4176L12.7876 10.8672C14.4247 9.3464 16.2424 9.01921 17.0015 9.0576C20.3447 9.2736 20.2283 11.6788 19.7523 12.8539Z" fill="white"/>
<path d="M7.02178 14.9781C3.81781 14.8917 3.78301 12.3993 4.16581 11.1641C4.6258 12.7473 6.26179 13.1673 7.02178 13.1793C8.10122 13.1269 9.16521 12.9013 10.173 12.5109L11.2677 13.1201C9.68615 14.6245 7.80217 14.9897 7.02178 14.9781Z" fill="white"/>
</svg>
