<svg width="24" height="24" viewBox="0 0 24 24" fill="none" xmlns="http://www.w3.org/2000/svg">
<path d="M4.84779 7.49996H14.459C15.8585 7.49996 17.0621 8.92868 17.0621 10.3124C17.0621 11.6961 15.8585 13.1248 14.459 13.1248H9.14068C8.74188 13.1248 8.38696 13.2936 8.38696 13.6873C8.38696 14.081 8.74245 14.2499 9.14068 14.2499H14.2025C16.3995 14.2499 18.1872 12.4836 18.1872 10.3124C18.1872 8.14119 16.3995 6.375 14.2025 6.375H4.84835C4.44899 6.375 4.125 6.54374 4.125 6.93748C4.125 7.33123 4.44899 7.49996 4.84779 7.49996Z" fill="white"/>
<path d="M13.9601 3.5625H10.467C10.0834 3.5625 9.75035 3.74812 9.75035 4.12274C9.75035 4.49734 10.0834 4.68746 10.467 4.68746H13.9601C17.0739 4.68746 19.8751 7.39527 19.8751 10.436C19.8751 13.4764 17.0739 15.9372 13.9601 15.9372H5.08739C4.70377 15.9372 4.3916 16.125 4.3916 16.4996C4.3916 16.8744 4.70322 17.0622 5.08739 17.0622H13.9594C17.8417 17.0622 21.0002 14.2255 21.0002 10.436C21.0002 6.64605 17.8417 3.5625 13.9601 3.5625Z" fill="white"/>
<path d="M9.74979 10.3125C9.74979 9.93794 9.50515 9.75 9.12096 9.75H7.57976C7.19614 9.75 6.9374 9.93794 6.9374 10.3125C6.9374 10.6895 7.21639 10.8751 7.47119 10.8751H9.04278C9.53048 10.8751 9.74979 10.7119 9.74979 10.3125ZM7.933 19.3123H3.69579C3.31217 19.3123 3 19.5002 3 19.8747C3 20.2495 3.31217 20.4373 3.69579 20.4373H7.933C8.31661 20.4373 8.62485 20.2495 8.62485 19.8747C8.62485 19.5002 8.31661 19.3123 7.933 19.3123Z" fill="white"/>
</svg>
