<svg width="24" height="24" viewBox="0 0 24 24" fill="none" xmlns="http://www.w3.org/2000/svg">
<path d="M12.9837 13.0003L12.5443 14.1173H11.4325L11.0195 12.979L11.8137 11.2319H11.9302L11.909 12.8731C11.8357 12.8948 11.7727 12.942 11.7316 13.0064C11.6903 13.0706 11.6737 13.1476 11.6846 13.2232C11.6955 13.2988 11.7333 13.368 11.7911 13.4179C11.8488 13.4679 11.9226 13.4954 11.999 13.4954C12.0753 13.4954 12.1491 13.4679 12.2069 13.4179C12.2646 13.368 12.3024 13.2988 12.3134 13.2232C12.3243 13.1476 12.3076 13.0706 12.2665 13.0064C12.2252 12.942 12.1622 12.8948 12.0889 12.8731L12.1102 11.2319H12.2267L12.9837 13.0003Z" fill="white"/>
<path d="M14.7478 15.003H9.25766L9.22589 14.8547C9.21001 14.7753 8.85531 12.9224 9.6441 12.1759C9.94057 11.9111 10.2583 11.6835 10.5971 11.4877C11.0206 11.223 11.3541 11.0111 11.3541 10.7624V10.6141C11.3541 10.3653 11.0206 10.1588 10.5971 9.89416C10.2574 9.69491 9.93822 9.46255 9.6441 9.20059C8.85002 8.45941 9.21001 6.60117 9.22589 6.52176L9.25766 6.37354H14.7478L14.7741 6.52176C14.79 6.60117 15.1447 8.45411 14.3612 9.20059C14.0647 9.46529 13.7418 9.69294 13.403 9.89416C12.9794 10.1588 12.6459 10.3706 12.6459 10.6141V10.7624C12.6459 11.0111 12.9794 11.2177 13.403 11.4824C13.7418 11.6835 14.0647 11.9164 14.3559 12.1759C15.1501 12.9224 14.79 14.7753 14.7794 14.8547L14.7478 15.003ZM9.63879 14.6482H14.3665C14.4564 14.0659 14.5254 12.8747 14.0224 12.3982C13.7471 12.1547 13.4454 11.9429 13.1277 11.7523C12.6354 11.4454 12.2065 11.1753 12.2065 10.7624V10.6141C12.2065 10.2011 12.6301 9.93641 13.1277 9.62413C13.4454 9.43881 13.7471 9.22176 14.0224 8.97823C14.5254 8.50176 14.4564 7.28412 14.3665 6.70706H9.63879C9.54886 7.2894 9.48002 8.50706 9.98294 8.97823C10.2583 9.22176 10.5547 9.43881 10.8724 9.62413C11.3701 9.93123 11.7935 10.2011 11.7935 10.6141V10.7624C11.7935 11.1753 11.3701 11.44 10.8724 11.7523C10.5547 11.9429 10.2583 12.1547 9.98294 12.3982C9.48002 12.8747 9.54886 14.0712 9.63879 14.6482Z" fill="white"/>
<path d="M15.1772 5.64697H8.82422V6.17638H15.1772V5.64697Z" fill="white"/>
<path d="M15.1772 15.1763H8.82422V15.7057H15.1772V15.1763Z" fill="white"/>
<path d="M10.8619 7.765L10.4014 7.03442L10.5231 6.94971L10.6819 7.21441L10.7084 7.14029C10.7237 7.11857 10.7435 7.10048 10.7667 7.08735L10.8461 7.05558C10.8672 7.05558 10.8884 7.05558 10.9096 7.06617C10.9255 7.07147 10.9414 7.08205 10.952 7.09795L11.0049 7.18265L11.1319 7.37853L11.1743 7.45265L11.1849 7.50559C11.1828 7.53021 11.1745 7.55388 11.1606 7.5743C11.1467 7.5947 11.1276 7.61115 11.1055 7.62205C11.0824 7.6397 11.0549 7.6507 11.0261 7.65382C11.0028 7.65282 10.9797 7.64928 10.9573 7.64324L10.9837 7.69617L10.8619 7.77029V7.765ZM10.8831 7.25147C10.8734 7.23491 10.8585 7.22191 10.8407 7.21441C10.8308 7.21132 10.8205 7.21066 10.8104 7.21251C10.8002 7.21435 10.7906 7.21865 10.7826 7.22499C10.7691 7.23165 10.7582 7.24249 10.7516 7.25585C10.7449 7.26922 10.7428 7.28441 10.7455 7.29912C10.7455 7.30441 10.7455 7.315 10.7561 7.32029L10.8831 7.53206C10.8911 7.54394 10.9023 7.55326 10.9155 7.55891C10.9286 7.56453 10.9432 7.56624 10.9573 7.56382L10.989 7.55324C10.9984 7.54784 11.0062 7.54014 11.0117 7.53087C11.0173 7.52162 11.0204 7.51108 11.0207 7.50029C11.0207 7.48442 11.0154 7.46323 11.0049 7.44734L10.8831 7.25147Z" fill="white"/>
<path d="M11.4859 7.62735C11.4925 7.60534 11.5013 7.58405 11.5123 7.56382C11.523 7.54516 11.5374 7.52892 11.5546 7.51618C11.5831 7.49748 11.6159 7.48654 11.6499 7.4844C11.6922 7.47911 11.7346 7.48441 11.7717 7.50029C11.8088 7.51618 11.8405 7.53734 11.8669 7.56382C11.8882 7.59029 11.904 7.61676 11.9146 7.65382C11.9182 7.67306 11.9182 7.69281 11.9146 7.71205L11.8935 7.78088L11.8194 7.97677C11.8125 7.99869 11.8036 8.01995 11.7929 8.0403C11.7819 8.05725 11.7675 8.07167 11.7505 8.08264C11.7243 8.10258 11.6932 8.11534 11.6606 8.1197C11.6182 8.1197 11.5811 8.11441 11.5387 8.09853C11.5028 8.08455 11.4702 8.06288 11.4435 8.035C11.4202 8.00957 11.4037 7.97858 11.3958 7.94499C11.3928 7.92748 11.3928 7.90957 11.3958 7.89206L11.4169 7.81795L11.4859 7.62735ZM11.5387 7.88676C11.5353 7.89515 11.5334 7.90414 11.5334 7.91323C11.5334 7.92231 11.5353 7.93132 11.5387 7.93971C11.5493 7.96087 11.5652 7.97147 11.5864 7.97677C11.6022 7.98735 11.6235 7.98735 11.6393 7.97677C11.6568 7.96806 11.67 7.95285 11.6763 7.9344L11.7611 7.70675C11.7645 7.69838 11.7664 7.68937 11.7664 7.68029C11.7664 7.6712 11.7645 7.66221 11.7611 7.65382C11.7519 7.63671 11.7369 7.62354 11.7187 7.61676C11.7017 7.61071 11.6829 7.61071 11.6659 7.61676C11.657 7.62082 11.6491 7.62669 11.6427 7.63397C11.6364 7.64128 11.6316 7.64984 11.6288 7.6591L11.544 7.88676H11.5387Z" fill="white"/>
<path d="M11.5611 8.79702C11.5421 8.78265 11.5244 8.76671 11.5081 8.74937C11.4923 8.73445 11.4797 8.71643 11.471 8.69643C11.461 8.66568 11.4592 8.63282 11.4657 8.60114C11.4742 8.56155 11.4908 8.52415 11.5146 8.49133C11.5382 8.45853 11.5685 8.431 11.6033 8.41056C11.6328 8.3951 11.6656 8.3878 11.6987 8.38937C11.7199 8.38937 11.7411 8.38937 11.7569 8.39995L11.8205 8.43702L11.9793 8.5588L12.0323 8.60644L12.0694 8.65937C12.08 8.68584 12.08 8.7229 12.0747 8.75467C12.0671 8.79316 12.0508 8.82941 12.027 8.86055C12.0038 8.89396 11.973 8.92123 11.9369 8.93996C11.9076 8.95541 11.8748 8.96272 11.8417 8.96114C11.8218 8.96128 11.802 8.95769 11.7835 8.95056C11.7631 8.93966 11.7437 8.92726 11.7252 8.91349L11.5611 8.79702ZM11.8257 8.8129C11.833 8.81907 11.8414 8.82367 11.8506 8.82639C11.8597 8.82912 11.8693 8.82994 11.8787 8.82879C11.8998 8.82349 11.9158 8.8129 11.9264 8.79702C11.9382 8.78209 11.9439 8.76311 11.9422 8.74409C11.9411 8.73348 11.9376 8.72329 11.9321 8.71414C11.9266 8.70502 11.9192 8.69716 11.9105 8.69114L11.7146 8.55349C11.7074 8.54733 11.6988 8.54273 11.6898 8.54C11.6807 8.53728 11.6711 8.53646 11.6617 8.53761C11.6444 8.54305 11.6293 8.55426 11.6193 8.56938C11.6125 8.57637 11.6071 8.58464 11.6033 8.59372C11.5998 8.60281 11.5979 8.61253 11.5982 8.62231C11.6003 8.63255 11.6047 8.64216 11.6112 8.65042C11.6176 8.65868 11.6258 8.66536 11.6352 8.66997L11.8257 8.8129Z" fill="white"/>
<path d="M11.6719 9.96272L11.963 9.14209L12.1006 9.19503L11.926 9.68206L12.1854 9.48621L12.323 9.53913L12.0743 9.71912L12.1483 10.1321L12.0001 10.0792L11.9683 9.77743L11.873 9.84623L11.8095 10.0051L11.6719 9.96272Z" fill="white"/>
<path d="M8.66406 18.3532V16.2355H9.27289C9.38935 16.2355 9.50582 16.2461 9.617 16.2779C9.70174 16.3045 9.77586 16.3467 9.84466 16.3997C9.90285 16.4474 9.95053 16.5056 9.97696 16.5691C10.0023 16.6331 10.0149 16.7014 10.014 16.7703V16.8444C10.014 16.8974 10.0087 16.945 9.9929 16.9927C9.98253 17.0312 9.96449 17.0671 9.93991 17.0985C9.88704 17.1568 9.80761 17.2044 9.72818 17.2414C9.81292 17.2627 9.88704 17.3155 9.93991 17.3897C9.9929 17.4691 10.0193 17.5645 10.014 17.6544V17.7762C10.014 17.8556 10.0035 17.9351 9.97165 18.0091C9.93991 18.0847 9.89087 18.1516 9.82873 18.205C9.70174 18.3056 9.50582 18.3532 9.23053 18.3532H8.66406ZM9.07701 16.5215V17.1038H9.26758C9.36781 17.1139 9.4681 17.0856 9.54819 17.0244C9.60107 16.9609 9.62763 16.8868 9.62231 16.8074C9.62552 16.7684 9.62009 16.7292 9.60638 16.6926C9.59266 16.6559 9.57093 16.6228 9.54289 16.5956C9.45737 16.5378 9.35442 16.5116 9.2517 16.5215H9.07701ZM9.07701 17.3685V18.0462H9.257C9.32582 18.0462 9.38935 18.0409 9.45289 18.0197C9.49447 18.0055 9.53115 17.9798 9.55882 17.9455C9.58464 17.9137 9.60107 17.8751 9.60638 17.8344C9.61922 17.7395 9.61922 17.6434 9.60638 17.5485C9.59847 17.5107 9.58019 17.4759 9.55351 17.448C9.52228 17.4189 9.48389 17.3988 9.44229 17.3897C9.3818 17.3741 9.31944 17.3671 9.257 17.3685H9.07701ZM10.3793 16.7438C10.3793 16.6698 10.4005 16.5903 10.4429 16.5215C10.4848 16.4567 10.541 16.4024 10.607 16.3627C10.6758 16.3203 10.7499 16.2885 10.8293 16.2674C11.0776 16.2013 11.3419 16.2355 11.5651 16.3627C11.629 16.4036 11.683 16.4577 11.724 16.5215C11.7664 16.5903 11.7875 16.6698 11.7875 16.7438V17.845C11.7875 17.9245 11.7664 18.0038 11.724 18.0674C11.6835 18.1314 11.6293 18.1855 11.5651 18.2262C11.3425 18.3493 11.0814 18.3832 10.8346 18.3214C10.754 18.3026 10.677 18.2704 10.607 18.2262C10.5431 18.1877 10.4887 18.1351 10.4482 18.0727C10.4058 18.0064 10.3836 17.929 10.3846 17.8503V16.7438H10.3793ZM10.8028 17.845C10.8028 17.8768 10.8028 17.9085 10.8188 17.9351C10.8346 17.9614 10.8559 17.9879 10.8876 18.0038C10.9481 18.0382 11.0165 18.0562 11.0862 18.0562C11.1556 18.0562 11.2241 18.0382 11.2846 18.0038C11.3111 17.9879 11.3376 17.9614 11.3482 17.9351C11.3618 17.9071 11.3674 17.8759 11.3641 17.845V16.7438C11.3641 16.7121 11.3641 16.6855 11.3482 16.6538C11.3332 16.6258 11.3113 16.6022 11.2846 16.585C11.2241 16.5507 11.1556 16.5326 11.0862 16.5326C11.0165 16.5326 10.9481 16.5507 10.8876 16.585C10.859 16.6015 10.8352 16.6251 10.8188 16.6538C10.8051 16.6817 10.7995 16.713 10.8028 16.7438V17.845ZM12.0788 16.7438C12.0788 16.6698 12.0999 16.5903 12.1423 16.5215C12.1827 16.4574 12.2369 16.403 12.3012 16.3627C12.4468 16.2815 12.6109 16.239 12.7776 16.239C12.9444 16.239 13.1083 16.2815 13.2541 16.3627C13.3197 16.403 13.3756 16.4573 13.4182 16.5215C13.4605 16.5903 13.4817 16.6698 13.4817 16.7438V17.845C13.4817 17.9245 13.4658 18.0038 13.4182 18.0674C13.3776 18.1314 13.3234 18.1855 13.2594 18.2262C13.0366 18.3493 12.7756 18.3832 12.5287 18.3214C12.4499 18.3021 12.3748 18.27 12.3064 18.2262C12.2401 18.1868 12.1838 18.1324 12.1423 18.0674C12.0998 18.001 12.0777 17.9236 12.0788 17.845V16.7438ZM12.5023 17.845C12.497 17.8768 12.5023 17.9085 12.5182 17.9351C12.534 17.9614 12.5552 17.9879 12.5817 18.0038C12.6423 18.0382 12.7107 18.0562 12.7802 18.0562C12.8498 18.0562 12.9182 18.0382 12.9787 18.0038C13.0053 17.9879 13.0317 17.9614 13.0423 17.9351C13.0563 17.9073 13.0618 17.8759 13.0582 17.845V16.7438C13.0618 16.7129 13.0563 16.6816 13.0423 16.6538C13.0274 16.6258 13.0055 16.6022 12.9787 16.585C12.9182 16.5507 12.8498 16.5326 12.7802 16.5326C12.7107 16.5326 12.6423 16.5507 12.5817 16.585C12.5551 16.6022 12.5332 16.6258 12.5182 16.6538C12.5027 16.6812 12.4952 16.7123 12.497 16.7438V17.845H12.5023ZM15.1282 16.8708C15.0116 16.8021 14.8846 16.765 14.747 16.7544L15.0911 16.2514C15.1759 16.1244 15.0487 15.9814 14.8529 15.9814L14.3288 16.7968V16.2355C14.0958 16.2355 13.9052 16.368 13.9052 16.5373V18.3374C14.1435 18.3374 14.3288 18.205 14.3288 18.0409V17.2203C14.3288 17.1885 14.3394 17.1568 14.3499 17.1303C14.3659 17.1038 14.3869 17.0774 14.4136 17.0614C14.488 17.0202 14.5718 16.9985 14.657 16.9985C14.7422 16.9985 14.826 17.0202 14.9005 17.0614C14.9323 17.0827 14.9535 17.1145 14.9746 17.1462C14.9905 17.1779 14.9959 17.215 14.9905 17.2521V18.0991C14.9905 18.2315 15.1494 18.3427 15.3347 18.3427V17.2521C15.3388 17.1784 15.3222 17.1051 15.287 17.0403C15.2499 16.9708 15.1952 16.9122 15.1282 16.8708Z" fill="white"/>
<path d="M12 21C9.61306 21 7.32386 20.0518 5.63603 18.3639C3.94821 16.6761 3 14.387 3 12C3 9.61306 3.94821 7.32386 5.63603 5.63603C7.32386 3.94821 9.61306 3 12 3C14.387 3 16.6761 3.94821 18.3639 5.63603C20.0518 7.32386 21 9.61306 21 12C21 14.387 20.0518 16.6761 18.3639 18.3639C16.6761 20.0518 14.387 21 12 21ZM12 3.20117C9.66643 3.20117 7.42838 4.12818 5.77828 5.77828C4.12818 7.42838 3.20117 9.66643 3.20117 12C3.20117 14.3336 4.12818 16.5716 5.77828 18.2217C7.42838 19.8718 9.66643 20.7988 12 20.7988C14.3336 20.7988 16.5716 19.8718 18.2217 18.2217C19.8718 16.5716 20.7988 14.3336 20.7988 12C20.7988 9.66643 19.8718 7.42838 18.2217 5.77828C16.5716 4.12818 14.3336 3.20117 12 3.20117Z" fill="white"/>
</svg>
