<svg width="24" height="24" viewBox="0 0 24 24" fill="none" xmlns="http://www.w3.org/2000/svg">
<path d="M3 13.3125C3 13.1634 3.05926 13.0203 3.16474 12.9148C3.27023 12.8093 3.41332 12.75 3.56249 12.75H5.4375C5.58668 12.75 5.72975 12.8093 5.83524 12.9148C5.94073 13.0203 6 13.1634 6 13.3125C6 13.4617 5.94073 13.6047 5.83524 13.7103C5.72975 13.8157 5.58668 13.875 5.4375 13.875H3.56249C3.41332 13.875 3.27023 13.8157 3.16474 13.7103C3.05926 13.6047 3 13.4617 3 13.3125ZM15 10.6875C15 10.5383 15.0593 10.3952 15.1648 10.2897C15.2702 10.1843 15.4133 10.125 15.5625 10.125H20.4375C20.5866 10.125 20.7297 10.1843 20.8352 10.2897C20.9408 10.3952 21 10.5383 21 10.6875V12.1526C21 12.3018 20.9408 12.4449 20.8352 12.5504C20.7297 12.6558 20.5866 12.7152 20.4375 12.7152C20.2883 12.7152 20.1452 12.6558 20.0398 12.5504C19.9342 12.4449 19.875 12.3018 19.875 12.1526V11.25H15.5625C15.4133 11.25 15.2702 11.1907 15.1648 11.0853C15.0593 10.9798 15 10.8367 15 10.6875ZM3 10.6875C3 10.5383 3.05926 10.3952 3.16474 10.2897C3.27023 10.1843 3.41332 10.125 3.56249 10.125H5.4375C5.54249 10.125 5.64562 10.1543 5.73488 10.2101L9.81524 12.75H11.4477C11.5968 12.75 11.7399 12.8093 11.8454 12.9148C11.9509 13.0203 12.0101 13.1634 12.0101 13.3125C12.0101 13.4617 11.9509 13.6047 11.8454 13.7103C11.7399 13.8157 11.5968 13.875 11.4477 13.875H9.65473C9.54961 13.875 9.44658 13.8455 9.35737 13.7899L5.27624 11.25H3.56249C3.41332 11.25 3.27023 11.1907 3.16474 11.0853C3.05926 10.9798 3 10.8367 3 10.6875ZM8.99999 10.6875C8.99999 10.5383 9.05926 10.3952 9.16475 10.2897C9.27024 10.1843 9.41331 10.125 9.56249 10.125H11.6137C11.7113 10.125 11.8069 10.1505 11.8916 10.1985L16.3751 12.75H18.1875C18.3367 12.75 18.4797 12.8093 18.5853 12.9148C18.6907 13.0203 18.75 13.1634 18.75 13.3125C18.75 13.4617 18.6907 13.6047 18.5853 13.7103C18.4797 13.8157 18.3367 13.875 18.1875 13.875H16.2262C16.1287 13.8751 16.0328 13.8497 15.948 13.8015L11.4649 11.25H9.56249C9.41331 11.25 9.27024 11.1907 9.16475 11.0853C9.05926 10.9798 8.99999 10.8367 8.99999 10.6875Z" fill="white"/>
</svg>
