<svg width="24" height="24" viewBox="0 0 24 24" fill="none" xmlns="http://www.w3.org/2000/svg">
<path fill-rule="evenodd" clip-rule="evenodd" d="M8.88885 17.3331H17.3333C17.8402 17.3331 18.3366 17.1886 18.7643 16.9166C19.1921 16.6446 19.5335 16.2562 19.7484 15.7971C19.9634 15.3379 20.043 14.8271 19.978 14.3243C19.9129 13.8215 19.7058 13.3478 19.3812 12.9584C19.5949 12.7178 19.759 12.4372 19.864 12.1331C19.969 11.8288 20.013 11.5068 19.9934 11.1855C19.9736 10.8643 19.8906 10.5502 19.7492 10.261C19.6078 9.97191 19.4105 9.71359 19.169 9.50086C18.9274 9.28815 18.6463 9.12522 18.3417 9.02143C18.037 8.91766 17.7148 8.87507 17.3936 8.89611C17.0724 8.91716 16.7586 9.00142 16.4702 9.14407C16.1815 9.28672 15.924 9.48494 15.7124 9.72736C15.7102 9.73201 15.7077 9.73646 15.7048 9.7407C15.5003 10.034 15.3488 10.634 15.7506 10.9913C16.1462 11.3434 16.7274 11.2016 17.0372 10.9135C17.1085 10.8256 17.2009 10.7572 17.306 10.7149C17.4109 10.6727 17.525 10.6578 17.6373 10.6717C17.7496 10.6856 17.8566 10.7279 17.948 10.7946C18.0394 10.8614 18.1124 10.9503 18.1599 11.0529C18.2077 11.1555 18.2283 11.2687 18.2201 11.3815C18.2119 11.4945 18.1751 11.6035 18.1131 11.6982C18.0512 11.7929 17.9662 11.8703 17.866 11.9231C17.7659 11.9759 17.6539 12.0022 17.5407 11.9998L17.5421 12.0038C17.0363 12.0038 16.4422 12.3518 16.4422 13.1113C16.4422 13.8714 17.0474 14.1811 17.5421 14.2144L17.5417 14.2163H17.5524C17.73 14.2163 17.9003 14.2867 18.026 14.4123C18.1515 14.5379 18.2221 14.7083 18.2221 14.8859C18.2221 15.0636 18.1515 15.234 18.026 15.3595C17.9003 15.4851 17.73 15.5558 17.5524 15.5558C17.4702 15.5558 17.3958 15.5544 17.3284 15.5522L17.3274 15.5558H9.44529L9.44662 15.554C8.66307 15.5787 7.8933 15.3438 7.25705 14.8859C6.62081 14.4278 6.15376 13.7724 5.92858 13.0215C5.7034 12.2706 5.7327 11.4663 6.01194 10.7338C6.29117 10.0013 6.80467 9.38156 7.47256 8.97108C8.14045 8.56059 8.92527 8.38236 9.70494 8.46409C10.4846 8.54582 11.2154 8.88292 11.7837 9.42298C12.3518 9.96305 12.7258 10.6757 12.847 11.4503C12.9683 12.2247 12.8302 13.0176 12.4542 13.7055C12.4421 13.7294 12.4294 13.7529 12.4164 13.7763C12.1177 14.3091 12.1372 14.6775 12.5084 14.9762C13.1572 15.3007 13.7679 14.9505 13.9048 14.7483C14.4046 13.9187 14.6681 12.9683 14.6666 11.9998C14.6666 9.05449 12.2786 6.6665 9.33329 6.6665C6.38798 6.6665 4 9.05449 4 11.9998C4 14.7953 6.1511 17.0886 8.88885 17.3149V17.3331Z" fill="white"/>
</svg>
