<svg width="24" height="24" viewBox="0 0 24 24" fill="none" xmlns="http://www.w3.org/2000/svg">
<path d="M9.75043 15.3746H8.85047L11.8654 8.62495L13.9173 13.1247H13.0173L11.8699 10.8749L9.75043 15.3746ZM14.9253 15.3431L17.4722 11.9998L14.9253 8.62495H15.8252L17.9581 11.3519L17.4722 11.9998L17.9581 12.6073L15.8252 15.3746H14.0253L13.5303 14.2497H14.3987L14.9253 15.3431ZM18.4396 11.9998L17.9581 11.3519L20.1 8.62495H21L18.4396 11.9998ZM18.4396 11.9998L21 15.3746H20.1L17.9581 12.6073L18.4396 11.9998ZM9.30045 11.9998C9.32295 13.7457 7.95951 15.3746 6.15059 15.3746C5.73509 15.3814 5.32249 15.3044 4.93731 15.1485C4.55213 14.9926 4.20223 14.7608 3.90839 14.467C3.61456 14.1732 3.38279 13.8232 3.22686 13.438C3.07093 13.0529 2.99402 12.6403 3.00071 12.2248C2.9866 11.4606 3.18274 10.7072 3.56768 10.0469L4.16167 10.8253C3.92318 11.2574 3.90068 11.6714 3.90068 12.2248C3.90068 12.8215 4.13772 13.3938 4.55966 13.8157C4.9816 14.2377 5.55387 14.4747 6.15059 14.4747C7.57252 14.5062 8.40049 13.2912 8.40049 12.0583C8.40049 10.7534 7.65352 9.52492 6.15059 9.52492C5.6781 9.52492 5.28661 9.67341 4.98064 9.87594L4.29667 9.24593C4.82615 8.83435 5.48001 8.61534 6.15059 8.62495C7.964 8.59346 9.34994 10.2583 9.30045 11.9998Z" fill="white"/>
</svg>
