<svg width="24" height="24" viewBox="0 0 24 24" fill="none" xmlns="http://www.w3.org/2000/svg">
<path fill-rule="evenodd" clip-rule="evenodd" d="M3.96599 15.8001C4.61854 16.2666 5.45574 16.5 6.47752 16.5C7.71398 16.5 8.70138 16.2208 9.43986 15.6625C10.1782 15.0958 10.6977 14.2417 10.9982 13.1C11.1786 12.4001 11.3331 11.6791 11.462 10.9375C11.5049 10.6708 11.5263 10.45 11.5263 10.2751C11.5263 9.69166 11.3761 9.19167 11.0756 8.77501C10.7751 8.34999 10.3629 8.03332 9.83914 7.82499C9.31533 7.60832 8.72288 7.5 8.06171 7.5C5.63175 7.5 4.12482 8.64584 3.54095 10.9375C3.33487 11.7791 3.17602 12.5 3.0644 13.1C3.02147 13.3667 3 13.5917 3 13.775C3 14.65 3.32199 15.3251 3.96599 15.8001ZM8.61555 13.025C8.36894 13.9822 7.68868 14.6052 6.65784 14.6052C5.63805 14.6052 5.28933 13.9156 5.47288 13.025C5.62744 12.2166 5.78201 11.5334 5.93657 10.975C6.20287 9.94123 6.82786 9.39473 7.89426 9.39473C8.90952 9.39473 9.24304 10.0746 9.06635 10.975C8.96327 11.5584 8.81303 12.2416 8.61555 13.025ZM12.5185 16.41C12.5686 16.47 12.6395 16.5 12.7314 16.5H14.4353C14.5188 16.5 14.5982 16.47 14.6733 16.41C14.7484 16.35 14.7944 16.2728 14.8111 16.1786L15.3494 13.6579H17.0829C18.1771 13.6579 19.033 13.1272 19.6595 12.6557C20.2943 12.1842 20.716 11.4558 20.9248 10.47C20.975 10.2385 21 10.0157 21 9.80142C21 9.05571 20.716 8.48573 20.1481 8.09143C19.5884 7.69714 18.8451 7.5 17.918 7.5H14.5856C14.5022 7.5 14.4228 7.52999 14.3475 7.59C14.2725 7.65002 14.2265 7.72713 14.2098 7.82144L12.4809 16.1786C12.4641 16.2644 12.4767 16.3414 12.5185 16.41ZM18.6071 10.4443C18.4511 11.1326 17.8508 11.7631 17.1459 11.7631H15.7052L16.2017 9.39473H17.7051C18.2169 9.39473 18.6448 9.49563 18.6448 10.0586C18.6448 10.17 18.6322 10.2986 18.6071 10.4443Z" fill="white"/>
</svg>
