<svg width="24" height="24" viewBox="0 0 24 24" fill="none" xmlns="http://www.w3.org/2000/svg">
<path d="M7.22867 16.4587C7.11684 16.3274 7.01373 16.189 6.91999 16.0444C6.88131 15.984 6.84011 15.9252 6.79651 15.8682C6.78655 15.8577 6.7761 15.8368 6.76564 15.8264C6.73477 15.7745 6.69395 15.7124 6.66308 15.6501L6.6322 15.5883C6.60134 15.5366 6.57047 15.4739 6.5396 15.4225L6.50874 15.3604C6.47515 15.3046 6.4476 15.2456 6.42658 15.184C6.41612 15.1637 6.40567 15.1324 6.39571 15.1119C6.36484 15.0496 6.34393 14.9973 6.31356 14.9352C6.30311 14.9148 6.29265 14.8938 6.28219 14.8629C6.26228 14.8007 6.23091 14.7385 6.2105 14.6762C6.2105 14.6663 6.20054 14.6453 6.20054 14.6348C6.14776 14.4914 6.09961 14.3463 6.05616 14.1998C6.05616 14.1898 6.0462 14.1789 6.0462 14.1584C6.03623 14.1066 6.01483 14.0548 6.00487 14.0025L5.974 13.8781C5.96404 13.8269 5.95359 13.7851 5.94313 13.7337C5.93318 13.6919 5.92272 13.6401 5.91227 13.5988C5.90231 13.547 5.89186 13.5056 5.8814 13.4534L5.85053 13.298C5.84058 13.2567 5.84058 13.205 5.83012 13.1636C5.82015 13.1119 5.8097 13.0601 5.8097 12.9979C5.79974 12.956 5.79974 12.9147 5.78879 12.8635C5.77883 12.8008 5.77883 12.7489 5.76887 12.6867C5.76887 12.6454 5.75792 12.604 5.75792 12.5622C5.75792 12.49 5.74796 12.4278 5.74796 12.3551C5.74796 12.3242 5.74796 12.2934 5.73801 12.2516C5.73801 12.148 5.72705 12.0444 5.72705 11.9408C5.72705 11.8373 5.72705 11.7436 5.73751 11.6406V11.547C5.73751 11.4744 5.74747 11.4126 5.74747 11.3399C5.74747 11.3091 5.75792 11.2672 5.75792 11.2364C5.76837 11.174 5.76837 11.102 5.77883 11.0392C5.77883 11.0083 5.78879 10.9769 5.78879 10.946C5.79837 10.87 5.80867 10.794 5.81967 10.7181C5.81967 10.6972 5.81967 10.6768 5.82962 10.6663C5.84058 10.5731 5.86099 10.4796 5.8814 10.3864C5.89135 10.3556 5.89135 10.3243 5.90231 10.3038C5.91227 10.2415 5.93318 10.1793 5.94313 10.1171C5.95489 10.0838 5.96177 10.0488 5.96355 10.0135C5.974 9.95134 5.99441 9.89907 6.00487 9.83726C6.01483 9.80636 6.02529 9.76454 6.03575 9.73375C6.05616 9.67149 6.07657 9.60924 6.08703 9.54701C6.09698 9.51613 6.10743 9.49522 6.11789 9.46436L6.2105 9.21541C6.22047 9.18454 6.23091 9.16363 6.24137 9.13277C6.26179 9.07053 6.28219 9.01875 6.31307 8.95652C6.32352 8.92565 6.34393 8.89429 6.35439 8.85295C6.3748 8.80117 6.39571 8.75985 6.42658 8.70807C6.4465 8.6767 6.45746 8.63538 6.47787 8.60451C6.49828 8.55224 6.52915 8.51091 6.54956 8.45913C6.57047 8.42825 6.58043 8.39689 6.60134 8.36602L6.72482 8.14844C6.6322 8.49049 6.59038 8.86341 6.59038 9.25723C6.59038 10.604 7.15648 11.6302 8.27722 12.3242C8.33847 13.5366 8.68847 14.49 9.2844 15.1014L7.22867 16.4587Z" fill="white"/>
<path d="M13.7471 9.20467C14.0967 9.73239 14.3226 10.3961 14.4049 11.1942C14.6927 11.3286 14.9395 11.484 15.1656 11.6603C15.9985 12.3129 16.4203 13.2664 16.4203 14.4783C16.4203 14.6236 16.4098 14.7691 16.3993 14.914V14.904C17.428 12.5693 17.0899 9.36101 15.4219 7.40332L13.7471 9.20467Z" fill="white"/>
<path fill-rule="evenodd" clip-rule="evenodd" d="M12.3052 10.8012C12.3689 10.816 12.4337 10.8305 12.5024 10.8414C14.219 11.1835 16.1932 11.8984 16.1832 14.5308C16.1832 14.9246 16.1419 15.2975 16.0493 15.6291C15.878 15.9338 15.6783 16.2217 15.4528 16.489C14.8569 17.1935 14.1265 17.7118 13.294 18.0225C13.256 18.0339 13.2181 18.0462 13.1805 18.0594C13.143 18.072 13.1054 18.0839 13.0674 18.0951C12.9933 18.1201 12.9186 18.143 12.8444 18.1628V20H9.85708V18.1419C8.99476 17.8367 7.68432 17.0258 7.2178 16.4686V16.3958L9.22324 15.0382C9.49822 15.3219 9.82722 15.5479 10.1907 15.7027C10.5542 15.8576 10.9452 15.9382 11.3403 15.9398C12.7797 15.9398 13.4688 15.1526 13.4688 14.5208C13.4688 13.5077 12.5069 13.3294 11.3897 13.1228L11.3816 13.1218C11.0533 13.07 10.7274 13.0042 10.4047 12.9246C8.61587 12.4894 6.78564 11.7122 6.78564 9.26712C6.78564 8.55167 6.93999 7.92981 7.24868 7.41201C8.585 5.8372 9.52157 5.73911 9.78296 5.71172C9.83616 5.70625 9.86161 5.70326 9.85708 5.69181V4H12.8444V5.72267C13.9417 5.9781 14.7409 6.589 15.4633 7.45333L15.4733 7.51557L13.8182 9.2253L13.7485 9.21037C13.2138 8.41226 12.3789 7.98208 11.3403 7.98208C10.1788 7.98208 9.53098 8.51034 9.53098 9.17352C9.53098 10.234 10.6164 10.4555 12.1225 10.7633L12.1523 10.7692C12.2031 10.7787 12.254 10.7897 12.3052 10.8012Z" fill="white"/>
<path fill-rule="evenodd" clip-rule="evenodd" d="M18.2733 6.34389C17.3262 6.34389 16.9757 6.65259 16.9757 7.64337C16.9757 6.65307 16.6248 6.34389 15.6777 6.34389C16.6248 6.34389 16.9757 6.03521 16.9757 5.04541C16.9757 6.03521 17.3262 6.34389 18.2733 6.34389Z" fill="white"/>
</svg>
