<svg width="24" height="24" viewBox="0 0 24 24" fill="none" xmlns="http://www.w3.org/2000/svg">
<path d="M14.1604 16.2148H2.64795V7.55306C2.64795 4.48308 5.16328 2 8.27203 2H14.1604C18.1268 2.00646 21.3517 5.18609 21.3517 9.10735C21.3517 13.0288 18.1268 16.2148 14.1604 16.2148Z" fill="white"/>
<path d="M8.401 7.68842C4.8795 5.94705 4.59572 4.20567 4.90529 3.10925C4.20643 3.62206 3.63797 4.29205 3.24584 5.0651C2.85371 5.83817 2.6489 6.69262 2.64795 7.55944V16.3759H14.1604C15.8567 16.3759 17.411 15.6278 18.6299 14.6668C18.0301 10.4617 13.2123 10.0618 8.401 7.68842Z" fill="white"/>
<path d="M2.64795 9.50085V18.7946C2.64795 21.168 5.06653 22.7159 7.12394 21.6646L7.80115 21.3164C11.155 19.5751 10.8066 14.5122 7.25293 13.2802C4.70535 12.416 2.64795 11.8355 2.64795 9.50085Z" fill="white"/>
<path d="M9.13672 2.00625C9.97525 2.92854 11.7552 4.0959 15.5992 4.84404C17.5443 5.22442 19.3959 5.98257 21.0492 7.07559C20.5948 5.60459 19.6805 4.3182 18.4406 3.40566C17.2005 2.49312 15.7005 2.00259 14.161 2.00625H9.13672Z" fill="white"/>
</svg>
