<svg width="24" height="24" viewBox="0 0 24 24" fill="none" xmlns="http://www.w3.org/2000/svg">
<path d="M21 18.7551V16.2152L16.781 12.0032H14.25L21 18.7551ZM3 5.63892V8.10815L7.29106 12.6461H9.75L3 5.63892ZM5.25 3H7.71021L11.964 7.203L16.1799 3H18.75L12 9.77572L5.25 3ZM5.25 20.9999H7.70956L11.9634 16.7976L16.1791 20.9999H18.75L12 14.2661L5.25 20.9999Z" fill="white"/>
<path d="M12.0002 13.2897C12.3412 13.2897 12.6681 13.1543 12.9093 12.9132C13.1504 12.672 13.2859 12.345 13.2859 12.0041C13.2859 11.6631 13.1504 11.3359 12.9093 11.0949C12.6681 10.8539 12.3412 10.7183 12.0002 10.7183C11.6592 10.7183 11.3323 10.8539 11.0911 11.0949C10.85 11.3359 10.7146 11.6631 10.7146 12.0041C10.7146 12.345 10.85 12.672 11.0911 12.9132C11.3323 13.1543 11.6592 13.2897 12.0002 13.2897Z" fill="white"/>
</svg>
