<svg width="24" height="24" viewBox="0 0 24 24" fill="none" xmlns="http://www.w3.org/2000/svg">
<path d="M11.9876 14.0995C12.0016 14.0715 12.0332 14.0875 12.0476 14.0995L12.338 17.4984L12.0176 17.8L11.6816 17.4984C11.7776 16.3772 11.9736 14.1272 11.9876 14.0995Z" fill="white"/>
<path d="M11.332 11.6203L11.6381 11.2402L12.0093 12.0282L12.3864 11.2402L12.6925 11.6203L12.0093 13.0915L11.332 11.6203Z" fill="white"/>
<path d="M11.6865 10.8155L12.0145 10.4795L12.3477 10.8155L12.0141 11.4267L11.6865 10.8155Z" fill="white"/>
<path d="M5.75463 11.0756L5.45703 10.2061L11.5027 12.7492L11.8875 13.4212L11.3619 17.2181L10.9019 16.7917L11.6619 13.4212L5.75463 11.0756Z" fill="white"/>
<path d="M18.2459 11.0756L18.5438 10.2061L12.4981 12.7492L12.1133 13.4212L12.639 17.2181L13.0989 16.7917L12.3385 13.4212L18.2459 11.0756Z" fill="white"/>
<path d="M10.3669 10.651L4 6.19971L4.63401 7.93693L10.7461 11.3638L10.3669 10.651Z" fill="white"/>
<path d="M13.6331 10.651L20 6.19971L19.366 7.93693L13.2539 11.3638L13.6331 10.651Z" fill="white"/>
<path d="M5.28873 9.74384L4.81152 8.42188L10.9228 11.7035L11.2992 12.4031L5.28873 9.74384Z" fill="white"/>
<path d="M18.7117 9.74384L19.1889 8.42188L13.0776 11.7035L12.7012 12.4031L18.7117 9.74384Z" fill="white"/>
</svg>
