<svg width="24" height="24" viewBox="0 0 24 24" fill="none" xmlns="http://www.w3.org/2000/svg">
<path d="M18.4666 7.97767L18 6.44434L17.5333 7.97767L16.0001 8.44434L17.5333 8.91101L18 10.4444L18.4666 8.91101L20 8.44434L18.4666 7.97767ZM7.11111 8.55546C7.11111 8.37323 7.2489 8.22212 7.42222 8.22212H9.91111C10.0845 8.22212 10.2222 8.37323 10.2222 8.55546C10.2222 8.73767 10.0845 8.88878 9.91111 8.88878H7.42222C7.2489 8.88878 7.11111 8.73767 7.11111 8.55546ZM12.889 8.55546C12.889 8.37323 13.0266 8.22212 13.2 8.22212H15.689C15.8622 8.22212 16.0001 8.37323 16.0001 8.55546C16.0001 8.73767 15.8622 8.88878 15.689 8.88878H13.2C13.0266 8.88878 12.889 8.73767 12.889 8.55546ZM8.00001 10.2132C8.00001 9.84879 8.29778 9.55546 8.66667 9.55546C9.03557 9.55546 9.33334 9.84879 9.33334 10.2132V12.4532C9.33101 12.6285 9.25974 12.7958 9.13497 12.9188C9.01019 13.042 8.84196 13.111 8.66667 13.111C8.49139 13.111 8.32316 13.042 8.19838 12.9188C8.07361 12.7958 8.00234 12.6285 8.00001 12.4532V10.2132ZM13.7778 10.2132C13.7778 9.84879 14.0756 9.55546 14.4445 9.55546C14.8134 9.55546 15.1111 9.84879 15.1111 10.2132V12.4532C15.1088 12.6285 15.0376 12.7958 14.9127 12.9188C14.7879 13.042 14.6198 13.111 14.4445 13.111C14.2692 13.111 14.1009 13.042 13.9762 12.9188C13.8514 12.7958 13.7802 12.6285 13.7778 12.4532V10.2132ZM6.66667 12.6665C6.66667 13.0202 6.52619 13.3593 6.27615 13.6093C6.0261 13.8595 5.68696 13.9999 5.33334 13.9999C4.97972 13.9999 4.64058 13.8595 4.39053 13.6093C4.14048 13.3593 4 13.0202 4 12.6665C4 12.3129 4.14048 11.9738 4.39053 11.7238C4.64058 11.4737 4.97972 11.3332 5.33334 11.3332C5.68696 11.3332 6.0261 11.4737 6.27615 11.7238C6.52619 11.9738 6.66667 12.3129 6.66667 12.6665ZM17.7778 13.9999C18.1314 13.9999 18.4706 13.8595 18.7206 13.6093C18.9706 13.3593 19.1111 13.0202 19.1111 12.6665C19.1111 12.3129 18.9706 11.9738 18.7206 11.7238C18.4706 11.4737 18.1314 11.3332 17.7778 11.3332C17.4242 11.3332 17.085 11.4737 16.835 11.7238C16.585 11.9738 16.4444 12.3129 16.4444 12.6665C16.4444 13.0202 16.585 13.3593 16.835 13.6093C17.085 13.8595 17.4242 13.9999 17.7778 13.9999ZM14.5778 15.9288C14.7111 16.111 14.6934 16.3866 14.5334 16.5377C14.1334 16.9111 13.04 17.5555 11.4755 17.5555C9.92002 17.5555 8.90667 16.9111 8.55556 16.5111C8.40446 16.3421 8.4089 16.0666 8.55556 15.9021C8.58894 15.8628 8.63048 15.8312 8.6773 15.8095C8.72411 15.7878 8.77508 15.7766 8.82667 15.7766C8.87826 15.7766 8.92924 15.7878 8.97605 15.8095C9.02287 15.8312 9.06441 15.8628 9.09778 15.9021C9.28446 16.1154 10.0845 16.6932 11.4755 16.6932C12.8666 16.6932 13.7867 16.1154 14.0356 15.8799C14.0724 15.8433 14.1168 15.8153 14.1655 15.7976C14.2144 15.78 14.2664 15.7734 14.3181 15.778C14.3697 15.7828 14.4198 15.7986 14.4646 15.8246C14.5095 15.8507 14.5481 15.8862 14.5778 15.9288Z" fill="white"/>
</svg>
