<svg width="24" height="24" viewBox="0 0 24 24" fill="none" xmlns="http://www.w3.org/2000/svg">
<path d="M19.275 7.475L18.75 5.75L18.2249 7.475L16.5001 8L18.2249 8.52501L18.75 10.25L19.275 8.52501L21 8L19.275 7.475ZM6.5 8.12501C6.5 7.92001 6.65501 7.75001 6.85 7.75001H9.65C9.84502 7.75001 9.99996 7.92001 9.99996 8.12501C9.99996 8.33 9.84502 8.5 9.65 8.5H6.85C6.65501 8.5 6.5 8.33 6.5 8.12501ZM13.0001 8.12501C13.0001 7.92001 13.155 7.75001 13.35 7.75001H16.1501C16.345 7.75001 16.5001 7.92001 16.5001 8.12501C16.5001 8.33 16.345 8.5 16.1501 8.5H13.35C13.155 8.5 13.0001 8.33 13.0001 8.12501ZM7.50001 9.99001C7.50001 9.58001 7.83501 9.25001 8.25001 9.25001C8.66501 9.25001 9.00001 9.58001 9.00001 9.99001V12.51C8.99738 12.7072 8.91721 12.8954 8.77684 13.0338C8.63647 13.1723 8.44721 13.25 8.25001 13.25C8.05282 13.25 7.86355 13.1723 7.72318 13.0338C7.58281 12.8954 7.50264 12.7072 7.50001 12.51V9.99001ZM14 9.99001C14 9.58001 14.335 9.25001 14.75 9.25001C15.165 9.25001 15.5 9.58001 15.5 9.99001V12.51C15.4974 12.7072 15.4173 12.8954 15.2768 13.0338C15.1364 13.1723 14.9472 13.25 14.75 13.25C14.5528 13.25 14.3635 13.1723 14.2232 13.0338C14.0829 12.8954 14.0027 12.7072 14 12.51V9.99001ZM6.00001 12.75C6.00001 13.1479 5.84197 13.5294 5.56067 13.8106C5.27937 14.092 4.89783 14.25 4.50001 14.25C4.10219 14.25 3.72065 14.092 3.43934 13.8106C3.15804 13.5294 3 13.1479 3 12.75C3 12.3522 3.15804 11.9707 3.43934 11.6894C3.72065 11.4081 4.10219 11.25 4.50001 11.25C4.89783 11.25 5.27937 11.4081 5.56067 11.6894C5.84197 11.9707 6.00001 12.3522 6.00001 12.75ZM18.5001 14.25C18.8979 14.25 19.2794 14.092 19.5607 13.8106C19.842 13.5294 20 13.1479 20 12.75C20 12.3522 19.842 11.9707 19.5607 11.6894C19.2794 11.4081 18.8979 11.25 18.5001 11.25C18.1023 11.25 17.7206 11.4081 17.4393 11.6894C17.1581 11.9707 16.9999 12.3522 16.9999 12.75C16.9999 13.1479 17.1581 13.5294 17.4393 13.8106C17.7206 14.092 18.1023 14.25 18.5001 14.25ZM14.9 16.42C15.05 16.625 15.03 16.9351 14.85 17.1051C14.4 17.5251 13.17 18.25 11.41 18.25C9.66002 18.25 8.52001 17.5251 8.125 17.0751C7.95501 16.885 7.96001 16.5751 8.125 16.39C8.16256 16.3458 8.20929 16.3102 8.26197 16.2858C8.31463 16.2614 8.37197 16.2488 8.43001 16.2488C8.48805 16.2488 8.5454 16.2614 8.59805 16.2858C8.65073 16.3102 8.69746 16.3458 8.73501 16.39C8.94501 16.63 9.84502 17.28 11.41 17.28C12.975 17.28 14.0101 16.63 14.2901 16.365C14.3315 16.3239 14.3814 16.2924 14.4362 16.2725C14.4912 16.2527 14.5497 16.2452 14.6078 16.2504C14.6659 16.2557 14.7223 16.2736 14.7727 16.3028C14.8232 16.3321 14.8666 16.3721 14.9 16.42Z" fill="white"/>
</svg>
