<svg width="24" height="24" viewBox="0 0 24 24" fill="none" xmlns="http://www.w3.org/2000/svg">
<path d="M8.19922 11.5169L15.3636 8.43506L14.32 16.1828L8.19922 11.5169Z" fill="white"/>
<path d="M8.80701 4.46387L14.5287 6.88886L7.60986 9.56556L8.80701 4.46387Z" fill="white"/>
<path d="M6.86182 12.979L13.0808 17.3502L7.01529 18.9034L6.86182 12.979Z" fill="white"/>
<path d="M16.7638 8.32373L20.9999 12.5598L15.6465 16.4643L16.7638 8.32373Z" fill="white"/>
<path d="M9.29297 19.6593L14.5358 18.3086H14.542L15.4629 20.046L9.29297 19.6593Z" fill="white"/>
<path d="M15.585 17.8463L20.171 14.4819H20.1771L16.4936 19.6021L15.585 17.8463Z" fill="white"/>
<path d="M17.1089 6.85034L18.0053 5.04541L20.4303 10.1717L17.1089 6.85034Z" fill="white"/>
<path d="M16.89 4.18727L11.061 3.9541L15.8742 6.02303L16.89 4.18727Z" fill="white"/>
<path d="M3.17871 10.0933L7.26129 5.01611L5.91067 10.6641L3.17871 10.0933Z" fill="white"/>
<path d="M3 11.0869L5.74422 11.6579H5.73809L5.86087 17.7296L3 11.0869Z" fill="white"/>
</svg>
