<svg width="24" height="24" viewBox="0 0 24 24" fill="none" xmlns="http://www.w3.org/2000/svg">
<path fill-rule="evenodd" clip-rule="evenodd" d="M5.36311 11.3332L4 17.1109L8.15823 14.374H16.8889C17.7018 14.374 18.4825 14.0558 19.0638 13.4874C19.645 12.9191 19.9808 12.1459 19.9992 11.3332H5.36311ZM5.67734 9.99983H20V9.55535C20 8.8481 19.719 8.16982 19.219 7.66972C18.7189 7.16962 18.0406 6.88867 17.3334 6.88867H6.4249V6.94067L6.41156 6.88867L5.67734 9.99983Z" fill="white"/>
<path fill-rule="evenodd" clip-rule="evenodd" d="M5.37157 11.3325L4 17.1103L8.0769 14.4436H16.8889C17.7141 14.4436 18.5053 14.1159 19.0887 13.5324C19.6722 12.949 19.9992 12.1576 19.9992 11.3325H5.37157Z" fill="white"/>
</svg>
