<svg width="24" height="24" viewBox="0 0 24 24" fill="none" xmlns="http://www.w3.org/2000/svg">
<path d="M12.9688 12C14.0065 12 15.1764 11.5605 15.1764 10.4118C15.1764 9.30523 14.054 8.82346 12.9688 8.82346H9.88232V7.76465H13.1329C14.8376 7.76465 16.2352 8.62759 16.2352 10.4118C16.2352 12.1958 14.7688 13.0588 13.1329 13.0588H10.9411V16.7646H9.88232V12H12.9688Z" fill="white"/>
<path fill-rule="evenodd" clip-rule="evenodd" d="M12 21C14.387 21 16.6761 20.0518 18.3639 18.3639C20.0518 16.6761 21 14.387 21 12C21 9.61306 20.0518 7.32386 18.3639 5.63603C16.6761 3.94821 14.387 3 12 3C9.61306 3 7.32386 3.94821 5.63603 5.63603C3.94821 7.32386 3 9.61306 3 12C3 14.387 3.94821 16.6761 5.63603 18.3639C7.32386 20.0518 9.61306 21 12 21ZM12 19.9411C14.1061 19.9411 16.1261 19.1044 17.6153 17.6153C19.1044 16.1261 19.9411 14.1061 19.9411 12C19.9411 9.89385 19.1044 7.87399 17.6153 6.38473C16.1261 4.89547 14.1061 4.05882 12 4.05882C9.89385 4.05882 7.87399 4.89547 6.38473 6.38473C4.89547 7.87399 4.05882 9.89385 4.05882 12C4.05882 14.1061 4.89547 16.1261 6.38473 17.6153C7.87399 19.1044 9.89385 19.9411 12 19.9411Z" fill="white"/>
</svg>
