<svg width="24" height="24" viewBox="0 0 24 24" fill="none" xmlns="http://www.w3.org/2000/svg">
<path d="M10.0959 5.86107L6.31592 11.5263L12.0002 21L17.6843 11.5263L13.9043 5.86107L15.0223 11.5263H16.3534L12.4739 18.6316V11.5263H13.6913L12.0191 3.02369L12.0002 3L11.9812 3.02369L10.3091 11.5263H11.5265V18.6316L7.64224 11.5263H8.97805L10.0959 5.86107Z" fill="white"/>
<path d="M10.0959 5.86107L6.31592 11.5263L12.0002 21L17.6843 11.5263L13.9043 5.86107L15.0223 11.5263H16.3534L12.4739 18.6316V11.5263H13.6913L12.0191 3.02369L12.0002 3L11.9812 3.02369L10.3091 11.5263H11.5265V18.6316L7.64224 11.5263H8.97805L10.0959 5.86107Z" fill="white"/>
</svg>
