<svg width="24" height="24" viewBox="0 0 24 24" fill="none" xmlns="http://www.w3.org/2000/svg">
<path d="M4.01514 11.5C4.27363 7.31498 7.75013 4 12.0001 4V7.99999H15.0001V7.49999H16.5001V8.99998H15.0001V8.49998H12.0001V12H15.5V14.9999H15.0001V15.5H9.00012V14.9999H8.50013V8.99998H9.00012V7.49999H7.50012V8.99998H8.00013V11.5H4.01514Z" fill="white"/>
<path d="M14.9999 16.4999V16H12.5V19.985C16.685 19.7264 20 16.25 20 12H16V14.9999H16.5V16.4999H14.9999ZM7.49999 14.9999H7.99998V12H4C4 16.4185 7.58148 19.9999 11.9999 19.9999V16H8.99998V16.4999H7.49999V14.9999Z" fill="white"/>
</svg>
