<svg width="24" height="24" viewBox="0 0 24 24" fill="none" xmlns="http://www.w3.org/2000/svg">
<path d="M10.2452 10.234H7.17216C5.96531 10.234 4.52884 10.5459 4.31102 11.8942C4.05787 13.4012 5.34127 13.7662 6.60111 13.7662H11.1694C12.6589 13.7662 13.8187 12.1002 14.0306 10.8403L14.119 10.234H12.9651L12.8945 10.6461C12.765 11.4584 12.1115 12.577 11.1637 12.5888H6.70119C6.21257 12.5888 5.41779 12.5535 5.52377 11.8942C5.60619 11.4113 6.57756 11.4113 7.17216 11.4113H9.35045C9.53877 11.0169 9.90376 10.5989 10.2452 10.234ZM10.5396 9.94549C10.9046 9.62763 11.3461 9.35674 11.87 9.19782L12.5177 6.11298H13.6363C13.6363 6.11298 13.4007 7.63185 13.1652 9.05653H14.3132L14.9432 4.93555H11.5403L10.5396 9.94549Z" fill="white"/>
<path d="M15.1557 11.0286L15.291 10.2338H16.492C16.4154 10.587 16.3507 10.9226 16.28 11.2169C15.8856 13.6483 13.7957 16.1209 11.1759 16.1209H6.60754C5.41245 16.1209 4.14672 15.8618 3.20479 15.0436C2.16277 14.131 1.85074 12.83 2.06269 11.5113C2.47478 9.03284 4.82962 7.87897 7.17858 7.87897H8.65626L9.79839 2.58057H17.8872C17.8872 2.58057 17.2868 6.14226 16.7216 9.05639H15.497C15.9209 6.62501 16.4507 3.75799 16.4507 3.75799H10.7109L9.56871 9.05639H7.1727C5.22995 9.05639 3.27544 9.96307 3.14002 12.0764C3.12825 12.2531 3.13414 12.4179 3.14591 12.5828C3.20479 13.195 3.48149 13.766 3.94657 14.1722C4.66478 14.8022 5.66561 14.9435 6.59577 14.9435H11.17C13.2305 14.9435 14.8436 12.9065 15.1557 11.0286Z" fill="white"/>
<path d="M13.1355 15.6677L11.8521 16.121L11.4753 17.8871H10.3567L10.6452 16.121H9.50309L9.05566 19.0646H12.4584L13.1355 15.6677Z" fill="white"/>
<path d="M8.29691 16.1209C7.92603 18.2107 7.54924 20.2418 7.54924 20.2418H13.2892L14.4312 14.9435H16.8273C18.7701 14.9435 20.7247 14.0369 20.86 11.9234C20.8718 11.7467 20.8718 11.5819 20.8541 11.417C20.8006 10.8042 20.5141 10.2353 20.0535 9.82757C19.3352 9.19762 18.3345 9.05633 17.4043 9.05633H12.8241C10.899 9.05633 9.36834 10.8225 8.92095 12.5886H7.74352C8.22627 10.2219 10.269 7.87891 12.8241 7.87891H17.3924C18.5875 7.87891 19.8534 8.13794 20.7953 8.95624C21.8373 9.86878 22.1493 11.1698 21.9373 12.4885C21.5252 14.967 19.1704 16.1209 16.8214 16.1209H15.3556L14.2135 21.4193H6.11279C6.11279 21.4193 6.5661 18.7348 7.05473 16.1209H8.29691Z" fill="white"/>
<path d="M10.1162 12.5888C10.5283 11.4467 11.5586 10.2339 12.8302 10.2339H17.3985C18.6585 10.2339 19.9419 10.5989 19.6946 12.106C19.4708 13.4542 18.0344 13.7661 16.8275 13.7661H15.238L15.8856 12.5888H16.8275C17.4222 12.5888 18.3935 12.5888 18.4759 12.106C18.5819 11.4467 17.7871 11.4113 17.2985 11.4113H12.8302C12.1649 11.4172 11.641 11.9765 11.3466 12.5888H10.1162Z" fill="white"/>
</svg>
