<svg width="24" height="24" viewBox="0 0 24 24" fill="none" xmlns="http://www.w3.org/2000/svg">
<path d="M11.9999 3C9.61305 3 7.32384 3.94819 5.63603 5.63603C3.94819 7.32384 3 9.61305 3 11.9999C3 14.3869 3.94819 16.6761 5.63603 18.3638C7.32384 20.0518 9.61305 21 11.9999 21C14.3869 21 16.6761 20.0518 18.3638 18.3638C20.0518 16.6761 21 14.3869 21 11.9999C21 9.61305 20.0518 7.32384 18.3638 5.63603C16.6761 3.94819 14.3869 3 11.9999 3ZM20.5415 11.6321H19.8136V11.3374L20.5415 11.3289V11.6321ZM20.3536 10.061L19.6337 10.1589L19.5926 9.85625L20.3125 9.75848L20.3536 10.061ZM19.7322 8.13786L19.8626 8.42473L19.1915 8.71891L19.069 8.44104L19.7322 8.13786ZM18.8236 6.76367L19.0284 6.99262L18.48 7.47523L18.2752 7.24629L18.8236 6.76367ZM17.76 5.61787L17.9889 5.82262L17.5147 6.37105L17.2773 6.17417L17.76 5.62631V5.61787ZM16.4831 4.59525L16.7372 4.75892L16.3447 5.37261L16.091 5.20949L16.4831 4.59525ZM15.0353 3.87524L15.33 3.95736L15.1499 4.66049L14.8472 4.57893L15.0353 3.88367V3.87524ZM13.44 3.49106L13.7511 3.51525L13.6852 4.23524L13.3826 4.21105L13.44 3.49106ZM11.8031 3.29418H12.0978V4.03106H11.7952V3.29418H11.8031ZM10.4452 3.49106L10.5027 4.21105L10.2 4.24368L10.1426 3.50681L10.4452 3.49106ZM8.84997 3.87524L9.03841 4.58736L8.74367 4.66893L8.55523 3.95736L8.84997 3.87524ZM7.40211 4.59525L7.80261 5.20893L7.54104 5.37261L7.14842 4.75949L7.40211 4.59525ZM6.13367 5.61787L6.60786 6.16629L6.37892 6.37105L5.90474 5.81417L6.13367 5.61787ZM5.06999 6.75523L5.60999 7.23841L5.41312 7.46736L4.86524 6.9763L5.06212 6.75523H5.06999ZM4.15312 8.1463L4.81686 8.44104L4.69312 8.71891L4.03106 8.41629L4.15368 8.13786L4.15312 8.1463ZM3.58106 9.75848L4.30105 9.85625L4.25156 10.1589L3.53156 10.061L3.57262 9.75848H3.58106ZM3.35212 11.3289H4.07999V11.6399L3.34312 11.6321V11.3289H3.35212ZM3.41737 13.039L4.14524 12.9573L4.16998 13.2678L3.44999 13.3416L3.41737 13.039ZM3.74475 14.5937L4.45631 14.4299L4.52999 14.7168L3.81787 14.88L3.74475 14.5852V14.5937ZM4.53787 16.4426L4.39105 16.1727L5.02105 15.8126L5.1763 16.0747L4.53787 16.4426ZM5.57736 17.7273L5.34786 17.5226L5.85524 16.9909L6.07629 17.2036L5.57736 17.7273ZM6.73891 18.7663L6.49366 18.5863L6.91104 17.9972L7.15629 18.1773L6.73891 18.7663ZM8.09736 19.6747L7.82736 19.5352L8.17047 18.8889L8.44048 19.0284L8.09736 19.6825V19.6747ZM9.60255 20.2472L9.30841 20.2062L9.42261 19.4863L9.72527 19.5352L9.60255 20.2552V20.2472ZM10.92 20.5005V19.7726H11.2226V20.5009L10.92 20.5005ZM4.42312 11.9999C4.51204 10.0502 5.34914 8.20979 6.76034 6.8615C8.17154 5.51318 10.0481 4.76078 11.9999 4.76078C13.9517 4.76078 15.8283 5.51318 17.2395 6.8615C18.6507 8.20979 19.4879 10.0502 19.5768 11.9999C19.4879 13.9497 18.6507 15.7902 17.2395 17.1385C15.8283 18.4867 13.9517 19.2392 11.9999 19.2392C10.0481 19.2392 8.17154 18.4867 6.76034 17.1385C5.34914 15.7902 4.51204 13.9497 4.42312 11.9999ZM12.5974 20.5747H12.5805L12.5152 19.8548L12.8179 19.822H12.8347L12.8999 20.5499L12.5974 20.5747ZM14.2172 20.231L14.0947 19.5189L14.389 19.462L14.5199 20.1821L14.2172 20.231ZM15.7721 19.699L15.5178 19.0121L15.8048 18.9136L16.0499 19.5926L15.7632 19.6994L15.7721 19.699ZM17.1463 18.8563L16.6963 18.2836L16.9336 18.0952L17.3837 18.6684L17.1384 18.8563H17.1463ZM18.3162 17.711L17.7932 17.2036L18.0052 16.9909L18.5289 17.4984L18.3162 17.711ZM19.2737 16.4837L18.6847 16.0499L18.8647 15.8048L19.4536 16.2378L19.2737 16.4837ZM20.051 15.011L19.3636 14.7821L19.4699 14.4952L20.1574 14.7409L20.0504 15.0273L20.051 15.011ZM20.4842 13.3578L19.7484 13.3252L19.7726 13.0147L20.5009 13.0552L20.4842 13.3578Z" fill="white"/>
<path fill-rule="evenodd" clip-rule="evenodd" d="M12.5616 8.06249H11.4365C10.9889 8.06249 10.5598 8.24029 10.2433 8.55675C9.92686 8.87322 9.74901 9.30244 9.74901 9.75002V13.1249C9.74901 13.5725 9.92686 14.0017 10.2433 14.3182C10.5598 14.6348 10.9889 14.8124 11.4365 14.8124H12.5616C13.0091 14.8124 13.4383 14.6348 13.7548 14.3182C14.0712 14.0017 14.2491 13.5725 14.2491 13.1249V9.75002C14.2491 9.30244 14.0712 8.87322 13.7548 8.55675C13.4383 8.24029 13.0091 8.06249 12.5616 8.06249ZM11.4365 7.5C10.8399 7.5 10.2675 7.73705 9.84549 8.159C9.42352 8.58095 9.18652 9.15326 9.18652 9.75002V13.1249C9.18652 13.7217 9.42352 14.294 9.84549 14.716C10.2675 15.138 10.8399 15.375 11.4365 15.375H12.5616C13.1583 15.375 13.7306 15.138 14.1525 14.716C14.5744 14.294 14.8115 13.7217 14.8115 13.1249V9.75002C14.8115 9.15326 14.5744 8.58095 14.1525 8.159C13.7306 7.73705 13.1583 7.5 12.5616 7.5H11.4365Z" fill="white"/>
<path d="M12.6411 13.7592C12.6676 13.7335 12.6991 13.7135 12.7335 13.7C12.7679 13.6866 12.8046 13.68 12.8415 13.6807C12.8784 13.6814 12.9148 13.6894 12.9488 13.7043C12.9824 13.719 13.0132 13.7404 13.0388 13.767L14.6722 15.4658C14.724 15.5195 14.7522 15.5917 14.7508 15.6664C14.7493 15.7409 14.7184 15.8119 14.6645 15.8638C14.6109 15.9155 14.5387 15.9439 14.464 15.9424C14.3895 15.9409 14.3185 15.9099 14.2666 15.8561L12.6332 14.1568C12.6075 14.1302 12.5874 14.0989 12.574 14.0645C12.5605 14.0299 12.5539 13.9933 12.5548 13.9563C12.5555 13.9194 12.5634 13.883 12.5782 13.8492C12.5931 13.8154 12.6144 13.7848 12.6411 13.7592Z" fill="white"/>
</svg>
