<svg width="25" height="24" viewBox="0 0 25 24" fill="none" xmlns="http://www.w3.org/2000/svg">
<path d="M14.6051 13.2935L12.4998 14.5828L10.3945 13.2935V10.7099L12.4998 9.41553L14.6051 10.7099V13.2935Z" fill="white"/>
<path d="M12.5 4L5.76318 8.00253V15.9974L12.5 20L19.2369 15.9974V8.00253L12.5 4ZM9.1316 13.9382V10.0421L12.5 8.12505L15.8685 10.0421V13.9386L12.4751 15.8817L9.1316 13.9382ZM9.1316 16.1841V14.8316L13.6251 17.4662L12.5 18.1377L9.1316 16.1841ZM17.5527 15.0686L14.3755 17.0222L13.2107 16.3255L16.7105 14.3722V9.60758L12.5 7.26358L8.28949 9.60758V15.6261L7.44738 15.0143V8.98527L12.5 5.97137L17.5527 8.93095V15.0686Z" fill="white"/>
</svg>
