<svg width="24" height="24" viewBox="0 0 24 24" fill="none" xmlns="http://www.w3.org/2000/svg">
<path d="M20.1769 9.00146C19.7244 9.00146 19.3591 9.3503 19.3591 9.78646V14.2292C19.3646 14.6598 19.7407 15.0033 20.1877 14.9978C20.3957 14.9995 20.5961 14.9201 20.7466 14.7767C20.8971 14.6333 20.9861 14.437 20.9945 14.2292V9.78646C20.9945 9.3503 20.6293 9.00146 20.1769 9.00146Z" fill="white"/>
<path d="M17.4513 6.82178C16.9989 6.82178 16.6338 7.17065 16.6338 7.59585V16.3832C16.6228 16.8139 16.9825 17.1681 17.4351 17.1791C17.8821 17.1901 18.2582 16.8521 18.2691 16.4214V7.59585C18.2691 7.17065 17.9038 6.82178 17.4513 6.82178Z" fill="white"/>
<path d="M14.7255 3.00537C14.2728 3.00537 13.9077 3.3488 13.9077 3.77944V20.2258C13.9077 20.651 14.2728 20.9944 14.7255 20.9944C15.1779 20.9944 15.543 20.651 15.543 20.2258V3.77944C15.543 3.3488 15.1779 3.00537 14.7255 3.00537Z" fill="white"/>
<path d="M11.9999 7.3667C11.5474 7.3667 11.1821 7.69922 11.1821 8.11351V15.3419C11.1821 15.7507 11.5474 16.0887 11.9999 16.0887C12.4523 16.0887 12.8176 15.7561 12.8176 15.3419V8.11351C12.8176 7.69922 12.4523 7.3667 11.9999 7.3667Z" fill="white"/>
<path d="M9.27443 3.00545C8.82202 3.00545 8.45679 3.34889 8.45679 3.77407V20.2314C8.45679 20.6566 8.82202 21 9.27443 21C9.72698 21 10.0922 20.6566 10.0922 20.2314V3.76863C10.0922 3.34343 9.72698 3.00545 9.27443 3V3.00545Z" fill="white"/>
<path d="M6.5489 5.73193C6.09645 5.73193 5.7312 6.06992 5.7312 6.48421V17.5175C5.7312 17.9318 6.09645 18.2698 6.5489 18.2698C7.00134 18.2698 7.36658 17.9318 7.36658 17.5175V6.48421C7.36658 6.06992 7.00134 5.73193 6.5489 5.73193Z" fill="white"/>
<path d="M3.82305 9.00146C3.3706 9.00146 3.00537 9.3395 3.00537 9.75378V14.251C3.00537 14.6598 3.3706 14.9978 3.82305 14.9978C4.27551 14.9978 4.64073 14.6598 4.64073 14.251V9.75378C4.64073 9.3395 4.27551 9.00146 3.82305 9.00146Z" fill="white"/>
</svg>
