<svg width="24" height="24" viewBox="0 0 24 24" fill="none" xmlns="http://www.w3.org/2000/svg">
<path d="M11.3627 14.0397C12.0308 14.2112 13.4291 14.5698 13.6553 13.6656H13.6497V13.66C13.8807 12.7456 12.537 12.4315 11.8512 12.2713C11.762 12.2504 11.6839 12.2323 11.622 12.2156L11.1775 13.9934C11.2296 14.0056 11.2921 14.0216 11.3627 14.0397Z" fill="white"/>
<path d="M11.948 11.4441C12.4936 11.5885 13.6962 11.9067 13.8999 11.0767C14.111 10.222 12.9344 9.96336 12.3713 9.83957C12.3122 9.82661 12.2598 9.81507 12.2167 9.80444L11.8167 11.41C11.8541 11.4192 11.8983 11.431 11.948 11.4441Z" fill="white"/>
<path fill-rule="evenodd" clip-rule="evenodd" d="M6.50039 6.49941C5.04182 7.95798 4.22241 9.93616 4.22241 11.9989C4.22241 14.0616 5.04182 16.0399 6.50039 17.4985C7.95896 18.957 9.93715 19.7764 11.9999 19.7764C14.0626 19.7764 16.0409 18.957 17.4995 17.4985C18.958 16.0399 19.7774 14.0616 19.7774 11.9989C19.7774 9.93616 18.958 7.95798 17.4995 6.49941C16.0409 5.04085 14.0626 4.22144 11.9999 4.22144C9.93715 4.22144 7.95896 5.04085 6.50039 6.49941ZM13.8779 9.23217C14.8945 9.58216 15.6334 10.1099 15.4889 11.082H15.4834C15.3833 11.7987 14.9889 12.1487 14.4612 12.2598C15.1833 12.6431 15.55 13.2154 15.2001 14.2153C14.7667 15.4597 13.7335 15.5597 12.3668 15.2986L12.0334 16.6319L11.2224 16.4319L11.5558 15.1153L10.9113 14.9486L10.5836 16.2708L9.78355 16.0708L10.1169 14.7375L9.54465 14.5875L8.49472 14.3264L8.89471 13.4099C8.89471 13.4099 9.48917 13.5654 9.47802 13.5487C9.70577 13.6097 9.80584 13.4598 9.84473 13.3654L10.3724 11.2543L10.4614 11.2765L10.378 11.2487L10.7502 9.73771C10.7557 9.57101 10.7003 9.35994 10.378 9.27662C10.3836 9.27106 9.78912 9.13217 9.78912 9.13217L10.0057 8.27109L11.1169 8.54886V8.55442L11.6224 8.67663L11.9557 7.35446L12.7613 7.55446L12.439 8.84885L13.0778 8.99884L13.4001 7.71556L14.2056 7.91555L13.8779 9.23217Z" fill="white"/>
<path d="M2.00024 11.999L2.00581 11.6268L3.83352 10.599C3.76685 10.9769 3.72796 11.3713 3.72242 11.7656L2.02802 12.7657C2.01137 12.5101 2.00024 12.2546 2.00024 11.999ZM2.15579 13.7489C2.21135 14.0656 2.27802 14.3767 2.3669 14.6878L3.90018 13.7824C3.83352 13.4713 3.78907 13.149 3.75574 12.8268L2.15579 13.7489ZM3.04466 16.4433C2.90146 16.1627 2.77169 15.8753 2.65578 15.5822L4.15573 14.7157C4.26128 15.01 4.37794 15.299 4.50571 15.5822L3.0391 16.4433H3.04466ZM3.48909 17.2488C3.65575 17.5266 3.84463 17.7932 4.03906 18.0488L5.50012 17.1933C5.30196 16.9409 5.11834 16.6777 4.95015 16.4044L3.48909 17.2488ZM5.34457 19.4599C5.09459 19.2376 4.86126 19.0099 4.63905 18.7654L6.12232 17.9099C6.35564 18.1432 6.60009 18.3655 6.85563 18.5765L5.34457 19.4599ZM6.11121 20.0821C6.37231 20.271 6.63898 20.4487 6.91119 20.6098L8.56112 19.6432C8.26113 19.4988 7.97226 19.3433 7.69449 19.171L6.11121 20.0821ZM9.24444 21.6153C8.77779 21.4821 8.3278 21.3154 7.89449 21.1154L9.69992 20.0766C10.2166 20.2377 10.7555 20.3432 11.311 20.3987L9.24444 21.6153ZM10.6222 21.9043C12.8265 22.2115 15.0703 21.7745 16.9983 20.6626C18.9262 19.5507 20.4282 17.8274 21.2662 15.7656L18.8664 17.1544L18.4885 17.5766C18.3052 17.7822 18.1108 17.9822 17.9108 18.1711C17.4553 18.6154 16.9108 19.0988 16.4053 19.3932C15.2219 20.0987 13.0665 20.4987 13.0665 20.4987L10.6222 21.9043ZM19.8996 15.3489L21.744 14.2656C21.8384 13.8601 21.9106 13.4378 21.9495 13.0156L20.3662 13.9268C20.2552 14.4211 20.094 14.8989 19.894 15.3544L19.8996 15.3489ZM21.9995 11.7546L20.5663 12.5934C20.586 12.3106 20.5914 12.0268 20.583 11.7435L21.9495 10.9546C21.9774 11.2212 21.9939 11.4824 21.9995 11.7546ZM20.4663 10.5824L21.7606 9.81583C21.7051 9.54906 21.6329 9.28245 21.5496 9.02135L20.2829 9.75464C20.3551 10.0213 20.4163 10.2991 20.4663 10.5824ZM21.1663 7.99361L19.9219 8.72691C19.8107 8.47137 19.6996 8.22694 19.5663 7.9825L20.8107 7.2603C20.9384 7.50474 21.0551 7.74361 21.1663 7.99361ZM18.994 7.07698L20.244 6.33812C20.0996 6.12701 19.9441 5.9159 19.7774 5.71592L18.4996 6.45478C18.6719 6.65477 18.833 6.86031 18.994 7.07698ZM19.0385 4.89372L17.7163 5.67147C17.5109 5.48814 17.2941 5.31592 17.0664 5.15482L18.4496 4.3604C18.6496 4.52706 18.8496 4.71039 19.0385 4.89372ZM16.0442 4.52706L17.5163 3.66043C17.2924 3.51236 17.0626 3.37336 16.8275 3.24377L15.2219 4.15486C15.4997 4.26596 15.7775 4.38818 16.0442 4.52706ZM15.6553 2.6938L13.8331 3.74931C13.3443 3.64376 12.8388 3.58821 12.3221 3.58265L14.5664 2.33825C14.9387 2.43825 15.3053 2.55491 15.6553 2.6938ZM2.11136 10.5047L4.15018 9.33245C4.34301 8.75462 4.5982 8.19952 4.91126 7.67695L2.44468 9.03801C2.29671 9.51782 2.18528 10.0081 2.11136 10.5047ZM12.9276 2.04382C10.8949 1.85291 8.85259 2.28876 7.07492 3.2928C5.29726 4.29682 3.86951 5.82093 2.98355 7.66029L5.98344 5.97146C5.98344 5.97146 7.02229 4.95482 7.82782 4.50484C8.62779 4.05486 10.0277 3.68265 10.0277 3.68265L12.9276 2.04382Z" fill="white"/>
</svg>
