<svg width="24" height="24" viewBox="0 0 24 24" fill="none" xmlns="http://www.w3.org/2000/svg">
<path fill-rule="evenodd" clip-rule="evenodd" d="M12.0004 3.5625C13.897 3.56202 15.7385 4.20055 17.2276 5.37507C18.7168 6.54959 19.7669 8.19156 20.2083 10.0361C20.6498 11.8806 20.4569 13.82 19.6609 15.5415C18.8648 17.2629 17.5119 18.6658 15.8207 19.5242C14.1294 20.3824 12.1982 20.6457 10.3389 20.2719C8.47948 19.8978 6.80035 18.9083 5.57237 17.4628C4.3444 16.0175 3.63922 14.2005 3.57062 12.3051C3.50202 10.4099 4.07398 8.54662 5.19424 7.01624C5.43045 7.25152 5.73125 7.41129 6.05845 7.47526C6.38567 7.53922 6.72448 7.5045 7.03191 7.3755C7.33933 7.24651 7.60149 7.02905 7.78508 6.75075C7.96865 6.47246 8.06538 6.14587 8.06299 5.81249C8.06356 5.5592 8.00711 5.30904 7.89782 5.08055C7.78854 4.85205 7.62921 4.65109 7.43167 4.49256C7.23414 4.33403 7.00344 4.22201 6.75671 4.16479C6.50997 4.10757 6.25352 4.10663 6.00636 4.16203C5.75922 4.21743 5.52771 4.32776 5.32901 4.48485C5.13031 4.6419 4.96952 4.8417 4.85856 5.06938C4.74759 5.29707 4.68929 5.5468 4.68802 5.80009C4.68673 6.05336 4.74247 6.30369 4.85111 6.5325C3.61726 8.14578 2.96537 10.129 3.00142 12.1597C3.03745 14.1904 3.7593 16.1492 5.04964 17.7177C6.33995 19.2862 8.12286 20.3721 10.1085 20.7989C12.0942 21.2258 14.1658 20.9685 15.9868 20.0688C17.8076 19.1691 19.2706 17.6799 20.138 15.8433C21.0054 14.0069 21.2261 11.931 20.7642 9.95312C20.3023 7.97537 19.185 6.21194 17.5938 4.94957C16.0028 3.68719 14.0316 3.00011 12.0004 3V3.5625ZM6.37549 6.9375C6.67386 6.9375 6.96 6.81896 7.17098 6.60798C7.38196 6.397 7.50049 6.11086 7.50049 5.81249C7.50049 5.51413 7.38196 5.22797 7.17098 5.017C6.96 4.80602 6.67386 4.68749 6.37549 4.68749C6.07712 4.68749 5.79097 4.80602 5.58 5.017C5.36902 5.22797 5.25048 5.51413 5.25048 5.81249C5.25048 6.11086 5.36902 6.397 5.58 6.60798C5.79097 6.81896 6.07712 6.9375 6.37549 6.9375ZM12.0004 15.9375C13.0448 15.9375 14.0462 15.5226 14.7847 14.7841C15.5231 14.0458 15.9379 13.0444 15.9379 12C15.9379 10.9557 15.5231 9.95418 14.7847 9.21575C14.0462 8.47733 13.0448 8.06249 12.0004 8.06249C10.9563 8.06249 9.95469 8.47733 9.21625 9.21575C8.47782 9.95418 8.06299 10.9557 8.06299 12C8.06299 13.0444 8.47782 14.0458 9.21625 14.7841C9.95469 15.5226 10.9563 15.9375 12.0004 15.9375Z" fill="white"/>
</svg>
