<svg width="24" height="24" viewBox="0 0 24 24" fill="none" xmlns="http://www.w3.org/2000/svg">
<path d="M17.3907 17.922C18.2055 17.1785 18.8579 16.2746 19.3069 15.2671C19.7558 14.2595 19.9918 13.17 19.9998 12.067C20.0079 10.964 19.788 9.87119 19.3538 8.85716C18.9196 7.84315 18.2806 6.9298 17.4767 6.1744C16.6731 5.41899 15.7218 4.83784 14.6827 4.46741C13.6438 4.09696 12.5395 3.94523 11.439 4.02171C10.3386 4.09819 9.26594 4.40123 8.28818 4.91185C7.31043 5.42246 6.44873 6.12961 5.75716 6.98894H4.00587L6.74789 9.55083C7.04811 9.83605 7.4484 9.9911 7.86372 9.9911H12.6872C13.4178 9.9911 14.0132 10.5115 14.0132 11.2421C14.0132 11.9726 13.2677 12.493 12.5372 12.493H12.0119L14.5086 14.9949C16.1648 14.9949 17.5158 13.4937 17.5158 11.2421V11.172C17.5158 10.0635 17.0759 9.00024 16.2924 8.21591C15.5091 7.43157 14.4463 6.99026 13.3378 6.98894H6.28255C6.96181 6.20442 7.79444 5.5672 8.72918 5.11651C9.66393 4.66581 10.681 4.41117 11.7178 4.36825C12.7547 4.32533 13.7894 4.49506 14.7582 4.86696C15.7269 5.23887 16.6095 5.80509 17.3511 6.53079C18.0929 7.25649 18.6783 8.12633 19.0714 9.08673C19.4643 10.0471 19.6568 11.0779 19.6366 12.1154C19.6164 13.1529 19.384 14.1753 18.9539 15.1197C18.5238 16.0641 17.9051 16.9104 17.1355 17.6068L17.3857 17.922H17.3907ZM6.30757 12.7932L12.9124 19.5483C11.572 19.708 10.2132 19.5083 8.97559 18.9695C7.73792 18.4306 6.66596 17.5721 5.86979 16.482C5.07362 15.3919 4.5819 14.1096 4.44516 12.7665C4.30842 11.4236 4.53156 10.0685 5.09167 8.8403L4.80646 8.49005C4.166 9.80675 3.89893 11.2739 4.03429 12.732C4.16966 14.1899 4.70227 15.5828 5.57421 16.7592C6.44614 17.9356 7.62398 18.8502 8.97957 19.4037C10.3351 19.9572 11.8166 20.1283 13.2627 19.8985L13.3627 19.9936H18.5166L9.66004 10.9919H7.05812C6.13244 10.9919 5.6671 12.1228 6.31757 12.7883L6.30757 12.7932Z" fill="white"/>
</svg>
