<svg width="24" height="24" viewBox="0 0 24 24" fill="none" xmlns="http://www.w3.org/2000/svg">
<path d="M11.9987 3.00146C10.6377 3.00146 8.5117 3.68761 7.63431 4.32314V4.05881C7.08878 4.50312 5.94706 5.48735 5.7221 5.9148V5.38612C5.27217 5.8248 4.36104 7.02275 4.36104 8.29381L4.09108 8.02949C3.77438 8.43933 3.58039 8.9306 3.53161 9.44625C3.48284 9.96187 3.58127 10.4809 3.81549 10.9428L3.26996 10.4141C3.08998 11.3815 2.89314 13.5356 3.54554 14.3849L3.26996 14.1148C3.17997 14.3849 3.10686 15.0148 3.54554 15.4422L3 15.1778C3.36557 16.1452 4.31043 18.1418 5.18217 18.3499H4.63663C4.90659 18.6142 5.56462 19.1485 5.99768 19.1485L5.72772 19.4128C6.81882 19.9414 9.65345 20.9989 12.2687 20.9989C14.8896 20.9989 17.3642 19.9414 18.2697 19.4128H17.9997C18.3597 19.2328 19.1414 18.7773 19.3608 18.3499H18.8152C19.3608 18.0012 20.5588 16.8706 20.9974 15.1778L20.4517 15.4422C20.5418 15.3522 20.7274 15.0148 20.7274 14.3849L20.1818 14.6491C20.7401 13.983 21.0308 13.1331 20.9974 12.2644C20.9974 10.9935 20.8174 10.4985 20.7274 10.4086L20.4517 10.9428C20.5418 10.2342 20.5644 8.66502 19.9063 8.02949V8.55815C19.7263 7.67515 19.1414 5.8023 18.2754 5.38612V5.65046C18.1797 5.29613 17.6679 4.48625 16.363 4.05881V4.32314C15.5419 3.88446 13.5284 3.00146 11.9987 3.00146ZM6.37451 13.9686C6.47012 13.8731 6.76821 13.6874 7.21812 13.6874C7.78054 13.6874 9.18659 13.9686 9.18659 15.0936C9.18659 15.3746 9.01787 15.937 8.34297 15.937C7.49935 15.937 7.49934 15.3746 7.49934 15.0936C7.49934 14.9528 7.57246 14.8123 7.63995 14.6716C7.71306 14.5311 7.78054 14.3904 7.78054 14.2498C7.78054 13.9686 6.93693 13.7156 6.37451 13.9686ZM11.9987 19.874C11.2507 19.3791 9.74898 18.2486 9.74898 17.658C9.74898 16.9213 10.9977 15.937 11.9987 15.937C12.9998 15.937 14.2484 16.9213 14.2484 17.658C14.2484 18.2205 12.8254 19.2667 12.1112 19.7953L11.9987 19.874ZM17.3416 13.6874C17.7916 13.6874 18.0896 13.8731 18.1853 13.9686C17.3585 13.6874 16.7793 13.9686 16.7793 14.2498C16.7793 14.3904 16.8524 14.5311 16.9199 14.6716C16.9929 14.8123 17.0605 14.9528 17.0605 15.0936C17.0605 15.3746 17.0605 15.937 16.2169 15.937C15.5419 15.937 15.3731 15.3746 15.3731 15.0936C15.3731 13.9686 16.7793 13.6874 17.3416 13.6874Z" fill="white"/>
</svg>
