<svg width="24" height="24" viewBox="0 0 24 24" fill="none" xmlns="http://www.w3.org/2000/svg">
<path fill-rule="evenodd" clip-rule="evenodd" d="M5.72057 2.00066C4.73395 2.00066 3.78773 2.39259 3.09008 3.09025C2.39242 3.7879 2.00049 4.73411 2.00049 5.72073V18.28C2.00049 19.2667 2.39242 20.2128 3.09008 20.9105C3.78773 21.6081 4.73395 22 5.72057 22H18.2798C19.2664 22 20.2127 21.6081 20.9103 20.9105C21.608 20.2128 21.9999 19.2667 21.9999 18.28V5.7214C22.0001 5.23277 21.904 4.74888 21.7172 4.29739C21.5303 3.84589 21.2563 3.43563 20.9108 3.09005C20.5653 2.74447 20.1552 2.47032 19.7037 2.28329C19.2524 2.09626 18.7684 2 18.2798 2L5.72057 2.00066ZM10.6651 12C10.6651 12 10.6871 11.9625 10.6651 16.3751V20.0323H13.3414V16.3758C13.3406 15.4585 13.3453 14.5906 13.3494 13.8734C13.3547 12.8351 13.3588 12.1104 13.3414 12.0034C13.9756 11.7732 14.638 11.4667 15.1927 11.2072C15.9909 10.8326 16.7938 10.047 17.1331 9.30697C17.6188 8.24651 17.6536 7.44629 17.2701 6.15162C16.9343 5.01686 16.925 4.6268 17.2233 4.14706C17.3204 3.98984 17.3939 3.90218 17.3786 3.83595C17.3532 3.72621 17.0901 3.67268 16.3061 3.46259C15.6115 3.27659 15.6115 3.27659 15.4877 3.44119C15.0723 3.99183 15.0515 5.01152 15.4322 6.19778C15.851 7.50317 15.7286 8.47266 15.0495 9.2247C14.7451 9.56129 14.1503 9.88835 13.5341 10.0577C12.9232 10.2256 11.1923 10.2276 10.5044 10.061C9.23193 9.75191 8.51196 9.04344 8.35673 7.94542C8.27644 7.37938 8.34001 6.95051 8.63976 6.04256C8.93811 5.13798 8.96419 4.29292 8.71135 3.7309C8.47048 3.19697 8.35138 3.23377 7.63279 3.45591L7.48225 3.50208L6.61111 3.79848L6.8279 4.21263C7.11225 4.75458 7.10221 5.08711 6.77302 6.06597C6.45187 7.02142 6.39365 7.67444 6.56161 8.42849C6.80581 9.52647 7.41334 10.3842 8.39153 11.0132L8.51463 11.0928C9.18103 11.5223 9.69685 11.8542 10.6651 12ZM9.99597 18.0251H6.65058V19.3632H9.99597V18.0251ZM17.3558 18.0251H14.0104V19.3632H17.3558V18.0251ZM9.99597 15.3487H6.65058V16.687H9.99597V15.3487ZM17.3558 15.3487H14.0104V16.687H17.3558V15.3487ZM9.99597 12.6724H6.65058V14.0107H9.99597V12.6724ZM17.3558 12.6724H14.0104V14.0107H17.3558V12.6724ZM10.7018 9.80015C11.1253 9.82357 11.8614 7.51319 11.9999 7.00068C12.0225 7.06291 12.0655 7.21812 12.1223 7.42689C12.3465 8.24449 12.7935 9.8743 13.1005 9.8743C13.1339 9.8743 14.5912 9.11167 14.642 9.06686C14.6547 9.05609 14.2144 8.20904 13.6652 7.18468L12.6255 5.12525H11.3743L10.1218 7.19739L9.12546 9.06873L9.87623 9.43218C10.289 9.63279 10.661 9.79812 10.7018 9.80015Z" fill="white"/>
</svg>
