<svg width="24" height="24" viewBox="0 0 24 24" fill="none" xmlns="http://www.w3.org/2000/svg">
<path d="M21 17.3646C20.3287 16.8636 19.667 16.3479 19.0102 15.8273C18.5286 15.4429 18.0956 15.1122 17.7113 14.8348C16.1852 13.7229 14.651 12.6217 13.1092 11.5316C12.9973 11.4539 12.9146 11.3272 12.866 11.157C12.8611 11.1327 12.866 11.1278 12.8903 11.1425L14.053 11.9257C14.0773 11.9451 14.0968 11.9354 14.1016 11.9013C14.1118 11.839 14.1059 11.775 14.0847 11.7155C14.0633 11.6559 14.0273 11.6026 13.98 11.5608C13.7367 11.3322 13.5033 11.1229 13.2795 10.9284C13.2551 10.909 13.2551 10.8895 13.2795 10.8652L13.7707 10.3786C13.7837 10.3675 13.7933 10.3529 13.7985 10.3365C13.8036 10.3203 13.8041 10.3029 13.8 10.2862L13.7757 10.1694C13.7707 10.1208 13.7854 10.1111 13.8244 10.1208L15.0989 10.5829C15.1427 10.5976 15.1817 10.5879 15.2108 10.5489L15.3373 10.4029C15.3492 10.3901 15.3569 10.3739 15.3595 10.3566C15.3621 10.3392 15.3595 10.3216 15.3519 10.3056C15.0911 9.73411 14.7113 9.22493 14.2378 8.81218C14.2162 8.79541 14.2004 8.77236 14.1926 8.74619C14.1847 8.72004 14.1852 8.69208 14.1941 8.66622L14.6221 7.24568C14.6264 7.23217 14.6266 7.21778 14.6232 7.20407C14.6197 7.19036 14.6127 7.17784 14.6027 7.16785C13.8348 6.35303 12.8372 5.79136 11.7421 5.55758C10.6467 5.31683 9.50325 5.42572 8.47297 5.86893C8.46016 5.87332 8.44926 5.88204 8.44217 5.89357C8.43506 5.90511 8.43219 5.91876 8.43406 5.93218C8.44378 6.19488 8.36107 6.32136 8.1908 6.32136C8.17693 6.32123 8.16323 6.31811 8.15064 6.31224C8.13805 6.30637 8.12687 6.29786 8.11784 6.28731L7.99621 6.15596C7.97189 6.13163 7.94757 6.12677 7.91351 6.14622L7.56811 6.36029C7.53892 6.37488 7.52919 6.3992 7.54378 6.43325L7.66054 6.72514C7.7092 6.84677 7.68 6.88083 7.55838 6.82245L6.02595 6.09272C6.01136 6.08786 5.99676 6.09272 5.98703 6.10732L5.9773 6.12677V6.13163C6.32271 6.33596 6.64378 6.54029 6.94054 6.73489C6.98432 6.76893 6.98919 6.80298 6.95026 6.84191L6.7946 6.99758C6.77208 7.02335 6.74125 7.04037 6.70746 7.0457C6.67366 7.05104 6.63908 7.04434 6.60973 7.02677L4.76108 6.12677C4.55676 6.02948 4.54217 6.04893 4.72217 6.19001L6.18163 7.37217C6.21567 7.40136 6.27893 7.42082 6.37135 7.42569C6.42973 7.43055 6.47351 7.43542 6.50271 7.45002C6.56594 7.46948 6.61947 7.48893 6.6681 7.51326C7.43677 7.91704 8.23946 8.35001 9.07622 8.81218C9.12487 8.84136 9.15405 8.89002 9.15892 8.95812L9.22216 9.40082C9.22216 9.43488 9.24649 9.4592 9.27568 9.47379L10.7935 10.1208C10.8519 10.1451 10.8908 10.189 10.9151 10.2522L10.9492 10.3446C11.0173 10.5586 11.0951 10.69 11.1681 10.7387C11.6209 11.0342 12.0654 11.3424 12.501 11.6629C12.5789 11.7213 12.686 11.8186 12.8173 11.9451C12.9778 12.1009 13.1092 12.2127 13.2065 12.2759L15.6486 13.9445C15.7946 14.0419 16.0038 14.1927 16.2859 14.397C16.6264 14.6403 16.8746 14.8252 17.0497 14.937C17.181 15.0246 17.3124 15.2094 17.4486 15.4916L17.4876 15.5646L17.5022 15.5938C17.5897 15.7689 17.8281 15.8565 18.2173 15.8515H18.2465C18.3535 15.8515 18.4703 15.8905 18.6016 15.9733L21 17.5008V17.3646ZM8.07892 5.95649L8.15676 5.84461C8.16273 5.83715 8.16638 5.8281 8.16724 5.81858C8.16812 5.80907 8.16615 5.79951 8.16163 5.7911L8.08379 5.62569C8.05459 5.56731 8.02541 5.56245 7.98649 5.62569L7.86487 5.83488C7.84541 5.86893 7.85027 5.89326 7.8892 5.91272L8.01568 5.97109C8.03999 5.98569 8.06432 5.98082 8.07892 5.95649ZM7.18379 5.8592L7.2373 6.33109C7.24703 6.40893 7.2227 6.4284 7.15946 6.37488L6.72649 6.03433C6.67783 5.99542 6.68757 5.97109 6.74594 5.94677L7.12053 5.82028C7.15946 5.80568 7.17892 5.82028 7.18379 5.86406V5.8592ZM13.5081 14.9759C13.5178 14.9662 13.5276 14.9662 13.5421 14.9759C14.5006 15.5598 15.493 16.1873 16.5243 16.8391C16.9476 17.1068 17.5849 17.4814 18.4362 17.9582C18.7881 18.1547 19.1383 18.3542 19.487 18.5565L19.5065 18.5322L19.5016 18.5078L16.8746 16.6105C16.8103 16.5566 16.7574 16.4905 16.719 16.4159C16.6508 16.3041 16.5827 16.2214 16.5097 16.1825L15.4978 15.5986C15.206 15.4333 14.8654 15.117 14.4859 14.65L14.2914 14.4116C14.2729 14.388 14.2472 14.371 14.2184 14.3629C14.1539 14.345 14.0891 14.3288 14.0238 14.3143C13.8544 14.2838 13.6925 14.2211 13.547 14.1295C13.3135 13.9495 13.0946 13.7695 12.8854 13.5943C12.7735 13.497 12.5837 13.4095 12.3163 13.3315C12.1166 13.2865 11.9283 13.2022 11.7616 13.0836C11.4654 12.826 11.1798 12.5566 10.9053 12.2759C10.8601 12.2289 10.803 12.1953 10.74 12.1786L9.37784 11.8138C9.25963 11.7823 9.15103 11.7222 9.06162 11.6386C8.17982 10.8141 7.29277 9.99519 6.40054 9.18191C6.23513 9.03109 5.93838 8.82676 5.52 8.57378C5.27676 8.42784 5.09677 8.32082 4.98487 8.24299C4.31352 7.78082 3.67135 7.36731 3.04865 6.99758C3.03406 6.98785 3.02433 6.98785 3.0146 7.00245L3 7.02191V7.02677C3.21892 7.19217 3.51081 7.45002 3.8854 7.79056C4.15298 8.03866 4.3573 8.22352 4.49351 8.33541C4.70757 8.51542 4.98487 8.77812 5.33027 9.12839L5.3546 9.15271C5.36895 9.16603 5.37896 9.18338 5.38329 9.20247C5.38763 9.22156 5.38611 9.24152 5.37892 9.25974L5.33514 9.38135C5.32054 9.43001 5.29135 9.43001 5.25731 9.39595C4.88158 9.03411 4.4921 8.68683 4.08973 8.35488H4.06541C4.05081 8.36461 4.05081 8.37433 4.06541 8.38893L4.18703 8.53488C4.39621 8.76352 4.54703 8.94352 4.63947 9.07001C4.83406 9.32298 5.02865 9.56134 5.22325 9.78519C5.33027 9.90189 5.41298 10.0527 5.47136 10.2375C5.48108 10.2667 5.47135 10.2862 5.44216 10.296L5.13567 10.4078C5.1242 10.4113 5.11374 10.4176 5.10526 10.4261C5.09677 10.4346 5.09051 10.4451 5.08704 10.4565C4.98779 11.1656 5.02953 11.8872 5.20984 12.5802C5.39017 13.2731 5.70553 13.9236 6.13784 14.4943C6.95569 15.5704 8.13952 16.3094 9.4654 16.5716C9.57238 16.596 9.66977 16.5912 9.76218 16.5619C9.85946 16.5279 9.94697 16.4889 10.0346 16.4452L11.1048 15.8711C11.1237 15.8601 11.1455 15.8552 11.1672 15.8569C11.1889 15.8586 11.2096 15.867 11.2265 15.8809L11.9076 16.3672C11.9562 16.3964 11.9757 16.3868 11.9659 16.3284L11.8979 15.949C11.8637 15.7543 11.8784 15.5159 11.9465 15.2289C11.9562 15.1609 11.9951 15.1122 12.0583 15.0829L12.754 14.7813C12.8464 14.7473 12.8854 14.7765 12.8756 14.8689C12.8611 15.0781 12.8756 15.3067 12.9146 15.5598C12.9146 15.5889 12.9146 15.6181 12.9049 15.6472L12.8562 15.7787C12.759 16.017 12.7053 16.2019 12.6908 16.3381L12.6372 16.9025C12.6372 16.9219 12.6421 16.9316 12.6617 16.9316C13.4983 16.9072 14.2671 16.7078 14.9529 16.3381C14.9967 16.3187 14.9967 16.2942 14.9529 16.2699C14.807 16.1825 14.6757 16.0803 14.5735 15.9684C14.2426 15.6201 13.8884 15.295 13.513 14.9955V14.9759H13.5081ZM16.4027 10.6366L15.8336 10.4711C15.8101 10.465 15.7887 10.4528 15.7717 10.4356C15.7545 10.4185 15.7423 10.3972 15.7362 10.3738L15.493 9.6635C15.4541 9.56134 15.4005 9.46893 15.3275 9.39108L14.8216 8.86569C14.8112 8.85492 14.8034 8.84176 14.7992 8.82734C14.795 8.81294 14.7943 8.7977 14.7973 8.78298C14.8946 8.29162 15.0259 7.83434 15.201 7.41109C15.2157 7.37217 15.2351 7.36731 15.2594 7.39649C16.0544 8.27459 16.4752 9.42843 16.4319 10.6121C16.4319 10.6316 16.4221 10.6413 16.4027 10.6366ZM4.84865 9.80948L4.7319 9.88247C4.72772 9.88588 4.72459 9.89053 4.72287 9.89564C4.72116 9.90086 4.72091 9.90631 4.72217 9.91164L4.73676 10.2084C4.73676 10.2425 4.75135 10.2473 4.78055 10.2327L5.04324 10.0964C5.06757 10.0868 5.07244 10.0721 5.05784 10.0527L4.89244 9.81925C4.88271 9.80461 4.86811 9.79972 4.84865 9.80948ZM13.9947 10.4856L15.4394 10.9965C15.459 11.0063 15.4637 11.0208 15.4492 11.0403L14.7194 11.95C14.7098 11.9646 14.6951 11.9646 14.6853 11.95L13.7464 11.0256C13.7367 11.0159 13.7319 11.0063 13.7367 10.9965L13.9606 10.4955C13.9653 10.4808 13.98 10.4808 13.9947 10.4856ZM16.4902 13.5603L16.5389 13.5748C16.7773 13.6673 16.9865 13.7742 17.1713 13.9105C17.2053 13.93 17.2249 13.9252 17.2394 13.8862C17.4373 13.1936 17.4755 12.465 17.3513 11.7555C17.3026 11.4879 17.2492 11.2106 17.181 10.9186C17.1713 10.8895 17.1568 10.8749 17.1227 10.8749L16.0281 10.8652C15.9957 10.8636 15.9636 10.8705 15.9347 10.8851C15.9056 10.8995 15.8809 10.9212 15.8627 10.9478L14.987 12.2078C14.9736 12.2256 14.9644 12.2463 14.9602 12.2683C14.956 12.2902 14.9568 12.3128 14.9627 12.3343L14.987 12.4219C15.055 12.6554 15.1524 12.8112 15.279 12.8889L16.0913 13.3754C16.1741 13.429 16.3054 13.4873 16.4853 13.5603H16.4902ZM18.1686 12.0619C18.1686 12.0473 18.1833 12.0424 18.1978 12.0424L18.2659 12.0619C18.334 12.0813 18.3632 12.1252 18.3438 12.1982L18.334 12.237C18.3146 12.3099 18.2708 12.3343 18.1978 12.3198L18.1346 12.3052C18.1151 12.3003 18.1103 12.2905 18.1151 12.2759L18.1637 12.0619H18.1686ZM17.9886 13.1613L18.2806 12.7722C18.3195 12.7089 18.3049 12.6749 18.2319 12.6749L17.7649 12.6359C17.7162 12.6311 17.6967 12.6505 17.6967 12.6943L17.6919 13.0349C17.6919 13.0641 17.7017 13.0836 17.7259 13.0932L17.9108 13.1809C17.9449 13.1954 17.9692 13.1906 17.9886 13.1613ZM17.5849 13.497C17.5994 13.4582 17.6237 13.4435 17.6627 13.4533L18.441 13.6576C18.48 13.6673 18.4945 13.6868 18.4945 13.7208V14.4943C18.4945 14.543 18.4751 14.5575 18.4313 14.5235C18.3536 14.4554 18.1784 14.4213 17.9108 14.4166H17.7843C17.6432 14.4068 17.507 14.3386 17.3708 14.2073C17.3598 14.1981 17.3519 14.1855 17.3484 14.1716C17.3448 14.1576 17.3459 14.1429 17.3513 14.1295L17.5849 13.497ZM19.3363 13.5798C19.1708 13.4678 19.0443 13.4727 18.9665 13.604C18.947 13.6333 18.9178 13.6429 18.8837 13.6186C18.8697 13.609 18.8537 13.6026 18.8368 13.6C18.82 13.5976 18.8027 13.5989 18.7865 13.604C18.7378 13.6138 18.7378 13.6381 18.7767 13.6721L19.1173 13.9495C19.1464 13.9689 19.1708 13.9641 19.1903 13.9349L19.3556 13.6527C19.3703 13.6235 19.3654 13.5993 19.3363 13.5798ZM19.4336 14.5575C19.4207 14.5385 19.4124 14.517 19.4092 14.4943C19.4043 14.4554 19.4189 14.4359 19.4579 14.4311C19.4821 14.4311 19.5016 14.4359 19.5114 14.4554C19.5406 14.4943 19.5357 14.5332 19.5016 14.5673C19.4773 14.5868 19.4529 14.5868 19.4384 14.5575H19.4336ZM15.3956 14.5673L15.8579 15.1072C15.8579 15.1122 15.8627 15.117 15.8723 15.117L16.7043 15.2824C16.7626 15.2922 16.7676 15.2824 16.7286 15.2386L15.9843 14.5575L15.9698 14.5479L15.4151 14.5235C15.3811 14.5235 15.3713 14.5381 15.3956 14.5673ZM18.5383 15.2192L18.3146 14.7912C18.3 14.7716 18.3049 14.757 18.3292 14.7522L18.8837 14.6111C18.8984 14.6111 18.908 14.6111 18.9129 14.6256L19.3751 15.657C19.3994 15.7057 19.3897 15.7202 19.3411 15.6911L18.5481 15.2289L18.5383 15.2192ZM19.8421 14.9808C19.8421 15.0002 19.8324 15.0149 19.8226 15.0295C19.8054 15.0501 19.7838 15.0667 19.7594 15.0781L19.7157 15.1024C19.6768 15.1219 19.6767 15.1413 19.7108 15.1705L19.8081 15.2435C19.8324 15.263 19.8567 15.263 19.8763 15.2435C19.9541 15.1802 19.9833 15.1072 19.9735 15.0246C19.9707 15.0066 19.9628 14.9897 19.9507 14.9759C19.9386 14.9621 19.9229 14.952 19.9054 14.9468C19.8713 14.9321 19.847 14.9468 19.8421 14.9808ZM12.4622 15.7592L12.219 15.7398C12.1946 15.7398 12.18 15.7251 12.1751 15.6959L12.1508 15.5013C12.1496 15.4917 12.1512 15.482 12.1555 15.4734C12.1599 15.4646 12.1668 15.4574 12.1751 15.4527L12.5157 15.2532C12.574 15.2143 12.5984 15.2339 12.5837 15.3019L12.5157 15.7154C12.5107 15.7446 12.4914 15.7543 12.467 15.7543L12.4622 15.7592ZM16.5147 15.6716L16.646 15.8419L16.6556 15.8468L16.9962 15.983C17.0595 16.0073 17.074 15.9927 17.0302 15.9392L16.8356 15.7057C16.8356 15.7008 16.8307 15.6959 16.8211 15.6959L16.5389 15.6327C16.4902 15.6181 16.4853 15.6327 16.5147 15.6716ZM10.1319 16.9366C10.0491 16.9462 10.0346 16.9219 10.1076 16.8732L11.0563 16.1825C11.0612 16.1789 11.0671 16.1769 11.0733 16.1769C11.0794 16.1769 11.0853 16.1789 11.0903 16.1825C11.3183 16.3037 11.5453 16.427 11.7714 16.5522C11.2508 16.7613 10.701 16.8927 10.1319 16.9413V16.9366ZM14.4324 16.7856L14.5395 16.9851C14.5492 17.0143 14.5492 17.0338 14.5297 17.0581C14.5054 17.0824 14.5249 17.1165 14.5783 17.1603L14.6027 17.17L15.4151 17.3159C15.4492 17.3159 15.459 17.3062 15.4443 17.277L15.3956 17.1895C15.3301 17.0785 15.2855 16.9566 15.2643 16.8295C15.2497 16.6446 15.1476 16.5716 14.9627 16.6154L14.4567 16.7322C14.4276 16.7419 14.4178 16.7565 14.4324 16.7808V16.7856ZM15.78 16.6397C16.1205 16.7565 16.5827 16.9998 17.1568 17.3695C17.186 17.3938 17.2053 17.4181 17.2151 17.457L17.327 17.89C17.3367 17.9289 17.327 17.9435 17.2783 17.9386C16.9476 17.8997 16.6313 17.8754 16.3297 17.8754C16.2456 17.879 16.1636 17.8492 16.1011 17.7927C15.9453 17.6561 15.8289 17.4803 15.764 17.2835C15.6989 17.0868 15.6877 16.8764 15.7314 16.6738C15.7314 16.6446 15.7508 16.6348 15.78 16.6446V16.6397ZM14.2233 17.1895C14.1746 17.2138 14.1016 17.17 14.0578 17.0922C14.019 17.0094 14.0238 16.9268 14.0724 16.8976C14.1211 16.8781 14.1941 16.9219 14.233 17.0046C14.2719 17.0824 14.2671 17.1652 14.2184 17.1895H14.2233ZM15.5903 18.1868L15.2983 17.7489C15.274 17.71 15.279 17.6857 15.3275 17.6711L15.6535 17.5787C15.6778 17.5689 15.6924 17.5787 15.707 17.5981L16.0378 18.1041C16.067 18.1527 16.0524 18.177 15.994 18.1819L15.6389 18.2062C15.6298 18.208 15.6203 18.2071 15.6118 18.2036C15.6031 18.2002 15.5956 18.1942 15.5903 18.1868ZM17.4 18.5175L17.1568 18.1236C17.0983 18.0359 17.0449 18.0359 16.9914 18.1236C16.9086 18.2451 16.894 18.3473 16.9621 18.4252C17.001 18.4738 17.1032 18.5127 17.254 18.5418L17.3708 18.5613C17.4194 18.5759 17.4292 18.5613 17.4 18.5175Z" fill="white"/>
</svg>
