<svg width="24" height="24" viewBox="0 0 24 24" fill="none" xmlns="http://www.w3.org/2000/svg">
<path d="M20 16.7683C19.4033 16.323 18.8151 15.8646 18.2313 15.4019C17.8032 15.0602 17.4183 14.7662 17.0767 14.5196C15.7202 13.5312 14.3565 12.5524 12.986 11.5834C12.8865 11.5143 12.813 11.4018 12.7698 11.2505C12.7654 11.2289 12.7698 11.2245 12.7914 11.2375L13.8249 11.9338C13.8465 11.951 13.8638 11.9423 13.8681 11.9121C13.8771 11.8566 13.8719 11.7998 13.853 11.7469C13.8341 11.6939 13.8021 11.6466 13.76 11.6094C13.5438 11.4062 13.3362 11.2202 13.1374 11.0472C13.1157 11.03 13.1157 11.0126 13.1374 10.991L13.574 10.5586C13.5855 10.5486 13.5941 10.5357 13.5986 10.5211C13.6032 10.5067 13.6037 10.4912 13.6 10.4764L13.5784 10.3726C13.574 10.3294 13.587 10.3208 13.6217 10.3294L14.7546 10.7402C14.7935 10.7532 14.8282 10.7446 14.8541 10.7099L14.9665 10.5802C14.977 10.5687 14.9839 10.5543 14.9862 10.539C14.9886 10.5235 14.9862 10.5079 14.9794 10.4937C14.7477 9.98566 14.4101 9.53306 13.9891 9.16616C13.97 9.15126 13.9559 9.13077 13.949 9.10751C13.942 9.08427 13.9424 9.05941 13.9503 9.03643L14.3308 7.77372C14.3346 7.76171 14.3348 7.74892 14.3318 7.73673C14.3286 7.72455 14.3224 7.71342 14.3135 7.70454C13.631 6.98025 12.7442 6.48099 11.7708 6.27319C10.797 6.05919 9.78066 6.15598 8.86486 6.54995C8.85347 6.55384 8.84378 6.56159 8.83748 6.57184C8.83116 6.58211 8.82862 6.59423 8.83027 6.60616C8.83892 6.83967 8.7654 6.95211 8.61405 6.95211C8.60171 6.95199 8.58954 6.94922 8.57834 6.94399C8.56715 6.93878 8.55722 6.93122 8.54919 6.92183L8.44108 6.80508C8.41946 6.78346 8.39784 6.77913 8.36757 6.79643L8.06054 6.98671C8.0346 6.99967 8.02594 7.0213 8.03892 7.05156L8.1427 7.31102C8.18595 7.41914 8.16 7.44941 8.0519 7.39751L6.68974 6.74887C6.67676 6.74455 6.66378 6.74887 6.65514 6.76184L6.64649 6.77913V6.78346C6.95352 6.96508 7.23891 7.14671 7.5027 7.31968C7.54162 7.34995 7.54594 7.38021 7.51134 7.41481L7.37298 7.55319C7.35296 7.57609 7.32555 7.59123 7.29552 7.59596C7.26548 7.60071 7.23474 7.59475 7.20865 7.57914L5.56541 6.77913C5.38378 6.69265 5.37082 6.70995 5.53082 6.83535L6.82811 7.88615C6.85838 7.91211 6.9146 7.9294 6.99675 7.93373C7.04865 7.93805 7.08757 7.94238 7.11352 7.95535C7.16973 7.97265 7.2173 7.98995 7.26054 8.01157C7.94379 8.37048 8.6573 8.75535 9.40108 9.16616C9.44433 9.19211 9.47026 9.23535 9.47459 9.29589L9.53081 9.6894C9.53081 9.71967 9.55243 9.74129 9.57838 9.75427L10.9276 10.3294C10.9794 10.351 11.0141 10.39 11.0357 10.4462L11.0659 10.5283C11.1265 10.7186 11.1957 10.8354 11.2606 10.8786C11.663 11.1413 12.0582 11.4153 12.4454 11.7002C12.5146 11.7521 12.6098 11.8386 12.7265 11.951C12.8691 12.0895 12.986 12.1888 13.0725 12.245L15.2432 13.7283C15.373 13.8148 15.559 13.9488 15.8097 14.1305C16.1124 14.3467 16.333 14.5111 16.4886 14.6104C16.6054 14.6883 16.7222 14.8526 16.8432 15.1034L16.8778 15.1683L16.8909 15.1943C16.9686 15.3499 17.1806 15.4278 17.5265 15.4234H17.5525C17.6476 15.4234 17.7514 15.458 17.8681 15.5316L20 16.8894V16.7683ZM8.51459 6.62778L8.58378 6.52832C8.5891 6.5217 8.59234 6.51365 8.5931 6.50519C8.59388 6.49673 8.59214 6.48823 8.58811 6.48076L8.51892 6.33373C8.49297 6.28183 8.46703 6.27751 8.43243 6.33373L8.32433 6.51967C8.30703 6.54995 8.31135 6.57157 8.34595 6.58887L8.45838 6.64075C8.47999 6.65373 8.50162 6.6494 8.51459 6.62778ZM7.71892 6.5413L7.76649 6.96075C7.77514 7.02995 7.75351 7.04725 7.6973 6.99967L7.31243 6.69697C7.26918 6.66238 7.27784 6.64075 7.32973 6.61914L7.6627 6.5067C7.6973 6.49372 7.71459 6.5067 7.71892 6.54562V6.5413ZM13.3406 14.6451C13.3492 14.6364 13.3578 14.6364 13.3708 14.6451C14.2227 15.164 15.1049 15.7219 16.0216 16.3012C16.3978 16.5391 16.9643 16.8722 17.721 17.2959C18.0338 17.4706 18.3452 17.6479 18.6551 17.8278L18.6725 17.8062L18.6681 17.7845L16.333 16.098C16.2758 16.0501 16.2288 15.9914 16.1946 15.925C16.1341 15.8256 16.0735 15.7522 16.0086 15.7175L15.1091 15.1986C14.8498 15.0516 14.547 14.7705 14.2097 14.3554L14.0368 14.1435C14.0203 14.1225 13.9975 14.1074 13.9719 14.1002C13.9146 14.0843 13.857 14.0699 13.799 14.057C13.6484 14.0299 13.5045 13.9741 13.3751 13.8927C13.1676 13.7326 12.973 13.5726 12.787 13.417C12.6875 13.3305 12.5189 13.2527 12.2811 13.1834C12.1037 13.1434 11.9362 13.0684 11.7881 12.963C11.5248 12.734 11.271 12.4946 11.027 12.245C10.9868 12.2033 10.936 12.1734 10.88 12.1586L9.66919 11.8342C9.56412 11.8062 9.46758 11.7528 9.3881 11.6786C8.60429 10.9456 7.81579 10.2177 7.0227 9.49481C6.87567 9.36075 6.6119 9.17913 6.24 8.95426C6.02378 8.82453 5.86379 8.7294 5.76433 8.66022C5.16758 8.2494 4.59676 7.88183 4.04325 7.55319C4.03027 7.54454 4.02162 7.54454 4.01298 7.55751L4 7.57481V7.57914C4.1946 7.72615 4.45406 7.95535 4.78702 8.25806C5.02487 8.47859 5.20649 8.64291 5.32757 8.74237C5.51784 8.90238 5.76433 9.13589 6.07135 9.44724L6.09298 9.46886C6.10574 9.4807 6.11463 9.49612 6.11848 9.51309C6.12234 9.53006 6.12098 9.5478 6.1146 9.56399L6.07568 9.6721C6.0627 9.71535 6.03676 9.71535 6.0065 9.68507C5.67251 9.36343 5.32631 9.05475 4.96865 8.75967H4.94703C4.93406 8.76832 4.93406 8.77697 4.94703 8.78995L5.05514 8.91967C5.24108 9.12291 5.37514 9.28291 5.4573 9.39535C5.63027 9.62021 5.80325 9.83209 5.97622 10.0311C6.07135 10.1348 6.14487 10.2689 6.19676 10.4331C6.20541 10.459 6.19676 10.4764 6.17081 10.4851L5.89838 10.5845C5.88818 10.5876 5.87888 10.5932 5.87134 10.6007C5.8638 10.6083 5.85823 10.6176 5.85514 10.6278C5.76693 11.2581 5.80402 11.8995 5.9643 12.5155C6.1246 13.1315 6.40492 13.7096 6.78919 14.217C7.51617 15.1735 8.56846 15.8303 9.74702 16.0634C9.84212 16.0851 9.92869 16.0808 10.0108 16.0548C10.0973 16.0246 10.1751 15.9899 10.253 15.9511L11.2042 15.4407C11.221 15.431 11.2404 15.4267 11.2598 15.4282C11.279 15.4297 11.2974 15.4371 11.3125 15.4495L11.9178 15.8818C11.961 15.9077 11.9784 15.8991 11.9697 15.8472L11.9092 15.51C11.8789 15.337 11.8919 15.1251 11.9525 14.8699C11.961 14.8095 11.9957 14.7662 12.0518 14.7402L12.6702 14.4721C12.7524 14.4419 12.787 14.4678 12.7783 14.5499C12.7654 14.7359 12.7783 14.939 12.813 15.164C12.813 15.1899 12.813 15.2158 12.8044 15.2418L12.761 15.3586C12.6746 15.5705 12.627 15.7348 12.6141 15.8558L12.5664 16.3575C12.5664 16.3748 12.5708 16.3834 12.5882 16.3834C13.3318 16.3618 14.0152 16.1845 14.6248 15.8558C14.6638 15.8386 14.6638 15.8169 14.6248 15.7953C14.4951 15.7175 14.3784 15.6267 14.2876 15.5272C13.9934 15.2177 13.6786 14.9286 13.3449 14.6624V14.6451H13.3406ZM15.9135 10.7878L15.4076 10.6407C15.3867 10.6354 15.3678 10.6245 15.3526 10.6092C15.3374 10.594 15.3265 10.575 15.321 10.5543L15.1049 9.9229C15.0703 9.83209 15.0226 9.74995 14.9578 9.68075L14.5081 9.21373C14.4988 9.20415 14.4919 9.19246 14.4882 9.17964C14.4845 9.16684 14.4838 9.1533 14.4865 9.14021C14.573 8.70345 14.6897 8.29697 14.8454 7.92075C14.8584 7.88615 14.8757 7.88183 14.8973 7.90778C15.6039 8.68831 15.9779 9.71395 15.9394 10.7661C15.9394 10.7835 15.9308 10.7921 15.9135 10.7878ZM5.64325 10.0527L5.53946 10.1175C5.53575 10.1206 5.53297 10.1247 5.53144 10.1292C5.52992 10.1339 5.5297 10.1387 5.53082 10.1435L5.54378 10.4072C5.54378 10.4375 5.55676 10.4418 5.58271 10.4288L5.81622 10.3077C5.83784 10.2992 5.84217 10.2861 5.82919 10.2689L5.68217 10.0613C5.67352 10.0483 5.66054 10.044 5.64325 10.0527ZM13.773 10.6537L15.0573 11.1078C15.0746 11.1165 15.0789 11.1294 15.0659 11.1467L14.4173 11.9554C14.4087 11.9683 14.3957 11.9683 14.387 11.9554L13.5524 11.1337C13.5438 11.125 13.5394 11.1165 13.5438 11.1078L13.7427 10.6624C13.747 10.6494 13.76 10.6494 13.773 10.6537ZM15.9913 13.3867L16.0346 13.3996C16.2465 13.4819 16.4325 13.5769 16.5967 13.698C16.627 13.7154 16.6443 13.7111 16.6573 13.6764C16.8331 13.0607 16.8671 12.4131 16.7567 11.7824C16.7134 11.5446 16.6659 11.2981 16.6054 11.0386C16.5967 11.0127 16.5838 10.9997 16.5535 10.9997L15.5806 10.991C15.5518 10.9897 15.5232 10.9958 15.4975 11.0087C15.4717 11.0215 15.4497 11.0408 15.4335 11.0645L14.6551 12.1845C14.6432 12.2003 14.635 12.2187 14.6313 12.2382C14.6275 12.2578 14.6282 12.2779 14.6335 12.297L14.6551 12.3748C14.7156 12.5823 14.8022 12.7208 14.9146 12.7899L15.6367 13.2223C15.7103 13.27 15.827 13.3219 15.987 13.3867H15.9913ZM17.4832 12.0548C17.4832 12.0419 17.4962 12.0375 17.5092 12.0375L17.5697 12.0548C17.6302 12.0721 17.6562 12.111 17.639 12.1759L17.6302 12.2105C17.613 12.2753 17.5741 12.297 17.5092 12.284L17.453 12.271C17.4357 12.2667 17.4314 12.258 17.4357 12.245L17.4789 12.0548H17.4832ZM17.3232 13.0321L17.5827 12.6862C17.6174 12.6299 17.6043 12.5997 17.5394 12.5997L17.1243 12.5651C17.081 12.5607 17.0638 12.578 17.0638 12.617L17.0594 12.9197C17.0594 12.9456 17.0682 12.963 17.0897 12.9715L17.2541 13.0494C17.2843 13.0623 17.3059 13.0581 17.3232 13.0321ZM16.9643 13.3305C16.9773 13.2959 16.9989 13.2829 17.0335 13.2916L17.7254 13.4732C17.76 13.4819 17.7729 13.4991 17.7729 13.5294V14.217C17.7729 14.2603 17.7557 14.2731 17.7167 14.2429C17.6476 14.1823 17.4919 14.1521 17.2541 14.1479H17.1416C17.0162 14.1391 16.8951 14.0786 16.774 13.9619C16.7642 13.9536 16.7573 13.9425 16.7542 13.9301C16.751 13.9177 16.7519 13.9046 16.7567 13.8927L16.9643 13.3305ZM18.5211 13.404C18.3741 13.3045 18.2616 13.3088 18.1925 13.4255C18.1751 13.4516 18.1492 13.4602 18.1189 13.4386C18.1064 13.43 18.0922 13.4243 18.0771 13.422C18.0622 13.4199 18.0469 13.4211 18.0324 13.4255C17.9891 13.4343 17.9891 13.4559 18.0238 13.4861L18.3265 13.7327C18.3524 13.7499 18.3741 13.7456 18.3914 13.7197L18.5383 13.4689C18.5514 13.4429 18.547 13.4214 18.5211 13.404ZM18.6076 14.2731C18.5962 14.2563 18.5888 14.2371 18.586 14.217C18.5816 14.1823 18.5946 14.1651 18.6292 14.1607C18.6507 14.1607 18.6681 14.1651 18.6768 14.1823C18.7027 14.217 18.6984 14.2515 18.6681 14.2819C18.6465 14.2991 18.6248 14.2991 18.6119 14.2731H18.6076ZM15.0183 14.2819L15.4292 14.7618C15.4292 14.7662 15.4335 14.7705 15.4421 14.7705L16.1816 14.9174C16.2334 14.9262 16.2378 14.9174 16.2032 14.8786L15.5416 14.2731L15.5287 14.2646L15.0357 14.2429C15.0054 14.2429 14.9967 14.2559 15.0183 14.2819ZM17.8118 14.8613L17.613 14.4808C17.6 14.4634 17.6043 14.4505 17.6259 14.4462L18.1189 14.3207C18.1319 14.3207 18.1405 14.3207 18.1448 14.3337L18.5557 15.2505C18.5773 15.2938 18.5686 15.3067 18.5254 15.2807L17.8206 14.8699L17.8118 14.8613ZM18.9708 14.6494C18.9708 14.6666 18.9622 14.6797 18.9534 14.6926C18.9382 14.711 18.919 14.7258 18.8973 14.7359L18.8584 14.7575C18.8238 14.7748 18.8238 14.7921 18.8541 14.818L18.9406 14.8829C18.9622 14.9003 18.9838 14.9003 19.0011 14.8829C19.0703 14.8267 19.0962 14.7618 19.0875 14.6883C19.085 14.6723 19.078 14.6573 19.0673 14.6451C19.0566 14.6327 19.0426 14.6238 19.027 14.6191C18.9967 14.6061 18.9751 14.6191 18.9708 14.6494ZM12.4109 15.3413L12.1946 15.324C12.173 15.324 12.16 15.311 12.1557 15.2851L12.1341 15.1121C12.133 15.1035 12.1344 15.0949 12.1382 15.0872C12.1422 15.0795 12.1482 15.0731 12.1557 15.0688L12.4584 14.8915C12.5102 14.857 12.5319 14.8743 12.5189 14.9348L12.4584 15.3023C12.454 15.3283 12.4368 15.337 12.4151 15.337L12.4109 15.3413ZM16.013 15.2634L16.1298 15.4148L16.1383 15.4191L16.441 15.5403C16.4974 15.5619 16.5102 15.5488 16.4713 15.5013L16.2983 15.2938C16.2983 15.2894 16.294 15.2851 16.2854 15.2851L16.0346 15.2289C15.9913 15.2159 15.987 15.2289 16.013 15.2634ZM10.3395 16.3879C10.2659 16.3964 10.253 16.3748 10.3179 16.3315L11.1611 15.7175C11.1655 15.7143 11.1708 15.7126 11.1762 15.7126C11.1817 15.7126 11.187 15.7143 11.1914 15.7175C11.3941 15.8253 11.5958 15.9349 11.7968 16.0462C11.334 16.2321 10.8454 16.3489 10.3395 16.3921V16.3879ZM14.1622 16.2537L14.2574 16.431C14.2659 16.457 14.2659 16.4743 14.2486 16.4959C14.227 16.5175 14.2443 16.5478 14.2918 16.5867L14.3135 16.5954L15.0357 16.725C15.0659 16.725 15.0746 16.7164 15.0616 16.6905L15.0183 16.6127C14.9601 16.514 14.9205 16.4056 14.9016 16.2927C14.8886 16.1283 14.7978 16.0635 14.6335 16.1023L14.1838 16.2062C14.1578 16.2148 14.1492 16.2278 14.1622 16.2494V16.2537ZM15.36 16.1239C15.6626 16.2278 16.0735 16.444 16.5838 16.7726C16.6098 16.7942 16.627 16.8159 16.6357 16.8504L16.7351 17.2354C16.7438 17.2699 16.7351 17.2829 16.6918 17.2786C16.3978 17.2439 16.1167 17.2223 15.8486 17.2223C15.7738 17.2255 15.701 17.1991 15.6454 17.1488C15.507 17.0275 15.4034 16.8711 15.3458 16.6962C15.2879 16.5214 15.2779 16.3343 15.3168 16.1543C15.3168 16.1283 15.3341 16.1196 15.36 16.1283V16.1239ZM13.9762 16.6127C13.933 16.6343 13.8681 16.5954 13.8292 16.5262C13.7946 16.4526 13.799 16.3791 13.8422 16.3532C13.8854 16.3358 13.9503 16.3748 13.9849 16.4483C14.0194 16.5175 14.0152 16.5911 13.9719 16.6127H13.9762ZM15.1914 17.4991L14.9318 17.1099C14.9102 17.0754 14.9146 17.0538 14.9578 17.0407L15.2476 16.9586C15.2692 16.9499 15.2822 16.9587 15.2951 16.9759L15.5892 17.4256C15.6151 17.4689 15.6022 17.4905 15.5502 17.4948L15.2346 17.5164C15.2265 17.518 15.2181 17.5172 15.2105 17.5141C15.2028 17.5111 15.1961 17.5058 15.1914 17.4991ZM16.8 17.7931L16.5838 17.443C16.5318 17.365 16.4843 17.365 16.4368 17.443C16.3632 17.551 16.3502 17.6418 16.4107 17.7111C16.4454 17.7542 16.5362 17.7888 16.6702 17.8147L16.774 17.8321C16.8173 17.845 16.826 17.8321 16.8 17.7931Z" fill="white"/>
</svg>
