<svg width="24" height="24" viewBox="0 0 24 24" fill="none" xmlns="http://www.w3.org/2000/svg">
<path d="M8.55654 13.823C8.91779 13.5275 9.18293 13.1311 9.31814 12.6844C9.45339 12.2377 9.45261 11.7608 9.31582 11.3144C9.22753 11.0192 9.08231 10.7441 8.88837 10.5046L8.80401 10.4034C7.78599 9.31784 6.70612 8.28297 5.65436 7.22558L5.22691 6.76438C4.63654 7.27843 4.07335 7.82285 3.53961 8.39545C3.14419 8.87504 2.95374 9.49119 3.00954 10.1102C3.06535 10.7292 3.3629 11.3014 3.8377 11.7027L4.86133 10.6902C4.31014 9.94212 4.39451 9.40786 5.17068 8.8679L7.75787 11.4438C7.79162 11.4945 7.81411 11.5452 7.83662 11.607C7.92552 11.8093 7.94617 12.035 7.89544 12.2501C7.8447 12.4652 7.72534 12.658 7.55539 12.7994L8.55654 13.823ZM18.8266 15.1222C17.983 14.2785 17.1223 13.4405 16.2956 12.58C16.1564 12.4264 16.0819 12.2248 16.0876 12.0176C16.1438 11.7138 16.2394 11.4271 16.3575 11.1514L15.3733 10.1727L15.2776 10.2628C14.8199 10.7223 14.5633 11.3447 14.5644 11.9935C14.5654 12.642 14.824 13.2637 15.2833 13.7217L15.3845 13.8174L18.6467 17.0739C18.7028 17.1301 18.7592 17.1751 18.8153 17.2145C19.3441 16.6914 19.884 16.202 20.3733 15.6734C20.5758 15.4315 20.7333 15.156 20.8288 14.8578C20.9883 14.4098 21.0052 13.9232 20.8772 13.4651C20.7494 13.0069 20.483 12.5996 20.1146 12.2987L19.1135 13.3056C19.6759 14.093 19.6197 14.4754 18.8209 15.1222H18.8266ZM12.2236 3.90721C12.4148 4.08719 12.6004 4.24467 12.7691 4.41341C12.938 4.58214 13.0954 4.76212 13.2529 4.93084C14.0066 4.2728 14.5071 4.35154 15.137 5.16707L14.929 5.39205L12.876 7.44494C12.2517 8.0636 11.8636 8.08611 11.2337 7.56305L10.1764 8.58106C10.389 8.82152 10.6469 9.01757 10.9356 9.15798C11.2241 9.29837 11.5377 9.3803 11.8582 9.3992C12.1785 9.41797 12.4995 9.37326 12.8025 9.26761C13.1056 9.16196 13.3848 8.99745 13.624 8.78354L13.7085 8.7048C14.8502 7.57992 15.9806 6.43255 17.1168 5.29643L17.2518 5.13895L15.8344 3.73285C15.5945 3.49096 15.3066 3.30209 14.9892 3.17843C14.6717 3.05478 14.3318 2.99911 13.9915 3.01501C13.6512 3.03092 13.318 3.11803 13.0136 3.27075C12.7089 3.42347 12.4399 3.63838 12.2236 3.90159V3.90721ZM13.7985 15.4035C13.5928 15.1651 13.3422 14.9697 13.061 14.8283C12.7798 14.6869 12.4735 14.6023 12.1596 14.5793C11.8456 14.5564 11.5303 14.5954 11.2315 14.6944C10.9327 14.7933 10.6563 14.9502 10.4182 15.156L10.39 15.1784C9.65891 15.8534 8.96711 16.5846 8.25282 17.2876L6.76235 18.7724C7.29668 19.3293 7.79162 19.8861 8.33718 20.3922C8.60391 20.6271 8.92168 20.7967 9.26532 20.8875C9.6089 20.9782 9.96901 20.9878 10.3169 20.9153C10.8737 20.8309 11.3856 20.5441 11.7399 20.1053L10.8231 19.2055L10.7107 19.0987C9.92322 19.661 9.38331 19.5654 8.87712 18.7837C9.69827 17.9569 10.5137 17.1244 11.3462 16.3089C11.4577 16.1946 11.5989 16.1135 11.7538 16.0748C11.9086 16.0359 12.0714 16.0411 12.2236 16.0895C12.4261 16.1739 12.6173 16.2808 12.7916 16.4102L13.8041 15.3978L13.7985 15.4035ZM15.1484 18.7837C14.4845 19.6667 13.8322 19.6948 13.146 18.9468C12.578 18.328 11.9648 17.7488 11.3687 17.1582L11.1887 17.0064L10.2382 17.9456C11.0369 18.7893 11.8018 19.6892 12.668 20.4822C13.0478 20.7985 13.5223 20.9791 14.0164 20.9955C14.5104 21.0118 14.9958 20.8629 15.3957 20.5722C16.0381 20.0405 16.652 19.4754 17.2349 18.8793L15.3845 17.0458L14.3721 18.0693L15.1539 18.7837H15.1484ZM13.7985 5.97136C13.0111 5.17832 12.2517 4.35154 11.4249 3.59225C11.0246 3.23363 10.5116 3.02613 9.97453 3.00559C9.43738 2.98505 8.90997 3.15277 8.48341 3.47976C7.85911 3.96908 7.31355 4.57651 6.7736 5.08832L8.6184 6.92749L9.63082 5.91511C9.51271 5.80263 9.37767 5.66764 9.23145 5.54953C9.08521 5.42579 8.93337 5.32455 8.73651 5.17832C8.92773 5.02083 9.02335 4.95334 9.10772 4.86899C9.20073 4.75368 9.31857 4.66086 9.45248 4.59745C9.58633 4.53403 9.73279 4.50166 9.88096 4.50273C10.0291 4.50382 10.1751 4.53833 10.308 4.60369C10.4409 4.66904 10.5575 4.76358 10.6488 4.88023L11.3632 5.59453L12.7636 7.00061L13.7985 5.97136ZM17.9437 13.8174C18.8042 12.9849 19.6703 12.2426 20.424 11.3988C20.7972 10.9739 21.0021 10.4269 21 9.86128C20.998 9.29561 20.7891 8.75024 20.4127 8.32795C19.9176 7.77677 19.3553 7.28183 18.8603 6.79813L17.0719 8.59793L18.0842 9.65537L18.8603 8.81165C18.956 8.91851 19.0291 9.01976 19.1191 9.10975C19.2709 9.22494 19.3853 9.38266 19.4473 9.56299C19.5094 9.74316 19.5165 9.93779 19.4678 10.1222C19.4137 10.3323 19.2911 10.5184 19.1191 10.6508L18.4329 11.3427L16.9762 12.7937L17.0887 12.9399C17.3868 13.2381 17.6736 13.5417 17.9437 13.823V13.8174ZM5.15943 15.1897C5.04694 15.0603 4.98507 14.9759 4.91194 14.9085C4.71737 14.7708 4.57934 14.5673 4.52349 14.3356C4.46763 14.1039 4.49774 13.8598 4.60824 13.6485C4.67572 13.5081 4.77697 13.3899 4.90633 13.2942L6.44739 11.7588C6.63299 11.5732 6.8411 11.3932 6.98733 11.2527L5.91309 10.184L3.74209 12.3663C3.33578 12.7488 3.07957 13.2641 3.01976 13.8189C2.95995 14.3738 3.10043 14.9318 3.41587 15.3922C3.9387 16.0334 4.50031 16.6419 5.09755 17.2145L6.91423 15.3978L5.89059 14.3798L5.15943 15.1897ZM9.53515 15.4484L6.45302 12.3663L5.48564 13.2999L8.59028 16.3989L9.53515 15.4484ZM13.2586 18.5138L16.3913 15.3809L15.4464 14.4247L12.308 17.5575L13.2586 18.5138ZM10.7276 5.49328L7.57789 8.64292L8.50592 9.57663L11.6611 6.42693L10.7332 5.49328H10.7276ZM14.434 8.55293L17.5273 11.6351L18.4722 10.6845L15.379 7.59679L14.434 8.55293Z" fill="white"/>
</svg>
