<svg width="24" height="24" viewBox="0 0 24 24" fill="none" xmlns="http://www.w3.org/2000/svg">
<path d="M13.5 10.5V4H9.66497C9.05105 4.00079 8.44337 4.12314 7.87698 4.36C7.31059 4.59686 6.79671 4.94352 6.36498 5.37999C5.48867 6.26476 4.99707 7.4597 4.99707 8.70498C4.99707 9.95026 5.48867 11.1451 6.36498 12.0299C7.22749 12.9368 8.41394 13.4653 9.66497 13.4999H10.4999V10.5H13.5Z" fill="white"/>
<path d="M14.335 10.5H13.5001V13.5H10.5V20H14.335C15.5701 20 16.7601 19.5 17.6351 18.62C18.5114 17.7352 19.003 16.5403 19.003 15.295C19.003 14.0497 18.5114 12.8548 17.6351 11.97C16.7726 11.0631 15.5861 10.5346 14.335 10.5Z" fill="white"/>
</svg>
