<svg width="24" height="24" viewBox="0 0 24 24" fill="none" xmlns="http://www.w3.org/2000/svg">
<path d="M18.0001 5.34502V8.83152C18.0001 9.20652 17.7211 9.16302 17.583 9.09452C17.1321 8.87652 16.2786 8.41603 16.1491 8.35352C16.0191 8.29052 15.9975 8.12352 16.0001 8.04853V6.15752C15.987 5.86552 15.8381 5.75253 15.7681 5.73252C14.699 5.19902 12.4261 4.12252 12.2406 4.04552C12.0551 3.96902 11.8391 4.01352 11.7541 4.04552C10.7071 4.56302 8.46959 5.61852 8.26408 5.73202C8.05909 5.84552 7.99908 6.06302 8.00009 6.15752V10.356C8.00608 10.641 8.18209 10.767 8.26458 10.7946C9.36109 11.3295 11.6871 12.4186 11.815 12.4971C11.9436 12.5761 12.1536 12.53 12.2426 12.4971L12.6701 12.2755C12.8171 12.1835 12.991 12.237 13.0596 12.2755L14.7696 13.1295C14.9895 13.3 14.8611 13.4635 14.7696 13.5235C14.1386 13.8466 12.7861 14.5285 12.4261 14.6706C12.0656 14.8126 11.6651 14.7295 11.5101 14.6706C9.93659 13.8971 6.70859 12.2976 6.38409 12.0905C6.06008 11.8831 5.98909 11.4935 6.00008 11.3246V5.36302C6.01758 4.90102 6.39859 4.63502 6.58108 4.56002C8.08109 3.81353 11.1776 2.27602 11.5591 2.09802C11.9406 1.92051 12.3326 2.02402 12.4811 2.09802C14.0386 2.86352 17.24 4.44052 17.583 4.62553C17.9266 4.81002 18.0001 5.16002 18.0001 5.34502Z" fill="white"/>
<path d="M5.99998 18.6549V12.8385C5.99998 12.4634 6.27898 12.5065 6.41698 12.5754C6.86798 12.7935 7.72149 13.2404 7.85099 13.303C7.98098 13.3655 8.00248 13.533 7.99998 13.6079C7.99449 14.0355 7.98698 17.502 7.99998 17.7945C8.01298 18.0865 8.16198 18.1995 8.23198 18.2195L11.728 19.9584C11.9129 20.0354 12.1295 19.9905 12.2139 19.9584L15.774 18.22C15.979 18.1065 16.0009 17.889 16 17.7945C16.0025 16.5969 16.0055 13.7875 16 13.5029C15.9939 13.218 15.8565 13.092 15.774 13.064C14.677 12.5295 12.313 11.446 12.185 11.367C12.0564 11.288 11.8464 11.334 11.7575 11.367L11.33 11.5884C11.183 11.6805 11.009 11.6269 10.9405 11.5884L9.23048 10.7344C9.01048 10.564 9.13899 10.4005 9.23048 10.3404C9.86147 10.0175 11.214 9.33547 11.574 9.19347C11.9345 9.05147 12.335 9.13447 12.49 9.19347C14.0635 9.96699 17.2915 11.5665 17.616 11.7735C17.9399 11.981 18.011 12.4065 18 12.5754V18.637C17.9825 19.099 17.6015 19.365 17.419 19.44C15.919 20.1865 12.8225 21.724 12.441 21.902C12.0595 22.0794 11.6675 21.976 11.519 21.902C9.96145 21.1364 6.75998 19.5594 6.41698 19.3745C6.07348 19.19 5.99498 18.8185 5.99998 18.6549Z" fill="white"/>
<path d="M9.00177 17.475V14.685C9.00177 14.4475 9.13676 14.4915 9.22776 14.5319C10.0697 14.909 11.7742 15.672 11.8543 15.712C11.9343 15.751 12.0218 15.728 12.0558 15.712C12.8647 15.3595 14.5357 14.6305 14.7473 14.5319C14.9588 14.4339 15.0038 14.593 14.9997 14.6845C14.9977 15.5745 14.9948 17.379 14.9997 17.4745C15.0043 17.571 14.9343 17.6465 14.8982 17.6725C14.0333 18.0739 12.2732 18.894 12.1493 18.961C12.0253 19.028 11.8847 18.989 11.8302 18.961C11.0138 18.5935 9.34026 17.8429 9.17627 17.778C9.01227 17.713 8.99127 17.5489 9.00177 17.475Z" fill="white"/>
</svg>
