<svg width="24" height="24" viewBox="0 0 24 24" fill="none" xmlns="http://www.w3.org/2000/svg">
<path d="M8.59745 5.84061C8.50779 5.93028 8.38618 5.98066 8.25938 5.98066C8.13257 5.98066 8.01095 5.93028 7.92129 5.84061C7.83162 5.75095 7.78125 5.62934 7.78125 5.50253C7.78125 5.37573 7.83162 5.25411 7.92129 5.16445C8.01095 5.07479 8.13257 5.02441 8.25938 5.02441C8.38618 5.02441 8.50779 5.07479 8.59745 5.16445C8.68712 5.25411 8.73749 5.37573 8.73749 5.50253C8.73749 5.62934 8.68712 5.75095 8.59745 5.84061Z" fill="white"/>
<path d="M15.9503 5.9606C15.8864 5.98118 15.8189 5.98805 15.7521 5.98078V5.9864C15.6253 5.9864 15.5036 5.93602 15.414 5.84636C15.3243 5.7567 15.2739 5.63508 15.2739 5.50828C15.2739 5.38147 15.3243 5.25986 15.414 5.17019C15.5036 5.08053 15.6253 5.03015 15.7521 5.03015C15.8189 5.02288 15.8864 5.02976 15.9503 5.05032C16.0142 5.07089 16.0731 5.1047 16.1231 5.14955C16.1731 5.19439 16.213 5.24926 16.2404 5.31058C16.2677 5.3719 16.2819 5.43831 16.2819 5.50547C16.2819 5.57262 16.2677 5.63903 16.2404 5.70035C16.213 5.76167 16.1731 5.81655 16.1231 5.86139C16.0731 5.90623 16.0142 5.94004 15.9503 5.9606Z" fill="white"/>
<path d="M4.50741 12.4659C4.57021 12.4659 4.63238 12.4536 4.69039 12.4296C4.74841 12.4055 4.80111 12.3703 4.8455 12.326C4.8899 12.2815 4.92512 12.2289 4.94915 12.1708C4.97318 12.1129 4.98555 12.0507 4.98555 11.9879C4.98555 11.925 4.97318 11.8629 4.94915 11.805C4.92512 11.7469 4.8899 11.6942 4.8455 11.6498C4.80111 11.6053 4.74841 11.5702 4.69039 11.5461C4.63238 11.5221 4.57021 11.5098 4.50741 11.5098C4.38061 11.5098 4.25899 11.5602 4.16933 11.6498C4.07967 11.7394 4.0293 11.8609 4.0293 11.9879C4.0293 12.1147 4.07967 12.2362 4.16933 12.326C4.25899 12.4156 4.38061 12.4659 4.50741 12.4659Z" fill="white"/>
<path d="M19.8341 12.3483C19.7434 12.4391 19.6203 12.4901 19.4921 12.4901C19.3637 12.4901 19.2408 12.4391 19.1501 12.3483C19.0592 12.2576 19.0083 12.1346 19.0083 12.0063C19.0083 11.8781 19.0592 11.7549 19.1501 11.6642C19.2408 11.5736 19.3637 11.5225 19.4921 11.5225C19.6203 11.5225 19.7434 11.5736 19.8341 11.6642C19.9248 11.7549 19.9759 11.8781 19.9759 12.0063C19.9759 12.1346 19.9248 12.2576 19.8341 12.3483Z" fill="white"/>
<path d="M8.58086 18.8251C8.49119 18.9147 8.36957 18.9649 8.24277 18.9649C8.11596 18.9649 7.99436 18.9147 7.90469 18.8251C7.81502 18.7353 7.76465 18.6138 7.76465 18.487C7.76465 18.3601 7.81502 18.2385 7.90469 18.1488C7.99436 18.0592 8.11596 18.0088 8.24277 18.0088C8.36957 18.0088 8.49119 18.0592 8.58086 18.1488C8.67052 18.2385 8.72089 18.3601 8.72089 18.487C8.72089 18.6138 8.67052 18.7353 8.58086 18.8251Z" fill="white"/>
<path d="M15.7344 18.9748C15.8612 18.9748 15.9829 18.9244 16.0726 18.8348C16.1622 18.7451 16.2126 18.6234 16.2126 18.4967C16.2126 18.3699 16.1622 18.2483 16.0726 18.1586C15.9829 18.069 15.8612 18.0186 15.7344 18.0186C15.6077 18.0186 15.4861 18.069 15.3964 18.1586C15.3067 18.2483 15.2563 18.3699 15.2563 18.4967C15.2563 18.6234 15.3067 18.7451 15.3964 18.8348C15.4861 18.9244 15.6077 18.9748 15.7344 18.9748Z" fill="white"/>
<path d="M11.461 8.2975C11.8043 8.27501 12.1697 8.27501 12.5523 8.30313C12.5572 8.30313 12.5615 8.30175 12.5615 8.30175C12.5635 8.29996 12.5635 8.29581 12.5635 8.28625V7.01501C12.5635 6.95876 12.5974 6.93062 12.6536 6.93626C12.8748 6.96341 13.0932 7.01048 13.3062 7.07688C13.3286 7.08812 13.3455 7.11063 13.3455 7.13313V8.38188C13.3455 8.40437 13.3567 8.41562 13.3736 8.41562C14.0932 8.53511 14.7796 8.80539 15.3873 9.20875C15.5167 9.29311 15.5448 9.38875 15.4605 9.50123L14.8079 10.345C14.7518 10.4182 14.6673 10.4182 14.5717 10.3507C13.7768 9.83958 12.8443 9.58431 11.8998 9.61935C11.4836 9.61935 11.1123 9.64744 10.7805 9.72068C10.2686 9.83316 9.97042 10.0131 9.89731 10.2831C9.80177 10.615 9.98171 10.8456 10.4261 10.9638C10.6623 11.0312 10.8873 11.0763 11.1179 11.0988L11.7929 11.155C12.5635 11.2281 13.143 11.2957 13.5311 11.3632C15.2017 11.6668 15.9892 12.3925 15.8993 13.5456C15.8796 13.842 15.7917 14.1296 15.6425 14.3864C15.4932 14.643 15.2864 14.8616 15.0386 15.025C14.5388 15.3572 13.9689 15.5689 13.3736 15.6437C13.3567 15.6437 13.351 15.655 13.351 15.6718V16.8531C13.351 16.8924 13.3286 16.9207 13.2948 16.9317C13.098 16.9881 12.8842 17.0331 12.6536 17.0556C12.5974 17.0612 12.5635 17.0388 12.5635 16.9824V15.745C12.5635 15.7281 12.5635 15.7224 12.5468 15.7224C12.1867 15.7394 11.8154 15.7224 11.4498 15.6943C11.4386 15.6943 11.4386 15.6943 11.4386 15.7057V16.9712C11.4386 17.0388 11.3992 17.0668 11.3318 17.0612C11.1224 17.0345 10.9154 16.9914 10.7129 16.9317C10.6735 16.9207 10.6568 16.8924 10.6568 16.8531V15.5931C10.6568 15.5763 10.6454 15.5706 10.6287 15.5649C9.76239 15.3962 8.98046 15.0418 8.27171 14.5075C8.11984 14.3893 8.08047 14.2825 8.15922 14.1868C8.38422 13.9056 8.60921 13.6299 8.84546 13.3543C8.90734 13.2756 8.98609 13.2756 9.07046 13.3487C9.74139 13.9153 10.5698 14.2628 11.4443 14.3443C12.0405 14.4118 12.6311 14.4063 13.2104 14.3331C13.6042 14.2768 13.9022 14.1756 14.1047 14.0181C14.2172 13.9282 14.296 13.8043 14.3298 13.6582C14.3466 13.5886 14.3493 13.5165 14.3378 13.446C14.3261 13.3755 14.3005 13.308 14.2622 13.2475C14.1161 13.0225 13.7673 12.865 13.2104 12.7863C12.7379 12.7243 12.2148 12.6625 11.6411 12.6062C11.0054 12.55 10.4205 12.4375 9.89167 12.2688C8.87921 11.9425 8.36172 11.4082 8.31672 10.6657C8.29225 10.3644 8.34381 10.0618 8.46666 9.78565C8.58951 9.50949 8.77971 9.26856 9.01983 9.085C9.43611 8.74187 9.97606 8.51687 10.6342 8.40437C10.6454 8.40437 10.6511 8.39312 10.6511 8.37625V7.16126C10.6511 7.11063 10.6735 7.08251 10.7186 7.07126C10.9211 7.01501 11.1293 6.97 11.3429 6.94187C11.3992 6.93626 11.4386 6.96438 11.4386 7.02062V8.27501C11.4386 8.29186 11.4386 8.30313 11.461 8.30313V8.2975Z" fill="white"/>
<path fill-rule="evenodd" clip-rule="evenodd" d="M11.7075 3H12.2699C12.6075 3.0225 12.9056 3.05062 13.1588 3.08437C15.1825 3.34046 17.057 4.28366 18.4687 5.75624C19.8874 7.22112 20.7644 9.12586 20.955 11.1562L21 11.7412V12.2699C20.9774 12.5849 20.955 12.8549 20.9267 13.08C20.7006 15.0859 19.7909 16.9531 18.3506 18.3674C16.9344 19.8067 15.0646 20.7127 13.0574 20.9324L12.2756 21H11.73C11.3812 20.9774 11.0887 20.9493 10.8524 20.9212C8.82748 20.6512 7.08374 19.7962 5.64373 18.3562C4.22284 16.9611 3.31838 15.1243 3.07875 13.1475C3.05063 12.9112 3.0225 12.6132 3 12.2643V11.7243C3.01885 11.4228 3.04558 11.1686 3.06699 10.9651L3.07875 10.8524C3.34874 8.82748 4.20374 7.08936 5.63812 5.64937C7.02942 4.22628 8.86517 3.32128 10.8412 3.08437C11.1281 3.05062 11.4206 3.01687 11.7075 3ZM10.5883 5.74465C9.32794 6.01465 8.18342 6.67147 7.31449 7.6234C7.16261 7.79215 7.01073 7.81466 6.86448 7.6909L5.67199 6.68965C5.63937 6.66385 5.61249 6.63149 5.59312 6.59467C5.57375 6.55787 5.56229 6.51741 5.5595 6.47591C5.55747 6.43329 5.56442 6.39074 5.57993 6.35101C5.59544 6.31127 5.61914 6.27524 5.64949 6.24527C6.83838 4.92802 8.40676 4.01216 10.1382 3.62404C10.2194 3.60112 10.3057 3.60308 10.3857 3.62966C10.487 3.66903 10.5545 3.78716 10.5826 3.97841L10.5938 4.03467L10.8301 5.37341C10.8695 5.57591 10.7851 5.69966 10.5883 5.74465ZM16.7137 7.64589C15.8339 6.69354 14.687 6.02892 13.4232 5.73903C13.2151 5.69402 13.1307 5.56466 13.17 5.3509L13.4345 3.87153C13.4513 3.77591 13.4907 3.70279 13.5694 3.65778C13.6425 3.61279 13.7269 3.60154 13.8226 3.61841C15.5888 4.01216 17.0851 4.87841 18.3337 6.21715C18.4969 6.39152 18.4912 6.55466 18.3282 6.68965L17.1469 7.67965C16.995 7.80902 16.8488 7.79215 16.7137 7.64589ZM4.24887 9.1759C4.73652 9.34845 5.22217 9.52656 5.70573 9.7103C5.77451 9.73485 5.831 9.78538 5.86323 9.85087C5.89687 9.91716 5.90294 9.99394 5.88012 10.0647C5.48989 11.3174 5.48989 12.6593 5.88012 13.9121C5.93637 14.1034 5.8745 14.2271 5.70012 14.2946L4.27138 14.8121C4.23162 14.8326 4.1879 14.8441 4.14323 14.8461C4.09856 14.848 4.054 14.8403 4.01262 14.8234C3.97043 14.8061 3.93278 14.7793 3.90255 14.7452C3.87233 14.7111 3.85033 14.6705 3.83825 14.6266C3.30387 12.9391 3.29262 11.2177 3.79888 9.46841C3.82058 9.38087 3.86303 9.29984 3.92262 9.23215C4.00137 9.14776 4.11388 9.13089 4.24887 9.1759ZM19.7457 14.8121L18.3788 14.3228C18.1538 14.2384 18.0638 14.1146 18.1144 13.9459C18.5082 12.6634 18.5082 11.3752 18.1258 10.0758C18.0694 9.89025 18.1369 9.76648 18.3282 9.69337L19.7682 9.1759C19.8059 9.16068 19.8463 9.15334 19.8869 9.15431C19.9276 9.15526 19.9676 9.16453 20.0044 9.18152C20.0832 9.2209 20.1338 9.27714 20.1619 9.36152C20.6962 11.0491 20.7076 12.7816 20.19 14.5534C20.1169 14.8065 19.9651 14.8909 19.7457 14.8177V14.8121ZM5.67763 17.7933C6.94887 19.1433 8.45072 20.0095 10.1945 20.3809C10.2345 20.3903 10.276 20.3917 10.3166 20.3849C10.3571 20.3781 10.3959 20.3634 10.4308 20.3416C10.466 20.3202 10.4964 20.2918 10.5197 20.2578C10.5429 20.2238 10.5586 20.1852 10.5658 20.1446L10.8301 18.6484C10.8638 18.429 10.7794 18.2996 10.5713 18.2546C9.30987 17.9818 8.16641 17.3185 7.30324 16.359C7.26387 16.314 7.21886 16.2802 7.16823 16.2633C7.05574 16.2183 6.93199 16.2521 6.79698 16.3646L5.70573 17.2815C5.51449 17.439 5.50886 17.6077 5.67763 17.7933ZM13.8676 20.3752C15.5407 19.9997 17.0629 19.132 18.2383 17.8834C18.4632 17.6415 18.4912 17.4445 18.3113 17.2984L17.1751 16.342C17.0063 16.2016 16.8488 16.2071 16.7083 16.359C15.8283 17.3122 14.6782 17.9735 13.4119 18.2546C13.2151 18.3052 13.1307 18.429 13.17 18.6258L13.4288 20.1165C13.4738 20.3471 13.6144 20.4315 13.8676 20.3752ZM17.9969 11.9995C18.0003 12.7874 17.8469 13.5683 17.5456 14.2964C17.2443 15.0245 16.8011 15.6854 16.242 16.2406C15.6868 16.7999 15.0258 17.2429 14.2976 17.5444C13.5695 17.8457 12.7886 17.9989 12.0007 17.9955C11.2127 17.9989 10.4318 17.8457 9.70373 17.5444C8.97554 17.2429 8.31463 16.7999 7.75943 16.2406C7.20019 15.6854 6.75702 15.0245 6.45572 14.2964C6.15441 13.5683 6.00101 12.7874 6.00443 11.9995C6.00101 11.2114 6.15441 10.4306 6.45572 9.70243C6.75702 8.97425 7.20019 8.31334 7.75943 7.75815C8.31463 7.19891 8.97554 6.75574 9.70373 6.45443C10.4318 6.15314 11.2127 5.99974 12.0007 6.00317C12.7886 5.99974 13.5695 6.15314 14.2976 6.45443C15.0258 6.75574 15.6868 7.19891 16.242 7.75815C16.8011 8.31334 17.2443 8.97425 17.5456 9.70243C17.8469 10.4306 18.0003 11.2114 17.9969 11.9995Z" fill="white"/>
</svg>
