<svg width="24" height="24" viewBox="0 0 24 24" fill="none" xmlns="http://www.w3.org/2000/svg">
<path d="M11.5 7.24501V6.29501C11.5 5.99501 11.2599 5.75 10.965 5.75H7.01001C6.85 5.75 6.69501 5.81501 6.58501 5.93001L3.15501 9.39501C3.05501 9.49497 3 9.63498 3 9.77497V12.3949C3 12.765 3.30001 13.065 3.66001 13.065C3.855 13.065 4.04 12.985 4.17501 12.8451L5.00001 12.0149C5.15 11.8651 5.35001 11.7501 5.56501 11.7501H8.705C9.35502 11.7501 9.68496 12.58 9.22501 13.05L5.22 17.1C4.80001 17.5201 5.09501 18.25 5.69001 18.25H6.92C7.17001 18.25 7.40501 18.1501 7.58001 17.975L11.345 14.165C11.445 14.065 11.5 13.925 11.5 13.7851V10.45C11.5 10.0801 11.2 9.75 10.83 9.75H7.53001C7.38502 9.75 7.25001 9.83506 7.15001 9.93504L6.21501 10.75C6.09501 10.875 5.93 10.94 5.76501 10.94C5.41001 10.94 5.00001 10.65 5.00001 10.2949V8.65002C5.00001 8.27501 5.42001 7.75001 5.79 7.75001H10.965C11.265 7.75001 11.5 7.54001 11.5 7.24501ZM12.5 7.24501V6.29501C12.5 5.99501 12.74 5.75 13.0351 5.75H16.99C17.15 5.75 17.3051 5.81501 17.415 5.93001L20.8451 9.39501C20.945 9.49497 21 9.63498 21 9.77497V12.3949C21 12.765 20.7 13.065 20.34 13.065C20.1451 13.065 19.96 12.985 19.825 12.8451L19 12.0149C18.8501 11.8651 18.65 11.7501 18.435 11.7501H15.295C14.645 11.7501 14.315 12.58 14.775 13.05L18.7801 17.1C19.2001 17.5201 18.905 18.25 18.31 18.25H17.08C16.8299 18.25 16.595 18.1501 16.42 17.975L12.655 14.165C12.5549 14.065 12.5 13.925 12.5 13.7851V10.45C12.5 10.0801 12.7999 9.75 13.17 9.75H16.47C16.6149 9.75 16.7501 9.83506 16.85 9.93504L17.785 10.75C17.9051 10.875 18.07 10.94 18.235 10.94C18.59 10.94 19 10.65 19 10.2949V8.65002C19 8.27501 18.58 7.75001 18.21 7.75001H13.0351C12.7349 7.75001 12.5 7.54001 12.5 7.24501Z" fill="white"/>
</svg>
