<svg width="24" height="24" viewBox="0 0 24 24" fill="none" xmlns="http://www.w3.org/2000/svg">
<path d="M12.2926 20.9877C11.3757 20.9877 10.4644 20.9709 9.54755 20.9877C9.07498 21.0047 8.74872 20.729 8.50682 20.1665C7.67431 18.2426 6.82489 16.33 5.98674 14.4119C5.63799 13.6075 5.81798 13.1293 6.493 13.1238C7.6968 13.1124 8.90059 13.135 10.0988 13.1238C10.5881 13.1238 10.9201 13.4388 11.1675 14.0237C11.7694 15.43 13.007 18.2033 13.007 18.2033C13.007 18.2033 13.1532 18.5576 13.277 18.7432C13.3614 18.8726 13.7552 19.1146 14.1264 18.8501C14.4864 18.5914 14.447 18.2876 14.2389 17.8151C13.5863 16.3245 12.917 14.8393 12.2813 13.3318C12.1689 13.0563 12.045 12.713 12.2363 12.4093C12.377 12.1787 12.6076 11.9986 12.7876 11.9986C13.9689 11.9986 15.1558 12.0155 16.3427 11.9986C16.8152 11.9931 17.1527 12.2405 17.389 12.8031C17.794 13.7424 18.1934 14.6707 18.6153 15.5875C18.8291 16.0489 18.784 16.4144 18.5254 16.7914C17.6758 18.0177 16.8546 19.2778 15.977 20.4645C15.8693 20.6052 15.7338 20.7221 15.5791 20.8083C15.4242 20.8944 15.2533 20.9478 15.0771 20.9652C14.1546 21.0271 13.2207 20.9877 12.2926 20.9877Z" fill="white"/>
<path d="M11.6785 3.01602C12.5786 3.01602 13.473 3.03289 14.3674 3.00477C14.8737 2.99352 15.2337 3.24664 15.498 3.86542C16.3305 5.78924 17.1857 7.69617 18.0181 9.61436C18.3557 10.385 18.1813 10.8687 17.5344 10.8744C16.3305 10.8857 15.1325 10.8744 13.9343 10.8744C13.1468 10.8744 12.8092 9.95182 12.8092 9.95182L10.9192 5.71611C10.9192 5.71611 10.7728 5.3561 10.6829 5.20984C10.621 5.10296 10.2498 4.84982 9.88412 5.09733C9.50164 5.36172 9.58604 5.80049 9.77164 6.21675C10.3566 7.5443 10.9979 8.86622 11.5717 10.2106C11.7517 10.6551 12.123 11.1163 11.8079 11.6225C11.6224 11.9263 11.2453 12.005 10.8235 11.9994C9.77728 11.9826 8.73096 11.977 7.67904 11.9994C7.18965 12.0107 6.83526 11.7631 6.58776 11.167C6.20524 10.2501 5.80023 9.34436 5.38958 8.44995C5.17021 7.96619 5.20959 7.58929 5.49085 7.18991C6.31776 6.00299 7.11089 4.77107 7.96593 3.61791C8.08222 3.46275 8.22808 3.33216 8.39512 3.23367C8.56214 3.13519 8.74702 3.07078 8.93908 3.04414C9.85039 2.96539 10.7673 3.01602 11.6785 3.01602Z" fill="white"/>
</svg>
