<svg width="24" height="24" viewBox="0 0 24 24" fill="none" xmlns="http://www.w3.org/2000/svg">
<path d="M17.7075 13.4275C18.8431 13.4247 19.9333 13.8731 20.7383 14.6741C21.5434 15.4752 21.9972 16.563 22 17.6987C22.0028 18.8344 21.5544 19.9245 20.7534 20.7297C19.9525 21.5346 18.8645 21.9885 17.7288 21.9914H17.7075C16.5718 21.9914 15.4826 21.5403 14.6797 20.7372C13.8767 19.9342 13.4255 18.845 13.4255 17.7094C13.4255 17.5953 13.4255 17.4882 13.4398 17.3811C13.4469 17.1813 13.4613 16.9887 13.4398 16.7817C13.2358 15.1964 12.5075 13.7249 11.3708 12.6011C10.2341 11.4774 8.7543 10.766 7.16683 10.58C6.95272 10.5587 6.76004 10.5657 6.5531 10.5657L6.28903 10.5729C5.15341 10.5749 4.06353 10.1255 3.25918 9.32383C2.45483 8.52217 2.0019 7.4338 2.00001 6.29817C1.99811 5.16254 2.44742 4.07267 3.24909 3.26832C4.05078 2.46397 5.13914 2.01104 6.27476 2.00914H6.28903C6.88082 2.00914 7.46618 2.1318 8.00816 2.36939C8.55016 2.60697 9.03705 2.95433 9.43802 3.38953C9.839 3.82474 10.1454 4.33833 10.3381 4.89791C10.5305 5.4575 10.605 6.05092 10.5567 6.64073C10.5495 6.86195 10.5424 7.08318 10.571 7.31869C10.8081 8.90687 11.5688 10.3704 12.7323 11.4771C13.8959 12.5838 15.3957 13.2703 16.9938 13.4275C17.158 13.4418 17.315 13.4347 17.4719 13.4275H17.7075ZM17.7788 10.5729C18.9144 10.5541 19.9959 10.0847 20.7856 9.26838C21.5752 8.45193 22.0083 7.35531 21.9893 6.21967C21.9703 5.08405 21.5011 4.00245 20.6847 3.21282C19.8684 2.42319 18.7717 1.99021 17.636 2.00914C16.5004 2.02807 15.4189 2.49734 14.6292 3.31374C13.8396 4.13013 13.4067 5.22677 13.4255 6.36241C13.4445 7.49803 13.9137 8.57963 14.7301 9.36929C15.5466 10.1589 16.6431 10.5919 17.7788 10.5729ZM6.28903 13.4275C7.42467 13.4275 8.51378 13.8786 9.3168 14.6817C10.1197 15.4847 10.571 16.5739 10.571 17.7094C10.571 18.845 10.1197 19.9342 9.3168 20.7372C8.51378 21.5403 7.42467 21.9914 6.28903 21.9914C5.15341 21.9914 4.0643 21.5403 3.26128 20.7372C2.45826 19.9342 2.00713 18.845 2.00713 17.7094C2.00713 16.5739 2.45826 15.4847 3.26128 14.6817C4.0643 13.8786 5.15341 13.4275 6.28903 13.4275Z" fill="white"/>
</svg>
