<svg width="24" height="24" viewBox="0 0 24 24" fill="none" xmlns="http://www.w3.org/2000/svg">
<path d="M9.18681 20.4373H3L9.18681 14.8125H15.3747L9.18681 20.4373Z" fill="white"/>
<path d="M21 9.1875L15.375 14.8123V9.1875H21Z" fill="white"/>
<path d="M21 3.5625L15.375 9.18738V3.5625H21Z" fill="white"/>
<path d="M15.3745 9.1875L9.18652 14.8123L9.18709 9.1875H15.3745Z" fill="white"/>
<path d="M15.3748 3.5625L9.1875 9.18738V3.5625H15.3748Z" fill="white"/>
<path d="M9.18737 9.1875L3 14.8123V9.1875H9.18737Z" fill="white"/>
<path d="M21 14.8125L15.375 20.4373V14.8125H21Z" fill="white"/>
<path d="M15.3745 14.8123H9.18652L15.3745 9.1875V14.8123Z" fill="white"/>
<path d="M15.3748 9.18738H9.1875L15.3748 3.5625V9.18738Z" fill="white"/>
<path d="M9.18681 14.8123H3L9.18737 9.1875L9.18681 14.8123Z" fill="white"/>
<path d="M9.18737 9.18738H3L9.18737 3.5625V9.18738Z" fill="white"/>
<path d="M21 14.8123H15.375L21 9.1875V14.8123Z" fill="white"/>
<path d="M15.3745 20.4373H9.18652L15.3745 14.8125V20.4373Z" fill="white"/>
</svg>
