<svg width="24" height="24" viewBox="0 0 24 24" fill="none" xmlns="http://www.w3.org/2000/svg">
<path fill-rule="evenodd" clip-rule="evenodd" d="M19.9942 16.4982L19.9936 7.50859L11.999 3.00879V12.0024L4.00537 16.5001L12.0015 20.999L19.9892 16.5042L19.9942 16.5072V16.5017L19.9967 16.5001L19.9942 16.4982Z" fill="white"/>
<path d="M12.0039 3L19.9995 7.4988L17.4997 9.12273L9.5 4.41744L12.0039 3Z" fill="white"/>
<path d="M17.4997 8.87142V11.9143L9.5 7.378V4.41162L17.4997 8.87142Z" fill="white"/>
<path d="M9.49831 7.37842L17.5 11.9022L14.5001 13.5936L6.50244 9.06584L9.49831 7.37842Z" fill="white"/>
<path d="M14.4976 13.5929V16.6203L6.5 11.9504V9.05908L14.4976 13.5929Z" fill="white"/>
<path d="M6.50038 11.9487L14.4995 16.58L12.0012 17.9999L4 13.5012L6.50038 11.9487Z" fill="white"/>
<path d="M11.9996 18.0003V21.0001L4 16.4973V13.4976L11.9996 18.0003Z" fill="white"/>
<path d="M17.502 8.88452L19.9999 7.51758V16.5161L17.502 17.9041V8.88452Z" fill="white"/>
<path d="M14.4975 13.5936L17.4994 11.896V17.9062L14.4971 19.5822L14.4975 13.5936Z" fill="white"/>
<path d="M11.9995 17.9986L14.4969 16.5771V19.5995L11.9995 20.9984V17.9986Z" fill="white"/>
</svg>
