<svg width="24" height="24" viewBox="0 0 24 24" fill="none" xmlns="http://www.w3.org/2000/svg">
<path d="M16.1062 6.52686L17.0625 4.11937C16.5 3.74813 14.8182 3 12.6132 3C9.85692 3 7.51688 4.57499 7.51688 6.93749C7.48249 7.78918 7.78571 8.62001 8.36062 9.24936L8.32124 9.28873C7.84312 9.75559 6.9375 10.6444 6.9375 12.135C6.9375 13.6707 7.84874 14.9757 10.785 15.6224C13.125 16.1624 13.6874 16.6181 13.6874 17.2143C13.6874 17.8107 12.7257 18.4518 11.4543 18.4518C10.1887 18.4518 8.56312 17.698 7.96125 17.2143L6.9375 19.7174C7.55624 20.1449 9.33374 21 11.4543 21C14.0981 21 16.4831 19.7624 16.4831 16.9949C16.4484 16.1446 16.1182 15.3329 15.5493 14.7C16.0078 14.369 16.3831 13.9362 16.6457 13.4353C16.9083 12.9346 17.051 12.3796 17.0625 11.8143C17.0625 9.82304 15.15 8.79372 12.9675 8.28748C10.785 7.78122 10.3125 7.37623 10.3125 6.73498C10.3125 6.09373 11.19 5.56498 12.6132 5.56498C14.0362 5.56498 15.1443 5.95873 16.1006 6.52686H16.1062ZM10.8413 10.3125L12.7537 10.8243C13.26 10.9537 14.25 11.415 14.25 12.1968C14.25 12.9787 13.5356 13.5187 13.1812 13.6874L11.3925 13.2487C10.8413 13.0687 9.74996 12.5344 9.74996 11.8312C9.74996 11.1224 10.4812 10.5262 10.8413 10.3125Z" fill="white"/>
</svg>
