<svg width="24" height="24" viewBox="0 0 24 24" fill="none" xmlns="http://www.w3.org/2000/svg">
<path fill-rule="evenodd" clip-rule="evenodd" d="M17.8313 13.7594C17.5468 13.9193 17.3868 14.146 17.3291 14.4527C17.2979 14.6393 17.3647 14.8837 17.4179 15.0571C17.5957 15.6794 17.7469 16.2127 17.8624 16.6483C17.9112 16.8527 17.9468 17.1548 17.8624 17.3594C17.7291 17.6438 17.4535 17.8971 17.1247 17.9059C16.9291 17.9059 16.7379 17.8838 16.5468 17.835C16.0846 17.7105 15.6135 17.5771 15.1202 17.4348C14.7112 17.3104 14.2846 17.2394 13.9513 17.5771C13.8623 17.6749 13.769 17.7994 13.6846 17.946L13.4935 18.3016C13.2659 18.7403 13.0167 19.1675 12.7468 19.5815C12.5424 19.8883 12.2668 20.026 11.9202 19.9949C11.7211 19.9851 11.5332 19.8991 11.3957 19.7549C11.2623 19.6127 11.1246 19.4216 10.9913 19.1815L10.3024 17.9371C10.2534 17.8482 10.1957 17.7594 10.1334 17.6705C9.84013 17.2705 9.36902 17.2838 8.94679 17.4082C8.45789 17.555 7.96901 17.6971 7.47568 17.8305C7.35123 17.8616 7.21789 17.8793 7.089 17.8971C6.91136 17.9292 6.72813 17.9039 6.56588 17.8247C6.40364 17.7456 6.27085 17.6168 6.18678 17.4571C6.08455 17.2838 6.05344 17.0838 6.09789 16.8571C6.13789 16.6483 6.18678 16.4571 6.23123 16.2749L6.62678 14.8971C6.67678 14.7514 6.68996 14.5956 6.66516 14.4437C6.64034 14.2917 6.57829 14.1482 6.48456 14.026C6.39567 13.9105 6.209 13.7727 5.92899 13.6215L4.83566 13.0215C4.64012 12.9116 4.45426 12.7851 4.2801 12.6437C3.99565 12.4171 3.94677 12.0215 4.04898 11.6837C4.13343 11.426 4.41343 11.2304 4.65343 11.0927C5.05788 10.8571 5.48011 10.6215 5.92455 10.3815C6.12208 10.288 6.30239 10.1618 6.45789 10.0082C6.72456 9.67042 6.70678 9.35487 6.58233 8.94153C6.41618 8.4066 6.26501 7.86713 6.129 7.32374C6.09704 7.19581 6.08063 7.06449 6.08011 6.93263C6.08011 6.68819 6.19567 6.46596 6.42678 6.26597C6.76012 5.99485 7.21344 6.09707 7.58233 6.20373L8.88901 6.57708C9.31124 6.70152 9.71568 6.74596 10.0313 6.4393C10.1246 6.3504 10.218 6.21707 10.3156 6.03485C10.609 5.49263 10.8934 4.98595 11.1779 4.5104C11.2223 4.43929 11.2846 4.36373 11.3647 4.27483C11.4539 4.17966 11.5635 4.1058 11.6853 4.0587C11.8071 4.01158 11.9378 3.99244 12.0679 4.00269C12.1981 4.01292 12.3243 4.05229 12.4372 4.11786C12.5501 4.18343 12.6468 4.27353 12.7201 4.3815C12.8491 4.55929 12.9646 4.7504 13.0757 4.94596L13.7513 6.16374C14.0135 6.62152 14.4179 6.77264 14.9691 6.60818C15.4758 6.46596 15.9957 6.31485 16.5247 6.17263C16.658 6.13263 16.8002 6.11485 16.938 6.09707C17.1025 6.07323 17.2703 6.09847 17.4205 6.16963C17.5708 6.24079 17.6966 6.3547 17.7823 6.49708C17.9468 6.74596 17.9291 7.07486 17.8624 7.34152C17.7231 7.87727 17.5749 8.41069 17.4179 8.94153C17.3823 9.0482 17.3557 9.16375 17.3379 9.2882C17.2668 9.68821 17.4712 10.0438 17.8268 10.2393L19.0802 10.9371C19.2669 11.0393 19.4446 11.1548 19.6135 11.2748C19.9113 11.4838 20.0357 11.7638 19.9912 12.1193C19.9646 12.3504 19.858 12.5371 19.6713 12.6838C19.5068 12.8082 19.3291 12.9237 19.1379 13.0304L17.8313 13.7594ZM17.3468 12.946C16.9627 13.1566 16.6643 13.4949 16.5035 13.9025C16.3428 14.31 16.3299 14.761 16.4669 15.1771C16.6091 15.6838 16.7424 16.1593 16.8758 16.6038C16.9024 16.7015 16.9246 16.8083 16.938 16.9149C16.938 16.9371 16.9335 16.946 16.9157 16.9415C16.7469 16.9104 16.5735 16.8705 16.3957 16.8171L15.4091 16.5283C15.1539 16.4463 14.8897 16.3955 14.6224 16.3771C13.7958 16.3683 13.2268 16.8038 12.8446 17.5104C12.5771 18.0038 12.3014 18.4927 12.0179 18.9771C12.0138 18.9796 12.0094 18.9811 12.0047 18.9816C12 18.9823 11.9952 18.9819 11.9907 18.9807C11.9861 18.9795 11.9819 18.9774 11.9781 18.9744C11.9744 18.9715 11.9713 18.9679 11.969 18.9638L11.8891 18.8305C11.6118 18.3326 11.3318 17.8363 11.0491 17.3415C10.8439 16.9699 10.518 16.6791 10.1252 16.5175C9.73253 16.3559 9.29646 16.3331 8.88901 16.4527C8.45789 16.5682 8.03568 16.6882 7.61789 16.8083C7.43376 16.8627 7.24683 16.9072 7.05789 16.9415C7.0516 16.9395 7.04628 16.9352 7.043 16.9294C7.03971 16.9237 7.03868 16.917 7.04012 16.9104C7.19503 16.3197 7.35949 15.7314 7.53345 15.146L7.55122 15.0748C7.58233 14.9416 7.61789 14.8083 7.61789 14.6749C7.6348 14.3031 7.54072 13.9347 7.3476 13.6165C7.15449 13.2983 6.87108 13.0448 6.53345 12.8883C6.02447 12.6048 5.51779 12.3175 5.01343 12.0259C5.01098 12.0225 5.00924 12.0186 5.00835 12.0144C5.00747 12.0103 5.00744 12.006 5.00827 12.0018C5.00911 11.9976 5.01078 11.9937 5.01319 11.9903C5.01561 11.9867 5.01872 11.9838 5.02232 11.9815C5.13344 11.9104 5.24455 11.8482 5.34677 11.7904L6.66678 11.0483C6.90994 10.916 7.12015 10.7307 7.28175 10.5059C7.44334 10.2812 7.55217 10.023 7.60012 9.75043C7.65346 9.40246 7.61988 9.04669 7.50233 8.71486C7.34571 8.17378 7.19311 7.63154 7.04456 7.08819C7.04596 7.08284 7.04876 7.07797 7.05265 7.07406C7.05656 7.07016 7.06144 7.06736 7.06678 7.06596H7.08012C7.18679 7.08375 7.289 7.10596 7.39123 7.13264L8.47123 7.44375C8.87123 7.56374 9.17346 7.62596 9.3779 7.63041C9.90679 7.6393 10.3601 7.45264 10.7379 7.08375C10.8624 6.9593 10.9868 6.78596 11.1113 6.56375C11.3977 6.04746 11.6881 5.53338 11.9824 5.02151C11.9864 5.01917 11.991 5.01794 11.9957 5.01794C12.0004 5.01794 12.005 5.01917 12.0091 5.02151L12.0179 5.02595C12.0979 5.14596 12.1646 5.26151 12.2268 5.36818L12.8846 6.55041C13.0357 6.81708 13.2179 7.08375 13.4623 7.26152C13.8179 7.51931 14.2046 7.6393 14.6179 7.63041C14.922 7.60875 15.2221 7.54901 15.5112 7.45264L16.4891 7.16375C16.6387 7.12484 16.79 7.09222 16.9423 7.06596L16.9468 7.07485V7.08375C16.9291 7.19931 16.9024 7.30596 16.8713 7.41264C16.7469 7.86153 16.6179 8.31486 16.4846 8.76376C16.2757 9.48375 16.3913 10.2215 16.9291 10.7459C17.0847 10.8927 17.3379 11.0615 17.6935 11.2527C18.1246 11.4883 18.5468 11.7238 18.9558 11.9637C19.0002 11.9904 19.0002 12.0171 18.9558 12.0438C18.5869 12.266 18.2091 12.4749 17.8358 12.6838L17.3512 12.9505L17.3468 12.946ZM15.1868 15.1504C15.8128 14.5167 16.2375 13.7119 16.4071 12.8375C16.5769 11.963 16.4842 11.0578 16.1407 10.2359C15.7971 9.41398 15.2183 8.71201 14.4768 8.21834C13.7352 7.72468 12.8643 7.46136 11.9735 7.46152C11.3813 7.46268 10.7952 7.58076 10.2488 7.80899C9.70237 8.03721 9.2064 8.37109 8.78933 8.79146C8.37227 9.21183 8.04231 9.71042 7.81841 10.2586C7.5945 10.8068 7.48105 11.3939 7.48457 11.986C7.48809 13.182 7.96601 14.3279 8.81341 15.1719C9.66083 16.0159 10.8086 16.4894 12.0046 16.4883C13.2002 16.4838 14.3423 16.0037 15.1868 15.1549V15.1504ZM13.0357 11.4527C13.2439 11.3411 13.4767 11.2839 13.713 11.2861C13.9491 11.2885 14.1809 11.3503 14.3869 11.4659C14.5024 11.5194 14.5913 11.5638 14.7247 11.4659L14.7513 11.4527C14.8268 11.3993 14.9024 11.3504 14.9424 11.2615C15.0047 11.1193 14.9602 10.9905 14.8268 10.9059C14.4986 10.711 14.1272 10.6 13.7458 10.5831C13.3643 10.5659 12.9846 10.6433 12.6402 10.8082C12.4446 10.9059 12.0757 11.1104 12.0402 11.3459L12.0267 11.4082C12.0135 11.4883 12.0001 11.5638 12.0001 11.6394V14.0394H12.7024C12.7519 14.0394 12.7994 14.0197 12.8343 13.9846C12.8694 13.9497 12.8891 13.9022 12.8891 13.8527V11.8215C12.8891 11.6882 12.8891 11.5194 13.0357 11.4483V11.4527ZM11.1513 11.1859C11.0668 11.426 10.8534 11.4704 10.6312 11.426C10.2845 11.3549 9.87568 11.3815 9.56457 11.5505C9.47568 11.5993 9.38678 11.6038 9.30679 11.5638C9.20934 11.5135 9.12431 11.4421 9.0579 11.3549C9.03818 11.3279 9.02401 11.2971 9.01622 11.2645C9.00844 11.2319 9.00721 11.1981 9.01258 11.165C9.01795 11.1319 9.02984 11.1003 9.04753 11.0719C9.06523 11.0434 9.08839 11.0188 9.11568 10.9993C9.38194 10.8409 9.67746 10.738 9.98452 10.6968C10.2916 10.6555 10.6038 10.6767 10.9024 10.7593C11.1113 10.8038 11.2312 10.9637 11.1513 11.1859Z" fill="white"/>
</svg>
