<svg width="24" height="24" viewBox="0 0 24 24" fill="none" xmlns="http://www.w3.org/2000/svg">
<path fill-rule="evenodd" clip-rule="evenodd" d="M12.4328 22C9.8828 21.5 4.82783 19.23 4.99783 14.18H5.00783C4.95783 13.18 5.41783 10.665 7.66282 8.62999C10.4728 6.08499 11.1078 5.235 10.9928 2C12.0178 2.6 14.0679 4.405 14.1178 6.8C14.1079 7.19499 14.0078 8.22499 13.6878 9.17499C13.2828 10.365 13.9528 11.365 14.9528 11.415C15.9628 11.46 16.7028 10.76 16.7679 9.52498C17.5679 10.325 19.1378 12.485 18.9978 14.745C18.8178 17.5699 17.4128 18.5799 16.5378 19.115C16.2683 19.2807 15.9103 19.4167 15.5135 19.5673C14.4382 19.9756 13.0793 20.4915 12.4328 22ZM16.4628 4.27V4.99C16.4578 5.10999 16.3478 5.45499 15.9628 5.84499C15.5828 6.24 15.4878 6.84499 15.4878 7.09499C15.4861 7.45855 15.5992 7.81337 15.8111 8.10879C16.0231 8.40422 16.3229 8.62512 16.6678 8.73998C16.7967 8.39227 17.0287 8.09222 17.3328 7.87999C17.7328 7.65999 17.7428 7.16999 17.7328 6.93C17.6003 5.93168 17.1558 5.00074 16.4628 4.27ZM7.99804 12.5V14.5H10.998V18H12.998V14.5H15.998V12.5H7.99804Z" fill="white"/>
</svg>
