<svg width="24" height="24" viewBox="0 0 24 24" fill="none" xmlns="http://www.w3.org/2000/svg">
<path d="M17.166 7.13259C16.5542 6.34662 15.7713 5.71037 14.8769 5.27214C13.9823 4.83391 12.9997 4.6052 12.0036 4.60337C11.0076 4.60154 10.0242 4.82664 9.12809 5.2616C8.232 5.69656 7.44677 6.32992 6.83199 7.11362C6.81777 7.12784 6.80357 7.13259 6.78935 7.1231C6.46395 6.9226 6.0983 6.7964 5.71851 6.75352C5.71643 6.74992 5.71533 6.74584 5.71533 6.74167C5.71533 6.73751 5.71643 6.73344 5.71851 6.72984C6.65436 5.39282 7.9936 4.3905 9.54023 3.86955C11.0869 3.34861 12.7596 3.33642 14.3136 3.83478C15.9138 4.34827 17.3039 5.36758 18.2748 6.7393C18.2752 6.74372 18.2745 6.74816 18.2728 6.75227C18.2712 6.75639 18.2687 6.76006 18.2653 6.763L18.251 6.76774C17.8812 6.81493 17.5257 6.94097 17.2087 7.13732C17.1944 7.1468 17.1803 7.1468 17.166 7.13259Z" fill="white"/>
<path d="M16.3609 7.83849C15.8474 7.16537 15.1854 6.62 14.4263 6.2449C13.6673 5.8698 12.8319 5.67512 11.9852 5.67604C11.1386 5.67696 10.3037 5.87345 9.54545 6.25019C8.78724 6.62693 8.12633 7.17374 7.61423 7.84796C7.61056 7.84796 7.60694 7.8471 7.60364 7.84546C7.60036 7.84382 7.59749 7.84143 7.59529 7.83849C7.44788 7.64215 7.27769 7.46402 7.0883 7.3078C7.07408 7.29833 7.07408 7.28884 7.0883 7.27464C7.67559 6.53335 8.42323 5.9348 9.27504 5.52392C10.1269 5.11305 11.0607 4.90054 12.0064 4.90236C12.9522 4.90418 13.8852 5.12029 14.7354 5.53445C15.5856 5.9486 16.331 6.55005 16.9154 7.29358C16.9157 7.298 16.9151 7.30244 16.9134 7.30655C16.9117 7.31066 16.9092 7.31434 16.9059 7.31728C16.7069 7.46747 16.5313 7.64631 16.3847 7.84796C16.3803 7.8488 16.3757 7.84836 16.3715 7.84668C16.3672 7.84499 16.3636 7.84216 16.3609 7.83849Z" fill="white"/>
<path fill-rule="evenodd" clip-rule="evenodd" d="M7.81222 8.90822C7.80789 8.90476 7.80492 8.8999 7.80381 8.89445C7.70044 8.41923 7.45691 7.98594 7.10467 7.6506C6.75244 7.31525 6.3077 7.09328 5.82797 7.01338C5.33826 6.94021 4.83787 7.01629 4.39204 7.23168C3.94619 7.44709 3.57559 7.79183 3.32856 8.22094C3.08152 8.65006 2.96952 9.14364 3.00712 9.6374C3.04473 10.131 3.23022 10.602 3.53941 10.9888C3.8255 11.3465 4.20706 11.6161 4.63993 11.7661C5.07281 11.916 5.53931 11.9404 5.98546 11.8363C6.43162 11.7323 6.83915 11.5039 7.16096 11.1778C7.48274 10.8518 7.70564 10.4411 7.80381 9.99373C7.80855 9.97946 7.81329 9.97482 7.82751 9.97482H9.18264C9.18705 9.97515 9.19149 9.97449 9.1956 9.97283C9.19972 9.97118 9.20339 9.96863 9.20633 9.96532C9.14075 9.62734 9.14075 9.27984 9.20633 8.94184V8.92763C9.20515 8.92436 9.20325 8.92139 9.20081 8.91893C9.19835 8.91648 9.19538 8.91458 9.19211 8.91341H7.82751C7.82196 8.91353 7.81655 8.9117 7.81222 8.90822ZM6.76033 10.3327C6.93548 10.0691 7.02962 9.76012 7.03115 9.4437C7.03115 9.23048 6.98851 9.01726 6.90797 8.82773C6.79026 8.53334 6.58686 8.28111 6.32411 8.10369C6.06137 7.92629 5.7514 7.83188 5.43437 7.83269C5.11812 7.83752 4.81025 7.93504 4.5489 8.11318C4.28756 8.29134 4.08425 8.54226 3.96418 8.83487C3.84411 9.12748 3.81255 9.4489 3.87344 9.75923C3.93432 10.0697 4.08497 10.3553 4.30667 10.5809C4.52887 10.8055 4.81324 10.9585 5.12315 11.0202C5.43307 11.0818 5.75434 11.0493 6.04561 10.9268C6.33674 10.8028 6.5852 10.5963 6.76033 10.3327Z" fill="white"/>
<path fill-rule="evenodd" clip-rule="evenodd" d="M10.9687 9.97454H16.1571C16.176 9.97454 16.1902 9.98394 16.1902 10.003C16.3156 10.5848 16.6526 11.0994 17.1359 11.4468C17.6191 11.7944 18.2142 11.9502 18.8057 11.884C19.1361 11.8538 19.4565 11.7547 19.7461 11.5931C20.0359 11.4315 20.2886 11.211 20.4877 10.9458C20.8215 10.5122 21.0016 9.97985 20.9999 9.43269C20.9981 8.88553 20.8147 8.35441 20.4783 7.92284C20.1954 7.55836 19.8147 7.28192 19.3806 7.12581C18.9464 6.96969 18.4769 6.94036 18.0266 7.04123C17.5764 7.1421 17.1641 7.36902 16.8382 7.69545C16.5122 8.02189 16.2858 8.43437 16.1855 8.8847C16.1833 8.89304 16.1785 8.9004 16.1714 8.90556C16.1646 8.91074 16.1562 8.9134 16.1476 8.91312H10.9498C10.9398 8.91231 10.93 8.91462 10.9215 8.91972C10.913 8.92482 10.9063 8.93246 10.9024 8.94156C10.7744 9.25902 10.7744 9.59068 10.8928 9.92236C10.8981 9.93817 10.9083 9.95188 10.9219 9.96127C10.9356 9.97067 10.9521 9.97531 10.9687 9.97454ZM19.883 10.3335C20.0591 10.0698 20.1539 9.76039 20.1557 9.44342V9.43866C20.1604 9.12046 20.0695 8.80816 19.895 8.54208C19.7204 8.276 19.47 8.06836 19.1763 7.94595C18.8825 7.82355 18.5588 7.79199 18.2468 7.85538C17.935 7.91875 17.6493 8.07415 17.4265 8.3015C17.2034 8.52764 17.0516 8.81439 16.9902 9.12609C16.9287 9.43778 16.9601 9.76073 17.0807 10.0547C17.1592 10.2498 17.2756 10.4271 17.4233 10.5769C17.5709 10.7265 17.7468 10.8453 17.9408 10.9265C18.1348 11.0076 18.343 11.0493 18.5531 11.0493C18.7634 11.0493 18.9715 11.0076 19.1655 10.9265C19.4575 10.8032 19.707 10.597 19.883 10.3335Z" fill="white"/>
<path d="M5.56191 8.56703C5.52646 8.56056 5.49358 8.54412 5.46715 8.51964L5.4624 8.50542V8.49121H5.49082C5.51926 8.50542 5.54769 8.52438 5.57138 8.54806C5.59981 8.56703 5.59507 8.5765 5.56191 8.56703ZM18.9712 8.75656L18.9473 8.77076C18.9451 8.77161 18.9432 8.77303 18.9416 8.77486C18.9399 8.77671 18.9389 8.77892 18.9384 8.78129C18.9379 8.78367 18.938 8.78612 18.9388 8.78842C18.9396 8.79073 18.9409 8.79281 18.9427 8.79446L19.0468 8.96029C19.0468 8.96977 19.0611 8.97451 19.0658 8.96503L19.0943 8.95082C19.0963 8.94953 19.0978 8.94775 19.099 8.9457C19.1 8.94363 19.1006 8.94132 19.1006 8.93898C19.1006 8.93662 19.1 8.93431 19.099 8.93226C19.0978 8.93019 19.0963 8.92842 19.0943 8.92713L18.9947 8.76129C18.9935 8.75933 18.9917 8.75773 18.9897 8.75662C18.9876 8.75551 18.9853 8.75493 18.9829 8.75493C18.9806 8.75493 18.9783 8.75551 18.9762 8.75662C18.9741 8.75773 18.9723 8.75933 18.9712 8.76129V8.75656Z" fill="white"/>
<path d="M18.8437 9.37834C18.9052 9.47308 18.9621 9.53477 18.9763 9.52527C18.9905 9.51576 18.9526 9.43527 18.891 9.34516C18.8294 9.25991 18.7726 9.19357 18.7584 9.20305C18.7441 9.21253 18.7819 9.29308 18.8437 9.37834Z" fill="white"/>
<path d="M19.9101 9.52944C19.9196 9.39201 19.9101 9.22141 19.8722 9.0224C19.8713 9.07858 19.8794 9.13454 19.8958 9.18824C19.8983 9.19554 19.8987 9.20336 19.8971 9.21086C19.8954 9.21837 19.8916 9.22529 19.8865 9.23088C19.8817 9.2451 19.8722 9.2451 19.8627 9.2451C19.8538 9.24679 19.8446 9.2459 19.8362 9.24254C19.8279 9.23919 19.8207 9.23349 19.8154 9.22614L19.7254 9.10769L19.7158 9.10295C19.7119 9.10154 19.7075 9.10124 19.7033 9.10207C19.6992 9.1029 19.6953 9.10484 19.6922 9.10769C19.6659 9.21144 19.6532 9.31816 19.6543 9.42518C19.6543 9.51517 19.6353 9.52469 19.5927 9.43933C19.5816 9.41733 19.572 9.3961 19.5628 9.37587C19.5245 9.29142 19.493 9.22183 19.3937 9.16455H19.3463C19.2372 9.18824 19.1425 9.17402 19.0667 9.12663C19.0334 9.10295 19.0241 9.11243 19.043 9.1456C19.0809 9.22141 19.1378 9.2451 19.2135 9.22614C19.2245 9.22194 19.2365 9.22152 19.2476 9.22496C19.2588 9.2284 19.2685 9.2355 19.2752 9.2451C19.2821 9.25477 19.2859 9.26636 19.2859 9.27827C19.2859 9.29016 19.2821 9.30176 19.2752 9.31144C19.2089 9.40616 19.1141 9.48676 18.9909 9.54835C18.9767 9.5531 18.9719 9.5626 18.9814 9.572L18.9956 9.59102C19.0003 9.60041 19.0098 9.60041 19.0193 9.60041L19.1189 9.5531C19.1472 9.54358 19.1567 9.54834 19.1472 9.57676C19.1123 9.70776 19.029 9.79456 18.942 9.88522C18.9346 9.89284 18.9272 9.9007 18.9199 9.90843C18.9008 9.92744 18.8914 9.9511 18.8914 9.97477C18.8897 10.014 18.8978 10.0532 18.9151 10.0885C18.9202 10.0989 18.9235 10.1101 18.9245 10.1217C18.9262 10.1414 18.9216 10.1612 18.9113 10.1782C18.9011 10.1952 18.8858 10.2086 18.8677 10.2165C18.8498 10.2247 18.8339 10.2365 18.8209 10.2511C18.8078 10.2659 18.798 10.283 18.7919 10.3017C18.735 10.4628 18.6308 10.5386 18.4744 10.5291C18.4636 10.5287 18.453 10.5254 18.4439 10.5196C18.4347 10.5137 18.4273 10.5056 18.4223 10.4959L18.2801 10.2306C18.2752 10.222 18.2725 10.2122 18.2725 10.2022C18.2725 10.1922 18.2752 10.1824 18.2801 10.1738C18.3369 10.0743 18.2849 9.96526 18.209 9.89428C18.2018 9.88566 18.1976 9.87471 18.1976 9.86344C18.1976 9.85216 18.2018 9.84121 18.209 9.83258C18.2164 9.8212 18.2213 9.80827 18.2233 9.79477C18.2253 9.78527 18.224 9.77554 18.2197 9.76691C18.2153 9.75829 18.2082 9.75144 18.1997 9.74735L18.1048 9.69992C18.0906 9.69052 18.0764 9.68577 18.0575 9.68577H17.8632C17.8514 9.68687 17.8394 9.68344 17.8301 9.67625C17.6974 9.54834 17.6783 9.42043 17.7353 9.24983C17.7572 9.1894 17.8015 9.15127 17.8477 9.11141C17.8813 9.08253 17.9158 9.05275 17.9437 9.01293C17.9493 9.0057 17.9565 8.99982 17.9647 8.99573C17.973 8.99162 17.982 8.98941 17.9912 8.98924L18.2612 8.95606C18.2801 8.95606 18.2896 8.96554 18.2896 8.9845C18.2991 9.06505 18.427 9.15507 18.4981 9.08399C18.5032 9.07939 18.5096 9.07647 18.5163 9.07563C18.5231 9.07478 18.53 9.07604 18.5359 9.07927C18.5967 9.1016 18.6623 9.10653 18.7256 9.09347C18.7635 9.08873 18.7871 9.05083 18.7824 9.01293C18.7777 8.99396 18.7681 8.9845 18.7492 8.9845H18.6781C18.6497 8.9845 18.6261 8.97028 18.6166 8.9466C18.6118 8.93238 18.6118 8.9229 18.6261 8.91342C18.6735 8.88666 18.7291 8.87823 18.7824 8.88973C18.8771 8.90394 18.8867 8.88026 18.8108 8.8234C18.7729 8.79497 18.7303 8.79023 18.6734 8.79497C18.6644 8.79576 18.6559 8.79939 18.6491 8.80535C18.6422 8.81131 18.6374 8.81929 18.6355 8.82813C18.6293 8.85138 18.6176 8.8727 18.601 8.8901C18.5843 8.9075 18.5637 8.92042 18.5407 8.92763C18.5218 8.93238 18.5076 8.92763 18.5028 8.90394C18.4887 8.85182 18.465 8.80443 18.4176 8.76179H18.408L18.3844 8.77127V8.79497C18.4021 8.81183 18.4157 8.83262 18.4239 8.85566C18.4322 8.8787 18.4348 8.90335 18.4318 8.92763V8.93712H18.4128C18.4033 8.93712 18.4033 8.93238 18.4033 8.92763C18.3987 8.87552 18.3701 8.83287 18.3228 8.80443C18.3116 8.79669 18.2985 8.79254 18.2849 8.79254C18.2713 8.79254 18.2581 8.79669 18.2469 8.80443L18.0716 8.93238C18.0631 8.93971 18.0522 8.94375 18.0409 8.94375C18.0296 8.94375 18.0187 8.93971 18.0101 8.93238C17.9768 8.89446 17.9816 8.84709 18.0243 8.79023C18.0384 8.77601 18.0527 8.77601 18.0716 8.77601L18.1095 8.79023C18.1379 8.79497 18.1523 8.78549 18.1569 8.76179L18.1617 8.71915C18.1631 8.71104 18.1664 8.70337 18.1713 8.69678C18.1763 8.6902 18.1828 8.68487 18.1901 8.68125L18.3607 8.58648C18.3796 8.58175 18.3987 8.577 18.4176 8.58175C18.4934 8.59596 18.5502 8.56754 18.5977 8.5012C18.607 8.48225 18.6023 8.47277 18.5881 8.46329L18.5739 8.45381C18.555 8.44433 18.5407 8.44908 18.5266 8.46329L18.4981 8.51542C18.4839 8.52962 18.4696 8.53436 18.4507 8.52489L18.3891 8.5012L18.3796 8.49172L18.3749 8.48225V8.47277L18.3844 8.46329L18.3893 8.45894C18.4664 8.39138 18.6093 8.26631 18.7066 8.35905C18.7113 8.36378 18.7161 8.37326 18.7066 8.38275C18.7053 8.38899 18.7053 8.39544 18.7066 8.40169C18.7066 8.42539 18.7161 8.43011 18.7303 8.41117C18.7824 8.35905 18.844 8.32589 18.9245 8.31167C18.9434 8.31167 18.9434 8.30692 18.9293 8.29745C18.9008 8.27376 18.8914 8.24534 18.8914 8.20742C18.8921 8.20087 18.8948 8.19467 18.8989 8.1896C18.9031 8.18453 18.9088 8.18084 18.9151 8.179L18.9625 8.16952C19.0098 8.16004 19.0098 8.15057 18.9625 8.13161C18.6687 8.03685 18.3038 8.05107 18.0053 8.19322C17.9229 8.231 17.8752 8.29124 17.8229 8.35761C17.803 8.38277 17.7824 8.40881 17.759 8.43486L17.7211 8.45855C17.6168 8.49172 17.5315 8.54858 17.4652 8.63387C17.2614 8.91342 17.1903 9.20719 17.2519 9.51042C17.2667 9.57532 17.2998 9.62374 17.3342 9.67382C17.3549 9.70423 17.3762 9.73529 17.3941 9.77101C17.4047 9.78803 17.4097 9.80793 17.4082 9.82794C17.3893 9.95586 17.3989 10.0648 17.4321 10.1596C17.4585 10.235 17.5024 10.3031 17.56 10.3586C17.7837 10.596 18.084 10.7469 18.408 10.785C18.59 10.806 18.7743 10.7897 18.9497 10.7372C19.1252 10.6847 19.2881 10.597 19.4285 10.4795C19.569 10.362 19.6842 10.2173 19.7669 10.0539C19.8497 9.89063 19.8985 9.71219 19.9101 9.52944Z" fill="white"/>
<path fill-rule="evenodd" clip-rule="evenodd" d="M5.67638 8.93753L5.75692 9.10809V9.11284C5.77114 9.13652 5.76639 9.14127 5.74745 9.12705C5.71567 9.10208 5.69694 9.07278 5.67877 9.04432C5.65899 9.01337 5.63986 8.98343 5.6053 8.9612C5.59108 8.95174 5.57213 8.947 5.55318 8.95174C5.50106 8.96596 5.4442 8.97068 5.3826 8.96595C5.37338 8.96575 5.36424 8.96781 5.35599 8.97194C5.34773 8.97607 5.3406 8.98214 5.33521 8.98964C5.27363 9.07967 5.26888 9.25498 5.41104 9.26446C5.4207 9.26414 5.43012 9.26136 5.43842 9.25639C5.4467 9.25141 5.45359 9.24441 5.45841 9.23603C5.46955 9.21761 5.48223 9.20017 5.49632 9.18391C5.5032 9.17864 5.51141 9.17536 5.52002 9.17443C5.523 9.17313 5.52623 9.17245 5.52949 9.17245C5.53275 9.17245 5.53598 9.17313 5.53896 9.17443C5.55792 9.18391 5.56266 9.19812 5.55792 9.22182L5.52949 9.28341C5.52002 9.3071 5.52949 9.32133 5.55318 9.32133L5.62899 9.33549C5.63447 9.33604 5.63977 9.33769 5.64453 9.34046C5.64929 9.34322 5.65339 9.34698 5.65656 9.35152C5.65971 9.35604 5.66185 9.36125 5.66281 9.36666C5.66378 9.37208 5.66355 9.37761 5.66216 9.38291C5.65537 9.40193 5.65355 9.42238 5.65686 9.44228C5.66018 9.46218 5.66853 9.48086 5.68111 9.49668C5.68381 9.5 5.68527 9.50419 5.68527 9.5085C5.68527 9.51282 5.68381 9.51691 5.68111 9.52034L5.67163 9.53449C5.57 9.41 5.42712 9.32597 5.26888 9.29762C5.21676 9.28816 5.16938 9.26446 5.122 9.23129C5.10304 9.22182 5.09357 9.2076 5.08884 9.18391C5.06987 9.09863 5.0225 9.02281 4.95143 8.96595C4.91174 8.93348 4.89128 8.88727 4.87123 8.84196C4.86494 8.82778 4.8587 8.81367 4.85192 8.80011C4.79506 8.71009 4.83771 8.61533 4.89931 8.54425C4.91353 8.53478 4.91825 8.51582 4.91825 8.49686V8.31207C4.91435 8.30595 4.90823 8.30155 4.90119 8.2998C4.89414 8.29803 4.88668 8.29904 4.88035 8.3026L4.80928 8.31682C4.77137 8.31682 4.77137 8.30734 4.80454 8.29313C4.84125 8.27483 4.87484 8.25085 4.90404 8.22204C4.94195 8.18415 4.93721 8.1794 4.88983 8.2031C4.61046 8.33117 4.38209 8.54921 4.24123 8.82234C4.10035 9.09549 4.05513 9.40801 4.11276 9.70983C4.20285 10.0327 4.409 10.3109 4.69164 10.491C4.97429 10.6713 5.31351 10.7407 5.64422 10.6861C5.67936 10.6802 5.71416 10.673 5.74852 10.6646C5.83687 10.533 5.90909 10.3793 5.95528 10.2073C5.95744 10.201 5.95829 10.1945 5.95778 10.1879C5.95727 10.1814 5.95538 10.175 5.95226 10.1692C5.94914 10.1635 5.94485 10.1584 5.93965 10.1543C5.93447 10.1502 5.92848 10.1473 5.9221 10.1457C5.84291 10.1193 5.80508 10.0493 5.76701 9.97872C5.75041 9.94797 5.73376 9.91713 5.71362 9.88982C5.70866 9.88308 5.70523 9.87545 5.7036 9.86716C5.70196 9.85898 5.70215 9.85058 5.70414 9.8425C5.71362 9.78557 5.7231 9.73349 5.761 9.68606C5.79417 9.64814 5.80839 9.60558 5.80839 9.5629C5.80839 9.544 5.80839 9.53449 5.81786 9.52498C5.88419 9.45389 5.96 9.41133 6.05477 9.4445C6.09267 9.45864 6.13059 9.4634 6.16849 9.45864C6.18745 9.45864 6.19692 9.45864 6.20639 9.47291C6.25378 9.52498 6.30116 9.5534 6.36276 9.56765C6.3817 9.56765 6.39592 9.57241 6.41014 9.58656C6.42471 9.60116 6.43561 9.61851 6.44649 9.63576C6.46036 9.65776 6.47417 9.67966 6.49543 9.69557C6.53807 9.72399 6.58071 9.743 6.62335 9.7524C6.62973 9.75362 6.63569 9.75638 6.64066 9.76058C6.64563 9.76467 6.64947 9.77009 6.65179 9.77617C6.65471 9.78203 6.65623 9.78856 6.65623 9.79507C6.65623 9.80171 6.65471 9.80812 6.65179 9.81398C6.62456 9.85886 6.60329 9.90641 6.58212 9.95372C6.54065 10.0465 6.49956 10.1383 6.41488 10.2073C6.37623 10.2404 6.34331 10.2779 6.31029 10.3153C6.25824 10.3745 6.20594 10.4339 6.13059 10.4773C6.06157 10.5162 5.9949 10.5592 5.93094 10.6056C6.14576 10.519 6.33653 10.3783 6.48348 10.1951C6.69318 9.9336 6.7989 9.60392 6.78038 9.26919C6.74721 9.13654 6.69984 8.98968 6.65247 8.8428C6.54822 8.50165 6.17862 8.241 5.86116 8.13202C5.83273 8.11782 5.828 8.12255 5.85642 8.14149L5.89434 8.16993C5.91329 8.18167 5.9269 8.20039 5.93224 8.22204C5.93394 8.23017 5.93396 8.23857 5.93234 8.24671C5.93071 8.25485 5.92746 8.26258 5.92276 8.26944C5.91803 8.27891 5.90855 8.27891 5.89906 8.26944C5.79956 8.19836 5.70006 8.14624 5.6053 8.12255C5.59974 8.12106 5.59394 8.12071 5.58823 8.12151C5.58253 8.12233 5.57705 8.1243 5.57213 8.12729C5.5625 8.13408 5.55574 8.14421 5.55318 8.15571C5.5514 8.18083 5.54357 8.20515 5.53038 8.22661C5.51717 8.24805 5.49899 8.26599 5.47738 8.27891C5.39682 8.32629 5.40629 8.35947 5.50106 8.37367C5.52347 8.37636 5.54495 8.38416 5.56385 8.39649C5.58275 8.40881 5.59855 8.42532 5.61005 8.44475L5.61951 8.45422C5.6225 8.45552 5.62573 8.4562 5.62899 8.4562C5.63226 8.4562 5.63548 8.45552 5.63847 8.45422L5.64794 8.44949C5.6669 8.42579 5.67163 8.39736 5.65269 8.36419C5.64321 8.34525 5.64321 8.32155 5.64321 8.29786C5.64794 8.27891 5.64321 8.26469 5.63372 8.25048L5.60056 8.2031C5.58635 8.18415 5.59108 8.16993 5.61477 8.16993C5.6556 8.17216 5.69429 8.18897 5.72375 8.21732L5.72849 8.23152C5.73077 8.23733 5.73107 8.24372 5.72936 8.24971C5.72764 8.2557 5.72402 8.26096 5.71902 8.26469C5.70955 8.26943 5.70955 8.28365 5.70955 8.29313C5.71185 8.29917 5.7157 8.30453 5.72066 8.30867C5.72564 8.31282 5.7316 8.31563 5.73797 8.31682C5.85642 8.3405 5.95592 8.40211 6.03647 8.49686L6.02701 8.50634H6.01279C5.9654 8.47318 5.91328 8.46369 5.8659 8.47791L5.85642 8.48266V8.49213C5.85593 8.49587 5.85657 8.49967 5.85826 8.50305C5.85996 8.50643 5.86261 8.50922 5.8659 8.51108L5.96067 8.55846C5.96487 8.56037 5.96825 8.56373 5.97014 8.56794V8.58216C5.96067 8.59636 5.95119 8.60111 5.93224 8.59636C5.91328 8.59164 5.88486 8.59636 5.8659 8.61533C5.80904 8.6627 5.77114 8.72431 5.76166 8.80485C5.76003 8.81933 5.75332 8.83277 5.74271 8.84276L5.68585 8.89962C5.67638 8.90909 5.67163 8.92331 5.67638 8.93753ZM5.8226 9.16016C5.79891 9.15542 5.79891 9.1649 5.81311 9.17911H5.85577L5.86997 9.18386C5.90315 9.21228 5.93631 9.21702 5.96474 9.2028C5.98844 9.19807 5.9837 9.1886 5.96474 9.17911C5.91736 9.1649 5.86997 9.16016 5.8226 9.16016Z" fill="white"/>
<path d="M8.75154 18.3064C7.51556 17.7218 6.45538 16.8219 5.67767 15.6972C4.89995 14.5728 4.43213 13.2632 4.32129 11.9004H4.34025C4.66244 12.0425 5.01781 12.1231 5.41581 12.1373C5.42803 12.1384 5.43947 12.1437 5.44813 12.1523C5.4568 12.161 5.46213 12.1725 5.4632 12.1847C5.62335 13.3164 6.07119 14.3882 6.76389 15.2973C7.4566 16.2066 8.37099 16.9229 9.41962 17.3778C9.43857 17.3872 9.44806 17.4014 9.44331 17.4204C9.34944 17.7938 9.33332 18.1825 9.39593 18.5623C9.39287 18.5634 9.38951 18.5634 9.38645 18.5623C9.17323 18.4959 8.96001 18.4107 8.75154 18.3064Z" fill="white"/>
<path d="M9.46583 17.0716C8.48484 16.6278 7.63178 15.9434 6.98572 15.0819C6.33967 14.2205 5.92151 13.2099 5.77002 12.144C5.77217 12.1391 5.77545 12.1349 5.77957 12.1315C5.7837 12.1282 5.78854 12.1261 5.79371 12.125C6.03764 12.0919 6.27644 12.0283 6.50445 11.9354C6.50771 11.9367 6.51067 11.9385 6.51314 11.9409C6.51559 11.9434 6.51749 11.9464 6.51866 11.9497C6.63647 12.9192 7.00832 13.8404 7.59658 14.62C8.18484 15.3997 8.96861 16.0101 9.86856 16.3894C9.88758 16.3989 9.88758 16.413 9.87808 16.4273C9.73591 16.6168 9.61745 16.8205 9.51795 17.048C9.50848 17.0716 9.48953 17.0812 9.46583 17.0669V17.0716ZM18.2363 12.1581C18.0795 13.2277 17.6539 14.2401 16.9993 15.1002C16.3445 15.9604 15.4823 16.6404 14.4931 17.0764C14.4883 17.073 14.4849 17.068 14.4836 17.0623C14.3874 16.8267 14.2598 16.6052 14.1045 16.4036L14.1093 16.3941H14.1188C15.0238 16.013 15.8121 15.3994 16.4037 14.6156C16.9953 13.8318 17.3692 12.9055 17.4876 11.9307H17.5066C17.7355 12.0332 17.9782 12.1018 18.2268 12.1344C18.2299 12.1376 18.2323 12.1413 18.2339 12.1454C18.2355 12.1495 18.2363 12.1538 18.2363 12.1581Z" fill="white"/>
<path d="M19.6778 11.9455C19.5459 13.4009 19.008 14.7901 18.1249 15.9546C17.242 17.119 16.0495 18.012 14.6837 18.5317C14.6812 18.5302 14.6789 18.5282 14.6773 18.5256C14.6756 18.5232 14.6746 18.5204 14.6742 18.5175C14.7334 18.1415 14.7125 17.7572 14.6126 17.3898C14.6031 17.3707 14.6126 17.3566 14.6317 17.3471C15.6695 16.887 16.5723 16.1692 17.2548 15.262C17.9374 14.3548 18.3767 13.2882 18.5311 12.1634C18.5311 12.1445 18.5454 12.1351 18.5691 12.1351C18.9428 12.1367 19.3132 12.0642 19.6588 11.9219C19.6629 11.9223 19.6669 11.9239 19.6702 11.9265C19.6736 11.929 19.6762 11.9323 19.6778 11.936V11.9455Z" fill="white"/>
<path fill-rule="evenodd" clip-rule="evenodd" d="M10.0619 10.9315C10.406 11.3818 10.8956 11.6985 11.4473 11.8278V11.823C11.4662 11.8278 11.4758 11.8421 11.4758 11.861V15.6468C11.4759 15.6512 11.475 15.6556 11.4734 15.6596C11.4718 15.6638 11.4694 15.6674 11.4662 15.6705C11.0352 15.7709 10.639 15.9853 10.3194 16.2913C9.99947 16.5975 9.76793 16.9839 9.64877 17.4102C9.5296 17.8364 9.52724 18.287 9.64193 18.7145C9.75661 19.1419 9.9841 19.5307 10.3006 19.8402C10.695 20.2255 11.2087 20.465 11.7574 20.5193C12.306 20.5735 12.8567 20.4393 13.3189 20.1387C13.7223 19.877 14.0401 19.5028 14.2331 19.0622C14.4261 18.6217 14.4856 18.1343 14.4045 17.6604C14.3233 17.1865 14.1049 16.7466 13.7763 16.3955C13.4479 16.0444 13.0236 15.7973 12.556 15.6847C12.5472 15.6827 12.5392 15.678 12.5333 15.6711C12.5272 15.6644 12.5237 15.6558 12.5228 15.6468V11.8752C12.5228 11.8562 12.5324 11.8421 12.5466 11.8421C12.9235 11.7513 13.2739 11.5733 13.5694 11.3222C13.8648 11.0712 14.0972 10.7543 14.2476 10.3969V10.3874C14.2476 10.3836 14.2468 10.3801 14.2452 10.3768C14.2434 10.3735 14.241 10.3706 14.2381 10.3684L14.2287 10.3637H13.3521C13.3393 10.3642 13.3268 10.3674 13.3154 10.3732C13.3039 10.3788 13.2938 10.387 13.2858 10.3969C13.0431 10.736 12.6757 10.9649 12.2643 11.0334C11.853 11.1018 11.4313 11.0041 11.092 10.7616C10.91 10.6337 10.7564 10.4693 10.6406 10.2793C10.5248 10.0891 10.4496 9.8772 10.4193 9.65675C10.3891 9.43629 10.4047 9.2119 10.4649 8.99767C10.5252 8.78343 10.629 8.58391 10.7697 8.41155C10.924 8.22466 11.1187 8.07546 11.3394 7.97527C11.56 7.87508 11.8006 7.82656 12.0428 7.83342C12.285 7.84027 12.5224 7.90231 12.737 8.01482C12.9516 8.12732 13.1377 8.28732 13.2811 8.48262C13.2864 8.49011 13.2936 8.4962 13.3018 8.50032C13.3101 8.50445 13.3192 8.50651 13.3284 8.50631H14.2239C14.2476 8.50631 14.2524 8.49684 14.2429 8.47314C14.0695 8.06233 13.7871 7.70666 13.4264 7.44448C13.0657 7.1823 12.6403 7.02355 12.1959 6.98534C11.865 6.95882 11.5323 7.00008 11.2178 7.10662C10.9035 7.21315 10.6142 7.38272 10.3675 7.60493C10.1209 7.82714 9.92219 8.09732 9.78365 8.39896C9.64506 8.7006 9.56948 9.02734 9.56151 9.35923C9.54109 9.92541 9.71798 10.4812 10.0619 10.9315ZM13.1252 19.2154C13.424 18.914 13.5922 18.507 13.5934 18.0826C13.5922 17.6582 13.424 17.2514 13.1252 16.9499C12.8263 16.6484 12.421 16.4766 11.9966 16.4717C11.5906 16.5027 11.2114 16.6861 10.9348 16.9847C10.6582 17.2834 10.5045 17.6755 10.5045 18.0826C10.5045 18.4898 10.6582 18.8819 10.9348 19.1806C11.2114 19.4792 11.5906 19.6625 11.9966 19.6936C12.421 19.6886 12.8263 19.5169 13.1252 19.2154Z" fill="white"/>
<path fill-rule="evenodd" clip-rule="evenodd" d="M12.1776 16.937C12.2154 16.9417 12.2202 16.9606 12.1965 16.9844C12.1397 17.046 12.0828 17.0792 12.0165 17.0933C12.0087 17.0938 12.0011 17.0963 11.9946 17.1005C11.9879 17.1046 11.9824 17.1102 11.9786 17.1171C11.9597 17.1549 11.9643 17.1928 11.9976 17.2402C12.0009 17.245 12.0059 17.2484 12.0117 17.2497H12.026C12.1397 17.2071 12.206 17.1455 12.2343 17.0507C12.2439 17.0222 12.2487 17.0222 12.2487 17.0507C12.2541 17.0928 12.2477 17.1354 12.2298 17.1739C12.2062 17.2246 12.1474 17.2368 12.0955 17.2475C12.0845 17.2497 12.0739 17.252 12.0639 17.2544C12.0587 17.2555 12.0538 17.2576 12.0498 17.261C12.0455 17.2643 12.0424 17.2685 12.0401 17.2734C12.0354 17.2875 12.026 17.2923 12.0117 17.2829C11.9597 17.2544 11.9265 17.2212 11.9075 17.1739C11.9038 17.1612 11.8964 17.15 11.8862 17.1415C11.8761 17.1331 11.8638 17.1279 11.8506 17.1264H11.8032C11.7654 17.136 11.7606 17.1502 11.7796 17.1834C11.9122 17.4013 11.6611 17.515 11.4953 17.5387C11.4242 17.5435 11.4099 17.5766 11.4526 17.6335C11.4953 17.695 11.4905 17.7566 11.4337 17.8229C11.4251 17.8304 11.4142 17.8344 11.4028 17.8344C11.3916 17.8344 11.3806 17.8304 11.3721 17.8229C11.3614 17.8141 11.3527 17.8052 11.3442 17.7966C11.3302 17.7822 11.317 17.7685 11.2963 17.7566C11.2204 17.714 11.173 17.6383 11.1541 17.5435L11.1494 17.5245L11.1304 17.515C11.1249 17.5132 11.1191 17.5127 11.1133 17.5135C11.1075 17.5144 11.1021 17.5165 11.0973 17.5197C11.0072 17.5956 10.9456 17.6809 10.8983 17.785C10.8924 17.802 10.8924 17.8203 10.8983 17.8372L10.9172 17.9083C10.9314 17.9462 10.922 17.9462 10.8935 17.9177C10.8413 17.8609 10.832 17.7519 10.8651 17.6003C10.8704 17.5824 10.8711 17.5634 10.8669 17.5451C10.8627 17.5267 10.8539 17.51 10.8413 17.4961L10.832 17.4819C10.8293 17.4796 10.8259 17.4782 10.8224 17.4782C10.8189 17.4782 10.8156 17.4796 10.8129 17.4819L10.8082 17.4865C10.7907 17.5624 10.7637 17.6356 10.7277 17.7046C10.6423 17.8751 10.6234 18.0836 10.6471 18.2732C10.6718 18.485 10.7454 18.6882 10.8622 18.8667C10.979 19.045 11.1356 19.1939 11.3199 19.3014C11.5304 19.4259 11.7663 19.4321 12.0015 19.4383C12.0524 19.4397 12.1032 19.441 12.1539 19.4434C12.2723 19.4482 12.3813 19.4293 12.4855 19.3818C12.7375 19.28 12.9534 19.1051 13.1055 18.8797C13.2574 18.6543 13.3386 18.3886 13.3386 18.1167C13.3386 17.845 13.2574 17.5793 13.1055 17.3539C12.9534 17.1284 12.7375 16.9535 12.4855 16.8517C12.4794 16.849 12.4727 16.8481 12.466 16.849C12.4593 16.8498 12.453 16.8524 12.4476 16.8564C12.4433 16.8599 12.4399 16.8642 12.4374 16.869C12.435 16.874 12.4336 16.8794 12.4333 16.8849V16.9322C12.4333 16.9464 12.424 16.9559 12.4098 16.9559H12.3861L12.367 16.937L12.3624 16.8895L12.3529 16.8706C12.3481 16.8611 12.3434 16.8611 12.3387 16.8611L12.1302 16.8706H12.1207C12.1167 16.8726 12.1133 16.8756 12.111 16.8794C12.1085 16.8832 12.1074 16.8876 12.1074 16.892C12.1074 16.8964 12.1085 16.9008 12.111 16.9046C12.1133 16.9084 12.1167 16.9113 12.1207 16.9133C12.1378 16.9253 12.1571 16.9333 12.1776 16.937ZM11.7555 17.6287C11.7413 17.6572 11.7508 17.6857 11.7744 17.7046C11.7928 17.7169 11.8063 17.7354 11.8123 17.7568L11.8455 17.9083C11.8503 17.9226 11.8598 17.9272 11.8693 17.9226H11.8882C11.8923 17.922 11.8963 17.9205 11.8996 17.918C11.9029 17.9155 11.9056 17.9122 11.9071 17.9083C11.9093 17.9047 11.9103 17.9007 11.9103 17.8965C11.9103 17.8923 11.9093 17.8882 11.9071 17.8847C11.8993 17.8703 11.8913 17.8566 11.8834 17.8431C11.845 17.7763 11.8108 17.7172 11.803 17.6383C11.7934 17.5909 11.7792 17.5861 11.7555 17.6287ZM11.3148 17.9367L11.2485 17.8372C11.2296 17.8136 11.2296 17.8183 11.2296 17.8467C11.2362 17.8791 11.2458 17.9109 11.258 17.9415C11.263 17.9501 11.2657 17.9599 11.2657 17.9699C11.2657 17.9799 11.263 17.9897 11.258 17.9983C11.2485 18.0078 11.2391 18.0078 11.2249 17.9983C11.218 17.9908 11.2101 17.9844 11.2012 17.9794C11.168 17.9651 11.1585 17.9699 11.1775 18.0031C11.2628 18.1737 11.3528 18.3111 11.5613 18.3252C11.5802 18.33 11.585 18.3206 11.5708 18.3063C11.5468 18.2868 11.5209 18.2792 11.4954 18.2718C11.4651 18.2628 11.4353 18.254 11.4096 18.2258C11.3433 18.15 11.3148 18.0694 11.3291 17.9983C11.3291 17.9747 11.3244 17.9558 11.3148 17.9367ZM11.4997 18.1641L11.604 18.2021V18.1973C11.61 18.1995 11.6167 18.1995 11.6229 18.1973C11.6292 18.1945 11.6342 18.1895 11.6371 18.1832L11.7081 17.932C11.7089 17.9267 11.7081 17.9212 11.7059 17.9164C11.7038 17.9115 11.7003 17.9074 11.6957 17.9044C11.6913 17.9015 11.6862 17.8998 11.6808 17.8996C11.6754 17.8994 11.67 17.9008 11.6655 17.9036L11.4666 18.0647C11.4612 18.0693 11.4577 18.0757 11.4568 18.0827C11.4559 18.0898 11.4577 18.0968 11.4618 18.1026L11.4855 18.15C11.4883 18.1563 11.4934 18.1614 11.4997 18.1641ZM11.7982 18.1973L11.7888 18.1737C11.7838 18.1702 11.7806 18.1653 11.7792 18.1594C11.7792 18.1558 11.7801 18.1521 11.7817 18.1489C11.7834 18.1456 11.7857 18.1427 11.7888 18.1405L11.8362 18.093C11.8551 18.0694 11.8551 18.0599 11.8219 18.0694C11.7744 18.0741 11.746 18.0978 11.7271 18.1405C11.7034 18.1832 11.7223 18.2116 11.7744 18.2163C11.7801 18.2164 11.7854 18.2145 11.7898 18.2111C11.7942 18.2077 11.7971 18.2027 11.7982 18.1973ZM12.2294 18.2589C12.2578 18.33 12.3005 18.3442 12.3668 18.3063V18.3111C12.3755 18.3061 12.3852 18.3034 12.3953 18.3034C12.4052 18.3034 12.4151 18.3061 12.4236 18.3111C12.4377 18.3193 12.4519 18.3272 12.4664 18.3348C12.5232 18.3679 12.5327 18.3538 12.4947 18.3016C12.4142 18.1832 12.3005 18.1358 12.1488 18.1358C12.1299 18.1358 12.1156 18.131 12.1015 18.1169C12.0824 18.1026 12.0683 18.093 12.0445 18.093H12.0352C12.0327 18.0945 12.0308 18.0964 12.0291 18.0987C12.0276 18.1009 12.0266 18.1036 12.0262 18.1063C12.0257 18.109 12.0258 18.1117 12.0266 18.1144C12.0273 18.117 12.0286 18.1195 12.0304 18.1216C12.0474 18.1477 12.0697 18.1699 12.0958 18.1871C12.1219 18.2042 12.1513 18.2158 12.182 18.2211C12.1927 18.2222 12.2028 18.2264 12.2111 18.2332C12.2196 18.2399 12.2259 18.2488 12.2294 18.2589ZM12.1488 18.4105C12.092 18.3963 12.0493 18.4105 12.0161 18.4579C12.012 18.4641 12.0064 18.4692 11.9996 18.4725C11.9931 18.4758 11.9856 18.4773 11.9782 18.477H11.9309C11.9216 18.4767 11.9125 18.4788 11.9042 18.4829C11.8959 18.487 11.8888 18.4931 11.8834 18.5005L11.8123 18.5905C11.803 18.6049 11.7888 18.6191 11.7744 18.6191L11.6797 18.6427C11.6699 18.6443 11.6605 18.6481 11.6523 18.6539C11.6439 18.6597 11.6373 18.6672 11.6324 18.676C11.6284 18.6849 11.6264 18.6946 11.6264 18.7043C11.6264 18.7142 11.6284 18.7238 11.6324 18.7327L11.6988 18.9128C11.7177 18.9554 11.7413 18.9649 11.784 18.9602L11.9498 18.9128C12.064 18.8821 12.1415 18.9409 12.2278 19.0063C12.2345 19.0114 12.2414 19.0166 12.2483 19.0217C12.2622 19.0314 12.2788 19.0363 12.2957 19.036C12.3199 19.0384 12.3444 19.0353 12.3673 19.0271C12.3902 19.0189 12.411 19.0058 12.4284 18.9886C12.4757 18.9365 12.5232 18.8702 12.5468 18.8086C12.5524 18.7926 12.5537 18.7753 12.5503 18.7587C12.547 18.7419 12.5393 18.7264 12.5279 18.7138C12.4664 18.6427 12.4142 18.5574 12.381 18.4627C12.3621 18.4059 12.3383 18.4059 12.3242 18.4627C12.3216 18.4816 12.3216 18.5007 12.3242 18.5196C12.3257 18.5261 12.3256 18.5331 12.3241 18.5396C12.3224 18.5463 12.3192 18.5523 12.3146 18.5574C12.3087 18.5636 12.3009 18.568 12.2924 18.5696C12.284 18.5712 12.2752 18.5704 12.2673 18.567C12.2056 18.5433 12.1724 18.5053 12.1724 18.4438C12.1728 18.4364 12.1707 18.4291 12.1664 18.4231C12.1621 18.4171 12.1559 18.4127 12.1488 18.4105Z" fill="white"/>
</svg>
