<svg width="25" height="24" viewBox="0 0 25 24" fill="none" xmlns="http://www.w3.org/2000/svg">
<path d="M12.043 14.4453V17.3941C10.9778 15.5014 8.61426 14.7014 7.01416 14.7014C7.01416 18.6148 10.2738 20 12.5002 20C14.7312 20 17.9862 18.6148 17.9862 14.7014C16.3861 14.7014 14.0226 15.5014 12.9574 17.3941V14.4545C12.6465 14.6054 12.3448 14.5917 12.043 14.4453Z" fill="white"/>
<path d="M13.1996 4.35051C15.9335 7.89814 14.9231 11.8161 13.1859 14.1934C13.1079 14.3047 13.0043 14.3955 12.8836 14.4583C12.7631 14.521 12.6292 14.5538 12.4933 14.5538C12.3574 14.5538 12.2236 14.521 12.1029 14.4583C11.9824 14.3955 11.8787 14.3047 11.8007 14.1934C10.0452 11.8664 8.86109 8.07188 11.7915 4.35051C11.8738 4.24161 11.9802 4.15329 12.1024 4.09248C12.2245 4.03165 12.3592 4 12.4956 4C12.6321 4 12.7666 4.03165 12.8888 4.09248C13.011 4.15329 13.1174 4.24161 13.1996 4.35051Z" fill="white"/>
<path d="M8.6781 5.25636C12.7331 6.91132 13.7206 10.843 13.3412 13.8054C13.3236 13.9405 13.2745 14.0697 13.1979 14.1821C13.1211 14.2948 13.0191 14.3878 12.8998 14.4537C12.7805 14.5196 12.6474 14.5565 12.5113 14.5614C12.3751 14.5663 12.2397 14.5391 12.116 14.4821C9.47816 13.3711 6.65741 10.6921 7.43003 5.93754C7.52146 5.36151 8.12035 5.0232 8.6781 5.25178V5.25636Z" fill="white"/>
<path d="M17.5795 5.95039C18.2651 10.4443 15.5313 13.32 12.8935 14.4812C12.7703 14.5391 12.6351 14.5671 12.4988 14.5632C12.3627 14.5593 12.2295 14.5235 12.1098 14.4585C11.9901 14.3935 11.8873 14.3012 11.8099 14.1892C11.7323 14.0773 11.6823 13.9487 11.6637 13.8137C11.2477 10.8832 12.0248 6.96532 16.336 5.26007C16.4619 5.20623 16.5983 5.18179 16.7351 5.18862C16.8718 5.19545 17.0052 5.23336 17.1251 5.29948C17.245 5.36559 17.3482 5.45816 17.4269 5.57015C17.5056 5.68217 17.5578 5.81064 17.5795 5.94583V5.95039Z" fill="white"/>
</svg>
