<svg width="24" height="24" viewBox="0 0 24 24" fill="none" xmlns="http://www.w3.org/2000/svg">
<path d="M6.98075 7.07617C7.14489 7.07617 6.64019 7.6096 6.36526 7.88041C6.02879 8.41794 5.30662 9.49296 5.14249 9.49296C4.93732 9.49296 5.0399 9.28788 5.14249 9.09088C5.24506 8.88572 5.0399 8.9883 4.73216 8.79133C4.4203 8.58618 4.83063 8.58618 5.0358 8.38922C5.24097 8.18406 4.52289 8.28663 4.11256 8.08968C3.70223 7.88451 4.52289 7.98709 4.83063 8.08968C5.13838 8.18406 5.0358 7.98709 5.0358 7.78603C5.0358 7.58087 4.62548 7.28133 4.72395 7.18285C4.82654 7.08027 5.0358 7.58497 5.33944 7.58087C5.65129 7.58087 5.44203 7.08027 5.5446 7.08027C5.64719 7.08027 5.65129 7.58087 5.74978 7.58087C5.85645 7.58087 5.95494 7.08027 6.05751 7.08027C6.1601 7.08027 5.95904 7.58087 6.05751 7.67935C6.1642 7.78193 6.77559 7.07617 6.98075 7.07617ZM16.923 16.924C16.7589 16.924 17.2636 16.3906 17.5385 16.1198C17.8791 15.5864 18.6054 14.5113 18.7695 14.5113C18.9747 14.5113 18.872 14.7165 18.7695 14.9135C18.6669 15.1186 18.872 15.016 19.1799 15.2171C19.4876 15.4181 19.0772 15.4181 18.872 15.6192C18.6669 15.8203 19.3849 15.7177 19.7953 15.9188C20.2056 16.124 19.3849 16.0213 19.0772 15.9188C18.7695 15.8203 18.872 16.0213 18.872 16.2224C18.872 16.4234 19.2824 16.723 19.1799 16.8256C19.0772 16.924 18.872 16.4234 18.5643 16.4234C18.2566 16.4234 18.4618 16.924 18.3592 16.924C18.2566 16.924 18.2566 16.4234 18.154 16.4234C18.0514 16.4234 17.9488 16.924 17.8462 16.924C17.7437 16.924 17.9488 16.4234 17.8462 16.3209C17.7437 16.2265 17.1281 16.924 16.923 16.924Z" fill="white"/>
<path fill-rule="evenodd" clip-rule="evenodd" d="M6.5996 12.2904C6.5996 12.0565 6.39444 11.999 6.28776 11.999C6.11952 11.999 5.86922 12.196 5.76254 12.2904C5.55737 13.3367 5.15524 15.458 5.24142 15.614C5.31118 15.7453 5.52044 15.614 5.77485 15.454C5.90205 15.376 6.04157 15.2899 6.18518 15.2243C6.5996 15.0272 7.3341 14.6375 7.43668 14.1492C7.51874 13.7594 7.3341 13.6568 7.23151 13.6568C7.43667 13.4639 7.85521 12.9961 7.85521 12.6843C7.85521 12.2904 7.65005 12.0975 7.22741 12.0975C6.89505 12.0975 6.66936 12.2289 6.5996 12.2904ZM6.49703 12.8771L6.39034 13.3695C6.49703 13.3367 6.74733 13.2711 6.91555 13.2711C7.08789 13.1397 7.37512 12.8608 7.12073 12.7787C6.87453 12.7048 6.5996 12.8115 6.49703 12.8771ZM6.18107 14.2476L6.07849 14.736C6.32468 14.6703 6.80888 14.4815 6.80888 14.2436C6.80888 14.0138 6.39034 14.1492 6.18107 14.2436V14.2476Z" fill="white"/>
<path d="M8.90098 11.9993C8.56451 11.9993 8.27318 12.6517 8.17059 12.9758L7.60433 15.126C7.41149 15.1916 7.01758 15.3434 7.01758 15.4214C7.01758 15.4993 7.2966 15.5157 7.4361 15.5157C7.47303 15.5485 7.5551 15.6142 7.60845 15.6142C7.65769 15.6142 7.79309 15.487 7.85464 15.4214H9.42209L9.63137 15.2244C9.70112 15.3557 9.98835 15.6142 10.5751 15.6142C11.1619 15.6142 11.5189 15.1629 11.6215 14.9331C11.8677 14.2766 12.3519 12.9389 12.3519 12.783C12.3519 12.586 12.3519 11.9993 11.4081 11.9993C11.1464 11.9944 10.889 12.0654 10.6669 12.2037C10.4448 12.3421 10.2676 12.5419 10.1566 12.7789L9.52878 14.7361H8.37986C8.56527 14.1092 8.77332 13.4892 9.00356 12.8773C9.21283 12.389 9.31951 11.9993 8.90098 11.9993ZM10.1525 14.7361L10.7803 12.783C10.85 12.7173 11.0716 12.6065 11.4081 12.6845C11.7404 12.7624 11.6871 13.0415 11.6132 13.1728L10.7515 14.8798C10.7803 14.7074 10.7023 14.4899 10.6735 14.4407C10.6735 14.6376 10.5012 14.7361 10.4684 14.7361H10.1525ZM10.6735 15.0274C10.7147 14.9864 10.7392 14.9372 10.7515 14.8798L10.6735 15.0274ZM14.0259 12.9758C13.9193 13.1399 13.7552 13.4682 13.9193 13.4682C14.1286 13.4682 14.547 12.9758 14.6538 12.783C14.7564 12.586 14.7564 12.1962 14.0259 12.1962C13.2956 12.1962 12.7703 12.1962 12.561 12.783C12.332 13.4937 12.1227 14.2107 11.9333 14.9331C11.8307 15.1588 11.7281 15.6142 12.1426 15.6142H13.0863C13.3982 15.487 14.0466 15.1464 14.1286 14.8346C14.2352 14.4407 14.2352 14.1493 14.0259 14.2479C13.9562 14.2806 13.7922 14.412 13.6034 14.5638C13.2258 14.8674 12.7375 15.2572 12.6678 15.126C12.6558 15.1052 12.6435 15.0847 12.6309 15.0644L12.5898 14.9864C12.5775 14.9372 12.5898 14.8798 12.6309 14.6992L12.6678 14.5391C12.7498 14.1493 12.9797 13.4641 13.0863 13.1728C13.2258 13.0415 13.5458 12.783 13.71 12.783C13.9193 12.783 14.1368 12.783 14.0259 12.9758ZM15.8027 12.586C15.8848 12.1962 15.7001 12.0321 15.5976 11.9993C15.4745 11.9993 15.3841 12.2373 15.2897 12.4917C15.237 12.6611 15.1639 12.8237 15.0723 12.9758C14.863 13.2712 14.0259 15.5198 14.2352 15.6142C14.3994 15.6963 14.7934 15.2572 14.9657 15.0274C14.9657 14.7033 15.0477 14.0508 15.3841 14.0508C15.7206 14.0508 16.291 14.9003 16.5331 15.3228C16.2049 15.4008 16.1884 15.5485 16.2213 15.6142C17.8502 15.8071 17.9938 15.6266 18.2893 15.2572L18.3139 15.2244C18.597 14.8756 18.5396 14.6828 18.4492 14.3628L18.4205 14.2479C18.3631 14.0468 18.1744 13.9236 18.002 13.8129C17.838 13.7061 17.6861 13.6077 17.6861 13.4641C17.6861 13.1728 18.2113 12.9758 18.4205 12.9758C18.5396 12.9758 18.5191 13.1728 18.5027 13.3533C18.4904 13.4887 18.478 13.62 18.5232 13.6611C18.6299 13.7596 18.9417 13.4272 19.151 13.1686C19.3603 12.9143 19.6721 12.2906 19.5695 12.1962C19.508 12.1387 19.3356 12.2824 19.1838 12.4136C19.0812 12.5039 18.9828 12.586 18.9417 12.586C18.9007 12.586 18.8801 12.5204 18.8474 12.4383C18.794 12.2947 18.7243 12.0977 18.5232 12.0977C18.2113 12.0977 17.2676 12.8773 17.1649 13.1728C17.0601 13.4899 17.0601 13.8322 17.1649 14.1493C17.2225 14.3709 17.5466 14.5268 17.7436 14.6253C17.8954 14.6992 17.9733 14.7361 17.7928 14.7361C17.4563 14.7361 16.9557 14.9947 16.7465 15.126C16.7465 14.8141 16.2541 14.018 16.0119 13.6611C16.5372 13.3656 17.4768 12.1962 17.2676 12.0977C17.1034 12.0156 16.1514 12.7132 15.7001 13.0742L15.8027 12.5819V12.586Z" fill="white"/>
<path d="M6.66143 8.03655C6.74349 7.60571 6.4932 7.49902 6.35779 7.49902C6.11159 7.41285 5.84898 7.82318 5.74229 8.03655C5.64381 8.54125 5.41814 9.60809 5.34017 9.8666C5.23759 10.1908 4.92984 11.2658 6.15262 11.3767C7.36309 11.4833 7.67084 10.002 7.876 9.03365L7.88421 9.00493C7.92113 8.82027 7.96217 8.65615 7.995 8.50843C8.14271 7.88473 8.21247 7.58519 7.88421 7.49902C7.56005 7.41696 7.23999 8.87363 7.06764 9.64916C7.02662 9.85435 6.98559 10.0185 6.96507 10.0841C6.86659 10.4041 6.55885 10.8349 6.15262 10.7283C5.86129 10.6503 6.19776 9.57113 6.44806 8.77104C6.54654 8.45919 6.6327 8.18838 6.66143 8.03655ZM9.40652 9.75994C9.24239 9.75994 8.93466 8.25402 8.79924 7.49902C8.29044 7.49902 7.47387 11.4792 7.67905 11.4792C7.88421 11.4792 8.18784 11.1591 8.29044 10.9458C8.32325 10.876 8.34377 10.7407 8.3684 10.5929C8.42174 10.2646 8.49149 9.8666 8.69666 9.8666C8.94286 9.8666 9.13571 10.9458 9.20546 11.4833C9.50912 11.4833 9.91533 10.6216 10.0179 10.1908C10.1205 9.75994 10.3256 9.2224 10.4282 9.00493C10.5267 8.79155 10.7318 7.49902 10.4282 7.49902C10.2559 7.49902 10.0302 8.18427 9.82096 8.79976C9.65683 9.30449 9.5009 9.75994 9.41063 9.75994H9.40652ZM13.3785 7.82318C13.239 8.11041 13.0297 8.68487 13.276 8.68487C13.5796 8.68487 15.3112 8.68487 15.5122 8.25402C15.6764 7.90935 14.1581 7.82318 13.3785 7.82318ZM13.0708 9.75994C12.8245 9.67377 13.1037 9.14854 13.276 8.89824C13.7149 8.93517 14.5766 9.0911 14.4946 9.43576C14.3961 9.8666 13.3785 9.8666 13.0708 9.75994ZM12.4593 10.7283L12.9189 11.3767C12.9353 11.2658 13.0708 11.0483 13.477 11.0483C13.8288 11.0639 14.1787 10.9906 14.4946 10.8349C14.5766 10.7939 14.6505 10.7857 14.7161 10.7775C14.827 10.7652 14.9008 10.7529 14.9008 10.6216C14.9008 10.4041 14.191 10.1908 13.6821 10.1908C13.2718 10.1908 12.6974 10.5477 12.4593 10.7283Z" fill="white"/>
<path fill-rule="evenodd" clip-rule="evenodd" d="M11.3434 7.82337C11.3434 7.56486 11.1382 7.49512 11.0357 7.49512C10.7894 7.49512 10.732 7.8562 10.732 8.03675C10.5268 9.22259 10.1411 11.5656 10.2232 11.4835C10.2642 11.4384 10.3257 11.4302 10.4406 11.4178C10.6049 11.3973 10.8673 11.3645 11.3434 11.2004C11.9917 10.9748 12.3609 10.2894 12.4595 9.97345C12.5621 9.39899 12.7878 8.20908 12.8698 8.03675C12.9396 7.88492 12.7631 7.79055 12.6154 7.70848C12.5497 7.67155 12.4923 7.63873 12.4595 7.6059C12.3774 7.52384 11.6798 7.71259 11.3434 7.82337ZM11.1382 8.68506L10.7279 10.7284C11.0685 10.6588 11.7906 10.3592 11.9507 9.76013C12.1148 9.15695 12.1559 8.43066 12.1559 8.14343L11.1382 8.68096V8.68506ZM15.1061 10.4043C15.2087 10.3346 15.4754 10.1705 15.7175 10.0843C16.1565 9.18567 17.1413 7.41305 17.5475 7.49921C17.9455 7.58128 17.7856 7.92596 17.6009 8.33218C17.5475 8.44297 17.4901 8.56607 17.4449 8.68506C17.2808 9.11181 17.1742 10.2976 17.1413 10.8352L16.6326 11.3768V10.1869H16.3288L15.8201 11.0485C15.6477 11.1224 15.2702 11.3316 15.1061 11.5902C15.0732 11.3029 15.0651 10.6875 15.3113 10.5152L15.1061 10.4043ZM16.6326 9.54261L16.8377 9.00922V9.53858H16.6326V9.54261ZM18.36 7.49921C18.1958 7.49921 18.0235 7.71259 17.9538 7.82337C17.8553 8.21729 17.6296 9.07077 17.5475 9.32929C17.4655 9.5878 17.3095 10.8721 17.2439 11.4835C17.4122 11.4835 17.8758 11.426 18.3641 11.1963C18.7721 10.9851 19.1217 10.6764 19.3817 10.2976C19.6146 9.6259 19.8173 8.94411 19.989 8.25422C20.071 7.82337 19.6854 7.71259 19.4802 7.71259L18.6678 7.82337C18.6349 7.71259 18.5242 7.49512 18.3641 7.49512L18.36 7.49921ZM18.36 8.57428L17.9538 10.7284C18.297 10.648 18.6114 10.4751 18.8632 10.2283C19.115 9.98168 19.2943 9.67071 19.3817 9.32929V8.14343L18.36 8.57428Z" fill="white"/>
</svg>
