<svg width="24" height="24" viewBox="0 0 24 24" fill="none" xmlns="http://www.w3.org/2000/svg">
<path d="M5.93931 6.66699H4V13.4545C4 14.4833 4.40863 15.4698 5.13602 16.1972C5.8634 16.9246 6.84995 17.3332 7.87863 17.3332H8.36345C9.39213 17.3332 10.3787 16.9246 11.1061 16.1972C11.8335 15.4698 12.2421 14.4833 12.2421 13.4545V6.66699H10.3028V13.2122C10.3028 13.7908 10.0729 14.3458 9.66372 14.755C9.2546 15.164 8.69967 15.3939 8.12104 15.3939C7.54241 15.3939 6.98747 15.164 6.57833 14.755C6.16917 14.3458 5.93931 13.7908 5.93931 13.2122V6.66699ZM13.2117 9.57596H15.1511V16.8483H13.2117V9.57596Z" fill="white"/>
<path d="M17.3335 9.33301C16.6264 9.33301 15.9481 9.61394 15.448 10.1141C14.9479 10.6141 14.667 11.2924 14.667 11.9995V16.8479H15.1519V12.4844C15.1519 12.0986 15.3051 11.7287 15.5778 11.4559C15.8506 11.1831 16.2205 11.03 16.6063 11.03C16.9921 11.03 17.362 11.1831 17.6347 11.4559C17.9075 11.7287 18.0608 12.0986 18.0608 12.4844V16.8479H20.0001V11.9995C20.0001 11.2924 19.7192 10.6141 19.2191 10.1141C18.7189 9.61394 18.0408 9.33301 17.3335 9.33301Z" fill="white"/>
</svg>
