<svg width="24" height="24" viewBox="0 0 24 24" fill="none" xmlns="http://www.w3.org/2000/svg">
<path fill-rule="evenodd" clip-rule="evenodd" d="M20.9966 12.0037C20.9966 16.9723 16.9687 21.0002 12.0001 21.0002C7.0315 21.0002 3.00366 16.9723 3.00366 12.0037C3.00366 7.03516 7.0315 3.00732 12.0001 3.00732C16.9687 3.00732 20.9966 7.03516 20.9966 12.0037ZM13.0276 6.71174H15.1445L13.6521 10.4162L18.3513 8.91851V10.94L15.0174 12.0037L18.3513 13.0622V15.089L13.7579 13.6179L15.2396 17.2958H13.123L12.001 14.5174L10.879 17.2958H8.76224L10.2864 13.5173L5.65053 14.999V12.9775L8.70403 11.9984L5.65053 11.0247V9.00318L10.3921 10.5219L8.85749 6.71174H10.9744L12.001 9.2572L13.0276 6.71174Z" fill="white"/>
<path d="M20.5044 14.939C19.9518 16.5393 18.9596 17.9514 17.6415 19.0138C16.7418 18.1248 15.9109 16.0503 16.9323 14.8861C17.9219 13.7589 19.6313 14.3993 20.5044 14.939Z" fill="white"/>
<path d="M8.2804 20.1948C6.35162 19.3165 4.79309 17.7879 3.87744 15.8765C4.58657 15.6119 5.77198 15.5379 6.94153 16.591C8.25393 17.7764 8.46562 19.3481 8.2804 20.1948Z" fill="white"/>
<path d="M5.68188 5.59947C6.42276 5.92757 7.3912 6.18159 8.11621 5.81643L8.74596 5.49362C9.4498 5.12317 9.61379 5.03322 10.2118 5.1761C10.4923 5.2449 10.7199 5.42483 10.9527 5.60475C11.3338 5.9064 11.7306 6.21863 12.4134 6.06516C13.3976 5.8429 15.1229 4.71569 15.1229 3.56204C13.5191 2.9663 11.7786 2.84108 10.106 3.20108C8.43342 3.56109 6.89853 4.39136 5.68188 5.59417V5.59947Z" fill="white"/>
</svg>
