<svg width="24" height="24" viewBox="0 0 24 24" fill="none" xmlns="http://www.w3.org/2000/svg">
<path d="M20 5.41211L17.1341 15.2333C17.0635 15.478 16.9929 15.7273 16.913 15.9769C16.8753 16.0992 16.8377 16.2215 16.7906 16.3438C16.6412 16.7598 16.4084 17.1409 16.1066 17.4638C15.8048 17.7866 15.4403 18.0445 15.0354 18.2214C14.5553 18.4191 14.0471 18.5039 13.5341 18.5415C13.0589 18.5792 12.48 18.5885 12 18.5885C11.5247 18.5885 10.9412 18.5792 10.4658 18.5415C9.95174 18.5149 9.44498 18.407 8.96469 18.2214C8.55375 18.0528 8.18414 17.7972 7.88118 17.4723C7.57821 17.1475 7.34906 16.7609 7.2094 16.3392C7.16235 16.2215 7.1247 16.0992 7.08705 15.9769C7.00706 15.7273 6.93646 15.478 6.86588 15.2333L4 5.41211C4.52706 5.43094 5.17176 5.45447 5.6941 5.50623C6.2447 5.558 6.83294 5.65681 7.34588 5.89681C7.89175 6.15565 8.28705 6.53682 8.58823 7.07329C8.87999 7.59093 9.05882 8.18388 9.22352 8.74388C10.4236 12.8003 11.84 17.3886 11.84 17.3886H12.16C12.16 17.3886 13.5718 12.8097 14.7811 8.74388C14.9458 8.18388 15.12 7.59093 15.4118 7.078C15.6871 6.56137 16.1233 6.14841 16.6541 5.90153C17.1718 5.65681 17.76 5.5627 18.3011 5.50623C18.8329 5.45447 19.4682 5.43094 20 5.41211Z" fill="white"/>
</svg>
