<svg width="24" height="24" viewBox="0 0 24 24" fill="none" xmlns="http://www.w3.org/2000/svg">
<path d="M6.40687 7.21544C6.40687 7.22894 6.41137 7.23794 6.42487 7.23794C8.5089 7.33697 10.3544 8.04365 11.9658 9.35347C11.9882 9.37147 12.0107 9.37147 12.0332 9.35347C13.5967 8.06014 15.5422 7.3168 17.5697 7.23794C17.5922 7.23794 17.6057 7.22445 17.6057 7.20194V4.82535C17.6057 4.80734 17.6147 4.79834 17.6327 4.79834H18.2854C18.2989 4.79834 18.3033 4.80735 18.3033 4.81635V7.4495C18.3033 7.67456 18.2314 7.81859 18.0828 7.8816C18.0378 7.90411 17.9703 7.91311 17.8758 7.91762C15.5981 7.96262 13.6447 8.75932 12.0198 10.2987C12.0062 10.3123 11.9882 10.3123 11.9747 10.2987C10.3991 8.78242 8.30094 7.92991 6.1143 7.91762C5.83522 7.91762 5.7002 7.77358 5.7002 7.49001V4.82085C5.7002 4.80735 5.70919 4.79834 5.7227 4.79834H6.36636C6.39337 4.79834 6.41137 4.81184 6.41137 4.84335L6.40687 7.21544Z" fill="white"/>
<path d="M12.0018 11.3146C12.0064 11.3146 12.0109 11.3146 12.0154 11.3055C12.7088 10.4955 13.563 9.8383 14.5239 9.37572C15.4846 8.91315 16.5311 8.65526 17.5969 8.61842L18.0334 8.59141C18.1279 8.58692 18.2134 8.56441 18.2899 8.52839C18.7401 8.32135 18.9651 7.96126 18.9651 7.43912L18.9561 6.20583C18.9561 6.18332 18.9651 6.17432 18.9877 6.17432H19.6178C19.6403 6.17432 19.6539 6.18782 19.6539 6.21933C19.6448 6.4894 19.6448 6.75946 19.6539 7.04303C19.6583 7.38511 19.6539 7.64618 19.6267 7.81272C19.5857 8.09686 19.4734 8.36597 19.3001 8.595C19.127 8.82402 18.8987 9.00551 18.6365 9.12255C18.4024 9.23507 18.1864 9.28909 17.9928 9.28909C17.2121 9.30584 16.437 9.42694 15.6883 9.64918C14.1757 10.1438 12.8779 11.1413 12.0109 12.4759C12.0018 12.4938 11.9884 12.4938 11.9794 12.4759C11.3654 11.5323 10.5322 10.7511 9.5509 10.1994C8.56957 9.64752 7.46928 9.3414 6.344 9.30709C6.10959 9.30274 5.87608 9.27713 5.64632 9.23058C5.27943 9.13695 4.95453 8.92299 4.72358 8.62292C4.48535 8.33044 4.35503 7.96488 4.35449 7.58767V6.20583C4.35449 6.18332 4.36349 6.17432 4.38151 6.17432H5.01166C5.03416 6.17432 5.04317 6.18332 5.04317 6.20583V7.49765C5.04317 7.7452 5.10619 7.96576 5.24572 8.1593C5.38074 8.35286 5.56979 8.48788 5.80385 8.5599C5.90288 8.59141 6.07392 8.60492 6.31698 8.60942C7.39441 8.63582 8.45422 8.88874 9.42747 9.35171C10.4007 9.81468 11.2656 10.4774 11.9659 11.2965C11.9749 11.3101 11.9884 11.3146 12.0018 11.3101V11.3146Z" fill="white"/>
<path d="M10.6833 7.6604C10.4 7.50916 10.1085 7.37392 9.81012 7.2553C9.76511 7.23279 9.76511 7.21479 9.81012 7.20128C11.2305 6.67113 12.7952 6.67593 14.2122 7.21479C14.2257 7.23279 14.2257 7.24179 14.2077 7.25079C13.8837 7.37682 13.5776 7.52086 13.2985 7.6694C13.2616 7.69024 13.2184 7.69666 13.177 7.68741C12.4063 7.51515 11.607 7.51515 10.8363 7.68741C10.7838 7.69769 10.7292 7.68807 10.6833 7.6604Z" fill="white"/>
<path d="M12.0247 13.8672C12.4613 12.7419 13.1636 11.8281 14.1223 11.1215C15.1572 10.3494 16.4096 9.92404 17.7007 9.9062C17.9843 9.89714 18.1958 9.87914 18.3309 9.84763C18.8667 9.73911 19.349 9.44945 19.6965 9.02734C20.044 8.6052 20.2357 8.07632 20.2393 7.52956C20.2393 7.51155 20.2483 7.49805 20.2708 7.49805H20.964C20.9864 7.49805 21 7.51155 21 7.53405C20.9857 8.37454 20.6401 9.17538 20.0381 9.76214C19.4362 10.3489 18.6267 10.6741 17.7862 10.6668C16.8899 10.6737 16.009 10.9001 15.2203 11.3262C14.4318 11.7523 13.7596 12.3651 13.2625 13.111C12.748 13.9014 12.4471 14.8117 12.3893 15.7531V15.9872C12.3983 16.0276 12.3802 16.0457 12.3443 16.0457L11.6422 16.0502C11.6332 16.0502 11.6287 16.0457 11.6287 16.0367C11.613 15.2219 11.4211 14.4204 11.066 13.6872C10.7104 12.9579 10.2108 12.3367 9.55814 11.8281C8.67055 11.1233 7.58059 10.721 6.44786 10.6804C5.99775 10.6624 5.73668 10.6443 5.66917 10.6309C5.05641 10.5201 4.48712 10.2394 4.02625 9.82061C3.71 9.53017 3.45599 9.17856 3.27958 8.78707C3.10318 8.39559 3.00806 7.97236 3 7.54306C3 7.51155 3.01351 7.49805 3.04502 7.49805H3.74719C3.7697 7.49805 3.7832 7.51155 3.7832 7.53856C3.77633 7.82931 3.82776 8.1185 3.93443 8.38906C4.04111 8.65964 4.2009 8.90612 4.40435 9.11395C4.79546 9.55912 5.34414 9.83507 5.93474 9.88363C6.02476 9.89264 6.15978 9.90168 6.34434 9.9062C6.5964 9.91963 6.78544 9.92867 6.91148 9.94663C8.06376 10.0817 9.09452 10.5049 9.99473 11.207C10.8887 11.895 11.5768 12.8151 11.9842 13.8672C11.9977 13.9032 12.0112 13.9032 12.0247 13.8672Z" fill="white"/>
<path d="M8.45429 17.1212C9.01294 17.6057 9.66514 17.9704 10.3705 18.1926C11.0759 18.4148 11.8194 18.4897 12.5549 18.413C13.3475 18.3324 14.1127 18.0786 14.7963 17.6694C15.4798 17.2603 16.0651 16.7057 16.5104 16.0451C16.9559 15.3846 17.2505 14.6341 17.3735 13.847C17.4967 13.0598 17.4451 12.2552 17.2225 11.4902C17.2134 11.4587 17.2225 11.4453 17.254 11.4453L17.9517 11.4138C17.9697 11.4138 17.9787 11.4183 17.9832 11.4362C18.2983 12.6244 18.2532 13.8038 17.8616 14.9787C17.4867 16.128 16.7746 17.1379 15.8181 17.8774C14.8002 18.6877 13.549 19.15 12.2488 19.1962C10.9209 19.2502 9.7011 18.9081 8.59833 18.1744C7.52173 17.4585 6.69513 16.4246 6.23367 15.2169C5.77219 14.0093 5.69879 12.6876 6.02369 11.4362C6.02369 11.4183 6.03269 11.4092 6.0507 11.4092L6.74387 11.4453C6.77988 11.4453 6.79338 11.4632 6.78438 11.4992C6.49798 12.4976 6.50257 13.557 6.79759 14.553C7.09261 15.5488 7.6658 16.4397 8.44979 17.1212H8.45429Z" fill="white"/>
<path d="M9.13484 12.508C8.95929 12.571 8.84227 12.688 8.78374 12.8636C8.72073 13.0346 8.73874 13.2012 8.82876 13.3587C8.96379 13.5702 9.14384 13.6647 9.3869 13.6378C9.62546 13.6153 9.79199 13.4847 9.88202 13.2551C9.89103 13.2327 9.90003 13.2327 9.91808 13.2506C10.0666 13.4442 10.2061 13.6558 10.3366 13.8898C10.3501 13.9123 10.3501 13.9349 10.3276 13.9528C10.1161 14.1779 9.85501 14.3219 9.55795 14.3805C9.25186 14.4345 8.96379 14.3895 8.70272 14.2364C8.46635 14.1152 8.27328 13.9237 8.14997 13.6885C8.02669 13.4531 7.9792 13.1855 8.01406 12.9221C8.04106 12.5845 8.1851 12.2919 8.44617 12.0444C8.45967 12.0263 8.47767 12.0263 8.50017 12.0353C8.72523 12.1614 8.94128 12.3054 9.13934 12.4674C9.16184 12.4855 9.16184 12.4989 9.13484 12.5125V12.508ZM14.8827 12.508C14.8422 12.49 14.8377 12.4674 14.8782 12.4449L15.4814 12.0399C15.5039 12.0218 15.5265 12.0218 15.5489 12.0399C15.9316 12.3774 16.0756 12.7915 15.9901 13.2912C15.9571 13.5225 15.8606 13.7401 15.7112 13.9198C15.5618 14.0995 15.3654 14.234 15.1439 14.3085C14.6216 14.511 14.1445 14.403 13.7035 13.9934C13.6585 13.9483 13.6585 13.9034 13.6855 13.8583C13.8115 13.6378 13.9465 13.4353 14.086 13.2506C14.0995 13.2327 14.113 13.2327 14.122 13.2551C14.2435 13.5478 14.4552 13.6738 14.7612 13.6332C15.0673 13.5883 15.2293 13.4127 15.2473 13.1021C15.2654 12.8321 15.1439 12.634 14.8827 12.508Z" fill="white"/>
</svg>
