<svg width="24" height="24" viewBox="0 0 24 24" fill="none" xmlns="http://www.w3.org/2000/svg">
<path d="M7.30177 6.31592L10.2912 7.97062C10.0049 8.2443 9.43646 9.00218 9.43646 9.83165C9.43646 10.6569 10.0049 11.4148 10.2912 11.6885H11.3606L12.0006 12.9305L12.6406 11.6885H13.7101C13.9206 11.4148 14.3922 10.6569 14.5648 9.83165C14.7332 9.00218 14.068 8.2443 13.7101 7.97062L16.6995 6.31592L18.1984 7.97062L15.8448 9.83165L18.6236 8.58956C19.1571 9.0042 19.5342 9.58756 19.6931 10.2443L16.489 11.6885L19.9078 10.8632C20.0762 11.3601 19.9752 12.3116 19.9078 12.7242L16.6995 13.3432H19.6889C19.1385 14.6073 18.1545 15.6333 16.9142 16.2357C16.2742 15.5494 14.8638 14.2147 14.35 14.3789C13.8364 14.5431 15.1332 16.6525 15.8448 17.6841C15.3353 17.1873 14.35 16.7873 13.9248 16.6525L13.2806 14.5853V16.6484H12.2154L12.0006 14.5853L11.7901 16.6484H10.9311V14.5853L10.2912 16.6484C9.77751 16.6484 8.70806 17.4062 8.21123 17.6841C8.85121 16.7873 9.99224 14.7073 9.6512 14.3789C9.31015 14.0463 7.65545 15.4778 6.8723 16.2357L4.30814 13.3474H7.51229L4.09341 12.7285C3.92499 11.899 4.02183 11.141 4.09341 10.8674L7.72702 11.6927L4.30814 10.2485C4.49271 9.54404 4.86189 8.90161 5.3776 8.38745L8.15649 9.83588L5.80285 7.97483C6.20253 7.33913 6.70972 6.7778 7.30177 6.31592Z" fill="white"/>
<path d="M12.0005 12.518L11.571 11.4822H10.291C10.8047 10.657 10.931 9.07381 10.931 8.3833L13.0699 9.20855H12.0005C12.211 9.41907 13.0699 9.41907 13.2805 9.41907C13.4951 9.41907 14.1352 9.41907 14.1352 9.83171C14.1352 10.1601 13.853 10.518 13.7099 10.657C13.4236 10.3117 12.771 9.66327 12.4258 9.83171C12.0889 9.99588 12.9983 11.0022 13.4951 11.4822H12.4258L12.0005 12.518Z" fill="white"/>
</svg>
