<svg width="24" height="24" viewBox="0 0 24 24" fill="none" xmlns="http://www.w3.org/2000/svg">
<path d="M12.0046 16.2361C12.7843 16.2361 13.4164 15.604 13.4164 14.8244C13.4164 14.0446 12.7843 13.4126 12.0046 13.4126C11.2249 13.4126 10.5928 14.0446 10.5928 14.8244C10.5928 15.604 11.2249 16.2361 12.0046 16.2361Z" fill="white"/>
<path d="M15.5624 16.9789C15.0071 16.659 14.3106 16.8378 13.7647 17.1719C13.2961 17.4594 12.7567 17.6108 12.2071 17.6096C11.8337 17.617 11.4626 17.5509 11.1149 17.4149C10.7672 17.279 10.4496 17.0759 10.1805 16.8171C9.91125 16.5583 9.69566 16.2491 9.54599 15.9071C9.39631 15.565 9.3155 15.1968 9.30816 14.8236C9.3155 14.4503 9.39631 14.0821 9.54599 13.7401C9.69566 13.398 9.91125 13.0888 10.1805 12.8301C10.4496 12.5714 10.7672 12.3683 11.1149 12.2324C11.4626 12.0963 11.8337 12.0302 12.2071 12.0376C12.7605 12.036 13.3033 12.1892 13.7741 12.4801C14.353 12.8424 15.1153 13.0212 15.6753 12.6353C16.2259 12.2589 16.3718 11.4871 15.873 11.0354C14.8632 10.1347 13.5554 9.64013 12.2024 9.64704C9.24228 9.64704 6.82812 11.9624 6.82812 14.8236C6.82812 17.6848 9.23757 20.0002 12.2071 20.0002C13.6047 20.0002 14.8753 19.4872 15.8306 18.6449C16.3718 18.1743 16.1836 17.3412 15.5624 16.9789Z" fill="white"/>
<path d="M19.2986 7.62378C19.614 7.3226 19.614 6.83318 19.2751 6.55553C17.2023 4.88751 14.6179 3.98504 11.9573 4.00019C9.33823 3.98592 6.79169 4.8602 4.73368 6.48023C4.6539 6.54328 4.58879 6.62294 4.54287 6.71367C4.49694 6.80439 4.4713 6.90402 4.46772 7.00564C4.46414 7.10726 4.4827 7.20847 4.52213 7.3022C4.56155 7.39593 4.62088 7.47997 4.69604 7.54849C5.01605 7.85908 5.54311 7.86379 5.90076 7.59084C7.54784 6.31552 9.65612 5.54845 11.9573 5.54845C14.2961 5.54845 16.4374 6.33905 18.0939 7.65201C18.4468 7.93437 18.9739 7.93437 19.2939 7.62378H19.2986ZM17.2751 9.55792C17.5951 9.25675 17.5951 8.77204 17.2516 8.50379C15.7377 7.33286 13.8758 6.70176 11.9621 6.71082C9.98552 6.71082 8.16433 7.36025 6.74313 8.44732C6.39488 8.71086 6.39017 9.20027 6.70077 9.50146C7.02078 9.81679 7.54784 9.81679 7.91492 9.54851C9.09404 8.70231 10.5107 8.25096 11.9621 8.25909C13.5103 8.25909 14.9362 8.75791 16.061 9.59558C16.428 9.86379 16.9551 9.86851 17.2798 9.55792H17.2751ZM14.9739 12.0756C15.2844 11.7744 15.2891 11.2944 14.9362 11.045C14.0626 10.4362 13.0221 10.1124 11.9573 10.118C10.8609 10.118 9.84903 10.4474 9.02552 11.012C8.66787 11.2615 8.66787 11.7415 8.97846 12.0427C9.29847 12.358 9.83498 12.3485 10.235 12.118C10.7647 11.8137 11.3655 11.6552 11.9763 11.6585C12.5871 11.6619 13.1863 11.8269 13.7127 12.1368C14.108 12.3721 14.6445 12.3862 14.9692 12.0756H14.9739Z" fill="white"/>
</svg>
