<svg width="24" height="24" viewBox="0 0 24 24" fill="none" xmlns="http://www.w3.org/2000/svg">
<path fill-rule="evenodd" clip-rule="evenodd" d="M16.984 14.0793C17.4762 14.0263 17.7989 13.9841 17.9734 13.6983C18.0265 13.6047 18.0569 13.5001 18.0624 13.3925C18.0679 13.2851 18.0484 13.1778 18.0053 13.0793C17.8306 12.6507 17.6243 12.2327 17.3862 11.8359C17.2304 11.5974 17.1024 11.3417 17.0053 11.0739C16.9629 10.3808 15.1533 8.12671 13.9999 7.13726C13.894 6.71925 13.7353 6.32241 13.5131 5.95203C13.4228 5.7661 13.2844 5.60772 13.1123 5.49329C12.9402 5.37886 12.7405 5.31254 12.5341 5.30121C12.3542 5.30121 12.1849 5.35413 12.0315 5.44408C11.7722 5.59752 11.5394 5.78801 11.3436 6.01552C10.8727 5.94144 10.4018 5.90441 9.93092 5.89913C9.74573 5.89913 9.56054 5.9097 9.37529 5.92559C9.2483 5.70335 9.09487 5.50229 8.90968 5.32237C8.69803 5.11074 8.407 4.98903 8.10012 4.99432C7.8091 4.98903 7.52338 5.10014 7.30644 5.29063C7.0313 5.53402 6.79319 5.81975 6.6133 6.14251H6.5498C6.48499 6.13718 6.42322 6.11272 6.37235 6.07219C6.32147 6.03169 6.28378 5.97697 6.26407 5.91499C6.24322 5.85394 6.24116 5.78802 6.25813 5.72578C6.27511 5.66352 6.31035 5.60779 6.35931 5.56578C6.35931 5.56578 6.17942 5.22714 6.10534 5.29063C6.10534 5.29593 6.08418 5.29063 6.07358 5.28006L6.05243 5.27475L6.02068 5.30651C4.98291 6.22656 4.17252 7.3746 3.65311 8.66056C3.1337 9.94656 2.91942 11.3354 3.02708 12.7181C3.13474 14.1008 3.56142 15.4396 4.27362 16.6298C4.98582 17.8198 5.96416 18.8285 7.13183 19.5769C8.17507 20.2534 9.34845 20.704 10.5763 20.8997L10.6928 20.9155C10.7986 20.9261 10.7563 20.4922 10.7563 20.4922C10.3288 20.4397 9.93475 20.2337 9.6477 19.9125C9.3606 19.5914 9.19987 19.1769 9.1954 18.7461C9.16567 18.3273 9.29024 17.9121 9.5456 17.5787C9.80104 17.2454 10.1696 17.0169 10.5817 16.9366C10.9153 16.8632 11.256 16.8278 11.5977 16.8308C12.1955 16.8466 12.7933 16.9049 13.3807 17.0106L13.8728 17.0847H13.9151C14.1585 17.1218 14.4125 17.1482 14.6453 17.1641C14.7511 17.1746 14.8728 17.1746 14.9839 17.1746C16.1798 17.1746 16.8465 16.6984 17.2009 16.291C17.2867 16.1914 17.3464 16.0718 17.3745 15.9433C17.4027 15.8149 17.3985 15.6815 17.3623 15.5551C17.3261 15.4285 17.2591 15.313 17.1671 15.219C17.0753 15.1249 16.9614 15.055 16.8359 15.0159C16.6748 14.9889 16.5289 14.9043 16.4258 14.7777C16.3225 14.6511 16.269 14.4912 16.275 14.328C16.28 14.2979 16.2908 14.2692 16.3067 14.2434C16.3253 14.2175 16.3489 14.1956 16.3763 14.1793C16.4035 14.1629 16.4339 14.1523 16.4654 14.1481C16.6361 14.1215 16.8072 14.0986 16.9787 14.0793H16.984ZM11.6717 11.2062C12.2008 12.2485 12.7405 12.1322 13.3648 11.8993C13.3648 11.8993 12.9945 10.1003 11.6717 11.2114V11.2062Z" fill="white"/>
<path d="M17.3808 15.8419C17.3808 17.0535 15.9098 17.7468 13.7828 17.535C12.3542 17.3764 10.3912 17.4715 10.0155 18.207C9.38049 19.4559 11.0155 20.8792 10.9414 20.8738C10.8144 20.8633 10.825 20.9268 10.698 20.9108L10.5816 20.8898C9.18968 20.6711 7.86951 20.1252 6.7296 19.2971C5.77163 18.6084 5.00497 17.6869 4.50201 16.6197C2.98344 13.3232 5.16341 11.064 6.63436 10.5666C4.40677 12.445 5.47029 15.6303 7.71376 16.2176C8.40162 16.3975 9.13709 16.3815 9.81434 16.1646C10.2747 16.0588 10.7033 15.8472 11.0737 15.5668C11.0737 15.5668 14.5448 16.6197 15.7564 16.3922C15.8305 16.3763 15.8992 16.3498 15.9627 16.3287C16.6824 16.1012 17.021 15.6409 16.4919 15.3393H16.4759L16.5236 15.3076C16.7088 15.1805 17.3808 14.7942 17.3808 15.8366V15.8419ZM8.67676 6.77278C8.2323 6.84157 7.75079 6.93152 7.35395 7.02147C7.45021 6.69315 7.63081 6.39578 7.87778 6.159C7.92425 6.12729 7.97877 6.10945 8.03499 6.10759C8.0912 6.10571 8.1468 6.11986 8.19526 6.14842C8.40162 6.32304 8.56564 6.53469 8.67676 6.77278Z" fill="white"/>
<path fill-rule="evenodd" clip-rule="evenodd" d="M12.0049 20.4658C14.2501 20.4658 16.4034 19.5739 17.9911 17.9862C19.5788 16.3985 20.4707 14.2452 20.4707 12C20.4707 9.75455 19.5788 7.60127 17.9911 6.0136C16.4034 4.42593 14.2501 3.534 12.0049 3.534C9.75945 3.534 7.60615 4.42593 6.0185 6.0136C4.43081 7.60127 3.53888 9.75455 3.53888 12C3.53888 14.2452 4.43081 16.3985 6.0185 17.9862C7.60615 19.5739 9.75945 20.4658 12.0049 20.4658ZM12.0049 20.995C14.3905 20.995 16.6783 20.0473 18.3652 18.3603C20.0522 16.6734 20.9999 14.3856 20.9999 12C20.9999 9.61431 20.0522 7.32635 18.3652 5.63945C16.6783 3.95256 14.3905 3.00488 12.0049 3.00488C9.61919 3.00488 7.33125 3.95256 5.64435 5.63945C3.95745 7.32635 3.00977 9.61431 3.00977 12C3.00977 14.3856 3.95745 16.6734 5.64435 18.3603C7.33125 20.0473 9.61919 20.995 12.0049 20.995Z" fill="white"/>
<path d="M16.2386 14.1169C15.8153 14.3286 16.4132 15.265 16.7676 15.7043L17.2968 16.2333C17.9318 14.9635 18.0905 13.7624 18.0905 13.3232C17.5614 14.1169 16.7676 13.8524 16.2386 14.1169Z" fill="white"/>
</svg>
