<svg width="24" height="24" viewBox="0 0 24 24" fill="none" xmlns="http://www.w3.org/2000/svg">
<path fill-rule="evenodd" clip-rule="evenodd" d="M21.4146 12C21.4146 14.4961 20.423 16.89 18.658 18.6551C16.8929 20.4202 14.4991 21.4117 12.0028 21.4117H11.9558C11.7853 19.7059 11.1617 18.3883 10.8264 17.8823L11.1206 16.1177L12.0028 14.9411V14.0588L13.1794 12.2942L12.8852 12L12.5911 12.2942L12.8852 11.4117V10.5295C12.8852 9.82357 11.9029 9.25293 11.4147 9.05881L8.76757 11.1176C8.37346 11.0177 7.12052 11.1176 5.23817 12.2942C4.24994 12.9118 3.76171 14.4706 3.54407 16.1295C2.92328 14.857 2.59757 13.4608 2.59122 12.0449C2.58486 10.6291 2.89802 9.23011 3.50736 7.9521C4.11672 6.6741 5.00654 5.55004 6.11057 4.66364C7.21462 3.77725 8.50442 3.15137 9.88389 2.83259C11.2634 2.51383 12.6971 2.51041 14.078 2.82259C15.459 3.13476 16.7518 3.75448 17.86 4.63558C18.9682 5.5167 19.8635 6.63649 20.479 7.91157C21.0943 9.18665 21.4142 10.5841 21.4146 12ZM3.44406 17.1764C2.30007 15.2856 1.81467 13.0691 2.06371 10.8732C2.31274 8.67722 3.28218 6.62565 4.82056 5.039C6.35894 3.45235 8.37957 2.42 10.5667 2.10326C12.7539 1.78651 14.9844 2.20321 16.9097 3.28825C18.8349 4.3733 20.3465 6.06555 21.2084 8.1006C22.0702 10.1357 22.2335 12.3989 21.673 14.5365C21.1123 16.6742 19.8594 18.566 18.1098 19.9163C16.3604 21.2666 14.2129 21.9993 12.0028 22C11.1738 21.9991 10.348 21.8965 9.54405 21.694C6.99584 21.0452 4.8049 19.4205 3.44406 17.1705V17.1764ZM6.85583 18.1765C5.6323 17.2294 5.68524 15.3353 6.41465 14.0588C6.12053 14.9411 5.76759 16.2 6.59112 17.4765C6.63229 17.1705 6.70288 16.7294 6.80876 16.253C6.98523 15.4823 7.30876 14.6353 7.88523 14.0588C7.44993 14.4941 7.30875 15.2411 7.17935 15.8882L7.09699 16.3176C7.0264 16.6352 6.93229 17.4588 6.88523 17.8941L6.85583 18.1765ZM16.7087 11.4117C18.6558 11.4117 20.2381 10.2294 20.2381 8.7647C20.2381 7.29999 18.6558 6.11766 16.7087 6.11766C14.7616 6.11766 13.1794 7.29999 13.1794 8.7647C13.1794 9.31175 13.3969 9.81767 13.7793 10.2353H13.7675L13.4735 11.7059L14.8499 11.0177C15.3911 11.2647 16.0264 11.4117 16.7087 11.4117ZM18.8734 8.7647H19.0617V8.47058H18.8734V8.45882C18.8852 8.35882 18.8911 8.25294 19.0087 8.25294H19.0617V7.88235H18.9793C18.8146 7.88235 18.6852 7.92353 18.591 8.01177C18.5028 8.09412 18.4734 8.22941 18.4734 8.38823V8.47058H18.3323V8.7647H18.4734V9.64706H18.8734V8.7647ZM14.8617 9.64706H15.3264L15.6263 8.47058H15.2382L15.1088 9.21765L14.9323 8.47058H14.4852L14.3087 9.21176L14.1793 8.47058H13.7675L14.0616 9.64706H14.5323L14.697 8.88235L14.8617 9.64706ZM15.6793 9.05881C15.6793 9.41771 15.9264 9.64706 16.297 9.64706C16.6617 9.64706 16.9146 9.41771 16.9146 9.05881C16.9146 8.70588 16.6617 8.47058 16.297 8.47058C15.9323 8.47058 15.6793 8.70588 15.6793 9.05881ZM16.497 9.05881C16.497 9.22352 16.4146 9.35292 16.297 9.35292C16.1793 9.35292 16.097 9.23528 16.097 9.05881C16.097 8.88823 16.1852 8.7647 16.297 8.7647C16.4087 8.7647 16.497 8.89411 16.497 9.05881ZM17.6323 9.64706C17.2675 9.64706 17.0147 9.41771 17.0147 9.05881C17.0147 8.70588 17.2734 8.47058 17.6381 8.47058C17.997 8.47058 18.2557 8.70588 18.2557 9.05881C18.2557 9.41771 17.997 9.64706 17.6323 9.64706ZM17.6323 9.35292C17.7499 9.35292 17.8382 9.22352 17.8382 9.05881C17.8382 8.89411 17.7499 8.7647 17.6381 8.7647C17.5205 8.7647 17.4381 8.88823 17.4381 9.05881C17.4381 9.23528 17.5205 9.35292 17.6323 9.35292Z" fill="white"/>
</svg>
