<svg width="24" height="24" viewBox="0 0 24 24" fill="none" xmlns="http://www.w3.org/2000/svg">
<path d="M12 9.58701C16.6321 9.58701 20.3871 7.88859 20.3871 5.7935C20.3871 3.6984 16.6321 2 12 2C7.36801 2 3.61304 3.6984 3.61304 5.7935C3.61304 7.88859 7.36801 9.58701 12 9.58701Z" fill="white"/>
<path d="M3.61304 7.51611V9.92894C3.61304 12.0258 7.36783 13.7224 12 13.7224C16.6322 13.7224 20.3871 12.0258 20.3871 9.92894V7.52257H20.3547C19.9677 9.45159 16.3742 10.9676 12 10.9676C7.6259 10.9676 4.03238 9.45159 3.6453 7.51611H3.61304Z" fill="white"/>
<path d="M3.61304 11.6584V14.0714C3.61304 16.1616 7.36783 17.8649 12 17.8649C16.6322 17.8649 20.3871 16.1616 20.3871 14.0714V11.6584H20.3547C19.9677 13.5939 16.3742 15.1036 12 15.1036C7.6259 15.1036 4.03238 13.5874 3.6453 11.6584H3.61304Z" fill="white"/>
<path d="M3.61304 15.7935V18.2064C3.61304 20.3032 7.36783 21.9999 12 21.9999C16.6322 21.9999 20.3871 20.3032 20.3871 18.2064V15.7935H20.3547C19.9677 17.729 16.3742 19.2386 12 19.2386C7.6259 19.2386 4.03238 17.729 3.6453 15.7935H3.61304Z" fill="white"/>
</svg>
