<svg width="25" height="24" viewBox="0 0 25 24" fill="none" xmlns="http://www.w3.org/2000/svg">
<path d="M12.5751 17.7361H12.561C11.5256 18.4514 10.4808 19.1762 9.42663 19.9151C9.40214 19.9318 9.37513 19.9445 9.34661 19.9527C9.29955 19.9669 9.26662 19.9904 9.21955 19.9951C9.16308 20.0045 9.12072 19.9998 9.09248 19.9856C9.06173 19.9716 9.03031 19.959 8.99836 19.9481C8.96492 19.9328 8.93335 19.9139 8.90422 19.8915L5.60985 17.6184C5.54524 17.575 5.49585 17.5125 5.46866 17.4396C5.45005 17.3883 5.44049 17.3342 5.44043 17.2796V6.66697C5.44043 6.6152 5.44985 6.56813 5.46866 6.52578C5.48993 6.47128 5.53 6.4262 5.58161 6.3987L5.66633 6.34693L8.9607 4.0644C9.09719 3.97028 9.24309 3.98439 9.37486 4.07382C10.4057 4.79508 11.4364 5.51671 12.4669 6.23869L12.481 6.22929L15.6859 4.08323C15.7424 4.04078 15.8114 4.01822 15.8821 4.01907C15.9527 4.01992 16.0211 4.04414 16.0766 4.08794L19.4039 6.38929C19.451 6.41753 19.5591 6.49753 19.5591 6.55873V17.5807C19.5593 17.5874 19.5575 17.594 19.5542 17.5998C19.5509 17.6056 19.5461 17.6104 19.5403 17.6137L16.2271 19.9056C16.1951 19.9263 16.1603 19.9422 16.1237 19.9527C16.0295 19.9857 15.9777 20.014 15.8742 19.9856C15.8672 19.9842 15.8607 19.9809 15.8554 19.9763C15.8365 19.9527 15.813 19.9621 15.7895 19.9527C14.7187 19.2105 13.6457 18.4717 12.5704 17.7361H12.5751ZM15.7283 8.70007L18.6274 6.68579L18.632 6.68109C18.6338 6.67822 18.6345 6.67497 18.6345 6.67168C18.6345 6.66837 18.6338 6.66512 18.632 6.66225L18.6274 6.65285L15.8836 4.77035H15.8647L12.6599 6.91639C12.6039 6.95952 12.5352 6.98291 12.4645 6.98291C12.3939 6.98291 12.3252 6.95952 12.2692 6.91639L9.17249 4.77035C9.16915 4.76767 9.165 4.76622 9.16073 4.76622C9.15645 4.76622 9.15229 4.76767 9.14896 4.77035L6.40992 6.65285C6.40618 6.65285 6.40259 6.65433 6.39993 6.65698C6.39728 6.65963 6.3958 6.66322 6.3958 6.66697C6.3958 6.67071 6.39728 6.6743 6.39993 6.67695C6.40259 6.67959 6.40618 6.68109 6.40992 6.68109L9.36544 8.73301C9.41721 8.77066 9.45957 8.83184 9.48781 8.92126C9.52546 9.04833 9.45486 9.20363 9.35133 9.27422C8.37013 9.96477 7.38651 10.6519 6.4005 11.3356L6.40521 11.3403C7.32757 11.9804 8.24999 12.6205 9.17249 13.2605C10.2065 12.5258 11.2419 11.7933 12.2786 11.0625C12.3727 10.992 12.5139 11.0156 12.6222 11.0156C12.6324 11.0156 12.6423 11.0189 12.6504 11.0249C12.6833 11.0485 12.721 11.0485 12.754 11.072C13.7983 11.7982 14.8416 12.5261 15.8836 13.2557L18.632 11.345V11.3356C18.6339 11.331 18.6339 11.326 18.632 11.3214V11.3168C17.646 10.6341 16.6607 9.95017 15.6765 9.26481C15.5824 9.19422 15.5118 9.06245 15.5353 8.9495C15.5486 8.89651 15.5727 8.84683 15.6059 8.8036C15.6295 8.77066 15.6671 8.73301 15.7236 8.69535L15.7283 8.70007ZM6.14166 10.672L8.54185 9.00597L8.54421 9.00278L8.54504 8.99891L8.54421 8.99503L8.54185 8.99185L6.14166 7.33055C6.12754 7.32113 6.12284 7.32113 6.12754 7.33996L6.13695 7.41526C6.13831 8.50083 6.13831 9.58641 6.13695 10.672H6.14166ZM8.73009 13.8064L6.13695 11.9897L6.12754 11.9945V12.065C6.136 13.7625 6.13912 15.4598 6.13695 17.1572L6.15107 17.1713L8.7254 18.9691L8.73481 18.9644V13.8064H8.73009ZM15.7943 13.9945L15.7895 13.9853L12.9657 12.0461V17.2043L15.7753 19.1574H15.7943L15.7988 19.148V13.9898L15.7943 13.9945Z" fill="white"/>
</svg>
