<svg width="24" height="24" viewBox="0 0 24 24" fill="none" xmlns="http://www.w3.org/2000/svg">
<path d="M20.0001 12.1957C20.0001 12.1957 19.6717 11.4758 18.8926 11.021L18.7959 11.56C19.1874 11.6821 19.5874 11.8884 20.0001 12.1915V12.1957Z" fill="white"/>
<path d="M4 7.19775C4 7.19775 4.35368 8.0146 4.65684 9.30301L5.06947 8.18723L4 7.19775Z" fill="white"/>
<path d="M5.06986 8.18701L4.65723 9.2986C4.8888 10.2881 5.06986 11.5597 5.03617 12.9617L5.75196 10.8776C5.70143 10.4734 5.65512 10.0439 5.58354 9.59333L6.04249 10.0312L6.2867 9.32385L5.06986 8.18701Z" fill="white"/>
<path d="M6.57714 11.5225C6.57714 11.5225 7.04872 14.2341 5.9203 16.8025C5.9203 16.8025 6.05503 16.752 6.30767 16.6762L7.64662 12.5498C7.26263 12.2372 6.90494 11.8937 6.57714 11.5225ZM6.27398 9.29932L6.02977 10.0193L7.89926 11.7667L8.14347 11.0214L6.27398 9.29932ZM4.25293 16.7646C4.25293 16.7646 6.37082 16.5962 5.73925 10.8656L5.02345 12.954C4.98136 14.1751 4.76662 15.4719 4.25713 16.7646H4.25293Z" fill="white"/>
<path d="M10.0887 10.8993L9.61287 11.5225C9.61287 11.5225 9.77291 11.7077 10.0382 11.9773L10.2318 11.0593C10.1808 11.0089 10.1331 10.9555 10.0887 10.8993ZM10.5982 9.42139L10.9645 7.71191L8.1813 11.0593L8.14341 11.0214L7.8992 11.7667L8.1813 12.0235L10.5982 9.42139ZM7.2213 15.5941C7.2213 15.5941 7.53709 14.3561 7.44024 13.333L9.29288 14.5035C9.29288 14.5035 9.3813 14.4572 9.52867 14.3435L9.80661 13.0383C9.65079 13.1645 9.49075 13.2951 9.30968 13.4172C9.30968 13.4172 8.59393 13.2825 7.64656 12.5498L6.30762 16.6762C7.23369 16.3985 8.18165 16.1999 9.1413 16.0825L9.35606 15.1014C8.63149 15.2033 7.91721 15.3681 7.2213 15.5941Z" fill="white"/>
<path d="M11.0743 8.90771L12.649 10.655L12.8595 9.7035L10.9732 7.71191H10.9605L10.5985 9.42139L11.07 8.90771H11.0743ZM12.0048 13.712L12.1732 12.9161C12.0175 12.7941 11.8364 12.634 11.6258 12.4656C11.8953 12.1836 12.19 11.8551 12.4806 11.4972V11.4761L11.9837 10.8656C11.9837 10.8656 11.6553 11.3034 11.0489 11.9183C10.7708 11.6419 10.4984 11.3597 10.2321 11.0719L10.0385 11.9856L10.5016 12.4488C10.2911 12.6467 10.0511 12.8445 9.80691 13.0509L9.52897 14.3561C9.82372 14.1498 10.3922 13.712 11.1079 13.0004C11.4 13.246 11.6992 13.4833 12.0048 13.712ZM9.35635 15.093L9.1416 16.0698C9.84474 15.9729 10.6574 15.9013 11.5332 15.8845L11.7437 14.9204C10.9859 14.9204 10.1858 14.9666 9.35635 15.0888V15.093Z" fill="white"/>
<path d="M13.3057 13.6015C13.3057 13.6015 12.9563 13.5258 12.1773 12.9153L12.0089 13.7111C12.4805 14.0478 12.9773 14.3553 13.4531 14.5406C13.4531 14.5406 13.9036 13.8332 14.6446 13.0879L14.8509 11.9974C14.3373 12.4016 13.8026 12.9278 13.3057 13.5974V13.6015ZM13.8783 12.0226L15.0447 10.9237L15.251 9.81211L14.0257 10.9489L12.8594 9.70264L12.6488 10.6542L13.8783 12.0226ZM11.7394 14.9321L11.5288 15.9005C12.3247 15.8837 13.1709 15.909 14.072 16.0058L14.2404 15.1006C13.4115 14.9881 12.5759 14.9319 11.7394 14.9321Z" fill="white"/>
<path d="M17.2213 10.6801L16.9771 11.5854C17.5455 11.417 18.156 11.3875 18.7876 11.5727L18.8845 11.0338C18.3827 10.7356 17.7966 10.6113 17.2171 10.6801H17.2213Z" fill="white"/>
<path d="M16.5979 15.6058C16.5979 15.6058 16.3537 15.53 15.941 15.4206L15.7222 16.2501C16.4042 16.3848 17.0947 16.5701 17.8021 16.789C17.8021 16.789 16.7327 14.7385 16.9769 11.5679L16.2695 14.1869C16.3454 14.6501 16.4506 15.1259 16.5979 15.6058Z" fill="white"/>
<path d="M16.5728 9.45889C16.5728 9.45889 16.3539 10.0694 16.2234 11.0715C15.8318 11.282 15.3476 11.5726 14.8339 11.9979L14.6318 13.0883C15.0444 12.6715 15.5665 12.2462 16.1475 11.9263C16.1093 12.6864 16.1516 13.4487 16.2739 14.1999L17.217 10.68C17.1707 10.68 17.1328 10.6926 17.0866 10.6926C17.2692 9.49008 17.6163 8.31841 18.1181 7.21045C18.1181 7.21045 16.4759 8.70099 15.2759 9.81257L15.0655 10.9241L16.5728 9.45889ZM14.2402 15.1011L14.0718 16.0063C14.6065 16.0695 15.1539 16.1536 15.7139 16.2631L15.9328 15.4336C15.5286 15.3242 14.9475 15.202 14.2402 15.1011Z" fill="white"/>
</svg>
