<svg width="25" height="24" viewBox="0 0 25 24" fill="none" xmlns="http://www.w3.org/2000/svg">
<path d="M20.5 12C20.5 14.1218 19.6571 16.1566 18.1568 17.6568C16.6566 19.1571 14.6218 20 12.5 20C10.3783 20 8.34343 19.1571 6.84314 17.6568C5.34286 16.1566 4.5 14.1218 4.5 12C4.5 9.87828 5.34286 7.84343 6.84314 6.34314C8.34343 4.84286 10.3783 4 12.5 4C14.6218 4 16.6566 4.84286 18.1568 6.34314C19.6571 7.84343 20.5 9.87828 20.5 12ZM20.0858 12C20.0858 9.98809 19.2866 8.05859 17.8641 6.63596C16.4414 5.21334 14.5118 4.41411 12.5 4.41411C10.4881 4.41411 8.55859 5.21334 7.13596 6.63596C5.71334 8.05859 4.91411 9.98809 4.91411 12C4.91411 14.0118 5.71334 15.9414 7.13596 17.3641C8.55859 18.7866 10.4881 19.5858 12.5 19.5858C14.5118 19.5858 16.4414 18.7866 17.8641 17.3641C19.2866 15.9414 20.0858 14.0118 20.0858 12Z" fill="white"/>
<path d="M15.9256 6.81933C16.5609 7.17227 16.895 7.61933 16.9233 8.16991C16.4526 8.15109 16.0621 8.29698 15.7374 8.60756C15.5209 8.81461 14.9843 9.35109 14.1374 10.2076C14.0667 10.1083 13.9791 10.0222 13.8785 9.95339L12.4902 8.57461L13.615 7.46874C13.912 7.18909 14.2745 6.98845 14.6691 6.88521C15.075 6.75454 15.5081 6.73184 15.9256 6.81933Z" fill="white"/>
<path d="M8.46264 9.2889C8.32223 9.1367 8.21368 8.95797 8.14337 8.7632C8.07306 8.56843 8.04241 8.36157 8.05322 8.15479C7.48382 8.20184 7.04146 8.53596 6.72146 9.15713C6.61667 9.75173 6.7127 10.3643 6.9944 10.8983C7.14029 11.1806 7.37087 11.4771 7.68618 11.7877C8.16617 12.2583 8.5144 12.7478 9.01793 13.2466C9.24794 13.4663 9.42635 13.7343 9.54028 14.0314C9.6542 14.3284 9.70081 14.647 9.67675 14.9642C9.66263 15.7171 9.70499 16.1877 9.73794 16.3853C9.90337 17.123 10.3402 17.7714 10.9614 18.2018L11.3332 18.296C11.4885 18.3383 11.6109 18.3572 11.705 18.3618C12.0532 18.3618 12.3638 18.2536 12.6461 18.0324C12.6744 18.0089 12.6791 17.9948 12.665 17.9854C12.3356 17.6325 12.0297 17.2325 12.0297 16.7854V12.9406C12.0297 12.6207 12.2791 12.2677 12.5097 11.8866L10.8533 10.2065C10.5709 10.5502 10.2556 10.6678 9.89322 10.5594C9.72851 10.5125 9.54499 10.3854 9.32852 10.1736L8.46264 9.29361V9.2889Z" fill="white"/>
<path d="M13.8789 9.95269L12.4906 8.57382L12.2082 8.28206C11.7847 7.835 11.3141 7.3503 10.853 7.09618C10.4545 6.8813 10.0103 6.76538 9.55768 6.75817C9.10506 6.75096 8.65735 6.85268 8.2523 7.05475C7.84723 7.25682 7.49668 7.55332 7.23022 7.91924C6.96375 8.28518 6.78918 8.70981 6.72119 9.15735C7.04119 8.53618 7.48355 8.20206 8.05296 8.155C8.53296 8.15029 8.93296 8.29617 9.25296 8.60676C9.46943 8.81382 9.95885 9.30324 10.7258 10.075L10.853 10.2021L12.5094 11.8821C12.7824 12.1079 12.9753 12.3809 13.093 12.7009C13.2623 13.2279 13.253 13.8256 13.2388 14.395V14.8655C13.2388 15.8821 13.2341 16.5268 13.2248 16.8091C13.2164 17.2425 13.043 17.6566 12.74 17.9667C12.7259 17.9761 12.7023 17.9856 12.6648 17.9856C12.6788 17.9949 12.6741 18.0091 12.6412 18.0326C12.3636 18.2539 12.0529 18.362 11.7001 18.362C11.6106 18.362 11.4882 18.3385 11.3329 18.2961L10.9612 18.2021C11.3224 18.4817 11.7461 18.6699 12.1958 18.7505C12.6454 18.8311 13.1081 18.8018 13.544 18.6649C13.9799 18.5281 14.3761 18.2879 14.6992 17.9648C15.0221 17.6416 15.2621 17.2451 15.3989 16.8091C15.5636 16.3009 15.5494 15.722 15.54 15.1761L15.5306 14.8702C15.5259 14.4844 15.5306 14.235 15.5494 14.1173C15.6058 13.7315 15.7658 13.3926 16.0201 13.0961C16.1518 12.9409 16.2929 12.7902 16.4436 12.6397L16.7258 12.362C17.1682 11.9432 17.6435 11.4915 17.9165 11.0491C18.159 10.6538 18.2994 10.2045 18.3253 9.74143C18.3513 9.2784 18.2618 8.81618 18.0649 8.39628C17.8681 7.97639 17.5699 7.61197 17.1975 7.33577C16.8249 7.05956 16.3895 6.8802 15.9305 6.81382C16.5612 7.17147 16.8953 7.62324 16.9282 8.16912C16.9282 8.61617 16.787 8.99735 16.4953 9.31735C16.218 9.62164 15.9293 9.91514 15.6295 10.1973C15.3659 10.4561 15.2058 10.6115 14.8059 10.5785C14.6734 10.5699 14.5445 10.5317 14.4289 10.4665C14.3131 10.4013 14.2137 10.311 14.1377 10.2021C14.0666 10.1044 13.979 10.02 13.8789 9.95269Z" fill="white"/>
</svg>
