<svg width="24" height="24" viewBox="0 0 24 24" fill="none" xmlns="http://www.w3.org/2000/svg">
<path d="M13.3999 4H15.2499C15.89 4 16.4251 4 16.8599 4.035C17.3147 4.05783 17.7602 4.17175 18.17 4.37C18.8012 4.69314 19.3141 5.20769 19.635 5.84003C19.845 6.26004 19.9251 6.69505 19.965 7.15505C20 7.59505 20 8.13507 20 8.77507V10.7252C20 11.3651 20 11.9051 19.965 12.3451C19.9431 12.8009 19.8309 13.248 19.635 13.6602C19.3145 14.2942 18.8018 14.8105 18.17 15.1353C17.7551 15.3453 17.32 15.4252 16.8599 15.4652C16.4251 15.5002 15.89 15.5002 15.255 15.5002H9.70981C9.52032 15.4965 9.33593 15.4379 9.17927 15.3311C9.02261 15.2244 8.90045 15.0742 8.82776 14.8993C8.75507 14.7241 8.735 14.5316 8.77 14.3452C8.80502 14.1589 8.89357 13.9868 9.02485 13.8501L13.5249 8.88508L14.905 10.2451L12.0149 13.5001H15.215C16.3699 13.5001 17.88 13.6902 18 12.1851V7.31505C17.935 6.53004 17.515 6.06503 16.7 6.00002H11.9299C11.14 6.06503 10.6049 6.48004 10.5499 7.26506C10.5249 7.62005 10.4899 8.13507 10.4999 8.83008V9.64509L8.49985 9.67013V8.83008C8.48984 8.18006 8.49985 7.64006 8.52984 7.19506C8.56484 6.73005 8.63985 6.29003 8.84985 5.86503C9.21993 5.21773 9.77795 4.69812 10.4499 4.375C10.8699 4.15499 11.31 4.07499 11.77 4.035C12.2149 4 12.7549 4 13.3949 4H13.3999Z" fill="white"/>
<path d="M7.30006 17.9995H12.1252C12.9051 17.9395 13.4402 17.4546 13.5002 16.6795V15.4995H15.5002V16.8246C15.4317 17.4347 15.2103 18.0179 14.8562 18.5195C14.5022 19.0213 14.0271 19.4255 13.4752 19.6946C13.0902 19.8696 12.6901 19.9396 12.2701 19.9696C11.8701 19.9996 11.3801 19.9996 10.8051 19.9996H8.74508C8.11007 19.9996 7.57506 19.9996 7.14005 19.9646C6.68535 19.9417 6.23987 19.8278 5.83003 19.6296C5.1988 19.3064 4.68599 18.7918 4.365 18.1596C4.16911 17.7473 4.05694 17.3003 4.035 16.8445C4 16.3995 4 15.8645 4 15.2294V13.2595C4 12.6195 4 12.0844 4.035 11.6444C4.075 11.1844 4.15499 10.7443 4.365 10.3294C4.68542 9.69539 5.19825 9.1791 5.83003 8.85437C6.24504 8.64436 6.68005 8.56437 7.14005 8.52438C7.57506 8.48937 8.11007 8.49937 8.74508 8.49937H14.2903C14.8203 8.49937 15.2551 8.92437 15.2551 9.45938C15.2551 9.99441 14.8203 10.4994 14.2852 10.4994H8.78507C8.10007 10.4994 7.64506 10.4994 7.29506 10.5294C6.51504 10.5944 6.06504 11.0243 6.00003 11.8044V16.6846C6.06504 17.4645 6.51504 17.9345 7.30006 17.9995Z" fill="white"/>
</svg>
