<svg width="24" height="24" viewBox="0 0 24 24" fill="none" xmlns="http://www.w3.org/2000/svg">
<path d="M3.34657 13.1631C2.55155 12.3032 3.22156 10.9032 4.37158 11.0031L19.8519 12.3782C20.8619 12.4681 21.3569 13.6781 20.7068 14.4783L17.8018 18.0382L17.4769 17.7633L17.7967 18.0382C17.6805 18.1808 17.5341 18.296 17.3682 18.3756C17.2022 18.4551 17.0207 18.497 16.8368 18.4983H8.79665C8.44664 18.4983 8.11664 18.3483 7.88163 18.0932L3.34657 13.1582V13.1631ZM4.29659 11.8632C3.91657 11.8281 3.69658 12.2932 3.95658 12.5782L8.49164 17.5133C8.57164 17.5982 8.68165 17.6483 8.79665 17.6483H16.8368C16.9568 17.6483 17.0768 17.5933 17.1568 17.4982L20.0669 13.9332C20.2818 13.6682 20.1168 13.2631 19.7819 13.2331L4.29659 11.8581V11.8632Z" fill="white"/>
<path d="M6.24131 6.754C6.48631 5.859 7.47134 5.31899 8.43134 5.55899L18.0165 7.96404C18.2911 8.02535 18.5372 8.17684 18.7158 8.39432C18.8943 8.61179 18.9949 8.88277 19.0015 9.16405V9.26405C19.0015 9.99911 18.3166 10.574 17.5265 10.499L7.59132 9.50406C6.51631 9.39906 5.79131 8.43403 6.05631 7.45402L6.24131 6.754ZM8.19634 6.359C7.71633 6.239 7.22632 6.50901 7.10632 6.95901L6.91632 7.65903C6.78632 8.14904 7.14632 8.62905 7.68633 8.68405L17.6214 9.67406C17.8815 9.69904 18.1115 9.50905 18.1115 9.26405V9.16405C18.1115 8.97404 17.9765 8.81405 17.7815 8.76405L8.19634 6.36401V6.359Z" fill="white"/>
</svg>
