<svg width="24" height="24" viewBox="0 0 24 24" fill="none" xmlns="http://www.w3.org/2000/svg">
<path d="M18.5087 7.33802L17.2003 9.3655C17.6128 10.1832 17.8269 11.0865 17.8255 12.0023C17.824 12.9181 17.6069 13.8208 17.1918 14.6372C16.7767 15.4536 16.1751 16.1606 15.436 16.7013C14.6966 17.242 13.8406 17.6011 12.9368 17.7494C11.7273 17.9474 10.4898 17.7494 9.39333 17.1994L7.36035 18.5069C8.5102 19.3303 9.85807 19.8337 11.2662 19.9655C12.6744 20.0974 14.0922 19.853 15.3749 19.2572C16.6577 18.6615 17.7592 17.7359 18.5669 16.5748C19.3746 15.4139 19.8595 14.0592 19.9722 12.6494C20.1277 10.7601 19.6092 8.8767 18.5087 7.33301H18.5137L18.5087 7.33802Z" fill="white"/>
<path d="M12.0117 16.0071C12.9519 16.0079 13.8626 15.6786 14.585 15.0768C15.3074 14.4749 15.7956 13.6386 15.9646 12.7137C14.7119 12.4421 13.4163 12.4367 12.1613 12.6976C10.9064 12.9586 9.72027 13.4802 8.67969 14.2286C9.04706 14.7752 9.543 15.2232 10.1239 15.5332C10.7049 15.8434 11.3531 16.0061 12.0117 16.0071Z" fill="white"/>
<path d="M13.9928 11.7773C14.6799 11.7773 15.3578 11.8529 16.0302 11.9989C16.0302 11.1807 15.7804 10.3819 15.3144 9.70931C14.8484 9.03674 14.1885 8.52226 13.4224 8.23457C12.6565 7.94688 11.821 7.89966 11.0274 8.09921C10.234 8.29876 9.52015 8.73559 8.98137 9.3514C8.60403 9.78397 8.32386 10.2924 8.1598 10.8424C7.99574 11.3924 7.9516 11.9714 8.03038 12.5398C7.47502 12.948 6.96955 13.4201 6.52439 13.9464C6.23851 13.1285 6.13841 12.2573 6.23139 11.3958C6.32436 10.5345 6.60807 9.70463 7.06191 8.9666C7.51573 8.22858 8.12828 7.60095 8.85503 7.12931C9.58178 6.65765 10.4044 6.35385 11.2633 6.23993C12.4113 6.08994 13.5783 6.28694 14.6138 6.80493L16.6373 5.49195C15.4812 4.66459 14.1254 4.16079 12.7095 4.03257C11.2936 3.90432 9.86928 4.15631 8.58341 4.76248C7.29751 5.36866 6.19672 6.30706 5.39466 7.48081C4.59261 8.65457 4.11838 10.0211 4.02093 11.4393C3.88639 13.3409 4.43556 15.2279 5.56941 16.7604C5.94634 16.0786 6.40451 15.4453 6.93389 14.8739C7.36939 14.423 7.8415 14.0091 8.34538 13.6364C9.98362 12.4313 11.9637 11.7805 13.9974 11.7784L13.9928 11.7773Z" fill="white"/>
</svg>
