<svg width="24" height="24" viewBox="0 0 24 24" fill="none" xmlns="http://www.w3.org/2000/svg">
<path d="M4.5166 9.60553C4.5166 9.07389 4.91402 8.64551 5.40433 8.64551H6.20948C6.69981 8.64551 7.09723 9.07389 7.09723 9.60553V13.8789C7.09723 14.4106 6.69981 14.839 6.20948 14.839H5.40433C4.91402 14.839 4.5166 14.4106 4.5166 13.8789V9.60553Z" fill="white"/>
<path d="M16.9033 9.49196C16.9033 9.02744 17.3007 8.64551 17.7911 8.64551H18.5962C19.0866 8.64551 19.4839 9.02744 19.4839 9.49196V12.9603C19.4839 13.4248 19.0866 13.8067 18.5962 13.8067H17.7911C17.3007 13.8067 16.9033 13.4248 16.9033 12.9603V9.49196Z" fill="white"/>
<path d="M13.8066 11.6018C13.8066 11.1115 14.204 10.709 14.6943 10.709H15.4995C15.9897 10.709 16.3872 11.1115 16.3872 11.6018V17.0418C16.3872 17.5321 15.9897 17.9347 15.4995 17.9347H14.6943C14.204 17.9347 13.8066 17.5321 13.8066 17.0418V11.6018Z" fill="white"/>
<path d="M7.61328 4.91354C7.61328 4.40774 8.0107 4 8.50101 4H9.30616C9.7965 4 10.1939 4.4129 10.1939 4.91354V12.3766C10.1939 12.8825 9.7965 13.2902 9.30616 13.2902H8.50101C8.0107 13.2902 7.61328 12.8773 7.61328 12.3766V4.91354Z" fill="white"/>
<path d="M10.71 6.45721C10.71 5.95656 11.1073 5.54883 11.5976 5.54883H12.4028C12.893 5.54883 13.2905 5.95656 13.2905 6.45721V19.0919C13.2905 19.5925 12.893 20.0003 12.4028 20.0003H11.5976C11.1073 20.0003 10.71 19.5925 10.71 19.0919V6.45721Z" fill="white"/>
</svg>
