<svg width="24" height="24" viewBox="0 0 24 24" fill="none" xmlns="http://www.w3.org/2000/svg">
<path d="M8.70301 4.0887C8.5747 4.01726 8.42723 3.98783 8.28134 4.00458C8.13544 4.02132 7.99846 4.08338 7.88968 4.18203L7.03189 4.95538C6.65412 5.2976 6.72077 5.93315 7.17412 6.17316L14.0986 9.90651L9.25413 13.4621C8.91635 13.7021 8.95635 14.2266 9.32523 14.4132L17.3164 18.4532L16.2053 19.2577L6.663 13.9021L11.1652 10.7021C11.4897 10.4709 11.4764 9.97313 11.1341 9.76429L8.36967 8.0665L7.96079 8.67984L10.5253 10.2531L6.00966 13.4665C5.68078 13.7021 5.70744 14.2132 6.05855 14.4132L15.8586 19.911C16.0987 20.0443 16.392 20.0265 16.6142 19.8665L17.7297 19.0576C17.8316 18.9817 17.9127 18.8813 17.9654 18.7658C18.0184 18.6503 18.041 18.5232 18.0318 18.3965C18.0225 18.2698 17.9814 18.1475 17.9122 18.0409C17.8432 17.9342 17.7483 17.8467 17.6364 17.7865L9.91192 13.8843L14.7565 10.3377C15.0853 10.0976 15.0497 9.58206 14.6942 9.39095L7.50745 5.51093L8.36078 4.73759L17.3431 9.7154L12.4764 13.2754C12.1519 13.5155 12.183 14.0265 12.5341 14.2221L16.9564 16.6755L17.3431 15.9955L13.1297 13.7065L17.9965 10.1465C18.3209 9.90651 18.2897 9.3954 17.9386 9.19984L8.70301 4.0887ZM7.58301 8.44428L7.9919 7.83539L7.17412 7.33316L6.80522 7.96872L7.58301 8.44873V8.44428Z" fill="white"/>
</svg>
