<svg width="24" height="24" viewBox="0 0 24 24" fill="none" xmlns="http://www.w3.org/2000/svg">
<g clip-path="url(#clip0_328_57666)">
<path d="M24 0H0V24H24V0Z" fill="url(#paint0_linear_328_57666)"/>
<path d="M13.6712 6.37957C13.5173 6.06663 13.2789 5.80306 12.9828 5.61874C12.6867 5.43442 12.345 5.33672 11.9962 5.33672C11.6474 5.33672 11.3057 5.43442 11.0096 5.61874C10.7136 5.80306 10.475 6.06663 10.3211 6.37957L5.26473 15.9634C5.12159 16.2485 5.05391 16.5656 5.06814 16.8843C5.08239 17.203 5.17807 17.5128 5.34606 17.784C5.51407 18.0551 5.74876 18.2788 6.02777 18.4334C6.30678 18.5882 6.62078 18.6688 6.93982 18.6677H17.0525C17.3716 18.6688 17.6856 18.5882 17.9646 18.4334C18.2436 18.2788 18.4783 18.0551 18.6463 17.784C18.8143 17.5128 18.9099 17.203 18.9242 16.8843C18.9384 16.5656 18.8707 16.2485 18.7276 15.9634L13.6712 6.37957ZM9.36658 5.89919C9.60896 5.40879 9.98368 4.99593 10.4484 4.70726C10.913 4.4186 11.4492 4.26562 11.9962 4.26562C12.5432 4.26562 13.0794 4.4186 13.5441 4.70726C14.0087 4.99593 14.3834 5.40879 14.6258 5.89919L19.6871 15.4842C19.9126 15.9324 20.0194 16.431 19.9971 16.9322C19.975 17.4335 19.8244 17.9206 19.5601 18.3471C19.2957 18.7734 18.9263 19.125 18.4873 19.3678C18.0482 19.6107 17.5543 19.7368 17.0525 19.7342H6.93982C6.43937 19.7334 5.94739 19.605 5.51033 19.3614C5.07327 19.1176 4.70553 18.7665 4.44186 18.3411C4.17819 17.9158 4.02727 17.4303 4.00336 16.9304C3.97946 16.4306 4.08335 15.9328 4.30523 15.4842L9.36658 5.90542V5.89919Z" fill="white"/>
</g>
<defs>
<linearGradient id="paint0_linear_328_57666" x1="16.9679" y1="5.95152" x2="7.49236" y2="18.537" gradientUnits="userSpaceOnUse">
<stop stop-color="#95E141"/>
<stop offset="0.59" stop-color="#63B836"/>
<stop offset="1" stop-color="#409C2D"/>
</linearGradient>
<clipPath id="clip0_328_57666">
<rect width="24" height="24" fill="white"/>
</clipPath>
</defs>
</svg>
