<svg width="24" height="24" viewBox="0 0 24 24" fill="none" xmlns="http://www.w3.org/2000/svg">
<g clip-path="url(#clip0_328_57715)">
<path d="M24 0H0V24H24V0Z" fill="#0B76FF"/>
<path d="M11.9993 15.6007H15.319L11.9993 10.0008V6.40017L18.7994 17.5998H11.9993V15.6007ZM11.9993 15.6007H8.66365L11.9993 10.0008V6.40017L5.19922 17.5998H11.9993V15.6007Z" fill="white"/>
<path d="M12.0001 11.601V14.8003H10L12.0001 11.601ZM12.0001 11.601V14.8003H14.0001L12.0001 11.601Z" fill="white"/>
<path d="M4 9.90493L11.9919 13.6008V13.9882L4 12.241V9.90493Z" fill="white"/>
<path d="M20 8.82912L11.9922 13.6049V13.7365L20 10.3728V8.82912ZM20 13.4565L11.9922 13.9931V13.8643L20 11.9137V13.4565Z" fill="white"/>
<path d="M20 10.3721L11.9922 13.732V13.8636L20 11.913V10.3721Z" fill="white"/>
</g>
<defs>
<clipPath id="clip0_328_57715">
<rect width="24" height="24" fill="white"/>
</clipPath>
</defs>
</svg>
