<svg width="24" height="24" viewBox="0 0 24 24" fill="none" xmlns="http://www.w3.org/2000/svg">
<g clip-path="url(#clip0_328_57803)">
<path d="M24 0H0V24H24V0Z" fill="#B0B1AC"/>
<path d="M12.0496 14.998H3.84229V3H12.0496C13.4016 3.0014 14.6979 3.53955 15.6533 4.49623C16.6087 5.45289 17.1452 6.74977 17.1447 8.10182V9.89607C17.1447 11.248 16.6082 12.5448 15.6529 13.5014C14.6974 14.458 13.4015 14.9963 12.0496 14.998Z" fill="white"/>
<path d="M14.1588 21H3.84229V14.9978C3.84211 14.2105 3.99707 13.4306 4.29833 12.7033C4.59957 11.9756 5.04122 11.3147 5.59799 10.7578C6.15477 10.2011 6.8158 9.7595 7.5433 9.45825C8.27082 9.15694 9.05054 9.00197 9.83794 9.00215H14.1588C14.9466 9.00215 15.7268 9.15731 16.4546 9.45877C17.1824 9.76028 17.8437 10.2022 18.4007 10.7592C18.9579 11.3163 19.3996 11.9776 19.7011 12.7053C20.0026 13.4333 20.1579 14.2133 20.1579 15.0011C20.1579 15.7889 20.0026 16.5689 19.7011 17.2969C19.3996 18.0247 18.9579 18.6859 18.4007 19.243C17.8437 19.8001 17.1824 20.242 16.4546 20.5435C15.7268 20.8449 14.9466 21 14.1588 21Z" fill="white"/>
<path d="M17.1445 9.79493V9.89596C17.1445 10.5661 17.0126 11.2294 16.7562 11.8484C16.4998 12.4674 16.124 13.0298 15.6502 13.5035C15.1766 13.9774 14.6141 14.3531 13.9951 14.6094C13.3761 14.8659 12.7126 14.9978 12.0427 14.9978H3.84326C3.84396 13.4079 4.47588 11.8833 5.60012 10.759C6.72439 9.63478 8.24901 9.00284 9.83897 9.00215H14.1599C15.2505 9.00215 16.2691 9.29483 17.1459 9.79493" fill="white"/>
</g>
<defs>
<clipPath id="clip0_328_57803">
<rect width="24" height="24" fill="white"/>
</clipPath>
</defs>
</svg>
