<svg width="24" height="24" viewBox="0 0 24 24" fill="none" xmlns="http://www.w3.org/2000/svg">
<g clip-path="url(#clip0_328_57822)">
<path d="M24 0H0V24H24V0Z" fill="#FCCD0C"/>
<path fill-rule="evenodd" clip-rule="evenodd" d="M16.1676 16.469L14.9304 15.2414C14.7756 15.7192 14.3875 16.1129 13.8648 16.2531L11.739 16.823C10.9228 17.0418 10.0806 16.5609 9.86329 15.7492L9.58471 14.7091L7.83375 16.469C7.77467 16.5276 7.74265 16.6048 7.74265 16.6881V20.1H6.63545V16.6881C6.63545 16.3118 6.78309 15.9559 7.0526 15.6899L9.26177 13.4979L9.16943 13.153L6.00635 13.9942L5.99981 13.995C5.91495 14.0055 5.83734 14.0518 5.78633 14.1207L3.9049 17.4455L3 16.8103L4.87605 13.4925L4.87895 13.4884C5.10653 13.169 5.46044 12.9562 5.85076 12.9054L9.17061 12.0374C9.34078 11.595 9.71464 11.2358 10.2087 11.1034L12.3346 10.5334C13.1508 10.3147 13.9929 10.7955 14.2103 11.6072L14.2341 11.6959L14.2871 11.8948L18.1494 12.9054C18.5395 12.9576 18.8932 13.1703 19.1209 13.4883L19.1238 13.4925L21 16.8103L20.0951 17.4455L18.2151 14.1207C18.1644 14.0525 18.0868 14.0066 18.0004 13.9949L17.9944 13.9941L14.6067 13.0931L14.7063 13.4648L16.9489 15.69C17.2164 15.9569 17.3659 16.3114 17.3659 16.6881V20.1H16.2587V16.6881C16.2587 16.6048 16.2267 16.5276 16.1676 16.469ZM13.8849 14.6725C13.9449 14.8967 13.8098 15.1302 13.582 15.1913L11.4561 15.7612C11.2283 15.8223 10.9945 15.6877 10.9344 15.4635L10.1903 12.685C10.1304 12.4608 10.2655 12.2272 10.4933 12.1661L12.6192 11.5962C12.847 11.5351 13.0808 11.6697 13.1409 11.8939L13.8849 14.6725Z" fill="white"/>
<path fill-rule="evenodd" clip-rule="evenodd" d="M20.0949 6.5545L21 7.18965L19.1238 10.5076L19.1209 10.5118C18.8932 10.8297 18.5395 11.0424 18.1494 11.0945L14.6345 12.0136V12.063C14.6345 12.9034 13.9453 13.5859 13.1005 13.5859H10.8995C10.0545 13.5859 9.36551 12.9034 9.36551 12.063V12.0136L5.85076 11.0946C5.46044 11.0438 5.10653 10.8309 4.87895 10.5115L4.87605 10.5075L3 7.18965L3.9049 6.55453L5.78633 9.8794C5.83734 9.94825 5.9215 9.99539 6.00635 10.0057L9.36689 10.8996V10.6065L7.05265 8.31013C6.78315 8.04422 6.63545 7.68819 6.63545 7.31184V3.89997H7.74265V7.31184C7.74265 7.39519 7.77467 7.47241 7.83375 7.53102L9.37254 9.05665C9.43985 8.27763 10.1004 7.66494 10.901 7.66494H13.1018C13.9023 7.66494 14.5629 8.27756 14.6303 9.05652L16.1676 7.53102C16.2267 7.47243 16.2587 7.39519 16.2587 7.31184V3.89997H17.3659V7.31184C17.3659 7.68861 17.2165 8.04289 16.9491 8.30974L14.6345 10.6065V10.8996L17.9944 10.006C18.0808 9.99427 18.1644 9.94758 18.2151 9.8794L20.0949 6.5545ZM13.5286 12.0644C13.5286 12.2966 13.3377 12.4872 13.1018 12.4872H10.901C10.6651 12.4872 10.4741 12.2966 10.4741 12.0644V9.18791C10.4741 8.9558 10.6651 8.76516 10.901 8.76516H13.1018C13.3377 8.76516 13.5286 8.9558 13.5286 9.18791V12.0644Z" fill="white"/>
<path d="M13.8647 16.2531L13.5819 15.1913C13.8097 15.1302 13.9448 14.8967 13.8848 14.6725L13.1408 11.8939C13.0807 11.6697 12.8469 11.5351 12.6191 11.5962L12.3345 10.5334C13.1507 10.3147 13.9928 10.7955 14.2102 11.6072L14.234 11.6959L14.2966 11.8979L18.1493 12.9054C18.5394 12.9576 18.8931 13.1703 19.1208 13.4883L19.1237 13.4925L20.9999 16.8103L20.0949 17.4455L18.215 14.1207C18.1643 14.0525 18.0867 14.0066 18.0003 13.9949L17.9943 13.9941L14.6066 13.0931L14.7062 13.4648L16.9488 15.69C17.2163 15.9569 17.3658 16.3114 17.3658 16.6881V20.1H16.2586V16.6881C16.2586 16.6048 16.2266 16.5276 16.1675 16.469L14.9303 15.2414C14.7755 15.7192 14.3874 16.1129 13.8647 16.2531Z" fill="white"/>
</g>
<defs>
<clipPath id="clip0_328_57822">
<rect width="24" height="24" fill="white"/>
</clipPath>
</defs>
</svg>
