<svg width="24" height="24" viewBox="0 0 24 24" fill="none" xmlns="http://www.w3.org/2000/svg">
<g clip-path="url(#clip0_328_58037)">
<path d="M24 0H0V24H24V0Z" fill="#5F5FFF"/>
<path d="M14.1993 9.30251C14.7575 9.18225 15.3393 9.23769 15.8645 9.46119C16.3898 9.6847 16.8328 10.0653 17.1323 10.5504C17.4318 11.0356 17.5731 11.6016 17.5369 12.1704C17.5007 12.7391 17.2886 13.2826 16.9299 13.7261C16.5713 14.1695 16.0836 14.491 15.5342 14.6463C14.9848 14.8016 14.4006 14.783 13.8622 14.5932C13.3239 14.4034 12.8577 14.0516 12.528 13.5863C12.1983 13.121 12.0213 12.5651 12.0214 11.9953H9.5791C9.57805 13.1305 9.94929 14.2349 10.6361 15.1398C11.3229 16.0448 12.2877 16.7005 13.383 17.0071C14.4783 17.3135 15.644 17.2539 16.7022 16.8371C17.7603 16.4204 18.6527 15.6695 19.2431 14.6992C19.8335 13.7289 20.0896 12.5924 19.9722 11.4631C19.8547 10.3339 19.3702 9.27411 18.5927 8.44548C17.8152 7.61685 16.7873 7.06493 15.6659 6.87398C14.5446 6.68304 13.3915 6.86357 12.3826 7.388C13.1423 7.86077 13.7678 8.51971 14.1993 9.30251Z" fill="white"/>
<path d="M9.80068 14.6975C9.24247 14.8178 8.66061 14.7624 8.13525 14.5389C7.6099 14.3155 7.16691 13.9349 6.86732 13.4497C6.56772 12.9645 6.42627 12.3985 6.46244 11.8297C6.49861 11.2608 6.71062 10.7172 7.06928 10.2737C7.42794 9.83018 7.91559 9.50856 8.46504 9.35317C9.01448 9.19777 9.5987 9.21624 10.1372 9.40604C10.6756 9.59584 11.1419 9.94761 11.4717 10.4129C11.8016 10.8782 11.9787 11.4341 11.9787 12.0041H14.4209C14.4218 10.8688 14.0504 9.76451 13.3635 8.85965C12.6766 7.9548 11.7119 7.29916 10.6165 6.99281C9.52122 6.68647 8.35557 6.74625 7.2975 7.16304C6.23944 7.57983 5.34711 8.33072 4.75673 9.30108C4.16636 10.2714 3.91038 11.4079 4.02788 12.5372C4.14537 13.6663 4.62988 14.726 5.40745 15.5546C6.18501 16.3832 7.2129 16.9351 8.3342 17.1261C9.45549 17.317 10.6086 17.1364 11.6175 16.6119C10.8578 16.1393 10.2323 15.4801 9.80068 14.6975Z" fill="white"/>
</g>
<defs>
<clipPath id="clip0_328_58037">
<rect width="24" height="24" fill="white"/>
</clipPath>
</defs>
</svg>
