<svg width="24" height="24" viewBox="0 0 24 24" fill="none" xmlns="http://www.w3.org/2000/svg">
<g clip-path="url(#clip0_328_58087)">
<path d="M24 0H0V24H24V0Z" fill="#F5911A"/>
<path fill-rule="evenodd" clip-rule="evenodd" d="M20 12C20 16.418 16.4183 19.9996 12 19.9996C7.58172 19.9996 4 16.418 4 12C4 7.58194 7.58172 4.0004 12 4.0004C16.4183 4.0004 20 7.58194 20 12ZM12.7867 7.11668C12.7502 7.2412 12.7408 7.52269 12.9946 7.6524C13.2484 7.7821 13.4622 7.82392 13.5374 7.82862C13.6372 7.84624 13.8723 7.81664 14.0132 7.55723C14.1542 7.29783 13.9709 7.05675 13.8616 6.96865L13.333 6.77832C13.2084 6.7466 12.9248 6.76986 12.7867 7.11668ZM12.2756 8.7168L11.7046 8.5159C11.6012 8.48652 11.4099 8.34249 11.4719 8.00132C11.534 7.66015 11.862 7.61246 12.0183 7.63126L12.5787 7.81805C12.4765 7.80395 12.2474 7.85541 12.1487 8.17403C12.05 8.49264 12.1921 8.66863 12.2756 8.7168ZM13.5147 9.12162C13.612 9.15076 13.8173 9.11884 13.9163 8.76695C14.0177 8.40616 13.8752 8.25423 13.7912 8.22336L14.3128 8.38901C14.4691 8.4548 14.7428 8.66815 14.5877 8.99522C14.4326 9.32229 14.1566 9.32888 14.0379 9.29128L13.5147 9.12162ZM11.646 9.85243L11.0601 9.65375C10.9531 9.62489 10.7554 9.47953 10.8207 9.12904C10.8859 8.77856 11.1875 8.74188 11.3301 8.76736L11.9567 8.96094C11.8523 8.94141 11.6144 8.98742 11.4982 9.32772C11.3821 9.66801 11.5483 9.81931 11.646 9.85243ZM11.7631 9.40414C11.6735 9.71387 11.899 9.92035 12.023 9.98488C12.2777 10.0817 12.8248 10.2793 12.9756 10.2956C13.1641 10.316 13.3425 10.2447 13.4749 9.94412C13.5808 9.70368 13.3934 9.49074 13.2864 9.41432L12.3184 9.08829C12.1707 9.06452 11.8528 9.0944 11.7631 9.40414ZM13.3832 10.423L13.9028 10.586C14.0336 10.6267 14.3257 10.6339 14.4479 10.3364C14.5702 10.0389 14.3834 9.81506 14.2747 9.74035L13.6735 9.53658C13.7721 9.59092 13.9354 9.77499 13.8009 10.0766C13.6664 10.3781 13.4664 10.4332 13.3832 10.423ZM11.0907 11.019L11.0671 11.0118C11.0747 11.0146 11.0825 11.017 11.0907 11.019ZM10.9939 10.3364C10.8715 10.6252 10.8808 10.9423 11.0671 11.0118L10.7748 10.9222C10.7256 10.8203 10.5517 10.5839 10.2501 10.4535C10.2603 10.1988 10.3723 9.90846 10.7697 9.92883C11.0631 10.0022 11.3029 10.0884 11.3861 10.1224C11.2978 10.0935 11.0958 10.0959 10.9939 10.3364ZM9.28461 10.4337C9.51809 10.8877 9.81385 12.0006 9.12895 12.8203C8.44405 13.6401 8.97329 14.6233 9.32352 15.0125L9.76455 15.6869C9.63484 15.8815 9.48437 16.3484 9.92021 16.6597C10.3561 16.971 10.9233 16.9451 11.1525 16.8932C11.2995 16.8543 11.6117 16.6519 11.6843 16.1539C11.6153 16.1373 11.5421 16.1254 11.4678 16.1134C11.1933 16.0689 10.9035 16.0219 10.7504 15.7258C11.207 15.8399 11.3903 15.8512 11.4249 15.8426H11.827L12.4108 15.4664C12.5275 15.3021 12.7765 14.8982 12.8388 14.5974C12.9011 14.2965 13.0809 13.8494 13.1631 13.6634C13.2107 13.5554 13.381 13.3651 13.6819 13.4689C13.926 13.5531 13.9954 13.6027 14.0022 13.6252L13.9983 13.6367C14.002 13.6343 14.0038 13.6305 14.0022 13.6252C14.0459 13.4947 14.0882 13.2137 13.9325 13.0453C13.7322 12.8285 13.3839 12.7956 13.2491 12.812C13.1145 12.8285 12.4113 12.9829 11.9152 13.318C11.4191 13.6531 11.0741 13.9291 10.9394 14.1295C10.9417 14.0983 10.9448 14.0616 10.9482 14.02C10.9841 13.5876 11.0637 12.6267 10.8154 11.9003C10.5431 11.104 10.034 10.5462 9.28461 10.4337ZM11.3871 12.8464L11.3259 13.2751L11.7819 12.9689L11.3871 12.8464ZM13.8375 12.5741C13.5652 12.4271 13.3066 12.4538 13.2113 12.4856C13.2711 12.2678 13.1182 12.1226 13.0343 12.0772C13.1115 12.0999 13.3011 12.1576 13.4427 12.2066C13.6197 12.2678 13.8239 12.4244 13.8375 12.5741ZM12.1971 12.7375L12.7144 12.5537C12.7893 12.4312 12.8832 12.1344 12.6599 11.9275C12.4367 11.7206 11.7229 11.5418 11.3939 11.4783L11.1285 11.5055C11.2147 11.6893 11.3762 12.133 11.3327 12.438C11.5723 12.5142 12.0088 12.6694 12.1971 12.7375ZM11.4829 11.1412C11.3828 11.092 11.1987 10.91 11.2639 10.5758C11.3291 10.2416 11.6918 10.2294 11.865 10.265L13.0215 10.6624C13.12 10.7388 13.2884 10.9568 13.1743 11.2177C13.0317 11.5437 12.8941 11.5488 12.6394 11.5335C12.4356 11.5213 11.7835 11.2669 11.4829 11.1412ZM13.6277 11.8493L13.0877 11.6711C13.1777 11.6778 13.3872 11.613 13.5055 11.2992C13.6236 10.9854 13.4698 10.8186 13.3781 10.7745L14.0098 10.9935C14.1015 11.0852 14.2584 11.3318 14.1525 11.5844C14.0465 11.8371 13.7585 11.8663 13.6277 11.8493ZM12.9206 7.93787C12.6188 7.88148 12.4471 8.14464 12.3989 8.28327C12.32 8.52576 12.4976 8.73441 12.5963 8.80842C12.729 8.86599 13.02 8.98253 13.1215 8.98817C13.2484 8.99522 13.5198 9.00227 13.6467 8.66392C13.7482 8.39324 13.5668 8.18694 13.4634 8.11762C13.4081 8.0812 13.2223 7.99427 12.9206 7.93787Z" fill="white"/>
</g>
<defs>
<clipPath id="clip0_328_58087">
<rect width="24" height="24" fill="white"/>
</clipPath>
</defs>
</svg>
