<svg width="24" height="24" viewBox="0 0 24 24" fill="none" xmlns="http://www.w3.org/2000/svg">
<g clip-path="url(#clip0_328_58108)">
<path d="M24 0H0V24H24V0Z" fill="black"/>
<path fill-rule="evenodd" clip-rule="evenodd" d="M13.9501 8.71867L8.78184 13.88C8.71518 13.7509 8.65506 13.6162 8.60113 13.4768C8.42064 13.0078 8.3304 12.5102 8.3304 11.9848C8.3304 11.4589 8.42064 10.9614 8.60113 10.4925C8.78184 10.0234 9.03213 9.61635 9.35215 9.27085C9.67216 8.92562 10.0568 8.65254 10.5057 8.45143C10.9549 8.25054 11.4477 8.14998 11.9843 8.14998C12.5212 8.14998 13.0167 8.25304 13.4707 8.45936C13.6395 8.53592 13.7993 8.62229 13.9501 8.71867ZM13.4941 15.5486C13.045 15.7498 12.5521 15.8502 12.0155 15.8502C11.4786 15.8502 10.9831 15.7472 10.5289 15.541C10.3603 15.4642 10.2005 15.3778 10.0499 15.2813L15.218 10.1204C15.2846 10.2493 15.3448 10.3836 15.3986 10.5234C15.5791 10.9924 15.6694 11.4898 15.6694 12.0156C15.6694 12.5413 15.5791 13.0386 15.3986 13.5078C15.218 13.9768 14.9677 14.3838 14.6476 14.729C14.3276 15.0744 13.9432 15.3476 13.4941 15.5486ZM14.276 17.149C14.9677 16.8501 15.5664 16.4456 16.0722 15.935C16.5779 15.425 16.97 14.8296 17.2487 14.1494C17.5276 13.469 17.6669 12.7474 17.6669 11.9848C17.6669 11.2218 17.5276 10.5002 17.2487 9.81975C17.0834 9.41631 16.88 9.0437 16.6385 8.70178L20 5.34494L18.6643 4.01105L15.2925 7.37811C14.9898 7.172 14.6612 6.99384 14.3069 6.84343C13.6153 6.5497 12.8515 6.40262 12.0155 6.40262C11.1792 6.40262 10.4155 6.5522 9.7238 6.85115C9.03213 7.15009 8.43338 7.5546 7.92762 8.06487C7.42186 8.57515 7.02954 9.17055 6.75087 9.85082C6.4722 10.531 6.33284 11.2526 6.33284 12.0156C6.33284 12.7782 6.4722 13.4997 6.75087 14.1802C6.91632 14.5838 7.11978 14.9565 7.36129 15.2986L4 18.655L5.33573 19.9889L8.70725 16.6221C9.00994 16.8282 9.33857 17.0064 9.69284 17.1568C10.3846 17.4505 11.1483 17.5974 11.9843 17.5974C12.8206 17.5974 13.5843 17.4478 14.276 17.149Z" fill="white"/>
</g>
<defs>
<clipPath id="clip0_328_58108">
<rect width="24" height="24" fill="white"/>
</clipPath>
</defs>
</svg>
