<svg width="24" height="24" viewBox="0 0 24 24" fill="none" xmlns="http://www.w3.org/2000/svg">
<g clip-path="url(#clip0_328_58996)">
<path d="M24 0H0V24H24V0Z" fill="#FFAC43"/>
<path d="M19.9451 7.42352C19.8302 7.22469 19.5742 7.15918 19.378 7.27842L8.8482 13.6854C8.57981 13.1833 8.42773 12.6095 8.42773 12.0001C8.42773 10.0216 10.0306 8.41763 12.0077 8.41763C12.8568 8.41763 13.6362 8.71417 14.2499 9.20817L12.0098 10.7468L17.8315 7.38362C17.9569 7.3113 17.9999 7.15056 17.9272 7.02542C17.8507 6.89302 17.6781 6.8538 17.5518 6.9404L16.1264 7.91956C15.0759 6.85765 13.619 6.19997 12.0077 6.19997C8.80656 6.19997 6.21137 8.79669 6.21137 12.0001C6.21137 13.0314 6.48067 13.9996 6.95227 14.8389L4 16.6351L7.03125 14.9747C8.04347 16.6669 9.89324 17.8 12.008 17.8C15.2092 17.8 17.8043 15.2032 17.8043 11.9998V11.3072C17.8043 10.7647 18.0243 10.0705 18.8041 9.65252C18.8709 9.6167 18.8951 9.53281 18.8573 9.46684C18.8202 9.40268 18.7383 9.38047 18.6742 9.41765L11.762 13.4111C12.5337 13.0828 13.1234 12.8833 13.9052 12.7262C15.5339 12.3988 15.5753 13.1758 14.9464 14.0522C14.5253 14.639 13.5739 15.5814 12.0089 15.5814C10.7326 15.5814 9.61285 14.9133 8.97877 13.9076L19.7872 7.98734C19.9888 7.87716 20.0598 7.62257 19.9451 7.42352Z" fill="white"/>
</g>
<defs>
<clipPath id="clip0_328_58996">
<rect width="24" height="24" fill="white"/>
</clipPath>
</defs>
</svg>
