<svg width="24" height="24" viewBox="0 0 24 24" fill="none" xmlns="http://www.w3.org/2000/svg">
<g clip-path="url(#clip0_328_59016)">
<path d="M24 0H0V24H24V0Z" fill="url(#paint0_linear_328_59016)"/>
<path d="M16.5484 4.02197C15.6346 4.02126 14.7578 4.38319 14.1105 5.0283C13.4632 5.67342 13.0984 6.549 13.096 7.46286V11.278C12.7404 11.302 12.3769 11.3171 12 11.3171C11.6231 11.3171 11.2613 11.3322 10.904 11.3535V7.46286C10.8895 6.55693 10.5194 5.69302 9.87358 5.0575C9.22779 4.42199 8.35805 4.06581 7.452 4.06581C6.54595 4.06581 5.67621 4.42199 5.03042 5.0575C4.38462 5.69302 4.01454 6.55693 4 7.46286V16.5811C4.01454 17.487 4.38462 18.3509 5.03042 18.9864C5.67621 19.622 6.54595 19.9781 7.452 19.9781C8.35805 19.9781 9.22779 19.622 9.87358 18.9864C10.5194 18.3509 10.8895 17.487 10.904 16.5811V12.766C11.2596 12.742 11.6231 12.7269 12 12.7269C12.3769 12.7269 12.7387 12.7118 13.096 12.6904V16.5811C13.1105 17.487 13.4806 18.3509 14.1264 18.9864C14.7722 19.622 15.6419 19.9781 16.548 19.9781C17.4541 19.9781 18.3238 19.622 18.9696 18.9864C19.6154 18.3509 19.9855 17.487 20 16.5811V7.46286C19.9976 6.54916 19.6329 5.67371 18.9858 5.02862C18.3387 4.38353 17.4622 4.0215 16.5484 4.02197ZM7.45156 5.43175C7.99089 5.43151 8.50828 5.64523 8.89023 6.02601C9.27218 6.40679 9.48748 6.92353 9.48889 7.46286V11.5029C8.47892 11.6492 7.49264 11.9281 6.55556 12.3322C6.14954 12.5104 5.76733 12.7385 5.41778 13.0113V7.46286C5.41919 6.92415 5.634 6.40794 6.01518 6.02727C6.39636 5.64659 6.91284 5.43246 7.45156 5.43175ZM9.48889 16.5811C9.48889 17.1214 9.27424 17.6396 8.89217 18.0217C8.51009 18.4038 7.99189 18.6184 7.45156 18.6184C6.91122 18.6184 6.39302 18.4038 6.01094 18.0217C5.62887 17.6396 5.41422 17.1214 5.41422 16.5811V15.6664C5.41422 14.8584 6.05422 14.0931 7.12711 13.6166C7.88309 13.2905 8.6763 13.0585 9.48889 12.926V16.5811ZM16.5484 18.6122C16.0091 18.6124 15.4917 18.3987 15.1098 18.0179C14.7278 17.6372 14.5125 17.1204 14.5111 16.5811V12.5411C15.5211 12.3947 16.5074 12.1159 17.4444 11.7118C17.8505 11.5336 18.2327 11.3054 18.5822 11.0326V16.5811C18.5808 17.1198 18.366 17.636 17.9848 18.0167C17.6036 18.3974 17.0872 18.6115 16.5484 18.6122ZM16.8729 10.422C16.1169 10.7481 15.3237 10.9801 14.5111 11.1126V7.46286C14.5111 6.92253 14.7258 6.40432 15.1078 6.02225C15.4899 5.64018 16.0081 5.42553 16.5484 5.42553C17.0888 5.42553 17.607 5.64018 17.9891 6.02225C18.3711 6.40432 18.5858 6.92253 18.5858 7.46286V8.37753C18.5858 9.18197 17.9458 9.94731 16.8729 10.422Z" fill="white"/>
</g>
<defs>
<linearGradient id="paint0_linear_328_59016" x1="5.01333" y1="18.7894" x2="18.8954" y2="4.8694" gradientUnits="userSpaceOnUse">
<stop stop-color="#00AEE9"/>
<stop offset="1" stop-color="#69FABD"/>
</linearGradient>
<clipPath id="clip0_328_59016">
<rect width="24" height="24" fill="white"/>
</clipPath>
</defs>
</svg>
