<svg width="24" height="24" viewBox="0 0 24 24" fill="none" xmlns="http://www.w3.org/2000/svg">
<g clip-path="url(#clip0_328_59104)">
<path d="M24 0H0V24H24V0Z" fill="#F2B705"/>
<path d="M18.5387 11.3887C18.6528 10.4563 18.5664 9.51035 18.2849 8.61421C18.0036 7.71804 17.5338 6.8924 16.9071 6.1927C16.2805 5.49298 15.5114 4.93538 14.6516 4.55728C13.7917 4.17918 12.8609 3.98932 11.9217 4.00046C10.9824 4.0116 10.0564 4.22346 9.20584 4.62184C8.3552 5.02022 7.59959 5.59591 6.98968 6.31029C6.3798 7.02465 5.92971 7.86119 5.66965 8.76379C5.40958 9.66638 5.34553 10.6142 5.48182 11.5435C6.44753 10.6434 7.71369 10.135 9.03371 10.1173C10.3846 10.1414 11.6956 10.5802 12.7887 11.3745C13.7168 12.0724 14.8695 12.4039 16.0265 12.3055C16.9247 12.205 17.785 11.8886 18.5343 11.3833L18.5387 11.3887ZM6.82243 13.8822C6.82243 13.6615 7.03433 13.4112 7.29345 13.4112C7.55147 13.4112 7.76337 13.6615 7.76337 13.8822V16.2252C7.76337 16.447 7.55147 16.7062 7.29345 16.7062C7.03433 16.7062 6.82132 16.447 6.82132 16.2252L6.82243 13.8822ZM11.0572 13.4112C11.0572 13.1949 11.2691 12.9413 11.5282 12.9413C11.7862 12.9413 11.9981 13.1949 11.9981 13.4112V15.7641C11.9981 15.9815 11.7862 16.2351 11.5282 16.2351C11.2691 16.2351 11.0572 15.9804 11.0572 15.7641V13.4112ZM12.4692 14.3532C12.4692 14.1501 12.6811 13.8822 12.9391 13.8822C13.1982 13.8822 13.4101 14.1501 13.4101 14.3532V14.8231C13.4101 15.0252 13.1982 15.2942 12.9391 15.2942C12.6811 15.2942 12.4692 15.0252 12.4692 14.8231V14.3532ZM16.704 14.8231C16.704 14.5838 16.9159 14.3532 17.1739 14.3532C17.433 14.3532 17.646 14.5838 17.646 14.8231V16.2351C17.6426 16.359 17.5918 16.477 17.504 16.5644C17.416 16.6519 17.2979 16.7022 17.1739 16.705C17.0503 16.7016 16.9327 16.6511 16.8452 16.5638C16.7579 16.4762 16.7072 16.3586 16.704 16.2351V14.8231ZM8.2344 13.4112C8.2344 13.2004 8.4463 12.9413 8.70432 12.9413C8.96344 12.9413 9.17534 13.2004 9.17534 13.4112V16.7292C9.17534 16.9411 8.96344 17.1761 8.70432 17.1761C8.4463 17.1761 8.2344 16.9411 8.2344 16.7292V13.4112ZM13.8812 14.8231C13.8812 14.5882 14.092 14.3532 14.3511 14.3532C14.6102 14.3532 14.822 14.5882 14.822 14.8231V18.588C14.8177 18.7114 14.7666 18.8286 14.6792 18.9158C14.5917 19.003 14.4744 19.0538 14.3511 19.0579C14.2276 19.0538 14.1104 19.003 14.0228 18.9158C13.9355 18.8286 13.8844 18.7114 13.88 18.588L13.8812 14.8231ZM15.292 15.2953C15.292 15.079 15.5039 14.8242 15.763 14.8242C16.0221 14.8242 16.2329 15.079 16.2329 15.2953V18.117C16.2329 18.3333 16.0221 18.588 15.763 18.588C15.5039 18.588 15.292 18.3333 15.292 18.117V15.2953ZM9.64527 12.9423C9.64527 12.7217 9.85717 12.4714 10.1162 12.4714C10.3754 12.4714 10.5862 12.7217 10.5862 12.9423V19.5301C10.5862 19.7508 10.3754 20 10.1162 20C9.85717 20 9.64527 19.7508 9.64527 19.5301V12.9423Z" fill="white"/>
<path d="M9.48599 11.9066C8.87228 11.871 8.25765 11.9584 7.67823 12.1638C7.0988 12.369 6.56628 12.6882 6.11197 13.1023C6.05882 13.1464 5.99581 13.177 5.92828 13.1914C5.86076 13.2059 5.79074 13.2038 5.7242 13.1854C5.65766 13.167 5.59656 13.1327 5.54612 13.0855C5.49568 13.0384 5.4574 12.9798 5.43453 12.9146C5.40812 12.8366 5.40606 12.7524 5.42861 12.6731C5.45116 12.5939 5.49726 12.5234 5.5608 12.471C6.39801 11.7136 7.44951 11.2346 8.5704 11.0999C9.69126 10.9652 10.8263 11.1814 11.8191 11.7189C12.1214 11.8902 12.4054 12.0878 12.6711 12.3118L12.9061 12.4852C13.673 12.999 14.5721 13.2799 15.495 13.2944C16.5578 13.3043 17.4846 12.7015 17.9083 12.3919C17.9976 12.3242 18.1101 12.2946 18.221 12.3094C18.3321 12.3242 18.4329 12.3823 18.5013 12.471C18.535 12.5146 18.5594 12.5644 18.5735 12.6177C18.5875 12.6709 18.5906 12.7265 18.5827 12.7809C18.5749 12.8354 18.5562 12.8878 18.5276 12.9349C18.499 12.9819 18.4614 13.0229 18.4167 13.055C17.9742 13.3845 16.8499 14.1377 15.4852 14.1278C14.3952 14.1079 13.3338 13.7764 12.4262 13.1726L12.1111 12.9376L11.9706 12.8245C11.2571 12.2686 10.3893 11.9465 9.48599 11.9022V11.9066Z" fill="white"/>
</g>
<defs>
<clipPath id="clip0_328_59104">
<rect width="24" height="24" fill="white"/>
</clipPath>
</defs>
</svg>
