<svg width="24" height="24" viewBox="0 0 24 24" fill="none" xmlns="http://www.w3.org/2000/svg">
<g clip-path="url(#clip0_328_59059)">
<path d="M24 0H0V24H24V0Z" fill="#2B1D3B"/>
<path d="M20 4.6075H17.7662L16.7792 8.49829L16.6234 8.08327C15.9481 6.57883 14.961 5.48941 13.5584 4.86689C12.8831 4.55562 12 4.39999 11.1169 4.39999C9.81818 4.39999 8.51948 4.76313 7.58442 5.38566C5.45455 6.68259 4.05195 9.27644 4 11.9741C4 14.6717 5.4026 17.2655 7.58442 18.6143C8.51948 19.2369 9.81818 19.6 11.1169 19.6C12.4156 19.6 12.8312 19.4444 13.5584 19.1331C14.961 18.5106 16 17.4212 16.6234 15.9167L16.7792 15.5017L17.7662 19.3925H20C19.6883 18.1993 18.1299 12.9079 18.1299 12.0259C18.1299 11.144 19.6883 5.85255 20 4.65938V4.6075ZM13.2987 16.7986C12.6234 17.2137 11.7922 17.473 10.961 17.473C10.1299 17.473 9.03896 17.1618 8.25974 16.643C7.01299 15.7611 6.23377 13.9973 6.23377 11.9741C6.23377 9.95085 7.01299 8.18702 8.25974 7.30511C9.03896 6.78634 9.97403 6.47508 10.961 6.47508C11.9481 6.47508 12.6234 6.68259 13.2987 7.14948C14.8052 8.13515 15.6364 9.79521 15.6364 11.9741C15.6364 14.1529 14.8571 15.813 13.2987 16.7986Z" fill="white"/>
</g>
<defs>
<clipPath id="clip0_328_59059">
<rect width="24" height="24" fill="white"/>
</clipPath>
</defs>
</svg>
