<svg width="24" height="24" viewBox="0 0 24 24" fill="none" xmlns="http://www.w3.org/2000/svg">
<g clip-path="url(#clip0_328_59059)">
<path d="M24 0H0V24H24V0Z" fill="#2B1D3B"/>
<path d="M20 4.60741H17.7662L16.7792 8.4982L16.6234 8.08318C15.9481 6.57874 14.961 5.48932 13.5584 4.8668C12.8831 4.55553 12 4.3999 11.1169 4.3999C9.81818 4.3999 8.51948 4.76304 7.58442 5.38557C5.45455 6.6825 4.05195 9.27635 4 11.974C4 14.6716 5.4026 17.2654 7.58442 18.6142C8.51948 19.2368 9.81818 19.5999 11.1169 19.5999C12.4156 19.5999 12.8312 19.4443 13.5584 19.133C14.961 18.5105 16 17.4211 16.6234 15.9166L16.7792 15.5016L17.7662 19.3924H20C19.6883 18.1992 18.1299 12.9078 18.1299 12.0258C18.1299 11.1439 19.6883 5.85246 20 4.65929V4.60741ZM13.2987 16.7985C12.6234 17.2136 11.7922 17.4729 10.961 17.4729C10.1299 17.4729 9.03896 17.1617 8.25974 16.6429C7.01299 15.761 6.23377 13.9972 6.23377 11.974C6.23377 9.95076 7.01299 8.18693 8.25974 7.30502C9.03896 6.78625 9.97403 6.47499 10.961 6.47499C11.9481 6.47499 12.6234 6.6825 13.2987 7.14939C14.8052 8.13506 15.6364 9.79512 15.6364 11.974C15.6364 14.1528 14.8571 15.8129 13.2987 16.7985Z" fill="white"/>
</g>
<defs>
<clipPath id="clip0_328_59059">
<rect width="24" height="24" fill="white"/>
</clipPath>
</defs>
</svg>
