<svg width="24" height="24" viewBox="0 0 24 24" fill="none" xmlns="http://www.w3.org/2000/svg">
<g clip-path="url(#clip0_328_59466)">
<path d="M24 0H0V24H24V0Z" fill="url(#paint0_linear_328_59466)"/>
<path d="M10.596 5.16728L9.88477 5.5685V7.41138C9.88974 7.59016 9.9655 7.75997 10.0959 7.88468C10.2262 8.00939 10.4009 8.07917 10.5828 8.07917C10.7647 8.07917 10.9394 8.00939 11.0698 7.88468C11.2002 7.75997 11.2759 7.59016 11.2809 7.41138V5.55787C11.2825 5.12972 10.9735 4.95385 10.596 5.16728Z" fill="white"/>
<path d="M13.4047 5.16728L14.1159 5.5685V7.41138C14.1109 7.59016 14.0352 7.75997 13.9048 7.88468C13.7744 8.00939 13.5997 8.07917 13.4178 8.07917C13.2359 8.07917 13.0612 8.00939 12.9309 7.88468C12.8005 7.75997 12.7247 7.59016 12.7197 7.41138V5.55787C12.7197 5.12972 13.0271 4.95385 13.4047 5.16728Z" fill="white"/>
<path d="M6.56465 6.75298L7.2759 7.15704L9.88382 5.67625L10.5951 5.27478C10.9725 5.06161 11.2815 5.23722 11.2815 5.66537V5.00592C11.2815 4.62362 11.1008 4.29286 10.7982 4.12113C10.4955 3.9494 10.1133 3.9608 9.77688 4.15195L6.54779 5.98526C6.18848 6.19998 6.19348 6.5424 6.56465 6.75298Z" fill="white"/>
<path d="M17.4351 6.75298L16.7238 7.15704L14.1159 5.67625L13.4047 5.27478C13.0271 5.06187 12.7197 5.23722 12.7197 5.66537V5.00592C12.7197 4.62362 12.9004 4.29286 13.2031 4.12113C13.5058 3.9494 13.8881 3.9608 14.2242 4.15195L17.4538 5.98526C17.8118 6.19998 17.8068 6.5424 17.4351 6.75298Z" fill="white"/>
<path d="M17.9167 6.24914L17.3569 5.93134C17.7162 6.14632 17.7112 6.48847 17.3403 6.69905L13.4706 8.89525C13.0797 9.11721 12.5394 9.2273 11.9996 9.22574C11.4599 9.22419 10.9196 9.11721 10.5287 8.89525L6.66026 6.69905C6.28909 6.48847 6.28409 6.14632 6.6434 5.93134L6.08257 6.24914C5.74591 6.44029 5.54492 6.75966 5.54492 7.1039C5.54492 7.44812 5.74591 7.76671 6.08257 7.95864L9.83031 10.0862C10.4362 10.4296 11.2123 10.6014 11.9904 10.6014H12.0104C12.7881 10.6014 13.5646 10.4296 14.1705 10.0862L17.9183 7.95864C18.255 7.76749 18.456 7.44838 18.456 7.1039C18.456 6.7594 18.2534 6.44029 17.9167 6.24914Z" fill="white"/>
<path d="M6.70771 16.5464L7.41633 16.9504L9.03931 16.0289C9.12013 15.9845 9.19119 15.9248 9.24837 15.8532C9.30555 15.7816 9.34763 15.6995 9.37227 15.6118C9.39686 15.5241 9.4035 15.4324 9.39175 15.3421C9.38 15.2518 9.35012 15.1647 9.30383 15.0859C9.2575 15.007 9.19576 14.9381 9.12208 14.8829C9.04844 14.8277 8.96437 14.7876 8.87478 14.7647C8.78519 14.7418 8.69185 14.7366 8.60018 14.7495C8.50855 14.7624 8.42043 14.793 8.34096 14.8397L6.70771 15.7665C6.33128 15.9807 6.33102 16.3317 6.70771 16.5464Z" fill="white"/>
<path d="M5.30334 14.1546L5.30176 13.3503L6.92394 12.4277C7.08435 12.3367 7.27498 12.312 7.45388 12.3592C7.6328 12.4063 7.78533 12.5214 7.87793 12.6791C7.97054 12.8368 7.99563 13.0243 7.94769 13.2002C7.89974 13.3761 7.78269 13.5261 7.62228 13.6171L5.98904 14.5439C5.61339 14.7578 5.30413 14.5827 5.30334 14.1546Z" fill="white"/>
<path d="M10.1202 19.1857V18.3775L7.51232 16.8965L6.80397 16.4924C6.42727 16.2777 6.42754 15.9267 6.80397 15.7128L6.22443 16.0425C5.88777 16.2334 5.68678 16.5527 5.68652 16.8972C5.68626 17.2417 5.88751 17.5601 6.22443 17.752L9.45323 19.584C9.82204 19.7824 10.1202 19.6071 10.1202 19.1857Z" fill="white"/>
<path d="M4.68491 9.92927L5.39616 10.3334V13.2954L5.398 14.1015C5.398 14.5297 5.70806 14.7047 6.08528 14.49L5.50574 14.8198C5.16908 15.0109 4.78738 15.0223 4.4847 14.8506C4.18203 14.6788 4 14.3481 4 13.9655V10.2989C4.00948 9.88549 4.31348 9.71869 4.68491 9.92927Z" fill="white"/>
<path d="M4 9.77069V10.4063C4.00948 9.99189 4.31348 9.82612 4.68491 10.0367L8.55385 12.2334C8.94475 12.4554 9.31174 12.8604 9.58119 13.3212C9.85068 13.7821 10.0256 14.2954 10.0256 14.7391V19.132C10.0256 19.5534 9.7266 19.7277 9.3578 19.5301L9.91758 19.8479C10.2542 20.039 10.636 20.0505 10.9386 19.8787C11.2413 19.707 11.422 19.376 11.422 18.9939V14.7386C11.422 14.0519 11.1849 13.3047 10.7961 12.6424C10.7943 12.6395 10.7925 12.6369 10.7909 12.6341L10.7861 12.6255C10.3973 11.9632 9.85755 11.3875 9.25271 11.0455L5.50443 8.91669C5.16777 8.72553 4.78606 8.71415 4.48339 8.88589C4.18071 9.05762 4 9.38731 4 9.77069Z" fill="white"/>
<path d="M18.6971 14.1545L18.6994 13.3503L17.0762 12.4287C16.9967 12.3827 16.9088 12.3526 16.8174 12.3401C16.7261 12.3277 16.6331 12.3333 16.5439 12.3563C16.4547 12.3794 16.3711 12.4197 16.2978 12.4747C16.2245 12.5298 16.163 12.5986 16.1169 12.6771C16.0708 12.7557 16.041 12.8424 16.0292 12.9324C16.0174 13.0223 16.0238 13.1137 16.0481 13.2011C16.0723 13.2886 16.114 13.3705 16.1707 13.4421C16.2273 13.5137 16.2979 13.5735 16.3781 13.6181L18.0114 14.5449C18.387 14.7578 18.696 14.5826 18.6971 14.1545Z" fill="white"/>
<path d="M17.2922 16.5463L16.5839 16.9506L14.9606 16.0291C14.8798 15.9847 14.8087 15.925 14.7515 15.8534C14.6944 15.7818 14.6523 15.6997 14.6277 15.612C14.603 15.5242 14.5964 15.4326 14.6082 15.3423C14.6199 15.252 14.6498 15.1649 14.6961 15.0861C14.7424 15.0072 14.8042 14.9383 14.8778 14.8831C14.9515 14.828 15.0355 14.7878 15.1252 14.7649C15.2148 14.742 15.3081 14.7368 15.3997 14.7497C15.4913 14.7626 15.5795 14.7932 15.6589 14.8399L17.2922 15.7667C17.6686 15.9806 17.6689 16.3316 17.2922 16.5463Z" fill="white"/>
<path d="M19.3155 9.92927L18.6042 10.3334V13.2954L18.6019 14.1015C18.6019 14.5297 18.2919 14.7047 17.9146 14.49L18.4942 14.8198C18.8309 15.0109 19.2126 15.0223 19.5152 14.8506C19.8179 14.6788 19.9986 14.3481 19.9986 13.9655V10.2989C19.9899 9.88549 19.6866 9.71869 19.3155 9.92927Z" fill="white"/>
<path d="M13.8804 19.1857V18.3775L16.4883 16.8965L17.1969 16.4924C17.5736 16.2777 17.5731 15.9267 17.1969 15.7128L17.7764 16.0425C18.1131 16.2334 18.3141 16.5527 18.3141 16.8972C18.3141 17.2417 18.1131 17.5601 17.7764 17.752L14.5468 19.5856C14.1791 19.7824 13.8804 19.6071 13.8804 19.1857Z" fill="white"/>
<path d="M14.083 19.8479L14.6425 19.5301C14.2738 19.7288 13.9748 19.5534 13.9748 19.132V14.7386C13.9748 14.2949 14.1481 13.7802 14.4191 13.3207C14.6902 12.8612 15.0548 12.4554 15.4465 12.2329L19.3152 10.0362C19.6864 9.82558 19.9901 9.99238 20.0001 10.4058V9.77069C20.0001 9.38838 19.8194 9.05762 19.5167 8.88589C19.214 8.71415 18.8318 8.72553 18.4957 8.91669L14.7479 11.045C14.142 11.3882 13.6033 11.964 13.2145 12.625C13.2129 12.6279 13.2116 12.6307 13.2098 12.6336L13.2047 12.6419C12.816 13.3041 12.5786 14.0514 12.5786 14.7381V18.9939C12.5786 19.376 12.7593 19.7067 13.062 19.8787C13.3647 20.0507 13.7469 20.039 14.083 19.8479Z" fill="white"/>
</g>
<defs>
<linearGradient id="paint0_linear_328_59466" x1="10.5839" y1="7.39403" x2="10.5839" y2="5.18697" gradientUnits="userSpaceOnUse">
<stop stop-color="#902784"/>
<stop offset="0.07" stop-color="#842885"/>
<stop offset="0.35" stop-color="#5E2D87"/>
<stop offset="0.6" stop-color="#433089"/>
<stop offset="0.83" stop-color="#32328A"/>
<stop offset="0.99" stop-color="#2C338A"/>
</linearGradient>
<clipPath id="clip0_328_59466">
<rect width="24" height="24" fill="white"/>
</clipPath>
</defs>
</svg>
