<svg width="24" height="24" viewBox="0 0 24 24" fill="none" xmlns="http://www.w3.org/2000/svg">
<g clip-path="url(#clip0_328_59613)">
<path d="M24 0H0V24H24V0Z" fill="#00A84F"/>
<path d="M16.8527 14.3758C17.1771 14.0214 17.4674 13.6292 17.7202 13.2021C18.3287 12.1676 18.6346 11.0319 18.6346 9.79511C18.6346 8.55818 18.3318 7.40035 17.7265 6.36274C17.121 5.32197 16.3097 4.50264 15.2892 3.90159C14.2687 3.30053 13.164 3 11.9782 3C10.7923 3 9.66886 3.30053 8.64217 3.90159C7.61546 4.50264 6.79785 5.32197 6.1862 6.35641C5.57455 7.39086 5.27185 8.52021 5.27185 9.74763C5.27185 10.975 5.57767 12.174 6.1862 13.2148C6.44521 13.6577 6.7448 14.0626 7.07871 14.4233C5.94591 15.1223 5.25 16.0618 5.25 17.0931C5.25 19.2475 8.27705 21 12 21C15.723 21 18.75 19.2475 18.75 17.0931C18.75 16.0398 18.0259 15.0812 16.8495 14.3789L16.8527 14.3758ZM7.15984 18.7634C6.48891 18.2572 6.12379 17.6784 6.12379 17.09C6.12379 16.3656 6.67927 15.6506 7.68412 15.0749C7.70284 15.0654 7.72157 15.0527 7.74342 15.0432C8.02116 15.2711 8.31449 15.4766 8.62968 15.6632C8.66089 15.6822 8.69521 15.6981 8.72642 15.717C7.64667 16.2549 6.96012 17.0552 6.96012 17.9442C6.96012 18.2288 7.02878 18.5009 7.15984 18.7634ZM12.0062 19.9972C10.474 19.9972 9.63766 19.3234 9.63766 18.9753C9.63766 18.6274 10.474 17.9536 12.0062 17.9536C13.5384 17.9536 14.3749 18.6274 14.3749 18.9753C14.3749 19.3234 13.5384 19.9972 12.0062 19.9972ZM15.2205 19.2063C15.2362 19.1304 15.2455 19.0544 15.2455 18.9753C15.2455 17.9252 13.7912 17.0742 12.0062 17.0742C10.2213 17.0742 8.76699 17.9283 8.76699 18.9753C8.76699 19.0544 8.77636 19.1304 8.79196 19.2063C8.19903 18.8489 7.83079 18.406 7.83079 17.9442C7.83079 17.2481 8.664 16.5965 9.84045 16.22C10.4989 16.4446 11.1823 16.5554 11.8971 16.5554C12.6616 16.5554 13.3918 16.4352 14.0878 16.1947C15.311 16.5648 16.1817 17.2355 16.1817 17.9442C16.1817 18.406 15.8134 18.8489 15.2205 19.2063ZM16.8527 18.7634C16.9837 18.5041 17.0524 18.2288 17.0524 17.9442C17.0524 17.033 16.3346 16.22 15.2142 15.6791C15.2299 15.6696 15.2455 15.6632 15.2611 15.6538C15.595 15.4608 15.9071 15.2425 16.1942 15.0021C16.2379 15.0274 16.2847 15.0495 16.3283 15.0749C17.3332 15.6506 17.8887 16.3656 17.8887 17.09C17.8887 17.6752 17.5267 18.2572 16.8527 18.7634Z" fill="white"/>
</g>
<defs>
<clipPath id="clip0_328_59613">
<rect width="24" height="24" fill="white"/>
</clipPath>
</defs>
</svg>
