<svg width="24" height="24" viewBox="0 0 24 24" fill="none" xmlns="http://www.w3.org/2000/svg">
<g clip-path="url(#clip0_328_59769)">
<path d="M24 0H0V24H24V0Z" fill="url(#paint0_linear_328_59769)"/>
<path d="M12.0007 20C12.9258 20 13.7196 19.4501 14.0718 18.662C14.1574 18.4699 14.0149 18.2544 13.803 18.2544H10.1976C9.98641 18.2544 9.84243 18.4699 9.92882 18.662C10.2818 19.4501 11.0763 20 12.0007 20Z" fill="white"/>
<path d="M17.5322 16.0866C16.9459 16.0866 16.4704 15.6152 16.4704 15.0323V11.2024C16.4704 9.1269 15.0358 7.38497 13.0976 6.8989C13.0267 6.35198 12.5564 5.92822 11.9856 5.92822C11.4149 5.92822 10.9416 6.35564 10.8729 6.9055C9.13337 7.35344 7.80654 8.81532 7.56731 10.6181C7.56362 10.6445 7.55993 10.6709 7.55698 10.6973C7.55255 10.7332 7.54886 10.7684 7.5459 10.8043C7.54295 10.8402 7.54 10.8762 7.53778 10.9121C7.53557 10.9422 7.53335 10.9715 7.53187 11.0023C7.52892 11.0624 7.52744 11.124 7.52744 11.1856V15.0323C7.52744 15.6122 7.05637 16.0822 6.47381 16.0866C6.19545 16.0888 5.96582 16.3014 5.96582 16.5785V16.5829C5.96582 16.8571 6.18954 17.0793 6.46569 17.0793H17.5292C17.8054 17.0793 18.0291 16.8571 18.0291 16.5829C18.0306 16.3095 17.8068 16.0873 17.5307 16.0873L17.5322 16.0866Z" fill="white"/>
<path d="M15.2039 6.14234C16.448 6.407 17.3983 7.47078 17.5157 8.72885C17.5289 8.86815 17.6508 8.97298 17.7948 8.95905C17.8627 8.95246 17.9247 8.9202 17.9683 8.86815C18.0118 8.81536 18.0325 8.74938 18.0259 8.68193C17.9572 7.94732 17.6589 7.26771 17.1627 6.71492C16.6702 6.168 16.0301 5.79703 15.3109 5.6438C15.2925 5.64014 15.2747 5.63794 15.257 5.63794C15.1389 5.63794 15.0318 5.72005 15.0067 5.83955C14.9772 5.97665 15.0651 6.11301 15.2039 6.14234Z" fill="white"/>
<path d="M15.4905 4.5044C17.4265 4.91642 18.9061 6.57185 19.0885 8.52933C19.1018 8.66862 19.2236 8.77273 19.3676 8.75953C19.4355 8.75293 19.4976 8.72068 19.5411 8.66862C19.5847 8.61584 19.6054 8.54985 19.5987 8.48241C19.4983 7.40029 19.0575 6.39736 18.3265 5.58504C17.6007 4.77786 16.6571 4.2324 15.5983 4.0066C15.5798 4.00293 15.5621 4.00073 15.5444 4.00073C15.4263 4.00073 15.3192 4.08284 15.2941 4.20235C15.2638 4.33944 15.3517 4.47507 15.4905 4.5044Z" fill="white"/>
<path d="M8.79585 6.14234C8.93392 6.11301 9.02252 5.97665 8.99299 5.83955C8.96714 5.72005 8.86082 5.63794 8.74268 5.63794C8.72496 5.63794 8.70724 5.64014 8.68878 5.6438C7.96962 5.79703 7.32947 6.16727 6.83699 6.71492C6.34081 7.26624 6.04178 7.94659 5.97385 8.68193C5.9672 8.74938 5.98861 8.81536 6.03144 8.86815C6.07426 8.92093 6.13702 8.95319 6.20495 8.95905C6.34893 8.97225 6.47076 8.86815 6.48405 8.72885C6.60145 7.47152 7.55245 6.40774 8.79585 6.14234Z" fill="white"/>
<path d="M8.50905 4.5044C8.64712 4.47507 8.73573 4.33871 8.70619 4.20161C8.68035 4.08211 8.57403 4 8.45589 4C8.43743 4 8.42045 4.0022 8.40199 4.00587C7.34245 4.23167 6.39957 4.77713 5.67376 5.58431C4.94205 6.39736 4.50273 7.39956 4.40158 8.48167C4.39493 8.54912 4.41634 8.6151 4.45917 8.66789C4.50273 8.72068 4.56475 8.75293 4.63268 8.7588C4.77592 8.772 4.89849 8.66789 4.91178 8.52859C5.09415 6.57185 6.57382 4.91716 8.50905 4.5044Z" fill="white"/>
</g>
<defs>
<linearGradient id="paint0_linear_328_59769" x1="23.1759" y1="2.70611" x2="3.98842" y2="25.0904" gradientUnits="userSpaceOnUse">
<stop stop-color="#FF94A6"/>
<stop offset="0.17" stop-color="#EA6AC0"/>
<stop offset="0.33" stop-color="#DA4AD5"/>
<stop offset="0.42" stop-color="#D53EDD"/>
<stop offset="0.53" stop-color="#CB3EDD"/>
<stop offset="0.72" stop-color="#B341E0"/>
<stop offset="0.95" stop-color="#8B45E4"/>
<stop offset="1" stop-color="#8247E5"/>
</linearGradient>
<clipPath id="clip0_328_59769">
<rect width="24" height="24" fill="white"/>
</clipPath>
</defs>
</svg>
