<svg width="24" height="24" viewBox="0 0 24 24" fill="none" xmlns="http://www.w3.org/2000/svg">
<g clip-path="url(#clip0_328_59783)">
<path d="M24 0H0V24H24V0Z" fill="#B16EFF"/>
<path d="M4 9.1179V6.96302C4 6.30845 4.68223 5.77783 5.52381 5.77783H8.29437C9.13595 5.77783 9.81819 6.30845 9.81819 6.96302V8.70316C9.81819 9.0032 9.97143 9.29096 10.2442 9.50312C10.8122 9.94493 11.7332 9.94493 12.3013 9.50312L16.6446 6.12496C16.9304 5.90269 17.318 5.77783 17.7221 5.77783H18.4762C19.3178 5.77783 20 6.30845 20 6.96302V7.54954C20 7.86387 19.8395 8.16533 19.5537 8.38759L15.2103 11.7657C14.6423 12.2075 14.6423 12.9239 15.2103 13.3656C15.4831 13.5779 15.8531 13.6971 16.2389 13.6971H18.4762C19.3178 13.6971 20 14.2276 20 14.8823V17.0371C20 17.6916 19.3178 18.2223 18.4762 18.2223H15.7056C14.8641 18.2223 14.1818 17.6916 14.1818 17.0371V15.2969C14.1818 14.9969 14.0286 14.7091 13.7558 14.4971C13.1878 14.0551 12.2668 14.0551 11.6987 14.4971L7.35541 17.8751C7.06963 18.0973 6.68205 18.2223 6.27791 18.2223H5.52381C4.68223 18.2223 4 17.6916 4 17.0371V16.4505C4 16.1363 4.16054 15.8347 4.44631 15.6125L8.78967 12.2343C9.3577 11.7925 9.3577 11.0763 8.78967 10.6344C8.51689 10.4223 8.14692 10.303 7.76114 10.303H5.52381C4.68223 10.303 4 9.77246 4 9.1179Z" fill="white"/>
</g>
<defs>
<clipPath id="clip0_328_59783">
<rect width="24" height="24" fill="white"/>
</clipPath>
</defs>
</svg>
