<svg width="24" height="24" viewBox="0 0 24 24" fill="none" xmlns="http://www.w3.org/2000/svg">
<g clip-path="url(#clip0_328_59783)">
<path d="M24 0H0V24H24V0Z" fill="#B16EFF"/>
<path d="M4 9.11784V6.96296C4 6.30839 4.68223 5.77777 5.52381 5.77777H8.29437C9.13595 5.77777 9.81819 6.30839 9.81819 6.96296V8.7031C9.81819 9.00314 9.97143 9.2909 10.2442 9.50306C10.8122 9.94487 11.7332 9.94487 12.3013 9.50306L16.6446 6.1249C16.9304 5.90263 17.318 5.77777 17.7221 5.77777H18.4762C19.3178 5.77777 20 6.30839 20 6.96296V7.54948C20 7.86381 19.8395 8.16527 19.5537 8.38753L15.2103 11.7656C14.6423 12.2074 14.6423 12.9238 15.2103 13.3655C15.4831 13.5778 15.8531 13.697 16.2389 13.697H18.4762C19.3178 13.697 20 14.2275 20 14.8822V17.037C20 17.6915 19.3178 18.2222 18.4762 18.2222H15.7056C14.8641 18.2222 14.1818 17.6915 14.1818 17.037V15.2968C14.1818 14.9968 14.0286 14.709 13.7558 14.497C13.1878 14.055 12.2668 14.055 11.6987 14.497L7.35541 17.875C7.06963 18.0972 6.68205 18.2222 6.27791 18.2222H5.52381C4.68223 18.2222 4 17.6915 4 17.037V16.4504C4 16.1362 4.16054 15.8346 4.44631 15.6124L8.78967 12.2342C9.3577 11.7924 9.3577 11.0762 8.78967 10.6343C8.51689 10.4222 8.14692 10.3029 7.76114 10.3029H5.52381C4.68223 10.3029 4 9.7724 4 9.11784Z" fill="white"/>
</g>
<defs>
<clipPath id="clip0_328_59783">
<rect width="24" height="24" fill="white"/>
</clipPath>
</defs>
</svg>
