<svg width="24" height="24" viewBox="0 0 24 24" fill="none" xmlns="http://www.w3.org/2000/svg">
<g clip-path="url(#clip0_654_126)">
<path d="M24 0H0V24H24V0Z" fill="#0098EA"/>
<path d="M17.4024 4H6.59698C4.61024 4 3.35102 6.14306 4.35049 7.87547L11.0192 19.4339C11.4544 20.1887 12.545 20.1887 12.9802 19.4339L19.6503 7.87547C20.6484 6.14579 19.3891 4 17.4038 4H17.4024ZM11.0138 15.9678L9.56149 13.157L6.05712 6.8896C5.82598 6.48844 6.11155 5.9744 6.59561 5.9744H11.0125V15.9691L11.0138 15.9678ZM17.9395 6.88824L14.4366 13.1584L12.9843 15.9678V5.97311H17.401C17.8852 5.97311 18.1707 6.48707 17.9395 6.88824Z" fill="white"/>
</g>
<defs>
<clipPath id="clip0_654_126">
<rect width="24" height="24" fill="white"/>
</clipPath>
</defs>
</svg>
