<svg width="24" height="24" viewBox="0 0 24 24" fill="none" xmlns="http://www.w3.org/2000/svg">
<g clip-path="url(#clip0_328_60367)">
<path d="M24 0H0V24H24V0Z" fill="#DC2626"/>
<path d="M17.6301 5.89529L13.1593 3.31125C12.4412 2.89625 11.5585 2.89625 10.8404 3.31125L6.3695 5.89186C5.39937 6.45361 4.7998 7.48882 4.7998 8.61118V15.3922C4.7998 16.5146 5.39937 17.5499 6.3695 18.1082L10.8404 20.6887C11.5585 21.1038 12.4412 21.1038 13.1593 20.6887L17.6301 18.1082C18.5991 17.5464 19.1999 16.5112 19.1999 15.3922V8.61118C19.1999 7.48882 18.6002 6.45361 17.6301 5.89529ZM8.62163 8.555L9.20047 8.36011C9.41338 8.28674 9.56989 8.10561 9.61592 7.88549L9.85986 6.67601C9.86684 6.64506 9.8944 6.62328 9.92669 6.62328C9.95886 6.62328 9.98642 6.64391 9.9934 6.67601L10.2373 7.88549C10.2822 8.10905 10.4434 8.28674 10.6562 8.36011L11.2351 8.555C11.2627 8.56533 11.2799 8.5894 11.2799 8.61805C11.2799 8.64672 11.2627 8.67079 11.2351 8.68111L10.6562 8.87601C10.4399 8.94938 10.2834 9.1305 10.2373 9.35062L9.9934 10.5601C9.98642 10.5911 9.95886 10.6129 9.92669 10.6129C9.8944 10.6129 9.86684 10.5922 9.85986 10.5601L9.61592 9.35062C9.57449 9.12707 9.41338 8.94938 9.20047 8.87601L8.62163 8.68111C8.59401 8.67079 8.57674 8.64672 8.57674 8.61805C8.57674 8.5894 8.59401 8.56533 8.62163 8.555ZM9.97495 14.7892L9.19702 15.0507C8.91163 15.1481 8.69872 15.3889 8.63888 15.6857L8.3109 17.3069C8.30055 17.3447 8.26603 17.3767 8.22344 17.3767C8.18086 17.3767 8.14289 17.3493 8.13599 17.3069L7.808 15.6857C7.74816 15.3889 7.53642 15.1492 7.24987 15.0507L6.47192 14.7892C6.43739 14.779 6.41208 14.7446 6.41208 14.7055C6.41208 14.6666 6.43624 14.6322 6.47192 14.6219L7.24987 14.3605C7.53526 14.2631 7.74816 14.0223 7.808 13.7266L8.13599 12.1055C8.14289 12.0642 8.18086 12.0356 8.22344 12.0356C8.26603 12.0356 8.30401 12.063 8.3109 12.1055L8.63888 13.7266C8.69872 14.0223 8.91047 14.2631 9.19702 14.3605L9.97495 14.6219C10.0095 14.6322 10.0348 14.6677 10.0348 14.7055C10.0348 14.7434 10.0106 14.779 9.97495 14.7892ZM17.4587 12.1778L15.8164 12.736C15.2134 12.9412 14.7635 13.4503 14.6381 14.0751L13.9441 17.4982C13.9269 17.5854 13.8497 17.6484 13.7588 17.6484C13.6679 17.6484 13.5919 17.5854 13.5735 17.4982L12.8796 14.0751C12.7542 13.4514 12.3042 12.9424 11.7012 12.736L10.059 12.1778C9.9853 12.1502 9.93355 12.0802 9.93355 12C9.93355 11.9198 9.98192 11.8463 10.059 11.8223L11.7012 11.264C12.3042 11.0588 12.7542 10.5498 12.8796 9.92495L13.5735 6.50176C13.5908 6.41463 13.6679 6.35157 13.7588 6.35157C13.8497 6.35157 13.9257 6.41463 13.9441 6.50176L14.6381 9.92495C14.7635 10.5486 15.2134 11.0576 15.8164 11.264L17.4587 11.8223C17.5323 11.8498 17.5841 11.9198 17.5841 12C17.5841 12.0802 17.5357 12.1537 17.4587 12.1778Z" fill="white"/>
</g>
<defs>
<clipPath id="clip0_328_60367">
<rect width="24" height="24" fill="white"/>
</clipPath>
</defs>
</svg>
