<svg width="24" height="24" viewBox="0 0 24 24" fill="none" xmlns="http://www.w3.org/2000/svg">
<g clip-path="url(#clip0_328_60376)">
<path d="M24 0H0V24H24V0Z" fill="#C4342B"/>
<path fill-rule="evenodd" clip-rule="evenodd" d="M5.26184 4.16514C5.32261 4.09813 5.40034 4.04874 5.48682 4.02218C5.5733 3.99562 5.66535 3.99286 5.75326 4.01421L16.334 6.6047C16.3976 6.61946 16.4574 6.64735 16.5094 6.6866L18.6624 8.2568C18.767 8.33372 18.838 8.44816 18.8603 8.57618C18.8825 8.70422 18.8544 8.83585 18.7816 8.94361L11.3752 19.7806C11.3232 19.8574 11.2508 19.9181 11.1662 19.9561C11.0816 19.994 10.9881 20.0078 10.8961 19.9958C10.8043 19.9838 10.7175 19.9465 10.6454 19.888C10.5734 19.8296 10.519 19.7522 10.4884 19.6647L5.16122 4.66943C5.13131 4.58426 5.12488 4.49261 5.14258 4.40408C5.16028 4.31557 5.20148 4.23344 5.26184 4.16631M7.00755 6.87146L10.7048 17.2814L11.3132 11.8874L7.00755 6.87146ZM12.3031 12.0606L11.6853 17.5493L16.9154 9.89603L12.3031 12.0606ZM17.387 8.56686L14.0172 10.1488L16.2754 7.75719L17.387 8.56686ZM15.2575 7.37341L7.03212 5.36094L11.855 10.9771L15.2575 7.37341Z" fill="white"/>
</g>
<defs>
<clipPath id="clip0_328_60376">
<rect width="24" height="24" fill="white"/>
</clipPath>
</defs>
</svg>
