<svg width="24" height="24" viewBox="0 0 24 24" fill="none" xmlns="http://www.w3.org/2000/svg">
<g clip-path="url(#clip0_328_60430)">
<path d="M24 0H0V24H24V0Z" fill="black"/>
<path d="M21 3V10.7879C18.1236 11.5214 15.1077 11.9108 12 11.9108C8.89229 11.9108 5.87646 11.5205 3 10.7879V3C5.87646 3.7326 8.89229 4.12287 12 4.12287C15.1077 4.12287 18.1236 3.7335 21 3Z" fill="#F8F6D7"/>
<path d="M3 21V13.2121C5.87646 12.4786 8.89229 12.0892 12 12.0892C15.1077 12.0892 18.1236 12.4795 21 13.2121V21C18.1236 20.2674 15.1077 19.8772 12 19.8772C8.89229 19.8772 5.87646 20.2665 3 21Z" fill="#F8F6D7"/>
</g>
<defs>
<clipPath id="clip0_328_60430">
<rect width="24" height="24" fill="white"/>
</clipPath>
</defs>
</svg>
