<svg width="24" height="24" viewBox="0 0 24 24" fill="none" xmlns="http://www.w3.org/2000/svg">
<g clip-path="url(#clip0_408_225)">
<rect width="24" height="24" fill="#FE5161"/>
<path d="M11.9999 4C6.84057 4 4.7998 7.2039 4.7998 11.9215C4.7998 16.639 6.84057 20 11.9999 20C17.1593 20 19.1998 16.6388 19.1998 11.9215C19.1998 7.20414 17.1593 4 11.9999 4ZM12.0006 17.4147C9.64742 17.4147 8.42864 16.0115 8.06077 13.6498C8.03306 13.4717 8.16708 13.3099 8.34385 13.3099H15.6211C15.7972 13.3099 15.9311 13.4708 15.9045 13.6485C15.5466 16.0109 14.3545 17.4147 12.0009 17.4147H12.0006ZM8.31327 10.749C8.13912 10.749 8.00607 10.5917 8.02948 10.4154C8.3558 7.95926 9.57623 6.58537 12.0006 6.58537C14.4251 6.58537 15.6176 7.95975 15.9342 10.4166C15.957 10.5924 15.8241 10.749 15.6503 10.749H8.31327Z" fill="white"/>
</g>
<defs>
<clipPath id="clip0_408_225">
<rect width="24" height="24" fill="white"/>
</clipPath>
</defs>
</svg>
