<svg xmlns="http://www.w3.org/2000/svg" width="24" height="24" fill="none" viewBox="0 0 24 24">
    <path fill="#E84142" d="M7.515 19.874H4.492c-.637 0-.952 0-1.142-.118A.75.75 0 0 1 3 19.16c-.011-.224.146-.495.461-1.04l7.47-12.982c.32-.551.484-.827.687-.928a.76.76 0 0 1 .697 0c.202.101.36.377.675.928l1.542 2.643.005.012c.253.374.454.781.596 1.209.085.337.085.703 0 1.046a5 5 0 0 1-.596 1.22l-3.926 6.84-.011.023c-.201.408-.46.788-.766 1.125a2.36 2.36 0 0 1-.927.534c-.32.084-.675.084-1.39.084m7.645 0h4.33c.648 0 .968 0 1.16-.123a.75.75 0 0 0 .347-.596c.012-.22-.14-.478-.443-.991l-.034-.055-2.171-3.657-.023-.044c-.304-.507-.461-.765-.658-.866a.75.75 0 0 0-.692 0c-.202.1-.36.371-.675.91l-2.172 3.662v.012c-.32.538-.477.81-.466 1.029a.76.76 0 0 0 .348.601c.187.118.507.118 1.149.118"/>
</svg>
