<svg xmlns="http://www.w3.org/2000/svg" width="24" height="24" fill="none" viewBox="0 0 24 24">
    <path fill="#FB9942" d="M19.886 10.249a1.3 1.3 0 0 0-.07-.252c.012-.019 2.733-3.543.213-5.721-2.516-2.18-5.454.662-5.47.678a7 7 0 0 0-1.406-.26h-.004c-.958-.148-2.302 0-2.302 0q-.696.057-1.394.256c-.016-.015-2.954-2.857-5.47-.678s.201 5.706.213 5.721a2 2 0 0 0-.07.252C3.857 11.753 2 12.218 2 14.846c0 2.678 1.938 4.789 5.896 4.789H9.52c.008.007.635.838 1.93.887 0 0 .299.03.987.008 1.373 0 2.04-.88 2.045-.892h1.623c3.958 0 5.896-2.11 5.896-4.788.012-2.624-1.844-3.093-2.114-4.601"/>
</svg>
