<svg width="24" height="24" viewBox="0 0 24 24" fill="none" xmlns="http://www.w3.org/2000/svg">
<path d="M7.43256 11.0725L7.41903 11.086C6.91604 11.5868 6.91433 12.4006 7.41522 12.9035L7.42871 12.9171C7.92955 13.42 8.74332 13.4217 9.24631 12.9209L9.25988 12.9074C9.76283 12.4066 9.7645 11.5928 9.26365 11.0899L9.25016 11.0763C8.74927 10.5734 7.93551 10.5717 7.43256 11.0725Z" fill="#02D767"/>
<path d="M8.40128 5.60001L7.0246 6.97081L7.03377 6.9791L3.36091 10.6344V10.6285L2 11.9819L2.005 11.9869L2 11.9927L3.34591 13.3436L8.35723 18.4037C8.35723 18.4037 9.54189 16.8409 8.37719 15.6712L4.70933 11.9852L8.37969 8.32748L10.2327 10.1913C11.8122 11.7799 12.9387 10.1564 12.9387 10.1564L8.40128 5.60001Z" fill="#02D767"/>
<path d="M21.9825 12.0127L22 11.9961L15.6644 5.6333C15.6644 5.6333 14.5005 7.15377 15.6029 8.26022L19.3439 12.0177L15.6818 15.6655L13.9685 13.9463C12.7414 12.7135 11.1145 13.83 11.1145 13.83L15.6295 18.3622L21.9917 12.0244L21.9825 12.0127Z" fill="#02D767"/>
<path d="M14.758 11.0725L14.7444 11.086C14.2414 11.5868 14.2397 12.4006 14.7406 12.9035L14.7541 12.9171C15.255 13.42 16.0687 13.4217 16.5717 12.9209L16.5852 12.9074C17.0882 12.4066 17.0899 11.5928 16.5891 11.0899L16.5756 11.0763C16.0747 10.5734 15.2609 10.5717 14.758 11.0725Z" fill="#02D767"/>
</svg>
