<svg xmlns="http://www.w3.org/2000/svg" width="24" height="24" fill="none" viewBox="0 0 24 24">
    <path fill="#5F5FFF" d="M14.75 9.128a3.46 3.46 0 0 1 3.665 1.56 3.44 3.44 0 0 1-1.997 5.12 3.46 3.46 0 0 1-3.758-1.325 3.44 3.44 0 0 1-.633-1.989H8.974a6.5 6.5 0 0 0 1.321 3.93 6.525 6.525 0 0 0 10.758-.55 6.49 6.49 0 0 0-.812-7.817 6.52 6.52 0 0 0-7.763-1.322 6.54 6.54 0 0 1 2.271 2.393"/>
    <path fill="#17E5AA" d="M9.25 15.872a3.46 3.46 0 0 1-3.666-1.56 3.44 3.44 0 0 1 .253-3.97A3.45 3.45 0 0 1 9.67 9.258a3.45 3.45 0 0 1 2.302 3.247h3.053a6.5 6.5 0 0 0-1.322-3.93 6.525 6.525 0 0 0-7.582-2.12 6.5 6.5 0 0 0-3.176 2.671 6.49 6.49 0 0 0 .813 7.817 6.52 6.52 0 0 0 7.763 1.322 6.54 6.54 0 0 1-2.271-2.393"/>
</svg>
