<svg xmlns="http://www.w3.org/2000/svg" width="24" height="24" fill="none" viewBox="0 0 24 24">
    <path fill="#0090FF" d="m13.346 10.285-.46 2.344 4.385.586-.308 1.098-4.308-.586c-.308.954-.462 1.979-.846 2.858-.385 1.026-.77 2.05-1.232 3.005-.616 1.245-1.692 2.124-3.153 2.343-.846.147-1.769.073-2.462-.439-.23-.146-.462-.439-.462-.66 0-.292-.006-.636.385-.805.39-.17.551-.05.77.072.23.22.46.514.615.807.461.586 1.077.659 1.692.219.693-.585 1.078-1.392 1.308-2.197.461-1.758.923-3.444 1.307-5.201v-.295L6.5 12.848l.153-1.099 4.232.587.537-2.27-4.384-.661.155-1.171 4.538.586c.153-.44.23-.807.385-1.173.383-1.32.768-2.638 1.691-3.81.924-1.173 2-1.905 3.616-1.832.692 0 1.385.22 1.846.734.077.072.23.218.23.364 0 .295 0 .66-.23.88-.308.22-.693.147-1-.145-.23-.22-.386-.44-.616-.66-.46-.587-1.153-.66-1.691-.146-.417.398-.756.87-1 1.39-.54 1.54-.924 3.15-1.462 4.764l4.23.586-.307 1.098z"/>
</svg>
