<svg width="24" height="24" viewBox="0 0 24 24" fill="none" xmlns="http://www.w3.org/2000/svg">
<path d="M12 21.2455C17.2937 21.2455 21.4112 16.8343 21.4112 11.8343C21.4112 6.83432 17.2937 2.42313 12 2.42313C6.70628 2.42313 2.58743 6.83432 2.58743 11.8343C2.58743 16.8343 6.70491 21.2455 12 21.2455ZM21.9986 11.8343C22.0206 13.1612 21.7782 14.4794 21.2856 15.7117C20.793 16.9441 20.06 18.066 19.1294 19.0122C18.1987 19.9584 17.0891 20.71 15.8651 21.2229C14.6411 21.7358 13.3272 22 12 22C10.6728 22 9.35892 21.7358 8.13493 21.2229C6.91091 20.71 5.80123 19.9584 4.8706 19.0122C3.93995 18.066 3.20697 16.9441 2.71437 15.7117C2.22175 14.4794 1.97939 13.1612 2.00137 11.8343C2.04484 9.2112 3.11738 6.71024 4.98776 4.87059C6.85812 3.03095 9.37649 2 12 2C14.6234 2 17.1419 3.03095 19.0122 4.87059C20.8827 6.71024 21.9551 9.2112 21.9986 11.8343Z" fill="#F58580"/>
<path d="M12.5876 5.95169C12.5876 5.65797 12.3996 5.36426 11.9988 5.36426C11.5994 5.36426 11.4114 5.65797 11.4114 5.95169V8.62942L9.42404 6.63931C9.26483 6.48833 8.97113 6.46363 8.6884 6.74087C8.40567 7.02223 8.43037 7.31732 8.58821 7.47515L10.5948 9.48173H7.74001C7.51766 9.48173 7.29395 9.74662 7.29395 10.0692C7.29395 10.3931 7.51766 10.658 7.74138 10.658H10.5756L8.57037 12.6632C8.41802 12.8224 8.44135 13.1641 8.67056 13.3988C8.89976 13.628 9.24701 13.6514 9.4062 13.499L11.41 11.4938V15.3642H10.2352C9.85363 15.3642 9.64776 15.6278 9.64776 15.9517C9.64776 16.2756 9.86461 16.5391 10.2352 16.5391H11.4114V17.7167C11.4114 18.0104 11.6763 18.3041 11.9988 18.3041C12.1531 18.299 12.2998 18.2355 12.4091 18.1265C12.5183 18.0174 12.5822 17.871 12.5876 17.7167V16.5391H13.7652C13.8427 16.5398 13.9194 16.5251 13.9909 16.4959C14.0625 16.4666 14.1276 16.4234 14.1822 16.3686C14.237 16.314 14.2802 16.249 14.3094 16.1773C14.3387 16.1058 14.3534 16.0291 14.3527 15.9517C14.3536 15.8743 14.3391 15.7974 14.3099 15.7256C14.2808 15.6538 14.2375 15.5886 14.1828 15.5337C14.128 15.479 14.0629 15.4356 13.9913 15.4062C13.9195 15.3769 13.8428 15.3622 13.7652 15.3629H12.5876V11.4746L14.6121 13.499C14.7713 13.6514 15.1172 13.628 15.3477 13.3988C15.5769 13.1641 15.6003 12.8224 15.4411 12.6632L13.4372 10.658H16.2577C16.4814 10.658 16.7051 10.4699 16.7051 10.0692C16.7051 9.66976 16.4814 9.48173 16.2577 9.48173H13.4235L15.4287 7.47515C15.5824 7.31732 15.6112 7.02223 15.3285 6.74087C15.0472 6.46363 14.7521 6.48696 14.5942 6.64068L12.5876 8.64589V5.95169Z" fill="#F47677"/>
</svg>
