<svg xmlns="http://www.w3.org/2000/svg" width="24" height="24" fill="none" viewBox="0 0 24 24">
    <path fill="#F58580" d="M12 20.321c4.764 0 8.47-3.97 8.47-8.47S16.764 3.38 12 3.38s-8.471 3.97-8.471 8.47S7.234 20.32 12 20.32m8.999-8.47A8.998 8.998 0 0 1 8.52 20.3 9 9 0 0 1 5.69 5.584 9 9 0 0 1 21 11.851"/>
    <path fill="#F47677" d="M12.529 6.557c0-.265-.17-.53-.53-.53s-.529.265-.529.53v2.41L9.682 7.174c-.144-.136-.408-.158-.662.092-.255.253-.233.519-.09.66l1.805 1.807H8.166c-.2 0-.401.238-.401.528 0 .292.201.53.402.53h2.551l-1.805 1.805c-.137.143-.116.45.09.662.207.206.52.227.663.09l1.803-1.805v3.484h-1.057c-.344 0-.529.237-.529.528s.195.53.529.53h1.058v1.059a.55.55 0 0 0 .529.529.55.55 0 0 0 .53-.529v-1.06h1.06a.525.525 0 0 0 .528-.529.524.524 0 0 0-.528-.53h-1.06v-3.499l1.822 1.822c.143.137.455.116.662-.09.206-.211.227-.519.084-.662l-1.803-1.805h2.538c.201 0 .403-.17.403-.53s-.202-.528-.403-.528h-2.55l1.804-1.806c.138-.142.164-.408-.09-.661-.253-.25-.519-.229-.661-.09L12.529 8.98z"/>
</svg>
