<svg xmlns="http://www.w3.org/2000/svg" width="24" height="24" fill="none" viewBox="0 0 24 24">
    <path fill="#53CBC9" d="M8.351 9.957a5.546 5.546 0 0 1 5.595-5.497 5.545 5.545 0 0 1 5.594 5.497.34.34 0 0 1-.34.34H8.691a.34.34 0 0 1-.34-.34"/>
    <path fill="#CB1F7A" d="M6.892 11.756c0-.266.18-.485.404-.485H20.11c.224 0 .403.219.403.485 0 .268-.18.487-.403.487H7.296c-.224 0-.404-.219-.404-.487m-2.433 1.46c0-.268.185-.486.409-.486h9.399c.224 0 .408.218.408.486s-.184.487-.408.487h-9.4c-.223 0-.408-.219-.408-.487m2.841.973c-.223 0-.408.219-.408.487s.185.486.408.486h11.346c.223 0 .408-.218.408-.486s-.185-.487-.408-.487zm-2.354 1.945c0-.266.19-.485.419-.485h4.514c.229 0 .418.219.418.486s-.19.488-.418.488H5.365c-.23 0-.419-.22-.419-.489m8.178.974c-.22 0-.394.218-.394.486s.174.487.393.487h5.542c.22 0 .394-.219.394-.487 0-.267-.175-.486-.394-.486h-5.546zm-3.8 1.946c0-.268.175-.487.394-.487h5.542c.219 0 .394.22.394.487 0 .268-.175.486-.394.486H9.714c-.22 0-.394-.218-.394-.486zm1.873-3.405c-.228 0-.413.219-.413.486s.185.488.413.488h9.39c.228 0 .413-.22.413-.489 0-.266-.185-.485-.413-.485zm-5.764-3.894a.487.487 0 1 1 .972-.047.487.487 0 0 1-.972.047m-1.947.973a.487.487 0 1 0 0 .974.487.487 0 0 0 0-.974m1.947 1.947a.487.487 0 1 1 .972-.047.487.487 0 0 1-.972.047m-1.46.974a.486.486 0 1 0 0 .972.486.486 0 0 0 0-.972m7.297 1.945a.486.486 0 1 1 .972 0 .486.486 0 0 1-.972 0m-2.919.973a.485.485 0 0 0-.51.486.488.488 0 1 0 .51-.486"/>
</svg>
