<svg xmlns="http://www.w3.org/2000/svg" width="24" height="24" fill="none" viewBox="0 0 24 24">
    <path fill="#C5FE4A" d="m5.846 18.565.05.047.63-.894c.521-1.027.725-1.964.73-2.761a5.4 5.4 0 0 0-.175-1.26 5 5 0 0 1-.167-.76v-.01a6 6 0 0 1-.048-.521c-.11-2.827 2.087-5.248 4.905-5.408l-.02-.018c.672-.042 1.65.106 2.472-.11a4.95 4.95 0 0 0 2.238-1.355.6.6 0 0 1 .1-.084l.578-.819a8.99 8.99 0 0 0-8.543-.94c-4.6 1.877-6.805 7.131-4.925 11.731a8.95 8.95 0 0 0 2.173 3.162zM17.562 6.169a.6.6 0 0 1-.054.125c-.544 1.019-.776 2.558-.726 3.166.082 1.01.39 1.666.295 2.44.072 2.804-2.12 5.186-4.917 5.34h-.006c-.616.039-.688-.02-1.252.005-1.164.052-2.406.538-3.267 1.447l-.576.82q.248.163.503.316.116.066.233.128a8.98 8.98 0 0 0 7.608.373 9 9 0 0 0 4.925-11.734 9 9 0 0 0-2.218-3.203z"/>
</svg>
