<svg xmlns="http://www.w3.org/2000/svg" width="24" height="24" fill="none" viewBox="0 0 24 24">
    <path fill="#6B00FA" stroke="#362745" stroke-miterlimit="10" stroke-width=".5" d="M6.61 16.305c.073-1.092.052-2.216.183-3.333.074-.609.205-1.212.257-1.82.068-.832-.015-1.664-.036-2.502-.006-.244-.032-.488.031-.733.031-.125.079-.255.21-.28.225-.053.162-.177.115-.313-.052-.15-.1-.301-.157-.447-.315-.764-.047-1.45.335-2.095.325-.551.75-1.045 1.196-1.508.498-.52 1.117-.78 1.846-.79q.203 0 .414-.016c.068-.005.136-.005.21-.01.063-.006.13 0 .194-.011l.063-.016c.036 0 .073.01.104.01.079.011.152.022.231.037q.228.038.456.083.455.089.902.208c.163.042.325.089.477.167.278.15.477.405.745.572.183.114.388.182.556.317.188.15.309.364.424.577.126.229.252.458.336.707.02.063.042.13.058.193.063.265.094.535.126.806.03.265.068.535.157.79.02.062.047.125.073.187.01.026.026.052.032.078 0 .037-.006.073-.006.11-.005.785-.073 1.565-.089 2.35a42 42 0 0 1-.257 3.8 1.9 1.9 0 0 0 .058.656c.152.634.2 1.269.105 1.924-.079.551-.079 1.118-.115 1.68-.016.25-.152.353-.399.358-.288.006-.55-.114-.839-.12-.404-.01-.792.084-1.185.126-.66.062-1.3-.058-1.95-.136-.116-.01-.226-.062-.341-.057-.121 0-.236.005-.357 0-.058-.005-.115-.005-.173-.02-.037-.011-.063-.027-.1-.032-.157-.015-.314-.015-.472-.026-.157-.005-.314-.015-.471-.02a50 50 0 0 0-.95-.037l-.948-.031c-.08 0-.158-.005-.236-.005-.074 0-.158-.016-.231-.006-.021.006-.042.016-.058.021a.5.5 0 0 1-.236-.005c-.23-.062-.288-.307-.293-.515-.006-.14.01-.28.015-.421-.01-.14-.01-.28-.01-.452Z"/>
    <path fill="#4300BF" stroke="#362745" stroke-miterlimit="10" stroke-width=".5" d="M16.284 20.667c-.042.27-.005.577-.084.869-.032.114-.058.223-.184.27-.12.042-.204-.01-.262-.114-.042-.073-.115-.068-.189-.073q-.89-.056-1.772-.104l-6.067-.312c-.566-.026-1.132-.042-1.698-.073-.153-.01-.457 0-.493-.203-.01-.062-.048-.114-.063-.177a1.5 1.5 0 0 1-.042-.405c-.01-.312-.016-.63-.026-.941q.002-.078-.006-.156a.14.14 0 0 0-.026-.084c-.037-.078-.005-.166.047-.228.068-.084.163-.12.262-.078.326.12.666.093.997.114 1.552.088 3.11.156 4.666.229 1.416.067 2.827.14 4.242.213.488.026.677.224.677.712 0 .172.01.344.02.541Z"/>
    <path fill="#6B00FA" stroke="#362745" stroke-miterlimit="10" stroke-width=".5" d="M11.77 17.885c-.478-.015-.96-.036-1.432-.104-.304-.046-.598-.114-.902-.156a9 9 0 0 0-.986-.052c-.498-.01-1.007-.015-1.489.104-.482.12-.954.385-1.211.811.456.333 1.054.375 1.62.406l1.038.057c2.554.14 5.107.281 7.66.286-.078-.239-.157-.483-.24-.722-.074-.214-.179-.463-.43-.515-.084-.016-.168 0-.252.005-.147 0-.299-.01-.446-.016-.624-.02-1.253-.047-1.877-.067-.351-.01-.702-.026-1.054-.037Z"/>
    <path fill="#4300BF" stroke="#362745" stroke-miterlimit="10" stroke-width=".5" d="M17.574 17.449c.078-.042.167-.084.215-.156.047-.073.052-.162.057-.245l.063-1.024c.026-.385.047-.77.042-1.155-.005-.364-.042-.727-.02-1.086.02-.333.088-.66.125-.993.131-1.176-.147-2.361-.094-3.542.02-.436.089-.873.115-1.315a7.6 7.6 0 0 0-.603-3.5.6.6 0 0 0-.163-.25c-.104-.082-.246-.093-.361-.16-.163-.1-.226-.297-.315-.468-.22-.427-.64-.718-1.096-.88-.456-.16-.938-.207-1.416-.254q-.502-.045-1.006-.099c-.163-.015-.399.037-.373.198.483.359 1.039.619 1.547.941.509.322.991.733 1.232 1.284.105.234.158.49.21.744.157.728.31 1.456.346 2.2.026.54-.01 1.086-.047 1.632-.047.713-.079 1.43-.11 2.143-.032.712-.053 1.43-.063 2.142q-.024 1.075-.016 2.142a72 72 0 0 0 .021 1.607c.005.166-.01.348.01.52.037.255.326.218.504.14.325-.14.64-.306.965-.462.058-.021.173-.104.23-.104Z"/>
    <path fill="#100342" stroke="#362745" stroke-miterlimit="10" stroke-width=".5" d="M16.205 19.175c.021.036.047.078.09.078.025 0 .052-.016.073-.026.24-.161.44-.38.702-.5.179-.082.373-.114.556-.176.262-.088.498-.24.734-.385.084-.052.178-.13.163-.229a.2.2 0 0 0-.047-.093 2 2 0 0 0-.467-.453.26.26 0 0 0-.116-.052c-.052-.005-.104.021-.152.042q-.572.279-1.137.567c-.19.093-.378.192-.567.286-.157.078-.288.135-.183.322.12.208.246.411.351.619Zm.168 2.235c.005.037.01.079.031.105.058.062.158.026.231-.016l1.904-1.06c.062-.037.13-.073.172-.136.043-.067.048-.15.053-.229.021-.42.037-.842.058-1.268.005-.12.005-.25-.063-.344-.074-.104-.215-.135-.341-.12a1 1 0 0 0-.351.141q-.764.42-1.526.832c-.168.094-.372.156-.357.375.016.255.058.51.084.759.016.161.037.317.053.478.015.161.052.328.052.484Z"/>
    <path fill="#4300BF" d="M13.5 5.094c.1.083.089.255-.016.333s-.273.026-.32-.094.042-.27.168-.291c.058-.005.12.01.168.052m.849.733c-.005.026-.01.047-.01.073a.12.12 0 0 0 .078.098c.11.058.273-.026.288-.15.01-.125-.125-.245-.246-.208-.01-.006-.026.005-.031.015-.048.057-.058.11-.08.172m-.518.733h-.23c-.022 0-.043 0-.059.016-.01.01-.01.026-.015.041-.01.063-.016.12-.021.182-.006.073-.006.167.057.203.042.02.09.016.132.026.036.01.068.031.104.026.074 0 .121-.078.137-.15a.34.34 0 0 0-.016-.23c-.037-.072-.11-.124-.189-.114"/>
    <path fill="#6B00FA" d="M17.37 8.822c-.053-.052-.116-.047-.184-.026a.14.14 0 0 0-.095.146c0 .052.037.104.074.14.057.057.162.005.204-.047.053-.052.053-.15 0-.213m-.367.874a.24.24 0 0 0-.052-.11c-.032-.03-.095-.015-.131 0a.4.4 0 0 0-.09.063c-.01.01-.02.015-.026.031a.2.2 0 0 0-.026.083c0 .016-.015.089 0 .099a.24.24 0 0 0 .22.02c.063-.036.116-.114.105-.186"/>
    <path fill="#4300BF" d="M7.967 16.268a.27.27 0 0 0-.24.13.22.22 0 0 0 .041.265c.079.068.336.063.41-.005.073-.067-.027-.187-.069-.286a2 2 0 0 0-.2-.104m-.398-1.721a1.4 1.4 0 0 0-.073.255.06.06 0 0 0 .005.052c.016.026.047.031.079.036.079.005.168.005.215-.052a.14.14 0 0 0 .031-.062c.027-.083.01-.182-.063-.229s-.188-.02-.204.062m1.179.791c-.01-.026-.03-.068-.057-.078-.016-.005-.042 0-.063 0h-.058q-.024-.001-.042.005c-.02.01-.041.042-.057.057a.04.04 0 0 0-.021.021.2.2 0 0 0-.021.094c0 .01 0 .093.01.093.053.01.236.026.289.037.031.005-.058.015-.032-.005q.015-.014.032-.037c.026-.062.042-.13.02-.187"/>
    <path fill="#6B00FA" d="M13.82 20.984c.099.073.261.052.33-.052.052-.078.041-.176.026-.27-.006-.026-.01-.052-.027-.068-.015-.015-.041-.02-.068-.02-.073-.01-.136-.006-.21-.006h-.03a.2.2 0 0 0-.074.052.19.19 0 0 0-.058.188.3.3 0 0 0 .11.176m-.665-1.014a.156.156 0 0 0-.084.193.3.3 0 0 0 .152.073c.057.005.12-.032.13-.089.011-.046-.015-.088-.041-.13-.026-.041-.058-.083-.105-.098-.047-.01-.11.03-.09.078m3.714-3.635a.24.24 0 0 0-.237.073.4.4 0 0 0-.089.239.2.2 0 0 0 .026.13c.037.047.105.052.163.036a.32.32 0 0 0 .251-.213c.032-.11-.041-.25-.157-.265.084-.01-.016-.057.042 0m.372-1.316c-.11.021-.215.1-.225.208-.01.11.115.213.215.162.1-.094.089-.276-.016-.364"/>
    <path fill="#100342" d="M13.757 4.46c-.063.015-.09.098-.063.155.026.058.094.089.162.089.032 0 .068-.01.084-.037q.009-.022.01-.046c0-.058 0-.12-.015-.177a.6.6 0 0 0-.173.005m-.582.931c-.048.005-.1.01-.142.031s-.079.068-.073.114c.005.063.073.104.13.13.048.021.11.042.153.005.042-.036.026-.098.057-.145.01-.016.027-.031.032-.052.005-.036-.037-.062-.073-.068-.037-.005-.08-.01-.095-.041m-.77-1.097a.3.3 0 0 0-.126.109c-.053.088-.01.229.089.25.1.02.189-.068.241-.157q.009-.015.01-.03c0-.011-.01-.022-.02-.027a4 4 0 0 0-.174-.12c-.015-.01-.041-.02-.052 0m-4.011.89a.5.5 0 0 0-.032.208c.047.026.105.02.152 0a.33.33 0 0 0 .115-.11c.006-.01.016-.02.016-.036 0-.02-.01-.042-.026-.057a.2.2 0 0 0-.12-.068c-.048-.005-.1.031-.105.073m-.236.838c-.042.02-.047.088-.021.124a.15.15 0 0 0 .13.047c.032-.005.069-.016.08-.042.02-.041-.011-.088-.042-.12-.032-.036-.08-.077-.132-.062m2.108-2.62a.27.27 0 0 0-.005.171c.026.042.09.052.131.026a.14.14 0 0 0 .058-.13c-.01-.057-.074-.114-.126-.088m4.546 5.106a.154.154 0 0 0 .042.198c.063.041.158.02.194-.042.021-.031.021-.078.01-.114a.15.15 0 0 0-.136-.089.22.22 0 0 0-.157.057c.021.006.037.016.058.021m-.352 7.607c-.005.079-.042.151-.042.23 0 .077.053.166.131.166.069 0 .116-.063.147-.12.026-.036.047-.078.068-.114.016-.021.027-.047.016-.073a.06.06 0 0 0-.026-.026.53.53 0 0 0-.31-.078"/>
    <path stroke="#362745" stroke-miterlimit="10" stroke-width=".5" d="M14.506 16.07c-.005.079-.042.151-.042.23 0 .077.053.166.131.166.069 0 .116-.063.147-.12.026-.036.047-.078.068-.114.016-.021.027-.047.016-.073a.06.06 0 0 0-.026-.026.53.53 0 0 0-.31-.078"/>
    <path fill="#100641" d="M14.045 15.171c.026.057.068.114.126.13.1.031.215-.088.173-.182s-.21-.099-.252 0m-2.186 1.446c-.037.093.042.208.141.223.1.016.2-.067.226-.166a.06.06 0 0 0-.005-.052c-.011-.016-.027-.021-.048-.026-.084-.021-.173-.042-.257-.068l-.026.083"/>
    <path fill="#100342" d="M7.989 12.81c-.01.047-.027.094-.016.14.005.048.037.094.084.105.052.015.11-.026.13-.078a.34.34 0 0 0 .017-.162l-.184-.03"/>
    <path fill="#100641" d="M7.49 19.815c-.02.067-.036.155.021.202.063.052.153.006.231.021a.4.4 0 0 0 .005-.192c-.015-.063-.063-.125-.125-.136-.063-.015-.137.037-.132.104h.048zm1.196.452c0 .083 0 .161.005.244.058.01.12.016.184.026.016 0 .037.006.052-.005.016-.01.021-.031.026-.052.021-.088.021-.187-.041-.255-.063-.062-.2-.047-.21.042m5.401.146c-.058.046-.09.13-.058.197.031.068.126.104.189.057.026-.057.052-.12.042-.182s-.095-.109-.147-.067m2.847.005a.22.22 0 0 0 0 .13c.016.042.073.068.11.042.016-.01.021-.026.026-.042a.3.3 0 0 0 .027-.14c-.006-.047-.042-.094-.09-.1-.047-.004-.1.042-.084.084m-.272-6.229c-.01.046-.026.093-.016.14s.047.094.094.088c.074 0 .105-.088.116-.16.01-.063.01-.147-.047-.173-.063-.026-.121.042-.158.094"/>
    <path fill="#100342" d="M17.222 6.326c-.01.047-.015.099.005.14.021.042.08.068.121.042.021-.01.032-.031.042-.052.016-.042.032-.083.021-.125s-.042-.083-.084-.088-.089.036-.079.078m-.314.702c0 .057 0 .109.005.166a.15.15 0 0 0 .168-.125.147.147 0 0 0-.131-.16.2.2 0 0 1-.021.103m.671.146a.36.36 0 0 0-.026.182c.01.062.073.114.13.104.08-.016.095-.125.09-.208-.005-.057-.01-.125-.058-.156-.047-.031-.136.005-.115.057"/>
    <path fill="#362745" stroke="#362745" stroke-miterlimit="10" stroke-width=".5" d="M9.504 13.07c.09-.312-.079-.593-.32-.873-.372-.432-.713-.884-.792-1.487-.173-1.363.593-2.694 1.857-3.178a3.004 3.004 0 0 1 3.586 1.113q.528.771.53 1.706c0 .572-.184 1.066-.588 1.476-.193.193-.356.416-.56.598a.76.76 0 0 0-.279.671c.011.213-.015.427-.01.64v.041c0 .021-.005.037-.005.053 0 .01 0 .109.005.109q-.056-.001-.105.005c-.042 0-.084.005-.126 0-.078-.01-.152-.01-.23-.016q-.023.001-.053-.005c-.031 0-.057-.005-.089-.005-.01 0-.021-.005-.037-.005h-.23c0-.031-.006-.063-.006-.094q-.006-.093-.005-.187c0-.12-.005-.24-.005-.359q.001-.008-.005-.015-.008-.008-.016-.006c-.126-.01-.252 0-.378.016q.001.109-.005.223v.063c0 .031 0 .057-.005.088 0 .01-.005.016-.005.021-.006.01-.006.026-.006.037a.7.7 0 0 0 .006.176h-.116c-.047 0-.1 0-.146-.01-.058-.01-.121-.005-.179-.01-.02 0-.047 0-.068-.006-.058 0-.115-.01-.173-.01h-.09l-.088.01c0-.052.005-.109.005-.16q-.001-.039.005-.084c0-.026.005-.052.005-.078q.001-.155-.005-.317a2.3 2.3 0 0 0-.42-.037q-.006.18-.02.36c-.005.056-.005.119-.01.181v.047q.001.016-.006.026c-.005.01-.031.01-.042.01a2 2 0 0 1-.225-.005c-.032 0-.069-.005-.1-.005-.084-.005-.168-.005-.252-.01-.026 0-.057-.006-.084-.006a.2.2 0 0 0-.052-.01l-.09-.005v-.198c0-.026-.004-.052.006-.078.005-.01 0-.02 0-.031v-.078c0-.068.005-.13.005-.198.01 0 .01-.02.016-.104Zm1.699-.957c.047.006.094.006.142.01.073.006.152.011.225.022q-.038-.118-.084-.23c-.01-.03-.026-.056-.037-.082s-.026-.047-.036-.073c-.006-.005-.006-.016-.006-.02-.005-.027-.015-.048-.02-.074-.027-.062-.048-.13-.074-.197a1 1 0 0 0-.037-.089c0 .005-.01.021-.01.021-.005.01-.016.02-.021.031a3 3 0 0 0-.189.286c-.031.047-.057.1-.089.151-.016.026-.026.052-.042.073l-.016.031c-.005.02-.026.042-.042.063a.5.5 0 0 0-.057.083h.089q.044.001.089-.005c.01 0 .026-.006.037-.006q.023-.001.047.005c.031 0 .058.006.089.006q.025-.014.042-.005Z"/>
    <path fill="#E0E3BD" stroke="#362745" stroke-miterlimit="10" stroke-width=".5" d="M9.384 12.925c.083-.307-.08-.583-.315-.858-.367-.427-.703-.869-.776-1.456-.168-1.337.582-2.637 1.82-3.11a2.95 2.95 0 0 1 3.518 1.092c.34.505.519 1.061.524 1.67 0 .561-.178 1.045-.577 1.445-.188.192-.346.41-.55.582a.75.75 0 0 0-.273.66c.01.209-.016.417-.01.625v.041c0 .016-.006.037-.006.052 0 .01 0 .104.006.104h-.105c-.042 0-.084.005-.126 0-.074-.01-.152-.01-.226-.015q-.023.001-.047-.005c-.031 0-.057-.006-.089-.006-.01 0-.02-.005-.031-.005h-.226c0-.031-.005-.057-.005-.088-.005-.063-.005-.12-.005-.182 0-.12-.006-.234-.006-.354q.001-.007-.005-.016-.007-.006-.016-.005c-.12-.01-.246 0-.367.016q.001.11-.005.218v.063q.001.04-.005.088c0 .01-.005.016-.005.02-.006.011-.006.027-.006.037a.6.6 0 0 0 .006.172h-.11c-.048 0-.095 0-.142-.01-.058-.01-.115-.006-.178-.01-.021 0-.047 0-.069-.006-.057 0-.11-.01-.167-.01h-.09a.4.4 0 0 0-.083.01c0-.052.005-.104.005-.161q-.001-.039.005-.078c0-.026.005-.052.005-.078q.001-.156-.005-.312a3 3 0 0 0-.409-.037l-.015.354c-.006.057-.006.12-.011.177v.046q.001.017-.005.026c-.006.01-.032.01-.042.01-.074.006-.147 0-.22-.004-.032 0-.069-.006-.1-.006-.084-.005-.168-.005-.247-.01-.026 0-.052-.005-.083-.005-.016 0-.032-.01-.053-.01l-.084-.006v-.192c0-.026-.005-.052.006-.073.005-.01 0-.02 0-.031v-.078c0-.062.005-.13.005-.192-.01 0-.01-.016-.005-.1Zm1.667-.941c.047.005.094.005.136.01q.11.006.22.02c-.026-.072-.047-.15-.078-.228-.01-.031-.026-.057-.037-.083s-.026-.047-.037-.073c-.005-.005-.005-.016-.005-.02-.005-.027-.015-.048-.02-.074-.027-.062-.048-.13-.074-.192a1 1 0 0 0-.037-.088c0 .005-.01.015-.01.02-.006.01-.016.021-.021.032a9 9 0 0 0-.184.28c-.031.047-.058.1-.084.146l-.042.073-.015.031a.2.2 0 0 1-.042.057c-.021.026-.037.052-.058.078h.089c.031 0 .058 0 .09-.005.01 0 .025-.005.036-.005q.023-.001.047.005c.031 0 .058.005.09.005.01.01.025.01.036.01Z"/>
    <path fill="#362745" d="M13.08 7.803c-.96-.76-2.045-.884-3.167-.385-1.799.8-2.28 3.172-1.2 4.352.151.167.267.36.424.526a.64.64 0 0 1 .178.514c-.015.281-.042.567 0 .874l.923.042.016-.65.356.01v.603c0 .016-.005.031-.005.052h.089c.063 0 .12.005.184.005.073.005.152.005.23.01.069.006.142.006.21.011.042 0 .084.005.131.005h.016q.013.001.026-.005c0-.015.005-.036.005-.052v-.005c0-.005 0-.016.006-.02 0-.016.005-.032.005-.042v-.505l.357.01-.016.645c.057 0 .97.042.97.042v-.832q.001-.04-.005-.073c0-.062 0-.125.01-.182a.4.4 0 0 1 .073-.182c.011-.01.021-.026.032-.036l.042-.042c.026-.026.052-.057.079-.083q.078-.084.157-.166l.152-.167c.052-.057.1-.109.147-.166s.1-.11.147-.167.094-.109.141-.166c.026-.026.047-.057.074-.083a1.53 1.53 0 0 0 .346-.744c.188-1.201-.184-2.2-1.133-2.948m-2.973 5.101h-.052v.078c0 .052-.006.11-.006.161-.005.11-.01.224-.01.333l-.467-.02c0-.048.005-.094.005-.141q.01-.155.01-.317c.006-.11.011-.224.011-.333 0-.042.006-.083.006-.125 0-.02-.006-.042-.006-.057 0-.021-.005-.042-.005-.063 0-.01-.005-.015-.005-.026-.005-.005-.005-.015-.01-.02q-.007-.024-.022-.047l-.047-.094c-.016-.031-.036-.057-.057-.088a.4.4 0 0 0-.042-.052c-.22-.265-.43-.541-.64-.817-.299-.405-.351-.878-.294-1.357.131-1.076.698-1.856 1.71-2.257 1.001-.395 1.95-.228 2.747.484.813.723 1.112 1.643.85 2.72-.063.275-.242.473-.42.67q-.331.366-.671.723-.017.013-.026.026c0 .005 0 .005-.005.01-.006.006-.006.011-.01.016-.006.01-.017.021-.022.031-.005.006-.005.01-.01.016-.006.005-.006.005-.006.01l-.031.063a.7.7 0 0 0-.042.15q-.006.04-.005.079v.915c-.005.005-.01 0-.01 0h-.022c-.026 0-.057 0-.084-.005l-.346-.016c.005-.099.005-.198.01-.291 0-.031.006-.068.006-.099v-.161l-.068-.01a.4.4 0 0 0-.079-.011l-.168-.016q-.086-.006-.173-.005h-.32l-.02.598-.467-.02.02-.588-.083-.016a2 2 0 0 0-.168-.02c-.058-.006-.115-.006-.173-.011q-.087.001-.173-.005h-.084"/>
    <path fill="#362745" d="M11.271 11.167c-.005-.005-.005-.015-.01-.02-.01-.016-.016-.037-.026-.053l-.016-.03c-.005-.011-.01-.017-.016-.027-.021-.031-.037-.068-.058-.099-.01-.015-.015-.03-.026-.052 0-.005-.005-.01-.005-.01 0-.005-.005-.01-.005-.01q-.007-.001-.006.005c0 .005-.005.005-.005.01s-.005.01-.005.016q-.007.016-.016.026a1 1 0 0 0-.057.098 1 1 0 0 0-.058.1c-.026.04-.047.082-.074.13-.01.015-.015.03-.026.04a.2.2 0 0 0-.026.048.4.4 0 0 0-.031.052c-.011.015-.021.036-.032.052-.01.02-.021.036-.031.057-.01.02-.021.036-.032.057-.01.02-.02.042-.031.057q-.015.033-.032.057c-.01.021-.02.037-.031.058-.01.02-.021.036-.032.057l-.031.057c-.01.016-.021.037-.032.052a.2.2 0 0 0-.026.047l-.026.047c-.005.015-.016.026-.021.041-.005.01-.016.021-.021.037l-.016.03a.04.04 0 0 0-.01.022c-.005.005-.005.01-.01.015l-.006.005h.005c.032 0 .058 0 .09.006h1.064l.189.005h.005c-.01-.031-.026-.057-.037-.088a98 98 0 0 0-.43-.895q0 .008 0 0m-.54.785c.126-.213.241-.405.372-.629.09.24.163.426.252.655-.215-.01-.393-.02-.624-.026"/>
    <path fill="#E0E3BD" d="M7.758 7.943c0 .026.005.047.005.068zm0 0c0 .026.005.047.005.068z"/>
    <path stroke="#362745" stroke-miterlimit="10" stroke-width="2" d="M7.758 7.943c0 .026.005.047.005.068Zm0 0c0 .026.005.047.005.068z"/>
    <path fill="#E0E3BD" d="M18.858 17.875c-.267-.213-.466-.489-.718-.728.016-.265.047-.504.047-.744-.005-.655.037-1.31-.015-1.965-.032-.4.078-.785.188-1.17.215-.733.095-1.487-.015-2.21a6.7 6.7 0 0 1-.053-1.524c.037-.447.042-.894.079-1.341.047-.635.105-1.259-.058-1.898-.141-.54-.173-1.108-.393-1.628-.173-.405-.173-.405-.708-1.107-.477-.5-.55-.505-.96-.749-.314-.187-.623-.364-1.006-.4-.488-.047-.939-.26-1.421-.338-.84-.136-1.668-.063-2.496.062-1.112.172-2.208.385-3.062 1.227-.404.4-.818.78-.991 1.337-.048.156-.152.29-.231.431-.362.608-.278.884-.33 1.674.031.058-.074.4-.11.494-.048.53-.053.193-.048.422.016.691.021 1.383.027 2.07.005.623.031 1.247-.084 1.86-.126.65-.116 1.306-.121 1.961 0 .146.005.297-.031.437-.11.489-.084.977-.058 1.466.037.666.005 1.326.084 2.007-.388.302-.771.604-1.159.895-.136.099-.215.208-.215.384.01.734.01 1.467.016 2.2 0 .198.094.307.299.322q1.422.085 2.836.177c1.227.078 2.449.151 3.676.229 1.39.088 2.779.182 4.169.27a.9.9 0 0 0 .524-.13 211 211 0 0 1 2.197-1.3c.178-.104.246-.239.246-.442.005-.64.021-1.279.037-1.913 0-.13-.026-.25-.142-.338M6.793 14.589c.063-.437.12-.869.11-1.31-.015-.573.053-1.134.137-1.696.115-.78.073-1.565.057-2.35-.005-.286-.01-.572-.005-.853q.001-.11.01-.218.01-.062.011-.13c0-.021.016-.037.032-.052.02-.026.047-.052.068-.078q.006-.008.02-.016.011-.001.022.005c.094.042.257.193.262.203 0 .005.189.146.189.15.005.006-.116.266-.116.276.226 0 .168-.072.352-.4.01-.02-.184-.15-.184-.177-.031-.031-.042-.073-.058-.109a.5.5 0 0 0-.068-.125c-.016-.02-.031-.036-.047-.057l-.047-.047a.05.05 0 0 1-.016-.036c-.005-.02-.016-.037-.02-.057a1 1 0 0 1-.059-.151q-.053-.15-.1-.307a7 7 0 0 0-.099-.312q-.03-.084-.063-.166c.037-.49.131-.957.456-1.352.074-.094.121-.213.158-.323.147-.478.472-.821.844-1.128.23-.192.44-.421.708-.551.005-.005.026.01.031.01l.032.016a.15.15 0 0 1 .047.052c.02.026.026.062.042.088.01.026.02.057.031.083.021.058.042.11.058.167.005.01.005.015.01.02 0 .006.006.01.006.01s.01.006.015.006c.021.005.042.016.063.02.006 0-.02.141-.02.152v.026c0 .02-.006.047-.006.067-.005.047-.005.094-.01.14 0 .016-.006.037 0 .053l.015.041c.042.084.063.396.063.396s.069-.177.063-.188c-.005-.015-.005-.026-.01-.041l-.016-.083-.016-.115c0-.015-.005-.026-.005-.041 0-.01-.005-.016 0-.026a.1.1 0 0 1 .021-.042c.005-.016.016-.031.021-.047 0 0 .031.005.037.01q.015.01.031.01a.2.2 0 0 1 .084.032.1.1 0 0 1 .032.02l.015.032q.039.104.084.208c.005.01.01.026.021.037a.1.1 0 0 0 .032.02c.068.042.141.084.21.125-.032-.052-.08-.093-.121-.145a.6.6 0 0 1-.12-.27q-.008-.032-.006-.063c-.053-.037-.105-.068-.157-.104-.021-.016-.048-.026-.063-.042a.04.04 0 0 1-.01-.026l-.017-.041c-.02-.058-.036-.115-.057-.167-.005-.015-.01-.036-.026-.041-.006-.006-.016-.006-.027-.01-.015-.011-.02-.032-.026-.048l-.016-.067a.2.2 0 0 1-.01-.057v-.021c-.005-.037-.016-.073-.016-.11a.45.45 0 0 1 .068-.27c1.6-.234 3.215-.426 4.62.796v.728c0 .02 0 .047-.01.067-.006.006-.006.01-.011.021q-.006.025-.021.042-.023.038-.053.083c-.02.031-.042.062-.052.099.005-.005.01-.005.016-.01l.016-.016a.2.2 0 0 1 .036-.026.4.4 0 0 0 .068-.057c.01-.01.016-.021.027-.037s.02-.041.031-.057a.14.14 0 0 0 .031-.068c.006-.01.011-.015.011-.026.005-.01.005-.02.01-.036l.016-.073c.021-.104.026-.208.042-.312.005-.041.016-.078.026-.12.436.339.887.635.95 1.228a8 8 0 0 0 .283 1.471c.042.14.078.286.078.432 0 .972.047 1.94-.11 2.907-.084.514-.079 1.05-.084 1.575 0 .562-.031 1.123-.084 1.68-.052.546-.052 1.086.084 1.617.074.28.026.561-.005.847-.063.557-.09 1.118-.126 1.68-.01.135-.005.276-.063.421-2.852-.156-5.7-.312-8.562-.473l-.01-.094-.017-.109a3 3 0 0 1-.02-.213c-.006-.073 0-.14.005-.208v-.026a.4.4 0 0 1 .01-.078l.016-.083c.016-.063.031-.125.058-.187.005-.01.005-.016.01-.026q.01-.008.026-.016l.404-.156c.016-.005.021-.026.032-.042q.013-.022.036-.046c.01-.01.026-.021.037-.032a.2.2 0 0 0 .042-.072c.02-.042.042-.089.058-.13l.026-.058q-.001-.007.005-.015c.016-.026.052-.047.073-.063a.6.6 0 0 0 .121-.124c-.042.02-.073.046-.115.072a.2.2 0 0 1-.058.026q-.006-.002-.021.006c-.005 0-.005.005-.005.005a.3.3 0 0 0-.032.041q-.03.048-.063.094-.039.053-.078.114c-.026.042-.042.084-.084.104q-.016.008-.042.016l-.399.13c-.026.01-.052.016-.078.036v-.052c.005-.026 0-.052.005-.072v-.104c0-.073-.005-.14-.005-.214-.006-.14-.016-.28-.021-.416a2.7 2.7 0 0 1-.01-.8m-.115 3.374c.073-.057.168-.041.252-.036 1.683.094 3.366.182 5.049.276q1.65.094 3.309.181c.052.006.104.016.162.021.105.208.189.421.252.681-3.214-.207-6.402-.41-9.648-.618.22-.219.43-.354.624-.505m9.192 3.479c-.236.036-.467.005-.682-.02-.01 0-.021-.011-.026-.016a.1.1 0 0 1-.026-.021.3.3 0 0 1-.048-.042c-.031-.031-.052-.073-.083-.104-.011-.01-.027-.02-.032-.031q-.014-.031-.021-.062c0-.006 0-.01-.005-.021q-.009-.006-.01-.021a.4.4 0 0 1-.064-.099c-.005-.01-.005-.026-.005-.036.005-.031-.01-.063-.02-.089l-.017-.072a.04.04 0 0 0-.01-.021q-.016-.022-.042-.037a2 2 0 0 0-.11-.114q-.024-.022-.047-.036c.01.005.015.02.026.03q.01.017.026.032.025.028.042.073c0 .01.01.026.016.036a.5.5 0 0 1 .047.213c.005.037.005.078.01.115 0 0 .027.01.032.01q.006.01.005.026.017.039.042.078l.016.031v.089c0 .01 0 .026-.005.036-.01.016-.032.026-.027.047-.02 0-.052.005-.073 0q-.007.001-.016-.005c-.036-.005-.068-.005-.105-.005a3 3 0 0 0-.204-.01c-.593-.037-1.185-.079-1.778-.115-.592-.037-1.185-.078-1.777-.115-.593-.036-1.185-.078-1.778-.114-.592-.036-1.185-.078-1.777-.114-.3-.021-.593-.037-.892-.058-.146-.01-.298-.02-.445-.026l-.22-.015c-.016 0-.215-.01-.215-.016v-.499l.005-.005.01-.01.016-.027c.016-.02.026-.036.042-.057.016-.02.037-.041.052-.062l.016-.026a.2.2 0 0 1 .037-.026c.016-.01.031-.016.047-.026a1 1 0 0 1 .1-.042q.039-.016.078-.01a.13.13 0 0 1 .058.031c.058.042.12.083.189.099.015.005.02-.01.031-.016a.4.4 0 0 1 .105-.072c.016-.01.032-.016.047-.026a.6.6 0 0 1 .2-.037.7.7 0 0 0-.158-.031c-.031 0-.063 0-.089.015l-.01.01c-.006.006-.016.011-.021.017l-.048.03c-.005 0-.005.006-.01.006q-.017.006-.026.02c-.006.006-.021.016-.032.016l-.026-.01c-.005-.005-.016-.005-.021-.01l-.042-.026c-.042-.032-.084-.073-.126-.11-.005-.005-.01-.005-.015-.01H5.96c-.016.005-.032.005-.048.01-.01 0-.015.006-.026.006H5.87c-.015 0-.031.005-.047.005l-.068.015a3 3 0 0 0-.2.052v-1.045c3.44.218 6.87.442 10.315.66zm-.98-17.81-.153-.213h-.068c-.01 0-.016-.01-.026-.01l-.158-.125a5 5 0 0 0-.325-.234 5 5 0 0 0-.697-.405c-.11-.01-.2-.063-.325-.14.136.02.23.036.325.051.325-.005.63.099.939.193.24.072.482.15.734.171.382.026.681.229.98.432.236.16.315.426.388.676.053.192-.131.275-.246.385v.02c0 .01.005.021.005.032.005.02.016.036.02.057.022.041.043.078.059.12q.014.03.02.062a.14.14 0 0 1 .006.067c0 .01-.016.021-.021.026a2 2 0 0 1-.1.12l.22-.073c.016-.015.027-.031.042-.041s.032-.026.048-.037c-.016-.01-.016-.015-.016-.031-.005-.02-.01-.047-.016-.068l-.016-.062c0-.01-.005-.02-.005-.031 0-.005-.01-.026-.005-.031.058-.115.183-.136.246-.208.388.026.603.228.713.577.142.442.179.91.31 1.352.225.79.084 1.57.026 2.355-.031.453.016.915-.073 1.363-.037.171-.08.332-.215.431-.048.192-.006.37-.016.546a.4.4 0 0 1-.11.13q-.057.054-.12.099l-.006.005c-.037.026-.079.052-.11.083l-.047.047c-.016.016-.037.026-.058.042q-.056.032-.11.072c-.01.01-.026.016-.032.032l-.02.02-.022.021q-.009.007-.01.016c0 .005.005.005.005.01.026.032.037.078.058.115.005.01.016.02.02.036q.008.006.006.02.015.032.016.063v.032c-.005.02.005.041-.01.057-.022.02-.048.041-.069.062a.1.1 0 0 1-.031.026c-.021.02-.047.037-.069.057-.005.005-.01.005-.01.01q-.008.01 0 .027l.047.348c0 .016.006.037.006.057q-.008.022-.006.052.002.072.01.136l.1-.484c.074-.135.257-.161.304-.296 0-.12-.11-.151-.146-.255.194-.14.393-.286.613-.447.005-.104.016-.23.021-.36.073.016.084.074.09.12.036.702.209 1.404.057 2.111-.052.255-.142.5-.173.755-.084.717.026 1.43.01 2.142-.01.359.037.723-.084 1.097-.524.27-1.053.515-1.625.785.026-.317.037-.598.068-.879.047-.452.026-.915.126-1.362.042-.192.026-.4-.02-.593-.163-.624-.158-1.248-.08-1.877.084-.686.063-1.378.074-2.07.01-.691.115-1.372.152-2.064.037-.723.1-1.45-.026-2.163-.1-.567-.262-1.123-.33-1.7-.053-.427-.268-.78-.604-1.056-.126-.104-.24-.213-.367-.322a1 1 0 0 1-.089-.083c-.005-.006-.01-.006-.01-.01-.01-.011-.01-.022-.016-.037zm2.757 14.212s.005.005.01.005c.006 0 .006 0 .011.005q.014.001.021.01.014.016.021.032c0 .015.005.031.005.052 0 .036.006.078 0 .114 0 .021 0 .037-.005.057v.021c0 .01.01.01.021.016.016.005.026.02.032.031.005.01.01.02.005.031a.04.04 0 0 1-.01.026c-.011.021-.027.031-.048.042a1 1 0 0 0-.136.073c-.42.218-.84.441-1.28.67a4 4 0 0 1-.272-.67c.582-.27 1.159-.541 1.74-.817.195.12.315.302.457.458-.079.088-.179.114-.278.161l-.032-.016-.036-.02c-.01-.006-.021-.016-.037-.016a.14.14 0 0 1-.047-.026q-.007-.006-.006-.02c-.005-.022-.01-.037-.01-.058a.4.4 0 0 0-.021-.073c-.005-.02-.016-.047-.02-.067zm.357 1.409v-.078c0-.016 0-.037.01-.052.006-.01.006-.016.01-.02 0-.006.006-.006.006-.011q.022-.039.052-.078a.5.5 0 0 0 .131-.37c.058-.041.116-.088.215-.083.037.51.01 1.04-.005 1.581-.66.39-1.321.78-2.008 1.18V19.56c.535-.281 1.064-.557 1.6-.832q.022.032.03.072c.006.016 0 .037 0 .052 0 .01-.005.016-.01.026 0 .006-.005.01-.01.021l-.021.021c-.01.005-.016.016-.026.026a.2.2 0 0 0-.027.037q-.009.006-.01.02a.04.04 0 0 0-.01.026c-.016.026-.032.058-.053.084-.01.01-.021.026-.021.041q-.001.007.005.016v.202c0 .037.005.068.005.105a.15.15 0 0 1-.02.083l-.016.015s-.005.006-.005.01c0 .006-.006.006-.011.011a.6.6 0 0 1-.131.104.3.3 0 0 0 .089-.026c.021-.01.042-.026.068-.036.005 0 .01-.01.021-.01h.005c.01-.016.016-.032.027-.053.005-.005.005-.015.01-.026l.01-.026c0-.005.006-.01.006-.015q.006-.032.02-.063c.006-.01.006-.02.011-.03 0-.006.006-.011.006-.022q-.001-.016.005-.026 0-.016.016-.026h.01z"/>
    <path stroke="#362745" stroke-miterlimit="10" stroke-width=".5" d="m14.89 3.633-.153-.214h-.068c-.01 0-.016-.01-.026-.01l-.158-.125a5 5 0 0 0-.325-.234 5 5 0 0 0-.697-.405c-.11-.01-.2-.063-.325-.14.136.02.23.036.325.051.325-.005.63.099.939.193.24.072.482.15.734.171.382.026.681.229.98.432.236.16.315.426.388.676.053.192-.131.275-.246.385v.02c0 .01.005.021.005.032.005.02.016.036.02.057.022.041.043.078.059.12q.014.03.02.062a.14.14 0 0 1 .006.067c0 .01-.016.021-.021.026a2 2 0 0 1-.1.12l.22-.073c.016-.015.027-.031.042-.041s.032-.026.048-.037c-.016-.01-.016-.015-.016-.031-.005-.02-.01-.047-.016-.068l-.016-.062c0-.01-.005-.02-.005-.031 0-.005-.01-.026-.005-.031.058-.115.183-.136.246-.208.388.026.603.228.713.577.142.442.179.91.31 1.352.225.79.084 1.57.026 2.355-.031.453.016.915-.073 1.363-.037.171-.08.332-.215.431-.048.192-.006.37-.016.546a.4.4 0 0 1-.11.13q-.057.054-.12.099l-.006.005c-.037.026-.079.052-.11.083l-.047.047c-.016.016-.037.026-.058.042q-.056.032-.11.072c-.01.01-.026.016-.032.032l-.02.02-.022.021q-.009.007-.01.016c0 .005.005.005.005.01.026.032.037.078.058.115.005.01.016.02.02.036q.008.006.006.02.015.032.016.063v.032c-.005.02.005.041-.01.057-.022.02-.048.041-.069.062a.1.1 0 0 1-.031.026c-.021.02-.047.037-.069.057-.005.005-.01.005-.01.01q-.008.01 0 .027l.047.348c0 .016.006.037.006.057q-.008.022-.006.052.002.072.01.136l.1-.484c.074-.135.257-.161.304-.296 0-.12-.11-.151-.146-.255.194-.14.393-.286.613-.447.005-.104.016-.23.021-.36.073.016.084.074.09.12.036.702.209 1.404.057 2.111-.052.255-.142.5-.173.755-.084.717.026 1.43.01 2.142-.01.359.037.723-.084 1.097-.524.27-1.053.515-1.625.785.026-.317.037-.598.068-.879.047-.452.026-.915.126-1.362.042-.192.026-.4-.02-.593-.163-.624-.158-1.248-.08-1.877.084-.686.063-1.378.074-2.07.01-.691.115-1.372.152-2.064.037-.723.1-1.45-.026-2.163-.1-.567-.262-1.123-.33-1.7-.053-.427-.268-.78-.604-1.056-.126-.104-.24-.213-.367-.322a1 1 0 0 1-.089-.083Zm0 0c-.006-.006-.011-.006-.011-.01-.01-.011-.01-.022-.016-.037zm2.841 14.232c.005.02.016.046.021.067a.4.4 0 0 1 .021.073c0 .02.005.036.01.057q-.002.014.006.021c.01.01.031.02.047.026.016 0 .026.01.037.016l.036.02.032.016c.1-.047.2-.073.278-.161-.142-.156-.262-.338-.456-.458-.583.276-1.16.546-1.741.817.078.244.157.457.272.67.44-.229.86-.452 1.28-.67q.064-.04.136-.073c.021-.01.037-.021.047-.042a.04.04 0 0 0 .01-.026c.006-.01 0-.02-.004-.031-.006-.01-.016-.026-.032-.031-.01-.005-.02-.005-.02-.016v-.02c.004-.021.004-.037.004-.058.006-.036 0-.078 0-.114 0-.021-.005-.037-.005-.052a.1.1 0 0 0-.02-.031q-.007-.01-.022-.01c-.005-.006-.005-.006-.01-.006-.006 0-.01-.005-.01-.005zm0 0-.11-.042m1.237.052c-.267-.213-.466-.489-.718-.728.016-.265.047-.504.047-.744-.005-.655.037-1.31-.015-1.965-.032-.4.078-.785.188-1.17.215-.733.095-1.487-.015-2.21a6.7 6.7 0 0 1-.053-1.524c.037-.447.042-.894.079-1.341.047-.635.105-1.259-.058-1.898-.141-.54-.173-1.108-.393-1.628-.173-.405-.173-.405-.708-1.107-.477-.5-.55-.505-.96-.749-.314-.187-.623-.364-1.006-.4-.488-.047-.939-.26-1.421-.338-.84-.136-1.668-.063-2.496.062-1.112.172-2.208.385-3.062 1.227-.404.4-.818.78-.991 1.337-.048.156-.152.29-.231.431-.362.608-.278.884-.33 1.674.031.058-.074.4-.11.494-.048.53-.053.193-.048.422.016.691.021 1.383.027 2.07.005.623.031 1.247-.084 1.86-.126.65-.116 1.306-.121 1.961 0 .146.005.297-.031.437-.11.489-.084.977-.058 1.466.037.666.005 1.326.084 2.007-.388.302-.771.604-1.159.895-.136.099-.215.208-.215.384.01.734.01 1.467.016 2.2 0 .198.094.307.299.322q1.422.085 2.836.177c1.227.078 2.449.151 3.676.229 1.39.088 2.779.182 4.169.27a.9.9 0 0 0 .524-.13 211 211 0 0 1 2.197-1.3c.178-.104.246-.239.246-.442.005-.64.021-1.279.037-1.913 0-.13-.026-.25-.142-.338ZM6.793 14.589c.063-.437.12-.869.11-1.31-.015-.573.053-1.134.137-1.696.115-.78.073-1.565.057-2.35-.005-.286-.01-.572-.005-.853q.001-.11.01-.218.01-.062.011-.13c0-.021.016-.037.032-.052.02-.026.047-.052.068-.078q.006-.008.02-.016.011-.001.022.005c.094.042.257.193.262.203 0 .005.189.146.189.15.005.006-.116.266-.116.276.226 0 .168-.072.352-.4.01-.02-.184-.15-.184-.177-.031-.031-.042-.073-.058-.109a.5.5 0 0 0-.068-.125c-.016-.02-.031-.036-.047-.057l-.047-.047a.05.05 0 0 1-.016-.036c-.005-.02-.016-.037-.02-.057a1 1 0 0 1-.059-.151q-.053-.15-.1-.307a7 7 0 0 0-.099-.312q-.03-.084-.063-.166c.037-.49.131-.957.456-1.352.074-.094.121-.213.158-.323.147-.478.472-.821.844-1.128.23-.192.44-.421.708-.551.005-.005.026.01.031.01l.032.016a.15.15 0 0 1 .047.052c.02.026.026.062.042.088.01.026.02.057.031.083.021.058.042.11.058.167.005.01.005.015.01.02 0 .006.006.01.006.01s.01.006.015.006c.021.005.042.016.063.02.006 0-.02.141-.02.152v.026c0 .02-.006.047-.006.067-.005.047-.005.094-.01.14 0 .016-.006.037 0 .053l.015.041c.042.084.063.396.063.396s.069-.177.063-.188c-.005-.015-.005-.026-.01-.041l-.016-.083-.016-.115c0-.015-.005-.026-.005-.041 0-.01-.005-.016 0-.026a.1.1 0 0 1 .021-.042c.005-.016.016-.031.021-.047 0 0 .031.005.037.01q.015.01.031.01a.2.2 0 0 1 .084.032.1.1 0 0 1 .032.02l.015.032q.039.104.084.208c.005.01.01.026.021.037a.1.1 0 0 0 .032.02c.068.042.141.084.21.125-.032-.052-.08-.093-.121-.145a.6.6 0 0 1-.12-.27q-.008-.032-.006-.063c-.053-.037-.105-.068-.157-.104-.021-.016-.048-.026-.063-.042a.04.04 0 0 1-.01-.026l-.017-.041c-.02-.058-.036-.115-.057-.167-.005-.015-.01-.036-.026-.041-.006-.006-.016-.006-.027-.01-.015-.011-.02-.032-.026-.048l-.016-.067a.2.2 0 0 1-.01-.057v-.021c-.005-.037-.016-.073-.016-.11a.45.45 0 0 1 .068-.27c1.6-.234 3.215-.426 4.62.796v.728c0 .02 0 .047-.01.067-.006.006-.006.01-.011.021q-.006.025-.021.042-.023.038-.053.083c-.02.031-.042.062-.052.099.005-.005.01-.005.016-.01l.016-.016a.2.2 0 0 1 .036-.026.4.4 0 0 0 .068-.057c.01-.01.016-.021.027-.037s.02-.041.031-.057a.14.14 0 0 0 .031-.068c.006-.01.011-.015.011-.026.005-.01.005-.02.01-.036l.016-.073c.021-.104.026-.208.042-.312.005-.041.016-.078.026-.12.436.339.887.635.95 1.228a8 8 0 0 0 .283 1.471c.042.14.078.286.078.432 0 .972.047 1.94-.11 2.907-.084.514-.079 1.05-.084 1.575 0 .562-.031 1.123-.084 1.68-.052.546-.052 1.086.084 1.617.074.28.026.561-.005.847-.063.557-.09 1.118-.126 1.68-.01.135-.005.276-.063.421-2.852-.156-5.7-.312-8.562-.473l-.01-.094-.017-.109a3 3 0 0 1-.02-.213c-.006-.073 0-.14.005-.208v-.026a.4.4 0 0 1 .01-.078l.016-.083c.016-.063.031-.125.058-.187.005-.01.005-.016.01-.026q.01-.008.026-.016l.404-.156c.016-.005.021-.026.032-.042q.013-.022.036-.046c.01-.01.026-.021.037-.032a.2.2 0 0 0 .042-.072c.02-.042.042-.089.058-.13l.026-.058q-.001-.007.005-.015c.016-.026.052-.047.073-.063a.6.6 0 0 0 .121-.124c-.042.02-.073.046-.115.072a.2.2 0 0 1-.058.026q-.006-.002-.021.006c-.005 0-.005.005-.005.005a.3.3 0 0 0-.032.041q-.03.048-.063.094-.039.053-.078.114c-.026.042-.042.084-.084.104q-.016.008-.042.016l-.399.13c-.026.01-.052.016-.078.036v-.052c.005-.026 0-.052.005-.072v-.104c0-.073-.005-.14-.005-.214-.006-.14-.016-.28-.021-.416a2.7 2.7 0 0 1-.01-.8Zm-.115 3.374c.073-.057.168-.041.252-.036 1.683.094 3.366.182 5.049.276q1.65.094 3.309.181c.052.006.104.016.162.021.105.208.189.421.252.681-3.214-.207-6.402-.41-9.648-.618.22-.219.43-.354.624-.505Zm9.192 3.479c-.236.036-.467.005-.682-.02-.01 0-.021-.011-.026-.016a.1.1 0 0 1-.026-.021.3.3 0 0 1-.048-.042c-.031-.031-.052-.073-.083-.104-.011-.01-.027-.02-.032-.031q-.014-.031-.021-.062c0-.006 0-.01-.005-.021q-.009-.006-.01-.021a.4.4 0 0 1-.064-.099c-.005-.01-.005-.026-.005-.036.005-.031-.01-.063-.02-.089l-.017-.072a.04.04 0 0 0-.01-.021q-.016-.022-.042-.037a2 2 0 0 0-.11-.114q-.024-.022-.047-.036c.01.005.015.02.026.03q.01.017.026.032.025.028.042.073c0 .01.01.026.016.036a.5.5 0 0 1 .047.213c.005.037.005.078.01.115 0 0 .027.01.032.01q.006.01.005.026.017.039.042.078l.016.031v.089c0 .01 0 .026-.005.036-.01.016-.032.026-.027.047-.02 0-.052.005-.073 0q-.007.001-.016-.005c-.036-.005-.068-.005-.105-.005a3 3 0 0 0-.204-.01c-.593-.037-1.185-.079-1.778-.115-.592-.037-1.185-.078-1.777-.115-.593-.036-1.185-.078-1.778-.114-.592-.036-1.185-.078-1.777-.114-.3-.021-.593-.037-.892-.058-.146-.01-.298-.02-.445-.026l-.22-.015c-.016 0-.215-.01-.215-.016v-.499l.005-.005.01-.01.016-.027c.016-.02.026-.036.042-.057.016-.02.037-.041.052-.062l.016-.026a.2.2 0 0 1 .037-.026c.016-.01.031-.016.047-.026a1 1 0 0 1 .1-.042q.039-.016.078-.01a.13.13 0 0 1 .058.031c.058.042.12.083.189.099.015.005.02-.01.031-.016a.4.4 0 0 1 .105-.072c.016-.01.032-.016.047-.026a.6.6 0 0 1 .2-.037.7.7 0 0 0-.158-.031c-.031 0-.063 0-.089.015l-.01.01c-.006.006-.016.011-.021.017l-.048.03c-.005 0-.005.006-.01.006q-.017.006-.026.02c-.006.006-.021.016-.032.016l-.026-.01c-.005-.005-.016-.005-.021-.01l-.042-.026c-.042-.032-.084-.073-.126-.11-.005-.005-.01-.005-.015-.01H5.96c-.016.005-.032.005-.048.01-.01 0-.015.006-.026.006H5.87c-.015 0-.031.005-.047.005l-.068.015a3 3 0 0 0-.2.052v-1.045c3.44.218 6.87.442 10.315.66zm2.134-2.19v-.077c0-.016 0-.037.01-.052.006-.01.006-.016.01-.02 0-.006.006-.006.006-.011q.022-.039.052-.078a.5.5 0 0 0 .131-.37c.058-.041.116-.088.215-.083.037.51.01 1.04-.005 1.581-.66.39-1.321.78-2.008 1.18V19.56c.535-.281 1.064-.557 1.6-.832q.022.032.03.072c.006.016 0 .037 0 .052 0 .01-.005.016-.01.026 0 .006-.005.01-.01.021l-.021.021c-.01.005-.016.016-.026.026a.2.2 0 0 0-.027.037q-.009.006-.01.02a.04.04 0 0 0-.01.026c-.016.026-.032.058-.053.084-.01.01-.021.026-.021.041q-.001.007.005.016v.202c0 .037.005.068.005.105a.15.15 0 0 1-.02.083l-.016.015s-.005.006-.005.01c0 .006-.006.006-.011.011a.6.6 0 0 1-.131.104.3.3 0 0 0 .089-.026c.021-.01.042-.026.068-.036.005 0 .01-.01.021-.01h.005c.01-.016.016-.032.027-.053.005-.005.005-.015.01-.026l.01-.026c0-.005.006-.01.006-.015q.006-.032.02-.063c.006-.01.006-.02.011-.03 0-.006.006-.011.006-.022q-.001-.016.005-.026 0-.016.016-.026h.01z"/>
    <path fill="#6B00FA" stroke="#362745" stroke-miterlimit="10" stroke-width=".5" d="M12.016 10.169a.7.7 0 0 0-.048.65c.027.062.063.12.121.156.115.067.262.005.383-.057.157-.084.32-.182.383-.349a.47.47 0 0 0-.032-.374.7.7 0 0 0-.131-.193c-.037-.036-.068-.083-.126-.088a.58.58 0 0 0-.55.255Zm-2.386.036a.54.54 0 0 0-.079.234c-.01.14.058.27.12.395a.2.2 0 0 0 .048.068c.02.016.047.02.073.026a.78.78 0 0 0 .703-.27.5.5 0 0 0 .073-.13.6.6 0 0 0 .016-.219c-.005-.104-.016-.223-.094-.296a.4.4 0 0 0-.131-.083 1.3 1.3 0 0 0-.19-.089.3.3 0 0 0-.146.02.7.7 0 0 0-.283.193c-.021.026-.042.047-.063.073-.01.016-.021.026-.026.042-.005.005-.01.026-.021.036Z"/>
    <path fill="#362745" d="M9.965 11.074a.72.72 0 0 1-.723-.718c0-.395.325-.718.723-.718.399 0 .724.323.724.718a.72.72 0 0 1-.724.717m0-1.228a.513.513 0 0 0-.514.51c0 .28.231.51.514.51a.51.51 0 0 0 .514-.51c0-.28-.23-.51-.514-.51m2.329 1.281a.72.72 0 0 1-.724-.718c0-.395.325-.718.723-.718.399 0 .724.323.724.718a.72.72 0 0 1-.723.718m0-1.228a.513.513 0 0 0-.514.51c0 .28.23.51.514.51a.513.513 0 0 0 .513-.51c0-.28-.23-.51-.514-.51"/>
    <path fill="#362745" d="M9.63 10.819c-.074-.11-.252-.234-.252-.36 0-.368.178-.665.55-.665h.284c.042.042.084.078.115.12a.565.565 0 0 0-.703.546c0 .15.058.286.158.39zm2.496.093c-.053-.005-.336-.114-.388-.124-.074-.11 0-.515 0-.65 0-.354.43-.317.781-.338l.105.156a.565.565 0 0 0-.671.551.6.6 0 0 0 .173.405"/>
</svg>
