<svg xmlns="http://www.w3.org/2000/svg" width="24" height="24" fill="none" viewBox="0 0 24 24">
    <path fill="url(#ultron__a)" d="M6.182 11.997c0 2.07-.937 3.747-2.09 3.747S2 14.067 2 11.997 2.937 8.25 4.09 8.25s2.09 1.677 2.09 3.747m1.921 0c0 .67-.095 1.337-.29 1.942a6.6 6.6 0 0 1-.808 1.665c-.21.313-.662 1.01-.282 1.278a.65.65 0 0 0 .273.095c.736.104 1.413-.355 1.91-.822a5.6 5.6 0 0 0 1.278-1.787 5.85 5.85 0 0 0 0-4.736 5.6 5.6 0 0 0-1.278-1.787c-.497-.467-1.177-.926-1.91-.822a.65.65 0 0 0-.273.095c-.383.268.072.965.282 1.278.347.515.62 1.078.808 1.665.195.605.29 1.272.29 1.942m4.512 0c0 .858-.126 1.716-.374 2.487a8.6 8.6 0 0 1-1.036 2.132c-.27.4-.85 1.293-.36 1.636a.8.8 0 0 0 .348.122c.943.134 1.811-.456 2.449-1.055a7.2 7.2 0 0 0 1.637-2.287c.845-1.882.848-4.179 0-6.07a7.2 7.2 0 0 0-1.637-2.287c-.638-.6-1.506-1.189-2.45-1.055a.75.75 0 0 0-.346.122c-.491.343.09 1.236.359 1.635a8.6 8.6 0 0 1 1.036 2.133c.248.771.374 1.63.374 2.487m5.248 0c0 1.072-.156 2.144-.467 3.11a10.7 10.7 0 0 1-1.293 2.665c-.336.5-1.06 1.617-.45 2.046.105.072.246.125.435.152 1.18.167 2.263-.569 3.062-1.32a9 9 0 0 0 2.048-2.861 9.36 9.36 0 0 0 0-7.59 9 9 0 0 0-2.048-2.862c-.796-.75-1.883-1.486-3.06-1.32a1 1 0 0 0-.433.153c-.614.429.113 1.546.449 2.046.554.828.99 1.727 1.293 2.666.311.965.467 2.037.467 3.109"/>
    <defs>
        <linearGradient id="ultron__a" x1="2" x2="22" y1="12" y2="12" gradientUnits="userSpaceOnUse">
            <stop stop-color="#1FFFA3"/>
            <stop offset="1" stop-color="#8C47F5"/>
        </linearGradient>
    </defs>
</svg>
