<svg xmlns="http://www.w3.org/2000/svg" width="24" height="24" fill="none" viewBox="0 0 24 24"><path fill="#EA8397" d="M10.865 4.286c-2.615 0-2.443 3.154-2.027 4.735-3.043-1.791-4.633-.75-4.548 2.135.069 2.31 2.113 3.098 3.129 3.205-.814.343-.986 4.62 1.796 4.907 2.224.232 3.553-1.868 3.943-2.944 1.32 1.089 4.285 2.76 5.588.75 1.294-2.01-.043-4.226-.87-5.083.754-.304 1.98-1.521.87-3.925-1.114-2.4-3.806-1.213-5.014-.318.137-1.157-.249-3.462-2.867-3.462"/><path fill="#D26B7F" d="M11.285 10.2c.137-1.337-.373-3.621-.643-4.594.728.865.977 3.308 1.011 4.422-.18.618-.51 1.513-.368.172m6.043-1.641c-1.895-.206-3.45 1.307-3.99 2.087l.098.231a6.4 6.4 0 0 1 3.892-2.318M7.286 10.646a1.93 1.93 0 0 0-1.868.63c.758-.232.625-.18 1.487-.279.685-.081 2.143.566 2.734.874l.15-.197a8.5 8.5 0 0 0-2.507-1.028zm1.2 6.36c.969-.382 2.049-2.323 2.464-3.245l.249.129c-1.294 2.601-2.344 3.163-2.709 3.116zm4.95-3.819v-.381a15.3 15.3 0 0 1 4.14 2.653v.248c-1.294-1.187-3.3-2.177-4.14-2.52"/><path fill="#977849" d="M11.786 14.571a2.357 2.357 0 1 0 0-4.714 2.357 2.357 0 0 0 0 4.714"/><path fill="#FEECAC" d="M11.786 14.143a2.357 2.357 0 1 0 0-4.715 2.357 2.357 0 0 0 0 4.715"/></svg>