<svg xmlns="http://www.w3.org/2000/svg" width="24" height="24" fill="none" viewBox="0 0 24 24"><path fill="#58BE92" d="M15.978 7.813c-.588-1.504-2.075-1.641-3.81-1.299l-.613-2.164-1.316.382.604 2.087-1.045.317-.605-2.113-1.303.381.613 2.143-.835.257V7.8l-1.805.514.399 1.398s.964-.3.956-.275c.527-.154.788.107.917.36l.703 2.447.141-.021-.141.038.985 3.438c.026.171 0 .463-.364.57.017.008-.956.278-.956.278l.189 1.637 1.701-.488.943-.262.626 2.173 1.298-.377-.608-2.147 1.046-.291.612 2.142 1.316-.377L15 16.384c2.165-.758 3.549-1.757 3.15-3.878-.325-1.706-1.324-2.229-2.657-2.165.643-.612.922-1.422.493-2.528zm-.489 5.186c.459 1.628-2.374 2.237-3.257 2.498l-.827-2.884c.887-.257 3.595-1.307 4.084.386m-1.774-3.905c.42 1.488-1.955 1.976-2.696 2.19l-.75-2.614c.741-.21 3-1.114 3.446.433z"/></svg>