<svg xmlns="http://www.w3.org/2000/svg" width="24" height="24" fill="none" viewBox="0 0 24 24"><path fill="url(#BUY__a)" d="M19.285 12.643a7.072 7.072 0 1 1-14.142.214v-6a1.286 1.286 0 0 1 1.285-1.285h5.786a7.07 7.07 0 0 1 7.071 7.071M7.714 7.547c0-.343-.3-.69-.643-.69-.338 0-.643.343-.643.69v5.713c0 .9.617 2.177 1.513 3.214a5.38 5.38 0 0 0 4.102 1.955c2.164 0 3.672-.827 4.628-1.972a5.83 5.83 0 0 0 1.324-3.647c0-1.119-.39-2.563-1.272-3.741A5.21 5.21 0 0 0 12.437 6.9c-.343 0-.617.326-.617.673 0 .343.274.621.617.621 1.551 0 2.614.708 3.308 1.629.627.872.966 1.918.969 2.991 0 .862-.244 1.963-.973 2.838-.711.848-1.873 1.491-3.69 1.491a4.13 4.13 0 0 1-3.188-1.492c-.759-.882-1.149-1.877-1.149-2.39zm2.571 0c0-.343-.3-.69-.638-.69-.339 0-.647.343-.647.69v5.267c0 1.179 1.14 2.893 3.244 2.893 1.753 0 3.184-1.315 3.184-3.086a3.09 3.09 0 0 0-2.987-2.995.62.62 0 0 0-.617.626c0 .342.274.625.617.625.9 0 1.702.836 1.702 1.744 0 1.102-.823 1.84-1.899 1.84-1.277 0-1.959-.995-1.959-1.647z"/><defs><linearGradient id="BUY__a" x1="12.214" x2="12.214" y1="5.572" y2="19.714" gradientUnits="userSpaceOnUse"><stop stop-color="#FADB67"/><stop offset=".98" stop-color="#E15015"/></linearGradient></defs></svg>