<svg xmlns="http://www.w3.org/2000/svg" width="24" height="24" fill="none" viewBox="0 0 24 24"><path fill="#0A0000" fill-rule="evenodd" d="M12 9.857a3.428 3.428 0 1 1-6.857 0 3.428 3.428 0 0 1 6.857 0m-1.286 0a2.143 2.143 0 1 1-4.286 0 2.143 2.143 0 0 1 4.286 0m-3.857 4.286H5.57a3 3 0 0 0 6 0h-1.286a1.714 1.714 0 0 1-3.428 0m2.571-4.286a.857.857 0 1 1-1.071-.831V8.57h.428v.455a.86.86 0 0 1 .643.831m6 .429a3.429 3.429 0 1 1 0 6.857 3.429 3.429 0 0 1 0-6.857m0 1.285a2.143 2.143 0 1 1 0 4.286 2.143 2.143 0 0 1 0-4.286m.857 2.143a.856.856 0 1 0-1.071.832V15h.429v-.454a.86.86 0 0 0 .642-.832m-.857-7.286a3 3 0 0 1 2.713 4.278 4 4 0 0 0-1.097-.708 1.714 1.714 0 1 0-3.231 0 4 4 0 0 0-1.098.708 3 3 0 0 1 2.713-4.278" clip-rule="evenodd"/></svg>