<svg xmlns="http://www.w3.org/2000/svg" width="24" height="24" fill="none" viewBox="0 0 24 24"><path fill="#fff" d="M18.356 5.572H6.626l-.849.54 5.975 12.878.668.724z"/><path fill="#CD0124" d="M13.8 12.583c0-.15 0-.227-.128-.3-.459-.377-.986-.755-1.44-1.132a.27.27 0 0 0-.163-.06.27.27 0 0 0-.163.06l-1.444 1.205a.4.4 0 0 0-.146.158.5.5 0 0 0-.051.219.84.84 0 0 1-.129.454.38.38 0 0 0 0 .377l2.096 4.924 1.77-4.774c.064-.15.064-.227-.069-.3a1.14 1.14 0 0 1-.128-.831zm-2.25-2.096L7.36 7.341l-.073.077c.073.155.073.232.142.386l1.495 3.45c.142.305.215.613.639.69a.58.58 0 0 0 .356-.077zm.45-.621a.33.33 0 0 0 .373 0c1.419-1.098 2.837-2.113 4.183-3.215.073-.073.15-.073.15-.154v-.069H7.295a.53.53 0 0 1 .223.15zm.746.621 1.702 1.226c.141.077.355 0 .565 0 .073 0 .142-.15.142-.227.497-1.23.994-2.533 1.487-3.763 0-.073.073-.15.073-.227h-.073z"/><path fill="#fff" d="M9.12 13.727a.977.977 0 0 0 .964-.99.977.977 0 0 0-.964-.99.977.977 0 0 0-.965.99c0 .547.432.99.965.99M15.008 13.727a.977.977 0 0 0 .965-.99.977.977 0 0 0-.965-.99.977.977 0 0 0-.964.99c0 .547.432.99.964.99M6.214 7.286a1.071 1.071 0 1 0 0-2.143 1.071 1.071 0 0 0 0 2.143M17.785 7.286a1.071 1.071 0 1 0 0-2.143 1.071 1.071 0 0 0 0 2.143M12.214 20.571a1.071 1.071 0 1 0 0-2.143 1.071 1.071 0 0 0 0 2.143"/></svg>