<svg xmlns="http://www.w3.org/2000/svg" width="24" height="24" fill="none" viewBox="0 0 24 24"><path fill="url(#D2T__a)" d="M12 18.857a6.857 6.857 0 1 0 0-13.714 6.857 6.857 0 0 0 0 13.714"/><path fill="#37C0D2" d="M6.557 16.17A6.83 6.83 0 0 1 5.143 12a6.83 6.83 0 0 1 1.371-4.114h1.86c.446.03 1.474.137 2.023.36.021-.215.171-.695.608-.866.549-.214.738-.214 1.792-.214.578 0 1.054.03 1.483.055.355.022.685.043 1.011.043.579 0 1.072-.193 1.243-.291A1.76 1.76 0 0 1 15.163 8c-.215.035-.45.06-.686.086-.87.099-1.74.193-1.83.617-.09.429.18.986.33 1.217.171.3.488 1.02.407 1.526a5 5 0 0 1-.111.557.5.5 0 0 0-.022.202c.013.128.364 1.311.54 1.885.086.099.279.335.369.498.115.201.223.535-.073 1.2-.3.668-1.007 1.191-1.642 1.191-.39 0-.582-.24-.745-.45-.103-.129-.197-.244-.322-.287-.068-.026-.193-.047-.36-.077-.638-.12-1.851-.343-2.473-1.093-.424.171-1.362.621-1.988 1.097"/><defs><linearGradient id="D2T__a" x1="12" x2="12" y1="5.143" y2="18.857" gradientUnits="userSpaceOnUse"><stop stop-color="#0B2E30"/><stop offset="1"/></linearGradient></defs></svg>