<svg xmlns="http://www.w3.org/2000/svg" width="24" height="24" fill="none" viewBox="0 0 24 24"><path fill="#46B5E0" d="m5.155 9.652.399 4.19 2.16 3.704 1.341-1.659-1.727-5.395z"/><path fill="#0196DA" d="m18.827 9.652-.394 4.19-2.16 3.704-1.359-1.672 1.744-5.382z"/><path fill="#87C9EB" d="M14.854 15.943H9.201L7.868 17.61l4.205 1.247 4.071-1.247z"/><path fill="#E3F4FC" d="M7.315 10.324 5.143 9.54 8.04 6.37l3.9-1.655v2.358L7.31 10.324z"/><path fill="#82CEF0" d="m16.684 10.324 2.173-.784L15.96 6.37l-3.9-1.655v2.358l4.628 3.252z"/><path fill="#B9E2FE" fill-rule="evenodd" d="m16.568 10.56-4.56-3.274-4.56 3.274 1.74 5.297h5.64l1.745-5.297zm-8.04 2.576 3.48 2.554 3.48-2.554L14.16 9H9.857z" clip-rule="evenodd"/></svg>