<svg xmlns="http://www.w3.org/2000/svg" width="24" height="24" fill="none" viewBox="0 0 24 24"><path fill="#0B8BB1" d="M10.68 5.79c.179.513.664.91 1.254.91.6 0 1.09-.412 1.261-.936.113-.346.432-.704.782-.604a7 7 0 0 1 1.47.607c.314.173.292.638.128.957a1.327 1.327 0 0 0 1.77 1.794c.322-.158.788-.174.956.142q.334.625.537 1.303c.105.349-.251.672-.596.788-.52.174-.924.66-.924 1.255s.405 1.081.924 1.256c.345.116.7.438.596.787-.152.508-.36.997-.621 1.458-.173.304-.621.287-.935.13a1.328 1.328 0 0 0-1.8 1.745c.149.317.153.766-.157.929a7 7 0 0 1-1.302.528c-.338.1-.651-.23-.77-.561a1.34 1.34 0 0 0-1.25-.895c-.581 0-1.066.388-1.249.895-.12.33-.433.66-.77.561a7 7 0 0 1-1.49-.63c-.285-.162-.291-.564-.163-.865a1.328 1.328 0 0 0-1.725-1.748c-.303.124-.706.112-.863-.175a7 7 0 0 1-.582-1.398c-.1-.338.23-.65.562-.77a1.34 1.34 0 0 0 .896-1.247 1.34 1.34 0 0 0-.896-1.247c-.332-.12-.662-.432-.562-.77q.196-.661.514-1.271c.158-.303.59-.31.904-.173a1.329 1.329 0 0 0 1.724-1.798c-.15-.307-.163-.738.133-.91a7 7 0 0 1 1.45-.634c.348-.108.675.244.794.587m1.324 10.616a4.403 4.403 0 0 0 4.405-4.4c0-2.43-1.972-4.399-4.405-4.399a4.4 4.4 0 0 0-4.406 4.4c0 2.429 1.972 4.399 4.406 4.399"/><path fill="#888" d="M13.578 9.06a.26.26 0 0 0 .245.178.26.26 0 0 0 .246-.183c.022-.067.085-.137.153-.118q.151.045.287.12c.061.033.057.123.025.186a.259.259 0 0 0 .346.35c.063-.03.153-.033.186.028q.065.12.105.255c.02.069-.05.132-.116.154a.26.26 0 0 0-.18.246c0 .116.078.211.18.245.067.023.137.086.116.154q-.046.15-.121.285c-.034.06-.121.056-.183.026a.26.26 0 0 0-.351.341c.029.062.03.15-.031.181a1.4 1.4 0 0 1-.254.104c-.066.02-.127-.045-.15-.11a.26.26 0 0 0-.244-.175.26.26 0 0 0-.244.175c-.023.065-.085.13-.15.11a1.4 1.4 0 0 1-.292-.124c-.055-.031-.056-.11-.031-.169a.26.26 0 0 0-.337-.341c-.06.024-.138.021-.169-.034a1.4 1.4 0 0 1-.113-.274c-.02-.066.045-.127.11-.15a.26.26 0 0 0 .174-.245.26.26 0 0 0-.175-.243c-.064-.024-.129-.084-.11-.15q.04-.13.101-.25c.03-.059.116-.06.177-.033a.26.26 0 0 0 .336-.352c-.03-.06-.032-.144.026-.178a1.4 1.4 0 0 1 .283-.123c.068-.022.132.047.155.114m.256 1.913a.7.7 0 0 0 .668-.972.698.698 0 1 0-.668.972M9.18 9.968a.26.26 0 0 0 .245.178.26.26 0 0 0 .246-.183c.022-.068.084-.138.153-.118q.151.044.287.119c.061.034.057.124.025.187a.259.259 0 0 0 .345.35c.063-.03.154-.034.187.029q.064.12.105.254c.02.068-.05.131-.117.154a.26.26 0 0 0-.18.245c0 .117.08.212.18.246.068.023.137.086.117.154q-.045.15-.121.285c-.034.06-.122.056-.183.026a.259.259 0 0 0-.351.34c.029.063.03.15-.03.182q-.122.064-.255.103c-.066.02-.127-.045-.15-.11a.26.26 0 0 0-.245-.174.26.26 0 0 0-.244.175c-.023.064-.084.13-.15.11a1.4 1.4 0 0 1-.291-.124c-.056-.031-.057-.11-.032-.169a.259.259 0 0 0-.337-.341c-.059.024-.137.02-.168-.035a1.4 1.4 0 0 1-.114-.273c-.019-.066.045-.127.11-.15a.26.26 0 0 0 .175-.245.26.26 0 0 0-.175-.244c-.065-.023-.129-.084-.11-.15q.04-.13.1-.248c.032-.06.116-.06.177-.034a.26.26 0 0 0 .337-.352c-.03-.06-.032-.144.026-.177a1.4 1.4 0 0 1 .283-.125c.068-.02.132.048.155.115m.256 1.912a.698.698 0 1 0 .049-1.396.698.698 0 0 0-.049 1.396m1.07 1.23a.26.26 0 0 0 .245.178.26.26 0 0 0 .246-.183c.023-.068.085-.137.153-.118q.152.044.287.12c.061.033.057.123.025.186a.26.26 0 0 0 .346.35c.063-.03.154-.033.186.028q.065.12.105.255c.02.069-.049.131-.116.155a.26.26 0 0 0-.18.245.26.26 0 0 0 .18.245c.067.023.137.086.116.154q-.045.15-.121.285c-.034.06-.121.056-.183.026a.259.259 0 0 0-.351.341c.03.062.03.15-.03.181a1.4 1.4 0 0 1-.255.104c-.066.02-.127-.045-.15-.11a.26.26 0 0 0-.244-.175.26.26 0 0 0-.244.175c-.023.065-.085.13-.15.11a1.4 1.4 0 0 1-.292-.124c-.055-.031-.056-.11-.031-.169a.259.259 0 0 0-.337-.341c-.06.024-.138.021-.169-.035a1.4 1.4 0 0 1-.113-.273c-.02-.066.045-.127.11-.15a.26.26 0 0 0 .174-.244.26.26 0 0 0-.174-.245c-.065-.023-.13-.083-.11-.15q.038-.129.1-.248c.031-.06.116-.06.177-.034a.26.26 0 0 0 .336-.351c-.029-.06-.032-.145.026-.178q.135-.079.283-.124c.069-.021.132.047.156.114m.257 1.913a.7.7 0 0 0 .274-1.35.698.698 0 1 0-.274 1.35"/><path fill="#0B8BB1" d="m12.302 10.608-1.291.28-.03-.137 1.292-.28zm-2.172 2.337-.175-.349.125-.062.175.349zm2.84-1.455-1.29 1.676-.111-.085 1.291-1.676z"/></svg>