<svg xmlns="http://www.w3.org/2000/svg" width="24" height="24" fill="none" viewBox="0 0 24 24"><path fill="#523B97" d="M7.333 5.177a7.68 7.68 0 0 1 5.94 1.972 6.526 6.526 0 0 1 0 9.698 7.68 7.68 0 0 1-5.94 1.976.05.05 0 0 1-.047-.047c0-.026.022-.047.047-.052 1.672-.154 3.429-.835 4.612-1.937C13.316 15.51 14.143 13.8 14.143 12s-.827-3.497-2.198-4.774C10.762 6.124 9 5.426 7.333 5.27a.043.043 0 0 1-.047-.042c0-.026.022-.052.047-.052"/><path fill="#523B97" d="M17.315 10.286H8.799c-.064 0-.214.158-.227.403-.009.244.137.454.227.454h8.516c.094 0 .257-.184.257-.454s-.146-.403-.257-.403m0 2.571H8.799c-.064 0-.214.159-.227.403-.009.244.137.454.227.454h8.516c.094 0 .257-.184.257-.454s-.146-.403-.257-.403"/></svg>