<svg xmlns="http://www.w3.org/2000/svg" width="24" height="24" fill="none" viewBox="0 0 24 24"><path fill="#73F" d="M8.927 8.387a.13.13 0 0 0 .171.09l6.287-1.62c.15-.034.133-.244-.025-.257L8.46 6c-.099-.004-.172.077-.146.163l.613 2.229zm.63 3.96L8.64 9.052l-.12-.429-.493-1.753c-.035-.128-.223-.128-.262 0L6 13.187c-.026.099.064.189.171.163l3.287-.844c.069-.013.112-.086.094-.159zm7.131-5.365a.47.47 0 0 1 .51.201l1.642 2.743c.042.068.004.167-.086.193l-8.58 2.198a.13.13 0 0 1-.106-.006.13.13 0 0 1-.066-.084l-.878-3.163c-.026-.072.017-.145.094-.162zm-6.943 6.047a.13.13 0 0 0-.171-.086l-3.287.844c-.099.022-.137.15-.065.215l4.835 4.684c.102.094.265.004.235-.129L9.75 13.033zm.54-.279 8.186-2.108c.133-.03.227.111.146.214l-6.558 7.954c-.068.086-.205.052-.24-.051l-1.628-5.846c-.026-.069.021-.141.094-.163"/></svg>