<svg xmlns="http://www.w3.org/2000/svg" width="24" height="24" fill="none" viewBox="0 0 24 24"><path fill="url(#ITP__a)" d="M12 18.857a6.857 6.857 0 1 0 0-13.714 6.857 6.857 0 0 0 0 13.714"/><path fill="url(#ITP__b)" d="M18.188 14.957A6.835 6.835 0 0 0 16.77 7.08c-.253.381-.48.922-.056 1.063.171.06.317.086.429.107.3.056.368.069.214.536-.214.643-.214.643-.643.428-.429-.214-.857-.214-.643.429.056.163.107.27.146.343.034.068.056.111.043.137-.013.034-.077.043-.223.077a6 6 0 0 0-.394.086c-.858.214-1.072.428-1.072.643 0 .072-.026.094-.047.12-.047.043-.094.094.047.523.112.33.39.492.579.6.18.098.27.154.064.257-.257.128-.356.102-.536.064a2 2 0 0 0-.535-.064c-.258 0-.446-.103-.622-.202-.261-.141-.493-.27-.878-.013a7 7 0 0 1-.429.266c-.3.18-.369.223-.214.377.073.073.047.12.025.167-.051.095-.098.189.618.476q.32.13.642.257c.69.266 1.119.433 1.286.6.073.073.12.167.167.262.095.193.189.381.476.381.429 0 .857 0 1.071.214.215.215.429.429.858.215.128-.065.214-.146.3-.228.171-.158.33-.3.745-.248zm-.685 1.136a.88.88 0 0 0-.575-.236c-.347 0-.445 0-.527-.034a3 3 0 0 0-.33-.18c-.428-.214-.857-.214-.857.214 0 .197.094.352.171.48.086.146.159.262.043.377-.081.082-.253.069-.42.06-.287-.017-.57-.034-.437.369l.082.266c.085.308.171.587.394.737a6.9 6.9 0 0 0 2.456-2.053m-12.36-3.827V12c0-2.091.934-3.96 2.408-5.22.287.249.579.591.806.934.261.39.206.467.171.515-.025.025-.043.043.043.128.137.137.446.099.823.056.214-.026.446-.056.677-.056.643 0 0 .429-.643.643-.377.129-.313.472-.235.87.051.279.111.579.021.844-.064.193-.129.309-.171.39-.112.202-.129.232.171.682.249.368.21.527.171.677-.021.107-.047.214.043.394.146.292.095.287-.163.253a3.4 3.4 0 0 0-.48-.038c-.355 0-.642-.13-.9-.25-.214-.093-.407-.18-.6-.18-.162 0-.291-.09-.441-.192-.24-.171-.527-.368-1.059-.236-.244.06-.458.069-.638.052z"/><path fill="#DCDEF2" d="M18.193 14.953a8 8 0 0 1-.335.617l-.094.051a4 4 0 0 1-.407.236c-.309.155-.617.086-.844.039a1 1 0 0 0-.228-.039c-.107 0-.162-.107-.214-.214-.056-.107-.107-.214-.214-.214-.214 0-.643.428-.643.643 0 .214 0 .642-.214.214a2 2 0 0 0-.163-.266c-.12-.18-.15-.223.163-.377.428-.214 0-.214-.429-.214-.343 0-.57-.429-.643-.643.15-.3.407-.18.772-.005.154.073.325.155.514.22.321.106.484.106.617.106s.24 0 .454.107c.266.129.202.185.116.253-.051.043-.116.095-.116.176 0 .214.643 0 1.072-.429a1.02 1.02 0 0 1 .836-.261m-4.05-8.739c0 .142.085.429.428.429.163 0 .36.064.527.116.266.085.463.15.33-.116a2 2 0 0 1-.098-.214C15.2 6.14 15.137 6 14.785 6c-.15 0-.27-.051-.368-.09-.184-.077-.274-.116-.274.304m-5.358 0c.142.215.472.643.643.643.215 0 .643 0 1.072.215.428.214.643 0 .857-.215.086-.086.193-.128.291-.176.159-.068.27-.12.137-.252a.4.4 0 0 1-.115-.236c-.03-.111-.047-.193-.313-.193-.189 0-.292.086-.386.159-.128.094-.231.175-.471.055-.142-.073-.215-.12-.262-.15-.03-.021-.047-.034-.073-.043-.047-.02-.107-.02-.308-.02a2 2 0 0 1-.33-.03c-.304-.04-.583-.074-.742.243M9 9.857c0 .172-.57.073-.857 0-.215-.214.214-.428.428-.428A.46.46 0 0 1 9 9.857M6.643 9c.072.073.257.172.428 0 .103-.103.399-.154.677-.206.313-.055.609-.111.609-.223 0-.128-.163-.102-.39-.06-.142.03-.3.06-.467.06-.429 0-.857.215-.857.43m-.429 1.286c-.343.171-.429-.073-.429-.214.266 0 .283-.086.313-.193a.4.4 0 0 1 .116-.236c.214-.214.214.214.214.428 0 .108.056.108.056.108s-.056 0-.27.107m1.5 1.286c.214-.288.686-.815.857-.643.214.214-.643 1.071-.857.643m-1.286 1.07c.343.172 0 .357-.214.43-.124.05-.214 0-.214-.215 0-.214 0-.428.428-.214"/><path fill="url(#ITP__c)" d="M7.954 6.463c.129.103.33.18.617.18h1.286c-.214 0-1.5-.429-.643-.643.446-.111.484-.051.544.034.052.082.116.18.527.18.365 0 .609-.077.793-.128.245-.082.369-.12.493.128.129.257.103.283.013.356-.06.051-.141.12-.227.287-.142.287-.476.382-.81.476a2.4 2.4 0 0 0-.472.167c-.128.064-.274.107-.394.146-.287.085-.428.128.176.283.317.077.484.188.617.27.227.141.343.214.883-.056.428-.214.591-.377.724-.51s.24-.24.562-.347c.351-.116.317-.236.287-.352-.026-.098-.052-.192.141-.291.227-.116.394-.043.536.009.12.05.223.09.321-.01.107-.106.107-.162.107-.24 0-.08 0-.188.108-.402.081-.163.197-.3.312-.403a6.84 6.84 0 0 0-6.501.866m7.209 11.623a6.86 6.86 0 0 1-9.438-3.313c.318-.463.785-.943 1.346-1.059.716-.072 2.186-.214 2.357-.214.073 0 .142.026.24.056.189.064.472.158 1.046.158.3 0 .583-.055.84-.103.471-.094.887-.17 1.303.103.296.197.814.348 1.247.472.514.154.913.27.686.386-.215.107-.326.107-.429.107-.111 0-.214 0-.428.107-.202.098-.129.24-.052.386.086.175.18.355-.167.47-.287.095-.489-.02-.664-.128-.215-.124-.386-.227-.622.129a5 5 0 0 1-.343.446c-.312.385-.514.625.129.625.244 0 .437.018.6.035.416.034.656.055 1.114-.249.3-.197.455-.441.562-.6.128-.193.18-.274.3-.043.214.429.428.643.643.857.102.108.051.108-.138.108-.188 0-.51 0-.938.107-.253.064-.502.107-.712.145-.501.086-.75.129-.145.283.475.12.621.24.771.356.112.098.227.193.514.287.129.043.258.069.378.086"/><defs><linearGradient id="ITP__a" x1="6.857" x2="15.432" y1="7.713" y2="17.358" gradientUnits="userSpaceOnUse"><stop stop-color="#51307F"/><stop offset=".43" stop-color="#221B3A"/><stop offset="1" stop-color="#855B9A"/></linearGradient><linearGradient id="ITP__b" x1="12" x2="18.791" y1="5.14" y2="15.538" gradientUnits="userSpaceOnUse"><stop stop-color="#51307F"/><stop offset=".15" stop-color="#56285D"/><stop offset=".48" stop-color="#47193D"/><stop offset=".71" stop-color="#8D1872"/><stop offset=".91" stop-color="#C56CDC"/><stop offset="1" stop-color="#DA25D7"/></linearGradient><linearGradient id="ITP__c" x1="12.857" x2="10.603" y1="5.357" y2="18.857" gradientUnits="userSpaceOnUse"><stop stop-color="#5277C5"/><stop offset=".13" stop-color="#1545A0"/><stop offset=".17" stop-color="#393381"/><stop offset=".56" stop-color="#1545A0"/><stop offset=".72" stop-color="#4AFAFB"/><stop offset=".87" stop-color="#136AC4"/><stop offset=".94" stop-color="#25A3E3"/><stop offset="1" stop-color="#4AFAFB"/></linearGradient></defs></svg>