<svg xmlns="http://www.w3.org/2000/svg" width="24" height="24" fill="none" viewBox="0 0 24 24"><path fill="#621EFD" d="M4.286 6.857H6v5.1l2.323-2.529h1.963l-2.751 3 2.751 3H8.323L6 12.895v2.533H4.286zM19.286 15.857a1.286 1.286 0 1 0 0-2.571 1.286 1.286 0 0 0 0 2.57"/><path fill="#621EFD" fill-rule="evenodd" d="M17.143 15.857v-3.214c0-1.072-.617-3.215-3.085-3.215-2.756 0-3.343 2.439-3.343 3.215 0 .925.514 3.214 2.901 3.214 1.397 0 1.774-1.033 1.813-1.183v1.183zm-3.214-1.714a1.5 1.5 0 1 0 0-3 1.5 1.5 0 0 0 0 3" clip-rule="evenodd"/></svg>