<svg xmlns="http://www.w3.org/2000/svg" width="24" height="24" fill="none" viewBox="0 0 24 24"><path fill="#000" d="M19.286 11.863a7.287 7.287 0 1 0-14.572.274 7.287 7.287 0 0 0 14.572-.274m-7.303 6.861a6.73 6.73 0 0 1-5.456-2.828.67.67 0 0 1 .587.025l.086-.077a.92.92 0 0 0-.759-.064 7 7 0 0 1-.231-.36c.231-.073.493-.056.746-.056.222-.008.445.047.642.159a.463.463 0 0 1 .189.591 1.15 1.15 0 0 0-.111.489l.162-.043c0-.459.536-.797.999-.797.287 0 .604.081.763.321l.214-.111a1.2 1.2 0 0 0-.433-.395.8.8 0 0 1-.407-.488.5.5 0 0 1-.017-.129c0-.943.514-1.89 1.8-1.628q-.046.129-.086.291a3 3 0 0 0-.111.866l.013.257.471-.266a5 5 0 0 0-.094.973c.009.943.343 1.599.964 1.895l.017.017.108 1.303zm.806-.043-.412.035.021-1.016c.129.064.258.128.39.171v.81m1.61-.437c-.389.17-.797.294-1.216.369a.07.07 0 0 1-.052-.073l.043-.446a.085.085 0 0 1 .068-.073.1.1 0 0 1 .035 0c.369.09.746.142 1.123.146.013.021-.009.06 0 .077m.417-4.735c-.069.385-.133.8-.193 1.225-.116.87-.292 1.929-.257 2.705q.011.205.043.402c-1.706-.06-2.332-.771-2.332-.771l-.008-.004a1.04 1.04 0 0 1-.588-1.085 4.27 4.27 0 0 1 1.235-2.322c.145-.13.308-.25.484-.348.407-.227.823-.3 1.213-.197q.128.034.244.086a.29.29 0 0 1 .159.309m3.12.998c0 .48-.146.947-.425 1.342a6.8 6.8 0 0 1-2.147 1.97v-.385l-.24.009.142.433c-.056.034-.112.06-.172.09-.441-.858-.175-4.072.347-6.365h-.24c0 .005-.09.386-.21.969a.073.073 0 0 1-.085.056l-.262-.065v.078l.3.158-.06.343a1.6 1.6 0 0 0-.428-.18c-.605-.154-1.26.051-1.843.583-.348.32-.636.7-.849 1.123a5 5 0 0 0-.45 1.285c-.141-.814.116-1.731.12-1.744l.107-.377-.66.377c.078-1.071.977-1.92.986-1.929l-.664.06a2.13 2.13 0 0 1 1.208-1.744h.009a1.26 1.26 0 0 1 1.303.377c.205.245.454.386.72.386a.88.88 0 0 0 .591-.253.66.66 0 0 1 .639-.145l.257.08q.058.445.064.888.001.25.035.502l-.185.05-.081.16.283-.09q.063.383.223.737l-.185.154-.008.086.244-.137q.083.162.197.304c.073.09.146.171.227.257l-.098.373.077.077.12-.36c.175.154.381.274.6.351v.253l.085.077.018-.3c.128.035.257.052.39.06zm-4.908-4.984a.83.83 0 0 0-.39-.51.1.1 0 0 0-.15.073l-.03.188.099.03c-.03.124-.137.317-.231.373-.66.412-2.73-.214-4.2-.72l-.845-.296c.472-.308 1.252-.445 2.289-.403q.887.04 1.757.215l.172.038.025-.171c0-.009.077-.587.549-.9q.426-.283 1.114-.167a.235.235 0 0 1 .172.317 4.1 4.1 0 0 0-.13 2.314 6 6 0 0 1-.706.279c-1.239.403-2.537.36-3.703-.232a6 6 0 0 1-1.243-.848l.544.18c1.033.321 2.486.711 3.506.711.386 0 .716-.056.934-.193a.7.7 0 0 0 .27-.304l.043.077a.064.064 0 0 0 .073.043l.026-.004a.073.073 0 0 0 .055-.09m.416-.566c0-1.226.527-2.083 1.003-2.083.343 0 .712.446.892 1.157.072.3.11.613.107.926 0 1.226-.527 2.083-.999 2.083-.317 0-.66-.386-.848-1.011a3.7 3.7 0 0 1-.155-1.072m4.487 4.393.009.857a2.4 2.4 0 0 1-.369-.051l.026-.313-.15-.082v.36a1.7 1.7 0 0 1-.536-.27l.176-.54-.154-.043-.129.489a1.6 1.6 0 0 1-.343-.45l.189-.107-.086-.159-.163.142a2.8 2.8 0 0 1-.197-.686l.309-.103-.103-.073-.219.06a5.2 5.2 0 0 1 .022-1.26l.235.073c.069.017 1.702.472 1.483 2.143zm.33 1.11-.012-1.089c.248-1.95-1.702-2.485-1.715-2.485l-.921-.279a.17.17 0 0 1-.114-.152q-.001-.035.01-.066l.027-.073c.295-.009 1.243-.073 1.615-.562.176-.231.223-.514.137-.836A1.9 1.9 0 0 0 16.2 7.68a3 3 0 0 0-.729-.232c-.24-.544-.608-.891-1.028-.891-.287 0-.553.171-.772.454-.668-.171-1.362-.111-1.774.159-.327.23-.56.571-.656.96-.685-.133-3.355-.562-4.393.471l-.18.18a.8.8 0 0 1 .322.21c.485.503 1.05.923 1.671 1.243.914.472 1.95.657 2.97.532a2.37 2.37 0 0 0-.75 1.885l.013.236-.171-.008a2.08 2.08 0 0 0-2.023 2.57c-.133.018-.266.06-.386.12a2 2 0 0 0-1.744-.488.64.64 0 0 1-.72-.364 6.65 6.65 0 0 1-.514-3.214 6.63 6.63 0 0 1 3.372-5.315 6.9 6.9 0 0 1 3.189-.887 6.6 6.6 0 0 1 3.146.712 6.733 6.733 0 0 1 3.218 8.447M15.746 8.57a4 4 0 0 0-.056-.407.206.206 0 0 1 .283-.231A1.63 1.63 0 0 1 16.97 9c.06.223.035.407-.085.557-.292.39-1.059.463-1.265.471.128-.474.169-.968.12-1.457z"/><path fill="#B6625D" d="M12.789 17.871v.806l-.412.039.021-1.016c.129.064.258.128.39.171"/><path fill="#8B948E" d="M14.657 13.2a1.5 1.5 0 0 0-.244-.086 1.64 1.64 0 0 0-1.213.197c-.536.673-2.691 3.686 1.17 4.128-.039-.772.137-1.835.257-2.7.056-.43.12-.845.189-1.23a.29.29 0 0 0-.159-.31M13.5 16.718l.163.142a.08.08 0 0 1 .025.06.1.1 0 0 1-.017.051.08.08 0 0 1-.088.025.1.1 0 0 1-.027-.016l-.193-.172a.08.08 0 0 0-.107 0l-.193.172a.08.08 0 0 1-.116-.009.08.08 0 0 1 .009-.111l.162-.142a.08.08 0 0 0 .027-.06.08.08 0 0 0-.027-.06l-.162-.141a.1.1 0 0 1-.026-.06.08.08 0 0 1 .028-.058.08.08 0 0 1 .062-.02c.017 0 .03.01.043.018l.193.172a.08.08 0 0 0 .107 0l.193-.172a.09.09 0 0 1 .085-.013.08.08 0 0 1 .043.047.08.08 0 0 1-.021.086l-.163.142a.08.08 0 0 0-.017.094q.002.012.017.025"/><path fill="#B6625D" d="m17.571 14.156.022-.313-.15-.082v.36a1.7 1.7 0 0 1-.536-.27l.176-.54-.154-.043-.13.489a1.6 1.6 0 0 1-.342-.45l.189-.107-.086-.159-.163.142a2.8 2.8 0 0 1-.197-.686l.309-.103-.103-.073-.219.06a4 4 0 0 1-.03-.445c.471.055 1.779.364 1.414 2.22"/><path fill="#6A6057" d="M17.936 14.481v.026c0 .48-.146.947-.425 1.342a6.8 6.8 0 0 1-2.147 1.97v-.385l-.163-.788-.008-.399h.008l.082-.484-.099.034.052-.459.047.026V13.92v.321l.081.082.077-.24-.158-.163.647-2.88q.058.444.064.887.001.25.035.502l-.185.05-.081.16.283-.09q.063.383.223.737l-.185.154-.008.086.244-.137q.083.162.197.304c.073.09.146.171.227.257l-.098.373.077.077.12-.36c.175.154.381.274.6.351v.253l.085.077.018-.3c.128.035.257.052.39.06m-2.902-3.377a.88.88 0 0 1-.591.257c-.266 0-.514-.145-.72-.39a1.22 1.22 0 0 0-.934-.432l-.76.9a.145.145 0 0 0 .112.24.146.146 0 0 1 .129.214l-.711 1.457a.145.145 0 0 0 .098.214l.077.013a.15.15 0 0 1 .103.086v-.06l.163-.24.081.077-.244.428-.073.798a3.9 3.9 0 0 1 .845-1.123c.587-.532 1.242-.737 1.842-.583q.234.057.429.18l.068-.343-.304-.159v-.077l.257.065a.07.07 0 0 0 .082-.03.1.1 0 0 0 .008-.026c.12-.583.21-.964.215-.969 0 0 .385-.433-.172-.497m-2.657 2.075-.056-.138.185-.214.214.056zm.986-.46-.304.087-.1-.167.48-.078zm.908-.08h-.351v-.16l.403.082z"/><path fill="#B6625D" d="M16.894 9.557c-.295.39-1.063.463-1.268.471.127-.474.168-.968.12-1.457 0 0 .758-.094 1.148.986m-3.771-.6c0 .317.034.634.103.943a5 5 0 0 1-.708.283c-2.331.656-4.345-.857-4.397-.9 1.029.321 2.477.711 3.502.711.386 0 .716-.056.934-.193a.7.7 0 0 0 .27-.304l.043.077a.064.064 0 0 0 .073.043l.026-.004a.073.073 0 0 0 .055-.09.83.83 0 0 0-.39-.51.1.1 0 0 0-.15.073l-.03.188.099.03c-.03.124-.137.317-.232.373-.66.412-2.73-.214-4.2-.72.03-.034.772-.733 3.287-.146a.29.29 0 0 0 .343-.188c.142-.412.549-1.157 1.603-1.033a3.9 3.9 0 0 0-.231 1.371z"/><path fill="#687DAD" d="M14.4 18.244c-.39.17-.799.294-1.217.369a.07.07 0 0 1-.052-.073l.043-.446a.085.085 0 0 1 .068-.073c.378.096.768.145 1.158.146.013.021-.009.06 0 .077m-6.724-1.641-.073.48a6.7 6.7 0 0 1-.767-.78c.025-.009.604-.129.84.3m4.255.763-.017-.017c-.625-.296-.955-.948-.964-1.895q-.001-.489.094-.973l-.471.266-.013-.257c-.004-.292.03-.583.111-.866-1.328.257-1.097 2.083-1.097 2.083q.14.117.24.266l-.214.111.18.215-.18.132.197.227-.197.12s-1.286-.055-1.123.943c1.053.654 2.267 1.001 3.506 1.003l.056-.055zm-1.92-2.057-.145.06c-.236-.545.197-.948.214-.97l.094.057c-.017.017-.356.402-.163.853"/><path fill="#EDDED9" d="M15.334 8.031q-.019.375-.141.729a.73.73 0 0 0-.699-.6.72.72 0 0 0-.703.51l.476.141a.077.077 0 0 1 .009.15l-.463.185a.72.72 0 0 0 .818.437 2 2 0 0 1-1.037.445 3.7 3.7 0 0 1-.154-1.071c0-1.226.527-2.083 1.003-2.083.343 0 .711.446.891 1.157"/><path fill="#F1DDC4" d="M16.894 9.557c-.39-1.08-1.148-.986-1.148-.986a4 4 0 0 0-.056-.407.206.206 0 0 1 .283-.231A1.63 1.63 0 0 1 16.97 9c.06.223.035.407-.085.557zm1.029 3.793.013.857a2.4 2.4 0 0 1-.369-.051c.369-1.856-.943-2.165-1.414-2.22 0-.27.017-.545.051-.815l.24.073c.069.017 1.702.472 1.483 2.143v.013zm-2.563 4.08-.236.013.142.433c-.056.034-.112.06-.172.09-.441-.858-.175-4.072.347-6.365h-.24s.386-.433-.167-.497a.66.66 0 0 1 .639-.145l.257.08-.647 2.88v1.038l-.082-.236-.077.562.112.056-.052.458-.141.043-.013.506.163-.099.008.399-.158.158.081.322.159.077-.082-.557zm-.947.411c-1.71-.06-2.336-.771-2.336-.771l-.008-.004a1.04 1.04 0 0 1-.588-1.085 4.27 4.27 0 0 1 1.235-2.322c.145-.13.308-.25.484-.348-.536.673-2.691 3.686 1.17 4.128 0 .137.017.27.043.402m-2.126-6.013a.14.14 0 0 1-.013.06l-.715 1.466a.146.146 0 0 0 .098.206l.077.017a.15.15 0 0 1 .103.086l-.008.223.008-.018-.073.798a5 5 0 0 0-.45 1.285c-.141-.814.116-1.731.12-1.744l.107-.377-.66.377c.078-1.071.977-1.92.986-1.929l-.664.06a2.13 2.13 0 0 1 1.208-1.744h.009a1.2 1.2 0 0 1 .369-.055l-.76.9a.145.145 0 0 0 .112.24.146.146 0 0 1 .146.145zm.231-1.645c-1.238.403-2.537.36-3.702-.232a6 6 0 0 1-1.243-.848l.544.18c.056.043 2.07 1.556 4.401.9m.836-2.597c-1.054-.12-1.457.625-1.603 1.037a.29.29 0 0 1-.342.188c-2.516-.587-3.258.112-3.288.146l-.844-.296c.471-.308 1.251-.445 2.289-.403a11.5 11.5 0 0 1 1.757.215l.171.038.026-.171c0-.009.077-.587.549-.9q.424-.283 1.114-.167a.235.235 0 0 1 .171.317z"/><path fill="#3D2E40" d="M18.729 12c0 .844-.163 1.676-.472 2.46l-.013-1.089c.249-1.95-1.701-2.485-1.714-2.485l-.922-.279a.17.17 0 0 1-.114-.152q0-.035.012-.066l.025-.073c.296-.009 1.243-.073 1.616-.562.176-.231.223-.514.137-.836a1.9 1.9 0 0 0-1.088-1.238 3 3 0 0 0-.729-.232c-.24-.544-.609-.891-1.029-.891-.287 0-.552.171-.771.454-.668-.171-1.363-.111-1.774.159-.328.23-.56.571-.656.96-.686-.133-3.356-.562-4.393.471l-.18.18a.8.8 0 0 1 .322.21c.485.503 1.05.923 1.671 1.243.914.472 1.95.657 2.97.532a2.37 2.37 0 0 0-.75 1.885l.013.236-.171-.008a2.08 2.08 0 0 0-2.023 2.57c-.133.018-.266.06-.386.12a2 2 0 0 0-1.744-.488.64.64 0 0 1-.72-.364A6.728 6.728 0 1 1 18.729 12"/><path fill="#819CB3" d="M15.441 8.957c0 1.226-.527 2.083-.998 2.083-.317 0-.66-.386-.849-1.011a2 2 0 0 0 1.037-.446.72.72 0 0 0 .562-.823q.122-.354.141-.729c.073.3.112.613.107.926"/><path fill="#E8E2EF" d="M8.957 14.961c0 .043.009.086.017.129a.8.8 0 0 0 .407.489 1 1 0 0 1 .193.128s-.231-1.821 1.097-2.083q.04-.162.086-.291c-1.286-.262-1.8.685-1.8 1.628m1.281-1.281c-.36.051-.578.309-.69.681-.06.197-.094.399-.111.6l-.12-.017c0-.013-.086-1.238.922-1.371zM9.6 16.43l.18-.128-.18-.219c-.159-.24-.476-.321-.763-.321-.463 0-.999.338-.999.801l-.162.043-.073.476q.41.36.874.643c-.159-1.003 1.123-.947 1.123-.947l.197-.12zm-.643.129c0-.017-.159-.154-.416-.129l-.064-.107c.399-.081.557.082.643.159l-.163.081zm.459.06c-.086-.446-.763-.437-.772-.437v-.159c.03 0 .814-.017.93.566z"/><path fill="#000" d="M15.201 8.858a.72.72 0 0 1-1.388.288l.463-.185a.077.077 0 0 0-.009-.15l-.471-.141a.72.72 0 0 1 1.405.188m-3.12 4.582-.244.428-.008.018.008-.227v-.056l.163-.24zm.639-.561-.343.3-.056-.138.185-.214.214.056zm.72-.322-.077.163-.304.086-.1-.167.48-.078zm.883 0-.052.086h-.351v-.163l.403.081zm1.118 1.526-.077.24-.081-.082v-.321zm-.158 1.281-.043-.026-.116-.055.077-.557.082.231zm0 .399-.082.48-.008.004-.163.099.013-.502.141-.047zm0 1.44-.159-.077-.085-.322.162-.158zm-1.62-.343a.08.08 0 0 1 .025.06.1.1 0 0 1-.017.051.08.08 0 0 1-.088.025.1.1 0 0 1-.027-.016l-.193-.172a.08.08 0 0 0-.107 0l-.193.172a.08.08 0 0 1-.116-.009.08.08 0 0 1 .009-.111l.162-.142a.08.08 0 0 0 .022-.094.1.1 0 0 0-.022-.025l-.162-.142a.1.1 0 0 1-.026-.06.082.082 0 0 1 .129-.06l.197.172a.08.08 0 0 0 .107 0l.193-.172a.09.09 0 0 1 .085-.013.08.08 0 0 1 .043.047.08.08 0 0 1-.021.086l-.163.142a.08.08 0 0 0 0 .12zm-3.42-3.291-.005.11c-.36.052-.578.31-.69.682-.06.197-.094.399-.111.6l-.12-.017c0-.013-.09-1.238.922-1.371zm-.232 1.74-.145.06c-.236-.545.197-.948.214-.97l.094.057c-.017.017-.356.402-.163.853m-.437 1.277-.158.034c-.086-.446-.763-.437-.772-.437v-.159c.03 0 .814-.017.93.566z"/><path fill="#000" d="m9.116 16.483-.159.081c0-.021-.159-.158-.416-.128l-.064-.112c.399-.081.557.082.643.159z"/><path fill="#EDDED9" d="M9.038 11.52a.081.081 0 0 0 .092-.115.08.08 0 0 0-.092-.044.082.082 0 0 0 0 .159M7.877 12.8a.12.12 0 1 0 0-.24.12.12 0 0 0 0 .24m2.362-.48a.081.081 0 1 0 0-.162.081.081 0 0 0 0 .162M6.47 14.563a.081.081 0 1 0 0-.163.081.081 0 0 0 0 .163m10.573-3.686a.08.08 0 0 0 .092-.044.08.08 0 0 0 0-.07.081.081 0 1 0-.092.114"/></svg>