<svg xmlns="http://www.w3.org/2000/svg" width="24" height="24" fill="none" viewBox="0 0 24 24"><path fill="url(#MNW__a)" d="m7.192 7.316-2.456 9.099c-.158.59.609.994 1.02.53L9.04 13.26l2.014 2.28a1.28 1.28 0 0 0 1.903 0l2.014-2.275 3.275 3.664c.415.463 1.178.06 1.02-.532L16.813 7.33a1.225 1.225 0 0 0-2.095-.48L12 9.922 9.292 6.844a1.226 1.226 0 0 0-2.096.472z"/><path fill="url(#MNW__b)" d="m7.192 7.316-1.616 5.987a1.82 1.82 0 0 1 2.464-.943c.429.202.763.583.999.9l2.014 2.272a1.276 1.276 0 0 0 1.903 0l2.014-2.272 2.636-2.995a3.745 3.745 0 0 1-5.61-.343L9.288 6.844a1.226 1.226 0 0 0-2.096.472"/><path fill="url(#MNW__c)" d="m14.97 13.26 3.275 3.664c.415.463 1.178.06 1.02-.531l-1.659-6.129z"/><path fill="url(#MNW__d)" d="m5.576 13.299-.84 3.111c-.158.592.609.994 1.02.532l3.283-3.686a2.53 2.53 0 0 0-1.08-.93 1.82 1.82 0 0 0-2.387.973z"/><defs><linearGradient id="MNW__a" x1="15.493" x2="14.988" y1="7.282" y2="10.852" gradientUnits="userSpaceOnUse"><stop stop-color="#5083A9"/><stop offset="1" stop-color="#12132C"/></linearGradient><linearGradient id="MNW__b" x1="17.869" x2="4.716" y1="12.585" y2="12.898" gradientUnits="userSpaceOnUse"><stop stop-color="#1C2849"/><stop offset="1" stop-color="#5893BA"/></linearGradient><linearGradient id="MNW__c" x1="9.75" x2="11.545" y1="8.814" y2="17.654" gradientUnits="userSpaceOnUse"><stop stop-color="#13182F"/><stop offset="1" stop-color="#5284AC"/></linearGradient><linearGradient id="MNW__d" x1="8.058" x2="5.443" y1="12.497" y2="16.834" gradientUnits="userSpaceOnUse"><stop stop-color="#1C2849"/><stop offset="1" stop-color="#436C92"/></linearGradient></defs></svg>