<svg xmlns="http://www.w3.org/2000/svg" width="24" height="24" fill="none" viewBox="0 0 24 24"><path fill="#fff" d="m14.335 14.006.18.043c.056.012.116.034.176.038.051.009.094-.038.116-.077.008-.013.017-.013.03-.013q.017 0 .03.013c.043.051.06.116.043.184a.26.26 0 0 1-.12.146.5.5 0 0 1-.352.026c-.107-.026-.244-.086-.308-.176 0-.009-.009-.009-.009-.013 0-.013-.017-.021-.03-.026a.04.04 0 0 0-.03-.012.7.7 0 0 1-.381-.013c-.018-.009-.022-.022-.03-.039q0-.026.025-.038c.15-.078.3-.146.416-.27a.6.6 0 0 1 .116-.095c.197-.12.493-.145.673.017.06.056.09.163.038.24a.05.05 0 0 1-.038.022.03.03 0 0 1-.03-.022c-.047-.081-.129-.077-.206-.068a.55.55 0 0 0-.313.146zm1.012 3.424c.107.081.176.227.116.36-.04.129-.112.253-.245.291-.047.018-.094.018-.15.022l-.085.008c0 .026.008.052.012.069l.013.128a.8.8 0 0 1-.098.42.63.63 0 0 1-.352.305q-.027.01-.047-.017c-.013-.022-.013-.043 0-.052.18-.227.18-.471.129-.745-.03-.108-.03-.228.051-.318.086-.085.219-.107.334-.107.039 0 .077.009.116-.004.03-.021.06-.073.086-.103a.2.2 0 0 0 .03-.064v-.005c.013-.051-.017-.115-.047-.162a1.4 1.4 0 0 1-.33 0 3.7 3.7 0 0 1-.772-.193c-.021-.005-.034-.03-.026-.047a.04.04 0 0 1 .043-.035c.33.065.686.12 1.016.086a.74.74 0 0 0 .42-.236v-.021c0-.086-.013-.18-.021-.27a.8.8 0 0 1 .025-.291c.035-.13.189-.18.3-.215l.305-.081c.09-.026.184-.052.261-.095a.34.34 0 0 0-.043-.15 2 2 0 0 0-.12-.167c-.043-.064-.073-.137-.103-.205q-.18-.437-.342-.879c-.086-.257-.155-.531-.01-.78.09-.15.232-.257.357-.377.188-.214.068-.63-.03-.866a1.5 1.5 0 0 1-.047-.591c0-.022.017-.043.034-.043.021 0 .038.017.043.043.03.18.051.364.124.536.086.162.171.342.197.535.039.202.013.403-.116.562-.073.085-.154.158-.223.24a.4.4 0 0 0-.102.257c-.005.128.06.27.102.386q.181.488.386.95a.5.5 0 0 0 .095.13.6.6 0 0 1 .102.167c.078.175.09.403-.102.505a1.6 1.6 0 0 1-.412.137l-.206.043-.154.043c-.03.112-.017.309-.017.416 0 .038 0 .073-.013.12s-.03.094-.073.12l-.013.004-.047.039a1 1 0 0 1-.356.188zm2.713-6.399c-.266.27-.677.18-1.003.112-.613-.137-1.226-.279-1.847-.253-.026 0-.043-.017-.043-.039s.008-.043.034-.043a4.5 4.5 0 0 1 .956 0c.317.03.63.086.947.142.129.017.257.043.381.047.078.009.163 0 .245-.03a.5.5 0 0 0 .18-.137c.073-.09.137-.193.201-.287.094-.159.223-.292.403-.326a.9.9 0 0 0 .279-.214 1 1 0 0 0 .167-.245c-.082-.034-.176-.047-.262-.06a1.5 1.5 0 0 0-.527.018c-.056.012-.111.021-.163.012-.257-.017-.493-.107-.733-.184a9 9 0 0 1-.878-.343c-.287-.115-.57-.244-.849-.364a2.4 2.4 0 0 1-.66-.399 3 3 0 0 1-.27-.24 1.6 1.6 0 0 1-.206-.27c-.042-.085-.072-.175-.034-.265a.2.2 0 0 1 .086-.086l-.943-.664a.6.6 0 0 0-.236-.086h-.03l-.12-.009c-.865-.09-1.74-.18-2.605-.278-.022 0-.035-.026-.035-.043 0-.026.018-.043.043-.043.93.034 1.86.09 2.79.142.197.012.373.132.527.24l.759.492.188.129a.6.6 0 0 1 .15.12.17.17 0 0 1 .04.137.16.16 0 0 1-.104.12.4.4 0 0 1-.137.026c.2.254.453.46.742.604.342.159.698.304 1.05.454q.42.184.852.339c.215.069.438.154.66.163.227-.051.461-.059.69-.022.176.035.51.086.54.313v.005c.005.12-.038.184-.09.274a1.5 1.5 0 0 1-.334.351.9.9 0 0 1-.343.163.14.14 0 0 0-.056.043c-.072.064-.128.154-.188.236-.069.094-.129.184-.214.257zm-1.727.527c-.185-.042-.382-.06-.566-.081l-.596-.039-1.131-.047c-.287-.008-.579.005-.862 0-.103-.008-.206-.008-.3-.051-.021-.009-.034-.03-.026-.051a.04.04 0 0 1 .043-.03c.086.012.185-.01.27-.022.099-.013.189-.039.288-.043.77-.128 1.555-.107 2.322-.026.228.026.455.065.669.146h.004c.022.005.039.017.056.026a.2.2 0 0 1 .056.03c.248.154.531.051.728-.146.009-.013.035-.013.052 0s.017.043.012.052a.7.7 0 0 1-.385.342.72.72 0 0 1-.549-.034l-.077-.03zM13.958 8.43c-.223.446-.956.287-1.311.137-.137-.056-.249-.129-.386-.171q-.033-.008-.034-.039 0-.012.007-.023a.04.04 0 0 1 .018-.016.7.7 0 0 1 .25-.034c.213.013.428.056.642.094.266.043.501.108.763-.008a.04.04 0 0 1 .043.013c.017.013.017.034.008.051v-.008zM9.493 6.2c.002-.395.098-.784.278-1.135a1.54 1.54 0 0 1 .887-.828c.017-.004.035 0 .047.022a.04.04 0 0 1-.004.051c-.279.262-.428.579-.609.909l-.248.497c-.086.171-.171.343-.27.501-.013.013-.03.026-.043.018a.04.04 0 0 1-.03-.039l-.008.009zm1.885.18a1.75 1.75 0 0 1-.728-1.997c.008-.017.021-.03.038-.03s.03.013.034.03c.095.292.155.587.245.879q.181.56.458 1.063c.013.017.009.038-.004.047-.013.013-.03.021-.047.008zm4.329 7.145a3 3 0 0 0-.514-.215 1.1 1.1 0 0 0-.386-.051 2.4 2.4 0 0 0-.386.051c-.184.03-.364.069-.544.095h-.009a.8.8 0 0 1-.325-.039c-.018-.004-.03-.026-.026-.043 0-.021.017-.034.038-.043.086-.008.172-.043.258-.072q.235-.107.492-.198c.172-.055.356-.085.54-.081.352.013.72.223.913.531q.018.033-.004.052a.04.04 0 0 1-.051.013h.008zm-2.533 2.053a4.56 4.56 0 0 1-1.989-.545 3.4 3.4 0 0 1-1.401-1.328 2.7 2.7 0 0 1-.33-1.175c0-.017.009-.034.03-.043.017-.004.034.009.047.026.133.373.292.733.514 1.055.712 1.05 1.98 1.628 3.137 1.928.022.004.04.026.03.043 0 .017-.017.039-.042.039zM12 13.144c-.013-.257.06-.51.193-.728a2.23 2.23 0 0 1 1.11-.883c.017-.009.042 0 .047.017a.043.043 0 0 1-.013.056c-.416.3-.892.728-.969 1.281-.09.93.352 1.813.956 2.464a.043.043 0 0 1 0 .056c-.013.017-.034.017-.051.009a2.8 2.8 0 0 1-.943-1.008 2.6 2.6 0 0 1-.339-1.268zm1.757-2.511c-1.012-.064-2.049-.129-3.056.081l-.129.03c-.042.013-.094.022-.128.043-.159.043-.304.103-.463.15-.274.06-.57.082-.84.03a2.1 2.1 0 0 1-1.298-.81c-.013-.017-.013-.043.004-.056a.04.04 0 0 1 .056 0q.276.239.604.399c.428.215.92.267 1.384.146.116-.043.236-.086.351-.12.13-.043.258-.086.395-.116 1.041-.206 2.125-.111 3.15.146.017.008.034.025.03.051-.009.017-.026.039-.043.039zM8.764 8.156c.677.342 1.38.638 2.096.9.103.042.214.072.313.124.02.004.034.026.025.043q-.007.033-.034.034c-.47.018-.94-.07-1.371-.257a2.6 2.6 0 0 1-1.072-.78.04.04 0 0 1 0-.052.04.04 0 0 1 .047-.012zm-1.761.45a3.5 3.5 0 0 1-.318-1.209 5 5 0 0 1 .738-2.991c.11-.185.24-.356.364-.532.013-.021.038-.021.056-.013q.027.02.017.052c-.107.283-.24.557-.339.853a7.2 7.2 0 0 0-.437 3.801c.009.017-.004.043-.021.051-.022.005-.043 0-.052-.021zm2.25-2.01a.76.76 0 0 1 .124.492.57.57 0 0 1-.274.442q-.026.019-.056-.013a.05.05 0 0 1 0-.056c.244-.283.068-.617-.163-.84a3.3 3.3 0 0 1-.849-1.5 2.1 2.1 0 0 1-.021-.93q.005-.033.043-.034a.04.04 0 0 1 .043.034c.051.287.12.579.231.849.159.42.39.814.643 1.17.094.128.201.248.279.386m3.8 12.685a3.84 3.84 0 0 1-1.808-.664 5.23 5.23 0 0 1-2.052-2.871 6.7 6.7 0 0 1-.296-1.663.04.04 0 0 1 .034-.043c.022-.009.043.009.052.03.29 1.093.634 2.151 1.277 3.086a4.9 4.9 0 0 0 2.815 2.04c.022.008.039.025.03.051-.004.021-.021.039-.043.039zm-6.115-8.194a10.3 10.3 0 0 0-.193 1.774q-.017.901.138 1.783a7.44 7.44 0 0 0 1.465 3.3c.219.287.472.553.716.815.013.02.017.042 0 .06q-.021.024-.056.004a6.55 6.55 0 0 1-2.477-4.114 7.2 7.2 0 0 1 .322-3.652c.008-.021.03-.034.047-.026.021.005.034.026.034.047z"/></svg>