<svg xmlns="http://www.w3.org/2000/svg" width="24" height="24" fill="none" viewBox="0 0 24 24"><path fill="#1A467E" d="M9.857 15.429H9l2.871-6.43 1.955 4.287h-.858l-1.092-2.143zm4.929-.03 2.425-3.185L14.786 9h.857l2.031 2.597-.463.617.463.579-2.031 2.636h-1.715l-.471-1.072h.827zm3.347-3.185-.459-.617L19.714 9h.857zm0 0 2.438 3.214h-.857l-2.04-2.635zm-8.705 0c.022 1.663-1.277 3.214-3 3.214a2.95 2.95 0 0 1-3-3 3.97 3.97 0 0 1 .54-2.074l.566.742c-.227.411-.248.805-.248 1.332a2.143 2.143 0 0 0 2.142 2.143c1.355.03 2.143-1.127 2.143-2.301 0-1.243-.711-2.413-2.143-2.413-.45 0-.822.142-1.114.334l-.651-.6A2.8 2.8 0 0 1 6.428 9c1.728-.03 3.048 1.556 3 3.214"/></svg>