<svg width="24" height="24" viewBox="0 0 24 24" fill="none" xmlns="http://www.w3.org/2000/svg">
<g clip-path="url(#clip0_328_61403)">
<path d="M24 0H0V24H24V0Z" fill="#D9B432"/>
<path d="M17.0785 4H6.92153C5.301 4 4 5.301 4 6.92153V17.0785C4 18.699 5.301 20 6.92153 20H17.0785C18.6762 20 20 18.699 20 17.0785V6.92153C20 5.301 18.699 4 17.0785 4ZM14.6134 7.99429C15.8003 7.99429 16.7589 8.95291 16.7589 10.1398C16.7589 10.505 16.6676 10.8474 16.5078 11.1669C16.2339 10.9615 15.9372 10.7789 15.6177 10.6648C15.709 10.505 15.7546 10.3224 15.7546 10.1398C15.7546 9.52354 15.2525 9.02139 14.6362 9.02139C14.02 9.02139 13.5178 9.52354 13.5178 10.1398C13.5178 10.3224 13.5635 10.505 13.6548 10.6648C13.3352 10.7789 13.0157 10.9387 12.7646 11.1669C12.582 10.8474 12.5136 10.505 12.5136 10.1398C12.4679 8.95291 13.4265 7.99429 14.6134 7.99429ZM9.38658 16.0057C8.19973 16.0057 7.24107 15.0471 7.24107 13.8602H8.26818C8.26818 14.4765 8.77033 14.9786 9.38658 14.9786C10.0029 14.9786 10.505 14.4765 10.505 13.8602H11.5321C11.5321 15.0471 10.5735 16.0057 9.38658 16.0057ZM9.38658 12.9929C8.01712 12.9929 6.89872 11.8745 6.89872 10.505C6.89872 9.13552 8.01712 7.99429 9.38658 7.99429C10.7561 7.99429 11.8973 9.11269 11.8973 10.505C11.8745 11.8745 10.7561 12.9929 9.38658 12.9929ZM14.6134 16.0057C13.2439 16.0057 12.1027 14.8873 12.1027 13.5178C12.1027 12.1255 13.2211 11.0071 14.6134 11.0071C15.9829 11.0071 17.1013 12.1255 17.1013 13.5178C17.1013 14.8873 15.9829 16.0057 14.6134 16.0057ZM16.097 13.495C16.097 14.3167 15.4351 14.9558 14.6134 14.9558C13.7917 14.9558 13.1298 14.2939 13.1298 13.495C13.1298 12.6733 13.7917 12.0114 14.6134 12.0114C15.4351 12.0342 16.097 12.6961 16.097 13.495ZM10.8474 10.505C10.8474 11.3267 10.1854 11.9886 9.36377 11.9886C8.54208 11.9886 7.88016 11.3267 7.88016 10.505C7.88016 9.68331 8.54208 9.02139 9.36377 9.02139C10.2083 9.02139 10.8474 9.68331 10.8474 10.505Z" fill="black"/>
</g>
<defs>
<clipPath id="clip0_328_61403">
<rect width="24" height="24" fill="white"/>
</clipPath>
</defs>
</svg>
