<svg width="24" height="24" viewBox="0 0 24 24" fill="none" xmlns="http://www.w3.org/2000/svg">
<g clip-path="url(#clip0_558_123)">
<path d="M24 0H0V24H24V0Z" fill="#5963FF"/>
<path fill-rule="evenodd" clip-rule="evenodd" d="M12 8.15162C9.87479 8.15162 8.15162 9.87479 8.15162 12C8.15162 14.1252 9.87479 15.8484 12 15.8484C14.1252 15.8484 15.8484 14.1252 15.8484 12C15.849 9.87479 14.1258 8.15162 12 8.15162ZM12 13.7519C11.0327 13.7519 10.2487 12.9679 10.2487 12.0006C10.2487 11.0334 11.0327 10.2493 12 10.2493C12.9672 10.2493 13.7513 11.0334 13.7513 12.0006C13.7519 12.9679 12.9679 13.7519 12 13.7519Z" fill="white"/>
<path fill-rule="evenodd" clip-rule="evenodd" d="M16.8006 4H7.2C5.43243 4 4 5.43243 4 7.2V16.8C4 18.5676 5.43243 20 7.2 20H16.8C18.5676 20 20 18.5676 20 16.8V7.2C20.0006 5.43306 18.5676 4 16.8006 4ZM17.1608 14.8261C17.2033 14.8574 17.2439 14.8924 17.2821 14.9305C17.6416 15.2907 17.6891 15.8684 17.3934 16.2829C17.0376 16.7819 16.3417 16.8713 15.8728 16.4911C15.8615 16.4824 15.8509 16.473 15.8402 16.4636C15.7165 16.3548 15.5351 16.3461 15.4045 16.4467C14.461 17.1701 13.2805 17.6003 12 17.6003C10.7195 17.6003 9.53904 17.1701 8.59555 16.4467C8.46487 16.3467 8.28355 16.3548 8.15975 16.4636C8.14912 16.473 8.13849 16.4818 8.12724 16.4911C7.6583 16.8707 6.96241 16.7812 6.60664 16.2829C6.3109 15.8684 6.35842 15.2913 6.71794 14.9305C6.7567 14.8918 6.79734 14.8567 6.83923 14.8261C6.96866 14.7304 7.01368 14.556 6.94365 14.4103C6.59476 13.68 6.39969 12.8628 6.39969 12C6.39969 11.1372 6.59539 10.3193 6.94365 9.58906C7.01368 9.44213 6.96553 9.26831 6.83486 9.17139C6.8236 9.16327 6.81235 9.15451 6.80109 9.14513C6.33216 8.76561 6.27464 8.06596 6.68855 7.61454C7.03243 7.23877 7.60766 7.16561 8.0347 7.44259C8.08034 7.47261 8.12286 7.50512 8.16225 7.53951C8.28417 7.64767 8.46487 7.65205 8.59429 7.55326C9.53779 6.82986 10.7182 6.39969 11.9987 6.39969C13.2792 6.39969 14.4597 6.82986 15.4032 7.55326C15.5339 7.65393 15.7152 7.64517 15.839 7.53638C15.8496 7.527 15.8603 7.51825 15.8715 7.50887C16.3404 7.12935 17.0363 7.21876 17.3921 7.71708C17.6878 8.13161 17.6403 8.70871 17.2808 9.06948C17.243 9.10737 17.2024 9.14247 17.1595 9.17452C17.0301 9.27018 16.9851 9.44463 17.0551 9.58968C17.404 10.32 17.5991 11.1372 17.5991 12C17.5991 12.8628 17.404 13.68 17.0551 14.4103C17.0221 14.4812 17.0146 14.5613 17.0339 14.637C17.0531 14.7128 17.0979 14.7796 17.1608 14.8261Z" fill="white"/>
</g>
<defs>
<clipPath id="clip0_558_123">
<rect width="24" height="24" fill="white"/>
</clipPath>
</defs>
</svg>
