<svg width="24" height="24" viewBox="0 0 24 24" fill="none" xmlns="http://www.w3.org/2000/svg">
<g clip-path="url(#clip0_328_61565)">
<path d="M24 0H0V24H24V0Z" fill="#049F67"/>
<path d="M7.0626 8.11732C7.0626 7.53443 7.53492 7.06211 8.11781 7.06211H15.8776C16.4604 7.06211 16.9327 6.58979 16.9327 6.0069V4.05521C16.9327 3.47232 16.4604 3 15.8776 3H7.66801C7.08511 3 6.61278 3.47232 6.61278 4.05521V5.55906C6.61278 6.14196 6.14046 6.61427 5.55757 6.61427H4.0557C3.47281 6.61427 3.00049 7.08659 3.00049 7.6695V10.9627C3.00049 11.5456 3.47478 11.9942 4.05768 11.9942H6.00936C6.59225 11.9942 7.06457 11.522 7.06457 10.939L7.0626 8.11732Z" fill="white"/>
<path d="M19.9444 11.9948H17.9931C17.4102 11.9948 16.9378 12.467 16.9378 13.0499V15.8826C16.9378 16.4656 16.4656 16.9379 15.8827 16.9379H8.11821C7.53532 16.9379 7.06299 17.4103 7.06299 17.9931V19.9448C7.06299 20.5277 7.53532 21 8.11821 21H16.332C16.915 21 17.3806 20.5277 17.3806 19.9448V18.379C17.3806 17.796 17.8529 17.3826 18.4358 17.3826H19.9444C20.5273 17.3826 20.9996 16.9102 20.9996 16.3273V13.0377C20.9996 12.4548 20.5273 11.9948 19.9444 11.9948Z" fill="white"/>
<path d="M12.9561 9.94312H11.0814C10.4709 9.94312 9.97485 10.4388 9.97485 11.0497V12.9244C9.97485 13.5349 10.4705 14.0309 11.0814 14.0309H12.9561C13.5666 14.0309 14.0626 13.5353 14.0626 12.9244V11.0497C14.0626 10.4391 13.5671 9.94312 12.9561 9.94312Z" fill="white"/>
</g>
<defs>
<clipPath id="clip0_328_61565">
<rect width="24" height="24" fill="white"/>
</clipPath>
</defs>
</svg>
