<svg width="24" height="24" viewBox="0 0 24 24" fill="none" xmlns="http://www.w3.org/2000/svg">
<g clip-path="url(#clip0_328_61565)">
<path d="M24 0H0V24H24V0Z" fill="#049F67"/>
<path d="M7.61125 8.54873C7.61125 8.0306 8.03109 7.61077 8.54922 7.61077H15.4468C15.9649 7.61077 16.3847 7.19093 16.3847 6.6728V4.93797C16.3847 4.41984 15.9649 4 15.4468 4H8.14939C7.63126 4 7.21142 4.41984 7.21142 4.93797V6.27472C7.21142 6.79285 6.79158 7.21269 6.27345 7.21269H4.93845C4.42033 7.21269 4.00049 7.63253 4.00049 8.15066V11.078C4.00049 11.5961 4.42208 11.9949 4.94021 11.9949H6.67504C7.19317 11.9949 7.613 11.5751 7.613 11.0569L7.61125 8.54873Z" fill="white"/>
<path d="M19.0617 11.9954H17.3272C16.8091 11.9954 16.3892 12.4152 16.3892 12.9333V15.4512C16.3892 15.9694 15.9694 16.3892 15.4513 16.3892H8.54955C8.03142 16.3892 7.61157 16.8091 7.61157 17.3272V19.062C7.61157 19.5802 8.03142 20 8.54955 20H15.8507C16.3689 20 16.7828 19.5802 16.7828 19.062V17.6702C16.7828 17.152 17.2026 16.7845 17.7207 16.7845H19.0617C19.5798 16.7845 19.9997 16.3646 19.9997 15.8465V12.9225C19.9997 12.4043 19.5798 11.9954 19.0617 11.9954Z" fill="white"/>
<path d="M12.8497 10.1716H11.1833C10.6406 10.1716 10.1997 10.6122 10.1997 11.1552V12.8216C10.1997 13.3643 10.6403 13.8052 11.1833 13.8052H12.8497C13.3924 13.8052 13.8333 13.3647 13.8333 12.8216V11.1552C13.8333 10.6125 13.3928 10.1716 12.8497 10.1716Z" fill="white"/>
</g>
<defs>
<clipPath id="clip0_328_61565">
<rect width="24" height="24" fill="white"/>
</clipPath>
</defs>
</svg>
