<svg width="24" height="24" viewBox="0 0 24 24" fill="none" xmlns="http://www.w3.org/2000/svg">
<g clip-path="url(#clip0_328_61658)">
<path d="M24 0H0V24H24V0Z" fill="black"/>
<path d="M15.9664 7.71322C15.9664 5.68368 14.1773 4 11.9994 4C9.82148 4 8.03235 5.68452 8.03235 7.71322V8.90008H6.40001V17.4369L11.9994 20L17.6 17.4352V8.93644H15.9677L15.9664 7.71322ZM10.0547 7.71322C10.0547 6.75638 10.9104 5.99065 11.9994 5.99065C13.0883 5.99065 13.944 6.75638 13.944 7.71322V8.90008H10.0547V7.71322ZM15.344 16.0585L11.9994 17.5899L8.65479 16.0585V10.9288H15.344V16.0585Z" fill="white"/>
</g>
<defs>
<clipPath id="clip0_328_61658">
<rect width="24" height="24" fill="white"/>
</clipPath>
</defs>
</svg>
