<svg width="24" height="24" viewBox="0 0 24 24" fill="none" xmlns="http://www.w3.org/2000/svg">
<g clip-path="url(#clip0_328_61731)">
<path d="M24 0H0V24H24V0Z" fill="#2461ED"/>
<path fill-rule="evenodd" clip-rule="evenodd" d="M14.4195 11.5692C11.1224 9.8568 7.11076 7.63608 4.09148 5.82606C3.20062 5.20921 3.65276 3.90002 4.72943 3.90002H19.6688C20.5021 3.90002 21.0598 4.79307 20.642 5.46884C19.6381 7.13525 18.1725 9.25093 16.9484 10.9284C16.2913 11.8288 15.2203 11.9835 14.4195 11.5692ZM9.61085 12.1253C12.7988 13.7585 17.2664 16.2424 20.4408 18.1206C21.4237 18.7025 21.0308 20.0983 19.8854 20.0983C18.0107 20.0983 14.9643 20.0987 11.9337 20.0991C8.93455 20.0997 5.95084 20.1001 4.13361 20.1001C3.21786 20.1001 2.74849 19.1868 3.1374 18.5497C4.45163 16.3971 5.92871 14.2244 7.15673 12.6021C7.70273 11.8785 8.81388 11.7164 9.61085 12.1253Z" fill="white"/>
</g>
<defs>
<clipPath id="clip0_328_61731">
<rect width="24" height="24" fill="white"/>
</clipPath>
</defs>
</svg>
