<svg xmlns="http://www.w3.org/2000/svg" width="24" height="24" fill="none" viewBox="0 0 24 24">
    <path fill="#fff" fill-rule="evenodd" d="M3.048 2.028c-.076.068-.056 18.075.02 18.097.036.012.578.012 1.204.003l1.139-.018-.017-9.045-.017-9.046-1.141-.016c-.628-.009-1.163.002-1.188.025m5.31.606c-.777.012-1.117.038-1.155.09-.064.086-.06 6.026.004 6.023.024 0 .184-.21.355-.463.33-.49.846-1.09.939-1.09.03 0 .055 2.032.055 4.517 0 2.728-.025 4.516-.062 4.516-.082 0-.811-.868-1.053-1.252-.105-.167-.207-.303-.227-.303s-.035 1.366-.033 3.036l.003 3.036 1.18.016c1.082.015 1.181.008 1.205-.09.058-.233.01-17.968-.049-18.01-.033-.023-.557-.035-1.162-.026m3.054.65c-.053.047-.064 2.175-.012 2.175.02 0 .252-.054.518-.12.58-.143.786-.151.787-.03l.002 6.476c0 5.443-.013 6.389-.094 6.404-.051.01-.336-.037-.631-.104a11 11 0 0 0-.578-.123c-.022 0-.032.774-.022 1.72l.018 1.72h2.342V3.276L12.6 3.259c-.628-.009-1.162.003-1.188.025m4.117 1.317.02.698.535.16c.6.182 1.133.41 1.555.67l.285.173v10.814l-.184.117c-.312.198-1.15.56-1.684.727l-.508.159V22h2.342l.018-2.431.017-2.432.451-.342c.552-.42 1.163-1.023 1.476-1.46.359-.502.79-1.358.952-1.89.186-.612.26-2.274.131-2.925-.279-1.402-1.238-2.914-2.397-3.778-.246-.184-.484-.393-.53-.465-.057-.09-.083-.473-.083-1.252l-.001-1.121H15.51z" clip-rule="evenodd"/>
</svg>
