<svg xmlns="http://www.w3.org/2000/svg" width="24" height="24" fill="none" viewBox="0 0 24 24">
    <path fill="#fff" d="M12 4v5.913l5 2.236zm0 0-5 8.148 5-2.235zm0 11.98V20l5-6.92zM12 20v-4.02l-5-2.9z"/>
    <path fill="#fff" d="m12 15.049 5-2.9-5-2.237zm-5-2.9 5 2.9V9.912z"/>
    <path fill="#fff" fill-rule="evenodd" d="m12 15.049-5-2.9L12 4l5 8.148zm-4.667-3.136 4.588-7.476v5.435zm-.068.203 4.656-2.068v4.768zm4.816-2.068v4.768l4.652-2.7zm0-.176 4.588 2.04-4.588-7.475z" clip-rule="evenodd"/>
    <path fill="#fff" fill-rule="evenodd" d="m12 15.918-5-2.84L12 20l5-6.923zm-4.44-2.341 4.36 2.48v3.56zm4.52 2.48v3.56l4.36-6.04z" clip-rule="evenodd"/>
</svg>
