<svg xmlns="http://www.w3.org/2000/svg" width="24" height="24" fill="none" viewBox="0 0 24 24">
    <path fill="#fff" d="M5.182 6.11a7 7 0 0 1 .35-.41l.022-.017.04-.035.01-.01c.403-.373.878-.66 1.395-.844a3.62 3.62 0 0 1 3.753.866c1.535 1.435 1.4 3.751.167 5.287-1.54 2.296-4.2 5.497-.517 8.365.658.512 1.154.94 3.234 1.54-1.36.254-2.626.17-4.033-.184-.995-.562-2.56-1.767-3.094-3.392-.804-2.463 1.418-6.142 2.493-7.56C10.476 7.747 8.09 5.626 6.335 8c-.916 1.237-2.525 4.73-1.969 7.33.332 1.467.765 2.542 2.487 4.016a9 9 0 0 1-.928-.642A9.095 9.095 0 0 1 5.182 6.11"/>
    <path fill="#fff" d="M18.816 17.889q-.165.21-.348.41l-.022.018-.04.033-.011.011c-.404.373-.878.66-1.395.844-1.255.45-2.656.168-3.751-.866-1.536-1.434-1.396-3.752-.17-5.288 1.541-2.294 4.202-5.495.517-8.365-.657-.511-1.152-.938-3.234-1.54a9.06 9.06 0 0 1 4.034.185c.994.564 2.559 1.766 3.093 3.392.805 2.464-1.417 6.143-2.492 7.56-1.473 1.97.912 4.089 2.667 1.716.916-1.238 2.525-4.73 1.968-7.33-.332-1.468-.765-2.543-2.485-4.015q.48.286.928.64a9.096 9.096 0 0 1 .741 12.595"/>
</svg>
