<svg xmlns="http://www.w3.org/2000/svg" width="24" height="24" fill="none" viewBox="0 0 24 24">
    <path fill="#fff" d="M11.999 20.471c4.765 0 8.471-3.97 8.471-8.471s-3.706-8.471-8.471-8.471S3.528 7.499 3.528 12s3.706 8.471 8.47 8.471M21 12a9 9 0 1 1-18 0 9 9 0 0 1 18 0"/>
    <path fill="#fff" d="M12.529 6.705c0-.264-.17-.529-.531-.529-.358 0-.529.265-.529.53v2.41L9.68 7.323c-.142-.136-.408-.158-.66.091-.255.254-.234.52-.091.661l1.805 1.807H8.165c-.2 0-.402.238-.402.528 0 .292.201.53.402.53h2.553l-1.805 1.805c-.139.144-.117.451.089.662.207.207.519.228.662.09l1.805-1.804v3.484h-1.057c-.345 0-.53.237-.53.528s.196.53.53.53h1.057v1.06c0 .264.238.528.53.528a.55.55 0 0 0 .529-.529v-1.06h1.06a.52.52 0 0 0 .53-.529.52.52 0 0 0-.53-.53h-1.06v-3.5L14.35 13.5c.143.137.456.116.662-.09.207-.212.227-.52.085-.663l-1.803-1.805h2.538c.202 0 .402-.169.402-.53 0-.36-.2-.528-.402-.528H13.28l1.808-1.807c.137-.142.164-.407-.09-.66-.255-.25-.52-.23-.663-.09L12.53 9.13z"/>
</svg>
