<svg xmlns="http://www.w3.org/2000/svg" width="24" height="24" fill="none" viewBox="0 0 24 24">
    <path fill="#C9CED6" d="m10.4 6.222.384 3.752 1.425-4.276z"/>
    <path fill="#E1E4E8" d="M8.058 3.9 10.4 6.222l1.81-.525z"/>
    <path fill="#F1F2F4" d="m9.888 9.712.896.262-.385-3.752L8.06 3.9z"/>
    <path fill="#C9CED6" d="m6.143 4.292 2.133 7.035L6.098 15 3 8.089z"/>
    <path fill="#F1F2F4" d="M14.423 5.536 16.5 8.69l-3.778 1.825z"/>
    <path fill="#F7F8F9" d="M18.831 4.413 16.498 8.69l-2.075-3.154z"/>
    <path fill="#E1E4E8" d="m20.988 9.11-4.49-.42 2.332-4.277z"/>
    <path fill="#C9CED6" d="M18.5 12.458c-.09-.157-2.002-3.768-2.002-3.768L21 9.094z"/>
    <path fill="#E1E4E8" d="m12.721 10.515 5.779 1.943-2.002-3.768z"/>
    <path fill="#A83C3B" d="m10.326 11.695 2.935 8.024 3.851-5.67z"/>
    <path fill="#C73C38" d="m11.203 20.1-5.105-5.101 2.178-3.671z"/>
    <path fill="#F1F2F4" d="m12.909 14.158.352 5.562-2.935-8.025z"/>
    <path fill="#E1E4E8" d="m17.112 14.05-4.204.108-2.582-2.463z"/>
    <path fill="#C9CED6" d="m13.26 19.72-.351-5.561 4.204-.11z"/>
    <path fill="#E1E4E8" d="m3 8.089 5.276 3.239-2.133-7.036z"/>
    <path fill="#DB4545" d="m8.276 11.328-2.178 3.67 3.639.708z"/>
    <path fill="#C9CED6" d="m11.203 20.1-5.105-5.101 2.178-3.671z"/>
    <path fill="#E1E4E8" d="m8.276 11.328-2.178 3.67 3.639.708z"/>
</svg>
