<svg xmlns="http://www.w3.org/2000/svg" width="24" height="24" fill="none" viewBox="0 0 24 24">
    <path fill="#fff" d="M12.002 19.2 4 15.216 7.66 9.69 10.9 4.8h2.2l3.24 4.89L20 15.216 12 19.2zm.159-11.87a.38.38 0 0 0 .213.342l2.996 1.471c.029.015.058-.019.041-.046l-2.553-3.853h-.697zm6.907 7.854.282-.14-2.887-4.358c-.017-.026-.058-.014-.058.017v2.98c0 .118.067.225.173.277zm-11.465-1.38L5.027 15.07a.158.158 0 0 0 0 .284l.143.07a.48.48 0 0 0 .43.002l2.212-1.087 4.196 2.061 4.233-2.08a.23.23 0 0 0 0-.414l-.175-.086a.13.13 0 0 1-.07-.114V9.91L12.23 8.06a.13.13 0 0 1-.07-.113v-.149a.156.156 0 0 0-.227-.138L7.95 9.618a.62.62 0 0 0-.347.554zm.474-3.724v3.486l3.667-1.802V8.28zM12 15.832l3.62-1.779L12 12.275l-3.62 1.778z"/>
</svg>
