<svg xmlns="http://www.w3.org/2000/svg" width="24" height="24" fill="none" viewBox="0 0 24 24">
    <path fill="#fff" fill-rule="evenodd" d="M7.184 18.455A8.053 8.053 0 0 1 12 3.948c3.671 0 7.68 2.193 8.649 5.552A9 9 0 1 0 21 12v-.474h-.56a16 16 0 0 1-1.087-.057c-.675-.059-1.445-.173-1.97-.383-.843-.337-1.32-.784-1.864-1.307l-.032-.03c-.545-.524-1.158-1.112-2.22-1.612-1.045-.492-2.202-.413-3.052-.238a7.7 7.7 0 0 0-1.374.422c-.428.18-.843.393-1.263.59 0 0 .824.226 1.23.353q.165.052.324.117.406.163.776.397c.44.283.804.638.953 1.074-.932.123-1.807.533-2.461.917a10 10 0 0 0-1.229.855c-.053.044-.896.786-.896.786s1.087.116 1.623.224c.357.072.838.187 1.34.362.503.176 1.012.406 1.435.701.423.296.733.637.886 1.028.446 1.139.008 2.248-.87 2.872-.867.617-2.186.763-3.505-.142m3.071 1.408a3.6 3.6 0 0 0 .983-.494c1.195-.849 1.823-2.404 1.203-3.989-.244-.623-.71-1.099-1.226-1.46-.518-.361-1.114-.626-1.666-.818a11 11 0 0 0-1.02-.299q.173-.112.35-.217c.73-.429 1.648-.823 2.529-.823 1.327 0 2.316.408 3.26.845l.258.12c.843.396 1.729.811 2.758.811.998 0 1.775-.282 2.311-.574a8.054 8.054 0 0 1-9.74 6.898m8.717-7.48a4 4 0 0 1-1.288.21c-.807 0-1.5-.324-2.382-.735l-.237-.11c-.881-.409-1.901-.841-3.23-.92-.177-.879-.844-1.48-1.414-1.847a5 5 0 0 0-.19-.116q.085-.02.175-.038c.766-.158 1.683-.198 2.458.167.92.434 1.44.932 1.98 1.451l.018.018c.556.534 1.144 1.093 2.17 1.503.57.227 1.307.35 1.94.418" clip-rule="evenodd"/>
</svg>
