<svg xmlns="http://www.w3.org/2000/svg" width="24" height="24" fill="none" viewBox="0 0 24 24">
    <path fill="#fff" d="M20.286 17.082c.003-.447 1.712-.428 1.7-.847-.008-.323-.764-.315-.527-.998.35-1.018.541-2.11.541-3.247C22 6.472 17.523 2 12 2S2 6.472 2 11.99c0 1.14.192 2.235.545 3.256l.021.063c.142.453-.564.63-.564.9 0 .425 1.488.367 1.488.86 0 .43-1.471.562-1.471.995 0 .599 3.257.39 3.299.905.032.397-1.12.42-1.127.845-.011.678 4.446.456 4.446.907 0 .34-2.027.218-2.027.62 0 .403 2.669.659 5.609.659s4.97-.327 4.97-.68-1.893-.28-1.855-.6c.07-.555 4.27-.27 4.27-.914 0-.34-1.155-.418-1.117-.784.053-.516 3.513-.44 3.513-.976 0-.421-1.714-.525-1.712-.962zm-2.681-1.297c-.092.34.961.391.961.747 0 .433-3.212.26-3.18.834.02.36 2.283.421 2.24.798-.063.545-3.505.273-3.539.795-.024.384 1.68.397 1.684.747.003.294-1.34.454-3.908.454-2.928 0-4.35-.157-4.189-.486.151-.307 2.743-.25 2.717-.733s-4.602-.34-4.74-.808c-.115-.389 1.503-.469 1.493-.838-.01-.377-2.073-.291-2.118-.747-.03-.3 1.078-.28 1.03-.656-.035-.274-.492-.236-.763-.8a7.4 7.4 0 0 1-.683-3.102c0-4.076 3.307-7.38 7.388-7.38s7.387 3.304 7.387 7.38a7.4 7.4 0 0 1-.566 2.837c-.347.785-1.128.627-1.217.958z"/>
</svg>
