<svg xmlns="http://www.w3.org/2000/svg" width="24" height="24" fill="none" viewBox="0 0 24 24">
    <path fill="#fff" fill-rule="evenodd" d="M17.948 17.602c.63.785.38 1.94-.52 2.403l-1.587.815a1.63 1.63 0 0 1-2.045-.466l-3.01-4.01-2.21 2.599c-.655.77-1.88.696-2.433-.149l-.765-1.167a1.48 1.48 0 0 1 .057-1.703l2.55-3.38L5.1 8.554a1.58 1.58 0 0 1-.176-1.538l.704-1.666c.387-.915 1.63-1.08 2.247-.3l2.957 3.736 4.067-5.17a1.63 1.63 0 0 1 2.437-.132l1.408 1.432c.578.588.61 1.513.073 2.139l-4.824 5.62zM16.684 4.108a.714.714 0 0 0-1.066.058l-4.625 5.877a.204.204 0 0 1-.319 0L7.16 5.604a.407.407 0 0 0-.692.091l-.704 1.667a.69.69 0 0 0 .077.673l3.184 4.403c.051.07.05.165-.002.235L6.165 16.46a.59.59 0 0 0-.023.681l.765 1.167a.61.61 0 0 0 .973.06l2.786-3.276a.204.204 0 0 1 .318.01l3.543 4.72a.71.71 0 0 0 .895.204l1.587-.815a.692.692 0 0 0 .227-1.051l-4.314-5.375a.2.2 0 0 1 .005-.252l5.197-6.056a.69.69 0 0 0-.032-.936z" clip-rule="evenodd"/>
</svg>
