<svg xmlns="http://www.w3.org/2000/svg" width="24" height="24" fill="none" viewBox="0 0 24 24">
    <path fill="#fff" fill-rule="evenodd" d="M12.022 2h-.044a9.96 9.96 0 0 0-6.55 2.464c-.127.107-.048.307.118.307h12.908c.163 0 .242-.2.119-.307A9.96 9.96 0 0 0 12.023 2M7.796 14.557a.38.38 0 0 1 .313.165 4.74 4.74 0 0 0 3.89 2.025c1.61 0 3.03-.8 3.89-2.025a.39.39 0 0 1 .312-.165h5.171c.15 0 .258.142.216.286C20.364 18.98 16.532 22 11.998 22c-4.532 0-8.364-3.018-9.588-7.157a.222.222 0 0 1 .215-.286zm7.969-5.45a.49.49 0 0 0 .38.194h5.185c.153 0 .26-.144.216-.289a10 10 0 0 0-1.841-3.388.36.36 0 0 0-.276-.128H4.57a.36.36 0 0 0-.276.128 10 10 0 0 0-1.84 3.388.224.224 0 0 0 .215.29h5.184a.48.48 0 0 0 .381-.195A4.74 4.74 0 0 1 12 7.25c1.534 0 2.897.728 3.767 1.857zm.69 4.533a.142.142 0 0 0 .132.192v-.003h5.056c.11 0 .205-.079.223-.186a10 10 0 0 0-.026-3.433.23.23 0 0 0-.223-.184h-5.085c-.1 0-.166.105-.129.197a4.9 4.9 0 0 1 .344 1.778 4.7 4.7 0 0 1-.291 1.64m-9.042.192c.1 0 .165-.1.131-.192v.003a4.5 4.5 0 0 1-.291-1.64c0-.63.123-1.228.344-1.777a.142.142 0 0 0-.129-.197H2.383a.224.224 0 0 0-.223.184C2.055 10.793 2 11.442 2 12q0 .84.134 1.644a.226.226 0 0 0 .223.187z" clip-rule="evenodd"/>
</svg>
