<svg xmlns="http://www.w3.org/2000/svg" width="24" height="24" fill="none" viewBox="0 0 24 24">
    <path fill="#fff" fill-rule="evenodd" d="M16.001 5.2q-.262.385-.445.82a7 7 0 0 0-.157.405c-.165.461-.27.881-.373 1.303l-.005.019c-.132.533-.264 1.067-.525 1.687a5 5 0 0 1-.48.88l-.006.006-.002.004c2.325.684 4.925-.224 5.868-2.452.58-1.368.257-3.08-1.052-3.672-1.054-.476-2.088-.086-2.822 1M3.184 12.023q.147-.447.38-.854.111-.194.224-.37c.264-.408.532-.742.8-1.076l.026-.031c.335-.42.672-.84.998-1.414q.234-.407.386-.854l.006-.019.018-.058c1.897 1.55 2.71 4.266 1.52 6.362-.729 1.289-2.258 2.021-3.487 1.268-.99-.605-1.29-1.702-.871-2.954M21 17.251c-2.51 0-4.544-2.108-4.544-4.708h-2.654C13.802 16.662 17.025 20 21 20zm-8.663-4.708c0 4.119-3.223 7.457-7.198 7.457v-2.75c2.51 0 4.544-2.107 4.544-4.707zm0 0-.002-8.324H9.68l.002 8.324z" clip-rule="evenodd"/>
</svg>
