<svg xmlns="http://www.w3.org/2000/svg" width="24" height="24" fill="none" viewBox="0 0 24 24">
    <path fill="#fff" d="M10.74 16.816c.493 1.832 2.262 3.23 3.156 3.172.031-.002 3.39-.63 5.227-3.715 1.431-2.4.944-4.717-1.002-4.768-.7.052-8.321 1.82-7.381 5.31m7.201-11.77-.002-.001.003-.002a8.51 8.51 0 0 0-9-1.304 5 5 0 0 0-.542.266q-.181.095-.356.197l.028.01a3.9 3.9 0 0 0-.9.856c-2.451 3.252 5.764 5.615 10.156 5.622 2.02 1.458 2.587-4.1.613-5.643" opacity=".4"/>
    <path fill="#fff" d="M9.437 5.113C8.31 6.816 4.55 8.016 3.931 7.829l-.004-.008.078-.154A9.07 9.07 0 0 1 7.403 4.05a2.65 2.65 0 0 1 1.243-.332c1.674.032.8 1.382.791 1.396M8.512 17.15c.082.535-.002 2.649-.11 2.827-.094.006-.29.018-.856-.301a9.04 9.04 0 0 1-3.95-4.623 9.1 9.1 0 0 1-.043-6.36c.65.867 1.4 1.65 2.039 2.526.607.833 1.444 2.192 1.614 2.482 1.057 1.803 1.225 2.915 1.305 3.449M21 11.82a9 9 0 0 1-.626 3.32c-1.06 1.145-8.208-1.671-8.278-1.703-.978-.429-3.953-1.74-4.221-3.796-.386-2.957 5.59-5.019 8.216-5.098.315.004 1.273.015 1.832.471a9 9 0 0 1 2.274 3.068c.53 1.174.805 2.45.803 3.739m-4.837 8.017c-.78.365-1.637.1-1.415-.662.428-1.464 4.164-2.964 4.99-3.045.101-.01.144.06.1.139a9.1 9.1 0 0 1-3.675 3.568"/>
</svg>
