<svg xmlns="http://www.w3.org/2000/svg" width="24" height="24" fill="none" viewBox="0 0 24 24">
    <path fill="#fff" d="m17.63 5.895-4.47-2.584a2.32 2.32 0 0 0-2.32 0l-4.47 2.58a3.14 3.14 0 0 0-1.57 2.72v6.781c0 1.123.6 2.158 1.57 2.716l4.47 2.58a2.31 2.31 0 0 0 2.32 0l4.47-2.58a3.14 3.14 0 0 0 1.57-2.716v-6.78c0-1.123-.6-2.158-1.57-2.717m-9.008 2.66L9.2 8.36a.64.64 0 0 0 .416-.475l.244-1.209a.07.07 0 0 1 .067-.053c.032 0 .06.02.066.053l.244 1.21a.64.64 0 0 0 .42.474l.578.195a.066.066 0 0 1 0 .126l-.579.195a.64.64 0 0 0-.419.475l-.244 1.21a.07.07 0 0 1-.066.052.07.07 0 0 1-.067-.053l-.244-1.21a.63.63 0 0 0-.416-.474l-.578-.195a.07.07 0 0 1-.045-.063c0-.029.017-.053.045-.063m1.353 6.234-.778.262a.85.85 0 0 0-.558.635l-.328 1.62a.09.09 0 0 1-.088.07c-.042 0-.08-.027-.087-.07l-.328-1.62a.85.85 0 0 0-.558-.635l-.778-.262a.09.09 0 0 1-.06-.083c0-.04.024-.074.06-.084l.778-.261a.85.85 0 0 0 .558-.635l.328-1.62a.09.09 0 0 1 .087-.07c.043 0 .081.027.088.07l.328 1.62c.06.296.271.537.558.634l.778.262c.034.01.06.046.06.084a.09.09 0 0 1-.06.083m7.484-2.611-1.643.558a1.79 1.79 0 0 0-1.178 1.339l-.694 3.423a.19.19 0 0 1-.185.15.19.19 0 0 1-.186-.15l-.693-3.423a1.79 1.79 0 0 0-1.179-1.339l-1.642-.558A.19.19 0 0 1 9.934 12c0-.08.048-.154.125-.178l1.642-.558a1.79 1.79 0 0 0 1.179-1.339l.693-3.423a.19.19 0 0 1 .186-.15c.09 0 .167.063.185.15l.694 3.423a1.79 1.79 0 0 0 1.178 1.339l1.643.558a.19.19 0 0 1 .125.178c0 .08-.048.154-.125.178"/>
</svg>
