<svg width="24" height="24" viewBox="0 0 24 24" fill="none" xmlns="http://www.w3.org/2000/svg">
<path fill-rule="evenodd" clip-rule="evenodd" d="M3 20.5L8.34133 6.15152C9.01914 4.47631 10.2827 3.52804 11.9624 3.50061V3.50002C11.9746 3.50002 11.9866 3.50007 11.9986 3.50016C12.0116 3.50003 12.0246 3.5 12.0376 3.5V3.50062C13.7174 3.52807 14.9809 4.47634 15.6588 6.15154L21 20.5L17.6927 19.3723L13.1297 7.1151C12.852 6.43692 12.5313 6.19296 11.9994 6.18231C11.4684 6.19329 11.148 6.43739 10.8703 7.11508L6.30757 19.3721L3 20.5ZM14.3241 15.0362C14.3241 16.2895 13.2976 17.3055 12.0314 17.3055C10.7651 17.3055 9.73864 16.2895 9.73864 15.0362C9.73864 13.7829 10.7651 12.7669 12.0314 12.7669C13.2976 12.7669 14.3241 13.7829 14.3241 15.0362Z" fill="url(#paint0_linear_558_55)"/>
<defs>
<linearGradient id="paint0_linear_558_55" x1="3" y1="3.5" x2="3" y2="20.5" gradientUnits="userSpaceOnUse">
<stop stop-color="#42C1FD"/>
<stop offset="1" stop-color="#1F8EFA"/>
</linearGradient>
</defs>
</svg>
