<svg width="24" height="24" viewBox="0 0 24 24" fill="none" xmlns="http://www.w3.org/2000/svg">
<path d="M4 12C4 7.58172 7.58172 4 12 4C16.4183 4 20 7.58172 20 12C20 16.4183 16.4183 20 12 20C7.58172 20 4 16.4183 4 12Z" fill="#0E5BFF"/>
<path fill-rule="evenodd" clip-rule="evenodd" d="M12 17.6667C15.1296 17.6667 17.6667 15.1296 17.6667 12C17.6667 8.87039 15.1296 6.33334 12 6.33334C8.8704 6.33334 6.33334 8.87039 6.33334 12C6.33334 15.1296 8.8704 17.6667 12 17.6667ZM11.3333 10.3333C10.7811 10.3333 10.3333 10.7811 10.3333 11.3333V12.6667C10.3333 13.219 10.7811 13.6667 11.3333 13.6667H12.6667C13.219 13.6667 13.6667 13.219 13.6667 12.6667V11.3333C13.6667 10.7811 13.219 10.3333 12.6667 10.3333H11.3333Z" fill="white"/>
</svg>
