<svg width="24" height="24" viewBox="0 0 24 24" fill="none" xmlns="http://www.w3.org/2000/svg">
<path fill-rule="evenodd" clip-rule="evenodd" d="M12.4866 20.7155C12.3846 20.8917 12.1975 21 11.9952 21C11.7929 21 11.6058 20.8915 11.5039 20.7152L3.07742 6.13809C3.00127 6.00637 2.98025 5.84944 3.01901 5.70206C3.05777 5.55469 3.15312 5.42892 3.284 5.35256C5.84845 3.85635 8.8259 3 12 3C15.1741 3 18.1515 3.85635 20.716 5.35256C20.8469 5.42892 20.9423 5.55473 20.981 5.7022C21.0198 5.84967 20.9987 6.00661 20.9224 6.13833L12.4866 20.7155ZM12.2226 18.8792C12.2671 18.8185 12.3171 18.7321 12.3853 18.6143L18.6027 7.87069C18.3336 7.89905 18.0593 7.89309 17.7864 7.86502C16.8749 7.77127 15.835 7.40939 14.8213 7.05666L14.8195 7.056C14.7097 7.0178 14.6002 6.97969 14.4912 6.94205C13.3358 6.54305 12.1948 6.17775 11.1152 6.10936C10.2405 6.05395 9.43158 6.19519 8.7044 6.66975C8.60456 6.73491 8.56411 6.8595 8.59884 6.97359L12.2226 18.8792ZM10.2241 16.2233L7.34048 6.74925C7.27504 6.53433 7.34015 6.30066 7.50694 6.15155C8.62579 5.15138 9.91125 4.88344 11.1865 4.9642C12.4389 5.04356 13.7158 5.46145 14.8597 5.85652C14.9641 5.89256 15.0672 5.92833 15.169 5.96367L15.17 5.964C16.2211 6.32873 17.1301 6.64416 17.9018 6.72356C18.3131 6.76584 18.6391 6.73434 18.8978 6.63333C18.9262 6.62227 18.9547 6.61153 18.9834 6.60075C19.1668 6.5318 19.3544 6.46125 19.5078 6.29747C19.527 6.2557 19.5371 6.22186 19.5383 6.18792C19.5404 6.12736 19.5217 6.06469 19.4866 6.01523C19.4459 5.958 19.3755 5.9227 19.2347 5.8522C17.0554 4.76109 14.5994 4.14741 12 4.14741C9.4004 4.14741 6.94425 4.76119 4.76489 5.85244C4.62408 5.92294 4.55368 5.95819 4.51304 6.01542C4.47797 6.06483 4.45918 6.1275 4.4613 6.18806C4.46375 6.25819 4.50421 6.32817 4.58512 6.46819L10.2241 16.2233Z" fill="url(#paint0_linear_654_132)"/>
<defs>
<linearGradient id="paint0_linear_654_132" x1="12" y1="3" x2="12" y2="21" gradientUnits="userSpaceOnUse">
<stop stop-color="#66B95F"/>
<stop offset="1" stop-color="#95CE96"/>
</linearGradient>
</defs>
</svg>
