<svg width="24" height="24" viewBox="0 0 24 24" fill="none" xmlns="http://www.w3.org/2000/svg">
<path d="M11.9981 5.33337C7.58072 5.33337 4 9.13269 4 13.8193V17.4558C4 18.1248 4.511 18.6667 5.14179 18.6667C5.77258 18.6667 6.28732 18.1248 6.28732 17.4558V13.8193C6.28732 13.1483 6.79644 12.6065 7.4291 12.6065C8.05989 12.6065 8.57088 13.1483 8.57088 13.8193V17.4558C8.57088 18.1248 9.08191 18.6667 9.71268 18.6667C10.3453 18.6667 10.8563 18.1248 10.8563 17.4558V13.8193C10.8563 13.1483 11.3673 12.6065 11.9981 12.6065C12.6308 12.6065 13.1436 13.1483 13.1436 13.8193V17.4558C13.1436 18.1248 13.6547 18.6667 14.2854 18.6667C14.9162 18.6667 15.4272 18.1248 15.4272 17.4558V13.8193C15.4272 13.1483 15.9382 12.6065 16.5728 12.6065C17.2035 12.6065 17.7145 13.1483 17.7145 13.8193V17.4558C17.7145 18.1248 18.2255 18.6667 18.8582 18.6667C19.489 18.6667 20 18.1248 20 17.4558V13.8193C20 9.13269 16.4174 5.33337 11.9981 5.33337Z" fill="#7133F5"/>
</svg>
