<svg width="24" height="24" viewBox="0 0 24 24" fill="none" xmlns="http://www.w3.org/2000/svg">
<path d="M12.0002 17.7448C15.1728 17.7448 17.7448 15.1728 17.7448 12.0002C17.7448 8.82755 15.1728 6.25562 12.0002 6.25562C8.82755 6.25562 6.25562 8.82755 6.25562 12.0002C6.25562 15.1728 8.82755 17.7448 12.0002 17.7448Z" fill="white"/>
<path d="M4 12.0001C4 16.4185 7.58181 20 12.0001 20C16.4185 20 20 16.4185 20 12.0001C20 7.58181 16.4185 4 12.0001 4C7.58181 4 4 7.58181 4 12.0001ZM12.0001 17.0274C9.29577 17.0274 6.97714 14.8349 6.97714 12.1305C6.97714 11.4955 7.09796 10.7625 7.31774 10.2057L9.4763 11.1249C9.4693 11.1549 9.46032 11.1942 9.45051 11.239C9.38631 11.4496 9.34864 11.6673 9.33838 11.8872C9.33384 11.9307 9.33225 11.9746 9.33361 12.0184C9.33361 12.0285 9.33502 12.0383 9.33558 12.0484C9.34044 12.4451 9.4343 12.8356 9.61022 13.1912C9.78614 13.5468 10.0396 13.8584 10.352 14.103C10.6644 14.3476 11.0277 14.519 11.4151 14.6044C11.8026 14.6899 12.2042 14.6873 12.5905 14.5969L13.8173 16.6797C13.2398 16.9101 12.6236 17.0281 12.0018 17.0274M16.6354 13.9894L11.1577 11.6685L14.6706 11.6531C14.545 10.3787 13.2353 9.34427 12.0001 9.34427C11.72 9.34393 11.4417 9.39035 11.1768 9.48163L9.961 7.41614C10.6006 7.12316 11.296 6.97197 11.9996 6.97293C14.704 6.97293 17.015 9.20578 17.015 11.9102C17.015 12.639 16.9208 13.3679 16.6349 13.9894" fill="#1896A4"/>
</svg>
