<svg xmlns="http://www.w3.org/2000/svg" width="24" height="24" fill="none" viewBox="0 0 24 24">
    <g clip-path="url(#ACT__a)">
        <path fill="#767DFF" d="M24 0H0v24h24z"/>
        <path fill="#fff" d="M10.216 4.5h3.568c.123 0 .245.033.351.098a.7.7 0 0 1 .257.269l5.52 10.266a.75.75 0 0 1 0 .708l-1.76 3.292a.7.7 0 0 1-.257.27.7.7 0 0 1-.352.097H6.457a.7.7 0 0 1-.352-.098.7.7 0 0 1-.256-.269l-1.76-3.292a.75.75 0 0 1 0-.707L9.6 4.867a.7.7 0 0 1 .257-.269.7.7 0 0 1 .351-.098zM12 8.584 8.28 15.5h7.44z"/>
    </g>
    <defs>
        <clipPath id="ACT__a">
            <path fill="#fff" d="M0 0h24v24H0z"/>
        </clipPath>
    </defs>
</svg>
