<svg xmlns="http://www.w3.org/2000/svg" width="24" height="24" fill="none" viewBox="0 0 24 24">
    <g clip-path="url(#ADA__a)">
        <path fill="#246DD3" d="M24 0H0v24h24z"/>
        <path fill="#fff" d="M11.809 4.933c.349-.179.778.227.59.569-.103.27-.51.342-.729.136-.218-.2-.145-.599.146-.712zm-3.749.39c.219-.085.48.1.46.322.02.241-.285.426-.503.305-.284-.106-.248-.555.043-.626m7.686.635c-.335-.043-.386-.541-.073-.64.255-.115.48.099.517.327-.05.192-.219.37-.444.313m-6.834.897c.356-.214.859.106.8.498-.014.406-.56.64-.873.37-.305-.213-.255-.705.073-.868m5.407.235c.16-.392.8-.406.983-.029.174.3-.044.67-.364.77-.415.07-.815-.357-.619-.741m-2.962.712c0-.335.32-.584.655-.605.219.042.46.135.553.348.175.293.022.698-.298.84-.146.072-.32.043-.48.036-.24-.114-.444-.341-.43-.612zM5.783 8.3c.32-.192.757.157.632.499-.065.284-.472.406-.705.22-.248-.177-.211-.597.073-.719m11.979 0c.276-.213.728.029.691.356.022.306-.364.541-.64.385-.299-.136-.335-.57-.051-.74m-4.833.605c.227-.073.472-.072.698.004.227.076.421.222.554.416.335.47.16 1.196-.371 1.467-.546.328-1.347.05-1.55-.534-.233-.527.102-1.189.67-1.352m-2.656.05c.502-.228 1.179-.035 1.419.456.291.484.066 1.154-.444 1.402-.51.285-1.237.072-1.477-.448-.284-.498-.037-1.182.502-1.41m-2.664.876c.037-.313.343-.513.655-.534.328.036.59.284.626.605-.022.32-.276.64-.626.64-.393.03-.728-.348-.655-.711m7.86-.47c.4-.213.946.107.932.541.03.47-.582.798-.975.527-.415-.228-.386-.868.043-1.068m-6.28 1.644c.231-.059.476-.042.697.048s.406.249.525.451c.255.414.146.997-.24 1.296-.495.449-1.412.264-1.674-.342-.305-.555.058-1.303.691-1.453m5.043 0c.452-.128.982.043 1.223.435.327.456.167 1.14-.306 1.424-.51.342-1.281.164-1.557-.37-.335-.548 0-1.325.64-1.495zm-8.042.506c.4-.142.845.285.684.67-.102.348-.61.477-.873.213-.313-.235-.197-.776.19-.883m10.895.563a.6.6 0 0 1 .155-.429.62.62 0 0 1 .42-.198c.27.043.539.257.517.549.029.377-.452.64-.786.455-.16-.07-.24-.227-.306-.377m-12.874-.37c.247-.1.545.1.487.355-.014.293-.459.406-.626.165-.145-.171-.058-.428.146-.52zm15.247 0c.174-.121.443-.043.509.149.116.213-.095.499-.335.463-.342.028-.458-.47-.174-.62zm-8.96 1.395c.634-.157 1.318.356 1.325.982.036.641-.633 1.211-1.288 1.062a1.08 1.08 0 0 1-.635-.363 1.03 1.03 0 0 1-.246-.677c0-.463.365-.904.845-.997zm2.519 0c.647-.17 1.346.35 1.339.997.036.62-.619 1.168-1.26 1.04-.596-.071-1.04-.705-.873-1.268.088-.37.408-.676.794-.769m-4.862.391c.451-.07.873.406.685.812-.132.434-.787.556-1.078.2-.342-.342-.087-.97.393-1.012m7.394.022c.393-.164.888.17.852.584.022.456-.582.776-.975.505-.437-.242-.364-.946.123-1.089m2.06 1.994c-.153-.285.131-.655.451-.605.16 0 .277.12.379.227.022.164.058.357-.088.492-.196.235-.633.163-.742-.114m-11.834-.527c.299-.192.728.1.662.434-.036.307-.43.477-.684.307-.276-.157-.27-.599.022-.741m5.96.634c.394-.172.896.163.86.576.028.463-.59.784-.976.506-.436-.235-.364-.94.117-1.082m-2.765.62c.342-.172.794.12.757.483.015.3-.291.556-.59.506-.254 0-.421-.221-.501-.427 0-.228.102-.478.342-.57zm5.604 0c.342-.207.83.091.8.476.008.413-.545.67-.873.406a.518.518 0 0 1 .073-.876zm.968 2.313c-.153-.213.029-.491.277-.54.204.042.414.184.364.405-.023.306-.48.398-.64.142zm-7.722-.192c.058-.178.204-.356.423-.307.32.022.414.485.137.627-.254.157-.538-.064-.56-.32m3.727.206c.057-.263.414-.39.647-.249.146.064.197.228.233.37l-.058.214c-.095.114-.218.22-.371.213-.298.036-.568-.284-.451-.548"/>
    </g>
    <defs>
        <clipPath id="ADA__a">
            <path fill="#fff" d="M0 0h24v24H0z"/>
        </clipPath>
    </defs>
</svg>
