<svg xmlns="http://www.w3.org/2000/svg" width="24" height="24" fill="none" viewBox="0 0 24 24">
    <g clip-path="url(#AIT__a)">
        <path fill="url(#AIT__b)" d="M24 0H0v24h24z"/>
        <path fill="#fff" d="M10.488 7.186a1.4 1.4 0 0 0-.844-.52h3.249c.52 0 .862.489.969.729l3.47 6.338v2.778c-.075.546-.417.826-.804.826-.31 0-.777-.51-.889-.764l-4.484-8.565-.662-.822zm1.702 7.925H7.302c-.146.071-.462.222-.502.253-.035.031-.298 1.325-.422 1.97h6.658c.165 0 .267-.183.187-.33z"/>
        <path fill="#fff" d="M7.364 15.182c-.845 1.626.746 2.142.786 2.15H5.168c-1.347 0-1.258-1.084-1.044-1.626 1.409-2.662 4.249-8.045 4.347-8.271.12-.285.462-.77 1.04-.77.462 0 .782.254.88.379l.755.955c-.978 1.854-3.111 5.88-3.782 7.183M20 7.178v9.498a.65.65 0 0 1-.645.658h-2.884c.59 0 .809-.533.862-.8v-9.36c0-.28.258-.511.533-.511h1.632c.28 0 .502.23.502.51z"/>
    </g>
    <defs>
        <linearGradient id="AIT__b" x1="5.942" x2="13.726" y1="7.244" y2="19.905" gradientUnits="userSpaceOnUse">
            <stop stop-color="#06A9EE"/>
            <stop offset="1" stop-color="#00529B"/>
        </linearGradient>
        <clipPath id="AIT__a">
            <path fill="#fff" d="M0 0h24v24H0z"/>
        </clipPath>
    </defs>
</svg>
