<svg xmlns="http://www.w3.org/2000/svg" width="24" height="24" fill="none" viewBox="0 0 24 24">
    <g clip-path="url(#AVA__a)">
        <path fill="#393969" d="M24 0H0v24h24z"/>
        <path fill="#fff" d="M17.546 4H5.581c-.366 0-.446.24-.44.36v3.166c-.006.365.268.48.4.474h4.177v10.663c0 .817.777 1.325 1.252 1.325.776.006 2.428.023 2.782 0 .36-.028.537-.394.537-.571V8h4.183c.286 0 .377-.286.383-.417 0-.206.011-1.16 0-2.206C18.838 4.337 18.095 4 17.541 4z"/>
    </g>
    <defs>
        <clipPath id="AVA__a">
            <path fill="#fff" d="M0 0h24v24H0z"/>
        </clipPath>
    </defs>
</svg>
