<svg xmlns="http://www.w3.org/2000/svg" width="24" height="24" fill="none" viewBox="0 0 24 24">
    <g clip-path="url(#AVAX__a)">
        <path fill="#E84142" d="M24 0H0v24h24z"/>
        <path fill="#fff" d="M8.015 19h-2.69c-.565 0-.845 0-1.015-.105a.67.67 0 0 1-.31-.53c-.01-.2.13-.44.41-.925L11.05 5.9c.285-.49.43-.735.61-.825.19-.1.425-.1.62 0 .18.09.32.335.6.825l1.37 2.35.005.01q.338.502.53 1.075c.075.3.075.625 0 .93-.126.384-.304.75-.53 1.085l-3.49 6.08-.01.02a4.4 4.4 0 0 1-.68 1 2.1 2.1 0 0 1-.825.475C8.965 19 8.65 19 8.015 19m6.795 0h3.85c.575 0 .86 0 1.03-.11.185-.12.3-.315.31-.53.01-.195-.126-.425-.395-.88l-.03-.05-1.93-3.25-.02-.04c-.27-.45-.41-.68-.585-.77a.67.67 0 0 0-.615 0c-.18.09-.32.33-.6.81l-1.93 3.255v.01c-.285.48-.425.72-.415.915.01.215.125.415.31.535.165.105.45.105 1.02.105"/>
    </g>
    <defs>
        <clipPath id="AVAX__a">
            <path fill="#fff" d="M0 0h24v24H0z"/>
        </clipPath>
    </defs>
</svg>
