<svg xmlns="http://www.w3.org/2000/svg" width="24" height="24" fill="none" viewBox="0 0 24 24">
    <g clip-path="url(#BERRY__a)">
        <path fill="url(#BERRY__b)" d="M24 0H0v24h24z"/>
        <path fill="#fff" d="M17.935 19.997c-2.256-.114-4.034-1.872-4.034-3.985 0-.138.089-.277.208-.36.772-.443 1.277-1.218 1.277-2.132 0-1.385-1.188-2.52-2.673-2.52h-2.584C9.505 11 9 11.47 9 12.08V20H6.176A2.177 2.177 0 0 1 4 17.826v-7.764c0-.734.367-1.411.961-1.806l5.824-3.896a2.23 2.23 0 0 1 2.431 0l5.824 3.896a2.17 2.17 0 0 1 .96 1.806v7.735a2.183 2.183 0 0 1-2.065 2.2"/>
    </g>
    <defs>
        <linearGradient id="BERRY__b" x1="8.965" x2="14.567" y1="4.562" y2="20" gradientUnits="userSpaceOnUse">
            <stop stop-color="#28D0FA"/>
            <stop offset="1" stop-color="#635BD7"/>
        </linearGradient>
        <clipPath id="BERRY__a">
            <path fill="#fff" d="M0 0h24v24H0z"/>
        </clipPath>
    </defs>
</svg>
