<svg xmlns="http://www.w3.org/2000/svg" width="24" height="24" fill="none" viewBox="0 0 24 24">
    <g clip-path="url(#BLZ__a)">
        <path fill="#275589" d="M24 0H0v24h24z"/>
        <path fill="#fff" d="M12 6.618A1.31 1.31 0 1 0 12 4a1.31 1.31 0 0 0 0 2.618M12 20a1.309 1.309 0 1 0 0-2.618A1.309 1.309 0 0 0 12 20m.468-12.675h-.936v1.87h.936zm0 7.48h-.936v1.87h.936zM6.618 12A1.309 1.309 0 1 0 4 12a1.309 1.309 0 0 0 2.618 0m12.073-1.31a1.31 1.31 0 1 1 0 2.62 1.31 1.31 0 0 1 0-2.62M7.325 12.468v-.935h1.87v.935zm7.48 0v-.935h1.87v.935zm-6.617-6.12A1.31 1.31 0 1 1 6.336 8.2a1.31 1.31 0 0 1 1.852-1.852m9.465 11.306a1.31 1.31 0 0 0 .283-1.427 1.31 1.31 0 1 0-.284 1.427M9.41 8.065 8.073 9.411l1.236 1.243 1.338-1.345zm5.259 5.259-1.347 1.346 1.244 1.243 1.338-1.345zm1.137-5.13a1.31 1.31 0 0 0 2.135-.425 1.309 1.309 0 1 0-2.135.424m-7.614 9.454a1.31 1.31 0 0 1-1.851 0 1.31 1.31 0 0 1 0-1.852 1.31 1.31 0 1 1 1.851 1.852m2.331-4.172a2.08 2.08 0 0 0 2.275.452A2.08 2.08 0 0 0 14.087 12a2.087 2.087 0 1 0-3.563 1.476m5.418-4.065-1.36-1.353-1.244 1.244 1.36 1.36zm-5.259 5.265-1.36-1.36L8.08 14.56l1.36 1.353z"/>
    </g>
    <defs>
        <clipPath id="BLZ__a">
            <path fill="#fff" d="M0 0h24v24H0z"/>
        </clipPath>
    </defs>
</svg>
