<svg xmlns="http://www.w3.org/2000/svg" width="24" height="24" fill="none" viewBox="0 0 24 24">
    <g clip-path="url(#CGG__a)">
        <path fill="#14161A" d="M24 0H0v24h24z"/>
        <path fill="#fff" d="M11.921 4 7.29 6.526v5.053l.77.421-.77.421v5.053L11.867 20l4.686-2.526v-2.948h-2.227l-2.405 1.28-2.105-1.12v.94l2.105 1.14 2.682-1.423h1.108v1.71l-3.79 2.105-3.79-2.105v-4.21l.73-.405 3.06 1.667 2.758-1.503-.774-.442-1.984 1.103L9.648 12l-.783-.438-.733-.404v-4.21l3.79-2.106 3.789 2.105V8h.842V6.526zm4.632 4.4h-.842v2.758l-.729.404-3.06-1.667-2.704 1.473.792.43 1.911-1.061 1.634.905 1.579.872-.008.004.585.324v1.263h.842v-1.684l-.77-.421.77-.421z"/>
        <path fill="#fff" d="M15.484 6.69c-.05-.004-.06.072-.055.106 0 .08.147 0 .164-.017.013-.017-.042-.084-.11-.089m.69-.025c-.055-.013-.11.055-.13.093 0 .105.084.042.13 0 .025-.026.06-.085 0-.093m-.539-.337c-.05-.008-.042-.063-.034-.084.03-.063.127 0 .127.038q0 .064-.093.046m.505 1.032a.106.106 0 0 1 .068-.127c.1.043.042.177.03.232-.013.05-.072-.008-.098-.105m.354.505c-.11.021-.223.152-.265.21l.265.03c.042-.088.11-.265 0-.24m-.808.038c-.06-.025-.11.105-.127.168h.257c-.017-.042-.071-.139-.126-.168zm.307-.038c-.042.025-.08-.055-.093-.097.026-.076.093-.05.131-.02.042.024.013.083-.038.117m.135-.206c-.034.017-.14-.076-.19-.127 0-.059.085-.037.123-.025.029.013.109.126.067.152m-.27.004c.021-.055-.054-.063-.092-.063l-.072.126c.042 0 .143-.013.169-.063zm-4.05 3.04c-.021-.004-.03-.059-.03-.084.06-.063.08 0 .093.02.008.018-.034.072-.063.064m-.425-.135c-.009-.05-.038-.067-.051-.071h.202c-.017.03-.05.092-.038.105.021.017-.008.093-.063.08-.055-.017-.042-.055-.05-.114m5.073-1.351c-.03 0-.113-.118-.155-.177.059.067.349 0 .357.017.013.02-.164.16-.202.16m.106-.46c-.026-.041-.148-.033-.203-.025a.3.3 0 0 0 .097.089c.042.017.135-.004.106-.063m-.687.119c-.042-.009-.08.03-.092.05.012.055.063.046.105.055.042.008.105-.025.1-.076-.003-.042-.062-.017-.113-.03m.32-.047a.113.113 0 0 0-.122-.1c0 .033-.017.121-.021.21-.008.113.072.151.118.151s.038-.155.021-.26z"/>
        <path fill="#fff" d="M16.608 9.339c.03-.068-.244-.21-.126-.181.151.033.138.256.126.18m-.345.122c-.043.02-.026-.089-.013-.148a.4.4 0 0 1 .151 0c.043.021-.084.127-.138.148m-.186.24c-.025-.047.013-.11.034-.135.084 0 .076.198.063.219-.012.017-.063-.025-.097-.084m-.252-.16-.021-.362a.5.5 0 0 1 .147-.042c.063.004.03.042.03.092 0 .042-.06.042-.089.038v.236a.3.3 0 0 0 .088-.021c.055-.025-.008-.076-.029-.135-.017-.059.025-.021.143 0 .122.021.05.16 0 .156-.046 0-.042.02-.055.071-.012.047-.155.101-.21.085-.059-.017 0-.05 0-.118zm-.13-.83c-.043-.012-.064-.076-.068-.105l.265-.03c.05.022.148.076.13.118-.016.051-.281.03-.328.017m-.047.796c-.05 0-.05-.067-.042-.105.05-.042.11.008.118.03.012.016-.013.075-.076.075m.076.173c-.017.025-.072-.055-.097-.101a.3.3 0 0 1 .097-.017c.03.008.025.084 0 .118m.619.34a.06.06 0 0 1-.021-.07c.126-.013.143.121.143.142s-.089-.042-.127-.071zm-.177.194c-.038.013-.072-.105-.085-.164a.1.1 0 0 1 .085 0c.042.021.05.152 0 .169zm-.312.068c-.042-.03.017-.114.05-.152.013 0 .043.009.06.042.016.034-.06.143-.11.11m-.194-.22c-.067 0-.063-.062-.05-.092.03-.012.093-.033.114-.017.03.017.02.11-.064.11m1.049.367c-.021-.034-.282-.038-.232-.025 0 .021.013.067.009.084 0 .025.244-.02.223-.059m-.143-.24c.012.076-.278.202-.101.177.219-.03.185-.232.1-.173z"/>
        <path fill="#fff" d="M16.258 10.483c-.03.038-.012.093 0 .118.047 0 .148-.008.186-.038.046-.034.03-.16 0-.19s-.143.068-.181.114zm-.631.105c.02-.02.076-.197.1-.282 0 .085.14.173.207.21v.072c-.11.013-.32.026-.303 0zm.56.96c-.042-.008-.101.017-.127.03 0 .03.102.063.127.055.025-.013.046-.072 0-.084m.177-.13c-.034-.063.18.03.185.034l-.03.092a.45.45 0 0 1-.155-.126m-.068-.14c-.025-.062.047-.1.089-.113v.19c0 .017-.055 0-.089-.076m-.294-.222c-.055-.047.02-.152.067-.198.046-.004.147 0 .16.042.017.055-.16.21-.227.156m-.821 1.478c-.022-.009-.009-.064 0-.093.071.017.21.059.21.093 0 .042-.185.004-.21 0m-.08-.156c-.051-.017.02-.126.058-.177.026.008.076.034.085.067.008.042-.085.127-.143.11m.357-.38c-.067 0-.075-.21-.071-.31.13-.072.18.147.202.218.025.068-.055.097-.135.093zm-.492-.247a.23.23 0 0 0 .084.197c.093-.042.03-.126.017-.185-.004-.042.151-.19.227-.257.055 0 .181-.004.236-.012s.021-.063 0-.093c-.11-.004-.328-.004-.341.034-.017.046-.202.198-.223.316m-.792.665c-.042 0-.004.071.017.11.042 0 .135-.01.126-.047-.008-.046-.097-.059-.143-.063m-.223.042c-.042-.042-.097.067-.122.126.194 0 .105.143.135.135a1 1 0 0 1 .16.021c0 .072.008.21.042.227.03.017.202-.143.286-.227-.042-.03-.135-.101-.194-.126-.075-.03-.193 0-.265-.03-.067-.025.009-.076-.042-.126m-.341-.009c.004-.067.042-.202.16-.18.118.02-.055.126-.16.18m-.29.232c-.043-.034-.173.034-.232.067l.03.047c.07.008.235.017.273 0 .05-.021-.013-.072-.067-.114zm-.123-.194c-.05-.02-.088.068-.105.114.063 0 .19-.009.194-.042.008-.042-.03-.042-.089-.072m.897-1.162a4 4 0 0 1-.324.14c.173.104.535.306.585.286.063-.026 0-.198 0-.236 0-.034-.219-.215-.26-.19m2.038 1.444c-.034-.016-.063.026-.076.047a3 3 0 0 0-.042.35c.013.08.143 0 .177-.018.034-.016-.034-.155-.059-.18q-.038-.046.025-.085c.042-.017.017-.092-.025-.114m-.337.371c-.042 0-.1-.139-.126-.21.126-.022.126.075.177.105.042.025.004.113-.047.105zm.03-.505c-.021-.072.059-.156.1-.186.08.026.043.211.03.236-.012.034-.03.16-.071.135-.043-.025-.038-.093-.06-.185m.278-.236a1 1 0 0 0 .139-.164c.037.017.096.063.05.122-.055.067.084.244.097.32.012.071-.034.076-.097.05-.059-.025-.013-.193-.063-.244s-.076.05-.097.143c-.025.097-.03-.042-.05-.092-.026-.047-.03-.093.02-.135m-.443 1.263c-.042.025 0 .084.03.114l.105.013.034.113h.274l-.274-.151c0-.026 0-.085-.021-.114-.03-.034-.101-.009-.147.025m.354 1.95c0-.068.017-.064.025-.055a.1.1 0 0 1 .06.02c.012.022-.03.216-.085.199s-.004-.085 0-.169zm-1.878 2.517c-.084.005 0 .114.06.165.024 0 .07-.013.07-.064 0-.063-.029-.109-.13-.1m-.808.367c-.059.025-.004.097.03.126.033-.004.096-.038.092-.084-.008-.067-.042-.076-.122-.042m2.93-1.697c-.096-.084-.202.038-.244.11.038 0 .122.004.16.029.042.02-.038.08-.076.105-.017.03-.02.084.076.076.122-.009.21-.21.084-.32m-.311-.148.126-.172.14.172zm-2.628 2.236c-.096.034.009.148.076.198.026-.017.084-.059.097-.113.017-.068-.055-.127-.173-.085m2.569-3.78c0 .07.017.21.126.201.14-.012-.055-.223-.126-.202m-.143-.064c-.017-.017-.009-.055 0-.071.042-.072.1 0 .092.042-.008.046-.075.046-.092.03m.505-.324c-.059-.013-.025-.097 0-.139.025 0 .072.008.08.042.008.042 0 .11-.08.097m-.792.27c-.042 0-.042-.064-.03-.098.03-.071.098-.054.119 0 .02.051-.026.085-.084.093zm.177-.329c-.076 0-.05-.185-.03-.278h.072c.042 0 .05.278-.042.278m-1.39.105c-.05-.03-.1.076-.126.127 0 .075.085.029.127 0 .042-.026.063-.093 0-.127m.472.08c-.054-.03-.11.084-.134.14 0 .083.092.029.134 0s.068-.106 0-.14m-1.12.4c.005-.042-.03-.05-.05-.05a.3.3 0 0 1-.118.05c-.042 0 0 .05.063.068.063.016.097-.013.105-.068m-2.459.615c.013-.055-.025-.072-.042-.072-.02 0-.063.009-.08.05-.012.043.034.068.055.077.017.004.05 0 .067-.055m.687.345c-.089-.054-.106.063-.101.127h.126c.063 0 .084-.06-.025-.127m-.27.068c-.012-.06-.004-.169.11-.135.147.046-.068.244-.11.134m-.977-.24c0-.076.03-.21.118-.148.114.085-.042.228-.118.148m.228-.527c-.03 0-.03.055-.025.085 0 .029.016.1.054.1.042 0 .05-.063.05-.113s-.041-.076-.083-.072zm-.16.042c-.038 0-.042.05-.042.076.008.025.033.076.054.085.026 0 .068-.064.068-.085 0-.025-.03-.08-.08-.076m-.207-.164c-.037-.008-.033-.05-.029-.071s.021-.06.05-.06c.034 0 .051.034.047.068 0 .034-.017.067-.068.063m.367.067c.004-.042-.042-.071-.068-.084-.063.034-.054.127-.025.14.03.016.084-.013.093-.06zm-.762-.252c-.06.004-.085-.067-.089-.101.009-.038.038-.105.089-.097.054.008.071.067.075.097 0 .03-.012.088-.075.097zm.151-.03c-.038.009-.05-.042-.055-.063 0-.02.021-.067.06-.063.033.009.042.042.046.063 0 .021-.009.06-.046.063zm1.929 4.396c-.038 0-.055.042-.06.063 0 .021.013.072.06.072a.09.09 0 0 0 .084-.063c0-.026-.042-.072-.084-.072m-.4.038c.008-.055.038-.164.096-.147.08.017.047.155-.096.147m-.245.21c-.067.03-.092-.075-.096-.134h.126c.092 0 .05.1-.03.135m-.311-.614c-.025-.009-.03-.046-.03-.068 0-.008.009-.033.03-.046.03-.017.059.046.059.084 0 .043-.021.043-.06.03m-.703-.535c-.042.038.004.084.033.105.026-.02.072-.075.072-.105 0-.034-.046-.042-.105 0m-.746-.434c-.042 0-.126-.151-.164-.227a.17.17 0 0 1 .21.105c.018.043.01.13-.041.127zm-.345-.265v-.194c.042.017.13.064.169.11.038.046-.097.076-.169.084m-.77-.345c.008.063.038.18.075.151.051-.042.038-.151-.075-.151m-.78-.467c-.029.105-.046.324.102.362.147.033-.009-.228-.101-.362m-.222-.628c-.03-.012.008-.076.029-.11.084-.037.114 0 .126.043.005.034-.126.08-.155.067m.025-.459c-.06-.004-.025.093 0 .143.03 0 .092-.012.126-.054.034-.05-.055-.076-.126-.085zm.231-.943c-.05-.02-.05.072-.042.126.026.009.08.026.11 0 .033-.038-.009-.097-.068-.126m.021-.707c-.063-.038-.134.13-.168.219-.021.059.11.03.143 0 .038-.03.101-.173.025-.22m2.653-1.407c-.017-.033-.093.009-.126.038.067 0 .105.16.151.164.047 0 .127-.059.127-.092 0-.038-.093-.021-.127-.03-.03-.008 0-.042-.025-.084zm.202-.42c-.017-.017-.126.003-.18.02-.043.043.121.093.18.093.06 0 .021-.092 0-.114m.261.265c-.05-.068-.134.025-.168.084a.1.1 0 0 0 .071.034c.043 0 .152-.038.093-.118zm-.02.433c-.06-.033-.026-.13 0-.177.058 0 .16.114.146.156-.016.042-.075.068-.147.021m-.3-.4c-.05-.02-.067.085-.067.135.025.008.092.021.139-.017.05-.05-.013-.084-.072-.118m-.408-.215c-.042-.008-.08.06-.093.097.11.034.03.169 0 .19s-.034.097.013.114c.042.02.16-.043.177-.076.02-.038-.072-.055-.055-.097.02-.042.05-.03.055-.13.008-.101-.042-.093-.097-.101zm-.329-1.296c-.008-.034.026-.068.047-.085.088.051.042.16 0 .173s-.034-.042-.047-.084zm.784-.303a.3.3 0 0 1-.114-.118c.038-.009.126-.03.181-.021.067.004.139.134.11.155-.03.026-.114 0-.177-.02zm-.99 1.22c.063.026.19.085.169.144-.026.071-.198-.004-.169-.143m-2.173.679c-.016-.042-.063-.017-.084 0 .017.033.05.109.05.126s.034.193.068.227c.038.03.194.072.194.042s-.177-.21-.148-.231c.026-.025.068-.097.043-.097s-.101-.017-.123-.067m.198-.257c-.042.017-.071-.03-.084-.055.038-.042.118-.042.143 0 .021.042-.008.042-.059.059zm.29-.489c-.041-.012-.003-.063.018-.084a.2.2 0 0 1 .084.038c.034.017.042-.013.084.03.034.042.021.185 0 .21-.03.021-.084-.013-.084-.11.008-.096-.059-.067-.105-.084zm.632-.408c-.033-.042.03-.084.064-.101a.7.7 0 0 1 .134.063c.017.017.017.059-.033.084a.135.135 0 0 1-.165-.042zm.649.37c-.017-.063-.253-.252-.366-.337-.068.043.16.337.21.38.042.037 0 .164 0 .21-.008.046.013.101.05.088.034-.008.127-.27.106-.34m-1.465-.804c0-.042.025-.063.042-.071.054 0 .084.08.088.11 0 .029-.042.041-.067.041s-.055-.034-.063-.084zm.859.72c-.026-.017-.11.005-.148.021-.012.042-.033.127 0 .156.042.042.135 0 .169-.042.033-.042.016-.114-.017-.135zm-.38-.273c-.025-.093-.21-.182-.294-.211.055.13.177.4.21.408.043.009.106-.084.085-.202zm-.555-.977c-.038-.017-.017-.127 0-.173.097-.055.11 0 .143.05.038.055-.093.148-.143.127zm.24-1.184c-.03-.042.063-.117.114-.147.075.017.033.093 0 .135-.03.042-.076.067-.114.012m-.358.135c.05.148.16.421.194.312.046-.127 0-.367-.194-.312m-.021-.619c-.06-.017-.126.106-.152.169 0 .004.013.012.063 0 .064-.017.156-.148.085-.169zm.067-.113c.042-.017.413-.337.215.168.008-.076-.03-.21-.21-.168zm.232-.518c-.038.012-.11-.085-.143-.13.017-.06.092-.013.143.016.05.025.05.105 0 .114m-.45.227c-.026.004-.043.055-.043.084.009.013.034.042.076.034.046-.004.21-.097.206-.139-.008-.042-.21.013-.24.021m.08-.434c-.026-.02-.022-.067-.013-.084.143.009.122.114.105.126-.021.017-.063-.012-.093-.042m-.178.135c0-.05.043-.097.064-.114.084-.016.071.097.071.114 0 .021-.038.114-.071.11-.042 0-.064-.043-.064-.11m.236-.358c0-.046-.084-.084-.126-.092.013.042.034.117.063.134.042.017.067.017.063-.042m.362-.74c-.03-.026-.025-.051-.02-.06.016-.012.058-.03.096 0 .042.034.013.047 0 .093-.017.05-.042 0-.076-.034m-.16.147c-.059-.017-.025-.064 0-.085.076-.067.106 0 .16.085.055.084-.084.02-.16 0m-.227.02c.008-.126-.147-.223-.223-.26-.06.037-.156.1-.046.092.134-.017.26.32.269.169m.152-.45c-.009-.021.03-.076.05-.101.042-.05.084.021.084.05 0 .034-.059.097-.084.097-.025.005-.034-.02-.05-.046m-.093-.025c-.03 0-.042-.042-.046-.063l.042-.042s.071.025.076.042c.004.016-.038.059-.072.063m.505-.215c-.055 0-.067-.059-.067-.084a.2.2 0 0 1 .067-.08c.034-.013.063.076.072.105.008.03-.004.063-.072.063zm-.42.766a.1.1 0 0 1-.043-.075l.101.025c.017-.021.105-.025.089.05-.013.072-.093.03-.144 0zm.56-1.3c-.026.02-.064-.034-.077-.064 0-.063.047-.067.076-.042.03.025.034.08 0 .105m.58-.127c-.012-.008-.004-.072 0-.101.042 0 .11.076.101.101-.012.025-.084.008-.1 0m-.139-.088c-.054-.009-.025-.064 0-.093.03-.05.084 0 .106.055.02.05-.038.05-.106.042zm.834-.3c-.055.009-.042-.08-.03-.126a.11.11 0 0 1 .106 0c.05.034-.004.114-.076.127m-.985.577c-.05.026.008.11.042.152.033-.03.105-.097.11-.126.003-.03-.085-.06-.152-.026m4.875-1.044c-.03 0-.03.06-.025.089.101.038.042.1 0 .126.009.059.03.177.06.173.033 0 .125-.186.125-.215-.004-.034-.063-.034-.084-.084-.03-.047-.042-.08-.076-.085zm-.307.181c-.03 0-.067-.063-.084-.092.03-.038.126 0 .168.042.042.033-.046.055-.084.05m-.299-.151c-.055.025-.076-.034-.08-.068.013-.02.042-.067.08-.059.042.009.063.097 0 .127m1.449.69c0-.02-.118-.084-.177-.11-.042 0-.017.11 0 .127s.168.013.177-.017m.631.333c-.042.042.013.24.042.333.038-.127.186-.22.257-.253-.038-.013-.11-.05-.114-.08s.24-.03.236-.046c0-.017-.139-.131-.21-.186.012.021.037.08.02.11-.02.042-.189.071-.235.126z"/>
        <path fill="#fff" d="M14.473 5.76c-.042-.017-.067 0-.076.013h-.017c-.03.034.085.114.144.151a2 2 0 0 0-.194.181c-.114.127.067.283.114.295.046.017.24-.24.21-.27-.025-.029-.067.09-.18.123-.115.03-.077-.101-.056-.148s.253-.105.236-.143a.6.6 0 0 0-.18-.202"/>
        <path fill="#fff" d="M14.814 5.684c-.06-.016-.156.042-.194.072l-.025.042c-.068.084.24 0 .286.084s.135.164.198.076-.194-.253-.265-.274m-.316 0a1.3 1.3 0 0 1 0-.379c.122.08.35.236.295.228-.063-.009-.261.18-.295.151m-.24-.18c-.038-.022.017-.17.046-.245l.118.042c.03.009-.118.223-.164.202m-.202-.03c-.05-.038-.042-.274-.03-.383l.211.13c-.038.101-.126.287-.181.253m-1.032-.62c-.025-.058-.197 0-.19.022a1 1 0 0 1 .072.122c.042.072.089.093.118.11.034.016.03-.194 0-.253m-.648.039c.013-.021-.143-.017-.219-.017.021.042.076.118.093.118.025 0 .113-.072.126-.101m.682-.114c-.008-.042.055-.118.088-.156.034.026.097.085.097.101 0 .021-.18.101-.19.055zm-1.01.004c-.03-.02-.043-.21-.047-.303.042-.034.118.143.156.156.034.017.21-.013.19.042-.026.063-.253.135-.295.105zm-.14-.699-.105.068c.093 0 .017.151 0 .193-.02.043.05.05.08.047.03 0 .14-.143.164-.169.026-.03.14.097.16.127.022.02.144.012.165-.017.012-.025-.303-.173-.463-.244zm2.906 2.118c-.038 0-.055.042-.06.072.026.092.106.042.11.017s-.004-.085-.05-.085zm-4.063-.939c-.06-.046-.085.122-.085.21.047-.067.16-.041.211-.02a.6.6 0 0 0-.126-.19m3.772 9.983c-.042-.042 0-.113.03-.147.105 0 .067.08.054.147-.012.072-.033.055-.084 0m-2.408 4.106c-.042-.034-.017-.068 0-.08.105-.038.114.025.097.063-.017.034-.042.063-.097.017m.177.059c-.047-.038-.021-.068 0-.085.1-.033.113.03.097.068-.017.034-.042.063-.097.017"/>
    </g>
    <defs>
        <clipPath id="CGG__a">
            <path fill="#fff" d="M0 0h24v24H0z"/>
        </clipPath>
    </defs>
</svg>
