<svg xmlns="http://www.w3.org/2000/svg" width="24" height="24" fill="none" viewBox="0 0 24 24">
    <g clip-path="url(#CHAMPZ__a)">
        <path fill="#fff" d="M24 0H0v24h24z"/>
        <path fill="#458A7B" d="m16.605 4.103.604-.062c.63.093 1.255.33 1.724.753.3.274.429.625.104.94-.104.103-.3.124-.362.325a1.53 1.53 0 0 0-.036.795c.098.46.692.496.568 1.094q-.047.247-.434.47c-.48.29-1.321-.072-1.559.61a5.3 5.3 0 0 0-.516 1.393c-.072.217-.186.702.088.857q.28.163.397.48c.062.18.026.362.104.568.103.227.18.46.247.687.093.516-.01.955-.31 1.306a.08.08 0 0 0-.036.072.05.05 0 0 1-.02.041l-.511.444a.1.1 0 0 0-.027.038.1.1 0 0 0-.01.045c.006 1.115.383 3.386-.34 4.357a.06.06 0 0 1-.047.026q-.029 0-.036-.031a.1.1 0 0 0-.01-.037q.232-.509.248-1.15.028-2.194.026-3.248a.08.08 0 0 1 .046-.077c.893-.553 1.172-1.533.589-2.442a.16.16 0 0 1-.026-.103c.051-.485-.13-.8-.558-.955a.07.07 0 0 1-.046-.072c0-.62.154-1.265.464-1.92.166-.342.284-.713.65-.837q.344-.124.816-.124c.367-.005.806-.305.661-.707a1.3 1.3 0 0 0-.289-.346q-.635-.618-.14-1.508a.09.09 0 0 1 .073-.051c.434-.031.48-.532.206-.79-.836-.795-2.121-.878-3.164-.475-.398.155-1.105.552-1.471.439-.424-.124-1.002-.29-1.353.082a.16.16 0 0 1-.082.052 2.93 2.93 0 0 1-1.802-.18c-.588-.259-1.032-.852-1.745-.661-.18.051-.335.19-.49.31-.475.356-1.167.51-1.72.443-.732-.082-1.703-.242-2.08.367-.263.413.042.986.532.98q.087 0 .057.083c-.258.775.568.677.97.76.29.061.465.231.656.443.237.269 1.012.46 1.394.573.423.13.635.702.836 1.064.067.123.026.31.052.449q.194 1.082.294 2.188-.1-.013-.108.052a.11.11 0 0 0-.031-.083q-.039-.03-.078 0a2.01 2.01 0 0 0-.217 3.015l.036.005h.037a.08.08 0 0 1 .072.021l.232.191q.045.032.036.088l-.258 3.64q-.087.046-.088.025c.01-.036 0-.067-.04-.083a.05.05 0 0 1-.032-.051l.248-3.454a.19.19 0 0 0-.088-.175c-.16-.088-.32-.15-.439-.294a1.94 1.94 0 0 1-.433-1.451 1.2 1.2 0 0 0 0-.336l.129-.475q.261-.442.67-.727c.275-.13.156-.496.063-.697a.14.14 0 0 1-.005-.098.5.5 0 0 0 .026-.16l-.197-1.167a.11.11 0 0 0-.051-.083q-.21-.138-.062-.361c.015-.026.02-.052.005-.083a2.4 2.4 0 0 0-.387-.624.7.7 0 0 0-.336-.207c-.583-.17-1.172-.346-1.59-.826-.31-.361-1.017-.051-1.383-.526a1.4 1.4 0 0 1-.124-.326q-.08-.27-.377-.392c-.268-.279-.32-.583-.15-.903a6 6 0 0 1 .341-.362.7.7 0 0 1 .351-.18c.18-.036.346-.083.532-.057q.296.04.593.052c.672.02 1.234.03 1.694-.186.273-.13.547-.372.769-.49.408-.218.908-.016 1.265.232.516.356 1.037.67 1.688.619.247-.015.593.026.805-.14.366-.278.774-.247 1.203-.113.516.165 1.11-.155 1.554-.361a2.3 2.3 0 0 1 .94-.227"/>
        <path fill="#3C2718" d="M16.182 19.273c-.733 1.239-2.013.712-2.653-.227l-.258-.527a.14.14 0 0 0-.119-.077l-.816-.02q-.044-.001-.067.035l-.346.63a1.67 1.67 0 0 1-1.719.697c-.346-.051-.774-.217-.722-.64l.036-.356.258-3.64a.1.1 0 0 0-.041-.087l-.233-.191a.1.1 0 0 0-.072-.026l-.036.005a.07.07 0 0 1-.062-.02 2.006 2.006 0 0 1 .243-3.005.06.06 0 0 1 .077.005q.03.032.031.088a1.93 1.93 0 0 0-.583.836 1.4 1.4 0 0 0-.12.62 1.5 1.5 0 0 0 .104.66c.11.278.28.527.5.728q1.132.728 2.17-.103c.05-.041.087-.03.128.016l.02.03a.08.08 0 0 1 .016.054.08.08 0 0 1-.026.05 1.88 1.88 0 0 1-1.93.382c-.02-.01-.031 0-.031.02l-.233 4.043q-.002.055.026.103.025.047.073.072 1.006.493 1.765-.238c.206-.196.34-.51.5-.764.016-.036.011-.056-.025-.067a3.2 3.2 0 0 1-.723-.242c-.113-.062-.129-.12-.036-.17.48.154.888.242 1.229.273q.263.03.805-.015.268.774.862 1.238c.774.594 1.538.47 1.926-.5q.114-.372.129-.62.04-1.003.026-2.798v-.516c0-.041-.021-.052-.052-.041-.805.294-1.93.31-2.684-.18a.1.1 0 0 1-.052-.058.1.1 0 0 1 .01-.077c.021-.031.052-.041.083-.026q.452.18.686.243c.95.242 2.2.067 2.757-.842q.387-.636.031-1.357l-.186-.31a.12.12 0 0 1-.01-.104l.041-.103a.2.2 0 0 0 .01-.103c-.051-.45-.304-.64-.748-.568a.04.04 0 0 1-.036-.015.04.04 0 0 1 0-.042c.02-.051.062-.077.119-.087.015 0 .025-.01.036-.021a.06.06 0 0 0 .015-.041c0-.671.14-1.317.423-1.92q.063-.126-.061-.057a1.6 1.6 0 0 0-.543.5.06.06 0 0 1-.03.026h-.047l-.03-.015q-.046-.024-.022-.062c.207-.341.584-.532.904-.738q.063-.047.103-.217c.005-.036 0-.047-.036-.031-.267.112-.51.273-.718.475-.041.036-.082.051-.123.036l-.021-.016a.06.06 0 0 1-.005-.072c.165-.258.743-.547 1.022-.723a4.4 4.4 0 0 1 1.42-.325q.124-.008.165-.062c.025-.03.02-.051-.021-.051-.568.005-1.074.103-1.518.31l-.036-.156.403-.139a4.7 4.7 0 0 1 1.306-.165c.046 0 .072-.026.067-.078v-.051q.002-.078-.067-.062l-1.363.201a4.25 4.25 0 0 0-2.467 1.6.06.06 0 0 1-.068-.01l-.02-.02a.05.05 0 0 1-.013-.03q-.001-.018.008-.032a4.44 4.44 0 0 1 2.457-1.658l1.306-.206q.085-.015.015-.062a1 1 0 0 1-.418-.64c-.01-.036-.03-.057-.067-.052l-.578.016a4.12 4.12 0 0 0-3.211 2.328c-.126.232-.197.49-.207.754q-.001.037-.04.046l-.021.005a.11.11 0 0 1-.109-.03.12.12 0 0 1-.03-.11q.108-.465.304-.815 1.052-1.934 3.236-2.328l.646-.046c.036 0 .051-.021.051-.052.012-.38.154-.745.403-1.032q.241.022.258-.17c.041-.316-.671-.64-.898-.703 0 .016-.036.005-.119-.03a.32.32 0 0 0-.263-.078 2.6 2.6 0 0 0-1.198-.031c-.697.103-1.28.604-1.972.62-.248.004-.537-.125-.836-.114-.18-.083-.33-.062-.439.062a.6.6 0 0 0-.227.196q-.031.045-.072.02c-.073-.036-.109-.051-.191-.03a2 2 0 0 1-.81.046 5 5 0 0 1-.821-.18c-.33-.145-.847-.64-1.276-.708-.211-.036-.557-.016-.722.15-.671.702-1.616.542-2.432.593l-.645-.015c-.434-.067-.878.124-.862.64 0 .036.01.062.03.088.336.418.744.284 1.106 0a1.1 1.1 0 0 1 .392-.227q.364-.118.557-.073c.568.114 1.116.274 1.394-.237a.14.14 0 0 0 .016-.098c-.016-.083.015-.134.103-.155l.454-.098c.542-.103.537.475 1.007.583.165.036.423.052.439.29q-.053.14.041.18c.093.03.145.01.16-.072.387.118.774.382 1.136.402q.594.026 1.058-.428a.19.19 0 0 0 .052-.207l-.104-.335a.04.04 0 0 1 .016-.042h.015l.031-.005q.047-.002.062.036a.8.8 0 0 0 .16.217c.021.02.052.031.083.031.784.031 1.378.408 2.194.145.372-.119.614-.45.996-.553l.34-.087a.09.09 0 0 0 .068-.052l.015-.041a.07.07 0 0 1 .062-.042.1.1 0 0 1 .073.01c.03.021.051.052.041.089-.057.31.114.382.382.407q.269.025.547.104c.031.015.057.005.083-.016l.392-.392a.12.12 0 0 1 .093-.036.12.12 0 0 1 .088.046c.103.119.057.207-.14.248a3 3 0 0 0-.247.263c-.155.186-.32.088-.517.047a.1.1 0 0 0-.087.02 1.25 1.25 0 0 1-.48.258.05.05 0 0 1-.037-.015l-.005-.02-.01-.032a.05.05 0 0 1 0-.03.05.05 0 0 1 .026-.021l.268-.145.02-.02v-.032a.04.04 0 0 0-.015-.02.04.04 0 0 0-.025-.01c-.243.025-.408-.073-.501-.28a.08.08 0 0 0-.083-.05.93.93 0 0 0-.568.17 3.2 3.2 0 0 1-.841.485c-.18.1-.338.235-.465.397a3.7 3.7 0 0 0-.593.666c-.568.79-1.048 1.502-1.255 2.556q-.001.03-.026.051a.1.1 0 0 1-.051.02h-.031q-.054.001-.047-.05c.227-1.214.878-2.174 1.673-3.14l.439-.402q.055-.053-.021-.052a3.4 3.4 0 0 1-1.229-.165.1.1 0 0 0-.092.015c-.34.241-.6.58-.744.971a9.6 9.6 0 0 0-.34 1.864c-.006.04-.026.056-.062.062h-.052a.04.04 0 0 1-.041-.031v-.016q.076-.945.31-1.796a2.27 2.27 0 0 1 .753-1.1.04.04 0 0 0-.008-.036.04.04 0 0 0-.034-.015l-.195.01a.06.06 0 0 0-.062.041c-.166.423-.796.666-1.177.702q-.05.002-.052.052L12 6.97c-.067.511-.336 3.067.34 3.232.233.052.233.114 0 .176a.91.91 0 0 1-.557-.739c-.119-.877-.036-1.78.057-2.653l.062-.361c.005-.037-.01-.052-.047-.057-.413-.036-.67-.3-1.068-.372-.243-.041-.362-.124-.434-.35a.1.1 0 0 0-.026-.042.1.1 0 0 0-.041-.016c-.465-.02-.599-.247-.847-.547a.16.16 0 0 0-.087-.057c-.264-.056-.47.036-.62.29-.232.397-.573.454-1.032.381a2.6 2.6 0 0 0-.97.031q-.171.038 0 .083.408.108.732.403c.016.01.02.025.026.04v.053l-.01.03c0 .01-.01.016-.016.026a.052.052 0 0 1-.077 0 1.63 1.63 0 0 0-.991-.46c-.031 0-.067 0-.098.022l-.413.227a.14.14 0 0 0-.068.072l-.077.165A.22.22 0 0 0 5.8 6.8a.2.2 0 0 0 .083.036c.335.067.98.072 1.197.32q.342.395.754.532c.103.036.113.01.052-.072a2.77 2.77 0 0 0-1.823-1.022.06.06 0 0 1-.041-.026.07.07 0 0 1-.016-.047v-.03a.03.03 0 0 1 .031-.032c.863.006 1.694.615 2.163 1.332.016.02.037.042.068.052l.335.129q.118.045.041-.062a18 18 0 0 0-1.032-1.198c-.02-.025-.026-.051 0-.087l.02-.021a.046.046 0 0 1 .068 0c.67.656 1.497 1.62 1.91 2.555.01.036.015.067 0 .103a.36.36 0 0 0-.01.207c.225.94.358 1.9.397 2.865 0 .01.01.015.015.02q.016.013.037.01l.04-.004c.011 0 .021-.016.021-.026.031-.671 0-1.342-.098-2.003 0-.036.01-.052.052-.057h.057l.01.026c.103.542.145 1.084.134 1.642l.042.557a.09.09 0 0 1-.037.078.08.08 0 0 1-.082.005.5.5 0 0 0-.392-.026q-.163.055-.093-.114c0-.01.025-.02.062-.04a.1.1 0 0 0 .03-.032.1.1 0 0 0 .016-.046l-.02-.465a23 23 0 0 0-.295-2.189c-.026-.14.016-.325-.051-.449-.207-.361-.413-.929-.837-1.063-.382-.114-1.156-.31-1.394-.573-.19-.212-.36-.382-.655-.444-.403-.083-1.229.015-.97-.76.02-.05 0-.082-.057-.082-.49.006-.795-.567-.532-.98.382-.61 1.342-.45 2.08-.362.553.062 1.24-.093 1.72-.454.154-.114.309-.253.49-.305.712-.19 1.156.403 1.745.661a2.92 2.92 0 0 0 1.806.176.16.16 0 0 0 .078-.047c.35-.372.929-.206 1.352-.082.362.113 1.074-.29 1.471-.44 1.043-.397 2.323-.32 3.17.476.268.258.222.759-.207.795a.09.09 0 0 0-.077.051c-.33.589-.284 1.084.14 1.497q.249.25.289.351c.144.403-.295.702-.661.708q-.474 0-.816.123c-.361.124-.485.496-.645.837a4.5 4.5 0 0 0-.47 1.92.07.07 0 0 0 .047.072q.642.231.557.95c0 .042.005.072.026.104.583.913.31 1.894-.589 2.446a.09.09 0 0 0-.046.078c0 .702-.005 1.786-.026 3.252 0 .395-.084.786-.248 1.146z"/>
        <path fill="#614B3A" d="M13.158 5.068q.172.14.46.093a.05.05 0 0 0 .036-.026.05.05 0 0 0 0-.046l-.052-.083c.294-.01.583.12.831.114.692-.015 1.275-.516 1.972-.62l-.036.062q.015.017.062.026.047.016.103.016l1.084.051q.04.002.041-.036c0-.03-.015-.051-.056-.087a.33.33 0 0 1 .263.077c-.134.083-.103.15.103.206a.05.05 0 0 0 .052-.03.05.05 0 0 0 .01-.026.26.26 0 0 0-.051-.12c.227.063.944.388.908.703q-.023.194-.263.17c-.01-.036-.041-.051-.083-.051q.294-.07.14-.248a.12.12 0 0 0-.088-.047.12.12 0 0 0-.093.037l-.392.392a.08.08 0 0 1-.083.02 2.5 2.5 0 0 0-.547-.108c-.269-.026-.439-.098-.382-.408.005-.041-.01-.067-.047-.087a.1.1 0 0 0-.067-.01.07.07 0 0 0-.062.04l-.015.042a.09.09 0 0 1-.067.051 4 4 0 0 0-.34.088c-.383.103-.626.434-.997.553-.816.258-1.41-.114-2.194-.145q-.047 0-.083-.03a.8.8 0 0 1-.155-.218.06.06 0 0 0-.067-.036h-.03l-.016.005-.01.01-.007.016.001.016.103.335c.026.078.006.145-.051.207-.31.304-.66.444-1.063.428-.362-.02-.744-.284-1.131-.403 0-.082-.026-.123-.083-.134-.051-.005-.093 0-.118.026-.016-.237-.274-.253-.44-.289-.469-.103-.464-.692-1.006-.583a7 7 0 0 0-.454.103c-.088.015-.119.067-.103.155 0 .03 0 .062-.016.093-.279.516-.826.35-1.394.237-.129-.026-.31 0-.557.072a1.3 1.3 0 0 0-.398.222c-.356.29-.764.429-1.1 0a.13.13 0 0 1-.03-.082c-.01-.516.428-.707.862-.64a1.4 1.4 0 0 0-.418.196c-.01.01-.016.015-.01.03l.015.032c0 .015.015.02.026.015.278-.098.575-.126.867-.082a.2.2 0 0 0 .134-.016q.062-.053.031-.16c.816-.051 1.755.109 2.437-.594.16-.165.5-.185.717-.154.429.072.945.567 1.275.712.104.041.382.103.826.18q.364.063.806-.046c.082-.015.118 0 .19.031q.04.024.073-.02a.6.6 0 0 1 .227-.197"/>
        <path fill="#807352" d="M17.602 4.53c.041.032.057.057.057.088q-.002.037-.041.036l-1.084-.051a.3.3 0 0 1-.104-.016.14.14 0 0 1-.062-.025l.036-.062a2.6 2.6 0 0 1 1.198.03M9.42 4.5c.279.118.62.067.826.247.294.259.578.393.862.413.026.006.041.021.036.052v.031a.05.05 0 0 1-.015.03.05.05 0 0 1-.026.016c-.186.052-.65.14-.852-.051a.15.15 0 0 1-.051-.083.28.28 0 0 0-.155-.196 27 27 0 0 0-.672-.335q-.046-.017-.025-.073l.015-.026A.05.05 0 0 1 9.39 4.5zm8.445.108c.083.036.12.052.12.031.03.052.046.088.046.119a.05.05 0 0 1-.021.041.05.05 0 0 1-.047.01q-.3-.075-.098-.206zm-4.264.398.052.082a.05.05 0 0 1 0 .052.05.05 0 0 1-.036.02q-.288.046-.46-.093.165-.185.44-.061zm-7.64.129.646.02q.03.108-.031.155c-.031.026-.073.031-.135.02a1.8 1.8 0 0 0-.867.083c-.01 0-.02 0-.026-.015l-.015-.031c0-.016 0-.02.01-.031.124-.088.258-.155.418-.196z"/>
        <path fill="#A0A782" d="m11.846 6.988-.774.134-.14-.687q-.014-.07-.082-.062h-.031c-.026 0-.041.021-.031.047.165.738.279 1.466.346 2.194q.015.133.124.103v.103l-.02.026a.07.07 0 0 0-.022.036q-.077.798.341 1.394-.07.102-.294.01c-.098-.093-.207-.072-.3-.144-.289-.238-.242-1.404-.418-2.003a.05.05 0 0 0-.052-.036h-.03q-.076.017-.067.087l.31 1.947c-.011 0-.026 0-.052.02a.13.13 0 0 0-.047.083l-.258 1.445c-.052.052-.057.14-.03.258h-.052a8.3 8.3 0 0 0-.145-1.662.03.03 0 0 0-.026-.01h-.036q-.054.008-.046.062a10 10 0 0 1 .098 2.003c0 .01-.01.02-.02.025h-.042l-.019.002-.017-.007a.05.05 0 0 1-.021-.04 15 15 0 0 0-.387-2.84.36.36 0 0 1 .01-.207.14.14 0 0 0-.005-.108 9.1 9.1 0 0 0-1.925-2.566.05.05 0 0 0-.052.01l-.02.021c-.027.031-.021.062 0 .088.36.382.706.785 1.032 1.198q.076.108-.042.062l-.335-.13a.14.14 0 0 1-.067-.051C7.737 7.07 6.9 6.466 6.039 6.46a.03.03 0 0 0-.031.031v.031c0 .02 0 .036.015.052l.042.02a2.76 2.76 0 0 1 1.817 1.022c.067.083.051.104-.047.073a1.7 1.7 0 0 1-.754-.532c-.216-.248-.862-.253-1.197-.32a.2.2 0 0 1-.14-.108.21.21 0 0 1 0-.181l.073-.165a.14.14 0 0 1 .062-.073l.418-.227a.17.17 0 0 1 .103-.02c.382.032.74.198 1.012.47a.05.05 0 0 0 .051-.011.1.1 0 0 0 .016-.026l.01-.036a.08.08 0 0 0-.026-.088 1.76 1.76 0 0 0-.738-.402c-.108-.031-.108-.052 0-.083a2.6 2.6 0 0 1 .981-.03c.454.071.795.015 1.027-.383.15-.253.357-.346.62-.289a.16.16 0 0 1 .088.052c.247.304.376.531.841.552.02 0 .031.005.046.015l.026.042c.078.227.191.31.434.35.397.073.656.336 1.069.372q.054.002.046.057l-.062.362zm6.696-1.528c.041 0 .072.015.082.051a1.65 1.65 0 0 0-.402 1.033c0 .03-.016.051-.052.051l-.645.047a1.1 1.1 0 0 0-.434-.48q-.092-.163-.175-.109c-.33-.258-.821.13-1.136.279-.294.14-.558.17-.805.093q.308-.341.464-.398c.258-.092.537-.258.847-.485a.94.94 0 0 1 .562-.175.09.09 0 0 1 .083.051c.093.212.258.31.5.284.01 0 .016 0 .026.01.006 0 .016.01.016.021v.031l-.02.02-.27.145a.05.05 0 0 0-.025.021.05.05 0 0 0 0 .031l.01.031q.005.02.021.03a.05.05 0 0 0 .036 0q.263-.074.465-.252a.1.1 0 0 1 .093-.02c.19.04.35.139.516-.047a1.7 1.7 0 0 1 .243-.258z"/>
        <path fill="#3C2718" d="M10.4 7.994c-.051.026-.077.005-.087-.051A5.4 5.4 0 0 0 9.28 5.604l.01-.015.011-.01.026-.021a.057.057 0 0 1 .077.01c.56.689.927 1.513 1.064 2.39a.05.05 0 0 1-.026.02z"/>
        <path fill="#A0A782" d="M12.813 6.977h-.81l.036-.346c0-.03.02-.051.051-.051.382-.036 1.012-.279 1.177-.702a.07.07 0 0 1 .062-.042l.196-.01c.01 0 .016 0 .026.01a.04.04 0 0 1 .016.042c0 .01-.01.015-.016.02-.346.28-.603.655-.738 1.08m1.833-.449-.677-.082c-.428-.052-.526.49-.97.449q.225-.598.743-.97a.09.09 0 0 1 .093-.016q.599.194 1.229.17c.052 0 .057.01.02.052z"/>
        <path fill="#DFCA9F" d="M16.921 6.055c-1.26.45-2.235 1.074-2.87 2.313-.3.583-.682 1.167-.387 1.745a.07.07 0 0 0 .067.039q.014-.002.026-.008l.03-.016c.01 0 .016-.01.021-.02v-.031c-.273-.64.243-1.405.584-1.957a4.43 4.43 0 0 1 2.7-1.962q.231.123.433.486a4.41 4.41 0 0 0-3.237 2.323q-.195.355-.304.82a.12.12 0 0 0 .078.137.1.1 0 0 0 .056.003l.026-.005q.037-.007.036-.047.001-.318.212-.753a4.12 4.12 0 0 1 3.21-2.329.73.73 0 0 0-.02.362q-.511.192-1.022.361c-.79.274-1.306.831-1.859 1.57-.134.213-.228.45-.279.696a.06.06 0 0 0 .026.036l.021.01.026.006c.041.005.062-.01.072-.052.162-.578.5-1.092.965-1.47a4 4 0 0 1 1.88-.93c.03.036.01.155-.068.356a4.44 4.44 0 0 0-2.467 1.688l.015.031.02.02a.06.06 0 0 0 .047.016c.006 0 .016 0 .021-.01a4.25 4.25 0 0 1 2.468-1.6c.04.04.056.087.051.154l-.397.15a3.9 3.9 0 0 0-1.792 1.265c-.015.02-.01.041.006.062l.03.026q.04.039.073 0a3.55 3.55 0 0 1 1.667-1.167c.01.041.01.067 0 .093-.273.175-.852.465-1.017.723a.06.06 0 0 0-.005.051c0 .005 0 .016.01.02l.021.016c.041.016.083 0 .124-.036.209-.202.454-.363.723-.475.026-.015.036 0 .03.031q-.039.17-.103.217c-.32.207-.691.398-.903.738-.015.026-.01.052.02.062l.032.01c.015.006.03.01.046 0 .01 0 .026-.01.031-.02a1.6 1.6 0 0 1 .542-.5q.124-.07.062.056a4.4 4.4 0 0 0-.423 1.92c0 .016-.005.026-.016.042a.06.06 0 0 1-.036.02.16.16 0 0 0-.124.088.04.04 0 0 0 .005.041q.007.008.016.014a.04.04 0 0 0 .02.002c.445-.072.692.118.75.568 0 .036 0 .072-.011.103l-.042.103a.12.12 0 0 0 .01.104l.187.31q-.264-.061-.357.257c-.222-.283-.609-.268-.919-.18a.08.08 0 0 0-.051.041.1.1 0 0 0 0 .067l.155.434c.005.02 0 .03-.02.02a1.4 1.4 0 0 0-.259-.103c-.052-.01-.088.026-.114.119q-.426.675-1.022.784c-.506.098-1.032.01-1.569-.258-.258-.118-.31-.273-.506-.423.656-.738 1.56-1.136 2.504-.718.155.068.268.207.408.31a.07.07 0 0 0 .062.005.07.07 0 0 0 .046-.04c.01-.027 0-.053-.02-.084a1.6 1.6 0 0 0-.331-.32.2.2 0 0 1-.067-.077c-.274-.527-.666-.429-1.115-.191q-.11.053-.227.083a2.6 2.6 0 0 0-1.27.722c-.02.021-.052.026-.072.01a2.15 2.15 0 0 0-2.133-.165.08.08 0 0 0-.04.042.1.1 0 0 0 0 .056l.01.032q.013.04.051.025a2.04 2.04 0 0 1 1.244-.129c.233.052.475.18.713.279.03.01.04.036.02.062l-.273.398c-.733.31-1.29.438-2.101.134-.021-.036-.016-.047.01-.021q.186-.35.015-.66a.1.1 0 0 0-.051-.042.08.08 0 0 0-.067.01l-.031.02c-.067.042-.078.099-.042.166q.115.2-.04.33c-.15-.087-.156-.258-.259-.392a.14.14 0 0 1-.036-.103q.021-.35-.18-.413.17-.486.583-.841c0-.047.04-.068.103-.057l.026.464-.016.052a.1.1 0 0 1-.03.026c-.037.02-.058.03-.063.041-.051.114-.015.15.093.114a.5.5 0 0 1 .393.025q.02.01.042.009a.1.1 0 0 0 .041-.015.09.09 0 0 0 .035-.076l-.041-.558h.052a.7.7 0 0 0 .237.31q.04.029.072-.01a.05.05 0 0 0 0-.052 2.2 2.2 0 0 1-.278-.5l.258-1.451a.13.13 0 0 1 .051-.083c.021-.015.036-.026.052-.02.237.273.423.32.552.154.155.052.248.052.294-.015.083.067.155.093.207.067.01 0 .02-.01.026-.02a.07.07 0 0 0 .01-.068.1.1 0 0 0-.02-.03c-.362-.295-.398-.822-.434-1.26q-.009-.108-.088-.145V8.72a.08.08 0 0 0 .036-.078q-.068-.72-.222-1.517l.775-.134c-.098.877-.181 1.775-.062 2.653q.055.412.382.645c.092.067.154.098.175.093q.348-.092 0-.175c-.671-.165-.413-2.72-.34-3.232l.81.005a10 10 0 0 0-.31 1.812l.01.016q.007.006.016.01l.015.005h.052c.036 0 .052-.02.062-.062.108-.924.222-1.548.34-1.858.445.036.543-.5.971-.454l.671.082c-.79.965-1.44 1.926-1.667 3.134-.005.04.01.056.046.056h.026a.09.09 0 0 0 .083-.072c.206-1.053.681-1.765 1.254-2.555q.256-.369.594-.666.372.115.805-.093c.315-.155.81-.542 1.136-.279z"/>
        <path fill="#3C2718" d="M10.148 9.455c-.227-1.172-.496-2.53-1.394-3.376a.03.03 0 0 1 0-.042l.016-.025c.026-.026.051-.031.082 0 .364.314.647.71.826 1.156q.41 1.007.511 1.626c.098.583.16.976.341 1.327q.093.186-.093.093c-.026-.01-.051-.062-.088-.145a3.5 3.5 0 0 1-.2-.62zm6.943-3.294a4.43 4.43 0 0 0-2.7 1.957c-.34.552-.857 1.316-.583 1.961a.04.04 0 0 1-.002.027.04.04 0 0 1-.019.02l-.03.015a.067.067 0 0 1-.093-.03c-.295-.579.087-1.162.387-1.745.635-1.24 1.61-1.859 2.865-2.313q.083-.053.175.103z"/>
        <path fill="#3C2718" d="M9.942 9.92a6.97 6.97 0 0 0-1.977-3.603c-.016-.015-.016-.036 0-.052l.015-.036c.01-.02.026-.026.047-.005.919.867 1.998 2.426 2.065 3.748v.02l-.016.016a.04.04 0 0 1-.03 0l-.037-.01a.1.1 0 0 1-.067-.078m1.13-2.798q.154.798.223 1.518.002.053-.037.083-.108.021-.123-.104a18 18 0 0 0-.346-2.199q-.015-.039.03-.046h.032c.046 0 .072.015.082.062z"/>
        <path fill="#A0A782" d="M17.345 7.738c.077-.207.098-.32.067-.351l.413-.13c.01 0 .026-.01.03-.02a.07.07 0 0 0 .011-.041v-.042l-.007-.017-.014-.013a.05.05 0 0 0-.036-.01l-.227.046a.7.7 0 0 1 .02-.367l.574-.02c.041 0 .062.02.072.051.052.279.196.49.413.645.052.031.052.052-.01.062z"/>
        <path fill="#3C2718" d="M17.412 7.385a4 4 0 0 0-1.879.924 2.9 2.9 0 0 0-.965 1.472c-.01.041-.031.056-.072.051h-.026l-.022-.01-.015-.02a.06.06 0 0 1-.01-.046c.088-.31.181-.538.28-.672.552-.738 1.068-1.29 1.858-1.564l1.022-.362.227-.046a.05.05 0 0 1 .036.01l.014.013.007.018v.041c0 .01 0 .026-.01.037a.06.06 0 0 1-.032.025z"/>
        <path fill="#A0A782" d="M17.504 8.041c0-.072-.016-.119-.057-.155l1.363-.206c.046 0 .067.015.067.067v.051q.002.078-.067.078a4.7 4.7 0 0 0-1.306.165"/>
        <path fill="#889283" d="M17.09 8.464a.2.2 0 0 0 0-.093l.052-.04a3.7 3.7 0 0 1 1.513-.3c.041 0 .051.015.02.051-.025.031-.082.052-.165.052q-.744.045-1.42.33"/>
        <path fill="#3C2718" d="M11.263 10.287c-.129.17-.31.124-.552-.155l-.31-1.94q-.015-.077.062-.083h.031a.05.05 0 0 1 .052.03c.175.6.129 1.766.418 2.004.088.072.206.051.3.144"/>
        <path fill="#614B3A" d="m17.102 8.182.036.155-.051.036a3.55 3.55 0 0 0-1.668 1.161c-.02.031-.051.031-.072 0l-.03-.02c-.016-.021-.021-.042 0-.062a3.9 3.9 0 0 1 1.785-1.265z"/>
        <path fill="#3C2718" d="M11.258 8.82q.078.038.088.145c.036.439.077.965.433 1.26a.07.07 0 0 1 .026.067.1.1 0 0 1-.015.03.1.1 0 0 1-.026.021c-.052.026-.124 0-.207-.067a2 2 0 0 1-.34-1.393c0-.016.01-.026.02-.037zm1.518 1.167c.051.072.123.098.18.165.026.032.026.057 0 .088a.1.1 0 0 1-.067.036c-.02 0-.046 0-.072-.01-.387-.201-.403-.878-.33-1.28a.05.05 0 0 1 .04-.036h.016l.031.005c.016 0 .031.015.042.03.01.011.015.032.015.052-.015.274-.026.713.145.955zm2.797-.041-.007.002q-.005 0-.008-.002l-.01-.005q-.039-.04-.016-.119a.4.4 0 0 1 .088-.16l.17-.191a.5.5 0 0 1 .073-.067q.038-.028.077-.041a.1.1 0 0 1 .067-.01c.02 0 .036.004.052.02v.005l.004.01-.004.01zm-2.493-.062.016-.01h.02l.207.17q.02.016.036.036l.026.041.01.031c0 .01 0 .021-.01.026l-.021.026a.04.04 0 0 1-.02.016h-.037a.2.2 0 0 1-.041-.021l-.041-.026-.207-.17a.026.026 0 0 1 0-.036zm2.065 1.879a.14.14 0 0 0 .052-.062.2.2 0 0 0 .015-.077 4.5 4.5 0 0 1 .114-1.565q.016-.058.072-.04l.036.01q.032.014.026.051a4.4 4.4 0 0 0-.098 1.332c.02.248-.016.366-.17.532a.06.06 0 0 1-.063.02.06.06 0 0 1-.03-.02.1.1 0 0 1-.016-.031.134.134 0 0 1 .062-.155z"/>
        <path fill="#3C2718" d="M15.842 10.37c-.088.206-.114.505-.083.877q.038.478-.335.826a.144.144 0 0 1-.186 0c-.01-.005-.01-.026.01-.057a.13.13 0 0 1 .042-.047c.645-.392.03-1.254.454-1.755.119-.14.165-.113.13.067z"/>
        <path fill="#182120" d="M13.622 11.061a.77.77 0 0 1-.423.104.07.07 0 0 1-.062-.052c-.01-.052 0-.077.051-.088.589-.119 1.018-.61 1.513-.671.052-.01.088.016.093.067l.005.031.002.027a.07.07 0 0 1-.029.045l-.025.01c-.31.052-.521.207-.743.352a.08.08 0 0 0-.036.067q-.001.04.02.072.03.037.083.052c.073 0 .124-.02.155-.083q.001-.015.01 0a.62.62 0 0 1-.082.532.16.16 0 0 1-.083.062c-.34.093-.387-.238-.392-.49a.04.04 0 0 0-.02-.037.04.04 0 0 0-.036 0m-2.39.026a.92.92 0 0 1-.588-.346q-.032-.045 0-.082l.02-.026a.04.04 0 0 1 .031-.015.04.04 0 0 1 .026.01q.419.402.991.278c.052-.01.072.01.072.062v.073q.001.011-.003.022l-.012.019a.05.05 0 0 1-.036.015.6.6 0 0 0-.196.01.04.04 0 0 0-.026.036v.032q0 .063.062.072.084.014.17-.026c.026-.01.047 0 .052.031.056.238-.062.511-.341.45-.274-.063-.212-.341-.18-.558.005-.031-.006-.052-.042-.057"/>
        <path fill="#3C2718" d="M10.35 11.692c.061.16.154.33.273.495.016.02.016.042 0 .052-.015.03-.041.036-.067.015a.65.65 0 0 1-.238-.31q-.038-.178.031-.258zm4.713.31q.004 0 .009.003l.006.007v.015l-.015.083c-.006.03-.026.051-.057.051a.24.24 0 0 1-.243-.103l-.005-.02q0-.012.005-.021a.05.05 0 0 1 .036-.026l.258.01zm-2.685.33-.016.001a.04.04 0 0 1-.029-.017l-.006-.015c-.016-.083.015-.134.103-.165a.93.93 0 0 1 .5-.021c.052.015.078.052.068.108v.036a.08.08 0 0 1-.036.052.07.07 0 0 1-.052.01 1.1 1.1 0 0 0-.532.016zm-.005 1.1c-.17.154-.289.34-.351.536-.175.537.294 1.002.785.661a.09.09 0 0 1 .118.016l.026.036.005.036a.07.07 0 0 1-.015.067.663.663 0 0 1-.888.01c-.305-.253-.361-.604-.17-1.063l.273-.398c.02-.026.01-.051-.02-.062-.238-.103-.48-.227-.713-.278a2.02 2.02 0 0 0-1.239.129q-.047.014-.057-.026l-.01-.031a.1.1 0 0 1 0-.057.08.08 0 0 1 .041-.041 2.15 2.15 0 0 1 2.133.165q.039.022.072-.01a2.64 2.64 0 0 1 1.27-.723c.077-.02.155-.052.227-.083.449-.237.841-.335 1.115.191a.2.2 0 0 0 .067.078q.184.132.33.32c.021.03.031.057.021.082l-.02.026a.07.07 0 0 1-.063.02.1.1 0 0 1-.025-.015c-.14-.103-.258-.237-.413-.304-.94-.413-1.843-.02-2.499.717m-1.796-1.12.046.004c.016 0 .026.016.036.026a.08.08 0 0 1 .018.063.08.08 0 0 1-.033.056q-.146.1-.238-.088a.08.08 0 0 1 .005-.077.08.08 0 0 1 .068-.037q.036.001.051.026c.01.021.026.026.047.026"/>
        <path fill="#807352" d="M14.438 12.393c.103.026.185.02.19-.01.006-.031-.066-.072-.165-.098-.098-.02-.18-.016-.19.015 0 .031.066.072.165.093"/>
        <path fill="#A0A782" d="M17.033 12.671a1.34 1.34 0 0 1-.03 1.358c-.558.908-1.808 1.084-2.757.841a7 7 0 0 1-.687-.242q-.053-.023-.083.025a.1.1 0 0 0-.01.078q.015.038.052.057c.753.495 1.879.474 2.684.18.031-.01.052 0 .052.041v.517a3.24 3.24 0 0 1-2.581-.01.34.34 0 0 0 .082-.207q-.001-.037-.041-.052h-.046a.07.07 0 0 0-.037.031 2.02 2.02 0 0 1-.955.81.1.1 0 0 1-.093 0 4.8 4.8 0 0 1-1.187-.851c-.026-.02-.052-.02-.067 0l-.02.026a.05.05 0 0 0-.016.03c0 .016 0 .026.01.037.343.46.836.785 1.394.919-.29.315-.63.62-1.032.903-.186.134-.677.568-.388.785-.093.051-.077.108.037.17q.272.141.722.243c.036.01.041.03.026.067-.155.258-.3.568-.5.764-.507.485-1.095.568-1.766.237a.16.16 0 0 1-.072-.072.2.2 0 0 1-.026-.103l.232-4.042c0-.02.01-.031.031-.02.723.232 1.363.102 1.93-.383a.08.08 0 0 0 .011-.103l-.02-.031c-.042-.052-.083-.052-.13-.015q-1.037.83-2.168.103a2 2 0 0 1-.423-.558q.426-.04.62-.34c.805.304 1.367.175 2.1-.135-.19.46-.134.81.17 1.064.269.227.63.216.889-.01a.07.07 0 0 0 .02-.068l-.01-.036a.1.1 0 0 0-.105-.066.1.1 0 0 0-.04.015c-.49.34-.96-.124-.784-.661a1.26 1.26 0 0 1 .35-.537c.197.15.254.304.507.428q.804.397 1.569.258.596-.115 1.022-.79l.227.135c.052.026.047.051-.01.057l-.165.036a.1.1 0 0 0-.078.082l-.005.037a.05.05 0 0 0 .026.051h.02c.13 0 .259-.01.377-.02.042 0 .073 0 .104.015.056.036.072.103.129.14.036.02.077.01.118-.021l.006-.01.03-.088.017-.021.025-.01h.082c.016 0 .037-.01.052-.026a.1.1 0 0 0 .035-.078.1.1 0 0 0-.035-.077.2.2 0 0 0-.15-.041c-.051.005-.051 0-.01-.031a.28.28 0 0 1 .222-.042.1.1 0 0 0 .093-.015c.186-.13.217-.284.103-.465q.087-.324.351-.263"/>
        <path fill="#AEFFE3" d="M16.68 12.93c.118.185.087.34-.104.464a.1.1 0 0 1-.088.02.28.28 0 0 0-.222.042q-.06.039.01.03a.18.18 0 0 1 .155.042.1.1 0 0 1 .026.103.1.1 0 0 1-.03.052.1.1 0 0 1-.052.02l-.083.006-.025.01-.016.02-.031.088-.005.01c-.042.032-.083.042-.12.021-.05-.03-.071-.103-.133-.139a.2.2 0 0 0-.098-.015l-.398.02a.05.05 0 0 1-.026-.051l.005-.037a.1.1 0 0 1 .026-.051.1.1 0 0 1 .052-.031l.165-.036q.08-.017.01-.057l-.227-.134q.04-.139.119-.114c.072.016.155.052.253.098.02.01.026 0 .02-.02l-.154-.434a.1.1 0 0 1-.004-.05.1.1 0 0 1 .025-.043.1.1 0 0 1 .03-.015c.31-.088.697-.104.92.18"/>
        <path fill="#7DD5BC" d="M9.101 12.755c.134.051.196.186.18.423q0 .053.032.098c.108.134.113.305.258.393a.8.8 0 0 0 .222.175c-.026-.026-.031-.015-.01.02-.13.207-.336.316-.62.341a.6.6 0 0 1-.078-.17c.031-.062.104-.078.207-.052a.11.11 0 0 0 .114-.04.12.12 0 0 0 .01-.125.23.23 0 0 0-.196-.129.1.1 0 0 1-.078-.036.13.13 0 0 1-.03-.103c0-.026-.006-.052-.027-.067l-.103-.109a1.4 1.4 0 0 1 .119-.62"/>
        <path fill="#A0A782" d="M16.374 13.075h.104a.04.04 0 0 1 .02.036v.02a.1.1 0 0 1-.041.037.06.06 0 0 1-.047.01.09.09 0 0 1-.061-.051v-.036l.01-.011z"/>
        <path fill="#AEFFE3" d="M9.791 13.844a.7.7 0 0 1-.217-.175q.157-.131.042-.331c-.036-.067-.026-.124.041-.165l.031-.02a.1.1 0 0 1 .05-.013.1.1 0 0 1 .048.017l.02.026q.172.312-.015.661"/>
        <path fill="#A0A782" d="m8.982 13.374.103.104q.028.031.026.072c0 .041.005.077.03.103a.12.12 0 0 0 .078.036.22.22 0 0 1 .196.13.12.12 0 0 1-.01.123.11.11 0 0 1-.114.042c-.103-.026-.175-.01-.206.051a1.5 1.5 0 0 1-.103-.66"/>
        <path fill="#3C2718" d="M11.743 15.072a.02.02 0 0 1 .026-.005l.67.47a.3.3 0 0 1 .073.077c.02.026.02.052.015.062l-.02.026q-.016.024-.057.01a.3.3 0 0 1-.098-.046l-.671-.475-.005-.01v-.016l.062-.093zm1.26.057c.05.067.04.103-.042.119a.05.05 0 0 1-.033-.008.05.05 0 0 1-.019-.028v-.052a.05.05 0 0 1 .016-.03.05.05 0 0 1 .051-.016q.016.004.026.015m-.316.568c.233-.13.424-.3.584-.516q.024-.045.056-.005l.021.02a.1.1 0 0 1 0 .114 1.3 1.3 0 0 1-.594.5.07.07 0 0 1-.052-.02.1.1 0 0 1-.02-.026l-.01-.026v-.02q0-.014.015-.021m-.196-.336c.067.068.15.098.176.068.03-.031-.005-.109-.078-.176-.067-.067-.15-.103-.175-.067-.026.03.005.108.077.175"/>
        <path fill="#3C2718" d="M13.68 15.516a2.07 2.07 0 0 1-.981.744 2.45 2.45 0 0 1-1.404-.955.05.05 0 0 1 .015-.031l.02-.021q.031-.039.063 0c.35.34.75.627 1.187.846a.1.1 0 0 0 .098 0c.403-.165.723-.438.955-.81a.07.07 0 0 1 .036-.03.07.07 0 0 1 .047 0q.04.014.041.05a.37.37 0 0 1-.077.207"/>
        <path fill="#DFCA9F" d="M13.68 15.516a3.24 3.24 0 0 0 2.576.01q.014 1.797-.026 2.803c-.01.16-.052.362-.129.615a.44.44 0 0 0-.361-.073 2.32 2.32 0 0 1-1.92-.387 5 5 0 0 0-.506-.279q-.543.047-.806.016-.509-.048-1.228-.274c-.29-.216.201-.65.387-.784a6.4 6.4 0 0 0 1.032-.904c.395-.142.737-.401.981-.743"/>
        <path fill="#A0A782" d="M13.313 18.207c.176.082.34.175.506.278a2.32 2.32 0 0 0 1.92.388.44.44 0 0 1 .362.072c-.387.97-1.151 1.094-1.926.496a2.6 2.6 0 0 1-.862-1.24z"/>
        <path fill="#458A7B" d="M13.53 19.047c.01.021.016.042.006.057l-.016.016a.04.04 0 0 1-.051 0 2 2 0 0 1-.274-.398c-.046-.072-.114-.103-.206-.103-.207 0-.656-.052-.723.145l-.067.139c-.104.14-.191.201-.274.186l.346-.63a.07.07 0 0 1 .067-.036l.816.02a.14.14 0 0 1 .119.078z"/>
    </g>
    <defs>
        <clipPath id="CHAMPZ__a">
            <path fill="#fff" d="M0 0h24v24H0z"/>
        </clipPath>
    </defs>
</svg>
