<svg xmlns="http://www.w3.org/2000/svg" width="24" height="24" fill="none" viewBox="0 0 24 24">
    <g clip-path="url(#CRVUSD__a)">
        <path fill="#fff" d="M24 0H0v24h24z"/>
        <path fill="#FF6001" d="M12.633 5.272c-.043.061-.043.122 0 .174a.18.18 0 0 1 .028.179l-.598 1.609c-.668-.038-2.569-.137-3.133.362a.1.1 0 0 0-.028.104c.202.696.884 1.317 1.444 1.811v.282q.006.064.033.113c.362.626.475 1.223.63 1.915.066.306.033.546-.108.725l-.31-.217-.847-.555a2.43 2.43 0 0 0-.132-1.74 10.8 10.8 0 0 0-1.647-2.58c-.197-.244-.442-.672-.211-.907.282-.282.63-.25.997-.306q.048-.006.047-.061a.8.8 0 0 0-.155-.536.17.17 0 0 1-.033-.095l-.014-.569q2.046-.149 4.037.297z"/>
        <path fill="#FD1001" d="m8.596 4.98.014.565c0 .038.014.07.033.094a.85.85 0 0 1 .16.541q-.001.056-.052.062c-.367.056-.72.028-.997.305-.23.236.014.664.207.908a10.8 10.8 0 0 1 1.646 2.579q.397.916.132 1.74-.704-.267-1.247-.254a1.53 1.53 0 0 0-1.082.245c-.47.301-.828.019-1.106-.395-.362-.541-.828-1.002-1.2-1.53a8.4 8.4 0 0 0-.992-1.166 2.9 2.9 0 0 1-.056-1.355c.028-.16.098-.33.216-.499.108.273.202.541.292.8q.113.354.32.645c.216.315.409.64.663.922l.48.527a.47.47 0 0 0 .414.14 8 8 0 0 0 .97-.206c.201-.052.357-.033.559 0a.1.1 0 0 0 .094-.033l.122-.15a.08.08 0 0 0 0-.095.1.1 0 0 0-.023-.023c-.424-.23-.47-.621-.659-.946a5.2 5.2 0 0 1-.682-2.211c-.033-.395.094-.612.188-.974a7.7 7.7 0 0 1 1.586-.235"/>
        <path fill="#B90402" d="M7.015 5.215c-.094.358-.225.579-.193.97.062.8.292 1.533.683 2.21.188.33.235.72.658.95l.024.024a.075.075 0 0 1 0 .094l-.127.151a.1.1 0 0 1-.094.033 1.2 1.2 0 0 0-.555 0c-.325.09-.65.155-.97.212a.45.45 0 0 1-.414-.146l-.48-.527c-.254-.282-.446-.612-.663-.922a2.5 2.5 0 0 1-.32-.64q-.136-.396-.292-.805a1.4 1.4 0 0 1 .48-.672c.607-.443 1.365-.753 2.259-.932z"/>
        <path fill="#FFA501" d="M12.633 5.271c1.209.254 2.362.64 3.462 1.177a.4.4 0 0 0-.08.178c0 .01-.009.029-.028.047q-.022.036-.066.029a.09.09 0 0 0-.094.047l-.395.597a.18.18 0 0 0-.028.127c.023.141-.014.25-.118.315a.11.11 0 0 1-.103.015 10.8 10.8 0 0 0-3.12-.565l.598-1.614a.18.18 0 0 0-.028-.179c-.043-.051-.043-.113 0-.169z"/>
        <path fill="#F9E004" d="M16.096 6.448a8 8 0 0 1 2.762 2.112l-.377.174a.4.4 0 0 0-.084.066c-.174.16-.367.076-.499.203a.3.3 0 0 1-.103.06c-.193.067-.377.16-.542.283a.15.15 0 0 1-.108.024c-.042 0-.066.014-.08.06a.1.1 0 0 1-.066.066c-.249.076-.418.236-.64.368-.258.15-.437.352-.743.592-.41.316-.899.457-1.317.81-.24.197-.442.282-.71.38-.146.062-.292.189-.471.222a.2.2 0 0 0-.094.056.4.4 0 0 1-.174.095.1.1 0 0 0-.075.065.13.13 0 0 1-.104.09l-.546-.767a11 11 0 0 0 2.249-.894 3.7 3.7 0 0 0 1.035-.602l.725-.565a.1.1 0 0 0 .033-.056.11.11 0 0 0-.029-.118.1.1 0 0 0-.056-.028.83.83 0 0 0-.49.066.2.2 0 0 1-.103.018c-.348-.028-.687.095-1.063.052-.885-.094-1.854-.005-2.748 0-.202 0-.381.061-.574.061-.235 0-.536-.004-.706.189q-.046.001-.051-.02c-.56-.493-1.242-1.114-1.45-1.81a.1.1 0 0 1 .034-.104c.564-.499 2.465-.4 3.133-.362 1.068.07 2.098.188 3.12.564q.055.027.103-.01c.103-.065.14-.173.117-.314q-.015-.071.029-.128l.395-.597a.1.1 0 0 1 .094-.047c.028 0 .047-.005.066-.028a.1.1 0 0 0 .028-.047.4.4 0 0 1 .08-.184z"/>
        <path fill="#BDF83C" d="m18.857 8.56.447.598q-.183.27-.452.306-.344.043-.555.22a2.2 2.2 0 0 1-.565.359 8 8 0 0 0-.423.258c-.207.141-.452.198-.64.344-.113.094-.226.183-.33.282a.2.2 0 0 1-.093.047.36.36 0 0 0-.245.122c-.32.353-.72.433-1.068.753-.085.075-.226.057-.32.113-.268.16-.48.292-.795.419a2 2 0 0 0-.362.188c-.221.146-.254.339-.18.593a.3.3 0 0 0 .057.094c.245.306.33.71.047 1.026-.188.216-.423.273-.715.164a1.3 1.3 0 0 0-.992.01q-.8.4-1.61.78c-.258.123-.536.33-.828.452l-.338.18a.67.67 0 0 1-.527.05 6 6 0 0 1-.485-.559q-.14-.176-.33-.033l-.72-.885c.373 0 .777.203 1.149.095q.276-.09.56-.16c.277-.066.546-.39.884-.457.15-.028.26-.06.31-.094.64-.414 1.036-.687 1.615-.847l.442.4q.036.035.094.033c.423-.005.65-.188.955-.47.104-.094.141-.269.066-.377-.094-.132-.16-.254-.235-.39.047-.01.08-.038.098-.094a.1.1 0 0 1 .076-.061.4.4 0 0 0 .17-.095.2.2 0 0 1 .093-.056c.188-.033.33-.16.475-.221.269-.104.471-.188.706-.381.424-.353.913-.494 1.318-.81.31-.235.489-.442.748-.592.22-.127.395-.292.64-.367a.1.1 0 0 0 .065-.066q.019-.07.08-.061c.038.004.076 0 .109-.029a2.2 2.2 0 0 1 .54-.277.3.3 0 0 0 .104-.061c.132-.127.325-.047.499-.203a.4.4 0 0 1 .09-.066l.376-.174z"/>
        <path fill="#FF6001" d="M8.492 11.52c-.606.296-.818 1.049-.94 1.689a.2.2 0 0 1-.057.103.202.202 0 0 1-.306 0c-.814-.913-1.614-1.539-2.385-2.668a.03.03 0 0 0-.024-.014.03.03 0 0 0-.023.005.07.07 0 0 1-.057.014.05.05 0 0 1-.037-.033c-.01-.023-.02-.033-.033-.019-.188-.433-.635-1.482-.518-1.929.372.367.706.758.988 1.176.377.523.842.989 1.205 1.525.282.414.635.696 1.1.395a1.54 1.54 0 0 1 1.087-.245"/>
        <path fill="#BDF83C" d="M15.404 9.91q.013-.295-.42-.201a1.6 1.6 0 0 1-.418.046c-.405-.004-.819.076-1.195.062a31 31 0 0 0-1.619-.024c-.14 0-.343.07-.531-.005-.094-.037-.16-.023-.25-.028q-.083 0-.117.043c-.024.033-.028.084-.01.145l-.446-.414c.169-.197.47-.197.705-.192.193 0 .377-.062.574-.066.894 0 1.863-.094 2.748.004.376.047.715-.08 1.063-.047q.055-.002.104-.023a.83.83 0 0 1 .49-.066c.023 0 .041.014.055.028a.113.113 0 0 1-.004.17z"/>
        <path fill="#79FE7F" d="M19.305 9.157q.408.566.598 1.266a.6.6 0 0 0-.325.197.17.17 0 0 1-.094.062.14.14 0 0 0-.104.085.14.14 0 0 1-.08.075c-.225.084-.432.127-.64.254a17 17 0 0 0-1.025.682q-.239.168-.499.301c-.174.085-.343.174-.517.268-.094.052-.16.16-.297.174a.24.24 0 0 0-.098.038l-.33.197a.2.2 0 0 0-.075.08.14.14 0 0 1-.127.09.16.16 0 0 0-.094.037l-.17.151a.2.2 0 0 1-.103.047.46.46 0 0 0-.282.174.24.24 0 0 1-.095.066q-.12.056-.268.188c-.207.193-.583.273-.724.673a.2.2 0 0 0-.005.108.9.9 0 0 1-.155.697c-.132.174-.395.273-.593.376a.14.14 0 0 1-.108.01.75.75 0 0 1-.292-.203c-.263-.273-.739.033-1.007.216q-.17.118-.423.193a1.6 1.6 0 0 0-.438.212.2.2 0 0 1-.103.038.34.34 0 0 0-.269.136.13.13 0 0 1-.094.052.45.45 0 0 0-.22.08 4.8 4.8 0 0 1-.862.49.36.36 0 0 1-.404-.086l-.612-.658a.7.7 0 0 0 .527-.056l.339-.18c.292-.122.564-.329.828-.451q.81-.377 1.609-.781a1.3 1.3 0 0 1 .988-.01q.443.162.724-.164c.278-.315.189-.72-.051-1.026a.3.3 0 0 1-.057-.094c-.075-.254-.047-.447.179-.593a2 2 0 0 1 .362-.188c.316-.127.527-.259.795-.419.095-.056.236-.037.32-.108.349-.324.748-.404 1.068-.757a.34.34 0 0 1 .245-.123.2.2 0 0 0 .094-.047c.104-.098.217-.188.33-.282.188-.146.432-.202.64-.343q.343-.241.724-.415c.038-.018.127-.089.263-.202.142-.117.33-.188.556-.22q.267-.037.451-.307"/>
        <path fill="#FFA501" d="M10.348 9.512q.002.019.047.023l.451.415.598.658.682.8.546.767c.08.136.14.259.235.386.085.113.047.282-.061.376-.306.287-.532.47-.96.475a.13.13 0 0 1-.094-.033l-.438-.395-.451-.437c.141-.18.174-.42.108-.725-.155-.696-.268-1.289-.63-1.915a.23.23 0 0 1-.029-.113z"/>
        <path fill="#79FE7F" d="M15.404 9.91a3.7 3.7 0 0 1-1.03.598c-.006-.14-.165-.216-.476-.216-.282 0-.687.047-1.223.141a1.75 1.75 0 0 1-1.045-.127.16.16 0 0 0-.179.038.18.18 0 0 0-.037.188l.028.075-.597-.659c-.02-.06-.014-.112.009-.145q.03-.043.118-.043c.094 0 .16-.01.249.028.188.076.395 0 .531 0 .537 0 1.078.005 1.62.029.375.014.79-.066 1.194-.057q.178.001.419-.047.43-.099.423.198z"/>
        <path fill="#28F9D2" d="M14.374 10.508c-.714.382-1.468.682-2.25.894l-.681-.8-.029-.07a.18.18 0 0 1 .038-.188.16.16 0 0 1 .179-.038c.343.15.691.188 1.044.132.537-.094.941-.142 1.224-.142.31 0 .47.066.475.212"/>
        <path fill="#4DFEAD" d="m19.901 10.423.033.221a4 4 0 0 0-.485.47q-.174.206-.376.297c-.193.094-.456.179-.621.33-.254.22-.584.376-.838.625a.15.15 0 0 1-.094.038c-.291.01-.428.174-.654.282-.31.15-.583.33-.87.532a6 6 0 0 1-.677.386c-.429.211-.833.48-1.2.8a.11.11 0 0 0-.043.098c.014.287-.033.847-.362.894a.2.2 0 0 0-.094.042l-.33.236a.11.11 0 0 1-.107.018c-.283-.103-.495-.14-.626-.113-.386.08-.918.287-1.59.63q-.185.095-.377.165a.12.12 0 0 0-.075.066.1.1 0 0 1-.033.047q-.46.276-.941.509a.12.12 0 0 1-.108 0l-.146-.066q-.087.008-.104.066l-1.632-1.67c.132-.095.24-.085.334.032.221.278.376.461.484.565l.612.659a.36.36 0 0 0 .405.084q.437-.192.86-.49a.45.45 0 0 1 .222-.08q.054-.001.094-.05a.34.34 0 0 1 .268-.142.17.17 0 0 0 .104-.033 1.6 1.6 0 0 1 .437-.212c.17-.047.31-.113.424-.188.268-.188.743-.494 1.006-.22a.8.8 0 0 0 .292.201q.058.019.108-.004c.198-.109.461-.207.593-.381a.9.9 0 0 0 .15-.697.2.2 0 0 1 .01-.108c.141-.4.518-.48.725-.673q.148-.133.268-.188a.24.24 0 0 0 .094-.066.45.45 0 0 1 .282-.174.2.2 0 0 0 .104-.047l.174-.15a.16.16 0 0 1 .09-.043.14.14 0 0 0 .126-.084.2.2 0 0 1 .07-.08l.33-.198a.24.24 0 0 1 .104-.038c.136-.014.207-.122.3-.174q.254-.14.514-.268.26-.133.498-.301c.33-.235.673-.47 1.026-.682.207-.127.414-.17.64-.254a.14.14 0 0 0 .08-.076q.034-.07.103-.084a.17.17 0 0 0 .094-.062.65.65 0 0 1 .325-.197"/>
        <path fill="#FAB40C" d="M4.629 10.598c.014-.014.023-.004.033.02a.05.05 0 0 0 .037.032q.03.007.057-.014a.03.03 0 0 1 .026-.005q.006 0 .01.005l.011.01c.772 1.128 1.571 1.754 2.385 2.667a.3.3 0 0 0 .094.061.2.2 0 0 0 .212-.061.2.2 0 0 0 .052-.103c.127-.64.339-1.393.946-1.694q.542-.008 1.246.258l.852.556q-.157.14-.348.23c-.15.07-.268.141-.353.203-.696.517-1.515.625-2.098.832a1.8 1.8 0 0 0-.532.353.14.14 0 0 1-.104.038l-.686-.028a12.4 12.4 0 0 1-1.84-3.36"/>
        <path fill="#28F9D2" d="M19.934 10.645c.132.612.108 1.35-.48 1.731-1.444.941-2.893 1.868-4.328 2.81-.245.16-.72.408-.659.761.094.556.235 1.205.118 1.755-.052-.301-.363-.39-.584-.423a.9.9 0 0 1-.362-.123l-.193-.131a.1.1 0 0 1-.047-.07l-.202-.895c-.024-.094-.075-.127-.165-.094l-1.002.376a.16.16 0 0 0-.08.062.13.13 0 0 1-.136.066c-.014 0-.033 0-.047.009a.1.1 0 0 0-.038.033c-.132.212-.438.287-.659.381q-.03.014-.037.056a.1.1 0 0 1-.014.047.1.1 0 0 1-.066.033c-.348.07-.692.189-1.021.358a.1.1 0 0 1-.047.01.1.1 0 0 1-.057-.015 2 2 0 0 1-.54-.451l.14.066c.043.018.075.018.113 0 .32-.156.635-.33.941-.509a.1.1 0 0 0 .033-.047.12.12 0 0 1 .07-.066 3 3 0 0 0 .382-.164 7 7 0 0 1 1.59-.63q.2-.043.626.112.057.021.108-.014l.33-.24a.2.2 0 0 1 .093-.037c.33-.048.377-.612.363-.894q0-.064.042-.1a5.5 5.5 0 0 1 1.2-.804q.402-.196.677-.386c.287-.197.56-.376.87-.531.227-.108.363-.273.65-.283q.058-.001.094-.037c.259-.25.588-.405.842-.63.165-.142.424-.236.621-.325a1.1 1.1 0 0 0 .377-.292c.14-.17.305-.33.484-.475"/>
        <path fill="#E5E918" d="m10.59 12.33.31.216.452.437c-.574.155-.973.428-1.613.842-.052.033-.16.066-.31.095-.34.065-.613.39-.885.456a8 8 0 0 0-.565.155c-.367.113-.772-.094-1.143-.094l-.367-.48.687.028a.14.14 0 0 0 .103-.037 1.8 1.8 0 0 1 .532-.353c.583-.207 1.402-.31 2.098-.833q.128-.098.353-.202c.127-.061.245-.141.348-.23"/>
        <path fill="#09ADF3" d="M14.59 17.708c-.056.367-.192.677-.418.917a1.1 1.1 0 0 0-.363-.339.2.2 0 0 0-.103-.028.85.85 0 0 1-.4-.113c-.01 0-.014-.014-.01-.023l.02-.043v-.01l-.008-.009-.011-.004c-.085-.01-.146-.062-.165-.156a2 2 0 0 0-.113-.395q-.02-.055-.075-.047-.338.05-.457.17-.232.234-.357.235a.56.56 0 0 0-.428.197.12.12 0 0 1-.095.048c-.395.009-.747-.236-1.129-.048a8 8 0 0 1-1.293-1.063q.02-.058.103-.066c.15.184.33.33.541.452q.022.014.052.014c.019 0 .038 0 .052-.01a4 4 0 0 1 1.02-.357.1.1 0 0 0 .067-.033.1.1 0 0 0 .014-.047c0-.028.018-.047.042-.056.216-.094.518-.17.659-.381a.1.1 0 0 1 .033-.034.1.1 0 0 1 .047-.009.14.14 0 0 0 .14-.066c.015-.028.048-.047.076-.061l1.002-.376c.09-.033.141 0 .165.094l.197.894c.01.028.024.056.048.07l.197.132a1 1 0 0 0 .362.122c.221.033.532.123.584.424z"/>
        <path fill="#0158FE" d="M14.17 18.625c-.893.983-2.84.066-3.693-.564.381-.189.734.056 1.13.047a.11.11 0 0 0 .094-.047.57.57 0 0 1 .428-.198q.126-.001.357-.235c.08-.08.236-.141.457-.17q.055-.007.075.047.085.191.113.396c.019.094.08.14.165.155l.01.005.004.009v.019l-.014.033q-.006.015.01.023a.84.84 0 0 0 .399.113q.051 0 .104.028.22.135.362.34"/>
    </g>
    <defs>
        <clipPath id="CRVUSD__a">
            <path fill="#fff" d="M0 0h24v24H0z"/>
        </clipPath>
    </defs>
</svg>
