<svg xmlns="http://www.w3.org/2000/svg" width="24" height="24" fill="none" viewBox="0 0 24 24">
    <g clip-path="url(#CTK__a)">
        <path fill="#E1AB4B" d="M24 0H0v24h24z"/>
        <path fill="#fff" fill-rule="evenodd" d="M17.548 20H6.504c-.438 0-.8-.282-.833-.71L4.94 8.418a.8.8 0 0 1 .396-.744l6.268-3.548A.9.9 0 0 1 12.028 4c.156 0 .316.042.452.122l6.174 3.365a.8.8 0 0 1 .405.748l-.673 11.05c-.028.423-.395.715-.838.715m-.814-1.882h-9.42l-.66-8.989 5.384-3.247 5.303 3.092-.611 9.144zm-8.17-8.23.198 3.524h4.895l-.1 1.411h-2.936l-.075-.94h-1.76l.155 2.823h6.18L15.444 12h-5.036l-.094-1.13 1.709-1.223 1.858 1.224v.658h1.596l.113-1.642-3.516-2.122z" clip-rule="evenodd"/>
    </g>
    <defs>
        <clipPath id="CTK__a">
            <path fill="#fff" d="M0 0h24v24H0z"/>
        </clipPath>
    </defs>
</svg>
