<svg xmlns="http://www.w3.org/2000/svg" width="24" height="24" fill="none" viewBox="0 0 24 24">
    <g clip-path="url(#CWAR__a)">
        <path fill="#fff" d="M24 0H0v24h24z"/>
        <path fill="url(#CWAR__b)" d="M17.265 19.974c-.725-.02-2.07-.325-1.61-1.36.58-1.29 1.5-1.665 2.49-1.515.99.145.86-.89.57-.89l-.21-.02c-.51-.06-1.69-.195-2.85.55-1.37.875-1.88.885-2.215-.27-.34-1.16 1.545-.98 2.215-.7.675.285 1.61-1.485 1.82-2.35.04-.185.145-.444.26-.75.44-1.135 1.125-2.9.05-3.7a2.9 2.9 0 0 0-1.05-.3c-.42-.064-.71-.104-.565-.42a4.5 4.5 0 0 1 1.76-1.224c.95-.295 1.15-1.17 1.045-1.52-.11-.35-1.84-2.07-4.34-1.315a4.8 4.8 0 0 0-1.78.87c.015.145.005.33-.025.57-.2 1.47-.74 1.63-1.275 1.71-.345.05-.54.21-.715.35-.1.075-.185.145-.285.185-.225.1-.425.1-.5.09.51.55 1.585 2.004 1.84 3.5.33 1.964-.245 4.32-.77 6.47q-.257 1.02-.47 2.05z"/>
        <path fill="url(#CWAR__c)" d="M9.23 7.009c-1.92.235-2.115-.825-1.97-1.38.23-.565 1.97-.44 2.44-.645.465-.2 1.53-.135 2.05-.235.525-.1 1.275-.595 1.08.88-.2 1.47-.74 1.63-1.275 1.71-.53.075-.715.415-1 .535-.225.1-.425.1-.5.09.51.55 1.585 2.005 1.84 3.5.44 2.62-.725 5.92-1.24 8.525H5.12v-.775c.36-1.725 3.645-2.15 3.88-2.925.24-.775-1.25-.925-2.835-2.14-1.59-1.21-1.21-5.755 0-6.185 1.205-.425 1.37.665 1.75.52.38-.15.39-1.215.685-1.325.295-.115 1.045 0 1.455-.08.415-.08.47.02.785-.07s.295-.255.915-.435-.1-.735-.525-.95c-.34-.17-.83.4-1.03.7-.46 0-.22.685-.97.685"/>
        <path fill="url(#CWAR__d)" d="M10.4 19.35 5 14.525v.115l5.05 4.775-.125.585h.24l.24-.65z"/>
        <path fill="url(#CWAR__e)" d="m10.036 20 .23-.63-3.56-3.115 3.34 3.16-.12.585z"/>
        <path fill="url(#CWAR__f)" d="M9.035 14.21 6.47 12.24l2.13 2.115-.37 2.73.8-2.875z"/>
        <path fill="url(#CWAR__g)" d="m6.535 12.304 2.37 1.9-.54 1.88.235-1.73z"/>
        <path fill="url(#CWAR__h)" d="M9.895 8.34C8.98 7.203 7.51 6.39 5.285 6.693c3.675-.18 5.925 3.43 5.26 6.5l-3.61-1.81 4.2 2.43L9.75 17.55l1.765-3.86-.425-.21a6.1 6.1 0 0 0-1.2-5.14z"/>
        <path fill="url(#CWAR__i)" d="M6.11 6.628c1.714.11 2.84.765 3.57 1.63a5.8 5.8 0 0 1 1.264 5.165l-.01.04.415.24-1.48 3.52-.08.225h.01l1.715-3.76-.425-.21c.335-1.365.175-3.45-1.2-5.14a4.55 4.55 0 0 0-3.78-1.71"/>
        <path fill="url(#CWAR__j)" d="M5.05 8.934c.865.04 1.55.87 1.55 1.89 0 .66-.285 1.24-.725 1.58a2 2 0 0 0 .92-1.724c0-1.076-.765-1.95-1.71-1.95h-.03v.204z"/>
        <path fill="url(#CWAR__k)" d="M5.05 12.2c.405-.15.7-.605.7-1.15 0-.55-.295-1.005-.7-1.15v.12c.34.165.58.575.58 1.05 0 .48-.24.885-.575 1.05v.075z"/>
        <path fill="url(#CWAR__l)" fill-rule="evenodd" d="M9.1 5.73c.05.1.13.34 0 .485-.166.18.27.4.28.2V6.27c0-.235 0-.57.2-.45.2.03.284.065.334.085.025.01.04.02.06.02.03 0 .065-.02.165-.075l.05-.03.085-.05c.37-.23 1.11-.68 1.76-.14.06.075.155.26.09.37-.09.135-.175.35-.09.495.09.145.01.37-.545.435-.3.04-.515.2-.685.335-.15.11-.27.2-.38.16l-.135-.05c-.14-.055-.215-.09-.375.05-.1.09-.245.005-.41-.09-.17-.1-.37-.22-.57-.165-.3.075-.305.41-.305.63 0 .065 0 .12-.01.155-.015.08-.1.115-.17.135-.075.03-.13.05-.025.115l.12.065c.11.05.13.065-.045.19-.225.17-.455.465-.185.755 0 .055-.05.085-.11.115-.1.05-.21.1-.14.3 0 .05-.01.09-.015.13-.025.105-.04.185.115.185.06.02.2.085.26.19.035.065 0 .09-.035.115-.04.025-.07.05.035.11.085.055.19.035.29.01.13-.025.25-.05.31.095.1.255.13.7 0 .775-.105.06.105.235.225.315a.35.35 0 0 1 .09-.315c.06-.06.1-.06.15-.06s.125.005.25-.065c.125-.065.145-.125.15-.165.015-.045.02-.065.126-.06.2.01.074-.425-.12-.425-.126 0-.126-.01-.15-.06-.02-.035-.05-.08-.11-.155-.176-.19-.3-.18-.416-.09-.26.2-.535.17-.6.09a1 1 0 0 1-.08-.11.6.6 0 0 0-.18-.195c-.065-.07-.065-.125-.06-.17 0-.03 0-.055-.015-.075-.055-.07.005-.17.335-.135.075.035.21.06.165-.1-.055-.205.25-.1.27 0 .025.1.165.335.25.165a.26.26 0 0 0 .015-.225.3.3 0 0 1-.015-.145.4.4 0 0 0 0-.145.4.4 0 0 1 .035-.26c.085-.2.075-.215-.075-.25-.15-.03-.385-.11-.275-.29.065-.105.1-.12.125-.125.015-.005.025-.01.04-.045.01-.03-.005-.125-.025-.24-.03-.17-.07-.37-.01-.41.1-.07.22-.045.46.09.165.095.27.055.365.025a.4.4 0 0 1 .125-.025.2.2 0 0 0 .11-.035c.05-.025.105-.055.25-.02.15.035.19.005.25-.035a.5.5 0 0 1 .105-.07c.05-.02.085-.05.115-.08.065-.05.12-.105.31-.1.15.01.2-.06.245-.125.04-.06.075-.115.18-.11h.005c.22.015.57.03.65-.325.045-.23.08-.295.12-.37l.085-.18c.085-.235.2-1.025 0-1.1-.06-.025-.105-.06-.15-.09-.105-.075-.2-.15-.47-.025l-.22.1c-.13.07-.135.075-.45.09h-.325c-.28-.01-.535-.02-.815.17-.23.16-.45.175-.615.19-.1.01-.185.02-.23.055-.1.085-.12.17-.12.2zm.55 4.96a.22.22 0 0 0-.19-.115c-.146 0-.21-.045-.22-.155s.02-.095.164-.01l.02.01c.09.05.14.02.175 0 .035-.015.06-.03.1 0 .085.065.05.27-.05.27m-.366.235c.05 0 .11.045.13.065.05 0 .05-.25-.05-.255-.115-.015-.15.19-.08.19m-.24-1.585c.05-.005.15-.025.175-.08.03-.065.065.2-.01.215-.08.01-.145-.09-.165-.135" clip-rule="evenodd"/>
        <path fill="#FDFEFC" d="M7.48 11.094V10.1l2.805 2.07-.295.235-2.51-1.315z"/>
        <path fill="url(#CWAR__m)" d="m17.04 16-2.655 1.864-.1-.1 2.395-2.015.48-1.215 1.12-.8-.96 1.08-.28 1.18z"/>
        <path fill="url(#CWAR__n)" d="m14.335 17.81 2.45-1.971.46-1.24.82-.62.215-.245-1.12.8-.48 1.215-2.395 2.01z"/>
        <path fill="url(#CWAR__o)" d="m18.494 17.65-1.35 2.25 1.11-2.485.745-.28v.28z"/>
        <path fill="url(#CWAR__p)" d="m19 17.205-.636.24-.545 1.33.675-1.125.505-.235z"/>
        <path fill="url(#CWAR__q)" d="m19 10.52-.165-.01c-.715 0-1.32.694-1.32 1.55 0 .86.58 1.55 1.3 1.55l.14-.006c-.625-.084-1.11-.714-1.11-1.475 0-.775.52-1.41 1.155-1.48z"/>
        <path fill="url(#CWAR__r)" d="M19 11.034c-.5.07-.92.49-.92 1 0 .415.25.765.605.925a1 1 0 0 1-.405-.83c0-.48.325-.88.72-.955z"/>
        <path fill="url(#CWAR__s)" fill-rule="evenodd" d="M13.614 8c-.115.034-.105.15-.09.2v.01l.01.02s.015 0 .05-.02l.015-.006c.08-.035.12-.035.175.09.035.07-.014.09-.084.115a.5.5 0 0 0-.166.1c-.074.07-.044.1-.004.135.024.025.05.05.05.1l-.006.045c-.014.085-.02.15.09.27.1.105.085.14.04.225l-.04.075c-.02.05-.04.065-.055.075-.025.02-.035.025 0 .25.04.25.1.26.165.275.036.01.066.015.1.045.105.09.04.12-.035.075s-.15.05-.11.135c.025.05.075.065.12.08.04.01.075.025.066.055-.01.035-.05.025-.085.02-.04-.01-.08-.02-.1.015-.03.07.064.19.184.135.04-.02.115-.075.2-.14.19-.135.435-.32.54-.3.095.02.115.06.15.12.02.04.05.09.1.15.14.16.175.24.11.315-.05.065-.06.25-.055.34a3 3 0 0 0 .73-.36c.035-.055.02-.105.005-.155a.24.24 0 0 1-.005-.14c.01-.045.07-.05.125-.06.085-.015.17-.03.115-.165-.075-.165-.12-.17-.22-.185-.035-.005-.08-.01-.13-.025-.11-.035-.155-.07-.205-.1a.5.5 0 0 0-.145-.08c-.065-.025-.1-.115-.135-.215-.05-.13-.1-.275-.245-.34-.17-.075-.2-.225-.23-.35a.5.5 0 0 0-.05-.145c-.035-.05-.03-.115-.025-.18 0-.07.01-.135-.04-.18a.4.4 0 0 0-.165-.05c-.08-.015-.175-.03-.25-.105-.08-.08 0-.155.07-.215.04-.04.08-.075.06-.1-.024-.045-.05-.02-.085.02l-.075.08c-.1.08-.12-.145-.12-.27 0-.075.015-.07.05-.055.015.005.04.015.07.01.075-.01.066-.055 0-.11-.03-.025-.05-.01-.074.005-.035.025-.08.05-.166-.03-.145-.135.065-.27.075-.155.01.11.065.18.13.09.026-.04 0-.085-.014-.13-.03-.06-.05-.11.08-.1.23.025.45.04.64-.02.1-.025.164-.095.22-.15.06-.06.11-.115.174-.105.1.005.23-.045.28-.07.07-.045.07-.07.07-.1 0-.04 0-.08.125-.16.305-.195.375-.36.425-.475l.025-.05c.04-.085.08-.09.15-.095.025 0 .05 0 .085-.01.05-.005.08 0 .105.005.035.01.06.015.125-.05.11-.1.175-.19.165-.325-.015-.135-.065-.28-.34-.575-.2-.215-.34-.18-.47-.145-.05.01-.095.025-.14.025a.8.8 0 0 1-.18-.03.5.5 0 0 0-.34-.005c-.105.04-.175.05-.24.065s-.12.025-.205.06a.8.8 0 0 1-.24.035c-.155.015-.325.025-.414.13-.095.115-.17.12-.286.13-.055.005-.12.01-.2.03-.25.055-.34.11-.185.38.105.195.095.215.05.285-.01.03-.034.07-.05.135-.065.21.1.36.185.29.035-.03.05-.055.055-.075.01-.025.015-.035.06-.035.05 0 .09-.05.13-.11.025-.04.05-.08.09-.105.05-.04-.01-.08-.08-.125-.05-.035-.11-.075-.14-.125-.065-.11-.02-.235.066-.235.05 0 .05.05.05.1-.006.035-.006.07.02.07.05 0 .13-.1.14-.34.004-.16.2-.195.344-.22a.4.4 0 0 0 .15-.05c.05-.03.21-.05.38-.075.185-.025.375-.05.43-.09.05-.035.075-.03.125-.015.065.015.165.045.4.015.41-.06.605.495.64.605.02.08-.05.1-.13.13l-.1.04c-.065.035-.07.015-.07-.005 0-.015-.005-.03-.03-.03-.03 0-.035.02-.05.055a.3.3 0 0 1-.05.115c-.035.065-.065.08-.1.1s-.07.035-.115.08a.6.6 0 0 0-.085.1.24.24 0 0 1-.13.115c-.065.025-.075.055-.08.095a.13.13 0 0 1-.05.085 1 1 0 0 0-.185.17l-.1.1c-.04.035-.08.005-.125-.02-.04-.03-.09-.06-.15-.05-.055.01-.065.04-.075.07-.01.035-.025.075-.1.11a.2.2 0 0 0-.1.1c-.02.035-.03.065-.09.08-.07.02-.08-.01-.09-.05a.17.17 0 0 0-.05-.1c-.07-.05-.08-.04-.135-.005l-.075.045-.064.035c-.066.04-.085.05-.196 0-.1-.05-.25.075-.35.165l-.105.08c-.06.03-.145 0-.23-.04l-.11-.04c-.12-.035-.12.135.046.16.13.015.204.1.23.145-.03.01-.056 0-.085-.005-.04-.015-.08-.025-.116.04-.03.07.01.07.055.075.045 0 .095 0 .1.06.005.07.07.1.136.135a.3.3 0 0 1 .094.065l.015.02c.05.065.11.13-.015.17m.78 1.15c.19-.066.275.134.295.25l.02.334c-.18.08-.585.235-.75.2-.204-.045-.23-.37-.03-.44l.135-.04c.116-.035.18-.05.15-.1-.05-.07-.06-.13.18-.205m.85 1.38c-.065.014-.195.014-.185-.1.01-.15.12-.15.185-.09.065.054.085.16 0 .19m-.25-.56c.095.034.14.014.15 0 .21-.1.305-.08.35.034.02.05.04.075.06.095s.035.04.05.095c.02.1-.1.045-.21-.035-.085-.065-.15-.05-.26-.035l-.1.015c-.185.02-.16-.215-.04-.17M13.73 6.01c-.06.02-.17.064-.116.09.025.014.05.02.066.02.034.01.054.014.064.05.01.05.15-.036.15-.07 0-.026-.11-.07-.165-.09m.11.854c0 .035-.03.07-.066.07a.065.065 0 0 1-.064-.07c0-.035.03-.065.064-.065.035 0 .065.03.065.065m1.95 2.71c-.1-.025-.3-.265-.386-.38-.02-.06-.04-.155.055-.06.12.125.22.17.415.1.2-.065.335-.04.5.115.165.16-.165.385-.315.37a.23.23 0 0 1-.16-.075c-.03-.025-.06-.055-.11-.07m-.056-.17c-.05-.08.1-.06.14-.055h.01c.03.07.09.115.14.15s.085.06.055.085c-.035.04-.065.02-.105-.01a.4.4 0 0 0-.09-.045c-.1-.035-.1-.035-.15-.125" clip-rule="evenodd"/>
        <path fill="url(#CWAR__t)" d="m14.25 17.864-.4.27c-1.54-2.87-1.375-6.085.65-8.57 1.11-1.355 2.69-2.325 4.475-2.405v.19a7.28 7.28 0 0 0-3.96 2.36c-1.875 2.33-2.26 4.71-.76 8.15z"/>
        <path fill="url(#CWAR__u)" d="m13.995 18.039-.145.095c-1.54-2.87-1.375-6.085.65-8.57 1.11-1.355 2.69-2.325 4.475-2.405v.035c-.925.08-3.19.485-4.82 3a7.46 7.46 0 0 0-.16 7.845"/>
        <path fill="#4AFFFE" d="M13.778 13.126c.339.411 1.208.22 1.94-.427.734-.646 1.053-1.504.714-1.915-.34-.411-1.208-.22-1.941.427s-1.053 1.504-.713 1.915"/>
        <path fill="#fff" d="m14.025 13.49.185-1.295 2.265-1.315.115.35z"/>
    </g>
    <defs>
        <linearGradient id="CWAR__b" x1="13.31" x2="12.736" y1="4.715" y2="20.03" gradientUnits="userSpaceOnUse">
            <stop stop-color="#11638B" stop-opacity=".2"/>
            <stop offset=".18" stop-color="#02849D" stop-opacity=".34"/>
            <stop offset=".39" stop-color="#176C96" stop-opacity=".56"/>
            <stop offset=".52" stop-color="#0B9BB4"/>
            <stop offset=".77" stop-color="#072230" stop-opacity=".65"/>
            <stop offset="1" stop-color="#0E3650" stop-opacity=".45"/>
        </linearGradient>
        <linearGradient id="CWAR__c" x1="5.587" x2="11.634" y1="9.158" y2="18.166" gradientUnits="userSpaceOnUse">
            <stop stop-color="#6C0808" stop-opacity=".57"/>
            <stop offset=".61" stop-color="#B81214"/>
            <stop offset="1" stop-color="#9E3543" stop-opacity=".41"/>
        </linearGradient>
        <linearGradient id="CWAR__d" x1="5.026" x2="19.524" y1="4.03" y2="18.909" gradientUnits="userSpaceOnUse">
            <stop stop-color="#E8E2E2"/>
            <stop offset="1" stop-color="#E3EEEA"/>
        </linearGradient>
        <linearGradient id="CWAR__e" x1="5.001" x2="18.728" y1="4.043" y2="18.422" gradientUnits="userSpaceOnUse">
            <stop stop-color="#686264"/>
            <stop offset="1" stop-color="#5E5D5B"/>
        </linearGradient>
        <linearGradient id="CWAR__f" x1="5" x2="9.214" y1="4.001" y2="21.423" gradientUnits="userSpaceOnUse">
            <stop offset=".47" stop-color="#FFFDFA"/>
            <stop offset="1" stop-color="#E1D6D8"/>
        </linearGradient>
        <linearGradient id="CWAR__g" x1="6.713" x2="12.454" y1="4.973" y2="21.948" gradientUnits="userSpaceOnUse">
            <stop stop-color="#9E4849"/>
            <stop offset=".49" stop-color="#753939"/>
            <stop offset=".76" stop-color="#886E71"/>
            <stop offset="1" stop-color="#5A3A3D"/>
        </linearGradient>
        <linearGradient id="CWAR__h" x1="7.663" x2="11.611" y1="4.014" y2="20.683" gradientUnits="userSpaceOnUse">
            <stop stop-color="#5A4F4E"/>
            <stop offset=".41" stop-color="#B3908F"/>
            <stop offset=".56" stop-color="#D2A3A3"/>
            <stop offset="1" stop-color="#5C4347"/>
        </linearGradient>
        <linearGradient id="CWAR__i" x1="6.346" x2="9.435" y1="3.593" y2="20.602" gradientUnits="userSpaceOnUse">
            <stop stop-color="#8A7F79"/>
            <stop offset=".35" stop-color="#F3E8E4"/>
            <stop offset=".65" stop-color="#F4EAE9"/>
            <stop offset="1" stop-color="#F9EDF1"/>
        </linearGradient>
        <linearGradient id="CWAR__j" x1="12.018" x2="12.018" y1="4" y2="19.999" gradientUnits="userSpaceOnUse">
            <stop stop-color="#BFB1B1"/>
            <stop offset="1" stop-color="#EBD8D2"/>
        </linearGradient>
        <linearGradient id="CWAR__k" x1="11.999" x2="11.999" y1="4.001" y2="19.965" gradientUnits="userSpaceOnUse">
            <stop stop-color="#D6C2C4"/>
            <stop offset="1" stop-color="#F5DFE1"/>
        </linearGradient>
        <linearGradient id="CWAR__l" x1="11.999" x2="11.999" y1="4.005" y2="20" gradientUnits="userSpaceOnUse">
            <stop stop-color="#FFABB8"/>
            <stop offset=".54" stop-color="#FF949E"/>
            <stop offset="1" stop-color="#F8C5C4"/>
        </linearGradient>
        <linearGradient id="CWAR__m" x1="19.649" x2="2.431" y1="4.058" y2="18.68" gradientUnits="userSpaceOnUse">
            <stop offset=".25" stop-color="#4A6266"/>
            <stop offset=".38" stop-color="#939D9F"/>
            <stop offset=".51" stop-color="#324242"/>
            <stop offset="1" stop-color="#131F1F"/>
        </linearGradient>
        <linearGradient id="CWAR__n" x1="18.264" x2="2.381" y1="4.059" y2="18.445" gradientUnits="userSpaceOnUse">
            <stop stop-color="#A5B8BE"/>
            <stop offset=".36" stop-color="#D2D8DE"/>
            <stop offset="1" stop-color="#BEC3C7"/>
        </linearGradient>
        <linearGradient id="CWAR__o" x1="18.81" x2="9.113" y1="2.814" y2="22.101" gradientUnits="userSpaceOnUse">
            <stop stop-color="#6B6F72"/>
            <stop offset="1" stop-color="#EFEFEF"/>
        </linearGradient>
        <linearGradient id="CWAR__p" x1="18.703" x2=".506" y1="1.198" y2="33.502" gradientUnits="userSpaceOnUse">
            <stop stop-color="#514F50"/>
            <stop offset="1" stop-color="#555557"/>
        </linearGradient>
        <linearGradient id="CWAR__q" x1="11.882" x2="11.882" y1="4" y2="20.025" gradientUnits="userSpaceOnUse">
            <stop stop-color="#6C898D"/>
            <stop offset=".54" stop-color="#D4E1E9"/>
            <stop offset="1" stop-color="#A4B9BE"/>
        </linearGradient>
        <linearGradient id="CWAR__r" x1="16.946" x2="15.265" y1="5.122" y2="20.376" gradientUnits="userSpaceOnUse">
            <stop stop-color="#96AFB4"/>
            <stop offset=".44" stop-color="#93B6B8"/>
        </linearGradient>
        <linearGradient id="CWAR__s" x1="11.998" x2="11.998" y1="3.996" y2="19.999" gradientUnits="userSpaceOnUse">
            <stop stop-color="#DFFDFF"/>
            <stop offset=".3" stop-color="#ABFEFF"/>
            <stop offset=".65" stop-color="#B1F7FC"/>
            <stop offset="1" stop-color="#F7FFFD"/>
        </linearGradient>
        <linearGradient id="CWAR__t" x1="17.76" x2="12.745" y1="4" y2="21.096" gradientUnits="userSpaceOnUse">
            <stop stop-color="#A6A9A9"/>
            <stop offset=".34" stop-color="#8BC9D3"/>
            <stop offset=".46" stop-color="#7BE8FC"/>
            <stop offset="1" stop-color="#000600"/>
        </linearGradient>
        <linearGradient id="CWAR__u" x1="17.76" x2="12.745" y1="4" y2="21.096" gradientUnits="userSpaceOnUse">
            <stop stop-color="#989FA0"/>
            <stop offset=".46" stop-color="#D5FDFD"/>
            <stop offset="1" stop-color="#D2D7DD"/>
        </linearGradient>
        <clipPath id="CWAR__a">
            <path fill="#fff" d="M0 0h24v24H0z"/>
        </clipPath>
    </defs>
</svg>
