<svg xmlns="http://www.w3.org/2000/svg" width="24" height="24" fill="none" viewBox="0 0 24 24">
    <g clip-path="url(#DBC__a)">
        <path fill="#00CEDB" d="M24 0H0v24h24z"/>
        <path fill="#fff" d="m10.228 12.716-1.32 1.33c-.238.239-.47.48-.709.718-.04.04-.097.064-.146.096-.103-.017-.183-.08-.197-.17a13 13 0 0 1-.06-.417c-.023-.184-.082-.234-.275-.258q-.596-.07-1.191-.146l-.908-.113c-.18-.023-.246-.148-.152-.297q.327-.507.656-1.01l1.336-2.06c.052-.082.112-.14.225-.136a1 1 0 0 0 .219-.034c.084-.02.15.005.21.06q.158.14.315.284l1.207 1.104.782.71c.134.123.134.21.008.339m8.872 1.789c.075.06.156.118.172.22.02.131-.034.226-.15.298q-1.02.636-2.039 1.276l-1.314.82q-.062.039-.119.085a.26.26 0 0 0-.1.218q.012.236.019.473c.002.181-.136.295-.325.274a.26.26 0 0 1-.172-.095l-.474-.529q-.295-.331-.593-.662a.35.35 0 0 1-.107-.304l.027-.922c.003-.108.07-.177.16-.233l1.085-.67q.914-.558 1.824-1.124c.128-.08.248-.103.388-.034.104.05.224.06.335.026.169-.051.298-.006.428.105.313.266.637.518.956.778zm-5.838.765q.075.07.101.17c.03.144-.03.242-.17.308-.468.217-.885.434-1.357.644-.085.038-.254.129-.35.134H9.493c-.036 0-.07-.014-.104-.026a.3.3 0 0 1-.088-.056q-.076-.065-.15-.131c-.275-.252-.545-.51-.826-.756-.157-.137-.16-.322-.01-.47q.504-.502 1.004-1.01l1.082-1.095a.31.31 0 0 1 .343-.086q.06.021.106.064l1.44 1.38q.487.463.972.93m1.982-6.21c-.154-.229.02-.547.277-.588.686-.11 1.37-.237 2.056-.351.151-.026.27.041.354.161q.215.313.428.627.452.66.9 1.32c.04.06.06.132.09.197l-.018.008a.5.5 0 0 1-.123.307q-.632.813-1.262 1.627a.39.39 0 0 1-.334.143.39.39 0 0 1-.311-.185q-.92-1.469-1.847-2.933c-.07-.111-.137-.224-.21-.332m-1.204 2.726-.12 1.03c-.033.285-.07.569-.103.854l-.119 1.003c-.007.07-.008.142-.023.21-.009.033-.034.075-.063.086s-.08-.005-.105-.026q-.17-.143-.33-.294l-1.175-1.073q-.51-.465-1.024-.928c-.114-.102-.114-.134-.005-.245l1.566-1.581 1.07-1.083.524-.532c.016-.016.028-.037.047-.043.038-.013.084-.03.117-.02.027.008.04.056.048.069zm3.045.786c.051.08.06.156.003.238a.46.46 0 0 0-.074.312c.01.097-.032.156-.117.208q-1.004.616-2.003 1.234l-.63.387c-.083.05-.169.046-.215-.019-.025-.035-.028-.084-.035-.109l.088-.623.622-4.35.08-.548c.002-.014.002-.031.01-.042.021-.025.045-.063.071-.068.029-.004.073.017.092.041.048.063.088.133.131.201l1.564 2.48zM13.842 8.79c.025.016.073.032.099.065.039.051.005.099-.036.14l-.544.551-1.586 1.6q-.495.505-.992 1.008c-.12.12-.216.12-.34.006q-.58-.532-1.16-1.06-.565-.515-1.132-1.027c-.05-.046-.09-.096-.085-.167.009-.096.066-.151.18-.17l.629-.106zm-5.39.488 1.118-.735 3.609-2.37c.12-.079.195-.062.256.062l.743 1.543.096.2c.026.055.009.099-.025.147q-.066.09-.11.19a.17.17 0 0 1-.139.112l-1.592.276-3.939.683c-.03.005-.058 0-.088 0l-.018-.032c.03-.025.056-.055.088-.076m-3.753 1.177c-.235-.004-.375-.225-.262-.428.095-.171.2-.336.303-.504q.443-.727.883-1.454a.5.5 0 0 1 .2-.189l2.34-1.301q.076-.044.162-.062a.3.3 0 0 1 .159.015q.076.03.124.096a.27.27 0 0 1 .027.3c-.117.243-.24.482-.36.723q-.337.661-.67 1.324a.34.34 0 0 1-.24.197.56.56 0 0 0-.261.141.53.53 0 0 0-.148.253.3.3 0 0 1-.072.125.3.3 0 0 1-.127.074q-.963.329-1.924.66c-.043.015-.089.02-.134.03m3.323-1.409a.3.3 0 0 1 .027-.092l.838-1.772q.264-.553.523-1.106a.21.21 0 0 1 .198-.131q.393-.014.785-.031l1.544-.057c.18-.007.363-.019.544-.027.13-.006.218.07.22.192.005.075-.045.124-.109.166L8.198 9.071a.4.4 0 0 1-.07.042c-.056.022-.11-.01-.107-.068m-1.09 1.274-.394.606-1.472 2.267a.3.3 0 0 1-.08.096c-.085.058-.198.017-.238-.085q-.095-.248-.186-.498l-.535-1.452c-.013-.036-.022-.073-.027-.091 0-.098.034-.14.13-.17l.854-.263 1.612-.493.212-.063c.05-.016.1-.037.142.017.038.049.007.09-.019.129m13.055 2.903.013.096c-.008.039-.017.085-.03.13l-.212.737c-.06.213-.235.262-.41.12q-.543-.441-1.086-.878c-.083-.067-.117-.143-.098-.248a.47.47 0 0 0-.036-.31c-.05-.095-.034-.18.03-.262l.885-1.15.18-.235c.06-.08.14-.118.24-.096.106.023.16.093.178.192zm-6.213-7.019-.016-.032c-.021-.046-.03-.1.019-.127a.2.2 0 0 1 .136-.008c.07.021.134.06.2.092l2.69 1.295.477.231c.053.026.096.056.085.12s-.062.078-.12.089l-1.938.335-.063.013c-.018-.012-.054-.025-.076-.05a.64.64 0 0 0-.478-.234c-.071-.003-.108-.044-.135-.101q-.172-.357-.345-.71z"/>
    </g>
    <defs>
        <clipPath id="DBC__a">
            <path fill="#fff" d="M0 0h24v24H0z"/>
        </clipPath>
    </defs>
</svg>
