<svg xmlns="http://www.w3.org/2000/svg" width="24" height="24" fill="none" viewBox="0 0 24 24">
    <g clip-path="url(#DEXT__a)">
        <path fill="#0A5A72" d="M24 0H0v24h24z"/>
        <path fill="#fff" d="M10.46 4.755c.209.598.775 1.061 1.463 1.061.7 0 1.272-.48 1.472-1.092.131-.403.504-.821.912-.704a8.3 8.3 0 0 1 1.715.708c.367.202.34.744.15 1.116a1.548 1.548 0 0 0 2.065 2.094c.375-.185.919-.203 1.115.165.259.485.469.995.627 1.52.121.407-.294.784-.697.92-.605.203-1.078.77-1.078 1.465 0 .692.473 1.26 1.078 1.464.404.135.818.512.697.918a8.3 8.3 0 0 1-.726 1.701c-.202.355-.724.335-1.09.152a1.55 1.55 0 0 0-2.1 2.037c.173.37.178.892-.183 1.082-.48.253-.99.46-1.52.617-.393.116-.76-.269-.898-.655-.214-.591-.778-1.044-1.457-1.044-.68 0-1.245.453-1.458 1.044-.14.386-.505.77-.9.655a8.3 8.3 0 0 1-1.738-.736c-.332-.188-.339-.657-.189-1.009a1.55 1.55 0 0 0-2.013-2.039c-.354.145-.824.13-1.007-.204a8.3 8.3 0 0 1-.679-1.63c-.116-.395.269-.76.656-.898.592-.213 1.045-.778 1.045-1.455 0-.68-.453-1.243-1.045-1.456-.387-.139-.772-.504-.656-.898a8.3 8.3 0 0 1 .6-1.484c.185-.353.689-.36 1.055-.2a1.55 1.55 0 0 0 2.011-2.1c-.175-.358-.19-.861.155-1.061a8.3 8.3 0 0 1 1.692-.74c.406-.126.787.284.926.685m1.545 12.385a5.136 5.136 0 0 0 5.14-5.132 5.136 5.136 0 0 0-5.14-5.133 5.136 5.136 0 0 0-5.14 5.133 5.136 5.136 0 0 0 5.14 5.132"/>
        <path fill="#fff" d="M13.841 8.57a.305.305 0 0 0 .286.209.31.31 0 0 0 .287-.214c.026-.079.099-.16.178-.138q.177.051.335.14c.072.039.067.144.03.217a.303.303 0 0 0 .403.41c.073-.037.179-.04.217.032q.076.141.123.297c.023.08-.058.153-.136.18a.305.305 0 0 0-.21.286c0 .136.092.247.21.287.078.026.16.1.136.18a1.6 1.6 0 0 1-.142.332c-.04.07-.141.065-.213.03a.303.303 0 0 0-.41.398c.034.072.035.174-.036.211q-.14.075-.296.12c-.077.024-.148-.052-.175-.127a.31.31 0 0 0-.285-.204.305.305 0 0 0-.285.204c-.027.075-.098.15-.175.128a1.6 1.6 0 0 1-.34-.144c-.065-.037-.066-.129-.037-.197a.3.3 0 0 0-.026-.286.3.3 0 0 0-.252-.135.3.3 0 0 0-.115.022c-.069.028-.16.025-.196-.04q-.083-.15-.133-.319c-.023-.077.053-.148.128-.175a.31.31 0 0 0 .204-.285.31.31 0 0 0-.204-.284c-.075-.028-.15-.099-.128-.176q.045-.15.117-.29c.036-.07.135-.07.206-.04a.302.302 0 0 0 .393-.41c-.034-.07-.037-.168.03-.207q.156-.09.33-.145c.08-.025.154.055.181.134m.3 2.232a.82.82 0 0 0 .778-.496.815.815 0 1 0-.779.496M8.708 9.63a.305.305 0 0 0 .285.208.3.3 0 0 0 .288-.214c.026-.079.098-.16.178-.137q.177.05.335.138c.071.04.066.145.029.218a.302.302 0 0 0 .403.41c.074-.037.18-.04.218.032q.075.141.122.297c.024.08-.057.153-.136.18a.3.3 0 0 0-.21.286c0 .136.092.247.21.287.079.026.16.1.136.18a1.6 1.6 0 0 1-.141.332c-.04.07-.142.065-.213.03a.302.302 0 0 0-.41.398c.034.072.035.174-.036.211q-.141.075-.296.12c-.077.024-.149-.052-.176-.127a.3.3 0 0 0-.285-.204.31.31 0 0 0-.284.204c-.027.075-.099.15-.176.128a1.6 1.6 0 0 1-.34-.144c-.064-.037-.065-.129-.036-.197a.302.302 0 0 0-.393-.399c-.07.028-.16.025-.197-.04q-.083-.15-.132-.319c-.023-.077.052-.148.128-.175a.305.305 0 0 0 .204-.285.31.31 0 0 0-.204-.285c-.076-.026-.15-.098-.128-.175q.045-.152.117-.29c.036-.07.135-.07.206-.04a.302.302 0 0 0 .392-.41c-.034-.07-.037-.168.03-.207a1.6 1.6 0 0 1 .33-.145c.08-.024.155.056.182.134m.299 2.231a.814.814 0 1 0 .057-1.627.814.814 0 0 0-.057 1.627m1.249 1.435a.31.31 0 0 0 .285.208.305.305 0 0 0 .287-.214c.026-.079.099-.16.178-.137q.177.05.335.138c.072.04.067.145.03.218a.303.303 0 0 0 .403.41c.073-.037.18-.04.217.032q.076.141.123.297c.023.08-.057.153-.136.18a.3.3 0 0 0-.21.286.3.3 0 0 0 .21.287c.079.026.16.1.136.18a1.6 1.6 0 0 1-.142.332c-.04.07-.141.065-.213.03a.303.303 0 0 0-.434.215.3.3 0 0 0 .024.183c.034.072.035.174-.036.211q-.14.075-.296.12c-.077.024-.148-.052-.175-.127a.31.31 0 0 0-.285-.204.305.305 0 0 0-.285.204c-.027.075-.098.15-.175.128a1.6 1.6 0 0 1-.34-.144c-.065-.037-.066-.129-.037-.197a.302.302 0 0 0-.393-.399c-.069.028-.16.025-.196-.04q-.083-.15-.133-.319c-.022-.077.053-.148.128-.175a.31.31 0 0 0 .204-.285.31.31 0 0 0-.204-.285c-.075-.027-.15-.098-.128-.175q.045-.15.117-.29c.036-.07.135-.07.206-.04a.304.304 0 0 0 .42-.23.3.3 0 0 0-.027-.18c-.034-.07-.037-.168.03-.207q.157-.09.33-.145c.08-.024.154.056.182.134m.298 2.231a.816.816 0 1 0 .057-1.63.816.816 0 0 0-.057 1.63m1.799-5.151-1.507.326-.035-.159 1.508-.326zm-2.535 2.727-.203-.407.145-.073.205.407zm3.315-1.698-1.506 1.956-.13-.1 1.507-1.955z"/>
    </g>
    <defs>
        <clipPath id="DEXT__a">
            <path fill="#fff" d="M0 0h24v24H0z"/>
        </clipPath>
    </defs>
</svg>
