<svg xmlns="http://www.w3.org/2000/svg" width="24" height="24" fill="none" viewBox="0 0 24 24">
    <g clip-path="url(#DFI__a)">
        <path fill="#FF00AF" d="M24 0H0v24h24z"/>
        <path fill="#fff" d="M14.003 17.963V6.036c2.568.767 4 3.15 4 5.964 0 2.813-1.432 5.197-4 5.963M11.998 4v6.743l-1.016-1.016-.13-2.535 1.06-3.187a8 8 0 0 0-1.964.27l-.513 1.541-1.453-.728a8 8 0 0 0-1.579 1.197l2.691 1.348.079 1.543-1.543-.079-1.349-2.69a8 8 0 0 0-1.198 1.579l.73 1.452-1.543.513A8 8 0 0 0 4 11.914l3.19-1.06 2.535.13L10.74 12l-1.015 1.016-2.536.13L4 12.085a8 8 0 0 0 .27 1.963l1.543.512-.73 1.453a8 8 0 0 0 1.198 1.579l1.35-2.69 1.542-.08-.079 1.543-2.69 1.349a8 8 0 0 0 1.578 1.198l1.453-.73.513 1.542a8 8 0 0 0 1.963.27l-1.059-3.187.13-2.535 1.016-1.016V20A8 8 0 0 0 20 12c0-4.418-3.583-8-8.002-8"/>
    </g>
    <defs>
        <clipPath id="DFI__a">
            <path fill="#fff" d="M0 0h24v24H0z"/>
        </clipPath>
    </defs>
</svg>
