<svg xmlns="http://www.w3.org/2000/svg" width="24" height="24" fill="none" viewBox="0 0 24 24">
    <g clip-path="url(#DOSE__a)">
        <path fill="#131519" d="M24 0H0v24h24z"/>
        <path fill="#fff" fill-rule="evenodd" d="M11.615 4H6.03A1.555 1.555 0 0 0 4.5 5.58v12.865A1.55 1.55 0 0 0 6.03 20h5.585c4.35 0 7.885-3.61 7.885-8 0-4.415-3.56-8-7.885-8M11.5 17a5 5 0 1 0 0-10 5 5 0 0 0 0 10" clip-rule="evenodd"/>
        <path fill="#fff" d="M11.5 14.5c1.39 0 2.5-1.044 2.5-2.36 0-1.31-1.22-2.114-2.16-3a.485.485 0 0 0-.68 0c-.94.886-2.16 1.66-2.16 3 0 1.316 1.135 2.36 2.5 2.36"/>
    </g>
    <defs>
        <clipPath id="DOSE__a">
            <path fill="#fff" d="M0 0h24v24H0z"/>
        </clipPath>
    </defs>
</svg>
