<svg xmlns="http://www.w3.org/2000/svg" width="24" height="24" fill="none" viewBox="0 0 24 24">
    <g clip-path="url(#ENG__a)">
        <path fill="#fff" d="M24 0H0v24h24z"/>
        <path fill="#fff" d="m11.975 4 6.915 3.968v7.936l-6.915 3.968-6.865-3.968V7.968z"/>
        <path fill="#065198" d="M11.972 11.89 8.326 9.797v4.008l3.646 2.346z"/>
        <path fill="#21B1F8" d="m12 12.07 3.674-2.104v4.028L12 16.277z"/>
        <path fill="#E82E9D" d="m12 7.53 3.678 2.281L12 11.854 8.358 9.812z"/>
        <path fill="#0C0E15" d="M4.84 7.7a.243.243 0 0 0 .088.334l6.831 3.976v7.746a.244.244 0 0 0 .487 0V12.01l6.822-3.96a.24.24 0 0 0 .092-.335.243.243 0 0 0-.337-.086l-6.82 3.96-6.83-3.976a.243.243 0 0 0-.333.088M12 6.021a.392.392 0 1 0 0-.783.392.392 0 0 0 0 .783m0 1.074a.392.392 0 1 0 0-.784.392.392 0 0 0 0 .784m-4.474 7.564a.392.392 0 1 0 0-.784.392.392 0 0 0 0 .784m-1.074.671a.392.392 0 1 0 0-.783.392.392 0 0 0 0 .784m10.096-.672a.392.392 0 1 1 0-.784.392.392 0 0 1 0 .784m1.074.671a.392.392 0 1 1 0-.783.392.392 0 0 1 0 .784"/>
    </g>
    <defs>
        <clipPath id="ENG__a">
            <path fill="#fff" d="M0 0h24v24H0z"/>
        </clipPath>
    </defs>
</svg>
