<svg xmlns="http://www.w3.org/2000/svg" width="24" height="24" fill="none" viewBox="0 0 24 24">
    <g clip-path="url(#EPIK__a)">
        <path fill="#000" d="M24 0H0v24h24z"/>
        <path fill="#683CA4" fill-rule="evenodd" d="M12 20a7.998 7.998 0 0 0 7.391-11.061A8 8 0 0 0 12 4a8 8 0 0 0 0 16m0-.889a7.112 7.112 0 1 0 0-14.223 7.112 7.112 0 0 0 0 14.223" clip-rule="evenodd"/>
        <path fill="url(#EPIK__b)" d="M11.555 7.325c0-.364.293-.658.653-.658h.68v9.791a.874.874 0 0 1-.876.876h-.457z"/>
        <path fill="#FEFCFF" d="M14.222 11.307h-.152c-2.115 0-4.084 0-4.084-1.378 0-1.528 3.244-1.257 4.56-.622.249.12.6.098.773-.12l.356-.444a.204.204 0 0 0-.058-.311 7.6 7.6 0 0 0-3.484-.876c-2.151 0-3.974 1-3.974 2.378 0 1.053 1.111 1.636 1.743 1.822h-.01c-.644.165-2.097.96-2.097 2.125 0 1.457 1.933 2.564 4.209 2.564 1.618 0 3.186-.613 3.858-.987a.223.223 0 0 0 .062-.333l-.37-.467c-.186-.23-.56-.253-.826-.124-1.386.666-4.88.973-4.88-.653 0-1.44 1.925-1.436 4.12-1.436h.254z"/>
    </g>
    <defs>
        <linearGradient id="EPIK__b" x1="22.815" x2="22.453" y1="7.036" y2="17.651" gradientUnits="userSpaceOnUse">
            <stop stop-color="#FEFCFF"/>
            <stop offset=".17" stop-color="#FEFCFF" stop-opacity="0"/>
            <stop offset=".24" stop-color="#FEFCFF" stop-opacity="0"/>
            <stop offset=".32" stop-color="#FEFCFF"/>
            <stop offset=".42" stop-color="#FEFCFF" stop-opacity="0"/>
            <stop offset=".58" stop-color="#FEFCFF" stop-opacity="0"/>
            <stop offset=".67" stop-color="#FEFCFF"/>
            <stop offset=".76" stop-color="#FEFCFF" stop-opacity="0"/>
            <stop offset=".84" stop-color="#FEFCFF" stop-opacity="0"/>
            <stop offset="1" stop-color="#FEFCFF"/>
        </linearGradient>
        <clipPath id="EPIK__a">
            <path fill="#fff" d="M0 0h24v24H0z"/>
        </clipPath>
    </defs>
</svg>
