<svg xmlns="http://www.w3.org/2000/svg" width="24" height="24" fill="none" viewBox="0 0 24 24">
    <g clip-path="url(#ETHIX__a)">
        <path fill="#87F96E" d="M24 0H0v24h24z"/>
        <path fill="#fff" fill-rule="evenodd" d="M12 4c.25 0 .498.056.725.163l6.08 3.323c.395.216.724.753.724 1.19v6.645a1.5 1.5 0 0 1-.724 1.19l-6.08 3.323c-.4.221-1.05.221-1.45 0l-6.08-3.322c-.395-.217-.725-.753-.725-1.19V8.675a1.5 1.5 0 0 1 .725-1.195l6.08-3.318A1.7 1.7 0 0 1 12 4m5.031 4.493-4.292-2.41a1.44 1.44 0 0 0-1.482.005l-.066.028-.485.278-.423.235 4.781 2.767.005.01q.255.142.433.376l1.873-.97a1.4 1.4 0 0 0-.344-.32m-3.873 2.066L8.217 7.787l-1.172.654a1.4 1.4 0 0 0-.423.377l5.233 3.011 1.731-.894a1.4 1.4 0 0 0-.428-.376m-2.635.86L6.476 9.068c-.075.17-.123.353-.123.532v4.8a1.36 1.36 0 0 0 .673 1.143l4.203 2.433q.232.115.49.141v-1.58a1.4 1.4 0 0 1-.58-.189h-.01l-2.856-1.68c-.155-.099-.277-.287-.277-.442 0-.15.122-.207.277-.127h.01l.01.009.013.005 2.165 1.29.753.423q.234.115.494.14V14.38a1.4 1.4 0 0 1-.555-.174l-.014-.005-.014-.01-2.838-1.67-.01-.005-.004-.004-.01-.005c-.136-.085-.244-.254-.244-.39 0-.132.103-.18.244-.114l.015.01 2.899 1.703q.245.128.526.156v-1.789zm2.056 2.27-.023.009v.004c-.17.094-.362.15-.555.17v-1.789l1.74-.894c.076.18.142.367.142.556v1.303zm5.064-4.071c0-.189-.038-.377-.118-.551l-1.873.965q.085.189.109.395l.004.019v1.953l-3.21 1.802h-.004c-.17.094-.362.15-.55.17v1.585c.193-.018.38-.075.55-.169l3.214-1.812v2.278l1.177-.692a1.36 1.36 0 0 0 .706-1.186v-4.71zm-5.11 6.757.014-.01 1.336-.804v1.581l-1.336.81c-.17.09-.358.146-.546.164v-1.585a1.4 1.4 0 0 0 .531-.156" clip-rule="evenodd"/>
    </g>
    <defs>
        <clipPath id="ETHIX__a">
            <path fill="#fff" d="M0 0h24v24H0z"/>
        </clipPath>
    </defs>
</svg>
