<svg xmlns="http://www.w3.org/2000/svg" width="24" height="24" fill="none" viewBox="0 0 24 24">
    <g clip-path="url(#FEAR__a)">
        <path fill="#000" d="M24 0H0v24h24z"/>
        <path fill="#fff" fill-rule="evenodd" d="M6.32 9.22c.112-.312.3-.836.736-1 .476-.184 1.168-.48 1.376-.596.165-.032.335-.032.5 0 .092.048 1.14.92 1.652 1.348.12-.104.36-.32.384-.352.028-.04.268.188.22.352-.04.128-.092.36-.116.456.224.288.648 1.04.56 1.74h-.664v-1.072a1.32 1.32 0 0 0-.568-.668c.167.496.264 1.013.288 1.536l.14.2c-.3.076-.98.252-1.28.388.108-.092.332-.292.332-.332 0-.052-.488-.588-.76-.6-.224-.008-.924.092-1.248.144-.356.312-1.12 1.128-1.324 1.904v.216l.68.76-.8-.568c-.14.332-.324 1.38-.268 1.632.072.312 1.62 1.42 1.888 1.508.212.076.02.152-.104.184-.596-.252-1.86-.948-2.172-1.692 0-.368.08-1.264.388-1.928a6 6 0 0 1-.428-.616c-.008-.052.228-1.584.348-2.344h-.256c-.412.32-1.264 1.04-1.388 1.348-.152.384-.132 2.828-.1 2.92.024.072.08.316.1.428-.136-.1-.412-.32-.428-.428-.016-.104-.004-1.848 0-2.708.108-.236.372-.76.584-.952l.148-.136c.308-.272.788-.704.952-.988h.6l.028-.08zm.24.116c.144-.216.464-.652.616-.7.08-.024.328-.14.6-.264.376-.176.8-.372.852-.36.068.016.732.572 1.056.848-.224.02-.704.044-.86 0-.064-.02-.16-.06-.28-.108-.244-.104-.556-.232-.66-.2-.12.04-.664.536-.92.784zm.792 0q.24-.15.456-.336c.016-.028.092.032.184.096.092.072.2.152.268.152.104 0 .64.06.896.088.056.056.064.172-.332.188-.5.02-1.292-.104-1.472-.188m2.92 1.344c-.08-.796-.564-1.156-.8-1.236-.036.124-.08.384 0 .432q.42.38.8.8zm-3.936-.412c.16-.304.592-.764 1.016-.2.5-.048 1.516-.12 1.588 0 .076.128.144.272.172.328a1.5 1.5 0 0 0-.756-.128c-.252.052-1.216.572-1.664.828v.54c-.12.18-.356.572-.356.692-.096-.096-.292-.308-.28-.392.008-.08.192-1.148.28-1.668m4.22 1.74c.1-.092.456-.256 1.104-.204v.664c-.06-.112-.244-.34-.472-.348v.628c.04.032.136.06.188-.092l.056.464c-.072-.04-.22-.104-.244-.056-.032.056-.1.592.188.592.228 0 .284-.16.284-.24v.672a3 3 0 0 0-.856-.22V12.24c.008-.08-.024-.232-.248-.232m3.704-.06a1.8 1.8 0 0 0-.916.18c.088 0 .124.096.132.148v1.488l-.24.36h.692l-.076-.2v-.504c.248.02.308.14.304.2v1.12c.112-.212.348-.716.376-1.036.024-.32-.168-.496-.272-.544.368-.128.44-.496.436-.664-.008-.16-.108-.496-.436-.548m-.44 1.14v-.628c.348-.108.46.048.476.14a.503.503 0 0 1-.476.488m-3.508-1.156c-.152-.02-.788.128-1.088.204l.26.2c-.016 1.2.252 1.892.388 2.084-.02-.352-.04-1.072 0-1.144s.24.028.332.088l-.12-.544c0 .104-.144.128-.212.128v-.544c0-.064.072-.096.212-.064a1 1 0 0 1 .284.128c.044-.168.096-.516-.056-.536m1.652 1.66v.44l.344-.068c0-.16.064-.488.328-.46.26.024.272.388.244.568l.228-.568.076-1.496.16-.164h-1.04l.216.112zm.832-.528h-.268l.376-.832zm4.148-4.844c.436.164.624.688.736 1l.028.084h.6c.16.28.644.716.952.988l.148.136c.212.196.48.72.584.952.004.86.016 2.6 0 2.708-.016.104-.292.328-.428.428l.1-.428c.032-.092.052-2.536-.1-2.92-.12-.312-.976-1.028-1.388-1.348h-.256c.12.76.356 2.292.348 2.344q-.195.322-.428.616c.308.664.388 1.56.388 1.928-.312.744-1.576 1.44-2.172 1.692-.12-.032-.316-.108-.104-.184.268-.088 1.892-1.256 1.96-1.572.06-.252-.2-1.236-.336-1.568l-.808.568.684-.76v-.216c-.204-.776-.968-1.592-1.324-1.904-.324-.052-1.024-.152-1.244-.144-.28.012-.764.548-.764.6 0 .04.224.24.336.332-.304-.136-.984-.312-1.284-.384l.14-.2c.023-.524.12-1.042.288-1.54-.26.152-.46.387-.568.668v1.072h-.66c-.092-.704.332-1.452.556-1.74l-.116-.456c-.048-.16.192-.392.22-.352.024.028.268.248.384.352.512-.432 1.56-1.3 1.652-1.348.092-.044.372-.016.5 0 .208.116.9.412 1.376.596m-.12.416c.152.048.472.484.616.7h-.4a7 7 0 0 0-.924-.784c-.104-.032-.416.096-.664.2a3 3 0 0 1-.276.108c-.16.044-.64.02-.86 0 .324-.28.988-.832 1.056-.848.052-.012.476.184.856.36.268.124.52.24.596.264M16.192 9c.032.048.32.24.456.336-.18.08-.972.208-1.472.188-.4-.016-.388-.132-.332-.188.256-.028.792-.088.896-.088.068 0 .176-.08.268-.152.092-.064.168-.12.184-.096m-1.664.444c-.236.08-.72.44-.8 1.236q.38-.422.8-.804c.08-.048.036-.308 0-.432m2.12.628c.424-.568.852-.108 1.016.196.088.52.272 1.584.28 1.668.012.084-.184.296-.28.392 0-.12-.24-.512-.356-.692v-.54c-.448-.256-1.412-.776-1.664-.828a1.5 1.5 0 0 0-.756.128c.028-.056.096-.2.172-.324.072-.124 1.088-.052 1.588 0" clip-rule="evenodd"/>
    </g>
    <defs>
        <clipPath id="FEAR__a">
            <path fill="#fff" d="M0 0h24v24H0z"/>
        </clipPath>
    </defs>
</svg>
