<svg xmlns="http://www.w3.org/2000/svg" width="24" height="24" fill="none" viewBox="0 0 24 24">
    <g clip-path="url(#FIL__a)">
        <path fill="#0090FF" d="M24 0H0v24h24z"/>
        <path fill="#fff" d="m13.077 10.627-.37 1.875 3.508.47-.246.879-3.446-.47c-.246.763-.369 1.583-.677 2.287-.307.82-.615 1.64-.985 2.403-.492.996-1.354 1.7-2.523 1.875-.677.118-1.415.06-1.969-.351-.184-.117-.369-.352-.369-.528 0-.234-.005-.51.308-.645.312-.134.441-.04.615.06.185.175.37.41.492.645.37.468.862.526 1.354.174.554-.468.862-1.112 1.047-1.758.368-1.406.738-2.754 1.045-4.161v-.235L7.6 12.678l.123-.879 3.385.47.43-1.818-3.508-.527.124-.938 3.63.469c.123-.352.185-.645.308-.938.308-1.055.615-2.11 1.354-3.047s1.6-1.524 2.893-1.466c.553 0 1.107.176 1.476.586.062.059.185.176.185.293 0 .235 0 .528-.185.704-.246.176-.553.117-.8-.117-.185-.176-.308-.353-.492-.528-.369-.469-.923-.527-1.354-.117a3.7 3.7 0 0 0-.8 1.114c-.43 1.23-.738 2.52-1.169 3.81l3.385.468-.247.879z"/>
    </g>
    <defs>
        <clipPath id="FIL__a">
            <path fill="#fff" d="M0 0h24v24H0z"/>
        </clipPath>
    </defs>
</svg>
