<svg xmlns="http://www.w3.org/2000/svg" width="24" height="24" fill="none" viewBox="0 0 24 24">
    <g clip-path="url(#GALEON__a)">
        <path fill="#0091CC" d="M24 0H0v24h24z"/>
        <path fill="#fff" d="M16.8 12c0 2.282-1.6 4.986-3.733 5.69v1.243h5.866L20 16.266h-1.067c-.266.534-.96 1.6-1.6 1.6h-1.637A6.935 6.935 0 0 0 12 5.066a6.933 6.933 0 0 0-3.696 12.8H6.667c-.64 0-1.334-1.066-1.6-1.6H4l1.067 2.667h5.866V17.69C8.8 16.986 7.2 14.282 7.2 12c0-2.651 2.15-5.867 4.8-5.867s4.8 3.216 4.8 5.866"/>
    </g>
    <defs>
        <clipPath id="GALEON__a">
            <path fill="#fff" d="M0 0h24v24H0z"/>
        </clipPath>
    </defs>
</svg>
