<svg xmlns="http://www.w3.org/2000/svg" width="24" height="24" fill="none" viewBox="0 0 24 24">
    <g clip-path="url(#GHX__a)">
        <path fill="#E83C41" d="M24 0H0v24h24z"/>
        <path fill="#fff" fill-rule="evenodd" d="M10.714 4.698a.629.629 0 0 1 1.245-.177l.103.726a6.7 6.7 0 0 1 4.272 1.41.404.404 0 0 1 .091.53l-.482.794-.006-.005-.908 1.48.002.001-.244.395-.06.066c-.31.387-.636.32-.822.199a2.53 2.53 0 1 0 .714 2.634l.048-.071c.24-.401.55-.405.753-.324l.122.065.018.013v-.003l.377.2 2.38 1.257a.404.404 0 0 1 .196.498 6.77 6.77 0 0 1-2.952 3.457l.11.788a.63.63 0 0 1-1.244.178l-.06-.427a6.7 6.7 0 0 1-1.435.314l.12.537a.63.63 0 0 1-.477.752.627.627 0 0 1-.75-.477l-.177-.796A6.746 6.746 0 0 1 8.446 6.39l-.012-.048-.2-.902a.63.63 0 0 1 .477-.752.627.627 0 0 1 .75.476l.134.606q.584-.246 1.217-.38zm4.19 2.52-.86 1.452a3.794 3.794 0 1 0 1.436 5.24l1.468.83a5.48 5.48 0 0 1-4.742 2.73 5.48 5.48 0 1 1 2.697-10.25" clip-rule="evenodd"/>
    </g>
    <defs>
        <clipPath id="GHX__a">
            <path fill="#fff" d="M0 0h24v24H0z"/>
        </clipPath>
    </defs>
</svg>
