<svg xmlns="http://www.w3.org/2000/svg" width="24" height="24" fill="none" viewBox="0 0 24 24">
    <g clip-path="url(#GRC__a)">
        <path fill="url(#GRC__b)" d="M24 0H0v24h24z"/>
        <path fill="#fff" fill-rule="evenodd" d="M12 4.562 5.697 8.277v7.447L12 19.438l6.303-3.714V8.276zM18.788 8 12 4 5.212 8v8L12 20l6.788-4z" clip-rule="evenodd"/>
        <path fill="#fff" d="M16.97 11.212c-.316-1.58-1.43-2.718-2.687-3.603l-1.769.936c1.244.693 2.371 1.516 2.72 2.727h1.748zm-4.96-4.964c.572.313 1.202.657 1.818 1.054L12 8.268q-.345-.18-.686-.353a32 32 0 0 1-1.14-.599q.895-.571 1.83-1.07zm-.51-.28c-.358-.2-.68-.388-.942-.572-.568.34-1.704 1.009-1.704.975.227.236.52.456.854.668.702-.447 1.15-.719 1.793-1.07m5.553 6.274H12l-.97 1.94h3.245c-.783.722-1.897 1.334-3.001 1.94-.87.479-1.732.953-2.421 1.475.568.33 1.704 1.018 1.704 1.035l.586-.324c2.522-1.388 5.777-3.18 5.91-6.066"/>
        <path fill="#fff" d="M7.036 11.212c.506-2.53 3.055-3.922 4.962-4.964.563-.308 1.07-.585 1.452-.852.568.34 1.704 1.009 1.704.975-.548.57-1.476 1.042-2.462 1.544-1.94.988-4.105 2.09-4.028 4.27.048 1.377 1.33 2.36 2.85 3.253-.633.355-1.077.606-1.753.987-1.792-1.303-3.176-2.956-2.725-5.213m3.165 5.522q.9-.51 1.803-1.015.362.203.728.404c.365.2.728.4 1.077.602l-.263.168c-.539.346-.942.605-1.539.94a26 26 0 0 1-1.806-1.1m2.301 1.375.361.199q.303.166.587.325c0-.018 1.136-.705 1.704-1.036a11 11 0 0 0-.89-.601l.006.01q-.246.155-.457.293-.645.42-1.31.81"/>
    </g>
    <defs>
        <linearGradient id="GRC__b" x1="12" x2="12" y1="4" y2="20" gradientUnits="userSpaceOnUse">
            <stop stop-color="#7401E2"/>
            <stop offset="1" stop-color="#41007F"/>
        </linearGradient>
        <clipPath id="GRC__a">
            <path fill="#fff" d="M0 0h24v24H0z"/>
        </clipPath>
    </defs>
</svg>
