<svg xmlns="http://www.w3.org/2000/svg" width="24" height="24" fill="none" viewBox="0 0 24 24">
    <g clip-path="url(#HDX__a)">
        <path fill="url(#HDX__b)" d="M24 0H0v24h24z"/>
        <path fill="#fff" d="M11.61 19.897a.79.79 0 0 0 .781 0l6.328-3.613a.78.78 0 0 0 .391-.671V8.387a.77.77 0 0 0-.39-.666l-6.33-3.618a.79.79 0 0 0-.782 0L5.281 7.716a.78.78 0 0 0-.39.671v7.226a.77.77 0 0 0 .39.666zm.035-14.118a.74.74 0 0 1 .728 0l5.044 2.786a.7.7 0 0 1 .356.627v5.59a.72.72 0 0 1-.365.622l-5.052 2.817a.74.74 0 0 1-.73 0l-5.038-2.786a.71.71 0 0 1-.36-.626v-5.59a.72.72 0 0 1 .369-.623l5.052-2.817zm-.036 10.563a.74.74 0 0 0 .729 0l3.288-1.867a.72.72 0 0 0 .374-.609v-3.732a.7.7 0 0 0-.365-.618l-.969-.64v4.68l-1.777.973v-2.09l-1.778.4v3.245l.503.266zm-3.288-1.867 1.013.645v-4.786l1.777-.978v1.835l1.778-.378V7.898l-.547-.244a.74.74 0 0 0-.728 0L8.325 9.52a.7.7 0 0 0-.266.258C8 9.876 8 9.983 8 10.09v3.822c0 .106 0 .213.053.31.067.107.156.2.267.263z"/>
    </g>
    <defs>
        <linearGradient id="HDX__b" x1="11.991" x2="11.991" y1="4.081" y2="19.91" gradientUnits="userSpaceOnUse">
            <stop stop-color="#F7F5F6"/>
            <stop offset=".88" stop-color="#A69696"/>
        </linearGradient>
        <clipPath id="HDX__a">
            <path fill="#fff" d="M0 0h24v24H0z"/>
        </clipPath>
    </defs>
</svg>
