<svg xmlns="http://www.w3.org/2000/svg" width="24" height="24" fill="none" viewBox="0 0 24 24">
    <g clip-path="url(#HOT__a)">
        <path fill="#007F88" d="M24 0H0v24h24z"/>
        <path fill="#fff" d="M4.415 6.218s-.431.014-.415.039c.09.248.688 1.611.696 1.62 2.154.171 3.64 1.072 4.403 3.155h-1.22l-.735 1.94s1.757-.003 1.955 0c-.61 1.951-2.314 3.093-4.33 3.093-.085.202-.708 1.65-.678 1.66 3.49.404 6.783-2.172 7.103-4.754h1.555c0 .331.256.936.442 1.334 1.13 2.275 3.574 3.579 6.073 3.511.409-.008.72-.058.703-.1l-.695-1.61c-1.967-.156-4.157-.944-4.592-3.135h1.222c.017 0 .674-1.939.674-1.939h-1.912c.68-2.06 2.531-3.117 4.657-3.147 0 0 .47-1.062.679-1.603-3.153-.591-6.722 1.494-7.259 4.75H11.22c-.385-3.401-4.076-4.954-6.804-4.814"/>
    </g>
    <defs>
        <clipPath id="HOT__a">
            <path fill="#fff" d="M0 0h24v24H0z"/>
        </clipPath>
    </defs>
</svg>
