<svg xmlns="http://www.w3.org/2000/svg" width="24" height="24" fill="none" viewBox="0 0 24 24">
    <g clip-path="url(#HXRO__a)">
        <path fill="#000" d="M24 0H0v24h24z"/>
        <path fill="#02FD05" d="M12.355 4c2.75 0 5 1.79 5.785 2.685l-.75.815-.055-.055c-1.855-1.69-2.74-2.49-5.46-2.815-2.2-.265-4.5 1.11-5.375 1.835C6.78 6.025 8.92 4 12.355 4"/>
        <path fill="#FF00C8" d="M12.02 20c-2.794 0-5.084-1.77-5.88-2.65l.76-.81c1.926 1.705 2.81 2.515 5.61 2.84 2.235.26 4.6-1.1 5.49-1.815C17.715 18 15.51 20 12.02 20"/>
        <path fill="#02FD05" d="m9.22 12.125-2.25-3.77-.23.56 2.09 3.21L4 20z"/>
        <path fill="#02FD05" d="M12.585 9.675 15 7.5l-2.855 3.2-1.16-1.7h-1.7l1.815 2.96L4 20l6.1-8.04L7.74 8h3.77l1.08 1.675z"/>
        <path fill="#FF00C8" d="M14.83 12.365 20 4.5l-4.89 7.865 2.2 3.42-.16.61z"/>
        <path fill="#FF00C8" d="M13.005 12.4 20 4.5l-6.025 7.9 2.44 4.1h-3.75l-1.07-1.63L9 17l2.94-3.345 1.285 1.845h1.705z"/>
    </g>
    <defs>
        <clipPath id="HXRO__a">
            <path fill="#fff" d="M0 0h24v24H0z"/>
        </clipPath>
    </defs>
</svg>
