<svg xmlns="http://www.w3.org/2000/svg" width="24" height="24" fill="none" viewBox="0 0 24 24">
    <g clip-path="url(#INJ__a)">
        <path fill="url(#INJ__b)" d="M24 0H0v24h24z"/>
        <path fill="#fff" d="M5.94 6.764c.1-.125.2-.245.31-.365l.02-.015.035-.03.01-.01a3.6 3.6 0 0 1 1.24-.75 3.23 3.23 0 0 1 3.335.77c1.365 1.275 1.244 3.335.15 4.7-1.37 2.04-3.735 4.884-.46 7.434.585.455 1.025.835 2.874 1.37-1.21.225-2.334.15-3.584-.165-.885-.5-2.275-1.57-2.75-3.015-.715-2.19 1.26-5.46 2.215-6.72 1.31-1.75-.81-3.634-2.37-1.524-.815 1.1-2.245 4.204-1.75 6.514.295 1.305.68 2.26 2.21 3.57q-.428-.255-.825-.57a8.084 8.084 0 0 1-.66-11.194"/>
        <path fill="#fff" d="M18.06 17.234c-.1.125-.2.245-.31.365l-.02.015-.035.03-.01.01c-.359.332-.78.587-1.24.75-1.115.4-2.36.15-3.335-.77-1.365-1.274-1.24-3.334-.15-4.7 1.37-2.039 3.735-4.884.46-7.433-.585-.455-1.025-.835-2.875-1.37a8.05 8.05 0 0 1 3.585.165c.885.5 2.275 1.57 2.75 3.014.715 2.19-1.26 5.46-2.215 6.72-1.31 1.75.81 3.634 2.37 1.525.815-1.1 2.244-4.205 1.75-6.515-.295-1.305-.68-2.26-2.21-3.57q.427.255.825.57a8.084 8.084 0 0 1 .66 11.194"/>
    </g>
    <defs>
        <linearGradient id="INJ__b" x1="4.001" x2="31.074" y1="11.222" y2="11.222" gradientUnits="userSpaceOnUse">
            <stop stop-color="#0082FA"/>
            <stop offset="1" stop-color="#00F2FE"/>
        </linearGradient>
        <clipPath id="INJ__a">
            <path fill="#fff" d="M0 0h24v24H0z"/>
        </clipPath>
    </defs>
</svg>
