<svg xmlns="http://www.w3.org/2000/svg" width="24" height="24" fill="none" viewBox="0 0 24 24">
    <g clip-path="url(#INSUR__a)">
        <path fill="#00E093" d="M24 0H0v24h24z"/>
        <path fill="#fff" d="M9.337 6.461c-.224.08-.516.32-.616.5a3 3 0 0 0-.136.552c-.144.808-.432 1.044-1.468 1.2-.424.06-.832.58-.84 1.064a1.22 1.22 0 0 1-.74 1.056 2.7 2.7 0 0 1-.512.12c-.392.052-.56.136-.788.388-.2.224-.268.48-.224.848.056.496.464.816 1.136.892.444.052.792.288.984.664.08.16.144.364.148.46a1.14 1.14 0 0 0 1.168 1.152c.096 0 .308.064.468.144.384.188.612.52.668.96.096.748.468 1.14 1.08 1.14.331 0 .532-.08.76-.296.2-.188.271-.364.331-.8a1.36 1.36 0 0 1 .405-.824c.228-.182.508-.288.8-.304.607 0 1.151-.488 1.155-1.036.004-.532.328-1.064.824-1.2.16-.04.408-.092.552-.108.296-.04.628-.28.772-.556.052-.096.096-.3.096-.456.008-.568-.4-.988-1.044-1.068-.6-.08-.988-.332-1.2-.78l-.128-.264-.104.228a1.12 1.12 0 0 1-.6.544c-.136.052-.132.056.104.152.472.184.896.828.828 1.328-.08.572-.6.984-1.255 1.064-.7.084-.969.344-1.097 1.064-.14.8-.492 1.188-1.196 1.188-.36 0-.527-.064-.8-.3a1.2 1.2 0 0 1-.423-.86 1.13 1.13 0 0 0-1.124-1.092c-.3 0-.64-.168-.86-.416-.248-.28-.304-.44-.304-.836 0-.636.412-1.06 1.128-1.168.76-.12 1.056-.396 1.156-1.072.096-.688.512-1.14 1.103-1.204a1.48 1.48 0 0 1 1.368.804l.096.24.105-.232c.12-.26.396-.488.688-.568.147-.04.163-.056.067-.06a1.84 1.84 0 0 1-.784-.432 1.47 1.47 0 0 1-.332-.832 1.7 1.7 0 0 0-.172-.536 1.095 1.095 0 0 0-1.243-.452"/>
        <path fill="#fff" d="M14.172 6.408a2 2 0 0 1-.208.052c-.364.08-.728.576-.732 1 0 .292-.18.664-.424.876-.256.22-.36.26-.772.32-.412.052-.564.112-.76.296-.236.216-.32.408-.376.84-.088.704-.424 1.028-1.2 1.16-.552.096-.812.26-.976.612-.14.304-.136.616.012.92.16.328.46.516.92.572.6.072.968.312 1.16.756l.092.22.072-.164c.088-.212.416-.528.584-.568s.164-.112-.012-.156c-.2-.048-.532-.348-.664-.608-.16-.312-.152-.764.02-1.1.196-.372.5-.56 1.016-.632.488-.064.668-.144.872-.384.16-.184.24-.424.296-.848A1.248 1.248 0 0 1 14.76 8.6c.448.184.676.5.78 1.088.092.508.128.588.352.8.2.18.352.24.76.296.78.104 1.248.632 1.188 1.348-.052.604-.476.992-1.188 1.092-.708.1-1.02.416-1.112 1.12-.068.512-.28.828-.704 1.04-.248.12-.784.124-1.048 0a1.36 1.36 0 0 1-.636-.668l-.072-.204-.104.232a1.12 1.12 0 0 1-.6.548c-.136.048-.136.052.1.148.256.1.556.392.652.64.032.08.08.308.112.508.064.448.256.74.588.896a1.055 1.055 0 0 0 1.54-.896c.104-.78.496-1.16 1.288-1.256.6-.072.94-.404 1.028-1.012.072-.496.16-.692.44-.936.236-.212.528-.328.84-.328a1.13 1.13 0 0 0 1-.8c.172-.632-.28-1.212-1.016-1.304-.8-.096-1.132-.424-1.26-1.228a1.6 1.6 0 0 0-.2-.596 1.15 1.15 0 0 0-.868-.448c-.292 0-.76-.216-.948-.44-.168-.196-.248-.408-.3-.82a1.14 1.14 0 0 0-.52-.852c-.216-.112-.564-.2-.68-.16"/>
    </g>
    <defs>
        <clipPath id="INSUR__a">
            <path fill="#fff" d="M0 0h24v24H0z"/>
        </clipPath>
    </defs>
</svg>
