<svg xmlns="http://www.w3.org/2000/svg" width="24" height="24" fill="none" viewBox="0 0 24 24">
    <g clip-path="url(#INV__a)">
        <path fill="#5A86E7" d="M24 0H0v24h24z"/>
        <path fill="#fff" d="M4 7.755c0-.65.45-1.81 1-2.255v13H4zM13 5.5h1v11.975a5.65 5.65 0 0 0 3.57-1.7c.92-1 1.43-2.315 1.43-3.275v-6h-2v5.75c0 .65-.45 1.805-1 2.25v-9h4v7c0 1.27-.615 2.765-1.68 3.93A6.23 6.23 0 0 1 14 18.48v.02h-1V6.52c-1.45.13-2.65.82-3.5 1.71-.945 1-1.5 2.31-1.5 3.27v6h2v-5.75c0-.65.45-1.805 1-2.25v9H7v-7c0-1.275.63-2.765 1.73-3.93C9.85 6.39 11.53 5.5 13 5.5"/>
    </g>
    <defs>
        <clipPath id="INV__a">
            <path fill="#fff" d="M0 0h24v24H0z"/>
        </clipPath>
    </defs>
</svg>
