<svg xmlns="http://www.w3.org/2000/svg" width="24" height="24" fill="none" viewBox="0 0 24 24">
    <g clip-path="url(#JEWEL__a)">
        <path fill="#fff" d="M24 0H0v24h24z"/>
        <path fill="url(#JEWEL__b)" d="M7.764 8.235h8v7.53h-8z"/>
        <path fill="#B5F759" d="m8.706 13.412-2.824 1.176V9.177l2.824 1.647z"/>
        <path fill="#2AB059" d="m15.53 10.589 2.823-1.177v5.412l-2.824-1.647z"/>
        <path fill="#26A379" d="m15.53 13.412 2.828 1.162-3.826 3.831-.833-3.162z"/>
        <path fill="#E5FF9E" d="M8.706 10.589 5.877 9.426l3.826-3.83.833 3.162z"/>
        <path fill="#60E840" d="m10.382 15.53-1.229 2.804-3.74-3.91 3.18-.763zm3.228-6.91 1.223-2.8 3.756 3.59-3.191 1.083z"/>
        <path fill="#B5F759" d="M10.588 8.471 9.412 5.647h5.411l-1.647 2.824z"/>
        <path fill="#2AB059" d="m13.412 15.294 1.176 2.823H9.176l1.647-2.823z"/>
        <path fill="#F0F3FA" fill-rule="evenodd" d="m13.883 8.235 1.882 1.882 2.616-1.087.226.518-2.842 1.275v2.353l2.833 1.228-.226.518-2.607-1.04-1.882 1.882 1.176 2.824h-.706l-1.176-2.824h-2.353l-1.177 2.824h-.706l1.177-2.824-1.883-1.882-2.48 1.05-.225-.518 2.705-1.238v-2.353l-2.71-1.28.226-.518 2.484 1.092 1.883-1.882-1.035-2.598.512-.226 1.229 2.824h2.353l1.317-2.8.518.226zM8.94 10.352l2.118 4.942h-.47L8.94 13.646zm4 4.942-2.823-6.118.47-.235 2.824 6.117zm.47-6.353 1.648 1.411v3.294l-.927.942L11.53 8.94z" clip-rule="evenodd"/>
        <path fill="url(#JEWEL__c)" fill-rule="evenodd" d="M15.294 4 20 8.706v6.588L15.294 20H8.706L4 15.294V8.706L8.706 4zm-.941 1.882.941.942-.235 2.207 2.118-.325.94.941v4.706l-.94.941-2.118-.235.235 2.118-.941.94H9.647l-.941-.94.235-2.118-2.588.235-.47-.518V9.647l.94-.941 2.118.235-.235-2.117.941-.942z" clip-rule="evenodd"/>
        <path fill="url(#JEWEL__d)" fill-rule="evenodd" d="m15.059 4.47 4.47 4.471v6.118l-4.47 4.47H8.94l-4.47-4.47V8.941l4.47-4.47zm-.235.942.94.941-.234 2.118 2.117-.236.941.942v5.647l-.94.94-2.118-.234.235 2.117-.941.941H9.177l-.942-.94.236-2.118-2.118.235-.941-.941V9.177l.941-.942 2.118.236-.236-2.118.942-.941z" clip-rule="evenodd"/>
        <path fill="#FFD464" fill-rule="evenodd" d="m14.904 5.224 1.059 1.058-.222 1.977 1.977-.221 1.059 1.059v5.807l-1.06 1.058-1.976-.22.222 1.976-1.06 1.059H9.098l-1.06-1.06.222-1.976-1.977.221-1.058-1.058V9.097l1.058-1.06 1.977.222-.221-1.977 1.059-1.058zM8.47 8.47l-2.118-.236-.941.942v5.647l.941.94 2.118-.234-.236 2.117.942.941h5.647l.94-.94-.234-2.118 2.117.235.941-.941V9.177l-.94-.942-2.118.236.235-2.118-.941-.941H9.177l-.942.941zm6.508-3.812H9.02L4.66 9.02v5.958l4.362 4.362h5.958l4.362-4.362V9.021zm4.55 4.282-4.47-4.47H8.94L4.47 8.94v6.118l4.47 4.47h6.118l4.47-4.47z" clip-rule="evenodd"/>
    </g>
    <defs>
        <linearGradient id="JEWEL__b" x1="8.235" x2="18.396" y1="5.5" y2="18.41" gradientUnits="userSpaceOnUse">
            <stop stop-color="#DCFA9C"/>
            <stop offset=".45" stop-color="#81F045"/>
            <stop offset=".95" stop-color="#3FB66B"/>
        </linearGradient>
        <linearGradient id="JEWEL__c" x1="6.353" x2="17.882" y1="5.882" y2="17.882" gradientUnits="userSpaceOnUse">
            <stop stop-color="#F3DF6D"/>
            <stop offset="1" stop-color="#C4732D"/>
        </linearGradient>
        <linearGradient id="JEWEL__d" x1="6" x2="17.5" y1="6.5" y2="18" gradientUnits="userSpaceOnUse">
            <stop stop-color="#FCFA95"/>
            <stop offset="1" stop-color="#F09A4F"/>
        </linearGradient>
        <clipPath id="JEWEL__a">
            <path fill="#fff" d="M0 0h24v24H0z"/>
        </clipPath>
    </defs>
</svg>
