<svg xmlns="http://www.w3.org/2000/svg" width="24" height="24" fill="none" viewBox="0 0 24 24">
    <g clip-path="url(#KAR__a)">
        <path fill="url(#KAR__b)" d="M24 0H0v24h24z"/>
        <path fill="#fff" d="M7.2 9.333h1.893c.246 0 .966-.25 1.888-1.125A479 479 0 0 1 15.467 4h4l-6.4 6.133 6.346 8.8h-3.146L13.6 15.2c.341.816.544 2.89-.101 4.8.16-1.845-.86-3.872-1.056-4.133-.176-.235-1.11-2.102-1.558-3.003-.405-1.75 1.419-3.504 2.384-4.16-1.27-.81-2.4.128-2.805.693-.725-.096-1.35.406-1.573.667l-2.102 2.97c-.48.694-.981.742-1.173.678.395.933 1.35.453 1.776.101.107.704-.197 1.12-.363 1.238a1.32 1.32 0 0 0 1.136-1.03c.16.235.427 1.163.208 2.96a2.4 2.4 0 0 1-1.386 1.952l-.032-.005H4.533V4H7.2zm2.117 1.627c0-.31.17-.933.87-.944-.06.715-.608.928-.87.944"/>
    </g>
    <defs>
        <linearGradient id="KAR__b" x1="12" x2="12" y1="4" y2="20" gradientUnits="userSpaceOnUse">
            <stop stop-color="#FB3D42"/>
            <stop offset="1" stop-color="#F01E52"/>
        </linearGradient>
        <clipPath id="KAR__a">
            <path fill="#fff" d="M0 0h24v24H0z"/>
        </clipPath>
    </defs>
</svg>
