<svg xmlns="http://www.w3.org/2000/svg" width="24" height="24" fill="none" viewBox="0 0 24 24">
    <g clip-path="url(#KATA__a)">
        <path fill="#fff" d="M24 0H0v24h24z"/>
        <path fill="#242A34" d="M15.547 18.23c.146.303.622.205.755-.066.245 0 .214-.036.374-.124.32-.187.573.115.622-.827.013-.32-.09-.267 0-.396a.74.74 0 0 0 .12-.355c.066-.498.2-1.067.409-1.525a1 1 0 0 1 .088-.15.5.5 0 0 0 .085-.152c.049-.169.08-.697.089-.889 0-.133 0-.262-.067-.369-.075-.124.067-.653-.133-.755-.053-.031-.05-.009-.085-.044.17-.111.88-1.48 1-1.743.151-.337.698-1.608.751-1.99l-.817.35c-.027-.328-.174-1.093-.17-1.297h.716l-.124-.09c-.178-.106-.809-.475-.884-.555h.417a4.5 4.5 0 0 0-1.226-.782c-.223-.093-.463.014-.591-.066-.076-.05-.12-.107-.223-.098-.666.058-1.355.195-2.022.293.111-.191.04-.124-.075-.2.186-.164.453-.453.466-.702-.066-.036-.284.044-.43-.151.177-.049.275-.196.31-.4.045-.231.018-.445-.146-.533-.152.222-.005.213-.356.373-1.24.569.111-.311-.844-.898-.654-.409-.44.729-1.21.6-.177-.031-1.137.24-1.421.342-.418.156-.25.183-.511.12a4 4 0 0 0-.614-.089c-.933-.057-.36.823-.066 1.183.062.08.222.195.235.293.031.347-.124.133-.058.4-.084.035-.217.124-.226.222-.005.04.053.293.062.36l-.982.258c-.058-.182-.089-.422-.187-.565-.164-.035-.382.023-.506.085-.01.138.03.24.044.364-.196.014-.858.178-1.053.245-.223.07-.231.195-.365.27-.19.112-.244.112-.289.343-.382.12-.702.24-1.053.391-.28.116-.755.356-.91.525-.01.128.24.657.31.773.382-.178 1.009-.498 1.422-.596.311.742.338.845.116 1.534-.053.16-.093.364-.133.533-.08.355-.183.818.066 1.066.2.205.187.285.32.356.174.098.356.098.565.107.133.658.373.977.764 1.484.222.244.262.165.462.031.12.151.245.418.351.591.054.09.031.12.018.236-.111 1.11-.267 2.222-.364 3.333.15-.027.377-.111.533-.16a20.6 20.6 0 0 0 3.36-1.364l.444-.24c.231-.12.534-.138.787-.236.329-.129.164-.258.28-.387.275-.19 1.609-1.213 1.804-1.217.013.604-.178.604-.075.964-.027.036-.085.116-.12.133a2 2 0 0 0-.463.271c-.208.165-.235.423-.195.747-.125.022-.8.253-.991.311-1.022.32-2.045.578-3.089.845-.702.177-1.418.329-2.133.484-.267.053-2.116.409-2.178.436.098.142.702.417.889.48.253.084.293.044.56 0l.569-.103c.755-.133 1.51-.315 2.24-.489a48 48 0 0 0 3.186-.902c.338-.106.707-.24 1.04-.324.062.075.089.169.143.24.177.222.47.302.564-.009l.044-.133z"/>
        <path fill="#FC3B3B" d="M14.457 7.529c-.147.298-.062.173-.049.315.014.134-.098.222-.133.311.178-.044.218-.07.404-.03.21.044.143.057.365.017.862-.142 1.053-.333 1.786.102.236.142.2.098.227.236.089.43.08.83.089 1.27 0 .223-.022.21.066.392.258.533.33.92-.017 1.378.044.062.08.102.124.186.045.09.067.16.116.2l.489-.862c.075-.142.404-.795.426-.92l-.298.125c-.013-.991.045-1.391-.208-2.33-.045-.177-.058-.141-.187-.221l-.524-.325c-.174-.106-.134-.075-.356-.066-.422.022-1.964.146-2.32.222"/>
        <path fill="#EFD9C2" d="M13.728 8.858a4.8 4.8 0 0 1-1.35.893c-.227.098-.338.12-.547.08-.045-.009-.014-.013-.058 0-.053.151-.182.978-.16 1.12.067.311.036.529.507.476.346-.04.622 0 .933.102.524.173.924-.431.79-.613-.08-.111-.15-.147-.301-.218.106 0 .226 0 .333.027.124.026.182.07.276.097.03-.457-.031-.417-.112-.715.143.009.245.084.347.133a2 2 0 0 0-.155-.507c-.09-.19-.183-.328-.227-.43l-.089-.107c.164-.014.24-.018.409 0-.027-.063-.209-.223-.267-.276-.098-.098-.2-.187-.329-.062"/>
        <path fill="#393955" d="M8.836 9.857c-.027.143-.09.312-.125.463-.035.16-.067.337-.08.506-.062.702.178 1.938-.098 2.738-.04.111-.15.338-.213.329-.067-.08.022-.25-.053-.338-.125.147-.045.271-.222.444-.143.134-.223.058-.356-.08l-.044-.053c.03.218.173.4.293.556.058.075.08.07.147.133.057-.027.08-.08.177-.164.076-.067.142-.072.218-.134a1.3 1.3 0 0 0 .187-.16c.057-.058.11-.146.177-.182a1 1 0 0 1-.102.222c-.044.071-.102.134-.124.205.142-.036.31-.156.39-.223.09-.075.108-.044.125-.182.05-.502-.089-.11.165-.742a1.6 1.6 0 0 0 .106-.507c-.062.063-.124.347-.528.703 0-.205.057-.476.075-.69.036-.52.053-.946.053-1.466 0-.142-.03-.644-.008-.733.266.884.2 1.244.195 2.102l.045-.08a4.4 4.4 0 0 0 .213-1.089c0-.067.013-.391.027-.43-.027-.063-.027-.019-.04-.099l-.045-.298c.009 0 .013.01.013.01l.01.008c.146.138.213.48.266.636.089-.431.071-.965.098-1.409 0 .062.013.044.026.058l.005-.031c.067.244.124.462.155.728.076.627-.044.818.365 1.387.106.151.186.227.298.356.053.066.062.084.124.11-.115-.24-.311-.408-.453-.866-.058-.19-.05-.396-.045-.6 0-.106-.013-.56.014-.613-.014-.089-.147-.636-.178-.676-.009.045.009.014-.022.045-.045-.16-.365-.431-.37-.556 0-.142.192-.542.379-.533l-.018-.058c-.116-.022-.196.027-.28.076a.5.5 0 0 0-.205.177 2 2 0 0 0-.275.498c.093.107.164.09.24.436.044.178.062.462.053.649-.062-.103-.102-.365-.204-.436l-.023.267c-.057-.116-.133-.507-.2-.578-.08.156-.124.489-.186.689l-.094-.387-.004-.07c-.018-.08 0-.045-.044-.068"/>
        <path fill="#FC3B3B" d="m9.475 16.951.093.374.703-.067-.44.164c-.12.045-.312.116-.432.138zm.733-.417c.014-.134.08-.356.014-.454-.103-.15-.387-.457-.116-.644.084-.058.222-.138.2-.285-.373-.102-1.155-.208-1.169-.746-.044.07-.058.044-.129.089l.387.644c.044.08.049.089.036.2l-.076.685c-.031.297-.204 1.71-.196 1.87.356-.084 1.93-.742 2.254-.906.222-.107.484-.253.688-.342-.017-.254.018-.765-.128-.947-.143.058-.312.165-.454.236-.089.04-.169.062-.209.142-.164.311-.23.444-.609.302-.102-.035-.146.013-.248.053-.08.036-.16.076-.245.103"/>
        <path fill="#B77D48" d="M14.276 8.934c.284.022.675.408.87.622.063.066.178.204.214.293-.116-.075-.245-.155-.431-.142.062.058.24.102.413.338.071.097.236.35.24.51l-.165-.137a.7.7 0 0 0-.235-.098c.027.058.191.254.289.458.058.129.182.418.093.56.05.044.227.089.311.102.098.018.276.04.356-.035-.094 0-.222.022-.307-.014.071-.04.209-.075.298-.12.129-.062.151-.098.124-.266a1.5 1.5 0 0 0-.222-.591c.52.409.37.786.498 1.11.062 0 .071.014.111-.026-.022-.045-.062-.356-.089-.453a1.4 1.4 0 0 0-.578-.814c-.053-.035-.137-.066-.177-.11.12 0 .19.017.288.057a2.6 2.6 0 0 0-.328-.444c-.17-.178-.41-.29-.454-.33.17-.008.254.036.396.063-.062-.165-.356-.364-.525-.444-.07-.027-.164-.054-.222-.09.387-.004.827.21 1.045.485.066.089.15.182.195.298-.08-.014-.151-.085-.28-.102.076.106.33.368.48.568.027.04.156.17.13.21.039.048.035.022.079.062.267.23.311.577.4.622.151-.063.009-.494-.031-.61q-.09-.272-.267-.497c-.11-.138-.186-.324-.298-.467-.595-.755-.835-.546-1.168-.746l-.254-.133c-.16-.076-.382-.2-.577-.134-.125.045-.445.178-.53.245.116.057.223.155.307.195z"/>
        <path fill="#C19F84" d="M11.613 10.952c-.085.133-.031 1.004.08 1.138.053-.031.373.106.431.137.133.076.275.178.342.267.027.031.116.13.116.187 0 .098-.107.11-.2.089-.134-.036-.156-.071-.471-.143.07.223.39.667.422.778.222-.018.275-.133.338-.32.049-.164.08-.36.022-.529-.085-.23-.387-.435-.614-.502l-.062-.018-.013-.008-.022-.014-.014-.009a.82.82 0 0 1 .694.25l.008.004.032.03.062.09c.084.11.129.266.324.248a.4.4 0 0 0 .214-.088c.12-.085.057-.063.16-.134-.018.067-.045.111-.076.17-.129.24-.253.213-.422.28-.04.372-.102.532-.32.715l.147.146c.186.072.56-.013.742-.089.164-.066.173-.07.284-.288.08-.152.098-.232-.018-.356l-.035-.04c-.009.125 0 .222-.058.311-.222.347-.702.391-.751.24.009-.062.049-.115.071-.178.049-.173.049-.35.116-.395.07-.045.088-.036.16-.098.133-.12.146-.164.24-.267.035-.044.297-.164.377-.137.036.088.01.2-.026.288.213-.066.089-.23.15-.484-.106 0-.203.058-.284.098.031-.2.138-.196.17-.338l-.236.12c.022.018.053.009-.058.098-.044.03-.062.058-.102.089-.68.489-.471.035-1.107-.378-.08-.053-.146-.089-.24-.142-.075-.04-.204-.09-.244-.134l-.178.01c.164-.107.569-.099.778-.072.258.036.444.098.657.191.383.16.752-.213.89-.515.07-.151 0-.231.381-.12-.004-.311-.026-.418-.08-.698.116 0 .192.058.276.089a4 4 0 0 0-.276-.676 2.3 2.3 0 0 0-.324-.484c-.04-.044-.013-.027-.062-.058.044.102.142.24.226.431.054.125.143.365.156.502-.102-.044-.204-.12-.347-.133.08.302.143.262.111.72-.088-.027-.15-.07-.275-.098a1.4 1.4 0 0 0-.333-.026c.146.07.222.106.302.217.133.178-.267.787-.796.614a2.1 2.1 0 0 0-.928-.102c-.472.053-.445-.165-.507-.476"/>
        <path fill="#E1AB69" d="M11.555 7.31c-.005.023.013.032-.076.045a.5.5 0 0 1-.11.013q-.122.008-.232-.017c-.133-.032-.35-.285-.4-.41q.283-.018.56.032c.08.04.205.253.258.338m-1.333-.44-.054.014c.045.138.045.147.094.262-.058-.004-.08-.027-.12-.044-.014.12.009.19.022.302-.067-.022-.067-.036-.102-.08-.045.15 0 .315.022.466.013.165.155.183.315.445.027.04.076.111.116.133.089 0 .187.045.284.054-.075-.072-.31-.165-.377-.356.115.044.164.102.324.124-.013-.044-.062-.066-.151-.182-.058-.075-.08-.133-.129-.226.031-.032-.022-.018.04-.01.076.027.178.125.267.178-.045-.177-.111-.253-.133-.484l.03.031.023.031.04.058c.044.067.222.227.315.267l-.026-.174c.142.085.31.178.52.178.022-.07 0-.124.066-.173.027.089.036.213.09.31.03.059.035.032.053.09.137-.062.253-.111.444-.08 0-.01.222-.387.236-.396l.004.165c.107.009.36-.107.476-.191.053-.045.07-.08.12-.116l.03.027c.005-.12-.08-.254-.124-.351-.053.017-.146.089-.195.07-.072.045-.12.059-.223.094-.013-.013-.008.009-.013-.027-.04-.062 0-.386.098-.462l.133-.089c-.044-.089-.018-.066-.253-.013a9 9 0 0 1-1.582.173c-.223 0-.485-.026-.68-.017m2.529-2.12c-.032.014-.107.125-.134.156-.036.058-.075.125-.133.17l.111-.223q-.64.022-1.267.151c-.089.027-.115.062-.204.089-.138.031-.325.102-.445.124.023.027-.026 0 .036.031l.147.071-.276-.03-.675.008v.018c.177.004.32.022.488.076.178.057.258.12.392.177l-.023.014-.035.009-.2.053c.035.089.129.133.146.258l.01.009c0 .008.017.013.017.013.027.013.013.013.058.013.369.045 2.267-.19 2.613-.32l-.027-.044c-.044-.071-.017 0-.035-.067l-.031-.23-.174.004-.008-.018c-.072-.045-.054-.094-.09-.165l-.128.045c-.085.035 0 .035-.098.066.009-.057.009-.075.049-.115l.089-.156.107-.164c.075-.111.164-.2.24-.289.044-.044.075-.098.168-.098l.098.018c-.053-.062-.147-.12-.231-.107-.089.014-.395.294-.467.378-.07.08-.035.062-.088.076"/>
        <path fill="#393955" d="M14.786 13.312c.04.035.005-.014.018.04.031.124-.146.395-.209.475a.9.9 0 0 1-.444.271c-.467.133-.835.004-1.28-.071l.124-.031-.248.022c.124.098.684.253.888.311.32.09.65.125.987.178-.213.089-.667.045-.911.009-.333-.045-.662-.156-.827-.178.027.16.08.214.09.427.15.102.986.32 1.221.364.591.111.845.027 1.365-.124l-.031-.28c-.09.018-.187.058-.28.08-.272.066-.671.12-.934.03.085-.035.263-.061.325-.106-.036-.013 0-.013.053-.044.174-.111.347-.311.418-.516-.138-.07-.062-.053-.134-.089-.124-.062-.23-.088-.057-.426.044-.08.16-.6-.156-.645-.053.218.062.151.022.303"/>
        <path fill="#E1AB69" d="m13.062 7.493.03.147.094-.102c.125-.147.134-.231.209-.356.031.214-.022.343-.044.534.137-.063.15-.134.186-.178l.045-.045c-.018.285-.018.312-.156.378-.035.018-.018.018-.062.018.044.049.035.062.027.133.049-.062.08-.133.133-.177-.027.15-.107.213-.151.32.235.017.27-.014.453-.09-.115.178-.2.21-.35.325l.31-.044c.24-.165.382-.214.467-.431-.076-.116-.085-.036.018-.294.04-.106.097-.178.133-.28-.027-.075-.062-.022-.045-.133.018-.062.045-.089.04-.147l.01-.275h-.072c.022-.09.04-.151.036-.245l-.036.05-.035.04c-.01-.25-.098-.28-.165-.436-.204.057-.426.168-.649.235l-.59.178c-.067.013-.045-.005-.076.035.062.054.124 0 .209-.03.053-.023.177-.072.23-.076-.057.138-.11.302-.181.44-.067.133-.045.08-.018.24.013.089.022.19.026.284-.008-.026-.008-.009-.026-.018"/>
        <path fill="#C6D0DB" d="M6.831 19.564c.018-.04 0-.009.045-.009l.062.014.431.049c.694-.018 3.045-.578 3.68-.747a61 61 0 0 0 2.933-.853l.742-.223c.13-.013.165.05.245.09-.01-.103-.01-.33-.053-.4l-.96.315c-1.8.578-4.236 1.155-6.107 1.529-.346.07-.71.129-1.053.204.018.031.009.022.035.031"/>
        <path fill="#FC3B3B" d="M10.534 6.133c-.023.062-.045.067-.08.133a.6.6 0 0 0-.054.178c-.018.178.076.222.107.342.71.036 1.529-.04 2.182-.222-.111-.178-.044-.12-.089-.178-.102.005-.062-.008-.093.058-.036.067 0 .054-.102.058.017-.155.133-.307.142-.462l.098-.045.07.556c.125-.009.88-.24 1.032-.298.018-.106-.014-.298-.085-.36-.089-.08-.217-.075-.333-.098-.089 0-.524.094-.662.116-.218.036-.458.071-.676.093-.253.023-.498.027-.746.05-.236.021-.471.061-.711.08"/>
        <path fill="#FDFDFD" d="M6.832 19.565c.053.08.293.195.417.235.218.067.338.018.556-.022 1.76-.313 3.5-.735 5.208-1.262.325-.102.663-.21.987-.302.169-.05.333-.107.498-.16q.183-.056.364-.116c.134-.04.09-.031.107-.058-.08-.035-.116-.098-.245-.084l-.737.222c-.89.28-2.058.622-2.934.853-.64.165-2.99.73-3.684.747l-.43-.044-.067-.018c-.04 0-.023-.031-.04.009"/>
        <path fill="#565676" d="m10.751 12.461.089.111-.355-.08c-.01.027.15.25.182.293l.11.147c.045.063.08.09.107.16.09.009.258.067.36.09.12.03.28.048.392.08l-.134.012c-.062.045-.222.027-.302.027.053.076.369.307.436.351l.382.209c.2.089.142.036.15.022q-.585-.784-1.075-1.63a8 8 0 0 1-.826-1.872c-.027.054-.014.507-.014.614-.004.204-.013.408.045.6.146.457.338.626.453.866"/>
        <path fill="#E1AB69" d="M15.564 11.333c.09-.134-.035-.427-.093-.556-.098-.204-.262-.4-.289-.458.173.04.271.116.4.236-.004-.16-.169-.413-.24-.511-.178-.236-.35-.28-.413-.338.187-.013.311.067.431.142a1.6 1.6 0 0 0-.213-.293c-.09-.102-.125-.16-.24-.253-.152-.116-.45-.356-.631-.374.084.107.257.254.333.445-.133-.01-.209-.031-.356-.027.027.062.178.24.223.316a2.5 2.5 0 0 1 .4 1.222c-.05-.018-.076-.045-.116-.062.067.097.578.502.804.515zm.978 2.044c.116-.284.031-.996-.222-1.347a1 1 0 0 0-.276-.266q-.269-.018-.533.035c-.044.031-.049.076-.044.147.013.378.48 1.413.822 1.515.102.031.164 0 .235-.062l.018-.018z"/>
        <path fill="#C19F84" d="M10.835 8.649c.045.053.098.089.151.133.41.29.845.574 1.391.467a3.3 3.3 0 0 0 1.445-.747h-.24c-.094.067-.267.178-.436.2.031-.106.094-.195.134-.324.017-.071.017-.129.044-.196.018-.057.044-.102.067-.16l-.045.036c-.195.151 0-.093-.27.293l-.072.09c-.275.266-.049.337-.471.31-.387-.018-.324.014-.533.09-.058.021-.085.017-.13.035-.066.017-.017.026-.088.044-.08-.075-.014-.067-.129-.102-.089-.031-.089-.031-.133-.089-.071-.093-.16-.178-.156-.302-.04.026.005.026-.075.009l-.085-.027.009.08c-.084-.018-.044-.013-.098-.089-.044-.058-.044-.04-.044-.133-.12-.036-.027-.045-.12-.102-.133-.08-.031-.023-.12-.103-.045-.044-.076-.057-.12-.106a.3.3 0 0 0-.129-.098c.084.089.147.164.209.258.066.089.12.15.169.262.11.24.266.32.409.453-.196-.026-.37-.12-.534-.178z"/>
        <path fill="#B77D48" d="M16.786 13.81h-.098c.12-.054.222-.059.356-.125.321-.158.57-.433.693-.769-.044.027-.231.298-.369.191-.066-.053-.102-.355-.133-.471-.16-.502-.258-.555-.373-.858-.13.031-.352.018-.49.014.023.044.05.044.09.089.24.253.284.52.31.862.023.262.072.67-.08.897-.057.09-.128.147-.146.187.08 0 .178.009.24-.018"/>
        <path fill="#565676" d="M8.32 13.893c.062.01.177-.218.213-.329.276-.8.036-2.035.098-2.737.013-.17.044-.347.08-.507.035-.155.098-.32.124-.462a.27.27 0 0 0-.15.102c-.068.071-.028.009-.134.142a1.6 1.6 0 0 0-.316 1.271c.076.81.338 1.263.347 1.818l-.022-.04-.045-.053c.054.533-.15.635-.195.8z"/>
        <path fill="#E1AB69" d="m16.867 16.932-.454.165c-.133.03-.426.044-.489.115-.084.098-.08.356-.097.503-.027.2.12.293.32.27.106-.048.04-.062.2-.048.08 0 .102-.045.16-.08.173-.111.266-.062.409-.12.177-.067.173-.654.124-.845l-.173.045zM6.729 8.862c.223-.067.058-.298.2-.4.01-.018-.017-.014.018-.018.027.124.094.338.165.418.324-.09.102-.378.213-.556l.013-.018v.045c.023.11.098.204.125.298.066-.045.075-.067.155-.112a.6.6 0 0 1 .187-.07l-.076-.223c.054.053.09.147.151.2l.4-.067c0-.044-.115-.573-.302-.568a.74.74 0 0 0-.324.11c-.173.107-.449.023-.689.192-.116.08-.058.102-.249.195-.129.067-.187.094-.133.271a.9.9 0 0 0 .146.303"/>
        <path fill="#FDFDFD" d="M14.573 7.004c-.013.072 0 .014.009.036.356-.058 1.467-.138 1.835-.142.45-.01 1.231-.014 1.676.142.075.027.053.036.08.009-.089-.098-.516-.311-.653-.378-.192-.089-.196-.089-.427-.08q-1.227.026-2.444.178z"/>
        <path fill="#C6D0DB" d="M14.573 7.005c-.04.036-.04.067-.045.134.116.062.05.089.031.209.28-.018.596-.067.885-.098l.91-.076c.468-.03 1.445-.009 1.823-.08.102-.018-.084-.053-.204-.089-.054-.057-1.098-.168-1.29-.164-.373.004-1.75.142-2.101.2-.014-.022-.023.035-.01-.036"/>
        <path fill="#EFD9C2" d="m13.062 7.494-.031-.027c-.045.036-.067.071-.12.116-.116.088-.369.2-.476.19V7.61c-.013.01-.24.387-.244.4.151.018.187.05.23.178.099.142-.021.378-.159.449-.147.075-.164.035-.124.067.133.004.355 0 .488-.018.196-.022.2-.134.29-.236.137-.155.101-.089.23-.284.058-.09.12-.311.223-.276.044 0 .022 0 .057-.018.134-.062.138-.088.156-.373-.036.027-.005-.004-.045.04-.035.045-.044.116-.19.178.026-.191.08-.32.044-.533-.071.124-.08.208-.205.355l-.093.102z"/>
        <path fill="#E1AB69" d="M16.733 11.497c.266-.04.026-.707-.071-.902-.076-.156-.134-.2-.165-.258l.116.053c.009-.013.018-.008-.01-.053l-.12-.155c-.15-.2-.4-.463-.48-.57.134.018.2.09.28.103-.044-.116-.128-.213-.195-.298a1.44 1.44 0 0 0-1.044-.489c.058.04.151.067.222.098.17.076.462.276.525.444-.143-.03-.223-.075-.396-.066.045.04.285.15.453.329.09.093.271.329.33.444a.7.7 0 0 0-.29-.058c.04.045.125.076.178.111.298.21.454.436.578.814.027.093.067.409.089.453"/>
        <path fill="#393955" d="M9.724 13.107c.076.112.142.143.227.223.258.222.577.288.955.337 0-.004-.702-.595-.835-.893.129.049.253.12.39.173l.423.147c-.027-.067-.062-.098-.111-.16l-.107-.147a1.3 1.3 0 0 1-.177-.293c-.045-.031-.107-.058-.16-.084-.058-.027-.094-.058-.147-.08-.022.342-.142.23-.342.595l-.08.16c-.027.031 0 .013-.036.022"/>
        <path fill="#B57A46" d="M6.902 9.484c.022-.045.044-.045.164-.049.312-.004.254.151.223.298l-.263-.014c.156.098.854.094 1.151-.12a.43.43 0 0 0 .196-.275c-.133.107-.436.347-.622.342-.271-.471.386-.435.595-.644 0-.165-.089-.223-.24-.24-.177-.018-.235-.036-.262-.218-.102.027-.151.044-.2.111-.058.08-.009.156.058.191.187.093.378-.075.511.116-.44-.045-.387.066-.711.169-.151.048-.533.155-.653.222z"/>
        <path fill="#AAA097" d="M7.756 11.902a.5.5 0 0 0 .018-.24c-.018-.09-.05-.103-.116-.143-.08-.044-.333-.11-.373-.155-.356-.013-.53-.165-.73-.231-.057.089-.15.338-.12.453.063.076.48.178.605.213.267.076.431.098.716.103"/>
        <path fill="#EFD9C2" d="M13.763 12.942c-.013-.066-.04-.088.018-.15.045-.045.08-.036.111-.085.036-.089.063-.2.027-.289-.08-.027-.342.089-.378.133-.093.107-.102.152-.24.271-.07.063-.089.054-.16.098-.066.045-.066.223-.115.391-.022.067-.063.12-.071.178.044.156.528.111.75-.231.058-.098.05-.191.058-.311z"/>
        <path fill="#CE3636" d="M10.667 10.742c.053.209.644 1.262.764 1.413-.027-.111-.115-.293-.164-.409a16 16 0 0 1-.44-1.23c-.09-.303-.125-.65-.147-.97-.044-.83.187-.666-.187-.866.005.177-.017.39-.017.577 0 .352.035.707.097 1.05.014.061.103.422.09.435z"/>
        <path fill="#C19F84" d="M11.044 9.049c.053.071.129.116.187.187.102.133.417.51.506.546.031-.035.01-.013.045-.035l-.01.089c.045-.018.019-.014.059 0 .209.035.32.013.546-.08a4.8 4.8 0 0 0 1.138-.711c.053-.045.178-.134.213-.187-.226.084-.653.342-.986.48-.125.049-.254.067-.383.115-.355.13-.204.21-.653-.07a4.4 4.4 0 0 0-.662-.334"/>
        <path fill="#EFD9C2" d="m10.778 7.947.338.32c.013.031 0 .018.008.036.01.03.005.022.023.044 0 .01.044.054.058.062l.088.027c.076.018.032.018.072-.009.195 0 .026.214.288.325.191.089.276.084.454-.027-.031-.022.009-.013-.058-.013h-.071c-.156 0-.253-.067-.298-.231-.098-.245-.089-.24.071-.4-.018-.054-.022-.027-.053-.09-.053-.093-.062-.217-.089-.306-.067.045-.044.102-.067.178a1 1 0 0 1-.52-.178l.027.169a1.1 1.1 0 0 1-.316-.267l-.04-.057-.022-.032-.03-.03c.021.23.088.306.132.48z"/>
        <path fill="#B77D48" d="m16.542 13.378-.018.022c-.071.062-.133.094-.236.062-.342-.102-.808-1.137-.822-1.51-.004-.076 0-.12.045-.152a2 2 0 0 1 .533-.035c-.045-.045-.182-.045-.253-.067-.32-.075-.578-.284-.645-.289a2.3 2.3 0 0 0 .471 1.467c.134.204.258.4.4.573.08.102.151.2.276.173.084-.017.231-.115.249-.24z"/>
        <path fill="#E1AB69" d="M7.844 8.565c.027.182.08.2.262.218.152.017.24.075.24.24-.208.208-.866.177-.59.644.177 0 .484-.236.617-.342.053-.045.067-.071.12-.111.045-.031.093-.063.116-.12.04-.094.026-.33 0-.431-.045-.187-.138-.165-.33-.152-.15.01-.284.036-.435.054"/>
        <path fill="#EFD9C2" d="M10.915 9.014c.031.044.213 1.053.445 1.511 0 .013.008.031.017.045l.045.048c.008-.133.075-.337.12-.453.026-.071.057-.129.088-.195.032-.072.08-.125.107-.187-.089-.036-.4-.418-.506-.547-.058-.07-.134-.115-.187-.186l-.111-.067z"/>
        <path fill="#CE3636" d="M10.644 15.178c-.004.062-.027.102-.044.16.026.022-.014.173-.023.289v.173l-.004.147-.005.009.063.053c.337.253.364.16.524-.218.04-.089.102-.169.133-.24-.222.045-.47.24-.51.25-.165-.16 0-.64.097-.779.165-.235.333-.297.698-.213.058-.222.075-.169.133-.289a3.5 3.5 0 0 0-.533-.058c.075.054.178.063.249.147-.24-.04-.396 0-.53.129a.9.9 0 0 0-.195.311l-.017.062z"/>
        <path fill="#AAA097" d="M17.684 13.809c-.134.124-.631.298-.845.356-.2.062-.888.088-.826.333.422 0 .773-.018 1.182-.111a2.3 2.3 0 0 0 .471-.165c.089-.049.12-.066.133-.182a.7.7 0 0 0-.013-.267z"/>
        <path fill="#565676" d="m12.996 14-.125.027c.444.075.813.2 1.28.07a.9.9 0 0 0 .444-.27c.063-.08.24-.352.21-.476-.014-.053.021 0-.018-.04-.04.151-.587.378-.792.453-.222.09-.75.245-1 .231z"/>
        <path fill="#E1AB69" d="M16.862 11.777c.115.302.213.356.369.858.035.111.07.418.133.47.142.108.329-.164.373-.19a1.4 1.4 0 0 1-.693.769c-.133.066-.236.07-.355.124h.097c.272-.016.539-.076.791-.178.156-.07.187-.089.2-.284.01-.147 0-.311-.022-.458-.173.014-.244.196-.346-.062-.134-.329-.058-.573-.325-1.075-.102-.005-.133.022-.222.026"/>
        <path fill="#CE3636" d="M12.902 16.764c-.01-.023 0 0 .053-.036a.76.76 0 0 0 .284-.502 1.7 1.7 0 0 0-.022-.422l-.071-.338c-.044-.067-.173-.102-.173-.311-.018 0-.151.08-.196.102.107.16.17.2.24.409a1 1 0 0 1 .045.56c-.098.387-.387.311-.623.049-.044-.045-.044-.062-.08-.085-.03.378-.035.61.285.61.07 0 .204 0 .258-.036"/>
        <path fill="#B77D48" d="M16.146 17.986c-.2.022-.347-.071-.32-.267.018-.15.014-.409.098-.506.062-.072.355-.085.489-.116l.453-.16q-.387.084-.782.053c-.302-.035-.387-.106-.609-.2-.067.098-.009.147 0 .254l.022-.031c.027-.045.014-.058.04-.098.187.271.178.529.151.889-.013.169-.04.382.138.4.151.022.267-.098.32-.218"/>
        <path fill="#EFD9C2" d="M13.689 12.102c-.338.134-.64-.035-.872-.177a1.48 1.48 0 0 0-.875-.29c.04.045.169.094.244.134.09.053.16.089.24.142.636.414.427.867 1.107.378l.102-.089c.111-.089.08-.08.058-.098z"/>
        <path fill="#B77D48" d="M14.59 12.41c.134-.036.072.115.023.177-.04.045-.045.04-.107.067-.12.066-.169.23-.213.28-.09.084-.094-.005-.183.16l-.03-.022a.6.6 0 0 1-.067.32c.15-.014.178-.178.329-.28.097-.067.066-.147.124-.196.067-.044.125-.053.187-.116.129-.124.155-.204.24-.382.07-.146.115-.329.009-.466-.058.022-.08.066-.151.102-.254.12-.196-.018-.365.146-.044.045-.102.058-.138.116.107.067.271.053.343.089z"/>
        <path fill="#FC3B3B" d="M10.666 10.742c.009-.013-.08-.374-.089-.436a6 6 0 0 1-.102-1.049c0-.186.022-.4.018-.577l-.214-.09c-.114.387-.11.8.014 1.183.044.178.284.867.369.969z"/>
        <path fill="#222A35" d="m17.368 9.763.178-1.76-.956-.275c.058.08.507.356.622.444.063.05.045.205.05.294.035.422.053.889.106 1.297"/>
        <path fill="#FC3B3B" d="M15.573 14.11c.035-.067.022-.191.07-.293.072-.147.143-.143.179-.183-.116-.133-.28-.466-.41-.569a2 2 0 0 0-.16.156l-.075.556c0 .142.053.124.103.209.235-.032.222.07.293.124"/>
        <path fill="#C6D0DB" d="M9.36 8.137c-.222.053-.32.058-.484-.12l-.067-.062c.013.106.085.52.129.586.013 0 1.102-.302 1.147-.338l.062-.057c-.054-.067-.111-.111-.16-.178-.014-.013-.551.155-.622.169z"/>
        <path fill="#938376" d="M15.995 15.502c-.058-.445.138-.351.587-.32.28.024.562-.007.83-.09l.037-.017c-.152-.013-.32 0-.485-.018a3 3 0 0 1-.8-.164c-.124-.045-.227-.12-.316-.156a2.2 2.2 0 0 0-.044.458c-.013.333.027.298.191.307"/>
        <path fill="#CE3636" d="m9.533 13.854.005-.027c.053.098.369.223.524.28.196.071.409.142.622.187l-.044-.036h-.005l-.044-.026-.244-.134c-.2-.133-.258-.222-.383-.39-.124-.17-.169-.12-.257-.25-.032-.049-.072-.097-.09-.16-.137.036-.177.085-.19.24a.55.55 0 0 0 .106.316"/>
        <path fill="#FDFDFD" d="m8.81 7.955.066.062c.164.178.266.173.489.12.062-.013.555-.12.617-.178-.057-.084-.11-.204-.169-.284-.155.022-.36.089-.515.133-.071.018-.476.102-.489.147"/>
        <path fill="#938376" d="M16.013 14.497c-.062-.24.622-.271.831-.329.295-.079.578-.198.84-.355-.124.013-.311.088-.453.12-.303.075-.658.15-.974.146-.32 0-.31-.062-.44-.093-.008.102-.026.289-.013.391l.04.093z"/>
        <path fill="#EFD9C2" d="M11.91 12.622c.316.076.338.111.472.147.093.022.2.009.2-.089 0-.058-.09-.155-.116-.187a1.3 1.3 0 0 0-.342-.266c-.058-.031-.378-.17-.431-.138 0 .08.169.476.218.533"/>
        <path fill="#AAA097" d="M6.854 12.968c.19.018.329-.137.413-.222.107-.098.16-.24.231-.387-.169.045-.302.13-.502.174-.178.035-.396.008-.547.106.022.036.058.054.098.085.182.133.071.222.307.244m9.057 3.511c-.062.036-.058.031-.093.09a.4.4 0 0 0-.067.123c.342.094.782.103 1.124-.026.147-.058.196-.062.227-.227-.2.022-.387.045-.587.053-.369.027-.4-.013-.6-.013z"/>
        <path fill="#CE3636" d="M12.333 15.123c.022-.053 0-.013.031-.053.071-.089.142-.187.133-.338a.37.37 0 0 0-.08-.186c-.044-.058-.12-.058-.186-.107a.48.48 0 0 0-.298.804c.022-.146-.013-.302.058-.417.044-.067.16-.174.284-.187-.035.071-.373.467.058.484"/>
        <path fill="#938376" d="M15.813 16.209c0-.107.151-.142.267-.133.164.008.586.222 1.035.004l.013-.004.036-.027c-.333.049-.507.018-.8-.085-.293-.097-.4-.208-.458-.226-.07-.022-.106-.022-.168-.049-.032.231-.223.444.075.52"/>
        <path fill="#C19F84" d="m11.422 10.619-.044-.05-.022-.044c-.227-.457-.41-1.466-.44-1.51a4.34 4.34 0 0 0 .444 2.066z"/>
        <path fill="#FFC639" d="m15.066 17.274.071.703c.04.084.063.266.192.155.088-.08.017-.253.044-.378.031-.115-.044-.622-.089-.733-.169-.067-.209.107-.218.253"/>
        <path fill="#565676" d="M9.476 11.004c.155.311.133.769.15 1.12.08-.142.17-.827.187-1.036.058-.622-.022-.813-.009-1.177-.013-.014-.026.004-.026-.058-.027.444-.01.978-.094 1.409-.057-.156-.124-.498-.266-.636l-.014-.009-.008-.009.044.298c.009.08.009.036.036.098"/>
        <path fill="#AAA097" d="M15.995 15.501c.496-.032.98-.172 1.417-.409a2.2 2.2 0 0 1-.826.09c-.453-.032-.65-.12-.591.32"/>
        <path fill="#B77D48" d="M7.512 13.067c.106.026.222.102.35.066.059-.013.232-.106.254-.155.045-.12.031-.667.005-.81-.032.05-.076.205-.112.272a1.8 1.8 0 0 1-.222.338z"/>
        <path fill="#FC3B3B" d="M12.902 16.765c.11.009.346-.071.426-.124.133-.085.151-.218.147-.414a1.4 1.4 0 0 0-.33-.76l.072.338c.022.133.036.285.022.422a.78.78 0 0 1-.284.503c-.05.035-.062.013-.053.035"/>
        <path fill="#E5A128" d="M8.249 7.53c.048-.005.128-.014.177.013.063.036.116.311.134.387.022.08.146.524.12.555.044.165.062.267.089.431.048.067.057.311.102.445l.066-.022c.036-.245-.27-1.467-.382-1.867l-.026-.08-.023-.036c-.297.023-.266.08-.257.178z"/>
        <path fill="#AAA097" d="m7.853 10.27.005-.191c-.267-.098-.72-.044-.92-.249-.01-.013 0-.009-.023 0a.5.5 0 0 0-.044.293c.178.098.755.156.978.147z"/>
        <path fill="#EFD9C2" d="M10.516 8.369c.022.044.262.258.32.28.164.062.337.155.533.178-.138-.13-.298-.21-.409-.45-.049-.11-.102-.177-.169-.266a2 2 0 0 0-.209-.253c-.004-.031 0-.018-.03-.045l-.045-.04c-.062-.009-.01-.022-.04.01a1 1 0 0 0 .129.221c.088.12.133.147.15.187-.16-.022-.208-.08-.324-.124.067.19.303.284.378.355-.098-.004-.196-.053-.284-.053"/>
        <path fill="#393955" d="M12.169 13.885c-.01.013.044.066-.152-.022l-.382-.21a3 3 0 0 1-.435-.355c.084.005.24.022.302-.022-.116 0-.253.022-.391.013-.124-.009-.245-.044-.356-.053.09.146.422.39.587.471.435.213.458.155.858.222z"/>
        <path fill="#B77D48" d="M13.338 5.477c0 .057.005.017-.022.03.018.067-.009-.004.035.063l.027.049.458-.138a3.4 3.4 0 0 0-.213-.947l-.063-.115-.022-.014-.093-.017c.129.222.244.755.258 1.022-.072-.085-.072-.182-.17-.227l-.04.147-.08-.098c-.013.053-.044.213-.075.245"/>
        <path fill="#C19F84" d="m13.271 4.498.009.017.004.031v.01l.134-.05c-.01.036-.054.09-.08.134-.031.058-.05.089-.071.16l.222-.058c-.085.16-.187.267-.254.462l.112-.022-.01.293c.032-.03.063-.19.076-.244l.08.098.045-.147c.089.044.089.142.164.231-.013-.275-.133-.8-.262-1.022-.093-.005-.12.044-.169.093z"/>
        <path fill="#CE3636" d="M9.72 14.653c0-.045-.004-.013.031 0 .076.035.098.053.214.075.089.023.249.045.333.014v.164c.044-.044.009-.089.031-.204.013-.067.045-.111.062-.156a2.3 2.3 0 0 1-.524-.133c-.28-.102-.302-.165-.418-.222.018.2.16.4.271.462m3.613-8.857c.112.022.245.017.33.097.07.063.102.254.084.36.115-.035.333-.089.395-.164-.013-.133-.089-.111-.133-.222-.116-.29-.098-.285-.427-.178-.062.018-.204.058-.253.107z"/>
        <path fill="#938376" d="M7.497 12.355c-.07.151-.124.293-.23.396-.085.08-.223.235-.414.222.093.04.324.058.427 0 .066-.04.315-.28.369-.351.075-.094.248-.333.244-.458-.062.018-.32.151-.396.196z"/>
        <path fill="#AAA097" d="M7.796 11.058c-.01-.076-.09-.156-.156-.187-.115-.053-.213-.027-.333-.027a4 4 0 0 1-.591-.062l-.014-.005c0-.008-.008-.004-.013-.008-.044.035-.075.178.062.222.09.022.231.035.325.044.213.018.51.045.72.022"/>
        <path fill="#CE3636" d="M10.507 6.788c-.032-.116-.125-.16-.107-.343a.5.5 0 0 1 .053-.177c.036-.067.058-.072.08-.134-.098.005-.31.005-.382.04-.08.08-.098.311-.089.44.089-.035.054-.106.2-.164-.027.106-.151.244-.2.306.102.036.334.036.445.032"/>
        <path fill="#565676" d="M10.088 9.707a1.9 1.9 0 0 1-.013-1.05c-.187 0-.382.4-.378.538 0 .125.325.396.37.552.03-.027.012.004.021-.045z"/>
        <path fill="#C19F84" d="M9.578 5.636v-.044a.6.6 0 0 0 .08.155c-.01-.089-.01-.133.044-.19-.026-.045-.018-.023-.058-.063.17-.031.463-.036.605.044-.062.058-.089.036-.133.111l.39.116c-.022-.084-.08-.062-.164-.151.142-.022.231-.045.391-.022l.036-.01-.045-.026-.03-.013-.072-.022c-.218-.08-.306-.067-.524-.09l.07-.044-.257-.07v-.019c-.08 0-.284.01-.347.054-.08.049-.035.222.014.284"/>
        <path fill="#F7F2EC" d="M13.022 10.88c.027.043 0 .012.04.048.053.058.089.071.133.164-.253-.062-.409-.115-.693-.106a1.7 1.7 0 0 0-.667.133c.116-.005.263-.04.396-.049.511-.035.724.08 1.16.222a.64.64 0 0 0-.218-.364c.147-.08.373-.013.533.018-.248-.231-.582-.09-.688-.067z"/>
        <path fill="#938376" d="M6.689 10.77c.004 0 .013 0 .013.008l.014.005c.097.03.506.062.59.062.12 0 .223-.027.334.026.067.032.147.112.156.187.124-.013.133-.053.146-.178a.8.8 0 0 0-.026-.302c-.125 0-.4.12-.552.156-.244.049-.43.035-.675.035"/>
        <path fill="#EFD9C2" d="M13.39 8.019c-.017.062-.044.106-.066.164-.027.067-.027.124-.045.196-.04.133-.102.222-.133.324.169-.022.342-.133.436-.2l.2-.142-.307.04c.151-.116.235-.142.351-.33-.178.08-.218.112-.453.09.044-.102.124-.165.15-.32-.053.044-.084.12-.133.178"/>
        <path fill="#FFC639" d="M8.68 8.484c.027-.031-.098-.476-.12-.556-.018-.07-.071-.355-.133-.386-.05-.027-.125-.018-.178-.013l.191.822c.196.013.16.004.24.133"/>
        <path fill="#FC3B3B" d="m10.644 15.178.036-.067.017-.058a.9.9 0 0 1 .196-.315c.133-.133.289-.169.529-.133-.071-.08-.178-.09-.245-.143-.28.005-.369.018-.52.183a.4.4 0 0 0-.097.266c0 .107.07.156.084.267"/>
        <path fill="#AAA097" d="m17.164 16.049-.036.026-.013.005c-.449.222-.87.004-1.03-.005-.12-.008-.272.027-.272.134.102.093.64.066.8.058.133-.01.28-.023.413-.04.143-.023.227-.045.222-.205l-.088.027z"/>
        <path fill="#938376" d="m6.316 12.298.031.129c.067-.018.133-.062.222-.084.21-.058.347-.036.738-.17-.08-.057-.302-.106-.413-.146-.13-.053-.276-.133-.387-.173.036.058.204.204.267.302-.116.035-.236.053-.351.107-.098.044-.054.049-.107.035m.622-2.466c.2.2.649.15.92.248l-.004.191c.146-.022.128-.062.16-.195.026-.098.062-.196.07-.293-.177.03-.155.07-.537.106-.28.027-.364 0-.609-.057"/>
        <path fill="#E1AB69" d="M14.59 12.409a.6.6 0 0 1-.368.097c0 .134.013.165-.072.24l-.169.143c.05.048.09.088.098.177l.031.027c.09-.165.098-.076.178-.16.049-.044.098-.213.222-.28.054-.027.063-.022.103-.071.048-.058.115-.209-.023-.178z"/>
        <path fill="#232933" d="M11.164 7.058s.027.014.023.054c-.005.03-.018.035-.045.044-.03-.044-.044-.093.022-.098m-.026.294c-.067-.09-.205-.2-.254-.338h.21c-.094.24.075.364.257.324.075-.017.075-.049.111-.106l.093.08c-.053-.09-.177-.298-.257-.338a2.3 2.3 0 0 0-.56-.031c.049.124.266.378.4.409"/>
        <path fill="#FC3B3B" d="M13.604 15.75c.054-.022.4-.253.436-.306-.311-.05-.587-.187-.778-.232l.342.534z"/>
        <path fill="#B97E48" d="M9.578 5.636c.009.045.022.067.04.103l.022.053c.009.027.009.018 0 .03.031.072.289.365.351.445.12-.142-.062-.2.28-.257.124-.023.395-.04.493-.071-.044 0-.03 0-.057-.014 0 0-.018-.004-.018-.013l-.01-.01c-.057.023-.213-.026-.346-.035-.12-.004-.089-.004-.102-.035-.058.044-.187.03-.276.035.005.103.032.12.054.2a.3.3 0 0 1-.134-.106l-.097-.16c0 .08.013.124.03.195-.133-.155-.133-.2-.115-.306l-.035.057a.4.4 0 0 1-.076-.16v.05z"/>
        <path fill="#E5A128" d="M4.675 9.626c.01-.035.005-.035.036-.053.044-.031.018-.022.067-.013 0-.076.066-.107.12-.134.03-.026.115-.075.16-.062.08.022.146.236.133.347.044.022.053.07.07.115l.16-.07-.24-.592c-.146.044-.479.271-.55.351.009.053.009.071.044.111"/>
        <path fill="#CE3636" d="M14.195 5.524c.067 0 .071.009.116.058l.031.04c.022-.023.031-.036.058-.054-.036-.053-.036-.013-.036-.07.405-.054.507-.299.427-.712-.031-.022 0-.009-.018.018.036.498-.48.32-.578.72"/>
        <path fill="#A3968C" d="M6.703 10.579a2.8 2.8 0 0 0 .853-.116c-.36-.084-.35-.04-.737-.191-.036.076-.143.071-.116.302z"/>
        <path fill="#AAA097" d="M6.315 12.298c.054.013.01.013.107-.036.115-.053.235-.07.355-.107-.066-.097-.235-.244-.266-.302l-.134-.11a1.3 1.3 0 0 0-.062.555"/>
        <path fill="#FC3B3B" d="M14.195 5.525c.098-.4.613-.223.578-.72-.067.049.009.044-.178.177-.169.12-.525.17-.516.636l.116-.089z"/>
        <path fill="#E5A128" d="M15.066 17.275c.01-.147.05-.32.218-.254-.027-.19-.16-.32-.32-.155-.12.12-.133.258-.11.466z"/>
        <path fill="#C19F84" d="M9.694 5.69c-.023.106-.023.15.115.306-.018-.071-.031-.116-.031-.196l.093.16c.04.054.067.076.134.107-.018-.08-.045-.098-.05-.2.09-.005.219.004.276-.036l.063-.035c-.094-.045-.32-.085-.374-.111a.5.5 0 0 1 .102-.085c-.075-.049-.24-.022-.31.01l-.018.084z"/>
        <path fill="#B77D48" d="M10.085 7.792c-.022-.151-.067-.311-.022-.467.035.045.035.058.102.08-.014-.11-.036-.182-.022-.302.04.018.062.04.12.044-.054-.115-.054-.124-.09-.262l.045-.013-.187-.031c-.008.186.178.066-.106.338.013.115.067.013.009.142-.031.07-.022.11 0 .182.03.093.08.236.15.289"/>
        <path fill="#AAA097" d="M16.923 14.649c.076.08.631.066.765.044.066-.044.084-.186.089-.297-.13.044-.25.11-.405.155a4 4 0 0 1-.449.098"/>
        <path fill="#565676" d="M14.64 14.729c.08-.009.346-.133.422-.169.102-.053.324-.164.333-.276-.08-.07-.04-.035-.146-.057a.5.5 0 0 1-.138-.058 1.07 1.07 0 0 1-.418.515c-.049.032-.089.032-.053.045"/>
        <path fill="#E5A128" d="M15.138 17.977c-.01.093-.067.036-.205.111.031.125.236.458.378.298.08-.089.12-.533.066-.631-.03.124.045.298-.048.378-.13.106-.152-.072-.192-.156"/>
        <path fill="#FC3B3B" d="M12.231 14.439c.067.044.138.049.187.107a.4.4 0 0 1 .075.186c.014.151-.058.25-.129.338-.03.045-.009 0-.03.053.257-.03.355-.133.315-.413-.031-.222-.178-.307-.418-.271"/>
        <path fill="#938376" d="M17.688 14.698c-.133.018-.689.03-.764-.045l-.436.054c.17.169 1.067.133 1.2-.01"/>
        <path fill="#CE3636" d="m14.457 6.033.027-.085c.053.067.178.045.244.01.17-.09.12-.165.17-.116l.03-.045c-.009-.004-.013-.009-.017-.004l-.027-.005c-.12-.013-.133 0-.253-.089-.116-.089-.134-.146-.254-.017.058.146.094.15.08.35"/>
        <path fill="#FC3B3B" d="M9.537 13.853c-.013.174.374.294.534.356.226.089.404.222.666.098l-.053-.014a5 5 0 0 1-.622-.186c-.156-.054-.471-.178-.525-.28z"/>
        <path fill="#222A35" d="M12.102 6.062c.022.062.044.044.03.138l-.061.453c.133-.062.098-.209.129-.324l.013-.036.004-.013c.045.138.058.222.125.23.053-.04.08-.4.089-.488-.13.018-.076-.013-.12.262-.045-.062-.062-.169-.098-.23z"/>
        <path fill="#B77D48" d="M14.702 11.578c.044.044.022-.009.009.035-.027.072-.16.125-.232.143-.088.022-.24.128-.244.128-.022.014-.018-.004-.031.032.129.044.382.035.48-.04a.5.5 0 0 0 .178-.374zm-.565-5.373c.067.155.156.186.165.435l.035-.04.036-.044a.7.7 0 0 1-.036.24h.071l-.008.275c.035-.04.044-.089.062-.137.017-.058.04-.112.044-.174l-.098-.044c0-.098.045-.107.071-.191-.128-.182-.026-.098-.093-.222a.4.4 0 0 0-.142-.156z"/>
        <path fill="#E1AB69" d="m6.902 9.485.04.213.085.023.258.013c.035-.147.093-.302-.218-.298-.12 0-.142 0-.165.049"/>
        <path fill="#FC3B3B" d="m8.992 8.88.07.475c.067-.018.032-.013.09-.169.093-.28.257-.431.28-.48-.067.018-.4.133-.44.173"/>
        <path fill="#AAA097" d="M16.853 15.582c.102.08.306.102.448.102.076-.07.134-.235.16-.369-.102.045-.177.107-.302.156z"/>
        <path fill="#222A35" d="M11.08 6.427c.053-.093.155-.2.2-.302-.098.013-.093 0-.142.076l-.045.066-.053.058.018-.124-.12.013c.013.071.004-.013.018.044.017.09-.067.338-.036.436l.071-.009.022-.16c.107.098.036.204.24.236z"/>
        <path fill="#938376" d="M7.756 11.902c.133-.004.16-.009.173-.146a1 1 0 0 0-.035-.294c-.196-.044-.4-.067-.61-.098.04.045.294.111.374.156.067.04.098.058.116.142a.6.6 0 0 1-.018.24"/>
        <path fill="#F7F2EC" d="M15.688 12.173a.965.965 0 0 0 .525 1.014c-.022-.036-.116-.125-.178-.223-.298-.47-.231-.533-.347-.79"/>
        <path fill="#FFC639" d="M4.676 9.627c0 .129.089.329.186.386.072-.013.325-.146.4-.186-.013-.045-.026-.09-.066-.116-.05.054-.16.165-.271.156-.098-.085-.103-.174-.147-.307-.044-.009-.022-.018-.067.013-.03.018-.026.018-.035.054"/>
        <path fill="#B77D48" d="M7.11 8.862c.076.151.183.2.356.09 0-.099-.089-.285-.12-.445l-.017-.085.008-.088v-.045l-.013.018c-.11.178.111.466-.213.555"/>
        <path fill="#FC3B3B" d="M10.569 15.955v-.009l.004-.146.005-.174c.009-.115.049-.266.022-.289l-.267.294c-.044.146.205.31.236.324"/>
        <path fill="#C19F84" d="M12.836 5.094c-.04.044-.04.058-.05.116.094-.032.014-.032.099-.067a.3.3 0 0 1 .209-.089l.008.209.01.018c.021-.076.057-.156.093-.223.044-.08.097-.133.133-.204l-.16.018.044-.147c-.182.125-.222.209-.342.351-.058.076-.022.054-.044.018M11.68 8.48c.045.165.143.236.298.236l.071-.004c.067 0 .027-.01.058.013l.031-.022c-.044-.031-.022.009.124-.067.138-.071.258-.311.16-.444.01.097-.008.08-.106.23-.09.134-.258.267-.436.205-.102-.035-.124-.084-.178-.133z"/>
        <path fill="#262B35" d="M11.982 6.582q.027.047.076.071l-.071-.528c-.014-.067-.04-.045-.12-.027.035.049.035.031.004.115l-.044.13c-.031.084-.067.16-.09.244.2-.01.014-.09.192-.12z"/>
        <path fill="#938376" d="M17.302 15.688c-.142-.005-.347-.027-.45-.107l-.377.12c.089.031.316.053.422.062.152.018.347.036.405-.08z"/>
        <path fill="#222A35" d="M11.391 6.4c.018-.044.018-.026.031-.044.009.147.009.08-.004.107h-.045c0-.023 0-.036.018-.063m-.04-.24c.022.063.036.027.004.111l-.133.383c.196-.018.018-.098.196-.12l.022.062c.018.053.058.106.098.12l-.071-.569z"/>
        <path fill="#565676" d="M9.724 13.107c.04-.009.009.01.036-.022l.08-.16c.2-.364.32-.253.342-.595a.4.4 0 0 0-.111-.09c.022.12.03.16-.036.258-.044.067-.084.112-.133.192-.04.07-.067.133-.102.213-.031.058-.107.151-.076.204"/>
        <path fill="#938376" d="M15.75 16.692a.4.4 0 0 1 .067-.129c.036-.053.031-.044.098-.084l-.178-.053c-.107-.045-.164-.165-.204.177a.6.6 0 0 0 .222.09z"/>
        <path fill="#444954" d="M5.6 9.675c.062-.013.19-.071.266-.102.134-.054.165-.036.214-.16-.098-.01-.196-.054-.298-.045-.036.098-.147.214-.182.307m-.756-.129c.005.08.067.191.098.253.08-.013.142-.08.191-.124a.45.45 0 0 0-.098-.244.5.5 0 0 0-.186.115z"/>
        <path fill="#F7F2EC" d="M9.645 5.822 9.64 5.79l-.022-.053c-.018-.035-.031-.058-.04-.102-.049-.058-.089-.236-.013-.285.062-.044.266-.057.346-.053l.676-.009c-.311-.018-.605-.075-.925-.03-.164.021-.253.066-.195.244.044.137.111.217.178.32"/>
        <path fill="#222A35" d="m11.817 6.103-.267.03-.022.116c.058-.044 0-.026.08-.049l-.053.511c.231-.2.045-.546.222-.528.031 0-.009.013.022 0l.014-.09z"/>
        <path fill="#444954" d="M5.911 9.214c.053.044.178.067.267.062.03-.062.093-.124.093-.213-.164-.053-.351-.031-.355.151z"/>
        <path fill="#B97E48" d="M6.73 8.863c.057.098.177.173.266.053 0-.053-.035-.133-.049-.204a.8.8 0 0 1-.018-.245c-.142.098.027.33-.2.4z"/>
        <path fill="#FFC639" d="M8.875 9.365c-.044-.142-.058-.382-.106-.445.026.316-.067.294-.174.418l.027.076c.084.018.182-.022.253-.05"/>
        <path fill="#F7F2EC" d="M11.137 7.352a.8.8 0 0 0 .231.018c.031 0 .08 0 .111-.01.09-.017.071-.026.076-.044l-.09-.089c-.04.063-.04.09-.115.112-.182.04-.35-.09-.257-.325h-.21c.045.133.187.249.254.338"/>
        <path fill="#FC3B3B" d="M10.297 14.907v-.165c-.089.036-.244.009-.333-.013-.116-.022-.133-.045-.213-.076-.036-.013-.032-.044-.032 0 .032.09.427.231.578.253m4.16-8.876-.014.036c.125.058.178.053.294-.009.062-.031.151-.12.16-.218-.045-.044 0 .027-.169.116-.071.035-.191.058-.244-.01z"/>
        <path fill="#444954" d="M6.325 9.324c.08.008.142.044.209-.005a.5.5 0 0 0 .115-.173c-.071-.022-.169-.058-.218-.01a2 2 0 0 0-.106.188"/>
        <path fill="#CF3636" d="M14.182 5.906c.044-.022.022.014.089 0 .04-.008.062-.04.089-.057-.036-.094-.05-.187-.147-.223-.062.036-.124.165-.066.245z"/>
        <path fill="#B77D48" d="M10.506 5.764c.018.03.018 0-.009.035l-.035.036c.058.022.169.062.218.066-.018-.129-.112-.164-.147-.257l.2-.054c-.156-.022-.249 0-.391.022.089.09.142.067.164.152"/>
        <path fill="#E1AB69" d="M14.235 11.884c.004 0 .155-.106.244-.133.072-.013.205-.067.232-.133.013-.045.03.004-.01-.045-.088.027-.253.045-.31.093-.032.032-.045.067-.08.112-.032.04-.063.062-.076.106"/>
        <path fill="#F7F2EC" d="M12.75 4.751c.054-.013.018.005.09-.075.07-.085.377-.364.466-.378.089-.013.178.045.231.107l.022.013c-.057-.106-.115-.16-.177-.178-.205-.07-.436.298-.631.511"/>
        <path fill="#F9F7F5" d="M12.506 7.28c.005.035 0 .013.014.026.102-.036.15-.044.222-.093l.089-.063c-.17 0-.191-.013-.258-.133z"/>
        <path fill="#444954" d="m5.498 9.529.009-.005s.106-.12.102-.195a.6.6 0 0 0-.21-.05c.01.059.068.2.099.25"/>
        <path fill="#FC3B3B" d="M14.182 5.908c.027.053.049.102.129.111.053-.062.058-.076.053-.169-.03.018-.053.045-.089.053-.07.018-.053-.017-.088 0z"/>
        <path fill="#B77D48" d="m12.888 5.142.125-.044c.035.07.017.12.088.164l-.008-.209a.3.3 0 0 0-.21.09z"/>
        <path fill="#D3DCE6" d="M12.986 6.728c.053.062.035.045.07.111.023-.044.068-.11.068-.164a.34.34 0 0 0-.138.053"/>
        <path fill="#FDFDFD" d="M12.71 6.956c.032-.045.036-.045 0-.098-.021.004-.044-.009-.044.044 0 .063.018.045.045.054"/>
        <path fill="#F9F7F5" d="M11.142 7.155c.027-.009.04-.013.045-.044 0-.044-.018-.049-.023-.053-.062 0-.053.057-.022.102z"/>
        <path fill="#F43A3A" d="M11.373 6.463h.044c.013-.027.013.04.005-.107-.014.018-.014 0-.032.045-.013.027-.013.044-.017.062"/>
    </g>
    <defs>
        <clipPath id="KATA__a">
            <path fill="#fff" d="M0 0h24v24H0z"/>
        </clipPath>
    </defs>
</svg>
