<svg xmlns="http://www.w3.org/2000/svg" width="24" height="24" fill="none" viewBox="0 0 24 24">
    <g clip-path="url(#LGCY__a)">
        <path fill="#000" d="M24 0H0v24h24z"/>
        <path fill="#fff" d="M11.36 4.01c.11.024.183.115.183.22v15.544a.224.224 0 0 1-.219.224.23.23 0 0 1-.11-.023l-5.942-2.829a.22.22 0 0 1-.11-.288l5.942-12.724a.23.23 0 0 1 .26-.128zM6.18 15.758l4.904-5.26V5.257L6.181 15.752zm4.904-4.594-5.338 5.714 5.338 2.545zm1.554-7.152a.224.224 0 0 0-.182.22v15.543c0 .078.04.15.11.192a.22.22 0 0 0 .219.01l5.941-2.83c.11-.05.16-.183.11-.288L12.895 4.134a.23.23 0 0 0-.26-.128zm5.179 11.746-4.904-5.26V5.257l4.904 10.494zm-4.904-4.594 5.338 5.714-5.338 2.545z"/>
    </g>
    <defs>
        <clipPath id="LGCY__a">
            <path fill="#fff" d="M0 0h24v24H0z"/>
        </clipPath>
    </defs>
</svg>
