<svg xmlns="http://www.w3.org/2000/svg" width="24" height="24" fill="none" viewBox="0 0 24 24">
    <g clip-path="url(#LINDA__a)">
        <path fill="#E69B88" d="M24 0H0v24h24z"/>
        <path fill="#070202" d="m15.27 9.722-.068-.048c-.024-.01-.034-.034-.02-.059l.025-.038a.1.1 0 0 0 .01-.068l-.068-.388-.015-.34q0-.037.03-.053.08-.067.038-.155l.01-.475a1.44 1.44 0 0 0-.194-.796 4.2 4.2 0 0 1-.228-.882 1 1 0 0 0-.097-.32 1.4 1.4 0 0 1-.146-.422c-.038-.252-.271-.427-.484-.553a.58.58 0 0 0-.35-.165c-.135-.02-.203-.072-.232-.199a.06.06 0 0 0-.015-.033.06.06 0 0 0-.034-.015l-.262-.034a.06.06 0 0 1-.038-.024c-.238-.272-.466-.306-.776-.403a2.37 2.37 0 0 0-1.339.015c-.257.097-.51.174-.65.436a.7.7 0 0 1-.28.267.12.12 0 0 0-.06.082c-.013.068 0 .097-.047.16a2 2 0 0 1-.413.422q-.327.175-.436.437c-.146.334-.296.66-.456.989a3 3 0 0 1-.233.412c-.325.053-.184.408-.126.597a.14.14 0 0 1-.034.135.4.4 0 0 0-.092.122c-.039.14-.01.15.078.034.165-.223.14-.52.184-.786a.5.5 0 0 0 .218-.213l.005-.002.005.002.014.01c.015 0 .015.009.01.024-.128.23-.188.493-.174.756q-.024.208-.073.412a.7.7 0 0 0-.015.282c.025.12.034.242.025.358a.06.06 0 0 0 .024.049q.013.014.034.014l.014.034-.31.63c-.092-.101-.034-.208-.039-.324 0-.044-.02-.049-.048-.02-.059.049-.063.15-.049.219a.74.74 0 0 1-.233.713 14 14 0 0 0-.654.62q-.015.015-.03 0l-.019-.02v-.004c.218-.243.437-.46.655-.664a.46.46 0 0 0 .136-.316c0-.038-.01-.048-.034-.014l-.524.645c0 .01-.01.01-.02 0l-.019-.01v-.01l.243-.358a.1.1 0 0 0 .01-.073l-.04-.209a.07.07 0 0 0-.048-.048c-.063-.024-.082-.068-.068-.146.097-.426.194-.737.277-.921.048-.131.13-.247.232-.359.126-.136.156-.305.248-.456q.023-.036.01-.072c-.04-.127-.102-.272-.102-.398 0-.209.077-.383.227-.514.117-.107.238-.165.31-.315q.116-.233.18-.461a.2.2 0 0 1 .044-.078l.053-.072c.058-.17.034-.18-.073-.04q-.282.367-.538.753l-.02-.02a.04.04 0 0 1-.014-.024V6.91q.271-.475.446-.636c.263-.233.492-.503.68-.8.16-.068.378-.203.339-.388.533-.548 1.042-.936 1.813-1.066a1.35 1.35 0 0 1 .602.033c.358.097.717.165.999.422.13.122.266.034.392.122.063.038.088.097.063.16-.004.024 0 .043.03.048.174.068.378.097.513.223.204.204.403.374.476.674q.05.19.12.374c.238.596.437 1.231.583 1.9.068.32.014.52-.073.81a.86.86 0 0 0 .063.602c.01.02.02.038.039.048a.56.56 0 0 1 .223.272q.016.032.048.048a.48.48 0 0 1 .267.403q.01.116-.053.014a3 3 0 0 1-.165-.266.04.04 0 0 0-.049 0 .04.04 0 0 0-.01.019l-.033.13v.01h-.034q-.022.002-.014-.019a.4.4 0 0 0 .014-.155.06.06 0 0 0-.034-.049l-.257-.126z"/>
        <path fill="#311915" d="M14.063 5.124c.029.097.116.204.261.31a1 1 0 0 1 .146.204v.01l-.02.01h-.024l-.155-.165q-.05-.05-.048.024a.3.3 0 0 0 .039.107c.082.13.029.34-.04.46q-.093.175.044.35c.097.126.204.242.316.363a.6.6 0 0 1 .135.219q.066.204.16.387.052.103.097-.004c0-.02.02-.049.044-.097q.21.354.194.795-.015-.03-.03-.03a.1.1 0 0 0-.033.02.07.07 0 0 0-.024.039c-.03.145-.03.3.01.451 0 .01.01.02.014.024a.05.05 0 0 0 .03.005q.029.001.023-.034.047.093-.038.155a.06.06 0 0 0-.025.049l.01.349c-.177.278-.25.61-.208.936 0 .024-.006.048-.025.058-.039.024-.048.014-.048-.03.014-.3-.34-.169-.49-.11a.12.12 0 0 0-.063.058.12.12 0 0 0-.01.082l.058.184c0 .01.01.02.015.024q.016.012.034.01l.14-.005a.05.05 0 0 1 .029.005.05.05 0 0 1 .02.02l.053.097q.044.072.092.029c.015.155.097.34.253.402.145.063.3.097.33.281l.048.238a.07.07 0 0 1-.015.063c-.072.097-.16.097-.257.024l-.228-.135a.08.08 0 0 1-.038-.049.3.3 0 0 0-.073-.16c-.044-.039-.063-.034-.073.024a.26.26 0 0 0 .078.228c.02.015.029.034.038.049l.18.441c.02.053.024.097.02.136q-.008.101-.059.014a3 3 0 0 0-.184-.557.2.2 0 0 0-.053-.073c-.136-.102-.122-.243-.219-.369a1.1 1.1 0 0 0-.47-.46l-.126-.049a.024.024 0 0 0-.03 0l-.004.015v.014c.077.17.208.272.3.422q.111.167-.048.034c-.116-.097-.194-.121-.223-.048a.32.32 0 0 1-.247.315c-.025.01-.044 0-.054-.02a2.3 2.3 0 0 1-.271-.572.08.08 0 0 0-.063-.058c-.015 0-.015.015-.01.049l-.024-.228a.12.12 0 0 0 .077-.068 1.1 1.1 0 0 1 .194-.34 2 2 0 0 0 .136-.17c.112-.155.223-.295.286-.47a10 10 0 0 1 .194-.519 1.55 1.55 0 0 0 .107-.727 6.4 6.4 0 0 0-.204-1.26.5.5 0 0 1-.01-.166q.001-.042-.034-.048c-.038-.01-.053 0-.053.039l-.072-.34c.111.039.164.126.145.257 0 .044.01.049.039.01a.12.12 0 0 0 .024-.097c-.029-.175-.049-.364-.146-.514a4 4 0 0 1-.276-.519c-.078-.184-.276-.281-.446-.369a.06.06 0 0 1-.034-.058c0-.014 0-.029-.01-.048q-.019-.03-.053-.015a.7.7 0 0 1-.296.054q-.079-.096-.233.048c-.111.097-.189.233-.29.34-.16.155-.31.33-.451.533q-.016.021-.04 0a.06.06 0 0 1-.01-.04q0-.021.016-.038.036-.045.014-.082a.03.03 0 0 0-.022-.015.03.03 0 0 0-.026.005l-.01.01-.136.194a.14.14 0 0 1-.048.039l-.485.228c-.146.063-.155.048-.034-.059l.194-.164a.06.06 0 0 1 .063-.01q.13.043.174-.054.089-.193.214-.344a.27.27 0 0 0 .068-.257.08.08 0 0 1 .01-.058l.048-.058c.034-.049.024-.063-.039-.039-.078.03-.16.063-.242.107a.1.1 0 0 0-.049.048l-.097.243c-.14.15-.242.29-.315.426-.024.059-.146.18-.369.374-.063.048-.058.126-.145.16a1 1 0 0 0-.181.084.04.04 0 0 0-.008.018v.024q-.029-.088-.063-.097l.17-.053a.3.3 0 0 0 .126-.088c.17-.218.339-.436.494-.654a.2.2 0 0 1 .058-.049c.063-.034.097-.082.093-.155q-.007-.104-.078-.024-.205.231-.373.5a.4.4 0 0 1-.16.15q-.06.028-.025-.025c.16-.252.335-.475.52-.66a.054.054 0 0 0 .004-.072.2.2 0 0 0-.044-.01l.049-.053a.2.2 0 0 1 .048-.044l.185-.092a.14.14 0 0 0 .058-.048.5.5 0 0 1 .174-.16c.059-.034.059-.059-.01-.078a.4.4 0 0 0-.179.01c.097-.049.053-.083-.14-.102q-.046-.007-.054-.058c.025-.034.03-.068 0-.097q-.023-.036-.053-.02-.226.102-.466.175c-.189.048-.34.194-.47.32-.155.15-.33.272-.495.417a.16.16 0 0 1-.087.039q-.093.014-.077-.087.23-.175.412-.422c.048-.063.034-.092.048-.16a.12.12 0 0 1 .058-.083.7.7 0 0 0 .282-.271c.14-.257.388-.34.65-.437a2.37 2.37 0 0 1 1.343-.01c.305.097.533.131.77.403.01.015.025.02.04.024l.261.034.034.015.02.034c.024.126.097.18.227.198a.6.6 0 0 1 .35.165"/>
        <path fill="#210C09" d="M11.216 4.888a1 1 0 0 0-.47.13q-.217.13.024.064c.155-.039.306.01.46-.01.059 0 .122-.014.18-.024a.4.4 0 0 1 .18-.01c.068.02.068.049.01.078a.46.46 0 0 0-.175.16.15.15 0 0 1-.059.048l-.179.097a.2.2 0 0 0-.053.039l-.049.053-.887 1.077a.04.04 0 0 0-.01.02c0 .048.034.062.112.043.024.005.048.039.058.097.363 0 .679-.107 1.076-.223a.1.1 0 0 0 .054-.039c.136-.165.29-.33.45-.485.18-.165.32-.364.471-.562q.1-.145.383-.354a.7.7 0 0 0 .291-.054c.03-.01.049 0 .058.02.01.014.01.029.01.048a.06.06 0 0 0 .034.054c.17.087.364.184.446.368.078.184.175.359.277.519.096.15.116.34.145.514a.12.12 0 0 1-.024.097q-.044.057-.034-.01.014-.197-.146-.257a3 3 0 0 0-.194-.557 1.5 1.5 0 0 0-.3-.437.63.63 0 0 0-.451-.194.1.1 0 0 0-.068.02.5.5 0 0 0-.146.12c-.092.146-.184.292-.267.437q-.197.34-.533.572l.514-.703c.005-.01.01-.014.005-.02q0-.014-.015-.014c-.019 0-.034 0-.048.02a4.7 4.7 0 0 1-.572.679 1 1 0 0 0-.126.155.05.05 0 0 0 0 .058.3.3 0 0 0 .13.112.13.13 0 0 1 .005.087q-.234-.086-.3.111-.013.031-.049.025c-.082-.015-.14.01-.165.072l-.13.063-.015.015c-.015 0-.024 0-.024-.015v-.034c0-.019.014-.033.029-.043a.4.4 0 0 0 .145-.155q.03-.051-.029-.044c-.145.015-.3.039-.446.068-.14.034-.281.039-.427.048-.048 0-.048.015-.014.044a.15.15 0 0 0 .092.024c.087 0 .097.02.02.068a.17.17 0 0 1-.112.02c-.03 0-.058 0-.083.014a.6.6 0 0 0-.208.165 5 5 0 0 1-.601.679q-.037.037.014.043.015.003.027-.002a.05.05 0 0 0 .022-.017q.123-.159.262-.267c.17-.13.266-.271.392-.431a.5.5 0 0 1 .117-.102c.111-.049.145-.015.097.092a.2.2 0 0 0 0 .112l-.36.426a2.7 2.7 0 0 0-.082 1.179q.073.596.437.945c.01 0 .005.025-.015.059a.1.1 0 0 0-.024-.025q-.036-.03-.03.015.046.414.112.815.073.4-.174.795a1.5 1.5 0 0 0-.393.194c-.073.048-.116.136-.145.257a.9.9 0 0 0-.204.262c-.015.024 0 .043.039.048l.01.117q-.095.044-.195-.034c-.024-.015-.048-.015-.063 0l-.271.223-.013.014-.006.018.001.018.008.018.17.242c.01.005.005.01 0 .015l-.02.014c-.014.005-.019 0-.029-.005l-.189-.218a.14.14 0 0 0-.073-.049l-.072-.019c-.04-.01-.04-.024-.01-.048l.097-.078.31-.286a.05.05 0 0 0 .014-.053.24.24 0 0 0-.052-.083q.03-.35-.209-.46l-.247-.132a.08.08 0 0 1-.044-.048l-.111-.281c0 .029-.01.024-.02-.005q-.008-.02-.024-.005c-.092.097-.126.218-.107.373l-.014.059q-.037-.014-.049.024a.64.64 0 0 0 .049.538c0 .015 0 .02-.01.03l-.02.009q-.016.006-.024-.01l-.097-.232c-.024-.049-.034-.044-.038.004a2 2 0 0 0 0 .34c0 .01 0 .014-.015.02H8.18c-.014 0-.024 0-.024-.015a1.32 1.32 0 0 1 .073-.815.44.44 0 0 0 0-.325.03.03 0 0 0-.013-.018.03.03 0 0 0-.021-.006 8 8 0 0 0-.727.533q-.125.103-.025-.02c.17-.208.388-.407.665-.6q.065-.046.072-.141.036-.239.122-.485c.005-.005 0-.014-.01-.014l-.02-.01c-.01 0-.014 0-.019.01a2.1 2.1 0 0 1-.305.552q-.036.044-.034-.014a.47.47 0 0 1 .184-.364q.03-.028 0-.048a.1.1 0 0 0-.048-.015q-.081.001-.015-.034c.165-.102.238-.242.209-.412.024-.039.019-.068.048-.107a4 4 0 0 0 .369-.669q.049-.115.15-.078l-.087.194a.22.22 0 0 0-.005.146l.01.034q.02.058.063.01l.305-.413a.68.68 0 0 0 .271-.494.4.4 0 0 1 .131-.267.03.03 0 0 0 .007-.02.03.03 0 0 0-.007-.019l-.004-.01a.25.25 0 0 1-.088-.155c0-.024-.014-.024-.024 0a.7.7 0 0 0-.13.33c-.05.131-.234.223-.35.325-.049.01-.097.048-.13.111a3 3 0 0 1-.234.35c0-.01 0-.02-.014-.034q.052-.29.039-.383a1.2 1.2 0 0 1 .024-.592.2.2 0 0 0 .01-.082c-.01-.049-.034-.073-.068-.059a1.4 1.4 0 0 1 .174-.756c.005-.015 0-.02-.005-.024l-.019-.01-.005-.001H8.67a.5.5 0 0 1-.218.214l-.01-.097q.13-.204.238-.417c.155-.33.306-.654.451-.989q.11-.262.436-.436-.016.102.078.087c.034 0 .063-.02.087-.039.165-.145.34-.267.495-.417.136-.13.281-.267.47-.32q.24-.073.466-.175.03-.014.053.015c.03.034.024.068 0 .102"/>
        <path fill="#805237" d="M11.216 4.886c0 .034.024.048.053.058.194.02.242.048.146.097l-.185.029c-.155.02-.305-.03-.46.01-.16.043-.165.024-.025-.063q.196-.117.47-.131m1.576.199a2.5 2.5 0 0 0-.388.354c-.146.198-.286.397-.466.562-.165.155-.315.32-.45.485a.1.1 0 0 1-.054.039c-.402.116-.713.223-1.077.223q.004-.012.005-.024.001-.015.025-.03l.16-.072c.096-.034.087-.107.145-.16.223-.194.35-.315.373-.374q.103-.197.316-.431 0 .37.087.363c-.03.063-.088.083-.175.049a.06.06 0 0 0-.063.014l-.194.165q-.18.153.039.059l.475-.228a.13.13 0 0 0 .049-.044l.145-.194.011-.007a.03.03 0 0 1 .03.001q.008.004.012.01.022.036-.014.083a.06.06 0 0 0 0 .078q.017.021.034 0c.14-.204.29-.378.446-.534.107-.106.184-.242.291-.339q.159-.144.238-.048"/>
        <path fill="#6B3325" d="M9.747 5.084c.038.185-.185.32-.34.388.073-.145.19-.276.34-.388m4.315.04c.214.125.447.3.485.552.024.146.073.291.146.422a1 1 0 0 1 .097.32c.048.305.121.596.228.883l-.049.097c-.024.072-.058.072-.092.004a2.6 2.6 0 0 1-.16-.388.6.6 0 0 0-.136-.218 8 8 0 0 1-.32-.363q-.131-.175-.039-.35c.068-.126.122-.33.04-.46a.3.3 0 0 1-.04-.107c0-.048.01-.058.049-.024l.155.16c.01.01.015.01.024 0l.015-.005v-.01a.8.8 0 0 0-.14-.203c-.146-.107-.233-.214-.263-.31"/>
        <path fill="#311915" d="m10.896 5.434-.024-.073a.04.04 0 0 0-.053 0 .5.5 0 0 1-.369.117c.224-.243.485-.34.8-.277.083.015.088.049.015.088a1.1 1.1 0 0 1-.369.145"/>
        <path fill="#E4AE80" d="m13.844 6.384.072.34.15 1.236c.045.237.037.48-.023.713q-.133.364-.243.727a1.08 1.08 0 0 1-.402.53q-.117.05-.16-.015l.363-.432.005-.01V9.46l-.02-.015h-.019q-.368.346-.635.776a.07.07 0 0 0 0 .073c0-.02 0-.015-.014.02q-.327.275-.456.348c-.388.223-.776.209-1.15-.038a1.3 1.3 0 0 1-.552-.713 1.1 1.1 0 0 0-.209-.403.58.58 0 0 1-.082-.363c.014-.185.145-.272.097-.48-.02-.088-.117-.093-.165-.146q-.072-.081.01-.17a.1.1 0 0 0 .024-.068c0-.048-.02-.063 0-.116a.9.9 0 0 0 .048-.276c0-.03-.01-.04-.039-.044l-.213-.005c-.063-.005-.126-.048-.194-.14l.36-.427c.033.01.062.014.096.01.029.043.058.082.111.087q.348.032.69.005c.023 0 .033-.015.038-.034l.01-.088c0-.029.019-.034.048-.019a.4.4 0 0 1 .107.097q.037.036-.015.044l-.058.004q-.03.008-.01.03.022.03.059.01a.2.2 0 0 1 .092-.04q.052-.008.024-.053a.66.66 0 0 0-.451-.3c0-.005-.005-.02 0-.035l.13-.063a.28.28 0 0 0 .17.083c.025 0 .044-.005.059-.024a.1.1 0 0 1 .082-.049c.02-.01.034 0 .049.01a.4.4 0 0 1 .106.165c0 .02.015.034.03.039.019.014.038.004.063-.015a.06.06 0 0 0 .014-.044.3.3 0 0 0-.053-.145.1.1 0 0 1-.02-.068l.015-.16a.13.13 0 0 0-.005-.087l.112-.286a1.8 1.8 0 0 0 .533-.568 7 7 0 0 1 .271-.441q.061-.076.146-.121a.13.13 0 0 1 .063-.02c.18 0 .33.068.451.194q.19.19.3.437c.083.184.146.373.195.557z"/>
        <path fill="#6B3325" d="M11.468 6.02c-.063 0-.087-.116-.087-.364l.097-.237a.1.1 0 0 1 .048-.049q.125-.063.243-.107.093-.036.034.04l-.044.057a.07.07 0 0 0-.015.058.27.27 0 0 1-.063.258 1.5 1.5 0 0 0-.218.34z"/>
        <path fill="#D79D76" d="m10.895 5.434-.582.276-.18-.024a.7.7 0 0 1 .316-.208q.217.014.369-.117l.014-.01a.04.04 0 0 1 .03.005l.012.01q.005.007.007.015s0 .02.014.053"/>
        <path fill="#805237" d="M11.086 5.512a.2.2 0 0 1 .048.01l.005.038q0 .017-.014.034a4 4 0 0 0-.52.66q-.035.052.025.024a.4.4 0 0 0 .16-.146c.111-.184.238-.349.373-.504.049-.048.073-.044.078.024a.16.16 0 0 1-.097.156.2.2 0 0 0-.053.048l-.495.655a.3.3 0 0 1-.126.087c-.058.02-.112.039-.17.048-.078.025-.112.01-.112-.038 0-.01 0-.015.01-.02zm.805.834-.112.286a.3.3 0 0 1-.13-.112.1.1 0 0 1-.01-.029q0-.015.01-.029a1 1 0 0 1 .125-.155c.214-.213.408-.436.577-.679a.04.04 0 0 1 .044-.02c.01 0 .014 0 .014.015v.02z"/>
        <path fill="#311915" d="m10.134 5.687.184.024a10 10 0 0 0-.577.742.7.7 0 0 1-.191.162.1.1 0 0 1-.037.003c-.179-.03-.232.082-.334.203a4 4 0 0 0-.393.558l-.014-.01q-.024-.014-.01-.034.225-.434.45-.732a.6.6 0 0 1 .277-.208.1.1 0 0 0 .063-.049.3.3 0 0 1 .131-.112c.18-.077.33-.198.388-.387z"/>
        <path fill="#805237" d="M9.843 6.727a.18.18 0 0 1-.116.073q-.123.022-.049-.073l.131-.16a.1.1 0 0 1 .053-.038c.083-.03.165-.04.219-.112.15-.184.218-.388.412-.543l.01-.01c.014 0 .029 0 .033.01v.02a3 3 0 0 0-.373.61.1.1 0 0 1-.049.049c-.091.058-.203.092-.271.174"/>
        <path fill="#070202" d="M13.315 6.846q-.143-.1-.397.01a1 1 0 0 0-.117-.01.1.1 0 0 1-.063-.02.06.06 0 0 1-.019-.038.05.05 0 0 1 .024-.053c.398-.238.859-.063 1.086.29.034.059.049.098.049.127-.005.16-.03.16-.063.005-.049-.204-.213-.31-.5-.31"/>
        <path fill="#805237" d="m11.784 6.713-.015.165q-.001.038.02.068a.3.3 0 0 1 .048.146.05.05 0 0 1-.01.044q-.034.03-.063.019a.06.06 0 0 1-.029-.044.33.33 0 0 0-.107-.165.05.05 0 0 0-.048-.014.14.14 0 0 0-.082.048.06.06 0 0 1-.059.03.28.28 0 0 1-.17-.083q.039-.095.17-.073c.02.005.034 0 .044-.024.048-.131.145-.17.3-.112z"/>
        <path fill="#210C09" d="M13.223 10.45c.01-.107-.01-.194-.058-.243a.56.56 0 0 0 .233-.276c.199-.146.335-.325.398-.534l.242-.727c.058-.155.068-.388.03-.708l-.151-1.237q-.002-.052.049-.038c.029.004.038.019.038.048a.5.5 0 0 0 .01.165q.16.591.203 1.26c.02.253-.004.495-.106.728-.068.17-.136.34-.194.519-.063.174-.175.315-.286.47a2 2 0 0 1-.136.17 1 1 0 0 0-.194.34.12.12 0 0 1-.078.067z"/>
        <path fill="#6B3325" d="M11.14 6.99v.033a.29.29 0 0 1-.316-.014.08.08 0 0 0-.063-.01c-.145.03-.233.121-.267.281a.2.2 0 0 1-.097-.01.2.2 0 0 1 0-.111q.072-.162-.097-.092a.4.4 0 0 0-.116.102c-.126.16-.223.3-.388.431-.097.073-.184.16-.271.267a.05.05 0 0 1-.044.02q-.051-.008-.015-.044c.209-.194.408-.417.602-.68A.7.7 0 0 1 10.276 7a.14.14 0 0 1 .083-.015c.043.005.077 0 .111-.019.078-.048.068-.068-.02-.068a.14.14 0 0 1-.091-.024q-.052-.043.014-.049c.146 0 .291-.01.427-.043q.219-.046.446-.068c.039 0 .048.01.03.048a.45.45 0 0 1-.146.15.1.1 0 0 0-.02.02l-.01.024v.034q.001.022.025.015z"/>
        <path fill="#805237" d="M13.316 6.846c-.049.02-.068.044-.068.068a.38.38 0 0 0-.291.01q-.002-.061-.039-.068.253-.11.398-.01"/>
        <path fill="#070202" d="M13.248 6.914c.112.049.218.097.296.194q.116.144.208.296c.146.242-.237.271-.368.223q-.11-.038 0-.068.114-.035.034-.136c-.054-.063-.092-.058-.112.025l-.02.063c-.004.024-.024.038-.048.043-.145.01-.237-.034-.281-.145a.03.03 0 0 0-.02-.015.04.04 0 0 0-.028 0l-.025.015-.01.01-.004.014q0 .007.002.013l.008.011.053.063q.042.05-.02.034a.27.27 0 0 1-.145-.068l-.009-.016v-.018a.04.04 0 0 1 .014-.029 1 1 0 0 1 .29-.189c.112-.048.229.01.34 0 .121-.005.131-.048.034-.116a.66.66 0 0 0-.494-.112c-.02 0-.03-.005-.03-.029 0-.014.02-.034.049-.053a.38.38 0 0 1 .286-.01"/>
        <path fill="#070202" d="M11.954 8.582a.8.8 0 0 0-.388-.111.06.06 0 0 1-.039-.024s-.004-.006-.004-.01v-.01c0-.014.014-.024.028-.024.126-.02.476-.024.456.18q-.001.035.034.029c.228-.044.388-.209.63-.175a.05.05 0 0 0 .04-.01.05.05 0 0 0 .019-.029q.008-.071-.063-.136-.072-.064-.122.025a.05.05 0 0 1-.024.024q-.058.019-.058-.034a.4.4 0 0 0-.053-.194c-.107-.19-.034-.592.014-.766q.057-.187.282-.359c.014-.015.033-.01.048.005l.01.02v.014c-.287.213-.369.47-.243.785.01.034 0 .054-.039.063l-.02.01a.05.05 0 0 0-.016.027.05.05 0 0 0 .002.031.55.55 0 0 0 .194.291.36.36 0 0 1 .136.146q.024.043.01.087a.12.12 0 0 1-.053.063c-.136.073-.287.087-.408.17a.42.42 0 0 1-.325.048.06.06 0 0 1-.032-.016.06.06 0 0 1-.016-.032v-.02c.034-.024.029-.048 0-.068m-.815-1.556a.68.68 0 0 1 .451.3q.028.046-.024.054a.2.2 0 0 0-.097.039q-.031.02-.053-.01-.021-.022.01-.03l.057-.004c.03-.005.04-.02.015-.048a.4.4 0 0 0-.111-.097c-.025-.01-.04-.005-.049.024l-.005.087c0 .02-.014.034-.039.034q-.345.028-.688-.005c-.054-.005-.083-.048-.112-.087.034-.16.126-.252.267-.281a.08.08 0 0 1 .063.01.29.29 0 0 0 .315.014"/>
        <path fill="#6B3325" d="M9.804 7.108a.1.1 0 0 1 .073-.034c.039 0 .049.02.02.048l-.194.194c-.034.034-.049.03-.034-.014.024-.068.087-.136.135-.194"/>
        <path fill="#805237" d="M8.539 7.137h-.005a.03.03 0 0 0-.039 0l-.232.29a.024.024 0 0 0 0 .04h.004q.024.015.04 0l.237-.291a.024.024 0 0 0-.005-.04"/>
        <path fill="#070202" d="m12.714 7.209-.121.276-.01.01h-.02a.02.02 0 0 1-.01-.01v-.014l.078-.262q.013-.03.049-.03h.02q.021.008.014.03"/>
        <path fill="#D79D76" d="M10.896 7.287c-.01-.029-.005-.048.024-.072.02-.015.044-.01.063.01l.01.02v.023l-.009.023-.02.016a.06.06 0 0 1-.048 0 .03.03 0 0 1-.02-.02"/>
        <path fill="#070202" d="M11.953 7.614c-.04.165-.049.306-.025.31s.073-.126.107-.29c.039-.17.048-.306.02-.31-.025-.01-.073.125-.107.29z"/>
        <path fill="#6B3325" d="m15.211 8.095-.01.475c0 .024 0 .034-.024.034l-.029-.005a.04.04 0 0 1-.014-.024 1 1 0 0 1-.01-.451q.002-.024.024-.04.015-.014.034-.019.015 0 .03.03m-6.682.053c.034-.015.058.01.068.058 0 .024 0 .049-.01.083a1.16 1.16 0 0 0-.024.591c.01.063 0 .194-.039.388a.05.05 0 0 1-.034-.015.06.06 0 0 1-.024-.053q.014-.175-.024-.359a.7.7 0 0 1 .014-.28q.052-.207.073-.413m.563.999c-.068-.049-.16-.044-.282.029q-.1-.037-.15.077a4 4 0 0 1-.368.67c-.03.039-.025.068-.049.106.015-.053.005-.087-.014-.097l.31-.635a3 3 0 0 0 .233-.349q.057-.096.13-.112.131.066.325-.116c.112-.097.122-.17.025-.208a.76.76 0 0 1 .13-.335q.016-.031.025.005a.28.28 0 0 0 .087.155.03.03 0 0 1 .01.024.03.03 0 0 1-.005.024.42.42 0 0 0-.13.267.66.66 0 0 1-.272.495z"/>
        <path fill="#070202" d="M11.394 8.27h.005l.005.004.005.01v.024l-.02.034a.4.4 0 0 1-.097.073l-.063.039a.4.4 0 0 1-.111.048h-.044l-.02-.014-.004-.01v-.01l.344-.194z"/>
        <path fill="#6B3325" d="M9.678 8.993c-.038-.02-.072 0-.087.049a.4.4 0 0 1-.068.136q-.087-.001-.116.077a.8.8 0 0 1-.315.437c.053-.117.048-.185-.015-.214q.082-.125.184-.242a.8.8 0 0 0 .16-.243c.064-.16.122-.315.175-.475.049-.145.078-.145.097.01.01.116.01.271-.015.465"/>
        <path fill="#E69B88" d="M7.953 9.251q-.1.052-.063.16-.239.242-.34.563-.002.036-.034.014c-.01 0-.01-.01-.014-.024q.002-.131.053-.276.108-.284.194-.572c.083-.287.262-.451.485-.621q.073-.049.058.034c-.063.263-.178.51-.34.727z"/>
        <path fill="#070202" d="M7.976 8.946c.02-.014.04-.01.049.015q.022.03-.015.058a.04.04 0 0 1-.048.01q-.051-.031.014-.083m4.384.67c-.199.019-.388.048-.582-.015-.097-.03-.165 0-.257.01a.26.26 0 0 1-.218-.073l-.437-.427c-.043-.048-.034-.068.03-.068.271 0 .557-.087.82-.034.198.039.411.058.63.049.097 0 .194.014.276.048.15.063.354.218.519.136a.4.4 0 0 1 .15-.039c.014 0 .024.01.024.02v.024q.001.032-.034.034a.97.97 0 0 0-.562.266c-.243.223-.592.291-.912.228l-.011-.005-.008-.01a.03.03 0 0 1-.005-.023v-.015q.002-.021.024-.02c.131.035.461.059.572-.048.03-.029.025-.039-.019-.039"/>
        <path fill="#805237" d="m9.678 8.993-.039.271a.03.03 0 0 0 .002.02.03.03 0 0 0 .047.01.07.07 0 0 0 .029-.04q.009-.029.039-.014.014 0 .014.014l.005.02a.84.84 0 0 1-.136.427 1.04 1.04 0 0 1-.485.388c-.13.053-.193.17-.305.252a.05.05 0 0 1-.03.01.04.04 0 0 1-.028-.02l-.015-.015a.05.05 0 0 1-.01-.04l.009-.018.016-.014c.344-.18.606-.68.727-1.067a.34.34 0 0 0 .073-.131c.014-.049.048-.073.087-.053"/>
        <path fill="#6B3325" d="M8.277 9.102c-.048.058-.073.116-.058.13.015.01.068-.024.116-.082.049-.058.073-.116.059-.13-.015-.01-.068.023-.117.082"/>
        <path fill="#805237" d="m9.092 9.15-.3.412q-.044.05-.064-.01l-.01-.034a.2.2 0 0 1 .005-.145l.088-.194c.121-.073.213-.083.286-.03z"/>
        <path fill="#E9CCAE" d="M12.453 9.48c-.325.115-1 .014-1.28-.268q-.037-.034.014-.048c.16-.03.32-.03.47 0q.366.052.781.126a.43.43 0 0 1 .199.078c.058.038.048.063-.015.072a.7.7 0 0 0-.17.04"/>
        <path fill="#6B3325" d="m15.148 9.124.068.388c0 .019 0 .043-.01.063l-.024.038c-.014.024-.005.049.02.063l.067.04-.053.164q-.013.043.024.049c.112.033.252.213.35.295q.027.022.063.03.124.028.198.13a.92.92 0 0 1-.548-.242.17.17 0 0 0-.082-.049.2.2 0 0 1-.145-.082q-.016-.03-.04 0l-.014.014c-.01.005-.01.015 0 .02a.6.6 0 0 1 .131.155c-.063.01-.111.058-.155.146l-.131.077q-.038.022-.053-.014l-.03-.063c-.014-.034-.024-.03-.029.004l-.01.131c-.033.03-.062.015-.091-.034l-.054-.092a.05.05 0 0 0-.048-.024l-.146.005a.05.05 0 0 1-.029-.01.05.05 0 0 1-.02-.024l-.048-.184a.12.12 0 0 1 0-.083.14.14 0 0 1 .068-.058c.146-.058.504-.19.485.112 0 .043.015.048.049.029a.06.06 0 0 0 .023-.025.06.06 0 0 0 .006-.034 1.4 1.4 0 0 1 .208-.935"/>
        <path fill="#311915" d="M7.952 9.251a.16.16 0 0 1-.063.16c-.024-.073 0-.126.063-.16"/>
        <path fill="#D79D76" d="M8.238 9.43c.058-.053.092-.106.072-.126-.014-.019-.072.01-.13.059-.059.053-.093.106-.078.126.02.019.078-.01.136-.059"/>
        <path fill="#070202" d="m13.238 9.915-.3.378a.06.06 0 0 1-.006-.073 3.8 3.8 0 0 1 .655-.776l.014.015.005.015v.01l-.368.436z"/>
        <path fill="#E69B88" d="m15.53 9.696.002.005-.001.005q-.031.03-.083.014a.2.2 0 0 1-.092-.063l-.014-.014a.17.17 0 0 1-.049-.097v-.049c0-.01.01-.02.02-.029h.009z"/>
        <path fill="#D79D76" d="M9.078 9.479c.063.03.068.097.015.214-.083.087-.17.096-.272.033l.257-.242z"/>
        <path fill="#070202" d="M10.551 9.508c.088.097.156.228.209.402q.131.437.553.713.56.373 1.15.039a3.4 3.4 0 0 0 .455-.349c.01.024.01.043 0 .048-.126.165-.267.316-.466.403-.17.082-.32.18-.514.213l-.237.034a6 6 0 0 1-1.324-1.13q.03-.05.01-.058l.305.271.024.01a.04.04 0 0 0 .04-.024v-.024l-.21-.548z"/>
        <path fill="#E69B88" d="m7.889 10.049-.209.242a.03.03 0 0 1-.013.01.03.03 0 0 1-.016 0 .03.03 0 0 1-.02-.024l.01-.3v-.015l.2-.316.014-.014a.03.03 0 0 1 .018-.001.03.03 0 0 1 .016.01v.015l.01.374c0 .004 0 .014-.01.019"/>
        <path fill="#6B3325" d="M9.093 9.69q-.05.184-.277.185l-.034-.01a.1.1 0 0 1-.022-.025.1.1 0 0 1-.007-.033c0-.01 0-.019.01-.029a.2.2 0 0 1 .058-.053c.097.068.194.053.267-.034z"/>
        <path fill="#E4AE80" d="M10.377 9.88c.384.439.83.82 1.323 1.13l.68.078a.87.87 0 0 0 .339.364.2.2 0 0 0 .063.014c.174 0 .34.039.485.126a1.2 1.2 0 0 0-.291.84l.014.004h.02q.029 0 .029-.029c.01-.31.107-.717.407-.878.049.015.068.025.049.034-.194.233-.301.48-.32.733q-.02.231.067.019a.7.7 0 0 0 .044-.277c0-.024 0-.043.015-.062q.158-.254.412-.413.147.058.34.063l.009.422c0 .01.005.02.02.02h.019q.014.005.014-.01l.068-.31a.4.4 0 0 0 .18.053q.064.022.048.145c0 .015 0 .024.02.024h.024l.011-.004.008-.01c.034-.097.102-.121.209-.063q.05.05-.04.121l-.566.219a.1.1 0 0 0-.049.01h-.068c-.48.193-.824.314-1.043.353a.4.4 0 0 1-.17.01q-1.441-.292-2.933-.388l-.257.024c-.039-.005-.053-.024-.039-.048a.9.9 0 0 1 .209-.262q.22-.11.412-.262a.3.3 0 0 0 .121-.19c.165-.261.223-.533.175-.794q-.069-.405-.112-.815c0-.03.005-.034.03-.015z"/>
        <path fill="#805237" d="M13.237 9.914c.03.048.083.048.16.014a.58.58 0 0 1-.232.277c0 .116-.02.194-.058.223-.136.121-.18.242-.131.373.048.107.145.209.305.3.039.132.116.195.242.19q.039-.001.068.02c.112.077.262-.068.35-.122a.06.06 0 0 1 .066.002q.01.007.016.018c.01.005.01.014.01.029v.121q.002.03.024.058l.306.388a.4.4 0 0 1-.18-.058q.038-.03-.049-.112c-.029-.029-.053-.029-.077-.01a.9.9 0 0 1-.34-.062c.068-.049.112-.093.117-.136.005-.024 0-.03-.024-.02l-.31.156c.014-.01 0-.02-.054-.034q.052-.022.053-.049c0-.039-.024-.058-.073-.048l-.203-.194a.1.1 0 0 0-.025-.015c-.01 0-.019-.005-.033 0a.75.75 0 0 1-.335-.024 3 3 0 0 0-.45-.111l-.68-.078.238-.034c.194-.034.34-.13.514-.214.194-.087.34-.242.47-.397.005-.01.005-.029-.005-.049q.014-.059.02-.024z"/>
        <path fill="#6B3325" d="M14.102 9.964q.072-.016.029.049a1.2 1.2 0 0 1-.301.247q-.043.024-.034-.02c.024-.145.126-.232.306-.271z"/>
        <path fill="#070202" d="M15.852 10.385a.29.29 0 0 1 .174.184c.087.277.194.5.117.82 0 .01-.01.014-.02.01q-.014 0-.014-.015c.01-.15-.005-.29-.04-.431q-.012-.059-.048-.005l-.063.087a.11.11 0 0 0-.01.097c.03.092.05.18.044.271l-.005.005h-.019c-.01.005-.015 0-.015-.005l-.038-.208a.04.04 0 0 0-.007-.02.04.04 0 0 0-.018-.014l-.023-.001-.02.01-.17.136q-.02.014-.034-.01l-.01-.014v-.014a.5.5 0 0 0 .141-.102.105.105 0 0 0-.034-.165l-.271-.13a.04.04 0 0 0-.023-.005.04.04 0 0 0-.021.009q-.074.06-.024.136c.097.155.189.32.266.5.078.164.252.184.388.096a.083.083 0 0 1 .112.015c.087.111.18.223.3.31q.343.249.52.519l.523.82c.097.155.14.397.262.518.242.238.407.5.51.776.15.422-.52.485-.515.815.01.223.01.45.01.693 0 .083-.068.18-.213.291a4.6 4.6 0 0 1-1.135.888.6.6 0 0 1-.18.043c-.063.01-.097.049-.097.107l.058 1.174c.01.194 0 .412-.043.654l-.136.761h-.267q.044-.209.059-.426a1.2 1.2 0 0 1 .077-.369q.13-.384.146-.834c.004-.31.019-.61.043-.912 0-.072.024-.145.059-.217a.1.1 0 0 1 .02-.023.1.1 0 0 1 .028-.012 1.8 1.8 0 0 0 .63-.305c.194-.146.863-.679.858-.912-.004-.237 0-.465.01-.693a.27.27 0 0 1 .107-.199c.15-.112.451-.32.354-.533a4 4 0 0 0-.31-.553.04.04 0 0 0-.02-.004.04.04 0 0 0-.02.009.03.03 0 0 0-.009.019l-.092.436q-.017.074-.034 0c-.058-.193.116-.358.03-.581a2.8 2.8 0 0 0-.297-.568 4 4 0 0 1-.29-.456 2.3 2.3 0 0 0-.612-.78c-.12-.088-.242-.175-.349-.272a.14.14 0 0 0-.077-.034c-.223-.034-.403-.01-.485-.276-.04-.122-.063-.117-.083.005 0 .014 0 .024.01.034a.13.13 0 0 1 .015.116.05.05 0 0 1-.04.034q-.041.015-.048-.03a.1.1 0 0 0-.014-.062q-.029-.03-.063-.01l-.32.194.029-.126c0-.034-.005-.049-.04-.058a.2.2 0 0 1-.067-.04q-.132-.115.034-.057h.097q.153.109.262-.03a.07.07 0 0 0 .014-.062 4 4 0 0 1-.048-.243c-.03-.184-.184-.213-.33-.276-.16-.063-.237-.243-.252-.403l.01-.13c.005-.035.014-.04.029 0l.029.057c.01.025.029.03.048.015l.136-.082c.034.097.117.17.243.232q.028.013.033.049l-.004.034-.012.013a.04.04 0 0 1-.017.006.04.04 0 0 1-.034-.01l-.17-.174a.06.06 0 0 0-.058-.015.06.06 0 0 0-.049.04.2.2 0 0 0 .044.227q.032.035.078.034.1 0 .193.058c.02.015.044.01.059-.014l.15-.228a.086.086 0 0 0-.015-.117.8.8 0 0 0-.16-.126c-.063-.039-.082-.097-.126-.15a.5.5 0 0 0-.13-.155c-.01-.005-.01-.015 0-.02l.014-.019q.022-.022.044 0a.2.2 0 0 0 .14.092c.03 0 .058.02.083.039q.235.218.547.247"/>
        <path fill="#D79D76" d="M9.3 10.518c.17-.141.272-.291.228-.345-.048-.048-.218.02-.388.155-.17.136-.271.291-.228.34.049.058.219-.015.388-.15"/>
        <path fill="#6B3325" d="M13.165 10.206c.049.048.068.135.058.242l.025.238.034.417c-.16-.097-.262-.194-.306-.3-.048-.132-.005-.253.131-.374q.058-.05.058-.223"/>
        <path fill="#E69B88" d="m15.823 10.977-.267-.146a.1.1 0 0 1-.022-.02.07.07 0 0 1-.002-.081l.126-.194a.07.07 0 0 1 .092-.03l.024.02.19.204q.012.015.017.034a.1.1 0 0 1-.003.038l-.049.131a.07.07 0 0 1-.048.049.08.08 0 0 1-.058-.005"/>
        <path fill="#6B3325" d="M14.024 10.58q-.03.1.063.15.13.08.18.131.001.16.17.223a.02.02 0 0 0 .017-.002.02.02 0 0 0 .011-.013v-.024c.01-.014.024-.014.03 0 .096.126.082.262.218.364.019.02.039.044.048.073.073.15.126.31.17.475q-.096-.022-.126.107l-.005.01a.024.024 0 0 1-.034 0c-.039-.05-.073-.054-.111-.015q-.016-.037-.01-.044.088-.071.039-.121.037-.074-.02-.097a1.1 1.1 0 0 1-.523-.417.1.1 0 0 1-.015-.083q.016-.043.053-.014l.083.063q.021.015.048.02c.136.024.204.106.2.256q-.002.03.033.03h.014l.02-.007.014-.013a.05.05 0 0 0 .01-.029c.01-.175-.097-.271-.266-.33a.96.96 0 0 1-.437-.31q.043-.101.223.053c.097.087.117.078.044-.034-.097-.145-.223-.252-.3-.422v-.024l.006-.006.009-.003h.01l.008.004z"/>
        <path fill="#D79D76" d="M14.024 10.58c.194.097.354.252.47.46-.005-.01-.02-.01-.034.005l-.194-.184a.8.8 0 0 0-.18-.131q-.093-.05-.062-.146z"/>
        <path fill="#070202" d="M13.892 10.961a.97.97 0 0 0 .441.31c.175.059.277.156.272.33a.05.05 0 0 1-.015.03.05.05 0 0 1-.034.014h-.014c-.024.005-.034 0-.034-.024.005-.146-.058-.233-.204-.257a.1.1 0 0 1-.043-.02l-.083-.063c-.024-.02-.044-.014-.049.015a.1.1 0 0 0-.004.042.1.1 0 0 0 .014.04c.117.184.291.32.524.417q.06.024.02.097-.159-.088-.21.063l-.007.01-.011.005h-.025c-.014 0-.024-.01-.02-.025q.016-.123-.048-.145l-.305-.388a.1.1 0 0 1-.02-.053v-.122a.06.06 0 0 0-.034-.048.06.06 0 0 0-.058 0c-.092.053-.242.194-.354.121a.1.1 0 0 0-.063-.02c-.126 0-.208-.057-.242-.188l-.039-.417q-.006-.058.01-.049a.08.08 0 0 1 .063.049c.063.208.155.397.271.582.01.019.03.024.049.014.16-.048.242-.15.252-.32"/>
        <path fill="#210C09" d="M15.764 10.827c.024.03.049.049.063.044.01-.01 0-.039-.029-.068-.024-.034-.048-.049-.058-.049-.01.01 0 .044.024.073"/>
        <path fill="#070202" d="m14.267 10.86.193.185c.005.01.01.019.005.024a.02.02 0 0 1-.01.014l-.009.003-.01-.002q-.168-.065-.17-.224"/>
        <path fill="#6B3325" d="M8.564 11.127c-.063.136.039.295-.15.363-.02-.155.014-.28.111-.373.005-.01.015-.01.02 0q.02.052.019.01"/>
        <path fill="#D79D76" d="M12.38 11.089a3 3 0 0 1 .456.111.7.7 0 0 0 .33.02h.034l.029.019.194.194-.16.16a.9.9 0 0 0-.48-.126.1.1 0 0 1-.064-.015.84.84 0 0 1-.34-.363"/>
        <path fill="#6B3325" d="M15.104 11.49a.3.3 0 0 1-.102.005c-.107-.034-.121-.02-.034.058.02.014.044.03.073.039s.039.024.034.058l-.03.13a.17.17 0 0 0-.057.108l-.18-.437a.2.2 0 0 0-.039-.053.26.26 0 0 1-.077-.228c.005-.058.029-.063.072-.024a.36.36 0 0 1 .073.155c.005.024.02.038.034.048l.228.146z"/>
        <path fill="#070202" d="m8.563 11.126.112.286c.01.02.02.034.043.048l.248.126.145.47a.37.37 0 0 1-.092.195c-.024.03-.044.024-.058 0a.26.26 0 0 1-.024-.146.8.8 0 0 0-.01-.242.02.02 0 0 0-.01-.01.025.025 0 0 0-.034 0l-.005.02v.548a.27.27 0 0 1-.101-.15.06.06 0 0 0-.063-.04c-.01 0-.02 0-.025.01q-.422.29-.824.252-.058-.001-.03.049l.025.048c.015.02.005.04-.02.054l-.484.281q-.29.263-.475.708a.9.9 0 0 1-.185.272c-.174.193-.257.397-.354.625a.4.4 0 0 1-.145.18c-.165.116-.291.421-.35.586q-.055.167.107.296c.204.165.364.267.383.562q.018.239 0 .476c-.024.33.65.829.912 1.008.262.185.567.325.926.417 0 .68-.048 1.33-.145 1.93h-.165v-.082c.024-.097.068-.18.073-.276.034-.47.063-.95.082-1.45a.06.06 0 0 0-.024-.049.3.3 0 0 0-.097-.048 3.46 3.46 0 0 1-1.406-.946q-.039-.037-.04.015c0 .082.015.15 0 .232-.038.35-.077.694-.106 1.028-.048.432-.16 1.033-.174 1.562 0 .014-.01.024-.04.029a.05.05 0 0 1-.033-.01.05.05 0 0 1-.015-.038c0-.098.01-.194.02-.277q.165-1.257.281-2.565a.13.13 0 0 0-.024-.087c-.078-.117-.155-.219-.146-.369.005-.199.01-.388 0-.572-.005-.373-.679-.373-.485-.854a2.2 2.2 0 0 1 .456-.679c.155-.145.165-.339.277-.514l.412-.669c.174-.281.378-.538.538-.824.097-.165.563-.155.727-.17.16-.014.32-.087.495-.218.02-.015.02-.034.01-.058l-.243-.548.01-.059c.19-.067.087-.227.15-.363"/>
        <path fill="#E4AE80" d="M9.76 11.505c-.116.092-.262-.015-.305-.126-.005-.02 0-.04.024-.049.121-.048.213-.048.286.015a.1.1 0 0 1 .034.082.1.1 0 0 1-.039.078"/>
        <path fill="#070202" d="M13.713 11.564q-.253.16-.412.412a.1.1 0 0 0-.014.063.7.7 0 0 1-.044.277q-.089.212-.068-.02c.02-.252.13-.499.325-.727l.31-.16q.034-.016.024.02c-.004.048-.048.091-.12.135"/>
        <path fill="#070202" d="M13.447 11.53c-.3.16-.397.568-.407.878q0 .03-.029.03h-.02l-.014-.005-.005-.015a1.2 1.2 0 0 1 .291-.824l.165-.165q.073-.007.073.058-.002.023-.054.044"/>
        <path fill="#C00B3A" d="M15.764 19.991H9.707c-.014-.14-.02-.296-.078-.422-.034-.073-.014-.145.049-.203q.035-.037.078-.03c.242.02.45 0 .64-.063a1.5 1.5 0 0 1 .3-.058 8 8 0 0 1 .747-.01c.17 0 .33-.048.485-.106q.095-.043 0-.063c-.073-.02-.13-.063-.204-.068a6.2 6.2 0 0 0-1.236 0c-.141.015-.359.02-.65.005-.378-.015-.776-.388-1.028-.645a.96.96 0 0 1-.291-.626 5 5 0 0 0-.121-.892 1.5 1.5 0 0 0-.228-.553 3.2 3.2 0 0 0-.863-.858c-.078-.053-.146-.121-.15-.213-.05-.427-.069-.728-.059-.893.01-.18.034-.426.063-.742a.94.94 0 0 1 .194-.485q.036-.044 0-.14l.485-.281c.03-.015.034-.034.02-.059l-.025-.048c-.02-.03-.01-.049.034-.044q.392.037.82-.252a.06.06 0 0 1 .073.005l.014.024c.02.063.053.116.107.146l.024.053-.102.077c-.029.025-.029.04.01.049l.073.02q.046.011.077.048l.184.218c.01.01.015.01.03 0l.019-.01c.005 0 .01-.01 0-.019l-.165-.242a.05.05 0 0 1 .01-.064l.266-.218q.03-.03.063 0c.068.049.136.058.194.03.602 0 1.043.024 1.334.072q.481.076.955.136c.325.039.68.15 1.019.146.135 0 .31-.059.44-.112a7 7 0 0 1 .597-.204.1.1 0 0 0 .054-.034.3.3 0 0 0 .058-.121.1.1 0 0 1 .048-.01l.059.102c.014.03.034.03.048.005a.6.6 0 0 1 .315-.165.2.2 0 0 0 .097-.048l.063-.068q.06-.058.112.014l.01.005h.014l.009-.005.005-.01c.025-.087.063-.12.127-.106 0 .039.01.068.02.082.033.059.052.049.057-.014 0-.039 0-.083-.02-.136a.17.17 0 0 1 .06-.107l.319-.198c.024-.015.049-.01.063.01q.021.027.02.062-.002.045.048.03a.05.05 0 0 0 .034-.034.14.14 0 0 0-.015-.116.05.05 0 0 1-.01-.035c.02-.121.05-.126.083-.005.082.267.262.243.485.277a.14.14 0 0 1 .077.034c.112.097.229.184.35.271.261.18.46.504.61.78q.124.232.292.457.16.216.29.562c.098.228-.082.388-.024.587q.021.073.034 0l.098-.436.005-.013.01-.01.014-.003.014.001.014.01c.112.175.214.354.296.538.097.218-.198.427-.354.534a.27.27 0 0 0-.106.203c-.01.228-.015.456-.01.694 0 .232-.66.761-.858.911a1.9 1.9 0 0 1-.63.306.07.07 0 0 0-.05.034.6.6 0 0 0-.058.218c-.024.3-.038.601-.048.912 0 .296-.048.577-.145.834a1.7 1.7 0 0 0-.073.368 3 3 0 0 1-.058.427"/>
        <path fill="#6B3325" d="M10.261 11.481a.32.32 0 0 1-.121.19 2.4 2.4 0 0 1-.412.261c.024-.121.067-.209.14-.257q.146-.108.393-.194"/>
        <path fill="#D79D76" d="M8.664 11.67c0 .082.015.15.044.15.024 0 .048-.063.048-.146s-.014-.145-.043-.145c-.025-.005-.049.063-.049.146z"/>
        <path fill="#6B3325" d="M9.359 11.647c.038.034.082.049.097.04.014-.015-.005-.06-.049-.093-.034-.034-.077-.053-.097-.039-.01.015.01.053.049.092"/>
        <path fill="#D79D76" d="m9.173 12.048-.063.01-.145-.471q.239.11.208.46"/>
        <path fill="#070202" d="m14.184 11.749-.068.31q0 .014-.015.014h-.02q-.02-.008-.019-.024l-.004-.422c.024-.02.048-.02.077.01.058.048.073.092.049.112m-3.24.164a.1.1 0 0 1-.024-.048c-.005-.034.005-.044.039-.03.058.03.082.078.063.146-.01.034-.024.044-.049.02l-.016-.022-.003-.027c0-.014 0-.024-.01-.039"/>
        <path fill="#6B3325" d="m9.112 12.059.063-.01a.24.24 0 0 1 .053.083.05.05 0 0 1 .001.028.05.05 0 0 1-.016.025l-.305.29-.024-.053-.005-.548.005-.019.014-.005h.01l.009.004.007.007.003.008a.7.7 0 0 1 .01.233c0 .059 0 .107.024.146q.022.045.058.01a.4.4 0 0 0 .093-.2"/>
        <path fill="#070202" d="M13.486 11.928a.25.25 0 0 1-.068.107c-.025.024-.03.02-.025-.015a.2.2 0 0 1 .068-.102c.025-.024.03-.019.025.01m1.158.087q-.005.008.01.044l-.068.063a.2.2 0 0 1-.092.053.56.56 0 0 0-.31.165q-.031.036-.053 0l-.054-.107z"/>
        <path fill="#210C09" d="M13.485 12.292c-.024 0-.034-.005-.024-.03.02-.043.048-.062.097-.062.029 0 .039.014.014.039a.2.2 0 0 1-.087.048z"/>
        <path fill="#070202" d="M14.024 12.242a.4.4 0 0 1-.058.121.1.1 0 0 1-.05.034 7 7 0 0 0-.6.204 1.3 1.3 0 0 1-.446.111c-.335.005-.69-.107-1.014-.145a29 29 0 0 1-.955-.136c-.291-.048-.732-.068-1.334-.073l-.01-.116c.136-.015.219-.024.258-.02.999.059 1.973.185 2.933.389.034 0 .088 0 .17-.015.218-.039.563-.16 1.043-.354z"/>
        <path fill="#AF0832" d="m7.467 12.766-.004.001h-.005l-.003-.002-.003-.004-.005-.005a.05.05 0 0 1-.01-.034c0-.014.01-.029.02-.043q.014-.024.034-.044a.3.3 0 0 1 .048-.039l.015-.005a.2.2 0 0 1 .112-.039l.048.005.03.03.002.003v.008l-.003.003z"/>
        <path fill="#070202" d="M15.672 13.019q.167-.054.33-.121l.01.014c0 .01 0 .02-.01.024-.529.267-1.067.383-1.683.52-.015.004-.02 0-.024-.01v-.03q.692-.166 1.377-.397"/>
        <path fill="#AF0832" d="M7.355 12.926q.036.095 0 .146a.85.85 0 0 0-.194.484c-.03.31-.054.558-.063.738-.01.165.01.465.058.892.01.097.073.16.145.213.345.228.63.514.868.859q.162.233.228.552c.068.335.112.63.121.893a.96.96 0 0 0 .291.625c.253.262.645.63 1.028.645.292.015.51.01.65 0a5.5 5.5 0 0 1 1.237-.005c.073.005.126.049.204.068q.095.021 0 .063a1.3 1.3 0 0 1-.486.107c-.242-.01-.494 0-.746.01a1.2 1.2 0 0 0-.3.058 1.7 1.7 0 0 1-.64.063.1.1 0 0 0-.079.029c-.063.063-.082.13-.048.204.058.126.058.281.077.421H8.591a.2.2 0 0 0-.039-.067.08.08 0 0 1-.019-.068q.06-.312.097-.616a.3.3 0 0 0-.015-.146.2.2 0 0 0-.033-.058l-.16-.16a.07.07 0 0 1-.02-.077q.195-.51-.199-.728a2.9 2.9 0 0 1-.955-.426c-.262-.185-.936-.684-.912-1.019q.017-.235 0-.47c-.02-.296-.18-.398-.388-.563q-.16-.13-.101-.29c.053-.17.184-.476.349-.592a.4.4 0 0 0 .145-.18c.097-.228.18-.436.354-.625q.129-.143.184-.272c.127-.29.287-.533.476-.708"/>
        <path fill="#070202" d="M12.472 13.427a.2.2 0 0 1-.083.063l-.02-.005a.1.1 0 0 0-.048-.014 64 64 0 0 1-1.697-.064 2.7 2.7 0 0 1-.873-.189c.364.088.713.131 1.052.14a76 76 0 0 1 1.654.05h.005z"/>
        <path fill="#fff" d="M12.389 13.489a.2.2 0 0 0 .082-.063c.383-.242.757-.238 1.115.02q.032.019.068.014c.156-.015.35-.136.485-.209.04-.019.049-.01.04.03a.84.84 0 0 1-.258.387c-.053.049-.048.068.024.049a.8.8 0 0 0 .267-.107q.183-.107.068.068c-.087.131-.19.247-.305.359a.08.08 0 0 0-.029.068 3 3 0 0 1-.549 2.046 2.794 2.794 0 0 1-3.54.922c-.048-.025-.048-.04.01-.044q.782-.03 1.343-.534c.034-.029.03-.048-.019-.048a.89.89 0 0 1-.844-.577q-.019-.05.034-.048c.097.01.19 0 .281-.02q.124-.037 0-.068-.604-.147-.678-.839-.002-.05.038-.029a.7.7 0 0 0 .32.068q.081.002.015-.048-.547-.428-.271-1.14.022-.058.067-.014a2.5 2.5 0 0 0 1.892.76q.036-.001.029-.038a1.02 1.02 0 0 1 .315-.965"/>
        <path fill="#070202" d="m6.226 14.822.014-.005a.03.03 0 0 1 .024.01l.025.039.024.063.024.078v.024q.015.072.015.145l-.005.049-.02.02h-.014z"/>
        <path fill="#D79D76" d="M17.564 16.363c.038.025.043.049.019.083a.44.44 0 0 0-.039.237c.063.616.136 1.237.209 1.858.029.257.048.499.048.727l-.01.727h-1.765c.049-.261.097-.514.136-.766a3.2 3.2 0 0 0 .049-.654 32 32 0 0 1-.059-1.174q0-.093.092-.107a.5.5 0 0 0 .18-.048c.422-.232.806-.53 1.135-.883z"/>
        <path fill="#070202" d="M17.578 16.445q.035.009.034.04c.082.91.184 1.827.31 2.734.04.272-.005.534-.13.776.004-.247.01-.49.004-.727q.002-.341-.048-.728l-.204-1.857a.44.44 0 0 1 .034-.238"/>
        <path fill="#D79D76" d="M7.904 18.085q-.037.306-.015.591c0 .063 0 .122-.014.175a.4.4 0 0 0-.01.174c.02.083.02.17.01.258-.024.184-.034.368-.044.547 0 .03.01.049.03.073v.083l-1.65.01c-.01 0-.014-.006-.024-.015 0-.01-.01-.015-.014-.01.014-.533.13-1.13.174-1.561.034-.34.068-.68.112-1.028.01-.083-.005-.15 0-.233q-.001-.051.034-.015.575.647 1.406.95z"/>
        <path fill="#070202" d="M8.593 19.992a.7.7 0 0 1-.209 0l.146-.8a.16.16 0 0 0-.063-.146l-.17-.13a.1.1 0 0 1-.039-.079q0-.11.078-.198a.1.1 0 0 0 .02-.03v-.029a1.6 1.6 0 0 0-.15-.509c.26.146.329.388.198.728a.07.07 0 0 0 .02.077l.16.16a.1.1 0 0 1 .033.058.25.25 0 0 1 .015.146 10 10 0 0 1-.097.616c0 .029 0 .048.02.068q.03.037.038.067"/>
        <path fill="#6B3325" d="M7.904 18.087q.06.013.097.049.02.014.02.048-.032.741-.083 1.445c-.005.097-.049.184-.078.276a.1.1 0 0 1-.029-.072q.008-.271.044-.548a.8.8 0 0 0-.01-.257.4.4 0 0 1 .01-.175.5.5 0 0 0 .014-.174 3 3 0 0 1 .015-.592"/>
        <path fill="#070202" d="m9.553 19.14-.713.024a.043.043 0 0 0-.039.049c0 .024.02.043.044.038l.708-.02c.024 0 .048-.023.048-.047a.04.04 0 0 0-.004-.018.04.04 0 0 0-.044-.026"/>
    </g>
    <defs>
        <clipPath id="LINDA__a">
            <path fill="#fff" d="M0 0h24v24H0z"/>
        </clipPath>
    </defs>
</svg>
