<svg xmlns="http://www.w3.org/2000/svg" width="24" height="24" fill="none" viewBox="0 0 24 24">
    <g clip-path="url(#LON__a)">
        <path fill="url(#LON__b)" d="M24 0H0v24h24z"/>
        <path fill="#fff" fill-rule="evenodd" d="M12.048 4q-.43 0-.859.047C7.148 4.473 4 7.872 4 12.001c0 4.418 3.602 8 8.048 7.999h.018a8.04 8.04 0 0 0 3.68-.893c.325-.168.184-.657-.181-.646h-.015c-3.218.08-6.22-1.307-7.397-3.815-.604-1.283-.826-2.326-.315-3.978.169-.677.568-1.306 1.034-1.792q.053-.064.115-.121a1 1 0 0 1 .084-.076l.034-.034c.011-.008.018-.016.03-.024a.4.4 0 0 1 .067-.054c.794-.643 1.777-1.07 2.8-1.067 2.4 0 4.499 1.96 4.499 4.262 0 .791-.364 1.622-.804 2.282 1.92-.658 3.28-2.492 3.28-4.56a4.62 4.62 0 0 0-1.188-3.086 8 8 0 0 0-1.006-.867l-.003-.003A8.04 8.04 0 0 0 12.061 4z" clip-rule="evenodd"/>
        <path fill="#fff" fill-rule="evenodd" d="M18.935 9.505a4.76 4.76 0 0 1-3.138 4.486 4.73 4.73 0 0 1-5.721-2.117c-.2-.349-.357-.943-.464-1.448a.557.557 0 0 0-1.004-.2c-.417.603-.415 1.507-.343 2.2q0 .01.003.02.038.378.135.745.117.482.323.935c1 2.236 3.255 3.66 6.21 3.42.291-.024.569-.113.855-.172 2.438-.512 4.194-2.713 4.209-5.305 0-2.08-.774-4.125-2.203-5.645a4.75 4.75 0 0 1 1.138 3.08" clip-rule="evenodd"/>
    </g>
    <defs>
        <linearGradient id="LON__b" x1="4.005" x2="20.004" y1="20.065" y2="20.065" gradientUnits="userSpaceOnUse">
            <stop stop-color="#2D2D4B"/>
            <stop offset="1" stop-color="#1D1D3A"/>
        </linearGradient>
        <clipPath id="LON__a">
            <path fill="#fff" d="M0 0h24v24H0z"/>
        </clipPath>
    </defs>
</svg>
