<svg xmlns="http://www.w3.org/2000/svg" width="24" height="24" fill="none" viewBox="0 0 24 24">
    <g clip-path="url(#LTO__a)">
        <path fill="url(#LTO__b)" d="M24 0H0v24h24z"/>
        <path fill="#fff" d="M13.613 5.022 12.09 6.578l.311.32a.44.44 0 0 0 .622 0l1.525-1.556-.312-.32a.44.44 0 0 0-.31-.133.44.44 0 0 0-.312.133m-3.853 0-.311.316 1.524 1.56a.44.44 0 0 0 .631 0l.307-.316-1.524-1.556a.45.45 0 0 0-.311-.137.44.44 0 0 0-.312.133zm5.289 2.04-2.88 2.947.582.595a.83.83 0 0 0 1.187 0l2.875-2.946-.578-.596a.835.835 0 0 0-.919-.188.8.8 0 0 0-.272.188zm-7.28 0-.582.596 2.875 2.946a.83.83 0 0 0 1.187 0l.582-.595-2.875-2.947a.84.84 0 0 0-.596-.253.82.82 0 0 0-.591.253m3.915.182-.306.311L12 8l.622-.445-.31-.31A.44.44 0 0 0 12 7.11a.45.45 0 0 0-.311.133zm5.378 2.685-4.782 4.897.969.992a1.376 1.376 0 0 0 1.969 0L20 10.92l-.969-.991a1.4 1.4 0 0 0-.982-.418 1.36 1.36 0 0 0-.987.418m-12.093 0-.969.99 4.782 4.894a1.377 1.377 0 0 0 1.969 0l.969-.991-4.782-4.889a1.4 1.4 0 0 0-.987-.422 1.37 1.37 0 0 0-.982.418m6.435.99-.577.596 1.173.93 1.178-.925-.583-.6a.83.83 0 0 0-.595-.254.84.84 0 0 0-.596.254m-.39 5.499-.965.99L12 19.112l1.956-1.702-.97-.991A1.4 1.4 0 0 0 12 16c-.364 0-.729.15-.987.418"/>
    </g>
    <defs>
        <linearGradient id="LTO__b" x1="4" x2="20" y1="11.576" y2="11.666" gradientUnits="userSpaceOnUse">
            <stop stop-color="#7CB7FF"/>
            <stop offset="1" stop-color="#BA6DF6"/>
        </linearGradient>
        <clipPath id="LTO__a">
            <path fill="#fff" d="M0 0h24v24H0z"/>
        </clipPath>
    </defs>
</svg>
