<svg xmlns="http://www.w3.org/2000/svg" width="24" height="24" fill="none" viewBox="0 0 24 24">
    <g clip-path="url(#LYX__a)">
        <path fill="#FE005B" d="M24 0H0v24h24z"/>
        <path fill="#fff" d="m13.294 4.35 4.526 2.673a2.67 2.67 0 0 1 1.294 2.298v5.349a2.67 2.67 0 0 1-1.294 2.298l-4.53 2.677a2.53 2.53 0 0 1-2.588 0l-4.526-2.677a2.67 2.67 0 0 1-1.29-2.298V9.32a2.67 2.67 0 0 1 1.295-2.298l4.526-2.668a2.53 2.53 0 0 1 2.587 0zm.845 10.28 1.29-2.152a.93.93 0 0 0-.01-.96l-1.28-2.152a.99.99 0 0 0-.858-.48h-2.565a1 1 0 0 0-.859.48l-1.28 2.152a.93.93 0 0 0 0 .96l1.285 2.152c.178.298.502.48.854.48h2.57c.355 0 .68-.182.857-.48z"/>
    </g>
    <defs>
        <clipPath id="LYX__a">
            <path fill="#fff" d="M0 0h24v24H0z"/>
        </clipPath>
    </defs>
</svg>
