<svg xmlns="http://www.w3.org/2000/svg" width="24" height="24" fill="none" viewBox="0 0 24 24">
    <g clip-path="url(#MBD__a)">
        <path fill="#262675" d="M24 0H0v24h24z"/>
        <path fill="#fff" d="M12.002 16.443c2.454 0 4.444-1.89 4.444-4.222C16.446 9.89 14.456 8 12.002 8S7.56 9.89 7.56 12.221s1.99 4.222 4.443 4.222"/>
        <path fill="#fff" fill-rule="evenodd" d="M12.108 19.999c4.355 0 7.892-3.541 7.892-7.91s-3.533-7.91-7.892-7.91a7.9 7.9 0 0 0-7.896 7.91c0 4.368 3.533 7.91 7.896 7.91m0-.222c4.235 0 7.67-3.444 7.67-7.688s-3.435-7.687-7.67-7.687a7.68 7.68 0 0 0-7.674 7.687c0 4.244 3.435 7.688 7.674 7.688" clip-rule="evenodd"/>
        <path fill="#fff" d="M19.427 13.665a7.52 7.52 0 0 1-4.324 5.288l.151.346a8 8 0 0 0 4.533-5.554l-.356-.08zM5.416 8.668l-.56-.28a8.02 8.02 0 0 0-.022 7.167l.498-.248a7.48 7.48 0 0 1 .089-6.63zm10.572-3.609A7.96 7.96 0 0 0 12.491 4l-.035.578a7.49 7.49 0 0 1 5.816 3.235l.378-.254a8 8 0 0 0-2.662-2.501"/>
        <path fill="#fff" fill-rule="evenodd" d="M11.993 17.497c2.987 0 5.404-2.427 5.404-5.417a5.407 5.407 0 1 0-5.404 5.417m0-.578a4.83 4.83 0 1 0-.008-9.66 4.83 4.83 0 0 0 .008 9.655z" clip-rule="evenodd"/>
        <path fill="#fff" fill-rule="evenodd" d="M12.002 16.443a4.48 4.48 0 0 0 3.19-1.281 4.5 4.5 0 0 0 1.347-3.163c0-2.452-2.03-4.443-4.537-4.443a4.487 4.487 0 0 0-4.537 4.443c0 2.453 2.03 4.444 4.537 4.444m0-.475c2.235 0 4.052-1.778 4.052-3.969a4.007 4.007 0 0 0-4.052-3.968C9.767 8.031 7.949 9.81 7.949 12a4.01 4.01 0 0 0 4.053 3.969" clip-rule="evenodd"/>
        <path fill="#fff" fill-rule="evenodd" d="M11.993 18.665c3.634 0 6.576-2.95 6.576-6.59s-2.941-6.59-6.576-6.59c-3.63 0-6.577 2.95-6.577 6.59 0 3.644 2.946 6.59 6.577 6.59m0-.466a6.12 6.12 0 0 0 6.114-6.124 6.117 6.117 0 0 0-6.112-6.404 6.12 6.12 0 0 0-6.112 6.404c0 3.382 2.737 6.124 6.11 6.124" clip-rule="evenodd"/>
        <path fill="#fff" fill-rule="evenodd" d="M11.993 18c3.243 0 5.874-2.64 5.874-5.889 0-3.252-2.63-5.887-5.874-5.887S6.118 8.859 6.118 12.11c0 3.249 2.63 5.888 5.875 5.888m0-.205c3.132 0 5.674-2.546 5.674-5.688a5.68 5.68 0 0 0-5.674-5.683 5.68 5.68 0 0 0-5.675 5.687c0 3.138 2.542 5.688 5.675 5.688z" clip-rule="evenodd"/>
        <path fill="#fff" fill-rule="evenodd" d="M11.994 15.497a3.392 3.392 0 1 0-.004-6.783 3.392 3.392 0 0 0 .003 6.783m0-1.502a1.937 1.937 0 1 0 0-3.874 1.937 1.937 0 0 0 0 3.874" clip-rule="evenodd"/>
        <path fill="#fff" d="m6.047 10.738-.897-.186a7.02 7.02 0 0 0 1.453 5.9l.622-.519a6.2 6.2 0 0 1-1.178-5.195m5.943-5.582A7.36 7.36 0 0 0 7.5 6.694l.467.56a6.58 6.58 0 0 1 4.061-1.382c1.51 0 2.902.497 4 1.337l.462-.55a7.37 7.37 0 0 0-4.502-1.503"/>
        <path fill="#fff" d="M11.447 17.164a5.14 5.14 0 0 1-4.48-4.652l-.71.066a5.85 5.85 0 0 0 5.101 5.28zm2.51.861a6.22 6.22 0 0 0 3.439-9.194l.6-.364a6.924 6.924 0 0 1-3.84 10.211l-.204-.653z"/>
        <path fill="#fff" d="M17.663 13.947a6.05 6.05 0 0 1-1.884 2.702l.63.778a7 7 0 0 0 2.196-3.155zm-8.328-3.279v3.11h.444v-2.332l.276 2.332h.338l.275-2.332v2.332h.444v-3.11h-.702l-.186 1.64-.187-1.64z"/>
        <path fill="#fff" fill-rule="evenodd" d="M12.241 10.668c.205-.004.605.107.605.618v.489c-.014.097-.09.31-.311.333.142.026.355.182.355.51v.77c-.009.133-.089.39-.355.39h-.978v-3.11zm-.24.444v.89h.24a.19.19 0 0 0 .12-.179v-.542c-.009-.058-.044-.169-.155-.169zm0 2.222v-.889h.21c.11 0 .15.138.155.21v.461c0 .13-.08.2-.116.218zm2.267-2.666h-.933v3.11h.933c.222 0 .4-.186.4-.417v-2.275a.41.41 0 0 0-.4-.418m-.183.444h-.306v2.222h.306c.045 0 .076-.124.076-.28v-1.662c0-.155-.031-.28-.075-.28" clip-rule="evenodd"/>
    </g>
    <defs>
        <clipPath id="MBD__a">
            <path fill="#fff" d="M0 0h24v24H0z"/>
        </clipPath>
    </defs>
</svg>
