<svg xmlns="http://www.w3.org/2000/svg" width="24" height="24" fill="none" viewBox="0 0 24 24">
    <g clip-path="url(#MCONTENT__a)">
        <path fill="url(#MCONTENT__b)" d="M24 0H0v24h24z"/>
        <path fill="#fff" fill-rule="evenodd" d="m11.966 20-6.703-4.004V8.008L11.966 4l6.771 4.008V16zm1.09-14.51L8.982 7.976l2.94 1.734 4.058-2.442zm-6.109 7.676V9.095l1.55-.88 2.905 1.756-1.507.884v3.932zm0 2.998v-2.5l2.948 1.772v2.484zm5.895-3.646v6.008l.842-.61v-4.758l1.264-.758v4.905l.842-.61v-4.813l1.263-.766v5.048l.842-.631V9.46zm-4.766-5.49.623-.417.56.467-.627.413zm5.246 2.429-.623.412.556.464.623-.413zM9.676 6.072l.623-.413.556.463-.623.417-.556-.463zm5.242 2.43-.623.412.556.467.623-.413-.556-.463zm-3.65-3.374.623-.412.555.463-.623.417zm5.241 2.43-.623.413.556.463.623-.409-.556-.463zm-9.995.391.627-.412.556.463-.628.417-.555-.463zm-.83 1.205.842.417v.74l-.842-.42zm0 1.878.842.412v.741l-.842-.42zm.842 2.29-.842-.417v.737l.842.421zm-.842 1.461.842.413v.74l-.842-.42zm5.474-2.619-.842-.42v.74l.842.421zm0 1.874-.842-.417v.737l.842.421zm-.842 1.461.842.417v.74l-.842-.42v-.741zm.842 2.29-.842-.416v.736l.842.422zm.602-7.41-.623.417.556.463.623-.413-.556-.463z" clip-rule="evenodd"/>
    </g>
    <defs>
        <linearGradient id="MCONTENT__b" x1="12" x2="12" y1="4" y2="20" gradientUnits="userSpaceOnUse">
            <stop offset=".16" stop-color="#C09124"/>
            <stop offset="1" stop-color="#FDDC03"/>
        </linearGradient>
        <clipPath id="MCONTENT__a">
            <path fill="#fff" d="M0 0h24v24H0z"/>
        </clipPath>
    </defs>
</svg>
