<svg xmlns="http://www.w3.org/2000/svg" width="24" height="24" fill="none" viewBox="0 0 24 24">
    <g clip-path="url(#MED__a)">
        <path fill="#2073E9" d="M24 0H0v24h24z"/>
        <path fill="#fff" d="M17.605 6.948c.4-.875 1.13-1.19 1.81-.78.935.56.5 1.485.295 2.015l-3.36 8.99c-.385.745-1.06 1.05-1.725.68-.67-.375-.68-1.21-.4-1.835 1.32-2.965 3.075-8.4 3.38-9.07m-9.841-.149c.27-.655 1.1-.88 1.63-.62.84.415.685 1.155.505 1.68l-3.825 9.575c-.365.57-1.04.715-1.535.405-.605-.38-.59-1.26-.48-1.605 1.16-2.94 3.435-8.77 3.7-9.43zm5.286-.125c.19-.445.92-.825 1.43-.5.625.39.565 1.135.445 1.46l-1.975 5.05c-.325.65-.955 1.015-1.59.65-.63-.375-.46-1.145-.3-1.525l1.985-5.135z"/>
        <path fill="#fff" d="M18.75 8.498a1.25 1.25 0 1 0 0-2.5 1.25 1.25 0 0 0 0 2.5M15.25 18a1.25 1.25 0 1 0 0-2.501 1.25 1.25 0 0 0 0 2.5"/>
    </g>
    <defs>
        <clipPath id="MED__a">
            <path fill="#fff" d="M0 0h24v24H0z"/>
        </clipPath>
    </defs>
</svg>
