<svg xmlns="http://www.w3.org/2000/svg" width="24" height="24" fill="none" viewBox="0 0 24 24">
    <g clip-path="url(#MONA__a)">
        <path fill="#D0B47A" d="M24 0H0v24h24z"/>
        <path fill="#fff" d="M18.024 9.928 16.88 4.8l-2.24 3.528a11.3 11.3 0 0 0-5.28 0L7.12 4.8 5.976 9.928C4.752 10.912 4 12.2 4 13.608c0 3.088 3.584 5.592 8 5.592s8-2.504 8-5.6c0-1.4-.752-2.688-1.976-3.672M7.552 12h-.528l1.296-1.5h.952zm4.4 3.944-2.208-3.896.544-.312.496.764H13.2l.52-.772.536.32-2.296 3.896zM16.448 12l-1.72-1.5h.96l1.296 1.5zm-4.48 2.696L11.008 13h2.003z"/>
    </g>
    <defs>
        <clipPath id="MONA__a">
            <path fill="#fff" d="M0 0h24v24H0z"/>
        </clipPath>
    </defs>
</svg>
