<svg xmlns="http://www.w3.org/2000/svg" width="24" height="24" fill="none" viewBox="0 0 24 24">
    <g clip-path="url(#MVI__a)">
        <path fill="url(#MVI__b)" d="M24 0H0v24h24z"/>
        <path fill="#fff" d="M16.363 4a1.454 1.454 0 1 0 0 2.909 1.454 1.454 0 0 0 0-2.909M6.075 10.546c0-.665 2.652-1.213 5.925-1.213s5.925.548 5.925 1.213c0 .669-2.968 1.212-5.925 1.212-2.967 0-5.925-.534-5.925-1.212m-1.833.242s0 1.94 7.758 1.94c7.757 0 7.757-1.94 7.757-1.94 0 1.988-1.832 6.177-2.967 6.894-.582.369-.751-.28-.93-.984-.17-.66-.355-1.362-.903-1.328-.562.039-1.018 1.178-1.474 2.322C13.023 18.846 12.563 20 12 20s-1.018-1.164-1.474-2.318c-.466-1.173-.921-2.341-1.493-2.307-.539.038-.728.727-.893 1.367-.184.693-.349 1.323-.94.945-1.12-.717-2.958-4.901-2.958-6.9"/>
    </g>
    <defs>
        <linearGradient id="MVI__b" x1="17.012" x2="6.827" y1="5.791" y2="17.835" gradientUnits="userSpaceOnUse">
            <stop stop-color="#3AFCE7"/>
            <stop offset="1" stop-color="#FC5CDD"/>
        </linearGradient>
        <clipPath id="MVI__a">
            <path fill="#fff" d="M0 0h24v24H0z"/>
        </clipPath>
    </defs>
</svg>
