<svg xmlns="http://www.w3.org/2000/svg" width="24" height="24" fill="none" viewBox="0 0 24 24">
    <g clip-path="url(#OMI__a)">
        <path fill="#353535" d="M24 0H0v24h24z"/>
        <path fill="#fff" fill-rule="evenodd" d="M12.707 5.128a.942.942 0 1 0-1.863-.203A6.8 6.8 0 0 0 7.057 6.21a.47.47 0 1 0-.673.56 6.73 6.73 0 0 0-2.098 5.476.9.9 0 0 0-.019.367l-.01.385a6.774 6.774 0 0 0 5.928 6.71 6.85 6.85 0 0 0 7.843-3.012l.108.01a.706.706 0 0 0 .508-1.195 6.7 6.7 0 0 0 .744-4.456.47.47 0 1 0-.23-.912 6.75 6.75 0 0 0-1.445-2.47.472.472 0 0 0 .045-.722.47.47 0 0 0-.718.087 6.76 6.76 0 0 0-3.02-1.43 6.6 6.6 0 0 0-1.313-.48m4.267 2.055a6.6 6.6 0 0 0-2.432-1.298c.113.066.226.141.338.216a6.75 6.75 0 0 1 3.275 3.811 6.76 6.76 0 0 1 .645 4.935 6.56 6.56 0 0 0 .432-3.801.47.47 0 0 1-.211-.833 6.6 6.6 0 0 0-1.454-2.47.47.47 0 0 1-.593-.564zM6.61 6.826h-.057a6.58 6.58 0 0 0-2.135 4.705 6.74 6.74 0 0 1 1.787-3.27 6.74 6.74 0 0 1 4.752-2.87 1 1 0 0 1-.104-.315A6.6 6.6 0 0 0 7.08 6.388a.47.47 0 0 1-.47.438m11.87 8.558a6.62 6.62 0 0 0-.1-4.64 6.74 6.74 0 0 1-1.523 5.74 6.7 6.7 0 0 1-.937 1.214c.043.085.07.174.09.273a6.8 6.8 0 0 0 1.707-1.407.706.706 0 0 1 .763-1.18m-.63 1.26a6.8 6.8 0 0 1-1.836 1.496.94.94 0 0 1-1.543.692c-1.025.6-2.19.92-3.378.927a6.67 6.67 0 0 0 6.784-3.105zM12.607 5.4l.057-.127q.393.098.767.245l-.255-.024a8 8 0 0 0-.564-.094zm-1.27.377a.94.94 0 0 0 1.082-.141q.37-.016.739.009c.578.127 1.129.33 1.641.593l.189.132a.705.705 0 0 0-.753.338 6.8 6.8 0 0 0-1.684-.306A6.8 6.8 0 0 0 9.64 6.38a6.6 6.6 0 0 1 1.698-.607zm4.21 1.284a.7.7 0 0 0-.056-.282c.381.348.725.734 1.016 1.162a7 7 0 0 0-.988-.678.7.7 0 0 0 .029-.202m1.252 1.34a6.7 6.7 0 0 0-1.34-.996.7.7 0 0 1-.25.258 6.76 6.76 0 0 1 2.46 3.89 6.56 6.56 0 0 0-.87-3.151m-3.383-1.74c.255.047.508.113.753.188a1 1 0 0 0-.028.132 7 7 0 0 0-.725-.32m-.889-.103c.57.127 1.11.329 1.614.597a.703.703 0 0 0 .913.579 6.6 6.6 0 0 1 2.455 3.801.468.468 0 0 0-.55.466.47.47 0 0 0 .673.423 6.62 6.62 0 0 1-7.847 5.745 6.7 6.7 0 0 1-1.544-1.05.47.47 0 1 0-.625-.654 6.55 6.55 0 0 1-1.52-3.716.94.94 0 0 0-.019-.607 6.6 6.6 0 0 1 .697-2.85c.366-.5.8-.951 1.289-1.332a.47.47 0 1 0 .766-.518 6.66 6.66 0 0 1 3.698-.884m-3.834.785a6.75 6.75 0 0 1 2.94-.926 6.7 6.7 0 0 0-2.479.244 6.55 6.55 0 0 0-1.9 1.82c.235-.248.493-.474.766-.686v-.028a.47.47 0 0 1 .673-.424m-1.139 9.292a6.7 6.7 0 0 1-1.585-3.623.94.94 0 0 1-.466.348q.015.587.127 1.14a6.6 6.6 0 0 0 2.856 3.278c.235.099.48.188.73.254a6.8 6.8 0 0 1-1.149-.856h-.047a.472.472 0 0 1-.466-.541m10.242-4.342v.047a6.8 6.8 0 0 1-.531 3.354 6.52 6.52 0 0 0 .753-5.72 6.7 6.7 0 0 0-.838-1.177c.436.922.657 1.93.645 2.95a.47.47 0 0 1-.029.546m-6.741-6.756a1 1 0 0 0 .113.117 6.8 6.8 0 0 0-2.08.866 6.8 6.8 0 0 0-2.22 1.148 6.6 6.6 0 0 1 4.187-2.131m-4.78 4.544a6.8 6.8 0 0 0-.339 1.802 1 1 0 0 0-.254-.22 6.6 6.6 0 0 1 .593-1.582m.367-.87a6.8 6.8 0 0 0-1.101 2.385.9.9 0 0 0-.344-.066H5.19a6.5 6.5 0 0 1 1.13-3.17 6.6 6.6 0 0 1 2.304-1.515 6.8 6.8 0 0 0-1.98 2.366m-1.29 4.187-.046.01c.014.094.037.188.06.277l-.013-.282zm.396-4.375a6.7 6.7 0 0 0-.715 2.522.94.94 0 0 0-.518.282c.189-1.044.617-2 1.233-2.809zm-.602 4.39a.94.94 0 0 1-.56-.226c.136.578.348 1.129.626 1.637a.47.47 0 0 1 .4.244 10 10 0 0 1-.132-.527 7 7 0 0 1-.334-1.129m-.734-.306c.132.611.348 1.2.635 1.74a.47.47 0 0 0-.287.273 6.6 6.6 0 0 1-.348-2.013m.785 2.658a.5.5 0 0 1-.202-.048 6.67 6.67 0 0 0 4.343 3.67 6.85 6.85 0 0 1-3.23-3.067 8 8 0 0 1-.578-.697.47.47 0 0 1-.335.142m.47-.47a.5.5 0 0 1-.041.197l.249.33a7 7 0 0 1-.207-.528m10.563 1.815a6 6 0 0 1-.395.452 1 1 0 0 0-.062-.08q.235-.175.457-.372m-4.47 1.534a6.6 6.6 0 0 0 2.38-.438.95.95 0 0 1 .133-.578 6.8 6.8 0 0 1-3.952.776q.261.1.536.179.446.061.903.06m4.973-2.254a6.7 6.7 0 0 1-1.077.988.94.94 0 0 0-.668-.197 6.76 6.76 0 0 0 2.681-4.056 6.5 6.5 0 0 1-.94 3.265zm-2.432 2.258a.9.9 0 0 1-.132-.291 6.7 6.7 0 0 1-2.263.437c.802.098 1.615.05 2.4-.14zm-.179.203a6.6 6.6 0 0 1-3.905.705 6.7 6.7 0 0 1-3.712-2.85 6.8 6.8 0 0 0 1.91 1.209c.73.414 1.544.7 2.41.818 1.072.31 2.205.35 3.297.118m-4.39-.537-.103-.018.188.06zm-3.88-2.996A6.8 6.8 0 0 0 7.38 17.19a6.6 6.6 0 0 1-1.143-.96 6 6 0 0 1-.386-.912m10.01-8.393c.41.414.768.88 1.06 1.383.282.268.536.564.762.875a6.6 6.6 0 0 0-1.821-2.258" clip-rule="evenodd"/>
    </g>
    <defs>
        <clipPath id="OMI__a">
            <path fill="#fff" d="M0 0h24v24H0z"/>
        </clipPath>
    </defs>
</svg>
