<svg xmlns="http://www.w3.org/2000/svg" width="24" height="24" fill="none" viewBox="0 0 24 24">
    <g clip-path="url(#OMNI__a)">
        <path fill="#1D3F7B" d="M24 0H0v24h24z"/>
        <path fill="#fff" d="M19.5 7.198V4.5h-2.84c1.026.65 2.163 1.706 2.84 2.698M7.416 4.5H4.5v2.767C5.103 6.12 6.232 5.072 7.416 4.5M4.5 16.733V19.5h2.876c-1.029-.661-2.203-1.76-2.876-2.767M16.707 19.5H19.5v-2.698c-.667.977-1.788 2.051-2.793 2.698"/>
        <path fill="#fff" fill-rule="evenodd" d="M11.788 20v-.008c4.536 0 8.212-3.579 8.212-7.996C20 7.587 16.324 4 11.788 4 7.565 4.22 4 7.715 4 12s3.565 7.78 7.788 8m.204-14C8.724 6.004 5.995 8.74 6 12.008S8.74 18.004 12.008 18s5.996-2.74 5.992-6.008S15.26 5.995 11.992 6" clip-rule="evenodd"/>
    </g>
    <defs>
        <clipPath id="OMNI__a">
            <path fill="#fff" d="M0 0h24v24H0z"/>
        </clipPath>
    </defs>
</svg>
