<svg xmlns="http://www.w3.org/2000/svg" width="24" height="24" fill="none" viewBox="0 0 24 24">
    <g clip-path="url(#PAI__a)">
        <path fill="#10C7CA" d="M24 0H0v24h24z"/>
        <path fill="#fff" d="M11.784 8.324a3.027 3.027 0 1 0 0 6.053 3.027 3.027 0 0 0 0-6.053M7.459 11.35a4.324 4.324 0 1 1 8.649 0 4.324 4.324 0 0 1-8.649 0"/>
        <path fill="#fff" d="M8.108 10.703a.65.65 0 0 1 .649.649v8a.649.649 0 0 1-1.298 0v-8a.65.65 0 0 1 .65-.649m7.351 0a.65.65 0 0 1 .649.649v4.108a.648.648 0 1 1-1.297 0v-4.108a.65.65 0 0 1 .648-.649m-.001-4.541a1.081 1.081 0 1 0 0-2.162 1.081 1.081 0 0 0 0 2.162"/>
    </g>
    <defs>
        <clipPath id="PAI__a">
            <path fill="#fff" d="M0 0h24v24H0z"/>
        </clipPath>
    </defs>
</svg>
