<svg xmlns="http://www.w3.org/2000/svg" width="24" height="24" fill="none" viewBox="0 0 24 24">
    <g clip-path="url(#PIKA__a)">
        <path fill="#FCE74F" d="M24 0H0v24h24z"/>
        <path fill="#000" fill-rule="evenodd" d="M10.628 5.057c-1.164.354-2.022 1.561-2.022 4.107 0 2.434.543 3.583 1.576 4.421.088.074.2.113.315.112.272 0 .533-.18.533-.485V6.638c0-.941.597-2.638 2.682-2.638 2.603 0 4.591 2.448 4.591 5.164 0 2.594-1.358 5.347-4.916 6.104-.315.063-.417.33-.417.64v3.185c0 .5-.325.907-.97.907-.514 0-.97-.407-.97-.907v-3.19c0-.31-.28-.572-.586-.65-1.843-.485-4.747-2.181-4.747-6.09 0-3.927 2.982-5.042 4.824-5.158a.485.485 0 0 1 .51.494c0 .243-.18.456-.403.558m2.342 7.927V6.463c0-.848.848-1.353 1.43-.732.776.824 1.479 2.109 1.479 3.908 0 2.177-1.038 3.389-1.978 3.966-.442.271-.931-.097-.931-.62" clip-rule="evenodd"/>
    </g>
    <defs>
        <clipPath id="PIKA__a">
            <path fill="#fff" d="M0 0h24v24H0z"/>
        </clipPath>
    </defs>
</svg>
