<svg xmlns="http://www.w3.org/2000/svg" width="24" height="24" fill="none" viewBox="0 0 24 24">
    <g clip-path="url(#POLS__a)">
        <path fill="#FF3364" d="M24 0H0v24h24z"/>
        <path fill="#fff" fill-rule="evenodd" d="M7.613 4h6.445A5.94 5.94 0 0 1 20 9.936a5.94 5.94 0 0 1-5.942 5.935h-2.316V20h-4.13v-2.126A3.995 3.995 0 0 0 10.587 14a3.996 3.996 0 0 0-2.973-3.874zm4.129 3.097h2.399c1.526 0 2.762 1.27 2.762 2.839s-1.236 2.838-2.762 2.838h-2.4zM6.58 16.645a2.581 2.581 0 1 0 0-5.162 2.581 2.581 0 0 0 0 5.162" clip-rule="evenodd"/>
    </g>
    <defs>
        <clipPath id="POLS__a">
            <path fill="#fff" d="M0 0h24v24H0z"/>
        </clipPath>
    </defs>
</svg>
