<svg xmlns="http://www.w3.org/2000/svg" width="24" height="24" fill="none" viewBox="0 0 24 24">
    <g clip-path="url(#POOH__a)">
        <path fill="#fff" d="M24 0H0v24h24z"/>
        <path fill="#fff" d="M20 4H4v16h16z"/>
        <path fill="#337243" d="M4 4h16v16H4z"/>
        <path fill="#FAC736" d="M9.951 11.743c.923.766 2.486 1.326 3.149 1.511l.8-.64c-.046-.057-.137-.2-.137-.323 0-.477.634-1.217.634-1.628 0-.412-.337-.629-.337-.894 0-.266.1-.363.1-.597 0-.183-.609-.783-.911-1.058.085-.12.248-.408.248-.617 0-.257-.297-.608-.568-.608-.272 0-.52.214-.52.477 0 .208.171.46.257.56a3.3 3.3 0 0 0-.755-.069c-.414 0-.928.172-1.131.257.009-.045.029-.165.029-.308 0-.297-.343-.543-.6-.543-.255 0-.555.183-.555.594 0 .412.366.629.486.757-.429.615-.189 2.623-.189 3.129"/>
        <path fill="#E39F2E" d="M11.566 12.691c-.572-.257-1.169-.58-1.615-.949 0-.102-.011-.268-.022-.47-.049-.795-.129-2.17.211-2.658-.023-.026-.057-.054-.091-.086-.158-.134-.395-.34-.395-.671 0-.134.032-.246.086-.332a.97.97 0 0 0 .171.635q.14.183.238.297c.142.177.211.263.2.377-.02.169-.038.88.151 1.24 0 .066-.011.12-.026.183-.017.091-.04.2-.04.383 0 .305.135 1.04 1.132 2.051"/>
        <path fill="#000" d="M12.929 6.923c-.257 0-.486.2-.486.443 0 .097.04.206.091.306.055.1.118.185.16.234a.034.034 0 0 1 0 .04.03.03 0 0 1-.034.011 3.2 3.2 0 0 0-.748-.065c-.406 0-.915.165-1.12.251a.03.03 0 0 1-.035-.006.03.03 0 0 1-.01-.014.03.03 0 0 1-.001-.017c.008-.04.028-.16.028-.3a.5.5 0 0 0-.191-.36.63.63 0 0 0-.371-.151.53.53 0 0 0-.352.134.56.56 0 0 0-.171.428c0 .195.085.346.188.463q.088.099.192.183l.097.089c.008.011.011.028 0 .04-.116.203-.185.43-.203.663-.037.28-.049.602-.046.922.003.323.02.64.037.909 0 .049.006.097.009.143.011.194.02.354.02.457.914.751 2.44 1.303 3.109 1.491l.762-.608a.6.6 0 0 1-.068-.114.5.5 0 0 1-.057-.203c0-.126.043-.266.103-.412.06-.143.142-.294.22-.443l.017-.031a7 7 0 0 0 .2-.394 1 1 0 0 0 .094-.349c0-.2-.08-.348-.163-.486l-.028-.042a2 2 0 0 1-.089-.158.45.45 0 0 1-.057-.208c0-.137.028-.232.051-.32l.003-.009a.8.8 0 0 0 .049-.268.2.2 0 0 0-.026-.072 1 1 0 0 0-.069-.114 3 3 0 0 0-.24-.286 10 10 0 0 0-.568-.563.03.03 0 0 1-.006-.042c.043-.058.103-.158.154-.269a.8.8 0 0 0 .089-.329c0-.12-.069-.262-.171-.38-.106-.114-.24-.194-.363-.194m-.555.443c0-.283.266-.509.555-.509.151 0 .3.095.411.218a.67.67 0 0 1 .192.422.9.9 0 0 1-.098.355c-.045.103-.1.194-.142.257.151.137.371.348.551.546.097.105.183.205.246.294.028.046.057.086.074.123.02.034.029.071.029.1 0 .117-.023.2-.046.285l-.003.009a1 1 0 0 0-.049.303q.001.09.049.18.051.102.114.197a.94.94 0 0 1 .172.514c0 .115-.04.24-.1.377-.057.126-.129.26-.2.4l-.017.029c-.08.149-.16.297-.218.44a1.1 1.1 0 0 0-.097.386.4.4 0 0 0 .049.171.7.7 0 0 0 .08.132.03.03 0 0 1-.006.045l-.8.64-.013.006h-.015c-.666-.186-2.232-.748-3.163-1.517a.03.03 0 0 1-.012-.026l-.028-.614a17 17 0 0 1-.037-.909 6.5 6.5 0 0 1 .045-.934c.035-.271.097-.509.2-.669l-.071-.062-.034-.029a2 2 0 0 1-.166-.163.76.76 0 0 1-.206-.506c0-.214.08-.371.194-.477a.6.6 0 0 1 .398-.151c.137 0 .294.066.414.171.123.1.217.246.217.406 0 .103-.011.194-.02.254.234-.091.703-.234 1.086-.234.314 0 .545.029.677.049a2 2 0 0 1-.112-.172.8.8 0 0 1-.1-.337"/>
        <path fill="#49573E" d="M8.403 15.274A17 17 0 0 0 8 14.805a7.2 7.2 0 0 1 .783-1.622c-.657 1.791.017 2.031.24 2.185a2.7 2.7 0 0 0-.62-.094m3.314 1.574c-.857-.757-1.297-2.225-1.411-2.865a6 6 0 0 0-.292 1.791l-.385.04a.7.7 0 0 0 .171.491c1.114.535 1.814.578 1.917.543"/>
        <path fill="#FAC736" d="M9.669 15.629c.028.2.165.574.231.737a4.9 4.9 0 0 1-1.471-1.094c.411-.009 1.128.283 1.24.357"/>
        <path fill="#49573E" d="M15.986 14.677c-.066-.846-.697-1.715-1.003-2.04.123.728.348 1.905.446 2.405l.505-.077a.9.9 0 0 0 .052-.285z"/>
        <path fill="#FAC736" d="M16.229 15.04a3 3 0 0 1-.743.717c0-.405-.072-.631-.072-.717.126-.045.509-.271.686-.377.043.086.126.286.126.377z"/>
        <path fill="#000" d="M10.785 8.077c.018.006.029.023.023.04a2 2 0 0 1-.105.297.04.04 0 0 1-.02.018.04.04 0 0 1-.037-.008l-.007-.012-.001-.014q0-.006.005-.012c.048-.097.085-.229.102-.286.003-.014.023-.029.04-.023m1.863-.146a.04.04 0 0 1 .04-.025l.24.054c.017.003.029.023.026.04a.034.034 0 0 1-.04.023l-.24-.054a.03.03 0 0 1-.02-.014l-.006-.011zm1.586 4.163a.03.03 0 0 1 .043-.014q.28.132.523.323a4.54 4.54 0 0 1 1.485 2.097.1.1 0 0 1-.008.031l-.02.029-.063.06a2 2 0 0 1-.2.149 4.4 4.4 0 0 1-.549.3.03.03 0 0 1-.028 0 .03.03 0 0 1-.02-.026c-.197-1.251-.512-2.246-.646-2.594a3 3 0 0 0-.51-.319.03.03 0 0 1-.007-.036m.617.438c.272.8.475 1.622.606 2.457q.367-.176.694-.418a.5.5 0 0 0 .066-.068 4.5 4.5 0 0 0-1.366-1.972"/>
        <path fill="#000" d="M9.951 11.411c.009.018.006.037-.011.046q-.124.075-.243.16a.03.03 0 0 1-.022.01.04.04 0 0 1-.024-.007l-.008-.01a.03.03 0 0 1 .003-.036q.122-.097.26-.171a.034.034 0 0 1 .045.008m4.015.235.01-.008a.034.034 0 0 1 .038.008 2 2 0 0 1 .163.24c.057.097.1.208.1.311 0 .343-.237.629-.503.829a2 2 0 0 1-.4.234.9.9 0 0 1-.308.086 5 5 0 0 1-1.486-.395c-.503-.2-.957-.428-1.212-.562-.4-.215-.691-.195-.78-.163a.034.034 0 0 1-.042-.018.03.03 0 0 1 .008-.036l.012-.006c.111-.04.422-.055.834.165q.585.312 1.2.56c.5.2 1.04.369 1.466.389.057 0 .16-.029.28-.08.123-.051.257-.129.388-.229.257-.194.477-.463.477-.774a.65.65 0 0 0-.091-.283 1.3 1.3 0 0 0-.164-.233.03.03 0 0 1 .002-.025zm2.194 2.64c.014.014.014.034 0 .045a.6.6 0 0 1-.146.112 6 6 0 0 1-.634.3.034.034 0 0 1-.046-.03.03.03 0 0 1 .01-.023l.01-.007a6 6 0 0 0 .623-.297.5.5 0 0 0 .134-.097.03.03 0 0 1 .025-.01q.007 0 .013.002l.01.008zm-6.166 1.148a3.54 3.54 0 0 0-1.903-.503.03.03 0 0 1-.024-.007.03.03 0 0 1-.013-.021c0-.02.014-.035.032-.037.351-.02 1.228.057 1.942.514q.025.018.012.046a.035.035 0 0 1-.046.009"/>
        <path fill="#49573E" d="M11.594 12.926c-.665-.132-1.994-.114-2.577-.092a1.5 1.5 0 0 1 .557-.643c-.037-.008-.114-.06-.114-.205 0-.183.22-.463.3-.392.266.706 2.057 1.32 2.92 1.538a8 8 0 0 0-1.086-.206"/>
        <path fill="#000" d="M9.011 12.772a.035.035 0 0 1 .043-.02 1.97 1.97 0 0 1 1.231 1.327.03.03 0 0 1-.013.024l-.012.006a.034.034 0 0 1-.04-.023 1.9 1.9 0 0 0-1.198-1.277.03.03 0 0 1-.01-.035z"/>
        <path fill="#000" d="M9.132 12.59a.034.034 0 0 1 .043-.02c.174.062.44.202.677.428.267.244.442.573.494.931 0 .017-.011.034-.029.037a.04.04 0 0 1-.026-.006l-.009-.01-.005-.012a1.5 1.5 0 0 0-.474-.895 1.9 1.9 0 0 0-.663-.417.03.03 0 0 1-.011-.024q0-.007.003-.013m4.197-2.258c-.417 0-.589.228-.62.343 0 .24.374.451.557.451s.423-.405.423-.545c0-.143-.177-.249-.36-.249m-.274 1.503a.03.03 0 0 1 0 .045.26.26 0 0 1-.15.075.4.4 0 0 1-.146-.001.03.03 0 0 1-.016-.02v-.013c0-.018.02-.029.037-.029a.3.3 0 0 0 .115 0 .2.2 0 0 0 .114-.057.034.034 0 0 1 .046 0m-1.186-.643a.5.5 0 0 0-.086.117.034.034 0 0 1-.054.01.03.03 0 0 1-.009-.023q0-.006.003-.013a.5.5 0 0 1 .097-.137c.046-.046.106-.086.18-.08.017 0 .032.014.029.034 0 .018-.014.03-.032.03a.18.18 0 0 0-.128.062"/>
        <path fill="#000" d="M12.92 10.117c0-.017.017-.032.037-.029.2.009.426.032.6.106.092.04.172.091.226.16a.4.4 0 0 1 .088.266c.003.24-.054.478-.165.691a.72.72 0 0 1-.657.392c-.26 0-.512-.095-.72-.209a2.2 2.2 0 0 1-.473-.353l-.003-.013q0-.006.003-.012l.007-.01a.034.034 0 0 1 .046 0c.085.085.251.222.454.33.2.115.443.2.686.2a.66.66 0 0 0 .6-.356c.114-.206.157-.463.157-.66a.36.36 0 0 0-.075-.226.5.5 0 0 0-.2-.14 1.8 1.8 0 0 0-.58-.103.04.04 0 0 1-.02-.012.03.03 0 0 1-.008-.022z"/>
        <path fill="#000" d="M13.266 11.057c.02-.003.037.011.037.028a.73.73 0 0 1-.266.603.034.034 0 0 1-.048-.005.03.03 0 0 1 .005-.046.67.67 0 0 0 .243-.546c0-.017.012-.034.029-.037zm-1.303-.983c0 .106-.057.191-.128.191s-.129-.085-.129-.191c0-.109.057-.194.129-.194.071 0 .128.085.128.194m1.797-.254c0 .108-.057.194-.128.194s-.129-.086-.129-.194c0-.106.057-.192.129-.192.071 0 .128.086.128.192m-1.828-.663c-.206.037-.44.263-.463.277 0-.143.297-.374.383-.377.085-.006.08.08.08.1m1.602-.086c.15-.026.343.066.36.069-.02-.086-.257-.172-.317-.152-.062.017-.045.069-.043.083m-5.162 6.177c0-.017.017-.028.037-.028.564.069 1.11.239 1.614.503.014.008.02.028.011.045a.03.03 0 0 1-.02.015.03.03 0 0 1-.025-.003 4.7 4.7 0 0 0-1.601-.498.03.03 0 0 1-.016-.034"/>
        <path fill="#FAC736" d="M14.4 15a.873.873 0 0 1-.886.863.875.875 0 0 1-.88-.863.875.875 0 0 1 .88-.863c.489 0 .886.386.886.863"/>
        <path fill="#000" d="M11.491 12.652a.07.07 0 0 1 .092.028c.12.22.323.572.557.929q.32.508.754.922a.064.064 0 0 1 .006.092c-.023.029-.066.029-.094.006a5 5 0 0 1-.777-.949q-.303-.459-.563-.943a.066.066 0 0 1 .028-.086zm.06.042a.03.03 0 0 0-.018-.015.03.03 0 0 0-.024.001.03.03 0 0 0-.017.018l-.001.013.003.012c.12.223.323.58.563.937q.327.52.771.943c.015.014.035.014.046 0a.03.03 0 0 0 .008-.035l-.008-.01a4.8 4.8 0 0 1-.763-.932q-.3-.454-.56-.932m2.397 1.769a.07.07 0 0 1-.035-.064q0-.013.007-.025c.149-.28.2-.68.203-1.071a5.3 5.3 0 0 0-.092-.989.066.066 0 0 1 .055-.077c.034-.005.071.017.077.052.046.231.094.614.094 1.014s-.054.823-.217 1.131a.07.07 0 0 1-.091.029m.183-2.166a.03.03 0 0 0-.026-.028h-.014l-.013.003a.03.03 0 0 0-.015.037c.045.225.094.6.094.994.015.373-.056.744-.206 1.086-.008.017-.003.034.015.043.014.008.037.002.045-.015.158-.3.209-.717.212-1.114 0-.397-.046-.777-.092-1.006"/>
        <path fill="#000" fill-rule="evenodd" d="m12.855 15.002.025.115a.2.2 0 0 0 .06-.029.1.1 0 0 0 .026-.028v-.029c-.011-.026-.031-.034-.057-.034a.2.2 0 0 0-.057.005zm.04.18a.4.4 0 0 0 .085-.045.14.14 0 0 0 .049-.057.1.1 0 0 0-.003-.078.13.13 0 0 0-.114-.071.3.3 0 0 0-.112.023l-.023.011.072.309.063-.014zm.377-.082a.08.08 0 0 0 .084-.043.08.08 0 0 0 0-.066.08.08 0 0 0-.05-.042.1.1 0 0 0-.034 0 .077.077 0 0 0-.078.073c0 .043.035.078.078.078m0 .062a.143.143 0 0 0 .143-.14.143.143 0 1 0-.143.143zm.414-.148c.046 0 .08-.034.08-.077a.077.077 0 0 0-.154 0c0 .043.034.077.077.077zm0 .063a.143.143 0 0 0 .146-.14.143.143 0 1 0-.143.143z" clip-rule="evenodd"/>
        <path fill="#000" d="m14.149 14.8-.026-.125.066-.012.031.154.035.155-.066.014-.029-.12-.154.046.029.125-.066.015-.071-.312.065-.014.029.123.157-.046z"/>
    </g>
    <defs>
        <clipPath id="POOH__a">
            <path fill="#fff" d="M0 0h24v24H0z"/>
        </clipPath>
    </defs>
</svg>
