<svg xmlns="http://www.w3.org/2000/svg" width="24" height="24" fill="none" viewBox="0 0 24 24">
    <g clip-path="url(#PRIME__a)">
        <path fill="#ED1651" d="M24 0H0v24h24z"/>
        <path fill="#fff" d="M13.333 4.889h-2.666v7.777l1.333.667 1.333-.667zm-6.666 4H4l.844 3.795a.45.45 0 0 0 .236.298l1.982.996a.89.89 0 0 1 .494.795v3.005l3.11 1.333v-3.778l-2.488-1.147a.89.89 0 0 1-.494-.622zm6.666 10.222v-3.778l2.49-1.147a.89.89 0 0 0 .493-.622l1.017-4.675H20l-.844 3.795a.45.45 0 0 1-.236.298l-1.982.996a.89.89 0 0 0-.494.795v3.005z"/>
    </g>
    <defs>
        <clipPath id="PRIME__a">
            <path fill="#fff" d="M0 0h24v24H0z"/>
        </clipPath>
    </defs>
</svg>
