<svg xmlns="http://www.w3.org/2000/svg" width="24" height="24" fill="none" viewBox="0 0 24 24">
    <g clip-path="url(#RAI__a)">
        <path fill="#fff" d="M24 0H0v24h24z"/>
        <path fill="#68FEE2" d="m6.312 9.02-.484 1.392a.86.86 0 0 0 .044.68l1.973 3.857a.733.733 0 0 0 1.262.071l5.422-8.19a1 1 0 0 0 .133-.307l.334-1.631a.711.711 0 0 0-1.085-.756l-7.24 4.44a.9.9 0 0 0-.359.453z"/>
        <path fill="#1FC9A8" d="M8.32 15.333a.75.75 0 0 0 .707-.205l5.795-10.88C14.6 4 14.28 3.96 13.947 4.16L6.672 8.578a.8.8 0 0 0-.222.204l1.87 6.555z"/>
        <path fill="#A5E9DC" d="m12.076 9.4-.614-2.564-.444.689.64 2.666zm-1.014 1.902-.969-3.813-1.106.422 1.169 5.093z"/>
        <path fill="#19898A" d="m6.502 8.733 6.804-1.671 1.525-2.827a.724.724 0 0 0-.92-.124L6.689 8.577a1 1 0 0 0-.187.16z"/>
        <path fill="#68FEE2" d="m17.688 14.976.485-1.39a.86.86 0 0 0-.045-.68l-1.973-3.858a.734.734 0 0 0-1.262-.072l-5.426 8.191a1 1 0 0 0-.134.307L9 19.104a.733.733 0 0 0 1.111.774l7.213-4.453a.9.9 0 0 0 .36-.453z"/>
        <path fill="#1FC9A8" d="M15.68 8.674a.73.73 0 0 0-.706.2L9.179 19.758c.222.244.59.262.92.058l7.23-4.387a.8.8 0 0 0 .223-.204z"/>
        <path fill="#19898A" d="m17.555 15.222-6.853 1.68L9.17 19.75c.218.25.6.343.969.138l7.24-4.489a.6.6 0 0 0 .177-.177"/>
        <path fill="#A5E9DC" d="m16.4 11.185-2.044-1.15-.33.612 2.645 1.485zm.618 2.16-3.449-1.83-.475.888c.733.387 2.933 1.613 4.342 2.404z"/>
        <path fill="#fff" d="M8 7.11c0 .65-.604.885-.906.92.302-.021.902.116.902.858 0-.684.582-.857.875-.857-.697 0-.875-.614-.875-.92zm3.12 1.334c0 .324-.302.444-.453.462.15-.013.453.058.453.427 0-.342.289-.427.436-.427-.351 0-.436-.31-.436-.462m2.218 8.11c0 .245-.222.334-.338.347.111-.009.338.045.338.32 0-.258.222-.32.329-.32-.263 0-.33-.23-.33-.346"/>
    </g>
    <defs>
        <clipPath id="RAI__a">
            <path fill="#fff" d="M0 0h24v24H0z"/>
        </clipPath>
    </defs>
</svg>
