<svg xmlns="http://www.w3.org/2000/svg" width="24" height="24" fill="none" viewBox="0 0 24 24">
    <g clip-path="url(#RAVEN__a)">
        <path fill="url(#RAVEN__b)" d="M24 0H0v24h24z"/>
        <path fill="#fff" d="M16.412 10.094c.206.268.48.478.792.608q.049.023-.004.028c-.4.056-.784.02-1.16-.108q-.119-.042-.028.048.229.215.536.304c.092.024.088.044 0 .064-.412.08-.796.044-1.148-.096q-.053-.023-.04.032c.04.112.268.204.364.248q.065.038-.008.04-.391.053-.824-.068c-.048-.012-.052 0-.02.032a.8.8 0 0 0 .26.172q.072.03 0 .048c-.548.144-1.24.232-1.728-.056q-.036-.024-.06.012c-.202.31-.318.67-.336 1.04q-.024.3.12.6.258.572.648 1.12c.18.252.312.548.468.824.192.344.2.704-.064 1.02q-.029.035-.04-.008a6.7 6.7 0 0 0-.628-1.684c0-.012-.012-.012-.02-.008l-.02.008q.17.444.352.884c.22.52.144.92-.328 1.22q-.041.029-.04-.02a7.5 7.5 0 0 0-.408-1.896h-.036l-.004.012c.072.264.096.528.172.8.144.516.184 1-.348 1.336-.028.016-.044.012-.052-.02a3 3 0 0 1-.088-.4 38 38 0 0 1-.2-1.5h-.044q.06.659.048 1.3a.84.84 0 0 1-.44.76.08.08 0 0 1-.072 0c-.28-.144-.432-.408-.444-.792a7.3 7.3 0 0 1 .06-1.24l-.007-.014-.013-.01-.012-.004h-.02q-.012-.005-.012.008-.095.919-.172 1.4a3 3 0 0 1-.12.492c-.008.028-.024.036-.048.016q-.493-.342-.428-.816.098-.66.264-1.308l-.02-.012-.008-.003h-.008l-.007.005-.005.006a7 7 0 0 0-.4 1.872q.001.059-.052.028c-.308-.208-.456-.464-.432-.76.008-.16.06-.344.148-.548q.18-.412.336-.832l-.02-.012q-.011-.002-.016.008c-.16.304-.308.62-.44.96-.096.24-.144.492-.2.748q-.017.072-.064.012c-.404-.536-.096-.884.144-1.38q.08-.167.184-.32c.303-.416.561-.863.772-1.332.208-.496.032-1.1-.232-1.532q-.044-.078-.124-.036c-.5.28-1.144.192-1.692.064-.076-.02-.08-.04 0-.072a.7.7 0 0 0 .224-.152q.059-.059-.02-.04a2.2 2.2 0 0 1-.752.08c-.12-.004-.12-.032-.012-.08a.9.9 0 0 0 .3-.216q.06-.065-.024-.04-.583.222-1.172.096-.114-.031 0-.056c.217-.055.415-.172.568-.336q.053-.053-.02-.028-.547.192-1.184.12-.059-.007-.004-.032c.288-.12.54-.304.748-.544.088-.096.072-.112-.04-.048a2.17 2.17 0 0 1-1.724.224q-.048-.018 0-.024c.568-.08 1.056-.252 1.428-.716q.061-.077-.028-.04c-.84.348-1.968.428-2.768-.084q-.091-.06.016-.048 1.019.132 1.948-.12c.212-.052.376-.128.496-.22q.058-.047-.016-.04c-.52.068-.992.112-1.5 0a2.5 2.5 0 0 1-1.312-.74c-.076-.08-.06-.096.04-.056.82.348 1.816.492 2.708.324q.253-.048-.004-.072c-.556-.048-1.248-.28-1.592-.72a3 3 0 0 1-.216-.312c-.048-.08-.032-.088.04-.036a2.77 2.77 0 0 0 2.28.468c.08-.016.08-.04.012-.072a1.2 1.2 0 0 1-.56-.54q-.059-.12.056-.06a5.1 5.1 0 0 0 1.796.568c.376.048.588.384.876.584q.445.319.908.488.576.215.816-.404a1.57 1.57 0 0 1 .92-.972c.188-.068.42-.12.704-.14q.371-.032.748-.088.071-.013.016.04-.356.268-.636.616-.332.438-.004.864c.14.184.456.16.648.088a3.8 3.8 0 0 0 1.348-.86.8.8 0 0 1 .408-.212 5.2 5.2 0 0 0 1.864-.584q.065-.036.04.036c-.112.25-.311.45-.56.564-.088.04-.08.072.012.092.696.14 1.336.052 1.908-.26.132-.072.252-.148.38-.228.04-.024.044-.02.024.02a1.6 1.6 0 0 1-.396.52 2.56 2.56 0 0 1-1.4.536q-.276.028 0 .08c2.096.4 2.768-.344 2.768-.336-.112.136-.24.26-.372.36a2.76 2.76 0 0 1-1.856.512 7 7 0 0 1-.628-.068q-.077-.013-.016.04c.1.08.208.132.32.168q1.045.33 2.144.168.084-.013.012.04c-.784.52-1.936.448-2.76.104q-.119-.049-.04.052c.364.44.848.612 1.4.696.04.004.044.016 0 .028a2.2 2.2 0 0 1-1.776-.264c-.016-.012-.036.008-.02.02z"/>
    </g>
    <defs>
        <linearGradient id="RAVEN__b" x1="12.004" x2="12.004" y1="7.202" y2="16.802" gradientUnits="userSpaceOnUse">
            <stop stop-color="#092B38"/>
            <stop offset="1" stop-color="#495764"/>
        </linearGradient>
        <clipPath id="RAVEN__a">
            <path fill="#fff" d="M0 0h24v24H0z"/>
        </clipPath>
    </defs>
</svg>
