<svg xmlns="http://www.w3.org/2000/svg" width="24" height="24" fill="none" viewBox="0 0 24 24">
    <g clip-path="url(#RBX__a)">
        <path fill="#fff" d="M24 0H0v24h24z"/>
        <path fill="#00309D" d="M7.109 5.545 4 13.655l5.13 5.66 8.191-.385L20 10.734l-4.727-6.048z"/>
        <path fill="#062682" d="m7.314 5.806-2.976 7.78 4.92 5.436 7.862-.37 2.565-7.868L15.15 4.98z"/>
        <path fill="#0541D6" d="m7.977 6.684-2.56 6.674 4.23 4.663 6.751-.315 2.208-6.747-3.895-4.983z"/>
        <path fill="#409BEA" d="m8.526 7.406-2.208 5.773 3.652 4.028 5.83-.275 1.905-5.837-3.364-4.302z"/>
        <path fill="#58C5F5" d="m9.024 8.082-1.898 4.923 3.132 3.438 5.001-.233 1.637-4.974-2.885-3.67-4.987.52z"/>
        <path fill="#BAFCFD" d="m9.518 8.722-1.582 4.115 2.615 2.88 4.169-.197 1.362-4.16-2.404-3.072z"/>
        <path fill="#E1FFFE" d="M11.845 11.292 7.077 5.614l.105-.092L12 11.264l-2.788 8.037-.128-.046 2.76-7.959z"/>
        <path fill="#E1FFFE" d="m15.182 4.91 4.581 5.856-2.597 7.95-7.936.375-4.969-5.486L7.27 5.742zm-7.817.96-2.948 7.703 4.873 5.376 7.776-.366 2.546-7.785-4.489-5.746z"/>
        <path fill="#E1FFFE" d="m13.075 11.132 2.24-6.377-.128-.046-2.93 8.338-8.152.563.01.137 8.16-.567 4.996 5.815.1-.087-4.991-5.81.64-1.829 6.962-.448-.01-.137-6.902.448z"/>
    </g>
    <defs>
        <clipPath id="RBX__a">
            <path fill="#fff" d="M0 0h24v24H0z"/>
        </clipPath>
    </defs>
</svg>
