<svg xmlns="http://www.w3.org/2000/svg" width="24" height="24" fill="none" viewBox="0 0 24 24">
    <g clip-path="url(#RFD__a)">
        <path fill="#fff" d="M24 0H0v24h24z"/>
        <path fill="#fff" d="m17.387 7.581-.141.348c-.028.057-.052.057-.085.005l-.07-.118c-.02-.033-.038-.033-.062 0a.18.18 0 0 1-.113.085c-.607.122-1.218.235-1.835.33l-.654.126q-.381.085-.579.118h-2.47l-.005-.837q.001-.063-.061-.062l-.725-.014q-.107.001-.108.108l-.01.8-3.552.015.005-.862q0-.042-.043-.042l-.776.005c-.038 0-.052-.02-.057-.052l-.014-.73q0-.112.113-.112H7.76q.05 0 .052-.057V4.97c0-.042.024-.06.061-.06h.772c.038 0 .056.013.056.056l.014.771c0 .047.024.066.071.066h.739q.07 0 .07-.066l-.014-.753c0-.07.033-.103.109-.103l.687.028q.092.002.094-.09l.018-.729q0-.09.09-.089h3.37c.06 0 .093.028.093.094v.71q0 .074.07.076l.754.023c.047 0 .07-.018.07-.065l-.014-.786c0-.028.014-.047.043-.047l.785.004c.052 0 .08.029.076.08v.73c0 .042-.024.061-.061.061l-.796.033a.045.045 0 0 0-.047.047l.014.758c0 .047.029.075.076.08l.771.009q.043 0 .043.042l.005.758q0 .07.07.07h.767q.057 0 .057-.056l-.01-.753c0-.047.019-.066.056-.066h.782c.033 0 .047.02.047.047l-.014.767c0 .038-.024.052-.057.052l-.734-.01c-.056 0-.085.024-.085.08v.754q.001.084.095.084zm1.115.584-.564-.142a.5.5 0 0 0-.132-.01l-.137.01a.13.13 0 0 0-.018-.07q-.03-.042-.052 0-.063.085-.118.052a.7.7 0 0 1 .07-.165q.08-.126-.06-.075a.12.12 0 0 0-.08.094c0 .018-.02.023-.038.014l-.024-.01V7.86a.35.35 0 0 0 .057-.264l.132-.033q.048-.013.047-.061v-.739q.001-.084.08-.084h.753q.07 0 .07.07z"/>
        <path fill="#AB8A67" d="M11.379 8.47h-.908l.01-.8q.001-.106.107-.107l.725.014q.062-.002.061.06z"/>
        <path fill="#E32262" d="m17.388 7.581.018.014a.34.34 0 0 1-.056.264l.024.014q.029.016.037-.019c.01-.047.038-.075.08-.094q.14-.041.061.08a.7.7 0 0 0-.07.165c-.508.065-1.021.15-1.53.249q-.196.04-.597.104l-.428.065a2 2 0 0 0-.462.16 1.8 1.8 0 0 1-.785.17 1.9 1.9 0 0 0-.607.084.16.16 0 0 1-.08 0l-.118-.028a.08.08 0 0 0-.066.01l-.099.066a2.5 2.5 0 0 1-.499.249q-.944.29-1.882.607-.05.017-.066.047c-.019.028-.004.061.033.094q-.033 0-.047.014A5 5 0 0 0 8.602 9.7q-.055 0-.061-.029c0-.023 0-.047.024-.089a.53.53 0 0 0 .188-.292q0-.015.014-.01l.023.006v.009q-.097.141 0 .254a.06.06 0 0 0 .062.019.8.8 0 0 1 .277-.01c.259.038.518.085.786.137.024 0 .047 0 .066-.01a.2.2 0 0 0 .042-.028.14.14 0 0 1 .057-.033c.748-.254 1.449-.48 2.103-.691a1 1 0 0 0 .221-.104l.156-.085a.08.08 0 0 0 .056-.056l.038-.08q.02-.048.06-.019a.43.43 0 0 0 .368.075 3.3 3.3 0 0 1 .663-.084c.095-.005.128-.043.104-.104q.198-.034.579-.117l.65-.128a37 37 0 0 0 1.834-.329.18.18 0 0 0 .118-.085c.024-.033.047-.033.061 0l.07.118c.034.052.057.047.08 0l.142-.353z"/>
        <path fill="#E645F4" d="M17.67 8.023q-.05.072-.01.108.023.022.08.024.276 0 .396.028l.88.25.522.606c.108.744-.094 1.309-.612 1.704a10 10 0 0 0-.814.532.6.6 0 0 0-.113.112l-.028.038a.35.35 0 0 1-.122.094l-.65.297a1.2 1.2 0 0 1-.485.329l-.31.118a.6.6 0 0 0-.25.235q-.147.257-.14.541a.78.78 0 0 0-.175.55c-.094 0-.146-.08-.146-.253l.1-.386a.14.14 0 0 0 0-.08.35.35 0 0 1 0-.236q.018-.055-.034-.033-.149.07-.141.189-.029.05-.099.042l-.042-.221q-.008-.05-.057-.038l-1.825.617q-.395.034-.4-.127a1.8 1.8 0 0 1 .4-.1.25.25 0 0 0 .22-.15.16.16 0 0 1 .071-.075q.086-.049.165-.113c.141-.118.132-.141-.038-.061-.047.019-.117.019-.22 0l.183-.141q.09 0 .258-.141c.137-.123.405-.269.815-.429q.296-.12.536-.395.043-.048-.014-.075a.07.07 0 0 1-.042-.075c.066-.443.16-.805.291-1.088q.265-.57.462-1.167c0-.028-.015-.047-.048-.047a.7.7 0 0 0-.353.047l-.447.113-.155-.009c-.028 0-.028-.014-.01-.028q.205-.17.453-.264-.214.017-.42.104a.5.5 0 0 0-.126.094.5.5 0 0 1-.156.099c-.08.028-.207.06-.376.108a7.4 7.4 0 0 0-.974.315c-.141.066-.297.127-.452.188q-.119.043-.132.156c0 .028-.01.056-.018.084l-.057.142q-.015.05-.038 0l-.018-.033c-.015-.033-.029-.038-.052-.01a.14.14 0 0 0-.038.076c-.005.032.01.056.043.06.155.038.282.015.39-.075l.663-.042q.36.086.72.108c.015 0 .024.01.029.02q.021.026-.014.032l-.283.028a.32.32 0 0 0-.193.01l-.188.06q-.181.056-.353.137c.188-.018.367-.056.541-.103q.072-.021.052.141-.175.058-.117.094-.58.24-1.196.41a1.2 1.2 0 0 0-.235.117 1.4 1.4 0 0 1-.174.104.07.07 0 0 0-.047.047l-.108.343a.08.08 0 0 0 .018.07q.093.093.029.213a.13.13 0 0 1-.047.051.13.13 0 0 0-.08.137c.014.16-.047.277-.17.343a.1.1 0 0 0-.047.047 3 3 0 0 0-.188.462.1.1 0 0 1-.047.06.56.56 0 0 0-.202.227c-.01.023 0 .037.014.047a.07.07 0 0 1-.048.014h-.032a.1.1 0 0 1-.047 0l.014-.104q.014-.224-.1-.033-.126.2-.258.396l-.019-.01q-.021-.015 0-.037a.4.4 0 0 0 .061-.146c.014-.047 0-.047-.033-.02a.45.45 0 0 0-.127.245c0 .034.005.057.029.076l.14.127c0 .033-.018.061-.046.094a.5.5 0 0 0-.174-.08.4.4 0 0 0-.127.019.08.08 0 0 1-.071 0c-.047-.028-.042-.057 0-.094-.028-.15-.165-.236-.4-.264a.5.5 0 0 1-.188-.066c-.024-.019-.047-.014-.07.005-.029.028-.034.066-.005.104.004.023-.02.037-.08.047a.15.15 0 0 0-.109-.052c-.117.019-.244-.019-.386-.123q-.089-.23-.305-.202l-.273-.207a2 2 0 0 0-.95-.55q-.286-.072-.387.188a3.3 3.3 0 0 1-.301.63l-.099.113c.01-.099 0-.174-.033-.216-.047-.061-.08-.057-.108.01q-.106.273-.268.446l-.235.447q.026-.331.16-.635c.014-.024.004-.038-.024-.028q-.022.002-.028.023l-.31.556-.274.428H6.16l-.024-.01c-.01 0-.01-.01-.01-.018l.114-.443.3-.988.029-.141c.005-.024 0-.038-.028-.033-.189 0-.367.038-.518.103a4 4 0 0 0-.423.231l-.203.019q-.028-.002-.028-.024l-.005-.023c0-.014 0-.019.014-.024a.3.3 0 0 1 .104-.014c.028 0 .047-.014.047-.042l.005-.09h.023l.047-.018q.368-.284.777-.518a1.18 1.18 0 0 0 .579-.697q.12-.452.296-.856a.1.1 0 0 0 0-.08l-.047-.141q.04-.05.038-.08-.008-.021-.057-.028a2.1 2.1 0 0 0-.885.15l-.112.024a.25.25 0 0 1-.095-.09.06.06 0 0 0-.028-.024.06.06 0 0 0-.038-.004h-.047a.1.1 0 0 1-.047.005l-.955.245c-.01 0-.019 0-.023-.02l-.01-.037c0-.014 0-.023.014-.028l.39-.146.08-.052.08-.047a15.4 15.4 0 0 1 2.048-.65.1.1 0 0 0 .07-.07l.123-.405.343-.682c0-.005.01-.01.014-.005l.02.01c.013 0 .018.014.009.023q-.135.295-.156.612c0 .075.014.085.057.019a1.8 1.8 0 0 0 .23-.457c0-.009.01-.014.02-.009.013 0 .013.01.013.019l-.103.414q-.064.213.028.235a.7.7 0 0 0-.127.198q-.02.043.024.028.09-.029.202-.198l.07-.098c.033.028.062.047.085.042q.036-.009.014-.038l-.066-.089a.06.06 0 0 1-.004-.056q.027-.07.127-.076.085-.001.037.061-.12.156-.028.254-.03.056-.023.09c0 .019.023.028.06.028q.297.015.594.01c.193 0 .546.06 1.054.188l.075.094q.367.289.226.593c-.085.174-.268.362-.56.565a3 3 0 0 0-.296.225l-.344.302q-.196.16-.423.268-.05.03 0 .061c.08.056.164.09.268.103l1.124.8.438.452c.033.028.061.047.085.047q.043 0 .052-.042l.409-1.487a.15.15 0 0 0-.01-.104q-.02-.047.029-.075a.2.2 0 0 0 .052-.047c.032-.042.023-.056-.029-.052a.33.33 0 0 0-.193.09l-.705.235c-.029.005-.048 0-.062-.028q-.016-.037.02-.123h.126a.1.1 0 0 0-.019.033c-.014.029 0 .038.024.033a.32.32 0 0 0 .202-.15.8.8 0 0 1 .316-.226q.02-.001.014-.024l-.014-.037q-.007-.022-.033-.014l-.358.14a.2.2 0 0 1-.08.01.6.6 0 0 0-.245.014c-.047-.033-.047-.075.014-.127q.031-.02-.004-.033a.04.04 0 0 0-.038 0 1 1 0 0 1-.282.094c.009-.014.004-.028 0-.047 0-.023.004-.042.028-.052l.099-.056q.754-.264 1.468-.621.112-.057.132-.141.046-.191.122-.396a.24.24 0 0 0 .047-.155.24.24 0 0 1 .038-.141v-.028a.04.04 0 0 0-.024-.01.04.04 0 0 0-.047.024c-.047.099-.141.141-.282.117a.27.27 0 0 1 .122-.113l-.019-.014a.02.02 0 0 0-.023 0l-.358.109-.376.113-.26.023-.046-.023a.35.35 0 0 0 .16-.118c.014-.024.01-.047-.019-.052a.6.6 0 0 0-.33-.005l-.169-.014c-.033-.037-.047-.07-.028-.098q.015-.032.07-.048a62 62 0 0 1 1.878-.607q.322-.113.598-.315a.1.1 0 0 1 .066-.01l.117.029h.08a1.8 1.8 0 0 1 .612-.085c.259 0 .522-.051.781-.17a2 2 0 0 1 .461-.16l.424-.065c.273-.047.47-.075.602-.104a22 22 0 0 1 1.53-.249q.055.035.117-.052.022-.042.052 0 .017.022.019.07"/>
        <path fill="#E32262" d="M17.67 8.024c.043 0 .085 0 .137-.01.042 0 .085 0 .127.01l.565.14q.322.079.517.269l-.88-.25a1.6 1.6 0 0 0-.395-.028q-.058-.002-.08-.023-.04-.037.01-.108"/>
        <path fill="#000" d="m6.918 8.484 3.553-.014h3.379q.036.1-.104.108-.404.022-.659.085a.43.43 0 0 1-.376-.075c-.024-.019-.047-.014-.056.019l-.038.08a.1.1 0 0 1-.057.056l-.155.085c-.094.052-.17.09-.221.103-.659.212-1.355.438-2.103.692a.14.14 0 0 0-.057.033.2.2 0 0 1-.042.028.1.1 0 0 1-.066.01q-.392-.078-.786-.137a.8.8 0 0 0-.278.01c-.023.004-.047 0-.06-.02q-.1-.112 0-.253v-.01l-.024-.004q-.013-.006-.02.009a.48.48 0 0 1-.187.292q-.086-.099.033-.254.047-.063-.038-.062-.099.007-.127.076a.06.06 0 0 0 .005.056l.065.094c.015.014.01.029-.014.033q-.034.001-.084-.047c-.062-.066-.095-.09-.113-.06l-.085-.1.103-.414c0-.01 0-.019-.014-.019-.009-.004-.018 0-.018.01-.057.164-.132.32-.231.456-.042.066-.061.057-.056-.019a1.8 1.8 0 0 1 .155-.611c.01-.01 0-.02-.01-.024l-.018-.01-.015.005-.343.683q.101-.405.212-.81h-.005c-.014 0-.024 0-.024.014-.075.198-.15.377-.235.537a4 4 0 0 0-.245.536.08.08 0 0 1-.051.047l-1.388.377.004-.734.01-.819q0-.042.042-.042h.842z"/>
        <path fill="#E32262" d="m7.755 9.375-.123.405a.1.1 0 0 1-.07.07q-1.089.27-2.127.697l-.08.051q-.134-.064-.344.034-.056.021-.084 0c-.024-.02-.02-.038.004-.047l.621-.335a1.2 1.2 0 0 0 .466-.174L7.407 9.7a.1.1 0 0 0 .051-.047l.033-.085c.08-.193.146-.343.207-.452a3.3 3.3 0 0 0 .236-.536q.006-.02.028-.019l.004.005v.019z"/>
        <path fill="#AB8A67" d="M14.785 8.96c.108-.023.193-.06.188-.08-.004-.019-.094-.014-.207.01-.108.023-.188.06-.188.08.01.023.099.018.207-.01"/>
        <path fill="#DBF127" d="m15.435 9.167-.244.193a.2.2 0 0 1-.08.042c-.63.137-1.12.292-1.46.461q-.103.048-.216.076a.1.1 0 0 0-.06.037q-.014.021-.005.028a.35.35 0 0 0-.066.17.43.43 0 0 1-.396.075q-.048-.01-.047-.061a.14.14 0 0 1 .043-.075q.036-.041.051.01l.02.032q.02.05.037 0l.056-.141a.3.3 0 0 0 .02-.085q.012-.113.13-.155.234-.09.453-.188c.202-.094.522-.198.97-.316.173-.047.3-.08.38-.108a.5.5 0 0 0 .155-.094.3.3 0 0 1 .127-.094 1.2 1.2 0 0 1 .424-.108q-.253.092-.456.263c-.02.014-.02.024.009.028zm2.937-.042-.005.037c0 .014-.014.028-.028.033-.02.01-.029 0-.029-.014l-.592-.033q-.043-.001-.057.047l-.042.15q-.008.029-.024.005l-.014-.014c0-.01-.01-.014-.019-.014a.09.09 0 0 0-.08.047q-.017.05-.047.01a.1.1 0 0 0-.037-.047c-.047-.033-.066-.024-.047.037l.009.02c.005.027.024.037.047.032a.16.16 0 0 1 .137.019c.028.019.037.047.028.075a.12.12 0 0 1-.052.075.08.08 0 0 0-.038.062.5.5 0 0 1-.047.155.56.56 0 0 0-.165.212.2.2 0 0 0-.018.066q0 .043-.033.051c-.047.014-.052.038-.014.061.033.024.056.029.07.024l-.15.395q-.014.034-.047.033c-.047 0-.076.019-.1.061-.023.047-.013.047.02.014q.085-.083.136-.033a.9.9 0 0 0-.122.283c-.047.056-.085.094-.118.094a.12.12 0 0 1-.118-.047.12.12 0 0 1-.009-.132c.094-.207.184-.423.259-.654a.2.2 0 0 1 .075-.099q.042-.036 0-.066l-.08-.056q.346-.13.198-.4.083-.099.047-.198a.1.1 0 0 1-.019-.056c.005-.028.023-.047.047-.043.047 0 .057-.014.047-.051l-.005-.033c0-.047.024-.08.057-.104a.24.24 0 0 0 .094-.122.08.08 0 0 1 .07-.057q.439-.043.815.175m-2.141.08-.245.06a13 13 0 0 0-.63.109v-.01q-.002-.015.018-.023c.174-.075.344-.174.508-.282a.7.7 0 0 1 .358-.052c.028 0 .042.019.042.047a.3.3 0 0 1-.051.15"/>
        <path fill="#000" d="M15.883 9.055a3 3 0 0 1-.508.287q-.021.008-.02.023v.01c.005.01.01.01.02.01.197-.048.404-.08.611-.119a1.7 1.7 0 0 1-.117.396 7 7 0 0 0-.48 1.176.5.5 0 0 0-.02.165.4.4 0 0 1-.046.197c-.038.057-.024.095.047.104q.029.008.056-.019c.02-.014.024-.01.02.014v.029q-.318.318-.838.489-.163.063-.302.17-.142.098-.225.14a.13.13 0 0 0-.062.057c-.066.104-.221.193-.475.268-.047.01-.047.024 0 .033q.051.02.104 0a.48.48 0 0 1 .329-.061l-.184.141-.16.057q-.05.017 0 .033a.06.06 0 0 0 .057 0c.038-.02.047-.005.042.033 0 .018-.014.032-.033.042q-.284.135-.63.193l-.847-.014q.036-.236.193-.287a.1.1 0 0 0 .06-.062.47.47 0 0 0 .015-.31.05.05 0 0 1 .019-.052.05.05 0 0 1 .033-.01q.022.002.023.024c0 .01 0 .02.01.024.014.023.028.019.033-.005a6 6 0 0 1 .338-.856.1.1 0 0 1 .066-.057q.462-.16.927-.31a2.5 2.5 0 0 0 .433-.189c.01 0 .01-.01 0-.019l-.014-.018h-.005a.17.17 0 0 1-.108.033q-.07-.001-.005-.024c.26-.094.509-.16.749-.212q.077-.016 0-.023a2.2 2.2 0 0 0-.833.108q-.058-.042.117-.099c.132-.023.25-.07.353-.131q.036-.022 0-.029a.8.8 0 0 1-.211-.084l.282-.029c.023 0 .028-.014.014-.033q-.007-.013-.028-.018a4.6 4.6 0 0 1-.72-.109l.155-.094q.041-.034-.01-.033h-.743c-.005-.005 0-.014.005-.028a.1.1 0 0 1 .061-.038c.075-.018.146-.047.212-.075.343-.17.833-.33 1.459-.461a.2.2 0 0 0 .084-.042l.245-.193.447-.113z"/>
        <path fill="#DBF127" d="M19.538 9.034q.24.162.226.579c-.006.37-.127.729-.348 1.026a.1.1 0 0 0-.024.047l-.004.066h-.048l-.395.362a1.3 1.3 0 0 0-.466.377.46.46 0 0 0-.244.122.3.3 0 0 1-.094.07q-.615.24-1.003.523a.7.7 0 0 1-.315.132c-.014 0-.019 0-.019-.014v-.033c0-.02-.01-.024-.023-.029-.01 0-.02 0-.028.01q-.024.015-.01.037l.019.024q.055.042-.01.056c-.197.057-.329.142-.376.264A8 8 0 0 0 16 13.655l-.095-.023c.09-.221.123-.42.109-.593a1 1 0 0 1 .14-.541.6.6 0 0 1 .25-.236c.01-.004.113-.047.31-.113q.254-.09.485-.329c.062.01.095.066.085.16 0 .07 0 .07.019 0l.023-.047a.14.14 0 0 1 .043-.047q.212-.14.461-.23a.55.55 0 0 0 .306-.24.14.14 0 0 1 .047-.048 2.9 2.9 0 0 0 .739-.626q.777-.59.616-1.703z"/>
        <path fill="#E32262" d="M8.494 9.129a.1.1 0 0 1 .042-.033c.047-.014.052 0 .024.037a.1.1 0 0 1-.029.024 1 1 0 0 0-.216.136c-.061.047-.075.033-.047-.033q.051-.12.165-.113c.023 0 .047-.004.06-.023zm9.877-.005q.213.516-.146.97a2.83 2.83 0 0 1-1.214.875.9.9 0 0 1 .122-.278 2.9 2.9 0 0 0 1.06-.894q.082-.119.117-.612 0 .022.028.01a.04.04 0 0 0 .028-.033v-.038z"/>
        <path fill="#AB8A67" d="M19.374 9.276c0 .084.01.155.028.155.02 0 .043-.066.047-.15 0-.085-.009-.156-.028-.156s-.042.066-.047.15M17.266 9.2q0 .056-.056.047-.043-.005-.029-.047a.1.1 0 0 1 .07-.066c.01 0 .02 0 .03.01q.026.033-.01.047z"/>
        <path fill="#000" d="M18.31 9.18c-.023.33-.06.537-.117.612-.274.382-.638.69-1.059.9q-.05-.052-.14.032c-.029.033-.038.028-.015-.014q.035-.07.104-.061.028 0 .042-.033l.15-.395a.8.8 0 0 0 .165-.415c.019-.047.038-.094.043-.155q.001-.041.037-.061a.14.14 0 0 0 .052-.075q.015-.049-.028-.076a.15.15 0 0 0-.132-.018c-.028.004-.047 0-.052-.033l-.01-.02q-.025-.088.048-.037.029.017.042.047c.014.028.033.024.047-.004q.017-.049.076-.048c.009 0 .018 0 .018.01 0 .005.005.014.015.014q.014.021.023 0l.042-.16c.01-.028.029-.047.057-.042z"/>
        <path fill="#E32262" d="M16.23 9.205q-.18.518-.41 1.016c-.131.282-.225.645-.291 1.082 0 .038.01.066.047.08q.05.031.01.076-.24.275-.537.395c-.41.16-.678.306-.814.423q-.168.148-.259.146a.48.48 0 0 0-.33.062.14.14 0 0 1-.103 0q-.07-.017 0-.034.38-.112.47-.268a.13.13 0 0 1 .067-.056q.084-.042.225-.141c.123-.09.222-.142.302-.17a2.1 2.1 0 0 0 .837-.499.03.03 0 0 1 0-.018q.008-.036-.019-.014a.07.07 0 0 1-.06.018c-.067-.01-.08-.047-.048-.103a.35.35 0 0 0 .047-.198c0-.056.01-.108.024-.17q.183-.591.48-1.176.069-.127.117-.39z"/>
        <path fill="#fff" d="m6.023 9.34-.004.735a1.2 1.2 0 0 1-.466.174l-.367-.038c-.028 0-.047-.018-.047-.047v-.72c0-.06.033-.09.09-.094z"/>
        <path fill="#E32262" d="m8.202 9.317.084.1-.056.14q-.091-.027-.028-.24"/>
        <path fill="#DBF127" d="m8.4 9.482-.07.1q-.111.168-.202.197-.044.014-.024-.028a.6.6 0 0 1 .127-.193l.057-.142q.02-.04.113.066"/>
        <path fill="#AB8A67" d="M17.219 9.614c.094.179.033.315-.198.4l-.108-.047q-.087-.032.005-.047l.094-.01q.049-.01.056-.047a.4.4 0 0 1 .15-.25"/>
        <path fill="#DBF127" d="M19.364 9.83a.4.4 0 0 0 .02-.16q0-.03.027-.024h.029c.004.005.01.01.004.02-.065.257-.18.5-.338.714-.01.01-.024.014-.038 0l-.019-.014q-.015-.008 0-.023.155-.19.212-.41a.13.13 0 0 1 .047-.06l.028-.01a.05.05 0 0 0 .028-.033"/>
        <path fill="#AB8A67" d="M17.44 9.806a.8.8 0 0 1-.165.414q-.02.01-.07-.023c-.038-.024-.038-.047.014-.061.023-.005.033-.024.033-.047 0-.029.01-.048.018-.071a.53.53 0 0 1 .17-.212m-5.826.174a.43.43 0 0 0-.258.07q.013-.062-.024-.088l.357-.113.024.004.019.014a.27.27 0 0 0-.118.113"/>
        <path fill="#DBF127" d="m11.877 10.174-.249.131v-.042c0-.033-.014-.033-.038-.01-.033.048-.07.048-.117.024q-.043-.021 0-.042a.1.1 0 0 1 .08 0 .05.05 0 0 0 .047-.01.06.06 0 0 0 .019-.037q.005-.048-.038-.047-.119 0-.202.033a1.9 1.9 0 0 1-.537.127.1.1 0 0 1-.061-.02q-.057-.047.014-.046l.132-.01c.023 0 .042-.014.047-.042.014-.028.005-.061-.014-.108l.371-.113q.038.027.024.09c.141.023.221 0 .259-.071q.204.032.282-.118a.04.04 0 0 1 .043-.023l.018.009q.015.015 0 .028a.25.25 0 0 0-.033.141q-.002.107-.047.156m1.167-.198q-.012.028-.047.028-.022 0-.037-.028a.12.12 0 0 1 0-.085q.013-.028.047-.028c.047.005.056.047.037.113"/>
        <path fill="#696868" d="m10.296 9.883.165.019-.137.094-.075-.094a.07.07 0 0 1 .047-.014z"/>
        <path fill="#DBF127" d="M10.645 10.075q-.03.006-.057-.038a.14.14 0 0 0-.103-.056q-.072 0-.01.042l.123.08c-.015.047-.015.085 0 .099.235.235.235.485.014.762l-.292.287c-.024.024-.047.019-.061 0a.07.07 0 0 1-.02-.047q0-.05.057-.08.22-.182.363-.4c.047-.075.047-.08-.024-.019q-.17.162-.362.4-.179.092-.118.226l-.099.057c-.023.009-.028.028-.023.047v.056l-.108.033a.2.2 0 0 0-.066.038l-.664.546a.6.6 0 0 1-.268-.104q-.05-.03 0-.061l.104-.057q.22-.126.32-.211l.343-.301a3 3 0 0 1 .297-.226c.23-.14.422-.334.56-.565q.14-.304-.226-.588l.136-.094a.65.65 0 0 1 .33 0q.04.021.018.056a.35.35 0 0 1-.164.118"/>
        <path fill="#696868" d="m10.645 10.076.052.024c-.047.009-.08.014-.094.004l-.127-.08q-.07-.043.01-.037a.14.14 0 0 1 .103.052q.028.043.056.037"/>
        <path fill="#E645F4" d="M11.614 9.981q-.055.105-.259.07c.057-.046.142-.065.26-.07"/>
        <path fill="#E32262" d="m13.963 10.132-.66.042q.001-.056.066-.17h.74q.05 0 .009.029z"/>
        <path fill="#696868" d="M11.694 10.094a.2.2 0 0 1 .094-.024q.023-.001.024.02v.027q.001.013-.02.02l-.084.013c-.094.005-.104-.014-.014-.056"/>
        <path fill="#000" d="M10.96 10.075c.018.047.028.08.018.108a.05.05 0 0 1-.051.043l-.132.004q-.07.006-.014.052a.1.1 0 0 0 .061.019 1.9 1.9 0 0 0 .537-.127.5.5 0 0 1 .202-.033c.028 0 .047.014.037.047 0 .014-.009.028-.018.038l-.023.008q-.013.002-.024-.004a.1.1 0 0 0-.08.005q-.044.02 0 .043.069.04.117-.024c.024-.024.033-.024.043.01v.042c-.01.141-.047.23-.123.263a26 26 0 0 1-.899.395c.226-.282.222-.531-.009-.762q-.028-.021 0-.099c.014.01.047.005.094-.004z"/>
        <path fill="#E32262" d="M11.878 10.173c-.047.142-.094.269-.122.4q-.02.079-.132.142c-.47.235-.965.442-1.468.616-.043-.094 0-.165.117-.226-.028 0-.023.005.024.019a.1.1 0 0 0-.057.08c0 .014.005.033.02.047.018.019.037.024.06 0l.292-.287c.31-.132.612-.264.894-.395.08-.033.118-.123.123-.264z"/>
        <path fill="#AB8A67" d="M14.415 10.32a.7.7 0 0 0 .207.084c.028 0 .028.014.004.029a1 1 0 0 1-.353.131q.023-.162-.047-.14a3.4 3.4 0 0 1-.55.098q.112-.056.357-.132l.189-.061a.32.32 0 0 1 .193-.01"/>
        <path fill="#DBF127" d="m7.21 10.63-.16.08-.862.235c-.033.005-.047-.004-.033-.037.02-.038.061-.07.132-.108a.2.2 0 0 0 .019-.128q.425-.17.885-.15c.032 0 .051.014.056.028 0 .019-.01.047-.038.08m1.985.08-.357.019c-.18-.047-.273.019-.283.188-.047.033-.075.094-.085.17 0 .023-.014.037-.032.047q-.037.014-.038-.024v-.09q.008-.056-.047-.023a.06.06 0 0 0-.028.057.12.12 0 0 1-.024.08.2.2 0 0 0-.047.188c-.033.085-.08.118-.132.113q-.056-.014-.028-.057c.052-.098.094-.202.136-.306v-.028q-.026-.029-.047 0l-.08.076q-.054.047-.047-.024c.01-.062.04-.12.085-.165h.019q.05.043.108 0a.12.12 0 0 0 .042-.075c.029-.207.104-.32.231-.33a3.5 3.5 0 0 1 .71.024c.038 0 .057.024.062.061q.008.05-.047.071l-.076.028zm3.021 2.198a.6.6 0 0 0-.103.254.1.1 0 0 1-.043.066q-.177.11-.376.56l-.019.047c0 .01-.01.01-.014.01q-.015-.007-.01-.02.045-.168.076-.343.022-.098-.047-.146-.034-.014-.02-.047a.54.54 0 0 1 .208-.226.1.1 0 0 0 .047-.061q.072-.231.179-.457a.1.1 0 0 1 .047-.047q.197-.107.174-.348 0-.093.075-.136a.13.13 0 0 0 .052-.052q.063-.12-.028-.212a.07.07 0 0 1-.019-.07l.108-.344a.07.07 0 0 1 .047-.047c.043-.019.1-.052.18-.104a1 1 0 0 1 .234-.117c.405-.113.805-.25 1.191-.405.282-.09.565-.122.828-.108q.085.008 0 .024a6 6 0 0 0-.743.211q-.07.022 0 .024a.18.18 0 0 0 .113-.033h.004l.014.019q.015.013 0 .018a2.5 2.5 0 0 1-.433.189c-.324.103-.63.207-.927.31a.1.1 0 0 0-.065.057q-.205.417-.34.856c-.004.024-.018.028-.032.005a.04.04 0 0 1-.01-.024q-.001-.022-.023-.023a.05.05 0 0 0-.033.01.05.05 0 0 0-.019.052.5.5 0 0 1-.014.31.1.1 0 0 1-.061.06c-.104.034-.17.133-.198.283zm-6.272-2.32.047-.005c.047-.01.065.005.065.047q.002.027-.018.033c-.273.17-.57.292-.9.367a.05.05 0 0 1-.032-.005c-.014-.009-.014-.018-.014-.023q.414-.227.847-.414z"/>
        <path fill="#E32262" d="m7.21 10.631.047.142a.1.1 0 0 1 0 .08 6 6 0 0 0-.296.856 1.18 1.18 0 0 1-.58.692 8 8 0 0 0-.776.517.1.1 0 0 1-.047.02l-.023.004q-.058.015-.094-.014c.033-.047.028-.094-.02-.123l.608-.442a2 2 0 0 0 .593-.423.5.5 0 0 0 .117-.203q.198-.58.311-1.026z"/>
        <path fill="#000" d="M10.297 11.125c-.047-.014-.052-.019-.024-.019q.192-.238.363-.4.1-.092.023.019a1.7 1.7 0 0 1-.362.4"/>
        <path fill="#AB8A67" d="M6.305 10.673c.01.047 0 .09-.018.127-.048-.018-.085-.047-.095-.066.01-.014.01-.023 0-.037z"/>
        <path fill="#000" d="M7.05 10.71q-.114.446-.311 1.027a.5.5 0 0 1-.118.202 2 2 0 0 1-.593.424l-.005-1.224q.015-.091 0-.24c-.014-.108.048-.16.17-.165.01.024.047.048.094.066-.07.038-.113.07-.132.109-.014.032 0 .046.033.032zm1.787.02a1.1 1.1 0 0 1-.282.188q.015-.257.282-.188"/>
        <path fill="#E32262" d="m8.838 10.73.353-.02v.03a.07.07 0 0 1-.029.037c-.235.16-.48.31-.73.461-.023.014-.037.01-.046-.024 0-.004-.005-.009-.014-.004a.03.03 0 0 0-.024.023c-.014.066-.047.094-.094.094a.21.21 0 0 1 .047-.193.1.1 0 0 0 .024-.08q0-.042.033-.056.048-.034.047.024v.089q0 .04.033.023a.06.06 0 0 0 .033-.047q.015-.12.08-.169a1 1 0 0 0 .287-.188"/>
        <path fill="#AB8A67" d="M18.923 10.744q-.31.374-.735.62a.14.14 0 0 0-.047.048.6.6 0 0 1-.31.245 2.2 2.2 0 0 0-.461.235.14.14 0 0 0-.066.094c-.014.066-.024.066-.019-.005q.007-.142-.085-.164l.65-.297a.35.35 0 0 0 .15-.132.6.6 0 0 1 .113-.113c.25-.183.518-.357.81-.531"/>
        <path fill="#fff" d="m19.388 10.753-.02.315c0 .028-.018.047-.046.052a1 1 0 0 1-.377 0l.396-.362.011-.004q.008 0 .012.004z"/>
        <path fill="#AB8A67" d="M8.16 10.927h-.018a.16.16 0 0 1 .037-.108q.02-.03.047-.014a.05.05 0 0 1 .029.07c-.024.033-.052.047-.095.052"/>
        <path fill="#fff" d="M6.024 11.139v1.223l-.603.443c-.037-.052-.08 0-.117.155l-1.036-.029q-.034 0-.033-.037l.043-.79q0-.052.056-.052h.739q.057 0 .056-.057l.015-.8q0-.05.051-.052z"/>
        <path fill="#AB8A67" d="M8.047 11.34c-.01.038-.038.057-.075.076-.038.014-.047 0-.033-.033A.2.2 0 0 1 8 11.308q.09-.07.047.037zm4.659-.046c.01.004.014.014.01.018l-.151.34c-.033.075-.062.112-.08.098-.024-.01-.014-.047.018-.127l.15-.339c0-.01.01-.01.015-.005l.042.02z"/>
        <path fill="#000" d="M12.72 11.543a.32.32 0 0 1 .146-.16q.042-.021.014.014a.4.4 0 0 0-.104.235.12.12 0 0 1-.028.071.8.8 0 0 0-.127.24q-.014.021-.033.014l-.019-.005q-.021-.007-.014-.028a3 3 0 0 0 .165-.381m-3.308.245a.4.4 0 0 1 .122-.123q.215-.124.405-.282l.014.014q.02.021-.005.042-.26.176-.508.358a.06.06 0 0 0-.028.047c0 .033-.014.047-.043.052a.8.8 0 0 0-.296.127q-.015.009-.028-.005L9.035 12q-.021-.033.014-.047l.33-.132a.1.1 0 0 0 .033-.032m.927-.236-.603.255c-.009 0-.014.009-.009.018l.01.024c.263-.094.527-.179.8-.264q.042-.015.013.028c-.014.029-.042.048-.075.062-.051.018-.08.051-.07.099q-.035.082-.02.122.023.036.057.023l.706-.235c-.103.07-.235.132-.376.179-.043.014-.062.042-.057.075a.05.05 0 0 0-.038.019c-.075-.014-.117 0-.127.052q-.02.093.071.094a.2.2 0 0 0 .127-.047l.113-.061.25-.047-.297.969-.494-.005-1.13-.804.669-.546.066-.038.108-.033c.094-.023.188-.052.282-.099a.04.04 0 0 1 .033 0q.035.014.005.033-.092.078-.014.127"/>
        <path fill="#DBF127" d="m10.74 11.69-.208.09h-.127c-.01-.048.019-.085.07-.104a.15.15 0 0 0 .076-.061q.03-.043-.019-.029-.402.124-.8.264l-.004-.024c0-.01 0-.018.009-.018l.602-.255a.5.5 0 0 1 .245-.014c.028 0 .052 0 .08-.01l.358-.14c.018 0 .028 0 .033.014l.014.038c0 .014 0 .018-.014.023a.8.8 0 0 0-.316.226"/>
        <path fill="#000" d="m18.48 11.492.015 1.426-1.732.01c-.024 0-.038.009-.038.037v3.445q-.001.09-.094.089l-.706-.01q-.092 0-.094.09l-.014.739c0 .047-.019.066-.061.066l-.762.018c-.038 0-.052.02-.052.052l-.014.758q0 .042-.043.042h-.767c-.047 0-.075.024-.075.076l.014.762c0 .047-.023.066-.066.066h-.786q-.047.005-.046.047v.72c0 .047-.024.066-.066.07l-.81.005q-.013 0-.033-.033l.014-.772q.002-.036-.037-.037l-.8-.02c-.028 0-.043-.018-.043-.046l-.009-.819h2.612c.028 0 .037-.014.042-.038l.028-.79c0-.028.019-.047.047-.047h.781c.033 0 .047-.02.047-.047v-.8c0-.033.02-.047.048-.047h.814c.033 0 .047-.02.047-.047v-2.283c0-.103.042-.25.122-.432l.038-.085q.156-.516.376-1.003c.047-.122.179-.207.377-.263.047-.01.047-.028.009-.056a.1.1 0 0 1-.019-.024c-.01-.014 0-.028.01-.038a.04.04 0 0 1 .028-.01q.022 0 .023.03v.032q-.001.021.02.014a.7.7 0 0 0 .314-.132 4.6 4.6 0 0 1 .998-.522.3.3 0 0 0 .099-.07.46.46 0 0 1 .245-.123"/>
        <path fill="#DBF127" d="M11.303 11.878a.4.4 0 0 1-.193.07l-.25.047q-.026-.07-.145-.056c0-.033.014-.062.056-.076.141-.047.273-.108.377-.174a.33.33 0 0 1 .197-.094c.047 0 .061.014.028.057a.2.2 0 0 1-.051.047c-.033.018-.042.047-.028.075a.16.16 0 0 1 .009.104"/>
        <path fill="#000" d="M10.74 11.689a.3.3 0 0 1-.203.15q-.044.009-.024-.033a.1.1 0 0 1 .02-.028l.206-.094z"/>
        <path fill="#696868" d="M10.894 11.882q.033-.042.08 0 .04.042-.01.056a.2.2 0 0 1-.094.01c-.023 0-.033-.014-.019-.038a.03.03 0 0 1 .012-.013.03.03 0 0 1 .017-.006s.01 0 .014-.009"/>
        <path fill="#E32262" d="m11.303 11.877-.409 1.486c-.005.029-.024.043-.047.043-.028 0-.057-.019-.09-.047a1 1 0 0 1 .057-.443l.296-.969a.36.36 0 0 0 .193-.07"/>
        <path fill="#696868" d="M10.716 11.938q.12-.014.141.057l-.108.066q0-.048-.07-.104a.05.05 0 0 1 .037-.019"/>
        <path fill="#DBF127" d="m9.021 13.025-.277-.17a4 4 0 0 0-.405-.169q-.467-.16-.532.433l-.315.438q-.037.049-.024-.014a.28.28 0 0 0-.084-.25c.103-.16.202-.367.301-.63q.098-.261.386-.189.563.15.95.551"/>
        <path fill="#E32262" d="M13.196 13.062a.85.85 0 0 0-.424.07.2.2 0 0 1-.084.015l-.047.005c-.047.004-.052-.01-.024-.038q.02-.029.047-.028c.188 0 .325-.062.405-.165q.343-.058.63-.193a.05.05 0 0 0 .033-.042q.016-.055-.047-.033a.06.06 0 0 1-.052 0c-.032-.01-.032-.024 0-.033l.16-.061c.104.023.175.023.222 0q.255-.106.037.066a1 1 0 0 1-.164.112.16.16 0 0 0-.07.076q-.06.134-.222.15a1.5 1.5 0 0 0-.4.099"/>
        <path fill="#DBF127" d="M15.52 12.833a.24.24 0 0 0-.145.047c-.415.108-.82.235-1.224.376-.122.047-.325.076-.607.095a2 2 0 0 0-.32.07 3 3 0 0 1-.273.061c-.014 0-.019 0-.028-.01v-.023a.03.03 0 0 1 .023-.014.6.6 0 0 0 .17-.033q.225-.113.48-.211l1.826-.612c.032-.014.047 0 .056.033zm.175.503a.5.5 0 0 1-.142.226c-.018.02-.023.02-.014-.01a2.1 2.1 0 0 0 .165-.677l.019-.07q.015-.056-.047-.033l-.052.023q-.014-.126.141-.188c.028-.019.042-.01.028.024a.35.35 0 0 0 0 .235.14.14 0 0 1 0 .085z"/>
        <path fill="#000" d="M8.743 12.855a.3.3 0 0 0-.047.142v3.416q0 .084.085.085l.753-.01q.048-.001.047.047v3.412c.014.028 0 .047-.042.047h-.786q-.034 0-.033-.028l-.01-3.407c0-.047-.023-.066-.065-.07h-.786q-.057 0-.057-.057l-.014-1.723.019-1.59c.047-.395.221-.541.532-.433q.206.07.404.17m6.96.02c-.061.037-.117.046-.16.013a.07.07 0 0 0-.066 0c-.047.02-.085.02-.103-.009a.24.24 0 0 1 .146-.047q.07.002.103-.038l.057-.023c.037-.02.051-.005.042.033z"/>
        <path fill="#E645F4" d="M5.421 12.799c.047.033.047.075.014.127a.2.2 0 0 1-.131.033c.037-.155.08-.207.117-.155z"/>
        <path fill="#DBF127" d="m6.54 12.979-.235.094a.54.54 0 0 0-.282.127.9.9 0 0 0-.362.15.14.14 0 0 1-.109.024c-.023-.01-.028-.019-.01-.038.057-.047.076-.117.062-.197.174-.108.315-.188.424-.23.145-.067.32-.1.517-.104q.03 0 .024.033z"/>
        <path fill="#AB8A67" d="m9.021 13.025.273.212c.08.179.179.245.306.198.141.103.268.141.386.122-.047-.01-.066 0-.066.028q0 .143.141.254c.024.024.042.015.047-.018.005-.01 0-.02 0-.033q-.041-.051.024-.066c.028 0 .056 0 .08.019l.14.084q.293.056.034-.094a1.5 1.5 0 0 0-.292-.122q.09-.014.08-.047l.663.216c-.042.043-.047.07 0 .094.024.014.047.02.071.005a.3.3 0 0 1 .127-.019l-.038.349c-.009.046 0 .046.024.009l.075-.122a.1.1 0 0 1 .08-.047c.132-.005.283.075.443.249.066.07.08.061.033-.024q-.044-.09-.335-.268l-.108-.07c.028-.029.047-.057.047-.095l.292-.489a.1.1 0 0 0 .047 0q-.037.07-.024.113.016.07.052.005.021-.035 0-.118c.024 0 .038 0 .052-.014.047.033.066.08.052.15a4 4 0 0 1-.075.34c0 .009 0 .013.009.018.005 0 .01 0 .014-.01l.023-.046c.128-.301.255-.485.372-.565a.1.1 0 0 0 .047-.061.5.5 0 0 1 .1-.254l.851.014q-.12.156-.41.165-.02 0-.047.028c-.023.028-.018.047.024.037h.047a.3.3 0 0 0 .094-.018.8.8 0 0 1 .424-.071q0 .162.395.127-.255.098-.48.212a.6.6 0 0 1-.17.033q-.007 0-.014.003a.02.02 0 0 0-.009.01v.024c.01.01.014.01.028.01q.09-.013.273-.061a2 2 0 0 1 .32-.07c.283-.02.485-.048.612-.095q.599-.213 1.219-.377c.018.029.056.029.103.01a.07.07 0 0 1 .066 0c.047.028.094.024.16-.014q-.022.338-.165.678c-.009.028-.004.028.014.009a.5.5 0 0 0 .142-.226q0 .261.14.254l-.008.188c0 .014 0 .02.018.024h.02c.008.005.008 0 .013-.005l.028-.165.095.024-.038.085q-.121.28-.122.433v2.282c0 .028-.014.047-.047.047h-.814c-.029 0-.048.014-.048.047v.8c0 .028-.014.047-.047.047h-.78c-.03 0-.048.019-.048.047l-.028.79q.001.037-.047.038h-2.607l-.028-.823q-.002-.048-.052-.047h-.762c-.033 0-.047.01-.047.042v.744c0 .047.023.075.075.075l.814.01.01.818c0 .028.013.047.046.047l.796.019c.028 0 .037.014.037.038l-.014.771q-.009.023-.038.024H9.624q-.021.001-.042-.047V16.53c0-.028-.014-.047-.047-.047l-.753.014q-.084 0-.085-.085v-3.416a.3.3 0 0 1 .047-.141z"/>
        <path fill="#AB8A67" d="m10.32 12.913.495.004a1 1 0 0 0-.057.443z"/>
        <path fill="#fff" d="m18.494 12.917.819.033q.062-.001.06.061v.725q0 .084-.084.084h-1.647q-.036.002-.037.038l-.024.814c0 .028-.014.038-.042.042l-.814.015v-1.765c0-.028.014-.037.037-.037z"/>
        <path fill="#E32262" d="m6.542 12.978-.302.988-.155.207c-.037-.037-.047-.07-.047-.098l.268-1.008z"/>
        <path fill="#000" d="m15.906 13.632-.028.165c0 .01-.005.01-.014.01l-.019-.006c-.014 0-.023-.009-.019-.023l.014-.188a.8.8 0 0 1 .175-.55c.014.173-.02.376-.109.592"/>
        <path fill="#fff" d="m6.306 13.068-.263 1.008-.019.014q-.022.033-.023-.01c0-.019 0-.037.009-.056a.2.2 0 0 0 .014-.061V13.2a.6.6 0 0 1 .282-.132m1.502.052-.02 1.59-1.717.015q-.042-.001-.042.047l-.014.753q0 .07-.07.07l-.75.014q-.06.002-.06-.06v-.8c0-.029.014-.048.037-.048l.758-.004c.085 0 .118-.047.099-.127a.52.52 0 0 1 .056-.396l.156-.207-.113.443c0 .009 0 .014.01.018l.023.015h.004l.273-.433a2.3 2.3 0 0 1-.094.46q-.072.24.08.043a1.5 1.5 0 0 0 .217-.419l.235-.447q.086.19-.033.47-.02.046.023.02a.1.1 0 0 0 .033-.033q.118-.24.292-.424a.43.43 0 0 0 .094-.273l.1-.108c.07.07.093.15.084.245q-.013.063.023.014z"/>
        <path fill="#DBF127" d="m11.549 13.35-.297.494-.136-.127a.08.08 0 0 1-.028-.075.5.5 0 0 1 .127-.245c.033-.033.047-.029.033.019a.34.34 0 0 1-.066.146q-.016.022.004.037l.02.01h.009l.249-.396q.114-.191.094.033zm-4.264.06a.4.4 0 0 1-.094.264 1.8 1.8 0 0 0-.292.429.1.1 0 0 1-.032.033q-.044.026-.024-.024c.08-.179.094-.339.033-.47q.162-.17.268-.443.043-.1.108-.01a.36.36 0 0 1 .033.217zm2.01-.173q.212-.036.306.197c-.128.048-.226-.018-.306-.202zm2.3.113h.034q.016.083-.005.117c-.024.043-.042.038-.052-.004q-.014-.043.024-.113m-4.954.743q-.07.223-.217.419c-.103.132-.132.118-.075-.047.033-.104.066-.259.09-.456q.154-.264.31-.556.007-.022.028-.023.043-.014.024.028-.134.303-.16.635m4.197-.315-.663-.216c-.029-.038-.024-.076.004-.104.024-.019.047-.024.076-.005q.105.058.183.066c.235.024.372.113.4.259m-.852-.226q.072.014.109.056c.117.038.211.08.291.123.175.099.16.132-.032.094a1 1 0 0 1-.142-.085.1.1 0 0 0-.08-.019c-.042.01-.047.033-.028.066q.014.02.005.033c-.005.033-.024.043-.047.02q-.141-.113-.141-.255.001-.043.065-.028z"/>
        <path fill="#000" d="M13.115 13.82h-.805a.033.033 0 0 0-.033.033l-.004.805c0 .024.014.038.032.038h.8c.024 0 .038-.014.038-.033l.005-.805a.03.03 0 0 0-.008-.026l-.011-.009z"/>
        <path fill="#DBF127" d="M11.035 13.86a.5.5 0 0 1 .175.075l.108.07c.188.118.306.207.334.268.047.085.033.095-.033.024-.165-.174-.31-.254-.442-.25a.1.1 0 0 0-.08.048l-.076.122q-.036.056-.023-.01z"/>
        <path fill="#fff" d="M18.419 14.711h-.74q-.014-.001-.028.004a.07.07 0 0 0-.047.067v.739c0 .042.033.075.076.075h.739c.037 0 .07-.033.07-.075v-.74a.07.07 0 0 0-.07-.07"/>
        <path fill="#000" d="M14.005 15.605h-2.588a.04.04 0 0 0-.037.037v.814c0 .02.018.033.037.033h2.588c.02 0 .038-.014.038-.033v-.814a.04.04 0 0 0-.038-.037m-2.63 2.668-.814-.01c-.047 0-.076-.023-.076-.075v-.744q0-.047.048-.046h.762q.05 0 .052.051z"/>
    </g>
    <defs>
        <clipPath id="RFD__a">
            <path fill="#fff" d="M0 0h24v24H0z"/>
        </clipPath>
    </defs>
</svg>
