<svg xmlns="http://www.w3.org/2000/svg" width="24" height="24" fill="none" viewBox="0 0 24 24">
    <g clip-path="url(#RVN__a)">
        <path fill="#DF5D44" d="M24 0H0v24h24z"/>
        <path fill="#fff" d="M11.355 16.978 7.156 20l2.67-12.274zm.09-.022 2.55.03-4.072-9.222zm2.797-.21 1.956-7.258-.742-.9zm-.945-11.382L10.073 7.54l4.708-1.523zm-.405 0-2.002.075-.3.825zM9.976 7.681l4.138 9.26 1.26-8.502zm.614-1.32 2.55-.997-3.164 2.13zm.33-1.05.645-.697 1.47.645zm.742-.779 1.013-.465 1.29 1.477zM12.742 4h1.08l.6.652zm1.454 1.642.255-.773.263 1.02zM10.156 7.6l5.158.704-.51-2.174zm4.7-1.665-.33-1.207 2.318.682zm-.48-1.132-.284.772-1.2-1.417z"/>
    </g>
    <defs>
        <clipPath id="RVN__a">
            <path fill="#fff" d="M0 0h24v24H0z"/>
        </clipPath>
    </defs>
</svg>
