<svg xmlns="http://www.w3.org/2000/svg" width="24" height="24" fill="none" viewBox="0 0 24 24">
    <g clip-path="url(#SAITAMA__a)">
        <path fill="url(#SAITAMA__b)" d="M24 0H0v24h24z"/>
        <path fill="#fff" fill-rule="evenodd" d="M7.52 4a8.84 8.84 0 0 0 0 6.107l.028.037-1.49 1.28 2.01 1.312L5.6 14.935l3.342 2.011L9.646 20l2.285-2.039L14.31 20l.717-3.054 3.374-2.011-2.464-2.18 2.007-1.331-1.5-1.27.042-.047c.411-.964.987-3.542 0-6.107L13.43 7.616a2.65 2.65 0 0 0-1.445-.416c-.64 0-1.16.22-1.44.389zm-.37 10.738 1.687-1.504 1.005.654.448 1.54h3.32l.484-1.453 1.188-.791-.155.137 1.723 1.417-2.624 1.6-.416 1.993-1.883-1.513-1.75 1.509-.531-1.993-2.496-1.6zm6.985-1.906 2.272-1.509-2.647-2.272-.366 1.646zm-1.147-4.389a2.1 2.1 0 0 0-1.002-.27c-.439 0-.809.156-1.06.312l.557 2.335-.886 2.68.384 1.014h.562v-1.371h.914v1.371h.476l.36-1.015-.863-2.679zm-2.821.659-2.615 2.221 2.304 1.468.695-2.098zm-.302-.951-1.81-2.14c-.119.357-.183 1.006-.17 1.646.015.668.16 1.358.412 1.838zm4.243.032 1.581 1.335a4.2 4.2 0 0 0 .425-1.888c0-.553-.077-1.047-.137-1.417l-.032-.202z" clip-rule="evenodd"/>
    </g>
    <defs>
        <linearGradient id="SAITAMA__b" x1="5.6" x2="17.657" y1="12" y2="12" gradientUnits="userSpaceOnUse">
            <stop offset=".27" stop-color="#2F239F"/>
            <stop offset="1" stop-color="#81BBE3"/>
        </linearGradient>
        <clipPath id="SAITAMA__a">
            <path fill="#fff" d="M0 0h24v24H0z"/>
        </clipPath>
    </defs>
</svg>
