<svg xmlns="http://www.w3.org/2000/svg" width="24" height="24" fill="none" viewBox="0 0 24 24">
    <g clip-path="url(#SATS__a)">
        <path fill="#fff" d="M24 0H0v24h24z"/>
        <path fill="#000300" d="M17.548 16.393c1.355 0 2.452-1.108 2.452-2.476s-1.098-2.476-2.452-2.476-2.452 1.109-2.452 2.476c0 1.368 1.098 2.476 2.452 2.476"/>
        <path fill="#F5E0CD" d="M8.047 12.096c-.46-.024-.626.535-.652.817l1.532.982c1.076.602 3.168 1.248 5.095.602 1.753-.586 2.081-2.249 2.198-2.528.093-.223.116-.936.116-1.264.292-.127.833-.488.67-.91-.163-.424-.747-.491-1.02-.472-.45-.778-2.445-2.792-5.385-1.528-2.353 1.011-2.683 3.288-2.554 4.301"/>
        <path fill="url(#SATS__b)" d="M14.444 11.443c-.996.705-2.853 1.021-3.656 1.09.06.324 1.072 1.92 2.532 1.388 1.168-.426 1.236-1.83 1.124-2.478"/>
        <path fill="#F2F6F9" d="M12.764 12.56a.9.9 0 0 1-.78-.198l1.468-.433c-.078.176-.324.548-.688.63"/>
        <path fill="#000" fill-rule="evenodd" d="M12.665 12.124c-1.365.39-1.999.303-2.427.244l-.05-.007.522.247c.104.413.882 1.812 2.526 1.413 1.27-.307 1.436-1.85 1.318-2.643l.298-.373c-.332.235-1.22.842-2.187 1.118m-.59 1.717c-.653-.259-1.098-.882-1.278-1.28.203-.008.636-.05 1.146-.144.11.092.399.237.79.185a.9.9 0 0 0 .516-.286c.112-.117.195-.247.246-.346.446-.191.777-.395.921-.503.069.428.05 1.17-.309 1.736-.184-.135-.603-.304-1.176-.164-.588.145-.808.56-.856.802m.074.028c.33.113.686.122 1.02.024.411-.114.698-.344.895-.624-.164-.121-.56-.29-1.115-.153-.565.139-.762.54-.8.753m1.23-1.85q-.297.122-.645.219a9 9 0 0 1-.685.159c.124.077.363.168.675.127a.82.82 0 0 0 .469-.263c.076-.08.14-.166.186-.243" clip-rule="evenodd"/>
        <path fill="#0C0000" d="M12.31 10.562c-.306-.01-.404.31-.414.473.049-.24.235-.327.409-.335.173-.007.295.085.309.177.01.074-.097.154-.152.185.194-.032.227-.176.219-.245.005-.08-.063-.244-.37-.255"/>
        <path fill="#FDA925" d="M5.563 10.2c-.148-.298-.397-.406-.503-.423-.273-.092-.82.509-.82 3.648 0 3.924 4.283 6.226 7.417 6.226 2.43 0 4.716-2.281 5.555-3.422l-1.5-2.804c-.13.216-.556.721-1.213 1.02-.656.3-1.764.462-2.236.507-5.243 0-6.516-4.38-6.7-4.753"/>
        <path fill="#FFFFE0" fill-rule="evenodd" d="M4.368 14.572c-.038-.976-.044-2.072.072-2.52.217-.842.508-1.758.653-1.777.116-.015.435.776.58 1.173.581 1.344 2.636 4.013 6.208 3.94 2.608-.054 3.64-.945 3.951-1.738l-.12-.225c-.13.216-.556.721-1.213 1.02-.534.243-1.386.299-1.94.335q-.163.009-.327.024c-4.82 0-6.265-3.736-6.61-4.628a3 3 0 0 0-.067-.165c-.118-.238-.296-.234-.416-.232a.4.4 0 0 1-.08-.002c-.272-.092-.818.509-.818 3.648q.001.6.127 1.147" clip-rule="evenodd"/>
        <path fill="#BF6A0F" fill-rule="evenodd" d="M16.977 15.791h-.269c-2.294 2.111-5.07 2.54-6.17 2.492-3.451-.024-5.355-2.11-6.18-3.746.714 3.243 4.474 5.114 7.3 5.114 2.429 0 4.715-2.281 5.554-3.422z" clip-rule="evenodd"/>
        <path fill="#1C0000" d="M5.881 14.786c.516 0 .934-.48.934-1.072s-.418-1.072-.934-1.072c-.515 0-.933.48-.933 1.072s.418 1.072.933 1.072"/>
        <path fill="#BF6A0F" d="M5.712 14.916c.516 0 .934-.48.934-1.073 0-.592-.418-1.072-.934-1.072-.515 0-.933.48-.933 1.072s.418 1.073.933 1.073"/>
        <path fill="#1C0000" d="M7.285 16.223c.308.103.645-.078.752-.405.107-.326-.056-.674-.365-.777-.308-.103-.645.078-.752.404-.107.327.056.675.365.778"/>
        <path fill="#BF6A0F" d="M7.204 16.284c.308.103.645-.078.752-.405.107-.326-.056-.674-.365-.777-.308-.103-.645.078-.752.404-.107.327.056.675.365.778"/>
        <path fill="#1C0000" d="M8.45 18.26c.344.114.72-.088.838-.451.12-.364-.062-.752-.406-.867-.343-.114-.718.088-.837.451-.12.364.062.752.406.866"/>
        <path fill="#BF6A0F" d="M8.34 18.296c.343.114.718-.088.837-.451.12-.364-.063-.752-.406-.867s-.718.088-.837.451c-.12.364.062.752.406.867"/>
        <path fill="#1C0000" d="M14.057 16.657a.637.637 0 0 0 .817-.388c.107-.33-.084-.689-.427-.803s-.71.059-.817.388c-.108.329.083.688.427.803"/>
        <path fill="#BF6A0F" d="M13.965 16.74a.637.637 0 0 0 .817-.388.645.645 0 0 0-.426-.803.637.637 0 0 0-.817.388c-.108.328.083.688.426.803"/>
        <path fill="#1C0000" d="M11.892 19.03c.61.204 1.261-.107 1.454-.695s-.146-1.23-.757-1.434c-.61-.204-1.262.107-1.454.695-.193.588.146 1.23.757 1.434"/>
        <path fill="#BF6A0F" d="M11.776 19.166c.61.204 1.262-.107 1.455-.695.192-.588-.146-1.23-.757-1.434-.61-.204-1.262.107-1.455.695-.192.588.147 1.23.757 1.434"/>
        <path fill="#02050A" d="M10.683 11.228c.165-.132.157-.42-.018-.642-.174-.223-.45-.297-.615-.165s-.157.42.018.643c.174.222.45.296.615.164"/>
        <path fill="#000005" d="M13.846 10.32c.204-.054.312-.32.242-.595s-.292-.456-.496-.403-.312.319-.242.594.292.456.496.403"/>
        <path fill="#FEFDF9" d="M10.418 10.516c-.053-.076-.142-.105-.2-.064s-.063.136-.011.212.142.105.2.064.063-.136.01-.212m3.525-.94c-.03-.087-.11-.138-.177-.115s-.096.114-.066.201.11.14.177.115c.066-.023.096-.113.066-.2"/>
        <path fill="#FFF6FD" d="M12.573 13.846c.07.054.163.051.207-.008.045-.058.023-.15-.047-.203-.07-.055-.164-.051-.208.007-.044.059-.022.15.048.204"/>
        <path fill="#fff" d="M11.986 5.109c-4.07.234-5.382 3.624-5.53 5.29-.567-3.045 3.053-7.056 7.217-5.79 3.498 1.064 4.181 4.859 3.936 5.987 0-2.118-1.553-3.782-2.33-4.35-.136.362-.483 1.063-2.355.431-1.363-.46-1.206-1.195-.938-1.568"/>
        <path fill="#C37600" d="M19.587 13.917a2.04 2.04 0 0 0-2.03-2.05 2.04 2.04 0 0 0-2.03 2.05 2.04 2.04 0 0 0 2.03 2.05 2.04 2.04 0 0 0 2.03-2.05"/>
        <path fill="#F9C813" fill-rule="evenodd" d="M17.548 16.203a2.275 2.275 0 0 0 2.264-2.287 2.275 2.275 0 0 0-2.264-2.286 2.275 2.275 0 0 0-2.264 2.286 2.276 2.276 0 0 0 2.264 2.287m-.004-.377a1.9 1.9 0 0 0 1.89-1.91 1.9 1.9 0 0 0-1.89-1.909 1.9 1.9 0 0 0-1.89 1.91 1.9 1.9 0 0 0 1.89 1.909" clip-rule="evenodd"/>
        <path fill="#F3E0CF" d="M15.362 15.506c.327-.198.364-.744.082-1.22-.282-.475-.775-.7-1.102-.503s-.364.743-.082 1.219.775.701 1.102.504"/>
        <path fill="url(#SATS__c)" d="M19.343 13.917c0-.996-.8-1.804-1.787-1.804s-1.786.808-1.786 1.804.8 1.803 1.787 1.803 1.786-.807 1.786-1.803"/>
        <path fill="#BF6E00" fill-rule="evenodd" d="m18.002 12.659.32.08-.073.296a.608.608 0 0 1 .098 1.013.665.665 0 0 1-.143.976.66.66 0 0 1-.469.1l-.08.33-.32-.08.08-.328-.15-.037-.08.327-.32-.08.08-.327-.532-.134.077-.317.288.072.362-1.472-.288-.072.078-.318.533.134.069-.28.32.08-.069.28.15.037zm-.367.63.372.093c.101.025.157.145.127.268s-.136.202-.236.177l-.372-.093zm-.288.796.525.131c.092.023.142.142.112.266-.03.123-.13.205-.222.182l-.524-.132z" clip-rule="evenodd"/>
        <path fill="#FFEE81" fill-rule="evenodd" d="m17.78 12.48-.32-.08-.069.281-.245-.062-.288-.072-.078.318.288.072-.362 1.472-.288-.072-.078.317.533.133-.08.328.32.08.08-.328.15.038-.081.327.32.08.081-.328a.655.655 0 0 0 .744-.494.66.66 0 0 0-.133-.583.608.608 0 0 0-.098-1.013l.073-.296-.32-.08-.068.28-.15-.037zm-.284.668.373.093c.1.025.156.145.126.268s-.136.202-.235.177l-.373-.093zm-.287.796.524.131c.093.023.142.142.112.266-.03.123-.13.205-.221.182l-.525-.131z" clip-rule="evenodd"/>
        <path fill="#F9C813" fill-rule="evenodd" d="m17.961 12.596.32.08-.073.296a.607.607 0 0 1 .098 1.013.664.664 0 0 1-.142.976.66.66 0 0 1-.469.1l-.08.33-.32-.08.08-.328-.15-.038-.08.328-.32-.08.08-.327-.533-.134.078-.317.288.072.362-1.472-.288-.072.078-.317.533.133.069-.28.32.08-.069.28.15.038zm-.366.63.373.093c.1.025.156.145.126.268s-.136.203-.236.177l-.372-.093zm-.288.796.525.131c.092.023.142.142.111.265s-.129.206-.221.183l-.524-.132z" clip-rule="evenodd"/>
        <path fill="#000300" fill-rule="evenodd" d="M7.488 6.897C6.653 8.165 6.41 9.559 6.422 10.05c.017.745.25 1.6.39 1.956.15.21.318.422.502.626a1 1 0 0 1 .133-.285.8.8 0 0 1 .518-.335q-.05-.452.002-.903c.225-1.925 1.851-3.349 3.476-3.64.806-.144 1.68-.2 2.516.083.839.284 1.633.904 2.282 2.095l.003.004.001.005c.081.22.177.598.205 1.024s.033.907-.162 1.323l-.272.22c.183-.391.344-1.12.317-1.534a3.8 3.8 0 0 0-.196-.989c-.637-1.166-1.408-1.763-2.215-2.036-.809-.273-1.66-.222-2.458-.079-1.582.284-3.162 1.672-3.38 3.538-.145 1.237.333 2.17.718 2.643.36.18.75.338 1.14.47.807.27 1.582.42 2.016.42a10 10 0 0 0 1.033-.092c.382-.054.75-.133.987-.24-.002-.28.1-.52.303-.643a.6.6 0 0 1 .444-.064c.046-.08.117-.176.206-.255.107-.093.247-.168.405-.137l-.023.116c-.106-.021-.21.027-.304.11a1 1 0 0 0-.167.199c.248.09.496.299.67.594.315.532.275 1.142-.09 1.362-.366.221-.917-.03-1.232-.563a1.6 1.6 0 0 1-.177-.435c-.271.106-.635.18-.984.23-.409.058-.814.086-1.065.095h-.004c-.475 0-1.283-.16-2.103-.436-.82-.277-1.676-.677-2.234-1.171-1.371-1.216-2.028-2.918-2.157-3.307a.27.27 0 0 0-.173-.183.4.4 0 0 0-.211-.012l-.026.006-.026-.005c-.016-.002-.094 0-.199.111-.103.11-.225.318-.314.698-.115.487-.347 1.66-.192 3.001.153 1.339.692 2.837 2.115 3.991 1.731 1.403 3.727 2.037 5.623 1.832 1.893-.205 3.7-1.247 5.053-3.222l.225.157c-1.395 2.035-3.27 3.125-5.25 3.339-1.976.214-4.043-.448-5.822-1.891-1.494-1.212-2.056-2.785-2.216-4.174-.16-1.387.081-2.596.198-3.096.096-.41.235-.67.383-.825.136-.144.287-.206.412-.196a.7.7 0 0 1 .337.026c.141.05.277.158.342.356.056.168.216.596.497 1.122a9 9 0 0 1-.073-.998c-.013-.548.246-1.997 1.112-3.312.872-1.324 2.363-2.515 4.803-2.515s3.9 1.166 4.745 2.48c.84 1.304 1.072 2.752 1.072 3.344v.121a7.3 7.3 0 0 1-.247 1.419l-.262-.078c.143-.489.217-1.178.236-1.467-.002-.548-.223-1.939-1.028-3.19-.801-1.245-2.181-2.353-4.517-2.353-2.334 0-3.744 1.132-4.575 2.392m-.078 5.84q.186.196.393.382c.211.186.471.36.76.52a3.64 3.64 0 0 1-.582-1.51.7.7 0 0 0-.438.286.8.8 0 0 0-.133.321m8.157 2.294a1 1 0 0 0-.01-.225l-.28.24-.05-.06.312-.268a1.4 1.4 0 0 0-.091-.263l-.261.216-.049-.061.274-.227a1.4 1.4 0 0 0-.142-.218l-.233.198-.05-.06.232-.198a1.2 1.2 0 0 0-.225-.2l-.312.249-.048-.062.29-.232-.072-.036c-.191-.088-.364-.085-.49-.008-.127.076-.211.228-.226.44-.013.21.045.464.188.706.143.243.337.414.527.502.191.087.364.084.49.008.127-.077.212-.23.226-.441" clip-rule="evenodd"/>
        <path fill="#C19C58" fill-rule="evenodd" d="M11.453 6.131c.412.26.367 1.24-.71 2.277.298-.295.746-.907.577-1.44-.227-.717-.57-.787-.898-.725.213-.138.695-.324 1.03-.112m-.965 2.296c.124-.402.233-1.155-.164-1.543-.536-.525-.871-.423-1.131-.212.123-.223.468-.661.863-.634.484.033.896.96.432 2.389m.374.164.076-.003c1.228-.062 1.78-.65 1.662-1.036-.097-.316-.498-.463-.705-.493.239.14.415.37.174.943-.18.425-.787.564-1.13.586z" clip-rule="evenodd"/>
    </g>
    <defs>
        <linearGradient id="SATS__b" x1="6.21" x2="18.793" y1="14.194" y2="10.936" gradientUnits="userSpaceOnUse">
            <stop stop-color="#C08695"/>
            <stop offset="1" stop-color="#FAC5D5"/>
        </linearGradient>
        <linearGradient id="SATS__c" x1="11.999" x2="11.999" y1="4.229" y2="19.772" gradientUnits="userSpaceOnUse">
            <stop stop-color="#F99501"/>
            <stop offset="1" stop-color="#FEA201"/>
        </linearGradient>
        <clipPath id="SATS__a">
            <path fill="#fff" d="M0 0h24v24H0z"/>
        </clipPath>
    </defs>
</svg>
