<svg xmlns="http://www.w3.org/2000/svg" width="24" height="24" fill="none" viewBox="0 0 24 24">
    <g clip-path="url(#SBD__a)">
        <path fill="#1C509B" d="M24 0H0v24h24z"/>
        <path fill="#fff" d="M6.313 5.799c-.69.58-1.405 1.3-1.7 2.175-.33 1.03.14 2.08.585 3 .45.935.935 1.855 1.36 2.82.335.76.8 1.65.69 2.505-.09.605-.29 1.185-.4 1.79-.09.405.29 0 .42-.11.785-.67 1.63-1.435 1.94-2.465a2.25 2.25 0 0 0-.11-1.475c-.175-.47-.38-.92-.58-1.39-.425-.94-.87-1.88-1.315-2.82a17 17 0 0 1-.515-1.05 3.7 3.7 0 0 1-.265-1.21c-.02-.34-.02-.65.02-.985.025-.25.09-.47.115-.72.02-.13-.09-.175-.25-.065zm10.21 0c-.69.585-1.405 1.3-1.695 2.175-.335 1.03.135 2.08.58 3 .45.94.935 1.855 1.36 2.82.335.76.8 1.655.69 2.505-.085.605-.29 1.19-.4 1.795-.09.4.29 0 .425-.115.78-.67 1.625-1.43 1.94-2.46a2.25 2.25 0 0 0-.114-1.48c-.175-.47-.375-.915-.58-1.39a152 152 0 0 0-1.316-2.82 17 17 0 0 1-.51-1.05 3.7 3.7 0 0 1-.27-1.21c-.02-.335-.02-.65.026-.985.02-.25.084-.47.11-.72.024-.13-.09-.18-.25-.065zm-5.205-1.7c-.75.65-1.57 1.43-2.02 2.35a2.8 2.8 0 0 0-.2 1.99q.345 1.228.845 2.4c.62 1.5 1.44 2.905 2.04 4.43.215.536.45 1.14.5 1.75.04.736-.2 1.52-.39 2.21-.045.2-.17.47-.15.676.02.155.105.09.195.02.37-.3.72-.615 1.05-.96.885-.875 1.9-2.04 1.81-3.4-.045-.565-.3-1.1-.515-1.615-.24-.6-.5-1.186-.75-1.77a87 87 0 0 0-1.49-3.25c-.17-.376-.385-.736-.515-1.116a5 5 0 0 1-.3-1.59c-.02-.4 0-.825.045-1.23.02-.27.105-.515.105-.785.065-.245-.065-.265-.26-.11"/>
    </g>
    <defs>
        <clipPath id="SBD__a">
            <path fill="#fff" d="M0 0h24v24H0z"/>
        </clipPath>
    </defs>
</svg>
