<svg xmlns="http://www.w3.org/2000/svg" width="24" height="24" fill="none" viewBox="0 0 24 24">
    <g clip-path="url(#SLR__a)">
        <path fill="#FEA616" d="M24 0H0v24h24z"/>
        <path fill="#fff" d="M9.415 16.399c0 .83.577 1.89 2.163 1.89 1.858 0 2.943-1.078 2.943-2.637 0-1.445-.752-2.27-2.65-3.074-2.297-.894-3.716-2.202-3.716-4.38C8.155 5.788 9.971 4 12.705 4c1.44 0 3.695 1 3.695 3.2h-1.666c0-.502-.58-1.549-2.092-1.549-1.92 0-2.65 1.262-2.65 2.317 0 1.445.856 2.156 2.796 2.982 2.38 1.01 3.59 2.27 3.59 4.54 0 2.387-1.46 4.51-4.778 4.51-1.357 0-4-.866-4-3.601z"/>
        <path fill="#fff" d="M14.852 14.997c.35-.284.652-.62.894-.994-.335-.746-.721-1.21-1.03-1.498a2.7 2.7 0 0 1-.63 1.115q.287.234.485.548c.137.224.243.498.28.83m-.815.526a4.55 4.55 0 0 1-2.037.476c-2.43 0-4.4-1.88-4.4-4.2 0-.698.179-1.356.495-1.935a5.9 5.9 0 0 0 1 1.589q-.022.172-.022.346c0 1.513 1.284 2.739 2.87 2.739a2.96 2.96 0 0 0 1.498-.403l.028.022c.124.098.274.216.399.419.121.199.224.496.169.947m2.363-3.724c0 .455-.076.892-.216 1.302-.504-.876-1.057-1.325-1.384-1.55-.131-1.396-1.36-2.49-2.858-2.49-.381 0-.745.07-1.078.2-.397-.574-.527-1.04-.517-1.355A4.6 4.6 0 0 1 12 7.6c2.43 0 4.4 1.88 4.4 4.2m-6.246-2.142c-.32-.478-.516-.938-.585-1.359a4.4 4.4 0 0 0-.92.78c.121.359.345.917.742 1.467.188-.347.449-.65.763-.888"/>
    </g>
    <defs>
        <clipPath id="SLR__a">
            <path fill="#fff" d="M0 0h24v24H0z"/>
        </clipPath>
    </defs>
</svg>
