<svg xmlns="http://www.w3.org/2000/svg" width="24" height="24" fill="none" viewBox="0 0 24 24">
    <g clip-path="url(#SRM__a)">
        <path fill="#71E0EC" d="M24 0H0v24h24z"/>
        <path fill="#fff" d="M12 17.176c-2.294 0-4.155-1.97-4.155-4.4 0-2.365 3.752-6.536 3.907-6.7l.187-.23.185.23c.155.165 4 4.336 4 6.7.032 2.43-1.829 4.4-4.124 4.4M11.97 6.7a25 25 0 0 0-1.706 2.168c-1.209 1.707-1.86 3.053-1.86 3.907 0 2.102 1.612 3.81 3.596 3.81 1.985 0 3.597-1.708 3.597-3.81 0-.854-.65-2.2-1.891-3.907-.682-.953-1.396-1.774-1.737-2.168"/>
        <path fill="#fff" d="M12 18.589c-3.038 0-5.488-2.594-5.488-5.813 0-3.12 4.124-7.486 4.31-7.684a.31.31 0 0 1 .403 0 .36.36 0 0 1 0 .427c-.062.033-4.155 4.368-4.155 7.258s2.201 5.22 4.93 5.22c2.73 0 4.93-2.33 4.93-5.22 0-1.183-.713-2.825-2.077-4.73a27 27 0 0 0-2.108-2.593c-.125-.1-.125-.296 0-.427.093-.132.278-.132.402 0 .187.197 4.373 4.63 4.373 7.75-.031 3.218-2.481 5.812-5.52 5.812"/>
        <path fill="#fff" d="M12 20c-3.659 0-6.666-3.185-6.666-7.06 0-1.609.775-3.58 2.263-5.878a28 28 0 0 1 2.264-2.956c.093-.131.279-.131.403 0 .124.1.124.296 0 .427 0 0-1.117 1.215-2.202 2.89-1.426 2.168-2.17 4.072-2.17 5.55 0 3.579 2.76 6.469 6.108 6.469 3.349 0 6.109-2.956 6.109-6.502 0-1.478-.744-3.383-2.17-5.55-1.086-1.641-2.202-2.856-2.202-2.89a.36.36 0 0 1 0-.426.31.31 0 0 1 .403 0c.155.23 4.527 5.024 4.527 8.866C18.667 16.815 15.69 20 12 20"/>
    </g>
    <defs>
        <clipPath id="SRM__a">
            <path fill="#fff" d="M0 0h24v24H0z"/>
        </clipPath>
    </defs>
</svg>
