<svg xmlns="http://www.w3.org/2000/svg" width="24" height="24" fill="none" viewBox="0 0 24 24">
    <g clip-path="url(#STARL__a)">
        <path fill="#fff" d="M24 0H0v24h24z"/>
        <path fill="#08237A" d="M15.806 12.002a3.774 3.774 0 0 1-3.766 3.778 3.776 3.776 0 0 1-3.796-3.752 3.775 3.775 0 0 1 3.774-3.78 3.774 3.774 0 0 1 3.797 3.754z"/>
        <path fill="#010200" fill-rule="evenodd" d="M12.036 15.327a3.315 3.315 0 0 0 3.057-4.594 3.31 3.31 0 0 0-3.08-2.03 3.316 3.316 0 0 0-3.316 3.32 3.317 3.317 0 0 0 3.339 3.304m0 .454a3.776 3.776 0 0 0 3.77-3.78A3.776 3.776 0 0 0 12.01 8.25a3.775 3.775 0 0 0-3.766 3.779 3.774 3.774 0 0 0 3.796 3.752z" clip-rule="evenodd"/>
        <path fill="#FCF6BA" d="M12.73 5.204a.728.728 0 1 1-.232-.474.73.73 0 0 1 .232.479z"/>
        <path fill="#010200" d="M13.188 5.203a1.183 1.183 0 1 1-2.365 0 1.183 1.183 0 0 1 2.365 0m-1.183.729a.728.728 0 1 0 .113-1.453.728.728 0 0 0-.113 1.453"/>
        <path fill="#FFE8C5" d="M8.75 5.898a.454.454 0 0 1 .275-.792.46.46 0 0 1 .332.111l1.322 1.104 2.649-.008 1.322-1.109a.46.46 0 0 1 .641.03.454.454 0 0 1-.03.642L14.135 6.88l.153.183-.568.498-.144-.175-.562.502v.493a3.8 3.8 0 0 0-2.003.005v-.494z"/>
        <path fill="#010200" d="M8.448 6.237a.903.903 0 0 1 .55-1.583.92.92 0 0 1 .66.226l1.195 1.004 2.3-.01 1.19-1.012a.916.916 0 0 1 1.288.07.906.906 0 0 1-.07 1.283l-1.217 1.091-.306-.336 1.222-1.09a.459.459 0 1 0-.61-.677L13.326 6.31l-2.649.009-1.326-1.1a.46.46 0 0 0-.646.04.446.446 0 0 0 .044.637l2.255 1.994v.493a4 4 0 0 0-.453.157V8.1L8.444 6.24z"/>
        <path fill="#010200" d="M13.471 8.537v-.45l.524-.471-.305-.336-.677.606v.493a4 4 0 0 1 .458.153z"/>
        <path fill="#FCF6BA" d="M11.31 18.791a.727.727 0 0 1 .727-.785.73.73 0 1 1-.726.785"/>
        <path fill="#010200" d="M10.853 18.797a1.182 1.182 0 1 1 2.364 0 1.182 1.182 0 0 1-2.364 0m1.183-.729a.728.728 0 1 0-.113 1.45.728.728 0 0 0 .113-1.45"/>
        <path fill="#FFE8C5" d="M15.29 18.103a.455.455 0 1 1-.606.676l-1.357-1.121-2.649.009L9.391 18.8a.455.455 0 0 1-.607-.676l1.122-1.004-.153-.179.567-.502.144.175.563-.502v-.489a3.8 3.8 0 0 0 2.003-.008v.493z"/>
        <path fill="#010200" d="M15.597 17.764a.91.91 0 1 1-1.214 1.357l-1.213-1.026-2.3.009-1.173 1.034a.917.917 0 0 1-1.288-.07.9.9 0 0 1 .07-1.278l1.218-1.091.305.331-1.222 1.096a.46.46 0 0 0-.122.49q.031.084.092.151c.166.188.454.2.641.035l1.292-1.143h2.675l1.326 1.126a.457.457 0 0 0 .607-.681l-2.26-1.994v-.493c.157-.044.305-.097.454-.158v.446l2.107 1.859z"/>
        <path fill="#010200" d="M10.57 15.467v.445l-.524.472.305.336.677-.607v-.489a4 4 0 0 1-.459-.157"/>
        <path fill="#EC9B8D" d="m17.517 15.148.741 1.192.664-1.161-1.401-.03z"/>
        <path fill="#010200" d="m16.696 14.678 1.571 2.549 1.431-2.488zm.825.472 1.396.03-.663 1.16z"/>
        <path fill="#FFE8C5" d="M18.97 12.225a.457.457 0 0 1 .576.288.46.46 0 0 1-.288.576l-1.68.559-1.314 2.29.371 1.728a.455.455 0 0 1-.89.188l-.318-1.466-.227.044-.153-.742.222-.04-.157-.733-.427-.244a3.8 3.8 0 0 0 .995-1.732l.427.244z"/>
        <path fill="#010200" d="M18.826 11.796a.908.908 0 0 1 .58 1.72l-1.523.506-1.134 1.99.331 1.562a.912.912 0 0 1-1.78.38l-.345-1.598.445-.1.345 1.602a.456.456 0 0 0 .89-.192l-.37-1.728 1.308-2.291 1.685-.559a.45.45 0 0 0 .31-.4.45.45 0 0 0-.25-.44.46.46 0 0 0-.348-.024l-2.863.96-.427-.244q.06-.236.087-.472l.388.219 2.667-.89z"/>
        <path fill="#010200" d="m14.322 14.992.389.219.148.689.445-.096-.192-.886-.427-.244a4 4 0 0 1-.363.318"/>
        <path fill="#EC9B8D" d="m6.538 8.865-.734-1.192-.667 1.161 1.396.03z"/>
        <path fill="#010200" d="m7.362 9.336-1.57-2.548L4.36 9.275zm-.829-.471-1.396-.03.667-1.162.733 1.192z"/>
        <path fill="#FFE8C5" d="M5.089 11.784a.456.456 0 0 1-.595-.279.453.453 0 0 1 .307-.58l1.68-.563L7.79 8.075l-.367-1.732a.455.455 0 1 1 .89-.188l.315 1.47.23-.043.154.742-.227.035.157.737.432.245a3.8 3.8 0 0 0-.995 1.732l-.428-.244-2.862.96z"/>
        <path fill="#010200" d="M5.232 12.216a.907.907 0 1 1-.58-1.72l1.518-.51 1.14-1.99-.332-1.558a.912.912 0 0 1 1.78-.38l.34 1.597-.44.1-.345-1.6a.455.455 0 1 0-.89.187l.37 1.732-1.308 2.287-1.685.567a.45.45 0 0 0-.353.4.454.454 0 0 0 .641.456l2.863-.956.428.244a3 3 0 0 0-.088.472l-.392-.219-2.662.89z"/>
        <path fill="#010200" d="m9.736 9.022-.393-.218-.144-.694-.445.1.188.886.432.244q.17-.169.362-.318"/>
        <path fill="#FFE8C5" d="M15.667 6.115a.456.456 0 1 1 .894.184l-.358 1.728 1.331 2.282 1.689.545a.456.456 0 0 1-.284.864l-1.431-.466-.083.218-.72-.236.087-.218-.72-.231-.427.248a3.76 3.76 0 0 0-1.008-1.723l.427-.249z"/>
        <path fill="#010200" d="M15.221 6.024a.913.913 0 1 1 1.79.366l-.323 1.563 1.156 1.976 1.518.493a.91.91 0 0 1 .583 1.146.91.91 0 0 1-1.145.583l-1.558-.507.14-.436 1.557.51a.456.456 0 0 0 .576-.292.455.455 0 0 0-.292-.567l-1.684-.55-1.336-2.278.358-1.732a.46.46 0 0 0-.192-.47.456.456 0 0 0-.703.286l-.602 2.946-.427.249a4 4 0 0 0-.367-.314l.388-.223z"/>
        <path fill="#010200" d="m15.736 11.505.389-.223.672.218.14-.436-.865-.275-.427.245q.065.235.091.47"/>
        <path fill="#B7DEF8" d="m17.743 7.827 1.048.261-.262 1.04-1.048-.263z"/>
        <path fill="#010200" d="m17.412 7.277 1.929.48-.48 1.92-1.929-.48zm.332.55-.262 1.043 1.047.257.262-1.043z"/>
        <path fill="#FFE8C5" d="M8.322 17.877a.455.455 0 1 1-.89-.188l.362-1.732-1.322-2.283-1.685-.558a.455.455 0 0 1-.215-.739.45.45 0 0 1 .503-.121l1.432.471.083-.218.72.245-.088.209.72.24.428-.249c.17.657.516 1.256 1 1.733l-.428.244-.62 2.941z"/>
        <path fill="#010200" d="M8.767 17.963a.912.912 0 0 1-1.78-.367l.327-1.562-1.148-1.986-1.518-.502a.906.906 0 0 1-.424-1.466.91.91 0 0 1 .991-.257l1.558.515-.14.432-1.558-.515a.45.45 0 0 0-.503.12.453.453 0 0 0 .215.74l1.685.558 1.322 2.282-.362 1.733a.455.455 0 0 0 .89.188l.62-2.946.427-.245q.172.171.363.315l-.389.222-.576 2.745z"/>
        <path fill="#010200" d="m8.279 12.483-.389.223-.672-.219-.14.428.865.288.427-.249a3 3 0 0 1-.091-.471"/>
        <path fill="#B7DEF8" d="m6.258 16.152-1.047-.262.262-1.038 1.047.261z"/>
        <path fill="#010200" d="m6.585 16.702-1.929-.48.489-1.92 1.929.48zm-.332-.55.262-1.039-1.038-.261-.262 1.038z"/>
        <path fill="#644F90" d="m14.2 11.266-.977 1.104.161 1.453-1.357-.572-1.353.607.14-1.458-.99-1.073 1.44-.332.737-1.27.75 1.252z"/>
        <path fill="#E9AB44" d="M14.353 11.217a.15.15 0 0 1-.035.152l-.93 1.052.153 1.383a.16.16 0 0 1-.063.144.16.16 0 0 1-.155.018l-1.296-.541-1.283.576a.16.16 0 0 1-.158-.015.16.16 0 0 1-.07-.143l.132-1.387-.943-1.026a.157.157 0 0 1 .079-.261l1.379-.315.698-1.213a.16.16 0 0 1 .216-.056.16.16 0 0 1 .059.056l.716 1.191 1.378.28a.15.15 0 0 1 .123.104m-.454.148-1.178-.236a.16.16 0 0 1-.105-.074l-.611-1.021-.602 1.038a.16.16 0 0 1-.105.08l-1.174.265.807.873q.045.054.044.127l-.113 1.182 1.1-.493a.13.13 0 0 1 .126 0l1.108.463-.13-1.183a.16.16 0 0 1 .039-.122z"/>
        <path fill="#643F85" d="M13.092 11.636a.17.17 0 0 1-.03.157l-.367.415.056.545a.156.156 0 0 1-.137.173.16.16 0 0 1-.08-.011l-.516-.214-.506.227a.162.162 0 0 1-.227-.158l.053-.545-.371-.406a.16.16 0 0 1-.036-.155.16.16 0 0 1 .119-.107l.54-.122.276-.48a.16.16 0 0 1 .137-.077.16.16 0 0 1 .137.077l.284.467.546.11c.052.012.1.052.117.104z"/>
        <path fill="#73D4EA" d="M13.092 11.636a.17.17 0 0 1-.03.157l-.367.415.056.545a.156.156 0 0 1-.137.173.16.16 0 0 1-.08-.011l-.516-.214-.506.227a.162.162 0 0 1-.227-.158l.053-.545-.371-.406a.16.16 0 0 1-.036-.155.16.16 0 0 1 .119-.107l.54-.122.276-.48a.16.16 0 0 1 .137-.077.16.16 0 0 1 .137.077l.284.467.546.11c.052.012.1.052.117.104zm-.454.153-.34-.066a.16.16 0 0 1-.105-.074l-.179-.301-.175.305a.16.16 0 0 1-.104.075l-.345.078.236.253q.044.054.043.127l-.035.34.319-.144a.17.17 0 0 1 .13 0l.324.135-.04-.344c0-.044.01-.088.044-.123z"/>
        <path fill="#E4A51A" d="M13.467 9.684a.16.16 0 0 1 .219-.06.163.163 0 0 1 .065.217l-.24.437a.16.16 0 0 1-.298-.095.2.2 0 0 1 .019-.058l.235-.436zm1.205 2.968a.16.16 0 0 1 .114.134.16.16 0 0 1-.08.157.16.16 0 0 1-.122.014l-.48-.13a.16.16 0 0 1-.114-.135.16.16 0 0 1 .08-.157.16.16 0 0 1 .122-.014zm-4.037-2.95a.16.16 0 0 0-.218-.057.156.156 0 0 0-.052.218l.262.428c.043.074.14.1.218.052.074-.043.096-.14.052-.218zm-1.217 2.972a.16.16 0 0 0-.112.138.16.16 0 0 0 .208.167l.48-.153a.16.16 0 0 0-.096-.305zm2.487 2.037a.159.159 0 0 0 .272.113q.046-.047.047-.113v-.497a.16.16 0 0 0-.157-.157.157.157 0 0 0-.158.157v.497z"/>
        <path fill="#F3D1A3" d="m7.65 13.106.293.096.427-.248a3.77 3.77 0 0 0 1 1.732l-.428.244-.065.306a4.46 4.46 0 0 1-1.227-2.13m5.625 3.216a4.5 4.5 0 0 1-2.491.013l.244-.218v-.493a3.8 3.8 0 0 0 2.003-.008v.492zm3.09-3.224a4.46 4.46 0 0 1-1.191 2.098l-.062-.279-.427-.244a3.8 3.8 0 0 0 .995-1.733l.427.24.262-.087zm-.026-2.222-.266-.087-.428.245a3.76 3.76 0 0 0-1.008-1.724l.428-.249.052-.249a4.46 4.46 0 0 1 1.222 2.064m-3.142-3.155-.183.166v.493a3.8 3.8 0 0 0-2.003.005V7.89l-.197-.17a4.5 4.5 0 0 1 2.383 0m-4.312 1.1.057.275.432.244a3.8 3.8 0 0 0-.995 1.733l-.428-.245-.292.1A4.46 4.46 0 0 1 8.885 8.82"/>
    </g>
    <defs>
        <clipPath id="STARL__a">
            <path fill="#fff" d="M0 0h24v24H0z"/>
        </clipPath>
    </defs>
</svg>
