<svg xmlns="http://www.w3.org/2000/svg" width="24" height="24" fill="none" viewBox="0 0 24 24">
    <g clip-path="url(#SWASH__a)">
        <path fill="#3CE35F" d="M24 0H0v24h24z"/>
        <path fill="#fff" fill-rule="evenodd" d="M15.61 5.982a.496.496 0 1 0 0 .992.496.496 0 0 0 0-.992m-2.477.496a2.478 2.478 0 1 1 4.956 0 2.478 2.478 0 0 1-4.956 0M12 11.504a.496.496 0 1 0 0 .992.496.496 0 0 0 0-.992m-1.752-1.256a2.478 2.478 0 1 1 3.504 3.504 2.478 2.478 0 0 1-3.504-3.504M8.39 17.026a.496.496 0 1 0 0 .992.496.496 0 0 0 0-.992M6.637 15.77a2.478 2.478 0 1 1 3.504 3.504 2.478 2.478 0 0 1-3.504-3.504" clip-rule="evenodd"/>
        <path fill="#fff" d="M6.478 9.24a3.186 3.186 0 0 1 3.185-3.187h4.46v.85h-4.46a2.336 2.336 0 0 0 0 4.672h.85v.85h-.85a3.186 3.186 0 0 1-3.185-3.186m11.044 5.521a3.186 3.186 0 0 1-3.186 3.186h-4.46v-.85h4.46a2.337 2.337 0 0 0 0-4.672h-.85v-.85h.85a3.186 3.186 0 0 1 3.186 3.186"/>
    </g>
    <defs>
        <clipPath id="SWASH__a">
            <path fill="#fff" d="M0 0h24v24H0z"/>
        </clipPath>
    </defs>
</svg>
