<svg xmlns="http://www.w3.org/2000/svg" width="25" height="24" fill="none" viewBox="0 0 25 24">
    <g clip-path="url(#SYNC__a)">
        <path fill="url(#SYNC__b)" d="M24.5 0H.5v24h24z"/>
        <path fill="#fff" d="m16.15 7.135.85-2.14C16.5 4.665 15.005 4 13.045 4c-2.45 0-4.53 1.4-4.53 3.5-.03.757.239 1.496.75 2.055l-.035.035C8.805 10.005 8 10.795 8 12.12c0 1.365.81 2.525 3.42 3.1 2.08.48 2.58.885 2.58 1.415s-.855 1.1-1.985 1.1c-1.125 0-2.57-.67-3.105-1.1L8 18.86c.55.38 2.13 1.14 4.015 1.14 2.35 0 4.47-1.1 4.47-3.56a3.25 3.25 0 0 0-.83-2.04A3.25 3.25 0 0 0 17 11.835c0-1.77-1.7-2.685-3.64-3.135S11 7.89 11 7.32s.78-1.04 2.045-1.04 2.25.35 3.1.855zM11.47 10.5l1.7.455c.45.115 1.33.525 1.33 1.22s-.635 1.175-.95 1.325l-1.59-.39c-.49-.16-1.46-.635-1.46-1.26 0-.63.65-1.16.97-1.35"/>
    </g>
    <defs>
        <linearGradient id="SYNC__b" x1="15.393" x2="5.717" y1="5.857" y2="12.7" gradientUnits="userSpaceOnUse">
            <stop stop-color="#2ABECD"/>
            <stop offset="1" stop-color="#4F69D4"/>
        </linearGradient>
        <clipPath id="SYNC__a">
            <path fill="#fff" d="M.5 0h24v24H.5z"/>
        </clipPath>
    </defs>
</svg>
