<svg xmlns="http://www.w3.org/2000/svg" width="24" height="24" fill="none" viewBox="0 0 24 24">
    <g clip-path="url(#TREEB__a)">
        <path fill="#000" d="M24 0H0v24h24z"/>
        <path fill="#fff" fill-rule="evenodd" d="M17.65 10.61c.498-1.003.766-2.281.197-3.585-1.222-2.815-4.041-2.767-5.939-2.448L4 5.919l2.443 13.653 5.61-.98-.792-4.079.247-.068 2.35 3.805L20 17.086l-3.555-4.799a3.7 3.7 0 0 1-1.041.55l-4.032.797c-1.463.357-4.103-.676-4.103-3.249 0-2.578 1.79-3.582 2.689-3.766l3.65-.628c.975-.164 3.292-.048 3.968 2.115.309.985.29 1.818.073 2.503m-.103-1.138c0 1.854-1.516 3.36-3.38 3.36a3.365 3.365 0 0 1-3.119-2.07 3.4 3.4 0 0 1-.26-1.29c0-1.854 1.511-3.355 3.38-3.355a3.37 3.37 0 0 1 3.38 3.355" clip-rule="evenodd"/>
    </g>
    <defs>
        <clipPath id="TREEB__a">
            <path fill="#fff" d="M0 0h24v24H0z"/>
        </clipPath>
    </defs>
</svg>
