<svg xmlns="http://www.w3.org/2000/svg" width="24" height="24" fill="none" viewBox="0 0 24 24">
    <g clip-path="url(#TYRANT__a)">
        <path fill="#fff" d="M24 0H0v24h24z"/>
        <path fill="#4E5069" d="M12.408 9.789c-.156 0-.348.256-.428.388-.064-.092-.224-.28-.348-.312-.156-.04-.388.08-.504-.12-.116-.192-.308-.696-.58-.772-.22-.064-1.02.388-1.4.62a1.5 1.5 0 0 0-.072.468c0 .272.192 1.084.192 1.2 0 .12-.272.392-.192.7a1.1 1.1 0 0 1 0 .544c-.08.248-.228.8-.196 1.047.04.313.348.74.504 1.128s.04.932.192 1.36c.16.424 1.088 1.552 1.164 1.628.08.08.272 0 .544.196.216.156.04 1.128-.08 1.592.28-.156.4-.452.428-.584L11.552 20c.312-.216.468-.84.508-1.128l.384.312a4 4 0 0 1-.116-1.008c.04-.352.504-.428.816-.508.308-.076 1.2-1.628 1.2-1.744 0-.12-.04-.508 0-.896s.62-1.2.66-1.476c.04-.271 0-.152-.12-.543-.112-.388-.152-.696 0-.932.16-.232-.152-.424-.192-.812a4.5 4.5 0 0 1 .04-.896c0-.192.08-.388 0-.776-.06-.312-.98-.544-1.432-.62-.428.04-.504.62-.504.816 0 .192-.196 0-.388 0"/>
        <path fill="#000" d="m11.988 10.32-.072-.1a1.3 1.3 0 0 0-.14-.167c-.064-.06-.12-.104-.16-.112a2 2 0 0 0-.248 0c-.052 0-.108 0-.16-.028a.3.3 0 0 1-.148-.124l-.088-.168-.144-.264a1 1 0 0 0-.148-.204.36.36 0 0 0-.156-.108.2.2 0 0 0-.072 0q-.261.074-.508.192a9 9 0 0 0-.728.408 1.4 1.4 0 0 0-.064.416q.027.405.124.8l.04.188q.016.107.028.216c0 .028-.008.052-.016.08a1 1 0 0 1-.06.12l-.056.107c-.056.12-.096.24-.064.373a1.1 1.1 0 0 1 0 .583c-.04.12-.092.32-.136.52-.04.2-.068.388-.056.496.02.14.1.312.2.508l.068.124c.08.156.168.32.232.476.08.204.092.452.104.68v.008c.008.24.02.472.092.672.036.096.12.24.228.408q.425.626.92 1.196s.008.008.036.012l.056.008.06.012c.1.016.228.048.376.152.044.032.072.08.092.132.02.048.028.108.036.172.012.128.008.284-.008.448-.024.24-.072.5-.12.712a.84.84 0 0 0 .228-.404l.152.02-.064.92c.08-.1.14-.228.192-.364a2.6 2.6 0 0 0 .144-.572l.02-.136.324.26-.044-.276a2.4 2.4 0 0 1-.028-.544c.024-.216.18-.34.352-.42q.252-.105.52-.152a.3.3 0 0 0 .108-.076c.048-.048.108-.112.168-.188.128-.156.264-.36.396-.56q.254-.409.468-.84v-.128a5 5 0 0 1 0-.784c.016-.108.064-.24.124-.38.06-.136.14-.288.22-.428l.052-.1.16-.304c.06-.12.1-.212.108-.264.02-.14.016-.16 0-.192l-.012-.04a2 2 0 0 1-.104-.28c-.116-.388-.168-.732.012-1a.16.16 0 0 0 .028-.116.6.6 0 0 0-.06-.152l-.024-.051a1.2 1.2 0 0 1-.152-.44c-.032-.32.012-.736.04-.908q0-.095.016-.188l.012-.128a1.6 1.6 0 0 0-.028-.44c-.008-.044-.056-.104-.152-.168a2 2 0 0 0-.368-.172 5.4 5.4 0 0 0-.84-.22c-.168.02-.272.144-.336.304-.068.16-.088.344-.088.436 0 .052-.012.12-.08.152a.15.15 0 0 1-.08.008 1 1 0 0 1-.12-.04h-.004l-.064-.02a.4.4 0 0 0-.12-.024.16.16 0 0 0-.08.032 1 1 0 0 0-.104.088c-.072.08-.136.168-.172.232l-.06.1zM13.3 8.974c.452.08 1.372.308 1.432.62.056.272.032.448.016.596-.008.064-.016.12-.016.18a4.6 4.6 0 0 0-.04.896c.02.168.088.3.144.412.08.152.14.268.052.4-.156.235-.12.543 0 .931.04.144.072.216.096.268.04.088.044.104.02.28-.016.12-.14.344-.28.596-.168.312-.36.66-.38.88-.028.292-.012.584-.004.76l.004.132c0 .116-.892 1.668-1.2 1.744l-.088.024c-.304.072-.692.164-.728.48-.01.341.031.682.12 1.012l-.388-.312-.016.092c-.05.351-.19.683-.408.964a.5.5 0 0 1-.08.072l.076-1.128a.8.8 0 0 1-.096.24.9.9 0 0 1-.332.344l.028-.108c.112-.492.252-1.34.052-1.484-.164-.12-.3-.136-.4-.148-.064-.008-.112-.016-.144-.048-.08-.076-1.008-1.2-1.16-1.628-.08-.216-.088-.456-.1-.692-.008-.24-.02-.472-.096-.668a4 4 0 0 0-.228-.464 2.2 2.2 0 0 1-.276-.664c-.032-.248.12-.8.196-1.048.024-.08.06-.295 0-.543-.052-.204.048-.396.12-.532a.4.4 0 0 0 .072-.164c0-.048-.032-.2-.068-.392-.056-.288-.124-.648-.124-.812 0-.22.048-.4.076-.468.376-.232 1.176-.68 1.396-.62.212.06.376.384.496.616l.084.16c.08.128.208.12.332.112.06-.004.12-.008.172.004.1.024.22.148.3.244l.048.068.044-.072c.096-.136.252-.32.384-.32.072 0 .148.032.212.056.1.04.176.068.176-.052 0-.196.076-.78.504-.816"/>
        <path fill="#B77539" d="M9.308 8.504c.092.188 0 .764-.08 1.048a6 6 0 0 1 1.32-.58c.048-.168.16-.652.04-.932-.16-.352-.74-.66-.816-.896-.064-.184-.028-1.344 0-1.9.204.348.656 1 .812.816.196-.236-.232-1.44-.388-1.595-.152-.152-.504-.696-1.24-.268-.736.424-.504 3.3-.348 3.607.156.312.58.468.7.7"/>
        <path fill="#000" fill-rule="evenodd" d="M9.84 5.36c.228.36.608.864.744.7.196-.236-.232-1.44-.388-1.596l-.056-.06c-.176-.2-.528-.592-1.184-.208-.736.424-.504 3.3-.348 3.608.08.168.244.292.396.4.128.1.248.192.304.3.08.168.016.64-.052.944l-.028.104.096-.052c.388-.224.948-.468 1.224-.528.048-.168.16-.652.04-.932a1.8 1.8 0 0 0-.472-.52c-.16-.14-.308-.264-.344-.376-.056-.172-.032-1.172-.008-1.76l.008-.14.072.12zm.644 3.544c.024-.084.056-.22.072-.364.016-.176.012-.348-.04-.468a.9.9 0 0 0-.168-.236 3 3 0 0 0-.28-.256c-.08-.068-.152-.128-.212-.192a.6.6 0 0 1-.16-.216 3 3 0 0 1-.032-.32v-.52c0-.384.016-.816.028-1.092l.012-.26.132.224c.104.172.268.42.42.6.08.088.148.156.204.188a.13.13 0 0 0 .056.02h.008c.012-.016.024-.04.028-.092a.7.7 0 0 0 0-.18 4.4 4.4 0 0 0-.352-1.136.4.4 0 0 0-.056-.08l-.068-.076c-.08-.088-.176-.196-.316-.268-.172-.088-.416-.12-.76.08a.53.53 0 0 0-.208.236q-.089.169-.148.416a6 6 0 0 0-.12 1.132 10 10 0 0 0 .1 1.52q.032.167.052.208c.072.136.2.24.344.352l.028.02q.092.07.172.14c.064.052.12.116.156.188.032.06.04.144.044.232q-.007.349-.076.692c.168-.092.36-.184.544-.268.224-.1.44-.184.6-.224z" clip-rule="evenodd"/>
        <path fill="#B77539" d="M14.644 8.472c-.092.184-.076.72 0 1-.532-.344-1.048-.44-1.344-.5a1.9 1.9 0 0 1 .068-.968c.152-.347.736-.66.812-.891.064-.188.028-1.348 0-1.904-.204.352-.66 1-.812.816-.196-.232.232-1.44.388-1.592.152-.156.504-.7 1.24-.272s.504 3.3.348 3.612c-.156.311-.58.467-.7.7"/>
        <path fill="#000" fill-rule="evenodd" d="M14.108 5.328c-.224.36-.6.864-.74.696-.196-.232.232-1.44.388-1.592l.056-.064c.176-.2.528-.587 1.184-.208.736.428.504 3.3.348 3.612-.08.168-.244.288-.396.4-.128.1-.248.192-.304.3a1.9 1.9 0 0 0 0 1l-.092-.056a3.6 3.6 0 0 0-1.184-.428l-.068-.016a1.9 1.9 0 0 1 .068-.968c.08-.184.284-.36.468-.52.16-.136.308-.264.344-.372.056-.172.032-1.172.008-1.764l-.008-.14zm-.744 3.576a2 2 0 0 1-.02-.372c.008-.18.04-.368.092-.496a.9.9 0 0 1 .168-.232q.115-.119.248-.232l.036-.028q.116-.097.208-.188a.7.7 0 0 0 .16-.22l.02-.128.012-.192v-.52c0-.38-.016-.812-.028-1.092l-.012-.256-.132.22a5 5 0 0 1-.42.6c-.08.088-.148.16-.204.192a.1.1 0 0 1-.056.02l-.008-.004q-.02-.017-.028-.088a1 1 0 0 1 0-.18 4.4 4.4 0 0 1 .352-1.136l.056-.084.068-.072c.08-.088.176-.2.316-.268.172-.088.416-.12.76.08q.119.061.208.236.089.169.148.416c.076.324.112.728.12 1.132a10 10 0 0 1-.1 1.52q-.032.162-.052.204c-.072.14-.2.244-.344.352l-.028.024-.172.136a.7.7 0 0 0-.156.188.7.7 0 0 0-.056.22q-.032.33.016.66a3.8 3.8 0 0 0-1.152-.404z" clip-rule="evenodd"/>
        <path fill="#EBC630" d="M12.136 10.135a.25.25 0 0 1 .064-.12c.048-.08.108-.152.168-.152.12 0 .232 0 .312.04.076.04.116-.04.152-.08.04-.04.04-.58.272-.696.188-.096.336-.068.388-.04-.064.024-.232.1-.388.192-.192.12-.156.66-.272.66h-.464a.21.21 0 0 0-.168.072 1 1 0 0 0-.064.124m-2.944-.504a.87.87 0 0 1 .456-.232c-.212.032-.34.232-.38.328v.56l-.08-.076v-.58zm3.64 3.26v.196c-.128-.092-.388-.32-.388-.504 0-.236.272-.508.428-.584.124-.064.156-.26.156-.348 0-.528.308-1.076.464-1.28-.052.152-.272 1.32-.312 1.512s-.308.272-.464.504c-.12.188.028.416.12.504zM10.2 11.65c-.128-.16-.208-.168-.236-.16l-.04.16c.2 0 .392.544.428.696.04.16.04.352.016.508-.024.152.18.348.256.348.08 0 .156 0 .156-.08 0-.076-.156-.152-.232-.268-.08-.12 0-.236-.04-.508a1.44 1.44 0 0 0-.312-.696zm-.7-.156-.156-.196c-.064.12-.2.372-.232.468-.04.116.04.464.04.58 0 .12-.04.272-.12.468-.076.192-.076.544-.076.776s.272.7.388.856l.352.464v-.156l-.624-1.24c-.076-.16.16-.272.16-.584s.152-.66.076-.892c-.064-.188.1-.44.192-.544m1.98 2.252a4.5 4.5 0 0 0-.932-.156c.152.08.512.248.696.312.188.06.388.052.464.04a2 2 0 0 0-.232-.2zm-.236.504c-.092-.032-.376.012-.504.04.08.024.264.084.388.116s.36.04.464.04a2.3 2.3 0 0 0-.348-.196m.196.544a.9.9 0 0 0-.428-.04l.696.352a.53.53 0 0 0-.272-.312zm-.468.972c-.156-.096-.4-.712-.504-1.012 0 .144.016.468.08.624.06.152.308.32.424.388m-.656-.468-.16-.04.08.16.08.776.152-.16.196.74.192-.428.196.66a3 3 0 0 0-.16-.893c-.088-.155-.192.04-.228.156 0-.104-.008-.335-.04-.428-.032-.091-.168-.04-.232 0l-.08-.543z"/>
        <path fill="#EBC630" d="m9.812 16.04-.04-.74-.12-.04c-.008.208-.02.664.04.816.08.196.856 1.088.892 1.204.04.12.12.272.16.272.344.04.576.236.656.352.06.091.024.84 0 1.2.064-.32.168-1.032.08-1.28-.096-.248-.532-.36-.74-.388-.092-.436-.66-1.112-.928-1.4zm2.908-.7c-.16.06-.2.284-.2.388.068-.064.212-.216.276-.312.076-.116.232 0 .348-.152.092-.128.192-.392.232-.508a2 2 0 0 1-.272.428c-.116.12-.192.08-.388.156z"/>
        <path fill="#000" d="M10.896 11.107a1.2 1.2 0 0 0-.62-.855c.21.259.379.547.504.855.04.232.08.816.308 1.008.232.196.312.312.312.504 0 .16-.208.4-.312.508.7.076.776.388.584.504-.16.092-.84-.04-1.164-.12.156.16.776.236.968.236.156 0 .348.232.428.348.032-.184-.12-.308-.196-.348.064-.032.132-.168.16-.232 0-.312-.392-.44-.584-.468.064-.064.2-.24.232-.428.04-.232-.12-.388-.312-.544-.192-.152-.232-.388-.308-.968m2.208.076c.064-.248.312-.724.428-.931a2.9 2.9 0 0 0-.504.931c-.064.312 0 .468-.04.544-.544.544-.62.66-.62.856 0 .152.156.372.232.464-.424.156-.58.352-.54.468.028.092.072.192.092.232-.144.092-.148.272-.132.348a.53.53 0 0 1 .504-.348c.308 0 .672-.156.812-.232-.348.08-1.068.184-1.16 0-.096-.188.4-.364.656-.428-.116-.064-.356-.256-.388-.504-.04-.312.468-.584.584-.74s0-.348.08-.66zm-1.9 3.068a.67.67 0 0 0-.464.04c.08-.064.288-.188.504-.156s.428.272.504.388a3.4 3.4 0 0 0-.544-.272m.428.508a.61.61 0 0 0-.62 0c.104 0 .348.012.504.076.156.06.272.28.308.388.04-.092.056-.312-.192-.468zm1.048-.624a.7.7 0 0 0-.544.388c.116-.08.388-.24.544-.272q.21-.038.424-.052c-.012-.036-.116-.096-.424-.064m-.352.584c-.216.092-.268.372-.268.504.064-.12.216-.364.308-.428s.4-.08.544-.08c-.104-.04-.364-.092-.584 0zm-1.084.504c.248.092.26.4.232.544-.08-.352-.348-.468-.58-.544-.188-.064-.36-.336-.428-.468-.092.528.3.972.504 1.128-.652-.28-.608-1.128-.504-1.516.04.544.468.74.776.856m1.436 0c-.248.092-.284.4-.272.544.192-.504.504-.544.656-.624.116-.056.284-.272.352-.424.06.68-.312 1.036-.504 1.124.68-.28.644-1.072.54-1.44-.08.468-.464.704-.772.82"/>
        <path fill="#000" d="M10.392 12.815c.06.28.26.376.348.388-.272.08-.348-.04-.464-.156-.12-.116-.232-.156-.388-.232-.124-.064-.128-.44-.12-.62a.8.8 0 0 0-.384.424c-.092.248.04.52.12.624.54.192.5.424.5.504s-.04.232-.08.428c-.036.192-.112.66-.112.816 0 .152.232.192.348.272.116.076.116.232.116.388 0 .12.024.412.04.544l.152-.16.196.74.192-.428.196.66.152-.66.236.74.116-.816.268.62.08-.424.155.388.232-.584.116.856.213-.856.211.776.196-.776.192.464.196-.736.152.12c0-.108.008-.344.04-.468.04-.16.348-.428.464-.66.12-.236-.116-.7-.152-1.012-.04-.312.04-.388.232-.58.192-.196.388-.352.388-.664 0-.248-.236-.44-.352-.504.08.196 0 .312-.04.388-.036.08-.192.12-.344.236-.16.116-.352.388-.504.388-.124 0-.184-.052-.195-.08.271.04.427-.272.387-.504s.08-.504.156-.66q.078-.166.116-.348V12c0 .08-.12.12-.155.348a1.05 1.05 0 0 0 .04.468c.155-.064.463-.24.463-.428s-.156-.336-.232-.388c.424.04.812.504.812.66s.04.312-.076.544c-.12.232-.544.312-.58.62-.04.312.192.932.152 1.168-.028.184-.32.568-.464.736l-.08.776-.192-.272-.268.896-.16-.352-.192.584-.191-.584-.273.66-.156-.7-.191.76-.08-.6-.152.62-.12-.78-.228.7-.196-.66-.192.584-.196-.624-.156.392-.268-.856-.196.232-.08-.776c0-.012.056-.32-.036-.348-.116-.04-.348-.12-.424-.352-.08-.232.152-.968.192-1.28s-.232-.272-.428-.428c-.192-.156-.268-.428-.152-.776.092-.28.452-.452.62-.504-.016.024-.04.132-.04.348s.232.4.348.468v-.624a1.4 1.4 0 0 0-.232-.544c.312.16.312.78.388 1.128"/>
        <path fill="#fff" d="M7.833 8.467c-.184-.252-.18-.648-.152-.816-.66.272-.584.816-.468 1.592.12.776.196 1.048.16 1.32-.04.272-.428.308-.544.66-.12.348.424 1.088.464 1.36s-.312.152-.272.816c.04.66 1.008.62 1.32.812.308.196.308.544.696.624s.54.388.775.58c.184.16.62.22.812.236-.208-.04-.676-.213-.892-.584a4.1 4.1 0 0 0-1.32-1.24c-.54-.352 0-1.012-.075-1.32-.076-.312-.928-.508-.852-1.012.08-.504.852-1.204.932-1.828.08-.62-.348-.892-.584-1.2"/>
        <path fill="#000" fill-rule="evenodd" d="m7.68 7.651-.083.036c-.568.28-.492.812-.384 1.556l.088.54c.064.388.096.584.068.78-.02.132-.12.208-.236.296-.12.088-.248.184-.304.36-.076.224.116.6.276.92.092.18.172.344.188.44.016.112-.032.16-.092.216-.088.088-.2.204-.18.6.028.464.512.584.904.68.168.04.32.08.412.136.132.08.207.192.28.296.1.144.195.28.42.328.271.052.431.224.583.388.06.068.12.135.192.191.088.08.24.133.4.172.156.037.312.056.412.065a1.7 1.7 0 0 1-.388-.14 1.2 1.2 0 0 1-.504-.444 4.1 4.1 0 0 0-1.32-1.24c-.355-.232-.24-.6-.143-.908.052-.16.096-.308.068-.416-.028-.124-.188-.232-.36-.348-.256-.172-.536-.36-.492-.66.04-.24.224-.516.424-.808.228-.336.464-.688.508-1.02.06-.484-.188-.756-.408-1a3 3 0 0 1-.176-.2c-.16-.212-.176-.536-.16-.728q-.002-.053.008-.088m-.091.128a.67.67 0 0 0-.36.492 3.2 3.2 0 0 0 .064.96q.04.288.08.492l.004.048c.02.12.04.22.048.308.032.2.04.348.02.496-.024.164-.148.26-.256.34l-.016.012c-.116.088-.224.172-.272.32a.5.5 0 0 0 .02.276c.032.116.088.244.152.376l.092.192.008.012.08.168c.056.108.104.216.116.3a.27.27 0 0 1-.044.204l-.056.064-.012.012-.04.044a.4.4 0 0 0-.092.16c-.02.072-.036.18-.028.336.016.28.224.42.504.516q.208.067.424.112c.132.036.264.072.356.128.143.092.227.216.3.32l.04.056c.08.112.163.2.331.236.212.04.36.148.48.268l.144.144.184.184.052.04a1.2 1.2 0 0 1-.248-.288 4 4 0 0 0-1.291-1.216.57.57 0 0 1-.264-.36.9.9 0 0 1 .02-.4c.016-.08.04-.164.068-.24l.036-.12a.6.6 0 0 0 .032-.248q-.022-.076-.152-.176l-.176-.124-.128-.088a1.3 1.3 0 0 1-.296-.268.5.5 0 0 1-.104-.384c.02-.14.092-.292.176-.44.076-.128.168-.264.26-.4l.04-.06c.108-.16.212-.32.296-.476.08-.156.14-.304.16-.448a.9.9 0 0 0-.16-.664 2 2 0 0 0-.204-.244l-.028-.032a3 3 0 0 1-.176-.208A1 1 0 0 1 7.6 8.04a2 2 0 0 1-.012-.256z" clip-rule="evenodd"/>
        <path fill="#fff" d="M16.168 8.467c.184-.252.18-.648.152-.816.66.272.584.816.468 1.592-.12.776-.196 1.048-.16 1.32.04.272.428.308.544.66.12.348-.424 1.088-.464 1.36s.312.152.272.816c-.04.66-1.008.62-1.32.812-.308.196-.308.544-.696.624s-.54.388-.776.58c-.184.16-.62.22-.812.236.208-.04.676-.213.892-.584a4.1 4.1 0 0 1 1.32-1.24c.54-.352 0-1.012.076-1.32.076-.312.928-.508.852-1.012-.08-.504-.852-1.204-.932-1.828-.08-.62.348-.892.584-1.2"/>
        <path fill="#000" fill-rule="evenodd" d="m16.32 7.651.084.036c.568.28.492.812.384 1.556l-.088.54a2.6 2.6 0 0 0-.068.78c.02.132.12.208.236.296.12.088.248.184.304.36.076.224-.116.6-.276.92-.092.18-.172.344-.188.44-.016.112.032.16.092.216.088.088.2.204.18.6-.028.464-.512.584-.904.68-.168.04-.32.08-.412.136-.132.08-.208.192-.28.296-.1.144-.196.28-.42.328-.272.052-.432.224-.584.388q-.09.102-.192.191c-.092.08-.24.133-.4.172a3 3 0 0 1-.412.065c.092-.02.24-.065.388-.14a1.2 1.2 0 0 0 .504-.444 4.1 4.1 0 0 1 1.32-1.24c.356-.232.24-.6.144-.908-.052-.16-.096-.308-.068-.416.028-.124.188-.232.36-.348.256-.172.536-.36.492-.66-.04-.24-.224-.516-.424-.808-.228-.336-.464-.688-.508-1.02-.06-.484.188-.756.408-1l.176-.2c.16-.212.176-.536.16-.728 0-.036 0-.064-.008-.088m.092.128a.67.67 0 0 1 .36.492c.027.322.005.645-.064.96a9 9 0 0 1-.08.492l-.004.048c-.02.12-.04.22-.048.308-.032.2-.04.348-.02.496.024.164.148.26.256.34l.016.012c.116.088.224.172.272.32a.5.5 0 0 1-.02.276 2.3 2.3 0 0 1-.152.376l-.092.192-.008.012-.08.168a1 1 0 0 0-.116.3.27.27 0 0 0 .044.204l.056.064.012.012.04.044a.4.4 0 0 1 .092.16c.02.072.036.18.028.336-.016.28-.224.42-.504.516q-.21.067-.424.112c-.132.036-.264.072-.356.128-.144.092-.228.216-.3.32l-.04.056a.5.5 0 0 1-.332.236.9.9 0 0 0-.48.268l-.144.144q-.09.093-.184.184l-.052.04c.092-.08.18-.176.248-.288a4 4 0 0 1 1.292-1.216.58.58 0 0 0 .264-.36.9.9 0 0 0-.02-.4 2 2 0 0 0-.068-.24l-.036-.12a.54.54 0 0 1-.032-.248q.022-.076.152-.176l.176-.124.128-.088c.108-.076.216-.16.296-.268a.5.5 0 0 0 .104-.384 1.3 1.3 0 0 0-.176-.44c-.076-.128-.168-.264-.26-.4l-.04-.06a6 6 0 0 1-.296-.476 1.5 1.5 0 0 1-.16-.448.92.92 0 0 1 .16-.664 3 3 0 0 1 .204-.244l.028-.032.176-.208c.104-.14.152-.316.172-.476.012-.092.012-.18.012-.256" clip-rule="evenodd"/>
        <path fill="#6C6E7A" d="m7.06 8.233 2.052 2.216c.012.256.16.752.196.816.04.076-.232.348-.232.58 0 .188.024.44.04.543.008.04-.072.124-.508.157-.432.032-1.16-.196-1.472-.312a2.1 2.1 0 0 0 1.28-.465c-.68-.063-1.628-.7-2.016-1.011.34.16.944.168 1.2.16l-.268-.468c.216.088.656.256.656.192 0-.06-.568-.648-.852-.932.156-.28.012-1.1-.08-1.476z"/>
        <path fill="#000" fill-rule="evenodd" d="M8.324 11.837c-.288.205-.621.34-.972.392a1.3 1.3 0 0 1-.216.004c.467.196.966.302 1.472.312.436-.033.52-.12.504-.156a6 6 0 0 1-.04-.544c0-.132.088-.272.156-.388.052-.088.096-.16.08-.192a3.6 3.6 0 0 1-.196-.816L7.06 8.233l.032.152c.088.412.18 1.08.044 1.324.24.24.68.696.816.868.024.032.04.056.04.064 0 .016-.032.016-.08.008h-.004a3.6 3.6 0 0 1-.576-.2q.132.233.268.464h-.088a3.7 3.7 0 0 1-.884-.08 1.3 1.3 0 0 1-.228-.076q.083.068.196.148c.424.312 1.14.752 1.712.848l.108.015zm-1.54-.892c.16.112.352.232.552.344.368.204.76.372 1.088.4l.188.02-.148.12c-.278.217-.6.37-.944.451l.324.088q.373.105.76.1.221-.01.428-.087a6 6 0 0 1-.036-.536c0-.14.08-.284.144-.388l.024-.04q.038-.065.068-.132a5 5 0 0 1-.196-.804L7.2 8.493c.028.156.056.332.072.508.012.144.02.288.012.416a1 1 0 0 1-.052.276q.372.376.728.768.057.07.104.148l.008.032a.09.09 0 0 1-.04.076.1.1 0 0 1-.052.016.3.3 0 0 1-.072-.008 5 5 0 0 1-.396-.124l.16.272.068.112-.132.008a4.3 4.3 0 0 1-.82-.048z" clip-rule="evenodd"/>
        <path fill="#6C6E7D" d="M14.772 10.292c.58-.428 1.78-1.428 1.935-2.02-.08.312-.16 1.04.12 1.476-.184.232-.624.744-.932.932l.736-.156c-.012.104-.088.336-.272.428.308.012.988-.008 1.24-.192-.456.336-1.504 1.008-2.091 1.008.104.168.487.504 1.2.504-.377.18-1.264.472-1.82.192-.052-.04-.256-.1-.196-.192.08-.12.272-.196.196-.348a3.4 3.4 0 0 1-.196-.74c-.028-.184.04-.672.08-.892"/>
        <path fill="#000" fill-rule="evenodd" d="M16.051 10.568q.427-.372.772-.82c-.208-.324-.212-.812-.172-1.168.016-.12.04-.228.056-.308q-.044.149-.128.28c-.364.592-1.312 1.376-1.808 1.74-.04.22-.108.708-.08.892.04.232.12.584.196.74.052.104-.024.176-.1.248a.6.6 0 0 0-.096.1c-.044.072.06.12.136.16a.3.3 0 0 1 .06.036c.488.24 1.228.048 1.656-.124q.097-.036.164-.072-.091.002-.176-.008a1.44 1.44 0 0 1-.968-.42.5.5 0 0 1-.056-.08h.092c.492-.052 1.232-.48 1.72-.808q.161-.109.28-.2a.9.9 0 0 1-.312.128 3.7 3.7 0 0 1-.928.068.4.4 0 0 0 .104-.076.63.63 0 0 0 .168-.352l-.736.156.16-.112zm.476.056-.616.132-.056-.144c.144-.088.324-.256.496-.436.148-.16.288-.32.38-.436a1.66 1.66 0 0 1-.176-.776q-.002-.127.008-.248l-.08.108a6 6 0 0 1-.532.576q-.527.501-1.112.936c-.016.108-.04.268-.056.424-.02.172-.028.332-.016.412.02.116.048.256.08.392.04.136.072.256.108.32a.23.23 0 0 1 .02.16.3.3 0 0 1-.072.12l-.14.14.024.02.072.04h.004l.064.036c.256.124.592.124.924.064a3 3 0 0 0 .524-.14c-.528-.08-.836-.352-.936-.52l-.072-.116h.14c.132 0 .3-.04.48-.104.188-.068.384-.16.576-.264.2-.104.388-.22.56-.328l-.116.016a5 5 0 0 1-.652.02l-.032-.148a.38.38 0 0 0 .168-.176z" clip-rule="evenodd"/>
        <path fill="#18F5EE" d="M10.08 12.04c.248.216.208.632.16.816a3 3 0 0 1-.352-.12c-.08-.04-.312-.04-.58-.076-.22-.032-.4-.376-.468-.544.132.064.42.2.544.232.156.04-.04-.192-.232-.348-.156-.124-.272-.648-.312-.892.064.116.228.388.352.544.152.192.308.272.384.388.08.116.196-.12 0-.468-.192-.348-.268-.464-.54-.892a1.53 1.53 0 0 1-.156-1.012c.04.428.62.856.696 1.168.08.308.08.464.312.62.184.124.208.44.192.584m3.643 0c-.248.216-.203.632-.152.816.088-.028.284-.088.348-.12.08-.04.308-.04.58-.076.216-.032.4-.376.464-.544-.128.064-.416.2-.54.232-.16.04.04-.192.232-.348.156-.124.272-.648.308-.892a5 5 0 0 1-.348.544c-.156.192-.308.272-.388.388s-.192-.12 0-.468c.196-.348.272-.464.544-.892.216-.344.192-.816.156-1.012-.04.428-.62.856-.7 1.168-.08.308-.08.464-.308.62-.188.124-.208.44-.196.584"/>
        <path fill="#836877" d="M11.368 10.921a.67.67 0 0 1 .58.196.9.9 0 0 1 .54-.2c.308 0 .344.32.344.596 0 .28-.588.78-.884 1.032-.308-.24-.848-.716-.888-1.032-.008-.08-.076-.556.308-.596z"/>
        <path fill="#000" d="m11.936 11.227-.048-.064a.6.6 0 0 0-.512-.168.23.23 0 0 0-.16.072.3.3 0 0 0-.072.148c-.028.116-.012.24-.008.28v.008c.008.06.04.14.1.228q.091.133.224.272c.156.164.34.324.484.44.144-.124.34-.292.5-.46.092-.096.172-.188.228-.272a.4.4 0 0 0 .08-.2c0-.14-.009-.272-.048-.372a.24.24 0 0 0-.08-.108.23.23 0 0 0-.136-.04.8.8 0 0 0-.492.184zm.012 1.316c-.308-.24-.848-.716-.888-1.032v-.004c-.012-.096-.068-.552.308-.592a.68.68 0 0 1 .58.2l.016-.016a.93.93 0 0 1 .52-.184c.312 0 .348.32.348.596 0 .28-.588.78-.884 1.032"/>
    </g>
    <defs>
        <clipPath id="TYRANT__a">
            <path fill="#fff" d="M0 0h24v24H0z"/>
        </clipPath>
    </defs>
</svg>
