<svg xmlns="http://www.w3.org/2000/svg" width="24" height="24" fill="none" viewBox="0 0 24 24">
    <g clip-path="url(#USDD__a)">
        <path fill="#216C58" d="M24 0H0v24h24z"/>
        <path fill="#fff" d="M9.374 6.354c-.17 0-.31.169-.31.376v.188c0 .207.14.377.31.377h5.872c.17 0 .311-.17.311-.377V6.73c0-.207-.141-.376-.31-.376zm2.39 1.176v10.28c0 .17-.127.31-.282.31h-.141c-.155 0-.282-.14-.282-.31V7.53zm1.412 0v10.28c0 .17-.127.31-.282.31h-.142c-.155 0-.282-.14-.282-.31V7.53z"/>
        <path fill="#fff" d="M11.34 9.958a2.4 2.4 0 0 1 .82-.122c.489 0 .856.094 1.115.263a.9.9 0 0 1 .376.47c.07.19.245.368.485.368h1.425c.254 0 .485-.212.447-.49a2.4 2.4 0 0 0-.484-1.148q-.495-.636-1.355-.983c-.575-.235-1.243-.348-1.996-.348-.743 0-1.411.113-2 .348a3.37 3.37 0 0 0-1.411.979c-.346.422-.53.955-.518 1.5a2.02 2.02 0 0 0 .79 1.676c.509.405 1.196.696 2.052.88l1.083.24c.489.108 1.571.273 1.571.955 0 .762-1.044.932-1.609.932-.673 0-1.553-.193-1.755-.937-.057-.202-.235-.395-.48-.395H8.46a.44.44 0 0 0-.447.485c.06.527.235.978.527 1.364a3.2 3.2 0 0 0 1.458 1.022q.926.336 2.156.334 1.235 0 2.131-.33a3.1 3.1 0 0 0 1.388-.97 2.4 2.4 0 0 0 .5-1.5 2.28 2.28 0 0 0-.904-1.84 3.9 3.9 0 0 0-.984-.555c-.833-.33-2.884-.325-3.482-1.158a.48.48 0 0 1-.085-.32v-.005q-.002-.231.151-.414c.103-.122.259-.226.47-.3"/>
        <path fill="#fff" d="M11.764 9.35h-.705v1.083h.705zm0 3.85h-.705v1.073h.705zm0 3.227h-.705v1.078h.705zm1.412-7.076h-.706v1.082h.706zm0 3.849h-.706v1.073h.706zm0 3.227h-.706v1.078h.706z"/>
        <path fill="#fff" d="M19.769 12.461a.24.24 0 0 0-.24.216 7.544 7.544 0 0 1-7.53 6.852c-3.952 0-7.184-3.007-7.528-6.852a.245.245 0 0 0-.24-.216.23.23 0 0 0-.23.245A8.02 8.02 0 0 0 12 19.999c4.197 0 7.642-3.204 8-7.293a.226.226 0 0 0-.232-.245m-15.533-.922a.24.24 0 0 0 .24-.217A7.543 7.543 0 0 1 12 4.472c3.953-.001 7.185 3.006 7.529 6.85a.24.24 0 0 0 .24.217c.136 0 .24-.113.23-.245A8.02 8.02 0 0 0 12 4a8.02 8.02 0 0 0-7.998 7.294.23.23 0 0 0 .23.245z"/>
    </g>
    <defs>
        <clipPath id="USDD__a">
            <path fill="#fff" d="M0 0h24v24H0z"/>
        </clipPath>
    </defs>
</svg>
