<svg xmlns="http://www.w3.org/2000/svg" width="24" height="24" fill="none" viewBox="0 0 24 24">
    <g clip-path="url(#VOLT__a)">
        <path fill="#fff" d="M24 0H0v24h24z"/>
        <path fill="#BAFE00" d="m15.112 4.04-8.204 8.468 4.392.78-2.2 6.672 7.996-8.28-3.864-.78.188-1.744 1.692-5.12z"/>
        <path fill="#000" d="m7.012 12.476 4.36.776-2.148 6.508 7.768-8.048-3.816-.768.192-1.8 1.62-4.908zM15.072 4l.088.052-1.688 5.116-.18 1.692 3.908.788L9.14 20l-.088-.052 2.18-6.616-4.432-.788z"/>
        <path fill="#fff" d="M9.2 7.435a6 6 0 0 1-.395-.392c-.052.24-.16.72-.168.732s-.08.36-.116.532c-.012.112-.012.408.064.692.08.284.284.652.38.8.048.092.152.3.188.393.04.091.04.42.04.575v.913l-.112.228.02.18c0 .076-.016.236-.02.256s-.132.236-.196.34l-.08.34c.008.052.04.188.08.304.04.12.316.48.448.652l.076.207.172.369.28.331c.044.064.16.229.228.368.088.18.224.412.364.464.112.04.184.049.208.04.02.04.068.152.116.28.044.12.252.36.352.46.112.092.344.273.388.273.04 0 .336.096.476.14l.316.043.304-.04.388-.143.472-.293.264-.388.144-.28.184-.091.252-.24.164-.28.268-.345.428-.568.068-.192.14-.264.364-.568.036-.191-.092-.432c-.048-.08-.14-.24-.16-.264a1.2 1.2 0 0 1-.064-.324c-.024-.172-.092-.22-.12-.28-.028-.045-.052-.16-.064-.209-.024-.203-.068-.652-.056-.808.008-.152.104-.384.148-.48l.48-.9c.072-.172.212-.56.232-.74q0-.345-.1-.676l-.224-.86c-.264.228-.86.72-1.124.86a4.5 4.5 0 0 0-.936.64c-.168.16-.304.364-.352.444-.06-.04-.332-.128-.908-.188a1.83 1.83 0 0 0-1.196.288l-.208-.4a2 2 0 0 0-.228-.264l-.432-.224-.584-.36-.6-.46z"/>
        <path fill="url(#VOLT__b)" d="m10.64 12.24-.168-.168-.084.104-.02.156c0 .04.02.152.08.28.084.152.304.188.548.196.2 0 .32-.088.352-.132l-.228-.096a.7.7 0 0 1-.12-.096l-.056.04c-.012.012-.064.02-.088.02l-.188-.12a.4.4 0 0 1-.064-.104c-.012-.036.02-.068.04-.08z"/>
        <path fill="url(#VOLT__c)" d="m13.836 12.224.2-.152.08.104.02.156c0 .04-.02.152-.08.28-.084.152-.304.188-.548.196-.2 0-.32-.088-.352-.132l.228-.112a.5.5 0 0 0 .12-.08l.056.04c.012.012.064.02.088.02.06-.04.148-.12.156-.128.004-.008.064-.068.08-.112.008-.032-.032-.068-.048-.08"/>
        <path fill="#000" d="M12.224 16.983a1.4 1.4 0 0 1-.26-.044l.02-.08c.052.016.148.04.248.04.1.008.2 0 .28-.028l.032.077a.8.8 0 0 1-.32.035"/>
        <path fill="#5A5A5C" d="M11.58 15.487c.04.024.172.08.324.092.196.016.448 0 .524-.04a.5.5 0 0 0 .14-.088v-.1c-.02-.016-.1-.04-.236-.04a1.4 1.4 0 0 0-.488.08q-.12.035-.24.08zm-.02.072a1 1 0 0 0 .252.072h.64l.128-.008c.028-.008.08-.024.08-.032-.012-.008-.004-.128.108-.14.092-.012.188.068.224.108l-.02.164c-.192.056-.58.16-.604.16a8 8 0 0 1-.56-.056 4 4 0 0 1-.264-.18z"/>
        <path fill="#C0C4CA" d="M9.668 12.248c.02.032-.008.04-.024.04-.144 0-.344.22-.344.68 0 .364.1.668.152.772-.024.052-.052.284-.064.396l-.088-.16-.14-.24a9 9 0 0 1-.324-.512c-.04-.08-.032-.24-.02-.32l.14-.328c.032-.064.12-.224.184-.36.068-.14.252-.2.336-.216.056.068.176.212.192.248m5.276 0c-.02.032.008.04.024.04.148 0 .344.22.344.68 0 .364-.1.668-.148.772.02.052.048.284.06.396l.088-.16.144-.24c.092-.136.284-.44.324-.512.04-.08.028-.24.02-.32l-.14-.328-.188-.36c-.064-.14-.248-.2-.332-.216-.056.068-.176.212-.196.248m-4.496-.196c.008.04 0 .112-.096.132-.12.02-.376-.008-.352.06.024.064.224.488.288.548.064.064.16.2.468.2.244 0 .52-.108.628-.164l-.092-.184c.052.02.212.064.428.064.22 0 .308-.108.328-.16a.13.13 0 0 0-.02-.136c-.052-.064-.12-.104-.12-.212s.04-.304-.048-.448c-.092-.144-.38-.448-.308-.472s.12.06.192.132c.072.068.22.264.22.32.004.056-.088.4.28.4.296 0 .34-.232.32-.348.028-.08.096-.256.156-.34.08-.108.216-.252.224-.208.008.032-.096.168-.148.228-.064.092-.196.32-.196.504a.6.6 0 0 1-.096.348.5.5 0 0 0-.088.228c0 .08.184.144.28.164h.412l.044-.02c-.036.032-.108.1-.104.12s-.032.032.096.068c.124.036.172.092.288.116.112.02.2.04.308.036a1 1 0 0 0 .2-.04c.04-.024.116-.088.16-.112.04-.024.216-.232.3-.332a.3.3 0 0 1 .028-.088c.024-.04.056-.112.068-.14v-.108a.1.1 0 0 1-.068.008.2.2 0 0 1-.08-.04l-.248-.012-.08-.08.012-.044.38-.12-.312.144c.032.004.12.016.192.016h.356l.136-.076c0 .016.012.06 0 .096-.016.048-.192.3-.268.408-.072.112-.292.38-.336.416a.33.33 0 0 0-.08.16c0 .016-.072.052-.108.064q-.17.054-.348.056c-.152 0-.44-.064-.568-.1-.04 0-.128.012-.168.044-.048.04-.088-.096-.248-.08l-.372.04a.9.9 0 0 0-.344-.04.56.56 0 0 0-.32.136c-.012-.032-.084-.1-.252-.1-.208 0-.516.084-.616.084-.104 0-.376-.06-.4-.104-.016-.04.072-.036-.044-.14a4 4 0 0 1-.48-.596 7 7 0 0 0-.244-.38 1 1 0 0 0 .244.084c.168.04.36.068.388.052.024-.012.14-.072.092-.104l-.024-.008.024.008z"/>
        <path fill="#000" d="m11.576 13.444.005-.005.006-.003h.007q.004.001.006.004l.16.108.004.004.06.18.02.032.044.06v.024l-.007.005-.008.001a.02.02 0 0 1-.013-.01 1 1 0 0 1-.08-.124l-.044-.152-.16-.1-.004-.005-.001-.007.001-.007zm.004.504.006-.004.006-.001.007.001q.003 0 .005.004.07.052.14.1.017.01.028.008h.008a.04.04 0 0 1 .024.012l.008.028q.002.03-.008.048v.012l.032.032q.07.075.128.16.007.017-.004.028l-.006.003h-.007l-.006-.002-.005-.005q-.081-.106-.168-.208v-.028l.004-.008q.008-.011.004-.028v-.008h-.008c-.008 0-.024 0-.04-.012l-.072-.048-.072-.06-.004-.005a.02.02 0 0 1 0-.014l.004-.005zm.028.236c.004 0 .04 0 .056.064 0 .008.012.016.02.012.008 0 .016-.012.012-.02-.02-.08-.068-.096-.096-.092a.02.02 0 0 0-.014.022.02.02 0 0 0 .022.014m-1.028-1.856c-.02-.044.028-.1.052-.12.036.024.104.076.096.08l-.06.008c-.008 0-.036.032-.04.04-.008.008.032.036.04.052.012.016.056.032.08.032.028 0 .044-.028.044-.048l.008-.036.084.064c0 .008-.012.02-.04.02-.04 0-.016.048-.012.088.004.044.052.008.08-.028.024-.028.016-.048.004-.056v-.004l.088.072c0 .012-.02.04-.092.06-.068.02-.096.008-.096 0a1.2 1.2 0 0 1-.24-.224zm3.308 0c.016-.044-.028-.1-.056-.12a.6.6 0 0 0-.096.08l.06.008c.008 0 .04.032.044.04.008.008-.032.036-.04.052-.012.016-.06.032-.084.032s-.04-.028-.04-.048a.1.1 0 0 0-.008-.036l-.084.064c0 .008.012.02.04.02.04 0 .016.048.008.088 0 .044-.048.008-.08-.028-.02-.028-.012-.048 0-.056v-.004l-.092.072c0 .012.024.04.092.06.072.02.096.008.1 0 .072-.056.216-.176.236-.224"/>
        <path fill="url(#VOLT__d)" d="m15.633 8.028-.24 1.8-.393-.4-.048.62-.12.048h-.092l-.412-.372-.168-.12.104-.216.136-.112-.111-.02.38-.26-.269-.04.34-.536.288.28zm-6.62 0 .24 1.8.391-.4.048.62.12.048h.092l.412-.372.172-.12-.108-.216-.132-.112.108-.02-.38-.26.272-.04-.344-.536-.284.28z"/>
        <path fill="#000" fill-rule="evenodd" d="m8.856 7.008-.04-.092-.3 1.228a2 2 0 0 0 .152 1.2c.092.192.18.336.248.46q.059.092.1.172c.08.155.132.291.132.515v1.189a1 1 0 0 0-.068.152.4.4 0 0 0-.02.195.6.6 0 0 1-.092.445 1 1 0 0 0-.192.568c0 .092.032.192.072.28a1.4 1.4 0 0 0 .12.216l.372.528c.012.063.04.168.08.271.04.108.1.22.176.293q.27.278.456.62l.016.036c.04.08.092.208.176.316.096.12.228.216.42.204a1.54 1.54 0 0 0 1.28 1.127h.008a.4.4 0 0 0 .16-.056.3.3 0 0 0 .132-.187v-.005l.004-.008.004.02a.4.4 0 0 0 .06.133.34.34 0 0 0 .28.108c.104 0 .22-.04.332-.1q.077-.046.16-.08l.016-.012.136-.069c.1-.056.2-.12.292-.22.156-.174.275-.378.352-.6.12-.023.344-.148.536-.471.12-.213.22-.332.312-.44l.028-.033c.08-.095.156-.184.24-.32.08-.08.256-.295.308-.567.092-.112.22-.288.328-.468.056-.088.104-.18.14-.264a.6.6 0 0 0 .048-.224 1.13 1.13 0 0 0-.216-.617.4.4 0 0 1-.068-.16.6.6 0 0 1-.016-.143v-.005a1 1 0 0 0-.04-.18.6.6 0 0 0-.088-.2.2.2 0 0 1-.028-.06 3.5 3.5 0 0 1-.1-.992c.012-.136.08-.3.168-.468.056-.111.12-.216.176-.311l.076-.132c.068-.116.192-.36.292-.624.048-.132.092-.268.12-.4s.04-.256.024-.36c-.052-.324-.236-1.024-.32-1.336l-.016-.052-.04.04c-.128.112-.34.296-.552.464s-.424.324-.56.388c-.18.084-.432.228-.68.416-.246.18-.455.405-.616.664a3.1 3.1 0 0 0-1.056-.184c-.468 0-.856.164-1.028.268a1.6 1.6 0 0 0-.2-.372 1 1 0 0 0-.428-.364c-.196-.076-.6-.32-.972-.596a6 6 0 0 1-.512-.408 1.3 1.3 0 0 1-.28-.336zm3.452 9.352a.6.6 0 0 0 .212-.133l.144-.111c.164-.128.368-.284.408-.44l.024-.113c.088-.056.232-.232.068-.484.008.105 0 .324-.092.36-.064-.107-.312-.32-.8-.32-.492 0-.72.213-.768.32-.064 0-.176-.063-.12-.36-.192.24-.032.425.068.484 0 .064.04.216.172.313q.078.062.168.16c.124.12.272.267.444.32-.016.1-.036.22-.06.32a.23.23 0 0 1-.1.14.3.3 0 0 1-.124.044 1.475 1.475 0 0 1-1.228-1.1l-.008-.028a2.4 2.4 0 0 1-.056-.488c0-.248.004-.868-.112-1.028l-.02.096-.044-.037c.028.048.08.18.08.349l-.236-.349a1.4 1.4 0 0 0-.268-.308h-.02c-.072 0-.288-.008-.356.108.012.005.048.009.112-.02l.064-.027c.048-.024.08-.04.068-.013-.016.04-.056.26 0 .4l.192.417.336.54.108.127.036.236a.43.43 0 0 1-.3-.18c-.08-.1-.128-.216-.168-.3l-.016-.04a3 3 0 0 0-.472-.64.8.8 0 0 1-.16-.263 2 2 0 0 1-.068-.22c-.004-.112.02-.285.036-.373l-.1.24-.328-.463a1.4 1.4 0 0 1-.112-.2.7.7 0 0 1-.068-.256.94.94 0 0 1 .18-.528.66.66 0 0 0 .104-.5.3.3 0 0 1 .02-.16 1 1 0 0 1 .064-.149l.004-.008v-.375c.092-.12.204-.392.252-.52l-.252.348v-.656a1.05 1.05 0 0 0-.14-.548 2 2 0 0 0-.1-.18 5 5 0 0 1-.244-.452 1.93 1.93 0 0 1-.148-1.152l.256-1.044c.056.08.144.176.252.28.148.132.328.276.52.412q.462.354.988.604c.152.056.288.192.392.34.108.148.18.304.204.4l.012.044.04-.028a2 2 0 0 1 1.032-.28c.496 0 .912.124 1.056.188l.032.012.016-.028a2.3 2.3 0 0 1 .612-.668c.24-.184.488-.324.664-.408q.307-.173.576-.4c.192-.152.38-.312.512-.428.088.332.256.968.3 1.268a.9.9 0 0 1-.02.336 3 3 0 0 1-.12.392c-.1.26-.22.5-.284.616l-.076.128c-.056.096-.12.204-.176.315-.088.168-.164.345-.176.497q-.012.18 0 .36l-.192-.268c.04.111.128.32.208.455q.02.18.056.356l.032.116a.3.3 0 0 0 .04.08c.032.04.056.108.076.172l.032.169c0 .04 0 .096.016.16a.4.4 0 0 0 .088.188c.092.112.172.308.2.58a.6.6 0 0 1-.048.188c-.032.08-.08.168-.132.256-.1.168-.22.335-.308.444l-.1-.24q.043.211.028.428l.012-.024c-.068.2-.2.356-.26.416h-.004l-.004.008c-.08.132-.156.22-.236.316l-.016.015-.008.017a2.7 2.7 0 0 0-.32.447c-.144.245-.308.36-.416.412l.04-.26.108-.128.336-.54.192-.415c.056-.14.016-.36 0-.4-.012-.028.02-.012.068.011l.064.029c.064.028.1.024.112.02-.068-.117-.28-.113-.36-.109h-.016q-.156.136-.268.308l-.236.349c0-.168.056-.3.08-.349l-.044.037-.016-.096c-.12.16-.116.78-.116 1.028v.06c0 .143-.052.435-.076.528h.008l-.028.071q-.122.274-.312.504a1 1 0 0 1-.276.209l-.152.076a3 3 0 0 0-.16.08.7.7 0 0 1-.3.096.27.27 0 0 1-.22-.088.24.24 0 0 1-.048-.1 1.5 1.5 0 0 1-.012-.32M9.64 8.628l-.68-.768.288 2.032.36-.368.06.508c-.072-.04-.104-.08-.116-.112-.012.132.04.408.328.48-.152-.049-.216-.224-.228-.309.192.113.4.049.48 0q-.089.01-.16.005l.068-.08c.04-.04.092-.08.148-.128.104-.08.216-.168.296-.22l.04.096-.012-.116.004-.016a.34.34 0 0 0-.076-.24l-.088-.092.016-.004a.6.6 0 0 1 .28.016.38.38 0 0 0-.26-.092l-.288-.2.092-.02a1.2 1.2 0 0 1 .304-.004.4.4 0 0 0-.244-.064l-.356-.56zm.256 1.463a.4.4 0 0 1 .096-.12q.217-.194.456-.36a.28.28 0 0 0-.064-.175.5.5 0 0 0-.128-.12l-.06-.04h.008a.3.3 0 0 1 .088-.04l-.368-.256.04-.008c.048-.012.116-.028.188-.032l.02-.004-.288-.452-.248.244-.572-.644L9.3 9.74l.364-.372.076.68h-.028a.5.5 0 0 0 .184.043m5.108-1.463.676-.768-.288 2.032-.36-.368-.056.508q.101-.062.112-.112c.012.132-.036.408-.328.48.156-.049.22-.224.232-.309a.5.5 0 0 1-.48 0 1 1 0 0 0 .16.005l-.072-.08c-.04-.04-.092-.08-.148-.128-.1-.08-.216-.168-.296-.22l-.04.096.012-.116v-.016a.34.34 0 0 1 .072-.24l.092-.092-.02-.004a.6.6 0 0 0-.28.016.38.38 0 0 1 .26-.092l.288-.2-.092-.02a1.2 1.2 0 0 0-.3-.004.4.4 0 0 1 .24-.064l.36-.56zm-.256 1.463a.4.4 0 0 0-.096-.12 5 5 0 0 0-.456-.36q.002-.096.064-.175a.6.6 0 0 1 .124-.12l.064-.04h-.012a.3.3 0 0 0-.084-.04l.364-.256-.036-.008a1 1 0 0 0-.188-.032l-.02-.004.284-.452.252.244.568-.644-.232 1.656-.368-.372-.072.68h.028a.6.6 0 0 1-.184.043M10.84 8.78l.012.012zm.012.012.256.292-.116.08c.04-.076.072-.176-.152 0 .032-.092.08-.28.012-.372m2.88 0 .008-.012-.012.012zm0 0c-.072.088-.024.28.008.368-.224-.172-.196-.072-.152 0l-.12-.08.26-.288zm-4.156 4.476c0 .107.04.343.212.436a.5.5 0 0 0 .144-.172.8.8 0 0 1-.12.236q-.014.023-.04.048c-.064.071-.14.151-.148.211a.3.3 0 0 1 .108-.271.416.416 0 0 1-.156-.489m.36.255-.004.009v-.008zm4.784.18c.172-.091.212-.327.212-.44.04.1.06.337-.16.493.12.095.124.224.112.271-.008-.06-.08-.14-.148-.211l-.044-.049a.8.8 0 0 1-.116-.24c.02.069.104.145.144.177m-.144-.171v-.008zM10 14.435c0 .008.004.02.016.02.016 0 .028-.008.036-.011v-.253c.008-.024.016-.067 0-.071-.02-.008-.08.024-.08.107 0 .072.016.168.028.208m.116-.283c.012 0 .04.012.044.028l-.008.047v.18l.028-.18.184.304a.6.6 0 0 1-.152.08c-.08.02-.084-.011-.088-.024l-.008-.44zm-.04.54-.056-.176c0-.008.004-.02.02-.028.024-.012.032.011.04.024l.012.16c.012 0 .032.008.04.023.012.017 0 .064-.012.088l-.04-.091zm.056.111c.008-.032.032-.108.052-.12l.024-.011a.2.2 0 0 1 .068-.024c.024 0 .02.036.016.052v.144l.02.043-.02.01-.02-.002c-.012 0-.024-.011-.032-.02-.02-.015-.04-.031-.056-.031l.032-.104-.056.104zm.188.017.012-.18.072-.049.096.152-.096.088.108-.056.052.073c-.04.02-.18.02-.212.011-.024 0-.032-.027-.032-.04m.08.168-.108.072a.2.2 0 0 1-.012-.072v-.02c-.004-.024-.004-.04.048-.04.064 0 .156 0 .164.015a.5.5 0 0 1-.016.145c-.008.052-.036.148-.056.144a.5.5 0 0 1-.096-.132c-.012-.005-.024-.012 0-.032a1 1 0 0 0 .072-.08zm.164.368.004-.437a.4.4 0 0 0-.04.104c-.012.033 0 .14 0 .193l-.028-.048-.024.123c-.004.053.052.12.06.12v-.075zm3.96-.9c.016 0 .02-.012.02-.02a1 1 0 0 0 .028-.209c0-.084-.06-.116-.08-.107-.016.004-.008.048 0 .068v.255c.008 0 .02.013.036.013zm-.14-.276c0-.016.032-.024.044-.028l-.008.436c0 .012-.008.04-.088.02a.6.6 0 0 1-.152-.077l.184-.304.028.18v-.18a.1.1 0 0 1-.008-.047m.14.336-.056.175-.044.092c-.008-.02-.024-.071-.012-.088a.07.07 0 0 1 .04-.027c0-.044.012-.14.016-.152.004-.017.016-.04.036-.028.016.008.02.02.02.028m-.164.168c.02.011.044.088.052.12l-.028.04-.056-.104.032.104c-.02 0-.04.016-.052.032l-.032.02c-.02.008-.04 0-.044-.009l.02-.04V14.7c-.004-.016-.008-.052.016-.052a.2.2 0 0 1 .068.024zm-.148-.044.012.18c0 .011-.008.04-.032.04a.6.6 0 0 1-.212-.012l.052-.073.108.056-.096-.088.096-.152zm.04.42-.104-.072a.5.5 0 0 0 .076.08c.02.02.008.027 0 .032-.028.04-.08.123-.1.132-.02.004-.048-.092-.056-.144a.5.5 0 0 1-.016-.144c.008-.017.104-.017.164-.012.052 0 .052.011.052.04v.016c0 .032-.012.06-.016.072m-.28-.14.008.44.032-.024v.076s.06-.069.056-.12l-.024-.124-.028.048c0-.052.012-.16 0-.192 0-.032-.028-.08-.04-.104zm-2.372.72-.012-.064-.02-.04.052-.028c.028-.092.2-.28.64-.28s.64.188.692.28l.008.032.02.06c-.064.04-.3.132-.72.132-.424 0-.616-.064-.66-.092M9.24 12.09c.04-.031.14-.091.236-.08l-.2-.091-.04.172zm5.9-.08c.096-.011.2.049.24.08l-.04-.171-.2.088zm-3.52-.683a.02.02 0 0 0-.014-.009l-.008.002-.006.007-.004.01q0 .005.004.01.151.209.296.424-.007.203-.008.408a.34.34 0 0 0 .1.212c.024.027.04.048.048.072a.3.3 0 0 1-.004.095.1.1 0 0 1-.04.057.3.3 0 0 1-.092.048.7.7 0 0 1-.276.028l-.24-.024a.5.5 0 0 1-.124-.032l-.072-.04a2 2 0 0 1-.24-.177 37 37 0 0 0-.476-.367 2 2 0 0 0-.2-.08 4 4 0 0 1-.288-.112c-.008 0-.016 0-.02.011q-.005.014.008.02.22.097.448.172c-.012.013-.032.02-.056.032a.3.3 0 0 1-.104.009 1 1 0 0 1-.116-.008l-.04-.005a2 2 0 0 0-.244-.015l-.096-.005-.02-.011a.5.5 0 0 1-.076-.08l-.028.024q.037.046.084.084c.012.008.02.016.032.016l.132.18v.003h.004a.9.9 0 0 0 .428.608c.08.06.144.097.208.12.064.02.12.028.192.028.197-.008.392-.049.576-.12a1 1 0 0 0 .124-.06.1.1 0 0 0 .024-.02l.008-.007-.08-.129.004-.008h.008l.16.02.152.008a.28.28 0 0 0 .136.144q.067.031.104.069c.028.02.052.04.08.048.024.004.06.024.104.04l.112.06a.02.02 0 0 0 .024-.008.02.02 0 0 0 .002-.014l-.004-.007-.006-.003a3 3 0 0 0-.292-.144.6.6 0 0 0-.108-.073.25.25 0 0 1-.112-.112.6.6 0 0 0 .176-.031.3.3 0 0 0 .1-.056.14.14 0 0 0 .052-.072c.012-.048.016-.08.004-.112a.2.2 0 0 0-.056-.088.3.3 0 0 1-.088-.188v-.092l.004-.052a7 7 0 0 0 .004-.268.1.1 0 0 0-.012-.04 17 17 0 0 0-.296-.4zm-.304 1.376-.008-.012a.4.4 0 0 1-.072-.024 2.5 2.5 0 0 1-.32-.224l-.304-.237-.132-.103c-.08.08-.1.188-.092.284a.4.4 0 0 0 .032.127.24.24 0 0 0 .048.088c.02.024.052.065.108.1a.6.6 0 0 0 .348.088c.14 0 .24-.02.304-.043zm-.868-.62a.28.28 0 0 1-.2.056l-.08-.008a2 2 0 0 0-.216-.016l-.156-.008.12.168.008.011.06.104.104.172c.087.191.245.34.44.416.064.02.12.029.184.029q.291-.014.564-.116.064-.027.124-.06l-.064-.1a.4.4 0 0 1-.096.048.9.9 0 0 1-.316.048.64.64 0 0 1-.368-.096.5.5 0 0 1-.132-.124.3.3 0 0 1-.04-.08 1 1 0 0 1-.032-.136.38.38 0 0 1 .096-.308m2.416-.756.005-.004.007-.002.007.002q.002 0 .005.004c.008 0 .008.011 0 .02q-.152.209-.296.424.008.203.008.408a.32.32 0 0 1-.1.212.2.2 0 0 0-.048.072.2.2 0 0 0 .004.095c.008.017.02.04.04.057a.5.5 0 0 0 .092.048.7.7 0 0 0 .276.028l.24-.024a.4.4 0 0 0 .124-.032l.072-.04q.124-.081.24-.177.237-.185.476-.367c.032-.016.12-.056.2-.08.068-.02.22-.08.288-.112.008 0 .016 0 .02.011q.005.014-.008.02a5 5 0 0 1-.448.172c.012.013.036.02.056.032a.2.2 0 0 0 .104.009 1 1 0 0 0 .116-.008h.02l.02-.005q.12-.016.244-.015l.096-.005.02-.011a.5.5 0 0 0 .076-.08l.028.024a.6.6 0 0 1-.08.084.1.1 0 0 1-.04.016l-.128.18v.003h-.004a.9.9 0 0 1-.428.608.8.8 0 0 1-.208.12.6.6 0 0 1-.192.028 1.9 1.9 0 0 1-.576-.12 1 1 0 0 1-.124-.06.1.1 0 0 1-.024-.02l-.008-.007.088-.136-.18.02-.072.004-.164.2a.1.1 0 0 1-.036.024l-.04.015c-.016 0-.032.009-.044.013h-.004c-.016 0-.032.007-.044.011a.3.3 0 0 0-.072.045l-.068.06-.006.006a.02.02 0 0 1-.016 0l-.006-.007-.004-.005a.02.02 0 0 1 0-.013q0-.003.004-.005l.072-.064a.4.4 0 0 1 .084-.048l.044-.016h.004l.08-.024q.083-.093.164-.189a.7.7 0 0 1-.244-.031.3.3 0 0 1-.1-.056.14.14 0 0 1-.052-.072.2.2 0 0 1-.004-.112.2.2 0 0 1 .056-.088.3.3 0 0 0 .088-.188 1 1 0 0 0-.004-.144l-.004-.08a2 2 0 0 1 0-.188c0-.017.008-.028.012-.04zm1.76.864c.016-.028.04-.056.06-.08a2 2 0 0 1-.156 0l-.136.011-.16.017c-.04 0-.088 0-.12-.013l-.028-.011c.064.084.08.188.068.276a.4.4 0 0 1-.032.136.3.3 0 0 1-.052.095.5.5 0 0 1-.12.109.6.6 0 0 1-.368.096.9.9 0 0 1-.316-.048.3.3 0 0 1-.112-.06l-.072.112.008.004a1.7 1.7 0 0 0 .68.172c.064 0 .12-.008.18-.028a.8.8 0 0 0 .44-.417h.004l.164-.28.004-.003v-.004l.012-.012.048-.072zm-.608-.097.012-.011a.533.533 0 0 1-.788.584.4.4 0 0 1-.068.02c.016.015.048.04.104.06a.9.9 0 0 0 .304.043c.172 0 .28-.04.352-.088.056-.04.084-.075.108-.1a.2.2 0 0 0 .048-.083.6.6 0 0 0 .028-.132.34.34 0 0 0-.1-.293m-3.68.96q.018-.004.024.008.001.01.02.025l.068.036c.064.02.16.04.316.04q.215 0 .424-.048h.016a.6.6 0 0 1 .216-.024.42.42 0 0 1 .236.1q.012.011 0 .024l-.006.004h-.006a.02.02 0 0 1-.012-.005.4.4 0 0 0-.216-.088.45.45 0 0 0-.2.02l-.036.008a2 2 0 0 1-.416.04 1 1 0 0 1-.328-.04.3.3 0 0 1-.076-.04.1.1 0 0 1-.032-.04c-.004-.007 0-.02.012-.023zm3.784.008a.02.02 0 0 1 .024-.011.02.02 0 0 1 .01.009q.004.008.002.014a.1.1 0 0 1-.036.04.3.3 0 0 1-.076.04c-.257.052-.52.05-.776-.007-.08-.016-.136-.032-.2-.02a.4.4 0 0 0-.222.091l-.006.002q-.004 0-.007-.002l-.005-.003-.004-.006-.002-.007.002-.006q0-.003.004-.005a.4.4 0 0 1 .232-.1.7.7 0 0 1 .216.02l.032.008c.096.02.22.04.412.04a.9.9 0 0 0 .312-.04.3.3 0 0 0 .068-.032c.016-.008.02-.02.02-.024m-2.304-.031a.2.2 0 0 0-.032.04l-.005.005-.006.002h-.007l-.006-.004-.006-.003-.004-.007v-.007l.002-.006a.2.2 0 0 1 .04-.048c.016-.012.04-.028.068-.02l.16.06c.008.003.012.016.008.024s-.016.011-.024.008l-.156-.06c-.008 0-.016 0-.032.016m.984.04a.2.2 0 0 0-.032-.04c-.016-.017-.024-.017-.032-.017l-.156.06c-.008.005-.02 0-.024-.007 0-.008 0-.02.012-.024l.16-.06c.024-.008.048.008.064.02l.04.048a.02.02 0 0 1-.008.024.02.02 0 0 1-.013.003l-.006-.003zm-1.224.376a.02.02 0 0 1 .01-.008h.008q.003 0 .006.004l.16.107.004.005.06.18.02.031.044.06v.024l-.007.006h-.008l-.008-.002-.005-.008a1 1 0 0 1-.08-.123l-.044-.152-.16-.1-.004-.006-.002-.006.002-.007q0-.003.004-.005m.004.504.005-.005h.013l.006.005.14.1c.008.008.02.008.028.008h.008a.04.04 0 0 1 .024.011l.008.029c0 .02 0 .036-.008.048v.011l.032.032q.068.077.128.16.007.017-.004.028l-.006.004h-.007a.02.02 0 0 1-.011-.007 5 5 0 0 0-.168-.208v-.028l.004-.008q.008-.011.004-.028v-.008h-.008c-.008 0-.024 0-.04-.012l-.072-.048-.072-.06-.004-.006-.002-.007.002-.006q0-.003.004-.005zm.028.236c.004 0 .04 0 .056.063 0 .009.012.017.02.013.008 0 .016-.012.012-.02-.02-.08-.068-.096-.096-.092a.02.02 0 0 0-.014.022.02.02 0 0 0 .008.011q.007.005.014.002m1.336-.74-.005-.005-.006-.003h-.007l-.006.004-.164.107v.005l-.064.18a1 1 0 0 1-.067.098l.001.008q0 .003.004.006l.006.003c.004.004.016 0 .024-.004q.044-.06.08-.123l.044-.152.156-.1.005-.005a.02.02 0 0 0 .002-.013zm-.008.504a.02.02 0 0 0-.012-.006q-.004 0-.007.002l-.005.004-.136.1a.1.1 0 0 1-.028.008h-.008a.04.04 0 0 0-.024.011.04.04 0 0 0-.012.029l.008.048v.004l.004.008a2 2 0 0 0-.168.206l.002.008.006.005q.017.008.028-.003.081-.106.168-.208v-.028l-.008-.008v-.036h.004c.012 0 .028 0 .044-.012l.072-.048.072-.06.004-.006a.02.02 0 0 0 0-.013zm-.024.236c-.004 0-.04 0-.056.063 0 .009-.012.017-.02.013l-.006-.003-.005-.005-.002-.006v-.007c.02-.08.065-.095.097-.091a.02.02 0 0 1 .014.022.02.02 0 0 1-.008.011.02.02 0 0 1-.014.002" clip-rule="evenodd"/>
    </g>
    <defs>
        <linearGradient id="VOLT__b" x1="7.606" x2="18.065" y1="5.826" y2="10.8" gradientUnits="userSpaceOnUse">
            <stop stop-color="#628800"/>
            <stop offset=".5" stop-color="#B3F700"/>
            <stop offset="1" stop-color="#4A6800"/>
        </linearGradient>
        <linearGradient id="VOLT__c" x1="16.393" x2="5.935" y1="5.826" y2="10.8" gradientUnits="userSpaceOnUse">
            <stop stop-color="#628800"/>
            <stop offset=".5" stop-color="#B3F700"/>
            <stop offset="1" stop-color="#4A6800"/>
        </linearGradient>
        <linearGradient id="VOLT__d" x1="16.044" x2="16.044" y1="4" y2="20" gradientUnits="userSpaceOnUse">
            <stop stop-color="#A7A9AC"/>
            <stop offset="1" stop-color="#424242"/>
        </linearGradient>
        <clipPath id="VOLT__a">
            <path fill="#fff" d="M0 0h24v24H0z"/>
        </clipPath>
    </defs>
</svg>
