<svg xmlns="http://www.w3.org/2000/svg" width="24" height="24" fill="none" viewBox="0 0 24 24">
    <g clip-path="url(#WEFI__a)">
        <path fill="#36FEBC" d="M24 0H0v24h24z"/>
        <path fill="#fff" fill-rule="evenodd" d="M16.419 10.974c.045-.771.557-2.461 2.219-2.461.386 0 .853.156 1.038.238l-.148 1.144a1.66 1.66 0 0 0-.726-.172c-.418 0-.796.201-1.046 1.251H20l-.656 4.513H17.99l.533-3.692h-.915l-.52 3.692h-1.355l.558-3.692h-.972l.164-.82zm-11.71 1.42a.71.71 0 1 0 0-1.42.71.71 0 0 0 0 1.42m-.405.385c.242.066.812.111 1.185-.246l.214.98 1.448-2.539h.84l.42 2.54 1.427-2.54h1.407l-2.654 4.513h-.927l-.493-2.363-1.325 2.363h-.874zm7.86.657h3.085c.136-.796-.07-2.462-1.994-2.462-2.404 0-2.486 2.08-2.486 2.52 0 .438.222 1.993 2.298 1.993.783 0 1.427-.238 1.649-.353l.254-1.157c-.283.168-1.013.5-1.67.5-.82 0-1.206-.368-1.136-1.041m.193-.82h1.571c.041-.276-.029-.821-.636-.821-.603 0-.873.545-.935.82" clip-rule="evenodd"/>
    </g>
    <defs>
        <clipPath id="WEFI__a">
            <path fill="#fff" d="M0 0h24v24H0z"/>
        </clipPath>
    </defs>
</svg>
