<svg xmlns="http://www.w3.org/2000/svg" width="24" height="24" fill="none" viewBox="0 0 24 24">
    <g clip-path="url(#WOMBAT__a)">
        <path fill="#FF4F24" d="M24 0H0v24h24z"/>
        <path fill="#fff" fill-rule="evenodd" d="M16.43 13.848c.438-.047.725-.085.88-.339a.61.61 0 0 0 .028-.55 8 8 0 0 0-.55-1.105 3.3 3.3 0 0 1-.339-.677c-.038-.616-1.646-2.62-2.671-3.5a3.9 3.9 0 0 0-.433-1.053 1.03 1.03 0 0 0-.87-.579.9.9 0 0 0-.447.127c-.23.137-.437.306-.612.508a9 9 0 0 0-1.255-.103q-.248.002-.494.023a2.4 2.4 0 0 0-.414-.536 1 1 0 0 0-.72-.291 1.05 1.05 0 0 0-.705.263c-.245.216-.456.47-.616.757h-.057a.29.29 0 0 1-.254-.202.29.29 0 0 1 .085-.31s-.16-.301-.226-.245c0 .005-.018 0-.028-.01l-.019-.004-.028.028a7.977 7.977 0 0 0 .988 12.685 7.9 7.9 0 0 0 3.062 1.176l.103.014c.094.01.057-.376.057-.376a1.58 1.58 0 0 1-1.388-1.552 1.53 1.53 0 0 1 1.232-1.609q.447-.098.903-.094a10.5 10.5 0 0 1 1.585.16l.438.066h.037c.217.033.443.056.65.07.093.01.202.01.3.01 1.063 0 1.656-.424 1.971-.786a.705.705 0 0 0-.324-1.133.6.6 0 0 1-.499-.612.2.2 0 0 1 .028-.075.2.2 0 0 1 .141-.085q.228-.035.457-.06zm-4.722-2.554c.47.927.95.823 1.505.616 0 0-.329-1.599-1.505-.611z" clip-rule="evenodd"/>
        <path fill="#fff" d="M16.783 15.415c0 1.077-1.308 1.693-3.198 1.505-1.27-.141-3.015-.057-3.35.597-.564 1.11.89 2.375.824 2.37-.113-.009-.104.048-.216.033l-.104-.018a7.9 7.9 0 0 1-3.424-1.416 6.2 6.2 0 0 1-1.98-2.38c-1.35-2.93.588-4.939 1.895-5.38-1.98 1.67-1.034 4.5.96 5.023.611.16 1.265.145 1.867-.048.41-.094.79-.282 1.12-.53 0 0 3.085.935 4.162.733.066-.014.127-.038.183-.057.64-.202.94-.611.47-.88h-.014l.043-.027c.164-.113.762-.457.762.47zM9.046 7.353c-.395.061-.823.141-1.176.221a1.74 1.74 0 0 1 .466-.766.26.26 0 0 1 .282-.01c.183.155.33.344.428.555"/>
        <path fill="#fff" fill-rule="evenodd" d="M12.005 19.525a7.526 7.526 0 1 0 0-15.051 7.526 7.526 0 0 0 0 15.05m0 .47a7.996 7.996 0 1 0 0-15.99 7.996 7.996 0 0 0 0 15.99" clip-rule="evenodd"/>
        <path fill="#fff" d="M15.768 13.882c-.377.188.155 1.02.47 1.411l.47.47c.565-1.128.706-2.196.706-2.586-.47.705-1.176.47-1.646.705"/>
    </g>
    <defs>
        <clipPath id="WOMBAT__a">
            <path fill="#fff" d="M0 0h24v24H0z"/>
        </clipPath>
    </defs>
</svg>
