<svg xmlns="http://www.w3.org/2000/svg" width="24" height="24" fill="none" viewBox="0 0 24 24">
    <g clip-path="url(#XFT__a)">
        <path fill="#410083" d="M24 0H0v24h24z"/>
        <path fill="#fff" d="M16.992 12.003a4.991 4.991 0 0 1-8.804 3.219q-.305.17-.618.414a3.8 3.8 0 0 0-.999 1.472c-.084.194-.15.384-.2.559A7.985 7.985 0 0 0 18.35 7.157a3.1 3.1 0 0 1-.753 1.457 3.05 3.05 0 0 1-1.363.744c.497.792.76 1.709.759 2.644M7.62 14.397a4.99 4.99 0 0 1 7.925-5.914l.07-.01a2.4 2.4 0 0 0 1.278-.569c.29-.284.474-.783.564-1.362l.045-.335A7.985 7.985 0 0 0 5.613 16.795l.025-.07a4.76 4.76 0 0 1 1.308-1.872c.22-.18.449-.33.668-.459z"/>
    </g>
    <defs>
        <clipPath id="XFT__a">
            <path fill="#fff" d="M0 0h24v24H0z"/>
        </clipPath>
    </defs>
</svg>
