<svg xmlns="http://www.w3.org/2000/svg" width="24" height="24" fill="none" viewBox="0 0 24 24">
    <g clip-path="url(#XPX__a)">
        <path fill="#F3A91D" d="M24 0H0v24h24z"/>
        <path fill="#fff" d="M9.188 4.195c-2.046.422-4.132 1.29-4.92 1.67-.197 2.861.77 5.635 1.28 6.664 1.598-2.009 4.529-4.218 5.277-4.73.509-.348.321-.815.185-1.065-.507-.926-1.425-2.078-1.822-2.539M19.27 5.633c-3.248-1.558-6.958-1.718-8.407-1.604 1.299.76 2.05 1.752 2.402 2.006.282.204.674.145.834.09 1.72-.72 4.165-.628 5.171-.492m.482.794c.119 3.572-1.623 7.175-2.51 8.531 0-.25-1.403-4.581-1.865-5.544-.37-.77-.236-1.18 0-1.344 1.876-1.315 3.698-1.643 4.375-1.643m-7.831 3.352c-2.288.9-4.985 2.823-6.047 3.673 1.554 3.375 4.762 5.772 6.172 6.548 2.139-1.35 3.855-3.23 4.445-4.001-.9-2.36-3.015-5.548-3.45-6.064-.349-.413-.849-.263-1.12-.156"/>
    </g>
    <defs>
        <clipPath id="XPX__a">
            <path fill="#fff" d="M0 0h24v24H0z"/>
        </clipPath>
    </defs>
</svg>
