<svg xmlns="http://www.w3.org/2000/svg" width="24" height="24" fill="none" viewBox="0 0 24 24">
    <g clip-path="url(#XSP__a)">
        <path fill="#0F132F" d="M24 0H0v24h24z"/>
        <path fill="#fff" d="M4.498 7.232v-2.33c0-.72.8-1.146 1.39-.75 1.951 1.305 5.338 3.5 6.113 3.5.77 0 4.226-2.26 6.117-3.5a.9.9 0 0 1 1.385.75v1.86a.85.85 0 0 1-.375.715c-1.675 1.086-4.921 2.731-4.921 4.167 0 1.765 2.8 3.27 4.7 4 .351.14.596.476.596.861v2.631a.85.85 0 0 1-.895.863.85.85 0 0 1-.435-.148c-2.311-1.62-5.442-3.986-6.172-3.986s-3.862 2.366-6.172 3.986a.85.85 0 0 1-1.33-.715v-2.29a.9.9 0 0 1 .474-.79c4.002-2.152 4.822-3.332 4.822-4.187 0-1.396-2.841-3.026-4.702-3.777a.94.94 0 0 1-.595-.86"/>
        <path fill="#fff" d="M5.889 4.151a.895.895 0 0 0-1.39.75v2.331c0 .38.244.716.6.86 1.85.75 4.696 2.381 4.696 3.777 0 .85-.82 2.04-4.822 4.186a.9.9 0 0 0-.475.79v2.291a.85.85 0 0 0 1.33.716l1.476-1.05c1.666-1.186 3.401-2.431 4.281-2.817a8 8 0 0 1-.39-.305q-.995.556-1.935 1.2c-.695.476-1.466 1.031-2.221 1.566-.505.365-1 .72-1.46 1.04-.27.186-.6 0-.6-.35v-2.29c0-.16.05-.316.2-.4 2.015-1.076 3.26-1.931 4.01-2.646q.441-.405.75-.916c.201.75.601 1.53 1.226 2.181.21.195.59.515 1.08.85q.104.04.2.09V16c.881.4 2.602 1.626 4.252 2.801l1.476 1.05a.85.85 0 0 0 1.33-.715v-2.63a.92.92 0 0 0-.6-.856c-1.9-.735-4.696-2.24-4.696-4.001 0-1.15 1.935-2.3 3.566-3.276.265-.155.61-.39.915-.6l.44-.296a.83.83 0 0 0 .375-.71V4.902a.9.9 0 0 0-.933-.892.9.9 0 0 0-.452.141c-1.606 1.056-4.342 2.841-5.602 3.351q.231.141.45.3l.2-.09c.46-.22 1.01-.525 1.586-.86.895-.525 2.005-1.265 2.9-1.86l.706-.466c.3-.2.645.02.645.376v1.865c0 .15-.01.27-.115.34l-.25.16c-.275.175-.61.386-1.085.72l-.31.186q-.801.47-1.566.995c-.495.345-.955.715-1.3 1.11-.09.1-.18.215-.256.325a4.1 4.1 0 0 0-1.35-2.39 5 5 0 0 0-1.07-.63 5 5 0 0 1-.65-.256l.004-.01c-1.36-.66-3.68-2.17-5.166-3.166m6.662 11.404h-.02a4.42 4.42 0 0 1-2.296-3.771 2.27 2.27 0 0 0-.575-1.27c-.325-.4-.775-.786-1.26-1.136a16 16 0 0 0-3.142-1.7c-.2-.08-.26-.26-.26-.45V4.901c0-.36.345-.58.65-.38.97.655 2.316 1.535 3.512 2.25q.803.49 1.64.916.421.204.865.35c.836.335 2.101 1.43 2.101 3.52v.086c0 1.115.866 2.05 1.816 2.75a14.3 14.3 0 0 0 3.166 1.671c.195.075.255.25.255.44v2.631c0 .35-.31.536-.58.35l-1.46-1.04q-1.103-.794-2.222-1.565c-.585-.4-1.13-.75-1.575-1.006-.225-.13-.43-.24-.615-.315z"/>
    </g>
    <defs>
        <clipPath id="XSP__a">
            <path fill="#fff" d="M0 0h24v24H0z"/>
        </clipPath>
    </defs>
</svg>
