<svg xmlns="http://www.w3.org/2000/svg" width="24" height="24" fill="none" viewBox="0 0 24 24">
    <g clip-path="url(#YOU__a)">
        <path fill="url(#YOU__b)" d="M24 0H0v24h24z"/>
        <path fill="#fff" d="M5.089 4h6.285v3.428H7.946v6.594c0 .972 1.714 3.006 4 3.12s4-2.04 4-3.12V5.714H14.23v-.571h2.286v8.88c0 1.525-1.977 3.69-4.571 3.69s-4.572-2.285-4.572-3.69V6.856h3.429V4.571H5.66v9.657c0 1.588 1.714 5.2 6.286 5.2 4.57 0 6.285-3.229 6.285-5.2V4.251h.571v9.977c0 2.211-1.954 5.84-6.856 5.771s-6.857-3.657-6.857-5.771z"/>
        <path fill="#fff" d="M17.66 4h-5.143v3.428h2.286v6.234c0 .663-.937 2.383-2.857 2.337s-2.857-1.554-2.857-2.337v-5h-.571v5c0 1.417 1.525 2.897 3.428 2.909 1.903.011 3.428-1.646 3.428-2.909V6.857H13.09V4.571h4v9.091a4.8 4.8 0 0 1-5.052 4.623c-3.77 0-5.234-3.103-5.234-4.623V5.714H9.66v-.571H6.232v8.52c0 2.114 1.668 5.216 5.805 5.193s5.623-3.285 5.623-5.194z"/>
        <path fill="#fff" d="M8.809 8.828a.389.389 0 1 0 0-.777.389.389 0 0 0 0 .777m.914-3.034a.389.389 0 1 0 0-.777.389.389 0 0 0 0 .777m4.44 0a.389.389 0 1 0 0-.777.389.389 0 0 0 0 .777m4.359-1.017a.389.389 0 1 0 0-.777.389.389 0 0 0 0 .777"/>
    </g>
    <defs>
        <linearGradient id="YOU__b" x1="18.249" x2="18.809" y1="4.161" y2="4.638" gradientUnits="userSpaceOnUse">
            <stop stop-color="#A81ED5"/>
            <stop offset="1" stop-color="#4300D0"/>
        </linearGradient>
        <clipPath id="YOU__a">
            <path fill="#fff" d="M0 0h24v24H0z"/>
        </clipPath>
    </defs>
</svg>
