<svg xmlns="http://www.w3.org/2000/svg" width="24" height="24" fill="none" viewBox="0 0 24 24">
    <path fill="#fff" fill-rule="evenodd" d="M18.552 5.55a2.39 2.39 0 0 0-3.287-.893l-8.93 5.23a2.46 2.46 0 0 0-.88 3.333 2.39 2.39 0 0 0 3.286.893l8.93-5.229a2.46 2.46 0 0 0 .88-3.333" clip-rule="evenodd"/>
    <path fill="#fff" fill-rule="evenodd" d="M15.103 4.372a2.71 2.71 0 0 1 3.73 1.014c.755 1.325.307 3.019-1 3.784l-8.93 5.23-.162-.287.163.286a2.71 2.71 0 0 1-3.731-1.014c-.755-1.325-.307-3.02 1-3.784l.162.286-.163-.286zm3.167 1.344a2.065 2.065 0 0 0-2.842-.773l-8.93 5.23a2.127 2.127 0 0 0-.762 2.882m-.282.165.282-.165a2.065 2.065 0 0 0 2.842.773l8.93-5.23.163.286-.162-.286a2.127 2.127 0 0 0 .761-2.882l.282-.165-.282.165" clip-rule="evenodd"/>
    <path fill="#fff" fill-rule="evenodd" d="M18.546 18.45a2.39 2.39 0 0 1-3.287.893l-8.93-5.23a2.46 2.46 0 0 1-.88-3.333 2.39 2.39 0 0 1 3.286-.893l8.93 5.229a2.46 2.46 0 0 1 .88 3.333" clip-rule="evenodd"/>
    <path fill="#fff" fill-rule="evenodd" d="M8.572 10.173a2.065 2.065 0 0 0-2.842.772l-.282-.165.282.165a2.127 2.127 0 0 0 .762 2.883l8.93 5.229a2.065 2.065 0 0 0 2.842-.773l.282.165-.282-.165a2.127 2.127 0 0 0-.762-2.882l.163-.286-.163.286zm.326-.572-.163.285zl8.93 5.23c1.306.764 1.754 2.458 1 3.783a2.71 2.71 0 0 1-3.732 1.014L6.166 14.4l.163-.286-.163.286c-1.306-.765-1.754-2.46-1-3.784A2.71 2.71 0 0 1 8.898 9.6" clip-rule="evenodd"/>
</svg>
