<svg xmlns="http://www.w3.org/2000/svg" width="24" height="24" fill="none" viewBox="0 0 24 24" class="web3icons">
    <path fill="#fff" d="M12.48 7.922c.13 1.336.196 2.004.546 2.494.15.21.336.393.547.54.495.343 1.164.4 2.502.512l.566.048v.968l-.566.048c-1.338.112-2.007.169-2.501.512-.212.147-.397.33-.548.54-.35.49-.415 1.158-.546 2.494h-.96c-.13-1.336-.196-2.004-.546-2.494a2.3 2.3 0 0 0-.547-.54c-.495-.343-1.164-.4-2.502-.512l-.566-.048v-.968l.566-.048c1.338-.112 2.007-.169 2.502-.512a2.3 2.3 0 0 0 .547-.54c.35-.49.415-1.158.546-2.494z"/>
    <path fill="#fff" fill-rule="evenodd" d="M12 3c7.411 0 9 1.588 9 9 0 7.411-1.589 9-9 9s-9-1.589-9-9 1.588-9 9-9m5.882 3.11C15.702 3.93 11.3 4.8 8.05 8.05s-4.12 7.652-1.94 9.832 6.582 1.312 9.833-1.939c3.25-3.25 4.119-7.653 1.94-9.833" clip-rule="evenodd"/>
</svg>
