<svg xmlns="http://www.w3.org/2000/svg" width="24" height="24" fill="none" viewBox="0 0 24 24" class="web3icons">
    <path fill="#fff" fill-rule="evenodd" d="M12 7.67a4.33 4.33 0 1 0 0 8.66 4.33 4.33 0 0 0 0-8.66m0 6.3a1.97 1.97 0 1 1 0-3.94 1.97 1.97 0 0 1 0 3.94" clip-rule="evenodd"/>
    <path fill="#fff" fill-rule="evenodd" d="M17.4 3H6.6A3.6 3.6 0 0 0 3 6.6v10.8A3.6 3.6 0 0 0 6.6 21h10.8a3.6 3.6 0 0 0 3.6-3.6V6.6A3.6 3.6 0 0 0 17.4 3m.406 12.18q.072.052.136.117a1.183 1.183 0 0 1-1.585 1.756l-.037-.031a.385.385 0 0 0-.49-.02A6.27 6.27 0 0 1 12 18.3a6.27 6.27 0 0 1-3.83-1.297.385.385 0 0 0-.49.019l-.037.03a1.185 1.185 0 1 1-1.449-1.873.38.38 0 0 0 .118-.467A6.3 6.3 0 0 1 5.7 12c0-.97.22-1.89.612-2.712a.38.38 0 0 0-.123-.47l-.038-.03a1.184 1.184 0 1 1 1.532-1.806.38.38 0 0 0 .486.015 6.27 6.27 0 0 1 3.83-1.297 6.28 6.28 0 0 1 3.83 1.297.385.385 0 0 0 .49-.019l.037-.03a1.185 1.185 0 1 1 1.448 1.873.38.38 0 0 0-.117.467c.392.822.612 1.741.612 2.712 0 .97-.22 1.89-.612 2.712a.38.38 0 0 0 .119.467" clip-rule="evenodd"/>
</svg>
