<svg xmlns="http://www.w3.org/2000/svg" width="24" height="24" fill="none" viewBox="0 0 24 24">
    <path fill="#fff" d="M4.35 3A1.35 1.35 0 0 0 3 4.35v1.575c0 .186.151.338.337.338H4.35c7.394 0 13.388 5.993 13.388 13.387v1.013c0 .186.15.337.337.337h1.575A1.35 1.35 0 0 0 21 19.65C21 10.455 13.546 3 4.35 3"/>
    <path fill="#fff" d="M3 7.106c0-.186.151-.337.337-.337H4.35c7.114 0 12.881 5.767 12.881 12.881v1.013a.337.337 0 0 1-.337.337h-2.588a.34.34 0 0 1-.337-.337V19.65a9.62 9.62 0 0 0-9.619-9.619H3.338A.337.337 0 0 1 3 9.694z"/>
    <path fill="#fff" d="M3 10.875c0-.186.151-.338.337-.338H4.35a9.11 9.11 0 0 1 9.113 9.113v1.013a.337.337 0 0 1-.338.337H11.55a1.35 1.35 0 0 1-1.35-1.35 5.85 5.85 0 0 0-5.85-5.85A1.35 1.35 0 0 1 3 12.45z"/>
</svg>
