<svg xmlns="http://www.w3.org/2000/svg" width="24" height="24" fill="none" viewBox="0 0 24 24">
    <path fill="#fff" d="M7.611 8.549c0-.518.42-.938.938-.938h6.898c.518 0 .938-.42.938-.938V4.938A.94.94 0 0 0 15.446 4H8.149a.94.94 0 0 0-.938.938v1.337c0 .518-.42.938-.938.938H4.938A.94.94 0 0 0 4 8.15v2.927c0 .518.422.917.94.917h1.735c.518 0 .938-.42.938-.938zm11.451 3.446h-1.735a.94.94 0 0 0-.938.938v2.518c0 .518-.42.938-.938.938H8.55a.94.94 0 0 0-.938.938v1.735c0 .518.42.938.938.938h7.302c.518 0 .932-.42.932-.938V17.67c0-.518.42-.886.938-.886h1.34c.519 0 .939-.42.939-.937v-2.925a.93.93 0 0 0-.938-.927m-6.213-1.823h-1.666a.984.984 0 0 0-.984.983v1.667c0 .542.44.983.984.983h1.666c.543 0 .984-.44.984-.983v-1.667a.984.984 0 0 0-.984-.983"/>
</svg>
