<svg width="24" height="24" viewBox="0 0 24 24" fill="none" xmlns="http://www.w3.org/2000/svg">
<g clip-path="url(#clip0_328_26311)">
<path d="M24 0H0V24H24V0Z" fill="#1B314F"/>
<path fill-rule="evenodd" clip-rule="evenodd" d="M17.2278 6.11552C16.6982 5.772 16.3213 5.6232 16.3213 5.6232C16.3213 5.6232 16.5688 5.6331 16.9233 5.65877C17.0596 5.66861 17.2114 5.6808 17.3713 5.69565C17.4985 5.70748 17.6308 5.72099 17.7642 5.73636C17.5297 5.55203 17.2969 5.38616 17.0665 5.2372C15.6703 4.33453 14.3588 4.05316 13.2661 4.05316C12.3018 4.05316 11.5085 4.27122 10.9778 4.47462C10.5503 4.63852 10.2934 4.7929 10.2549 4.81594L10.2533 4.81695L10.805 3.94L10.8462 3.51091C10.995 3.52523 11.1259 3.61567 11.1919 3.74989C11.2198 3.80679 11.2344 3.86811 11.2359 3.92953C11.772 3.76348 12.4637 3.62209 13.2661 3.62209C14.6326 3.62209 16.2972 4.03455 18.0306 5.39751C18.1821 5.51673 18.2361 5.72214 18.1626 5.90051C18.1243 5.9937 18.0561 6.06764 17.9722 6.11385C18.2845 6.3529 18.6194 6.64554 18.9489 6.99786C20.143 8.2748 21.2477 10.3209 20.9513 13.3737C20.9345 13.5476 20.814 13.6942 20.6466 13.7446C20.57 13.7678 20.4907 13.7687 20.4162 13.7499C20.3197 15.0548 19.7507 17.2123 17.3016 19.0516C17.1547 19.1618 16.9542 19.1671 16.8018 19.0645C16.7402 19.023 16.6919 18.9674 16.6594 18.9042C16.6348 18.9273 16.6097 18.9503 16.5841 18.9734C15.8877 19.6039 14.8278 20.2927 13.3961 20.4918C13.3764 20.4945 13.3566 20.4959 13.3368 20.4959H13.3228C13.1447 20.4959 12.985 20.3866 12.9207 20.2206C12.9101 20.1931 12.9025 20.1652 12.8977 20.137C12.5444 20.2073 12.1289 20.2553 11.6537 20.2553C10.8537 20.2553 9.88624 20.1193 8.75278 19.722C8.53615 19.646 8.41705 19.4136 8.4819 19.1935C8.54675 18.9732 8.7728 18.8425 8.99601 18.8961C9.31694 18.973 9.63681 19.0114 9.9705 19.0114C12.1398 19.0114 13.8394 17.3921 13.8394 15.4537C13.8394 14.4983 13.434 13.6218 12.7516 12.975C12.7497 12.9774 12.7479 12.9799 12.746 12.9823C12.5902 13.1835 12.4024 13.427 12.2694 13.602C12.0543 13.9037 11.9788 14.0705 11.9959 14.2217C12.0693 14.7135 11.9178 15.1971 11.6384 15.551C11.6348 15.5557 11.631 15.56 11.6273 15.5644C11.5168 15.6936 11.3064 15.877 11.1191 16.0402C11.1106 16.0477 11.1021 16.055 11.0936 16.0624C10.905 16.2268 10.7204 16.3883 10.5863 16.5224C10.5828 16.5259 10.5793 16.5292 10.5757 16.5327C10.2416 16.8443 9.8058 16.889 9.54607 16.889C9.47415 16.889 9.40941 16.8835 9.36563 16.8799L9.36326 16.8798C9.36264 16.8798 9.36203 16.8796 9.36143 16.8796C9.31854 16.876 9.30226 16.8748 9.29147 16.8748H9.24904C9.24191 16.8748 9.23651 16.8751 9.23255 16.8752C9.22451 16.8802 9.21012 16.8901 9.18692 16.9082C9.15529 16.9331 9.11536 16.9671 9.05992 17.0158C8.95382 17.1155 8.8268 17.159 8.74183 17.1803C8.64325 17.2049 8.53967 17.2144 8.44279 17.2144C8.19109 17.2144 7.90251 17.1579 7.66537 17.0992C7.4214 17.0386 7.19933 16.9672 7.06874 16.9211C7.06417 16.9194 7.05962 16.9177 7.05512 16.916C6.93084 16.8674 6.8378 16.7853 6.77435 16.7174C6.70763 16.6462 6.64977 16.565 6.60033 16.4857C6.50147 16.327 6.41346 16.1383 6.34063 15.9586C6.20003 15.6117 6.0827 15.2132 6.06214 15.0179C6.04849 14.8883 6.08009 14.7652 6.10363 14.6883C6.13068 14.5999 6.16833 14.5075 6.20754 14.4201C6.28475 14.2482 6.38615 14.0565 6.47347 13.8913L6.47719 13.8844C6.53907 13.7674 6.59335 13.6645 6.63521 13.5786C6.65598 13.5359 6.67145 13.502 6.68215 13.476C6.68956 13.4579 6.69255 13.4486 6.69325 13.4467C6.71693 13.3348 6.79062 12.787 6.86593 12.1971C6.94008 11.6164 7.01061 11.0379 7.02455 10.9195C7.03624 10.8201 7.0345 10.7719 7.02447 10.726C7.01361 10.6763 6.98566 10.5982 6.90058 10.4585C6.89974 10.4572 6.89893 10.4558 6.89815 10.4545C6.89783 10.4539 6.89753 10.4534 6.89724 10.4529C6.7088 10.1326 6.69934 9.81771 6.77865 9.43239C5.81623 8.76388 3.37056 6.95763 3.21921 6.83381C3.21821 6.83299 3.2172 6.83215 3.2162 6.83132C3.12666 6.75671 3.03557 6.64617 3.00794 6.49418C2.99425 6.41887 2.99925 6.34784 3.01539 6.28594C3.02325 6.25581 3.03339 6.22917 3.04413 6.20623C3.0495 6.19476 3.05505 6.18417 3.06055 6.17449C3.06329 6.16964 3.06606 6.16502 3.06878 6.16056C3.07016 6.15836 3.07153 6.1562 3.07288 6.15408C3.07355 6.15303 3.07423 6.15198 3.0749 6.15096L3.07592 6.14941C3.07616 6.14904 3.07693 6.1479 3.4356 6.387C3.4356 6.387 3.40732 6.42944 3.49218 6.50016C3.49906 6.50581 3.51145 6.51546 3.52888 6.52884C3.53169 6.53098 3.5346 6.53322 3.53764 6.53555C3.58137 6.56893 3.65135 6.62155 3.74224 6.68941C3.86492 6.78103 4.02566 6.90035 4.21131 7.03759C5.17417 7.74941 6.80664 8.94283 7.2688 9.24421C7.12734 9.75336 7.12734 9.99389 7.2688 10.2343C7.46681 10.5596 7.48096 10.7294 7.45268 10.9699C7.42438 11.2103 7.16978 13.2896 7.1132 13.5442C7.09035 13.647 6.97996 13.8558 6.85827 14.0858C6.67846 14.4259 6.47398 14.8125 6.49084 14.9728C6.51913 15.2416 6.8869 16.3873 7.21221 16.5145C7.45268 16.5994 8.04675 16.7833 8.44279 16.7833C8.58425 16.7833 8.71155 16.755 8.76812 16.6984C9.00858 16.4863 9.0793 16.4438 9.24904 16.4438H9.29147C9.32385 16.4438 9.35918 16.4468 9.39749 16.45C9.44285 16.4537 9.49242 16.458 9.54607 16.458C9.77239 16.458 10.0695 16.4155 10.2817 16.2175C10.4284 16.0709 10.6251 15.899 10.8103 15.7377C11.0179 15.5566 11.2104 15.3886 11.3 15.284C11.5122 15.0152 11.6254 14.6474 11.5688 14.2797C11.5264 13.9403 11.7103 13.6432 11.9224 13.3462C12.1911 12.9926 12.6862 12.356 12.6862 12.356C12.7207 12.382 12.7546 12.4085 12.7883 12.4355C12.8671 12.4987 12.9434 12.5646 13.017 12.6329C13.7976 13.358 14.2705 14.3563 14.2705 15.4537C14.2705 17.364 12.8287 18.9561 10.8996 19.3494C10.6005 19.4104 10.2895 19.4425 9.9705 19.4425C9.60265 19.4425 9.24904 19.4001 8.89543 19.3152C9.27428 19.448 9.63262 19.5501 9.9705 19.6267C10.3062 19.7027 10.6215 19.7538 10.9167 19.785C11.1783 19.8124 11.424 19.8244 11.6537 19.8244C12.264 19.8244 12.7652 19.7398 13.1513 19.6351C13.7764 19.4659 14.1007 19.2445 14.1007 19.2445C14.1007 19.2445 14.0168 19.3522 13.8661 19.519C13.7426 19.6558 13.574 19.8322 13.3698 20.0216C13.3589 20.0316 13.348 20.0418 13.3368 20.0519C13.3363 20.0524 13.3358 20.0528 13.3354 20.0534C13.3311 20.0572 13.3269 20.0609 13.3228 20.0649H13.3368C13.6054 20.0275 13.8601 19.9715 14.1007 19.9011C15.3289 19.5411 16.1944 18.8039 16.707 18.2442C17.083 17.8338 17.269 17.5188 17.269 17.5188C17.269 17.5188 17.2363 17.7529 17.1842 18.0434C17.1612 18.1717 17.1343 18.3112 17.1049 18.4463C17.0852 18.5367 17.0644 18.6252 17.0428 18.707C17.2337 18.5635 17.4128 18.4179 17.5803 18.2711C19.6524 16.4563 19.9873 14.4367 20.002 13.3773C20.0027 13.3287 20.0027 13.282 20.0022 13.2376C20.0022 13.2375 20.0021 13.2361 20.0021 13.2359C20.0021 13.2352 20.0021 13.2343 20.0021 13.2334C19.9982 12.9199 19.9675 12.7132 19.9586 12.6538L19.9575 12.6461C19.957 12.643 19.9567 12.6407 19.9566 12.639C19.9576 12.6407 19.9591 12.6428 19.9612 12.6456C19.9627 12.6476 19.9644 12.6499 19.9666 12.6525C19.9909 12.6845 20.0512 12.7585 20.1259 12.8496C20.169 12.9019 20.2168 12.9599 20.2654 13.0189C20.3221 13.0876 20.3805 13.1585 20.4328 13.2224C20.4652 13.2618 20.4955 13.2991 20.5223 13.332C20.5405 13.1434 20.5534 12.9588 20.5608 12.7784C20.5608 12.7779 20.5608 12.7774 20.5609 12.7769C20.5609 12.7767 20.5608 12.7771 20.5609 12.7769C20.5609 12.7767 20.5609 12.7757 20.5609 12.7756C20.5609 12.7757 20.5609 12.7753 20.5609 12.7756C20.5619 12.7516 20.5628 12.7267 20.5636 12.703C20.6905 8.926 18.5113 6.9484 17.2278 6.11552ZM7.57481 5.33435C7.58494 5.36845 7.5955 5.40351 7.60642 5.43919C7.66903 5.6439 7.74365 5.8698 7.82043 6.06168C7.89239 5.84579 7.97659 5.65167 8.07014 5.47716C8.67623 4.34642 9.6748 4.03879 10.2829 3.96024C10.5955 3.91986 10.805 3.94 10.805 3.94C10.8462 3.51091 10.8464 3.51094 10.8462 3.51091L10.8439 3.51069L10.841 3.51042C10.8397 3.51031 10.8383 3.5102 10.8367 3.51007C10.8354 3.50995 10.8339 3.50984 10.8324 3.50971C10.8256 3.50919 10.8167 3.50854 10.8059 3.50788C10.7842 3.50659 10.7543 3.50519 10.7173 3.50446C10.6435 3.50296 10.5403 3.50403 10.4154 3.51346C10.1669 3.53228 9.82594 3.58484 9.45561 3.72108C8.92837 3.91502 8.35277 4.27565 7.90509 4.92145C7.89827 4.89668 7.89206 4.8739 7.88654 4.85341C7.87667 4.81689 7.869 4.78782 7.86385 4.76809C7.86126 4.75823 7.85931 4.75069 7.85803 4.74572L7.8566 4.74025L7.85624 4.73877C7.81921 4.59354 7.70938 4.47793 7.56622 4.43353C7.42306 4.38912 7.2671 4.42228 7.15438 4.52109L7.43853 4.84524C7.15438 4.52109 7.15456 4.52093 7.15438 4.52109L7.15282 4.52245L7.15084 4.52421C7.14939 4.52551 7.14766 4.52705 7.14567 4.52887C7.14166 4.53249 7.13661 4.53715 7.13058 4.54282C7.11851 4.55416 7.10253 4.56961 7.08332 4.58906C7.04499 4.62796 6.9936 4.68321 6.93514 4.7542C6.81859 4.89576 6.67141 5.10282 6.54376 5.37045C6.36134 5.75294 6.22135 6.25532 6.26311 6.85409C5.78887 6.68299 5.2976 6.50749 4.87383 6.3573C4.55158 6.2431 4.26775 6.14331 4.05968 6.07107C3.9558 6.035 3.86991 6.00547 3.80724 5.98438C3.77609 5.97388 3.74932 5.96502 3.72836 5.95829C3.7278 5.95811 3.72709 5.95788 3.72623 5.95759C3.71492 5.95395 3.67907 5.94236 3.64744 5.93604C3.63962 5.93446 3.63177 5.93311 3.62387 5.93199C3.50707 5.91529 3.39008 5.9268 3.28375 5.97514C3.23214 5.99859 3.18907 6.02809 3.15414 6.05935C3.13686 6.0748 3.12194 6.09036 3.10915 6.10534C3.10276 6.11284 3.09691 6.12018 3.09155 6.12727C3.08887 6.13083 3.08632 6.13434 3.08388 6.13777C3.08267 6.13949 3.08147 6.1412 3.08031 6.14289L3.07859 6.14541L3.07776 6.14666C3.07755 6.14697 3.07693 6.1479 3.4356 6.387C3.4356 6.387 3.46388 6.34457 3.56289 6.35872C3.56751 6.35965 3.57978 6.36332 3.59907 6.36952C3.59959 6.3697 3.6001 6.36986 3.60064 6.37003C3.64843 6.38543 3.73759 6.41574 3.85869 6.45764C4.00384 6.50785 4.19487 6.57471 4.4156 6.65251C4.95657 6.84324 5.67577 7.09977 6.33457 7.33829C6.50525 7.40008 6.67189 7.46067 6.83031 7.51857C6.7741 7.34408 6.73633 7.17684 6.71369 7.01725C6.60129 6.22476 6.86295 5.62105 7.10267 5.25363C7.27634 4.9874 7.43853 4.84524 7.43853 4.84524C7.43853 4.84524 7.4931 5.05938 7.57481 5.33435Z" fill="white"/>
<path fill-rule="evenodd" clip-rule="evenodd" d="M8.95186 7.02254C8.95186 7.02254 8.69725 5.19788 9.97035 4.43408C9.96574 4.43601 9.95708 4.43927 9.9447 4.4439C9.68441 4.54177 7.7906 5.25364 8.95186 7.02254ZM11.696 5.35349C12.6719 4.98574 14.0298 4.7877 16.1374 5.18376C15.2037 4.71699 14.2278 4.47653 13.2519 4.46239C12.8841 4.46239 12.5447 4.49067 12.2334 4.54726C11.1302 4.74527 10.2249 5.53737 9.91377 6.59822C9.91377 6.59822 10.14 6.2446 10.6775 5.87684L10.6999 5.8464C10.8986 5.57682 11.1977 5.1707 11.4838 4.83014C11.5686 5.01402 11.6676 5.24034 11.696 5.35349ZM16.59 7.70146C18.5844 9.01692 19.4895 10.4739 20.1262 12.1853C20.0978 10.3748 19.4895 8.81888 18.3156 7.57416L18.2874 7.54588C17.2548 6.45674 15.7413 5.94753 14.242 6.15971C13.6762 6.23043 13.1103 6.34358 12.6719 6.48502C12.6012 6.49918 12.5305 6.51331 12.4598 6.54161H12.488C12.6012 6.52746 14.6663 6.42845 16.59 7.70146ZM18.4288 16.6975C18.2166 16.9803 17.9762 17.2774 17.6933 17.5603C19.5179 14.0525 17.7782 10.8416 17.7074 10.7143C17.8347 10.8416 17.962 10.9831 18.0752 11.1104C19.4755 12.6663 19.6452 15.0001 18.4288 16.6975ZM7.26516 5.81964C7.21144 6.02455 6.73462 7.84451 8.34364 7.89952C7.38181 7.31959 7.26864 5.82027 7.26864 5.80612L7.26787 5.8092L7.26693 5.8128L7.26516 5.81964ZM10.0694 9.61102L9.33376 10.8699C9.33376 10.8699 10.0128 10.5587 10.2815 10.1627C10.4936 9.82318 10.0694 9.61102 10.0694 9.61102ZM9.57825 15.4442C9.66871 15.3607 9.76009 15.2806 9.843 15.2123C9.9879 15.0922 10.133 15.011 10.2599 14.9401C10.4919 14.8103 10.6634 14.7145 10.6634 14.4767C10.6722 13.9947 10.3488 13.9013 10.109 13.8982C10.1127 13.8973 10.1164 13.8964 10.1201 13.8956C9.98903 13.9249 9.88542 13.9676 9.88542 13.9676C9.88542 13.9676 10.2956 13.8968 10.4513 14.1938C10.6069 14.4909 10.4795 14.6607 10.2249 14.8304C10.0977 14.9152 9.82343 15.1827 9.57825 15.4442ZM10.9179 11.0821C10.8527 11.138 10.634 11.6974 10.4316 12.2465C10.192 12.374 9.33595 12.8299 9.26303 12.8785C9.17816 12.935 8.88113 13.5292 8.65481 14.1515C8.53534 13.7798 8.27888 13.5451 8.23604 13.5059C8.23324 13.5034 8.23047 13.5008 8.23047 13.5008C8.23195 13.5081 8.2365 13.5275 8.24337 13.5566C8.30229 13.8076 8.53132 14.7824 8.44265 15.0992C8.34364 15.4669 7.72128 15.7922 7.72128 15.7922L8.65679 16.0001C8.47244 16.1649 8.33855 16.2166 8.23047 16.2166C7.99003 16.1741 7.70712 16.1034 7.50911 16.0326C7.36765 15.8488 7.15549 15.2405 7.09892 14.9859C7.12943 14.8841 7.22587 14.7019 7.30919 14.5444C7.34162 14.4832 7.37218 14.4252 7.39595 14.3777L7.41952 14.3326C7.57488 14.0351 7.66603 13.8605 7.69298 13.6988C7.74956 13.4584 7.93344 11.9732 8.00416 11.3508C8.18804 11.5912 8.44265 11.9873 8.38607 12.2419C8.79626 11.662 8.49922 11.0962 8.35778 10.8699C8.23047 10.6436 8.06074 10.1909 8.20219 9.71C8.34364 9.22909 8.85285 7.8995 8.85285 7.8995C8.85285 7.8995 9.02257 8.19653 9.26303 8.13995C9.50349 8.08338 11.4413 5.1696 11.4413 5.1696C11.4413 5.1696 11.9646 6.31531 11.4131 7.14983C10.8473 7.98436 10.2956 8.13995 10.2956 8.13995C10.2956 8.13995 10.3514 8.15009 10.4468 8.15491C10.7206 8.2173 11.3033 8.30714 11.9531 8.13281C12.1855 8.69158 12.3774 9.19041 12.389 9.27152C12.3818 9.28824 12.3597 9.34084 12.3278 9.41711C12.1698 9.79325 11.7711 10.7428 11.7242 10.8133C11.696 10.8416 11.498 10.8981 11.3565 10.9265C11.1159 10.9972 10.9746 11.0396 10.9179 11.0821ZM11.3 6.01826C11.3 6.01826 11.4272 6.58405 11.1019 6.96594C10.6917 7.43271 10.3381 7.41857 10.3523 7.41857L11.3 6.01826ZM8.03246 14.0525L7.9193 14.6182C7.9193 14.6182 8.14561 14.5899 8.14561 14.8445C8.14561 15.0425 7.9193 15.3113 7.73542 15.3254C7.55154 15.3395 7.48081 15.1133 7.52324 14.9859C7.56568 14.8729 8.03246 14.0525 8.03246 14.0525ZM10.1966 9.3281C10.6917 9.42711 10.8331 10.007 10.5644 10.3183C10.2956 10.6153 9.61664 11.0396 9.2206 11.1386C9.13573 11.464 8.41436 11.3225 8.68311 10.2899C8.68311 10.2899 8.81041 10.7851 8.9377 10.7426C9.06501 10.7001 10.5078 8.43699 10.5078 8.43699C10.5078 8.43699 10.3239 9.03106 10.1966 9.3281ZM9.69467 14.5939C9.68697 14.7308 9.67439 14.9544 9.57421 15.0992C9.58406 15.0893 9.61452 15.057 9.65421 15.0152C9.72844 14.9368 9.83502 14.8241 9.89959 14.7597C9.94358 14.7199 9.99308 14.6886 10.0404 14.6587C10.1452 14.5922 10.239 14.5327 10.239 14.4061C10.239 14.208 9.97035 14.1656 9.85718 14.1938C9.74395 14.2222 9.71566 14.4061 9.70151 14.5051C9.6985 14.5261 9.69676 14.557 9.69467 14.5939ZM16.2646 15.1415C15.9534 16.259 15.2463 17.2491 14.3268 17.9563C14.4423 17.901 14.5557 17.8421 14.6669 17.7794C15.4727 17.0887 16.0757 16.1767 16.3637 15.1557C16.3745 15.1229 16.4532 15.0731 16.5274 15.0262C16.5492 15.0124 16.5707 14.9987 16.59 14.9859C16.5942 14.9833 16.5986 14.9807 16.6029 14.9782L16.612 14.9728C16.6169 14.9699 16.6217 14.967 16.6265 14.9642L16.6386 14.9571C16.7623 14.8842 16.8761 14.8174 16.9011 14.7172C16.9576 14.3919 16.9861 14.0525 16.9861 13.713C16.9861 13.5856 16.8587 13.4584 16.7315 13.331C16.6325 13.2461 16.5335 13.1471 16.5335 13.0765C16.4141 11.9916 15.9735 10.9672 15.2706 10.147C15.277 10.18 15.2829 10.2136 15.2887 10.2475C15.9252 11.0537 16.3354 12.0298 16.4486 13.0623C16.4486 13.1152 16.5117 13.1839 16.5732 13.2506C16.5939 13.2731 16.6145 13.2956 16.6325 13.3169C16.7597 13.4442 16.8871 13.5715 16.8871 13.6988C16.8871 14.0382 16.8587 14.3777 16.8021 14.7031C16.7738 14.8162 16.6325 14.9011 16.491 14.9719C16.4718 14.9845 16.4505 14.998 16.4289 15.0118C16.3545 15.0587 16.2755 15.1087 16.2646 15.1415ZM13.846 8.01267C14.0166 8.08394 16.9577 9.55498 17.4668 12.4399C17.575 13.0688 17.5516 13.6865 17.4141 14.276C17.55 13.7853 17.6225 13.2692 17.6225 12.737C17.6225 10.0943 15.8481 7.86204 13.4287 7.16925C13.1049 7.55704 12.7492 7.81057 12.3973 7.97257C12.6374 8.57205 12.9264 9.30518 12.9264 9.35639C12.9264 9.44125 12.6578 10.1344 12.6295 10.1626C12.6012 10.1768 12.2759 10.205 12.1486 10.205C12.0072 10.5445 11.8656 10.8699 11.8374 10.9124C11.795 10.9689 11.6676 11.0114 11.399 11.0821C11.3702 11.0906 11.3385 11.0998 11.306 11.1094C11.1788 11.1464 11.0394 11.1869 11.0169 11.2094C10.9463 11.2942 10.5644 12.2984 10.3098 13.0058C10.3482 12.9993 10.3863 12.9946 10.4235 12.9911L11.0736 11.3932C11.0736 11.3932 11.7384 11.0679 12.2334 11.0679C13.1244 11.0537 14.4399 9.96459 13.846 8.01267ZM7.94759 8.79061C8.04659 8.60673 7.96173 8.47942 7.87686 8.40871L7.84857 8.38041C7.67884 8.29554 6.61799 7.8995 5.57129 7.53174C6.4907 8.13995 7.50911 8.73402 7.67884 8.81889C7.80615 8.87548 7.891 8.88962 7.94759 8.79061Z" fill="white"/>
<path d="M10.9042 14.9302C10.8606 14.9847 10.708 15.123 10.5626 15.2549C10.5191 15.2942 10.4764 15.3329 10.4376 15.3687C10.3784 15.4227 10.3178 15.4767 10.2578 15.5303C10.1451 15.6306 10.0347 15.7291 9.94245 15.8214C9.88586 15.8779 9.77269 15.9063 9.60292 15.9063H9.17858C9.26364 15.7926 9.41462 15.6203 9.57867 15.4451C9.66913 15.3614 9.76043 15.2814 9.84345 15.213C9.98835 15.0931 10.1335 15.0119 10.2603 14.9409C10.4924 14.8112 10.6638 14.7152 10.6638 14.4775C10.6727 13.9956 10.3493 13.9022 10.1093 13.8989C10.181 13.8824 10.2615 13.8693 10.3385 13.8693C10.0697 13.7987 9.73022 13.8693 9.57463 14.025C9.46147 14.1287 9.43633 14.4084 9.41117 14.6882C9.39859 14.8281 9.38603 14.9679 9.36246 15.0858C9.29912 15.4151 9.09967 15.5969 8.79457 15.8752L8.79323 15.8765C8.75804 15.9085 8.72146 15.9419 8.68352 15.9769C8.67462 15.9851 8.66586 15.9931 8.6572 16.001L7.72168 15.793C7.72168 15.793 8.34405 15.4676 8.44306 15.0999C8.53173 14.7832 8.30271 13.8083 8.24378 13.5575C8.23692 13.5284 8.23236 13.509 8.23089 13.5016C8.23089 13.5016 8.23366 13.5042 8.23646 13.5068C8.27929 13.5459 8.53576 13.7806 8.65523 14.1522C8.88154 13.5298 9.17858 12.9357 9.26345 12.8792C9.33636 12.8306 10.1924 12.3748 10.4321 12.2473C10.3273 12.5316 10.227 12.8132 10.1546 13.0206C9.90004 13.0914 9.64535 13.2329 9.46147 13.5158C9.56048 13.445 9.87169 13.4027 10.098 13.3743C10.296 13.3602 10.9042 13.6855 11.0599 14.2937V14.322C11.0882 14.5484 11.0174 14.7605 10.9042 14.9302Z" fill="white"/>
<path d="M10.4238 12.9928C10.7141 12.9664 10.9547 13.0248 11.0174 13.0499C11.5691 12.0032 12.0075 11.4374 12.1208 11.4374C12.1327 11.4359 12.1586 11.4368 12.1959 11.438C12.51 11.4488 13.6332 11.4875 14.1009 10.3625C14.6025 9.13632 13.8964 8.08865 13.848 8.01698L13.8463 8.0144C14.4403 9.96639 13.1248 11.0555 12.2338 11.0696C11.7387 11.0696 11.0741 11.3949 11.0741 11.3949L10.4238 12.9928Z" fill="white"/>
<path d="M13.8462 8.0144L13.8483 8.01548C13.9095 8.04514 14.9661 8.55781 15.2709 10.1486C15.9737 10.969 16.4143 11.9934 16.5337 13.0781C16.5337 13.1489 16.6327 13.2479 16.7317 13.3327C16.8589 13.46 16.9863 13.5873 16.9863 13.7146C16.9863 14.0541 16.9579 14.3936 16.9015 14.719C16.8764 14.8192 16.7626 14.886 16.6388 14.9589L16.6267 14.966C16.622 14.9687 16.6172 14.9717 16.6122 14.9746C16.605 14.9788 16.5976 14.9832 16.5902 14.9876C16.5709 15.0005 16.5496 15.014 16.5277 15.0278C16.4534 15.0749 16.3747 15.1245 16.3639 15.1574C16.0759 16.1783 15.4729 17.0905 14.6671 17.7812C15.9973 17.0327 17.0004 15.7744 17.4145 14.2778C17.5518 13.6882 17.5752 13.0706 17.4672 12.4416C16.9579 9.55615 14.016 8.08513 13.8462 8.0144Z" fill="white"/>
<path d="M10.4473 8.15638C10.7086 8.16953 11.2673 8.14281 11.7956 7.75952C11.8492 7.8848 11.9025 8.011 11.9536 8.13427C11.304 8.3086 10.7212 8.21877 10.4473 8.15638Z" fill="white"/>
<path d="M12.3976 7.97319C12.7495 7.81119 13.1053 7.55765 13.429 7.16985C13.1161 7.08023 12.7922 7.01635 12.4601 6.98071C12.3611 7.13631 12.2621 7.27776 12.1631 7.39091C12.2216 7.53539 12.3061 7.74455 12.3976 7.97319Z" fill="white"/>
<path d="M15.2186 12.3985C15.3601 11.6772 15.3742 11.0548 15.3319 10.5457C15.8834 11.2812 16.2229 12.1723 16.3219 13.0916C16.336 13.2049 16.4492 13.318 16.5624 13.4312C16.6614 13.516 16.7746 13.6292 16.7746 13.6999C16.7746 14.0253 16.7462 14.3506 16.6896 14.6759C16.6762 14.716 16.5611 14.7817 16.4648 14.8366L16.4492 14.8456C16.3078 14.9163 16.1804 14.987 16.1522 15.1002C15.841 16.1893 15.1762 17.1512 14.2852 17.8301C15.6005 16.4581 16.237 14.1949 15.2186 12.3985Z" fill="white"/>
</g>
<defs>
<clipPath id="clip0_328_26311">
<rect width="24" height="24" fill="white"/>
</clipPath>
</defs>
</svg>
