<svg width="24" height="24" viewBox="0 0 24 24" fill="none" xmlns="http://www.w3.org/2000/svg">
<g clip-path="url(#clip0_328_22860)">
<path d="M24 0H0V24H24V0Z" fill="white"/>
<path d="M14.6226 7.91932L14.6537 7.81266C15.0936 6.23503 14.8893 5.35954 14.0404 5.19067C14.1382 5.51063 14.196 5.84394 14.2094 6.18169C14.2404 6.93718 14.1204 7.68822 13.836 8.43482L13.9294 8.50593L14.6226 7.91932ZM15.8181 17.4119L15.2136 15.812L13.636 17.1185L12.1917 19.5627C13.636 19.1672 14.5559 18.4473 14.9471 17.403C15.1236 18.0555 15.0845 18.7475 14.8359 19.3761C15.1715 19.1783 15.4424 18.8875 15.6159 18.5388C15.7895 18.1902 15.8581 17.7987 15.8136 17.4119H15.8181ZM10.1741 8.43482C9.89646 7.71725 9.76793 6.95061 9.79643 6.18169C9.80531 5.84394 9.86753 5.51063 9.96083 5.19511C9.11647 5.35954 8.90761 6.23503 9.35203 7.81266L9.38312 7.91932L10.072 8.50593L10.1697 8.43482H10.1741ZM8.78762 15.812L8.18323 17.4119C8.14016 17.7996 8.21043 18.1915 8.38553 18.5401C8.56064 18.8888 8.83306 19.1791 9.1698 19.3761L9.0987 19.2028C8.90838 18.62 8.89293 17.9943 9.05426 17.403C9.44979 18.4473 10.3652 19.1672 11.8096 19.5627L10.3652 17.1185L8.78762 15.8075V15.812Z" fill="#FFA042"/>
<path d="M13.3689 4C13.5909 4.28442 13.7776 4.58217 13.9154 4.89769C14.1021 5.29766 14.2088 5.72873 14.2399 6.18647C14.3008 6.97301 14.1947 7.76356 13.9288 8.50627L13.8221 8.43516C13.5901 8.2784 13.3353 8.15848 13.0665 8.07964C12.9993 7.83076 12.8407 7.61648 12.6222 7.47969C12.4323 7.37261 12.2181 7.31599 12.0001 7.31526C11.7689 7.31526 11.5557 7.37303 11.3779 7.47969C11.1557 7.6219 11.0089 7.81744 10.9335 8.0752C10.6624 8.15964 10.4046 8.27962 10.169 8.43516L10.0714 8.50627C9.80469 7.733 9.69804 6.95972 9.76025 6.18202C9.8191 5.38316 10.1215 4.62157 10.6269 4C9.56076 4.54738 8.69569 5.41869 8.15596 6.48866C8.14262 6.50199 8.13818 6.52421 8.12929 6.542C7.9554 6.87784 7.85767 7.24789 7.84308 7.6258C7.82849 8.00372 7.89738 8.38021 8.04485 8.72847C7.73376 8.94623 7.57823 9.27508 7.58267 9.71505C7.58934 9.9476 7.64412 10.1763 7.74355 10.3866C7.84299 10.597 7.98491 10.7844 8.16039 10.9372V10.946C8.05818 11.1816 7.96486 11.426 7.88042 11.6704C6.92495 11.7149 6.26279 12.1325 5.90283 12.9413L5.33398 14.3724L5.63618 14.5679C5.8806 14.3768 6.1428 14.2124 6.41833 14.0657C6.95606 13.7857 7.33381 13.6747 7.55156 13.7457L6.60943 15.1234L6.76497 15.2212L6.03171 16.1367L6.17835 16.2833L5.56507 17.4254C5.53396 17.6788 5.58728 17.9498 5.73395 18.2521C6.01977 18.7943 6.45202 19.2453 6.98152 19.5541C7.51104 19.8629 8.11656 20.0169 8.72923 19.9985H8.74702C8.91588 19.9674 9.06698 19.9185 9.19142 19.8564C9.25807 19.8253 9.32473 19.7852 9.37361 19.7453C9.36529 19.7365 9.35919 19.7258 9.35585 19.7142C9.33429 19.6829 9.31499 19.6503 9.29808 19.6164L9.17365 19.3764C8.84034 18.6787 8.7959 17.8565 9.03142 16.91C9.17867 17.5793 9.53697 18.1837 10.0535 18.6342C10.5597 19.0752 11.1602 19.3944 11.8089 19.5674L11.9778 19.6119L11.9956 19.603H12.0001L12.0178 19.6119L12.1867 19.5674C12.8372 19.3957 13.4393 19.0762 13.9465 18.6342C14.4644 18.1848 14.8229 17.58 14.9686 16.91C15.2396 18.0165 15.1376 18.9497 14.6443 19.7097L14.622 19.7453C14.7731 19.8564 14.982 19.9452 15.2486 19.9985H15.2708C15.8835 20.0169 16.489 19.8629 17.0185 19.5541C17.548 19.2453 17.9804 18.7943 18.2661 18.2521C18.4128 17.9498 18.4661 17.6743 18.4306 17.4254L17.8216 16.2833L17.964 16.1367L17.2306 15.2212L17.3861 15.1234L16.4441 13.7457C16.6663 13.6747 17.044 13.7857 17.5817 14.0657C17.8661 14.2168 18.1284 14.3857 18.3594 14.5679L18.666 14.3724L18.0884 12.9413C17.7284 12.1325 17.0663 11.7104 16.1107 11.6704C16.0263 11.426 15.933 11.1816 15.8308 10.946V10.9372C16.0069 10.785 16.1493 10.5976 16.2488 10.3871C16.3483 10.1767 16.4026 9.94776 16.4085 9.71505C16.4175 9.27063 16.2619 8.94623 15.9508 8.72847C16.2485 8.06186 16.2174 7.33303 15.8619 6.542L15.8396 6.4931C15.5262 5.87041 15.0997 5.31134 14.5821 4.84436L14.4132 4.69771C14.0934 4.42514 13.7429 4.19098 13.3689 4Z" fill="black"/>
<path d="M12.751 8.40827C12.651 8.38856 12.5502 8.37371 12.4488 8.36382C12.8933 8.94155 13.0799 9.57705 13.0043 10.2748L12.9998 10.3325C12.9865 10.4436 12.9643 10.5547 12.9377 10.6703L12.9199 10.7191L12.9065 10.7725L12.7154 10.7147C12.2518 10.5962 11.7659 10.5962 11.3023 10.7147L11.1112 10.7725L11.0977 10.7236V10.7191L11.0845 10.6703C11.0578 10.5591 11.0401 10.4481 11.0223 10.3325L11.0133 10.2703C10.9379 9.57705 11.1289 8.93711 11.5689 8.35938L11.2712 8.40382C10.9867 8.47049 10.7157 8.57713 10.4668 8.7149L10.4223 8.75046L10.3601 8.78157C10.1866 8.89324 10.0231 9.01962 9.87128 9.15931L9.84906 9.18153C9.74884 9.27233 9.65388 9.36877 9.56464 9.47039C9.01309 10.129 8.59091 10.8859 8.32031 11.7013C8.62939 11.856 8.94861 11.9897 9.27578 12.1013C10.1755 12.4301 11.1264 12.5971 12.0845 12.5946C13.2123 12.5797 14.3248 12.3299 15.3508 11.8613C15.4663 11.8168 15.5818 11.7591 15.6974 11.7013C15.4257 10.8864 15.0037 10.1297 14.4531 9.47039C14.363 9.36955 14.2681 9.27314 14.1687 9.18153L14.1464 9.15931C13.9946 9.01962 13.8311 8.89324 13.6576 8.78157L13.6043 8.75046L13.5598 8.71935C13.307 8.57647 13.0345 8.47165 12.751 8.40827Z" fill="#FF0A1C"/>
<path d="M12.2807 8.48825L12.1829 8.35493H11.8407L11.7386 8.48825H12.2807ZM12.7162 10.4525C12.7767 10.1126 12.7695 9.76399 12.6947 9.42687C12.6199 9.08976 12.4793 8.77075 12.2807 8.48825H11.7386C11.5397 8.77065 11.3989 9.08963 11.3241 9.4268C11.2494 9.76395 11.2422 10.1126 11.3031 10.4525C11.5341 10.3947 11.774 10.3636 12.0141 10.3592C12.2496 10.3592 12.4851 10.3947 12.7162 10.4525ZM12.0096 7.70166C11.6363 7.76388 11.4052 7.93719 11.3031 8.22161C11.4052 7.95497 11.6363 7.82165 12.0141 7.83498C12.3829 7.82609 12.6184 7.95053 12.7162 8.22161C12.6184 7.93719 12.3829 7.76388 12.0096 7.70166Z" fill="#FF0A1C"/>
<path d="M12.009 7.83538C11.6357 7.82649 11.4047 7.95092 11.3025 8.22201C11.5381 8.17757 11.7736 8.16868 12.0135 8.18646C12.2481 8.16885 12.4841 8.18079 12.7157 8.22201C12.618 7.95536 12.3824 7.82204 12.009 7.83538ZM9.96484 13.8838C10.1649 14.1148 10.4404 14.177 10.7958 14.0659C10.5399 13.937 10.2557 13.8742 9.9693 13.8838H9.96484Z" fill="#FF0A1C"/>
<path d="M10.7915 14.7557C10.5548 14.7948 10.312 14.7475 10.1072 14.6224C10.3072 14.6445 10.5071 14.6224 10.7071 14.5601C10.8982 14.4979 11.0981 14.3956 11.2937 14.258C10.5694 14.4979 9.94718 14.3956 9.43615 13.9424L9.37838 13.8892V13.9736C9.33394 14.5512 9.48059 14.9245 9.80501 15.0845C10.1472 15.2445 10.4715 15.1335 10.7915 14.7512V14.7557ZM11.4804 14.5735C11.4804 14.6445 11.5115 14.7156 11.5693 14.7868C11.6892 14.9424 11.7469 15.0979 11.7381 15.2623C11.6314 15.0178 11.4714 14.8712 11.2493 14.809C11.1653 14.7849 11.0764 14.7834 10.9916 14.8045C10.8982 14.8312 10.8226 14.9023 10.7782 15.0178C10.7491 15.0786 10.7378 15.1463 10.7457 15.2132C10.7536 15.28 10.7802 15.3433 10.8226 15.3956C10.916 15.5156 11.0582 15.5733 11.2581 15.5778C11.2137 15.4844 11.2137 15.3779 11.2449 15.2667V15.2579L11.2626 15.2268C11.2893 15.2 11.3293 15.2089 11.387 15.2534C11.4537 15.2978 11.4893 15.3779 11.507 15.4934C11.5381 15.8044 11.6981 15.9822 12.0003 16C12.3069 15.9822 12.4803 15.8044 12.5159 15.4934C12.5291 15.3779 12.5647 15.2978 12.6313 15.2534C12.6891 15.2089 12.7337 15.2 12.7558 15.2268C12.7622 15.2361 12.7667 15.2467 12.7692 15.2579L12.7736 15.2667C12.8003 15.3779 12.8003 15.4844 12.7603 15.5778C12.9602 15.5778 13.1025 15.5156 13.1958 15.3956C13.2382 15.3433 13.2649 15.28 13.2727 15.2132C13.2806 15.1463 13.2693 15.0786 13.2401 15.0178C13.1958 14.9023 13.1246 14.8312 13.0269 14.8045C12.9435 14.7841 12.8562 14.7856 12.7736 14.809C12.5514 14.8712 12.3869 15.0178 12.2847 15.2623C12.2758 15.1024 12.3292 14.9424 12.4492 14.7868C12.5069 14.7156 12.5381 14.6445 12.5425 14.5735C12.5423 14.5134 12.5184 14.4559 12.4758 14.4135C12.3559 14.2979 12.2003 14.3246 12.0092 14.489C11.8181 14.3202 11.6625 14.2979 11.547 14.4135C11.5025 14.4534 11.4804 14.5068 11.4804 14.5735Z" fill="#FF0A1C"/>
<path d="M9.74231 13.4796C11.227 13.878 12.7905 13.878 14.2751 13.4796C14.9774 13.302 15.3418 12.9419 15.3863 12.3776C15.3951 12.3597 15.3951 12.3287 15.3951 12.2886L15.3907 12.1953C14.3119 12.6309 13.1629 12.8659 11.9998 12.8886C10.9333 12.8886 9.8223 12.6442 8.62684 12.1953V12.2843C8.6224 12.3287 8.62684 12.3597 8.63129 12.3776C8.67574 12.9419 9.04459 13.302 9.74231 13.4796Z" fill="#E9A043"/>
<path d="M6.8457 12.6434C6.90347 12.6166 6.96568 12.6034 7.01012 12.6123C7.05901 12.6211 7.08123 12.6434 7.08123 12.6878C7.08123 12.7323 7.05901 12.7766 7.01012 12.8301C6.96568 12.8834 6.90347 12.919 6.84125 12.9545C6.77459 12.9856 6.71682 12.9944 6.67237 12.9856C6.62794 12.9722 6.60127 12.9545 6.60127 12.91C6.60127 12.8655 6.62349 12.8211 6.67237 12.7678C6.71682 12.7145 6.77904 12.6746 6.84125 12.6434H6.8457ZM8.32556 12.2567C8.32556 12.1946 8.31667 12.1323 8.32556 12.0701C7.55229 12.0523 6.99234 12.2256 6.62349 12.5945C6.47684 12.7367 6.36574 12.9145 6.2813 13.1233L5.97021 13.9099C6.3622 13.5491 6.86896 13.3382 7.4012 13.3144C7.88559 13.31 8.19224 13.5544 8.33445 14.0388C8.47222 14.5277 8.45443 15.2654 8.27668 16.252C8.01003 17.7184 8.13003 18.834 8.63219 19.5938L8.58776 19.1362C8.33445 18.6562 8.33445 17.8074 8.57443 16.5897L8.58776 16.523L8.63219 16.3186L8.63664 16.3053L8.62776 16.2919L8.64108 16.2964C8.96995 15.101 8.99661 14.2166 8.70775 13.6477L9.32991 13.6833C9.1877 13.6389 9.04994 13.5722 8.93884 13.4966C8.73246 13.3609 8.57026 13.1678 8.47222 12.9411C8.38333 12.7455 8.33445 12.519 8.32556 12.2567Z" fill="#FF0A1C"/>
<path d="M8.63669 16.3092L8.64114 16.2957H8.62781L8.63669 16.3047V16.3092ZM8.06341 14.0649L8.03675 14.0027C8.01898 13.9583 7.99675 13.9138 7.97008 13.8782L7.16126 15.0915C7.3257 15.1715 7.46346 15.2692 7.5879 15.3759C7.67678 15.4381 7.75233 15.5137 7.81899 15.5937C7.85454 15.6293 7.88565 15.6736 7.9212 15.7181C7.9612 15.7714 8.00119 15.8292 8.0323 15.8913C8.17895 15.0514 8.19229 14.4426 8.06341 14.0693V14.0649ZM7.85454 15.9759L7.75678 15.8425C7.59178 15.6468 7.39123 15.4838 7.16571 15.3625L6.5791 16.1314C6.82567 16.5569 7.10502 16.9625 7.41458 17.3446L7.659 17.6291C7.70789 17.6869 7.76121 17.7446 7.81899 17.7979C7.80566 17.318 7.85454 16.7847 7.97453 16.1892L7.98342 16.167L7.85454 15.9714V15.9759ZM11.0632 15.8381L10.8987 15.8025C10.1877 15.6869 9.80548 15.8692 9.74326 16.3537C9.65439 17.0557 9.80548 17.589 10.1788 17.9401L10.1877 17.9313H10.2009C10.1121 17.7668 10.1033 17.5046 10.1788 17.1446L10.3298 16.4158C10.4455 16.0958 10.6854 15.9003 11.0632 15.8381Z" fill="#FF0A1C"/>
<path d="M10.2231 17.9686C10.2146 17.9537 10.2023 17.9415 10.1875 17.933L10.1787 17.9418C10.1875 17.9508 10.2009 17.9686 10.2142 17.9729L10.2231 17.9686ZM10.5963 17.0441V17.022L10.5075 17.4709L10.5164 17.4841H10.5075C10.4809 18.1508 10.9741 18.7373 12.0007 19.1107C13.0228 18.7373 13.5384 18.1508 13.5116 17.4841H13.5073L13.5161 17.4709L13.4272 17.022V17.0441C13.4183 17.0665 13.4183 17.0841 13.4183 17.1019C13.4006 17.1909 13.3739 17.2709 13.325 17.342C13.2006 17.5197 12.9695 17.6175 12.6273 17.6397H12.6051L12.2718 17.6441V18.0308C12.2718 18.1553 12.254 18.2529 12.2095 18.3151C12.2063 18.3244 12.2 18.3321 12.1918 18.3374C12.174 18.3685 12.1473 18.3818 12.1118 18.3997L12.0096 18.4308C11.9741 18.4218 11.9385 18.4129 11.9119 18.3997C11.8798 18.3869 11.8521 18.3653 11.8319 18.3374C11.8227 18.3318 11.8152 18.3242 11.8096 18.3151C11.7652 18.2485 11.7474 18.1553 11.7474 18.0308V17.6441L11.4141 17.6397H11.3919C11.0497 17.6175 10.8186 17.5197 10.6942 17.342C10.6497 17.2709 10.6231 17.1909 10.6053 17.1019C10.6053 17.0841 10.6053 17.0665 10.5963 17.0441Z" fill="#FF0A1C"/>
<path d="M10.5156 17.483L10.5068 17.4696V17.483H10.5156ZM13.5065 17.483H13.5154V17.4696L13.5065 17.483ZM12.0088 16.9852H11.289L11.4844 17.3318H12.5511L12.7377 16.9852H12.0133H12.0088ZM11.1111 16.2209L10.8712 16.6652H13.1555L12.9155 16.2209H11.1111ZM17.0085 12.6123C17.0618 12.6034 17.1151 12.6123 17.1773 12.6434C17.2439 12.6746 17.3017 12.7145 17.3507 12.7678C17.3951 12.8211 17.4217 12.8655 17.4217 12.91C17.4217 12.9545 17.3951 12.9722 17.3507 12.9856C17.3062 12.9944 17.2484 12.9856 17.1773 12.9545C17.114 12.9235 17.0568 12.8813 17.0085 12.8301C16.9639 12.7766 16.9373 12.7323 16.9373 12.6878C16.9373 12.6434 16.9595 12.6211 17.0085 12.6123ZM17.7372 13.1233C17.6626 12.9244 17.5459 12.7441 17.3951 12.5945C17.0307 12.2256 16.4663 12.0523 15.6975 12.0701V12.2567C15.6841 12.519 15.6352 12.7455 15.5463 12.9411C15.4507 13.1679 15.2897 13.3613 15.0842 13.4966C14.9686 13.5722 14.8397 13.6344 14.6931 13.6833L15.3152 13.6477C15.022 14.2166 15.0487 15.101 15.3819 16.2964H15.3908L15.3819 16.3053L15.3863 16.3186L15.4307 16.523L15.4486 16.5897C15.6841 17.8074 15.6841 18.6562 15.4352 19.1362L15.3908 19.5938C15.8931 18.8383 16.013 17.7184 15.7463 16.252C15.5686 15.2654 15.5463 14.5232 15.6841 14.0388C15.8263 13.5544 16.1375 13.31 16.6173 13.3144C17.1018 13.3144 17.5772 13.51 18.0527 13.9099L17.7372 13.1233Z" fill="#FF0A1C"/>
<path d="M15.3772 16.2957V16.3047L15.3906 16.2914L15.3817 16.2957H15.3772ZM16.9903 16.838C17.1503 16.6113 17.3015 16.3713 17.4437 16.1314L16.8527 15.3625C16.7327 15.4337 16.6171 15.5093 16.5105 15.5981C16.4216 15.6736 16.3371 15.7537 16.2661 15.8425L16.1683 15.9759C16.1194 16.0337 16.075 16.1003 16.0349 16.167L16.0439 16.1892C16.1639 16.7847 16.2127 17.318 16.2039 17.7979L16.3594 17.6291L16.6038 17.3446C16.7371 17.1801 16.8704 17.0113 16.9903 16.838ZM14.644 13.9716V13.8827C14.6217 13.9049 14.6039 13.9272 14.5818 13.9405C14.0707 14.3938 13.4485 14.496 12.7241 14.2515C12.9196 14.3938 13.1197 14.496 13.3108 14.5626C13.5151 14.6204 13.7107 14.6427 13.9107 14.6159C13.7419 14.736 13.5151 14.7804 13.2263 14.7493C13.5463 15.1315 13.8751 15.2425 14.2129 15.0782C14.5373 14.9226 14.6839 14.5493 14.644 13.9671V13.9716ZM15.9772 14.0027L15.955 14.0649C15.8306 14.4426 15.8394 15.0514 15.9861 15.887C16.0172 15.8292 16.0571 15.7714 16.1016 15.7181C16.1927 15.5877 16.3037 15.4721 16.4304 15.3759C16.5549 15.2649 16.6971 15.1715 16.8571 15.0915L16.0483 13.8782L15.9816 14.0027H15.9772Z" fill="#FF0A1C"/>
<path d="M14.0537 13.8839C13.7659 13.8737 13.48 13.9364 13.2228 14.066C13.5783 14.1772 13.8538 14.1105 14.0537 13.8839ZM13.1205 15.8036L12.9561 15.8392C13.3294 15.9015 13.5738 16.097 13.6893 16.417L13.8449 17.1458C13.916 17.5058 13.9116 17.768 13.8227 17.928L13.836 17.9324L13.8449 17.9147L13.8538 17.928C14.2227 17.5725 14.3604 17.0524 14.276 16.3548C14.2182 15.8659 13.8316 15.6881 13.1205 15.8036ZM13.796 17.968L13.836 17.9324H13.8227L13.796 17.968Z" fill="#FF0A1C"/>
<path d="M12.2798 8.48952L12.1821 8.3562H11.8398L11.7378 8.48952H12.2798ZM13.6042 8.75172L13.5598 8.72061C13.2167 8.52958 12.839 8.40872 12.4488 8.36508C12.8932 8.94281 13.0798 9.57831 13.0042 10.2761C13.1607 9.70838 13.0988 9.10272 12.831 8.5784C13.0886 8.57395 13.3375 8.63174 13.6042 8.75172ZM15.3507 11.8626C15.4662 11.8181 15.5818 11.7604 15.6973 11.7026C15.4256 10.8878 15.0035 10.1311 14.453 9.47165C14.9784 10.1644 15.2903 10.9953 15.3507 11.8626ZM18.0615 17.5955L17.4572 16.4799C17.1634 17.064 16.7812 17.5992 16.3239 18.0664C16.3074 18.5702 16.1958 19.0663 15.9951 19.5285C16.6318 19.362 17.2044 19.0092 17.6394 18.5153C17.8749 18.2309 18.0171 17.9198 18.0615 17.591V17.5955Z" fill="#FFA042"/>
<path d="M15.9952 19.5278C16.1959 19.0656 16.3075 18.5695 16.3241 18.0657C16.2751 18.119 16.2263 18.168 16.173 18.2124C16.1272 18.7051 15.9592 19.1787 15.6841 19.59L15.9952 19.5278Z" fill="#FFFCAB"/>
<path d="M15.9816 14.0026L15.955 14.0649C15.8306 14.4426 15.8394 15.0515 15.9861 15.8869C16.0172 15.8292 16.0571 15.7713 16.1016 15.7181C15.9683 15.1404 15.9239 14.567 15.9816 14.0026ZM14.6928 13.6827L15.315 13.6472C15.0261 14.2159 15.0484 15.1048 15.3817 16.3046L15.3906 16.2913C15.1505 14.8649 15.2306 13.8605 15.6216 13.2827C15.4661 13.3983 15.2795 13.4738 15.0839 13.4961C14.9683 13.5716 14.8395 13.6338 14.6928 13.6827ZM12.7241 14.256C12.9196 14.3938 13.1197 14.4959 13.3108 14.5582C13.9195 14.5849 14.3462 14.3759 14.5818 13.936C14.0707 14.3938 13.4485 14.4959 12.7241 14.256Z" fill="#FFA042"/>
<path d="M14.0534 13.8839C13.7654 13.8737 13.4794 13.9364 13.2222 14.066C13.5778 14.1772 13.8578 14.1105 14.0534 13.8839ZM14.071 16.217L14.0755 16.2304C14.1778 16.5325 14.2089 16.848 14.1554 17.1769C14.1111 17.4747 14.0088 17.728 13.8445 17.9147L13.8356 17.9324C13.8206 17.9423 13.807 17.9542 13.7955 17.968L13.8089 17.9724C14.2089 17.6168 14.3644 17.0836 14.2755 16.3548C14.2177 15.8659 13.8311 15.6881 13.1201 15.8036C13.6489 15.7815 13.9645 15.9059 14.0622 16.1992L14.071 16.217Z" fill="#FFA042"/>
<path d="M13.7954 17.9674C13.8069 17.9536 13.8204 17.9417 13.8353 17.9318H13.8221L13.7954 17.9674ZM12.2711 17.643V18.0296C12.2711 18.154 12.2533 18.2518 12.2089 18.314C12.3066 18.234 12.36 18.0607 12.3777 17.7941V17.7852H12.7066L12.751 17.7719C13.1643 17.7097 13.3865 17.483 13.4177 17.1008C13.3998 17.1896 13.3732 17.2697 13.3243 17.3408C13.1999 17.5186 12.9687 17.6164 12.6265 17.6385H12.6044L12.2711 17.643ZM13.5154 17.483V17.4696L13.5065 17.483H13.5154ZM16.1685 15.972C16.1196 16.0342 16.0751 16.1008 16.0352 16.1676L16.044 16.1897C16.1641 16.7852 16.2129 17.3185 16.204 17.7985L16.3596 17.6296C16.3527 17.086 16.2932 16.5443 16.1818 16.012L16.1685 15.972ZM10.4668 8.71934L10.4223 8.75045C10.6801 8.63046 10.9334 8.57269 11.1868 8.57713C10.92 9.10019 10.8581 9.70405 11.0133 10.2703C10.9379 9.57704 11.1289 8.9371 11.5689 8.35937L11.2712 8.40382C10.9867 8.47047 10.7157 8.57713 10.4668 8.7149V8.71934ZM12.0089 7.70166C11.6355 7.76388 11.4045 7.93719 11.3023 8.22161C11.4045 7.95497 11.6355 7.82165 12.0133 7.83498C12.3821 7.82609 12.6177 7.95053 12.7154 8.22161C12.6177 7.93719 12.3821 7.76388 12.0089 7.70166ZM8.67583 11.8613C8.75139 10.928 9.04913 10.1281 9.56464 9.47039C9.01299 10.129 8.59082 10.8859 8.32031 11.7013C8.4403 11.7591 8.55585 11.8124 8.67583 11.8613ZM10.7068 14.5588C10.8978 14.4966 11.0977 14.3944 11.2933 14.2567C10.5689 14.4966 9.95124 14.3944 9.43577 13.9411C9.6713 14.3766 10.1023 14.5855 10.7068 14.5633V14.5588Z" fill="#FFA042"/>
<path d="M10.8006 14.0649C10.5433 13.9351 10.2574 13.8725 9.96959 13.8826C10.165 14.1138 10.4406 14.176 10.7961 14.0649H10.8006ZM8.70745 13.6472L9.32962 13.6827C9.18296 13.6382 9.04964 13.5716 8.93853 13.4961C8.7436 13.4737 8.55807 13.4001 8.4008 13.2827C8.79188 13.8605 8.86743 14.8649 8.62745 16.2913L8.63634 16.3046C8.96964 15.1048 8.99187 14.2159 8.70745 13.6472ZM8.06306 14.0649L8.0364 14.0026C8.09861 14.567 8.05418 15.1404 7.92085 15.7181C7.96085 15.7713 8.00085 15.8292 8.03196 15.8914C8.17861 15.0515 8.19193 14.4426 8.06306 14.0694V14.0649ZM7.97418 16.1891L7.98306 16.1669L7.85419 15.9713L7.84086 16.0114C7.72976 16.549 7.66309 17.0868 7.66309 17.629C7.70754 17.6868 7.76087 17.7445 7.81864 17.7978C7.80531 17.318 7.85419 16.7846 7.97418 16.1891ZM9.94729 16.2157L9.95621 16.1981C10.0629 15.9047 10.374 15.7803 10.8983 15.8025C10.1873 15.6869 9.80513 15.8691 9.74291 16.3536C9.65403 17.0824 9.80957 17.6157 10.214 17.9713L10.2229 17.9668C10.2143 17.9521 10.202 17.9397 10.1873 17.9312L10.1784 17.9135C10.0095 17.7268 9.91178 17.4735 9.86735 17.1757C9.81239 16.8541 9.83991 16.5238 9.94729 16.2157Z" fill="#FFA042"/>
<path d="M10.1865 17.9312C10.1998 17.94 10.2131 17.949 10.2221 17.9668L10.1998 17.9267L10.1865 17.9312ZM10.6931 17.3402C10.6487 17.2691 10.6175 17.1891 10.6042 17.1001C10.6308 17.4823 10.8531 17.709 11.2663 17.7712L11.3152 17.7802L11.3597 17.7845H11.6441V17.7934C11.6574 18.0601 11.7153 18.2334 11.8086 18.3134C11.7641 18.2467 11.7463 18.1535 11.7463 18.029V17.6423L11.413 17.6379H11.3908C11.0486 17.6157 10.8175 17.5179 10.6931 17.3402ZM10.5153 17.4823L10.5064 17.4691V17.4823H10.5153Z" fill="#FFA042"/>
<path d="M8.62695 12.1953C9.32467 12.693 10.4489 12.9775 12.0089 13.0397C13.5687 12.9775 14.6976 12.693 15.3908 12.1953C14.3157 12.6252 13.1709 12.854 12.0133 12.8708C10.9467 12.8753 9.8224 12.6487 8.62695 12.1953Z" fill="#FFFCAB"/>
<path d="M6.56089 16.4796L5.96094 17.5905C6.00539 17.9195 6.14759 18.2305 6.38313 18.5149C6.81834 19.0086 7.3908 19.3613 8.02743 19.5282C7.82816 19.0654 7.71665 18.5697 7.69857 18.0661C7.58302 17.9461 7.47636 17.8217 7.3697 17.6928C7.05393 17.3195 6.78252 16.9109 6.56089 16.4751V16.4796Z" fill="#FFA042"/>
<path d="M7.8449 18.2124C7.79157 18.168 7.74714 18.119 7.69824 18.0657C7.74269 18.6924 7.85378 19.1767 8.0271 19.5278L8.33374 19.59C8.05868 19.1787 7.89065 18.7051 7.8449 18.2124Z" fill="#FFFCAB"/>
<path d="M13.9822 4.44995C14.2566 4.96277 14.4115 5.53092 14.4355 6.11202C14.4995 7.43184 14.1849 8.74244 13.5289 9.88946C13.2226 10.4228 12.8115 10.8884 12.3202 11.2582C12.2262 11.1398 12.1222 11.0297 12.0091 10.9294C11.8979 11.0272 11.7913 11.1383 11.698 11.2582C11.2087 10.8856 10.7993 10.4187 10.4937 9.88502C9.83766 8.73799 9.52312 7.4274 9.58709 6.10757C9.63152 5.46319 9.77818 4.91213 10.0403 4.44995C9.15157 5.22765 8.54718 6.00536 8.22721 6.7964C7.92501 7.55634 7.92501 8.2185 8.2361 8.76956C7.55615 9.23174 7.5917 10.005 8.34719 11.1072C8.46275 10.5739 8.61384 10.2717 8.79605 10.1917C8.99603 10.1028 9.24045 10.325 9.5382 10.8583C10.1292 12.0448 10.7381 12.9114 11.3647 13.4581C11.5602 13.5692 11.7691 13.6224 12.0091 13.6136C12.2491 13.6224 12.4623 13.5692 12.6535 13.4581C13.2756 12.9114 13.8888 12.0448 14.4843 10.8583C14.7777 10.325 15.0221 10.1028 15.2222 10.1917C15.4088 10.2717 15.5555 10.5739 15.6754 11.1072C16.4309 10.005 16.462 9.23174 15.7909 8.76956C16.0975 8.2185 16.0975 7.55634 15.7909 6.7964C15.4754 6.0098 14.8711 5.22765 13.9822 4.44995Z" fill="black"/>
<path d="M14.5517 5.40036C14.6139 5.68477 14.6627 5.96475 14.6849 6.24472C14.7205 6.88023 14.6139 7.62238 14.3783 8.45342C14.0139 9.73776 13.3917 10.7155 12.5117 11.3865C12.7111 11.6574 12.8574 11.9635 12.9429 12.2887C12.9829 12.4221 13.005 12.5553 13.014 12.6976C13.4845 12.0591 13.9065 11.3861 14.2761 10.6844C14.8182 9.7733 15.2627 9.60887 15.6181 10.1955C15.6626 10.2755 15.7071 10.3555 15.7425 10.4444C16.1693 9.70665 16.076 9.16891 15.4538 8.82228C16.0049 7.81347 15.756 6.70691 14.7117 5.51146L14.5205 5.2937L14.5427 5.37814L14.5517 5.40036ZM9.33433 6.24472C9.361 5.96475 9.40544 5.68477 9.46765 5.40036L9.47655 5.37814L9.5032 5.2937L9.30767 5.51591C8.26776 6.70691 8.01889 7.81347 8.56551 8.82228C7.94334 9.16891 7.85001 9.71109 8.28109 10.4444C8.31664 10.3555 8.35665 10.2755 8.40553 10.1955C8.76105 9.60887 9.20546 9.7733 9.74319 10.6844C10.1654 11.4665 10.5875 12.1376 11.0053 12.6976C11.0573 12.2254 11.2285 11.7742 11.503 11.3865C10.632 10.7155 10.0098 9.74219 9.64097 8.45342C9.41782 7.73757 9.31422 6.98983 9.33433 6.24028V6.24472ZM12.0096 11.7821C12.1474 11.9331 12.2497 12.0931 12.3296 12.2576V12.2797C12.3696 12.3553 12.3918 12.4265 12.3962 12.4798C12.4229 12.6442 12.4007 12.782 12.3296 12.8886C12.2961 12.9371 12.25 12.9754 12.1962 12.9997C12.1405 13.0189 12.082 13.0293 12.0229 13.0308H11.9918C11.9297 13.0308 11.8719 13.0176 11.8141 12.9997C11.7636 12.9742 11.7207 12.9358 11.6897 12.8886C11.614 12.7666 11.5885 12.6201 11.6185 12.4798C11.6275 12.4265 11.6497 12.3553 11.6808 12.2797L11.6897 12.2576C11.7697 12.0798 11.8763 11.9198 12.0053 11.7821H12.0096ZM11.3252 12.4487C11.2941 12.6353 11.303 12.7953 11.3475 12.9285C11.3653 12.9908 11.3919 13.0486 11.4364 13.102C11.5253 13.2264 11.6497 13.2975 11.8097 13.3197C11.8763 13.333 11.943 13.3374 12.0053 13.3419C12.0674 13.3374 12.1385 13.333 12.2096 13.3197C12.3652 13.2975 12.4896 13.2264 12.5829 13.0975C12.6229 13.053 12.6496 12.9908 12.6717 12.9285C12.7162 12.7953 12.7251 12.6353 12.694 12.4531C12.6695 12.3329 12.6338 12.2155 12.5873 12.1021C12.4457 11.7969 12.25 11.5198 12.0096 11.2843C11.7681 11.5188 11.5722 11.7961 11.4319 12.1021C11.384 12.2149 11.3483 12.3326 11.3252 12.4531V12.4487Z" fill="#FFA042"/>
<path d="M15.4529 8.86177C15.3729 8.93731 15.2218 8.97732 14.9818 8.96842C15.8085 9.17286 16.0573 9.67502 15.7373 10.4794C16.1684 9.74613 16.075 9.2084 15.4529 8.86177ZM14.6841 6.28422C14.7197 6.91972 14.6129 7.65743 14.3775 8.49291C14.0086 9.77724 13.3908 10.7549 12.5109 11.426C12.5865 11.5237 12.6354 11.6038 12.6621 11.6481C13.0501 11.3947 13.3766 11.0576 13.6175 10.6616C13.9064 10.2305 14.1463 9.75057 14.333 9.21285C14.6707 8.26182 14.7907 7.28414 14.6885 6.27979L14.6841 6.28422ZM9.03572 8.96842C8.80018 8.97732 8.64464 8.93731 8.56465 8.86177C7.94248 9.2084 7.85361 9.74613 8.28468 10.4794C7.96026 9.67502 8.21357 9.17286 9.03572 8.96842ZM9.33791 6.27979C9.16855 7.82107 9.54435 9.37298 10.4001 10.666C10.6413 11.0632 10.9696 11.4005 11.36 11.6526C11.3821 11.6082 11.4354 11.5282 11.5066 11.4304C10.6311 10.7594 10.0089 9.78169 9.64455 8.49736C9.4199 7.78176 9.31479 7.03403 9.33347 6.28422L9.33791 6.27979ZM11.3244 12.4925C11.2933 12.6704 11.3022 12.8303 11.3466 12.968C11.2711 12.4792 11.4932 12.0126 12.0133 11.546C12.5287 12.0126 12.7509 12.4792 12.6709 12.968C12.7153 12.8348 12.7287 12.6748 12.6976 12.4925C12.672 12.3708 12.6348 12.2517 12.5865 12.1371C12.4448 11.8319 12.249 11.5548 12.0088 11.3193C11.7668 11.5552 11.5709 11.834 11.431 12.1416C11.3832 12.2544 11.3474 12.372 11.3244 12.4925Z" fill="#FFFCAB"/>
<path d="M11.6887 12.9276C11.6147 12.8049 11.5907 12.6585 11.622 12.5188C11.631 12.461 11.6531 12.3944 11.6843 12.3188C11.4888 12.7054 11.511 12.9675 11.7465 13.1186C11.8265 13.1675 11.9109 13.1987 12.0131 13.1987C12.111 13.1987 12.1954 13.1675 12.2753 13.1186C12.5109 12.9675 12.5331 12.7054 12.3375 12.3188C12.3687 12.3944 12.3909 12.461 12.3998 12.5188C12.4265 12.6831 12.4042 12.8209 12.3287 12.9276C12.297 12.9732 12.2542 13.0099 12.2043 13.0342C12.1472 13.0554 12.0872 13.0674 12.0264 13.0698H11.9953C11.9331 13.0698 11.8754 13.0564 11.8176 13.0342C11.7677 13.0099 11.7249 12.9732 11.6931 12.9276H11.6887Z" fill="#FFFCAB"/>
</g>
<defs>
<clipPath id="clip0_328_22860">
<rect width="24" height="24" fill="white"/>
</clipPath>
</defs>
</svg>
