<svg width="24" height="24" viewBox="0 0 24 24" fill="none" xmlns="http://www.w3.org/2000/svg">
<g clip-path="url(#clip0_328_26539)">
<path d="M24 0H0V24H24V0Z" fill="url(#paint0_linear_328_26539)"/>
<path d="M10.488 7.1858C10.2792 6.91553 9.97891 6.73065 9.64355 6.66577H12.8926C13.4127 6.66577 13.7549 7.15469 13.8616 7.3947L17.3329 13.7329V16.5106C17.2573 17.0574 16.9151 17.3374 16.5284 17.3374C16.2173 17.3374 15.7506 16.8262 15.6394 16.5729L11.1548 8.00806L10.4925 7.1858H10.488Z" fill="white"/>
<path d="M12.1905 15.1111H7.30144C7.15476 15.1822 6.8392 15.3333 6.79918 15.3644C6.76363 15.3955 6.5014 16.689 6.37695 17.3334H13.035C13.1995 17.3334 13.3017 17.1512 13.2217 17.0045L12.1905 15.1111Z" fill="white"/>
<path d="M7.36378 15.1817C6.51928 16.8085 8.11048 17.3241 8.15048 17.3329H5.16812C3.82137 17.3329 3.91027 16.2485 4.12362 15.7061C5.53257 13.044 8.37272 7.66138 8.4705 7.43471C8.59051 7.15024 8.93275 6.66577 9.51054 6.66577C9.97279 6.66577 10.2928 6.91912 10.3906 7.04357L11.1462 7.99918C10.1684 9.85259 8.03492 13.8795 7.36378 15.1817Z" fill="white"/>
<path d="M19.9999 7.17818V16.6764C19.9999 17.0409 19.7109 17.3342 19.3553 17.3342H16.4707C17.0619 17.3342 17.2797 16.8009 17.333 16.5342V7.17373C17.333 6.89372 17.5908 6.6626 17.8663 6.6626H19.4976C19.7776 6.6626 19.9999 6.89372 19.9999 7.17373V7.17818Z" fill="white"/>
</g>
<defs>
<linearGradient id="paint0_linear_328_26539" x1="5.94197" y1="7.24379" x2="13.7258" y2="19.905" gradientUnits="userSpaceOnUse">
<stop stop-color="#06A9EE"/>
<stop offset="1" stop-color="#00529B"/>
</linearGradient>
<clipPath id="clip0_328_26539">
<rect width="24" height="24" fill="white"/>
</clipPath>
</defs>
</svg>
