<svg width="24" height="24" viewBox="0 0 24 24" fill="none" xmlns="http://www.w3.org/2000/svg">
<g clip-path="url(#clip0_328_26638)">
<path d="M24 0H0V24H24V0Z" fill="url(#paint0_linear_328_26638)"/>
<path fill-rule="evenodd" clip-rule="evenodd" d="M18.6694 7.79727C17.5356 10.4061 15.6809 12.6362 13.3239 14.2246C10.9669 15.8132 8.20568 16.6939 5.36565 16.7632C4.77786 15.8882 4.36791 14.9059 4.15916 13.8722C3.95041 12.8387 3.94696 11.774 4.14906 10.739C4.35111 9.70411 4.7547 8.71921 5.33686 7.84047C5.91895 6.96178 6.66815 6.20653 7.54169 5.61779C8.41524 5.02909 9.39598 4.61848 10.428 4.40938C11.46 4.20034 12.523 4.19689 13.5563 4.39924C14.5896 4.60164 15.573 5.00588 16.4502 5.58893C17.3276 6.17197 18.0816 6.92237 18.6694 7.79727ZM19.0005 7.74726V6.75163C19.0006 6.74133 19.0031 6.73117 19.0084 6.72232C19.0133 6.71348 19.0208 6.70617 19.0295 6.70123L19.9199 6.19713C19.9286 6.19203 19.938 6.18933 19.9479 6.18933C19.9576 6.18938 19.9672 6.19203 19.9757 6.19717C19.9841 6.20229 19.9911 6.20963 19.9959 6.21848C20.0008 6.22733 19.9999 6.23733 19.9999 6.24753V7.24318C19.9997 7.25338 20.0007 7.26333 19.9958 7.27217C19.9909 7.28102 19.984 7.28838 19.9756 7.29358L19.0839 7.79771C19.0753 7.80282 19.0659 7.80547 19.0559 7.80547C19.0463 7.80547 19.0367 7.80277 19.028 7.79766C19.0196 7.79252 19.0127 7.78517 19.0079 7.77636C19.0031 7.76752 19.0005 7.75746 19.0005 7.74726ZM18.5019 16.8933C19.4759 15.5296 19.9996 13.8949 19.9996 12.2182C19.9999 10.9825 19.7141 9.76365 19.1645 8.65742C16.6599 11.8989 15.0725 15.6824 14.5685 19.7498C16.1528 19.2082 17.5282 18.257 18.5019 16.8933Z" fill="white"/>
</g>
<defs>
<linearGradient id="paint0_linear_328_26638" x1="6.98703" y1="7.56932" x2="16.9754" y2="18.2252" gradientUnits="userSpaceOnUse">
<stop stop-color="#AA42FC"/>
<stop offset="1" stop-color="#5A49FF"/>
</linearGradient>
<clipPath id="clip0_328_26638">
<rect width="24" height="24" fill="white"/>
</clipPath>
</defs>
</svg>
