<svg width="24" height="24" viewBox="0 0 24 24" fill="none" xmlns="http://www.w3.org/2000/svg">
<g clip-path="url(#clip0_328_26760)">
<path d="M24 0H0V24H24V0Z" fill="#7E1BC6"/>
<path d="M3.5785 15.5335C3.12856 15.5335 2.85217 15.0641 3.08357 14.6914L9.89679 3.5974C9.95023 3.5138 10.024 3.445 10.111 3.39734C10.198 3.34969 10.2957 3.32471 10.3949 3.32471C10.4942 3.32471 10.5918 3.34969 10.679 3.39734C10.766 3.445 10.8397 3.5138 10.8932 3.5974L20.9202 19.8335C21.1452 20.2063 20.8688 20.6755 20.4124 20.6755H6.36164C5.91171 20.6755 5.62889 20.1999 5.86029 19.827L7.6086 17.0889C7.66167 17.0059 7.73485 16.9376 7.82138 16.8904C7.90791 16.8432 8.00497 16.8187 8.10352 16.8189H12.8599C12.9609 16.8215 13.0606 16.7966 13.1485 16.7471C13.2365 16.6975 13.3092 16.6251 13.3593 16.5374C13.4095 16.4497 13.4349 16.3501 13.433 16.2492C13.4311 16.1482 13.4018 16.0496 13.3484 15.9641L10.8739 11.9403C10.8232 11.858 10.7524 11.79 10.6679 11.7427C10.5836 11.6955 10.4885 11.6707 10.3918 11.6707C10.295 11.6707 10.2 11.6955 10.1155 11.7427C10.0311 11.79 9.96024 11.858 9.90973 11.9403L7.87214 15.2827C7.81682 15.3622 7.74266 15.4267 7.65627 15.4705C7.5699 15.5143 7.474 15.5359 7.37721 15.5335H3.58491H3.5785Z" fill="white"/>
</g>
<defs>
<clipPath id="clip0_328_26760">
<rect width="24" height="24" fill="white"/>
</clipPath>
</defs>
</svg>
