<svg width="24" height="24" viewBox="0 0 24 24" fill="none" xmlns="http://www.w3.org/2000/svg">
<g clip-path="url(#clip0_328_23093)">
<path d="M24 0H0V24H24V0Z" fill="#1D242C"/>
<path fill-rule="evenodd" clip-rule="evenodd" d="M10.3924 3.42402L7.36447 10.5001H3.20256C3.09066 10.5001 3 10.5918 3 10.705V12.6953C3 12.8084 3.09066 12.9002 3.20256 12.9002H6.33752L3.12372 20.4107C3.06528 20.5472 3.16333 20.7 3.30935 20.7H5.75634C5.83781 20.7 5.91139 20.6503 5.943 20.5737L11.9727 5.9727L17.9209 20.5727C17.9522 20.6498 18.026 20.7 18.1077 20.7H20.6913C20.8372 20.7 20.9352 20.5476 20.8773 20.4111L17.6868 12.9002H20.7976C20.9094 12.9002 21 12.8084 21 12.6953V10.705C21 10.5918 20.9094 10.5001 20.7976 10.5001H16.6673L13.6618 3.42455C13.6297 3.34895 13.5568 3.30005 13.476 3.30005H10.5779C10.4972 3.30005 10.4246 3.34872 10.3924 3.42402Z" fill="white"/>
</g>
<defs>
<clipPath id="clip0_328_23093">
<rect width="24" height="24" fill="white"/>
</clipPath>
</defs>
</svg>
