<svg width="24" height="24" viewBox="0 0 24 24" fill="none" xmlns="http://www.w3.org/2000/svg">
<g clip-path="url(#clip0_328_19686)">
<path d="M24 0H0V24H24V0Z" fill="#F26122"/>
<path d="M4.91052 3H6.54656V13.9069H4.91052V3Z" fill="white"/>
<path d="M4.91052 3H6.54656V6.8174C6.54656 6.8174 6.27388 4.36335 4.91052 3Z" fill="white"/>
<path d="M19.0894 13.907C19.0899 15.0454 18.8165 16.167 18.2918 17.1774C17.7673 18.1876 17.0072 19.0568 16.0757 19.7112C15.1443 20.3657 14.0689 20.7864 12.9406 20.9374C11.8124 21.0883 10.6643 20.9655 9.59353 20.5789C8.52273 20.1927 7.56073 19.5541 6.7889 18.7173C6.01707 17.8805 5.45808 16.8703 5.15922 15.7718C4.86034 14.6733 4.83039 13.5191 5.07187 12.4066C5.31334 11.2942 5.81915 10.2563 6.54654 9.38057V13.907C6.54637 15.1663 6.98206 16.3868 7.77965 17.3614C8.57726 18.3361 9.68755 19.0046 10.9221 19.2535C12.1566 19.5025 13.4393 19.3165 14.5522 18.7271C15.6651 18.1377 16.5398 17.1811 17.0276 16.0201C17.5155 14.8591 17.5863 13.5651 17.2284 12.3576C16.8705 11.1502 16.1056 10.1038 15.0638 9.39635C14.022 8.68873 12.7675 8.36362 11.5131 8.47608C10.2586 8.58851 9.08199 9.13168 8.18256 10.0133V7.92998C9.25429 7.24518 10.4904 6.86126 11.7615 6.81847C13.0325 6.77567 14.2917 7.0756 15.407 7.68678C16.5222 8.29796 17.4525 9.19785 18.1004 10.2923C18.7484 11.3865 19.0899 12.6352 19.0894 13.907Z" fill="white"/>
<path d="M19.0883 13.9071C19.0883 9.29344 13.4985 7.22121 9.73028 8.94452C9.15563 9.21021 8.63165 9.57363 8.18152 10.0188V7.93559C9.25286 7.25105 10.4884 6.86716 11.7591 6.82413C13.0296 6.78111 14.2884 7.08055 15.4035 7.69107C16.5186 8.3016 17.4491 9.20079 18.0973 10.2944C18.7457 11.3879 19.0879 12.6359 19.0883 13.9071Z" fill="white"/>
<path fill-rule="evenodd" clip-rule="evenodd" d="M10.3641 9.54468L8.72815 10.3627V14.4526C8.72861 15.173 8.96669 15.8728 9.40545 16.444C9.84415 17.015 10.4591 17.4256 11.1549 17.6116C11.8506 17.7976 12.5883 17.749 13.2537 17.4731C13.9189 17.1973 14.4745 16.7095 14.8344 16.0858C15.1942 15.4619 15.3383 14.7368 15.244 14.0228C15.15 13.3087 14.8228 12.6459 14.3136 12.1366C13.8042 11.6275 13.141 11.3005 12.427 11.2064C11.713 11.1126 10.9879 11.2568 10.3641 11.6171V9.54468ZM10.3641 14.4526C10.3641 14.8865 10.5366 15.3028 10.8433 15.6096C11.1501 15.9165 11.5663 16.0887 12.0002 16.0887C12.4341 16.0887 12.8503 15.9165 13.1571 15.6096C13.4638 15.3028 13.6363 14.8865 13.6363 14.4526C13.6363 14.0188 13.4638 13.6027 13.1571 13.2959C12.8503 12.9891 12.4341 12.8167 12.0002 12.8167C11.5663 12.8167 11.1501 12.9891 10.8433 13.2959C10.5366 13.6027 10.3641 14.0188 10.3641 14.4526Z" fill="white"/>
<path d="M8.72767 10.3627L10.3636 9.54468V11.6171C11.0659 11.2082 11.8952 11.0766 12.6895 11.2482C13.4836 11.4197 14.1848 11.8819 14.6555 12.544C13.6084 12.544 12.1307 12.4895 11.1817 13.0348C9.56746 13.9674 9.34937 16.3723 9.34937 16.3723C8.94408 15.8144 8.72638 15.1423 8.72767 14.4526V10.3627Z" fill="white"/>
</g>
<defs>
<clipPath id="clip0_328_19686">
<rect width="24" height="24" fill="white"/>
</clipPath>
</defs>
</svg>
