<svg width="24" height="24" viewBox="0 0 24 24" fill="none" xmlns="http://www.w3.org/2000/svg">
<g clip-path="url(#clip0_328_19708)">
<path d="M24 0H0V24H24V0Z" fill="black"/>
<path fill-rule="evenodd" clip-rule="evenodd" d="M12.8599 4.23596C12.5997 4.0815 12.3026 4 12 4C11.6975 4 11.4004 4.0815 11.1402 4.23596L5.86089 7.35552C5.59731 7.51292 5.37936 7.73638 5.22857 8.00378C5.07776 8.27119 4.99932 8.57332 5.001 8.88032V15.1195C5.001 15.7494 5.33096 16.3293 5.86089 16.6443L11.1402 19.7638C11.6701 20.0787 12.33 20.0787 12.8599 19.7638L18.1392 16.6443C18.4027 16.4869 18.6207 16.2634 18.7715 15.996C18.9223 15.7285 19.0008 15.4264 18.9991 15.1195V8.88032C18.9991 8.25041 18.6691 7.67048 18.1392 7.35552L12.8599 4.23596ZM12.21 5.04584C12.1615 5.01727 12.1063 5.00219 12.0501 5.00219C11.9937 5.00219 11.9386 5.01727 11.89 5.04584L6.21084 8.38039C6.16212 8.40909 6.12174 8.45001 6.09368 8.49913C6.06561 8.54822 6.05086 8.6038 6.05086 8.66035V15.3394C6.05086 15.4544 6.11085 15.5594 6.21084 15.6193L11.89 18.9539C11.9901 19.0139 12.11 19.0139 12.21 18.9539L17.8892 15.6193C17.9892 15.5594 18.0491 15.4544 18.0491 15.3394V8.66035C18.0491 8.6038 18.0344 8.54822 18.0063 8.49913C17.9783 8.45001 17.938 8.40909 17.8892 8.38039L12.21 5.05085V5.04584ZM12.675 5.69576C12.4721 5.57054 12.2384 5.50422 12 5.50422C11.7617 5.50422 11.5279 5.57054 11.3252 5.69576L7.17571 8.22541C6.75576 8.48037 6.5008 8.82033 6.5008 9.33025V15.0495C6.5008 15.4344 6.65078 15.5044 6.90074 15.6243C6.98074 15.6643 7.07073 15.7094 7.17571 15.7743L11.3252 18.3091C11.7451 18.5589 12.255 18.5589 12.675 18.3091L16.8243 15.7743C16.9244 15.7094 17.0244 15.6643 17.1043 15.6243C17.3543 15.5044 17.4993 15.4344 17.4993 15.0495V9.33025C17.4993 8.82033 17.2443 8.48037 16.8243 8.2304L12.675 5.69075V5.69576ZM12.135 6.02071C12.0945 5.99544 12.0477 5.98205 12 5.98205C11.9523 5.98205 11.9055 5.99544 11.8651 6.02071L7.13571 8.89031C7.09445 8.91529 7.06033 8.95052 7.03669 8.99256C7.01304 9.0346 7.00065 9.08204 7.00073 9.13028V14.8695C7.00073 14.9695 7.05073 15.0594 7.13571 15.1095L11.8651 17.9791C11.9501 18.0291 12.0501 18.0291 12.135 17.9791L16.8643 15.1095C16.9494 15.0594 16.9993 14.9695 16.9993 14.8695V9.13028C16.9993 9.03029 16.9494 8.94031 16.8643 8.89031L12.135 6.02071ZM15.3595 10.5201L12.25 12.3199V15.9443C12.25 16.0943 12.1251 16.2243 11.97 16.2243C11.82 16.2243 11.75 16.0994 11.75 15.9443V12.3199L8.6355 10.5201C8.5723 10.4825 8.52638 10.4218 8.50767 10.3506C8.48896 10.2795 8.49897 10.204 8.53551 10.1401C8.55314 10.1085 8.57694 10.0808 8.6055 10.0585C8.63407 10.0363 8.66682 10.02 8.7018 10.0107C8.73678 10.0013 8.77328 9.99911 8.80913 10.0042C8.84498 10.0093 8.87943 10.0215 8.91046 10.0402L11.9751 11.8398L15.0896 10.0402C15.2195 9.96015 15.3895 10.0052 15.4645 10.1401C15.5395 10.2751 15.4945 10.4401 15.3646 10.5201H15.3595Z" fill="white"/>
</g>
<defs>
<clipPath id="clip0_328_19708">
<rect width="24" height="24" fill="white"/>
</clipPath>
</defs>
</svg>
