<svg width="24" height="24" viewBox="0 0 24 24" fill="none" xmlns="http://www.w3.org/2000/svg">
<g clip-path="url(#clip0_328_26841)">
<path d="M24 0H0V24H24V0Z" fill="#FDC337"/>
<path d="M9.0847 5.27979H14.7977L17.4442 6.48236L20 9.83415L11.9408 18.7204L4 9.83415L6.50669 6.48356L9.0847 5.27979ZM9.17457 5.68279L7.0991 6.65162L9.17819 7.69782H14.7078L16.8433 6.65162L14.7106 5.68279H9.17457ZM17.2548 6.89866L14.9939 8.00651L15.9358 11.3475L19.4254 9.74463L17.2548 6.89866ZM18.9273 10.4169L15.949 11.7851L13.0225 16.9282L18.9273 10.4169ZM11.9408 18.0136L15.5891 11.6029L14.6018 8.10082H9.28016L8.24967 11.6029L11.9408 18.0136ZM7.90591 11.345L8.88924 8.00409L6.6977 6.90067L4.56824 9.74707L7.90591 11.345ZM5.08086 10.4395L10.799 16.8379L7.88939 11.7839L5.08086 10.4395Z" fill="black"/>
<path d="M13.7606 10.1944C13.6994 9.56659 13.0409 9.36066 12.357 9.30499V8.50464H11.954V9.31063H11.5509V8.50464H11.148V9.30499L9.93893 9.31627V10.1171C9.93893 10.1171 10.4428 10.1058 10.4318 10.1171C10.6487 10.1171 10.7228 10.2339 10.7449 10.3447V12.3727C10.7417 12.4818 10.6579 12.5347 10.554 12.5347H9.93893L9.93652 13.3406H11.148V14.1467H11.5509V13.3406H11.954V14.1467H12.357V13.3406C13.2464 13.2851 14.0108 13.0183 14.0831 12.1788C14.1386 11.5062 13.8218 11.2064 13.3161 11.0838C13.6216 10.9227 13.8162 10.6502 13.7606 10.1892V10.1944ZM13.0324 12.0176C13.038 12.6285 11.912 12.5347 11.5509 12.5347V11.5119C11.912 11.5119 13.0272 11.3336 13.0324 12.0176ZM12.687 10.4568C12.687 11.1221 11.5509 10.9227 11.5509 10.9227V10.1167C11.8456 10.1167 12.687 10.0453 12.687 10.4568Z" fill="black"/>
</g>
<defs>
<clipPath id="clip0_328_26841">
<rect width="24" height="24" fill="white"/>
</clipPath>
</defs>
</svg>
