<svg width="24" height="24" viewBox="0 0 24 24" fill="none" xmlns="http://www.w3.org/2000/svg">
<g clip-path="url(#clip0_328_26979)">
<path d="M24 0H0V24H24V0Z" fill="#00A0E1"/>
<path d="M11.682 4.13003C11.7671 4.04669 11.8814 4 12.0004 4C12.1195 4 12.2338 4.04669 12.3188 4.13003L15.5304 7.34156C15.573 7.38385 15.6069 7.43416 15.63 7.48959C15.6531 7.54502 15.6649 7.60448 15.6649 7.66452C15.6649 7.72458 15.6531 7.78404 15.63 7.83947C15.6069 7.8949 15.573 7.94521 15.5304 7.9875L12.3234 11.1945C12.2811 11.2371 12.2308 11.2709 12.1755 11.2941C12.1199 11.3171 12.0605 11.329 12.0004 11.329C11.9404 11.329 11.881 11.3171 11.8255 11.2941C11.77 11.2709 11.7198 11.2371 11.6775 11.1945L8.47051 7.9875C8.42788 7.94521 8.39402 7.8949 8.37093 7.83947C8.34784 7.78404 8.33594 7.72458 8.33594 7.66452C8.33594 7.60448 8.34784 7.54502 8.37093 7.48959C8.39402 7.43416 8.42788 7.38385 8.47051 7.34156L11.682 4.13003Z" fill="white"/>
<path d="M16.0117 8.47049C16.054 8.42785 16.1043 8.39401 16.1598 8.37092C16.2151 8.34782 16.2747 8.33594 16.3346 8.33594C16.3947 8.33594 16.4542 8.34782 16.5097 8.37092C16.5651 8.39401 16.6154 8.42785 16.6577 8.47049L19.8646 11.6774C19.9073 11.7198 19.9411 11.7701 19.9643 11.8254C19.9873 11.8809 19.9992 11.9404 19.9992 12.0004C19.9992 12.0605 19.9873 12.1199 19.9643 12.1753C19.9411 12.2308 19.9073 12.2811 19.8646 12.3233L16.6577 15.5303C16.6154 15.5729 16.5651 15.6069 16.5097 15.63C16.4542 15.653 16.3947 15.6648 16.3346 15.6648C16.2747 15.6648 16.2151 15.653 16.1598 15.63C16.1043 15.6069 16.054 15.5729 16.0117 15.5303L12.8047 12.3233C12.7622 12.2811 12.7283 12.2308 12.7052 12.1753C12.6822 12.1199 12.6702 12.0605 12.6702 12.0004C12.6702 11.9404 12.6822 11.8809 12.7052 11.8254C12.7283 11.7701 12.7622 11.7198 12.8047 11.6774L16.0117 8.47049ZM11.6812 12.8055C11.7663 12.7223 11.8806 12.6755 11.9996 12.6755C12.1187 12.6755 12.233 12.7223 12.318 12.8055L15.5296 16.0125C15.5722 16.0548 15.606 16.1051 15.6292 16.1606C15.6522 16.2159 15.6641 16.2754 15.6641 16.3355C15.6641 16.3955 15.6522 16.455 15.6292 16.5104C15.606 16.5659 15.5722 16.6162 15.5296 16.6585L12.3226 19.8654C12.2803 19.9081 12.23 19.9419 12.1746 19.965C12.1191 19.9881 12.0596 20 11.9996 20C11.9396 20 11.8801 19.9881 11.8246 19.965C11.7693 19.9419 11.7189 19.9081 11.6767 19.8654L8.46966 16.6585C8.42702 16.6162 8.39317 16.5659 8.37007 16.5104C8.34698 16.455 8.33509 16.3955 8.33509 16.3355C8.33509 16.2754 8.34698 16.2159 8.37007 16.1606C8.39317 16.1051 8.42702 16.0548 8.46966 16.0125L11.6767 12.8055H11.6812ZM7.34153 8.47049C7.38381 8.42785 7.43412 8.39401 7.48955 8.37092C7.54499 8.34782 7.60445 8.33594 7.66449 8.33594C7.72455 8.33594 7.784 8.34782 7.83943 8.37092C7.89487 8.39401 7.94518 8.42785 7.98746 8.47049L11.1945 11.6774C11.237 11.7198 11.2709 11.7701 11.2941 11.8254C11.3171 11.8809 11.329 11.9404 11.329 12.0004C11.329 12.0605 11.3171 12.1199 11.2941 12.1753C11.2709 12.2308 11.237 12.2811 11.1945 12.3233L7.98746 15.5303C7.94518 15.5729 7.89487 15.6069 7.83943 15.63C7.784 15.653 7.72455 15.6648 7.66449 15.6648C7.60445 15.6648 7.54499 15.653 7.48955 15.63C7.43412 15.6069 7.38381 15.5729 7.34153 15.5303L4.13455 12.3233C4.09191 12.2811 4.05807 12.2308 4.03498 12.1753C4.01188 12.1199 4 12.0605 4 12.0004C4 11.9404 4.01188 11.8809 4.03498 11.8254C4.05807 11.7701 4.09191 11.7198 4.13455 11.6774L7.34153 8.47049Z" fill="white"/>
</g>
<defs>
<clipPath id="clip0_328_26979">
<rect width="24" height="24" fill="white"/>
</clipPath>
</defs>
</svg>
