<svg width="24" height="24" viewBox="0 0 24 24" fill="none" xmlns="http://www.w3.org/2000/svg">
<g clip-path="url(#clip0_328_23140)">
<path d="M24 0H0V24H24V0Z" fill="#4250E4"/>
<path d="M12.0008 3.00087C14.3876 3.00087 16.6766 3.94898 18.3642 5.63663C20.0519 7.32429 21 9.61318 21 12C21 14.3867 20.0519 16.6755 18.3642 18.3632C16.6766 20.0509 14.3876 20.9991 12.0008 20.9991C10.4864 21.0003 8.99607 20.6191 7.66821 19.8907C6.34033 19.1622 5.21792 18.1103 4.40506 16.8324C3.5922 15.5545 3.11523 14.092 3.01841 12.5805C2.92157 11.0692 3.20799 9.5578 3.85111 8.18658C3.99772 9.09176 4.46099 9.91547 5.15837 10.5108C5.85576 11.1063 6.74191 11.4347 7.65885 11.4375H8.62626V9.75021H7.65324C6.62396 9.76697 5.74655 8.64216 5.72968 7.62413V7.60164C5.71843 6.5555 6.62396 5.82994 7.64199 5.81307C8.68812 5.80182 9.72298 6.58363 9.74556 7.61289V13.361C9.74556 15.4477 11.0111 17.0732 13.1202 17.0619C15.3024 17.0562 17.0573 15.3071 17.0573 13.2373C17.0501 12.7667 16.9491 12.302 16.7603 11.8708C16.5718 11.4396 16.2989 11.0504 15.958 10.7256C15.6171 10.401 15.215 10.1476 14.775 9.98016C14.3352 9.81253 13.8663 9.73445 13.3957 9.75021H12.5633V11.4375H13.4014C13.9119 11.4456 14.4002 11.6477 14.7669 12.003C15.1337 12.3582 15.3514 12.8397 15.3757 13.3498V13.3724C15.3594 13.8914 15.1484 14.3855 14.7848 14.7565C14.4212 15.1274 13.9313 15.3481 13.4128 15.3745C12.4172 15.3803 11.4553 14.3734 11.4385 13.361V7.61289C11.4385 6.56675 11.1291 5.64998 10.3811 4.90192C9.81199 4.33854 9.08357 3.96356 8.29441 3.82766C9.45184 3.27618 10.719 2.99354 12.0008 3.00087Z" fill="white"/>
</g>
<defs>
<clipPath id="clip0_328_23140">
<rect width="24" height="24" fill="white"/>
</clipPath>
</defs>
</svg>
