<svg width="24" height="24" viewBox="0 0 24 24" fill="none" xmlns="http://www.w3.org/2000/svg">
<g clip-path="url(#clip0_328_23147)">
<path d="M24 0H0V24H24V0Z" fill="url(#paint0_linear_328_23147)"/>
<path d="M17.935 19.9974C15.6788 19.8835 13.9009 18.1249 13.9009 16.0126C13.9009 15.8742 13.9899 15.7357 14.109 15.6526C14.8809 15.2097 15.386 14.4342 15.386 13.5202C15.386 12.1351 14.1979 11.0002 12.713 11.0002H10.1285C9.50497 11.0002 8.99999 11.4712 8.99999 12.0802V20.0001H6.17649C4.98999 20.0001 4 19.0402 4 17.8261V10.0627C4 9.32864 4.3675 8.65114 4.96099 8.25614L10.785 4.36015C11.1469 4.12525 11.569 4.00024 12.0004 4.00024C12.4318 4.00024 12.8541 4.12525 13.216 4.36015L19.0395 8.25614C19.3357 8.45515 19.5782 8.7241 19.7458 9.03918C19.9133 9.35426 20.0006 9.70579 20 10.0627V17.7977C20 18.9752 19.0972 19.939 17.935 19.9974Z" fill="white"/>
</g>
<defs>
<linearGradient id="paint0_linear_328_23147" x1="8.96542" y1="4.56219" x2="14.567" y2="20.0001" gradientUnits="userSpaceOnUse">
<stop stop-color="#28D0FA"/>
<stop offset="1" stop-color="#635BD7"/>
</linearGradient>
<clipPath id="clip0_328_23147">
<rect width="24" height="24" fill="white"/>
</clipPath>
</defs>
</svg>
