<svg width="24" height="24" viewBox="0 0 24 24" fill="none" xmlns="http://www.w3.org/2000/svg">
<g clip-path="url(#clip0_328_23147)">
<path d="M24 0H0V24H24V0Z" fill="url(#paint0_linear_328_23147)"/>
<path d="M18.6769 20.9968C16.1386 20.8686 14.1385 18.8902 14.1385 16.5139C14.1385 16.3582 14.2386 16.2023 14.3726 16.1089C15.241 15.6106 15.8092 14.7382 15.8092 13.7099C15.8092 12.1517 14.4726 10.8749 12.8021 10.8749H9.89456C9.19309 10.8749 8.62499 11.4048 8.62499 12.0899V20.9998H5.44855C4.11374 20.9998 3 19.9199 3 18.554V9.82022C3 8.99445 3.41344 8.23226 4.08111 7.78789L10.6331 3.4049C11.0403 3.14064 11.5151 3 12.0004 3C12.4858 3 12.9609 3.14064 13.368 3.4049L19.9194 7.78789C20.2527 8.01177 20.5255 8.31434 20.714 8.66881C20.9025 9.02327 21.0007 9.41874 21 9.82022V18.5221C21 19.8468 19.9843 20.9311 18.6769 20.9968Z" fill="white"/>
</g>
<defs>
<linearGradient id="paint0_linear_328_23147" x1="8.96542" y1="4.56219" x2="14.567" y2="20.0001" gradientUnits="userSpaceOnUse">
<stop stop-color="#28D0FA"/>
<stop offset="1" stop-color="#635BD7"/>
</linearGradient>
<clipPath id="clip0_328_23147">
<rect width="24" height="24" fill="white"/>
</clipPath>
</defs>
</svg>
