<svg width="24" height="24" viewBox="0 0 24 24" fill="none" xmlns="http://www.w3.org/2000/svg">
<g clip-path="url(#clip0_328_23154)">
<path d="M24 0H0V24H24V0Z" fill="url(#paint0_linear_328_23154)"/>
<path fill-rule="evenodd" clip-rule="evenodd" d="M18.3639 18.3639C16.6762 20.0517 14.387 21 12 21C9.61306 21 7.32386 20.0517 5.63603 18.3639C3.94822 16.6762 3 14.387 3 12C3 9.61306 3.94822 7.32386 5.63603 5.63603C7.32386 3.94822 9.61306 3 12 3C14.387 3 16.6762 3.94822 18.3639 5.63603C20.0517 7.32386 21 9.61306 21 12C21 14.387 20.0517 16.6762 18.3639 18.3639ZM14.0013 8.26231C13.9429 8.1882 14.0117 8.08231 14.1017 8.10878C15.4041 8.47408 16.2512 9.07231 16.2512 9.76058C16.2512 10.8776 13.9906 11.7775 11.2059 11.7775C9.38998 11.7775 7.79646 11.3964 6.91233 10.814C6.83821 10.7717 6.88058 10.6606 6.96528 10.6763C7.63763 10.8088 8.3947 10.8776 9.1888 10.8776C11.9734 10.8776 14.234 9.97759 14.234 8.86584C14.234 8.65407 14.1494 8.4529 14.0013 8.26231ZM14.9964 11.7777C14.9277 11.6929 15.0123 11.5711 15.1183 11.5976C16.6324 12.0264 17.6223 12.7306 17.6223 13.5299C17.6223 14.827 14.9859 15.8859 11.73 15.8859C9.60701 15.8859 7.74352 15.4359 6.71117 14.7583C6.62116 14.7053 6.6741 14.5783 6.77998 14.5993C7.55822 14.7529 8.44235 14.8376 9.37409 14.8376C12.63 14.8376 15.2665 13.784 15.2665 12.4817C15.2665 12.2383 15.1711 12 14.9964 11.7777Z" fill="white"/>
</g>
<defs>
<linearGradient id="paint0_linear_328_23154" x1="19.5714" y1="9.42856" x2="5.42857" y2="17.4285" gradientUnits="userSpaceOnUse">
<stop stop-color="#CD9CBC"/>
<stop offset="1" stop-color="#AD8BD4"/>
</linearGradient>
<clipPath id="clip0_328_23154">
<rect width="24" height="24" fill="white"/>
</clipPath>
</defs>
</svg>
