<svg width="24" height="24" viewBox="0 0 24 24" fill="none" xmlns="http://www.w3.org/2000/svg">
<g clip-path="url(#clip0_328_24590)">
<path d="M24 0H0V24H24V0Z" fill="#275589"/>
<path d="M12 6.61819C12.3471 6.61819 12.6802 6.48027 12.9257 6.23477C13.1712 5.98926 13.3091 5.65629 13.3091 5.3091C13.3091 4.96191 13.1712 4.62892 12.9257 4.38343C12.6802 4.13793 12.3471 4 12 4C11.6528 4 11.3198 4.13793 11.0743 4.38343C10.8288 4.62892 10.6909 4.96191 10.6909 5.3091C10.6909 5.65629 10.8288 5.98926 11.0743 6.23477C11.3198 6.48027 11.6528 6.61819 12 6.61819ZM12 19.9999C12.3471 19.9999 12.6802 19.862 12.9257 19.6164C13.1712 19.371 13.3091 19.038 13.3091 18.6908C13.3091 18.3437 13.1712 18.0106 12.9257 17.7652C12.6802 17.5196 12.3471 17.3817 12 17.3817C11.6528 17.3817 11.3198 17.5196 11.0743 17.7652C10.8288 18.0106 10.6909 18.3437 10.6909 18.6908C10.6909 19.038 10.8288 19.371 11.0743 19.6164C11.3198 19.862 11.6528 19.9999 12 19.9999ZM12.4676 7.32464H11.5324V9.19478H12.4676V7.32464ZM12.4676 14.8052H11.5324V16.6752H12.4676V14.8052ZM6.61819 11.9999C6.61819 11.6528 6.48028 11.3197 6.23477 11.0743C5.98927 10.8288 5.65629 10.6908 5.3091 10.6908C4.9619 10.6908 4.62894 10.8288 4.38343 11.0743C4.13793 11.3197 4 11.6528 4 11.9999C4 12.3472 4.13793 12.6801 4.38343 12.9256C4.62894 13.1711 4.9619 13.309 5.3091 13.309C5.65629 13.309 5.98927 13.1711 6.23477 12.9256C6.48028 12.6801 6.61819 12.3472 6.61819 11.9999ZM18.6909 10.6908C19.038 10.6908 19.3711 10.8288 19.6166 11.0743C19.862 11.3197 20 11.6528 20 11.9999C20 12.3472 19.862 12.6801 19.6166 12.9256C19.3711 13.1711 19.038 13.309 18.6909 13.309C18.3437 13.309 18.0107 13.1711 17.7651 12.9256C17.5197 12.6801 17.3818 12.3472 17.3818 11.9999C17.3818 11.6528 17.5197 11.3197 17.7651 11.0743C18.0107 10.8288 18.3437 10.6908 18.6909 10.6908ZM7.32465 12.4675V11.5324H9.19478V12.4675H7.32465ZM14.8052 12.4675V11.5324H16.6754V12.4675H14.8052ZM8.18818 6.34703C8.30974 6.46859 8.40618 6.61291 8.47198 6.77174C8.53777 6.93058 8.57162 7.10082 8.57162 7.27274C8.57162 7.44466 8.53777 7.6149 8.47198 7.77374C8.40618 7.93257 8.30974 8.07689 8.18818 8.19846C8.06661 8.32003 7.9223 8.41646 7.76346 8.48225C7.60462 8.54804 7.43438 8.5819 7.26246 8.5819C7.09054 8.5819 6.9203 8.54804 6.76146 8.48225C6.60262 8.41646 6.45831 8.32003 6.33674 8.19846C6.09122 7.95294 5.9533 7.61995 5.9533 7.27274C5.9533 6.92553 6.09122 6.59254 6.33674 6.34703C6.58226 6.10151 6.91525 5.96358 7.26246 5.96358C7.60967 5.96358 7.94266 6.10151 8.18818 6.34703ZM17.6525 17.6529C17.7741 17.5314 17.8706 17.3871 17.9363 17.2282C18.0021 17.0694 18.0359 16.8991 18.0359 16.7272C18.0359 16.5552 18.0021 16.3851 17.9363 16.2262C17.8706 16.0674 17.7741 15.9231 17.6525 15.8014C17.531 15.6799 17.3866 15.5835 17.2278 15.5176C17.069 15.4519 16.8986 15.418 16.7267 15.418C16.5549 15.418 16.3846 15.4519 16.2258 15.5176C16.067 15.5835 15.9226 15.6799 15.801 15.8014C15.5555 16.047 15.4176 16.38 15.4176 16.7272C15.4176 17.0744 15.5555 17.4073 15.801 17.6529C16.0466 17.8984 16.3796 18.0364 16.7267 18.0364C17.0739 18.0364 17.407 17.8984 17.6525 17.6529ZM9.41078 8.06522L8.0727 9.41079L9.30886 10.6544L10.6474 9.30886L9.41078 8.06522ZM14.6696 13.3235L13.323 14.6696L14.5667 15.9132L15.9048 14.5676L14.6696 13.3235ZM15.807 8.19332C15.9287 8.31488 16.073 8.41132 16.2318 8.47711C16.3907 8.5429 16.5609 8.57675 16.7328 8.57675C16.9047 8.57675 17.075 8.5429 17.2338 8.47711C17.3927 8.41132 17.537 8.31488 17.6586 8.19332C17.7801 8.07175 17.8766 7.92743 17.9423 7.76859C18.0081 7.60976 18.042 7.43952 18.042 7.26759C18.042 7.09568 18.0081 6.92544 17.9423 6.7666C17.8766 6.60777 17.7801 6.46345 17.6586 6.34188C17.413 6.09637 17.0801 5.95843 16.7328 5.95843C16.3856 5.95843 16.0526 6.09637 15.807 6.34188C15.5616 6.5874 15.4238 6.92039 15.4238 7.26759C15.4238 7.61481 15.5616 7.9478 15.807 8.19332ZM8.19332 17.6478C8.07176 17.7693 7.92743 17.8657 7.76859 17.9316C7.60976 17.9973 7.43952 18.0312 7.2676 18.0312C7.09569 18.0312 6.92544 17.9973 6.76662 17.9316C6.60778 17.8657 6.46345 17.7693 6.34189 17.6478C6.22031 17.5261 6.12389 17.3818 6.0581 17.223C5.9923 17.0643 5.95844 16.894 5.95844 16.722C5.95844 16.5501 5.9923 16.38 6.0581 16.2211C6.12389 16.0623 6.22031 15.918 6.34189 15.7963C6.5874 15.5508 6.92038 15.4128 7.2676 15.4128C7.61482 15.4128 7.94781 15.5508 8.19332 15.7963C8.43884 16.0419 8.57677 16.3748 8.57677 16.722C8.57677 17.0692 8.43884 17.4022 8.19332 17.6478ZM10.524 13.4759C10.7178 13.6698 10.9479 13.8236 11.2012 13.9284C11.4544 14.0334 11.7258 14.0874 12 14.0874C12.2742 14.0874 12.5456 14.0334 12.7988 13.9284C13.0521 13.8236 13.2822 13.6698 13.476 13.4759C13.6698 13.2822 13.8236 13.052 13.9285 12.7988C14.0334 12.5455 14.0874 12.274 14.0874 11.9999C14.0874 11.7259 14.0334 11.4544 13.9285 11.2012C13.8236 10.9478 13.6698 10.7177 13.476 10.5239C13.0846 10.1325 12.5536 9.91259 12 9.91259C11.4464 9.91259 10.9154 10.1325 10.524 10.5239C10.1326 10.9154 9.91265 11.4464 9.91265 11.9999C9.91265 12.5536 10.1326 13.0845 10.524 13.4759ZM15.9418 9.41079L14.5818 8.0582L13.3381 9.30184L14.6986 10.6619L15.9418 9.41079ZM10.6834 14.6761L9.32335 13.3165L8.07971 14.5602L9.44023 15.9127L10.6834 14.6761Z" fill="white"/>
</g>
<defs>
<clipPath id="clip0_328_24590">
<rect width="24" height="24" fill="white"/>
</clipPath>
</defs>
</svg>
