<svg width="24" height="24" viewBox="0 0 24 24" fill="none" xmlns="http://www.w3.org/2000/svg">
<g clip-path="url(#clip0_328_23218)">
<path d="M24 0H0V24H24V0Z" fill="#FF4339"/>
<path d="M8.8889 16.8678L6.20889 18.779C4.8022 17.307 4.0119 15.3527 4 13.3167V13.219C4.00059 11.0973 4.84402 9.06265 6.34472 7.56277C7.84543 6.06289 9.8805 5.22061 12.0022 5.22119C14.1239 5.22178 16.1586 6.0652 17.6585 7.56591C19.1583 9.06661 20.0006 11.1017 20 13.2234V13.3122C19.9919 15.3422 19.2098 17.2924 17.8133 18.7656L15.1111 16.8502V12.8012L16.0978 12.0723L12.0266 8.9923L7.95556 12.0723L8.8889 12.8012V16.8678ZM12 11.9301H12.0666C13.2755 11.9301 14.289 12.8234 14.2178 13.9568V16.2234L11.9955 14.6679L9.77778 16.2456V13.9568C9.77778 12.819 10.7866 11.9301 12 11.9301Z" fill="white"/>
</g>
<defs>
<clipPath id="clip0_328_23218">
<rect width="24" height="24" fill="white"/>
</clipPath>
</defs>
</svg>
