<svg width="24" height="24" viewBox="0 0 24 24" fill="none" xmlns="http://www.w3.org/2000/svg">
<g clip-path="url(#clip0_328_27191)">
<path d="M24 0H0V24H24V0Z" fill="black"/>
<path d="M5.01584 6.77688L11.1952 4.02842C11.2507 4.00357 11.3134 3.99992 11.3715 4.01813C11.4296 4.03632 11.4791 4.07514 11.5106 4.12724C11.5275 4.18037 11.5339 4.23636 11.5293 4.29197V6.28743C11.5293 6.29685 11.5199 6.31097 11.5106 6.31566C11.5018 6.32454 11.49 6.32961 11.4776 6.32978L5.04408 6.98395C5.02879 6.98485 5.01357 6.98133 5.00022 6.97382C4.98687 6.96631 4.97596 6.95513 4.96878 6.9416C4.92172 6.87101 4.93583 6.81454 5.01584 6.77688ZM12.7906 4.02842L19.0029 6.78159C19.0641 6.81454 19.0782 6.8616 19.0311 6.9369C19.0237 6.94882 19.0133 6.95857 19.0009 6.96518C18.9885 6.97179 18.9745 6.97502 18.9605 6.97454L12.5129 6.32508C12.5035 6.32508 12.4894 6.32508 12.4847 6.31566C12.4801 6.31155 12.4765 6.30645 12.474 6.30077C12.4715 6.29508 12.4705 6.28892 12.4705 6.28272V4.23549C12.4705 4.15548 12.4941 4.11312 12.4941 4.10841C12.5693 4.00017 12.6682 3.97194 12.7906 4.02842Z" fill="white"/>
<path d="M7.68481 13.1546C6.65884 11.6203 5.62816 10.0908 4.59278 8.56119C4.39041 8.26469 4.42335 8.03879 4.82339 8.02468L11.1203 7.36108C11.1329 7.36108 11.1448 7.36605 11.1536 7.37487C11.1625 7.3837 11.1674 7.39567 11.1674 7.40815C11.1687 7.41437 11.1687 7.42077 11.1674 7.42697L7.82599 13.244C7.82215 13.2506 7.81668 13.2564 7.81012 13.2605C7.80355 13.2646 7.79607 13.267 7.78835 13.2674C7.78104 13.2674 7.77383 13.2658 7.7673 13.2626C7.76077 13.2592 7.75508 13.2545 7.7507 13.2487C7.72722 13.2184 7.70524 13.187 7.68481 13.1546ZM19.2858 8.02938C19.3522 8.04197 19.4117 8.07877 19.4526 8.13269C19.4934 8.18659 19.5128 8.25377 19.507 8.32118C19.5022 8.36824 19.4835 8.41529 19.4599 8.44824L16.1984 13.2487C16.1969 13.2521 16.1947 13.2552 16.192 13.2578C16.1893 13.2603 16.1861 13.2623 16.1826 13.2636C16.1791 13.265 16.1754 13.2655 16.1716 13.2654C16.1679 13.2653 16.1642 13.2644 16.1608 13.2629L16.1514 13.2487L12.8099 7.42697C12.7817 7.37992 12.7958 7.36108 12.8429 7.36108L19.2858 8.02938Z" fill="white"/>
<path d="M4.47 15.3286V10.1846C4.47037 10.1679 4.47475 10.1516 4.48277 10.137C4.49079 10.1224 4.50222 10.11 4.51607 10.1008C4.52993 10.0915 4.54581 10.0857 4.56237 10.084C4.57893 10.0821 4.59567 10.0844 4.61118 10.0905C4.63472 10.0952 4.65825 10.1092 4.66766 10.1281L6.96434 13.8837C6.97204 13.8954 6.97732 13.9084 6.97985 13.9222C6.98236 13.9359 6.98208 13.95 6.979 13.9637C6.97593 13.9773 6.97012 13.9901 6.96194 14.0016C6.95374 14.0129 6.94336 14.0225 6.93139 14.0296L4.63001 15.4179C4.61385 15.4286 4.59506 15.4344 4.57576 15.4349C4.55645 15.4353 4.53741 15.4303 4.52076 15.4206C4.50411 15.4108 4.49055 15.3965 4.48157 15.3795C4.4726 15.3624 4.46859 15.3431 4.47 15.3239V15.3286ZM16.9934 13.912L19.3089 10.1187C19.3166 10.1049 19.328 10.0934 19.3419 10.0857L19.4078 10.0575C19.4203 10.0513 19.4341 10.0482 19.4482 10.0486C19.4621 10.0491 19.4757 10.0529 19.4879 10.0599C19.5 10.067 19.5102 10.0769 19.5175 10.0887C19.5249 10.1006 19.5292 10.1142 19.5301 10.1281V15.3615C19.5301 15.3839 19.5211 15.4055 19.5052 15.4214C19.4895 15.4373 19.4678 15.4462 19.4454 15.4462L19.3983 15.4321L17.0216 14.0202C17.0037 14.0097 16.9903 13.9929 16.9839 13.9732C16.9807 13.9621 16.9799 13.9505 16.9815 13.9392C16.9832 13.9278 16.9872 13.9169 16.9934 13.9072V13.912Z" fill="white"/>
<path d="M12.6258 19.3798C12.2869 19.9823 11.8963 20.3352 11.4491 19.5351C10.4974 17.8322 9.54671 16.1284 8.59718 14.4241C8.59693 14.4119 8.59982 14.4 8.6056 14.3892C8.61138 14.3785 8.61983 14.3694 8.63012 14.3629C8.64016 14.3571 8.65148 14.3539 8.66307 14.3535H15.3225C15.3321 14.3538 15.3413 14.3565 15.3496 14.3615C15.3578 14.3665 15.3648 14.3735 15.3695 14.3818C15.3749 14.391 15.3777 14.4016 15.3777 14.4124C15.3777 14.4231 15.3749 14.4337 15.3695 14.443L12.6258 19.3798Z" fill="white"/>
<path d="M7.68914 14.966L10.1411 19.39C10.1536 19.4129 10.1603 19.4386 10.1605 19.4649C10.1607 19.4909 10.1545 19.5169 10.1424 19.5401C10.1303 19.5634 10.1127 19.5832 10.0912 19.5981C10.0696 19.6129 10.0448 19.6222 10.0187 19.6252L9.83988 19.6394C9.80373 19.6435 9.76721 19.6352 9.73637 19.6158L5.06773 16.5708C5.03472 16.5479 5.01154 16.5134 5.00283 16.4742C4.99411 16.4349 5.00048 16.3938 5.02067 16.3591C5.03478 16.3355 5.05362 16.312 5.07714 16.3026L7.46794 14.9049C7.48612 14.8939 7.50631 14.8865 7.52733 14.8834C7.54836 14.8804 7.56979 14.8815 7.59039 14.8866C7.61097 14.8919 7.63032 14.9013 7.64727 14.9141C7.66422 14.9268 7.67845 14.9429 7.68914 14.9613V14.966ZM13.9579 19.2253C14.758 17.7757 15.5486 16.3167 16.3722 14.886C16.3751 14.8796 16.3793 14.874 16.3846 14.8694C16.39 14.8649 16.3963 14.8616 16.4031 14.8598C16.4098 14.858 16.4169 14.8577 16.4237 14.8589C16.4306 14.8603 16.4371 14.863 16.4429 14.8672C17.2805 15.353 18.1151 15.844 18.9466 16.3402C18.9936 16.3684 19.0219 16.3967 19.0313 16.4203C19.0407 16.4438 19.0407 16.4672 19.0313 16.4955C19.0264 16.516 19.0148 16.5343 18.9983 16.5473L14.3155 19.6064C14.0003 19.8182 13.7979 19.5076 13.9579 19.2253Z" fill="white"/>
</g>
<defs>
<clipPath id="clip0_328_27191">
<rect width="24" height="24" fill="white"/>
</clipPath>
</defs>
</svg>
