<svg width="24" height="24" viewBox="0 0 24 24" fill="none" xmlns="http://www.w3.org/2000/svg">
<g clip-path="url(#clip0_328_27514)">
<path d="M24 0H0V24H24V0Z" fill="url(#paint0_linear_328_27514)"/>
<path d="M18.211 7.01562C17.6507 7.12569 17.1255 7.28077 16.6901 7.37582C16.1293 7.49731 15.6211 7.79303 15.2383 8.22071C14.8555 8.6484 14.6178 9.18616 14.559 9.75707C14.379 11.0028 14.7992 11.538 14.6142 12.9889C14.2939 15.5152 11.8627 16.3907 10.7322 16.916C10.0818 17.216 8.4859 17.9165 7.26025 18.4518C8.82286 19.5969 10.7478 20.1365 12.6779 19.9705C14.6082 19.8043 16.4126 18.9439 17.7566 17.5485C19.1006 16.1533 19.893 14.3178 19.9866 12.3827C20.0803 10.4476 19.4691 8.54427 18.266 7.02562L18.206 7.01562H18.211Z" fill="white"/>
<path d="M11.1077 10.8318C11.723 9.50108 11.503 9.49608 11.9682 8.24541C12.0894 7.87094 12.3305 7.54666 12.6541 7.3225C12.9776 7.09834 13.3659 6.9867 13.7591 7.00475C14.2193 7.00475 14.6996 7.14984 14.9047 7.17484C15.7402 7.28991 15.9553 6.98974 17.7213 6.7096L17.9714 6.67457C17.0934 5.69016 15.9853 4.93817 14.7463 4.48557C13.5073 4.03297 12.1755 3.89382 10.8697 4.08052C9.56382 4.2672 8.32439 4.77395 7.26179 5.5556C6.19919 6.33725 5.34639 7.36956 4.77933 8.56058C7.42574 9.21093 10.2773 10.6367 11.1077 10.8318ZM9.35677 5.40391C9.5919 5.43892 10.7225 6.83966 10.9326 10.4466C10.9326 10.4466 9.48184 10.0964 9.16667 9.346C8.91153 8.73568 9.24671 7.92525 9.35677 5.40391ZM18.2616 7.00475L18.2765 7.01977L18.2115 7.01476C18.2315 7.00475 18.2465 7.00475 18.2616 7.00475ZM4.00391 12.0075C4.00391 11.3671 4.07896 10.7468 4.21904 10.1565C4.50918 10.3966 4.81935 10.6667 5.14953 10.9718C7.23564 12.9029 10.6275 14.4288 11.8631 13.013H11.8681C11.6431 13.3132 10.8276 14.1836 9.18167 13.8884L6.53027 17.8454C5.73157 17.0975 5.09516 16.1932 4.66056 15.1889C4.22597 14.1847 4.00246 13.1018 4.00391 12.0075Z" fill="white"/>
</g>
<defs>
<linearGradient id="paint0_linear_328_27514" x1="16.0031" y1="6.58216" x2="13.7136" y2="19.4204" gradientUnits="userSpaceOnUse">
<stop stop-color="#FF496A"/>
<stop offset="1" stop-color="#E42648"/>
</linearGradient>
<clipPath id="clip0_328_27514">
<rect width="24" height="24" fill="white"/>
</clipPath>
</defs>
</svg>
