<svg width="24" height="24" viewBox="0 0 24 24" fill="none" xmlns="http://www.w3.org/2000/svg">
<g clip-path="url(#clip0_328_24668)">
<path d="M24 0H0V24H24V0Z" fill="#F6931A"/>
<path d="M10.7457 5.06617C10.7934 5.07676 10.8411 5.07676 10.8938 5.06617C10.9151 5.06088 10.9257 5.04499 10.931 5.01851L11.2804 3.02783C11.2804 3.00665 11.2962 2.99605 11.3175 3.00135L13.2605 3.39314C13.2711 3.39314 13.2765 3.39843 13.2818 3.40903L13.2922 3.4355L13.2765 3.59433C13.1669 4.24584 13.0557 4.89704 12.9429 5.54797L12.9587 5.55854L14.0918 5.82327C14.1063 5.82706 14.1212 5.8276 14.1359 5.82485C14.1505 5.82211 14.1643 5.81613 14.1765 5.80739C14.2011 5.78948 14.218 5.76306 14.2241 5.73327L14.5682 3.73198C14.5735 3.7108 14.5842 3.69492 14.5999 3.67904C14.6076 3.67379 14.6162 3.67015 14.6255 3.66833C14.6345 3.66651 14.6438 3.66654 14.653 3.66845C15.267 3.77434 15.9023 3.92258 16.543 4.04965C16.5801 4.06023 16.5959 4.08141 16.5906 4.11846C16.4847 4.78027 16.3683 5.45266 16.2413 6.13563C16.2149 6.27859 16.2519 6.32093 16.3736 6.3739C16.8263 6.56257 17.2317 6.84875 17.5613 7.21206C17.8908 7.57535 18.136 8.00683 18.2796 8.47577C18.3749 8.83049 18.3537 9.15346 18.3484 9.52406C18.3185 9.98242 18.1812 10.4274 17.9477 10.8228C17.714 11.2183 17.3906 11.5533 17.0036 11.8006C16.5413 12.1089 16.029 12.3347 15.4895 12.4678C14.4518 12.7166 13.2499 12.8278 12.1964 12.6213C12.0004 12.5789 11.8098 12.6001 11.6192 12.5843C11.1679 12.5438 10.713 12.5987 10.2844 12.7455C9.85568 12.8925 9.46262 13.1279 9.13086 13.4366C8.56699 14.0073 8.16975 14.7214 7.98197 15.5014V15.5544C7.99256 15.5756 8.00844 15.5916 8.02433 15.5966L8.16727 15.639C9.61799 15.9144 11.4287 16.412 12.7629 16.5074C14.0918 16.5973 15.0553 15.279 14.5999 13.9289C14.5983 13.9227 14.598 13.9163 14.5989 13.9099C14.5997 13.9035 14.6019 13.8974 14.6053 13.8919L14.6212 13.876L14.637 13.8708C15.5107 13.8178 16.0823 13.606 16.8607 13.2619C16.9665 13.2089 17.0407 13.3095 17.1253 13.4101C17.5751 13.9849 17.7992 14.7042 17.7554 15.4326C17.7427 16.1224 17.515 16.7911 17.1041 17.3454C16.693 17.8997 16.1195 18.3119 15.463 18.5244C15.1082 18.6357 14.8436 18.694 14.6688 18.6994C14.4915 18.7065 14.3146 18.7241 14.1395 18.7521C14.1129 18.7521 14.0865 18.7681 14.0653 18.7893C14.0436 18.8109 14.0288 18.8385 14.0229 18.8687L13.6734 20.9335C13.6734 20.9548 13.6576 20.9705 13.6416 20.9864C13.6325 20.9929 13.6222 20.9972 13.6112 20.999C13.6001 21.0008 13.5888 21.0002 13.5782 20.9971L11.7092 20.6265C11.6952 20.6263 11.6819 20.6205 11.6722 20.6105C11.6649 20.5995 11.6612 20.5867 11.6615 20.5735L11.6775 20.3775C11.7853 19.7319 11.8911 19.086 11.9951 18.4398L11.9899 18.4186C11.9855 18.4123 11.9802 18.407 11.9739 18.4028C11.9678 18.3978 11.9604 18.394 11.9528 18.3921L10.8568 18.2068C10.8395 18.2031 10.8216 18.2031 10.8043 18.2068C10.7871 18.2104 10.7705 18.2178 10.7562 18.228C10.7298 18.2493 10.7085 18.281 10.7033 18.3234L10.375 20.2452C10.3644 20.3194 10.3222 20.3511 10.2533 20.3352L8.40023 19.9647C8.39058 19.9626 8.3814 19.9589 8.37321 19.9535C8.36503 19.9481 8.35803 19.941 8.35257 19.9328C8.34348 19.9148 8.34159 19.894 8.34729 19.8747L8.68084 17.9368C8.68516 17.9133 8.68143 17.8891 8.67025 17.868C8.66397 17.8574 8.65555 17.848 8.64554 17.8408C8.63553 17.8335 8.62411 17.8284 8.61201 17.8256L5.73715 17.254C5.66302 17.2433 5.63126 17.1851 5.65243 17.0951C5.79538 16.3379 5.99657 15.5916 6.24011 14.8662C6.48724 14.122 6.81013 13.4052 7.20369 12.7272C7.95549 11.4565 9.35322 10.8689 10.698 10.7417C10.9998 10.71 11.291 10.6729 11.598 10.6942C12.2704 10.747 12.9268 10.8158 13.5993 10.9005C13.7261 10.9121 13.8537 10.9121 13.9806 10.9005C14.907 10.8371 15.5319 10.0535 15.3572 9.06872C15.193 8.14751 14.3142 7.95692 13.4828 7.76102C12.9692 7.63925 12.4664 7.53337 11.9687 7.44336C11.8838 7.42747 11.8311 7.46453 11.8151 7.54925L11.5028 9.3864C11.4983 9.417 11.4833 9.4451 11.4604 9.46581C11.449 9.4765 11.4359 9.48479 11.4212 9.49026C11.4067 9.49573 11.3912 9.4982 11.3757 9.49758C10.5285 9.46052 9.6815 9.55058 8.87673 9.87881C8.7028 9.94957 8.52807 10.0184 8.35257 10.0852L8.33671 10.08L8.33141 10.0694V10.0535L8.83967 7.14686C8.89261 6.86626 8.78673 6.65448 8.54319 6.51155C8.28904 6.358 7.90785 6.32624 7.60608 6.2627C7.5981 6.26011 7.59073 6.25597 7.58437 6.25052C7.57801 6.24506 7.5728 6.2384 7.56902 6.23093C7.55977 6.21687 7.55603 6.19993 7.55842 6.18328L7.84961 4.48908V4.4732L7.8602 4.4679C7.86315 4.46556 7.86657 4.46388 7.87021 4.46297C7.87387 4.46206 7.87768 4.46194 7.88137 4.4626C8.83524 4.6596 9.78818 4.86079 10.7403 5.06617H10.7457Z" fill="white"/>
</g>
<defs>
<clipPath id="clip0_328_24668">
<rect width="24" height="24" fill="white"/>
</clipPath>
</defs>
</svg>
