<svg width="24" height="24" viewBox="0 0 24 24" fill="none" xmlns="http://www.w3.org/2000/svg">
<g clip-path="url(#clip0_328_23232)">
<path d="M24 0H0V24H24V0Z" fill="#EBA809"/>
<path fill-rule="evenodd" clip-rule="evenodd" d="M11.9914 18.75V17.3175H11.475V18.7299C11.6455 18.743 11.8179 18.75 11.9914 18.75ZM9.92493 18.425V17.3175H7.84198C8.46573 17.8064 9.17088 18.1812 9.92493 18.425ZM6.70199 16.183V15.5445H7.29298C7.29298 15.5445 8.99798 15.5331 8.99998 14.4999C8.99845 14.4167 8.99845 14.3334 8.99998 14.2499V9.24999C9.01498 8.97199 8.72498 8.59999 8.43898 8.54699C8.15449 8.48999 7.98249 8.45749 7.68098 8.45299H6.70199V7.81699C5.7594 9.00728 5.24762 10.4818 5.24998 12C5.24998 13.58 5.79249 15.033 6.70199 16.183ZM7.84498 6.68H9.99995V5.551C9.21904 5.79334 8.48879 6.17591 7.84498 6.68ZM11.4999 5.26851V6.68H11.9999V5.25C11.8319 5.25 11.665 5.25599 11.4999 5.26851ZM18.7499 12C18.7499 15.1975 16.5265 17.8759 13.5414 18.573V17.318H14.1439C16.338 17.318 17.925 15.0195 17.454 12.9915C17.2659 12.1795 16.4994 11.668 15.7259 11.4875C17.018 10.8031 17.161 8.69849 16.109 7.751C15.625 7.2435 15.023 6.96599 14.597 6.8215C14.245 6.7025 13.872 6.68 13.4999 6.68V5.412C16.5499 6.084 18.7499 8.77199 18.7499 12ZM20 12C20 16.4185 16.4185 19.9999 11.9999 19.9999C7.58148 19.9999 4 16.4185 4 12C4 7.58149 7.58148 4 11.9999 4C16.5 4 20 7.58149 20 12ZM11.9899 15.5471C11.816 15.5499 11.691 15.5525 11.4999 15.5655V12.5855C11.689 12.5885 11.782 12.588 11.975 12.5855L12.2119 12.5804C12.9559 12.566 13.706 12.5511 14.3585 12.939C15.0345 13.315 15.1434 14.6085 14.4745 15.0444C13.8074 15.5095 12.973 15.527 12.1745 15.543L12.0975 15.5445L11.9899 15.5471ZM11.4999 11.15H11.6635C12.415 11.1551 13.2035 11.161 13.8475 10.7351C14.471 10.3295 14.4335 9.29148 13.7875 8.9305C13.1904 8.57199 12.4895 8.57899 11.8125 8.58549H11.811C11.6735 8.58699 11.635 8.5875 11.4999 8.58549V11.15Z" fill="white"/>
</g>
<defs>
<clipPath id="clip0_328_23232">
<rect width="24" height="24" fill="white"/>
</clipPath>
</defs>
</svg>
