<svg width="24" height="24" viewBox="0 0 24 24" fill="none" xmlns="http://www.w3.org/2000/svg">
<g clip-path="url(#clip0_328_19614)">
<path d="M24 0H0V24H24V0Z" fill="black"/>
<path d="M9.77693 9.02291C9.47915 8.86735 8.23914 8.57401 7.65246 8.44512C7.65246 8.62291 7.63469 9.01847 7.55469 9.21402C8.26135 9.32514 9.25249 9.63624 9.66137 9.77847C9.70137 9.61848 9.77693 9.24513 9.77693 9.02291ZM9.77693 14.9786C9.47915 15.1342 8.23914 15.4274 7.65246 15.5563C7.65246 15.3786 7.63469 14.983 7.55469 14.7874C8.26135 14.6762 9.25249 14.3652 9.66137 14.2229C9.70137 14.383 9.77693 14.7563 9.77693 14.9786ZM16.8881 7.26289L13.7548 5.33398C13.6868 5.60226 13.5397 5.84386 13.3325 6.02732C14.3059 6.63178 16.3059 7.86735 16.5058 8.00068C16.5503 7.71179 16.7814 7.38733 16.8881 7.26289ZM16.8881 16.7385L13.7548 18.6674C13.6868 18.3992 13.5397 18.1576 13.3325 17.974C14.3059 17.3697 16.3059 16.134 16.5058 16.0008C16.5503 16.2896 16.7814 16.6141 16.8881 16.7385ZM11.5547 10.6541C11.5547 10.4763 11.6214 9.99628 11.657 9.77847C14.9592 11.5029 16.817 13.4541 17.3326 14.2141C17.1681 14.2585 16.7993 14.4141 16.6392 14.6674C14.7193 12.2852 12.017 10.8807 11.5547 10.6541Z" fill="white"/>
<path d="M11.5537 13.7917C11.5537 13.9695 11.6204 14.4495 11.656 14.6673C14.9582 12.9428 16.816 10.9917 17.3316 10.2316C17.1671 10.1873 16.7983 10.0317 16.6383 9.77832C14.7183 12.1606 12.016 13.565 11.5537 13.7917Z" fill="white"/>
<path d="M12.2214 6.22225C12.835 6.22225 13.3325 5.72478 13.3325 5.11113C13.3325 4.49747 12.835 4 12.2214 4C11.6078 4 11.1104 4.49747 11.1104 5.11113C11.1104 5.72478 11.6078 6.22225 12.2214 6.22225Z" fill="white"/>
<path d="M12.2219 19.9995C12.8355 19.9995 13.333 19.5021 13.333 18.8885C13.333 18.2748 12.8355 17.7773 12.2219 17.7773C11.6083 17.7773 11.1108 18.2748 11.1108 18.8885C11.1108 19.5021 11.6083 19.9995 12.2219 19.9995Z" fill="white"/>
<path d="M5.99978 16.4458C6.61345 16.4458 7.11091 15.9485 7.11091 15.3348C7.11091 14.7212 6.61345 14.2236 5.99978 14.2236C5.38613 14.2236 4.88867 14.7212 4.88867 15.3348C4.88867 15.9485 5.38613 16.4458 5.99978 16.4458Z" fill="white"/>
<path d="M5.99978 9.77887C6.61345 9.77887 7.11091 9.28142 7.11091 8.66775C7.11091 8.0541 6.61345 7.55664 5.99978 7.55664C5.38613 7.55664 4.88867 8.0541 4.88867 8.66775C4.88867 9.28142 5.38613 9.77887 5.99978 9.77887Z" fill="white"/>
<path d="M17.9998 9.77887C18.6135 9.77887 19.111 9.28142 19.111 8.66775C19.111 8.0541 18.6135 7.55664 17.9998 7.55664C17.3862 7.55664 16.8887 8.0541 16.8887 8.66775C16.8887 9.28142 17.3862 9.77887 17.9998 9.77887Z" fill="white"/>
<path d="M17.9998 16.4458C18.6135 16.4458 19.111 15.9485 19.111 15.3348C19.111 14.7212 18.6135 14.2236 17.9998 14.2236C17.3862 14.2236 16.8887 14.7212 16.8887 15.3348C16.8887 15.9485 17.3862 16.4458 17.9998 16.4458Z" fill="white"/>
<path d="M9.77734 11.9926C9.77734 14.726 10.4351 16.9927 10.7595 17.7793C10.9373 17.6637 11.3507 17.4327 11.5551 17.4327C10.8218 15.4815 10.6663 13.0059 10.6663 12.0014C10.6663 10.9971 10.8218 8.52144 11.5551 6.5703C11.3507 6.5703 10.9418 6.33919 10.7595 6.22363C10.4351 7.0103 9.78179 9.26366 9.77734 11.9926Z" fill="white"/>
</g>
<defs>
<clipPath id="clip0_328_19614">
<rect width="24" height="24" fill="white"/>
</clipPath>
</defs>
</svg>
