<svg width="24" height="24" viewBox="0 0 24 24" fill="none" xmlns="http://www.w3.org/2000/svg">
<g clip-path="url(#clip0_328_19490)">
<path d="M24 0H0V24H24V0Z" fill="url(#paint0_linear_328_19490)"/>
<path d="M4 7.19999C4 6.3513 4.33714 5.53737 4.93725 4.93726C5.53737 4.33714 6.3513 4 7.19998 4H8.99998V7.49999H10.5V4H16.7999C17.6486 4 18.4626 4.33714 19.0627 4.93726C19.6628 5.53737 20 6.3513 20 7.19999V16.8C20 17.6486 19.6628 18.4626 19.0627 19.0626C18.4626 19.6628 17.6486 19.9999 16.7999 19.9999H7.19998C6.3513 19.9999 5.53737 19.6628 4.93725 19.0626C4.33714 18.4626 4 17.6486 4 16.8V10.5H13.101C13.422 10.5 13.4999 10.71 13.4999 11.031V13C13.4999 13.3215 13.321 13.5 13 13.5H10.981C10.6599 13.5 10.5 13.2475 10.5 12.926V11.5H8.99998V13.1555C8.99998 14.3614 9.77746 15 10.981 15H13.101C14.305 15 14.9999 14.3614 14.9999 13.1555V11.031C14.9999 9.82547 14.3045 8.99999 13.101 8.99999H4V7.19999Z" fill="white"/>
</g>
<defs>
<linearGradient id="paint0_linear_328_19490" x1="18.9599" y1="18.96" x2="6.16" y2="6.16" gradientUnits="userSpaceOnUse">
<stop offset="0.159" stop-color="#003CDA"/>
<stop offset="1" stop-color="#33DFCC"/>
</linearGradient>
<clipPath id="clip0_328_19490">
<rect width="24" height="24" fill="white"/>
</clipPath>
</defs>
</svg>
