<svg width="24" height="24" viewBox="0 0 24 24" fill="none" xmlns="http://www.w3.org/2000/svg">
<g clip-path="url(#clip0_328_19683)">
<path d="M24 0H0V24H24V0Z" fill="#AB60D4"/>
<path fill-rule="evenodd" clip-rule="evenodd" d="M21 12C21 16.9706 16.9706 21 12 21C11.2449 21 10.5115 20.907 9.81064 20.7318C12.5073 16.9816 12.4237 14.5161 12.3918 13.5785L12.3866 13.3656C12.9001 13.8686 13.006 14.5144 12.99 14.7792C13.1999 14.9823 13.4118 15.1835 13.6253 15.3828C13.673 15.4252 13.71 15.2398 13.7259 15.1444C13.7153 15.2132 13.7259 15.3932 13.8423 15.5415C14.1388 15.9703 14.4406 16.6692 14.5571 16.9656L14.7424 16.7963V17.0451C14.9437 17.3998 15.3617 18.1779 15.4359 18.448C15.4746 18.6242 15.5504 18.7903 15.6583 18.9351L15.51 19.0727C15.5524 19.3481 15.6264 19.8879 15.6477 20.2268C15.8752 20.1263 16.0976 20.0152 16.3094 19.8986C16.7436 19.4539 17.1088 18.8875 17.2677 18.5752L17.4106 18.7075C17.5006 18.6016 17.6806 18.2309 17.6806 17.5956C17.6806 16.9551 17.4053 16.3409 17.2677 16.1132H17.4106C17.4213 15.2345 16.7488 14.4775 16.4153 14.2022H16.606C15.7748 12.8363 13.8691 12.9104 13.3237 12.9316L13.2176 12.9369C13.5936 12.7039 14.896 12.5345 15.4994 12.4815L15.7906 12.4286H17.2094L17.4637 12.2539L17.5059 12.3598H19.0729L19.1894 12.4286H19.9837C20.2324 12.1586 20.7618 11.5656 20.9683 11.2479L20.967 11.224C20.9889 11.4797 21 11.7385 21 12ZM20.9597 11.1439C20.3775 10.4791 19.5382 10.1254 19.1841 10.0303V9.81862C17.9824 9.24153 16.966 9.27329 16.6113 9.358V9.1939C15.3988 9.1939 14.6152 9.6862 14.3717 9.93506C14.3612 9.89805 14.3294 9.80805 14.266 9.76564C13.8637 9.88747 13.2547 10.5228 13.0006 10.8245C13.0324 10.7133 13.0906 10.3903 13.0906 10.0145C13.0906 9.63864 12.9424 9.42153 12.8683 9.358L12.8737 9.35051C12.9178 9.2899 13.0006 9.17627 13.0006 9.13565C12.8788 8.41566 12.3017 7.54742 12.0264 7.19801H11.8517C11.7937 6.59449 10.5971 5.75802 10.0041 5.41918V5.63095C9.713 5.45625 8.90298 5.11743 7.95532 5.11743C6.9172 5.1412 5.91869 5.51993 5.12601 6.19035C6.77692 4.23897 9.24377 3 12 3C16.6818 3 20.5286 6.57482 20.9597 11.1439ZM5.12002 6.19745C3.79728 7.76421 3 9.78893 3 12C3 15.3818 4.86523 18.3279 7.62301 19.8659C9.6274 18.2178 11.0413 15.9623 11.6506 13.4398C11.6506 13.3075 11.7566 13.1645 11.8147 13.1062C11.5394 13.0798 10.7771 13.2915 9.92471 14.3239L9.81885 14.4563C9.74476 14.3715 9.60183 14.1545 9.61763 13.9162C9.44234 14.1399 9.32585 14.4037 9.27885 14.684C9.12002 14.7898 8.50591 15.2451 8.39473 15.5151C8.29719 15.3208 8.21573 15.1191 8.15122 14.9115C8.12474 15.0545 8.08238 15.3881 8.08768 15.5839L7.05532 16.2721C7.00618 16.0912 6.99179 15.9026 7.01298 15.7163C6.90708 15.8751 6.86474 16.2139 6.85944 16.3621C6.51003 16.4998 5.75298 16.8545 5.49885 17.1774C5.26628 16.839 5.15099 16.4335 5.17062 16.0232C5.17062 15.4409 5.24473 14.4881 6.46768 13.1062C7.02091 12.4817 7.74086 12.0281 8.54298 11.7986C8.54298 11.7032 8.58533 11.5444 8.6065 11.4809L8.15122 11.7986L7.23533 11.6822L6.7165 12.0528L6.16062 11.9838L5.68414 12.4075L4.61473 12.4605L4.42945 12.5768L3.52415 12.5027C3.90532 11.5551 5.21826 9.66507 7.44179 9.66507C8.33207 9.65952 9.2089 9.88241 9.9885 10.3125C10.7679 10.7425 11.4241 11.3654 11.8941 12.1216C11.7263 11.6178 11.495 11.1376 11.2059 10.6921L11.349 10.4856H11.1266C10.9011 9.97568 10.5287 9.54438 10.057 9.24683V8.84976L9.92471 8.96625C9.43165 8.53377 8.86744 8.18987 8.25709 7.94976V7.54742L8.06649 7.70625C7.72398 7.45431 7.3157 7.3072 6.89122 7.28272C6.89122 7.08643 6.82063 6.73389 6.78771 6.56934L6.78532 6.55742L6.65298 6.7533C6.21974 6.39961 5.67922 6.20363 5.12002 6.19745Z" fill="white"/>
</g>
<defs>
<clipPath id="clip0_328_19683">
<rect width="24" height="24" fill="white"/>
</clipPath>
</defs>
</svg>
