<svg width="24" height="24" viewBox="0 0 24 24" fill="none" xmlns="http://www.w3.org/2000/svg">
<g clip-path="url(#clip0_328_27525)">
<path d="M24 0H0V24H24V0Z" fill="#522D0B"/>
<path fill-rule="evenodd" clip-rule="evenodd" d="M8.56873 3C7.08935 3 6.09373 4.34999 6.37498 5.81249L6.93749 9.18749C4.72123 10.1437 3 11.8875 3 13.9687V15.2625C3 17.0062 4.13624 18.4686 5.72811 19.4249C7.3706 20.4374 9.52498 20.9999 11.9719 20.9999C14.4188 20.9999 16.5731 20.4374 18.2156 19.4249C19.8636 18.4686 21 17.0062 21 15.2625V13.9687C21 11.8875 19.2786 10.2 17.0625 9.24374L17.6249 5.81249C17.85 4.34999 16.7981 3 15.3187 3C14.0137 3 13.125 4.06875 13.125 5.36249V8.38874C12.6806 8.33249 12.3094 8.33249 11.9719 8.33249H10.6894L10.875 5.36249C10.875 4.06875 9.86801 3 8.56873 3ZM8.90596 15.3749C9.3785 15.3749 9.74967 14.7281 9.74967 13.9686C9.74967 13.2092 9.3785 12.5624 8.90596 12.5624C8.43346 12.5624 8.06221 13.2092 8.06221 13.9686C8.06221 14.7281 8.43346 15.3749 8.90596 15.3749ZM15.0934 15.3749C15.5659 15.3749 15.9372 14.7281 15.9372 13.9686C15.9372 13.2092 15.5659 12.5624 15.0934 12.5624C14.6209 12.5624 14.2498 13.2092 14.2498 13.9686C14.2498 14.7281 14.6209 15.3749 15.0934 15.3749Z" fill="white"/>
</g>
<defs>
<clipPath id="clip0_328_27525">
<rect width="24" height="24" fill="white"/>
</clipPath>
</defs>
</svg>
