<svg width="24" height="24" viewBox="0 0 24 24" fill="none" xmlns="http://www.w3.org/2000/svg">
<g clip-path="url(#clip0_328_21024)">
<path d="M24 0H0V24H24V0Z" fill="black"/>
<path d="M19 11.4333C19.1266 11.1001 19.5266 11 19.8533 11H20V11.6666C19.8134 11.6666 19.6234 11.6601 19.4467 11.7166C19.3234 11.7566 19.2134 11.8266 19.13 11.9233C18.9766 12.1233 19.0133 12.26 19 12.4433V14.3333H18V11H19V11.4333ZM8.45999 13.4801C7.84666 14.0567 7.32 14.3333 6.45 14.3333C4.99999 14.3333 4 13.3633 4 11.9933C4 10.59 5.13333 9.66666 6.46333 9.66666C7.23666 9.66666 7.97333 9.99333 8.48 10.5567L7.85999 11.3366C7.43999 10.9067 6.98333 10.6666 6.44333 10.6666C5.54333 10.6666 4.96333 11.25 5 11.9933C5.03333 12.7366 5.54666 13.3333 6.46333 13.3333C7.03666 13.3333 7.42333 13.11 7.86333 12.69L8.45999 13.4801ZM12.1266 13.6033C11.76 14.1033 11.2767 14.3266 10.5567 14.3266C9.46666 14.3266 8.66666 13.6766 8.66666 12.65C8.66666 11.6267 9.44333 11 10.5433 11C11.6267 11 12.3333 11.7233 12.3333 12.65V13H9.66666C9.74999 13.49 10.0667 13.6667 10.5567 13.6667C10.9234 13.6667 11.2234 13.5566 11.4566 13.3333L12.13 13.6L12.1266 13.6033ZM11.3333 12.3333C11.3333 12.0467 11.0333 11.6666 10.51 11.6666C9.98999 11.6666 9.66666 12.0666 9.66666 12.3333H11.3333ZM12.6666 9.66666H13.6666V14.3333H12.6666V9.66666ZM17.45 13.6C17.0834 14.1033 16.6 14.3266 15.8767 14.3266C14.79 14.3266 14 13.6667 14 12.5766C14 11.68 14.7766 11 15.8767 11C16.96 11 17.6666 11.77 17.6666 12.8333V13H15C15.0334 13.42 15.3867 13.6667 15.8767 13.6667C16.219 13.6796 16.5533 13.5602 16.81 13.3333L17.45 13.6ZM16.6666 12.3333C16.6666 12.0733 16.3834 11.6666 15.8767 11.6666C15.3733 11.6666 15 12.0733 15 12.3333H16.6666Z" fill="white"/>
</g>
<defs>
<clipPath id="clip0_328_21024">
<rect width="24" height="24" fill="white"/>
</clipPath>
</defs>
</svg>
