<svg width="24" height="24" viewBox="0 0 24 24" fill="none" xmlns="http://www.w3.org/2000/svg">
<g clip-path="url(#clip0_328_21040)">
<path d="M24 0H0V24H24V0Z" fill="#68FFD8"/>
<path d="M19.5004 11.5005C19.5004 15.5357 16.1403 18.6159 12.0001 18.6159C11.61 18.6159 11.225 18.5859 10.85 18.5308C9.2849 19.9409 6.63975 20.0509 5.43968 19.9859L6.55974 16.3357C5.24325 14.9958 4.50375 13.1938 4.49963 11.3154C4.49963 7.27018 7.85981 4 12.0001 4C15.6502 4 18.6854 6.53514 19.3604 9.89535C18.5304 9.78031 17.4503 9.4253 17.1603 8.56526C16.9354 9.06528 16.0903 10.0054 14.4251 9.96034C14.6751 9.55032 14.8102 9.07528 14.8102 8.56526C14.8056 8.2008 14.7293 7.84083 14.5855 7.50587C14.4419 7.17093 14.2337 6.86757 13.9727 6.61312C13.7117 6.35866 13.4032 6.1581 13.0647 6.02289C12.7263 5.88769 12.3644 5.82047 12.0001 5.82511C11.6352 5.81982 11.2728 5.88654 10.9338 6.02144C10.5948 6.15635 10.2857 6.35681 10.0241 6.61132C9.76265 6.86584 9.55396 7.16943 9.40994 7.50471C9.26593 7.83999 9.18946 8.20038 9.18489 8.56526C9.18989 10.0804 10.45 11.5005 12.0001 11.5005H19.5004Z" fill="white"/>
<path d="M16.9696 11.5007C16.0994 15.6709 12.3192 18.6161 7.77909 18.6161C7.13905 18.6161 6.51902 18.556 5.91398 18.4361L5.43396 19.9862C6.63902 20.0512 9.28417 19.9362 10.8443 18.531C11.2243 18.5862 11.6093 18.6161 11.9993 18.6161C16.1394 18.6161 19.4997 15.5359 19.4997 11.5007H16.9696ZM17.1545 8.5655C17.1446 8.5955 17.1696 8.5405 17.1545 8.5655C17.4496 9.42555 18.5297 9.78056 19.3546 9.8956C19.1541 8.91938 18.756 7.99448 18.1851 7.17763C17.6141 6.36077 16.8823 5.66919 16.0345 5.14532C16.6245 6.20537 17.0345 7.31043 17.1545 8.5655Z" fill="white"/>
</g>
<defs>
<clipPath id="clip0_328_21040">
<rect width="24" height="24" fill="white"/>
</clipPath>
</defs>
</svg>
