<svg width="24" height="24" viewBox="0 0 24 24" fill="none" xmlns="http://www.w3.org/2000/svg">
<g clip-path="url(#clip0_328_21055)">
<path d="M24 0H0V24H24V0Z" fill="black"/>
<path d="M3.9732 17.7749C2.91395 15.5355 2.7116 12.9856 3.40435 10.6072C4.09713 8.22867 5.63702 6.1863 7.73311 4.8659C9.8292 3.5455 12.3364 3.03855 14.7808 3.44081C17.2252 3.84306 19.4376 5.12667 21 7.04912L20.1081 7.79041C18.726 6.08268 16.7657 4.94106 14.5983 4.5818C12.4309 4.22253 10.207 4.67057 8.34781 5.84105C6.4886 7.01152 5.12319 8.82317 4.51016 10.9329C3.89712 13.0426 4.07906 15.3038 5.02147 17.2883L3.9732 17.7749ZM18.7761 8.90817C18.0145 7.96596 17.0284 7.22999 15.9086 6.7677C14.7885 6.30542 13.5706 6.13161 12.3661 6.26222C11.1614 6.39281 10.009 6.82364 9.01418 7.51522C8.01937 8.2068 7.21402 9.13698 6.67198 10.2205C6.12992 11.3042 5.86849 12.5064 5.91166 13.7172C5.95482 14.9281 6.30118 16.1088 6.91901 17.1508C7.53684 18.1932 8.40637 19.0637 9.44791 19.6825C10.4895 20.3016 11.6697 20.6494 12.8804 20.6938V19.5354C11.8648 19.4912 10.8765 19.1929 10.0057 18.6681C9.13511 18.1431 8.40994 17.4085 7.89659 16.5309C7.38323 15.6534 7.09806 14.6612 7.06717 13.6449C7.0363 12.6289 7.26066 11.6211 7.71977 10.714C8.17889 9.80696 8.85808 9.0295 9.69526 8.45269C10.5323 7.8759 11.501 7.51819 12.512 7.41228C13.523 7.3064 14.5445 7.45567 15.4832 7.84651C16.4217 8.23733 17.2472 8.85722 17.8842 9.64948L18.7761 8.90817ZM16.5522 10.7615C15.994 10.0506 15.2276 9.53209 14.3601 9.27807C13.4929 9.02404 12.5678 9.0473 11.7143 9.34457C10.8608 9.64182 10.1215 10.1982 9.59957 10.9361C9.07767 11.674 8.79926 12.5565 8.80327 13.4602C8.80383 14.3259 9.06303 15.1716 9.54761 15.8889C10.0322 16.6062 10.7201 17.1624 11.5229 17.4861C12.3258 17.8098 13.2071 17.8861 14.0536 17.7054C14.9001 17.5246 15.6736 17.095 16.2743 16.4718L15.5445 15.5626C15.119 16.054 14.5531 16.4032 13.923 16.563C13.2927 16.7229 12.6289 16.6858 12.0205 16.4567C11.4121 16.2277 10.8886 15.8175 10.5205 15.2818C10.1524 14.746 9.95734 14.1104 9.96161 13.4602C9.96105 12.7956 10.1685 12.1474 10.5547 11.6064C10.941 11.0657 11.4868 10.6591 12.1158 10.4438C12.7446 10.2287 13.425 10.2158 14.0617 10.4066C14.6984 10.5975 15.2594 10.9828 15.6662 11.5085L16.5522 10.7673V10.7615Z" fill="white"/>
</g>
<defs>
<clipPath id="clip0_328_21055">
<rect width="24" height="24" fill="white"/>
</clipPath>
</defs>
</svg>
