<svg width="24" height="24" viewBox="0 0 24 24" fill="none" xmlns="http://www.w3.org/2000/svg">
<g clip-path="url(#clip0_328_20088)">
<path d="M24 0H0V24H24V0Z" fill="white"/>
<path d="M5.98985 6.64182L10.3977 4.40261C10.9957 4.09713 11.6662 3.96205 12.3358 4.01216C13.1544 4.07802 15.3418 7.78494 15.3418 7.78494C15.2486 7.63458 15.1182 7.51067 14.9634 7.42502C14.8085 7.33936 14.6343 7.29484 14.4574 7.29569H5.53824C5.0537 7.29569 4.59739 7.76612 4.42334 7.9684C4.76675 7.31451 5.30774 6.98992 5.98985 6.64182Z" fill="url(#paint0_linear_328_20088)"/>
<path d="M15.342 8.00187L16.3863 9.68596C16.5739 9.97159 16.8314 10.2046 17.1344 10.3627C17.4374 10.5208 17.7758 10.5987 18.1173 10.5892C19.063 10.5892 19.9661 9.86941 19.9991 9.00856C20.0038 8.85803 19.985 8.70279 19.9332 8.54755C19.6604 7.7149 19.0489 7.11277 18.1221 6.64234L13.7142 4.40314C13.2851 4.18336 12.8166 4.05065 12.3359 4.0127C13.1545 4.07856 15.3372 7.99715 15.342 8.00656V8.00187Z" fill="url(#paint1_linear_328_20088)"/>
<path d="M4.00471 9.65172C4.00471 9.05428 4.15524 8.47567 4.42338 7.96761C4.59273 7.76534 5.05374 7.29492 5.53827 7.29492H9.93195C9.58859 7.29492 9.26871 7.46426 9.07584 7.74651L6.82723 11.2606C6.75974 11.3612 6.70595 11.4703 6.66728 11.5851V11.5946C6.66728 11.5946 4.80442 14.577 4.6633 14.8216C4.38104 15.325 4.39515 15.7624 4.39515 15.7624C4.13559 15.2541 4.00018 14.6915 4 14.1207V9.65172H4.00471Z" fill="url(#paint2_linear_328_20088)"/>
<path d="M4.66414 14.8225C4.80526 14.5778 6.66342 11.5954 6.66342 11.5954V11.5859C6.527 11.9906 6.58345 12.4422 6.83277 12.7997L9.07668 16.0409C9.07668 16.0409 10.1916 17.9601 11.029 19.2115C11.2446 19.5687 11.5718 19.8449 11.9603 19.9971C11.4169 19.9832 10.8833 19.8482 10.3986 19.6019L5.99073 17.3581C5.30357 17.0089 4.74513 16.4504 4.396 15.7633L4.40071 15.7727C4.40071 15.7727 4.38189 15.3305 4.66884 14.8272L4.66414 14.8225Z" fill="url(#paint3_linear_328_20088)"/>
<path d="M11.0285 19.212C10.1912 17.9607 9.19385 16.2578 9.19385 16.2578C9.38672 16.54 9.7113 16.7047 10.05 16.7047H19.3408C18.9893 17.0664 18.5748 17.3614 18.1177 17.575L13.7098 19.5977C13.1595 19.8801 12.5574 20.0117 11.9552 19.9976C11.5667 19.8453 11.2393 19.5692 11.0237 19.212H11.0285Z" fill="url(#paint4_linear_328_20088)"/>
<path d="M19.3413 16.704C19.6706 16.3372 19.9999 15.7632 19.9999 15.2928C19.9999 14.352 19.3413 13.4111 18.1182 13.4111C17.1774 13.4111 16.6835 13.8815 16.3071 14.479L15.3427 16.2196C15.1546 16.5207 14.8253 16.704 14.4678 16.704H19.3413Z" fill="url(#paint5_linear_328_20088)"/>
</g>
<defs>
<linearGradient id="paint0_linear_328_20088" x1="14.655" y1="7.06519" x2="5.03018" y2="7.06519" gradientUnits="userSpaceOnUse">
<stop stop-color="#A53523"/>
<stop offset="1" stop-color="#DD9D1A"/>
</linearGradient>
<linearGradient id="paint1_linear_328_20088" x1="13.385" y1="4.01741" x2="19.2793" y2="9.61069" gradientUnits="userSpaceOnUse">
<stop stop-color="#DB991A"/>
<stop offset="0.27" stop-color="#D48D1C"/>
<stop offset="1" stop-color="#9C2425"/>
</linearGradient>
<linearGradient id="paint2_linear_328_20088" x1="6.96836" y1="7.51131" x2="6.96836" y2="15.7718" gradientUnits="userSpaceOnUse">
<stop stop-color="#A12E24"/>
<stop offset="1" stop-color="#E4AB19"/>
</linearGradient>
<linearGradient id="paint3_linear_328_20088" x1="4.4054" y1="15.7727" x2="10.7514" y2="19.6255" gradientUnits="userSpaceOnUse">
<stop stop-color="#971C26"/>
<stop offset="1" stop-color="#DEA01A"/>
</linearGradient>
<linearGradient id="paint4_linear_328_20088" x1="18.9926" y1="16.9257" x2="8.61052" y2="16.9257" gradientUnits="userSpaceOnUse">
<stop stop-color="#E3A919"/>
<stop offset="1" stop-color="#9B2225"/>
</linearGradient>
<linearGradient id="paint5_linear_328_20088" x1="17.2009" y1="13.5194" x2="17.2009" y2="16.4877" gradientUnits="userSpaceOnUse">
<stop stop-color="#E1A419"/>
<stop offset="1" stop-color="#971C26"/>
</linearGradient>
<clipPath id="clip0_328_20088">
<rect width="24" height="24" fill="white"/>
</clipPath>
</defs>
</svg>
