<svg width="24" height="24" viewBox="0 0 24 24" fill="none" xmlns="http://www.w3.org/2000/svg">
<g clip-path="url(#clip0_328_20088)">
<path d="M24 0H0V24H24V0Z" fill="white"/>
<path d="M5.23866 5.97158L10.1975 3.45245C10.8703 3.10878 11.6246 2.95682 12.3779 3.01319C13.2988 3.08728 15.7597 7.2576 15.7597 7.2576C15.6548 7.08845 15.5081 6.94905 15.334 6.85269C15.1597 6.75632 14.9637 6.70624 14.7647 6.70719H4.73059C4.18548 6.70719 3.67213 7.23643 3.47632 7.464C3.86266 6.72836 4.47128 6.3632 5.23866 5.97158Z" fill="url(#paint0_linear_328_20088)"/>
<path d="M15.7598 7.50177L16.9347 9.39638C17.1457 9.71773 17.4354 9.97986 17.7763 10.1577C18.1172 10.3356 18.4979 10.4232 18.8821 10.4125C19.946 10.4125 20.962 9.60277 20.9991 8.6343C21.0044 8.46496 20.9832 8.29031 20.925 8.11566C20.6181 7.17892 19.9301 6.50152 18.8875 5.97228L13.9285 3.45316C13.4458 3.20591 12.9187 3.05661 12.3779 3.01392C13.2989 3.08801 15.7544 7.49646 15.7598 7.50704V7.50177Z" fill="url(#paint1_linear_328_20088)"/>
<path d="M3.0053 9.35772C3.0053 8.68559 3.17465 8.03465 3.47631 7.46308C3.66683 7.23553 4.18547 6.7063 4.73057 6.7063H9.6735C9.28721 6.7063 8.92735 6.89681 8.71036 7.21434L6.18066 11.1677C6.10473 11.2809 6.04422 11.4036 6.00071 11.5328V11.5435C6.00071 11.5435 3.90498 14.8987 3.74622 15.1739C3.42867 15.7402 3.44455 16.2323 3.44455 16.2323C3.15254 15.6604 3.0002 15.0275 3 14.3854V9.35772H3.0053Z" fill="url(#paint2_linear_328_20088)"/>
<path d="M3.74722 15.1751C3.90598 14.8998 5.99642 11.5446 5.99642 11.5446V11.5339C5.84295 11.9892 5.90646 12.4973 6.18694 12.8995L8.71136 16.5458C8.71136 16.5458 9.96566 18.705 10.9077 20.1128C11.1503 20.5147 11.5184 20.8254 11.9555 20.9966C11.3441 20.981 10.7438 20.8291 10.1985 20.552L5.23964 18.0277C4.46658 17.6349 3.83833 17.0065 3.44556 16.2335L3.45086 16.2441C3.45086 16.2441 3.42968 15.7466 3.7525 15.1804L3.74722 15.1751Z" fill="url(#paint3_linear_328_20088)"/>
<path d="M10.907 20.1133C9.96505 18.7056 8.84302 16.7898 8.84302 16.7898C9.06 17.1073 9.42515 17.2926 9.80619 17.2926H20.2584C19.863 17.6995 19.3967 18.0314 18.8824 18.2717L13.9235 20.5472C13.3044 20.8649 12.627 21.013 11.9496 20.9971C11.5125 20.8258 11.1442 20.5151 10.9016 20.1133H10.907Z" fill="url(#paint4_linear_328_20088)"/>
<path d="M20.2591 17.2917C20.6296 16.879 21 16.2333 21 15.7041C21 14.6457 20.2591 13.5872 18.8831 13.5872C17.8247 13.5872 17.269 14.1164 16.8456 14.7886L15.7606 16.7467C15.549 17.0855 15.1786 17.2917 14.7764 17.2917H20.2591Z" fill="url(#paint5_linear_328_20088)"/>
</g>
<defs>
<linearGradient id="paint0_linear_328_20088" x1="14.987" y1="6.44788" x2="4.15902" y2="6.44788" gradientUnits="userSpaceOnUse">
<stop stop-color="#A53523"/>
<stop offset="1" stop-color="#DD9D1A"/>
</linearGradient>
<linearGradient id="paint1_linear_328_20088" x1="13.5582" y1="3.01921" x2="20.1893" y2="9.31171" gradientUnits="userSpaceOnUse">
<stop stop-color="#DB991A"/>
<stop offset="0.27" stop-color="#D48D1C"/>
<stop offset="1" stop-color="#9C2425"/>
</linearGradient>
<linearGradient id="paint2_linear_328_20088" x1="6.33943" y1="6.94974" x2="6.33943" y2="16.2429" gradientUnits="userSpaceOnUse">
<stop stop-color="#A12E24"/>
<stop offset="1" stop-color="#E4AB19"/>
</linearGradient>
<linearGradient id="paint3_linear_328_20088" x1="3.45613" y1="16.2441" x2="10.5954" y2="20.5786" gradientUnits="userSpaceOnUse">
<stop stop-color="#971C26"/>
<stop offset="1" stop-color="#DEA01A"/>
</linearGradient>
<linearGradient id="paint4_linear_328_20088" x1="19.8667" y1="17.5412" x2="8.18677" y2="17.5412" gradientUnits="userSpaceOnUse">
<stop stop-color="#E3A919"/>
<stop offset="1" stop-color="#9B2225"/>
</linearGradient>
<linearGradient id="paint5_linear_328_20088" x1="17.8511" y1="13.709" x2="17.8511" y2="17.0484" gradientUnits="userSpaceOnUse">
<stop stop-color="#E1A419"/>
<stop offset="1" stop-color="#971C26"/>
</linearGradient>
<clipPath id="clip0_328_20088">
<rect width="24" height="24" fill="white"/>
</clipPath>
</defs>
</svg>
