<svg width="24" height="24" viewBox="0 0 24 24" fill="none" xmlns="http://www.w3.org/2000/svg">
<g clip-path="url(#clip0_328_27700)">
<path d="M24 0H0V24H24V0Z" fill="white"/>
<path d="M20.9971 11.9997C20.9971 15.1549 19.3717 17.9344 16.9101 19.5385C16.7937 19.6179 16.5394 19.4326 16.4177 19.5014C16.3118 19.5597 16.296 19.7025 16.1847 19.7609C16.0894 19.8137 15.9094 19.7609 15.8141 19.8137C15.7136 19.8561 15.7294 20.1897 15.6288 20.2374C14.1738 20.8778 12.5748 21.1214 10.9949 20.9434C9.415 20.7653 7.91046 20.1718 6.63439 19.2235C5.3583 18.2751 4.35623 17.0056 3.73014 15.5442C3.10404 14.0827 2.87626 12.4815 3.07 10.9035C3.26371 9.32534 3.87202 7.82675 4.83301 6.56015C5.79399 5.29353 7.07338 4.30409 8.54096 3.69249C10.0085 3.08091 11.6119 2.86902 13.188 3.07837C14.7642 3.28771 16.2566 3.91083 17.5137 4.88433C17.6565 5.00081 17.5771 5.44021 17.7148 5.56197C17.8524 5.68374 18.2125 5.48786 18.3501 5.62021C19.986 7.2508 20.9971 9.5061 20.9971 11.9997Z" fill="#C48635"/>
<path d="M20.4661 11.9999C20.4661 14.9594 18.952 17.5588 16.6543 19.0782C16.5484 19.1469 16.3368 18.8558 16.2308 18.9194C16.1144 18.9934 16.0561 19.3322 15.9344 19.3958C15.8127 19.4645 15.4897 19.3428 15.368 19.3958C15.2567 19.4488 15.3733 19.7663 15.262 19.8194C13.4015 20.5979 11.324 20.687 9.4035 20.0707C7.48301 19.4543 5.84548 18.1728 4.78552 16.4569C3.72553 14.7408 3.31267 12.703 3.62118 10.7097C3.92969 8.71641 4.93934 6.89867 6.4685 5.58342C6.53202 5.52518 6.69614 5.63635 6.76497 5.58342C6.84438 5.51988 6.8285 5.28694 6.90792 5.22871C8.32674 4.1593 10.0844 3.5293 11.9956 3.5293C13.9385 3.5293 15.7331 4.18577 17.1627 5.28694C17.3161 5.40341 17.1944 5.86931 17.3427 5.99634C17.4803 6.11812 17.888 5.91165 18.0204 6.0493C19.589 7.63235 20.468 9.77131 20.4661 11.9999Z" fill="#FFE35A"/>
<path d="M4.79733 15.5042C5.1044 16.2401 5.21029 16.3459 5.22087 16.3037C5.2844 16.2401 5.04086 15.5042 5.00381 15.2819C4.96146 15.0648 4.58558 12.8253 4.45852 12.3859C4.35263 12.0366 4.32087 11.2742 4.31558 10.9406C4.27852 10.9196 4.18322 10.9459 4.11969 11.1842C4.04558 11.4807 4.13559 13.0372 4.19909 13.4873C4.26263 13.9371 4.41086 14.583 4.79733 15.4988V15.5042Z" fill="#FFF188"/>
<path d="M14.3098 3.84567C15.358 4.14215 16.3216 4.63979 17.1633 5.28568C17.2374 5.34391 17.248 5.49744 17.2533 5.64039V5.68273C12.5786 3.19978 8.93094 4.39098 7.71328 5.31214C7.39564 5.53979 7.21034 5.85215 7.08328 6.07979C7.00387 6.22802 6.94034 6.33392 6.87152 6.36567C6.83975 6.36567 6.79741 6.32862 6.74975 6.28625C6.67034 6.21744 6.58034 6.13273 6.48505 6.18568C5.51621 6.71509 4.47857 8.45156 3.81152 9.80147C4.25975 8.15061 5.19735 6.67406 6.50094 5.56626H6.51152C6.55387 5.57686 6.59622 5.58744 6.63329 5.58215C6.68622 5.59802 6.73917 5.60861 6.76564 5.58215C6.80799 5.55038 6.81858 5.47626 6.83447 5.40215C6.85034 5.32802 6.86622 5.25391 6.90858 5.22744C7.95133 4.44043 9.16268 3.90644 10.4472 3.66757C11.7315 3.4287 13.0537 3.49147 14.3098 3.85098V3.84567Z" fill="#FFF389"/>
<path d="M19.3928 14.2713C19.9962 13.0642 20.9863 9.83475 18.0374 6.98128C18.0162 6.96012 17.9846 6.99187 18.0003 7.01835C18.7581 8.04295 19.2733 9.22622 19.5072 10.479C19.7411 11.7317 19.6874 13.0211 19.3505 14.2501C19.3398 14.2767 19.3822 14.2978 19.3928 14.2713Z" fill="#FFF188"/>
<path d="M6.26807 16.183C6.35277 16.6224 6.71807 17.3053 7.57571 17.9564C9.06719 19.0586 10.9157 19.5656 12.7608 19.3787C14.6058 19.1917 16.315 18.3241 17.5551 16.9453L17.9099 16.5112C17.9404 16.4738 17.9573 16.4271 17.9574 16.3787V15.9871C18.0899 16.0135 18.3811 16.0348 18.4869 15.9076C18.6086 15.7647 18.8205 14.4835 18.8788 13.6418C18.5274 14.9116 17.8317 16.0596 16.8685 16.9587C15.9053 17.8576 14.7122 18.4726 13.4212 18.7357C12.1301 18.9986 10.7915 18.8995 9.55336 18.4489C8.31518 17.9984 7.2258 17.2143 6.40571 16.183C6.38982 16.1671 6.33689 16.1724 6.26807 16.183Z" fill="#FFF187"/>
<path d="M18.878 11.9997C18.8788 13.4289 18.4347 14.8231 17.6071 15.9885C16.7796 17.1539 15.6098 18.0328 14.2601 18.503C12.9105 18.9733 11.4477 19.0116 10.0753 18.6128C8.70276 18.214 7.48844 17.3978 6.60093 16.2774C6.56387 16.2244 6.12446 16.3992 6.0874 16.3516C6.02387 16.2669 6.25681 15.9969 6.19327 15.9121C6.12446 15.8062 5.82799 15.7904 5.75917 15.6793C5.66917 15.5257 5.91799 15.2346 5.83857 15.081C5.3748 14.1524 5.12707 13.131 5.11384 12.0932C5.10064 11.0555 5.32231 10.0281 5.76229 9.0881C6.20225 8.14809 6.84913 7.31976 7.6545 6.6651C8.45987 6.01044 9.40289 5.54641 10.413 5.30774C11.4231 5.06907 12.474 5.06193 13.4872 5.28685C14.5004 5.51178 15.4496 5.96296 16.2639 6.60661C17.0779 7.25027 17.7361 8.06974 18.1887 9.00368C18.6414 9.93771 18.877 10.9619 18.878 11.9997Z" fill="#FFC943"/>
<path d="M5.19336 10.9562C5.66984 10.5591 6.37924 9.91848 6.46397 9.69084C6.50101 9.80733 6.61749 10.0138 6.73397 9.95561C6.7975 9.92377 6.8822 9.73322 6.98807 9.50027C7.13631 9.17733 7.3216 8.76969 7.53337 8.60028C7.60219 8.53675 7.66572 8.4944 7.72924 8.44145C8.00454 8.22968 8.23748 8.06028 8.41748 7.52556C8.51807 7.58381 8.7669 7.67379 8.9522 7.52556C9.04749 7.44616 9.08454 7.31379 9.1216 7.15498C9.18513 6.91676 9.25397 6.63615 9.55043 6.46675C9.98324 6.26246 10.4498 6.13869 10.9269 6.10145C11.6364 5.94792 13.3252 5.77852 14.3893 6.32381C15.231 6.75791 15.8346 7.39852 16.2263 7.81145C16.454 8.05498 16.6076 8.2191 16.6975 8.2191C16.7663 8.2191 16.8403 8.20322 16.9092 8.18733C17.0999 8.14499 17.301 8.10263 17.4333 8.3091C17.4756 8.37792 17.518 8.4838 17.571 8.61086C17.7299 8.99733 17.9627 9.57436 18.524 9.81791C18.0346 8.35352 17.0674 7.09617 15.7772 6.24797C14.4871 5.3998 12.9491 5.01005 11.4108 5.14142C9.87231 5.27276 8.42286 5.91758 7.29521 6.9722C6.16755 8.02683 5.42728 9.43001 5.19336 10.9562Z" fill="#DAA537"/>
<path d="M12.0335 6.51588C12.5832 6.51588 13.0288 6.29071 13.0288 6.01295C13.0288 5.73518 12.5832 5.51001 12.0335 5.51001C11.4837 5.51001 11.0381 5.73518 11.0381 6.01295C11.0381 6.29071 11.4837 6.51588 12.0335 6.51588Z" fill="#D8A336"/>
<path d="M12.0335 6.36134C12.5832 6.36134 13.0288 6.13617 13.0288 5.85841C13.0288 5.58063 12.5832 5.35547 12.0335 5.35547C11.4837 5.35547 11.0381 5.58063 11.0381 5.85841C11.0381 6.13617 11.4837 6.36134 12.0335 6.36134Z" fill="#FFF187"/>
<path d="M11.1758 6.11335C11.5729 5.90158 12.2293 5.71629 13.0287 5.8857C13.0022 6.1504 12.5682 6.36217 12.0334 6.36217C11.7278 6.37685 11.4261 6.2893 11.1758 6.11335Z" fill="#FFE35A"/>
<path d="M10.3024 6.43961C10.4106 6.43961 10.4984 6.35192 10.4984 6.24373C10.4984 6.13556 10.4106 6.04785 10.3024 6.04785C10.1942 6.04785 10.1064 6.13556 10.1064 6.24373C10.1064 6.35192 10.1942 6.43961 10.3024 6.43961Z" fill="#D8A336"/>
<path d="M10.3024 6.34122C10.4106 6.34122 10.4984 6.25353 10.4984 6.14535C10.4984 6.03716 10.4106 5.94946 10.3024 5.94946C10.1942 5.94946 10.1064 6.03716 10.1064 6.14535C10.1064 6.25353 10.1942 6.34122 10.3024 6.34122Z" fill="#FFE35A"/>
<path d="M7.61288 7.91815C7.72106 7.91815 7.80876 7.83044 7.80876 7.72225C7.80876 7.61407 7.72106 7.52637 7.61288 7.52637C7.5047 7.52637 7.41699 7.61407 7.41699 7.72225C7.41699 7.83044 7.5047 7.91815 7.61288 7.91815Z" fill="#FFE35A"/>
<path d="M6.11434 10.6288C6.22252 10.6288 6.31023 10.541 6.31023 10.4329C6.31023 10.3247 6.22252 10.2371 6.11434 10.2371C6.00616 10.2371 5.91846 10.3247 5.91846 10.4329C5.91846 10.541 6.00616 10.6288 6.11434 10.6288Z" fill="#FFE35A"/>
<path d="M8.31233 7.23397C8.30168 7.21969 8.29414 7.20332 8.29023 7.18594C8.2863 7.16856 8.28609 7.15054 8.28957 7.13308C8.29308 7.1156 8.3002 7.09906 8.3105 7.08451C8.32081 7.06998 8.33407 7.05777 8.34939 7.04868L9.22292 6.44515C9.23673 6.43513 9.2524 6.42797 9.26902 6.42415C9.28565 6.42032 9.30287 6.41986 9.31967 6.42283C9.33646 6.42579 9.35248 6.43211 9.36679 6.44141C9.38109 6.4507 9.39339 6.46278 9.40292 6.47691L9.45587 6.55632C9.49822 6.61455 9.48233 6.69397 9.4241 6.73631L8.55057 7.34515C8.53644 7.35492 8.52048 7.36173 8.50365 7.36518C8.48682 7.3686 8.46946 7.36859 8.45264 7.36512C8.43581 7.36166 8.41986 7.35482 8.40576 7.34502C8.39166 7.33522 8.37967 7.32265 8.37057 7.30808L8.31763 7.22868L8.31233 7.23397Z" fill="#D8A336"/>
<path d="M8.31166 7.10218C8.30189 7.08805 8.29508 7.07209 8.29165 7.05527C8.28822 7.03843 8.28823 7.02107 8.29169 7.00424C8.29516 6.98742 8.30201 6.97148 8.3118 6.95737C8.32161 6.94326 8.33415 6.93129 8.34873 6.92217L9.22225 6.31335C9.23638 6.30358 9.25234 6.29677 9.26916 6.29333C9.286 6.28991 9.30336 6.28991 9.32019 6.29339C9.33701 6.29684 9.35295 6.30368 9.36706 6.31349C9.38117 6.3233 9.39314 6.33585 9.40226 6.3504L9.45519 6.42981C9.49755 6.48277 9.48166 6.56747 9.42342 6.60981L8.54991 7.21337C8.53609 7.22338 8.52042 7.23051 8.5038 7.23435C8.48717 7.23819 8.46996 7.23863 8.45315 7.23567C8.43637 7.2327 8.42033 7.22639 8.40603 7.2171C8.39172 7.2078 8.37943 7.19573 8.36989 7.1816L8.31696 7.10218H8.31166ZM6.3793 9.36806C6.36388 9.35984 6.35032 9.34853 6.33947 9.33483C6.32863 9.32113 6.32071 9.30534 6.31625 9.28845C6.31177 9.27156 6.31083 9.25392 6.31348 9.23666C6.31615 9.21938 6.32233 9.20284 6.33165 9.18807L6.88226 8.27218C6.89095 8.25793 6.90235 8.24551 6.91583 8.23566C6.92931 8.22582 6.9446 8.21873 6.96083 8.2148C6.97705 8.21086 6.99388 8.21016 7.01039 8.21275C7.02689 8.21532 7.04271 8.22113 7.05696 8.22983L7.14166 8.28277C7.19989 8.31453 7.22107 8.39394 7.18401 8.45748L6.63872 9.36806C6.63047 9.38276 6.61938 9.39567 6.6061 9.40605C6.59282 9.41641 6.57761 9.42404 6.56135 9.42847C6.54509 9.4329 6.52811 9.43406 6.51139 9.43187C6.49469 9.42967 6.47859 9.42417 6.46402 9.41571L6.3793 9.36277V9.36806Z" fill="#FFE25A"/>
<path d="M13.7697 6.43961C13.6615 6.43961 13.5737 6.35192 13.5737 6.24373C13.5737 6.13556 13.6615 6.04785 13.7697 6.04785C13.8778 6.04785 13.9655 6.13556 13.9655 6.24373C13.9655 6.35192 13.8778 6.43961 13.7697 6.43961Z" fill="#D8A336"/>
<path d="M13.7697 6.34122C13.6615 6.34122 13.5737 6.25353 13.5737 6.14535C13.5737 6.03716 13.6615 5.94946 13.7697 5.94946C13.8778 5.94946 13.9655 6.03716 13.9655 6.14535C13.9655 6.25353 13.8778 6.34122 13.7697 6.34122Z" fill="#FFE35A"/>
<path d="M16.4592 8.01847C16.3509 8.01847 16.2632 7.93077 16.2632 7.82258C16.2632 7.71441 16.3509 7.62671 16.4592 7.62671C16.5673 7.62671 16.655 7.71441 16.655 7.82258C16.655 7.93077 16.5673 8.01847 16.4592 8.01847Z" fill="#D8A336"/>
<path d="M16.4592 7.91813C16.3509 7.91813 16.2632 7.83044 16.2632 7.72225C16.2632 7.61407 16.3509 7.52637 16.4592 7.52637C16.5673 7.52637 16.655 7.61407 16.655 7.72225C16.655 7.83044 16.5673 7.91813 16.4592 7.91813Z" fill="#FFE35A"/>
<path d="M17.9576 10.7357C17.8495 10.7357 17.7617 10.6481 17.7617 10.54C17.7617 10.4317 17.8495 10.344 17.9576 10.344C18.0659 10.344 18.1536 10.4317 18.1536 10.54C18.1536 10.6481 18.0659 10.7357 17.9576 10.7357Z" fill="#D8A336"/>
<path d="M17.9576 10.6288C17.8495 10.6288 17.7617 10.541 17.7617 10.4329C17.7617 10.3247 17.8495 10.2371 17.9576 10.2371C18.0659 10.2371 18.1536 10.3247 18.1536 10.4329C18.1536 10.541 18.0659 10.6288 17.9576 10.6288Z" fill="#FFE35A"/>
<path d="M15.7555 7.23397C15.7664 7.22002 15.7743 7.20395 15.7787 7.18679C15.783 7.16962 15.7837 7.15175 15.7806 7.1343C15.7777 7.11686 15.7712 7.10023 15.7613 7.08549C15.7515 7.07074 15.7388 7.0582 15.7238 7.04868L14.8504 6.44515C14.8365 6.43513 14.8208 6.42797 14.8041 6.42415C14.7876 6.42032 14.7704 6.41986 14.7535 6.42283C14.7366 6.42579 14.7208 6.43211 14.7065 6.44141C14.6921 6.4507 14.6799 6.46278 14.6702 6.47691L14.6174 6.55632C14.6071 6.5698 14.5996 6.5852 14.5953 6.60162C14.591 6.61803 14.5903 6.63512 14.5926 6.65189C14.5951 6.66868 14.6009 6.68479 14.6097 6.69928C14.6185 6.71379 14.6301 6.72637 14.6438 6.73631L15.5227 7.34515C15.5755 7.3822 15.6604 7.36631 15.7028 7.30808L15.7555 7.22868V7.23397Z" fill="#D8A336"/>
<path d="M15.7555 7.10218C15.7655 7.08837 15.7727 7.0727 15.7766 7.05608C15.7804 7.03945 15.781 7.02224 15.7779 7.00543C15.775 6.98864 15.7687 6.97262 15.7592 6.95831C15.75 6.944 15.7379 6.93171 15.7238 6.92217L14.8504 6.31335C14.8361 6.30358 14.8202 6.29677 14.8034 6.29333C14.7866 6.28991 14.7691 6.28991 14.7524 6.29339C14.7356 6.29684 14.7196 6.30368 14.7055 6.31349C14.6914 6.3233 14.6795 6.33585 14.6702 6.3504L14.6174 6.42981C14.6071 6.4433 14.5996 6.4587 14.5953 6.47513C14.591 6.49152 14.5903 6.50863 14.5926 6.52541C14.5951 6.54218 14.6009 6.55829 14.6097 6.57279C14.6185 6.58728 14.6301 6.59987 14.6438 6.60981L15.5227 7.21337C15.5755 7.25571 15.6604 7.23981 15.7028 7.18158L15.7555 7.10218Z" fill="#FFE25A"/>
<path d="M17.6397 9.4853C17.6547 9.47664 17.6678 9.465 17.6782 9.45108C17.6884 9.43719 17.6957 9.42131 17.6998 9.40445C17.7037 9.38761 17.7043 9.3701 17.7011 9.35306C17.6981 9.33602 17.6917 9.31976 17.6821 9.30532L17.1368 8.39472C17.1286 8.38004 17.1175 8.36712 17.1042 8.35674C17.0909 8.34637 17.0756 8.33875 17.0594 8.33432C17.0432 8.32987 17.0261 8.32873 17.0095 8.33091C16.9928 8.3331 16.9766 8.3386 16.962 8.34707L16.8774 8.40002C16.8628 8.40826 16.8497 8.41934 16.8394 8.43264C16.829 8.44593 16.8214 8.46113 16.817 8.47739C16.8126 8.49365 16.8114 8.51063 16.8136 8.52733C16.8157 8.54405 16.8212 8.56016 16.8297 8.57472L17.3803 9.49061C17.4121 9.54882 17.4914 9.57007 17.555 9.533L17.6397 9.48003V9.4853Z" fill="#D8A336"/>
<path d="M17.6916 9.36875C17.7065 9.36008 17.7196 9.34842 17.7298 9.33452C17.7402 9.32062 17.7476 9.30475 17.7515 9.2879C17.7556 9.27103 17.756 9.25355 17.7529 9.23649C17.7497 9.21945 17.7435 9.20321 17.7339 9.18875L17.1886 8.27286C17.1798 8.25861 17.1685 8.24621 17.1549 8.23637C17.1415 8.22651 17.1263 8.21942 17.11 8.21549C17.0938 8.21156 17.077 8.21085 17.0603 8.21344C17.0438 8.21602 17.0281 8.22181 17.0139 8.23052L16.9291 8.28345C16.9144 8.29171 16.9015 8.30279 16.8912 8.31608C16.8808 8.32936 16.8732 8.34458 16.8687 8.36084C16.8643 8.37709 16.8631 8.39407 16.8654 8.41078C16.8676 8.42748 16.873 8.44359 16.8816 8.45816L17.432 9.36875C17.4692 9.43228 17.5486 9.45346 17.6068 9.41641L17.6916 9.36346V9.36875Z" fill="#FFE25A"/>
<path d="M10.3024 17.7375C10.4106 17.7375 10.4984 17.8253 10.4984 17.9334C10.4984 18.0417 10.4106 18.1294 10.3024 18.1294C10.1942 18.1294 10.1064 18.0417 10.1064 17.9334C10.1064 17.8253 10.1942 17.7375 10.3024 17.7375Z" fill="#D8A336"/>
<path d="M10.3024 17.8396C10.4106 17.8396 10.4984 17.9273 10.4984 18.0356C10.4984 18.1437 10.4106 18.2314 10.3024 18.2314C10.1942 18.2314 10.1064 18.1437 10.1064 18.0356C10.1064 17.9273 10.1942 17.8396 10.3024 17.8396Z" fill="#FFE35A"/>
<path d="M7.61288 16.1609C7.72106 16.1609 7.80876 16.2486 7.80876 16.3569C7.80876 16.4651 7.72106 16.5527 7.61288 16.5527C7.5047 16.5527 7.41699 16.4651 7.41699 16.3569C7.41699 16.2486 7.5047 16.1609 7.61288 16.1609Z" fill="#D8A336"/>
<path d="M7.61288 16.2678C7.72106 16.2678 7.80876 16.3556 7.80876 16.4637C7.80876 16.5719 7.72106 16.6597 7.61288 16.6597C7.5047 16.6597 7.41699 16.5719 7.41699 16.4637C7.41699 16.3556 7.5047 16.2678 7.61288 16.2678Z" fill="#FFE35A"/>
<path d="M6.11434 13.5505C6.22252 13.5505 6.31023 13.6383 6.31023 13.7465C6.31023 13.8547 6.22252 13.9424 6.11434 13.9424C6.00616 13.9424 5.91846 13.8547 5.91846 13.7465C5.91846 13.6383 6.00616 13.5505 6.11434 13.5505Z" fill="#FFE35A"/>
<path d="M8.31212 16.9499C8.30236 16.964 8.29555 16.9799 8.29212 16.9969C8.28868 17.0136 8.2887 17.031 8.29216 17.0478C8.29563 17.0646 8.30247 17.0806 8.31227 17.0946C8.32207 17.1087 8.33463 17.1207 8.34918 17.1299L9.22272 17.7334C9.28095 17.7758 9.36036 17.7599 9.40272 17.7017L9.45566 17.6223C9.46567 17.6084 9.47283 17.5928 9.47665 17.5761C9.48049 17.5595 9.48093 17.5424 9.47797 17.5255C9.47501 17.5088 9.46869 17.4927 9.45941 17.4784C9.45011 17.4641 9.43804 17.4518 9.42389 17.4423L8.55037 16.8387C8.53656 16.8287 8.52088 16.8215 8.50426 16.8178C8.48764 16.8138 8.47041 16.8134 8.45362 16.8164C8.43683 16.8194 8.4208 16.8257 8.40649 16.835C8.39219 16.8443 8.37991 16.8564 8.37036 16.8705L8.31742 16.9499H8.31212Z" fill="#D8A336"/>
<path d="M8.31161 17.0819C8.29355 17.1101 8.28733 17.1441 8.29427 17.1769C8.3012 17.2096 8.32075 17.2382 8.34868 17.2565L9.2222 17.8655C9.28044 17.9079 9.35985 17.8919 9.4022 17.8337L9.45515 17.7542C9.46516 17.7405 9.47231 17.7247 9.47614 17.7082C9.47997 17.6915 9.48042 17.6743 9.47745 17.6576C9.47449 17.6407 9.46818 17.6247 9.45889 17.6103C9.44959 17.596 9.43752 17.5838 9.42337 17.5743L8.54985 16.9654C8.53605 16.9553 8.52037 16.9483 8.50374 16.9444C8.48712 16.9405 8.46991 16.9402 8.4531 16.9432C8.43631 16.9461 8.42027 16.9524 8.40598 16.9616C8.39167 16.971 8.37938 16.9831 8.36984 16.9972L8.31691 17.0766L8.31161 17.0819Z" fill="#FFE25A"/>
<path d="M6.43304 14.6994C6.41836 14.7077 6.40545 14.7189 6.39507 14.7321C6.38471 14.7454 6.37707 14.7606 6.37264 14.7768C6.36821 14.7931 6.36705 14.81 6.36924 14.8268C6.37145 14.8435 6.37693 14.8595 6.38541 14.8741L6.936 15.7901C6.97305 15.8483 7.05246 15.8694 7.11071 15.8324L7.19541 15.7795C7.20966 15.7707 7.22206 15.7594 7.23192 15.7459C7.24176 15.7325 7.24885 15.7171 7.2528 15.701C7.25671 15.6846 7.25743 15.6678 7.25484 15.6514C7.25226 15.6348 7.24645 15.6191 7.23775 15.6048L6.69246 14.6888C6.68377 14.6745 6.67237 14.6622 6.65889 14.6524C6.64541 14.6426 6.63012 14.6354 6.6139 14.6315C6.59766 14.6276 6.58082 14.6268 6.56433 14.6294C6.54783 14.632 6.53201 14.6378 6.51775 14.6465L6.43304 14.6994Z" fill="#D8A336"/>
<path d="M6.37885 14.8162C6.36415 14.8243 6.35124 14.8354 6.34087 14.8487C6.33049 14.862 6.32287 14.8771 6.31843 14.8935C6.31401 14.9098 6.31285 14.9266 6.31504 14.9434C6.31723 14.9602 6.32272 14.9763 6.33119 14.9908L6.88179 15.9066C6.91355 15.9701 6.99296 15.9861 7.05649 15.949L7.1412 15.9013C7.15619 15.8927 7.16925 15.8811 7.17957 15.8671C7.18988 15.8533 7.19726 15.8373 7.20122 15.8206C7.20519 15.8036 7.20567 15.7863 7.20264 15.7692C7.19959 15.7522 7.1931 15.7359 7.18355 15.7213L6.63826 14.8108C6.63001 14.7961 6.61891 14.7831 6.60564 14.7727C6.59235 14.7624 6.57714 14.7549 6.56088 14.7505C6.54463 14.746 6.52765 14.7447 6.51093 14.7469C6.49423 14.7491 6.47812 14.7545 6.46356 14.7631L6.37885 14.8162Z" fill="#FFE25A"/>
<path d="M13.7697 18.1292C13.8778 18.1292 13.9657 18.0414 13.9657 17.9333C13.9657 17.8251 13.8778 17.7375 13.7697 17.7375C13.6615 17.7375 13.5737 17.8251 13.5737 17.9333C13.5737 18.0414 13.6615 18.1292 13.7697 18.1292Z" fill="#D8A336"/>
<path d="M13.7697 18.2366C13.8778 18.2366 13.9657 18.1488 13.9657 18.0406C13.9657 17.9324 13.8778 17.8447 13.7697 17.8447C13.6615 17.8447 13.5737 17.9324 13.5737 18.0406C13.5737 18.1488 13.6615 18.2366 13.7697 18.2366Z" fill="#FFE35A"/>
<path d="M16.4592 16.5527C16.5673 16.5527 16.6549 16.465 16.6549 16.3568C16.6549 16.2485 16.5673 16.1609 16.4592 16.1609C16.3509 16.1609 16.2632 16.2485 16.2632 16.3568C16.2632 16.465 16.3509 16.5527 16.4592 16.5527Z" fill="#D8A336"/>
<path d="M16.4592 16.6597C16.5673 16.6597 16.6549 16.5719 16.6549 16.4637C16.6549 16.3556 16.5673 16.2678 16.4592 16.2678C16.3509 16.2678 16.2632 16.3556 16.2632 16.4637C16.2632 16.5719 16.3509 16.6597 16.4592 16.6597Z" fill="#FFE35A"/>
<path d="M17.9576 13.8369C18.0657 13.8369 18.1534 13.7492 18.1534 13.6409C18.1534 13.5328 18.0657 13.4451 17.9576 13.4451C17.8495 13.4451 17.7617 13.5328 17.7617 13.6409C17.7617 13.7492 17.8495 13.8369 17.9576 13.8369Z" fill="#D8A336"/>
<path d="M17.9576 13.9424C18.0657 13.9424 18.1534 13.8547 18.1534 13.7465C18.1534 13.6383 18.0657 13.5505 17.9576 13.5505C17.8495 13.5505 17.7617 13.6383 17.7617 13.7465C17.7617 13.8547 17.8495 13.9424 17.9576 13.9424Z" fill="#FFE35A"/>
<path d="M15.7555 16.9499C15.7979 17.0081 15.782 17.0874 15.7238 17.1299L14.8504 17.7334C14.8365 17.7435 14.8208 17.7506 14.8041 17.7545C14.7876 17.7583 14.7704 17.7586 14.7535 17.7557C14.7366 17.7528 14.7208 17.7465 14.7065 17.7372C14.6921 17.7279 14.6799 17.7158 14.6702 17.7017L14.6174 17.6223C14.6071 17.6088 14.5996 17.5934 14.5953 17.5769C14.591 17.5605 14.5903 17.5434 14.5926 17.5266C14.5951 17.5099 14.6009 17.4938 14.6097 17.4793C14.6185 17.4648 14.6301 17.4522 14.6438 17.4423L15.5227 16.8387C15.5364 16.8287 15.5521 16.8215 15.5688 16.8178C15.5853 16.8138 15.6026 16.8134 15.6195 16.8164C15.6362 16.8194 15.6521 16.8257 15.6665 16.835C15.6808 16.8443 15.6931 16.8564 15.7028 16.8705L15.7555 16.9499Z" fill="#D8A336"/>
<path d="M15.7555 17.0819C15.7979 17.1349 15.782 17.2195 15.7238 17.2565L14.8504 17.8655C14.8365 17.8755 14.8208 17.8827 14.8041 17.8864C14.7876 17.8903 14.7704 17.8908 14.7535 17.8877C14.7366 17.8848 14.7208 17.8784 14.7065 17.8692C14.6921 17.8598 14.6799 17.8478 14.6702 17.8337L14.6174 17.7542C14.6071 17.7408 14.5996 17.7253 14.5953 17.709C14.591 17.6924 14.5903 17.6755 14.5926 17.6587C14.5951 17.6418 14.6009 17.6258 14.6097 17.6113C14.6185 17.5967 14.6301 17.5841 14.6438 17.5743L15.5227 16.9654C15.5364 16.9553 15.5521 16.9483 15.5688 16.9444C15.5853 16.9405 15.6026 16.9402 15.6195 16.9432C15.6362 16.9461 15.6521 16.9524 15.6665 16.9616C15.6808 16.971 15.6931 16.9831 15.7028 16.9972L15.7555 17.0766V17.0819Z" fill="#FFE25A"/>
<path d="M17.6397 14.6994C17.698 14.7312 17.7191 14.8107 17.6821 14.8741L17.1368 15.7901C17.128 15.8043 17.1167 15.8166 17.1032 15.8265C17.0898 15.8364 17.0744 15.8435 17.0583 15.8474C17.0419 15.8513 17.0252 15.8522 17.0086 15.8495C16.9921 15.8469 16.9764 15.8411 16.962 15.8324L16.8774 15.7795C16.8628 15.7712 16.8497 15.7601 16.8394 15.7469C16.829 15.7335 16.8214 15.7183 16.817 15.7021C16.8126 15.6858 16.8114 15.6688 16.8136 15.6521C16.8157 15.6354 16.8212 15.6194 16.8297 15.6048L17.3803 14.6888C17.3889 14.6745 17.4005 14.6622 17.4139 14.6524C17.4274 14.6426 17.4427 14.6354 17.4589 14.6315C17.4751 14.6276 17.492 14.6268 17.5084 14.6294C17.5249 14.632 17.5408 14.6378 17.555 14.6465L17.6397 14.6994Z" fill="#D8A336"/>
<path d="M17.6929 14.8162C17.7511 14.8532 17.7723 14.9325 17.7353 14.9908L17.1899 15.9066C17.1813 15.9209 17.1699 15.9333 17.1563 15.9432C17.1429 15.953 17.1277 15.9601 17.1114 15.9641C17.0952 15.9679 17.0783 15.9686 17.0618 15.966C17.0452 15.9634 17.0295 15.9577 17.0152 15.949L16.9305 15.9013C16.9151 15.8931 16.9016 15.8818 16.8907 15.8682C16.8799 15.8543 16.872 15.8387 16.8675 15.8218C16.8631 15.8048 16.8621 15.7873 16.8647 15.7698C16.8674 15.7527 16.8736 15.7362 16.8829 15.7213L17.4335 14.8108C17.4417 14.7961 17.4528 14.7831 17.4661 14.7727C17.4794 14.7624 17.4945 14.7549 17.5109 14.7505C17.5272 14.746 17.5441 14.7447 17.5607 14.7469C17.5776 14.7491 17.5936 14.7545 17.6082 14.7631L17.6929 14.8162Z" fill="#FFE25A"/>
<path d="M5.36272 12.259C5.34154 11.5179 5.69625 11.232 5.88154 11.1843C6.11448 11.1843 6.38448 11.5708 6.38448 12.259C6.38448 12.852 5.99802 13.2543 5.88154 13.2543C5.80214 13.2543 5.3839 13.0426 5.36272 12.259Z" fill="#D8A336"/>
<path d="M5.36272 12.106C5.34154 11.3595 5.69625 11.0789 5.88154 11.0312C6.11448 11.0312 6.38448 11.4178 6.38448 12.106C6.38448 12.699 5.99802 13.1012 5.88154 13.1012C5.80214 13.1012 5.3839 12.8895 5.36272 12.106Z" fill="#FFF187"/>
<path d="M6.25643 11.3865C6.33055 11.5665 6.3835 11.81 6.3835 12.1066C6.3835 12.6995 5.99702 13.1018 5.88056 13.1018C5.82233 13.1018 5.58409 12.9906 5.45703 12.6253L6.25115 11.3865H6.25643Z" fill="#FFE259"/>
<path d="M18.7103 12.259C18.7314 11.5179 18.3715 11.232 18.1915 11.1843C17.9585 11.1843 17.6885 11.5708 17.6885 12.259C17.6885 12.852 18.075 13.2543 18.1915 13.2543C18.2709 13.2543 18.6891 13.0426 18.7103 12.259Z" fill="#D8A336"/>
<path d="M18.7103 12.106C18.7314 11.3595 18.3715 11.0789 18.1915 11.0312C17.9585 11.0312 17.6885 11.4178 17.6885 12.106C17.6885 12.699 18.075 13.1012 18.1915 13.1012C18.2709 13.1012 18.6891 12.8895 18.7103 12.106Z" fill="#FFF187"/>
<path d="M17.8155 11.3865C17.7362 11.5665 17.6885 11.81 17.6885 12.1066C17.6885 12.6995 18.075 13.1018 18.1915 13.1018C18.2443 13.1018 18.4826 12.9906 18.6149 12.6253L17.8208 11.3865H17.8155Z" fill="#FFE259"/>
<path d="M11.138 8.4885C11.3762 8.28733 11.9957 8.2926 11.9957 8.2926C11.9957 8.2926 12.6151 8.2926 12.8532 8.4885L13.7267 7.44556L14.0128 9.45203C15.3574 11.9085 16.4798 16.6414 11.9957 16.7049C7.5115 16.6414 8.63386 11.9085 9.97853 9.45203L10.2645 7.44556L11.138 8.4885Z" fill="#E5AF38"/>
<path fill-rule="evenodd" clip-rule="evenodd" d="M11.9967 7.85022H12.0337C12.2455 7.85473 12.4566 7.87955 12.6637 7.92433L13.2725 7.10904C13.3389 7.01673 13.4317 6.94653 13.5385 6.90761C13.6455 6.86869 13.7616 6.86285 13.8717 6.89084C13.9821 6.91882 14.0812 6.97935 14.1566 7.06454C14.2321 7.14972 14.28 7.25563 14.2944 7.36846L14.5644 9.27434C15.2419 10.5448 15.8771 12.4085 15.7555 14.0232C15.7245 14.8755 15.3793 15.6863 14.7867 16.2997C14.1514 16.9243 13.2248 17.2578 12.002 17.2791H11.9967C10.7737 17.2578 9.84726 16.9243 9.21193 16.2997C8.61922 15.6863 8.27416 14.8755 8.24311 14.0232C8.12135 12.4085 8.75664 10.5448 9.43428 9.27434L9.7043 7.36846C9.71777 7.2552 9.76513 7.14867 9.84006 7.06276C9.91521 6.97686 10.0143 6.9156 10.1247 6.887C10.2352 6.85839 10.3516 6.86379 10.4588 6.90246C10.5661 6.94113 10.6593 7.01128 10.726 7.10374L11.3348 7.92433C11.5413 7.87438 11.7527 7.84948 11.9648 7.85022H11.9967ZM11.1654 8.46964C11.4144 8.29493 11.9967 8.29493 11.9967 8.29493C11.9967 8.29493 12.5736 8.29493 12.8278 8.46964L12.8544 8.4908L13.7278 7.44786L14.0138 9.45433C15.3584 11.9108 16.4808 16.6438 11.9967 16.7073C7.51252 16.6438 8.63488 11.9108 9.97956 9.45433L10.2654 7.44786L11.139 8.4908C11.1475 8.48339 11.1564 8.47631 11.1654 8.46964Z" fill="#FFE35A"/>
<path d="M14.3051 10.0314C14.2151 9.82496 14.1144 9.63434 14.0139 9.44903L13.7279 7.44786L12.8544 8.4908C12.8459 8.48339 12.837 8.47631 12.828 8.46964C12.5791 8.29493 11.9968 8.29493 11.9968 8.29493C11.9968 8.29493 11.4198 8.29493 11.1656 8.46964C11.1565 8.47631 11.1476 8.48339 11.1391 8.4908L10.2656 7.44786L9.97977 9.45433C9.79966 9.78255 9.62503 10.1425 9.46621 10.5397L8.61914 11.212C8.8415 10.5027 9.13268 9.83025 9.42915 9.27434L9.69914 7.36846C9.71261 7.2552 9.75995 7.14867 9.83498 7.06276C9.91002 6.97686 10.0092 6.9156 10.1196 6.887C10.23 6.85839 10.3465 6.86379 10.4537 6.90246C10.5611 6.94113 10.6542 7.01128 10.7209 7.10374L11.3298 7.83433C11.5445 7.78221 11.7651 7.7573 11.9862 7.76022H12.0075C12.1421 7.75936 12.2768 7.76998 12.4098 7.79199L12.6639 7.83433L13.2728 7.10904C13.339 7.01673 13.4318 6.94653 13.5387 6.90761C13.6455 6.86869 13.7616 6.86285 13.8718 6.89084C13.9821 6.91882 14.0814 6.97935 14.1568 7.06454C14.2323 7.14972 14.2801 7.25563 14.2944 7.36846L14.5645 9.27434C15.2421 10.5448 15.8774 12.4085 15.7556 14.0232C15.7314 14.3742 15.6638 14.7211 15.5544 15.0555C15.8352 12.4297 14.9298 10.7144 14.3051 10.0261V10.0314Z" fill="#FFF187"/>
<path d="M8.81977 14.1689H8.80389C8.79329 14.9842 9.24858 16.7207 11.1334 17.1337C11.9539 17.3137 12.6315 17.2395 13.1609 17.0649C13.6441 16.9029 14.0747 16.6132 14.4064 16.2263C14.7383 15.8396 14.9591 15.3701 15.0457 14.8678H15.0192C14.6644 15.9265 13.7698 16.6784 11.9961 16.7048C9.8521 16.673 8.99448 15.5772 8.81977 14.1742V14.1689Z" fill="#FFF992"/>
<path d="M8.26817 14.3511H8.25759C8.14111 14.9599 8.09877 16.2569 8.877 16.6435C8.89817 16.6539 8.92464 16.6539 8.95111 16.6539C9.01995 16.6539 9.10994 16.6539 9.26877 16.8392C9.5705 17.1569 10.3911 17.7923 11.2171 17.7393C12.2547 17.6758 12.6571 17.6388 12.9005 17.6017C12.9958 17.5858 13.1334 17.5488 13.2976 17.5063C13.5622 17.4376 13.8799 17.3529 14.1818 17.3159C14.6741 17.2522 14.8805 17.1993 15.0817 16.8922C15.1771 16.7493 15.2247 16.6488 15.2565 16.5746C15.2988 16.4846 15.3253 16.4316 15.3941 16.3945C15.5264 16.3311 15.5529 16.2676 15.5529 16.1511C15.5529 16.0981 15.5953 16.114 15.6588 16.1352C15.7276 16.1617 15.8228 16.1988 15.9129 16.1511C16.0822 16.0611 16.0718 14.0705 15.7857 13.2288H15.7594C15.7753 13.4988 15.7753 13.7634 15.7594 14.0228C15.7269 14.8759 15.3798 15.6867 14.7852 16.2993C14.1499 16.924 13.2235 17.2576 12.0006 17.2788H11.9953C10.7724 17.2576 9.8458 16.924 9.21053 16.2993C8.68953 15.7727 8.35967 15.0868 8.27347 14.3511H8.26817Z" fill="#DEAC3B"/>
<path d="M12.0335 17.6638C12.5832 17.6638 13.0288 17.889 13.0288 18.1669C13.0288 18.4446 12.5832 18.6697 12.0335 18.6697C11.4837 18.6697 11.0381 18.4446 11.0381 18.1669C11.0381 17.889 11.4837 17.6638 12.0335 17.6638Z" fill="#D8A336"/>
<path d="M12.0335 17.8167C12.5832 17.8167 13.0288 18.0419 13.0288 18.3195C13.0288 18.5974 12.5832 18.8225 12.0335 18.8225C11.4837 18.8225 11.0381 18.5974 11.0381 18.3195C11.0381 18.0419 11.4837 17.8167 12.0335 17.8167Z" fill="#FFF187"/>
<path d="M11.1758 18.0672C11.5729 18.2788 12.2293 18.4695 13.0287 18.2948C13.0022 18.0301 12.5682 17.8184 12.0334 17.8184C11.6682 17.8184 11.3506 17.9189 11.1758 18.0672Z" fill="#FFE35A"/>
<path d="M11.9959 13.9632C13.0805 13.9632 13.96 13.0838 13.96 11.999C13.96 10.9143 13.0805 10.0349 11.9959 10.0349C10.911 10.0349 10.0317 10.9143 10.0317 11.999C10.0317 13.0838 10.911 13.9632 11.9959 13.9632Z" fill="#FFF086"/>
<path d="M10.1328 12.6251L11.2075 11.4338L12.6157 11.4868L13.9605 12.0744C13.9448 12.5352 13.7676 12.9758 13.4599 13.319C13.1521 13.6624 12.7335 13.8865 12.2772 13.952C11.8209 14.0177 11.3558 13.9208 10.9638 13.6781C10.5718 13.4356 10.2777 13.0627 10.1328 12.6251Z" fill="#FFE25A"/>
<path d="M11.9962 13.3713C12.7535 13.3713 13.3673 12.7574 13.3673 12.0002C13.3673 11.2428 12.7535 10.6289 11.9962 10.6289C11.2388 10.6289 10.625 11.2428 10.625 12.0002C10.625 12.7574 11.2388 13.3713 11.9962 13.3713Z" fill="#C48635"/>
<path d="M11.996 12.9053C12.4961 12.9053 12.9014 12.5 12.9014 12C12.9014 11.5001 12.4961 11.0947 11.996 11.0947C11.496 11.0947 11.0908 11.5001 11.0908 12C11.0908 12.5 11.496 12.9053 11.996 12.9053Z" fill="#B9B9B9"/>
<path d="M13.9544 12.1545C13.921 12.6072 13.7319 13.0346 13.419 13.3638C13.1062 13.6929 12.689 13.9034 12.2386 13.9595C11.7879 14.0156 11.3318 13.9139 10.9478 13.6717C10.5637 13.4296 10.2753 13.0617 10.132 12.631C10.0791 13.1021 10.1533 14.0816 10.9102 14.2721C11.0108 14.304 11.069 14.2721 11.1167 14.2403C11.159 14.2139 11.196 14.1875 11.2597 14.2244C11.3496 14.3093 11.5667 14.484 11.7097 14.484C11.8049 14.484 11.8102 14.4256 11.8102 14.3728C11.8102 14.3198 11.8102 14.2774 11.879 14.2774C11.9321 14.2774 11.9849 14.2987 12.0537 14.3251C12.1914 14.3728 12.3767 14.431 12.6149 14.3939C12.9802 14.3304 14.1397 13.4516 14.0125 12.181L13.9597 12.1545H13.9544Z" fill="#C79631"/>
</g>
<defs>
<clipPath id="clip0_328_27700">
<rect width="24" height="24" fill="white"/>
</clipPath>
</defs>
</svg>
