<svg width="24" height="24" viewBox="0 0 24 24" fill="none" xmlns="http://www.w3.org/2000/svg">
<g clip-path="url(#clip0_328_27700)">
<path d="M24 0H0V24H24V0Z" fill="white"/>
<path d="M19.9973 11.9997C19.9973 14.8044 18.5525 17.275 16.3644 18.7009C16.2609 18.7715 16.0349 18.6068 15.9267 18.6679C15.8326 18.7197 15.8185 18.8467 15.7196 18.8986C15.6349 18.9455 15.4749 18.8986 15.3902 18.9455C15.3008 18.9832 15.3149 19.2797 15.2255 19.3221C13.9321 19.8914 12.5108 20.1079 11.1064 19.9497C9.70206 19.7914 8.36469 19.2638 7.23041 18.4209C6.09611 17.5779 5.20538 16.4494 4.64885 15.1504C4.09232 13.8513 3.88985 12.428 4.06206 11.0253C4.23425 9.62253 4.77497 8.29045 5.62918 7.16458C6.48339 6.03869 7.62062 5.15919 8.92514 4.61555C10.2296 4.07192 11.6549 3.88357 13.0559 4.06966C14.4569 4.25574 15.7835 4.80963 16.9009 5.67496C17.0279 5.7785 16.9573 6.16908 17.0797 6.27731C17.202 6.38555 17.5221 6.21143 17.6444 6.32908C19.0985 7.77849 19.9973 9.7832 19.9973 11.9997Z" fill="#C48635"/>
<path d="M19.5253 11.9999C19.5253 14.6305 18.1794 16.9411 16.137 18.2917C16.0429 18.3528 15.8548 18.094 15.7606 18.1505C15.6571 18.2163 15.6053 18.5175 15.4971 18.574C15.3889 18.6351 15.1018 18.5269 14.9936 18.574C14.8947 18.6211 14.9983 18.9033 14.8994 18.9505C13.2456 19.6425 11.399 19.7217 9.69183 19.1739C7.98473 18.626 6.52915 17.4869 5.58697 15.9616C4.64476 14.4362 4.27776 12.6248 4.55199 10.853C4.82622 9.08123 5.72369 7.46546 7.08294 6.29635C7.13941 6.24458 7.28529 6.3434 7.34647 6.29635C7.41706 6.23987 7.40294 6.03281 7.47354 5.98105C8.73471 5.03046 10.2971 4.47046 11.9959 4.47046C13.723 4.47046 15.3182 5.05399 16.5889 6.03281C16.7253 6.13634 16.6171 6.55047 16.7489 6.66339C16.8712 6.77164 17.2336 6.58811 17.3513 6.71046C18.7456 8.11762 19.527 10.0189 19.5253 11.9999Z" fill="#FFE35A"/>
<path d="M5.59785 15.1149C5.8708 15.769 5.96492 15.8631 5.97433 15.8256C6.0308 15.769 5.81432 15.1149 5.78138 14.9173C5.74374 14.7243 5.40962 12.7337 5.29668 12.3431C5.20256 12.0326 5.17433 11.3549 5.16962 11.0584C5.13668 11.0397 5.05197 11.0631 4.9955 11.2749C4.92962 11.5385 5.00963 12.922 5.06608 13.3221C5.12256 13.7219 5.25432 14.2961 5.59785 15.1101V15.1149Z" fill="#FFF188"/>
<path d="M14.053 4.75173C14.9848 5.01527 15.8413 5.45762 16.5895 6.03174C16.6553 6.0835 16.6648 6.21997 16.6695 6.34704V6.38468C12.5142 4.17761 9.27178 5.23645 8.18942 6.05526C7.90707 6.25762 7.74236 6.53527 7.62942 6.73762C7.55883 6.86938 7.50236 6.96351 7.44119 6.99173C7.41295 6.99173 7.37531 6.9588 7.33295 6.92114C7.26236 6.85997 7.18236 6.78468 7.09766 6.83174C6.23647 7.30233 5.31412 8.84586 4.72119 10.0458C5.11961 8.57835 5.95304 7.26586 7.11178 6.28115H7.12119C7.15883 6.29057 7.19648 6.29997 7.22943 6.29527C7.27648 6.30938 7.32354 6.31879 7.34707 6.29527C7.38472 6.26703 7.39413 6.20115 7.40825 6.13527C7.42236 6.06938 7.43648 6.0035 7.47413 5.97997C8.40102 5.28041 9.47777 4.80575 10.6196 4.59342C11.7612 4.38109 12.9365 4.43689 14.053 4.75645V4.75173Z" fill="#FFF389"/>
<path d="M18.5716 14.0189C19.108 12.9459 19.9881 10.0753 17.3668 7.53886C17.348 7.52005 17.3199 7.54828 17.3339 7.57181C18.0075 8.48257 18.4654 9.53437 18.6733 10.648C18.8812 11.7615 18.8335 12.9076 18.534 14.0001C18.5245 14.0237 18.5622 14.0425 18.5716 14.0189Z" fill="#FFF188"/>
<path d="M6.90479 15.7183C6.98008 16.1089 7.30478 16.7159 8.06713 17.2947C9.39289 18.2744 11.036 18.7251 12.6761 18.5589C14.3161 18.3927 15.8354 17.6215 16.9377 16.3959L17.2531 16.01C17.2802 15.9768 17.2952 15.9353 17.2953 15.8923V15.5442C17.4131 15.5676 17.6719 15.5866 17.766 15.4735C17.8742 15.3465 18.0625 14.2076 18.1143 13.4595C17.802 14.5882 17.1836 15.6086 16.3274 16.4078C15.4712 17.2068 14.4107 17.7535 13.2631 17.9874C12.1155 18.2211 10.9256 18.133 9.82504 17.7324C8.72444 17.332 7.7561 16.635 7.02713 15.7183C7.01301 15.7042 6.96597 15.7089 6.90479 15.7183Z" fill="#FFF187"/>
<path d="M18.1137 11.9998C18.1144 13.2702 17.7196 14.5095 16.984 15.5454C16.2484 16.5813 15.2086 17.3625 14.0089 17.7805C12.8092 18.1985 11.509 18.2326 10.2891 17.8781C9.06906 17.5236 7.98967 16.7981 7.20077 15.8022C7.16783 15.7551 6.77724 15.9104 6.7443 15.8681C6.68783 15.7928 6.89489 15.5528 6.83841 15.4775C6.77724 15.3833 6.51371 15.3693 6.45254 15.2705C6.37254 15.134 6.59371 14.8752 6.52312 14.7387C6.11088 13.9133 5.89067 13.0054 5.87891 12.0829C5.86718 11.1605 6.06422 10.2472 6.45531 9.41173C6.84639 8.57616 7.42139 7.83987 8.13728 7.25795C8.85316 6.67603 9.6914 6.26356 10.5892 6.05141C11.4871 5.83926 12.4212 5.83291 13.3219 6.03284C14.2225 6.23278 15.0662 6.63383 15.79 7.20596C16.5136 7.7781 17.0987 8.50652 17.501 9.33669C17.9034 10.1669 18.1128 11.0773 18.1137 11.9998Z" fill="#FFC943"/>
<path d="M5.94971 11.0722C6.37325 10.7192 7.00383 10.1498 7.07914 9.94747C7.11207 10.051 7.2156 10.2345 7.31914 10.1828C7.37561 10.1545 7.4509 9.98514 7.54501 9.77807C7.67678 9.49102 7.84148 9.12867 8.02972 8.97808C8.09089 8.92161 8.14736 8.88397 8.20383 8.8369C8.44854 8.64866 8.6556 8.49808 8.8156 8.02278C8.90501 8.07455 9.12619 8.15454 9.2909 8.02278C9.3756 7.9522 9.40854 7.83454 9.44148 7.69337C9.49795 7.48162 9.55914 7.23219 9.82266 7.08161C10.2074 6.90002 10.6221 6.79 11.0462 6.7569C11.6769 6.62043 13.178 6.46985 14.1239 6.95455C14.8721 7.34042 15.4086 7.90985 15.7568 8.2769C15.9592 8.49337 16.0957 8.63926 16.1756 8.63926C16.2368 8.63926 16.3026 8.62514 16.3638 8.61102C16.5333 8.57338 16.7121 8.53573 16.8297 8.71926C16.8673 8.78043 16.905 8.87455 16.9521 8.98749C17.0933 9.33102 17.3003 9.84393 17.7992 10.0604C17.3642 8.75874 16.5044 7.6411 15.3576 6.88714C14.2108 6.13321 12.8437 5.78677 11.4763 5.90354C10.1088 6.02029 8.82038 6.59346 7.81802 7.5309C6.81566 8.46835 6.15764 9.71562 5.94971 11.0722Z" fill="#DAA537"/>
<path d="M12.0298 7.12531C12.5184 7.12531 12.9145 6.92516 12.9145 6.67826C12.9145 6.43135 12.5184 6.2312 12.0298 6.2312C11.5411 6.2312 11.145 6.43135 11.145 6.67826C11.145 6.92516 11.5411 7.12531 12.0298 7.12531Z" fill="#D8A336"/>
<path d="M12.0298 6.98786C12.5184 6.98786 12.9145 6.78771 12.9145 6.54081C12.9145 6.29389 12.5184 6.09375 12.0298 6.09375C11.5411 6.09375 11.145 6.29389 11.145 6.54081C11.145 6.78771 11.5411 6.98786 12.0298 6.98786Z" fill="#FFF187"/>
<path d="M11.2676 6.76747C11.6206 6.57923 12.2041 6.41453 12.9146 6.56512C12.8911 6.80041 12.5053 6.98865 12.0299 6.98865C11.7583 7.0017 11.4901 6.92387 11.2676 6.76747Z" fill="#FFE35A"/>
<path d="M10.4911 7.05746C10.5873 7.05746 10.6653 6.97951 10.6653 6.88334C10.6653 6.78719 10.5873 6.70923 10.4911 6.70923C10.3949 6.70923 10.3169 6.78719 10.3169 6.88334C10.3169 6.97951 10.3949 7.05746 10.4911 7.05746Z" fill="#D8A336"/>
<path d="M10.4911 6.97006C10.5873 6.97006 10.6653 6.89211 10.6653 6.79595C10.6653 6.69978 10.5873 6.62183 10.4911 6.62183C10.3949 6.62183 10.3169 6.69978 10.3169 6.79595C10.3169 6.89211 10.3949 6.97006 10.4911 6.97006Z" fill="#FFE35A"/>
<path d="M8.10039 8.37169C8.19655 8.37169 8.27451 8.29373 8.27451 8.19756C8.27451 8.1014 8.19655 8.02344 8.10039 8.02344C8.00423 8.02344 7.92627 8.1014 7.92627 8.19756C7.92627 8.29373 8.00423 8.37169 8.10039 8.37169Z" fill="#FFE35A"/>
<path d="M6.76836 10.7811C6.86452 10.7811 6.94248 10.7031 6.94248 10.607C6.94248 10.5108 6.86452 10.4329 6.76836 10.4329C6.6722 10.4329 6.59424 10.5108 6.59424 10.607C6.59424 10.7031 6.6722 10.7811 6.76836 10.7811Z" fill="#FFE35A"/>
<path d="M8.72213 7.7635C8.71266 7.75081 8.70596 7.73626 8.70248 7.72081C8.69899 7.70536 8.6988 7.68934 8.7019 7.67382C8.70502 7.65828 8.71135 7.64358 8.7205 7.63065C8.72967 7.61773 8.74145 7.60688 8.75507 7.5988L9.53154 7.06233C9.54382 7.05342 9.55775 7.04706 9.57252 7.04366C9.5873 7.04026 9.60261 7.03985 9.61754 7.04249C9.63247 7.04512 9.64671 7.05074 9.65943 7.059C9.67214 7.06726 9.68307 7.078 9.69154 7.09056L9.73861 7.16115C9.77625 7.21291 9.76213 7.2835 9.71037 7.32114L8.9339 7.86233C8.92134 7.87101 8.90715 7.87707 8.89219 7.88013C8.87723 7.88317 8.8618 7.88316 8.84685 7.88008C8.83189 7.877 8.81771 7.87092 8.80518 7.86221C8.79264 7.8535 8.78199 7.84233 8.7739 7.82938L8.72684 7.7588L8.72213 7.7635Z" fill="#D8A336"/>
<path d="M8.72132 7.6463C8.71263 7.63374 8.70658 7.61955 8.70353 7.6046C8.70048 7.58963 8.70049 7.5742 8.70357 7.55924C8.70665 7.54429 8.71274 7.53012 8.72144 7.51758C8.73016 7.50504 8.74131 7.4944 8.75427 7.48629L9.53073 6.94512C9.54329 6.93643 9.55748 6.93038 9.57243 6.92732C9.5874 6.92428 9.60283 6.92428 9.61779 6.92737C9.63274 6.93044 9.64691 6.93652 9.65945 6.94524C9.67199 6.95396 9.68263 6.96512 9.69074 6.97805L9.73779 7.04864C9.77544 7.09571 9.76132 7.171 9.70955 7.20864L8.93309 7.74513C8.92081 7.75403 8.90688 7.76037 8.89211 7.76378C8.87733 7.7672 8.86203 7.76759 8.84709 7.76496C8.83217 7.76232 8.81791 7.75671 8.8052 7.74845C8.79248 7.74018 8.78156 7.72945 8.77308 7.71689L8.72603 7.6463H8.72132ZM7.00366 9.66041C6.98996 9.65311 6.9779 9.64305 6.96826 9.63088C6.95862 9.6187 6.95158 9.60466 6.94762 9.58965C6.94364 9.57464 6.9428 9.55896 6.94516 9.54361C6.94753 9.52825 6.95302 9.51355 6.96131 9.50042L7.45074 8.6863C7.45846 8.67363 7.4686 8.66259 7.48058 8.65384C7.49256 8.64509 7.50615 8.63879 7.52058 8.63529C7.535 8.63179 7.54996 8.63117 7.56463 8.63347C7.5793 8.63576 7.59336 8.64092 7.60603 8.64865L7.68132 8.69571C7.73308 8.72394 7.7519 8.79453 7.71896 8.85101L7.23426 9.66041C7.22693 9.67348 7.21707 9.68496 7.20526 9.69418C7.19346 9.70339 7.17994 9.71017 7.16549 9.71411C7.15103 9.71805 7.13594 9.71908 7.12108 9.71713C7.10623 9.71518 7.09192 9.71029 7.07897 9.70277L7.00366 9.65571V9.66041Z" fill="#FFE25A"/>
<path d="M13.5731 7.05746C13.4769 7.05746 13.3989 6.97951 13.3989 6.88334C13.3989 6.78719 13.4769 6.70923 13.5731 6.70923C13.6692 6.70923 13.7471 6.78719 13.7471 6.88334C13.7471 6.97951 13.6692 7.05746 13.5731 7.05746Z" fill="#D8A336"/>
<path d="M13.5731 6.97006C13.4769 6.97006 13.3989 6.89211 13.3989 6.79595C13.3989 6.69978 13.4769 6.62183 13.5731 6.62183C13.6692 6.62183 13.7471 6.69978 13.7471 6.79595C13.7471 6.89211 13.6692 6.97006 13.5731 6.97006Z" fill="#FFE35A"/>
<path d="M15.9638 8.46078C15.8676 8.46078 15.7896 8.38283 15.7896 8.28666C15.7896 8.19051 15.8676 8.11255 15.9638 8.11255C16.0599 8.11255 16.1378 8.19051 16.1378 8.28666C16.1378 8.38283 16.0599 8.46078 15.9638 8.46078Z" fill="#D8A336"/>
<path d="M15.9638 8.37167C15.8676 8.37167 15.7896 8.29373 15.7896 8.19756C15.7896 8.1014 15.8676 8.02344 15.9638 8.02344C16.0599 8.02344 16.1378 8.1014 16.1378 8.19756C16.1378 8.29373 16.0599 8.37167 15.9638 8.37167Z" fill="#FFE35A"/>
<path d="M17.2957 10.8763C17.1996 10.8763 17.1216 10.7984 17.1216 10.7023C17.1216 10.6061 17.1996 10.5281 17.2957 10.5281C17.392 10.5281 17.4699 10.6061 17.4699 10.7023C17.4699 10.7984 17.392 10.8763 17.2957 10.8763Z" fill="#D8A336"/>
<path d="M17.2957 10.7811C17.1996 10.7811 17.1216 10.7031 17.1216 10.607C17.1216 10.5108 17.1996 10.4329 17.2957 10.4329C17.392 10.4329 17.4699 10.5108 17.4699 10.607C17.4699 10.7031 17.392 10.7811 17.2957 10.7811Z" fill="#FFE35A"/>
<path d="M15.3381 7.7635C15.3478 7.7511 15.3548 7.73682 15.3587 7.72156C15.3625 7.7063 15.3631 7.69042 15.3604 7.67491C15.3578 7.6594 15.352 7.64462 15.3432 7.63152C15.3345 7.61841 15.3232 7.60726 15.3099 7.5988L14.5335 7.06233C14.5212 7.05342 14.5072 7.04706 14.4924 7.04366C14.4777 7.04026 14.4624 7.03985 14.4474 7.04249C14.4324 7.04512 14.4183 7.05074 14.4056 7.059C14.3928 7.06726 14.382 7.078 14.3734 7.09056L14.3264 7.16115C14.3173 7.17313 14.3106 7.18682 14.3068 7.20141C14.303 7.216 14.3023 7.23119 14.3044 7.2461C14.3066 7.26102 14.3118 7.27534 14.3196 7.28822C14.3274 7.30112 14.3377 7.3123 14.3499 7.32114L15.1311 7.86233C15.1781 7.89526 15.2535 7.88114 15.2912 7.82938L15.3381 7.7588V7.7635Z" fill="#D8A336"/>
<path d="M15.3381 7.6463C15.347 7.63402 15.3534 7.62009 15.3568 7.60532C15.3602 7.59054 15.3607 7.57524 15.358 7.5603C15.3554 7.54537 15.3498 7.53113 15.3414 7.51841C15.3332 7.50569 15.3224 7.49477 15.3099 7.48629L14.5335 6.94512C14.5208 6.93643 14.5067 6.93038 14.4918 6.92732C14.4768 6.92428 14.4613 6.92428 14.4464 6.92737C14.4315 6.93044 14.4173 6.93652 14.4047 6.94524C14.3922 6.95396 14.3816 6.96512 14.3734 6.97805L14.3264 7.04864C14.3173 7.06063 14.3106 7.07432 14.3068 7.08892C14.303 7.10349 14.3023 7.1187 14.3044 7.13361C14.3066 7.14852 14.3118 7.16284 14.3196 7.17573C14.3274 7.18861 14.3377 7.1998 14.3499 7.20864L15.1311 7.74513C15.1781 7.78277 15.2535 7.76864 15.2912 7.71688L15.3381 7.6463Z" fill="#FFE25A"/>
<path d="M17.0131 9.76463C17.0264 9.75693 17.0381 9.74658 17.0473 9.73421C17.0564 9.72186 17.0629 9.70775 17.0665 9.69276C17.07 9.67779 17.0705 9.66223 17.0677 9.64708C17.065 9.63193 17.0593 9.61748 17.0508 9.60464L16.5661 8.79522C16.5588 8.78217 16.5489 8.77069 16.5371 8.76146C16.5253 8.75224 16.5117 8.74547 16.4973 8.74153C16.4829 8.73758 16.4677 8.73656 16.4529 8.7385C16.4381 8.74045 16.4237 8.74534 16.4107 8.75287L16.3355 8.79993C16.3225 8.80726 16.3109 8.81711 16.3017 8.82893C16.2925 8.84074 16.2857 8.85425 16.2818 8.86871C16.2779 8.88316 16.2768 8.89825 16.2788 8.9131C16.2807 8.92796 16.2856 8.94228 16.2931 8.95522L16.7825 9.76935C16.8108 9.82109 16.8813 9.83998 16.9378 9.80703L17.0131 9.75994V9.76463Z" fill="#D8A336"/>
<path d="M17.0591 9.66111C17.0724 9.6534 17.084 9.64304 17.0931 9.63068C17.1023 9.61833 17.1089 9.60422 17.1124 9.58924C17.116 9.57425 17.1164 9.55871 17.1136 9.54355C17.1108 9.5284 17.1052 9.51396 17.0967 9.50111L16.612 8.68699C16.6042 8.67432 16.5941 8.6633 16.582 8.65455C16.5701 8.64579 16.5566 8.63948 16.5421 8.63599C16.5277 8.6325 16.5128 8.63187 16.498 8.63417C16.4833 8.63646 16.4693 8.64161 16.4567 8.64935L16.3813 8.6964C16.3683 8.70374 16.3568 8.71359 16.3476 8.7254C16.3384 8.73721 16.3316 8.75074 16.3276 8.76519C16.3237 8.77963 16.3227 8.79473 16.3247 8.80958C16.3267 8.82443 16.3315 8.83875 16.3391 8.8517L16.8284 9.66111C16.8614 9.71758 16.932 9.73641 16.9837 9.70347L17.0591 9.65641V9.66111Z" fill="#FFE25A"/>
<path d="M10.4911 17.1001C10.5873 17.1001 10.6653 17.1781 10.6653 17.2742C10.6653 17.3705 10.5873 17.4484 10.4911 17.4484C10.3949 17.4484 10.3169 17.3705 10.3169 17.2742C10.3169 17.1781 10.3949 17.1001 10.4911 17.1001Z" fill="#D8A336"/>
<path d="M10.4911 17.1907C10.5873 17.1907 10.6653 17.2687 10.6653 17.3649C10.6653 17.461 10.5873 17.539 10.4911 17.539C10.3949 17.539 10.3169 17.461 10.3169 17.3649C10.3169 17.2687 10.3949 17.1907 10.4911 17.1907Z" fill="#FFE35A"/>
<path d="M8.10039 15.6985C8.19655 15.6985 8.27451 15.7765 8.27451 15.8727C8.27451 15.9689 8.19655 16.0468 8.10039 16.0468C8.00423 16.0468 7.92627 15.9689 7.92627 15.8727C7.92627 15.7765 8.00423 15.6985 8.10039 15.6985Z" fill="#D8A336"/>
<path d="M8.10039 15.7937C8.19655 15.7937 8.27451 15.8717 8.27451 15.9678C8.27451 16.064 8.19655 16.142 8.10039 16.142C8.00423 16.142 7.92627 16.064 7.92627 15.9678C7.92627 15.8717 8.00423 15.7937 8.10039 15.7937Z" fill="#FFE35A"/>
<path d="M6.76836 13.3782C6.86452 13.3782 6.94248 13.4562 6.94248 13.5524C6.94248 13.6486 6.86452 13.7265 6.76836 13.7265C6.6722 13.7265 6.59424 13.6486 6.59424 13.5524C6.59424 13.4562 6.6722 13.3782 6.76836 13.3782Z" fill="#FFE35A"/>
<path d="M8.72172 16.3999C8.71304 16.4125 8.70699 16.4266 8.70394 16.4417C8.70088 16.4566 8.7009 16.472 8.70398 16.487C8.70706 16.5019 8.71314 16.5161 8.72185 16.5286C8.73056 16.5411 8.74173 16.5518 8.75466 16.5599L9.53114 17.0964C9.5829 17.1341 9.65349 17.1199 9.69114 17.0682L9.7382 16.9976C9.7471 16.9853 9.75346 16.9714 9.75686 16.9566C9.76027 16.9418 9.76066 16.9266 9.75803 16.9116C9.7554 16.8967 9.74978 16.8824 9.74153 16.8697C9.73327 16.857 9.72254 16.8461 9.70996 16.8376L8.9335 16.3011C8.92122 16.2922 8.90728 16.2858 8.89251 16.2825C8.87774 16.279 8.86242 16.2786 8.8475 16.2813C8.83257 16.2839 8.81832 16.2895 8.8056 16.2978C8.79289 16.3061 8.78198 16.3168 8.77349 16.3294L8.72643 16.3999H8.72172Z" fill="#D8A336"/>
<path d="M8.72149 16.5172C8.70544 16.5423 8.69991 16.5725 8.70608 16.6016C8.71224 16.6307 8.72961 16.6561 8.75444 16.6724L9.5309 17.2137C9.58267 17.2514 9.65326 17.2372 9.6909 17.1855L9.73797 17.1148C9.74687 17.1026 9.75322 17.0886 9.75663 17.0739C9.76003 17.0591 9.76043 17.0438 9.75779 17.0289C9.75516 17.0139 9.74955 16.9997 9.74129 16.9869C9.73303 16.9742 9.7223 16.9633 9.70972 16.9549L8.93326 16.4136C8.92099 16.4047 8.90705 16.3984 8.89227 16.395C8.8775 16.3915 8.8622 16.3912 8.84726 16.3939C8.83233 16.3965 8.81808 16.4021 8.80537 16.4103C8.79265 16.4186 8.78173 16.4294 8.77325 16.4419L8.7262 16.5125L8.72149 16.5172Z" fill="#FFE25A"/>
<path d="M7.05181 14.3995C7.03876 14.4069 7.02728 14.4168 7.01806 14.4286C7.00885 14.4404 7.00206 14.4539 6.99812 14.4683C6.99418 14.4828 6.99315 14.4978 6.9951 14.5127C6.99706 14.5276 7.00193 14.5418 7.00947 14.5548L7.49888 15.369C7.53182 15.4207 7.6024 15.4395 7.65418 15.4066L7.72947 15.3596C7.74214 15.3518 7.75316 15.3417 7.76192 15.3297C7.77067 15.3178 7.77697 15.3041 7.78048 15.2898C7.78396 15.2752 7.7846 15.2603 7.7823 15.2457C7.78 15.231 7.77484 15.217 7.76711 15.2043L7.2824 14.3901C7.27468 14.3774 7.26455 14.3664 7.25256 14.3577C7.24058 14.349 7.22699 14.3426 7.21257 14.3391C7.19814 14.3357 7.18317 14.335 7.16851 14.3373C7.15384 14.3396 7.13978 14.3447 7.12711 14.3525L7.05181 14.3995Z" fill="#D8A336"/>
<path d="M7.00347 14.5032C6.99041 14.5104 6.97893 14.5203 6.96971 14.5321C6.96049 14.5439 6.95371 14.5574 6.94977 14.5719C6.94584 14.5864 6.94481 14.6014 6.94675 14.6163C6.9487 14.6312 6.95358 14.6455 6.96111 14.6584L7.45053 15.4725C7.47876 15.5289 7.54935 15.5431 7.60582 15.5102L7.68112 15.4678C7.69444 15.4601 7.70605 15.4498 7.71522 15.4374C7.72439 15.4251 7.73095 15.4109 7.73447 15.396C7.738 15.3809 7.73842 15.3655 7.73573 15.3503C7.73302 15.3352 7.72725 15.3207 7.71876 15.3078L7.23406 14.4984C7.22673 14.4854 7.21686 14.4738 7.20506 14.4646C7.19325 14.4554 7.17973 14.4487 7.16528 14.4448C7.15083 14.4408 7.13574 14.4397 7.12088 14.4416C7.10603 14.4436 7.09171 14.4484 7.07877 14.456L7.00347 14.5032Z" fill="#FFE25A"/>
<path d="M13.5731 17.4482C13.6692 17.4482 13.7473 17.3702 13.7473 17.2741C13.7473 17.1779 13.6692 17.1001 13.5731 17.1001C13.4769 17.1001 13.3989 17.1779 13.3989 17.2741C13.3989 17.3702 13.4769 17.4482 13.5731 17.4482Z" fill="#D8A336"/>
<path d="M13.5731 17.5436C13.6692 17.5436 13.7473 17.4656 13.7473 17.3694C13.7473 17.2732 13.6692 17.1953 13.5731 17.1953C13.4769 17.1953 13.3989 17.2732 13.3989 17.3694C13.3989 17.4656 13.4769 17.5436 13.5731 17.5436Z" fill="#FFE35A"/>
<path d="M15.9638 16.0468C16.0599 16.0468 16.1378 15.9688 16.1378 15.8726C16.1378 15.7764 16.0599 15.6985 15.9638 15.6985C15.8676 15.6985 15.7896 15.7764 15.7896 15.8726C15.7896 15.9688 15.8676 16.0468 15.9638 16.0468Z" fill="#D8A336"/>
<path d="M15.9638 16.142C16.0599 16.142 16.1378 16.064 16.1378 15.9678C16.1378 15.8717 16.0599 15.7937 15.9638 15.7937C15.8676 15.7937 15.7896 15.8717 15.7896 15.9678C15.7896 16.064 15.8676 16.142 15.9638 16.142Z" fill="#FFE35A"/>
<path d="M17.2957 13.6327C17.3918 13.6327 17.4698 13.5547 17.4698 13.4585C17.4698 13.3624 17.3918 13.2844 17.2957 13.2844C17.1996 13.2844 17.1216 13.3624 17.1216 13.4585C17.1216 13.5547 17.1996 13.6327 17.2957 13.6327Z" fill="#D8A336"/>
<path d="M17.2957 13.7265C17.3918 13.7265 17.4698 13.6486 17.4698 13.5524C17.4698 13.4562 17.3918 13.3782 17.2957 13.3782C17.1996 13.3782 17.1216 13.4562 17.1216 13.5524C17.1216 13.6486 17.1996 13.7265 17.2957 13.7265Z" fill="#FFE35A"/>
<path d="M15.3381 16.3999C15.3758 16.4517 15.3616 16.5222 15.3099 16.5599L14.5335 17.0964C14.5212 17.1054 14.5072 17.1117 14.4924 17.1151C14.4777 17.1185 14.4624 17.1188 14.4474 17.1162C14.4324 17.1136 14.4183 17.108 14.4056 17.0998C14.3928 17.0915 14.382 17.0807 14.3734 17.0682L14.3264 16.9976C14.3173 16.9856 14.3106 16.9719 14.3068 16.9573C14.303 16.9427 14.3023 16.9275 14.3044 16.9126C14.3066 16.8977 14.3118 16.8834 14.3196 16.8705C14.3274 16.8576 14.3377 16.8464 14.3499 16.8376L15.1311 16.3011C15.1433 16.2922 15.1573 16.2858 15.1721 16.2825C15.1868 16.279 15.2022 16.2786 15.2172 16.2813C15.232 16.2839 15.2462 16.2895 15.259 16.2978C15.2717 16.3061 15.2826 16.3168 15.2912 16.3294L15.3381 16.3999Z" fill="#D8A336"/>
<path d="M15.3381 16.5172C15.3758 16.5643 15.3616 16.6395 15.3099 16.6724L14.5335 17.2137C14.5212 17.2226 14.5072 17.229 14.4924 17.2323C14.4777 17.2358 14.4624 17.2362 14.4474 17.2335C14.4324 17.2309 14.4183 17.2252 14.4056 17.217C14.3928 17.2087 14.382 17.198 14.3734 17.1855L14.3264 17.1148C14.3173 17.1029 14.3106 17.0891 14.3068 17.0746C14.303 17.0599 14.3023 17.0448 14.3044 17.0299C14.3066 17.0149 14.3118 17.0007 14.3196 16.9878C14.3274 16.9748 14.3377 16.9636 14.3499 16.9549L15.1311 16.4136C15.1433 16.4047 15.1573 16.3984 15.1721 16.395C15.1868 16.3915 15.2022 16.3912 15.2172 16.3939C15.232 16.3965 15.2462 16.4021 15.259 16.4103C15.2717 16.4186 15.2826 16.4294 15.2912 16.4419L15.3381 16.5125V16.5172Z" fill="#FFE25A"/>
<path d="M17.0131 14.3995C17.0649 14.4278 17.0837 14.4984 17.0508 14.5548L16.5661 15.369C16.5583 15.3816 16.5482 15.3926 16.5362 15.4014C16.5243 15.4102 16.5106 15.4165 16.4963 15.4199C16.4817 15.4234 16.4669 15.4242 16.4521 15.4218C16.4375 15.4195 16.4235 15.4143 16.4107 15.4066L16.3355 15.3596C16.3225 15.3522 16.3109 15.3423 16.3017 15.3306C16.2925 15.3187 16.2857 15.3052 16.2818 15.2908C16.2779 15.2763 16.2768 15.2612 16.2788 15.2463C16.2807 15.2315 16.2856 15.2173 16.2931 15.2043L16.7825 14.3901C16.7902 14.3774 16.8005 14.3664 16.8124 14.3577C16.8244 14.349 16.838 14.3426 16.8524 14.3391C16.8668 14.3357 16.8818 14.335 16.8964 14.3373C16.9111 14.3396 16.9252 14.3447 16.9378 14.3525L17.0131 14.3995Z" fill="#D8A336"/>
<path d="M17.0602 14.5032C17.1119 14.5361 17.1308 14.6066 17.0979 14.6584L16.6131 15.4725C16.6054 15.4852 16.5953 15.4962 16.5832 15.505C16.5713 15.5137 16.5578 15.52 16.5433 15.5236C16.5289 15.527 16.5139 15.5276 16.4992 15.5253C16.4845 15.523 16.4705 15.5179 16.4578 15.5102L16.3825 15.4678C16.3688 15.4605 16.3568 15.4504 16.3471 15.4383C16.3375 15.426 16.3305 15.4121 16.3265 15.3971C16.3226 15.382 16.3217 15.3664 16.324 15.3509C16.3264 15.3357 16.3319 15.321 16.3402 15.3078L16.8296 14.4984C16.8369 14.4854 16.8468 14.4738 16.8586 14.4646C16.8704 14.4554 16.8838 14.4487 16.8984 14.4448C16.9129 14.4408 16.9279 14.4397 16.9427 14.4416C16.9577 14.4436 16.9719 14.4484 16.9849 14.456L17.0602 14.5032Z" fill="#FFE25A"/>
<path d="M6.10042 12.2302C6.08159 11.5714 6.39689 11.3173 6.56159 11.2749C6.76865 11.2749 7.00865 11.6184 7.00865 12.2302C7.00865 12.7573 6.66513 13.1149 6.56159 13.1149C6.49101 13.1149 6.11924 12.9267 6.10042 12.2302Z" fill="#D8A336"/>
<path d="M6.10042 12.0942C6.08159 11.4307 6.39689 11.1813 6.56159 11.1389C6.76865 11.1389 7.00865 11.4825 7.00865 12.0942C7.00865 12.6213 6.66513 12.9789 6.56159 12.9789C6.49101 12.9789 6.11924 12.7907 6.10042 12.0942Z" fill="#FFF187"/>
<path d="M6.89466 11.4546C6.96054 11.6146 7.00761 11.8311 7.00761 12.0947C7.00761 12.6217 6.66407 12.9793 6.56055 12.9793C6.50879 12.9793 6.29702 12.8805 6.18408 12.5558L6.88996 11.4546H6.89466Z" fill="#FFE259"/>
<path d="M17.9649 12.2302C17.9836 11.5714 17.6637 11.3173 17.5037 11.2749C17.2966 11.2749 17.0566 11.6184 17.0566 12.2302C17.0566 12.7573 17.4002 13.1149 17.5037 13.1149C17.5743 13.1149 17.946 12.9267 17.9649 12.2302Z" fill="#D8A336"/>
<path d="M17.9649 12.0942C17.9836 11.4307 17.6637 11.1813 17.5037 11.1389C17.2966 11.1389 17.0566 11.4825 17.0566 12.0942C17.0566 12.6213 17.4002 12.9789 17.5037 12.9789C17.5743 12.9789 17.946 12.7907 17.9649 12.0942Z" fill="#FFF187"/>
<path d="M17.1695 11.4546C17.099 11.6146 17.0566 11.8311 17.0566 12.0947C17.0566 12.6217 17.4002 12.9793 17.5037 12.9793C17.5507 12.9793 17.7625 12.8805 17.8801 12.5558L17.1742 11.4546H17.1695Z" fill="#FFE259"/>
<path d="M11.2338 8.87872C11.4456 8.6999 11.9962 8.70459 11.9962 8.70459C11.9962 8.70459 12.5468 8.70459 12.7585 8.87872L13.5349 7.95166L13.7892 9.73519C14.9844 11.9187 15.9821 16.1257 11.9962 16.1822C8.01028 16.1257 9.00793 11.9187 10.2032 9.73519L10.4574 7.95166L11.2338 8.87872Z" fill="#E5AF38"/>
<path fill-rule="evenodd" clip-rule="evenodd" d="M11.9969 8.31125H12.0298C12.2181 8.31526 12.4057 8.33733 12.5898 8.37713L13.131 7.65243C13.19 7.57037 13.2725 7.50797 13.3674 7.47338C13.4625 7.43878 13.5657 7.43359 13.6636 7.45847C13.7617 7.48334 13.8498 7.53715 13.9168 7.61287C13.9839 7.68859 14.0265 7.78273 14.0393 7.88302L14.2793 9.57714C14.8815 10.7065 15.4462 12.3631 15.3381 13.7984C15.3105 14.556 15.0037 15.2767 14.4769 15.8219C13.9122 16.3771 13.0886 16.6736 12.0016 16.6925H11.9969C10.9098 16.6736 10.0863 16.3771 9.52155 15.8219C8.9947 15.2767 8.68798 14.556 8.66038 13.7984C8.55215 12.3631 9.11685 10.7065 9.7192 9.57714L9.95922 7.88302C9.97119 7.78235 10.0133 7.68765 10.0799 7.61129C10.1467 7.53493 10.2348 7.48048 10.3329 7.45506C10.4311 7.42963 10.5346 7.43443 10.6299 7.4688C10.7253 7.50317 10.8081 7.56553 10.8674 7.64772L11.4086 8.37713C11.5921 8.33273 11.78 8.3106 11.9686 8.31125H11.9969ZM11.258 8.86185C11.4793 8.70655 11.9969 8.70655 11.9969 8.70655C11.9969 8.70655 12.5097 8.70655 12.7357 8.86185L12.7593 8.88066L13.5357 7.9536L13.7899 9.73713C14.9851 11.9207 15.9828 16.1278 11.9969 16.1842C8.01097 16.1278 9.00862 11.9207 10.2039 9.73713L10.458 7.9536L11.2345 8.88066C11.2421 8.87407 11.25 8.86778 11.258 8.86185Z" fill="#FFE35A"/>
<path d="M14.0488 10.2501C13.9688 10.0666 13.8793 9.89714 13.79 9.73242L13.5358 7.9536L12.7593 8.88066C12.7518 8.87407 12.7439 8.86778 12.7359 8.86185C12.5146 8.70655 11.997 8.70655 11.997 8.70655C11.997 8.70655 11.4841 8.70655 11.2582 8.86185C11.2501 8.86778 11.2422 8.87407 11.2346 8.88066L10.4582 7.9536L10.2041 9.73713C10.044 10.0289 9.88875 10.3489 9.74758 10.7019L8.99463 11.2995C9.19228 10.669 9.45111 10.0713 9.71464 9.57714L9.95463 7.88302C9.9666 7.78235 10.0087 7.68765 10.0754 7.61129C10.1421 7.53493 10.2303 7.48048 10.3284 7.45506C10.4265 7.42963 10.5301 7.43443 10.6254 7.4688C10.7208 7.50317 10.8036 7.56553 10.8629 7.64772L11.4041 8.29713C11.595 8.2508 11.7911 8.22866 11.9876 8.23125H12.0065C12.1262 8.23049 12.2459 8.23993 12.3641 8.25949L12.59 8.29713L13.1312 7.65243C13.1901 7.57037 13.2726 7.50797 13.3676 7.47338C13.4625 7.43878 13.5657 7.43359 13.6637 7.45847C13.7617 7.48334 13.85 7.53715 13.917 7.61287C13.9841 7.68859 14.0266 7.78273 14.0393 7.88302L14.2794 9.57714C14.8817 10.7065 15.4464 12.3631 15.3382 13.7984C15.3167 14.1104 15.2566 14.4187 15.1593 14.716C15.4089 12.3819 14.6041 10.8572 14.0488 10.2454V10.2501Z" fill="#FFF187"/>
<path d="M9.17297 13.928H9.15885C9.14943 14.6527 9.55413 16.1962 11.2295 16.5633C11.9589 16.7233 12.5612 16.6574 13.0318 16.5022C13.4613 16.3582 13.844 16.1007 14.1389 15.7568C14.4339 15.413 14.6302 14.9957 14.7071 14.5492H14.6836C14.3682 15.4903 13.573 16.1586 11.9964 16.1821C10.0906 16.1538 9.32826 15.1798 9.17297 13.9327V13.928Z" fill="#FFF992"/>
<path d="M8.68266 14.0899H8.67325C8.56972 14.6311 8.53208 15.784 9.22384 16.1276C9.24266 16.1369 9.26619 16.1369 9.28972 16.1369C9.35091 16.1369 9.4309 16.1369 9.57208 16.3016C9.84029 16.584 10.5697 17.1488 11.3039 17.1017C12.2262 17.0452 12.5839 17.0123 12.8003 16.9794C12.885 16.9652 13.0073 16.9323 13.1533 16.8946C13.3885 16.8335 13.6709 16.7582 13.9392 16.7253C14.3768 16.6687 14.5603 16.6217 14.7391 16.3487C14.8239 16.2217 14.8662 16.1323 14.8945 16.0664C14.9321 15.9864 14.9557 15.9393 15.0168 15.9063C15.1344 15.8499 15.158 15.7935 15.158 15.6899C15.158 15.6428 15.1957 15.657 15.2521 15.6758C15.3133 15.6994 15.3979 15.7323 15.478 15.6899C15.6285 15.6099 15.6192 13.8405 15.3649 13.0923H15.3415C15.3557 13.3323 15.3557 13.5675 15.3415 13.7981C15.3126 14.5564 15.0041 15.2771 14.4756 15.8217C13.9109 16.377 13.0874 16.6735 12.0004 16.6923H11.9957C10.9086 16.6735 10.085 16.377 9.52031 15.8217C9.0572 15.3536 8.76399 14.7439 8.68737 14.0899H8.68266Z" fill="#DEAC3B"/>
<path d="M12.0298 17.0344C12.5184 17.0344 12.9145 17.2346 12.9145 17.4816C12.9145 17.7284 12.5184 17.9285 12.0298 17.9285C11.5411 17.9285 11.145 17.7284 11.145 17.4816C11.145 17.2346 11.5411 17.0344 12.0298 17.0344Z" fill="#D8A336"/>
<path d="M12.0298 17.1704C12.5184 17.1704 12.9145 17.3706 12.9145 17.6174C12.9145 17.8644 12.5184 18.0645 12.0298 18.0645C11.5411 18.0645 11.145 17.8644 11.145 17.6174C11.145 17.3706 11.5411 17.1704 12.0298 17.1704Z" fill="#FFF187"/>
<path d="M11.2676 17.3931C11.6206 17.5812 12.2041 17.7507 12.9146 17.5954C12.8911 17.3601 12.5053 17.1719 12.0299 17.1719C11.7053 17.1719 11.423 17.2613 11.2676 17.3931Z" fill="#FFE35A"/>
<path d="M11.9964 13.745C12.9605 13.745 13.7423 12.9633 13.7423 11.9991C13.7423 11.0349 12.9605 10.2532 11.9964 10.2532C11.0321 10.2532 10.2505 11.0349 10.2505 11.9991C10.2505 12.9633 11.0321 13.745 11.9964 13.745Z" fill="#FFF086"/>
<path d="M10.3403 12.5557L11.2956 11.4968L12.5473 11.5439L13.7427 12.0662C13.7287 12.4758 13.5712 12.8674 13.2977 13.1725C13.0241 13.4777 12.652 13.6769 12.2464 13.7352C11.8408 13.7936 11.4274 13.7074 11.079 13.4917C10.7305 13.2761 10.4691 12.9447 10.3403 12.5557Z" fill="#FFE25A"/>
<path d="M11.9966 13.2189C12.6698 13.2189 13.2154 12.6732 13.2154 12.0001C13.2154 11.3269 12.6698 10.7812 11.9966 10.7812C11.3234 10.7812 10.7778 11.3269 10.7778 12.0001C10.7778 12.6732 11.3234 13.2189 11.9966 13.2189Z" fill="#C48635"/>
<path d="M11.9965 12.8047C12.441 12.8047 12.8013 12.4444 12.8013 12C12.8013 11.5556 12.441 11.1953 11.9965 11.1953C11.5521 11.1953 11.1919 11.5556 11.1919 12C11.1919 12.4444 11.5521 12.8047 11.9965 12.8047Z" fill="#B9B9B9"/>
<path d="M13.7372 12.1375C13.7075 12.5399 13.5394 12.9198 13.2613 13.2124C12.9832 13.5049 12.6124 13.692 12.212 13.7419C11.8114 13.7918 11.406 13.7014 11.0646 13.4861C10.7232 13.2709 10.4669 12.9439 10.3395 12.561C10.2925 12.9798 10.3584 13.8504 11.0312 14.0198C11.1206 14.0481 11.1724 14.0198 11.2148 13.9915C11.2524 13.968 11.2853 13.9446 11.3419 13.9774C11.4218 14.0528 11.6148 14.2081 11.7419 14.2081C11.8265 14.2081 11.8312 14.1562 11.8312 14.1093C11.8312 14.0622 11.8312 14.0245 11.8924 14.0245C11.9396 14.0245 11.9865 14.0434 12.0477 14.0669C12.1701 14.1093 12.3348 14.161 12.5465 14.128C12.8712 14.0716 13.9019 13.2904 13.7888 12.161L13.7419 12.1375H13.7372Z" fill="#C79631"/>
</g>
<defs>
<clipPath id="clip0_328_27700">
<rect width="24" height="24" fill="white"/>
</clipPath>
</defs>
</svg>
