<svg width="24" height="24" viewBox="0 0 24 24" fill="none" xmlns="http://www.w3.org/2000/svg">
<g clip-path="url(#clip0_328_23378)">
<path d="M24 0H0V24H24V0Z" fill="#00FFFF"/>
<path d="M13.6874 5.73374V11.4374L15.9374 10.0312V4.125L13.6874 5.73374ZM16.9838 11.0156L13.125 13.1249L15.9374 14.8125L21 11.8819L19.4474 10.9819C19.0719 10.7651 18.6446 10.6538 18.211 10.6597C17.7773 10.6656 17.3532 10.7885 16.9838 11.0156ZM15.9374 16.7812L11.4374 13.6874V16.7812L15.9374 19.8749V16.7812ZM10.3125 16.9106V12.5625L8.06248 13.6874V19.8749L9.2831 19.0257C10.0088 18.5532 10.3125 17.7994 10.3125 16.9106ZM11.0663 10.7962L8.27623 9.18749L3 12.3994L5.48061 14.0081L11.0663 10.7962ZM12.5625 7.44374L7.49998 4.125V6.20624C7.49998 6.90374 7.8656 7.55061 8.45623 7.89374L12.5625 10.3406V7.44374Z" fill="white"/>
</g>
<defs>
<clipPath id="clip0_328_23378">
<rect width="24" height="24" fill="white"/>
</clipPath>
</defs>
</svg>
