<svg width="24" height="24" viewBox="0 0 24 24" fill="none" xmlns="http://www.w3.org/2000/svg">
<g clip-path="url(#clip0_328_21175)">
<path d="M24 0H0V24H24V0Z" fill="#E31C38"/>
<path d="M18.8533 7.87543L14.689 11.9998L18.8489 16.133C19.604 14.8866 20.0021 13.457 20 11.9998C20 10.4887 19.5823 9.07985 18.8533 7.87543Z" fill="white"/>
<path d="M17.6975 6.38484L15.8042 8.26035C15.0619 7.5057 14.1118 6.989 13.075 6.77607C12.038 6.56314 10.9612 6.66359 9.98153 7.06464C9.0019 7.4657 8.16377 8.14921 7.57385 9.02815C6.98394 9.90709 6.66893 10.9418 6.66893 12.0003C6.66893 13.0588 6.98394 14.0934 7.57385 14.9724C8.16377 15.8514 9.0019 16.5349 9.98153 16.9358C10.9612 17.337 12.038 17.4374 13.075 17.2245C14.1118 17.0115 15.0619 16.4948 15.8042 15.7402L17.693 17.6201C16.5782 18.7494 15.1528 19.5218 13.5979 19.8387C12.0429 20.1558 10.4289 20.0032 8.96094 19.4004C7.49299 18.7976 6.23749 17.7718 5.3541 16.4535C4.47072 15.1352 3.99937 13.5839 4 11.9971C4.00062 10.4102 4.4732 8.8593 5.35762 7.54171C6.24205 6.22411 7.49837 5.19933 8.96679 4.59768C10.4352 3.99603 12.0494 3.8447 13.604 4.16294C15.1587 4.48117 16.5837 5.25459 17.6975 6.38484Z" fill="white"/>
</g>
<defs>
<clipPath id="clip0_328_21175">
<rect width="24" height="24" fill="white"/>
</clipPath>
</defs>
</svg>
