<svg width="24" height="24" viewBox="0 0 24 24" fill="none" xmlns="http://www.w3.org/2000/svg">
<g clip-path="url(#clip0_328_21192)">
<path d="M24 0H0V24H24V0Z" fill="url(#paint0_linear_328_21192)"/>
<path d="M9.77774 12.889C9.99996 16.2223 12.1956 18.3245 13.52 18.8578C11.9644 19.5423 8.37329 19.28 8.37329 12.6845C8.37329 6.05783 12.3512 4.68448 14.4578 4.45782L16.56 4.9156L18.2222 4.45782L18.6667 4.9156C18.1067 5.09337 17.28 6.13338 16.8889 6.66671C16.3289 5.56893 15 5.33338 14.4578 5.33338C11.88 5.33338 9.50218 8.77784 9.77774 12.889Z" fill="white"/>
<path d="M18.2222 4.45778C17.4977 4.66667 16.7955 5.52445 16.56 6.05778C16.344 5.69164 16.0338 5.39006 15.6618 5.18449C15.2898 4.97891 14.8693 4.87684 14.4445 4.8889C12.5599 4.8889 8.88882 7.63111 8.88882 12.6667C8.88882 17.6711 11.871 18.8889 14.4445 18.8889C16 18.8889 16.9555 17.88 16.7955 17.2578C16.7155 16.9511 16.751 16.3422 17.4977 16.3422C18.2443 16.3422 18.2933 16.8 18.2 17.2578C17.9643 18.4001 16.1555 20 13.111 20C10.0711 20 7.67104 16.3422 6.96882 14.7422C6.40882 13.4622 5.64437 12.991 5.33325 12.9156C5.70659 12.1822 6.5777 12.151 6.96882 12.2266C6.87217 10.1452 7.60484 8.11031 9.00617 6.56816C10.4075 5.02602 12.3632 4.10248 14.4445 4C15.3778 4 16.0934 4.30667 16.3289 4.45778C16.6511 4.17021 17.0658 4.00778 17.4977 4C17.7777 4 17.9999 4.22222 18.2222 4.45778Z" fill="white"/>
</g>
<defs>
<linearGradient id="paint0_linear_328_21192" x1="12.0003" y1="4.00003" x2="12.0003" y2="20.001" gradientUnits="userSpaceOnUse">
<stop stop-color="#7C4F14"/>
<stop offset="0.17" stop-color="#CF8C21"/>
<stop offset="0.28" stop-color="#F0B035"/>
<stop offset="0.43" stop-color="#734A08"/>
<stop offset="0.67" stop-color="#BC7908"/>
<stop offset="1" stop-color="#3E1E05"/>
</linearGradient>
<clipPath id="clip0_328_21192">
<rect width="24" height="24" fill="white"/>
</clipPath>
</defs>
</svg>
