<svg width="24" height="24" viewBox="0 0 24 24" fill="none" xmlns="http://www.w3.org/2000/svg">
<g clip-path="url(#clip0_328_21192)">
<path d="M24 0H0V24H24V0Z" fill="url(#paint0_linear_328_21192)"/>
<path d="M9.77774 12.8891C9.99996 16.2224 12.1956 18.3246 13.52 18.8579C11.9644 19.5424 8.37329 19.2801 8.37329 12.6846C8.37329 6.05789 12.3512 4.68455 14.4578 4.45789L16.56 4.91567L18.2222 4.45789L18.6667 4.91567C18.1067 5.09344 17.28 6.13345 16.8889 6.66678C16.3289 5.569 15 5.33345 14.4578 5.33345C11.88 5.33345 9.50218 8.7779 9.77774 12.8891Z" fill="white"/>
<path d="M18.2223 4.45778C17.4978 4.66667 16.7956 5.52445 16.5601 6.05778C16.3441 5.69164 16.0339 5.39006 15.6619 5.18449C15.2899 4.97891 14.8694 4.87684 14.4446 4.8889C12.56 4.8889 8.88894 7.63111 8.88894 12.6667C8.88894 17.6711 11.8711 18.8889 14.4446 18.8889C16.0001 18.8889 16.9556 17.88 16.7956 17.2578C16.7156 16.9511 16.7511 16.3422 17.4978 16.3422C18.2444 16.3422 18.2934 16.8 18.2001 17.2578C17.9644 18.4001 16.1556 20 13.1111 20C10.0712 20 7.67116 16.3422 6.96894 14.7422C6.40894 13.4622 5.64449 12.991 5.33337 12.9156C5.70671 12.1822 6.57782 12.151 6.96894 12.2266C6.87229 10.1452 7.60496 8.11031 9.00629 6.56816C10.4076 5.02602 12.3633 4.10248 14.4446 4C15.3779 4 16.0935 4.30667 16.329 4.45778C16.6512 4.17021 17.0659 4.00778 17.4978 4C17.7778 4 18 4.22222 18.2223 4.45778Z" fill="white"/>
</g>
<defs>
<linearGradient id="paint0_linear_328_21192" x1="12.0003" y1="4.00003" x2="12.0003" y2="20.001" gradientUnits="userSpaceOnUse">
<stop stop-color="#7C4F14"/>
<stop offset="0.17" stop-color="#CF8C21"/>
<stop offset="0.28" stop-color="#F0B035"/>
<stop offset="0.43" stop-color="#734A08"/>
<stop offset="0.67" stop-color="#BC7908"/>
<stop offset="1" stop-color="#3E1E05"/>
</linearGradient>
<clipPath id="clip0_328_21192">
<rect width="24" height="24" fill="white"/>
</clipPath>
</defs>
</svg>
