<svg width="24" height="24" viewBox="0 0 24 24" fill="none" xmlns="http://www.w3.org/2000/svg">
<g clip-path="url(#clip0_328_20225)">
<path d="M24 0H0V24H24V0Z" fill="url(#paint0_linear_328_20225)"/>
<path d="M9.17595 7.72014L10.2255 8.01196V11.9138C10.2727 12.3609 10.6303 13.406 11.6563 14.0272L14.1981 15.5616V16.8325L10.3715 14.4791C9.99191 14.2064 9.68457 13.8452 9.47623 13.4269C9.26789 13.0086 9.1648 12.5458 9.17595 12.0786V7.71543V7.72014ZM7.49564 7.24006L8.37108 7.48952C8.35583 7.62706 8.34797 7.76531 8.34756 7.9037V13.0199C8.39462 13.4671 8.76176 14.512 9.80663 15.1332L10.7243 15.6793L9.59485 16.244L8.49818 15.5851C8.11454 15.3151 7.80311 14.955 7.59137 14.5365C7.37962 14.118 7.274 13.6537 7.28383 13.1846V8.28494C7.28383 8.03079 7.33562 7.64954 7.49564 7.23535V7.24006ZM14.1981 17.7595L11.5387 16.1641L10.4092 16.743L12.9413 18.2773C13.1438 18.3997 13.3414 18.475 13.525 18.5221L14.2028 17.8066V17.7595H14.1981Z" fill="white"/>
<path d="M4.93945 9.33475V14.1592C4.93966 14.7761 5.09816 15.3825 5.39977 15.9207C5.70137 16.4588 6.13602 16.9104 6.66212 17.2326L10.4087 19.5389C10.8714 19.8278 11.4031 19.9868 11.9484 19.9993C12.4936 20.0119 13.0322 19.8776 13.5077 19.6106C13.9833 19.3434 14.3781 18.9534 14.651 18.4811C14.9238 18.009 15.0648 17.472 15.0589 16.9267V14.5546L13.8822 15.1806V17.0491C13.8876 17.3734 13.8053 17.6931 13.6441 17.9744C13.4829 18.2559 13.2488 18.4887 12.9664 18.6481C12.6841 18.8076 12.3639 18.888 12.0396 18.8807C11.7154 18.8735 11.399 18.7789 11.1241 18.6071L7.52345 16.3948C7.09331 16.1303 6.73811 15.7601 6.49176 15.3192C6.24539 14.8784 6.11607 14.3818 6.11614 13.8767V9.27357C6.11705 8.94513 6.20583 8.62293 6.37329 8.34038C6.54076 8.05783 6.78075 7.82525 7.06843 7.66676C7.35611 7.50828 7.68095 7.42967 8.00926 7.43908C8.33756 7.44851 8.65736 7.54563 8.93547 7.72035L12.5126 9.95129C12.9406 10.2244 13.2914 10.6028 13.5311 11.0504C13.7709 11.4979 13.8919 11.9995 13.8822 12.5071V14.1545L15.0589 13.5096V11.9564C15.0589 10.9115 14.5883 9.94196 13.694 9.39124L9.49557 6.81195C9.04461 6.53242 8.52726 6.3782 7.99685 6.36516C7.46643 6.35211 6.94214 6.48074 6.47796 6.73775C6.01379 6.99476 5.62655 7.37088 5.35613 7.82737C5.08569 8.28385 4.94187 8.80418 4.93945 9.33475Z" fill="white"/>
<path d="M8.1676 5.63368V5.7937C8.64768 5.58189 9.40547 5.77016 9.72553 5.89255L14.451 8.71659C14.8489 8.95057 15.1925 9.26619 15.4593 9.64262C15.7262 10.019 15.9105 10.4477 15.9996 10.9005V16.1956C15.9877 17.0213 15.7288 17.8248 15.256 18.502L15.3029 18.596C16.715 17.8759 17.181 16.4309 17.1763 15.7955V10.7311C17.1696 10.2363 17.0408 9.75089 16.8008 9.31809C16.5612 8.88528 16.2179 8.51856 15.8019 8.25061L11.2082 5.45953C10.8488 5.23696 10.4302 5.12864 10.0079 5.14888C9.09482 5.14888 8.39823 5.47365 8.1676 5.63368Z" fill="white"/>
<path d="M10.1688 4.65092V4.49089C10.7274 4.16235 11.3659 3.99457 12.0139 4.00609C12.2022 3.98256 12.7106 4.01551 13.2142 4.31673L15.2239 5.54048L14.0567 6.14296C13.2814 5.6789 12.5064 5.21452 11.7315 4.74976C11.4114 4.62739 10.649 4.43912 10.1688 4.65092ZM14.8992 6.64658L16.4523 7.57379C16.8395 7.80716 17.1691 8.12463 17.4167 8.50269C17.6644 8.88073 17.8238 9.30968 17.8832 9.75772V15.0528C17.8832 16.1495 17.4926 17.0485 17.2572 17.3591L17.3043 17.4533C18.721 16.7331 19.0646 15.2881 19.0599 14.6528V9.58829C19.0695 9.10354 18.9601 8.62384 18.7409 8.19133C18.5218 7.75884 18.1998 7.38677 17.8031 7.10784L16.0758 6.05824L14.8992 6.64658Z" fill="white"/>
</g>
<defs>
<linearGradient id="paint0_linear_328_20225" x1="6.81341" y1="6.31179" x2="16.5154" y2="17.2287" gradientUnits="userSpaceOnUse">
<stop stop-color="#262223"/>
<stop offset="1" stop-color="#6B6A6F"/>
</linearGradient>
<clipPath id="clip0_328_20225">
<rect width="24" height="24" fill="white"/>
</clipPath>
</defs>
</svg>
