<svg width="24" height="24" viewBox="0 0 24 24" fill="none" xmlns="http://www.w3.org/2000/svg">
<g clip-path="url(#clip0_328_27905)">
<path d="M24 0H0V24H24V0Z" fill="#2E4B9F"/>
<path d="M7.63636 3.81812L6.54545 8.72721H17.4546L16.3635 3.81812H7.63636ZM8.72726 11.9999L6.32345 10.3679L3 12.5454L7.44217 20.1818H9.12434L10.9091 18.1352V17.2068L8.72726 15.2236V11.9999ZM15.1391 9.81809H9.06926L10.3636 11.9999L9.76744 14.7273H14.4486L13.6364 11.9999L15.1391 9.81809ZM15.2727 11.9999L17.6761 10.1378L21 12.5454L16.6206 20.1818H15.0022L13.0739 18.1199V17.1676L15.2727 15.1363V11.9999Z" fill="white"/>
</g>
<defs>
<clipPath id="clip0_328_27905">
<rect width="24" height="24" fill="white"/>
</clipPath>
</defs>
</svg>
