<svg width="24" height="24" viewBox="0 0 24 24" fill="none" xmlns="http://www.w3.org/2000/svg">
<g clip-path="url(#clip0_328_27925)">
<path d="M24 0H0V24H24V0Z" fill="#0B9ED9"/>
<path d="M11.2897 13.1095C10.8375 12.9734 10.3571 13.2897 10.0169 13.6219C9.44856 14.1742 8.44391 14.4024 7.59137 14.4024C7.16581 14.4029 6.74779 14.2902 6.38006 14.0761C6.01233 13.8619 5.70812 13.5538 5.49855 13.1835C5.28901 12.8131 5.18161 12.3936 5.1874 11.9681C5.19317 11.5427 5.31193 11.1263 5.53147 10.7618C5.75103 10.3973 6.0635 10.0976 6.43691 9.8935C6.81033 9.6894 7.23126 9.58818 7.65664 9.60023C8.08201 9.61225 8.49656 9.7371 8.85784 9.96198C9.21911 10.1869 9.51414 10.5037 9.71273 10.8801C9.88633 10.4886 10.1809 10.1631 10.5533 9.95148C10.2003 9.44349 9.72231 9.03509 9.16548 8.76569C8.60863 8.49628 7.99175 8.37497 7.37438 8.41347C6.75699 8.45196 6.15994 8.64898 5.6409 8.98548C5.12185 9.32198 4.69831 9.7866 4.41117 10.3345C4.12403 10.8823 3.98297 11.495 4.00164 12.1134C4.02029 12.7317 4.19804 13.3347 4.5177 13.8643C4.83737 14.3939 5.28816 14.8321 5.82656 15.1367C6.36495 15.4412 6.97278 15.6019 7.59137 15.6031C9.30847 15.6031 11.2337 14.8106 11.5941 13.2016L11.2897 13.1095Z" fill="white"/>
<path d="M12.8353 13.08L13.1955 13.2001L13.5197 13.2642C13.3186 13.1312 13.08 13.0666 12.8393 13.08H12.8353ZM14.0201 13.6644C13.7879 13.8485 13.3517 13.9846 12.7393 13.9965C13.4517 15.0692 14.9927 15.6016 16.3975 15.6016C16.8706 15.6016 17.3391 15.5084 17.7762 15.3274C18.2132 15.1464 18.6104 14.881 18.9448 14.5465C19.2793 14.212 19.5446 13.8149 19.7257 13.3778C19.9067 12.9409 20 12.4724 20 11.9994C20 11.5262 19.9067 11.0578 19.7257 10.6207C19.5446 10.1837 19.2793 9.78658 18.9448 9.45206C18.6104 9.11757 18.2132 8.85222 17.7762 8.67119C17.3391 8.49015 16.8706 8.39697 16.3975 8.39697C15.1688 8.39697 13.6438 9.45766 12.9954 10.3983C12.7954 10.9986 13.1955 11.3989 13.3957 11.599C13.7959 10.8385 15.477 9.59776 16.3975 9.59776C17.0345 9.59776 17.6454 9.85076 18.0958 10.3011C18.5461 10.7515 18.7991 11.3623 18.7991 11.9994C18.7991 12.6363 18.5461 13.2471 18.0958 13.6974C17.6454 14.1478 17.0345 14.4009 16.3975 14.4009C15.5691 14.4009 14.5964 14.1848 14.0201 13.6644Z" fill="white"/>
<path d="M10.7932 12.0012C11.2354 12.0012 11.5938 11.6428 11.5938 11.2007C11.5938 10.7585 11.2354 10.4001 10.7932 10.4001C10.351 10.4001 9.99268 10.7585 9.99268 11.2007C9.99268 11.6428 10.351 12.0012 10.7932 12.0012Z" fill="white"/>
<path d="M13.195 13.6013C13.6371 13.6013 13.9956 13.2428 13.9956 12.8007C13.9956 12.3586 13.6371 12.0002 13.195 12.0002C12.7529 12.0002 12.3945 12.3586 12.3945 12.8007C12.3945 13.2428 12.7529 13.6013 13.195 13.6013Z" fill="white"/>
</g>
<defs>
<clipPath id="clip0_328_27925">
<rect width="24" height="24" fill="white"/>
</clipPath>
</defs>
</svg>
