<svg width="24" height="24" viewBox="0 0 24 24" fill="none" xmlns="http://www.w3.org/2000/svg">
<g clip-path="url(#clip0_328_23597)">
<path d="M24 0H0V24H24V0Z" fill="#E1AB4B"/>
<path fill-rule="evenodd" clip-rule="evenodd" d="M17.5483 20H6.50366C6.06601 20 5.70366 19.7177 5.67071 19.2894L4.9413 8.41882C4.93154 8.27038 4.96338 8.12218 5.0332 7.99084C5.10302 7.8595 5.20809 7.75022 5.33659 7.6753L11.6049 4.12706C11.7366 4.04706 11.8825 4.0047 12.0284 4C12.1837 4 12.3436 4.04235 12.4801 4.12235L18.6543 7.48706C18.9224 7.64235 19.0778 7.92942 19.0589 8.2353L18.386 19.2847C18.3578 19.7082 17.9907 20 17.5483 20ZM16.7342 18.1176H7.31306L6.65424 9.12942L12.0377 5.88234L17.3413 8.97412L16.7295 18.1176H16.7342ZM8.56483 9.88706L8.76247 13.4118H13.6566L13.5578 14.8235H10.6213L10.546 13.8824H8.78601L8.9413 16.7059H15.1202L15.4448 12H10.4095L10.3154 10.8706L12.0237 9.64706L13.8824 10.8706V11.5294H15.4778L15.5907 9.88706L12.0754 7.7647L8.56483 9.88706Z" fill="white"/>
</g>
<defs>
<clipPath id="clip0_328_23597">
<rect width="24" height="24" fill="white"/>
</clipPath>
</defs>
</svg>
