<svg width="24" height="24" viewBox="0 0 24 24" fill="none" xmlns="http://www.w3.org/2000/svg">
<g clip-path="url(#clip0_328_21399)">
<path d="M24 0H0V24H24V0Z" fill="black"/>
<path d="M14.7069 4.37189L14.2529 4.56216L14.5989 4.76972C14.8799 4.93838 15.1609 5.10702 15.455 5.2454L15.5242 5.21513C15.9567 5.00757 16.3848 4.79567 16.8086 4.57081C16.4097 4.37662 16.0089 4.18634 15.6064 4L14.7069 4.37189ZM12.8821 4.93405L11.6799 5.40973L12.5621 6.04108L13.8896 5.46594L12.8821 4.92974V4.93405ZM14.4301 6.79351L14.9707 6.5773C15.2389 6.46486 15.5069 6.35244 15.775 6.24865L16.8345 6.79783L16.6226 6.90162C16.2594 7.07459 15.9005 7.24757 15.5329 7.4119C15.2733 7.29082 15.0269 7.14378 14.7805 7.00108C14.6645 6.93056 14.5477 6.86136 14.4301 6.79351ZM10.348 6.37838C9.85506 6.55135 9.36641 6.71568 8.87775 6.89298C9.26695 7.09189 9.66478 7.28216 10.0627 7.46811C10.4216 7.3773 10.7717 7.24324 11.1177 7.11351L11.6885 6.90595C11.3849 6.73545 11.0778 6.57109 10.7674 6.41298L10.7025 6.37838C10.6248 6.33514 10.5383 6.2919 10.4518 6.34378L10.348 6.37838ZM11.7534 7.21297C12.0993 7.07459 12.4453 6.94054 12.8042 6.82378L14.0583 7.3427L12.6961 8.0346C12.2348 7.82497 11.7777 7.60582 11.3253 7.3773L11.7534 7.21297ZM8.47559 7.55892C8.08641 7.68433 7.70154 7.80541 7.321 7.93946L7.73614 8.16866C7.9956 8.31568 8.25505 8.4627 8.52748 8.57082C8.96424 8.42811 9.39668 8.27676 9.82911 8.12108L10.1751 7.99568L9.35776 7.58054L8.99452 7.39459L8.47559 7.55892ZM14.3005 8.38055C14.0713 8.25081 13.8465 8.12541 13.6129 8.00865L12.0561 8.64866C12.2248 8.73514 12.3848 8.8346 12.5448 8.93406C12.774 9.07244 13.0074 9.21514 13.2496 9.3319C13.5956 9.18487 13.9285 9.02487 14.2659 8.86487L14.7631 8.63136L14.3005 8.38055ZM7.08749 8.0173L5.51343 8.5319C5.66478 8.63136 5.79018 8.73514 5.91126 8.8346C6.09289 8.9773 6.27019 9.12 6.50802 9.24541L8.26803 8.66594L7.08749 8.0173ZM11.2389 8.53622C10.9534 8.38054 10.6637 8.23351 10.3654 8.10378L8.74802 8.71784C8.93068 8.81395 9.11231 8.91198 9.29289 9.0119C9.55236 9.15027 9.81181 9.28866 10.0712 9.41838C10.4172 9.31893 10.7458 9.1719 11.0789 9.02054L11.6885 8.76109L11.2432 8.5319L11.2389 8.53622ZM16.6745 8.16433L15.3037 8.80865L15.9783 9.12C16.3156 9.27135 16.6529 9.4227 16.9815 9.59568L17.2497 9.47028C17.6647 9.28433 18.1015 9.08108 18.4864 8.88217L16.6745 8.16433ZM7.88316 8.9773L8.45397 8.76974L8.90802 9.02054L9.83344 9.54378L9.15018 9.84649C8.80425 9.99352 8.44532 10.1449 8.14262 10.2919C7.64651 10.0369 7.17465 9.73733 6.73289 9.39676C7.08316 9.2627 7.48965 9.11568 7.88316 8.9773ZM10.3091 9.54811C10.8323 9.31893 11.3599 9.09406 11.8874 8.87784C12.1901 8.99892 12.4713 9.15027 12.7609 9.30162L13.215 9.53514L12.3199 9.95892L11.6453 10.2746L11.2561 10.067L10.3091 9.54811ZM5.51343 8.9427C5.94497 9.19756 6.36757 9.46727 6.78045 9.75136L8.22046 10.7026C9.26668 11.3972 10.3146 12.089 11.3643 12.7784C11.3513 13.92 11.2994 15.0616 11.2517 16.2033C11.1956 17.4703 11.1437 18.733 11.135 20C10.1937 19.277 9.25963 18.5448 8.33289 17.8033C7.40749 17.0681 6.48208 16.333 5.51343 15.5979V8.9427ZM14.4648 9.20217L13.6864 9.56541C13.9761 9.72541 14.2702 9.87244 14.5642 10.0195C14.8108 10.1449 15.0529 10.266 15.2907 10.3956L15.6756 10.2184L16.7134 9.72541L15.6453 9.23677L15.014 8.9427L14.4691 9.20217H14.4648ZM11.8615 12.5925C12.7091 12.1774 13.5566 11.7535 14.4085 11.3298C15.7621 10.6508 17.1199 9.9719 18.4864 9.31893V16.1082L11.8789 19.6065L11.8702 19.4292C11.8572 19.1308 11.8442 18.88 11.8486 18.5644V15.9309C11.8486 14.8194 11.8486 13.7081 11.8615 12.5925ZM9.29722 9.98054C8.95127 10.1319 8.59667 10.2876 8.28101 10.4086C8.70046 10.733 9.17613 11.001 9.65613 11.2303C9.98911 11.0443 10.3739 10.867 10.7502 10.6941L11.3643 10.4086L10.7156 10.0411L10.0453 9.65622C9.81181 9.75136 9.55668 9.86379 9.29722 9.98054ZM11.8917 10.413L13.1329 9.82919L13.4745 9.66919L13.9761 9.92866C14.348 10.1146 14.7199 10.3048 15.1005 10.4865L13.8465 11.0746L13.4615 11.2518L12.9037 10.9492L11.8961 10.413H11.8917ZM11.4939 10.5946L11.4464 10.6162L10.8842 10.8886C10.5469 11.0486 10.2053 11.213 9.88965 11.3514C10.1923 11.6022 10.5599 11.7924 10.9188 11.9784L11.4031 12.2379C11.7578 12.0519 12.121 11.8832 12.4843 11.7146L13.1329 11.4076C12.6529 11.1308 12.1685 10.854 11.6799 10.5859C11.6193 10.5341 11.5545 10.5686 11.4939 10.5946Z" fill="white"/>
<path d="M5.51343 8.53271C7.43776 9.82135 9.34046 11.0538 11.3513 12.2084L11.4593 12.2732C11.4593 12.2732 11.1221 12.857 11.135 12.8657C9.60425 11.8624 8.31128 10.764 6.78045 9.75216C6.36532 9.47973 5.94586 9.19432 5.51343 8.94351V8.53271Z" fill="#1D6DAB"/>
<path d="M18.43 8.91785L18.4862 8.88757V9.32002C16.2679 10.3882 14.0667 11.5254 11.8614 12.6152C11.403 12.3212 11.3511 12.3816 11.3511 12.2173C11.9175 11.9146 12.5619 11.6898 13.137 11.4087L13.4614 11.253C14.0062 10.9979 14.5554 10.7471 15.1002 10.4876C15.1435 10.4616 15.243 10.4184 15.2906 10.3967C15.7662 10.1719 16.2418 9.95569 16.7133 9.72218L16.9814 9.59245C17.4657 9.37622 17.9543 9.16002 18.43 8.91785Z" fill="#BF2824"/>
<path d="M11.9995 18.7151C11.9995 18.7151 11.9562 14.4946 11.9778 12.5529C11.9778 12.5659 11.4632 12.2632 11.3508 12.2156L11.1345 12.8643V19.9995L11.9995 19.5411V18.7151Z" fill="#F5D300"/>
</g>
<defs>
<clipPath id="clip0_328_21399">
<rect width="24" height="24" fill="white"/>
</clipPath>
</defs>
</svg>
