<svg width="24" height="24" viewBox="0 0 24 24" fill="none" xmlns="http://www.w3.org/2000/svg">
<g clip-path="url(#clip0_328_21543)">
<path d="M24 0H0V24H24V0Z" fill="#FF6B4D"/>
<path d="M13.415 18.5001C15.94 18.5001 18.1849 16.4701 18.4999 14.0351V14.0001H20C19.8391 15.6376 19.077 17.1575 17.8606 18.2657C16.6443 19.3739 15.0603 19.9919 13.415 20H10.615C6.96498 20 4 17.0401 4 13.4001V10.6001C4 6.96006 6.96998 4.00006 10.615 4.00006H13.415C15.0603 4.00828 16.6443 4.62622 17.8606 5.73445C19.077 6.84267 19.8391 8.36247 20 10.0001H18.4999C18.1849 7.56505 15.94 5.50006 13.415 5.50006H10.615C9.26974 5.52801 7.98714 6.07384 7.03431 7.02388C6.08149 7.9739 5.53189 9.2549 5.49999 10.6001V13.4001C5.49999 16.1301 7.87498 18.5001 10.615 18.5001H13.415ZM11.9999 9.00005C12.825 9.00005 13.4999 9.70502 13.4999 10.5751C13.4999 11.1851 13.17 11.7151 12.6899 11.9751L13.245 14.5H10.755L11.31 11.9751C11.0618 11.8359 10.8554 11.6325 10.713 11.3862C10.5705 11.1398 10.4968 10.8597 10.5 10.5751C10.4906 10.1674 10.6433 9.77269 10.9244 9.47748C11.2056 9.18221 11.5923 9.01053 11.9999 9.00005Z" fill="white"/>
</g>
<defs>
<clipPath id="clip0_328_21543">
<rect width="24" height="24" fill="white"/>
</clipPath>
</defs>
</svg>
