<svg width="24" height="24" viewBox="0 0 24 24" fill="none" xmlns="http://www.w3.org/2000/svg">
<g clip-path="url(#clip0_328_20261)">
<path d="M24 0H0V24H24V0Z" fill="black"/>
<path d="M8.70276 5.25H13.8102C13.7091 5.34561 13.5122 5.655 13.5122 6.1275C13.5122 6.6 13.5965 6.79687 13.6415 6.93749H8.62401V13.44L12.331 15.6731L15.9365 13.44V8.9569C16.0716 8.98499 16.1671 9.05246 16.3866 9.05246C17.0897 9.05246 17.5058 8.78248 17.624 8.65306V13.5581C17.624 14.1375 17.3316 14.6831 16.8365 15.0038L13.304 17.3325C12.7135 17.7206 11.9483 17.7263 11.3521 17.3381L7.73527 14.9981C7.49152 14.8421 7.29073 14.6277 7.15121 14.3741C7.01167 14.1206 6.93787 13.8362 6.93652 13.5469V6.98811C6.93652 6.03186 7.72402 5.25 8.70276 5.25Z" fill="white"/>
<path d="M15.9365 8.62498C16.8685 8.62498 17.624 7.86947 17.624 6.93749C17.624 6.00552 16.8685 5.25 15.9365 5.25C15.0046 5.25 14.249 6.00552 14.249 6.93749C14.249 7.86947 15.0046 8.62498 15.9365 8.62498Z" fill="white"/>
<path d="M4.40527 3.63C4.40527 3.44437 4.5684 3.28126 4.78777 3.28126H19.2102C19.4296 3.28126 19.5927 3.45 19.5927 3.63V7.49999C19.5358 7.50039 19.4802 7.51811 19.4335 7.55078C19.387 7.58344 19.3513 7.62951 19.3313 7.68289C19.3114 7.73628 19.3082 7.79446 19.3219 7.84972C19.3359 7.90499 19.3663 7.95474 19.409 7.99238C19.4519 8.03002 19.505 8.05378 19.5616 8.06052C19.618 8.06725 19.6755 8.05664 19.7259 8.03008C19.7763 8.00355 19.8174 7.96231 19.8438 7.91184C19.8704 7.86137 19.8808 7.80405 19.874 7.74749V3.63C19.874 3.27562 19.5702 3 19.2102 3H4.78777C4.42777 3 4.12402 3.27562 4.12402 3.63V7.93311C4.12924 8.00398 4.16241 8.06987 4.21619 8.11628C4.27 8.16269 4.34003 8.18583 4.4109 8.18061C4.48176 8.17539 4.54764 8.14224 4.59405 8.08844C4.64048 8.03463 4.66362 7.9646 4.6584 7.89374C4.6584 7.75312 4.5459 7.635 4.40527 7.62936V3.63ZM5.91277 4.12499C5.55277 4.12499 5.24902 4.40061 5.24902 4.75499V10.8075C5.24902 10.9087 5.21527 10.9987 5.16465 11.0606C5.1084 11.1169 5.03527 11.1562 4.9284 11.1562H4.78777C4.56277 11.1562 4.40527 10.9875 4.40527 10.8075V9.45749C4.43999 9.45644 4.47415 9.44843 4.5058 9.43412C4.53746 9.41982 4.56598 9.39947 4.58973 9.37415C4.6135 9.34881 4.63205 9.31902 4.64431 9.28648C4.65659 9.25406 4.66231 9.2194 4.66121 9.18463C4.6601 9.14998 4.65218 9.11585 4.63786 9.08409C4.62355 9.05246 4.60314 9.02398 4.5778 9.00022C4.55247 8.97646 4.52271 8.95796 4.49021 8.94561C4.45771 8.93341 4.42312 8.92764 4.3884 8.92868C4.2534 8.92868 4.13527 9.03565 4.12402 9.17058V10.8075C4.12402 11.1619 4.42777 11.4375 4.78777 11.4375H4.9284C5.11402 11.4375 5.2659 11.3644 5.3784 11.2464C5.47965 11.1281 5.53027 10.965 5.53027 10.8075V4.75499C5.53027 4.56936 5.69902 4.40625 5.91277 4.40625H11.1158C11.1494 4.45244 11.1968 4.48656 11.2513 4.50355C11.3057 4.52052 11.3641 4.51945 11.418 4.50046C11.4718 4.48148 11.5179 4.44561 11.5498 4.39822C11.5814 4.35083 11.597 4.29445 11.594 4.2375C11.5969 4.17583 11.578 4.11511 11.5408 4.06589C11.5034 4.01667 11.4501 3.98206 11.39 3.96802C11.3299 3.95399 11.2668 3.96145 11.2115 3.98908C11.1565 4.01674 11.1126 4.06282 11.0877 4.11937H5.91277V4.12499ZM13.1128 4.40625C13.0802 4.45521 13.0325 4.49195 12.9768 4.51072C12.9211 4.52945 12.8608 4.52913 12.8054 4.5098C12.7499 4.49043 12.7023 4.45317 12.6705 4.40386C12.6386 4.35457 12.624 4.29602 12.629 4.2375C12.6277 4.17633 12.6475 4.11661 12.6853 4.06846C12.7229 4.02032 12.7762 3.98676 12.836 3.9735C12.8957 3.96023 12.9583 3.96807 13.0127 3.99569C13.0673 4.02332 13.1106 4.06902 13.1352 4.12499H18.0458C18.2202 4.12499 18.3947 4.1925 18.524 4.29938C18.6535 4.41186 18.7491 4.56936 18.7491 4.74937V10.8019C18.7491 11.0101 18.884 11.1562 19.0865 11.1562H19.2102C19.4296 11.1562 19.5927 10.9875 19.5927 10.8019V9.75C19.5405 9.75 19.4893 9.73549 19.445 9.70805C19.4005 9.68049 19.3646 9.64125 19.3413 9.59451C19.3179 9.54779 19.3079 9.49555 19.3127 9.44345C19.3173 9.39147 19.3364 9.34174 19.3677 9.29999C19.3992 9.25826 19.4414 9.22596 19.49 9.20694C19.5386 9.18778 19.5917 9.18266 19.643 9.19198C19.6944 9.20143 19.7422 9.22478 19.7812 9.25984C19.8199 9.29475 19.8482 9.33989 19.8627 9.39002H19.874V9.43505C19.8768 9.45737 19.8768 9.48007 19.874 9.50251V10.8019C19.874 11.1619 19.5702 11.4375 19.2102 11.4375H19.0865C18.7097 11.4375 18.4677 11.145 18.4677 10.8019V4.75499C18.4677 4.67062 18.4227 4.58625 18.344 4.51312C18.2607 4.44224 18.1553 4.40247 18.0458 4.40061H13.1072L13.1128 4.40625ZM18.7602 13.8225C18.7602 13.712 18.8041 13.6062 18.8822 13.5282C18.9602 13.4501 19.0662 13.4062 19.1765 13.4062C19.2869 13.4062 19.3927 13.4501 19.4708 13.5282C19.549 13.6062 19.5927 13.712 19.5927 13.8225V15.4987C19.5927 15.7237 19.4802 15.9374 19.289 16.0611L15.8691 18.3113C15.8303 18.271 15.7807 18.2434 15.7261 18.2315C15.6716 18.2197 15.6149 18.2243 15.5631 18.2449C15.5112 18.2652 15.4666 18.3007 15.4351 18.3466C15.4033 18.3925 15.386 18.4468 15.3852 18.5024C15.3872 18.5666 15.411 18.6281 15.4527 18.6768C15.4945 18.7255 15.5516 18.7583 15.6146 18.7701C15.6776 18.7821 15.7429 18.772 15.7992 18.7417C15.8558 18.7114 15.9001 18.6627 15.9252 18.6038L19.4465 16.2974C19.7108 16.1175 19.874 15.8194 19.874 15.4987V13.8225C19.874 13.6375 19.8005 13.46 19.6697 13.3292C19.5389 13.1986 19.3614 13.125 19.1765 13.125C18.9915 13.125 18.8142 13.1986 18.6833 13.3292C18.5524 13.46 18.479 13.6375 18.479 13.8225V15.015C18.479 15.1725 18.4058 15.3244 18.2766 15.4144L17.1177 16.2581C17.0777 16.2415 17.0344 16.2349 16.9913 16.2392C16.9482 16.2433 16.9067 16.2579 16.8707 16.2819C16.8346 16.3057 16.8049 16.3382 16.7842 16.3761C16.7636 16.4142 16.7525 16.4566 16.7521 16.5C16.7521 16.6461 16.8758 16.7644 17.0221 16.7644C17.0583 16.7644 17.0942 16.7571 17.1274 16.7428C17.1605 16.7285 17.1905 16.7074 17.2154 16.6811C17.2401 16.6547 17.2592 16.6235 17.2715 16.5894C17.2837 16.5556 17.2887 16.5192 17.2865 16.4831L18.4396 15.6394C18.6421 15.4987 18.7602 15.2625 18.7602 15.015V13.8225ZM4.82715 13.44C4.71527 13.44 4.60795 13.4844 4.52884 13.5635C4.44972 13.6427 4.40527 13.75 4.40527 13.8619V15.2006C4.40488 15.3919 4.45324 15.58 4.54575 15.7473C4.63827 15.9146 4.77189 16.0556 4.93402 16.1569L8.26402 18.2325C8.30628 18.2192 8.35109 18.2161 8.39479 18.2234C8.43849 18.2306 8.47984 18.2483 8.51547 18.2746C8.55111 18.3008 8.58004 18.3352 8.59986 18.3749C8.6197 18.4144 8.62991 18.4582 8.62965 18.5024C8.6296 18.5419 8.62132 18.5807 8.60535 18.6166C8.58937 18.6525 8.56606 18.6846 8.5369 18.7109C8.50774 18.7372 8.47337 18.7572 8.43606 18.7695C8.39871 18.7817 8.35922 18.7859 8.32014 18.7821C8.28103 18.7781 8.24319 18.766 8.20907 18.7466C8.17492 18.727 8.14526 18.7006 8.12195 18.669C8.09865 18.6374 8.08222 18.6012 8.07375 18.5628C8.06528 18.5244 8.06494 18.4847 8.07277 18.4462L4.78777 16.3931C4.585 16.267 4.41765 16.0914 4.30154 15.8828C4.1854 15.6741 4.12433 15.4394 4.12402 15.2006V13.8561C4.12402 13.6697 4.19809 13.491 4.32997 13.359C4.46182 13.2273 4.64067 13.1531 4.82715 13.1531C5.01363 13.1531 5.19247 13.2273 5.32433 13.359C5.4562 13.491 5.53027 13.6697 5.53027 13.8561V14.7561C5.53027 15.0374 5.6709 15.3019 5.90715 15.4594L6.7734 16.0331C6.81321 16.0107 6.85816 15.9992 6.90383 15.9993C6.94948 15.9994 6.99434 16.0115 7.03399 16.034C7.07365 16.0568 7.10676 16.0894 7.13009 16.1285C7.15342 16.1678 7.16618 16.2123 7.16715 16.2581C7.16826 16.2932 7.16245 16.3282 7.15005 16.3609C7.13763 16.3938 7.11887 16.424 7.09484 16.4496C7.07083 16.4751 7.042 16.4957 7.01 16.5101C6.97801 16.5246 6.94348 16.5326 6.9084 16.5336C6.87331 16.5349 6.83834 16.529 6.80551 16.5166C6.77266 16.5042 6.74258 16.4855 6.71699 16.4615C6.69141 16.4373 6.6708 16.4086 6.65633 16.3766C6.64187 16.3445 6.63388 16.31 6.63277 16.275L5.74965 15.69C5.59638 15.5883 5.47051 15.4505 5.38319 15.2885C5.29587 15.1267 5.24979 14.9459 5.24902 14.7619V13.8561C5.24902 13.7444 5.20457 13.637 5.12545 13.5579C5.04634 13.4789 4.93903 13.4344 4.82715 13.4344V13.44ZM16.1447 17.0963L12.5616 19.4474C12.3027 19.6162 11.971 19.6162 11.7121 19.4474L8.20214 17.1412C8.16232 17.1635 8.11737 17.1752 8.07172 17.1751C8.02604 17.1748 7.9812 17.163 7.94154 17.1401C7.9019 17.1176 7.86878 17.0851 7.84546 17.0459C7.82212 17.0066 7.80934 16.9618 7.8084 16.9163C7.80691 16.8454 7.83361 16.7767 7.88268 16.7257C7.93172 16.6745 7.9991 16.6449 8.06996 16.6434C8.14081 16.642 8.20937 16.6686 8.26054 16.7177C8.31169 16.7667 8.34128 16.8341 8.34277 16.905L11.864 19.2111C12.0327 19.3236 12.241 19.3236 12.4097 19.2111L16.0265 16.8486C16.031 16.7787 16.0631 16.7131 16.116 16.6667C16.1686 16.6204 16.2375 16.5966 16.3078 16.6013C16.3779 16.6058 16.4434 16.6379 16.4897 16.6906C16.5362 16.7432 16.5597 16.8123 16.5552 16.8824C16.5556 16.9299 16.543 16.9763 16.519 17.0173C16.4951 17.058 16.4607 17.0918 16.4193 17.1147C16.3779 17.1378 16.3311 17.1491 16.2839 17.1479C16.2364 17.1466 16.1904 17.1327 16.1503 17.1075L16.1447 17.0963ZM11.701 20.8931L9.57469 19.4869C9.53415 19.5058 9.48951 19.5143 9.44489 19.5114C9.40014 19.5085 9.35699 19.4943 9.31934 19.4702C9.28166 19.4459 9.25076 19.4126 9.2295 19.3733C9.20824 19.3339 9.19732 19.2897 9.19776 19.2449C9.19776 19.0987 9.32152 18.9806 9.46773 18.9806C9.50342 18.9806 9.53874 18.9878 9.57154 19.0018C9.60448 19.0157 9.63415 19.0362 9.65883 19.062C9.6835 19.0877 9.7028 19.1183 9.7154 19.1516C9.728 19.1849 9.73364 19.2206 9.73219 19.2563L11.8585 20.6624C11.9519 20.7226 12.0611 20.7535 12.1722 20.7514C12.2834 20.7495 12.3915 20.7145 12.4828 20.6513L14.446 19.3012C14.4339 19.2454 14.4401 19.1872 14.464 19.1353C14.4877 19.0833 14.5275 19.0406 14.5777 19.0132C14.6278 18.9858 14.6854 18.9755 14.7421 18.9837C14.7984 18.9918 14.8508 19.018 14.8912 19.0585C14.9316 19.0988 14.9577 19.1511 14.9659 19.2076C14.974 19.2641 14.9637 19.3218 14.9365 19.3718C14.9091 19.422 14.8661 19.462 14.8143 19.4857C14.7624 19.5095 14.7043 19.5158 14.6485 19.5038L12.6403 20.8819C12.5052 20.9774 12.3477 20.9944 12.1902 21C12.0215 21 11.8528 20.9887 11.701 20.8875V20.8931Z" fill="white"/>
</g>
<defs>
<clipPath id="clip0_328_20261">
<rect width="24" height="24" fill="white"/>
</clipPath>
</defs>
</svg>
