<svg width="24" height="24" viewBox="0 0 24 24" fill="none" xmlns="http://www.w3.org/2000/svg">
<g clip-path="url(#clip0_328_20338)">
<path d="M24 0H0V24H24V0Z" fill="#8DDB2E"/>
<path d="M21 3.84375H19.3124V5.53123H21V3.84375ZM19.3124 5.53123H17.6226V7.21873H19.3124V5.53123ZM21 16.2198H19.3124V17.9073H21V16.2198ZM19.3124 13.4061H17.6249V15.0936H19.3124V13.4061ZM15.9375 10.0317H14.25V11.7192H15.9375V10.0317ZM17.6249 8.34427H15.9375V10.0317H17.6249V8.34427ZM21 10.0317H19.3124V11.7192H21V10.0317Z" fill="white"/>
<path d="M17.6248 18.4686V16.781H15.9373V18.4686H14.2499V16.781H15.9373V13.4061H14.2499V11.7192L12.5624 11.7186V10.0313L14.2499 10.0317V8.34371H12.5624V6.65623H14.2499V8.34371L15.9373 8.34427V5.53123H17.6248V3.84375H13.125L10.5936 8.34371L7.75308 3.84375H3L8.06244 12L3 20.1561H7.65294L10.5936 15.0936L13.125 20.1561H19.3123V18.4686H17.6248ZM12.5624 15.0936V13.4061H10.875V11.7186L9.18743 11.7248V10.0313H10.875V11.7186H12.5624V13.4061H14.2499V15.0936H12.5624Z" fill="white"/>
</g>
<defs>
<clipPath id="clip0_328_20338">
<rect width="24" height="24" fill="white"/>
</clipPath>
</defs>
</svg>
