<svg width="24" height="24" viewBox="0 0 24 24" fill="none" xmlns="http://www.w3.org/2000/svg">
<g clip-path="url(#clip0_328_28003)">
<path d="M24 0H0V24H24V0Z" fill="url(#paint0_linear_328_28003)"/>
<path d="M12.6329 4H4.53369V7.19999H11.498C12.8436 7.23574 15.7336 8.80266 15.7336 11.7973C15.7336 15.3866 12.9752 16.7999 11.498 16.7999H7.73369V20H12.6329C14.9278 20 19.5705 17.712 19.4649 11.7973C19.3604 5.88374 14.7956 4 12.6329 4ZM9.33374 10.4H10.9337C11.3581 10.4 11.765 10.5685 12.0651 10.8686C12.3651 11.1687 12.5337 11.5756 12.5337 12C12.5337 12.4243 12.3651 12.8313 12.0651 13.1313C11.765 13.4314 11.3581 13.6 10.9337 13.6H9.33374V10.4ZM4.53369 12C4.53369 11.5756 4.70226 11.1687 5.00232 10.8686C5.30238 10.5685 5.70934 10.4 6.1337 10.4V13.6C5.70934 13.6 5.30238 13.4314 5.00232 13.1313C4.70226 12.8313 4.53369 12.4243 4.53369 12Z" fill="white"/>
</g>
<defs>
<linearGradient id="paint0_linear_328_28003" x1="7.77876" y1="6.01086" x2="17.4339" y2="17.0752" gradientUnits="userSpaceOnUse">
<stop stop-color="#00EDEF"/>
<stop offset="1" stop-color="#0094FF"/>
</linearGradient>
<clipPath id="clip0_328_28003">
<rect width="24" height="24" fill="white"/>
</clipPath>
</defs>
</svg>
