<svg width="24" height="24" viewBox="0 0 24 24" fill="none" xmlns="http://www.w3.org/2000/svg">
<g clip-path="url(#clip0_328_25704)">
<path d="M24 0H0V24H24V0Z" fill="white"/>
<path d="M13.513 17.4395C12.2755 15.6959 11.8593 15.3695 10.3124 17.389C10.2703 17.4323 10.2171 17.4636 10.1588 17.4794C10.1004 17.4952 10.0389 17.4951 9.98052 17.4791C7.45491 16.9052 5.67743 14.8296 6.63928 11.9496C6.6843 11.8202 6.76867 11.6066 6.89805 11.314C6.9993 11.0777 6.98805 10.8077 6.95431 10.5096C6.86428 9.80086 6.70117 6.58899 7.96678 6.72399C8.0793 6.73524 8.20303 6.76897 8.33803 6.8196C8.8443 7.01647 9.33366 7.30897 9.80052 7.6971C10.0538 7.8996 10.3518 7.78147 10.6218 7.72522C11.4929 7.53995 12.3959 7.56696 13.2543 7.80397C13.4455 7.86022 13.5918 7.77585 13.766 7.63522C14.3887 7.11668 15.102 6.71806 15.8699 6.45961C16.0949 6.38647 16.2636 6.35835 16.393 6.38086C17.3493 6.54961 17.4225 8.69835 17.3774 9.42396C17.3438 9.94711 17.2874 10.4646 17.2143 10.9821C17.1186 11.6459 17.4336 12.034 17.5518 12.6527C17.6919 13.3274 17.6413 14.028 17.406 14.6758C17.1705 15.3236 16.7593 15.8928 16.2186 16.3202C15.5211 16.8545 14.5649 17.3834 13.6986 17.4734C13.6349 17.4785 13.571 17.4668 13.513 17.4395Z" fill="#070404"/>
<path d="M14.8514 7.9215C14.7276 7.91589 14.6095 7.92714 14.4856 7.97214C14.4069 7.99464 14.3001 8.06214 14.1764 8.16339C13.9176 8.37151 13.6531 8.51214 13.3325 8.46151C13.1245 8.42776 12.922 8.42214 12.7139 8.38276C12.2806 8.29276 11.7801 8.36026 11.3132 8.39401C11.032 8.41089 10.7901 8.45026 10.5819 8.51213C9.68192 8.79339 8.99568 9.41209 8.32631 10.0871C8.03381 10.3684 7.87631 10.7396 7.66257 11.0771C7.44946 11.4184 7.25602 11.7715 7.08319 12.1347C7.03257 12.1739 6.99881 12.1739 6.98193 12.1347C7.37568 10.9422 8.05068 9.77777 8.98443 8.97901C10.0476 8.06776 11.4031 7.86526 12.7195 8.11838L13.4169 8.25901C13.6251 8.30401 13.9569 7.97776 14.12 7.85401C14.6867 7.41913 15.3189 7.07735 15.9932 6.84153C16.1901 6.77964 16.342 6.77964 16.5162 6.87526C16.5556 6.90339 16.5556 6.9709 16.5051 6.98776C15.9201 7.22964 15.3689 7.539 14.8514 7.9215Z" fill="#FECBD4"/>
<path d="M14.8518 7.9215L14.2329 8.45589C13.8392 8.81026 14.2779 8.97901 14.5142 9.13087C14.5198 9.2265 14.5648 9.3165 14.6435 9.40655C15.6843 10.5315 16.5279 11.994 16.3873 13.6421L16.3817 13.6365C15.7793 13.5642 15.1697 13.5756 14.5704 13.6702C14.1148 13.7433 13.558 13.884 13.1417 13.839C12.8052 13.7992 12.4841 13.6755 12.2079 13.479C11.5893 13.0458 10.7454 12.309 9.93552 12.6353C9.41232 12.8546 9.03545 13.4115 8.4617 13.5015C8.09045 13.5633 7.72482 13.4453 7.3367 13.3328C7.14632 13.2918 6.95031 13.2842 6.75732 13.3102C6.79107 12.9164 6.8642 12.5227 6.98232 12.1346C6.9992 12.1739 7.03857 12.1739 7.08357 12.1346C7.25642 11.7714 7.44984 11.4184 7.66295 11.0771C7.8767 10.7397 8.0342 10.374 8.3267 10.0814C8.65295 9.75529 9.00732 9.36712 9.49672 9.04087C9.63729 8.94525 9.77239 8.82712 9.92415 8.75962C10.1379 8.66401 10.3573 8.57962 10.5823 8.51212C10.7904 8.45025 11.0323 8.41087 11.3135 8.394C11.7805 8.36026 12.281 8.29276 12.7198 8.38275C12.8323 8.40525 12.9335 8.42212 13.0235 8.42776C13.1135 8.42776 13.2148 8.44462 13.3273 8.4615C13.6535 8.51776 13.918 8.37151 14.171 8.16339C14.3005 8.06214 14.4073 7.99463 14.486 7.97212C14.6098 7.92713 14.7279 7.91588 14.8518 7.9215Z" fill="#FFB8C2"/>
<path d="M14.5137 9.13129C16.0663 10.0875 17.3825 11.7413 17.1968 13.7776C17.2024 13.7213 17.1574 13.71 17.0619 13.7326C17.0183 13.7467 16.9721 13.7508 16.9268 13.7438C16.7469 13.7044 16.5612 13.6763 16.3813 13.6425C16.5274 11.9944 15.6838 10.5319 14.643 9.40698C14.5688 9.33313 14.523 9.23553 14.5137 9.13129Z" fill="#CC949C"/>
<path d="M16.3813 13.638C16.185 14.7212 15.5886 15.6909 14.7106 16.3549C14.435 16.5798 14.2325 16.7713 14.0919 16.9174L13.6813 17.0523C13.5013 17.1087 13.3718 17.238 13.5127 17.4405C13.2988 17.4687 13.0908 17.5024 12.8827 17.5418C12.0256 17.6931 11.1451 17.6411 10.3119 17.3899C10.3343 17.3393 10.34 17.283 10.3175 17.2212C10.3132 17.2035 10.3034 17.1876 10.2894 17.1762C10.2295 17.129 10.1606 17.0946 10.0869 17.0749C8.28694 16.7037 6.68945 15.4325 6.75695 13.3063C6.95023 13.2821 7.14625 13.2915 7.33631 13.3343C7.72445 13.4468 8.09006 13.5593 8.46132 13.503C9.0407 13.413 9.41758 12.8505 9.93515 12.6424C10.7394 12.3105 11.5889 13.0474 12.2075 13.4805C12.5 13.683 12.8094 13.8012 13.1413 13.8405C13.5519 13.8855 14.1143 13.7448 14.57 13.6718C15.1693 13.5772 15.7789 13.5657 16.3813 13.638Z" fill="white"/>
<path d="M16.382 13.6365V13.6423C16.562 13.676 16.7478 13.704 16.9277 13.7434C16.967 13.7434 17.012 13.7434 17.0628 13.7323C17.1583 13.7098 17.2033 13.721 17.1977 13.7773C17.1695 14.0023 17.1527 14.2385 17.0682 14.4522C16.6183 15.6334 15.5215 16.466 14.3907 16.8485C14.2615 16.8934 14.1658 16.916 14.0928 16.916C14.2332 16.7698 14.4358 16.5784 14.7114 16.3535C15.5895 15.6894 16.1857 14.7198 16.382 13.6365Z" fill="#C8C9C9"/>
<path d="M7.93246 7.13555C8.53977 7.3073 9.10353 7.60643 9.58616 8.01304C9.60308 8.02431 9.59744 8.05805 9.58063 8.0693L9.07434 8.35055C9.06372 8.35747 9.0509 8.36013 9.03841 8.35806C9.02592 8.35598 9.01466 8.34928 9.00684 8.33931C8.788 8.03752 8.53924 7.7586 8.26435 7.5068C8.15184 7.39992 7.99434 7.32117 7.88746 7.23117C7.76934 7.1243 7.7806 7.09617 7.93246 7.13555Z" fill="#FFB8C2"/>
<path d="M16.3303 10.1438C16.3924 10.0931 16.4262 10.037 16.4262 9.975C16.3978 9.24375 16.3474 8.43938 16.2573 7.5675L16.7298 7.40439C16.7636 7.39875 16.7973 7.41564 16.8028 7.44938C17.0265 8.55656 17.0378 9.69609 16.8366 10.8075H16.8254L16.8142 10.7963L16.3248 10.1438H16.3303Z" fill="#F48E96"/>
<path d="M7.31471 10.2624C7.22479 9.36419 7.28562 8.45733 7.4947 7.57922C7.50127 7.57383 7.50895 7.56999 7.51721 7.56797C7.5243 7.56488 7.53196 7.56329 7.53971 7.56329C7.54745 7.56329 7.55512 7.56488 7.56221 7.56797C8.00096 7.7536 8.38907 8.24299 8.67595 8.6311C8.68721 8.64797 8.68721 8.66486 8.67033 8.67611C8.16407 9.13736 7.72533 9.67176 7.36533 10.2737C7.3372 10.3299 7.32033 10.3299 7.30909 10.2624H7.31471ZM16.264 7.56797C16.3485 8.43986 16.399 9.24422 16.4273 9.97544C16.4273 10.0374 16.3935 10.0936 16.3259 10.1443C15.8369 9.59563 15.2812 9.10997 14.6722 8.6986C14.6688 8.69598 14.6659 8.69259 14.6638 8.68869C14.6619 8.68478 14.661 8.68047 14.661 8.67611C14.661 8.67173 14.6619 8.66744 14.6638 8.66352C14.6659 8.65963 14.6688 8.65622 14.6722 8.65361C15.1673 8.23735 15.6848 7.85485 16.264 7.56797Z" fill="#ED6C74"/>
<path d="M12.5455 10.8752C12.6193 10.8775 12.693 10.8651 12.7621 10.8389C12.8313 10.8127 12.8944 10.7732 12.9483 10.7223C13.0021 10.6717 13.0455 10.611 13.0756 10.5436C13.106 10.4762 13.1228 10.4035 13.1249 10.3296C13.1272 10.2557 13.1148 10.182 13.0886 10.113C13.0624 10.0439 13.0229 9.98052 12.9721 9.92675C12.9215 9.87297 12.8608 9.82977 12.7933 9.7994C12.7259 9.76913 12.6531 9.75237 12.5793 9.75023C12.5055 9.74801 12.4318 9.76036 12.3626 9.78646C12.2935 9.81267 12.2303 9.85227 12.1765 9.90301C12.1228 9.95363 12.0793 10.0145 12.0491 10.0818C12.0188 10.1493 12.002 10.2219 11.9999 10.2959C11.9977 10.3698 12.01 10.4433 12.0361 10.5124C12.0623 10.5816 12.1019 10.6448 12.1527 10.6986C12.2033 10.7524 12.2641 10.7956 12.3316 10.826C12.3988 10.8563 12.4716 10.8731 12.5455 10.8752ZM9.22677 10.8752C9.53618 10.8471 9.76678 10.5771 9.74985 10.2677C9.74499 10.194 9.72531 10.122 9.69224 10.0559C9.65928 9.98986 9.61335 9.93113 9.5573 9.88287C9.50127 9.83472 9.43629 9.79816 9.36601 9.77543C9.29574 9.7526 9.22164 9.74407 9.14802 9.75023C8.83864 9.77836 8.60803 10.0482 8.62489 10.3577C8.6474 10.6671 8.91739 10.8977 9.22677 10.8752Z" fill="white"/>
<path d="M8.79922 12.5631C8.29859 12.5068 8.03422 12.0343 8.09047 11.6349C8.14672 11.2299 8.52922 10.8306 9.02984 10.8812C9.13926 10.8906 9.24554 10.9226 9.34207 10.9749C9.4386 11.0273 9.52326 11.099 9.59085 11.1855C9.65845 11.2722 9.7074 11.3717 9.73482 11.4781C9.76209 11.5844 9.76727 11.6953 9.7498 11.8037C9.70477 12.1187 9.47981 12.4224 9.13109 12.5293C9.02422 12.5574 8.91734 12.5687 8.80483 12.5574L8.79922 12.5631Z" fill="#070404"/>
<path d="M8.92848 11.5055C8.92536 11.5352 8.92817 11.5649 8.93668 11.5935C8.9452 11.622 8.95928 11.6486 8.9781 11.6716C8.99694 11.6945 9.02015 11.7136 9.04638 11.7276C9.07262 11.7417 9.10137 11.7503 9.13098 11.753C9.25472 11.7588 9.3616 11.663 9.3785 11.5393C9.38152 11.5098 9.37877 11.4799 9.37027 11.4514C9.36176 11.4229 9.34768 11.3964 9.32886 11.3734C9.31001 11.3503 9.28682 11.3313 9.26058 11.3174C9.23432 11.3034 9.20558 11.2946 9.17597 11.2919C9.11512 11.2886 9.05538 11.3091 9.00927 11.3489C8.96314 11.3888 8.9342 11.4449 8.92848 11.5055Z" fill="white"/>
<path d="M13.687 11.7187C13.6855 11.9419 13.5961 12.1558 13.4382 12.3136C13.2803 12.4716 13.0665 12.561 12.8433 12.5625C12.6763 12.5625 12.5132 12.513 12.3744 12.4203C12.2358 12.3276 12.1275 12.1959 12.0637 12.0416C11.9998 11.8874 11.9832 11.7178 12.0157 11.5542C12.0482 11.3905 12.1287 11.2401 12.2466 11.122C12.3646 11.0041 12.515 10.9237 12.6787 10.8912C12.8424 10.8587 13.0119 10.8753 13.1661 10.9392C13.3204 11.003 13.4521 11.1112 13.5448 11.2498C13.6375 11.3887 13.687 11.5518 13.687 11.7187Z" fill="#070404"/>
<path d="M12.6072 11.7187C12.6386 11.7238 12.6706 11.722 12.7012 11.7134C12.7318 11.7049 12.7604 11.6897 12.7844 11.6693C12.8086 11.6486 12.828 11.623 12.8415 11.5942C12.8546 11.5654 12.8616 11.5339 12.8616 11.5021C12.8616 11.4704 12.8546 11.439 12.8415 11.4101C12.828 11.3813 12.8086 11.3557 12.7844 11.3351C12.7604 11.3145 12.7318 11.2994 12.7012 11.2909C12.6706 11.2823 12.6386 11.2805 12.6072 11.2856C12.5557 11.2939 12.5089 11.3202 12.4752 11.3598C12.4414 11.3997 12.4229 11.4501 12.4229 11.5021C12.4229 11.5542 12.4414 11.6046 12.4752 11.6443C12.5089 11.6841 12.5557 11.7103 12.6072 11.7187Z" fill="white"/>
<path d="M9.36191 14.8412L9.76126 14.5149C9.77566 14.5049 9.78736 14.4912 9.79501 14.4754C9.80086 14.4586 9.80244 14.4403 9.79962 14.4228C9.79659 14.405 9.78927 14.3884 9.77825 14.3742C9.76925 14.3624 9.75777 14.3528 9.74434 14.3461C9.48 14.2337 9.28878 14.0537 9.24378 13.7387C9.21003 13.5024 9.26628 13.3449 9.41254 13.2492C9.71061 13.0693 10.5488 13.0579 10.7569 13.3954C10.8864 13.6037 10.7906 13.9299 10.6555 14.0986C10.5601 14.2112 10.4026 14.2899 10.2731 14.363C10.2618 14.37 10.252 14.3796 10.2451 14.3912C10.2365 14.4032 10.2307 14.417 10.2288 14.4319C10.2268 14.4466 10.2285 14.4616 10.2338 14.4754L10.2563 14.5092C10.453 14.6892 10.7682 14.9029 10.9876 14.9537C11.2855 15.0154 11.5444 14.6724 11.7638 14.4923C11.7715 14.4862 11.7806 14.4817 11.7905 14.4799C11.8003 14.4779 11.8104 14.4782 11.8201 14.4812C11.9155 14.5092 11.9776 14.5767 12 14.6837C12.0047 14.7067 12.0008 14.7308 11.9888 14.7512C11.7356 15.1449 11.2463 15.5387 10.7794 15.3024C10.5318 15.1729 10.2901 15.0324 10.065 14.8805C10.048 14.8694 10.0281 14.864 10.0079 14.8649C9.98772 14.866 9.96826 14.8733 9.95251 14.8861C9.64315 15.1279 9.27754 15.5049 8.91191 15.0548C8.82196 14.9485 8.73748 14.8379 8.65878 14.723C8.60253 14.6274 8.61378 14.5429 8.69816 14.4699L8.73191 14.4304C8.74712 14.417 8.76505 14.4071 8.78448 14.4013C8.80389 14.3954 8.82434 14.3939 8.84442 14.3967C8.86342 14.3989 8.88178 14.4049 8.89827 14.4147C8.91475 14.4244 8.929 14.4373 8.94003 14.4529L9.21004 14.8242C9.25503 14.8805 9.30566 14.8861 9.36191 14.8412Z" fill="#070404"/>
<path fill-rule="evenodd" clip-rule="evenodd" d="M21 3H3V21H21V3ZM18.1874 5.8125H5.8125V18.1876H18.1874V5.8125Z" fill="#FFC0C9"/>
</g>
<defs>
<clipPath id="clip0_328_25704">
<rect width="24" height="24" fill="white"/>
</clipPath>
</defs>
</svg>
