<svg width="24" height="24" viewBox="0 0 24 24" fill="none" xmlns="http://www.w3.org/2000/svg">
<g clip-path="url(#clip0_328_25726)">
<path d="M24 0H0V24H24V0Z" fill="#151E57"/>
<path d="M12.8421 7.36841H10.7369L10.1053 9.89473H8.08843C6.94738 9.89473 4 10.939 4 13.9116C4 15.5536 4.97685 16.6316 6.65264 16.6316H10.6947L11.1578 14.9474H7.25475C6.9137 14.9348 6.10527 14.4968 6.10527 13.739C6.10527 12.7874 7.20843 11.5789 8.46318 11.5789H9.68423L9.05265 14.1052C10.2906 14.1052 11.3684 13.2632 11.6674 12.0631L12.8421 7.36841ZM16.2106 7.36841H14.1053L12.4211 14.1052H14.5263L15.1579 11.5789H16.8758C17.2126 11.5915 17.8948 12.0295 17.8948 12.7874C17.8948 13.739 16.8085 14.9474 15.5579 14.9474H13.4568C12.9914 14.9477 12.5425 15.1197 12.1959 15.4304C11.8494 15.7412 11.6298 16.1689 11.579 16.6316H15.9285C17.2843 16.5305 20 15.5874 20 12.6148C20 10.9726 19.0316 9.89473 17.3642 9.89473H15.579L16.2106 7.36841Z" fill="white"/>
</g>
<defs>
<clipPath id="clip0_328_25726">
<rect width="24" height="24" fill="white"/>
</clipPath>
</defs>
</svg>
