<svg width="24" height="24" viewBox="0 0 24 24" fill="none" xmlns="http://www.w3.org/2000/svg">
<g clip-path="url(#clip0_328_25747)">
<path d="M24 0H0V24H24V0Z" fill="url(#paint0_linear_328_25747)"/>
<path d="M17.0794 8.60104L17.0634 8.60504L9.36474 16.4597C9.26205 16.5662 9.13905 16.6512 9.00299 16.7094C8.86692 16.7677 8.72057 16.7981 8.57257 16.7988C8.42458 16.7995 8.27792 16.7706 8.14128 16.7138C8.00464 16.6569 7.8808 16.5733 7.77704 16.4677L4.38963 13.0402C3.56178 12.2085 4.14168 10.8006 5.29747 10.8006H7.24514C7.58506 10.8006 7.91301 10.9326 8.16096 11.1726L9.96063 12.9043L9.0408 13.9041L7.24113 12.2004H5.41346L8.56889 15.3358L16.1196 7.60922C16.2442 7.48051 16.3933 7.37809 16.5582 7.30803C16.723 7.23796 16.9002 7.20167 17.0794 7.20129H18.5431C19.8429 7.20129 20.4908 8.81701 19.563 9.75684L12.9402 16.4477C12.8295 16.5596 12.6974 16.6482 12.5518 16.7081C12.4064 16.7681 12.2502 16.7982 12.0929 16.7967C11.9355 16.7953 11.7799 16.7622 11.6356 16.6994C11.4912 16.6367 11.361 16.5457 11.2524 16.4317L10.8005 15.9638L11.7603 14.9999L12.1042 15.3598L18.6231 8.801C18.6951 8.72902 18.6431 8.60104 18.5431 8.60104H17.0754H17.0794Z" fill="white"/>
</g>
<defs>
<linearGradient id="paint0_linear_328_25747" x1="19.9869" y1="8.66097" x2="4.00171" y2="8.66097" gradientUnits="userSpaceOnUse">
<stop stop-color="#097CB8"/>
<stop offset="1" stop-color="#8ADECF"/>
</linearGradient>
<clipPath id="clip0_328_25747">
<rect width="24" height="24" fill="white"/>
</clipPath>
</defs>
</svg>
