<svg width="24" height="24" viewBox="0 0 24 24" fill="none" xmlns="http://www.w3.org/2000/svg">
<g clip-path="url(#clip0_328_21755)">
<path d="M24 0H0V24H24V0Z" fill="#0A5A72"/>
<path d="M10.4605 4.75504C10.669 5.35304 11.235 5.81603 11.923 5.81603C12.6229 5.81603 13.1949 5.33604 13.3945 4.72453C13.526 4.32104 13.8985 3.90304 14.3069 4.02004C14.9095 4.19303 15.484 4.43204 16.0219 4.72853C16.3885 4.93052 16.362 5.47254 16.1715 5.84452C16.0233 6.1345 15.9704 6.46378 16.0201 6.78559C16.0697 7.1074 16.2196 7.40537 16.4482 7.63716C16.6769 7.86897 16.9729 8.02279 17.2939 8.0768C17.615 8.13082 17.945 8.08226 18.2369 7.93802C18.6119 7.75302 19.1555 7.73502 19.3519 8.10353C19.6109 8.58822 19.8208 9.09758 19.9785 9.62401C20.1 10.0305 19.6849 10.407 19.2824 10.5425C18.6769 10.7461 18.2044 11.314 18.2044 12.0076C18.2044 12.7005 18.6769 13.2684 19.2824 13.4725C19.6855 13.6075 20.1 13.984 19.9785 14.3904C19.8011 14.9828 19.5577 15.5535 19.253 16.0915C19.0514 16.4464 18.5289 16.4265 18.163 16.2435C17.8757 16.0994 17.5507 16.0481 17.233 16.0969C16.9155 16.1458 16.6208 16.2921 16.39 16.5159C16.1593 16.7396 16.0038 17.0296 15.9453 17.3455C15.8867 17.6616 15.9277 17.988 16.063 18.2796C16.236 18.6495 16.2415 19.1725 15.8795 19.3625C15.3995 19.6155 14.8909 19.8224 14.3609 19.979C13.9665 20.095 13.6009 19.7104 13.4619 19.324C13.2484 18.733 12.6835 18.28 12.0046 18.28C11.3255 18.28 10.7599 18.733 10.547 19.324C10.407 19.7104 10.042 20.095 9.64748 19.979C9.04199 19.8008 8.45887 19.5537 7.90948 19.2429C7.57749 19.055 7.57049 18.5856 7.71998 18.2345C7.8402 17.9519 7.87367 17.6398 7.81616 17.3381C7.75866 17.0364 7.61276 16.7587 7.39701 16.5401C7.18126 16.3215 6.9054 16.172 6.60448 16.1106C6.30356 16.0491 5.99117 16.0785 5.70699 16.1951C5.35349 16.34 4.8835 16.326 4.69999 15.9915C4.41597 15.4737 4.18833 14.9268 4.02099 14.3604C3.90499 13.9664 4.28999 13.602 4.677 13.4629C5.269 13.25 5.72199 12.6855 5.72199 12.0076C5.72199 11.329 5.269 10.765 4.677 10.552C4.28999 10.4131 3.90499 10.048 4.02099 9.65402C4.17245 9.14125 4.3734 8.64442 4.621 8.17053C4.806 7.81702 5.30999 7.81052 5.67599 7.96952C5.87092 8.05388 6.0811 8.09728 6.29349 8.09702C6.55604 8.0971 6.8143 8.03046 7.04403 7.90335C7.27375 7.77622 7.46739 7.59279 7.60676 7.37029C7.74612 7.14779 7.82665 6.89351 7.84078 6.63134C7.85489 6.36918 7.80215 6.10772 7.68749 5.87153C7.51249 5.51303 7.49699 5.01004 7.84248 4.81004C8.37696 4.50109 8.94432 4.25289 9.53398 4.07003C9.93999 3.94453 10.321 4.35453 10.4605 4.75504ZM12.0046 17.14C14.843 17.14 17.1445 14.842 17.1445 12.0076C17.1445 9.17251 14.843 6.87503 12.0046 6.87503C9.16548 6.87503 6.86449 9.17302 6.86449 12.0076C6.86449 14.842 9.16548 17.14 12.0046 17.14Z" fill="white"/>
<path d="M13.8412 8.57076C13.8614 8.63077 13.8997 8.68301 13.9509 8.72029C14.002 8.75757 14.0635 8.778 14.1267 8.77875C14.1911 8.77795 14.2534 8.75688 14.3051 8.71854C14.3567 8.68021 14.3949 8.62657 14.4143 8.56525C14.4397 8.48626 14.5127 8.40476 14.5922 8.42726C14.7098 8.46125 14.8223 8.50825 14.9273 8.56625C14.9988 8.60576 14.9938 8.71125 14.9562 8.78426C14.9271 8.84091 14.9165 8.90535 14.9261 8.96837C14.9357 9.0314 14.965 9.08977 15.0096 9.13518C15.0544 9.18059 15.1123 9.2107 15.1752 9.22121C15.2381 9.23173 15.3027 9.22212 15.3598 9.19376C15.4332 9.15725 15.5387 9.15376 15.5772 9.22575C15.6273 9.31976 15.6688 9.41925 15.6997 9.52324C15.7233 9.60276 15.6422 9.67623 15.5638 9.70272C15.5032 9.72267 15.4505 9.76093 15.4128 9.81238C15.3751 9.86372 15.3545 9.92555 15.3538 9.98924C15.3538 10.1247 15.4457 10.2358 15.5638 10.2758C15.6422 10.3023 15.7238 10.3758 15.6997 10.4552C15.6647 10.5723 15.6167 10.6838 15.5582 10.7877C15.5187 10.8572 15.4168 10.8528 15.3453 10.8177C15.2891 10.7896 15.2256 10.7796 15.1635 10.7892C15.1015 10.7987 15.0438 10.8273 14.9988 10.8711C14.9538 10.9148 14.9234 10.9715 14.912 11.0333C14.9007 11.0951 14.9087 11.1588 14.9352 11.2158C14.9688 11.2882 14.9702 11.3904 14.8993 11.4273C14.8057 11.4772 14.7063 11.5172 14.6027 11.5478C14.5257 11.5708 14.4547 11.4953 14.4277 11.4197C14.4069 11.3607 14.3684 11.3093 14.3175 11.2728C14.2665 11.2364 14.2055 11.2164 14.1428 11.2158C14.0802 11.2166 14.0194 11.2365 13.9685 11.2731C13.9176 11.3096 13.8791 11.3608 13.8583 11.4197C13.8313 11.4953 13.7598 11.5708 13.6828 11.5478C13.5645 11.5129 13.4507 11.4645 13.3433 11.4037C13.2784 11.3672 13.2772 11.2753 13.3064 11.2068C13.326 11.1608 13.334 11.1105 13.3296 11.0608C13.325 11.0108 13.3082 10.9628 13.2805 10.9212C13.253 10.8795 13.2155 10.8452 13.1712 10.8216C13.1272 10.7979 13.0779 10.7856 13.0277 10.7857C12.9885 10.7857 12.9496 10.7933 12.9132 10.8083C12.8444 10.8363 12.7523 10.8332 12.7168 10.7683C12.6617 10.6683 12.6168 10.5613 12.5843 10.4493C12.5613 10.3723 12.6368 10.3008 12.7123 10.2738C12.7714 10.2529 12.8228 10.2144 12.8592 10.1635C12.8956 10.1125 12.9156 10.0515 12.9163 9.98878C12.9154 9.92625 12.8954 9.86547 12.8589 9.81472C12.8224 9.76384 12.7713 9.72547 12.7123 9.7047C12.6368 9.67728 12.5613 9.60625 12.5843 9.52925C12.6138 9.42903 12.653 9.3319 12.7013 9.23926C12.7372 9.16975 12.8363 9.16876 12.9073 9.19925C12.964 9.22392 13.0269 9.23059 13.0876 9.21839C13.1483 9.2062 13.2036 9.1757 13.2464 9.13101C13.2892 9.08634 13.3172 9.02963 13.3268 8.96853C13.3363 8.90741 13.3268 8.84485 13.2998 8.78925C13.2657 8.71925 13.2628 8.62125 13.3303 8.58175C13.4337 8.52176 13.5444 8.47325 13.6603 8.43726C13.7397 8.41226 13.8143 8.49225 13.8412 8.57076ZM14.1403 10.8024C14.2497 10.806 14.3587 10.7879 14.4608 10.7487C14.5629 10.7095 14.6561 10.65 14.7349 10.5741C14.8136 10.498 14.8763 10.4069 14.919 10.3063C14.9618 10.2056 14.9839 10.0972 14.9839 9.98773C14.9839 9.8783 14.9618 9.77003 14.919 9.66923C14.8763 9.56855 14.8136 9.47747 14.7349 9.40146C14.6561 9.32544 14.5629 9.26607 14.4608 9.22685C14.3587 9.18766 14.2497 9.16942 14.1403 9.17324C13.9292 9.18064 13.7292 9.26971 13.5824 9.42164C13.4358 9.57358 13.3538 9.77656 13.3538 9.98773C13.3538 10.199 13.4358 10.402 13.5824 10.554C13.7292 10.7059 13.9292 10.7948 14.1403 10.8024ZM8.70931 9.63025C8.72948 9.69012 8.76774 9.74215 8.81879 9.77936C8.86984 9.81647 8.93116 9.83688 8.9943 9.8377C9.05859 9.837 9.12099 9.81588 9.17262 9.7775C9.22424 9.73923 9.26245 9.68556 9.2818 9.62426C9.30781 9.54525 9.3803 9.46375 9.4598 9.48676C9.5778 9.52025 9.68979 9.56676 9.79479 9.62525C9.86631 9.66476 9.8613 9.77027 9.82385 9.8433C9.79456 9.89988 9.78406 9.9644 9.79363 10.0274C9.80319 10.0904 9.83248 10.1488 9.87716 10.1943C9.92196 10.2396 9.97983 10.2697 10.0427 10.2802C10.1056 10.2907 10.1702 10.2812 10.2273 10.2528C10.3008 10.2163 10.4068 10.2128 10.4448 10.2853C10.4948 10.3793 10.5363 10.4782 10.5672 10.5823C10.5912 10.6617 10.5098 10.7352 10.4313 10.7623C10.3709 10.7821 10.318 10.8203 10.2805 10.8716C10.2428 10.9228 10.2221 10.9847 10.2213 11.0483C10.2213 11.1838 10.3132 11.2948 10.4313 11.3348C10.5098 11.3612 10.5912 11.4348 10.5672 11.5142C10.5327 11.63 10.4852 11.7416 10.4258 11.8468C10.3863 11.9168 10.2843 11.9123 10.2128 11.8768C10.1567 11.8486 10.0931 11.8385 10.031 11.8481C9.96898 11.8577 9.91146 11.8863 9.86631 11.93C9.82128 11.9738 9.79094 12.0304 9.77951 12.0923C9.7682 12.154 9.77625 12.2178 9.80285 12.2748C9.83679 12.3472 9.83785 12.4493 9.76726 12.4863C9.67334 12.5362 9.57381 12.5762 9.4708 12.6068C9.3938 12.6298 9.3223 12.5543 9.2948 12.4788C9.27401 12.4196 9.23555 12.3684 9.18466 12.332C9.13378 12.2956 9.07291 12.2755 9.0103 12.2748C8.9477 12.2755 8.88682 12.2956 8.83594 12.332C8.78505 12.3684 8.74661 12.4196 8.72581 12.4788C8.69881 12.5543 8.62731 12.6298 8.55031 12.6068C8.43202 12.572 8.31811 12.5236 8.2108 12.4628C8.14581 12.4264 8.14481 12.3343 8.17381 12.2658C8.19353 12.2198 8.20151 12.1696 8.19703 12.1197C8.19254 12.0699 8.17574 12.022 8.14812 11.9802C8.1205 11.9384 8.08294 11.9041 8.0388 11.8805C7.99467 11.8568 7.94537 11.8446 7.89531 11.8448C7.85603 11.8448 7.81715 11.8524 7.78081 11.8672C7.71181 11.8952 7.62031 11.8922 7.58431 11.8272C7.52932 11.7272 7.48431 11.6203 7.45181 11.5083C7.42931 11.4312 7.50431 11.3602 7.5798 11.3332C7.63894 11.3124 7.69025 11.2739 7.72675 11.2229C7.76323 11.172 7.78316 11.111 7.78381 11.0483C7.78316 10.9856 7.76323 10.9246 7.72675 10.8736C7.69025 10.8226 7.63894 10.7841 7.5798 10.7632C7.50431 10.7368 7.42931 10.6652 7.45181 10.5883C7.4818 10.4868 7.5208 10.3898 7.5688 10.2983C7.6048 10.2288 7.70381 10.2277 7.77481 10.2588C7.83152 10.2834 7.89444 10.2902 7.95508 10.2779C8.01571 10.2657 8.07115 10.2352 8.11391 10.1905C8.15668 10.1458 8.18475 10.0891 8.19428 10.028C8.20383 9.96696 8.19442 9.90432 8.1673 9.84878C8.13331 9.77878 8.13031 9.6802 8.19781 9.64125C8.30131 9.58125 8.41181 9.53225 8.5278 9.49625C8.60781 9.47175 8.6818 9.55175 8.70931 9.63025ZM9.0078 11.8613C9.11716 11.8652 9.22618 11.8468 9.32834 11.8076C9.4305 11.7684 9.52374 11.7091 9.60246 11.6331C9.68116 11.557 9.74382 11.466 9.78651 11.3652C9.82933 11.2645 9.85138 11.1562 9.85138 11.0468C9.85138 10.9373 9.82933 10.8291 9.78651 10.7284C9.74382 10.6276 9.68116 10.5364 9.60246 10.4605C9.52374 10.3844 9.4305 10.325 9.32834 10.2858C9.22618 10.2466 9.11716 10.2284 9.0078 10.2323C8.79673 10.2396 8.59676 10.3288 8.45005 10.4807C8.30335 10.6326 8.22135 10.8356 8.22135 11.0468C8.22135 11.258 8.30335 11.4609 8.45005 11.6129C8.59676 11.7648 8.79673 11.8538 9.0078 11.8613ZM10.2568 13.2963C10.277 13.3561 10.3152 13.4082 10.3662 13.4454C10.4173 13.4825 10.4787 13.5029 10.5418 13.5037C10.606 13.5029 10.6685 13.4819 10.72 13.4436C10.7717 13.4052 10.8099 13.3516 10.8292 13.2902C10.8552 13.2112 10.9277 13.1298 11.0073 13.1528C11.1252 13.1863 11.2372 13.2328 11.3423 13.2913C11.4137 13.3307 11.4088 13.4363 11.3713 13.5092C11.3421 13.5659 11.3315 13.6303 11.3411 13.6934C11.3507 13.7564 11.38 13.8148 11.4248 13.8601C11.4694 13.9056 11.5274 13.9357 11.5903 13.9463C11.6532 13.9568 11.7176 13.9472 11.7748 13.9187C11.8482 13.8823 11.9543 13.8788 11.9923 13.9508C12.0423 14.0447 12.0838 14.1442 12.1148 14.2483C12.1383 14.3277 12.0577 14.4012 11.9788 14.4283C11.9184 14.448 11.8656 14.4863 11.828 14.5376C11.7903 14.5888 11.7696 14.6507 11.7688 14.7143C11.7695 14.778 11.7901 14.8399 11.8278 14.8912C11.8654 14.9426 11.9182 14.981 11.9788 15.0008C12.0577 15.0273 12.1388 15.1008 12.1148 15.1802C12.0801 15.2961 12.0328 15.4076 11.9733 15.5128C11.9337 15.5828 11.8318 15.5783 11.7603 15.5427C11.7041 15.5143 11.6405 15.504 11.5783 15.5134C11.516 15.5228 11.4584 15.5515 11.4131 15.5953C11.3679 15.6392 11.3376 15.696 11.3264 15.758C11.3151 15.8199 11.3235 15.8839 11.3503 15.9408C11.3843 16.0132 11.3853 16.1153 11.3143 16.1523C11.2208 16.2022 11.1212 16.2423 11.0178 16.2728C10.9408 16.2958 10.8697 16.2203 10.8428 16.1447C10.8219 16.0857 10.7834 16.0344 10.7324 15.9978C10.6815 15.9613 10.6204 15.9414 10.5578 15.9408C10.4952 15.9415 10.4344 15.9614 10.3834 15.998C10.3325 16.0344 10.2941 16.0857 10.2732 16.1447C10.2463 16.2203 10.1748 16.2958 10.0978 16.2728C9.97948 16.238 9.86562 16.1896 9.75828 16.1288C9.6933 16.0922 9.69225 16.0003 9.7213 15.9318C9.74102 15.8857 9.74906 15.8356 9.74451 15.7857C9.74008 15.7358 9.72328 15.6879 9.69563 15.6462C9.66798 15.6044 9.63042 15.5701 9.5863 15.5466C9.54217 15.5229 9.49286 15.5106 9.4428 15.5108C9.40353 15.5108 9.36465 15.5184 9.3283 15.5332C9.2593 15.5612 9.16781 15.5582 9.1318 15.4932C9.07681 15.3932 9.0318 15.2863 8.9993 15.1743C8.9768 15.0973 9.05181 15.0258 9.1273 14.9993C9.18644 14.9784 9.23774 14.9399 9.27424 14.8889C9.31074 14.838 9.33065 14.7769 9.3313 14.7143C9.33065 14.6516 9.31074 14.5906 9.27424 14.5396C9.23774 14.4886 9.18644 14.4501 9.1273 14.4292C9.05181 14.4023 8.9768 14.3312 8.9993 14.2543C9.02883 14.154 9.06801 14.057 9.1163 13.9642C9.1523 13.8948 9.2513 13.8937 9.3223 13.9248C9.37902 13.9494 9.44194 13.956 9.50257 13.9439C9.56322 13.9316 9.61864 13.9012 9.66141 13.8565C9.70414 13.8119 9.73226 13.7552 9.74183 13.694C9.75128 13.6329 9.74194 13.5704 9.71476 13.5148C9.68082 13.4448 9.67778 13.3462 9.74533 13.3072C9.84951 13.2467 9.96023 13.1982 10.0752 13.1623C10.1553 13.1377 10.2292 13.2178 10.2568 13.2963ZM10.5553 15.5273C10.6647 15.5311 10.7736 15.5128 10.8758 15.4736C10.978 15.4344 11.0712 15.3751 11.15 15.2991C11.2286 15.2231 11.2912 15.132 11.334 15.0312C11.3768 14.9306 11.3988 14.8222 11.3988 14.7128C11.3988 14.6033 11.3768 14.4951 11.334 14.3943C11.2912 14.2936 11.2286 14.2024 11.15 14.1265C11.0712 14.0504 10.978 13.9911 10.8758 13.9519C10.7736 13.9127 10.6647 13.8944 10.5553 13.8983C10.3442 13.9056 10.1442 13.9947 9.99756 14.1467C9.8508 14.2986 9.7689 14.5016 9.7689 14.7128C9.7689 14.924 9.8508 15.1269 9.99756 15.2789C10.1442 15.4308 10.3442 15.5199 10.5553 15.5273Z" fill="white"/>
<path d="M12.353 10.3762L10.846 10.7023L10.811 10.5432L12.3185 10.2173L12.353 10.3762ZM9.81843 13.1032L9.61499 12.6957L9.76044 12.6227L9.9645 13.0302L9.81843 13.1032ZM13.1329 11.4051L11.6265 13.3607L11.497 13.2612L13.004 11.3062L13.1329 11.4051Z" fill="white"/>
</g>
<defs>
<clipPath id="clip0_328_21755">
<rect width="24" height="24" fill="white"/>
</clipPath>
</defs>
</svg>
