<svg width="24" height="24" viewBox="0 0 24 24" fill="none" xmlns="http://www.w3.org/2000/svg">
<g clip-path="url(#clip0_328_21755)">
<path d="M24 0H0V24H24V0Z" fill="#0A5A72"/>
<path d="M10.4605 4.75498C10.669 5.35297 11.235 5.81596 11.923 5.81596C12.6229 5.81596 13.1949 5.33597 13.3945 4.72447C13.526 4.32098 13.8985 3.90298 14.3069 4.01998C14.9095 4.19297 15.484 4.43198 16.0219 4.72847C16.3885 4.93045 16.362 5.47247 16.1715 5.84445C16.0233 6.13443 15.9704 6.46371 16.0201 6.78552C16.0697 7.10733 16.2196 7.4053 16.4482 7.63709C16.6769 7.8689 16.9729 8.02272 17.2939 8.07673C17.615 8.13075 17.945 8.08219 18.2369 7.93795C18.6119 7.75295 19.1555 7.73495 19.3519 8.10346C19.6109 8.58815 19.8208 9.09751 19.9785 9.62393C20.1 10.0304 19.6849 10.4069 19.2824 10.5424C18.6769 10.746 18.2044 11.3139 18.2044 12.0075C18.2044 12.7004 18.6769 13.2683 19.2824 13.4724C19.6855 13.6074 20.1 13.9839 19.9785 14.3903C19.8011 14.9827 19.5577 15.5534 19.253 16.0914C19.0514 16.4463 18.5289 16.4264 18.163 16.2434C17.8757 16.0993 17.5507 16.048 17.233 16.0968C16.9155 16.1457 16.6208 16.292 16.39 16.5158C16.1593 16.7395 16.0038 17.0295 15.9453 17.3454C15.8867 17.6615 15.9277 17.9879 16.063 18.2795C16.236 18.6494 16.2415 19.1724 15.8795 19.3624C15.3995 19.6154 14.8909 19.8223 14.3609 19.9789C13.9665 20.0949 13.6009 19.7103 13.4619 19.3239C13.2484 18.7329 12.6835 18.2799 12.0046 18.2799C11.3255 18.2799 10.7599 18.7329 10.547 19.3239C10.407 19.7103 10.042 20.0949 9.64747 19.9789C9.04198 19.8007 8.45886 19.5536 7.90948 19.2428C7.57749 19.0549 7.57049 18.5855 7.71998 18.2344C7.84019 17.9518 7.87367 17.6397 7.81616 17.338C7.75866 17.0363 7.61276 16.7586 7.39701 16.54C7.18126 16.3214 6.9054 16.1719 6.60448 16.1105C6.30356 16.049 5.99117 16.0784 5.70699 16.195C5.35349 16.3399 4.8835 16.3259 4.69999 15.9914C4.41597 15.4736 4.18833 14.9267 4.02099 14.3603C3.90499 13.9663 4.28999 13.6019 4.677 13.4628C5.269 13.2499 5.72199 12.6854 5.72199 12.0075C5.72199 11.3289 5.269 10.7649 4.677 10.5519C4.28999 10.413 3.90499 10.0479 4.02099 9.65394C4.17245 9.14118 4.3734 8.64435 4.621 8.17046C4.806 7.81695 5.30999 7.81045 5.67599 7.96945C5.87092 8.05381 6.0811 8.09721 6.29349 8.09695C6.55604 8.09703 6.8143 8.03039 7.04403 7.90328C7.27375 7.77615 7.46739 7.59272 7.60676 7.37022C7.74612 7.14772 7.82664 6.89344 7.84077 6.63127C7.85488 6.36911 7.80215 6.10765 7.68749 5.87146C7.51249 5.51296 7.49699 5.00997 7.84248 4.80998C8.37695 4.50103 8.94431 4.25283 9.53397 4.06997C9.93998 3.94447 10.321 4.35447 10.4605 4.75498ZM12.0046 17.1399C14.843 17.1399 17.1445 14.8419 17.1445 12.0075C17.1445 9.17244 14.843 6.87496 12.0046 6.87496C9.16547 6.87496 6.86449 9.17295 6.86449 12.0075C6.86449 14.8419 9.16547 17.1399 12.0046 17.1399Z" fill="white"/>
<path d="M13.8411 8.57076C13.8613 8.63077 13.8996 8.68301 13.9508 8.72029C14.0019 8.75757 14.0634 8.778 14.1266 8.77875C14.191 8.77795 14.2533 8.75688 14.305 8.71854C14.3566 8.68021 14.3948 8.62657 14.4142 8.56525C14.4396 8.48626 14.5126 8.40476 14.5921 8.42726C14.7097 8.46125 14.8222 8.50825 14.9272 8.56625C14.9987 8.60576 14.9937 8.71125 14.9561 8.78426C14.927 8.84091 14.9164 8.90535 14.926 8.96837C14.9356 9.0314 14.9649 9.08977 15.0095 9.13518C15.0543 9.18059 15.1122 9.2107 15.1751 9.22121C15.238 9.23173 15.3026 9.22212 15.3597 9.19376C15.4331 9.15725 15.5386 9.15376 15.5771 9.22575C15.6272 9.31976 15.6687 9.41925 15.6996 9.52324C15.7232 9.60276 15.6421 9.67623 15.5637 9.70272C15.5031 9.72267 15.4504 9.76093 15.4127 9.81238C15.375 9.86372 15.3544 9.92555 15.3537 9.98924C15.3537 10.1247 15.4456 10.2358 15.5637 10.2758C15.6421 10.3023 15.7237 10.3758 15.6996 10.4552C15.6646 10.5723 15.6166 10.6838 15.5581 10.7877C15.5186 10.8572 15.4167 10.8528 15.3452 10.8177C15.289 10.7896 15.2255 10.7796 15.1634 10.7892C15.1014 10.7987 15.0437 10.8273 14.9987 10.8711C14.9537 10.9148 14.9233 10.9715 14.9119 11.0333C14.9006 11.0951 14.9086 11.1588 14.9351 11.2158C14.9687 11.2882 14.9701 11.3904 14.8992 11.4273C14.8056 11.4772 14.7062 11.5172 14.6026 11.5478C14.5256 11.5708 14.4546 11.4953 14.4276 11.4197C14.4068 11.3607 14.3683 11.3093 14.3174 11.2728C14.2664 11.2364 14.2054 11.2164 14.1427 11.2158C14.0801 11.2166 14.0193 11.2365 13.9684 11.2731C13.9175 11.3096 13.879 11.3608 13.8582 11.4197C13.8312 11.4953 13.7597 11.5708 13.6827 11.5478C13.5644 11.5129 13.4506 11.4645 13.3432 11.4037C13.2783 11.3672 13.2771 11.2753 13.3063 11.2068C13.3259 11.1608 13.3339 11.1105 13.3295 11.0608C13.3249 11.0108 13.3081 10.9628 13.2804 10.9212C13.2529 10.8795 13.2154 10.8452 13.1711 10.8216C13.1271 10.7979 13.0778 10.7856 13.0276 10.7857C12.9884 10.7857 12.9495 10.7933 12.9131 10.8083C12.8443 10.8363 12.7522 10.8332 12.7167 10.7683C12.6616 10.6683 12.6167 10.5613 12.5842 10.4493C12.5612 10.3723 12.6367 10.3008 12.7122 10.2738C12.7713 10.2529 12.8227 10.2144 12.8591 10.1635C12.8955 10.1125 12.9155 10.0515 12.9162 9.98878C12.9153 9.92625 12.8953 9.86547 12.8588 9.81472C12.8223 9.76384 12.7712 9.72547 12.7122 9.7047C12.6367 9.67728 12.5612 9.60625 12.5842 9.52925C12.6137 9.42903 12.6529 9.3319 12.7012 9.23926C12.7371 9.16975 12.8362 9.16876 12.9072 9.19925C12.9639 9.22392 13.0268 9.23059 13.0875 9.21839C13.1482 9.2062 13.2035 9.1757 13.2463 9.13101C13.2891 9.08634 13.3171 9.02963 13.3267 8.96853C13.3362 8.90741 13.3267 8.84485 13.2997 8.78925C13.2656 8.71925 13.2627 8.62125 13.3302 8.58175C13.4336 8.52176 13.5443 8.47325 13.6602 8.43726C13.7396 8.41226 13.8142 8.49225 13.8411 8.57076ZM14.1402 10.8024C14.2496 10.806 14.3586 10.7879 14.4607 10.7487C14.5628 10.7095 14.656 10.65 14.7348 10.5741C14.8135 10.498 14.8762 10.4069 14.9189 10.3063C14.9617 10.2056 14.9838 10.0972 14.9838 9.98773C14.9838 9.8783 14.9617 9.77003 14.9189 9.66923C14.8762 9.56855 14.8135 9.47747 14.7348 9.40146C14.656 9.32544 14.5628 9.26607 14.4607 9.22685C14.3586 9.18766 14.2496 9.16942 14.1402 9.17324C13.9291 9.18064 13.7291 9.26971 13.5823 9.42164C13.4357 9.57358 13.3537 9.77656 13.3537 9.98773C13.3537 10.199 13.4357 10.402 13.5823 10.554C13.7291 10.7059 13.9291 10.7948 14.1402 10.8024ZM8.70925 9.63025C8.72942 9.69012 8.76768 9.74215 8.81873 9.77936C8.86978 9.81647 8.9311 9.83688 8.99424 9.8377C9.05853 9.837 9.12093 9.81588 9.17256 9.7775C9.22418 9.73923 9.26239 9.68556 9.28174 9.62426C9.30775 9.54525 9.38024 9.46375 9.45974 9.48676C9.57774 9.52025 9.68973 9.56676 9.79473 9.62525C9.86625 9.66476 9.86124 9.77027 9.82379 9.8433C9.7945 9.89988 9.784 9.9644 9.79357 10.0274C9.80313 10.0904 9.83241 10.1488 9.87709 10.1943C9.92189 10.2396 9.97976 10.2697 10.0427 10.2802C10.1056 10.2907 10.1702 10.2812 10.2273 10.2528C10.3008 10.2163 10.4068 10.2128 10.4448 10.2853C10.4948 10.3793 10.5363 10.4782 10.5672 10.5823C10.5912 10.6617 10.5098 10.7352 10.4313 10.7623C10.3709 10.7821 10.318 10.8203 10.2805 10.8716C10.2428 10.9228 10.2221 10.9847 10.2213 11.0483C10.2213 11.1838 10.3132 11.2948 10.4313 11.3348C10.5098 11.3612 10.5912 11.4348 10.5672 11.5142C10.5327 11.63 10.4852 11.7416 10.4258 11.8468C10.3863 11.9168 10.2843 11.9123 10.2128 11.8768C10.1567 11.8486 10.0931 11.8385 10.031 11.8481C9.96891 11.8577 9.91139 11.8863 9.86624 11.93C9.82121 11.9738 9.79088 12.0304 9.77945 12.0923C9.76814 12.154 9.77618 12.2178 9.80278 12.2748C9.83672 12.3472 9.83779 12.4493 9.7672 12.4863C9.67328 12.5362 9.57375 12.5762 9.47074 12.6068C9.39374 12.6298 9.32224 12.5543 9.29474 12.4788C9.27395 12.4196 9.23549 12.3684 9.1846 12.332C9.13372 12.2956 9.07285 12.2755 9.01024 12.2748C8.94764 12.2755 8.88676 12.2956 8.83588 12.332C8.78499 12.3684 8.74655 12.4196 8.72575 12.4788C8.69875 12.5543 8.62725 12.6298 8.55025 12.6068C8.43196 12.572 8.31805 12.5236 8.21074 12.4628C8.14575 12.4264 8.14475 12.3343 8.17375 12.2658C8.19347 12.2198 8.20145 12.1696 8.19697 12.1197C8.19248 12.0699 8.17568 12.022 8.14806 11.9802C8.12044 11.9384 8.08288 11.9041 8.03874 11.8805C7.99461 11.8568 7.94531 11.8446 7.89525 11.8448C7.85597 11.8448 7.81709 11.8524 7.78075 11.8672C7.71175 11.8952 7.62025 11.8922 7.58425 11.8272C7.52926 11.7272 7.48425 11.6203 7.45175 11.5083C7.42925 11.4312 7.50425 11.3602 7.57974 11.3332C7.63888 11.3124 7.69019 11.2739 7.72669 11.2229C7.76317 11.172 7.7831 11.111 7.78375 11.0483C7.7831 10.9856 7.76317 10.9246 7.72669 10.8736C7.69019 10.8226 7.63888 10.7841 7.57974 10.7632C7.50425 10.7368 7.42925 10.6652 7.45175 10.5883C7.48174 10.4868 7.52074 10.3898 7.56874 10.2983C7.60474 10.2288 7.70375 10.2277 7.77475 10.2588C7.83146 10.2834 7.89438 10.2902 7.95502 10.2779C8.01565 10.2657 8.07109 10.2352 8.11385 10.1905C8.15662 10.1458 8.18469 10.0891 8.19422 10.028C8.20377 9.96696 8.19436 9.90432 8.16724 9.84878C8.13325 9.77878 8.13025 9.6802 8.19775 9.64125C8.30125 9.58125 8.41175 9.53225 8.52774 9.49625C8.60775 9.47175 8.68174 9.55175 8.70925 9.63025ZM9.00774 11.8613C9.1171 11.8652 9.22612 11.8468 9.32828 11.8076C9.43044 11.7684 9.52368 11.7091 9.6024 11.6331C9.6811 11.557 9.74376 11.466 9.78645 11.3652C9.82927 11.2645 9.85132 11.1562 9.85132 11.0468C9.85132 10.9373 9.82927 10.8291 9.78645 10.7284C9.74376 10.6276 9.6811 10.5364 9.6024 10.4605C9.52368 10.3844 9.43044 10.325 9.32828 10.2858C9.22612 10.2466 9.1171 10.2284 9.00774 10.2323C8.79667 10.2396 8.5967 10.3288 8.44999 10.4807C8.30329 10.6326 8.22129 10.8356 8.22129 11.0468C8.22129 11.258 8.30329 11.4609 8.44999 11.6129C8.5967 11.7648 8.79667 11.8538 9.00774 11.8613ZM10.2568 13.2963C10.277 13.3561 10.3152 13.4082 10.3662 13.4454C10.4173 13.4825 10.4787 13.5029 10.5418 13.5037C10.606 13.5029 10.6685 13.4819 10.72 13.4436C10.7717 13.4052 10.8099 13.3516 10.8292 13.2902C10.8552 13.2112 10.9277 13.1298 11.0073 13.1528C11.1252 13.1863 11.2372 13.2328 11.3423 13.2913C11.4137 13.3307 11.4088 13.4363 11.3713 13.5092C11.3421 13.5659 11.3315 13.6303 11.3411 13.6934C11.3507 13.7564 11.38 13.8148 11.4248 13.8601C11.4694 13.9056 11.5274 13.9357 11.5903 13.9463C11.6532 13.9568 11.7176 13.9472 11.7748 13.9187C11.8482 13.8823 11.9542 13.8788 11.9922 13.9508C12.0422 14.0447 12.0838 14.1442 12.1148 14.2483C12.1382 14.3277 12.0576 14.4012 11.9787 14.4283C11.9183 14.448 11.8656 14.4863 11.828 14.5376C11.7903 14.5888 11.7696 14.6507 11.7688 14.7143C11.7695 14.778 11.7901 14.8399 11.8278 14.8912C11.8653 14.9426 11.9181 14.981 11.9787 15.0008C12.0576 15.0273 12.1387 15.1008 12.1148 15.1802C12.0801 15.2961 12.0327 15.4076 11.9732 15.5128C11.9336 15.5828 11.8317 15.5783 11.7603 15.5427C11.7041 15.5143 11.6405 15.504 11.5783 15.5134C11.516 15.5228 11.4584 15.5515 11.4131 15.5953C11.3679 15.6392 11.3376 15.696 11.3264 15.758C11.3151 15.8199 11.3235 15.8839 11.3503 15.9408C11.3843 16.0132 11.3853 16.1153 11.3143 16.1523C11.2208 16.2022 11.1212 16.2423 11.0178 16.2728C10.9408 16.2958 10.8697 16.2203 10.8428 16.1447C10.8219 16.0857 10.7834 16.0344 10.7324 15.9978C10.6815 15.9613 10.6204 15.9414 10.5578 15.9408C10.4952 15.9415 10.4344 15.9614 10.3834 15.998C10.3325 16.0344 10.2941 16.0857 10.2732 16.1447C10.2463 16.2203 10.1748 16.2958 10.0978 16.2728C9.97941 16.238 9.86555 16.1896 9.75821 16.1288C9.69323 16.0922 9.69219 16.0003 9.72124 15.9318C9.74096 15.8857 9.74899 15.8356 9.74444 15.7857C9.74001 15.7358 9.72322 15.6879 9.69557 15.6462C9.66792 15.6044 9.63036 15.5701 9.58624 15.5466C9.54211 15.5229 9.4928 15.5106 9.44274 15.5108C9.40347 15.5108 9.36459 15.5184 9.32824 15.5332C9.25924 15.5612 9.16775 15.5582 9.13174 15.4932C9.07675 15.3932 9.03174 15.2863 8.99924 15.1743C8.97674 15.0973 9.05175 15.0258 9.12724 14.9993C9.18638 14.9784 9.23768 14.9399 9.27418 14.8889C9.31068 14.838 9.33059 14.7769 9.33124 14.7143C9.33059 14.6516 9.31068 14.5906 9.27418 14.5396C9.23768 14.4886 9.18638 14.4501 9.12724 14.4292C9.05175 14.4023 8.97674 14.3312 8.99924 14.2543C9.02877 14.154 9.06795 14.057 9.11624 13.9642C9.15224 13.8948 9.25124 13.8937 9.32224 13.9248C9.37896 13.9494 9.44188 13.956 9.50251 13.9439C9.56316 13.9316 9.61858 13.9012 9.66135 13.8565C9.70408 13.8119 9.73219 13.7552 9.74176 13.694C9.75121 13.6329 9.74187 13.5704 9.71469 13.5148C9.68076 13.4448 9.67772 13.3462 9.74526 13.3072C9.84944 13.2467 9.96016 13.1982 10.0752 13.1623C10.1553 13.1377 10.2292 13.2178 10.2568 13.2963ZM10.5553 15.5273C10.6647 15.5311 10.7736 15.5128 10.8758 15.4736C10.978 15.4344 11.0712 15.3751 11.15 15.2991C11.2286 15.2231 11.2912 15.132 11.334 15.0312C11.3768 14.9306 11.3988 14.8222 11.3988 14.7128C11.3988 14.6033 11.3768 14.4951 11.334 14.3943C11.2912 14.2936 11.2286 14.2024 11.15 14.1265C11.0712 14.0504 10.978 13.9911 10.8758 13.9519C10.7736 13.9127 10.6647 13.8944 10.5553 13.8983C10.3442 13.9056 10.1442 13.9947 9.99749 14.1467C9.85074 14.2986 9.76883 14.5016 9.76883 14.7128C9.76883 14.924 9.85074 15.1269 9.99749 15.2789C10.1442 15.4308 10.3442 15.5199 10.5553 15.5273Z" fill="white"/>
<path d="M12.353 10.3762L10.846 10.7023L10.811 10.5432L12.3185 10.2173L12.353 10.3762ZM9.81846 13.1032L9.61502 12.6957L9.76047 12.6227L9.96453 13.0302L9.81846 13.1032ZM13.1329 11.4051L11.6265 13.3607L11.497 13.2612L13.004 11.3062L13.1329 11.4051Z" fill="white"/>
</g>
<defs>
<clipPath id="clip0_328_21755">
<rect width="24" height="24" fill="white"/>
</clipPath>
</defs>
</svg>
