<svg width="24" height="24" viewBox="0 0 24 24" fill="none" xmlns="http://www.w3.org/2000/svg">
<g clip-path="url(#clip0_328_23721)">
<path d="M24 0H0V24H24V0Z" fill="#36781D"/>
<path d="M12.549 5.34005C14.655 5.34005 16.5404 6.33905 17.7689 7.90505C17.1406 6.95564 16.2879 6.17568 15.2865 5.63412C14.2849 5.09256 13.1655 4.8061 12.027 4.80005C8.16148 4.80005 4.8 8.02204 4.8 12.0001C4.8 13.2016 5.0835 14.3356 5.59199 15.3301C5.7945 15.2716 6.00149 15.2131 6.19949 15.1636C5.75655 14.1696 5.54868 13.0873 5.59199 12.0001C5.72699 8.29654 8.92199 5.34005 12.549 5.34005ZM12.0225 19.2001C12.111 19.2002 12.1996 19.1988 12.288 19.1955C9.993 19.1056 7.78799 17.8276 6.64499 15.9376C8.29199 15.6496 10.875 15.6 11.9999 15.6C12.9585 15.6 15.0914 15.6181 16.554 15.8431C16.6845 15.6721 16.8015 15.4966 16.9139 15.3121C15.9015 15.0511 14.844 14.8711 13.7639 14.7765C13.5749 14.5381 13.4534 14.025 13.5119 13.5301C13.5434 13.2601 13.5749 13.1161 13.584 13.2151C13.6064 13.5301 14.1195 12.9046 14.2185 12.4411C14.3039 12.0496 14.5829 11.6401 14.7675 11.6401C14.8215 11.6401 14.9654 11.5861 15.0869 11.5186C15.2085 11.4511 15.411 11.3701 15.537 11.3386C15.8385 11.2621 15.9104 11.0236 15.708 10.7941C15.4155 10.4566 15.4019 10.3756 15.6135 10.1505L15.8114 9.92996H15.51C15.348 9.92557 15.1365 9.86707 15.042 9.79507C14.8349 9.63304 14.6685 9.62854 14.3805 9.78607C13.7639 10.1235 12.099 10.3261 9.8715 10.3261L9.72299 10.3306C7.93199 10.3306 7.62149 10.3351 7.47299 11.3251C7.42799 11.6266 7.41899 11.9281 7.4055 12.2251L7.37849 12.765C7.23449 13.1161 7.1625 13.395 7.2165 13.71C7.2255 13.7551 7.24349 13.7956 7.26149 13.8316C7.27949 13.8766 7.30199 13.9216 7.30649 13.9801L7.29749 14.1916C7.2885 14.277 7.28399 14.34 7.30649 14.34C7.48649 14.34 7.61249 13.08 7.4775 12.765V12.6301C7.4775 12.3376 7.47299 11.8876 7.58999 11.7661C7.62598 11.7301 7.65299 11.8291 7.65299 11.9911C7.65299 12.1486 7.71599 12.4006 7.79249 12.5536C7.90499 12.7786 7.90948 12.8776 7.82849 13.0846C7.71149 13.2961 7.75198 13.6785 7.79249 14.0521L7.82849 14.4706C7.83299 14.6326 7.80149 14.7766 7.76999 14.8891V14.907C7.77899 14.9746 7.84648 14.9746 7.89599 14.9791C7.91849 14.9791 7.94098 14.9791 7.94549 14.9881C7.99049 15.0151 8.00398 15.0645 7.99049 15.1051C6.186 15.474 4.503 16.0906 3 16.9051C4.00154 16.5624 5.02354 16.2828 6.06 16.0681C6.72283 17.038 7.61334 17.8308 8.65361 18.3768C9.69387 18.9229 10.8523 19.2055 12.027 19.2001H12.0225ZM9.15148 14.9026C8.87698 14.9431 8.60249 14.9881 8.33249 15.0376C8.2245 14.9521 8.18849 14.7495 8.14799 14.4706C8.10299 14.1556 8.13899 14.025 8.41799 13.5481C8.74199 12.9811 8.91748 12.8371 8.66099 13.3456C8.52599 13.6155 8.52599 13.6426 8.78699 14.1106C8.93099 14.3715 9.05249 14.6506 9.05249 14.7271C9.05249 14.7991 9.09748 14.8755 9.15148 14.9026ZM12.54 14.7091C11.5691 14.6839 10.5977 14.7274 9.63298 14.8396C9.48899 14.7316 9.38549 14.5111 9.27299 14.2546C9.15599 13.9846 9.13798 13.8181 9.19198 13.5571C9.23248 13.3681 9.25949 13.1656 9.25498 13.1026C9.24598 12.954 9.27299 12.9046 9.903 13.1341C10.128 13.2151 10.4025 13.3591 10.506 13.458C10.641 13.584 10.713 13.6021 10.758 13.5256C10.9604 13.1926 12.207 12.9406 12.549 13.1701C12.6614 13.2466 12.657 13.2601 12.5265 13.2601C12.4455 13.2601 12.3915 13.3096 12.4185 13.3726C12.4409 13.4356 12.4724 13.7776 12.4905 14.1286C12.4905 14.1286 12.3285 14.4436 12.414 14.4751C12.549 14.5201 12.549 14.6371 12.54 14.7091ZM13.287 14.7406L12.9585 14.7226C12.801 14.5605 12.7605 14.1241 12.8685 13.71C12.927 13.4941 12.936 13.4986 13.0754 13.8451C13.1565 14.0431 13.2465 14.3581 13.2735 14.5426C13.287 14.6235 13.2914 14.6911 13.287 14.7406ZM21 16.9006C20.0831 16.6086 19.152 16.3638 18.2099 16.167C18.2999 16.0501 18.444 15.7756 18.444 15.7756C19.3439 16.0906 20.199 16.4686 21 16.9006ZM18.5025 12.0901C18.5025 15.5685 15.4694 18.3901 12.0675 18.3901C10.2585 18.3901 8.62949 17.5936 7.5 16.3201L7.54049 16.4551C8.13682 17.1984 8.89228 17.7987 9.75135 18.2114C10.6103 18.6242 11.551 18.8388 12.5039 18.8401C16.05 18.8401 19.2 15.915 19.2 12.3151L19.1955 12.0901C19.1145 9.72304 17.5215 7.68005 15.6 6.60005C14.628 6.05555 13.1115 6.15005 12.3195 6.33004C13.1295 6.48754 13.602 7.12205 14.1195 7.81055C14.4878 8.36223 14.9439 8.85013 15.4694 9.25504C16.113 9.70504 17.1795 9.68704 17.2155 9.43504C17.2695 9.06604 16.6485 8.26504 16.0364 7.77004C15.6765 7.47305 15.015 7.20755 14.6595 7.06355C14.5244 7.00955 14.4345 6.97355 14.421 6.96004C15.267 7.09505 15.951 7.30654 16.581 7.90505C17.634 8.91754 18.5025 10.371 18.5025 12.0901Z" fill="white"/>
</g>
<defs>
<clipPath id="clip0_328_23721">
<rect width="24" height="24" fill="white"/>
</clipPath>
</defs>
</svg>
