<svg width="24" height="24" viewBox="0 0 24 24" fill="none" xmlns="http://www.w3.org/2000/svg">
<g clip-path="url(#clip0_328_23741)">
<path d="M24 0H0V24H24V0Z" fill="white"/>
<path d="M4 20H15.7334V18.9333H16.8V17.8667H17.8666V16.8H18.9334V15.7333H20V8.26667H18.9334V7.2H17.8666V6.13334H16.8V5.06668H15.7334V4H8.26667V5.06668H7.2V6.13334H6.13333V7.2H5.06666V8.26667H4V20Z" fill="#E97E00"/>
<path d="M5.06641 18.9323H14.6664V17.8657H15.7331V16.799H16.7997V15.7324H17.8664V14.6657H18.9331V9.33234H17.8664V8.26566H16.7997V7.199H15.7331V6.13233H14.6664V5.06567H9.33307V6.13233H8.26641V7.199H7.19974V8.26566H6.13307V9.33234H5.06641V18.9323Z" fill="#FFCC00"/>
<path d="M4 19.9995V16.3035H5.056V14.1329H5.59999V13.0661H6.66667V10.9328H7.73333V8.26614H8.8V7.19947H9.8667V6.13281H13.6V7.19947H14.6666V8.26614H16.8V9.33281H17.8666V11.9995H15.2V10.9328H13.0667V11.9995H14.1333V13.0661H15.2V14.1329H16.2666V15.1994H13.0667V14.1329H12V13.0661H10.9333V14.1329H9.8667V15.7328H12V16.7994H13.0667V17.8662H10.9333V16.7994H8.8V19.9995H4Z" fill="url(#paint0_linear_328_23741)"/>
<path d="M15.7332 9.86548V10.9322H16.7998V9.86548H15.7332Z" fill="#6C6C6C"/>
<path d="M12 7.73291V8.79959H13.0666V7.73291H12Z" fill="white"/>
</g>
<defs>
<linearGradient id="paint0_linear_328_23741" x1="6.97846" y1="6.77486" x2="23.4707" y2="25.7164" gradientUnits="userSpaceOnUse">
<stop stop-color="#1A1E21"/>
<stop offset="1" stop-color="#06060A"/>
</linearGradient>
<clipPath id="clip0_328_23741">
<rect width="24" height="24" fill="white"/>
</clipPath>
</defs>
</svg>
