<svg width="24" height="24" viewBox="0 0 24 24" fill="none" xmlns="http://www.w3.org/2000/svg">
<g clip-path="url(#clip0_328_21981)">
<path d="M24 0H0V24H24V0Z" fill="#FFBB51"/>
<path fill-rule="evenodd" clip-rule="evenodd" d="M12.5625 4.125H9.51373L4.125 18.75H12.5625C14.5019 18.75 16.3619 17.9795 17.7332 16.6082C19.1046 15.2369 19.875 13.3769 19.875 11.4375C19.875 9.49816 19.1046 7.63813 17.7332 6.26679C16.3619 4.89542 14.5019 4.125 12.5625 4.125ZM12.5625 5.8125H10.8751L6.65625 17.0625H12.5625C14.0544 17.0625 15.485 16.47 16.5399 15.415C17.595 14.36 18.1875 12.9294 18.1875 11.4375C18.1875 9.94575 17.595 8.51491 16.5399 7.46003C15.485 6.40513 14.0544 5.8125 12.5625 5.8125Z" fill="white"/>
<path d="M13.4062 3H15.7181L9.24938 21H6.9375L13.4062 3ZM16.7814 3H19.0931L12.6244 21H10.3125L16.7814 3Z" fill="white"/>
</g>
<defs>
<clipPath id="clip0_328_21981">
<rect width="24" height="24" fill="white"/>
</clipPath>
</defs>
</svg>
