<svg width="24" height="24" viewBox="0 0 24 24" fill="none" xmlns="http://www.w3.org/2000/svg">
<g clip-path="url(#clip0_328_22092)">
<path d="M24 0H0V24H24V0Z" fill="white"/>
<path d="M18.0133 11.7661L13.8487 13.399C13.4394 13.4601 13.2041 13.2484 12.9124 13.0225L7.91021 9.07917C7.80579 9.00747 7.72577 8.90556 7.68091 8.78712C7.63603 8.66866 7.62845 8.53932 7.65917 8.41643C7.6899 8.29355 7.75746 8.18299 7.85278 8.09959C7.94813 8.01618 8.06667 7.96392 8.19255 7.94982L12.7194 6.8722C12.87 6.85337 13.0252 6.88631 13.1524 6.97103L14.9876 8.20391C14.7423 8.12752 14.4901 8.0755 14.2347 8.04863C12.2723 7.89334 10.5172 8.55683 10.4466 9.5262C10.3713 10.4956 11.9995 11.3802 13.9429 11.5355C15.891 11.6907 16.4604 11.112 16.5358 10.1567C16.5358 10.1191 15.7876 8.58037 15.7876 8.53802L18.1545 10.3262C18.578 10.6084 18.4979 11.5919 18.0133 11.7661Z" fill="#FF7E36"/>
<path d="M10.061 4.01084C10.3528 3.90261 11.2186 4.63199 11.7457 4.98962C12.3446 4.76563 12.9869 4.68192 13.6232 4.74492C13.9385 4.79198 14.2491 4.8861 14.5362 5.03197C14.8137 4.84374 16.296 3.70027 16.3948 4.09084C16.456 4.38259 16.4654 4.67904 16.4137 4.9708C16.3261 5.50682 16.2098 6.03776 16.0654 6.56132C15.9996 6.82484 15.8254 7.07895 15.849 7.31422C15.8772 7.67186 15.9336 8.02478 16.0231 8.373C16.1125 8.69299 16.1595 9.0318 16.3713 9.25297C17.5337 10.1517 18.5594 11.4458 18.7712 12.0904C18.8197 12.1958 18.8331 12.314 18.8094 12.4275C18.7857 12.541 18.7261 12.644 18.6394 12.721C18.4915 12.8344 18.3096 12.8943 18.1233 12.8908C17.9369 12.8875 17.7572 12.8209 17.6136 12.7022C17.3624 12.4968 17.1294 12.2701 16.9172 12.0246C16.7525 11.8551 16.5784 11.6952 16.3948 11.5399C16.3446 11.4882 16.2783 11.455 16.2067 11.4458C16.056 11.4553 15.9102 11.4928 15.7689 11.5399C15.3454 11.6481 14.9125 11.7281 14.4796 11.7752C14.6443 11.9823 15.0067 12.2646 15.2325 12.5139C15.3972 12.674 15.5054 12.8904 15.5337 13.1257C15.5337 13.3469 15.2843 13.6622 14.6161 13.5727C14.2961 13.4786 13.9808 13.3516 13.6797 13.1963C10.9645 11.5916 10.8469 10.0434 10.5363 7.42717C10.4327 6.7072 10.1033 5.80841 9.97161 5.01786C9.92455 4.68847 9.78339 4.13319 10.0657 4.02025" fill="#050000"/>
<path d="M15.2076 6.85247C15.0663 6.8666 14.9582 7.116 14.8028 7.22893C14.5677 7.39834 14.2241 7.33246 14.2383 7.2007C14.2571 7.06894 14.3324 7.05953 14.5347 7.02659C14.737 6.99836 15.0993 6.83837 14.9817 6.25955C14.8876 5.75604 14.3182 5.86899 14.3182 5.86899C14.2804 5.80861 14.2287 5.75825 14.1671 5.7222C14.1058 5.68615 14.0365 5.66547 13.9653 5.66194C13.7159 5.64312 13.5089 5.96309 13.5089 5.96309C13.4871 5.97548 13.4629 5.9826 13.4378 5.9839C13.413 5.98519 13.388 5.98063 13.3651 5.97057C13.3423 5.9605 13.3221 5.94522 13.3062 5.92595C13.2902 5.90667 13.279 5.88394 13.2736 5.85958C13.2303 5.77779 13.1583 5.71481 13.0715 5.6827C12.9847 5.65057 12.8892 5.65156 12.803 5.68546C12.6907 5.72245 12.5944 5.79677 12.5301 5.89608C12.466 5.9954 12.4377 6.1137 12.4501 6.23132C12.4791 6.3285 12.5409 6.41261 12.625 6.46927C12.7091 6.52591 12.8102 6.55158 12.9112 6.54191C13.0807 6.5325 13.1888 6.6219 13.17 6.7019C13.1466 6.82424 12.8077 6.91835 12.4877 6.73014C12.4134 6.67546 12.3516 6.60568 12.3062 6.52539C12.2607 6.4451 12.2328 6.35611 12.2243 6.26426L12.2383 6.11369C12.2383 6.11369 11.7207 6.11368 11.5984 6.55132C11.476 6.98894 11.7866 7.2054 11.956 7.18658C12.0736 7.17717 11.9842 7.01247 12.1302 6.87601C12.1588 6.84922 12.1967 6.83431 12.236 6.83431C12.2753 6.83431 12.313 6.84922 12.3418 6.87601C12.3631 6.90431 12.3726 6.93977 12.3682 6.97488C12.3638 7.00999 12.3459 7.04203 12.3183 7.06423C12.3097 7.07024 12.3001 7.07499 12.2901 7.07835C12.2054 7.12541 12.1442 7.34657 12.3842 7.48304C12.4878 7.54421 12.3278 7.8595 12.1347 7.61951C12.0266 7.47834 12.0359 7.41246 11.9136 7.43128C11.8081 7.42463 11.7083 7.38137 11.6313 7.30893C11.6031 7.29481 11.4619 7.3654 11.5183 7.52539C11.5748 7.69009 11.5654 7.90184 12.1112 7.92537C12.2243 7.92537 12.2619 7.94891 12.2854 8.03831C12.3089 8.13242 12.5771 8.54182 12.9819 8.32065C13.0627 8.28908 13.1278 8.22689 13.1631 8.14759C13.1983 8.0683 13.2008 7.97829 13.17 7.89713C13.1528 7.84986 13.1246 7.80733 13.0878 7.77298C13.051 7.73865 13.0067 7.71348 12.9583 7.69949C12.9179 7.68941 12.8828 7.66438 12.8601 7.62947C12.8373 7.59454 12.8288 7.5523 12.836 7.51127C12.8407 7.48775 12.8501 7.46422 12.8641 7.44538C12.9112 7.39834 12.9583 7.41716 13.0759 7.46422C13.4194 7.60539 13.5795 8.02889 13.3582 8.21712C13.2642 8.29241 13.4523 8.41476 13.6077 8.43829C13.7629 8.46182 14.3606 8.40064 14.4265 8.06183C14.4453 7.95831 14.45 7.85008 14.4406 7.74186C14.4406 7.58657 14.6758 7.56774 14.6758 7.67126C14.6853 7.77478 14.6758 7.79361 14.7229 7.83596C14.8547 7.9536 15.2076 7.80303 15.3064 7.57245C15.4099 7.33716 15.3865 6.82895 15.2123 6.85247H15.2076ZM13.6547 7.51127C13.5935 7.51127 13.5136 7.41716 13.5559 7.3701C13.6406 7.26187 13.6783 7.12541 13.6689 6.99365C13.6547 6.85718 13.5748 6.80543 13.5748 6.73014C13.5753 6.69972 13.5864 6.67044 13.6061 6.64728C13.6259 6.62413 13.653 6.6085 13.6829 6.60307C13.8147 6.55603 13.9182 6.86189 13.9042 7.12071C13.8995 7.32305 13.7959 7.50657 13.6547 7.50657V7.51127ZM13.7959 5.98663C13.843 5.85958 13.9182 5.8737 13.9512 5.87839C13.9794 5.87839 14.0688 5.91133 14.0641 5.99134C14.0641 5.99134 14.0171 6.24073 14.1111 6.32073C14.1663 6.35616 14.2282 6.38023 14.2927 6.39154C14.3574 6.40285 14.4236 6.40118 14.4876 6.38661C14.503 6.39089 14.5173 6.39825 14.5298 6.40824C14.5422 6.41825 14.5524 6.43065 14.5599 6.44474C14.5674 6.45883 14.572 6.47429 14.5733 6.49018C14.5746 6.50608 14.5727 6.52206 14.5677 6.5372C14.5597 6.56249 14.5429 6.58414 14.5206 6.59838C14.4262 6.64448 14.3204 6.66235 14.2161 6.64982C14.1117 6.6373 14.0132 6.59493 13.9324 6.52779C13.8639 6.45761 13.8148 6.3708 13.79 6.27591C13.7654 6.18103 13.7657 6.08132 13.7912 5.98663H13.7959Z" fill="#F0F3FA"/>
<path fill-rule="evenodd" clip-rule="evenodd" d="M13.9761 5.56935C14.051 5.57421 14.124 5.59473 14.1904 5.62958C14.2569 5.66445 14.3154 5.71286 14.362 5.7717C14.4531 5.7641 14.545 5.76884 14.6349 5.78582C14.7242 5.80463 14.8231 5.84229 14.903 5.91758C14.983 5.99287 15.0442 6.10109 15.0772 6.24698C15.1383 6.55284 15.0772 6.76929 14.9501 6.91517C14.8278 7.05163 14.6678 7.1034 14.5501 7.12222H14.5454L14.4278 7.14104C14.4052 7.14462 14.383 7.15094 14.362 7.15987L14.3431 7.17398L14.3337 7.20692H14.3431C14.3572 7.22104 14.3901 7.23045 14.4372 7.23516C14.5314 7.24927 14.6537 7.22575 14.7478 7.15516C14.8042 7.11281 14.8513 7.05634 14.9078 6.98575L14.9407 6.94811C14.9736 6.90576 15.0113 6.86342 15.0489 6.83047C15.0909 6.79236 15.1433 6.76776 15.1995 6.75989C15.2983 6.75047 15.3642 6.81635 15.3971 6.88224C15.43 6.9434 15.4442 7.0234 15.4583 7.1081C15.4724 7.2728 15.4536 7.47516 15.3925 7.60692C15.3436 7.70918 15.2688 7.79687 15.1754 7.86127C15.0822 7.92565 14.9736 7.96451 14.8607 7.97395C14.7888 7.97799 14.7181 7.95443 14.6631 7.90807C14.6292 7.87875 14.606 7.83904 14.5972 7.79514L14.5878 7.70102H14.5783C14.5663 7.70234 14.5547 7.70726 14.5454 7.71514C14.5424 7.71825 14.54 7.72193 14.5383 7.72597C14.5367 7.73001 14.5359 7.73432 14.5361 7.73868C14.5454 7.85161 14.5361 7.96925 14.5219 8.07748V8.08219C14.4748 8.30806 14.2584 8.421 14.0795 8.47747C13.8914 8.53393 13.689 8.54335 13.5949 8.53393C13.5007 8.51981 13.4019 8.47747 13.3314 8.421C13.2925 8.39269 13.2629 8.35334 13.2467 8.30806C13.2372 8.27978 13.2367 8.24928 13.2451 8.22067C13.2535 8.19206 13.2704 8.16672 13.2937 8.14807C13.369 8.08689 13.3878 7.97867 13.3408 7.85632C13.2937 7.73396 13.1901 7.61161 13.0444 7.55515C13.0086 7.53988 12.9726 7.52577 12.9361 7.5128L12.9313 7.53163C12.9293 7.54767 12.933 7.5639 12.9416 7.5776C12.9501 7.5913 12.9632 7.60165 12.9785 7.60692H12.9879C13.0497 7.62609 13.1061 7.65949 13.1527 7.70444C13.1992 7.74938 13.2348 7.80462 13.256 7.86572C13.2949 7.96881 13.2922 8.08299 13.2482 8.18402C13.2043 8.28506 13.1228 8.365 13.0209 8.40688C12.9078 8.46804 12.7996 8.48687 12.6961 8.47747C12.5972 8.46335 12.5079 8.42569 12.4373 8.37394C12.3743 8.32791 12.3186 8.27235 12.2726 8.20924C12.2309 8.15635 12.2005 8.0955 12.1832 8.03042C12.1832 8.02573 12.1644 8.01631 12.1126 8.01631C11.8303 8.0069 11.6609 7.94572 11.5668 7.8422C11.5247 7.79776 11.4926 7.7448 11.4727 7.68691L11.4491 7.61633V7.61161L11.4303 7.55986C11.4135 7.51501 11.409 7.4665 11.4172 7.41932C11.4255 7.37216 11.4462 7.32806 11.4773 7.29163C11.4992 7.2657 11.5266 7.24483 11.5574 7.23045C11.5723 7.22343 11.5881 7.21866 11.6044 7.21633C11.6185 7.21633 11.6514 7.21634 11.6844 7.23516L11.6891 7.23986C11.755 7.29633 11.8303 7.33398 11.9149 7.33868L12.009 7.34339C12.046 7.35374 12.0788 7.37508 12.1032 7.40456C12.1205 7.42695 12.1362 7.45056 12.1503 7.47516L12.2114 7.56457C12.2491 7.61161 12.2726 7.61161 12.2773 7.61161C12.282 7.61161 12.2915 7.61161 12.3008 7.60221C12.3132 7.58924 12.3214 7.57285 12.3244 7.55515C12.1879 7.47516 12.1268 7.36692 12.122 7.25398C12.122 7.15045 12.169 7.04694 12.2491 6.99988H12.2585V6.99046C12.2654 6.98506 12.2705 6.97763 12.273 6.9692C12.2756 6.96076 12.2754 6.95174 12.2726 6.9434C12.2615 6.93381 12.2473 6.92851 12.2326 6.92851C12.2179 6.92851 12.2037 6.93381 12.1926 6.9434C12.1456 6.99046 12.136 7.03752 12.1268 7.09399V7.1034C12.122 7.12693 12.1126 7.16457 12.0938 7.19751C12.0817 7.22138 12.0637 7.24171 12.0414 7.25656C12.0192 7.27139 11.9934 7.28023 11.9668 7.28221C11.722 7.30574 11.3739 7.0234 11.5103 6.52931C11.5808 6.2705 11.7691 6.14344 11.9338 6.08228C12.029 6.04816 12.1291 6.02911 12.2303 6.0258H12.3384L12.3196 6.26579C12.3284 6.34173 12.3526 6.41508 12.3906 6.48141C12.4287 6.54774 12.4798 6.60566 12.5408 6.65166C12.682 6.73635 12.8232 6.75518 12.9313 6.74106C12.9743 6.73664 13.0158 6.72385 13.0538 6.70342C13.0625 6.69845 13.0705 6.69209 13.0773 6.6846L13.0584 6.66577C13.0173 6.6419 12.9693 6.632 12.9221 6.63754C12.7995 6.64926 12.6767 6.61815 12.5747 6.54951C12.4725 6.48086 12.3974 6.37893 12.362 6.26108V6.24226C12.3484 6.10447 12.3819 5.96614 12.4571 5.84989C12.5325 5.73365 12.6449 5.64636 12.7761 5.60229C12.8825 5.56245 12.9997 5.56242 13.1061 5.6022C13.2124 5.64199 13.3008 5.7189 13.3548 5.81875L13.3596 5.82817V5.84698L13.369 5.86581C13.3769 5.87919 13.3892 5.88935 13.4038 5.89452C13.4185 5.89967 13.4344 5.89951 13.4491 5.89404C13.4877 5.8381 13.5319 5.78608 13.5808 5.73876C13.6702 5.65876 13.8066 5.55994 13.9713 5.56935H13.9761ZM13.5902 6.01639L13.5808 6.03522L13.5619 6.04462C13.5283 6.06493 13.4904 6.07716 13.4512 6.08035C13.412 6.08355 13.3728 6.0776 13.3363 6.06301C13.2997 6.04842 13.2672 6.02558 13.241 5.99626C13.2148 5.96693 13.1959 5.93194 13.1856 5.89404C13.1512 5.83717 13.0981 5.7942 13.0351 5.77268C12.9723 5.75117 12.9039 5.75248 12.842 5.7764H12.8373C12.7465 5.80579 12.6682 5.86501 12.6152 5.94443C12.5623 6.02387 12.5377 6.11888 12.5455 6.21403C12.5697 6.28794 12.6183 6.35146 12.6832 6.39419C12.7482 6.43694 12.8258 6.45636 12.9031 6.44931H12.9078C13.0067 6.44931 13.0961 6.46814 13.1667 6.51049C13.2278 6.55753 13.2844 6.62813 13.2608 6.72223C13.2524 6.75217 13.2381 6.7801 13.2187 6.80436C13.1994 6.82862 13.1752 6.8487 13.1479 6.86342C13.0913 6.89636 13.0254 6.91987 12.9549 6.92459C12.7748 6.94326 12.5933 6.90368 12.4373 6.81164L12.4325 6.80695C12.3478 6.74449 12.2772 6.66485 12.2252 6.57321C12.1733 6.48159 12.1413 6.38004 12.1315 6.2752V6.26579L12.136 6.21873C12.0938 6.22814 12.0467 6.23756 11.995 6.26108C11.9217 6.28524 11.8554 6.32707 11.8021 6.38287C11.7487 6.43867 11.7099 6.50673 11.6891 6.58107C11.5855 6.94811 11.8303 7.09869 11.9385 7.09869V7.06106H11.9432C11.9529 6.96464 11.9963 6.87473 12.0656 6.80695C12.1116 6.76428 12.1721 6.74058 12.2349 6.74058C12.2977 6.74058 12.3582 6.76428 12.4043 6.80695L12.4138 6.81635C12.435 6.84306 12.4499 6.87412 12.4575 6.9073C12.4654 6.94047 12.4656 6.97496 12.4583 7.00825C12.4512 7.04155 12.4367 7.07284 12.4159 7.09987C12.3952 7.1269 12.3687 7.14899 12.3384 7.16458H12.3337L12.3196 7.1881C12.3121 7.20591 12.3089 7.22527 12.3102 7.24457C12.3102 7.28692 12.3337 7.34809 12.4279 7.40456C12.5031 7.44221 12.5173 7.51751 12.5126 7.57398C12.5063 7.63195 12.4815 7.68637 12.442 7.72927C12.4197 7.754 12.3919 7.77325 12.3608 7.7855C12.3299 7.79774 12.2964 7.80266 12.2632 7.79985C12.1879 7.79985 12.122 7.7528 12.0656 7.6775C12.0405 7.64562 12.0171 7.61265 11.995 7.57867V7.57398L11.9573 7.52692H11.9102C11.8021 7.51751 11.6986 7.47986 11.6138 7.41869C11.609 7.42579 11.6059 7.4338 11.6044 7.44222V7.49869L11.6279 7.55986V7.56457L11.6467 7.62573C11.6609 7.65867 11.675 7.69162 11.6986 7.71514C11.7455 7.7622 11.8491 7.82337 12.1126 7.83278C12.1737 7.83278 12.2349 7.83278 12.282 7.87043C12.3308 7.90529 12.3644 7.95746 12.3761 8.01631V8.02101L12.3903 8.03983L12.4232 8.0963C12.4562 8.14336 12.4984 8.18571 12.5455 8.22336C12.5972 8.2563 12.6538 8.28453 12.7197 8.28924C12.7808 8.29865 12.8514 8.28924 12.9361 8.24218L12.9408 8.23747H12.9502C12.979 8.22606 13.0052 8.2091 13.0273 8.18755C13.0496 8.16599 13.0673 8.14028 13.0795 8.11186C13.0918 8.08346 13.0983 8.05291 13.0987 8.02197C13.0991 7.99105 13.0934 7.96034 13.082 7.93161C13.0708 7.89882 13.0524 7.86905 13.0279 7.84458C13.0034 7.8201 12.9737 7.80158 12.9408 7.79043C12.8765 7.77577 12.8203 7.73662 12.7843 7.68128C12.7483 7.62596 12.7353 7.55878 12.7479 7.49397C12.7557 7.45639 12.7717 7.42104 12.7949 7.39045L12.7996 7.38103C12.8206 7.35958 12.8465 7.34343 12.875 7.33398C12.9025 7.32599 12.9313 7.32437 12.9596 7.32927C13.0067 7.33398 13.0538 7.35751 13.1102 7.37633C13.3126 7.46102 13.4537 7.62104 13.515 7.79043C13.5761 7.95044 13.5714 8.13865 13.4396 8.27041H13.4443C13.4913 8.30806 13.5572 8.33629 13.6231 8.34571C13.6842 8.35512 13.8584 8.34571 14.0231 8.29865C14.1925 8.24689 14.3101 8.15748 14.3384 8.04454C14.3525 7.95044 14.3572 7.8469 14.3525 7.74808V7.74337C14.3525 7.60692 14.456 7.53632 14.5407 7.51751C14.5878 7.50809 14.6349 7.5128 14.6818 7.53163C14.729 7.55515 14.7713 7.5975 14.776 7.66808V7.72927C14.7752 7.74022 14.7752 7.75124 14.776 7.7622L14.7902 7.77162C14.7996 7.77631 14.8184 7.78574 14.856 7.78574C14.9331 7.77796 15.007 7.75109 15.0711 7.70754C15.1353 7.66399 15.1874 7.60515 15.2231 7.53632C15.2653 7.43751 15.2842 7.2681 15.27 7.12693C15.2673 7.07176 15.2546 7.01755 15.2324 6.96693C15.2287 6.96004 15.2239 6.9537 15.2184 6.94811C15.2006 6.95351 15.1844 6.96322 15.1713 6.97634C15.1477 6.99517 15.1196 7.0234 15.0866 7.07046L15.0584 7.09869C15.0018 7.16928 14.936 7.24927 14.856 7.30574C14.7195 7.40456 14.5501 7.4375 14.4183 7.42339C14.3552 7.41864 14.294 7.39933 14.2396 7.36692C14.1878 7.32927 14.1408 7.2728 14.1454 7.1881C14.1513 7.14785 14.1657 7.10932 14.1878 7.07516C14.2109 7.04011 14.2436 7.01236 14.2819 6.99517C14.3594 6.97282 14.4379 6.95398 14.5172 6.93871H14.5219C14.6323 6.92409 14.7342 6.87073 14.809 6.78812C14.889 6.70342 14.9501 6.55284 14.8937 6.27991C14.8805 6.19504 14.839 6.11711 14.776 6.05874C14.7254 6.01259 14.6638 5.98018 14.5972 5.96462C14.5181 5.94889 14.4368 5.9473 14.3572 5.95993H14.3384L14.2725 5.97404L14.2396 5.92227C14.2096 5.87382 14.1681 5.83346 14.1189 5.80475C14.0697 5.77602 14.0142 5.75983 13.9572 5.75757C13.8773 5.75288 13.7878 5.80463 13.7126 5.87523C13.6669 5.91781 13.6259 5.96513 13.5902 6.01639ZM13.7031 5.96462C13.6756 6.06891 13.674 6.17837 13.6986 6.28339C13.7232 6.38841 13.7733 6.48578 13.8443 6.56696V6.56225C13.8209 6.53846 13.7914 6.5215 13.759 6.51321C13.7267 6.50491 13.6927 6.5056 13.6607 6.51519C13.6109 6.52581 13.5661 6.55296 13.5336 6.59227C13.5012 6.63156 13.483 6.68069 13.482 6.73166V6.73635C13.482 6.77401 13.496 6.80224 13.5055 6.82576L13.529 6.87282L13.5384 6.88693C13.5589 6.92147 13.5717 6.95998 13.5761 6.99988C13.5816 7.05529 13.5761 7.11124 13.5599 7.16454C13.5438 7.21783 13.5172 7.26741 13.482 7.31045C13.468 7.32634 13.4579 7.34516 13.4521 7.36553C13.4464 7.38588 13.4453 7.40727 13.4491 7.42809C13.4584 7.46103 13.4726 7.49397 13.496 7.51751C13.5243 7.55986 13.5855 7.60221 13.656 7.60221C13.769 7.60221 13.8584 7.52692 13.9102 7.44222C13.9666 7.3528 13.9949 7.23986 13.9996 7.12222C14.0043 6.98105 13.9807 6.83047 13.9337 6.71283C13.9206 6.66683 13.8964 6.6248 13.8631 6.59048H13.8678L13.8726 6.59519V6.5999C13.9669 6.67841 14.0818 6.72813 14.2036 6.74315C14.3254 6.75818 14.449 6.73784 14.5595 6.6846H14.569V6.67989C14.6113 6.65416 14.6431 6.61408 14.6584 6.56696C14.667 6.54008 14.6703 6.51174 14.6679 6.48361C14.6655 6.45547 14.6575 6.4281 14.6443 6.40309C14.6311 6.3781 14.6131 6.35599 14.5913 6.33807C14.5695 6.32015 14.5443 6.30677 14.5172 6.29873L14.4937 6.28932L14.4702 6.29402C14.369 6.31692 14.2628 6.30008 14.1737 6.24698L14.1596 6.21403C14.153 6.18628 14.1499 6.15784 14.1501 6.12932C14.1501 6.08992 14.1532 6.05057 14.1596 6.01168V5.99756C14.1608 5.96564 14.1543 5.93387 14.1404 5.90512C14.1264 5.87638 14.1056 5.85155 14.0795 5.83286C14.0425 5.80554 13.9985 5.78924 13.9525 5.78582C13.9385 5.78582 13.8914 5.78111 13.8443 5.79992C13.783 5.82346 13.7408 5.87523 13.7078 5.95521V5.96462H13.7031ZM13.8866 6.01639C13.8664 6.09365 13.8661 6.17479 13.8858 6.25217C13.9056 6.32955 13.9448 6.40064 13.9996 6.45872C14.0646 6.51156 14.1431 6.54527 14.2262 6.55608C14.3093 6.56687 14.3938 6.55435 14.4702 6.5199L14.4795 6.51049V6.49637C14.4787 6.49292 14.4771 6.4897 14.4748 6.48696C14.332 6.50843 14.1864 6.4766 14.0655 6.39755H14.0608L14.0561 6.39284C14.0161 6.35847 13.9881 6.31235 13.9761 6.26108L13.9619 6.12932C13.9613 6.0821 13.9645 6.03489 13.9713 5.98816V5.98345C13.9627 5.97835 13.953 5.97513 13.9432 5.97404H13.9148L13.9055 5.97874C13.897 5.99011 13.8907 6.00284 13.8866 6.01639ZM13.656 7.41869C13.6842 7.41869 13.7172 7.39515 13.7502 7.34339C13.7878 7.28692 13.8114 7.20222 13.8114 7.11752C13.816 6.99988 13.7972 6.87282 13.7643 6.78812C13.7526 6.75294 13.7334 6.72079 13.7078 6.694H13.7031C13.694 6.69516 13.6856 6.69963 13.6795 6.70657C13.6734 6.71351 13.6701 6.72243 13.6702 6.73166L13.6749 6.74577L13.6937 6.7787L13.7031 6.79753C13.735 6.8556 13.7542 6.91974 13.7596 6.98575C13.7738 7.13635 13.7361 7.28692 13.6467 7.40928C13.6494 7.41277 13.6525 7.41593 13.656 7.41869Z" fill="#DE6F28"/>
<path fill-rule="evenodd" clip-rule="evenodd" d="M12.6447 13.4131L7.63778 9.49327C7.55234 9.42574 7.45176 9.37994 7.3447 9.35983C7.23766 9.33973 7.12733 9.3459 7.02319 9.37784C6.91905 9.40977 6.82424 9.4665 6.74687 9.54316C6.6695 9.61983 6.61189 9.71413 6.57899 9.81792L5.21436 14.7825C5.16977 14.9159 5.16754 15.06 5.20797 15.1947C5.24842 15.3295 5.32953 15.4484 5.44022 15.5354L10.0988 19.4553C10.1844 19.5228 10.2848 19.5685 10.3919 19.5886C10.4989 19.6088 10.6093 19.6026 10.7135 19.5706C10.8176 19.5387 10.9125 19.4821 10.9898 19.4053C11.0672 19.3286 11.1248 19.2343 11.1577 19.1306L12.8705 14.1613C12.9158 14.0278 12.9184 13.8837 12.8778 13.7487C12.8374 13.6138 12.7559 13.4949 12.6447 13.4084V13.4131ZM10.0895 15.2483C10.186 14.8798 10.1889 14.493 10.0976 14.1232C10.0064 13.7533 9.82398 13.4121 9.5671 13.1308C9.41869 12.9762 9.25469 12.8375 9.07771 12.7167L8.59774 12.3685L8.09424 12.5567L7.44484 15.2013L8.29657 15.7895C8.45656 15.9025 8.62597 16.0013 8.80479 16.0812C8.96034 16.1572 9.13614 16.1813 9.30637 16.1499C9.4766 16.1186 9.63231 16.0334 9.75063 15.9071C9.92473 15.7189 10.0377 15.493 10.0895 15.2483ZM9.45417 14.7825C9.42123 14.9518 9.35064 15.1119 9.24711 15.253C9.20723 15.3022 9.15707 15.342 9.10017 15.3696C9.04326 15.3972 8.98098 15.4121 8.91772 15.413C8.84013 15.4118 8.76347 15.3959 8.69185 15.366C8.57629 15.3084 8.46607 15.2407 8.36245 15.1636L8.20716 15.0554L8.67773 13.1026L8.83772 13.2155C8.94124 13.2861 9.04007 13.3614 9.13418 13.446C9.33518 13.6499 9.46266 13.9148 9.49652 14.1989C9.51534 14.3966 9.50122 14.5942 9.44946 14.7825H9.45417Z" fill="#FF7E36"/>
<path d="M13.7078 14.0258L18.3335 12.2094C18.4031 12.1835 18.4794 12.1819 18.55 12.2047C18.593 12.217 18.6332 12.238 18.668 12.266C18.7028 12.2942 18.7315 12.3291 18.7526 12.3686C18.7738 12.4081 18.7867 12.4514 18.7907 12.496C18.7947 12.5406 18.7897 12.5856 18.7759 12.6282L17.1147 17.5503C17.0548 17.7124 16.9626 17.8606 16.8437 17.9861C16.7248 18.1114 16.5818 18.2113 16.423 18.2796L11.9997 19.9832C11.9395 20.0027 11.8749 20.0053 11.8133 19.9905C11.7517 19.9757 11.6953 19.9441 11.6506 19.8994C11.6058 19.8546 11.5742 19.7982 11.5594 19.7366C11.5446 19.675 11.5471 19.6105 11.5668 19.5503L13.3361 14.3975C13.4067 14.228 13.5432 14.0963 13.7126 14.0211L13.7078 14.0258ZM16.6865 14.8869L16.8748 14.2564L15.3925 14.7927L14.8937 15.3575L14.0231 18.195L14.6914 17.9502L15.1148 16.5622L16.2253 16.1527L16.4136 15.5222L15.3031 15.9269L15.4914 15.3245L16.6865 14.8869Z" fill="#FF7E36"/>
</g>
<defs>
<clipPath id="clip0_328_22092">
<rect width="24" height="24" fill="white"/>
</clipPath>
</defs>
</svg>
