<svg width="24" height="24" viewBox="0 0 24 24" fill="none" xmlns="http://www.w3.org/2000/svg">
<g clip-path="url(#clip0_328_20404)">
<path d="M24 0H0V24H24V0Z" fill="url(#paint0_linear_328_20404)"/>
<path d="M6.30208 9.00504L9.47576 4L4.74517 8.79047C4.35096 9.18469 4.53559 9.86329 5.07952 10.003L7.58452 10.6468C7.35998 11.0011 7.10548 11.4502 6.91086 11.9242C6.71003 12.377 6.59174 12.862 6.56156 13.3564C6.54433 13.6265 6.58332 13.8972 6.67608 14.1515C6.76885 14.4057 6.91337 14.638 7.10049 14.8334C7.51741 15.2741 8.01557 15.6298 8.56757 15.8813L8.64741 15.9213C9.03852 16.0978 9.36724 16.3882 9.59053 16.7546L9.71028 16.9193C10.1694 17.5681 10.898 18.5861 11.8311 19.2646C12.368 19.6724 13.0068 19.9245 13.6775 19.9932C14.4707 20.0428 15.2574 19.821 15.908 19.3644C16.6365 18.8854 17.1155 18.3565 17.3451 17.7427C17.5396 17.1625 17.5361 16.5342 17.3351 15.9562C17.1854 15.4521 16.9359 14.9333 16.6964 14.4542L16.6515 14.3645C16.3887 13.859 16.1667 13.3333 15.9878 12.7925C15.6685 11.7446 15.8879 11.2954 16.0178 11.1159C16.1019 11.0078 16.2141 10.9249 16.3421 10.8763L16.3471 10.8714H16.3621L16.387 10.8613L16.5018 10.8214L16.8011 10.7217C17.5474 10.4685 18.2926 10.2124 19.0367 9.95318C19.0725 9.93828 19.1074 9.92163 19.1415 9.90323C19.1915 9.87331 19.2413 9.83838 19.2812 9.79844C19.5358 9.53899 19.4559 9.22461 19.4459 9.18969C19.4243 9.10287 19.3853 9.02137 19.3312 8.95015L19.2663 8.87031L19.1066 8.69066C17.5874 7.12286 16.0637 5.5593 14.5357 4L17.7294 9.06992C17.1899 9.25614 16.6492 9.43913 16.1075 9.61883L16.0128 9.64877H16.0027C15.8876 9.68154 15.777 9.72846 15.6734 9.78854C15.419 9.92326 15.1994 10.1178 15.0247 10.3474C14.5756 10.9362 14.3859 11.8445 14.7852 13.1668C14.9848 13.8105 15.2743 14.4042 15.5287 14.9282L15.5537 14.9781C15.8032 15.4971 16.0178 15.9263 16.1375 16.3254C16.2555 16.6375 16.2662 16.9799 16.1674 17.2986C16.0676 17.573 15.8181 17.9073 15.2243 18.2965C14.805 18.6005 14.2944 18.7518 13.7772 18.7257C13.3333 18.6743 12.912 18.5016 12.5597 18.2267C11.8011 17.6778 11.1974 16.8295 10.7132 16.1608L10.6036 16.0111C10.2586 15.4764 9.76885 15.0507 9.19133 14.7836L9.1065 14.7337C8.68447 14.5445 8.30444 14.2732 7.98873 13.9353C7.87395 13.8205 7.80908 13.6609 7.81905 13.3963C7.82405 13.1169 7.91886 12.7825 8.06857 12.4182C8.36797 11.6897 8.84701 11.0061 9.03664 10.7465C9.35101 10.3224 9.12646 9.72858 8.63743 9.60385L6.30208 9.00504ZM11.5916 14.1997C11.5916 14.1997 10.6235 14.1997 9.97971 13.6009C9.33604 13.0021 9.97971 11.7995 9.97971 11.7995C9.97971 11.7995 10.1694 11.9193 10.878 12.7577C11.5916 13.6009 11.5916 14.1997 11.5916 14.1997Z" fill="white"/>
</g>
<defs>
<linearGradient id="paint0_linear_328_20404" x1="12.0257" y1="11.2107" x2="12.0008" y2="20.0032" gradientUnits="userSpaceOnUse">
<stop stop-color="#22E1FF"/>
<stop offset="1" stop-color="#002EFF"/>
</linearGradient>
<clipPath id="clip0_328_20404">
<rect width="24" height="24" fill="white"/>
</clipPath>
</defs>
</svg>
