<svg width="24" height="24" viewBox="0 0 24 24" fill="none" xmlns="http://www.w3.org/2000/svg">
<g clip-path="url(#clip0_328_20412)">
<path d="M24 0H0V24H24V0Z" fill="white"/>
<path d="M3 19.8735L5.48066 9.18581H8.20319L8.83319 6.37327H11.5556L12.0676 4.17389C20.0552 3.58886 21.3096 8.56145 20.944 11.1208C19.7684 17.9497 13.8394 19.8735 10.4251 19.8735H3Z" fill="#014A7F"/>
<path d="M19.6226 9.40166C18.7225 5.52035 14.8356 5.03097 13.0019 5.25035L12.715 6.37537C18.2556 6.49349 18.5483 10.5099 17.9633 12.4336C16.6469 16.2754 12.417 17.6255 10.7293 17.6255H6.2293L7.93368 10.3129H6.35867L4.4574 18.7506H9.75052C12.7881 18.7506 14.4645 17.9631 15.3195 17.4793C17.1814 16.4218 20.5283 13.2885 19.6283 9.40166H19.6226Z" fill="#014A7F"/>
<path d="M13.4231 7.50049H9.69377L9.32812 9.188H13.1475C13.9126 9.188 15.0489 9.58735 14.9475 10.9711C14.835 12.4506 13.3501 13.2155 12.6188 13.4125L13.4175 15.865C14.6157 15.4037 16.9556 13.6712 17.057 11.1119C17.1581 8.55236 14.5481 7.50049 13.4175 7.50049H13.4231Z" fill="#014A7F"/>
<path d="M7.63623 16.4986L9.10999 10.311H11.7144C12.4344 10.311 13.6719 10.2378 13.5931 11.1546C13.5089 12.1503 12.305 12.3416 11.7144 12.3135H9.63308L9.38003 13.3936H11.2364L12.0631 16.3298C11.7987 16.4142 11.3994 16.4986 11.2364 16.4986H7.63623Z" fill="#014A7F"/>
</g>
<defs>
<clipPath id="clip0_328_20412">
<rect width="24" height="24" fill="white"/>
</clipPath>
</defs>
</svg>
