<svg width="24" height="24" viewBox="0 0 24 24" fill="none" xmlns="http://www.w3.org/2000/svg">
<g clip-path="url(#clip0_328_20451)">
<path d="M24 0H0V24H24V0Z" fill="white"/>
<path d="M3.75188 14.9806C3.73599 14.8219 3.94245 14.589 4.04835 14.4884L3.98481 13.6518C3.73315 13.537 3.51461 13.3603 3.34953 13.1384L3.42893 11.4337L3.67246 10.4914C3.58776 10.6237 3.3707 10.8832 3.18543 10.8832C3.00013 10.8832 2.98953 10.6184 3.00542 10.4914V9.71324C3.00542 5.30327 6.31417 3.73095 7.97119 3.49273C8.16179 3.20156 8.64353 3.16449 8.86059 3.18567C9.12529 3.09037 9.77645 2.82038 10.2052 3.18567C10.5547 3.47684 10.1417 3.91623 9.89289 4.10152C9.99887 4.24448 10.4753 4.53564 11.4917 4.53564C12.7622 4.53564 13.8634 3.49273 14.8799 3.49273C15.7005 3.49273 16.2509 3.65154 16.4204 3.72566L16.4945 4.25506C18.7816 4.9274 18.9827 7.36794 18.8028 8.50086C19.618 9.73435 19.5969 10.0255 19.5969 10.3432C19.5696 10.603 19.4826 10.8531 19.3427 11.0737C19.5228 11.3808 19.6232 12.0849 19.6551 12.3972C20.1686 12.646 20.9998 13.2337 20.9998 14.1602C20.9998 14.9014 20.6874 15.4148 20.5285 15.579L20.7244 16.0025C20.7244 17.0348 20.3803 17.8871 20.2055 18.1837L19.6551 18.3636C18.8028 20.2588 16.8916 21 15.4622 21C14.324 21 13.3075 20.7406 12.9475 20.6134L11.8729 20.6824C11.7563 20.7883 11.4759 21 11.2906 21C11.0576 21 10.1789 20.8729 9.82933 20.7353C9.55934 20.624 9.44821 20.4177 9.42704 20.3223C9.04355 20.2449 8.67637 20.1016 8.34177 19.8988C7.5265 20.2324 7.01827 19.8352 6.94945 19.8352C6.23322 19.4378 5.65242 18.8348 5.28184 18.1041C5.12303 17.7706 5.17596 17.363 5.2289 17.1937L5.02244 16.8813C4.6942 16.8971 4.5301 16.8284 4.49304 16.786C4.10158 16.2542 3.84704 15.6341 3.75188 14.9806Z" fill="#29344A"/>
<path d="M14.4891 9.07141C14.6216 9.11375 14.8968 9.22493 14.9974 9.3361L15.8708 9.47905L16.4692 9.30964V8.89671C16.4902 8.83318 16.5432 8.66378 15.8128 8.73789C15.3563 8.77584 14.9092 8.88851 14.4891 9.07141ZM6.11405 15.0114C6.01346 15.5353 6.58521 15.8053 6.88168 15.8796L6.51639 16.25C6.1564 16.303 5.43642 16.1496 5.43642 15.1753C5.43642 14.2331 6.11405 13.206 6.43698 12.7138C6.52698 12.5707 6.59581 12.4754 6.59581 12.4437C6.62227 12.3219 6.67521 10.8767 6.69638 10.1673L6.37875 9.71723L6.84992 9.41022C6.55345 9.62199 6.79697 10.0032 6.9558 10.1725L7.56461 9.84967C7.74461 9.76485 8.10989 9.58493 8.15225 9.57962C8.19459 9.56899 8.4593 9.27257 8.58634 9.12434L8.73988 9.71723C8.25684 9.8535 7.82722 10.1346 7.50912 10.5228C7.191 10.911 6.99972 11.3874 6.9611 11.8878L6.69638 14.2596C6.54287 14.2913 6.21992 14.4873 6.11405 15.0114ZM6.88168 9.38905C6.8708 9.39567 6.86021 9.40273 6.84992 9.41022L6.88168 9.38905ZM5.56877 12.1313C5.56877 11.9302 5.68523 11.8666 5.74347 11.8401L5.76993 11.8296C5.40996 11.7025 5.36759 12.0731 5.39407 12.2742C5.35171 12.2742 5.267 12.2214 5.267 12.0361C5.267 11.8507 5.51583 11.6654 5.63759 11.5967C5.19289 11.533 5.0976 11.8614 5.10819 12.0361C5.10819 12.5973 5.50523 12.4807 5.70642 12.3537C5.65876 12.3537 5.56346 12.3113 5.56877 12.1313ZM9.9893 9.46317C10.0051 9.4261 10.3175 9.26199 11.4028 9.55318C12.4828 9.83899 13.2982 9.76485 13.9015 9.34141C13.8645 9.4367 13.8645 9.69079 14.1769 9.94485V10.6967C13.838 10.7707 13.1499 10.9084 13.1022 10.8767C13.0874 10.8651 13.0733 10.8526 13.0598 10.8396C12.9062 10.6861 12.3874 10.1831 11.6516 10.2414C11.3021 9.95025 10.471 9.38905 9.9893 9.46317ZM14.5685 9.6326C14.4944 9.50552 14.2456 9.48964 14.1239 9.50022C14.2018 9.44181 14.2966 9.41022 14.3939 9.41022C14.4912 9.41022 14.5859 9.44181 14.6639 9.50022C14.558 9.39434 14.3779 9.3361 14.3039 9.31494C14.3462 9.25141 14.4944 9.16141 14.7274 9.35198C14.9551 9.53725 14.7805 9.80726 14.6639 9.91841C14.6639 9.87611 14.6374 9.75956 14.5685 9.6326ZM11.6833 12.8514C11.3762 13.0366 10.7728 13.7725 10.5082 14.1219C10.8998 13.4867 11.7151 12.195 11.8475 12.0201C12.199 11.5891 12.6679 11.2692 13.1974 11.099L15.6274 10.4532L16.4109 11.279H15.0928C14.9657 11.279 14.8597 11.3161 14.7328 11.353C14.5632 11.4114 14.3728 11.4802 14.0815 11.459C13.5733 11.4273 12.7951 11.745 12.6045 12.0996C12.4457 12.3961 12.181 12.555 11.8739 12.7348L11.6833 12.8514ZM16.9879 11.3743C17.0303 11.3848 17.078 11.3954 17.1255 11.3954L17.1044 11.4007C17.4008 11.4696 17.9939 11.4219 17.9939 10.6755C17.9974 10.4892 17.9582 10.3047 17.8793 10.1361C17.8004 9.96735 17.6839 9.81919 17.5386 9.70252C17.3935 9.58592 17.2235 9.50419 17.0417 9.46363C16.8599 9.42304 16.6714 9.42471 16.4902 9.46847C16.7179 9.46847 17.1626 9.5743 17.4062 9.95554C17.2919 9.83246 17.1461 9.74291 16.9849 9.69635C16.8235 9.64966 16.6526 9.6478 16.4902 9.69079C16.7021 9.69079 17.1732 9.81255 17.3215 10.3261C17.5121 10.9561 17.1415 11.332 16.9879 11.3743ZM6.50581 17.907C6.38934 17.8012 6.11935 17.706 5.99758 17.6689C5.99758 17.8119 6.20404 18.1717 6.40522 18.5265L6.47404 18.6482C6.69638 19.04 7.47461 19.2942 7.53284 19.167C7.60166 19.04 7.33697 18.8335 7.08815 18.6482C6.85888 18.4309 6.66269 18.1813 6.50581 17.907ZM8.9834 19.167C9.0734 19.31 9.24811 19.5112 9.43868 19.5112C9.66107 19.5112 9.71925 19.3153 9.71925 19.22C9.5234 19.2835 9.13164 19.3576 8.97811 19.167H8.9834Z" fill="#4B5C7A"/>
<path d="M14.2986 13.0213C14.1609 12.8413 14.2456 12.7038 14.2986 12.6614C14.3728 12.8943 14.7855 13.0213 15.2251 13.0849C15.6644 13.1485 15.5002 13.0213 15.6698 13.1908C15.8074 13.3177 15.6168 13.572 15.5002 13.6778C15.7491 13.6143 15.8551 13.3972 15.8815 13.2967L16.6755 13.6778C16.5486 13.6089 16.4744 13.3972 16.4585 13.2967C16.6174 13.5772 17.3161 13.6778 17.5067 13.6778C17.6549 13.6778 17.6655 13.7837 17.6497 13.8366C17.7291 13.8313 17.8827 13.8737 17.8455 14.0802C17.8085 14.292 17.4115 14.4084 17.2209 14.4401C17.8879 14.4931 18.015 14.2495 17.9938 14.1225C18.3325 14.4369 18.595 14.8243 18.7614 15.2554C18.7086 15.3243 18.5655 15.5307 18.3908 15.7953C18.2162 16.06 18.1314 16.96 18.1155 17.3731C18.0044 17.6589 17.2474 18.2466 16.8821 18.5059L16.9668 17.7647L17.2209 15.573L15.0926 14.1967C14.8809 13.879 14.4363 13.1961 14.2986 13.0213Z" fill="#505E81"/>
<path d="M3.87941 7.25733C3.45589 8.16789 3.3606 9.58669 3.3606 10.1849C3.84765 9.81435 4.9647 9.06258 5.53644 9.06258C6.11349 9.06258 6.29348 9.36434 6.30937 9.51787C6.52113 9.29023 7.0717 8.83494 7.5958 8.83494C8.11992 8.83494 8.29992 8.98847 8.32638 9.06258L8.48521 8.782V8.46435L8.32638 8.63906L8.14638 6.8391V8.63906C7.36286 8.30024 6.70642 8.82964 6.47877 9.1367C6.52504 7.72925 7.03078 6.37562 7.91874 5.28266L7.87109 5.11324C7.01347 5.71147 6.37818 7.99319 6.17172 9.06258C6.11877 8.91434 5.87526 8.64965 5.32468 8.782C4.7794 8.91434 4.00118 9.41727 3.68354 9.65018C3.64647 8.52258 4.04883 7.53261 4.24999 7.17792C5.09704 5.55266 7.01876 4.47797 7.87109 4.14974L8.05638 4.52032C8.07226 4.48856 8.15169 4.41444 8.32638 4.3668C8.50638 4.32443 8.6599 4.4515 8.71284 4.52562L9.17343 4.21857C9.02413 4.15935 8.88897 4.06933 8.77678 3.9544C8.6646 3.83947 8.57786 3.7022 8.52226 3.55151H8.46402C8.45344 3.71563 8.58578 3.97505 8.65461 4.09151C8.51071 3.98081 8.39766 3.83497 8.32638 3.66798L8.14638 3.80563C8.13049 3.82151 8.04051 4.00151 8.00346 4.09151L7.91874 3.9221C7.05705 4.18055 6.25575 4.60874 5.56205 5.18155C4.86835 5.75432 4.29624 6.46009 3.87941 7.25733Z" fill="#CEDDF7"/>
<path fill-rule="evenodd" clip-rule="evenodd" d="M5.3886 9.43823C5.44154 9.36412 5.58447 9.21589 5.70625 9.24766H5.71684C5.87564 9.29 6.03447 9.33236 6.11917 9.80884C6.13505 9.89884 6.27799 10.0736 6.7174 10.0736C7.26798 10.0736 7.70737 9.53879 7.74442 9.03589L8.37971 9.24766V9.56535C7.92442 9.76114 7.01386 10.5606 7.01386 12.2017C7.02445 12.8529 7.47973 14.1075 9.23734 13.917L9.38557 14.0229L9.48617 14.5786L9.24263 14.6952L8.7556 14.457C8.67617 14.5999 8.61794 14.9863 9.03087 15.3886C8.96206 15.4152 8.7344 15.4152 8.37971 15.1822C8.26854 15.288 8.15208 15.6269 8.58088 16.1033V16.2729L8.30031 16.0506C8.16794 16.1775 7.99855 16.527 8.37971 16.961C8.32677 17.178 8.41677 17.6333 9.13676 17.7129C9.23734 17.8028 9.52322 17.9828 9.91494 18.0093L10.0579 18.7398C10.0579 18.8456 10.1374 19.0522 10.4709 19.0203C10.8044 18.9886 10.9209 18.9305 10.9367 18.904L11.3338 19.1952C11.2702 19.3221 11.2384 19.6239 11.5772 19.8305C11.9161 20.0368 12.1172 20.2009 12.1755 20.2539H10.9737L11.5772 20.3651C11.5984 20.4868 11.5085 20.7039 10.9737 20.6351L10.7726 20.6086C10.2272 20.5451 9.94678 20.5132 9.85149 20.1056L10.2856 20.148C9.73501 20.0052 8.59148 19.6716 8.43265 19.4598L8.58088 19.2851L7.57502 19.6398C7.25208 19.5391 6.51622 19.2005 6.14034 18.6446L5.91271 18.3268C5.61624 17.9033 5.51565 17.7656 5.65858 17.4005C5.70095 17.2945 5.7433 17.2098 5.78037 17.1356C5.90212 16.8975 5.96565 16.7652 5.74859 16.4582L5.65858 17.0405L5.07626 16.0186L5.15038 16.4582L4.73743 16.5109C4.40153 16.0958 4.19368 15.5917 4.1392 15.0605L4.4198 14.6952L4.73743 15.4363C4.4702 14.3973 4.34028 13.3276 4.35097 12.2547L4.19215 13.4194L3.76863 13.1387C3.67125 12.651 3.64451 12.1518 3.68923 11.6563C3.75011 11.1289 3.95937 10.6296 4.29274 10.2164L4.83272 10.0736C4.69508 10.4387 4.4198 11.254 4.4198 11.614C4.63156 11.0264 5.13449 9.76114 5.3886 9.44353V9.43823ZM5.28272 10.767C5.35154 10.7883 5.44154 10.6823 5.48389 10.5288C5.53154 10.3753 5.50507 10.2376 5.43095 10.2217C5.36212 10.2006 5.27213 10.3064 5.22449 10.4599C5.18213 10.6082 5.2033 10.746 5.27742 10.767H5.28272ZM5.97094 12.0694C5.95506 12.4188 5.70625 12.694 5.42565 12.6834C5.14507 12.6676 4.92803 12.3711 4.94391 12.0163C4.95979 11.667 5.20861 11.3863 5.48918 11.4023C5.77507 11.4183 5.9921 11.7147 5.97094 12.0694ZM6.9768 14.8857C7.22033 15.5105 7.04562 16.1563 6.59033 16.331C6.13505 16.5003 5.5633 16.1298 5.31978 15.4998C5.07626 14.8752 5.24566 14.2294 5.70095 14.0599C6.16153 13.8906 6.72799 14.261 6.9715 14.8857H6.9768ZM9.97322 19.4756C10.042 19.2798 9.83552 19.0309 9.51263 18.9252C9.19499 18.8192 8.87736 18.888 8.80852 19.084C8.73971 19.2851 8.94088 19.534 9.26382 19.6452C9.58147 19.7509 9.89908 19.6769 9.97322 19.4756ZM7.05092 18.1629C7.50091 18.6709 7.72325 19.2005 7.55385 19.3433C7.37914 19.4916 6.87622 19.1952 6.42622 18.6868C5.98153 18.1786 5.75388 17.6492 5.9286 17.5009C6.10329 17.358 6.60622 17.6545 7.05092 18.1629ZM4.90684 14.171C4.93861 14.3246 4.90684 14.4622 4.83272 14.4782C4.76392 14.494 4.6739 14.3829 4.64215 14.2294C4.60509 14.0706 4.64215 13.9383 4.71096 13.9223C4.78508 13.9063 4.86978 14.0175 4.90684 14.171Z" fill="url(#paint0_linear_328_20451)"/>
<path d="M9.26809 10.9372C9.0775 10.9372 8.78633 11.0642 8.65929 11.1277L8.84986 10.9372L8.65929 9.90479C8.2887 10.1166 7.14519 10.7149 7.24048 12.3348C7.31991 13.6265 8.57987 13.8542 9.19927 13.8065C9.59626 13.9918 9.94042 13.7958 10.0623 13.6742C9.82927 13.5524 9.76571 13.2082 9.76042 13.0547L9.29985 12.9859C9.57514 13.0125 9.92456 12.9118 10.0623 12.8536C10.0623 12.7848 10.0463 12.6206 10.0039 12.5095C9.96045 12.3742 9.93547 12.2333 9.92974 12.0912C9.71806 12.1865 9.40044 12.1601 9.26809 12.1388C9.48541 12.1073 9.69632 12.0412 9.89273 11.9429C9.85054 11.9059 9.76042 11.7736 9.76042 11.5406C9.76042 11.3131 9.87157 11.2231 9.92974 11.2018C9.78686 11.1119 9.45338 10.9372 9.26809 10.9372Z" fill="url(#paint1_linear_328_20451)"/>
<path d="M10.4921 11.3123C10.3651 11.3651 10.0421 11.3651 9.89925 11.3546C9.88867 11.45 9.88867 11.667 9.93626 11.8098C10.062 11.7794 10.1785 11.7185 10.2753 11.6328C10.3722 11.5468 10.4467 11.4387 10.4921 11.3175V11.3123ZM10.7568 12.1274C10.614 12.1804 10.2381 12.1751 10.0687 12.1646C10.0634 12.2598 10.0581 12.477 10.1111 12.6198C10.2502 12.5958 10.3818 12.5385 10.4943 12.4528C10.6066 12.3672 10.6968 12.2555 10.7568 12.1274ZM9.90982 13.16C10.0527 13.1281 10.3651 13.0434 10.4657 12.9587C10.4657 13.1016 10.3757 13.4298 10.074 13.5887C9.99566 13.4558 9.9402 13.3109 9.90982 13.16Z" fill="#E5EFF9"/>
<path d="M14.0976 12.4548C11.149 12.5184 10.4025 14.9695 10.3918 16.1871C10.5167 15.9024 10.7311 15.666 11.0025 15.5143C11.2737 15.3623 11.5874 15.3031 11.8953 15.3454V14.943C11.8602 14.7007 11.8602 14.4546 11.8953 14.2124C11.9483 14.0484 12.377 13.9423 12.5889 13.9106C12.9436 13.0743 13.5683 12.9047 13.8383 12.926V12.8201L14.0976 12.4548Z" fill="#EBEEF3"/>
<path d="M15.1501 11.6806C16.1075 11.8132 17.0081 12.2132 17.7481 12.8352C18.488 13.4572 19.0372 14.2755 19.3323 15.1959C19.4858 15.1959 19.6075 15.2435 19.6499 15.2648C19.6763 14.9154 19.491 13.9308 18.6176 12.7978C17.7388 11.6595 15.9387 11.5801 15.1501 11.6859V11.6806ZM12.9794 12.2895C13.6254 12.1624 15.2453 12.0832 16.5477 12.7924C17.5688 13.378 18.4222 14.2166 19.0252 15.2278H19.2211C18.9406 14.4335 17.9717 12.7342 16.3094 12.2313C14.2237 11.6119 13.08 11.8712 12.9741 12.2842L12.9794 12.2895Z" fill="url(#paint2_linear_328_20451)"/>
<path d="M18.2692 17.9291C17.5916 18.7391 16.2362 19.528 15.6433 19.8191C17.4645 19.5121 18.2797 18.5221 18.4597 18.0668L18.2692 17.9238V17.9291Z" fill="#BCC7D0"/>
<path d="M14.9499 20.167C13.4676 20.167 12.3028 19.6852 11.9058 19.4417C12.1175 19.8124 13.0229 20.5641 14.9499 20.5641C17.7502 20.5641 18.9575 18.9917 19.2115 18.2083C19.1585 18.2877 18.825 18.24 18.661 18.2083C18.4333 18.8171 16.8133 20.167 14.9552 20.167H14.9499Z" fill="url(#paint3_linear_328_20451)"/>
<path d="M9.06305 15.578C9.07363 15.7897 8.87246 16.028 8.77187 16.118C8.79834 16.4727 9.16892 16.5891 9.35422 16.5997C9.21128 16.6421 9.03657 16.6155 8.96246 16.5997C8.93599 16.7851 8.69776 17.0231 8.5813 17.1185C8.68081 17.1055 8.77354 17.0609 8.84599 16.9914C8.79306 17.129 8.64483 17.198 8.5813 17.2138C8.70835 17.4997 9.04716 17.5527 9.20069 17.542C9.41246 17.8438 10.0265 17.8438 10.3071 17.8067C9.70367 16.6632 10.053 15.3238 10.3071 14.7997C9.9578 14.6091 9.67179 14.6568 9.57656 14.6991C9.64006 14.9585 9.38069 15.2921 9.24304 15.4244C9.30658 15.5832 9.58718 15.7631 9.71948 15.832C9.31715 15.7791 9.20598 15.6415 9.20069 15.578H9.06305Z" fill="url(#paint4_linear_328_20451)"/>
<path d="M8.8407 14.5872C8.81423 14.7407 8.8407 15.0849 9.13187 15.2331C9.21658 15.2331 9.39128 15.143 9.38069 14.8359C9.16893 14.8096 8.84599 14.6031 8.8407 14.5872ZM8.68189 15.9636C8.3907 15.81 8.36424 15.4659 8.3907 15.3123C8.3907 15.3283 8.71895 15.54 8.9307 15.5666C8.94129 15.8736 8.77188 15.9583 8.68189 15.9636ZM8.51777 16.9272C8.25306 16.7259 8.29543 16.3819 8.34836 16.2389C8.34836 16.2547 8.62365 16.5142 8.83013 16.5777C8.78247 16.8847 8.60247 16.9377 8.51247 16.9272H8.51777Z" fill="#F9FFFF"/>
<path d="M18.1838 9.29941C17.8701 8.86669 17.5289 8.45466 17.162 8.06592L17.3209 8.95531L16.2939 8.70121L16.6538 9.19355L16.3785 9.29941C16.1139 9.38413 15.5845 9.69116 15.6215 10.2523C15.6533 10.8135 16.2038 11.2052 16.4791 11.3323C16.3414 11.2105 16.0662 10.8506 16.0662 10.3582C16.0662 9.74946 16.4632 9.29941 16.9556 9.29941C17.4532 9.29941 18.1838 9.72291 18.1838 10.5699C18.1838 11.2476 17.8291 11.5653 17.6491 11.6342C18.215 11.9031 18.7252 12.2769 19.1526 12.7352C19.142 11.5546 18.7237 10.3423 18.5173 9.88703C18.782 10.1889 18.9779 10.7342 19.0415 10.9723L19.2319 10.5699C18.9726 9.20944 18.2102 8.44179 17.8556 8.22473H17.4955C17.7602 8.50002 18.062 9.0559 18.1838 9.29941Z" fill="url(#paint5_linear_328_20451)"/>
<path d="M9.81937 10.9209L9.66064 9.99975L9.7665 9.69266C11.1376 9.69266 12.0588 10.7145 12.3447 11.2279C12.2527 10.8899 12.0607 10.5871 11.7941 10.3598C12.2494 10.4075 12.6358 10.7991 12.7735 10.995C12.7418 10.7832 12.5458 10.5715 12.4504 10.5026C12.6411 10.5186 13.1017 10.5398 13.4193 10.5026C13.737 10.4655 14.0811 10.1056 14.2135 9.9309C14.3034 9.97331 14.5205 10.0579 14.6899 10.0579C14.9017 10.0579 15.1028 9.9363 15.1028 9.68735C15.1028 9.4968 15.0341 9.37504 14.997 9.34328L15.6851 9.24798C16.0558 9.19505 16.3311 9.26917 16.4263 9.31151L16.4847 9.24798L16.2887 8.72388C16.5111 8.72388 16.6804 8.79269 16.7334 8.82446L17.0722 9.24798C16.4898 9.2268 16.2728 9.44915 16.0558 9.83021C15.8864 10.1321 15.987 10.6509 16.0558 10.8679C15.0764 10.8679 14.637 11.0162 14.1076 11.1856C13.5781 11.3496 13.6576 11.3392 13.0701 11.3973C12.4875 11.4662 12.3341 11.9055 12.1647 12.1278C11.9362 12.4395 11.6528 12.7068 11.3282 12.9167C10.9947 13.1285 10.5712 14.0073 10.3965 14.4149L10.2906 13.6102C10.8305 13.0967 10.6135 12.869 10.5765 12.8321C10.5447 12.8002 10.4018 12.8426 10.3382 12.869V12.7632C10.9206 12.4721 10.8994 12.075 10.8148 11.9055C10.6399 12.0273 10.2906 12.0273 10.1371 12.0115L10.1053 11.9055C10.6505 11.7098 10.7194 11.3392 10.6876 11.1803H10.0841L9.81937 10.9155V10.9209Z" fill="url(#paint6_linear_328_20451)"/>
<path d="M17.0571 7.30977C17.0571 7.00802 17.0042 6.33039 16.7925 6.0498C16.7925 6.12922 16.9672 6.92332 17.0571 7.30977Z" fill="#BCC8D4"/>
<path d="M17.2144 5.80151L16.9072 5.98681C17.0132 6.18797 17.2249 6.78089 17.1721 7.57501C17.2249 7.65442 17.4473 7.80794 17.8391 7.77088C17.8391 6.76502 17.4208 6.03974 17.2144 5.80151Z" fill="#C0C5CB"/>
<path d="M16.7972 5.91188L16.6489 5.21837L16.956 4.9166C16.9932 4.88484 17.0512 5.0066 17.0725 5.07542L17.1201 5.43541L17.2525 5.07542C18.2848 5.73717 18.3749 7.3042 18.2901 8.00301L17.9724 7.8389C18.025 7.04751 17.7667 6.26685 17.2525 5.66306L16.7972 5.91188ZM16.723 4.80014C16.6543 4.85837 16.6172 5.05425 16.6172 5.08071L16.8555 4.79484C16.8555 4.79484 16.7866 4.73131 16.723 4.79484V4.80014Z" fill="#D3D9F3"/>
<path d="M15.8913 15.8114L14.7583 15.7056C14.7583 15.9173 15.0336 16.415 15.5629 16.415C16.0923 16.415 16.1241 16.2933 16.14 16.1661C16.1559 16.0391 16.0606 16.0127 15.9706 15.9861C15.8964 15.9597 15.886 15.8644 15.8913 15.8221V15.8114Z" fill="#D9D8DD"/>
<path d="M12.2926 15.1977C12.1126 15.1817 12.1868 15.2718 12.1868 15.293C12.1868 15.3511 12.3772 15.5206 12.5573 15.5417C12.7319 15.563 12.8538 15.3353 12.7954 15.293C12.7426 15.2506 12.4779 15.2136 12.2926 15.1977Z" fill="#E2E3E5"/>
<path fill-rule="evenodd" clip-rule="evenodd" d="M11.7722 15.6158C12.6721 15.6158 13.4292 15.9865 13.6939 16.1718C13.609 16.0207 13.4916 15.8904 13.3498 15.7906L13.4345 15.7165V15.4148C13.5828 15.4412 13.7468 15.2665 13.7468 15.2135C13.7468 15.1608 13.7098 14.88 13.6939 14.7477C13.6939 15.0865 13.5564 15.2348 13.4928 15.2665L12.1429 14.8854L12.2116 14.3188C12.3916 14.2554 12.7568 14.1335 12.8045 14.1335C13.0322 13.2972 13.6198 13.1383 13.8845 13.1647C13.8896 13.2343 13.9141 13.3009 13.9554 13.357C13.9965 13.4133 14.0527 13.4567 14.1174 13.4824C13.9587 13.1436 14.1174 12.9583 14.2234 12.9106C14.3239 13.2124 15.1287 13.3235 15.5204 13.3448C15.5204 13.5195 15.3456 13.6731 15.261 13.7259C15.4198 13.8054 15.711 13.6413 15.838 13.5459L16.0921 13.6835C16.0867 13.8954 16.1875 14.0119 16.2403 14.0436C16.1875 13.6942 16.3198 13.5248 16.3992 13.4824C16.5685 13.9482 17.2887 13.9165 17.4051 13.9112H17.4156C17.5215 14.2289 17.2038 14.4035 17.0291 14.4512H17.3785C17.945 14.5042 18.1038 15.1394 18.1091 15.4572C18.049 15.457 17.9898 15.4715 17.9362 15.4992C17.8829 15.5266 17.8368 15.5668 17.8021 15.6158C17.749 16.0395 17.6328 16.9182 17.5851 17.0611C17.5321 17.2094 17.5533 17.3471 17.5638 17.4L17.7015 17.5165C16.8756 19.2475 14.8534 19.6765 13.9428 19.6765C10.9887 19.6765 10.5281 17.2941 10.5281 17.0294C10.5281 16.7647 10.6498 15.6158 11.7722 15.6158ZM14.2392 15.5735C13.9269 15.3194 14.4987 14.9754 14.6468 14.8854L14.6733 14.8694C14.5833 14.9701 14.3875 15.2029 14.3292 15.3247C14.2762 15.4465 14.4351 15.4677 14.5251 15.4623H16.7485C16.8015 15.4623 16.971 15.6954 17.0503 15.8065C16.7644 16.0605 16.0444 16.5741 15.4357 16.5741C14.8215 16.5741 14.5991 15.9547 14.5674 15.6477C14.4458 15.6477 14.3027 15.5948 14.2392 15.5735ZM11.5552 16.3994C11.6028 16.3095 11.7298 16.1242 11.8728 16.1242C12.0157 16.1242 12.1322 16.3677 12.1692 16.4895C12.1164 16.4258 11.9893 16.2988 11.8728 16.2988C11.7616 16.2988 11.6134 16.3677 11.5552 16.4047V16.3994ZM11.3222 17.5535C11.3857 17.4477 11.6081 17.2465 12.0104 17.2465C12.5081 17.2465 13.228 17.6965 13.5987 18.1411C13.1805 17.8923 12.2858 17.3894 12.0104 17.3894C11.7352 17.3894 11.4387 17.4954 11.3222 17.5535ZM13.4504 16.6324C13.3181 16.5847 13.1328 16.7223 13.0587 16.7964C13.1275 16.7806 13.2864 16.7594 13.3975 16.7964C13.5034 16.8283 13.5828 16.9923 13.6092 17.0665C13.6145 16.9395 13.5881 16.6748 13.4504 16.6324Z" fill="#CED8F1"/>
<path d="M13.6892 13.26C13.4511 13.4717 12.9534 13.9377 12.8846 14.1441C12.8211 14.3453 12.514 14.3718 12.3711 14.3612L12.2281 14.7953L13.4139 15.1023L13.6892 14.6893C13.4111 14.6379 13.1323 14.5903 12.8529 14.5464C12.6834 14.5253 12.6781 14.483 12.8529 14.4035C13.0276 14.3294 13.0699 14.2976 13.1281 14.1387C13.1811 13.9799 13.5357 13.4136 13.6892 13.26ZM17.0298 14.4512C17.0509 14.4512 17.0668 14.4406 17.088 14.4353C16.8552 14.4723 16.6539 14.52 16.5268 14.557H16.5163C16.4527 14.5729 16.3363 14.6259 16.1881 14.6946C15.8757 14.8429 15.4204 15.0546 14.9599 15.1287C14.4199 15.2187 14.4834 15.3935 14.5788 15.4676C15.3882 15.485 16.1907 15.6205 16.9611 15.8699H16.8234C16.728 16.0817 16.3468 16.521 15.6057 16.5582C14.8645 16.5953 14.6157 15.9759 14.5788 15.6635C14.4728 15.9069 14.6211 16.2299 14.7111 16.3569L14.1975 16.5899C14.0543 16.4643 13.8741 16.3886 13.6839 16.3743C13.4939 16.3599 13.3045 16.4076 13.144 16.5105C13.3293 16.4841 13.7263 16.5105 13.8428 16.8546C13.9698 17.1987 13.2499 17.331 12.874 17.3629C13.5992 17.7017 13.8005 18.284 13.6892 18.3581C13.6045 18.411 13.3717 18.1993 13.2711 18.0933C13.2499 18.5276 12.8211 18.3053 12.5458 18.1623L12.3976 18.0882C12.1858 18.0035 11.3388 17.7705 11.2858 18.284C11.2542 18.5433 11.6352 18.9193 12.0481 19.237C12.5245 19.5016 13.144 19.6764 13.9434 19.6764C14.854 19.6764 16.8762 19.2475 17.7022 17.5164L17.5645 17.3999C17.5407 17.2871 17.548 17.1699 17.5857 17.061C17.6385 16.9182 17.7498 16.0394 17.8027 15.621C17.8345 15.5683 17.935 15.4622 18.1098 15.4518C18.1045 15.1393 17.9509 14.4987 17.3791 14.4512H17.0298Z" fill="#96A4C1"/>
<path d="M18.8452 15.6318C18.9722 15.5895 19.2582 15.51 19.4011 15.51C19.5494 15.51 20.0364 15.7959 20.2588 15.939L20.1369 17.1459L19.8088 17.6859C19.6288 17.633 18.9881 17.4107 18.9722 17.2941C18.9564 17.1723 18.8769 16.1347 18.8452 15.6318ZM19.5917 17.2464C19.6764 17.2571 19.7717 17.093 19.8034 16.8812C19.8352 16.6695 19.7981 16.4841 19.7134 16.4683C19.6341 16.4577 19.5388 16.6218 19.5017 16.8387C19.4699 17.0507 19.5122 17.236 19.5917 17.2464Z" fill="#B6BFC6"/>
<path d="M19.333 16.0504L20.2012 16.0185L20.2542 15.9232H19.3383L18.8513 15.6057C18.629 15.9232 18.4807 17.1515 18.4277 17.7231C18.5336 17.7602 18.7613 17.8609 18.8513 17.9296C18.9412 17.9932 19.6189 17.9032 19.947 17.845L20.1536 17.1039C20.09 17.1779 19.9259 17.3685 19.7882 17.4743C19.6559 17.5908 19.3489 17.4319 19.2059 17.3367L19.333 16.0504Z" fill="#FFFFFD"/>
<path d="M19.597 12.8152C19.5864 12.8523 19.597 13.2386 19.597 13.4346C19.74 13.3869 20.0839 13.3181 20.2746 13.4135C20.174 13.2652 19.8935 12.9369 19.597 12.8152ZM20.5235 14.5992C20.47 14.4384 20.3746 14.2948 20.247 14.1831C20.1195 14.0714 19.9646 13.9958 19.7981 13.9639L19.6499 13.5246C19.7558 13.4715 19.9993 13.4715 20.1051 13.4769C20.5816 13.5722 20.5816 14.2658 20.5286 14.5992H20.5235ZM20.0681 15.4304C20.0523 15.0069 19.867 14.3716 19.777 14.1069C20.0417 14.1069 20.4387 14.4245 20.4387 14.7581C20.4387 15.0281 20.1951 15.3192 20.0681 15.4304Z" fill="#B5BEC5"/>
<path d="M7.81353 4.31836C4.42008 5.82184 3.77951 8.3259 3.88539 9.38999C3.92245 9.33706 5.31477 8.20944 6.11416 8.80237C6.36624 7.36445 6.99666 6.01958 7.9406 4.90598C7.86119 4.77364 7.93001 4.59362 7.97766 4.51951C7.93382 4.44427 7.87844 4.3764 7.81353 4.31836ZM7.96177 8.46355C7.42178 8.30473 6.85004 8.64883 6.63827 8.84472C6.73885 7.30946 7.56473 5.92243 7.96177 5.4195L8.18412 6.49948C8.02 6.88065 7.96707 7.97121 7.96177 8.46355Z" fill="#FBFFFF"/>
<path d="M9.27889 4.11276C9.12007 4.19747 8.80244 3.83217 8.66479 3.6363C9.68652 3.1069 9.94588 3.41396 9.77657 3.50924C9.61772 3.60454 9.47476 4.00158 9.27889 4.10746V4.11276Z" fill="#F7F3F2"/>
<path d="M9.16778 10.8191L8.19897 4.91624C8.19897 4.8633 8.22545 4.74683 8.33132 4.74683C8.43721 4.74683 8.49014 4.81037 8.50603 4.84211L9.53835 10.8561L9.16778 10.8191Z" fill="url(#paint7_linear_328_20451)"/>
<path d="M9.75058 14.5049L9.67114 14.0285L10.0259 13.949L10.1053 14.5472L9.75058 14.5049ZM10.4071 18.719L10.2483 18.0254L10.3435 17.999L10.6666 18.6236C10.5924 18.7295 10.46 18.7295 10.4071 18.719Z" fill="#BDCBD8"/>
<path d="M9.56605 9.40615C9.77791 8.06676 9.42846 7.36266 9.22729 7.17738C9.9155 6.75384 11.7367 6.90209 12.5624 7.01855L12.1284 4.84801C12.7213 4.84801 14.3572 3.7998 15.056 3.7998C15.6171 3.7998 16.0141 3.99038 16.1467 4.08568L16.9671 8.55911C16.9406 8.52735 16.6494 8.4744 15.6436 8.4744C14.2619 8.4744 13.6213 9.40085 12.5624 9.40085C11.5037 9.40085 11.2655 9.32674 10.5825 9.06205C10.4011 8.98386 10.1972 8.97521 10.0098 9.03768C9.82224 9.10016 9.66439 9.22944 9.56605 9.40085V9.40615Z" fill="#FFFFFD"/>
<path d="M12.8678 4.90624L13.0585 4.80037C13.6831 4.46154 14.3184 4.12274 15.0965 4.12274C15.6261 4.12274 16.0071 4.28685 16.2031 4.41391L16.1449 4.08568C16.0124 3.99038 15.6154 3.7998 15.0542 3.7998C14.6942 3.7998 14.0749 4.08568 13.4819 4.35568C12.9312 4.60449 12.4073 4.84271 12.1266 4.84271L12.1954 5.19741L12.259 5.17623C12.469 5.10086 12.6725 5.00881 12.8678 4.90097V4.90624ZM12.3332 5.86976L12.2485 5.46741H12.2696C12.439 5.46741 12.6667 5.43564 12.8942 5.30858C13.0002 5.25566 13.1008 5.20271 13.2066 5.13918C13.7889 4.81624 14.4826 4.42449 15.3189 4.42449C15.6631 4.42449 15.97 4.45097 16.2189 4.48802L16.2985 4.91683C15.9754 4.85727 15.6473 4.82892 15.3189 4.83213C14.6042 4.83213 14.0165 5.15507 13.4342 5.478L13.0955 5.66858C12.815 5.81153 12.5449 5.86446 12.3332 5.86976ZM12.4602 6.51033L12.3808 6.11328C12.5342 6.10269 12.7142 6.06035 12.8942 5.95976C13.0002 5.90681 13.1008 5.85387 13.2066 5.79035C13.7889 5.46741 14.4826 5.08095 15.3189 5.08095C15.6614 5.07755 16.0034 5.10592 16.3407 5.16566L16.4201 5.59977C16.0567 5.5209 15.6856 5.48184 15.3136 5.48329C14.6042 5.48329 14.0165 5.80623 13.4342 6.13446L13.0955 6.31975C12.8678 6.43621 12.6508 6.48915 12.4602 6.51033ZM12.5555 6.99738L12.4762 6.58445C12.7166 6.61388 12.9604 6.57537 13.1802 6.47327L13.4661 6.33035C14.0674 5.98047 14.7455 5.7841 15.4408 5.75858C15.7875 5.76329 16.1331 5.8005 16.4731 5.86976L16.5525 6.32504C16.1854 6.23085 15.809 6.17758 15.4301 6.16622C14.7738 6.15033 14.2231 6.41504 13.6725 6.68504L13.3549 6.83856C13.1062 6.95277 12.8343 7.00717 12.5608 6.99738H12.5555ZM9.57496 7.96089C9.54322 7.80207 9.50084 7.66443 9.4585 7.55325C9.75491 7.37325 10.2103 7.18267 10.6919 7.18267C11.089 7.18267 11.4119 7.26738 11.6979 7.35207H11.7138C12.0102 7.44207 12.2802 7.51619 12.6243 7.51619C12.7673 7.51619 12.9789 7.46325 13.2385 7.37325C13.4872 7.27796 13.7572 7.1615 14.0431 7.03444L14.0696 7.02385C14.3608 6.89679 14.6572 6.75915 14.9377 6.66386C15.1878 6.56342 15.4524 6.50441 15.7212 6.48915C16.0231 6.48915 16.3354 6.5421 16.6107 6.61622L16.6901 7.05561C16.4042 6.97091 16.0548 6.89679 15.7212 6.89679C15.5624 6.89679 15.3454 6.94974 15.0807 7.04502C14.8161 7.14031 14.5301 7.26207 14.2389 7.39444L14.2072 7.40502C13.9266 7.52678 13.6461 7.65384 13.3813 7.74913C13.1165 7.84973 12.8519 7.92384 12.6243 7.92384C12.2166 7.92384 11.8936 7.82853 11.6025 7.74383H11.5972C11.3049 7.64654 10.9999 7.59303 10.6919 7.58501C10.2473 7.58501 9.8133 7.79677 9.57496 7.95559V7.96089ZM9.62795 8.60146C9.62795 8.44265 9.62265 8.28911 9.6067 8.15676C9.84502 8.0403 10.1519 7.945 10.4855 7.945C10.8508 7.945 11.2266 8.06148 11.5762 8.16207L11.6185 8.17794C11.9943 8.28911 12.3489 8.3897 12.6985 8.3897C12.8466 8.3897 13.0373 8.33676 13.2808 8.23088C13.4713 8.15146 13.6725 8.05088 13.8948 7.945L14.0696 7.855C14.6308 7.57973 15.2872 7.27266 15.9225 7.27266C16.2295 7.27266 16.5048 7.30443 16.7431 7.35738L16.8277 7.79677C16.5346 7.71599 16.2319 7.67502 15.9278 7.67501C15.3984 7.67501 14.8265 7.93442 14.2549 8.21499L14.0908 8.2997C13.8684 8.40559 13.6461 8.52205 13.4449 8.60676C13.1908 8.71265 12.9312 8.79734 12.6985 8.79734C12.2749 8.79734 11.8673 8.67558 11.4966 8.5644H11.4861C11.1103 8.44793 10.7873 8.35265 10.4803 8.35265C10.1467 8.35265 9.83434 8.4797 9.63314 8.60146H9.62795ZM16.8965 8.19383C16.6107 8.14088 16.2295 8.10383 15.7319 8.10383C14.9536 8.10383 14.3872 8.3897 13.8948 8.65442L13.8261 8.69146C13.3549 8.94557 12.9684 9.15204 12.4815 9.15204C12.0912 9.16494 11.7033 9.08701 11.3485 8.9244C11.105 8.82381 10.8455 8.71792 10.4219 8.71792C10.0885 8.71792 9.82376 8.81322 9.61734 8.94027C9.6067 9.08322 9.5909 9.23674 9.56434 9.40085C9.67551 9.19969 10.0408 8.85029 10.5808 9.06205C11.2029 9.33624 11.883 9.45261 12.5608 9.40085C13.0585 9.40085 13.4608 9.19968 13.8842 8.98263C14.4163 8.66858 15.019 8.49379 15.6365 8.4744C16.6531 8.4744 16.9388 8.52735 16.9654 8.55911L16.8965 8.18853V8.19383Z" fill="#96352F"/>
<path d="M10.0151 4.78418L10.0892 4.88477L10.2163 4.91652L10.1315 5.00652L10.1369 5.123L10.0151 5.08593L9.89323 5.123V5.00652L9.81403 4.91652L9.94093 4.88477L10.0151 4.78418ZM9.45923 4.83711L9.52805 4.943L9.65511 4.96947L9.57569 5.06475V5.18123L9.45923 5.13887L9.33217 5.18123L9.33747 5.06475L9.25806 4.96947L9.38511 4.93769L9.45923 4.84241V4.83711ZM9.85622 5.25004L9.78208 5.15475L9.7133 5.25004L9.58631 5.28181L9.66573 5.3718V5.49357L9.78208 5.45123L9.90921 5.49357L9.90392 5.3718L9.98334 5.28181L9.85622 5.25004ZM9.58631 5.57828L9.65511 5.67886L9.78208 5.70533L9.7028 5.80063L9.70799 5.91709L9.58631 5.87474L9.45923 5.91709L9.46981 5.80063L9.38511 5.70533L9.51216 5.67886L9.58631 5.57828ZM10.0363 6.01767L9.96219 5.91709L9.88806 6.01767L9.76633 6.04943L9.84576 6.13943L9.84036 6.25592L9.96219 6.21885L10.0839 6.25592V6.13943L10.1633 6.04943L10.0363 6.01767ZM10.5075 6.01767L10.5815 6.11296L10.7085 6.14473L10.6239 6.24003L10.6292 6.35649L10.5075 6.31415L10.3856 6.35649V6.24003L10.3062 6.14473L10.4333 6.11296L10.5075 6.01767ZM11.1427 6.11296L11.0739 6.01767L10.9998 6.11296L10.8727 6.14473L10.9522 6.24003V6.35649L11.0739 6.31415L11.1956 6.35649L11.1904 6.24003L11.2697 6.14473L11.1427 6.11296ZM11.5768 6.00709L11.6509 6.10238L11.7781 6.13415L11.6933 6.22415L11.7039 6.3459L11.5768 6.30356L11.455 6.3459L11.4604 6.22415L11.3809 6.13415L11.5081 6.10238L11.5768 6.00179V6.00709ZM11.9368 6.48355L11.8627 6.38826L11.7885 6.48355L11.6615 6.51532L11.7461 6.61061L11.741 6.72708L11.8627 6.68472L11.9845 6.72708V6.61061L12.0638 6.51532L11.9368 6.48355ZM10.1262 5.49357L10.2004 5.58887L10.3275 5.62062L10.2427 5.71592L10.2481 5.83239L10.1262 5.79004L10.0045 5.83239V5.71592L9.92518 5.62062L10.0521 5.58887L10.1262 5.49357ZM10.7456 5.68946L10.6715 5.58887L10.5974 5.68946L10.4704 5.72121L10.5551 5.81121L10.5498 5.92767L10.6715 5.89062L10.7933 5.92767V5.81121L10.8727 5.72121L10.7456 5.68946ZM11.2327 5.58887L11.3068 5.68946L11.4338 5.72121L11.3545 5.81121V5.92767L11.2327 5.89062L11.111 5.92767L11.1161 5.81121L11.0369 5.72121L11.1638 5.68946L11.2327 5.58887ZM11.8151 5.67886L11.741 5.57828L11.6669 5.67886L11.5398 5.70533L11.6245 5.80063L11.6192 5.91709L11.741 5.87474L11.8627 5.91709V5.80063L11.9421 5.70533L11.8151 5.67886ZM10.2798 5.14946L10.3539 5.25534L10.481 5.28181L10.4015 5.3718V5.49357L10.2851 5.45123L10.1579 5.49357L10.1633 5.3718L10.0839 5.28181L10.211 5.25004L10.2851 5.15475L10.2798 5.14946ZM10.8992 5.35063L10.825 5.25004L10.7562 5.35063L10.6292 5.38239L10.7085 5.47239V5.58887L10.825 5.5465L10.9522 5.58887L10.9469 5.47239L11.0262 5.38239L10.8992 5.35063ZM11.3915 5.25004L11.4656 5.35063L11.5928 5.38239L11.5081 5.47239L11.5133 5.58887L11.3915 5.5465L11.2697 5.58887V5.47239L11.1904 5.38239L11.3174 5.35063L11.3915 5.25004ZM10.5974 4.93769L10.5232 4.84241L10.4545 4.93769L10.3275 4.96947L10.4069 5.06475V5.18123L10.5232 5.13887L10.6504 5.18123L10.6451 5.06475L10.7245 4.96947L10.5974 4.93769ZM11.0739 4.93769L11.1427 5.03828L11.2697 5.07005L11.1851 5.16004L11.1904 5.27651L11.0686 5.23946L10.9469 5.27651L10.9522 5.16004L10.8727 5.07005L10.9945 5.03828L11.0686 4.93769H11.0739ZM11.7091 5.03828L11.635 4.93769L11.5608 5.03828L11.4338 5.07005L11.5186 5.16004L11.5133 5.27651L11.635 5.23946L11.7568 5.27651L11.7515 5.16004L11.8309 5.07005L11.7091 5.03828ZM9.65511 6.36179L9.72923 6.46767L9.85622 6.49415L9.77162 6.58943L9.78208 6.70589L9.65511 6.66355L9.53332 6.70589L9.53863 6.58943L9.45923 6.49415L9.58631 6.46238L9.65511 6.36709V6.36179ZM10.2745 6.56296L10.2004 6.46238L10.1262 6.56296L9.99921 6.59472L10.0839 6.68472L10.0785 6.80119L10.2004 6.76413L10.3222 6.80119V6.68472L10.4015 6.59472L10.2745 6.56296ZM10.7669 6.46238L10.8356 6.56296L10.9628 6.59472L10.8833 6.68472L10.8886 6.80119L10.7669 6.76413L10.6398 6.80119L10.6504 6.68472L10.5656 6.59472L10.6927 6.56296L10.7669 6.46238ZM11.3492 6.55238L11.2697 6.45179L11.2009 6.55238L11.0739 6.57885L11.1532 6.67413L11.1481 6.79059L11.2697 6.74825L11.3969 6.79059L11.3915 6.67413L11.4709 6.57885L11.3438 6.55238H11.3492Z" fill="#FFFFFD"/>
</g>
<defs>
<linearGradient id="paint0_linear_328_20451" x1="8.66843" y1="4.57593" x2="13.4293" y2="21.3458" gradientUnits="userSpaceOnUse">
<stop stop-color="#D5E1F9"/>
<stop offset="1" stop-color="#8493B4"/>
</linearGradient>
<linearGradient id="paint1_linear_328_20451" x1="12.0009" y1="3.00108" x2="12.0009" y2="20.9918" gradientUnits="userSpaceOnUse">
<stop stop-color="#CFD7EC"/>
<stop offset="1" stop-color="#CCD6EF"/>
</linearGradient>
<linearGradient id="paint2_linear_328_20451" x1="12.3323" y1="6.25497" x2="23.3033" y2="13.4577" gradientUnits="userSpaceOnUse">
<stop offset="0.25" stop-color="#FFFCFF"/>
<stop offset="0.66" stop-color="#BFC2C7"/>
</linearGradient>
<linearGradient id="paint3_linear_328_20451" x1="18.7444" y1="6.03191" x2="8.01879" y2="7.25011" gradientUnits="userSpaceOnUse">
<stop stop-color="#B8C5CB"/>
<stop offset="1" stop-color="#FAFEFF"/>
</linearGradient>
<linearGradient id="paint4_linear_328_20451" x1="12.0013" y1="3.00572" x2="8.85403" y2="19.6553" gradientUnits="userSpaceOnUse">
<stop stop-color="#C9D5ED"/>
<stop offset="0.24" stop-color="#A2AFCF"/>
<stop offset="0.4" stop-color="#CFDBF3"/>
<stop offset="0.53" stop-color="#A1AECE"/>
<stop offset="0.63" stop-color="#9FACCC"/>
<stop offset="0.71" stop-color="#CEDAF0"/>
<stop offset="0.78" stop-color="#D0DEF8"/>
<stop offset="0.86" stop-color="#A9B7D4"/>
<stop offset="1" stop-color="#B8BFDC"/>
</linearGradient>
<linearGradient id="paint5_linear_328_20451" x1="12.005" y1="2.99918" x2="15.0611" y2="18.8209" gradientUnits="userSpaceOnUse">
<stop stop-color="#D1D9EE"/>
<stop offset="1" stop-color="#8893B3"/>
</linearGradient>
<linearGradient id="paint6_linear_328_20451" x1="18.0948" y1="5.89742" x2="7.07029" y2="12.082" gradientUnits="userSpaceOnUse">
<stop stop-color="#929FC1"/>
<stop offset="0.6" stop-color="#94A1C4"/>
<stop offset="0.91" stop-color="#D0DCF2"/>
<stop offset="1" stop-color="#98A5C7"/>
</linearGradient>
<linearGradient id="paint7_linear_328_20451" x1="12.0357" y1="2.99943" x2="12.4504" y2="20.9069" gradientUnits="userSpaceOnUse">
<stop stop-color="#AEC0CC"/>
<stop offset="0.76" stop-color="#FAF8F9"/>
<stop offset="1" stop-color="#BBC5CE"/>
</linearGradient>
<clipPath id="clip0_328_20451">
<rect width="24" height="24" fill="white"/>
</clipPath>
</defs>
</svg>
