<svg width="24" height="24" viewBox="0 0 24 24" fill="none" xmlns="http://www.w3.org/2000/svg">
<g clip-path="url(#clip0_328_28254)">
<path d="M24 0H0V24H24V0Z" fill="black"/>
<path d="M9.71436 4H12.4571V6.74282H9.71436V4Z" fill="white"/>
<path d="M7.42822 4.91406H11.0853V7.65691H7.42822V4.91406Z" fill="white"/>
<path d="M6.51416 6.28589H10.1713V8.57158H6.51416V6.28589Z" fill="white"/>
<path d="M5.14307 8.11401H8.80018V10.8569H5.14307V8.11401Z" fill="white"/>
<path d="M8.34326 9.48584H12.4575V10.8572H8.34326V9.48584Z" fill="white"/>
<path d="M8.34272 10.3999H11.0855V11.7714H8.34272V10.3999ZM6.51416 10.3999H7.88558V14.057H6.51416V10.3999Z" fill="white"/>
<path d="M5.14307 11.772H6.97162V13.1433H5.14307V11.772ZM7.42877 12.6861H8.80018V17.2575H7.42877V12.6861Z" fill="white"/>
<path d="M8.34326 14.9715H9.71467V18.6286H8.34326V14.9715ZM9.71467 13.6001H11.0861V20.0001H9.71467V13.6001Z" fill="white"/>
<path d="M10.6284 12.6856H13.3713V14.057H10.6284V12.6856ZM10.6284 14.9713H12.457V16.3427H10.6284V14.9713ZM10.6284 16.7999H13.3713V19.9999H10.6284V16.7999ZM14.2856 4H11.5428V6.74282H14.2856V4Z" fill="white"/>
<path d="M16.5711 4.91406H12.9141V7.65691H16.5711V4.91406Z" fill="white"/>
<path d="M17.4853 6.28589H13.8281V8.57158H17.4853V6.28589Z" fill="white"/>
<path d="M18.8572 8.11401H15.2002V10.8569H18.8572V8.11401Z" fill="white"/>
<path d="M15.6571 9.48584H11.543V10.8572H15.6571V9.48584Z" fill="white"/>
<path d="M15.6568 10.3999H12.9141V11.7714H15.6568V10.3999ZM17.4853 10.3999H16.114V14.057H17.4853V10.3999Z" fill="white"/>
<path d="M18.8572 11.772H17.0286V13.1433H18.8572V11.772ZM16.5716 12.6861H15.2002V17.2575H16.5716V12.6861Z" fill="white"/>
<path d="M15.6568 14.9715H14.2854V18.6286H15.6568V14.9715ZM14.2854 13.6001H12.9141V20.0001H14.2854V13.6001Z" fill="white"/>
<path d="M13.3715 14.9717H11.543V16.3431H13.3715V14.9717Z" fill="white"/>
</g>
<defs>
<clipPath id="clip0_328_28254">
<rect width="24" height="24" fill="white"/>
</clipPath>
</defs>
</svg>
