<svg width="24" height="24" viewBox="0 0 24 24" fill="none" xmlns="http://www.w3.org/2000/svg">
<g clip-path="url(#clip0_328_23823)">
<path d="M24 0H0V24H24V0Z" fill="black"/>
<path d="M6.37866 17.68C6.64325 17.9345 6.92781 18.1743 7.22735 18.3938C8.23836 17.6635 9.06215 16.7042 9.63135 15.5944C10.2006 14.4846 10.499 13.256 10.5023 12.0087C10.5023 9.39772 9.21428 7.08129 7.22235 5.62354C6.92282 5.84321 6.64325 6.08284 6.37866 6.33744C7.33224 6.94604 8.11795 7.78407 8.66392 8.77484C9.20989 9.76563 9.49867 10.8775 9.50384 12.0087C9.50384 14.375 8.26575 16.4569 6.37866 17.68Z" fill="white"/>
<path d="M18.2254 7C17.6834 8.19641 16.8079 9.21103 15.7037 9.92205C14.5994 10.6332 13.3134 11.0105 11.9999 11.0088C9.22927 11.0088 6.84295 9.36136 5.77461 7C5.515 7.31951 5.28036 7.66398 5.07568 8.02342C5.77859 9.23685 6.78855 10.2438 8.00404 10.9432C9.21952 11.6425 10.5977 12.0095 11.9999 12.0073C13.4023 12.0095 14.7805 11.6425 15.9959 10.9432C17.2114 10.2438 18.2214 9.23685 18.9243 8.02342C18.7196 7.66398 18.485 7.3245 18.2254 7ZM10.5023 19.8302C10.6021 15.4919 14.0967 12.0073 18.3902 12.0073C18.9393 12.0073 19.4685 12.0621 19.9877 12.172C19.9777 12.5215 19.9478 12.8709 19.8929 13.2154C19.353 13.0765 18.7978 13.006 18.2404 13.0057C17.3381 13.0121 16.4462 13.1983 15.6165 13.5532C14.787 13.9082 14.0366 14.4251 13.4091 15.0735C12.7816 15.722 12.2897 16.4889 11.962 17.3297C11.6343 18.1704 11.4775 19.068 11.5008 19.97C11.1612 19.9451 10.8268 19.9001 10.5023 19.8302Z" fill="white"/>
<path d="M18.9742 12.447C18.7396 16.0216 15.6193 18.997 11.9999 18.997C11.7303 18.997 11.4608 18.982 11.1961 18.947L11.0713 19.9456C12.1225 20.0689 13.1878 19.9821 14.2051 19.6901C15.2225 19.3982 16.1716 18.9071 16.9975 18.2452C17.8234 17.5832 18.5095 16.7638 19.016 15.8344C19.5224 14.905 19.8391 13.8843 19.9476 12.8315L18.9891 12.5021L18.9742 12.4421V12.447ZM18.7595 7.74436C17.8384 6.27433 16.4636 5.14433 14.8431 4.52538C13.2225 3.90646 11.4444 3.83225 9.77789 4.31404C8.11139 4.79581 6.6472 5.80736 5.60688 7.19556C4.56658 8.58375 4.0068 10.2731 4.01225 12.0078C4.01225 14.484 5.1405 16.7006 6.90778 18.1633L7.72651 17.4793C6.8919 16.8299 6.21434 16.0007 5.74417 15.0534C5.274 14.1063 5.02331 13.0653 5.0107 12.0078C5.0107 8.24359 8.23573 5.01857 11.9999 5.01857C13.2149 5.0364 14.405 5.36625 15.4558 5.97647C16.5066 6.58668 17.383 7.45676 18.0007 8.50319L18.7595 7.74436Z" fill="white"/>
</g>
<defs>
<clipPath id="clip0_328_23823">
<rect width="24" height="24" fill="white"/>
</clipPath>
</defs>
</svg>
