<svg width="24" height="24" viewBox="0 0 24 24" fill="none" xmlns="http://www.w3.org/2000/svg">
<g clip-path="url(#clip0_328_22300)">
<path d="M24 0H0V24H24V0Z" fill="#008255"/>
<path fill-rule="evenodd" clip-rule="evenodd" d="M11.9999 20.4374C16.6597 20.4374 20.4375 16.6598 20.4375 12C20.4375 7.34024 16.6597 3.5625 11.9999 3.5625C7.34023 3.5625 3.5625 7.34024 3.5625 12C3.5625 16.6598 7.34023 20.4374 11.9999 20.4374ZM11.9999 20.9999C16.9708 20.9999 21 16.9707 21 12C21 7.02918 16.9708 3 11.9999 3C7.02917 3 3 7.02918 3 12C3 16.9707 7.02917 20.9999 11.9999 20.9999ZM5.3563 9.71235C5.90892 8.11842 7.01987 6.77849 8.48379 5.94018C9.948 5.10206 11.4932 4.81519 13.1475 5.14536C13.1549 5.01797 13.1914 4.89399 13.2544 4.78293C13.3174 4.6719 13.4048 4.57677 13.5102 4.50488C13.6157 4.43298 13.7363 4.38624 13.8627 4.36824C13.9889 4.35025 14.1177 4.36146 14.2391 4.40106C14.3604 4.44066 14.471 4.50757 14.5623 4.59663C14.6539 4.68569 14.7235 4.79454 14.7664 4.91478C14.809 5.03503 14.8235 5.1635 14.8088 5.29026C14.7942 5.41703 14.7506 5.53872 14.6813 5.64599C15.4836 5.83556 16.5433 6.55161 17.1816 7.25925C17.446 7.25925 17.7386 7.30931 17.9573 7.53711C18.1768 7.76493 18.2352 8.06474 18.1874 8.32405V8.78868C18.2431 8.61205 18.3595 8.47254 18.5029 8.36735C18.6801 8.23828 18.901 8.18376 19.1179 8.21549C18.3585 6.83849 17.1131 5.61393 15.7231 4.87988C14.6837 4.33059 13.537 4.01505 12.3629 3.95533C11.1888 3.89558 10.0158 4.09309 8.92603 4.53404C7.83626 4.97499 6.856 5.64871 6.05382 6.50808C5.25163 7.36746 4.64691 8.39172 4.28193 9.5093C4.45546 9.4081 4.65966 9.37289 4.85703 9.4102C5.0544 9.44748 5.23167 9.55471 5.3563 9.71235ZM14.8125 13.5693V13.1452C14.9726 13.0813 15.1057 12.9636 15.1888 12.8126C15.2721 12.6614 15.3 12.486 15.2681 12.3166C15.2362 12.1471 15.1465 11.9939 15.0141 11.8832C14.8818 11.7723 14.7151 11.7113 14.5427 11.7098C14.3701 11.7084 14.2025 11.7671 14.0684 11.8756C13.9344 11.9842 13.8422 12.1359 13.8077 12.3049C13.773 12.4739 13.7984 12.6495 13.879 12.8021C13.9596 12.9546 14.0908 13.0743 14.25 13.1408V13.2758L14.1729 13.3826L12.2812 15.0454V14.1015L13.125 13.2522V11.5089L14.25 10.2185V5.86649C14.4107 5.80402 14.5445 5.6877 14.6289 5.5374C14.7133 5.38711 14.7429 5.21219 14.7124 5.04254C14.682 4.87289 14.5937 4.71903 14.4626 4.6073C14.3313 4.49555 14.1653 4.43286 13.9932 4.42993C13.8208 4.42699 13.6527 4.48401 13.5179 4.59122C13.383 4.69845 13.2894 4.84921 13.2533 5.01773C13.2171 5.18626 13.2409 5.36208 13.32 5.51515C13.3993 5.66823 13.529 5.78903 13.6874 5.85694V10.0077L13.125 10.6527V9.20605C13.2839 9.14008 13.415 9.02099 13.4958 8.8691C13.5766 8.71722 13.6021 8.54197 13.5681 8.37334C13.5339 8.20469 13.4425 8.0531 13.309 7.94448C13.1756 7.83586 13.0087 7.77695 12.8365 7.77781C12.6644 7.77867 12.498 7.83924 12.3657 7.9492C12.2334 8.05915 12.1433 8.21163 12.1109 8.38062C12.0786 8.54959 12.106 8.72456 12.1883 8.87563C12.2707 9.0267 12.403 9.14449 12.5625 9.20886V13.0203L12.2812 13.3032V11.1968L11.4374 10.2282V6.96111C11.5975 6.89736 11.7307 6.77998 11.8137 6.62901C11.897 6.47805 11.9251 6.30289 11.8934 6.1335C11.8616 5.96408 11.7721 5.81094 11.6401 5.70025C11.5079 5.58955 11.3414 5.5282 11.1691 5.52664C10.9967 5.52509 10.8292 5.58345 10.6952 5.69175C10.5611 5.80004 10.4689 5.95154 10.434 6.12036C10.3993 6.28917 10.4243 6.4648 10.5048 6.61724C10.5851 6.76967 10.716 6.88944 10.875 6.95606V10.439L11.7186 11.4072V13.3021L10.3125 11.8819V9.77974C10.4712 9.71235 10.6016 9.59186 10.6814 9.43895C10.7613 9.28598 10.7853 9.11008 10.7498 8.94129C10.7141 8.7725 10.621 8.62131 10.4864 8.5136C10.3515 8.40587 10.1836 8.34828 10.0111 8.35071C9.83865 8.35312 9.67238 8.41538 9.54073 8.52683C9.40909 8.63829 9.32023 8.79203 9.28939 8.96174C9.25854 9.13146 9.2876 9.3066 9.37162 9.45732C9.45568 9.60787 9.58942 9.72468 9.74994 9.78762V12.1136L11.7186 14.1004V19.3125H12.2812V15.794L14.8125 13.5693ZM13.6172 4.92375C13.5842 4.97237 13.5608 5.02707 13.5491 5.08468C13.5373 5.1423 13.537 5.20167 13.5482 5.25939C13.5595 5.31712 13.582 5.37205 13.6146 5.42102C13.6472 5.46999 13.6891 5.51201 13.7381 5.54468C13.787 5.57736 13.8417 5.60003 13.8996 5.61137C13.9573 5.62273 14.0167 5.62254 14.0743 5.61084C14.1319 5.59914 14.1866 5.57614 14.2353 5.54318C14.284 5.5102 14.3257 5.46791 14.358 5.41875C14.4225 5.3205 14.4455 5.20075 14.4221 5.08558C14.3987 4.97041 14.3308 4.86914 14.233 4.80386C14.1354 4.73856 14.0158 4.71453 13.9005 4.73699C13.785 4.75944 13.6832 4.82656 13.6172 4.92375ZM12.4759 8.27285C12.4417 8.32131 12.4176 8.37611 12.4048 8.43402C12.3922 8.49195 12.3913 8.55181 12.4021 8.61009C12.4129 8.66839 12.4354 8.72393 12.4678 8.77344C12.5006 8.82296 12.5427 8.86543 12.592 8.89839C12.6413 8.93134 12.6966 8.95412 12.7548 8.96533C12.813 8.97656 12.8729 8.97602 12.9308 8.96375C12.9889 8.95149 13.0439 8.92774 13.0926 8.8939C13.1413 8.86006 13.1826 8.81682 13.2143 8.76674C13.2764 8.66878 13.2977 8.55046 13.2737 8.43705C13.2498 8.32361 13.1824 8.22405 13.0861 8.1596C12.9895 8.09516 12.8719 8.07091 12.7579 8.09209C12.6438 8.11325 12.5427 8.17813 12.4759 8.27285ZM10.7884 6.02343C10.7559 6.07205 10.7333 6.12657 10.7218 6.18391C10.7104 6.24126 10.7103 6.30029 10.7218 6.35764C10.7331 6.41499 10.7558 6.46954 10.7882 6.51818C10.8207 6.5668 10.8624 6.60855 10.911 6.64106C10.9595 6.67356 11.0142 6.69618 11.0714 6.70759C11.1289 6.71902 11.1878 6.71905 11.2451 6.70766C11.3025 6.69627 11.3572 6.6737 11.4057 6.64123C11.4544 6.60876 11.4961 6.56704 11.5286 6.51844C11.5943 6.42027 11.6182 6.30005 11.5952 6.18422C11.5723 6.06839 11.5041 5.96646 11.4059 5.9008C11.3077 5.83517 11.1876 5.81121 11.0718 5.8342C10.956 5.8572 10.8541 5.92526 10.7884 6.02343ZM9.64704 8.84943C9.61396 8.89805 9.59087 8.95275 9.57906 9.01036C9.56724 9.06797 9.56685 9.12735 9.57813 9.18507C9.58942 9.24279 9.61187 9.29773 9.64454 9.3467C9.6771 9.39564 9.71897 9.43764 9.76789 9.47031C9.81671 9.50299 9.87172 9.5257 9.92932 9.53713C9.98715 9.54841 10.0464 9.54828 10.104 9.53646C10.1618 9.52479 10.2165 9.50181 10.2653 9.46886C10.314 9.43592 10.3555 9.39354 10.3879 9.34443C10.4523 9.24617 10.4754 9.12642 10.452 9.01126C10.4286 8.89609 10.3607 8.79482 10.2629 8.72952C10.1652 8.66423 10.0457 8.6402 9.93023 8.66265C9.81491 8.68511 9.71307 8.75224 9.64704 8.84943ZM14.1661 12.2104C14.1005 12.3084 14.0765 12.4287 14.0995 12.5445C14.1225 12.6603 14.1906 12.7623 14.2888 12.8279C14.387 12.8936 14.5072 12.9176 14.6229 12.8946C14.7389 12.8716 14.8407 12.8035 14.9063 12.7053C14.9388 12.6568 14.9615 12.6021 14.9729 12.5449C14.9843 12.4874 14.9844 12.4286 14.973 12.3712C14.9617 12.3138 14.9391 12.2592 14.9067 12.2106C14.874 12.162 14.8323 12.1202 14.7838 12.0877C14.7352 12.0553 14.6805 12.0326 14.6233 12.0212C14.5659 12.0097 14.5069 12.0097 14.4496 12.0212C14.3922 12.0326 14.3376 12.0552 14.289 12.0876C14.2403 12.12 14.1986 12.1617 14.1661 12.2104ZM11.5084 6.27374C11.5081 6.20517 11.4881 6.13813 11.4503 6.08081C11.4222 6.02849 11.3795 5.98555 11.327 5.95726C11.2748 5.92898 11.2154 5.91659 11.1562 5.92161C11.0866 5.92161 11.0184 5.94227 10.9606 5.98097C10.9027 6.01967 10.8576 6.07466 10.8309 6.139C10.8042 6.20334 10.7974 6.27414 10.8109 6.34244C10.8245 6.41074 10.858 6.47348 10.9072 6.52272C10.9566 6.57199 11.0192 6.60552 11.0875 6.6191C11.1559 6.63269 11.2267 6.62572 11.291 6.59907C11.3553 6.57242 11.4103 6.52728 11.449 6.46938C11.4877 6.41147 11.5084 6.34339 11.5084 6.27374ZM4.70268 9.92599C4.6615 9.92431 4.62039 9.93083 4.58183 9.94546C4.54325 9.95986 4.50804 9.98224 4.47827 10.0107C4.44853 10.0392 4.42484 10.0734 4.40866 10.1114C4.39248 10.1492 4.38413 10.1899 4.38413 10.2311C4.38413 10.2724 4.39248 10.3132 4.40866 10.3511C4.42484 10.389 4.44853 10.4232 4.47827 10.4518C4.50804 10.4803 4.54325 10.5024 4.58183 10.5171C4.62039 10.5316 4.6615 10.5381 4.70268 10.5363C4.78135 10.5329 4.85565 10.4993 4.91013 10.4425C4.96459 10.3857 4.99501 10.3098 4.99501 10.2311C4.99501 10.1525 4.96459 10.0769 4.91013 10.0198C4.85565 9.96301 4.78135 9.92937 4.70268 9.92599ZM4.53225 12.5641C4.56568 12.54 4.60368 12.5228 4.64392 12.5136C4.68417 12.5045 4.72584 12.5035 4.76645 12.5108C4.80708 12.5182 4.84579 12.5337 4.88028 12.5564C4.91477 12.5791 4.94434 12.6084 4.96719 12.6429C4.99004 12.6773 5.00571 12.7159 5.01327 12.7565C5.02083 12.797 5.02012 12.8387 5.01116 12.879C5.00222 12.9193 4.98524 12.9573 4.96122 12.9909C4.93722 13.0246 4.90667 13.0529 4.87143 13.0743C4.80379 13.1156 4.7228 13.1291 4.64548 13.1119C4.56814 13.0947 4.50045 13.0483 4.45659 12.9823C4.41275 12.9162 4.39611 12.8359 4.41023 12.758C4.42432 12.68 4.46806 12.6106 4.53225 12.5641ZM4.97155 12.0275C4.88493 11.9982 4.79414 11.9829 4.70268 11.9825C4.52745 11.9813 4.35623 12.0351 4.21338 12.1366C4.07052 12.2381 3.96321 12.382 3.90674 12.5478C3.89489 12.3644 3.88888 12.1805 3.88874 11.9966C3.88987 11.5568 3.92699 11.118 3.99956 10.6842C4.10509 10.8497 4.26557 10.9727 4.45282 11.0316C4.64007 11.0905 4.84208 11.0814 5.02331 11.006L4.96481 10.9261C4.80344 10.9871 4.62595 10.99 4.46261 10.9347C4.29927 10.8793 4.16021 10.7688 4.0692 10.6225C3.97818 10.4759 3.94083 10.3024 3.96351 10.1314C3.9862 9.96042 4.06751 9.80269 4.1936 9.68504C4.31969 9.56731 4.48269 9.49695 4.65483 9.48619C4.82697 9.4753 4.99753 9.52453 5.13741 9.62533C5.27731 9.72625 5.37783 9.87256 5.42188 10.0393C5.46589 10.2061 5.45067 10.3829 5.37879 10.5398L6.04031 11.4375H7.63273L6.93749 10.785V9.79673C6.77719 9.73295 6.64403 9.61548 6.56078 9.46442C6.47751 9.31331 6.44932 9.138 6.48101 8.96844C6.51271 8.79888 6.60233 8.64559 6.73453 8.5348C6.86674 8.42401 7.03334 8.36258 7.20582 8.36102C7.37833 8.35948 7.546 8.41789 7.68019 8.52629C7.81436 8.6347 7.90673 8.78634 7.94147 8.95531C7.97621 9.12426 7.95117 9.30004 7.87064 9.45259C7.7901 9.60511 7.6591 9.72495 7.49998 9.79167V10.542L8.06248 11.0696V7.67211C7.90106 7.61171 7.76565 7.49714 7.67938 7.34795C7.59308 7.19877 7.5613 7.02425 7.58944 6.85423C7.6176 6.68418 7.70392 6.52923 7.83365 6.4158C7.96341 6.30237 8.12853 6.23754 8.3008 6.23236C8.47306 6.2272 8.64175 6.28202 8.77807 6.38745C8.91437 6.49291 9.00984 6.64242 9.04812 6.81046C9.08641 6.97848 9.06514 7.1546 8.98796 7.30868C8.91078 7.46277 8.78248 7.58526 8.62498 7.65524V11.6108L11.4374 14.7225V19.3125H10.875V18.066L9.59809 19.245L9.21617 18.8315L10.875 17.2999V16.5912L9.52892 15.375H6.86098L5.19766 13.7618C5.48082 14.8359 6.01514 15.8275 6.75662 16.6548C7.49812 17.4821 8.42556 18.1214 9.46251 18.5199L9.12166 18.8607L9.58798 19.3435L10.1712 18.8011C10.3041 18.8378 10.4153 18.8456 10.5313 18.854C10.6117 18.8596 10.6943 18.8658 10.7884 18.8821V19.3742H11.5161V18.975C11.5422 18.9783 11.5687 18.9792 11.5949 18.9777C11.6061 18.9773 11.6214 18.9761 11.6681 18.9777V19.375H12.3375V18.9744C12.4011 18.9704 12.4129 18.9665 12.4274 18.962C12.4404 18.9575 12.4556 18.9524 12.5147 18.9468V19.375H13.1842V18.8821C13.3448 18.8517 13.6813 18.7826 13.8382 18.7398L14.3944 19.1932L14.8349 18.6465L14.7068 18.5502C15.2186 18.3057 15.9094 17.8871 16.6996 17.2684C18.2847 15.6922 18.7837 13.7583 18.7876 13.7397C19.0519 13.593 19.2816 13.372 19.3321 12.999C19.3754 12.6829 19.2051 12.3577 18.9361 12.1868V11.9971C18.9361 11.5145 18.9316 11.1473 18.8331 10.6752L19.4126 10.1989V9.81529C19.57 9.71798 19.5949 9.69318 19.6741 9.57899C19.9576 10.416 20.0172 11.1146 20.0161 11.9978C20.0179 12.7875 19.9037 13.5732 19.6781 14.3304L19.6793 14.3288L19.6731 14.3468C19.6689 14.3598 19.6644 14.3728 19.6596 14.3855C17.5641 20.276 12.0848 20.1445 10.9386 19.9981C9.20566 19.7767 7.59139 18.999 6.3381 17.7821C5.08478 16.565 4.26007 14.9742 3.98774 13.2488C4.09063 13.4193 4.25125 13.5476 4.44052 13.6099C4.62976 13.6724 4.83512 13.6649 5.01936 13.589L4.94793 13.5199C4.78539 13.5768 4.6081 13.5756 4.44632 13.5165C4.28455 13.4574 4.14832 13.3439 4.0609 13.1956C3.97351 13.0472 3.94034 12.873 3.96707 12.7027C3.9938 12.5326 4.0788 12.377 4.20751 12.2625C4.33622 12.1481 4.50068 12.0818 4.67281 12.0751C4.84493 12.0684 5.01404 12.1217 5.15125 12.2259C5.28845 12.3299 5.38526 12.4785 5.42512 12.6462C5.46499 12.8136 5.44542 12.9899 5.3698 13.1446L7.08823 14.8124H8.94223L7.99723 13.8968C7.8356 13.9568 7.65811 13.9589 7.49511 13.9028C7.33208 13.8464 7.19366 13.7352 7.10349 13.5884C7.01333 13.4414 6.97699 13.2677 7.00073 13.0967C7.02445 12.926 7.10677 12.7688 7.23359 12.652C7.36041 12.535 7.52388 12.4658 7.69605 12.4562C7.86822 12.4464 8.03842 12.4968 8.17754 12.5988C8.31666 12.7007 8.41609 12.8478 8.45881 13.0148C8.50154 13.1819 8.48492 13.3586 8.41179 13.5147L9.82864 14.8885L10.875 15.8335V14.9391L8.21885 12H5.75624L5.03961 11.0275C4.99461 11.3497 4.97211 11.6742 4.97211 12.0005L4.97155 12.0275ZM7.73454 12.8471C7.64115 12.8471 7.55159 12.8843 7.48556 12.9503C7.41952 13.0163 7.38243 13.1058 7.38243 13.1993C7.38243 13.2926 7.41952 13.3822 7.48556 13.4481C7.55159 13.5143 7.64115 13.5514 7.73454 13.5514C7.82794 13.5514 7.9175 13.5143 7.98354 13.4481C8.04956 13.3822 8.08666 13.2926 8.08666 13.1993C8.08666 13.1058 8.04956 13.0163 7.98354 12.9503C7.9175 12.8843 7.82794 12.8471 7.73454 12.8471ZM9.82301 8.81174C9.8616 8.78613 9.9048 8.76838 9.95025 8.75948C9.9957 8.75057 10.0423 8.75068 10.0876 8.75984C10.133 8.76898 10.1759 8.78695 10.2144 8.81276C10.2528 8.83855 10.2857 8.87164 10.3114 8.91016C10.3369 8.9487 10.3547 8.99189 10.3637 9.03728C10.3725 9.08266 10.3724 9.12934 10.3632 9.17469C10.3541 9.22002 10.3361 9.26311 10.3104 9.30151C10.2845 9.3399 10.2515 9.37283 10.2128 9.39839C10.1352 9.4501 10.04 9.46874 9.94845 9.45037C9.85676 9.43186 9.77633 9.37779 9.72461 9.29999C9.67303 9.22218 9.65426 9.12703 9.67277 9.03548C9.69127 8.94392 9.74534 8.86343 9.82301 8.81174ZM8.12268 6.68436C8.16099 6.6563 8.20462 6.63628 8.2509 6.62553C8.29716 6.61474 8.34516 6.61345 8.39195 6.62172C8.43872 6.62999 8.48336 6.64764 8.52314 6.67361C8.56293 6.69957 8.59704 6.73332 8.62345 6.77283C8.64985 6.81234 8.66797 6.85677 8.67675 6.90347C8.68552 6.95017 8.68476 6.99815 8.6745 7.04454C8.66423 7.09093 8.64469 7.13477 8.61703 7.17341C8.58938 7.21203 8.5542 7.24468 8.5136 7.26936C8.43602 7.31652 8.34324 7.33191 8.25462 7.31229C8.16598 7.29268 8.08835 7.2396 8.03791 7.16413C7.98746 7.08867 7.96813 6.99662 7.98393 6.90723C7.99971 6.81783 8.04943 6.73799 8.12268 6.68436ZM7.20748 8.74873C7.16132 8.74891 7.11563 8.75819 7.07306 8.77603C7.03046 8.79387 6.99182 8.81992 6.9593 8.85269C6.92679 8.88548 6.90105 8.92433 6.88355 8.96707C6.86605 9.00978 6.85714 9.05554 6.85733 9.10171C6.85751 9.14788 6.86678 9.19355 6.88461 9.23613C6.90247 9.27872 6.92851 9.31737 6.96129 9.34988C6.99407 9.38238 7.03292 9.4081 7.07565 9.4257C7.11838 9.44315 7.16413 9.45208 7.21029 9.45182C7.30353 9.45155 7.3928 9.41414 7.45848 9.3479C7.52414 9.2817 7.56082 9.19213 7.56046 9.09889C7.56009 9.00565 7.52268 8.91638 7.45648 8.85071C7.39028 8.78504 7.30072 8.74837 7.20748 8.74873ZM6.84185 8.85899C6.80878 8.90761 6.78567 8.96231 6.77385 9.01992C6.76202 9.07752 6.76172 9.1369 6.77296 9.19463C6.78419 9.25237 6.80675 9.30729 6.83933 9.35626C6.87189 9.40522 6.91384 9.44722 6.96273 9.47989C7.01164 9.51258 7.06651 9.53528 7.12422 9.54658C7.18193 9.558 7.24131 9.55786 7.29893 9.54605C7.35656 9.53437 7.41132 9.5114 7.46001 9.47846C7.50871 9.44538 7.5504 9.40312 7.58268 9.35398C7.64366 9.25581 7.66413 9.13779 7.63972 9.02481C7.61533 8.91184 7.54798 8.81277 7.45191 8.74853C7.35583 8.68428 7.23855 8.6599 7.12484 8.6805C7.0111 8.70111 6.90928 8.76512 6.84185 8.85899ZM4.45461 10.6022C4.50327 10.6361 4.55817 10.6598 4.61614 10.6721C4.6741 10.6847 4.73395 10.6853 4.79219 10.6743C4.85041 10.6631 4.90585 10.6406 4.95527 10.6079C5.00467 10.5752 5.04703 10.5328 5.0799 10.4835C5.11275 10.4342 5.13545 10.3788 5.14662 10.3205C5.15782 10.2624 5.15728 10.2025 5.14503 10.1446C5.1328 10.0865 5.1091 10.0315 5.07535 9.98281C5.04162 9.93409 4.99847 9.8927 4.94849 9.86075C4.85017 9.7982 4.73121 9.77648 4.61715 9.80067C4.50308 9.82475 4.40299 9.89258 4.33837 9.98956C4.27374 10.0865 4.24971 10.205 4.27144 10.3196C4.29318 10.434 4.35893 10.5355 4.45461 10.6022ZM7.95166 6.72769C7.91928 6.77635 7.89679 6.83094 7.88549 6.8883C7.8742 6.94568 7.87431 7.00472 7.88583 7.06205C7.89734 7.11937 7.92003 7.17386 7.95262 7.22242C7.9852 7.27097 8.02702 7.31262 8.0757 7.34502C8.12438 7.37741 8.17896 7.3999 8.23634 7.4112C8.2937 7.4225 8.35273 7.42237 8.41006 7.41087C8.46739 7.39935 8.52188 7.37664 8.57044 7.34408C8.61899 7.3115 8.66065 7.26967 8.69304 7.22099C8.75846 7.12275 8.78217 7.00255 8.75895 6.88683C8.73576 6.7711 8.66753 6.66934 8.56929 6.60394C8.47104 6.53852 8.35085 6.5148 8.23513 6.538C8.1194 6.56121 8.01707 6.62945 7.95166 6.72769ZM7.48818 13.5672C7.56111 13.6159 7.64683 13.6418 7.73454 13.642V13.6437C7.81538 13.644 7.89483 13.6224 7.96429 13.581C8.03377 13.5397 8.09061 13.4801 8.12876 13.4089C8.16689 13.3376 8.18486 13.2571 8.1807 13.1763C8.17656 13.0957 8.15046 13.0176 8.10523 12.9507C8.06891 12.8955 8.02079 12.8492 7.96434 12.815C7.90791 12.7808 7.84459 12.7596 7.77893 12.7529C7.71329 12.7461 7.64698 12.7542 7.5848 12.7763C7.52264 12.7983 7.46615 12.8339 7.41945 12.8806C7.37275 12.9273 7.337 12.9836 7.31479 13.0458C7.29258 13.1079 7.28447 13.1741 7.29107 13.2399C7.29764 13.3055 7.31873 13.3689 7.35283 13.4254C7.38692 13.4819 7.43315 13.5306 7.48818 13.5672ZM4.45461 13.1869C4.52774 13.2357 4.61436 13.2623 4.7021 13.2617V13.2633C4.78293 13.2636 4.86227 13.2417 4.93163 13.2003C5.00099 13.1588 5.05774 13.0993 5.0958 13.0278C5.13383 12.9566 5.15174 12.8762 5.1476 12.7955C5.14345 12.7148 5.1174 12.6368 5.07223 12.5697C5.03582 12.5146 4.98762 12.4684 4.93111 12.4342C4.87459 12.4 4.81118 12.3788 4.74546 12.3722C4.67974 12.3656 4.61337 12.3735 4.55115 12.3957C4.48893 12.4178 4.43241 12.4535 4.38567 12.5002C4.33895 12.5469 4.30319 12.6034 4.28099 12.6656C4.25878 12.7278 4.2507 12.7943 4.25728 12.8599C4.26388 12.9256 4.28501 12.989 4.31914 13.0455C4.35326 13.1021 4.39953 13.1504 4.45461 13.1869ZM18.4822 13.634C18.6466 13.6342 18.8063 13.5799 18.9365 13.4796C19.0667 13.3796 19.1602 13.2391 19.2021 13.0804C19.2443 12.9214 19.2326 12.7531 19.169 12.6017C19.1053 12.4502 18.9933 12.324 18.8506 12.2428C18.7076 12.1617 18.5419 12.1301 18.3792 12.1529C18.2165 12.1758 18.0659 12.2519 17.951 12.3692C17.8362 12.4867 17.7633 12.6388 17.7438 12.8019C17.7243 12.9651 17.7596 13.13 17.8437 13.2712L16.3757 14.7747H15.5038L15.8474 14.4446L17.6249 12.8437V11.5315L19.3124 10.128V9.75173C19.4516 9.69003 19.5684 9.58726 19.6473 9.4572C19.7263 9.32716 19.7635 9.176 19.754 9.02415C19.7443 8.8723 19.6883 8.72705 19.5936 8.60797C19.4989 8.48889 19.37 8.40169 19.2242 8.35815C19.0784 8.3146 18.9227 8.31678 18.7781 8.36441C18.6337 8.41203 18.5072 8.5028 18.4159 8.62448C18.3245 8.74617 18.2728 8.89294 18.2674 9.04501C18.2621 9.19706 18.3035 9.34709 18.3861 9.4749C18.4658 9.59868 18.6066 9.6954 18.75 9.75342V9.86423L17.6249 10.8001V8.82918C17.7858 8.76799 17.9204 8.65285 18.0057 8.50347C18.091 8.35408 18.1217 8.17969 18.0928 8.01011C18.0639 7.84053 17.9768 7.68629 17.8467 7.57371C17.7166 7.46115 17.5514 7.39725 17.3795 7.39294C17.2074 7.38866 17.0393 7.44422 16.9038 7.55013C16.7681 7.65607 16.6736 7.80576 16.6361 7.97369C16.5987 8.14161 16.6207 8.31732 16.6986 8.47078C16.7763 8.62426 16.9049 8.74596 17.0625 8.81511V12.5934L15.9374 13.607V10.8766C16.0961 10.8095 16.2266 10.6891 16.3064 10.5363C16.3861 10.3835 16.4104 10.2079 16.375 10.0392C16.3396 9.87053 16.2467 9.71943 16.1121 9.61167C15.9778 9.50392 15.8099 9.44617 15.6376 9.44839C15.4652 9.45063 15.2991 9.5127 15.1673 9.62388C15.0358 9.73518 14.9468 9.88865 14.9158 10.0582C14.8848 10.2277 14.9135 10.4027 14.9972 10.5534C15.0811 10.704 15.2146 10.8209 15.3749 10.884V14.1184L14.6122 14.8501L12.5625 16.7052V19.3125H13.125V18.0783L14.3726 19.1043L14.7298 18.6701L13.125 17.3504V16.9551L14.9126 15.3372H16.6125L18.2752 13.6346C18.3061 13.6358 18.3764 13.6346 18.4271 13.6346C18.454 13.634 18.4754 13.6334 18.4822 13.634ZM18.4822 12.4455C18.6003 12.4455 18.7134 12.4923 18.797 12.5758C18.8804 12.6594 18.9275 12.7726 18.9275 12.8906C18.9275 13.0088 18.8804 13.122 18.797 13.2056C18.7134 13.289 18.6003 13.3359 18.4822 13.3359C18.3641 13.3359 18.2508 13.289 18.1674 13.2056C18.0839 13.122 18.037 13.0088 18.037 12.8906C18.037 12.7726 18.0839 12.6594 18.1674 12.5758C18.2508 12.4923 18.3641 12.4455 18.4822 12.4455ZM18.6414 8.82524C18.6084 8.87387 18.5851 8.92856 18.5734 8.98618C18.5616 9.04378 18.5612 9.10316 18.5725 9.16088C18.5837 9.21861 18.6062 9.27353 18.6388 9.3225C18.6714 9.37147 18.7133 9.41348 18.7624 9.44617C18.8111 9.47885 18.866 9.50156 18.9238 9.51284C18.9815 9.52427 19.0409 9.524 19.0985 9.51232C19.1561 9.50064 19.2108 9.47767 19.2595 9.4446C19.3082 9.41164 19.35 9.3694 19.3823 9.32024C19.4467 9.22199 19.4698 9.10225 19.4464 8.98707C19.423 8.8719 19.355 8.77064 19.2573 8.70535C19.1596 8.64005 19.04 8.61601 18.9247 8.63848C18.8093 8.66093 18.7075 8.72806 18.6414 8.82524ZM16.9916 7.8898C16.9579 7.93823 16.9342 7.99287 16.9219 8.05052C16.9096 8.1082 16.9089 8.16773 16.9198 8.22568C16.9309 8.28362 16.9531 8.3388 16.9857 8.38801C17.0182 8.43723 17.06 8.47949 17.109 8.51233C17.1581 8.54518 17.213 8.56795 17.2708 8.57931C17.3287 8.59069 17.3883 8.59043 17.446 8.57855C17.5037 8.56669 17.5586 8.54344 17.6073 8.51017C17.6558 8.47692 17.6976 8.4343 17.7295 8.3848C17.793 8.28691 17.8154 8.16805 17.7918 8.05384C17.7683 7.93961 17.7008 7.83919 17.6041 7.77423C17.5073 7.70928 17.3889 7.68499 17.2742 7.70662C17.1596 7.72823 17.0581 7.79402 16.9916 7.8898ZM15.2776 9.95029C15.2294 10.0232 15.2034 10.1086 15.2033 10.196V10.1977C15.2032 10.2783 15.2249 10.3575 15.2663 10.4267C15.3077 10.4959 15.367 10.5526 15.4382 10.5906C15.5093 10.6286 15.5894 10.6466 15.6699 10.6426C15.7504 10.6386 15.8283 10.6127 15.8953 10.5678C15.9502 10.5314 15.9963 10.4831 16.0304 10.4266C16.0644 10.37 16.0853 10.3067 16.092 10.241C16.0985 10.1754 16.0903 10.1091 16.0682 10.047C16.046 9.98494 16.0103 9.92847 15.9637 9.88178C15.917 9.83521 15.8607 9.79954 15.7984 9.77727C15.7363 9.75511 15.6701 9.74698 15.6045 9.75353C15.5388 9.76017 15.4755 9.7811 15.4189 9.81507C15.3624 9.84905 15.3141 9.89528 15.2776 9.95029Z" fill="white"/>
</g>
<defs>
<clipPath id="clip0_328_22300">
<rect width="24" height="24" fill="white"/>
</clipPath>
</defs>
</svg>
