<svg width="24" height="24" viewBox="0 0 24 24" fill="none" xmlns="http://www.w3.org/2000/svg">
<g clip-path="url(#clip0_328_20525)">
<path d="M24 0H0V24H24V0Z" fill="#006666"/>
<path d="M11.9429 5.59067L5.39604 8.05401C5.39274 8.05459 5.38933 8.05449 5.38605 8.05367C5.38278 8.05285 5.37973 8.05135 5.3771 8.04926L5.36761 8.03979V8.02557C6.33401 1.34618 17.6038 1.31775 18.6317 7.98294C18.6364 8.03032 18.6174 8.04453 18.5749 8.03032L12.0375 5.59067C12.0073 5.57854 11.9733 5.57854 11.9429 5.59067Z" fill="white"/>
<path d="M17.8828 11.2139C17.8707 11.2376 17.8504 11.2561 17.8257 11.266L12.0275 14.0989C12.0166 14.1045 12.0044 14.1077 11.9919 14.1077C11.9797 14.1077 11.9674 14.1045 11.9564 14.0989L6.16766 11.266C6.14322 11.2558 6.12311 11.2373 6.11082 11.2139C5.85027 10.6502 5.64184 10.0722 5.48077 9.47534C5.48077 9.45644 5.48551 9.43743 5.50447 9.42792L11.9471 7.01201C11.9745 7.00185 12.0048 7.00185 12.0323 7.01201L18.4842 9.41378C18.4938 9.41378 18.5032 9.42329 18.5032 9.42792C18.3494 10.0395 18.1401 10.6356 17.8779 11.2092L17.8828 11.2139Z" fill="white"/>
<path d="M11.9763 19.2231C11.9823 19.215 11.9857 19.2051 11.9857 19.1947C11.9868 19.1829 11.9835 19.171 11.9763 19.1615C10.7635 17.8446 9.60765 16.4803 8.50862 15.0686C8.06783 14.5039 7.66279 13.9122 7.29592 13.2969C7.27696 13.259 7.28643 13.2495 7.32433 13.2686L11.9525 15.528C11.9857 15.5424 12.0142 15.5424 12.0474 15.528L16.6613 13.2827C16.7276 13.2495 16.7419 13.2638 16.704 13.3254C15.4011 15.4097 13.6958 17.3519 12.0236 19.1664C12.0163 19.1748 12.0121 19.1857 12.0121 19.197C12.0121 19.2082 12.0163 19.2192 12.0236 19.2279C12.3078 19.5026 12.9236 20.2273 12.682 20.6395C12.4783 20.9854 11.9668 21.0943 11.6163 20.9143C10.8204 20.5021 11.6163 19.5973 11.9763 19.2231Z" fill="white"/>
</g>
<defs>
<clipPath id="clip0_328_20525">
<rect width="24" height="24" fill="white"/>
</clipPath>
</defs>
</svg>
