<svg width="24" height="24" viewBox="0 0 24 24" fill="none" xmlns="http://www.w3.org/2000/svg">
<g clip-path="url(#clip0_328_28384)">
<path d="M24 0H0V24H24V0Z" fill="url(#paint0_linear_328_28384)"/>
<path d="M8.62508 14.2493H3.28171C3.0961 13.5292 3.00049 12.7755 3.00049 11.9994C3.00049 7.02722 6.98833 3 11.9098 3H20.9993L18.215 5.62669L18.1419 5.59294L8.62508 14.2493Z" fill="white"/>
<path d="M20.9996 11.9993C20.9989 13.7712 20.4751 15.5036 19.494 16.9789C18.5127 18.4545 17.1178 19.6074 15.484 20.2934C13.8504 20.9792 12.0503 21.1678 10.31 20.8349C8.56952 20.5021 6.96611 19.663 5.70068 18.4224L9.18794 14.8115C9.94028 15.5428 10.9511 15.9471 12.0002 15.9365C12.7358 15.9367 13.4567 15.7311 14.0813 15.3426C14.7058 14.9541 15.2091 14.3985 15.5342 13.7386C15.8591 13.0789 15.9927 12.3412 15.9198 11.6093C15.847 10.8773 15.5706 10.1804 15.122 9.59756L15.375 9.37252L18.7273 6.02026C20.194 7.66608 21.0029 9.79472 20.9996 11.9993Z" fill="white"/>
<path d="M20.9995 11.9984C21.0001 14.1387 20.2377 16.2092 18.8492 17.8381C17.461 19.4671 15.5376 20.548 13.4241 20.8867C11.3107 21.2253 9.14585 20.7998 7.31799 19.6862C5.49013 18.5726 4.11901 16.8441 3.45068 14.8107H9.18778L9.47461 15.0638C10.3296 15.8232 11.944 17.2461 14.4354 17.2461C17.6246 17.2461 20.437 14.0626 20.437 10.8735C20.437 9.51238 20.1558 8.37055 19.807 7.52124C20.5902 8.88328 21.0013 10.4272 20.9995 11.9984Z" fill="white"/>
</g>
<defs>
<linearGradient id="paint0_linear_328_28384" x1="7.30035" y1="17.8647" x2="17.4082" y2="13.5281" gradientUnits="userSpaceOnUse">
<stop stop-color="#0031A5"/>
<stop offset="0.48" stop-color="#009EEF"/>
<stop offset="1" stop-color="#009DEE"/>
</linearGradient>
<clipPath id="clip0_328_28384">
<rect width="24" height="24" fill="white"/>
</clipPath>
</defs>
</svg>
