<svg width="24" height="24" viewBox="0 0 24 24" fill="none" xmlns="http://www.w3.org/2000/svg">
<g clip-path="url(#clip0_328_28401)">
<path d="M24 0H0V24H24V0Z" fill="white"/>
<path d="M11.9751 4L18.8895 7.96837V15.9038L11.9751 19.8722L5.11035 15.9038V7.96793L11.9751 4Z" fill="white"/>
<path d="M11.9721 11.8897L8.32568 9.79712V13.8045L11.9721 16.1515V11.8897Z" fill="#065198"/>
<path d="M11.9995 12.0694L15.6739 9.96582V13.994L11.9995 16.2767V12.0694Z" fill="#21B1F8"/>
<path d="M11.9997 7.52979L15.6782 9.81114L11.9997 11.8542L8.35791 9.8116L11.9997 7.52979Z" fill="#E82E9D"/>
<path d="M4.84017 7.70072C4.82407 7.72836 4.81359 7.75892 4.80932 7.79063C4.80503 7.82233 4.80705 7.85457 4.81524 7.8855C4.82343 7.91643 4.83763 7.94543 4.85704 7.97086C4.87646 7.99629 4.90069 8.01765 4.92835 8.03372L11.7591 12.0104V19.7565C11.7591 19.8212 11.7848 19.8831 11.8304 19.9288C11.876 19.9743 11.938 20 12.0025 20C12.0671 20 12.129 19.9743 12.1747 19.9288C12.2203 19.8831 12.246 19.8212 12.246 19.7565V12.0104L19.068 8.04979C19.0964 8.03407 19.1212 8.01286 19.1412 7.98741C19.1612 7.96195 19.176 7.93276 19.1845 7.90154C19.1931 7.87032 19.1955 7.8377 19.1913 7.80559C19.1871 7.77347 19.1765 7.74253 19.1602 7.71454C19.1439 7.68655 19.1223 7.66209 19.0964 7.64259C19.0705 7.6231 19.041 7.60897 19.0096 7.60101C18.9784 7.59304 18.9456 7.59142 18.9136 7.59625C18.8815 7.60107 18.8509 7.61222 18.8231 7.62907L12.0025 11.5882L5.17316 7.613C5.14554 7.59688 5.11501 7.58637 5.08333 7.58205C5.05164 7.57775 5.01942 7.57972 4.9885 7.58786C4.95757 7.59601 4.92856 7.61017 4.9031 7.62954C4.87765 7.6489 4.85626 7.67308 4.84017 7.70072Z" fill="#0C0E15"/>
<path d="M11.9997 6.02112C12.2161 6.02112 12.3914 5.84572 12.3914 5.62934C12.3914 5.41296 12.2161 5.23755 11.9997 5.23755C11.7832 5.23755 11.6079 5.41296 11.6079 5.62934C11.6079 5.84572 11.7832 6.02112 11.9997 6.02112Z" fill="#0C0E15"/>
<path d="M11.9997 7.0946C12.2161 7.0946 12.3914 6.91919 12.3914 6.70281C12.3914 6.48643 12.2161 6.31104 11.9997 6.31104C11.7832 6.31104 11.6079 6.48643 11.6079 6.70281C11.6079 6.91919 11.7832 7.0946 11.9997 7.0946Z" fill="#0C0E15"/>
<path d="M7.52557 14.6588C7.74195 14.6588 7.91737 14.4834 7.91737 14.2671C7.91737 14.0507 7.74195 13.8752 7.52557 13.8752C7.3092 13.8752 7.13379 14.0507 7.13379 14.2671C7.13379 14.4834 7.3092 14.6588 7.52557 14.6588Z" fill="#0C0E15"/>
<path d="M6.45185 15.3307C6.66823 15.3307 6.84363 15.1553 6.84363 14.939C6.84363 14.7226 6.66823 14.5471 6.45185 14.5471C6.23547 14.5471 6.06006 14.7226 6.06006 14.939C6.06006 15.1553 6.23547 15.3307 6.45185 15.3307Z" fill="#0C0E15"/>
<path d="M16.5477 14.6588C16.3313 14.6588 16.1558 14.4834 16.1558 14.2671C16.1558 14.0507 16.3313 13.8752 16.5477 13.8752C16.764 13.8752 16.9394 14.0507 16.9394 14.2671C16.9394 14.4834 16.764 14.6588 16.5477 14.6588Z" fill="#0C0E15"/>
<path d="M17.6218 15.3307C17.4054 15.3307 17.23 15.1553 17.23 14.939C17.23 14.7226 17.4054 14.5471 17.6218 14.5471C17.8382 14.5471 18.0135 14.7226 18.0135 14.939C18.0135 15.1553 17.8382 15.3307 17.6218 15.3307Z" fill="#0C0E15"/>
</g>
<defs>
<clipPath id="clip0_328_28401">
<rect width="24" height="24" fill="white"/>
</clipPath>
</defs>
</svg>
