<svg width="24" height="24" viewBox="0 0 24 24" fill="none" xmlns="http://www.w3.org/2000/svg">
<g clip-path="url(#clip0_328_25973)">
<path d="M24 0H0V24H24V0Z" fill="#4BFF00"/>
<path fill-rule="evenodd" clip-rule="evenodd" d="M11.9999 18.75C13.6913 18.7483 15.3202 18.1116 16.5645 16.9662C17.8088 15.8208 18.5777 14.2498 18.7192 12.5646C18.8606 10.8792 18.3642 9.20222 17.3282 7.86539C16.2923 6.52858 14.7922 5.62934 13.125 5.34569V9.42379C13.7172 9.68221 14.2023 10.1367 14.4988 10.7108C14.7953 11.2849 14.8851 11.9436 14.7532 12.5762C14.6211 13.2086 14.2753 13.7764 13.7739 14.1839C13.2725 14.5914 12.6461 14.8139 11.9999 14.8139C11.3538 14.8139 10.7274 14.5914 10.226 14.1839C9.72461 13.7764 9.37877 13.2086 9.2468 12.5762C9.11479 11.9436 9.20459 11.2849 9.50109 10.7108C9.79759 10.1367 10.2828 9.68221 10.875 9.42379V5.34569C9.20768 5.62934 7.70762 6.52858 6.67166 7.86539C5.63571 9.20222 5.13932 10.8792 5.28078 12.5646C5.42223 14.2498 6.19117 15.8208 7.43547 16.9662C8.67975 18.1116 10.3087 18.7483 11.9999 18.75ZM11.9999 21C14.3869 21 16.6762 20.0518 18.3638 18.364C20.0517 16.6761 21 14.387 21 12.0001C21 9.61305 20.0517 7.32392 18.3638 5.63609C16.6762 3.94828 14.3869 3.00006 11.9999 3.00006C9.61304 3.00006 7.32385 3.94828 5.63603 5.63609C3.9482 7.32392 3 9.61305 3 12.0001C3 14.387 3.9482 16.6761 5.63603 18.364C7.32385 20.0518 9.61304 21 11.9999 21Z" fill="white"/>
</g>
<defs>
<clipPath id="clip0_328_25973">
<rect width="24" height="24" fill="white"/>
</clipPath>
</defs>
</svg>
