<svg width="24" height="24" viewBox="0 0 24 24" fill="none" xmlns="http://www.w3.org/2000/svg">
<g clip-path="url(#clip0_328_23900)">
<path d="M24 0H0V24H24V0Z" fill="#4D4D4D"/>
<path d="M16.4995 9.43981C16.6314 9.07984 16.3715 8.78385 16.3795 8.41588C16.3795 8.36388 16.3955 8.35588 16.4316 8.39588L19.8994 11.9197C19.9482 11.9701 19.9812 12.0337 19.9939 12.1028C20.0067 12.1718 19.9989 12.2431 19.9713 12.3076C19.9513 12.3477 19.9274 12.3876 19.8913 12.4196L16.8034 15.4354C16.6235 15.6074 16.5635 15.5754 16.6115 15.3314C16.8834 13.9796 16.3715 12.1916 15.0236 11.5597C13.9117 11.0397 12.3037 11.0517 11.1798 10.8637C10.3918 10.7317 9.74796 10.0958 9.91194 9.26383C10.1679 7.95591 12.0717 7.81191 13.0637 8.1639C13.7757 8.41987 13.9117 8.76385 14.1757 9.33983C14.2357 9.46381 14.3757 9.53981 14.5956 9.55981C14.8957 9.59181 15.1956 9.59981 15.4835 9.59981C15.7675 9.59981 16.0475 9.59981 16.3235 9.57581C16.3628 9.57212 16.4001 9.55738 16.4312 9.53331C16.4623 9.50924 16.4861 9.47681 16.4995 9.43981Z" fill="white"/>
<path d="M7.61629 14.7598L7.80827 15.4757C7.82027 15.5157 7.80827 15.5516 7.76428 15.5717C7.70828 15.5957 7.66028 15.5917 7.62429 15.5477C6.47449 14.3276 5.30101 13.1302 4.1045 11.9559C3.96451 11.8119 3.96451 11.6759 4.10851 11.5359L7.5643 8.21613C7.70828 8.08414 7.76428 8.11213 7.74028 8.30812C7.71229 8.53211 7.68429 8.79609 7.66028 9.10408C7.4763 11.2839 9.13619 12.8958 11.18 13.0078C12.336 13.0718 14.08 12.8478 14.2999 14.0558C14.4639 14.9797 13.7359 15.7077 12.868 15.9077C11.5881 16.1996 10.6281 15.7997 9.99615 14.7078C9.72016 14.2358 8.31624 14.4198 7.81628 14.4678C7.76678 14.4735 7.72039 14.4948 7.68375 14.5286C7.6471 14.5623 7.62208 14.6069 7.61228 14.6557C7.6049 14.6886 7.6049 14.7228 7.61228 14.7558L7.61629 14.7598Z" fill="white"/>
</g>
<defs>
<clipPath id="clip0_328_23900">
<rect width="24" height="24" fill="white"/>
</clipPath>
</defs>
</svg>
