<svg width="24" height="24" viewBox="0 0 24 24" fill="none" xmlns="http://www.w3.org/2000/svg">
<g clip-path="url(#clip0_328_22372)">
<path d="M24 0H0V24H24V0Z" fill="#87F96E"/>
<path fill-rule="evenodd" clip-rule="evenodd" d="M11.9999 3C12.2819 3 12.5605 3.06276 12.8152 3.18376L19.6554 6.92143C20.1001 7.16496 20.4707 7.7685 20.4707 8.26086V15.7362C20.4528 16.0087 20.3693 16.2727 20.2274 16.5061C20.0853 16.7392 19.8892 16.9347 19.6554 17.0756L12.8152 20.8134C12.3652 21.0622 11.6347 21.0622 11.1846 20.8134L4.34462 17.0756C3.89991 16.8321 3.52931 16.2285 3.52931 15.7362V8.26086C3.54639 7.9875 3.62948 7.72236 3.77149 7.48816C3.91348 7.25396 4.11015 7.05768 4.34462 6.91614L11.1846 3.18376C11.4395 3.06276 11.718 3 11.9999 3ZM17.6601 8.0544L12.8318 5.3438C12.5794 5.19395 12.2909 5.11531 11.9972 5.11625C11.7036 5.11718 11.4157 5.19764 11.1641 5.34909L11.09 5.38086L10.5447 5.69321L10.0683 5.95791L15.4472 9.07088L15.4525 9.08147C15.6431 9.18737 15.8072 9.3303 15.9395 9.50501L18.0467 8.41441C17.9407 8.27676 17.8084 8.1497 17.6601 8.0544ZM13.303 10.3785L7.74415 7.26029L6.42591 7.99617C6.2401 8.1037 6.07802 8.24778 5.94944 8.4197L11.8364 11.8081L13.7848 10.8021C13.6577 10.6327 13.4884 10.4844 13.303 10.3785ZM10.3384 11.3474L5.78532 8.7003C5.70062 8.89088 5.64767 9.09736 5.64767 9.29854V14.6986C5.6535 14.9599 5.72615 15.2152 5.85868 15.4405C5.99119 15.6656 6.1792 15.8531 6.40474 15.9851L11.1324 18.7222C11.305 18.8076 11.4915 18.8614 11.683 18.881V17.1022C11.4554 17.0809 11.2277 17.0068 11.0318 16.8904H11.0212L7.80768 15.0004C7.63298 14.8892 7.49534 14.6774 7.49534 14.5027C7.49534 14.3333 7.63298 14.2697 7.80768 14.3598H7.81828L7.82888 14.3704L7.84475 14.3756L10.28 15.8262L11.1271 16.3027C11.3013 16.3887 11.4896 16.4426 11.683 16.4615V14.6774C11.4607 14.6562 11.2489 14.5875 11.0583 14.4815L11.0425 14.4762L11.0264 14.4656L7.83416 12.5862L7.82357 12.5809L7.81828 12.5756L7.80768 12.5704C7.65416 12.4751 7.5324 12.2845 7.5324 12.1309C7.5324 11.9827 7.64886 11.9297 7.80768 12.0038L7.82357 12.0144L11.0848 13.9308C11.2701 14.0262 11.466 14.0844 11.6776 14.1058V12.0938L10.3384 11.3474ZM12.6518 13.8992L12.6254 13.9098V13.9151C12.4348 14.0209 12.2177 14.0844 12.0007 14.1058V12.0938L13.9595 11.0879C14.0443 11.2892 14.1184 11.5009 14.1184 11.7127V13.1792L12.6518 13.8992ZM18.3484 9.31971C18.3484 9.10795 18.3061 8.89618 18.2161 8.7003L16.109 9.78554C16.1722 9.92661 16.2134 10.0767 16.2307 10.2303L16.2361 10.2515V12.4485L12.6254 14.4762H12.6201C12.4295 14.5822 12.2124 14.6456 12.0007 14.6669V16.4509C12.2177 16.4298 12.4295 16.3662 12.6201 16.2604L16.2361 14.2222V16.7845L17.5595 16.0061C17.7985 15.8745 17.9981 15.6814 18.1377 15.447C18.2773 15.2125 18.3518 14.945 18.3537 14.6721V9.37265C18.3504 9.35518 18.3487 9.33747 18.3484 9.31971ZM12.599 16.9222L12.6148 16.9115L14.1184 16.0061V17.785L12.6148 18.6957C12.4241 18.7962 12.2124 18.8598 12.0007 18.881V17.0969C12.2071 17.0809 12.419 17.0174 12.599 16.9222Z" fill="white"/>
</g>
<defs>
<clipPath id="clip0_328_22372">
<rect width="24" height="24" fill="white"/>
</clipPath>
</defs>
</svg>
