<svg width="24" height="24" viewBox="0 0 24 24" fill="none" xmlns="http://www.w3.org/2000/svg">
<g clip-path="url(#clip0_328_22462)">
<path d="M24 0H0V24H24V0Z" fill="#EEF1F8"/>
<path d="M12 20C16.4183 20 20 16.4183 20 12C20 7.58171 16.4183 4 12 4C7.58171 4 4 7.58171 4 12C4 16.4183 7.58171 20 12 20Z" fill="#31AAA7"/>
<path d="M11.8258 4V8.98822H8.23529V15.4589H11.3789V20C9.36977 19.8414 7.49438 18.9312 6.12673 17.4509C4.75906 15.9707 3.99966 14.0294 4 12.0141C4 7.64705 7.48705 4.09411 11.8258 4Z" fill="#333333"/>
<path d="M11.0594 4.01416V8.23534H8.70648C8.48061 8.23534 8.2359 8.40946 8.2359 8.63534V9.6471H14.9653C15.3936 9.6471 15.7652 9.43063 15.7652 9.0024C15.7652 8.57416 15.3936 8.23534 14.9653 8.23534H12.4712V4.01416H11.0594ZM8.2359 11.5294V15.6706C8.2359 15.8918 8.42414 16.2354 8.65943 16.2354H11.0594V20H12.4712V16.2354H14.9794C15.4124 16.2354 15.7652 15.953 15.7652 15.5482C15.7652 15.1389 15.4124 14.8235 14.9794 14.8235H9.94413C9.74178 14.8235 9.64766 14.6354 9.64766 14.4471V13.2942C9.64766 13.106 9.74178 12.9413 9.93941 12.9413H14.9559C15.4029 12.9413 15.7652 12.72 15.7652 12.2965C15.7652 11.873 15.4029 11.5294 14.9559 11.5294H8.2359Z" fill="#EEF1F8"/>
</g>
<defs>
<clipPath id="clip0_328_22462">
<rect width="24" height="24" fill="white"/>
</clipPath>
</defs>
</svg>
