<svg width="24" height="24" viewBox="0 0 24 24" fill="none" xmlns="http://www.w3.org/2000/svg">
<g clip-path="url(#clip0_328_26121)">
<path d="M24 0H0V24H24V0Z" fill="url(#paint0_linear_328_26121)"/>
<path d="M4 4H5.99998V6H4V4ZM8.99998 4H11V6H8.99998V4ZM8.99998 8.99999H11V10.9999H8.99998V8.99999ZM14 4H16V6H14V4ZM18.9999 4.5H20V5.5H18.9999V4.5ZM18.9999 9.49998H20V10.5H18.9999V9.49998ZM14.5 9.49998H15.4999V10.5H14.5V9.49998ZM14.5 14.4999H15.4999V15.5H14.5V14.4999ZM9.49998 14.4999H10.5V15.5H9.49998V14.4999ZM4.5 19H5.49999V19.9999H4.5V19ZM9.49998 19H10.5V19.9999H9.49998V19ZM14.5 19H15.4999V19.9999H14.5V19ZM18.9999 19H20V19.9999H18.9999V19ZM18.9999 14.4999H20V15.5H18.9999V14.4999ZM4 8.99999H5.99998V10.9999H4V8.99999ZM4 14H5.99998V15.9999H4V14Z" fill="white"/>
</g>
<defs>
<linearGradient id="paint0_linear_328_26121" x1="6.97713" y1="6.77428" x2="23.4714" y2="25.72" gradientUnits="userSpaceOnUse">
<stop stop-color="#1A1E21"/>
<stop offset="1" stop-color="#06060A"/>
</linearGradient>
<clipPath id="clip0_328_26121">
<rect width="24" height="24" fill="white"/>
</clipPath>
</defs>
</svg>
