<svg width="24" height="24" viewBox="0 0 24 24" fill="none" xmlns="http://www.w3.org/2000/svg">
<g clip-path="url(#clip0_328_22627)">
<path d="M24 0H0V24H24V0Z" fill="white"/>
<path d="M8.57362 7.48079L8.46683 7.59899L5.28561 11.1462C4.73301 11.6989 4.36761 11.3274 4.37361 10.8432V8.25898C4.394 7.65179 4.62442 7.07698 5.01682 6.65518C5.40982 6.23339 5.93361 5.99818 6.47842 5.99878H8.57362L7.96282 6.69118L7.25481 7.48018L8.57362 7.48079Z" fill="url(#paint0_linear_328_22627)"/>
<path d="M19.6265 9.11164C19.5882 10.533 19.0384 11.893 18.0779 12.9415L10.5952 20.424C10.1807 20.7948 9.64411 20.9998 9.08801 21C8.93717 20.9971 8.78677 20.9831 8.638 20.9579L8.1988 20.8219C7.72872 20.6587 7.2706 20.4627 6.82781 20.2357L6.7336 20.1835C6.693 20.1533 6.66034 20.1137 6.63838 20.0682C6.61645 20.0227 6.60588 19.9724 6.6076 19.9219C6.60657 19.8505 6.62866 19.7805 6.6706 19.7227L15.0639 11.3189C15.1049 11.2753 15.1395 11.226 15.1684 11.1727C15.2206 11.0724 15.2626 10.9675 15.2944 10.8588C15.3101 10.79 15.3204 10.72 15.3256 10.6494C15.3347 10.6048 15.3382 10.5589 15.3358 10.5133C15.3358 10.1413 15.1883 9.78488 14.9253 9.52209C14.6619 9.2586 14.3055 8.99944 13.9336 8.99944H10.8675L12.9287 7.04944C12.9905 7.00751 13.0439 6.95416 13.0857 6.89224C13.1413 6.80475 13.1705 6.70309 13.1697 6.59944C13.1697 6.45781 13.1136 6.32199 13.0134 6.22184C12.9132 6.12171 12.7775 6.06543 12.6358 6.06543H8.25222C8.25222 6.06543 8.68001 5.60524 8.84741 5.43784C9.22421 5.02984 9.68443 4.50662 10.1871 4.14004C11.2 3.39543 12.4252 2.99578 13.6822 3.00003C14.4268 3.00003 15.1647 3.13863 15.8589 3.40803L16.1417 3.52264C16.6444 3.75424 17.1124 4.05363 17.5335 4.41244L17.6175 4.48563H17.6278C18.2559 5.04408 18.7586 5.72908 19.1031 6.49567C19.4476 7.26223 19.6258 8.09302 19.6265 8.93344V9.11164Z" fill="url(#paint1_linear_328_22627)"/>
<path d="M13.4383 5.99878H8.32799L5.67178 8.42158C5.62468 8.4695 5.5929 8.53036 5.58051 8.59638C5.56812 8.66243 5.57566 8.73065 5.60218 8.79239C5.63022 8.85423 5.67557 8.90662 5.73275 8.94325C5.78992 8.97987 5.85647 8.99918 5.92438 8.99879H11.6621L13.8792 6.81299C13.9426 6.73056 13.976 6.62897 13.974 6.52499C13.9738 6.45563 13.9598 6.38701 13.9329 6.32312C13.9059 6.25924 13.8665 6.2014 13.8167 6.15297C13.7155 6.05406 13.5798 5.99871 13.4383 5.99878ZM11.2314 7.50419C11.1415 7.5044 11.0549 7.47003 10.9896 7.40818C10.9253 7.34705 10.8875 7.26298 10.8845 7.17418C10.8852 7.11822 10.9001 7.06334 10.9276 7.01467C10.9551 6.96598 10.9947 6.92508 11.0424 6.89578C11.0957 6.86205 11.1575 6.84416 11.2206 6.84418C11.3096 6.84264 11.3955 6.87603 11.46 6.93719C11.4914 6.96713 11.5166 7.00303 11.5339 7.04279C11.5513 7.08255 11.5607 7.12538 11.5612 7.16878C11.5619 7.21216 11.554 7.25525 11.5379 7.29553C11.5216 7.33581 11.4977 7.37247 11.4672 7.40338C11.4048 7.4665 11.3201 7.50269 11.2314 7.50419Z" fill="#E35CC7"/>
<path d="M8.25294 6.06567L5.69273 8.37147C5.64017 8.42264 5.6042 8.4884 5.58948 8.56026C5.57476 8.63211 5.58196 8.70672 5.61015 8.77444C5.63835 8.84213 5.68625 8.89982 5.74761 8.93996C5.80899 8.98013 5.881 9.00093 5.95434 8.99967H7.07394L10.2503 6.06567H8.25294ZM11.3597 7.59387C11.4484 7.59387 11.5337 7.55859 11.5964 7.49581C11.6593 7.43302 11.6946 7.34787 11.6946 7.25907C11.6946 7.17029 11.6593 7.08511 11.5964 7.02233C11.5337 6.95954 11.4484 6.92427 11.3597 6.92427C11.2709 6.92427 11.1859 6.95954 11.123 7.02233C11.0603 7.08511 11.025 7.17029 11.025 7.25907C11.025 7.34787 11.0603 7.43302 11.123 7.49581C11.1859 7.55859 11.2709 7.59387 11.3597 7.59387Z" fill="#8961D0"/>
<path d="M11.3596 7.59293C11.4485 7.59293 11.5336 7.55767 11.5964 7.49487C11.6592 7.43208 11.6945 7.34694 11.6945 7.25813C11.6945 7.16934 11.6592 7.08418 11.5964 7.02139C11.5336 6.9586 11.4485 6.92334 11.3596 6.92334C11.2708 6.92334 11.1858 6.9586 11.1229 7.02139C11.0602 7.08418 11.0249 7.16934 11.0249 7.25813C11.0249 7.34694 11.0602 7.43208 11.1229 7.49487C11.1858 7.55767 11.2708 7.59293 11.3596 7.59293Z" fill="url(#paint2_linear_328_22627)"/>
<path d="M11.6841 7.25813C11.6841 7.17118 11.6504 7.08761 11.5898 7.02513C11.5293 6.96265 11.4464 6.92614 11.3594 6.92334C11.3005 6.92475 11.2431 6.94078 11.1919 6.97C11.1405 6.99922 11.0973 7.0407 11.0659 7.09074C11.1138 7.04907 11.1723 7.02147 11.235 7.01099C11.2976 7.0005 11.3618 7.00755 11.4205 7.03133C11.4799 7.05597 11.5307 7.0976 11.5662 7.15099C11.6019 7.20439 11.6209 7.26714 11.6211 7.33133V7.34154C11.623 7.39695 11.6085 7.45171 11.579 7.49873C11.6122 7.46813 11.6388 7.43092 11.6569 7.38949C11.675 7.34806 11.6841 7.30333 11.6841 7.25813Z" fill="#480061"/>
<path d="M13.439 5.99878H8.31972L5.6725 8.42158C5.46851 8.62678 5.62091 8.99279 5.91492 8.99878H11.6599L13.88 6.81299C13.9434 6.73056 13.9768 6.62897 13.9747 6.52499C13.9746 6.45563 13.9606 6.38701 13.9337 6.32312C13.9067 6.25924 13.8671 6.2014 13.8175 6.15297C13.7163 6.05406 13.5805 5.99871 13.439 5.99878ZM11.2176 7.50419C11.1289 7.50402 11.0438 7.46939 10.9802 7.40757C10.949 7.37706 10.9242 7.34066 10.9071 7.30048C10.8903 7.26033 10.8813 7.21719 10.8812 7.17357C10.8817 7.11763 10.8966 7.06274 10.9241 7.01406C10.9517 6.96537 10.9912 6.92447 11.0389 6.89518C11.0925 6.86158 11.1545 6.8439 11.2176 6.84418C11.3048 6.84665 11.3877 6.88253 11.4493 6.94439C11.5099 7.00618 11.5442 7.08838 11.5442 7.17418C11.5418 7.25958 11.5071 7.34089 11.4469 7.40159C11.3857 7.46274 11.304 7.4997 11.2176 7.50419Z" fill="url(#paint3_linear_328_22627)"/>
<path d="M8.31641 5.99878L5.69081 8.38019C5.4334 8.61479 5.4808 8.99878 5.8744 8.99878H7.21241L10.3745 5.99878H8.31641Z" fill="url(#paint4_linear_328_22627)"/>
<path d="M12.474 8.99975L13.8539 6.83374L11.6592 8.99975H12.474Z" fill="url(#paint5_linear_328_22627)"/>
</g>
<defs>
<linearGradient id="paint0_linear_328_22627" x1="4.37381" y1="11.9613" x2="19.6269" y2="11.9613" gradientUnits="userSpaceOnUse">
<stop stop-color="#4750D9"/>
<stop offset="0.41" stop-color="#5C45DC"/>
<stop offset="1" stop-color="#8131E1"/>
</linearGradient>
<linearGradient id="paint1_linear_328_22627" x1="4.37334" y1="11.9993" x2="19.6265" y2="11.9993" gradientUnits="userSpaceOnUse">
<stop stop-color="#E96161"/>
<stop offset="0.2" stop-color="#E65B76"/>
<stop offset="0.61" stop-color="#DF4AAC"/>
<stop offset="1" stop-color="#D739E6"/>
</linearGradient>
<linearGradient id="paint2_linear_328_22627" x1="4.34646" y1="11.9995" x2="19.4356" y2="11.9995" gradientUnits="userSpaceOnUse">
<stop stop-color="#B100D3"/>
<stop offset="0.23" stop-color="#9C00C0"/>
<stop offset="0.69" stop-color="#67008E"/>
<stop offset="1" stop-color="#40006A"/>
</linearGradient>
<linearGradient id="paint3_linear_328_22627" x1="4.36691" y1="11.9995" x2="19.6278" y2="11.9995" gradientUnits="userSpaceOnUse">
<stop stop-color="#D0D7D3"/>
<stop offset="0.52" stop-color="#D9C5E8"/>
<stop offset="1" stop-color="#E3B1FF"/>
</linearGradient>
<linearGradient id="paint4_linear_328_22627" x1="4.53254" y1="11.9995" x2="19.6239" y2="11.9995" gradientUnits="userSpaceOnUse">
<stop stop-color="#B277EC"/>
<stop offset="0.77" stop-color="#9336E7"/>
<stop offset="1" stop-color="#8921E6"/>
</linearGradient>
<linearGradient id="paint5_linear_328_22627" x1="11.7962" y1="8.0285" x2="13.9671" y2="8.0285" gradientUnits="userSpaceOnUse">
<stop stop-opacity="0.5"/>
<stop offset="0.1" stop-color="#201322" stop-opacity="0.59"/>
<stop offset="0.25" stop-color="#4A2C4E" stop-opacity="0.72"/>
<stop offset="0.4" stop-color="#6D4173" stop-opacity="0.82"/>
<stop offset="0.55" stop-color="#885190" stop-opacity="0.9"/>
<stop offset="0.85" stop-color="#A664B0"/>
</linearGradient>
<clipPath id="clip0_328_22627">
<rect width="24" height="24" fill="white"/>
</clipPath>
</defs>
</svg>
