<svg width="24" height="24" viewBox="0 0 24 24" fill="none" xmlns="http://www.w3.org/2000/svg">
<g clip-path="url(#clip0_328_22702)">
<path d="M24 0H0V24H24V0Z" fill="url(#paint0_linear_328_22702)"/>
<path fill-rule="evenodd" clip-rule="evenodd" d="M16.2626 3H14.4437L13.5959 7.14002C13.2358 6.99791 12.8521 6.89369 12.4543 6.83686L12.9469 4.42107H9.96263L9.34687 7.41475C8.71913 7.76318 8.17427 8.24339 7.74972 8.82238C7.32519 9.40136 7.03102 10.0653 6.88744 10.7689C6.74388 11.4723 6.75431 12.1986 6.91802 12.8975C7.08171 13.5966 7.39482 14.2519 7.83581 14.8185L6.80791 19.8394C6.77844 19.9789 6.78029 20.1232 6.8134 20.2618C6.8465 20.4005 6.91001 20.53 6.9993 20.641C7.08862 20.7521 7.2015 20.8419 7.32979 20.904C7.45807 20.9661 7.59856 20.9989 7.74108 21H9.5553L10.4648 16.5664C10.839 16.6658 11.2275 16.7226 11.6348 16.7369L11.0521 19.579H14.0364L14.8369 15.6758C15.7641 14.9493 16.403 13.9168 16.6391 12.7626C16.8751 11.6084 16.6929 10.408 16.1253 9.3758L17.1911 4.16527C17.2214 4.02549 17.2202 3.88073 17.1874 3.74151C17.1548 3.60229 17.0913 3.47212 17.0019 3.36049C16.9125 3.24886 16.7994 3.15858 16.6707 3.09621C16.542 3.03386 16.4009 3.00098 16.2579 3H16.2626ZM11.7626 13.8947C12.3281 13.8947 12.8701 13.6702 13.2699 13.2705C13.6697 12.8706 13.8943 12.3285 13.8943 11.7632C13.8943 11.1979 13.6697 10.6556 13.2699 10.2559C12.8701 9.8562 12.3281 9.63159 11.7626 9.63159C11.1974 9.63159 10.6552 9.8562 10.2555 10.2559C9.85564 10.6556 9.63108 11.1979 9.63108 11.7632C9.63108 12.3285 9.85564 12.8706 10.2555 13.2705C10.6552 13.6702 11.1974 13.8947 11.7626 13.8947Z" fill="black"/>
</g>
<defs>
<linearGradient id="paint0_linear_328_22702" x1="14.9788" y1="6.00001" x2="4.77353" y2="13.269" gradientUnits="userSpaceOnUse">
<stop stop-color="#77D8FE"/>
<stop offset="1" stop-color="#4FDF9D"/>
</linearGradient>
<clipPath id="clip0_328_22702">
<rect width="24" height="24" fill="white"/>
</clipPath>
</defs>
</svg>
