<svg width="24" height="24" viewBox="0 0 24 24" fill="none" xmlns="http://www.w3.org/2000/svg">
<g clip-path="url(#clip0_328_28725)">
<path d="M24 0H0V24H24V0Z" fill="#7733FF"/>
<path d="M7.10268 6.34317C7.10866 6.36815 7.1199 6.39155 7.13566 6.4118C7.15141 6.43206 7.17131 6.4487 7.19403 6.46064C7.21676 6.47256 7.24178 6.4795 7.26739 6.48096C7.29301 6.48243 7.31866 6.4784 7.34259 6.46915L16.1413 4.20199C16.3513 4.15401 16.3272 3.86012 16.1052 3.84212L6.44892 3.00242C6.31098 2.99644 6.20902 3.11038 6.245 3.23035L7.10268 6.34918V6.34317ZM7.98436 11.8851L6.70083 7.27284L6.53289 6.67307L5.84315 4.21998C5.79516 4.04004 5.53126 4.04004 5.47729 4.21998L3.0062 13.0606C2.97021 13.1987 3.09617 13.3246 3.24612 13.2886L7.8464 12.1071C7.94237 12.089 8.00235 11.9872 7.97835 11.8851H7.98436ZM17.9646 4.37591C18.2345 4.30395 18.5346 4.4239 18.6783 4.65781L20.9755 8.49639C21.0355 8.59235 20.9814 8.73028 20.8555 8.76623L8.848 11.8432C8.82407 11.8524 8.79846 11.8564 8.77285 11.855C8.74724 11.8535 8.72219 11.8467 8.69951 11.8346C8.67669 11.8227 8.65682 11.806 8.64115 11.7858C8.62534 11.7657 8.61414 11.742 8.60812 11.7172L7.37857 7.29084C7.34259 7.18887 7.40257 7.0869 7.51053 7.06292L17.9646 4.37591ZM8.24825 12.8387C8.24159 12.8144 8.22986 12.7915 8.21381 12.772C8.19775 12.7524 8.17775 12.7364 8.15512 12.7252C8.13247 12.7139 8.1077 12.7075 8.08241 12.7063C8.05711 12.7053 8.03188 12.7095 8.00834 12.7189L3.40805 13.9003C3.27012 13.9303 3.21613 14.1103 3.31809 14.2003L10.0836 20.7559C10.2274 20.8878 10.4554 20.7618 10.4135 20.5759L8.25425 12.8448L8.24825 12.8387ZM9.00403 12.449L20.4598 9.49802C20.6456 9.45604 20.7776 9.65392 20.6636 9.79792L11.487 20.9298C11.3911 21.0497 11.1991 21.0017 11.1511 20.8577L8.87207 12.6768C8.8361 12.5807 8.90202 12.4789 9.00403 12.449Z" fill="white"/>
</g>
<defs>
<clipPath id="clip0_328_28725">
<rect width="24" height="24" fill="white"/>
</clipPath>
</defs>
</svg>
