<svg width="24" height="24" viewBox="0 0 24 24" fill="none" xmlns="http://www.w3.org/2000/svg">
<g clip-path="url(#clip0_328_28847)">
<path d="M24 0H0V24H24V0Z" fill="black"/>
<path fill-rule="evenodd" clip-rule="evenodd" d="M5.37939 4H18.6208L17.3683 8.9655H11.4483V11.7241H17.1532L16.0772 16.1379H11.4483V20H5.37939V4ZM11.4483 15.5862H15.6415L16.447 12.2758H11.4483V15.5862ZM10.8967 11.7241V8.82758L5.93113 4.82758V11.7241H10.8967ZM5.93113 12.5296V19.4482H10.8967V16.0054L5.93113 12.5296ZM10.8967 15.3325V12.2758H6.53251L10.8967 15.3325ZM6.48285 4.55172H10.8967V8.13793L6.48285 4.55172ZM11.4483 8.41378H16.9491L17.9035 4.55172H11.4483V8.41378Z" fill="white"/>
</g>
<defs>
<clipPath id="clip0_328_28847">
<rect width="24" height="24" fill="white"/>
</clipPath>
</defs>
</svg>
