<svg width="24" height="24" viewBox="0 0 24 24" fill="none" xmlns="http://www.w3.org/2000/svg">
<g clip-path="url(#clip0_328_26128)">
<path d="M24 0H0V24H24V0Z" fill="#203259"/>
<path d="M11.4986 8.85028C8.76006 13.0929 7.08868 18.9942 6.43299 21C6.06656 17.2201 8.01437 12.0709 9.43505 9.03028C8.77293 9.05599 5.57801 9.38383 3.64307 11.4024C3.64307 11.4024 4.40804 8.0853 10.4314 7.09534L10.4507 7.05675C15.1693 0.0626552 18.7177 4.23468 18.7177 4.23468C16.5642 3.8747 14.6869 4.96752 13.0864 6.74176C13.8643 6.70319 18.9042 6.64535 20.3569 10.6824C20.3569 10.6824 17.4383 8.561 11.4986 8.85028ZM14.9056 13.7102C14.6185 13.708 14.3338 13.7638 14.0687 13.8742C13.8036 13.9847 13.5636 14.1476 13.3629 14.3529C12.9513 14.7736 12.7226 15.3397 12.7264 15.9278C12.7235 16.2894 12.8095 16.6459 12.977 16.9662C13.1448 17.2863 13.3888 17.5603 13.6876 17.7637C13.9863 17.9671 14.3306 18.0937 14.6898 18.1323C15.0492 18.171 15.4125 18.1203 15.7478 17.9851C16.0151 17.8736 16.2574 17.7098 16.4606 17.5034C16.6637 17.2968 16.8234 17.0519 16.9305 16.7828C17.0738 16.4482 17.1321 16.0833 17.0999 15.7206C17.0678 15.3579 16.9464 15.0087 16.7465 14.7045C16.5465 14.4002 16.2744 14.1501 15.9543 13.9766C15.6342 13.803 15.2762 13.7116 14.9119 13.7102H14.9056Z" fill="white"/>
</g>
<defs>
<clipPath id="clip0_328_26128">
<rect width="24" height="24" fill="white"/>
</clipPath>
</defs>
</svg>
