<svg width="24" height="24" viewBox="0 0 24 24" fill="none" xmlns="http://www.w3.org/2000/svg">
<g clip-path="url(#clip0_328_36073)">
<path d="M24 0H0V24H24V0Z" fill="#FFAC43"/>
<path d="M19.9451 7.42375C19.8302 7.22492 19.5742 7.15941 19.378 7.27865L8.8482 13.6857C8.57981 13.1836 8.42773 12.6098 8.42773 12.0004C8.42773 10.0218 10.0306 8.41786 12.0077 8.41786C12.8568 8.41786 13.6362 8.7144 14.2499 9.2084L12.0098 10.7471L17.8315 7.38385C17.9569 7.31153 17.9999 7.15079 17.9272 7.02565C17.8507 6.89325 17.6781 6.85403 17.5518 6.94063L16.1264 7.91979C15.0759 6.85788 13.619 6.2002 12.0077 6.2002C8.80656 6.2002 6.21137 8.79692 6.21137 12.0004C6.21137 13.0317 6.48067 13.9999 6.95227 14.8392L4 16.6354L7.03125 14.975C8.04347 16.6672 9.89324 17.8003 12.008 17.8003C15.2092 17.8003 17.8043 15.2035 17.8043 12.0001V11.3075C17.8043 10.765 18.0243 10.0707 18.8041 9.65275C18.8709 9.61693 18.8951 9.53304 18.8573 9.46707C18.8202 9.40291 18.7383 9.3807 18.6742 9.41788L11.762 13.4114C12.5337 13.0831 13.1234 12.8836 13.9052 12.7265C15.5339 12.3991 15.5753 13.1761 14.9464 14.0525C14.5253 14.6393 13.5739 15.5817 12.0089 15.5817C10.7326 15.5817 9.61285 14.9136 8.97877 13.9079L19.7872 7.98757C19.9888 7.87739 20.0598 7.6228 19.9451 7.42375Z" fill="white"/>
</g>
<defs>
<clipPath id="clip0_328_36073">
<rect width="24" height="24" fill="white"/>
</clipPath>
</defs>
</svg>
