<svg width="24" height="24" viewBox="0 0 24 24" fill="none" xmlns="http://www.w3.org/2000/svg">
<g clip-path="url(#clip0_328_22736)">
<path d="M24 0H0V24H24V0Z" fill="url(#paint0_linear_328_22736)"/>
<path d="M14.6991 9.78129C14.2511 9.74396 14.0431 9.72803 13.6217 9.96263C11.6284 11.0613 9.63708 12.1636 7.64778 13.2697C7.3499 13.451 7.02869 13.591 6.69302 13.6858C5.18354 14.0003 3.84474 12.5656 4.38879 11.1681C4.66615 10.4534 5.09821 10.2347 5.86094 9.81328C9.12527 7.9998 12.395 6.19696 15.6699 4.39945C16.6834 3.84473 17.6487 3.86606 18.5768 4.47412C19.1011 4.79793 19.4824 5.30898 19.6437 5.90359C19.7076 6.14895 19.7396 6.597 19.7343 7.23706V17.7928C19.7343 18.8969 19.0036 19.953 17.8247 19.9957C17.5047 20.0062 17.1848 20.0062 16.8913 19.8889C16.4775 19.6884 16.1263 19.3787 15.8754 18.9934C15.6243 18.6081 15.4834 18.1617 15.4673 17.7021V11.0668C15.4673 10.5173 15.3926 10.1066 14.9072 9.84004C14.8427 9.80606 14.7719 9.78602 14.6991 9.78129Z" fill="white"/>
<path d="M10.8215 19.601C9.78689 19.3649 8.83008 18.8672 8.04266 18.1556C7.86665 17.9955 7.66929 17.8141 7.62662 17.5901C7.55194 17.2168 7.82931 17.0354 8.13334 16.8647L10.7895 15.3819C11.1203 15.1953 11.547 15.3073 11.6963 15.6486C11.7337 15.7286 11.7337 15.862 11.7337 16.0593V18.8649C11.7337 19.1049 11.7016 19.2757 11.6376 19.3769C11.4616 19.6597 11.1469 19.681 10.8215 19.601Z" fill="white"/>
<path d="M14.6351 9.7759C14.2298 9.73857 14.0217 9.73857 13.6217 9.96259C11.6284 11.0613 9.63708 12.1636 7.64778 13.2696C7.3499 13.451 7.02869 13.591 6.69302 13.6857C5.18354 14.0004 3.84474 12.5656 4.38879 11.168C4.58615 10.6614 4.8635 10.4052 5.27955 10.1439C8.10651 9.22123 12.6403 8.26647 14.6351 9.77055V9.7759Z" fill="white"/>
<path d="M14.5284 9.76591L14.6991 9.78184C14.7844 9.78719 14.8591 9.80848 14.9124 9.83524C15.3391 10.0752 15.4458 10.39 15.4619 10.838C15.5311 6.54954 12.1227 6.85358 10.8746 7.04026L5.86082 9.81383L5.78615 9.85652C5.59946 9.95782 5.43411 10.0486 5.2901 10.1393C8.09037 9.21647 12.5548 8.27238 14.5284 9.76591Z" fill="white"/>
</g>
<defs>
<linearGradient id="paint0_linear_328_22736" x1="12.0002" y1="3.99941" x2="12.0002" y2="20.0009" gradientUnits="userSpaceOnUse">
<stop stop-color="#4AF78B"/>
<stop offset="1" stop-color="#23BFEF"/>
</linearGradient>
<clipPath id="clip0_328_22736">
<rect width="24" height="24" fill="white"/>
</clipPath>
</defs>
</svg>
