<svg width="24" height="24" viewBox="0 0 24 24" fill="none" xmlns="http://www.w3.org/2000/svg">
<g clip-path="url(#clip0_328_52459)">
<path d="M24 0H0V24H24V0Z" fill="url(#paint0_linear_328_52459)"/>
<path d="M16.8586 8.2352C16.8586 8.48222 16.627 8.65721 16.3747 8.63147C15.7572 8.56972 15.1911 8.57487 14.666 8.63147C13.5133 8.74983 12.5561 9.13582 11.676 9.46519L11.5166 9.52174C10.5799 9.87182 9.71529 10.1651 8.69114 10.1909C8.27942 10.2012 7.84198 10.1651 7.3582 10.0672C7.15262 10.0214 6.96482 9.91671 6.8177 9.76584C6.67058 9.61517 6.5705 9.42484 6.52964 9.21816C6.38934 8.50392 6.40017 7.76821 6.56142 7.05839C6.72267 6.3486 7.03078 5.68042 7.4659 5.09689C7.90102 4.51336 8.45352 4.02743 9.08782 3.67035C9.72213 3.31329 10.4241 3.09301 11.1487 3.02369C11.8734 2.95438 12.6044 3.03755 13.2948 3.26788C13.9853 3.49821 14.62 3.8706 15.1579 4.36103C15.6958 4.85148 16.125 5.44913 16.4178 6.11548C16.7108 6.78185 16.8609 7.50217 16.8586 8.23005V8.2352Z" fill="white"/>
<path d="M6.94637 10.8225C6.87702 10.8078 6.80533 10.8078 6.73597 10.8224C6.66662 10.8372 6.60114 10.8663 6.54384 10.9081C6.48653 10.9499 6.43867 11.0033 6.40339 11.0648C6.36811 11.1263 6.34621 11.1947 6.33909 11.2651C6.33396 11.3424 6.34938 11.4196 6.39056 11.5017L11.2899 20.8837C11.3722 21.0382 11.5936 21.0382 11.6759 20.8837L17.584 10.5291C17.6407 10.4211 17.6664 10.3028 17.6612 10.1895C17.6509 9.92183 17.4708 9.67485 17.1775 9.6183C16.2872 9.43817 15.4276 9.42267 14.7534 9.48956C13.7139 9.59764 12.8493 9.91665 11.9539 10.2512L11.8149 10.3028C10.8296 10.7197 9.77975 10.9635 8.7116 11.0234C8.14548 11.0387 7.60511 10.977 6.94637 10.8174V10.8225Z" fill="white"/>
<path d="M11.4858 10.5498C11.4858 10.4365 11.5528 10.3439 11.6556 10.3028L11.7997 10.2512C12.7491 9.87627 13.7414 9.62046 14.7538 9.48956C15.428 9.42267 16.2874 9.43817 17.1778 9.6183C17.4865 9.68001 17.6718 9.95277 17.6615 10.2358C17.6615 10.3388 17.6307 10.4365 17.5843 10.5291L11.6762 20.8837C11.6581 20.9185 11.6307 20.9474 11.597 20.9674C11.5635 20.9874 11.5249 20.9976 11.4858 20.997V10.5498Z" fill="white"/>
</g>
<defs>
<linearGradient id="paint0_linear_328_52459" x1="14.2869" y1="9.737" x2="14.2869" y2="19.9976" gradientUnits="userSpaceOnUse">
<stop stop-color="#FFC4A4"/>
<stop offset="1" stop-color="#FE858C"/>
</linearGradient>
<clipPath id="clip0_328_52459">
<rect width="24" height="24" fill="white"/>
</clipPath>
</defs>
</svg>
