<svg width="24" height="24" viewBox="0 0 24 24" fill="none" xmlns="http://www.w3.org/2000/svg">
<g clip-path="url(#clip0_328_52804)">
<path d="M24 0H0V24H24V0Z" fill="#01C696"/>
<path d="M12.5625 10.875V9.18748L9.74993 12L12.5625 14.8125V13.125H17.6616L12.2571 18.3516L5.72418 12L12.2564 5.64824L15.7174 9.01312C15.9291 9.21898 16.2159 9.33429 16.5152 9.33429C16.8144 9.33429 17.1012 9.21898 17.3134 9.01368C17.5248 8.80724 17.6436 8.52824 17.6436 8.23743C17.6436 7.94662 17.5248 7.66762 17.3134 7.46174L13.0547 3.32175C12.8406 3.11475 12.5542 2.99935 12.2564 3C11.9571 3 11.6704 3.11533 11.4589 3.32119L3.33075 11.2243C3.22642 11.3249 3.14338 11.4454 3.08656 11.5788C3.02975 11.7121 3.0003 11.8556 3 12.0005C3 12.2908 3.11868 12.5699 3.33019 12.7756L11.4589 20.6787C11.6704 20.8846 11.9578 21 12.2564 21C12.5556 21 12.8431 20.8846 13.0547 20.6787L20.4926 13.4468C20.8014 13.1536 21 12.7768 21 12.3358C21 11.8941 20.8014 11.5174 20.4835 11.2154C20.2726 11.0151 19.9896 10.875 19.695 10.875H12.5625Z" fill="white"/>
</g>
<defs>
<clipPath id="clip0_328_52804">
<rect width="24" height="24" fill="white"/>
</clipPath>
</defs>
</svg>
