<svg width="24" height="24" viewBox="0 0 24 24" fill="none" xmlns="http://www.w3.org/2000/svg">
<g clip-path="url(#clip0_328_45388)">
<path d="M24 0H0V24H24V0Z" fill="url(#paint0_linear_328_45388)"/>
<path fill-rule="evenodd" clip-rule="evenodd" d="M15.2004 7.19996L12.0044 4L8.80054 7.19996H15.2004ZM13.9285 6.67997L12.0044 4.74799L10.0726 6.67597H13.9285V6.67997Z" fill="white"/>
<path fill-rule="evenodd" clip-rule="evenodd" d="M15.2004 16.7998L12.0044 19.9998L8.80054 16.7998H15.2004ZM13.9285 17.3198L12.0044 19.2518L10.0726 17.3238H13.9285V17.3198Z" fill="white"/>
<path fill-rule="evenodd" clip-rule="evenodd" d="M7.20021 8.7998L4.00024 11.9958L7.20021 15.1997V8.7998ZM6.68021 10.0718L4.74824 11.9958L6.67621 13.9278V10.0718H6.68021Z" fill="white"/>
<path fill-rule="evenodd" clip-rule="evenodd" d="M16.7998 8.81553L19.9998 12.0115L16.7998 15.2115V8.81152V8.81553ZM17.3198 10.0875L19.2518 12.0115L17.3238 13.9435V10.0875H17.3198Z" fill="white"/>
<path d="M7.19971 15.172V16.8001H8.82769L7.19971 15.172ZM15.1716 16.8001H16.7996V15.172L15.1716 16.8001ZM16.7996 8.82818V7.2002H15.1716L16.7996 8.82818ZM8.82769 7.2002H7.19971V8.82818L8.82769 7.2002Z" fill="white"/>
<path d="M10.7885 12.7317L11.0284 12.9678C11.2992 13.2378 11.666 13.3896 12.0485 13.3896C12.4308 13.3896 12.7976 13.2378 13.0683 12.9678L14.3764 11.6598C14.6468 11.3892 14.7988 11.0223 14.7988 10.6398C14.7988 10.2572 14.6468 9.89028 14.3764 9.61976C14.1058 9.34925 13.7389 9.19727 13.3563 9.19727C12.9737 9.19727 12.6068 9.34925 12.3363 9.61976L11.6444 10.3118C11.8604 10.2717 12.3604 10.2517 12.6483 10.4478L12.9003 10.1957C13.0229 10.0802 13.1858 10.017 13.3543 10.0195C13.5228 10.022 13.6836 10.0901 13.8028 10.2093C13.922 10.3284 13.99 10.4893 13.9926 10.6578C13.9951 10.8262 13.9318 10.989 13.8164 11.1117L12.4803 12.4398C12.2484 12.6678 11.8805 12.6678 11.6444 12.4398C11.5884 12.3798 11.4645 12.1997 11.4444 12.0678L10.7885 12.7277V12.7317ZM13.2123 11.2678L12.9724 11.0318C12.7016 10.7615 12.3348 10.6098 11.9524 10.6098C11.5699 10.6098 11.2031 10.7615 10.9325 11.0318L9.6244 12.3397C9.35387 12.6103 9.2019 12.9772 9.2019 13.3598C9.2019 13.7423 9.35387 14.1092 9.6244 14.3797C9.89491 14.6502 10.2619 14.8022 10.6445 14.8022C11.027 14.8022 11.3939 14.6502 11.6644 14.3797L12.3564 13.6878C12.1403 13.7278 11.6404 13.7478 11.3525 13.5518L11.1005 13.8038C10.9777 13.9193 10.8149 13.9825 10.6464 13.9799C10.4779 13.9774 10.3171 13.9094 10.1979 13.7902C10.0788 13.6711 10.0107 13.5102 10.0082 13.3418C10.0057 13.1733 10.0689 13.0104 10.1844 12.8878L11.5205 11.5557C11.6314 11.4451 11.7817 11.383 11.9384 11.383C12.095 11.383 12.2454 11.4451 12.3564 11.5557C12.4124 11.6157 12.5363 11.7958 12.5564 11.9278L13.2123 11.2678Z" fill="white"/>
</g>
<defs>
<linearGradient id="paint0_linear_328_45388" x1="12" y1="4" x2="12" y2="19.9999" gradientUnits="userSpaceOnUse">
<stop stop-color="#BD8E3C"/>
<stop offset="1" stop-color="#EBCF66"/>
</linearGradient>
<clipPath id="clip0_328_45388">
<rect width="24" height="24" fill="white"/>
</clipPath>
</defs>
</svg>
