<svg width="24" height="24" viewBox="0 0 24 24" fill="none" xmlns="http://www.w3.org/2000/svg">
<g clip-path="url(#clip0_328_51793)">
<path d="M24 0H0V24H24V0Z" fill="white"/>
<path d="M9.40154 3.00361C10.4925 3.00361 11.3868 3.28479 12.0448 3.7347V3.74034C12.9298 3.22166 13.9441 2.96609 14.9692 3.00361C17.3874 3.00361 19.8732 4.48831 19.8732 7.13152C19.8521 7.82111 19.662 8.49499 19.3198 9.09407C18.9776 9.69313 18.4937 10.1991 17.9104 10.5678C18.9171 11.0458 19.8958 12.0581 19.8732 13.2335C19.8507 14.2457 19.0296 14.9993 18.4109 15.7249L18.4167 15.7305C18.8946 16.3772 19.3501 16.9957 19.8732 17.5751L19.8225 18.2837C19.7518 19.0022 19.4215 19.6706 18.8936 20.1633C18.3657 20.656 17.6762 20.9395 16.9544 20.9606C16.0096 20.9606 15.3179 20.3757 14.8848 19.9371C14.6486 20.2239 14.4462 20.5164 14.2323 20.8313L13.5238 20.9606C13.1571 21.0227 12.7813 21.0083 12.4203 20.9183C12.0593 20.8282 11.7209 20.6645 11.4261 20.4376C10.8356 20.6906 9.96398 21 9.18784 21C6.2072 21 4.12637 18.3792 4.12637 15.5054C4.12637 13.7902 4.80123 12.4911 5.80789 11.6363C5.2749 11.1708 4.84873 10.5954 4.55851 9.95002C4.26831 9.30457 4.12089 8.60404 4.12637 7.89637C4.12637 5.12942 6.74146 3.00361 9.40154 3.00361Z" fill="url(#paint0_linear_328_51793)"/>
<path d="M13.8842 15.6293L12.4784 17.4008C12.3557 17.5388 12.2691 17.7049 12.2259 17.8845C12.1827 18.064 12.1845 18.2512 12.2309 18.43C12.3883 19.0485 12.9788 19.386 13.4118 19.3017C13.4849 19.1892 14.2104 18.295 15.0878 17.2321L16.1337 18.818C16.2295 18.9867 16.55 19.313 17.0617 19.313C17.6971 19.313 18.1584 18.818 18.1865 18.3794C18.0854 18.2669 17.2754 16.9565 16.3587 15.6857L17.7141 14.0433C17.8546 13.8747 18.0965 13.4247 17.9672 12.9186C17.8154 12.3 17.0842 12.0075 16.7524 12.002L15.1553 14.0209C14.8009 13.5204 14.4692 12.9074 14.1992 12.5249C14.0699 12.3561 13.693 12.002 13.1869 12.002C12.5514 12.002 12.0846 12.6431 12.0002 12.9636L13.8842 15.6293Z" fill="url(#paint1_linear_328_51793)"/>
<path d="M14.2499 9.75188V11.9115C14.07 11.9397 13.9238 12.0013 13.547 12.0013C12.7371 12.0013 12.5515 11.4392 12.5627 11.1579V5.53402H12.5741C12.6584 5.21345 13.2151 4.69043 14.9755 4.69043C17.3262 4.69043 18.1867 5.98391 18.1867 7.2493C18.1948 7.58495 18.1336 7.91866 18.0072 8.22969C17.8806 8.54071 17.6915 8.82236 17.4515 9.05712C17.2116 9.29188 16.9257 9.47471 16.6119 9.59425C16.2982 9.7138 15.9633 9.76752 15.6278 9.75188H14.2499ZM14.2499 8.06474H15.6109C16.0889 8.06474 16.4996 7.70482 16.4996 7.22117C16.4996 6.73751 16.0889 6.37759 15.6109 6.37759H14.2499V8.06474Z" fill="url(#paint2_linear_328_51793)"/>
<path d="M11.758 5.47766C11.758 5.85446 11.3756 6.20314 11.1844 6.33249C10.6686 6.01113 10.0766 5.83257 9.46907 5.81508C8.53555 5.81508 7.21957 6.53493 7.21957 7.73845C7.21957 9.44244 8.62553 9.75177 9.26104 9.75177C9.57037 9.75177 10.1833 9.63927 10.3126 9.57747V6.93987H11.398C11.7299 6.93987 11.9998 7.20419 11.9998 7.52474V10.1736C11.9998 10.6798 11.578 11.439 9.25541 11.439C6.93838 11.439 5.25122 9.99927 5.25122 7.73845C5.25122 5.47766 7.47827 4.12793 9.26104 4.12793C11.0382 4.12793 11.758 5.01089 11.758 5.47766Z" fill="url(#paint3_linear_328_51793)"/>
<path d="M11.4374 13.2111C11.4374 13.661 11.0776 14.0265 10.9032 14.1559C10.4265 13.8371 9.86249 13.6739 9.28916 13.689C8.31059 13.689 7.21957 14.5326 7.21957 15.5674C7.21957 17.2209 8.72114 17.6257 9.4129 17.6257C9.97533 17.6257 10.7064 17.4008 10.9932 17.249C11.1451 17.3952 11.4374 17.7777 11.4374 18.132C11.4374 18.5761 10.9932 19.313 9.13168 19.313C7.2758 19.313 5.25122 18.2838 5.25122 15.5674C5.25122 12.8568 7.55701 12.002 9.03608 12.002C10.5208 12.002 11.4374 12.6486 11.4374 13.2111Z" fill="url(#paint4_linear_328_51793)"/>
<path d="M9.46962 9.18987C10.2462 9.18987 10.8757 8.5604 10.8757 7.7839C10.8757 7.00741 10.2462 6.37793 9.46962 6.37793C8.69319 6.37793 8.06372 7.00741 8.06372 7.7839C8.06372 8.5604 8.69319 9.18987 9.46962 9.18987Z" fill="url(#paint5_linear_328_51793)"/>
<path d="M9.46998 8.94202C10.1098 8.94202 10.6286 8.42334 10.6286 7.7835C10.6286 7.14367 10.1098 6.625 9.46998 6.625C8.83021 6.625 8.31152 7.14367 8.31152 7.7835C8.31152 8.42334 8.83021 8.94202 9.46998 8.94202Z" fill="#010002"/>
<path d="M8.91816 7.68282C8.80007 7.80655 8.86755 8.06524 8.91816 8.17772H9.1656C9.26122 8.17772 9.39051 8.40268 9.66057 8.40268C9.93045 8.40268 10.1498 7.93027 10.1498 7.76155C10.1498 7.62096 9.89118 7.57035 9.75607 7.56472C9.81243 7.45224 9.92482 7.22729 9.92482 7.17105C9.92482 7.09231 9.8292 6.91797 9.70545 6.91797C9.58184 6.91797 9.60992 7.04171 9.60992 7.16544C9.60992 7.26666 9.34557 7.55911 9.21623 7.68282H8.91816Z" fill="#92C30F"/>
<path d="M9.46962 17.063C10.2462 17.063 10.8757 16.4335 10.8757 15.6569C10.8757 14.8805 10.2462 14.251 9.46962 14.251C8.69319 14.251 8.06372 14.8805 8.06372 15.6569C8.06372 16.4335 8.69319 17.063 9.46962 17.063Z" fill="url(#paint6_linear_328_51793)"/>
<path d="M9.46998 16.8151C10.1098 16.8151 10.6286 16.2964 10.6286 15.6566C10.6286 15.0168 10.1098 14.498 9.46998 14.498C8.83021 14.498 8.31152 15.0168 8.31152 15.6566C8.31152 16.2964 8.83021 16.8151 9.46998 16.8151Z" fill="#010002"/>
<path d="M8.91816 15.759C8.80007 15.6352 8.86755 15.3766 8.91816 15.264H9.1656C9.26122 15.264 9.39051 15.0391 9.66057 15.0391C9.93045 15.0391 10.1498 15.5115 10.1498 15.6802C10.1498 15.8207 9.89118 15.8713 9.75607 15.8771C9.81243 15.9895 9.92482 16.2144 9.92482 16.2707C9.92482 16.3495 9.8292 16.5237 9.70545 16.5237C9.58184 16.5237 9.60992 16.4001 9.60992 16.2763C9.60992 16.175 9.34557 15.8827 9.21623 15.759H8.91816Z" fill="#E2070F"/>
</g>
<defs>
<linearGradient id="paint0_linear_328_51793" x1="5.25113" y1="11.9962" x2="19.8563" y2="11.9962" gradientUnits="userSpaceOnUse">
<stop stop-color="#D40E4C"/>
<stop offset="1" stop-color="#652584"/>
</linearGradient>
<linearGradient id="paint1_linear_328_51793" x1="4.12672" y1="12.0396" x2="19.8741" y2="12.0396" gradientUnits="userSpaceOnUse">
<stop stop-color="#F6E526"/>
<stop offset="1" stop-color="#F39803"/>
</linearGradient>
<linearGradient id="paint2_linear_328_51793" x1="4.12816" y1="12.0411" x2="19.8722" y2="12.0411" gradientUnits="userSpaceOnUse">
<stop stop-color="#F6E526"/>
<stop offset="1" stop-color="#F39803"/>
</linearGradient>
<linearGradient id="paint3_linear_328_51793" x1="4.1263" y1="12.041" x2="19.8736" y2="12.041" gradientUnits="userSpaceOnUse">
<stop stop-color="#F6E526"/>
<stop offset="1" stop-color="#F39803"/>
</linearGradient>
<linearGradient id="paint4_linear_328_51793" x1="4.1263" y1="12.0416" x2="19.8736" y2="12.0416" gradientUnits="userSpaceOnUse">
<stop stop-color="#F6E526"/>
<stop offset="1" stop-color="#F39803"/>
</linearGradient>
<linearGradient id="paint5_linear_328_51793" x1="4.12686" y1="12.036" x2="19.8742" y2="12.036" gradientUnits="userSpaceOnUse">
<stop stop-color="#F6E526"/>
<stop offset="1" stop-color="#F39803"/>
</linearGradient>
<linearGradient id="paint6_linear_328_51793" x1="4.12686" y1="12.0357" x2="19.8742" y2="12.0357" gradientUnits="userSpaceOnUse">
<stop stop-color="#F6E526"/>
<stop offset="1" stop-color="#F39803"/>
</linearGradient>
<clipPath id="clip0_328_51793">
<rect width="24" height="24" fill="white"/>
</clipPath>
</defs>
</svg>
