<svg width="24" height="24" viewBox="0 0 24 24" fill="none" xmlns="http://www.w3.org/2000/svg">
<g clip-path="url(#clip0_328_51719)">
<path d="M24 0H0V24H24V0Z" fill="#F8F24F"/>
<path fill-rule="evenodd" clip-rule="evenodd" d="M20 11.9999C20 16.4182 16.4182 20 11.9999 20C7.58171 20 4 16.4182 4 11.9999C4 7.5817 7.58171 4 11.9999 4C16.4182 4 20 7.5817 20 11.9999ZM15.5635 8.50864C15.6078 8.63518 15.6488 8.75293 15.6905 8.84966C15.7135 8.76938 15.737 8.6841 15.7614 8.59542C15.9799 7.80022 16.2742 6.72907 17.0705 6.49966C17.3604 7.75466 16.9754 9.18966 16.5204 10.3546C16.5089 10.3841 16.4972 10.4138 16.4855 10.4435C16.2822 10.9633 16.0686 11.5091 15.5104 11.6747L14.7754 9.41466H14.6805C14.6155 10.1697 14.2804 11.2397 13.5804 11.5796C12.9254 10.3047 12.2305 8.71966 12.5705 7.25466C13.3083 7.46906 13.5193 8.4392 13.6692 9.12885L13.6705 9.13466H13.7654C13.8505 8.73466 14.2355 7.13966 14.8505 7.38466C15.2225 7.53192 15.4113 8.07262 15.5635 8.50864ZM6.87794 11.8585L6.87547 11.8596L6.88048 11.8646L6.87794 11.8585ZM8.16548 9.41466C8.04061 10.2538 7.66625 11.4722 6.87794 11.8585C6.35775 10.5787 7.06256 7.22865 8.35047 6.59966L9.08046 8.84966H9.17546C9.17754 8.84017 9.17973 8.83014 9.18202 8.8196C9.28497 8.34673 9.61312 6.83966 10.1804 6.83966C10.4935 6.83966 10.6938 7.39583 10.8054 7.70549C10.8203 7.74694 10.8336 7.78397 10.8454 7.81466C11.2354 8.84465 11.5355 10.0096 11.2855 11.1097C10.645 10.7894 10.4181 9.96938 10.2288 9.28546C10.2143 9.23261 10.1998 9.18058 10.1854 9.12966H10.0905C10.0454 9.58466 9.72052 11.0146 9.09046 10.9297C8.60046 10.8646 8.35047 9.8197 8.25547 9.41466H8.16548ZM14.8655 17.8946C10.8804 19.7046 6.46048 17.2746 5.50048 12.9896C5.68992 12.9322 5.89011 12.9194 6.08532 12.9523C6.28052 12.9854 6.46542 13.0631 6.62548 13.1797C6.86868 13.371 7.02287 13.6928 7.16664 13.9927C7.20315 14.0689 7.23901 14.1437 7.27547 14.2146C7.65673 14.923 8.17713 15.5472 8.80547 16.0497C11.5504 18.3346 15.4454 17.0696 16.8905 14.2146L16.0905 14.1497C15.9855 14.1446 15.8904 14.0897 15.8305 14.0097C15.7654 13.9246 15.7355 13.8146 15.7504 13.7146C15.7562 13.679 15.7705 13.6453 15.7923 13.6165C15.8141 13.5878 15.8427 13.5648 15.8755 13.5496C16.3504 13.3346 18.2454 12.5196 18.4404 13.0196C18.625 13.4928 18.335 14.1361 18.1591 14.5258C18.1492 14.5479 18.1395 14.5692 18.1304 14.5896C17.4654 16.0646 16.3154 17.2346 14.8655 17.8946Z" fill="white"/>
</g>
<defs>
<clipPath id="clip0_328_51719">
<rect width="24" height="24" fill="white"/>
</clipPath>
</defs>
</svg>
