<svg width="24" height="24" viewBox="0 0 24 24" fill="none" xmlns="http://www.w3.org/2000/svg">
<g clip-path="url(#clip0_328_45609)">
<path d="M24 0H0V24H24V0Z" fill="#24DDF9"/>
<path d="M14.4565 4C11.6425 4 9.30098 6.21398 8.99998 8.99998C6.2125 9.30098 4 11.642 4 14.456C4.00066 15.926 4.5849 17.3357 5.62434 18.3752C6.66379 19.4148 8.07342 19.9992 9.54348 20C12.3574 20 14.709 17.7859 14.9999 14.9999C17.787 14.6989 20 12.358 20 9.54398C19.9993 8.07392 19.415 6.66424 18.3755 5.6247C17.3362 4.58516 15.9265 4.00079 14.4565 4ZM18.9999 9.99995C18.7239 11.812 16.815 13.7234 14.9999 14V9.99995H18.9999ZM4.99999 14C5.27299 12.1785 7.17898 10.278 8.99998 9.99995V14H4.99999ZM14 14.9999C13.695 17.0699 11.6325 19.0019 9.54348 18.9999C7.44049 19.0019 5.306 17.075 4.99999 14.9999H14ZM14 9.99995V14H9.99995V9.99995H14ZM18.9999 8.99998H9.99995C10.3064 6.92149 12.356 4.99798 14.4565 4.99999C16.557 4.99798 18.6934 6.92199 18.9999 8.99998Z" fill="black"/>
</g>
<defs>
<clipPath id="clip0_328_45609">
<rect width="24" height="24" fill="white"/>
</clipPath>
</defs>
</svg>
