<svg width="24" height="24" viewBox="0 0 24 24" fill="none" xmlns="http://www.w3.org/2000/svg">
<g clip-path="url(#clip0_328_33665)">
<path d="M24 0H0V24H24V0Z" fill="#4393EA"/>
<path fill-rule="evenodd" clip-rule="evenodd" d="M7.48896 7.24268L5.24014 10.3045L5.15364 10.4169C4.69091 11.0484 4.23682 11.6581 4.07248 12.4582C4.01626 12.7479 3.99031 13.0421 4.00328 13.3318C4.06383 15.1049 5.39582 16.7569 7.50625 16.7569C9.95833 16.7569 11.3293 14.5211 10.9054 12.4582C10.7411 11.6581 10.2913 11.0484 9.82427 10.4169L9.73777 10.3045L7.48896 7.24268ZM9.84157 10.871C9.10638 9.73367 7.60573 7.8438 7.60573 7.8438C7.22671 8.66647 6.80817 9.47035 6.35158 10.2526C5.98831 10.8667 5.57314 11.3338 5.21419 11.7447C4.44873 12.6183 3.89084 13.254 4.38818 14.534C5.07148 16.2898 6.89216 16.9342 8.34092 16.199C10.114 15.2994 10.9358 12.5577 9.84157 10.871Z" fill="white"/>
<path d="M12.2158 11.5684V12.0009H12.6483V15.0281H13.0808V13.5144H14.8107V15.0281H15.2431V11.5684H14.8107V13.0819H13.0808V11.5684H12.2158Z" fill="white"/>
<path fill-rule="evenodd" clip-rule="evenodd" d="M18.7027 15.0281C19.4205 15.0281 20 14.2496 20 13.2982C20 12.3468 19.4205 11.5684 18.7027 11.5684C17.9848 11.5684 17.4053 12.3468 17.4053 13.2982C17.4053 14.2496 17.9848 15.0281 18.7027 15.0281ZM18.7027 14.5956C19.1783 14.5956 19.5675 14.0162 19.5675 13.2982C19.5675 12.5803 19.1783 12.0009 18.7027 12.0009C18.227 12.0009 17.8378 12.5803 17.8378 13.2982C17.8378 14.0162 18.227 14.5956 18.7027 14.5956Z" fill="white"/>
<path d="M15.9087 15.0279V14.9155L16.3239 14.4527L16.4451 14.31C16.4753 14.2711 16.5012 14.2321 16.5142 14.1976C16.5305 14.1623 16.5394 14.124 16.5401 14.0851C16.5401 14.0419 16.5271 13.9986 16.5055 13.9683C16.4847 13.9347 16.4547 13.9077 16.419 13.8905C16.3811 13.8729 16.3398 13.864 16.2979 13.8646C16.2503 13.8646 16.2071 13.8775 16.1683 13.8949C16.1329 13.915 16.1043 13.9451 16.086 13.9814C16.0667 14.0217 16.0577 14.0663 16.06 14.111H15.9131C15.9131 14.0332 15.9304 13.9683 15.9649 13.9121C15.998 13.8556 16.0459 13.8093 16.1034 13.778C16.1646 13.7458 16.233 13.7294 16.3023 13.7305C16.3758 13.7305 16.4407 13.7478 16.4969 13.778C16.5531 13.8082 16.6007 13.8515 16.6309 13.9078C16.6656 13.9596 16.6829 14.0202 16.6829 14.0851C16.6827 14.1324 16.6739 14.1793 16.6569 14.2235C16.6395 14.2667 16.6136 14.3187 16.5703 14.3749C16.5271 14.4267 16.471 14.496 16.3974 14.5738L16.1163 14.8765V14.8895H16.7044V15.0279H15.9087Z" fill="white"/>
<path opacity="0.4" d="M9.8372 14.6558L9.89774 14.0763C9.68865 14.4826 9.37198 14.8238 8.98229 15.0624C8.5926 15.3012 8.14483 15.4283 7.68784 15.43C5.84554 15.4472 4.96763 13.5097 5.90177 12.0653C6.47286 11.2621 7.17453 10.5605 7.97759 9.98943L7.14294 8.7915C6.89405 9.28749 6.62866 9.775 6.3472 10.2532C5.98394 10.8672 5.57308 11.3344 5.20981 11.7452C4.96763 12.022 4.74707 12.2729 4.57409 12.5281C4.34119 13.1653 4.27422 13.8514 4.37949 14.5217L4.38381 14.5347C5.06711 16.2903 6.89211 16.9348 8.34087 16.1995C8.98578 15.8515 9.50701 15.3123 9.83287 14.6558H9.8372Z" fill="white"/>
</g>
<defs>
<clipPath id="clip0_328_33665">
<rect width="24" height="24" fill="white"/>
</clipPath>
</defs>
</svg>
