<svg width="24" height="24" viewBox="0 0 24 24" fill="none" xmlns="http://www.w3.org/2000/svg">
<g clip-path="url(#clip0_328_28970)">
<path d="M24 0H0V24H24V0Z" fill="black"/>
<path d="M16.6232 13.9632C15.2458 13.7943 14.1173 13.0879 13.5752 12.177C14.3172 11.4306 15.5836 11.0218 16.9521 11.1906C18.3293 11.3594 19.458 12.066 20 12.9768L19.8712 13.0967C19.1158 13.7677 17.9162 14.1231 16.6232 13.9632Z" fill="#2C2C2C"/>
<path d="M15.4906 15.1986C14.3442 14.4078 13.6556 13.257 13.5801 12.1951C14.5753 11.8707 15.8816 12.0929 17.0279 12.8837C18.1742 13.6702 18.8629 14.821 18.9385 15.8785C18.8763 15.9006 18.8141 15.923 18.7519 15.9362C17.7833 16.1761 16.5658 15.9362 15.4906 15.1942V15.1986Z" fill="#676767"/>
<path d="M14.0683 15.7336C13.3573 14.5339 13.2063 13.1921 13.5796 12.1968C14.6148 12.3301 15.7122 13.0944 16.4232 14.2984C17.1341 15.498 17.2807 16.8444 16.912 17.8352C16.8231 17.8263 16.7386 17.8085 16.6542 17.7908C15.6989 17.5731 14.7214 16.8399 14.0683 15.738V15.7336Z" fill="#A7A7A7"/>
<path d="M14.5436 9.13436C14.7298 8.54706 14.7983 7.92876 14.7448 7.31497C14.6915 6.70117 14.5174 6.10396 14.2326 5.55762L10.447 10.2585C10.0871 10.0408 9.7139 9.85414 9.32736 9.76529C9.10427 9.70919 8.8714 9.70402 8.64604 9.75018C8.42068 9.79633 8.2086 9.89261 8.0255 10.0319C7.82556 10.1829 7.71449 10.374 7.60341 10.5695C7.52343 10.7072 7.44345 10.8494 7.32793 10.9738C7.07911 11.2538 4 12.6045 4 12.6045L4.04443 12.7066C4.04443 12.7066 6.91916 11.4181 7.50122 11.5248C8.08771 11.6314 9.27404 11.9957 10.0249 13.533C10.8247 15.1548 12.3531 16.1545 13.2062 16.0301L12.3799 18.4339C16.6452 18.6427 15.1256 15.0127 13.8105 13.1909C14.3932 13.014 14.956 12.7772 15.49 12.4845C15.8099 12.3157 16.1121 12.098 16.3875 11.8535C16.988 11.3108 17.4848 10.6634 17.8539 9.94301C18.3827 8.96382 18.7403 7.90141 18.9113 6.8017L14.5392 9.13436H14.5436Z" fill="white"/>
</g>
<defs>
<clipPath id="clip0_328_28970">
<rect width="24" height="24" fill="white"/>
</clipPath>
</defs>
</svg>
