<svg width="24" height="24" viewBox="0 0 24 24" fill="none" xmlns="http://www.w3.org/2000/svg">
<g clip-path="url(#clip0_328_52168)">
<path d="M24 0H0V24H24V0Z" fill="#1F054C"/>
<path d="M20.2084 15.6905C20.7024 14.5919 20.9709 13.4052 20.9977 12.201C21.0246 10.9967 20.8095 9.79915 20.365 8.67951C19.9207 7.55989 19.2559 6.54086 18.4105 5.68284C17.5649 4.82483 16.5557 4.1453 15.4427 3.6845C14.3296 3.22371 13.1356 2.99103 11.9309 3.00026C10.7263 3.00951 9.53588 3.26048 8.4301 3.73829C7.32431 4.21611 6.32568 4.91105 5.49341 5.78193C4.66115 6.65282 4.01218 7.68192 3.58497 8.80825C2.75504 10.9964 2.81004 13.4216 3.7383 15.5698C4.66655 17.7181 6.39506 19.4203 8.55727 20.3155C10.7195 21.2107 13.1455 21.2285 15.3204 20.365C17.4956 19.5017 19.2489 17.825 20.2084 15.6905ZM17.895 6.24589C18.7098 7.02753 19.3608 7.96393 19.8092 9.00027C20.2577 10.0366 20.495 11.1521 20.5067 12.2812C20.5187 13.4103 20.3051 14.5304 19.8786 15.5761C19.4522 16.6217 18.8212 17.5717 18.023 18.3702C17.2247 19.1689 16.275 19.8003 15.2295 20.2273C14.1842 20.6542 13.0641 20.8682 11.935 20.8568C10.8058 20.8454 9.69028 20.6087 8.65372 20.1607C7.61719 19.7126 6.68049 19.0623 5.8985 18.2476C4.3609 16.6458 3.5123 14.5051 3.53477 12.2849C3.55722 10.0646 4.44894 7.94165 6.01864 6.37126C7.58832 4.80087 9.71091 3.90822 11.9313 3.88477C14.1514 3.86134 16.2924 4.70899 17.895 6.24589ZM16.8096 8.55942L16.3756 8.23118C16.3121 8.18353 16.3226 8.17295 16.3967 8.19412C16.9261 8.34235 17.466 8.32648 18.0009 8.15706C18.0281 8.14862 18.0524 8.13219 18.0703 8.10988C18.088 8.08756 18.099 8.0604 18.1011 8.03189C18.1033 8.00339 18.097 7.97486 18.083 7.94997C18.0689 7.92511 18.0477 7.90504 18.022 7.89236C17.0637 7.41059 15.7191 6.5053 15.4014 5.44119C15.2268 4.86413 15.1049 4.59413 14.5968 4.37177C13.8343 4.03296 13.432 4.54649 13.0243 5.08649C13.0182 5.09429 13.0099 5.10003 13.0006 5.10288C12.991 5.10572 12.9809 5.10553 12.9714 5.10237C12.9621 5.0983 12.9542 5.09166 12.9486 5.08321C12.943 5.07475 12.9399 5.06486 12.9397 5.05471L12.9291 4.6153C12.9291 4.56236 12.9132 4.52002 12.8867 4.47765C12.3309 3.60941 10.7903 3.8 10.8856 5.03353C10.8909 5.11296 10.8696 5.12353 10.8114 5.0653C10.7267 4.9753 10.6209 4.84825 10.4938 4.68942C10.0226 4.0753 9.15967 4.19707 8.70439 4.77412C8.58379 4.97099 8.48946 5.18279 8.4238 5.40412C8.03733 6.49472 6.92556 7.32059 5.88262 7.82883C5.69203 7.92412 5.68143 8.04059 5.85086 8.17295C5.8932 8.20471 6.00438 8.23648 6.1738 8.26823C6.59732 8.33707 7.01027 8.31059 7.41262 8.19412C7.56085 8.14648 7.57145 8.16766 7.43909 8.25236C7.3332 8.32648 7.20086 8.42707 7.05262 8.55942C6.99969 8.60706 6.9785 8.64412 6.98909 8.66529C7.00496 8.70235 7.04203 8.73412 7.08969 8.75C7.13203 8.76589 7.19026 8.76589 7.2432 8.75L8.07439 8.49059C8.1485 8.46942 8.16439 8.49059 8.11673 8.55412L8.01085 8.69177C7.97909 8.73942 7.98969 8.77119 8.04262 8.79235C8.39203 8.91412 9.06967 8.46413 9.3238 8.24706C9.32937 8.24229 9.33596 8.23886 9.34307 8.23705C9.35018 8.23525 9.35761 8.23511 9.36478 8.23664C9.37196 8.2382 9.37868 8.24136 9.38443 8.24593C9.39016 8.25048 9.39479 8.25631 9.39792 8.26295V8.28943C9.37673 8.36882 9.34497 8.44825 9.28674 8.50648C9.25497 8.54353 9.25497 8.58059 9.28674 8.61235C9.3185 8.64412 9.35555 8.64943 9.4032 8.63354C9.93798 8.41119 10.5044 7.28883 10.6526 6.66412C10.732 6.29353 10.8379 6.06589 11.219 6.01296C11.2293 6.01147 11.2396 6.0121 11.2495 6.01483C11.2594 6.01755 11.2685 6.02228 11.2765 6.02875C11.2846 6.03523 11.291 6.04329 11.2957 6.0524C11.3004 6.06154 11.3032 6.07153 11.3038 6.08176C11.3038 6.09765 11.3038 6.11353 11.2933 6.12412L11.1556 6.39943C11.143 6.42015 11.1362 6.44397 11.1362 6.46823C11.1362 6.49251 11.143 6.51634 11.1556 6.53706C11.579 7.28883 11.4837 7.91883 11.3779 8.60177C11.3249 8.99354 11.2614 9.39589 11.2879 9.85652L11.4044 11.847V11.863C11.4021 11.8682 11.3983 11.8731 11.3937 11.8767C11.3891 11.8804 11.3837 11.883 11.3779 11.8841H11.3567C10.2246 11.6638 9.12032 11.3195 8.0638 10.8571C7.55026 10.6347 6.89379 9.89353 7.73556 9.5759C8.3285 9.35354 8.79439 9.67119 9.25496 9.98882L9.49325 10.1477C9.73673 10.3065 9.82683 10.2428 9.76845 9.96238C9.58318 9.09413 7.12145 8.85059 7.01557 10.2534C6.90968 11.6407 9.14909 12.207 10.282 12.493L10.4514 12.53C10.6526 12.583 10.6526 12.6411 10.4514 12.7047C9.85867 12.898 9.35272 13.2933 9.02203 13.8218C8.48203 14.6477 9.03262 14.9335 9.76316 15.0977C9.77306 15.1001 9.78195 15.1057 9.78881 15.1131C9.79578 15.1206 9.8004 15.1301 9.80197 15.1402C9.80366 15.1502 9.80242 15.1607 9.79837 15.17C9.79432 15.1792 9.78757 15.1872 9.77913 15.193C9.43495 15.3677 9.23909 15.5582 9.18615 15.7646C8.98497 16.5694 10.2237 16.9347 10.7903 17.0353C10.8028 17.0369 10.8146 17.0426 10.824 17.051C10.8334 17.0594 10.8401 17.0706 10.8432 17.083C10.8464 17.0952 10.846 17.1082 10.8424 17.1204C10.8387 17.1325 10.8316 17.1434 10.8221 17.1518C10.1814 17.6917 9.8373 18.4965 9.53032 19.2164L9.51438 19.2641C9.41379 19.4918 9.44557 19.5076 9.59912 19.3171L9.73673 19.1424C10.2132 18.5441 10.8696 17.7235 11.5367 17.4111C11.5516 17.4043 11.5679 17.401 11.5842 17.4019C11.6005 17.4026 11.6165 17.4075 11.6305 17.4157C11.6446 17.4242 11.6564 17.4358 11.665 17.4497C11.6735 17.4637 11.6786 17.4795 11.6797 17.4958L11.7167 18.2847C11.7178 18.3232 11.706 18.3608 11.683 18.3918C11.6598 18.4225 11.6269 18.4444 11.5897 18.4541C11.0602 18.6024 11.0232 19.4388 11.5367 19.6611C12.5321 20.1005 13.1303 18.8141 12.1509 18.3907C12.1244 18.3801 12.1084 18.3535 12.1084 18.327L12.1773 17.3953C12.1771 17.3884 12.1788 17.3816 12.182 17.3757C12.1856 17.3697 12.1906 17.3648 12.1965 17.3614C12.2026 17.358 12.2095 17.3566 12.2163 17.3569C12.2233 17.3573 12.2299 17.3595 12.2356 17.3635C12.9873 17.7871 13.5484 18.4753 14.0673 19.1265L14.1732 19.2481C14.3003 19.4124 14.332 19.3964 14.2633 19.1954C14.0136 18.4202 13.5772 17.7185 12.9926 17.1518C12.9449 17.0988 12.9556 17.067 13.0243 17.0458H13.051C13.5114 16.9188 14.4061 16.6754 14.6074 16.2093C14.7873 15.7965 14.4168 15.3358 14.062 15.2088C13.9297 15.1611 13.9297 15.1242 14.0673 15.0924H14.078C14.5597 14.9759 15.1791 14.8277 14.978 14.15C14.7714 13.4618 13.9191 12.8794 13.305 12.6677C13.1833 12.6253 13.1886 12.5882 13.3103 12.5511C14.2843 12.2971 15.3433 12.0165 16.2009 11.4607C16.9421 10.9788 17.1537 9.61825 16.0949 9.35882C15.322 9.17353 14.4538 9.22648 14.0249 10.0101C13.9561 10.1317 13.9932 10.1954 14.1307 10.1954C14.2368 10.1954 14.3584 10.1424 14.5067 10.0311C14.7557 9.84583 15.0203 9.69766 15.3061 9.59176C16.1373 9.27413 17.032 9.9994 16.0684 10.6824C15.375 11.18 14.062 11.5081 13.019 11.773C12.8424 11.8127 12.666 11.8533 12.4897 11.8947C12.4767 11.891 12.4645 11.8841 12.4545 11.875C12.4444 11.8658 12.4365 11.8545 12.4313 11.8417C12.731 10.7898 12.731 9.67498 12.4313 8.62295C12.3573 8.16236 12.2884 7.72294 12.3467 7.34177C12.3679 7.22 12.4684 6.95 12.6484 6.53706C12.668 6.49199 12.6717 6.44159 12.659 6.39412C12.6273 6.28825 12.5849 6.19825 12.5214 6.11353C12.479 6.06059 12.495 6.03412 12.5638 6.03412C12.8814 6.03942 13.072 6.16648 13.1303 6.40471C13.2986 7.20802 13.6873 7.9486 14.2526 8.54353C14.316 8.60706 14.4061 8.63354 14.512 8.61766C14.5226 8.6157 14.5323 8.61059 14.5398 8.60303C14.5473 8.59547 14.5524 8.58581 14.5544 8.57529C14.5575 8.5646 14.557 8.55322 14.5532 8.54276C14.5495 8.53231 14.5424 8.52331 14.5333 8.51706C14.5087 8.49796 14.4887 8.47396 14.4741 8.44661C14.4596 8.41925 14.4507 8.38916 14.4486 8.35823C14.4326 8.21 14.4803 8.18353 14.5914 8.28943C14.8986 8.58059 15.2584 8.7553 15.6821 8.81883C15.7018 8.82329 15.7225 8.82196 15.7416 8.815C15.7606 8.80802 15.7773 8.7957 15.7897 8.77952C15.8019 8.76334 15.8094 8.74397 15.8108 8.72371C15.8124 8.70345 15.8081 8.68318 15.7984 8.66529C15.7794 8.61432 15.7416 8.5726 15.6926 8.54883C15.645 8.52236 15.645 8.50118 15.6979 8.4853H15.7561C16.0157 8.59118 16.2856 8.67589 16.5503 8.73942C16.656 8.7606 16.7356 8.7553 16.7938 8.71823C16.8086 8.71042 16.8211 8.69906 16.8303 8.6852C16.8396 8.67134 16.8453 8.65541 16.8467 8.63882C16.8473 8.6236 16.8444 8.60842 16.8378 8.59462C16.8314 8.58079 16.8217 8.56872 16.8096 8.55942ZM11.2456 4.57295H11.2137L11.1873 4.53588C11.1713 4.52002 11.1713 4.49883 11.1926 4.48296C11.6849 4.10707 12.172 4.11237 12.659 4.49883V4.51472L12.6326 4.54649C12.6167 4.56766 12.6009 4.57295 12.5796 4.55707C12.3865 4.4125 12.1511 4.33571 11.9098 4.33859C11.6687 4.34144 11.4351 4.42383 11.2456 4.57295ZM10.1126 5.80119C10.0878 5.75254 10.0515 5.71074 10.0067 5.67942C9.86902 5.57353 9.7527 5.61059 9.66793 5.7853C9.54081 6.05 9.4562 6.03412 9.41379 5.74296C9.40319 5.65825 9.48263 5.58413 9.65731 5.51002C10.3613 5.21354 10.4356 5.93353 10.2396 6.38354C10.2189 6.43084 10.1811 6.46862 10.1337 6.48942C9.96442 6.56883 9.78971 6.5953 9.60443 6.57412C9.55143 6.57412 9.5197 6.59 9.49845 6.64295C9.33966 7.01354 9.09085 7.31531 8.76262 7.54295C8.5985 7.65943 8.58262 7.64882 8.72556 7.51119L8.73615 7.5006C9.03792 7.20942 9.21262 7.0453 9.37145 6.54766C9.39262 6.5 9.37144 6.47353 9.32908 6.45765L9.28143 6.44707C9.26672 6.44257 9.25108 6.44217 9.23615 6.4459C9.22122 6.44963 9.2076 6.45736 9.19673 6.46823C8.83521 6.79964 8.42444 7.07289 7.97909 7.27825C7.95262 7.28883 7.93673 7.28354 7.92616 7.26765C7.92085 7.24648 7.92616 7.23589 7.94204 7.2253C8.42367 7.00917 8.8307 6.65554 9.11203 6.20883C9.12404 6.18817 9.13122 6.16506 9.13306 6.14122C9.1349 6.11738 9.13133 6.09344 9.12262 6.07119C8.94262 5.62648 9.25496 4.83765 9.80557 5.00706C9.90086 5.03353 9.90086 5.06 9.80557 5.09707C8.70439 5.45176 9.30262 6.72766 10.0121 6.22472C10.0777 6.17863 10.1245 6.11046 10.1439 6.03267C10.1633 5.95491 10.1541 5.87272 10.118 5.80119H10.1126ZM13.681 6.48413C13.6685 6.4977 13.6593 6.51402 13.6543 6.53177L13.6173 6.65883L13.612 6.67471C13.6087 6.66923 13.6054 6.66393 13.6014 6.65883C13.5879 6.58249 13.572 6.50656 13.5537 6.43119C13.4903 6.06059 13.3949 5.51002 13.8291 5.45707C14.0144 5.43589 14.1679 5.48883 14.3003 5.61589C14.4009 5.71648 14.4061 5.81176 14.316 5.90707C14.3093 5.91412 14.3011 5.91972 14.2918 5.92353C14.2828 5.92735 14.2732 5.9293 14.2633 5.9293C14.2534 5.9293 14.2436 5.92735 14.2345 5.92353C14.2255 5.91972 14.2171 5.91412 14.2103 5.90707C14.2013 5.9 14.1941 5.89094 14.1891 5.8806C14.1257 5.6953 13.9932 5.63706 13.7921 5.70059C13.7725 5.70653 13.7549 5.71749 13.741 5.73235C13.7271 5.74721 13.7173 5.76547 13.7126 5.7853C13.5167 6.52648 14.8137 6.56353 14.6284 5.63177C14.5597 5.29295 14.332 5.11823 13.9509 5.11296C13.9297 5.11296 13.9191 5.10237 13.9244 5.08119V5.01765C13.9244 4.98059 13.9403 4.96472 13.9774 4.96472C14.7979 5.02825 14.7714 5.54707 14.7186 6.18765C14.708 6.24059 14.7291 6.29354 14.766 6.33589C15.0838 6.70648 15.4597 7.01354 15.8991 7.23589C15.9203 7.24648 15.9309 7.25706 15.9256 7.26765C15.9149 7.28354 15.9044 7.28883 15.8884 7.28353C15.4905 7.1201 15.1247 6.88705 14.8084 6.5953C14.4961 6.31471 14.4009 6.37296 14.5226 6.7806C14.6145 7.06258 14.8144 7.29668 15.0786 7.43177C15.0817 7.4374 15.0834 7.44379 15.0834 7.4503C15.0834 7.45681 15.0817 7.4632 15.0786 7.46883L15.0733 7.48472C15.0675 7.48986 15.0604 7.49311 15.0528 7.49407C15.0453 7.49502 15.0376 7.4936 15.0309 7.49C14.881 7.41119 14.7485 7.30311 14.6413 7.17217C14.5338 7.04121 14.454 6.89006 14.4061 6.72766C14.3863 6.67199 14.3484 6.62454 14.2985 6.59288C14.2486 6.56123 14.1896 6.54716 14.1307 6.55295C14.0239 6.56531 13.9161 6.53696 13.8291 6.47354C13.8067 6.45734 13.7793 6.45001 13.752 6.45295C13.7245 6.45589 13.6992 6.46889 13.681 6.48942V6.48413ZM9.60443 14.293C10.0895 13.8018 10.6849 13.4332 11.3409 13.2182C11.4414 13.1865 11.489 13.2182 11.4996 13.3241L11.542 14.4254C11.542 14.5258 11.4996 14.5735 11.399 14.5735L10.965 14.5894C10.515 14.6211 9.975 14.6528 9.64668 14.51C9.53032 14.4571 9.5197 14.383 9.60962 14.293H9.60443ZM14.258 14.4782C14.2504 14.4857 14.2414 14.4911 14.2314 14.4942C13.7868 14.6477 13.268 14.6158 12.7756 14.5894L12.3786 14.5682C12.3256 14.5682 12.299 14.5417 12.3044 14.4888L12.3361 13.287C12.3361 13.2024 12.3838 13.1758 12.4632 13.2077C13.1091 13.4458 13.8661 13.8218 14.2633 14.3934C14.27 14.4024 14.2746 14.4128 14.2764 14.424C14.2782 14.4352 14.2773 14.4465 14.2738 14.4571L14.258 14.4782ZM11.5156 15.1982L11.6107 16.5007C11.6129 16.5076 11.6123 16.5152 11.6096 16.5219C11.6066 16.5287 11.6015 16.5342 11.595 16.5377H11.5633C11.0656 16.5747 10.5837 16.5377 10.2237 16.437C9.86385 16.3365 9.65199 16.1777 9.64149 15.9977V15.987C9.63086 15.8971 9.67324 15.8017 9.75787 15.7118C9.84787 15.627 9.98017 15.5423 10.1497 15.4631C10.319 15.3888 10.5203 15.3253 10.7479 15.2724C10.9756 15.2194 11.219 15.1877 11.4625 15.1665H11.4784C11.4854 15.1661 11.4922 15.1679 11.4979 15.1717C11.5036 15.1755 11.5079 15.181 11.5102 15.1877V15.1982H11.5156ZM12.2303 16.5058L12.3256 15.2035C12.3261 15.1982 12.3278 15.1931 12.3305 15.1886C12.3332 15.184 12.337 15.18 12.3414 15.177C12.3477 15.1732 12.3552 15.1714 12.3626 15.1717H12.3838C12.8707 15.2088 13.3368 15.3147 13.6703 15.4681C14.0037 15.6217 14.1891 15.807 14.1732 15.987V15.9977C14.1573 16.1777 13.9509 16.3418 13.5961 16.4423C13.2414 16.5481 12.7702 16.58 12.2779 16.5481H12.262C12.2532 16.5458 12.2457 16.54 12.2407 16.5324C12.2374 16.5288 12.2347 16.5247 12.2329 16.5201C12.2311 16.5156 12.2302 16.5107 12.2303 16.5058ZM12.1986 18.7982C12.1521 18.8085 12.1037 18.803 12.0609 18.7824C12.026 18.767 11.9874 18.7613 11.9496 18.7664L11.632 18.8088C11.6268 18.8114 11.6212 18.8128 11.6155 18.8128C11.6097 18.8128 11.6041 18.8114 11.5989 18.8088C11.5939 18.8062 11.5894 18.8025 11.586 18.7979C11.5825 18.7933 11.5801 18.788 11.579 18.7824C11.5765 18.7772 11.5752 18.7716 11.5752 18.7657C11.5752 18.7601 11.5765 18.7545 11.5791 18.7492C11.5816 18.7441 11.5854 18.7397 11.59 18.7363C11.5947 18.7329 11.5999 18.7305 11.6056 18.7293C11.8067 18.6447 12.0026 18.6394 12.2037 18.7242C12.2884 18.7558 12.2884 18.7824 12.2037 18.7982H12.1986ZM6.86732 6.17707C5.71047 7.16994 4.86229 8.47347 4.4232 9.93336C3.98409 11.3933 3.97247 12.9485 4.38968 14.4147C5.03557 16.67 6.53909 18.2265 8.48732 19.4601C8.69908 19.587 8.68319 19.6188 8.44497 19.5447C5.39557 18.6288 3.60616 15.0977 3.6485 12.1381C3.6601 10.8222 4.00034 9.53002 4.63828 8.37893C5.27623 7.22788 6.19167 6.25443 7.30143 5.54707C7.48673 5.4253 7.65616 5.3353 7.80439 5.28766C7.9685 5.23472 7.98439 5.26119 7.85203 5.37236C7.53439 5.62119 7.21145 5.88588 6.86732 6.17707ZM18.7367 8.31059C20.5368 11.6459 19.9226 15.6377 17.0533 18.1788C16.4864 18.6832 15.8791 19.1401 15.2374 19.5447L15.2426 19.5924H15.2532C18.8161 18.4805 20.648 14.42 20.0709 10.9258C19.8805 9.77631 19.4398 8.68268 18.7804 7.72216C18.1207 6.7616 17.2581 5.95765 16.2537 5.36707C16.161 5.31805 16.0569 5.29432 15.952 5.29825C15.8832 5.29825 15.8779 5.31412 15.9309 5.35118C17.0955 6.19825 18.059 7.05059 18.7367 8.31059ZM10.515 10.5023C10.4684 10.2183 10.3431 9.95293 10.153 9.73671C9.96307 9.52046 9.71598 9.362 9.44026 9.27941C9.27085 9.22648 9.27085 9.16295 9.44026 9.11001C9.68904 9.02001 9.93798 9.10472 10.1814 9.35882C10.589 9.80353 10.7002 10.3118 10.5097 10.8781C10.4938 10.9311 10.4567 10.9682 10.409 10.9841C10.155 11.09 9.89028 11.1323 9.62555 11.1323C9.59999 11.132 9.57503 11.1243 9.55366 11.1101C9.53241 11.0958 9.51574 11.0757 9.50561 11.0522C9.4956 11.0287 9.49252 11.0027 9.49684 10.9775C9.50128 10.9523 9.5129 10.9288 9.53032 10.91C9.57256 10.8677 9.5885 10.8254 9.58318 10.7777C9.58269 10.7531 9.57416 10.7295 9.55885 10.7103C9.54352 10.6912 9.52228 10.6775 9.49845 10.6718L9.23379 10.6134C8.90556 10.5342 8.49262 10.4441 8.38145 10.1635C8.36455 10.1184 8.36033 10.0694 8.36926 10.0219C8.37818 9.97442 8.3999 9.93043 8.43205 9.89443C8.46422 9.85843 8.5056 9.832 8.55172 9.81782C8.59787 9.80365 8.64699 9.80241 8.6938 9.81411C8.80497 9.84055 8.87909 9.91468 8.90556 10.0258C8.9121 10.051 8.92399 10.0744 8.94045 10.0946C8.95691 10.1147 8.9775 10.131 9.00085 10.1424L9.21263 10.2481C9.47732 10.3647 9.78442 10.513 9.90086 10.7088C9.91087 10.7269 9.92696 10.7412 9.9462 10.7489C9.96555 10.7566 9.98692 10.7574 10.0067 10.7511L10.4567 10.6082C10.5097 10.5923 10.5256 10.5554 10.515 10.5023ZM13.8238 10.7458L13.4797 10.6505C13.433 10.6381 13.393 10.6079 13.3683 10.5663C13.3436 10.5248 13.3359 10.4753 13.3474 10.4281C13.3983 10.177 13.5126 9.94303 13.6793 9.74852C13.8461 9.55393 14.06 9.40522 14.3003 9.31648C14.5173 9.23176 14.512 9.15765 14.2843 9.09413C14.0886 9.04119 13.8873 9.12589 13.6703 9.34825C13.2997 9.72412 13.1726 10.2058 13.2733 10.7882C13.2808 10.831 13.2987 10.8712 13.3256 10.9054C13.3524 10.9394 13.387 10.9666 13.4267 10.9841C13.6649 11.09 13.9084 11.1377 14.1679 11.1165C14.1957 11.114 14.2222 11.1044 14.2449 11.0885C14.2679 11.0724 14.2859 11.0508 14.2978 11.0256C14.3095 11.0004 14.3147 10.9725 14.3121 10.9447C14.3097 10.9172 14.3003 10.8906 14.2843 10.8677C14.2209 10.7777 14.2686 10.7088 14.438 10.6558L14.6074 10.6134C14.946 10.5288 15.4332 10.4124 15.4544 10.0576C15.4576 10.0237 15.4532 9.9895 15.4419 9.95743C15.4307 9.92515 15.4127 9.8959 15.3891 9.87126C15.3654 9.84673 15.337 9.8275 15.3051 9.8149C15.2736 9.8023 15.2395 9.79656 15.2056 9.79813C15.1596 9.80173 15.1155 9.81827 15.0786 9.84583C14.9991 9.89882 14.941 9.96767 14.8986 10.0418C14.8731 10.092 14.8322 10.1328 14.782 10.1582L14.1044 10.5023C14.0564 10.5263 14.0172 10.5654 13.9932 10.6134L13.9561 10.6877C13.9244 10.7405 13.882 10.7617 13.8238 10.7458Z" fill="white"/>
</g>
<defs>
<clipPath id="clip0_328_52168">
<rect width="24" height="24" fill="white"/>
</clipPath>
</defs>
</svg>
