<svg width="24" height="24" viewBox="0 0 24 24" fill="none" xmlns="http://www.w3.org/2000/svg">
<g clip-path="url(#clip0_328_52853)">
<path d="M24 0H0V24H24V0Z" fill="#E75A2B"/>
<path d="M18.0469 12.5522C18.0638 12.6422 18.0469 12.7321 18.0188 12.8166L17.3774 14.4197C17.3485 14.5037 17.2978 14.5786 17.2307 14.6368C17.1636 14.6951 17.0823 14.7347 16.995 14.7516L15.1725 15.0892C15.1059 15.1003 15.0378 15.0981 14.9721 15.0824C14.9064 15.0669 14.8445 15.0383 14.7899 14.9985C14.7354 14.9587 14.6895 14.9083 14.6547 14.8504C14.6199 14.7926 14.5971 14.7284 14.5875 14.6614C14.5764 14.5982 14.5764 14.5334 14.5875 14.4703L14.88 12.8672C14.9194 12.6422 15.0881 12.4734 15.3018 12.4454L17.4732 12.1078C17.5406 12.0983 17.6091 12.1026 17.6749 12.1204C17.7406 12.1381 17.8021 12.1688 17.8557 12.2108C17.9092 12.2528 17.9538 12.3051 17.9866 12.3649C18.0195 12.4245 18.0401 12.4901 18.0469 12.5578V12.5522ZM16.7362 13.1147L15.8081 13.2553C15.7728 13.2608 15.7401 13.2775 15.7149 13.3027C15.6896 13.328 15.6731 13.3607 15.6675 13.3959L15.5775 13.8853C15.5606 13.9809 15.6225 14.0708 15.7124 14.0878C15.7329 14.0915 15.7539 14.0915 15.7743 14.0878L16.5956 13.9359C16.6239 13.9314 16.6509 13.9197 16.6734 13.9021C16.6961 13.8844 16.7139 13.8611 16.725 13.8346L16.9163 13.3567C16.9332 13.3131 16.9328 13.265 16.9149 13.2219C16.8972 13.179 16.8633 13.1445 16.8206 13.1258C16.794 13.1145 16.7649 13.1106 16.7362 13.1147ZM19.3519 9.21093C19.3632 9.2953 19.3519 9.37967 19.3238 9.46404L18.7049 11.0783C18.6749 11.1654 18.622 11.2426 18.5516 11.302C18.4814 11.3614 18.3964 11.4007 18.3057 11.4159L15.7968 11.7871C15.7295 11.7965 15.6609 11.7923 15.5951 11.7747C15.5294 11.7569 15.4679 11.7262 15.4143 11.684C15.3608 11.6422 15.3162 11.5897 15.2834 11.5301C15.2505 11.4706 15.2299 11.4049 15.2231 11.3372C15.2164 11.281 15.2182 11.2241 15.2288 11.1684L15.5212 9.54843C15.5606 9.32342 15.7407 9.15467 15.9543 9.12091L18.7837 8.7553C18.8507 8.74751 18.9186 8.75318 18.9834 8.77199C19.0482 8.79078 19.1085 8.82232 19.1609 8.86477C19.2133 8.90722 19.2565 8.95971 19.2885 9.01913C19.3204 9.07858 19.3399 9.14378 19.3462 9.21093H19.3519ZM17.7657 9.73411L16.1456 9.94779C16.1093 9.95229 16.0754 9.96826 16.0489 9.99369C16.0226 10.019 16.0053 10.0523 15.9993 10.0885L15.9093 10.6115C15.9045 10.6337 15.904 10.6567 15.9083 10.679C15.9125 10.7014 15.9211 10.7227 15.9337 10.7416C15.9463 10.7605 15.9626 10.7767 15.9816 10.7891C16.0007 10.8016 16.022 10.8101 16.0443 10.814H16.1007L17.6137 10.5892C17.6434 10.5835 17.6712 10.5703 17.6938 10.5505C17.7165 10.5307 17.7336 10.5052 17.7432 10.4767L17.9457 9.9704C17.9628 9.92844 17.9628 9.88164 17.9461 9.83968C17.9293 9.7976 17.8969 9.76374 17.8557 9.74526C17.8273 9.73291 17.796 9.72912 17.7657 9.73411ZM21 5.05404C21 5.15529 20.9887 5.26217 20.955 5.35779L20.0887 7.61905C20.0483 7.73718 19.976 7.84178 19.8797 7.92122C19.7833 8.00068 19.6667 8.05185 19.5432 8.06904L14.9982 8.67093C14.9085 8.68184 14.8177 8.67468 14.7307 8.64986C14.644 8.62504 14.5632 8.58307 14.4928 8.52644C14.4226 8.46978 14.3644 8.39963 14.3217 8.32011C14.2791 8.24057 14.2527 8.1533 14.2444 8.06343C14.2343 7.99441 14.2343 7.92431 14.2444 7.85529L14.745 5.38029C14.8013 5.06529 15.0487 4.82904 15.3525 4.80092L20.2744 4.40717C20.6456 4.37906 20.9719 4.66593 21 5.05404ZM19.0538 5.73467L15.5832 6.0328L15.3243 7.42218L18.7443 6.9328C18.8029 6.92427 18.8579 6.90056 18.9043 6.86404C18.9508 6.82751 18.9868 6.77946 19.0088 6.72467L19.2788 6.06093C19.3349 5.94842 19.2788 5.80779 19.1663 5.75718C19.1314 5.73957 19.0927 5.73179 19.0538 5.73467Z" fill="#FFC55A"/>
<path d="M8.59174 6.65723H5.70049C5.33487 6.65723 5.01987 6.93285 4.95237 7.30972L3.01175 18.6722C2.99237 18.783 2.99701 18.8968 3.02531 19.0057C3.05363 19.1147 3.10495 19.2163 3.17585 19.3037C3.24675 19.3911 3.33557 19.4625 3.4363 19.5125C3.53706 19.5627 3.64737 19.5907 3.75986 19.5948H6.6455C7.01673 19.5948 7.33173 19.319 7.39923 18.9423L7.96736 15.3535C7.97914 15.2824 8.01536 15.2176 8.06979 15.1704C8.12422 15.1231 8.19344 15.0964 8.26549 15.0948H10.1217C10.1677 15.0948 10.213 15.1048 10.2546 15.1243C10.2961 15.144 10.3327 15.1726 10.3618 15.2082C10.3908 15.2437 10.4118 15.2852 10.4227 15.3299C10.4338 15.3745 10.4347 15.421 10.4255 15.466L9.91923 18.6722C9.89977 18.783 9.90449 18.8968 9.93273 19.0057C9.96108 19.1147 10.0124 19.2163 10.0833 19.3037C10.1541 19.3911 10.2431 19.4625 10.3439 19.5125C10.4445 19.5627 10.555 19.5907 10.6674 19.5948H13.553C13.9242 19.5948 14.2392 19.319 14.3011 18.9423L16.2418 7.57972C16.2611 7.46929 16.2565 7.35601 16.2286 7.24745C16.2006 7.13891 16.1498 7.03758 16.0794 6.95025C16.0092 6.86292 15.921 6.7916 15.821 6.74107C15.7209 6.69054 15.6113 6.66195 15.4993 6.65723H12.6135C12.248 6.65723 11.933 6.93285 11.8654 7.30408L11.2974 10.8985C11.2855 10.9696 11.2493 11.0343 11.1949 11.0815C11.1405 11.1288 11.0712 11.1557 10.9991 11.1571H9.14303C9.10234 11.1566 9.06231 11.1477 9.02504 11.1316C8.98776 11.1153 8.95403 11.0919 8.92582 11.0626C8.89759 11.0334 8.87554 10.9988 8.86058 10.961C8.84575 10.9231 8.83853 10.8828 8.83919 10.8421V10.786L9.34542 7.57972C9.36485 7.46839 9.36013 7.35417 9.33151 7.24486C9.3029 7.13553 9.25106 7.03364 9.17952 6.94615C9.10799 6.85862 9.01848 6.78752 8.91716 6.73766C8.81569 6.68782 8.7047 6.66039 8.59174 6.65723Z" fill="white"/>
</g>
<defs>
<clipPath id="clip0_328_52853">
<rect width="24" height="24" fill="white"/>
</clipPath>
</defs>
</svg>
