<svg width="24" height="24" viewBox="0 0 24 24" fill="none" xmlns="http://www.w3.org/2000/svg">
<g clip-path="url(#clip0_328_45646)">
<path d="M24 0H0V24H24V0Z" fill="#FFC908"/>
<path d="M8.49998 8.51547V4L11.9999 7.29198L8.49998 8.51547ZM8.49998 15.4925V20L11.9999 16.7079L8.49998 15.4925ZM8.49998 8.49998H4L7.28649 12.062L8.49998 8.49998ZM15.4999 8.49998H20L16.7214 11.9439L15.4999 8.49998ZM15.4999 8.51547V4L11.9999 7.29198L15.4999 8.51547ZM15.4999 15.4965V20L11.9999 16.7079L15.4999 15.4965ZM8.49998 15.4999H4L7.30249 12.0695L8.49998 15.4999ZM15.4999 15.4999H20L16.7024 11.9815L15.4999 15.4999Z" fill="black"/>
<path d="M11.9996 14C13.1038 14 13.999 13.1047 13.999 12C13.999 10.8955 13.1038 10 11.9996 10C10.8953 10 10 10.8955 10 12C10 13.1047 10.8953 14 11.9996 14Z" fill="black"/>
</g>
<defs>
<clipPath id="clip0_328_45646">
<rect width="24" height="24" fill="white"/>
</clipPath>
</defs>
</svg>
