<svg width="24" height="24" viewBox="0 0 24 24" fill="none" xmlns="http://www.w3.org/2000/svg">
<g clip-path="url(#clip0_328_33768)">
<path d="M24 0H0V24H24V0Z" fill="#545EFF"/>
<path d="M16.4459 16.4999C18.961 16.4999 21 14.4853 21 12C21 9.51464 18.961 7.5 16.4459 7.5C14.2428 7.5 12.405 9.0462 11.9829 11.1H16.5C16.7387 11.1 16.9675 11.1947 17.1364 11.3636C17.3051 11.5323 17.4 11.7613 17.4 12C17.4 12.2387 17.3051 12.4675 17.1364 12.6364C16.9675 12.8051 16.7387 12.9 16.5 12.9H11.9829C12.405 14.9542 14.2428 16.4999 16.4459 16.4999Z" fill="white"/>
<path fill-rule="evenodd" clip-rule="evenodd" d="M3.9 7.5C3.66131 7.5 3.43239 7.59481 3.26362 7.7636C3.09483 7.93238 3 8.1613 3 8.39999V15.6C3 15.8387 3.09483 16.0676 3.26362 16.2364C3.43239 16.4052 3.66131 16.4999 3.9 16.4999H11.0999C11.3386 16.4999 11.5676 16.4052 11.7363 16.2364C11.9052 16.0676 12 15.8387 12 15.6V8.39999C12 8.1613 11.9052 7.93238 11.7363 7.7636C11.5676 7.59481 11.3386 7.5 11.0999 7.5H3.9ZM11.9981 11.1H8.31945L6.6 12.9H11.9981V11.1Z" fill="white"/>
</g>
<defs>
<clipPath id="clip0_328_33768">
<rect width="24" height="24" fill="white"/>
</clipPath>
</defs>
</svg>
