<svg width="24" height="24" viewBox="0 0 24 24" fill="none" xmlns="http://www.w3.org/2000/svg">
<g clip-path="url(#clip0_328_33768)">
<path d="M24 0H0V24H24V0Z" fill="#545EFF"/>
<path d="M15.9519 15.9999C18.1876 15.9999 20.0001 14.2092 20.0001 12C20.0001 9.79079 18.1876 8 15.9519 8C13.9936 8 12.3601 9.37439 11.9849 11.2H16C16.2122 11.2 16.4156 11.2842 16.5657 11.4343C16.7157 11.5843 16.8 11.7878 16.8 12C16.8 12.2122 16.7157 12.4156 16.5657 12.5657C16.4156 12.7157 16.2122 12.8 16 12.8H11.9849C12.3601 14.626 13.9936 15.9999 15.9519 15.9999Z" fill="white"/>
<path fill-rule="evenodd" clip-rule="evenodd" d="M4.8 8C4.58783 8 4.38435 8.08428 4.23433 8.23431C4.08429 8.38434 4 8.58782 4 8.79999V15.1999C4 15.4121 4.08429 15.6156 4.23433 15.7656C4.38435 15.9157 4.58783 15.9999 4.8 15.9999H11.1999C11.4121 15.9999 11.6156 15.9157 11.7656 15.7656C11.9157 15.6156 12 15.4121 12 15.1999V8.79999C12 8.58782 11.9157 8.38434 11.7656 8.23431C11.6156 8.08428 11.4121 8 11.1999 8H4.8ZM11.9983 11.2H8.72839L7.19999 12.8H11.9983V11.2Z" fill="white"/>
</g>
<defs>
<clipPath id="clip0_328_33768">
<rect width="24" height="24" fill="white"/>
</clipPath>
</defs>
</svg>
