<svg width="24" height="24" viewBox="0 0 24 24" fill="none" xmlns="http://www.w3.org/2000/svg">
<g clip-path="url(#clip0_328_31810)">
<path d="M24 0H0V24H24V0Z" fill="url(#paint0_linear_328_31810)"/>
<path d="M6.12266 8.02661C5.10934 6.86928 5.50934 5.03993 5.84 4.2666C5.32267 4.4586 4 5.47193 4 8.02661C4 10.9173 7.25334 12.2187 8.67201 13.808C10.0907 15.3973 10.5119 19.7334 11.9254 19.7334C13.3441 19.7334 13.9946 14.9974 15.328 13.808C16.4586 12.7947 20 10.7679 20 8.02661C20 5.82926 18.7734 4.6026 18.1601 4.2666C19.1786 5.7706 18.4427 7.15728 17.5947 8.02661C14.7627 11.2053 12.496 10.0533 11.9306 12.7947C11.648 10.0479 7.39734 9.47199 6.12266 8.02661Z" fill="white"/>
</g>
<defs>
<linearGradient id="paint0_linear_328_31810" x1="12.0001" y1="4.26663" x2="12.0001" y2="19.7334" gradientUnits="userSpaceOnUse">
<stop stop-color="#64EAB7"/>
<stop offset="1" stop-color="#33CBF0"/>
</linearGradient>
<clipPath id="clip0_328_31810">
<rect width="24" height="24" fill="white"/>
</clipPath>
</defs>
</svg>
