<svg width="24" height="24" viewBox="0 0 24 24" fill="none" xmlns="http://www.w3.org/2000/svg">
<g clip-path="url(#clip0_328_53140)">
<path d="M24 0H0V24H24V0Z" fill="#4A9EDC"/>
<path d="M7.19987 8.34308C7.95718 8.34308 8.57111 7.72914 8.57111 6.97183C8.57111 6.21451 7.95718 5.60059 7.19987 5.60059C6.44256 5.60059 5.82861 6.21451 5.82861 6.97183C5.82861 7.72914 6.44256 8.34308 7.19987 8.34308Z" fill="white"/>
<path d="M7.19982 7.66918C7.58606 7.66918 7.89915 7.35608 7.89915 6.96984C7.89915 6.5836 7.58606 6.27051 7.19982 6.27051C6.81359 6.27051 6.50049 6.5836 6.50049 6.96984C6.50049 7.35608 6.81359 7.66918 7.19982 7.66918Z" fill="white"/>
<path d="M18.6271 13.8283C19.132 13.8283 19.5412 13.419 19.5412 12.914C19.5412 12.4092 19.132 12 18.6271 12C18.1221 12 17.7129 12.4092 17.7129 12.914C17.7129 13.419 18.1221 13.8283 18.6271 13.8283Z" fill="white"/>
<path d="M18.6277 13.3788C18.8851 13.3788 19.0938 13.1701 19.0938 12.9125C19.0938 12.655 18.8851 12.4463 18.6277 12.4463C18.3702 12.4463 18.1614 12.655 18.1614 12.9125C18.1614 13.1701 18.3702 13.3788 18.6277 13.3788Z" fill="white"/>
<path d="M6.65164 8.7165C2.83045 9.48896 3.96401 13.5478 5.00616 15.4813C4.67705 12.9079 5.66892 11.0613 7.09502 10.9287C8.52569 10.8007 9.54039 11.6601 12.2052 14.3113C14.87 16.9623 16.3829 17.4832 17.8091 17.433C19.2397 17.3827 19.7881 16.8388 19.683 15.8973C19.5916 15.1476 18.2295 15.3076 17.5622 15.4859C17.8731 15.4859 18.5311 15.6185 18.6591 16.1578C18.7963 16.7017 18.1473 16.8343 17.8091 16.8343C15.807 16.5234 14.0746 14.3386 11.3002 11.2944C9.07875 8.85819 7.53382 8.5428 6.65622 8.7165H6.65164Z" fill="white"/>
<path d="M18.7004 17.31C16.6436 17.1728 15.5419 16.3501 14.5226 15.5869C14.3444 15.4497 14.1707 15.3217 13.9925 15.1984C13.6451 14.9516 13.1651 14.4259 12.5892 13.7951C11.0077 12.0673 8.71315 9.56249 6.60143 10.0196C4.47142 10.4766 4.40743 13.2054 4.68169 14.819L4.80967 15.0932L4.81881 15.0749L4.95136 14.8144C4.85994 12.5929 5.7924 11.0481 7.09964 10.9291C8.52574 10.8011 9.54046 11.6605 12.2053 14.3116C14.87 16.9626 16.383 17.4836 17.8091 17.4334C18.1565 17.4196 18.4535 17.3786 18.7004 17.31Z" fill="white"/>
<path d="M8.60796 18.3971C5.79233 18.3513 5.7512 15.9151 6.0803 14.6992C6.43681 16.4956 6.87562 17.2773 8.60796 17.4053C9.99293 17.5104 12.4977 16.4636 13.581 15.9242L14.7603 16.8385C13.6084 17.2269 12.1229 18.4473 8.60796 18.3925V18.3971Z" fill="white"/>
<path d="M5.93848 15.7979C5.94762 16.9954 6.50526 18.3666 8.60783 18.3986C11.3047 18.4352 12.813 17.7267 13.8825 17.2147C14.2071 17.0639 14.495 16.9268 14.7602 16.8354L14.0608 16.3005C12.7992 16.9268 10.418 17.9003 8.63526 17.9003C7.02633 17.9003 6.24015 16.721 5.93848 15.7979Z" fill="white"/>
<path d="M18.3026 14.3067C17.2513 14.2153 15.88 14.8553 15.3315 15.1797L16.4056 16.1305C16.6067 15.9796 17.2284 15.6733 18.097 15.6642C18.9745 15.6505 19.3584 16.4413 19.4408 16.8435C20.7022 15.6916 19.6098 14.4209 18.298 14.3067H18.3026Z" fill="white"/>
<path d="M15.7932 15.5865C16.4422 15.3442 17.617 14.9832 18.3483 15.0381C19.2442 15.1021 19.5824 15.8288 19.5276 16.7612C20.6521 15.6322 19.5778 14.4209 18.3026 14.3067C17.2513 14.2153 15.88 14.8553 15.3315 15.1797L15.7887 15.5865H15.7932Z" fill="white"/>
</g>
<defs>
<clipPath id="clip0_328_53140">
<rect width="24" height="24" fill="white"/>
</clipPath>
</defs>
</svg>
