<svg width="24" height="24" viewBox="0 0 24 24" fill="none" xmlns="http://www.w3.org/2000/svg">
<g clip-path="url(#clip0_328_45984)">
<path d="M24 0H0V24H24V0Z" fill="#FF0EA9"/>
<path d="M5.75098 4.49993V18.7483C5.75098 19.2183 6.12594 19.4932 6.5009 19.4932C6.77587 19.4932 7.05084 19.3432 7.18582 19.0232L12.7702 5.01489C12.814 4.90233 12.8298 4.78083 12.8161 4.66084C12.8024 4.54085 12.7598 4.42597 12.692 4.32611C12.6241 4.22624 12.533 4.14437 12.4263 4.08756C12.3198 4.03075 12.2011 4.0007 12.0803 4H6.25093C6.11921 4.00132 5.99332 4.05457 5.90064 4.14818C5.80797 4.2418 5.75598 4.36821 5.75599 4.49993H5.75098Z" fill="white"/>
<path d="M9.53083 19.3282L14.6153 6.3097C14.6902 6.11971 14.8653 6.00972 15.0402 5.99972C15.1502 5.98972 15.2653 6.02472 15.3602 6.09972C21.0646 10.6542 17.8299 20.3831 9.94589 19.9881C9.86936 19.9845 9.79494 19.9624 9.72879 19.9239C9.66265 19.8853 9.60677 19.8313 9.56606 19.7665C9.52523 19.7016 9.50085 19.628 9.49466 19.5516C9.4886 19.4753 9.50097 19.3987 9.53083 19.3282Z" fill="white"/>
</g>
<defs>
<clipPath id="clip0_328_45984">
<rect width="24" height="24" fill="white"/>
</clipPath>
</defs>
</svg>
