<svg width="25" height="24" viewBox="0 0 25 24" fill="none" xmlns="http://www.w3.org/2000/svg">
<g clip-path="url(#clip0_328_31858)">
<path d="M24.5 0H0.5V24H24.5V0Z" fill="#00E093"/>
<path d="M9.8364 6.46147C9.61242 6.54146 9.32045 6.78145 9.22045 6.96143C9.15842 7.1409 9.1129 7.32565 9.08446 7.51339C8.94047 8.32132 8.65249 8.55731 7.61657 8.71329C7.19261 8.77329 6.78464 9.29325 6.77664 9.77721C6.7647 10.0048 6.689 10.2245 6.55815 10.4113C6.42732 10.598 6.24662 10.7442 6.03669 10.8331C5.92871 10.873 5.69673 10.933 5.52474 10.953C5.13276 11.005 4.96478 11.089 4.7368 11.341C4.53682 11.565 4.46882 11.821 4.51282 12.189C4.56882 12.6849 4.97678 13.0049 5.64873 13.0809C6.09269 13.1329 6.44066 13.3689 6.63265 13.7449C6.71265 13.9049 6.77664 14.1089 6.78064 14.2048C6.77898 14.358 6.80817 14.5098 6.86648 14.6512C6.9248 14.7928 7.01103 14.9212 7.12003 15.0288C7.22902 15.1363 7.35857 15.2207 7.5009 15.277C7.64325 15.3334 7.7955 15.3604 7.94855 15.3568C8.04454 15.3568 8.25653 15.4208 8.41651 15.5008C8.80048 15.6887 9.02846 16.0207 9.08446 16.4607C9.18045 17.2086 9.55243 17.6006 10.1644 17.6006C10.4964 17.6006 10.6964 17.5206 10.9243 17.3045C11.1243 17.1166 11.1963 16.9406 11.2563 16.5047C11.2914 16.1916 11.4342 15.9003 11.6603 15.6808C11.8888 15.4986 12.1684 15.3924 12.4603 15.3767C13.0682 15.3767 13.6122 14.8888 13.6162 14.3408C13.6201 13.8089 13.9441 13.2769 14.44 13.1409C14.6 13.1009 14.8481 13.0489 14.992 13.0329C15.288 12.9929 15.62 12.7529 15.764 12.4769C15.8159 12.3809 15.8599 12.177 15.8599 12.021C15.8679 11.453 15.46 11.033 14.8161 10.953C14.2161 10.873 13.8281 10.6211 13.6162 10.1731L13.4881 9.9092L13.3842 10.1371C13.259 10.3869 13.045 10.581 12.7842 10.6811C12.6482 10.733 12.6522 10.7371 12.8882 10.8331C13.3602 11.017 13.7842 11.661 13.7161 12.161C13.6362 12.7329 13.1161 13.1449 12.4603 13.2249C11.7603 13.3089 11.4923 13.5689 11.3643 14.2888C11.2243 15.0888 10.8724 15.4768 10.1684 15.4768C9.8084 15.4768 9.64041 15.4128 9.36843 15.1767C9.24282 15.07 9.14039 14.9385 9.06747 14.7906C8.99457 14.6428 8.95271 14.4815 8.94447 14.3168C8.93416 14.0249 8.81145 13.7485 8.602 13.5449C8.39256 13.3414 8.11258 13.2268 7.82056 13.2249C7.52057 13.2249 7.18061 13.0569 6.96062 12.8089C6.71265 12.5289 6.65665 12.369 6.65665 11.973C6.65665 11.3371 7.06862 10.9131 7.78456 10.8051C8.5445 10.6851 8.84048 10.4091 8.94047 9.73322C9.03647 9.04527 9.45243 8.5933 10.0444 8.52931C10.3252 8.51964 10.6029 8.5901 10.8452 8.73247C11.0874 8.87483 11.2841 9.08321 11.4123 9.33325L11.5083 9.57323L11.6123 9.34125C11.7323 9.08127 12.0083 8.85328 12.3003 8.77329C12.4482 8.73329 12.4643 8.71729 12.3682 8.71329C12.0754 8.63588 11.8061 8.48752 11.5843 8.28134C11.3899 8.04524 11.2739 7.75446 11.2523 7.4494C11.2251 7.26243 11.167 7.08129 11.0803 6.91344C10.9506 6.71281 10.7589 6.56007 10.5343 6.47849C10.3097 6.39689 10.0647 6.39092 9.8364 6.46147Z" fill="white"/>
<path d="M14.6717 6.40825C14.6397 6.42025 14.5477 6.44425 14.4637 6.46025C14.0998 6.54024 13.7358 7.03621 13.7318 7.46018C13.7318 7.75215 13.5518 8.12412 13.3078 8.33611C13.0518 8.55609 12.9478 8.59609 12.5358 8.65608C12.1239 8.70808 11.9719 8.76807 11.7759 8.95206C11.54 9.16804 11.456 9.36003 11.4 9.792C11.312 10.4959 10.976 10.8198 10.2001 10.9518C9.64812 11.0478 9.38813 11.2118 9.22415 11.5637C9.08416 11.8678 9.08815 12.1797 9.23615 12.4837C9.39613 12.8117 9.69611 12.9997 10.1561 13.0557C10.756 13.1277 11.124 13.3677 11.316 13.8116L11.4079 14.0316L11.48 13.8676C11.568 13.6557 11.8959 13.3397 12.0639 13.2997C12.2319 13.2597 12.2279 13.1877 12.0519 13.1437C11.852 13.0957 11.5199 12.7957 11.3879 12.5357C11.228 12.2237 11.236 11.7717 11.4079 11.4358C11.6039 11.0638 11.908 10.8758 12.4238 10.8039C12.9118 10.7399 13.0918 10.6599 13.2958 10.4198C13.4558 10.2359 13.5358 9.99598 13.5918 9.57201C13.621 9.38967 13.6903 9.21608 13.7947 9.06378C13.8992 8.91147 14.0361 8.78424 14.1957 8.69127C14.3553 8.59829 14.5334 8.54188 14.7174 8.52611C14.9014 8.51035 15.0866 8.53561 15.2597 8.60008C15.7077 8.78407 15.9357 9.10004 16.0396 9.688C16.1317 10.1959 16.1676 10.2759 16.3916 10.4879C16.5916 10.6678 16.7436 10.7278 17.1515 10.7838C17.9314 10.8879 18.3995 11.4158 18.3395 12.1317C18.2875 12.7357 17.8635 13.1237 17.1515 13.2237C16.4437 13.3237 16.1317 13.6396 16.0396 14.3436C15.9716 14.8556 15.7597 15.1716 15.3357 15.3835C15.0877 15.5036 14.5517 15.5076 14.2878 15.3835C14.0045 15.2417 13.7795 15.0056 13.6518 14.7156L13.5798 14.5116L13.4758 14.7436C13.3514 14.9949 13.1374 15.1904 12.8758 15.2915C12.7398 15.3397 12.7398 15.3435 12.9758 15.4395C13.2318 15.5395 13.5318 15.8315 13.6278 16.0795C13.6598 16.1594 13.7078 16.3875 13.7398 16.5875C13.8038 17.0354 13.9958 17.3274 14.3278 17.4833C14.4855 17.5649 14.6613 17.6054 14.8389 17.601C15.0165 17.5964 15.1901 17.5473 15.3436 17.4579C15.4971 17.3687 15.6256 17.2421 15.7172 17.0899C15.8088 16.9378 15.8605 16.7649 15.8676 16.5875C15.9716 15.8076 16.3636 15.4275 17.1555 15.3316C17.7555 15.2596 18.0955 14.9275 18.1834 14.3196C18.2555 13.8236 18.3435 13.6277 18.6235 13.3837C18.8594 13.1717 19.1514 13.0557 19.4634 13.0557C19.6913 13.0389 19.9088 12.9535 20.0872 12.8107C20.2658 12.6679 20.3968 12.4745 20.4633 12.2557C20.6353 11.6237 20.1833 11.0438 19.4473 10.9518C18.6474 10.8559 18.3155 10.5278 18.1874 9.724C18.16 9.51427 18.0921 9.31186 17.9874 9.12804C17.8847 8.99414 17.7536 8.88457 17.6035 8.80714C17.4535 8.72971 17.2882 8.68634 17.1195 8.68008C16.8276 8.68008 16.3597 8.4641 16.1716 8.24012C16.0036 8.04413 15.9236 7.83215 15.8717 7.42018C15.8556 7.24796 15.8003 7.08169 15.7103 6.93404C15.6201 6.7864 15.4975 6.66129 15.3517 6.56824C15.1357 6.45625 14.7877 6.36826 14.6717 6.40825Z" fill="white"/>
</g>
<defs>
<clipPath id="clip0_328_31858">
<rect width="24" height="24" fill="white" transform="translate(0.5)"/>
</clipPath>
</defs>
</svg>
