<svg width="24" height="24" viewBox="0 0 24 24" fill="none" xmlns="http://www.w3.org/2000/svg">
<g clip-path="url(#clip0_328_31866)">
<path d="M24 0H0V24H24V0Z" fill="#DA1B28"/>
<path fill-rule="evenodd" clip-rule="evenodd" d="M11.9999 3L6.9375 5.50311L11.9999 8.06248L17.0625 5.50311L11.9999 3ZM9.18748 7.3031V12.7144L7.5 14.3287L9.18748 15.9206V21H14.8125V15.9206L16.5 14.3287L14.8125 12.9619V7.3031L11.9999 10.0593L9.18748 7.3031ZM14.2501 16.4098V20.4823H9.75011L14.2501 16.4098ZM14.2501 8.69238L8.40008 14.2893H8.39444L8.92882 14.8911V14.486L9.75011 13.783V19.7061L15.6282 14.2893L15.0319 13.6985V14.143L14.2501 14.818V8.69238ZM9.75011 8.73175V12.2473L11.4431 10.5993L9.75011 8.73175ZM12.0001 3.55114L8.05132 5.49739L12.0001 7.48864L15.9544 5.49739L12.0001 3.55114Z" fill="white"/>
</g>
<defs>
<clipPath id="clip0_328_31866">
<rect width="24" height="24" fill="white"/>
</clipPath>
</defs>
</svg>
