<svg width="24" height="24" viewBox="0 0 24 24" fill="none" xmlns="http://www.w3.org/2000/svg">
<g clip-path="url(#clip0_328_29054)">
<path d="M24 0H0V24H24V0Z" fill="url(#paint0_linear_328_29054)"/>
<path d="M12.2261 13.3563C12.5861 13.3563 12.9314 13.2132 13.1861 12.9586C13.4406 12.7041 13.5836 12.3588 13.5836 11.9988C13.5836 11.6388 13.4406 11.2934 13.1861 11.0388C12.9314 10.7843 12.5861 10.6412 12.2261 10.6412C11.8661 10.6412 11.5209 10.7843 11.2663 11.0388C11.0117 11.2934 10.8687 11.6388 10.8687 11.9988C10.8687 12.3588 11.0117 12.7041 11.2663 12.9586C11.5209 13.2132 11.8661 13.3563 12.2261 13.3563ZM10.4161 7.02137C10.6562 7.02137 10.8864 6.92604 11.0561 6.75632C11.2258 6.58661 11.3212 6.35642 11.3212 6.11641C11.3212 5.87638 11.2258 5.64621 11.0561 5.47649C10.8864 5.30678 10.6562 5.21143 10.4161 5.21143C10.1762 5.21143 9.946 5.30678 9.7763 5.47649C9.60657 5.64621 9.51123 5.87638 9.51123 6.11641C9.51123 6.35642 9.60657 6.58661 9.7763 6.75632C9.946 6.92604 10.1762 7.02137 10.4161 7.02137ZM18.5384 12.4512C18.2383 12.4512 17.9506 12.5704 17.7385 12.7825C17.5263 12.9948 17.4072 13.2824 17.4072 13.5825C17.4072 13.8824 17.5263 14.1702 17.7385 14.3824C17.9506 14.5945 18.2383 14.7137 18.5384 14.7137C18.8385 14.7137 19.1261 14.5945 19.3382 14.3824C19.5504 14.1702 19.6696 13.8824 19.6696 13.5825C19.6696 13.2824 19.5504 12.9948 19.3382 12.7825C19.1261 12.5704 18.8385 12.4512 18.5384 12.4512Z" fill="white"/>
<path d="M16.7964 9.47827C17.4208 7.55971 17.3394 6.04388 16.4434 5.45112C15.448 4.80858 13.7602 5.50542 12.009 7.14794C11.8688 7.01673 11.7285 6.89455 11.5927 6.77691C11.5207 6.93859 11.4177 7.08462 11.2896 7.20678C11.4026 7.30632 11.5248 7.40587 11.629 7.50994C11.1764 7.96696 10.7511 8.44658 10.3529 8.94886C9.47058 9.01221 8.58822 9.14342 7.7285 9.34704C7.19456 7.69998 7.20814 6.41039 7.90498 5.95338C8.05988 5.86462 8.23128 5.8084 8.40867 5.78818C8.58606 5.76794 8.76572 5.78413 8.93664 5.83574C8.99094 5.65474 9.08143 5.48732 9.20813 5.338C8.55202 5.14342 7.98642 5.16605 7.55202 5.45565C6.6561 6.04388 6.57918 7.55971 7.20361 9.47827C5.2353 10.0303 4 10.9352 4 12.0031C4 13.0711 5.2353 13.9669 7.20361 14.5236C7.14931 14.691 7.09954 14.8538 7.05882 15.0167H7.13574C7.28958 15.0167 7.44342 15.0394 7.58823 15.0892C7.62895 14.9488 7.66967 14.804 7.71945 14.6593C8.5837 14.8538 9.46606 14.985 10.3529 15.0438C10.7534 15.5464 11.1807 16.0268 11.6334 16.4828C10.1086 17.89 8.67873 18.5507 7.90498 18.0394C7.77569 17.9528 7.66746 17.8384 7.58823 17.7044C7.38914 17.7724 7.18098 17.7951 6.97284 17.7634C7.08144 18.0801 7.28958 18.3516 7.56107 18.5416C8.55655 19.1977 10.2398 18.5008 12.0045 16.8492C13.7602 18.5008 15.4434 19.2022 16.4434 18.5416C17.3439 17.9534 17.4208 16.4375 16.7964 14.5144C16.9774 14.4692 17.1584 14.4104 17.3258 14.356C17.2172 14.2159 17.1402 14.0575 17.0905 13.89L16.6154 14.0348C16.3494 13.338 16.035 12.6605 15.6742 12.0076C16.0362 11.3561 16.353 10.6773 16.6154 9.9805C18.3031 10.4467 19.3846 11.1887 19.3846 12.0076C19.3846 12.1571 19.3483 12.3018 19.285 12.433C19.4525 12.5552 19.5928 12.7136 19.6923 12.8945C19.8868 12.6366 19.9954 12.3244 20 12.0031C20 10.9352 18.7647 10.0303 16.7964 9.47827ZM11.9999 7.87194C12.3167 8.18868 12.638 8.53709 12.9458 8.91265C12.6334 8.89909 12.3122 8.89002 11.9999 8.89002C11.6832 8.89002 11.3575 8.89002 11.0588 8.91265C11.3575 8.53709 11.6788 8.18868 11.9999 7.87194ZM9.91854 9.49637C9.45134 10.1261 9.01785 10.78 8.6199 11.4556C8.34506 10.9276 8.10179 10.3836 7.89139 9.82669C8.55655 9.67736 9.23529 9.56876 9.91402 9.5009L9.91854 9.49637ZM7.37556 14.0213C5.68778 13.5597 4.60633 12.8176 4.60633 11.9987C4.60633 11.1796 5.6923 10.4467 7.37556 9.97152C7.64255 10.6687 7.95858 11.3461 8.32126 11.9987C7.95927 12.6502 7.64253 13.329 7.38009 14.0258L7.37556 14.0213ZM7.88686 14.1569C8.09502 13.6004 8.33936 13.0574 8.61085 12.528C8.85066 12.9262 9.08597 13.3244 9.37103 13.7226C9.55203 13.9941 9.73302 14.2476 9.91402 14.4919C9.23529 14.424 8.55655 14.3109 7.88686 14.1569ZM9.79638 13.442C9.48034 12.9735 9.1815 12.4936 8.90044 12.0031C9.40822 11.1124 9.97984 10.2593 10.6108 9.45111C11.5345 9.38903 12.461 9.38903 13.3846 9.45111C14.0156 10.2578 14.5873 11.1092 15.095 11.9987C14.5886 12.8893 14.0186 13.7422 13.3892 14.5507C12.4654 14.6079 11.5391 14.6079 10.6154 14.5507C10.3394 14.1977 10.0679 13.8267 9.8009 13.4376L9.79638 13.442ZM11.0453 15.0846C11.353 15.0982 11.6697 15.1028 11.9864 15.1028C12.3032 15.1028 12.629 15.1028 12.9321 15.0846C12.6154 15.4601 12.2941 15.8085 11.9864 16.1253C11.6788 15.8085 11.3575 15.4601 11.0453 15.0846ZM16.0995 18.0394C15.3302 18.5461 13.896 17.89 12.371 16.4828C12.8234 16.0257 13.2534 15.5462 13.6515 15.0438C14.5384 14.9805 15.4163 14.8493 16.276 14.6502C16.81 16.2928 16.7964 17.5733 16.0995 18.0394ZM16.0995 14.1525C15.4344 14.3109 14.7556 14.424 14.0724 14.4873C14.5416 13.859 14.9751 13.2049 15.371 12.528C15.6474 13.056 15.8922 13.6 16.1041 14.1569L16.0995 14.1525ZM15.3756 11.4602C15.1402 11.0711 14.905 10.6684 14.6245 10.2701C14.4434 10.0076 14.2624 9.74976 14.077 9.5009C14.7556 9.56876 15.4344 9.68188 16.1041 9.83574C15.8958 10.3923 15.6515 10.9352 15.3801 11.4647L15.3756 11.4602ZM16.2805 9.34704C15.4163 9.14342 14.5384 9.01221 13.6561 8.94886C13.2558 8.4463 12.8282 7.96594 12.3756 7.50994C13.896 6.1027 15.3302 5.4466 16.1041 5.9579C16.7964 6.41039 16.81 7.69998 16.276 9.34704H16.2805Z" fill="white"/>
<path d="M8.60618 16.751C8.60618 16.4509 8.487 16.1632 8.27486 15.951C8.06272 15.7388 7.77497 15.6196 7.47496 15.6196C7.17494 15.6196 6.88721 15.7388 6.67507 15.951C6.46293 16.1632 6.34375 16.4509 6.34375 16.751C6.34375 17.0509 6.46293 17.3386 6.67507 17.5508C6.88721 17.7629 7.17494 17.8821 7.47496 17.8821C7.77497 17.8821 8.06272 17.7629 8.27486 17.5508C8.487 17.3386 8.60618 17.0509 8.60618 16.751Z" fill="white"/>
</g>
<defs>
<linearGradient id="paint0_linear_328_29054" x1="8.00003" y1="17.8793" x2="14.1938" y2="5.23598" gradientUnits="userSpaceOnUse">
<stop stop-color="#383D63"/>
<stop offset="0.23" stop-color="#693566"/>
<stop offset="0.48" stop-color="#982D6A"/>
<stop offset="0.7" stop-color="#BB276C"/>
<stop offset="0.88" stop-color="#D0236D"/>
<stop offset="1" stop-color="#D8226E"/>
</linearGradient>
<clipPath id="clip0_328_29054">
<rect width="24" height="24" fill="white"/>
</clipPath>
</defs>
</svg>
