<svg width="24" height="24" viewBox="0 0 24 24" fill="none" xmlns="http://www.w3.org/2000/svg">
<g clip-path="url(#clip0_328_53384)">
<path d="M24 0H0V24H24V0Z" fill="#EE99D0"/>
<path d="M20.9478 11.8101L18.011 6.97854C17.9731 6.92021 17.9211 6.8723 17.8598 6.83921C17.7986 6.80611 17.7301 6.78886 17.6604 6.78906H11.7868C11.6447 6.78906 11.5121 6.86486 11.441 6.97854L9.02524 10.9669C9.00353 11.0008 8.97162 11.0266 8.93416 11.0411C8.89672 11.0557 8.85562 11.0579 8.81682 11.0474C8.77962 11.0382 8.74651 11.0168 8.72255 10.9869C8.69858 10.9569 8.68512 10.92 8.68418 10.8816V9.43694C8.68418 7.978 7.32946 6.78906 5.79474 6.78906H3.40737C3.18947 6.78906 3 6.96905 3 7.17274V9.43694C3 10.4838 3.77685 11.4501 4.78579 11.8433C4.85211 11.8716 4.89474 11.9333 4.89474 11.9995C4.89474 12.0705 4.84736 12.1322 4.78579 12.1605C3.77211 12.5491 3 13.5155 3 14.5622V16.8216C3 17.0348 3.18947 17.21 3.40737 17.21H5.79C7.32946 17.21 8.67946 16.0211 8.67946 14.5574V13.1176C8.68007 13.0944 8.68521 13.0718 8.69459 13.0507C8.70398 13.0297 8.7174 13.0107 8.73411 12.9949C8.75084 12.9791 8.77051 12.9666 8.79202 12.9584C8.81351 12.9502 8.83644 12.9462 8.85946 12.947C8.89131 12.9463 8.92275 12.954 8.9509 12.9689C8.97906 12.9839 9.003 13.0055 9.02051 13.0322L11.4364 17.0159C11.5121 17.1343 11.6447 17.21 11.7915 17.21H17.6604C17.8025 17.21 17.94 17.1343 18.011 17.0205L20.9478 12.1891C20.982 12.1317 21 12.0662 21 11.9995C21.0004 11.9328 20.9824 11.8672 20.9478 11.8101ZM14.842 13.8943C14.3395 13.8943 13.8576 13.6946 13.5023 13.3393C13.147 12.984 12.9472 12.5021 12.9472 11.9995C12.9472 11.4971 13.147 11.015 13.5023 10.6598C13.8576 10.3045 14.3395 10.1048 14.842 10.1048C15.3446 10.1048 15.8266 10.3045 16.1818 10.6598C16.5371 11.015 16.7368 11.4971 16.7368 11.9995C16.7368 12.5021 16.5371 12.984 16.1818 13.3393C15.8266 13.6946 15.3446 13.8943 14.842 13.8943Z" fill="black"/>
</g>
<defs>
<clipPath id="clip0_328_53384">
<rect width="24" height="24" fill="white"/>
</clipPath>
</defs>
</svg>
