<svg width="24" height="24" viewBox="0 0 24 24" fill="none" xmlns="http://www.w3.org/2000/svg">
<g clip-path="url(#clip0_328_46388)">
<path d="M24 0H0V24H24V0Z" fill="url(#paint0_linear_328_46388)"/>
<path fill-rule="evenodd" clip-rule="evenodd" d="M6.71283 8.65825C6.7037 8.58053 6.69455 8.50739 6.71283 8.42967C6.71283 8.41596 6.71741 8.41139 6.72655 8.42967C6.81799 8.68567 6.89569 8.94624 6.95969 9.21138C6.98255 9.30281 7.00999 9.3851 7.04199 9.47194L7.08769 9.61824C7.22369 10.0097 7.42121 10.3769 7.67283 10.7062C7.67603 10.7069 7.67931 10.7067 7.68247 10.7059C7.68561 10.7051 7.68857 10.7037 7.69111 10.7016C7.73683 10.656 7.76426 10.6102 7.80083 10.56L7.90139 10.4274L8.03854 10.2582L8.17567 10.08C8.24425 10.0114 8.30367 9.94281 8.35853 9.86505L8.58711 9.60452L8.88424 9.29366C8.94824 9.2251 8.93911 9.14281 8.92539 9.0651C8.80219 8.36356 8.5918 7.68018 8.29911 7.03083C8.18482 6.77027 8.07054 6.50513 7.93339 6.2537C7.92703 6.23754 7.92703 6.21958 7.93339 6.20342C7.93339 6.17598 7.95168 6.17598 7.96539 6.19884L8.57339 6.99426C8.73796 7.20912 8.92539 7.5154 9.13567 7.91768C9.25452 8.13711 9.35052 8.36111 9.42367 8.5851C9.53338 8.92338 9.5928 9.24794 9.59738 9.54966C9.6031 10.1437 9.40096 10.721 9.02596 11.1816C9.02271 11.1843 9.01869 11.1857 9.01453 11.1857C9.01038 11.1857 9.00635 11.1843 9.00311 11.1816C8.99861 11.1777 8.99506 11.1726 8.99269 11.1671C8.99032 11.1617 8.98919 11.1557 8.98939 11.1496C8.9913 11.0135 8.97281 10.8779 8.93453 10.7474C8.92571 10.737 8.91367 10.7301 8.90037 10.7277C8.88707 10.7252 8.87332 10.7272 8.86139 10.7336C8.82024 10.761 8.78367 10.7885 8.74711 10.825C8.66481 10.8982 8.63739 10.88 8.66483 10.7702C8.70351 10.6177 8.7603 10.4704 8.83396 10.3314C8.83412 10.3284 8.83332 10.3254 8.83168 10.323C8.83003 10.3205 8.82762 10.3186 8.82481 10.3176H8.81567C8.77967 10.3278 8.7467 10.3466 8.71967 10.3726C8.34939 10.697 7.98826 11.0582 7.66826 11.4376C7.56312 11.5656 7.43968 11.6982 7.29798 11.8308C7.25937 11.8667 7.23503 11.9154 7.2294 11.9679C7.1712 12.495 7.2021 13.0282 7.32083 13.545L7.30255 13.5726C7.18645 13.6726 7.07938 13.7828 6.98255 13.9016L6.98712 13.9154L6.99627 13.9246L7.01455 13.929C7.14255 13.929 7.26598 13.9428 7.39398 13.9794C7.40305 13.981 7.4114 13.9854 7.41793 13.9919C7.42446 13.9985 7.42886 14.0069 7.43055 14.0159C7.43223 14.0241 7.43186 14.0325 7.42946 14.0405C7.42707 14.0485 7.42273 14.0558 7.41683 14.0616C7.04576 14.4348 6.73293 14.8617 6.48884 15.3279C6.42942 15.4422 6.45227 15.4605 6.55283 15.3736L6.63055 15.3005C6.66713 15.2639 6.7037 15.2274 6.74941 15.1954C6.86369 15.113 6.97799 15.0216 7.10141 14.921L7.30255 14.7839L7.49912 14.6467C7.5494 14.601 7.60883 14.6239 7.62255 14.6925C7.63626 14.7656 7.56312 14.9074 7.5174 14.9942L7.50368 15.0262C7.39769 15.261 7.35363 15.5192 7.37569 15.7759C7.39163 15.9126 7.40231 16.0498 7.40769 16.1874C7.41075 16.1917 7.41487 16.1952 7.41965 16.1977C7.42444 16.2 7.42977 16.2012 7.43512 16.201L7.44883 16.1965C7.6236 16.0764 7.79148 15.9467 7.95168 15.8079H7.96082L7.96997 15.817C8.04768 15.9359 8.09797 16.0639 8.14825 16.1874C8.1911 16.3106 8.24148 16.4313 8.29911 16.5485C8.32654 16.6307 8.35853 16.713 8.40882 16.777L8.59167 17.0102C8.77453 17.2524 9.01224 17.4215 9.30938 17.4673C9.33224 17.4673 9.3551 17.481 9.3688 17.4947C9.3871 17.513 9.39167 17.5313 9.39167 17.5587C9.38252 17.7735 9.4008 17.993 9.4511 18.2125C9.49223 18.3815 9.56995 18.5415 9.64766 18.7061C9.69338 18.7975 9.73909 18.8935 9.78023 18.9941C9.89454 19.2867 10.1094 19.5245 10.3288 19.7255L10.4111 19.7803L10.5482 19.8353C10.7997 19.9495 11.0419 20.0593 11.3345 19.9633C11.5174 19.9083 11.7002 19.8261 11.8831 19.7301C11.9471 19.6935 12.0065 19.6935 12.0659 19.721L12.4682 19.913C12.8431 20.0913 13.1997 19.9587 13.5607 19.7575C13.7693 19.6155 13.9428 19.4279 14.0682 19.209C14.1367 19.0398 14.2053 18.8843 14.2922 18.729C14.3242 18.6695 14.3471 18.6055 14.3699 18.5415L14.4157 18.4319C14.5299 18.1575 14.5573 17.8285 14.5437 17.5267C14.5423 17.5129 14.5463 17.499 14.5547 17.488C14.5632 17.4769 14.5755 17.4695 14.5893 17.4673C15.0327 17.4307 15.2751 17.1153 15.5219 16.7907L15.5493 16.7542C15.6179 16.6627 15.6682 16.5805 15.7047 16.4982C15.8059 16.2733 15.9019 16.0462 15.9927 15.817H16.0019C16.0796 15.8444 16.1391 15.8764 16.2031 15.9314C16.3036 16.0136 16.4041 16.0914 16.5139 16.169C16.5276 16.1782 16.5413 16.1782 16.5551 16.1782C16.5599 16.1782 16.5646 16.1762 16.5679 16.1728C16.5714 16.1694 16.5733 16.1647 16.5733 16.1599L16.6145 15.7302C16.63 15.461 16.5732 15.1926 16.4499 14.953C16.4015 14.8607 16.3663 14.7624 16.3447 14.6605C16.3455 14.6493 16.35 14.6389 16.3575 14.6306C16.365 14.6223 16.3749 14.6168 16.3859 14.6147C16.4545 14.6056 16.5916 14.7062 16.6601 14.7519L16.6693 14.7564C16.9671 14.9656 17.2539 15.1899 17.5287 15.4284C17.5653 15.4376 17.5745 15.4284 17.5561 15.3919L17.5059 15.3187C17.4876 15.2914 17.4647 15.2639 17.4511 15.2319C17.3505 15.049 17.2545 14.8936 17.1631 14.7564C17.0259 14.5416 16.8293 14.3267 16.5825 14.1074C16.5185 14.0479 16.5459 13.9702 16.6281 13.9564C16.7374 13.9374 16.8471 13.9222 16.9573 13.9108C16.9639 13.9054 16.9684 13.8978 16.9701 13.8895C16.9718 13.8812 16.9705 13.8726 16.9665 13.865C16.899 13.7431 16.7993 13.6418 16.6785 13.5726C16.6697 13.5678 16.6627 13.5602 16.6585 13.5512C16.6545 13.5422 16.6534 13.5319 16.6556 13.5222C16.7333 13.1702 16.7791 12.809 16.7881 12.4479C16.7881 12.3336 16.7745 12.2286 16.7653 12.1279L16.7516 11.9908C16.7451 11.9125 16.7129 11.8386 16.6601 11.7806L16.2807 11.3828C15.9845 11.0328 15.6637 10.7044 15.3207 10.4C15.2797 10.368 15.2477 10.336 15.2019 10.3176C15.1982 10.3156 15.1938 10.315 15.1896 10.3158C15.1855 10.3167 15.1818 10.3189 15.1791 10.3222C15.1764 10.3254 15.1751 10.3295 15.1751 10.3336C15.1751 10.3378 15.1764 10.3418 15.1791 10.345C15.2522 10.528 15.3162 10.7016 15.3619 10.8525C15.3711 10.8708 15.3619 10.8845 15.3437 10.889C15.3326 10.8903 15.3215 10.889 15.3111 10.885C15.3008 10.881 15.2915 10.8746 15.2842 10.8662L15.2659 10.848C15.2202 10.8022 15.1562 10.729 15.1059 10.7108C15.1005 10.7102 15.0951 10.7106 15.0898 10.7121C15.0846 10.7136 15.0797 10.7162 15.0754 10.7195C15.0711 10.723 15.0676 10.7271 15.0651 10.7319C15.0624 10.7367 15.0608 10.7419 15.0602 10.7474C15.025 10.8896 15.005 11.0352 15.0007 11.1816L14.9917 11.1908C14.9867 11.1926 14.9813 11.1928 14.9763 11.1911C14.9713 11.1894 14.9671 11.1861 14.9642 11.1816C14.8087 11.0072 14.6863 10.8058 14.6031 10.5874C14.4943 10.3335 14.4293 10.063 14.4111 9.7874C14.3909 9.2951 14.4815 8.80456 14.6762 8.35196C14.7677 8.14168 14.8591 7.92682 14.9779 7.72568C15.2455 7.25533 15.553 6.80875 15.8967 6.39084C15.9425 6.32684 15.9881 6.26284 16.0431 6.20798C16.0933 6.15314 16.1071 6.16228 16.0796 6.22628L16.0476 6.3177C16.0111 6.40456 15.9791 6.49142 15.9287 6.57827C15.8647 6.68798 15.8099 6.80683 15.7551 6.93027C15.6407 7.19997 15.5447 7.44226 15.4625 7.65254C15.2693 8.16838 15.1389 8.70557 15.0739 9.25252L15.0922 9.27538C15.2887 9.46738 15.4807 9.6594 15.6545 9.87881L15.8556 10.1256C16.0065 10.3085 16.1619 10.4914 16.3036 10.6925C16.3219 10.7154 16.3356 10.7154 16.3539 10.6925C16.6099 10.3542 16.8065 9.97022 16.9436 9.54966C17.0671 9.1611 17.1767 8.78167 17.2773 8.40682C17.2865 8.36567 17.2956 8.36567 17.3001 8.40682C17.3093 8.49825 17.3001 8.5851 17.2911 8.67195L17.2773 8.82281C17.2491 9.42426 17.1289 10.0178 16.9207 10.5828L16.6739 11.1726C16.6556 11.2182 16.6601 11.273 16.6967 11.3096C16.7653 11.3828 16.8111 11.4606 16.8431 11.552C16.8476 11.5748 16.8613 11.5885 16.8796 11.6022C16.8825 11.6035 16.8856 11.6042 16.8887 11.6042C16.8919 11.6042 16.895 11.6035 16.8979 11.6022H16.9025L16.9071 11.5976C16.9985 11.4422 17.0807 11.2868 17.1356 11.1314L17.2499 10.8708C17.2911 10.7794 17.3321 10.6926 17.3641 10.6056L17.5333 10.1622C18.2035 8.18531 18.486 6.09766 18.3653 4.01373L18.3516 4.00459L18.3379 4.00916C17.0387 4.79214 15.8372 5.72668 14.7585 6.79313L14.3471 7.25026C13.9925 7.65237 13.6858 8.09417 13.4327 8.56682C13.4099 8.61253 13.3642 8.62625 13.3139 8.61253L12.7654 8.50739C12.1025 8.39162 11.4224 8.42126 10.7722 8.59425L10.6122 8.62625C10.6026 8.62785 10.5927 8.62596 10.5843 8.62094C10.5759 8.61591 10.5696 8.60807 10.5666 8.59882C10.5101 8.45136 10.4381 8.31037 10.3517 8.17826C10.1917 7.93596 10.0134 7.68912 9.81223 7.42397C9.7391 7.33254 9.66138 7.25026 9.58366 7.16797L9.41452 6.97598C9.34138 6.88455 9.26367 6.7977 9.17681 6.70627C9.05339 6.57827 8.92539 6.46398 8.79739 6.3497C8.71511 6.27656 8.62825 6.20342 8.54597 6.12114C8.03947 5.67046 7.51 5.24629 6.95969 4.8503C6.53888 4.56043 6.1137 4.27697 5.68428 4.00001C5.67359 3.99979 5.66315 4.00334 5.6548 4.01003C5.64645 4.01671 5.64071 4.0261 5.63856 4.03659C5.56098 5.25321 5.6285 6.47474 5.83971 7.6754C5.95836 8.37091 6.12175 9.05804 6.32884 9.73257C6.41113 10.0068 6.55283 10.3725 6.74483 10.848C6.85006 11.0982 6.97225 11.3411 7.11055 11.5748C7.11483 11.5768 7.11952 11.5779 7.12427 11.5779C7.12901 11.5779 7.1337 11.5768 7.13799 11.5748L7.15169 11.561L7.30255 11.3142C7.34369 11.2456 7.35283 11.1634 7.31627 11.0856C7.013 10.5124 6.82655 9.88467 6.76769 9.23881C6.74922 9.0453 6.73093 8.85178 6.71283 8.65825ZM13.9585 14.5827C14.5893 14.6056 15.0877 14.1987 15.0693 13.5496C15.0693 13.5314 15.0557 13.5222 15.0373 13.5314L14.9917 13.545L14.9231 13.5679L13.9722 13.737C13.9495 13.7398 13.9277 13.7479 13.9086 13.7606C13.8896 13.7733 13.8738 13.7902 13.8625 13.8102C13.73 14.0423 13.608 14.2802 13.4967 14.5234C13.4973 14.5308 13.4996 14.5381 13.5036 14.5445C13.5076 14.5509 13.5131 14.5562 13.5197 14.5599C13.6659 14.568 13.8122 14.5756 13.9585 14.5827ZM9.44652 14.377C9.32658 14.2733 9.23055 14.1448 9.16504 14.0004C9.09954 13.8559 9.06613 13.699 9.0671 13.5406H9.07624L10.1917 13.7416C10.2057 13.7439 10.219 13.7493 10.2309 13.7572C10.2427 13.765 10.2527 13.7753 10.2602 13.7874L10.6397 14.4639C10.6444 14.4716 10.6474 14.4802 10.6486 14.4891C10.6498 14.4981 10.649 14.5071 10.6464 14.5158C10.6439 14.5244 10.6394 14.5324 10.6335 14.5391C10.6277 14.5459 10.6204 14.5515 10.6122 14.5554C10.3985 14.584 10.1823 14.5886 9.96771 14.569C9.77978 14.5533 9.59967 14.487 9.44652 14.377ZM11.2614 18.9073C11.4396 19.0154 11.64 19.0814 11.8476 19.1005C12.0551 19.1194 12.2643 19.0909 12.4591 19.017C12.7379 18.9163 13.0305 18.6695 13.0077 18.3495C12.9939 18.1667 12.8705 18.0524 12.7517 17.9335L12.7425 17.9245C12.7059 17.8833 12.6511 17.8833 12.6054 17.9015C12.4362 17.9655 12.2487 18.0022 12.0385 18.0113C11.7923 18.0198 11.546 17.9937 11.3071 17.9335C11.1608 17.897 11.0557 18.0525 10.9917 18.1667C10.9506 18.2399 10.9322 18.3222 10.9277 18.4182C10.9231 18.6147 11.1106 18.825 11.2614 18.9073Z" fill="white"/>
</g>
<defs>
<linearGradient id="paint0_linear_328_46388" x1="5.60754" y1="9.52571" x2="18.9306" y2="13.3013" gradientUnits="userSpaceOnUse">
<stop stop-color="#042457"/>
<stop offset="0.49" stop-color="#050C22"/>
<stop offset="1" stop-color="#042459"/>
</linearGradient>
<clipPath id="clip0_328_46388">
<rect width="24" height="24" fill="white"/>
</clipPath>
</defs>
</svg>
