<svg width="24" height="24" viewBox="0 0 24 24" fill="none" xmlns="http://www.w3.org/2000/svg">
<g clip-path="url(#clip0_328_36534)">
<path d="M24 0H0V24H24V0Z" fill="url(#paint0_linear_328_36534)"/>
<path d="M5.53125 16.3726C6.20123 17.2694 7.06062 18.02 8.05308 18.5748C9.04557 19.1297 10.1486 19.4764 11.2901 19.5922C10.7029 18.7415 9.84925 17.959 8.78358 17.3633C7.71793 16.7674 6.58938 16.4421 5.53125 16.3726Z" fill="white"/>
<path d="M10.2159 14.9911C8.16278 13.8431 5.94061 13.5505 4.35059 14.0673C4.50408 14.5556 4.70653 15.0285 4.95505 15.4791C6.3365 15.4483 7.84483 15.8092 9.2483 16.5939C10.6517 17.3785 11.7253 18.4614 12.3821 19.6319C12.9122 19.6163 13.4394 19.5512 13.9565 19.4379C13.635 17.8527 12.2685 16.1394 10.2159 14.9911Z" fill="white"/>
<path d="M20 10.3309C19.739 9.30899 19.2668 8.34816 18.6113 7.5058C17.956 6.66345 17.1309 5.95685 16.1854 5.42819C15.2401 4.89955 14.1936 4.55968 13.1088 4.42889C12.0239 4.2981 10.9228 4.37907 9.87109 4.66698C11.628 4.87392 13.5782 5.50875 15.4907 6.57815C17.4032 7.64757 18.9435 8.96351 20 10.3309Z" fill="white"/>
<path d="M17.4436 14.0777C16.5444 12.6401 15.0038 11.2636 13.1061 10.2025C11.2083 9.14136 9.20331 8.53524 7.46198 8.49514C5.93001 8.46022 4.78023 8.88886 4.30827 9.6709C4.30559 9.67553 4.30183 9.67992 4.29886 9.6846C4.2564 9.83131 4.21985 9.97816 4.18652 10.1257C4.84555 9.87525 5.60911 9.73581 6.45813 9.72027C8.34622 9.68616 10.4592 10.2674 12.4093 11.3578C14.359 12.4482 15.9317 13.9276 16.8358 15.5227C17.2409 16.2413 17.4939 16.9487 17.5941 17.6247C17.7108 17.5244 17.8252 17.4205 17.9364 17.3127C17.9392 17.3078 17.9412 17.3026 17.944 17.2975C18.4161 16.5146 18.2336 15.3413 17.4436 14.0777Z" fill="white"/>
<path d="M11.662 12.5952C8.75582 10.9701 5.54433 10.7157 4 11.8496C4.00303 12.2046 4.03122 12.559 4.0844 12.9103C4.53869 12.7778 5.00688 12.6943 5.48036 12.6615C7.20611 12.5365 9.1087 12.9993 10.8353 13.9653C12.5618 14.9312 13.9228 16.2934 14.6651 17.7972C14.8704 18.2092 15.0269 18.642 15.1318 19.0874C15.4752 18.9579 15.8091 18.806 16.1313 18.6328C16.3898 16.7797 14.569 14.2205 11.662 12.5952Z" fill="white"/>
<path d="M18.9378 11.6728C18.0285 10.2369 16.4744 8.85653 14.5631 7.78842C12.652 6.7203 10.6393 6.10462 8.89224 6.05521C7.56051 6.01823 6.52899 6.32891 5.99414 6.91586C8.21495 6.5537 11.1442 7.16239 13.9835 8.74995C16.8228 10.3375 18.8239 12.4856 19.5963 14.5218C19.8612 13.7843 19.6308 12.7679 18.9378 11.6728Z" fill="white"/>
</g>
<defs>
<linearGradient id="paint0_linear_328_36534" x1="29.3469" y1="-37.8438" x2="-9.20149" y2="2.50478" gradientUnits="userSpaceOnUse">
<stop offset="0.0001" stop-color="#C7F284"/>
<stop offset="1" stop-color="#00BEF0"/>
</linearGradient>
<clipPath id="clip0_328_36534">
<rect width="24" height="24" fill="white"/>
</clipPath>
</defs>
</svg>
