<svg width="24" height="24" viewBox="0 0 24 24" fill="none" xmlns="http://www.w3.org/2000/svg">
<g clip-path="url(#clip0_328_31896)">
<path d="M24 0H0V24H24V0Z" fill="#4A5EE0"/>
<path d="M19.1617 15.5233C19.1092 15.6242 19.0608 15.7211 19.0093 15.8163C18.4904 16.7726 17.7821 17.6131 16.9274 18.2866C16.4416 18.6698 15.9131 18.9955 15.3522 19.2573C14.2142 19.7866 12.9673 20.0394 11.713 19.995C10.0393 19.94 8.42601 19.3567 7.10403 18.3288C6.4453 17.8189 5.87023 17.2093 5.39953 16.522C5.13983 16.1467 4.91459 15.7486 4.72663 15.3327C4.61707 15.0861 4.54774 14.8234 4.52129 14.5549C4.49476 14.3343 4.51229 14.1107 4.57284 13.8971C4.66262 13.5953 4.84619 13.3642 5.11063 13.1966C5.33687 13.053 5.58087 12.9642 5.85376 12.9744C6.11822 12.9838 6.34801 13.0846 6.55602 13.241C6.7889 13.4157 6.96047 13.6415 7.11158 13.8878C7.43055 14.412 7.79365 14.908 8.19694 15.3705C8.68718 15.9287 9.23698 16.4194 9.86766 16.815C10.3387 17.1102 10.8458 17.3434 11.3766 17.5088C11.7455 17.6243 12.1214 17.7042 12.5038 17.7563C12.9358 17.815 13.3704 17.8354 13.8055 17.8162C14.3304 17.7941 14.8469 17.7097 15.3567 17.5834C15.7909 17.4763 16.215 17.3389 16.6296 17.1732C17.1284 16.9775 17.6072 16.7343 18.0595 16.447C18.4617 16.1883 18.8373 15.898 19.1458 15.5278C19.147 15.526 19.151 15.5264 19.1617 15.5233ZM4.83996 8.47025C4.90219 8.35425 4.96175 8.23692 5.02531 8.12224C5.47343 7.31152 6.05922 6.58495 6.75646 5.97508C7.88474 4.98257 9.27212 4.33157 10.7566 4.09813C11.2992 4.01324 11.849 3.98331 12.3975 4.0088C13.4862 4.05854 14.5526 4.33289 15.5301 4.8146C17.0381 5.55821 18.2747 6.75652 19.0653 8.24048C19.22 8.53159 19.3626 8.82715 19.4328 9.15295C19.4928 9.43206 19.515 9.71252 19.4559 9.99389C19.424 10.1559 19.3594 10.3097 19.2662 10.4459C19.173 10.5823 19.0531 10.6982 18.9138 10.7867C18.731 10.9072 18.5337 10.9926 18.3137 11.0179C18.0479 11.0486 17.8044 10.9854 17.5785 10.8477C17.2954 10.6752 17.0866 10.4321 16.915 10.1512C16.5212 9.50806 16.0763 8.90316 15.555 8.35603C14.9998 7.77379 14.3754 7.28178 13.658 6.91199C13.1402 6.645 12.5885 6.44957 12.018 6.33108C11.4134 6.20519 10.7957 6.15517 10.1788 6.18219C9.74987 6.20042 9.32675 6.26264 8.90763 6.3533C8.32758 6.47892 7.76052 6.65836 7.2138 6.88932C6.58713 7.15332 5.99155 7.47467 5.45465 7.89602C5.24003 8.06228 5.04287 8.24991 4.86619 8.45604L4.84841 8.47559C4.84558 8.47382 4.84277 8.47205 4.83996 8.47025Z" fill="white"/>
<path d="M12.002 8.31544C14.0261 8.31277 15.6644 9.95641 15.6795 11.9688C15.6951 14.0267 14.0315 15.724 12.0038 15.725C9.97403 15.7259 8.33662 14.0373 8.32284 12.0227C8.30906 9.99416 9.95578 8.30966 12.002 8.31544ZM13.7724 12.0008C13.7808 11.9902 13.7848 11.9831 13.7902 11.9773C13.9924 11.764 14.1128 11.5119 14.1466 11.2195C14.1844 10.9278 14.12 10.632 13.9639 10.3826C13.7585 10.0528 13.307 9.85194 12.926 9.77505C12.8932 9.76838 12.8888 9.75415 12.8896 9.72438C12.8919 9.6417 12.8884 9.46526 12.8896 9.38303C12.8901 9.34481 12.8755 9.33102 12.8368 9.33147C12.6119 9.33281 12.2701 9.33725 12.0456 9.33592C12.0088 9.33592 11.9999 9.35014 12.0007 9.38259C12.0026 9.45726 11.9985 9.65282 12.0007 9.72749C12.002 9.76571 11.9883 9.78082 11.9492 9.78038C11.6052 9.77949 11.5048 9.77726 11.1607 9.77771C11.1239 9.77771 11.1114 9.7626 11.1118 9.72749C11.1132 9.65282 11.1114 9.45726 11.1114 9.38259C11.1114 9.34925 11.1012 9.33281 11.0624 9.33326C10.8371 9.33503 10.4954 9.33458 10.2705 9.33326C10.2331 9.33326 10.2207 9.34747 10.2216 9.38259C10.223 9.4537 10.2199 9.64659 10.223 9.7177C10.2252 9.76348 10.2087 9.77859 10.1633 9.77771C10.026 9.77548 9.96646 9.77726 9.8291 9.77682C9.80155 9.77682 9.77843 9.7746 9.77888 9.81682C9.78066 10.0417 9.7811 10.383 9.77843 10.6079C9.77799 10.6572 9.79621 10.6692 9.842 10.6683C9.97622 10.6657 10.0327 10.6715 10.1664 10.6692C10.21 10.6683 10.223 10.6827 10.223 10.7262C10.222 11.6728 10.2216 12.3266 10.223 13.2729C10.223 13.3227 10.2065 13.3342 10.1607 13.3334C10.0229 13.3307 9.96335 13.3324 9.82599 13.332C9.79844 13.332 9.77843 13.3334 9.77843 13.3707C9.77843 13.6018 9.7771 13.948 9.77577 14.1796C9.77577 14.2071 9.78466 14.2236 9.81622 14.2223C9.85933 14.2201 9.96646 14.2219 10.0091 14.2223H10.174C10.2105 14.2223 10.2256 14.2436 10.2242 14.28C10.222 14.3507 10.2269 14.544 10.2242 14.6152C10.223 14.6578 10.2367 14.6671 10.2807 14.6667C10.54 14.6649 10.7992 14.6649 11.0585 14.6667C11.0984 14.6667 11.1123 14.6525 11.1118 14.6152C11.1109 14.5409 11.1136 14.3484 11.1118 14.2742C11.1109 14.24 11.1208 14.2223 11.154 14.2223H11.8278L11.9425 14.2232C11.9848 14.2232 12.0048 14.2378 12.002 14.2854C11.9976 14.3595 12.0016 14.552 12.0007 14.6263C12.0007 14.6556 12.0114 14.6667 12.0421 14.6667C12.3096 14.6659 12.5769 14.6659 12.8444 14.6667C12.8755 14.6667 12.8901 14.6569 12.8896 14.624C12.8888 14.5396 12.8924 14.3623 12.8896 14.2783C12.8884 14.2427 12.8994 14.2303 12.9336 14.2213C13.018 14.1991 13.2568 14.1774 13.3377 14.1454C14.0186 13.8738 14.3422 13.0804 14.0488 12.4075C13.9813 12.2568 13.8877 12.1191 13.7724 12.0008Z" fill="white"/>
<path d="M4.43016 11.453C4.42483 11.3361 4.4146 11.2196 4.41505 11.1028C4.41637 10.7192 4.48305 10.3473 4.61772 9.98721C4.79283 9.52054 5.07196 9.12453 5.43552 8.78497C5.92381 8.32794 6.47488 7.94302 7.07202 7.64182C7.60398 7.37466 8.16425 7.16802 8.74229 7.0258C9.13663 6.92796 9.53689 6.85566 9.9405 6.80935C10.5257 6.74121 11.1158 6.72603 11.7037 6.76402C11.814 6.77113 11.9242 6.78446 12.0344 6.79514C12.0405 6.79557 12.0464 6.79868 12.058 6.80179C10.49 6.93335 9.04185 7.40982 7.71293 8.24184C6.38756 9.07119 5.29773 10.1428 4.43016 11.453ZM11.9477 17.2069C13.5113 17.0675 14.9612 16.5896 16.2905 15.7567C17.6057 14.9369 18.7237 13.8369 19.5648 12.5352C19.5715 12.6157 19.5817 12.6917 19.5835 12.7682C19.6031 13.4758 19.4222 14.1251 19.0137 14.7073C18.8457 14.9474 18.639 15.1518 18.4208 15.3451C17.8715 15.8316 17.2494 16.2294 16.5772 16.5238C15.9282 16.8073 15.2464 17.0084 14.5473 17.1221C13.8682 17.2345 13.179 17.276 12.4913 17.246C12.31 17.2386 12.129 17.2203 11.9477 17.2069Z" fill="white"/>
<path d="M11.1778 11.5553C11.112 11.5553 11.1111 11.5543 11.1111 11.4889C11.1111 11.1681 11.112 11.0472 11.1111 10.7263C11.1111 10.6845 11.1183 10.6637 11.1676 10.6641C11.7231 10.6654 12.3068 10.6623 12.8623 10.6662C13.1436 10.6685 13.3072 10.7539 13.3334 11.0041C13.3676 11.3205 13.188 11.5125 12.9218 11.5494C12.8779 11.5557 12.8329 11.5553 12.7884 11.5553C12.6627 11.5561 12.537 11.5553 12.4112 11.5553H11.1778ZM12.0404 12.4458L12.864 12.4468C13.0903 12.4513 13.2605 12.5223 13.3334 12.7357C13.4392 13.0459 13.1392 13.3357 12.8444 13.3357C12.2987 13.3366 11.7244 13.3357 11.1792 13.3357C11.1107 13.3357 11.1111 13.3357 11.1111 13.2677C11.111 13.0066 11.11 12.7456 11.1084 12.4845C11.108 12.4433 11.1307 12.4441 11.1592 12.4441C11.4436 12.4441 11.756 12.4458 12.0404 12.4458Z" fill="white"/>
</g>
<defs>
<clipPath id="clip0_328_31896">
<rect width="24" height="24" fill="white"/>
</clipPath>
</defs>
</svg>
