<svg width="24" height="24" viewBox="0 0 24 24" fill="none" xmlns="http://www.w3.org/2000/svg">
<g clip-path="url(#clip0_328_29071)">
<path d="M24 0H0V24H24V0Z" fill="#621EFD"/>
<path d="M4 7.57959H5.68415V12.5899L7.96617 10.1058H9.89446L7.19147 13.0531L9.89446 16.0003H7.96617L5.68415 13.512V16.0003H4V7.57959Z" fill="white"/>
<path d="M18.7367 16.4202C19.4343 16.4202 19.9999 15.8547 19.9999 15.1571C19.9999 14.4594 19.4343 13.894 18.7367 13.894C18.0392 13.894 17.4736 14.4594 17.4736 15.1571C17.4736 15.8547 18.0392 16.4202 18.7367 16.4202Z" fill="white"/>
<path fill-rule="evenodd" clip-rule="evenodd" d="M16.6309 16.4201V13.2623C16.6309 12.2097 16.0245 10.1045 13.5995 10.1045C10.8922 10.1045 10.3154 12.5002 10.3154 13.2623C10.3154 14.1718 10.8206 16.4201 13.1658 16.4201C14.5384 16.4201 14.9089 15.4054 14.9468 15.258V16.4201H16.6309ZM13.4731 14.7359C13.8639 14.7359 14.2388 14.5807 14.5152 14.3043C14.7915 14.0279 14.9468 13.6532 14.9468 13.2623C14.9468 12.8715 14.7915 12.4967 14.5152 12.2203C14.2388 11.944 13.8639 11.7886 13.4731 11.7886C13.0823 11.7886 12.7075 11.944 12.4311 12.2203C12.1547 12.4967 11.9995 12.8715 11.9995 13.2623C11.9995 13.6532 12.1547 14.0279 12.4311 14.3043C12.7075 14.5807 13.0823 14.7359 13.4731 14.7359Z" fill="white"/>
</g>
<defs>
<clipPath id="clip0_328_29071">
<rect width="24" height="24" fill="white"/>
</clipPath>
</defs>
</svg>
