<svg width="24" height="24" viewBox="0 0 24 24" fill="none" xmlns="http://www.w3.org/2000/svg">
<g clip-path="url(#clip0_328_29080)">
<path d="M24 0H0V24H24V0Z" fill="#1AEEC2"/>
<path d="M19.6998 11.7699L17.5269 11.8234H17.4874L17.4574 11.8304L17.4369 11.8369L17.3998 11.8529L17.3868 11.8604C17.3734 11.8681 17.3606 11.877 17.3489 11.887L15.3074 13.6069L12.2659 11.8139V10.1344L15.2914 10.4144H15.3204C15.3333 10.4152 15.3461 10.4152 15.3589 10.4144H15.3734C15.3903 10.4111 15.4071 10.4067 15.4233 10.4009L15.4614 10.382L16.9213 9.53395L19.3174 10.5874C19.3525 10.6027 19.3903 10.6108 19.4286 10.6112C19.4668 10.6117 19.5047 10.6046 19.5402 10.5901C19.5758 10.5758 19.608 10.5544 19.6352 10.5274C19.6622 10.5004 19.6837 10.4683 19.6983 10.433C19.7289 10.3613 19.7302 10.2807 19.7018 10.2083C19.6734 10.1357 19.6178 10.0773 19.5469 10.0454L17.5504 9.16895L18.7833 8.45295C18.8505 8.41336 18.8994 8.34907 18.9197 8.27383C18.94 8.19859 18.9299 8.11841 18.8919 8.05045C18.8734 8.01695 18.8485 7.98745 18.8185 7.96371C18.7886 7.93997 18.7541 7.92246 18.7173 7.91221C18.6804 7.90197 18.6419 7.89918 18.604 7.90403C18.5661 7.90889 18.5294 7.92127 18.4963 7.94046L15.5283 9.66043L15.1398 7.49346L17.5368 7.00197C17.589 6.99343 17.6378 6.97092 17.6781 6.93684C17.7184 6.90278 17.7487 6.85841 17.7658 6.80847C17.7834 6.75811 17.787 6.704 17.7767 6.65171C17.7663 6.59943 17.7422 6.55084 17.7068 6.51097C17.6719 6.47164 17.6269 6.44263 17.5766 6.42712C17.5265 6.4116 17.4729 6.41017 17.4218 6.42297L15.3834 6.84397L16.1718 5.48248C16.1978 5.43774 16.2116 5.38706 16.2121 5.33538C16.2126 5.2837 16.1998 5.23274 16.1749 5.18748C16.1502 5.1426 16.1141 5.10506 16.0701 5.07871C16.0262 5.05237 15.9761 5.03814 15.9249 5.03748C15.8738 5.03714 15.8234 5.05038 15.779 5.07586C15.7347 5.10134 15.6978 5.13813 15.6724 5.18249L14.6124 7.01347C14.6021 7.03126 14.5936 7.05001 14.5868 7.06947C14.5578 7.10265 14.5364 7.14191 14.5244 7.18437C14.5124 7.22684 14.5099 7.27145 14.5174 7.31495L14.9624 9.79399L12.2654 9.54395V6.38298L14.1894 4.77399C14.2433 4.72239 14.276 4.65257 14.2812 4.57814C14.2863 4.50373 14.2635 4.43005 14.2174 4.37149C14.1718 4.31346 14.1054 4.27526 14.0323 4.26483C13.9593 4.2544 13.885 4.27254 13.8249 4.31549L12.2694 5.61598V4.28C12.2661 4.20507 12.2342 4.13428 12.1802 4.0822C12.1262 4.03011 12.0544 4.00069 11.9794 4C11.9045 4.00069 11.8326 4.03011 11.7786 4.0822C11.7246 4.13428 11.6927 4.20507 11.6894 4.28V7.61146L9.69598 6.96447L10.3444 4.62599C10.3662 4.55114 10.3576 4.47072 10.3204 4.40219C10.2833 4.33366 10.2205 4.28256 10.146 4.25999C10.1091 4.24943 10.0705 4.24629 10.0323 4.25075C9.9943 4.25521 9.95743 4.26718 9.92406 4.28596C9.89058 4.30474 9.86118 4.32998 9.83761 4.36019C9.81393 4.39041 9.79655 4.42502 9.78639 4.46199L9.23044 6.46398L8.36245 5.15898C8.34173 5.12682 8.31477 5.0991 8.28317 5.0775C8.25158 5.05589 8.21599 5.04083 8.17848 5.03319C8.14097 5.02554 8.10232 5.02549 8.06479 5.03302C8.02727 5.04053 7.99162 5.05548 7.95995 5.07698C7.89565 5.12128 7.85124 5.18901 7.83629 5.26566C7.82133 5.3423 7.83701 5.42175 7.87995 5.48698L9.09795 7.31747L9.10794 7.33147L9.12194 7.34847L9.14444 7.37097L9.16044 7.38596C9.17128 7.39389 9.18263 7.40108 9.19445 7.40746L9.20744 7.41596C9.22092 7.42247 9.23478 7.42815 9.24895 7.43296L11.6864 8.22495V11.8078L10.1904 12.6854L8.91595 9.95441L8.91195 9.94846C8.90167 9.92687 8.88874 9.90669 8.87344 9.88849H8.86845C8.85 9.86784 8.82881 9.84975 8.80545 9.83494L8.79795 9.82899L7.33947 8.97544L7.01747 6.33947C7.0113 6.28845 6.9919 6.23993 6.9612 6.19871C6.93051 6.1575 6.88959 6.125 6.84247 6.10447C6.79566 6.08434 6.7443 6.07711 6.69374 6.08353C6.64318 6.08995 6.59527 6.10979 6.55498 6.14098C6.51423 6.17266 6.48246 6.21439 6.46273 6.26208C6.443 6.30977 6.43603 6.36178 6.44247 6.41297L6.71347 8.60845L5.48248 7.89095C5.4159 7.85661 5.33855 7.84956 5.26686 7.87132C5.19515 7.89307 5.13477 7.94191 5.09849 8.00746C5.06126 8.07336 5.05042 8.15092 5.06814 8.22451C5.08586 8.2981 5.13084 8.36223 5.19399 8.40395L8.15546 10.1314L6.51947 11.5729L4.88299 9.72189C4.85784 9.69307 4.82716 9.66963 4.79277 9.65277C4.75838 9.63598 4.72096 9.62624 4.68274 9.62414C4.64452 9.62205 4.60627 9.62763 4.57025 9.64056C4.53422 9.65349 4.50114 9.67347 4.473 9.69949C4.41571 9.75246 4.38142 9.82561 4.3774 9.90354C4.37338 9.98147 4.39998 10.0579 4.4515 10.1165L5.84298 11.6874H4.2895C4.1295 11.6874 4 11.8199 4 11.9824C4 12.1454 4.13 12.2774 4.28999 12.2774H6.37797C6.39814 12.2774 6.41826 12.2751 6.43797 12.2709C6.48116 12.28 6.52588 12.2787 6.56852 12.2674C6.61116 12.256 6.65052 12.2347 6.68347 12.2054L8.55545 10.5554L9.68198 12.9854L6.88196 14.6284L4.78949 13.611C4.72046 13.582 4.64291 13.5812 4.57322 13.6084C4.50354 13.6357 4.44717 13.6889 4.41599 13.7569C4.38383 13.8253 4.37874 13.9032 4.40175 13.975C4.42475 14.0469 4.47415 14.1074 4.54 14.1445L6.27598 14.9889L5.18949 15.6258C5.12258 15.6658 5.07396 15.7302 5.05405 15.8057C5.03414 15.881 5.04453 15.9611 5.08298 16.0288C5.16299 16.1703 5.34049 16.2189 5.47898 16.1374L8.40195 14.4218L8.68746 16.5728L6.33447 16.9829C6.26126 17.0001 6.19739 17.0446 6.15586 17.1073C6.11434 17.1701 6.09829 17.2462 6.11098 17.3203C6.13647 17.4754 6.27747 17.5834 6.43097 17.5653L8.44295 17.2178L7.66046 18.5684C7.62124 18.6358 7.61005 18.716 7.62931 18.7916C7.64857 18.8673 7.69673 18.9324 7.76347 18.9729C7.79631 18.9925 7.83274 19.0053 7.87063 19.0106C7.90851 19.0161 7.94708 19.0137 7.98407 19.0039C8.02107 18.9941 8.05571 18.977 8.08601 18.9538C8.1163 18.9303 8.14161 18.9011 8.16046 18.8678L9.26295 16.9629L9.26995 16.9464L9.27994 16.9263C9.29323 16.8922 9.30017 16.856 9.30044 16.8194C9.30203 16.8039 9.30203 16.7883 9.30044 16.7729L8.94545 14.0998L11.9738 12.3258L13.2289 13.063L11.5714 15.6639C11.5693 15.667 11.5674 15.6704 11.5659 15.6739L11.5569 15.6899C11.551 15.7018 11.5459 15.7142 11.542 15.7269C11.542 15.7269 11.542 15.7324 11.5379 15.7358V15.7398C11.5329 15.7566 11.5294 15.7739 11.5274 15.7914V15.8048C11.5266 15.8147 11.5266 15.8246 11.5274 15.8343L11.5714 17.5443L9.53744 19.2074C9.4772 19.257 9.43875 19.3282 9.43034 19.4057C9.42192 19.4832 9.44422 19.561 9.49245 19.6223C9.59244 19.7493 9.77543 19.7698 9.90038 19.6674L11.595 18.2823L11.6398 19.7258C11.6446 19.8013 11.6785 19.872 11.7342 19.9231C11.79 19.9741 11.8633 20.0016 11.9389 19.9999C12.0146 19.9967 12.0861 19.9646 12.1386 19.9099C12.191 19.8554 12.2204 19.7826 12.2204 19.7068L12.1104 16.2318L14.1749 16.8944L13.4834 19.2838C13.4668 19.3342 13.4639 19.388 13.475 19.4399C13.4861 19.4917 13.5107 19.5396 13.5464 19.5788C13.5816 19.6176 13.6269 19.6458 13.6772 19.6606C13.7274 19.6754 13.7808 19.6762 13.8314 19.6628C13.8823 19.649 13.9286 19.6219 13.9652 19.5841C14.002 19.5462 14.0278 19.4991 14.0399 19.4478L14.6298 17.4218L15.4438 18.7684C15.4703 18.8118 15.5079 18.8477 15.5527 18.8719C15.5976 18.8963 15.648 18.9083 15.699 18.9069C15.75 18.9054 15.7996 18.8902 15.8429 18.8634C15.8862 18.8364 15.9214 18.7985 15.9454 18.7533C15.9695 18.7077 15.9816 18.6565 15.9802 18.6048C15.9788 18.5531 15.9641 18.5026 15.9374 18.4584L14.8434 16.6483C14.8329 16.6308 14.8205 16.6146 14.8064 16.5999C14.7917 16.5579 14.7674 16.52 14.7356 16.489C14.7038 16.458 14.6652 16.435 14.6229 16.4214L12.2619 15.6629L13.7319 13.3644L16.7519 15.1439L16.9348 17.6123C16.9549 17.7689 17.0908 17.8818 17.2448 17.8698C17.3198 17.8636 17.3895 17.8289 17.4395 17.7727C17.4896 17.7166 17.5162 17.6434 17.5138 17.5683L17.3609 15.5024L18.4414 16.1399C18.5313 16.1924 18.6413 16.1924 18.7314 16.1399C18.8213 16.0874 18.8764 15.9898 18.8764 15.8844C18.8769 15.7794 18.8213 15.6814 18.7318 15.6284L15.8433 13.9264L17.5024 12.5338L19.0834 14.353C19.1082 14.3818 19.1386 14.4057 19.173 14.4227C19.2071 14.4398 19.2445 14.4498 19.2826 14.4522C19.3207 14.4546 19.359 14.4494 19.395 14.4368C19.4313 14.4242 19.4645 14.4045 19.4929 14.379C19.5505 14.3265 19.5854 14.2535 19.59 14.1757C19.5947 14.0979 19.5688 14.0214 19.5178 13.9625L18.1638 12.4059L19.7118 12.3685C19.7508 12.3673 19.7893 12.3584 19.8249 12.3424C19.8605 12.3263 19.8926 12.3034 19.9193 12.2751C19.946 12.2466 19.9669 12.2133 19.9807 12.1768C19.9945 12.1402 20.001 12.1014 19.9998 12.0624C19.9994 12.0234 19.9912 11.985 19.9758 11.949C19.9606 11.9132 19.9382 11.8808 19.9104 11.8536C19.8824 11.8264 19.8494 11.805 19.8132 11.7905C19.777 11.776 19.7388 11.7694 19.6998 11.7699Z" fill="black"/>
</g>
<defs>
<clipPath id="clip0_328_29080">
<rect width="24" height="24" fill="white"/>
</clipPath>
</defs>
</svg>
