<svg width="24" height="24" viewBox="0 0 24 24" fill="none" xmlns="http://www.w3.org/2000/svg">
<g clip-path="url(#clip0_328_51401)">
<path d="M24 0H0V24H24V0Z" fill="#344AE6"/>
<path d="M5.19998 8.89994C4.88998 9.06993 4.5 9.03994 4.5 8.67995V7.19496L10.1199 4V5.48499C10.1199 5.84498 9.86987 6.28497 9.53994 6.45497L5.19998 8.90493V8.89994Z" fill="white"/>
<path d="M13.3005 19.2595C13.6106 19.0845 13.6106 18.7795 13.3005 18.6094L8.82559 16.0595C8.64754 15.9747 8.45283 15.9307 8.2556 15.9307C8.05838 15.9307 7.86365 15.9747 7.68561 16.0595L6.39062 16.8045L12.0105 19.9995L13.3056 19.2595H13.3005Z" fill="white"/>
<path d="M18.1001 6.45047C17.78 6.28547 17.5 6.41547 17.5 6.78047V11.8805C17.5 12.2403 17.7601 12.6804 18.1001 12.8454L19.4502 13.5904V7.19546L18.1001 6.45546V6.45047Z" fill="white"/>
<path d="M4.5 7.19997L10.1199 4L15.1749 6.87497C15.4849 7.04496 15.4849 7.34997 15.1749 7.51995L10.695 10.0699C10.39 10.24 9.86498 10.24 9.55993 10.0699L4.5 7.19496V7.19997Z" fill="white"/>
<path d="M6 10.9001C6 10.535 6.26501 10.4001 6.61501 10.575L11.385 13.17C11.5586 13.272 11.7051 13.4143 11.8122 13.5849C11.9191 13.7554 11.9835 13.9493 12 14.15V20L6 16.75V10.9001Z" fill="white"/>
<path d="M14.565 16.4602C14.2651 16.6352 14 16.5003 14 16.1402V11.0403C14 10.6803 14.245 10.2403 14.565 10.0702L19.5 7.19531V13.5903L14.565 16.4602Z" fill="white"/>
</g>
<defs>
<clipPath id="clip0_328_51401">
<rect width="24" height="24" fill="white"/>
</clipPath>
</defs>
</svg>
