<svg width="24" height="24" viewBox="0 0 24 24" fill="none" xmlns="http://www.w3.org/2000/svg">
<g clip-path="url(#clip0_328_46704)">
<path d="M24 0H0V24H24V0Z" fill="white"/>
<path d="M8.1859 7.36845C7.45073 6.87978 7.15667 6.33057 5.99771 6.33057C5.48742 7.28629 5.63445 8.95985 5.88528 9.88096L6.37827 11.4723C6.49936 11.7837 6.53395 11.6972 6.40421 12.0086C6.348 12.1469 6.25719 12.2552 6.18799 12.4411C5.06363 15.1957 5.17174 16.7395 7.85291 18.491C10.8714 20.4587 13.2066 20.5148 16.1429 18.586C17.0942 17.9634 18.4781 16.7958 18.4867 15.2909C18.4867 14.9709 18.422 14.3698 18.3657 14.0411C18.236 13.3147 17.9679 12.6832 17.609 12.0561C17.384 11.6582 17.8641 10.6983 18.0501 9.90691C18.2533 9.05499 18.4392 8.33712 18.3959 7.44196C18.3657 6.79329 18.1452 6.60734 18.0717 6.31761C17.5253 6.32444 16.9942 6.49795 16.5493 6.81492L16.3116 6.9879C16.117 7.12627 15.9873 7.22574 15.8186 7.3598C15.8532 7.10033 15.9916 6.14462 16.104 5.97597C16.2164 5.80731 16.2337 5.90677 16.0262 5.58677C15.8618 5.34893 15.9397 5.39649 15.7148 5.45271C15.7148 5.88515 15.771 5.79002 15.5591 6.00192C15.4293 6.11867 15.1225 6.27003 14.9104 6.32192C14.0671 5.7684 14.5039 5.11972 14.5039 5.11972C14.1148 4.86025 14.5039 4.95108 13.946 5.0808C13.7904 5.72948 13.9028 5.24945 13.7904 5.61704C13.7818 5.63001 13.4877 6.17922 13.4488 6.23976C12.8737 6.0884 12.5017 5.21487 12.2379 4.72188C12.4324 4.43213 12.3374 4.72188 12.2163 4.21591C12.1038 4.18996 12.1384 4.22456 12.0001 4.21591H11.9006C11.7795 4.22456 11.84 4.08185 11.7839 4.21591C11.5676 4.72188 12.2336 4.7262 10.945 5.91974C10.8455 6.0149 10.7331 6.07975 10.6206 6.16192C10.0541 5.7511 10.1362 5.43108 10.0541 5.0808C9.6735 5.0808 9.44863 4.83864 9.50917 5.25378L9.54378 5.36622C9.58702 5.56082 9.5827 5.33595 9.5827 5.51325C9.5827 5.7511 9.14592 6.29599 8.99888 6.39976C8.70483 6.3349 8.42374 6.15327 8.38049 5.90245C8.30266 5.47001 8.84321 5.60839 8.10373 5.43108C7.98265 5.53487 7.88751 5.63433 7.77939 5.7511C7.90912 6.01057 8.1859 5.97597 8.1859 7.36845Z" fill="#181B1E"/>
<path d="M14.0205 13.4573C14.1718 13.4832 14.1416 13.5136 14.1156 13.3622C14.4137 13.0631 14.7922 12.8572 15.2054 12.7698C15.9406 12.5752 16.053 12.8822 16.053 13.5395C15.4563 13.9158 14.6043 14.3525 13.5664 14.2314C13.5492 13.8725 13.7913 13.5829 14.0205 13.4573ZM10.5609 14.1926C10.0853 14.3958 9.09057 14.0801 8.70138 13.9158C7.4343 13.3622 8.26027 12.7395 8.43326 12.7395C9.70466 12.7308 10.6604 13.8077 10.5653 14.1926H10.5609ZM5.79102 15.3298L6.3359 15.2477C6.8744 15.2494 7.40583 15.3705 7.8919 15.6023C8.37796 15.8341 8.80655 16.171 9.1468 16.5882C9.1641 16.571 9.19004 16.5321 9.19437 16.5407C9.24193 16.6359 9.92088 16.1082 10.0593 15.892C11.7155 13.3838 13.9209 14.638 14.3837 16.757C15.7935 15.8488 15.9406 15.3298 18.1979 15.2865C18.1418 14.2401 17.973 13.28 17.5362 12.4671C17.1384 11.7146 17.1774 11.9136 17.4367 11.0486C17.8909 9.55238 18.4185 8.12963 17.9082 6.64633C17.3416 6.65498 16.9568 6.9058 16.6194 7.12635C15.733 7.71447 15.9276 7.73177 15.6638 7.93503C15.6206 8.71343 15.6033 8.63126 15.6292 8.83452C15.7114 9.53508 15.5471 9.33615 13.8864 9.11129C12.3481 8.93343 10.7939 8.94796 9.25923 9.15453C9.03004 9.18479 8.58029 9.30587 8.42028 9.10264L8.36407 7.92638C8.1046 7.81828 8.03973 7.67989 7.8754 7.51988L7.75431 7.40745C7.30024 7.03122 6.7986 6.62471 6.16724 6.57715C5.83426 7.50258 5.89047 7.89611 6.0202 8.96857C6.2321 10.7372 6.93699 11.5373 6.68617 12.1211C6.14129 13.3838 5.95101 13.5914 5.79102 15.3298Z" fill="#F07E17"/>
<path d="M12.5755 17.6905C12.4198 17.777 12.3116 17.8332 12.2165 17.8375C11.9873 17.8419 11.8619 17.6473 11.49 17.6733C11.0576 17.7165 10.5948 17.8116 10.2705 17.5953C10.4651 17.3532 10.4175 17.457 10.8068 17.4917C11.3992 17.5349 11.8792 17.3878 12.0004 16.7045C11.2392 16.3196 11.1656 16.298 11.2652 15.2991C11.624 15.2126 11.7711 15.2428 12.2338 15.2428C12.7051 15.2428 12.7787 15.1564 13.0468 15.3768C13.4101 16.1033 12.8868 16.4883 12.4327 16.739C12.5322 17.1196 12.7354 17.3619 13.1247 17.4656C13.9896 17.6905 13.8685 17.1628 14.1625 17.6516C13.4145 17.8808 13.1332 17.5781 12.5755 17.6905ZM6.32227 15.2516C6.51687 16.1769 6.66823 16.9207 7.41636 17.4917L9.34074 18.9619C9.6867 19.3078 11.3992 19.8094 12.1473 19.7704C13.7993 19.6753 15.8923 18.6419 17.0253 17.5478C17.4232 17.1586 18.3573 16.0168 18.18 15.2904C15.9183 15.3293 16.1432 15.5196 14.7333 16.4234C14.2707 14.2957 11.2695 13.1671 9.61318 15.6753C9.47913 15.8915 9.15912 16.5142 9.11155 16.4191C8.53639 15.6969 7.6542 15.2948 6.32227 15.2516Z" fill="#FFFFFE"/>
<path d="M11.2649 7.44666C11.066 7.39476 11.066 7.47261 10.88 7.12664C11.0271 6.84123 10.9622 6.99692 11.2216 6.75043C11.4249 6.55149 11.546 6.305 11.9178 6.08012C12.2119 6.16663 12.3503 6.38283 12.5406 6.59042C12.7309 6.80231 12.9254 6.92772 13.0292 7.12232C12.8908 7.2953 12.6832 7.48125 12.4929 7.68449C12.3071 7.87477 12.2032 8.05641 11.9265 8.15154C11.6843 8.02182 11.3427 7.7191 11.2605 7.44666H11.2649ZM9.3318 6.7288C9.01841 6.69065 8.72265 6.56303 8.47987 6.36121C8.2377 6.17527 8.45393 6.27905 8.17285 6.14499L8.5534 8.4629C9.16747 8.51912 11.1697 8.31155 12 8.32885L15.4682 8.55372C15.5115 8.01749 15.5331 7.75369 15.6066 7.25639C15.6628 6.87151 15.7925 6.33527 15.8011 6.01526C14.8109 6.51257 13.4575 7.52017 12.2811 5.32334C12.2379 5.23253 12.2032 5.12873 12.1471 5.04658C11.9439 4.7136 12.1903 4.90388 11.8875 4.81738C11.3816 6.00229 10.6118 6.88879 9.3318 6.7288Z" fill="#FDEB22"/>
<path d="M15.6501 8.24642L15.6069 8.40209C15.7798 8.53615 15.6328 8.39344 15.7539 8.5448C15.9398 8.79129 16.8782 11.1135 16.8782 11.1135C16.9863 11.2736 16.9214 11.2 17.0771 11.3385C17.1204 10.9362 17.1637 11.0011 17.3107 10.6075C17.7085 9.57835 17.9681 7.96965 17.7345 6.91016C17.4405 6.96204 16.8565 7.29935 16.623 7.45504L16.3765 7.61503C16.022 7.87449 16.0133 8.03883 15.6501 8.24642ZM6.29191 6.93609C6.03245 7.51989 6.28326 9.43131 6.54273 10.1837C6.62449 10.4913 6.78382 10.7727 7.00545 11.0011C7.14815 10.5124 7.42492 10.1275 7.61088 9.75998C8.16441 8.67886 8.5709 8.78264 7.67573 7.79234C7.59902 7.7091 7.51819 7.6297 7.43356 7.55449C7.13085 7.28205 6.58166 6.9188 6.29191 6.93609Z" fill="#D03E16"/>
<path d="M8.53646 8.73067C8.50619 9.31447 8.6662 9.02473 9.89003 8.95987C11.4468 8.88203 12.1042 8.83878 13.6955 8.96851C14.2707 9.01608 14.9411 9.1934 15.4686 9.21068L15.4772 8.81715C14.8935 8.45823 9.16783 8.31119 8.53646 8.73067Z" fill="#F7A74B"/>
<path d="M9.34959 18.9633L7.61981 17.3719C7.27533 17.1217 6.984 16.8055 6.76277 16.4417C6.54155 16.0779 6.39481 15.6738 6.33112 15.2529L5.78623 15.3307C5.72137 15.7545 6.07165 16.3945 6.24896 16.641C6.79384 17.3934 8.50632 18.8206 9.34959 18.9633Z" fill="#FEE9D7"/>
<path d="M14.3445 11.3946C14.085 11.4682 13.6093 11.6757 13.7607 11.9957C13.8904 12.2552 14.6125 12.2206 14.9498 12.2032C15.9965 12.1298 15.2525 11.1352 14.3445 11.3946ZM9.82538 12.0562C9.97242 11.3816 8.79184 11.1179 8.29019 11.5935C7.55936 12.2855 9.2286 12.3373 9.82538 12.0562Z" fill="#FFFFFE"/>
<path d="M6.16245 15.1307C6.55165 14.9447 6.29218 14.6506 6.66409 13.3057L6.72031 13.111L6.80248 12.8732C6.97545 12.4322 7.29546 11.9305 7.37762 11.6191C7.01869 11.6494 7.13545 11.5542 6.80248 12.2332C6.63815 12.5618 6.55165 12.7954 6.45652 13.1067L6.23164 14.0754C6.21002 14.2267 6.17543 14.4344 6.13652 14.6247C6.05001 15.0268 6.03271 14.9533 6.16245 15.1307Z" fill="#F7AF67"/>
<path d="M9.07275 6.57721C9.77764 6.6464 9.76899 6.69829 10.3702 6.41721C10.3356 6.13612 10.2577 6.10585 10.1322 5.92854C9.95927 5.66474 10.0458 5.6388 9.80358 5.53935C9.78629 5.55232 9.76899 5.55231 9.76899 5.57826L9.07275 6.57288V6.57721ZM13.514 6.4864C14.1195 6.58586 14.0935 6.51235 14.6687 6.4864C14.5604 6.27017 14.487 6.23125 14.3572 6.00207C14.141 5.60854 14.2534 5.6561 13.9853 5.52637C13.8729 5.79016 13.5659 6.19233 13.514 6.4864Z" fill="#FCC009"/>
<path d="M8.10823 6.16177C8.34707 6.16177 8.54068 5.96815 8.54068 5.72932C8.54068 5.49049 8.34707 5.29688 8.10823 5.29688C7.8694 5.29688 7.67578 5.49049 7.67578 5.72932C7.67578 5.96815 7.8694 6.16177 8.10823 6.16177Z" fill="#181B1E"/>
<path d="M9.83771 5.73012C10.0766 5.73012 10.2702 5.5365 10.2702 5.29767C10.2702 5.05883 10.0766 4.86523 9.83771 4.86523C9.59888 4.86523 9.40527 5.05883 9.40527 5.29767C9.40527 5.5365 9.59888 5.73012 9.83771 5.73012Z" fill="#181B1E"/>
<path d="M15.8929 6.16177C16.1318 6.16177 16.3254 5.96815 16.3254 5.72932C16.3254 5.49049 16.1318 5.29688 15.8929 5.29688C15.6541 5.29688 15.4604 5.49049 15.4604 5.72932C15.4604 5.96815 15.6541 6.16177 15.8929 6.16177Z" fill="#181B1E"/>
<path d="M14.1624 5.73012C14.4012 5.73012 14.5948 5.5365 14.5948 5.29767C14.5948 5.05883 14.4012 4.86523 14.1624 4.86523C13.9236 4.86523 13.73 5.05883 13.73 5.29767C13.73 5.5365 13.9236 5.73012 14.1624 5.73012Z" fill="#181B1E"/>
<path d="M11.9999 4.8649C12.2387 4.8649 12.4322 4.67129 12.4322 4.43246C12.4322 4.19362 12.2387 4 11.9999 4C11.7611 4 11.5674 4.19362 11.5674 4.43246C11.5674 4.67129 11.7611 4.8649 11.9999 4.8649Z" fill="#181B1E"/>
<path d="M7.619 11.1994C7.91306 11.0394 7.70115 11.1042 8.05575 10.5982C8.14658 10.4685 8.14226 10.4814 8.22009 10.3603C8.4147 10.0706 8.86875 9.64686 8.65254 9.57765C8.43632 9.50415 8.0817 10.0879 7.96927 10.2695L7.83953 10.4727C7.52385 10.9745 7.43304 10.914 7.62332 11.1994H7.619Z" fill="#F7AF67"/>
<path d="M11.6758 4.48865C11.8271 4.71353 11.6888 4.61839 12.0002 4.70488C12.1212 4.62272 12.4196 4.47136 12.1774 4.22486C11.9094 3.94377 11.7234 4.1773 11.6758 4.48432V4.48865Z" fill="#F4971C"/>
<path d="M12.5751 17.6913C12.4929 17.4276 12.4627 17.4188 12.2422 17.2891C12.0865 17.3756 12.0951 17.3324 11.9092 17.6438L11.8789 17.7085L12.5708 17.6913H12.5751Z" fill="#E5232D"/>
<path d="M8.15965 5.53516C7.83531 5.5438 7.81801 5.88976 8.08613 5.92436C8.19425 5.93732 8.28938 5.85517 8.30668 5.76869C8.34127 5.58273 8.26344 5.61732 8.15965 5.53516Z" fill="#F4971C"/>
<path d="M15.7104 5.63456C15.7884 5.94592 15.6845 5.87242 16.0738 5.86377C16.0651 5.75565 16.104 5.66483 16.0176 5.59565C15.7754 5.37077 15.7148 5.63456 15.7104 5.63456Z" fill="#F7A74B"/>
<path d="M13.968 5.12417C13.9247 5.44417 14.0242 5.5912 14.2274 5.38364C14.4393 5.17173 14.2923 5.08524 13.968 5.12417ZM9.63916 5.2885C9.65645 5.29715 9.68239 5.29715 9.68672 5.31876C9.69537 5.34471 9.72997 5.34471 9.74293 5.34471C9.85105 5.36633 9.86835 5.362 9.97213 5.36633L9.88997 5.04199C9.54401 5.08524 9.68672 4.95983 9.63916 5.2885Z" fill="#F49717"/>
<path d="M11.2783 7.30413C11.3431 7.04467 11.2609 6.75925 11.0273 7.13549C11.1571 7.29549 11.0489 7.22196 11.2783 7.30845V7.30413Z" fill="#FBBE00"/>
<path d="M12.883 7.12624C12.7705 6.97489 12.8743 7.02247 12.6235 6.99219V7.23868C12.8916 7.28626 12.7317 7.32084 12.883 7.12624Z" fill="#F9BD01"/>
<path d="M9.62148 13.9462C9.74091 13.9462 9.83771 13.8493 9.83771 13.7299C9.83771 13.6105 9.74091 13.5137 9.62148 13.5137C9.50208 13.5137 9.40527 13.6105 9.40527 13.7299C9.40527 13.8493 9.50208 13.9462 9.62148 13.9462Z" fill="#F0F3FA"/>
<path d="M14.3788 13.9462C14.4984 13.9462 14.5951 13.8493 14.5951 13.7299C14.5951 13.6105 14.4984 13.5137 14.3788 13.5137C14.2595 13.5137 14.1626 13.6105 14.1626 13.7299C14.1626 13.8493 14.2595 13.9462 14.3788 13.9462Z" fill="#F0F3FA"/>
<path d="M11.2646 7.38161V7.45945L11.9263 8.10813L12.562 7.45945C12.5556 7.4351 12.5498 7.41058 12.5447 7.38594H11.2646V7.38161ZM12.4322 7.16972C12.0516 6.68106 11.9003 6.76322 11.7836 6.82376L11.7403 6.84971L11.7965 6.73294C11.8139 6.6897 11.8182 6.68537 11.909 6.57727C12.0689 6.66808 12.0732 6.68106 12.082 6.70699C12.0906 6.73295 12.1036 6.76321 12.203 6.85836C12.3068 6.94916 12.3328 6.98808 12.3674 6.98808C12.3976 6.99241 12.4365 6.95781 12.5576 6.9016C12.5057 6.71132 12.4452 6.65944 12.3413 6.56862C12.2813 6.51643 12.2236 6.46159 12.1684 6.40428C12.0732 6.31347 12.0344 6.27455 11.9003 6.19238L11.3252 6.81511L11.3339 6.85836L11.3425 6.87998C11.3425 6.88863 11.3425 6.9016 11.3511 6.91025L11.3598 6.94485L11.3727 7.00971L11.3945 7.07459C11.403 7.08755 11.4073 7.0962 11.4204 7.16972H12.4322Z" fill="#F9BD01"/>
</g>
<defs>
<clipPath id="clip0_328_46704">
<rect width="24" height="24" fill="white"/>
</clipPath>
</defs>
</svg>
