<svg width="24" height="24" viewBox="0 0 24 24" fill="none" xmlns="http://www.w3.org/2000/svg">
<g clip-path="url(#clip0_328_46778)">
<path d="M24 0H0V24H24V0Z" fill="white"/>
<path d="M9.17174 5.72034C9.98672 5.32407 11.1611 5.05742 12.3089 5.10008C13.5302 5.10008 14.6426 5.51342 15.0458 5.72034C18.4068 3.61156 19.4671 4.25262 19.577 4.83662C20.104 7.04192 19.426 9.27604 19.0207 10.1171C20.4709 14.4414 19.9957 16.7107 19.577 17.3043C17.8879 19.8146 14.6751 19.8146 10.8854 19.6936C7.09604 19.5715 6.00431 19.1463 4.72752 17.3043C3.70566 15.8302 4.39579 12.4473 4.86885 10.9395C4.35366 9.92617 3.35847 5.60248 4.59312 4.83662C5.82778 4.07075 8.97015 5.61422 9.17174 5.72034Z" fill="#31006B"/>
<path d="M9.06224 6.19164C9.83291 5.81724 11.1715 5.48871 12.2569 5.5287C13.412 5.5287 14.7016 5.93404 15.0835 6.12924C18.2621 4.13512 19.1421 4.67378 19.2457 5.22631C19.7443 7.31163 18.9417 9.26253 18.5581 10.0583C19.9289 14.1473 19.5607 16.4544 19.165 17.0161C17.5683 19.3899 14.5298 19.3899 10.9465 19.2753C7.36252 19.1601 6.30014 18.8668 5.12254 17.0161C4.21322 15.5862 4.84735 12.2588 5.29481 10.8337C4.80736 9.87535 3.77056 5.85244 4.93802 5.12818C5.98334 4.47964 8.90705 6.10096 9.06224 6.19164Z" fill="white"/>
<path d="M12.2209 6.84155C11.1542 6.85861 10.4685 6.50021 10.2587 6.31889C6.09353 7.35568 3.80395 13.6575 5.02315 16.8639C5.99806 19.4292 10.1644 19.2574 12.2913 19.3156C13.4108 19.3156 16.071 19.3156 17.5622 18.4499C19.4928 17.3299 19.5861 15.9166 19.4928 15.0197C18.9221 9.55725 15.5211 6.54875 14.2256 6.31836C14.0016 6.48582 13.2876 6.82501 12.2209 6.84155Z" fill="#F9EBD1"/>
<path d="M8.88772 14.0531C9.25677 13.1391 11.1704 12.6202 12.0818 12.4746C13.2263 12.4746 15.4621 13.7566 15.4621 14.6638C15.4621 15.8584 14.5309 18.6931 12.0818 18.5972C9.6328 18.5011 8.42691 15.1955 8.88772 14.0531Z" fill="white"/>
<path d="M11.161 14.5751C10.9894 14.574 10.8223 14.5203 10.6821 14.4211C10.5421 14.3219 10.4359 14.182 10.378 14.0205L10.1934 14.4125L10.6362 14.9431L12.8137 15.2109L13.9273 14.8376V14.3122C13.8739 14.4557 13.6607 14.7324 13.2371 14.6947C12.8127 14.6562 12.3279 14.2291 12.1385 14.0205C12.018 14.2119 11.6547 14.5901 11.161 14.5751Z" fill="#DCC7E6"/>
<path d="M11.2197 13.2866C11.3371 12.9218 11.9946 12.8662 12.192 12.8748C12.8917 12.8748 13.2175 13.1469 13.2085 13.4887C13.2016 13.7622 12.6106 14.0247 12.3157 14.1218V14.6407C12.3574 14.7457 12.6027 14.9575 13.2544 14.965C13.9067 14.9718 13.9595 14.4988 13.9045 14.261C14.1168 14.5964 14.2261 14.8493 13.6917 15.2418C13.2645 15.5558 13.0842 16.2162 13.0481 16.5074C13.1509 17.079 13.0789 18.206 11.9664 18.1399C10.576 18.0578 10.9173 16.5958 10.9877 16.3367C11.0587 16.0769 10.7178 15.4758 10.6464 15.2418C10.576 15.0077 10.0608 14.6407 10.0806 14.3745C10.0955 14.1623 10.3142 14.0333 10.4219 13.9948C10.2864 14.4759 10.7045 14.8621 11.1297 14.8493C11.4693 14.839 11.8581 14.7058 11.9953 14.6407V14.1218C11.6197 13.9885 11.1024 13.6509 11.2197 13.2866Z" fill="#3B0364"/>
<path d="M11.6102 16.3241C11.8928 16.3577 12.0059 16.8267 12.0325 17.0297C12.1168 16.7658 12.1973 16.3445 12.4805 16.3824C12.7632 16.4197 12.8096 16.7147 12.8016 16.8848C12.793 17.0554 12.7675 17.8772 12.0325 17.8937C11.2971 17.9108 11.1744 17.0549 11.183 16.9471C11.1914 16.8389 11.2976 16.2869 11.6102 16.3241Z" fill="#FB6E64"/>
<path d="M11.9717 17.3502C11.5953 17.3566 11.3713 17.1129 11.3062 16.9902C11.271 17.2558 11.3643 17.7849 12.0165 17.7737C12.6682 17.7625 12.6794 17.2547 12.6038 17.0019C12.5504 17.1155 12.3483 17.3438 11.9717 17.3502Z" fill="#D85465"/>
<path d="M12.1505 13.1153C11.8246 13.1169 11.6683 13.2102 11.6309 13.2566C11.6309 13.3612 12.0789 13.3926 12.1505 13.3926C12.2224 13.3926 12.7851 13.2854 12.7872 13.238C12.7899 13.191 12.5579 13.1121 12.1505 13.1153Z" fill="#BD98DB"/>
<path d="M15.9895 11.2284C14.9666 11.2491 14.7165 12.1318 14.7197 12.5707C14.8445 12.3057 15.2728 11.7515 15.989 11.6561C16.7058 11.56 17.3837 12.1462 17.6328 12.4508C17.5111 12.0347 17.012 11.2081 15.9895 11.2284ZM8.06169 11.2172C9.08409 11.2374 9.33421 12.1206 9.33101 12.559C9.20675 12.2945 8.77795 11.7403 8.06169 11.6444C7.3449 11.5483 6.66705 12.135 6.41797 12.4396C6.53957 12.0235 7.03877 11.1969 8.06169 11.2172ZM12.2584 12.2971C11.2499 12.2011 10.2958 13.0038 9.94538 13.417C10.2984 13.1392 11.2328 12.5808 12.1453 12.5707C13.0584 12.56 13.964 13.2561 14.3021 13.6054C13.9369 13.0922 13.5192 12.4166 12.2584 12.2971Z" fill="#3B0364"/>
<path d="M12.1629 18.6503C8.32451 19.1078 5.72402 16.8205 4.9043 15.6193C5.30269 17.253 6.17414 17.9447 7.10959 18.6503C8.04451 19.3553 14.3681 19.6689 16.9292 18.718C18.9783 17.9575 19.302 16.2488 19.2077 15.4893C18.1869 16.894 16.9617 18.0781 12.1629 18.6503Z" fill="#D3BDBF"/>
<path d="M18.5308 10.0179C17.8449 8.026 16.3676 6.81642 15.7148 6.4607C17.6865 4.98177 18.5777 4.92897 18.7772 5.08738C19.9922 6.01749 19.1196 8.762 18.5308 10.0179Z" fill="#F6EED4"/>
<path d="M16.0303 6.68224C17.2373 7.53344 17.931 8.70623 18.13 9.32916C18.9621 7.92117 19.0741 6.39586 18.9945 5.69507C18.9919 5.51641 18.8409 5.16333 18.2068 5.2972C17.5721 5.4316 16.4681 6.30518 16.0303 6.68224Z" fill="#480066"/>
<path d="M18.1846 8.58121C17.6294 7.58281 16.878 6.89749 16.5713 6.67989C17.6401 5.9151 18.2044 5.63565 18.4342 5.56684C18.4972 5.54764 18.5569 5.58231 18.5814 5.64151C18.9004 6.41644 18.4577 7.90761 18.1846 8.58121Z" fill="#FF696E"/>
<path fill-rule="evenodd" clip-rule="evenodd" d="M17.2183 7.26656C17.4918 6.75348 17.9969 6.00257 18.3388 6.18283C18.5233 6.28043 18.6209 6.4991 18.6678 6.73536C18.7137 6.32416 18.7009 5.93216 18.5814 5.64151C18.5569 5.58231 18.4972 5.54764 18.4342 5.56684C18.2044 5.63565 17.6401 5.9151 16.5713 6.67989C16.7132 6.78069 16.95 6.98122 17.2183 7.26656Z" fill="#DC546C"/>
<path d="M8.43931 6.56648C5.08893 4.37131 4.34867 5.87048 4.39774 6.89448C4.4644 8.36059 5.01747 10.1419 5.28627 10.8491C5.93586 8.5942 7.19559 7.35047 7.74384 7.01021L8.43931 6.56648Z" fill="#F8EBDA"/>
<path d="M7.75892 7.00897C6.55199 7.86015 5.85227 9.31827 5.65334 9.9417C4.82135 8.53375 4.77282 6.78017 4.85229 6.07884C4.85495 5.90018 5.01922 5.57645 5.65334 5.71031C6.288 5.84418 7.32105 6.6319 7.75892 7.00897Z" fill="#31006B"/>
<path d="M5.22667 6.23754C5.12214 7.45033 5.45974 8.59218 5.65334 9.03378C5.8432 8.62631 6.41759 7.64499 7.19733 6.97779C6.35893 6.41727 5.79787 6.15487 5.49067 6.05141C5.35947 6.00661 5.2384 6.09941 5.22667 6.23754Z" fill="#FD6B6C"/>
<path fill-rule="evenodd" clip-rule="evenodd" d="M5.24111 7.34525C5.27311 7.05833 5.3499 6.76179 5.51203 6.73939C5.71737 6.71113 6.31309 7.14846 6.70402 7.46633C6.85656 7.2946 7.0219 7.12765 7.19736 6.97779C6.35896 6.41727 5.7979 6.15487 5.4907 6.05141C5.35951 6.00661 5.23844 6.09941 5.22671 6.23754C5.19364 6.61993 5.20484 6.99646 5.24111 7.34525Z" fill="#D65969"/>
</g>
<defs>
<clipPath id="clip0_328_46778">
<rect width="24" height="24" fill="white"/>
</clipPath>
</defs>
</svg>
