<svg width="24" height="24" viewBox="0 0 24 24" fill="none" xmlns="http://www.w3.org/2000/svg">
<g clip-path="url(#clip0_328_52179)">
<path d="M24 0H0V24H24V0Z" fill="white"/>
<path d="M18.0024 18.3634C17.0495 20.1898 9.74946 18.9827 6.52559 18.3369C4.92689 18.8928 5.74741 19.9145 7.54198 20.3909C10.1147 21.079 16.4619 21.4655 18.7435 19.9779C19.8022 19.3003 18.9975 18.5593 18.0024 18.3634Z" fill="#94A3B2"/>
<path d="M6.52587 18.3363C7.28815 19.2998 7.40992 19.7815 8.9504 20.1892C11.629 20.9196 12.042 19.7815 12.4178 19.5803C12.9684 20.1626 13.4236 20.7978 15.2022 20.3373C16.1553 20.0831 15.4141 19.9668 16.7057 19.9402C17.4997 19.9244 17.6691 19.8715 18.1668 19.5697C18.2991 18.9451 18.3257 18.8656 18.008 18.3628C17.9921 18.3363 17.955 18.2834 17.9391 18.3097C17.9233 18.3363 17.8863 18.2674 17.8703 18.2569L17.6691 18.0716C17.108 17.2988 17.9338 17.0498 18.8073 14.8901C19.0614 14.239 19.2255 13.5137 19.5167 12.942C19.866 12.2538 20.0408 11.841 19.882 10.7239C19.628 8.97697 19.866 7.66412 18.7438 6.55244C17.9126 5.72663 18.3944 5.67367 17.9921 4.64141C16.6792 1.32753 15.6469 3.99026 13.9476 4.3873C12.2855 4.77375 12.7512 4.86375 11.6185 5.00138C10.9196 5.08079 10.9992 5.25018 10.5068 5.35606C9.65976 5.53074 9.97734 5.16019 7.84929 5.6472C7.36757 7.72764 8.20927 8.3523 8.45279 9.0299C8.80217 10.0357 7.99752 10.581 9.32096 12.5397L8.27809 13.8947C7.86518 14.239 8.39986 14.0643 7.71696 14.1331C7.48932 13.2861 6.32471 13.1378 5.75827 13.2437C4.1384 13.5613 3.30728 15.8694 4.95893 16.8647C6.44117 17.7645 6.05472 16.5205 6.52587 18.3363Z" fill="#131314"/>
<path d="M9.45792 12.0101C9.63262 11.8672 11.5226 8.50039 11.5754 8.35747L11.5489 7.92869C12.47 7.95515 12.433 6.12881 14.6724 7.59518C14.6934 7.61105 14.7358 7.59518 14.7464 7.62164C14.7623 7.64811 14.8153 7.64811 14.831 7.64811C15.5934 7.71692 15.927 7.34637 17.0015 7.85985C17.8696 8.27277 18.1502 8.51099 19.3148 8.52687C18.7855 6.50995 18.2984 6.93876 17.965 6.2188C17.6155 5.4618 17.642 3.29137 16.4881 3.41313C16.1438 3.45018 15.3921 4.00602 15.1221 4.19129C14.0635 4.94831 14 4.50892 12.9782 4.98537C12.2954 5.30298 12.6607 5.19711 11.8031 5.30298C11.1837 5.3824 11.1466 5.53062 10.702 5.64708C10.3155 5.75295 9.78087 5.70001 9.32559 5.72648C7.97038 5.7953 8.25096 6.00705 8.17155 6.11293C7.61041 6.817 8.67974 8.42099 8.85444 8.88155C9.20383 9.77094 8.5368 10.7768 9.45792 12.0101Z" fill="#F9AE5F"/>
<path d="M11.5763 8.34134C11.3487 8.93424 10.7452 8.93423 10.3587 10.0883C9.79227 11.7452 9.46934 10.6971 9.44287 11.994C9.86111 12.8568 10.9305 13.7462 11.9628 14.159C13.1961 14.6514 14.6942 14.4873 15.9012 14.1063C18.3892 13.3227 19.7445 11.671 19.3156 8.52662C18.1511 8.51074 17.8705 8.27252 17.0023 7.8596C15.9171 7.34612 15.5942 7.7008 14.8318 7.64786C14.8161 7.64786 14.7631 7.66374 14.7472 7.62139C14.7366 7.59493 14.6942 7.61079 14.6678 7.59493L13.7572 7.24023C13.7732 7.30376 13.5455 9.01365 11.7457 8.11371C11.5498 8.2884 11.6133 7.8596 11.5763 8.34134Z" fill="#FEFEFE"/>
<path d="M9.40596 19.9673C10.0995 19.2897 10.0359 19.7397 10.3799 18.4956L9.80834 18.4268C9.79236 18.3897 9.75535 18.3897 9.73947 18.3633C10.1947 18.0034 10.2476 18.2574 10.7718 18.0986C11.6293 15.87 9.92477 16.1081 9.48537 15.42C10.9995 15.2717 11.5341 16.7328 11.1318 18.0986C11.3965 18.4691 11.4811 18.2574 11.8728 18.6384C12.3122 19.062 11.9258 18.9827 12.471 19.2897C12.4869 18.5485 12.2433 17.4739 12.5662 16.8917C12.7145 17.0769 12.6352 16.8757 12.7145 17.1933C12.7515 17.368 12.7515 17.3945 12.7675 17.5639C12.7939 18.0191 12.6192 18.9297 12.8733 19.3426C12.8469 18.2044 13.7733 18.5061 14.9749 17.9768L14.9113 17.0503C15.1126 16.8757 14.6679 16.7963 15.3136 16.9816C15.5149 16.2404 15.3402 16.2299 15.192 15.5257C12.434 15.7904 10.703 15.3511 9.78179 12.916C9.39007 13.1384 9.23126 13.4559 8.89775 13.816C8.6966 14.0277 8.10371 14.5306 8.02428 14.6789C7.35729 15.7111 8.17252 15.5894 6.72733 16.6534C6.5791 18.5591 7.82313 19.5544 9.40596 19.9673Z" fill="#F9AE5F"/>
<path d="M11.5772 8.34177C11.6142 7.86533 11.5508 8.27295 11.7518 8.13C12.4455 9.00349 12.1755 8.59057 13.0488 9.08288C12.4719 10.5546 11.7255 9.85055 11.159 9.83986C11.2013 10.8562 11.6566 10.9251 12.2442 11.4703C12.0589 12.2644 12.2602 12.9526 13.1971 12.8891C14.0283 12.8203 14.3617 12.2644 14.6582 11.6927C15.0605 10.9092 15.5422 11.1633 15.9976 10.3799C16.3574 9.77113 16.5056 8.74938 15.9022 8.22C15.0869 8.48469 15.3516 9.58582 13.7477 9.11993L13.3295 8.93465C13.4247 8.5641 13.9859 8.48469 13.7582 7.25125L14.6687 7.61123C14.3776 7.37302 14.5099 7.463 14.3882 7.24066C14.8064 6.65835 15.0182 6.87009 15.394 6.57895C14.7483 6.26134 14.4306 6.76423 14.0389 7.06598C12.3766 6.47307 12.366 7.3836 11.2543 7.67474C10.7462 7.80709 10.7726 7.67475 10.5449 8.23589L11.5508 7.95531L11.5772 8.34177Z" fill="#020202"/>
<path d="M15.123 15.5089C15.2712 16.2129 15.4195 16.1866 15.2184 16.9382L15.229 18.6004C16.5418 18.2563 18.3259 15.7366 18.7016 13.9736C17.6587 14.5455 17.6852 15.0482 15.123 15.5089Z" fill="#FEFEFE"/>
<path d="M5.22341 15.7367C5.86924 15.7739 5.35575 15.7367 5.75806 16.065C7.1662 17.2614 8.85491 13.5346 6.13393 13.5875C4.22819 13.6405 3.68292 16.3085 5.81631 16.822C6.55213 16.9967 6.20274 16.8749 6.34568 16.769C5.67867 16.3456 5.3981 16.6102 5.22341 15.7367Z" fill="#F9AE5F"/>
<path d="M10.6074 13.8684C11.5604 15.5518 15.1071 15.6947 17.5211 14.3978C18.5004 13.8684 19.7868 12.5555 19.5432 11.1738C19.7974 12.1267 16.9599 15.1652 13.1008 14.7735C11.8833 14.6358 11.465 14.1965 10.6127 13.8684H10.6074Z" fill="#BC262D"/>
<path d="M12.8615 19.3253L12.9408 19.8706C13.5444 20.1087 14.9207 20.294 15.5136 19.8176C15.9265 18.944 14.8414 18.8488 14.3172 18.494C14.4126 18.4147 14.2908 18.293 14.9365 18.3883L14.9631 17.9648C14.0102 18.0812 14.0631 18.3883 12.7661 18.256L12.8615 19.3253Z" fill="#FEFEFE"/>
<path d="M13.5985 10.1675C13.1432 10.2627 13.2226 10.2893 13.0214 10.7392C12.8625 11.0939 12.8096 11.1627 12.6615 11.4434C11.7508 13.0738 14.4825 13.4284 14.816 9.9188C13.1167 9.69112 14.3607 11.5333 13.1432 12.0785C13.1273 11.9198 13.5138 10.6863 13.5985 10.1728V10.1675Z" fill="#F58B8C"/>
<path d="M9.12549 19.9143C9.69721 20.02 10.8778 20.2054 11.4547 19.9407C12.5399 19.4378 11.8412 18.4056 10.1684 18.5114C9.81895 19.7554 9.81895 19.2366 9.12549 19.9143ZM16.0339 19.5966C16.7062 19.6496 17.3573 19.6072 17.8866 19.3955C17.9661 18.7973 18.0189 18.7973 17.5637 18.4532C16.8755 17.9239 17.299 18.1779 16.9866 17.6963C16.6348 18.1488 16.1933 18.5237 15.6896 18.7973L16.0339 19.5913V19.5966Z" fill="#FDFDFD"/>
<path d="M16.9759 3.66165C16.0762 3.46048 15.3509 4.36042 15.1127 4.85274C15.4991 5.17036 15.5891 4.95861 16.452 5.51445C17.3095 6.0703 17.2567 6.25558 17.7648 6.28205C17.7383 5.3027 17.3095 4.3763 16.9709 3.66165H16.9759ZM8.35785 6.11264C8.33138 6.14969 8.11964 6.05971 8.20964 6.8273L9.08309 8.89186C9.43248 8.55305 9.46954 7.96545 9.64424 7.51548C9.87181 6.93317 10.1418 6.63144 10.3695 6.29793C9.89836 5.93796 8.85548 5.88501 8.35785 6.11264Z" fill="#0B0906"/>
<path d="M15.6466 4.70513C16.2607 5.10746 16.8376 5.35626 17.3194 5.70036C17.3194 5.06509 16.9489 4.33458 16.7582 3.87402C16.5198 3.91303 16.2943 4.00893 16.1007 4.15361C15.9073 4.29827 15.7515 4.48746 15.6466 4.70513ZM9.02941 8.23605L9.73878 6.39384L8.52122 6.27208C8.50365 6.95971 8.67974 7.63842 9.02941 8.23076V8.23605Z" fill="#FAD995"/>
<path d="M10.8242 6.82852C11.0626 7.45316 11.7242 7.35789 11.8301 6.73852C11.576 6.55324 10.9462 6.36795 10.8242 6.82852Z" fill="#FDFDFD"/>
<path d="M13.5192 6.40485C14.0803 6.4578 14.3608 6.32544 14.3872 5.79606C13.8792 5.53139 13.4345 5.70079 13.5192 6.40485Z" fill="#FBFDFB"/>
</g>
<defs>
<clipPath id="clip0_328_52179">
<rect width="24" height="24" fill="white"/>
</clipPath>
</defs>
</svg>
