<svg width="24" height="24" viewBox="0 0 24 24" fill="none" xmlns="http://www.w3.org/2000/svg">
<g clip-path="url(#clip0_328_53523)">
<path d="M24 0H0V24H24V0Z" fill="#FE8302"/>
<path fill-rule="evenodd" clip-rule="evenodd" d="M4 9.33301H6.79334L7.07334 9.61968L7.26333 9.33301H10.65C10.7667 9.44968 11 9.68301 11 9.69301L11.1334 9.33301H12.5766L12.93 9.69301L13.1066 9.33301H16.8734L17.26 9.72634L17.42 12.3763L17.9666 9.33301H19.5366L20 9.69301L19.1533 14.6663H15.8734L15.4966 14.2863V13.9997H15.2634L15.0066 14.6663H11.5334L11.1667 14.3263V13.7596L10.8433 14.6663H7.47666L7.11333 14.3263L6.59666 13.2263L6.33 14.6663H4.65334L4.30334 14.3263L5 10.1463L4 9.33301ZM7.99999 12.0763L8.83333 10.643V13.543L7.99999 12.0763ZM4.41395 9.49973L5.18062 10.0631L4.46729 14.1663H5.86729L6.19062 12.1031L7.20395 14.1663H8.92062L7.53062 11.7497L8.93729 9.49973H7.35062L6.35395 11.3564L6.63729 9.49973H4.41395ZM10.3506 9.49973H9.00062V14.1663H10.4739L11.3339 11.5063V14.1663H13.1584L14.2138 12.2763H13.5072L14.3339 9.49973H13.124L12.2673 12.2597L12.354 9.49973H11.1206L10.254 12.2597L10.3506 9.49973ZM14.4806 14.1663H13.1774L15.7072 11.4663H14.7072L15.9006 9.49973H16.6773L16.9606 14.1663H15.5673V13.4931H14.7139L14.4806 14.1663ZM17.2606 14.1663H18.6373L19.4706 9.49973H18.044L17.2606 14.1663Z" fill="white"/>
</g>
<defs>
<clipPath id="clip0_328_53523">
<rect width="24" height="24" fill="white"/>
</clipPath>
</defs>
</svg>
