<svg width="24" height="24" viewBox="0 0 24 24" fill="none" xmlns="http://www.w3.org/2000/svg">
<g clip-path="url(#clip0_328_47109)">
<path d="M24 0H0V24H24V0Z" fill="white"/>
<path d="M18.3315 9.71906C18.2335 9.70357 18.213 9.62616 18.2697 9.49196C18.3058 9.40939 18.3265 9.3423 18.3315 9.28554C18.3419 9.07394 18.3265 8.85718 18.28 8.65074C18.2542 8.53204 18.182 8.4443 18.1407 8.33592C18.1378 8.32604 18.1322 8.31711 18.1248 8.31012C18.1172 8.30311 18.1079 8.29828 18.0978 8.29617C18.0877 8.29405 18.0774 8.29471 18.0676 8.29807C18.0578 8.30144 18.0492 8.30739 18.0426 8.31528C18.024 8.33279 18.0104 8.35491 18.0031 8.37938C17.9959 8.40386 17.9952 8.42983 18.0014 8.45462C18.0942 8.88298 18.1974 9.31649 17.9754 9.71389C17.9528 9.75352 17.9387 9.79749 17.9342 9.84291C17.9239 9.94097 17.9549 9.98226 18.0271 9.97193C17.9902 9.97042 17.9539 9.98132 17.9239 10.0029C17.9032 10.0184 17.8878 10.0132 17.8722 9.99774L17.8517 9.96161L17.8155 9.70357C17.8134 9.68886 17.8081 9.67477 17.8 9.66228C17.7381 9.56939 17.6194 9.53843 17.5833 9.4352C17.5266 9.28038 17.5936 9.15136 17.6658 9.02232C17.673 9.00942 17.6763 8.99476 17.6754 8.98003C17.6746 8.96531 17.6694 8.95115 17.6608 8.93922C17.6522 8.9273 17.6402 8.91809 17.6265 8.9127C17.6127 8.9073 17.5977 8.90594 17.5833 8.90879L17.3459 8.95007C17.315 8.95007 17.2942 8.94491 17.2736 8.91911C17.2468 8.88426 17.2302 8.84264 17.2256 8.7989C17.221 8.75516 17.2287 8.71102 17.2478 8.67139C17.2581 8.64042 17.2736 8.64042 17.2942 8.67139C17.32 8.71268 17.3562 8.74364 17.3974 8.76429C17.4387 8.78493 17.4645 8.77461 17.4749 8.723C17.48 8.67139 17.4749 8.63527 17.4387 8.60946C17.3459 8.53204 17.2788 8.45462 17.2375 8.38238C17.2164 8.29417 17.2164 8.20222 17.2375 8.11402C17.2633 8.01078 17.2736 7.91274 17.2685 7.83015C17.2478 7.53599 17.2529 7.22634 17.2685 6.9012C17.2788 6.84958 17.2685 6.80314 17.2529 6.76185C17.2366 6.71494 17.2122 6.67126 17.1806 6.63284C17.0654 6.4908 16.9449 6.35308 16.8194 6.21996C16.8177 6.21276 16.8178 6.20525 16.8196 6.19807C16.8214 6.19088 16.8248 6.18423 16.8298 6.17868C16.8357 6.17355 16.8427 6.17 16.8503 6.16835C16.8817 6.16069 16.9143 6.16042 16.9456 6.16759C16.977 6.17475 17.0062 6.18916 17.031 6.20964C17.1343 6.30769 17.2685 6.37995 17.3459 6.49865C17.48 6.70509 17.6349 6.81862 17.6246 7.1128V7.33987C17.6298 7.74933 17.6263 8.15886 17.6142 8.56817C17.6188 8.57826 17.626 8.58693 17.6351 8.59329C17.6442 8.59964 17.6548 8.60344 17.6658 8.6043H17.6968L17.7226 8.59398C17.7412 8.59024 17.758 8.57976 17.7693 8.56452C17.7807 8.54928 17.7862 8.53037 17.7846 8.5114C17.7846 8.37721 17.8465 8.28433 17.9703 8.23787C17.9846 8.23273 17.9975 8.2245 18.0082 8.21381C18.019 8.2031 18.0271 8.19018 18.0323 8.17595L18.1251 7.9437C18.2542 7.64952 18.2697 7.37084 18.1768 7.10763C18.0866 6.86814 17.9355 6.6564 17.7381 6.49348C17.5523 6.3335 17.3252 6.18383 17.0671 6.0445C16.9352 5.9705 16.7894 5.92479 16.6387 5.9103C16.4823 5.90246 16.3254 5.90418 16.1692 5.91546C16.1666 5.91912 16.1647 5.92334 16.1638 5.92779C16.163 5.93225 16.1629 5.93686 16.164 5.94126C16.1743 5.98256 16.1951 6.01352 16.2209 6.0445C16.2517 6.06514 16.2826 6.0961 16.3084 6.12706C16.3601 6.17868 16.4118 6.22513 16.4737 6.27157C16.5872 6.36446 16.7058 6.5038 16.8246 6.69477C16.871 6.76702 16.902 6.84958 16.9123 6.92184C16.9278 7.00958 16.9485 7.09216 16.9742 7.16441C17.0104 7.28311 17.0259 7.40697 17.0156 7.54115C16.9898 7.77856 16.9949 8.01078 17.0259 8.2482C17.031 8.27915 17.0156 8.29464 16.9846 8.28948L16.902 8.27401H16.871C16.7781 7.93854 16.6697 7.61856 16.5511 7.31406C16.5202 7.23666 16.4994 7.15409 16.484 7.06635C16.4764 7.0105 16.458 6.95666 16.4297 6.90797C16.4013 6.85926 16.3637 6.81662 16.3188 6.78249C16.2982 6.76702 16.2878 6.77217 16.2826 6.79282C16.2702 6.83516 16.2685 6.87994 16.2775 6.92314C16.2865 6.96635 16.306 7.00668 16.3343 7.04054C16.3439 7.05606 16.3493 7.07388 16.3498 7.09216C16.3653 7.21086 16.4014 7.31406 16.453 7.41212C16.5459 7.59792 16.5665 7.81983 16.5046 8.07272C16.4999 8.09274 16.489 8.1108 16.4737 8.12434L16.2466 8.30496C16.2307 8.31735 16.2122 8.32572 16.1924 8.32931C16.1727 8.33291 16.1523 8.33164 16.1331 8.3256C16.1073 8.31528 16.097 8.2998 16.1021 8.27401L16.1125 8.22239L16.2414 8.10885C16.2554 8.09795 16.2664 8.08361 16.2733 8.06722C16.2802 8.05083 16.2826 8.03294 16.2806 8.01529C16.2785 7.99765 16.2719 7.98082 16.2614 7.96648C16.251 7.95213 16.2369 7.94073 16.2209 7.93338C16.1177 7.88177 15.9628 7.89725 15.8854 8.00563C15.8719 8.02606 15.8563 8.04509 15.8389 8.0624C15.8183 8.08821 15.8079 8.08304 15.8183 8.04691C15.8492 7.93338 15.8339 7.88177 15.7667 7.89209L15.8183 7.87661C15.844 7.87661 15.844 7.86113 15.8183 7.85081L15.777 7.825C15.7512 7.81468 15.7408 7.79403 15.746 7.76823C15.7977 7.37083 15.7667 6.9941 15.6532 6.62767C15.6221 6.52445 15.5809 6.4264 15.5241 6.34897C15.4841 6.28588 15.4268 6.23571 15.359 6.20448C15.3125 6.189 15.3022 6.20448 15.3177 6.2406C15.4054 6.51413 15.4776 6.78766 15.5344 7.05603C15.5963 7.35019 15.5963 7.58244 15.5344 7.75276C15.457 7.9695 15.4312 8.14498 15.4105 8.36172C15.4105 8.3927 15.3899 8.41334 15.359 8.41849L15.3125 8.42883C15.2815 8.3514 15.2608 8.27401 15.266 8.1811L15.2763 7.73727C15.2763 7.67533 15.2455 7.6392 15.1938 7.63405C15.1628 7.62373 15.1423 7.63405 15.1267 7.66501L15.1163 7.68565C15.1009 7.72178 15.0802 7.72178 15.0596 7.69599C15.0235 7.65986 15.0079 7.60824 15.0079 7.54115C15.0751 7.58244 15.1267 7.56696 15.1731 7.49987C15.2 7.45833 15.2143 7.40996 15.2145 7.36051C15.2247 7.15409 15.168 6.95797 15.0492 6.78249C15.0435 6.77432 15.0356 6.76771 15.0267 6.76321C15.0177 6.75871 15.0077 6.75648 14.9977 6.75671C14.9871 6.75704 14.9769 6.76008 14.9679 6.76549C14.9588 6.77091 14.9514 6.77853 14.946 6.78766C14.8687 6.94248 14.8687 7.11797 14.946 7.29858C14.879 7.2831 14.8428 7.29859 14.8428 7.35019C14.8377 7.67018 14.879 8.05208 14.9719 8.50108C14.9822 8.53204 14.9719 8.54236 14.9409 8.53204C14.868 8.50431 14.8012 8.46219 14.7448 8.40817C14.5573 8.22858 14.3816 8.03725 14.2184 7.83532C14.2093 7.8313 14.1992 7.83063 14.1897 7.83347C14.1803 7.83632 14.1721 7.84247 14.1668 7.85081C14.1598 7.8623 14.1554 7.87512 14.1536 7.88844C14.1517 7.90175 14.1528 7.91529 14.1564 7.92822C14.2443 8.26368 14.3113 8.83654 13.9241 9.02749C13.9105 9.01802 13.8944 9.01266 13.8778 9.012C13.8571 9.012 13.8468 8.99652 13.8519 8.97588C13.8519 8.96556 13.8519 8.9604 13.8623 8.95007C13.8689 8.94098 13.8778 8.93385 13.888 8.92943C13.9124 8.92203 13.9346 8.90875 13.9526 8.89075C13.9707 8.87275 13.9839 8.85058 13.9913 8.82622C13.9913 8.81073 14.0016 8.80041 14.012 8.79009C14.0636 8.7488 14.0636 8.70236 14.012 8.65074C14.0025 8.64248 13.9953 8.63207 13.9908 8.62037C13.9863 8.60869 13.9848 8.59608 13.9862 8.58365C13.9913 8.49592 14.0016 8.40817 14.0223 8.3256C14.0532 8.16562 14.0377 8.02627 14.0275 7.86113C14.0275 7.80951 14.0068 7.74244 13.9758 7.66501C13.9293 7.5618 13.883 7.40697 13.8365 7.21602C13.7848 6.9941 13.7333 6.77734 13.6712 6.56574C13.6559 6.39027 13.594 6.27672 13.4752 6.23028C13.4324 6.21299 13.3847 6.21182 13.3409 6.22701C13.2973 6.24218 13.2606 6.27269 13.2377 6.31284C13.1396 6.49488 13.0806 6.69547 13.0646 6.90168C13.0485 7.10791 13.0759 7.31518 13.1449 7.51019C13.1965 7.62888 13.2275 7.76308 13.2377 7.91274C13.2429 7.95402 13.2584 7.99531 13.2894 8.03144C13.3256 8.08821 13.3461 8.14498 13.3513 8.20691C13.3513 8.22755 13.3616 8.2482 13.3668 8.26368L13.4184 8.36689C13.4339 8.3927 13.4391 8.41851 13.4288 8.4443C13.4236 8.49076 13.4288 8.52688 13.4648 8.55785C13.4738 8.56452 13.4812 8.57304 13.4865 8.58285C13.492 8.59264 13.4951 8.60349 13.4958 8.61462C13.4955 8.62584 13.4924 8.63681 13.487 8.64666C13.4817 8.65652 13.4741 8.66498 13.4648 8.67139C13.4545 8.67655 13.4391 8.6714 13.4133 8.65591C13.1965 8.41334 13.052 8.19142 12.99 7.98498C12.961 7.82145 12.9558 7.65457 12.9746 7.48955C12.8794 7.43462 12.774 7.3995 12.6649 7.38632C12.6443 7.38632 12.6288 7.37084 12.6236 7.34504C12.5978 7.07667 12.5926 6.88055 12.6082 6.74637C12.634 6.5709 12.6958 6.42123 12.7992 6.30253C12.8128 6.28482 12.8304 6.27066 12.8507 6.26125C12.8661 6.25505 12.8797 6.24525 12.8905 6.23269C12.9012 6.2201 12.9088 6.20513 12.9126 6.189C12.9229 6.13739 12.9126 6.09094 12.8816 6.05997C12.8547 6.0338 12.8187 6.01917 12.7811 6.01917C12.7436 6.01917 12.7074 6.0338 12.6804 6.05997L12.572 6.17868C12.4843 6.27672 12.4636 6.41091 12.3759 6.51929C12.3616 6.53901 12.3528 6.56215 12.3501 6.58639C12.3346 6.68445 12.2984 6.77217 12.2572 6.84958C12.2396 6.88094 12.2324 6.91709 12.2365 6.9528C12.2576 7.13216 12.2472 7.3138 12.2056 7.48955C12.192 7.54452 12.1693 7.59683 12.1385 7.64437C12.1076 7.69082 12.0868 7.74759 12.0766 7.79919L12.0405 8.04691C12.0353 8.07789 12.0094 8.08821 11.9631 8.07272C11.9336 8.05913 11.9088 8.0377 11.8908 8.01078C11.9579 8.03144 12.0044 8.02627 12.0301 7.99014C12.0508 7.9695 12.0559 7.92822 12.0508 7.87145C12.0317 7.62237 12.0317 7.37219 12.0508 7.12312C12.052 7.11192 12.0508 7.10056 12.0472 7.08987C12.0437 7.07918 12.0378 7.06938 12.0301 7.06118L11.9992 7.03022C11.9682 6.99925 11.9476 7.00442 11.9321 7.05086C11.896 7.15409 11.9114 7.2573 11.8701 7.36051C11.8185 7.47406 11.7772 7.59792 11.7256 7.72178C11.7669 7.34504 11.8443 6.97861 11.9631 6.62252C11.994 6.52961 12.0353 6.44704 12.0816 6.3851L12.2623 6.15803C12.2712 6.14849 12.2774 6.13675 12.28 6.12403C12.2828 6.11132 12.282 6.0981 12.2779 6.08578C12.2431 5.97922 12.1868 5.88089 12.1128 5.79676C12.058 5.72947 11.9811 5.68374 11.896 5.66775C11.7255 5.63351 11.5496 5.63527 11.3799 5.67292C11.2405 5.70904 11.1012 5.74514 10.967 5.79676C10.9541 5.79879 10.9421 5.80487 10.9328 5.81416C10.9235 5.82343 10.9175 5.83542 10.9155 5.84837C10.8793 5.99288 10.8123 6.0961 10.7245 6.15803L10.5593 6.26125C10.5472 6.26844 10.5369 6.27815 10.5288 6.28972C10.5207 6.3013 10.5153 6.31447 10.5129 6.32833C10.4406 6.64316 10.3477 6.96829 10.2239 7.27279C10.1794 7.37948 10.1533 7.49288 10.1464 7.60824C10.1207 8.00046 10.1309 8.39785 10.1774 8.79524C10.1774 8.82105 10.1929 8.84686 10.2083 8.8675C10.2497 8.91911 10.26 8.9862 10.2445 9.06362C10.2239 9.14619 10.167 9.18232 10.0794 9.16168C10.0193 8.98427 9.92653 8.81971 9.80581 8.67655C9.81613 8.64559 9.81096 8.59398 9.79032 8.52172C9.78615 8.50128 9.78615 8.48023 9.79032 8.45979C9.83576 8.18342 9.88738 7.9081 9.94519 7.63405C9.99673 7.44825 10.0484 7.26247 10.0845 7.06635C10.1 6.98378 10.1259 6.89603 10.1516 6.81347C10.1878 6.72573 10.2032 6.62767 10.2032 6.51929C10.2027 6.50612 10.1993 6.4932 10.1934 6.48141C10.1875 6.46963 10.1791 6.45924 10.1688 6.45093C10.1586 6.44264 10.1467 6.43662 10.1339 6.43327C10.1212 6.42993 10.1078 6.42934 10.0948 6.43156C9.68194 6.49864 8.9078 6.73605 8.77362 7.17989C8.69621 7.45857 8.63943 7.72178 8.60847 7.9695C8.58783 8.11917 8.59299 8.27916 8.61879 8.4443C8.64976 8.59914 8.61363 8.7488 8.66008 8.8933C8.69104 8.99652 8.71169 9.09974 8.72717 9.20813L8.76847 9.621C8.76847 9.65196 8.78394 9.67776 8.80975 9.6984C8.87684 9.76034 8.91297 9.83259 8.92329 9.92548C8.92409 9.93397 8.9275 9.94199 8.93304 9.94846C8.93857 9.95492 8.946 9.95952 8.95425 9.96161C8.97489 9.96678 8.98522 9.9771 8.98522 9.99774C9.03712 10.1794 9.10625 10.3557 9.19166 10.5241C9.24326 10.6377 9.33099 10.6997 9.43937 10.7152C9.46518 10.7874 9.41873 10.8132 9.28971 10.7822C9.24217 10.7708 9.19683 10.7516 9.15553 10.7255C9.04142 10.6519 8.92043 10.5898 8.79427 10.5396C8.57235 10.5139 8.42784 10.3796 8.35558 10.1423C8.32559 9.98155 8.32909 9.8164 8.3659 9.65712C8.37112 9.63304 8.36933 9.60797 8.36075 9.58488C8.29366 9.38359 8.22141 9.18232 8.20592 8.97072L8.15432 8.24304C8.14743 8.15095 8.12655 8.06045 8.09238 7.97466C8.05262 7.86283 8.05262 7.74072 8.09238 7.62888C8.18309 7.33059 8.27599 7.03297 8.37107 6.73605C8.36982 6.72788 8.36694 6.72002 8.36261 6.71296C8.35828 6.70591 8.35257 6.6998 8.34584 6.69499C8.3391 6.69018 8.33148 6.68676 8.3234 6.68496C8.31532 6.68315 8.30696 6.68297 8.29881 6.68445C8.21057 6.69916 8.12827 6.73853 8.06142 6.79798L7.66403 7.13861L7.57113 7.25214C7.53971 7.29152 7.51368 7.33491 7.49372 7.38116C7.35436 7.70631 7.28728 8.05208 7.30276 8.40817L7.246 9.54358C7.22592 9.72433 7.25816 9.90703 7.33888 10.07C7.39049 10.1836 7.42662 10.1732 7.44211 10.0494L7.45243 9.91516C7.45243 9.76034 7.51951 9.60035 7.52984 9.44036C7.54532 9.16168 7.63823 8.92426 7.63823 8.64042C7.63823 8.63526 7.63823 8.62494 7.64855 8.61462C7.65382 8.60761 7.66099 8.60225 7.66919 8.59913C7.68983 8.59913 7.69499 8.58366 7.69499 8.56817C7.69499 8.47528 7.71048 8.37721 7.73627 8.28433C7.74661 8.23272 7.78274 8.21207 7.82918 8.21723L7.86014 8.22239C7.88905 8.23337 7.91367 8.25334 7.93039 8.27934C7.94712 8.30535 7.95505 8.33603 7.95303 8.36689L7.90658 8.83137C7.89342 8.98592 7.89342 9.14131 7.90658 9.29586C7.9169 9.51777 7.9169 9.75517 7.89626 10.0081C7.88594 10.1681 7.79305 10.2506 7.74144 10.3952C7.70531 10.4984 7.6537 10.5913 7.57629 10.6738C7.42147 10.8339 7.26665 11.0041 7.11181 11.1796C7.04472 11.2519 6.9673 11.2932 6.88989 11.3448C6.87026 11.3585 6.84678 11.3658 6.82279 11.3654C6.81174 11.3663 6.80113 11.3701 6.79206 11.3765C6.78298 11.3828 6.77577 11.3914 6.77119 11.4016C6.75983 11.4238 6.74178 11.4418 6.71959 11.4532C6.52347 11.5564 6.40993 11.7214 6.38928 11.9434L5.97641 12.0569C5.94301 11.9518 5.9485 11.8382 5.99189 11.737C6.10544 11.448 6.28089 11.1694 6.37896 10.8596C6.4667 10.5964 6.52347 10.3332 6.55443 10.0752C6.59056 9.78615 6.63701 9.52809 6.68346 9.2907L6.9931 7.78887L7.07568 7.05086C7.09117 6.9528 7.05504 6.93216 6.97246 6.98893C6.90537 7.03538 6.85376 7.12829 6.80732 7.27279C6.77634 7.36051 6.69895 7.42761 6.62152 7.47922C6.60004 7.49153 6.58223 7.50934 6.56991 7.53083C6.49766 7.70114 6.39444 7.85081 6.26025 7.98498C6.19833 8.04691 6.14156 8.12949 6.08995 8.21723C5.90416 8.55268 5.75449 8.88815 5.64095 9.21845C5.54805 9.49713 5.42935 9.76034 5.3571 10.0494C5.29516 10.3074 5.22809 10.5654 5.15066 10.8132C5.0268 11.2003 4.96488 11.5564 4.89262 11.9382C4.84101 12.2375 4.87714 12.5471 4.86165 12.8569C4.80802 13.3949 4.83762 13.938 4.94939 14.467C5.04745 14.8283 5.17131 15.1586 5.32614 15.458C5.40872 15.6129 5.46548 15.6077 5.49644 15.4322C5.54805 15.1432 5.46031 14.8748 5.47064 14.5962C5.48096 14.3019 5.48612 13.9974 5.48612 13.6878C5.48612 13.5948 5.49644 13.5175 5.51192 13.4606C5.54805 13.3471 5.59967 13.2852 5.66675 13.28C5.84222 13.4968 6.0435 13.6774 6.27057 13.8168C6.23779 13.8297 6.20206 13.8333 6.16737 13.8271C6.14157 13.8219 6.11576 13.8271 6.10027 13.8426C6.06931 13.8736 6.06931 13.9046 6.10027 13.9406C6.28606 14.1213 6.51315 14.2812 6.7557 14.3794L7.18923 14.5702C7.25632 14.6014 7.31824 14.6425 7.36468 14.6994C7.42147 14.7613 7.47823 14.8231 7.54532 14.88C7.61242 14.947 7.63306 15.0606 7.63306 15.1534C7.63306 15.1794 7.64338 15.1999 7.65887 15.2206L7.80337 15.3858C7.81973 15.4043 7.82888 15.4282 7.82918 15.4529C7.82918 15.4734 7.8395 15.4942 7.84982 15.5147C7.98916 15.7109 8.13883 15.8554 8.30914 15.9482C8.41235 15.9999 8.50526 16.0774 8.57235 16.165C8.6446 16.2528 8.71685 16.3405 8.79942 16.4231C8.92329 16.5573 9.04715 16.6398 9.16069 16.6606C9.32583 16.6967 9.41873 16.7791 9.44969 16.9184C9.03682 17.1146 8.72202 17.2281 8.51041 17.2488C8.23173 17.2796 7.96852 17.321 7.72595 17.3727C7.48339 17.4242 7.246 17.4449 7.01891 17.4397C6.67829 17.4397 6.33768 17.4603 5.99189 17.5016C5.75449 17.5326 4.95971 17.6513 4.86682 17.3158C4.81004 17.094 5.10422 16.9958 5.25904 16.9288C5.28709 16.9164 5.31008 16.8948 5.32417 16.8676C5.33825 16.8404 5.34259 16.8092 5.33646 16.7791C5.29516 16.5831 5.24872 16.387 5.19196 16.1858C5.10422 15.876 5.19196 15.5045 5.03713 15.2206C4.84806 14.9042 4.71207 14.559 4.63458 14.1987C4.58296 13.8426 4.51587 13.4865 4.51587 13.1252C4.51587 12.3407 4.65007 11.577 4.91841 10.8235C5.01133 10.5603 5.17647 10.3332 5.17647 10.039C5.17647 9.78098 5.14551 9.53841 5.18679 9.27006C5.22809 8.99136 5.2642 8.75397 5.30548 8.54753C5.33129 8.40817 5.42419 8.21207 5.58935 7.95918C5.64611 7.87145 5.69256 7.74244 5.71837 7.57212C5.74418 7.40697 5.8061 7.25214 5.86286 7.09216C5.8835 7.02506 5.90416 6.92184 5.91448 6.78249C5.92995 6.67928 5.95061 6.57607 5.98673 6.46252C5.98673 6.55541 5.99189 6.61735 6.01254 6.64316C6.0166 6.6486 6.02233 6.65256 6.02885 6.65443C6.03538 6.65628 6.04234 6.65596 6.04867 6.65348L6.05899 6.64831L6.0848 6.62252C6.09326 6.61542 6.10346 6.61074 6.11435 6.60892C6.12525 6.6071 6.13642 6.60824 6.14672 6.61218L6.2293 6.62252C6.2551 6.62252 6.28089 6.6122 6.30155 6.59671C6.45638 6.49348 6.62669 6.4264 6.78151 6.31284C7.02017 6.12837 7.29995 6.00442 7.59693 5.95158C7.88759 5.91669 8.16741 5.81989 8.41752 5.66775C8.49492 5.61613 8.58783 5.63679 8.67556 5.60066C8.73305 5.57816 8.79451 5.56763 8.85618 5.56968C9.01102 5.57485 9.15553 5.50775 9.31036 5.50775C9.49614 5.50775 9.6871 5.49228 9.88835 5.46647C10.2187 5.42002 10.549 5.40454 10.8793 5.42002C10.9051 5.42002 10.9257 5.43034 10.9413 5.44066C11.0548 5.51808 11.1683 5.54388 11.2868 5.53356C11.3902 5.51807 11.4934 5.51807 11.5966 5.52324C11.7463 5.53872 11.8701 5.51292 11.9836 5.45098C12.0766 5.39937 12.1643 5.37873 12.2572 5.39422H12.4533C12.5463 5.37873 12.6443 5.37356 12.7372 5.36324C12.7992 5.36324 12.8611 5.35292 12.9229 5.33228C12.9934 5.30775 13.0639 5.28367 13.1345 5.26003C13.1416 5.25271 13.1469 5.24388 13.15 5.23422C13.1914 5.11553 13.1449 5.04843 13.021 5.04328C12.7699 5.0293 12.518 5.03447 12.2675 5.05876C12.216 5.05876 12.1746 5.07424 12.1333 5.09489C12.1108 5.1058 12.086 5.11111 12.0611 5.11037H11.2044C11.1703 5.11185 11.1364 5.10335 11.1072 5.08594C11.0779 5.06853 11.0543 5.04294 11.0393 5.0123L10.9722 4.88328C10.9628 4.86766 10.9575 4.8499 10.9568 4.83166C10.9568 4.80587 10.9413 4.78522 10.9155 4.78007C10.8668 4.76587 10.8159 4.76235 10.7657 4.76974C10.7349 4.76974 10.7039 4.76974 10.678 4.7491C10.5387 4.65621 10.3684 4.6046 10.1877 4.59428C10.069 4.59428 9.96578 4.56847 9.84193 4.58912C9.55808 4.64072 9.25358 4.65104 8.98005 4.7491C8.86817 4.79276 8.74923 4.8155 8.62911 4.81619C8.51558 4.81619 8.41235 4.87296 8.31945 4.9349C8.24721 4.98134 8.16979 5.0123 8.08206 5.03811C7.91174 5.0794 7.74144 5.16198 7.57113 5.28067C7.54416 5.30119 7.51198 5.3137 7.47823 5.3168C7.4475 5.31983 7.41665 5.31257 7.39049 5.29616C7.38017 5.28584 7.37502 5.26518 7.37502 5.2239C7.55049 5.03295 7.69499 4.84715 7.9169 4.70781C8.45364 4.38268 9.0265 4.0369 9.67162 4.01626C10.6646 3.98164 11.6588 4.00232 12.6495 4.07818C13.1397 4.11948 13.661 4.2072 14.2184 4.34139C14.3216 4.3672 14.4145 4.40332 14.5125 4.44461L16.1899 5.16198C16.3962 5.24971 16.6285 5.37356 16.8865 5.54388L17.5729 5.98256C17.7123 6.0703 17.8826 6.21481 18.0838 6.41608C18.2181 6.55026 18.3265 6.7309 18.409 6.96312C18.569 7.41212 18.667 7.76824 18.7135 8.03144C18.8167 8.65075 18.6878 9.21845 18.3315 9.71906Z" fill="#764D40"/>
<path d="M5.98584 6.46232L7.37928 5.2237C7.37412 5.26499 7.37928 5.28563 7.3896 5.29595C7.41541 5.31144 7.44637 5.32176 7.47734 5.31659C7.51347 5.31659 7.54443 5.30111 7.57024 5.28047C7.74055 5.16177 7.91086 5.07404 8.08632 5.03791C8.1689 5.0121 8.24632 4.98114 8.31857 4.93469C8.41146 4.87277 8.51468 4.816 8.62822 4.816C8.74177 4.816 8.86046 4.79534 8.97916 4.74889C9.25269 4.64568 9.55718 4.63536 9.84104 4.58892C9.96489 4.56827 10.0681 4.58891 10.1869 4.59924C10.3727 4.60439 10.5378 4.656 10.677 4.75406C10.7029 4.76953 10.7338 4.7747 10.7648 4.76955C10.8163 4.76438 10.868 4.76955 10.9145 4.77987C10.9402 4.78502 10.9558 4.80567 10.9558 4.83147C10.9558 4.85212 10.9609 4.8676 10.9712 4.88309L11.0383 5.0121C11.0744 5.0792 11.1261 5.11533 11.2035 5.11533H12.0602C12.0856 5.11448 12.1104 5.1074 12.1325 5.09469C12.1745 5.07432 12.22 5.06205 12.2666 5.05856C12.5171 5.03428 12.769 5.02909 13.0201 5.04308C13.144 5.04823 13.1905 5.11533 13.1492 5.23402C13.1465 5.24452 13.1415 5.25423 13.1342 5.26231C13.127 5.2704 13.118 5.27663 13.1079 5.28047L12.9221 5.33208C12.8601 5.35272 12.7983 5.36304 12.7362 5.36304C12.6413 5.37031 12.5467 5.38065 12.4524 5.39402H12.2564C12.162 5.38106 12.066 5.39919 11.9828 5.44562C11.8692 5.51272 11.7454 5.53852 11.6009 5.52304C11.4977 5.51787 11.3944 5.52304 11.286 5.53336C11.163 5.5487 11.039 5.51537 10.9402 5.44047C10.922 5.42793 10.9005 5.42078 10.8784 5.41983C10.5482 5.40434 10.2178 5.41983 9.88746 5.46627C9.6862 5.49208 9.49525 5.50755 9.30947 5.50755C9.15464 5.50755 9.01014 5.57465 8.85529 5.56949C8.79187 5.56671 8.7286 5.57727 8.66952 5.60045C8.58177 5.63658 8.49403 5.61594 8.41146 5.66753C8.1689 5.82237 7.89537 5.9101 7.59604 5.95139C7.30186 5.98752 7.01286 6.1475 6.78062 6.31265C6.6258 6.42619 6.45548 6.49328 6.30065 6.59651C6.27933 6.61146 6.25437 6.62038 6.22841 6.62231C6.19744 6.62231 6.17163 6.62231 6.14582 6.61198C6.13553 6.60803 6.12435 6.6069 6.11346 6.60872C6.10257 6.61054 6.09237 6.61522 6.0839 6.62231L6.0581 6.64811C6.05443 6.65082 6.05022 6.65269 6.04577 6.65358C6.04131 6.65447 6.03671 6.65436 6.03229 6.65327C6.02433 6.65262 6.01694 6.64893 6.01165 6.64295C5.99099 6.61199 5.98584 6.55522 5.98584 6.46232Z" fill="#68473D"/>
<path d="M11.7259 7.72127C11.7879 7.77804 11.8136 7.83481 11.8033 7.89158C11.7775 7.86577 11.7518 7.86062 11.7311 7.87609C11.7238 7.87978 11.7173 7.88488 11.712 7.89108C11.7067 7.89728 11.7027 7.90447 11.7001 7.91222C11.6382 8.07738 11.6175 8.24252 11.6382 8.40767C11.6489 8.50031 11.6308 8.59401 11.5865 8.67604C11.4575 8.93409 11.2304 9.04763 10.9156 9.02182C10.6834 9.00118 10.575 8.76377 10.6472 8.55734C10.6576 8.53153 10.6782 8.52637 10.6989 8.54185C10.7452 8.56249 10.7763 8.59347 10.8021 8.63474C10.8331 8.68636 10.9053 8.71733 10.9672 8.68636C10.9799 8.68037 10.9906 8.67084 10.9978 8.65893C11.0051 8.64703 11.0088 8.63325 11.0085 8.61928C11.0292 8.39735 10.9156 8.37671 10.7917 8.24252C10.8588 8.26316 10.9053 8.24769 10.9208 8.20122C11.0395 7.87609 11.0963 7.57161 11.1015 7.2826C11.1015 7.17937 11.055 7.14324 10.957 7.18454C10.8588 7.22582 10.8073 7.35485 10.8021 7.56129C10.8021 7.59224 10.8021 7.61805 10.7866 7.64386C10.7247 7.76256 10.6989 7.89158 10.7143 8.02577L10.6937 8.02061L10.6885 8.01545C10.642 7.69547 10.7041 7.4013 10.864 7.13809C10.8795 7.10196 10.9415 7.03487 11.0447 6.94198C11.1117 6.87489 11.1634 6.79747 11.1943 6.70457C11.2016 6.6831 11.2163 6.66487 11.2356 6.65296C11.3233 6.60135 11.3905 6.53944 11.4523 6.45685C11.4665 6.43744 11.4863 6.42298 11.5091 6.41557C11.6036 6.38652 11.6843 6.32417 11.7362 6.24009C11.7403 6.2312 11.7425 6.22152 11.7425 6.2117C11.7425 6.2019 11.7403 6.19221 11.7362 6.18332C11.7321 6.17391 11.7256 6.16569 11.7175 6.15939C11.7095 6.15308 11.6999 6.14889 11.6897 6.14719C11.6362 6.13768 11.5809 6.14874 11.535 6.17817C11.5156 6.19321 11.4923 6.20219 11.4678 6.20396C11.4541 6.20451 11.4403 6.20451 11.4266 6.20396C11.4007 6.20396 11.375 6.20396 11.3543 6.21945C11.2099 6.30718 11.0653 6.4104 10.9208 6.5291C10.8669 6.5705 10.8231 6.6236 10.7927 6.68439C10.7623 6.74518 10.7461 6.81208 10.7452 6.88004C10.7444 6.89391 10.7408 6.90744 10.7347 6.91985C10.7284 6.93227 10.7197 6.9433 10.7091 6.9523C10.7003 6.96064 10.6917 6.96925 10.6834 6.97811C10.667 6.99585 10.6546 7.017 10.6472 7.04003L10.5388 7.32388C10.5027 7.41678 10.4821 7.52517 10.4718 7.64901C10.4523 7.90696 10.402 8.16164 10.3221 8.40767C10.3067 8.4696 10.3067 8.60379 10.3221 8.81022C10.3221 8.83603 10.3324 8.86183 10.3479 8.87731C10.3789 8.92892 10.3995 9.00118 10.3995 9.08375L10.3067 9.36244C10.3015 9.38825 10.2808 9.39857 10.255 9.38308C10.1741 9.32995 10.1125 9.2521 10.0796 9.16116C10.1672 9.1818 10.2241 9.14568 10.2446 9.05795C10.2539 9.02551 10.2555 8.99135 10.2492 8.95819C10.243 8.92504 10.229 8.89382 10.2085 8.86699C10.1918 8.84623 10.1811 8.82122 10.1776 8.79473C10.1311 8.39735 10.126 7.99996 10.1466 7.60773C10.1535 7.49237 10.1796 7.37898 10.2241 7.27228C10.3479 6.96779 10.4408 6.64264 10.5131 6.32782C10.5183 6.29686 10.5337 6.27622 10.5595 6.26074L10.7247 6.15751C10.8175 6.09558 10.8795 5.99237 10.9208 5.84787C10.922 5.83624 10.9266 5.82523 10.9339 5.81608C10.9413 5.80696 10.9511 5.80008 10.962 5.79625C11.1015 5.74464 11.2408 5.70851 11.375 5.67239C11.5452 5.63626 11.7207 5.6311 11.8911 5.66723C11.9839 5.68272 12.0562 5.724 12.113 5.79625C12.1902 5.89432 12.247 5.98721 12.278 6.08526C12.2832 6.11623 12.278 6.13687 12.2625 6.15751L12.0819 6.38459C12.0304 6.44653 11.9943 6.5291 11.9633 6.622C11.8446 6.98327 11.7671 7.34453 11.7259 7.72127ZM17.2378 8.38187C17.1776 8.3955 17.1233 8.42806 17.0829 8.47477C17.0727 8.48682 17.0591 8.49567 17.0439 8.50025C17.0287 8.50484 17.0126 8.50496 16.9974 8.5006C16.9821 8.49625 16.9685 8.48761 16.9581 8.47571C16.9476 8.4638 16.9409 8.44914 16.9384 8.43348L16.9023 8.2735L16.9849 8.28897C17.021 8.28897 17.0365 8.27865 17.0262 8.24769C16.9951 8.01028 16.9901 7.77804 17.0158 7.54064C17.0262 7.40646 17.0158 7.2826 16.9745 7.1639C16.9488 7.09164 16.9229 7.00907 16.9126 6.92134C16.9023 6.84392 16.8713 6.76651 16.8249 6.69425C16.7329 6.53417 16.6142 6.39104 16.4739 6.27106L16.3087 6.12655C16.281 6.09586 16.2517 6.06658 16.221 6.03882C16.1924 6.01284 16.1725 5.97856 16.1642 5.94076C16.1631 5.93635 16.1631 5.93174 16.164 5.92728C16.1648 5.92283 16.1667 5.91861 16.1694 5.91495C16.1726 5.91134 16.1766 5.90853 16.1811 5.90674C16.1857 5.90495 16.1905 5.90423 16.1953 5.90464C16.3398 5.89948 16.4893 5.90463 16.639 5.9098C16.7784 5.92012 16.9178 5.96141 17.0674 6.04399C17.3253 6.18332 17.5524 6.33299 17.7383 6.49297C17.9499 6.67876 18.0996 6.88004 18.177 7.10711C18.2699 7.36517 18.2544 7.64901 18.1253 7.94319L18.0325 8.17543C18.0273 8.18966 18.0191 8.20258 18.0084 8.2133C17.9977 8.22398 17.9848 8.23222 17.9704 8.23735C17.8467 8.28897 17.7848 8.37671 17.7848 8.51089C17.7848 8.55217 17.764 8.57798 17.7228 8.59347L17.697 8.60379C17.6866 8.60775 17.6756 8.60887 17.6646 8.60706C17.6537 8.60525 17.6437 8.59986 17.6353 8.59278C17.6272 8.58692 17.6203 8.57985 17.6158 8.57085C17.6112 8.56186 17.6091 8.55191 17.6092 8.54185C17.6263 8.06555 17.6315 7.58887 17.6248 7.11228C17.6351 6.81811 17.4802 6.70973 17.346 6.49814C17.2686 6.37944 17.1397 6.30718 17.0313 6.20913C17.0075 6.18852 16.9793 6.17362 16.949 6.16558C16.9185 6.15753 16.8868 6.15654 16.8558 6.16268C16.8469 6.16451 16.8389 6.1689 16.8323 6.17532C16.8259 6.18174 16.8216 6.1899 16.8197 6.19881C16.818 6.20601 16.8181 6.21352 16.8199 6.2207C16.8216 6.22788 16.8251 6.23454 16.8301 6.24009C16.954 6.36912 17.0725 6.49814 17.1809 6.63232C17.2119 6.66844 17.2326 6.70973 17.2531 6.76134C17.2686 6.80264 17.279 6.84908 17.2738 6.9007C17.2531 7.22583 17.248 7.53549 17.2686 7.82964C17.2686 7.91224 17.2686 8.01028 17.2428 8.11351C17.2221 8.21671 17.217 8.30446 17.2428 8.38187H17.2378ZM12.9748 7.48904C12.904 7.46916 12.8314 7.45704 12.758 7.45291C12.5774 7.44774 12.5 7.56129 12.4793 7.72643C12.4557 7.98507 12.4264 8.24318 12.3916 8.50057C12.3954 8.51649 12.4046 8.53053 12.4179 8.54004C12.4312 8.54954 12.4476 8.55386 12.4638 8.55217C12.4898 8.54978 12.5146 8.5409 12.5361 8.52638C12.5432 8.52048 12.5518 8.51685 12.5611 8.51592C12.5703 8.515 12.5796 8.51685 12.5876 8.52121C12.5928 8.52121 12.6032 8.5367 12.6032 8.54702C12.6069 8.55531 12.6085 8.56446 12.6075 8.57352C12.6066 8.58258 12.6034 8.59125 12.598 8.59862C12.5563 8.66343 12.4973 8.71527 12.4277 8.74829C12.3934 8.76241 12.355 8.76278 12.3203 8.74932C12.2858 8.73588 12.2577 8.70964 12.2419 8.67604L11.9633 8.07222C12.0097 8.08254 12.0356 8.07222 12.0407 8.04641L12.0768 7.79868C12.087 7.74708 12.1078 7.69031 12.1387 7.64386C12.1697 7.59225 12.1902 7.54064 12.2058 7.48904C12.2473 7.3133 12.2578 7.13165 12.2367 6.9523C12.2367 6.91617 12.2367 6.88004 12.2574 6.84908C12.3038 6.77166 12.3347 6.68393 12.3503 6.58588C12.3503 6.56008 12.3606 6.53427 12.3761 6.51878C12.4638 6.41557 12.4793 6.27622 12.5722 6.17817L12.6806 6.05946C12.7076 6.03329 12.7437 6.01866 12.7813 6.01866C12.8189 6.01866 12.8549 6.03329 12.8818 6.05946C12.9128 6.09042 12.9231 6.1317 12.9128 6.18849C12.9097 6.2041 12.9028 6.21874 12.8929 6.23127C12.883 6.24381 12.8705 6.2539 12.8561 6.26074C12.8339 6.26942 12.8144 6.28364 12.7994 6.30202C12.696 6.42072 12.6342 6.5704 12.6083 6.74585C12.5928 6.88004 12.598 7.07616 12.629 7.34453C12.629 7.37033 12.6445 7.38581 12.6702 7.39097C12.8096 7.41161 12.9078 7.44259 12.9748 7.48904Z" fill="#84584D"/>
<path d="M10.7082 8.02599L10.7289 8.04663C10.4759 8.1292 10.4708 8.84141 10.3933 9.08914C10.3933 9.00141 10.3779 8.93432 10.3418 8.8827C10.3293 8.86059 10.3222 8.83583 10.3211 8.81045C10.3057 8.60402 10.3057 8.46983 10.3211 8.40789C10.4037 8.14986 10.4552 7.89697 10.4759 7.64925C10.4759 7.52539 10.5018 7.41701 10.5378 7.3241L10.6462 7.04026C10.6536 7.01722 10.666 6.99608 10.6823 6.97833L10.7082 6.95252C10.7187 6.94353 10.7274 6.93249 10.7337 6.92008C10.7398 6.90766 10.7434 6.89413 10.7442 6.88027C10.7442 6.74093 10.8062 6.62223 10.9198 6.52933C11.0643 6.41063 11.2089 6.30741 11.3534 6.21967L11.4256 6.20419C11.4394 6.20474 11.453 6.20474 11.4668 6.20419C11.4927 6.20419 11.5185 6.19387 11.534 6.17839C11.5855 6.14742 11.6372 6.1371 11.6887 6.14742C11.6998 6.14827 11.7104 6.15207 11.7196 6.15842C11.7286 6.16478 11.7358 6.17345 11.7404 6.18355C11.7442 6.19273 11.7456 6.20267 11.7447 6.21255C11.7438 6.22244 11.7406 6.23195 11.7352 6.24031C11.6834 6.32439 11.6026 6.38675 11.5081 6.41579C11.4854 6.42321 11.4654 6.43766 11.4514 6.45707C11.3946 6.53966 11.3223 6.60158 11.2346 6.65318C11.2152 6.66509 11.2006 6.68333 11.1933 6.7048C11.1641 6.79521 11.1126 6.87684 11.0436 6.9422C10.9404 7.04026 10.8786 7.1022 10.863 7.13832C10.7047 7.40163 10.6446 7.71229 10.6927 8.01567L10.7133 8.02599H10.7082ZM15.7658 7.89181L15.4252 8.42855C15.4191 8.43806 15.4101 8.44532 15.3995 8.44919C15.3478 8.47499 15.3168 8.46983 15.3117 8.42855L15.3582 8.41821C15.3892 8.41821 15.4097 8.39242 15.4097 8.36661C15.4304 8.14469 15.4614 7.96922 15.5336 7.75246C15.5956 7.58216 15.5956 7.34991 15.5336 7.05575C15.482 6.78737 15.4045 6.51385 15.3168 6.24031C15.3013 6.19903 15.3168 6.18871 15.3582 6.20419C15.42 6.23515 15.4768 6.2816 15.5233 6.34869C15.5749 6.42611 15.6213 6.51901 15.6524 6.62738C15.7658 6.98865 15.7969 7.37056 15.7452 7.76278C15.7452 7.79374 15.7504 7.8144 15.7762 7.82472L15.8227 7.85053C15.8432 7.86085 15.8432 7.87117 15.8227 7.87632L15.7658 7.89181Z" fill="#9B7266"/>
<path d="M13.671 6.56612C13.6464 6.51018 13.6114 6.4594 13.5678 6.41648C13.5318 6.38035 13.5112 6.39067 13.5112 6.44743C13.5217 6.63606 13.5529 6.82298 13.6039 7.00481C13.6298 7.08222 13.6349 7.1648 13.6195 7.26285C13.6195 7.28865 13.6195 7.31446 13.6298 7.3351C13.664 7.40589 13.6817 7.48354 13.6813 7.56219C13.6813 7.64476 13.6865 7.72734 13.7071 7.80991C13.7794 8.07828 13.8104 8.30019 13.7949 8.4705C13.7743 8.72855 13.6917 8.93499 13.5318 9.08465C13.2841 9.08465 13.088 9.02271 12.9538 8.89887C12.9124 8.86274 12.9022 8.82662 12.9124 8.78532C12.9383 8.71307 12.9796 8.7079 13.026 8.76468C13.1447 8.88855 13.2531 8.93499 13.3615 8.90403C13.3786 8.90008 13.3942 8.8911 13.4062 8.87822C13.4181 8.86533 13.4259 8.84915 13.4286 8.83177C13.4381 8.7725 13.4309 8.71177 13.408 8.6563C13.439 8.67179 13.4595 8.67694 13.4595 8.67178C13.4681 8.66591 13.4753 8.65826 13.4807 8.64935C13.486 8.64045 13.4894 8.63049 13.4905 8.62017C13.4912 8.60858 13.4891 8.59698 13.4847 8.58626C13.4802 8.57555 13.4734 8.56597 13.4647 8.55824C13.4483 8.54491 13.436 8.52705 13.4297 8.50688C13.4233 8.48669 13.4229 8.46509 13.4286 8.4447C13.4338 8.41891 13.4286 8.3931 13.4182 8.36729L13.3666 8.26407C13.3584 8.24794 13.3532 8.23045 13.3511 8.21246C13.347 8.14698 13.3237 8.08418 13.2841 8.03183C13.2581 7.99723 13.242 7.95618 13.2376 7.91314C13.2269 7.77507 13.1955 7.6394 13.1447 7.51057C13.0758 7.31558 13.0484 7.1083 13.0644 6.90208C13.0804 6.69586 13.1394 6.49527 13.2376 6.31325C13.2605 6.27309 13.2972 6.24258 13.3408 6.2274C13.3845 6.21221 13.4322 6.21338 13.475 6.23067C13.5937 6.28229 13.6556 6.3855 13.671 6.56612Z" fill="#84584D"/>
<path d="M13.6717 6.56527L13.8369 7.21554C13.8884 7.41165 13.9297 7.56133 13.9762 7.66455C14.0071 7.74196 14.0226 7.80905 14.0278 7.86582C14.0381 8.02064 14.0536 8.16516 14.0226 8.31998C14.002 8.40772 13.9918 8.49544 13.9814 8.58319C13.9814 8.61415 13.9918 8.63479 14.0071 8.65027C14.0588 8.70188 14.0588 8.74833 14.0071 8.78963C13.9966 8.79918 13.9894 8.81182 13.9866 8.82575C13.9791 8.85011 13.9658 8.87228 13.9479 8.89029C13.9298 8.90829 13.9077 8.92158 13.8834 8.92897C13.8749 8.93411 13.8678 8.94117 13.8626 8.9496C13.8571 8.95722 13.8536 8.96609 13.8522 8.97541C13.8472 8.99605 13.8522 9.01153 13.8782 9.01153L13.9297 9.02702C13.775 9.07863 13.6407 9.09411 13.5323 9.08379C13.6872 8.92897 13.775 8.72253 13.7955 8.46448C13.8059 8.29933 13.78 8.07741 13.7078 7.80905C13.6867 7.72819 13.6762 7.6449 13.6768 7.56133C13.6787 7.48309 13.6629 7.40543 13.6305 7.33425C13.6201 7.31166 13.6165 7.28657 13.6201 7.26199C13.6355 7.16394 13.6305 7.08135 13.6046 7.00394C13.5534 6.82211 13.5222 6.63519 13.5117 6.44656C13.5117 6.38979 13.5323 6.37948 13.5736 6.4156C13.6046 6.44141 13.6355 6.49301 13.6717 6.56527Z" fill="#9B7266"/>
<path d="M9.80547 8.67722C9.63321 8.89717 9.50623 9.14904 9.43182 9.41832C9.35741 9.68759 9.33706 9.96895 9.37195 10.2461C9.38743 10.401 9.40808 10.5559 9.43904 10.7106C9.33066 10.7003 9.24809 10.6383 9.19132 10.5247C9.09309 10.346 9.01354 10.1575 8.95392 9.96228C8.94567 9.9602 8.93825 9.9556 8.93271 9.94913C8.92717 9.94266 8.92376 9.93464 8.92296 9.92615C8.92052 9.88256 8.90919 9.83993 8.88967 9.80088C8.87014 9.76183 8.84283 9.72718 8.8094 9.69907C8.79774 9.68956 8.78808 9.6778 8.78099 9.66451C8.77389 9.65123 8.76952 9.63666 8.76812 9.62167L8.72684 9.20879C8.71561 9.10347 8.69312 8.99966 8.65975 8.89914C8.60814 8.7443 8.64944 8.59464 8.61846 8.44498C8.59038 8.28821 8.5869 8.12801 8.60814 7.97018C8.63909 7.72244 8.69588 7.45924 8.77328 7.18055C8.90232 6.73671 9.67644 6.49931 10.0944 6.43224C10.1071 6.4308 10.1199 6.43198 10.132 6.43568C10.1442 6.43939 10.1554 6.44553 10.1651 6.45376C10.1748 6.46198 10.1827 6.47209 10.1883 6.48348C10.1939 6.49487 10.197 6.50727 10.1978 6.51995C10.1978 6.62834 10.1874 6.72639 10.1513 6.81414C10.1255 6.89671 10.0996 6.98445 10.0842 7.07217C10.0353 7.32762 9.97496 7.58075 9.90356 7.83082C9.86225 8.03727 9.82095 8.24887 9.78998 8.46046C9.78582 8.4809 9.78582 8.50196 9.78998 8.5224C9.81579 8.59464 9.81579 8.64626 9.80547 8.67722ZM8.35526 10.1429C8.32945 10.1429 8.30881 10.1274 8.29332 10.0913C8.283 10.0758 8.26751 10.0758 8.25204 10.0862C8.2448 10.0912 8.23937 10.0984 8.23655 10.1068C8.22797 10.1299 8.22617 10.155 8.23138 10.179C8.25719 10.339 8.22623 10.4629 8.12817 10.5507C7.994 10.6693 7.88044 10.8242 7.78755 11.0099C7.74627 11.0978 7.67917 11.17 7.60693 11.2423C7.52952 11.3247 7.54499 11.3557 7.65852 11.3403C7.79272 11.3145 7.9527 11.2473 7.99916 11.4435L6.38379 11.9441C6.41475 11.7222 6.52314 11.5571 6.71408 11.4539C6.73628 11.4424 6.75434 11.4245 6.76569 11.4022C6.77067 11.3914 6.77868 11.3822 6.78874 11.3758C6.79882 11.3693 6.81052 11.3659 6.82246 11.366C6.84827 11.366 6.87408 11.3609 6.88956 11.3455C6.96697 11.2938 7.04439 11.2525 7.10631 11.1803C7.26114 11.0048 7.41597 10.8345 7.5708 10.6745C7.65336 10.5919 7.70497 10.499 7.7411 10.3958C7.79272 10.2513 7.88561 10.1687 7.89593 10.0087C7.91657 9.75584 7.91657 9.51844 7.9011 9.29136C7.88964 9.13667 7.89136 8.98129 7.90625 8.82689L7.9527 8.36757C7.9557 8.33083 7.94455 8.29434 7.92151 8.26556C7.89848 8.23677 7.86534 8.21789 7.82884 8.21274C7.77723 8.21274 7.74627 8.23853 7.73594 8.285C7.71014 8.37789 7.69981 8.47595 7.69465 8.56883C7.69465 8.58432 7.68949 8.59464 7.66885 8.59979C7.66065 8.60291 7.65348 8.60827 7.6482 8.61528C7.64188 8.62243 7.63824 8.63155 7.63788 8.64109C7.63788 8.92494 7.54499 9.16234 7.53467 9.44104C7.51918 9.60101 7.45726 9.75584 7.4521 9.91583C7.4521 9.95713 7.4521 10.0036 7.44178 10.05C7.42629 10.1739 7.39016 10.1842 7.33855 10.0655C7.25754 9.90263 7.22528 9.71985 7.24566 9.53909L7.30242 8.40369C7.30242 8.58947 7.30242 8.74431 7.32307 8.87334C7.34371 9.01785 7.37984 9.023 7.44178 8.89398C7.50886 8.74946 7.54499 8.58432 7.54499 8.39853C7.54499 8.25402 7.58629 8.10951 7.67917 7.97534C7.69465 7.9547 7.69981 7.92374 7.69981 7.89793C7.69981 7.85663 7.71014 7.8205 7.73078 7.78438C7.82884 7.63987 7.83916 7.38184 7.834 7.21668C7.82884 7.18572 7.81336 7.17023 7.78755 7.16508L7.66369 7.13927L8.06109 6.79865C8.12853 6.74106 8.21078 6.70351 8.29849 6.69027C8.30662 6.6888 8.31498 6.68897 8.32306 6.69079C8.33114 6.69259 8.33877 6.696 8.34551 6.70082C8.35224 6.70562 8.35795 6.71174 8.36229 6.71879C8.36661 6.72584 8.36949 6.73369 8.37074 6.74188V6.76769C8.26751 7.06185 8.17978 7.35086 8.09205 7.62955C8.05229 7.74139 8.05229 7.86351 8.09205 7.97534C8.12817 8.06823 8.14881 8.15596 8.15913 8.2437L8.21074 8.9714C8.22106 9.18298 8.29332 9.38426 8.36042 9.59069C8.36558 9.61135 8.37074 9.63199 8.36042 9.65779C8.32531 9.81741 8.32356 9.98258 8.35526 10.1429Z" fill="#84584D"/>
<path d="M9.11394 10.22C9.05235 10.0767 9.02243 9.92181 9.02619 9.76589L9.04685 8.40856C9.04685 8.12472 9.08298 7.88215 9.15006 7.68604C9.27908 7.35057 9.45972 6.96867 9.76938 6.74159C9.77832 6.73535 9.78876 6.73158 9.79964 6.73068C9.81052 6.72977 9.82144 6.73175 9.8313 6.73642C9.84139 6.74101 9.85012 6.74821 9.85639 6.75729C9.86276 6.76637 9.86662 6.77699 9.86746 6.78804C9.86746 6.85513 9.85711 6.9119 9.8313 6.96867C9.70744 7.25251 9.55777 7.54153 9.37714 7.84087C9.31521 7.94409 9.27393 8.0731 9.25844 8.20212C9.18619 8.88337 9.1191 9.46139 9.21715 10.1013C9.22748 10.1529 9.21715 10.1891 9.19651 10.2252C9.19335 10.2309 9.18903 10.2358 9.18386 10.2397C9.17866 10.2436 9.17271 10.2464 9.16639 10.2478C9.16008 10.2493 9.15352 10.2494 9.14714 10.2482C9.14078 10.2469 9.13474 10.2444 9.12942 10.2407C9.12242 10.2354 9.11704 10.2282 9.11394 10.22Z" fill="#9B7266"/>
<path d="M15.0073 7.5409L14.9454 7.29834C14.907 7.21866 14.8872 7.13134 14.8872 7.04288C14.8872 6.95441 14.907 6.86709 14.9454 6.78742C14.9532 6.7732 14.9661 6.76253 14.9814 6.75771C14.997 6.75288 15.0136 6.75429 15.0281 6.76162C15.0384 6.76162 15.0435 6.77194 15.0486 6.78226C15.1674 6.95773 15.2241 7.14868 15.2139 7.36027C15.2137 7.40971 15.1994 7.45809 15.1725 7.49962C15.1261 7.5667 15.0693 7.58219 15.0073 7.5409Z" fill="#68473D"/>
<path d="M16.8712 8.26878C16.8661 8.22233 16.8299 8.20168 16.7629 8.19652C16.7363 8.19553 16.7105 8.20476 16.6906 8.22233C16.4996 8.37716 16.288 8.44425 16.0506 8.41844C16.0351 8.41695 16.0204 8.41113 16.0082 8.40167C15.9958 8.39222 15.9866 8.37947 15.9812 8.36494C15.9758 8.3504 15.9746 8.33464 15.9778 8.31946C15.981 8.30428 15.9883 8.29029 15.999 8.2791C16.0316 8.25015 16.0706 8.22897 16.1126 8.21717L16.1022 8.27395C16.1022 8.29974 16.1074 8.31523 16.1331 8.32555C16.1641 8.33587 16.2158 8.33071 16.2467 8.30491L16.4738 8.12943C16.4922 8.11536 16.505 8.09525 16.5099 8.07266C16.5615 7.81462 16.5461 7.59786 16.4481 7.41206C16.3972 7.31182 16.364 7.20359 16.3499 7.09209C16.3478 7.07332 16.3408 7.05547 16.3294 7.04048C16.301 7.00662 16.2815 6.96629 16.2725 6.92308C16.2634 6.87989 16.2653 6.83511 16.2777 6.79277C16.288 6.77212 16.2984 6.76696 16.319 6.78244C16.4119 6.85469 16.4686 6.94759 16.4842 7.06629C16.4944 7.15403 16.5203 7.2366 16.5513 7.31401C16.6698 7.62367 16.7782 7.93848 16.8712 8.26878Z" fill="#9B7266"/>
<path d="M6.98834 7.78917C6.81286 7.78917 6.6632 7.87175 6.52902 8.04206C6.47741 8.10399 6.44128 8.1814 6.42064 8.25882C6.34972 8.60009 6.21678 8.92545 6.0284 9.21875C5.83179 9.64873 5.73982 10.1192 5.76005 10.5916C5.76005 10.6069 5.74971 10.6173 5.73939 10.6277C5.73512 10.6305 5.73152 10.6344 5.72885 10.6389C5.72617 10.6433 5.72449 10.6483 5.72392 10.6534C5.62069 11.1644 5.58458 11.6753 5.62069 12.1913L5.33168 12.5578C5.31444 12.5793 5.30301 12.6048 5.2985 12.6319C5.29397 12.6589 5.29652 12.6868 5.30588 12.7127C5.38845 12.9294 5.51232 13.1152 5.66713 13.2804C5.60006 13.2804 5.54845 13.3474 5.51232 13.461C5.49683 13.5178 5.48651 13.5952 5.48651 13.6881C5.48651 13.9977 5.48136 14.3023 5.47104 14.5964C5.4607 14.8751 5.55362 15.1436 5.49683 15.4326C5.46587 15.608 5.4091 15.6132 5.32653 15.4584C5.16474 15.1429 5.03839 14.8106 4.94978 14.4674C4.8156 13.9513 4.83109 13.3836 4.86205 12.8572C4.87753 12.5475 4.84141 12.2378 4.89817 11.9385C4.96527 11.5566 5.02719 11.2005 5.1459 10.8133C5.22847 10.5605 5.30072 10.3077 5.35749 10.0497C5.42974 9.76063 5.54329 9.49743 5.64133 9.21875C5.75488 8.88328 5.89939 8.54783 6.09034 8.21753C6.14195 8.12979 6.19356 8.04721 6.26581 7.98528C6.38966 7.85111 6.49805 7.70144 6.57547 7.53629C6.58634 7.51545 6.60233 7.49769 6.62191 7.48468C6.69933 7.42791 6.77673 7.36081 6.80254 7.27308C6.85416 7.12859 6.90576 7.03567 6.97286 6.98923C7.05543 6.93246 7.09156 6.95311 7.07607 7.05116L6.98834 7.78917Z" fill="#84584D"/>
<path d="M11.8955 8.01083L11.8026 7.89213C11.813 7.84053 11.7872 7.7786 11.7251 7.72182L11.8697 7.36055C11.911 7.25734 11.8955 7.15414 11.9317 7.0509C11.9419 7.00446 11.9678 6.99929 11.9987 7.03026L12.0297 7.06122C12.0451 7.07671 12.0554 7.09735 12.0503 7.12316C12.0297 7.37604 12.0297 7.62377 12.0503 7.87149C12.0503 7.92826 12.0503 7.96954 12.0297 7.99018C12.0039 8.02631 11.9574 8.03148 11.8904 8.01083H11.8955Z" fill="#68473D"/>
<path d="M7.66419 7.13867L7.79321 7.16448C7.81385 7.16963 7.82934 7.18512 7.82934 7.21608C7.83966 7.38124 7.82934 7.63928 7.73643 7.78378C7.71321 7.81712 7.70062 7.8567 7.7003 7.89733C7.7003 7.92829 7.69515 7.94894 7.67966 7.97474C7.58676 8.11408 7.54548 8.25342 7.54548 8.39793C7.54548 8.58888 7.50935 8.74888 7.44226 8.89338C7.38032 9.02239 7.33904 9.01725 7.32357 8.87274C7.30726 8.71848 7.30209 8.56325 7.30808 8.40826C7.29259 8.04698 7.35968 7.70637 7.49388 7.37607C7.51452 7.33479 7.53516 7.2935 7.57128 7.25221L7.66419 7.13867Z" fill="#9B7266"/>
<path d="M10.7913 8.24353L10.7293 8.04741L10.7138 8.02677C10.6984 7.89259 10.7241 7.76872 10.7861 7.64487C10.7964 7.61906 10.8068 7.59326 10.8068 7.5623C10.8068 7.35586 10.8583 7.22683 10.9615 7.18555C11.0545 7.14426 11.106 7.17523 11.1009 7.2836C11.1009 7.57262 11.0389 7.8771 10.9203 8.20224C10.8996 8.25385 10.8583 8.26417 10.7913 8.24353Z" fill="#68473D"/>
<path d="M14.9405 7.29869L15.0076 7.54127C15.0076 7.60835 15.0232 7.65997 15.0592 7.6961C15.085 7.72189 15.1006 7.72189 15.116 7.68576L15.1264 7.66512C15.1419 7.63931 15.1624 7.62384 15.1934 7.63416C15.2451 7.63931 15.276 7.67544 15.276 7.73738C15.276 7.88189 15.276 8.02639 15.2656 8.18121C15.2656 8.26895 15.2812 8.35152 15.3173 8.42895C15.3173 8.47023 15.3483 8.48055 15.4 8.44959C15.4105 8.44572 15.4196 8.43846 15.4257 8.42895L15.7663 7.89221C15.8335 7.88189 15.8489 7.9335 15.818 8.04703C15.8076 8.08316 15.818 8.08833 15.8437 8.06252C15.859 8.0466 15.8728 8.02932 15.885 8.0109C15.9572 7.89737 16.112 7.88189 16.2204 7.9335C16.2366 7.94084 16.2507 7.95225 16.2611 7.9666C16.2716 7.98094 16.2781 7.99777 16.2803 8.01541C16.2823 8.03305 16.2798 8.05094 16.2729 8.06734C16.266 8.08373 16.2551 8.09807 16.241 8.10897L16.112 8.21734C16.07 8.22914 16.0311 8.25032 15.9986 8.27927C15.9901 8.28739 15.9834 8.2972 15.9791 8.30808C15.9748 8.31896 15.9727 8.33066 15.9732 8.34237C15.9736 8.35409 15.9767 8.36556 15.982 8.37604C15.9872 8.38652 15.9946 8.39576 16.0037 8.40314L16.0501 8.41861C16.2823 8.44442 16.4991 8.37733 16.6901 8.2225C16.7107 8.20679 16.7364 8.19942 16.7623 8.20185C16.8294 8.20185 16.8655 8.2225 16.8707 8.26895H16.9016L16.9378 8.4341C16.9402 8.44976 16.9469 8.46442 16.9574 8.47633C16.9679 8.48823 16.9815 8.49688 16.9968 8.50123C17.0119 8.50558 17.0281 8.50546 17.0433 8.50088C17.0584 8.4963 17.072 8.48744 17.0823 8.4754C17.1287 8.42378 17.1855 8.39282 17.2371 8.3825C17.2784 8.45474 17.3403 8.53216 17.4435 8.60958C17.4693 8.63538 17.4797 8.6715 17.4745 8.7231C17.4642 8.77472 17.4383 8.78504 17.3971 8.7644C17.3541 8.74226 17.3182 8.70823 17.2939 8.66634C17.2733 8.64054 17.2578 8.64054 17.2423 8.66634C17.2217 8.7077 17.2138 8.75414 17.2193 8.79998C17.2249 8.84581 17.2435 8.88904 17.2733 8.92438C17.2887 8.94503 17.3146 8.95535 17.3455 8.95019L17.5829 8.90891C17.5939 8.90666 17.6051 8.90682 17.6161 8.90935C17.627 8.9119 17.6372 8.91676 17.646 8.92363C17.6548 8.9305 17.6621 8.93919 17.6672 8.94913C17.6723 8.95906 17.6752 8.96998 17.6759 8.98116C17.6759 8.99664 17.6759 9.00697 17.6655 9.02244C17.5932 9.15148 17.5262 9.28048 17.5829 9.43532C17.619 9.53855 17.7378 9.56951 17.7996 9.6624C17.8084 9.67641 17.8138 9.69234 17.8152 9.70884L17.8513 9.96689L17.8615 10.1475C17.8513 10.3126 17.841 10.4469 17.81 10.6223C17.7945 10.7307 17.7996 10.8442 17.8203 10.9629C17.8255 10.9874 17.8215 11.0131 17.8091 11.0349C17.7967 11.0568 17.7769 11.0734 17.7531 11.0816C17.7016 11.0972 17.6603 11.0765 17.6397 11.0249C17.6239 10.9833 17.6239 10.9373 17.6397 10.8958C17.6809 10.7669 17.6397 10.6377 17.5262 10.5603C17.5074 10.5489 17.4862 10.5417 17.4642 10.5397C17.2835 10.5293 17.2526 10.3848 17.2371 10.2404C17.2371 10.2146 17.2371 10.1888 17.2474 10.163C17.2672 10.1228 17.2709 10.0767 17.2578 10.0339C17.2499 10.0105 17.2499 9.98518 17.2578 9.96173C17.2991 9.79658 17.2733 9.70883 17.1803 9.70368C16.9533 9.43532 16.6643 9.27016 16.3184 9.21339C16.0552 9.16694 15.3277 9.16179 15.1832 9.44564C15.1748 9.46099 15.1722 9.47888 15.176 9.49596C15.1798 9.51305 15.1897 9.52818 15.2038 9.53853C15.2812 9.59015 15.374 9.61079 15.4772 9.59531C15.8231 9.54887 16.1687 9.55402 16.5095 9.61595C16.6436 9.64175 16.8139 9.72949 17.0204 9.88432C17.0204 10.0081 16.9635 10.0649 16.85 10.0597C16.5582 9.89669 16.2163 9.84707 15.8902 9.92045L15.7663 9.88432C15.756 9.8824 15.7467 9.87744 15.7393 9.87007C15.732 9.8627 15.7269 9.85327 15.7251 9.84302C15.7148 9.78109 15.6786 9.75528 15.6218 9.76562C15.5341 9.78109 15.4567 9.80174 15.3844 9.83787C15.307 9.874 15.2348 9.92045 15.178 9.98237L14.8786 10.2662C14.7754 10.3591 14.7238 10.4881 14.6361 10.5913C14.5845 10.6585 14.5483 10.7359 14.5225 10.8184C14.4865 10.9216 14.4709 11.0093 14.4555 11.0713C14.4296 11.2261 14.3934 11.4996 14.3523 11.897C14.3161 11.9693 14.2645 12.0105 14.2077 12.0105H14.1148C13.9961 12.0313 13.8877 12.0467 13.7691 12.0157C13.6142 11.9745 13.4801 11.9848 13.3457 12.0365C13.2787 12.0674 13.2116 12.088 13.1393 12.1035L12.8659 12.1551C12.84 12.1551 12.8142 12.1654 12.7988 12.186C12.7265 12.2634 12.644 12.3305 12.5407 12.377C12.5046 12.1189 12.4891 11.8248 12.3859 11.6029C12.0349 10.8649 11.1369 10.7152 10.497 11.19C10.0068 11.5616 9.61964 11.8454 9.61964 12.5215C9.61832 12.5365 9.62208 12.5517 9.63035 12.5643C9.63864 12.5769 9.65093 12.5865 9.66526 12.5911C9.67958 12.5959 9.6951 12.5957 9.7093 12.5906C9.7235 12.5855 9.73556 12.5757 9.74352 12.5629L9.75899 12.5319C9.87258 12.7177 9.97579 12.9447 10.0944 13.0996C10.2854 13.337 10.5074 13.5331 10.7809 13.6776C10.7654 13.7293 10.8119 13.8067 10.9305 13.9099C10.8842 13.9201 10.9046 13.946 10.9821 13.9821C11.0595 14.0183 11.1524 13.9873 11.2298 13.9821C11.2441 13.9817 11.2585 13.9841 11.2718 13.9895C11.2851 13.9948 11.2973 14.0029 11.3073 14.0131C11.364 14.0646 11.431 14.0957 11.5085 14.1163C11.5344 14.1163 11.5601 14.1318 11.5755 14.1524C11.6272 14.2041 11.6943 14.235 11.7717 14.2247C11.8492 14.2195 11.9265 14.2247 12.004 14.2505C12.0297 14.2608 12.0556 14.2608 12.0865 14.2608C12.3085 14.2298 12.5098 14.1576 12.6905 14.0285C12.9072 13.8737 13.1342 13.7602 13.3665 13.6828L13.9341 13.4917C13.9709 13.4784 14.0111 13.4784 14.0477 13.4917C14.0683 13.5021 14.0942 13.4969 14.1148 13.4917C14.2954 13.3937 14.4865 13.3834 14.6825 13.4557C14.7084 13.466 14.7289 13.4764 14.7393 13.4969L14.7651 13.5382L14.7754 13.657C14.7754 13.6828 14.7909 13.7085 14.8064 13.7189C14.8735 13.7808 14.9405 13.8325 15.0128 13.8737C15.1419 13.946 15.2451 14.0801 15.2038 14.2298C15.1573 14.4157 15.1315 14.6065 15.1264 14.7975C15.1269 14.8132 15.124 14.8287 15.1178 14.843C15.1116 14.8572 15.1021 14.87 15.0902 14.8801C14.9974 14.9576 14.9096 15.04 14.8219 15.1277C14.7341 15.2155 14.6257 15.2775 14.4916 15.3135C14.2851 15.3651 14.089 15.3858 13.8929 15.3651C13.7901 15.3519 13.686 15.3519 13.5833 15.3651C13.4336 15.3807 13.3046 15.3651 13.1962 15.3135C13.1196 15.2747 13.0341 15.257 12.9484 15.2619C12.8555 15.2671 12.7575 15.2723 12.6543 15.2619C12.5304 15.2619 12.4375 15.3239 12.3292 15.3703C12.3047 15.3807 12.278 15.3843 12.2517 15.3807C12.1713 15.3687 12.0895 15.3687 12.0091 15.3807H11.9937C11.9901 15.3793 11.9869 15.3772 11.9841 15.3746C11.9815 15.3719 11.9794 15.3687 11.9781 15.3651C11.9729 15.3497 11.9627 15.3445 11.9472 15.3445C11.7923 15.3445 11.6376 15.3239 11.4982 15.2775C11.4865 15.273 11.4757 15.2661 11.4668 15.2572C11.4579 15.2483 11.451 15.2375 11.4465 15.2258C11.431 15.1948 11.4105 15.1742 11.3743 15.1742C11.356 15.1742 11.338 15.1688 11.3226 15.1587C11.2741 15.1253 11.2165 15.1074 11.1576 15.1071C11.1298 15.1055 11.1031 15.0967 11.0801 15.0812C11.0135 15.0428 10.9497 14.9998 10.8892 14.9524L10.4868 14.6221C10.3857 14.5417 10.2788 14.4693 10.1667 14.4053C10.051 14.3356 9.93894 14.2598 9.83124 14.1782C9.806 14.1601 9.78472 14.1371 9.76874 14.1104C9.75277 14.0837 9.74243 14.0541 9.73835 14.0234C9.72112 13.8881 9.7108 13.752 9.70739 13.6157C9.70889 13.5945 9.70535 13.5733 9.69707 13.5538C9.66609 13.4917 9.63513 13.3989 9.60417 13.275C9.52983 12.9926 9.46955 12.7067 9.42353 12.4183C9.40049 12.3747 9.37981 12.3299 9.3616 12.2841C9.27387 12.0777 9.10871 12.1912 8.94874 12.1602C8.9104 12.1524 8.87053 12.1573 8.83516 12.174C8.7998 12.1907 8.77083 12.2185 8.75262 12.2532C8.71132 12.3357 8.6752 12.4235 8.64424 12.5163C8.61978 12.5918 8.61978 12.6731 8.64424 12.7486C8.69784 12.9497 8.73241 13.1553 8.74745 13.3628C8.74745 13.4093 8.74745 13.4505 8.77326 13.4815C8.78874 13.5073 8.79391 13.5331 8.79391 13.5641C8.78358 13.7963 8.53069 13.8117 8.36555 13.7447C8.26095 13.7042 8.15411 13.6697 8.04558 13.6415C7.99397 13.6415 7.94236 13.6415 7.88559 13.6209C7.61206 13.5434 7.3695 13.4557 7.14757 13.3628C7.07016 13.3215 7.01855 13.2493 6.94114 13.2337C6.76567 13.1925 6.68309 12.9912 6.54375 12.8932C6.48851 12.8561 6.43512 12.8165 6.38377 12.7744C6.32699 12.7279 6.33215 12.6918 6.40441 12.6712L6.46634 12.6506C6.49761 12.6388 6.53155 12.6359 6.56436 12.6423C6.59713 12.6487 6.62753 12.6641 6.65212 12.6867C6.73986 12.759 6.84824 12.7951 6.98243 12.7951C7.10629 12.7951 7.23014 12.7744 7.35402 12.7383L7.97333 12.5319C8.02493 12.5112 8.06623 12.4802 8.09203 12.4441C8.11782 12.4131 8.11266 12.3977 8.07139 12.4028C8.01978 12.4028 7.97848 12.4287 7.94236 12.47C7.92589 12.4871 7.90403 12.4981 7.88042 12.5009C7.8185 12.5112 7.76688 12.5267 7.71012 12.5525C7.65663 12.5781 7.59892 12.5939 7.53981 12.5989C7.42111 12.6041 7.29725 12.6299 7.17854 12.6764C7.0392 12.7229 6.93599 12.7021 6.83276 12.6041C6.82121 12.5932 6.8139 12.5786 6.81212 12.5629C6.81212 12.5473 6.81212 12.5319 6.82244 12.5163C6.93599 12.3718 7.065 12.3151 7.21982 12.3461C7.23531 12.3461 7.2508 12.3461 7.26112 12.3255C7.2626 12.3205 7.26525 12.3161 7.26885 12.3125C7.27245 12.3089 7.27688 12.3062 7.28176 12.3048C7.47788 12.2686 7.66366 12.2634 7.84429 12.279C7.95268 12.2893 8.05074 12.2738 8.1333 12.2273C8.23653 12.1706 8.28814 12.0725 8.30878 11.9435C8.3191 11.8661 8.30878 11.7886 8.27781 11.7113C8.27145 11.6985 8.26814 11.6843 8.26814 11.67C8.26814 11.6557 8.27145 11.6415 8.27781 11.6287C8.34491 11.5255 8.32942 11.4273 8.22621 11.3449C8.44813 11.1539 8.46361 10.9577 8.52037 10.71C8.5565 10.5553 8.6494 10.5449 8.79391 10.5397C8.91261 10.5862 9.03131 10.6429 9.15517 10.7255C9.20677 10.7565 9.25322 10.777 9.28934 10.7822C9.41838 10.8132 9.46482 10.7874 9.43902 10.7152C9.40806 10.5553 9.38741 10.4004 9.36677 10.2507C9.33189 9.97238 9.35271 9.68987 9.42802 9.41965C9.50333 9.14941 9.63163 8.89686 9.80544 8.67666C9.9293 8.83149 10.0222 8.99148 10.079 9.16179C10.1203 9.265 10.1822 9.33725 10.2597 9.3837C10.2854 9.39919 10.301 9.38887 10.3112 9.36306L10.3938 9.08954C10.4712 8.84181 10.4764 8.1296 10.7293 8.04703L10.7912 8.24315C10.915 8.37733 11.0285 8.39797 11.0078 8.6199C11.0078 8.65085 10.9925 8.6715 10.9665 8.68698C10.9046 8.71795 10.8325 8.68698 10.8015 8.63537C10.7762 8.59556 10.7406 8.56343 10.6983 8.54248C10.6776 8.52699 10.657 8.53216 10.6467 8.56312C10.5744 8.7644 10.6828 9.0018 10.915 9.02761C11.2298 9.04825 11.4569 8.93471 11.5859 8.67666C11.6302 8.59463 11.6483 8.50093 11.6376 8.40829C11.6169 8.24315 11.6376 8.07801 11.6994 7.91285C11.702 7.90509 11.7061 7.8979 11.7113 7.8917C11.7167 7.8855 11.7232 7.8804 11.7304 7.87672C11.7561 7.86124 11.7821 7.8664 11.8026 7.89221L11.8905 8.0109C11.911 8.04188 11.9368 8.06252 11.9627 8.07284L12.2413 8.67666C12.2571 8.71026 12.2852 8.7365 12.3197 8.74995C12.3545 8.7634 12.3929 8.76304 12.4272 8.74891C12.4787 8.72827 12.5356 8.67666 12.5974 8.5941C12.6029 8.58671 12.6061 8.57805 12.6069 8.56899C12.6079 8.55991 12.6064 8.55078 12.6026 8.54248C12.5985 8.53331 12.5912 8.52597 12.5821 8.52184C12.5743 8.51673 12.5654 8.51401 12.5561 8.51401C12.547 8.51401 12.538 8.51673 12.5304 8.52184C12.5109 8.53743 12.4879 8.54804 12.4633 8.5528C12.4529 8.55404 12.4424 8.55281 12.4325 8.54923C12.4226 8.54565 12.4137 8.53981 12.4065 8.53216C12.3993 8.52476 12.3936 8.51584 12.39 8.50604C12.3865 8.49624 12.385 8.48579 12.3859 8.4754C12.422 8.23282 12.4529 7.97994 12.4787 7.72706C12.4994 7.56191 12.5769 7.44837 12.7575 7.45354C12.8297 7.45354 12.902 7.46901 12.9743 7.48966C12.9587 7.73738 12.9639 7.90253 12.9897 7.9851C13.0517 8.19153 13.1962 8.41346 13.4078 8.65602C13.4336 8.71795 13.4387 8.77987 13.4284 8.83149C13.4257 8.84886 13.4179 8.86505 13.406 8.87794C13.3941 8.89082 13.3784 8.8998 13.3613 8.90374C13.2581 8.93471 13.1445 8.88826 13.031 8.7644C12.9794 8.70762 12.9381 8.71278 12.9174 8.78504C12.902 8.82634 12.9174 8.86246 12.9536 8.89858C13.0878 9.02244 13.2839 9.08437 13.5316 9.08437C13.64 9.09469 13.7691 9.07922 13.9238 9.03277C14.3058 8.83666 14.2439 8.25863 14.1561 7.92833C14.1457 7.90253 14.1561 7.87672 14.1665 7.85092C14.1701 7.84459 14.1753 7.83934 14.1817 7.83571C14.188 7.83209 14.1953 7.83021 14.2026 7.83027H14.218L14.2335 7.84576C14.4038 8.0522 14.5741 8.24314 14.7497 8.41346C14.8012 8.46508 14.8631 8.5012 14.9405 8.53216C14.9715 8.54248 14.9818 8.53216 14.9715 8.5012C14.8847 8.12385 14.843 7.7375 14.8477 7.35031C14.8477 7.29869 14.8786 7.28322 14.9457 7.29869H14.9405Z" fill="#D8D5B6"/>
<path d="M6.99288 7.78935L6.68322 9.29116C6.63162 9.52856 6.59034 9.78661 6.55421 10.0756C6.52323 10.3337 6.46647 10.5918 6.37873 10.8601C6.27551 11.1698 6.10521 11.4484 5.99166 11.7374C5.94827 11.8387 5.94278 11.9524 5.97619 12.0574C5.842 12.0832 5.72329 12.1296 5.62008 12.1915C5.58395 11.6755 5.62008 11.1595 5.7233 10.6537C5.7233 10.6381 5.72846 10.6329 5.73878 10.6279C5.74552 10.6247 5.75113 10.6195 5.75482 10.6131C5.75852 10.6066 5.76013 10.5991 5.75942 10.5918C5.73223 9.98434 5.89065 9.38309 6.21358 8.86797C6.30647 8.67701 6.36841 8.47058 6.42002 8.25898C6.44067 8.18157 6.47679 8.10416 6.5284 8.04223C6.66259 7.87191 6.81225 7.78935 6.99288 7.78418V7.78935Z" fill="#9B7266"/>
<path d="M18.3309 9.71858C18.2175 9.84244 18.1142 9.92502 18.0265 9.97662C17.9594 9.98179 17.9233 9.9405 17.9336 9.84244C17.9388 9.79599 17.9543 9.75471 17.9748 9.71343C18.1968 9.31603 18.0936 8.88252 18.0008 8.45415C17.9904 8.40255 18.0008 8.35094 18.042 8.31481C18.0492 8.30826 18.058 8.30352 18.0673 8.30096C18.0768 8.29843 18.0868 8.29813 18.0962 8.30016C18.1059 8.30217 18.1148 8.30642 18.1224 8.31255C18.13 8.31869 18.1361 8.32654 18.14 8.33545C18.1814 8.43868 18.2536 8.53158 18.2794 8.64512C18.3259 8.85671 18.3413 9.07347 18.3309 9.28507C18.3259 9.34184 18.3052 9.40892 18.2691 9.4915C18.2175 9.62569 18.2329 9.69794 18.3309 9.71858Z" fill="#84584D"/>
<path d="M17.1803 9.69855C17.2216 9.75016 17.2371 9.80178 17.2371 9.8379C17.2371 9.88951 17.2112 9.92563 17.1597 9.93079C17.1184 9.93079 17.0719 9.92047 17.0204 9.87919C16.8139 9.72435 16.6436 9.64178 16.5095 9.61598C16.1687 9.55487 15.8203 9.54791 15.4772 9.59534C15.3821 9.61328 15.2838 9.59288 15.2037 9.53857C15.1888 9.52898 15.1778 9.51419 15.173 9.49705C15.1683 9.47992 15.17 9.46161 15.1779 9.44567C15.3276 9.16181 16.0552 9.16697 16.3184 9.21342C16.6643 9.2702 16.9533 9.43535 17.1803 9.69855ZM10.3989 9.6521C10.8221 9.46632 11.4879 9.67791 11.8595 9.94628C11.9162 9.98756 11.9214 10.034 11.8801 10.0908C11.8713 10.101 11.8601 10.1088 11.8473 10.1133C11.8347 10.1178 11.8211 10.1189 11.8078 10.1166C11.3434 10.065 10.8943 9.86887 10.4144 9.98756C10.0943 10.065 9.88797 10.4624 9.77445 10.7566C9.7641 10.7794 9.74575 10.7978 9.72284 10.8082C9.70728 10.8169 9.69008 10.8225 9.67232 10.8242C9.65454 10.8259 9.6366 10.824 9.61962 10.8185C9.58349 10.803 9.56801 10.7721 9.57833 10.7308C9.61962 10.5707 9.60413 10.4005 9.70736 10.2559C9.91374 9.96692 10.1408 9.76565 10.3937 9.6521H10.3989Z" fill="#050404"/>
<path d="M17.1807 9.69824C17.2736 9.70856 17.2995 9.80147 17.2581 9.96144C17.2503 9.98489 17.2503 10.0102 17.2581 10.0336C17.2736 10.0749 17.2685 10.1214 17.2478 10.1627C17.2373 10.187 17.2338 10.2138 17.2375 10.2401C17.253 10.3846 17.2839 10.529 17.4645 10.5394C17.4852 10.5394 17.5059 10.5498 17.5266 10.56C17.6451 10.6322 17.6813 10.7666 17.6401 10.8955C17.6242 10.937 17.6242 10.983 17.6401 11.0246C17.6607 11.0762 17.6968 11.0969 17.7535 11.0814C17.7773 11.0731 17.7971 11.0566 17.8095 11.0346C17.8219 11.0128 17.8258 10.9872 17.8207 10.9626C17.798 10.8504 17.7963 10.7349 17.8155 10.6221C17.8413 10.4466 17.8517 10.3123 17.8671 10.1472C17.8887 10.4862 17.88 10.8264 17.8413 11.1639C17.8189 11.892 17.708 12.6147 17.511 13.3161C17.4956 13.3779 17.4595 13.44 17.4078 13.5122L17.0569 14.2553C16.6697 14.8183 16.1596 15.286 15.5653 15.6229C15.4621 15.6849 15.3382 15.7055 15.235 15.7777C14.9047 15.979 14.5486 16.1184 14.1719 16.2061C14.1573 16.2086 14.1441 16.2162 14.1346 16.2276C14.1251 16.2388 14.12 16.2533 14.1203 16.268L14.146 16.6139C14.1358 16.7789 14.1667 16.9287 14.3783 16.8977L14.8841 16.908L14.4971 16.9235C14.4752 16.924 14.4538 16.9292 14.4342 16.9385C14.4146 16.9479 14.3971 16.9612 14.383 16.9778C14.3688 16.9944 14.3583 17.0136 14.3522 17.0346C14.346 17.0555 14.3445 17.0774 14.3474 17.0989C14.3731 17.2848 14.3576 17.4757 14.3009 17.6719C14.2831 17.7357 14.2523 17.7951 14.2106 17.8466C14.1689 17.8982 14.117 17.9406 14.0583 17.9711C13.888 18.0641 13.728 18.1156 13.5733 18.1311C13.2946 18.157 12.9849 18.1415 12.634 18.0795C12.3397 18.0331 12.0869 17.8731 11.8753 17.6047C12.0301 17.6668 12.1643 17.708 12.283 17.7235C12.3605 17.7338 12.4172 17.7235 12.4637 17.6925L12.6495 17.5532C12.6857 17.5274 12.7217 17.5015 12.763 17.4912C12.8146 17.4809 12.8559 17.4602 12.8972 17.4396C12.9209 17.4313 12.9422 17.4171 12.9591 17.3983C12.9849 17.3673 13.0108 17.3468 13.0521 17.3468C13.0685 17.3432 13.084 17.3363 13.0976 17.3264C13.1112 17.3164 13.1225 17.3038 13.1309 17.2891C13.1392 17.2744 13.1442 17.2583 13.1457 17.2414C13.1473 17.2247 13.1453 17.2078 13.1397 17.1919C13.1153 17.0965 13.1189 16.9962 13.1501 16.9028C13.1786 16.8144 13.1821 16.7197 13.1605 16.6292C13.144 16.5458 13.0959 16.4719 13.0262 16.4228C13.0016 16.406 12.982 16.3829 12.9695 16.3558C12.961 16.3346 12.9469 16.3163 12.9288 16.3025C12.9105 16.2889 12.8889 16.2805 12.8663 16.2784C12.4741 16.2371 12.1437 16.1804 11.8701 16.1132L10.7811 15.7468C10.4096 15.5662 10.0483 15.3856 9.66127 15.2514C8.69787 14.9095 7.74602 14.5361 6.80729 14.1315C6.61118 14.0489 6.44603 13.925 6.27055 13.8166C6.04016 13.6734 5.83593 13.492 5.66672 13.2799C5.51191 13.1148 5.38803 12.929 5.30546 12.7122C5.29611 12.6863 5.29355 12.6586 5.29807 12.6314C5.30259 12.6043 5.31402 12.5788 5.33127 12.5574L5.62028 12.1961C5.7235 12.129 5.8422 12.0826 5.98154 12.0568L6.3841 11.9484L7.99946 11.4478L8.22654 11.3446C8.32975 11.427 8.34523 11.5252 8.27814 11.6284C8.27178 11.6412 8.26847 11.6554 8.26847 11.6698C8.26847 11.6841 8.27178 11.6982 8.27814 11.711C8.30395 11.7883 8.31427 11.8658 8.30395 11.9432C8.28847 12.0774 8.23169 12.1703 8.13364 12.2218C8.04564 12.2706 7.94454 12.2905 7.84462 12.2787C7.664 12.2632 7.48336 12.2683 7.28209 12.3045C7.27721 12.3059 7.27278 12.3087 7.26918 12.3122C7.26558 12.3158 7.26293 12.3202 7.26144 12.3252C7.25112 12.3406 7.23564 12.351 7.21499 12.3458C7.06533 12.3148 6.93631 12.3715 6.82277 12.5161C6.81293 12.529 6.80804 12.5449 6.80899 12.561C6.80993 12.577 6.81666 12.5923 6.82793 12.6038C6.93115 12.707 7.03953 12.7226 7.17372 12.6761C7.29757 12.6296 7.42144 12.6038 7.54015 12.5986C7.59691 12.5935 7.65368 12.5781 7.71045 12.5522C7.76205 12.5264 7.81883 12.5109 7.88075 12.5006C7.90435 12.4978 7.92622 12.4868 7.94269 12.4697C7.97517 12.4312 8.02153 12.4071 8.07172 12.4025C8.113 12.4025 8.12332 12.4129 8.09236 12.4438C8.06447 12.4842 8.0248 12.5147 7.97881 12.5316L7.35434 12.738C7.23047 12.7742 7.10663 12.7949 6.98276 12.7949C6.86318 12.7997 6.74585 12.7613 6.65246 12.6865C6.62787 12.6638 6.59747 12.6484 6.56468 12.642C6.53188 12.6357 6.49795 12.6386 6.46667 12.6503L6.40474 12.671C6.33248 12.6915 6.32731 12.7277 6.3841 12.7741L6.53892 12.8929C6.68343 12.9961 6.76085 13.1922 6.93631 13.2334C7.01889 13.2489 7.0705 13.3212 7.14791 13.3573C7.36983 13.4605 7.61239 13.5432 7.88592 13.6205C7.93783 13.6357 7.99183 13.6427 8.04591 13.6412C8.15444 13.6695 8.26127 13.7039 8.36587 13.7444C8.53103 13.8114 8.77875 13.7961 8.79424 13.5637C8.7952 13.5349 8.78805 13.5063 8.77358 13.4813C8.75372 13.445 8.74645 13.4032 8.75294 13.3625V13.2645C8.72894 13.0897 8.69098 12.9171 8.63941 12.7484C8.61496 12.6729 8.61496 12.5916 8.63941 12.5161C8.67554 12.4232 8.71166 12.3354 8.75294 12.258C8.76953 12.2215 8.79781 12.1915 8.83332 12.1729C8.86883 12.1542 8.90956 12.1478 8.94907 12.1548C9.10905 12.191 9.2742 12.0774 9.36193 12.2839C9.37742 12.3302 9.39806 12.3767 9.42387 12.4181L9.44451 12.4748C9.48064 12.7328 9.53741 12.9909 9.59934 13.2747L9.69224 13.5535L9.70772 13.6154C9.70772 13.7547 9.72321 13.8889 9.73869 14.0282C9.749 14.0902 9.7748 14.1417 9.82641 14.1831C9.93999 14.2605 10.0535 14.338 10.167 14.405C10.2857 14.4721 10.3889 14.5444 10.487 14.6218L10.8895 14.952L11.0805 15.081C11.1063 15.0965 11.1321 15.1017 11.1579 15.1017C11.2146 15.1017 11.2663 15.1223 11.318 15.1532C11.3334 15.1688 11.3541 15.174 11.3747 15.174C11.4108 15.174 11.4314 15.1945 11.4469 15.2255C11.4514 15.2373 11.4583 15.248 11.4672 15.2569C11.4761 15.2658 11.4868 15.2727 11.4986 15.2772C11.6379 15.3236 11.7877 15.3442 11.9476 15.3442C11.9631 15.3442 11.9733 15.3494 11.9785 15.3648L11.9941 15.3804H12.0094C12.0921 15.37 12.1747 15.37 12.2521 15.3804C12.2779 15.3804 12.3037 15.3804 12.3295 15.37C12.4379 15.3236 12.536 15.2668 12.6547 15.2668H12.9488C13.0365 15.2564 13.1192 15.272 13.1966 15.3132C13.3049 15.3648 13.434 15.3804 13.5784 15.3648C13.6816 15.3494 13.7848 15.3494 13.8932 15.3648C14.0893 15.3856 14.2905 15.3648 14.4867 15.3132C14.626 15.2772 14.7344 15.21 14.8222 15.1275C14.9099 15.0396 14.9976 14.9572 15.0905 14.8798C15.1024 14.8697 15.1118 14.8569 15.1181 14.8428C15.1243 14.8285 15.1272 14.8129 15.1267 14.7973C15.1318 14.6062 15.1575 14.4153 15.204 14.2296C15.2402 14.0747 15.1422 13.9457 15.0131 13.8735C14.9383 13.8304 14.8689 13.7783 14.8067 13.7186C14.7892 13.7025 14.7781 13.6805 14.7757 13.6567L14.7654 13.538V13.507C14.7654 13.4863 14.7757 13.4813 14.7911 13.5018C14.8376 13.5535 14.8737 13.605 14.9047 13.6721C14.9356 13.7341 14.9718 13.7805 15.0183 13.8166C15.0647 13.8476 15.1163 13.8786 15.1731 13.9044C15.2092 13.9198 15.2144 13.9096 15.204 13.8786L15.1575 13.7547C15.1473 13.7186 15.1575 13.6929 15.1835 13.6773C15.3072 13.6102 15.426 13.5741 15.5035 13.4553C15.5173 13.4325 15.5395 13.4158 15.5653 13.409C15.6324 13.3934 15.7099 13.3883 15.7924 13.3934L15.8131 13.4038L15.8182 13.4244C15.8182 13.4348 15.8182 13.4451 15.8286 13.4605C15.8543 13.4967 15.8699 13.4915 15.8801 13.4451C15.8801 13.4244 15.8853 13.4038 15.906 13.3883C16.0298 13.2851 16.1743 13.2284 16.3395 13.2232C16.3653 13.2232 16.3859 13.2129 16.3963 13.187C16.4066 13.1663 16.4168 13.1354 16.4168 13.0993C16.5459 13.1612 16.6234 13.1509 16.6595 13.058C16.6904 12.9755 16.6182 12.9393 16.453 12.9496C16.5563 12.9548 16.6079 12.9496 16.6182 12.9341C16.9475 12.4463 17.1334 11.876 17.1549 11.2878C17.2271 11.3136 17.2581 11.2878 17.2581 11.2001V11.1794C17.1718 10.887 17.0431 10.6088 16.8763 10.3536C16.8624 10.334 16.8552 10.3105 16.8555 10.2865C16.8555 10.2659 16.8659 10.2504 16.8865 10.2453C16.9278 10.2298 16.9382 10.204 16.9124 10.1678L16.8503 10.0595C16.9639 10.0646 17.0207 10.0078 17.0207 9.88404C17.0723 9.92016 17.1239 9.93564 17.1601 9.93048C17.2116 9.92532 17.2375 9.89436 17.2375 9.83759C17.2359 9.78674 17.2179 9.73778 17.1859 9.69824H17.1807Z" fill="#CCC4A7"/>
<path d="M15.8909 9.92001C15.6947 9.99742 15.5141 10.1109 15.349 10.2554C15.2922 10.3071 15.2819 10.3587 15.3284 10.4052L15.3646 10.4154L15.4006 10.4103L15.7619 10.1832C15.8031 10.178 15.8238 10.1832 15.829 10.209C15.1787 10.6786 14.9981 11.4682 15.2045 12.2115C15.1978 12.2202 15.1907 12.2287 15.1839 12.2372C15.158 12.2734 15.1478 12.2734 15.158 12.2269L15.1528 12.2012C15.1426 12.1856 15.1322 12.1856 15.127 12.2012L15.1117 12.263C15.1013 12.294 15.0858 12.2992 15.06 12.2837L15.0445 12.2579C15.036 12.2524 15.029 12.2448 15.0246 12.2356C15.02 12.2265 15.0179 12.2164 15.0186 12.2063C15.0195 12.1884 15.0167 12.1704 15.0106 12.1536C15.0043 12.1367 14.9948 12.1213 14.9826 12.1083C14.9763 12.1012 14.9681 12.096 14.959 12.0932C14.9498 12.0904 14.9402 12.0904 14.931 12.0928C14.8379 12.1168 14.7402 12.1168 14.647 12.0928C14.6242 12.0885 14.6006 12.0921 14.58 12.1031L14.4819 12.1547C14.4664 12.165 14.451 12.1598 14.4303 12.1495C14.3632 12.0824 14.3374 11.9948 14.353 11.8916L14.4562 11.0656C14.4716 11.0038 14.4923 10.9161 14.5284 10.8128C14.5542 10.7303 14.5903 10.6529 14.642 10.5858C14.7297 10.4826 14.7865 10.3535 14.8846 10.2606L15.1839 9.97678C15.2406 9.91484 15.3129 9.8684 15.3903 9.83227C15.4626 9.79615 15.5452 9.77551 15.6277 9.76002C15.6845 9.7497 15.7206 9.77551 15.7309 9.83744C15.736 9.85808 15.7516 9.87356 15.7722 9.87872L15.8961 9.91484L15.8909 9.92001Z" fill="#CCC4A7"/>
<path d="M16.8499 10.0597L16.912 10.163C16.9326 10.2043 16.9274 10.2301 16.8861 10.2455C16.8655 10.2507 16.8551 10.2661 16.8551 10.2867C16.8551 10.3074 16.8603 10.3332 16.8759 10.3538C17.0446 10.6153 17.1733 10.9006 17.2577 11.2003C17.2577 11.2879 17.2268 11.3138 17.1545 11.2879C17.135 11.2449 17.107 11.2063 17.0719 11.1744C17.0462 11.1538 17.0358 11.1589 17.0306 11.1899L16.9274 11.9641C16.8759 12.284 16.721 12.6144 16.4526 12.9498C16.6178 12.9396 16.69 12.9756 16.6591 13.053C16.6282 13.1511 16.5455 13.1613 16.4216 13.0995C16.0658 12.988 15.7285 12.8245 15.4204 12.6144C15.3555 12.5686 15.3022 12.5085 15.2645 12.4387C15.2269 12.3688 15.2061 12.2911 15.2037 12.2118C14.9973 11.4685 15.1779 10.6789 15.823 10.2094C16.0155 10.1288 16.2238 10.0935 16.432 10.1062V10.0855C16.4371 10.0701 16.432 10.0597 16.4164 10.0546C16.1791 10.0081 15.9623 10.0546 15.7611 10.1836L15.3999 10.4106C15.3887 10.4163 15.376 10.4181 15.3637 10.4157C15.3508 10.4162 15.3382 10.4125 15.3275 10.4055C15.2811 10.359 15.2915 10.3125 15.3534 10.2559C15.5133 10.1114 15.6939 9.99777 15.8952 9.92036C16.2514 9.85326 16.5661 9.89456 16.8499 10.0597Z" fill="#050404"/>
<path d="M15.8286 10.2095C15.8286 10.1837 15.8027 10.1786 15.7615 10.1837C15.9628 10.0547 16.1795 10.0082 16.4169 10.0547C16.4325 10.0547 16.4376 10.0702 16.4376 10.0857V10.1063H16.4273C16.2209 10.096 16.0195 10.1321 15.8286 10.2095Z" fill="#696868"/>
<path d="M8.35519 10.1426C8.42744 10.38 8.57195 10.5143 8.79387 10.54C8.64936 10.54 8.55647 10.5606 8.52034 10.7103C8.46357 10.958 8.44808 11.1542 8.22616 11.3451L7.99909 11.4483C7.94748 11.2471 7.79265 11.3142 7.65846 11.34C7.54492 11.3554 7.52945 11.3244 7.60685 11.2419C7.6791 11.1697 7.74104 11.0975 7.78749 11.0097C7.88038 10.8239 7.99393 10.669 8.12811 10.5504C8.22616 10.4626 8.25712 10.3439 8.23132 10.1788C8.22616 10.1529 8.22616 10.1272 8.23132 10.1065L8.25197 10.0859C8.26744 10.0755 8.28293 10.0755 8.29325 10.0962C8.30874 10.1272 8.32938 10.1478 8.35519 10.1478V10.1426Z" fill="#9B7266"/>
<path d="M15.767 10.8187C15.7826 10.9942 15.8754 11.1285 15.9788 11.1233C16.082 11.1181 16.1594 10.9684 16.1439 10.793C16.1335 10.6175 16.0406 10.4834 15.9374 10.4834C15.8342 10.4936 15.7568 10.6433 15.767 10.8187Z" fill="#E9E9E9"/>
<path d="M12.0966 10.7808C11.7908 10.7271 11.4772 10.7346 11.1743 10.8027C10.8713 10.8711 10.5848 10.9986 10.3316 11.1783C10.2903 11.2091 10.249 11.204 10.2128 11.168L10.1974 11.1576C10.1931 11.1543 10.1896 11.1499 10.1872 11.145C10.1848 11.1401 10.1836 11.1347 10.1836 11.1292C10.1836 11.1238 10.1848 11.1184 10.1872 11.1135C10.1896 11.1085 10.1931 11.1043 10.1974 11.1008C10.4674 10.8784 10.783 10.7181 11.122 10.6316C11.461 10.5451 11.8149 10.5343 12.1585 10.6002C12.1998 10.6054 12.2205 10.6311 12.2308 10.6673L12.2256 10.7086C12.1998 10.7655 12.1585 10.7912 12.0966 10.7808Z" fill="#050404"/>
<path d="M16.7214 12.0824C16.711 12.1133 16.6955 12.1185 16.6697 12.1031L16.6286 12.0824C16.5873 12.0618 16.5769 12.0309 16.5873 11.9792C16.7369 11.5509 16.7987 11.1018 16.7832 10.6321C16.7832 10.6116 16.7884 10.6064 16.8091 10.6064H16.8349C16.8503 10.6064 16.8555 10.6167 16.8555 10.6271C16.8968 11.1018 16.8555 11.5869 16.7214 12.0824Z" fill="#50556F"/>
<path d="M12.541 12.3767C12.5565 12.8722 12.3087 13.4915 11.8339 13.7186C11.5449 13.8579 11.2405 13.925 10.9307 13.9096C10.8122 13.8064 10.7656 13.729 10.781 13.6773C10.817 13.661 10.8554 13.6505 10.8946 13.6463C11.0391 13.6773 11.0494 13.6567 10.9205 13.5845C10.655 13.4446 10.4309 13.2375 10.2706 12.9839C10.1103 12.7304 10.0194 12.4391 10.007 12.1394C10.007 12.0774 9.98121 12.0723 9.95015 12.1187C9.8573 12.2374 9.79536 12.3767 9.75923 12.5316L9.74376 12.5626C9.7358 12.5755 9.72375 12.5852 9.70955 12.5903C9.69535 12.5955 9.67983 12.5957 9.66551 12.5908C9.65118 12.5862 9.63888 12.5767 9.6306 12.564C9.62232 12.5514 9.61855 12.5363 9.61989 12.5212C9.61989 11.8452 10.007 11.5614 10.4972 11.1897C11.1373 10.715 12.0353 10.8646 12.381 11.6027C12.4893 11.8245 12.5049 12.1187 12.541 12.3767Z" fill="#050404"/>
<path d="M10.6318 11.4486L10.9775 11.33C11.0549 11.3041 11.0962 11.33 11.0962 11.4124V11.5156C11.0962 11.5983 11.06 11.6446 10.9826 11.655C10.8587 11.6757 10.735 11.624 10.6215 11.5053C10.5905 11.4795 10.5956 11.4639 10.6318 11.4538V11.4486Z" fill="#E9E9E9"/>
<path d="M15.472 11.4849C15.5132 11.7688 15.5906 12.0112 15.7146 12.2126C15.8435 12.4294 15.9984 12.5068 16.179 12.4447C16.2244 12.4302 16.2734 12.4327 16.3171 12.4516C16.3609 12.4707 16.3962 12.505 16.4164 12.5479C16.4319 12.5739 16.4371 12.61 16.4371 12.641C16.4371 12.7132 16.401 12.7751 16.3339 12.8318C16.3049 12.8583 16.268 12.8747 16.2289 12.8785C16.1898 12.8822 16.1506 12.873 16.1171 12.8524C15.9313 12.739 15.7507 12.6358 15.5649 12.5429C15.3068 12.4035 15.343 11.6861 15.3738 11.4849C15.41 11.2785 15.441 11.2785 15.472 11.4849ZM11.5136 13.033C11.5516 13.0062 11.5962 12.9902 11.6427 12.9866C11.6736 12.9866 11.6942 13.0021 11.6942 13.033C11.7045 13.1724 11.7612 13.2808 11.8491 13.3582C11.88 13.3892 11.88 13.4098 11.8491 13.4408C11.7045 13.5698 11.4361 13.6834 11.2555 13.5544C11.1961 13.5126 11.132 13.4779 11.0646 13.451C10.7859 13.3273 10.5846 13.1414 10.4659 12.8834C10.3369 12.6048 10.182 12.1609 10.2491 11.8513C10.2801 11.7171 10.3162 11.7171 10.3523 11.8513C10.4504 12.1609 10.5898 12.4551 10.7756 12.7235C10.9252 12.9453 11.1523 13.0537 11.4568 13.0537C11.4773 13.0527 11.4972 13.0454 11.5136 13.033Z" fill="#50556F"/>
<path d="M14.3471 11.8977C14.3316 12.001 14.3574 12.0887 14.4296 12.1557C14.4451 12.1661 14.4607 12.1713 14.4813 12.1557L14.5742 12.1042C14.5969 12.0937 14.6226 12.0919 14.6464 12.099C14.7394 12.1196 14.8322 12.1196 14.92 12.099C14.9299 12.0955 14.9406 12.095 14.9508 12.0978C14.961 12.1006 14.9699 12.1065 14.9767 12.1145C15.0026 12.1455 15.0128 12.1765 15.0128 12.2125C15.0128 12.2332 15.018 12.2487 15.0387 12.2641L15.0645 12.2849C15.0851 12.3002 15.1007 12.2951 15.111 12.2641L15.1264 12.2074C15.1316 12.1867 15.1419 12.1867 15.1522 12.2074V12.228C15.1522 12.2745 15.1574 12.2797 15.1832 12.2384L15.2039 12.2125C15.2194 12.3932 15.2864 12.5222 15.4206 12.6152C15.7043 12.8164 16.0398 12.9764 16.4166 13.1002C16.4166 13.1364 16.4063 13.1672 16.3959 13.188C16.391 13.1988 16.383 13.208 16.373 13.2144C16.3628 13.2208 16.3511 13.2243 16.3392 13.2241C16.174 13.2241 16.0295 13.2808 15.9057 13.3891C15.8969 13.396 15.8897 13.4047 15.8844 13.4144C15.879 13.4242 15.8757 13.4349 15.8746 13.4459C15.8746 13.4923 15.854 13.4975 15.8282 13.4614C15.8208 13.4509 15.8172 13.4381 15.8179 13.4252L15.8127 13.4047C15.8074 13.3987 15.8001 13.3949 15.7922 13.3943C15.7095 13.3891 15.6321 13.3943 15.565 13.4099C15.5391 13.4167 15.517 13.4333 15.5031 13.4562C15.4257 13.5801 15.3071 13.6111 15.1832 13.6781C15.1522 13.6937 15.1419 13.7195 15.1574 13.7555L15.209 13.8795C15.2142 13.9104 15.209 13.9207 15.1781 13.9052C15.1236 13.8811 15.0719 13.8517 15.0232 13.8175C14.9727 13.7796 14.9318 13.73 14.9045 13.673C14.8743 13.6115 14.8361 13.5543 14.7909 13.5027C14.7755 13.4821 14.7651 13.4871 14.7651 13.5079V13.5336L14.7394 13.4975C14.7268 13.4787 14.7087 13.4643 14.6877 13.4562C14.5955 13.4201 14.4967 13.4042 14.3979 13.4095C14.2991 13.4149 14.2027 13.4414 14.1148 13.4871C14.1047 13.4927 14.0934 13.496 14.0819 13.4969C14.0703 13.4979 14.0587 13.4963 14.0478 13.4923C14.0127 13.4802 13.9744 13.4802 13.9394 13.4923L13.3665 13.6833C13.1343 13.7607 12.902 13.8743 12.6956 14.0291C12.5099 14.153 12.3085 14.2356 12.0866 14.2614C12.0556 14.2614 12.0299 14.2614 12.004 14.251C11.9267 14.2252 11.8492 14.22 11.7718 14.2252C11.7356 14.2307 11.6987 14.2269 11.6645 14.2143C11.6302 14.2016 11.5996 14.1806 11.5756 14.153C11.5584 14.1323 11.5348 14.1178 11.5085 14.1117C11.4327 14.098 11.3626 14.0622 11.3073 14.0085C11.2968 13.9992 11.2845 13.9921 11.2713 13.9876C11.258 13.9831 11.2439 13.9815 11.2299 13.9827C11.1524 13.9879 11.0596 14.0188 10.9873 13.9827C10.9048 13.9466 10.8841 13.9207 10.9305 13.9104C11.2402 13.9207 11.5447 13.8587 11.8336 13.7195C12.3085 13.4923 12.5562 12.8731 12.5408 12.3777C12.644 12.3261 12.7266 12.2641 12.7988 12.1867C12.8164 12.1673 12.84 12.1545 12.866 12.1505C12.9536 12.1403 13.0466 12.1248 13.1394 12.099C13.2117 12.0887 13.2788 12.0681 13.3459 12.0371C13.4801 11.9854 13.6195 11.9751 13.7692 12.0164C13.8877 12.0473 13.9961 12.032 14.1097 12.0113H14.2078C14.2645 12.0113 14.311 11.9699 14.3471 11.8926V11.8977Z" fill="#E0C3B1"/>
<path d="M12.2877 12.8626V12.8729C12.2841 12.8759 12.2796 12.8775 12.2749 12.8775C12.2702 12.8775 12.2657 12.8759 12.2619 12.8729L12.2517 12.8678C12.2209 12.7784 12.1757 12.6947 12.1173 12.62C12.1049 12.6042 12.097 12.5853 12.0942 12.5653C12.0916 12.5454 12.0942 12.5251 12.102 12.5065C12.1485 12.3671 12.1742 12.2329 12.1845 12.104C12.1897 11.9905 12.2155 11.9905 12.2517 12.0937C12.3341 12.3104 12.3445 12.5685 12.2877 12.8678V12.8626Z" fill="#50556F"/>
<path d="M16.4165 12.3404C16.4372 12.4074 16.4939 12.4488 16.5455 12.4334C16.592 12.4178 16.6127 12.3508 16.5869 12.2785C16.5662 12.2166 16.5095 12.1753 16.463 12.1907C16.4115 12.2062 16.3959 12.2734 16.4165 12.3404Z" fill="#D8D5B6"/>
<path d="M11.8698 12.9916C11.8802 13.0999 11.9267 13.1878 11.9782 13.1826C12.0298 13.1826 12.071 13.0896 12.0607 12.9762C12.0503 12.8728 12.0041 12.7851 11.9524 12.7903C11.9007 12.7955 11.8595 12.8883 11.8698 12.9967V12.9916Z" fill="#E9E9E9"/>
<path d="M17.408 13.5127C17.4697 13.5488 17.5162 13.5901 17.5575 13.6313C17.5988 13.683 17.6194 13.7347 17.6246 13.8017C17.6452 14.0339 17.6968 14.2249 17.7897 14.3694C17.8671 14.4983 17.9394 14.6275 17.9962 14.7512L18.213 15.2003C18.28 15.35 18.3367 15.5151 18.3781 15.6958C18.4298 15.9331 18.5071 16.1705 18.5948 16.413C18.6465 16.5525 18.7084 16.671 18.7807 16.7742C18.729 16.8208 18.7601 16.8621 18.8633 16.893C18.9096 16.9138 18.9509 16.9138 18.9975 16.8982C19.1625 16.8466 19.2399 16.7331 19.2347 16.5678C19.2347 16.537 19.2451 16.506 19.2709 16.4802C19.2779 16.4739 19.2863 16.4698 19.2954 16.4679C19.3044 16.4661 19.3138 16.4667 19.3226 16.4698C19.3535 16.475 19.3743 16.4956 19.3896 16.5214C19.4413 16.635 19.4361 16.7794 19.3381 16.8724C19.209 17.0014 19.1213 17.1666 18.8994 17.1305L18.4659 17.0479C18.3922 17.0344 18.3227 17.0042 18.2627 16.9594C18.2027 16.9146 18.1539 16.8566 18.12 16.7898C17.9487 16.4705 17.8186 16.1305 17.733 15.7783C17.7175 15.6958 17.6917 15.6235 17.6659 15.541C17.6091 15.3758 17.5318 15.2159 17.5266 15.0352C17.5214 14.9423 17.5059 14.8494 17.4801 14.7564C17.4801 14.7307 17.4595 14.7255 17.4387 14.7411C17.4327 14.745 17.4278 14.7503 17.4243 14.7566C17.4207 14.7629 17.4186 14.7699 17.4182 14.7771C17.413 15.0249 17.4491 15.2674 17.5214 15.5049L17.7743 16.2014C17.8727 16.4725 17.9935 16.7349 18.1355 16.986V17.0221C18.0839 17.1305 17.9601 17.1769 17.8619 17.0944C17.6763 16.9395 17.5368 16.8002 17.4439 16.671C17.3927 16.6042 17.3496 16.5314 17.3151 16.4543C17.2376 16.2737 17.1034 16.1447 17.088 15.9383C17.0725 15.7319 17.088 15.4997 17.1292 15.2674C17.155 15.0919 17.1706 14.9475 17.1706 14.8235C17.1745 14.6687 17.1795 14.5139 17.186 14.3591C17.1937 14.345 17.2042 14.3327 17.2169 14.3229C17.2892 14.2559 17.3201 14.1784 17.2996 14.0804C17.2944 14.0495 17.2789 14.0443 17.2479 14.0648L17.0518 14.2559L17.4131 13.5127H17.408Z" fill="#84584D"/>
<path d="M6.27068 13.8154C6.44616 13.929 6.61131 14.0477 6.80226 14.1251C7.74155 14.5327 8.69631 14.9044 9.6614 15.2502C10.0485 15.3844 10.4097 15.5598 10.7813 15.7457C10.8123 15.9006 10.8225 16.0553 10.7968 16.2102C10.7606 16.4425 10.4665 16.4991 10.2858 16.5558C9.99683 16.6489 9.7543 16.8243 9.4498 16.9171C9.41884 16.7778 9.32594 16.6954 9.16079 16.6592C9.04726 16.6385 8.92339 16.5558 8.79953 16.4218C8.71695 16.3391 8.6447 16.2514 8.57245 16.1637C8.50075 16.0739 8.4111 16.0002 8.30924 15.9469C8.1231 15.842 7.9654 15.6932 7.84992 15.5134C7.83738 15.495 7.83022 15.4736 7.82927 15.4514C7.82898 15.4268 7.81983 15.403 7.80347 15.3844L7.65897 15.2192C7.6426 15.2006 7.63345 15.1769 7.63316 15.1521C7.63316 15.0593 7.61252 14.9457 7.54027 14.8786C7.47912 14.821 7.42057 14.7607 7.36479 14.698C7.31319 14.6463 7.26158 14.5999 7.18933 14.5689L6.75582 14.378C6.51324 14.2799 6.29132 14.1199 6.10037 13.9393C6.06941 13.9032 6.06941 13.8723 6.10037 13.8413C6.10882 13.8341 6.1188 13.829 6.12954 13.8263C6.14028 13.8236 6.15149 13.8235 6.1623 13.8258C6.2036 13.8258 6.23973 13.8258 6.27068 13.8154Z" fill="#68473D"/>
<path d="M18.7807 16.7745C19.0491 16.914 19.111 16.6249 19.178 16.4597C19.1847 16.4428 19.1948 16.4275 19.2078 16.4147C19.2208 16.4019 19.2362 16.3921 19.2533 16.3857C19.2704 16.3794 19.2886 16.3768 19.3067 16.378C19.325 16.3792 19.3427 16.3841 19.3587 16.3926C19.4515 16.4443 19.4928 16.5217 19.4826 16.6249C19.4154 17.3062 18.791 17.2958 18.2955 17.0997C18.2827 17.0927 18.2681 17.0894 18.2535 17.0904C18.2388 17.0913 18.2248 17.0963 18.213 17.1049C18.0684 17.2081 18.0014 17.3475 17.7897 17.3062C17.5519 17.2609 17.3064 17.2787 17.0775 17.3577C16.742 17.4765 16.4788 17.3165 16.1693 17.2803L15.4054 16.9913L14.8842 16.9088L14.3784 16.8985L14.5694 16.8313C14.5952 16.8262 14.6055 16.8056 14.6004 16.7797L14.5745 16.6042C14.5721 16.5896 14.5653 16.576 14.5553 16.565C14.5452 16.5539 14.5322 16.5461 14.5177 16.5424C14.4145 16.5114 14.3319 16.4545 14.2545 16.3771C14.1874 16.3101 14.1513 16.3256 14.1513 16.4185V16.6146L14.1255 16.2688C14.1253 16.2541 14.1304 16.2396 14.1398 16.2283C14.1494 16.2169 14.1625 16.2093 14.1771 16.2069C14.5517 16.1232 14.9095 15.9765 15.2351 15.7734C15.3383 15.7062 15.4622 15.6857 15.5654 15.6237C16.1597 15.2867 16.6697 14.8191 17.0569 14.2561L17.2529 14.0651C17.2788 14.0445 17.2943 14.0497 17.2995 14.0807C17.3096 14.1247 17.3074 14.1708 17.2928 14.2137C17.2783 14.2566 17.2519 14.2945 17.2168 14.3231C17.2045 14.3333 17.1945 14.3459 17.1875 14.3602C17.1804 14.3743 17.1763 14.3899 17.1756 14.4058V14.8187C17.1756 14.9477 17.1549 15.0922 17.124 15.2624C17.0879 15.4998 17.0724 15.7269 17.0879 15.9436C17.1032 16.1398 17.2428 16.2739 17.315 16.4545C17.3562 16.5424 17.3975 16.6146 17.444 16.6713C17.5368 16.8004 17.6763 16.9397 17.862 17.0946C17.9601 17.1771 18.0891 17.1307 18.1304 17.0224C18.1359 17.011 18.1387 16.9988 18.1387 16.9862C18.1387 16.9737 18.1359 16.9613 18.1304 16.9501C17.9962 16.7281 17.8775 16.4753 17.7691 16.2017L17.5266 15.505C17.4494 15.2705 17.4144 15.0242 17.4233 14.7774C17.4233 14.7619 17.4233 14.7515 17.4388 14.7413C17.4595 14.7258 17.4749 14.7309 17.4852 14.7567C17.5059 14.8497 17.5214 14.9425 17.5266 15.0355C17.5317 15.216 17.6091 15.3759 17.6659 15.5412C17.6916 15.6185 17.7174 15.6959 17.733 15.7785C17.8104 16.0985 17.9394 16.4392 18.12 16.7901C18.1923 16.9242 18.3058 17.012 18.4659 17.0481L18.8994 17.1307C19.1213 17.1669 19.209 17.0017 19.3431 16.8727C19.4361 16.7849 19.4465 16.6352 19.3896 16.5217C19.3827 16.5089 19.3732 16.4976 19.3617 16.4886C19.3501 16.4798 19.3367 16.4735 19.3226 16.4701C19.3138 16.4669 19.3044 16.4664 19.2953 16.4681C19.2863 16.47 19.2779 16.4742 19.2709 16.4805C19.259 16.4915 19.2496 16.5051 19.2433 16.5203C19.2371 16.5355 19.2342 16.5517 19.2347 16.5681C19.2399 16.7333 19.1625 16.8417 18.9974 16.8985C18.954 16.9138 18.9066 16.9138 18.8632 16.8985C18.76 16.8623 18.7342 16.821 18.7807 16.7745Z" fill="#764D40"/>
<path d="M14.6565 14.5186H13.8773C13.8663 14.5186 13.8558 14.5229 13.848 14.5306C13.8402 14.5384 13.8359 14.5489 13.8359 14.5598C13.8359 14.5805 13.8513 14.6011 13.8773 14.6011H14.6565C14.6822 14.6011 14.6978 14.5805 14.6978 14.5598C14.6978 14.5489 14.6934 14.5384 14.6857 14.5306C14.6779 14.5229 14.6674 14.5186 14.6565 14.5186Z" fill="#9B7266"/>
<path d="M7.13729 17.275C7.13729 17.2903 7.12697 17.2955 7.11665 17.3006H7.10117C6.99444 17.2869 6.88609 17.2922 6.78119 17.316C6.60466 17.3538 6.42743 17.3881 6.24962 17.4193C6.07415 17.4605 5.88836 17.4348 5.69223 17.3472C5.56322 17.2955 5.45484 17.2955 5.32065 17.2955C5.17098 17.2955 5.16582 17.2594 5.28969 17.1819C5.30561 17.1733 5.32319 17.168 5.3413 17.1666C5.36186 17.1658 5.38162 17.1585 5.3975 17.1454C5.41338 17.1322 5.42447 17.1142 5.42903 17.0943L5.47548 16.8878C5.4767 16.8825 5.47931 16.8775 5.48306 16.8735C5.48679 16.8696 5.49154 16.8666 5.49677 16.865C5.50202 16.8634 5.5076 16.8633 5.51292 16.8645C5.51824 16.8658 5.52313 16.8685 5.52709 16.8723L5.76448 17.1614C5.77244 17.1702 5.78352 17.1758 5.79546 17.1768C5.80187 17.1778 5.8084 17.1773 5.8146 17.1754C5.82084 17.1737 5.82661 17.1706 5.83159 17.1666L5.84706 17.151C5.85738 17.1458 5.85738 17.1354 5.84706 17.1252C5.7232 16.9704 5.56837 16.8414 5.4858 16.6452C5.34541 16.3168 5.26836 15.9648 5.25872 15.6079C5.25356 15.5253 5.27936 15.515 5.33614 15.577C5.45999 15.7111 5.57871 15.8349 5.66643 16.0001C5.87287 16.413 6.13092 16.8207 6.44057 17.2233C6.44463 17.2295 6.44998 17.2347 6.45625 17.2386C6.46252 17.2426 6.46957 17.2452 6.47691 17.2462C6.48426 17.2471 6.49173 17.2465 6.49882 17.2443C6.5059 17.2422 6.51244 17.2386 6.51799 17.2336L6.53346 17.2233C6.53737 17.2211 6.54078 17.2182 6.54346 17.2146C6.54614 17.2111 6.54801 17.207 6.54895 17.2026C6.54936 17.1978 6.54864 17.193 6.54685 17.1885C6.54506 17.184 6.54225 17.18 6.53863 17.1768C6.43541 17.0271 6.33735 16.8826 6.25994 16.7381C6.15672 16.5524 6.10511 16.3407 6.11543 16.1033C6.11543 16.0311 6.16704 16.0053 6.2651 16.0363C6.29311 16.0453 6.3183 16.0615 6.33821 16.0832C6.3581 16.1049 6.37204 16.1314 6.37864 16.16L6.46638 16.5265C6.55927 16.8568 7.03408 16.9085 7.16827 17.2284V17.2438C7.16827 17.2646 7.1631 17.275 7.14246 17.275H7.13729Z" fill="#84584D"/>
<path d="M11.87 16.1123C12.1436 16.1795 12.4739 16.2362 12.861 16.2775C12.9126 16.2827 12.9486 16.3084 12.9642 16.3549C12.9798 16.3859 13.0003 16.4066 13.0261 16.4271C13.0983 16.4788 13.1397 16.5459 13.1604 16.6335C13.181 16.7213 13.1758 16.809 13.15 16.9019C13.1188 16.9953 13.1152 17.0956 13.1397 17.191C13.1463 17.2146 13.1453 17.2398 13.137 17.2629C13.1287 17.286 13.1134 17.306 13.0932 17.3199C13.0809 17.3295 13.067 17.3366 13.052 17.3407C13.0153 17.3482 12.9824 17.3683 12.959 17.3974C12.9429 17.4181 12.9214 17.4341 12.8971 17.4439L12.763 17.4954C12.7218 17.5068 12.6833 17.5261 12.6495 17.5523C12.5926 17.6038 12.5307 17.6451 12.4636 17.6916C12.4171 17.7225 12.3604 17.7329 12.283 17.7225C12.141 17.7 12.0024 17.6602 11.87 17.6038C11.7153 17.4387 11.6119 17.2219 11.5708 16.9587C11.6431 16.9484 11.7255 16.9278 11.803 16.8812C11.8237 16.8711 11.8391 16.8762 11.8547 16.8916V16.9123C11.8471 16.9299 11.8454 16.9496 11.85 16.9682C11.8547 16.9869 11.8654 17.0035 11.8804 17.0155C11.9269 17.0671 11.9784 17.0723 12.0353 17.0413L12.2468 16.9123C12.2675 16.9019 12.283 16.9071 12.2984 16.9278L12.3087 16.9484C12.3295 16.9846 12.3449 16.9846 12.3604 16.9484L12.4739 16.6852C12.4894 16.6439 12.4739 16.6335 12.4327 16.6491C12.3862 16.6697 12.3656 16.7058 12.3759 16.7627C12.381 16.7987 12.3656 16.8142 12.3345 16.8194C12.2262 16.8401 12.1436 16.7987 12.0868 16.7007C12.1415 16.6486 12.1807 16.5826 12.2003 16.5098C12.2031 16.4993 12.2036 16.4883 12.2018 16.4777C12.2 16.467 12.196 16.4567 12.19 16.4477C12.1843 16.4399 12.1774 16.4329 12.1695 16.4271C12.1583 16.4192 12.1498 16.408 12.1452 16.3951C12.1405 16.3821 12.14 16.3681 12.1436 16.3549C12.1469 16.3359 12.1546 16.318 12.1663 16.3027C12.1779 16.2875 12.1933 16.2753 12.2107 16.2671C12.252 16.2465 12.252 16.231 12.2003 16.2155C12.1928 16.215 12.1852 16.2159 12.1779 16.2187C12.1709 16.2213 12.1643 16.2255 12.1591 16.231C12.0559 16.3291 11.901 16.5613 11.9888 16.711L12.0714 16.8451C12.0749 16.8508 12.0771 16.8571 12.078 16.8638C12.0789 16.8704 12.0783 16.8771 12.0763 16.8835C12.0744 16.8898 12.0711 16.8957 12.0667 16.9007C12.0623 16.9056 12.0568 16.9095 12.0507 16.9123C12.0423 16.9145 12.0334 16.9145 12.0249 16.9123H11.9527C11.9114 16.9123 11.8907 16.8864 11.8907 16.8451L11.87 16.1123Z" fill="#B2A98B"/>
<path d="M12.0866 16.6963C12.0717 16.7066 12.0547 16.7134 12.0368 16.716C12.0189 16.7187 12.0006 16.7172 11.9834 16.7118C11.9007 16.5621 12.0504 16.3299 12.1588 16.2318C12.1646 16.2273 12.1712 16.2239 12.1784 16.2223C12.1855 16.2204 12.1929 16.2202 12.2001 16.2215C12.2518 16.2318 12.2518 16.2473 12.2105 16.2731C12.1743 16.2886 12.1536 16.3144 12.1434 16.3557C12.1434 16.3867 12.1434 16.4074 12.1691 16.4279C12.1795 16.4279 12.1847 16.4383 12.1898 16.4486C12.2001 16.4692 12.2053 16.4899 12.2001 16.5106C12.1805 16.5834 12.1412 16.6494 12.0866 16.7015V16.6963Z" fill="#68473D"/>
<path d="M14.3724 16.8982C14.1659 16.9292 14.135 16.7795 14.1504 16.6144V16.4182C14.1504 16.3253 14.1865 16.315 14.2536 16.3769C14.331 16.4544 14.4188 16.5112 14.5168 16.5421C14.5478 16.5524 14.5685 16.5731 14.5685 16.604L14.6046 16.7795C14.6046 16.8054 14.5943 16.826 14.5685 16.8312L14.3775 16.8982H14.3724Z" fill="#050404"/>
<path d="M11.5709 16.9546C11.6173 17.223 11.7205 17.4398 11.8753 17.6049C12.0817 17.8733 12.3397 18.0333 12.634 18.0849C12.9849 18.1365 13.2998 18.1571 13.5733 18.1314C13.7281 18.1158 13.8881 18.0642 14.0585 17.9765C14.1823 17.9042 14.2649 17.8062 14.301 17.6721C14.3577 17.4758 14.3733 17.2849 14.3527 17.099C14.3497 17.0775 14.3513 17.0556 14.3575 17.0348C14.3637 17.0138 14.3741 16.9946 14.3883 16.9779C14.4024 16.9614 14.4199 16.9481 14.4395 16.9386C14.4591 16.9293 14.4805 16.9242 14.5022 16.9236L14.8841 16.9082L15.4003 16.9907L15.5292 19.9995H10.6212C10.716 19.4994 10.7317 18.9873 10.6677 18.4822C10.6478 18.239 10.6098 17.9974 10.5542 17.7597C10.5025 17.5326 10.4406 17.2952 10.3735 17.0475C10.7577 16.9119 11.1711 16.8816 11.5709 16.9598V16.9546Z" fill="#E9E9E9"/>
<path d="M15.4048 16.9912L16.1687 17.2802C16.5351 17.5951 16.788 17.9925 16.9325 18.4673C17.0784 18.9604 17.2161 19.4559 17.3453 19.9536C17.3429 19.9656 17.3364 19.9761 17.3271 19.9836C17.3175 19.9912 17.3057 19.9952 17.2937 19.9949L15.5287 20.0001L15.4048 16.9912Z" fill="#CCC4A7"/>
<path d="M12.2773 17.0481C12.2773 16.9965 12.2928 16.9913 12.329 17.0172L12.5147 17.1513L12.5204 17.1544L12.5245 17.1594L12.5261 17.1657L12.525 17.172C12.524 17.1752 12.5218 17.1779 12.519 17.1798C12.5162 17.1816 12.5128 17.1825 12.5096 17.1823L12.3651 17.1927C12.3536 17.1939 12.342 17.1916 12.3319 17.186C12.3216 17.1805 12.3134 17.172 12.3083 17.1617C12.2895 17.1267 12.2788 17.0879 12.2773 17.0481Z" fill="#696868"/>
<path d="M10.3728 17.0479C10.4399 17.2955 10.5018 17.5328 10.5534 17.76C10.605 17.9923 10.6463 18.2348 10.667 18.4825C10.7292 18.9879 10.7118 19.4998 10.6153 19.9998H8.67485C8.63873 19.9998 8.62325 19.9792 8.62841 19.9483C8.7626 19.2412 8.86581 18.6012 9.17547 17.9096C9.29934 17.6361 9.55737 17.3677 9.82058 17.2697C10.0992 17.1717 10.285 17.0994 10.3728 17.0479Z" fill="#CCC4A7"/>
<path d="M14.7039 17.4039C14.5593 17.3987 14.4974 17.3316 14.5336 17.2077C14.5438 17.1665 14.5593 17.1665 14.5748 17.2077C14.5955 17.2387 14.6265 17.2542 14.6625 17.2439C14.7039 17.2336 14.7297 17.2542 14.74 17.2955L14.7504 17.3574C14.7554 17.3935 14.74 17.4091 14.7039 17.4091V17.4039Z" fill="#696868"/>
<path d="M11.2922 17.507C11.2664 17.5122 11.256 17.5226 11.2612 17.538C11.1942 17.4966 11.1632 17.4142 11.1993 17.3419C11.2016 17.3379 11.2028 17.3335 11.2028 17.329C11.2028 17.3245 11.2016 17.32 11.1993 17.316C11.1736 17.2799 11.1838 17.2645 11.2252 17.2645L11.478 17.249C11.5141 17.249 11.5297 17.2645 11.5297 17.3006L11.509 17.3522C11.4884 17.3883 11.4574 17.4038 11.4109 17.3934C11.3181 17.3832 11.282 17.4194 11.2922 17.507Z" fill="#050404"/>
<path d="M11.2612 17.5387C11.2612 17.5233 11.2664 17.5129 11.2921 17.5129C11.2921 17.5284 11.2921 17.5387 11.3076 17.5439C11.318 17.5543 11.3334 17.5543 11.3438 17.5387L11.3644 17.4974C11.3799 17.4768 11.3953 17.4716 11.416 17.4819C11.4573 17.5026 11.4987 17.5026 11.5398 17.4716C11.5657 17.4562 11.5812 17.4613 11.5915 17.4871C11.607 17.5233 11.6019 17.5543 11.5915 17.5903C11.576 17.6058 11.5657 17.6058 11.545 17.6007C11.4522 17.5543 11.3851 17.5903 11.3386 17.7039C11.3358 17.7086 11.3345 17.7139 11.3345 17.7193C11.3345 17.7247 11.3358 17.7302 11.3386 17.7349C11.3427 17.7403 11.3484 17.7443 11.355 17.7461C11.3615 17.748 11.3684 17.7476 11.3748 17.7452L11.4573 17.7193C11.4831 17.7091 11.5089 17.7142 11.5296 17.7349L11.8805 18.0599C11.9115 18.0857 11.9063 18.1114 11.865 18.1114C11.8217 18.1228 11.7848 18.1505 11.7618 18.1889C11.7564 18.1961 11.7495 18.2017 11.7413 18.2053C11.7331 18.2089 11.7242 18.2104 11.7154 18.2096C11.7073 18.2096 11.6994 18.2077 11.6923 18.2041C11.6851 18.2005 11.6789 18.1953 11.6741 18.1889C11.6665 18.1772 11.6596 18.1652 11.6534 18.1527C11.6328 18.1114 11.6432 18.096 11.6895 18.1012C11.6999 18.1064 11.7051 18.1012 11.7051 18.0909C11.7102 18.0599 11.6999 18.0495 11.6689 18.0651C11.6276 18.0909 11.5967 18.0805 11.576 18.0392C11.5709 18.0238 11.5554 18.0134 11.5348 18.0186C11.5028 18.0244 11.4701 18.019 11.4418 18.003C11.4056 17.9877 11.4056 17.967 11.4418 17.9515L11.545 17.8998C11.5709 17.8896 11.5812 17.8689 11.5605 17.838C11.545 17.8122 11.5192 17.8019 11.478 17.7967C11.4684 17.7967 11.4589 17.7983 11.4501 17.8018C11.4412 17.8054 11.4332 17.8106 11.4264 17.8173L11.4108 17.8328C11.3851 17.8586 11.3592 17.8586 11.3334 17.8328C11.2949 17.7956 11.2676 17.7483 11.2548 17.6962C11.242 17.6442 11.2442 17.5896 11.2612 17.5387ZM14.5434 17.4923C14.5446 17.4887 14.5465 17.4855 14.549 17.4827C14.5515 17.4799 14.5546 17.4776 14.558 17.4762C14.5614 17.4747 14.5651 17.474 14.5689 17.4742C14.5726 17.4743 14.5763 17.4751 14.5796 17.4768L14.6674 17.5026C14.6826 17.5083 14.6966 17.5172 14.7082 17.5288C14.7198 17.5404 14.7288 17.5543 14.7344 17.5696C14.7448 17.5851 14.7448 17.6007 14.75 17.6213C14.75 17.6368 14.75 17.6523 14.7396 17.673C14.7286 17.708 14.7046 17.7375 14.6726 17.7555C14.6442 17.771 14.6108 17.7745 14.5796 17.7658L14.4867 17.7349C14.4831 17.7338 14.4798 17.7319 14.4771 17.7293C14.4743 17.7269 14.4722 17.7238 14.4706 17.7204C14.4691 17.7169 14.4684 17.7132 14.4686 17.7095C14.4686 17.7057 14.4696 17.7021 14.4712 17.6987L14.5434 17.4923Z" fill="#696868"/>
<path d="M14.5843 17.6666C14.5774 17.6635 14.5719 17.6579 14.5688 17.6511V17.6253C14.5843 17.5944 14.61 17.584 14.6513 17.5892C14.6574 17.5912 14.6628 17.5946 14.6672 17.599C14.6718 17.6035 14.6752 17.609 14.6772 17.615C14.6804 17.6205 14.682 17.6268 14.682 17.633C14.682 17.6394 14.6804 17.6457 14.6772 17.6511C14.6513 17.682 14.6256 17.6872 14.5843 17.6666Z" fill="#E9E9E9"/>
<path d="M14.4244 17.8102C14.4605 17.8801 14.5184 17.9363 14.5895 17.9702C14.6101 17.9805 14.6152 18.001 14.6101 18.0218L14.5999 18.0424C14.5995 18.0456 14.5983 18.0486 14.5965 18.0514C14.5947 18.0541 14.5923 18.0563 14.5895 18.0579H14.5689C14.4295 18.0062 14.3728 17.9238 14.3883 17.8154C14.3891 17.8115 14.3911 17.8082 14.3937 17.8054C14.3964 17.8026 14.4 17.8007 14.4037 17.7998H14.414L14.4244 17.8102ZM14.3676 18.2438C14.3559 18.2102 14.3319 18.1826 14.3005 18.1663C14.2924 18.1621 14.2836 18.1597 14.2746 18.1593C14.2656 18.1588 14.2565 18.1604 14.2482 18.1639C14.2398 18.1674 14.2324 18.1726 14.2262 18.1792C14.22 18.1859 14.2155 18.1938 14.2127 18.2024C14.1973 18.254 14.2127 18.2953 14.2644 18.3212C14.2799 18.3314 14.2901 18.347 14.2799 18.3727L14.2696 18.3882C14.2592 18.4088 14.2488 18.414 14.2231 18.3985C14.1756 18.3682 14.1337 18.3297 14.0992 18.285C14.0785 18.2643 14.0837 18.2386 14.1095 18.223C14.1817 18.1714 14.2231 18.1044 14.2334 18.0218C14.2334 17.996 14.2488 17.9805 14.2747 17.9702C14.2844 17.9683 14.2944 17.9693 14.3035 17.9729C14.3127 17.9766 14.3206 17.9828 14.3263 17.9908C14.3366 18.001 14.347 18.0166 14.347 18.0372C14.347 18.0992 14.3831 18.1406 14.445 18.1559C14.4531 18.1592 14.46 18.165 14.4646 18.1724C14.4693 18.1798 14.4715 18.1886 14.4708 18.1973V18.2128C14.465 18.2307 14.4543 18.2469 14.4398 18.2591C14.4338 18.2627 14.4271 18.2652 14.42 18.266C14.4131 18.267 14.406 18.2664 14.3992 18.2645C14.3925 18.2625 14.3862 18.2593 14.3807 18.2548C14.3752 18.2503 14.3708 18.2448 14.3676 18.2386V18.2438ZM11.9419 18.1406C11.9528 18.1303 11.966 18.123 11.9805 18.1194C11.995 18.1158 12.0101 18.116 12.0244 18.1198L12.0916 18.1406L12.1019 18.1456C12.1036 18.1482 12.1048 18.1513 12.1052 18.1544C12.1056 18.1575 12.1052 18.1606 12.1043 18.1637C12.1033 18.1666 12.1016 18.1693 12.0995 18.1716C12.0972 18.1739 12.0946 18.1756 12.0916 18.1766C12.0612 18.1868 12.0332 18.203 12.0092 18.2243C11.9853 18.2455 11.966 18.2715 11.9522 18.3005C11.9467 18.3131 11.9371 18.3236 11.9249 18.3301C11.9127 18.3366 11.8988 18.3389 11.8852 18.3366H11.8696C11.849 18.3212 11.8438 18.3056 11.849 18.285C11.868 18.23 11.8997 18.1805 11.9419 18.1406ZM12.1535 18.1817C12.1638 18.1508 12.1948 18.1406 12.236 18.1508C12.247 18.153 12.257 18.1587 12.2644 18.1671C12.272 18.1754 12.2765 18.1861 12.2774 18.1973C12.2787 18.2075 12.277 18.2178 12.2723 18.227C12.2677 18.2362 12.2605 18.2438 12.2516 18.2489C12.2251 18.2657 12.2029 18.2884 12.1868 18.3153C12.1707 18.3421 12.161 18.3725 12.1586 18.4037C12.1585 18.4173 12.1528 18.4302 12.1432 18.4398C12.1333 18.4492 12.1206 18.4546 12.1071 18.4553C12.0787 18.4576 12.0501 18.4522 12.0244 18.4398C12.0152 18.4354 12.008 18.4275 12.0041 18.418C12.0004 18.4085 12.0003 18.3978 12.0039 18.3882L12.0141 18.3675C12.0761 18.316 12.1173 18.2591 12.1535 18.1817ZM13.7534 18.2746L13.7328 18.285C13.7239 18.2884 13.7168 18.2953 13.7129 18.3039C13.7091 18.3126 13.7088 18.3225 13.7121 18.3314L13.8102 18.5585C13.8153 18.5791 13.836 18.5843 13.8566 18.5791L13.8773 18.5689C13.8861 18.5654 13.8933 18.5585 13.8972 18.5498C13.901 18.5412 13.9013 18.5313 13.8979 18.5224L13.7999 18.2953C13.7964 18.2865 13.7896 18.2793 13.7808 18.2754C13.7722 18.2715 13.7623 18.2713 13.7534 18.2746ZM14.0424 18.3934L14.0837 18.4707C14.094 18.512 14.0837 18.5276 14.032 18.5172C13.9598 18.4914 13.9186 18.445 13.9135 18.3623C13.9135 18.3314 13.9288 18.3108 13.965 18.2953L14.0167 18.285C14.058 18.2695 14.0682 18.285 14.0528 18.3314L14.0372 18.3521C14.0337 18.3586 14.0324 18.3662 14.0332 18.3735C14.0342 18.3809 14.0375 18.3878 14.0424 18.3934ZM12.4115 18.3675C12.3444 18.4037 12.3341 18.4707 12.3083 18.5379C12.3052 18.5479 12.299 18.5567 12.2908 18.5632C12.2824 18.5697 12.2724 18.5734 12.2618 18.5741L12.236 18.5689C12.2207 18.5534 12.2155 18.5379 12.2207 18.5172C12.2464 18.445 12.2877 18.3779 12.3392 18.3212C12.3456 18.3122 12.3542 18.305 12.3642 18.3006C12.3742 18.296 12.3852 18.2942 12.3961 18.2953C12.4012 18.2953 12.4115 18.2953 12.4167 18.3056C12.4424 18.3262 12.4424 18.347 12.4115 18.3675ZM13.5676 18.4657C13.5758 18.431 13.5722 18.3947 13.5573 18.3623C13.5418 18.3212 13.5522 18.3056 13.5935 18.3056C13.614 18.3056 13.6296 18.316 13.645 18.3366C13.6605 18.347 13.6657 18.3623 13.6657 18.3779C13.6657 18.4398 13.6864 18.4966 13.7224 18.543C13.7431 18.5741 13.738 18.5946 13.7019 18.6102C13.6686 18.6228 13.6318 18.6228 13.5985 18.6102C13.5852 18.6061 13.5707 18.6061 13.5573 18.6102L13.4025 18.6618C13.3916 18.6642 13.38 18.663 13.3697 18.6583C13.3595 18.6538 13.3511 18.6458 13.3456 18.6359C13.3435 18.6275 13.3435 18.6186 13.3456 18.6102L13.3767 18.4966C13.3792 18.484 13.3847 18.4723 13.3928 18.4623C13.4008 18.4524 13.4112 18.4447 13.4231 18.4398C13.4696 18.4192 13.5057 18.4346 13.5263 18.4707C13.547 18.5018 13.5624 18.4966 13.5676 18.4707V18.4657ZM13.1289 18.6102C13.1496 18.5689 13.1805 18.543 13.227 18.5276C13.2528 18.5172 13.2734 18.5276 13.2837 18.5534L13.3147 18.6152C13.3302 18.6359 13.3251 18.6566 13.2993 18.6669C13.2475 18.6992 13.1896 18.7204 13.1292 18.7293C13.0688 18.7382 13.0072 18.7345 12.9483 18.7186C12.9252 18.7133 12.9037 18.7028 12.8854 18.688C12.8669 18.6732 12.8523 18.6542 12.8423 18.6328C12.8324 18.6114 12.8275 18.588 12.828 18.5644C12.8284 18.5408 12.8342 18.5176 12.8451 18.4966C12.9224 18.3521 13.0566 18.3056 13.258 18.3675C13.3302 18.3882 13.3302 18.4088 13.258 18.4295C13.2004 18.4414 13.1471 18.468 13.1031 18.5069C13.0877 18.5224 13.0722 18.5224 13.0516 18.5018C13.0498 18.4933 13.0498 18.4845 13.0516 18.4759C13.0412 18.4346 13.0205 18.4244 12.9948 18.4605C12.9886 18.4665 12.9834 18.4735 12.9793 18.4811C12.9765 18.4867 12.9751 18.4929 12.9751 18.4991C12.9751 18.5054 12.9765 18.5115 12.9793 18.5172C12.9975 18.5567 13.0239 18.5918 13.0566 18.6204C13.0646 18.625 13.0735 18.6274 13.0825 18.6274C13.0916 18.6274 13.1004 18.625 13.1083 18.6204C13.1159 18.6186 13.123 18.6151 13.1289 18.6102ZM12.4219 18.543C12.442 18.53 12.4576 18.5112 12.4669 18.4891C12.476 18.467 12.4784 18.4426 12.4736 18.4192C12.4722 18.4135 12.4724 18.4078 12.4743 18.4022C12.476 18.3968 12.4794 18.3918 12.4838 18.3882L12.4993 18.3779H12.5147L12.6438 18.414C12.6696 18.4244 12.68 18.4398 12.6696 18.4657L12.618 18.6256C12.6145 18.6357 12.6092 18.6449 12.602 18.6528C12.5948 18.6606 12.5861 18.6669 12.5765 18.6712C12.5668 18.6756 12.5563 18.678 12.5456 18.6781C12.5351 18.6782 12.5246 18.6762 12.5147 18.6721L12.4322 18.6359C12.3702 18.6102 12.3702 18.5843 12.4219 18.543Z" fill="#696868"/>
</g>
<defs>
<clipPath id="clip0_328_47109">
<rect width="24" height="24" fill="white"/>
</clipPath>
</defs>
</svg>
