<svg width="24" height="24" viewBox="0 0 24 24" fill="none" xmlns="http://www.w3.org/2000/svg">
<g clip-path="url(#clip0_328_47382)">
<path d="M24 0H0V24H24V0Z" fill="#B3E2FF"/>
<path d="M5 16.1947V8.56473C5 8.42973 5.155 8.34473 5.27499 8.41473L7.00001 9.43474V14.9548L11.75 17.7448V19.8248C11.75 19.9598 11.6 20.0448 11.48 19.9748L5 16.1947ZM19 16.1947V8.56473C19 8.42973 18.845 8.34473 18.7251 8.41473L17.0001 9.43474V14.9548L12.25 17.7448V19.8248C12.25 19.9598 12.4001 20.0448 12.52 19.9748L19 16.1947Z" fill="black"/>
<path d="M7.12516 9.16502L5.31014 8.05501C5.29655 8.04777 5.28518 8.03696 5.27726 8.02375C5.26933 8.01054 5.26514 7.99542 5.26514 7.98001C5.26514 7.96461 5.26933 7.9495 5.27726 7.93629C5.28518 7.92308 5.29655 7.91225 5.31014 7.90501L11.9652 4L18.6302 7.90501C18.6902 7.94002 18.6902 8.02001 18.6302 8.05501L16.7552 9.17002C16.7401 9.17931 16.7228 9.18424 16.7052 9.18424C16.6875 9.18424 16.6702 9.17931 16.6552 9.17002L14.1502 7.67001C14.0901 7.63001 14.0002 7.67001 14.0002 7.74001V13.3501C14.0002 13.3801 13.9902 13.4101 13.9652 13.425L12.0153 14.6501C12.0008 14.6585 11.9843 14.6628 11.9677 14.6628C11.9509 14.6628 11.9346 14.6585 11.9201 14.6501L10.0302 13.425C10.0001 13.4101 10.0001 13.3801 10.0001 13.3501V7.74001C10.0001 7.67001 9.90519 7.63001 9.85012 7.66501L7.22016 9.16502C7.20513 9.17431 7.18782 9.17924 7.17016 9.17924C7.15249 9.17924 7.13518 9.17431 7.12015 9.16502H7.12516Z" fill="black"/>
<path d="M9.46462 13.7401L7.81462 14.7051C7.78742 14.7196 7.76469 14.7412 7.74885 14.7677C7.73299 14.794 7.72461 14.8243 7.72461 14.8551C7.72461 14.8859 7.73299 14.9162 7.74885 14.9426C7.76469 14.9691 7.78742 14.9906 7.81462 15.0051L9.46462 15.9901C9.54962 16.0402 9.66462 16.0402 9.75461 15.9901L11.3297 15.0001C11.3545 14.9849 11.375 14.9635 11.3893 14.9383C11.4035 14.9128 11.411 14.8842 11.411 14.8551C11.411 14.826 11.4035 14.7974 11.3893 14.7719C11.375 14.7467 11.3545 14.7253 11.3297 14.7102L9.74959 13.7451C9.70689 13.7188 9.65794 13.7045 9.6078 13.7037C9.55767 13.7027 9.50822 13.7153 9.46462 13.7401ZM14.2296 13.7401L12.5796 14.7051C12.5524 14.7196 12.5297 14.7412 12.5139 14.7677C12.4981 14.794 12.4897 14.8243 12.4897 14.8551C12.4897 14.8859 12.4981 14.9162 12.5139 14.9426C12.5297 14.9691 12.5524 14.9906 12.5796 15.0051L14.2296 15.9901C14.3197 16.0402 14.4297 16.0402 14.5197 15.9901L16.0946 15.0001C16.1195 14.9849 16.1401 14.9635 16.1543 14.9383C16.1684 14.9128 16.1758 14.8842 16.1758 14.8551C16.1758 14.826 16.1684 14.7974 16.1543 14.7719C16.1401 14.7467 16.1195 14.7253 16.0946 14.7102L14.5197 13.7451C14.4764 13.7179 14.4265 13.703 14.3753 13.7022C14.3242 13.7012 14.2738 13.7144 14.2296 13.7401ZM10.2197 16.1051L11.8697 15.1401C11.9546 15.0901 12.0646 15.0901 12.1497 15.1401L13.7247 16.1102C13.8396 16.1751 13.8396 16.335 13.7247 16.4001L12.1547 17.385C12.1114 17.4124 12.0615 17.4272 12.0104 17.4281C11.9593 17.429 11.9089 17.4158 11.8646 17.3901L10.2147 16.405C10.1875 16.3906 10.1647 16.369 10.1489 16.3426C10.133 16.3162 10.1247 16.2859 10.1247 16.2551C10.1247 16.2242 10.133 16.194 10.1489 16.1677C10.1647 16.1412 10.1875 16.1196 10.2147 16.1051H10.2197Z" fill="black"/>
</g>
<defs>
<clipPath id="clip0_328_47382">
<rect width="24" height="24" fill="white"/>
</clipPath>
</defs>
</svg>
