<svg width="24" height="24" viewBox="0 0 24 24" fill="none" xmlns="http://www.w3.org/2000/svg">
<g clip-path="url(#clip0_328_31980)">
<path d="M24 0H0V24H24V0Z" fill="#00B7FF"/>
<path d="M17.0576 7.26042L15.7498 4.40705C15.6172 4.09613 15.4572 4.00467 15.3109 4.00011C15.1189 3.99553 14.9634 4.14184 14.9634 4.14184C14.9634 4.14184 7.31321 11.0146 6.36665 11.9977C5.95513 12.423 5.81794 12.8803 5.82709 13.2598C5.83623 13.7491 6.01914 14.0554 6.01914 14.0554C6.84222 15.7108 7.55099 17.4621 8.35578 19.1403C8.81306 20.0183 9.91508 20 9.91508 20H17.7162C17.9447 20 18.1734 19.7348 18.1734 19.5748C18.1734 19.3917 18.0774 19.2227 18.0774 19.2227C18.0774 19.2227 16.8244 16.2505 16.4312 15.5737C16.1431 14.9701 15.4755 14.9701 15.4755 14.9701H10.3998C12.4803 12.8345 16.3762 9.78456 16.893 9.24041C17.6612 8.44933 17.0576 7.26042 17.0576 7.26042Z" fill="white"/>
<path d="M6.02002 14.0562C6.02002 14.0562 6.68763 14.9708 7.43756 14.9708H10.858C9.97539 15.8852 8.7362 16.5528 8.7362 16.5528C8.7362 16.5528 7.92227 17.2753 8.11432 18.6288L6.02002 14.0562Z" fill="white"/>
</g>
<defs>
<clipPath id="clip0_328_31980">
<rect width="24" height="24" fill="white"/>
</clipPath>
</defs>
</svg>
