<svg width="24" height="24" viewBox="0 0 24 24" fill="none" xmlns="http://www.w3.org/2000/svg">
<g clip-path="url(#clip0_328_31995)">
<path d="M24 0H0V24H24V0Z" fill="url(#paint0_linear_328_31995)"/>
<path fill-rule="evenodd" clip-rule="evenodd" d="M21 11.9974C20.9993 9.61038 20.0503 7.32149 18.3621 5.63415C17.5262 4.79867 16.5338 4.13604 15.4417 3.68407C14.3497 3.23209 13.1792 2.99964 11.9974 3C9.61038 3.0007 7.3215 3.94957 5.63417 5.63789C3.94683 7.32621 2.9993 9.61569 3 12.0027C3.0007 14.3896 3.94959 16.6784 5.63791 18.3658C7.32623 20.0532 9.61569 21.0007 12.0027 21C14.3896 20.9993 16.6784 20.0503 18.3658 18.3621C20.0532 16.6737 21.0007 14.3843 21 11.9974ZM19.9414 11.9974C19.9414 9.89186 19.1049 7.87254 17.6162 6.38373C16.1275 4.89492 14.108 4.05851 12.0027 4.05851C9.89715 4.05851 7.87785 4.89492 6.38904 6.38373C4.9002 7.87254 4.06381 9.89186 4.06381 11.9974C4.06381 14.1027 4.9002 16.1222 6.38904 17.6109C7.87785 19.0996 9.89715 19.9361 12.0027 19.9361C14.108 19.9361 16.1275 19.0996 17.6162 17.6109C19.1049 16.1222 19.9414 14.1027 19.9414 11.9974ZM12.0027 10.9388C12.2834 10.9388 12.5526 11.0503 12.7512 11.2488C12.9496 11.4473 13.0611 11.7166 13.0611 11.9974C13.0611 12.2781 12.9496 12.5473 12.7512 12.7459C12.5526 12.9443 12.2834 13.0558 12.0027 13.0558C11.7219 13.0558 11.4526 12.9443 11.2541 12.7459C11.0557 12.5473 10.9441 12.2781 10.9441 11.9974C10.9441 11.7166 11.0557 11.4473 11.2541 11.2488C11.4526 11.0503 11.7219 10.9388 12.0027 10.9388ZM16.4113 18.0572C17.5509 17.2226 18.4344 16.0861 18.9624 14.7759C19.0112 14.6592 19.0332 14.5329 19.0268 14.4065C19.0202 14.2802 18.9857 14.1567 18.9253 14.0455C18.8088 13.8074 18.6077 13.6593 18.3537 13.5957L14.0137 12.5583C13.8701 12.5248 13.7197 12.5335 13.5807 12.5832C13.4419 12.6329 13.3202 12.7218 13.2305 12.8389C13.1365 12.9529 13.0785 13.0924 13.0645 13.2395C13.0503 13.3867 13.0806 13.5346 13.1512 13.6645L15.1251 17.7503C15.2416 17.9779 15.4428 18.1366 15.6969 18.1949C15.9509 18.2584 16.1996 18.2161 16.4113 18.0572ZM7.6257 18.0626C6.51584 17.2587 5.64511 16.1684 5.10644 14.9082C5.00059 14.6595 5.01116 14.4055 5.13289 14.1673C5.25464 13.9292 5.45045 13.7704 5.71508 13.712L9.99143 12.5478C10.0443 12.5371 10.0973 12.5265 10.1503 12.5265C10.3937 12.516 10.6266 12.6272 10.7749 12.8282C10.8669 12.9432 10.9235 13.0826 10.9377 13.2292C10.9517 13.3759 10.9227 13.5235 10.8542 13.654L8.91707 17.7556C8.79005 17.9938 8.59953 18.1419 8.34548 18.2055C8.08086 18.269 7.8321 18.2215 7.6204 18.0626H7.6257ZM16.9777 6.4031C15.9015 5.46282 14.5864 4.83824 13.1775 4.59834C12.9129 4.5613 12.6748 4.6248 12.4736 4.78889C12.2725 4.95824 12.1667 5.18582 12.1667 5.45045L12.1402 10.1607C12.1296 10.4678 12.299 10.7325 12.5795 10.8647C12.713 10.927 12.8615 10.9503 13.0077 10.9315C13.1539 10.9127 13.2917 10.853 13.4051 10.7589L16.9565 7.72624C17.1628 7.56217 17.274 7.3346 17.274 7.06996C17.274 6.80534 17.1788 6.57776 16.9777 6.4031ZM11.8279 10.1343L11.6798 5.45045C11.6744 5.18582 11.5581 4.96882 11.357 4.79946C11.2609 4.71835 11.1474 4.66041 11.0254 4.63011C10.9032 4.59984 10.7759 4.59802 10.653 4.6248C9.25866 4.87558 7.96447 5.51807 6.92178 6.47721C6.72596 6.65714 6.63069 6.89531 6.64128 7.15465C6.64658 7.41928 6.763 7.64156 6.9747 7.80562L10.5736 10.7695C10.7218 10.8912 10.9018 10.9441 11.0817 10.9388C11.1839 10.9361 11.2846 10.913 11.3777 10.8708C11.4708 10.8288 11.5545 10.7686 11.624 10.6935C11.6936 10.6187 11.7474 10.5305 11.7824 10.4346C11.8175 10.3385 11.8329 10.2365 11.8279 10.1343ZM17.2423 8.09672L13.8816 10.9283C13.6803 11.087 13.5797 11.3093 13.5851 11.5528C13.5891 11.7303 13.6538 11.9012 13.7684 12.037C13.883 12.1727 14.0405 12.2653 14.2149 12.299L18.4491 13.1459C18.703 13.1934 18.9464 13.1405 19.1476 12.9711C19.3593 12.8071 19.4757 12.5848 19.481 12.3202C19.4915 12.2144 19.4915 12.1033 19.4915 11.9974C19.4915 10.6741 19.1476 9.43573 18.5495 8.35076C18.4868 8.24086 18.4007 8.146 18.2974 8.07285C18.194 7.99971 18.0759 7.95006 17.9515 7.92737C17.6869 7.87443 17.4487 7.92737 17.2423 8.09672ZM10.0973 10.9229L6.68362 8.1867C6.47191 8.02792 6.22846 7.975 5.97441 8.0385C5.71508 8.09672 5.51397 8.25021 5.39222 8.47778C4.72428 9.72312 4.42503 11.1332 4.52955 12.5425C4.54542 12.8071 4.67245 13.0241 4.87886 13.1828C5.09057 13.3417 5.33931 13.3945 5.59335 13.3311L9.80625 12.3043C10.108 12.2302 10.3249 12.0132 10.3883 11.7064C10.4235 11.5615 10.4147 11.4097 10.3628 11.27C10.3109 11.1304 10.2185 11.0096 10.0973 10.9229ZM14.1355 19.1793C13.7544 19.2852 13.3735 19.153 12.9817 19.0206C12.6801 18.9147 12.3732 18.8088 12.0502 18.8088C11.7486 18.8088 11.4204 18.9147 11.0975 19.0153C10.6741 19.1476 10.2614 19.2799 9.90143 19.1846C9.64742 19.1158 9.54158 18.9781 9.43574 18.7506C9.32459 18.5178 9.32459 18.2742 9.43574 18.0415L11.3622 14.019C11.4944 13.7491 11.7591 13.5851 12.0661 13.5851C12.3732 13.5851 12.6376 13.744 12.7701 14.019L14.6912 18.0096C14.8024 18.2372 14.8024 18.4754 14.6966 18.7135C14.5748 18.9464 14.3896 19.0999 14.1355 19.174V19.1793ZM12.0027 13.9979V18.2215C12.0027 18.2215 12.0237 18.4014 11.6056 18.5284L10.4518 18.867C10.3619 18.8936 9.66335 18.9887 9.95441 18.2002C10.2403 17.4169 11.6056 14.3525 11.6056 14.3525C11.6056 14.3525 11.7486 14.0243 12.0027 13.9979Z" fill="white"/>
</g>
<defs>
<linearGradient id="paint0_linear_328_31995" x1="5.40665" y1="6.71448" x2="17.93" y2="17.7747" gradientUnits="userSpaceOnUse">
<stop stop-color="#0690F9"/>
<stop offset="1" stop-color="#0B54E3"/>
</linearGradient>
<clipPath id="clip0_328_31995">
<rect width="24" height="24" fill="white"/>
</clipPath>
</defs>
</svg>
