<svg width="24" height="24" viewBox="0 0 24 24" fill="none" xmlns="http://www.w3.org/2000/svg">
<g clip-path="url(#clip0_328_53669)">
<path d="M24 0H0V24H24V0Z" fill="white"/>
<path d="M15.8485 5.97231C15.8573 6.06565 15.8485 6.19453 15.8129 6.36344L15.2529 9.03023L12.4304 8.19019L12.106 8.09241C12.0479 8.06983 11.9845 8.06518 11.9238 8.07908L11.6127 8.17241C11.6034 8.17419 11.5947 8.17788 11.5872 8.18325C11.5795 8.18861 11.573 8.19551 11.5682 8.20352L11.5505 8.23908C11.5326 8.22574 11.5104 8.2213 11.4927 8.22574C11.3727 8.25241 11.2482 8.28353 11.1282 8.31908C10.3281 8.56354 9.52815 8.79911 8.73255 9.03023L8.12807 6.07453C8.12361 6.05676 8.12807 6.02564 8.14585 5.97231L8.36808 5.92786L11.8215 5.34561C11.9505 5.32338 12.0883 5.33227 12.2305 5.35895L15.8485 5.97231Z" fill="#21DAD5"/>
<path d="M8.15043 5.97266C8.13586 6.00476 8.12828 6.03961 8.1282 6.07488L8.73268 9.03501C8.72378 9.05724 8.71045 9.07503 8.69712 9.07947L6.07031 6.36378V6.33712L6.0881 6.32822L6.16365 6.31044L8.15043 5.97266ZM15.8486 5.97266L17.9376 6.32822L15.3152 9.07947L15.253 9.03501L15.813 6.36823C15.8486 6.19488 15.8574 6.066 15.8486 5.97266Z" fill="#81E9F4"/>
<path d="M17.9418 6.32768C17.9241 6.37212 17.9285 6.41657 17.9596 6.44324C17.9063 6.51435 17.8707 6.59436 17.8574 6.68325C17.6741 7.72122 17.486 8.75833 17.2929 9.79452C17.2796 9.87452 17.2663 9.95453 17.244 10.0301C17.2174 10.0656 17.1951 10.0745 17.1684 10.0656C16.6323 9.8074 16.0944 9.55257 15.5551 9.30117C15.5527 9.30253 15.5506 9.30445 15.5491 9.30677C15.5475 9.30909 15.5466 9.31173 15.5461 9.31449V11.4656C15.5506 11.4879 15.5461 11.5102 15.5195 11.5191L13.1372 11.9813C13.0629 11.9566 12.9988 11.9082 12.955 11.8435C12.9194 11.7902 12.9238 11.7457 12.9682 11.7102L13.0571 11.6391L13.8216 10.759L14.5106 9.99456C14.5995 9.8923 14.6795 9.78118 14.7772 9.68341L14.9818 9.45228C15.0883 9.32339 15.2039 9.19894 15.3151 9.07893L17.9418 6.32324V6.32768ZM6.07012 6.36324L8.69247 9.07448C8.72358 9.12781 8.75026 9.16781 8.77248 9.19004C9.28362 9.75452 9.77252 10.3323 10.2837 10.8923C10.5058 11.1368 10.7193 11.3723 10.9237 11.6257C10.9726 11.6879 11.0348 11.719 11.0304 11.8079C11.0304 11.8435 11.0082 11.8746 10.9726 11.9057L10.8659 11.9946L8.4658 11.4967L8.43468 11.4524L8.45247 9.31894V9.30561C8.45107 9.30292 8.44915 9.30053 8.4468 9.29861C8.44445 9.29669 8.44175 9.29527 8.43883 9.29445C8.43592 9.29361 8.43286 9.29339 8.42986 9.29377C8.42685 9.29417 8.42396 9.29517 8.42136 9.29672L6.82128 10.07C6.80684 10.0748 6.79126 10.0748 6.77683 10.07C6.75016 10.07 6.74128 10.0523 6.73683 10.0301C6.7268 9.93482 6.71345 9.83995 6.69683 9.74563C6.53215 8.83774 6.36918 7.92954 6.20791 7.02104C6.17608 6.81975 6.12089 6.62286 6.04346 6.43435L6.07012 6.36324Z" fill="#018278"/>
<path d="M17.9552 6.44346L18.5864 9.35916L18.5508 9.40361C18.5414 9.41355 18.5288 9.41985 18.5152 9.42138C18.4708 9.42583 18.4264 9.44361 18.3819 9.47027C18.0886 9.63918 17.7152 9.84808 17.2618 10.0926L17.2441 10.0303C17.2663 9.95475 17.2796 9.87474 17.2885 9.79474C17.3108 9.66141 17.324 9.5725 17.333 9.5503L17.8574 6.68348C17.8708 6.59459 17.902 6.51457 17.9597 6.44346H17.9552ZM6.04355 6.43457C6.12355 6.63014 6.17689 6.8257 6.208 7.02126C6.24477 7.28356 6.29072 7.54446 6.34579 7.80353L6.69691 9.74585L6.74137 10.0303C6.74137 10.0525 6.75026 10.0658 6.77691 10.0747C6.7458 10.0747 6.73691 10.0792 6.7458 10.0926C6.72802 10.0926 6.7058 10.0836 6.67914 10.0703C6.32357 9.84808 5.91022 9.63472 5.44353 9.42583C5.44353 9.41249 5.42575 9.39916 5.38574 9.38138C5.49686 8.99469 5.5902 8.59912 5.6702 8.1991C5.78131 7.63019 5.90576 7.04349 6.04355 6.43457Z" fill="#00413B"/>
<path d="M12.4303 8.19048C12.4747 8.47492 12.5015 8.7505 12.5459 9.02607C12.5859 9.26608 12.6037 9.4972 12.6348 9.73722L12.8747 11.4972C12.9015 11.6839 12.9059 11.804 12.8882 11.8618C12.5962 12.8906 12.3073 13.9203 12.0215 14.9508C11.9948 15.0353 11.977 15.0308 11.9637 14.9464C11.9637 14.9241 11.9547 14.9019 11.9503 14.8842L11.1503 12.0307C11.1058 11.8839 11.0881 11.7729 11.0969 11.6928C11.2377 10.5401 11.3904 9.38894 11.5547 8.23936L11.577 8.2038C11.5847 8.18944 11.5973 8.17837 11.6125 8.17269L11.9281 8.0838C11.9883 8.06848 12.0519 8.07159 12.1103 8.09269L12.4347 8.19048H12.4303Z" fill="#81E9F4"/>
<path d="M12.4307 8.19043L15.2531 9.03491L15.3154 9.07935C15.1998 9.19937 15.0931 9.32382 14.9821 9.45271L14.7775 9.68383C14.6798 9.78161 14.5998 9.89273 14.5109 9.99499C14.0129 10.5323 13.5268 11.0806 13.053 11.6395L12.9641 11.7106C12.9242 11.7461 12.9197 11.7906 12.9553 11.8439C12.9998 11.9069 13.0638 11.9538 13.1375 11.9772L14.5198 13.3417L13.4397 15.1596C13.2308 15.1729 13.013 15.1729 12.7908 15.1551C12.4352 15.1241 12.2263 15.1107 12.1774 15.1107C11.8751 15.1063 11.5685 15.1151 11.2663 15.1463C11.0796 15.1596 10.8885 15.1729 10.6974 15.1774C10.6306 15.1819 10.5774 15.1641 10.5462 15.133L9.41731 13.2795C9.43508 13.2663 9.45286 13.2706 9.47063 13.2884C9.47508 13.3017 9.48842 13.3017 9.50175 13.2974C9.53101 13.2857 9.55808 13.2691 9.58175 13.2484C9.78176 13.0617 9.97283 12.8439 10.1773 12.6483C10.4454 12.4041 10.7106 12.1567 10.9729 11.9061C11.0085 11.875 11.0308 11.8439 11.0308 11.8083C11.0308 11.7194 10.9729 11.6883 10.9241 11.6261C10.7196 11.3727 10.5018 11.1372 10.2841 10.8927C9.77287 10.3327 9.28397 9.75495 8.77283 9.19047C8.7506 9.16824 8.72838 9.12824 8.69727 9.07491C8.7106 9.07491 8.72393 9.05713 8.73283 9.03047C9.53287 8.79935 10.3329 8.56378 11.1329 8.31931C11.2486 8.28376 11.373 8.25265 11.493 8.22598C11.5107 8.22154 11.5329 8.22598 11.5507 8.23931L11.493 8.70155C11.3063 10.0393 11.1774 11.035 11.0974 11.6927C11.0886 11.7728 11.1062 11.8839 11.1463 12.0306C11.4243 13.001 11.6969 13.9729 11.9642 14.9463C11.9774 15.0352 11.9953 15.0352 12.0219 14.9463L12.1063 14.6574L12.8886 11.8662C12.9063 11.8083 12.9018 11.6883 12.8752 11.5016L12.6352 9.74606C12.6042 9.50159 12.5864 9.27048 12.5463 9.03491C12.5018 8.75489 12.4752 8.47933 12.4307 8.19487V8.19043Z" fill="#00BAB9"/>
<path d="M8.43443 11.457C8.44776 11.4703 8.43443 11.4792 8.40331 11.4747L6.74545 10.0925C6.73656 10.0791 6.74546 10.0747 6.77657 10.0747L6.82102 10.0702C7.36271 9.81441 7.90349 9.55662 8.44332 9.29688C8.44677 9.29934 8.44943 9.30275 8.45101 9.30667C8.45259 9.31062 8.453 9.31493 8.45221 9.3191L8.43443 11.4526V11.457ZM17.2437 10.0303L17.2615 10.0925C17.1504 10.1503 17.0571 10.2481 16.9815 10.3147L15.6259 11.4391C15.6064 11.4562 15.5912 11.4775 15.5814 11.5014C15.5636 11.4926 15.5503 11.4836 15.5458 11.4658V9.31464C15.5463 9.31188 15.5472 9.30924 15.5488 9.30692C15.5503 9.30461 15.5524 9.30269 15.5548 9.30132H15.5681C16.1059 9.55466 16.6392 9.80801 17.1681 10.0658C17.1904 10.0791 17.2126 10.0658 17.2437 10.0303Z" fill="#022825"/>
<path d="M18.5867 9.35938L18.6044 9.39048C18.5867 9.39048 18.5688 9.39937 18.56 9.4216C17.9107 10.2784 17.2648 11.1377 16.6221 11.9995L16.551 12.0306C16.5296 11.9833 16.4916 11.9453 16.4444 11.924L15.582 11.5017C15.5918 11.4777 15.607 11.4565 15.6265 11.4394L16.9776 10.3149C17.0577 10.2484 17.1511 10.1506 17.2621 10.0928C17.6372 9.89088 18.009 9.68343 18.3777 9.47049C18.4222 9.44382 18.4667 9.42605 18.5111 9.4216C18.5289 9.4216 18.5422 9.41271 18.5511 9.40382L18.5867 9.35938Z" fill="#018278"/>
<path d="M5.38582 9.37695C5.43027 9.39918 5.4436 9.41251 5.4436 9.4214L7.39036 12.0037C7.38148 12.0037 7.37703 12.0037 7.37259 12.0127C7.33703 12.0659 7.28369 12.1192 7.22146 12.1727C6.82144 12.4793 6.43475 12.7905 6.05696 13.106C6.04363 13.1149 6.03918 13.1283 6.03029 13.1416C6.00807 13.1416 5.97695 13.1416 5.95473 13.1504C5.61694 13.3371 5.2747 13.5238 4.92802 13.7016L4.24798 12.8971L4.01686 12.6083C4.00767 12.5955 4.002 12.5806 4.00044 12.565C3.99888 12.5493 4.00148 12.5335 4.00798 12.5194L5.38582 9.3814V9.37695ZM18.6042 9.39029L19.9954 12.5327C20.0042 12.5548 19.9998 12.5771 19.9866 12.5993L19.7509 12.8838L19.0709 13.6883H19.0487C18.6219 13.466 18.2798 13.2883 18.0353 13.1459C18.0086 13.1327 17.9909 13.1327 17.9686 13.1416C17.9598 13.1183 17.9444 13.0982 17.9242 13.0838L17.0842 12.4171C16.9152 12.2838 16.773 12.1503 16.6174 11.9993C17.2763 11.1271 17.9386 10.2574 18.6042 9.39029Z" fill="#21DAD5"/>
<path d="M5.44336 9.42188C5.91005 9.63523 6.3234 9.84857 6.67898 10.0707C6.70564 10.0841 6.72787 10.093 6.74564 10.093L8.4035 11.4753V11.5109L8.37684 11.533C8.04352 11.6792 7.71448 11.8347 7.39012 11.9998L5.44336 9.42188Z" fill="#018278"/>
<path d="M8.43492 11.457L8.47048 11.5014C8.47493 11.5459 8.48382 11.577 8.49271 11.5903C8.88829 12.2926 9.18609 12.8348 9.39053 13.2171C9.39942 13.235 9.39053 13.2438 9.37721 13.2438L7.4082 12.0082C7.41161 12.0008 7.41653 11.9942 7.42266 11.9888C7.42879 11.9835 7.43598 11.9794 7.44377 11.977L7.48822 11.9637C7.78929 11.8044 8.0946 11.6533 8.40381 11.5104C8.40828 11.499 8.40828 11.4862 8.40381 11.4748C8.43492 11.4748 8.44827 11.4748 8.43492 11.457ZM15.5463 11.4658C15.5463 11.4837 15.5642 11.4926 15.5864 11.5014L16.4442 11.9238C16.4975 11.9504 16.5331 11.986 16.5509 12.0304L14.5997 13.2571V13.235C14.5997 13.2216 14.6042 13.2126 14.613 13.1994L15.5197 11.5193C15.542 11.5059 15.5508 11.4882 15.5463 11.4658Z" fill="#035653"/>
<path d="M8.4707 11.4971L10.8664 11.9994C10.6397 12.2217 10.4086 12.435 10.1775 12.6483C9.97296 12.8439 9.77744 13.0617 9.58187 13.2484C9.5582 13.2691 9.53112 13.2857 9.50186 13.2974C9.48853 13.3017 9.4752 13.2974 9.47075 13.2884C9.45297 13.2706 9.4352 13.2662 9.41742 13.2795C9.3952 13.2706 9.38631 13.2618 9.37742 13.2439C9.3952 13.2439 9.3952 13.2351 9.39075 13.2173C9.18629 12.835 8.88405 12.2928 8.49293 11.595C8.48063 11.5638 8.47314 11.5307 8.4707 11.4971ZM15.5199 11.5194L14.6132 13.1995C14.6076 13.2105 14.6045 13.2226 14.6044 13.2351V13.2573L14.5199 13.3417L13.1421 11.9817L15.5199 11.5194Z" fill="#11AFAA"/>
<path d="M16.6219 11.999C16.7685 12.1457 16.9151 12.2879 17.0841 12.4212L17.9286 13.0879C17.9463 13.1013 17.9642 13.119 17.973 13.1413L16.9419 14.4792C16.8619 14.5813 16.8086 14.7013 16.733 14.7903L14.8218 17.0304C14.7551 17.1104 14.6751 17.1771 14.5817 17.2348C14.5595 17.0125 14.4573 16.8214 14.2795 16.6571C14.2307 16.6125 14.1907 16.5637 14.1551 16.5058C14.1205 16.4488 14.0787 16.3965 14.0307 16.3503C14.0307 16.3059 14.0174 16.2837 13.9995 16.2748C13.9835 16.2684 13.9671 16.2624 13.9507 16.2569C13.9244 16.1548 13.8855 16.0563 13.8351 15.9636C13.6707 15.6703 13.5417 15.3992 13.4351 15.1592L14.5195 13.3368L14.5995 13.2568L16.5507 12.0301L16.6175 11.999H16.6219ZM7.39034 12.0034C7.39479 12.0124 7.40368 12.0124 7.40812 12.0079L9.37711 13.2435C9.386 13.2613 9.39932 13.2701 9.41711 13.2791L10.546 15.128L10.4971 15.2836C10.4826 15.3359 10.4568 15.3844 10.4215 15.4258C10.377 15.4764 10.3463 15.5376 10.3327 15.6036C10.315 15.6792 10.2838 15.7459 10.2394 15.8081C10.2082 15.8524 10.186 15.9014 10.1727 15.9548C10.1494 16.0368 10.0993 16.1088 10.0305 16.1592C10.0191 16.1696 10.0054 16.1773 9.99047 16.1814C9.98238 16.1823 9.97471 16.1854 9.96828 16.1904C9.95936 16.1992 9.95936 16.2125 9.96828 16.2215C9.98155 16.2348 9.99047 16.2526 9.99047 16.2748C9.96828 16.3192 9.97709 16.3503 10.0171 16.3636C9.83935 16.4926 9.71489 16.617 9.63933 16.7415C9.55045 16.8748 9.51045 16.9815 9.39488 17.0615L9.29265 17.146C9.17709 17.0304 9.07042 16.9103 8.95931 16.7815C8.38958 16.1114 7.81769 15.4432 7.24366 14.7769C7.22144 14.7458 7.20365 14.7058 7.17699 14.6791L7.16365 14.6436L6.03027 13.1413L6.05694 13.1057C6.43943 12.7876 6.82765 12.4764 7.22144 12.1724C7.28812 12.119 7.337 12.0656 7.37256 12.0124C7.377 12.0034 7.38145 12.0034 7.39034 12.0034Z" fill="#55E7E6"/>
<path d="M19.7505 12.8838C19.7639 12.986 19.795 13.0838 19.795 13.186C19.795 13.3194 19.8483 13.4304 19.8394 13.5549C19.8394 13.6438 19.8483 13.7371 19.875 13.8261C19.8928 13.8794 19.875 13.9327 19.8884 13.9816C19.9105 14.1149 19.9283 14.2394 19.9328 14.3416C19.9416 14.4395 19.9772 14.5728 19.9595 14.6972C19.9328 14.6839 19.915 14.6794 19.9061 14.6928L19.0927 13.7283C19.087 13.7217 19.0825 13.7142 19.0794 13.706C19.0772 13.6998 19.0742 13.6938 19.0705 13.6883L19.7505 12.8883V12.8838ZM4.24759 12.8971L4.92763 13.6972L4.08315 14.6928C4.07426 14.6883 4.06092 14.6928 4.04315 14.7195C4.02728 14.6208 4.02728 14.5202 4.04315 14.4216L4.07425 14.2261C4.1187 13.7905 4.18093 13.346 4.24759 12.8927V12.8971Z" fill="#00413B"/>
<path d="M19.0659 13.6886L19.0792 13.7064L19.0925 13.7287L19.906 14.6932C19.8972 14.7154 19.8659 14.7243 19.8081 14.7243L18.3859 14.7065C17.968 14.7065 17.4436 14.6709 16.9769 14.6754L16.8703 14.6709C16.8569 14.6709 16.8524 14.6754 16.8481 14.6887C16.8436 14.8221 16.8481 14.9554 16.8569 15.0842L16.8836 15.3821C16.9236 15.9643 16.9725 16.551 17.0259 17.1332V17.2577L17.0214 17.3822L16.6658 17.471C15.522 17.7463 14.3797 18.0279 13.239 18.3155L13.1768 18.311L14.5812 17.2355C14.6702 17.1777 14.7546 17.111 14.8213 17.031L16.7324 14.791C16.8125 14.702 16.8614 14.582 16.9414 14.4798L17.968 13.142C17.9859 13.1331 18.0125 13.1331 18.0348 13.1463C18.3693 13.3331 18.7072 13.5139 19.0482 13.6886H19.0704H19.0659ZM6.02976 13.142L7.16314 14.6442L7.0387 14.6754C6.07866 14.702 5.1186 14.7198 4.15856 14.7331C4.09634 14.7331 4.06966 14.7198 4.08744 14.6887L4.93193 13.702C5.27555 13.5237 5.61635 13.3398 5.95419 13.1508C5.97642 13.1375 6.00753 13.142 6.02976 13.142Z" fill="#11AFAA"/>
<path d="M10.577 13.2749L11.1681 14.075V14.6483C11.1678 14.6511 11.1668 14.6537 11.1653 14.6561C11.1638 14.6584 11.1617 14.6603 11.1592 14.6617C11.1565 14.6633 11.1536 14.6641 11.1504 14.6641C11.1473 14.6641 11.1442 14.6633 11.1415 14.6617L10.6081 14.315C10.6046 14.315 10.6012 14.3136 10.5987 14.3111C10.5962 14.3086 10.5948 14.3052 10.5948 14.3017L10.5459 13.2883C10.5459 13.2835 10.5478 13.2791 10.5511 13.2757C10.5544 13.2723 10.559 13.2705 10.5637 13.2705L10.5725 13.2749H10.577ZM13.3816 14.3195L12.8482 14.6573H12.8349C12.8324 14.6559 12.8304 14.6539 12.8288 14.6517C12.8272 14.6493 12.8264 14.6467 12.826 14.6439V14.0661L13.4172 13.2749L13.426 13.2705H13.4394C13.4424 13.2722 13.445 13.2749 13.4465 13.2781C13.448 13.2813 13.4487 13.2848 13.4483 13.2883L13.3905 14.3105V14.315L13.3816 14.3195Z" fill="#022825"/>
<path d="M7.16373 14.6436L7.17708 14.6792C7.15672 14.7301 7.14616 14.7844 7.14596 14.8392V14.9636C7.08464 15.7679 7.02686 16.5724 6.97261 17.3771C6.93692 17.3684 6.90256 17.3548 6.87039 17.3372C6.55926 17.1637 6.23924 16.9949 5.91035 16.826C5.86589 16.7993 5.78144 16.7104 5.74589 16.6482L5.46143 16.2259L7.10596 14.777C7.11524 14.77 7.12168 14.7598 7.12413 14.7484C7.12658 14.7369 7.12485 14.725 7.11928 14.7148C7.10151 14.6792 7.07484 14.6703 7.03928 14.6703L7.16373 14.6436ZM16.9775 14.6748L16.9065 14.6836C16.8931 14.6881 16.8842 14.697 16.8842 14.7103C16.8842 14.7459 16.8887 14.777 16.9153 14.7992C17.0487 14.9014 17.1599 15.0304 17.2887 15.1369C17.5554 15.3592 17.8175 15.5859 18.0799 15.8259L18.5243 16.2259C18.4487 16.3548 18.3554 16.5016 18.2399 16.6615C18.1909 16.7326 18.1376 16.7816 18.0843 16.8127C17.7331 17.0082 17.382 17.1993 17.022 17.3816V17.2571C17.0309 17.2127 17.0309 17.1682 17.022 17.1326C16.9482 16.3192 16.8919 15.5041 16.8531 14.6881C16.8531 14.6748 16.8575 14.6703 16.8709 14.6703L16.9775 14.6748Z" fill="#018278"/>
<path d="M7.03902 14.6746C7.07457 14.6657 7.10124 14.679 7.11902 14.7146C7.12459 14.7248 7.12631 14.7368 7.12387 14.7482C7.12142 14.7596 7.11498 14.7697 7.10569 14.7767L5.46116 16.2257L5.08336 15.8302C4.74757 15.4948 4.41421 15.157 4.08332 14.8167C4.05221 14.7812 4.03887 14.7502 4.04332 14.7191C4.0611 14.6968 4.07443 14.688 4.08776 14.6924C4.06999 14.7191 4.09666 14.7324 4.15888 14.7324C5.11893 14.7191 6.07898 14.7012 7.03902 14.6746Z" fill="#035653"/>
<path d="M7.17712 14.6797C7.20378 14.7064 7.22156 14.7464 7.24378 14.7775C7.82158 15.4442 8.39051 16.1109 8.95942 16.7821C9.06609 16.9109 9.17721 17.0309 9.28832 17.1465L10.7995 18.3109L6.97266 17.3776L6.9771 17.1865C7.03007 16.404 7.08636 15.6217 7.14601 14.8397C7.14601 14.782 7.1549 14.7286 7.17712 14.6797Z" fill="#11AFAA"/>
<path d="M16.9773 14.6752C17.4439 14.6707 17.9685 14.7018 18.3818 14.7063L19.8042 14.7242C19.8663 14.7242 19.8974 14.7152 19.9063 14.693C19.9152 14.6796 19.933 14.6841 19.9597 14.6974C19.9597 14.7418 19.9463 14.7863 19.9018 14.8262C19.4383 15.2888 18.979 15.7556 18.5241 16.2264L18.0796 15.8264C17.8128 15.5863 17.5506 15.3597 17.2884 15.1374C17.1551 15.0308 17.0484 14.9019 16.915 14.7996C16.8884 14.7774 16.8794 14.7418 16.8839 14.7107C16.8839 14.6974 16.8928 14.6886 16.9062 14.6841L16.9728 14.6752H16.9773Z" fill="#035653"/>
<path d="M13.4394 15.1555C13.5416 15.4 13.675 15.6711 13.8394 15.9645C13.8838 16.0445 13.9194 16.1423 13.9506 16.2578H13.8438C13.4038 16.2045 13.1327 16.1689 13.0172 16.1689C12.7949 16.1512 12.555 16.1334 12.3016 16.0979C12.1366 16.0747 11.9694 16.0718 11.8038 16.089C11.5726 16.1156 11.297 16.1423 10.9682 16.1689C10.7948 16.1823 10.4704 16.2179 9.99031 16.2756C9.99083 16.2655 9.98917 16.2556 9.98523 16.2464C9.98139 16.2371 9.97558 16.229 9.96812 16.2223C9.9592 16.2134 9.9592 16.2 9.96812 16.1912C9.97454 16.1863 9.98222 16.1831 9.99031 16.1823L10.0304 16.1601C10.1059 16.0979 10.1548 16.0312 10.1725 15.9556C10.1859 15.9023 10.2081 15.8533 10.2392 15.809C10.2837 15.7467 10.3148 15.6755 10.3281 15.6044C10.3459 15.5379 10.3726 15.4756 10.417 15.4267C10.4526 15.3911 10.4792 15.3378 10.497 15.2845L10.5414 15.1289C10.5814 15.1645 10.6303 15.1823 10.697 15.1778C10.8882 15.1778 11.0793 15.16 11.2704 15.1467C11.5726 15.1155 11.8748 15.1023 12.1771 15.1111C12.226 15.1111 12.4305 15.1245 12.7949 15.1555C13.0172 15.1733 13.2305 15.1733 13.4394 15.1555Z" fill="#21DAD5"/>
<path d="M13.9507 16.257L13.9951 16.2748C14.0175 16.2838 14.0307 16.3104 14.0307 16.3503C13.3729 16.4393 12.724 16.5103 12.0885 16.577C12.0218 16.5859 11.9551 16.5859 11.8929 16.577L10.0172 16.3637C9.97283 16.3503 9.96838 16.3192 9.99057 16.2748C10.4706 16.217 10.795 16.1859 10.9684 16.1681C11.2973 16.1414 11.5728 16.1148 11.804 16.0882C11.9372 16.0703 12.1017 16.0747 12.3018 16.097C12.5551 16.1325 12.7907 16.1503 13.0174 16.1636L13.844 16.257H13.9507Z" fill="#022825"/>
<path d="M14.0305 16.3555C14.075 16.3911 14.1149 16.4444 14.155 16.5066C14.1905 16.5645 14.2306 16.6133 14.2794 16.6579C14.4572 16.8222 14.5594 17.0133 14.5816 17.2356L13.1772 18.3111C12.8305 18.4134 12.4749 18.5289 12.1194 18.6491C12.0473 18.6734 11.9692 18.6734 11.8972 18.6491C11.5193 18.5201 11.1549 18.409 10.7992 18.3111L9.28809 17.1467L9.39476 17.0623C9.51033 16.9823 9.55477 16.8799 9.63922 16.7423C9.71478 16.6178 9.84368 16.4934 10.017 16.3644L11.8927 16.5778C11.9593 16.5867 12.026 16.5867 12.0883 16.5778C12.7238 16.5111 13.3727 16.4355 14.0305 16.3555Z" fill="#81E9F4"/>
</g>
<defs>
<clipPath id="clip0_328_53669">
<rect width="24" height="24" fill="white"/>
</clipPath>
</defs>
</svg>
