<svg width="24" height="24" viewBox="0 0 24 24" fill="none" xmlns="http://www.w3.org/2000/svg">
<g clip-path="url(#clip0_328_34094)">
<path d="M24 0H0V24H24V0Z" fill="#FABB47"/>
<path fill-rule="evenodd" clip-rule="evenodd" d="M13.9079 4.22899C13.438 5.77799 14.0444 6.88399 14.4624 7.27898C15.229 6.69948 15.566 5.66449 15.6874 4.89899C18.249 6.23249 20 8.91348 20 12.003C20 13.753 19.439 15.3709 18.4865 16.6879C18.5014 16.4685 18.5075 16.2395 18.5055 16.0005C18.5076 15.9908 18.5086 15.9809 18.5084 15.971V14.8159C18.5064 14.783 18.4918 14.7522 18.4679 14.7296C18.4439 14.7071 18.4122 14.6945 18.3791 14.6945C18.3462 14.6945 18.3146 14.7071 18.2905 14.7296C18.2665 14.7522 18.252 14.783 18.25 14.8159V15.6085C17.231 15.771 15.314 16.8024 14.7125 19.5345C14.441 19.6325 14.1625 19.7159 13.8785 19.7844C13.1239 17.036 11.225 16.2734 10.2585 16.247V15.26C10.2564 15.227 10.2419 15.1962 10.2179 15.1736C10.1938 15.1511 10.1622 15.1385 10.1292 15.1385C10.0963 15.1385 10.0646 15.1511 10.0406 15.1736C10.0165 15.1962 10.002 15.227 9.99995 15.26V16.3705L9.99493 16.3734L9.99995 16.42C10.0005 16.4279 10.0015 16.4355 10.003 16.443C10.2315 18.268 10.9094 19.3674 11.681 20C7.41098 19.8325 4 16.3165 4 12.003C4 7.58298 7.58148 4 11.9999 4C12.6575 4 13.2965 4.0795 13.9079 4.22899ZM13.733 10.413C12.9095 10.059 11.503 8.70449 12.4295 6.1105V5.38099C12.4295 5.34664 12.443 5.31371 12.4674 5.28942C12.4917 5.26514 12.5246 5.25149 12.559 5.25149C12.5934 5.25149 12.6262 5.26514 12.6505 5.28942C12.6749 5.31371 12.6886 5.34664 12.6886 5.38099V6.08849C13.4235 6.5345 14.6184 7.99049 13.733 10.413ZM16.724 6.53799C16.8815 9.32298 15.13 10.221 14.234 10.3219C14.089 7.78298 15.6095 6.72798 16.45 6.49349V5.74849C16.4489 5.73084 16.4514 5.71315 16.4574 5.69651C16.4634 5.67988 16.4727 5.66466 16.4849 5.65176C16.497 5.63888 16.5116 5.62862 16.5278 5.62159C16.544 5.61457 16.5615 5.61095 16.5792 5.61095C16.5969 5.61095 16.6143 5.61457 16.6306 5.62159C16.6469 5.62862 16.6614 5.63888 16.6736 5.65176C16.6856 5.66466 16.695 5.67988 16.701 5.69651C16.707 5.71315 16.7095 5.73084 16.7085 5.74849V6.50599C16.7086 6.51505 16.7078 6.5241 16.7059 6.53299L16.724 6.53799ZM11.5399 9.59298V8.80498C11.538 8.7721 11.5234 8.74122 11.4994 8.71865C11.4754 8.69609 11.4437 8.68352 11.4106 8.68352C11.3778 8.68352 11.3461 8.69609 11.322 8.71865C11.298 8.74122 11.2835 8.7721 11.2815 8.80498V9.81854C11.2814 9.8218 11.2814 9.82518 11.2815 9.82845C11.252 12.7599 13.084 13.5305 14.0214 13.546C14.0214 10.7574 12.3994 9.75903 11.5399 9.59298ZM14.2714 13.4765C15.2265 13.461 17.1084 12.6614 17.0075 9.59398C17.0101 9.58368 17.0114 9.5731 17.0114 9.56247V8.68898C17.0114 8.65463 16.9978 8.6217 16.9735 8.59741C16.9493 8.57312 16.9162 8.55948 16.882 8.55948C16.8475 8.55948 16.8146 8.57312 16.7904 8.59741C16.7662 8.6217 16.7525 8.65463 16.7525 8.68898V9.52398C15.8924 9.6895 14.2714 10.6879 14.2714 13.4765ZM11.0064 12.6955V11.891C11.0064 11.8567 10.9929 11.8238 10.9686 11.7995C10.9444 11.7754 10.9114 11.7618 10.8773 11.7618C10.843 11.7618 10.8101 11.7754 10.7858 11.7995C10.7615 11.8238 10.748 11.8567 10.748 11.891V12.8414C10.748 12.8524 10.749 12.8635 10.752 12.8734C10.883 16.336 13.076 17.1075 14.165 17.0585C13.965 13.826 11.9955 12.808 11.0064 12.6955ZM14.35 17.0334C15.4435 17.047 17.621 16.1984 17.623 12.7014C17.6276 12.6879 17.6299 12.6737 17.6299 12.6594V11.6259C17.6279 11.593 17.6134 11.5622 17.5894 11.5396C17.5654 11.517 17.5337 11.5045 17.5006 11.5045C17.4678 11.5045 17.436 11.517 17.412 11.5396C17.3879 11.5622 17.3735 11.593 17.3715 11.6259V12.568C16.3894 12.708 14.444 13.787 14.35 17.0334Z" fill="white"/>
</g>
<defs>
<clipPath id="clip0_328_34094">
<rect width="24" height="24" fill="white"/>
</clipPath>
</defs>
</svg>
