<svg width="24" height="24" viewBox="0 0 24 24" fill="none" xmlns="http://www.w3.org/2000/svg">
<g clip-path="url(#clip0_328_32024)">
<path d="M24 0H0V24H24V0Z" fill="#2EB6EA"/>
<path d="M13.6878 20.9999C17.8468 20.2063 21.0002 16.3903 21.0002 12.0002C21.0002 7.60996 17.8468 3.95439 13.6878 3.16016V5.54397C14.5355 5.88596 15.3584 6.57219 16.097 7.85352C16.097 7.93059 14.6008 8.95481 13.8937 9.43411C13.0202 7.32254 11.6635 7.30117 11.0998 8.06052C10.2932 9.14945 11.7028 9.87069 13.3176 10.4736C15.1446 11.1536 16.5261 12.7622 16.5002 14.8125C16.475 16.8172 15.0434 17.8675 13.6878 18.3842V20.9999Z" fill="white"/>
<path d="M10.8748 3H3V12.1618C3.08099 16.6907 6.46997 20.4697 10.8748 20.9995V18.4515C9.34984 18.0886 7.86324 16.9433 7.69 14.5715L10.2042 13.8407C10.1885 14.6232 10.5255 16.1858 12.0009 16.1762C13.4763 16.1666 13.7968 15.1018 13.7727 14.5715C13.8289 14.2238 13.5533 13.3813 12.0009 12.7872C10.0609 12.0448 8.31267 10.6317 8.31267 8.7154C8.31267 6.64996 9.55289 5.86867 10.8748 5.47549V3Z" fill="white"/>
</g>
<defs>
<clipPath id="clip0_328_32024">
<rect width="24" height="24" fill="white"/>
</clipPath>
</defs>
</svg>
