<svg width="24" height="24" viewBox="0 0 24 24" fill="none" xmlns="http://www.w3.org/2000/svg">
<g clip-path="url(#clip0_328_53906)">
<path d="M24 0H0V24H24V0Z" fill="url(#paint0_linear_328_53906)"/>
<path d="M19.6238 10.8292L16.1009 5.90992C15.9758 5.73116 15.8093 5.58531 15.6155 5.48485C15.4218 5.3844 15.2066 5.33229 14.9884 5.33302C14.5431 5.33302 14.1382 5.54192 13.8755 5.90992L13.4915 6.44551L13.1088 5.90992C12.9837 5.73106 12.817 5.58516 12.6233 5.48471C12.4294 5.38424 12.2142 5.33219 11.9958 5.33302C11.5505 5.33302 11.1461 5.54192 10.8834 5.90992L10.5047 6.43796L10.1256 5.90992C10.0003 5.73129 9.83373 5.58555 9.64003 5.48511C9.44634 5.38466 9.23126 5.33249 9.01307 5.33302C8.5695 5.33302 8.16281 5.54192 7.90014 5.90992L4.37556 10.8292C4.13131 11.1707 4 11.5801 4 12C4 12.4198 4.13131 12.8291 4.37556 13.1707L7.90014 18.09C8.02562 18.2686 8.19237 18.4143 8.38618 18.5147C8.58002 18.6152 8.79521 18.6674 9.01351 18.6668C9.45886 18.6668 9.86378 18.458 10.126 18.09L12.0003 15.4712L12.3865 16.0122C12.3884 16.0139 12.3902 16.0179 12.3902 16.0179L13.8746 18.09C13.9999 18.2684 14.1663 18.4139 14.3598 18.5144C14.5534 18.6148 14.7682 18.6671 14.9862 18.6668C15.4316 18.6668 15.8365 18.458 16.0987 18.09L19.6214 13.1707C19.8673 12.8299 19.9997 12.4204 20 12.0002C20.0003 11.5801 19.8689 11.1704 19.6238 10.8292ZM11.4457 6.32862C11.5078 6.24048 11.5902 6.16863 11.6859 6.11911C11.7818 6.0696 11.8881 6.04388 11.9958 6.04416C12.2159 6.04416 12.4176 6.14772 12.547 6.32862L13.0608 7.04687L11.9998 8.52692L10.9349 7.03931L11.4457 6.32862ZM9.56376 17.6695C9.50155 17.7578 9.41897 17.8297 9.32302 17.8792C9.22708 17.9287 9.12059 17.9543 9.01262 17.9539C8.90481 17.9543 8.7985 17.9286 8.70272 17.879C8.60695 17.8295 8.5245 17.7576 8.46238 17.6695L4.93958 12.7502C4.7828 12.5311 4.6985 12.2685 4.6985 11.9991C4.6985 11.7296 4.7828 11.4671 4.93958 11.2479L8.46194 6.32862C8.52415 6.24036 8.60673 6.16843 8.70267 6.11891C8.79862 6.06939 8.9051 6.04374 9.01307 6.04416C9.23264 6.04416 9.43442 6.14772 9.56376 6.32862L10.074 7.04109L7.36056 10.8292C7.11614 11.1707 6.98486 11.5803 6.98518 12.0002C6.98551 12.4203 7.11741 12.8295 7.36234 13.1707L7.56946 13.4551L9.3882 16.0103C9.61931 16.3347 9.96285 16.5348 10.3455 16.5779L9.56376 17.6695ZM11.0514 15.5939C10.9202 15.7747 10.7207 15.8783 10.5006 15.8783C10.3928 15.8787 10.2864 15.8531 10.1906 15.8035C10.0947 15.754 10.0122 15.682 9.94998 15.5939L8.0797 12.9653H8.07748L7.92058 12.7484C7.76381 12.5293 7.6795 12.2667 7.6795 11.9973C7.6795 11.7279 7.76381 11.4653 7.92058 11.2462L10.503 7.64067L11.5674 9.12828L10.3509 10.8271C10.1065 11.1687 9.97508 11.5781 9.97508 11.9983C9.97508 12.4183 10.1065 12.8278 10.3509 13.1693L11.5674 14.8676L11.0514 15.5939ZM12.0003 9.73097L13.087 11.2471C13.2438 11.4662 13.3282 11.7289 13.3282 11.9984C13.3282 12.2679 13.2438 12.5307 13.087 12.7498L11.9998 14.2667L10.9131 12.7511C10.7562 12.5319 10.6718 12.2691 10.6718 11.9995C10.6718 11.7299 10.7562 11.4671 10.9131 11.2479L11.9998 9.73231L12.0003 9.73097ZM13.6488 13.1685C13.8932 12.8268 14.0246 12.4175 14.0246 11.9975C14.0246 11.5776 13.8932 11.1682 13.6488 10.8266L12.4327 9.12784L13.4937 7.64778L16.0702 11.2471C16.2273 11.4667 16.3115 11.7299 16.3112 11.9999C16.3108 12.2699 16.2258 12.5328 16.068 12.752L15.656 13.3365L14.0515 15.5912C13.9893 15.6795 13.9069 15.7513 13.811 15.8008C13.7151 15.8503 13.6087 15.8759 13.5008 15.8757C13.283 15.8757 13.0853 15.7743 12.9541 15.597L12.431 14.8672L13.6488 13.1685ZM19.0624 12.7498L15.5395 17.6691C15.4773 17.7573 15.3947 17.8293 15.2988 17.8787C15.2029 17.9283 15.0964 17.9539 14.9884 17.9535C14.8806 17.9538 14.7742 17.9282 14.6786 17.8786C14.5827 17.8291 14.5002 17.7572 14.4382 17.6691L13.6559 16.5775C13.8468 16.5558 14.0309 16.4939 14.196 16.3956C14.3611 16.2975 14.5035 16.1655 14.6138 16.0081L15.9924 14.0715L15.9943 14.0735L16.2195 13.7534L16.484 13.3814L16.4822 13.3796L16.6321 13.1662C16.8763 12.8247 17.0076 12.4154 17.0076 11.9955C17.0076 11.5756 16.8763 11.1663 16.6321 10.8248L13.9244 7.04687L14.4382 6.32817C14.5004 6.23998 14.5828 6.16808 14.6787 6.11856C14.7746 6.06904 14.881 6.04336 14.9888 6.04371C15.2089 6.04371 15.4102 6.14728 15.5401 6.32817L19.0624 11.2471C19.2193 11.4662 19.3036 11.7289 19.3036 11.9984C19.3036 12.2679 19.2193 12.5307 19.0624 12.7498Z" fill="white"/>
<path d="M10.4987 16.5874C10.4454 16.5874 10.3933 16.5838 10.34 16.5786L9.58398 17.6417L10.1551 18.0527L11.5374 16.1162C11.4084 16.265 11.2488 16.3841 11.0696 16.4654C10.8903 16.5467 10.6955 16.5884 10.4987 16.5874Z" fill="white"/>
<path d="M13.4964 16.587C13.5498 16.587 13.6019 16.5831 13.6556 16.5777L14.4112 17.6413L13.8404 18.0524L12.4653 16.1182C12.593 16.2663 12.7513 16.3851 12.9293 16.4661C13.1074 16.5472 13.3009 16.5882 13.4964 16.587Z" fill="white"/>
<path d="M11.5635 14.8643L12.0035 15.4768L11.3346 16.3932L10.8945 15.7976L11.5635 14.8643Z" fill="white"/>
<path d="M10.0717 7.03906L10.506 7.64619L8.93878 9.84095L8.39209 9.3996L10.0717 7.03906Z" fill="white"/>
<path d="M11.5709 9.12891L11.9975 9.73561L10.9998 11.1445L10.4526 10.701L11.5709 9.12891Z" fill="white"/>
<path d="M13.0607 7.04688L13.4913 7.65001L12.4326 9.12786L12.0015 8.52516L13.0607 7.04688Z" fill="white"/>
</g>
<defs>
<linearGradient id="paint0_linear_328_53906" x1="6.95298" y1="17.1483" x2="17.2486" y2="7.05587" gradientUnits="userSpaceOnUse">
<stop stop-color="#FF8506"/>
<stop offset="0.581" stop-color="#FD3947"/>
<stop offset="1" stop-color="#FB0078"/>
</linearGradient>
<clipPath id="clip0_328_53906">
<rect width="24" height="24" fill="white"/>
</clipPath>
</defs>
</svg>
