<svg width="24" height="24" viewBox="0 0 24 24" fill="none" xmlns="http://www.w3.org/2000/svg">
<g clip-path="url(#clip0_328_53979)">
<path d="M24 0H0V24H24V0Z" fill="#375980"/>
<path fill-rule="evenodd" clip-rule="evenodd" d="M7.49999 17.6253C7.49999 16.577 6.78294 15.696 5.8125 15.4462V6.06043L11.3249 12.0117C11.2595 12.0753 11.1935 12.1393 11.127 12.2036C9.9228 13.3694 8.57169 14.6775 8.62498 16.5005C8.66435 17.811 9.47995 19.9035 11.9999 19.8753C14.5199 19.8473 15.3749 17.9573 15.3749 16.5005C15.3749 14.4585 14.0644 13.2378 12.6862 12.0117C13.0866 11.5822 13.8405 10.8534 14.3439 10.3667C14.6183 10.1013 14.8185 9.90796 14.8462 9.87421L14.8497 9.86971C14.9548 9.74162 15.2644 9.36343 14.9531 8.97978C14.7 8.67042 14.3174 8.78854 14.1431 8.87854L11.9999 10.9036C10.0875 8.89542 6.27936 4.82855 5.98686 4.49104C5.70561 4.1648 5.46374 4.11418 5.37937 4.12543C4.87311 4.14791 4.69312 4.56418 4.68749 4.76666V15.4462C3.71705 15.696 3 16.577 3 17.6253C3 18.868 4.00735 19.8753 5.24999 19.8753C6.49263 19.8753 7.49999 18.868 7.49999 17.6253ZM18.1874 8.55453V19.2453C18.2044 19.4647 18.3336 19.8978 18.7669 19.8753C19.1943 19.853 19.3124 19.4478 19.3124 19.2453V8.55453C20.2829 8.30476 21 7.42384 21 6.37543C21 5.13277 19.9927 4.12543 18.75 4.12543C17.5073 4.12543 16.5 5.13277 16.5 6.37543C16.5 7.42384 17.2171 8.30476 18.1874 8.55453ZM19.5935 6.37512C19.5935 6.84111 19.2157 7.21886 18.7498 7.21886C18.2838 7.21886 17.906 6.84111 17.906 6.37512C17.906 5.90914 18.2838 5.53137 18.7498 5.53137C19.2157 5.53137 19.5935 5.90914 19.5935 6.37512ZM9.7498 16.3595C9.7498 15.1445 11.2123 13.8001 11.9998 13.1251C12.7479 13.8114 14.2498 15.2907 14.2498 16.3595C14.2498 17.7714 13.4792 18.6939 11.9829 18.75C10.4923 18.8064 9.7498 17.5688 9.7498 16.3595ZM5.2498 18.4688C5.7158 18.4688 6.09355 18.0911 6.09355 17.6251C6.09355 17.1591 5.7158 16.7813 5.2498 16.7813C4.78382 16.7813 4.40606 17.1591 4.40606 17.6251C4.40606 18.0911 4.78382 18.4688 5.2498 18.4688Z" fill="white"/>
</g>
<defs>
<clipPath id="clip0_328_53979">
<rect width="24" height="24" fill="white"/>
</clipPath>
</defs>
</svg>
