<svg width="24" height="24" viewBox="0 0 24 24" fill="none" xmlns="http://www.w3.org/2000/svg">
<g clip-path="url(#clip0_328_38543)">
<path d="M24 0H0V24H24V0Z" fill="#762FED"/>
<path d="M11.8648 3.01501V4.16497L7.36497 6.79487V11.8196L6.5 12.4797V6.05491L11.8648 3.01501ZM12.0747 3V4.15996L17.4997 7.29986V6.0499L12.0747 3Z" fill="white"/>
<path d="M17.3494 7.45049L11.9697 4.35059L7.69971 6.85051L8.72967 7.29049L11.9246 5.37556L15.3245 7.37048L10.9497 10.0255L15.1495 12.4453L16.1595 11.9553L12.7545 10.0854L17.3494 7.45549V7.45049Z" fill="white"/>
<path d="M14.2946 9.47082L13.1947 10.0808L16.4945 11.8957V17.0156L17.4996 17.5504V11.3507L14.2946 9.46582V9.47082ZM17.4495 17.7605L16.3995 17.2004L11.9896 19.8254L8.42481 17.7506L12.9246 15.1756L7.47483 12.0007L6.60986 12.6607L10.9646 15.1506L6.65987 17.8256L11.9946 21.0004L17.4495 17.7605Z" fill="white"/>
<path d="M6.5 17.6748L10.5499 15.1599L9.57988 14.63L6.5 16.4449V17.6748ZM13.0097 14.9849V13.8198L8.62492 11.39V7.47013L7.57496 7.02014V11.8099L13.0097 14.9849ZM9.89979 17.1948L8.84992 17.7547L11.8798 19.5197V18.2699L9.89979 17.1948ZM12.0899 18.2798V19.5148L16.2897 17.0149V12.1249L15.2597 12.6249V16.4748L12.0849 18.2748L12.0899 18.2798ZM10.8848 9.815L14.9197 7.36513L13.9946 6.78516L10.8848 8.60508V9.815Z" fill="white"/>
</g>
<defs>
<clipPath id="clip0_328_38543">
<rect width="24" height="24" fill="white"/>
</clipPath>
</defs>
</svg>
