<svg width="24" height="24" viewBox="0 0 24 24" fill="none" xmlns="http://www.w3.org/2000/svg">
<g clip-path="url(#clip0_328_38565)">
<path d="M24 0H0V24H24V0Z" fill="url(#paint0_linear_328_38565)"/>
<path fill-rule="evenodd" clip-rule="evenodd" d="M12.9466 17.9004C12.3382 18.4805 11.5269 18.799 10.6863 18.7874C9.84583 18.7759 9.04334 18.4355 8.45111 17.8388L3.894 13.1918C3.60496 12.8948 3.37725 12.5438 3.22391 12.1587C3.07056 11.7737 2.99458 11.3622 3.0003 10.9478C3.00602 10.5335 3.09332 10.1242 3.25725 9.74357C3.42115 9.36301 3.65846 9.01836 3.95559 8.72945C4.56415 8.14797 5.37666 7.82862 6.2183 7.84014C7.05993 7.85165 7.86341 8.19311 8.45585 8.79102L13.0129 13.4381C13.3054 13.7332 13.5362 14.0838 13.6918 14.469C13.8472 14.8543 13.9244 15.2667 13.9186 15.6823C13.9128 16.0978 13.8244 16.5079 13.6583 16.8888C13.4922 17.2696 13.2519 17.6137 12.9514 17.9004H12.9466ZM5.84095 11.5244C6.09223 11.5244 6.33321 11.4245 6.51089 11.2468C6.68856 11.0692 6.78837 10.8282 6.78837 10.5769C6.78837 10.3256 6.68856 10.0847 6.51089 9.90696C6.33321 9.72931 6.09223 9.6295 5.84095 9.6295C5.58968 9.6295 5.34871 9.72931 5.17102 9.90696C4.99335 10.0847 4.89354 10.3256 4.89354 10.5769C4.89354 10.8282 4.99335 11.0692 5.17102 11.2468C5.34871 11.4245 5.58968 11.5244 5.84095 11.5244ZM12.7335 15.6409C12.7335 16.5836 11.9613 17.3462 11.0138 17.3462C10.0664 17.3462 9.29431 16.5836 9.29431 15.6409C9.29431 14.6983 10.0664 13.9355 11.0138 13.9355C11.9613 13.9355 12.7335 14.6983 12.7335 15.6409Z" fill="white"/>
<path fill-rule="evenodd" clip-rule="evenodd" d="M8.79639 18.1535C8.41719 17.8234 8.1072 17.4214 7.88435 16.9708C7.66149 16.52 7.53018 16.0297 7.49802 15.5279C7.46587 15.0262 7.53349 14.523 7.697 14.0476C7.86049 13.5722 8.11662 13.1339 8.45058 12.758L14.2629 6.18763C14.9419 5.4278 15.8928 4.96599 16.9097 4.90215C17.9266 4.83831 18.9279 5.1776 19.6965 5.84656C20.0753 6.17702 20.3849 6.5793 20.6073 7.03015C20.8298 7.48101 20.9607 7.97147 20.9924 8.4732C21.0241 8.97492 20.9561 9.47798 20.7922 9.95327C20.6282 10.4286 20.3718 10.8666 20.0375 11.2421L14.2299 17.8125C13.5509 18.5723 12.6 19.0342 11.5831 19.0979C10.5662 19.1618 9.565 18.8225 8.79639 18.1535ZM11.0133 17.3482C11.9608 17.3482 12.733 16.5856 12.733 15.6429C12.733 14.7002 11.9608 13.9376 11.0133 13.9376C10.0659 13.9376 9.29378 14.7002 9.29378 15.6429C9.29378 16.5856 10.0659 17.3482 11.0133 17.3482ZM19.1043 8.91619C19.1043 9.48152 18.8797 10.0238 18.48 10.4236C18.0802 10.8233 17.538 11.0478 16.9727 11.0478C16.4073 11.0478 15.865 10.8233 15.4654 10.4236C15.0655 10.0238 14.841 9.48152 14.841 8.91619C14.841 8.35084 15.0655 7.80863 15.4654 7.40886C15.865 7.00909 16.4073 6.7845 16.9727 6.7845C17.538 6.7845 18.0802 7.00909 18.48 7.40886C18.8797 7.80863 19.1043 8.35084 19.1043 8.91619Z" fill="white"/>
</g>
<defs>
<linearGradient id="paint0_linear_328_38565" x1="18.0182" y1="7.25984" x2="9.42618" y2="16.5162" gradientUnits="userSpaceOnUse">
<stop stop-color="#0CB5AD"/>
<stop offset="1" stop-color="#9CCE7E"/>
</linearGradient>
<clipPath id="clip0_328_38565">
<rect width="24" height="24" fill="white"/>
</clipPath>
</defs>
</svg>
