<svg width="24" height="24" viewBox="0 0 24 24" fill="none" xmlns="http://www.w3.org/2000/svg">
<g clip-path="url(#clip0_328_34297)">
<path d="M24 0H0V24H24V0Z" fill="url(#paint0_linear_328_34297)"/>
<path fill-rule="evenodd" clip-rule="evenodd" d="M20.4375 3L11.9999 5.25L3.5625 3C3.5625 4.90124 3 6.93749 3 6.93749L6.58873 16.7699L11.9999 20.9999L17.4112 16.7699L21 6.93749C20.9436 6.93749 20.4375 4.90124 20.4375 3ZM11.9999 6.93749L5.24998 5.25C5.24998 6.90936 4.87875 7.3706 4.87875 7.3706L8.06248 15.6563L9.74994 17.0625L6.93749 7.49999L10.3125 8.62494L11.4374 17.3438L11.9999 18.7499L12.5625 17.3438L13.6874 8.62494L17.0625 7.49999L14.25 17.0625L15.9374 15.6563L19.1211 7.3706C19.1211 7.3706 18.75 6.66186 18.75 5.25L11.9999 6.93749Z" fill="white"/>
</g>
<defs>
<linearGradient id="paint0_linear_328_34297" x1="11.9999" y1="4.5" x2="11.9999" y2="19.4999" gradientUnits="userSpaceOnUse">
<stop stop-color="#F40315"/>
<stop offset="1" stop-color="#B8091C"/>
</linearGradient>
<clipPath id="clip0_328_34297">
<rect width="24" height="24" fill="white"/>
</clipPath>
</defs>
</svg>
