<svg width="24" height="24" viewBox="0 0 24 24" fill="none" xmlns="http://www.w3.org/2000/svg">
<g clip-path="url(#clip0_328_29647)">
<path d="M24 0H0V24H24V0Z" fill="white"/>
<path d="M14.9335 4.12686H8.2272C7.91615 4.12686 7.65686 4.29561 7.56575 4.38054L6.64892 5.51728L11.692 9.92244L16.5623 5.51785C16.3386 5.25236 15.8441 4.6584 15.6563 4.40642C15.4684 4.15386 15.0962 4.11506 14.9335 4.12686ZM3.31349 9.35722L4.68759 7.86502V16.1963C4.17799 14.4848 3.13181 10.9304 3.0255 10.4028C2.91863 9.87642 3.17343 9.48662 3.31349 9.35722ZM19.7618 9.35722L18.5378 7.86502V16.1963C18.9917 14.4848 19.9242 10.9304 20.0187 10.4028C20.1138 9.87642 19.8866 9.48662 19.7618 9.35722ZM11.1756 19.7799L7.57586 18.0304V14.9442L10.6205 14.5808L13.6995 13.6077L15.6681 18.03C14.6079 18.5419 12.394 19.6075 12.0171 19.7791C11.6402 19.9513 11.2994 19.8518 11.1756 19.7799Z" fill="#4B7C4C"/>
<path d="M6.48507 5.25H5.21108C4.81005 5.25 4.69136 5.50029 4.68855 5.62518C4.69136 9.47522 4.69418 17.2739 4.68855 17.6677C4.68293 18.0614 4.99453 18.1822 5.14415 18.1867H8.2079C8.57576 18.1867 8.62243 17.8357 8.62583 17.6677V15.0407C9.81769 14.8035 10.4979 14.8963 11.2294 14.8963C11.8144 14.8963 11.7244 15.5651 11.6057 15.8992C11.4213 16.4543 10.987 17.5961 10.7278 17.7255C10.4034 17.8869 10.1316 18.1118 10.0168 18.4635C9.90151 18.8151 10.0478 19.3426 10.5709 19.5806C11.0939 19.8179 11.7206 19.5187 11.9297 19.0631C12.0973 18.6992 11.9629 18.3178 11.8747 18.1727C12.0388 17.7639 12.4455 16.8497 12.7611 16.4606C13.1548 15.9735 13.2628 15.8272 13.6565 15.6815C13.9715 15.5644 14.5575 16.0398 14.8113 16.2918V17.7255C14.8113 18.0095 15.0503 18.1559 15.1701 18.1867H18.1759C18.6332 18.1659 18.7457 17.8661 18.7447 17.7255V11.0828C19.5488 10.7324 21.1238 9.6058 20.9922 7.90934C20.8601 6.21238 19.4394 5.98458 18.7451 6.08301V5.70223C18.7086 5.40636 18.4504 5.27756 18.3256 5.25H17.0679C16.8868 5.25 16.6297 5.43956 16.524 5.53406L11.7521 9.75473C10.2981 8.5005 7.32314 5.91934 7.05766 5.62518C6.79161 5.33044 6.56494 5.25225 6.48507 5.25Z" fill="#1D6834"/>
<path d="M8.50635 13.743V12.1846L10.0772 13.5557L8.50635 13.743Z" fill="#4B7C4C"/>
<path d="M15.6671 10.9801L18.7261 7.68352C18.7296 7.43941 18.7342 7.05356 18.7358 6.68346C18.9028 6.52034 19.2814 6.55072 19.4496 6.58615C19.7989 6.68345 20.4986 7.11937 20.4986 8.08794C20.4986 9.29889 20.0036 9.90193 18.6239 10.6405C17.5208 11.2315 15.9375 12.3745 15.2839 12.8717C15.0741 13.018 14.6387 13.4595 14.5753 14.0602C14.4965 14.8111 15.9195 16.1498 15.9195 16.0963C15.9195 16.0435 16.2896 15.9771 16.518 16.0963C16.7469 16.2162 16.8487 16.4384 16.7469 16.7477C16.6444 17.057 16.235 17.1392 15.9201 16.9935C15.6671 16.8764 15.6456 16.5176 15.6671 16.3523C14.4318 15.2594 13.7282 15.161 13.5313 15.248C13.3462 15.2734 12.8608 15.5013 12.3991 16.2065C11.9368 16.9125 11.5295 17.8996 11.3837 18.3046C11.4682 18.3721 11.6145 18.5791 11.5255 18.8659C11.4373 19.1528 11.1712 19.2164 10.9495 19.2089C10.7285 19.2017 10.4524 19.0374 10.4524 18.6634C10.4524 18.2529 10.8422 18.1449 11.0413 18.1201C11.8676 16.9598 12.1021 15.7729 12.1167 15.3246C12.156 15.0153 11.931 14.4023 10.7195 14.419C9.50797 14.4359 8.46739 14.6228 8.09841 14.7139C8.09841 14.9141 7.90604 15.1036 7.63719 15.1036C7.26426 15.1036 7.07471 14.8246 7.07471 14.5822C7.07471 14.3403 7.24515 14.0602 7.63719 14.0602C7.88468 14.0602 8.04779 14.2171 8.09841 14.2886C8.32847 14.2841 9.09453 14.2217 10.3213 14.0602C11.5475 13.8988 11.8625 13.5725 11.8665 13.4297C11.9053 13.32 11.8843 12.9605 11.4962 12.3982C11.1082 11.8356 10.3432 11.1213 10.0091 10.8344C9.51019 11.1084 9.15979 10.7327 9.14517 10.4913C9.13166 10.2495 9.2346 9.88112 9.7329 9.90193C10.2319 9.92319 10.2887 10.4031 10.2548 10.6405C10.5621 11.1737 11.4968 12.2715 12.7832 12.3982C14.069 12.5242 15.2412 11.505 15.6671 10.9801Z" fill="#61A761"/>
<path d="M6.42444 5.8125H5.25V17.6244H8.06234V15.4094C7.97178 15.4571 7.76086 15.5499 7.5083 15.5329C7.27462 15.5145 7.05477 15.4149 6.88683 15.2514C6.71888 15.0879 6.6134 14.8708 6.58867 14.6377C6.5043 13.9975 7.10952 13.6128 7.43519 13.5818C7.6956 13.5571 7.95041 13.6392 8.06234 13.6837C8.05117 13.095 8.05117 12.5062 8.06234 11.9175C8.07809 11.2976 8.54831 11.4203 8.76485 11.5592L10.7302 13.2645C10.8382 13.3473 11.0974 13.4873 11.2757 13.3883C11.4541 13.2894 11.3501 13.017 11.2757 12.8934C10.8566 12.2072 10.2459 11.5142 9.97421 11.2763C9.58833 11.3753 9.36726 11.3776 9.00502 11.1571C8.73392 10.9918 8.37562 10.2695 8.87397 9.74981C9.37175 9.23062 9.93754 9.36566 10.3352 9.67211C10.6357 9.90391 10.7066 10.3352 10.6952 10.5491C11.3619 11.5879 12.0632 11.9461 13.0755 11.9181C13.8856 11.895 14.6488 11.3387 14.9289 11.0642L18.1868 7.53534V5.8125H17.0866C15.5189 7.18718 12.3196 9.9956 12.0637 10.2161C11.8067 10.4366 11.5378 10.3078 11.4354 10.2161L6.42444 5.8125ZM15.3744 13.3743C15.7034 12.9513 17.3741 11.8534 18.1868 11.3573V17.6244H15.3744V17.1007C15.5504 17.3504 15.8643 17.4849 15.9723 17.504H15.974C16.1734 17.5439 16.38 17.5273 16.5705 17.4562C16.7608 17.3849 16.9276 17.2618 17.0516 17.1007C17.3863 16.6856 17.1759 16.0827 16.8435 15.7845C16.577 15.5464 16.1518 15.5381 15.9717 15.564L15.3744 14.8722V13.3743Z" fill="white"/>
</g>
<defs>
<clipPath id="clip0_328_29647">
<rect width="24" height="24" fill="white"/>
</clipPath>
</defs>
</svg>
