<svg width="24" height="24" viewBox="0 0 24 24" fill="none" xmlns="http://www.w3.org/2000/svg">
<g clip-path="url(#clip0_328_54221)">
<path d="M24 0H0V24H24V0Z" fill="#5B0B0B"/>
<path d="M16.0367 11.9383C16.0457 12.2671 15.779 12.5427 15.4368 12.5516C15.0945 12.5606 14.8145 12.3027 14.8011 11.9739C14.7993 11.8931 14.8137 11.8129 14.8433 11.7377C14.8727 11.6627 14.9169 11.5941 14.9732 11.5362C15.0294 11.4783 15.0966 11.4321 15.1709 11.4005C15.2451 11.3687 15.3249 11.3521 15.4057 11.3516C15.7434 11.3471 16.0279 11.6049 16.0367 11.9383ZM8.5786 12.5783C8.91196 12.5783 9.18308 12.3072 9.18308 11.9783C9.18308 11.6449 8.9164 11.3783 8.5786 11.3783C8.24525 11.3783 7.97412 11.6449 7.97412 11.9783C7.97412 12.3072 8.24081 12.5739 8.5786 12.5739V12.5783Z" fill="white"/>
<path fill-rule="evenodd" clip-rule="evenodd" d="M16.0765 6.53306C16.0319 6.67085 15.943 6.71529 15.8098 6.6664C14.5298 6.22193 13.2407 6.15082 11.8984 6.15082C10.7428 6.15082 9.54279 6.1686 8.45829 6.5864C7.88492 6.80864 7.42712 5.33301 5.71592 5.33301C5.24479 5.34189 4.74699 5.43079 4.55142 5.7019C4.33807 5.9997 4.10695 6.28861 4.04029 6.66196C3.95138 7.20866 4.00918 7.77313 4.21807 8.34205C4.32918 8.6265 4.43586 8.91985 4.54253 9.22209C4.60475 9.39099 4.72031 9.51984 4.83588 9.65321C4.90255 9.72881 4.96922 9.80431 5.027 9.88438C5.06156 9.93457 5.07574 9.99597 5.06666 10.0562C5.05758 10.1165 5.02593 10.171 4.9781 10.2088C4.02695 10.9555 4.00029 12.4311 4.2314 13.5067C4.5692 15.0535 5.21812 16.258 6.65375 17.1247C7.74714 17.7825 8.98276 17.8936 10.2406 18.0136C10.2729 18.0171 10.3037 18.0295 10.3295 18.0491C10.7934 18.4507 11.3871 18.6702 12.0007 18.667C12.5162 18.6714 13.4097 18.6136 13.6808 18.0981C13.703 18.0491 13.7519 18.0136 13.8097 18.0092C14.863 17.8936 15.9965 17.8314 16.9521 17.3247C17.7391 16.929 18.4139 16.3418 18.9149 15.6173C19.4158 14.8927 19.7266 14.0539 19.8189 13.1779C19.883 12.6761 19.883 12.1683 19.8189 11.6666C19.7211 10.9688 19.081 10.5866 18.9343 10.0265C18.9298 10.0103 18.9287 9.99317 18.931 9.97627C18.9332 9.95946 18.9389 9.94328 18.9478 9.92876C19.5255 8.91985 20.1656 8.02647 19.9611 6.71529C19.8989 6.31527 19.5389 5.55968 19.0633 5.44412C18.4647 5.29667 17.8394 5.29667 17.241 5.44412C16.9811 5.53465 16.7432 5.67876 16.5425 5.86711C16.3419 6.05547 16.1831 6.28387 16.0765 6.53751V6.53306ZM18.0055 11.1999C17.9621 11.2306 17.9121 11.2507 17.8596 11.2583C17.8071 11.2659 17.7535 11.2613 17.7032 11.2444L16.8809 10.9821C16.8276 10.9688 16.7743 11.0266 16.7965 11.0799C16.9742 11.4711 17.1032 12.3822 16.7209 12.7689C16.3209 13.1689 15.9209 13.4179 15.4365 13.4357C15.1875 13.4445 14.9163 13.449 14.6186 13.2667C14.3963 13.1334 14.0718 12.6178 13.7519 12.88C13.737 12.8911 13.7246 12.905 13.7154 12.9211C13.7062 12.9371 13.7005 12.955 13.6985 12.9733L13.6319 13.4756C13.6274 13.5246 13.6452 13.5645 13.6852 13.6C13.9963 13.8357 14.0718 13.9557 14.0763 14.1512C14.0852 14.7823 12.9562 15.3468 12.494 15.6002C12.383 15.6624 12.3606 15.8224 12.4585 15.9113L12.8007 16.2224C13.2318 16.5958 13.8719 16.5335 14.3164 16.2179C14.5119 16.0803 14.6275 15.8624 14.7386 15.6535L14.8186 15.5068C14.8675 15.4179 14.9342 15.3647 15.0142 15.3335C15.1475 15.2891 15.2897 15.3602 15.3253 15.4935C15.4142 15.8224 15.3519 16.1247 15.1342 16.4002C14.9208 16.6669 14.6853 16.8447 14.4186 16.9425C14.3742 16.9602 14.343 16.9869 14.3207 17.0269C14.2999 17.0648 14.2936 17.1091 14.303 17.1514C14.3164 17.2091 14.3475 17.2403 14.4053 17.2536C15.0631 17.3603 16.3298 16.9691 16.9165 16.6091C18.8544 15.4091 20.3523 12.2089 18.3121 10.3466C17.8765 9.9466 17.3698 9.3332 17.0898 8.81762C16.8809 8.43538 16.921 7.81313 16.9565 7.38199C16.9876 7.00864 17.2854 6.68418 17.5211 6.4264L17.5521 6.39083C17.721 6.20861 18.161 6.14193 18.1832 6.5064C18.1921 6.64418 18.1699 6.77307 18.1122 6.90198C18.0854 6.95975 18.121 7.03086 18.1877 7.03975C18.4722 7.09754 19.1788 7.15088 19.2188 6.74641C19.2633 6.35972 18.7743 5.97303 18.3833 5.93748C17.481 5.85747 16.8587 6.32416 16.4587 7.06198L16.3298 7.28866C16.2142 7.47533 16.063 7.51534 15.8764 7.40866C14.8008 6.79085 13.1207 6.75085 11.894 6.76864C10.7117 6.78641 9.04498 6.8353 7.98272 7.42644C7.94581 7.44623 7.9053 7.45838 7.86361 7.46213C7.82191 7.4659 7.77989 7.46121 7.74004 7.44834C7.70021 7.43547 7.66337 7.4147 7.63175 7.38726C7.60013 7.35982 7.57437 7.32629 7.55602 7.28866C7.24489 6.59529 6.72931 6.00859 5.92483 5.92859C5.5456 5.89667 5.16898 6.01475 4.87588 6.25749C4.72477 6.37305 4.65365 6.52417 4.65809 6.70641C4.67586 7.15088 5.42702 7.09754 5.71592 7.03975C5.73009 7.03692 5.74346 7.03098 5.75505 7.02235C5.76666 7.01374 5.7762 7.00265 5.78299 6.9899C5.78979 6.97714 5.79368 6.96304 5.79439 6.94862C5.79508 6.93418 5.79258 6.91976 5.78703 6.90642C5.69815 6.68418 5.63592 6.47973 5.81815 6.28861C5.84035 6.2645 5.87017 6.24881 5.9026 6.24416C6.32929 6.19971 6.91155 6.94197 6.95599 7.36866C7.00043 7.82202 7.04488 8.43094 6.79598 8.82651C6.43123 9.37113 6.01764 9.88137 5.56036 10.351C5.25414 10.6698 5.0202 11.0507 4.87448 11.4679C4.72874 11.8851 4.67466 12.3289 4.71588 12.7689C4.77076 13.5922 5.03786 14.3871 5.49118 15.0764C5.9445 15.7657 6.56859 16.3259 7.30267 16.7025C7.99603 17.0625 8.9472 17.1469 9.71612 17.2491C9.79168 17.2581 9.82724 17.227 9.83168 17.1514C9.84057 17.058 9.79613 16.9913 9.7028 16.9602C9.45397 16.889 9.22594 16.7589 9.03796 16.581C8.84998 16.4031 8.70756 16.1825 8.62274 15.9379C8.5694 15.7824 8.53384 15.3868 8.75163 15.3157C8.88498 15.2713 9.05387 15.2935 9.13388 15.4269C9.28055 15.6758 9.38722 16.0047 9.62724 16.1691C10.2406 16.5869 10.8274 16.5291 11.3918 15.9913C11.454 15.9291 11.6585 15.7024 11.525 15.6179C11.134 15.3735 9.71168 14.7646 9.71612 14.1512C9.71612 13.9646 9.87168 13.7779 10.2051 13.6C10.2221 13.5927 10.2364 13.5801 10.246 13.5642C10.2556 13.5483 10.2599 13.5297 10.2584 13.5111C10.2495 13.3735 10.2273 13.2179 10.1961 13.0445C10.1428 12.7201 9.73835 12.6933 9.59168 12.9423C9.36056 13.329 8.92942 13.4312 8.57829 13.4357C8.04494 13.4445 7.54713 13.1689 7.16488 12.8045C6.81375 12.4711 6.93377 11.4888 7.04933 11.0933C7.07155 11.0266 7.00488 10.9644 6.9382 10.9866C6.66708 11.0667 6.40485 11.1511 6.14706 11.2489C5.85371 11.3599 5.53814 11.0488 5.78259 10.7999C5.95149 10.6266 6.18707 10.4399 6.43151 10.3688C7.23155 10.1465 8.04049 10.1333 8.86276 10.3287C10.0894 10.6311 10.6494 12.1511 10.9251 13.2401C10.9473 13.329 11.0318 13.3911 11.125 13.3823C11.6762 13.3423 12.223 13.3467 12.7696 13.3956C12.7962 13.3956 12.823 13.3778 12.8274 13.3511C13.1563 12.3289 13.6718 10.6622 14.8942 10.351C15.4207 10.1995 15.971 10.1483 16.5165 10.1999C17.2054 10.2888 17.561 10.3599 18.0411 10.7955C18.1655 10.9067 18.1476 11.1155 18.0055 11.1999ZM16.2631 12.0623V11.84C16.2676 11.44 15.9342 11.1066 15.5342 11.1066L15.263 11.1022C14.863 11.1022 14.5208 11.4266 14.5208 11.8222V12.0444C14.5119 12.4444 14.8453 12.7779 15.2454 12.7823H15.5209C15.9209 12.7823 16.2586 12.4578 16.2631 12.0623ZM9.46278 12.1067C9.45833 12.4844 9.12944 12.809 8.74274 12.8045H8.43162C8.04494 12.8 7.72047 12.4711 7.72936 12.0889V11.8089C7.72936 11.4266 8.05826 11.1111 8.44496 11.1155H8.75608C9.14277 11.1199 9.46722 11.4444 9.46278 11.8267V12.1067Z" fill="white"/>
</g>
<defs>
<clipPath id="clip0_328_54221">
<rect width="24" height="24" fill="white"/>
</clipPath>
</defs>
</svg>
