<svg width="24" height="24" viewBox="0 0 24 24" fill="none" xmlns="http://www.w3.org/2000/svg">
<g clip-path="url(#clip0_328_38754)">
<path d="M24 0H0V24H24V0Z" fill="url(#paint0_linear_328_38754)"/>
<path d="M9.16791 7.35481H9.37914C9.65798 7.35481 9.87768 7.49846 9.98751 7.58295C10.1184 7.68012 10.2452 7.80264 10.3593 7.93362C10.5958 8.1871 10.8494 8.53354 11.1029 8.90531C11.3986 9.34469 11.707 9.84744 11.9901 10.3418C12.2538 9.89235 12.527 9.44865 12.8096 9.01093C13.0632 8.6307 13.3166 8.26314 13.5574 7.9843C13.6715 7.84911 13.7982 7.71392 13.9293 7.60408C14.0349 7.52381 14.263 7.35481 14.563 7.35481C14.787 7.35481 14.9644 7.45198 15.0531 7.50691C15.1586 7.5745 15.2601 7.65478 15.3488 7.73926C15.522 7.90826 15.7121 8.12795 15.9065 8.38566C16.2993 8.89686 16.7556 9.60663 17.1992 10.4136C17.3598 10.7008 17.5161 11.0135 17.6724 11.3304C18.1878 11.2289 18.6906 11.1022 19.1004 10.9502C19.4425 10.8149 19.827 10.9924 19.9581 11.3388C20.0847 11.6852 19.9157 12.074 19.5693 12.2092C19.1721 12.357 18.7075 12.4838 18.2343 12.5893C18.6863 13.6484 18.9919 14.7642 19.1426 15.9058C19.1463 16.0729 19.0873 16.2354 18.9771 16.3611C18.8669 16.4866 18.7135 16.5663 18.5473 16.5844C18.3812 16.6026 18.2143 16.5576 18.0796 16.4585C17.945 16.3595 17.8525 16.2135 17.8202 16.0495C17.6648 14.9391 17.3518 13.8564 16.8908 12.8344C16.5317 12.8893 16.2105 12.9316 15.9613 12.9653L15.8008 12.9865C15.4333 13.0372 15.0995 12.7752 15.0531 12.4076C15.0289 12.2319 15.0754 12.0536 15.1822 11.9119C15.2891 11.7703 15.4477 11.6766 15.6233 11.6515L15.7629 11.6345L16.2952 11.5628L16.0331 11.0642C15.6854 10.4171 15.2914 9.79585 14.8545 9.20528C14.7446 9.06586 14.6517 8.95178 14.5672 8.85884C14.3855 9.0743 14.1616 9.38694 13.9208 9.75871C13.4772 10.4347 13.0082 11.2332 12.666 11.8247L12.5773 11.9768C12.5132 12.0869 12.4203 12.1776 12.3087 12.2393C12.1973 12.3009 12.0711 12.3312 11.9436 12.3268C11.8162 12.3225 11.6925 12.2837 11.5853 12.2147C11.4782 12.1456 11.3918 12.0488 11.3352 11.9345C10.9341 11.1532 10.4883 10.3958 10.0002 9.66577C9.817 9.38606 9.61664 9.11798 9.40027 8.86306C8.7412 9.46721 8.14128 10.3882 7.63008 11.4571C7.88357 11.5078 8.10326 11.5458 8.27648 11.5712C8.6398 11.6176 8.89752 11.9556 8.84682 12.3274C8.80035 12.695 8.46659 12.9527 8.09903 12.9062C7.8371 12.8682 7.48222 12.8048 7.09353 12.7204C6.6774 13.8085 6.36891 14.9349 6.17253 16.0832C6.14546 16.2579 6.0502 16.4147 5.90762 16.5194C5.76506 16.6239 5.58683 16.6676 5.41207 16.6409C5.23745 16.6108 5.08161 16.5135 4.97811 16.3696C4.87459 16.2258 4.8317 16.0471 4.85862 15.872C5.05697 14.6965 5.36532 13.5423 5.77962 12.4246L4.44882 12.0951C4.2908 12.0387 4.1594 11.9255 4.08016 11.7776C4.00091 11.6298 3.9795 11.4577 4.02006 11.2949C4.06062 11.1321 4.16028 10.9903 4.29965 10.8968C4.43902 10.8035 4.60814 10.7652 4.77412 10.7896C5.17125 10.891 5.7247 11.0304 6.29505 11.1613C6.95412 9.70802 7.84976 8.28004 8.99892 7.4731L9.16791 7.35059V7.35481Z" fill="white"/>
</g>
<defs>
<linearGradient id="paint0_linear_328_38754" x1="6.63143" y1="8.81045" x2="12.2823" y2="18.2371" gradientUnits="userSpaceOnUse">
<stop stop-color="#6DF1B5"/>
<stop offset="1" stop-color="#2DD8E0"/>
</linearGradient>
<clipPath id="clip0_328_38754">
<rect width="24" height="24" fill="white"/>
</clipPath>
</defs>
</svg>
