<svg width="24" height="24" viewBox="0 0 24 24" fill="none" xmlns="http://www.w3.org/2000/svg">
<g clip-path="url(#clip0_328_38779)">
<path d="M24 0H0V24H24V0Z" fill="#0A66EA"/>
<path d="M13.141 5.09804C13.4232 4.20952 12.6607 3.6692 12.2466 3.5071C11.4061 3.327 10.9858 3.96338 10.8477 4.28757C10.3793 5.77644 9.34683 8.88627 9.13064 9.6187C8.87249 10.5312 9.38885 11.1496 10.2052 11.2637C10.4526 11.2954 10.7038 11.2474 10.9219 11.1263C11.1401 11.0054 11.3139 10.8179 11.4179 10.5914L13.141 5.09804Z" fill="white"/>
<path d="M13.1768 4.27547C12.8825 3.37495 11.946 3.38697 11.5138 3.50702C11.2374 3.62559 11.0107 3.83655 10.8728 4.10377C10.7348 4.371 10.694 4.67789 10.7574 4.97189C11.2616 6.48479 12.3244 9.68464 12.5884 10.4171C12.9126 11.3297 13.8432 11.4318 14.5695 11.0354C15.1699 10.7113 15.104 10.1109 15.0199 9.84676L13.1768 4.27547Z" fill="white"/>
<path d="M10.0727 11.2629C11.0333 11.2748 11.3335 10.4824 11.3576 10.0321C11.3279 9.72969 11.1934 9.44711 10.9776 9.23333C10.7616 9.01953 10.4776 8.88799 10.1749 8.86143C8.55392 8.85541 5.36002 8.84942 4.57356 8.86143C3.58898 8.87944 2.95261 9.64788 3.10871 10.4645C3.22877 11.1369 3.79309 11.2569 4.06926 11.2629C5.66021 11.2689 9.10624 11.2508 10.0727 11.2629Z" fill="white"/>
<path d="M8.28408 14.7036C9.06453 15.292 9.8209 14.7336 10.0972 14.3795C10.5294 13.617 10.0972 12.9386 9.82697 12.6984C8.24262 11.5247 6.65166 10.3602 5.05418 9.20436C4.24371 8.62802 3.45723 9.04827 3.10302 9.80464C2.81485 10.4291 3.19908 10.9335 3.42722 11.1074L8.29007 14.7097L8.28408 14.7036Z" fill="white"/>
<path d="M6.02041 18.8589C5.70222 19.7835 6.45866 20.3358 6.87891 20.4918C7.73742 20.6721 8.24773 20.0537 8.3918 19.7234C8.92013 18.1685 10.0247 14.8666 10.265 14.1042C10.5651 13.1556 9.92871 12.5312 9.10024 12.4231C8.42183 12.3391 8.05562 12.8614 7.95956 13.1315L6.02041 18.8589Z" fill="white"/>
<path d="M6.47083 18.2944C5.68436 18.8768 5.99654 19.7592 6.25469 20.1255C6.85504 20.7619 7.6235 20.5458 7.93569 20.3535C9.24446 19.3691 12.0301 17.2799 12.6545 16.7875C13.4349 16.1751 13.2668 15.2987 12.6425 14.7463C12.1322 14.284 11.5438 14.5062 11.3097 14.6743L6.47083 18.2944Z" fill="white"/>
<path d="M16.0762 20.262C16.8628 20.8443 17.6131 20.28 17.8892 19.9258C18.3095 19.1572 17.8773 18.4849 17.607 18.2448C16.2803 17.284 13.4647 15.243 12.8102 14.7867C11.9938 14.2163 11.2072 14.6426 10.865 15.399C10.5768 16.0234 10.9672 16.5276 11.1953 16.7017C12.4982 17.6444 15.2897 19.6796 16.0762 20.262Z" fill="white"/>
<path d="M15.6264 19.6944C15.9387 20.625 16.8693 20.5951 17.3014 20.463C17.5785 20.328 17.8011 20.103 17.9331 19.8249C18.065 19.5467 18.0986 19.2319 18.0279 18.932C17.4997 17.3711 16.365 14.0813 16.0888 13.3367C15.7465 12.4003 14.864 12.2922 14.1436 12.7183C13.5552 13.0666 13.5853 13.697 13.6694 13.9731L15.6264 19.6944Z" fill="white"/>
<path d="M20.345 11.2219C21.1373 10.6516 20.8372 9.76293 20.5851 9.39077C20.3747 9.1645 20.093 9.01723 19.787 8.97354C19.481 8.92984 19.1696 8.99235 18.9041 9.15061C17.5834 10.1112 14.7736 12.1704 14.1432 12.6568C13.3508 13.257 13.5129 14.1395 14.1314 14.6979C14.6356 15.1602 15.2299 14.95 15.464 14.7819C16.7608 13.8335 19.5526 11.7922 20.345 11.2219Z" fill="white"/>
<path d="M19.7091 11.263C20.6878 11.2749 20.9819 10.5185 20.9999 10.0683C20.9664 9.76072 20.8294 9.47367 20.6112 9.25436C20.3929 9.03507 20.1066 8.89651 19.7992 8.86155C18.1603 8.84954 14.6843 8.84954 13.8858 8.86155C12.8951 8.87355 12.5048 9.654 12.661 10.4764C12.7871 11.1488 13.4055 11.2569 13.6936 11.263C15.3026 11.2749 18.7366 11.2509 19.7152 11.263H19.7091Z" fill="white"/>
</g>
<defs>
<clipPath id="clip0_328_38779">
<rect width="24" height="24" fill="white"/>
</clipPath>
</defs>
</svg>
