<svg width="24" height="24" viewBox="0 0 24 24" fill="none" xmlns="http://www.w3.org/2000/svg">
<g clip-path="url(#clip0_328_38824)">
<path d="M24 0H0V24H24V0Z" fill="white"/>
<path fill-rule="evenodd" clip-rule="evenodd" d="M5.40408 8.33821C5.45862 8.66552 5.44771 9.00374 5.37134 9.34195C5.25133 9.86024 5.15312 10.3458 5.07675 10.804C5.01061 11.2647 4.9978 11.7314 5.03857 12.1952C5.06039 12.4351 5.11493 12.6534 5.21859 12.8497C5.84339 14.0441 6.27776 15.3291 6.50605 16.6576C6.65879 17.5631 7.01884 18.1577 7.78259 18.5288C8.70999 18.9761 9.63743 19.4398 10.5539 19.9198C10.9685 20.1381 11.2249 20.3563 11.5303 20.689C11.9015 21.0982 12.4796 21.1091 12.856 20.689C13.2366 20.2641 13.689 19.9095 14.1926 19.6417C14.8473 19.2871 15.4581 18.8725 16.0746 18.4469C16.582 18.0977 17.133 17.6178 17.2202 16.9903C17.2967 16.4207 17.3876 15.8532 17.493 15.2884C17.6512 14.4699 18.0221 13.5262 18.3713 12.6534L18.4749 12.3969C18.6005 12.0806 18.666 11.7478 18.6714 11.4041C18.6951 10.5186 18.6219 9.63332 18.4531 8.76367C18.427 8.6279 18.4325 8.48786 18.4696 8.35457C18.8078 7.20897 19.1241 6.04698 19.4079 4.87954C19.4733 4.60678 19.6479 4.44311 19.8225 4.27946C19.9316 4.17036 20.0407 4.06124 20.1334 3.93033C20.1557 3.89597 20.171 3.85754 20.1784 3.81725C20.1858 3.77697 20.1852 3.7356 20.1766 3.69556C20.1681 3.65551 20.1515 3.61757 20.1282 3.5839C20.1049 3.55022 20.0751 3.52149 20.0407 3.49935C19.6861 3.28115 19.1569 3.29205 18.7096 3.30296H18.6606C18.3441 3.30842 18.1258 3.52662 17.9568 3.77759C17.6131 4.28492 17.2476 4.81408 16.8493 5.37597C16.8237 5.41515 16.7846 5.44381 16.7397 5.45682C16.6946 5.46983 16.6464 5.4663 16.6037 5.44689C15.286 4.86961 13.8879 4.49619 12.4578 4.33946C11.0721 4.19764 9.69736 4.39402 8.33903 4.93955C7.96806 5.08685 7.59711 5.2396 7.23159 5.40325C7.21555 5.40926 7.19787 5.40926 7.18182 5.40324C7.16578 5.39721 7.15245 5.3856 7.14432 5.37052L6.9261 4.95046C6.61514 4.35039 6.24965 3.61937 5.83504 3.33024C5.28952 2.94837 4.40029 2.83925 3.84385 3.31933C3.81113 3.35206 3.80566 3.38478 3.83841 3.42298C4.22572 3.89214 4.68397 4.43767 4.80398 5.05958C5.01128 6.07972 5.21314 7.17077 5.40408 8.33276V8.33821ZM19.0696 3.5921C19.4679 3.60847 19.7788 3.7012 19.9971 3.87576C20.1826 3.2975 18.8515 3.43934 18.5733 3.49935C18.3658 3.54845 18.1913 3.72302 18.0659 3.89759C17.6512 4.48676 17.2422 5.04865 16.8384 5.58873C16.7729 5.67601 16.6965 5.68693 16.6092 5.63238C16.3102 5.45467 15.9917 5.3119 15.66 5.20686C14.5951 4.84887 13.4937 4.61099 12.3759 4.49766C10.6357 4.33946 8.96639 4.67224 7.35706 5.496C7.28616 5.53419 7.26433 5.59419 7.29161 5.68693C7.30251 5.71419 7.32979 5.73057 7.37889 5.71966C7.58075 5.52327 7.83169 5.47963 8.06625 5.6542C8.25174 5.79057 8.44268 5.91606 8.62817 6.03608C8.67181 6.06335 8.71544 6.0688 8.75908 6.04152C9.51522 5.62969 10.3034 5.27941 11.1158 4.99411C10.9685 4.90683 10.8048 4.91774 10.6248 5.01047L10.3357 5.16322C9.77925 5.40325 9.23915 5.6651 8.70999 5.95969C8.70225 5.96589 8.69263 5.96926 8.68271 5.96926C8.67281 5.96926 8.66318 5.96589 8.65544 5.95969L7.92988 5.44689C7.91897 5.44145 7.91897 5.43054 7.92988 5.42508C8.34449 5.2396 8.83 5.07594 9.39191 4.91774C10.0959 4.71842 10.8347 4.67376 11.5578 4.7868C12.1905 4.67224 12.9106 4.68861 13.707 4.84136C14.3671 4.97228 15.0491 5.15232 15.7529 5.38689C16.042 5.48507 16.3147 5.6051 16.5656 5.75785C16.6178 5.78903 16.6794 5.80066 16.7394 5.79066C16.7994 5.78067 16.8538 5.74971 16.893 5.70329C17.3021 5.22323 17.7112 4.66679 18.1204 4.03943C18.3222 3.72847 18.6386 3.58118 19.0696 3.5921ZM5.52408 12.4351L5.57864 12.7079C5.79686 13.368 6.03143 14.0172 6.28783 14.6609C6.40785 14.95 6.57696 15.6484 6.79517 16.7558C6.80063 16.7939 6.81701 16.8321 6.83882 16.8648L6.89336 16.9739C6.90973 17.0285 6.89336 17.0557 6.85517 17.0668L6.72971 17.0885C6.5115 15.6702 6.07507 14.279 5.40952 12.9098C5.11026 12.2854 5.02403 11.5802 5.16403 10.9022C5.3466 9.90715 5.58704 8.92341 5.88414 7.95634C5.91142 7.95634 5.92778 7.92905 5.92778 7.87451C5.92778 7.84178 5.94414 7.82542 5.98233 7.83633C5.98935 7.83844 5.99585 7.84196 6.00147 7.84664C6.00709 7.85133 6.01172 7.85709 6.01507 7.8636C6.02112 7.87337 6.02307 7.88512 6.02051 7.89633C5.78595 8.76914 5.59501 9.63116 5.44771 10.4712C5.3522 11.0895 5.3522 11.7187 5.44771 12.3369C5.44771 12.3915 5.48043 12.4243 5.52408 12.4351ZM12.9979 13.0134L12.3979 15.0155C12.616 14.7373 12.785 14.459 12.9215 14.1809C13.0089 14.0063 13.0578 13.8317 13.0578 13.6625C13.0567 13.4391 13.0786 13.2161 13.1233 12.9971C13.1211 12.9893 13.1168 12.9823 13.111 12.9766C13.1053 12.9709 13.0983 12.9667 13.0906 12.9642H13.0633C13.0401 12.9764 13.0198 12.9931 13.0034 13.0134H12.9979ZM15.3655 15.2065C15.5073 15.1246 15.6546 15.0864 15.8184 15.0974L15.9493 15.0428C15.9982 15.0263 16.0256 15.0428 16.0256 15.0974L16.0365 15.2447C16.042 15.3101 16.0801 15.3428 16.1455 15.3319C16.3801 15.2992 16.5274 15.1791 16.582 14.9664C16.6748 14.5573 16.7512 14.0444 16.8003 13.4389C16.8111 13.368 16.7839 13.3516 16.7184 13.3843L16.2111 13.679C16.1886 13.6901 16.1695 13.7071 16.156 13.7282C16.1425 13.7494 16.1352 13.7738 16.1347 13.799L16.0911 14.7538C16.0911 14.7973 16.0638 14.8191 16.0256 14.8246C15.7201 14.8628 15.4147 14.9555 15.1036 15.1027C15.0545 15.1246 15.0273 15.1574 15.0219 15.1846C15.0219 15.2392 15.0381 15.2609 15.0927 15.2555L15.3655 15.2065ZM15.8073 13.8972C15.7995 13.8993 15.7919 13.903 15.7855 13.9081L15.2073 14.3554C15.1949 14.366 15.187 14.3808 15.185 14.3969C15.183 14.4131 15.187 14.4293 15.1963 14.4428L15.2237 14.4809C15.2946 14.579 15.3982 14.6444 15.5128 14.6665C15.5965 14.681 15.6827 14.6688 15.7591 14.6317C15.8355 14.5945 15.8982 14.534 15.9383 14.459C15.9797 14.3803 15.998 14.2914 15.9913 14.2026C15.9844 14.1139 15.9528 14.0288 15.9001 13.9571L15.8728 13.919C15.8675 13.9125 15.8608 13.9073 15.8532 13.9034C15.8458 13.8997 15.8377 13.8975 15.8292 13.8972C15.822 13.8957 15.8145 13.8957 15.8073 13.8972ZM8.13718 15.1628C8.3063 15.1791 8.48087 15.2337 8.65544 15.3266L8.69909 15.2938C8.71036 15.2825 8.71875 15.2687 8.7235 15.2535C8.72825 15.2383 8.72922 15.2222 8.72636 15.2065C8.72353 15.1912 8.71711 15.1768 8.70763 15.1645C8.69814 15.1521 8.68586 15.1422 8.67181 15.1356L8.5736 15.0919C8.51905 15.0646 8.5136 15.0265 8.56269 14.9882C8.63737 14.9303 8.68793 14.8468 8.70453 14.7538C8.7085 14.7286 8.70714 14.7031 8.70056 14.6786C8.69399 14.6542 8.68232 14.6315 8.66635 14.6118C8.49852 14.405 8.29536 14.2295 8.06625 14.0936C8.02262 14.0664 7.99534 14.0772 7.98444 14.1317C7.94079 14.4154 7.98444 14.6665 8.12628 14.8736C8.159 14.9282 8.1481 14.95 8.08809 14.9446C7.78259 14.9172 7.78804 14.5409 7.79351 14.2518V14.05C7.79045 14.0087 7.77677 13.969 7.75383 13.9344C7.7309 13.9001 7.69946 13.8722 7.66257 13.8535L7.06794 13.5154C6.98611 13.4717 6.95883 13.4935 6.97519 13.5862C7.08431 14.1263 7.23159 14.6554 7.41163 15.1737C7.52073 15.4573 7.70076 15.6373 7.96262 15.7084C7.97607 15.7127 7.99053 15.7129 8.00414 15.7091C8.01774 15.7052 8.02989 15.6973 8.03899 15.6865C8.04844 15.6754 8.05452 15.6616 8.05644 15.6471C8.05838 15.6326 8.05612 15.6179 8.04991 15.6047C7.88624 15.2228 7.91351 15.0755 8.13718 15.1628Z" fill="#000101"/>
<path d="M7.29211 5.68755C7.30302 5.71481 7.33029 5.73117 7.37938 5.72026L7.32484 5.80211C7.31176 5.82367 7.29334 5.84154 7.27137 5.85395C7.2494 5.86638 7.22461 5.87295 7.19938 5.87301C7.17238 5.87287 7.14598 5.86533 7.12301 5.8512C7.09973 5.83646 7.08089 5.81573 7.06845 5.79118C6.77019 5.18687 6.44993 4.59365 6.1083 4.01275C5.91737 3.68543 5.6719 3.45085 5.28456 3.40175L4.47716 3.31448C4.43898 3.31448 4.40079 3.31448 4.36807 3.33629C4.34299 3.35071 4.32121 3.37021 4.30413 3.39355C4.28704 3.4169 4.27503 3.44356 4.26887 3.47182C4.26269 3.50008 4.26251 3.52931 4.26831 3.55766C4.27414 3.58598 4.28581 3.61278 4.3026 3.63634C4.43353 3.82182 4.58628 4.00185 4.76084 4.1764C4.8154 4.23097 4.84268 4.28553 4.84814 4.35644C4.98998 4.70558 5.0718 4.95652 5.10454 5.10381L5.38822 6.60403C5.4155 6.75678 5.3773 6.90408 5.44277 7.05136C5.51914 7.24229 5.55187 7.43323 5.5355 7.61325C5.52459 7.74965 5.56278 7.82602 5.65006 7.84238L5.6828 7.95694C5.66643 8.08241 5.65006 8.16425 5.6337 8.20788C5.56824 8.37156 5.52459 8.36064 5.50277 8.19152C5.38437 7.22886 5.22602 6.27153 5.02816 5.32202C4.94087 4.90743 4.83721 4.40009 4.53719 4.08913C4.36579 3.91528 4.21395 3.72321 4.08439 3.51631C4.06165 3.48241 4.0524 3.44124 4.05845 3.40086C4.06451 3.3605 4.08543 3.32384 4.11713 3.2981C4.1366 3.28418 4.15898 3.27484 4.18259 3.27083C4.64628 3.16172 5.09361 3.17809 5.52459 3.31448C5.78099 3.39631 6.01011 3.59269 6.20651 3.91455C6.57201 4.52009 6.89387 5.12019 7.16664 5.71481C7.18845 5.75299 7.21573 5.75846 7.24848 5.73117C7.26566 5.71953 7.28046 5.70473 7.29211 5.68755Z" fill="#D6DCEF"/>
<path d="M4.8536 4.36094C5.12637 4.50278 5.37187 4.66643 5.59007 4.84645C5.71008 4.94464 5.781 5.06466 5.80829 5.2065L6.16834 7.04495C6.17925 7.08857 6.17379 7.13222 6.15742 7.17587L5.97738 7.61229C5.93376 7.72141 5.82465 7.79232 5.65008 7.84141C5.5628 7.82505 5.52461 7.74868 5.54097 7.61229C5.55189 7.43227 5.51915 7.24133 5.43732 7.05039C5.38277 6.90311 5.4155 6.75581 5.38277 6.60307C5.35004 6.37939 5.25185 5.87751 5.10454 5.10285C5.03921 4.84727 4.95347 4.59733 4.84814 4.35547L4.8536 4.36094Z" fill="#9099B6"/>
<path d="M11.564 4.7865C11.4167 4.91742 11.2639 4.98833 11.1167 4.9938C10.9694 4.90652 10.8057 4.91742 10.6257 5.01017L10.3366 5.16292C9.78141 5.40047 9.23881 5.6663 8.71089 5.95938C8.70315 5.96559 8.69352 5.96897 8.68361 5.96897C8.67369 5.96897 8.66407 5.96559 8.65633 5.95938L7.93077 5.44659C7.91986 5.44113 7.91986 5.43023 7.93077 5.42477C8.34538 5.2393 8.8309 5.07563 9.3928 4.91742C10.0969 4.71811 10.8355 4.67347 11.5587 4.7865H11.564ZM8.29083 13.9897C7.39566 13.5661 6.5534 13.0387 5.78139 12.4185C6.6706 12.8931 7.51071 13.4169 8.29083 13.9897ZM5.52499 12.4348C5.59045 12.5004 5.645 12.5439 5.68864 12.5658L6.70879 13.3131C6.73607 13.335 6.76334 13.3677 6.76334 13.4059C6.88336 14.0224 7.06338 14.6715 7.31433 15.3698C7.41252 15.6426 7.73438 15.8063 7.97987 15.8444C8.67814 15.9589 9.27824 16.1007 9.78006 16.2809L9.77466 16.3626C9.77466 16.4062 9.7474 16.4282 9.70374 16.4172C9.14186 16.2536 8.59632 16.1227 8.06716 16.0189C7.8053 15.9645 7.55981 15.8444 7.33069 15.648C7.29701 15.6192 7.27237 15.5814 7.25978 15.539C7.21613 15.3971 7.09066 15.2607 7.07975 15.1188C7.07702 15.0776 7.06781 15.0371 7.05247 14.9988C6.8632 14.5167 6.7349 14.0127 6.6706 13.4986C6.66812 13.4734 6.65998 13.4488 6.64675 13.4272C6.63352 13.4054 6.61556 13.387 6.59423 13.3732L5.73229 12.7895C5.71704 12.7795 5.70403 12.7665 5.6941 12.7512C5.61226 12.6258 5.57408 12.6095 5.57408 12.6967L5.51953 12.4294L5.52499 12.4348Z" fill="#D6DCEF"/>
<path fill-rule="evenodd" clip-rule="evenodd" d="M8.07277 5.65479C7.83273 5.48022 7.5818 5.52386 7.37994 5.72025L7.3254 5.80209C7.31231 5.82366 7.29389 5.84153 7.27192 5.85393C7.24995 5.86635 7.22515 5.87292 7.19993 5.873C7.17294 5.87287 7.14653 5.86532 7.12355 5.85119C7.10028 5.83646 7.08143 5.81573 7.06899 5.79117C6.77073 5.18686 6.45048 4.59364 6.10885 4.01274C5.91792 3.68543 5.67244 3.45085 5.2851 3.40175L4.47772 3.31445C4.43952 3.31445 4.40134 3.31445 4.36861 3.33628C4.34354 3.3507 4.32176 3.37021 4.30468 3.39355C4.28759 3.41687 4.27558 3.44355 4.26941 3.47181C4.26325 3.50007 4.26307 3.52931 4.26887 3.55763C4.27469 3.58597 4.28636 3.61277 4.30315 3.63634C4.43408 3.82181 4.58683 4.00183 4.7614 4.17639C4.81595 4.23096 4.84323 4.28551 4.84868 4.35643C5.1269 4.50372 5.37239 4.66738 5.59061 4.84741C5.71062 4.94561 5.78154 5.06561 5.80881 5.20745L6.16887 7.04589C6.17978 7.08954 6.17431 7.13318 6.15796 7.17683L5.97792 7.61324C5.93429 7.72237 5.82519 7.79327 5.65061 7.84237L5.68335 7.95693C5.81973 7.85874 5.89063 7.85874 5.88519 7.95693C5.91247 7.95693 5.92883 7.9242 5.92883 7.86965C5.92883 7.83692 5.9452 7.82056 5.98338 7.83146C5.9904 7.83358 5.9969 7.83708 6.00253 7.84176C6.00814 7.84645 6.01278 7.85224 6.01613 7.85874L6.02703 7.87511V7.89146C5.78699 8.76425 5.59605 9.62627 5.44877 10.4664C5.35326 11.0846 5.35326 11.7138 5.44877 12.3321C5.44877 12.3867 5.48148 12.4194 5.52513 12.4302C5.59061 12.5012 5.64516 12.5449 5.6888 12.5667C5.68222 12.5564 5.67673 12.5454 5.67244 12.5341C5.67244 12.512 5.67244 12.5012 5.69426 12.4958C5.7137 12.4905 5.73168 12.481 5.74682 12.4678C5.76195 12.4545 5.77384 12.438 5.78154 12.4194C6.67075 12.8939 7.51087 13.4177 8.29099 13.9906L10.4023 16.3199C10.4294 16.3199 10.4567 16.3145 10.4676 16.3036C10.4949 16.2872 10.5004 16.2654 10.4785 16.2436C9.92269 15.5332 9.3367 14.847 8.72195 14.1869C8.64558 14.1051 8.66195 14.0778 8.76559 14.1104C9.39841 14.2742 9.82942 14.6724 10.2931 15.098C10.3531 15.1634 10.424 15.2234 10.4896 15.2834C10.653 15.4362 10.8714 15.4907 11.0895 15.4799C11.1008 15.4796 11.1119 15.4826 11.1215 15.4884C11.1313 15.4941 11.139 15.5026 11.1441 15.5126C11.149 15.5229 11.1512 15.5345 11.1502 15.546C11.1494 15.5576 11.1452 15.5686 11.1387 15.578C10.9913 15.7853 10.9204 16.0035 10.9204 16.2381C11.1278 15.9381 11.3897 15.4907 11.2695 15.1307C11.1412 14.7303 11.0175 14.3284 10.8987 13.925C10.8932 13.9088 10.8987 13.8923 10.9095 13.8867L10.9478 13.865C10.9695 13.8486 10.9913 13.8541 11.0022 13.8867L11.5097 15.3434C11.5314 15.398 11.526 15.4525 11.4987 15.5072L11.1006 16.2654C11.1006 16.2872 11.1114 16.3036 11.1224 16.3199C11.1495 16.3581 11.1768 16.3581 11.2097 16.3199C11.3951 16.0635 11.5368 15.769 11.646 15.4417C11.652 15.423 11.6627 15.4062 11.6769 15.3928C11.6913 15.3794 11.7088 15.3699 11.7279 15.3653L11.9952 15.2997C12.0278 15.2934 12.0615 15.3002 12.0891 15.3184C12.1168 15.337 12.1359 15.3654 12.1424 15.398C12.2243 15.7416 12.3825 16.0526 12.6226 16.3363L12.2514 15.3543C12.2046 15.2322 12.1989 15.0981 12.2352 14.9725C12.4425 14.2579 12.677 13.5486 12.9444 12.845C12.9607 12.7903 12.9989 12.7357 13.0371 12.6867C13.0808 12.6322 13.0916 12.6376 13.0808 12.7085L13.0044 13.0085C13.0209 12.9882 13.0412 12.9716 13.0644 12.9595C13.0727 12.9559 13.0818 12.9552 13.0907 12.957C13.0996 12.9592 13.1073 12.9638 13.1135 12.9703L13.1244 12.9922C12.8121 13.4723 12.6213 14.021 12.5681 14.5911C12.5147 15.1613 12.601 15.7358 12.8189 16.2654C12.7479 16.3527 12.8026 16.3909 12.9826 16.3854C13.0371 16.3854 13.0644 16.4072 13.0808 16.4508C13.1026 16.5109 13.1518 16.5381 13.2336 16.5217C13.2499 16.5217 13.2662 16.5109 13.288 16.4999C13.5553 16.3253 13.8227 16.1945 14.09 16.1181C14.2155 16.0744 14.2482 16.1181 14.1828 16.2381C14.0464 16.4836 13.7245 16.9908 13.408 16.9637C12.9226 16.9256 12.4317 16.8382 11.9352 16.7072C11.6352 16.6254 11.2478 16.7509 10.9149 16.8546L10.6968 16.9201C10.424 17.0019 10.2168 16.811 10.0422 16.5981C10.0148 16.5654 10.0203 16.5435 10.0695 16.5435C10.1239 16.5381 10.1785 16.5545 10.2331 16.5818C10.2658 16.6036 10.2985 16.6036 10.3259 16.5818C10.3531 16.5654 10.3695 16.5272 10.364 16.4673L9.78026 16.2762L9.77475 16.3635C9.77475 16.4072 9.74757 16.4291 9.7039 16.4181C9.14201 16.2544 8.59648 16.1236 8.06732 16.0197C7.80546 15.9653 7.55998 15.8453 7.33085 15.6489C7.29716 15.6201 7.27253 15.5823 7.25993 15.5398C7.24356 15.4799 7.20538 15.4198 7.17265 15.3653C7.12399 15.2912 7.09232 15.2075 7.0799 15.1197C7.07718 15.0785 7.06796 15.0381 7.05262 14.9997C6.86335 14.5175 6.73506 14.0136 6.67075 13.4995C6.66827 13.4742 6.66012 13.4498 6.64689 13.4281C6.63367 13.4063 6.61573 13.3878 6.59438 13.3741L5.73245 12.7903C5.71719 12.7804 5.70419 12.7675 5.69426 12.7522C5.61242 12.6266 5.57423 12.6103 5.57423 12.6975C5.79244 13.3632 6.03247 14.0178 6.28887 14.6615C6.4089 14.9453 6.57801 15.6434 6.79622 16.7509C6.80169 16.789 6.81806 16.8273 6.83987 16.8599L6.89441 16.9692C6.91078 17.0237 6.89441 17.0509 6.85623 17.0618L6.73076 17.0838C6.81662 17.3739 6.96313 17.6428 7.16061 17.8723C7.35812 18.1017 7.60207 18.2866 7.87638 18.4148L11.3568 20.1059C11.6842 20.2695 12.0714 20.3405 12.5187 20.3132C12.7426 20.3023 12.9552 20.2313 13.1735 20.0951C13.9592 19.5932 14.7556 19.1022 15.5576 18.6221C16.1084 18.3002 16.965 17.7165 17.0631 17.0346C17.1941 16.1072 17.3796 15.2615 17.6196 14.4978C17.8269 13.8431 18.0779 13.1395 18.3833 12.3921C18.4979 12.092 18.5633 11.7757 18.5689 11.4538C18.596 10.3192 18.5306 9.26069 18.1542 8.24607C18.1268 8.1806 18.1542 8.15333 18.2197 8.15878H18.3016C18.3669 8.16968 18.4106 8.14242 18.427 8.07695C18.727 7.01316 19.0271 5.86755 19.3271 4.64555C19.3434 4.59101 19.3652 4.55282 19.4089 4.51464C19.6436 4.29642 19.8399 4.0782 19.9982 3.87637C19.7799 3.7018 19.4689 3.60359 19.0707 3.59269C18.6342 3.58178 18.3233 3.72906 18.1216 4.04002C17.7495 4.61972 17.3413 5.17543 16.8995 5.70388C16.8599 5.75168 16.8045 5.78354 16.7433 5.79358C16.6821 5.8036 16.6194 5.79111 16.5667 5.75844C16.3158 5.60569 16.043 5.48567 15.7484 5.38748C15.081 5.161 14.3994 4.97878 13.7081 4.84195C13.0014 4.68981 12.2724 4.67131 11.5588 4.78739C11.4168 4.91833 11.2641 4.98924 11.1169 4.99471C10.3045 5.28001 9.51627 5.63028 8.76013 6.04212C8.74066 6.0548 8.71792 6.06155 8.69467 6.06155C8.67144 6.06155 8.6487 6.0548 8.62921 6.04212C8.44374 5.91665 8.25281 5.79117 8.06732 5.65479H8.07277ZM17.2378 12.8395L15.9503 13.6086C15.1319 14.1159 14.4446 14.7596 13.8827 15.5398C13.6644 15.8508 13.4462 16.0145 13.1735 16.2108L13.0644 16.2872C13.0534 16.3036 13.048 16.3145 13.0644 16.3308L13.0808 16.3635C13.0917 16.3786 13.1082 16.3889 13.1265 16.3919C13.1448 16.395 13.1636 16.3905 13.1789 16.38C13.637 16.0854 14.1456 15.8781 14.6792 15.769L16.3431 15.4198C16.4347 15.3992 16.5183 15.3517 16.5831 15.2834C16.6504 15.2145 16.6961 15.1272 16.7141 15.0324C16.8013 14.5252 16.8995 14.0341 17.0031 13.5596C17.0576 13.2813 17.1722 13.1504 17.3249 12.9758C17.3582 12.9344 17.391 12.8926 17.4233 12.8503C17.4777 12.7903 17.4669 12.7685 17.3904 12.7958L17.2378 12.8395Z" fill="#ACBBD8"/>
<path d="M17.2417 12.8408L15.9541 13.61C16.2889 13.2212 16.7407 12.9513 17.2417 12.8408Z" fill="#D6DCEF"/>
<path d="M10.9139 16.2358C10.9467 16.1977 10.9685 16.2085 10.974 16.2687C10.9849 16.2958 11.0012 16.3068 11.0284 16.2903C11.0504 16.2741 11.0775 16.2687 11.0995 16.2632C11.0995 16.2849 11.1103 16.3013 11.1213 16.3177C11.1485 16.356 11.1757 16.356 11.2086 16.3177C11.394 16.0612 11.5358 15.7667 11.6449 15.4394C11.6509 15.4208 11.6616 15.4039 11.6759 15.3906C11.6903 15.3772 11.7078 15.3677 11.7268 15.363L11.9941 15.2976C12.0099 15.294 12.0261 15.2934 12.0422 15.2962C12.058 15.299 12.0732 15.305 12.0868 15.3139C12.101 15.3232 12.1131 15.3351 12.1225 15.3493C12.1318 15.3633 12.1383 15.379 12.1413 15.3958C12.2232 15.7395 12.3815 16.0504 12.6214 16.334C12.6651 16.2958 12.7306 16.2687 12.8179 16.2576C12.7469 16.3505 12.8014 16.3886 12.9814 16.3832C13.0361 16.3832 13.0633 16.4049 13.0798 16.4487C13.1015 16.5086 13.1506 16.536 13.2325 16.5194C13.2487 16.5194 13.2652 16.5086 13.287 16.4977C13.5543 16.3231 13.8216 16.1922 14.0889 16.1158C14.2144 16.0721 14.2472 16.1158 14.1817 16.2358C14.0452 16.4813 13.7235 16.9887 13.407 16.9614C12.9216 16.9233 12.4251 16.8359 11.9342 16.7049C11.5686 16.6068 11.0613 16.8142 10.6957 16.9178C10.4229 16.9996 10.2157 16.8087 10.041 16.5958C10.0138 16.5631 10.0193 16.5414 10.0684 16.5414C10.1229 16.536 10.1775 16.5522 10.2319 16.5796C10.2647 16.6013 10.2975 16.6013 10.3248 16.5796C10.3521 16.5631 10.3684 16.5249 10.3629 16.465C10.3847 16.4432 10.3957 16.3941 10.4011 16.3177C10.4284 16.3177 10.4556 16.3123 10.4666 16.3013C10.4938 16.2849 10.4992 16.2632 10.4775 16.2413C9.92167 15.531 9.33564 14.8448 8.72089 14.1846C8.64453 14.1028 8.6609 14.0755 8.76453 14.1082C9.48467 14.2938 9.94833 14.7902 10.4884 15.2813C10.652 15.4339 10.8704 15.4884 11.0885 15.4776C11.0984 15.4786 11.1079 15.4825 11.1157 15.4884C11.1247 15.4942 11.1321 15.5024 11.1369 15.512C11.1416 15.5217 11.1438 15.5324 11.143 15.543L11.1377 15.5757C10.9902 15.7831 10.9193 16.0014 10.9193 16.2358H10.9139Z" fill="#9099B6"/>
<path d="M12.8726 16.063C12.7299 15.7724 12.62 15.4669 12.5453 15.1519C12.4961 14.9501 12.5561 14.9119 12.7089 15.0429L12.9871 15.2774C13.0333 15.3166 13.0902 15.3412 13.1504 15.348C13.2106 15.3548 13.2716 15.3436 13.3253 15.3157L14.1164 14.8901C14.1818 14.852 14.1929 14.8629 14.1546 14.9282C13.8721 15.3788 13.5184 15.7805 13.1071 16.1176C13.0035 16.1995 12.9271 16.1775 12.8672 16.063H12.8726ZM15.8185 15.0974C15.873 15.2121 15.8457 15.2993 15.7476 15.3538C15.7094 15.3701 15.6111 15.4084 15.4638 15.4412C15.4146 15.4574 15.3875 15.4412 15.3712 15.3866C15.3584 15.3255 15.3584 15.2621 15.3712 15.201C15.5074 15.1193 15.6548 15.081 15.8185 15.092V15.0974ZM14.5092 15.4465C14.5295 15.4607 14.5461 15.4795 14.5583 15.5011C14.565 15.5138 14.5683 15.5282 14.5677 15.5426C14.5673 15.5571 14.5628 15.5712 14.555 15.5833C14.5472 15.5956 14.5363 15.6055 14.5235 15.6121C14.5107 15.6188 14.4963 15.6219 14.4819 15.6211C14.3509 15.6211 14.231 15.6428 14.1218 15.6865C14.0346 15.7193 14.0127 15.692 14.0619 15.6157C14.1492 15.4574 14.2582 15.3102 14.3838 15.1684C14.4382 15.1028 14.471 15.1137 14.471 15.201C14.471 15.2392 14.4656 15.272 14.4546 15.3102C14.4437 15.3647 14.4546 15.4138 14.5092 15.4465ZM8.13735 15.1629C8.30647 15.1792 8.48104 15.2338 8.65561 15.3266L8.71017 15.6649C8.72107 15.7247 8.69926 15.7575 8.63379 15.752C8.51494 15.7461 8.39912 15.7126 8.29555 15.6539C8.23009 15.6157 8.18646 15.5393 8.16463 15.4247C8.14938 15.3382 8.14027 15.2508 8.13735 15.1629ZM9.46295 15.6539C9.45208 15.6102 9.46842 15.583 9.51756 15.5775H9.53398C9.66483 15.6975 9.76847 15.8175 9.86128 15.943C9.95938 16.0904 9.93215 16.123 9.77387 16.0521C9.6717 16.0096 9.56274 15.9856 9.45208 15.9811C9.39753 15.9811 9.37025 15.9484 9.37572 15.8939C9.37464 15.8634 9.3799 15.8333 9.39119 15.8053C9.40246 15.7769 9.41948 15.7515 9.44117 15.7302C9.451 15.7205 9.45811 15.7082 9.46194 15.6948C9.46575 15.6815 9.46612 15.6674 9.46295 15.6539ZM12.5889 20.1109C12.1621 20.1591 11.7301 20.0972 11.3341 19.9309C10.3359 19.4234 9.37025 18.949 8.43739 18.5233C8.28985 18.4544 8.146 18.3779 8.00643 18.2942C7.61364 18.0597 7.24814 17.9014 7.03537 17.4541C6.94809 17.2632 6.98083 17.2359 7.14449 17.3668C7.42817 17.6013 7.64637 17.9396 7.99552 18.0597C8.25192 18.1525 8.50285 18.2234 8.74835 18.2723C9.7146 18.5134 10.6113 18.9768 11.367 19.6253C11.3942 19.6362 11.4214 19.6418 11.4542 19.6362C11.6724 19.6089 11.9726 19.6362 12.1742 19.5545C12.2288 19.5325 12.2725 19.538 12.3216 19.5654C12.3598 19.5871 12.3925 19.5981 12.4307 19.5871C12.5453 19.5545 12.6489 19.4944 12.7308 19.4126C12.743 19.3989 12.7578 19.3877 12.7745 19.3797C12.7902 19.3748 12.8069 19.3729 12.8235 19.3745L12.8616 19.3797C12.8724 19.3859 12.8847 19.3893 12.8971 19.3893C12.9096 19.3893 12.9218 19.3859 12.9326 19.3797C13.2611 19.1438 13.621 18.9548 14.0018 18.8179C14.5583 18.6325 15.1201 18.3815 15.6929 18.0814C16.2167 17.8033 16.4567 17.3177 16.7841 16.8541C16.904 16.6904 16.9476 16.7013 16.9041 16.9086C16.8256 17.3334 16.5824 17.7098 16.2275 17.9561C15.9602 18.147 15.6929 18.327 15.4256 18.4962L13.478 19.7289C13.2155 19.9227 12.9108 20.0516 12.5889 20.1054V20.1109Z" fill="#9099B6"/>
<path d="M12.518 19.1114C12.398 19.2588 12.3325 19.406 12.3653 19.4388C12.398 19.4606 12.5289 19.3679 12.638 19.2206C12.7635 19.0678 12.829 18.9259 12.7962 18.8932C12.7635 18.8659 12.6326 18.9641 12.5235 19.1114H12.518ZM11.2907 19.3515C11.4161 19.4606 11.536 19.5369 11.5632 19.5042C11.5907 19.477 11.5143 19.3569 11.3943 19.2424C11.2687 19.1278 11.1488 19.0569 11.1215 19.0842C11.0942 19.1169 11.1761 19.2369 11.2959 19.3515H11.2907Z" fill="#000101"/>
</g>
<defs>
<clipPath id="clip0_328_38824">
<rect width="24" height="24" fill="white"/>
</clipPath>
</defs>
</svg>
