<svg width="24" height="24" viewBox="0 0 24 24" fill="none" xmlns="http://www.w3.org/2000/svg">
<g clip-path="url(#clip0_328_38888)">
<path d="M24 0H0V24H24V0Z" fill="white"/>
<path d="M11.1394 5.57848L11.0596 3.97852L12.3595 4.8835L11.1394 5.57848Z" fill="#374CE8"/>
<path d="M11.6648 8.82513L10.1299 7.53516L11.6448 7.69514L11.6648 8.82513Z" fill="#B96FD7"/>
<path d="M11.6646 8.82408L11.6396 7.7041L12.4497 8.98908L11.6646 8.82408Z" fill="#CE7EDD"/>
<path d="M13.6337 7.8741L11.6338 7.7041L12.4438 8.98908L13.6337 7.8741Z" fill="#AF69DC"/>
<path d="M12.8988 6.41016L11.6338 7.71014L13.6287 7.87512L12.9038 6.41016H12.8988Z" fill="url(#paint0_linear_328_38888)"/>
<path d="M11.1845 6.78125L10.1245 7.54124L11.6396 7.70123L11.1845 6.78125Z" fill="#8354C3"/>
<path d="M11.065 3.96484L10.1299 7.53478L11.2099 6.77479L11.0599 3.96484H11.065Z" fill="url(#paint1_linear_328_38888)"/>
<path d="M12.3387 4.8829L11.0537 3.98292L12.3387 3.00293V4.8829Z" fill="#365AF7"/>
<path d="M11.4552 3.18952L11.0801 3.99952L12.3501 3.01953L11.4552 3.19453V3.18952Z" fill="#2D4EF2"/>
<path d="M13.8343 4.49998L12.3345 3V4.91998L13.8343 4.49998Z" fill="#3865FF"/>
<path d="M11.1446 5.57512L11.1797 6.8001L11.6447 7.71007L12.9047 6.41009L12.3396 4.87012L11.1396 5.57011L11.1446 5.57512Z" fill="url(#paint2_linear_328_38888)"/>
<path d="M13.8342 4.48535L12.3193 4.87535L12.9042 6.42532L13.8342 4.48535Z" fill="url(#paint3_linear_328_38888)"/>
<path d="M13.8151 4.4845L12.895 6.41947L13.63 7.87944L13.8151 4.47949V4.4845Z" fill="url(#paint4_linear_328_38888)"/>
<path d="M9.36995 13.0004L6 11.9004L8.58497 15.0304L9.36995 13.0004Z" fill="#F6609A"/>
<path d="M6 15.7337V11.8887L6.8 14.5837L6 15.7337Z" fill="url(#paint5_linear_328_38888)"/>
<path d="M6.8 14.6153L6 11.9004L8.57495 15.0004L6.79499 14.6203L6.8 14.6153Z" fill="url(#paint6_linear_328_38888)"/>
<path d="M7.50485 17.1601L6.00488 15.7301L6.78486 14.5752L7.50485 17.1601Z" fill="url(#paint7_linear_328_38888)"/>
<path d="M8.62438 14.9996L6.77441 14.5996L7.49939 17.1546L8.62438 14.9996Z" fill="#FD627F"/>
<path d="M9.284 15.7353L7.49902 17.1554L8.57901 14.9854L9.284 15.7353Z" fill="url(#paint8_linear_328_38888)"/>
<path d="M9.35957 12.9951L8.57959 15.0051L9.30457 15.77L10.1695 15.3899L9.35957 13.0001V12.9951Z" fill="url(#paint9_linear_328_38888)"/>
<path d="M9.32392 17.9988L9.27393 15.7438L10.1639 15.3838L9.32392 17.9988Z" fill="#E14B55"/>
<path d="M11.9989 20.9999L9.31396 17.9899L10.8839 17.5898L11.9989 20.9999Z" fill="#FFD574"/>
<path d="M10.9097 17.605L10.1598 15.375L9.31982 18L10.9097 17.6099V17.605Z" fill="url(#paint10_linear_328_38888)"/>
<path d="M11.9847 18.3735L10.8848 17.5986L11.9998 20.9985L13.1248 17.6286L11.9847 18.3735Z" fill="#F4B356"/>
<path d="M14.4984 18.0402L11.9985 21.0001L13.1235 17.6201L14.4984 18.0402Z" fill="url(#paint11_linear_328_38888)"/>
<path d="M11.9597 15.0051L10.8848 17.6L11.9847 18.385L13.1347 17.63L11.9597 15V15.0051Z" fill="url(#paint12_linear_328_38888)"/>
<path d="M11.954 15.03L10.8939 17.5998L9.354 13L11.954 15.03Z" fill="url(#paint13_linear_328_38888)"/>
<path d="M14.534 13H9.354L11.9689 15.0599L14.534 13Z" fill="url(#paint14_linear_328_38888)"/>
<path d="M8.92495 10.5L6 11.9L9.35495 12.9999H14.6249L17.9998 11.8898L15.0148 10.5H8.92495Z" fill="url(#paint15_linear_328_38888)"/>
<path d="M12.0751 11.9432C13.1299 11.9432 13.985 11.7774 13.985 11.573C13.985 11.3687 13.1299 11.2031 12.0751 11.2031C11.0202 11.2031 10.165 11.3687 10.165 11.573C10.165 11.7774 11.0202 11.9432 12.0751 11.9432Z" fill="url(#paint16_linear_328_38888)"/>
<path d="M14.4993 15.7399L13.8193 15.345L14.5193 12.9951L15.3543 14.985L14.5042 15.7349L14.4993 15.7399Z" fill="url(#paint17_linear_328_38888)"/>
<path d="M14.534 12.9951L13.1341 17.6299L11.9692 15.035L14.534 13.0001V12.9951Z" fill="url(#paint18_linear_328_38888)"/>
<path d="M14.4999 18.0489L13.125 17.6238L13.825 15.334L14.4999 15.7239V18.0489Z" fill="url(#paint19_linear_328_38888)"/>
<path d="M16.479 17.2508L14.499 15.7209L15.3591 14.9609L16.479 17.2408V17.2508Z" fill="url(#paint20_linear_328_38888)"/>
<path d="M17.9894 11.8996L14.5244 12.9996L15.3494 15.0095L17.9894 11.8945V11.8996Z" fill="url(#paint21_linear_328_38888)"/>
<path d="M17.2196 14.5748L15.3496 15.0096L17.9996 11.8848L17.2196 14.5748Z" fill="url(#paint22_linear_328_38888)"/>
<path d="M17.9984 15.7097L17.1836 14.5947L17.9984 11.8848V15.7097Z" fill="url(#paint23_linear_328_38888)"/>
<path d="M17.1897 14.5693L15.3496 15.0043L16.4846 17.2543L17.1846 14.5693H17.1897Z" fill="url(#paint24_linear_328_38888)"/>
<path d="M17.9886 15.6851L17.1836 14.5752L16.4736 17.2352L17.9886 15.6851Z" fill="url(#paint25_linear_328_38888)"/>
</g>
<defs>
<linearGradient id="paint0_linear_328_38888" x1="11.9837" y1="3.00022" x2="11.9837" y2="20.9999" gradientUnits="userSpaceOnUse">
<stop stop-color="#7187FE"/>
<stop offset="1" stop-color="#8862E1"/>
</linearGradient>
<linearGradient id="paint1_linear_328_38888" x1="-0.0554904" y1="4.23514" x2="2.70908" y2="22.265" gradientUnits="userSpaceOnUse">
<stop stop-color="#435DF9"/>
<stop offset="1" stop-color="#4C42D3"/>
</linearGradient>
<linearGradient id="paint2_linear_328_38888" x1="16.0278" y1="7.46839" x2="7.23529" y2="13.5119" gradientUnits="userSpaceOnUse">
<stop stop-color="#2E42DE"/>
<stop offset="1" stop-color="#6C42C4"/>
</linearGradient>
<linearGradient id="paint3_linear_328_38888" x1="15.7417" y1="5.04159" x2="7.30676" y2="13.6504" gradientUnits="userSpaceOnUse">
<stop stop-color="#3E78FD"/>
<stop offset="1" stop-color="#4A70F7"/>
</linearGradient>
<linearGradient id="paint4_linear_328_38888" x1="7.04364" y1="12.5288" x2="15.6862" y2="9.84856" gradientUnits="userSpaceOnUse">
<stop stop-color="#8359E3"/>
<stop offset="1" stop-color="#7562F3"/>
</linearGradient>
<linearGradient id="paint5_linear_328_38888" x1="4.35004" y1="6.25246" x2="5.47721" y2="19.7528" gradientUnits="userSpaceOnUse">
<stop offset="0.43" stop-color="#D13462"/>
<stop offset="1" stop-color="#FF7073"/>
</linearGradient>
<linearGradient id="paint6_linear_328_38888" x1="7.32814" y1="5.72956" x2="16.7625" y2="17.905" gradientUnits="userSpaceOnUse">
<stop stop-color="#AD214A"/>
<stop offset="1" stop-color="#F67B72"/>
</linearGradient>
<linearGradient id="paint7_linear_328_38888" x1="8.47984" y1="5.01962" x2="11.2935" y2="21.3581" gradientUnits="userSpaceOnUse">
<stop stop-color="#FA7B62"/>
<stop offset="1" stop-color="#FFCC6D"/>
</linearGradient>
<linearGradient id="paint8_linear_328_38888" x1="15.5787" y1="4.94983" x2="6.22699" y2="15.5607" gradientUnits="userSpaceOnUse">
<stop stop-color="#FF6088"/>
<stop offset="1" stop-color="#FEC46C"/>
</linearGradient>
<linearGradient id="paint9_linear_328_38888" x1="11.8863" y1="3.97315" x2="11.8863" y2="20.9999" gradientUnits="userSpaceOnUse">
<stop stop-color="#830E36"/>
<stop offset="1" stop-color="#EC4679"/>
</linearGradient>
<linearGradient id="paint10_linear_328_38888" x1="11.9998" y1="3.10307" x2="11.9998" y2="20.8628" gradientUnits="userSpaceOnUse">
<stop stop-color="#F15979"/>
<stop offset="1" stop-color="#ED9748"/>
</linearGradient>
<linearGradient id="paint11_linear_328_38888" x1="17.0385" y1="5.8228" x2="4.92895" y2="18.2865" gradientUnits="userSpaceOnUse">
<stop stop-color="#FF5C8C"/>
<stop offset="1" stop-color="#F1984C"/>
</linearGradient>
<linearGradient id="paint12_linear_328_38888" x1="11.9464" y1="3.02685" x2="11.9464" y2="20.9999" gradientUnits="userSpaceOnUse">
<stop offset="0.27" stop-color="#DB4B82"/>
<stop offset="1" stop-color="#EF8F58"/>
</linearGradient>
<linearGradient id="paint13_linear_328_38888" x1="7.79903" y1="9.35873" x2="15.557" y2="8.27584" gradientUnits="userSpaceOnUse">
<stop stop-color="#E67C8E"/>
<stop offset="1" stop-color="#D55674"/>
</linearGradient>
<linearGradient id="paint14_linear_328_38888" x1="12.8677" y1="3.52442" x2="4.39105" y2="14.6747" gradientUnits="userSpaceOnUse">
<stop stop-color="#591560"/>
<stop offset="1" stop-color="#C55070"/>
</linearGradient>
<linearGradient id="paint15_linear_328_38888" x1="8.73995" y1="19.2358" x2="16.6765" y2="17.6529" gradientUnits="userSpaceOnUse">
<stop stop-color="#C84083"/>
<stop offset="0.43" stop-color="#A53B98"/>
<stop offset="0.53" stop-color="#BB55B6"/>
<stop offset="1" stop-color="#744FD7"/>
</linearGradient>
<linearGradient id="paint16_linear_328_38888" x1="8.43468" y1="22.944" x2="19.6071" y2="20.4941" gradientUnits="userSpaceOnUse">
<stop stop-color="#220633"/>
<stop offset="0.46" stop-color="#3E0E55"/>
<stop offset="1" stop-color="#370E65"/>
</linearGradient>
<linearGradient id="paint17_linear_328_38888" x1="12.0579" y1="3.91822" x2="12.0579" y2="21.1638" gradientUnits="userSpaceOnUse">
<stop stop-color="#C058BB"/>
<stop offset="1" stop-color="#B63781"/>
</linearGradient>
<linearGradient id="paint18_linear_328_38888" x1="15.7301" y1="4.76716" x2="13.1558" y2="21.1759" gradientUnits="userSpaceOnUse">
<stop stop-color="#8C3078"/>
<stop offset="1" stop-color="#E17269"/>
</linearGradient>
<linearGradient id="paint19_linear_328_38888" x1="12.24" y1="3.16486" x2="12.24" y2="20.833" gradientUnits="userSpaceOnUse">
<stop stop-color="#EE919B"/>
<stop offset="1" stop-color="#FBBF84"/>
</linearGradient>
<linearGradient id="paint20_linear_328_38888" x1="9.05978" y1="4.02284" x2="14.2147" y2="20.3379" gradientUnits="userSpaceOnUse">
<stop stop-color="#DB62B6"/>
<stop offset="1" stop-color="#C03F89"/>
</linearGradient>
<linearGradient id="paint21_linear_328_38888" x1="7.83502" y1="17.5901" x2="10.5629" y2="7.14348" gradientUnits="userSpaceOnUse">
<stop stop-color="#9E408C"/>
<stop offset="1" stop-color="#230E79"/>
</linearGradient>
<linearGradient id="paint22_linear_328_38888" x1="11.7733" y1="3.51828" x2="11.7733" y2="20.9708" gradientUnits="userSpaceOnUse">
<stop offset="0.64" stop-color="#260E76"/>
<stop offset="1" stop-color="#9E408C"/>
</linearGradient>
<linearGradient id="paint23_linear_328_38888" x1="12.0353" y1="3.4234" x2="12.0353" y2="20.9996" gradientUnits="userSpaceOnUse">
<stop stop-color="#230D75"/>
<stop offset="1" stop-color="#A04F93"/>
</linearGradient>
<linearGradient id="paint24_linear_328_38888" x1="12.8148" y1="3.10006" x2="11.9537" y2="20.997" gradientUnits="userSpaceOnUse">
<stop stop-color="#57156D"/>
<stop offset="1" stop-color="#DB7391"/>
</linearGradient>
<linearGradient id="paint25_linear_328_38888" x1="17.7884" y1="15.0807" x2="17.2236" y2="17.2306" gradientUnits="userSpaceOnUse">
<stop stop-color="#914089"/>
<stop offset="0.96" stop-color="#D78E83"/>
</linearGradient>
<clipPath id="clip0_328_38888">
<rect width="24" height="24" fill="white"/>
</clipPath>
</defs>
</svg>
