<svg width="24" height="24" viewBox="0 0 24 24" fill="none" xmlns="http://www.w3.org/2000/svg">
<g clip-path="url(#clip0_328_34317)">
<path d="M24 0H0V24H24V0Z" fill="#039607"/>
<path d="M14.8751 4.73604C14.9727 4.73604 15.0664 4.69726 15.1354 4.62824C15.2044 4.55923 15.2431 4.46563 15.2431 4.36802C15.2431 4.27041 15.2044 4.1768 15.1354 4.10778C15.0664 4.03876 14.9727 4 14.8751 4C14.7775 4 14.684 4.03876 14.6149 4.10778C14.5459 4.1768 14.5071 4.27041 14.5071 4.36802C14.5071 4.46563 14.5459 4.55923 14.6149 4.62824C14.684 4.69726 14.7775 4.73604 14.8751 4.73604ZM9.83712 7.08588C9.42887 6.70517 8.90209 6.47647 8.3452 6.43818C7.78829 6.39989 7.23517 6.55433 6.77865 6.87558C6.65979 6.96244 6.55464 7.07217 6.47235 7.20932C6.46778 7.21846 6.45864 7.21846 6.4495 7.20932C6.44035 7.20932 6.43578 7.1956 6.44493 7.18646C6.58207 6.96244 6.74209 6.77044 6.93867 6.60128C7.9321 5.71185 9.19653 5.18354 10.5275 5.10177C10.5915 5.10177 10.628 5.12463 10.628 5.18863C10.6463 6.31327 10.628 7.38304 10.628 8.39795C10.628 8.5031 10.6418 8.61282 10.6235 8.73626C10.6006 8.86427 10.5868 8.8597 10.5778 8.73626C10.5577 8.11141 10.2916 7.51979 9.83712 7.09045V7.08588ZM17.8376 10.8209C17.9427 10.5969 18.0204 10.4232 18.2764 10.318C18.4593 10.2404 18.6833 10.414 18.7793 10.5558C18.9531 10.7981 18.8159 11.1501 18.5508 11.2553C18.3679 11.3238 18.1851 11.2827 18.0159 11.1409C17.9976 11.1261 17.9758 11.1161 17.9526 11.1121C17.9294 11.1081 17.9055 11.1102 17.8833 11.1181C17.289 11.3009 16.6992 11.4929 16.1095 11.6895C15.9905 11.7353 15.8809 11.781 15.7757 11.8495C15.751 11.8644 15.7317 11.8869 15.7209 11.9135C15.6203 12.1696 15.4923 12.3707 15.1768 12.325C14.7015 12.2427 14.738 11.7445 14.93 11.4107C14.9393 11.3958 14.9453 11.3792 14.9476 11.3618C14.95 11.3445 14.9487 11.3269 14.9437 11.3101L14.418 9.49059C14.4112 9.46365 14.3974 9.43895 14.3782 9.4189C14.359 9.39887 14.3349 9.38418 14.3083 9.3763C13.9059 9.26658 13.6362 8.8917 13.9836 8.52595C14.098 8.39795 14.0796 8.22424 14.0523 8.06879L13.7504 6.28583C13.7416 6.21458 13.7129 6.14724 13.6675 6.09149C13.6223 6.03573 13.5624 5.99378 13.4944 5.97039C13.4665 5.95955 13.4426 5.94041 13.4259 5.91553C13.0374 5.34407 13.7596 4.76346 14.2214 5.38522C14.2443 5.41264 14.2671 5.43092 14.2991 5.43092C14.5551 5.49493 15.4191 5.69152 15.6295 5.45836C16.0729 4.97834 16.7724 5.61838 16.329 6.0984C16.0272 6.41842 15.6889 6.2264 15.4969 5.90181C15.4858 5.88345 15.4705 5.86802 15.4522 5.85687C15.4339 5.84572 15.4132 5.83918 15.3917 5.8378C15.0488 5.8058 14.5916 5.66409 14.2854 5.78295C14.0476 5.87439 13.9654 6.09383 14.0248 6.44128C14.1208 6.98988 14.2076 7.52476 14.2854 8.04593C14.3311 8.35224 14.4591 8.36595 14.6511 8.54882C15.026 8.87798 14.5596 9.10657 14.6603 9.45859L15.1357 11.1365C15.1677 11.2415 15.2271 11.3193 15.3185 11.3649C15.5289 11.4655 15.6615 11.5799 15.9037 11.5021C16.5026 11.3101 17.1244 11.1045 17.7644 10.8895C17.7809 10.8841 17.7959 10.8752 17.8086 10.8633C17.8212 10.8515 17.8311 10.837 17.8376 10.8209ZM17.7371 6.83444C17.7931 6.84306 17.8503 6.83946 17.9047 6.82389C17.9592 6.80833 18.0098 6.78116 18.0527 6.74425C18.0958 6.70733 18.1303 6.66156 18.154 6.61005C18.1777 6.55854 18.1899 6.50253 18.1899 6.44584C18.1899 6.38916 18.1777 6.33314 18.154 6.28164C18.1303 6.23013 18.0958 6.18436 18.0527 6.14745C18.0098 6.11054 17.9592 6.08337 17.9047 6.06779C17.8503 6.05223 17.7931 6.04863 17.7371 6.05726C17.6442 6.07153 17.5595 6.11857 17.4984 6.18984C17.4373 6.26112 17.4037 6.35193 17.4037 6.44584C17.4037 6.53975 17.4373 6.63056 17.4984 6.70185C17.5595 6.77313 17.6442 6.82016 17.7371 6.83444Z" fill="white"/>
<path d="M15.5979 7.68918L15.6527 7.83547C15.9315 8.38408 16.2013 8.90982 16.4665 9.41271C16.6265 9.71444 16.9236 9.48585 17.1065 9.85162C17.166 9.97504 17.166 10.0985 17.1065 10.2173C16.9693 10.5053 16.6219 10.6197 16.3567 10.4277C16.1099 10.2447 16.2149 9.9202 16.2744 9.66419C16.283 9.62905 16.2798 9.59209 16.2653 9.559C15.9684 8.94057 15.6481 8.33362 15.3052 7.73946C15.2961 7.72352 15.2827 7.7104 15.2665 7.70154C15.2504 7.69267 15.2322 7.68839 15.2139 7.68918C14.6698 7.68004 14.5098 6.96228 15.0767 6.76569C15.4195 6.64683 15.7213 6.94857 15.6709 7.27773C15.6655 7.29784 15.667 7.31923 15.6753 7.33836C15.6836 7.35748 15.6983 7.37318 15.7167 7.38287L16.5533 7.8949C16.5853 7.9132 16.6173 7.91776 16.6493 7.90862C16.7133 7.89948 16.7728 7.88119 16.8321 7.8629C17.0881 7.76233 17.3442 7.86747 17.4356 8.11891C17.6642 8.77724 16.5945 9.11097 16.5213 8.23778C16.5207 8.22371 16.5171 8.20992 16.5108 8.19731C16.5044 8.18472 16.4956 8.17358 16.4848 8.16463C16.2104 7.95434 15.9315 7.78519 15.6435 7.65261C15.5979 7.62974 15.5887 7.64346 15.5979 7.68918ZM18.391 9.28012C18.4651 9.28012 18.536 9.25074 18.5883 9.19844C18.6406 9.14615 18.67 9.07521 18.67 9.00126C18.67 8.92729 18.6406 8.85636 18.5883 8.80406C18.536 8.75176 18.4651 8.72238 18.391 8.72238C18.3171 8.72238 18.2462 8.75176 18.1939 8.80406C18.1417 8.85636 18.1122 8.92729 18.1122 9.00126C18.1122 9.07521 18.1417 9.14615 18.1939 9.19844C18.2462 9.25074 18.3171 9.28012 18.391 9.28012ZM9.78262 17.8155L9.85119 17.7835C10.4198 17.4804 10.9417 17.0969 11.4011 16.6451L11.9496 16.1056C11.9953 16.06 12.0228 16.069 12.0411 16.133C12.1325 16.6314 12.2513 17.1388 12.2239 17.6417C12.1965 18.3732 12.0136 19.0636 11.6753 19.7173C11.6387 19.795 11.5884 19.8682 11.5382 19.9368C11.4604 20.0328 11.4331 20.019 11.4559 19.9002C11.6021 19.1661 11.5387 18.4055 11.2731 17.7057C11.2273 17.6007 11.1587 17.5777 11.0627 17.6417C10.3855 18.1207 9.65342 18.5166 8.882 18.8212C8.41112 18.9904 7.80308 19.0316 7.58822 18.4601C7.51065 18.2587 7.47037 18.0449 7.46936 17.8292C7.46952 17.7777 7.45764 17.7268 7.4346 17.6808C7.41159 17.6348 7.37807 17.5948 7.33678 17.564L7.03962 17.3446C7.01289 17.3244 6.99047 17.2991 6.97366 17.27C6.95686 17.2412 6.946 17.2092 6.94174 17.1759C6.93749 17.1427 6.93991 17.109 6.94886 17.0767C6.95782 17.0444 6.97313 17.0143 6.9939 16.988L7.08076 16.8828C7.10819 16.8463 7.09904 16.8326 7.05333 16.8371C6.87046 16.8555 6.70132 16.8143 6.54587 16.7183C6.53496 16.7127 6.5253 16.7049 6.51744 16.6955C6.50958 16.686 6.5037 16.6751 6.50015 16.6634C6.45901 16.5263 6.48186 16.3891 6.56416 16.2474C6.60531 16.1788 6.59615 16.101 6.5413 16.0188C6.52569 15.9968 6.50517 15.9787 6.48137 15.966C6.45756 15.9533 6.43113 15.9463 6.40414 15.9456C5.96984 15.9366 5.56753 16.0142 5.3618 15.5296C5.31609 15.429 5.24294 15.3468 5.2978 15.2279L5.8144 14.1535C5.90584 13.9615 5.99728 13.7375 5.87841 13.5409C5.51267 12.9055 5.28408 12.2608 5.19723 11.6026C5.12566 10.9462 5.12566 10.284 5.19723 9.62757H5.22008L5.22923 9.64585C5.28408 10.2173 5.3298 10.8208 5.57668 11.3099C5.57994 11.3165 5.58444 11.3222 5.58993 11.3269C5.59543 11.3316 5.6018 11.3351 5.60868 11.3374C5.61651 11.3393 5.62465 11.3395 5.63256 11.3379C5.64045 11.3363 5.64791 11.333 5.6544 11.3283C5.97319 11.1253 6.33169 10.9928 6.70588 10.9397C7.10362 10.8803 8.00881 10.9259 8.18254 11.3694C8.18632 11.38 8.18743 11.3914 8.18571 11.4026C8.18402 11.4138 8.17957 11.4244 8.17279 11.4334C8.16599 11.4426 8.15707 11.4498 8.1468 11.4546C8.13654 11.4593 8.12526 11.4615 8.11396 11.4608C7.4282 11.3968 6.21214 11.5478 5.90584 12.2746C5.85097 12.398 5.88755 12.43 6.00641 12.366C6.33444 12.1615 6.70872 12.043 7.09466 12.0214C7.48061 11.9998 7.86576 12.0759 8.21454 12.2426C8.24654 12.2608 8.25111 12.2792 8.22825 12.3112C7.86471 12.7468 7.6396 13.2812 7.58176 13.8456C7.52393 14.4101 7.63602 14.9789 7.90366 15.4794C8.05453 15.7719 8.26025 15.9822 8.52084 16.1148C8.55284 16.1286 8.58484 16.133 8.61684 16.1148C8.754 16.069 8.882 15.9914 8.98715 15.8862C9.57966 15.3216 9.96596 14.5748 10.0844 13.7649C10.088 13.7595 10.0927 13.7548 10.0982 13.7514C10.1038 13.7479 10.1101 13.7456 10.1166 13.7447C10.1231 13.7438 10.1297 13.7444 10.136 13.7463C10.1422 13.7482 10.1481 13.7515 10.153 13.7559C10.4638 13.9935 10.7838 14.1719 11.1131 14.2907C11.1404 14.3045 11.1587 14.3227 11.1633 14.3501C11.1862 14.4689 11.1633 14.5696 11.2136 14.6885C11.2776 14.8347 11.3964 14.9581 11.5519 15.0449C11.5767 15.0577 11.5958 15.0795 11.6051 15.1059C11.6145 15.1322 11.6134 15.1611 11.6022 15.1867C11.1817 16.1666 10.5512 17.0421 9.75519 17.7515C9.69118 17.8063 9.7049 17.8292 9.78262 17.8155ZM6.43615 15.3468C6.42282 15.3297 6.41486 15.309 6.41329 15.2874L6.39044 13.9159C6.39044 13.8289 6.37672 13.8244 6.34472 13.9021C6.25785 14.1124 6.18928 14.3273 6.13442 14.5421C6.07042 14.7936 6.06585 15.0587 5.98356 15.3056C5.98001 15.3146 5.97837 15.3242 5.97879 15.3338C5.97921 15.3434 5.98166 15.353 5.98597 15.3616C5.99029 15.3702 5.99637 15.3778 6.00384 15.3839C6.01129 15.3901 6.01997 15.3946 6.02928 15.397L6.42244 15.4794C6.42952 15.4813 6.43697 15.4814 6.44413 15.4798C6.45129 15.4782 6.45796 15.4749 6.46358 15.4702C6.46986 15.4646 6.47446 15.4574 6.47687 15.4493C6.4793 15.4412 6.47945 15.4326 6.4773 15.4246C6.46753 15.3971 6.45194 15.3722 6.43158 15.3514L6.43615 15.3468Z" fill="white"/>
<path d="M12.0223 14.849C12.507 14.9495 12.8224 14.7484 12.818 14.2454C12.818 14.2089 12.8316 14.1814 12.8636 14.1632C12.923 14.1266 12.987 14.1084 13.0556 14.0901C13.106 14.0764 13.1562 14.0672 13.2064 14.0444C13.6359 13.8767 14.0084 13.5895 14.2797 13.2169C14.5512 12.8442 14.7102 12.4016 14.7381 11.9413C14.7654 11.5757 14.6785 11.1733 14.4729 10.7253C14.3814 10.5104 14.2077 10.3138 14.0431 10.1172C13.9517 10.0122 13.8557 9.9024 13.7734 9.79274C13.515 9.45115 13.371 9.03678 13.362 8.60863C13.371 7.39713 13.371 4.71355 13.371 4.71355C13.371 4.48954 12.9596 4.43924 12.7768 4.43011C12.3333 4.40268 11.6338 4.3661 11.1995 4.53069C11.1702 4.54123 11.1446 4.56034 11.1263 4.58555L11.1218 4.59925C11.1035 4.62212 11.0853 4.64498 11.0853 4.67241V8.22461C11.0853 8.66806 11.0669 9.10236 10.8566 9.52753C10.7606 9.73321 10.6052 9.9024 10.4589 10.0762C10.34 10.2042 10.2303 10.3322 10.1389 10.4784C9.84184 10.8975 9.69274 11.4036 9.71508 11.9168C9.73743 12.43 9.93002 12.9212 10.2623 13.3129C10.5986 13.7219 11.054 14.016 11.5653 14.1541C11.6018 14.1632 11.6247 14.1906 11.6338 14.2272C11.6475 14.273 11.6521 14.3186 11.6521 14.3644C11.6521 14.5975 11.7619 14.7941 12.0179 14.849H12.0223ZM12.9688 8.3389C12.9962 8.3389 13.0236 8.34804 13.0464 8.36632C13.106 8.42576 13.1014 8.48062 13.0328 8.53548C13.0169 8.54735 12.9977 8.55377 12.978 8.55377H11.7253C11.7116 8.55331 11.6981 8.55645 11.686 8.56287C11.674 8.56929 11.6638 8.57877 11.6567 8.59033C11.611 8.68178 11.5698 8.7732 11.5515 8.86463C11.4972 9.11086 11.3807 9.33909 11.2133 9.52753C11.1583 9.59153 11.1401 9.58697 11.1675 9.50468C11.2955 9.16637 11.3641 8.80521 11.3823 8.41204C11.3823 8.38919 11.3961 8.3709 11.4098 8.35719C11.4259 8.34231 11.4473 8.33415 11.4693 8.33432H12.9734L12.9688 8.3389ZM13.435 10.6018C13.5913 10.7532 13.7155 10.9343 13.8004 11.1346C13.8852 11.3349 13.9289 11.5502 13.9289 11.7677C13.9289 11.9851 13.8852 12.2004 13.8004 12.4007C13.7155 12.601 13.5913 12.7821 13.435 12.9334C13.235 13.1268 12.9915 13.2692 12.7249 13.3488C12.4583 13.4284 12.1766 13.4429 11.9033 13.3908C11.63 13.3389 11.3731 13.222 11.1545 13.0502C10.9357 12.8782 10.7615 12.6564 10.6463 12.4032C10.5159 12.1008 10.4819 11.7655 10.549 11.4433C10.6161 11.1209 10.781 10.827 11.0213 10.6018C11.345 10.2897 11.7784 10.1173 12.2282 10.1218C12.6853 10.1218 13.115 10.2956 13.435 10.6018ZM12.1275 14.5335C12.1139 14.5793 12.091 14.6066 12.0635 14.6113C12.0499 14.6158 12.0315 14.6113 12.0179 14.6066C11.9999 14.5962 11.9844 14.5822 11.9721 14.5655C11.9541 14.5464 11.9387 14.5249 11.9263 14.5015C11.9163 14.4764 11.9086 14.4504 11.9035 14.4238C11.8895 14.3715 11.8879 14.3167 11.899 14.2638C11.9081 14.2181 11.9355 14.1906 11.963 14.1861L12.0087 14.1906C12.027 14.1998 12.0407 14.2134 12.0543 14.2318C12.0727 14.2501 12.0863 14.2684 12.1001 14.2958L12.123 14.3734C12.1367 14.433 12.1367 14.4878 12.123 14.5335H12.1275ZM13.6682 11.7723C13.6682 12.5357 13.0236 13.1574 12.2282 13.1574C11.8543 13.1636 11.4932 13.0212 11.224 12.7616C10.955 12.5019 10.7998 12.1462 10.7926 11.7723C10.7926 11.0042 11.4326 10.3824 12.2282 10.3824C12.4141 10.3788 12.5988 10.4118 12.7719 10.4798C12.945 10.5478 13.103 10.6492 13.2368 10.7783C13.3705 10.9074 13.4775 11.0617 13.5515 11.2323C13.6256 11.4029 13.6652 11.5863 13.6682 11.7723Z" fill="white"/>
<path d="M16.841 13.2489C16.7405 13.5094 16.649 13.802 16.5667 14.1311C16.5302 14.2683 16.6125 14.369 16.6765 14.4832C16.7678 14.634 16.745 14.8398 16.6582 14.9952C16.5347 15.2147 16.201 15.2055 16.009 15.1004C15.8946 15.041 15.7713 15.0638 15.6616 15.1187L13.6865 16.1427C13.5815 16.1975 13.5677 16.353 13.5585 16.4627C13.5311 16.7141 13.1928 16.8879 12.9597 16.8011C12.603 16.6639 12.4614 16.225 12.763 15.9553C12.946 15.7953 13.2385 15.841 13.4397 15.9141C13.4723 15.9261 13.5071 15.9311 13.5418 15.9287C13.5764 15.9264 13.6102 15.9168 13.6409 15.9005L15.593 14.8764C15.7393 14.7986 15.8033 14.6066 15.8581 14.4558C15.8693 14.4229 15.8881 14.3931 15.913 14.369C16.0638 14.2272 16.2466 14.3003 16.3382 14.0489C16.4478 13.7289 16.5302 13.4318 16.5713 13.1666C16.5754 13.1411 16.5728 13.1152 16.5636 13.0912C16.5544 13.0671 16.5392 13.046 16.5192 13.0298C16.4993 13.0136 16.4755 13.0029 16.4501 12.9987C16.4247 12.9947 16.3987 12.9974 16.3747 13.0066C15.977 13.1619 15.5701 13.3311 15.1586 13.5094C15.0306 13.5689 14.9026 13.6329 14.8341 13.77C14.6375 14.1494 14.3129 14.1586 14.1072 13.7791C14.0954 13.755 14.0893 13.7284 14.0893 13.7014C14.0893 13.6745 14.0954 13.6479 14.1072 13.6238C14.1666 13.482 14.2717 13.3859 14.4181 13.3357C14.4445 13.3259 14.4738 13.3259 14.5004 13.3357C14.6557 13.3951 14.8066 13.3951 14.9576 13.3357C15.3232 13.1894 15.7118 13.0203 16.137 12.8329C16.2833 12.7689 16.3245 12.6042 16.3656 12.4671C16.425 12.2659 16.5942 12.1425 16.8045 12.1471C17.0879 12.1562 17.2707 12.2979 17.3485 12.5813C17.4217 12.8557 17.1427 13.0706 16.9187 13.1666C16.9006 13.1739 16.8843 13.1851 16.871 13.1993C16.8576 13.2134 16.8474 13.2304 16.841 13.2489ZM17.7279 13.9438C17.7923 13.9438 17.8538 13.9183 17.8992 13.8728C17.9447 13.8274 17.9703 13.7657 17.9703 13.7014C17.9703 13.6372 17.9447 13.5755 17.8992 13.5301C17.8538 13.4846 17.7923 13.4591 17.7279 13.4591C17.6637 13.4591 17.602 13.4846 17.5566 13.5301C17.5111 13.5755 17.4857 13.6372 17.4857 13.7014C17.4857 13.7657 17.5111 13.8274 17.5566 13.8728C17.602 13.9183 17.6637 13.9438 17.7279 13.9438ZM15.1632 17.0525C15.2784 17.0525 15.3889 17.0067 15.4703 16.9253C15.5518 16.8438 15.5976 16.7333 15.5976 16.6181C15.5976 16.5029 15.5518 16.3925 15.4703 16.311C15.3889 16.2297 15.2784 16.1839 15.1632 16.1839C15.048 16.1839 14.9376 16.2297 14.8561 16.311C14.7747 16.3925 14.7289 16.5029 14.7289 16.6181C14.7289 16.7333 14.7747 16.8438 14.8561 16.9253C14.9376 17.0067 15.048 17.0525 15.1632 17.0525Z" fill="white"/>
</g>
<defs>
<clipPath id="clip0_328_34317">
<rect width="24" height="24" fill="white"/>
</clipPath>
</defs>
</svg>
