<svg width="24" height="24" viewBox="0 0 24 24" fill="none" xmlns="http://www.w3.org/2000/svg">
<g clip-path="url(#clip0_328_34327)">
<path d="M24 0H0V24H24V0Z" fill="#308D8A"/>
<path d="M10.4894 9.47091C12.005 7.95537 13.5205 6.43984 15.6627 6.04429C18.6182 5.64874 20.6405 7.95094 19.8137 11.022C19.6648 11.6346 19.3825 12.2067 18.9871 12.6975L18.9782 12.7109C18.7915 12.9464 18.5337 13.2797 18.2761 13.4265C18.3293 13.6798 18.4005 13.9287 18.467 14.1776V14.1819L18.5205 14.3598L18.5516 14.4664L18.5693 14.5286C18.6226 14.7286 18.6805 14.9286 18.7249 15.1286C18.7382 15.1998 18.7293 15.2708 18.6982 15.3375C18.7693 15.533 18.6581 15.8042 18.3649 15.7997C17.7871 15.8753 17.2094 15.933 16.636 15.9865C15.6255 16.0695 14.6199 16.2031 13.6227 16.3864C11.8362 16.6975 10.0939 17.2397 8.43613 17.9998C8.39981 17.9992 8.36401 17.991 8.33107 17.9757C8.29814 17.9603 8.26881 17.9382 8.24502 17.9109C8.20386 17.907 8.16422 17.8932 8.12946 17.8708C8.09434 17.851 8.064 17.8237 8.04058 17.7908C7.88058 17.4886 7.78725 17.1508 7.68946 16.813C7.61696 16.5369 7.52791 16.2652 7.42281 15.9998C7.3917 15.933 7.36947 15.8619 7.3517 15.7909C6.84504 15.9242 6.32058 15.942 5.80504 15.8442C3.60951 15.5198 3.58284 13.2398 4.83617 11.7598C5.62282 10.8709 6.89838 10.5687 8.01391 10.6666C8.08946 10.6842 8.1828 10.6976 8.28947 10.7109C8.52502 10.7465 8.80502 10.7865 9.00946 10.8886C9.51611 10.4398 10.0005 9.95536 10.485 9.47536V9.47091H10.4894ZM17.9693 12.8575C18.1915 12.6798 18.3826 12.4753 18.5516 12.2442C19.396 11.1198 19.676 9.40869 19.0093 8.12427C18.6138 7.27983 17.7161 6.87983 16.8761 6.70206C15.2005 6.43539 13.6005 7.4576 12.365 8.55538C11.8234 9.03322 11.3015 9.5329 10.8006 10.0531C9.99166 10.8709 9.18278 11.6887 8.23169 12.3198C7.89392 12.542 7.56058 12.0086 7.89835 11.7731C8.0717 11.6531 8.24058 11.5287 8.40502 11.3954C7.36947 11.191 6.22726 11.3421 5.41394 12.0709C4.8095 12.702 4.27618 13.9064 4.88061 14.702C5.78282 15.5242 7.16503 15.3108 8.14724 14.7598C8.18384 14.7423 8.2236 14.7325 8.2641 14.731C8.30461 14.7294 8.345 14.7362 8.3828 14.7509C8.4628 14.7775 8.52502 14.8397 8.56057 14.9153C8.69391 15.2798 8.28057 15.4576 7.92946 15.5864C8.08058 15.9286 8.19169 16.2886 8.30279 16.653V16.6575C8.36502 16.8664 8.43169 17.0797 8.50279 17.2798C8.9739 17.0131 9.48945 16.8353 10.0005 16.662C10.8954 16.3447 11.8098 16.0864 12.7383 15.8886C14.0026 15.6242 15.2821 15.4386 16.5693 15.3331H16.5738C17.0805 15.2798 17.5871 15.2309 18.0893 15.1686C18.0449 15.0086 18.0004 14.8531 17.9649 14.6931C17.9019 14.4398 17.8337 14.1879 17.7604 13.9375C17.7161 13.7776 17.6626 13.6042 17.6581 13.4531C17.0967 13.4019 16.5321 13.3944 15.9694 13.4309C15.7915 13.4382 15.6137 13.447 15.4361 13.4576C14.8761 13.4931 14.3338 13.5554 13.7738 13.693C13.4806 13.7686 13.1961 13.862 12.9027 13.9598H12.8982L12.8405 13.9775L12.5427 14.0754C12.5047 14.0876 12.4646 14.0919 12.4249 14.0881C12.3851 14.0842 12.3466 14.0723 12.3116 14.0531C12.2753 14.0335 12.2433 14.007 12.2174 13.975C12.1914 13.9429 12.1722 13.906 12.1605 13.8665C12.1425 13.8053 12.1421 13.7404 12.1594 13.679C12.1767 13.6177 12.2109 13.5624 12.2583 13.5198C12.2894 13.4931 12.325 13.4753 12.3606 13.462C12.8965 13.2629 13.446 13.1025 14.005 12.982C14.4538 12.902 14.9072 12.8486 15.3605 12.8087C15.7382 12.3286 15.796 11.6309 15.5961 11.0576C15.4849 10.6576 16.0538 10.462 16.1782 10.862C16.2538 11.1154 16.3027 11.3731 16.3294 11.6353C16.3738 11.8442 16.2761 12.3465 16.0983 12.7731C16.3294 12.7642 16.565 12.7642 16.796 12.7686C17.0297 12.5365 17.2009 12.2491 17.2938 11.9331C17.356 11.6842 17.3871 11.4354 17.396 11.1776C17.4404 10.7642 18.036 10.822 18.0004 11.2442C18.0182 11.5642 17.876 12.3242 17.6004 12.8087L17.7026 12.8175C17.7915 12.8175 17.8804 12.8354 17.9693 12.862V12.8575ZM9.56945 15.3331C10.1679 15.0766 10.7881 14.8742 11.4228 14.7286C11.805 14.6086 11.9828 15.2175 11.6005 15.3419L11.3917 15.3953C10.9126 15.5011 10.444 15.6499 9.99166 15.8397C9.89389 15.8575 9.78278 15.9198 9.67611 15.9775L9.66723 15.982C9.43167 16.1153 9.19168 16.2486 9.00946 15.9998C8.81835 15.6398 9.21834 15.4753 9.49389 15.3642L9.56945 15.3331Z" fill="white"/>
</g>
<defs>
<clipPath id="clip0_328_34327">
<rect width="24" height="24" fill="white"/>
</clipPath>
</defs>
</svg>
