<svg width="24" height="24" viewBox="0 0 24 24" fill="none" xmlns="http://www.w3.org/2000/svg">
<g clip-path="url(#clip0_328_34327)">
<path d="M24 0H0V24H24V0Z" fill="#308D8A"/>
<path d="M10.3006 9.15478C12.0056 7.44979 13.7106 5.74482 16.1206 5.29983C19.4455 4.85483 21.7206 7.44481 20.7904 10.8997C20.6229 11.5889 20.3053 12.2325 19.8605 12.7847L19.8505 12.7997C19.6405 13.0647 19.3504 13.4396 19.0606 13.6048C19.1205 13.8898 19.2006 14.1698 19.2754 14.4498V14.4546L19.3356 14.6548L19.3706 14.7747L19.3905 14.8447C19.4504 15.0697 19.5156 15.2947 19.5655 15.5197C19.5805 15.5998 19.5705 15.6796 19.5355 15.7547C19.6155 15.9746 19.4904 16.2797 19.1605 16.2747C18.5105 16.3597 17.8606 16.4246 17.2155 16.4848C16.0787 16.5782 14.9474 16.7285 13.8256 16.9347C11.8157 17.2847 9.85565 17.8947 7.99064 18.7498C7.94978 18.7491 7.90951 18.7399 7.87245 18.7227C7.8354 18.7053 7.80241 18.6805 7.77564 18.6498C7.72934 18.6454 7.68474 18.6298 7.64564 18.6046C7.60613 18.5824 7.572 18.5517 7.54565 18.5146C7.36565 18.1747 7.26065 17.7946 7.15064 17.4146C7.06908 17.104 6.96889 16.7983 6.85066 16.4998C6.81566 16.4246 6.79065 16.3446 6.77066 16.2648C6.20066 16.4147 5.61066 16.4347 5.03067 16.3247C2.5607 15.9598 2.5307 13.3948 3.94069 11.7298C4.82568 10.7297 6.26067 10.3898 7.51564 10.4999C7.60064 10.5197 7.70565 10.5348 7.82565 10.5497C8.09064 10.5898 8.40564 10.6348 8.63564 10.7497C9.20562 10.2448 9.75057 9.69978 10.2956 9.15978V9.15478H10.3006ZM18.7155 12.9647C18.9655 12.7648 19.1804 12.5347 19.3706 12.2747C20.3205 11.0098 20.6355 9.08478 19.8855 7.6398C19.4405 6.68981 18.4306 6.23981 17.4856 6.03982C15.6006 5.73981 13.8006 6.8898 12.4106 8.1248C11.8013 8.66237 11.2142 9.22452 10.6507 9.80972C9.74062 10.7297 8.83063 11.6498 7.76065 12.3598C7.38066 12.6097 7.00565 12.0097 7.38564 11.7447C7.58066 11.6097 7.77065 11.4698 7.95564 11.3198C6.79065 11.0899 5.50567 11.2598 4.59069 12.0797C3.91069 12.7897 3.31071 14.1447 3.99069 15.0397C5.00568 15.9647 6.56065 15.7246 7.66564 15.1048C7.70682 15.0851 7.75155 15.0741 7.79711 15.0724C7.84268 15.0706 7.88812 15.0782 7.93065 15.0948C8.02065 15.1247 8.09064 15.1946 8.13064 15.2797C8.28065 15.6898 7.81564 15.8898 7.42064 16.0347C7.59065 16.4197 7.71565 16.8247 7.84064 17.2346V17.2397C7.91064 17.4747 7.98565 17.7147 8.06564 17.9398C8.59563 17.6397 9.17563 17.4397 9.75057 17.2447C10.7573 16.8878 11.786 16.5972 12.8306 16.3747C14.2529 16.0772 15.6924 15.8684 17.1405 15.7497H17.1455C17.7156 15.6898 18.2855 15.6348 18.8505 15.5647C18.8005 15.3847 18.7505 15.2097 18.7105 15.0297C18.6397 14.7448 18.5629 14.4614 18.4805 14.1797C18.4306 13.9998 18.3704 13.8047 18.3654 13.6347C17.7338 13.5771 17.0986 13.5687 16.4656 13.6097C16.2655 13.618 16.0654 13.6279 15.8656 13.6398C15.2356 13.6797 14.6255 13.7498 13.9955 13.9046C13.6657 13.9897 13.3456 14.0947 13.0156 14.2048H13.0105L12.9456 14.2247L12.6106 14.3348C12.5678 14.3485 12.5227 14.3534 12.478 14.3491C12.4333 14.3447 12.3899 14.3313 12.3506 14.3097C12.3097 14.2877 12.2737 14.2579 12.2446 14.2219C12.2153 14.1857 12.1937 14.1442 12.1806 14.0998C12.1603 14.0309 12.1599 13.9579 12.1793 13.8889C12.1988 13.8199 12.2373 13.7577 12.2906 13.7098C12.3256 13.6797 12.3656 13.6597 12.4057 13.6447C13.0086 13.4207 13.6268 13.2403 14.2556 13.1047C14.7605 13.0147 15.2706 12.9547 15.7806 12.9098C16.2055 12.3697 16.2705 11.5847 16.0456 10.9398C15.9205 10.4898 16.5605 10.2697 16.7005 10.7197C16.7855 11.0048 16.8406 11.2947 16.8706 11.5897C16.9205 11.8247 16.8106 12.3898 16.6106 12.8697C16.8706 12.8597 17.1356 12.8597 17.3955 12.8647C17.6584 12.6035 17.851 12.2802 17.9555 11.9247C18.0255 11.6447 18.0605 11.3648 18.0705 11.0748C18.1205 10.6097 18.7905 10.6747 18.7505 11.1497C18.7705 11.5097 18.6105 12.3647 18.3005 12.9098L18.4154 12.9197C18.5155 12.9197 18.6155 12.9398 18.7155 12.9697V12.9647ZM9.26563 15.7497C9.9389 15.4612 10.6366 15.2335 11.3507 15.0697C11.7806 14.9347 11.9807 15.6197 11.5506 15.7596L11.3157 15.8197C10.7767 15.9387 10.2495 16.1061 9.74062 16.3197C9.63062 16.3397 9.50563 16.4098 9.38562 16.4747L9.37563 16.4797C9.11063 16.6297 8.84064 16.7797 8.63564 16.4998C8.42064 16.0948 8.87063 15.9097 9.18062 15.7847L9.26563 15.7497Z" fill="white"/>
</g>
<defs>
<clipPath id="clip0_328_34327">
<rect width="24" height="24" fill="white"/>
</clipPath>
</defs>
</svg>
