<svg width="24" height="24" viewBox="0 0 24 24" fill="none" xmlns="http://www.w3.org/2000/svg">
<g clip-path="url(#clip0_328_34346)">
<path d="M24 0H0V24H24V0Z" fill="#AFD803"/>
<path d="M13.3999 14.7693C12.6099 16.6342 11.0899 17.8691 9.24493 18.0541C9.20492 18.0541 8.69493 18.0992 8.41992 18.0791C9.84549 19.0528 11.4789 19.6795 13.1899 19.9092C13.7399 19.9641 14.3649 20.0091 14.9899 19.9942C15.2149 19.4292 15.3399 18.7792 15.3049 18.0441C15.2198 16.3341 16.2299 15.4542 17.3249 15.0042C16.7696 14.1193 16.3435 13.1596 16.0599 12.1543C15.2049 12.3792 14.1199 13.0793 13.4048 14.7693H13.3999Z" fill="white"/>
<path d="M15.2701 18.0302C15.2991 18.7032 15.185 19.3746 14.9351 20.0002C16.555 19.9603 18.2501 19.5002 18.6851 17.7752C18.7751 17.4052 18.785 17.0052 18.6351 16.6602C18.4851 16.3252 18.2 16.0652 17.945 15.7953C17.705 15.5402 17.49 15.2602 17.295 14.9702C16.205 15.4202 15.1851 16.3202 15.2701 18.0302Z" fill="white"/>
<path d="M16.0006 11.9653C15.7506 11.3153 15.5405 10.6551 15.2205 10.0452C14.8341 9.3539 14.3453 8.72513 13.7705 8.18022C13.026 8.19887 12.2876 8.04125 11.6155 7.72021C10.9155 8.69021 10.1255 10.3303 10.8505 12.2001C11.9255 14.9651 9.75058 16.8551 8.35059 18.0252L8.42058 18.0751C8.68058 18.1002 8.94558 18.0952 9.20557 18.0652C11.0555 17.8801 12.6605 16.6151 13.4556 14.7551C14.1755 13.0652 15.2205 12.4252 16.0706 12.2051L16.0006 11.9653Z" fill="white"/>
<path d="M6.86505 8.28418C5.798 9.47698 5.22115 11.0289 5.25006 12.6291C5.26734 13.6641 5.5608 14.6756 6.10005 15.5591C8.35003 13.3442 7.54005 10.0391 6.86505 8.28418Z" fill="white"/>
<path d="M10.8904 12.1992C10.1654 10.3244 10.9404 8.69933 11.6303 7.72934C11.1755 7.49974 10.7696 7.18387 10.4353 6.79935C9.75063 6.78532 9.07079 6.91767 8.44134 7.18756C7.81187 7.45746 7.24732 7.85866 6.78541 8.36434C7.4454 10.0844 8.2404 13.3142 6.04541 15.4793C6.64553 16.4869 7.44316 17.3628 8.39039 18.0543C9.78537 16.8842 11.9653 14.9643 10.8904 12.2043V12.1992Z" fill="white"/>
<path d="M13.6003 5.73453C15.1203 6.32453 16.1854 6.48454 16.9603 6.45953L16.9803 6.44454C14.1053 1.62458 10.3403 5.41953 10.3403 5.41953L10.3453 5.42954C11.4358 5.23248 12.5593 5.3362 13.5954 5.72954L13.6003 5.73453Z" fill="white"/>
<path d="M13.6202 5.69938C12.3552 5.20937 11.1702 5.22938 10.3452 5.42938C12.5102 9.15434 16.6201 6.66937 16.9551 6.45937C16.1851 6.48437 15.1402 6.28937 13.6202 5.69938Z" fill="white"/>
</g>
<defs>
<clipPath id="clip0_328_34346">
<rect width="24" height="24" fill="white"/>
</clipPath>
</defs>
</svg>
