<svg width="25" height="24" viewBox="0 0 25 24" fill="none" xmlns="http://www.w3.org/2000/svg">
<g clip-path="url(#clip0_328_32306)">
<path d="M24.5 0H0.5V24H24.5V0Z" fill="black"/>
<path d="M13.325 6.73999L13.735 4.09499C13.3299 4.02999 12.915 4 12.4999 4H12.495V9.39998H12.4999C12.73 9.39998 12.9499 9.42998 13.17 9.48498L13.87 6.85498C13.6899 6.80498 13.5099 6.76998 13.325 6.73999ZM11.1999 9.74994L9.84998 7.43498C9.69998 7.52499 9.53998 7.62498 9.39498 7.73498L7.78999 5.53499C8.12498 5.28498 8.48498 5.06499 8.85498 4.875L10.08 7.25998C10.33 7.13498 10.58 7.02498 10.8449 6.93999L10.015 4.38999C10.4134 4.26155 10.8214 4.16459 11.235 4.09999L11.665 6.78998C11.485 6.81498 11.305 6.85498 11.125 6.90499L11.825 9.48998C11.605 9.54498 11.395 9.63498 11.1999 9.74994ZM5.36498 8.37498L7.79498 9.60998C7.66998 9.85995 7.55998 10.11 7.47499 10.375L4.885 9.53498C5.015 9.13498 5.17499 8.74998 5.36498 8.37498ZM17.065 9.34998L14.75 10.6999C14.865 10.895 14.9499 11.1 15.0099 11.32L17.595 10.62C17.645 10.7999 17.685 10.9799 17.7099 11.16L20.3999 10.735C20.3349 10.32 20.235 9.91 20.105 9.50998L17.555 10.3449C17.475 10.08 17.365 9.82495 17.24 9.57498L19.62 8.34998C19.4299 7.97999 19.2099 7.61998 18.9649 7.28498L16.765 8.88998C16.875 9.03998 16.975 9.18998 17.065 9.34998ZM14.96 4.385C15.3599 4.515 15.7499 4.67499 16.12 4.86498L14.885 7.28999C14.64 7.16498 14.385 7.05998 14.125 6.97499L14.96 4.385ZM15.155 7.38499L13.795 9.74503C13.995 9.85995 14.175 9.99494 14.335 10.16L18.145 6.33499C17.8499 6.03498 17.5299 5.76498 17.195 5.51998L15.62 7.68998C15.4699 7.57998 15.315 7.47998 15.155 7.38998V7.38499ZM10.245 10.705L7.88499 9.34498C7.97998 9.18498 8.08498 9.02998 8.18998 8.87998L6.01998 7.30498C6.26999 6.96499 6.53999 6.64499 6.83499 6.35499L10.66 10.165C10.4999 10.325 10.36 10.505 10.245 10.705ZM7.35498 10.6299L9.98498 11.3299C9.92998 11.545 9.89998 11.77 9.89998 11.9999H4.5C4.5 11.585 4.52999 11.165 4.59999 10.76L7.23999 11.17C7.26998 10.99 7.30999 10.805 7.35498 10.6299ZM17.205 14.39L19.6349 15.625C19.825 15.2499 19.9849 14.8599 20.115 14.465L17.525 13.625C17.4399 13.885 17.3299 14.145 17.205 14.39ZM13.805 14.25L15.145 16.565C15.305 16.475 15.46 16.375 15.6049 16.265L17.21 18.4649C16.875 18.7149 16.5149 18.935 16.145 19.125L14.92 16.74C14.6699 16.865 14.4199 16.975 14.15 17.06L14.985 19.61C14.585 19.735 14.175 19.8349 13.7599 19.8999L13.335 17.2099C13.515 17.185 13.695 17.145 13.875 17.095L13.175 14.5099C13.395 14.4499 13.605 14.365 13.8 14.25H13.805ZM7.93498 14.6499L10.2499 13.3C10.135 13.1099 10.05 12.8999 9.98998 12.68L7.40499 13.38C7.35498 13.2 7.31498 13.02 7.28998 12.8399L4.59999 13.265C4.66499 13.6799 4.76499 14.0899 4.895 14.49L7.44498 13.655C7.52998 13.9199 7.63498 14.175 7.75998 14.425L5.37999 15.65C5.56999 16.0199 5.78999 16.38 6.03499 16.7149L8.23498 15.1099C8.12498 14.96 8.02499 14.81 7.93498 14.6499ZM10.04 19.615C9.63998 19.4849 9.24998 19.325 8.87998 19.1349L10.11 16.71C10.3599 16.835 10.615 16.9399 10.875 17.025L10.04 19.615ZM9.84498 16.615L11.205 14.255C11.005 14.14 10.825 14.005 10.665 13.8449L6.85499 17.6699C7.14998 17.96 7.46998 18.235 7.80498 18.4799L9.37998 16.315C9.52998 16.42 9.68498 16.52 9.84498 16.615ZM14.755 13.295L17.1099 14.655C17.02 14.82 16.92 14.975 16.81 15.125L18.975 16.695C18.7299 17.035 18.46 17.355 18.165 17.65L14.34 13.835C14.5 13.675 14.64 13.495 14.755 13.295ZM11.8299 14.515L11.1299 17.145C11.31 17.195 11.49 17.23 11.675 17.26L11.265 19.9049C11.67 19.9699 12.085 20 12.4999 20H12.505V14.6H12.4999C12.275 14.6 12.05 14.57 11.8299 14.515ZM15.015 12.67C15.07 12.455 15.1 12.23 15.1 11.9999H20.5C20.5 12.415 20.4699 12.835 20.3999 13.24L17.76 12.8299C17.73 13.0099 17.69 13.195 17.645 13.37L15.015 12.67Z" fill="white"/>
</g>
<defs>
<clipPath id="clip0_328_32306">
<rect width="24" height="24" fill="white" transform="translate(0.5)"/>
</clipPath>
</defs>
</svg>
