<svg width="24" height="24" viewBox="0 0 24 24" fill="none" xmlns="http://www.w3.org/2000/svg">
<g clip-path="url(#clip0_328_54619)">
<path d="M24 0H0V24H24V0Z" fill="white"/>
<path d="M10.2 6.23633L9.49997 6.35133C8.62777 5.76085 7.71186 5.23771 6.76015 4.78644C6.63016 4.72145 6.52516 4.68644 6.43517 4.67645C6.38895 4.67085 6.34235 4.6834 6.30518 4.71145C6.28723 4.72531 6.27222 4.74262 6.26106 4.76237C6.24989 4.78212 6.2428 4.8039 6.24019 4.82644C6.0672 6.02403 6.04871 7.23888 6.18519 8.44119L6.44517 9.56112L6.1602 9.86113C6.13856 9.86067 6.11707 9.86487 6.09723 9.8735C6.07737 9.88213 6.05962 9.89496 6.04519 9.91107C5.9452 9.94606 5.8952 9.99109 5.8952 10.0611C5.85521 10.0911 5.81521 10.0911 5.78521 10.0611C5.51022 10.046 5.24525 10.1811 5.26025 10.476C5.27712 10.7159 5.27377 10.9568 5.25026 11.1961L5.27524 11.246C5.32524 11.296 5.40523 11.316 5.51022 11.301C5.58523 11.751 5.59022 12.211 5.53024 12.6809L4.70528 12.9309C4.66028 12.9459 4.64029 12.9309 4.64528 12.8808C4.70029 12.1359 4.86527 11.336 5.14526 10.481C5.31524 9.94606 5.51524 9.49112 5.74521 9.11615C5.76786 9.08239 5.7768 9.04127 5.77021 9.00115C5.5804 7.91881 5.52833 6.81679 5.61522 5.72137C5.65022 5.1964 5.73521 4.68644 5.8652 4.18648C5.87264 4.15541 5.8862 4.12614 5.90508 4.10039C5.92396 4.07463 5.9478 4.05291 5.9752 4.03649C6.00432 4.01936 6.03661 4.00831 6.07013 4.00401C6.10365 3.99971 6.13768 4.00226 6.1702 4.01149C6.37018 4.07148 6.56516 4.14148 6.76515 4.23147C7.9813 4.77056 9.13476 5.44117 10.2049 6.23134L10.2 6.23633ZM18.3244 12.6259L18.3293 11.356C18.5994 11.286 18.6943 10.966 18.6093 10.406C18.6035 10.3478 18.5816 10.2923 18.5464 10.2456C18.5112 10.1989 18.4637 10.1627 18.4094 10.1411C18.2743 10.081 18.1493 10.0411 18.0344 10.011H17.9894C17.9443 9.97114 17.8844 9.93615 17.8043 9.91107L17.6795 9.73608C17.7144 9.45113 17.8094 9.25115 17.9544 9.14115C17.97 9.13106 17.9824 9.11683 17.9904 9.10004C17.9983 9.08326 18.0014 9.06462 17.9994 9.04616C17.9819 8.86359 17.8941 8.69503 17.7544 8.57619C17.8644 7.35127 17.9094 6.07135 17.7044 4.86644C17.6996 4.83764 17.688 4.8104 17.6707 4.78693C17.6533 4.76348 17.6306 4.74446 17.6044 4.73145C17.578 4.71825 17.5489 4.71138 17.5194 4.71138C17.4899 4.71138 17.4608 4.71825 17.4344 4.73145C16.3796 5.21641 15.3845 5.76636 14.4646 6.36633L13.7647 6.20134C14.5237 5.64582 15.3186 5.1414 16.1446 4.69145C16.6444 4.42146 17.1744 4.19648 17.7444 4.01149C17.7903 3.99772 17.8394 3.99747 17.8855 4.01076C17.9315 4.02407 17.9728 4.05035 18.0044 4.08647C18.0294 4.11147 18.0443 4.14148 18.0543 4.17148C18.1344 4.43646 18.1943 4.69645 18.2294 4.95643C18.4244 6.38633 18.3943 7.76124 18.1444 9.08115C18.1344 9.13115 18.1444 9.17615 18.1694 9.22114C18.7997 10.3028 19.1598 11.5205 19.2193 12.7709C19.2193 12.8059 19.1992 12.8209 19.1594 12.8158L18.3244 12.6259Z" fill="#FCAF1E"/>
<path d="M9.50028 6.3512C9.02031 6.4562 8.60034 6.60619 8.23037 6.80118C7.6342 7.06518 7.09699 7.44599 6.65048 7.92111C6.42048 8.18609 6.2655 8.36107 6.1855 8.44106C6.04551 7.25114 6.06551 6.04622 6.2355 4.8263C6.2455 4.7763 6.2705 4.73632 6.3055 4.71132C6.32378 4.69719 6.34468 4.68681 6.36699 4.68081C6.38929 4.67481 6.41258 4.67329 6.43549 4.67632C6.52048 4.68632 6.63548 4.72632 6.76046 4.7863C7.7054 5.23628 8.61534 5.75624 9.50028 6.3512ZM17.7548 8.57606L17.0248 7.72613C16.2979 7.06698 15.4181 6.59957 14.465 6.3662C15.3899 5.76624 16.3798 5.21628 17.4348 4.72632C17.4611 4.71445 17.4899 4.70877 17.5188 4.70969C17.5476 4.7106 17.5759 4.71809 17.6015 4.73159C17.6271 4.7451 17.6491 4.76424 17.6662 4.78758C17.6831 4.81092 17.6947 4.83785 17.6997 4.86631C17.9097 6.06623 17.8648 7.35114 17.7548 8.57606Z" fill="#C27627"/>
<path d="M13.7696 6.19973L14.4645 6.36472C15.4172 6.59665 16.2969 7.06231 17.0245 7.71964C16.5332 7.51121 16.0268 7.34072 15.5095 7.20967C15.2958 7.15034 15.0708 7.14519 14.8546 7.19467C14.8416 7.19827 14.8295 7.20459 14.8192 7.21322C14.8089 7.22184 14.8005 7.23256 14.7946 7.24467C14.7892 7.25643 14.7864 7.26922 14.7864 7.28216C14.7864 7.2951 14.7892 7.3079 14.7946 7.31966L15.4695 8.81456C15.3946 8.87456 15.3895 8.94955 15.4595 9.03454C15.4846 9.06454 15.5595 9.12454 15.6846 9.20455C15.383 9.27918 15.0685 9.2843 14.7646 9.21954L14.2845 9.18954C14.3196 8.84956 14.3145 8.61957 14.2645 8.49457C14.1845 8.29461 13.9845 7.97461 13.6746 7.54464C13.5518 7.35882 13.3835 7.20751 13.1858 7.10512C12.988 7.00271 12.7673 6.95266 12.5447 6.95967C11.9215 6.93272 11.2975 6.93772 10.6748 6.97468C10.4148 6.9938 10.1579 7.04417 9.90989 7.12468C9.72988 7.17467 9.6249 7.30966 9.5899 7.52465C9.48294 8.07461 9.45934 8.63754 9.51991 9.19453L8.60496 9.28454C8.55997 9.28454 8.54496 9.31453 8.55496 9.35453L8.64496 9.9245L8.59995 11.3143C8.59995 11.3543 8.60496 11.3894 8.61996 11.4294C8.64496 11.5193 8.65995 11.6043 8.65995 11.6893C8.64995 12.1492 8.64995 12.5894 8.64995 12.9993C8.64995 13.1844 8.58497 13.3593 8.64496 13.5293C8.65496 13.5743 8.64995 13.6093 8.62996 13.6492C8.60916 13.6805 8.57959 13.7048 8.54496 13.7192C8.52996 13.7242 8.52497 13.7343 8.52996 13.7493C8.53497 13.7643 8.54496 13.7692 8.55496 13.7743C8.59995 13.7843 8.61996 13.8143 8.61996 13.8592V14.8942C8.61996 14.9342 8.59995 14.9642 8.55997 14.9841L8.43997 15.0342L7.98501 14.9392L8.07499 11.7494C8.07499 11.6943 8.045 11.6593 7.98501 11.6494C7.93501 11.6494 7.89001 11.6494 7.84502 11.6643C7.79502 11.6794 7.76502 11.6593 7.76002 11.6043C7.69003 11.1194 7.67002 10.7194 7.70502 10.4044C7.72502 10.1795 7.65002 10.0494 7.46504 10.0194C7.44755 10.0172 7.43111 10.0098 7.41778 9.99823C7.40444 9.98668 7.3948 9.97152 7.39004 9.95448C7.34004 9.80948 7.34004 9.6545 7.39004 9.49452L7.77002 9.40952C8.07 9.34953 8.26499 9.21954 8.48497 9.03954C8.50319 9.02471 8.51723 9.00538 8.52568 8.98346C8.53416 8.96153 8.53674 8.93778 8.5332 8.91455C8.52968 8.89132 8.52013 8.86942 8.50554 8.85101C8.49093 8.83259 8.47179 8.81831 8.44997 8.80955C8.33078 8.75055 8.19928 8.72068 8.06629 8.72241C7.93331 8.72416 7.80263 8.75745 7.68503 8.81957L8.22999 6.80469C8.59496 6.6047 9.01993 6.45471 9.4999 6.35472L10.1999 6.23473C11.3247 6.15474 12.4698 6.15974 13.6446 6.24473C13.6695 6.24473 13.6896 6.24473 13.7095 6.23473L13.7696 6.19973Z" fill="#FFDE41"/>
<path d="M8.22944 6.7998L7.68448 8.81968C7.17452 8.96966 6.75954 9.21964 6.44456 9.55963L6.18457 8.43969C6.26457 8.35969 6.41956 8.18971 6.64956 7.91974C7.09653 7.44643 7.63371 7.06733 8.22944 6.80479V6.7998Z" fill="#FDC90E"/>
<path d="M14.2846 9.19027L13.8996 9.22026C13.8367 9.17081 13.7596 9.14278 13.6796 9.14027C12.4647 9.10029 11.2547 9.10029 10.0399 9.14027C9.98048 9.14501 9.92344 9.16574 9.87491 9.20027L9.52492 9.19526C9.45492 8.7203 9.47492 8.16034 9.58992 7.52538C9.62491 7.31039 9.73491 7.17541 9.9099 7.12541C10.1599 7.04041 10.4099 6.99542 10.6748 6.97542C11.2975 6.93846 11.9215 6.93346 12.5447 6.96042C13.0496 6.98041 13.3797 7.14041 13.6746 7.54538C13.9846 7.97536 14.1846 8.29533 14.2645 8.4953C14.3146 8.62031 14.3196 8.85029 14.2846 9.19526V9.19027Z" fill="#FFF073"/>
<path d="M17.0243 7.71995L17.7543 8.5749C17.9042 8.71489 17.9843 8.87487 17.9993 9.04486C18.0023 9.0641 17.9996 9.08382 17.9917 9.10158C17.9836 9.11934 17.9707 9.13438 17.9543 9.14486C17.8043 9.24985 17.7143 9.44483 17.6793 9.73478C17.1994 9.19485 16.2444 8.5399 15.4695 8.81487L14.7894 7.31997C14.784 7.30821 14.7812 7.29541 14.7812 7.28247C14.7812 7.26954 14.784 7.25674 14.7894 7.24498C14.7958 7.23231 14.8051 7.22125 14.8163 7.21261C14.8276 7.20395 14.8407 7.19793 14.8545 7.19498C15.0545 7.14499 15.2695 7.14499 15.5044 7.20998C16.0044 7.33497 16.5044 7.50496 17.0243 7.71995Z" fill="#FDC90E"/>
<path d="M7.39006 9.49959C7.23493 9.50772 7.08328 9.54861 6.94509 9.6196C6.8151 9.62959 6.71011 9.65459 6.63511 9.69453L6.16016 9.8596L6.44013 9.5596C6.78198 9.20419 7.21403 8.94842 7.69003 8.81965C7.92503 8.69465 8.18 8.69465 8.44999 8.80964C8.4712 8.81883 8.48969 8.8333 8.5037 8.8517C8.51771 8.87008 8.52675 8.89175 8.52998 8.91464C8.53332 8.93802 8.53046 8.96187 8.52169 8.98381C8.5129 9.00574 8.49854 9.02498 8.48 9.03964C8.26501 9.21961 8.07002 9.34961 7.77004 9.4096L7.39006 9.4946V9.49959ZM17.6794 9.73455L17.8043 9.90953C17.7794 9.93462 17.7394 9.93462 17.6844 9.90451C17.5344 9.73956 17.2794 9.70456 17.1195 9.64959C17.0195 9.61459 16.9195 9.5946 16.8145 9.57961L16.4344 9.4896C16.3595 9.4596 16.2695 9.4396 16.1745 9.4396C15.9895 9.3896 15.8295 9.31461 15.6846 9.20462C15.5595 9.12462 15.4846 9.06463 15.4596 9.03463C15.3896 8.94962 15.3945 8.87464 15.4696 8.81464C16.2445 8.53967 17.1995 9.19461 17.6794 9.73455Z" fill="#343228"/>
<path d="M13.8997 9.22072L13.7797 9.79071L13.6998 9.87062C13.5797 9.89571 13.4498 9.90562 13.3047 9.90562C12.2848 9.89571 11.2649 9.90072 10.245 9.91063C10.1651 9.91063 10.11 9.89571 10.075 9.86071C10.031 9.81404 9.99084 9.76388 9.95503 9.71068C9.96996 9.5907 9.94499 9.4207 9.875 9.20072C9.92994 9.16573 9.98501 9.15072 10.04 9.14573C11.2548 9.10073 12.4648 9.09573 13.6797 9.14073C13.7647 9.14073 13.8398 9.17073 13.8997 9.22072Z" fill="#FE0246"/>
<path d="M9.51968 9.19531H9.86966C9.94466 9.42031 9.96963 9.5903 9.9547 9.71028C9.82206 10.0314 9.76396 10.3784 9.78461 10.7253C9.78613 10.7526 9.77855 10.7795 9.76327 10.802C9.74787 10.8246 9.72559 10.8416 9.69968 10.8502C9.6816 10.8542 9.66279 10.8542 9.64468 10.8502C9.52467 10.8353 9.46468 10.8803 9.45969 11.0002C9.45468 11.2152 9.40468 11.6102 9.60968 11.7502C9.63326 11.7653 9.65283 11.786 9.66676 11.8104C9.68067 11.8348 9.6886 11.8621 9.68965 11.8902L9.7397 14.4349C9.7397 14.4749 9.72465 14.5049 9.69968 14.5349C9.61968 14.625 9.51968 14.69 9.40969 14.7348C9.38256 14.689 9.36552 14.638 9.35969 14.5849C9.32469 13.77 9.3197 12.985 9.33969 12.2251C9.33969 12.0451 9.32469 11.8701 9.2797 11.7052C9.19971 11.3702 9.19971 11.0553 9.28969 10.7653C9.37469 10.4954 9.33969 10.2153 9.33969 9.93532C9.33969 9.89029 9.31469 9.86531 9.27471 9.8603C9.06273 9.82391 8.84481 9.8463 8.64475 9.92529L8.54975 9.35532C8.54475 9.31531 8.55975 9.29031 8.60474 9.28531L9.51968 9.19531Z" fill="#F88E05"/>
<path d="M14.2843 9.19043L14.7592 9.22042L14.7292 9.76043C14.7292 9.80033 14.7043 9.82039 14.6693 9.82039H14.2243L13.7793 9.79041L13.8994 9.22042L14.2843 9.19043Z" fill="#F76D04"/>
<path d="M15.6839 9.20605C15.8291 9.31605 15.989 9.39604 16.174 9.44103C16.249 9.60103 16.274 9.77099 16.239 9.95098C16.2289 9.991 16.1889 10.011 16.1189 10.021L15.824 9.96603L15.064 9.87598C15.014 9.87598 14.9989 9.89103 15.009 9.94095C15.0689 10.191 15.084 10.4409 15.044 10.6759C15.0389 10.7159 15.044 10.7559 15.059 10.796C15.184 11.1059 15.169 11.3959 15.009 11.6759C14.989 11.709 14.9787 11.7472 14.979 11.7859L15.029 14.9456C14.774 14.9178 14.5352 14.8071 14.349 14.6307C14.339 13.7858 14.344 12.9459 14.349 12.1107C14.349 11.9259 14.374 11.7509 14.414 11.5908C14.464 11.4009 14.479 11.1909 14.464 10.9709C14.4591 10.866 14.394 10.811 14.324 10.741C14.2941 10.712 14.2763 10.6726 14.274 10.631L14.2241 9.82605L14.669 9.82103C14.704 9.82103 14.724 9.80097 14.729 9.76107L14.764 9.22104C15.064 9.28605 15.374 9.28105 15.6839 9.20605Z" fill="#FCAF1E"/>
<path d="M16.1737 9.44043C16.2737 9.44043 16.3587 9.46043 16.4336 9.49042C16.4387 9.72545 16.4287 9.95539 16.3986 10.1854C16.3587 10.4754 16.3387 10.7054 16.3387 10.8754C16.3387 11.8803 16.2987 12.8851 16.2387 13.8902C16.2236 14.0151 16.2587 14.32 16.3287 14.8001L16.0438 14.9301L15.9787 14.9201C15.9738 14.455 15.9587 13.9901 15.9388 13.5302C15.9337 13.3351 15.9436 13.1451 15.9738 12.9602C16.0136 12.7102 16.0337 12.5203 16.0337 12.3952C16.0487 11.5953 16.0737 10.8054 16.1187 10.0204C16.1887 10.0104 16.2287 9.99039 16.2387 9.95038C16.2687 9.77037 16.2488 9.60042 16.1737 9.44043Z" fill="#D3D743"/>
<path d="M7.39007 9.50011C7.34007 9.6551 7.34007 9.81007 7.39007 9.95508C7.40007 9.9951 7.42507 10.0151 7.46508 10.0201C7.65006 10.0501 7.72505 10.1802 7.70505 10.4051C7.67005 10.7201 7.69005 11.12 7.75505 11.605C7.76505 11.6549 7.79504 11.68 7.84504 11.6649C7.89504 11.65 7.94003 11.645 7.99003 11.6549C8.04503 11.66 8.07502 11.6949 8.07502 11.755L7.98503 14.9398L7.97002 14.9547L7.57007 14.8247L7.35008 14.7047C7.35167 14.69 7.34979 14.6751 7.34457 14.6611C7.33937 14.6473 7.33097 14.6348 7.32008 14.6248C7.29167 14.5981 7.27242 14.5631 7.26508 14.5247C7.18726 14.2071 7.14533 13.8818 7.14009 13.5548C7.14009 13.3098 7.27008 13.2199 7.43007 13.0799L7.43506 13.0699C7.43581 13.0672 7.43601 13.0645 7.43564 13.0618C7.4353 13.059 7.43438 13.0564 7.43298 13.0541C7.43158 13.0518 7.4297 13.0498 7.42748 13.0482C7.42527 13.0465 7.42273 13.0455 7.42007 13.0449L7.40507 13.05C7.29008 13.1248 7.19008 13.1399 7.11009 13.0999C7.09173 13.0905 7.07637 13.0762 7.06575 13.0584C7.05515 13.0408 7.04972 13.0205 7.05009 12.9999C7.02582 12.4981 6.97911 11.9976 6.9101 11.5C6.88509 11.345 6.9351 11.25 7.0601 11.16C7.0951 11.13 7.11009 11.09 7.11009 11.045L7.02509 10.2801C7.02166 10.2514 7.01137 10.224 6.9951 10.2001C6.93993 10.1149 6.90653 10.0175 6.8978 9.91635C6.88909 9.8152 6.90534 9.71347 6.9451 9.62011C7.0701 9.55011 7.22008 9.51011 7.39007 9.49512V9.50011Z" fill="#E8DA26"/>
<path d="M16.4338 9.49023L16.8139 9.58024C16.8209 10.21 16.7875 10.8396 16.7138 11.4651C16.6938 11.6151 16.7039 11.8551 16.7338 12.1951C16.7739 12.6251 16.7338 13.47 16.6088 14.7399L16.4239 14.7799L16.3289 14.7999C16.2589 14.3199 16.2289 14.0149 16.2339 13.89C16.2989 12.89 16.3338 11.88 16.3338 10.8752C16.3338 10.7052 16.359 10.4752 16.3988 10.1851C16.429 9.95519 16.4389 9.72526 16.4338 9.49023Z" fill="#BDD467"/>
<path d="M16.815 9.58107C16.915 9.59606 17.0149 9.61606 17.1149 9.65106C17.2799 9.70102 17.5299 9.74104 17.6849 9.90109C17.62 10.061 17.5898 10.226 17.6048 10.406C17.6849 11.4359 17.69 12.4658 17.6248 13.4958C17.5997 13.7337 17.603 13.9737 17.6348 14.2107L16.6099 14.7407C16.735 13.4709 16.775 12.6258 16.735 12.1908C16.7044 11.9506 16.696 11.7078 16.71 11.4659C16.7849 10.8509 16.8199 10.221 16.81 9.58105L16.815 9.58107Z" fill="#89BE9B"/>
<path d="M6.94983 9.62012C6.86984 9.83504 6.88483 10.0301 6.99983 10.2001L7.02482 10.2801L7.10483 11.0451C7.10982 11.095 7.09482 11.13 7.05482 11.16C6.93483 11.25 6.88483 11.345 6.90484 11.5C6.97982 12.01 7.02482 12.51 7.05482 12.9999C7.05482 13.0449 7.07482 13.0749 7.10982 13.0999C7.18981 13.1399 7.28981 13.1248 7.4048 13.05H7.4298V13.0799C7.2698 13.2199 7.13482 13.3099 7.13983 13.5548C7.13983 13.8848 7.18482 14.2048 7.26481 14.5297C7.2698 14.5647 7.28981 14.5997 7.31481 14.6248C7.3448 14.6447 7.3548 14.6747 7.34981 14.7047L6.60486 14.3448L6.61486 13.8598C6.61486 13.7099 6.60986 13.5498 6.58986 13.3949C6.53998 12.9601 6.52828 12.5218 6.55486 12.0849C6.57486 11.69 6.58486 11.2951 6.58986 10.895C6.58986 10.5001 6.60486 10.0951 6.63486 9.69506C6.70985 9.65512 6.81484 9.63012 6.94483 9.62012H6.94983Z" fill="#D3D743"/>
<path d="M6.6349 9.69531C6.60489 10.0953 6.5899 10.5002 6.5849 10.8953C6.5849 11.2953 6.5749 11.6952 6.5499 12.0852C6.5249 12.5252 6.5399 12.9601 6.5899 13.3951C6.6099 13.5501 6.61989 13.7051 6.6149 13.86L6.60489 14.345L6.37492 14.245C6.38177 14.0331 6.35991 13.8212 6.30992 13.6151C6.25992 13.4251 6.23993 13.2502 6.24993 13.0951C6.27064 12.7539 6.2723 12.4117 6.25492 12.0703L6.27992 10.5253C6.27992 10.3203 6.27992 10.1353 6.25992 9.97529C6.25992 9.9354 6.23492 9.91032 6.19492 9.9053C6.14492 9.9053 6.09492 9.9053 6.04492 9.91533C6.05888 9.8983 6.07643 9.88453 6.09629 9.87508C6.11617 9.86552 6.13789 9.8605 6.15993 9.86039L6.6349 9.69531Z" fill="#BDD467"/>
<path d="M9.95016 9.71094L10.0751 9.86096C10.1101 9.89595 10.1652 9.91089 10.2451 9.91089C11.2651 9.90097 12.285 9.89595 13.3049 9.90587C13.4499 9.90587 13.5799 9.89595 13.7048 9.87087L13.7349 11.8608C13.7349 11.8838 13.7262 11.906 13.7103 11.9226C13.6946 11.9394 13.6728 11.9495 13.6499 11.9508C13.6313 11.9501 13.6129 11.9534 13.5957 11.9603C13.5785 11.9672 13.563 11.9776 13.5499 11.9908C13.537 12.0016 13.5269 12.0155 13.5208 12.0312C13.5147 12.047 13.5127 12.064 13.5149 12.0807C13.5699 12.5007 13.5449 12.9157 13.4349 13.3208L13.0599 12.5807C13.0549 12.5697 13.0482 12.5596 13.0399 12.5507L12.855 12.3657C12.8468 12.3567 12.8411 12.3459 12.8385 12.334C12.8359 12.3222 12.8363 12.31 12.8398 12.2983C12.8433 12.2867 12.8499 12.2762 12.8586 12.268C12.8673 12.2596 12.8782 12.2536 12.8899 12.2507L13.0499 12.2057C13.1149 12.1907 13.1299 12.1557 13.0949 12.0957C12.995 11.9457 12.895 11.7808 12.8049 11.6058C12.7255 11.4575 12.6094 11.332 12.4676 11.2413C12.326 11.1506 12.1634 11.0977 11.9955 11.0877C11.8276 11.0777 11.6598 11.1109 11.5083 11.1841C11.3568 11.2573 11.2267 11.3681 11.13 11.5058C11.0001 11.6907 10.88 11.8908 10.7801 12.1058C10.7552 12.1557 10.77 12.1907 10.8201 12.2156L10.9301 12.2657C10.98 12.2907 10.9901 12.3207 10.9652 12.3657L10.2302 13.7956C10.1552 13.9907 10.0651 14.1856 9.96008 14.3756C9.88519 14.5056 9.76514 14.6406 9.60515 14.7856C9.46017 14.9056 9.33018 15.0356 9.21519 15.1756L8.49023 15.0606C8.82521 15.0156 9.13019 14.9105 9.41018 14.7356C9.52017 14.6907 9.62017 14.6256 9.70017 14.5356C9.72397 14.508 9.73657 14.4721 9.73517 14.4356L9.68512 11.8908C9.68418 11.8632 9.67695 11.8363 9.66393 11.812C9.65093 11.7878 9.63254 11.7668 9.61017 11.7508C9.40517 11.6108 9.45517 11.2158 9.46017 11.0008C9.46517 10.8809 9.52516 10.8359 9.64016 10.8508C9.65853 10.8546 9.67753 10.8541 9.69573 10.8497C9.71393 10.8451 9.73085 10.8365 9.7452 10.8245C9.75966 10.8124 9.77109 10.7973 9.77891 10.7802C9.78673 10.7632 9.79057 10.7446 9.79011 10.7258C9.76783 10.3794 9.82429 10.0324 9.95518 9.71094H9.95016Z" fill="#F76D04"/>
<path d="M13.78 9.79102L14.23 9.82601L14.275 10.6259C14.275 10.6758 14.2951 10.7109 14.325 10.741C14.395 10.811 14.46 10.8659 14.465 10.9709C14.48 11.1909 14.465 11.4009 14.415 11.5908C14.3749 11.7509 14.355 11.9258 14.35 12.1107C14.345 12.9458 14.34 13.7858 14.35 14.6306C14.2255 14.5957 14.1185 14.5153 14.05 14.4057C13.915 14.1907 13.8 13.9707 13.7001 13.7458L13.4351 13.3208C13.5451 12.9158 13.5701 12.5007 13.5151 12.0808C13.5123 12.0644 13.5134 12.0477 13.5187 12.032C13.524 12.0164 13.533 12.0021 13.5451 11.9908C13.5581 11.9777 13.5737 11.9673 13.5909 11.9604C13.6081 11.9535 13.6265 11.9502 13.645 11.9508C13.6689 11.9508 13.6918 11.9413 13.7088 11.9245C13.7256 11.9075 13.7351 11.8846 13.7351 11.8609L13.7001 9.87092L13.78 9.79102Z" fill="#F88E05"/>
<path d="M9.4094 14.7349C9.12942 14.9099 8.82443 15.0149 8.48945 15.0599C8.47289 15.0514 8.45623 15.043 8.43945 15.0349L8.55946 14.9849C8.59945 14.9649 8.61945 14.935 8.61945 14.8949V13.8599C8.61945 13.8151 8.59945 13.7851 8.55444 13.7751C8.54444 13.7751 8.53445 13.765 8.52944 13.75C8.52944 13.735 8.52944 13.725 8.54445 13.7199C8.57908 13.7056 8.60865 13.6812 8.62945 13.6499C8.6419 13.6329 8.64981 13.613 8.65242 13.592C8.65505 13.571 8.65231 13.5496 8.64445 13.53C8.58446 13.3601 8.65445 13.1801 8.65445 13.0001C8.64944 12.5901 8.65445 12.1501 8.65944 11.6901C8.65944 11.6052 8.64445 11.5202 8.61945 11.4302C8.6059 11.3933 8.59912 11.3544 8.59945 11.3152L8.64945 9.92528C8.84943 9.84525 9.05941 9.82531 9.27441 9.8603C9.3144 9.86532 9.3394 9.89028 9.3394 9.93532C9.3394 10.2153 9.3744 10.4952 9.2894 10.7652C9.19941 11.0553 9.19941 11.3652 9.27941 11.7052C9.3244 11.8701 9.34441 12.0452 9.3394 12.2252C9.31941 12.985 9.3244 13.7751 9.3544 14.59C9.3544 14.6199 9.3744 14.6699 9.40439 14.7349H9.4094Z" fill="#FCAF1E"/>
<path d="M15.8244 9.96581C15.8695 10.3108 15.8295 10.6358 15.7094 10.9507C15.6694 11.0507 15.6844 11.2356 15.7494 11.5156C15.7995 11.7006 15.8094 11.8906 15.7895 12.0805C15.7694 12.3555 15.7645 12.6355 15.7794 12.9306C15.7944 13.1956 15.7944 13.4755 15.7895 13.7655C15.7794 14.0605 15.7895 14.3755 15.8295 14.7105C15.8345 14.7855 15.8494 14.8655 15.8744 14.9454L15.5444 15.0154L15.0344 14.9454L14.9795 11.7857C14.9795 11.7457 14.9845 11.7106 15.0044 11.6757C15.1696 11.4007 15.1844 11.1057 15.0545 10.7957C15.0392 10.7576 15.0357 10.7158 15.0444 10.6757C15.0845 10.4407 15.0695 10.1957 15.0095 9.94073C14.9995 9.8908 15.0145 9.87073 15.0645 9.87575L15.8244 9.96581Z" fill="#FFDE41"/>
<path d="M6.04478 9.9099C6.0945 9.90243 6.14506 9.90243 6.19477 9.9099C6.23477 9.9099 6.25978 9.93498 6.25978 9.97487C6.27478 10.135 6.28478 10.32 6.27977 10.5249C6.27515 11.1249 6.26682 11.7249 6.25477 12.3247C6.26478 12.5898 6.26478 12.8446 6.24977 13.0946C6.23977 13.2446 6.25978 13.4247 6.30978 13.6146C6.35976 13.8246 6.37977 14.0396 6.37477 14.2496L6.27478 14.2397C6.15336 14.1258 6.00279 14.048 5.8398 14.0146C5.7998 13.9396 5.73981 13.8946 5.6748 13.8797C5.68192 13.8553 5.68529 13.8299 5.6848 13.8046C5.73481 13.8246 5.76981 13.8097 5.7798 13.7696C5.8048 13.6697 5.8148 13.5697 5.8048 13.4697C5.7548 12.6747 5.76981 11.9148 5.8548 11.1849C5.96979 10.8399 5.97979 10.4648 5.89479 10.0549C5.89479 9.98992 5.94479 9.9449 6.04478 9.9099Z" fill="#AAD182"/>
<path d="M17.6834 9.90039C17.7333 9.93538 17.7783 9.93538 17.8033 9.9103C17.8833 9.93538 17.9433 9.97038 17.9883 10.0102C17.8682 10.2703 17.9283 10.7102 17.9234 10.9953C17.9234 11.0503 17.9334 11.1003 17.9634 11.1353C18.0034 11.1953 18.0483 11.2203 18.0984 11.2203C18.2135 11.2153 18.2883 11.2603 18.3283 11.3553V12.6252C18.3434 12.6701 18.3583 12.7101 18.3583 12.7501C18.3283 12.8952 18.3233 13.0401 18.3434 13.1801C18.3293 13.1957 18.3186 13.2137 18.3117 13.2336C18.3047 13.2533 18.3019 13.2743 18.3034 13.2952C18.3283 13.4201 18.3235 13.545 18.2884 13.6701C18.2384 13.72 18.2084 13.77 18.2084 13.8201C18.1667 13.8499 18.1354 13.8917 18.1183 13.94C18.1035 13.98 18.1183 14.0151 18.1534 14.04L18.2283 14.0951C18.0934 14.12 17.9583 14.1951 17.8284 14.32C17.7534 14.2401 17.6884 14.2051 17.6283 14.21C17.5998 13.9726 17.5998 13.7325 17.6283 13.4951C17.6884 12.4652 17.6783 11.4353 17.6034 10.4053C17.5883 10.2252 17.6184 10.0553 17.6834 9.90528V9.90039Z" fill="#5879AE"/>
<path d="M15.8236 9.96484L16.1236 10.0147C16.0736 10.8049 16.0485 11.5997 16.0336 12.3946C16.0336 12.5196 16.0135 12.7096 15.9736 12.9596C15.9435 13.1446 15.9336 13.3345 15.9386 13.5296C15.9586 13.9896 15.9736 14.4544 15.9785 14.9195C15.9636 14.9304 15.9465 14.9382 15.9286 14.9425C15.9105 14.9467 15.8919 14.9475 15.8736 14.9444C15.8514 14.8676 15.8363 14.789 15.8286 14.7095C15.7936 14.3745 15.7786 14.0596 15.7886 13.7595C15.7986 13.4745 15.7886 13.1945 15.7786 12.9246C15.7636 12.6346 15.7685 12.3546 15.7886 12.0797C15.8085 11.8897 15.7936 11.6997 15.7486 11.5147C15.6836 11.2347 15.6685 11.0448 15.7086 10.9498C15.8286 10.6349 15.8686 10.3099 15.8236 9.96484Z" fill="#E8DA26"/>
<path d="M18.0343 10.0107C18.1493 10.0358 18.2743 10.0807 18.4143 10.1408C18.5243 10.1907 18.5943 10.2808 18.6142 10.4057C18.6942 10.9658 18.5993 11.2858 18.3293 11.3558C18.2892 11.2608 18.2143 11.2158 18.0993 11.2208C17.9843 10.8708 17.9643 10.4708 18.0343 10.0107ZM5.78507 10.0658C5.78038 10.0759 5.77538 10.086 5.77007 10.0958C5.76391 10.1119 5.76391 10.1297 5.77007 10.1458C5.89505 10.5358 5.87006 10.8958 5.69506 11.2258L5.51509 11.3008C5.40509 11.3158 5.3251 11.3008 5.2751 11.2407C5.26347 11.2271 5.25479 11.2111 5.24962 11.1939C5.24447 11.1767 5.24292 11.1586 5.24511 11.1407C5.2651 10.9408 5.27011 10.7158 5.26011 10.4758C5.24511 10.1758 5.51008 10.0457 5.78507 10.0658Z" fill="#FE0246"/>
<path d="M5.78031 10.0658C5.8153 10.0907 5.85532 10.0907 5.8953 10.0557C5.9803 10.4657 5.9703 10.8407 5.85532 11.1857C5.79954 11.1861 5.7447 11.1998 5.69531 11.2257C5.8703 10.8907 5.8953 10.5357 5.7653 10.1458C5.75916 10.1297 5.75916 10.1119 5.7653 10.0958L5.78031 10.0658Z" fill="#2E241C"/>
<path d="M13.4352 13.3206L13.7003 13.7456L13.5603 13.8255C13.4752 13.8955 13.4203 13.9055 13.3853 13.8556L13.0402 13.2656C13.0052 13.2405 12.9903 13.2156 13.0004 13.1956C13.1252 12.8456 13.0402 12.5907 12.7403 12.4157C12.7003 12.3906 12.6303 12.3657 12.5404 12.3507C12.4203 12.3257 12.3604 12.2856 12.3604 12.2307H12.4353C12.4903 12.2257 12.5004 12.2007 12.4653 12.1607C12.2954 11.9457 12.1254 11.4708 11.7404 11.7007C11.5804 11.7957 11.5304 12.0007 11.4154 12.1407C11.3805 12.1806 11.3854 12.2107 11.4404 12.2257C11.4804 12.2357 11.5353 12.2307 11.6004 12.2156C11.5904 12.3158 11.5104 12.3507 11.3505 12.3257C11.3115 12.3192 11.2715 12.3245 11.2354 12.3407C10.8405 12.5356 10.7304 12.8407 10.9054 13.2506C10.9005 13.2756 10.8854 13.2856 10.8605 13.2856C10.8454 13.2856 10.8305 13.2856 10.8155 13.2957C10.7097 13.4853 10.6013 13.6737 10.4905 13.8605C10.4705 13.9005 10.4405 13.9105 10.4005 13.8856L10.2305 13.7955L10.9655 12.3657C10.9905 12.3206 10.9754 12.2906 10.9305 12.2657L10.8205 12.2156C10.7705 12.1906 10.7555 12.1557 10.7805 12.1058C10.8805 11.8907 11.0005 11.6906 11.1305 11.5058C11.227 11.368 11.3573 11.2572 11.5086 11.184C11.6602 11.1108 11.8279 11.0777 11.9958 11.0877C12.1638 11.0977 12.3263 11.1506 12.468 11.2413C12.6097 11.3319 12.7258 11.4574 12.8052 11.6058C12.8953 11.7807 12.9953 11.9406 13.0953 12.0957C13.1303 12.1506 13.1152 12.1906 13.0452 12.2058L12.8903 12.2506C12.8785 12.2535 12.8677 12.2595 12.8589 12.2679C12.8502 12.2766 12.8434 12.2886 12.8403 12.3007C12.8372 12.3119 12.8369 12.3238 12.8396 12.3351C12.8421 12.3464 12.8476 12.3569 12.8553 12.3657L13.0402 12.5506C13.0503 12.5557 13.0552 12.5656 13.0603 12.5806L13.4352 13.3206Z" fill="black"/>
<path d="M5.85009 11.1846C5.76509 11.9146 5.75011 12.6744 5.8051 13.4645C5.81509 13.5644 5.8051 13.6644 5.7801 13.7644C5.76509 13.8144 5.7351 13.8243 5.6851 13.8044C5.64511 13.7543 5.59512 13.7344 5.54512 13.7444L5.49512 13.3945C5.51512 13.3945 5.52512 13.3544 5.53012 13.2594C5.56012 13.0944 5.56512 12.9445 5.53512 12.8144C5.56512 12.7695 5.56012 12.7245 5.53512 12.6795C5.59011 12.2095 5.58512 11.7496 5.51012 11.2996L5.6951 11.2247C5.74449 11.1987 5.79933 11.185 5.8551 11.1846H5.85009Z" fill="#89BE9B"/>
<path d="M12.3591 12.2309C12.1132 12.1488 11.8482 12.1436 11.5992 12.2159C11.5477 12.2333 11.4925 12.2366 11.4392 12.2259C11.3893 12.211 11.3792 12.1809 11.4143 12.141C11.5292 12.001 11.5792 11.791 11.7392 11.701C12.1242 11.471 12.2891 11.946 12.4642 12.1609C12.4991 12.2009 12.4891 12.2259 12.4342 12.2259L12.3591 12.2309Z" fill="#FFDE41"/>
<path d="M12.3598 12.2308C12.3598 12.2858 12.4197 12.3308 12.5448 12.3508C12.6347 12.3658 12.6947 12.3907 12.7447 12.4158C13.0446 12.5908 13.1247 12.8507 12.9998 13.1957C12.8997 13.2557 12.9046 13.3308 12.8346 13.4106C12.7847 13.4607 12.7347 13.4607 12.6848 13.4057C12.6614 13.3825 12.631 13.3677 12.5982 13.3641C12.5655 13.3605 12.5326 13.3681 12.5048 13.3857C12.4871 13.3958 12.4719 13.4095 12.4598 13.4257C12.3847 13.5307 12.3348 13.6457 12.2998 13.7757C12.2147 14.0756 11.7598 14.1156 11.6299 13.8207C11.5836 13.7122 11.5303 13.6069 11.4698 13.5057C11.3948 13.3807 11.2948 13.3557 11.1699 13.4307C11.1349 13.4557 11.0999 13.4507 11.0699 13.4207L10.9047 13.2507C10.7298 12.8408 10.8398 12.5358 11.2348 12.3408C11.2709 12.3246 11.3109 12.3194 11.3499 12.3258C11.5098 12.3508 11.5899 12.3108 11.5999 12.2158C11.8488 12.1434 12.1139 12.1486 12.3598 12.2308Z" fill="#836042"/>
<path d="M18.3601 12.75L19.1751 12.935C19.2151 12.945 19.24 12.97 19.24 13.015L19.2651 13.34C19.27 13.3749 19.2551 13.39 19.2151 13.38L18.3451 13.18C18.3251 13.04 18.3301 12.895 18.3601 12.75ZM5.53602 12.815C5.56603 12.945 5.56603 13.0949 5.53103 13.26C5.52603 13.2299 5.51102 13.22 5.49103 13.225C5.20104 13.3049 4.92606 13.395 4.66108 13.49C4.63109 13.5 4.62109 13.49 4.62109 13.465L4.63109 13.08C4.63109 13.065 4.64108 13.0549 4.65609 13.0549L5.53602 12.815Z" fill="#FCAF1E"/>
<path d="M10.8598 13.2856C11.1098 13.6506 11.7096 14.2956 12.2346 14.0056C12.5563 13.8241 12.8318 13.5709 13.0395 13.2656L13.3894 13.8556C13.4196 13.9056 13.4745 13.8956 13.5595 13.8256C13.6545 14.0705 13.7595 14.3056 13.8845 14.5305C14.0096 14.7557 14.2596 14.9706 14.6346 15.1706C12.7995 15.4506 10.9947 15.4556 9.21484 15.1756C9.32984 15.0406 9.46483 14.9105 9.60482 14.7856C9.7648 14.6405 9.88485 14.5056 9.95485 14.3756C10.0648 14.1856 10.1548 13.9906 10.2298 13.7956L10.3998 13.8856C10.4398 13.9056 10.4698 13.9006 10.4897 13.8605C10.6006 13.6738 10.7089 13.4854 10.8147 13.2957C10.8305 13.2888 10.8475 13.2853 10.8647 13.2856H10.8598Z" fill="#F8C137"/>
<path d="M18.2993 13.2959L19.1642 13.5059C19.2392 13.5208 19.2742 13.5708 19.2692 13.6459L19.2643 13.8307C19.2593 13.9007 19.2243 13.9307 19.1543 13.9058L18.2894 13.6708C18.3243 13.5458 18.3293 13.4208 18.3043 13.2959H18.2993ZM5.49518 13.4009L5.54517 13.7459L4.69524 14.0357C4.64523 14.0508 4.62523 14.0357 4.62523 13.9858L4.61523 13.7008C4.61523 13.6507 4.64023 13.6208 4.68524 13.6109L5.49518 13.3959V13.4009Z" fill="#FCAF1E"/>
<path d="M13.6986 13.7451C13.7986 13.97 13.9185 14.19 14.0486 14.405C14.1186 14.515 14.2185 14.59 14.3485 14.6299C14.5285 14.8049 14.7584 14.9099 15.0334 14.9449L15.5435 15.0149L14.6285 15.1699C14.3252 15.0305 14.0672 14.8087 13.8835 14.5299C13.7592 14.3027 13.6507 14.0671 13.5586 13.825L13.6986 13.7451Z" fill="#E69A22"/>
<path d="M18.2091 13.8242L19.1389 14.0742C19.1789 14.0893 19.2039 14.1142 19.2039 14.1593C19.2139 14.3642 19.1789 14.5792 19.089 14.8092L18.229 14.0943L18.1539 14.0393C18.119 14.0143 18.104 13.9793 18.119 13.9393C18.137 13.8929 18.1682 13.8529 18.2091 13.8242ZM5.67485 13.8793C5.74485 13.8942 5.79985 13.9393 5.83985 14.0143L4.81991 14.8842C4.7312 14.6872 4.68032 14.4752 4.66992 14.2593C4.66992 14.2193 4.69492 14.1893 4.73492 14.1793L5.67485 13.8793Z" fill="#FCAF1E"/>
<path d="M5.84052 14.0156C6.0105 14.0506 6.15549 14.1256 6.27549 14.2406C5.87551 14.5656 5.57053 14.8605 5.34555 15.1156C5.25556 15.2156 5.14056 15.3906 4.99556 15.6406C4.87558 16.1105 4.91557 16.5655 5.11056 17.0005C5.23556 17.2804 5.39555 17.4404 5.59052 17.4854C5.9055 17.5604 6.40549 17.5655 6.55047 17.1854C6.56336 17.1459 6.58996 17.1121 6.62547 17.0904C6.96044 16.8905 7.09043 16.8555 7.23542 16.3705L7.56041 14.9305C7.56358 14.9202 7.56387 14.9091 7.56122 14.8984C7.55858 14.8879 7.55312 14.8783 7.54541 14.8706C7.52041 14.8405 7.52541 14.8256 7.57041 14.8256L7.97037 14.9555L7.82538 16.4305C7.7876 16.9365 7.59765 17.4193 7.28042 17.8153C7.20042 17.9203 7.15542 17.9654 7.13542 17.9504C6.83546 17.9504 6.54047 17.9754 6.25549 18.0354C6.06049 18.0803 5.91551 18.1003 5.82052 18.1053C5.62053 18.1053 5.47054 18.0854 5.37555 18.0354C5.05891 17.8807 4.78441 17.6516 4.57548 17.3677C4.36653 17.0839 4.22935 16.7537 4.17563 16.4056C4.15563 16.2905 4.10063 16.2705 4.01562 16.3405C4.04564 16.1956 4.04564 16.0505 4.10563 15.9206C4.28062 15.5456 4.51561 15.2005 4.82058 14.8855L5.84052 14.0156ZM18.2297 14.0956L19.0897 14.8105C19.3746 15.1005 19.5746 15.3355 19.6897 15.5105C19.8896 15.8106 19.9896 16.1505 19.9996 16.5355C19.8896 16.6105 19.7846 16.7654 19.6746 16.9854C19.4996 17.3654 19.0046 17.9104 18.5298 18.0103C18.3297 18.0554 18.1298 18.0754 17.9298 18.0803C17.8498 18.0803 17.6899 18.0504 17.4448 17.9804C17.2598 17.9303 17.0648 17.9303 16.8698 17.9804L16.6698 17.7804C16.3723 17.3552 16.1945 16.858 16.1549 16.3405C16.0481 15.8786 16.0111 15.4035 16.0449 14.9305L16.3298 14.8006L16.4298 14.7805C16.4798 15.3906 16.6097 15.9605 16.8148 16.4955C16.8547 16.6556 16.9148 16.7704 16.9747 16.8354C17.2947 17.1604 17.7347 17.2455 18.1698 17.3354C18.2386 17.3502 18.3099 17.3504 18.3788 17.3356C18.4478 17.3211 18.5128 17.292 18.5696 17.2505C18.6297 17.2104 18.6947 17.1004 18.7697 16.9355C18.8147 16.8205 18.8896 16.6755 18.9847 16.5005C19.1197 16.2605 19.1197 15.9805 18.9746 15.6505C18.8797 15.4206 18.7347 15.2005 18.5247 14.9905C18.3047 14.7556 18.0698 14.5356 17.8248 14.3205C17.9598 14.1956 18.0947 14.1206 18.2247 14.0956H18.2297Z" fill="#0193CF"/>
<path d="M17.6294 14.2104C17.6894 14.2055 17.7545 14.2404 17.8294 14.3204C18.0694 14.5354 18.3044 14.7554 18.5294 14.9904C18.7294 15.2004 18.8794 15.4204 18.9743 15.6503L18.4094 16.1603C17.9494 16.5653 17.3694 16.4454 16.8095 16.4953C16.6094 15.9602 16.4794 15.3904 16.4245 14.7804L16.6094 14.7404L17.6294 14.2104ZM6.27515 14.2404L6.37514 14.2504L6.60512 14.3455L7.35508 14.7053L7.57007 14.8254C7.52507 14.8254 7.52007 14.8404 7.54507 14.8753C7.56007 14.8853 7.56506 14.9054 7.56007 14.9254L7.23508 16.3704C6.75126 16.4847 6.24363 16.4427 5.78519 16.2503C5.64101 16.1659 5.50826 16.0635 5.39021 15.9453C5.27521 15.8303 5.14023 15.7303 4.99023 15.6404C5.14023 15.3904 5.25521 15.2154 5.34521 15.1154C5.63139 14.7994 5.94235 14.5068 6.27515 14.2404Z" fill="#C9EBF4"/>
<path d="M15.9796 14.9189L16.0447 14.929C16.0098 15.3989 16.0447 15.8689 16.1547 16.339C15.9698 16.4639 15.8397 16.5889 15.7746 16.724L15.0297 17.2388C14.2677 17.7916 13.3719 18.1307 12.4349 18.2212C11.4979 18.3118 10.5539 18.1504 9.70008 17.7538C9.40008 17.6188 8.91512 17.3189 8.26016 16.8439L7.8252 16.4289L7.97518 14.954L7.98019 14.939L8.44015 15.039C8.45515 15.039 8.47515 15.0489 8.49015 15.0589L9.2151 15.174C10.9951 15.4541 12.7998 15.449 14.6297 15.174L15.5447 15.0139L15.8746 14.9439C15.9097 14.9489 15.9447 14.9439 15.9747 14.9189H15.9796Z" fill="#1D140E"/>
<path d="M14.7102 16.0356C14.7102 15.8157 14.7402 15.6306 14.8051 15.4705L15.3803 15.3957C15.4352 15.3857 15.4602 15.4106 15.4452 15.4657C15.3551 15.8706 15.2303 16.2505 15.0653 16.5955C14.9852 16.7556 14.9352 16.7455 14.9051 16.5756C14.8751 16.3855 14.8102 16.2055 14.7102 16.0356ZM9.13058 15.4806C9.50556 15.6556 9.58555 15.8457 9.37557 16.0556C9.22057 16.0106 9.10558 16.0906 9.04059 16.2956C9.00059 16.4056 8.97559 16.5205 8.95559 16.6456C8.94059 16.7505 8.90559 16.7556 8.85561 16.6605C8.658 16.2902 8.52286 15.89 8.45562 15.4756C8.44563 15.4257 8.46563 15.4056 8.51562 15.4106L9.13058 15.4806Z" fill="#D7C8AE"/>
<path d="M9.13001 15.4797C11.0448 15.6796 12.9298 15.6697 14.8046 15.4697C14.7397 15.6297 14.7046 15.8196 14.7097 16.0347C12.9247 16.2046 11.1449 16.2147 9.37498 16.0547C9.58497 15.8448 9.50498 15.6547 9.125 15.4797H9.13001Z" fill="#F3ECD9"/>
<path d="M4.99013 15.6396C5.14012 15.7297 5.2751 15.8297 5.39011 15.9397C5.57009 16.1097 5.70009 16.2096 5.78008 16.2497C6.23852 16.442 6.74616 16.484 7.22998 16.3696C7.08999 16.8546 6.96 16.8896 6.63002 17.0896C6.59264 17.1104 6.56418 17.1441 6.55002 17.1845C6.40504 17.5646 5.90507 17.5596 5.59009 17.4845C5.39011 17.4345 5.23512 17.2796 5.11013 16.9996C4.91472 16.5736 4.87234 16.0933 4.99013 15.6396ZM18.9742 15.6496C19.1142 15.9797 19.1242 16.2597 18.9842 16.4996C18.8841 16.6746 18.8141 16.8196 18.7642 16.9346C18.6942 17.1046 18.6292 17.2096 18.5741 17.2496C18.5166 17.2918 18.4508 17.3212 18.381 17.336C18.3111 17.3506 18.2389 17.3502 18.1693 17.3345C17.7342 17.2446 17.2943 17.1596 16.9743 16.8345C16.8937 16.7362 16.8388 16.6194 16.8144 16.4946C17.3693 16.4447 17.9493 16.5646 18.4092 16.1597L18.9742 15.6496Z" fill="#04BAEA"/>
<path d="M13.5045 16.2893C13.8695 16.2743 14.2245 16.2743 14.5795 16.2893C14.6194 16.2893 14.6494 16.3093 14.6795 16.3394C14.8144 16.4893 14.8794 16.6643 14.7444 16.8543C14.5445 17.1393 14.2744 17.3392 13.9295 17.4443C13.1495 17.6842 12.2545 17.8842 11.4446 17.7592C11.0096 17.6943 10.5946 17.6092 10.1947 17.5092C9.77895 17.416 9.40497 17.1895 9.12977 16.8643C9.10633 16.8363 9.09389 16.8007 9.09477 16.7643C9.10977 16.4094 9.28476 16.2443 9.61475 16.2643C10.2347 16.3043 10.8647 16.3493 11.4996 16.3394C12.1896 16.3293 12.8597 16.3093 13.5045 16.2893Z" fill="#2E241C"/>
<path d="M7.13468 17.9502C6.50471 18.5701 5.82476 18.7101 5.08981 18.3702C4.27986 17.9952 3.9199 17.3203 4.01488 16.3404C4.09987 16.2704 4.15486 16.2903 4.17487 16.4054C4.32486 17.1703 4.72483 17.7101 5.37479 18.0352C5.47477 18.0852 5.62477 18.1052 5.81976 18.1052C5.91476 18.1052 6.05975 18.0802 6.25473 18.0352C6.54391 17.9738 6.8391 17.9453 7.13468 17.9502Z" fill="#04BAEA"/>
<path d="M16.1547 16.3398C16.1996 16.8649 16.3696 17.3399 16.6696 17.7749C15.6697 18.4598 14.6248 19.0397 13.5298 19.5097C13.1499 19.6746 12.7598 19.8096 12.3599 19.9097C12.3099 19.9146 12.2899 19.8946 12.2849 19.8496C12.2849 19.8397 12.2849 19.8246 12.2949 19.8146C12.3012 19.8058 12.3099 19.799 12.3199 19.7946L14.3198 18.9097C14.3347 18.9038 14.348 18.8942 14.3584 18.8821C14.3688 18.8699 14.3762 18.8554 14.3798 18.8397C14.3824 18.8246 14.3816 18.809 14.3772 18.7943C14.3729 18.7796 14.3652 18.766 14.3548 18.7548C14.2748 18.6647 14.1848 18.6448 14.0799 18.6897C14.0668 18.694 14.0528 18.694 14.0399 18.6897C14.0262 18.6874 14.0138 18.6802 14.0048 18.6698C13.8548 18.4698 13.6549 18.3998 13.4049 18.4698C12.4649 18.7198 11.555 18.7347 10.6949 18.4998C10.5051 18.4497 10.3251 18.4348 10.1551 18.4598C9.80511 18.5098 9.60511 18.7347 9.55512 19.1347C8.76161 18.7584 8.00072 18.317 7.28027 17.8147C7.59525 17.4249 7.78023 16.9649 7.83022 16.4298L8.26021 16.8449C8.69517 17.2699 9.16514 17.6048 9.67515 17.8547C10.4198 18.2458 11.2526 18.4383 12.0932 18.4138C12.934 18.3893 13.7543 18.1485 14.4748 17.7148C14.9647 17.4399 15.3997 17.1099 15.7747 16.725C15.8396 16.5948 15.9697 16.4648 16.1547 16.3398Z" fill="#E69A22"/>
<path d="M19.999 16.5352C20.0139 17.2001 19.814 17.7052 19.399 18.0501C18.574 18.7401 17.7291 18.7151 16.8691 17.9801C17.0691 17.9301 17.2591 17.9301 17.4442 17.9801C17.6892 18.0501 17.8491 18.0801 17.9341 18.0801C18.1291 18.0801 18.329 18.0551 18.534 18.0101C19.004 17.9101 19.499 17.3651 19.674 16.9902C19.784 16.7651 19.889 16.6102 19.999 16.5402V16.5352Z" fill="#04BAEA"/>
<path d="M15.7741 16.7256C15.3992 17.1105 14.9642 17.4405 14.4742 17.7154C13.7536 18.1491 12.9334 18.3899 12.0927 18.4144C11.2521 18.4389 10.4193 18.2464 9.6746 17.8554C9.15323 17.597 8.67714 17.2559 8.26465 16.8455C8.9146 17.3205 9.39458 17.6205 9.69957 17.7554C10.5533 18.152 11.4974 18.3134 12.4344 18.2228C13.3714 18.1324 14.2673 17.7932 15.0292 17.2405L15.7741 16.7256Z" fill="#FFF073"/>
<path d="M12.3595 19.9055C12.1495 19.9904 11.9795 20.0155 11.8446 19.9904C11.0413 19.8269 10.2687 19.5384 9.55469 19.1356C9.60467 18.7355 9.80467 18.5107 10.1547 18.4606C10.3246 18.4356 10.5047 18.4506 10.6946 18.5007C11.5595 18.7355 12.4645 18.7207 13.4094 18.4656C13.6594 18.4007 13.8594 18.4656 14.0094 18.6706C14.0094 18.6807 14.0243 18.6906 14.0394 18.6955H14.0794C14.1844 18.6456 14.2794 18.6655 14.3543 18.7556C14.3644 18.7671 14.3716 18.7806 14.3756 18.7953C14.3795 18.81 14.3801 18.8255 14.3772 18.8404C14.3742 18.8554 14.3681 18.8695 14.3589 18.8816C14.3498 18.8938 14.3379 18.9037 14.3243 18.9106L12.3245 19.7955C12.3135 19.7997 12.3043 19.8075 12.298 19.8172C12.2917 19.8271 12.2887 19.8388 12.2895 19.8505C12.2895 19.9005 12.3145 19.9154 12.3595 19.9055Z" fill="#D98D24"/>
</g>
<defs>
<clipPath id="clip0_328_54619">
<rect width="24" height="24" fill="white"/>
</clipPath>
</defs>
</svg>
