<svg width="24" height="24" viewBox="0 0 24 24" fill="none" xmlns="http://www.w3.org/2000/svg">
<g clip-path="url(#clip0_328_39020)">
<path d="M24 0H0V24H24V0Z" fill="#52CAC7"/>
<path d="M19.3579 11.3094C19.4857 10.2606 19.3879 9.19668 19.0709 8.18875C18.7539 7.18086 18.2252 6.25235 17.5201 5.46552C16.8149 4.67867 15.9498 4.05167 14.9825 3.62654C14.0152 3.20141 12.9681 2.98796 11.9116 3.00052C10.8551 3.01308 9.81361 3.25137 8.85675 3.69938C7.89987 4.14741 7.04983 4.79481 6.3636 5.59819C5.67739 6.40158 5.17084 7.34238 4.87795 8.35754C4.58503 9.37273 4.51253 10.4388 4.66528 11.4842C5.7524 10.4717 7.17728 9.89992 8.66272 9.88001C10.1827 9.90667 11.6577 10.4002 12.8877 11.2935C13.9312 12.0806 15.2285 12.454 16.5305 12.342C17.8276 12.1883 18.8073 11.6854 19.3526 11.3042L19.3579 11.3094Z" fill="white"/>
<path d="M6.17529 14.1166C6.17529 13.8679 6.41355 13.5873 6.70475 13.5873C6.99596 13.5873 7.23421 13.8679 7.23421 14.1166V16.7534C7.23421 17.0022 6.99596 17.2935 6.70475 17.2935C6.41355 17.2935 6.17529 17.0022 6.17529 16.7534V14.1166ZM10.9404 13.5873C10.9404 13.3436 11.1787 13.0578 11.47 13.0578C11.7611 13.0578 11.9993 13.3436 11.9993 13.5873V16.2346C11.9993 16.4781 11.7611 16.7641 11.47 16.7641C11.1787 16.7641 10.9404 16.4781 10.9404 16.2346V13.5873ZM12.5288 14.6462C12.5288 14.4185 12.7671 14.1166 13.0583 14.1166C13.3495 14.1166 13.5877 14.4185 13.5877 14.6462V15.1757C13.5877 15.4034 13.3495 15.705 13.0583 15.705C12.7671 15.705 12.5288 15.4034 12.5288 15.1757V14.6462ZM17.2939 15.1757C17.2939 14.9056 17.5322 14.6462 17.8235 14.6462C18.1145 14.6462 18.3529 14.9056 18.3529 15.1757V16.7641C18.3529 17.0341 18.1145 17.2935 17.8235 17.2935C17.5322 17.2935 17.2939 17.0341 17.2939 16.7641V15.1757ZM7.76366 13.5873C7.76366 13.349 8.00192 13.0578 8.29313 13.0578C8.58434 13.0578 8.82259 13.349 8.82259 13.5873V17.32C8.82259 17.5581 8.58434 17.823 8.29313 17.823C8.00192 17.823 7.76366 17.5581 7.76366 17.32V13.5873ZM14.1171 15.1757C14.1171 14.9109 14.3555 14.6462 14.6467 14.6462C14.9379 14.6462 15.1762 14.9109 15.1762 15.1757V19.4113C15.1762 19.676 14.9379 19.9407 14.6467 19.9407C14.3555 19.9407 14.1171 19.676 14.1171 19.4113V15.1757ZM15.7055 15.705C15.7055 15.4616 15.9438 15.1757 16.2351 15.1757C16.5262 15.1757 16.7646 15.4616 16.7646 15.705V18.8818C16.7646 19.1254 16.5262 19.4113 16.2351 19.4113C15.9438 19.4113 15.7055 19.1254 15.7055 18.8818V15.705ZM9.35206 13.0578C9.35206 12.809 9.59028 12.5283 9.88145 12.5283C10.1727 12.5283 10.411 12.809 10.411 13.0578V20.4702C10.411 20.7191 10.1727 20.9998 9.88145 20.9998C9.59028 20.9998 9.35206 20.7191 9.35206 20.4702V13.0578Z" fill="white"/>
<path d="M9.17163 11.8908C8.48118 11.8506 7.78966 11.949 7.13771 12.1799C6.48579 12.4109 5.88661 12.7697 5.3754 13.2356C5.27869 13.3166 5.15411 13.3563 5.02839 13.3465C4.90266 13.3366 4.78584 13.2778 4.70298 13.1826C4.66271 13.1365 4.63209 13.0826 4.61292 13.0242C4.59373 12.9659 4.5864 12.9045 4.59134 12.8433C4.59628 12.7822 4.61337 12.7226 4.64164 12.6682C4.6699 12.6136 4.70876 12.5654 4.75593 12.5262C5.69799 11.6741 6.88107 11.1351 8.1422 10.9835C9.40335 10.8317 10.6805 11.0747 11.7978 11.679C12.1369 11.8719 12.4575 12.0952 12.7561 12.3462L13.0208 12.542C13.6455 12.9656 14.6834 13.4422 15.9329 13.4527C17.1295 13.4633 18.1725 12.7856 18.649 12.4363C18.8608 12.2773 19.1572 12.3197 19.3162 12.5262C19.475 12.7327 19.4326 13.0239 19.2208 13.1826C18.7231 13.5533 17.4578 14.4006 15.9222 14.3899C14.4397 14.374 13.2115 13.8076 12.4807 13.3152L12.1261 13.0503L11.9672 12.9232C11.1639 12.2988 10.1878 11.9366 9.17163 11.8855V11.8908Z" fill="white"/>
</g>
<defs>
<clipPath id="clip0_328_39020">
<rect width="24" height="24" fill="white"/>
</clipPath>
</defs>
</svg>
