<svg width="24" height="24" viewBox="0 0 24 24" fill="none" xmlns="http://www.w3.org/2000/svg">
<g clip-path="url(#clip0_328_39033)">
<path d="M24 0H0V24H24V0Z" fill="#FF7900"/>
<path d="M12 4.58789C16.9606 4.58789 21 6.25024 21 8.29376C21 10.2209 17.6013 11.8091 13.0587 11.9996V11.3643C13.1012 9.58551 13.3817 9.61726 14.8588 8.86553C15.7006 8.59024 16.2352 8.17729 16.2352 7.70082C16.2352 6.86965 14.4617 6.19201 12.2648 6.19201C10.0677 6.19201 8.2941 6.86965 8.2941 7.71141C8.2941 8.05024 8.57469 8.35729 9.06705 8.61141C10.5971 9.49023 11.4706 9.25729 11.4706 11.4173V11.9996C6.6741 11.9256 3 10.2949 3 8.29376C3 6.25024 7.02352 4.58789 12 4.58789Z" fill="white"/>
<path d="M20.5394 10.9414C20.8359 11.2906 21 11.6666 21 12.0478C21 13.1649 19.8989 13.9906 17.8236 14.6472V13.1119C17.8236 12.6883 17.8817 12.7096 18.284 12.5506C19.1585 12.2111 19.9339 11.6578 20.5394 10.9414ZM16.2352 15.1766C14.9594 15.4572 13.5512 15.706 11.9947 15.706C7.0341 15.706 3 14.0066 3 12.0583C3 11.6666 3.15883 11.2906 3.46057 10.9572C4.60411 12.3126 7.6588 13.3078 11.4706 13.3766V13.853C11.4706 14.2026 11.7353 14.6472 12.2171 14.6472C12.6988 14.6472 13.0587 14.1866 13.0587 13.853V13.3606C14.0077 13.3346 14.9529 13.2337 15.8859 13.0589C16.0817 13.0589 16.2352 13.2283 16.2352 13.419V15.1766Z" fill="white"/>
<path d="M20.497 14.6475C20.82 15.0179 21 15.4256 21 15.8385C21 17.8079 16.9763 19.4121 12 19.4121C7.0394 19.4121 3 17.8079 3 15.8385C3 15.4256 3.20117 15.0179 3.5294 14.6475C4.76294 16.0398 8.06645 16.7649 11.984 16.7649C13.5459 16.7649 15.1764 16.7649 16.2352 16.5902V17.0456C16.2352 17.4002 16.5106 17.8238 17.04 17.8238C17.5694 17.8238 17.8236 17.3685 17.8236 17.0296V16.2356C19.1577 15.8226 19.9306 15.2825 20.497 14.6475Z" fill="white"/>
</g>
<defs>
<clipPath id="clip0_328_39033">
<rect width="24" height="24" fill="white"/>
</clipPath>
</defs>
</svg>
