<svg width="24" height="24" viewBox="0 0 24 24" fill="none" xmlns="http://www.w3.org/2000/svg">
<g clip-path="url(#clip0_328_36899)">
<path d="M24 0H0V24H24V0Z" fill="#3E34A7"/>
<path fill-rule="evenodd" clip-rule="evenodd" d="M19.0588 5.17627H20V17.8821H19.0588V5.17627ZM4 5.17627H4.94118V17.8821H4V5.17627ZM6.82352 6.58803H5.88234V16.4703H6.82352V6.58803ZM17.1765 6.58803H18.1176V16.941H17.1765V6.58803ZM8.70587 7.52922H7.7647V17.8821H8.70587V7.52922ZM15.2942 7.50709H16.2353V17.86H15.2942V7.50709ZM10.5882 8.94098H9.64705V16.941H10.5882V8.94098ZM13.4118 8.94098H14.3529V16.941H13.4118V8.94098ZM12.4706 10.3527H11.5294V18.8233H12.4706V10.3527Z" fill="white"/>
</g>
<defs>
<clipPath id="clip0_328_36899">
<rect width="24" height="24" fill="white"/>
</clipPath>
</defs>
</svg>
