<svg width="24" height="24" viewBox="0 0 24 24" fill="none" xmlns="http://www.w3.org/2000/svg">
<g clip-path="url(#clip0_328_34361)">
<path d="M24 0H0V24H24V0Z" fill="black"/>
<path d="M4.32486 5.12222L10.527 8.59732L9.06701 9.41735C8.957 9.47786 8.81699 9.44236 8.75999 9.41735L5.92291 7.81631C5.6779 7.7098 5.4999 7.88131 5.4999 7.98082V16.137C5.4999 16.3901 5.8384 16.331 5.94941 16.2696C8.851 14.6265 14.6982 11.3194 14.8762 11.2374C15.0537 11.1559 15.2022 11.2034 15.2537 11.2374L16.3592 11.8684C16.5463 12.0535 16.4072 12.208 16.3142 12.262L4.45186 18.9121C4.05635 19.1351 3.98685 18.8806 4.00186 18.7251V5.24323C4.01485 5.01772 4.22236 5.06823 4.32486 5.12222Z" fill="#8AE2D8"/>
<path d="M19.6753 18.8776L13.4731 15.4024L14.9332 14.5825C15.0432 14.5224 15.1832 14.5574 15.2401 14.5825L18.0772 16.1836C18.3223 16.29 18.5002 16.1184 18.5002 16.0191V7.86275C18.5002 7.60975 18.1617 7.66875 18.0512 7.73025C15.1496 9.37331 9.30195 12.6804 9.12396 12.7624C8.94595 12.8444 8.79794 12.7963 8.74595 12.7624L7.64091 12.1319C7.4539 11.9463 7.59291 11.7918 7.68592 11.7378L19.5482 5.08767C19.9438 4.86467 20.0133 5.11917 19.9983 5.27468V18.7571C19.9853 18.9821 19.7778 18.9312 19.6753 18.8776Z" fill="#2C5FF3"/>
</g>
<defs>
<clipPath id="clip0_328_34361">
<rect width="24" height="24" fill="white"/>
</clipPath>
</defs>
</svg>
