<svg width="24" height="24" viewBox="0 0 24 24" fill="none" xmlns="http://www.w3.org/2000/svg">
<g clip-path="url(#clip0_328_34403)">
<path d="M24 0H0V24H24V0Z" fill="white"/>
<path d="M19.9999 4H4.00049V19.9994H19.9999V4Z" fill="white"/>
<path d="M4.00049 4H19.9999V19.9994H4.00049V4Z" fill="url(#paint0_linear_328_34403)"/>
<path d="M7.84277 13.8191L8.24847 9.52215L10.717 7.49365L11.017 7.72507L11.737 10.1736L12.1482 10.2936L13.054 8.62218L14.9539 8.82217L16.2197 14.0563L15.7168 14.2648L13.7598 14.2019L14.1369 13.2249L14.0711 11.9964L13.3569 12.0249L12.5111 14.1334L10.7655 14.082L11.3255 12.9221L10.617 12.2164L9.92555 12.3392L10.057 14.1105L8.07135 14.1163L7.84277 13.8191Z" fill="#003414"/>
<path d="M9.28526 9.53095L9.2824 9.65095C9.15954 9.67953 9.01955 9.72239 8.90527 9.7481C9.0367 10.0109 8.92527 9.7938 9.29954 9.81666C9.17669 10.5738 10.5938 10.3309 10.2938 10.9824C10.3652 11.1537 10.3937 11.2481 10.488 11.1824C10.3737 11.2537 10.2796 11.2966 10.2196 11.1566C10.1538 10.8366 9.95094 10.9681 10.271 11.4708C10.4995 11.808 12.8938 11.2137 11.9938 11.6623C11.9138 11.7536 11.9509 11.6623 11.8938 11.8108C12.3938 11.9194 13.345 10.4281 12.3251 12.0308L11.948 11.8994C11.6451 11.8136 11.9338 12.0194 12.0223 12.0994C11.408 12.6452 13.1079 12.2165 11.2595 12.7308C11.168 12.7565 11.1995 12.6794 11.1795 12.8023C11.1595 12.9165 11.1709 12.9023 11.0766 12.9165C10.988 12.9336 10.9595 12.8994 10.7451 12.8965C10.6023 13.588 10.1738 13.2852 10.748 13.388C11.0251 13.448 11.7766 13.868 12.0051 13.6594C12.1595 13.5194 12.0995 13.6165 12.2138 13.5252L12.2309 13.508C12.2371 13.5028 12.2427 13.497 12.248 13.4908C12.0309 13.3223 12.0651 13.6052 11.6909 13.628C11.5423 13.4536 11.4995 13.5308 11.748 13.3852C11.7138 13.3652 12.8651 12.728 12.9965 12.3365C11.8451 12.3852 12.3966 12.3994 12.568 12.0508C12.6451 11.8936 12.5309 12.0223 12.7338 11.9908C15.2422 11.5765 15.4108 10.6366 13.8565 10.7824C13.4937 10.8166 12.7138 11.4936 13.3508 10.7595C13.4594 10.6737 13.4394 10.7195 13.5965 10.5766C13.6537 10.5652 13.645 10.6624 13.6594 10.6909C13.8022 10.6281 13.6765 10.6966 13.785 10.5566C13.9937 10.2881 14.1108 10.4938 13.6308 10.3567C12.4509 10.0309 13.3594 10.3938 13.5508 10.5852C11.8023 11.0053 12.3938 10.8109 11.4995 10.9937C11.5509 10.7453 12.9566 10.3195 11.4938 10.4881C11.5538 10.4595 11.008 8.18244 11.008 8.17958C11.008 8.171 10.8423 8.15101 10.8451 8.1453C10.9423 7.95387 10.6251 7.58247 10.8766 7.49675C10.388 7.43961 11.0423 7.93387 10.6566 8.15672C10.488 8.27958 10.5566 8.24815 10.448 8.22529C10.0338 8.13673 10.2853 8.44528 10.0196 8.45385C10.0624 8.93098 9.99094 9.39954 9.28526 9.53095Z" fill="#178729"/>
<path d="M11.9858 10.2073C12.0086 10.2415 12 10.2701 12 10.2701C12 10.2644 11.9942 10.2787 11.9886 10.2844C12.2686 10.6759 11.6542 10.2815 11.5 10.993C12.1914 10.8501 11.9086 10.8243 11.86 11.1072C11.98 11.1387 14.0828 10.7187 14.7741 10.3073C14.7428 10.5015 14.7457 10.213 14.8057 10.4159L14.8141 10.4444C14.8257 10.493 15.1285 10.5301 14.957 10.3044C14.957 10.4672 15.077 9.63299 14.8628 9.35013C14.8341 9.31871 14.8457 9.31585 14.7999 9.293C14.8285 9.27013 14.9199 9.22729 14.9599 9.20729L14.797 9.11585C14.7057 9.08729 14.7428 9.09585 14.6341 9.10443L14.6541 9.16157C14.657 9.28156 14.7057 9.13301 14.637 9.24156C14.3228 9.24156 12.9141 9.33584 12.8457 9.33013L12.8599 9.453C12.8599 9.453 12.5942 9.32156 12.4342 9.60441C12.8541 9.55299 12.6429 9.73299 12.4771 9.91011C15.2028 9.78154 13.2885 10.0244 12.5486 10.3301C12.4914 10.3558 12.4829 10.3101 12.2914 10.3158C12.1829 10.3187 12.1486 10.3415 12.1114 10.2073H11.9858Z" fill="#157416"/>
<path d="M14.7998 9.11756L14.9598 9.20899C14.7854 9.30328 14.9198 10.1461 15.0198 10.3118C15.1111 10.3575 15.0854 10.4118 15.0854 10.4118C15.3483 11.0118 15.0683 10.9947 15.4483 11.349C15.334 11.3803 15.3426 11.4061 15.2911 11.5032C15.2483 11.5747 15.214 11.6203 15.1626 11.6375C15.4283 11.7861 15.3998 11.5975 15.4083 11.8861V12.069C15.4026 12.1374 15.731 13.3489 15.7797 13.4917C15.6282 13.5831 15.5082 13.4745 15.4311 13.5802C15.9139 13.5317 15.7739 13.5831 15.8939 13.9117C15.6397 13.9689 15.1169 14.3345 15.7597 14.1517L15.7368 14.286L15.8339 14.2602L17.3025 14.1831C17.4997 14.1746 17.5597 14.2117 17.7139 14.0974C17.5597 14.0889 17.5139 14.0517 17.4168 13.9717C17.2597 13.846 17.3197 13.8917 16.9882 13.8002C16.1568 13.6202 16.4968 13.9174 16.6168 13.2317C16.4597 13.4146 16.3253 13.8802 16.1482 13.3574L16.1425 13.3374C16.071 13.0717 15.9597 12.7802 16.0797 12.5517L16.1339 12.426C15.951 12.3774 15.9282 12.4089 15.8568 12.2517L15.7939 12.109C15.9168 12.0575 15.8568 12.0403 15.9653 11.9518C16.0082 12.0032 16.0282 12.0347 16.0625 12.0947C16.1168 11.7032 16.2768 11.8661 15.9682 11.6661C15.9797 11.5347 15.9853 11.6232 15.9482 11.4775C15.771 11.6975 15.7453 11.4347 15.7139 11.3118C15.6597 11.0861 15.7139 11.2832 15.7225 11.0318C15.7568 10.2318 15.5739 10.8718 15.4882 10.1461C15.4198 9.76611 15.5882 9.84611 15.3283 9.69754C15.434 9.39184 15.294 9.58041 15.2626 9.36327L15.2454 8.96329L15.2111 8.84329C15.0826 8.87757 15.2569 8.83186 15.1198 8.79187C15.0226 8.7633 15.0511 8.77758 14.954 8.78615C14.9826 8.86614 14.9369 8.74901 14.9169 8.93186C14.8969 9.0947 14.9598 9.05186 14.7969 9.11756H14.7998Z" fill="#061709"/>
<path d="M8.44307 9.00251C8.72878 9.12251 8.63736 8.90824 8.8145 9.08251C8.78878 9.11965 8.75164 9.1968 8.7145 9.22251C7.97167 9.43393 9.98873 9.16536 8.36307 9.57106C8.49165 9.55678 8.63164 9.85105 8.32308 9.71392V9.73106L8.33166 9.80533C8.33452 9.82533 8.3488 9.86248 8.36307 9.87391C8.40307 9.91105 9.54303 9.40822 9.54303 9.40822C9.61447 9.32535 9.56589 9.42822 9.55732 9.31679C9.55732 9.29107 9.54875 9.28822 9.55447 9.25964C10.0002 9.08823 9.96016 9.22251 10.1288 9.22251V9.04823C9.96016 8.99394 9.90017 9.08823 9.76874 8.94252L9.80302 8.89681C9.8716 8.77395 9.82302 9.05108 9.81731 8.83966L9.80588 8.69682H10.0116C10.0488 8.60253 10.0316 8.5711 10.0202 8.45111C10.2859 8.44539 10.0345 8.13684 10.4488 8.22539C11.1629 8.37968 10.3716 7.434 10.8773 7.49686L10.9572 7.48257L11.0516 7.44829C10.3888 7.38543 10.4802 7.48257 10.203 7.52829C10.0659 7.55114 9.92874 7.55686 9.7916 7.59686C9.65447 7.63686 9.52018 7.67685 9.39733 7.70256C8.95734 7.79113 8.62593 7.44829 8.56307 8.49682C8.55736 8.58825 8.55451 8.58253 8.60593 8.65396C8.42593 8.72538 8.39451 8.77109 8.44307 9.00251ZM7.2517 12.9995C7.28312 13.1595 7.41455 13.2567 7.48311 13.4395C7.52311 13.5423 7.50026 13.5367 7.56026 13.6195C7.48026 13.6851 7.06598 13.948 6.94028 14.0367C6.73743 14.1595 7.07741 14.0023 6.85742 14.1338L6.94599 14.1509L7.24312 14.0567C7.41455 14.0167 7.52883 14.0795 7.85453 14.0823L8.06881 14.1195C8.31737 14.148 8.61165 14.1195 8.86021 14.1167C8.74021 14.0909 8.78878 14.0367 8.68878 14.0251C8.56307 14.008 8.82306 14.0051 8.61165 14.0538C8.55736 14.0651 7.71454 13.9195 8.59165 13.7967C8.52593 13.4851 8.96877 13.7423 9.03449 13.768C9.02877 13.7567 9.0202 13.7251 9.01449 13.7309C8.67164 13.2223 8.1488 13.1651 8.16308 13.0138L8.04881 12.9595C8.38307 12.8738 8.19737 12.988 8.40879 12.7538C8.41165 12.7395 8.40307 12.6938 8.40022 12.6767C9.07449 12.7023 8.62022 12.4167 8.55736 12.1968C8.84306 12.2652 8.7145 12.3024 8.97449 12.1824C9.3059 12.1739 9.32019 11.8652 9.29162 12.171V12.2168C9.33162 13.4967 9.66018 12.5509 9.61447 12.4167C9.58589 12.3309 9.44875 12.3309 9.37162 12.3109C9.72017 12.2052 9.76302 12.2652 9.64589 11.9681C9.76874 11.8996 9.84588 11.8681 9.85446 11.7768L9.66589 11.7624C9.02877 12.1968 8.63165 11.9796 8.1488 11.3224C8.32308 11.2824 8.07167 11.3081 8.27166 11.3052C8.3288 11.3052 8.38593 11.3252 8.50879 11.2852L8.44022 11.231C8.28594 11.1139 8.33737 11.131 8.08309 11.0424C8.05453 11.1996 8.07167 11.0996 8.03738 11.1768C7.92309 11.4339 8.00595 11.2824 8.00024 11.431C7.99453 11.5539 7.94881 11.5568 7.93167 11.5939C7.78882 11.9368 7.72596 12.6738 7.62882 13.0623C7.80025 13.0767 7.60596 13.0823 7.62596 13.4451C7.5174 13.4051 7.48311 13.2395 7.36311 13.0995L7.24884 13.0023L7.2517 12.9995Z" fill="#179737"/>
<path d="M14.4519 10.5734L14.309 10.5505C14.1605 11.2105 15.1234 10.9076 14.7548 11.1248C14.469 11.2963 14.7462 11.302 14.9548 11.2048C15.1777 11.0963 14.9834 11.2048 15.1005 11.1934C14.8719 11.4334 14.7948 11.3191 14.7177 11.2848C14.7177 11.442 14.6805 11.4191 14.7005 11.4563C14.7005 11.4648 14.7348 11.502 14.7405 11.5134C13.9319 11.5134 15.009 12.2534 14.3948 11.8763C14.1177 11.742 14.1462 11.8476 13.949 11.8705C13.8862 11.8134 13.9119 11.8876 13.9119 11.7391C13.8262 11.6648 13.9434 11.7076 13.8062 11.7105C13.8177 11.8391 13.8205 11.8048 13.749 11.8534C14.129 11.9505 13.4405 12.6905 13.949 12.2676C14.0034 12.362 14.0148 12.7105 14.0548 12.7848C14.0977 12.8705 14.0177 12.7705 14.169 12.7391L14.3377 12.7563C14.1205 12.8847 14.1605 12.7563 14.129 13.0362C15.4719 12.7991 14.5634 13.1962 14.9719 13.419C15.229 13.1504 15.1434 13.4333 15.3377 13.2762C15.449 13.179 15.5234 13.1619 15.3719 13.1133C15.2234 13.0619 15.3119 13.1304 15.3148 13.1419C15.209 13.0019 15.2862 13.0362 15.5148 12.979C15.5834 12.959 15.5862 12.9647 15.6662 12.9647C15.5862 12.9533 15.5234 12.7905 15.5434 12.6848C15.5662 12.5591 15.409 12.2705 15.409 11.8848C15.4005 11.5991 15.4262 11.7848 15.1634 11.6363C15.2148 11.6191 15.249 11.5734 15.289 11.502L15.3177 11.4563C15.3805 11.3563 15.3577 11.3734 15.449 11.3476C15.389 11.2934 15.4319 11.2705 15.329 11.2334C15.2348 11.202 15.1862 11.2534 15.1862 11.102L15.229 10.8248C15.2548 10.6963 15.2205 10.722 15.0862 10.4105C15.0862 10.4105 15.1119 10.3562 15.0205 10.3105C14.8862 10.3391 15.0205 10.2848 14.9919 10.482C14.8405 10.4648 14.8319 10.5076 14.8062 10.4162C14.7462 10.2163 14.4377 10.5676 14.4519 10.5734Z" fill="#15671A"/>
<path d="M12.2568 14.079C12.1711 14.2305 11.8424 14.1248 11.6424 14.139C11.1682 14.1761 11.0396 14.0361 11.1253 14.2048C11.7419 14.1837 12.3592 14.1989 12.9739 14.2505L13.3338 14.219C13.8338 14.179 14.931 14.2561 15.4881 14.2761C15.4652 14.1619 14.1338 14.179 14.0338 14.1619C14.0338 13.9333 14.0652 14.0561 13.9481 13.5961C14.1395 13.5448 14.071 13.5705 14.0567 13.5961C14.0795 13.3677 14.0738 13.5848 13.971 13.4161C13.8167 13.4305 13.731 13.439 13.6852 13.5648C13.6395 13.699 13.7538 13.479 13.6623 13.6733C13.8195 13.6419 13.7481 13.6277 13.9023 13.6733C13.8795 13.7277 13.7967 13.9019 13.7652 13.9448C13.5367 14.2505 13.3738 14.1076 13.1881 14.0505C13.0824 14.019 13.1395 14.0505 13.0311 13.9961C13.0796 13.6333 12.9824 13.5619 13.4281 13.7305C13.4281 13.7305 13.0653 13.359 13.3652 12.8133L13.5195 12.3706C13.5652 12.2962 13.571 12.3049 13.6995 12.2962C13.7052 12.4106 13.7281 12.7105 13.6767 12.7705C13.771 12.779 14.2167 11.4162 14.2367 11.3706C14.2938 11.3762 14.3738 11.4077 14.3852 11.4106L14.4623 11.4278C14.531 11.4049 14.4395 11.4334 14.531 11.3706C14.6595 11.2762 14.5423 11.3362 14.671 11.302C14.1652 11.2191 14.9681 11.302 14.3938 11.3077C14.1138 11.3077 13.7195 10.3134 13.5823 11.3934C13.5767 11.4562 13.5538 11.3762 13.5823 11.4649C12.9596 11.542 12.5539 12.2362 12.3968 12.2391C12.3624 12.2391 12.2968 12.2762 12.2082 12.2934C12.2082 12.2934 12.3196 12.3962 12.6424 12.3506L12.9968 12.3362C12.9682 12.4134 12.9882 12.4705 12.7968 12.479L12.7853 12.5761C12.7482 12.6333 12.6424 12.639 12.6311 12.639L12.2968 12.6133C12.4424 12.6705 12.5453 12.7419 12.5424 12.8761C12.6711 12.8533 12.7339 12.8619 12.8282 12.9305C12.5539 13.1533 12.4568 13.7448 12.2568 14.079Z" fill="#072616"/>
<path d="M12.734 8.54773C12.7625 8.66773 12.7282 8.72486 12.6682 8.81629C12.3825 9.25341 12.4969 9.75055 12.0311 10.1191C11.957 10.182 12.017 10.1191 11.9854 10.2077H12.1111C12.1482 10.342 12.1826 10.322 12.2911 10.3163C12.4826 10.3105 12.4882 10.3563 12.5482 10.3305C13.2769 10.2648 13.4911 9.73055 13.6225 10.182C13.774 10.1534 13.714 10.1363 13.8397 10.1648L13.8997 10.0077L13.8197 9.96768C13.7253 9.92768 13.5769 9.79053 13.5711 9.80196C13.5711 9.80196 13.4511 9.71626 13.4282 9.73625C13.2482 9.82196 13.214 10.0705 13.0569 10.022C12.914 9.97339 13.1397 9.99339 12.9169 9.92768C12.854 9.90768 12.7711 9.92768 12.7369 9.99054C12.6225 9.92196 12.6169 9.90482 12.4797 9.91053C13.0569 9.28199 13.2797 9.09628 14.1282 9.02485C14.4111 9.52483 14.6425 9.06771 14.7968 9.11628C14.9596 9.05057 14.8968 9.09342 14.9139 8.93058C14.9368 8.74772 14.9852 8.86486 14.9539 8.78772C15.051 8.77629 15.0224 8.76201 15.1168 8.78772C15.2596 8.83058 15.0824 8.87343 15.211 8.84486L15.1852 8.71914C14.771 8.63915 14.414 8.54201 13.9853 8.4963C13.8711 8.48201 13.7853 8.43915 13.6882 8.42773L12.974 8.4363C12.734 8.46201 12.9625 8.45059 12.734 8.55059V8.54773Z" fill="#17A737"/>
<path fill-rule="evenodd" clip-rule="evenodd" d="M13.9711 13.4164C14.0768 13.585 14.0796 13.365 14.0568 13.5936C14.0711 13.5707 14.1568 13.6164 13.9653 13.665C14.0396 13.9507 14.034 13.8107 13.8882 14.0964C13.8168 14.2678 14.3881 14.1478 14.4995 14.1136C14.4139 14.2822 14.3681 14.205 14.8367 14.2022C15.1739 14.1278 15.4023 14.2736 15.7367 14.285L15.7567 14.1507C15.1339 14.3278 15.6767 14.065 15.6595 13.9878C15.631 13.8536 15.6167 13.9307 15.5739 13.9164C15.671 13.9278 15.6823 13.945 15.7395 13.945L15.8939 13.9107C15.6081 13.125 15.2452 13.8107 15.7795 13.4907L15.6281 13.0707C15.7252 13.0707 15.6423 13.0878 15.6652 12.965C15.5881 12.965 15.5823 12.9593 15.511 12.9793C14.3252 13.2936 14.9023 12.8336 14.4395 12.9193C14.3539 12.9364 14.3081 13.005 14.1253 13.0336C14.1568 12.7707 14.3281 12.6707 14.1282 12.7622C14.1196 12.7678 14.0568 12.7936 14.054 12.785C14.0368 12.7564 13.8996 12.4964 13.8824 12.7507C13.8596 13.0078 13.8996 12.6736 13.994 12.9507C14.0653 13.165 13.9482 13.2307 13.814 13.2878C13.9853 13.3793 13.9853 13.2736 13.974 13.4164H13.9711Z" fill="#167728"/>
<path d="M9.96902 11.1133C9.97474 11.2989 9.91189 11.4361 9.8776 11.636L9.68904 11.6703C9.72332 11.8246 9.70332 11.7017 9.66619 11.7617L9.85475 11.776C9.83475 12.0303 9.6319 11.7132 9.71189 12.2075L9.36905 12.3103C9.44904 12.3275 9.58619 12.3332 9.61476 12.416C9.79189 12.936 8.94049 12.7017 9.9176 14.1103C9.78903 14.1132 9.72046 14.0817 9.60047 14.096C9.39762 14.1217 9.52047 14.1817 9.36048 14.0388C8.85479 14.116 7.59197 13.9732 7.24342 14.056L6.94629 14.1503C7.95482 14.2017 8.82622 14.1788 9.81189 14.1903C10.0176 14.1903 10.2062 14.1988 10.4147 14.176C10.6919 14.1475 10.8034 14.1817 10.9575 14.156L10.9975 14.1646C10.8975 14.0075 10.9318 14.136 10.7662 14.0788C10.3605 14.0703 10.169 13.7732 10.0948 13.4188C10.0404 13.1137 10.0394 12.8015 10.0919 12.496L10.1776 12.4732C10.1433 12.3588 10.1776 12.1588 10.1919 12.1075C10.2176 12.0275 10.2833 11.8303 10.3462 11.7675C10.3348 11.7103 10.2605 11.8417 10.3062 11.6617C10.2119 11.5561 10.2033 11.5189 10.2348 11.3818C10.1433 11.3018 10.1519 11.1647 10.0462 11.2647C10.0976 11.1589 10.169 11.2476 10.1176 11.0561C10.1062 11.0247 10.1005 11.0161 10.069 10.9761L9.8976 11.0276C9.89475 11.0847 9.86618 11.0104 9.91189 11.0761L9.96902 11.1104V11.1133Z" fill="#061709"/>
<path d="M8.32843 11.1463C8.34271 11.1747 8.317 11.1348 8.50842 11.289C8.38556 11.3262 8.33128 11.3062 8.27128 11.3062C8.07129 11.3062 8.32271 11.2833 8.14844 11.3205C8.42271 11.6947 8.66271 11.749 9.01125 12.0605L9.33124 11.9147C9.3941 11.8747 9.42839 11.8062 9.48267 11.7862C9.62551 11.729 9.85408 11.7718 9.91694 11.4205C9.95979 11.2662 9.87979 11.3919 9.97408 11.3062C9.96837 11.1063 9.75123 10.8891 9.56266 10.8891C9.51124 10.8891 9.48839 10.8891 9.43981 10.9006C9.3541 10.9263 9.30267 10.9863 9.2484 11.0634C8.95126 11.4805 9.17411 11.0177 9.01411 11.3147C8.96841 11.2805 9.03697 11.2833 8.90554 11.2633C9.0484 10.652 8.77983 10.6348 9.38267 10.7006C9.59695 10.7263 9.46839 10.7006 9.58838 10.672C9.68838 10.6492 9.7598 10.7234 9.8455 10.6005L9.91408 10.4863C9.83694 10.4719 9.78551 10.4205 9.6598 10.3577L9.58838 10.5148C9.44839 10.4777 9.19696 10.4634 9.2084 10.3691C9.34552 9.27199 7.89702 11.4347 8.32843 11.1463Z" fill="#076825"/>
<path d="M8.22603 10.065C8.22889 10.4279 8.09461 10.1593 8.10033 10.4279C8.10319 10.7993 8.15746 10.5364 7.98033 10.885L7.97461 10.9022L8.06319 10.9993C8.10889 10.9593 8.22889 10.9507 8.22889 10.9507C8.24318 10.9507 9.36314 9.14504 9.20885 10.3679C9.20885 10.3736 9.18885 10.3964 9.18599 10.405C9.32885 10.445 10.5002 10.4507 9.58598 10.6736C9.46884 10.7022 9.59741 10.725 9.38314 10.7022C7.82034 10.9079 9.38314 11.0679 9.31171 11.2906C9.26314 11.3821 9.74026 11.0822 9.76883 11.1393C10.0831 11.1736 9.89169 11.0822 9.90026 11.025C10.2288 10.9307 10.1317 10.9107 10.2031 11.0707L10.2202 11.1564C10.2774 11.2992 10.3717 11.2535 10.4888 11.1822C10.4317 11.2221 10.6145 11.2449 10.4317 11.185C10.3431 11.1564 10.3745 11.1679 10.2945 10.985C10.4002 10.7536 9.28028 10.025 9.12315 10.0593C10.0688 9.10789 8.41745 9.92501 8.36317 9.87357C8.34774 9.85333 8.337 9.82992 8.33175 9.80501C8.3146 9.64502 8.72601 9.53074 8.36317 9.57074C9.65741 9.25075 8.46031 9.65645 8.81173 9.08218C8.63744 8.9079 8.72601 9.12218 8.44317 9.00218C8.41174 9.00789 8.41745 8.95647 8.38317 9.10504C8.31746 9.38788 8.22032 9.66502 8.22603 10.065Z" fill="#18B847"/>
<path fill-rule="evenodd" clip-rule="evenodd" d="M8.85729 14.1136C8.95157 14.165 9.28014 14.1164 9.36014 14.0421C9.52013 14.185 9.39443 14.1221 9.59726 14.0992C9.72013 14.0821 9.78869 14.1136 9.91725 14.1107C9.72013 13.8307 9.98868 14.0964 9.74583 13.9307C9.65155 13.825 9.48013 13.7021 9.58298 13.6021C9.65726 13.5279 9.59442 13.185 9.30585 13.4592C9.21156 13.3879 9.26585 13.4221 9.21443 13.3021C9.58013 13.2821 9.58013 13.2479 9.53442 12.7193C9.68584 12.6365 9.4887 12.7651 9.6087 12.7108C9.62298 12.7051 9.67155 12.6622 9.6887 12.6508C9.49726 12.6308 9.63155 12.6451 9.58584 12.5908C9.42014 12.5622 9.57442 12.5822 9.50584 12.5451C8.80587 12.1765 9.32871 13.4564 9.29156 12.2165V12.1708L9.30585 12.1051C9.30871 12.0965 9.33443 12.048 9.33443 12.0337C9.21727 12.0822 9.26871 12.0537 9.17157 12.1193C9.10586 12.1593 8.86587 12.2622 8.78587 12.2593C8.76301 12.2593 8.77729 12.2537 8.70587 12.2308L8.55446 12.1965C8.66874 12.5822 8.85445 12.7508 8.0459 12.9593C8.24589 13.0537 8.16303 13.0737 8.08019 13.1936C8.29447 13.1392 8.25731 13.068 8.32018 13.2764L8.32875 13.3079L8.71158 13.1393L8.95157 13.2821C8.84587 13.2936 8.83729 13.2936 8.75158 13.3164C8.71158 13.3307 9.22014 13.8021 8.26875 13.8507C8.24875 13.8507 8.26018 14.0792 8.47159 13.9221C8.46302 14.1792 8.65445 14.0192 8.68873 14.025C8.78587 14.0364 8.74016 14.0907 8.86016 14.1164L8.85729 14.1136Z" fill="#045816"/>
<path d="M10.8775 7.49632C10.7575 7.53632 10.8089 7.52775 10.7917 7.63917C10.7546 7.9306 10.9575 7.92488 10.846 8.14773L10.8289 8.17059C10.8975 8.22772 10.9517 8.23914 10.9832 8.33343C11.0575 8.51342 11.086 8.75057 11.1489 8.87056C10.806 9.06197 11.2917 9.61909 11.5232 10.1905C11.4946 10.2048 11.3175 10.3048 11.3575 10.2533C11.4432 10.3305 11.3346 10.2676 11.4717 10.2933C11.5175 10.3019 11.5375 10.2848 11.6232 10.3076C11.6032 10.5048 11.466 10.6019 11.7946 10.3848C12.2346 10.0933 11.8117 10.3048 12.0317 10.119C11.7403 9.81908 12.3346 9.5391 11.8317 9.63338C11.8112 9.26258 11.6685 8.90898 11.426 8.62771C11.5432 8.51628 11.486 8.59913 11.4975 8.52199C11.526 8.28772 11.3489 8.22772 11.2803 8.06487L11.0517 7.44775L10.9575 7.48203L10.8775 7.49632Z" fill="#05260A"/>
<path d="M10.2343 11.3834C10.2029 11.5206 10.2114 11.5548 10.3029 11.6634C10.4457 11.6606 10.4572 11.6148 10.5372 11.6062C10.6314 11.5948 10.7314 11.6862 10.7314 11.6862C10.2743 12.2005 10.8457 12.4147 11.0971 12.5605C11.3484 12.7033 11.7371 12.7318 11.8742 12.7605C10.7085 14.0605 12.2942 12.3547 11.7884 11.8834C12.4999 11.8577 11.9227 12.2918 12.7313 11.6062L12.9399 11.4634C12.8199 11.3948 12.8771 11.4634 12.8542 11.3262L12.6799 11.3834C12.6427 11.4006 12.7456 11.4948 12.5227 11.4348C12.2999 11.3777 12.5399 11.3719 12.3884 11.3634C12.2571 11.3548 12.2884 11.4406 12.2684 11.5319L12.5056 11.5806C11.9284 11.9461 11.6771 11.8234 12.2199 11.5519C12.1713 11.5006 12.1284 11.4634 12.1113 11.4491C12.1027 11.4491 12.0971 11.4491 12.0942 11.4606C11.3942 11.5691 12.0227 11.2806 11.7142 11.6606C11.3542 11.3034 11.7256 11.4777 11.3856 11.6662L11.3571 11.6834L11.2542 11.7406C11.2999 11.5291 10.3971 11.7891 10.8657 11.5834C11.5256 11.4348 10.9514 11.4748 10.6743 11.5319C10.54 11.5806 10.8114 11.5548 10.6028 11.4948C10.4714 11.4577 10.44 11.6177 10.2971 11.5119L10.2714 11.4719L10.2629 11.4519C10.2171 11.3634 10.3514 11.4748 10.2343 11.3834Z" fill="#045816"/>
<path d="M10.8913 13.856L10.8856 13.876L10.7627 14.0817C10.9313 14.1388 10.897 14.0075 10.997 14.1646L10.957 14.156C11.0027 14.216 11.0085 14.196 11.1227 14.2046C11.037 14.036 11.1685 14.176 11.6427 14.1388C11.8427 14.1246 12.1684 14.2303 12.2597 14.0788C12.3512 13.9217 12.1455 13.9446 12.4112 13.816L12.3255 13.7217C12.6112 13.696 12.5426 13.5304 12.5426 13.5161L12.5512 13.4561C12.5655 13.3733 12.654 13.2389 12.7512 13.1389C12.6484 13.1104 12.6226 13.1189 12.5369 13.0761C12.6026 13.0189 12.6655 13.0133 12.7369 13.0104L12.734 12.9761L12.5112 12.9847C12.3369 12.9618 12.0712 13.1247 11.9113 13.2361C11.7313 13.3618 11.5656 13.2876 11.7513 13.3847L11.5456 13.5047C11.6485 13.5561 11.6256 13.5476 11.6913 13.6276C11.7913 13.6218 12.4626 13.3047 12.2312 13.5076C12.1455 13.5789 12.0969 13.5733 12.0026 13.6588L11.9912 13.6675L11.9141 13.7246C11.5998 13.9446 11.8285 13.5761 11.5827 13.5847C10.4456 13.6247 12.3626 13.5476 10.9227 13.4361C10.9313 13.4447 10.9485 13.4504 10.957 13.4533L11.037 13.4961C11.097 13.5333 11.0656 13.4104 11.0741 13.6646C10.9798 13.7588 10.9913 13.6646 10.8913 13.8588V13.856Z" fill="#155819"/>
<path fill-rule="evenodd" clip-rule="evenodd" d="M10.3064 11.6622C10.2578 11.8422 10.3349 11.7136 10.3463 11.7678C10.2835 11.8307 10.2178 12.025 10.1921 12.1107C9.97776 12.8306 10.9406 12.7392 11.1234 12.7564L11.1091 12.6506C11.0348 12.025 11.3291 12.2022 11.0863 12.3222C10.5835 12.5336 11.3148 12.4078 11.3377 12.145C11.4977 12.2765 11.5491 12.1565 11.6063 12.0907C11.4691 12.0678 11.7777 12.1307 11.5263 11.985C11.4406 11.9365 11.3434 11.9565 11.2948 11.9765C11.1463 12.0278 10.3378 12.3478 11.0748 11.885C11.1491 11.7907 11.0577 11.965 11.1377 11.7878C10.7777 11.6536 10.8234 11.8565 10.8119 11.9165L10.4549 11.8193C10.4006 11.7478 10.5492 11.8022 10.632 11.7622C10.7377 11.7136 10.652 11.7765 10.7348 11.685C10.7348 11.685 10.632 11.5936 10.5378 11.605C10.4578 11.6136 10.4464 11.6593 10.3064 11.6622Z" fill="#139247"/>
<path d="M7.84277 14.4143L8.24847 18.2056L10.717 19.9999L11.017 19.797L11.737 17.6342L12.1482 17.5284L13.054 19.0056L14.9539 18.8313L16.2197 14.2029L15.7168 14.0229L13.7598 14.0801L14.1369 14.9401L14.0711 16.0257L13.3569 15.9972L12.5111 14.1401L10.7655 14.1829L11.3255 15.2057L10.617 15.8343L9.92555 15.7201L10.057 14.1572L8.07135 14.1514L7.84277 14.4172V14.4143Z" fill="#003414"/>
<path d="M9.28526 18.1996L9.2824 18.0939C9.15954 18.0682 9.01955 18.0282 8.90527 18.0082C9.0367 17.7739 8.92527 17.9682 9.29954 17.9482C9.17669 17.2796 10.5938 17.491 10.2938 16.9168C10.3652 16.7653 10.3937 16.6826 10.488 16.7425C10.3737 16.6769 10.2796 16.6397 10.2196 16.7625C10.1538 17.0482 9.95094 16.931 10.271 16.4854C10.4995 16.1883 12.8938 16.714 11.9938 16.3169C11.9138 16.234 11.9509 16.3169 11.8938 16.1854C12.3938 16.0883 13.345 17.4082 12.3251 15.9911L11.948 16.1054C11.6451 16.1854 11.9338 16.0026 12.0223 15.9283C11.408 15.4483 13.1079 15.8283 11.2595 15.374C11.168 15.3511 11.1995 15.4169 11.1795 15.3111C11.1595 15.2083 11.1709 15.2226 11.0766 15.2083C10.988 15.194 10.9595 15.2254 10.7451 15.2283C10.6023 14.6169 10.1738 14.8854 10.748 14.7912C11.0251 14.7397 11.7766 14.3683 12.0051 14.554C12.1595 14.6769 12.0995 14.5912 12.2138 14.6712L12.2309 14.6883L12.248 14.7026C12.0309 14.8512 12.0651 14.6026 11.6909 14.5826C11.5423 14.7369 11.4995 14.6683 11.748 14.7969C11.7138 14.8111 12.8651 15.374 12.9965 15.7226C11.8451 15.6797 12.3966 15.6654 12.568 15.9769C12.6451 16.1112 12.5309 15.9997 12.7338 16.0283C15.2422 16.394 15.4108 17.2225 13.8565 17.0939C13.4937 17.0653 12.7138 16.4654 13.3508 17.1139C13.4594 17.1882 13.4394 17.1511 13.5965 17.2768C13.6537 17.2853 13.645 17.1996 13.6594 17.1739C13.8022 17.231 13.6765 17.1711 13.785 17.2939C13.9937 17.5311 14.1108 17.351 13.6308 17.4653C12.4509 17.7568 13.3594 17.4368 13.5508 17.2653C11.8023 16.8939 12.3938 17.0711 11.4995 16.9082C11.5509 17.1282 12.9566 17.5025 11.4938 17.3539C11.5538 17.3825 11.008 19.3909 11.008 19.3909C11.008 19.3995 10.8423 19.4167 10.8451 19.4195C10.9423 19.5909 10.6251 19.9195 10.8766 19.9938C10.388 20.0481 11.0423 19.6081 10.6566 19.4109C10.488 19.3025 10.5566 19.331 10.448 19.3539C10.0338 19.4309 10.2853 19.1596 10.0196 19.1539C10.0624 18.731 9.99094 18.3139 9.28526 18.1996Z" fill="#178729"/>
<path d="M14.7998 18.5651L14.9598 18.4851C14.7854 18.3993 14.9198 17.6565 15.0198 17.5108C15.1111 17.4708 15.0854 17.4223 15.0854 17.4223C15.3483 16.8936 15.0683 16.908 15.4483 16.5936C15.334 16.5652 15.3426 16.5452 15.2911 16.4565C15.2483 16.3965 15.214 16.3536 15.1626 16.3394C15.4283 16.208 15.3998 16.3736 15.4083 16.1194V15.9565C15.4026 15.8994 15.731 14.8281 15.7797 14.7024C15.6282 14.6224 15.5082 14.7166 15.4311 14.6253C15.9139 14.6653 15.7739 14.6224 15.8939 14.3309C15.6397 14.2824 15.1169 13.9595 15.7597 14.1195L15.7368 13.9995L15.8339 14.0224L17.3025 14.0909C17.4997 14.0995 17.5597 14.0624 17.7139 14.1653C17.5597 14.1737 17.5139 14.2081 17.4168 14.2795C17.2597 14.3881 17.3197 14.3481 16.9882 14.4309C16.1568 14.5909 16.4968 14.3253 16.6168 14.9309C16.4597 14.7709 16.3253 14.3595 16.1482 14.8195L16.1425 14.8395C16.071 15.0737 15.9597 15.3309 16.0797 15.5337L16.1339 15.6424C15.951 15.6852 15.9282 15.6594 15.8568 15.7994L15.7939 15.9223C15.9168 15.9708 15.8568 15.9852 15.9653 16.0594C16.0082 16.0165 16.0282 15.9908 16.0625 15.9365C16.1168 16.2823 16.2768 16.1365 15.9682 16.3136C15.9797 16.428 15.9853 16.3508 15.9482 16.4794C15.771 16.2852 15.7453 16.5194 15.7139 16.6252C15.6597 16.8252 15.7139 16.6536 15.7225 16.8736C15.7568 17.5823 15.5739 17.0165 15.4882 17.6565C15.4198 17.9908 15.5882 17.9223 15.3283 18.0508C15.434 18.3222 15.294 18.1565 15.2626 18.3479L15.2454 18.7022L15.2111 18.8079C15.0826 18.7793 15.2569 18.8164 15.1198 18.8535C15.0226 18.8764 15.0511 18.8651 14.954 18.8535C14.9826 18.7879 14.9369 18.8907 14.9169 18.7279C14.8969 18.5851 14.9598 18.6222 14.7969 18.5651H14.7998Z" fill="#061709"/>
<path d="M7.2517 15.1339C7.28312 14.9939 7.41455 14.911 7.48311 14.7482C7.52311 14.6568 7.50026 14.6625 7.56026 14.5882C7.48026 14.531 7.06598 14.2996 6.94028 14.2225C6.73743 14.111 7.07741 14.251 6.85742 14.1339L6.94599 14.1196L7.24312 14.2025C7.41455 14.2396 7.52883 14.1825 7.85453 14.1825L8.06881 14.1482C8.31737 14.1225 8.61165 14.1482 8.86021 14.1482C8.74021 14.171 8.78878 14.2196 8.68878 14.2339C8.56307 14.2453 8.82306 14.2482 8.61165 14.2053C8.55736 14.1968 7.71454 14.3225 8.59165 14.4339C8.52593 14.7082 8.96877 14.4796 9.03449 14.4568C9.02877 14.4682 9.0202 14.4968 9.01449 14.491C8.67164 14.9396 8.1488 14.991 8.16308 15.1225L8.04881 15.171C8.38307 15.2482 8.19737 15.1482 8.40879 15.3539C8.41165 15.3653 8.40307 15.4082 8.40022 15.4225C9.07449 15.3996 8.62022 15.651 8.55736 15.8453C8.84306 15.7825 8.7145 15.7539 8.97449 15.8568C9.3059 15.8653 9.32019 16.1396 9.29162 15.8653V15.8282C9.33162 14.6968 9.66018 15.531 9.61447 15.651C9.58589 15.7253 9.44875 15.7282 9.37162 15.7425C9.72017 15.8396 9.76302 15.7853 9.64589 16.0453C9.76874 16.1082 9.84588 16.1368 9.85446 16.2168L9.66589 16.2309C9.02877 15.8453 8.63165 16.0368 8.1488 16.6195C8.32308 16.6509 8.07167 16.6309 8.27166 16.6309C8.3288 16.6309 8.38593 16.6138 8.50879 16.6481L8.44022 16.6967C8.28594 16.8024 8.33737 16.7824 8.08309 16.8681C8.05453 16.7252 8.07167 16.8109 8.03738 16.7452C7.92309 16.5167 8.00595 16.6509 8.00024 16.5224C7.99453 16.4138 7.94881 16.4109 7.93167 16.3767C7.78882 16.0768 7.72596 15.4225 7.62882 15.0825C7.80025 15.0682 7.60596 15.0625 7.62596 14.7425C7.5174 14.7768 7.48311 14.9225 7.36311 15.0482L7.24884 15.1339H7.2517Z" fill="#179737"/>
<path d="M14.4519 17.2764L14.309 17.2993C14.1605 16.7136 15.1234 16.9821 14.7548 16.7907C14.469 16.6421 14.7462 16.6364 14.9548 16.7221C15.1777 16.8164 14.9834 16.7221 15.1005 16.7307C14.8719 16.5193 14.7948 16.6164 14.7177 16.6478C14.7177 16.5107 14.6805 16.5336 14.7005 16.4964C14.7005 16.4907 14.7348 16.4593 14.7405 16.4507C13.9319 16.445 15.009 15.7937 14.3948 16.1279C14.1177 16.2479 14.1462 16.1508 13.949 16.1337C13.8862 16.1822 13.9119 16.1165 13.9119 16.2479C13.8262 16.3136 13.9434 16.2765 13.8062 16.2765C13.8177 16.1622 13.8205 16.1908 13.749 16.1508C14.129 16.0622 13.4405 15.4079 13.949 15.7822C14.0034 15.6965 14.0148 15.3908 14.0548 15.3251C14.0977 15.2479 14.0177 15.3365 14.169 15.3651L14.3377 15.3508C14.1205 15.2365 14.1605 15.3508 14.129 15.1051C15.4719 15.3137 14.5634 14.9622 14.9719 14.7622C15.229 15.0022 15.1434 14.7537 15.3377 14.8937C15.449 14.9765 15.5234 14.9908 15.3719 15.0365C15.2234 15.0794 15.3119 15.0194 15.3148 15.0108C15.209 15.1337 15.2862 15.1022 15.5148 15.1537C15.5834 15.1708 15.5862 15.1651 15.6662 15.1651C15.5862 15.1765 15.5234 15.3194 15.5434 15.4137C15.5662 15.5251 15.409 15.7794 15.409 16.1194C15.4005 16.3764 15.4262 16.2079 15.1634 16.3393C15.2148 16.3536 15.249 16.3964 15.289 16.4564L15.3177 16.4993C15.3805 16.5878 15.3577 16.5707 15.449 16.5936C15.389 16.6421 15.4319 16.6621 15.329 16.6936C15.2348 16.7221 15.1862 16.6764 15.1862 16.8078C15.1977 16.8936 15.2148 16.9764 15.229 17.0564C15.2548 17.1707 15.2205 17.145 15.0862 17.4221C15.0862 17.4221 15.1119 17.4707 15.0205 17.5078C14.8862 17.485 15.0205 17.5336 14.9919 17.3593C14.8405 17.3736 14.8319 17.3364 14.8062 17.4164C14.7462 17.5936 14.4377 17.2821 14.4519 17.2764Z" fill="#15671A"/>
<path d="M12.2573 14.183C12.1716 14.0488 11.843 14.143 11.643 14.1288C11.1687 14.0974 11.0402 14.2202 11.123 14.0717C11.3687 14.0946 12.7916 14.0717 12.9744 14.0317L13.3344 14.0602C13.8344 14.0946 14.9286 14.0259 15.4886 14.0088C15.4657 14.1117 14.1344 14.0946 14.0344 14.1117C14.0344 14.3117 14.0657 14.203 13.9486 14.6117C14.1401 14.6546 14.0686 14.6317 14.0572 14.6117C14.0801 14.8117 14.0744 14.6202 13.9715 14.7688C13.8172 14.7574 13.7315 14.7488 13.6857 14.6374C13.6401 14.5174 13.7544 14.7117 13.6629 14.543C13.8201 14.5717 13.7486 14.583 13.9001 14.543C13.8801 14.4946 13.7972 14.343 13.7657 14.303C13.5372 14.0317 13.3744 14.1574 13.1886 14.2088C13.0829 14.2374 13.1401 14.2088 13.0315 14.2546C13.0801 14.5774 12.9829 14.6402 13.4286 14.4888C13.4286 14.4888 13.0657 14.8202 13.3657 15.3029L13.5201 15.6916C13.5657 15.7573 13.5715 15.7487 13.7001 15.7573C13.7057 15.6573 13.7286 15.3916 13.6772 15.3373C13.7715 15.3287 14.2172 16.5373 14.2372 16.5773C14.2944 16.5716 14.3744 16.5429 14.3829 16.5401L14.4601 16.5258C14.5315 16.5458 14.4401 16.5201 14.5315 16.5773C14.6601 16.6573 14.5429 16.6058 14.6715 16.6345C14.1657 16.7087 14.9686 16.6345 14.3944 16.6316C14.1144 16.6287 13.7201 17.5087 13.5829 16.5545C13.5772 16.4973 13.5544 16.5687 13.5829 16.4916C12.9601 16.4229 12.5545 15.8116 12.3973 15.8058C12.363 15.8058 12.2973 15.7745 12.2087 15.7601C12.2087 15.7601 12.3202 15.6716 12.643 15.7087L12.9972 15.7229C12.9686 15.6545 12.9886 15.6058 12.7973 15.5945L12.7858 15.5087C12.7487 15.4601 12.643 15.4545 12.6316 15.4545L12.2973 15.4773C12.443 15.4258 12.5458 15.3629 12.543 15.2429C12.6716 15.2658 12.7345 15.2573 12.8287 15.1973C12.5545 15.003 12.4573 14.4774 12.2573 14.183Z" fill="#072616"/>
<path fill-rule="evenodd" clip-rule="evenodd" d="M13.974 14.7681C14.0768 14.6195 14.0796 14.8137 14.0596 14.6109C14.0711 14.6309 14.1568 14.5909 13.9653 14.5481C14.0396 14.2966 14.034 14.4195 13.8882 14.1681C13.8168 14.0166 14.3881 14.1224 14.4995 14.1509C14.4139 14.0053 14.3681 14.0709 14.8367 14.0737C15.1739 14.1395 15.4023 14.0109 15.7367 13.9995L15.7595 14.1195C15.1339 13.9624 15.6795 14.1937 15.6595 14.2624C15.631 14.3824 15.6167 14.3166 15.5739 14.3281C15.671 14.3166 15.6823 14.2995 15.7395 14.3024L15.8939 14.3309C15.6081 15.0253 15.2452 14.4195 15.7795 14.7024L15.6281 15.0737C15.7252 15.0737 15.6423 15.0566 15.6652 15.1653C15.5881 15.1653 15.5823 15.1709 15.511 15.1537C14.3252 14.8766 14.9023 15.2824 14.4395 15.2081C14.3539 15.1937 14.3081 15.1337 14.1282 15.1053C14.1568 15.3395 14.3281 15.4253 14.1282 15.3453C14.1196 15.3424 14.0568 15.3166 14.054 15.3253C14.0368 15.3537 13.8996 15.5824 13.8824 15.3566C13.8596 15.1281 13.8996 15.4253 13.994 15.1795C14.0653 14.9881 13.9482 14.9309 13.814 14.8824C13.9853 14.7995 13.9853 14.8937 13.974 14.7681Z" fill="#167728"/>
<path d="M8.32843 16.771C8.34271 16.7482 8.317 16.7853 8.50842 16.6482C8.38556 16.6139 8.33128 16.631 8.27128 16.631C8.07129 16.631 8.32271 16.651 8.14844 16.6197C8.42271 16.2882 8.66271 16.2397 9.01125 15.9653L9.33124 16.0939C9.3941 16.131 9.42839 16.191 9.48267 16.2082C9.62551 16.2597 9.85408 16.2197 9.91694 16.531C9.95979 16.6682 9.87979 16.5597 9.97408 16.6339C9.96837 16.811 9.75123 16.9997 9.56266 17.0025C9.51124 17.0025 9.48839 17.0025 9.43981 16.991C9.3541 16.9682 9.30267 16.9139 9.2484 16.8482C8.95126 16.4797 9.17411 16.8882 9.01411 16.6253C8.96841 16.6539 9.03697 16.6539 8.90554 16.6682C9.0484 17.211 8.77983 17.2253 9.38267 17.1653C9.59695 17.1453 9.46839 17.1653 9.58838 17.191C9.68838 17.211 9.7598 17.1482 9.8455 17.2539L9.91408 17.3539C9.83694 17.3682 9.78551 17.411 9.6598 17.4682L9.58838 17.331C9.44839 17.3625 9.19696 17.3768 9.2084 17.4597C9.34552 18.4281 7.89702 16.5168 8.32843 16.7739V16.771Z" fill="#076825"/>
<path fill-rule="evenodd" clip-rule="evenodd" d="M8.85729 14.1508C8.95157 14.105 9.28014 14.1508 9.36014 14.2166C9.52013 14.0908 9.39443 14.145 9.59726 14.1679C9.72013 14.1794 9.78869 14.1508 9.91725 14.1537C9.72013 14.4022 9.98868 14.165 9.74583 14.3137C9.65155 14.4079 9.48013 14.5137 9.58298 14.605C9.65726 14.6679 9.59442 14.9737 9.30585 14.7308C9.21156 14.7908 9.26585 14.7622 9.21443 14.8679C9.58013 14.8879 9.58013 14.9166 9.53442 15.3822C9.68584 15.4566 9.4887 15.3422 9.6087 15.3908C9.62298 15.3966 9.67155 15.4337 9.6887 15.445C9.49726 15.4622 9.63155 15.4479 9.58584 15.4966C9.42014 15.5194 9.57442 15.505 9.50584 15.5366C8.80587 15.8622 9.32871 14.7337 9.29156 15.8279V15.865L9.30585 15.925C9.30871 15.9308 9.33443 15.9794 9.33443 15.9879C9.21727 15.945 9.26871 15.9708 9.17157 15.9137C9.0499 15.8536 8.91989 15.8122 8.78587 15.7908C8.76301 15.7908 8.77729 15.7908 8.70587 15.8137L8.55446 15.845C8.66874 15.5022 8.85445 15.3537 8.0459 15.1708C8.24589 15.0879 8.16303 15.0679 8.08019 14.965C8.29447 15.0108 8.25731 15.0737 8.32018 14.8908L8.32875 14.8622L8.71158 15.0108L8.95157 14.885C8.84587 14.8766 8.83729 14.8766 8.75158 14.8566C8.71158 14.8422 9.22014 14.4279 8.26875 14.385C8.24875 14.385 8.26018 14.185 8.47159 14.3222C8.46302 14.0937 8.65445 14.2366 8.68873 14.2308C8.78587 14.2194 8.74016 14.1737 8.86016 14.1508H8.85729Z" fill="#045816"/>
<path d="M10.2343 16.5661C10.2029 16.4432 10.2114 16.4118 10.3029 16.3175C10.4457 16.3203 10.4572 16.3603 10.5372 16.369C10.6314 16.3775 10.7314 16.2975 10.7314 16.2975C10.2743 15.8403 10.8457 15.6546 11.0971 15.5261C11.3484 15.3975 11.7371 15.3718 11.8742 15.3518C10.7085 14.2033 12.2942 15.7061 11.7884 16.1232C12.4999 16.1461 11.9227 15.7632 12.7313 16.369L12.9399 16.4946C12.8199 16.5546 12.8771 16.4946 12.8542 16.6175L12.6799 16.5661C12.6427 16.549 12.7456 16.469 12.5227 16.5203C12.2999 16.5718 12.5399 16.5746 12.3884 16.5832C12.2571 16.589 12.2884 16.5146 12.2684 16.4346L12.5056 16.3918C11.9284 16.0661 11.6771 16.1775 12.2199 16.4175L12.1113 16.5061C12.1027 16.5061 12.0971 16.5061 12.0942 16.4975C11.3942 16.4003 12.0227 16.6546 11.7142 16.3203C11.3542 16.6346 11.7256 16.4803 11.3856 16.3146L11.3571 16.3003L11.2542 16.249C11.2999 16.4375 10.3971 16.209 10.8657 16.389C11.5256 16.5203 10.9514 16.4832 10.6743 16.4346C10.54 16.389 10.8114 16.4146 10.6028 16.4661C10.4714 16.5003 10.44 16.3575 10.2971 16.4518L10.2714 16.4861L10.2629 16.5032C10.2171 16.5832 10.3514 16.4861 10.2343 16.5661Z" fill="#045816"/>
<path d="M10.8913 14.3771L10.8856 14.3599L10.7627 14.1799C10.9313 14.1313 10.897 14.2456 10.997 14.1084L10.957 14.1171C11.0027 14.0599 11.0085 14.0771 11.1227 14.0713C11.037 14.2199 11.1685 14.0971 11.6427 14.1284C11.8427 14.1427 12.1684 14.0484 12.2597 14.1856C12.3512 14.3227 12.1455 14.2999 12.4112 14.4142L12.3255 14.4971C12.6112 14.5199 12.5426 14.6684 12.5426 14.6799L12.5512 14.7342C12.5655 14.8056 12.654 14.9256 12.7512 15.0142C12.6484 15.0399 12.6226 15.0313 12.5369 15.0684C12.6026 15.1198 12.6655 15.1255 12.7369 15.1255L12.734 15.1541L12.5112 15.1483C12.3369 15.1712 12.0712 15.0256 11.9113 14.9284C11.7313 14.8171 11.5656 14.8799 11.7513 14.7971L11.5456 14.6913C11.6485 14.6427 11.6256 14.6513 11.6913 14.5827C11.7913 14.5884 12.4626 14.8684 12.2312 14.6884C12.1455 14.6227 12.0969 14.6313 12.0026 14.5542L11.9912 14.5456L11.9141 14.4971C11.5998 14.3027 11.8285 14.6256 11.5827 14.6199C10.4456 14.5827 12.3626 14.6513 10.9227 14.7513C10.9313 14.7427 10.9485 14.7399 10.957 14.7342C10.9798 14.7227 11.0141 14.7113 11.037 14.6971C11.097 14.6656 11.0656 14.7742 11.0741 14.5484C10.9798 14.4627 10.9913 14.5484 10.8913 14.3771Z" fill="#155819"/>
<path fill-rule="evenodd" clip-rule="evenodd" d="M10.3064 16.3138C10.2578 16.1566 10.3349 16.271 10.3463 16.2224C10.2768 16.1328 10.2244 16.031 10.1921 15.9225C9.97776 15.2854 10.9406 15.3683 11.1234 15.3511L11.1091 15.4454C11.0348 15.9967 11.3291 15.8396 11.0863 15.7339C10.5835 15.5483 11.3148 15.6596 11.3377 15.8911C11.4977 15.7767 11.5491 15.8825 11.6063 15.9396C11.4691 15.9596 11.7777 15.9025 11.5263 16.031C11.4406 16.0766 11.3434 16.0566 11.2919 16.0395C11.1491 15.9939 10.3349 15.7111 11.0748 16.1224C11.1491 16.2053 11.0577 16.0482 11.1377 16.2053C10.7777 16.3253 10.8234 16.1453 10.8119 16.091L10.4549 16.1766C10.4006 16.2424 10.5492 16.1938 10.632 16.2282C10.7377 16.271 10.652 16.2166 10.7348 16.2966C10.7348 16.2966 10.632 16.3766 10.5378 16.3682C10.4578 16.3595 10.4464 16.3195 10.3064 16.3166V16.3138Z" fill="#139247"/>
<path d="M4.00049 13.9995H19.9999V19.9993H4.00049V13.9995Z" fill="url(#paint1_linear_328_34403)"/>
<path d="M7.37458 13.3563C7.37458 13.3935 7.06031 13.1507 7.01174 13.0935C7.02888 13.1879 7.04888 13.3963 6.99459 13.4879C6.93745 13.4279 6.91173 13.2763 6.90888 13.205C6.84393 13.318 6.75402 13.4147 6.64603 13.4879C6.62318 13.4363 6.69746 13.2764 6.7546 13.1679C6.70318 13.2564 6.62889 13.3679 6.59461 13.3563C6.53747 13.2221 6.60603 13.0992 6.64603 13.0563C6.61174 13.0679 6.5289 13.0907 6.47461 13.0735C6.48604 13.0163 6.65175 12.9621 6.73175 12.945L6.54319 12.7936C6.60032 12.7993 6.72889 12.8136 6.78603 12.8136C6.78603 12.7222 6.84318 12.5851 6.87174 12.5308L6.90602 12.8136L7.01174 12.568V12.7564C7.05174 12.728 7.22601 12.6822 7.30601 12.6622C7.3003 12.688 7.28887 12.7536 7.28887 12.8136C7.34601 12.8136 7.3803 12.8507 7.39171 12.8707C7.34601 12.8992 7.24887 12.965 7.23744 12.9821C7.3203 13.0107 7.36316 13.0679 7.37458 13.0935C7.35173 13.0935 7.26887 13.0907 7.11745 13.0735C7.20316 13.1135 7.37458 13.3192 7.37458 13.3563Z" fill="#195936"/>
<path d="M16.6003 13.3996C16.6003 13.4254 16.8059 13.2625 16.8431 13.2254C16.8288 13.2883 16.8146 13.4254 16.8546 13.4883C16.8917 13.4483 16.9059 13.3454 16.9117 13.2996C16.9539 13.3746 17.0125 13.4391 17.0831 13.4883C17.1003 13.4539 17.0517 13.3454 17.0117 13.2739C17.0459 13.3339 17.0974 13.4083 17.1203 13.3996C17.1335 13.3663 17.1374 13.3301 17.1313 13.2948C17.1252 13.2595 17.1095 13.2266 17.0859 13.1996C17.1223 13.2141 17.1615 13.219 17.2003 13.2139C17.1917 13.1739 17.0803 13.1367 17.0288 13.1254L17.1546 13.0254L16.9917 13.0367C16.9917 12.9796 16.9546 12.8883 16.9346 12.8511L16.9117 13.0367L16.8431 12.8739V12.9996C16.8146 12.9796 16.7003 12.9511 16.6431 12.9367C16.6488 12.9539 16.6574 12.9967 16.6574 13.0367C16.6434 13.0367 16.6295 13.0399 16.6171 13.0464C16.6046 13.0529 16.5939 13.0623 16.5859 13.0739C16.6174 13.0967 16.6831 13.1396 16.6917 13.1511C16.6346 13.1711 16.6059 13.2083 16.6003 13.2254C16.6146 13.2254 16.6717 13.2254 16.7717 13.2139C16.7146 13.2367 16.6003 13.3767 16.6003 13.3996Z" fill="#132725"/>
</g>
<defs>
<linearGradient id="paint0_linear_328_34403" x1="12.0002" y1="4" x2="12.0002" y2="19.9994" gradientUnits="userSpaceOnUse">
<stop stop-color="#0980B8"/>
<stop offset="0.21" stop-color="#4DCCF7"/>
<stop offset="0.35" stop-color="#48C9F4"/>
<stop offset="0.57" stop-color="#10A8D9"/>
<stop offset="1" stop-color="#044F7C"/>
</linearGradient>
<linearGradient id="paint1_linear_328_34403" x1="12.0002" y1="13.5909" x2="12.0002" y2="19.9993" gradientUnits="userSpaceOnUse">
<stop stop-color="#10A3D4" stop-opacity="0.28"/>
<stop offset="0.57" stop-color="#034E78"/>
</linearGradient>
<clipPath id="clip0_328_34403">
<rect width="24" height="24" fill="white"/>
</clipPath>
</defs>
</svg>
