<svg width="24" height="24" viewBox="0 0 24 24" fill="none" xmlns="http://www.w3.org/2000/svg">
<g clip-path="url(#clip0_328_54765)">
<path d="M24 0H0V24H24V0Z" fill="#002F81"/>
<path d="M7.20052 7.40574C7.38309 7.07488 7.65104 6.79902 7.97645 6.60691C8.30186 6.41482 8.67283 6.31348 9.05072 6.31348C9.42861 6.31348 9.79956 6.41482 10.125 6.60691C10.4505 6.79902 10.7182 7.07488 10.9009 7.40574L16.7144 17.6873H5.20109C3.50962 17.6873 2.45304 15.8157 3.29641 14.3184L7.20052 7.40574Z" fill="white"/>
<path d="M16.7994 7.40574C16.6169 7.07488 16.3489 6.79902 16.0235 6.60691C15.6981 6.41482 15.3271 6.31348 14.9492 6.31348C14.5713 6.31348 14.2003 6.41482 13.875 6.60691C13.5495 6.79902 13.2817 7.07488 13.099 7.40574L8.97698 14.7022C8.22364 16.029 9.16176 17.6873 10.659 17.6873H18.7989C20.4904 17.6873 21.547 15.8157 20.7036 14.3184L16.7994 7.40574Z" fill="white"/>
<path d="M10.6589 17.6866H16.7139L11.9997 9.34766L8.97211 14.7016C8.22351 16.0282 9.16162 17.6866 10.6589 17.6866Z" fill="white"/>
</g>
<defs>
<clipPath id="clip0_328_54765">
<rect width="24" height="24" fill="white"/>
</clipPath>
</defs>
</svg>
