<svg width="24" height="24" viewBox="0 0 24 24" fill="none" xmlns="http://www.w3.org/2000/svg">
<g clip-path="url(#clip0_328_54921)">
<path d="M24 0H0V24H24V0Z" fill="url(#paint0_linear_328_54921)"/>
<path d="M20.9462 13.3125L15.1101 7.55141C15.0725 7.51829 15.0243 7.5 14.9743 7.5C14.9243 7.5 14.8761 7.51829 14.8387 7.55141L11.9731 10.3701L9.16447 7.59731C9.14665 7.5794 9.12548 7.56518 9.10216 7.55551C9.07884 7.5458 9.05383 7.54081 9.02857 7.54081C9.00331 7.54081 8.9783 7.5458 8.95498 7.55551C8.93167 7.56518 8.91048 7.5794 8.89268 7.59731L8.01613 8.44641L4.79341 11.5647L4.08875 12.2478L3.05336 13.2435C3.03528 13.2615 3.0212 13.283 3.01205 13.3067C3.00289 13.3305 2.99888 13.3559 3.00027 13.3813C3.00027 13.4335 3.02321 13.4794 3.05336 13.5186L5.96469 16.3925C6.04119 16.4672 6.16673 16.4672 6.23602 16.3925L9.03172 13.6359L11.8639 16.4317C11.9403 16.5064 12.0658 16.5064 12.1351 16.4317L14.9382 13.6648L17.7572 16.4474C17.7754 16.4652 17.7974 16.479 17.8212 16.4881C17.8452 16.497 17.8707 16.501 17.8962 16.4996C17.9488 16.4996 17.9952 16.4833 18.0352 16.4474L20.9466 13.5735C20.9646 13.5556 20.9786 13.534 20.9879 13.5105C20.9969 13.4867 21.001 13.4615 20.9998 13.4362C20.9998 13.3808 20.9826 13.3417 20.9462 13.3125ZM20.4233 13.5509L18.7494 12.9429L17.9816 11.3096L18.425 11.3722L20.5294 13.4488L20.4233 13.5509ZM19.4774 14.4846L18.9811 13.4362L20.1222 13.851L19.4774 14.4846ZM7.95358 10.7062L5.59436 11.3334L7.95313 9.04397L7.95358 10.7062ZM5.02515 11.8789L6.67926 11.441L6.57037 13.2796L4.55897 12.336L5.02515 11.8789ZM7.07657 11.3365L7.37086 11.2615L8.15517 12.4498L6.92765 13.7916L7.07657 11.3365ZM8.41661 12.1466L7.75829 11.1503L8.13177 11.0522L9.07177 11.4347L8.41661 12.1466ZM8.34011 10.7224V10.0267L10.577 10.2099L11.1362 11.8657L8.34011 10.7224ZM10.2327 12.8746L11.0337 13.3579L11.1659 15.2027L10.0343 14.0927L10.2327 12.8746ZM11.3215 13.0839L10.3055 12.463L10.3821 11.98L11.3378 12.3716C11.3594 12.3894 11.3863 12.4 11.4142 12.4012L12.3773 12.7995L12.7804 13.9784L11.3215 13.0839ZM12.7705 12.7441L13.8195 12.2086L13.0518 13.5572L12.7705 12.7441ZM14.2231 11.5814L13.2538 12.0777L13.4851 10.4546L14.835 11.2678L14.2231 11.5814ZM15.2388 11.059L13.4289 9.97133L13.1116 9.77873L13.5877 9.31171L15.6459 9.97133L15.8412 10.7521L15.2388 11.059ZM16.2251 10.6833L15.7449 8.71415L17.9816 10.9217L16.2251 10.6833ZM16.2413 11.0689L16.6517 11.1212L17.0948 15.2423L15.9137 14.0765L16.2413 11.0689ZM17.0423 11.1832L17.5319 11.2515L18.2301 12.7374L17.3762 14.3019L17.0423 11.1832ZM14.9679 7.95683L15.2091 8.19487L15.5367 9.53715L13.8987 9.01473L14.9679 7.95683ZM12.1059 10.7845L12.8367 10.0627L13.1247 10.2392L12.8304 12.2932L12.5289 12.4467L11.5993 12.0714L10.8384 9.81158L11.831 10.7912C11.8705 10.8219 11.9195 10.838 11.9695 10.8368C12.0195 10.8357 12.0681 10.8171 12.1059 10.7845ZM9.02182 8.01218L10.2264 9.19741L10.4347 9.81788L8.34056 9.64155V8.66826L9.02182 8.01218ZM4.25748 12.6231L6.54067 13.6877L6.47767 14.7002L4.43613 14.3474L3.46687 13.3908L4.25748 12.6231ZM6.09698 15.9934L4.90906 14.8212L6.44437 15.089L6.40477 15.6797L6.09698 15.9934ZM8.88953 13.2337L6.82505 15.272L6.87813 14.3996L6.88443 14.3933L9.44525 11.5976L10.0112 11.8261L9.89524 12.5317L9.69364 13.7565L9.16401 13.2337C9.12746 13.1975 9.07815 13.1772 9.02677 13.1772C8.97539 13.1772 8.92609 13.1975 8.88953 13.2337ZM12.0033 16.0325L11.583 15.6177L11.4436 13.6032L12.9789 14.5367L13.1184 14.9355L12.0033 16.0325ZM14.9445 13.2112C14.8933 13.2111 14.8438 13.2297 14.8053 13.2634L13.4158 14.6349L13.2138 14.0436L14.4481 11.882L15.8376 11.1764L15.5601 13.7268L15.0867 13.2598C15.0458 13.2284 14.9959 13.2113 14.9445 13.2112ZM17.8958 16.046L17.5218 15.677L17.4453 14.9711L18.4317 13.1622L19.1858 14.7722L17.8958 16.046Z" fill="white"/>
</g>
<defs>
<linearGradient id="paint0_linear_328_54921" x1="4" y1="11.9999" x2="20.0001" y2="11.9999" gradientUnits="userSpaceOnUse">
<stop stop-color="#C31F5D"/>
<stop offset="1" stop-color="#302361"/>
</linearGradient>
<clipPath id="clip0_328_54921">
<rect width="24" height="24" fill="white"/>
</clipPath>
</defs>
</svg>
