<svg width="24" height="24" viewBox="0 0 24 24" fill="none" xmlns="http://www.w3.org/2000/svg">
<g clip-path="url(#clip0_328_39400)">
<path d="M24 0H0V24H24V0Z" fill="#FEFEFE"/>
<path d="M6.07501 5H9.5V7.00001H6.5V11.58L6 11.93V12.4799L6.5 12.805V17H9.5V19H6.07501L4.50001 17V13H3V11.0001H4.50001V7.00001L6.07501 5ZM17.925 5H14.5V7.00001H17.5V11.58L18.0001 11.93V12.4799L17.5 12.805V17H14.5V19H17.925L19.5 17V13H21V11.0001H19.5V7.00001L17.925 5ZM11.5001 9.97002C11.7401 9.74496 12.0501 9.5 12.6599 9.5C13.7251 9.5 14.5 10.4849 14.5 11.51V14.5001H13.0001V11.395C12.9601 11.105 12.8251 10.5 12.3301 10.5C11.975 10.5 11.5001 11.0001 11.5001 11.29V14.5001H9.99998V9.5H11.5001V9.97002Z" fill="white"/>
</g>
<defs>
<clipPath id="clip0_328_39400">
<rect width="24" height="24" fill="white"/>
</clipPath>
</defs>
</svg>
