<svg width="24" height="24" viewBox="0 0 24 24" fill="none" xmlns="http://www.w3.org/2000/svg">
<g clip-path="url(#clip0_328_39407)">
<path d="M24 0H0V24H24V0Z" fill="white"/>
<path d="M12 3C16.9394 3 21 7.01294 21 12C21 16.9394 16.987 21 12 21C7.06059 21 3 16.987 3 12C3 7.01294 7.01294 3 12 3Z" fill="url(#paint0_linear_328_39407)"/>
<path d="M13.8526 10.0094C14.0219 10.11 14.1173 10.274 14.1173 10.4488C14.1173 10.5283 14.0961 10.6076 14.0486 10.6817C14.0028 10.7632 13.9358 10.8303 13.8547 10.8761C13.7733 10.9219 13.6811 10.9444 13.5879 10.9411C13.5128 10.9357 13.4402 10.9121 13.3762 10.8724L7.76437 7.44707V16.3783L10.2102 15.2453C10.2896 15.1976 10.3691 15.1764 10.4538 15.1764C10.6232 15.1764 10.7821 15.2717 10.8772 15.4413C10.9302 15.5206 10.9514 15.6159 10.9461 15.706C10.9408 15.8647 10.8402 16.0183 10.6921 16.1083L7.47321 17.7283C7.37791 17.776 7.28261 17.8237 7.18732 17.8237C6.89614 17.8237 6.70557 17.633 6.70557 17.347V6.66884C6.70557 6.57354 6.70557 6.5259 6.75849 6.43061C6.89614 6.19237 7.18203 6.09707 7.42554 6.24001L13.8579 10.0041L13.8526 10.0094Z" fill="#F0F3FA"/>
<path d="M10.1214 13.4023C10.0468 13.3599 9.98538 13.2981 9.94331 13.2234C9.90135 13.1488 9.88054 13.0642 9.88301 12.9786C9.88301 12.9046 9.89898 12.8305 9.93071 12.7563C9.99956 12.5976 10.1901 12.5234 10.3807 12.5286C10.46 12.5286 10.5396 12.5446 10.6083 12.571L16.2361 15.9699V7.46755L13.8007 8.75931C13.7204 8.80549 13.6285 8.82754 13.536 8.82284C13.4532 8.81662 13.373 8.79082 13.3022 8.74755C13.2313 8.7043 13.1717 8.64482 13.1283 8.57401C13.0779 8.49729 13.0537 8.40625 13.0596 8.3146C13.0701 8.16108 13.1653 8.01813 13.3242 7.92814L16.5219 6.26578C16.6171 6.22344 16.7125 6.17578 16.8077 6.17578C17.0989 6.17578 17.2948 6.36107 17.2948 6.63637V16.8329C17.2948 16.9282 17.2948 16.9706 17.2419 17.0657C17.0989 17.2934 16.8077 17.3411 16.5696 17.251L10.1214 13.4023Z" fill="#F0F3FA"/>
</g>
<defs>
<linearGradient id="paint0_linear_328_39407" x1="18.0883" y1="4.85294" x2="4.05882" y2="18.0882" gradientUnits="userSpaceOnUse">
<stop stop-color="#5A47F0"/>
<stop offset="1" stop-color="#2A1BA8"/>
</linearGradient>
<clipPath id="clip0_328_39407">
<rect width="24" height="24" fill="white"/>
</clipPath>
</defs>
</svg>
