<svg width="24" height="24" viewBox="0 0 24 24" fill="none" xmlns="http://www.w3.org/2000/svg">
<g clip-path="url(#clip0_328_39418)">
<path d="M24 0H0V24H24V0Z" fill="#03A7E4"/>
<path fill-rule="evenodd" clip-rule="evenodd" d="M13.7747 17.3658C13.7311 17.3803 13.6874 17.3942 13.6433 17.4077C13.1155 17.5683 12.5622 17.6523 12.0003 17.6525C10.5021 17.6532 9.06488 17.0585 8.00497 15.9995C6.94506 14.9405 6.34926 13.5038 6.34863 12.0054C6.34801 10.5071 6.94262 9.06992 8.00164 8.01001C8.66313 7.34798 9.47196 6.86701 10.3511 6.59905C10.8811 6.43746 11.4367 6.35329 12.0009 6.35352C12.7428 6.35382 13.4773 6.50026 14.1626 6.78446C14.848 7.06865 15.4706 7.48505 15.9949 8.00986C16.5193 8.53467 16.9351 9.15763 17.2187 9.84315C17.5024 10.5286 17.6482 11.2633 17.648 12.0053C17.6477 12.7471 17.5012 13.4817 17.217 14.167C16.9328 14.8523 16.5165 15.475 15.9916 15.9993C15.4668 16.5237 14.8438 16.9396 14.1583 17.2232C14.032 17.2754 13.9041 17.323 13.7747 17.3658ZM10.7444 8.70646H8.70678V9.17234H8.92325L9.17737 9.44785V14.3536C9.17737 14.3536 9.17737 14.8241 8.70678 14.8241V15.2947H10.1185V14.8241C10.1185 14.8241 9.64795 14.8005 9.64795 14.3536V9.95801L14.5703 15.2947H14.8244V9.64763C14.8244 9.64763 14.8244 9.17705 15.295 9.17705V8.70646H13.8832V9.17705C13.8832 9.17705 14.3539 9.17705 14.3539 9.64763V12.6739L10.7444 8.70646Z" fill="white"/>
<path fill-rule="evenodd" clip-rule="evenodd" d="M17.6569 6.34314C16.1566 4.84286 14.1218 4 12 4C9.87827 4 7.84343 4.84286 6.34314 6.34314C4.84286 7.84343 4 9.87828 4 12C4 14.1218 4.84286 16.1566 6.34314 17.6568C7.84343 19.1571 9.87827 20 12 20C14.1218 20 16.1566 19.1571 17.6569 17.6568C19.1571 16.1566 20 14.1218 20 12C20 9.87828 19.1571 7.84343 17.6569 6.34314ZM14.3418 6.34918C13.5994 6.04134 12.8037 5.88273 11.9999 5.88242C10.3768 5.88179 8.81993 6.52598 7.67178 7.67326C6.52361 8.82054 5.87822 10.3769 5.8776 12C5.87698 13.6231 6.52116 15.1801 7.66844 16.3282C8.81572 17.4764 10.3722 18.1218 11.9953 18.1225C12.799 18.1227 13.5948 17.9646 14.3374 17.6574C15.0801 17.3502 15.7549 16.8997 16.3234 16.3316C16.8919 15.7635 17.343 15.089 17.6509 14.3466C17.9586 13.6042 18.1173 12.8085 18.1176 12.0047C18.1179 11.2011 17.9599 10.4052 17.6526 9.66258C17.3454 8.91994 16.8949 8.2451 16.3267 7.67659C15.7587 7.10809 15.0842 6.65702 14.3418 6.34918Z" fill="white"/>
</g>
<defs>
<clipPath id="clip0_328_39418">
<rect width="24" height="24" fill="white"/>
</clipPath>
</defs>
</svg>
