<svg width="24" height="24" viewBox="0 0 24 24" fill="none" xmlns="http://www.w3.org/2000/svg">
<g clip-path="url(#clip0_328_39473)">
<path d="M24 0H0V24H24V0Z" fill="#2A1F63"/>
<path fill-rule="evenodd" clip-rule="evenodd" d="M20 12C20 14.1218 19.1571 16.1566 17.6568 17.6568C16.1566 19.1571 14.1218 20 12 20C9.87828 20 7.84343 19.1571 6.34314 17.6568C4.84286 16.1566 4 14.1218 4 12C4 9.87828 4.84286 7.84343 6.34314 6.34314C7.84343 4.84286 9.87828 4 12 4C14.1218 4 16.1566 4.84286 17.6568 6.34314C19.1571 7.84343 20 9.87828 20 12ZM19.0588 12C19.0588 13.8721 18.315 15.6676 16.9914 16.9914C15.6676 18.315 13.8721 19.0588 12 19.0588C10.1279 19.0588 8.33243 18.315 7.00865 16.9914C5.68486 15.6676 4.94118 13.8721 4.94118 12C4.94118 10.1279 5.68486 8.33243 7.00865 7.00865C8.33243 5.68486 10.1279 4.94118 12 4.94118C13.8721 4.94118 15.6676 5.68486 16.9914 7.00865C18.315 8.33243 19.0588 10.1279 19.0588 12Z" fill="white"/>
<path d="M15.7642 13.7605C15.7642 14.3442 15.2136 14.8241 14.5878 14.8241C13.9619 14.8241 13.4113 14.3442 13.4113 13.7605V10.1182C13.4113 9.41235 13.0019 8.70646 12.056 8.70646H11.9431C10.9972 8.70646 10.5879 9.41235 10.5879 10.1182V13.7605C10.5879 14.3442 10.0372 14.8241 9.41134 14.8241C8.78546 14.8241 8.23486 14.3442 8.23486 13.7605V9.64764C8.23486 7.76999 9.92903 6.35352 11.9243 6.35352H12.0372C14.0137 6.35352 15.7642 7.7794 15.7642 9.64764V13.7605Z" fill="white"/>
<path d="M9.41134 8.70646C9.72336 8.70646 10.0226 8.58252 10.2432 8.36189C10.4639 8.14125 10.5879 7.84201 10.5879 7.52999C10.5879 7.21797 10.4639 6.91873 10.2432 6.6981C10.0226 6.47747 9.72336 6.35352 9.41134 6.35352C9.09932 6.35352 8.80007 6.47747 8.57944 6.6981C8.35882 6.91873 8.23486 7.21797 8.23486 7.52999C8.23486 7.84201 8.35882 8.14125 8.57944 8.36189C8.80007 8.58252 9.09932 8.70646 9.41134 8.70646Z" fill="white"/>
<path d="M8.23486 15.7637H15.7642V16.7049H8.23486V15.7637Z" fill="white"/>
</g>
<defs>
<clipPath id="clip0_328_39473">
<rect width="24" height="24" fill="white"/>
</clipPath>
</defs>
</svg>
