<svg width="24" height="24" viewBox="0 0 24 24" fill="none" xmlns="http://www.w3.org/2000/svg">
<g clip-path="url(#clip0_328_29868)">
<path d="M24 0H0V24H24V0Z" fill="white"/>
<path fill-rule="evenodd" clip-rule="evenodd" d="M14.3487 8.2099L14.8587 9.30489L14.3988 9.68985C14.1187 9.97481 14.3387 9.90483 14.0987 10.1349L13.5387 10.0649C13.3587 9.69988 13.7187 9.85983 13.1887 9.71492C12.3987 9.68985 11.9487 9.36489 11.1987 9.59989C11.0187 9.65989 10.5687 9.90483 10.4388 9.94995C10.0687 10.0649 10.0287 9.91485 9.65876 9.9648L9.48877 10.4898C9.70881 10.3198 9.66879 10.3599 9.80875 10.1748L10.2188 10.2847L10.2087 10.3698H10.6887C11.0288 10.5299 10.6087 10.7199 11.4636 10.1699C12.1387 10.4998 13.6537 10.095 13.6988 11.2599C14.0788 12.6849 14.1388 10.8748 14.1087 12.2098C14.6987 13.3347 14.7586 11.2499 14.1087 12.7448C14.2287 12.7448 14.6187 12.7648 14.7286 12.7249C15.2687 12.5247 14.9986 12.2598 15.4087 12.2499C15.3687 11.7498 16.4887 10.9147 16.4386 10.2847C16.4386 10.1549 16.1587 8.7499 15.9987 8.2949C15.1086 8.14489 15.9186 8.2099 15.2287 8.0099C14.7586 7.8799 14.7387 7.81989 14.2687 7.89989C14.3487 8.09989 14.2986 8.01991 14.3487 8.2099Z" fill="#722D14"/>
<path d="M14.7095 17.4644L13.4593 17.1896L13.2194 17.0795L13.0694 17.0195C13.2493 16.5495 13.5094 16.8546 13.5094 16.2796L12.8194 16.2195C12.6795 16.8345 12.7594 16.7045 13.0095 17.0896C12.8694 17.0395 12.8394 17.0295 12.6894 16.9645L12.3995 16.7846C12.6594 16.6746 12.4493 16.9145 12.6294 16.5495C12.7694 16.2596 12.7194 16.1745 12.7194 16.1345C12.0195 15.8646 12.0094 16.2995 12.2094 16.8145C11.8194 16.9645 11.4994 16.8245 11.1894 16.8045C11.3395 16.3695 11.3593 16.4696 11.2495 16.0245C10.6195 16.2095 10.7794 16.4095 10.9695 16.8845H10.6594C10.6294 17.1095 10.5095 17.0045 10.7195 17.2094C11.5594 17.1295 11.9893 16.9596 12.8293 17.2094L13.6194 17.4345C13.9893 17.7444 13.5994 18.0395 13.4694 18.1845L13.2493 18.5845C13.8494 18.7395 14.3694 19.0844 14.5994 19.7095L14.7394 19.8295L15.1094 19.8395L14.9394 20.3244C14.4695 20.6995 14.2094 20.5794 13.9095 20.7245C13.6595 20.8544 13.8594 20.7194 13.6794 20.9045C14.0794 20.9045 14.4894 20.9744 14.8693 20.8145C14.9894 20.7645 15.4893 20.4394 15.5993 20.3345C16.3194 19.6344 15.5594 19.4445 15.6394 18.4845C15.7295 17.3844 15.8694 16.4696 16.6194 16.0045C16.8893 15.8346 17.1144 15.6996 17.1044 15.3796C16.7194 15.2046 16.9593 15.2244 16.6194 15.3895C16.4093 15.4995 16.4894 15.5795 16.2494 15.6395C16.2794 15.0745 16.5294 14.3346 16.3293 13.9796C15.8294 13.9695 15.9194 14.0796 15.8694 14.5395C15.6993 15.9045 15.6095 15.4595 15.5894 17.2795C15.2694 17.4294 14.8994 17.8794 14.7095 17.4644Z" fill="#B99548"/>
<path d="M10.9188 3.95039C10.2786 3.57538 9.42874 4.05538 8.58876 4.08537C8.34876 4.53537 8.38876 4.39538 8.08877 4.65037C7.91877 4.80037 7.77876 5.11536 7.62876 4.95036L7.48877 4.90536C7.54877 5.27537 7.61877 5.51036 7.63877 5.95535C8.09877 5.80537 7.78877 5.95535 8.12876 5.69036C8.92876 5.05537 9.64875 4.85036 10.5688 5.27537L11.0288 5.43036L11.0988 5.46036C10.9887 5.60037 10.9288 5.69036 10.8187 5.86535C11.1587 6.09535 11.2187 6.00536 10.9787 6.46535C11.0886 6.60534 11.0288 6.39036 11.0487 6.65535C11.0587 6.84535 11.0487 6.65535 11.0288 6.85534C11.0086 7.06034 10.9887 7.02035 11.0086 7.32034L11.2088 6.76535C11.3287 6.46035 11.3188 6.63535 11.3987 6.32036L11.5588 5.49037C11.9088 5.59036 12.2887 5.28537 12.5487 5.81536C13.3088 5.76536 13.1887 5.38036 13.3987 5.69036C13.9087 5.51036 15.3087 5.39036 15.5387 4.89536C14.1188 3.67038 13.7487 4.05538 12.4287 3.84037L11.9886 3.80039C11.7488 3.61538 11.9088 3.48539 11.4287 3.68038C11.0886 3.83038 11.1988 3.86039 10.9188 3.95039Z" fill="#8F332C"/>
<path d="M10.9092 20.8492C10.9092 20.5192 10.8593 20.5593 10.6793 20.2992C10.4992 20.0342 10.4893 20.2492 10.5793 19.8692C8.89926 19.5892 9.13927 18.2942 10.5093 18.5842L10.6692 18.4643C11.1093 18.2492 11.2893 18.2843 11.3793 17.7142C11.1492 17.5941 9.58925 17.5842 9.68923 17.3992L8.60927 17.8142C8.23926 17.3492 7.90927 16.0242 7.79928 15.3143C7.67927 14.5793 7.75927 14.6192 7.41927 14.4243L7.38928 14.8093C6.96928 14.9193 7.34928 14.6592 7.00928 15.0343C7.81928 15.3992 7.91927 18.2292 7.68927 19.2343C7.20928 21.3091 10.7392 20.8042 10.9092 20.8442V20.8492Z" fill="#573928"/>
<path d="M15.9888 8.32551C15.8188 8.6355 16.2088 8.67551 15.7787 8.57552L15.9888 9.81051L15.8288 9.91547C15.8188 9.92549 15.7889 9.94551 15.7889 9.95552L15.7189 10.0354L15.6889 10.0754L15.5389 10.2454L15.4788 10.2855L15.2488 10.4204C15.2088 9.6205 15.3188 10.0455 15.0088 9.99557L15.0188 10.5805C15.1689 12.2504 15.2988 12.3804 15.3988 12.2706C15.4988 12.1605 15.5688 11.8055 16.3888 12.0405L17.1838 12.1905C17.7538 12.2305 17.2639 12.2305 17.3437 12.1804L17.0939 10.6005C17.1337 10.5805 17.1639 10.5404 17.1738 10.5604L17.6538 10.3705C17.5738 9.99557 17.4538 10.0255 17.4638 9.72044C17.7138 9.67052 17.5038 9.77046 17.5938 9.5505C17.1838 9.18551 17.5338 9.36551 17.2938 8.71052L16.7088 8.31551L16.4788 8.73051V8.78051C16.4788 8.7705 16.4788 8.8105 16.4887 8.82051C16.4887 8.32551 16.4989 8.34551 15.9888 8.32551ZM7.63891 7.70053C7.62892 8.04051 7.41892 8.02051 7.20892 8.25051C6.71892 8.10051 6.83894 8.08052 6.19894 7.95052L6.36893 8.30552C6.43893 8.5455 6.35893 9.53051 6.10895 9.4905C6.04894 9.74051 6.04894 9.8005 5.91895 9.99557C6.56894 10.9355 6.21894 11.2604 6.23893 11.6555C6.37892 11.7855 7.54893 11.8756 7.81891 11.8756C7.96891 10.9155 8.07893 11.2254 8.73891 10.5755C8.72891 8.27551 8.83891 8.75051 8.29892 7.82553C8.7989 7.84052 8.35892 7.85052 8.5389 7.74553L8.23891 7.66553C7.84892 7.84052 8.14892 7.80552 7.63891 7.70552V7.70053Z" fill="#271914"/>
<path d="M9.71836 7.48354C10.0084 7.73353 9.92839 7.46353 9.97845 7.73353C9.62841 7.77353 9.1584 8.78352 8.78841 9.12351C8.92841 8.79852 9.00841 8.86852 8.50841 8.53352C7.98841 9.03352 8.15841 8.95851 8.23841 9.30352C8.09842 9.41351 8.15841 9.36352 8.04842 9.24351C8.05841 9.27352 8.10841 9.42351 8.10841 9.4435L8.11841 9.50851C8.20842 10.1535 7.95842 9.42351 8.17842 9.88852C8.49841 10.5785 8.32841 9.41351 8.59841 10.2885L8.34843 10.5384C8.27842 10.6185 7.34842 11.0636 7.23843 11.3984C7.18843 11.5585 7.21842 11.5734 7.18843 11.7534C6.91843 11.7534 6.74844 11.7634 6.60844 11.6335C6.35843 11.9835 6.31845 11.9985 6.33844 12.4234C6.48844 12.4036 7.08844 12.1385 7.28843 12.0585L7.50843 11.9735C7.84841 12.1885 8.26842 12.5435 8.50841 12.6835C8.6084 12.5234 8.99841 11.6335 9.2084 11.2835C9.42839 10.9135 9.4084 11.1035 9.4384 10.6486C8.59841 10.7635 9.13841 10.0334 9.2184 9.90348L9.3784 9.66853C9.74834 9.19351 9.25841 9.26351 9.90836 8.98852C9.4984 8.82852 9.89835 8.21852 10.3084 7.24854C10.0384 7.50353 9.99837 7.48354 9.88834 7.46353C9.86843 7.46353 9.81836 7.50353 9.80846 7.47354C9.79845 7.44353 9.74834 7.47354 9.71836 7.48354Z" fill="#573928"/>
<path d="M11.4085 17.6141L10.5186 18.5941L10.8786 19.294C10.7186 19.609 10.6986 19.4839 10.5786 19.8789C10.4885 20.264 10.4985 20.0341 10.6786 20.3141C10.8485 20.5689 10.9086 20.539 10.9086 20.854L11.2086 20.8239C11.5685 20.479 11.4686 20.4891 11.4686 20.184C11.5086 19.5841 11.6086 20.144 11.7585 19.434L11.9086 19.6841C12.0786 19.964 12.1486 19.984 12.1386 20.244C12.2885 20.3041 13.1185 20.369 13.2386 20.369C13.6186 20.379 13.5886 20.489 13.9886 20.439C14.4986 20.379 14.6285 20.2041 14.7385 19.839L14.5986 19.7191C14.5986 19.729 13.7186 19.609 13.3386 19.244L13.2485 18.5941L13.4685 18.194C12.8985 17.959 13.5685 18.059 12.2287 18.334C12.7786 17.1691 11.9487 17.349 11.4085 17.6141Z" fill="#786757"/>
<path d="M9.68921 17.409C9.48924 17.7841 9.56923 17.524 9.21924 17.824C9.23923 17.824 9.9992 17.484 10.5392 17.979C10.5093 17.724 10.4093 17.729 10.5993 17.704C10.5993 17.704 10.5993 17.724 10.7192 17.7941C10.7892 17.8341 10.8892 17.879 10.9792 17.9191L11.2692 18.059C11.5492 17.999 11.4392 18.179 11.5092 17.899L11.6292 17.9691C11.9892 17.9391 11.4492 17.9291 11.9493 17.814C11.8792 18.434 12.0091 17.804 12.0591 18.139C12.0792 18.274 12.0591 18.314 12.0492 18.339C12.0492 18.344 11.9191 18.5389 11.8992 18.6041C13.2392 18.3241 12.8892 17.959 13.4692 18.204C13.6092 18.059 13.9891 17.764 13.6191 17.454L12.7741 17.1089C9.61423 16.694 11.5842 17.014 9.68921 17.409Z" fill="#372718"/>
<path d="M13.1789 7.53456C13.349 7.93455 13.399 7.77454 13.339 8.32454C12.4691 8.63453 12.6189 8.64954 12.1091 8.14954C11.999 8.44454 12.0989 8.24955 11.939 8.41453C11.5991 8.77954 11.0691 8.82954 10.809 8.57454C10.6091 8.25455 10.799 7.92454 10.879 7.63455L10.4391 7.59455C10.239 8.31454 10.179 8.35455 10.019 8.96953C10.6589 8.94954 10.469 8.77954 10.7289 8.94953C11.309 9.32452 12.219 9.67958 13.019 9.26454C13.389 8.96454 13.659 8.94953 14.109 8.82954C14.219 8.35455 13.929 7.95954 13.749 7.54456L13.7191 7.37954C13.0891 7.39455 13.519 7.23955 13.1789 7.53456Z" fill="#AE2917"/>
<path d="M10.3088 7.24872C10.0089 7.94871 9.64888 8.23371 9.38889 8.83871L9.90888 8.9887C9.2589 9.2637 9.74884 9.18869 9.37888 9.66871L9.2189 9.90371C9.13889 10.0437 8.58891 10.7638 9.43889 10.6487L9.4889 10.4886L9.65889 9.96367C10.0388 9.92374 10.0789 10.0637 10.439 9.94365C10.5689 9.90371 11.0189 9.65871 11.1989 9.5987C11.949 9.3637 12.3988 9.67874 13.1888 9.71865L12.7889 9.53869L13.0088 9.2637C12.679 9.4337 11.0989 9.19369 10.7189 8.9487C10.4588 8.77871 10.6489 8.9487 10.0089 8.9687C10.2189 8.17872 10.339 8.64371 10.5588 8.42372C10.2788 8.31371 10.1388 8.62371 10.4289 7.59372L10.8688 7.64371L10.9989 7.29372C10.969 6.99873 10.9889 7.04373 11.0189 6.83373C11.0389 6.64373 11.0488 6.82374 11.0389 6.63374C11.0189 6.36874 11.0788 6.59373 10.969 6.44873L10.5988 7.24872H10.3088Z" fill="#EB8E73"/>
<path d="M11.4085 6.29938C12.6284 6.28937 12.3884 6.56438 13.1784 7.53436C13.5185 7.24936 13.0986 7.39437 13.7084 7.37936C13.6185 6.56438 12.8984 6.66437 13.8485 6.07938C14.9484 5.40939 14.4686 6.02938 15.4984 6.21937L15.1185 5.74437C14.8084 5.4194 14.3685 5.34438 13.9285 5.44938C13.6485 5.51937 13.5486 5.68938 13.6585 5.81438L13.4185 5.66439C13.3086 4.84939 13.4785 5.50938 12.6985 5.55938C12.6486 5.44938 12.6184 5.05939 12.6085 5.0244C12.4686 5.0244 12.2185 5.03439 11.9985 5.01439C11.5186 4.9544 11.8184 4.99438 11.5485 4.87939C11.2184 5.24439 11.5285 4.90439 11.3584 5.31939L11.4085 6.29938Z" fill="#370B07"/>
<path d="M6.33841 12.4258C6.31841 11.991 6.3584 11.9859 6.60841 11.6359C6.64839 11.3008 6.72839 11.2109 6.60841 10.9158L6.29841 10.416L6.17841 10.236C6.08841 10.1058 6.07841 10.1158 6.0084 9.9959C6.13841 9.79588 6.1484 9.84088 6.20841 9.5959C6.4684 9.6309 6.29841 9.63089 6.6384 9.72084C6.60841 9.43589 6.47841 8.88089 6.5584 8.6609L6.7784 8.4259L6.3684 8.31592C6.3684 8.9909 6.25841 8.9109 5.96841 9.3059C5.49842 9.94584 5.23842 11.6458 5.8884 12.2209C6.0184 12.3108 6.1684 12.4709 6.33841 12.4258Z" fill="#B99548"/>
<path d="M12.1286 20.2348L11.4686 20.1649L11.0986 20.3698C11.2686 20.4697 11.2286 20.5498 11.2187 20.8049C11.3586 20.9647 10.8787 20.9248 11.6086 20.9049C12.0686 20.8948 11.7286 20.7298 12.2386 20.9248C12.6787 21.0948 12.7387 20.9248 13.6686 20.9148C13.8587 20.7298 13.6486 20.8648 13.8986 20.7398C14.1986 20.5798 14.4586 20.7097 14.9286 20.3347L15.0987 19.8499L14.7286 19.8398C14.6186 20.2048 14.4687 20.1248 13.9486 20.1848C13.5386 20.2348 13.6086 20.2248 13.2287 20.2149C13.1086 20.2149 12.2786 20.3048 12.1286 20.2348Z" fill="#463619"/>
<path d="M13.4189 5.65864L13.6589 5.80865C13.5489 5.67864 13.6489 5.50864 13.9289 5.43863C14.1359 5.37854 14.3554 5.37463 14.5645 5.42736C14.7736 5.48008 14.9649 5.58752 15.1188 5.73865L15.4988 6.20863C15.9187 6.23863 15.8588 6.22864 16.1588 6.35862C16.3888 6.45864 16.4188 6.46863 16.5738 6.77363C16.8338 6.58363 16.6388 6.82363 16.7237 6.43864C16.6171 5.93969 16.415 5.46603 16.1288 5.04364C15.9689 4.79366 15.9788 4.81864 15.7288 4.74365L15.5189 4.80864C15.3389 5.19364 15.1489 4.98364 14.959 4.98364C14.7889 4.98364 14.6288 4.99364 14.4488 5.00365C13.6688 5.05365 13.9089 4.83866 13.8188 4.84865C13.699 5.34864 14.0588 5.42864 13.4189 5.65864Z" fill="#90150D"/>
<path d="M17.3483 12.1799C18.1133 12.535 18.5634 11.9249 18.4934 11.08C18.4633 10.7099 17.9534 9.955 17.8534 9.85994C17.6633 9.67001 17.7734 9.68994 17.4833 9.71993C17.4734 10.025 17.5933 9.98504 17.6734 10.37L17.1934 10.5599C17.1834 10.54 17.1533 10.5799 17.1133 10.6L17.3534 12.1799H17.3483Z" fill="#C79949"/>
<path d="M10.6195 3.19C10.3694 3.96999 10.7596 3.48999 10.8895 4.00999C11.1594 3.92 11.0894 3.81999 11.4195 3.68C11.8994 3.475 11.7395 3.615 11.9794 3.8L12.4294 3.83999C12.9394 3.93001 13.5694 4.21499 13.8294 4.075C13.9594 4.00999 13.7995 3.675 13.8694 3.465C13.6394 3.36501 13.6894 3.36501 13.4794 3.295C13.3594 3.255 13.0793 3.195 13.0793 3.195C12.7494 3.09001 13.0294 3.08001 12.4493 3.02L10.9094 3C10.4494 3.09001 10.6994 2.91 10.6195 3.19Z" fill="#B0B0AB"/>
<path d="M13.009 9.25487L12.7891 9.52988L13.189 9.7099C13.719 9.84989 13.369 9.68984 13.539 10.0599L14.0989 10.1248C14.3291 9.89984 14.119 9.97487 14.3991 9.67992L14.859 9.29488L14.349 8.19489C14.159 7.96989 14.0989 7.6849 13.7389 7.5249C13.9189 7.93989 14.209 8.33489 14.0989 8.80989C13.639 8.94987 13.379 8.95989 13.009 9.25487Z" fill="#F1CE90"/>
<path d="M10.4791 19.8892C10.2491 19.8591 9.8492 19.8892 9.6391 19.8292L9.13911 19.5791C8.64911 19.3291 9.2991 19.8892 8.9691 19.4792L9.6291 18.7592C10.0191 18.5842 9.93908 18.5942 9.90916 18.3592L10.2191 18.3442C9.9491 17.6842 9.3791 18.2192 9.13911 18.3041C8.9991 18.3542 8.21913 18.4042 8.45911 19.1642C8.58912 19.589 8.92911 19.9141 9.33911 20.0541C9.97913 20.2741 10.359 20.3041 10.4791 19.8892Z" fill="#B78837"/>
<path d="M7.41894 14.4348C7.75894 14.6397 7.57894 14.6098 7.69893 15.3397C7.81893 16.0546 8.23893 17.3596 8.60892 17.8246L9.68889 17.4096L10.549 17.2296C10.4689 17.1496 10.509 17.1697 10.3789 17.0597C10.3265 17.0235 10.2692 16.9949 10.2089 16.9747L9.86895 17.1746C9.56891 17.0496 8.84892 17.4447 8.60892 17.6346C8.52893 17.1846 8.35892 17.2347 8.24893 16.7946C8.17893 16.4947 8.16893 16.0447 8.14893 15.7297C8.11893 15.3246 8.00894 14.9947 7.99893 14.6397C7.98893 14.1646 8.10893 14.0197 7.80893 13.6348C7.10895 13.7197 7.45894 13.9996 7.41894 14.4348Z" fill="#D8C688"/>
<path d="M10.4792 19.8905L10.5792 19.8704C10.6992 19.4705 10.7192 19.6004 10.8792 19.2854L10.519 18.5855L10.2192 18.3354L9.90918 18.3455C9.93922 18.5855 10.0192 18.5754 9.62918 18.7503L8.96918 19.4854C9.29917 19.9004 8.64919 19.3355 9.13919 19.5854L9.63917 19.8305C9.85912 19.9004 10.2492 19.8605 10.4792 19.8905Z" fill="#E6C779"/>
<path d="M14.589 19.7202C14.359 19.1001 13.8489 18.7501 13.2391 18.5952L12.749 19.1852L12.929 19.5701C13.1789 20.0451 13.209 20.1352 13.999 20.0052C14.5189 19.9301 14.529 19.8901 14.589 19.7202Z" fill="#E8D898"/>
<path d="M10.1089 3.54627C9.8588 3.78127 9.81886 3.92127 9.4589 3.94626L8.9889 4.02127C8.76891 4.05125 8.83892 4.02127 8.5889 4.08625C8.80891 4.27625 8.8589 3.79126 8.72891 4.44626C8.69891 4.46626 8.56892 4.51126 8.55892 4.53124C8.31891 4.74125 8.51891 4.41626 8.37891 4.77126L10.0089 4.73126L9.94891 4.42626C9.89885 3.97627 9.83889 4.34626 10.0089 4.04125L10.2889 4.19126L10.2989 4.14626C10.9089 3.66127 10.5088 3.85127 10.6988 4.44626C10.6988 4.32626 10.6389 4.32626 10.8889 4.38625L10.9189 3.97126C10.7388 3.29626 10.5988 3.83126 10.619 3.21127C10.7489 2.98127 10.719 3.18127 10.5088 3.05127C10.2789 3.21128 10.4589 3.01128 10.2488 3.27627C10.1489 3.38626 10.159 3.39627 10.1089 3.54627Z" fill="#D0534A"/>
<path d="M6.60842 6.66419C6.36842 6.82419 6.52841 6.68419 6.35842 6.9042C6.34843 6.91419 6.18843 7.23918 6.17843 7.23918C6.04843 7.61419 6.07843 7.63918 6.19843 7.94917C6.83841 8.08917 6.70841 8.27417 7.19841 8.42417L7.44842 8.16916L7.57841 7.97918C7.5884 7.94917 7.6384 7.86918 7.6384 7.70417C7.45841 7.55418 7.25842 7.48418 7.11841 7.41418C7.23841 6.97418 7.46841 7.04918 7.39841 6.65419C7.3384 6.35919 7.4284 6.60419 7.26842 6.4292C7.14841 6.60419 7.20841 6.58419 7.10841 6.73419C6.98842 6.9042 7.0684 6.80418 6.91842 6.93419L6.50842 7.29919C6.77841 6.91419 6.66841 7.07919 6.60842 6.66419Z" fill="#CAA659"/>
<path d="M8.54843 7.74905C8.36843 7.86904 8.80843 7.84905 8.30844 7.82903C8.34844 8.10903 8.42844 8.11904 8.39843 8.38403C8.39843 8.40403 8.34845 8.47403 8.32843 8.50405C8.42844 7.96904 8.39843 8.08903 7.89844 8.18905C8.01844 8.53902 7.94844 8.29404 8.07845 8.43404L8.25844 8.62403C8.19843 8.98903 8.17844 8.88903 8.04845 9.25403C8.15844 9.37402 8.09844 9.42403 8.23844 9.31402C8.15844 8.96402 7.98844 9.04903 8.50844 8.54403C9.00843 8.86903 8.92843 8.80902 8.78844 9.13402C9.15843 8.78404 9.62842 7.77403 9.97845 7.73405C9.98847 7.30905 9.91849 7.53405 9.71839 7.48405C8.84843 7.95904 9.11843 7.57404 8.54843 7.75405V7.74905Z" fill="#90746C"/>
<path d="M16.7333 8.31619L17.3133 8.71619C17.5433 9.36617 17.2033 9.18616 17.6133 9.55117C17.6834 9.32617 17.6434 8.43619 17.6033 8.12119C17.5333 7.65618 17.1433 7.34119 17.1133 6.97119C16.7734 7.1512 17.0333 6.86621 16.9733 7.1612C16.8633 7.65618 17.2033 7.62619 16.6782 8.02119L16.7284 8.32118L16.7333 8.31619Z" fill="#D8B976"/>
<path d="M13.7388 3.75058L13.8389 4.13557C14.2688 4.48556 15.0588 4.41556 15.1589 4.82055H15.5088L15.7188 4.76057L15.6888 4.49058C15.3581 4.39286 15.0604 4.20604 14.8288 3.95058C14.5088 3.64058 15.1387 3.86058 14.2288 3.58557L14.0489 3.52557L13.8289 3.45557L13.7388 3.75557V3.75058Z" fill="#B5AC93"/>
<path d="M14.709 17.4652C14.709 17.2652 14.779 17.1802 14.809 16.8252C14.359 16.7952 14.5589 16.9553 14.409 16.5252C13.949 16.6753 14.249 16.4253 13.9889 16.7653L13.499 16.2803C13.499 16.8553 13.2391 16.5503 13.0591 17.0202L13.209 17.0803L13.449 17.1903L14.709 17.4652Z" fill="#494329"/>
<path d="M7.62891 4.94964C7.7789 5.11464 7.9189 4.79964 8.08891 4.64965C8.3789 4.39465 8.34891 4.53964 8.5889 4.08464C8.8389 4.00965 8.77889 4.04965 8.9889 4.01965L9.45888 3.94966C9.80887 3.90965 9.84892 3.77966 10.1089 3.54467C10.2789 3.31466 10.1889 3.51465 10.2489 3.15967C9.56888 3.34466 9.70893 3.32467 9.46889 3.85966C9.44888 3.68966 9.49888 3.60966 9.55889 3.43465C9.15027 3.53922 8.76778 3.7274 8.43558 3.9873C8.10339 4.2472 7.82871 4.57319 7.62891 4.94464V4.94964Z" fill="#ECEEE8"/>
<path d="M11.2287 10.9992L11.7988 11.0242C11.8388 10.5492 11.8088 10.2642 11.4588 10.0942C10.9288 10.4442 11.0087 10.5193 10.9487 10.7942C10.9788 10.8142 11.0087 10.8142 11.0188 10.8642C11.0188 10.8543 11.2287 11.0043 11.2287 11.0043V10.9992ZM10.3738 16.2792L9.80381 16.2591C9.76376 16.7342 9.79379 17.0191 10.1438 17.1892C10.6787 16.8391 10.5937 16.7641 10.6587 16.4891C10.6288 16.4693 10.5987 16.4693 10.5887 16.4192C10.5887 16.4292 10.3738 16.2792 10.3738 16.2792ZM9.40882 16.6891L8.83882 16.6691C8.79882 17.1442 8.82881 17.4291 9.1788 17.5941C9.70884 17.249 9.62881 17.1691 9.68878 16.8941C9.65879 16.8742 9.62881 16.8742 9.61881 16.8241C9.61881 16.8341 9.40882 16.6891 9.40882 16.6891ZM12.6838 16.0492L12.1138 16.0341C12.0737 16.5091 12.1038 16.7941 12.4537 16.9641C12.9837 16.6142 12.9037 16.5391 12.9638 16.2641C12.9337 16.2391 12.9037 16.2391 12.8938 16.1893C12.8938 16.1992 12.6838 16.054 12.6838 16.054V16.0492ZM14.5288 16.6392L13.9587 16.619C13.9187 17.0942 13.9488 17.384 14.2987 17.5492C14.8287 17.2041 14.7489 17.1241 14.8087 16.8492C14.7788 16.8292 14.7489 16.8292 14.7387 16.7792C14.7387 16.7891 14.5288 16.6392 14.5288 16.6392Z" fill="#E6C779"/>
<path d="M10.6095 10.9501C10.7695 10.7202 10.8096 10.5951 10.6895 10.3052H10.2095L10.1694 10.9702L10.6095 10.9501ZM14.0496 11.3C14.2094 11.0751 14.2495 10.9501 14.1294 10.6601H13.6495L13.6095 11.3251L14.0496 11.3051V11.3ZM14.6594 12.1851C14.8195 11.9601 14.8595 11.83 14.7394 11.5452H14.2595L14.2196 12.2051L14.6594 12.1851Z" fill="#E8D589"/>
<path d="M11.3187 16.7255L11.8987 16.6056C11.9286 16.0455 11.8786 16.1156 11.3086 16.0356L11.3187 16.7255Z" fill="#8F332C"/>
<path d="M11.4692 20.1752L12.1292 20.2451C12.1392 19.9851 12.0692 19.9651 11.8992 19.6802L11.7493 19.4302C11.5993 20.1351 11.4992 19.5601 11.4692 20.1752Z" fill="#ECEEE8"/>
<path d="M12.2792 10.0562C12.0892 10.3061 12.0991 10.361 12.0493 10.776L12.5892 10.7261C12.6492 10.3311 12.6892 10.0662 12.2792 10.0562ZM9.42921 10.361C9.23921 10.6111 9.24921 10.6711 9.19922 11.086L9.73924 11.036C9.79916 10.636 9.83921 10.371 9.42921 10.361ZM13.074 10.2012C12.8841 10.4511 12.8943 10.506 12.8441 10.9211L13.3842 10.8711C13.4442 10.4761 13.4842 10.2111 13.074 10.2012Z" fill="#D8C688"/>
</g>
<defs>
<clipPath id="clip0_328_29868">
<rect width="24" height="24" fill="white"/>
</clipPath>
</defs>
</svg>
