<svg width="24" height="24" viewBox="0 0 24 24" fill="none" xmlns="http://www.w3.org/2000/svg">
<g clip-path="url(#clip0_328_55313)">
<path d="M24 0H0V24H24V0Z" fill="url(#paint0_linear_328_55313)"/>
<path d="M16 6.01C15.965 9.19995 13.33 10.01 12 9.99993L12.005 13.4349H20V6L16 6.01Z" fill="white"/>
<path d="M16.2599 17.9999H12V13.9999H16V6.00001H16.355C17.3121 5.99729 18.2318 6.37222 18.9142 7.04341C19.5966 7.7146 19.9868 8.62788 20 9.58496V14.2199C19.991 15.2128 19.5954 16.163 18.897 16.8689C18.1986 17.5746 17.2526 17.9804 16.2599 17.9999Z" fill="white"/>
<path d="M8 14H16C12.7599 14 12.005 16.5349 12 17.8999C11.95 14.8299 9.49499 14.03 8.14999 14H8Z" fill="white"/>
<path d="M12.0202 9.81027V10.2603H7.89014V6.03027H8.24013C9.24263 6.03027 10.2041 6.42851 10.913 7.13738C11.6219 7.84626 12.0202 8.80772 12.0202 9.81027Z" fill="white"/>
<path d="M4.09499 17.9999H4V9.59995C4 8.64518 4.37928 7.72953 5.0544 7.0544C5.72953 6.37928 6.64518 6 7.59995 6H7.99995C7.99995 9.09996 10.4249 9.98499 11.6 9.99993H12.3049C12.7862 9.9913 13.2644 10.0786 13.7117 10.2565C14.1589 10.4344 14.5664 10.6994 14.9102 11.0364C15.254 11.3732 15.5275 11.7751 15.7145 12.2186C15.9017 12.6622 15.9986 13.1386 15.9998 13.6199V13.9999H7.99995V14.0099C8.00855 14.5291 7.91405 15.0449 7.72191 15.5273C7.52977 16.0097 7.24382 16.4492 6.88062 16.8203C6.5174 17.1914 6.08418 17.4867 5.60602 17.6892C5.12785 17.8916 4.61426 17.9974 4.09499 17.9999Z" fill="white"/>
</g>
<defs>
<linearGradient id="paint0_linear_328_55313" x1="20" y1="6.62126" x2="12.0088" y2="15.8489" gradientUnits="userSpaceOnUse">
<stop stop-color="#2F1E58"/>
<stop offset="1" stop-color="#4C318D"/>
</linearGradient>
<clipPath id="clip0_328_55313">
<rect width="24" height="24" fill="white"/>
</clipPath>
</defs>
</svg>
