<svg width="24" height="24" viewBox="0 0 24 24" fill="none" xmlns="http://www.w3.org/2000/svg">
<g clip-path="url(#clip0_328_53749)">
<path d="M24 0H0V24H24V0Z" fill="#14CC8F"/>
<path d="M18.7503 6.8904C17.8094 5.92591 16.412 5.41309 14.7042 5.41309C12.6998 5.41309 11.5519 6.63634 11.5284 8.58886V10.2921H12.4694V8.61239C12.4835 7.78433 12.8787 6.82453 13.8431 6.82453H13.862C14.6759 6.83865 15.3064 7.38912 15.2923 8.23599C15.2782 9.1158 14.5583 9.67568 13.6691 9.64745H12.7281L12.7186 10.2921L13.6597 10.3108H13.7067C14.0667 10.3199 14.4235 10.2391 14.7443 10.0756C15.0652 9.91197 15.3402 9.67093 15.5444 9.37423C15.7486 9.07754 15.8755 8.73457 15.9136 8.37643C15.9518 8.01829 15.8999 7.65629 15.7627 7.32325L15.7157 7.21033L15.791 7.29973C16.1024 7.69107 16.2687 8.17818 16.2615 8.67826C16.2426 9.84039 15.3064 10.5885 14.1725 10.5885H8.60665C7.66568 10.5885 6.75765 11.0306 6.07075 11.7035C5.51771 12.2415 5.14652 12.9387 5.00902 13.6979C4.87153 14.457 4.9746 15.2402 5.30386 15.9379L5.27562 15.952C4.82999 15.3268 4.59889 14.5742 4.61694 13.8066C4.63058 12.8656 5.01555 11.9683 5.68796 11.3099C6.36039 10.6516 7.26574 10.2857 8.20674 10.2921H11.0579V9.64745H8.13617C7.06817 9.64745 6.04251 10.1039 5.26621 10.8566C4.47267 11.6293 4.01759 12.685 4.0006 13.7925C3.98178 15.1758 4.40523 16.3989 5.20975 17.227C6.08016 18.1209 7.35516 18.5866 9.00656 18.5866C10.1216 18.5866 10.9686 18.2431 11.5472 17.5611C12.0035 17.0153 12.4552 16.2531 12.4694 15.4156V13.4114H11.5284V15.3921C11.519 15.8438 11.1614 16.286 10.9073 16.6059C10.7839 16.7711 10.6234 16.9049 10.4386 16.9964C10.2539 17.088 10.0502 17.1347 9.84406 17.1329C9.46344 17.151 9.08814 17.0382 8.78073 16.813C8.51726 16.5919 8.39024 16.2579 8.39493 15.8203C8.40905 14.9263 9.1336 14.1171 10.0135 14.1171H11.0579V13.4114H10.004C8.79955 13.4114 7.81153 14.5875 7.79271 15.8108C7.78331 16.1072 7.83976 16.4036 7.94797 16.6766L7.99503 16.7895L7.91974 16.7C7.66471 16.3863 7.50265 16.0075 7.45197 15.6063C7.40127 15.2051 7.46396 14.7978 7.63294 14.4304C7.8019 14.0631 8.0704 13.7505 8.40797 13.5279C8.74556 13.3055 9.13872 13.1819 9.54292 13.1714H15.1041C17.0895 13.1761 18.7268 11.7223 18.7598 9.69921C18.7692 9.13462 18.6515 8.57003 18.4116 8.06191L18.4446 8.0478C18.8892 8.67167 19.1203 9.42258 19.1032 10.1885C19.0971 10.6579 18.9983 11.1214 18.8127 11.5526C18.6269 11.9838 18.3579 12.374 18.0211 12.701C17.3436 13.3596 16.4402 13.4303 15.5087 13.4114H12.7046V14.1171H15.5793C16.6614 14.1171 17.753 13.8913 18.5903 13.1431C19.0155 12.7779 19.3599 12.3284 19.6021 11.823C19.8442 11.3176 19.9787 10.7674 19.9971 10.2073C20.0188 9.59948 19.9198 8.99337 19.7059 8.42403C19.4919 7.8547 19.1671 7.33344 18.7503 6.8904ZM18.1669 9.66627C18.1293 11.3789 16.765 12.4704 15.1088 12.4704H9.53351C8.8372 12.4704 8.16911 12.8986 7.66568 13.3973C7.40672 13.645 7.20004 13.942 7.05782 14.2708C6.9156 14.5997 6.84073 14.9539 6.83764 15.3121C6.83292 15.6979 6.90351 16.0837 7.05876 16.4366L7.11523 16.5683L7.02584 16.4602C6.6683 15.9903 6.48086 15.4131 6.49418 14.8228C6.50026 14.1408 6.77291 13.4883 7.25383 13.0047C7.73476 12.5211 8.3858 12.245 9.06773 12.2351H11.0579V11.5294H9.06302C7.34104 11.5294 5.92019 13.0443 5.89195 14.7993C5.88353 15.274 5.97992 15.7447 6.17424 16.1778L6.24012 16.3331L6.14602 16.2013C5.74327 15.6579 5.53304 14.9957 5.5485 14.3195C5.55716 13.5156 5.88188 12.7476 6.45243 12.1815C7.02298 11.6154 7.79347 11.2966 8.59724 11.2942H14.1631C14.6856 11.3166 15.2024 11.1792 15.6447 10.9C16.0868 10.621 16.4334 10.2135 16.6378 9.73214C16.7847 9.38957 16.8607 9.02087 16.8616 8.64815C16.8624 8.27544 16.7879 7.9064 16.6425 7.5632L16.5861 7.43146L16.6707 7.53967C16.9574 7.90881 17.1388 8.34853 17.1959 8.81233C17.2531 9.27613 17.1839 9.74675 16.9955 10.1744C16.8543 10.4897 16.6661 10.7719 16.4167 11.0071C15.9369 11.4777 15.3017 11.5247 14.6383 11.5294H12.6951L12.6904 12.2351H14.6477C15.4616 12.2351 16.2473 12.0281 16.8448 11.4447C17.1491 11.1519 17.3921 10.8014 17.5593 10.4137C17.7265 10.026 17.8147 9.60865 17.8188 9.18637C17.8271 8.7117 17.7308 8.241 17.5365 7.80785L17.4706 7.65259L17.5694 7.78433C17.969 8.32945 18.1789 8.99051 18.1669 9.66627ZM11.5284 12.2351H12.4694V11.5294H11.5284V12.2351Z" fill="white"/>
</g>
<defs>
<clipPath id="clip0_328_53749">
<rect width="24" height="24" fill="white"/>
</clipPath>
</defs>
</svg>
