<svg width="24" height="24" viewBox="0 0 24 24" fill="none" xmlns="http://www.w3.org/2000/svg">
<g clip-path="url(#clip0_328_39560)">
<path d="M24 0H0V24H24V0Z" fill="black"/>
<path fill-rule="evenodd" clip-rule="evenodd" d="M11.9999 11.9999C11.9999 11.9999 14.8125 7.36554 14.8125 5.81248C14.8125 5.06656 14.5162 4.35119 13.9887 3.82375C13.4614 3.2963 12.7459 3 11.9999 3C11.2541 3 10.5386 3.2963 10.0112 3.82375C9.48377 4.35119 9.18748 5.06656 9.18748 5.81248C9.18748 7.36554 11.9999 11.9999 11.9999 11.9999ZM11.9999 11.9999C11.9999 11.9999 7.36554 14.8125 5.81248 14.8125C5.06656 14.8125 4.35119 14.5162 3.82375 13.9887C3.2963 13.4614 3 12.7459 3 11.9999C3 11.2541 3.2963 10.5386 3.82375 10.0112C4.35119 9.48377 5.06656 9.18748 5.81248 9.18748C7.36554 9.18748 11.9999 11.9999 11.9999 11.9999ZM11.9999 11.9999C11.9999 11.9999 16.6343 9.18748 18.1874 9.18748C18.9334 9.18748 19.6489 9.48377 20.1762 10.0112C20.7037 10.5386 21 11.2541 21 11.9999C21 12.7459 20.7037 13.4614 20.1762 13.9887C19.6489 14.5162 18.9334 14.8125 18.1874 14.8125C16.6343 14.8125 11.9999 11.9999 11.9999 11.9999ZM11.9999 11.9999C11.9999 11.9999 14.8125 16.6343 14.8125 18.1874C14.8125 18.9334 14.5162 19.6489 13.9887 20.1762C13.4614 20.7037 12.7459 21 11.9999 21C11.2541 21 10.5386 20.7037 10.0112 20.1762C9.48377 19.6489 9.18748 18.9334 9.18748 18.1874C9.18748 16.6343 11.9999 11.9999 11.9999 11.9999Z" fill="white"/>
</g>
<defs>
<clipPath id="clip0_328_39560">
<rect width="24" height="24" fill="white"/>
</clipPath>
</defs>
</svg>
