<svg width="24" height="24" viewBox="0 0 24 24" fill="none" xmlns="http://www.w3.org/2000/svg">
<g clip-path="url(#clip0_328_39587)">
<path d="M24 0H0V24H24V0Z" fill="#0DE90B"/>
<path d="M4 19H5.49999V7.37999C5.49999 6.79 6.42998 6.195 7.05998 6.91999L12.5 17.5H10.5L7.74998 12H5.99998L9.49998 19H15.0099L8.52498 6.28999C8.52498 6.28999 7.88498 5.01 6.36499 5.01C4.84499 5.01 4 6.55999 4 7.02499V19ZM20 5H18.4999V16.6351C18.4999 17.22 17.58 17.815 16.95 17.09L11.4999 6.49999H13.4999L16.25 12H18L14.5099 5H8.99998L15.485 17.72C15.485 17.72 16.125 19 17.65 19C19.175 19 20 17.45 20 16.9851V5Z" fill="white"/>
</g>
<defs>
<clipPath id="clip0_328_39587">
<rect width="24" height="24" fill="white"/>
</clipPath>
</defs>
</svg>
