<svg width="24" height="24" viewBox="0 0 24 24" fill="none" xmlns="http://www.w3.org/2000/svg">
<g clip-path="url(#clip0_328_39613)">
<path d="M24 0H0V24H24V0Z" fill="black"/>
<path fill-rule="evenodd" clip-rule="evenodd" d="M12 21C14.387 21 16.6762 20.0517 18.3639 18.3639C20.0517 16.6762 21 14.387 21 12C21 9.61306 20.0517 7.32386 18.3639 5.63603C16.6762 3.94822 14.387 3 12 3C9.61306 3 7.32386 3.94822 5.63603 5.63603C3.94822 7.32386 3 9.61306 3 12C3 14.387 3.94822 16.6762 5.63603 18.3639C7.32386 20.0517 9.61306 21 12 21ZM12 20.64C14.2915 20.64 16.4891 19.7298 18.1094 18.1094C19.7298 16.4891 20.64 14.2915 20.64 12C20.64 9.70856 19.7298 7.51091 18.1094 5.89059C16.4891 4.27028 14.2915 3.35999 12 3.35999C9.70856 3.35999 7.51091 4.27028 5.89059 5.89059C4.27028 7.51091 3.35999 9.70856 3.35999 12C3.35999 14.2915 4.27028 16.4891 5.89059 18.1094C7.51091 19.7298 9.70856 20.64 12 20.64Z" fill="white"/>
<path d="M11.0243 6.40931L11.9507 5.144C11.9826 5.10695 12.009 5.10695 12.0408 5.144L12.9514 6.41459C12.4007 6.38812 12.2579 7.04989 12.782 7.13989C13.2479 7.214 13.7031 7.33048 14.1479 7.49989C14.3703 7.58459 14.6614 7.43107 14.5979 7.15577C14.5556 6.97048 14.423 6.83812 14.2007 6.7693C14.1266 6.74284 14.1266 6.72166 14.2007 6.70048L15.6407 6.34048C15.7043 6.3193 15.7202 6.34048 15.6884 6.39871L14.6667 8.22519C14.6402 8.27283 14.603 8.28343 14.5556 8.27283C12.8719 7.7646 11.1673 7.76989 9.44666 8.28871C9.40432 8.30459 9.36725 8.28871 9.34609 8.24636L8.30842 6.39343C8.27665 6.34048 8.29255 6.32459 8.34549 6.34048L9.67957 6.674C9.81199 6.70577 9.82246 6.75343 9.6955 6.82223C9.46254 6.9493 9.24019 7.11871 9.45196 7.41519C9.49359 7.47102 9.55246 7.51162 9.61941 7.53076C9.68637 7.54988 9.75777 7.54648 9.82246 7.52107C10.2831 7.33048 10.7543 7.20342 11.2361 7.13989C11.7549 7.07107 11.5696 6.36166 11.0243 6.40931ZM8.04902 10.3693L7.94312 10.4222C7.91836 10.4413 7.88927 10.454 7.85842 10.4592C7.79489 10.4592 7.77372 10.4382 7.7896 10.3852C7.93254 9.89807 8.29254 9.47459 8.59431 9.06166C8.6896 8.94518 8.80607 8.85518 8.9649 8.80225C9.74319 8.53225 10.4684 8.36812 11.1514 8.32048C11.1726 8.32048 11.1884 8.34166 11.1779 8.35754C11.093 8.52695 10.9502 8.6487 10.765 8.72812C10.1826 8.95047 9.68488 9.04577 9.4202 9.68104C9.19255 10.2105 9.01783 11.0735 8.45136 11.3329C8.04372 11.5182 7.95372 12.037 7.90078 12.4286C7.89019 12.5345 7.86901 12.5345 7.84784 12.4286C7.75783 12.0581 7.74196 11.6982 7.79489 11.3486C7.83725 11.0205 8.03313 10.7505 8.12313 10.4329C8.14432 10.364 8.12313 10.3428 8.04902 10.3693Z" fill="white"/>
<path d="M12.4078 11.6716C12.4078 11.8992 12.4502 11.9045 12.5401 11.6928C12.5931 11.571 12.6249 11.4493 12.6461 11.3222C12.6461 11.2957 12.6567 11.2692 12.683 11.2534C12.7044 11.2322 12.7361 11.2269 12.7625 11.2216C12.9214 11.2216 13.0802 11.2322 13.2442 11.2587C13.6413 11.3275 13.9854 11.2587 14.2765 11.0469C14.3295 11.0151 14.3295 10.9833 14.2765 10.9463C13.8742 10.6392 13.2707 10.8034 12.7995 10.9039C12.7148 10.9199 12.7044 10.9039 12.7678 10.8457C13.1384 10.5122 13.6149 10.3851 14.1761 10.4592L14.3242 10.4646C14.4248 10.4646 14.4937 10.5069 14.5255 10.5916C14.6367 10.8828 14.7901 11.4545 15.1449 11.5605C15.1767 11.571 15.1872 11.6026 15.1661 11.6239C14.8484 12.0052 14.5837 12.418 14.3931 12.8733C14.3295 13.0215 14.1284 13.0903 13.9696 13.0322L13.1014 12.6828C13.0537 12.6616 13.0272 12.6299 13.0218 12.5928C13.0079 12.5277 12.9798 12.4664 12.9395 12.4133C12.8992 12.3603 12.8478 12.3168 12.789 12.2857C12.7648 12.2704 12.7373 12.2612 12.7087 12.2585C12.6803 12.2557 12.6515 12.2596 12.6249 12.2698C12.6076 12.2753 12.5916 12.2843 12.5781 12.296C12.5643 12.3078 12.5533 12.3224 12.5454 12.3387C12.5138 12.418 12.5454 12.4446 12.6302 12.4286C12.6991 12.4129 12.7625 12.4499 12.8155 12.5398C12.8419 12.5928 12.8367 12.6457 12.7942 12.688C12.7806 12.7017 12.7644 12.7123 12.7467 12.7198L12.159 12.9528C12.0836 12.9846 11.9998 12.9902 11.9207 12.9687C11.684 12.9011 11.4536 12.8126 11.2325 12.704C11.1108 12.6403 11.1318 12.4657 11.2695 12.4392C11.311 12.4282 11.3544 12.4263 11.3967 12.4339C11.4601 12.4446 11.4654 12.3809 11.4601 12.3439C11.4496 12.2963 11.4177 12.2698 11.3702 12.2646C11.1002 12.2223 11.0207 12.4075 10.9626 12.5928C10.9553 12.615 10.9428 12.6353 10.9263 12.6518C10.9099 12.6684 10.8895 12.6808 10.8672 12.688L10.0519 13.0162C9.82953 13.1063 9.67599 13.0533 9.58607 12.8576C9.37429 12.4129 9.13075 12.0052 8.83957 11.6186C8.81311 11.5869 8.8184 11.5657 8.86604 11.5446C9.24723 11.4069 9.34252 10.8669 9.48547 10.5492C9.50134 10.5123 9.53838 10.4857 9.58607 10.4805C10.2054 10.3851 10.6978 10.4646 11.0578 10.7133C11.3065 10.888 11.2801 10.9357 10.9679 10.8615C10.5654 10.7663 10.0678 10.6815 9.70786 10.9357C9.69687 10.9424 9.68773 10.9516 9.68143 10.9627C9.67513 10.9739 9.67192 10.9865 9.67192 10.9992C9.67192 11.012 9.67513 11.0246 9.68143 11.0356C9.68773 11.0469 9.69687 11.0562 9.70786 11.0628C10.0785 11.2905 10.5231 11.338 11.0419 11.211C11.2007 11.1739 11.3065 11.2269 11.3542 11.3699L11.4761 11.8146C11.4918 11.8675 11.5819 11.894 11.5819 11.8251L11.5661 10.6128C11.5661 10.5651 11.5395 10.5333 11.4918 10.5069C10.9407 10.2753 10.3597 10.1219 9.76608 10.0516C9.71306 10.0462 9.70255 10.0198 9.71837 9.97746C9.93022 9.52219 10.2372 9.28396 10.6344 9.25747C11.2061 9.2257 11.4972 8.77572 11.6984 8.35749C11.7195 8.31512 11.7513 8.29924 11.8042 8.29924L12.1642 8.29395C12.1908 8.29395 12.2172 8.29924 12.2384 8.31512C12.2595 8.3257 12.2754 8.34159 12.2914 8.36807C12.4767 8.75983 12.8155 9.25218 13.3554 9.25747C13.7895 9.26277 14.1072 9.65453 14.2818 9.98804C14.3031 10.0198 14.2872 10.041 14.2502 10.041C13.6413 10.1203 13.0537 10.2792 12.4819 10.528C12.4395 10.5439 12.4184 10.5757 12.4131 10.618V11.6716H12.4078Z" fill="white"/>
<path d="M15.8115 10.4014C15.8007 10.4315 15.7964 10.4637 15.7991 10.4958C15.8018 10.5277 15.8115 10.5588 15.8273 10.5867C16.1661 11.169 16.2509 11.7778 16.0656 12.4237C16.0285 12.5508 16.0074 12.5508 15.9968 12.4132C15.9704 12.0954 15.8909 11.8202 15.7692 11.5926C15.6369 11.3385 15.3508 11.3278 15.1551 11.1266C15.0491 11.0261 14.9698 10.9149 14.9115 10.7878C14.7208 10.4014 14.5408 9.99379 14.3662 9.57547C14.2391 9.27902 13.9532 8.86608 13.5933 8.83431C13.4414 8.82349 13.2906 8.79868 13.1432 8.76018C13.0445 8.73458 12.9568 8.67684 12.8945 8.59607L12.7727 8.42666C12.7038 8.34195 12.7304 8.29961 12.8415 8.31019C13.6515 8.38961 14.4297 8.56961 15.1762 8.85548C15.2292 8.87137 15.2662 8.90842 15.2927 8.95079C15.4781 9.25784 15.6844 9.54903 15.9121 9.82425C16.055 9.99908 16.1608 10.2001 16.2298 10.4278C16.2456 10.4862 16.2298 10.5125 16.1661 10.4966C16.0725 10.4754 15.9853 10.4318 15.9121 10.3697C15.875 10.3431 15.8222 10.359 15.8062 10.4014H15.8115Z" fill="white"/>
<path d="M15.5151 14.9858C15.674 15.3564 15.6211 15.727 15.3776 16.087C15.2293 16.2988 15.1763 16.283 15.2293 16.0448C15.3934 15.2982 14.541 14.6682 14.6576 13.8847C14.8002 13.2064 15.1014 12.5715 15.5363 12.0318C15.5681 11.9894 15.5947 11.9894 15.6211 12.0318C15.9386 12.5612 16.034 13.0748 15.9123 13.567C15.7534 14.2288 16.6747 14.3982 15.9653 15.1658C15.9228 15.2082 15.8858 15.2082 15.8487 15.1658L15.6264 14.9064C15.584 14.8641 15.4939 14.9381 15.5151 14.9858ZM8.39988 14.5624C8.35274 14.5732 8.3089 14.5951 8.27204 14.6265C8.23519 14.6579 8.20641 14.6976 8.18812 14.7424C8.15107 14.8218 8.09812 14.827 8.024 14.7635C7.73282 14.52 7.6693 14.1599 7.92871 13.89C8.00283 13.8107 8.06106 13.7311 8.09812 13.6464C8.11633 13.6104 8.12011 13.5687 8.1087 13.5299C8.03505 13.2718 8.02156 13 8.06928 12.7356C8.11701 12.4715 8.22466 12.2215 8.384 12.0053C8.40105 11.9988 8.4199 11.9988 8.43693 12.0053C8.44715 12.0078 8.45636 12.0134 8.46342 12.0211C8.95047 12.6034 9.60691 13.5511 9.25222 14.213C8.98753 14.7053 8.71223 15.0864 8.75459 15.6423C8.75988 15.7217 8.7334 15.727 8.66989 15.6582C8.36812 15.3247 8.2993 14.9701 8.47399 14.6153C8.48988 14.5835 8.44223 14.5518 8.39988 14.5624ZM11.3116 14.07C10.4858 14.3134 9.82928 14.8111 9.93514 15.6953C9.97744 16.0235 10.2211 16.2671 10.3799 16.553C10.4057 16.6023 10.4205 16.6569 10.4233 16.7127C10.426 16.7684 10.4166 16.8241 10.3958 16.8758C10.2793 17.1723 10.1787 17.4741 10.3958 17.7653C10.4276 17.8182 10.417 17.8341 10.3534 17.8182C10.283 17.8035 10.2165 17.7744 10.1581 17.7324C10.0998 17.6906 10.0509 17.6368 10.0146 17.5747C10.0016 17.5535 9.99342 17.5297 9.99072 17.505C9.98802 17.4803 9.99072 17.4553 9.9987 17.4318C10.094 17.13 9.87698 16.9341 9.69165 16.717C9.13046 16.0448 9.3634 14.9911 9.69165 14.2711C9.9087 13.7947 10.4751 13.4771 10.8404 13.0853C10.9357 12.9794 11.1158 13.2124 11.1951 13.2494C11.5128 13.4187 11.7881 13.4982 12.0157 13.493C12.3776 13.4718 12.7229 13.3344 13.0004 13.1011C13.0428 13.0587 13.0851 13.0587 13.1327 13.1011C13.3551 13.2971 13.5988 13.5088 13.8581 13.7205C14.4404 14.197 14.5993 14.9594 14.6416 15.653C14.6786 16.1718 14.4881 16.5476 14.1387 16.9235C13.9799 17.093 13.9427 17.273 14.0116 17.4634C14.0183 17.4786 14.0213 17.4953 14.0204 17.5118C14.0193 17.5283 14.0147 17.5443 14.0064 17.5588C13.9715 17.6211 13.9246 17.6757 13.8681 17.7194C13.8118 17.763 13.7471 17.795 13.6781 17.813C13.6093 17.8341 13.5935 17.813 13.6358 17.76C14.0276 17.22 13.4453 16.7647 13.8847 16.1771C14.3451 15.563 14.1123 14.8058 13.4927 14.4088C13.2494 14.261 12.9854 14.1503 12.7093 14.0807C12.6503 14.0633 12.5872 14.0652 12.5293 14.0858C12.1864 14.208 11.8111 14.2043 11.4704 14.0753C11.4191 14.0571 11.363 14.0571 11.3116 14.0753V14.07Z" fill="white"/>
<path d="M11.9649 14.7431C12.3512 14.7431 12.6636 14.6847 12.6636 14.6054C12.6636 14.5312 12.3459 14.4678 11.9649 14.4678C11.5783 14.4678 11.2607 14.5312 11.2607 14.6054C11.2607 14.6794 11.5783 14.7431 11.9649 14.7431Z" fill="white"/>
<path d="M12.1861 17.1719C12.2071 17.3837 12.1278 17.569 11.9371 17.7438C11.8737 17.8073 11.8737 18.1038 11.7784 18.072C11.3876 17.9429 11.0446 17.6994 10.7937 17.3732C10.7779 17.3523 10.7675 17.3277 10.7638 17.3018C10.7601 17.2758 10.7631 17.2494 10.7725 17.225C10.9471 16.8014 10.8254 16.399 10.5925 16.0444C10.3384 15.6579 10.3543 15.2713 10.635 14.8903C10.7248 14.7684 10.8467 14.6943 10.9948 14.6679C11.032 14.6626 11.0637 14.668 11.0954 14.689C11.7044 15.0861 12.292 15.0809 12.8425 14.6733C12.8596 14.66 12.8796 14.6512 12.9008 14.6475C12.922 14.6438 12.9438 14.6453 12.9644 14.6519C13.3032 14.7473 13.5096 14.9855 13.5784 15.372C13.6314 15.6843 13.4725 15.9173 13.3243 16.1661C13.102 16.5633 13.102 17.029 13.3402 17.3996C13.3878 17.4791 13.372 17.5426 13.2979 17.5956C13.155 17.7014 12.9907 17.7543 12.8108 17.765C12.7578 17.765 12.7154 17.7861 12.6732 17.8284C12.5514 17.9449 12.4773 18.0932 12.4455 18.2573C12.4296 18.3632 12.3819 18.3843 12.3078 18.2996C12.2019 18.1884 12.1278 18.0773 12.1755 17.9132L12.3501 17.3309C12.3714 17.2514 12.2867 17.1932 12.2443 17.1456C12.1966 17.1032 12.1808 17.1138 12.1914 17.1719H12.1861Z" fill="white"/>
</g>
<defs>
<clipPath id="clip0_328_39613">
<rect width="24" height="24" fill="white"/>
</clipPath>
</defs>
</svg>
