<svg width="24" height="24" viewBox="0 0 24 24" fill="none" xmlns="http://www.w3.org/2000/svg">
<g clip-path="url(#clip0_328_39746)">
<path d="M24 0H0V24H24V0Z" fill="#00E789"/>
<path d="M10.793 14.6922L11.9994 16.365V20L7.57617 17.8688V8.50366C7.57617 8.36292 7.62041 8.23022 7.72094 8.14176L8.24368 7.67129C8.29339 7.62624 8.35202 7.59215 8.41576 7.57124C8.4795 7.55032 8.54692 7.54304 8.61367 7.54986C8.68039 7.55669 8.74495 7.57747 8.80314 7.61086C8.86131 7.64425 8.91183 7.68949 8.9514 7.74366L12.9805 13.4818L15.2163 14.9535V7.05605L13.2057 5.98643V10.9445L11.9994 9.44862V4L16.4226 6.22368V15.5526L15.538 16.4494L12.2809 14.5354L8.78251 9.56523V17.125L10.793 18.1021V14.6922Z" fill="white"/>
</g>
<defs>
<clipPath id="clip0_328_39746">
<rect width="24" height="24" fill="white"/>
</clipPath>
</defs>
</svg>
