<svg width="24" height="24" viewBox="0 0 24 24" fill="none" xmlns="http://www.w3.org/2000/svg">
<g clip-path="url(#clip0_328_29955)">
<path d="M24 0H0V24H24V0Z" fill="#14CADB"/>
<path d="M16.7494 10.0324C17.2494 10.5687 17.6575 11.1835 17.9583 11.852C18.2592 11.1082 18.4185 10.3145 18.4274 9.51209V9.35118L18.5112 9.47323V9.51209C18.5131 10.366 18.3448 11.2118 18.0162 12C18.3557 12.7857 18.5349 13.6315 18.5432 14.4874V14.5126C19.0418 13.964 19.4382 13.3306 19.7132 12.6424C19.7914 12.432 19.8584 12.2176 19.9124 12L19.9251 11.9549C19.8648 11.7517 19.7945 11.5525 19.7132 11.3571C19.4359 10.6628 19.035 10.0245 18.5303 9.47323L18.531 9.46037L18.4274 9.35118C18.4298 9.30982 18.4305 9.26844 18.4293 9.22706L18.3958 9.1917C18.3987 9.24482 18.3986 9.29808 18.3954 9.35118L18.2862 9.23532C17.7174 8.66833 17.0481 8.21272 16.3125 7.89209C16.5773 8.57369 16.725 9.29515 16.7492 10.0259L16.7494 10.0324Z" fill="black"/>
<path d="M18.5442 9.32011C19.1956 10.014 19.6863 10.8428 19.9815 11.7474C20.2187 10.7434 20.215 9.69739 19.9705 8.69466L19.969 8.6894C19.9699 8.69996 19.9705 8.71054 19.9705 8.7211C19.7034 8.27542 19.3816 7.86498 19.0126 7.49937C18.6463 7.12171 18.2346 6.7908 17.7871 6.51416C18.2259 7.36657 18.4703 8.30542 18.5033 9.26326L18.5434 9.30553L18.5442 9.32011Z" fill="black"/>
<path d="M19.9106 15.5504C19.9311 15.4784 19.9504 15.4064 19.9693 15.3345C19.9634 15.4064 19.9376 15.4784 19.9106 15.5504Z" fill="black"/>
<path fill-rule="evenodd" clip-rule="evenodd" d="M9.05596 14.7451C8.87524 14.5604 8.70515 14.3661 8.54643 14.1628C8.51303 14.1038 8.48111 14.0439 8.45066 13.983C8.43332 13.9584 8.41615 13.9338 8.39915 13.9088C8.38807 13.8735 8.3748 13.8382 8.3615 13.8028C8.35323 13.7808 8.34495 13.7587 8.33721 13.7369C8.32632 13.711 8.31566 13.6851 8.30525 13.6591C8.32744 13.7424 8.35359 13.8258 8.38002 13.9088C8.43827 14.1059 8.50911 14.2992 8.59209 14.4871C8.67974 14.699 8.78063 14.9053 8.89414 15.1047C8.83001 15.0743 8.76759 15.0394 8.70796 15.0016C8.47878 14.5595 8.29973 14.0926 8.17401 13.611C8.17166 13.6034 8.16964 13.5955 8.16797 13.5876C8.16306 13.5643 8.15727 13.5411 8.15109 13.5175C7.90252 13.1041 7.70102 12.6639 7.55092 12.2051C7.556 12.1762 7.56552 12.1482 7.57501 12.1205C7.58861 12.0807 7.6021 12.0411 7.6021 11.9998C7.66852 12.2167 7.74358 12.4311 7.8271 12.6422C7.86298 12.735 7.92398 12.839 7.98087 12.936C8.04615 13.0472 8.106 13.1491 8.11622 13.2147C8.12057 13.2417 8.1268 13.269 8.13386 13.2966C8.16686 13.3577 8.20136 13.4181 8.23735 13.4776C8.07413 13.0109 7.98691 12.5132 7.97274 12.0179L7.97598 12.0002V11.8584C7.97649 11.774 7.97862 11.6897 7.98233 11.6054C7.97303 11.6892 7.96628 11.7736 7.96209 11.8581C7.97069 11.514 8.00691 11.1721 8.06883 10.8338C7.98048 11.0057 7.89826 11.1786 7.8271 11.3568C7.7832 11.4647 7.74115 11.5758 7.69812 11.6898C7.66969 11.765 7.64082 11.8413 7.61073 11.9186C7.62088 11.9451 7.62244 11.9718 7.6021 11.9998C7.55092 12.07 7.55092 12.1347 7.55092 12.2051C7.54305 12.1838 7.5322 12.1628 7.52146 12.1421L7.50908 12.1179C7.51637 12.1465 7.529 12.1752 7.55092 12.2051C7.42605 12.7148 7.3653 13.2367 7.37092 13.7609V13.9218L7.26124 13.7997C7.26001 13.634 7.26508 13.4685 7.27638 13.3035C7.26613 13.4458 7.26038 13.5883 7.2592 13.7311C7.2611 13.365 7.29348 12.9996 7.35599 12.6393C7.38991 12.4421 7.43289 12.2462 7.48479 12.0524C7.48149 12.0351 7.48136 12.0177 7.48622 11.9998C7.48829 11.9924 7.49061 11.9851 7.49313 11.9778C7.33428 11.3963 7.25623 10.796 7.26124 10.1931L7.37092 10.071V10.2381C7.36991 10.7413 7.42935 11.2428 7.54789 11.7318C7.69957 11.287 7.89895 10.8599 8.14335 10.4581C8.1502 10.4422 8.1583 10.4266 8.16797 10.4118L8.1961 10.3679C8.25591 10.2743 8.31333 10.1845 8.38002 10.0901C8.36906 10.1246 8.3561 10.1591 8.34311 10.1934C8.31098 10.2789 8.2788 10.3644 8.27716 10.45C8.47116 9.99036 8.7425 9.56202 9.06913 9.20779C9.11373 9.18073 9.15226 9.14893 9.18982 9.1153C9.21095 9.09492 9.23239 9.07485 9.25412 9.05513L9.19677 9.10903C9.20805 9.09885 9.21927 9.0885 9.23056 9.07809L9.25412 9.05513C9.32221 8.98849 9.39258 8.92372 9.46332 8.86C9.72698 8.63841 10.0169 8.45332 10.3253 8.30812C10.2548 8.32558 10.1841 8.34271 10.1134 8.35203L10.0708 8.38014C9.87846 8.44032 9.68945 8.5112 9.50504 8.59219C9.29152 8.68004 9.08407 8.77942 8.88213 8.89088C8.77285 9.09158 8.67565 9.29859 8.59209 9.51188C8.5004 9.69917 8.42109 9.8926 8.35415 10.0901C8.29247 10.178 8.23907 10.261 8.18385 10.347L8.14209 10.4118C8.2712 9.92489 8.45403 9.45466 8.68801 9.00954C8.25517 9.27836 7.85604 9.59811 7.49917 9.96179L7.35944 10.04L7.35797 10.071L7.2483 10.1864V10.1997C6.76738 10.7304 6.38046 11.3391 6.10419 11.9998C6.38046 12.6603 6.76738 13.2691 7.2483 13.7997V13.806L7.35797 13.9279L7.49917 14.0377C7.85185 14.4139 8.24897 14.7465 8.68209 15.0277C8.71254 15.0917 8.74691 15.154 8.78503 15.2138C8.26238 14.9108 7.7844 14.5368 7.3649 14.1022C7.40409 14.8106 7.56026 15.5075 7.8271 16.1649V16.1717C7.84579 16.2199 7.86721 16.267 7.89122 16.3129C8.2058 17.0352 8.65043 17.6932 9.20295 18.2547L9.31882 18.3638H9.15121C8.54674 17.7612 8.06833 17.0443 7.74385 16.255C6.94659 15.9355 6.22144 15.4595 5.61123 14.8553C5.65046 15.5872 5.81725 16.307 6.10419 16.9817C6.1912 17.1909 6.28999 17.3947 6.40005 17.5926L6.40919 17.6116C6.60637 17.7173 6.80933 17.8118 7.01711 17.8947C7.69408 18.1831 8.41637 18.3506 9.15121 18.3897L9.19188 18.4279H9.35088L9.43313 18.506H9.46029L9.35088 18.4026H9.51122C10.3123 18.4014 11.1058 18.2513 11.851 17.9587C11.1857 17.6592 10.5737 17.2536 10.0393 16.7567H10.0258L10.018 16.7493C9.29164 16.7235 8.57494 16.5764 7.89797 16.3129C7.87378 16.2674 7.85241 16.2201 7.83385 16.1717C8.47848 16.4334 9.16118 16.5884 9.85517 16.6311C9.43562 16.2101 9.07539 15.7329 8.78503 15.2138C8.75464 15.1446 8.72878 15.0737 8.70796 15.0016C8.75914 15.048 8.81259 15.0907 8.86883 15.1301C8.89215 15.1795 8.91781 15.228 8.9457 15.2751C8.96273 15.2806 8.97986 15.2859 8.99709 15.2909C9.2683 15.7315 9.59207 16.1373 9.96115 16.4997L10.0578 16.6409H10.0708L10.1858 16.7499H10.1991C10.7296 17.231 11.3385 17.6181 11.9991 17.8947C12.6597 17.6181 13.2685 17.231 13.7991 16.7499H13.8058L13.9278 16.6409L14.0884 16.635C14.8014 16.5969 15.5033 16.4403 16.1649 16.1717H16.1717L16.3129 16.1076C17.0489 15.7869 17.7184 15.3311 18.2865 14.7639L18.3636 14.6479C18.367 14.7037 18.367 14.7594 18.3636 14.8151V14.8476C17.7613 15.4521 17.0443 15.9305 16.2548 16.255C15.9354 17.0523 15.4595 17.7773 14.8551 18.3876C15.5872 18.3481 16.3066 18.1818 16.9815 17.8947C17.1906 17.8077 17.3942 17.7089 17.5919 17.5989C17.6562 17.5684 17.7186 17.534 17.7786 17.4959C17.7482 17.5601 17.7139 17.6226 17.6758 17.6826L17.6698 17.6863C17.1723 18.5603 16.4788 19.3075 15.644 19.8679L15.2779 19.9707C15.7232 19.7041 16.1334 19.3819 16.499 19.0129C16.8761 18.6468 17.2065 18.2356 17.483 17.7886C16.6307 18.2272 15.6921 18.4716 14.7345 18.5042L14.6929 18.5438H14.6791C13.985 19.1956 13.156 19.6866 12.2511 19.9819C13.255 20.219 14.3011 20.2154 15.3037 19.9707L15.2783 19.9856C15.2255 20.0165 15.1729 20.0474 15.1192 20.0776C15.1814 20.0432 15.243 20.0075 15.3037 19.9707L15.6699 19.8679L15.3421 20.0738L14.969 20.1576C14.5708 20.2341 14.1658 20.2729 13.7608 20.2729C13.1651 20.272 12.5724 20.19 11.9991 20.0288C11.4258 20.1898 10.8335 20.272 10.2379 20.2729C9.83234 20.2729 9.42735 20.2341 9.02915 20.1576C8.91905 20.1025 8.81506 20.0414 8.71135 19.9804L8.69502 19.9707C9.69404 20.2144 10.7362 20.219 11.7367 19.9844C10.833 19.6879 10.0052 19.1961 9.31244 18.5438H9.30587L9.26471 18.5047C8.30805 18.4752 7.37108 18.2341 6.51857 17.8001C6.79462 18.243 7.12394 18.6502 7.49917 19.0129C7.85093 19.3771 8.2459 19.6969 8.67524 19.9652L8.69502 19.9707C8.80181 20.041 8.91347 20.1032 9.02915 20.1576L8.65621 20.0738L8.34826 19.8801L8.32884 19.8746C7.49978 19.3089 6.81319 18.5585 6.323 17.6826C6.37014 17.7124 6.41872 17.7399 6.46853 17.7651L6.46571 17.7606C6.41462 17.7349 6.36471 17.7066 6.31625 17.676L6.3125 17.6699C5.4384 17.1731 4.69123 16.4794 4.13098 15.6447C4.12003 15.6104 4.10707 15.5758 4.09413 15.5414L4.08653 15.521C4.10054 15.5709 4.1152 15.6204 4.13098 15.67C4.10855 15.6356 4.08292 15.6024 4.05734 15.5691C4.00626 15.5029 3.95541 15.4369 3.93066 15.3615C4.21795 16.4979 4.80717 17.5353 5.63606 18.3641C6.46942 19.1975 7.51276 19.7883 8.65621 20.0738C9.6661 20.6795 10.8226 20.9999 12.0001 20.9999C13.1776 20.9999 14.3321 20.6795 15.3421 20.0738C16.4855 19.7883 17.5309 19.1977 18.3644 18.3645C19.1978 17.5311 19.789 16.4866 20.0746 15.3431C20.6803 14.3333 21.0001 13.1778 21.0001 12.0002C21.0001 10.8226 20.6803 9.66715 20.0746 8.65731C19.7891 7.5137 19.198 6.46926 18.3644 5.63579C17.531 4.80229 16.4864 4.21117 15.343 3.92565C14.333 3.31994 13.1776 3 12.0001 3C10.8232 3 9.66832 3.31958 8.65889 3.92462L9.02915 3.8414C9.428 3.76489 9.83234 3.72609 10.2379 3.72609C10.8335 3.72698 11.4258 3.80911 11.9991 3.97022C12.5724 3.80907 13.1651 3.72692 13.7608 3.72609C14.1663 3.72598 14.5708 3.7646 14.969 3.8414C15.0827 3.8998 15.1944 3.9621 15.3037 4.02814C14.2857 3.77984 13.2229 3.77984 12.2049 4.02814C13.1288 4.31505 13.9767 4.80495 14.6867 5.46193H14.5329L14.5596 5.48724H14.6929C15.6677 5.51643 16.6233 5.76482 17.489 6.21399C17.5273 6.27607 17.5617 6.34051 17.5919 6.40691C17.3945 6.29443 17.1902 6.19374 16.9815 6.10486C16.2943 5.81012 15.5614 5.64024 14.8149 5.60312H14.6479L14.6141 5.57104H14.487C13.6845 5.58003 12.8909 5.73914 12.1471 6.04017C12.8126 6.3395 13.4243 6.74555 13.9588 7.24222H13.9729L13.9807 7.24967C14.7067 7.27535 15.4234 7.42284 16.1008 7.68602C16.1248 7.73185 16.1462 7.77899 16.1649 7.82722C15.5202 7.56605 14.8378 7.41102 14.1434 7.36833C14.5632 7.78947 14.9234 8.26615 15.2137 8.78512C15.244 8.85407 15.2696 8.9249 15.2908 8.99717C15.2396 8.95163 15.1861 8.90831 15.1299 8.86894C15.1064 8.81953 15.0806 8.77111 15.0526 8.72395L15.0329 8.71765C15.0688 8.77477 15.101 8.83391 15.1299 8.89481C14.9222 8.78005 14.7075 8.67881 14.487 8.59219C14.3443 8.5228 14.1981 8.45992 14.0493 8.40457C14.1973 8.52558 14.3404 8.6525 14.4781 8.78506C14.4835 8.78917 14.489 8.7933 14.4944 8.79743C14.688 8.96886 14.8727 9.15196 15.0471 9.34399C15.0053 9.29451 14.9622 9.24602 14.9177 9.19855C14.9996 9.28603 15.0793 9.37552 15.1565 9.46699C15.1814 9.49574 15.2061 9.52475 15.2306 9.55375C15.239 9.56503 15.2476 9.57632 15.2558 9.58761C15.3763 9.73724 15.4906 9.8917 15.5985 10.0508C15.6096 10.0864 15.6229 10.1223 15.6362 10.158C15.6447 10.1814 15.6534 10.2047 15.6615 10.228C15.6491 10.1872 15.6364 10.1466 15.6237 10.1058L15.6187 10.0901C15.5601 9.89327 15.4892 9.6997 15.4066 9.51188C15.3189 9.2998 15.2176 9.09393 15.104 8.89481C15.1684 8.92505 15.2307 8.95924 15.2908 8.99717C15.5198 9.43956 15.6989 9.90599 15.8246 10.3879C15.827 10.3959 15.8291 10.4037 15.8308 10.4118C15.8356 10.4351 15.8416 10.4586 15.8478 10.4821C16.0963 10.8954 16.2977 11.3355 16.4477 11.7939C16.4426 11.8226 16.4332 11.8502 16.4239 11.8776C16.4102 11.9178 16.3966 11.9575 16.3966 11.9998C16.3319 11.7872 16.2548 11.5689 16.1717 11.3568C16.1354 11.2637 16.0744 11.1597 16.0174 11.0627C15.9522 10.9517 15.8924 10.85 15.882 10.7847C15.8779 10.7591 15.8722 10.733 15.8657 10.7069C15.8417 10.6634 15.817 10.6202 15.792 10.5769C15.9076 10.886 15.9856 11.2093 16.0237 11.54C16.0389 11.8106 16.0377 12.083 16.0206 12.3539C16.0277 12.2831 16.0331 12.2121 16.0366 12.1409C16.0247 12.4844 15.989 12.8273 15.9295 13.1656C16.0175 12.9935 16.0999 12.8205 16.1717 12.6422C16.2146 12.5363 16.2558 12.4269 16.298 12.3149C16.3298 12.2308 16.3619 12.1454 16.396 12.0589C16.3917 12.0394 16.391 12.0197 16.3966 11.9998C16.4025 11.9781 16.4096 11.957 16.4166 11.936C16.4324 11.8889 16.4477 11.843 16.4477 11.7939C16.5772 11.2838 16.6419 10.7583 16.6408 10.2319V10.071L16.7499 10.1997C16.7544 10.8072 16.6745 11.4137 16.512 11.9998C16.5098 12.0071 16.5076 12.0146 16.5051 12.0219C16.6637 12.603 16.7419 13.2033 16.737 13.806L16.6279 13.9279V13.7609C16.6284 13.2582 16.5695 12.7567 16.4506 12.2679C16.2989 12.7124 16.0999 13.1394 15.8559 13.5402C15.8489 13.5566 15.8407 13.5724 15.8308 13.5876L15.7814 13.664C15.7322 13.7405 15.6841 13.8154 15.6299 13.8931L15.6187 13.9279C15.4194 14.2112 15.1994 14.4787 14.9595 14.7289C14.9543 14.7343 14.9492 14.7397 14.9441 14.7451C14.88 14.8154 14.8158 14.8801 14.745 14.9443C14.0692 15.5755 12.4321 15.9516 12.0585 16.0209L12.0237 16.0141H11.8803C11.6961 16.0096 11.5125 15.997 11.3298 15.9767C11.5041 16.0078 11.6805 16.028 11.8579 16.0367C11.5135 16.0249 11.1709 15.9889 10.8321 15.9295C11.003 16.0182 11.1779 16.0987 11.3561 16.1717C11.4015 16.1901 11.4475 16.2081 11.494 16.2264C11.6366 16.2824 11.7842 16.3404 11.9318 16.4136L11.9991 16.3967C12.2118 16.3326 12.4299 16.255 12.642 16.1717C12.822 16.1039 12.9948 16.0189 13.1583 15.9178C12.8221 15.9767 12.482 16.0119 12.1408 16.0239C12.6089 16.0006 13.0697 15.8985 13.5039 15.7217H13.542C13.6641 15.6959 13.786 15.6577 13.9089 15.6188C14.1058 15.5605 14.299 15.4897 14.487 15.4067C14.6988 15.3191 14.9048 15.2181 15.104 15.1047C15.0738 15.1688 15.0397 15.231 15.0017 15.2909C14.552 15.5239 14.0775 15.705 13.587 15.831L13.5231 15.844C13.1079 16.0943 12.6657 16.2971 12.2049 16.4479L12.182 16.4421L11.9991 16.4997C11.4236 16.6589 10.8286 16.7393 10.2318 16.7376H10.1929L10.0708 16.6279H10.2379C10.7245 16.6287 11.2093 16.573 11.6827 16.4621C11.2379 16.3071 10.8115 16.1045 10.4111 15.8567L10.7491 15.9023L10.7443 15.8997L10.4111 15.831C9.92121 15.705 9.44704 15.5239 8.99709 15.2909C8.95883 15.2307 8.92451 15.1688 8.89414 15.1047C9.09186 15.217 9.29579 15.3178 9.50504 15.4067C9.69575 15.4888 9.89106 15.5596 10.0901 15.6188C10.1245 15.6298 10.159 15.6429 10.1936 15.6559C10.2445 15.6751 10.2953 15.6942 10.3461 15.7068C10.0064 15.56 9.68735 15.3668 9.40215 15.1289C9.34367 15.0769 9.28601 15.024 9.22921 14.9701C9.1891 14.8899 9.13382 14.8298 9.07687 14.768L9.05596 14.7451ZM11.9991 16.4997C12.5728 16.6589 13.1657 16.7387 13.7608 16.7376H13.7991L13.9217 16.6279H13.7608C13.2366 16.6335 12.7141 16.5727 12.2049 16.4479L11.9991 16.4997ZM15.2137 15.2138C15.1445 15.2442 15.0736 15.2702 15.0017 15.2909C15.0449 15.2435 15.0851 15.1931 15.1228 15.1407L15.104 15.1497C15.2187 14.9421 15.3198 14.7274 15.4066 14.5068C15.4892 14.3183 15.5601 14.1248 15.6187 13.9279C15.6958 13.7997 15.7599 13.6969 15.8308 13.6322C15.7129 14.0907 15.5468 14.5351 15.3355 14.9588C15.7579 14.6979 16.1483 14.3887 16.499 14.0371L16.6393 13.9585L16.6408 13.9279L16.7499 13.8072V13.7997C17.2307 13.2691 17.6177 12.6603 17.894 11.9998C17.6177 11.3391 17.2307 10.7304 16.7499 10.1997V10.1931L16.6408 10.071C16.635 10.0153 16.6336 9.95954 16.634 9.90396C16.5954 9.19301 16.4394 8.49366 16.1717 7.83397V7.82722C16.1525 7.77939 16.1311 7.73159 16.107 7.68546C15.7828 6.96125 15.3272 6.30331 14.7637 5.74487L14.6479 5.63518H14.847C15.4516 6.23767 15.9302 6.95455 16.2548 7.74397C17.0553 8.07306 17.7811 8.5604 18.3887 9.17672C18.3527 8.43333 18.1852 7.70216 17.894 7.01722C17.8068 6.80854 17.7084 6.60435 17.5987 6.40691C17.6597 6.43595 17.719 6.46854 17.7765 6.50451C17.7172 6.46617 17.6558 6.43075 17.5919 6.40016C17.562 6.33604 17.5273 6.27361 17.489 6.21399C17.5555 6.24621 17.62 6.28266 17.682 6.32311L17.6853 6.32857C18.56 6.82571 19.3071 7.51992 19.8677 8.35539C19.8787 8.38992 19.8917 8.42446 19.9047 8.45902L19.9133 8.48177C19.899 8.43083 19.8839 8.37988 19.8677 8.32895C19.8902 8.36335 19.9156 8.39652 19.9411 8.42963C19.9964 8.50158 20.0527 8.57374 20.0746 8.65731C20.0829 8.68943 20.0918 8.7211 20.1016 8.75332C20.129 8.84348 20.1568 8.93505 20.1568 9.02981C20.3431 10.0163 20.2986 11.0322 20.0286 11.9998C20.2986 12.9668 20.3426 13.9826 20.1568 14.9697C20.1008 15.0824 20.0377 15.19 19.9749 15.2966L19.9708 15.3038C20.2147 14.3037 20.2189 13.2601 19.9835 12.2585C19.6868 13.1607 19.1958 13.987 18.5445 14.6789L18.5437 14.6929L18.5033 14.7352C18.4687 15.6956 18.2212 16.6365 17.7786 17.4897C17.7186 17.5279 17.6562 17.5622 17.5919 17.5926C17.7045 17.3946 17.8052 17.1909 17.894 16.9817C18.1862 16.2946 18.3538 15.561 18.389 14.8151L18.4297 14.7721C18.4309 14.7307 18.4303 14.6898 18.4277 14.6479V14.4871C18.4187 13.6851 18.2596 12.8913 17.9587 12.1471C17.6594 12.8129 17.2533 13.4248 16.7567 13.9594V13.9729L16.7491 13.9809C16.7236 14.7069 16.576 15.4235 16.3129 16.101L16.1717 16.1649C16.4333 15.5203 16.5886 14.8375 16.6313 14.1432C16.21 14.5631 15.733 14.9233 15.2137 15.2138ZM15.2137 15.2138C15.1537 15.2519 15.0912 15.2863 15.0271 15.3166C14.7459 15.7499 14.4139 16.147 14.0371 16.4997L13.9217 16.615H14.0887C14.5267 16.2022 14.9051 15.7306 15.2137 15.2138ZM19.9708 15.3038L19.9704 15.3149C19.701 15.7476 19.3794 16.1455 19.0127 16.4997C18.646 16.8792 18.2335 17.2117 17.7848 17.4897C17.7544 17.5538 17.72 17.6159 17.682 17.676C18.5582 17.1858 19.3089 16.4992 19.875 15.67L19.8818 15.6485C19.9479 15.5466 20.0147 15.4451 20.0746 15.3431C20.119 15.267 20.1287 15.178 20.1395 15.0884C20.1445 15.0489 20.1491 15.0089 20.1568 14.9697C20.0995 15.085 20.0348 15.2138 19.9708 15.3038ZM14.3304 15.3185C14.4736 15.1995 14.6118 15.0746 14.745 14.9443C14.6115 15.0709 14.4733 15.1969 14.3304 15.3185ZM15.2137 8.78512C15.2515 8.84531 15.2863 8.90776 15.3167 8.97188C15.7498 9.25312 16.1462 9.58499 16.499 9.96179L16.6149 10.0772C16.6118 10.0215 16.6118 9.96572 16.6149 9.91004C16.202 9.47225 15.7304 9.0936 15.2137 8.78512ZM17.489 6.21399C17.5537 6.24436 17.6155 6.27868 17.6758 6.31691C17.1857 5.44082 16.499 4.6903 15.6699 4.12434L15.6505 4.11892L15.343 3.92565L14.969 3.8414C15.0849 3.89877 15.2137 3.96403 15.3037 4.02814L15.322 4.03327C15.7519 4.30101 16.1468 4.62166 16.4996 4.98607C16.8791 5.35288 17.2109 5.76533 17.489 6.21399ZM7.95021 12.146L7.96118 12.0809L7.9501 12.1415L7.95021 12.146Z" fill="black"/>
<path d="M15.7187 13.5777C15.7042 13.6447 15.6857 13.7114 15.6655 13.7784C15.6907 13.7105 15.7141 13.6427 15.72 13.5747L15.7187 13.5777Z" fill="black"/>
<path d="M14.418 8.74027C14.2309 8.57881 14.0311 8.4364 13.8207 8.31473L13.9084 8.37953C13.8727 8.36845 13.8374 8.35513 13.802 8.34182C13.7399 8.31853 13.6771 8.29502 13.6152 8.28369C13.8979 8.40517 14.1674 8.55811 14.418 8.74027Z" fill="black"/>
<path d="M12.4188 7.98583C12.3265 7.97498 12.2337 7.96722 12.1408 7.9626C12.4846 7.9745 12.8274 8.01035 13.1662 8.06991C12.9938 7.98133 12.8205 7.89892 12.6419 7.82761C12.4428 7.74704 12.2318 7.67226 12.0202 7.60889L11.9991 7.61554L11.9757 7.60974C11.7709 7.67292 11.561 7.7474 11.356 7.82761C11.1555 7.90333 10.9637 8.00046 10.784 8.11728L10.7025 8.13412C10.6673 8.15307 10.6323 8.17252 10.5977 8.19248C10.8552 8.09399 11.1229 8.02225 11.3973 7.97905C11.5602 7.96383 11.7237 7.95436 11.8875 7.95066L12.0308 7.97597H12.175C12.2563 7.97782 12.3375 7.9811 12.4188 7.98583Z" fill="black"/>
<path fill-rule="evenodd" clip-rule="evenodd" d="M8.65394 3.92676C7.51144 4.21251 6.46805 4.80336 5.63532 5.63619C4.8028 6.46881 4.21216 7.51196 3.92645 8.65416C3.99008 8.54557 4.06027 8.43749 4.13046 8.32943C4.11947 8.36398 4.1065 8.39846 4.09349 8.433C4.06052 8.52051 4.02757 8.60803 4.02757 8.69555C3.96377 8.7843 3.90053 8.9108 3.84323 9.0254L3.84081 9.03024C3.84879 8.99047 3.85373 8.95012 3.85862 8.91011C3.86857 8.82875 3.87831 8.74888 3.91322 8.6784C3.31557 9.68333 3 10.8311 3 12.0006C3 13.1772 3.31941 14.3317 3.92408 15.341C3.91554 15.3086 3.90566 15.2761 3.89573 15.2436C3.86837 15.1541 3.84081 15.0636 3.84081 14.9701C3.6551 13.9834 3.69918 12.9671 3.96961 12.0003C3.69918 11.0332 3.65509 10.0169 3.84081 9.03024C3.89923 8.91658 3.96151 8.80495 4.02757 8.69555C3.77926 9.71351 3.77926 10.7764 4.02757 11.7944C4.32175 10.8706 4.82021 10.0251 5.48587 9.32055L5.48665 9.30642L5.49303 9.2997C5.52108 8.32776 5.76705 7.3745 6.21284 6.51028C6.24545 6.44334 6.28202 6.37922 6.32252 6.31734L6.32791 6.31393C6.81769 5.44213 7.50231 4.69522 8.32835 4.13151L8.65394 3.92676ZM6.21284 6.51028C6.24377 6.44558 6.27808 6.38372 6.31577 6.32353C5.44231 6.81457 4.69434 7.50116 4.13046 8.32943C4.09165 8.4515 4.05962 8.57349 4.02757 8.69555C4.29642 8.25906 4.61818 7.85744 4.98547 7.50027C5.35213 7.12083 5.76439 6.7883 6.21284 6.51028Z" fill="black"/>
<path d="M11.7216 18.1261C11.8125 18.0929 11.9028 18.0578 11.9924 18.0207C11.9447 18.0404 11.8969 18.0594 11.849 18.078C11.8992 18.0582 11.949 18.0379 11.9989 18.0171C12.0016 18.0183 12.0046 18.0195 12.0074 18.0207L12.0155 18.024C12.7993 18.3479 13.6388 18.5138 14.4868 18.5121H14.5256L14.6476 18.3962H14.8082L14.7744 18.4283H14.6476L14.5392 18.5312H14.5256C13.9743 19.0357 13.3359 19.4368 12.6418 19.7141C12.4465 19.7953 12.2472 19.8662 12.0443 19.926L11.9989 19.9133L11.9431 19.929C11.744 19.8675 11.5478 19.7959 11.3559 19.7141C10.6648 19.4378 10.0289 19.0394 9.47896 18.5378H9.46623L9.43945 18.5126H9.46662L9.47266 18.5182H9.51151C10.2663 18.518 11.0142 18.3852 11.7216 18.1261Z" fill="black"/>
<path d="M12.1634 17.9664C12.9044 18.2521 13.6921 18.3981 14.4864 18.3969H14.6473L14.7632 18.2878C15.3302 17.7195 15.7859 17.05 16.1063 16.314C15.4247 16.579 14.7035 16.7266 13.9726 16.7509L13.9662 16.751C13.4299 17.2509 12.8151 17.6592 12.1465 17.9598L12.1499 17.9611C12.3346 17.8809 12.5158 17.7925 12.6926 17.6967C12.5204 17.7943 12.3439 17.8845 12.1634 17.9664Z" fill="black"/>
<path d="M8.26928 10.4692L8.26416 10.4772V10.4816C8.26586 10.4776 8.26756 10.4733 8.26928 10.4692Z" fill="black"/>
<path d="M10.1809 7.25875L10.1929 7.2481H10.1991C10.7297 6.76721 11.3384 6.38029 11.9991 6.104C12.6597 6.38029 13.2684 6.76721 13.799 7.2481H13.8066L13.9278 7.35723H13.947L14.0437 7.45397C14.4083 7.82515 14.7262 8.23949 14.9903 8.68775C14.5449 8.45354 14.0742 8.27054 13.587 8.14134L13.5135 8.12616C13.1202 7.88941 12.7025 7.69569 12.2679 7.54747C12.7566 7.42891 13.2578 7.36937 13.7608 7.37017H13.9278L13.8058 7.26105H13.7671C13.1696 7.25901 12.5748 7.33945 11.9991 7.49898C11.4255 7.33987 10.833 7.25982 10.238 7.26105H10.1991L10.0708 7.35723L10.1809 7.25875Z" fill="black"/>
<path d="M11.7935 7.55062L11.9988 7.5L11.8173 7.55664L11.7935 7.55062Z" fill="black"/>
<path d="M8.78488 8.78526C9.08776 8.26261 9.46186 7.78466 9.89657 7.36514C9.18813 7.40434 8.49112 7.56051 7.8337 7.82735H7.82695L7.68577 7.89203C6.96366 8.20642 6.30549 8.65087 5.74405 9.20319L5.63437 9.31908C5.631 9.26344 5.631 9.20765 5.63437 9.152C6.23701 8.54729 6.95408 8.06868 7.7437 7.7441C8.07279 6.94362 8.56014 6.21788 9.17648 5.61035C8.43307 5.64622 7.7019 5.81369 7.01698 6.105C6.80936 6.19133 6.60682 6.28879 6.41028 6.39798L6.40611 6.40706L6.38312 6.41759C6.2793 6.61197 6.1858 6.81296 6.10404 7.01736C5.81155 7.70473 5.64449 8.43821 5.60905 9.18408L5.60247 9.19101C5.5995 9.24433 5.59963 9.2978 5.60287 9.35113L5.5708 9.38484V9.51203C5.57977 10.3145 5.73887 11.1081 6.03992 11.8519C6.33915 11.1861 6.74519 10.5737 7.24195 10.039V10.0262L7.24941 10.0183C7.27508 9.29218 7.42257 8.57551 7.68577 7.89822L7.82695 7.83409C7.56543 8.47873 7.41031 9.1614 7.36753 9.8555C7.78883 9.43576 8.26572 9.07564 8.78488 8.78526Z" fill="black"/>
<path d="M8.78467 8.78495C8.84609 8.75801 8.90902 8.73463 8.97314 8.71495L8.9776 8.7079C9.41701 8.48024 9.88058 8.30203 10.3589 8.17645L10.4108 8.14202L10.5215 8.12685C10.9231 7.88927 11.3495 7.69551 11.7934 7.5503C11.2828 7.42092 10.7578 7.3568 10.2309 7.35792H10.0705L9.96079 7.49967C9.58396 7.85235 9.25209 8.2489 8.97084 8.68202C8.90673 8.71296 8.84484 8.74728 8.78467 8.78495Z" fill="black"/>
<path d="M13.5869 8.1416L13.7418 8.24395L13.7138 8.23541L13.5869 8.1416Z" fill="black"/>
<path d="M8.69461 4.02852C8.25803 4.29731 7.85636 4.61907 7.49876 4.98646C7.11929 5.35328 6.78675 5.76571 6.50879 6.21436C7.37297 5.76858 8.32622 5.52263 9.29815 5.49459L9.30547 5.48763H9.31252C10.0056 4.82338 10.8376 4.32136 11.748 4.01761C10.7437 3.78026 9.69745 3.7839 8.69461 4.02852Z" fill="black"/>
<path d="M11.9985 4.08644L11.9535 4.07373C11.7508 4.13391 11.551 4.20436 11.3556 4.28556C10.6628 4.56973 10.0272 4.977 9.47949 5.4876H9.51113C10.3648 5.48582 11.2103 5.65409 11.9985 5.98258C12.7844 5.64295 13.6302 5.46376 14.4863 5.45554H14.5111C13.9632 4.95696 13.3302 4.56049 12.6413 4.28556C12.4316 4.20737 12.2167 4.14043 11.9985 4.08644Z" fill="black"/>
<path d="M7.24811 13.9741C7.27294 14.7047 7.42024 15.4265 7.68552 16.1085C6.9494 15.7875 6.27993 15.3316 5.71173 14.7641L5.60206 14.6489V14.4885C5.60082 13.6882 5.7496 12.8939 6.03967 12.1479C6.34014 12.8165 6.7483 13.4312 7.2479 13.9676L7.24811 13.9741Z" fill="black"/>
<path d="M5.49302 14.6995L5.48664 14.6929C5.48333 14.6373 5.48277 14.5821 5.48608 14.5263V14.487C5.48425 13.6332 5.65252 12.7877 5.98107 11.9996C5.64297 11.2166 5.46405 10.3744 5.45468 9.52148C4.96136 10.0596 4.56707 10.6809 4.29022 11.3567C4.21035 11.5666 4.14173 11.7814 4.08661 11.9996L4.07319 12.0463C4.13306 12.2484 4.20364 12.4473 4.2846 12.642C4.56218 13.336 4.96292 13.9743 5.46751 14.5258C5.46414 14.5815 5.46414 14.6373 5.46751 14.6929C4.80921 13.9959 4.31372 13.1619 4.0165 12.251C3.77928 13.255 3.78297 14.301 4.02754 15.3037L4.02885 15.3087C4.02799 15.2985 4.02754 15.2881 4.02754 15.2779C4.29454 15.7235 4.61636 16.134 4.98545 16.4995C5.35207 16.8791 5.76434 17.2115 6.21282 17.4895C5.76694 16.625 5.52096 15.6717 5.49302 14.6995Z" fill="black"/>
<path d="M16.49 12.0601L16.4827 12.0775C16.4757 12.094 16.4687 12.1105 16.4629 12.127L16.4642 12.1324C16.4744 12.1082 16.4837 12.0842 16.49 12.0601Z" fill="black"/>
<path d="M7.50732 11.9417C7.5126 11.9212 7.52007 11.901 7.52831 11.8809L7.52934 11.889C7.52487 11.9004 7.52005 11.9117 7.51519 11.923L7.50732 11.9417Z" fill="black"/>
<path d="M7.89111 7.68595C8.57311 7.42124 9.2948 7.27338 10.0256 7.2491L10.0319 7.24889C10.5681 6.74915 11.1827 6.3408 11.8511 6.04009C11.1051 5.75004 10.3119 5.60181 9.51163 5.60303H9.35078L9.23489 5.71217C8.66766 6.28042 8.21186 6.94987 7.89111 7.68595Z" fill="black"/>
<path d="M8.93181 8.78467C8.90973 8.81222 8.88856 8.84045 8.86829 8.8694C8.81837 8.89242 8.77014 8.91843 8.72305 8.94669L8.7168 8.96642C8.77109 8.93238 8.82723 8.90136 8.88496 8.87353C8.89971 8.84347 8.91534 8.81384 8.93181 8.78467Z" fill="black"/>
<path d="M13.2706 8.10341L13.2994 8.12253L13.2593 8.10107L13.2706 8.10341Z" fill="black"/>
</g>
<defs>
<clipPath id="clip0_328_29955">
<rect width="24" height="24" fill="white"/>
</clipPath>
</defs>
</svg>
