<svg width="24" height="24" viewBox="0 0 24 24" fill="none" xmlns="http://www.w3.org/2000/svg">
<g clip-path="url(#clip0_328_53882)">
<path d="M24 0H0V24H24V0Z" fill="#4100A8"/>
<path d="M7.98242 8.12786C8.4402 7.68342 8.9602 7.33232 9.55575 7.11454C10.1071 6.91656 10.696 6.84571 11.2786 6.90728C11.8612 6.96884 12.4224 7.16124 12.9201 7.47008C13.2757 7.7012 13.578 7.9812 13.8535 8.30119L13.3468 8.70564C13.1704 8.47003 12.9693 8.25399 12.7468 8.06119C12.4891 7.83898 12.178 7.6612 11.8579 7.5412C11.1984 7.28861 10.4778 7.24212 9.7913 7.40786C9.17761 7.5537 8.61054 7.85176 8.14241 8.27453C8.12909 8.28787 8.12464 8.29676 8.11575 8.28342L8.07131 8.23008L7.98242 8.12786Z" fill="white"/>
<path d="M19.3292 6.13243L17.987 6.28353C17.8448 6.30131 17.6893 6.31019 17.5871 6.42131C17.4359 6.58575 17.5781 6.79464 17.6981 6.91908L18.0537 7.3013L18.1826 7.43463C18.1915 7.44352 18.0848 7.54574 18.0715 7.55908L17.4404 8.24796L17.4093 8.28352C17.1128 7.86371 16.7796 7.47105 16.4137 7.11019C16.4048 7.1013 16.3515 7.03464 16.3426 7.04796L16.2537 7.12797L16.1693 7.20352C16.1604 7.21686 16.2315 7.28796 16.2403 7.29685L16.5515 7.67019C16.7663 7.93777 16.9623 8.21992 17.1381 8.51464C17.1604 8.55019 17.1648 8.55019 17.1338 8.58575L16.7426 9.01241C16.1471 7.86384 15.2047 6.93227 14.0493 6.3502C12.6771 5.68906 11.1002 5.5933 9.65819 6.08353C8.21506 6.58269 7.00836 7.59936 6.27154 8.93685C5.86192 9.69023 5.60689 10.5178 5.52142 11.3711C5.43594 12.2242 5.52173 13.0861 5.77376 13.9057C5.78265 13.9368 5.79154 13.9501 5.77376 13.9724L5.72043 14.0257L5.62264 14.1279L5.4182 14.3458L4.7471 15.0568L4.0271 15.8167C4.0271 15.8212 3.99599 15.8435 4.00044 15.8478L4.1782 16.0168C4.19599 16.039 4.20932 16.0746 4.23154 16.0524L4.3071 15.9723L5.22709 15.0346L5.91598 14.3234C6.29375 15.2923 6.8982 16.1457 7.68041 16.8167C8.81657 17.7871 10.2795 18.2887 11.772 18.2192C13.2645 18.1499 14.6746 17.515 15.7159 16.4434C16.6563 15.4942 17.2631 14.2651 17.4448 12.9413C17.582 11.9078 17.4707 10.8566 17.1203 9.87463C17.107 9.83463 17.0759 9.79908 17.107 9.77241L17.2047 9.67463L17.5603 9.31908C18.2276 10.7415 18.3647 12.3555 17.947 13.8702C17.8245 14.3295 17.6578 14.7761 17.4492 15.2034C17.2582 15.5813 17.0447 15.9457 16.8137 16.2968L17.6047 16.799C17.9382 16.2079 18.227 15.599 18.4404 14.9501C18.7499 14.0309 18.8735 13.0593 18.8042 12.0918C18.7347 11.1243 18.4736 10.1803 18.0359 9.31464L17.9115 9.08353L17.8804 9.03019C17.8671 9.00353 17.8804 8.99908 17.9071 8.9813L18.0181 8.86575L18.4048 8.48352L18.8003 8.0924L19.3781 8.71019C19.5115 8.84353 19.7471 8.98574 19.8626 8.75908C19.9159 8.64797 19.9159 8.51908 19.9203 8.39464L19.9736 7.31463L19.9959 6.86575C20.0047 6.72353 20.0047 6.58575 19.9381 6.45242C19.8804 6.34472 19.7911 6.25724 19.6823 6.20164C19.5735 6.14604 19.4503 6.12499 19.3292 6.14131V6.13243ZM6.26708 12.9323C6.10016 12.2253 6.0747 11.4922 6.19215 10.7751C6.30962 10.0582 6.56769 9.37151 6.95153 8.75464C7.32385 8.15104 7.81969 7.63308 8.40644 7.23476C8.99319 6.83645 9.65758 6.56679 10.3559 6.44353C11.8138 6.20353 13.3293 6.66575 14.4403 7.63464C15.1007 8.20759 15.6054 8.93846 15.9071 9.75908C15.9204 9.79462 15.9603 9.85685 15.9292 9.88796L15.8227 10.0079L15.0671 10.8258L13.4804 12.5324L12.667 13.4079L12.3781 13.719C12.3115 13.7902 12.1693 13.9413 12.0538 13.8878C11.9114 13.8257 11.8893 13.559 11.8626 13.4212L11.6538 12.2879C11.5114 11.5234 11.387 10.7502 11.227 9.99021C11.1604 9.66129 10.9738 9.31019 10.6048 9.27464C10.3559 9.24797 10.1204 9.37241 9.94712 9.5413C9.7693 9.71908 9.60486 9.90129 9.43596 10.0835L8.61375 10.9502L6.3782 13.3323L6.27154 12.9413C6.30264 13.0746 6.03154 11.9413 6.27154 12.9413L6.26708 12.9323ZM11.8937 13.5812C11.8937 13.5902 11.8937 13.5857 11.8937 13.5812ZM16.1071 12.7679C15.9653 13.4678 15.6855 14.1324 15.2842 14.7231C14.8827 15.3137 14.3678 15.8184 13.7693 16.2079C12.8567 16.7862 11.7774 17.0438 10.7021 16.9401C9.62666 16.8362 8.61658 16.3769 7.83153 15.6346L7.78708 15.5902L7.77375 15.5813C7.25085 15.083 6.83629 14.4824 6.55597 13.8168C6.54264 13.7813 6.4982 13.728 6.52931 13.6969L6.63597 13.5857L7.36486 12.8435L8.93819 11.2302L9.77818 10.3768C9.94712 10.208 10.107 10.0258 10.2804 9.86574C10.3559 9.79907 10.4803 9.70574 10.587 9.74574C10.7292 9.80353 10.756 10.0213 10.7782 10.1502L10.9826 11.3146L11.3648 13.5546C11.3914 13.7235 11.4182 13.9013 11.507 14.0479C11.6582 14.3146 11.9071 14.4834 12.227 14.4302C12.4938 14.3857 12.6937 14.199 12.8803 14.0123L13.7248 13.168L16.1604 10.7102C16.267 11.3946 16.2537 12.0923 16.1115 12.7679C16.2627 12.048 16.0359 13.1324 16.1115 12.7679H16.1071Z" fill="white"/>
</g>
<defs>
<clipPath id="clip0_328_53882">
<rect width="24" height="24" fill="white"/>
</clipPath>
</defs>
</svg>
