<svg width="24" height="24" viewBox="0 0 24 24" fill="none" xmlns="http://www.w3.org/2000/svg">
<g clip-path="url(#clip0_328_39958)">
<path d="M24 0H0V24H24V0Z" fill="url(#paint0_linear_328_39958)"/>
<path d="M17.1404 3.00129C16.1026 3.00892 15.1074 3.41461 14.3602 4.13464C13.613 4.85466 13.1707 5.8341 13.1247 6.87076V11.1846C12.7309 11.1846 12.4497 11.2407 11.9997 11.2407C11.5499 11.2407 11.2686 11.2407 10.875 11.2971V6.87076C10.875 4.73919 8.97954 2.94504 6.80295 3.00129C4.73324 3.00129 3.0572 4.79542 3.00098 6.87076V17.1857C3.00973 17.6973 3.11956 18.202 3.32417 18.671C3.52875 19.1399 3.82406 19.5638 4.1931 19.9182C4.56213 20.2726 4.99762 20.5505 5.47447 20.7361C5.95134 20.9215 6.46016 21.0109 6.97169 20.9989C9.09201 20.9427 10.875 19.2553 10.875 17.1857V12.8661C11.2686 12.8661 11.5499 12.81 11.9997 12.81C12.4497 12.81 12.7309 12.81 13.1247 12.7537V17.1294C13.1642 18.1782 13.6122 19.1699 14.373 19.8928C15.1339 20.616 16.147 21.0129 17.1965 20.9989C18.2088 20.974 19.1716 20.5563 19.8811 19.8341C20.5909 19.112 20.9915 18.1419 20.9986 17.1294V6.87076C20.9986 5.84647 20.5925 4.86395 19.8692 4.1386C19.1461 3.41326 18.1647 3.00427 17.1404 3.00129ZM6.91544 4.68857C8.19778 4.68857 9.18763 5.58281 9.18763 6.87076V11.4095C8.0684 11.5782 6.97168 11.9156 5.9087 12.3656C5.45876 12.5906 5.08194 12.8156 4.68824 13.1531V6.86515C4.68824 5.62782 5.62748 4.68294 6.91544 4.68294V4.68857ZM9.18763 17.1857C9.18763 18.4793 8.19778 19.3114 6.91544 19.3114C5.62748 19.3114 4.68824 18.4736 4.68824 17.1857V16.1733C4.68824 15.279 5.34628 14.3849 6.57798 13.8786C7.42162 13.4849 8.23714 13.2599 9.18763 13.0911V17.1857ZM17.1404 19.3114C15.858 19.3114 14.8119 18.4736 14.8119 17.1857V12.6469C15.931 12.4781 17.084 12.1407 18.1471 11.6907C18.5971 11.4658 18.9176 11.2407 19.3112 10.9033V17.1857C19.3112 18.4793 18.3721 19.3114 17.1404 19.3114ZM17.4778 10.2341C16.6341 10.6277 15.7624 10.8527 14.8119 11.0215V6.87076C14.8119 5.57719 15.858 4.68857 17.1404 4.68857C17.43 4.6748 17.7193 4.72191 17.9897 4.82687C18.2601 4.93181 18.5056 5.09226 18.7101 5.29788C18.9146 5.50349 19.0738 5.74969 19.1773 6.02061C19.2809 6.29153 19.3266 6.58114 19.3112 6.87076V7.88313C19.3676 8.83363 18.7096 9.67161 17.4778 10.2341Z" fill="white"/>
</g>
<defs>
<linearGradient id="paint0_linear_328_39958" x1="17.5877" y1="6.21143" x2="7.22757" y2="18.1644" gradientUnits="userSpaceOnUse">
<stop stop-color="#00E8A2"/>
<stop offset="1" stop-color="#00B1E2"/>
</linearGradient>
<clipPath id="clip0_328_39958">
<rect width="24" height="24" fill="white"/>
</clipPath>
</defs>
</svg>
