<svg width="24" height="24" viewBox="0 0 24 24" fill="none" xmlns="http://www.w3.org/2000/svg">
<g clip-path="url(#clip0_328_34801)">
<path d="M24 0H0V24H24V0Z" fill="white"/>
<path d="M11.9999 20C16.4182 20 20 16.4182 20 11.9999C20 7.5817 16.4182 4 11.9999 4C7.58171 4 4 7.5817 4 11.9999C4 16.4182 7.58171 20 11.9999 20Z" fill="#6E6E6E"/>
<path fill-rule="evenodd" clip-rule="evenodd" d="M7.39487 5.46083L7.21987 5.58583C7.58987 6.06583 7.99486 6.66083 7.88986 6.80583L7.83987 6.87583C7.66487 7.13583 7.38987 7.54083 6.27987 7.46583C5.98299 7.44372 5.68459 7.45378 5.38988 7.49583C4.94248 8.15063 4.59532 8.86853 4.35988 9.62583C4.79988 9.40083 5.35987 9.19582 5.90488 9.19582C7.05487 9.19582 7.54988 9.69583 7.36987 9.97583C7.18986 10.2558 6.43988 10.5509 5.90488 10.5658C5.44488 10.5859 4.50488 11.2058 4.00488 12.1909C4.00488 12.5009 4.03488 12.8058 4.07488 13.1108C4.18988 12.5158 4.47488 11.7508 5.09488 11.4058C6.12987 10.8209 7.41987 10.9709 7.88986 11.4058C8.35986 11.8358 8.90986 12.4458 8.82987 13.1558C8.80928 13.4297 8.72541 13.6952 8.58487 13.9311C8.44431 14.1671 8.2509 14.3673 8.01986 14.5158C7.64486 14.7509 7.21987 15.9457 7.31487 16.8159C7.36486 17.3309 7.42487 18.0558 7.46487 18.5909C7.76813 18.8009 8.08555 18.9896 8.41486 19.1558C8.04101 18.3716 7.86096 17.5091 7.88986 16.6409C8.01986 15.1808 8.80987 14.2308 9.10986 14.3758C9.18486 14.4108 9.30486 14.5258 9.45986 14.6758C9.9199 15.1359 10.7099 15.9208 11.7798 15.9609C12.0448 15.9709 12.2848 15.9709 12.4999 15.9709C13.4348 15.9709 13.9149 15.9709 14.2899 16.8658C14.6305 17.6717 14.9771 18.4751 15.3298 19.2757C15.5298 19.1858 15.7347 19.0758 15.9299 18.9708C15.7199 18.2859 15.3799 17.2208 15.2098 16.8658C15.1599 16.764 15.1067 16.664 15.0498 16.5658C14.8947 16.2758 14.8099 16.1308 14.9848 15.7858C15.1253 15.5211 15.3368 15.3009 15.5956 15.1497C15.8545 14.9987 16.1502 14.9229 16.4498 14.9308C17.1747 14.9308 17.6499 14.9458 18.2348 15.2958C18.5098 15.4557 18.7299 15.7758 18.8847 16.0758C19.5114 15.0189 19.8845 13.8312 19.9747 12.6058C19.9095 12.5039 19.8303 12.4113 19.7398 12.3309C19.3898 12.0358 19.5499 11.7059 19.9848 11.4809L19.9747 11.3458C19.7334 11.2422 19.5038 11.1131 19.2899 10.9609C19.1548 10.8659 18.9998 10.7758 18.8499 10.6909C18.3698 10.4109 17.8999 10.1408 18.0098 9.73083C18.1399 9.22082 18.2848 8.85082 19.2848 8.69582C19.2148 8.53583 19.1347 8.37583 19.0548 8.22083C18.8748 8.28582 18.6047 8.32082 18.2348 8.24082C17.6099 8.10082 16.8748 7.32583 16.5848 6.95583C16.1895 6.64719 15.779 6.35849 15.3548 6.09083C15.0548 5.92083 14.7598 5.07584 14.7048 4.46583L14.4248 4.37584C14.4699 5.07584 14.4399 6.01083 14.0748 6.09083C13.4649 6.26576 12.8105 6.19206 12.2548 5.88583C11.8449 5.66083 11.2548 5.51583 10.7799 5.40083C10.5218 5.35246 10.2713 5.27007 10.0348 5.15583C9.82984 5.00584 9.51986 4.78583 9.61986 4.36084C9.45986 4.41084 9.30987 4.46083 9.15486 4.52083C9.14486 4.78583 9.01987 5.08583 8.63487 5.33083C7.78486 5.86083 7.62987 5.70083 7.39986 5.46083H7.39487ZM11.9099 6.66583C11.7948 7.00083 11.1399 7.08583 10.4498 6.85083C9.7498 6.61583 9.28486 6.15583 9.39986 5.82083C9.50987 5.48583 10.1649 5.40083 10.8548 5.63583C11.5548 5.87083 12.0199 6.33083 11.9048 6.66583H11.9099ZM6.19987 8.25583C6.19987 8.41083 6.00988 8.53583 5.77488 8.53583C5.53988 8.53583 5.34988 8.41083 5.34988 8.25583C5.34988 8.10583 5.53988 7.97583 5.77488 7.97583C6.00988 7.97583 6.19987 8.10082 6.19987 8.25583ZM8.06987 8.95582C8.26987 9.15583 8.56986 9.18582 8.74486 9.02082C8.90986 8.85082 8.88486 8.54582 8.67987 8.34582C8.47987 8.14083 8.17987 8.11082 8.00487 8.28083C7.83987 8.45082 7.86487 8.75082 8.06987 8.95582ZM18.3647 11.2958C18.3015 11.3568 18.2167 11.3905 18.1287 11.3896C18.0409 11.3887 17.9568 11.3532 17.8948 11.2908C17.8629 11.2603 17.8372 11.2239 17.8195 11.1834C17.8016 11.1431 17.7919 11.0996 17.791 11.0553C17.7901 11.0113 17.7979 10.9674 17.814 10.9262C17.8301 10.8851 17.8541 10.8476 17.8848 10.8158C17.9163 10.7849 17.9535 10.7605 17.9945 10.7438C18.0355 10.7274 18.0791 10.7191 18.1234 10.7196C18.1675 10.7201 18.2111 10.7293 18.2517 10.7466C18.2923 10.7641 18.3291 10.7893 18.3598 10.8209C18.4899 10.9558 18.4948 11.1709 18.3598 11.2958H18.3647ZM8.76486 10.2558L8.96486 9.97081C9.13487 9.72581 9.43985 9.61582 9.72985 9.69583C10.0149 9.77084 10.2249 10.0209 10.2398 10.3208L10.2649 10.7308C10.2733 10.9621 10.2243 11.1918 10.1222 11.3995C10.0201 11.6072 9.8681 11.7863 9.6798 11.9208C9.56985 11.9958 9.41487 12.0409 9.27986 12.0209H9.26487C9.09987 11.9908 8.95987 11.8958 8.87486 11.7558L8.72986 11.5309C8.60985 11.3384 8.54918 11.1149 8.5554 10.8881C8.56163 10.6613 8.63448 10.4414 8.76486 10.2558ZM13.5298 6.63083C13.0498 6.70583 12.5147 7.45083 12.3047 7.81583C12.3047 8.30583 12.5147 8.73082 13.2948 8.73082C14.0699 8.73082 14.4749 8.43083 14.5299 8.03082C14.5799 7.64083 14.1298 6.53583 13.5298 6.63083ZM14.8698 7.33083C14.8648 7.61583 14.9148 8.27083 15.1648 8.54083C15.4748 8.88582 16.4798 9.04083 16.7847 8.71083C17.0848 8.37583 16.9998 8.00083 16.5349 7.57583L16.3398 7.39583C15.9348 7.01583 15.5247 6.63083 15.2548 6.82583C15.0048 7.01083 14.8949 7.23583 14.8698 7.32583V7.33083ZM11.2348 10.2158C11.1198 9.90583 11.4549 9.59582 11.6398 9.47582C11.7349 9.54582 11.9748 9.75579 12.1899 10.0408C12.4599 10.3908 12.0247 10.6209 11.8299 10.6409C11.6299 10.6608 11.3799 10.6009 11.2348 10.2158ZM16.8099 9.47582C16.6098 9.59582 16.2448 9.90583 16.3698 10.2158C16.5299 10.6009 16.7998 10.6658 17.0148 10.6409C17.2248 10.6209 17.6998 10.3908 17.4099 10.0408C17.1747 9.75579 16.9099 9.54582 16.8099 9.47582ZM14.8947 9.25083C15.2198 9.30082 15.3198 9.75077 15.3298 9.97081C15.2248 10.0209 14.9199 10.1209 14.5699 10.1708C14.1247 10.2208 14.1448 9.73083 14.2298 9.55082C14.3098 9.37082 14.4898 9.18582 14.8947 9.25083ZM15.0798 12.0109C15.2098 11.9409 15.5499 11.8258 15.8599 11.9608C16.3461 12.2418 16.7725 12.6155 17.1148 13.0609C17.2398 13.2908 16.8348 14.2909 16.1399 14.3609C15.4399 14.4359 15.1299 14.1308 14.8899 13.6609C14.6548 13.1958 14.2998 12.4808 15.0798 12.0109ZM18.8399 13.1359C18.6148 12.9509 18.2547 13.1258 18.1048 13.2358C18.0048 13.3509 17.8349 13.6357 17.9148 13.9059C18.0198 14.2358 18.3148 14.5908 18.8399 14.9408C19.2498 15.2158 19.3049 14.8209 19.3599 14.4458C19.3747 14.3408 19.3898 14.2308 19.4098 14.1458C19.5147 13.7458 19.1199 13.3658 18.8399 13.1359ZM12.0899 11.6209C12.4347 11.7275 12.7654 11.8752 13.0747 12.0608C13.3998 12.2909 14.2899 13.1808 14.2899 14.2158C14.2899 15.2558 13.8248 15.4409 12.8499 15.4409C11.8699 15.4409 10.4148 14.2708 10.2249 13.8558C10.1188 13.6193 10.0947 13.3543 10.1563 13.1025C10.2179 12.8507 10.3616 12.6267 10.5648 12.4658C10.6598 12.3858 10.7448 12.3108 10.8249 12.2309C11.1749 11.9058 11.4748 11.6209 12.0899 11.6209Z" fill="#EC9835"/>
<path d="M14.465 6.73002C14.3399 6.72001 14.11 6.65502 14.2299 6.46002L14.2999 6.34502C14.43 6.13502 14.5499 5.93002 14.7 5.97502C14.88 6.03002 15.1799 6.49502 14.465 6.73002ZM12.715 6.37002C12.575 6.31002 12.3399 6.27002 12.2399 6.26002C12.14 6.39002 12.2149 6.62502 12.36 6.85502C12.4899 7.05502 12.6599 6.88502 12.7999 6.75002L12.86 6.69002C13.0099 6.55502 12.8849 6.44002 12.71 6.37002H12.715ZM9.14998 6.93502C8.94994 6.8707 8.7398 6.84358 8.52998 6.85502C8.34998 7.32002 8.68498 7.63001 8.92998 7.85501C8.99998 7.92002 9.05998 7.97001 9.09998 8.02002C9.29998 8.26002 9.51998 8.56002 9.51998 9.01001C9.51998 9.26002 9.63498 9.29001 9.79495 9.33501C9.92994 9.37501 10.095 9.42502 10.2449 9.61001C10.5899 10.02 10.795 10.17 10.9849 9.77003C11.1249 9.48502 11.425 9.30501 11.66 9.16501C11.7499 9.11002 11.8349 9.06001 11.8949 9.01502C12.1049 8.84002 11.8849 8.60001 11.6849 8.41501C11.4849 8.22501 11.6149 8.06501 11.775 7.86501C11.9349 7.66501 11.3049 7.35502 10.64 7.43502C10.1749 7.48502 9.81502 7.28502 9.51998 7.11502C9.40316 7.04246 9.27917 6.98214 9.14998 6.93502ZM7.26498 7.66501C6.91999 7.88002 6.53998 7.89001 6.39499 7.87002C6.01499 8.15002 7.05498 8.66001 7.48498 8.68002C7.71998 8.69002 7.75498 8.51001 7.78998 8.33002C7.81998 8.18502 7.84998 8.04001 7.98498 7.99002C8.28498 7.88002 8.36998 7.41502 8.16998 7.27502C8.01498 7.16502 7.80498 7.30502 7.50998 7.50002L7.25998 7.66501H7.26498ZM7.66498 8.92502C7.72998 9.07502 7.92498 9.38501 8.22998 9.45002C8.61498 9.53501 8.64998 9.66002 8.46998 9.81005C8.28998 9.95996 7.56998 9.83502 7.53498 9.54001V9.49001C7.49998 9.20001 7.45998 8.80001 7.66998 8.92502H7.66498ZM7.77998 10.23C7.59998 10.23 7.50498 10.43 7.47998 10.53C7.47998 10.605 7.50498 10.78 7.61498 10.915C7.74498 11.085 8.16498 11.09 8.23998 11.0001C8.27998 10.955 8.25498 10.925 8.21498 10.88C8.16336 10.8254 8.12714 10.7582 8.10998 10.685C8.05998 10.485 8.00499 10.2351 7.77998 10.2351V10.23ZM9.50498 12.28C9.40498 12.26 9.16998 12.25 9.07998 12.365C8.96498 12.515 9.17998 13.685 9.41498 13.765C9.58998 13.825 9.67992 13.425 9.74 13.165L9.78994 12.965C9.81502 12.915 9.85994 12.875 9.90497 12.8299C9.985 12.755 10.0649 12.675 10.025 12.57C9.95502 12.4099 9.775 12.28 9.50498 12.28ZM10.99 10.5C10.8399 10.43 10.6299 10.82 10.6749 10.8699C10.65 10.975 10.5749 11.225 10.4649 11.38C10.33 11.575 10.5949 11.795 10.825 11.7001C10.9749 11.645 11.315 11.535 11.6049 11.45L11.985 11.325C12.2349 11.245 11.875 10.8699 11.65 10.8699C11.49 10.8699 11.31 10.73 11.16 10.6201C11.0949 10.57 11.035 10.52 10.99 10.5ZM12.4649 9.16501C12.575 9.10001 12.86 8.96501 13.0749 8.96501C13.345 8.96501 13.875 9.39501 13.86 9.58C13.8449 9.76 13.8549 10.19 14.05 10.33C14.25 10.465 15.05 10.66 15.2649 10.495C15.345 10.43 15.415 10.325 15.485 10.23C15.595 10.075 15.695 9.92998 15.8099 9.96999C15.8849 9.99496 15.9099 10.11 15.9349 10.25C15.97 10.455 16.0199 10.7201 16.2849 10.8301L16.7949 11.055C17.1149 11.205 17.44 11.355 17.62 11.395C17.7349 11.425 17.9199 11.4299 18.1199 11.435C18.42 11.445 18.73 11.45 18.845 11.545C18.9699 11.645 19.0699 11.845 19.165 12.04C19.2149 12.14 19.265 12.24 19.3149 12.32C19.47 12.57 19.5649 12.6501 19.7749 12.82C19.99 13.0001 19.9349 13.385 19.7749 13.515C19.6199 13.645 19.475 13.515 19.165 13.225L19.16 13.215C18.845 12.925 18.5449 12.6501 18.0249 12.735L17.9949 12.74C17.4949 12.825 17.48 12.825 17.2499 12.6199L17.165 12.54C16.855 12.245 16.1 11.5301 15.4549 11.6301C14.9699 11.705 14.675 12.105 14.47 12.3701C14.3699 12.5 14.2999 12.6 14.2399 12.6199L14.15 12.655C14.015 12.705 13.93 12.745 13.8 12.415L13.7949 12.395C13.6449 12.0201 13.6449 12.005 13.245 11.775H13.24C12.8299 11.54 12.4649 11.33 12.5199 11.035C12.545 10.915 12.6199 10.875 12.6899 10.835C12.8049 10.765 12.9149 10.7 12.825 10.37C12.7749 10.1651 12.6749 10.03 12.58 9.91003C12.43 9.71006 12.3099 9.55001 12.4649 9.16001V9.16501ZM15.94 9.13001C15.7449 9.12002 15.35 8.98002 15.19 8.92002L15.1149 8.89501C14.825 8.79502 15.275 9.31501 15.48 9.50501C15.68 9.69 16.0499 9.62001 16.25 9.50501C16.45 9.39002 16.18 9.14001 15.94 9.13001ZM17.5949 9.67005C17.51 9.64501 17.3099 9.52002 17.1849 9.21502C17.0349 8.82501 17.0849 8.35501 17.2849 8.34501C17.4949 8.34002 17.8049 8.51001 17.9499 8.70501C18.0949 8.90501 17.7699 10.045 17.5999 9.67005H17.5949ZM14.4849 14.84C14.54 14.55 14.5199 14.055 14.5149 14.015C14.5149 13.945 14.5499 13.805 14.7 13.815C14.815 13.825 14.9049 14.0199 15.0099 14.2299C15.07 14.36 15.13 14.49 15.2099 14.595C15.3849 14.845 15.1449 14.955 14.91 15.06L14.85 15.09C14.6 15.205 14.43 15.135 14.4849 14.84ZM16.7749 14.29C16.8249 14.325 16.9849 14.32 17.2149 14.06C17.51 13.735 17.58 13.795 17.65 13.9L17.6999 13.9801C17.8149 14.145 18.03 14.45 18.07 14.575C18.1149 14.725 17.72 14.725 17.3099 14.69L17.1549 14.6801C16.8049 14.655 16.53 14.64 16.7749 14.295V14.29Z" fill="#FFED68"/>
<path d="M12.6605 4.28077C14.2405 3.88077 16.3405 5.07076 17.6055 6.20576C18.7055 7.35576 20.4254 9.93073 19.1855 10.7558C17.8305 11.6558 12.4854 8.46576 12.0954 6.60076C11.7755 5.11077 12.3405 4.43576 12.6605 4.28077Z" fill="url(#paint0_linear_328_34801)"/>
</g>
<defs>
<linearGradient id="paint0_linear_328_34801" x1="18.5357" y1="7.54541" x2="16.2208" y2="9.3404" gradientUnits="userSpaceOnUse">
<stop stop-color="white" stop-opacity="0.7"/>
<stop offset="1" stop-color="#A3A397" stop-opacity="0"/>
</linearGradient>
<clipPath id="clip0_328_34801">
<rect width="24" height="24" fill="white"/>
</clipPath>
</defs>
</svg>
