<svg width="24" height="24" viewBox="0 0 24 24" fill="none" xmlns="http://www.w3.org/2000/svg">
<g clip-path="url(#clip0_328_54181)">
<path d="M24 0H0V24H24V0Z" fill="white"/>
<path d="M11.5199 4.09945C11.8248 3.96945 12.1697 3.96945 12.4797 4.09945L18.2646 6.63937C18.7145 6.83438 18.9996 7.27934 18.9996 7.77434V16.224C18.9996 16.724 18.7095 17.169 18.2646 17.3641L12.4797 19.899C12.1748 20.034 11.8298 20.034 11.5199 19.899L5.735 17.3641C5.51501 17.266 5.32835 17.1059 5.19783 16.9034C5.06731 16.701 4.99856 16.4649 5.00002 16.224V7.77434C5.00002 7.27934 5.29001 6.83438 5.735 6.63937L11.5199 4.09945Z" fill="#29C2F6"/>
<path d="M11.6549 6.075C11.8749 5.975 12.1249 5.975 12.3448 6.075L16.4748 7.97494C16.7948 8.12493 16.9997 8.45993 16.9997 8.82992V15.1698C16.9997 15.5397 16.7948 15.8747 16.4748 16.0196L12.3448 17.9197C12.1249 18.0246 11.8749 18.0246 11.6549 17.9197L7.52502 16.0196C7.3661 15.9422 7.23242 15.8212 7.1395 15.6708C7.04657 15.5203 6.99822 15.3466 7.00005 15.1698V8.82992C7.00005 8.45993 7.20504 8.12493 7.52502 7.97993L11.6549 6.07999V6.075Z" fill="#0451C8"/>
<path d="M5.21999 16.9391C5.07999 16.7342 5 16.4892 5 16.2242V7.77443C5 7.51443 5.07999 7.26945 5.21999 7.06445L11.9997 9.99934V13.9992L5.21999 16.9391Z" fill="#ED723A"/>
<path d="M7.44001 15.9743C7.30434 15.8884 7.19275 15.7695 7.11578 15.6287C7.03879 15.4878 6.99897 15.3296 7.00002 15.1692V8.82939C7.00002 8.49439 7.17002 8.1844 7.44001 8.02441L11.9999 9.99932V13.9993L7.44001 15.9743Z" fill="url(#paint0_linear_328_54181)"/>
<path d="M18.7803 7.06445C18.9203 7.26445 19.0003 7.51443 19.0003 7.77443V16.2242C19.0003 16.4842 18.9203 16.7342 18.7803 16.9391L12.0005 13.9992V9.99934L18.7803 7.06445Z" fill="url(#paint1_linear_328_54181)"/>
<path d="M16.5604 8.02441C16.8303 8.1844 17.0003 8.49439 17.0003 8.82939V15.1692C17.0003 15.5042 16.8303 15.8142 16.5604 15.9743L12.0005 13.9993V9.99932L16.5604 8.02441Z" fill="url(#paint2_linear_328_54181)"/>
<path d="M18.7803 16.9389C18.6553 17.1189 18.4803 17.269 18.2652 17.3639L12.4804 19.8988C12.3305 19.9688 12.1654 19.9989 12.0005 19.9989V13.999L18.7803 16.9389Z" fill="url(#paint3_linear_328_54181)"/>
<path d="M16.5604 15.974C16.5331 15.9922 16.5047 16.0088 16.4754 16.0239L12.3454 17.9239C12.2354 17.9738 12.1155 17.9989 12.0005 17.9989V13.999L16.5604 15.974Z" fill="#3C75D2"/>
<path d="M12.0105 4L12.0005 9.99978L5.2207 7.0649C5.35071 6.87991 5.52069 6.72991 5.73569 6.6399L11.5205 4.09999C11.6754 4.035 11.8455 4 12.0105 4Z" fill="url(#paint4_linear_328_54181)"/>
<path d="M12.0062 6L12.0012 9.99985L7.44141 8.02494L7.5264 7.97494L11.6563 6.075C11.7713 6.025 11.8912 6 12.0062 6Z" fill="url(#paint5_linear_328_54181)"/>
<path d="M11.9902 4L12.0002 9.99978L18.78 7.0649C18.6501 6.87991 18.4801 6.72991 18.2652 6.6399L12.4803 4.09999C12.3253 4.035 12.1553 4 11.9902 4Z" fill="url(#paint6_linear_328_54181)"/>
<path d="M16.56 8.02494C16.5326 8.00666 16.5042 7.98997 16.475 7.97494L12.345 6.075C12.2301 6.025 12.1101 6 11.9951 6L12.0001 9.99985L16.56 8.02494Z" fill="#6334AA"/>
<path d="M15.4997 11.9999C15.4997 12.9281 15.1311 13.8183 14.4746 14.4746C13.8183 15.131 12.9281 15.4997 11.9999 15.4997C11.0717 15.4997 10.1814 15.131 9.52509 14.4746C8.86873 13.8183 8.5 12.9281 8.5 11.9999C8.5 11.0717 8.86873 10.1814 9.52509 9.5251C10.1814 8.86874 11.0717 8.5 11.9999 8.5C12.9281 8.5 13.8183 8.86874 14.4746 9.5251C15.1311 10.1814 15.4997 11.0717 15.4997 11.9999Z" fill="url(#paint7_linear_328_54181)"/>
</g>
<defs>
<linearGradient id="paint0_linear_328_54181" x1="5.00011" y1="10.8728" x2="18.2996" y2="10.8728" gradientUnits="userSpaceOnUse">
<stop stop-color="#E14719"/>
<stop offset="1" stop-color="#EC6813"/>
</linearGradient>
<linearGradient id="paint1_linear_328_54181" x1="10.0305" y1="7.53187" x2="16.1034" y2="20.4382" gradientUnits="userSpaceOnUse">
<stop stop-color="#DF62AF"/>
<stop offset="1" stop-color="#D4438D"/>
</linearGradient>
<linearGradient id="paint2_linear_328_54181" x1="5.00069" y1="9.48407" x2="17.2234" y2="13.1317" gradientUnits="userSpaceOnUse">
<stop stop-color="#894EBA"/>
<stop offset="1" stop-color="#95428A"/>
</linearGradient>
<linearGradient id="paint3_linear_328_54181" x1="6.3325" y1="17.9867" x2="17.2083" y2="15.3593" gradientUnits="userSpaceOnUse">
<stop stop-color="#68D5FF"/>
<stop offset="1" stop-color="#29C2F6"/>
</linearGradient>
<linearGradient id="paint4_linear_328_54181" x1="19.0003" y1="4" x2="6.54028" y2="12.7089" gradientUnits="userSpaceOnUse">
<stop offset="0.17" stop-color="#FAC35F"/>
<stop offset="1" stop-color="#F9A56E"/>
</linearGradient>
<linearGradient id="paint5_linear_328_54181" x1="5.63013" y1="12.0004" x2="21.3248" y2="15.421" gradientUnits="userSpaceOnUse">
<stop offset="0.2" stop-color="#F68D44"/>
<stop offset="1" stop-color="#F8B136"/>
</linearGradient>
<linearGradient id="paint6_linear_328_54181" x1="5.00051" y1="10.4003" x2="18.2476" y2="10.4003" gradientUnits="userSpaceOnUse">
<stop offset="0.21" stop-color="#945ED3"/>
<stop offset="1" stop-color="#BF3C90"/>
</linearGradient>
<linearGradient id="paint7_linear_328_54181" x1="8.93497" y1="9.74969" x2="11.9999" y2="15.4995" gradientUnits="userSpaceOnUse">
<stop offset="0.64" stop-color="#FDFAF8"/>
<stop offset="1" stop-color="#FDFAF8" stop-opacity="0.4"/>
</linearGradient>
<clipPath id="clip0_328_54181">
<rect width="24" height="24" fill="white"/>
</clipPath>
</defs>
</svg>
