<svg width="24" height="24" viewBox="0 0 24 24" fill="none" xmlns="http://www.w3.org/2000/svg">
<g clip-path="url(#clip0_328_40036)">
<path d="M24 0H0V24H24V0Z" fill="url(#paint0_linear_328_40036)"/>
<path d="M13.6002 9.33482V10.4014L13.5949 10.5721L13.9735 12.3855C14.4226 11.8218 14.667 11.1222 14.6668 10.4014V9.33482C14.6668 8.48612 14.3297 7.67216 13.7296 7.07205C13.1294 6.47192 12.3155 6.13477 11.4667 6.13477H7.20005C6.35134 6.13477 5.5374 6.47192 4.93727 7.07205C4.33715 7.67216 4 8.48612 4 9.33482V10.4014C3.99964 10.9636 4.14734 11.5158 4.42821 12.0027C4.70909 12.4895 5.11327 12.8939 5.60003 13.1749V11.8149C5.26935 11.4416 5.06668 10.9402 5.06668 10.4014V9.33482C5.06668 8.76902 5.29144 8.22638 5.69154 7.8263C6.09161 7.42622 6.63424 7.20146 7.20005 7.20146H11.4667C12.0325 7.20146 12.5752 7.42622 12.9753 7.8263C13.3754 8.22638 13.6002 8.76902 13.6002 9.33482Z" fill="white"/>
<path d="M13.0662 5.06668H14.1328C14.6987 5.06668 15.2413 5.29144 15.6414 5.69154C16.0415 6.09162 16.2663 6.63424 16.2663 7.20005V11.4668C16.2663 12.0326 16.0415 12.5753 15.6414 12.9753C15.2413 13.3754 14.6987 13.6002 14.1328 13.6002H13.0662C12.5003 13.6002 11.9578 13.3754 11.5577 12.9753C11.1576 12.5753 10.9329 12.0326 10.9329 11.4668H9.86621C9.86621 12.3155 10.2033 13.1294 10.8034 13.7295C11.4037 14.3296 12.2174 14.6668 13.0662 14.6668H14.1328C14.9816 14.6668 15.7956 14.3296 16.3957 13.7295C16.9958 13.1294 17.3329 12.3155 17.3329 11.4668V7.20005C17.3329 6.35134 16.9958 5.5374 16.3957 4.93727C15.7956 4.33715 14.9816 4 14.1328 4H13.0662C12.5041 3.99964 11.952 4.14734 11.4651 4.42821C10.9781 4.70909 10.574 5.11327 10.2928 5.60003H11.6529C12.0262 5.26936 12.5274 5.06668 13.0662 5.06668Z" fill="white"/>
<path d="M9.33286 10.3996H10.3995C10.9653 10.3996 11.5079 10.6245 11.9081 11.0245C12.3082 11.4246 12.5329 11.9674 12.5329 12.5329V13.0664H13.5996V12.5329C13.5996 11.6843 13.2625 10.8705 12.6623 10.2703C12.0623 9.67013 11.2482 9.33301 10.3995 9.33301H9.33286C8.48416 9.33301 7.67021 9.67013 7.07009 10.2703C6.46995 10.8705 6.13281 11.6843 6.13281 12.5329V16.7998C6.13281 17.6485 6.46995 18.4624 7.07009 19.0626C7.67021 19.6627 8.48416 19.9998 9.33286 19.9998H10.3995C11.0616 20.0002 11.7074 19.7952 12.2482 19.4131C12.7887 19.031 13.1975 18.4906 13.4183 17.8664H12.245C12.0579 18.1905 11.789 18.4595 11.465 18.6468C11.1411 18.834 10.7737 18.9328 10.3995 18.9331H9.33286C8.76706 18.9331 8.22444 18.7084 7.82435 18.3083C7.42426 17.9082 7.1995 17.3656 7.1995 16.7998V12.5329C7.1995 11.9674 7.42426 11.4246 7.82435 11.0245C8.22444 10.6245 8.76706 10.3996 9.33286 10.3996Z" fill="white"/>
<path d="M18.3998 11.654C18.7304 12.0274 18.9332 12.5287 18.9332 13.0674V14.1341C18.9332 14.6998 18.7084 15.2424 18.3083 15.6425C17.9083 16.0427 17.3656 16.2674 16.7998 16.2674H12.533C11.9673 16.2674 11.4246 16.0427 11.0246 15.6425C10.6246 15.2424 10.3997 14.6998 10.3997 14.1341V13.9207L9.33301 13.0674V14.1341C9.33301 14.9827 9.67013 15.7967 10.2704 16.3968C10.8705 16.997 11.6842 17.3341 12.533 17.3341H16.7998C17.6485 17.3341 18.4624 16.997 19.0626 16.3968C19.6627 15.7967 19.9998 14.9827 19.9998 14.1341V13.0674C20.0002 12.5052 19.8524 11.9531 19.5716 11.4663C19.2908 10.9793 18.8867 10.575 18.3998 10.2939V11.654Z" fill="white"/>
</g>
<defs>
<linearGradient id="paint0_linear_328_40036" x1="11.5242" y1="11.489" x2="15.5786" y2="18.0586" gradientUnits="userSpaceOnUse">
<stop stop-color="#074C7D"/>
<stop offset="1" stop-color="#5D0B5D"/>
</linearGradient>
<clipPath id="clip0_328_40036">
<rect width="24" height="24" fill="white"/>
</clipPath>
</defs>
</svg>
