<svg width="24" height="24" viewBox="0 0 24 24" fill="none" xmlns="http://www.w3.org/2000/svg">
<g clip-path="url(#clip0_328_40036)">
<path d="M24 0H0V24H24V0Z" fill="url(#paint0_linear_328_40036)"/>
<path d="M13.8004 9.0015V10.2014L13.7945 10.3935L14.2204 12.4336C14.7256 11.7994 15.0006 11.0123 15.0004 10.2014V9.0015C15.0004 8.0467 14.6211 7.13097 13.946 6.45583C13.2708 5.78067 12.3552 5.40137 11.4003 5.40137H6.60013C5.64531 5.40137 4.72961 5.78067 4.05445 6.45583C3.37931 7.13097 3 8.0467 3 9.0015V10.2014C2.9996 10.8339 3.16576 11.4551 3.48175 12.0029C3.79775 12.5506 4.25245 13.0055 4.80007 13.3216V11.7916C4.42805 11.3717 4.20004 10.8076 4.20004 10.2014V9.0015C4.20004 8.36496 4.4529 7.75448 4.90303 7.30438C5.35312 6.85428 5.96358 6.60143 6.60013 6.60143H11.4003C12.0368 6.60143 12.6473 6.85428 13.0974 7.30438C13.5475 7.75448 13.8004 8.36496 13.8004 9.0015Z" fill="white"/>
<path d="M13.1997 4.20004H14.3996C15.0363 4.20004 15.6467 4.4529 16.0968 4.90303C16.5469 5.35313 16.7998 5.96358 16.7998 6.60013V11.4003C16.7998 12.0368 16.5469 12.6474 16.0968 13.0975C15.6467 13.5476 15.0363 13.8005 14.3996 13.8005H13.1997C12.5631 13.8005 11.9526 13.5476 11.5025 13.0975C11.0524 12.6474 10.7996 12.0368 10.7996 11.4003H9.59961C9.59961 12.3551 9.97884 13.2708 10.6539 13.9459C11.3293 14.6211 12.2448 15.0004 13.1997 15.0004H14.3996C15.3545 15.0004 16.2703 14.6211 16.9454 13.9459C17.6206 13.2708 17.9998 12.3551 17.9998 11.4003V6.60013C17.9998 5.64531 17.6206 4.72961 16.9454 4.05445C16.2703 3.3793 15.3545 3 14.3996 3H13.1997C12.5673 2.9996 11.9461 3.16576 11.3984 3.48175C10.8505 3.79775 10.3959 4.25245 10.0795 4.80007H11.6096C12.0296 4.42806 12.5936 4.20004 13.1997 4.20004Z" fill="white"/>
<path d="M8.99954 10.1999H10.1995C10.8361 10.1999 11.4465 10.4529 11.8967 10.9029C12.3468 11.3531 12.5996 11.9637 12.5996 12.6V13.2002H13.7998V12.6C13.7998 11.6452 13.4205 10.7297 12.7452 10.0545C12.0702 9.37927 11.1543 9 10.1995 9H8.99954C8.04474 9 7.12902 9.37927 6.45387 10.0545C5.77871 10.7297 5.39941 11.6452 5.39941 12.6V17.4003C5.39941 18.3552 5.77871 19.2708 6.45387 19.946C7.12902 20.6211 8.04474 21.0004 8.99954 21.0004H10.1995C10.9444 21.0008 11.6709 20.7702 12.2793 20.3403C12.8874 19.9105 13.3474 19.3025 13.5958 18.6003H12.2757C12.0652 18.9649 11.7627 19.2675 11.3982 19.4782C11.0338 19.6888 10.6205 19.8 10.1995 19.8003H8.99954C8.36301 19.8003 7.75254 19.5475 7.30243 19.0974C6.85233 18.6473 6.59946 18.0369 6.59946 17.4003V12.6C6.59946 11.9637 6.85233 11.3531 7.30243 10.9029C7.75254 10.4529 8.36301 10.1999 8.99954 10.1999Z" fill="white"/>
<path d="M19.1999 11.6112C19.5718 12.0312 19.7999 12.5952 19.7999 13.2012V14.4013C19.7999 15.0378 19.547 15.6482 19.0969 16.0983C18.6469 16.5486 18.0364 16.8013 17.3999 16.8013H12.5996C11.9632 16.8013 11.3525 16.5486 10.9025 16.0983C10.4525 15.6482 10.1995 15.0378 10.1995 14.4013V14.1612L8.99951 13.2012V14.4013C8.99951 15.3561 9.37878 16.2718 10.0541 16.9469C10.7292 17.6221 11.6447 18.0014 12.5996 18.0014H17.3999C18.3547 18.0014 19.2703 17.6221 19.9455 16.9469C20.6206 16.2718 20.9999 15.3561 20.9999 14.4013V13.2012C21.0003 12.5688 20.834 11.9477 20.5181 11.4C20.2022 10.8521 19.7476 10.3973 19.1999 10.0811V11.6112Z" fill="white"/>
</g>
<defs>
<linearGradient id="paint0_linear_328_40036" x1="11.5242" y1="11.489" x2="15.5786" y2="18.0586" gradientUnits="userSpaceOnUse">
<stop stop-color="#074C7D"/>
<stop offset="1" stop-color="#5D0B5D"/>
</linearGradient>
<clipPath id="clip0_328_40036">
<rect width="24" height="24" fill="white"/>
</clipPath>
</defs>
</svg>
