<svg width="24" height="24" viewBox="0 0 24 24" fill="none" xmlns="http://www.w3.org/2000/svg">
<g clip-path="url(#clip0_328_37159)">
<path d="M24 0H0V24H24V0Z" fill="url(#paint0_linear_328_37159)"/>
<path d="M13.9445 15.7924H3.58398V7.99738C3.58398 5.23461 5.84761 3 8.64527 3H13.9445C17.5139 3.00582 20.4162 5.86727 20.4162 9.39614C20.4162 12.9252 17.5139 15.7924 13.9445 15.7924Z" fill="white"/>
<path d="M8.76134 8.119C5.59223 6.55188 5.33684 4.98475 5.61543 3.99805C4.98651 4.45954 4.47494 5.06248 4.12204 5.75819C3.76916 6.4539 3.58484 7.22285 3.58398 8.00292V15.9371H13.9445C15.471 15.9371 16.8698 15.2639 17.9666 14.399C17.4269 10.6148 13.0912 10.2549 8.76134 8.119Z" fill="white"/>
<path d="M3.58398 9.75146V18.1153C3.58398 20.2512 5.76055 21.6442 7.61208 20.6981L8.22152 20.3847C11.2398 18.8177 10.9262 14.2614 7.72815 13.1526C5.43551 12.3749 3.58398 11.8526 3.58398 9.75146Z" fill="white"/>
<path d="M9.4231 3.0049C10.1777 3.8349 11.7795 4.88546 15.2389 5.55873C16.9893 5.90105 18.6557 6.58333 20.1436 7.56697C19.7346 6.24318 18.9118 5.0855 17.796 4.26429C16.68 3.44306 15.3301 3.00162 13.9446 3.0049H9.4231Z" fill="white"/>
</g>
<defs>
<linearGradient id="paint0_linear_328_37159" x1="11.3242" y1="12.6021" x2="16.1009" y2="8.61032" gradientUnits="userSpaceOnUse">
<stop stop-color="#0080EE"/>
<stop offset="1" stop-color="#01C5F6"/>
</linearGradient>
<clipPath id="clip0_328_37159">
<rect width="24" height="24" fill="white"/>
</clipPath>
</defs>
</svg>
