<svg width="25" height="24" viewBox="0 0 25 24" fill="none" xmlns="http://www.w3.org/2000/svg">
<g clip-path="url(#clip0_328_32831)">
<path d="M24.5 0H0.5V24H24.5V0Z" fill="#03EDAE"/>
<path d="M4.9292 15.5605C5.31105 15.1168 6.48757 14.5801 8.54133 14.5801H12.2824C15.0173 14.5852 20.4872 13.2178 20.4872 8.74396C20.6212 7.2475 19.744 4.25977 15.1516 4.25977C10.559 4.25977 8.81481 5.63237 8.03046 7.11334L4.68667 15.4264C4.65055 15.514 4.71762 15.6122 4.81567 15.6122C4.86211 15.6122 4.9034 15.5915 4.9292 15.5605ZM9.66108 11.6698L10.8118 8.47563C10.8265 8.438 10.8475 8.40312 10.8737 8.37242C11.1833 8.00605 12.5818 7.35587 13.9337 7.35587H14.0007C15.7345 7.35587 17.4013 7.35587 17.4013 8.70784C17.4013 10.0805 15.4044 11.4841 12.9017 11.4841H10.6827C10.2906 11.4841 9.96033 11.5872 9.76945 11.6389L9.66108 11.6698Z" fill="black"/>
<path d="M9.32062 19.2045C9.04713 19.8237 8.48466 19.7359 8.1441 19.7359C5.04799 19.7359 4.42877 18.5285 4.50617 17.9196C5.17184 15.5356 9.66634 15.6131 10.2494 15.6131C10.719 15.6131 10.7242 15.9536 10.6675 16.129L9.32062 19.2045Z" fill="black"/>
</g>
<defs>
<clipPath id="clip0_328_32831">
<rect width="24" height="24" fill="white" transform="translate(0.5)"/>
</clipPath>
</defs>
</svg>
