<svg width="24" height="24" viewBox="0 0 24 24" fill="none" xmlns="http://www.w3.org/2000/svg">
<g clip-path="url(#clip0_328_30108)">
<path d="M24 0H0V24H24V0Z" fill="#E61E28"/>
<path d="M11.9859 14.3622C12.0016 14.3307 12.0372 14.3487 12.0534 14.3622L12.3801 18.186L12.0196 18.5253L11.6416 18.186C11.7496 16.9245 11.9701 14.3933 11.9859 14.3622Z" fill="white"/>
<path d="M11.2485 11.573L11.5929 11.1455L12.0105 12.032L12.4347 11.1455L12.7791 11.573L12.0105 13.2281L11.2485 11.573Z" fill="white"/>
<path d="M11.6475 10.6676L12.0165 10.2896L12.3913 10.6676L12.016 11.3552L11.6475 10.6676Z" fill="white"/>
<path d="M4.97396 10.9601L4.63916 9.98193L11.4405 12.8429L11.8734 13.5989L11.2821 17.8704L10.7646 17.3907L11.6196 13.5989L4.97396 10.9601Z" fill="white"/>
<path d="M19.0266 10.9601L19.3618 9.98193L12.5603 12.8429L12.1274 13.5989L12.7189 17.8704L13.2362 17.3907L12.3808 13.5989L19.0266 10.9601Z" fill="white"/>
<path d="M10.1628 10.4823L3 5.47461L3.71326 7.42898L10.5894 11.2842L10.1628 10.4823Z" fill="white"/>
<path d="M13.8372 10.4823L21 5.47461L20.2868 7.42898L13.4106 11.2842L13.8372 10.4823Z" fill="white"/>
<path d="M4.44994 9.46133L3.91309 7.97412L10.7883 11.666L11.2117 12.453L4.44994 9.46133Z" fill="white"/>
<path d="M19.5504 9.46133L20.0872 7.97412L13.212 11.666L12.7886 12.453L19.5504 9.46133Z" fill="white"/>
</g>
<defs>
<clipPath id="clip0_328_30108">
<rect width="24" height="24" fill="white"/>
</clipPath>
</defs>
</svg>
