<svg width="24" height="24" viewBox="0 0 24 24" fill="none" xmlns="http://www.w3.org/2000/svg">
<g clip-path="url(#clip0_328_54445)">
<path d="M24 0H0V24H24V0Z" fill="#282828"/>
<path fill-rule="evenodd" clip-rule="evenodd" d="M10.7143 3H3V21H10.7143V14.5457C11.6785 14.9765 12.7715 15.2143 13.9285 15.2143C17.8372 15.2143 21 12.4822 21 9.10711C21 5.73215 17.8372 3 13.9285 3C12.7715 3 11.6785 3.23785 10.7143 3.66856V3ZM13.9285 14.5715C12.7585 14.5715 11.6593 14.3078 10.7143 13.8385V4.37572C11.7156 3.88897 12.8152 3.63826 13.9285 3.64285C17.4772 3.64285 20.3572 6.08572 20.3572 9.10711C20.3572 12.1285 17.4772 14.5715 13.9285 14.5715ZM7.5 9.10711C7.5 10.8944 8.50928 12.4822 10.0714 13.4785V4.73572C8.50928 5.73215 7.5 7.32 7.5 9.10711ZM6.85715 9.10711C6.85715 6.96644 8.13643 5.07644 10.0714 3.99V3.64285H3.64285V20.3572H10.0714V14.2243C8.13643 13.1315 6.85715 11.2478 6.85715 9.10711ZM21 15.2143V21C19.2256 21 17.7856 19.7078 17.7856 18.1072C17.7856 16.5065 19.2256 15.2143 21 15.2143Z" fill="white"/>
</g>
<defs>
<clipPath id="clip0_328_54445">
<rect width="24" height="24" fill="white"/>
</clipPath>
</defs>
</svg>
