<svg width="24" height="24" viewBox="0 0 24 24" fill="none" xmlns="http://www.w3.org/2000/svg">
<g clip-path="url(#clip0_328_54445)">
<path d="M24 0H0V24H24V0Z" fill="#282828"/>
<path fill-rule="evenodd" clip-rule="evenodd" d="M10.8572 4H4V20H10.8572V14.2628C11.7142 14.6458 12.6858 14.8572 13.7142 14.8572C17.1886 14.8572 20 12.4286 20 9.42854C20 6.42858 17.1886 4 13.7142 4C12.6858 4 11.7142 4.21142 10.8572 4.59428V4ZM13.7142 14.2858C12.6742 14.2858 11.6972 14.0514 10.8572 13.6342V5.22286C11.7472 4.7902 12.7246 4.56734 13.7142 4.57142C16.8686 4.57142 19.4286 6.74286 19.4286 9.42854C19.4286 12.1142 16.8686 14.2858 13.7142 14.2858ZM8 9.42854C8 11.0172 8.89714 12.4286 10.2857 13.3142V5.54286C8.89714 6.42858 8 7.84 8 9.42854ZM7.42858 9.42854C7.42858 7.52572 8.56572 5.84572 10.2857 4.88V4.57142H4.57142V19.4286H10.2857V13.9772C8.56572 13.0058 7.42858 11.3314 7.42858 9.42854ZM20 14.8572V20C18.4228 20 17.1428 18.8514 17.1428 17.4286C17.1428 16.0058 18.4228 14.8572 20 14.8572Z" fill="white"/>
</g>
<defs>
<clipPath id="clip0_328_54445">
<rect width="24" height="24" fill="white"/>
</clipPath>
</defs>
</svg>
