<svg width="24" height="24" viewBox="0 0 24 24" fill="none" xmlns="http://www.w3.org/2000/svg">
<g clip-path="url(#clip0_328_40378)">
<path d="M24 0H0V24H24V0Z" fill="url(#paint0_linear_328_40378)"/>
<path d="M21 12.0028C20.9993 14.0792 20.2807 16.0916 18.9658 17.6989C17.6509 19.306 15.8206 20.4091 13.7855 20.821C11.7501 21.233 9.63509 20.9286 7.79871 19.9593C5.96232 18.9898 4.51762 17.4154 3.70949 15.5026C2.90139 13.5896 2.77957 11.4562 3.36473 9.46386C3.94986 7.47149 5.20596 5.74276 6.92009 4.57069C8.6342 3.39863 10.7008 2.85538 12.7698 3.033C14.8388 3.21062 16.7825 4.09819 18.2719 5.54526L17.0625 6.73213C15.8005 5.51739 14.1444 4.79605 12.3953 4.6993C10.6462 4.60256 8.92065 5.13687 7.53235 6.20502C6.14403 7.27317 5.18528 8.80418 4.8305 10.5195C4.47572 12.2349 4.74849 14.0206 5.59917 15.5518C6.44985 17.083 7.82193 18.2581 9.46578 18.8631C11.1097 19.4681 12.9161 19.4629 14.5564 18.8484C16.1968 18.234 17.5622 17.0511 18.4041 15.5149C19.2458 13.979 19.5084 12.1916 19.1437 10.4784L14.8686 14.6971L14.6437 14.9108V14.9221C14.078 15.4344 13.3758 15.7712 12.6221 15.8917C11.8686 16.012 11.0963 15.9109 10.3991 15.6006C9.70189 15.2902 9.11001 14.7838 8.69531 14.1431C8.28061 13.5025 8.06103 12.7552 8.06323 11.9921C8.06545 11.2289 8.28937 10.4828 8.70777 9.84461C9.12618 9.20646 9.72106 8.7036 10.4199 8.39723C11.1189 8.09087 11.8918 7.99421 12.6446 8.11902C13.3975 8.24383 14.0978 8.58473 14.6606 9.10025L13.4511 10.2871C13.1227 10.009 12.7215 9.83066 12.2947 9.77373C11.868 9.71679 11.434 9.78341 11.044 9.96566C10.6542 10.1479 10.3246 10.4383 10.0947 10.8022C9.86475 11.1661 9.74416 11.5885 9.74705 12.0188C9.74981 12.4493 9.87611 12.8697 10.1108 13.2307C10.3455 13.5915 10.6786 13.8775 11.071 14.0546C11.4633 14.2318 11.8982 14.2926 12.3242 14.23C12.7499 14.1674 13.149 13.9839 13.4737 13.7016L13.6706 13.5046L13.7661 13.3921L15.87 11.3108V11.3333L18.5305 8.71775V8.71212L19.7794 7.47464C20.5808 8.84887 21.0022 10.4117 21 12.0028Z" fill="white"/>
</g>
<defs>
<linearGradient id="paint0_linear_328_40378" x1="11.9999" y1="4.00247" x2="11.9999" y2="20.0024" gradientUnits="userSpaceOnUse">
<stop stop-color="#0440A8"/>
<stop offset="0.59" stop-color="#00B4B0"/>
<stop offset="1" stop-color="#02BFA1"/>
</linearGradient>
<clipPath id="clip0_328_40378">
<rect width="24" height="24" fill="white"/>
</clipPath>
</defs>
</svg>
