<svg width="24" height="24" viewBox="0 0 24 24" fill="none" xmlns="http://www.w3.org/2000/svg">
<g clip-path="url(#clip0_328_40444)">
<path d="M24 0H0V24H24V0Z" fill="#FC2952"/>
<path d="M15.55 4H8.48998L4.03999 9.61002L4 9.64993L5.53999 16.74L11.955 19.955L11.9999 20L18.46 16.785L20 9.69496L15.55 4ZM16.665 13.9549L18.63 11.4799L17.7799 15.3899L16.665 13.9549ZM7.93498 14.6999L10.7999 18.3099L6.69499 16.2649L7.93498 14.6999ZM9.68997 4.96H14.355L11.9999 8.08498L9.68997 4.95499V4.96ZM11.9999 9.61002L15.51 13.9999L11.9999 18.4349L8.48998 13.9999L11.9999 9.61002ZM7.89498 13.2199L5.11 9.74501L8.70998 5.26499L11.3999 8.82998L7.89498 13.2199ZM16.065 14.745L17.305 16.2649L13.24 18.3099L16.065 14.745ZM18.9299 9.78993L16.15 13.265L12.64 8.82998L15.34 5.26499L18.9299 9.78993ZM7.33498 13.9199L6.22499 15.31L5.36999 11.4399L7.33498 13.9199Z" fill="white"/>
</g>
<defs>
<clipPath id="clip0_328_40444">
<rect width="24" height="24" fill="white"/>
</clipPath>
</defs>
</svg>
