<svg width="24" height="24" viewBox="0 0 24 24" fill="none" xmlns="http://www.w3.org/2000/svg">
<g clip-path="url(#clip0_328_37234)">
<path d="M24 0H0V24H24V0Z" fill="#0A3ADB"/>
<path d="M14.052 15.2577C14.5803 15.8954 15.1275 16.5551 14.5306 17.2959C14.3385 17.5343 14.1191 17.6865 13.9249 17.8204C13.5065 18.1118 13.2288 18.3034 13.3525 19.2497L12.844 19.3154C12.6796 18.0626 13.1636 17.7278 13.6321 17.4035C13.8131 17.2775 13.9843 17.1591 14.1298 16.9782C14.4393 16.5945 14.2563 16.3059 13.6555 15.5805C13.5358 15.4381 13.4191 15.2937 13.3053 15.1472C13.0989 14.8797 13.0236 14.5828 13.0884 14.2905C13.1564 13.985 13.3597 13.734 13.564 13.5482C12.6192 12.9371 12.6022 11.9183 12.6022 11.9043H12.8586L13.1155 11.9028C13.1165 11.9501 13.1402 12.7779 14.0203 13.2197L14.0835 13.2509C14.3803 13.3876 14.7715 13.4795 15.2803 13.4897C17.3999 13.4461 17.4438 11.9666 17.4442 11.9028L17.9574 11.9043C17.9574 11.9092 17.955 12.0484 17.9063 12.2527C18.1515 12.2433 18.6084 12.1617 18.7742 12.0702C18.6799 11.7339 18.0731 10.6264 17.5157 9.71031L17.6705 9.33231L17.7288 9.31619C17.6412 8.92023 17.467 8.1253 17.3805 7.60087C15.4209 7.3051 14.0077 7.53034 13.1797 8.27271C12.3805 8.99075 12.4285 9.94125 12.4305 9.9822L12.1459 10.0002L11.9188 10.0192C11.9076 9.88827 11.8156 9.75057 11.7042 9.69907C11.6025 9.65185 11.4858 9.67479 11.3563 9.7653C11.1565 9.90582 11.085 10.0835 11.1327 10.3257C11.2143 10.7498 11.6415 11.2154 11.9708 11.4149C12.0204 11.3843 12.057 11.3653 12.072 11.3565L12.1464 11.4976C12.1565 11.5005 12.1689 11.539 12.1689 11.539L12.1916 11.5822L12.3123 11.807C12.2263 11.8544 12.1438 11.908 12.0656 11.9675C12.0656 11.9675 12.0399 11.9966 12.0316 11.9943C11.8487 12.1378 11.6526 12.3407 11.6049 12.5577C11.5733 12.7036 11.6137 12.8461 11.7285 12.9955C11.8414 13.1414 11.9562 13.2805 12.0672 13.4148C12.5958 14.0531 13.1428 14.7133 12.5462 15.4541C12.3546 15.6925 12.1348 15.8447 11.9412 15.9786C11.5219 16.2695 11.2445 16.4611 11.3686 17.407L10.8602 17.4726C10.6957 16.2203 11.1798 15.8851 11.6479 15.5607C11.8284 15.4347 11.9999 15.3164 12.1459 15.1359C12.4543 14.7515 12.2724 14.4642 11.6711 13.7382C11.5572 13.6005 11.4396 13.4587 11.3209 13.3043C11.1141 13.0368 11.0396 12.74 11.1039 12.4476C11.1671 12.1607 11.352 11.9208 11.5436 11.7393C11.1277 11.431 10.7235 10.9134 10.6287 10.4221C10.5429 9.98558 10.6966 9.60474 11.0611 9.34877C11.3433 9.15126 11.6488 9.11188 11.9207 9.23697C11.9488 9.25002 11.9756 9.26614 12.0021 9.28214C12.1335 8.75029 12.421 8.26986 12.8274 7.9025C13.7702 7.05018 15.3201 6.77872 17.4325 7.09349C17.9054 6.49706 18.1098 5.61166 17.2978 4.86249C16.552 4.17606 15.2473 3.9732 14.3522 4.82453L13.924 4.69319C13.7733 3.98341 12.9321 3.63071 12.1956 3.53779C11.0815 3.39671 9.62692 3.75477 9.06747 4.87415C8.32315 6.35841 9.28005 7.10857 9.32093 7.13969L9.15309 7.59747C8.0512 7.53765 7.31128 7.71715 6.95176 8.13066C6.48717 8.66482 6.67592 9.5809 6.82772 10.3173C6.95467 10.9337 7.05538 11.4206 6.80679 11.7098C6.52463 12.0385 6.18556 12.1573 5.87421 12.1573C5.67864 12.1573 5.48647 12.1119 5.31184 12.0259C4.874 11.807 4.63126 11.3828 4.72125 10.9936L5.22134 11.1084C5.18535 11.2621 5.32351 11.4611 5.54341 11.5705C5.65918 11.629 6.06636 11.7869 6.41663 11.3793C6.50224 11.2797 6.39571 10.7615 6.32517 10.4195C6.15102 9.5741 5.93404 8.52227 6.56355 7.79742C6.96393 7.33721 7.6343 7.09981 8.60434 7.07793C8.30368 6.60602 8.0371 5.78582 8.60775 4.64745C9.27958 3.30623 10.972 2.86985 12.2608 3.03234C13.2366 3.15591 13.9776 3.5952 14.2932 4.21304C15.3814 3.44342 16.8055 3.7139 17.6471 4.48935C18.3145 5.10426 18.7577 6.22024 17.865 7.3737C17.9565 8.01585 18.2815 9.42857 18.285 9.44322L18.1189 9.71655C19.447 11.9354 19.324 12.1733 19.2636 12.2905C19.1386 12.5312 18.6788 12.6701 18.2698 12.7254C18.7534 13.0436 19.2223 13.5948 19.1892 14.4307C19.1635 15.0863 18.6614 15.6156 18.1773 16.128C17.5268 16.8139 17.1469 17.2624 17.5045 17.8015L17.0764 18.0811C16.4775 17.1792 17.182 16.4354 17.8032 15.7791C18.2236 15.335 18.6585 14.8762 18.6765 14.4107C18.7134 13.4795 17.9142 13.0776 17.6023 12.9556C17.2691 13.4547 16.6231 13.951 15.3742 13.9967V14.0015C15.3421 14.0015 15.3125 13.999 15.2803 13.9986C15.2482 13.9996 15.2187 14.0015 15.1865 14.0015V13.9967C14.7412 13.9807 14.3731 13.9071 14.0685 13.7967C13.8724 13.9416 13.6414 14.162 13.5898 14.4C13.5577 14.545 13.5981 14.689 13.7134 14.8378C13.8258 14.9846 13.9411 15.1239 14.052 15.2577ZM10.36 6.29809L10.7551 6.62306C10.5133 6.913 10.6519 7.16208 10.7229 7.25694C10.8382 7.41067 11.0548 7.52256 11.2454 7.44131C11.5699 7.30364 11.6185 7.23164 11.8915 6.83467C12.106 6.51797 12.3324 6.20809 12.5686 5.90648C12.903 5.47692 13.2871 5.25069 13.7105 5.23415C14.3866 5.20885 14.8868 5.7435 14.9073 5.76685L14.5278 6.10982C14.5243 6.10593 14.163 5.72452 13.7279 5.7435C13.4648 5.75469 13.2109 5.91377 12.9738 6.21732C12.745 6.51151 12.5254 6.81296 12.3157 7.12122C12.0286 7.5391 11.91 7.71228 11.4489 7.9093C11.3418 7.95503 11.226 7.97839 11.1093 7.97839C10.8125 7.97839 10.5133 7.82903 10.3114 7.56149C10.0215 7.17715 10.0399 6.68094 10.36 6.29809ZM15.9513 16.9418C16.4796 17.5796 17.0263 18.2408 16.4294 18.9806C16.2382 19.219 16.0188 19.3708 15.8253 19.5054C15.4048 19.796 15.1281 19.9877 15.2521 20.9344L14.7422 21C14.5783 19.7469 15.0628 19.4122 15.5304 19.0877C15.7114 18.9622 15.8826 18.8435 16.0285 18.6625C16.3375 18.2791 16.1551 17.9911 15.5547 17.2648C15.4351 17.1226 15.3182 16.9778 15.2044 16.831C14.9973 16.5632 14.9223 16.2666 14.987 15.9746C15.1281 15.3345 15.8705 14.9287 15.9551 14.8839L16.1954 15.3345C16.0251 15.425 15.564 15.7357 15.4885 16.0836C15.4564 16.2296 15.4968 16.3725 15.6116 16.5219C15.7245 16.6689 15.8397 16.8076 15.9513 16.9418ZM10.6602 8.84918C9.14628 8.79325 8.35575 9.11675 8.30807 9.81042C8.28861 10.0877 8.31196 10.4138 8.33725 10.7596C8.39904 11.6031 8.4691 12.5596 7.8936 13.1287C7.57932 13.4406 7.12153 13.5938 6.5008 13.5938C6.39561 13.5937 6.29046 13.5899 6.18556 13.5822L6.22302 13.0743C6.8496 13.1204 7.27674 13.0208 7.53067 12.7688C7.9403 12.3635 7.88143 11.5671 7.825 10.7966C7.79872 10.4328 7.77392 10.0892 7.7958 9.77543C7.84446 9.07396 8.38396 8.25569 10.6782 8.34033L10.6602 8.84918ZM16.9032 9.71507C16.8949 9.7035 16.7095 9.42517 16.1968 9.42517C15.7177 9.42517 15.0429 9.88872 14.823 10.0673L14.5165 9.69612C14.5545 9.66547 15.4486 8.94552 16.1974 8.94552C16.9966 8.94552 17.3046 9.44663 17.3167 9.46752L17.1085 9.59011L16.9032 9.71507ZM16.0568 10.1822C16.0568 10.0167 16.21 9.88298 16.3988 9.88298C16.5876 9.88298 16.7412 10.0173 16.7412 10.1827C16.7412 10.3481 16.5876 10.4819 16.3988 10.4819C16.21 10.4819 16.0568 10.3472 16.0568 10.1822Z" fill="white"/>
</g>
<defs>
<clipPath id="clip0_328_37234">
<rect width="24" height="24" fill="white"/>
</clipPath>
</defs>
</svg>
