<svg width="24" height="24" viewBox="0 0 24 24" fill="none" xmlns="http://www.w3.org/2000/svg">
<g clip-path="url(#clip0_328_30143)">
<path d="M24 0H0V24H24V0Z" fill="#3F4B80"/>
<path d="M20 7.99122L19.9656 7.44882L19.8056 7.90002L18.9199 8.68881L17.8911 8.84281L17.5884 8.55721L18.48 7.30002L19.3999 7.02002L18.4116 7.04282L16.9716 8.10002L15.6572 8.00282L15.6056 7.96882L13.7144 7.02002L12.5944 7.24882L9.09119 10.1972L7.4172 10.7399L6.7144 11.5552H5.4744L4.8684 12.6311L4 12.8775L4.81119 13.0032L5.5772 11.9691L6.7372 12.2032L6.7256 13.3176L6.1428 14.9063L5.79999 16.3864L5.44 16.9804L6.35439 16.7803L6.2516 16.1631L7.02839 14.5403L8.53119 13.9347L9.10318 12.9631L10.0856 12.2431L12.0228 12.5347L13.9828 11.6604L13.64 13.1552H12.7828L12.5312 14.2488L13.2744 13.7399L14.5028 13.2028L15.6 11.6716V10.9343L16.0571 11.4887L17.5544 12.4372L18.4112 12.0316L18.3543 10.0144L18.12 9.22602L19.2344 8.94001L20 7.99122Z" fill="white"/>
</g>
<defs>
<clipPath id="clip0_328_30143">
<rect width="24" height="24" fill="white"/>
</clipPath>
</defs>
</svg>
