<svg width="24" height="24" viewBox="0 0 24 24" fill="none" xmlns="http://www.w3.org/2000/svg">
<g clip-path="url(#clip0_328_54770)">
<path d="M24 0H0V24H24V0Z" fill="#3840C7"/>
<path fill-rule="evenodd" clip-rule="evenodd" d="M14.6408 6.35551C14.5271 6.24229 14.3923 6.1526 14.2441 6.09159C14.0956 6.03058 13.9367 5.99947 13.7763 6.00001H13.7732C13.6126 5.99993 13.4536 6.0317 13.3053 6.0935C13.1568 6.15529 13.0223 6.24587 12.9093 6.36001L3.35701 15.9203C3.24329 16.0333 3.15316 16.1679 3.09187 16.3162C3.03059 16.4644 2.99937 16.6233 3.00001 16.7837C3.00101 17.1093 3.129 17.4153 3.36102 17.6453C3.47434 17.7585 3.60892 17.8482 3.75703 17.9093C3.90515 17.9703 4.06387 18.0013 4.22404 18.0009C4.55206 18.0009 4.86106 17.8727 5.09256 17.6418L14.6443 8.08004C14.8725 7.8508 15.0004 7.5403 14.9998 7.21681C14.9992 6.89332 14.87 6.58382 14.6408 6.35551Z" fill="white"/>
<path fill-rule="evenodd" clip-rule="evenodd" d="M20.241 6.09342C20.0164 6.00044 19.7692 5.97618 19.5309 6.02372C19.2924 6.07124 19.0733 6.18842 18.9014 6.36043L9.31828 15.9202C9.08828 16.1502 8.99877 16.4602 8.99976 16.7837C9.00078 17.1072 9.09178 17.4167 9.32278 17.6453C9.55461 17.8734 9.86725 18.0012 10.1926 18.0002C10.518 17.9993 10.8298 17.8698 11.0602 17.6403L18.5 10.1755V16.7807C18.5 17.1041 18.673 17.4142 18.903 17.6427C19.1341 17.8716 19.4463 18.0001 19.7715 18.0001C20.0968 18.0001 20.409 17.8716 20.64 17.6427C20.8701 17.4142 21 17.1041 21 16.7807V7.22096C21.0007 6.97921 20.9287 6.74287 20.7936 6.54244C20.6582 6.34124 20.4657 6.18494 20.241 6.09342Z" fill="white"/>
</g>
<defs>
<clipPath id="clip0_328_54770">
<rect width="24" height="24" fill="white"/>
</clipPath>
</defs>
</svg>
