<svg width="24" height="24" viewBox="0 0 24 24" fill="none" xmlns="http://www.w3.org/2000/svg">
<g clip-path="url(#clip0_328_54868)">
<path d="M24 0H0V24H24V0Z" fill="#181B1E"/>
<path d="M5.84961 16.0254L14.9395 4.27539L15.7296 4.8904L6.64461 16.6404L5.85461 16.0254H5.84961Z" fill="white"/>
<path d="M19.5247 10.3195L9.53477 12.5195L4.2998 10.2996L4.6898 9.37959L9.62479 11.4796L19.3047 9.34961L19.5197 10.3246L19.5247 10.3195Z" fill="white"/>
<path d="M11.5098 19.3095L14.6798 4.55957L15.6548 4.76957L12.4898 19.5195L11.5098 19.3095Z" fill="white"/>
<path fill-rule="evenodd" clip-rule="evenodd" d="M8.90998 4.99999L5.07999 9.98499L6.45498 16.0699L12.005 18.88L17.6249 16.0699L18.9249 9.99993L15.015 4.99999H8.90998ZM15.4999 4H8.41498L4 9.75002L5.58499 16.75L11.9999 20L18.4999 16.75L20 9.75002L15.4999 4Z" fill="white"/>
<path d="M17.6104 16.7252L8.27539 4.90027L9.0604 4.28027L18.3953 16.1001L17.6104 16.7201V16.7252Z" fill="white"/>
</g>
<defs>
<clipPath id="clip0_328_54868">
<rect width="24" height="24" fill="white"/>
</clipPath>
</defs>
</svg>
