<svg width="24" height="24" viewBox="0 0 24 24" fill="none" xmlns="http://www.w3.org/2000/svg">
<g clip-path="url(#clip0_328_54924)">
<path d="M24 0H0V24H24V0Z" fill="white"/>
<path fill-rule="evenodd" clip-rule="evenodd" d="M18.5127 4.53844L19.0021 5.65774C18.9909 5.68586 18.9909 5.70273 18.9965 5.71399C19.1202 6.05145 19.2607 6.38331 19.4126 6.69828L19.587 7.00764C19.6194 7.06539 19.6584 7.12255 19.6975 7.1801C19.7803 7.30183 19.864 7.42514 19.8907 7.55884C19.9581 7.90757 19.812 8.13254 19.4576 8.24504C19.451 8.24682 19.4448 8.25034 19.4397 8.25529C19.4348 8.26023 19.4312 8.2664 19.4295 8.27317C19.4278 8.27885 19.4276 8.28483 19.4285 8.29067C19.4294 8.29651 19.4317 8.30207 19.4352 8.30691C19.8758 8.90468 20.1449 9.61138 20.2132 10.3509C20.2816 11.0904 20.1468 11.8345 19.8232 12.5029C19.3071 13.4888 18.4865 14.2819 17.4834 14.7638C17.3909 14.8041 17.3012 14.8501 17.2126 14.8957C17.1771 14.9139 17.1418 14.9318 17.1066 14.9496C17.084 14.9607 17.0728 14.9776 17.0728 15.0057L17.1123 15.9001C17.1123 15.9282 17.1235 15.9396 17.1516 15.9282L17.191 15.917C17.1726 15.9417 17.161 15.9707 17.1573 16.0013C17.1123 16.0463 17.0952 16.1588 17.1066 16.3276L17.1234 16.8562C17.1234 17.5762 17.084 18.2962 17.011 19.0105C16.9834 19.5804 16.8257 20.1364 16.5498 20.6359C16.5495 20.6425 16.551 20.649 16.5539 20.655C16.5568 20.6609 16.5611 20.666 16.5667 20.6696L16.5891 20.6754H18.5747C18.6477 20.6754 18.6927 20.7146 18.7096 20.7878V20.8046C18.7265 20.8947 18.6645 20.9959 18.5577 20.9959H7.07797C7.07797 20.9959 6.9486 20.9509 6.9486 20.861V20.8046C6.9486 20.7146 6.98797 20.6754 7.07235 20.6754H7.82603C7.83433 20.6678 7.8402 20.6582 7.84292 20.6472C7.84784 20.6387 7.85044 20.629 7.85044 20.6191C7.85044 20.6092 7.84784 20.5995 7.84292 20.5909C7.67418 20.3604 7.57855 20.0847 7.53355 19.781C7.39993 18.8651 7.3566 17.9381 7.40419 17.0137C7.40952 16.9575 7.39346 16.9012 7.3592 16.8562L7.50544 15.872C7.50544 15.8438 7.49419 15.8268 7.46606 15.8157C7.27296 15.7641 7.10512 15.644 6.9936 15.4782C6.94055 15.3987 6.87125 15.3416 6.8028 15.2853C6.72608 15.2222 6.65042 15.1598 6.59988 15.0677C6.49508 14.8916 6.44163 14.6898 6.44561 14.4852C6.44957 14.2804 6.51081 14.0807 6.62238 13.909C6.63498 13.8876 6.65498 13.8715 6.67863 13.864C6.77986 13.8246 6.83048 13.8752 6.83048 14.0103C6.83048 14.0497 6.81923 14.0891 6.79675 14.1172C6.65612 14.3308 6.63362 14.567 6.73486 14.8258C6.77423 14.927 6.80799 14.927 6.83611 14.8201C6.87548 14.6683 6.95422 14.5052 7.11734 14.4827C7.23545 14.4658 7.32544 14.5164 7.38733 14.6346C7.51105 14.882 7.46044 15.1127 7.24109 15.3207L7.23545 15.332C7.2325 15.3371 7.23094 15.3429 7.23094 15.3489C7.23094 15.3548 7.2325 15.3605 7.23545 15.3657L7.2467 15.3771L7.53355 15.5345C7.54216 15.5401 7.55244 15.5427 7.56267 15.5415C7.57292 15.5405 7.58248 15.536 7.5898 15.5288L7.59543 15.5063C7.77542 14.8314 8.07351 14.2859 8.50098 13.8752C8.52348 13.8528 8.52348 13.8302 8.50098 13.8078C7.68471 13.0261 7.20631 11.9563 7.16796 10.8267C7.16406 10.8254 7.1599 10.8254 7.15594 10.8263C7.15196 10.8275 7.14835 10.8295 7.14546 10.8323C7.10767 10.8583 7.07677 10.8931 7.05547 10.9337C6.88674 11.2654 6.65051 11.4959 6.35802 11.6197C5.3456 12.0584 4.78315 10.5343 5.60995 10.028C5.62065 10.0217 5.62866 10.0116 5.63244 9.9998C5.63591 9.989 5.63591 9.97719 5.63244 9.96617C5.50871 9.70181 5.46371 9.47122 5.51996 9.16185C5.55934 8.90874 5.72807 8.74 6.01492 8.66688C6.0318 8.72312 6.12742 8.72312 6.29616 8.64438L6.39177 8.62752C6.48177 8.62752 6.54926 8.58251 6.58862 8.50377C6.79675 8.31815 7.02735 8.21128 7.28045 8.17754C7.39294 8.20004 7.50544 8.24504 7.60668 8.31253H7.62918L7.64605 8.29003V8.27878C7.59727 8.23883 7.53927 8.21177 7.47731 8.20003C7.45492 8.19309 7.43525 8.17932 7.42106 8.16067L7.37045 8.10442C7.13422 7.86257 7.11172 7.59821 7.30858 7.30574C7.5673 6.92327 7.75854 6.57453 7.88228 6.25395L8.40537 4.92655C8.57973 4.48783 8.8441 3.98724 9.25468 3.751C9.76091 3.46978 10.3797 3.46978 10.8689 3.80725C10.8861 3.81712 10.9054 3.82232 10.9253 3.82232C10.9449 3.82232 10.9643 3.81712 10.9814 3.80725C12.0218 3.12578 13.2895 2.88318 14.5081 3.1323C14.5981 3.14917 14.6656 3.12105 14.7217 3.04793C14.7305 3.03657 14.7415 3.02719 14.7541 3.0204C14.7667 3.01362 14.7807 3.00958 14.7949 3.00856C15.3348 2.96356 15.8917 3.25042 16.2798 3.63851C16.3022 3.65539 16.3248 3.67225 16.3528 3.67789C16.3753 3.67789 16.4092 3.67789 16.426 3.66664C17.3035 3.31791 18.1022 3.69475 18.5071 4.53844H18.5127ZM15.4362 20.6642H12.6802C12.6774 20.6624 12.675 20.6602 12.6732 20.6576C12.6713 20.6548 12.67 20.6519 12.6695 20.6485C12.669 20.6453 12.669 20.6422 12.67 20.639L12.6722 20.6339L12.6744 20.6305C12.7869 20.456 12.8714 20.2761 12.9388 20.0905C12.9444 20.068 12.9614 20.0567 12.9838 20.0567C13.7018 20.1023 14.4202 19.9791 15.0818 19.6967C15.1212 19.6799 15.1382 19.6967 15.1493 19.7362C15.2056 20.0511 15.3068 20.3435 15.4643 20.608C15.4868 20.6417 15.4812 20.6642 15.4362 20.6642ZM9.29975 20.608C9.4685 20.3942 9.58098 20.141 9.60348 19.8655C9.60348 19.8374 9.62036 19.826 9.64848 19.8317C10.1828 19.9724 10.7397 20.0455 11.3246 20.0511C11.3357 20.0496 11.3469 20.0516 11.357 20.0565C11.3671 20.0617 11.3753 20.0694 11.3808 20.0792L11.662 20.6417L11.6678 20.6474V20.6529L11.662 20.6585H11.6565L9.32788 20.6642C9.28289 20.6642 9.27164 20.6474 9.30539 20.608H9.29975ZM7.06693 15.0512C7.02755 15.0285 7.01631 14.9498 7.05005 14.8824C7.0838 14.8093 7.14568 14.7643 7.18504 14.7868C7.23004 14.8093 7.23566 14.8824 7.20191 14.9555C7.17379 15.0285 7.11193 15.068 7.06693 15.0512Z" fill="#5A1826"/>
<path d="M11.8355 8.04928C11.4433 7.98142 11.0412 7.99482 10.6543 8.08865C10.3001 8.16739 10.0356 8.06615 9.84994 7.78492C9.84218 7.77397 9.83205 7.76481 9.82047 7.75803C9.80877 7.75124 9.79583 7.74699 9.78244 7.74555C9.76804 7.74352 9.75342 7.74501 9.73966 7.74992C9.72594 7.75481 9.71361 7.76297 9.70376 7.77368L9.60813 7.87493C9.59126 7.89179 9.58001 7.89179 9.55751 7.88054L9.54063 7.86367H9.52938C9.51813 7.86367 9.50688 7.87493 9.50688 7.88618C9.50688 7.90303 9.50688 7.90867 9.49001 7.90303C9.47876 7.90303 9.47314 7.89179 9.47314 7.86929L9.72625 7.56557C9.74876 7.54307 9.77682 7.52057 9.81057 7.51495C10.9467 7.27309 12.1505 6.77812 12.9379 5.88381C13.6297 5.09637 14.2596 4.2527 14.8221 3.35276C14.8339 3.33291 14.8517 3.31721 14.8727 3.30777C14.8896 3.30213 14.9121 3.29651 14.929 3.30213C15.4183 3.37526 15.8289 3.57212 16.1608 3.90396C16.172 3.92084 16.1776 3.93772 16.1608 3.96021C15.3909 5.23175 14.3937 6.35089 13.2191 7.26184C12.8817 7.52058 12.4261 7.7793 11.8355 8.04928Z" fill="#F0F3FA"/>
<path d="M14.092 3.98733C14.0785 3.98379 14.0662 3.97672 14.0565 3.96683C14.0466 3.95694 14.0395 3.94459 14.0359 3.93108C14.0246 3.90859 14.0359 3.88608 14.0584 3.87483L14.0754 3.85797C14.0961 3.84465 14.1118 3.82489 14.1204 3.80172C14.1289 3.77981 14.131 3.75578 14.126 3.73273C14.1209 3.70967 14.1091 3.68864 14.092 3.67235C14.0733 3.65573 14.0496 3.64584 14.0246 3.64423C13.191 3.49856 12.3328 3.60633 11.5612 3.95358C11.4825 3.98733 11.4261 3.97046 11.3867 3.91421C12.3299 3.42124 13.41 3.25508 14.4577 3.44174V3.46986L14.092 3.98733Z" fill="#FFF9FC"/>
<path d="M14.0914 3.98745C13.8889 4.27993 13.5177 4.75803 12.989 5.41048C12.5145 5.99825 11.8992 6.45676 11.2004 6.7435C10.7674 6.92349 10.3454 7.06973 9.94048 7.16535C9.91517 7.17161 9.88862 7.17073 9.86375 7.16279C9.83889 7.15483 9.81684 7.14015 9.79985 7.12035C9.79209 7.11015 9.78174 7.10218 9.76982 7.09724C9.75801 7.0923 9.74508 7.09058 9.73234 7.09223C9.7206 7.09412 9.70945 7.09864 9.69972 7.10546C9.68998 7.11227 9.6819 7.12121 9.67609 7.1316C9.50737 7.44095 9.28238 7.69406 9.00116 7.89091L8.6918 7.76718C8.5865 7.73295 8.49033 7.67526 8.41058 7.59844C8.11809 7.26095 8.2531 6.89536 8.50057 6.58039C8.63555 6.41165 8.72555 6.23167 8.78742 6.05167C8.93928 5.56795 9.05739 5.21924 9.13614 5.01114C9.27676 4.65116 9.53549 4.35306 9.9236 4.12244C9.96298 4.09995 10.0024 4.0662 10.036 4.01558C10.0586 3.99308 10.0586 3.97058 10.036 3.95371C10.0249 3.94246 10.0249 3.93121 10.0304 3.92558C10.0328 3.91361 10.039 3.90273 10.0483 3.89462C10.0573 3.8865 10.0688 3.88157 10.0811 3.88059L10.1597 3.86372C10.4635 3.89747 10.7336 4.02121 10.9641 4.23494L10.9922 4.25744C11.0045 4.25975 11.0171 4.25889 11.0288 4.25496C11.0407 4.25102 11.0513 4.24413 11.0597 4.23494C11.0694 4.2276 11.0772 4.21792 11.0824 4.20682C11.1216 4.0662 11.2229 3.97058 11.386 3.91433C11.4254 3.97058 11.4816 3.98746 11.5547 3.95371C12.0215 3.75685 12.466 3.64436 12.8821 3.61061C13.2628 3.58269 13.6454 3.59401 14.0239 3.64436C14.0415 3.64666 14.0582 3.65288 14.073 3.66254C14.0879 3.6722 14.1003 3.68506 14.1095 3.70016C14.1186 3.71528 14.1243 3.73226 14.126 3.74987C14.1278 3.76746 14.1257 3.78524 14.1195 3.80185C14.1111 3.82503 14.0953 3.84478 14.0745 3.8581L14.0576 3.86934C14.0295 3.8862 14.0239 3.90872 14.0352 3.93121C14.0464 3.95933 14.0633 3.98183 14.0914 3.98745Z" fill="#FFCCD2"/>
<path d="M10.1599 3.86386L10.0811 3.88075C10.0679 3.88048 10.0551 3.88483 10.0449 3.89306C10.0345 3.90129 10.0276 3.91285 10.0249 3.92574C10.0249 3.93136 10.0249 3.94261 10.0361 3.95386C10.0586 3.97074 10.0586 3.99324 10.0361 4.01574C10.0052 4.05933 9.96714 4.09737 9.9236 4.12823C9.53551 4.35322 9.27678 4.65132 9.13616 5.01128C9.05741 5.2194 8.9393 5.56811 8.78744 6.05183C8.73119 6.23182 8.63557 6.4118 8.50059 6.58054C8.25312 6.89552 8.11811 7.26674 8.41622 7.59296C8.47247 7.66046 8.56808 7.71671 8.69744 7.7617L9.00118 7.89105C8.66369 8.11605 8.30374 8.16667 7.91563 8.04293C7.75252 7.99232 7.57815 7.93607 7.44879 7.81795C7.41532 7.78686 7.39408 7.7448 7.38892 7.69941C7.38375 7.65402 7.39502 7.60827 7.42066 7.57047C7.99436 6.76615 8.2756 5.8381 8.64119 4.95503C8.92243 4.26884 9.3724 3.78512 10.1599 3.86386Z" fill="#F5ACB6"/>
<path d="M19.4918 7.9028L19.5143 7.67784C19.5158 7.66475 19.5144 7.65151 19.5107 7.63892C19.5068 7.62633 19.5004 7.6147 19.4918 7.60471C19.2452 7.33285 19.0405 7.02574 18.8843 6.69354C18.71 6.29982 18.5356 5.88922 18.3613 5.46175C18.0518 4.68556 17.5512 4.06685 16.6402 4.29185C16.4544 4.33684 16.3027 4.43245 16.1902 4.57307C16.1902 4.57869 16.1902 4.58431 16.1789 4.58994C16.1732 4.59209 16.1672 4.59272 16.1613 4.59173C16.1554 4.59073 16.1497 4.58818 16.1452 4.58431L16.1339 4.56745C16.1285 4.54337 16.1285 4.5184 16.1339 4.49432C16.2464 4.32559 16.4152 3.9656 16.6232 3.92062C17.5794 3.69564 18.1193 4.16248 18.4456 4.99491C18.7831 5.8386 19.0643 6.73852 19.5931 7.48097C19.7223 7.66096 19.7056 7.8072 19.4918 7.9028Z" fill="#FFF9FC"/>
<path d="M19.4923 7.90188C19.2428 8.05822 18.9485 8.12753 18.6555 8.09903C18.3624 8.07056 18.0871 7.94585 17.8724 7.74439C17.7375 7.6319 17.58 7.4238 17.3944 7.13695C17.3662 7.09194 17.3269 7.0807 17.2819 7.10882C17.2632 7.11711 17.2475 7.13085 17.2369 7.14819C17.218 7.17856 17.2077 7.21364 17.2077 7.24944C17.2077 7.28523 17.218 7.32031 17.2369 7.35067C17.6081 8.00314 18.1817 8.48684 18.9524 8.40809C18.9244 8.45309 18.9298 8.48122 18.9524 8.49246C19.0141 8.50934 19.0648 8.54871 19.0929 8.59933C19.6937 9.47294 19.9318 10.5459 19.7566 11.5916L19.6048 11.901C19.6006 11.9085 19.5994 11.9173 19.6015 11.9257C19.6035 11.9341 19.6088 11.9413 19.616 11.9458H19.633C19.6498 11.9516 19.661 11.9628 19.6667 11.9742C19.6723 11.9966 19.6891 12.0078 19.7117 12.0022C19.7229 12.0022 19.7398 12.0022 19.751 12.0135C18.7835 14.3646 16.0107 15.3207 13.7496 15.3712C13.4233 15.3882 13.1759 15.3151 12.8722 15.2925C12.6922 15.2757 12.5347 15.2476 12.3886 15.2083C12.0116 15.0957 11.6573 14.9775 11.3311 14.854C10.8531 14.6739 10.3973 14.4433 9.96993 14.179C9.34253 13.7442 8.84657 13.1455 8.53612 12.4483C8.22567 11.751 8.11266 10.9819 8.2094 10.2248C8.2319 10.0843 8.28815 9.88743 8.37813 9.6568C8.45125 9.47675 8.52437 9.28553 8.58624 9.0943C9.69429 9.05492 10.7348 8.83556 11.7247 8.43622C13.5415 7.70502 15.0432 6.15265 16.1288 4.49903V4.56652L16.1456 4.58338L16.1626 4.58902C16.1686 4.59047 16.1751 4.59019 16.1809 4.5882C16.187 4.5862 16.1923 4.58259 16.1963 4.57777C16.3088 4.43153 16.455 4.3359 16.6462 4.29091C17.5462 4.06593 18.0525 4.68463 18.3619 5.46082C18.5306 5.88829 18.7105 6.29889 18.8849 6.69261C19.0141 6.98507 19.2167 7.28319 19.4923 7.60378C19.5092 7.62065 19.5149 7.64315 19.5149 7.67128L19.4923 7.90188Z" fill="#FFCCD2"/>
<path d="M6.2908 8.64498C6.12208 8.7181 6.03237 8.72929 6.01549 8.66743C5.59801 8.38915 5.21939 8.05627 4.89029 7.67756C4.3133 6.98542 3.81875 6.22852 3.41665 5.4221C3.3604 5.30961 3.31542 5.31525 3.27041 5.42772C3.21418 6.28828 3.11293 7.56506 3.21418 8.39187C3.25917 8.79123 3.34916 9.19056 3.48978 9.58987C3.5404 9.73056 3.60226 9.86544 3.69226 9.98356C3.72038 10.0286 3.70913 10.0456 3.65851 10.0512C3.21979 10.0849 3.11293 10.4279 3.23667 10.8217C3.51788 11.7103 4.22659 12.2447 4.92404 12.7791C4.93528 12.7846 4.93528 12.7903 4.92967 12.8016L4.92404 12.8183C4.91279 12.8353 4.90154 12.8409 4.87904 12.8353C4.47969 12.6497 4.11972 12.6384 3.79912 12.8016C3.46166 12.9758 3.73163 13.3978 3.89475 13.5833C4.18159 13.9096 4.51345 14.1346 4.87342 14.2583C4.99717 14.3202 5.10964 14.3428 5.21652 14.3371C5.26152 14.3088 5.329 14.3482 5.43025 14.4495L5.4415 14.4663C5.44462 14.4738 5.44575 14.4818 5.44477 14.4897C5.44379 14.4976 5.44071 14.505 5.43587 14.5113L5.419 14.5227C5.19402 14.607 4.87904 14.7926 4.99717 15.0907C5.13777 15.4395 5.4415 15.5687 5.72835 15.7657C6.02645 15.9795 6.60578 16.0525 6.96576 15.9907H6.99388C6.99951 16.0019 7.00513 16.0075 6.99951 16.0245C6.99646 16.0381 6.98844 16.0501 6.97701 16.0582C6.86451 16.1426 6.54953 16.3845 6.72953 16.5587C6.85889 16.6825 7.03887 16.7445 7.21323 16.7837C7.24698 16.7837 7.26386 16.8062 7.26948 16.84C7.26725 16.8747 7.25966 16.9088 7.24698 16.9412C7.05012 16.9524 6.87014 16.885 6.70141 16.7499C6.54953 16.6207 6.50454 16.4688 6.57766 16.2775C6.58267 16.267 6.58526 16.2554 6.58526 16.2437C6.58526 16.232 6.58267 16.2206 6.57766 16.21C6.57222 16.1994 6.56426 16.1902 6.55444 16.1833C6.54464 16.1765 6.5333 16.1721 6.52142 16.1707C6.04514 16.1176 5.59318 15.9326 5.21652 15.6363C4.91279 15.3945 4.69343 14.9895 4.94654 14.6238C4.95335 14.6143 4.95793 14.6033 4.95991 14.5917C4.96189 14.58 4.96125 14.568 4.95799 14.5568C4.95475 14.5453 4.94902 14.535 4.94119 14.5261C4.93336 14.5173 4.92365 14.5103 4.91279 14.5057C4.32784 14.247 3.80476 13.8983 3.55726 13.2966C3.38852 12.8971 3.66976 12.5091 4.06348 12.5034C4.17596 12.5034 4.19284 12.4583 4.10846 12.3741C3.78986 12.068 3.51709 11.7175 3.29853 11.3336C3.07355 10.9228 2.83732 10.2031 3.39977 9.91618C3.40772 9.91213 3.41479 9.9065 3.42059 9.89986C3.42638 9.893 3.43076 9.88513 3.43353 9.8768C3.43724 9.8678 3.43915 9.85824 3.43915 9.84868C3.43915 9.839 3.43724 9.82944 3.43353 9.82044C3.19132 9.226 3.05245 8.59446 3.02293 7.95317C2.97794 7.14885 3.00043 6.42891 3.07918 5.78771C3.10168 5.60771 3.15229 5.28149 3.28166 5.1465C3.34916 5.08463 3.40541 5.09026 3.45041 5.17462C4.14784 6.52452 4.98592 7.81818 6.2908 8.64498ZM20.1667 12.0591C20.2229 11.8453 20.3354 11.6091 20.5322 11.3448C20.6447 11.1985 20.7291 10.9792 20.7966 10.6866C20.8697 10.3606 20.7066 10.0961 20.3804 10.0679H20.3635C20.3547 10.0619 20.348 10.0532 20.3441 10.0432C20.3401 10.0332 20.3389 10.0223 20.341 10.0118C20.3972 9.76993 20.476 9.53935 20.5603 9.31431C20.6335 9.11183 20.6897 8.91496 20.7291 8.7181C20.9263 7.6049 20.9186 6.46506 20.7066 5.35462C20.7019 5.34968 20.6961 5.34575 20.6898 5.34307C20.6835 5.34039 20.6769 5.339 20.67 5.339C20.6632 5.339 20.6564 5.34039 20.6501 5.34307C20.6438 5.34575 20.6382 5.34968 20.6335 5.35462C20.2735 5.80458 20.071 6.45141 19.6772 6.9295C19.6211 6.89575 19.5931 6.8395 19.6042 6.76637L20.6167 5.13525C20.6248 5.1211 20.6383 5.1108 20.6542 5.10659C20.6699 5.10236 20.6867 5.10457 20.701 5.11276L20.7178 5.12963C20.8022 5.259 20.8529 5.38836 20.8753 5.52335C21.061 6.72137 21.0385 7.89128 20.8135 9.04433C20.7608 9.3192 20.6717 9.58581 20.5491 9.83743C20.548 9.84958 20.5496 9.86184 20.5534 9.87354C20.5572 9.88501 20.5635 9.89581 20.5717 9.90481L20.5997 9.9218C20.9427 10.0849 20.9935 10.4279 20.9091 10.7879C20.791 11.2717 20.5435 11.6878 20.1667 12.0536V12.0591Z" fill="#76D2E4"/>
<path d="M13.3491 6.62584C13.2647 6.70459 13.1916 6.67084 13.1241 6.53586C13.0735 6.42336 12.9666 6.40648 12.7979 6.46273C12.7736 6.47218 12.7537 6.49018 12.7416 6.51334L12.6066 6.76083C12.5616 6.84521 12.5336 6.83957 12.5336 6.73833C12.511 6.39523 12.6966 6.28275 12.9441 6.11963C12.9535 6.11467 12.964 6.11308 12.9743 6.11513C12.9845 6.11719 12.9938 6.12275 13.0004 6.13088C13.1579 6.28275 13.4054 6.34462 13.3491 6.62584Z" fill="#182A42"/>
<path d="M13.1249 6.53591C13.1923 6.67089 13.2654 6.70464 13.3498 6.6259C13.406 6.90712 13.316 7.09836 13.0743 7.20523C13.0348 7.05899 12.9787 6.98586 12.8999 6.98025L13.1249 6.53027V6.53591Z" fill="#1E82C8"/>
<path d="M19.4136 6.69824L19.6045 6.76579C19.5933 6.8389 19.6215 6.89515 19.6721 6.92328C19.6271 6.94578 19.5993 6.97946 19.5879 7.00758L19.4136 6.69824Z" fill="#FFF9FC"/>
<path d="M12.8986 6.97949C12.9773 6.98511 13.0334 7.05823 13.0728 7.20447C13.0278 7.27195 12.9604 7.30007 12.8703 7.27758C12.8198 7.2607 12.7972 7.23257 12.8142 7.17634C12.8293 7.10589 12.8578 7.03903 12.8986 6.97949Z" fill="#182A42"/>
<path d="M11.8367 8.04779C10.6016 8.59003 9.25813 8.84025 7.91067 8.77898C7.87682 8.64681 7.86729 8.50959 7.88254 8.374L7.89379 8.36839C8.17794 8.44645 8.47868 8.44015 8.75931 8.35028C9.03995 8.26039 9.28838 8.09081 9.47431 7.86216C9.47431 7.89029 9.4743 7.90155 9.49117 7.90155C9.50243 7.90155 9.50804 7.90154 9.50804 7.88467C9.50804 7.87342 9.51929 7.86779 9.53054 7.86216H9.54179L9.55867 7.87905C9.57554 7.8903 9.59242 7.8903 9.60929 7.87905L9.70491 7.77217C9.71477 7.76146 9.7271 7.75331 9.74082 7.74841C9.75455 7.74351 9.76918 7.74201 9.78369 7.74405C9.79708 7.74549 9.81002 7.74975 9.8216 7.75654C9.83319 7.76332 9.84332 7.77248 9.85119 7.78342C10.0367 8.06466 10.3012 8.1659 10.6498 8.08715C11.0661 7.99155 11.4597 7.97467 11.8367 8.04779Z" fill="#FFF9FC"/>
<path d="M19.7497 12.0148C19.7384 12.0035 19.7216 11.9979 19.7104 12.0035C19.6878 12.0035 19.6709 12.0035 19.6654 11.9755C19.6597 11.9642 19.6483 11.9529 19.6317 11.9529L19.6147 11.9472C19.6075 11.9427 19.6022 11.9355 19.6002 11.927C19.598 11.9186 19.5993 11.9098 19.6033 11.9024L19.7552 11.5929C19.9335 10.5461 19.6975 9.471 19.0972 8.59505C19.0631 8.54647 19.0135 8.51079 18.9567 8.4938C18.9284 8.48255 18.9229 8.45443 18.9509 8.40943C19.0072 8.38694 19.0634 8.37569 19.1253 8.38132C19.1366 8.38132 19.1479 8.38132 19.1592 8.39257C19.5707 8.88929 19.8424 9.48674 19.9462 10.1236C20.0501 10.7602 19.9822 11.413 19.7497 12.0148ZM5.82886 9.87741C5.73887 9.64123 5.57576 8.98315 6.02571 9.00564C6.19445 9.01127 6.34069 8.97752 6.46444 8.9044C6.67818 8.77503 7.08315 8.45443 7.33625 8.4938C7.47124 8.51068 7.47687 8.55005 7.35875 8.61754C7.0719 8.78628 6.88629 9.09001 6.72879 9.37686C6.53755 9.73125 6.27883 9.87178 5.87386 9.90553C5.86261 9.90553 5.85137 9.90553 5.84574 9.89439C5.83869 9.89034 5.83286 9.8845 5.82886 9.87741Z" fill="#F0F3FA"/>
<path d="M6.58942 8.50488C6.57206 8.54231 6.54394 8.57397 6.50902 8.59592C6.47408 8.61788 6.43382 8.6292 6.39258 8.62862L6.58942 8.50488Z" fill="#F5ACB6"/>
<path d="M6.31938 10.1241C6.94934 9.95536 6.97746 9.05539 7.59053 8.8529C7.59803 8.85072 7.60605 8.85122 7.61323 8.8543C7.62042 8.85737 7.6263 8.86284 7.6299 8.86979C7.63335 8.87577 7.63518 8.88255 7.63518 8.88948C7.63518 8.89637 7.63335 8.90317 7.6299 8.90915C7.4218 9.32537 7.28119 9.75286 7.21369 10.1972C7.2003 10.2877 7.16346 10.373 7.10682 10.4447L6.69622 10.9846C6.48812 11.2715 6.03253 11.5359 5.71755 11.2996C5.57131 11.1871 5.48131 11.0408 5.45883 10.8496C5.38009 10.2647 5.92565 10.231 6.32502 10.1185L6.31938 10.1241Z" fill="#F0F3FA"/>
<path d="M11.6568 11.1415C11.5444 11.1415 11.4319 11.1134 11.3363 11.0572C11.2351 11.0008 11.1393 10.9166 11.0663 10.8096C10.9858 10.697 10.925 10.5714 10.8864 10.4384C10.8009 10.156 10.8009 9.85468 10.8864 9.57225C10.9258 9.43156 10.9875 9.30786 11.0663 9.20098C11.145 9.09975 11.2351 9.01539 11.3419 8.95914C11.4432 8.90289 11.55 8.86914 11.6625 8.86914C11.7693 8.86914 11.8763 8.90289 11.9775 8.95914C12.0787 9.01539 12.1743 9.09975 12.253 9.20662C12.3262 9.30786 12.388 9.43156 12.433 9.57225C12.5197 9.85637 12.5197 10.1598 12.433 10.4441C12.388 10.579 12.3262 10.7084 12.2474 10.8096C12.1687 10.9166 12.0787 11.0008 11.9775 11.0572C11.8763 11.1134 11.7637 11.1415 11.6568 11.1415ZM16.0103 11.1472C15.8977 11.1472 15.7909 11.1188 15.6897 11.0627C15.5884 11.0065 15.4984 10.9221 15.4197 10.8152C15.3391 10.7026 15.2783 10.577 15.2397 10.4441C15.1787 10.237 15.1632 10.0193 15.1942 9.80563C15.2253 9.59206 15.3022 9.38772 15.4197 9.20662C15.4984 9.09975 15.5884 9.021 15.6954 8.96475C15.7966 8.90852 15.9034 8.87477 16.0159 8.87477C16.1284 8.87477 16.2353 8.90852 16.3364 8.96475C16.4378 9.021 16.5277 9.10538 16.6064 9.21225C16.6852 9.31348 16.7472 9.43721 16.7864 9.57789C16.8467 9.78527 16.8614 10.0033 16.8293 10.2169C16.7972 10.4305 16.7193 10.6346 16.6009 10.8152C16.5277 10.9277 16.4322 11.0065 16.3308 11.0627C16.2297 11.1188 16.1228 11.1528 16.0103 11.1472Z" fill="#672835"/>
<path d="M8.58555 9.09473C8.52368 9.28597 8.45057 9.47718 8.38307 9.65724C8.28744 9.89346 8.23119 10.0847 8.2087 10.2196C7.94998 11.682 8.77116 13.4144 9.9692 14.1737C10.3967 14.4437 10.8523 14.6743 11.3303 14.8544C11.6566 14.978 12.0052 15.0961 12.3878 15.2087C12.534 15.248 12.6915 15.2761 12.8714 15.293C13.1752 15.3155 13.4226 15.3886 13.7489 15.3718C12.5227 15.445 11.3585 15.2199 10.2448 14.6969C8.20307 13.7237 6.61132 11.4908 7.80935 9.12285C7.80935 9.1116 7.82061 9.10598 7.82623 9.10035L7.84873 9.09473H8.58555Z" fill="#F5ACB6"/>
<path d="M11.7175 9.80949C11.7175 10.0345 11.8468 10.2145 12.0043 10.2145C12.1674 10.2145 12.2968 10.0345 12.2968 9.80949C12.2968 9.58445 12.1617 9.41016 12.0043 9.41016C11.8412 9.41016 11.7119 9.5901 11.7119 9.81522L11.7175 9.80949ZM15.4296 9.80949C15.4296 10.0345 15.5591 10.2089 15.7222 10.2089C15.8853 10.2089 16.0146 10.0289 16.0091 9.81522C16.0091 9.5901 15.8796 9.4158 15.7166 9.4158C15.5591 9.4158 15.4296 9.59574 15.4296 9.80949Z" fill="#F0F3FA"/>
<path d="M16.3749 12.9426C16.3749 13.207 16.3074 13.4601 16.1724 13.7021C16.0432 13.9383 15.8519 14.1519 15.6101 14.3433C15.3626 14.5233 15.0757 14.6694 14.7607 14.7708C14.1088 14.9741 13.4104 14.9741 12.7583 14.7708C12.4549 14.6774 12.1695 14.5327 11.9148 14.3433C11.682 14.172 11.4885 13.9536 11.3465 13.7021C11.2156 13.4703 11.1458 13.209 11.144 12.9426C11.144 12.4196 11.4253 11.919 11.909 11.5479C12.4485 11.1634 13.0972 10.9623 13.7596 10.9741C14.422 10.9623 15.0705 11.1634 15.6101 11.5479C15.8378 11.7042 16.0256 11.9119 16.1584 12.1542C16.2914 12.3965 16.3655 12.6666 16.3749 12.9426Z" fill="#5A1826"/>
<path d="M15.4413 14.1066C15.0701 14.174 14.6933 14.2248 14.3164 14.2641C13.7449 14.3258 13.1674 14.2305 12.6459 13.9885C12.2491 13.8197 11.9259 13.5143 11.7347 13.1278C11.6785 12.976 11.6222 12.706 11.5659 12.3293C11.8265 11.9282 12.2181 11.6299 12.6739 11.4855C13.1975 11.3033 13.7583 11.2548 14.3052 11.3449C14.8451 11.4348 15.3232 11.6543 15.6551 11.9636C15.9251 12.2055 16.0826 12.4979 16.1219 12.8074C16.1669 13.1504 16.0543 13.4991 15.7957 13.7972C15.6944 13.9098 15.5763 14.0223 15.4413 14.1122V14.1066Z" fill="#FFCCD2"/>
<path d="M11.5663 12.3232C11.6226 12.7 11.6789 12.9645 11.7351 13.122C11.8868 13.5044 12.2976 13.825 12.6462 13.9881C13.1693 14.2299 13.7262 14.3255 14.3222 14.2638C14.6936 14.2244 15.0704 14.1738 15.4472 14.1063C14.959 14.4073 14.399 14.5723 13.8253 14.5842C13.2518 14.5961 12.6854 14.4543 12.1851 14.1738C11.8371 13.9795 11.5714 13.6657 11.437 13.2906C11.3876 13.1298 11.3729 12.9604 11.3943 12.7936C11.4157 12.6267 11.4724 12.4665 11.5607 12.3232H11.5663Z" fill="#F5ACB6"/>
<path d="M12.5067 13.1272C12.5067 13.4815 12.7146 13.7685 12.9792 13.7685C13.2435 13.7685 13.4571 13.4872 13.4571 13.1272C13.4571 12.7729 13.2435 12.4805 12.9792 12.4805C12.7146 12.4805 12.501 12.7729 12.501 13.1272H12.5067ZM14.3121 13.1272C14.3121 13.4815 14.5259 13.7741 14.7902 13.7741C15.0489 13.7741 15.2682 13.4872 15.2682 13.1272C15.2682 12.7729 15.0546 12.4805 14.7902 12.4805C14.5315 12.4805 14.3121 12.7673 14.3121 13.1272Z" fill="#672835"/>
<path d="M19.8178 12.5039C20.4252 12.5377 20.622 12.8303 20.414 13.387C20.2171 13.8932 19.5873 14.2982 19.0978 14.5007C19.0785 14.5072 19.0621 14.5205 19.0518 14.538C19.0414 14.5555 19.0379 14.5763 19.0416 14.5963L19.064 14.63C19.3566 15.0687 18.991 15.5132 18.6366 15.7437C18.287 15.9829 17.8865 16.1369 17.4668 16.1937C17.4535 16.2036 17.4427 16.2163 17.4347 16.2309C17.4269 16.2454 17.4225 16.2615 17.4218 16.2781C17.4187 16.293 17.4187 16.3082 17.4218 16.3231C17.4893 16.5198 17.4329 16.6606 17.2643 16.7561C17.3486 16.4918 17.3318 16.3006 17.2249 16.1712C17.2172 16.1612 17.2063 16.1541 17.1941 16.151C17.1818 16.1479 17.1689 16.1491 17.1574 16.1544C17.1466 16.157 17.1367 16.163 17.1293 16.1712C17.1223 16.1811 17.1183 16.1928 17.1179 16.2048L17.107 16.3286C17.0957 16.1598 17.1068 16.0473 17.1629 16.0023C17.343 16.0587 17.8549 15.9349 18.0628 15.8506C18.4565 15.6931 18.8785 15.4568 19.019 15.0463C19.1485 14.6694 18.5691 14.5739 18.5748 14.4838C18.5775 14.4729 18.5834 14.4632 18.5916 14.4557C19.0793 14.3782 19.5291 14.1455 19.874 13.792C20.0596 13.5953 20.2621 13.4208 20.3353 13.1508C20.4478 12.757 19.9584 12.6783 19.711 12.684C19.7221 12.6278 19.7559 12.5659 19.8178 12.5039Z" fill="#76D2E4"/>
<path d="M8.98464 14.2633C8.9734 14.3195 8.9734 14.3869 8.9734 14.4602C8.97902 14.5332 8.9734 14.5951 8.95652 14.6513C8.52343 16.0406 8.80465 17.8349 10.0814 18.6504C10.2839 18.7797 10.5652 18.8697 10.9363 18.926C10.9814 18.9316 11.0602 18.9991 11.1725 19.1229L11.2963 19.7304C11.3019 19.7528 11.2963 19.7585 11.2739 19.7585C10.3627 19.7078 9.42898 19.5953 8.7034 19.016C8.69347 19.0081 8.68207 19.0024 8.66988 18.9989C8.65769 18.9955 8.64495 18.9946 8.63239 18.9962C8.61984 18.9978 8.60772 19.0018 8.59674 19.0081C8.58575 19.0144 8.57613 19.0227 8.56843 19.0328C8.55534 19.0474 8.54572 19.0647 8.5403 19.0835C8.51218 19.1679 8.5403 19.241 8.61341 19.2972C8.8384 19.4772 9.08588 19.6179 9.34461 19.7247C9.37273 19.736 9.38398 19.7585 9.38398 19.7809C9.32774 20.3153 9.00714 20.6696 8.50094 20.6415C8.09033 20.6134 7.87098 20.3153 7.79786 19.9272C7.62482 18.9133 7.5626 17.8836 7.61223 16.8562C7.61223 16.6987 7.64037 16.4625 7.69098 16.1362C7.82036 15.3487 8.13534 14.5613 8.70904 14.0665C8.73153 14.0495 8.7484 14.0495 8.7709 14.0665L8.98464 14.2633Z" fill="#F5ACB6"/>
<path d="M8.98531 14.2637C10.2843 15.2281 11.8674 15.7327 13.4851 15.6978C14.5087 15.6866 15.5097 15.5122 16.511 15.1859C16.6908 15.6022 16.781 16.0408 16.7922 16.5021C16.7922 16.5246 16.8033 16.5416 16.8317 16.5358L16.8597 16.5303L16.8767 16.519L16.8821 16.5021L16.9047 16.3503C16.9271 17.3233 16.871 18.2963 16.7358 19.275C16.6347 19.2638 16.5278 19.3312 16.421 19.4662C16.2916 19.6406 16.1229 19.7025 15.9204 19.6462C15.8642 19.6294 15.7686 19.5675 15.6279 19.4607C15.5329 19.3876 15.4264 19.3306 15.313 19.292L15.1948 18.2457C15.1837 18.1782 15.1497 18.1446 15.088 18.1446C15.0677 18.1438 15.0474 18.1486 15.0296 18.1585C15.0117 18.1685 14.9969 18.1831 14.9867 18.2008L14.9755 18.2346L14.998 18.6395C14.9369 18.6702 14.8695 18.6856 14.8011 18.6845C14.728 18.6845 14.6662 18.6957 14.6098 18.7182C14.3792 18.797 14.1487 18.8362 13.9238 18.842C13.7268 18.842 13.4851 18.8308 13.2038 18.797L13.2205 18.3863C13.2205 18.3471 13.2038 18.319 13.1643 18.3076C13.1251 18.2907 13.0856 18.2963 13.0519 18.3301C13.0403 18.3399 13.0309 18.352 13.0243 18.3655C13.0174 18.379 13.0135 18.3938 13.0126 18.4088C12.9788 18.932 12.8888 19.4381 12.7313 19.9275C12.6863 19.9556 12.6582 19.9444 12.6469 19.8994C12.6244 19.8262 12.5738 19.7869 12.5007 19.7812C12.2813 19.7587 12.1069 19.6576 11.9719 19.4719C11.7976 19.2245 11.6345 18.96 11.4994 18.6676C11.489 18.6454 11.4711 18.6274 11.4488 18.617L11.3363 18.5607L11.1958 16.8621C11.194 16.8404 11.184 16.8202 11.1677 16.8058C11.1394 16.789 11.117 16.7778 11.0944 16.7833C11.0213 16.7946 10.982 16.8396 10.982 16.9071C10.9989 17.6608 11.0608 18.4032 11.1732 19.1232C11.0608 18.9995 10.982 18.932 10.9369 18.9262C10.6382 18.8925 10.3495 18.7988 10.0877 18.6507C8.80532 17.8352 8.52408 16.0408 8.95718 14.6573C8.97406 14.5954 8.97967 14.5279 8.97406 14.4604C8.97406 14.3872 8.97406 14.3198 8.98531 14.2637Z" fill="#FFCCD2"/>
<path d="M16.9045 16.3504L16.882 16.5022L16.8765 16.519L16.8595 16.5304H16.8314C16.8032 16.5416 16.792 16.5304 16.792 16.5022C16.7837 16.0495 16.688 15.6026 16.5107 15.186L16.8089 15.0566H16.8201C16.8275 15.0566 16.8347 15.0597 16.8401 15.0649C16.8453 15.0701 16.8482 15.0775 16.8482 15.0849L16.9045 16.3504Z" fill="#FFF9FC"/>
<path d="M11.3364 18.5605L11.4489 18.6168C11.4715 18.6282 11.4882 18.6449 11.4939 18.6675C11.6403 18.9599 11.7978 19.2299 11.9721 19.4718C12.1071 19.6575 12.2813 19.7587 12.5007 19.7811C12.5739 19.7811 12.6245 19.8261 12.647 19.8937C12.6583 19.9498 12.6863 19.9555 12.7314 19.9274C12.6694 20.1805 12.4502 20.6472 12.1464 20.6136C11.5783 20.5461 11.3702 19.0049 11.3364 18.5605ZM14.9981 18.6393L15.0712 19.3143C15.0712 19.3368 15.0712 19.3537 15.0599 19.3705C15.0503 19.3887 15.0343 19.4027 15.0149 19.4099C14.3903 19.6624 13.7194 19.7793 13.0463 19.753L13.0351 19.7473V19.7363L13.2038 18.7968C13.4851 18.8307 13.727 18.8474 13.9238 18.8418C14.1487 18.8418 14.3737 18.7968 14.6099 18.718C14.6662 18.6955 14.7281 18.69 14.8012 18.6843C14.8856 18.6843 14.953 18.6675 14.9981 18.6393ZM16.7416 19.2693C16.708 19.6349 16.5391 20.5292 16.1117 20.6472C15.9318 20.6979 15.7912 20.6472 15.6843 20.5011C15.4556 20.14 15.3275 19.7246 15.313 19.2975C15.4255 19.3312 15.5268 19.3874 15.628 19.4661C15.7687 19.5674 15.8698 19.6349 15.9205 19.6462C16.123 19.7023 16.2862 19.6462 16.4267 19.4661C16.5278 19.3255 16.6348 19.2638 16.7416 19.2693Z" fill="#F5ACB6"/>
<path d="M5.81347 20.6699C5.74597 20.6699 5.68408 20.7262 5.68408 20.8049V20.8443C5.68408 20.9175 5.74033 20.9962 5.81347 20.9962H6.31967C6.39277 20.9962 6.44341 20.9287 6.44341 20.8499V20.8162C6.44341 20.7374 6.38716 20.6757 6.31404 20.6699H5.81347Z" fill="#672835"/>
</g>
<defs>
<clipPath id="clip0_328_54924">
<rect width="24" height="24" fill="white"/>
</clipPath>
</defs>
</svg>
