<svg width="24" height="24" viewBox="0 0 24 24" fill="none" xmlns="http://www.w3.org/2000/svg">
<g clip-path="url(#clip0_328_40628)">
<path d="M24 0H0V24H24V0Z" fill="#24D2FD"/>
<path fill-rule="evenodd" clip-rule="evenodd" d="M8.06248 8.06248H13.6874V3.162C13.0519 3.01969 12.6784 3 11.9999 3C7.02917 3 3 7.02917 3 11.9999C3 15.5077 5.13469 18.5441 8.06248 20.029V8.06248ZM15.9374 3.97086V15.9374H10.3125V20.7806C10.9481 20.9224 11.3216 21 11.9999 21C16.9708 21 21 16.9708 21 11.9999C21 8.4928 18.8652 5.45586 15.9374 3.97086ZM13.6874 13.6874H10.3125V10.3125H13.6874V13.6874Z" fill="white"/>
</g>
<defs>
<clipPath id="clip0_328_40628">
<rect width="24" height="24" fill="white"/>
</clipPath>
</defs>
</svg>
