<svg width="24" height="24" viewBox="0 0 24 24" fill="none" xmlns="http://www.w3.org/2000/svg">
<g clip-path="url(#clip0_328_55393)">
<path d="M24 0H0V24H24V0Z" fill="url(#paint0_linear_328_55393)"/>
<path d="M11.5557 17.7773H12.4445V19.5062C12.4445 19.7773 12.2446 19.9995 12.0002 19.9995C11.7557 19.9995 11.5557 19.7773 11.5557 19.5062V17.7773Z" fill="white"/>
<path d="M9.77734 16.8896H10.6662V18.6185C10.6662 18.8896 10.4663 19.1118 10.2218 19.1118C9.9774 19.1118 9.77734 18.8896 9.77734 18.6185V16.8896Z" fill="white"/>
<path d="M12.4445 6.22223H11.5557V4.49334C11.5557 4.22223 11.7557 4 12.0002 4C12.2446 4 12.4445 4.22223 12.4445 4.49334V6.22223Z" fill="white"/>
<path d="M14.2229 6.66656H13.334V4.93767C13.334 4.66656 13.534 4.44434 13.7784 4.44434C14.023 4.44434 14.2229 4.66656 14.2229 4.93767V6.66656Z" fill="white"/>
<path d="M7.55562 5.77734V7.1329C7.55562 8.21735 8.45784 8.88846 9.5734 8.88846H11.4623C11.8668 8.88846 12.2623 9.01291 12.4089 9.07513C11.2428 10.2844 10.0873 11.5036 8.94229 12.7329C8.61784 13.1062 7.55562 14.244 7.55562 15.684C7.52056 16.1839 7.67697 16.6783 7.99309 17.0671C8.3092 17.4558 8.76137 17.7098 9.25785 17.7774H16.4445V16.4218C16.4445 15.3374 15.5423 14.6662 14.4268 14.6662H12.6667C12.2667 14.6662 11.7289 14.5418 11.56 14.4796C12.4623 13.5374 14.4712 11.3417 14.8711 10.9462C15.3778 10.4573 16.449 9.53291 16.449 7.80846C16.449 6.43068 15.4001 5.87956 14.8711 5.77734H7.55562Z" fill="white"/>
<path d="M12.4712 9.28935L11.2135 11.467C10.9823 11.8627 10.6667 12.2938 10.6667 12.6671C10.6667 13.556 11.2846 14.0583 11.5556 14.2227C12.0756 13.4893 12.2712 13.196 12.7779 12.4494C13.1865 11.8912 13.3834 11.2059 13.3335 10.516C13.3335 9.18712 12.1023 8.4849 11.5556 8.44491H9.38233C8.9815 8.43464 8.59303 8.30415 8.2673 8.07035C7.94157 7.83656 7.69362 7.51025 7.55566 7.13379C7.55566 8.21824 8.45788 8.88935 9.57344 8.88935H11.5556C11.8979 8.88935 12.2223 9.11158 12.4712 9.28935Z" fill="white"/>
</g>
<defs>
<linearGradient id="paint0_linear_328_55393" x1="7.55091" y1="5.34391" x2="13.6033" y2="22.3505" gradientUnits="userSpaceOnUse">
<stop offset="0.02" stop-color="#D4964B"/>
<stop offset="0.54" stop-color="#FFED87"/>
</linearGradient>
<clipPath id="clip0_328_55393">
<rect width="24" height="24" fill="white"/>
</clipPath>
</defs>
</svg>
