<svg width="24" height="24" viewBox="0 0 24 24" fill="none" xmlns="http://www.w3.org/2000/svg">
<g clip-path="url(#clip0_328_40688)">
<path d="M24 0H0V24H24V0Z" fill="white"/>
<path d="M5.76036 13.1062L5.68457 14.1546C5.82698 13.7236 6.0972 13.3462 6.4593 13.0724L9.86133 14.2641C9.58834 14.8946 9.34249 15.5366 9.12451 16.1882C9.04031 16.5251 9.11189 16.8913 9.1582 17.0346C9.22557 16.7904 9.37714 16.5588 9.44029 16.4746C9.66765 16.6429 9.62976 17.4008 9.58345 17.7545C9.89503 17.502 10.0045 16.9756 10.0172 16.7398C10.0593 16.7566 10.1603 16.8029 10.2277 16.8619C10.295 16.9167 10.3372 17.0976 10.354 17.182C10.4382 17.1271 10.5646 16.9924 10.6108 16.9292C10.6403 16.9629 10.7498 17.3756 10.8003 17.5776C11.015 17.3166 11.2761 16.7566 11.3814 16.5082L11.3393 14.7819L12.6024 15.224V15.2577L12.6488 15.2408L12.695 15.2577V15.2282L14.2654 14.7103L14.2233 16.5082C14.3286 16.7608 14.5897 17.3166 14.8043 17.5776C14.855 17.3756 14.9686 16.9629 14.9938 16.9292C15.0443 16.9924 15.1622 17.1271 15.2549 17.182C15.2676 17.0976 15.3138 16.9167 15.3813 16.8619C15.4486 16.8029 15.5496 16.7566 15.5917 16.7356C15.6044 16.9756 15.7097 17.502 16.0254 17.7545C15.9749 17.3966 15.9413 16.6429 16.1644 16.4746C16.2317 16.5588 16.3748 16.7904 16.4465 17.0346C16.5278 16.7596 16.5393 16.4688 16.4802 16.1882C16.257 15.5237 16.0055 14.8692 15.7265 14.2262L19.2212 13.0724C19.5848 13.3456 19.8566 13.7231 20.0001 14.1546L19.9243 13.1062L19.6422 12.622L19.878 12.7315C19.7643 11.5651 19.4317 9.00095 19.0359 8.06202L18.6318 8.04096L18.9686 7.80096V7.6999L18.6064 7.66201L18.8843 7.42624L18.6865 7.00098L18.4591 7.04308L18.6064 6.80729L18.5222 6.63887L18.0927 6.72309L12.6528 5.13574L7.59191 6.72309L7.16244 6.63887L7.07823 6.80729L7.2256 7.0473L6.99824 7.00098L6.80034 7.42624L7.07823 7.66201L6.71613 7.6999V7.80096L7.05296 8.04096L6.64455 8.06202C6.25299 9.00095 5.92036 11.5651 5.80667 12.7315L6.04246 12.622L5.76036 13.1062Z" fill="url(#paint0_linear_328_40688)"/>
<path d="M20.0001 15.0774C19.6804 15.0406 19.3712 14.9404 19.0906 14.7827C19.1411 14.9806 19.259 15.4311 19.3012 15.6921C19.2086 15.546 19.095 15.414 18.9643 15.3006C18.8127 15.1743 18.5307 14.968 18.4085 14.8796L18.4507 15.5533C18.3075 15.5238 17.9917 15.3932 17.8527 15.1532C17.7096 15.5238 17.6507 16.3575 18.5601 16.6817C18.1685 16.8121 17.2548 16.8417 16.7412 15.928L16.7875 16.3869L16.5432 16.1512L14.9601 13.0438L17.6002 12.4248L17.8359 12.509C18.9054 12.9091 19.5706 14.0248 20.0001 15.0774ZM5.68457 15.0774C5.72297 14.9804 5.75807 14.8822 5.78983 14.7827C6.08877 13.8733 6.64875 12.9427 7.54139 12.5849L10.7246 13.048L9.14136 16.1512L8.89716 16.3869L8.94347 15.928C8.77589 16.2462 8.50251 16.4961 8.17048 16.6345C7.83845 16.7729 7.46855 16.791 7.12455 16.6858C8.03399 16.3575 7.97505 15.5238 7.8319 15.1532C7.69296 15.3932 7.37717 15.5238 7.23402 15.5574L7.27613 14.8838C7.15402 14.968 6.87192 15.1786 6.71613 15.3048C6.56455 15.4311 6.42983 15.6121 6.3793 15.6921C6.42561 15.4311 6.5435 14.9763 6.58981 14.7827C6.34982 14.9554 5.88667 15.0522 5.68457 15.0774Z" fill="#7A4617"/>
<path d="M10.9348 6.78782C10.758 6.16468 10.4043 4.78364 10.2485 4.5647C10.79 4.539 11.3292 4.65204 11.8148 4.89312C11.7944 4.68038 11.7092 4.47903 11.5706 4.31628C11.8106 4.27417 12.3959 4.26576 12.817 4.5689C12.9391 4.45523 13.3348 4.25312 13.958 4.31628C13.9117 4.37523 13.8064 4.5689 13.7686 4.89312C14.0633 4.73733 14.7959 4.45523 15.3517 4.5647C14.9769 5.06154 14.9096 6.51414 14.9221 6.78782L13.1579 6.60678L12.7495 6.00467L12.4423 6.60678L10.9348 6.78782Z" fill="#593207"/>
<path d="M19.5788 6.25596C18.5717 6.58805 17.6088 7.04194 16.7116 7.60753L16.7874 7.17385C16.4506 7.28333 15.7263 7.55279 15.5032 7.73805L15.558 7.5149C15.203 7.67556 14.8749 7.89 14.5853 8.15068L14.64 7.81804L14.3032 8.3233L14.1389 7.27069L13.9117 7.65806L13.5621 6.69806L13.3474 7.02227C13.1705 6.85386 12.9475 6.32754 13.4779 5.55704L13.5621 5.88124C13.7685 5.62441 14.299 5.07703 14.7832 4.96336L14.5389 5.55704C15.1197 5.14625 15.8036 4.90564 16.5136 4.8623L16.2653 5.27493C16.7199 5.23283 17.7684 5.20756 18.3284 5.50651L17.5916 5.88545C17.9326 5.89808 18.8125 5.99914 19.5788 6.25596ZM6.10547 6.25596C6.58125 6.39912 7.82334 6.8707 8.97279 7.60753L8.89701 7.17385C9.23383 7.28333 9.95804 7.55279 10.1812 7.73805L10.1265 7.5149C10.4814 7.67556 10.8095 7.89 11.0991 8.15068L11.0444 7.81804L11.3812 8.3233L11.5454 7.27069L11.7727 7.65806L12.1222 6.69806L12.337 7.02227C12.5138 6.85386 12.7371 6.32754 12.2065 5.55704L12.1222 5.88124C11.9159 5.62441 11.3854 5.07703 10.9012 4.96336L11.1455 5.55704C10.5646 5.14625 9.88072 4.90564 9.17068 4.8623L9.41909 5.27493C8.96437 5.23283 7.91596 5.20756 7.35597 5.50651L8.09279 5.88545C7.75175 5.89808 6.87177 5.99914 6.10547 6.25596Z" fill="#B06521"/>
<path d="M7.77349 12.0752C8.16259 11.7452 8.64584 11.5463 9.15451 11.5068C9.55451 11.5068 9.77345 11.57 10.0008 11.6332C10.1819 11.6836 10.363 11.7384 10.6493 11.7595C11.1587 11.8057 12.2745 11.7805 12.7713 11.7595C13.264 11.7805 14.3839 11.8057 14.8933 11.7595C15.1754 11.7384 15.3608 11.6836 15.5417 11.6332C15.7649 11.57 15.9838 11.5068 16.3839 11.5068C16.9607 11.5068 17.5459 11.8857 17.7691 12.0752C17.7144 12.0878 17.5586 12.151 17.3523 12.3152C17.849 12.3152 18.4554 12.7236 18.6996 12.9258C18.2027 12.7951 17.7859 12.9426 17.6302 12.9974C17.6103 13.0075 17.5891 13.0147 17.567 13.0184L17.6133 13.0563C17.6933 13.1111 17.849 13.2247 18.0174 13.3679C18.2197 13.5363 18.8596 13.6079 19.1374 13.6331C18.873 13.776 18.577 13.851 18.2764 13.851C17.9758 13.851 17.6799 13.776 17.4155 13.6331L17.007 13.7805C17.5838 13.9994 17.7522 14.6267 17.7649 14.9173C17.2511 14.6646 16.7039 14.4204 16.4976 14.3278C16.6743 14.6562 16.7965 15.2037 16.8344 15.4352C16.2368 15.1666 15.6809 14.8136 15.1839 14.3867C15.1839 15.2414 15.0449 15.8521 14.9733 16.0457C14.7039 15.7637 14.5523 15.3215 14.5101 15.1362C14.3839 15.3678 14.287 16.8204 14.2575 17.5194C14.1312 17.3341 13.8702 16.8204 13.7522 16.5931C13.7522 16.7994 13.6091 16.9509 13.5375 17.0015C13.4002 16.7764 13.3008 16.5304 13.2429 16.273C13.2429 16.6773 12.9271 17.1699 12.7713 17.3678C12.6114 17.1699 12.2997 16.6773 12.2997 16.273C12.2419 16.5304 12.1424 16.7764 12.005 17.0015C11.9392 16.9542 11.8852 16.8924 11.8473 16.8208C11.8093 16.7492 11.7884 16.6699 11.7861 16.5889C11.6724 16.8204 11.4072 17.3341 11.2851 17.5151C11.2513 16.8204 11.1545 15.3678 11.0282 15.1362C10.9861 15.3215 10.8387 15.7679 10.565 16.0457C10.4977 15.8478 10.3545 15.2457 10.3545 14.3867C10.0387 14.6562 9.25978 15.2414 8.70399 15.4394C8.7461 15.2037 8.87241 14.6562 9.04505 14.3278C8.83452 14.4204 8.29138 14.6646 7.77349 14.9173C7.78612 14.6267 7.95875 13.9994 8.53136 13.7805L8.12717 13.6331C7.86217 13.7768 7.56548 13.8521 7.26402 13.8521C6.96257 13.8521 6.66587 13.7768 6.40088 13.6331C6.67877 13.6079 7.32717 13.5405 7.52507 13.3679C7.69349 13.2247 7.84927 13.1152 7.92507 13.0563C7.96716 13.0268 7.98401 13.0142 7.97559 13.0142C7.95381 13.0117 7.93253 13.0061 7.91244 12.9974C7.75665 12.9426 7.33981 12.7951 6.84298 12.9258C7.08296 12.7236 7.69349 12.3152 8.19033 12.3152C8.06835 12.2088 7.92674 12.1273 7.77349 12.0752Z" fill="#AC6815"/>
<path d="M7.17041 8.32324C7.41884 8.44955 8.01251 8.76954 8.40829 9.05165C8.87929 9.33836 9.38238 9.56875 9.90721 9.73792L10.3872 11.8306C9.65458 11.7716 8.11777 11.62 7.81883 11.4811L8.15145 11.3295L7.37673 10.8537L7.82304 10.7106C7.62093 10.5884 7.20831 10.3148 7.17041 10.1632C7.29673 10.1969 7.61252 10.2559 7.88618 10.2137L7.37673 9.38003L8.02093 9.60323C7.8904 9.25379 7.54094 8.50849 7.17041 8.32324ZM18.3702 8.32324C18.1176 8.44955 17.5281 8.76954 17.1323 9.05165C16.7365 9.33375 15.966 9.62849 15.6291 9.73792L15.1575 11.8306C15.8861 11.7716 17.4228 11.62 17.7217 11.4811L17.3934 11.3295L18.168 10.8537L17.7217 10.7106C17.924 10.5884 18.3324 10.3148 18.3744 10.1632C18.1408 10.2226 17.8983 10.2398 17.6587 10.2137L18.1639 9.38003L17.5239 9.60323C17.6502 9.25379 18.0039 8.50849 18.3744 8.32324H18.3702Z" fill="url(#paint1_linear_328_40688)"/>
<path d="M13.533 12.8712C13.8193 13.0649 14.4298 13.5281 14.5856 13.8396L14.6782 13.4018C14.9324 13.5496 15.1577 13.7422 15.3434 13.9702C15.3393 13.7597 15.2929 13.3134 15.1541 13.1744C15.3097 13.1659 15.6466 13.1618 15.735 13.2249C15.6845 13.0818 15.5455 12.7828 15.4066 12.7196H15.8825C15.7898 12.5933 15.5835 12.3197 15.474 12.2818C15.5708 12.2313 15.7856 12.1386 15.8825 12.1554C15.7982 12.0333 15.5582 11.7933 15.2929 11.7765C14.8011 11.7826 14.3187 11.913 13.8908 12.1554C13.533 12.3659 13.5035 12.7196 13.533 12.8712ZM12.0299 12.8712C11.7435 13.0649 11.133 13.5281 10.9772 13.8396L10.8845 13.4018C10.6304 13.5496 10.405 13.7422 10.2193 13.9702C10.2235 13.7597 10.2698 13.3134 10.4088 13.1744C10.253 13.1659 9.92036 13.1618 9.82774 13.2249C9.87826 13.0818 10.0172 12.7828 10.1561 12.7196H9.68457C9.77721 12.5933 9.98353 12.3197 10.093 12.2818C9.99616 12.2313 9.78142 12.1386 9.68457 12.1554C9.76879 12.0333 10.0088 11.7933 10.274 11.7765C10.6025 11.7555 11.2299 11.8902 11.6803 12.1554C12.0382 12.3659 12.0635 12.7196 12.034 12.8712H12.0299Z" fill="#D88827"/>
<path d="M11.697 11.2578C11.6127 11.2324 10.6991 10.9082 10.897 9.56934L9.12012 10.0282C9.21274 10.1546 9.46116 10.424 9.70536 10.4872H9.24644C9.26327 10.5756 9.33485 10.765 9.5201 10.803L9.24644 10.8998C9.30538 10.9419 9.45695 11.0346 9.58326 11.0261L9.38116 11.203C9.38116 11.2198 9.43168 11.245 9.63379 11.203C9.84431 11.1694 10.1854 11.2914 10.3327 11.3587L11.6043 11.5103L11.7012 11.2578H11.697ZM13.8106 11.2578C13.8948 11.2324 14.8084 10.9082 14.6106 9.56934L16.3874 10.0282C16.2947 10.1546 16.0462 10.424 15.8022 10.4872H16.261C16.2442 10.5756 16.1683 10.765 15.9873 10.803L16.261 10.8998C16.2021 10.9419 16.0505 11.0346 15.9241 11.0261L16.1263 11.203C16.1263 11.2198 16.0757 11.245 15.8737 11.203C15.6631 11.1694 15.3179 11.2914 15.1748 11.3587L13.9033 11.5103L13.8064 11.2578H13.8106Z" fill="#FF8932"/>
<path fill-rule="evenodd" clip-rule="evenodd" d="M12.808 8.08398C12.3364 8.08398 11.5785 8.68188 11.5785 9.80184V10.9808C11.5785 11.1197 11.3932 11.3934 11.1996 11.3724C11.0733 11.3597 10.9764 11.3134 10.8921 11.2755C10.8208 11.2365 10.7418 11.2135 10.6606 11.2081C10.5764 11.2081 10.5217 11.2334 10.467 11.2545C10.4164 11.2755 10.3659 11.2966 10.2985 11.2966C10.2311 11.2966 10.1638 11.2418 10.0964 11.1871C10.029 11.1323 9.95747 11.0734 9.89009 11.0734C9.75115 11.0734 9.72168 11.2081 9.72168 11.3682C9.72168 11.5366 9.73852 11.7344 10.1764 11.8523L10.4922 11.9282C10.8164 11.9955 11.1406 12.067 11.5069 12.3323C11.8985 12.6186 12.1048 13.5996 12.1596 14.0587C12.2859 14.5975 12.5848 15.6839 12.7616 15.6839C12.9848 15.6839 13.3595 14.3365 13.4227 14.0544C13.4353 13.9997 13.4438 13.9154 13.4564 13.8144C13.4985 13.4018 13.5827 12.6902 14.0627 12.3323C14.3828 12.0829 14.7665 11.9282 15.17 11.886L15.3554 11.8523C15.6416 11.7892 15.8816 11.5787 15.8816 11.3471C15.8816 11.1071 15.8269 11.0734 15.6795 11.0734C15.6164 11.0734 15.5617 11.1154 15.5027 11.1703C15.431 11.2292 15.3554 11.2966 15.229 11.2966C15.1238 11.2966 15.0437 11.2755 14.9679 11.2545C14.8838 11.2292 14.7995 11.2081 14.6732 11.2081C14.6301 11.2048 14.5867 11.2114 14.5466 11.2274C14.5065 11.2436 14.4706 11.2686 14.4416 11.3007C14.4037 11.3386 14.37 11.3724 14.2943 11.3724C14.1595 11.3724 14.0963 11.1114 14.1047 10.9808V9.80184C14.0627 9.27133 13.7806 8.08398 12.808 8.08398ZM11.8101 10.6355L11.8943 10.1471C11.8943 10.105 11.8817 10.0208 11.7679 10.0208C11.6627 10.0208 11.7511 10.4292 11.8101 10.6355ZM10.6648 11.4691C10.8627 11.4691 11.0605 11.6165 11.1321 11.6924C11.0311 11.6502 10.7954 11.5702 10.6648 11.5702C10.589 11.5702 10.5259 11.5913 10.4543 11.6124C10.3785 11.6376 10.2985 11.6629 10.2017 11.6544C10.0248 11.6334 9.92377 11.507 9.92377 11.4271C9.92377 11.3513 9.9743 11.2123 10.1048 11.3724M14.9258 11.4691C14.7279 11.4691 14.5301 11.6165 14.4543 11.6924C14.5553 11.6502 14.7911 11.5702 14.9258 11.5702C15.0017 11.5702 15.0648 11.5913 15.1321 11.6124C15.2122 11.6376 15.2879 11.6629 15.3848 11.6544C15.5658 11.6334 15.6626 11.507 15.6626 11.4271C15.6626 11.3513 15.6164 11.2123 15.4858 11.3724C15.389 11.4945 15.2542 11.4861 15.0901 11.4734L14.9216 11.4691H14.9258ZM13.6963 10.1471L13.7806 10.6355C13.8395 10.4292 13.9279 10.0249 13.8185 10.0249C13.7091 10.0249 13.6921 10.1092 13.6963 10.1513V10.1471Z" fill="url(#paint2_linear_328_40688)"/>
<path d="M12.0802 12.2306C11.9791 13.3842 12.5012 14.9084 12.7749 15.5232C12.9686 14.7611 13.356 13.0642 13.356 12.2306C13.356 11.1822 13.1455 10.0117 12.7075 10.0117C12.2696 10.0117 12.2023 10.7864 12.076 12.2306H12.0802Z" fill="#F5DDAF"/>
<path d="M10.3957 9.67206C10.5726 9.69319 10.9515 9.69741 11.0526 9.53737C11.1788 9.33951 10.64 8.49319 9.63363 7.91214C8.62311 7.33109 8.26944 7.20898 8.02523 7.20898C7.78102 7.20898 7.78102 8.38793 8.19786 8.69107C8.24418 9.20049 8.5768 10.2194 9.54521 10.2194C9.76415 10.1984 10.2399 10.0636 10.3957 9.67206ZM15.1535 9.67206C14.9767 9.69319 14.5977 9.69741 14.4968 9.53737C14.3704 9.33951 14.9093 8.49319 15.9156 7.91214C16.9261 7.33109 17.2798 7.20898 17.524 7.20898C17.7682 7.20898 17.7682 8.38793 17.3514 8.69107C17.3092 9.20049 16.9724 10.2194 16.004 10.2194C15.7851 10.1984 15.3135 10.0636 15.1535 9.67206Z" fill="url(#paint3_linear_328_40688)"/>
<path d="M9.4399 9.08105L4 14.82L4.32 15.6748L9.86938 9.26212L9.4399 9.08105Z" fill="url(#paint4_linear_328_40688)" fill-opacity="0.3"/>
<path d="M15.6764 9.01074L8.18604 19.0737L9.40707 19.7053L16.127 9.12864L15.6764 9.01494V9.01074Z" fill="url(#paint5_linear_328_40688)" fill-opacity="0.3"/>
<path d="M6.61126 12.4032C6.67863 12.159 8.69124 10.0874 9.6849 9.08105C9.26808 9.79264 7.32705 11.9399 7.23021 12.0705C7.13337 12.1969 6.52284 12.7063 6.61126 12.4032Z" fill="url(#paint6_linear_328_40688)"/>
<path d="M13.3474 12.812C13.3769 12.5593 15.0484 10.1973 15.8779 9.04785C15.5748 9.8142 13.9832 12.2393 13.9074 12.3825C13.8316 12.5257 13.3053 13.1278 13.3433 12.812H13.3474Z" fill="url(#paint7_linear_328_40688)"/>
<path d="M9.12457 9.66205C9.09089 9.40936 9.213 8.86625 10.0004 8.70625C10.0004 9.51045 9.41511 9.67885 9.12457 9.66205ZM15.5119 9.44306C15.4783 9.19047 15.6045 8.6473 16.3877 8.4873C16.3877 9.29147 15.8066 9.45996 15.5119 9.44306Z" fill="#F7FFFF"/>
<path d="M10.2733 9.42292C9.99543 9.53659 9.34701 9.57873 8.96387 8.83345C9.86912 8.58924 10.2144 9.12819 10.2691 9.42292H10.2733ZM16.6605 9.20394C16.3869 9.31761 15.7342 9.35976 15.3512 8.6145C16.2563 8.37029 16.6016 8.90924 16.6564 9.20394H16.6605Z" fill="#F7FFFF" fill-opacity="0.5"/>
</g>
<defs>
<linearGradient id="paint0_linear_328_40688" x1="12.0003" y1="4.29335" x2="12.0003" y2="19.7193" gradientUnits="userSpaceOnUse">
<stop offset="0.15" stop-color="#964216"/>
<stop offset="0.32" stop-color="#F67136"/>
<stop offset="0.45" stop-color="#6D310F"/>
</linearGradient>
<linearGradient id="paint1_linear_328_40688" x1="11.9969" y1="4.29353" x2="11.9969" y2="19.704" gradientUnits="userSpaceOnUse">
<stop offset="0.31" stop-color="#F6461D"/>
<stop offset="1" stop-color="#8A4411"/>
</linearGradient>
<linearGradient id="paint2_linear_328_40688" x1="11.9941" y1="4.29427" x2="11.9941" y2="19.7048" gradientUnits="userSpaceOnUse">
<stop offset="0.24" stop-color="#FCE57B"/>
<stop offset="0.54" stop-color="#FFF0A9"/>
</linearGradient>
<linearGradient id="paint3_linear_328_40688" x1="11.9999" y1="4.29505" x2="11.9999" y2="19.7056" gradientUnits="userSpaceOnUse">
<stop stop-color="#540508"/>
<stop offset="0.56" stop-color="#F70B0D"/>
<stop offset="0.98" stop-color="#860710"/>
</linearGradient>
<linearGradient id="paint4_linear_328_40688" x1="11.9999" y1="4.29352" x2="11.9999" y2="19.704" gradientUnits="userSpaceOnUse">
<stop stop-color="#FF0000"/>
<stop offset="1" stop-color="#FF0000" stop-opacity="0"/>
</linearGradient>
<linearGradient id="paint5_linear_328_40688" x1="10.6773" y1="5.21693" x2="12.1867" y2="19.082" gradientUnits="userSpaceOnUse">
<stop stop-color="#FF0000"/>
<stop offset="1" stop-color="#FF0000" stop-opacity="0"/>
</linearGradient>
<linearGradient id="paint6_linear_328_40688" x1="6.45016" y1="18.118" x2="18.5976" y2="3.34271" gradientUnits="userSpaceOnUse">
<stop stop-color="#FFD943"/>
<stop offset="1" stop-color="white"/>
</linearGradient>
<linearGradient id="paint7_linear_328_40688" x1="6.6682" y1="18.0303" x2="13.7746" y2="1.73455" gradientUnits="userSpaceOnUse">
<stop stop-color="#FFD943"/>
<stop offset="1" stop-color="white"/>
</linearGradient>
<clipPath id="clip0_328_40688">
<rect width="24" height="24" fill="white"/>
</clipPath>
</defs>
</svg>
