<svg width="24" height="24" viewBox="0 0 24 24" fill="none" xmlns="http://www.w3.org/2000/svg">
<g clip-path="url(#clip0_328_40722)">
<path d="M24 0H0V24H24V0Z" fill="black"/>
<path d="M11.9999 6.49683C11.1843 6.49667 10.3789 6.67793 9.64185 7.02748C8.90488 7.37704 8.25488 7.88612 7.73893 8.5179C7.223 9.14966 6.85405 9.88825 6.65877 10.6802C6.46353 11.4721 6.44685 12.2976 6.60999 13.0968C6.64282 13.2577 6.64365 13.4235 6.61241 13.5846C6.58118 13.7458 6.51851 13.8992 6.42797 14.0362C6.33743 14.1731 6.22081 14.291 6.08474 14.3829C5.94869 14.4747 5.79585 14.5391 5.635 14.5718C5.47413 14.6046 5.30837 14.6054 5.14718 14.5743C4.98599 14.543 4.83253 14.4803 4.69557 14.3898C4.5586 14.2993 4.44082 14.1826 4.34891 14.0466C4.25702 13.9106 4.19282 13.7577 4.15999 13.5968C3.93758 12.5015 3.94715 11.3716 4.1881 10.2802C4.42906 9.18883 4.89603 8.16001 5.55894 7.26011C6.22184 6.36022 7.06596 5.60922 8.03686 5.05551C9.00779 4.50182 10.0839 4.15771 11.196 4.04539C12.3081 3.93306 13.4314 4.055 14.4934 4.40335C15.5554 4.7517 16.5326 5.31873 17.3621 6.06788C18.1915 6.81703 18.8548 7.73168 19.3092 8.75287C19.7635 9.77403 19.9988 10.8791 20 11.9969H17.4999C17.4999 10.5381 16.9205 9.13919 15.889 8.10775C14.8576 7.0763 13.4586 6.49683 11.9999 6.49683Z" fill="url(#paint0_linear_328_40722)"/>
<path d="M18.3999 9.49908C18.5615 9.4687 18.7274 9.47047 18.8883 9.50431C19.0492 9.53814 19.2018 9.60336 19.3374 9.69627C19.473 9.78913 19.589 9.9079 19.6786 10.0456C19.7683 10.1833 19.8299 10.3375 19.86 10.4991C19.953 10.9903 19.9999 11.4891 20 11.9891V11.9941C20 14.034 19.2349 15.8941 17.9799 17.3091L18.465 17.8941C18.5694 18.0207 18.6478 18.1668 18.6958 18.3239C18.7438 18.4809 18.7603 18.6459 18.7444 18.8093C18.7287 18.9727 18.6809 19.1315 18.6038 19.2763C18.5266 19.4214 18.4218 19.5497 18.295 19.6541C18.1682 19.7585 18.0222 19.8369 17.8651 19.8849C17.7081 19.9328 17.5433 19.9494 17.3798 19.9335C17.2163 19.9178 17.0575 19.8699 16.9126 19.7928C16.7678 19.7157 16.6394 19.6108 16.535 19.4841L16.0499 18.894C14.8346 19.6075 13.4525 19.9873 12.0431 19.9949C10.6339 20.0025 9.24764 19.6376 8.02467 18.9374C6.80171 18.2371 5.78542 17.2262 5.0787 16.0069C4.37195 14.7877 3.99984 13.4034 4 11.9941H6.5C6.49983 12.9289 6.73794 13.8483 7.19181 14.6655C7.64569 15.4827 8.30034 16.1707 9.09399 16.6647C9.88759 17.1585 10.7941 17.442 11.7278 17.4883C12.6614 17.5345 13.5914 17.3421 14.43 16.9291L13.7 16.0441C13.5956 15.9174 13.5172 15.7713 13.4693 15.6143C13.4212 15.4573 13.4047 15.2923 13.4205 15.1288C13.4523 14.7988 13.614 14.4949 13.87 14.2841C14.126 14.0732 14.4551 13.9727 14.7851 14.0045C15.1153 14.0365 15.4191 14.1982 15.6299 14.454L16.3699 15.3491C16.8446 14.7338 17.1827 14.0246 17.3621 13.2686C17.5414 12.5125 17.5577 11.727 17.41 10.9641C17.3486 10.6386 17.4187 10.3019 17.6053 10.0282C17.7918 9.75436 18.0795 9.56591 18.405 9.50408L18.3999 9.49908Z" fill="url(#paint1_linear_328_40722)"/>
<path d="M6.51499 12.4171C6.535 12.652 6.56499 12.8769 6.60999 13.097C6.6763 13.4219 6.61082 13.7598 6.42798 14.0364C6.24513 14.313 5.95988 14.5057 5.635 14.572C5.3101 14.6383 4.97218 14.5728 4.69557 14.39C4.41895 14.2072 4.2263 13.922 4.16 13.597C4.055 13.082 4 12.547 4 11.9971H6.5" fill="#FFE000"/>
</g>
<defs>
<linearGradient id="paint0_linear_328_40722" x1="18.25" y1="11.5421" x2="4.65464" y2="14.7201" gradientUnits="userSpaceOnUse">
<stop stop-color="#2DDE41"/>
<stop offset="1" stop-color="#FFE000"/>
</linearGradient>
<linearGradient id="paint1_linear_328_40722" x1="24.4999" y1="14.2913" x2="6.99797" y2="14.4558" gradientUnits="userSpaceOnUse">
<stop offset="0.36" stop-color="#FF26EB"/>
<stop offset="0.66" stop-color="#137FF9"/>
<stop offset="1" stop-color="#27B3F9"/>
</linearGradient>
<clipPath id="clip0_328_40722">
<rect width="24" height="24" fill="white"/>
</clipPath>
</defs>
</svg>
