<svg width="24" height="24" viewBox="0 0 24 24" fill="none" xmlns="http://www.w3.org/2000/svg">
<g clip-path="url(#clip0_328_37339)">
<path d="M24 0H0V24H24V0Z" fill="#6B10D7"/>
<path d="M17.2937 19.2785C19.1202 17.9501 20.3803 15.9836 20.8244 13.7692C21.2683 11.555 20.8635 9.25458 19.6904 7.32477C18.5172 5.39496 16.6613 3.97678 14.4911 3.35166C12.3209 2.72653 9.99501 2.94016 7.97508 3.95017C5.95508 4.96017 4.38863 6.6927 3.58661 8.80392C2.78461 10.9153 2.80564 13.2508 3.64557 15.3472C4.48552 17.4436 6.08292 19.1476 8.1208 20.1211C10.1587 21.0945 12.488 21.2662 14.6467 20.602V16.5838C13.6373 17.1666 12.464 17.3999 11.3086 17.2478C10.1531 17.0956 9.0801 16.5665 8.25603 15.7424C7.43195 14.9185 6.90284 13.8455 6.75073 12.69C6.59862 11.5345 6.83202 10.3612 7.41475 9.35187C7.99747 8.34259 8.89694 7.55381 9.97363 7.10783C11.0504 6.66186 12.2442 6.58364 13.3699 6.88528C14.4956 7.18695 15.4902 7.85162 16.1997 8.77622C16.9093 9.70079 17.2937 10.8337 17.2937 11.9992V19.2785ZM11.9995 14.6462C12.7015 14.6462 13.375 14.3672 13.8713 13.8709C14.3678 13.3744 14.6467 12.7012 14.6467 11.9992C14.6467 11.297 14.3678 10.6238 13.8713 10.1273C13.375 9.631 12.7015 9.35205 11.9995 9.35205C11.2975 9.35205 10.6242 9.631 10.1279 10.1273C9.63138 10.6238 9.3525 11.297 9.3525 11.9992C9.3525 12.7012 9.63138 13.3744 10.1279 13.8709C10.6242 14.3672 11.2975 14.6462 11.9995 14.6462Z" fill="white"/>
</g>
<defs>
<clipPath id="clip0_328_37339">
<rect width="24" height="24" fill="white"/>
</clipPath>
</defs>
</svg>
