<svg width="24" height="24" viewBox="0 0 24 24" fill="none" xmlns="http://www.w3.org/2000/svg">
<g clip-path="url(#clip0_328_37339)">
<path d="M24 0H0V24H24V0Z" fill="#6B10D7"/>
<path d="M16.7055 18.4698C18.3291 17.289 19.4492 15.541 19.8439 13.5726C20.2385 11.6044 19.8787 9.55963 18.8359 7.84424C17.7931 6.12885 16.1434 4.86825 14.2143 4.31258C12.2853 3.75691 10.2178 3.94681 8.42229 4.84459C6.62674 5.74237 5.23434 7.2824 4.52143 9.15904C3.80854 11.0358 3.82724 13.1118 4.57384 14.9753C5.32046 16.8387 6.74037 18.3534 8.55182 19.2187C10.3633 20.084 12.4338 20.2366 14.3526 19.6462V16.0745C13.4554 16.5925 12.4125 16.7999 11.3854 16.6647C10.3583 16.5294 9.40453 16.0591 8.67202 15.3266C7.93951 14.5942 7.46919 13.6404 7.33398 12.6133C7.19877 11.5862 7.40624 10.5433 7.92422 9.64611C8.44219 8.74897 9.24172 8.04783 10.1988 7.65141C11.1559 7.25499 12.2171 7.18546 13.2177 7.45359C14.2183 7.72174 15.1024 8.31255 15.7331 9.13442C16.3638 9.95626 16.7055 10.9633 16.7055 11.9993V18.4698ZM11.9996 14.3522C12.6236 14.3522 13.2222 14.1042 13.6634 13.663C14.1047 13.2217 14.3526 12.6233 14.3526 11.9993C14.3526 11.3751 14.1047 10.7767 13.6634 10.3354C13.2222 9.89422 12.6236 9.64627 11.9996 9.64627C11.3756 9.64627 10.7771 9.89422 10.3359 10.3354C9.89456 10.7767 9.64667 11.3751 9.64667 11.9993C9.64667 12.6233 9.89456 13.2217 10.3359 13.663C10.7771 14.1042 11.3756 14.3522 11.9996 14.3522Z" fill="white"/>
</g>
<defs>
<clipPath id="clip0_328_37339">
<rect width="24" height="24" fill="white"/>
</clipPath>
</defs>
</svg>
