<svg width="24" height="24" viewBox="0 0 24 24" fill="none" xmlns="http://www.w3.org/2000/svg">
<g clip-path="url(#clip0_328_35214)">
<path d="M24 0H0V24H24V0Z" fill="white"/>
<path d="M5.60088 8.64823L5.05592 10.2132C4.96593 10.4631 4.98594 10.7431 5.10592 10.9781L7.32578 15.3178C7.39154 15.4455 7.48952 15.5539 7.61003 15.6321C7.73054 15.7104 7.8694 15.7558 8.01285 15.764C8.15631 15.772 8.29939 15.7424 8.42793 15.6781C8.55646 15.614 8.66599 15.5174 8.74568 15.3978L14.8453 6.18341C14.9153 6.07841 14.9654 5.96342 14.9953 5.83843L15.3703 4.00354C15.4068 3.84758 15.3957 3.68424 15.3384 3.53467C15.2809 3.38509 15.1801 3.25617 15.0487 3.16459C14.9173 3.07302 14.7614 3.02302 14.6012 3.02106C14.4411 3.0191 14.284 3.06527 14.1503 3.1536L6.00586 8.14827C5.81587 8.26827 5.67589 8.44825 5.60088 8.65825V8.64823Z" fill="#68FEE2"/>
<path d="M7.86071 15.7491C8.13568 15.8141 8.44067 15.7391 8.65566 15.519L15.1752 3.27987C14.9253 2.99989 14.5653 2.95489 14.1904 3.17987L6.00582 8.14955C5.90584 8.21454 5.82084 8.28954 5.75586 8.37954L7.86071 15.754V15.7491Z" fill="#1FC9A8"/>
<path d="M12.0851 9.07524L11.3953 6.19043L10.8952 6.96539L11.6151 9.96521L12.0851 9.07524ZM10.9452 11.2151L9.85516 6.92538L8.61035 7.40036L9.92536 13.1299L10.9452 11.2151Z" fill="#A5E9DC"/>
<path d="M5.81543 8.32459L13.47 6.4447L15.1848 3.26491C15.056 3.12409 14.8819 3.03294 14.6927 3.00736C14.5036 2.98177 14.3115 3.02338 14.1499 3.12493L6.02541 8.14959C5.95043 8.19959 5.87543 8.2596 5.81543 8.32958V8.32459Z" fill="#19898A"/>
<path d="M18.3995 15.3479L18.9444 13.783C19.0344 13.5331 19.0145 13.2531 18.8945 13.0182L16.6746 8.67836C16.6088 8.55059 16.5108 8.44224 16.3903 8.364C16.2699 8.28575 16.131 8.24034 15.9875 8.23226C15.844 8.22419 15.7011 8.25371 15.5724 8.31792C15.4439 8.38213 15.3343 8.47879 15.2547 8.59836L9.15007 17.8128C9.08007 17.9178 9.03008 18.0327 9.00007 18.1577L8.6251 19.9926C8.59066 20.1519 8.60411 20.3176 8.66372 20.4691C8.72335 20.6207 8.82648 20.7512 8.96014 20.8442C9.0938 20.9371 9.25198 20.9884 9.41479 20.9919C9.57759 20.9951 9.73771 20.9501 9.87502 20.8624L17.9895 15.8529C18.1794 15.7329 18.3195 15.5529 18.3945 15.3429L18.3995 15.3479Z" fill="#68FEE2"/>
<path d="M16.1407 8.25885C16.0002 8.22263 15.8525 8.22437 15.7127 8.26389C15.5731 8.30344 15.4464 8.37932 15.3458 8.48383L8.82617 20.7279C9.07616 21.0029 9.49111 21.023 9.86105 20.793L17.9956 15.8583C18.0956 15.7983 18.1806 15.7183 18.2457 15.6284L16.1407 8.25885Z" fill="#1FC9A8"/>
<path d="M18.2499 15.6245L10.5403 17.5144L8.81543 20.7193C9.06042 20.9993 9.49038 21.1043 9.90531 20.8742L18.0497 15.8244C18.1297 15.7745 18.1998 15.7046 18.2499 15.6245Z" fill="#19898A"/>
<path d="M16.9503 11.0836L14.6502 9.78857L14.2803 10.4784L17.2552 12.1484L16.9503 11.0836ZM17.6451 13.5133L13.7655 11.4535L13.2305 12.4534C14.0554 12.8884 16.5302 14.2683 18.1152 15.1582L17.6451 13.5133Z" fill="#A5E9DC"/>
<path d="M7.50039 6.49951C7.50039 7.22946 6.82044 7.49444 6.48047 7.53444C6.82044 7.50945 7.4954 7.66444 7.4954 8.49938C7.4954 7.72943 8.15036 7.53444 8.48034 7.53444C7.69539 7.53444 7.4954 6.84448 7.4954 6.49951H7.50039ZM11.0103 7.99941C11.0103 8.36439 10.6701 8.49938 10.5001 8.51938C10.6701 8.50437 11.0103 8.58438 11.0103 8.99934C11.0103 8.61436 11.3351 8.51938 11.5003 8.51938C11.1053 8.51938 11.0103 8.1694 11.0103 7.99941ZM13.505 17.1237C13.505 17.3987 13.255 17.4988 13.1251 17.5138C13.2501 17.5038 13.505 17.5638 13.505 17.8739C13.505 17.5837 13.755 17.5138 13.875 17.5138C13.58 17.5138 13.505 17.2538 13.505 17.1237Z" fill="white"/>
</g>
<defs>
<clipPath id="clip0_328_35214">
<rect width="24" height="24" fill="white"/>
</clipPath>
</defs>
</svg>
