<svg width="24" height="24" viewBox="0 0 24 24" fill="none" xmlns="http://www.w3.org/2000/svg">
<g clip-path="url(#clip0_328_35235)">
<path d="M24 0H0V24H24V0Z" fill="url(#paint0_linear_328_35235)"/>
<path d="M9.5169 10.1883C9.81873 9.92358 10.6392 9.44708 11.5286 9.65355C12.4286 9.85473 14.1493 10.2624 14.9009 10.4424C15.5629 10.633 17.1616 10.7493 18.2575 9.64824C18.8091 9.10969 19.3339 8.5443 19.8298 7.95413C19.4063 8.2559 18.6122 8.64238 17.5798 8.55238C16.3882 8.41281 15.2043 8.21314 14.0329 7.95413C13.4224 7.79404 12.7805 7.7994 12.1728 7.96967C11.5653 8.13995 11.014 8.46899 10.5757 8.92296C11.174 8.69531 12.3492 8.36178 13.2016 8.55238C14.1228 8.75355 15.5045 9.10825 16.0817 9.26179C16.5052 9.34119 17.4952 9.47885 18.0352 9.35178C17.7386 9.47885 16.8386 9.65886 15.6421 9.35178C14.7508 9.12673 13.8522 8.9325 12.9475 8.76942C12.2752 8.66355 10.7557 8.66355 10.0357 9.51061C10.9086 9.10602 11.895 9.01805 12.8256 9.26179C13.1275 9.33061 13.4452 9.42062 13.7787 9.51061C15.2398 9.91829 16.8917 10.3736 18.0352 9.65355C17.7493 9.95002 16.8333 10.4794 15.441 10.1883C14.0382 9.89703 12.8099 9.61649 12.3705 9.51061C11.661 9.33061 10.1099 9.21942 9.5169 10.1883ZM5.03809 15.1806C5.33984 14.9159 6.16044 14.4394 7.05514 14.6459C7.94984 14.847 9.67567 15.2547 10.4222 15.4293C11.0839 15.6253 12.6828 15.7417 13.7787 14.6459C14.8745 13.55 15.4939 12.9147 15.6687 12.7401C15.2452 13.0419 14.1333 13.6294 13.101 13.5393C11.9093 13.3999 10.7254 13.2001 9.55399 12.9412C8.94314 12.7816 8.30088 12.7879 7.69324 12.9592C7.08563 13.1304 6.53461 13.4604 6.09691 13.9153C6.69513 13.6876 7.87043 13.3542 8.72279 13.5447C9.64393 13.7459 11.0257 14.1006 11.608 14.2489C12.0317 14.3336 13.0163 14.4712 13.5563 14.344C13.2599 14.4712 12.3598 14.6459 11.1633 14.344C10.2738 14.1192 9.37686 13.925 8.47395 13.7617C7.8016 13.6559 6.2769 13.6559 5.5622 14.5029C6.43287 14.0979 7.41728 14.0079 8.34691 14.2489C8.64866 14.3229 8.9716 14.4077 9.29985 14.5029C10.7663 14.9053 12.4129 15.3659 13.5563 14.6459C13.2757 14.9423 12.3598 15.4665 10.9622 15.1753C9.5593 14.8894 8.33103 14.6088 7.89161 14.5029C7.18749 14.3229 5.63103 14.2117 5.03809 15.1806Z" fill="white"/>
<path d="M18.0356 5.77881L5.67383 18.1246L6.16617 18.453L18.512 6.27644L18.0356 5.77881Z" fill="white"/>
<path d="M13.7996 14.3496C14.0642 14.0479 14.5408 13.2273 14.3342 12.3379C14.1331 11.4379 13.7254 9.7119 13.5454 8.96549C13.3548 8.30372 13.2384 6.70491 14.3396 5.60902C15.4301 4.51314 15.7055 4.24314 15.8801 4.07373C15.5784 4.49726 15.3508 5.25432 15.4354 6.28666C15.575 7.47833 15.7747 8.66219 16.0336 9.83372C16.2454 10.4584 16.3302 12.0149 15.0649 13.2908C15.2925 12.6926 15.6261 11.5173 15.4354 10.665C15.2342 9.74378 14.8796 8.36195 14.7261 7.7849C14.6465 7.36137 14.5089 6.37137 14.6361 5.82609C14.5089 6.12783 14.3342 7.02783 14.6361 8.22432C14.9377 9.42079 15.1496 10.5167 15.2185 10.9137C15.3242 11.5861 15.3242 13.1108 14.4772 13.8254C14.6889 13.4548 15.0438 12.3644 14.7261 11.0408C14.6487 10.7216 14.5657 10.4041 14.4772 10.0879C14.0696 8.62137 13.6142 6.97491 14.3342 5.83137C14.0378 6.11197 13.5084 7.02783 13.7996 8.42549C14.0121 9.45191 14.238 10.4755 14.4772 11.496C14.6572 12.2002 14.7684 13.7567 13.7996 14.3496ZM8.9819 18.9925C9.24662 18.6907 9.72306 17.8702 9.51662 16.9754C9.31544 16.0756 8.90779 14.3549 8.72779 13.6031C8.5372 12.9413 8.42074 11.3479 9.51662 10.252C10.6125 9.15608 11.2425 8.53666 11.4225 8.36195C11.1155 8.78549 10.5331 9.89717 10.6178 10.9297C10.7078 11.962 11.0519 13.7196 11.2161 14.4713C11.4278 15.096 11.5125 16.6525 10.2472 17.9284C10.4749 17.3356 10.8031 16.155 10.6178 15.3079C10.398 14.342 10.1614 13.3801 9.90835 12.4225C9.82364 11.999 9.69132 11.0143 9.81846 10.4744C9.69132 10.7708 9.51132 11.6708 9.81846 12.8672C10.1201 14.0637 10.3319 15.1596 10.4008 15.5567C10.5065 16.229 10.5065 17.7536 9.65957 18.4684C9.87134 18.0925 10.2261 17.0073 9.90835 15.6836C9.8395 15.3819 9.7495 15.059 9.65957 14.7308C9.25189 13.2644 8.79662 11.6179 9.51662 10.4744C9.22014 10.7549 8.69073 11.6708 8.9819 13.0684C9.19448 14.0949 9.42037 15.1184 9.65957 16.139C9.83421 16.8431 9.95076 18.3996 8.9819 18.9925ZM4.3125 15.7737L6.31367 13.799C5.14367 15.2019 5.64661 17.5261 6.04367 18.5108L4.96367 17.0814L4.81014 15.7737L4.6725 17.0814L4.3125 15.7737ZM18.5642 9.52666C18.8078 9.0396 19.2048 7.79549 18.8659 6.72079L19.8031 7.67372C19.7713 7.99137 19.6019 8.69549 19.1836 8.97608C19.3319 8.67431 19.6019 7.97019 19.5012 7.55196L19.1836 7.34019C19.2631 7.86432 19.2578 9.0449 18.5642 9.53193V9.52666Z" fill="white"/>
<path fill-rule="evenodd" clip-rule="evenodd" d="M12 21C14.387 21 16.6762 20.0517 18.3639 18.3639C20.0517 16.6762 21 14.387 21 12C21 9.61306 20.0517 7.32386 18.3639 5.63603C16.6762 3.94822 14.387 3 12 3C9.61306 3 7.32386 3.94822 5.63603 5.63603C3.94822 7.32386 3 9.61306 3 12C3 14.387 3.94822 16.6762 5.63603 18.3639C7.32386 20.0517 9.61306 21 12 21ZM12 20.4706C14.2465 20.4706 16.401 19.5782 17.9896 17.9896C19.5782 16.401 20.4706 14.2465 20.4706 12C20.4706 9.75338 19.5782 7.59892 17.9896 6.01039C16.401 4.42184 14.2465 3.5294 12 3.5294C9.75338 3.5294 7.59892 4.42184 6.01039 6.01039C4.42184 7.59892 3.5294 9.75338 3.5294 12C3.5294 14.2465 4.42184 16.401 6.01039 17.9896C7.59892 19.5782 9.75338 20.4706 12 20.4706Z" fill="white"/>
</g>
<defs>
<linearGradient id="paint0_linear_328_35235" x1="6.77181" y1="8.66176" x2="18.1389" y2="9.7612" gradientUnits="userSpaceOnUse">
<stop offset="0.03" stop-color="#100E0E"/>
<stop offset="0.08" stop-color="#908D89"/>
<stop offset="0.32" stop-color="#110E0E"/>
<stop offset="0.48" stop-color="#979492"/>
<stop offset="0.54" stop-color="#0F0D0D"/>
<stop offset="0.57" stop-color="#0F0C0D"/>
<stop offset="0.61" stop-color="#7E7873"/>
<stop offset="0.72" stop-color="#C8C7C7"/>
<stop offset="0.85" stop-color="#6E6662"/>
<stop offset="1" stop-color="#0A0808"/>
</linearGradient>
<clipPath id="clip0_328_35235">
<rect width="24" height="24" fill="white"/>
</clipPath>
</defs>
</svg>
