<svg width="24" height="24" viewBox="0 0 24 24" fill="none" xmlns="http://www.w3.org/2000/svg">
<g clip-path="url(#clip0_328_35235)">
<path d="M24 0H0V24H24V0Z" fill="url(#paint0_linear_328_35235)"/>
<path d="M9.79269 10.3895C10.061 10.1542 10.7903 9.73068 11.5809 9.91421C12.3809 10.093 13.9104 10.4554 14.5785 10.6154C15.1669 10.7848 16.588 10.8882 17.5621 9.90949C18.0524 9.43078 18.5189 8.92821 18.9597 8.40362C18.5833 8.67186 17.8774 9.01539 16.9597 8.93539C15.9005 8.81133 14.8482 8.63385 13.8069 8.40362C13.2643 8.26131 12.6937 8.26608 12.1535 8.41743C11.6135 8.56879 11.1235 8.86127 10.7339 9.2648C11.2657 9.06244 12.3103 8.76597 13.068 8.93539C13.8868 9.11421 15.115 9.4295 15.6281 9.56598C16.0045 9.63656 16.8845 9.75892 17.3645 9.64597C17.1009 9.75892 16.3009 9.91893 15.2373 9.64597C14.4451 9.44593 13.6463 9.27328 12.8421 9.12832C12.2445 9.03421 10.8939 9.03421 10.2539 9.78715C11.0298 9.42752 11.9066 9.34932 12.7338 9.56598C13.0021 9.62715 13.2845 9.70716 13.581 9.78715C14.8797 10.1495 16.3481 10.5542 17.3645 9.91421C17.1104 10.1777 16.2962 10.6483 15.0586 10.3895C13.8116 10.1306 12.7198 9.88127 12.3292 9.78715C11.6986 9.62715 10.3198 9.52832 9.79269 10.3895ZM5.81152 14.8271C6.07975 14.5918 6.80917 14.1683 7.60446 14.3518C8.39975 14.5306 9.93382 14.893 10.5974 15.0482C11.1856 15.2224 12.6068 15.3259 13.581 14.3518C14.555 13.3777 15.1056 12.813 15.261 12.6578C14.8845 12.926 13.8962 13.4483 12.9786 13.3682C11.9193 13.2443 10.8669 13.0667 9.82566 12.8365C9.28268 12.6947 8.71178 12.7003 8.17166 12.8525C7.63156 13.0047 7.14176 13.298 6.7527 13.7024C7.28445 13.5 8.32916 13.2036 9.08681 13.373C9.9056 13.5518 11.1339 13.8671 11.6515 13.9989C12.0281 14.0742 12.9033 14.1965 13.3833 14.0835C13.1198 14.1965 12.3197 14.3518 11.2562 14.0835C10.4655 13.8836 9.66821 13.711 8.86562 13.5659C8.26798 13.4718 6.91269 13.4718 6.2774 14.2247C7.05133 13.8647 7.92636 13.7847 8.7527 13.9989C9.02092 14.0647 9.30798 14.1401 9.59975 14.2247C10.9033 14.5824 12.3669 14.9918 13.3833 14.3518C13.1339 14.6153 12.3197 15.0812 11.0774 14.8224C9.83038 14.5683 8.73858 14.3188 8.34799 14.2247C7.7221 14.0647 6.33858 13.9659 5.81152 14.8271Z" fill="white"/>
<path d="M17.3652 6.47021L6.37695 17.4443L6.81459 17.7362L17.7887 6.91256L17.3652 6.47021Z" fill="white"/>
<path d="M13.5995 14.0887C13.8347 13.8205 14.2583 13.0911 14.0747 12.3005C13.8959 11.5005 13.5335 9.9663 13.3735 9.30282C13.2041 8.71458 13.1006 7.29342 14.0795 6.31929C15.0488 5.34518 15.2936 5.10518 15.4488 4.95459C15.1806 5.33106 14.9783 6.004 15.0535 6.92164C15.1776 7.9809 15.3551 9.03322 15.5853 10.0746C15.7735 10.6299 15.8489 12.0134 14.7242 13.1476C14.9265 12.6158 15.223 11.5711 15.0535 10.8135C14.8747 9.99463 14.5595 8.76634 14.423 8.25341C14.3523 7.87694 14.23 6.99694 14.343 6.51224C14.23 6.78046 14.0747 7.58046 14.343 8.644C14.6111 9.70753 14.7995 10.6817 14.8607 11.0346C14.9547 11.6323 14.9547 12.9876 14.2018 13.6228C14.39 13.2933 14.7054 12.3241 14.423 11.1476C14.3542 10.8638 14.2805 10.5816 14.2018 10.3005C13.8395 8.99694 13.4347 7.53342 14.0747 6.51694C13.8112 6.76636 13.3406 7.58046 13.5995 8.82282C13.7884 9.73519 13.9892 10.6451 14.2018 11.5522C14.3618 12.1781 14.4606 13.5617 13.5995 14.0887ZM9.31708 18.2157C9.55238 17.9475 9.97589 17.2181 9.79238 16.4228C9.61356 15.6229 9.2512 14.0934 9.0912 13.4252C8.92179 12.8369 8.81827 11.4205 9.79238 10.4464C10.7665 9.47223 11.3265 8.92164 11.4865 8.76634C11.2136 9.14282 10.6959 10.131 10.7712 11.0488C10.8512 11.9664 11.1571 13.5287 11.303 14.1969C11.4912 14.7522 11.5665 16.1357 10.4418 17.2699C10.6442 16.7429 10.9359 15.6935 10.7712 14.9405C10.5758 14.082 10.3655 13.2269 10.1406 12.3757C10.0653 11.9993 9.94767 11.124 10.0607 10.6441C9.94767 10.9076 9.78767 11.7076 10.0607 12.771C10.3288 13.8346 10.5171 14.8087 10.5783 15.1617C10.6723 15.7593 10.6723 17.1145 9.91945 17.7499C10.1077 17.4157 10.423 16.4511 10.1406 15.2745C10.0794 15.0063 9.99939 14.7193 9.91945 14.4276C9.55707 13.1241 9.15238 11.6605 9.79238 10.6441C9.52885 10.8934 9.05826 11.7076 9.31708 12.9499C9.50604 13.8623 9.70683 14.7721 9.91945 15.6793C10.0747 16.3052 10.1783 17.6887 9.31708 18.2157ZM5.1665 15.3546L6.94532 13.5993C5.90532 14.8463 6.35238 16.9123 6.70532 17.7876L5.74532 16.517L5.60885 15.3546L5.4865 16.517L5.1665 15.3546ZM17.8347 9.80164C18.0512 9.3687 18.4041 8.26282 18.1029 7.30753L18.9359 8.15458C18.9077 8.43694 18.7571 9.06282 18.3853 9.31223C18.5171 9.04399 18.7571 8.41811 18.6676 8.04635L18.3853 7.85811C18.4559 8.324 18.4512 9.37341 17.8347 9.80632V9.80164Z" fill="white"/>
<path fill-rule="evenodd" clip-rule="evenodd" d="M12 20C14.1218 20 16.1566 19.1571 17.6568 17.6568C19.1571 16.1566 20 14.1218 20 12C20 9.87828 19.1571 7.84343 17.6568 6.34314C16.1566 4.84286 14.1218 4 12 4C9.87828 4 7.84343 4.84286 6.34314 6.34314C4.84286 7.84343 4 9.87828 4 12C4 14.1218 4.84286 16.1566 6.34314 17.6568C7.84343 19.1571 9.87828 20 12 20ZM12 19.5294C13.9969 19.5294 15.912 18.7362 17.3241 17.3241C18.7362 15.912 19.5294 13.9969 19.5294 12C19.5294 10.003 18.7362 8.08793 17.3241 6.6759C15.912 5.26386 13.9969 4.47058 12 4.47058C10.003 4.47058 8.08793 5.26386 6.6759 6.6759C5.26386 8.08793 4.47058 10.003 4.47058 12C4.47058 13.9969 5.26386 15.912 6.6759 17.3241C8.08793 18.7362 10.003 19.5294 12 19.5294Z" fill="white"/>
</g>
<defs>
<linearGradient id="paint0_linear_328_35235" x1="6.77181" y1="8.66176" x2="18.1389" y2="9.7612" gradientUnits="userSpaceOnUse">
<stop offset="0.03" stop-color="#100E0E"/>
<stop offset="0.08" stop-color="#908D89"/>
<stop offset="0.32" stop-color="#110E0E"/>
<stop offset="0.48" stop-color="#979492"/>
<stop offset="0.54" stop-color="#0F0D0D"/>
<stop offset="0.57" stop-color="#0F0C0D"/>
<stop offset="0.61" stop-color="#7E7873"/>
<stop offset="0.72" stop-color="#C8C7C7"/>
<stop offset="0.85" stop-color="#6E6662"/>
<stop offset="1" stop-color="#0A0808"/>
</linearGradient>
<clipPath id="clip0_328_35235">
<rect width="24" height="24" fill="white"/>
</clipPath>
</defs>
</svg>
