<svg width="24" height="24" viewBox="0 0 24 24" fill="none" xmlns="http://www.w3.org/2000/svg">
<g clip-path="url(#clip0_328_35247)">
<path d="M24 0H0V24H24V0Z" fill="#12CF9C"/>
<path d="M8.06998 5.03076L10.5 14.7508L20 11.9707V12.0007C19.9997 13.4084 19.6278 14.791 18.9223 16.009C18.2167 17.227 17.2022 18.2372 15.9813 18.9378C14.7604 19.6384 13.3762 20.0044 11.9686 19.9988C10.561 19.9933 9.17974 19.6165 7.96433 18.9065C6.74894 18.1963 5.74241 17.1781 5.04639 15.9545C4.35038 14.731 3.98951 13.3455 4.00023 11.938C4.01094 10.5304 4.39287 9.15055 5.10743 7.93778C5.822 6.72501 6.84391 5.72225 8.06998 5.03076Z" fill="white"/>
<path d="M10.2007 4.19986L12.2506 11.4999L19.6306 9.59484C19.4306 8.94984 19.1456 8.34485 18.7957 7.77984L13.7506 9.24984L12.3857 4.00985C11.6518 3.97548 10.9168 4.04108 10.2007 4.20485V4.19986Z" fill="#67E0BF"/>
</g>
<defs>
<clipPath id="clip0_328_35247">
<rect width="24" height="24" fill="white"/>
</clipPath>
</defs>
</svg>
