<svg width="24" height="24" viewBox="0 0 24 24" fill="none" xmlns="http://www.w3.org/2000/svg">
<g clip-path="url(#clip0_328_55417)">
<path d="M24 0H0V24H24V0Z" fill="black"/>
<path d="M4.00049 20.0002V16.267H9.051L11.4669 20.0002H4.00049ZM4.00049 10.4004V13.6004H10.7362C11.1629 13.6004 12.0003 13.3337 12.0003 12.0005C12.0003 10.6671 11.1576 10.4004 10.7362 10.4004H4.00049Z" fill="white"/>
<path d="M4.00049 4H16.2935C17.9735 4 19.9999 4.9013 19.9999 6.84791V9.63717C19.9999 10.5759 19.4772 11.4025 18.7201 11.9251C19.7227 12.405 19.9999 13.541 19.9999 14.1491V17.1516C19.9999 19.0556 17.4401 19.9995 15.8668 19.9995H14.8641L11.9523 15.6316L12.4056 15.5943C14.1122 15.4557 14.736 13.4504 14.736 11.9998C14.736 10.1279 13.7123 7.73322 11.5682 7.73322H4.00049V4ZM4.53915 4.53866V7.1999H11.5736C14.0215 7.1999 15.2801 9.82918 15.2801 12.005C15.2801 13.589 14.6188 15.6423 12.8909 16.0691L15.1575 19.4663H15.8721C17.1308 19.4663 19.4667 18.7302 19.4667 17.1568V14.1544C19.4667 13.2584 18.912 12.3944 17.984 12.2717L17.92 11.7544C18.7841 11.429 19.4667 10.5812 19.4667 9.64252V6.85325C19.4667 5.21595 17.6694 4.54398 16.2987 4.54398H4.53915V4.53866Z" fill="white"/>
</g>
<defs>
<clipPath id="clip0_328_55417">
<rect width="24" height="24" fill="white"/>
</clipPath>
</defs>
</svg>
