<svg width="24" height="24" viewBox="0 0 24 24" fill="none" xmlns="http://www.w3.org/2000/svg">
<g clip-path="url(#clip0_328_55498)">
<path d="M24 0H0V24H24V0Z" fill="white"/>
<path d="M12.7289 11.5176C12.2489 11.7265 11.9289 12.1398 11.9111 12.1576V12.242C11.9777 12.2776 12.1644 12.3531 12.3911 12.3886C12.6711 12.4331 13.1466 12.4598 13.5332 12.442C13.9199 12.4197 14.4843 12.2998 15.0042 12.1576C15.4221 12.042 15.9776 11.8242 16.2042 11.7309C16.2131 11.722 16.222 11.691 16.1553 11.6288C16.0395 11.4927 15.9614 11.3288 15.9287 11.1532C15.9154 11.0332 15.9465 10.9088 15.9642 10.8643H15.7198C15.4087 10.9088 14.6621 11.0154 14.1733 11.0732C13.5643 11.1443 13.2133 11.3088 12.7289 11.5176Z" fill="url(#paint0_linear_328_55498)"/>
<path d="M14.3915 11.0459L14.0892 11.0815L14.0182 11.3838L13.8448 11.4726L13.747 11.6192L13.7026 11.7837L13.7737 11.9615L13.9692 12.0192L14.1292 12.0414L14.1915 12.1436L14.3248 12.3392L14.7381 12.2504L14.5781 12.0592L14.5248 11.9126C14.6048 11.8236 14.7692 11.6148 14.7604 11.4993C14.7559 11.3838 14.6225 11.3393 14.5559 11.3303H14.3515L14.3915 11.0459Z" fill="url(#paint1_linear_328_55498)"/>
<path d="M12.8045 19.6588L11.8135 19.8543L10.6891 18.8055L9.19137 17.4322L8.16031 16.5434V16.4812L8.11587 14.7747C7.46256 14.2146 7.13815 12.5436 7.0537 11.7748L7.00926 10.8281C6.68039 10.7392 6.58262 10.4415 6.57373 10.3082C6.57373 9.93038 6.83149 9.77041 6.95593 9.73042V8.90824L7.00037 7.99274C7.60923 8.08162 9.21803 8.18828 10.7868 7.91719C12.3601 7.65053 13.2756 7.15278 13.5333 6.93945L13.8356 7.68165L14.0266 8.45938L13.7378 8.31272L13.4622 8.28161C13.3298 8.2743 13.1973 8.29425 13.073 8.34022C12.9486 8.38619 12.835 8.4572 12.7392 8.54885C12.6434 8.64051 12.5674 8.75085 12.5159 8.87306C12.4645 8.99527 12.4386 9.12674 12.44 9.25934C12.44 9.84597 12.8712 10.1349 12.9646 10.2015C13.0534 10.2638 13.0933 10.2638 13.5333 10.2638C13.8889 10.2638 14.0666 10.117 14.1199 10.0415V11.0637C13.4926 11.1454 12.8953 11.3821 12.3822 11.7525H11.209C10.4801 11.7392 9.56469 11.9081 9.2047 11.9969C9.29363 12.1081 9.47136 12.3392 9.47136 12.3525C10.3469 12.7658 12.0579 12.5881 12.8045 12.4502C13.3511 12.4903 14.1644 12.3748 14.4977 12.317C14.4889 12.5213 14.3822 13.0902 14.3289 13.3479C14.1803 13.9702 13.8398 14.5299 13.3556 14.9479L13.0666 15.1435L13.1067 17.3523L12.9646 18.8055L12.8045 19.6588Z" fill="url(#paint2_linear_328_55498)"/>
<path d="M5.15576 17.8143C6.22238 18.7652 9.04888 20.5074 11.822 19.8585L9.48002 17.672L8.81334 17.1077L8.15559 16.5299L8.12449 15.3477L7.54674 15.761L7.11121 16.0988C7.08663 16.1413 7.07371 16.1896 7.07371 16.2388C7.07371 16.2879 7.08663 16.3363 7.11121 16.3788L6.50236 16.8365L5.1602 17.8143H5.15576ZM13.0797 15.6232V16.6854L13.1108 17.3965L12.9553 18.952L12.8087 19.663C13.653 19.4408 15.5996 18.7253 16.6084 17.6587L14.2129 16.5788L14.1597 16.4543L13.0797 15.6232Z" fill="#4B594B"/>
<path d="M5.60903 18.1791L7.06672 16.8236L7.52448 18.8191C7.45782 18.8502 7.32449 18.9256 7.32449 18.9657C7.32449 19.01 7.45782 19.0635 7.52448 19.0901L9.15105 19.8145H9.55546L7.48892 18.9035L7.79557 18.7612L9.05772 18.3168V17.5302L11.582 19.9122L11.8219 19.8589L9.97326 18.1347L9.29331 17.5125L8.81775 17.1124L8.15555 16.5258L8.12889 15.4636L8.12444 15.3525L7.54669 15.7614L7.18227 16.0414L7.83113 16.348H7.47559L8.07111 16.6014L8.7733 17.3124L8.36443 17.5346C8.21333 17.6546 7.90667 17.9212 7.89335 17.9923C7.87557 18.0812 7.90667 18.2146 8.04445 18.2146L8.6533 18.2368C8.71108 18.2191 8.83107 18.1347 8.82218 17.9568L8.91996 18.2368L8.56442 18.3657C8.3511 18.3524 7.88446 18.2946 7.73335 18.1613C7.7378 18.0546 7.73335 17.8102 7.67558 17.6768C7.61781 17.5435 7.28894 16.5658 7.13338 16.0992C7.10255 16.1376 7.0826 16.1837 7.07561 16.2325C7.07561 16.2769 7.08005 16.3258 7.11117 16.3791L7.04451 16.428C7.02229 16.4503 6.99561 16.4725 6.9645 16.4902L6.50231 16.8369L5.16016 17.8147C5.28459 17.9257 5.43571 18.0501 5.60458 18.1791H5.60903ZM12.9863 18.6367L13.0041 18.5123L13.1063 17.468V17.4234L13.1108 17.3968V16.3258L13.0797 15.9792V15.6236L13.1019 15.6414L13.5019 15.9837L13.2219 16.3747L13.4486 16.2725L13.2708 16.4725L13.293 16.9879L13.4974 16.7702L13.2753 17.2413C13.3107 17.228 13.4308 17.1969 13.6219 17.1969C13.8085 17.1969 14.0752 17.2368 14.1818 17.2591L13.7108 17.8813C13.7063 17.9169 13.7196 17.9923 13.8041 17.9879C13.893 17.9835 14.2218 17.7346 14.3729 17.6102L14.0441 16.3658L14.1596 16.4547L14.2129 16.5792L14.2263 16.588L14.5508 17.6991L14.444 17.8057L14.6352 17.9879L13.964 18.0546H13.6752L13.2442 17.5479L13.2219 18.0369C13.1955 18.1327 13.1791 18.231 13.1731 18.3301C13.1731 18.4279 13.0575 19.3168 12.9953 19.6145L12.8353 19.659L12.8975 19.2367L12.9553 18.9523L12.9863 18.6367ZM15.2796 18.6501C14.8351 18.9035 14.3684 19.1123 13.9463 19.2812L15.0352 17.9568L15.1952 17.9747L15.0352 18.1658L15.6707 18.4147C15.604 18.459 15.5373 18.5035 15.4617 18.5434L14.9729 18.2946L14.7952 18.4946L15.2796 18.6501Z" fill="#2D352D"/>
<path d="M8.41347 8.09007C7.56018 8.1123 7.0802 8.01897 6.95133 7.96564L6.8891 7.74344L6.858 7.619L6.43136 7.66343L6.13358 7.58789L5.77806 7.45456L5.40918 7.11236V6.87237L5.59584 6.62794L5.96026 6.34351L6.45801 6.01908L7.09798 5.65465L7.58684 5.48134L7.77795 5.24579L8.15126 4.91247L8.50235 4.61027L8.96899 4.34362L9.53788 4.13918L9.93784 4.06364L10.4266 4.03253H11.4623L12.4266 4.00586C12.6042 4.00586 13.0044 4.03253 13.2355 4.12141C13.4665 4.21029 13.6354 4.33028 13.6887 4.38362L13.8843 4.67249L13.9599 4.98359L13.8843 5.20579L13.5154 5.74798V6.37906L13.5954 6.50349L13.6488 6.73905L13.5642 6.92125C13.3865 7.03681 12.9643 7.29012 12.6976 7.37901C12.3598 7.48567 11.7999 7.65455 11.2932 7.79677C10.7822 7.93898 9.48447 8.05897 8.41347 8.08564V8.09007Z" fill="#393F3E"/>
<path d="M13.6709 17.7344L13.3687 17.3345V17.2901L13.4176 17.2234L13.4842 17.2012L14.1198 17.2545L14.2087 17.2901L14.2264 17.3567L14.2042 17.4367L13.982 17.65L13.8398 17.7834H13.7509L13.6709 17.7301V17.7344Z" fill="url(#paint3_linear_328_55498)"/>
<path d="M8.54655 17.3616L7.99546 17.926L7.96436 18.046L8.02657 18.135L8.60876 18.1393L8.73321 18.135L8.80431 18.0149L8.74653 17.415L8.63543 17.335L8.54655 17.3616Z" fill="url(#paint4_linear_328_55498)"/>
<path d="M8.56013 17.5391L8.17348 17.948L8.16016 17.9834L8.20904 17.9924H8.48902L8.60902 17.939L8.62235 17.859L8.60902 17.5612L8.56013 17.5391Z" fill="#9F0111"/>
<path d="M9.58221 18.0455C9.58356 18.0386 9.58335 18.0313 9.58179 18.0243C9.58024 18.0174 9.57734 18.0109 9.57319 18.005C9.56904 17.9993 9.56375 17.9944 9.55763 17.9906C9.55162 17.9869 9.54488 17.9844 9.53783 17.9833C9.53078 17.982 9.52362 17.9822 9.51667 17.9838C9.50973 17.9854 9.50309 17.9882 9.49728 17.9924C9.49147 17.9966 9.4866 18.0018 9.48287 18.0078C9.47914 18.014 9.47665 18.0207 9.47561 18.0278L9.37336 18.7654L8.61785 19.0322C8.58674 19.041 8.57341 19.0721 8.58229 19.0989C8.59563 19.1255 8.62673 19.1432 8.6534 19.1299L9.35563 18.8854L9.27112 19.4899C9.27112 19.521 9.28895 19.5477 9.3156 19.5521C9.34671 19.5521 9.37336 19.5344 9.37782 19.5076L9.46669 18.841L10.0622 18.6366C10.0889 18.6278 10.1066 18.5966 10.0933 18.57C10.0908 18.5631 10.087 18.5568 10.0821 18.5515C10.0772 18.5462 10.0711 18.542 10.0645 18.5391C10.0579 18.5361 10.0506 18.5346 10.0433 18.5346C10.0361 18.5346 10.0289 18.536 10.0222 18.5389L9.48888 18.7255L9.57775 18.0411L9.58221 18.0455Z" fill="url(#paint5_linear_328_55498)"/>
<path d="M9.54272 17.9297C9.60049 17.9386 9.64486 17.992 9.63159 18.0497L9.556 18.6453L10.0094 18.4853C10.0671 18.4675 10.1293 18.4941 10.1471 18.5519C10.1558 18.5779 10.1542 18.6062 10.1426 18.631C10.1311 18.6558 10.1104 18.6754 10.0849 18.6853L9.52488 18.8852L9.43602 19.5118C9.43166 19.5394 9.41663 19.5642 9.39412 19.5808C9.37172 19.5974 9.34373 19.6046 9.31604 19.6007C9.28929 19.5963 9.26523 19.5819 9.24876 19.5606C9.23225 19.5391 9.22453 19.5122 9.22714 19.4852L9.29385 18.9653L8.67162 19.183C8.64509 19.1915 8.61629 19.1893 8.59138 19.1768C8.56646 19.1643 8.54741 19.1427 8.53828 19.1163C8.52979 19.0898 8.53201 19.061 8.54446 19.0361C8.55692 19.0112 8.57863 18.9921 8.60495 18.983L9.32931 18.7253L9.4271 18.023C9.42876 18.009 9.43322 17.9955 9.44016 17.9831C9.44712 17.9708 9.45644 17.96 9.46754 17.9513C9.47874 17.9426 9.4915 17.9362 9.50519 17.9325C9.51888 17.9288 9.53308 17.9278 9.54708 17.9297H9.54272ZM9.3738 18.7652L8.61829 19.0319C8.58718 19.0407 8.57384 19.0718 8.58273 19.0986C8.59606 19.1253 8.62718 19.143 8.65383 19.1298L9.35607 18.8852L9.27155 19.4897C9.27155 19.5208 9.28939 19.5474 9.31604 19.5518C9.34715 19.5518 9.3738 19.5342 9.37826 19.5074L9.46712 18.8408L10.0627 18.6363C10.0893 18.6275 10.1071 18.5964 10.0938 18.5697C10.0913 18.5629 10.0875 18.5565 10.0826 18.5513C10.0776 18.546 10.0716 18.5417 10.0649 18.5389C10.0583 18.5358 10.0511 18.5344 10.0438 18.5343C10.0365 18.5343 10.0294 18.5357 10.0226 18.5386L9.48932 18.7253L9.57819 18.0409C9.57953 18.0274 9.5757 18.0139 9.56741 18.0031C9.55921 17.9925 9.54718 17.9853 9.5338 17.983C9.52032 17.9817 9.50684 17.9856 9.49616 17.9939C9.48538 18.0021 9.47822 18.0141 9.47604 18.0275L9.3738 18.7652Z" fill="black"/>
<path d="M13.1555 18.6941C13.15 18.696 13.1448 18.6991 13.1404 18.7031C13.136 18.7071 13.1324 18.7119 13.13 18.7173C13.1275 18.7227 13.1261 18.7285 13.126 18.7344C13.1257 18.7404 13.1268 18.7462 13.1288 18.7518C13.1308 18.758 13.134 18.7636 13.1383 18.7684C13.1426 18.7732 13.1479 18.7769 13.1538 18.7796C13.1597 18.782 13.1662 18.7832 13.1726 18.7831C13.179 18.7829 13.1853 18.7813 13.1911 18.7785L13.7733 18.5563L14.2888 19.014C14.311 19.0318 14.3377 19.0274 14.3555 19.014C14.3599 19.0096 14.3633 19.0041 14.3657 18.9982C14.3678 18.9923 14.3688 18.986 14.3683 18.9796C14.3679 18.9733 14.3661 18.9672 14.3632 18.9616C14.3601 18.956 14.356 18.9512 14.351 18.9473L13.871 18.5207L14.351 18.334C14.3566 18.332 14.3617 18.329 14.3661 18.325C14.3705 18.321 14.3741 18.3162 14.3765 18.3108C14.379 18.3054 14.3804 18.2996 14.3805 18.2937C14.3808 18.2877 14.3798 18.2818 14.3777 18.2763C14.3758 18.2702 14.3726 18.2644 14.3682 18.2597C14.364 18.2549 14.3587 18.2511 14.3528 18.2486C14.3468 18.246 14.3405 18.2448 14.334 18.245C14.3276 18.2452 14.3213 18.2468 14.3154 18.2496L13.791 18.4496L13.3911 18.0941C13.3869 18.0893 13.3817 18.0855 13.376 18.083C13.3702 18.0804 13.364 18.0791 13.3577 18.0791C13.3515 18.0791 13.3452 18.0804 13.3394 18.083C13.3337 18.0855 13.3285 18.0893 13.3244 18.0941C13.32 18.0985 13.3165 18.1039 13.3143 18.1099C13.312 18.1158 13.3112 18.1221 13.3116 18.1284C13.312 18.1347 13.3137 18.1408 13.3168 18.1464C13.3196 18.152 13.3238 18.1569 13.3288 18.1607L13.6977 18.4852L13.1555 18.6941Z" fill="url(#paint6_linear_328_55498)"/>
<path d="M13.0887 18.7702C13.0836 18.7593 13.0808 18.7472 13.0806 18.7351C13.0803 18.7229 13.0826 18.7109 13.0871 18.6997C13.0917 18.6884 13.0986 18.6782 13.1073 18.6697C13.1158 18.6613 13.1262 18.6546 13.1375 18.6502L13.6087 18.4725L13.2975 18.1925C13.2797 18.1764 13.2688 18.1538 13.2672 18.1299C13.2655 18.1058 13.2732 18.082 13.2887 18.0636C13.2967 18.0539 13.3067 18.046 13.318 18.0404C13.3293 18.0348 13.3418 18.0317 13.3543 18.0313C13.3669 18.0309 13.3795 18.0332 13.3912 18.0379C13.4028 18.0428 13.4133 18.05 13.422 18.0592L13.7998 18.3969L14.2975 18.2058C14.3419 18.1881 14.3996 18.2147 14.4175 18.2592C14.4226 18.2702 14.4253 18.2821 14.4255 18.2942C14.4258 18.3064 14.4236 18.3185 14.419 18.3297C14.4144 18.341 14.4075 18.3512 14.3989 18.3597C14.3902 18.3682 14.3799 18.3749 14.3686 18.3792L13.9553 18.5347L14.3775 18.9125C14.4175 18.948 14.4219 19.0013 14.3908 19.0457C14.3824 19.0552 14.3722 19.0629 14.3607 19.0681C14.3492 19.0733 14.3367 19.0758 14.3242 19.0758C14.3115 19.0758 14.2991 19.0733 14.2875 19.0681C14.276 19.0629 14.2658 19.0552 14.2575 19.0457L13.7687 18.6102L13.2087 18.8235C13.1857 18.8322 13.1602 18.8316 13.1377 18.8216C13.1153 18.8116 13.0976 18.7932 13.0887 18.7702ZM13.7731 18.5569L14.2886 19.0146C14.3108 19.0325 14.3375 19.028 14.3553 19.0146C14.3597 19.0101 14.3631 19.0048 14.3655 18.9989C14.3676 18.9929 14.3686 18.9866 14.3681 18.9803C14.3677 18.974 14.3659 18.9679 14.363 18.9623C14.3599 18.9567 14.3558 18.9519 14.3508 18.948L13.8708 18.5213L14.3508 18.3347C14.3564 18.3327 14.3615 18.3296 14.3659 18.3257C14.3703 18.3217 14.3739 18.3169 14.3763 18.3115C14.3788 18.3061 14.3802 18.3003 14.3803 18.2944C14.3806 18.2884 14.3796 18.2825 14.3775 18.2769C14.3756 18.2709 14.3724 18.2651 14.368 18.2604C14.3638 18.2556 14.3585 18.2517 14.3526 18.2493C14.3466 18.2466 14.3403 18.2455 14.3338 18.2457C14.3274 18.2458 14.3211 18.2474 14.3152 18.2503L13.7908 18.4502L13.3909 18.0948C13.3867 18.09 13.3815 18.0862 13.3759 18.0836C13.37 18.081 13.3639 18.0797 13.3575 18.0797C13.3513 18.0797 13.3451 18.081 13.3392 18.0836C13.3335 18.0862 13.3283 18.09 13.3242 18.0948C13.3198 18.0992 13.3163 18.1046 13.314 18.1105C13.3119 18.1164 13.311 18.1228 13.3114 18.1291C13.3118 18.1354 13.3135 18.1415 13.3166 18.1471C13.3195 18.1527 13.3236 18.1576 13.3287 18.1614L13.6975 18.4858L13.1553 18.6947C13.1498 18.6967 13.1446 18.6997 13.1402 18.7037C13.1358 18.7077 13.1323 18.7125 13.1298 18.718C13.1273 18.7233 13.1259 18.7292 13.1258 18.7351C13.1255 18.741 13.1266 18.7469 13.1286 18.7525C13.1306 18.7586 13.1338 18.7643 13.1381 18.7691C13.1424 18.7738 13.1477 18.7776 13.1536 18.7801C13.1595 18.7827 13.1659 18.7839 13.1724 18.7837C13.1788 18.7836 13.1851 18.782 13.1909 18.7792L13.7731 18.5569Z" fill="black"/>
<path d="M14.0444 17.3477L13.5288 17.3076L13.7288 17.6142L14.0444 17.3477Z" fill="#9F0111"/>
<path d="M11.5112 15.0864C8.8448 15.0864 7.54264 12.9399 7.22266 11.8643C7.24933 12.6154 7.55153 14.2642 8.51148 14.8997C9.46698 15.5308 9.67137 15.4864 9.96473 15.5753C9.57368 15.5308 8.70258 15.3397 8.33371 14.962C8.31149 15.193 8.27594 15.6552 8.33371 15.6552C8.40926 15.6552 10.1113 17.353 12.5156 17.1396L13.0756 17.0195V16.6551C13.0179 16.6996 12.8979 16.7085 12.8979 16.3441V15.2286C13.2 15.0908 13.84 14.6509 14.0045 13.9976C13.1112 15.1041 11.6491 15.0464 11.5157 15.0864H11.5112Z" fill="#7B889A"/>
<path d="M12.3197 19.7564L8.96436 17.1476L9.25767 17.4676L10.8886 19.0009L11.8309 19.8365C12.2308 19.8186 12.6487 19.6941 12.8087 19.632C12.9863 19.1209 13.0619 17.7521 13.0752 17.1299L12.4397 19.7297L12.3197 19.7564Z" fill="#7B889A"/>
<path d="M11.0664 18.8057C11.5286 18.7479 12.524 18.5923 12.844 18.4189C12.4574 18.7389 11.4975 18.8101 11.0664 18.8057Z" fill="#EAF9FF"/>
<path d="M12.4001 17.2726C11.3512 17.837 9.70689 17.4682 9.01807 17.2148L10.1602 18.1615L10.2802 17.6725C10.769 17.7526 11.8846 17.7792 12.4001 17.2726Z" fill="#EAF8FF"/>
<path d="M7.39129 11.3969C7.15575 11.4591 7.04908 11.388 7.02243 11.348L6.98242 10.8148L7.31129 10.8591C7.6535 10.8414 7.78237 10.4858 7.80904 10.3125C7.87126 10.7836 7.67572 11.3214 7.39129 11.3969Z" fill="#7B899B"/>
<path d="M6.81787 9.90871C6.82369 9.90411 6.82962 9.89967 6.83566 9.89537C6.9912 9.79315 7.30673 9.67317 7.47117 9.9309C7.64005 10.1976 7.47117 10.5399 7.36007 10.6731C7.44896 10.5399 7.58228 10.1442 7.36007 9.90871C7.19564 9.73094 6.95121 9.81983 6.83566 9.89537L6.81787 9.90871ZM7.6445 10.1887L7.56006 9.96647L7.67116 9.94428C7.69339 9.97539 7.72894 10.0954 7.74227 10.1487L7.6445 10.1887Z" fill="#AFC0DA"/>
<path d="M7.77784 10.3131L7.61784 10.3531C7.59562 10.6331 7.33786 10.7975 7.20898 10.842C7.72006 10.8686 7.80006 10.4997 7.77784 10.3086V10.3131Z" fill="#445369"/>
<path d="M8.18693 9.90346C8.14083 9.75555 8.0628 9.61958 7.95836 9.50516C7.85391 9.39073 7.72562 9.30065 7.58252 9.24127C8.24026 9.09018 8.40914 10.2235 8.40914 10.8101H8.3647C8.3647 10.6857 8.33359 10.3301 8.18693 9.90346Z" fill="#EBFAFF"/>
<path d="M8.46701 11.1309L7.31152 11.7975L8.46701 11.3087V11.1309Z" fill="#919CAF"/>
<path d="M8.80938 11.2191L8.78271 10.9436C9.01825 10.828 9.43601 10.4991 9.61375 10.3525L9.70708 10.4991L8.80938 11.2191Z" fill="#9AA6B7"/>
<path d="M9.47984 11.9217L9.30645 10.7885L9.69314 10.4508L9.83085 10.6462L9.91972 11.8417L9.47537 11.9217H9.47984ZM9.46646 10.1796L9.26643 10.3129L9.23535 9.8418L9.462 10.1796H9.46646Z" fill="#EEFAFF"/>
<path d="M8.56929 9.80597L8.31152 9.7793L8.38707 10.0593L8.43596 10.8059L8.74261 10.6459L8.56929 9.80152V9.80597Z" fill="#8593A8"/>
<path d="M8.47144 11.3302L8.44922 11.1348L8.76032 10.957L8.8181 11.2237L8.47144 11.3302Z" fill="#6B7686"/>
<path d="M8.95147 8.66895H8.6626V8.74449L8.93368 8.78894C8.94702 8.78894 8.95147 8.70895 8.95147 8.66895Z" fill="#566370"/>
<path d="M8.62273 8.9707C8.52052 9.17069 8.3072 9.26402 8.21387 9.27736C8.2361 9.27736 8.43608 9.47735 8.50275 9.664C8.62404 9.59992 8.73134 9.51227 8.81833 9.40619C8.90532 9.30012 8.97028 9.17776 9.00938 9.04626L8.87606 9.02403L8.62273 8.9707Z" fill="#4D5868"/>
<path d="M8.66666 8.35748C8.65791 8.26084 8.62253 8.16854 8.56445 8.09082H9.05331C9.11997 8.19748 9.11997 8.54414 9.11553 8.70412L9.0622 8.79301H8.92887L8.95998 8.35748H8.66666Z" fill="#515D6D"/>
<path d="M7.71118 9.13466C7.57786 9.04577 7.49342 8.81466 7.47119 8.70801L7.71118 8.77023C7.75563 8.868 7.88895 9.0591 8.02228 9.06799C8.1556 9.07687 8.28003 8.97466 8.32004 8.92133L8.62224 8.97911C8.51559 9.19243 8.28004 9.26798 8.17783 9.28131L7.96006 9.19243H7.79562L7.70675 9.13466H7.71118Z" fill="#CDDAEF"/>
<path d="M9.59106 8.06836L9.04443 8.1128L9.11108 8.41946V8.72166L9.37329 8.63277L9.6399 8.58833L9.59552 8.06836H9.59106Z" fill="#EBF8FF"/>
<path d="M10.5024 6.89495C10.1468 6.97494 9.3913 7.22381 9.15135 7.59713C9.37356 7.59713 10.3469 7.47713 10.8046 7.41936C10.5291 7.61047 9.6802 7.80156 9.28915 7.87266C11.1423 7.98822 12.9556 7.1616 13.6311 6.73495C13.64 6.66385 13.6311 6.50385 13.5644 6.4372C13.4934 6.37498 13.1555 6.61052 12.9912 6.73495C13.1955 6.56607 13.1156 6.20164 13.049 6.0461C12.8267 6.17943 12.3645 6.45052 12.3201 6.4372C12.2757 6.42386 12.2845 6.34831 12.2933 6.3172L11.6268 6.71718C11.85 6.34832 12.1737 6.05078 12.5601 5.85944L12.4178 6.11722C12.6667 5.91722 13.1823 5.50391 13.2489 5.43725L13.2844 5.4017C13.3956 5.29947 13.64 5.07282 13.6044 4.90395C13.5778 4.75284 13.1156 4.53507 12.8934 4.4462C12.5378 4.28176 11.5557 3.97066 10.4224 4.06843C10.0194 4.10091 9.63706 4.26039 9.33032 4.52392C9.02371 4.78746 8.80855 5.14146 8.71582 5.53503C8.82248 6.2372 10.1157 6.67274 10.7468 6.80162L11.1468 6.66829C10.8046 6.93691 10.416 7.14028 10.0002 7.26826L10.498 6.8905L10.5024 6.89495ZM9.98683 4.38841C10.5512 4.32175 11.7779 4.25509 12.1289 4.52173C12.413 4.74759 12.6501 5.02692 12.8267 5.34392C12.2134 5.06393 10.7824 4.48619 9.98238 4.38841H9.98683Z" fill="#50584C"/>
<path d="M11.2577 5.3796C11.3333 5.49959 11.3689 5.63292 11.3555 5.77069L10.849 5.0374C11.0133 5.13516 11.1689 5.25516 11.2577 5.38404V5.3796ZM10.4135 4.82407C10.5111 4.86407 10.6355 4.9174 10.76 4.98406L11.3378 5.85957C11.3156 5.96179 11.2577 6.06401 11.1733 6.14845L10.4178 4.82407H10.4135ZM10.3556 4.80184L11.1245 6.19733C11.0623 6.25066 10.9911 6.2951 10.9023 6.33065L10.249 4.77519L10.3423 4.79741L10.3556 4.80184ZM10.7111 6.40176L10.8533 6.35732C10.64 5.81514 10.2978 4.97072 10.2 4.7663C9.84899 4.71297 9.33786 4.75741 9.30676 5.27294C9.25789 6.01067 10.0845 6.56176 10.7111 6.39733V6.40176ZM11.5066 4.91296H11.5688L12.0355 5.66847L11.9777 5.67736C11.6223 5.71736 11.3911 5.41515 11.3244 5.2596C11.2888 5.14849 11.2755 4.92184 11.5066 4.91296ZM12.1867 5.58403C12.1688 5.61069 12.1422 5.62848 12.0977 5.64624L11.7911 5.16627L12.191 5.58403H12.1867ZM11.7288 4.94851L12.2088 5.44626C12.1751 5.34027 12.1138 5.24515 12.0311 5.17072C12.016 5.15623 12.0012 5.14141 11.9866 5.12628C11.914 5.04968 11.8262 4.98912 11.7288 4.94851ZM11.3555 7.2906L12 7.13062L11.7467 7.51726C11.5467 7.57058 11.28 7.6417 11.0578 7.68613L11.3555 7.2906ZM12.1422 7.0995L11.9421 7.46393L12.0755 7.42837C12.0977 7.42837 12.2666 7.17506 12.351 7.04617L12.1422 7.0995ZM11.2534 7.31727L10.9155 7.71281L10.7689 7.73058L11.0534 7.36615L11.2489 7.31727H11.2534Z" fill="#626D53"/>
<path d="M11.591 5.75293L11.3332 5.96182L11.0488 5.94403L11.1688 6.17958L11.1376 6.45957L11.3421 6.41512L11.5376 6.57955L11.5555 6.544C11.5732 6.49067 11.6132 6.38401 11.6221 6.37957C11.6309 6.37957 11.7376 6.25957 11.7909 6.2018L11.6488 6.0818L11.591 5.75293Z" fill="#A30000"/>
<path d="M11.0708 5.94434L11.342 5.95323L11.4709 6.19322L11.0708 5.94434ZM11.8087 6.19767L11.6575 6.04656L11.4709 6.16655L11.8087 6.19767ZM11.1287 6.45543C11.1243 6.44654 11.1642 6.27766 11.1865 6.20211H11.4531L11.1287 6.45543ZM11.4709 6.20656L11.5598 6.5932L11.3687 6.41543L11.4709 6.20656Z" fill="#FF7878"/>
<path fill-rule="evenodd" clip-rule="evenodd" d="M11.6177 5.72632C11.617 5.72132 11.6151 5.71657 11.612 5.71264C11.6089 5.70872 11.6046 5.70575 11.5998 5.7041C11.5866 5.7041 11.5777 5.7041 11.5687 5.713L11.3466 5.9352L11.0443 5.91743C11.0396 5.91628 11.0345 5.9165 11.0298 5.91807C11.025 5.91965 11.0209 5.9225 11.0177 5.92632C11.0145 5.93085 11.0127 5.93629 11.0127 5.94187C11.0127 5.94745 11.0145 5.95289 11.0177 5.95742L11.0266 5.9752L11.1466 6.19741L11.071 6.48184C11.071 6.49073 11.071 6.50406 11.0799 6.50851C11.0844 6.5174 11.0978 6.5174 11.1066 6.5174L11.1155 6.51294H11.1199L11.3422 6.44184L11.5377 6.63294C11.5466 6.63738 11.5555 6.64183 11.5644 6.63738C11.5732 6.63738 11.5822 6.62849 11.5866 6.61961L11.6354 6.38407L11.8399 6.22852C11.8435 6.22608 11.8466 6.22279 11.8486 6.21891C11.8507 6.21503 11.8518 6.2107 11.8518 6.2063C11.8518 6.20191 11.8507 6.19757 11.8486 6.19369C11.8466 6.18981 11.8435 6.18651 11.8399 6.18407L11.6666 6.03298L11.6177 5.72632ZM11.3466 6.38407L11.231 6.41962L11.4532 6.23741L11.5244 6.53961L11.3733 6.39296C11.3701 6.38914 11.3659 6.38629 11.3611 6.38472C11.3565 6.38315 11.3514 6.38292 11.3466 6.38407ZM11.5866 6.36629L11.5644 6.46851L11.5066 6.21075L11.751 6.22852L11.5955 6.34851C11.5903 6.35308 11.5871 6.35944 11.5866 6.36629ZM11.7466 6.17519L11.6222 6.06853C11.617 6.06398 11.6138 6.05761 11.6132 6.05075L11.5866 5.88187L11.5154 6.15742L11.7466 6.17519ZM11.1422 6.42407L11.4222 6.19296L11.1155 6.0241L11.2044 6.17964V6.19741L11.1422 6.41962V6.42407ZM11.551 5.80632L11.3733 5.97965C11.3705 5.98276 11.367 5.98518 11.3632 5.98672C11.3594 5.98826 11.3551 5.98889 11.351 5.98853L11.1377 5.9752L11.4622 6.15297L11.551 5.80632Z" fill="black"/>
<path d="M15.6353 17.5343L15.2798 17.4721L15.4798 17.7299L15.3509 17.9876L15.6797 17.9432L15.9775 18.1742L15.9953 17.8676L16.2663 17.761L15.9108 17.6142L15.8531 17.3477L15.6309 17.5343H15.6353Z" fill="#FFFA44"/>
<path d="M15.653 17.6195L15.2886 17.4862L15.4663 17.7084L15.7774 17.7484L15.8396 17.3662L15.653 17.5351V17.6195Z" fill="white"/>
<path d="M15.72 17.7391L15.3423 17.988L15.4756 17.7525L15.4623 17.7035L15.72 17.7391ZM15.7912 17.6681L15.8489 17.3525L15.92 17.6146L15.7867 17.6681H15.7912Z" fill="#EC843B"/>
<path d="M15.6797 17.9477L15.7108 17.7432L15.9241 18.1344L15.6797 17.9477ZM16.2219 17.7432H15.8842L15.9419 18.1387L15.973 18.1655L15.9997 17.8721L16.2663 17.7611L16.2219 17.7432Z" fill="#EC843B"/>
<path d="M5.95107 18.4546L5.47998 18.1079L5.58665 18.0102L5.6222 17.668L5.91107 17.8813L6.36882 17.7124L6.16884 18.0902L6.35549 18.3924H5.95107V18.4546Z" fill="#FFF447"/>
<path d="M5.77372 18.0324L5.61818 17.6768L5.91593 17.8812L5.90261 17.9879L6.38258 17.7079L6.17814 18.0724L5.90261 18.1256L6.30259 18.2857L6.34703 18.3745L5.85816 18.1524L5.83594 18.3612L5.75595 18.3168V18.1389L5.62707 18.219L5.5293 18.1524L5.77372 18.0324Z" fill="white"/>
<path d="M5.7824 18.0363L5.59131 18.014L5.62241 17.6807L5.7824 18.0363ZM6.18239 18.0719L5.88907 18.1163L6.31126 18.3074C6.32015 18.3119 6.22682 18.1695 6.17794 18.0941V18.0719H6.18239ZM5.8313 18.3651L5.86241 18.1384L5.96462 18.3873L5.95128 18.454L5.8313 18.3651Z" fill="#EA8436"/>
<path d="M7.02247 7.98828L7.6091 8.0505C7.56466 8.13051 7.48466 8.32605 7.498 8.45049L6.98691 8.3216L7.01803 7.98828H7.02247ZM6.97803 8.60158C7.00025 8.69047 7.05358 8.89934 7.11135 9.02378C7.17802 9.1571 7.25801 9.25933 7.28912 9.29487C7.34689 9.23266 7.51134 9.1171 7.73354 9.166C7.6026 9.049 7.51231 8.89334 7.47578 8.72158C7.45355 8.72158 7.13802 8.64158 6.98247 8.60158H6.97803Z" fill="#35404E"/>
<path d="M7.29826 9.2908C7.14035 9.10828 7.02903 8.89021 6.97383 8.65527L6.95605 9.27746L6.97383 9.713H7.03604L7.13382 9.48189L7.29826 9.2908Z" fill="#707B88"/>
<path d="M9.03985 8.80184C8.79097 8.77074 7.56436 8.47742 6.98218 8.33965L6.95996 8.57519L7.64436 8.7574L8.52876 8.95295L9.01762 9.04184L9.15094 9.42848L9.51097 10.1484L9.03985 10.4684L8.151 10.9573L7.03996 11.5794V11.6506L7.07551 11.8906L8.24877 11.2373L8.78653 10.935L9.37762 10.5662L9.55981 10.4151L9.61757 10.3351L10.0264 10.8684L10.1997 10.9751C10.2397 10.9973 10.3153 11.0418 10.3331 11.0418H10.4665L10.733 10.9084L11.0219 10.624L11.2886 10.2818L11.6663 9.74846L11.8796 9.35293L11.9908 9.01961L12.0085 8.76629V8.58852L11.9241 8.42854L12.5552 7.72634L12.8885 7.30859L12.4219 7.50414L11.7374 8.29965L11.693 8.27743H11.4174L11.0486 8.32632L9.50652 8.59741C9.17317 8.65963 9.05761 8.76185 9.03985 8.80628V8.80184Z" fill="#2E2E2E"/>
<path d="M7.80029 8.79292V8.53516L8.04029 8.60626V8.8418L7.80029 8.79292Z" fill="#494949"/>
<path d="M9.76465 9.18449C9.76465 8.78007 9.898 8.58897 9.96914 8.54897L11.3469 8.32676C11.4001 8.30454 11.569 8.30454 11.8046 8.45564C12.0357 8.6023 11.938 9.07339 11.8579 9.28671C11.6979 9.52225 11.2669 9.98885 10.8357 9.98885L10.6581 9.97558L10.2892 10.26L10.5602 9.95774H10.5513L10.8357 9.62891L10.4625 9.94001C10.3985 9.92113 10.336 9.89737 10.2758 9.8689L10.1202 10.1356L10.2313 9.85113H10.2225L10.3602 9.5578L10.1691 9.81557C9.92911 9.68224 9.76465 9.46003 9.76465 9.18449ZM12.4357 7.88233L12.2713 7.67347L12.4357 7.50458L12.889 7.31348L12.4357 7.88233Z" fill="#484848"/>
<path d="M8.4711 11.1219L8.43555 10.8018L8.73775 10.6553L8.77775 10.953L8.46665 11.1219H8.4711Z" fill="black"/>
<path d="M8.11084 10.9792C8.11084 11.0857 8.12862 11.2946 8.13751 11.308L8.47082 11.1168L8.42637 10.8191L8.11084 10.9792ZM8.79525 10.948L8.73747 10.6369L9.02634 10.4635L9.05745 10.788L8.79525 10.948ZM9.05301 9.02357C9.04629 8.9901 9.04807 8.9555 9.05816 8.9229C9.06825 8.89029 9.08634 8.86073 9.11078 8.83691C9.06635 8.87247 9.10189 8.97469 9.12412 9.02357C9.15968 9.1169 9.2974 9.43244 9.51962 9.92574C9.79961 10.5391 10.1952 10.8813 10.3996 10.9124C10.5641 10.9391 10.684 10.9036 10.7241 10.8813C10.5818 10.9968 10.4484 11.0146 10.3996 11.0146C9.86629 10.8813 9.58184 10.1703 9.45295 9.95681C9.3197 9.74354 9.07524 9.13468 9.05301 9.02357Z" fill="#484848"/>
<path d="M11.7822 8.57557C11.7733 8.60223 11.7377 8.62001 11.7111 8.60668L11.4799 8.52224C11.4732 8.52021 11.4669 8.51687 11.4616 8.51241C11.4562 8.50796 11.4517 8.50248 11.4483 8.49629C11.4451 8.49009 11.443 8.48331 11.4423 8.47633C11.4417 8.46933 11.4424 8.46228 11.4444 8.45557C11.4577 8.42891 11.4889 8.41112 11.5155 8.42446L11.7511 8.5089C11.7777 8.51779 11.7955 8.5489 11.7822 8.57557ZM11.2044 8.54001C11.2355 8.54001 11.2577 8.51335 11.2533 8.48225C11.2511 8.46888 11.2439 8.45685 11.2333 8.4486C11.2225 8.44035 11.2089 8.43649 11.1955 8.4378L10.9466 8.45557C10.9333 8.45669 10.9209 8.4628 10.9118 8.47268C10.9028 8.48257 10.8978 8.49549 10.8978 8.5089C10.8978 8.54001 10.9244 8.56224 10.9556 8.55779L11.2044 8.54001ZM10.6934 8.5489C10.6946 8.55591 10.6944 8.56312 10.6928 8.57006C10.6913 8.57702 10.6884 8.5836 10.6843 8.58939C10.6801 8.5952 10.6748 8.6001 10.6688 8.60384C10.6627 8.60757 10.656 8.61005 10.6489 8.61112L10.4044 8.65556C10.3974 8.65673 10.3903 8.6565 10.3834 8.6549C10.3765 8.6533 10.3699 8.65036 10.3641 8.64623C10.3583 8.6421 10.3535 8.63688 10.3497 8.63085C10.346 8.62483 10.3434 8.61813 10.3423 8.61112C10.3411 8.60412 10.3413 8.59695 10.3429 8.59004C10.3445 8.58312 10.3474 8.57659 10.3516 8.57081C10.3557 8.56502 10.3609 8.56012 10.3669 8.55637C10.373 8.5526 10.3797 8.55007 10.3866 8.5489L10.6312 8.50445C10.6623 8.50445 10.6889 8.52224 10.6934 8.5489ZM10.08 8.71778C10.0871 8.71632 10.0937 8.7135 10.0996 8.70946C10.1055 8.70544 10.1106 8.70029 10.1145 8.6943C10.1184 8.68832 10.1211 8.68162 10.1224 8.67459C10.1238 8.66756 10.1237 8.66034 10.1222 8.65334C10.1208 8.64634 10.118 8.63969 10.1139 8.63378C10.1099 8.62786 10.1048 8.62281 10.0988 8.61889C10.0928 8.61497 10.0861 8.61225 10.0791 8.61093C10.072 8.60959 10.0649 8.60965 10.0578 8.61112L9.81339 8.65556C9.80634 8.65663 9.7996 8.65911 9.79348 8.66284C9.78746 8.66658 9.78218 8.67148 9.77803 8.67729C9.77388 8.68309 9.77098 8.68966 9.76942 8.69662C9.76776 8.70357 9.76766 8.71076 9.7689 8.71778C9.77336 8.74444 9.80447 8.76222 9.83112 8.76222L10.08 8.71778ZM9.56005 8.80667C9.5867 8.79778 9.60009 8.76222 9.5867 8.74001C9.58432 8.73316 9.58049 8.72689 9.57551 8.72158C9.57053 8.71626 9.56452 8.71202 9.55788 8.7091C9.55124 8.70619 9.54409 8.70466 9.53673 8.70463C9.52946 8.70459 9.52231 8.70604 9.51557 8.7089L9.28899 8.80667C9.25785 8.81555 9.24451 8.85111 9.25785 8.87777C9.27115 8.90443 9.30226 8.91777 9.32892 8.90443L9.56005 8.80667ZM11.68 9.14443C11.671 9.17109 11.6889 9.2022 11.7155 9.21109C11.7422 9.21997 11.7733 9.2022 11.7822 9.17553L11.8577 8.93999C11.8597 8.93327 11.8605 8.92623 11.8597 8.91924C11.8592 8.91226 11.8571 8.90547 11.8537 8.89927C11.8505 8.89308 11.846 8.88761 11.8406 8.88315C11.8351 8.8787 11.8289 8.87536 11.8221 8.87333C11.8155 8.87127 11.8085 8.87056 11.8014 8.87123C11.7945 8.87191 11.7876 8.87396 11.7815 8.87726C11.7753 8.88057 11.7697 8.88506 11.7653 8.89048C11.7609 8.89591 11.7575 8.90217 11.7554 8.90887L11.68 9.14443ZM11.4356 9.76661C11.4287 9.76417 11.4224 9.76034 11.4171 9.75538C11.4118 9.75043 11.4076 9.74444 11.4046 9.73777C11.4017 9.73111 11.4002 9.72393 11.4002 9.71666C11.4001 9.7094 11.4016 9.70219 11.4045 9.69551L11.5022 9.46885C11.511 9.43774 11.5466 9.42441 11.5733 9.43774C11.5999 9.45107 11.6133 9.48218 11.5999 9.50885L11.5066 9.73551C11.5038 9.74196 11.4997 9.74777 11.4945 9.75261C11.4893 9.75746 11.4833 9.76122 11.4766 9.76371C11.4701 9.76619 11.463 9.76733 11.456 9.76706C11.4489 9.76681 11.442 9.76513 11.4356 9.76217V9.76661ZM10.6489 10.6333C10.6439 10.6382 10.64 10.6441 10.6372 10.6506C10.6346 10.657 10.6332 10.664 10.6332 10.671C10.6332 10.6781 10.6346 10.685 10.6372 10.6914C10.64 10.698 10.6439 10.7039 10.6489 10.7088C10.6756 10.7311 10.7067 10.7266 10.7288 10.7088L10.8978 10.5221C10.9024 10.5169 10.906 10.5108 10.9084 10.5041C10.9108 10.4976 10.9116 10.4905 10.9112 10.4834C10.9108 10.4764 10.9091 10.4696 10.906 10.4632C10.9028 10.4569 10.8986 10.4513 10.8933 10.4466C10.8881 10.4418 10.882 10.4383 10.8754 10.436C10.8686 10.4337 10.8616 10.4327 10.8546 10.4332C10.8476 10.4334 10.8408 10.4353 10.8344 10.4385C10.828 10.4414 10.8224 10.4458 10.8178 10.4511L10.6489 10.6333ZM10.1645 10.7043C10.1589 10.7088 10.1526 10.7121 10.1458 10.7141C10.139 10.7161 10.1319 10.7166 10.1248 10.7158C10.1178 10.7149 10.111 10.7127 10.1048 10.7092C10.0987 10.7058 10.0933 10.7011 10.0889 10.6955L9.93783 10.4999C9.93337 10.4945 9.93005 10.4881 9.92808 10.4813C9.92621 10.4744 9.92559 10.4673 9.92642 10.4603C9.92725 10.4533 9.92943 10.4464 9.93295 10.4403C9.93648 10.4341 9.94115 10.4287 9.94675 10.4243C9.95224 10.42 9.95856 10.4166 9.96541 10.4147C9.97215 10.4127 9.97931 10.4122 9.98636 10.413C9.99341 10.4138 10.0002 10.4161 10.0064 10.4196C10.0125 10.423 10.0179 10.4277 10.0222 10.4333L10.1733 10.6289C10.1912 10.651 10.1867 10.6866 10.1645 10.7043ZM9.73334 10.3044C9.74671 10.3267 9.77782 10.3355 9.80893 10.3222C9.83558 10.3088 9.8445 10.2777 9.83112 10.2511L9.7156 10.0288C9.71198 10.0225 9.7071 10.0171 9.70119 10.0128C9.69538 10.0084 9.68874 10.0053 9.6817 10.0036C9.67454 10.002 9.66728 10.0018 9.66013 10.003C9.65297 10.0044 9.64613 10.0071 9.64001 10.0111C9.62777 10.0176 9.61865 10.0288 9.61449 10.0421C9.61035 10.0554 9.61149 10.0698 9.61781 10.0821L9.73334 10.3044ZM9.5867 9.83327C9.58038 9.83711 9.57333 9.83959 9.56597 9.84054C9.55861 9.84149 9.55113 9.84092 9.54409 9.83882C9.53693 9.83673 9.53029 9.83318 9.52469 9.8284C9.51899 9.82361 9.51443 9.81771 9.51121 9.81105L9.39559 9.58884C9.38927 9.57643 9.38812 9.56205 9.39227 9.54876C9.39642 9.53548 9.40555 9.52435 9.41788 9.51774C9.44453 9.5044 9.4801 9.51774 9.49338 9.53996L9.60889 9.76217C9.62227 9.78439 9.60889 9.81995 9.5867 9.83327ZM9.3201 9.34441C9.33337 9.36663 9.36448 9.37997 9.39559 9.36663C9.42224 9.3533 9.43116 9.3222 9.41788 9.29109L9.30226 9.07332C9.29905 9.06665 9.29448 9.06076 9.28878 9.05597C9.28307 9.05119 9.27655 9.04764 9.26939 9.04555C9.26234 9.04346 9.25484 9.04288 9.24749 9.04383C9.24015 9.04478 9.23307 9.04726 9.22674 9.0511C9.21449 9.0577 9.20531 9.06884 9.20115 9.08212C9.19701 9.09541 9.19821 9.10979 9.20451 9.12221L9.3201 9.34441ZM10.2933 10.851C10.2933 10.8199 10.3156 10.7977 10.3467 10.7977H10.4844C10.5156 10.7977 10.5422 10.8199 10.5422 10.851C10.5422 10.8777 10.5156 10.9044 10.4844 10.9044H10.3467C10.3325 10.9044 10.319 10.8988 10.309 10.8887C10.299 10.8787 10.2933 10.8652 10.2933 10.851ZM11.0667 10.1844C11.0625 10.1902 11.0594 10.1967 11.0579 10.2038C11.0562 10.2107 11.0561 10.218 11.0573 10.225C11.0585 10.2321 11.0612 10.2388 11.065 10.2447C11.069 10.2507 11.0741 10.2559 11.08 10.26C11.1021 10.2777 11.1377 10.2688 11.1556 10.2466L11.2977 10.0422C11.3049 10.0308 11.3075 10.0172 11.305 10.0041C11.3025 9.99085 11.2952 9.97903 11.2845 9.97105C11.2786 9.96679 11.2721 9.96389 11.2651 9.96223C11.2581 9.96058 11.2509 9.96047 11.2438 9.96171C11.2368 9.96296 11.2301 9.96555 11.224 9.96949C11.218 9.97333 11.2129 9.97841 11.2089 9.98442L11.0667 10.1844Z" fill="#C7C7C7"/>
<path d="M14.3551 11.3124L14.4039 11.0324L14.555 11.0146V11.1658L14.7195 11.188L14.9106 11.3124L15.0128 11.4901L14.9106 11.788L14.7416 11.9568L14.7861 12.0324L14.9639 12.1568L14.755 12.2278L14.6351 12.1568L14.5239 11.939C14.542 11.9213 14.5584 11.902 14.5728 11.8812L14.6572 11.788L14.7416 11.6857L14.7861 11.5391L14.7062 11.4012L14.5239 11.3124L14.3551 11.3435V11.3124ZM13.7995 11.3657L13.8528 11.0991L14.0572 11.0768L14.0439 11.2945L13.9907 11.3836L13.8528 11.4901L13.7373 11.6456L13.7018 11.788L13.7373 11.9168L13.8974 12.0057H14.1283L14.1506 12.0901L14.3061 12.2768L14.3239 12.3256L14.1506 12.3656L14.0751 12.2501L13.9907 12.17L13.7995 12.1168L13.5507 11.9657L13.4795 11.7656L13.5507 11.5212L13.7995 11.3657ZM14.1906 11.4012L14.2573 11.5212H14.4439L14.3372 11.6591L14.4439 11.8412L14.2795 11.7835L14.1373 11.9301V11.748L13.9728 11.6591L14.1506 11.5702L14.1951 11.4012H14.1906Z" fill="#D43D25"/>
<path d="M15.4799 11.3523C15.4384 11.2071 15.4384 11.053 15.4799 10.9078L15.6711 10.8857C15.6443 10.9567 15.5955 11.1478 15.6399 11.2989C15.6843 11.4545 15.8843 11.7123 15.9821 11.8233L15.8309 11.9034C15.7421 11.8011 15.5377 11.5478 15.4799 11.3523Z" fill="url(#paint7_linear_328_55498)"/>
<path d="M15.9243 11.1565L15.9421 10.8765L16.0755 10.832V11.112L16.1599 11.3787L16.3821 11.6409L16.2133 11.712L16.1421 11.6409L15.991 11.4187L15.9243 11.1565Z" fill="url(#paint8_linear_328_55498)"/>
<path d="M16.4839 10.8683L16.3195 10.8505C16.3195 10.8771 16.3284 10.9394 16.3639 10.9838C16.404 11.0283 16.4261 11.1039 16.435 11.1393L16.4128 11.415C16.435 11.446 16.4884 11.5038 16.5017 11.5038L16.555 11.446C16.564 11.4416 16.5906 11.3571 16.5995 11.3216L16.6705 11.1883L16.7595 11.0771L16.8617 10.966L17.0661 10.8327C17.1372 10.7883 17.2884 10.7083 17.2927 10.6995L17.4039 10.6816H17.5149C17.5283 10.6816 17.6038 10.7349 17.6349 10.7616L17.7239 10.8283L17.8261 10.8949H17.9283L18.0039 10.8683L18.1327 10.7794L18.3016 10.6016L18.4661 10.3705L18.6261 10.135L18.7416 9.87716L18.826 9.64606L18.8882 9.36608L18.8482 9.13943L18.786 8.85944L18.666 8.65056L18.506 8.45058L18.2393 8.29058L18.0617 8.22392L17.8705 8.19725L17.5772 8.26392L17.3773 8.37946C17.2927 8.47724 17.0305 8.64168 16.795 8.55723C16.4972 8.44613 16.5239 8.17948 16.5505 8.02393C16.5684 7.89061 16.6617 7.76172 16.7061 7.71284L16.8395 7.62395L16.995 7.60618L17.1239 7.62395L17.2217 7.67285L17.3994 7.68617L17.6572 7.60618L17.8705 7.48174L17.9728 7.30397L18.0127 7.1262V6.93065L17.9149 6.70845L17.7861 6.57511L17.6172 6.49512H17.4172L17.2616 6.52623L17.1105 6.62401L17.0573 6.704L17.0438 6.79289L17.1105 6.88177L17.2217 6.91732C17.2349 6.91732 17.315 6.88177 17.3549 6.85955L17.3994 6.77067L17.4572 6.79289L17.5194 6.91732L17.4572 7.05066L17.3195 7.10843L17.155 7.09065L16.7817 6.93065L16.604 6.91732L16.3506 7.00621L16.0839 7.17953L15.8706 7.33952L15.724 7.57952L15.6351 7.86839L15.5906 8.14837V8.41503L15.5684 8.57502L15.5862 8.77056L15.7061 9.0461L15.9196 9.34387C15.9861 9.41497 16.164 9.57052 16.3372 9.66385C16.515 9.75273 16.715 9.74384 16.795 9.73051L16.835 9.67717L16.884 9.57052C16.9061 9.53496 16.9505 9.41941 16.9639 9.40608C16.9817 9.39275 17.0438 9.37052 17.0749 9.34387L17.1994 9.32164L17.3195 9.34387L17.4527 9.45941L17.4972 9.57052L17.5149 9.73051L17.4838 9.97049L17.3461 10.0905L17.1817 10.1706L17.0084 10.3172L16.8973 10.4327L16.8217 10.6194L16.6572 10.7839L16.4795 10.8683H16.4839Z" fill="white"/>
<path d="M15.5909 8.17976C15.5909 8.01533 15.6486 7.81534 15.6798 7.73535C15.6798 7.76201 15.6842 7.87756 15.7109 8.13087C15.7375 8.37975 15.8887 8.78417 15.9643 8.9575L15.7109 8.72195C15.7198 9.05527 16.0575 9.4908 16.4219 9.5308C16.7198 9.55747 16.7864 9.34414 16.7819 9.2286C16.8087 9.10416 16.9597 8.85528 17.3375 8.85972C17.8131 8.85972 17.8264 9.19304 17.8352 9.29526C17.8397 9.37525 17.8041 9.55747 17.7908 9.63746C17.7375 9.75746 17.613 10.0063 17.5241 10.0552C17.468 10.0899 17.4035 10.1084 17.3375 10.1086C17.3775 10.0863 17.453 10.0285 17.4708 10.0063C17.4841 9.9797 17.5241 9.72635 17.5241 9.63746C17.5241 9.54858 17.4353 9.37081 17.2397 9.32193C17.0886 9.28192 16.9953 9.39747 16.9642 9.45525L16.8308 9.69968L16.6931 9.74413C16.5153 9.77523 16.2931 9.65524 16.1999 9.59301C16.1243 9.53969 15.9331 9.37081 15.7686 9.12638C15.6581 8.97909 15.5918 8.80335 15.5776 8.61974L15.5909 8.17976Z" fill="#B3B3B3"/>
<path d="M17.2308 6.91331C17.1913 6.9148 17.1525 6.90153 17.1221 6.87606C17.0917 6.85062 17.0719 6.81479 17.0664 6.77554C17.0664 6.73109 17.0886 6.62889 17.1686 6.57555C17.2486 6.51778 17.3819 6.50444 17.4353 6.5C17.4974 6.53112 17.6174 6.62445 17.6264 6.76221C17.6282 6.81426 17.617 6.86596 17.5937 6.91254C17.5704 6.95914 17.5358 6.99914 17.493 7.02887L17.5286 6.91331L17.4042 6.77554C17.3949 6.81548 17.3722 6.85102 17.3398 6.87612C17.3074 6.90122 17.2674 6.91436 17.2264 6.91331H17.2308Z" fill="#C7C7C7"/>
<path d="M17.4354 7.57546C17.622 7.59768 17.8354 7.45546 17.9153 7.37991C17.7642 7.67323 17.3643 7.69101 17.1865 7.65545C17.1332 7.61102 16.982 7.54879 16.76 7.68212C16.5377 7.81989 16.5287 8.14431 16.5555 8.28652C16.4655 8.15421 16.3966 8.0088 16.3511 7.85544C16.3287 7.70434 16.3244 7.29102 16.7065 7.29102C17.0932 7.29102 17.1998 7.54879 17.4354 7.57546Z" fill="#AFB1B3"/>
<path d="M17.3109 10.4244C17.1331 10.4645 16.9286 10.8245 16.8486 10.9978C16.9642 10.8378 17.382 10.6733 17.4486 10.669C17.5108 10.6645 17.6264 10.7134 17.7063 10.8022C17.7686 10.8778 17.8753 10.8911 17.9197 10.8911C18.1375 10.8734 18.4841 10.3756 18.6307 10.1267C18.6752 10.0378 18.7996 9.77116 18.8663 9.40674C18.933 9.04232 18.733 8.73123 18.6263 8.62012L18.7063 8.78455C18.7508 8.93121 18.7063 9.61118 18.6263 9.81561C18.5463 10.0245 18.0886 10.62 17.8175 10.62C17.5419 10.62 17.5331 10.3711 17.3109 10.4244Z" fill="#C7C7C7"/>
<path d="M9.51564 12.3928L9.20459 12.0063C9.79127 11.7529 11.5467 11.7129 12.3555 11.7218L11.9111 12.1395L11.9422 12.2728C12.1955 12.3351 12.7199 12.4684 12.7644 12.4729C12.8177 12.4817 12.5822 12.5307 11.4401 12.5751C10.5245 12.6151 9.77789 12.4684 9.51564 12.3928Z" fill="white"/>
<path d="M12.5291 8.88175C12.5921 8.69253 12.7184 8.53085 12.8869 8.42397C13.0553 8.3171 13.2554 8.27159 13.4535 8.29511C13.2223 8.30844 12.7068 8.5751 12.7201 9.34839C12.7335 9.97058 13.2489 10.2239 13.5023 10.2728H13.1379C13.0179 10.2728 12.8091 10.1172 12.7201 10.0373C12.5952 9.87548 12.5123 9.68524 12.479 9.48358C12.4456 9.28192 12.4628 9.07512 12.5291 8.88175Z" fill="url(#paint9_linear_328_55498)"/>
<path d="M14.4001 9.29098C14.4001 9.84205 14.0224 10.291 13.5601 10.291C13.0979 10.291 12.7202 9.84649 12.7202 9.29098C12.7202 8.73989 13.0979 8.29102 13.5646 8.29102C14.0224 8.29102 14.4001 8.73544 14.4001 9.29098Z" fill="url(#paint10_linear_328_55498)"/>
<path d="M13.5554 8.5127C13.1598 8.5127 12.9777 8.90378 12.9421 9.10378C12.9021 9.25488 13.0087 9.9482 13.551 9.9482C14.0931 9.9482 14.1954 9.31708 14.1732 9.22375C14.1598 9.12598 14.0398 8.5127 13.551 8.5127H13.5554Z" fill="#6C8B4B"/>
<path d="M13.4488 8.7002L13.1465 9.11795L13.2532 9.55793L13.7821 9.74014L14.0042 9.44682L13.9376 8.84241L13.4488 8.7002Z" fill="#B7FA00"/>
<path d="M14.1241 17.3125C14.1423 17.3136 14.1595 17.32 14.1739 17.3311C14.1882 17.3423 14.1987 17.3575 14.2042 17.3748C14.2092 17.3912 14.2095 17.4088 14.2047 17.4254C14.1999 17.442 14.1905 17.4568 14.1775 17.4681L13.8441 17.7703C13.8342 17.7792 13.8223 17.7859 13.8097 17.79C13.797 17.7942 13.7835 17.7958 13.7702 17.7945C13.7568 17.7932 13.7439 17.7892 13.7322 17.7828C13.7204 17.7764 13.7102 17.7676 13.7019 17.757L13.4131 17.4014C13.4061 17.3931 13.4008 17.3834 13.3977 17.373C13.3946 17.3625 13.3935 17.3516 13.3948 17.3408C13.3961 17.33 13.3996 17.3195 13.405 17.31C13.4103 17.3006 13.4177 17.2924 13.4264 17.2859C13.4485 17.2668 13.4772 17.2572 13.5064 17.2592L14.1241 17.3125ZM14.2441 17.357C14.2351 17.3328 14.2195 17.3117 14.1991 17.296C14.1787 17.2803 14.1542 17.2707 14.1286 17.268L13.5108 17.2148C13.4712 17.2105 13.4315 17.2216 13.3998 17.2459V17.2504C13.3864 17.2604 13.3751 17.2729 13.3667 17.2875C13.3583 17.3019 13.3529 17.318 13.3508 17.3345C13.3487 17.3511 13.3501 17.3679 13.3547 17.384C13.3592 17.4 13.3671 17.4151 13.3775 17.428L13.6664 17.7836C13.6931 17.8148 13.7286 17.8324 13.7687 17.8369C13.8086 17.8369 13.8486 17.828 13.8752 17.8014L14.2087 17.5036C14.2287 17.4856 14.2427 17.462 14.2491 17.4358C14.2555 17.4096 14.2537 17.3821 14.2441 17.357ZM8.65783 17.4148C8.61339 17.4014 8.56895 17.4148 8.53785 17.4414L8.03564 17.9524C8.02394 17.964 8.01474 17.978 8.00863 17.9932C8.00251 18.0085 7.9996 18.0249 8.00009 18.0414C8.00009 18.0636 8.00899 18.0858 8.01787 18.0992C8.03565 18.1258 8.06675 18.1436 8.10232 18.1436H8.65339C8.6845 18.1436 8.7156 18.1303 8.73783 18.108C8.74862 18.0969 8.75696 18.0836 8.76232 18.0691C8.76767 18.0546 8.76993 18.0391 8.76894 18.0236L8.72894 17.5081C8.72894 17.4636 8.69783 17.428 8.65783 17.4148ZM8.50229 17.4059C8.54674 17.3614 8.61339 17.3436 8.67561 17.3614C8.73339 17.3881 8.77783 17.4414 8.78228 17.5036L8.82227 18.0192C8.82227 18.0636 8.80893 18.108 8.77783 18.1436C8.76188 18.1606 8.74261 18.174 8.72119 18.1833C8.69977 18.1924 8.67669 18.1971 8.65339 18.197H8.10232C8.07587 18.1974 8.04976 18.1911 8.02643 18.1786C8.00311 18.1662 7.98333 18.148 7.96898 18.1258C7.95403 18.1019 7.94631 18.0741 7.94677 18.0458V18.037C7.94677 17.9925 7.96454 17.9481 8.00009 17.917L8.50229 17.4059ZM8.56451 17.6103L8.1912 17.9969V18.0014L8.51562 17.988C8.56006 17.988 8.59562 17.9524 8.59117 17.908L8.58228 17.6192V17.6103H8.56451ZM8.52451 17.5748C8.53673 17.5638 8.55255 17.5578 8.56895 17.5578C8.58535 17.5578 8.60118 17.5638 8.61339 17.5748C8.62672 17.5836 8.63561 17.6015 8.63561 17.6192L8.6445 17.908C8.64452 17.9427 8.63109 17.9759 8.60703 18.0008C8.58299 18.0256 8.55021 18.0402 8.51562 18.0414L8.19564 18.0547C8.18295 18.0553 8.17041 18.0517 8.15997 18.0445C8.14952 18.0372 8.14176 18.0268 8.13786 18.0147C8.12897 17.9969 8.13786 17.9703 8.1512 17.9614L8.52451 17.5748ZM13.4887 17.3392C13.4912 17.3346 13.4952 17.3308 13.4999 17.3285C13.5047 17.3261 13.51 17.3252 13.5153 17.3259L14.0708 17.3614C14.0797 17.3614 14.0886 17.3703 14.093 17.3792C14.093 17.3881 14.093 17.4014 14.0842 17.4104L13.7597 17.6769C13.7569 17.68 13.7535 17.6825 13.7497 17.6841C13.7459 17.6856 13.7417 17.6862 13.7375 17.6859C13.7338 17.685 13.7303 17.6835 13.7271 17.6811C13.724 17.6788 13.7215 17.6759 13.7197 17.6724L13.4931 17.3614C13.4915 17.358 13.4907 17.3541 13.4907 17.3503C13.4907 17.3464 13.4915 17.3427 13.4931 17.3392H13.4887ZM13.5686 17.3836L13.7463 17.6192L13.9997 17.4104L13.5686 17.3792V17.3836ZM15.8618 17.357C15.8707 17.357 15.8797 17.3659 15.8797 17.3748L15.9329 17.6236L16.3018 17.7747C16.3107 17.7747 16.3197 17.7881 16.3152 17.7969C16.3152 17.8103 16.3107 17.8192 16.2973 17.8236L16.0173 17.9125L15.9996 18.2236C15.9996 18.2324 15.9907 18.2413 15.9819 18.2458L15.9551 18.2413L15.6619 18.0059L15.364 18.0458C15.3508 18.0458 15.3419 18.0458 15.3374 18.037C15.3351 18.0329 15.3339 18.0283 15.3339 18.0236C15.3339 18.0189 15.3351 18.0144 15.3374 18.0103L15.4485 17.7658L15.2396 17.5214C15.2364 17.5169 15.2346 17.5114 15.2346 17.5058C15.2346 17.5002 15.2364 17.4948 15.2396 17.4903C15.2424 17.4872 15.2458 17.4848 15.2496 17.4832C15.2536 17.4816 15.2577 17.4811 15.2619 17.4815L15.6352 17.5348L15.8352 17.357C15.8392 17.3547 15.8439 17.3526 15.8485 17.3526C15.8532 17.3526 15.8577 17.3547 15.8618 17.357ZM15.8396 17.4325L15.6619 17.5836C15.6587 17.586 15.6551 17.5876 15.6512 17.5884C15.6473 17.5891 15.6434 17.589 15.6396 17.588L15.3286 17.5437L15.4974 17.748C15.5063 17.7525 15.5063 17.7658 15.5019 17.7747L15.404 17.988L15.6708 17.9524L15.6885 17.9569L15.9508 18.1659L15.9685 17.8947C15.9685 17.8814 15.9729 17.8725 15.9862 17.8725L16.2129 17.7969L15.9018 17.6681C15.8976 17.6668 15.8938 17.6645 15.8907 17.6614C15.8877 17.6583 15.8853 17.6545 15.8841 17.6503L15.8396 17.428V17.4325ZM5.60911 17.6724H5.63577L5.92021 17.8725L6.36907 17.708C6.3824 17.708 6.39129 17.708 6.40018 17.7169C6.40907 17.7259 6.40907 17.7347 6.40018 17.7436L6.20908 18.1169L6.40462 18.3969V18.4236C6.40236 18.4275 6.39913 18.4308 6.39525 18.4331C6.39136 18.4355 6.38693 18.4367 6.3824 18.4369H5.97354V18.4858H5.91576V18.4103C5.91576 18.3969 5.9291 18.3836 5.94243 18.3836H6.32908L6.15131 18.1303C6.14896 18.1263 6.14773 18.1216 6.14773 18.1169C6.14773 18.1123 6.14896 18.1077 6.15131 18.1036L6.32463 17.7836L5.92466 17.9303L5.89798 17.9258L5.64467 17.748L5.618 18.028C5.618 18.037 5.618 18.0414 5.60911 18.0458L5.49356 18.1569L5.45801 18.1214L5.56467 18.0147L5.59578 17.6948C5.59578 17.6859 5.60023 17.6769 5.60911 17.6724Z" fill="black"/>
<path fill-rule="evenodd" clip-rule="evenodd" d="M11.7642 4.05973H11.6532C12.1465 4.14862 12.8709 4.40194 13.2841 4.56637C12.5688 4.3495 11.8398 4.18025 11.102 4.05973C10.5154 4.07307 9.98214 4.10417 9.68888 4.13084C9.28891 4.15751 8.88446 4.37527 8.55114 4.6197C8.29474 4.80894 8.06198 5.02827 7.85785 5.273C7.80008 5.3441 7.69342 5.41966 7.56009 5.49522C7.42677 5.57076 7.26677 5.65076 7.089 5.73964L6.98235 5.78852C6.65792 5.94407 6.30238 6.1174 6.01351 6.3085C5.75575 6.47738 5.60908 6.62848 5.52464 6.74403C5.44465 6.86403 5.42688 6.94846 5.43577 6.98847V6.99735C5.42243 7.06401 5.44909 7.25067 5.70241 7.39733C5.86241 7.49511 6.00017 7.5751 6.16906 7.61066C6.33794 7.65065 6.54236 7.6462 6.83569 7.5751H6.84902L6.85791 7.58399C7.39121 7.43289 8.52893 7.17068 9.35559 7.1929C8.86669 7.1929 7.69787 7.44178 7.02678 7.60175L7.92896 7.56621L8.27561 7.55732C8.87557 7.53954 9.56444 7.51288 10.1866 7.4551C11.9909 7.29066 12.8753 6.78402 13.4352 6.44627C13.4568 6.42579 13.4807 6.40789 13.5063 6.39294L13.4619 5.87296C13.4591 5.81502 13.4696 5.7572 13.4931 5.70408C13.5153 5.64187 13.5508 5.5841 13.5864 5.52632C13.6619 5.41966 13.7552 5.31745 13.8219 5.25966C13.9108 5.12634 14.0086 4.7708 13.5997 4.3886C13.52 4.32212 13.4279 4.27225 13.3287 4.24194C13.2087 4.1975 13.0619 4.1664 12.8975 4.13973C12.5221 4.08603 12.1434 4.05781 11.7642 4.05529V4.05973ZM13.5597 6.3796L13.5153 5.86852C13.5153 5.82408 13.5197 5.7752 13.5419 5.72187C13.5641 5.66854 13.5952 5.61075 13.6308 5.55743C13.7064 5.45077 13.7997 5.35299 13.8575 5.29522H13.8619C13.973 5.13968 14.0664 4.74859 13.6397 4.3486C13.5539 4.27587 13.454 4.22142 13.3463 4.18862C13.2219 4.14418 13.0708 4.11306 12.9063 4.08639C12.5281 4.03244 12.1465 4.00422 11.7642 4.00197C10.9465 3.98863 10.0888 4.0464 9.68442 4.07751C9.25768 4.13532 8.85496 4.30901 8.52004 4.57971C8.25903 4.76989 8.02178 4.99071 7.8134 5.23744C7.76452 5.30411 7.66675 5.37077 7.53342 5.45077C7.40009 5.52633 7.24011 5.60631 7.06678 5.69075L6.96012 5.73964C6.63569 5.89964 6.27572 6.07296 5.9824 6.26405C5.72463 6.43293 5.56909 6.58849 5.4802 6.71737C5.39577 6.83736 5.37354 6.93514 5.38243 6.99291C5.36466 7.08624 5.40909 7.28622 5.67131 7.44178C5.8313 7.53954 5.97795 7.61954 6.16017 7.66398C6.33349 7.70398 6.54236 7.69953 6.8268 7.63287C6.85168 7.66264 6.87258 7.6955 6.88902 7.73064C6.90043 7.75421 6.9065 7.78001 6.90679 7.8062C6.90679 7.82842 6.90679 7.8462 6.8979 7.86397V7.8773L6.88902 7.9173C6.88902 7.93508 6.88902 7.95729 6.8979 7.97507C6.90679 7.99286 6.92457 8.01063 6.95124 8.01952V9.69054C6.86306 9.74127 6.78476 9.80751 6.72013 9.88608C6.64014 9.9839 6.57348 10.1083 6.57348 10.2682C6.57348 10.4194 6.64014 10.5482 6.72013 10.6415C6.79569 10.7306 6.88902 10.7927 6.95567 10.8238L7.02235 12.0148C7.05345 12.2948 7.129 12.757 7.26233 13.2236C7.39566 13.6903 7.58231 14.1748 7.84008 14.4948C7.91118 14.5924 7.99562 14.6814 8.08006 14.7658L8.08895 15.3391C7.96006 15.4191 7.76897 15.5481 7.58675 15.6769C7.4001 15.8101 7.22232 15.9525 7.14233 16.0457C7.09789 16.0769 7.02678 16.1613 7.05345 16.2946L7.07568 16.3835L5.11133 17.8101L5.14244 17.8546L7.09345 16.4413L7.169 16.699L7.18678 16.7613C7.29969 17.1084 7.39903 17.4597 7.48454 17.8146C7.32899 17.8812 7.09789 18.0279 6.88012 18.1923C6.65792 18.3567 6.43571 18.5345 6.30238 18.6456L6.34238 18.6901C6.4757 18.5744 6.68903 18.3967 6.91123 18.2323C7.07123 18.1167 7.23122 18.0101 7.36455 17.9346C7.06276 18.2015 6.76203 18.4696 6.46237 18.7389V18.7479L6.51126 18.7611V18.7655L6.53348 18.7434C6.64797 18.6323 6.76655 18.5256 6.88902 18.4234L7.50231 17.8857L7.57787 18.17L7.5912 18.259V18.2634C7.5912 18.2901 7.59564 18.3123 7.60454 18.3345C7.61786 18.3567 7.64008 18.3745 7.67119 18.3835C7.90898 18.4269 8.14605 18.4743 8.38228 18.5256L7.56898 18.8056C7.48645 18.8334 7.40622 18.8676 7.32899 18.9079C7.32153 18.9139 7.31547 18.9215 7.31121 18.93C7.30233 18.9523 7.31121 18.97 7.3201 18.9745L7.34677 19.0011L7.43566 19.05C7.50231 19.0855 7.58675 19.1211 7.64453 19.1433L9.06668 19.7744L9.08445 19.7255L7.66675 19.0945C7.56454 19.0519 7.4651 19.0028 7.36898 18.9478L7.38232 18.939L7.44454 18.9079C7.48898 18.8855 7.54675 18.8678 7.58231 18.8589L8.48892 18.5478H8.49781V18.5434L9.07556 18.3434V17.4102L11.8132 19.8678L11.8486 19.8277L10.7732 18.8589C11.0843 18.8278 11.5731 18.7611 12.0131 18.6635C12.2354 18.619 12.4575 18.5612 12.6353 18.499C12.7731 18.4545 12.8975 18.3967 12.9819 18.339C12.9375 18.8278 12.8709 19.3078 12.7731 19.6456L12.8264 19.6589C12.9419 19.2678 13.0086 18.6945 13.0487 18.1346L13.0887 17.4545L13.6397 18.0635L14.973 18.0101L15.1507 17.9923C15.1507 18.0012 15.1507 18.0101 15.1419 18.019L14.2086 19.1744L14.2485 19.2055C14.4396 18.97 14.7552 18.5834 14.964 18.3167L14.9685 18.3212L15.0574 18.3567L15.1463 18.3967L15.4707 18.5301L15.4929 18.4856C15.3388 18.4205 15.1848 18.3554 15.0308 18.2901L14.9996 18.2767L15.0618 18.2011L15.6218 18.4323L15.644 18.3835L15.0974 18.1612L15.1863 18.0545C15.2174 18.0101 15.1952 17.9656 15.1863 17.9434L15.173 17.9346L14.9685 17.9567L14.1196 17.9923L14.1819 17.9522L14.2796 17.8945L14.4929 17.7613C14.5136 17.7453 14.529 17.7236 14.5374 17.699C14.5508 17.6767 14.5508 17.6546 14.5464 17.6368C14.5395 17.605 14.5242 17.5759 14.5019 17.5523L14.3464 17.1346C14.2845 16.9601 14.2398 16.78 14.213 16.5968C14.4886 16.7434 14.9196 16.9657 15.3596 17.1746C15.8218 17.3967 16.2973 17.5968 16.6217 17.6857L16.6352 17.6323C16.3196 17.5435 15.8441 17.3434 15.3863 17.1257C14.9856 16.9374 14.59 16.7389 14.1997 16.5302C14.1887 16.4909 14.1754 16.4523 14.1596 16.4146C14.1536 16.4034 14.1462 16.3929 14.1375 16.3835V16.379L13.1019 15.6058V15.1835C13.46 14.9626 13.7601 14.6594 13.9775 14.2992C14.3408 13.7 14.5244 13.0087 14.5064 12.3082C15.0708 12.1615 15.4841 12.0327 15.7863 11.9304H15.7907C15.9556 11.8703 16.1186 11.8051 16.2796 11.7348C16.3685 11.6949 16.4173 11.6682 16.4441 11.6459L16.7106 11.206C16.7729 11.1216 16.8796 10.9971 17.004 10.8949C17.0662 10.8416 17.1285 10.7927 17.1951 10.7616C17.2478 10.731 17.3068 10.7127 17.3676 10.708C17.4283 10.7034 17.4894 10.7126 17.5462 10.7349C17.5862 10.7482 17.6128 10.7705 17.6439 10.7927L17.6528 10.8015C17.6795 10.8238 17.7062 10.8461 17.7417 10.8638C17.7818 10.8816 17.8306 10.8949 17.8928 10.8949C17.9506 10.8949 18.0083 10.8682 18.0662 10.8371C18.1194 10.8015 18.1772 10.7482 18.2261 10.6994C18.4324 10.4658 18.6018 10.202 18.7282 9.91719C18.8171 9.72609 18.8883 9.50833 18.8883 9.32167C18.8798 9.05248 18.7899 8.79217 18.6305 8.57505C18.517 8.40388 18.3492 8.27606 18.1539 8.21233C17.9586 8.1486 17.7476 8.1527 17.555 8.22395C17.4751 8.25951 17.4217 8.31284 17.3773 8.35728L17.3684 8.36617C17.3239 8.4106 17.2885 8.44616 17.235 8.47727C17.1728 8.50838 17.0884 8.53061 16.9595 8.53061C16.8573 8.53061 16.7817 8.50838 16.7196 8.47282C16.6644 8.44008 16.6197 8.39229 16.5906 8.33506C16.5418 8.2312 16.5262 8.11478 16.5461 8.00174C16.5596 7.93953 16.5906 7.83731 16.6662 7.75287C16.7373 7.67288 16.844 7.60621 16.9995 7.60621C17.0262 7.60621 17.0662 7.60621 17.1061 7.61954C17.1506 7.62843 17.1862 7.64176 17.2039 7.66398C17.2262 7.6862 17.2484 7.69953 17.2795 7.70842C17.3106 7.71731 17.3418 7.71287 17.3818 7.70842C17.4618 7.69065 17.5684 7.6462 17.715 7.56621C18.0262 7.39289 18.0438 7.05957 18.0438 6.99291C18.0438 6.95735 18.0217 6.82402 17.9418 6.69958C17.888 6.62067 17.8147 6.55706 17.729 6.51499C17.6433 6.47292 17.5481 6.45383 17.4528 6.4596C17.1994 6.4596 17.075 6.5396 17.0306 6.64181C17.0114 6.68855 17.0099 6.74066 17.0262 6.78847C17.0396 6.83292 17.0707 6.86403 17.1017 6.8818C17.164 6.91291 17.2218 6.92625 17.2795 6.90847C17.3284 6.89514 17.3729 6.86403 17.404 6.8107C17.4262 6.8107 17.4483 6.82402 17.4706 6.83736C17.4928 6.85958 17.515 6.89069 17.515 6.93957C17.515 7.00624 17.4973 7.03735 17.4706 7.05512C17.435 7.0729 17.3818 7.0818 17.2928 7.0818C17.2543 7.08076 17.2165 7.07168 17.1818 7.05512C17.1622 7.04825 17.143 7.04084 17.124 7.0329L17.1195 7.02847C16.9603 6.94659 16.7829 6.9068 16.6041 6.91291C16.1417 6.91291 15.6796 7.344 15.5862 7.97063C15.4973 8.59282 15.5996 9.08168 15.8617 9.335C15.9907 9.46388 16.1996 9.60166 16.3863 9.69054C16.4796 9.73053 16.5729 9.76165 16.6529 9.77053C16.724 9.77942 16.795 9.77053 16.8306 9.72164C16.8661 9.6772 16.884 9.63277 16.9017 9.58832L16.9151 9.55276L16.9506 9.46388C16.9654 9.42812 16.9901 9.3973 17.0217 9.37499C17.0652 9.35118 17.1145 9.34038 17.164 9.34389C17.2973 9.34389 17.3773 9.4061 17.4306 9.49499C17.4751 9.58387 17.4973 9.70388 17.4973 9.80164C17.4973 9.89053 17.4706 9.95714 17.435 10.0016C17.395 10.0461 17.3462 10.0683 17.284 10.0816C17.2129 10.0994 17.1329 10.1483 17.0529 10.2328C16.964 10.3172 16.8751 10.4327 16.7862 10.5927C16.7456 10.6747 16.6808 10.7422 16.6004 10.7859C16.5201 10.8297 16.4283 10.8475 16.3373 10.8371H16.3329C15.4573 10.8371 14.733 10.9127 14.1464 11.0282V10.0194H14.1375C14.2975 9.82831 14.3996 9.56165 14.3996 9.27278C14.3996 8.91725 14.253 8.60616 14.0308 8.41505C13.9348 7.89165 13.7811 7.38045 13.5731 6.89069C13.6015 6.86513 13.6254 6.8351 13.6442 6.80181C13.6663 6.7618 13.6841 6.71292 13.6708 6.65959C13.6535 6.57684 13.6313 6.49522 13.6042 6.41516C13.5983 6.40508 13.5907 6.39605 13.5819 6.38849C13.5759 6.38213 13.5682 6.37753 13.5597 6.37516V6.3796ZM9.53779 17.3923L10.6488 18.7523L9.08445 17.3346V17.3213H9.07112L8.89335 17.1613C9.05334 17.2367 9.27553 17.3213 9.54225 17.3834L9.53779 17.3923ZM10.7643 18.8056L9.62666 17.4146C10.5075 17.6224 11.4302 17.5668 12.2798 17.2546C12.4887 17.1746 12.6886 17.0769 12.8531 16.9568L13.0353 17.4057C13.0254 17.6934 13.0091 17.9809 12.9864 18.2679C12.9108 18.33 12.7819 18.3923 12.6131 18.45C12.4354 18.5123 12.2264 18.5656 11.9998 18.6145C11.5598 18.7034 11.0798 18.7745 10.7643 18.8056ZM13.0397 17.2723L13.0487 16.7835C13.0042 16.8323 12.9553 16.8813 12.8975 16.9257L13.0397 17.2723ZM13.1019 16.7079V15.668L14.0975 16.4146L14.1108 16.4324L14.133 16.4902C14.1617 16.7151 14.2169 16.9359 14.2975 17.1478C14.3508 17.3123 14.413 17.4723 14.453 17.5702V17.579H14.4575C14.4708 17.5968 14.4886 17.619 14.4929 17.6412V17.6767C14.4841 17.6857 14.4796 17.699 14.4619 17.7123C14.3616 17.7814 14.2578 17.8452 14.1508 17.9034L14.0086 17.9923H13.9197L14.2841 17.6456L13.8575 17.9967L13.6619 18.0057L13.1109 17.3923C13.1775 17.2946 13.3864 16.939 13.4975 16.7434L13.0975 17.3123L13.1064 16.7079H13.1019ZM13.0442 16.6946C12.8931 16.9169 12.5865 17.0812 12.262 17.2013C11.2205 17.5862 10.0739 17.5751 9.04001 17.1702H9.07112L9.03557 15.3836C9.52887 15.5747 10.1376 15.6636 10.9021 15.6636C11.6754 15.6636 12.2886 15.5657 12.7908 15.348C12.8797 15.3036 12.9643 15.2636 13.0442 15.2146V16.6946ZM9.01779 17.1657L8.98223 15.3613C8.66789 15.2352 8.37999 15.0513 8.1334 14.8192L8.17339 16.5212L8.26672 16.6102C8.29783 16.5702 8.37337 16.5212 8.4756 16.5212C8.55559 16.5212 8.64003 16.5791 8.70669 16.6768C8.76891 16.7701 8.8178 16.9079 8.82224 17.0769L9.01779 17.1657ZM8.4756 16.5702C8.38671 16.5702 8.32894 16.6146 8.30671 16.6413L8.76891 17.059C8.76002 16.9079 8.71558 16.7879 8.66225 16.7035C8.60004 16.6146 8.52892 16.5702 8.4756 16.5702ZM14.9907 18.2901L14.9685 18.3167H14.9774C14.9864 18.3123 14.9864 18.2989 14.9907 18.2901ZM9.02224 17.3612L8.10673 16.539L8.11561 16.5302V16.5212L7.36009 16.0457L8.11561 16.4635V16.4458L7.77786 16.0457L8.11118 16.379L8.08895 15.4013C7.96006 15.4813 7.78229 15.6013 7.61343 15.7213C7.42232 15.8546 7.249 15.9969 7.17344 16.0857L7.169 16.0901C7.14233 16.1035 7.08012 16.1702 7.10234 16.2858C7.12011 16.3657 7.16456 16.5124 7.21788 16.6857L7.23566 16.7434C7.28011 16.899 7.33344 17.059 7.36898 17.1968C7.46338 17.5483 7.55374 17.901 7.64008 18.2546C7.64008 18.2856 7.64453 18.2989 7.64897 18.3123L7.68453 18.3345L7.80008 18.3611L8.48004 18.4945L9.02224 18.3079V17.3612ZM13.5997 10.3216C13.7863 10.3001 13.9593 10.2135 14.0885 10.0772V11.0416C13.6886 11.1216 13.3597 11.2194 13.0798 11.3259C12.8362 11.4161 12.6023 11.5307 12.3819 11.6682C10.7822 11.6415 9.47111 11.8548 8.89335 11.9971L8.80446 10.9349C8.9689 10.8416 9.11556 10.7527 9.24889 10.6683C9.41335 10.5661 9.5466 10.4727 9.6222 10.4061C9.66668 10.4905 9.71107 10.5571 9.73772 10.5972L9.75556 10.6238C9.81332 10.7127 9.87999 10.815 9.97332 10.8994C10.0754 10.9971 10.2088 11.077 10.3865 11.077C10.4621 11.077 10.5421 11.0416 10.6221 10.9926C10.7065 10.9483 10.791 10.8771 10.871 10.8015C11.031 10.655 11.1821 10.4772 11.2665 10.3572C11.3598 10.2328 11.5065 10.015 11.6487 9.77498C11.7864 9.53054 11.9198 9.2639 11.9865 9.03724C11.9998 8.97502 12.0131 8.86835 11.9998 8.75281C11.9909 8.66393 11.9687 8.56615 11.9154 8.47282C12.2375 8.1387 12.5446 7.79022 12.8353 7.42844C12.9331 7.44621 13.0798 7.4551 13.2308 7.41955C13.373 7.38399 13.5197 7.30845 13.6219 7.16623C13.7331 7.46399 13.8797 7.91285 13.9641 8.36617C13.8214 8.26677 13.6487 8.21968 13.4752 8.23284V8.22839C13.0442 8.22839 12.7731 8.40616 12.6087 8.62837C12.4736 8.82123 12.4007 9.05071 12.3998 9.28612C12.3998 9.47277 12.4887 9.73053 12.6353 9.93942C12.7776 10.1527 12.9864 10.3216 13.2219 10.3216H13.6086H13.5997ZM13.5997 7.10845L13.5242 6.93514C13.4708 6.98402 13.3908 7.03735 13.3019 7.09068C13.1846 7.15784 13.0645 7.22012 12.9419 7.27734L12.8709 7.38399C12.9598 7.39733 13.0931 7.39733 13.2175 7.36622C13.3642 7.33067 13.5063 7.25512 13.5952 7.10845H13.5997ZM7.00456 8.34839V8.03286C7.11568 8.04618 7.31121 8.0684 7.58231 8.08618C7.52454 8.15284 7.45787 8.26839 7.42232 8.43283L7.00456 8.34395V8.34839ZM7.00456 8.60616V8.40172L9.02667 8.81503C9.00499 8.85013 8.99133 8.88959 8.98667 8.93058V9.01058L7.00456 8.60616ZM7.08456 8.93503C7.05623 8.84835 7.03687 8.759 7.02678 8.66838L7.43566 8.74837C7.45342 8.8017 7.48454 8.88169 7.52898 8.95725C7.56898 9.02391 7.61786 9.09057 7.67564 9.13501H7.60898C7.47565 9.13501 7.3601 9.18834 7.26677 9.26834C7.18641 9.16985 7.12603 9.05663 7.089 8.93503H7.08456ZM8.02229 9.13057H7.76008C7.68316 9.08068 7.6204 9.0118 7.57787 8.93058C7.54587 8.87696 7.51908 8.82042 7.49787 8.7617L7.65786 8.79282C7.68453 8.84614 7.73786 8.92169 7.80452 8.98391C7.86673 9.04612 7.95118 9.09946 8.0445 9.09946C8.20894 9.09946 8.32005 8.99724 8.3556 8.93947L8.80002 9.02836C8.66225 9.25056 8.43116 9.32611 8.32449 9.335C8.21339 9.21501 8.10229 9.15723 8.02673 9.13501L8.02229 9.13057ZM8.49337 9.59276C8.45904 9.51817 8.41576 9.44803 8.36449 9.38389C8.49781 9.36167 8.72002 9.2639 8.85335 9.03724L8.94224 9.05501C8.92891 9.17501 8.85335 9.29057 8.75558 9.38833C8.66669 9.47722 8.56893 9.54832 8.49337 9.59276ZM8.55559 9.77053C8.54671 9.72609 8.52892 9.68165 8.5156 9.64609C8.59114 9.60166 8.69781 9.52166 8.79113 9.42389C8.88891 9.32611 8.97335 9.20613 8.99556 9.07724C9.00446 9.14834 9.02668 9.21945 9.04889 9.28612L9.1289 9.46388C9.09334 9.55276 8.99556 9.65943 8.88003 9.74831C8.7867 9.82831 8.68003 9.89497 8.60448 9.93942L8.56003 9.76609L8.55559 9.77053ZM8.76002 10.6061C8.7378 10.4905 8.68892 10.2639 8.61781 9.99271C8.69781 9.94834 8.8089 9.87274 8.91557 9.78832C9.01335 9.70831 9.10668 9.61944 9.16 9.52611V9.53055C9.26237 9.73348 9.36752 9.93495 9.47557 10.135C9.39998 10.2017 9.27108 10.2905 9.10668 10.3927L8.76002 10.6061ZM8.50671 9.77942C8.61781 10.1661 8.68447 10.4994 8.71558 10.6372L8.44004 10.7971C8.41338 10.5305 8.35116 10.0016 8.32449 9.82386C8.30227 9.70831 8.23561 9.53499 8.12006 9.39278C8.04895 9.30389 7.96006 9.23278 7.85341 9.1839H8.02229C8.1334 9.21945 8.40004 9.38389 8.51115 9.77942H8.50671ZM8.27116 9.83275C8.30227 10.015 8.36005 10.5661 8.39116 10.8282C7.94879 11.0834 7.50285 11.3322 7.05345 11.5748L7.00901 10.8461C7.15578 10.8972 7.31554 10.8972 7.46231 10.8461C7.55564 10.8105 7.64453 10.7482 7.70675 10.6505C7.77341 10.5571 7.8134 10.4282 7.8134 10.255C7.8134 10.1172 7.77786 10.0061 7.72452 9.92164C7.67119 9.8372 7.5912 9.77942 7.50676 9.74387C7.36193 9.68466 7.20401 9.66472 7.049 9.68609C7.08012 9.59721 7.14233 9.48166 7.22677 9.38389C7.32899 9.27278 7.45787 9.18834 7.61343 9.18834C7.8134 9.18834 7.96895 9.29057 8.07562 9.42833C8.18672 9.56165 8.25339 9.72609 8.27116 9.83275ZM7.07123 11.8505L7.05345 11.6283C7.75852 11.2468 8.45496 10.8498 9.14222 10.4372C9.29773 10.3394 9.42662 10.2505 9.50668 10.1838L9.60001 10.3616C9.52887 10.4238 9.39551 10.5128 9.22222 10.6282L8.5156 11.046C8.00896 11.3394 7.44899 11.646 7.06678 11.8505H7.07123ZM7.07568 12.0103L7.07123 11.9083C7.42677 11.7215 7.95117 11.4326 8.44449 11.1526L8.50226 12.0726H8.7778V12.0815L8.79558 12.0771C9.28445 12.4104 10.7287 12.9348 12.7953 12.4948C13.2219 12.5304 13.7775 12.4948 14.4486 12.3215H14.453C14.4752 12.6681 14.3996 13.5215 13.9286 14.2725C13.6572 14.7252 13.2519 15.0825 12.7687 15.2947C12.2798 15.5169 11.6709 15.6102 10.9021 15.6102C9.37778 15.6102 8.50226 15.2457 7.88007 14.4636C7.61625 14.0842 7.4249 13.6594 7.31565 13.2104C7.18233 12.7437 7.10679 12.2903 7.07568 12.0103ZM8.55559 12.0193L8.49337 11.1216L8.76002 10.966L8.84447 12.0103L8.80002 12.0193H8.55559ZM8.30671 8.92614L7.72897 8.80614C7.76008 8.85059 7.80008 8.89947 7.84452 8.94391C7.90673 9.00613 7.97785 9.04612 8.04895 9.04612C8.17339 9.04612 8.26672 8.97502 8.30671 8.92614ZM7.4801 8.44171C7.5201 8.25506 7.60898 8.13062 7.65342 8.09062L7.79119 8.09951C7.72452 8.17063 7.63564 8.2995 7.61343 8.46838L7.4801 8.44171ZM7.86673 8.10841C8.13339 8.1173 8.45338 8.13062 8.82669 8.13062C8.85335 8.1884 8.89335 8.28173 8.92002 8.39728C8.94668 8.50393 8.96001 8.62837 8.93335 8.73948L7.66675 8.48172C7.68896 8.28616 7.80896 8.1484 7.86673 8.10841ZM8.97779 8.38394C8.95724 8.29802 8.92744 8.21457 8.88891 8.13506H9.0089C9.05334 8.22395 9.13333 8.46393 9.09334 8.73948C9.08245 8.74774 9.07206 8.75666 9.06223 8.76614L8.98667 8.74837C9.01335 8.62837 9.00001 8.49505 8.97335 8.38394H8.97779ZM9.15556 8.69504C9.20889 8.65948 9.27108 8.6417 9.3111 8.63281L9.44446 8.59726C9.48884 8.3395 9.42662 8.17951 9.39106 8.12618L9.07112 8.13506C9.11556 8.23728 9.17778 8.44616 9.15111 8.69504H9.15556ZM11.3287 8.29506C10.751 8.30395 9.95549 8.47282 9.50222 8.58393C9.53333 8.36172 9.49331 8.20174 9.44892 8.12173C10.4977 8.05951 11.6266 7.77509 12.102 7.62843L12.311 7.54843L11.6309 8.29506H11.6266C11.5198 8.28172 11.4043 8.28616 11.3287 8.29506ZM12.8531 7.31733C12.7109 7.38399 12.5598 7.45066 12.4265 7.50399L11.6931 8.30395L11.7731 8.32617C11.8175 8.34395 11.8531 8.3706 11.8754 8.40616L11.8931 8.42839C12.022 8.29506 12.2219 8.08618 12.4131 7.86842C12.582 7.67288 12.7508 7.47288 12.8575 7.31733H12.8531ZM12.4087 7.45066C12.7035 7.32919 12.9927 7.19425 13.2753 7.04624C13.3908 6.97957 13.4797 6.91291 13.533 6.85958C13.5508 6.84181 13.5775 6.81514 13.5952 6.78402C13.6179 6.75171 13.6275 6.712 13.6219 6.67293C13.6018 6.59144 13.5765 6.51129 13.5464 6.43293C13.5319 6.43814 13.5184 6.44564 13.5063 6.45516C13.4953 6.46478 13.4849 6.47517 13.4752 6.48627H13.4708C12.902 6.82847 12.0131 7.344 10.191 7.50843C9.56444 7.56621 8.88003 7.59287 8.28004 7.61066L7.93341 7.61954C7.50676 7.63287 7.15122 7.64176 6.91568 7.66398L6.93791 7.70842C6.96355 7.761 6.96833 7.82135 6.95124 7.8773V7.89064L6.94234 7.92175V7.94841L6.97345 7.97063C7.19567 8.00618 7.91563 8.08174 9.04889 8.08174C10.1866 8.08174 11.5465 7.74398 12.0887 7.5751L12.3954 7.45954L12.3998 7.45066H12.4087ZM11.3332 8.34395C11.4043 8.3395 11.5154 8.33506 11.6176 8.34395C11.6709 8.35284 11.7154 8.36172 11.751 8.37949C11.7954 8.39283 11.8175 8.4106 11.8309 8.43283C11.9065 8.53504 11.942 8.65504 11.9509 8.7617C11.9642 8.86835 11.9509 8.96613 11.9376 9.02391C11.8754 9.24612 11.7421 9.50833 11.6042 9.74831C11.4885 9.9474 11.3624 10.1402 11.2265 10.3261C11.1376 10.4416 10.9954 10.6194 10.8354 10.766C10.7598 10.8371 10.6754 10.8994 10.5999 10.9483C10.5376 10.9897 10.4657 11.0142 10.391 11.0194C10.3209 11.0195 10.2515 11.0058 10.1867 10.9792C10.1218 10.9526 10.0629 10.9132 10.0132 10.8638C9.92437 10.7794 9.86216 10.6816 9.8044 10.5972L9.79548 10.5838L9.78666 10.5661C9.58217 10.208 9.3866 9.84493 9.20001 9.47722C9.17333 9.42389 9.13778 9.35278 9.10668 9.26834C9.06223 9.16168 9.03557 9.04612 9.04889 8.93503C9.05256 8.89939 9.06401 8.86499 9.08245 8.83427C9.10088 8.80355 9.12584 8.77726 9.15556 8.75726C9.21333 8.71281 9.28 8.69058 9.32448 8.68615C9.97902 8.50335 10.6506 8.38868 11.3287 8.34395H11.3332ZM7.00901 9.41944V9.64165L7.06678 9.52166L7.00901 9.41944ZM7.09789 9.46832C7.13639 9.40895 7.18108 9.35383 7.23122 9.30389C7.1194 9.171 7.04297 9.01202 7.00901 8.8417V9.31278L7.09789 9.46832ZM12.4175 11.7215H12.4043C12.151 11.8815 12.0042 12.0371 11.9331 12.1571L11.942 12.2281C12.1909 12.3749 12.9419 12.5837 14.1019 12.3482L13.9952 12.2059C13.8886 12.1793 13.7731 12.1437 13.6753 12.0815C13.5731 12.0148 13.4931 11.9171 13.4619 11.7704C13.4518 11.7162 13.4559 11.6603 13.4739 11.6081C13.4919 11.5559 13.5228 11.5093 13.5641 11.4727C13.6308 11.4105 13.7108 11.366 13.7731 11.3394V11.1704C13.5242 11.2326 13.2975 11.3038 13.1019 11.3749C12.8632 11.4627 12.6339 11.5743 12.4175 11.7082V11.7215ZM11.5731 11.726C11.8087 11.7171 12.0576 11.7171 12.3065 11.7171C12.102 11.8593 11.9687 11.9971 11.8976 12.1126L11.551 12.1348C11.601 12.0059 11.6103 11.8648 11.5776 11.7304L11.5731 11.726ZM11.471 12.2592L11.8976 12.2637C11.9554 12.2993 12.031 12.3348 12.1286 12.3704C12.1275 12.4267 12.1275 12.483 12.1286 12.5392C11.9109 12.5571 11.7065 12.5748 11.5065 12.5792L11.471 12.2592ZM12.5998 12.477L12.182 12.5304C12.1798 12.483 12.1798 12.4355 12.182 12.3881C12.2975 12.4237 12.4354 12.4548 12.5998 12.477ZM15.9062 11.8282L15.7952 11.8727C15.7377 11.8268 15.6855 11.7747 15.6397 11.7171C15.5729 11.6371 15.5108 11.5394 15.4841 11.4282C15.4352 11.206 15.4841 11.0016 15.5196 10.9172L15.6397 10.9127C15.6085 11.0105 15.5729 11.1971 15.6173 11.3926C15.644 11.5038 15.7062 11.6059 15.7685 11.686C15.8129 11.7483 15.8662 11.7971 15.9018 11.8282H15.9062ZM15.4307 11.4416C15.3863 11.2282 15.4262 11.0238 15.4618 10.9215C15.1507 10.9394 14.8707 10.9705 14.6086 11.0105L14.5775 11.1305C14.6352 11.1305 14.7107 11.1438 14.7774 11.1749C14.8663 11.2194 14.9463 11.2949 14.9907 11.4238C15.0308 11.5571 14.9907 11.6727 14.9374 11.7704C14.8885 11.8548 14.8219 11.9215 14.7686 11.9615L14.9463 12.1304C15.2707 12.0415 15.524 11.9615 15.7329 11.8904C15.6885 11.8548 15.644 11.8104 15.5997 11.7527C15.5284 11.6638 15.4618 11.5615 15.4307 11.4416ZM14.5108 11.1882L14.5508 11.0149L14.4085 11.0371L14.373 11.286C14.4441 11.2816 14.533 11.286 14.613 11.3171C14.7064 11.3527 14.7952 11.4238 14.8174 11.5571C14.8174 11.6371 14.7729 11.806 14.5596 11.9393C14.5952 12.0103 14.6664 12.126 14.7375 12.1927L14.8885 12.1482L14.684 11.9571L14.7107 11.9393C14.7641 11.9038 14.8396 11.8327 14.8885 11.7438C14.9419 11.6549 14.973 11.5482 14.9329 11.4416C14.9199 11.3955 14.8972 11.3528 14.8667 11.316C14.8361 11.2793 14.7981 11.2494 14.7552 11.2282C14.6905 11.1959 14.6186 11.1806 14.5464 11.1838L14.5108 11.1882ZM14.6752 12.2104C14.5643 12.2392 14.4532 12.2673 14.3419 12.2948L14.1508 12.0015H14.1108L14.2619 11.8327L14.4929 11.9171L14.5019 11.9438C14.5285 11.9971 14.5996 12.126 14.6752 12.2104ZM14.5108 11.9083C14.7241 11.7838 14.7641 11.6238 14.7641 11.566C14.7575 11.5195 14.7376 11.476 14.7068 11.4406C14.6761 11.405 14.6359 11.3791 14.5908 11.366C14.5121 11.3396 14.4284 11.3321 14.3464 11.3438H14.3108L14.3552 11.0504C14.2541 11.0664 14.1535 11.0842 14.0531 11.1038V11.4416L14.0308 11.4504C13.9775 11.4638 13.8975 11.4994 13.8308 11.5571C13.7642 11.6104 13.7197 11.6815 13.7241 11.7704C13.7331 11.8548 13.7953 11.9127 13.8797 11.9482C13.9553 11.9793 14.0352 11.9927 14.1019 12.0015L14.0752 11.7571L13.9152 11.6682L14.0975 11.5437L14.1686 11.3126L14.2708 11.4994H14.5197L14.3908 11.6682L14.5108 11.9083ZM14.2886 12.3082L14.1552 12.3348L14.0308 12.1571H14.0175C13.9064 12.1304 13.7953 12.0949 13.7064 12.0371C13.6561 12.0071 13.6131 11.9664 13.5801 11.9181C13.5471 11.8698 13.5249 11.8148 13.5153 11.7571C13.508 11.7121 13.5123 11.6661 13.5279 11.6233C13.5435 11.5806 13.5697 11.5424 13.6042 11.5127C13.6663 11.446 13.7507 11.406 13.8085 11.3882L13.8308 11.3838V11.1571L13.9996 11.1126V11.3971C13.9375 11.4193 13.8619 11.4549 13.7953 11.5083C13.7241 11.5705 13.6619 11.6549 13.6708 11.7659C13.6798 11.8815 13.7642 11.9526 13.8575 11.9927C13.9464 12.0327 14.0486 12.0459 14.1241 12.0504L14.2886 12.3037V12.3082ZM17.1285 6.84181C17.1156 6.83475 17.1043 6.82523 17.095 6.8138C17.0859 6.80236 17.0792 6.78922 17.075 6.77514C17.0653 6.73966 17.0685 6.70186 17.0839 6.66848C17.1106 6.59737 17.2084 6.51738 17.4528 6.51738C17.6884 6.51738 17.8217 6.62404 17.8973 6.73514C17.9729 6.8507 17.9862 6.97068 17.9862 7.00179C17.9862 7.05957 17.9729 7.36622 17.6884 7.52177C17.5417 7.60621 17.444 7.6462 17.3729 7.65509C17.3468 7.66249 17.3195 7.66401 17.2928 7.65954C17.2798 7.65638 17.2676 7.6503 17.2574 7.64176V7.63287C17.233 7.5816 17.1977 7.53631 17.1539 7.50021C17.1101 7.46411 17.0589 7.43809 17.004 7.424C17.0484 7.44621 17.1373 7.51288 17.1684 7.58399C17.1125 7.5656 17.054 7.55659 16.9951 7.55732C16.8261 7.55732 16.7017 7.63287 16.6217 7.7262C16.5461 7.81508 16.5062 7.92619 16.4929 7.9973C16.4796 8.09507 16.4796 8.24173 16.5418 8.36172C16.5773 8.42394 16.6217 8.48172 16.6929 8.52172C16.7596 8.56615 16.8485 8.58837 16.9595 8.58837C17.0929 8.58837 17.1862 8.56615 17.2574 8.52616C17.3195 8.49505 17.3639 8.45061 17.404 8.40616L17.4173 8.39728C17.4618 8.35284 17.5062 8.30839 17.5773 8.27727C17.758 8.21097 17.9556 8.20735 18.1386 8.267C18.3216 8.32665 18.4792 8.4461 18.5861 8.60616C18.7461 8.82836 18.835 9.09946 18.835 9.32167C18.835 9.49943 18.7683 9.70388 18.6839 9.89497C18.595 10.086 18.4928 10.2505 18.4261 10.3528C18.357 10.4644 18.2766 10.5686 18.1862 10.6638C18.1417 10.7127 18.0884 10.7572 18.035 10.7883C17.9937 10.8192 17.9443 10.8378 17.8928 10.8416C17.8551 10.8427 17.8175 10.8362 17.7825 10.8225C17.7473 10.8087 17.7153 10.788 17.6884 10.7616L17.675 10.7527C17.6414 10.7251 17.604 10.7027 17.564 10.686C17.4996 10.6598 17.4302 10.6486 17.3608 10.6533C17.2916 10.6578 17.2242 10.6782 17.164 10.7127C16.9736 10.8382 16.8054 10.9943 16.6662 11.1749L16.4085 11.6059C16.3545 11.6438 16.2964 11.6751 16.2351 11.6993C15.9285 11.3126 15.9418 11.0061 15.9818 10.8994L16.3373 10.8949C16.4441 10.9127 16.6929 10.8861 16.8395 10.6238C16.9284 10.4682 17.0173 10.3572 17.0929 10.2727C17.1551 10.2149 17.2084 10.1749 17.2574 10.1572L17.244 10.1616C17.8883 10.1305 17.8617 9.41944 17.7683 9.0639C17.8395 9.69943 17.6306 9.97052 17.4618 10.0549C17.4926 10.0208 17.5164 9.98079 17.5318 9.93724C17.547 9.89376 17.5534 9.84765 17.5506 9.80164C17.5506 9.70388 17.5374 9.57944 17.4794 9.47722C17.4506 9.42021 17.4058 9.37272 17.3508 9.34042C17.2956 9.30811 17.2322 9.29235 17.1684 9.295C17.1061 9.29163 17.0441 9.30713 16.9906 9.33945C16.9518 9.3662 16.921 9.4031 16.9017 9.44611L16.8661 9.54387L16.8573 9.57499C16.8395 9.61944 16.8218 9.65943 16.795 9.69499C16.7773 9.72164 16.7329 9.73053 16.6618 9.72164C16.5754 9.70679 16.4917 9.67986 16.4129 9.64165C16.2307 9.55721 16.0262 9.42389 15.9062 9.30389C15.7221 9.09508 15.6195 8.82679 15.6173 8.54837C15.6708 8.65059 15.7818 8.79725 15.9774 8.93503C15.8081 8.78421 15.6823 8.59087 15.6128 8.37505C15.6128 8.25062 15.6263 8.12173 15.644 7.98397C15.7329 7.3751 16.1773 6.97068 16.6041 6.97068C16.7753 6.96465 16.9452 7.00291 17.0973 7.0818H17.1061L17.164 7.11291C17.2084 7.12623 17.2484 7.13956 17.2973 7.13956C17.3862 7.13956 17.4528 7.13512 17.5018 7.104C17.5506 7.07735 17.5728 7.02401 17.5728 6.95291C17.6528 6.75737 17.5195 6.59737 17.4395 6.5396C17.4839 6.59737 17.564 6.73514 17.5595 6.86846C17.5476 6.84215 17.5292 6.81923 17.5062 6.80181C17.4753 6.77766 17.4384 6.7623 17.3995 6.75737H17.3906C17.355 6.69069 17.2706 6.68181 17.2306 6.68626C17.275 6.69514 17.3506 6.7307 17.3639 6.78847C17.3427 6.82285 17.3094 6.84816 17.2706 6.85958C17.2241 6.87072 17.1751 6.86439 17.1329 6.84181H17.1285ZM15.9197 10.8994C15.8752 11.0416 15.8929 11.3482 16.1817 11.7215L15.964 11.8104C15.906 11.7652 15.8537 11.713 15.8085 11.6549C15.7427 11.5743 15.6957 11.4803 15.6708 11.3794C15.6263 11.1838 15.6663 10.9971 15.6974 10.9082L15.9197 10.8994ZM9.7822 11.8859L9.29337 11.966C9.29337 12.0371 9.33775 12.1659 9.49776 12.2326C9.60882 12.2193 9.77328 12.2104 9.95549 12.2059C9.86371 12.1215 9.80274 12.0089 9.7822 11.8859ZM9.83551 11.8771C9.84889 11.9571 9.90218 12.1126 10.04 12.2015C10.1658 12.1987 10.2917 12.1987 10.4176 12.2015L10.7466 12.1793L10.7021 11.7793C10.3822 11.806 10.0932 11.8415 9.83551 11.8771ZM10.7554 11.7749L10.7998 12.1748L11.4887 12.1348C11.5243 12.0683 11.5375 11.9927 11.542 11.9215C11.542 11.8415 11.5332 11.7704 11.5198 11.7304C11.2532 11.7393 10.9954 11.7527 10.7554 11.7749ZM11.4531 12.5792L11.4176 12.2592L10.8088 12.2504L10.8177 12.5703C11.0176 12.5792 11.231 12.5837 11.4531 12.5792ZM10.7643 12.5659L10.751 12.2549L10.6488 12.2504C10.4755 12.254 10.3021 12.254 10.1288 12.2504L10.0888 12.3659C10.0786 12.4036 10.0742 12.4426 10.0754 12.4815C10.2844 12.5171 10.5154 12.5482 10.7643 12.5659ZM10.0221 12.4682C10.0221 12.4327 10.0266 12.3881 10.0355 12.3526L10.0666 12.2549C9.88569 12.2599 9.70495 12.2688 9.52441 12.2815L9.55552 12.3526C9.69334 12.3971 9.84889 12.4371 10.0221 12.4682ZM7.19121 10.8282L7.13789 10.8238C7.29344 10.7927 7.40454 10.7127 7.4801 10.6194C7.57787 10.495 7.61343 10.3528 7.62231 10.255C7.62231 9.9839 7.51121 9.83275 7.37343 9.7572L7.36455 9.75276C7.40898 9.76164 7.44899 9.77498 7.48454 9.79275C7.56382 9.82604 7.63175 9.88162 7.68008 9.95279C7.72452 10.0283 7.76008 10.1261 7.76008 10.255C7.76008 10.4194 7.72008 10.5394 7.66231 10.6238C7.60944 10.7018 7.53319 10.7609 7.44454 10.7927C7.3601 10.8238 7.27122 10.8371 7.19121 10.8282ZM6.96901 9.74387C6.91123 9.77498 6.83124 9.83275 6.76458 9.92164C6.68458 10.0106 6.62681 10.1261 6.62681 10.2682C6.62681 10.4016 6.68458 10.5216 6.76014 10.6061C6.84013 10.695 6.92902 10.7527 6.99123 10.7838C7.21344 10.7838 7.34677 10.695 7.43566 10.5838C7.52454 10.4727 7.56009 10.3394 7.56898 10.2505C7.56898 9.99718 7.46676 9.86831 7.34677 9.80609C7.2312 9.74895 7.1004 9.73026 6.97345 9.75276V9.74387H6.96901ZM14.1819 11.4504L14.1464 11.5748L14.0131 11.6638L14.1286 11.726L14.142 11.8859L14.2485 11.7659L14.413 11.8282L14.3241 11.6594L14.413 11.5527H14.2352L14.1819 11.4504ZM12.6575 8.65948C12.5284 8.843 12.4586 9.0617 12.4575 9.28612C12.4575 9.45943 12.542 9.70831 12.6798 9.9083C12.8264 10.1172 13.0175 10.2682 13.2264 10.2682H13.2531C12.9108 10.1305 12.6619 9.73498 12.6619 9.27723C12.6619 8.84615 12.8753 8.47727 13.182 8.31728C12.9714 8.36396 12.7851 8.48557 12.6575 8.65948ZM12.7154 9.27723C12.7154 9.82386 13.0708 10.255 13.5019 10.2682H13.5553C13.9819 10.2505 14.3374 9.82386 14.3374 9.27723C14.3374 8.71726 13.9641 8.28173 13.5242 8.28173C13.0842 8.28173 12.7109 8.71726 12.7109 9.27723H12.7154ZM13.5686 9.89053C13.6663 9.89053 13.7552 9.86386 13.8353 9.81053L13.7775 9.77498H13.7731L13.3108 9.60166L13.3819 9.85053C13.4397 9.87719 13.5063 9.89497 13.5686 9.89497V9.89053ZM14.1196 9.30834C14.1032 9.48815 14.0191 9.65498 13.8841 9.77498L13.8085 9.73053L14.022 9.44611V9.42389L14.1196 9.30834ZM14.1241 9.20613V9.21945L14.0086 9.35278L13.9375 8.8017H13.933L13.9108 8.66838C14.0441 8.79282 14.1241 8.98391 14.1241 9.20613ZM13.8752 8.77948L13.8486 8.61505C13.7642 8.55726 13.6708 8.52616 13.5686 8.52616C13.4486 8.52616 13.3331 8.5706 13.2398 8.65948H13.3819L13.3864 8.6417L13.8752 8.77948ZM13.0131 9.20613C13.0131 9.00613 13.0842 8.83281 13.1908 8.70837H13.3463L13.1153 9.0639L13.0131 9.22834V9.20613ZM13.3152 9.81497C13.1642 9.72164 13.0487 9.53944 13.022 9.32167L13.1331 9.13501L13.2442 9.57943L13.3152 9.81497ZM13.5686 9.94834C13.9064 9.94834 14.1819 9.61499 14.1819 9.20613C14.1819 8.8017 13.9064 8.46838 13.5686 8.46838C13.2308 8.46838 12.9598 8.8017 12.9598 9.20613C12.9598 9.61499 13.2308 9.94387 13.5686 9.94387V9.94834ZM13.8886 8.83725L13.9597 9.4061L13.9641 9.42833L13.7552 9.71276L13.2886 9.53499L13.1731 9.0728L13.4131 8.70392L13.8886 8.83725ZM5.95129 6.97068L6.16461 6.78847C6.14691 6.84366 6.11647 6.89391 6.07573 6.93514C6.03858 6.95883 5.99534 6.97118 5.95129 6.97068ZM7.4712 6.25962C6.95035 6.38983 6.46958 6.64625 6.07128 7.00624L6.66681 6.65515L6.56459 6.78847C6.67125 6.72626 6.95124 6.5796 7.23122 6.49516C7.51121 6.41072 8.40004 6.06407 8.8089 5.89964L7.29788 6.36627L7.47565 6.25517L7.4712 6.25962ZM9.72444 4.41083C10.3643 4.48638 11.871 4.7797 12.7953 5.35744L12.5287 5.0908H12.6308L11.5198 4.60192L11.662 4.73081C11.2087 4.60637 10.1866 4.36638 9.72444 4.41083ZM12.3376 6.43293C12.5464 6.28183 13.0175 5.90408 13.2131 5.61965C13.0051 5.96893 12.7011 6.25119 12.3376 6.43293ZM11.5821 6.69958C11.711 6.6107 11.9998 6.39294 12.1198 6.22851C12.0086 6.45071 11.711 6.63737 11.5776 6.69958H11.5821Z" fill="black"/>
<path d="M16.4309 11.113C16.4087 11.0241 16.3331 11.0331 16.2975 11.0419V10.8508C16.2975 10.8153 16.2175 10.7486 16.1376 10.7531C16.0754 10.7531 16.062 10.8686 16.062 10.9263L16.1376 11.2819C16.1464 11.2908 16.2798 11.5308 16.2931 11.5397C16.3109 11.5485 16.4219 11.6286 16.4309 11.6241C16.4443 11.6152 16.3731 11.3441 16.3865 11.3263C16.409 11.2962 16.4247 11.2615 16.4323 11.2246C16.44 11.1878 16.4395 11.1497 16.4309 11.113Z" fill="#FFFF00"/>
<path fill-rule="evenodd" clip-rule="evenodd" d="M16.1376 10.9397V10.8242C16.1465 10.8151 16.1572 10.8076 16.1686 10.8018C16.1864 10.793 16.2041 10.793 16.2175 10.8018C16.2308 10.8108 16.2352 10.8197 16.2352 10.8686V10.8819L16.2396 10.9442V10.9663C16.205 10.9597 16.1709 10.9508 16.1376 10.9397ZM16.2663 11.4152C16.2312 11.344 16.2029 11.2695 16.1819 11.193V11.1886H16.1908L16.2352 11.193C16.2663 11.193 16.2974 11.1174 16.3064 11.0597L16.3285 11.0774H16.333C16.3492 11.0906 16.3642 11.1056 16.3775 11.1219C16.3908 11.1308 16.3952 11.1396 16.3996 11.153C16.3996 11.1664 16.3996 11.1841 16.3908 11.2107L16.3775 11.273C16.3685 11.2641 16.3553 11.2597 16.3464 11.2641C16.3242 11.273 16.3197 11.2951 16.3108 11.3219C16.3032 11.3546 16.288 11.385 16.2663 11.4108V11.4152ZM16.2974 11.4641C16.3252 11.5118 16.3632 11.5527 16.4086 11.5841V11.5796C16.39 11.5295 16.378 11.4773 16.373 11.4241L16.2974 11.4686V11.4641ZM16.2708 10.6998C16.2489 10.6862 16.2238 10.6786 16.1981 10.6778C16.1724 10.677 16.1468 10.683 16.1241 10.6953C16.0908 10.712 16.0618 10.7363 16.0397 10.7663L16.0308 10.7797V10.9574C16.0536 11.154 16.1108 11.345 16.1997 11.5218C16.2441 11.5975 16.2886 11.6463 16.3375 11.6774C16.3864 11.7085 16.4352 11.7219 16.4841 11.7219L16.5286 11.7175C16.5381 11.7134 16.5465 11.7073 16.5535 11.6996C16.5604 11.6919 16.5655 11.6828 16.5686 11.673C16.5774 11.6463 16.5686 11.6286 16.5686 11.6152C16.5637 11.6056 16.5577 11.5967 16.5508 11.5885C16.5423 11.5778 16.5334 11.5674 16.5241 11.5574L16.5152 11.5485L16.5064 11.5352C16.493 11.5041 16.4574 11.3707 16.493 11.2463C16.5081 11.2107 16.5125 11.1715 16.5053 11.1336C16.4982 11.0957 16.48 11.0606 16.453 11.033C16.4353 11.015 16.416 10.9986 16.3952 10.9841L16.3508 10.9486V10.9263L16.3464 10.8819V10.8686C16.3464 10.8242 16.3464 10.7441 16.2708 10.6998Z" fill="#FF9417"/>
</g>
<defs>
<linearGradient id="paint0_linear_328_55498" x1="10.5234" y1="7.14434" x2="16.6134" y2="16.1243" gradientUnits="userSpaceOnUse">
<stop offset="0.1" stop-color="#6F4214"/>
<stop offset="0.19" stop-color="#985C1B"/>
<stop offset="0.25" stop-color="#7B4915"/>
<stop offset="0.55" stop-color="#7B4915"/>
<stop offset="0.71" stop-color="#683F13"/>
</linearGradient>
<linearGradient id="paint1_linear_328_55498" x1="9.79925" y1="5.20957" x2="11.7358" y2="20.0269" gradientUnits="userSpaceOnUse">
<stop stop-color="#D98C47"/>
<stop offset="0.13" stop-color="#FFC365"/>
<stop offset="0.27" stop-color="#FCA351"/>
<stop offset="0.58" stop-color="#FCA351"/>
<stop offset="0.74" stop-color="#D68B46"/>
</linearGradient>
<linearGradient id="paint2_linear_328_55498" x1="6.64151" y1="9.15893" x2="17.6986" y2="9.15893" gradientUnits="userSpaceOnUse">
<stop offset="0.53" stop-color="#B1BFD5"/>
<stop offset="0.98" stop-color="#6B7686"/>
</linearGradient>
<linearGradient id="paint3_linear_328_55498" x1="12.0356" y1="3.99988" x2="12.0356" y2="19.8779" gradientUnits="userSpaceOnUse">
<stop offset="0.36" stop-color="#F8DEAB"/>
<stop offset="1" stop-color="#F7B647"/>
</linearGradient>
<linearGradient id="paint4_linear_328_55498" x1="11.9632" y1="4.00038" x2="11.9632" y2="20.0006" gradientUnits="userSpaceOnUse">
<stop offset="0.12" stop-color="#FFDC3D"/>
<stop offset="0.39" stop-color="#FFFFC0"/>
<stop offset="1" stop-color="#CF992C"/>
</linearGradient>
<linearGradient id="paint5_linear_328_55498" x1="10.3382" y1="5.27701" x2="12.3658" y2="19.9427" gradientUnits="userSpaceOnUse">
<stop stop-color="#FFC340"/>
<stop offset="0.24" stop-color="#FFE8BC"/>
<stop offset="0.57" stop-color="#F7B23D"/>
<stop offset="0.76" stop-color="#F9DFAD"/>
</linearGradient>
<linearGradient id="paint6_linear_328_55498" x1="7.92533" y1="19.2758" x2="21.5081" y2="12.7964" gradientUnits="userSpaceOnUse">
<stop stop-color="#FFC340"/>
<stop offset="0.24" stop-color="#FFE8BC"/>
<stop offset="0.57" stop-color="#F7B23D"/>
<stop offset="0.76" stop-color="#F9DFAD"/>
<stop offset="1" stop-color="#FDC33A"/>
</linearGradient>
<linearGradient id="paint7_linear_328_55498" x1="5.80069" y1="5.11755" x2="8.14025" y2="20.5669" gradientUnits="userSpaceOnUse">
<stop stop-color="#DA8E48"/>
<stop offset="0.18" stop-color="#F9BB60"/>
<stop offset="1" stop-color="#D68B46"/>
</linearGradient>
<linearGradient id="paint8_linear_328_55498" x1="5.11159" y1="6.10045" x2="7.67825" y2="20.8001" gradientUnits="userSpaceOnUse">
<stop stop-color="#ADA3A0"/>
<stop offset="1" stop-color="#706F6E"/>
</linearGradient>
<linearGradient id="paint9_linear_328_55498" x1="12" y1="4.013" x2="12" y2="20.0003" gradientUnits="userSpaceOnUse">
<stop offset="0.22" stop-color="#4A576D"/>
<stop offset="0.29" stop-color="#606D84"/>
<stop offset="0.44" stop-color="#606D84"/>
<stop offset="0.5" stop-color="#48566B"/>
</linearGradient>
<linearGradient id="paint10_linear_328_55498" x1="12.0003" y1="4.0004" x2="7.43589" y2="18.644" gradientUnits="userSpaceOnUse">
<stop offset="0.36" stop-color="#617381"/>
<stop offset="0.4" stop-color="#86999F"/>
<stop offset="0.57" stop-color="#889C9A"/>
<stop offset="0.62" stop-color="#667A7B"/>
</linearGradient>
<clipPath id="clip0_328_55498">
<rect width="24" height="24" fill="white"/>
</clipPath>
</defs>
</svg>
