<svg width="24" height="24" viewBox="0 0 24 24" fill="none" xmlns="http://www.w3.org/2000/svg">
<g clip-path="url(#clip0_328_55498)">
<path d="M24 0H0V24H24V0Z" fill="white"/>
<path d="M12.729 11.5176C12.2491 11.7265 11.9291 12.1397 11.9113 12.1575V12.2419C11.9779 12.2775 12.1646 12.353 12.3913 12.3885C12.6712 12.433 13.1467 12.4597 13.5333 12.4419C13.92 12.4196 14.4844 12.2997 15.0043 12.1575C15.4222 12.0419 15.9777 11.8242 16.2043 11.7309C16.2132 11.722 16.2221 11.691 16.1554 11.6288C16.0396 11.4927 15.9615 11.3288 15.9288 11.1532C15.9155 11.0332 15.9466 10.9088 15.9643 10.8643H15.7199C15.4088 10.9088 14.6622 11.0154 14.1734 11.0732C13.5644 11.1443 13.2134 11.3088 12.729 11.5176Z" fill="url(#paint0_linear_328_55498)"/>
<path d="M14.3917 11.0459L14.0894 11.0815L14.0184 11.3838L13.845 11.4726L13.7472 11.6192L13.7028 11.7837L13.7739 11.9615L13.9694 12.0192L14.1294 12.0414L14.1917 12.1436L14.325 12.3392L14.7383 12.2504L14.5783 12.0592L14.525 11.9126C14.605 11.8236 14.7694 11.6148 14.7606 11.4993C14.7561 11.3838 14.6227 11.3393 14.5561 11.3303H14.3517L14.3917 11.0459Z" fill="url(#paint1_linear_328_55498)"/>
<path d="M12.8046 19.6587L11.8136 19.8542L10.6892 18.8054L9.19148 17.4321L8.16042 16.5433V16.4811L8.11598 14.7747C7.46268 14.2146 7.13827 12.5436 7.05382 11.7748L7.00938 10.8281C6.68051 10.7392 6.58274 10.4415 6.57385 10.3082C6.57385 9.93036 6.83161 9.7704 6.95605 9.73041V8.90823L7.00049 7.99274C7.60935 8.08162 9.21814 8.18828 10.7869 7.91719C12.3602 7.65053 13.2757 7.15278 13.5334 6.93945L13.8357 7.68165L14.0267 8.45937L13.7379 8.31271L13.4623 8.2816C13.3299 8.27429 13.1974 8.29424 13.0731 8.34021C12.9487 8.38618 12.8351 8.45719 12.7393 8.54884C12.6435 8.6405 12.5675 8.75084 12.516 8.87305C12.4646 8.99526 12.4387 9.12673 12.4401 9.25933C12.4401 9.84595 12.8713 10.1349 12.9647 10.2015C13.0535 10.2638 13.0934 10.2638 13.5334 10.2638C13.889 10.2638 14.0667 10.117 14.12 10.0415V11.0637C13.4927 11.1454 12.8954 11.3821 12.3823 11.7525H11.2091C10.4802 11.7392 9.56479 11.9081 9.20481 11.9969C9.29374 12.1081 9.47146 12.3392 9.47146 12.3525C10.347 12.7658 12.058 12.5881 12.8046 12.4502C13.3512 12.4903 14.1645 12.3748 14.4978 12.317C14.489 12.5213 14.3823 13.0902 14.329 13.3479C14.1804 13.9702 13.8399 14.5299 13.3557 14.9479L13.0667 15.1434L13.1068 17.3522L12.9647 18.8054L12.8046 19.6587Z" fill="url(#paint2_linear_328_55498)"/>
<path d="M5.15588 17.8142C6.2225 18.7651 9.04898 20.5073 11.8221 19.8584L9.48012 17.6719L8.81344 17.1076L8.15569 16.5298L8.12459 15.3477L7.54685 15.761L7.11132 16.0988C7.08674 16.1413 7.07382 16.1895 7.07382 16.2387C7.07382 16.2878 7.08674 16.3363 7.11132 16.3787L6.50248 16.8364L5.16032 17.8142H5.15588ZM13.0798 15.6232V16.6853L13.1109 17.3964L12.9554 18.9519L12.8088 19.6629C13.6531 19.4407 15.5997 18.7252 16.6085 17.6586L14.213 16.5787L14.1598 16.4542L13.0798 15.6232Z" fill="#4B594B"/>
<path d="M5.60927 18.1791L7.06695 16.8236L7.52471 18.8191C7.45805 18.8502 7.32472 18.9256 7.32472 18.9657C7.32472 19.01 7.45805 19.0635 7.52471 19.0901L9.15126 19.8145H9.55567L7.48915 18.9035L7.79579 18.7612L9.05793 18.3168V17.5302L11.5822 19.9122L11.8221 19.8589L9.97347 18.1347L9.29352 17.5125L8.81797 17.1124L8.15577 16.5258L8.12911 15.4636L8.12466 15.3525L7.54692 15.7614L7.1825 16.0414L7.83135 16.348H7.47582L8.07133 16.6014L8.77352 17.3124L8.36465 17.5346C8.21355 17.6546 7.90689 17.9212 7.89357 17.9923C7.87579 18.0812 7.90689 18.2146 8.04467 18.2146L8.65352 18.2368C8.7113 18.2191 8.83129 18.1347 8.8224 17.9568L8.92018 18.2368L8.56464 18.3657C8.35132 18.3524 7.88468 18.2946 7.73357 18.1613C7.73802 18.0546 7.73357 17.8102 7.6758 17.6768C7.61803 17.5435 7.28917 16.5658 7.13361 16.0992C7.10278 16.1376 7.08283 16.1837 7.07584 16.2325C7.07584 16.2769 7.08028 16.3258 7.1114 16.3791L7.04474 16.428C7.02252 16.4503 6.99584 16.4725 6.96473 16.4902L6.50254 16.8369L5.1604 17.8147C5.28483 17.9257 5.43595 18.0501 5.60482 18.1791H5.60927ZM12.9865 18.6367L13.0043 18.5123L13.1065 17.468V17.4234L13.111 17.3968V16.3258L13.0799 15.9792V15.6236L13.1021 15.6414L13.5021 15.9837L13.2221 16.3747L13.4488 16.2725L13.271 16.4725L13.2932 16.9879L13.4976 16.7702L13.2755 17.2413C13.3109 17.228 13.431 17.1969 13.6221 17.1969C13.8087 17.1969 14.0754 17.2368 14.182 17.2591L13.711 17.8813C13.7065 17.9169 13.7198 17.9923 13.8043 17.9879C13.8932 17.9835 14.222 17.7346 14.3731 17.6102L14.0443 16.3658L14.1598 16.4547L14.2131 16.5792L14.2265 16.588L14.551 17.6991L14.4442 17.8057L14.6354 17.9879L13.9642 18.0546H13.6754L13.2444 17.5479L13.2221 18.0369C13.1957 18.1327 13.1793 18.231 13.1733 18.3301C13.1733 18.4279 13.0577 19.3168 12.9955 19.6145L12.8355 19.659L12.8977 19.2367L12.9555 18.9523L12.9865 18.6367ZM15.2798 18.6501C14.8353 18.9035 14.3686 19.1123 13.9465 19.2812L15.0354 17.9568L15.1954 17.9747L15.0354 18.1658L15.6709 18.4147C15.6042 18.459 15.5375 18.5035 15.4619 18.5434L14.9731 18.2946L14.7954 18.4946L15.2798 18.6501Z" fill="#2D352D"/>
<path d="M8.41369 8.09004C7.56041 8.11227 7.08043 8.01894 6.95156 7.96561L6.88933 7.74342L6.85823 7.61898L6.4316 7.66341L6.13382 7.58787L5.7783 7.45454L5.40942 7.11234V6.87235L5.59608 6.62792L5.9605 6.34349L6.45825 6.01907L7.09821 5.65464L7.58707 5.48133L7.77818 5.24578L8.15149 4.91246L8.50257 4.61027L8.96921 4.34362L9.5381 4.13918L9.93805 4.06364L10.4269 4.03253H11.4625L12.4268 4.00586C12.6044 4.00586 13.0045 4.03253 13.2356 4.12141C13.4666 4.21029 13.6356 4.33028 13.6889 4.38362L13.8845 4.67249L13.9601 4.98358L13.8845 5.20578L13.5156 5.74797V6.37904L13.5955 6.50347L13.6489 6.73903L13.5644 6.92123C13.3867 7.03679 12.9645 7.2901 12.6978 7.37899C12.36 7.48565 11.8002 7.65453 11.2935 7.79674C10.7825 7.93895 9.48469 8.05894 8.41369 8.08561V8.09004Z" fill="#393F3E"/>
<path d="M13.671 17.7344L13.3688 17.3345V17.2901L13.4177 17.2234L13.4843 17.2012L14.1199 17.2545L14.2088 17.2901L14.2265 17.3567L14.2043 17.4367L13.9821 17.65L13.8399 17.7834H13.751L13.671 17.7301V17.7344Z" fill="url(#paint3_linear_328_55498)"/>
<path d="M8.54679 17.3616L7.9957 17.926L7.9646 18.046L8.02681 18.135L8.609 18.1393L8.73344 18.135L8.80454 18.0149L8.74676 17.415L8.63567 17.335L8.54679 17.3616Z" fill="url(#paint4_linear_328_55498)"/>
<path d="M8.56025 17.5391L8.1736 17.948L8.16028 17.9834L8.20916 17.9924H8.48914L8.60914 17.939L8.62246 17.859L8.60914 17.5612L8.56025 17.5391Z" fill="#9F0111"/>
<path d="M9.58245 18.0455C9.5838 18.0386 9.58359 18.0313 9.58203 18.0243C9.58048 18.0174 9.57758 18.0109 9.57343 18.005C9.56928 17.9993 9.56399 17.9944 9.55787 17.9906C9.55186 17.9869 9.54512 17.9844 9.53807 17.9833C9.53102 17.982 9.52386 17.9822 9.51691 17.9838C9.50997 17.9854 9.50333 17.9882 9.49752 17.9924C9.49171 17.9966 9.48684 18.0018 9.48311 18.0078C9.47938 18.014 9.47689 18.0207 9.47585 18.0278L9.3736 18.7654L8.61809 19.0322C8.58698 19.041 8.57365 19.0721 8.58253 19.0989C8.59587 19.1255 8.62697 19.1432 8.65364 19.1299L9.35587 18.8854L9.27136 19.4899C9.27136 19.521 9.28919 19.5477 9.31584 19.5521C9.34695 19.5521 9.3736 19.5344 9.37806 19.5076L9.46693 18.841L10.0624 18.6366C10.0891 18.6278 10.1068 18.5966 10.0935 18.57C10.091 18.5631 10.0872 18.5568 10.0823 18.5515C10.0774 18.5462 10.0713 18.542 10.0647 18.5391C10.0581 18.5361 10.0508 18.5346 10.0435 18.5346C10.0363 18.5346 10.0291 18.536 10.0224 18.5389L9.48912 18.7255L9.57799 18.0411L9.58245 18.0455Z" fill="url(#paint5_linear_328_55498)"/>
<path d="M9.54284 17.9297C9.60061 17.9386 9.64498 17.992 9.63171 18.0496L9.55612 18.6452L10.0095 18.4852C10.0672 18.4674 10.1294 18.494 10.1472 18.5518C10.1559 18.5778 10.1543 18.6061 10.1427 18.6309C10.1312 18.6557 10.1105 18.6753 10.085 18.6852L9.525 18.8851L9.43614 19.5117C9.43178 19.5393 9.41675 19.5641 9.39424 19.5807C9.37184 19.5973 9.34385 19.6045 9.31616 19.6006C9.28941 19.5962 9.26535 19.5818 9.24888 19.5605C9.23237 19.539 9.22465 19.5121 9.22726 19.4851L9.29397 18.9652L8.67174 19.1829C8.64521 19.1914 8.61641 19.1892 8.5915 19.1767C8.56658 19.1642 8.54753 19.1426 8.5384 19.1162C8.52991 19.0897 8.53213 19.0609 8.54458 19.036C8.55704 19.0111 8.57875 18.992 8.60507 18.9829L9.32943 18.7252L9.42722 18.023C9.42888 18.009 9.43334 17.9955 9.44028 17.9831C9.44724 17.9708 9.45656 17.96 9.46766 17.9513C9.47886 17.9426 9.49162 17.9362 9.50531 17.9325C9.519 17.9288 9.5332 17.9278 9.5472 17.9297H9.54284ZM9.37392 18.7651L8.61841 19.0318C8.5873 19.0406 8.57396 19.0717 8.58285 19.0985C8.59618 19.1252 8.6273 19.1429 8.65395 19.1297L9.35619 18.8851L9.27167 19.4896C9.27167 19.5207 9.28951 19.5473 9.31616 19.5517C9.34727 19.5517 9.37392 19.5341 9.37838 19.5073L9.46724 18.8407L10.0628 18.6362C10.0894 18.6274 10.1072 18.5963 10.0939 18.5696C10.0914 18.5628 10.0876 18.5564 10.0827 18.5512C10.0777 18.5459 10.0717 18.5416 10.065 18.5388C10.0584 18.5357 10.0512 18.5343 10.0439 18.5342C10.0366 18.5342 10.0295 18.5356 10.0227 18.5385L9.48944 18.7252L9.57831 18.0409C9.57965 18.0274 9.57582 18.0139 9.56753 18.0031C9.55933 17.9925 9.5473 17.9853 9.53392 17.983C9.52044 17.9817 9.50696 17.9856 9.49628 17.9939C9.4855 18.0021 9.47834 18.0141 9.47616 18.0275L9.37392 18.7651Z" fill="black"/>
<path d="M13.1556 18.6941C13.1501 18.696 13.1449 18.6991 13.1405 18.7031C13.1361 18.7071 13.1325 18.7119 13.1301 18.7173C13.1276 18.7227 13.1262 18.7285 13.1261 18.7344C13.1258 18.7404 13.1269 18.7462 13.1289 18.7518C13.1309 18.758 13.1341 18.7636 13.1384 18.7684C13.1427 18.7732 13.148 18.7769 13.1539 18.7796C13.1598 18.782 13.1663 18.7832 13.1727 18.7831C13.1791 18.7829 13.1854 18.7813 13.1912 18.7785L13.7734 18.5563L14.2889 19.014C14.3111 19.0318 14.3378 19.0274 14.3556 19.014C14.36 19.0096 14.3634 19.0041 14.3658 18.9982C14.3679 18.9923 14.3689 18.986 14.3684 18.9796C14.368 18.9733 14.3662 18.9672 14.3633 18.9616C14.3602 18.956 14.3561 18.9512 14.3511 18.9473L13.8711 18.5207L14.3511 18.334C14.3567 18.332 14.3618 18.329 14.3662 18.325C14.3706 18.321 14.3742 18.3162 14.3766 18.3108C14.3791 18.3054 14.3805 18.2996 14.3806 18.2937C14.3809 18.2877 14.3799 18.2818 14.3778 18.2763C14.3759 18.2702 14.3727 18.2644 14.3683 18.2597C14.3641 18.2549 14.3588 18.2511 14.3529 18.2486C14.3469 18.246 14.3406 18.2448 14.3341 18.245C14.3277 18.2452 14.3214 18.2468 14.3155 18.2496L13.7911 18.4496L13.3912 18.0941C13.387 18.0893 13.3818 18.0855 13.3761 18.083C13.3703 18.0804 13.3641 18.0791 13.3578 18.0791C13.3516 18.0791 13.3453 18.0804 13.3395 18.083C13.3338 18.0855 13.3286 18.0893 13.3245 18.0941C13.3201 18.0985 13.3166 18.1039 13.3144 18.1099C13.3121 18.1158 13.3113 18.1221 13.3117 18.1284C13.3121 18.1347 13.3138 18.1408 13.3169 18.1464C13.3197 18.152 13.3239 18.1569 13.3289 18.1607L13.6978 18.4852L13.1556 18.6941Z" fill="url(#paint6_linear_328_55498)"/>
<path d="M13.0888 18.7702C13.0837 18.7593 13.0809 18.7472 13.0807 18.7351C13.0804 18.7229 13.0827 18.7109 13.0872 18.6997C13.0918 18.6884 13.0987 18.6782 13.1074 18.6697C13.1159 18.6613 13.1263 18.6546 13.1376 18.6502L13.6088 18.4725L13.2976 18.1925C13.2798 18.1764 13.2689 18.1538 13.2673 18.1299C13.2656 18.1058 13.2733 18.082 13.2888 18.0636C13.2968 18.0539 13.3068 18.046 13.3181 18.0404C13.3294 18.0348 13.3419 18.0317 13.3544 18.0313C13.367 18.0309 13.3796 18.0332 13.3913 18.0379C13.4029 18.0428 13.4134 18.05 13.4221 18.0592L13.7999 18.3969L14.2976 18.2058C14.342 18.1881 14.3997 18.2147 14.4176 18.2592C14.4227 18.2702 14.4254 18.2821 14.4256 18.2942C14.4259 18.3064 14.4237 18.3185 14.4191 18.3297C14.4145 18.341 14.4076 18.3512 14.399 18.3597C14.3903 18.3682 14.38 18.3749 14.3687 18.3792L13.9554 18.5347L14.3776 18.9125C14.4176 18.948 14.422 19.0013 14.3909 19.0457C14.3825 19.0552 14.3723 19.0629 14.3608 19.0681C14.3493 19.0733 14.3368 19.0758 14.3243 19.0758C14.3116 19.0758 14.2992 19.0733 14.2876 19.0681C14.2761 19.0629 14.2659 19.0552 14.2576 19.0457L13.7688 18.6102L13.2088 18.8235C13.1858 18.8322 13.1603 18.8316 13.1378 18.8216C13.1154 18.8116 13.0977 18.7932 13.0888 18.7702ZM13.7732 18.5569L14.2887 19.0146C14.3109 19.0325 14.3376 19.028 14.3554 19.0146C14.3598 19.0101 14.3632 19.0048 14.3656 18.9989C14.3677 18.9929 14.3687 18.9866 14.3682 18.9803C14.3678 18.974 14.366 18.9679 14.3631 18.9623C14.36 18.9567 14.3559 18.9519 14.3509 18.948L13.8709 18.5213L14.3509 18.3347C14.3565 18.3327 14.3616 18.3296 14.366 18.3257C14.3704 18.3217 14.374 18.3169 14.3764 18.3115C14.3789 18.3061 14.3803 18.3003 14.3804 18.2944C14.3807 18.2884 14.3797 18.2825 14.3776 18.2769C14.3757 18.2709 14.3725 18.2651 14.3681 18.2604C14.3639 18.2556 14.3586 18.2517 14.3527 18.2493C14.3467 18.2466 14.3404 18.2455 14.3339 18.2457C14.3275 18.2458 14.3212 18.2474 14.3153 18.2503L13.7909 18.4502L13.391 18.0948C13.3868 18.09 13.3816 18.0862 13.376 18.0836C13.3701 18.081 13.364 18.0797 13.3576 18.0797C13.3514 18.0797 13.3452 18.081 13.3393 18.0836C13.3336 18.0862 13.3284 18.09 13.3243 18.0948C13.3199 18.0992 13.3164 18.1046 13.3141 18.1105C13.312 18.1164 13.3111 18.1228 13.3115 18.1291C13.3119 18.1354 13.3136 18.1415 13.3167 18.1471C13.3196 18.1527 13.3237 18.1576 13.3288 18.1614L13.6976 18.4858L13.1554 18.6947C13.1499 18.6967 13.1447 18.6997 13.1403 18.7037C13.1359 18.7077 13.1324 18.7125 13.1299 18.718C13.1274 18.7233 13.126 18.7292 13.1259 18.7351C13.1256 18.741 13.1267 18.7469 13.1287 18.7525C13.1307 18.7586 13.1339 18.7643 13.1382 18.7691C13.1425 18.7738 13.1478 18.7776 13.1537 18.7801C13.1596 18.7827 13.166 18.7839 13.1725 18.7837C13.1789 18.7836 13.1852 18.782 13.191 18.7792L13.7732 18.5569Z" fill="black"/>
<path d="M14.0445 17.3477L13.5289 17.3076L13.7289 17.6142L14.0445 17.3477Z" fill="#9F0111"/>
<path d="M11.5113 15.0863C8.84491 15.0863 7.54276 12.9399 7.22278 11.8643C7.24945 12.6154 7.55165 14.2641 8.51159 14.8996C9.46708 15.5307 9.67147 15.4863 9.96483 15.5752C9.57378 15.5307 8.70269 15.3396 8.33382 14.9619C8.3116 15.1929 8.27605 15.6551 8.33382 15.6551C8.40937 15.6551 10.1114 17.3529 12.5157 17.1395L13.0757 17.0194V16.655C13.018 16.6995 12.898 16.7084 12.898 16.344V15.2285C13.2001 15.0907 13.8401 14.6508 14.0046 13.9975C13.1113 15.104 11.6492 15.0463 11.5158 15.0863H11.5113Z" fill="#7B889A"/>
<path d="M12.3199 19.7564L8.9646 17.1476L9.25791 17.4676L10.8888 19.0009L11.8311 19.8365C12.231 19.8186 12.6489 19.6941 12.8089 19.632C12.9865 19.1209 13.0621 17.7521 13.0754 17.1299L12.4399 19.7297L12.3199 19.7564Z" fill="#7B889A"/>
<path d="M11.0665 18.8057C11.5287 18.7479 12.5241 18.5923 12.8441 18.4189C12.4575 18.7389 11.4976 18.8101 11.0665 18.8057Z" fill="#EAF9FF"/>
<path d="M12.4003 17.2726C11.3514 17.837 9.70713 17.4682 9.01831 17.2148L10.1604 18.1615L10.2804 17.6725C10.7692 17.7526 11.8848 17.7792 12.4003 17.2726Z" fill="#EAF8FF"/>
<path d="M7.39141 11.3969C7.15587 11.4591 7.0492 11.388 7.02255 11.348L6.98254 10.8148L7.31141 10.8591C7.65362 10.8414 7.78249 10.4858 7.80916 10.3125C7.87138 10.7836 7.67584 11.3214 7.39141 11.3969Z" fill="#7B899B"/>
<path d="M6.81799 9.90871C6.82381 9.90411 6.82974 9.89967 6.83578 9.89537C6.99132 9.79315 7.30685 9.67317 7.47129 9.9309C7.64017 10.1976 7.47129 10.5399 7.36019 10.6731C7.44908 10.5399 7.5824 10.1442 7.36019 9.90871C7.19576 9.73094 6.95133 9.81983 6.83578 9.89537L6.81799 9.90871ZM7.64462 10.1887L7.56018 9.96647L7.67128 9.94428C7.69351 9.97539 7.72906 10.0954 7.74239 10.1487L7.64462 10.1887Z" fill="#AFC0DA"/>
<path d="M7.77796 10.3131L7.61796 10.3531C7.59574 10.6331 7.33799 10.7975 7.20911 10.842C7.72018 10.8686 7.80018 10.4997 7.77796 10.3086V10.3131Z" fill="#445369"/>
<path d="M8.18717 9.90345C8.14107 9.75554 8.06304 9.61957 7.9586 9.50516C7.85415 9.39073 7.72586 9.30065 7.58276 9.24127C8.2405 9.09018 8.40938 10.2235 8.40938 10.81H8.36494C8.36494 10.6856 8.33383 10.33 8.18717 9.90345Z" fill="#EBFAFF"/>
<path d="M8.46713 11.1309L7.31165 11.7975L8.46713 11.3087V11.1309Z" fill="#919CAF"/>
<path d="M8.80963 11.2191L8.78296 10.9436C9.0185 10.828 9.43625 10.4991 9.61399 10.3525L9.70732 10.4991L8.80963 11.2191Z" fill="#9AA6B7"/>
<path d="M9.47996 11.9217L9.30657 10.7885L9.69326 10.4508L9.83097 10.6462L9.91984 11.8417L9.47549 11.9217H9.47996ZM9.46658 10.1796L9.26655 10.3129L9.23547 9.8418L9.46212 10.1796H9.46658Z" fill="#EEFAFF"/>
<path d="M8.56941 9.80597L8.31165 9.7793L8.3872 10.0593L8.43608 10.8059L8.74273 10.6459L8.56941 9.80152V9.80597Z" fill="#8593A8"/>
<path d="M8.47156 11.3302L8.44934 11.1348L8.76044 10.957L8.81822 11.2237L8.47156 11.3302Z" fill="#6B7686"/>
<path d="M8.95171 8.66895H8.66284V8.74449L8.93392 8.78893C8.94726 8.78893 8.95171 8.70895 8.95171 8.66895Z" fill="#566370"/>
<path d="M8.62285 8.9707C8.52064 9.17069 8.30732 9.26402 8.21399 9.27736C8.23622 9.27736 8.4362 9.47735 8.50287 9.664C8.62416 9.59992 8.73146 9.51227 8.81845 9.40619C8.90544 9.30012 8.97039 9.17776 9.00949 9.04626L8.87618 9.02403L8.62285 8.9707Z" fill="#4D5868"/>
<path d="M8.66678 8.35748C8.65803 8.26084 8.62265 8.16854 8.56458 8.09082H9.05343C9.12009 8.19748 9.12009 8.54414 9.11565 8.70412L9.06232 8.79301H8.92899L8.9601 8.35748H8.66678Z" fill="#515D6D"/>
<path d="M7.7113 9.13466C7.57798 9.04577 7.49354 8.81466 7.47131 8.70801L7.7113 8.77023C7.75575 8.868 7.88907 9.0591 8.0224 9.06799C8.15572 9.07687 8.28015 8.97466 8.32016 8.92133L8.62236 8.97911C8.51571 9.19242 8.28016 9.26797 8.17795 9.2813L7.96018 9.19242H7.79574L7.70687 9.13466H7.7113Z" fill="#CDDAEF"/>
<path d="M9.5913 8.06836L9.04468 8.1128L9.11133 8.41946V8.72165L9.37354 8.63276L9.64014 8.58833L9.59576 8.06836H9.5913Z" fill="#EBF8FF"/>
<path d="M10.5025 6.89493C10.1469 6.97492 9.39142 7.22379 9.15147 7.5971C9.37368 7.5971 10.347 7.47711 10.8047 7.41934C10.5292 7.61044 9.68032 7.80153 9.28927 7.87263C11.1424 7.98819 12.9557 7.16158 13.6312 6.73493C13.6401 6.66383 13.6312 6.50383 13.5645 6.43718C13.4935 6.37496 13.1556 6.6105 12.9913 6.73493C13.1956 6.56605 13.1157 6.20162 13.0491 6.04608C12.8268 6.17941 12.3646 6.4505 12.3202 6.43718C12.2758 6.42384 12.2846 6.34829 12.2934 6.31718L11.6269 6.71716C11.8501 6.3483 12.1738 6.05076 12.5602 5.85943L12.4179 6.1172C12.6668 5.91721 13.1824 5.5039 13.249 5.43724L13.2845 5.40169C13.3957 5.29946 13.6401 5.07281 13.6045 4.90394C13.5779 4.75283 13.1157 4.53506 12.8935 4.4462C12.5379 4.28176 11.5558 3.97066 10.4225 4.06843C10.0195 4.10091 9.63718 4.26039 9.33044 4.52391C9.02383 4.78745 8.80867 5.14145 8.71594 5.53502C8.8226 6.23718 10.1158 6.67272 10.7469 6.8016L11.1469 6.66827C10.8047 6.93689 10.4161 7.14026 10.0003 7.26824L10.4981 6.89048L10.5025 6.89493ZM9.98694 4.38841C10.5513 4.32175 11.778 4.25509 12.129 4.52172C12.4131 4.74758 12.6502 5.02691 12.8268 5.34391C12.2135 5.06392 10.7825 4.48618 9.98249 4.38841H9.98694Z" fill="#50584C"/>
<path d="M11.2578 5.3796C11.3334 5.49959 11.369 5.63292 11.3556 5.77069L10.8491 5.0374C11.0134 5.13516 11.169 5.25516 11.2578 5.38404V5.3796ZM10.4136 4.82407C10.5112 4.86407 10.6356 4.9174 10.7601 4.98406L11.3379 5.85957C11.3157 5.96179 11.2578 6.06401 11.1734 6.14845L10.4179 4.82407H10.4136ZM10.3557 4.80184L11.1246 6.19733C11.0624 6.25065 10.9912 6.29509 10.9024 6.33064L10.2491 4.77519L10.3424 4.79741L10.3557 4.80184ZM10.7112 6.40175L10.8534 6.35731C10.6401 5.81514 10.2979 4.97072 10.2001 4.7663C9.84911 4.71297 9.33798 4.75741 9.30688 5.27294C9.25801 6.01067 10.0846 6.56175 10.7112 6.39732V6.40175ZM11.5067 4.91296H11.5689L12.0356 5.66847L11.9778 5.67736C11.6224 5.71736 11.3912 5.41515 11.3245 5.2596C11.2889 5.14849 11.2756 4.92184 11.5067 4.91296ZM12.1868 5.58403C12.1689 5.61069 12.1423 5.62848 12.0978 5.64624L11.7912 5.16627L12.1911 5.58403H12.1868ZM11.7289 4.94851L12.2089 5.44626C12.1752 5.34027 12.1139 5.24515 12.0312 5.17072C12.0161 5.15623 12.0013 5.14141 11.9867 5.12628C11.9141 5.04968 11.8263 4.98912 11.7289 4.94851ZM11.3556 7.29059L12.0001 7.13061L11.7468 7.51725C11.5468 7.57057 11.2801 7.64169 11.0579 7.68612L11.3556 7.29059ZM12.1423 7.09949L11.9422 7.46392L12.0756 7.42836C12.0978 7.42836 12.2667 7.17505 12.3511 7.04616L12.1423 7.09949ZM11.2535 7.31726L10.9156 7.7128L10.769 7.73057L11.0535 7.36614L11.249 7.31726H11.2535Z" fill="#626D53"/>
<path d="M11.5911 5.75293L11.3333 5.96182L11.049 5.94403L11.1689 6.17958L11.1378 6.45956L11.3422 6.41512L11.5377 6.57954L11.5556 6.54399C11.5733 6.49066 11.6133 6.38401 11.6222 6.37957C11.631 6.37957 11.7377 6.25957 11.791 6.2018L11.6489 6.0818L11.5911 5.75293Z" fill="#A30000"/>
<path d="M11.0709 5.94434L11.3421 5.95323L11.471 6.19321L11.0709 5.94434ZM11.8088 6.19766L11.6576 6.04656L11.471 6.16654L11.8088 6.19766ZM11.1288 6.45542C11.1244 6.44653 11.1643 6.27765 11.1866 6.2021H11.4532L11.1288 6.45542ZM11.471 6.20655L11.5599 6.59319L11.3688 6.41542L11.471 6.20655Z" fill="#FF7878"/>
<path fill-rule="evenodd" clip-rule="evenodd" d="M11.6178 5.72632C11.6171 5.72132 11.6152 5.71657 11.6121 5.71264C11.609 5.70872 11.6047 5.70575 11.5999 5.7041C11.5867 5.7041 11.5778 5.7041 11.5688 5.713L11.3467 5.9352L11.0444 5.91743C11.0397 5.91628 11.0346 5.9165 11.0299 5.91807C11.0251 5.91965 11.021 5.9225 11.0178 5.92632C11.0146 5.93085 11.0128 5.93629 11.0128 5.94187C11.0128 5.94745 11.0146 5.95289 11.0178 5.95742L11.0267 5.9752L11.1467 6.19741L11.0711 6.48184C11.0711 6.49073 11.0711 6.50406 11.08 6.50851C11.0845 6.5174 11.0979 6.5174 11.1067 6.5174L11.1156 6.51294H11.12L11.3423 6.44184L11.5378 6.63294C11.5467 6.63738 11.5556 6.64183 11.5645 6.63738C11.5733 6.63738 11.5823 6.62849 11.5867 6.61961L11.6355 6.38407L11.84 6.22852C11.8436 6.22608 11.8467 6.22279 11.8487 6.21891C11.8508 6.21503 11.8519 6.2107 11.8519 6.2063C11.8519 6.20191 11.8508 6.19757 11.8487 6.19369C11.8467 6.18981 11.8436 6.18651 11.84 6.18407L11.6667 6.03298L11.6178 5.72632ZM11.3467 6.38407L11.2311 6.41962L11.4533 6.23741L11.5245 6.53961L11.3734 6.39296C11.3702 6.38914 11.366 6.38629 11.3612 6.38472C11.3566 6.38315 11.3515 6.38292 11.3467 6.38407ZM11.5867 6.36629L11.5645 6.46851L11.5067 6.21075L11.7511 6.22852L11.5956 6.34851C11.5904 6.35308 11.5872 6.35944 11.5867 6.36629ZM11.7467 6.17519L11.6223 6.06853C11.6171 6.06398 11.6139 6.05761 11.6133 6.05075L11.5867 5.88187L11.5155 6.15742L11.7467 6.17519ZM11.1423 6.42407L11.4223 6.19296L11.1156 6.0241L11.2045 6.17964V6.19741L11.1423 6.41962V6.42407ZM11.5511 5.80632L11.3734 5.97965C11.3706 5.98276 11.3671 5.98518 11.3633 5.98672C11.3595 5.98826 11.3552 5.98889 11.3511 5.98853L11.1378 5.9752L11.4623 6.15297L11.5511 5.80632Z" fill="black"/>
<path d="M15.6354 17.5343L15.2799 17.4721L15.4799 17.7299L15.351 17.9876L15.6798 17.9432L15.9776 18.1742L15.9954 17.8676L16.2664 17.761L15.9109 17.6142L15.8532 17.3477L15.631 17.5343H15.6354Z" fill="#FFFA44"/>
<path d="M15.6531 17.6195L15.2887 17.4862L15.4664 17.7084L15.7775 17.7484L15.8397 17.3662L15.6531 17.5351V17.6195Z" fill="white"/>
<path d="M15.7201 17.7391L15.3424 17.988L15.4757 17.7525L15.4624 17.7035L15.7201 17.7391ZM15.7913 17.6681L15.849 17.3525L15.9201 17.6146L15.7868 17.6681H15.7913Z" fill="#EC843B"/>
<path d="M15.6798 17.9477L15.7109 17.7432L15.9242 18.1344L15.6798 17.9477ZM16.222 17.7432H15.8843L15.942 18.1387L15.9731 18.1655L15.9998 17.8721L16.2664 17.7611L16.222 17.7432Z" fill="#EC843B"/>
<path d="M5.95119 18.4546L5.4801 18.1079L5.58677 18.0102L5.62232 17.668L5.91119 17.8813L6.36894 17.7124L6.16896 18.0902L6.35561 18.3924H5.95119V18.4546Z" fill="#FFF447"/>
<path d="M5.77396 18.0324L5.61842 17.6768L5.91617 17.8812L5.90285 17.9879L6.38282 17.7079L6.17838 18.0724L5.90285 18.1256L6.30283 18.2857L6.34727 18.3745L5.8584 18.1524L5.83618 18.3612L5.75619 18.3168V18.1389L5.62731 18.219L5.52954 18.1524L5.77396 18.0324Z" fill="white"/>
<path d="M5.78252 18.0363L5.59143 18.014L5.62253 17.6807L5.78252 18.0363ZM6.18251 18.0719L5.88919 18.1163L6.31138 18.3074C6.32027 18.3119 6.22694 18.1695 6.17806 18.0941V18.0719H6.18251ZM5.83142 18.3651L5.86253 18.1384L5.96474 18.3873L5.9514 18.454L5.83142 18.3651Z" fill="#EA8436"/>
<path d="M7.02259 7.98828L7.60922 8.0505C7.56478 8.13051 7.48478 8.32605 7.49812 8.45049L6.98703 8.3216L7.01815 7.98828H7.02259ZM6.97815 8.60158C7.00037 8.69047 7.0537 8.89934 7.11147 9.02377C7.17814 9.15709 7.25813 9.25932 7.28924 9.29486C7.34701 9.23265 7.51146 9.11709 7.73365 9.16599C7.60272 9.04899 7.51243 8.89334 7.4759 8.72158C7.45367 8.72158 7.13814 8.64158 6.98259 8.60158H6.97815Z" fill="#35404E"/>
<path d="M7.29838 9.2908C7.14048 9.10828 7.02916 8.89021 6.97396 8.65527L6.95618 9.27746L6.97396 9.713H7.03617L7.13395 9.48189L7.29838 9.2908Z" fill="#707B88"/>
<path d="M9.03996 8.80183C8.79108 8.77073 7.56448 8.47742 6.9823 8.33965L6.96008 8.57519L7.64448 8.75739L8.52887 8.95294L9.01773 9.04183L9.15105 9.42847L9.51108 10.1484L9.03996 10.4684L8.15112 10.9573L7.04008 11.5794V11.6506L7.07563 11.8906L8.24888 11.2373L8.78664 10.935L9.37773 10.5662L9.55992 10.4151L9.61768 10.3351L10.0265 10.8684L10.1998 10.9751C10.2398 10.9973 10.3154 11.0418 10.3332 11.0418H10.4666L10.7331 10.9084L11.022 10.624L11.2887 10.2818L11.6664 9.74845L11.8797 9.35292L11.9909 9.0196L12.0086 8.76628V8.58852L11.9242 8.42854L12.5553 7.72634L12.8886 7.30859L12.422 7.50414L11.7375 8.29965L11.6931 8.27743H11.4175L11.0487 8.32632L9.50663 8.59741C9.17328 8.65963 9.05772 8.76184 9.03996 8.80627V8.80183Z" fill="#2E2E2E"/>
<path d="M7.80054 8.79291V8.53516L8.04054 8.60626V8.84179L7.80054 8.79291Z" fill="#494949"/>
<path d="M9.76477 9.18447C9.76477 8.78006 9.89812 8.58896 9.96926 8.54896L11.347 8.32675C11.4002 8.30453 11.5691 8.30453 11.8047 8.45563C12.0358 8.60229 11.9381 9.07337 11.858 9.28669C11.698 9.52223 11.267 9.98883 10.8358 9.98883L10.6582 9.97556L10.2893 10.26L10.5603 9.95772H10.5514L10.8358 9.62889L10.4626 9.93999C10.3986 9.92111 10.3361 9.89735 10.2759 9.86888L10.1203 10.1356L10.2314 9.85111H10.2226L10.3603 9.55778L10.1692 9.81555C9.92923 9.68222 9.76477 9.46001 9.76477 9.18447ZM12.4358 7.88232L12.2714 7.67346L12.4358 7.50457L12.8891 7.31348L12.4358 7.88232Z" fill="#484848"/>
<path d="M8.47122 11.1219L8.43567 10.8018L8.73787 10.6553L8.77787 10.953L8.46677 11.1219H8.47122Z" fill="black"/>
<path d="M8.11108 10.9791C8.11108 11.0856 8.12886 11.2945 8.13775 11.3079L8.47106 11.1167L8.42661 10.819L8.11108 10.9791ZM8.79549 10.9479L8.73771 10.6368L9.02658 10.4634L9.05769 10.7879L8.79549 10.9479ZM9.05325 9.02357C9.04653 8.9901 9.04831 8.9555 9.0584 8.9229C9.06849 8.89029 9.08658 8.86073 9.11102 8.83691C9.06659 8.87247 9.10213 8.97469 9.12436 9.02357C9.15992 9.1169 9.29764 9.43244 9.51985 9.92574C9.79984 10.539 10.1954 10.8812 10.3998 10.9123C10.5643 10.939 10.6842 10.9035 10.7243 10.8812C10.582 10.9967 10.4486 11.0145 10.3998 11.0145C9.86652 10.8812 9.58207 10.1702 9.45318 9.95681C9.31994 9.74354 9.07548 9.13468 9.05325 9.02357Z" fill="#484848"/>
<path d="M11.7824 8.57557C11.7735 8.60223 11.7379 8.62001 11.7113 8.60668L11.4801 8.52224C11.4734 8.52021 11.4671 8.51687 11.4618 8.51241C11.4564 8.50796 11.4519 8.50248 11.4485 8.49629C11.4453 8.49009 11.4432 8.48331 11.4425 8.47633C11.4419 8.46933 11.4426 8.46228 11.4446 8.45557C11.4579 8.42891 11.4891 8.41112 11.5157 8.42446L11.7513 8.5089C11.7779 8.51779 11.7957 8.5489 11.7824 8.57557ZM11.2046 8.54001C11.2357 8.54001 11.2579 8.51335 11.2535 8.48225C11.2513 8.46888 11.2441 8.45685 11.2335 8.4486C11.2227 8.44035 11.2091 8.43649 11.1957 8.4378L10.9468 8.45557C10.9335 8.45669 10.9211 8.4628 10.912 8.47268C10.903 8.48257 10.898 8.49549 10.898 8.5089C10.898 8.54001 10.9246 8.56224 10.9558 8.55779L11.2046 8.54001ZM10.6936 8.5489C10.6948 8.55591 10.6946 8.56312 10.693 8.57006C10.6915 8.57702 10.6886 8.5836 10.6845 8.58939C10.6803 8.5952 10.675 8.6001 10.669 8.60384C10.6629 8.60757 10.6562 8.61005 10.6491 8.61112L10.4046 8.65556C10.3976 8.65673 10.3905 8.6565 10.3836 8.6549C10.3767 8.6533 10.3701 8.65036 10.3643 8.64623C10.3585 8.6421 10.3537 8.63688 10.3499 8.63085C10.3462 8.62483 10.3436 8.61813 10.3425 8.61112C10.3413 8.60412 10.3415 8.59695 10.3431 8.59004C10.3447 8.58312 10.3476 8.57659 10.3518 8.57081C10.3559 8.56502 10.3611 8.56012 10.3671 8.55637C10.3732 8.5526 10.3799 8.55007 10.3868 8.5489L10.6314 8.50445C10.6625 8.50445 10.6891 8.52224 10.6936 8.5489ZM10.0802 8.71778C10.0873 8.71632 10.0939 8.7135 10.0998 8.70946C10.1057 8.70544 10.1108 8.70029 10.1147 8.6943C10.1186 8.68832 10.1213 8.68162 10.1226 8.67459C10.124 8.66756 10.1239 8.66034 10.1224 8.65334C10.121 8.64634 10.1182 8.63969 10.1141 8.63378C10.1101 8.62786 10.105 8.62281 10.099 8.61889C10.093 8.61497 10.0863 8.61225 10.0793 8.61093C10.0722 8.60959 10.0651 8.60965 10.058 8.61112L9.81363 8.65556C9.80658 8.65663 9.79984 8.65911 9.79372 8.66284C9.7877 8.66658 9.78242 8.67148 9.77827 8.67729C9.77412 8.68309 9.77122 8.68966 9.76966 8.69662C9.768 8.70357 9.7679 8.71076 9.76914 8.71778C9.7736 8.74444 9.80471 8.76222 9.83136 8.76222L10.0802 8.71778ZM9.56029 8.80667C9.58694 8.79778 9.60033 8.76222 9.58694 8.74001C9.58456 8.73316 9.58073 8.72689 9.57575 8.72158C9.57077 8.71626 9.56476 8.71202 9.55812 8.7091C9.55148 8.70619 9.54433 8.70466 9.53697 8.70463C9.5297 8.70459 9.52255 8.70604 9.51581 8.7089L9.28924 8.80667C9.2581 8.81555 9.24476 8.85111 9.2581 8.87777C9.2714 8.90443 9.3025 8.91776 9.32916 8.90442L9.56029 8.80667ZM11.6802 9.14442C11.6712 9.17108 11.6891 9.20219 11.7157 9.21108C11.7424 9.21996 11.7735 9.20219 11.7824 9.17552L11.8579 8.93998C11.8599 8.93326 11.8607 8.92622 11.8599 8.91923C11.8594 8.91225 11.8573 8.90546 11.8539 8.89926C11.8507 8.89307 11.8462 8.8876 11.8408 8.88314C11.8353 8.87869 11.8291 8.87535 11.8223 8.87332C11.8157 8.87126 11.8087 8.87055 11.8016 8.87122C11.7947 8.8719 11.7878 8.87395 11.7817 8.87725C11.7755 8.88056 11.7699 8.88505 11.7655 8.89047C11.7611 8.8959 11.7577 8.90216 11.7556 8.90886L11.6802 9.14442ZM11.4358 9.7666C11.4289 9.76416 11.4226 9.76033 11.4173 9.75537C11.412 9.75042 11.4078 9.74443 11.4048 9.73776C11.4019 9.7311 11.4004 9.72392 11.4004 9.71665C11.4003 9.70939 11.4018 9.70218 11.4047 9.6955L11.5024 9.46884C11.5112 9.43773 11.5468 9.4244 11.5735 9.43773C11.6001 9.45106 11.6135 9.48217 11.6001 9.50884L11.5068 9.7355C11.504 9.74195 11.4999 9.74776 11.4947 9.7526C11.4895 9.75745 11.4835 9.76121 11.4768 9.7637C11.4703 9.76618 11.4632 9.76732 11.4562 9.76705C11.4491 9.7668 11.4422 9.76512 11.4358 9.76216V9.7666ZM10.6491 10.6333C10.6441 10.6382 10.6402 10.6441 10.6374 10.6506C10.6348 10.657 10.6334 10.664 10.6334 10.671C10.6334 10.6781 10.6348 10.685 10.6374 10.6914C10.6402 10.698 10.6441 10.7039 10.6491 10.7088C10.6758 10.7311 10.7069 10.7266 10.729 10.7088L10.898 10.5221C10.9026 10.5169 10.9062 10.5108 10.9086 10.5041C10.911 10.4976 10.9118 10.4905 10.9114 10.4834C10.911 10.4764 10.9093 10.4696 10.9062 10.4632C10.903 10.4569 10.8988 10.4513 10.8935 10.4466C10.8883 10.4418 10.8822 10.4383 10.8756 10.436C10.8688 10.4337 10.8618 10.4327 10.8548 10.4332C10.8478 10.4334 10.841 10.4353 10.8346 10.4385C10.8282 10.4414 10.8226 10.4458 10.818 10.4511L10.6491 10.6333ZM10.1647 10.7043C10.1591 10.7088 10.1528 10.7121 10.146 10.7141C10.1392 10.7161 10.1321 10.7166 10.125 10.7158C10.118 10.7149 10.1112 10.7127 10.105 10.7092C10.0989 10.7058 10.0935 10.7011 10.0891 10.6955L9.93807 10.4999C9.93361 10.4945 9.93029 10.4881 9.92832 10.4813C9.92645 10.4744 9.92583 10.4673 9.92666 10.4603C9.92749 10.4533 9.92967 10.4464 9.93319 10.4403C9.93672 10.4341 9.94139 10.4287 9.94699 10.4243C9.95248 10.42 9.9588 10.4166 9.96565 10.4147C9.97239 10.4127 9.97955 10.4122 9.9866 10.413C9.99365 10.4138 10.0004 10.4161 10.0066 10.4196C10.0127 10.423 10.0181 10.4277 10.0224 10.4333L10.1735 10.6289C10.1914 10.651 10.1869 10.6866 10.1647 10.7043ZM9.73358 10.3044C9.74695 10.3267 9.77806 10.3355 9.80917 10.3222C9.83582 10.3088 9.84474 10.2777 9.83136 10.2511L9.71584 10.0288C9.71222 10.0225 9.70734 10.0171 9.70143 10.0128C9.69562 10.0084 9.68898 10.0053 9.68194 10.0036C9.67478 10.002 9.66752 10.0018 9.66037 10.003C9.65321 10.0044 9.64637 10.0071 9.64025 10.0111C9.62801 10.0176 9.61889 10.0288 9.61473 10.0421C9.61059 10.0554 9.61173 10.0698 9.61805 10.0821L9.73358 10.3044ZM9.58694 9.83326C9.58062 9.8371 9.57357 9.83958 9.56621 9.84053C9.55885 9.84148 9.55137 9.84091 9.54433 9.83881C9.53717 9.83672 9.53053 9.83317 9.52493 9.82839C9.51923 9.8236 9.51467 9.8177 9.51145 9.81104L9.39583 9.58883C9.38951 9.57642 9.38837 9.56204 9.39251 9.54875C9.39666 9.53547 9.40579 9.52434 9.41812 9.51773C9.44477 9.50439 9.48034 9.51773 9.49362 9.53995L9.60913 9.76216C9.62251 9.78438 9.60913 9.81994 9.58694 9.83326ZM9.32035 9.3444C9.33362 9.36662 9.36472 9.37996 9.39583 9.36662C9.42248 9.35329 9.4314 9.32219 9.41812 9.29108L9.3025 9.07331C9.29929 9.06664 9.29472 9.06075 9.28902 9.05596C9.28331 9.05118 9.2768 9.04763 9.26964 9.04554C9.26259 9.04345 9.25509 9.04287 9.24774 9.04382C9.2404 9.04477 9.23332 9.04725 9.22699 9.05109C9.21474 9.05769 9.20556 9.06883 9.2014 9.08211C9.19726 9.0954 9.19846 9.10978 9.20476 9.1222L9.32035 9.3444ZM10.2935 10.851C10.2935 10.8199 10.3158 10.7977 10.3469 10.7977H10.4846C10.5158 10.7977 10.5424 10.8199 10.5424 10.851C10.5424 10.8777 10.5158 10.9044 10.4846 10.9044H10.3469C10.3327 10.9044 10.3192 10.8988 10.3092 10.8887C10.2992 10.8787 10.2935 10.8652 10.2935 10.851ZM11.0669 10.1844C11.0627 10.1902 11.0596 10.1967 11.0581 10.2038C11.0564 10.2107 11.0563 10.218 11.0575 10.225C11.0587 10.2321 11.0614 10.2388 11.0652 10.2447C11.0692 10.2507 11.0743 10.2559 11.0802 10.26C11.1023 10.2777 11.1379 10.2688 11.1558 10.2466L11.2979 10.0422C11.3051 10.0308 11.3077 10.0172 11.3052 10.0041C11.3027 9.99084 11.2954 9.97902 11.2847 9.97104C11.2788 9.96678 11.2723 9.96388 11.2653 9.96222C11.2583 9.96057 11.2511 9.96046 11.244 9.9617C11.237 9.96295 11.2303 9.96554 11.2242 9.96948C11.2182 9.97332 11.2131 9.9784 11.2091 9.98441L11.0669 10.1844Z" fill="#C7C7C7"/>
<path d="M14.3552 11.3124L14.404 11.0324L14.5551 11.0146V11.1658L14.7196 11.188L14.9107 11.3124L15.0129 11.4901L14.9107 11.788L14.7417 11.9568L14.7862 12.0324L14.964 12.1568L14.7551 12.2278L14.6352 12.1568L14.524 11.939C14.5421 11.9213 14.5585 11.902 14.5729 11.8812L14.6573 11.788L14.7417 11.6857L14.7862 11.5391L14.7063 11.4012L14.524 11.3124L14.3552 11.3435V11.3124ZM13.7996 11.3657L13.8529 11.0991L14.0573 11.0768L14.044 11.2945L13.9908 11.3836L13.8529 11.4901L13.7374 11.6456L13.7019 11.788L13.7374 11.9168L13.8975 12.0057H14.1284L14.1507 12.0901L14.3062 12.2768L14.324 12.3256L14.1507 12.3656L14.0752 12.2501L13.9908 12.17L13.7996 12.1168L13.5508 11.9657L13.4796 11.7656L13.5508 11.5212L13.7996 11.3657ZM14.1907 11.4012L14.2574 11.5212H14.444L14.3373 11.6591L14.444 11.8412L14.2796 11.7835L14.1374 11.9301V11.748L13.9729 11.6591L14.1507 11.5702L14.1952 11.4012H14.1907Z" fill="#D43D25"/>
<path d="M15.48 11.3523C15.4385 11.2071 15.4385 11.053 15.48 10.9078L15.6712 10.8857C15.6444 10.9567 15.5956 11.1478 15.64 11.2989C15.6844 11.4545 15.8844 11.7123 15.9822 11.8233L15.831 11.9034C15.7422 11.8011 15.5378 11.5478 15.48 11.3523Z" fill="url(#paint7_linear_328_55498)"/>
<path d="M15.9243 11.1565L15.9421 10.8765L16.0755 10.832V11.112L16.1599 11.3787L16.3821 11.6409L16.2133 11.712L16.1421 11.6409L15.991 11.4187L15.9243 11.1565Z" fill="url(#paint8_linear_328_55498)"/>
<path d="M16.484 10.8682L16.3196 10.8504C16.3196 10.877 16.3285 10.9393 16.364 10.9837C16.4041 11.0282 16.4262 11.1038 16.4351 11.1392L16.4129 11.4149C16.4351 11.4459 16.4885 11.5037 16.5018 11.5037L16.5551 11.4459C16.5641 11.4415 16.5907 11.357 16.5996 11.3215L16.6706 11.1882L16.7596 11.077L16.8618 10.9659L17.0662 10.8326C17.1373 10.7882 17.2885 10.7082 17.2928 10.6994L17.404 10.6815H17.515C17.5284 10.6815 17.6039 10.7348 17.635 10.7615L17.724 10.8282L17.8262 10.8948H17.9284L18.004 10.8682L18.1328 10.7793L18.3017 10.6015L18.4662 10.3704L18.6262 10.1349L18.7417 9.87714L18.8261 9.64604L18.8883 9.36606L18.8483 9.13941L18.7861 8.85942L18.6661 8.65054L18.5061 8.45056L18.2394 8.29057L18.0618 8.22391L17.8706 8.19724L17.5773 8.26391L17.3774 8.37944C17.2928 8.47722 17.0306 8.64166 16.7951 8.55721C16.4973 8.44611 16.524 8.17947 16.5506 8.02392C16.5685 7.8906 16.6618 7.76171 16.7062 7.71283L16.8396 7.62394L16.9951 7.60617L17.124 7.62394L17.2218 7.67284L17.3995 7.68616L17.6573 7.60617L17.8706 7.48173L17.9729 7.30396L18.0128 7.12619V6.93064L17.915 6.70845L17.7862 6.57511L17.6173 6.49512H17.4173L17.2617 6.52623L17.1106 6.62401L17.0574 6.704L17.0439 6.79289L17.1106 6.88176L17.2218 6.91731C17.235 6.91731 17.3151 6.88176 17.355 6.85954L17.3995 6.77067L17.4573 6.79289L17.5195 6.91731L17.4573 7.05065L17.3196 7.10842L17.1551 7.09064L16.7818 6.93064L16.6041 6.91731L16.3507 7.0062L16.084 7.17952L15.8707 7.33951L15.7241 7.57951L15.6352 7.86838L15.5907 8.14836V8.41501L15.5685 8.575L15.5863 8.77054L15.7062 9.04608L15.9197 9.34385C15.9862 9.41495 16.1641 9.5705 16.3373 9.66383C16.5151 9.75271 16.7151 9.74382 16.7951 9.73049L16.8351 9.67715L16.8841 9.5705C16.9062 9.53494 16.9506 9.41939 16.964 9.40606C16.9818 9.39273 17.0439 9.3705 17.075 9.34385L17.1995 9.32162L17.3196 9.34385L17.4528 9.45939L17.4973 9.5705L17.515 9.73049L17.4839 9.97046L17.3462 10.0904L17.1818 10.1705L17.0085 10.3171L16.8974 10.4326L16.8218 10.6193L16.6573 10.7838L16.4796 10.8682H16.484Z" fill="white"/>
<path d="M15.5911 8.17976C15.5911 8.01533 15.6488 7.81534 15.68 7.73535C15.68 7.76201 15.6844 7.87756 15.7111 8.13087C15.7377 8.37975 15.8889 8.78417 15.9645 8.95749L15.7111 8.72195C15.72 9.05526 16.0577 9.49079 16.4221 9.53079C16.72 9.55746 16.7866 9.34413 16.7821 9.22859C16.8089 9.10415 16.9598 8.85527 17.3376 8.85971C17.8132 8.85971 17.8265 9.19303 17.8353 9.29525C17.8398 9.37524 17.8042 9.55746 17.7909 9.63745C17.7376 9.75745 17.6131 10.0063 17.5242 10.0552C17.4681 10.0899 17.4036 10.1084 17.3376 10.1086C17.3776 10.0863 17.4531 10.0285 17.4709 10.0063C17.4842 9.97969 17.5242 9.72634 17.5242 9.63745C17.5242 9.54857 17.4354 9.3708 17.2398 9.32192C17.0887 9.28191 16.9954 9.39746 16.9643 9.45524L16.831 9.69967L16.6933 9.74412C16.5155 9.77522 16.2933 9.65523 16.2001 9.593C16.1245 9.53968 15.9333 9.3708 15.7688 9.12637C15.6583 8.97908 15.592 8.80335 15.5778 8.61974L15.5911 8.17976Z" fill="#B3B3B3"/>
<path d="M17.2309 6.91331C17.1914 6.9148 17.1526 6.90153 17.1222 6.87606C17.0918 6.85062 17.072 6.81479 17.0665 6.77554C17.0665 6.73109 17.0887 6.62889 17.1687 6.57555C17.2487 6.51778 17.382 6.50444 17.4354 6.5C17.4975 6.53112 17.6175 6.62445 17.6265 6.76221C17.6283 6.81426 17.6171 6.86596 17.5938 6.91254C17.5705 6.95914 17.5359 6.99914 17.4931 7.02887L17.5287 6.91331L17.4043 6.77554C17.395 6.81548 17.3723 6.85102 17.3399 6.87612C17.3075 6.90122 17.2675 6.91436 17.2265 6.91331H17.2309Z" fill="#C7C7C7"/>
<path d="M17.4355 7.57545C17.6221 7.59767 17.8355 7.45545 17.9154 7.37991C17.7643 7.67322 17.3644 7.691 17.1866 7.65544C17.1333 7.61101 16.9821 7.54878 16.7601 7.68211C16.5378 7.81988 16.5288 8.1443 16.5556 8.28651C16.4656 8.1542 16.3967 8.00879 16.3512 7.85543C16.3288 7.70433 16.3245 7.29102 16.7066 7.29102C17.0933 7.29102 17.1999 7.54878 17.4355 7.57545Z" fill="#AFB1B3"/>
<path d="M17.3111 10.4244C17.1333 10.4645 16.9288 10.8245 16.8488 10.9978C16.9644 10.8378 17.3822 10.6733 17.4488 10.669C17.511 10.6645 17.6266 10.7134 17.7064 10.8022C17.7687 10.8778 17.8754 10.8911 17.9198 10.8911C18.1376 10.8734 18.4842 10.3756 18.6308 10.1267C18.6753 10.0378 18.7997 9.77115 18.8664 9.40673C18.9331 9.04231 18.7331 8.73123 18.6264 8.62012L18.7064 8.78455C18.7509 8.9312 18.7064 9.61117 18.6264 9.8156C18.5464 10.0245 18.0887 10.62 17.8176 10.62C17.5421 10.62 17.5333 10.3711 17.3111 10.4244Z" fill="#C7C7C7"/>
<path d="M9.51588 12.3928L9.20483 12.0063C9.79151 11.7529 11.5469 11.7129 12.3557 11.7218L11.9113 12.1395L11.9424 12.2728C12.1957 12.3351 12.7201 12.4684 12.7646 12.4729C12.8179 12.4817 12.5824 12.5307 11.4403 12.5751C10.5247 12.6151 9.77813 12.4684 9.51588 12.3928Z" fill="white"/>
<path d="M12.5292 8.88175C12.5922 8.69253 12.7185 8.53085 12.887 8.42397C13.0554 8.3171 13.2555 8.27159 13.4536 8.29511C13.2224 8.30844 12.7069 8.5751 12.7202 9.34838C12.7336 9.97057 13.249 10.2239 13.5024 10.2728H13.138C13.018 10.2728 12.8092 10.1172 12.7202 10.0373C12.5953 9.87547 12.5124 9.68523 12.4791 9.48357C12.4457 9.28191 12.4629 9.07512 12.5292 8.88175Z" fill="url(#paint9_linear_328_55498)"/>
<path d="M14.4002 9.29097C14.4002 9.84204 14.0225 10.291 13.5602 10.291C13.098 10.291 12.7203 9.84648 12.7203 9.29097C12.7203 8.73988 13.098 8.29102 13.5647 8.29102C14.0225 8.29102 14.4002 8.73543 14.4002 9.29097Z" fill="url(#paint10_linear_328_55498)"/>
<path d="M13.5556 8.5127C13.16 8.5127 12.9779 8.90377 12.9423 9.10377C12.9023 9.25487 13.0089 9.9482 13.5512 9.9482C14.0933 9.9482 14.1956 9.31708 14.1734 9.22375C14.16 9.12598 14.04 8.5127 13.5512 8.5127H13.5556Z" fill="#6C8B4B"/>
<path d="M13.4489 8.7002L13.1466 9.11794L13.2533 9.55792L13.7822 9.74013L14.0043 9.44681L13.9377 8.8424L13.4489 8.7002Z" fill="#B7FA00"/>
<path d="M14.1243 17.3125C14.1425 17.3136 14.1597 17.32 14.1741 17.3311C14.1884 17.3423 14.1989 17.3575 14.2044 17.3748C14.2094 17.3912 14.2097 17.4088 14.2049 17.4254C14.2001 17.442 14.1907 17.4568 14.1777 17.4681L13.8443 17.7703C13.8344 17.7792 13.8225 17.7859 13.8099 17.79C13.7972 17.7942 13.7837 17.7958 13.7704 17.7945C13.757 17.7932 13.7441 17.7892 13.7324 17.7828C13.7206 17.7764 13.7104 17.7676 13.7021 17.757L13.4133 17.4014C13.4063 17.3931 13.401 17.3834 13.3979 17.373C13.3948 17.3625 13.3937 17.3516 13.395 17.3408C13.3963 17.33 13.3998 17.3195 13.4052 17.31C13.4105 17.3006 13.4179 17.2924 13.4266 17.2859C13.4487 17.2668 13.4774 17.2572 13.5066 17.2592L14.1243 17.3125ZM14.2443 17.357C14.2353 17.3328 14.2197 17.3117 14.1993 17.296C14.1789 17.2803 14.1544 17.2707 14.1288 17.268L13.511 17.2148C13.4714 17.2105 13.4317 17.2216 13.4 17.2459V17.2504C13.3866 17.2604 13.3753 17.2729 13.3669 17.2875C13.3585 17.3019 13.3531 17.318 13.351 17.3345C13.3489 17.3511 13.3503 17.3679 13.3549 17.384C13.3594 17.4 13.3673 17.4151 13.3777 17.428L13.6666 17.7836C13.6933 17.8148 13.7288 17.8324 13.7689 17.8369C13.8088 17.8369 13.8488 17.828 13.8754 17.8014L14.2089 17.5036C14.2289 17.4856 14.2429 17.462 14.2493 17.4358C14.2557 17.4096 14.2539 17.3821 14.2443 17.357ZM8.65805 17.4148C8.61361 17.4014 8.56917 17.4148 8.53807 17.4414L8.03587 17.9524C8.02417 17.964 8.01496 17.978 8.00885 17.9932C8.00274 18.0085 7.99983 18.0249 8.00032 18.0414C8.00032 18.0636 8.00922 18.0858 8.0181 18.0992C8.03587 18.1258 8.06698 18.1436 8.10255 18.1436H8.65361C8.68472 18.1436 8.71582 18.1303 8.73805 18.108C8.74884 18.0969 8.75718 18.0836 8.76254 18.0691C8.76789 18.0546 8.77015 18.0391 8.76916 18.0236L8.72916 17.5081C8.72916 17.4636 8.69805 17.428 8.65805 17.4148ZM8.50251 17.4059C8.54696 17.3614 8.61361 17.3436 8.67583 17.3614C8.73361 17.3881 8.77805 17.4414 8.7825 17.5036L8.82249 18.0192C8.82249 18.0636 8.80915 18.108 8.77805 18.1436C8.7621 18.1606 8.74283 18.174 8.72141 18.1833C8.69999 18.1924 8.67691 18.1971 8.65361 18.197H8.10255C8.0761 18.1974 8.04999 18.1911 8.02666 18.1786C8.00334 18.1662 7.98356 18.148 7.96921 18.1258C7.95426 18.1019 7.94654 18.0741 7.947 18.0458V18.037C7.947 17.9925 7.96477 17.9481 8.00032 17.917L8.50251 17.4059ZM8.56473 17.6103L8.19142 17.9969V18.0014L8.51584 17.988C8.56028 17.988 8.59584 17.9524 8.59139 17.908L8.5825 17.6192V17.6103H8.56473ZM8.52473 17.5748C8.53695 17.5638 8.55277 17.5578 8.56917 17.5578C8.58557 17.5578 8.6014 17.5638 8.61361 17.5748C8.62694 17.5836 8.63583 17.6015 8.63583 17.6192L8.64472 17.908C8.64474 17.9427 8.63131 17.9759 8.60725 18.0008C8.58321 18.0256 8.55043 18.0402 8.51584 18.0414L8.19586 18.0547C8.18317 18.0553 8.17063 18.0517 8.16019 18.0445C8.14974 18.0372 8.14198 18.0268 8.13808 18.0147C8.12919 17.9969 8.13808 17.9703 8.15142 17.9614L8.52473 17.5748ZM13.4889 17.3392C13.4914 17.3346 13.4954 17.3308 13.5001 17.3285C13.5049 17.3261 13.5102 17.3252 13.5155 17.3259L14.071 17.3614C14.0799 17.3614 14.0888 17.3703 14.0932 17.3792C14.0932 17.3881 14.0932 17.4014 14.0844 17.4104L13.7599 17.6769C13.7571 17.68 13.7537 17.6825 13.7499 17.6841C13.7461 17.6856 13.7419 17.6862 13.7377 17.6859C13.734 17.685 13.7305 17.6835 13.7273 17.6811C13.7242 17.6788 13.7217 17.6759 13.7199 17.6724L13.4933 17.3614C13.4917 17.358 13.4909 17.3541 13.4909 17.3503C13.4909 17.3464 13.4917 17.3427 13.4933 17.3392H13.4889ZM13.5688 17.3836L13.7465 17.6192L13.9999 17.4104L13.5688 17.3792V17.3836ZM15.862 17.357C15.8709 17.357 15.8799 17.3659 15.8799 17.3748L15.9331 17.6236L16.302 17.7747C16.3109 17.7747 16.3199 17.7881 16.3154 17.7969C16.3154 17.8103 16.3109 17.8192 16.2975 17.8236L16.0175 17.9125L15.9998 18.2236C15.9998 18.2324 15.9909 18.2413 15.9821 18.2458L15.9553 18.2413L15.6621 18.0059L15.3642 18.0458C15.351 18.0458 15.3421 18.0458 15.3376 18.037C15.3353 18.0329 15.3341 18.0283 15.3341 18.0236C15.3341 18.0189 15.3353 18.0144 15.3376 18.0103L15.4487 17.7658L15.2398 17.5214C15.2366 17.5169 15.2348 17.5114 15.2348 17.5058C15.2348 17.5002 15.2366 17.4948 15.2398 17.4903C15.2426 17.4872 15.246 17.4848 15.2498 17.4832C15.2538 17.4816 15.2579 17.4811 15.2621 17.4815L15.6354 17.5348L15.8354 17.357C15.8394 17.3547 15.8441 17.3526 15.8487 17.3526C15.8534 17.3526 15.8579 17.3547 15.862 17.357ZM15.8398 17.4325L15.6621 17.5836C15.6589 17.586 15.6553 17.5876 15.6514 17.5884C15.6475 17.5891 15.6436 17.589 15.6398 17.588L15.3288 17.5437L15.4976 17.748C15.5065 17.7525 15.5065 17.7658 15.5021 17.7747L15.4042 17.988L15.671 17.9524L15.6887 17.9569L15.951 18.1659L15.9687 17.8947C15.9687 17.8814 15.9731 17.8725 15.9864 17.8725L16.2131 17.7969L15.902 17.6681C15.8978 17.6668 15.894 17.6645 15.8909 17.6614C15.8879 17.6583 15.8855 17.6545 15.8843 17.6503L15.8398 17.428V17.4325ZM5.60935 17.6724H5.63601L5.92045 17.8725L6.36931 17.708C6.38264 17.708 6.39153 17.708 6.40042 17.7169C6.40931 17.7259 6.40931 17.7347 6.40042 17.7436L6.20932 18.1169L6.40486 18.3969V18.4236C6.4026 18.4275 6.39937 18.4308 6.39549 18.4331C6.3916 18.4355 6.38717 18.4367 6.38264 18.4369H5.97378V18.4858H5.916V18.4103C5.916 18.3969 5.92934 18.3836 5.94267 18.3836H6.32932L6.15155 18.1303C6.1492 18.1263 6.14797 18.1216 6.14797 18.1169C6.14797 18.1123 6.1492 18.1077 6.15155 18.1036L6.32487 17.7836L5.9249 17.9303L5.89822 17.9258L5.64491 17.748L5.61824 18.028C5.61824 18.037 5.61824 18.0414 5.60935 18.0458L5.4938 18.1569L5.45825 18.1214L5.56491 18.0147L5.59602 17.6948C5.59602 17.6859 5.60047 17.6769 5.60935 17.6724Z" fill="black"/>
<path fill-rule="evenodd" clip-rule="evenodd" d="M11.7644 4.05973H11.6534C12.1467 4.14862 12.8711 4.40193 13.2843 4.56636C12.569 4.34949 11.84 4.18025 11.1023 4.05973C10.5157 4.07307 9.98235 4.10417 9.68909 4.13084C9.28912 4.15751 8.88468 4.37526 8.55136 4.61969C8.29496 4.80893 8.0622 5.02826 7.85807 5.27299C7.8003 5.34409 7.69365 5.41965 7.56032 5.49521C7.427 5.57075 7.267 5.65075 7.08923 5.73963L6.98258 5.78851C6.65815 5.94405 6.30261 6.11738 6.01375 6.30848C5.75599 6.47736 5.60932 6.62846 5.52488 6.74401C5.44489 6.86401 5.42712 6.94844 5.43601 6.98845V6.99733C5.42267 7.06399 5.44933 7.25065 5.70265 7.3973C5.86265 7.49508 6.00041 7.57507 6.1693 7.61063C6.33817 7.65062 6.54259 7.64617 6.83592 7.57507H6.84925L6.85814 7.58396C7.39144 7.43286 8.52915 7.17066 9.3558 7.19288C8.86691 7.19288 7.6981 7.44175 7.02701 7.60172L7.92918 7.56618L8.27583 7.55729C8.87579 7.53951 9.56465 7.51285 10.1869 7.45507C11.9911 7.29064 12.8755 6.784 13.4354 6.44625C13.457 6.42577 13.4809 6.40787 13.5065 6.39292L13.4621 5.87294C13.4593 5.81501 13.4698 5.75719 13.4933 5.70407C13.5155 5.64186 13.551 5.58409 13.5866 5.52631C13.6621 5.41965 13.7554 5.31744 13.8221 5.25965C13.911 5.12633 14.0088 4.77079 13.5999 4.38859C13.5202 4.32211 13.4281 4.27225 13.3289 4.24194C13.2089 4.1975 13.0621 4.1664 12.8977 4.13973C12.5223 4.08603 12.1436 4.05781 11.7644 4.05529V4.05973ZM13.5599 6.37958L13.5155 5.8685C13.5155 5.82406 13.5199 5.77519 13.5421 5.72186C13.5643 5.66853 13.5954 5.61074 13.631 5.55742C13.7066 5.45076 13.7999 5.35298 13.8577 5.29521H13.8621C13.9732 5.13967 14.0666 4.74858 13.6399 4.34859C13.5541 4.27586 13.4542 4.22142 13.3465 4.18862C13.2221 4.14418 13.071 4.11306 12.9065 4.08639C12.5283 4.03244 12.1467 4.00422 11.7644 4.00197C10.9468 3.98863 10.0891 4.0464 9.68463 4.07751C9.2579 4.13532 8.85518 4.309 8.52026 4.5797C8.25925 4.76988 8.022 4.9907 7.81362 5.23743C7.76474 5.3041 7.66698 5.37076 7.53365 5.45076C7.40032 5.52632 7.24034 5.6063 7.06701 5.69074L6.96035 5.73963C6.63592 5.89962 6.27595 6.07294 5.98264 6.26403C5.72487 6.43291 5.56933 6.58847 5.48044 6.71735C5.39601 6.83734 5.37378 6.93512 5.38267 6.99289C5.3649 7.08622 5.40933 7.2862 5.67155 7.44175C5.83154 7.53951 5.97819 7.61951 6.16041 7.66395C6.33372 7.70395 6.54259 7.6995 6.82703 7.63284C6.85191 7.66261 6.87281 7.69547 6.88925 7.73061C6.90066 7.75418 6.90673 7.77998 6.90702 7.80617C6.90702 7.82839 6.90702 7.84617 6.89813 7.86394V7.87727L6.88925 7.91727C6.88925 7.93505 6.88925 7.95726 6.89813 7.97504C6.90702 7.99283 6.9248 8.0106 6.95147 8.01949V9.6905C6.86329 9.74123 6.78499 9.80747 6.72036 9.88604C6.64037 9.98386 6.57371 10.1083 6.57371 10.2682C6.57371 10.4194 6.64037 10.5482 6.72036 10.6415C6.79592 10.7306 6.88925 10.7927 6.9559 10.8238L7.02258 12.0147C7.05368 12.2947 7.12923 12.7569 7.26256 13.2235C7.39589 13.6902 7.58254 14.1747 7.8403 14.4947C7.9114 14.5923 7.99584 14.6813 8.08028 14.7657L8.08917 15.339C7.96028 15.419 7.76919 15.548 7.58698 15.6768C7.40033 15.81 7.22255 15.9524 7.14256 16.0456C7.09812 16.0768 7.02701 16.1612 7.05368 16.2945L7.07591 16.3834L5.11157 17.81L5.14268 17.8545L7.09368 16.4412L7.16923 16.6989L7.18701 16.7612C7.29992 17.1083 7.39926 17.4596 7.48477 17.8145C7.32922 17.8811 7.09812 18.0278 6.88035 18.1922C6.65815 18.3566 6.43594 18.5344 6.30261 18.6455L6.34261 18.69C6.47593 18.5743 6.68926 18.3966 6.91146 18.2322C7.07146 18.1166 7.23145 18.01 7.36478 17.9345C7.06299 18.2014 6.76226 18.4695 6.4626 18.7388V18.7478L6.51149 18.761V18.7654L6.53371 18.7433C6.6482 18.6322 6.76678 18.5255 6.88925 18.4233L7.50254 17.8856L7.5781 18.1699L7.59143 18.2589V18.2633C7.59143 18.29 7.59587 18.3122 7.60477 18.3344C7.61809 18.3566 7.64031 18.3744 7.67142 18.3834C7.9092 18.4268 8.14627 18.4742 8.3825 18.5255L7.56921 18.8055C7.48668 18.8333 7.40645 18.8675 7.32922 18.9078C7.32176 18.9138 7.3157 18.9214 7.31144 18.9299C7.30256 18.9522 7.31144 18.9699 7.32033 18.9744L7.347 19.001L7.43589 19.0499C7.50254 19.0854 7.58698 19.121 7.64476 19.1432L9.0669 19.7743L9.08467 19.7254L7.66698 19.0944C7.56477 19.0518 7.46533 19.0027 7.36921 18.9477L7.38255 18.9389L7.44477 18.9078C7.48921 18.8854 7.54698 18.8677 7.58254 18.8588L8.48914 18.5477H8.49803V18.5433L9.07578 18.3433V17.4101L11.8134 19.8677L11.8488 19.8276L10.7735 18.8588C11.0846 18.8277 11.5733 18.761 12.0133 18.6634C12.2356 18.6189 12.4577 18.5611 12.6355 18.4989C12.7733 18.4544 12.8977 18.3966 12.9821 18.3389C12.9377 18.8277 12.8711 19.3077 12.7733 19.6455L12.8266 19.6588C12.9421 19.2677 13.0088 18.6944 13.0489 18.1345L13.0889 17.4544L13.6399 18.0634L14.9732 18.01L15.1509 17.9922C15.1509 18.0011 15.1509 18.01 15.1421 18.0189L14.2088 19.1743L14.2487 19.2054C14.4398 18.9699 14.7554 18.5833 14.9642 18.3166L14.9687 18.3211L15.0576 18.3566L15.1465 18.3966L15.4709 18.53L15.4931 18.4855C15.339 18.4204 15.185 18.3553 15.031 18.29L14.9998 18.2766L15.062 18.201L15.622 18.4322L15.6442 18.3834L15.0976 18.1611L15.1865 18.0544C15.2176 18.01 15.1954 17.9655 15.1865 17.9433L15.1732 17.9345L14.9687 17.9566L14.1198 17.9922L14.1821 17.9521L14.2798 17.8944L14.4931 17.7612C14.5138 17.7452 14.5292 17.7235 14.5376 17.6989C14.551 17.6766 14.551 17.6545 14.5466 17.6367C14.5397 17.6049 14.5244 17.5758 14.5021 17.5522L14.3466 17.1345C14.2847 16.96 14.24 16.7799 14.2132 16.5967C14.4888 16.7433 14.9198 16.9656 15.3598 17.1745C15.822 17.3966 16.2975 17.5967 16.6219 17.6856L16.6354 17.6322C16.3198 17.5434 15.8443 17.3433 15.3865 17.1256C14.9858 16.9373 14.5902 16.7388 14.1999 16.5301C14.1889 16.4908 14.1756 16.4522 14.1598 16.4145C14.1538 16.4033 14.1464 16.3928 14.1377 16.3834V16.3789L13.1021 15.6057V15.1834C13.4602 14.9625 13.7603 14.6593 13.9777 14.2991C14.341 13.6999 14.5246 13.0086 14.5066 12.3081C15.071 12.1614 15.4843 12.0326 15.7865 11.9303H15.7909C15.9558 11.8702 16.1188 11.805 16.2798 11.7347C16.3687 11.6948 16.4175 11.6681 16.4443 11.6458L16.7108 11.206C16.7731 11.1216 16.8798 10.9971 17.0042 10.8949C17.0664 10.8416 17.1287 10.7927 17.1953 10.7616C17.248 10.731 17.307 10.7127 17.3678 10.708C17.4285 10.7034 17.4896 10.7126 17.5464 10.7349C17.5864 10.7482 17.613 10.7705 17.6441 10.7927L17.653 10.8015C17.6797 10.8238 17.7064 10.8461 17.7419 10.8638C17.782 10.8816 17.8308 10.8949 17.893 10.8949C17.9508 10.8949 18.0085 10.8682 18.0664 10.8371C18.1196 10.8015 18.1774 10.7482 18.2263 10.6994C18.4326 10.4658 18.602 10.202 18.7284 9.91715C18.8173 9.72605 18.8885 9.50829 18.8885 9.32163C18.88 9.05244 18.7901 8.79214 18.6307 8.57502C18.5172 8.40385 18.3494 8.27603 18.1541 8.2123C17.9588 8.14857 17.7478 8.15267 17.5552 8.22392C17.4753 8.25948 17.4219 8.31281 17.3775 8.35725L17.3686 8.36614C17.3241 8.41057 17.2887 8.44613 17.2352 8.47724C17.173 8.50835 17.0886 8.53058 16.9597 8.53058C16.8575 8.53058 16.7819 8.50835 16.7198 8.47279C16.6646 8.44005 16.6199 8.39226 16.5908 8.33503C16.542 8.23117 16.5264 8.11475 16.5463 8.00171C16.5598 7.9395 16.5908 7.83728 16.6664 7.75284C16.7375 7.67285 16.8442 7.60618 16.9997 7.60618C17.0264 7.60618 17.0664 7.60618 17.1063 7.61951C17.1508 7.6284 17.1864 7.64173 17.2041 7.66395C17.2264 7.68617 17.2486 7.6995 17.2797 7.70839C17.3108 7.71728 17.342 7.71284 17.382 7.70839C17.462 7.69062 17.5686 7.64617 17.7152 7.56618C18.0264 7.39286 18.044 7.05955 18.044 6.99289C18.044 6.95733 18.0219 6.824 17.942 6.69956C17.8882 6.62065 17.8149 6.55704 17.7292 6.51497C17.6435 6.4729 17.5483 6.45381 17.453 6.45958C17.1996 6.45958 17.0752 6.53958 17.0308 6.64179C17.0116 6.68853 17.0101 6.74064 17.0264 6.78845C17.0398 6.8329 17.0709 6.86401 17.1019 6.88178C17.1642 6.91289 17.222 6.92623 17.2797 6.90845C17.3286 6.89512 17.3731 6.86401 17.4042 6.81068C17.4264 6.81068 17.4485 6.824 17.4708 6.83734C17.493 6.85956 17.5152 6.89067 17.5152 6.93955C17.5152 7.00622 17.4975 7.03733 17.4708 7.0551C17.4352 7.07288 17.382 7.08178 17.293 7.08178C17.2545 7.08074 17.2167 7.07166 17.182 7.0551C17.1624 7.04823 17.1432 7.04082 17.1242 7.03288L17.1197 7.02845C16.9605 6.94657 16.7831 6.90678 16.6043 6.91289C16.1419 6.91289 15.6798 7.34398 15.5864 7.9706C15.4975 8.59279 15.5998 9.08164 15.8619 9.33496C15.9909 9.46384 16.1998 9.60162 16.3865 9.6905C16.4798 9.73049 16.5731 9.76161 16.6531 9.77049C16.7242 9.77938 16.7952 9.77049 16.8308 9.7216C16.8663 9.67716 16.8842 9.63273 16.9019 9.58828L16.9153 9.55272L16.9508 9.46384C16.9656 9.42808 16.9903 9.39726 17.0219 9.37495C17.0654 9.35114 17.1147 9.34034 17.1642 9.34385C17.2975 9.34385 17.3775 9.40606 17.4308 9.49495C17.4753 9.58383 17.4975 9.70384 17.4975 9.8016C17.4975 9.89049 17.4708 9.9571 17.4352 10.0016C17.3952 10.0461 17.3464 10.0683 17.2842 10.0816C17.2131 10.0994 17.1331 10.1483 17.0531 10.2328C16.9642 10.3172 16.8753 10.4327 16.7864 10.5927C16.7458 10.6747 16.681 10.7422 16.6006 10.7859C16.5203 10.8297 16.4285 10.8475 16.3375 10.8371H16.3331C15.4575 10.8371 14.7332 10.9127 14.1466 11.0282V10.0194H14.1377C14.2977 9.82827 14.3998 9.56161 14.3998 9.27274C14.3998 8.91722 14.2532 8.60613 14.031 8.41502C13.935 7.89162 13.7813 7.38042 13.5733 6.89067C13.6017 6.86511 13.6256 6.83508 13.6444 6.80179C13.6665 6.76178 13.6843 6.7129 13.671 6.65957C13.6537 6.57682 13.6315 6.4952 13.6044 6.41514C13.5985 6.40506 13.5909 6.39603 13.5821 6.38847C13.5761 6.38211 13.5684 6.37751 13.5599 6.37514V6.37958ZM9.538 17.3922L10.6491 18.7522L9.08467 17.3345V17.3212H9.07134L8.89357 17.1612C9.05356 17.2366 9.27575 17.3212 9.54246 17.3833L9.538 17.3922ZM10.7646 18.8055L9.62687 17.4145C10.5078 17.6223 11.4305 17.5667 12.28 17.2545C12.4889 17.1745 12.6888 17.0768 12.8533 16.9567L13.0355 17.4056C13.0256 17.6933 13.0093 17.9808 12.9866 18.2678C12.911 18.3299 12.7821 18.3922 12.6133 18.4499C12.4356 18.5122 12.2266 18.5655 12 18.6144C11.5601 18.7033 11.0801 18.7744 10.7646 18.8055ZM13.0399 17.2722L13.0489 16.7834C13.0044 16.8322 12.9555 16.8812 12.8977 16.9256L13.0399 17.2722ZM13.1021 16.7078V15.6679L14.0977 16.4145L14.111 16.4323L14.1332 16.4901C14.1619 16.715 14.2171 16.9358 14.2977 17.1477C14.351 17.3122 14.4132 17.4722 14.4532 17.5701V17.5789H14.4577C14.471 17.5967 14.4888 17.6189 14.4931 17.6411V17.6766C14.4843 17.6856 14.4798 17.6989 14.4621 17.7122C14.3618 17.7813 14.258 17.8451 14.151 17.9033L14.0088 17.9922H13.9199L14.2843 17.6455L13.8577 17.9966L13.6621 18.0056L13.1111 17.3922C13.1777 17.2945 13.3866 16.9389 13.4977 16.7433L13.0977 17.3122L13.1066 16.7078H13.1021ZM13.0444 16.6945C12.8933 16.9168 12.5867 17.0811 12.2622 17.2012C11.2208 17.5861 10.0742 17.575 9.04023 17.1701H9.07134L9.03579 15.3835C9.52908 15.5746 10.1379 15.6635 10.9024 15.6635C11.6756 15.6635 12.2888 15.5656 12.791 15.3479C12.8799 15.3035 12.9645 15.2635 13.0444 15.2145V16.6945ZM9.01801 17.1656L8.98245 15.3612C8.66811 15.2351 8.38021 15.0512 8.13362 14.8191L8.17361 16.5211L8.26694 16.6101C8.29805 16.5701 8.37359 16.5211 8.47582 16.5211C8.55581 16.5211 8.64025 16.579 8.70691 16.6767C8.76913 16.77 8.81802 16.9078 8.82246 17.0768L9.01801 17.1656ZM8.47582 16.5701C8.38693 16.5701 8.32916 16.6145 8.30693 16.6412L8.76913 17.0589C8.76024 16.9078 8.7158 16.7878 8.66247 16.7034C8.60026 16.6145 8.52914 16.5701 8.47582 16.5701ZM14.9909 18.29L14.9687 18.3166H14.9776C14.9866 18.3122 14.9866 18.2988 14.9909 18.29ZM9.02246 17.3611L8.10695 16.5389L8.11583 16.5301V16.5211L7.36032 16.0456L8.11583 16.4634V16.4457L7.77808 16.0456L8.1114 16.3789L8.08917 15.4012C7.96028 15.4812 7.78251 15.6012 7.61366 15.7212C7.42255 15.8545 7.24923 15.9968 7.17367 16.0856L7.16923 16.09C7.14256 16.1034 7.08035 16.1701 7.10257 16.2857C7.12034 16.3656 7.16479 16.5123 7.21811 16.6856L7.23589 16.7433C7.28034 16.8989 7.33367 17.0589 7.36921 17.1967C7.46361 17.5482 7.55397 17.9009 7.64031 18.2545C7.64031 18.2855 7.64476 18.2988 7.6492 18.3122L7.68476 18.3344L7.8003 18.361L8.48026 18.4944L9.02246 18.3078V17.3611ZM13.5999 10.3216C13.7865 10.3001 13.9595 10.2135 14.0887 10.0772V11.0416C13.6888 11.1216 13.3599 11.2193 13.08 11.3258C12.8364 11.416 12.6025 11.5306 12.3821 11.6681C10.7825 11.6414 9.47132 11.8547 8.89357 11.997L8.80468 10.9349C8.96912 10.8416 9.11578 10.7527 9.2491 10.6683C9.41356 10.5661 9.54681 10.4727 9.62241 10.4061C9.66689 10.4905 9.71128 10.5571 9.73793 10.5972L9.75577 10.6238C9.81353 10.7127 9.8802 10.815 9.97353 10.8994C10.0757 10.9971 10.2091 11.077 10.3868 11.077C10.4624 11.077 10.5424 11.0416 10.6224 10.9926C10.7068 10.9483 10.7913 10.8771 10.8713 10.8015C11.0313 10.655 11.1824 10.4772 11.2668 10.3572C11.3601 10.2328 11.5068 10.015 11.6489 9.77494C11.7866 9.5305 11.92 9.26386 11.9867 9.0372C12 8.97498 12.0133 8.86831 12 8.75278C11.9911 8.6639 11.9689 8.56612 11.9156 8.47279C12.2377 8.13867 12.5448 7.79019 12.8355 7.42841C12.9333 7.44618 13.08 7.45507 13.231 7.41952C13.3732 7.38396 13.5199 7.30843 13.6221 7.16621C13.7333 7.46396 13.8799 7.91282 13.9643 8.36614C13.8216 8.26674 13.6489 8.21965 13.4754 8.23281V8.22836C13.0444 8.22836 12.7733 8.40613 12.6089 8.62834C12.4738 8.8212 12.4009 9.05067 12.4 9.28608C12.4 9.47273 12.4889 9.73049 12.6355 9.93938C12.7778 10.1527 12.9866 10.3216 13.2221 10.3216H13.6088H13.5999ZM13.5999 7.10843L13.5244 6.93512C13.471 6.984 13.391 7.03733 13.3021 7.09066C13.1848 7.15782 13.0647 7.2201 12.9421 7.27732L12.8711 7.38396C12.96 7.3973 13.0933 7.3973 13.2177 7.36619C13.3644 7.33065 13.5065 7.2551 13.5954 7.10843H13.5999ZM7.00479 8.34836V8.03283C7.11591 8.04615 7.31144 8.06837 7.58254 8.08615C7.52477 8.15281 7.4581 8.26836 7.42255 8.4328L7.00479 8.34392V8.34836ZM7.00479 8.60613V8.40169L9.02689 8.815C9.00521 8.8501 8.99155 8.88956 8.98689 8.93054V9.01054L7.00479 8.60613ZM7.08479 8.93499C7.05646 8.84832 7.0371 8.75897 7.02701 8.66835L7.43589 8.74834C7.45365 8.80167 7.48477 8.88165 7.52921 8.95721C7.56921 9.02387 7.61809 9.09053 7.67587 9.13497H7.60921C7.47588 9.13497 7.36033 9.1883 7.267 9.2683C7.18664 9.16981 7.12626 9.05659 7.08923 8.93499H7.08479ZM8.02251 9.13053H7.7603C7.68339 9.08064 7.62063 9.01176 7.5781 8.93054C7.5461 8.87693 7.51931 8.82039 7.4981 8.76167L7.65809 8.79279C7.68476 8.84611 7.73808 8.92165 7.80474 8.98387C7.86695 9.04608 7.9514 9.09942 8.04472 9.09942C8.20916 9.09942 8.32027 8.9972 8.35582 8.93943L8.80024 9.02832C8.66247 9.25052 8.43138 9.32607 8.32471 9.33496C8.21361 9.21497 8.10251 9.15719 8.02695 9.13497L8.02251 9.13053ZM8.49359 9.59272C8.45926 9.51813 8.41598 9.44799 8.36471 9.38385C8.49803 9.36163 8.72024 9.26386 8.85357 9.0372L8.94246 9.05497C8.92913 9.17497 8.85357 9.29053 8.7558 9.38829C8.66691 9.47718 8.56915 9.54828 8.49359 9.59272ZM8.55581 9.77049C8.54693 9.72605 8.52914 9.68161 8.51582 9.64605C8.59136 9.60162 8.69803 9.52162 8.79135 9.42385C8.88913 9.32607 8.97357 9.20609 8.99578 9.0772C9.00468 9.1483 9.0269 9.21941 9.04911 9.28608L9.12912 9.46384C9.09356 9.55272 8.99578 9.65939 8.88025 9.74827C8.78692 9.82827 8.68025 9.89493 8.6047 9.93938L8.56025 9.76605L8.55581 9.77049ZM8.76024 10.6061C8.73802 10.4905 8.68914 10.2639 8.61803 9.99267C8.69803 9.9483 8.80912 9.8727 8.91579 9.78828C9.01357 9.70827 9.1069 9.6194 9.16022 9.52607V9.53051C9.26258 9.73344 9.36773 9.93491 9.47578 10.135C9.40019 10.2017 9.27129 10.2905 9.1069 10.3927L8.76024 10.6061ZM8.50693 9.77938C8.61803 10.1661 8.68469 10.4994 8.7158 10.6372L8.44026 10.7971C8.4136 10.5305 8.35138 10.0016 8.32471 9.82382C8.30249 9.70827 8.23583 9.53495 8.12028 9.39274C8.04917 9.30385 7.96028 9.23274 7.85363 9.18386H8.02251C8.13362 9.21941 8.40026 9.38385 8.51137 9.77938H8.50693ZM8.27138 9.83271C8.30249 10.015 8.36027 10.5661 8.39138 10.8282C7.94901 11.0834 7.50308 11.3321 7.05368 11.5747L7.00924 10.8461C7.15601 10.8972 7.31577 10.8972 7.46254 10.8461C7.55587 10.8105 7.64476 10.7482 7.70698 10.6505C7.77363 10.5571 7.81362 10.4282 7.81362 10.255C7.81362 10.1172 7.77808 10.0061 7.72474 9.9216C7.67142 9.83716 7.59143 9.77938 7.50699 9.74383C7.36216 9.68462 7.20424 9.66468 7.04923 9.68605C7.08035 9.59717 7.14256 9.48162 7.227 9.38385C7.32922 9.27274 7.4581 9.1883 7.61366 9.1883C7.81362 9.1883 7.96917 9.29053 8.07584 9.42829C8.18694 9.56161 8.25361 9.72605 8.27138 9.83271ZM7.07146 11.8504L7.05368 11.6282C7.75874 11.2467 8.45518 10.8498 9.14244 10.4372C9.29795 10.3394 9.42683 10.2505 9.50689 10.1838L9.60022 10.3616C9.52908 10.4238 9.39572 10.5128 9.22244 10.6282L8.51582 11.046C8.00918 11.3393 7.44922 11.6459 7.06701 11.8504H7.07146ZM7.07591 12.0102L7.07146 11.9082C7.427 11.7214 7.95139 11.4325 8.44471 11.1526L8.50248 12.0725H8.77802V12.0814L8.7958 12.077C9.28466 12.4103 10.729 12.9347 12.7955 12.4947C13.2221 12.5303 13.7777 12.4947 14.4488 12.3214H14.4532C14.4754 12.668 14.3998 13.5214 13.9288 14.2724C13.6574 14.7251 13.2521 15.0824 12.7689 15.2946C12.28 15.5168 11.6711 15.6101 10.9024 15.6101C9.37799 15.6101 8.50248 15.2456 7.88029 14.4635C7.61648 14.0841 7.42513 13.6593 7.31588 13.2103C7.18256 12.7436 7.10702 12.2902 7.07591 12.0102ZM8.55581 12.0192L8.49359 11.1216L8.76024 10.966L8.84469 12.0102L8.80024 12.0192H8.55581ZM8.30693 8.9261L7.72919 8.80611C7.7603 8.85056 7.8003 8.89943 7.84474 8.94387C7.90695 9.00609 7.97807 9.04608 8.04917 9.04608C8.17361 9.04608 8.26694 8.97498 8.30693 8.9261ZM7.48033 8.44168C7.52033 8.25503 7.60921 8.13059 7.65365 8.09059L7.79141 8.09948C7.72474 8.1706 7.63587 8.29947 7.61366 8.46835L7.48033 8.44168ZM7.86695 8.10838C8.13361 8.11727 8.4536 8.13059 8.82691 8.13059C8.85357 8.18837 8.89357 8.2817 8.92024 8.39725C8.9469 8.5039 8.96023 8.62834 8.93357 8.73945L7.66698 8.48169C7.68919 8.28613 7.80918 8.14837 7.86695 8.10838ZM8.97801 8.38391C8.95746 8.29799 8.92766 8.21454 8.88913 8.13503H9.00912C9.05356 8.22392 9.13355 8.4639 9.09356 8.73945C9.08267 8.74771 9.07228 8.75663 9.06245 8.76611L8.98689 8.74834C9.01357 8.62834 9.00023 8.49502 8.97357 8.38391H8.97801ZM9.15578 8.69501C9.20911 8.65945 9.27129 8.64167 9.31131 8.63278L9.44467 8.59723C9.48905 8.33947 9.42683 8.17948 9.39127 8.12615L9.07134 8.13503C9.11578 8.23725 9.178 8.44613 9.15133 8.69501H9.15578ZM11.329 8.29503C10.7513 8.30392 9.9557 8.47279 9.50243 8.5839C9.53354 8.36169 9.49352 8.20171 9.44913 8.1217C10.498 8.05948 11.6268 7.77506 12.1022 7.6284L12.3112 7.5484L11.6311 8.29503H11.6268C11.52 8.28169 11.4046 8.28613 11.329 8.29503ZM12.8533 7.3173C12.7111 7.38396 12.56 7.45063 12.4267 7.50396L11.6933 8.30392L11.7733 8.32614C11.8177 8.34392 11.8533 8.37057 11.8756 8.40613L11.8933 8.42836C12.0222 8.29503 12.2221 8.08615 12.4133 7.86839C12.5822 7.67285 12.751 7.47285 12.8577 7.3173H12.8533ZM12.4089 7.45063C12.7037 7.32917 12.9929 7.19423 13.2755 7.04622C13.391 6.97955 13.4799 6.91289 13.5332 6.85956C13.551 6.84179 13.5777 6.81512 13.5954 6.784C13.6181 6.75169 13.6277 6.71198 13.6221 6.67291C13.602 6.59142 13.5767 6.51127 13.5466 6.43291C13.5321 6.43812 13.5186 6.44562 13.5065 6.45514C13.4955 6.46476 13.4851 6.47515 13.4754 6.48625H13.471C12.9022 6.82845 12.0133 7.34397 10.1913 7.5084C9.56465 7.56618 8.88025 7.59284 8.28026 7.61063L7.93363 7.61951C7.50699 7.63284 7.15145 7.64173 6.91591 7.66395L6.93814 7.70839C6.96378 7.76097 6.96856 7.82132 6.95147 7.87727V7.89061L6.94257 7.92172V7.94838L6.97368 7.9706C7.1959 8.00615 7.91585 8.08171 9.04911 8.08171C10.1869 8.08171 11.5467 7.74395 12.0889 7.57507L12.3956 7.45951L12.4 7.45063H12.4089ZM11.3335 8.34392C11.4046 8.33947 11.5157 8.33503 11.6178 8.34392C11.6711 8.35281 11.7156 8.36169 11.7512 8.37946C11.7956 8.3928 11.8177 8.41057 11.8311 8.4328C11.9067 8.53501 11.9422 8.65501 11.9511 8.76167C11.9644 8.86831 11.9511 8.96609 11.9378 9.02387C11.8756 9.24608 11.7423 9.50829 11.6044 9.74827C11.4888 9.94736 11.3627 10.1402 11.2268 10.3261C11.1379 10.4416 10.9957 10.6194 10.8357 10.766C10.7601 10.8371 10.6757 10.8994 10.6002 10.9483C10.5379 10.9897 10.466 11.0142 10.3913 11.0194C10.3212 11.0195 10.2518 11.0058 10.187 10.9792C10.1221 10.9526 10.0632 10.9132 10.0135 10.8638C9.92458 10.7794 9.86237 10.6816 9.80461 10.5972L9.79569 10.5838L9.78687 10.5661C9.58238 10.208 9.38681 9.84489 9.20023 9.47718C9.17355 9.42385 9.138 9.35274 9.1069 9.2683C9.06245 9.16164 9.03579 9.04608 9.04911 8.93499C9.05278 8.89935 9.06423 8.86495 9.08267 8.83423C9.1011 8.80351 9.12606 8.77723 9.15578 8.75723C9.21355 8.71278 9.28021 8.69055 9.32469 8.68612C9.97923 8.50332 10.6509 8.38865 11.329 8.34392H11.3335ZM7.00924 9.4194V9.64161L7.06701 9.52162L7.00924 9.4194ZM7.09812 9.46828C7.13662 9.40891 7.18131 9.35379 7.23145 9.30385C7.11963 9.17096 7.0432 9.01198 7.00924 8.84166V9.31274L7.09812 9.46828ZM12.4177 11.7214H12.4045C12.1512 11.8814 12.0044 12.037 11.9333 12.157L11.9422 12.228C12.1911 12.3748 12.9421 12.5836 14.1021 12.3481L13.9954 12.2058C13.8888 12.1792 13.7733 12.1436 13.6755 12.0814C13.5733 12.0147 13.4933 11.917 13.4621 11.7703C13.452 11.7161 13.4561 11.6602 13.4741 11.608C13.4921 11.5558 13.523 11.5092 13.5643 11.4726C13.631 11.4104 13.711 11.3659 13.7733 11.3393V11.1703C13.5244 11.2325 13.2977 11.3037 13.1021 11.3748C12.8634 11.4626 12.6341 11.5742 12.4177 11.7081V11.7214ZM11.5734 11.7259C11.8089 11.717 12.0578 11.717 12.3067 11.717C12.1022 11.8592 11.9689 11.997 11.8978 12.1125L11.5513 12.1347C11.6012 12.0058 11.6105 11.8647 11.5778 11.7303L11.5734 11.7259ZM11.4713 12.2591L11.8978 12.2636C11.9556 12.2992 12.0312 12.3347 12.1288 12.3703C12.1277 12.4266 12.1277 12.4829 12.1288 12.5391C11.9111 12.557 11.7067 12.5747 11.5068 12.5791L11.4713 12.2591ZM12.6 12.4769L12.1822 12.5303C12.18 12.4829 12.18 12.4354 12.1822 12.388C12.2977 12.4236 12.4356 12.4547 12.6 12.4769ZM15.9064 11.8281L15.7954 11.8726C15.7379 11.8267 15.6857 11.7746 15.6399 11.717C15.5731 11.637 15.511 11.5393 15.4843 11.4281C15.4354 11.2059 15.4843 11.0016 15.5198 10.9172L15.6399 10.9127C15.6087 11.0105 15.5731 11.197 15.6175 11.3925C15.6442 11.5037 15.7064 11.6058 15.7687 11.6859C15.8131 11.7482 15.8664 11.797 15.902 11.8281H15.9064ZM15.4309 11.4415C15.3865 11.2281 15.4264 11.0238 15.462 10.9215C15.1509 10.9394 14.8709 10.9705 14.6088 11.0105L14.5777 11.1305C14.6354 11.1305 14.7109 11.1438 14.7776 11.1749C14.8665 11.2193 14.9465 11.2948 14.9909 11.4237C15.031 11.557 14.9909 11.6726 14.9376 11.7703C14.8887 11.8547 14.8221 11.9214 14.7688 11.9614L14.9465 12.1303C15.2709 12.0414 15.5242 11.9614 15.7331 11.8903C15.6887 11.8547 15.6442 11.8103 15.5999 11.7526C15.5286 11.6637 15.462 11.5614 15.4309 11.4415ZM14.511 11.1881L14.551 11.0149L14.4087 11.0371L14.3732 11.2859C14.4443 11.2815 14.5332 11.2859 14.6132 11.317C14.7066 11.3526 14.7954 11.4237 14.8176 11.557C14.8176 11.637 14.7731 11.8059 14.5598 11.9392C14.5954 12.0102 14.6666 12.1259 14.7377 12.1926L14.8887 12.1481L14.6842 11.957L14.7109 11.9392C14.7643 11.9037 14.8398 11.8326 14.8887 11.7437C14.9421 11.6548 14.9732 11.5481 14.9331 11.4415C14.9201 11.3954 14.8974 11.3527 14.8669 11.3159C14.8363 11.2792 14.7983 11.2493 14.7554 11.2281C14.6907 11.1958 14.6188 11.1805 14.5466 11.1837L14.511 11.1881ZM14.6754 12.2103C14.5645 12.2391 14.4534 12.2672 14.3421 12.2947L14.151 12.0014H14.111L14.2621 11.8326L14.4931 11.917L14.5021 11.9437C14.5287 11.997 14.5998 12.1259 14.6754 12.2103ZM14.511 11.9082C14.7243 11.7837 14.7643 11.6237 14.7643 11.5659C14.7577 11.5194 14.7378 11.4759 14.707 11.4405C14.6763 11.4049 14.6361 11.379 14.591 11.3659C14.5123 11.3395 14.4286 11.332 14.3466 11.3437H14.311L14.3554 11.0504C14.2543 11.0664 14.1537 11.0842 14.0533 11.1038V11.4415L14.031 11.4503C13.9777 11.4637 13.8977 11.4993 13.831 11.557C13.7644 11.6103 13.7199 11.6814 13.7243 11.7703C13.7333 11.8547 13.7955 11.9126 13.8799 11.9481C13.9555 11.9792 14.0354 11.9926 14.1021 12.0014L14.0754 11.757L13.9154 11.6681L14.0977 11.5436L14.1688 11.3125L14.271 11.4993H14.5199L14.391 11.6681L14.511 11.9082ZM14.2888 12.3081L14.1554 12.3347L14.031 12.157H14.0177C13.9066 12.1303 13.7955 12.0948 13.7066 12.037C13.6563 12.007 13.6133 11.9663 13.5803 11.918C13.5473 11.8697 13.5251 11.8147 13.5155 11.757C13.5082 11.712 13.5125 11.666 13.5281 11.6232C13.5437 11.5805 13.5699 11.5423 13.6044 11.5126C13.6665 11.4459 13.7509 11.4059 13.8087 11.3881L13.831 11.3837V11.157L13.9998 11.1126V11.397C13.9377 11.4192 13.8621 11.4548 13.7955 11.5082C13.7243 11.5704 13.6621 11.6548 13.671 11.7658C13.68 11.8814 13.7644 11.9525 13.8577 11.9926C13.9466 12.0326 14.0488 12.0458 14.1243 12.0503L14.2888 12.3036V12.3081ZM17.1287 6.84179C17.1158 6.83473 17.1045 6.82521 17.0952 6.81378C17.0861 6.80234 17.0794 6.7892 17.0752 6.77512C17.0655 6.73964 17.0687 6.70184 17.0841 6.66846C17.1108 6.59735 17.2086 6.51736 17.453 6.51736C17.6886 6.51736 17.8219 6.62402 17.8975 6.73512C17.9731 6.85068 17.9864 6.97066 17.9864 7.00177C17.9864 7.05955 17.9731 7.36619 17.6886 7.52174C17.5419 7.60618 17.4442 7.64617 17.3731 7.65506C17.347 7.66246 17.3197 7.66398 17.293 7.65951C17.28 7.65635 17.2678 7.65027 17.2576 7.64173V7.63284C17.2332 7.58157 17.1979 7.53628 17.1541 7.50018C17.1103 7.46408 17.0591 7.43806 17.0042 7.42397C17.0486 7.44618 17.1375 7.51285 17.1686 7.58396C17.1127 7.56557 17.0542 7.55656 16.9953 7.55729C16.8263 7.55729 16.7019 7.63284 16.6219 7.72617C16.5463 7.81505 16.5064 7.92616 16.4931 7.99727C16.4798 8.09504 16.4798 8.2417 16.542 8.36169C16.5775 8.42391 16.6219 8.48169 16.6931 8.52169C16.7598 8.56612 16.8487 8.58834 16.9597 8.58834C17.0931 8.58834 17.1864 8.56612 17.2576 8.52613C17.3197 8.49502 17.3641 8.45058 17.4042 8.40613L17.4175 8.39725C17.462 8.35281 17.5064 8.30836 17.5775 8.27724C17.7582 8.21094 17.9558 8.20732 18.1388 8.26697C18.3218 8.32662 18.4794 8.44607 18.5863 8.60613C18.7463 8.82833 18.8352 9.09942 18.8352 9.32163C18.8352 9.49939 18.7685 9.70384 18.6841 9.89493C18.5952 10.086 18.493 10.2505 18.4263 10.3528C18.3572 10.4644 18.2768 10.5686 18.1864 10.6638C18.1419 10.7127 18.0886 10.7572 18.0352 10.7883C17.9939 10.8192 17.9445 10.8378 17.893 10.8416C17.8553 10.8427 17.8177 10.8362 17.7827 10.8225C17.7475 10.8087 17.7155 10.788 17.6886 10.7616L17.6752 10.7527C17.6416 10.7251 17.6042 10.7027 17.5642 10.686C17.4998 10.6598 17.4304 10.6486 17.361 10.6533C17.2918 10.6578 17.2244 10.6782 17.1642 10.7127C16.9738 10.8382 16.8056 10.9943 16.6664 11.1749L16.4087 11.6058C16.3547 11.6437 16.2966 11.675 16.2353 11.6992C15.9287 11.3125 15.942 11.0061 15.982 10.8994L16.3375 10.8949C16.4443 10.9127 16.6931 10.8861 16.8397 10.6238C16.9286 10.4682 17.0175 10.3572 17.0931 10.2727C17.1553 10.2149 17.2086 10.1749 17.2576 10.1572L17.2442 10.1616C17.8885 10.1305 17.8619 9.4194 17.7685 9.06386C17.8397 9.69939 17.6308 9.97048 17.462 10.0549C17.4928 10.0208 17.5166 9.98075 17.532 9.9372C17.5472 9.89372 17.5536 9.84761 17.5508 9.8016C17.5508 9.70384 17.5376 9.5794 17.4796 9.47718C17.4508 9.42017 17.406 9.37268 17.351 9.34038C17.2958 9.30807 17.2324 9.29231 17.1686 9.29496C17.1063 9.29159 17.0443 9.30709 16.9908 9.33941C16.952 9.36616 16.9212 9.40306 16.9019 9.44607L16.8663 9.54383L16.8575 9.57495C16.8397 9.6194 16.822 9.65939 16.7952 9.69495C16.7775 9.7216 16.7331 9.73049 16.662 9.7216C16.5756 9.70675 16.4919 9.67982 16.4131 9.64161C16.2309 9.55717 16.0264 9.42385 15.9064 9.30385C15.7223 9.09504 15.6197 8.82676 15.6175 8.54834C15.671 8.65056 15.782 8.79722 15.9776 8.93499C15.8083 8.78418 15.6825 8.59084 15.613 8.37502C15.613 8.25059 15.6265 8.1217 15.6442 7.98394C15.7331 7.37507 16.1775 6.97066 16.6043 6.97066C16.7755 6.96463 16.9454 7.00289 17.0975 7.08178H17.1063L17.1642 7.11289C17.2086 7.12621 17.2486 7.13954 17.2975 7.13954C17.3864 7.13954 17.453 7.1351 17.502 7.10398C17.5508 7.07733 17.573 7.02399 17.573 6.95289C17.653 6.75735 17.5197 6.59735 17.4397 6.53958C17.4841 6.59735 17.5642 6.73512 17.5597 6.86844C17.5478 6.84213 17.5294 6.81921 17.5064 6.80179C17.4755 6.77764 17.4386 6.76228 17.3997 6.75735H17.3908C17.3552 6.69067 17.2708 6.68179 17.2308 6.68624C17.2752 6.69512 17.3508 6.73068 17.3641 6.78845C17.3429 6.82283 17.3096 6.84814 17.2708 6.85956C17.2243 6.8707 17.1753 6.86437 17.1331 6.84179H17.1287ZM15.9199 10.8994C15.8754 11.0416 15.8931 11.3481 16.1819 11.7214L15.9642 11.8103C15.9062 11.7651 15.8539 11.7129 15.8087 11.6548C15.7429 11.5742 15.6959 11.4802 15.671 11.3793C15.6265 11.1838 15.6665 10.9971 15.6976 10.9082L15.9199 10.8994ZM9.78241 11.8858L9.29358 11.9659C9.29358 12.037 9.33796 12.1658 9.49797 12.2325C9.60903 12.2192 9.77349 12.2103 9.9557 12.2058C9.86392 12.1214 9.80295 12.0088 9.78241 11.8858ZM9.83572 11.877C9.8491 11.957 9.90239 12.1125 10.0403 12.2014C10.1661 12.1986 10.292 12.1986 10.4179 12.2014L10.7469 12.1792L10.7024 11.7792C10.3825 11.8059 10.0935 11.8414 9.83572 11.877ZM10.7557 11.7748L10.8001 12.1747L11.489 12.1347C11.5246 12.0682 11.5378 11.9926 11.5423 11.9214C11.5423 11.8414 11.5335 11.7703 11.5201 11.7303C11.2535 11.7392 10.9957 11.7526 10.7557 11.7748ZM11.4534 12.5791L11.4179 12.2591L10.8091 12.2503L10.818 12.5702C11.0179 12.5791 11.2313 12.5836 11.4534 12.5791ZM10.7646 12.5658L10.7513 12.2548L10.6491 12.2503C10.4758 12.2539 10.3024 12.2539 10.1291 12.2503L10.0891 12.3658C10.0789 12.4035 10.0745 12.4425 10.0757 12.4814C10.2847 12.517 10.5157 12.5481 10.7646 12.5658ZM10.0224 12.4681C10.0224 12.4326 10.0269 12.388 10.0358 12.3525L10.0669 12.2548C9.8859 12.2598 9.70516 12.2687 9.52462 12.2814L9.55573 12.3525C9.69355 12.397 9.8491 12.437 10.0224 12.4681ZM7.19144 10.8282L7.13812 10.8238C7.29367 10.7927 7.40477 10.7127 7.48033 10.6194C7.5781 10.495 7.61366 10.3528 7.62254 10.255C7.62254 9.98386 7.51144 9.83271 7.37366 9.75716L7.36478 9.75272C7.40921 9.7616 7.44922 9.77494 7.48477 9.79271C7.56405 9.826 7.63198 9.88158 7.68031 9.95275C7.72475 10.0283 7.7603 10.1261 7.7603 10.255C7.7603 10.4194 7.7203 10.5394 7.66254 10.6238C7.60967 10.7018 7.53342 10.7609 7.44477 10.7927C7.36033 10.8238 7.27145 10.8371 7.19144 10.8282ZM6.96924 9.74383C6.91146 9.77494 6.83147 9.83271 6.76481 9.9216C6.68481 10.0106 6.62704 10.1261 6.62704 10.2682C6.62704 10.4016 6.68481 10.5216 6.76037 10.6061C6.84036 10.695 6.92925 10.7527 6.99146 10.7838C7.21367 10.7838 7.347 10.695 7.43589 10.5838C7.52477 10.4727 7.56032 10.3394 7.56921 10.2505C7.56921 9.99714 7.46699 9.86827 7.347 9.80605C7.23143 9.74891 7.10063 9.73022 6.97368 9.75272V9.74383H6.96924ZM14.1821 11.4503L14.1466 11.5747L14.0133 11.6637L14.1288 11.7259L14.1422 11.8858L14.2487 11.7658L14.4132 11.8281L14.3243 11.6593L14.4132 11.5526H14.2354L14.1821 11.4503ZM12.6577 8.65945C12.5286 8.84297 12.4588 9.06166 12.4577 9.28608C12.4577 9.45939 12.5422 9.70827 12.68 9.90826C12.8266 10.1172 13.0177 10.2682 13.2266 10.2682H13.2533C12.911 10.1305 12.6621 9.73494 12.6621 9.27719C12.6621 8.84612 12.8755 8.47724 13.1822 8.31725C12.9716 8.36393 12.7853 8.48554 12.6577 8.65945ZM12.7156 9.27719C12.7156 9.82382 13.071 10.255 13.5021 10.2682H13.5555C13.9821 10.2505 14.3376 9.82382 14.3376 9.27719C14.3376 8.71723 13.9643 8.2817 13.5244 8.2817C13.0844 8.2817 12.7111 8.71723 12.7111 9.27719H12.7156ZM13.5688 9.89049C13.6665 9.89049 13.7554 9.86382 13.8355 9.81049L13.7777 9.77494H13.7733L13.311 9.60162L13.3821 9.85049C13.4399 9.87715 13.5065 9.89493 13.5688 9.89493V9.89049ZM14.1198 9.3083C14.1034 9.48811 14.0193 9.65494 13.8843 9.77494L13.8087 9.73049L14.0222 9.44607V9.42385L14.1198 9.3083ZM14.1243 9.20609V9.21941L14.0088 9.35274L13.9377 8.80167H13.9332L13.911 8.66835C14.0443 8.79279 14.1243 8.98387 14.1243 9.20609ZM13.8754 8.77945L13.8488 8.61502C13.7644 8.55723 13.671 8.52613 13.5688 8.52613C13.4488 8.52613 13.3333 8.57057 13.24 8.65945H13.3821L13.3866 8.64167L13.8754 8.77945ZM13.0133 9.20609C13.0133 9.00609 13.0844 8.83278 13.191 8.70834H13.3465L13.1155 9.06386L13.0133 9.2283V9.20609ZM13.3154 9.81493C13.1644 9.7216 13.0489 9.5394 13.0222 9.32163L13.1333 9.13497L13.2444 9.57939L13.3154 9.81493ZM13.5688 9.9483C13.9066 9.9483 14.1821 9.61495 14.1821 9.20609C14.1821 8.80167 13.9066 8.46835 13.5688 8.46835C13.231 8.46835 12.96 8.80167 12.96 9.20609C12.96 9.61495 13.231 9.94383 13.5688 9.94383V9.9483ZM13.8888 8.83721L13.9599 9.40606L13.9643 9.42829L13.7554 9.71272L13.2888 9.53495L13.1733 9.07276L13.4133 8.70389L13.8888 8.83721ZM5.95153 6.97066L6.16485 6.78845C6.14715 6.84364 6.11671 6.89389 6.07597 6.93512C6.03882 6.95881 5.99558 6.97116 5.95153 6.97066ZM7.47143 6.2596C6.95058 6.38981 6.46981 6.64623 6.07152 7.00622L6.66704 6.65513L6.56482 6.78845C6.67148 6.72624 6.95147 6.57958 7.23145 6.49514C7.51144 6.4107 8.40026 6.06405 8.80912 5.89962L7.29811 6.36625L7.47588 6.25515L7.47143 6.2596ZM9.72465 4.41082C10.3646 4.48637 11.8712 4.77969 12.7955 5.35743L12.5289 5.09079H12.631L11.5201 4.60191L11.6622 4.7308C11.209 4.60636 10.1869 4.36637 9.72465 4.41082ZM12.3378 6.43291C12.5466 6.28181 13.0177 5.90406 13.2133 5.61964C13.0053 5.96891 12.7013 6.25117 12.3378 6.43291ZM11.5824 6.69956C11.7112 6.61068 12 6.39292 12.12 6.22849C12.0088 6.45069 11.7112 6.63735 11.5778 6.69956H11.5824Z" fill="black"/>
<path d="M16.4309 11.113C16.4087 11.0241 16.3331 11.0331 16.2975 11.0419V10.8508C16.2975 10.8153 16.2175 10.7486 16.1376 10.7531C16.0754 10.7531 16.062 10.8686 16.062 10.9263L16.1376 11.2819C16.1464 11.2908 16.2798 11.5308 16.2931 11.5397C16.3109 11.5485 16.4219 11.6286 16.4309 11.6241C16.4443 11.6152 16.3731 11.3441 16.3865 11.3263C16.409 11.2962 16.4247 11.2615 16.4323 11.2246C16.44 11.1878 16.4395 11.1497 16.4309 11.113Z" fill="#FFFF00"/>
<path fill-rule="evenodd" clip-rule="evenodd" d="M16.1376 10.9397V10.8242C16.1465 10.8151 16.1572 10.8076 16.1686 10.8018C16.1864 10.793 16.2041 10.793 16.2175 10.8018C16.2308 10.8108 16.2352 10.8197 16.2352 10.8686V10.8819L16.2396 10.9442V10.9663C16.205 10.9597 16.1709 10.9508 16.1376 10.9397ZM16.2663 11.4152C16.2312 11.344 16.2029 11.2695 16.1819 11.193V11.1886H16.1908L16.2352 11.193C16.2663 11.193 16.2974 11.1174 16.3064 11.0597L16.3285 11.0774H16.333C16.3492 11.0906 16.3642 11.1056 16.3775 11.1219C16.3908 11.1308 16.3952 11.1396 16.3996 11.153C16.3996 11.1664 16.3996 11.1841 16.3908 11.2107L16.3775 11.273C16.3685 11.2641 16.3553 11.2597 16.3464 11.2641C16.3242 11.273 16.3197 11.2951 16.3108 11.3219C16.3032 11.3546 16.288 11.385 16.2663 11.4108V11.4152ZM16.2974 11.4641C16.3252 11.5118 16.3632 11.5527 16.4086 11.5841V11.5796C16.39 11.5295 16.378 11.4773 16.373 11.4241L16.2974 11.4686V11.4641ZM16.2708 10.6998C16.2489 10.6862 16.2238 10.6786 16.1981 10.6778C16.1724 10.677 16.1468 10.683 16.1241 10.6953C16.0908 10.712 16.0618 10.7363 16.0397 10.7663L16.0308 10.7797V10.9574C16.0536 11.154 16.1108 11.345 16.1997 11.5218C16.2441 11.5975 16.2886 11.6463 16.3375 11.6774C16.3864 11.7085 16.4352 11.7219 16.4841 11.7219L16.5286 11.7175C16.5381 11.7134 16.5465 11.7073 16.5535 11.6996C16.5604 11.6919 16.5655 11.6828 16.5686 11.673C16.5774 11.6463 16.5686 11.6286 16.5686 11.6152C16.5637 11.6056 16.5577 11.5967 16.5508 11.5885C16.5423 11.5778 16.5334 11.5674 16.5241 11.5574L16.5152 11.5485L16.5064 11.5352C16.493 11.5041 16.4574 11.3707 16.493 11.2463C16.5081 11.2107 16.5125 11.1715 16.5053 11.1336C16.4982 11.0957 16.48 11.0606 16.453 11.033C16.4353 11.015 16.416 10.9986 16.3952 10.9841L16.3508 10.9486V10.9263L16.3464 10.8819V10.8686C16.3464 10.8242 16.3464 10.7441 16.2708 10.6998Z" fill="#FF9417"/>
</g>
<defs>
<linearGradient id="paint0_linear_328_55498" x1="10.5236" y1="7.14436" x2="16.6135" y2="16.1242" gradientUnits="userSpaceOnUse">
<stop offset="0.1" stop-color="#6F4214"/>
<stop offset="0.19" stop-color="#985C1B"/>
<stop offset="0.25" stop-color="#7B4915"/>
<stop offset="0.55" stop-color="#7B4915"/>
<stop offset="0.71" stop-color="#683F13"/>
</linearGradient>
<linearGradient id="paint1_linear_328_55498" x1="9.7994" y1="5.2096" x2="11.736" y2="20.0268" gradientUnits="userSpaceOnUse">
<stop stop-color="#D98C47"/>
<stop offset="0.13" stop-color="#FFC365"/>
<stop offset="0.27" stop-color="#FCA351"/>
<stop offset="0.58" stop-color="#FCA351"/>
<stop offset="0.74" stop-color="#D68B46"/>
</linearGradient>
<linearGradient id="paint2_linear_328_55498" x1="6.64163" y1="9.15892" x2="17.6987" y2="9.15892" gradientUnits="userSpaceOnUse">
<stop offset="0.53" stop-color="#B1BFD5"/>
<stop offset="0.98" stop-color="#6B7686"/>
</linearGradient>
<linearGradient id="paint3_linear_328_55498" x1="12.0357" y1="3.99997" x2="12.0357" y2="19.8779" gradientUnits="userSpaceOnUse">
<stop offset="0.36" stop-color="#F8DEAB"/>
<stop offset="1" stop-color="#F7B647"/>
</linearGradient>
<linearGradient id="paint4_linear_328_55498" x1="11.9634" y1="4.00046" x2="11.9634" y2="20.0005" gradientUnits="userSpaceOnUse">
<stop offset="0.12" stop-color="#FFDC3D"/>
<stop offset="0.39" stop-color="#FFFFC0"/>
<stop offset="1" stop-color="#CF992C"/>
</linearGradient>
<linearGradient id="paint5_linear_328_55498" x1="10.3384" y1="5.2771" x2="12.366" y2="19.9427" gradientUnits="userSpaceOnUse">
<stop stop-color="#FFC340"/>
<stop offset="0.24" stop-color="#FFE8BC"/>
<stop offset="0.57" stop-color="#F7B23D"/>
<stop offset="0.76" stop-color="#F9DFAD"/>
</linearGradient>
<linearGradient id="paint6_linear_328_55498" x1="7.92548" y1="19.2758" x2="21.5082" y2="12.7964" gradientUnits="userSpaceOnUse">
<stop stop-color="#FFC340"/>
<stop offset="0.24" stop-color="#FFE8BC"/>
<stop offset="0.57" stop-color="#F7B23D"/>
<stop offset="0.76" stop-color="#F9DFAD"/>
<stop offset="1" stop-color="#FDC33A"/>
</linearGradient>
<linearGradient id="paint7_linear_328_55498" x1="5.80088" y1="5.11759" x2="8.14042" y2="20.5669" gradientUnits="userSpaceOnUse">
<stop stop-color="#DA8E48"/>
<stop offset="0.18" stop-color="#F9BB60"/>
<stop offset="1" stop-color="#D68B46"/>
</linearGradient>
<linearGradient id="paint8_linear_328_55498" x1="5.11166" y1="6.10048" x2="7.6783" y2="20.8001" gradientUnits="userSpaceOnUse">
<stop stop-color="#ADA3A0"/>
<stop offset="1" stop-color="#706F6E"/>
</linearGradient>
<linearGradient id="paint9_linear_328_55498" x1="12.0001" y1="4.01303" x2="12.0001" y2="20.0002" gradientUnits="userSpaceOnUse">
<stop offset="0.22" stop-color="#4A576D"/>
<stop offset="0.29" stop-color="#606D84"/>
<stop offset="0.44" stop-color="#606D84"/>
<stop offset="0.5" stop-color="#48566B"/>
</linearGradient>
<linearGradient id="paint10_linear_328_55498" x1="12.0004" y1="4.00042" x2="7.43604" y2="18.6439" gradientUnits="userSpaceOnUse">
<stop offset="0.36" stop-color="#617381"/>
<stop offset="0.4" stop-color="#86999F"/>
<stop offset="0.57" stop-color="#889C9A"/>
<stop offset="0.62" stop-color="#667A7B"/>
</linearGradient>
<clipPath id="clip0_328_55498">
<rect width="24" height="24" fill="white"/>
</clipPath>
</defs>
</svg>
