<svg width="24" height="24" viewBox="0 0 24 24" fill="none" xmlns="http://www.w3.org/2000/svg">
<g clip-path="url(#clip0_328_55573)">
<path d="M24 0H0V24H24V0Z" fill="#E73558"/>
<path d="M12.0032 21C13.9228 20.9992 15.7918 20.3849 17.3373 19.2466C18.8827 18.1082 20.0238 16.5056 20.5939 14.6728C21.164 12.8398 21.133 10.8728 20.5057 9.05871C19.8786 7.24463 18.6875 5.67864 17.1071 4.58941C15.5266 3.50019 13.6393 2.94479 11.7207 3.00433C9.80216 3.06388 7.95294 3.73525 6.44306 4.92041C4.93317 6.10555 3.84173 7.74238 3.32816 9.59192C2.81456 11.4413 2.90572 13.4065 3.58834 15.2006L12.1383 6.93749L17.6282 12.2419L12.0596 17.6249L11.2552 16.8488L16.0195 12.2419L12.1383 8.48997L4.08334 16.275C5.60208 19.0874 8.58332 21 12.0032 21Z" fill="white"/>
</g>
<defs>
<clipPath id="clip0_328_55573">
<rect width="24" height="24" fill="white"/>
</clipPath>
</defs>
</svg>
