<svg width="24" height="24" viewBox="0 0 24 24" fill="none" xmlns="http://www.w3.org/2000/svg">
<g clip-path="url(#clip0_328_40875)">
<path d="M24 0H0V24H24V0Z" fill="#B3BDC7"/>
<path d="M11.4909 13.633C12.0254 13.7702 13.1441 14.0571 13.325 13.3338H13.3205V13.3293C13.5053 12.5978 12.4304 12.3465 11.8817 12.2183C11.8104 12.2016 11.7479 12.1871 11.6984 12.1738L11.3428 13.596C11.3845 13.6058 11.4345 13.6186 11.4909 13.633Z" fill="white"/>
<path d="M11.9586 11.5558C12.395 11.6713 13.3571 11.9259 13.5201 11.2619C13.689 10.5781 12.7477 10.3712 12.2972 10.2722C12.2499 10.2618 12.208 10.2526 12.1735 10.2441L11.8535 11.5285C11.8834 11.5359 11.9188 11.5453 11.9586 11.5558Z" fill="white"/>
<path fill-rule="evenodd" clip-rule="evenodd" d="M7.6007 7.60069C6.43385 8.76755 5.77832 10.3501 5.77832 12.0003C5.77832 13.6505 6.43385 15.2331 7.6007 16.4C8.76756 17.5668 10.3501 18.2223 12.0003 18.2223C13.6505 18.2223 15.2331 17.5668 16.4 16.4C17.5668 15.2331 18.2223 13.6505 18.2223 12.0003C18.2223 10.3501 17.5668 8.76755 16.4 7.60069C15.2331 6.43384 13.6505 5.77832 12.0003 5.77832C10.3501 5.77832 8.76756 6.43384 7.6007 7.60069ZM13.5027 9.7869C14.316 10.0669 14.9071 10.4891 14.7915 11.2668H14.7871C14.707 11.8401 14.3915 12.1201 13.9693 12.209C14.547 12.5157 14.8404 12.9735 14.5605 13.7734C14.2137 14.7689 13.3872 14.8489 12.2938 14.6401L12.0271 15.7067L11.3783 15.5467L11.645 14.4934L11.1294 14.3601L10.8673 15.4178L10.2272 15.2578L10.4939 14.1912L10.0361 14.0712L9.19616 13.8623L9.51615 13.1291C9.51615 13.1291 9.99172 13.2535 9.9828 13.2401C10.165 13.2889 10.2451 13.169 10.2762 13.0935L10.6983 11.4046L10.7695 11.4224L10.7028 11.4001L11.0005 10.1913C11.0049 10.058 10.9606 9.88911 10.7028 9.82246C10.7073 9.81801 10.2317 9.7069 10.2317 9.7069L10.4049 9.01803L11.2939 9.24025V9.2447L11.6983 9.34246L11.9649 8.28473L12.6094 8.44473L12.3516 9.48024L12.8626 9.60023L13.1205 8.57361L13.7649 8.7336L13.5027 9.7869Z" fill="white"/>
<path d="M4.00098 11.9992L4.00543 11.7014L5.4676 10.8792C5.41426 11.1815 5.38315 11.497 5.37872 11.8125L4.0232 12.6125C4.00988 12.4081 4.00098 12.2037 4.00098 11.9992ZM4.12542 13.3991C4.16987 13.6525 4.2232 13.9013 4.29431 14.1502L5.52093 13.4259C5.4676 13.177 5.43204 12.9192 5.40538 12.6614L4.12542 13.3991ZM4.83651 15.5546C4.72195 15.3301 4.61814 15.1002 4.52541 14.8657L5.72537 14.1725C5.80981 14.408 5.90314 14.6392 6.00535 14.8657L4.83206 15.5546H4.83651ZM5.19206 16.199C5.32538 16.4213 5.47649 16.6345 5.63203 16.839L6.80088 16.1546C6.64235 15.9527 6.49545 15.7421 6.3609 15.5235L5.19206 16.199ZM6.67644 17.9679C6.47645 17.7901 6.28979 17.6079 6.11202 17.4123L7.29864 16.7279C7.48529 16.9145 7.68085 17.0924 7.88528 17.2612L6.67644 17.9679ZM7.28975 18.4657C7.49863 18.6168 7.71196 18.7589 7.92973 18.8878L9.24967 18.1145C9.00968 17.999 8.77859 17.8746 8.55637 17.7368L7.28975 18.4657ZM9.79633 19.6922C9.42301 19.5857 9.06302 19.4523 8.71637 19.2923L10.1607 18.4613C10.5741 18.5901 11.0052 18.6745 11.4496 18.7189L9.79633 19.6922ZM10.8985 19.9234C12.662 20.1692 14.457 19.8196 15.9994 18.9301C17.5417 18.0405 18.7433 16.6619 19.4137 15.0125L17.4939 16.1235L17.1916 16.4613C17.0449 16.6257 16.8894 16.7857 16.7294 16.9369C16.365 17.2923 15.9294 17.679 15.525 17.9145C14.5783 18.4789 12.854 18.7989 12.854 18.7989L10.8985 19.9234ZM18.3205 14.6791L19.796 13.8125C19.8715 13.4881 19.9293 13.1502 19.9604 12.8125L18.6937 13.5414C18.6049 13.9369 18.476 14.3191 18.316 14.6835L18.3205 14.6791ZM20.0004 11.8037L18.8538 12.4747C18.8696 12.2485 18.8739 12.0214 18.8672 11.7948L19.9604 11.1637C19.9827 11.377 19.9959 11.5859 20.0004 11.8037ZM18.7738 10.8659L19.8093 10.2527C19.7649 10.0392 19.7071 9.82595 19.6405 9.61707L18.6271 10.2037C18.6849 10.417 18.7338 10.6393 18.7738 10.8659ZM19.3338 8.79488L18.3383 9.38152C18.2493 9.17709 18.1605 8.98155 18.0538 8.786L19.0493 8.20824C19.1515 8.40379 19.2449 8.59488 19.3338 8.79488ZM17.596 8.06158L18.596 7.47049C18.4805 7.30161 18.3561 7.13272 18.2227 6.97273L17.2005 7.56382C17.3383 7.72381 17.4672 7.88824 17.596 8.06158ZM17.6316 6.31497L16.5738 6.93717C16.4095 6.79051 16.2361 6.65273 16.0539 6.52385L17.1605 5.88832C17.3205 6.02165 17.4805 6.16831 17.6316 6.31497ZM15.2361 6.02165L16.4138 5.32834C16.2347 5.20989 16.0509 5.09869 15.8628 4.99502L14.5783 5.72389C14.8005 5.81277 15.0228 5.91054 15.2361 6.02165ZM14.925 4.55504L13.4673 5.39945C13.0762 5.31501 12.6718 5.27057 12.2585 5.26612L14.0539 4.2706C14.3517 4.3506 14.645 4.44393 14.925 4.55504ZM4.08987 10.8038L5.72093 9.86595C5.87519 9.40369 6.07934 8.95961 6.32979 8.54156L4.35653 9.6304C4.23815 10.0142 4.14901 10.4065 4.08987 10.8038ZM12.7429 4.03506C11.1167 3.88233 9.48285 4.23101 8.06072 5.03424C6.63859 5.83746 5.49639 7.05674 4.78763 8.52823L7.18753 7.17717C7.18753 7.17717 8.01861 6.36385 8.66304 6.00387C9.30301 5.64389 10.4229 5.34612 10.4229 5.34612L12.7429 4.03506Z" fill="white"/>
</g>
<defs>
<clipPath id="clip0_328_40875">
<rect width="24" height="24" fill="white"/>
</clipPath>
</defs>
</svg>
