<svg width="24" height="24" viewBox="0 0 24 24" fill="none" xmlns="http://www.w3.org/2000/svg">
<g clip-path="url(#clip0_328_55856)">
<path d="M24 0H0V24H24V0Z" fill="#BE1F3D"/>
<path d="M3.19741 4.46941C4.53871 4.98039 4.74193 5.86878 4.74193 12.0526C4.74193 18.2365 4.61419 18.6429 3.12193 19.4268C3.03483 19.4849 3 19.5661 3 19.5661C3.08129 19.7578 4.55612 19.8043 7.91807 19.8043C12.5923 19.8043 13.1207 19.7694 12.3773 19.3629C11.9036 19.1118 11.5109 18.7314 11.2451 18.2655C10.8212 17.2785 10.8968 6.69329 11.28 5.63071C11.6341 4.77716 11.582 4.74233 13.0335 4.87588C16.1864 5.25329 17.6033 6.99523 17.6033 10.6185C17.6033 13.1442 16.9645 14.5784 15.3734 15.8095C14.5955 16.3901 14.2704 17.0055 14.0962 18.2365L13.8582 19.8392H21V17.8939C21 16.0127 20.9651 15.9778 20.431 16.6978C19.9722 17.3481 19.5832 17.4526 17.6033 17.4526C15.3387 17.4526 14.5955 17.0055 16.1863 16.6282C17.4639 16.3203 19.2639 14.7527 19.7982 13.452C20.5412 11.7798 20.4368 8.94619 19.5484 7.57588C17.7077 4.67264 16.0935 4.12683 8.4871 4.16168C4.73032 4.16168 2.69806 4.26619 3.19741 4.46941ZM8.59161 5.3578C8.69612 5.66556 8.80645 8.70813 8.80645 12.1515C8.80645 17.1449 8.69612 18.4745 8.3071 18.7823C7.32 19.5661 6.84387 18.0622 6.84387 11.9888C6.84387 6.51911 7.27935 4.812 8.06322 4.812C8.23741 4.812 8.4871 5.05006 8.58582 5.3578H8.59161Z" fill="white"/>
</g>
<defs>
<clipPath id="clip0_328_55856">
<rect width="24" height="24" fill="white"/>
</clipPath>
</defs>
</svg>
