<svg width="24" height="24" viewBox="0 0 24 24" fill="none" xmlns="http://www.w3.org/2000/svg">
<g clip-path="url(#clip0_328_42591)">
<path d="M24 0H0V24H24V0Z" fill="#6FBC20"/>
<path d="M10.3752 4.58696V3.03803C10.3752 3.02857 10.3752 3.01908 10.3847 3.00962C10.3884 3.00619 10.3929 3.00358 10.3978 3.00195C10.4028 3.00032 10.4078 2.9997 10.4131 3.00014H11.5262V5.52013C10.1868 5.66314 8.91957 6.19871 7.88358 7.05958C6.9088 7.86756 6.18904 8.94071 5.8114 10.1492C5.43375 11.3576 5.4144 12.6497 5.75567 13.869C6.09693 15.0882 6.7842 16.1824 7.73434 17.0192C8.68447 17.8561 9.85681 18.3997 11.1094 18.5842C11.223 18.6031 11.4172 18.6175 11.5262 18.622V21H10.4179C10.3893 21 10.3704 20.9858 10.3704 20.9574V19.6121C10.3704 19.5884 10.3609 19.5742 10.3372 19.5647C8.63125 19.1601 7.11467 18.1848 6.03872 16.8005C4.96277 15.4162 4.39201 13.7057 4.42097 11.9528C4.45388 10.2477 5.0538 8.60216 6.126 7.27605C7.19821 5.94994 8.68163 5.01878 10.342 4.6296C10.3657 4.62486 10.3752 4.61065 10.3752 4.58696ZM13.6387 19.6168V20.9574C13.6387 20.9858 13.6245 21 13.5962 21H12.4736V18.622C13.6146 18.5198 14.7098 18.1241 15.6527 17.4734C16.5957 16.8225 17.3541 15.9391 17.8545 14.9085C18.4083 13.7301 18.6015 12.4147 18.4102 11.1271C18.2188 9.83944 17.6516 8.63697 16.7793 7.67062C15.6575 6.44834 14.1245 5.68267 12.4736 5.52013V3.00014H13.6246L13.6341 3.00487L13.6387 3.01435V4.57275C13.6387 4.59643 13.6482 4.61065 13.6719 4.61538C14.7546 4.86252 15.7695 5.34557 16.6439 6.03008C17.5184 6.71461 18.231 7.58369 18.7309 8.57535C19.6003 10.2658 19.8112 12.2188 19.3229 14.0558C18.9852 15.3767 18.2961 16.5812 17.3287 17.5421C16.3275 18.5504 15.0613 19.2549 13.6766 19.5742C13.653 19.579 13.6387 19.5931 13.6387 19.6215V19.6168Z" fill="white"/>
<path d="M13.1549 7.49064C13.1456 7.32689 13.183 7.16385 13.2625 7.02048C13.3423 6.8771 13.4609 6.75927 13.6048 6.68066C13.6121 6.68126 13.619 6.68465 13.6239 6.69014L13.6285 6.70433C13.6495 6.86903 13.6169 7.03609 13.5359 7.181C13.455 7.32591 13.3297 7.44107 13.1785 7.5096H13.169C13.1652 7.50797 13.162 7.50536 13.1594 7.50203C13.1569 7.49871 13.1553 7.49478 13.1549 7.49064ZM10.815 6.75171C10.9271 6.95818 10.9701 7.19517 10.9377 7.42791C10.9053 7.66065 10.7992 7.87688 10.6349 8.04486C10.6286 8.0467 10.6218 8.04628 10.6157 8.04369C10.6097 8.04109 10.6047 8.03649 10.6018 8.03064C10.3981 7.58539 10.4549 7.15435 10.7723 6.74697C10.7864 6.72803 10.8007 6.72803 10.8101 6.74697L10.815 6.75171ZM12.899 7.26802C12.9179 7.4196 12.9796 7.53328 13.0318 7.52854C13.079 7.51908 13.1029 7.38644 13.079 7.24435C13.0554 7.08803 12.9986 6.97434 12.9464 6.98381C12.899 6.99329 12.8707 7.12119 12.899 7.26802ZM10.9664 7.69907C10.9996 7.36275 11.2365 7.0975 11.5538 6.98855C11.5775 6.98381 11.587 6.98855 11.5822 7.01697C11.5349 7.38644 11.3407 7.62328 10.9996 7.72749C10.9959 7.72919 10.9919 7.73009 10.9878 7.73009C10.9837 7.73009 10.9797 7.72919 10.976 7.72749C10.9719 7.72411 10.9688 7.71966 10.9672 7.71463C10.9654 7.70961 10.9653 7.70421 10.9664 7.69907ZM13.4912 7.37224C13.544 7.2667 13.6274 7.17953 13.7305 7.12208C13.8335 7.06463 13.9516 7.03955 14.069 7.05014C14.0737 7.05209 14.0775 7.05544 14.08 7.05969C14.0825 7.06393 14.0838 7.06887 14.0833 7.07381V7.08803C13.9554 7.31065 13.766 7.4196 13.5149 7.40539C13.4912 7.40539 13.4864 7.39118 13.4912 7.37224ZM15.5043 7.36749C15.5896 7.77486 15.457 8.09697 15.1207 8.33854C15.0968 8.35275 15.0779 8.34802 15.0732 8.31959C14.9928 7.92643 15.1728 7.59486 15.4711 7.35803C15.4901 7.33908 15.5043 7.34381 15.509 7.36749H15.5043ZM10.1471 7.4717L10.3885 7.70381L10.4075 7.73697L10.4834 8.06381C10.4865 8.07713 10.4855 8.09112 10.4803 8.10384C10.4753 8.11657 10.4663 8.1274 10.4549 8.13486C10.4425 8.1433 10.4276 8.14698 10.4128 8.14524C10.3981 8.1435 10.3843 8.13645 10.3744 8.12538L10.1422 7.88853C10.1353 7.88036 10.1304 7.87061 10.1281 7.86013L10.0381 7.53803C10.0348 7.52469 10.0358 7.51071 10.041 7.49798C10.0462 7.48525 10.0549 7.47442 10.0664 7.46697C10.0786 7.45879 10.093 7.45482 10.1076 7.45569C10.1221 7.45653 10.1359 7.46218 10.1471 7.4717ZM14.1212 7.68486C13.8512 7.85065 13.4628 7.86486 13.2212 7.62328C13.2068 7.60433 13.2068 7.58539 13.2354 7.57592C13.3762 7.50437 13.534 7.47356 13.6915 7.48695C13.8488 7.50034 13.9993 7.55741 14.126 7.65171L14.1307 7.66592C14.1307 7.66959 14.1298 7.67321 14.1281 7.6765C14.1265 7.67979 14.1241 7.68266 14.1212 7.68486ZM14.5332 7.64224C14.5522 7.60433 14.5807 7.60433 14.6043 7.64224C14.7607 7.83763 14.8516 8.07719 14.8643 8.32708C14.8771 8.57699 14.811 8.82458 14.6753 9.03486C14.6689 9.03924 14.661 9.04116 14.6531 9.04031C14.6455 9.03944 14.6382 9.03583 14.6327 9.03011C14.3296 8.63222 14.3011 8.17275 14.5379 7.64697L14.5332 7.64224ZM10.7201 8.11592C11.0233 7.73697 11.4496 7.63749 11.9233 7.73697C11.947 7.74171 11.9517 7.75592 11.9375 7.77486C11.6296 8.16327 11.227 8.2959 10.7343 8.16327C10.706 8.15854 10.7012 8.1396 10.7201 8.11592ZM9.10963 8.14432C9.11437 8.33854 9.17121 8.49959 9.23753 8.49959C9.30858 8.49959 9.36068 8.33854 9.35595 8.1396C9.35595 7.94538 9.29437 7.78433 9.22805 7.78433C9.16173 7.78433 9.10964 7.94538 9.11437 8.14432H9.10963ZM11.9612 8.56591C11.947 8.22011 12.1128 7.95486 12.397 7.77486C12.4254 7.75592 12.4443 7.76538 12.4443 7.80328C12.4595 7.96307 12.4265 8.12377 12.3498 8.26473C12.273 8.40567 12.1559 8.52044 12.0132 8.59432C11.9801 8.61328 11.966 8.60381 11.9612 8.56591ZM8.82069 8.12538C8.90122 8.24381 8.99595 8.31486 9.03858 8.29117C9.08121 8.26275 9.04805 8.14432 8.96754 8.02117C8.887 7.90275 8.79227 7.8317 8.74964 7.85538C8.707 7.88381 8.74015 8.00222 8.82069 8.12538Z" fill="white"/>
<path d="M12.9803 12.631C13.4824 12.4888 13.9276 12.0577 14.0176 11.551C14.0935 11.1104 13.814 10.8878 13.6672 10.5232C13.5478 10.2431 13.4943 9.93962 13.5107 9.63573C13.5271 9.33189 13.6131 9.03586 13.7618 8.77043C13.8187 8.67569 13.8282 8.67569 13.7951 8.78464C13.5582 9.56621 13.7713 10.291 14.2118 10.9541C14.2308 10.9778 14.245 10.9778 14.264 10.9541L14.7946 10.3289C14.7969 10.3245 14.7983 10.3196 14.7983 10.3147C14.7983 10.3096 14.7969 10.3048 14.7946 10.3004L14.7897 10.291C14.6606 10.2025 14.56 10.0783 14.5003 9.93366C14.4405 9.78898 14.4242 9.63002 14.4535 9.47621C14.4582 9.42885 14.4676 9.42885 14.4724 9.47621C14.515 9.76041 14.6429 9.98777 14.8513 10.1536C14.875 10.1678 14.894 10.163 14.8986 10.1393C15.1213 9.65148 14.8986 9.15411 15.0171 8.67096L15.0124 8.62359C15.0101 8.61745 15.0101 8.61077 15.0124 8.60465C15.0263 8.92364 15.0691 9.24072 15.1402 9.552C15.2113 9.88832 15.1639 10.1678 14.9981 10.4425C14.8212 10.7339 14.6097 11.0026 14.3681 11.243C14.3615 11.2499 14.3563 11.258 14.353 11.267C14.3496 11.276 14.3485 11.2856 14.3492 11.2951V11.6126C14.3496 11.6167 14.3513 11.6206 14.3538 11.6239C14.3563 11.6272 14.3596 11.6297 14.3635 11.6315L14.3729 11.6362H14.3871C14.7681 11.4775 15.1082 11.2346 15.3818 10.9258C15.484 10.7875 15.6214 10.6794 15.7798 10.6127C15.9382 10.5461 16.1117 10.5233 16.2818 10.5468C16.3292 10.5562 16.3292 10.5657 16.2818 10.5799L16.1729 10.6178C16.1446 10.6273 16.1397 10.6415 16.154 10.6651C16.2392 10.8072 16.2581 10.9589 16.2107 11.1199C16.2083 11.1272 16.204 11.1337 16.1981 11.1388C16.1923 11.1437 16.1852 11.147 16.1776 11.1483C16.1687 11.1507 16.1593 11.1501 16.1509 11.1466C16.1423 11.1433 16.1351 11.1372 16.1302 11.1293C16.0846 11.0695 16.0524 11.0002 16.0361 10.9266C16.0197 10.853 16.0195 10.7767 16.0355 10.703C16.045 10.6699 16.0355 10.6651 16.0071 10.6793C15.8059 10.7857 15.6374 10.9444 15.5192 11.1388C15.5186 11.1426 15.5194 11.1464 15.521 11.1498C15.5228 11.1532 15.5254 11.156 15.5286 11.1578H15.5381C15.704 11.1672 15.8555 11.2147 15.9976 11.2999C16.24 11.463 16.5308 11.5381 16.8218 11.513C16.9544 11.494 16.9639 11.513 16.8407 11.5793C16.6846 11.6599 16.5233 11.6741 16.3482 11.6173C16.1586 11.5557 15.9692 11.4847 15.7655 11.3946C15.5572 11.2999 15.3724 11.3282 15.1686 11.4277C14.9129 11.5557 14.6476 11.7121 14.3635 11.911C14.2686 11.9772 14.1835 12.0672 14.1076 12.181C13.9038 12.46 13.652 12.7006 13.364 12.8915C13.1982 13.0099 13.0229 13.0999 12.9092 13.2751C12.2935 14.2321 12.4308 15.6197 12.6486 16.6857C12.6486 16.6951 12.6486 16.6997 12.6582 16.7046C12.6629 16.7092 12.6724 16.714 12.6771 16.7093C14.406 16.5008 15.9455 15.4683 16.656 13.8577C16.6607 13.8482 16.6703 13.8436 16.6797 13.8482C16.6846 13.8482 16.6891 13.853 16.6846 13.8625C15.8176 17.3392 11.6492 18.694 8.97294 16.3067C8.24216 15.6509 7.7311 14.7858 7.50928 13.8293H7.52347C8.234 15.4683 9.82554 16.5293 11.5592 16.714C11.5924 16.714 11.6066 16.7046 11.6066 16.6714C11.6492 15.7903 11.6682 14.9092 11.654 14.0378C11.654 13.673 11.6303 13.3367 11.5924 13.0288C11.5803 12.9202 11.5299 12.8195 11.4503 12.7447C11.2087 12.5267 11.0051 12.2993 10.844 12.0577C10.8394 12.0496 10.8324 12.0429 10.8239 12.0388C10.8155 12.0345 10.806 12.0329 10.7966 12.0341C10.4318 12.0815 10.1003 12.1999 9.80191 12.3988C9.55557 12.5599 9.30452 12.5882 9.04399 12.4888L9.03453 12.4793V12.4651C9.03453 12.4604 9.03453 12.4556 9.04399 12.451H9.05348C9.18428 12.4589 9.31529 12.4389 9.43779 12.3925C9.5603 12.3459 9.67148 12.2738 9.764 12.181C9.76546 12.1776 9.76614 12.1738 9.76603 12.1702C9.7658 12.1664 9.76479 12.1628 9.76288 12.1595C9.76108 12.1563 9.75849 12.1535 9.75534 12.1516C9.7523 12.1495 9.74874 12.1482 9.74503 12.1478C9.60837 12.0958 9.48643 12.0112 9.38977 11.9015C9.21849 11.7207 8.99178 11.6024 8.74558 11.5651C8.70768 11.5557 8.70768 11.5462 8.74558 11.5367C9.31873 11.371 9.54136 12.1383 10.1146 12.0388C10.2946 12.0057 10.4793 11.9582 10.664 11.8919C10.6972 11.8778 10.6972 11.8588 10.6735 11.8399C10.1512 11.3825 9.51704 11.0719 8.83558 10.9399C8.3761 10.8594 7.9498 10.6083 7.79347 10.1393C7.76507 10.0589 7.77927 10.0541 7.83138 10.1157C8.11558 10.4425 8.49452 10.613 8.98242 10.6273C9.01557 10.6273 9.02031 10.6178 9.00609 10.5847C8.89681 10.3623 8.84163 10.1171 8.84505 9.86931C8.85261 9.4497 8.70598 9.04185 8.43295 8.72307C8.40925 8.69937 8.414 8.6899 8.44716 8.69937C8.75031 8.79411 8.91137 9.07358 8.98242 9.38147C9.02978 9.61358 9.07716 9.84568 9.11031 10.0778C9.17663 10.5657 9.44662 10.8121 9.85873 11.0346C10.0791 11.1502 10.3052 11.2545 10.5361 11.3472C10.5394 11.3453 10.5421 11.3426 10.5437 11.3392C10.5453 11.3359 10.5461 11.332 10.5457 11.3282C10.4794 10.9457 10.5054 10.5527 10.6213 10.1819C10.6245 10.1717 10.6254 10.1608 10.6237 10.1502C10.6222 10.1394 10.618 10.1293 10.6119 10.1204C10.4224 9.82678 10.2329 9.60885 10.0435 9.47147C9.72609 9.23465 9.35662 9.06886 9.38977 8.5999C9.38977 8.58096 9.39452 8.58096 9.39925 8.5999C9.49399 8.85569 9.67399 9.04043 9.93455 9.15411C9.96763 9.16832 9.98191 9.15885 9.98191 9.12096C9.97235 8.99305 9.98664 8.86517 10.0293 8.74201C10.1287 8.47675 10.1429 8.2257 10.0671 7.99359C10.0482 7.93676 10.0576 7.93201 10.0955 7.97465C10.3229 8.22096 10.2093 8.60464 10.1429 8.89832C10.105 9.0878 10.1429 9.25358 10.2519 9.41464C10.3797 9.59348 10.5274 9.75714 10.6924 9.90249C10.6987 9.90463 10.7053 9.90542 10.7119 9.90463C10.7185 9.90384 10.7248 9.90148 10.7303 9.89788C10.8902 9.54983 10.9556 9.16589 10.9197 8.78464C10.9057 8.68043 10.8724 8.58097 10.8535 8.47675C10.8487 8.43886 10.8535 8.43886 10.8772 8.46728C11.0571 8.72307 11.1377 8.99306 11.1235 9.27253C11.1048 9.58206 11.0344 9.88618 10.9151 10.1725C10.9166 10.1795 10.9202 10.1858 10.9251 10.1908C10.9302 10.1958 10.9365 10.1994 10.9435 10.2008H10.9624C11.5687 9.98777 11.9951 9.4999 11.9098 8.81307V8.80832H11.9335C12.0757 9.42885 11.9003 9.90722 11.4029 10.2388C11.2513 10.3336 11.0855 10.4189 10.9008 10.4757C10.8535 10.4899 10.8297 10.5232 10.8203 10.5704C10.7966 10.7457 10.7966 10.9162 10.8203 11.0868C10.8297 11.1436 10.8582 11.1578 10.9103 11.1293C11.1946 10.973 11.4976 10.9921 11.8008 11.191C11.8048 11.1937 11.808 11.1973 11.8105 11.2013C11.813 11.2054 11.8145 11.2099 11.815 11.2147C11.8152 11.2202 11.814 11.2257 11.8115 11.2307C11.809 11.2356 11.8053 11.2399 11.8008 11.243C11.5357 11.4088 11.2513 11.4277 10.9435 11.2904C10.9057 11.2762 10.8961 11.2857 10.9151 11.3237C11.024 11.5319 11.1613 11.7072 11.3318 11.8588C11.7772 12.2472 12.1657 12.593 12.2366 13.2182C12.2366 13.2468 12.2461 13.2468 12.2603 13.223C12.3455 13.0715 12.4592 12.9388 12.6062 12.8393C12.6253 12.8258 12.6388 12.8056 12.644 12.7826L12.7435 12.361C12.7529 12.3372 12.7435 12.323 12.715 12.3136C12.4881 12.3002 12.2706 12.2179 12.092 12.0771C11.9132 11.9366 11.7819 11.7447 11.7155 11.5272C11.6918 11.461 11.7014 11.461 11.7346 11.5178C11.8354 11.6936 11.9781 11.8418 12.1499 11.9492C12.3218 12.0566 12.5176 12.12 12.7197 12.1336L12.7293 12.124C12.7347 12.1192 12.7381 12.1124 12.7387 12.1051C12.7057 11.8873 12.5776 11.7878 12.4357 11.6457C12.1419 11.3615 12.085 10.9682 12.2176 10.5704C12.2414 10.5088 12.2461 10.5136 12.2414 10.5704C12.2129 10.9258 12.3029 11.281 12.5682 11.5272L12.7435 11.6978C12.9803 11.9251 13.0372 12.2899 12.9518 12.6072C12.9518 12.631 12.9518 12.6404 12.9803 12.6357V12.631Z" fill="white"/>
<path d="M13.1877 7.97346L13.5192 8.16766L13.5477 8.20082L13.6994 8.51818C13.7048 8.52925 13.7075 8.54149 13.707 8.55381C13.7066 8.56613 13.7033 8.57818 13.6972 8.58891C13.6911 8.59964 13.6825 8.60873 13.6722 8.6154C13.6619 8.62205 13.65 8.62609 13.6377 8.62713C13.6234 8.62713 13.6044 8.62714 13.5903 8.61293L13.3061 8.43766C13.2966 8.43163 13.2885 8.42355 13.2824 8.41398L13.0883 8.0824C13.0787 8.06791 13.0745 8.0506 13.0761 8.03336C13.0779 8.01612 13.0856 8.00001 13.0977 7.98766C13.11 7.97549 13.1261 7.96792 13.1434 7.9662C13.1606 7.96447 13.1779 7.96871 13.1924 7.97818L13.1877 7.97346ZM11.7051 8.35714C11.7288 8.50398 11.7903 8.61765 11.8425 8.60818C11.8898 8.59871 11.9183 8.47555 11.8898 8.32398C11.8709 8.18187 11.8094 8.06819 11.7572 8.07293C11.7051 8.0824 11.6813 8.21029 11.7051 8.35714ZM13.974 8.34293C14.0117 8.34293 14.0478 8.32797 14.0744 8.30131C14.1012 8.27465 14.1161 8.23851 14.1161 8.20082C14.1161 8.16313 14.1012 8.127 14.0744 8.10034C14.0478 8.07369 14.0117 8.05872 13.974 8.05872C13.9363 8.05872 13.9001 8.07369 13.8735 8.10034C13.8468 8.127 13.832 8.16313 13.832 8.20082C13.832 8.28135 13.8983 8.34293 13.974 8.34293ZM12.5198 8.20557L12.8324 8.12504C12.8426 8.12277 12.853 8.12385 12.8624 8.12812C12.8719 8.1324 12.8797 8.13963 12.8845 8.14872C12.89 8.15742 12.8925 8.16768 12.8916 8.17794C12.8908 8.1882 12.8867 8.19788 12.8798 8.20557L12.6761 8.42346C12.6698 8.43043 12.6617 8.43538 12.6524 8.43766L12.3588 8.50871C12.3487 8.51098 12.3381 8.5099 12.3287 8.50563C12.3192 8.50136 12.3116 8.49412 12.3066 8.48503C12.2999 8.47589 12.2967 8.46465 12.2976 8.45336C12.2985 8.44206 12.3035 8.43145 12.3113 8.42346L12.5009 8.21976C12.5072 8.21278 12.5154 8.20784 12.5245 8.20557H12.5198ZM7.76404 8.16294C8.13826 8.33819 8.323 8.69346 8.30405 9.11029C8.30287 9.11355 8.30098 9.11652 8.29853 9.11898C8.29607 9.12143 8.2931 9.12332 8.28984 9.12451L8.28037 9.12924H8.26615C7.91089 8.94924 7.73089 8.64135 7.72616 8.19135C7.72616 8.16292 7.73563 8.15346 7.76404 8.16766V8.16294ZM9.12825 8.56083C8.87246 8.61765 8.62141 8.47555 8.47457 8.26714C8.46509 8.24819 8.46984 8.23872 8.48879 8.23397C8.74458 8.18661 8.96247 8.27188 9.14719 8.50398C9.17087 8.5324 9.16141 8.55135 9.12825 8.56083ZM15.2955 9.17661C15.1961 8.85924 15.3098 8.57503 15.523 8.34293C15.5419 8.32398 15.5561 8.32871 15.5655 8.3524C15.6698 8.66503 15.5939 8.9445 15.3287 9.18607L15.324 9.19082C15.3199 9.19222 15.3156 9.19252 15.3116 9.1917C15.3073 9.19086 15.3035 9.18892 15.3002 9.18607L15.2955 9.17661ZM15.5134 9.20029C15.7124 8.70293 16.0913 8.43293 16.6503 8.38555C16.6526 8.38477 16.6548 8.38454 16.6572 8.3849C16.6595 8.38525 16.6617 8.38617 16.6635 8.38758C16.6654 8.38899 16.6669 8.39083 16.6679 8.39296C16.6689 8.39509 16.6694 8.39742 16.6692 8.39976V8.40924C16.5976 8.65143 16.4496 8.86396 16.2473 9.01508C16.045 9.16619 15.7992 9.24778 15.5466 9.24765C15.5087 9.24765 15.4992 9.23346 15.5134 9.20029ZM11.3688 8.98239L11.2409 8.58924C11.2365 8.57381 11.237 8.55747 11.2421 8.54228C11.2471 8.52709 11.2566 8.51375 11.2694 8.50398C11.2826 8.49322 11.2995 8.48736 11.3166 8.48736C11.3338 8.48736 11.3505 8.49322 11.364 8.50398L11.634 8.74555C11.6483 8.75503 11.6529 8.76924 11.6577 8.78344L11.7762 9.16713C11.781 9.1837 11.7803 9.20139 11.7744 9.2176C11.7684 9.23382 11.7574 9.24766 11.743 9.25713C11.7284 9.26662 11.7113 9.27085 11.6939 9.26913C11.6766 9.2674 11.6605 9.25983 11.6483 9.24765L11.3924 9.01554C11.3817 9.00687 11.3735 8.99541 11.3688 8.98239ZM12.0224 8.68397C12.2783 8.49451 12.6477 8.55608 12.9177 8.73135C12.9509 8.75029 12.9509 8.76924 12.9177 8.78818C12.7778 8.86961 12.6161 8.90559 12.4549 8.89116C12.2936 8.87674 12.1409 8.81262 12.0177 8.70765C12.0159 8.70311 12.0159 8.698 12.0177 8.69346L12.0224 8.68872V8.68397ZM13.9883 8.57977L14.3008 8.7645C14.315 8.76924 14.3245 8.77872 14.3294 8.79293L14.4903 9.11502C14.4969 9.12899 14.499 9.14464 14.4965 9.15988C14.4941 9.17512 14.4869 9.18922 14.4761 9.20029C14.4648 9.21094 14.4504 9.21763 14.4351 9.21935C14.4197 9.22106 14.4041 9.21768 14.3909 9.20976L14.1066 9.04397C14.0929 9.03821 14.0813 9.02827 14.0734 9.01554L13.8888 8.67924C13.881 8.66473 13.8782 8.6481 13.8807 8.63187C13.8834 8.61564 13.8912 8.60067 13.9029 8.58924C13.9141 8.57858 13.9285 8.5719 13.944 8.57019C13.9595 8.56848 13.9748 8.57184 13.9883 8.57977ZM7.46564 8.93976L7.20511 8.70293C7.1968 8.69609 7.19027 8.68732 7.1861 8.67739C7.18192 8.66747 7.18023 8.65669 7.18115 8.64595C7.1821 8.63522 7.18562 8.6249 7.19145 8.61583C7.19728 8.60679 7.20521 8.59927 7.21459 8.59398C7.22983 8.58814 7.2467 8.58814 7.26195 8.59398L7.59353 8.65081C7.603 8.65081 7.61722 8.65555 7.62194 8.66503L7.87301 8.90187C7.88341 8.91164 7.8904 8.92451 7.89291 8.93857C7.89543 8.95262 7.89332 8.96711 7.88693 8.97989C7.88057 8.99266 7.87022 9.00303 7.85746 9.00946C7.84471 9.01589 7.83022 9.01802 7.81616 9.01554L7.4988 8.95872C7.48612 8.95578 7.4746 8.94919 7.46564 8.93976ZM8.99087 8.79293C9.1093 8.7645 9.19457 8.70765 9.18509 8.66503C9.17562 8.6224 9.07141 8.61765 8.95298 8.64608C8.8393 8.6745 8.7493 8.73135 8.76352 8.77397C8.77298 8.8166 8.87719 8.82135 8.99087 8.79293ZM10.6109 9.3045C10.6486 9.3045 10.6848 9.28953 10.7114 9.26287C10.738 9.23622 10.7529 9.20008 10.7529 9.16239C10.7529 9.1247 10.738 9.08855 10.7114 9.06191C10.6848 9.03526 10.6486 9.02029 10.6109 9.02029C10.5922 9.02029 10.5738 9.02396 10.5566 9.03111C10.5392 9.03824 10.5236 9.04872 10.5104 9.06191C10.4972 9.0751 10.4867 9.09077 10.4796 9.10801C10.4724 9.12525 10.4688 9.14373 10.4688 9.16239C10.4688 9.24292 10.5351 9.3045 10.6109 9.3045ZM8.16668 9.17186C8.22352 9.20029 8.22826 9.22871 8.1809 9.26661C7.88248 9.51291 7.49405 9.51291 7.12931 9.35186C7.12573 9.34992 7.12261 9.34722 7.12015 9.34394C7.1177 9.34067 7.11598 9.33691 7.11511 9.33292C7.11473 9.3285 7.1154 9.32406 7.11704 9.31996C7.11869 9.31585 7.12126 9.31217 7.12459 9.30923C7.423 9.05344 7.76879 9.00607 8.16668 9.17186ZM12.8513 9.09607C12.8711 9.25339 12.8412 9.41295 12.7656 9.55231C12.6899 9.69166 12.5726 9.80377 12.4298 9.87285C12.4262 9.87285 12.4225 9.87206 12.4192 9.87049C12.416 9.8688 12.413 9.86632 12.4108 9.86351L12.4062 9.84922C12.3872 9.52712 12.5245 9.27133 12.823 9.08186C12.8419 9.07239 12.8513 9.07713 12.8561 9.09607H12.8513ZM16.0344 9.25713C16.2998 9.02029 16.7166 9.03924 17.034 9.19082C17.0576 9.20502 17.0623 9.21924 17.0387 9.23818C16.7166 9.47502 16.3803 9.49871 16.0392 9.29976C16.0155 9.28555 16.0155 9.27133 16.0344 9.25713ZM8.30878 9.33292C8.34194 9.32818 8.35615 9.33765 8.34668 9.37081C8.27562 9.60765 8.11931 9.74975 7.87301 9.82087C7.84931 9.82087 7.83984 9.82087 7.84458 9.79241C7.90142 9.54607 8.05773 9.3945 8.30878 9.33292ZM12.155 9.64554C12.1787 9.78769 12.2356 9.90131 12.2829 9.89186C12.3303 9.88714 12.354 9.76395 12.3303 9.62185C12.3113 9.47975 12.2545 9.36607 12.2024 9.37555C12.155 9.38028 12.1361 9.50344 12.155 9.64554ZM15.5134 9.37081C16.0344 9.31396 16.4466 9.59344 16.7213 10.0481C16.7355 10.0766 16.7308 10.0909 16.7023 10.0956C16.4521 10.1264 16.1987 10.0747 15.9805 9.948C15.7625 9.82144 15.5918 9.6271 15.4944 9.3945C15.4944 9.39082 15.4953 9.38719 15.497 9.3839C15.4987 9.38061 15.5012 9.37775 15.504 9.37555H15.5134V9.37081ZM12.7283 9.73554C12.8277 9.52713 13.0455 9.43713 13.2635 9.4324H13.2729L13.2824 9.44186C13.284 9.44473 13.2849 9.44802 13.2849 9.45135C13.2849 9.45466 13.284 9.45793 13.2824 9.46081C13.1783 9.67396 12.9983 9.77812 12.7519 9.7734C12.7234 9.7734 12.7188 9.75922 12.7283 9.73554ZM9.36036 9.45607C9.50655 9.52344 9.62856 9.63406 9.70987 9.77295C9.79122 9.91189 9.8279 10.0725 9.81507 10.2328C9.81271 10.237 9.80922 10.2406 9.80506 10.2431C9.80101 10.2456 9.79617 10.247 9.79133 10.2471H9.77716C9.47876 10.0909 9.32719 9.83032 9.31772 9.47028C9.3175 9.46773 9.31781 9.46513 9.31863 9.46269C9.31943 9.46024 9.32073 9.45799 9.32246 9.45607C9.32437 9.45436 9.32663 9.45306 9.32907 9.45225C9.33152 9.45142 9.3341 9.45112 9.33667 9.45135L9.36036 9.45607ZM12.8798 10.1428C13.1119 10.1619 13.3014 10.1098 13.3061 10.0339C13.3108 9.9534 13.1309 9.87769 12.9035 9.85879C12.6714 9.83977 12.4819 9.89186 12.4772 9.96757C12.4724 10.0481 12.6524 10.1288 12.8798 10.1428ZM14.1777 10.3513C14.3008 10.3513 14.4002 10.2471 14.4002 10.1192C14.4002 10.0589 14.3764 10.0011 14.3337 9.95846C14.2911 9.91571 14.2333 9.89186 14.1729 9.89186C14.1134 9.8931 14.0569 9.91762 14.0153 9.96004C13.9736 10.0027 13.9503 10.0598 13.9503 10.1192C13.9503 10.2471 14.0498 10.3513 14.1729 10.3513H14.1777ZM15.6792 10.1239L15.7597 10.0055C15.7628 10.0017 15.7668 9.9984 15.7713 9.99626C15.7759 9.99401 15.7808 9.99289 15.7858 9.99289C15.791 9.99289 15.7958 9.99401 15.8003 9.99626C15.8048 9.9984 15.8088 10.0017 15.8119 10.0055L15.8166 10.0245L15.8214 10.195V10.2139L15.7124 10.3561C15.7078 10.3614 15.7019 10.3653 15.695 10.3669C15.6882 10.3687 15.681 10.3682 15.6745 10.3655C15.669 10.3638 15.6641 10.3604 15.6602 10.3561C15.6569 10.3503 15.6552 10.3437 15.6556 10.3371L15.6698 10.1381C15.6698 10.1381 15.6698 10.1288 15.6792 10.1239ZM15.4566 10.0292C15.6034 10.1428 15.6602 10.3228 15.6177 10.5028C15.6159 10.5123 15.6114 10.521 15.6045 10.5277C15.5978 10.5345 15.5891 10.539 15.5798 10.5408C15.5709 10.5424 15.5617 10.5415 15.5532 10.5383C15.5449 10.5349 15.5376 10.5292 15.5323 10.5219C15.4188 10.3798 15.3855 10.2187 15.4281 10.0387C15.4281 10.0198 15.4424 10.015 15.4566 10.0292ZM15.9209 10.4839C16.0298 10.3892 16.0961 10.2802 16.0629 10.2376C16.0298 10.1997 15.9113 10.2471 15.8023 10.3417C15.6934 10.4366 15.6272 10.5456 15.6602 10.5834C15.6934 10.6213 15.8119 10.5787 15.9209 10.4839ZM16.764 10.3134C16.8113 10.6687 16.6313 10.9671 16.3329 11.1328C16.3092 11.1471 16.2998 11.1376 16.295 11.1187C16.2572 10.7681 16.4372 10.4888 16.7355 10.2991C16.74 10.2974 16.7452 10.2974 16.7498 10.2991L16.7592 10.3039V10.3134H16.764ZM10.0188 10.7966C10.0816 10.7966 10.1419 10.7716 10.1863 10.7273C10.2308 10.6828 10.2555 10.6225 10.2555 10.5598C10.2544 10.4978 10.2288 10.4387 10.1846 10.3953C10.1403 10.3519 10.0808 10.3276 10.0188 10.3277C9.95682 10.3289 9.89776 10.3543 9.85433 10.3987C9.81091 10.443 9.78661 10.5024 9.78661 10.5645C9.78661 10.6924 9.89078 10.8012 10.0234 10.8012L10.0188 10.7966ZM15.3761 10.5787C15.4472 10.6355 15.5183 10.6592 15.5372 10.6355C15.5561 10.6071 15.5134 10.5408 15.4424 10.4934C15.3713 10.4366 15.3002 10.4128 15.2813 10.4366C15.2623 10.4649 15.305 10.5312 15.3761 10.5787ZM11.9513 11.1092C11.8107 11.0721 11.6831 10.9965 11.5828 10.8912C11.4824 10.7859 11.4132 10.6547 11.3829 10.5123C11.3688 10.4697 11.3829 10.4556 11.4255 10.4649C11.7288 10.5408 11.9183 10.7445 11.994 11.0713C11.9988 11.1092 11.9845 11.1187 11.9466 11.1092H11.9513ZM12.6288 11.1234C12.6619 10.8012 12.8277 10.6023 13.1166 10.4603H13.1261C13.1299 10.4598 13.1337 10.4604 13.1371 10.4621C13.1405 10.4637 13.1432 10.4665 13.145 10.4697V10.4792C13.1457 10.6267 13.0998 10.7706 13.014 10.8906C12.9281 11.0104 12.8066 11.1002 12.6666 11.1471C12.6383 11.1612 12.6288 11.1471 12.6288 11.1234ZM6.38092 10.6734C6.63338 10.5213 6.92865 10.4555 7.22187 10.4863C7.51509 10.517 7.79026 10.6426 8.00563 10.8439C8.00727 10.8466 8.00834 10.8498 8.00876 10.8529C8.00918 10.8562 8.00893 10.8594 8.00805 10.8626C8.00717 10.8657 8.00565 10.8686 8.00362 10.8709C8.00155 10.8736 7.99903 10.8757 7.99615 10.8771C7.4609 11.1898 6.84985 11.0808 6.37617 10.7066C6.37322 10.7043 6.37084 10.7015 6.3692 10.6983C6.36755 10.695 6.3667 10.6914 6.3667 10.6877C6.36719 10.6834 6.36877 10.6796 6.37127 10.6763C6.37376 10.6729 6.37709 10.6702 6.38092 10.6687V10.6734ZM12.4251 10.9056C12.4251 11.0428 12.4677 11.1519 12.515 11.1519C12.5624 11.1519 12.5956 11.0381 12.5956 10.9008C12.5956 10.7634 12.5483 10.6545 12.5009 10.6545C12.4534 10.6545 12.4203 10.7681 12.4203 10.9056H12.4251ZM16.9724 10.9528C17.1287 10.8628 17.2329 10.7492 17.1998 10.697C17.1713 10.6402 17.0197 10.6639 16.8683 10.7539C16.7119 10.8392 16.6077 10.9528 16.6408 11.005C16.6692 11.0617 16.8208 11.0381 16.9724 10.9528ZM13.4861 10.9102L13.2966 11.0808C13.2903 11.0878 13.2821 11.0928 13.2729 11.0949L12.9888 11.1139C12.9816 11.1141 12.9746 11.1126 12.9681 11.1097C12.9617 11.1067 12.956 11.1024 12.9515 11.097C12.9468 11.0914 12.9435 11.085 12.9419 11.0782C12.9401 11.0713 12.94 11.0641 12.9413 11.0571C12.9437 11.048 12.9486 11.0397 12.9555 11.0334L13.145 10.8819C13.152 10.8766 13.1601 10.8733 13.1688 10.8723L13.453 10.8297C13.4628 10.8289 13.4727 10.8312 13.4812 10.8363C13.4898 10.8414 13.4964 10.849 13.5003 10.8582C13.5036 10.8673 13.5039 10.8771 13.5014 10.8864C13.4988 10.8957 13.4935 10.9041 13.4861 10.9102ZM8.2709 11.005C8.28509 10.9717 8.29931 10.9717 8.323 10.9909C8.58351 11.2513 8.59773 11.6681 8.45562 11.9856C8.45399 11.9893 8.45138 11.9927 8.44805 11.9952C8.44473 11.9976 8.44081 11.9992 8.43669 11.9997C8.43339 12.0007 8.42988 12.0009 8.42654 12C8.42321 11.9991 8.42016 11.9974 8.41773 11.995C8.16668 11.7108 8.11458 11.3839 8.2709 11.0002V11.005ZM8.01983 11.0239C8.05773 11.005 8.07668 11.0145 8.07668 11.0571C8.12405 11.6681 7.77826 12.1845 7.24774 12.4687C7.22405 12.4828 7.20985 12.4782 7.20985 12.4498C7.17553 12.1561 7.23611 11.8595 7.38272 11.6028C7.52933 11.3463 7.75427 11.1433 8.02458 11.0239H8.01983ZM17.2566 11.3177C17.1174 11.3997 16.9565 11.4368 16.7954 11.4241C16.6343 11.4114 16.4811 11.3493 16.3566 11.2466C16.3541 11.2414 16.3528 11.2358 16.3528 11.23C16.3528 11.2242 16.3541 11.2187 16.3566 11.2134L16.3708 11.1991C16.6644 11.0477 16.9581 11.0713 17.2566 11.275C17.2803 11.2892 17.2755 11.3034 17.2566 11.3177ZM12.6855 11.2182C12.9603 11.1234 13.2588 11.185 13.4624 11.3934C13.4813 11.4123 13.4766 11.4266 13.4577 11.436C13.1594 11.545 12.8988 11.4882 12.6761 11.2655C12.6524 11.2419 12.6572 11.2276 12.6855 11.2182ZM6.42827 11.7676C6.5194 11.5689 6.67405 11.406 6.86785 11.305C7.06167 11.2037 7.28362 11.1699 7.4988 11.2087C7.50173 11.2109 7.50412 11.2138 7.50576 11.217C7.5074 11.2203 7.50827 11.224 7.50827 11.2276L7.50353 11.2371C7.40169 11.4256 7.2457 11.5789 7.05569 11.6778C6.8657 11.7766 6.65045 11.8162 6.43775 11.7912L6.42827 11.7819V11.7676ZM15.7503 11.6445C15.8783 11.7249 16.0061 11.7581 16.0344 11.7156C16.0629 11.6681 15.9824 11.5639 15.8545 11.4787C15.7266 11.3981 15.6034 11.365 15.5702 11.4123C15.5466 11.4597 15.6224 11.5591 15.7503 11.6445ZM15.395 11.5828C15.2719 11.9098 15.0588 12.1039 14.7555 12.156C14.7366 12.1608 14.7272 12.156 14.7318 12.1323C14.8029 11.8008 14.9972 11.5923 15.324 11.5023C15.3998 11.4787 15.4235 11.5023 15.395 11.5828ZM15.5183 11.5402C15.7834 11.7487 15.8877 12.0328 15.8261 12.3881C15.8214 12.4308 15.8023 12.4356 15.7692 12.4119C15.6393 12.3123 15.5426 12.1756 15.4919 12.0202C15.4412 11.8645 15.4388 11.6971 15.4851 11.5402L15.4944 11.5355C15.4982 11.5338 15.5023 11.5329 15.5064 11.5329C15.5105 11.5329 15.5144 11.5338 15.5183 11.5355V11.5402ZM13.3345 12.1087C13.3722 12.1087 13.4084 12.0936 13.4351 12.067C13.4618 12.0404 13.4766 12.0043 13.4766 11.9666C13.4766 11.9478 13.473 11.9293 13.4658 11.9122C13.4586 11.8949 13.4483 11.8793 13.4351 11.8661C13.4217 11.8528 13.4062 11.8425 13.389 11.8353C13.3718 11.8281 13.3532 11.8245 13.3345 11.8245C13.316 11.8245 13.2975 11.8281 13.2802 11.8353C13.263 11.8425 13.2472 11.8528 13.2341 11.8661C13.2209 11.8793 13.2103 11.8949 13.2032 11.9122C13.1961 11.9293 13.1924 11.9478 13.1924 11.9666C13.1924 12.0423 13.2588 12.1087 13.3345 12.1087ZM15.1677 12.1466L15.3145 11.8766C15.3179 11.8692 15.3232 11.8627 15.3297 11.8579C15.3363 11.8532 15.3441 11.8501 15.3521 11.8492C15.3602 11.8482 15.3684 11.8492 15.3761 11.8525C15.3835 11.8555 15.39 11.8606 15.395 11.8671C15.4029 11.8746 15.4079 11.8847 15.4092 11.8955L15.4329 12.1798C15.4343 12.1894 15.4328 12.1993 15.4281 12.2081L15.2813 12.4923C15.2771 12.5032 15.269 12.5122 15.2584 12.5175C15.2478 12.5227 15.2358 12.5239 15.2245 12.5206C15.2136 12.5185 15.2038 12.5127 15.197 12.504C15.1901 12.4953 15.1864 12.4845 15.1866 12.4734L15.1583 12.1798C15.1583 12.1655 15.1583 12.156 15.1677 12.1466ZM16.2477 12.1987C16.2854 12.1987 16.3215 12.1837 16.3482 12.157C16.3748 12.1304 16.3897 12.0942 16.3897 12.0566C16.3897 12.0189 16.3748 11.9827 16.3482 11.956C16.3215 11.9293 16.2854 11.9145 16.2477 11.9145C16.2108 11.9157 16.1758 11.9311 16.1502 11.9577C16.1245 11.9842 16.1103 12.0198 16.1103 12.0566C16.1103 12.1371 16.1719 12.1987 16.2524 12.1987H16.2477ZM9.87672 12.4734C10.0505 12.3663 10.2551 12.3198 10.4581 12.3411C10.6613 12.3626 10.8516 12.4508 10.9994 12.5917C11.0003 12.5958 11.0004 12.6001 10.9995 12.6042C10.9988 12.6083 10.9971 12.6121 10.9945 12.6156L10.985 12.6249C10.6203 12.8145 10.2509 12.7766 9.87672 12.5113L9.86716 12.5017V12.4923C9.86716 12.4887 9.86806 12.4851 9.86975 12.4817C9.87132 12.4785 9.87368 12.4756 9.87672 12.4734ZM14.3483 12.8477C14.4102 12.8463 14.4693 12.8209 14.5126 12.7766C14.556 12.7323 14.5803 12.6727 14.5803 12.6108C14.5803 12.5479 14.5553 12.4877 14.5109 12.4432C14.4665 12.3989 14.4063 12.3739 14.3434 12.3739C14.2814 12.3752 14.2224 12.4007 14.1791 12.4449C14.1356 12.4891 14.1113 12.5488 14.1113 12.6108C14.1113 12.7387 14.2155 12.8477 14.3483 12.8477ZM8.99087 12.5113C8.98812 12.6298 8.95197 12.7451 8.88662 12.844C8.82126 12.9427 8.72933 13.0213 8.62141 13.0702C8.61647 13.0707 8.61153 13.0695 8.60729 13.0669C8.60303 13.0644 8.59969 13.0605 8.59773 13.056V13.0466C8.6072 12.7766 8.73036 12.5917 8.96719 12.4923C8.98614 12.4828 8.99562 12.4923 8.99087 12.5113ZM11.2883 13.3876C11.1083 13.1745 11.1035 12.9612 11.1934 12.7008L11.203 12.6912C11.206 12.6885 11.21 12.6865 11.2141 12.6857C11.2184 12.6849 11.2227 12.6852 11.2266 12.6865L11.2409 12.6912C11.4019 12.895 11.4303 13.1271 11.3309 13.3828C11.3213 13.4066 11.3072 13.4066 11.293 13.3876H11.2883ZM11.0609 12.7387C11.094 13.1698 10.8524 13.5061 10.4924 13.7334H10.4783C10.4734 13.7332 10.4687 13.7318 10.4645 13.7293C10.4604 13.7269 10.457 13.7234 10.4545 13.7191L10.4499 13.705C10.4213 13.2597 10.6109 12.9281 11.0183 12.715C11.0246 12.7114 11.032 12.7104 11.0391 12.7121C11.0462 12.7139 11.0522 12.7183 11.0561 12.7245L11.0609 12.7387ZM9.90507 13.2313C9.971 13.0986 10.0767 12.9898 10.2075 12.9202C10.3383 12.8505 10.4877 12.8235 10.6345 12.8428C10.6407 12.8468 10.6451 12.8529 10.6468 12.8599C10.6486 12.867 10.6476 12.8743 10.6441 12.8808C10.4783 13.1555 10.2366 13.2787 9.91936 13.2549C9.90035 13.2549 9.89562 13.2408 9.90507 13.2266V13.2313ZM13.0266 13.3591C13.1196 13.2266 13.2521 13.1267 13.4052 13.0739C13.5584 13.0212 13.7242 13.0182 13.8792 13.0655C13.8834 13.0698 13.8862 13.0754 13.887 13.0813C13.8879 13.0872 13.8869 13.0934 13.884 13.0987C13.6945 13.3591 13.4103 13.4587 13.0503 13.4066C13.0451 13.4055 13.0403 13.4032 13.0362 13.3999C13.032 13.3967 13.0287 13.3924 13.0266 13.3876C13.0246 13.3832 13.0235 13.3783 13.0235 13.3734C13.0235 13.3684 13.0246 13.3636 13.0266 13.3591ZM14.1492 13.3591C14.2299 13.487 14.3339 13.5677 14.3766 13.5392C14.424 13.5108 14.3909 13.3828 14.3103 13.2549C14.2299 13.1271 14.1303 13.0466 14.083 13.075C14.0402 13.1034 14.0687 13.2313 14.1492 13.3591ZM13.8555 14.0698C13.7764 13.925 13.7431 13.7596 13.7601 13.5955C13.777 13.4314 13.8434 13.2764 13.9503 13.1506C13.9539 13.1487 13.9581 13.1476 13.9622 13.1476C13.9663 13.1476 13.9704 13.1487 13.974 13.1506L13.9787 13.1602C14.1398 13.4681 14.1113 13.7761 13.8983 14.0745C13.884 14.0934 13.8698 14.0934 13.8555 14.0745V14.0698ZM13.4198 13.5866C13.3108 13.7287 13.2635 13.8756 13.3155 13.9181C13.363 13.9512 13.4909 13.8708 13.5999 13.7287C13.7039 13.5866 13.7513 13.4398 13.7039 13.3971C13.6566 13.3639 13.5288 13.4445 13.4198 13.5866ZM11.2409 14.0366C11.3356 14.0366 11.4114 13.9656 11.4114 13.8708C11.4114 13.7761 11.3356 13.6955 11.2409 13.6955C11.1462 13.6955 11.0703 13.7713 11.0703 13.8708C11.0703 13.9656 11.1508 14.0413 11.2409 14.0413V14.0366Z" fill="white"/>
</g>
<defs>
<clipPath id="clip0_328_42591">
<rect width="24" height="24" fill="white"/>
</clipPath>
</defs>
</svg>
