<svg width="24" height="24" viewBox="0 0 24 24" fill="none" xmlns="http://www.w3.org/2000/svg">
<g clip-path="url(#clip0_328_55873)">
<path d="M24 0H0V24H24V0Z" fill="white"/>
<path fill-rule="evenodd" clip-rule="evenodd" d="M12 20.4706C14.2465 20.4706 16.4011 19.5782 17.9896 17.9896C19.5782 16.401 20.4706 14.2465 20.4706 12C20.4706 9.75338 19.5782 7.59892 17.9896 6.01039C16.4011 4.42184 14.2465 3.5294 12 3.5294C9.75349 3.5294 7.59892 4.42184 6.01039 6.01039C4.42184 7.59892 3.5294 9.75338 3.5294 12C3.5294 14.2465 4.42184 16.401 6.01039 17.9896C7.59892 19.5782 9.75349 20.4706 12 20.4706ZM12 21C14.387 21 16.6762 20.0517 18.364 18.3639C20.0517 16.6762 21 14.387 21 12C21 9.61306 20.0517 7.32386 18.364 5.63603C16.6762 3.94822 14.387 3 12 3C9.61305 3 7.32386 3.94822 5.63603 5.63603C3.94822 7.32386 3 9.61306 3 12C3 14.387 3.94822 16.6762 5.63603 18.3639C7.32386 20.0517 9.61305 21 12 21Z" fill="#6BFF53"/>
<path d="M9.08791 8.02853C9.51144 7.39325 11.2055 7.05972 11.9997 6.96972C13.0556 7.01784 14.0713 7.38727 14.9114 8.02853C15.3508 7.76383 16.0232 7.18148 16.2351 6.96972C16.4997 6.70502 16.2351 6.70502 16.4997 6.44031C16.7644 6.17559 17.2938 6.70502 17.0291 6.96972C16.8174 7.18148 16.6745 7.32442 16.4997 7.23443C16.2351 7.49913 15.7056 8.18737 15.7056 8.82266C15.7056 9.45796 16.7644 10.411 16.7644 10.9403V13.0579C16.8545 13.0579 17.0291 13.1638 17.0291 13.5874C17.0291 14.1168 14.9114 19.411 11.9997 19.411C9.08791 19.411 6.97027 13.8521 6.97027 13.5874C6.97027 13.3757 7.14497 13.148 7.23497 13.0579V10.9403C7.23497 9.88153 8.29378 8.55796 8.29378 8.29325C8.29378 8.08148 7.58967 7.49913 7.23497 7.23443C7.06027 7.23443 6.70557 7.18148 6.70557 6.96972C6.70557 6.70502 6.97027 6.44031 7.23497 6.44031C7.44674 6.44031 7.49967 6.79502 7.49967 6.96972L9.08791 8.02853Z" fill="url(#paint0_linear_328_55873)"/>
<path d="M7.76465 10.9411C7.97642 8.61176 10.327 7.5 11.9999 7.5C13.673 7.5 15.9706 9.08824 16.2353 10.9411C16.2723 11.2059 16.2353 11.3117 16.2353 11.4706H15.7059C15.6157 11.7353 15.4941 12.3176 15.7059 12.5294C15.9706 12.794 16.2353 13.0589 16.2353 13.5883C16.2353 14.1177 13.853 18.8824 11.9999 18.8824C10.147 18.8824 7.76465 14.1177 7.76465 13.5883C7.76465 13.0589 8.02936 12.794 8.29406 12.5294C8.50582 12.3176 8.38406 11.7353 8.29406 11.4706H7.76465V10.9411Z" fill="#6BFF53"/>
<path d="M9.90337 12.1218C9.55193 12.0724 9.19502 12.076 8.8446 12.1324L8.80225 11.8677C9.17926 11.809 9.56293 11.8071 9.94039 11.8624C10.3639 11.926 10.8087 12.0901 11.0522 12.4553L10.8298 12.6036C10.6498 12.3336 10.3005 12.1854 9.90337 12.127V12.1218ZM14.2288 12.1695C14.58 12.1183 14.9368 12.1201 15.2875 12.1747L15.3299 11.9154C14.9529 11.8567 14.5692 11.8548 14.1916 11.9101C13.7682 11.9736 13.3234 12.1377 13.0799 12.503L13.3023 12.6513C13.4822 12.3813 13.8316 12.233 14.2288 12.1747V12.1695Z" fill="#2C9B61"/>
<path d="M13.0594 16.7639C13.0594 16.4992 13.3613 15.5886 14.1183 15.9699C14.6477 16.2345 14.1183 17.0286 13.0594 16.7639ZM10.9417 16.7639C10.9417 16.4992 10.6401 15.5886 9.88298 15.9699C9.35358 16.2345 9.88298 17.0286 10.9417 16.7639Z" fill="#239454"/>
<path d="M12.2648 15.9707H11.7354V16.5001H12.2648V15.9707Z" fill="black"/>
<path d="M12.9 17.368C12.4235 18.0826 11.4018 17.982 11.0894 17.352L11.3223 17.2356C11.5394 17.6644 12.3123 17.7756 12.6829 17.2197L12.9052 17.368H12.9Z" fill="#003D09"/>
<path d="M12.5293 14.6469V15.7058H13.3233C14.3823 15.7058 15.7057 14.3822 15.7057 13.5881C15.7057 12.9528 15.0017 12.7939 14.6469 12.7939C13.588 12.7939 12.5293 13.8529 12.5293 14.6469Z" fill="black"/>
<path d="M13.3237 13.8528C13.3237 14.0645 13.4983 14.2922 13.5883 14.382C14.6472 14.382 15.4414 13.0586 14.6472 13.0586C13.8532 13.0586 13.3237 13.588 13.3237 13.8528ZM14.9119 14.6469H14.1179V14.9116H14.9119V14.6469Z" fill="white"/>
<path d="M11.4709 14.6469V15.7058H10.6768C9.61795 15.7058 8.29443 14.3822 8.29443 13.5881C8.29443 12.9528 8.99856 12.7939 9.35326 12.7939C10.4121 12.7939 11.4709 13.8529 11.4709 14.6469Z" fill="black"/>
<path d="M10.6764 13.8528C10.6764 14.0645 10.5017 14.2922 10.4118 14.382C9.35287 14.382 8.55876 13.0586 9.35287 13.0586C10.147 13.0586 10.6764 13.588 10.6764 13.8528ZM9.08817 14.6469H9.88228V14.9116H9.08817V14.6469Z" fill="white"/>
</g>
<defs>
<linearGradient id="paint0_linear_328_55873" x1="12.0015" y1="2.99641" x2="12.0015" y2="20.9991" gradientUnits="userSpaceOnUse">
<stop stop-color="#30A45B"/>
<stop offset="1" stop-color="#1F201F"/>
</linearGradient>
<clipPath id="clip0_328_55873">
<rect width="24" height="24" fill="white"/>
</clipPath>
</defs>
</svg>
