<svg width="24" height="24" viewBox="0 0 24 24" fill="none" xmlns="http://www.w3.org/2000/svg">
<g clip-path="url(#clip0_328_42699)">
<path d="M24 0H0V24H24V0Z" fill="#40BF8E"/>
<path d="M11.4374 6.46893V3L10.8041 3.07986C6.39749 3.6345 3 7.42291 3 11.9999C3 16.5771 6.39693 20.3661 10.8041 20.9201L11.4374 21V19.8823C11.1135 19.8586 10.8441 19.8053 10.5216 19.7406L10.3125 19.6989V19.7068C6.78504 18.9597 4.12499 15.7991 4.12499 11.9999C4.12499 8.20143 6.78504 5.04016 10.3125 4.29318V5.6488C8.99398 6.18991 8.06248 7.46793 8.06248 8.96585C8.06248 10.4638 8.99398 11.7418 10.3125 12.2824C10.7524 12.4178 10.9999 12.4804 11.4374 12.558V11.4628L11.0269 11.3486C9.96083 11.0533 9.18748 10.0943 9.18748 8.96585C9.18748 7.83748 9.96083 6.87899 11.0269 6.58311L11.4374 6.46893ZM12.5625 17.5311V21L13.1959 20.9201C17.6025 20.3661 21 16.5771 21 11.9999C21 7.42291 17.6031 3.63394 13.1959 3.07986L12.5625 3V4.11769C12.8864 4.14131 13.1558 4.19474 13.4783 4.25944L13.6874 4.30105V4.29374C17.2148 5.04019 19.8749 8.20143 19.8749 11.9999C19.8749 15.7991 17.2148 18.9597 13.6874 19.7068V18.3511C15.006 17.8106 15.9374 16.5321 15.9374 15.0341C15.9374 13.5361 15.006 12.2581 13.6874 11.7176C13.3196 11.5988 12.9437 11.5067 12.5625 11.442V12.5371L12.9731 12.6514C14.0391 12.9466 14.8125 13.9056 14.8125 15.0341C14.8125 16.1624 14.0391 17.1209 12.9731 17.4169L12.5625 17.5311Z" fill="white"/>
</g>
<defs>
<clipPath id="clip0_328_42699">
<rect width="24" height="24" fill="white"/>
</clipPath>
</defs>
</svg>
