<svg width="24" height="24" viewBox="0 0 24 24" fill="none" xmlns="http://www.w3.org/2000/svg">
<g clip-path="url(#clip0_328_42765)">
<path d="M24 0H0V24H24V0Z" fill="url(#paint0_linear_328_42765)"/>
<path d="M18.7969 16.1999C19.6688 14.8008 20.0842 13.1653 19.9858 11.5198C19.8873 9.87417 19.2797 8.29993 18.2471 7.01485C17.8474 7.1148 17.5925 7.33967 17.1828 7.69448C17.1478 7.72446 17.1078 7.75445 17.0729 7.79442C16.4489 8.40801 15.6093 8.75248 14.7341 8.7539C14.1993 8.7539 13.7846 8.65396 13.4248 8.47905C13.1149 8.31913 12.8852 8.10925 12.7302 7.96933L12.6952 7.93434C12.5303 7.78443 12.4254 7.69947 12.2754 7.63451C12.0211 7.53525 11.7486 7.49096 11.4759 7.50458C10.9062 7.50458 10.3165 7.77444 9.76687 8.19421C9.3166 8.53996 8.9222 8.95289 8.59748 9.41853L7.34816 8.58899C7.638 8.15422 8.16771 7.52457 8.85234 7.00486C9.59455 6.39466 10.5158 6.04369 11.4759 6.00541C12.0555 6.00541 12.5103 6.09536 12.8901 6.26526C13.2699 6.43517 13.5247 6.66504 13.7046 6.82495C13.8946 6.99986 13.9845 7.07482 14.1045 7.13978C14.2145 7.19476 14.3893 7.25473 14.7341 7.25473C15.3338 7.25473 15.6636 7.02485 16.0833 6.65505L16.2133 6.5451C16.4891 6.28776 16.7925 6.06153 17.1178 5.87047C16.0125 4.94543 14.6781 4.33573 13.2553 4.10566C11.8325 3.87558 10.3739 4.03364 9.03336 4.56319C7.69285 5.09275 6.52005 5.97417 5.63859 7.11454C4.75713 8.25489 4.19967 9.61196 4.02499 11.0427C4.48282 10.8526 4.97347 10.7541 5.46919 10.7528C6.2582 10.7373 7.027 11.0029 7.638 11.5024L7.65799 11.5174C7.88287 11.6774 8.03778 11.7873 8.22767 11.8671C8.40258 11.9422 8.62747 12.0022 8.97728 12.0022C9.56195 12.0022 9.94177 11.7323 10.5164 11.2875L10.5514 11.2575C11.1011 10.8278 11.8457 10.2532 12.9801 10.2532C13.9145 10.2532 14.8441 10.7379 15.5586 11.2276C16.194 11.6683 16.7773 12.1797 17.2977 12.7517L16.1733 13.7512C15.8734 13.4114 15.3288 12.8916 14.7041 12.4619C14.0545 12.0171 13.4449 11.7523 12.9801 11.7523C12.3904 11.7523 12.0106 12.0222 11.4359 12.4669L11.4009 12.4968C10.8513 12.9267 10.1066 13.5014 8.97227 13.5014C8.43757 13.5014 8.00779 13.4015 7.638 13.2465C7.2882 13.0965 7.01334 12.8967 6.79846 12.7467L6.78347 12.7368C6.60696 12.5995 6.41592 12.4823 6.21378 12.387C6.03388 12.312 5.809 12.2519 5.46419 12.2519C4.8895 12.2519 4.38479 12.4869 4 12.7618C4.14818 14.3386 4.7642 15.8351 5.76902 17.0594C6.03388 16.7795 6.3487 16.4846 6.69352 16.2098C7.35316 15.6752 8.21268 15.1355 9.1172 15.0106C9.69189 14.9255 10.1766 15.0106 10.6014 15.1903C11.0061 15.3703 11.321 15.6302 11.5609 15.8401L11.6158 15.8899C12.1056 16.3098 12.3254 16.4997 12.7302 16.4997C13.1949 16.4997 13.5148 16.2848 13.9795 15.915L14.0695 15.8401C14.4943 15.5052 15.1189 15.0005 15.9884 15.0005C16.3732 15.0005 16.763 15.1105 17.1028 15.2454C17.4526 15.3803 17.8024 15.5702 18.1323 15.765C18.3621 15.905 18.5921 16.055 18.8019 16.2048L18.7969 16.1999ZM17.8874 17.3991C17.7175 17.2793 17.5376 17.1593 17.3477 17.0494C17.0678 16.8794 16.798 16.7345 16.5481 16.6396C16.3697 16.5598 16.1785 16.5125 15.9834 16.4997C15.6685 16.4997 15.4437 16.6646 14.919 17.0843C14.4442 17.4641 13.7647 17.9988 12.7302 17.9988C11.7407 17.9988 11.1062 17.4391 10.6913 17.0694L10.5764 16.9694C10.3515 16.7745 10.1766 16.6446 9.99669 16.5696C9.78622 16.4778 9.55331 16.45 9.32708 16.4897C8.82736 16.5646 8.22767 16.8995 7.633 17.3742C7.33317 17.6241 7.05332 17.8838 6.82344 18.1238C8.26631 19.3362 10.091 19.9998 11.9757 19.9978C13.0876 19.9995 14.1876 19.7694 15.2056 19.3218C16.2233 18.8744 17.1369 18.2196 17.8874 17.3991Z" fill="white"/>
</g>
<defs>
<linearGradient id="paint0_linear_328_42765" x1="11.9757" y1="4.00613" x2="11.9757" y2="19.9974" gradientUnits="userSpaceOnUse">
<stop stop-color="#90305C"/>
<stop offset="1" stop-color="#DF3C41"/>
</linearGradient>
<clipPath id="clip0_328_42765">
<rect width="24" height="24" fill="white"/>
</clipPath>
</defs>
</svg>
