<svg width="24" height="24" viewBox="0 0 24 24" fill="none" xmlns="http://www.w3.org/2000/svg">
<g clip-path="url(#clip0_328_42817)">
<path d="M24 0H0V24H24V0Z" fill="#C1CCF7"/>
<path fill-rule="evenodd" clip-rule="evenodd" d="M16.9914 16.9914C15.6676 18.315 13.8721 19.0588 12 19.0588C10.1279 19.0588 8.33243 18.315 7.00865 16.9914C5.68486 15.6676 4.94118 13.8721 4.94118 12C4.94118 10.1279 5.68486 8.33243 7.00865 7.00865C8.33243 5.68486 10.1279 4.94118 12 4.94118C13.8721 4.94118 15.6676 5.68486 16.9914 7.00865C18.315 8.33243 19.0588 10.1279 19.0588 12C19.0588 13.8721 18.315 15.6676 16.9914 16.9914ZM17.6568 17.6568C16.1566 19.1571 14.1218 20 12 20C9.87828 20 7.84343 19.1571 6.34314 17.6568C4.84286 16.1566 4 14.1218 4 12C4 9.87828 4.84286 7.84343 6.34314 6.34314C7.84343 4.84286 9.87828 4 12 4C14.1218 4 16.1566 4.84286 17.6568 6.34314C19.1571 7.84343 20 9.87828 20 12C20 14.1218 19.1571 16.1566 17.6568 17.6568ZM18.1176 12C18.1176 15.3787 15.3787 18.1176 12 18.1176C8.6213 18.1176 5.88234 15.3787 5.88234 12C5.88234 8.6213 8.6213 5.88234 12 5.88234C15.3787 5.88234 18.1176 8.6213 18.1176 12ZM12 7.29411L9.17654 12L12 13.647L14.8236 12L12 7.29411ZM12 14.3529L9.17654 12.4706L12 16.7059L14.8236 12.4706L12 14.3529Z" fill="white"/>
</g>
<defs>
<clipPath id="clip0_328_42817">
<rect width="24" height="24" fill="white"/>
</clipPath>
</defs>
</svg>
