<svg width="24" height="24" viewBox="0 0 24 24" fill="none" xmlns="http://www.w3.org/2000/svg">
<g clip-path="url(#clip0_328_37733)">
<path d="M24 0H0V24H24V0Z" fill="white"/>
<path d="M11.5262 3L10.3752 4.58687V5.11741C8.85938 5.54372 5.95566 7.05955 4.6909 7.76534C4.6909 9.24798 5.23091 12.9713 5.50566 14.6481L5.23091 14.9133L4.4209 16.7606L6.85567 15.1787C6.20671 13.4827 6.22567 9.88274 6.31565 8.29587C7.61358 7.2348 10.3515 6.439 11.5262 6.17847V3Z" fill="url(#paint0_linear_328_37733)"/>
<path d="M12.4736 3L13.6247 4.58687V5.11741C15.1406 5.54372 18.0442 7.05955 19.309 7.76534C19.309 9.24798 18.769 12.9713 18.4942 14.6481L18.769 14.9133L19.579 16.7606L17.1442 15.1787C17.7931 13.4827 17.7742 9.88274 17.6843 8.29587C16.3863 7.2348 13.6484 6.439 12.4736 6.17847V3Z" fill="url(#paint1_linear_328_37733)"/>
<path d="M7.40043 15.9692L4.69092 17.5609L6.8557 17.8214L7.1257 17.5609C8.21045 19.2473 10.8253 20.5595 11.9999 20.9999C14.6006 19.9388 16.3295 18.2667 16.8743 17.5609L17.1443 17.8214L19.309 17.5609L16.5994 15.9692C15.7373 17.8782 13.1747 19.2378 11.9999 19.6784C9.61732 19.0388 7.94044 16.9403 7.40043 15.9692Z" fill="url(#paint2_linear_328_37733)"/>
<path d="M12.0561 5.84229C10.0287 5.84229 6.99235 6.91757 6.14918 7.99758C4.57178 15.7567 9.37028 19.1861 11.9993 19.8161C18.1857 18.2008 18.5219 11.7682 17.963 7.99758C16.8309 6.64756 14.0789 5.84229 12.0561 5.84229Z" fill="#303435"/>
<path d="M10.5789 10.1386C11.2232 9.93013 11.4361 9.87804 11.5262 9.87804V6.78955C10.0247 6.99324 7.86461 8.07801 6.96933 8.58959C6.54301 9.62223 6.96933 12.2843 7.23934 13.4828C7.88356 13.0708 9.77361 12.4549 10.5789 12.1943V16.3155C9.50832 16.107 8.57988 14.5155 8.30988 13.7386L7.23934 14.2597C7.88356 16.9313 10.3658 18.2861 11.5262 18.6319V10.6502C10.2377 10.6502 8.74567 11.266 8.2104 11.5264V9.63171L10.5789 8.58959V10.1386Z" fill="#CACAD4"/>
<path fill-rule="evenodd" clip-rule="evenodd" d="M12.4736 6.78955V18.6319C13.5726 18.2055 15.9317 16.7797 16.5947 14.5107C17.1006 12.5804 17.2863 10.58 17.1442 8.58959C15.7736 7.58778 14.1621 6.96674 12.4736 6.78955ZM13.421 8.21064V16.737C14.4773 16.074 16.519 13.6107 16.2346 9.06327C15.6521 8.77907 14.2642 8.21064 13.421 8.21064Z" fill="#949398"/>
</g>
<defs>
<linearGradient id="paint0_linear_328_37733" x1="11.9293" y1="3" x2="11.9293" y2="21.0065" gradientUnits="userSpaceOnUse">
<stop stop-color="#1BA9D1"/>
<stop offset="1" stop-color="#126DB0"/>
</linearGradient>
<linearGradient id="paint1_linear_328_37733" x1="12.0707" y1="3" x2="12.0707" y2="21.0065" gradientUnits="userSpaceOnUse">
<stop stop-color="#1AA3CB"/>
<stop offset="1" stop-color="#126DB1"/>
</linearGradient>
<linearGradient id="paint2_linear_328_37733" x1="11.9999" y1="2.99964" x2="11.9999" y2="20.9999" gradientUnits="userSpaceOnUse">
<stop stop-color="#1868A7"/>
<stop offset="1" stop-color="#0E59AB"/>
</linearGradient>
<clipPath id="clip0_328_37733">
<rect width="24" height="24" fill="white"/>
</clipPath>
</defs>
</svg>
