<svg width="24" height="24" viewBox="0 0 24 24" fill="none" xmlns="http://www.w3.org/2000/svg">
<g clip-path="url(#clip0_328_37745)">
<path d="M24 0H0V24H24V0Z" fill="#C44536"/>
<path fill-rule="evenodd" clip-rule="evenodd" d="M6.34857 3.0006C5.4606 3.0006 4.60901 3.35333 3.98113 3.98123C3.35323 4.60911 3.00049 5.4607 3.00049 6.34865V17.652C3.00049 18.5401 3.35323 19.3915 3.98113 20.0195C4.60901 20.6473 5.4606 21 6.34857 21H17.6519C18.5398 21 19.3915 20.6473 20.0193 20.0195C20.6473 19.3915 21 18.5401 21 17.652V6.34926C21.0001 5.9095 20.9137 5.47399 20.7455 5.06765C20.5773 4.6613 20.3307 4.29206 20.0198 3.98104C19.7088 3.67003 19.3397 3.42329 18.9334 3.25496C18.5272 3.08664 18.0916 3 17.6519 3L6.34857 3.0006ZM10.7986 12C10.7986 12 10.8184 11.9663 10.7986 15.9376V19.229H13.2073V15.9382C13.2066 15.1126 13.2108 14.3316 13.2145 13.686C13.2193 12.7516 13.223 12.0993 13.2073 12.003C13.7781 11.7959 14.3743 11.5201 14.8735 11.2865C15.5919 10.9494 16.3145 10.2423 16.6198 9.57628C17.057 8.62186 17.0883 7.90166 16.7431 6.73646C16.4409 5.71518 16.4326 5.36412 16.701 4.93236C16.7884 4.79085 16.8546 4.71196 16.8408 4.65236C16.8179 4.55359 16.5811 4.50541 15.8755 4.31633C15.2505 4.14893 15.2505 4.14893 15.139 4.29707C14.7651 4.79264 14.7465 5.71037 15.089 6.778C15.466 7.95286 15.3558 8.8254 14.7447 9.50223C14.4706 9.80513 13.9353 10.0995 13.3807 10.252C12.8309 10.4031 11.2731 10.4049 10.654 10.2549C9.50879 9.97669 8.86082 9.33909 8.72111 8.35088C8.64884 7.84144 8.70606 7.45546 8.97584 6.63831C9.24435 5.82418 9.26782 5.06363 9.04026 4.55781C8.82349 4.07728 8.7163 4.1104 8.06956 4.31032L7.93407 4.35187L7.15005 4.61863L7.34516 4.99136C7.60107 5.47912 7.59204 5.7784 7.29577 6.65938C7.00674 7.51928 6.95433 8.10699 7.1055 8.78564C7.32528 9.77385 7.87205 10.5458 8.75243 11.1119L8.86322 11.1835C9.46298 11.57 9.92718 11.8688 10.7986 12ZM10.1964 17.4226H7.18558V18.6269H10.1964V17.4226ZM16.8203 17.4226H13.8094V18.6269H16.8203V17.4226ZM10.1964 15.0139H7.18558V16.2183H10.1964V15.0139ZM16.8203 15.0139H13.8094V16.2183H16.8203V15.0139ZM10.1964 12.6051H7.18558V13.8097H10.1964V12.6051ZM16.8203 12.6051H13.8094V13.8097H16.8203V12.6051ZM10.8317 10.0201C11.2128 10.0413 11.8753 7.96187 12 7.50061C12.0204 7.55662 12.0591 7.69631 12.1101 7.8842C12.312 8.62004 12.7143 10.0868 12.9906 10.0868C13.0206 10.0868 14.3321 9.40051 14.3779 9.36018C14.3893 9.35048 13.993 8.58813 13.4987 7.66621L12.5631 5.81272H11.4369L10.3097 7.67765L9.41297 9.36185L10.0886 9.68896C10.4602 9.86947 10.795 10.0183 10.8317 10.0201Z" fill="white"/>
</g>
<defs>
<clipPath id="clip0_328_37745">
<rect width="24" height="24" fill="white"/>
</clipPath>
</defs>
</svg>
