<svg width="24" height="24" viewBox="0 0 24 24" fill="none" xmlns="http://www.w3.org/2000/svg">
<g clip-path="url(#clip0_328_33093)">
<path d="M24 0H0V24H24V0Z" fill="#662C5E"/>
<path d="M17.6836 11.3087V15.8228C17.5321 18.7453 15.0407 20.9999 11.9998 20.9999C8.95893 20.9999 6.46749 18.7121 6.31592 15.7897V15.7091C6.31592 15.5207 6.39076 15.3399 6.52401 15.2066C6.65726 15.0735 6.83797 14.9987 7.02641 14.9987C7.21483 14.9987 7.39554 15.0735 7.52879 15.2066C7.66204 15.3399 7.73688 15.5207 7.73688 15.7091V15.9506C7.97371 18.03 9.80678 19.5788 11.9998 19.5788C14.1929 19.5788 16.0258 18.1057 16.2626 16.0265V11.8724L13.8945 9.56574V8.76999C13.8945 7.75163 13.0417 6.79011 11.9998 6.79011C10.9578 6.79011 10.1051 7.75163 10.1051 8.76999V11.0246L12.7102 13.6155V15.5197C12.7102 15.8986 12.393 16.2632 11.9998 16.2632C11.6067 16.2632 11.2893 15.9033 11.2893 15.5197V14.1934L8.92104 11.8108V8.21108C9.04418 6.66222 10.38 5.36914 11.9998 5.36914C12.7743 5.37555 13.5189 5.67016 14.088 6.19556C14.6571 6.72096 15.0103 7.4395 15.0786 8.21108V8.74631L17.6836 11.3041V11.3087Z" fill="white"/>
<path d="M16.9732 8.54183C17.3664 8.54183 17.6884 8.21975 17.6364 7.83135C17.4329 6.48371 16.7515 5.2542 15.7167 4.36723C14.6819 3.48026 13.3627 2.995 11.9998 3.00004C8.86419 3.00004 6.31592 5.47728 6.31592 8.54183V12.6721L8.92104 15.2394V15.7509C8.98864 16.5262 9.34042 17.2489 9.90882 17.7806C10.4771 18.3122 11.2218 18.615 11.9998 18.6307C12.7741 18.6232 13.518 18.3283 14.0869 17.8031C14.6559 17.278 15.0093 16.5601 15.0786 15.7888V12.3784L12.7102 10.0339V8.44237C12.7091 8.34907 12.6894 8.25692 12.6525 8.1712C12.6157 8.08547 12.5624 8.00785 12.4954 7.94276C12.4286 7.87767 12.3496 7.82637 12.2629 7.79181C12.1763 7.75726 12.0836 7.7401 11.9903 7.74135C11.897 7.7426 11.8049 7.76221 11.7192 7.79906C11.6335 7.83592 11.5558 7.8893 11.4908 7.95615C11.4257 8.02301 11.3744 8.10203 11.3397 8.1887C11.3052 8.27537 11.2881 8.36801 11.2893 8.46132V10.5881L13.8945 13.193V15.4903C13.8754 16.4993 13.0324 17.2097 11.9998 17.2097C10.9672 17.2097 10.1289 16.4614 10.1147 15.4572H10.1051V14.4342L7.73688 12.1416V8.54183C7.73688 6.24459 9.64572 4.42102 11.9998 4.42102C12.988 4.40988 13.949 4.74472 14.7162 5.36754C15.4837 5.99037 16.0087 6.86197 16.2011 7.83135C16.2674 8.21975 16.5801 8.54183 16.9732 8.54183Z" fill="white"/>
</g>
<defs>
<clipPath id="clip0_328_33093">
<rect width="24" height="24" fill="white"/>
</clipPath>
</defs>
</svg>
