<svg width="24" height="24" viewBox="0 0 24 24" fill="none" xmlns="http://www.w3.org/2000/svg">
<g clip-path="url(#clip0_328_33114)">
<path d="M24 0H0V24H24V0Z" fill="white"/>
<path d="M15.1016 4.62724C15.111 4.64137 15.1016 4.65547 15.0827 4.67429C14.6076 5.30281 14.0922 5.89987 13.5399 6.46179C13.5023 6.49472 13.4553 6.49941 13.4082 6.49C12.9661 6.43356 12.5755 6.39593 12.2369 6.36301C11.7617 6.31597 11.3337 6.31597 10.8021 6.32537C10.3716 6.33053 9.94396 6.39705 9.53212 6.52293C9.14342 5.91116 8.59096 5.42063 7.9375 5.10704C9.01158 4.47417 10.2188 4.10119 11.4627 4.01787C12.7065 3.93457 13.9527 4.14325 15.1016 4.62724Z" fill="#FF8003"/>
<path d="M16.7156 5.62063C16.787 6.58711 16.5935 7.55475 16.1559 8.41947C16.1417 8.45239 16.1182 8.51354 16.0853 8.55587C16.0711 8.57468 16.0476 8.57939 16.0242 8.56998C15.8156 8.46075 15.5895 8.3891 15.3562 8.35831C15.355 8.36046 15.3543 8.36288 15.3543 8.36537C15.3543 8.36785 15.355 8.37028 15.3562 8.37243C15.5419 8.55551 15.7207 8.74536 15.8924 8.9416C16.0006 9.0639 16.0947 9.1909 16.1794 9.32262L16.5415 9.92003C17.053 10.8052 17.4108 11.7707 17.5999 12.7752C17.6831 13.1347 17.6603 13.5106 17.5341 13.8572C17.3835 13.6586 17.1923 13.4943 16.9733 13.375C16.7543 13.2557 16.5126 13.1844 16.2639 13.1657C16.2547 13.1092 16.2594 13.0622 16.2639 13.0292C16.3582 12.5024 16.3911 11.971 16.3722 11.4441C16.3433 11.0753 16.2978 10.7081 16.2358 10.3434C16.2101 10.1774 16.1707 10.0138 16.1182 9.85417C16.1135 9.85417 16.1087 9.85417 16.1087 9.84473V9.82596C16.0788 9.79177 16.0535 9.75381 16.0335 9.71305V9.69422C16.0335 9.67071 16.0242 9.64719 16.01 9.62367C15.9923 9.59462 15.9796 9.56282 15.9723 9.52958C15.9715 9.52103 15.9682 9.5129 15.963 9.50607C15.9419 9.48487 15.9257 9.45915 15.9159 9.4308C15.9039 9.39583 15.8847 9.36379 15.8595 9.33673C15.8399 9.31506 15.8225 9.2914 15.8077 9.26616C15.79 9.23616 15.766 9.21046 15.7371 9.1909C15.7098 9.17544 15.6858 9.15464 15.6667 9.12976L15.549 8.98864H15.5255C15.5226 8.99082 15.5203 8.99367 15.5186 8.99694C15.517 9.0002 15.5161 9.0038 15.5161 9.00745C15.5161 9.03567 15.5067 9.05919 15.4831 9.08272C15.5017 9.01368 15.495 8.94032 15.4644 8.87574C15.4126 8.78166 15.3327 8.68758 15.2291 8.59821C14.9403 8.35128 14.6209 8.14257 14.2789 7.97729C14.119 7.90673 13.9496 7.88321 13.7708 7.91144C13.6391 7.93496 13.5451 7.99141 13.4557 8.08548C13.4136 8.1285 13.3816 8.18039 13.362 8.23735C13.3425 8.29432 13.3359 8.35493 13.3428 8.41476C13.3663 8.60761 13.5216 8.78166 13.6768 8.88986L13.8462 8.98864L14.0203 9.08272C13.832 9.19561 13.6768 9.33673 13.5592 9.50137C13.3651 9.76378 13.2762 10.0893 13.3099 10.414C13.3288 10.6444 13.357 10.889 13.3899 11.1524C13.4181 11.3876 13.4745 11.5899 13.5545 11.7592C13.6533 11.9755 13.8179 12.1826 13.9449 12.3848C13.9779 12.4413 14.0203 12.446 14.0719 12.4083C14.0954 12.3895 14.1001 12.3707 14.0907 12.3425L14.0155 12.1731C13.9371 12.0248 13.8663 11.8726 13.8038 11.7168C13.7568 11.604 13.7427 11.4771 13.7239 11.3594C13.7239 11.3406 13.7239 11.3359 13.7427 11.3453L13.8273 11.4112C14.1331 11.637 14.5471 11.7734 14.9139 11.6934C15.23 11.6427 15.5196 11.4863 15.7349 11.2496C15.9504 11.0128 16.0788 10.7099 16.0993 10.3905C16.1182 10.428 16.1276 10.4751 16.1229 10.5315C16.1151 10.5851 16.1056 10.6384 16.0947 10.6914C16.0871 10.7099 16.0808 10.7286 16.0759 10.748C16.0663 10.7773 16.0537 10.8058 16.0382 10.8326C16.0295 10.8504 16.0233 10.8694 16.0195 10.889C15.9437 11.046 15.8489 11.1928 15.7371 11.3264C15.7183 11.3735 15.6902 11.4018 15.6431 11.4065C15.6388 11.4063 15.6346 11.4077 15.6312 11.4102C15.6278 11.4127 15.6254 11.4164 15.6243 11.4205C15.6192 11.432 15.6111 11.4418 15.6008 11.4487C15.5891 11.458 15.5766 11.4659 15.5631 11.4723C15.5454 11.4799 15.5294 11.4911 15.5161 11.5052L15.5067 11.5099H15.502C15.4919 11.5099 15.4819 11.5132 15.4737 11.5193C15.3985 11.5804 15.3138 11.6228 15.2244 11.651C15.2099 11.655 15.1967 11.6631 15.1868 11.6746C15.1586 11.7075 15.1868 11.7592 15.1963 11.8016C15.2432 12.1967 15.2291 12.6106 15.2291 13.0058C15.2291 13.0763 15.2103 13.1563 15.1821 13.2551C14.8669 13.3492 14.5564 13.4857 14.2507 13.6503C14.1085 13.7268 13.9673 13.8052 13.8273 13.8855L13.8132 13.8761C13.5482 13.1817 13.1646 12.5387 12.6796 11.9755C12.48 11.737 12.249 11.5264 11.9928 11.35C11.7673 11.1954 11.5178 11.0794 11.2544 11.0066C11.0665 10.9525 10.869 10.9397 10.6757 10.969C10.2308 11.033 9.81299 11.2223 9.4715 11.5146C8.90135 11.9899 8.41896 12.5615 8.04621 13.2033C7.96522 13.3346 7.88525 13.4663 7.80631 13.5985C7.80375 13.5991 7.80107 13.5991 7.79858 13.5982C7.79608 13.5973 7.79387 13.5959 7.79219 13.5938C7.71343 13.4915 7.63025 13.3926 7.54289 13.2974L7.06308 12.7799C7.2042 12.6388 7.33591 12.4742 7.46763 12.319C7.58992 12.1731 7.69341 11.9897 7.77808 11.7827C7.94388 11.3177 8.06978 10.8392 8.15439 10.3528C8.18062 10.0308 8.09777 9.70939 7.9192 9.44022C8.14499 9.39318 8.37077 9.35555 8.58245 9.28968C8.89761 9.19561 9.22689 9.09212 9.29274 8.7205C9.30458 8.65271 9.29454 8.58291 9.2641 8.52119C9.23366 8.45947 9.18439 8.40902 9.12341 8.37712C8.93054 8.26424 8.73298 8.27363 8.51661 8.3395C8.29678 8.40472 8.09961 8.53018 7.94743 8.7017L7.78748 8.86163C7.7619 8.88049 7.73326 8.89481 7.70281 8.90397C8.00029 8.41728 8.33362 7.95344 8.70005 7.51631C8.93797 7.22749 9.24556 7.00407 9.59381 6.86716C10.0125 6.71193 10.53 6.679 11.005 6.69312C11.9039 6.71726 12.7971 6.8435 13.6674 7.06943C13.7159 7.01446 13.7584 6.95456 13.7943 6.89068L14.0295 6.44851C14.1519 6.22273 14.3024 5.99223 14.4858 5.75233C14.8011 5.34309 15.0879 4.9997 15.342 4.73158L15.6855 4.41641C15.8124 4.30352 16.0242 4.14359 16.2028 4.21414C16.4051 4.29411 16.4899 4.47756 16.551 4.67513C16.6498 4.98558 16.7015 5.30075 16.7156 5.62532V5.62063ZM7.6746 5.43246C7.9098 5.52653 8.14499 5.61121 8.36137 5.76174C8.69502 6.00481 8.97521 6.31381 9.18456 6.6696C9.18456 6.679 9.17986 6.68841 9.17044 6.69312C8.8788 6.88128 8.61538 7.10236 8.37548 7.36108L8.40842 7.29052C8.41782 7.26701 8.43663 7.24349 8.45545 7.22937C8.5045 7.17785 8.55156 7.12449 8.59657 7.06943C8.59657 7.04121 8.57775 7.02239 8.56834 6.99887C8.55893 6.96123 8.53072 6.93773 8.51661 6.9048C8.43663 6.74486 8.33785 6.5614 8.22025 6.35913C8.17321 6.26977 8.09325 6.16158 7.98505 6.03456C7.89325 5.91895 7.77777 5.82432 7.64637 5.75703C7.58992 5.73352 7.53818 5.70999 7.48644 5.70529C7.42394 5.69304 7.36122 5.68207 7.29828 5.67236C7.24768 5.66551 7.19619 5.67032 7.14775 5.68648C7.12518 5.72532 7.10322 5.76453 7.0819 5.80407C7.07454 5.82845 7.07136 5.85389 7.0725 5.87934C7.0725 5.88404 7.0725 5.88874 7.06308 5.88874H7.02075C7.01605 5.88874 7.01134 5.89345 7.01605 5.89815L7.03016 5.9499V5.97341C7.03016 5.99693 7.03016 6.02045 7.03957 6.04397C7.05368 6.07689 7.03957 6.10982 7.05368 6.14747L7.0866 6.28387L7.11483 6.37324C7.13364 6.41558 7.14305 6.45792 7.14305 6.50025C7.14305 6.50967 7.14775 6.51436 7.15716 6.52377L7.16657 6.5426V6.5661C7.18538 6.66019 7.21361 6.76367 7.24654 6.85775C7.25595 6.88128 7.26535 6.9048 7.27006 6.93773C7.28416 6.98476 7.29828 7.0271 7.30298 7.06943C7.30768 7.09765 7.30768 7.12117 7.32181 7.14939V7.19643C7.29955 7.12389 7.27603 7.05176 7.25123 6.98006C7.22771 6.93773 7.24183 6.88598 7.21831 6.85305C7.21018 6.83911 7.20233 6.82499 7.19479 6.81071C7.18145 6.78728 7.17192 6.76188 7.16657 6.73545C7.15525 6.6904 7.14583 6.64488 7.13835 6.59904C7.13417 6.59715 7.13082 6.5938 7.12893 6.58963C7.11953 6.54259 7.12423 6.50024 7.11483 6.46262C7.08824 6.36853 7.06159 6.27445 7.03486 6.18039C7.03016 6.18039 7.02545 6.18039 7.02075 6.17099C7.00267 6.11999 6.98697 6.06819 6.97372 6.01575C6.95696 5.97703 6.94741 5.93558 6.94549 5.89345C6.94549 5.86522 6.94548 5.8417 6.93608 5.81819C6.92697 5.74777 6.91913 5.6772 6.91256 5.60651C6.90136 5.56505 6.89505 5.52242 6.89375 5.47949C6.89402 5.4522 6.88924 5.42509 6.87963 5.39953C6.86121 5.35164 6.85474 5.29997 6.86082 5.24901C6.86082 5.2396 6.86082 5.2396 6.87023 5.2396H6.92197L6.87963 5.2349H6.86082C6.8373 5.25371 6.82789 5.27723 6.8373 5.30545L6.8467 5.35249C6.8467 5.39953 6.8467 5.43716 6.85611 5.4748L6.86552 5.54536C6.86552 5.59711 6.88434 5.65356 6.91256 5.71L6.92197 5.73352V5.80407L6.93137 5.87463C6.93137 5.90755 6.93608 5.94518 6.9502 5.98752C6.99886 6.13667 7.0366 6.28917 7.06308 6.44381L7.11012 6.62255C7.12423 6.65547 7.12893 6.68841 7.13364 6.72134L7.16186 6.82012C7.17127 6.83895 7.17598 6.86246 7.17598 6.88128C7.17598 6.90009 7.18068 6.92361 7.19009 6.94242L7.20891 7.02239C7.20891 7.04591 7.21831 7.06943 7.22771 7.10236C7.26311 7.19696 7.28988 7.29457 7.30768 7.394C7.30298 7.40341 7.29828 7.40341 7.29357 7.394L7.28416 7.36108V7.35636L7.27946 7.30933C7.25962 7.24693 7.24081 7.1842 7.22302 7.12117C7.21432 7.10961 7.2049 7.09861 7.19479 7.08825C7.18935 7.08341 7.18598 7.07668 7.18538 7.06943V6.99418C7.18538 6.98946 7.18538 6.98476 7.17598 6.98476H7.16657V6.97066C7.16657 6.95183 7.16186 6.93773 7.14775 6.92361C7.14494 6.92047 7.143 6.91663 7.14218 6.91249C7.14135 6.90835 7.14165 6.90407 7.14305 6.90009L7.13835 6.83423C7.11953 6.78719 7.11483 6.73075 7.11483 6.679C7.10293 6.6536 7.09039 6.6285 7.0772 6.60374C7.0712 6.58048 7.06168 6.55827 7.04898 6.53788C7.0458 6.42908 7.0268 6.32133 6.99253 6.21802C6.98839 6.20452 6.98204 6.1918 6.97372 6.18039C6.96806 6.17412 6.96421 6.16643 6.96256 6.15816C6.96091 6.14988 6.96151 6.14131 6.9643 6.13335L6.9596 6.11453C6.95436 6.10803 6.95076 6.10035 6.94912 6.09217C6.94748 6.08397 6.94784 6.0755 6.9502 6.06749L6.94549 6.04868L6.90316 5.98282C6.8467 5.70529 6.79496 5.42776 6.75732 5.14553C6.75732 5.13612 6.77144 5.13141 6.79497 5.13612C7.11012 5.19726 7.35943 5.30075 7.6746 5.43246Z" fill="#FFA403"/>
<path d="M15.529 8.31529C15.4982 8.30479 15.4695 8.28886 15.4443 8.26825C15.1998 8.0848 14.9411 7.90134 14.7247 7.68027C14.5553 7.49681 14.4283 7.33687 14.4188 7.08286C14.4095 6.88059 14.5695 6.6642 14.7152 6.49957C14.9183 6.2715 15.122 6.04415 15.3267 5.81751C15.3926 5.75635 15.4538 5.67638 15.5196 5.61523C15.6137 5.52116 15.7124 5.43178 15.8018 5.333C15.8394 5.29536 15.8818 5.25774 15.9289 5.22481C16.0135 5.16836 16.0511 5.22481 16.1028 5.29066C16.1876 5.39886 16.244 5.51646 16.2769 5.63876C16.3443 5.95554 16.3727 6.27937 16.3615 6.60306L16.357 6.92762C16.3466 7.05972 16.3325 7.19149 16.3146 7.32277L16.3193 7.34628C16.3193 7.35569 16.3193 7.36039 16.3286 7.3698C16.3428 7.38862 16.3475 7.41684 16.3428 7.44036L16.3286 7.50622C16.3193 7.56267 16.324 7.61441 16.3051 7.67086C16.2762 7.76882 16.2447 7.86605 16.211 7.96249L16.2016 7.9672L16.1876 8.03775L16.1782 8.05658C16.1578 8.07486 16.1418 8.09734 16.131 8.12244C16.0585 8.1958 15.9879 8.27109 15.9194 8.34822C15.9194 8.35762 15.9194 8.36233 15.91 8.36703C15.863 8.39055 15.8159 8.40467 15.7689 8.39996C15.7126 8.39765 15.6575 8.3815 15.609 8.35292C15.584 8.33713 15.5571 8.32448 15.529 8.31529ZM8.3743 7.36039C8.08294 7.67792 7.81266 8.01418 7.56524 8.36703C7.52854 8.28604 7.49712 8.20277 7.47115 8.11773C7.24536 7.41213 7.05721 6.70655 6.90669 5.98215L6.94431 6.048V6.06682C6.94431 6.08563 6.94431 6.09974 6.95843 6.11386C6.96313 6.12327 6.96784 6.12796 6.96313 6.13738C6.96313 6.15148 6.96313 6.16559 6.97254 6.17971L6.99136 6.21734C7.02562 6.32065 7.04463 6.4284 7.0478 6.53721L7.08073 6.60306L7.09013 6.63129C7.09812 6.64688 7.10596 6.66257 7.11366 6.67832C7.11366 6.73007 7.11836 6.78181 7.13718 6.83355C7.13718 6.85236 7.14188 6.88059 7.13718 6.8994C7.13718 6.90881 7.13718 6.91352 7.14659 6.91822C7.16069 6.93704 7.1654 6.95114 7.16069 6.96998L7.1654 6.98408H7.1748C7.17951 6.98408 7.18421 6.98408 7.18421 6.9935V7.06875C7.18421 7.07816 7.18421 7.08286 7.19361 7.08757L7.22184 7.1252C7.2422 7.20403 7.26415 7.28245 7.2877 7.36039L7.29239 7.39332C7.29711 7.40273 7.30181 7.40273 7.30651 7.39332V7.3745C7.2877 7.28042 7.25947 7.18635 7.22654 7.10168C7.21741 7.07578 7.2111 7.04897 7.20773 7.02171C7.20404 6.99451 7.19774 6.96774 7.18892 6.94174C7.18133 6.92214 7.17658 6.90155 7.1748 6.88059C7.17374 6.85953 7.16896 6.83883 7.16069 6.81943C7.14718 6.78783 7.13769 6.75464 7.13247 6.72065C7.13247 6.68772 7.12306 6.6548 7.10895 6.62188C7.08871 6.56359 7.07299 6.50383 7.06191 6.44314L7.03839 6.2973C7.01488 6.19852 6.98665 6.09503 6.94902 5.98684C6.93681 5.95045 6.93045 5.91234 6.9302 5.87394C6.9302 5.85043 6.9302 5.82691 6.92079 5.80339V5.73283L6.91609 5.70932C6.88781 5.65884 6.8717 5.60247 6.86906 5.54468L6.85494 5.47412C6.84084 5.43649 6.85024 5.39415 6.84554 5.35653C6.84554 5.3377 6.84554 5.31888 6.83613 5.30477C6.82672 5.27654 6.83613 5.25302 6.85965 5.23891L6.87846 5.23422H6.9255V5.23891H6.86906C6.86434 5.23891 6.85965 5.23891 6.85965 5.24832C6.85024 5.30477 6.85965 5.35652 6.87846 5.39886C6.88786 5.42708 6.89257 5.4506 6.89257 5.47882C6.89257 5.52585 6.89727 5.56349 6.90669 5.60583L6.92079 5.67639C6.92731 5.74864 6.93516 5.82079 6.94431 5.89277C6.94431 5.9304 6.95372 5.97273 6.97254 6.01507L6.99605 6.09034L7.01957 6.1703L7.03369 6.17971H7.04309V6.18911L7.11366 6.46195C7.12306 6.49957 7.11366 6.54661 7.12776 6.58895L7.13718 6.59837H7.14188L7.14659 6.60777L7.1654 6.73477C7.17011 6.76299 7.17951 6.78651 7.19361 6.81003L7.21714 6.85236C7.24066 6.88999 7.22654 6.93704 7.25006 6.97938C7.26418 6.99819 7.26888 7.02171 7.27829 7.04523C7.29455 7.09522 7.31024 7.1454 7.32532 7.19576L7.32063 7.14871C7.30651 7.1205 7.30651 7.09698 7.30181 7.06875C7.30181 7.02171 7.28299 6.97939 7.27359 6.93704C7.26607 6.90975 7.25663 6.88303 7.24536 6.85707C7.20162 6.74961 7.17006 6.63759 7.15128 6.52309C7.14799 6.52018 7.14543 6.51654 7.1438 6.51245C7.14216 6.50837 7.1415 6.50396 7.14188 6.49957C7.13955 6.45597 7.13001 6.41305 7.11366 6.37257C7.10144 6.34212 7.09199 6.31063 7.08543 6.27849L7.0525 6.14678C7.04309 6.10915 7.0525 6.07622 7.0384 6.04329C7.02966 6.02087 7.02644 5.99667 7.02898 5.97273V5.94922L7.01488 5.90218L7.01957 5.88806H7.06191C7.06661 5.88806 7.07132 5.88807 7.07132 5.87865C7.07132 5.83632 7.07132 5.8128 7.08073 5.80339C7.10204 5.76384 7.124 5.72464 7.14659 5.6858C7.19361 5.67168 7.24536 5.66697 7.29711 5.67168L7.48527 5.7046C7.53231 5.71401 7.58874 5.73283 7.6452 5.75635C7.76749 5.81751 7.8804 5.91159 7.98859 6.03859C8.07586 6.13839 8.15454 6.2454 8.22379 6.35845C8.33667 6.56073 8.43547 6.74417 8.51543 6.90411C8.52954 6.93704 8.55776 6.96056 8.56717 6.99819C8.57658 7.02171 8.5954 7.04053 8.5954 7.06875L8.59069 7.08757L8.44958 7.22868C8.43181 7.24628 8.41745 7.26701 8.40724 7.28983L8.3743 7.36039Z" fill="#FF8003"/>
<path d="M6.44657 6.25474C6.51242 6.56519 6.57828 6.88977 6.64883 7.17672C6.79936 7.7647 6.9593 8.29154 7.16626 8.81369C7.1787 8.8437 7.18664 8.87541 7.18978 8.90776C7.18978 8.94069 7.18038 8.9548 7.15215 8.95949C7.03456 8.98301 6.92637 8.98301 6.81347 9.01124C6.62531 9.06299 6.46068 9.15236 6.32897 9.26995C6.09173 9.48087 5.92487 9.75944 5.85086 10.0681C5.77684 10.3768 5.79924 10.7008 5.91502 10.9963C5.93383 11.0434 5.92443 11.0811 5.90091 11.1233C5.74028 11.3904 5.57878 11.6569 5.4164 11.923C5.19757 12.2844 5.0745 12.6956 5.0589 13.1178C5.0495 13.4235 5.07302 13.7152 5.13416 13.9927C5.22826 14.416 5.39289 14.8394 5.63278 15.2581C6.03587 16.0013 6.58651 16.6544 7.25093 17.1773C7.69387 17.5369 8.21645 17.7853 8.77501 17.9017C9.22659 17.9958 9.63583 18.0569 10.0028 18.0852C11.3255 18.174 12.6533 18.0209 13.9212 17.6336C15.1033 17.2352 16.1882 16.5926 17.1057 15.7473C17.3787 15.4915 17.6203 15.2041 17.8254 14.8911C17.9901 14.6512 18.1218 14.383 18.2206 14.0867C18.371 13.6447 18.3899 13.193 18.3006 12.732C18.1934 12.1702 18.0262 11.6214 17.8019 11.0951C17.4681 10.3326 17.0499 9.61001 16.5554 8.94069C16.5177 8.88424 16.4895 8.86072 16.5224 8.78546C16.9094 7.91018 17.0866 6.9566 17.0398 6.00072L17.0351 5.81257C17.034 5.80952 17.034 5.8062 17.0351 5.80316C17.0373 5.80192 17.0397 5.80127 17.0421 5.80127C17.0446 5.80127 17.047 5.80192 17.0493 5.80316C17.4414 6.11214 17.7995 6.46223 18.117 6.84743C19.0259 7.92361 19.6316 9.22257 19.8717 10.6105C20.1149 11.9697 20.0016 13.3687 19.5427 14.6709C19.0837 15.9731 18.2949 17.1342 17.253 18.0403C16.2113 18.9465 14.9523 19.5668 13.5992 19.841C12.2459 20.1152 10.8446 20.0338 9.53235 19.6045C7.61893 18.9781 6.01085 17.6556 5.02711 15.8988C4.04337 14.1423 3.75586 12.08 4.2216 10.1214C4.54617 8.77605 5.21883 7.5342 6.15962 6.52756C6.23959 6.43348 6.33367 6.35822 6.41365 6.26415C6.42305 6.25003 6.43715 6.24533 6.44657 6.25474Z" fill="#FF8003"/>
<path d="M15.4831 9.07608L15.4784 9.14663C15.2641 9.00451 15.0149 8.92369 14.7578 8.91291C14.5008 8.90213 14.2458 8.9618 14.0203 9.08549C13.9634 9.05075 13.9053 9.01779 13.8462 8.98671L13.6768 8.89263C13.5216 8.77974 13.3663 8.61039 13.3475 8.40812C13.3407 8.34941 13.3469 8.28991 13.3656 8.23383C13.3843 8.17776 13.415 8.12648 13.4557 8.08355C13.545 7.98948 13.6438 7.93303 13.771 7.90951C13.9498 7.88599 14.1191 7.9048 14.279 7.97536L14.5235 8.09767C14.7745 8.24044 15.0107 8.40744 15.2292 8.59628C15.3326 8.69037 15.4125 8.78444 15.4644 8.87852C15.4925 8.93496 15.502 9.00081 15.4831 9.08079V9.07608ZM7.91919 9.43358C7.82077 9.30361 7.70158 9.19076 7.56641 9.09961V9.09019L7.70282 8.89734C7.74986 8.88322 7.77338 8.86911 7.78748 8.855L7.94742 8.69506C8.10073 8.52261 8.29967 8.39705 8.5213 8.33286C8.73298 8.26701 8.93054 8.2576 9.12341 8.3705C9.2457 8.44105 9.32097 8.56805 9.29275 8.71389C9.22689 9.08549 8.89761 9.19369 8.58715 9.28306C8.37077 9.34892 8.14499 9.39125 7.91919 9.43358Z" fill="white"/>
<path d="M16.2586 13.1706C15.8918 13.1094 15.5483 13.1658 15.1766 13.2554C15.2096 13.1611 15.2285 13.0766 15.2285 13.0059C15.2285 12.6107 15.2379 12.1969 15.1955 11.8018C15.1908 11.7594 15.1579 11.7077 15.1861 11.6747C15.196 11.6632 15.2091 11.6551 15.2238 11.6511C15.3131 11.623 15.3978 11.5806 15.473 11.5194C15.4825 11.5123 15.4942 11.5089 15.5059 11.5101H15.5154C15.5282 11.4943 15.5442 11.4814 15.5625 11.4725C15.5758 11.4661 15.5885 11.4582 15.6001 11.4489C15.6104 11.4419 15.6186 11.4322 15.6236 11.4206C15.6236 11.4113 15.633 11.4066 15.6424 11.4066C15.6894 11.4066 15.7177 11.3784 15.7364 11.3266C15.7364 11.3218 15.7411 11.3126 15.7506 11.3126C15.781 11.2963 15.8044 11.2695 15.8165 11.2372C15.8165 11.2325 15.8212 11.223 15.8306 11.223L15.8399 11.209L15.8494 11.1902C15.9139 11.0946 15.9705 10.9939 16.0187 10.8891C16.0225 10.8695 16.0288 10.8506 16.0375 10.8326C16.0529 10.8059 16.0656 10.7774 16.0751 10.7481C16.0801 10.7287 16.0863 10.71 16.094 10.6915C16.1049 10.637 16.1144 10.5821 16.1222 10.5269C16.1294 10.4786 16.1212 10.4292 16.0986 10.3859C16.1108 10.0422 15.9971 9.70602 15.7788 9.44035C15.6894 9.33248 15.5884 9.23469 15.4778 9.1487L15.4825 9.08284C15.5059 9.05932 15.5154 9.0358 15.5154 9.00759V8.99818L15.5248 8.98877H15.5483L15.666 9.12988C15.6847 9.15341 15.713 9.17693 15.7364 9.19103C15.7553 9.20045 15.7835 9.22866 15.807 9.26629L15.8541 9.33217C15.887 9.36039 15.901 9.39331 15.9152 9.43094C15.9293 9.45917 15.9434 9.48738 15.9623 9.50621C15.9674 9.51303 15.9708 9.52117 15.9716 9.52972C15.981 9.56265 15.9905 9.59087 16.0093 9.6238C16.0234 9.64732 16.0281 9.67085 16.0281 9.69436V9.71317L16.1033 9.83082V9.84487L16.1175 9.85431H16.1269C16.1878 10.0425 16.2305 10.2364 16.2539 10.4328L16.2727 10.5269C16.3338 10.9973 16.3668 11.2984 16.3715 11.4442C16.3904 11.971 16.3574 12.5025 16.2633 13.0294C16.2573 13.0763 16.2558 13.1235 16.2586 13.1706Z" fill="#FF8003"/>
<path d="M14.697 11.2215C14.8214 11.2305 14.9463 11.2137 15.064 11.1723C15.1817 11.1309 15.2895 11.0657 15.3807 10.9807C15.472 10.8958 15.5449 10.7929 15.5948 10.6786C15.6444 10.5642 15.6701 10.4408 15.6701 10.316C15.6701 10.1913 15.6444 10.068 15.5948 9.9536C15.5449 9.83925 15.472 9.73639 15.3807 9.65141C15.2895 9.56646 15.1817 9.50122 15.064 9.45979C14.9463 9.41834 14.8214 9.40159 14.697 9.41055C14.4681 9.42707 14.254 9.52963 14.0976 9.69763C13.9412 9.86558 13.8545 10.0866 13.8545 10.316C13.8545 10.5455 13.9412 10.7665 14.0976 10.9345C14.254 11.1024 14.4681 11.205 14.697 11.2215ZM6.28166 10.1867C6.16877 10.6899 6.39926 11.1651 6.78498 11.2497C7.17541 11.3345 7.57524 10.9958 7.68813 10.4971C7.79633 9.99389 7.57054 9.51874 7.18011 9.43407C6.79438 9.34941 6.38985 9.6881 6.28166 10.1867Z" fill="white"/>
<path d="M6.97834 12.6985C6.65334 12.3755 6.28435 12.1 5.88232 11.8801L6.07049 11.5508L6.15986 11.4098C6.16131 11.4072 6.16334 11.4049 6.16579 11.4033C6.16824 11.4018 6.17104 11.4007 6.17396 11.4004H6.18338L6.19279 11.4051C6.37185 11.5796 6.60789 11.684 6.85758 11.6985C7.10729 11.7132 7.35391 11.6374 7.55223 11.4849H7.56163L7.56634 11.4896V11.4944C7.56634 11.532 7.55223 11.5697 7.54282 11.6073C7.47074 11.8702 7.35635 12.1197 7.20412 12.3458L6.97834 12.6892V12.6985Z" fill="#FFA403"/>
<path d="M16.2594 13.1697C15.8924 13.1085 15.549 13.1649 15.1774 13.2544C14.867 13.3485 14.5565 13.4849 14.2509 13.6495C14.1086 13.726 13.9674 13.8045 13.8274 13.8847C13.8231 13.885 13.8189 13.8836 13.8155 13.881C13.8121 13.8785 13.8097 13.8748 13.8086 13.8706C13.5436 13.1762 13.16 12.5333 12.675 11.9702C12.4784 11.7322 12.2505 11.5218 11.9976 11.3446C11.7722 11.1901 11.5225 11.0739 11.259 11.0012C11.0712 10.9471 10.8738 10.9343 10.6805 10.9635C10.2354 11.0273 9.81767 11.2166 9.47627 11.5093C8.90614 11.9845 8.42375 12.556 8.05098 13.1978C7.96999 13.329 7.89002 13.4607 7.81108 13.5929C7.80853 13.5937 7.80586 13.5935 7.80336 13.5926C7.80086 13.5919 7.79866 13.5904 7.79698 13.5882C7.71821 13.486 7.63503 13.3871 7.54766 13.2919L7.06786 12.7745L6.98319 12.6946C6.65613 12.3745 6.28558 12.1022 5.88246 11.8855C5.70338 12.1474 5.5797 12.4432 5.51904 12.7545C5.45837 13.0661 5.46198 13.3865 5.52967 13.6965C5.61434 14.1152 5.77898 14.5245 6.02358 14.9196C6.44695 15.6205 7.03493 16.2414 7.68877 16.7259C7.97102 16.9376 8.3144 17.0833 8.6625 17.1728C9.06704 17.2809 9.4951 17.342 9.94192 17.3562C10.6805 17.3797 11.419 17.3279 12.1435 17.2151C12.8819 17.0985 13.6058 16.9029 14.3025 16.6318C14.8157 16.412 15.3071 16.1441 15.77 15.8321C16.2695 15.5059 16.7139 15.1027 17.0872 14.6374C17.2755 14.3975 17.426 14.1341 17.5342 13.8565C17.3836 13.6577 17.1924 13.4934 16.9733 13.3741C16.7543 13.2549 16.5126 13.1837 16.2639 13.1649L16.2594 13.1697ZM10.798 12.8968C10.7486 12.9195 10.7067 12.956 10.6775 13.0019C10.6483 13.0478 10.633 13.1012 10.6334 13.1556C10.6334 13.2497 10.5253 13.3061 10.4547 13.3343C10.3794 13.3625 10.2995 13.3766 10.2195 13.3766C10.1395 13.3766 9.99845 13.3296 10.0219 13.2214C10.0454 13.1273 10.069 13.0379 10.0031 12.9533C9.96552 12.9062 9.909 12.8593 9.84785 12.8263L9.56565 12.6617C9.38691 12.5534 9.23637 12.3606 9.23637 12.1442C9.23637 11.9184 9.44335 11.8385 9.6315 11.8149C9.92788 11.7773 10.2195 11.7585 10.5111 11.7538C10.8027 11.7538 11.099 11.7773 11.3672 11.9044C11.4997 11.9678 11.6129 12.0653 11.6955 12.1866C11.7782 12.3082 11.8273 12.4493 11.8377 12.5958C11.8471 12.8216 11.6495 13.0097 11.4143 12.9345C11.3368 12.9079 11.2583 12.8844 11.1791 12.8638C11.0379 12.8263 10.911 12.8404 10.798 12.8968ZM9.08115 14.5621C9.17993 14.6185 9.2693 14.6561 9.38691 14.6703C9.47158 14.6844 9.58447 14.6844 9.73028 14.6703C10.0925 14.6467 10.4594 14.6091 10.8027 14.5621C11.4813 14.5025 12.1645 14.5183 12.8396 14.6091H12.8632C12.9573 14.6233 13.0231 14.6327 13.0795 14.7079C13.103 14.7362 13.1077 14.7785 13.103 14.8255C13.0889 14.9337 12.9807 14.9901 12.8819 14.9667C12.3693 14.8396 11.8424 14.7737 11.2966 14.7644C10.9391 14.7597 10.5911 14.8021 10.2477 14.8443L10.116 14.8632L9.85257 14.882L9.03411 14.8914C8.94944 14.8914 8.89299 14.8537 8.87888 14.7785C8.86807 14.7374 8.8731 14.6937 8.89299 14.6561C8.92592 14.5903 9.00118 14.5245 9.08115 14.5621Z" fill="white"/>
</g>
<defs>
<clipPath id="clip0_328_33114">
<rect width="24" height="24" fill="white"/>
</clipPath>
</defs>
</svg>
