<svg width="24" height="24" viewBox="0 0 24 24" fill="none" xmlns="http://www.w3.org/2000/svg">
<g clip-path="url(#clip0_328_31086)">
<path d="M24 0H0V24H24V0Z" fill="white"/>
<path d="M12 21C16.9706 21 21 16.9706 21 12C21 7.02942 16.9706 3 12 3C7.02942 3 3 7.02942 3 12C3 16.9706 7.02942 21 12 21Z" fill="#FB8016"/>
<path d="M7.21965 10.024L6.16083 12.8458C6.04965 13.8092 5.85378 15.7681 5.98083 15.8792C6.13967 16.0169 14.9386 17.4146 15.3356 17.3775C15.6532 17.351 17.2679 14.6881 18.0356 13.3592C17.7709 12.5969 17.2256 11.0298 17.2362 10.871C17.2467 10.7121 17.3685 10.2887 17.4267 10.0928C17.2679 10.061 16.8973 9.89165 16.7121 9.46807C16.479 8.93867 15.362 8.0069 14.5256 7.82691C13.6944 7.65219 12.4767 7.40338 10.9679 7.50925C10.0308 7.58739 9.13663 7.93694 8.39494 8.51514L7.21965 10.024Z" fill="url(#paint0_linear_328_31086)"/>
<path d="M13.0591 7.57373C16.0079 8.84433 17.5061 13.2279 16.5955 15.5149C16.2479 16.2602 15.7022 16.8957 15.0178 17.3519C15.1874 17.3732 15.2985 17.3837 15.3355 17.3785C15.6531 17.3519 17.2732 14.6891 18.0355 13.3602C17.74 12.5642 17.4749 11.7572 17.2414 10.9408C16.9768 10.0514 16.5955 9.29963 16.1455 8.7755C15.7762 8.43233 15.3521 8.1532 14.8908 7.94963C14.2892 7.78547 13.6772 7.66166 13.0591 7.57904V7.57373Z" fill="#333333"/>
<path d="M7.06055 11.703C7.06055 12.8837 8.34701 13.7677 8.99289 14.0536L10.5494 14.3924C10.7982 14.0748 11.444 13.4395 12.0157 13.4395C12.5929 13.4395 13.154 14.0164 13.3606 14.3025L14.5517 13.9954C17.0823 13.3971 16.934 11.9625 16.934 11.7825C16.934 11.6024 16.8759 9.98242 15.2876 9.98242C13.6994 9.98242 12.164 11.7825 12.0157 11.8353C10.941 10.6548 9.83459 9.98242 9.07231 9.98242C8.31524 9.98242 7.06055 10.2261 7.06055 11.703Z" fill="url(#paint1_linear_328_31086)"/>
<path d="M15.415 8.18921C15.1133 8.06215 14.5257 7.85568 14.2715 7.76568V7.51154C14.9787 6.53889 15.6933 5.5718 16.4157 4.61038C16.458 4.57862 17.2468 3.82685 17.7603 3.90626C18.2686 3.98038 18.311 4.39861 18.385 4.70038C18.4486 4.9492 18.4696 5.70096 18.4749 6.03979C18.258 6.72802 17.8026 8.19449 17.7232 8.56508C17.6439 8.93566 17.125 9.46508 16.8761 9.68742C16.5109 9.23744 15.7115 8.31096 15.415 8.18391V8.18921Z" fill="#544933"/>
<path d="M14.2232 7.78049L13.2227 7.56874L14.705 5.87461C14.832 5.70521 16.0074 4.68873 16.4308 4.43991C16.8544 4.18579 17.6751 4.0005 17.7225 4.13814C17.765 4.27579 17.5532 4.53519 17.5001 4.56168C17.4474 4.58814 16.092 5.44049 15.7267 5.69991C15.3561 5.95402 14.9009 6.83814 14.7527 7.10814C14.6309 7.31991 14.3501 7.64814 14.2232 7.78049Z" fill="#91775A"/>
<path d="M13.4399 7.59566L12.8999 7.55861L13.7046 6.82801L14.6152 5.79565L15.5363 4.90096C15.8381 4.67861 16.5422 4.18625 16.9605 4.00096C17.384 3.80507 17.6806 3.82095 17.7758 3.85271L17.7334 4.18624C16.6429 4.2233 15.2081 5.70566 14.9011 6.06565C14.6522 6.35154 13.8263 7.20389 13.4399 7.60095V7.59566Z" fill="#5E5346"/>
<path d="M9.63865 7.83922L7.18212 9.71328C7.18212 9.76631 7.09742 9.78217 6.75859 9.36391C6.33507 8.84508 5.99623 6.78039 5.92212 6.09745C5.84799 5.40922 6.32448 5.38275 7.08152 5.40392C7.68506 5.41451 9.04036 6.7698 9.63865 7.44216V7.83922Z" fill="#9D7B4E"/>
<path d="M6.27189 3.85804C6.02305 3.85275 5.84835 4.01158 5.79541 4.09097L6.93364 5.17098C7.93153 5.79308 8.92335 6.42488 9.90889 7.06627C9.93016 7.10333 10.0307 6.71157 10.0307 6.6745C10.0307 6.64804 9.639 6.18215 9.44836 5.9545L8.35777 4.8851C8.09305 4.68392 7.51071 4.2498 7.31482 4.15981C6.98692 4.00051 6.63419 3.89845 6.27189 3.85804Z" fill="#312F33"/>
<path d="M6.89078 5.59463C6.16548 6.49463 6.79548 8.61226 7.19784 9.55996C7.15019 9.81943 6.90136 10.0364 6.27136 8.83992C5.64136 7.64346 5.82136 5.38287 5.99078 4.40875C6.04371 4.24991 6.25548 3.95874 6.74784 4.03286C7.24018 4.10168 9.75484 6.41521 10.9513 7.55874C10.3744 7.61697 9.69134 7.82344 9.42136 7.91345C8.96077 7.20403 7.80136 5.74287 6.89078 5.59991V5.59463Z" fill="#82673C"/>
<path d="M6.46736 4.40877C6.4356 4.35581 6.11266 4.20757 5.95912 4.14404C5.84795 4.86405 5.63089 6.37816 5.64149 6.63228C5.65737 6.94993 6.25559 8.47463 6.27676 8.5964C6.28737 8.69699 6.47266 8.75523 6.56265 8.7711C6.47266 8.47993 6.2503 7.73876 6.08619 7.12992C5.92207 6.5158 6.13913 5.49404 6.26089 5.06522C6.3403 4.86404 6.49383 4.46169 6.46736 4.40877Z" fill="#F5B657"/>
<path d="M11.9572 7.35791C11.2955 7.35791 10.3902 7.60145 10.0195 7.71792C10.4432 7.64909 11.4331 7.50615 11.9572 7.50615C12.4815 7.50615 13.6355 7.68086 14.1438 7.76557C13.4331 7.54574 12.6994 7.40894 11.9572 7.35791Z" fill="black"/>
<path d="M7.1983 14.4886C7.26713 12.6513 6.4836 12.4236 6.08654 12.5349L5.55714 13.7261L5.25537 14.9013L5.30831 15.5049L5.77419 16.3519L6.80126 17.1832L8.67007 18.0726L11.2218 18.9355L11.926 18.9885C14.0118 18.9143 16.1083 17.739 17.3101 17.0243C18.2737 16.4526 18.6337 15.6743 18.6971 15.362L18.7394 14.6738L17.8341 12.3813C16.7437 12.9108 16.733 14.0596 16.8654 14.5626C16.8654 14.5626 16.0236 13.7843 14.6683 13.7843C13.583 13.7843 13.0377 14.4832 12.9001 14.8325H11.2218C10.9961 14.5258 10.7054 14.2728 10.3703 14.0917C10.0353 13.9103 9.66439 13.8054 9.28419 13.7843C8.32596 13.7843 7.49478 14.2502 7.1983 14.4832V14.4886Z" fill="#F2E3D0"/>
<path d="M11.6978 18.9724C13.0583 18.57 15.8695 17.3312 16.5948 15.5154C16.7113 15.2189 16.7907 14.8907 16.8278 14.5359L16.8649 14.5624C16.8546 14.5256 16.8458 14.4885 16.8383 14.4513C16.8649 14.1866 16.8649 13.9219 16.8489 13.636C16.9 13.3736 17.0105 13.1264 17.1719 12.9135C17.3334 12.7006 17.5418 12.5275 17.7807 12.4077C17.8972 12.6671 18.0083 12.8896 18.1089 13.0801L18.7389 14.6736L18.6965 15.3619V15.3671C18.6648 15.473 18.6224 15.6001 18.5589 15.7271C18.2757 16.2706 17.8419 16.721 17.3096 17.0242C16.1904 17.7238 14.9882 18.2804 13.7307 18.6812C13.1483 18.8507 12.5342 18.9671 11.9307 18.9936H11.9201L11.6978 18.9724Z" fill="#8F8F87"/>
<path d="M6.62153 12.6453C6.5421 13.053 6.38857 14.0324 6.38857 14.6836C6.38857 15.4936 7.20386 17.0977 8.00329 17.8072L7.86034 17.7384C7.52152 17.5901 6.64799 17.2142 6.15563 16.7484C5.70071 16.3421 5.38108 15.8063 5.23975 15.213C5.26995 14.7662 5.36999 14.3265 5.53622 13.9107C5.64211 13.6089 5.95975 12.8466 6.1027 12.5024C6.25093 12.5024 6.56858 12.5289 6.62153 12.6453ZM7.66446 15.1653C7.78093 15.1442 8.1727 15.0807 8.47447 15.4724C8.81327 15.9224 9.51211 16.6637 10.3644 16.6637C11.2168 16.6637 11.8468 16.1873 11.9633 15.8961V16.3883C11.9103 16.6424 11.4868 17.1561 10.1898 17.1561C9.94086 17.1561 9.35857 17.0713 8.98799 16.743C8.6174 16.4253 8.20446 15.8219 8.04563 15.5626C8.01916 15.483 7.93976 15.3136 7.83386 15.2661L7.6327 15.1653H7.66446Z" fill="#FFFECF"/>
<path d="M16.9507 16.9504L15.9448 17.808L17.3108 17.1463L17.7925 16.7333L18.2901 16.2993C18.4119 16.0769 18.6714 15.5422 18.7137 15.2086C18.7666 14.7852 18.5813 14.1763 18.4383 13.8375C18.3325 13.5728 17.9618 12.7205 17.7925 12.3286L17.5331 12.498C17.7237 13.0382 18.0994 14.2557 18.0994 14.838C18.1146 15.2239 18.0288 15.6072 17.8507 15.9498L18.1631 16.331L17.9671 16.5427L17.7131 16.2252L17.1942 16.6909L17.406 16.9821L17.1414 17.141L16.9507 16.9504Z" fill="#9FF6FE"/>
<path d="M7.26193 10.2162C6.92841 10.7827 6.70606 12.0267 6.63193 12.5773C6.44134 12.4715 6.20841 12.4873 6.11311 12.5032L6.63193 10.9997L6.68487 10.539L6.37781 9.60198L5.85898 8.23616C5.63718 7.33792 5.4937 6.42213 5.43018 5.49909C5.43018 4.62556 5.77958 4.09616 5.8537 4.08556C5.91723 4.07499 6.11841 4.14381 6.2031 4.18086C6.15018 4.20204 5.99664 4.39263 5.85898 5.03322C5.68428 5.83792 5.87487 7.25675 6.13959 7.98203C6.35134 8.56438 6.92311 9.30556 7.18252 9.60198C7.21958 9.46968 7.46841 9.07262 8.15664 8.52733C8.74143 8.10036 9.43135 7.8405 10.1525 7.77557C9.14664 7.98734 7.68018 9.51203 7.26193 10.2162Z" fill="#8D6F56"/>
<path d="M18.4744 5.94373L18.0614 5.92256V5.38785L18.4744 5.35609V5.19727L18.1303 5.1708L17.8657 3.92139C17.9716 3.97433 18.2203 4.13316 18.3104 4.33433C18.395 4.53021 18.4797 4.94844 18.5168 5.12844L18.4744 5.94373ZM17.5373 12.5243L16.9973 10.7508C16.7719 10.0685 16.451 9.42151 16.0444 8.82903C16.1873 8.90843 16.558 9.18373 16.8809 9.64961C17.1296 9.33196 17.6591 8.53256 17.8127 7.90256C17.9662 7.27785 18.0033 6.53667 18.0033 6.2455L18.4904 6.28785C18.432 6.67432 18.2627 7.5955 18.088 8.16726C17.8594 8.86263 17.6103 9.55115 17.3416 10.2319L16.9603 9.87193L17.2197 10.8885L17.8127 12.3709L17.5373 12.5243Z" fill="#4495B4"/>
<path d="M15.7051 10.0312C16.2027 10.8572 16.5521 11.7784 16.7267 12.6677C16.9438 12.2759 16.9385 11.9319 16.9332 11.8101V11.7837C16.9332 11.6248 16.8803 10.2854 15.7051 10.0312Z" fill="#4C4136"/>
<path d="M9.17876 13.0575C8.38464 12.9782 8.15699 12.0729 8.14111 11.6336H8.32111L8.65993 11.9247L9.17876 13.0628V13.0575ZM13.6999 12.0146C13.3029 12.3216 13.2288 12.8616 13.2445 13.0999C14.0229 12.6499 15.4947 11.7235 15.1135 11.6386C14.6371 11.5328 14.1976 11.6336 13.6999 12.0146Z" fill="#F89958"/>
<path d="M11.1316 17.5431C10.8828 17.4532 10.6551 17.252 10.5703 17.1568C10.6551 17.1726 10.9304 17.1514 11.3486 16.9449C11.7722 16.7491 11.9364 16.4844 11.9681 16.3784C12.0899 16.5426 12.3916 16.8973 12.6351 17.0031C12.8733 17.1091 13.2176 17.1407 13.3657 17.1407C13.3127 17.2043 13.1645 17.3578 12.9422 17.4903C12.6722 17.6596 12.201 17.6755 12.0104 17.6755C11.8198 17.6755 11.444 17.649 11.1316 17.5431Z" fill="#322327"/>
<path d="M11.9841 17.0498C11.5395 17.0498 11.2272 17.3516 11.1265 17.5051C11.2006 17.5582 11.4813 17.6639 11.9841 17.6639C12.4872 17.6639 12.789 17.5582 12.8736 17.5051C12.768 17.3686 12.6334 17.257 12.4796 17.1783C12.3259 17.0996 12.1567 17.0558 11.9841 17.0498Z" fill="#B5638D"/>
<path d="M7.90852 11.5234C7.88746 11.5234 7.86725 11.5317 7.85237 11.5466C7.83746 11.5615 7.8291 11.5817 7.8291 11.6027C7.8291 11.6238 7.83746 11.644 7.85237 11.6589C7.86725 11.6739 7.88746 11.6821 7.90852 11.6821C8.05146 11.6821 8.1944 11.6821 8.32674 11.6928L8.42206 11.9258C8.4644 12.0316 8.51205 12.1586 8.57028 12.2857L8.60204 12.3598C8.7291 12.6509 8.9197 13.1009 9.71387 13.2386C10.1903 13.3234 10.4709 13.3393 10.6191 13.334C10.6191 13.4134 10.6191 13.4927 10.6033 13.5563C10.5998 13.5774 10.6047 13.599 10.6171 13.6163C10.6296 13.6337 10.6484 13.6454 10.6694 13.649C10.6905 13.6524 10.7122 13.6475 10.7294 13.6351C10.7468 13.6226 10.7586 13.6037 10.762 13.5828C10.7965 13.3468 10.7753 13.1062 10.6999 12.88C10.6244 12.6538 10.4971 12.4484 10.328 12.2804C9.90971 11.8516 9.16322 11.5181 7.90852 11.5181V11.5234Z" fill="#0F1212"/>
<path d="M10.0255 12.53C10.1049 12.4453 10.0889 12.2971 9.98846 12.2018C9.89317 12.1011 9.74495 12.0853 9.66552 12.1647C9.58609 12.2495 9.60202 12.3924 9.69725 12.493C9.79777 12.5883 9.94076 12.6041 10.0255 12.5248V12.53ZM9.00372 12.7683C9.03018 12.7418 9.02491 12.6835 8.98784 12.6464C8.95079 12.6094 8.89256 12.5989 8.86078 12.6307C8.83431 12.6624 8.83961 12.7206 8.87668 12.7576C8.91372 12.7947 8.97195 12.8 9.00372 12.7683Z" fill="#F9FAFB"/>
<path d="M16.0555 11.5234C16.0765 11.5234 16.0966 11.5317 16.1116 11.5466C16.1266 11.5615 16.1348 11.5817 16.1348 11.6027C16.1348 11.6238 16.1266 11.644 16.1116 11.6589C16.0966 11.6739 16.0765 11.6821 16.0555 11.6821C15.9072 11.6821 15.7696 11.6821 15.632 11.6928L15.5366 11.9258C15.4827 12.0728 15.4228 12.2176 15.3566 12.3598C15.2296 12.6509 15.0389 13.1009 14.2448 13.2386C13.7683 13.3234 13.4878 13.3393 13.3449 13.334C13.3396 13.4134 13.3449 13.4927 13.3555 13.5563C13.3591 13.5774 13.354 13.599 13.3415 13.6163C13.3291 13.6337 13.3104 13.6454 13.2893 13.649C13.2682 13.6524 13.2466 13.6475 13.2294 13.6351C13.2119 13.6226 13.2002 13.6037 13.1966 13.5828C13.1383 13.2332 13.2125 12.7144 13.6308 12.2804C14.049 11.8516 14.7955 11.5181 16.0555 11.5181V11.5234Z" fill="#0F1212"/>
<path d="M13.9386 12.53C13.8538 12.4453 13.8697 12.2971 13.9703 12.2018C14.0709 12.1011 14.2138 12.0853 14.2932 12.1647C14.3727 12.2495 14.3621 12.3924 14.2614 12.493C14.1609 12.5883 14.0178 12.6041 13.9386 12.5248V12.53ZM14.9603 12.7683C14.9285 12.7418 14.9338 12.6835 14.9709 12.6464C15.008 12.6094 15.0661 12.5989 15.0978 12.6307C15.1297 12.6624 15.1244 12.7206 15.0821 12.7576C15.0451 12.7947 14.9921 12.8 14.9603 12.7683Z" fill="#F9FAFB"/>
<path fill-rule="evenodd" clip-rule="evenodd" d="M10.8033 14.6309C10.8033 15.1284 11.5182 15.4038 11.9152 15.4885V16.2084C11.9152 16.346 11.8356 16.5684 11.5975 16.7537C11.3699 16.9444 10.9729 17.0978 10.3269 17.0978C8.84458 17.0978 8.27809 15.9119 8.08222 15.5096L8.04516 15.4408C7.88634 15.1231 7.60575 15.1178 7.55811 15.1178V15.2238C7.58986 15.2238 7.82281 15.2238 7.94986 15.4885L7.98693 15.5626C8.17752 15.9596 8.78105 17.2037 10.3322 17.2037H10.5386C10.6816 17.4102 11.1158 17.7172 11.9682 17.7172C12.8258 17.7172 13.2706 17.4102 13.4239 17.1984L13.5986 17.2037C15.1498 17.2037 15.7482 15.9596 15.9439 15.5626L15.9758 15.4885C16.1081 15.2238 16.3358 15.2238 16.3729 15.2238V15.1178C16.3198 15.1178 16.0446 15.1231 15.8805 15.4355C15.8679 15.4618 15.8554 15.4882 15.8433 15.5149C15.6528 15.9119 15.081 17.1032 13.5986 17.1032C12.9581 17.1032 12.561 16.9444 12.3281 16.7537C12.0952 16.5684 12.0209 16.346 12.0156 16.2084V15.4832C12.4499 15.3878 13.191 15.1072 13.191 14.6362C13.191 14.0113 12.1587 13.8896 11.9892 13.8896C11.8199 13.8896 10.8033 13.9955 10.8033 14.6309ZM13.2916 17.1932C12.9199 17.1802 12.5605 17.0569 12.2593 16.8384C12.1297 16.7386 12.0277 16.6074 11.9629 16.4572C11.9098 16.5844 11.8199 16.7219 11.6663 16.8384C11.4546 17.0078 11.1369 17.1455 10.6658 17.1878C10.8193 17.3625 11.2109 17.6113 11.9682 17.6113C12.7252 17.6113 13.1275 17.3625 13.2916 17.1878V17.1932Z" fill="black"/>
<path d="M11.9631 14.4677C12.2175 14.4677 12.4236 14.399 12.4236 14.3142C12.4236 14.2295 12.2175 14.1606 11.9631 14.1606C11.7088 14.1606 11.5024 14.2295 11.5024 14.3142C11.5024 14.399 11.7088 14.4677 11.9631 14.4677Z" fill="#F9FAFB"/>
<path d="M11.3325 17.9733C11.3325 17.9467 11.3591 17.9204 11.3854 17.9204H12.6137C12.6277 17.9204 12.6412 17.9258 12.6511 17.9359C12.6611 17.9457 12.6668 17.9592 12.6668 17.9733C12.6668 17.9873 12.6611 18.0007 12.6511 18.0107C12.6412 18.0206 12.6277 18.0262 12.6137 18.0262H11.3854C11.3714 18.0262 11.3581 18.0206 11.348 18.0107C11.3381 18.0007 11.3325 17.9873 11.3325 17.9733Z" fill="black"/>
<path d="M12.8634 11.3437C12.6622 11.1426 12.7204 10.7614 12.9904 10.4968C13.2657 10.2215 13.6469 10.1632 13.8428 10.3591C14.0441 10.5603 13.9804 10.9414 13.7105 11.2114C13.4404 11.4815 13.0593 11.5397 12.8634 11.3437ZM11.1376 11.3437C11.3387 11.1426 11.2804 10.7614 11.0053 10.4968C10.7404 10.2215 10.354 10.1632 10.1581 10.3591C9.95698 10.5603 10.0204 10.9414 10.2904 11.2114C10.5605 11.4815 10.9416 11.5397 11.1376 11.3437Z" fill="#EBE0D3"/>
<path d="M18.4064 5.58404C18.4064 4.9117 18.3112 4.48817 18.1576 4.23934C18.0995 4.13269 18.0126 4.04443 17.9069 3.98455C17.8011 3.92468 17.6808 3.89557 17.5594 3.90053C17.4375 3.90053 17.2735 3.95347 17.0722 4.03818C16.8764 4.12288 16.6487 4.24993 16.4264 4.38758C15.9764 4.67347 15.5105 5.02288 15.1982 5.31404C14.9706 5.52581 14.6898 5.84347 14.4041 6.18758L14.0864 6.55817C13.8951 6.77906 13.6936 6.99107 13.4829 7.19347C13.2922 7.36817 13.1071 7.5164 12.9376 7.59053L12.8741 7.44229C13.017 7.37876 13.1918 7.2517 13.3771 7.0717C13.5624 6.897 13.7634 6.67994 13.9594 6.447L14.277 6.09229C14.5326 5.77793 14.8046 5.47748 15.0922 5.19229C15.4099 4.90112 15.8864 4.54112 16.3418 4.25524C16.5745 4.1123 16.8022 3.98524 17.0088 3.88994C17.2152 3.79994 17.4058 3.7417 17.5594 3.7417C17.8505 3.7417 18.1099 3.85817 18.2899 4.15464C18.4698 4.44583 18.5652 4.90112 18.5652 5.58404C18.5468 6.75481 18.3133 7.91223 17.877 8.99876C17.7711 9.21053 17.6547 9.55999 17.5541 9.91995C17.4482 10.28 17.3581 10.6452 17.3052 10.8675L17.2787 10.8623C17.4799 11.4288 17.7605 12.1118 18.0729 12.7311C18.4652 13.4726 18.7165 14.2803 18.8141 15.1134V15.1188C18.7875 15.6174 18.5716 16.0869 18.2105 16.4317C17.8505 16.8182 17.3634 17.1675 16.8447 17.4587C16.0132 17.9219 15.137 18.2997 14.2294 18.5864C13.5041 18.8088 12.461 19.0311 12.0322 19.1158H12.0112C11.7464 19.1052 10.947 18.9888 9.79811 18.5864L9.7611 18.5704C9.04112 18.3217 7.91876 17.9247 6.97111 17.3741C6.50472 17.1168 6.08284 16.7861 5.72171 16.3946C5.39876 16.024 5.19229 15.6005 5.19229 15.124C5.17642 15.0077 5.20288 14.7587 5.29819 14.3777C5.40406 13.9857 5.58935 13.4405 5.90699 12.7365C6.25642 11.9423 6.51053 11.3175 6.67465 10.8571L6.63758 10.8675C6.58465 10.6452 6.49994 10.2852 6.39406 9.91995C6.28819 9.55999 6.17171 9.20523 6.06583 8.99876C5.62938 7.91223 5.3961 6.75481 5.37759 5.58404C5.37759 4.90112 5.47818 4.44583 5.65288 4.15464C5.83288 3.85817 6.09229 3.7417 6.39406 3.7417C6.5423 3.7417 6.73289 3.79994 6.93935 3.88994C7.63032 4.24185 8.27422 4.67942 8.85583 5.19229C9.09405 5.41464 9.37994 5.74817 9.67646 6.09229L9.9834 6.447C10.1847 6.67994 10.3858 6.897 10.571 7.0717C10.7617 7.2517 10.9311 7.37876 11.0741 7.44229L11.0106 7.59053C10.8058 7.48811 10.6197 7.35209 10.4598 7.18817C10.2695 7.00816 10.0682 6.78581 9.86696 6.55288L9.54935 6.18229C9.29853 5.87885 9.03167 5.58903 8.74993 5.31404C8.36749 4.97102 7.95661 4.66109 7.52171 4.38758C7.29406 4.24993 7.07171 4.12288 6.87582 4.03818C6.72383 3.96138 6.55846 3.91465 6.38876 3.90053C6.14523 3.90053 5.93876 3.99581 5.79053 4.23934C5.59217 4.65835 5.50642 5.12182 5.5417 5.58404C5.55893 6.72889 5.78498 7.86098 6.20876 8.92464C6.31995 9.147 6.44171 9.51758 6.54759 9.87754C6.62699 10.1477 6.69583 10.4228 6.74876 10.64C6.82818 10.3964 6.88112 10.2165 6.9023 10.0947L7.06112 9.74528C7.02936 9.91995 6.93935 10.3011 6.79112 10.8041V10.8304H6.78053C6.57799 11.5015 6.33399 12.1592 6.04995 12.8C5.80955 13.3233 5.61126 13.865 5.457 14.42C5.35111 14.8064 5.34053 15.0288 5.35111 15.1081V15.1188C5.35111 15.5423 5.53641 15.9341 5.83818 16.2834C6.18832 16.6642 6.59771 16.9862 7.05053 17.2364C7.98759 17.7817 9.09935 18.1681 9.81408 18.4223L9.8511 18.4328C10.9735 18.83 11.757 18.9464 12.0112 18.9517C12.4452 18.8723 13.4722 18.65 14.1818 18.4328C14.6264 18.2952 15.7541 17.9034 16.7652 17.3211C17.2735 17.03 17.7447 16.6964 18.0941 16.3205C18.4261 16.0072 18.6267 15.5796 18.6552 15.124C18.6447 14.8223 18.4805 13.9329 17.9247 12.8052C17.6173 12.1713 17.3641 11.5125 17.1675 10.8357H17.1518L17.1571 10.8041C17.0512 10.4546 16.9875 10.1687 16.9505 9.9888V9.8088C16.9875 9.9834 17.0722 10.2746 17.1995 10.6347C17.2522 10.4228 17.3211 10.1477 17.4005 9.87754C17.5064 9.51758 17.6229 9.147 17.7394 8.92464C18.1638 7.85932 18.3898 6.72538 18.4064 5.57877V5.58404ZM6.20346 7.44758C6.31636 8.21752 6.63662 8.94223 7.12994 9.54404C6.92876 9.39581 6.44171 8.81347 6.11876 7.7017C5.79053 6.58993 6.16112 5.0123 6.38347 4.36641C8.09346 4.72111 9.07288 6.53699 9.18935 6.82817C9.27406 7.05581 9.62879 7.56935 9.79811 7.7917C9.46994 7.57993 9.23699 7.22524 8.87699 6.67994L8.56995 6.20347C8.01406 5.37758 6.67995 4.69464 6.52641 4.76347C6.36759 4.83758 6.01818 6.14523 6.20876 7.44758H6.20346ZM7.13523 9.65523C7.14053 9.62879 7.82346 8.66523 8.23111 8.38993C8.63348 8.11993 9.16817 7.91876 9.57049 7.86052C8.67582 8.04053 7.74406 9.02523 7.34171 9.45935C7.22523 9.5758 7.15641 9.65523 7.13523 9.65523ZM17.8241 7.44758C17.7127 8.21699 17.3943 8.94165 16.9029 9.54404C17.1041 9.39581 17.5911 8.81347 17.9141 7.7017C18.2422 6.58993 17.8717 5.0123 17.6493 4.36641C15.9395 4.72111 14.9599 6.53699 14.8434 6.82817C14.7587 7.05581 14.3987 7.56935 14.2348 7.7917C14.5629 7.57993 14.7958 7.22524 15.1559 6.67994L15.4628 6.20347C16.0187 5.37758 17.3528 4.69464 17.5064 4.76347C17.6652 4.83758 18.0147 6.14523 17.8241 7.44758ZM16.8924 9.65523C16.8924 9.62879 16.2041 8.66523 15.8017 8.38993C15.3953 8.12531 14.9398 7.94525 14.4622 7.86052C15.357 8.04053 16.2887 9.02523 16.6911 9.45935C16.8075 9.5758 16.8764 9.65523 16.8924 9.65523Z" fill="black"/>
</g>
<defs>
<linearGradient id="paint0_linear_328_31086" x1="4.16476" y1="14.1977" x2="10.7886" y2="11.2728" gradientUnits="userSpaceOnUse">
<stop stop-color="#8A6F55"/>
<stop offset="1" stop-color="#5C5251"/>
</linearGradient>
<linearGradient id="paint1_linear_328_31086" x1="3.34735" y1="10.1736" x2="10.7735" y2="10.5435" gradientUnits="userSpaceOnUse">
<stop stop-color="#C58B5D"/>
<stop offset="1" stop-color="#A16F54"/>
</linearGradient>
<clipPath id="clip0_328_31086">
<rect width="24" height="24" fill="white"/>
</clipPath>
</defs>
</svg>
