<svg width="24" height="24" viewBox="0 0 24 24" fill="none" xmlns="http://www.w3.org/2000/svg">
<g clip-path="url(#clip0_328_56117)">
<path d="M24 0H0V24H24V0Z" fill="white"/>
<path d="M12 21C16.9706 21 21 16.9706 21 12C21 7.02942 16.9706 3 12 3C7.02942 3 3 7.02942 3 12C3 16.9706 7.02942 21 12 21Z" fill="url(#paint0_linear_328_56117)"/>
<path d="M12 21C16.9706 21 21 16.9706 21 12C21 7.02942 16.9706 3 12 3C7.02942 3 3 7.02942 3 12C3 16.9706 7.02942 21 12 21Z" fill="url(#paint1_linear_328_56117)"/>
<path d="M10.48 7.44151C10.9141 7.30915 11.3959 7.22974 11.9254 7.21916V7.11328C11.3589 7.12386 10.8506 7.21386 10.39 7.3568C9.203 7.71998 8.19822 8.52042 7.57885 9.59626C7.55183 9.59404 7.52464 9.59751 7.49901 9.60627C7.47337 9.61516 7.44987 9.62924 7.42997 9.64765C7.41006 9.66605 7.39419 9.68842 7.38337 9.71325C7.37255 9.73807 7.367 9.765 7.36709 9.79211C7.36733 9.82552 7.37607 9.85826 7.39254 9.88728C7.40899 9.91631 7.4326 9.94061 7.46112 9.95805C7.48965 9.97548 7.52212 9.98527 7.55548 9.98651C7.58885 9.98775 7.62199 9.98043 7.65175 9.96536C7.68151 9.95017 7.70692 9.92767 7.72554 9.9C7.74417 9.87232 7.75541 9.84037 7.75818 9.80696C7.76095 9.77377 7.75517 9.74029 7.74139 9.70992C7.72762 9.67952 7.70629 9.65308 7.67945 9.63333C8.27881 8.60195 9.24171 7.83163 10.3796 7.47327L10.6018 8.00268C10.39 8.09267 10.2313 8.19327 10.1359 8.26739L10.2046 8.35209C10.7122 8.00403 11.31 7.81091 11.9254 7.7962V7.69033C11.4436 7.70091 11.0253 7.82267 10.697 7.95503L10.4854 7.44151H10.48ZM7.68474 11.9044C7.63816 11.9127 7.59615 11.9376 7.56645 11.9744C7.53676 12.0112 7.52139 12.0574 7.52319 12.1048C7.52498 12.1519 7.5438 12.197 7.5762 12.2314C7.60858 12.266 7.65237 12.2875 7.69944 12.2922C7.7465 12.297 7.79368 12.2845 7.83225 12.2571C7.87083 12.2296 7.8982 12.1893 7.90933 12.1432C7.92045 12.0973 7.91454 12.049 7.89273 12.0069C7.8709 11.9649 7.83463 11.9323 7.79062 11.9151C7.83297 11.4015 8.00239 10.5174 8.46297 9.85038L8.37298 9.78671C8.16651 10.0885 8.01826 10.4274 7.91239 10.7608C7.68757 10.6903 7.46165 10.6233 7.23474 10.5598H7.19239L7.18709 10.602C6.99384 11.3589 6.92941 12.1427 6.99651 12.9208C6.79927 12.9788 6.60162 13.0353 6.40356 13.0903C6.38626 13.0464 6.35359 13.0099 6.31163 12.9882C6.26967 12.9663 6.22122 12.9604 6.17524 12.9716C6.12927 12.9827 6.08887 13.0101 6.06151 13.0486C6.03414 13.0873 6.02166 13.1344 6.02636 13.1814C6.03108 13.2285 6.05265 13.2723 6.08711 13.3047C6.12157 13.3371 6.16659 13.356 6.21385 13.3578C6.26112 13.3596 6.30744 13.3442 6.34425 13.3145C6.38106 13.2849 6.40589 13.2427 6.41415 13.1961C6.61282 13.1453 6.81051 13.0905 7.00708 13.0321C7.08121 13.6144 7.23474 14.0485 7.37768 14.3028C7.34472 14.3367 7.32522 14.3815 7.32278 14.4288C7.32035 14.4762 7.33516 14.5228 7.36446 14.5601C7.39375 14.5973 7.43557 14.6227 7.48213 14.6314C7.52871 14.6403 7.57688 14.6317 7.61772 14.6078C7.65857 14.5837 7.68933 14.5458 7.70428 14.5008C7.71924 14.4558 7.71738 14.407 7.69907 14.3632C7.68074 14.3194 7.64721 14.2839 7.60467 14.2631C7.56211 14.2422 7.51345 14.2375 7.46768 14.2497C7.37768 14.0751 7.2718 13.821 7.19769 13.4821L7.66356 13.3127C7.82461 13.8028 8.0922 14.2512 8.44709 14.6257L8.5318 14.5568C8.16976 14.1847 7.90281 13.7305 7.75356 13.2331L7.74298 13.1644L7.17121 13.3762C7.04415 12.7304 7.01239 11.825 7.27708 10.6761L7.32474 10.692C7.51239 10.7424 7.69785 10.8008 7.88062 10.8667C7.78028 11.2051 7.71464 11.5528 7.68474 11.9044ZM6.52532 14.2974C6.56352 14.2695 6.59034 14.2289 6.60087 14.1828C6.6114 14.1367 6.6049 14.0883 6.5826 14.0466C6.56028 14.005 6.52366 13.9728 6.47947 13.956C6.4353 13.9392 6.38654 13.939 6.34218 13.9554C6.29782 13.9716 6.26089 14.0034 6.23815 14.0449C6.21543 14.0863 6.20844 14.1346 6.2185 14.1808C6.22856 14.227 6.25498 14.268 6.29287 14.2962C6.33078 14.3244 6.37761 14.338 6.42474 14.3344C6.68945 14.9962 7.37239 16.1979 8.44709 16.865L8.50004 16.7697C8.08371 16.5031 7.71505 16.1684 7.40945 15.7797L7.9018 15.3668L8.40474 15.9227L8.48416 15.8485L7.91239 15.2185L7.34062 15.6951C7.00814 15.2674 6.73398 14.7973 6.52532 14.2974ZM15.3083 7.36209C15.5941 7.55797 16.0653 7.96563 16.5153 8.5268L15.9966 8.95033C15.843 8.77563 15.5358 8.44737 15.2764 8.24091L15.213 8.32562C15.4777 8.54268 15.8166 8.90797 15.9541 9.06151L15.9859 9.09856L16.5789 8.6168C16.8966 9.02444 17.193 9.5062 17.3889 10.0461C17.3507 10.0738 17.3238 10.1142 17.313 10.1601C17.3024 10.2058 17.3083 10.2539 17.3302 10.2955C17.352 10.3374 17.3881 10.3697 17.4317 10.3869C17.4757 10.4042 17.5241 10.4052 17.5685 10.3897C17.613 10.3742 17.6502 10.3431 17.6737 10.3023C17.6971 10.2616 17.705 10.2138 17.6962 10.1676C17.6871 10.1214 17.6619 10.08 17.6249 10.0509C17.5879 10.0218 17.5417 10.007 17.4947 10.0091C17.0506 8.91698 16.3143 7.9682 15.3666 7.2668L15.3083 7.3568V7.36209ZM15.1759 9.5115C15.615 9.91608 15.943 10.4264 16.1289 10.9939L16.1447 11.0467L16.7377 10.9356C16.8278 11.2427 16.8966 11.5708 16.8966 11.862C16.8966 12.561 16.7059 13.3233 16.5947 13.6674L16.0282 13.4504C16.1236 13.1433 16.1977 12.7885 16.2294 12.4074C16.2751 12.3946 16.3143 12.3658 16.3404 12.3262C16.3662 12.2866 16.3769 12.239 16.3706 12.1921C16.3641 12.1452 16.3408 12.1022 16.3053 12.0712C16.2695 12.0401 16.2238 12.0229 16.1766 12.0229C16.1292 12.0229 16.0834 12.0401 16.0477 12.0712C16.0121 12.1022 15.9889 12.1452 15.9824 12.1921C15.976 12.239 15.9868 12.2866 16.0128 12.3262C16.0386 12.3658 16.078 12.3946 16.1236 12.4074C16.0686 13.1722 15.8108 13.9086 15.3771 14.5408L15.4617 14.6097C15.6924 14.2866 15.871 13.9293 15.9912 13.5508L16.6635 13.8104L16.6795 13.7574C16.7854 13.4397 16.997 12.6191 16.997 11.862C16.997 11.7033 16.9812 11.5285 16.9494 11.3591L17.553 11.1738C17.5786 11.2134 17.6178 11.2421 17.663 11.2552C17.7084 11.2682 17.7569 11.2644 17.7995 11.2446C17.8422 11.2248 17.8763 11.1901 17.8958 11.1472C17.915 11.1043 17.9182 11.0557 17.9046 11.0106C17.8912 10.9655 17.8618 10.9268 17.822 10.9015C17.7822 10.8763 17.7347 10.8663 17.6881 10.8732C17.6415 10.8801 17.599 10.9037 17.5683 10.9394C17.5377 10.9752 17.5209 11.0208 17.5212 11.068L16.9283 11.2533C16.8394 10.8235 16.6953 10.4071 16.4993 10.0144C16.5361 9.98471 16.5609 9.94275 16.569 9.89628C16.5772 9.84982 16.5685 9.80201 16.5442 9.76151C16.5199 9.72116 16.4818 9.69076 16.437 9.67607C16.3922 9.66136 16.3436 9.66334 16.3001 9.68175C16.2567 9.70003 16.2211 9.73338 16.2004 9.7758C16.1796 9.81798 16.1748 9.86647 16.1867 9.91215C16.1987 9.95771 16.2267 9.99753 16.2658 10.0241C16.3047 10.0506 16.3521 10.0622 16.3989 10.0568C16.5178 10.3076 16.6203 10.5657 16.7059 10.8297L16.2189 10.9197C16.0245 10.3483 15.6894 9.83497 15.2446 9.42679L15.1759 9.5115ZM12.0523 17.2621V18.0351H11.9412V15.8962H12.0471V16.4785C12.3436 16.4362 12.8094 16.341 13.217 16.1928C13.4659 16.1027 13.6829 15.9915 13.8312 15.8592L13.9 15.9438C13.7518 16.0762 13.54 16.1821 13.3123 16.272L13.5666 16.7962C14.5459 16.4415 15.7212 15.7531 16.293 14.4457L16.3989 14.4881C15.7953 15.8592 14.5618 16.558 13.5559 16.9127C13.0681 17.0868 12.5617 17.2041 12.0471 17.2621H12.0523ZM12.0523 17.1562C12.2376 17.135 12.7935 17.0608 13.4606 16.8331L13.2064 16.3091C12.7989 16.4574 12.3383 16.5474 12.0471 16.5844V17.151L12.0523 17.1562Z" fill="white"/>
<path d="M10.5116 7.3468C10.9405 7.21444 11.4222 7.13504 11.9516 7.12445V7.01855C11.3852 7.02914 10.8769 7.11915 10.4165 7.26209C9.22937 7.62528 8.22458 8.42572 7.60522 9.5015C7.55837 9.49604 7.5111 9.50766 7.47213 9.53421C7.43316 9.56077 7.40508 9.60055 7.39308 9.64626C7.38108 9.69185 7.38593 9.74026 7.40677 9.78268C7.4276 9.82487 7.46301 9.85828 7.5065 9.87662C7.54998 9.89495 7.5986 9.89687 7.64345 9.88224C7.68828 9.86751 7.72631 9.83724 7.75055 9.79674C7.77479 9.75624 7.78361 9.7084 7.77539 9.66195C7.76718 9.61549 7.74246 9.5735 7.70582 9.54385C8.30417 8.51054 9.2672 7.73822 10.4058 7.37855L10.6282 7.90797C10.4165 7.99797 10.2576 8.09857 10.1622 8.17268L10.2312 8.25738C10.7387 7.90931 11.3364 7.7162 11.9516 7.7015V7.59562C11.4699 7.60621 11.0516 7.72797 10.7235 7.86032L10.5116 7.3468ZM7.7111 11.8098C7.66452 11.818 7.62251 11.8429 7.59282 11.8797C7.56312 11.9165 7.54776 11.9628 7.54955 12.0101C7.55133 12.0573 7.57017 12.1023 7.60257 12.1367C7.63496 12.1712 7.67873 12.1928 7.7258 12.1975C7.77287 12.2022 7.82003 12.1897 7.85862 12.1624C7.89719 12.1351 7.92456 12.0947 7.93568 12.0487C7.94679 12.0028 7.9409 11.9543 7.91909 11.9123C7.89727 11.8702 7.861 11.8377 7.81698 11.8204C7.85934 11.3067 8.02875 10.4226 8.48933 9.75557L8.39935 9.69208C8.19287 9.99384 8.04462 10.3327 7.93875 10.6663C7.71571 10.5956 7.49156 10.5286 7.26639 10.465H7.21875L7.21346 10.5074C7.0202 11.2641 6.95576 12.048 7.02287 12.8261C6.82564 12.8841 6.62798 12.9406 6.42993 12.9956C6.41261 12.9517 6.37996 12.9154 6.338 12.8934C6.29601 12.8718 6.24758 12.8659 6.2016 12.8769C6.15563 12.888 6.11524 12.9155 6.08788 12.9541C6.0605 12.9925 6.04802 13.0397 6.05273 13.0868C6.05744 13.1338 6.07902 13.1776 6.11347 13.2101C6.14793 13.2425 6.19296 13.2612 6.24021 13.2631C6.28749 13.2648 6.33381 13.2495 6.37062 13.2198C6.40743 13.1901 6.43226 13.1481 6.44051 13.1015C6.63907 13.0501 6.83675 12.9955 7.03345 12.9373C7.10757 13.5198 7.26111 13.9538 7.40405 14.2079C7.37813 14.2362 7.36106 14.2714 7.355 14.3093C7.34894 14.3471 7.35411 14.3861 7.36989 14.4211C7.38568 14.4558 7.41137 14.4855 7.44378 14.5059C7.47622 14.5265 7.51394 14.5369 7.55228 14.5361C7.5795 14.535 7.60619 14.5282 7.63062 14.5161C7.65506 14.504 7.67668 14.487 7.69415 14.4661C7.71162 14.4451 7.72453 14.4207 7.73205 14.3946C7.73958 14.3684 7.74156 14.3408 7.73786 14.314C7.73417 14.287 7.72487 14.261 7.71058 14.2377C7.69628 14.2146 7.6773 14.1946 7.65486 14.1792C7.63241 14.1638 7.60698 14.1531 7.58019 14.148C7.55343 14.143 7.52588 14.1435 7.49933 14.1498C7.40405 13.9803 7.29816 13.7263 7.22405 13.3874L7.68992 13.218C7.85097 13.7081 8.11855 14.1565 8.47346 14.5309L8.55816 14.4621C8.19613 14.0899 7.92917 13.6359 7.77993 13.1386L7.76935 13.0751L7.19758 13.2761C7.07052 12.6409 7.03875 11.7303 7.30345 10.5868C7.38402 10.6034 7.46357 10.6246 7.54169 10.6503L7.90697 10.7721C7.80663 11.1105 7.74101 11.458 7.7111 11.8098ZM6.55169 14.2026C6.58986 14.1749 6.61671 14.1341 6.62723 14.0881C6.63774 14.0419 6.63125 13.9937 6.60896 13.952C6.58665 13.9103 6.55003 13.8781 6.50584 13.8614C6.46167 13.8445 6.41289 13.8443 6.36854 13.8606C6.3242 13.8769 6.28725 13.9087 6.26451 13.9502C6.24179 13.9916 6.23481 14.04 6.24486 14.0861C6.25493 14.1323 6.28133 14.1732 6.31925 14.2016C6.35715 14.2297 6.40397 14.2433 6.4511 14.2397C6.71581 14.9014 7.39875 16.1033 8.47346 16.7703L8.52639 16.6751C8.11007 16.4084 7.74141 16.0737 7.43582 15.685L7.92816 15.2721L8.4311 15.8279L8.51051 15.7538L7.93875 15.1238L7.36698 15.6004C7.03457 15.1727 6.7604 14.7025 6.55169 14.2026ZM15.3346 7.26738C15.7875 7.59958 16.1936 7.99136 16.5416 8.43208L16.0228 8.85562C15.8692 8.68092 15.5623 8.35267 15.3029 8.1462L15.2392 8.23091C15.504 8.44797 15.8428 8.81327 15.9804 8.9668L16.0123 9.00385L16.6053 8.52209C16.9229 8.92974 17.2193 9.4115 17.4153 9.95154C17.3771 9.9791 17.3503 10.0195 17.3395 10.0653C17.3286 10.1111 17.3349 10.1591 17.3566 10.201C17.3783 10.2425 17.4145 10.275 17.4582 10.2923C17.5019 10.3096 17.5505 10.3104 17.5949 10.2951C17.6392 10.2795 17.6766 10.2484 17.6999 10.2077C17.7234 10.167 17.7313 10.1191 17.7224 10.0728C17.7134 10.0266 17.6882 9.98518 17.6513 9.95615C17.6143 9.92702 17.568 9.91217 17.5212 9.91442C17.0769 8.82228 16.3405 7.8735 15.3928 7.17208L15.3346 7.26209V7.26738ZM15.2075 9.42208C15.6467 9.82656 15.9747 10.337 16.1606 10.9044L16.1763 10.9574L16.7693 10.8463C16.8593 11.1533 16.9282 11.4815 16.9282 11.7727C16.9282 12.4715 16.7376 13.2338 16.6265 13.5779L16.0599 13.361C16.1553 13.0538 16.2293 12.6991 16.2612 12.3179C16.3066 12.3053 16.3461 12.2764 16.372 12.2369C16.3979 12.1972 16.4087 12.1496 16.4021 12.1027C16.3957 12.0559 16.3725 12.0128 16.3368 11.9817C16.3012 11.9507 16.2554 11.9336 16.2081 11.9336C16.1608 11.9336 16.1151 11.9507 16.0794 11.9817C16.0437 12.0128 16.0206 12.0559 16.0141 12.1027C16.0076 12.1496 16.0184 12.1972 16.0443 12.2369C16.0703 12.2764 16.1096 12.3053 16.1553 12.3179C16.1018 13.0822 15.8459 13.8186 15.414 14.4515L15.4935 14.5204C15.724 14.1971 15.9026 13.8398 16.0228 13.4614L16.6952 13.721L16.7112 13.668C16.8169 13.3503 17.0288 12.5297 17.0288 11.7727C17.0288 11.6138 17.0129 11.4391 16.9811 11.2697L17.5846 11.0844C17.6103 11.1239 17.6494 11.1528 17.6946 11.1659C17.74 11.1788 17.7885 11.1751 17.8312 11.1552C17.874 11.1354 17.9082 11.1008 17.9274 11.0579C17.9466 11.0148 17.9499 10.9663 17.9363 10.9212C17.9228 10.8761 17.8934 10.8374 17.8537 10.8122C17.8139 10.7869 17.7663 10.7768 17.7197 10.7837C17.6732 10.7908 17.6306 10.8142 17.6 10.85C17.5693 10.886 17.5527 10.9314 17.5529 10.9786L16.9599 11.1638C16.8713 10.7341 16.727 10.3176 16.5312 9.92511C16.5677 9.89529 16.5924 9.85344 16.6007 9.80698C16.6089 9.76052 16.6 9.71259 16.5758 9.67219C16.5515 9.63168 16.5136 9.6013 16.4687 9.58659C16.424 9.57201 16.3752 9.57399 16.3318 9.59227C16.2883 9.61055 16.2528 9.64403 16.232 9.68628C16.2112 9.72866 16.2064 9.77705 16.2184 9.82262C16.2303 9.86829 16.2585 9.908 16.2974 9.93467C16.3363 9.96122 16.3836 9.97292 16.4305 9.9674C16.5494 10.2182 16.6521 10.4762 16.7376 10.7404L16.2505 10.8303C16.056 10.2588 15.7212 9.74545 15.2763 9.33738L15.2075 9.42208ZM12.0842 17.1727V17.9456H11.9729V15.8121H12.0789V16.3944C12.3753 16.3521 12.8412 16.2568 13.2488 16.1086C13.4975 16.0186 13.7146 15.9074 13.8629 15.7751L13.9317 15.8598C13.7835 15.9921 13.5716 16.0979 13.3442 16.188L13.5982 16.7121C14.5828 16.3574 15.7529 15.6691 16.3246 14.3615L16.4305 14.4038C15.827 15.7751 14.5935 16.4738 13.5876 16.8286C13.0998 17.0028 12.5934 17.12 12.0789 17.178L12.0842 17.1727ZM12.0842 17.0667C12.564 17.0109 13.036 16.9026 13.4923 16.744L13.2381 16.2198C12.8305 16.368 12.37 16.4579 12.0789 16.495V17.0614L12.0842 17.0667Z" fill="url(#paint2_linear_328_56117)"/>
<path fill-rule="evenodd" clip-rule="evenodd" d="M20.8088 12.0692C20.8088 14.4056 19.8807 16.6464 18.2286 18.2983C16.5765 19.9504 14.3359 20.8785 11.9994 20.8785C9.66294 20.8785 7.42224 19.9504 5.77016 18.2983C4.11808 16.6464 3.18994 14.4056 3.18994 12.0692C3.18994 9.73276 4.11808 7.49205 5.77016 5.83996C7.42224 4.18789 9.66294 3.25977 11.9994 3.25977C14.3359 3.25977 16.5765 4.18789 18.2286 5.83996C19.8807 7.49205 20.8088 9.73276 20.8088 12.0692ZM20.5599 12.0692C20.5603 13.8892 19.9803 15.6621 18.9044 17.1303C17.8285 18.5985 16.3128 19.6855 14.5772 20.2336C12.8415 20.7817 10.9763 20.7623 9.25244 20.1782C7.52856 19.5942 6.03568 18.4759 4.99058 16.9857C3.94548 15.4955 3.40255 13.711 3.44065 11.8912C3.47872 10.0714 4.09582 8.31129 5.20234 6.8661C6.30886 5.42094 7.84721 4.36606 9.59402 3.85464C11.3408 3.34323 13.2051 3.40189 14.9165 4.02211C14.9165 4.6627 13.8364 5.11798 13.2646 5.27152C13.3706 5.27152 14.4029 5.65798 14.9058 5.85387C15.3731 5.41838 15.901 5.05282 16.4729 4.76858C17.0022 5.09151 17.4894 5.4727 17.9342 5.89623C17.6534 6.42563 16.8434 6.7221 16.4622 6.80152L17.6164 7.93975C18.1613 7.7169 18.7492 7.61921 19.3371 7.65387C19.4535 7.85505 19.5646 8.05623 19.6705 8.26798C19.5117 8.358 19.2417 8.49034 18.8711 8.58563C18.3945 8.69681 18.1299 8.65974 18.0135 8.64388C17.9765 8.64388 17.9552 8.63328 17.9445 8.64388L18.3471 9.44858C18.5569 9.27768 18.7882 9.13529 19.0352 9.02505C19.3053 8.90328 19.6705 8.8027 19.8929 8.76034C20.3217 9.77681 20.5599 10.8939 20.5599 12.0692Z" fill="url(#paint3_linear_328_56117)" fill-opacity="0.5"/>
<path fill-rule="evenodd" clip-rule="evenodd" d="M12 21C14.387 21 16.6762 20.0517 18.364 18.3639C20.0517 16.6762 21 14.387 21 12C21 9.61306 20.0517 7.32386 18.364 5.63603C16.6762 3.94822 14.387 3 12 3C9.61305 3 7.32386 3.94822 5.63603 5.63603C3.94822 7.32386 3 9.61306 3 12C3 14.387 3.94822 16.6762 5.63603 18.3639C7.32386 20.0517 9.61305 21 12 21ZM12 20.6823C14.3028 20.6823 16.511 19.7676 18.1392 18.1393C19.7676 16.511 20.6824 14.3028 20.6824 12C20.6824 9.69732 19.7676 7.4889 18.1392 5.86064C16.511 4.23239 14.3028 3.31764 12 3.31764C9.69731 3.31764 7.4889 4.23239 5.86064 5.86064C4.23239 7.4889 3.31764 9.69732 3.31764 12C3.31764 14.3028 4.23239 16.511 5.86064 18.1393C7.4889 19.7676 9.69731 20.6823 12 20.6823Z" fill="url(#paint4_linear_328_56117)"/>
<path fill-rule="evenodd" clip-rule="evenodd" d="M11.9996 18.8828C13.8248 18.8828 15.5754 18.1578 16.8661 16.867C18.1567 15.5763 18.8819 13.8258 18.8819 12.0005C18.8819 10.1752 18.1567 8.42464 16.8661 7.13394C15.5754 5.84326 13.8248 5.11816 11.9996 5.11816C10.1742 5.11816 8.42368 5.84326 7.133 7.13394C5.8423 8.42464 5.11719 10.1752 5.11719 12.0005C5.11719 13.8258 5.8423 15.5763 7.133 16.867C8.42368 18.1578 10.1742 18.8828 11.9996 18.8828ZM11.9996 18.5229C13.3907 18.5232 14.7453 18.0787 15.8658 17.2545C16.9863 16.4302 17.8139 15.2692 18.2279 13.9411C18.6418 12.6132 18.6202 11.1876 18.1664 9.87258C17.7127 8.55774 16.8504 7.42234 15.7055 6.63228V10.4122H12.0631L15.7055 13.7741V16.0822C16.6796 15.1929 17.336 13.9647 17.479 12.5775C17.3692 12.5248 17.2795 12.438 17.223 12.3303C17.1664 12.2224 17.1461 12.0993 17.165 11.9789C17.184 11.8588 17.2413 11.7477 17.3283 11.6626C17.4152 11.5773 17.5272 11.5224 17.6479 11.506C17.7685 11.4894 17.8912 11.5123 17.9979 11.571C18.1045 11.6297 18.1893 11.7213 18.24 11.832C18.2905 11.9427 18.304 12.0668 18.2786 12.1858C18.253 12.3049 18.1899 12.4125 18.0983 12.4928C18.0298 13.3354 17.7873 14.1549 17.3863 14.8992C16.9853 15.6435 16.4344 16.2964 15.7684 16.8173C15.1022 17.3382 14.3357 17.7153 13.5166 17.925C12.6976 18.1347 11.8439 18.1725 11.0096 18.0358V18.0305H10.9406V16.2357H8.82307V17.697C9.76546 18.2265 10.8455 18.5229 11.9996 18.5229ZM8.29366 17.3688V13.5888H11.7666L8.29366 10.0575V7.92404C7.2519 8.86797 6.61151 10.1753 6.50426 11.577C6.60974 11.6388 6.69236 11.7332 6.7398 11.8459C6.78724 11.9586 6.79693 12.0835 6.76742 12.2023C6.73792 12.321 6.6708 12.4269 6.57612 12.5043C6.48144 12.5817 6.36425 12.6264 6.24208 12.6315C6.11991 12.6368 5.99931 12.6024 5.89832 12.5334C5.79733 12.4646 5.72135 12.3648 5.68175 12.2491C5.64215 12.1334 5.64104 12.0079 5.6786 11.8916C5.71616 11.7753 5.79037 11.6742 5.89014 11.6034C5.94486 10.7445 6.18013 9.90689 6.5806 9.145C6.98107 8.38318 7.5377 7.71439 8.21417 7.18231C8.89065 6.65023 9.67178 6.2668 10.5065 6.05709C11.3411 5.84736 12.2107 5.81606 13.0583 5.96522V7.76521H15.1759V6.30404C13.7121 5.48556 11.9891 5.26245 10.365 5.68109C8.74094 6.09972 7.34051 7.12791 6.45467 8.55207C5.56883 9.97631 5.26565 11.6869 5.60812 13.3287C5.95058 14.9707 6.91235 16.4175 8.29366 17.3688ZM12.529 7.76521V6.51581C11.804 6.44458 11.0719 6.51836 10.3758 6.73287C9.67943 6.94737 9.0329 7.2983 8.47367 7.76521H12.529ZM11.4702 16.2357V17.4852C12.9338 17.6201 14.3915 17.1711 15.5255 16.2357H11.4702ZM10.4113 13.0593H8.29366V10.9417L10.4113 13.0593ZM13.5878 10.9417H15.7055V13.0593L13.5878 10.9417Z" fill="url(#paint5_linear_328_56117)"/>
<path d="M13.0432 14.1175L8.82373 9.89807V8.29395H15.1767V9.88221H10.9943L15.1767 14.1016V15.7058H8.82373V14.1175H13.0432Z" fill="url(#paint6_linear_328_56117)"/>
<path d="M15.4415 11.3535V12.2641L14.5309 11.3535H15.4415ZM8.55908 12.6451V11.7347L9.46967 12.6451H8.55908Z" fill="#9DFFFF"/>
</g>
<defs>
<linearGradient id="paint0_linear_328_56117" x1="4.70471" y1="7.33587" x2="18.6388" y2="17.8553" gradientUnits="userSpaceOnUse">
<stop stop-color="#24348A"/>
<stop offset="0.47" stop-color="#EC4DEC"/>
<stop offset="0.61" stop-color="#CD3B62"/>
<stop offset="1" stop-color="#F6CE3A"/>
</linearGradient>
<linearGradient id="paint1_linear_328_56117" x1="12" y1="12" x2="20.4494" y2="13.9217" gradientUnits="userSpaceOnUse">
<stop offset="0.05" stop-color="#F6CE3A" stop-opacity="0"/>
<stop offset="1" stop-color="#F9E76D"/>
</linearGradient>
<linearGradient id="paint2_linear_328_56117" x1="4.65342" y1="12.2445" x2="20.4875" y2="12.517" gradientUnits="userSpaceOnUse">
<stop stop-color="#31226D"/>
<stop offset="1" stop-color="#CE3358"/>
</linearGradient>
<linearGradient id="paint3_linear_328_56117" x1="18.5277" y1="5.80202" x2="11.8316" y2="9.53943" gradientUnits="userSpaceOnUse">
<stop stop-color="white"/>
<stop offset="1" stop-color="white" stop-opacity="0"/>
</linearGradient>
<linearGradient id="paint4_linear_328_56117" x1="3.22236" y1="12" x2="21.2013" y2="10.2687" gradientUnits="userSpaceOnUse">
<stop offset="0.19" stop-color="#0E0E0D"/>
<stop offset="1" stop-color="#B9501D"/>
</linearGradient>
<linearGradient id="paint5_linear_328_56117" x1="3.69186" y1="12.6028" x2="20.8265" y2="12.6789" gradientUnits="userSpaceOnUse">
<stop offset="0.29" stop-color="#281E6C"/>
<stop offset="0.72" stop-color="#8F5099"/>
<stop offset="1" stop-color="#F5622A"/>
</linearGradient>
<linearGradient id="paint6_linear_328_56117" x1="3.63021" y1="11.9998" x2="21.7351" y2="11.9998" gradientUnits="userSpaceOnUse">
<stop stop-color="#85FBF9"/>
<stop offset="1" stop-color="#EBFFFF"/>
</linearGradient>
<clipPath id="clip0_328_56117">
<rect width="24" height="24" fill="white"/>
</clipPath>
</defs>
</svg>
