<svg width="24" height="24" viewBox="0 0 24 24" fill="none" xmlns="http://www.w3.org/2000/svg">
<g clip-path="url(#clip0_328_42989)">
<path d="M24 0H0V24H24V0Z" fill="#A3FE00"/>
<path d="M11.5001 7.245V6.29501C11.5001 5.995 11.26 5.75 10.965 5.75H7.01002C6.85 5.75 6.69502 5.815 6.585 5.93001L3.155 9.39501C3.05501 9.49497 3 9.63497 3 9.77496V12.395C3 12.765 3.3 13.065 3.66 13.065C3.855 13.065 4.04001 12.985 4.17502 12.8451L5 12.0149C5.15 11.8651 5.35001 11.7501 5.56501 11.7501H8.705C9.35501 11.7501 9.68495 12.5799 9.22501 13.0501L5.22001 17.1001C4.80001 17.52 5.09501 18.2499 5.69001 18.2499H6.92001C7.17 18.2499 7.40502 18.15 7.58001 17.975L11.345 14.165C11.4449 14.065 11.5001 13.925 11.5001 13.785V10.4501C11.5001 10.0801 11.2 9.74998 10.83 9.74998H7.53C7.38501 9.74998 7.25 9.83503 7.15001 9.93505L6.215 10.75C6.09501 10.875 5.93001 10.94 5.765 10.94C5.41001 10.94 5 10.65 5 10.2949V8.65001C5 8.27501 5.42001 7.75 5.79 7.75H10.965C11.2649 7.75 11.5001 7.54001 11.5001 7.245ZM12.5001 7.245V6.29501C12.5001 5.995 12.74 5.75 13.0351 5.75H16.9901C17.15 5.75 17.3051 5.815 17.4151 5.93001L20.8451 9.39501C20.945 9.49497 21 9.63497 21 9.77496V12.395C21 12.765 20.7001 13.065 20.3401 13.065C20.1451 13.065 19.9601 12.985 19.8251 12.8451L19 12.0149C18.8501 11.8651 18.65 11.7501 18.435 11.7501H15.295C14.645 11.7501 14.315 12.5799 14.7749 13.0501L18.78 17.1001C19.2001 17.52 18.905 18.2499 18.31 18.2499H17.0799C16.83 18.2499 16.5951 18.15 16.42 17.975L12.655 14.165C12.555 14.065 12.5001 13.925 12.5001 13.785V10.4501C12.5001 10.0801 12.7999 9.74998 13.17 9.74998H16.4701C16.615 9.74998 16.7501 9.83503 16.85 9.93505L17.785 10.75C17.9051 10.875 18.0701 10.94 18.235 10.94C18.59 10.94 19 10.65 19 10.2949V8.65001C19 8.27501 18.58 7.75 18.21 7.75H13.0351C12.735 7.75 12.5001 7.54001 12.5001 7.245Z" fill="white"/>
</g>
<defs>
<clipPath id="clip0_328_42989">
<rect width="24" height="24" fill="white"/>
</clipPath>
</defs>
</svg>
