<svg width="24" height="24" viewBox="0 0 24 24" fill="none" xmlns="http://www.w3.org/2000/svg">
<g clip-path="url(#clip0_328_33173)">
<path d="M24 0H0V24H24V0Z" fill="#43266B"/>
<path fill-rule="evenodd" clip-rule="evenodd" d="M20.3175 12.0038C20.3183 13.5569 19.8844 15.0791 19.0649 16.3984C18.2454 17.7176 17.0731 18.7812 15.6807 19.4688C14.2882 20.1562 12.731 20.4404 11.1853 20.2891C9.63978 20.1376 8.16738 19.5568 6.93476 18.612C6.99842 18.3971 7.00304 18.1689 6.9481 17.9517C6.89319 17.7342 6.78076 17.5357 6.62262 17.3768C6.46449 17.218 6.26649 17.1046 6.04943 17.0487C5.83235 16.9926 5.60422 16.9962 5.389 17.059C4.16629 15.4572 3.56641 13.4661 3.70071 11.4555C3.835 9.44493 4.69436 7.55132 6.11921 6.1264C7.54406 4.70147 9.43759 3.84204 11.4481 3.70765C13.4588 3.57325 15.4499 4.17305 17.0518 5.39566C16.9872 5.61144 16.9821 5.84067 17.0374 6.05902C17.0925 6.27739 17.2058 6.47677 17.365 6.63602C17.5243 6.79528 17.7236 6.90847 17.942 6.96362C18.1602 7.01878 18.3895 7.01383 18.6053 6.94929C19.7181 8.39935 20.32 10.1761 20.3175 12.0038ZM17.4263 4.80637C17.5418 4.68804 17.6798 4.59382 17.8321 4.52918C17.9843 4.46455 18.148 4.43076 18.3133 4.4298C18.4788 4.42885 18.6428 4.46073 18.7958 4.5236C18.949 4.58647 19.0879 4.67908 19.2049 4.79607C19.322 4.91305 19.4146 5.05209 19.4774 5.20512C19.5403 5.35816 19.5722 5.52214 19.5712 5.68759C19.5702 5.85304 19.5364 6.01663 19.4717 6.16893C19.4072 6.32122 19.3129 6.45918 19.1947 6.57481C20.4976 8.31059 21.1307 10.4582 20.9772 12.6234C20.8238 14.7884 19.8944 16.8252 18.3596 18.3601C16.8247 19.8948 14.7878 20.8242 12.6226 20.9775C10.4577 21.1307 8.31006 20.4977 6.57433 19.1946C6.4587 19.3129 6.32075 19.4071 6.16845 19.4718C6.01616 19.5363 5.85255 19.5701 5.68711 19.5711C5.52167 19.572 5.35768 19.5401 5.20464 19.4773C5.05161 19.4144 4.91257 19.3218 4.79559 19.2047C4.67859 19.0878 4.586 18.9488 4.52312 18.7958C4.46024 18.6427 4.42837 18.4788 4.42934 18.3134C4.4303 18.148 4.46407 17.9843 4.52871 17.832C4.59334 17.6797 4.68756 17.5417 4.80589 17.4261C3.50246 15.6903 2.86922 13.5424 3.02252 11.3772C3.17582 9.21184 4.10536 7.17463 5.64035 5.63978C7.17534 4.10492 9.21265 3.17557 11.3779 3.02247C13.5432 2.86934 15.6905 3.50278 17.4263 4.80637ZM11.997 15.7487C12.9885 15.7487 13.9393 15.355 14.6402 14.654C15.3412 13.953 15.7352 13.0023 15.7352 12.0109C15.7352 11.0196 15.3412 10.0688 14.6402 9.36776C13.9393 8.66678 12.9885 8.27296 11.997 8.27296C11.0059 8.27296 10.0552 8.66674 9.35426 9.36768C8.65333 10.0687 8.25956 11.0192 8.25956 12.0106C8.25956 13.0019 8.65333 13.9525 9.35426 14.6534C10.0552 15.3544 11.0059 15.7487 11.997 15.7487ZM11.997 18.522C13.7153 18.5061 15.3577 17.8123 16.5671 16.5917C17.7764 15.3712 18.4549 13.7224 18.4549 12.004C18.4549 10.2858 17.7764 8.63711 16.5671 7.4165C15.3577 6.19589 13.7153 5.50215 11.997 5.48619C11.1349 5.47485 10.2789 5.6349 9.47918 5.95702C8.67932 6.27914 7.95138 6.75691 7.33766 7.36264C6.72393 7.96836 6.23661 8.68993 5.90401 9.48548C5.57142 10.2811 5.40015 11.1349 5.40015 11.9971C5.40015 12.8594 5.57142 13.7131 5.90401 14.5086C6.23661 15.3042 6.72393 16.0258 7.33766 16.6315C7.95138 17.2372 8.67932 17.715 9.47918 18.0372C10.2789 18.3593 11.1349 18.5193 11.997 18.508V18.522ZM14.0013 12.0038C14.0013 12.5353 13.79 13.0451 13.4142 13.4209C13.0383 13.7966 12.5286 14.008 11.997 14.008C11.4656 14.008 10.9558 13.7966 10.5801 13.4209C10.2042 13.0451 9.99306 12.5353 9.99306 12.0038C9.99306 11.4724 10.2042 10.9625 10.5801 10.5868C10.9558 10.2109 11.4656 9.99975 11.997 9.99975C12.5286 9.99975 13.0383 10.2109 13.4142 10.5868C13.79 10.9625 14.0013 11.4724 14.0013 12.0038Z" fill="white"/>
</g>
<defs>
<clipPath id="clip0_328_33173">
<rect width="24" height="24" fill="white"/>
</clipPath>
</defs>
</svg>
