<svg width="24" height="24" viewBox="0 0 24 24" fill="none" xmlns="http://www.w3.org/2000/svg">
<g clip-path="url(#clip0_328_56249)">
<path d="M24 0H0V24H24V0Z" fill="url(#paint0_linear_328_56249)"/>
<path fill-rule="evenodd" clip-rule="evenodd" d="M14.3141 18.1035C15.8056 17.6715 17.0655 16.3602 17.7701 15.0898C18.388 13.9408 18.6528 12.6347 18.5312 11.3356C18.5116 11.1341 18.4685 10.9357 18.4026 10.7443C18.3718 10.6412 18.6341 10.2916 18.7368 10.1528L18.7678 10.1117C19.3996 9.24648 20.0236 8.37561 20.6398 7.49918C20.7478 7.36206 20.8408 7.21379 20.9174 7.05692L20.9843 6.99519C21.01 6.96435 21.0048 6.94892 20.9636 6.95406C19.8632 7.00034 18.7421 7.06719 17.5952 7.15462C17.2198 7.18548 16.8341 7.19577 16.4433 7.19062C16.4034 7.19039 16.3635 7.1852 16.3249 7.17519C16.3021 7.16813 16.2821 7.15367 16.2685 7.13405C15.3787 6.0078 12.2159 5.21068 10.3235 5.73523C9.39515 5.97993 8.52935 6.41855 7.78298 7.02222C7.0366 7.62588 6.42661 8.38086 5.99326 9.23741C5.40163 10.4843 5.21463 11.885 5.45842 13.2436C5.64356 14.3802 4.63559 15.4036 3.77675 16.2778C3.48876 16.5709 3.21106 16.8435 3.01049 17.1005C2.98991 17.1365 3.0002 17.1521 3.0362 17.1469C3.60604 17.114 4.17525 17.0713 4.74358 17.0183C5.64356 16.9361 6.54353 16.8589 7.44864 16.8641C7.55663 16.8641 7.62863 16.9258 7.69035 16.9875L7.77778 17.0645C8.71732 17.7219 9.79398 18.1568 10.9263 18.3368C12.0587 18.5167 13.2171 18.4369 14.3141 18.1035ZM8.09149 14.9972C8.30748 15.0178 8.46176 15.0538 8.62119 15.2183C9.07241 15.6662 9.60922 16.0183 10.1997 16.2541C10.7901 16.4898 11.4217 16.604 12.0573 16.59C12.6929 16.5762 13.3191 16.4343 13.8985 16.1731C14.478 15.9116 14.999 15.5363 15.4301 15.0692C15.936 14.4934 16.2928 13.8019 16.4685 13.0558C16.6442 12.3096 16.6339 11.5317 16.4381 10.7905C16.3866 10.6516 16.3353 10.4972 16.3866 10.3996L17.1273 9.08313C17.1221 9.06772 17.1066 9.05742 17.0913 9.05742C16.5153 9.10885 16.0267 9.09342 15.6153 9.01628C15.4094 8.97513 15.2965 8.85173 15.1731 8.72314C14.5638 8.17031 13.8252 7.77971 13.0253 7.58738C12.2253 7.39505 11.39 7.40715 10.596 7.62261C10.4828 7.65346 10.3852 7.69975 10.2822 7.74603L10.1023 7.82832C8.09663 8.60487 7.0578 10.7492 7.36123 12.7652C7.3715 12.8528 7.39722 12.9452 7.42293 13.0379C7.4795 13.2643 7.54122 13.5059 7.46406 13.7064C7.2956 14.1428 7.06898 14.5544 6.79037 14.9303C6.7895 14.9411 6.79199 14.9518 6.79754 14.9611C6.80307 14.9702 6.81136 14.9774 6.82124 14.9818C6.82637 14.9922 6.84181 14.9922 6.85209 14.9922C7.27893 14.951 7.69035 14.9562 8.09663 14.9922L8.09149 14.9972Z" fill="white"/>
<path d="M4.28567 9.17096C4.99574 9.17096 5.57135 8.59536 5.57135 7.88528C5.57135 7.17523 4.99574 6.59961 4.28567 6.59961C3.57562 6.59961 3 7.17523 3 7.88528C3 8.59536 3.57562 9.17096 4.28567 9.17096Z" fill="white"/>
</g>
<defs>
<linearGradient id="paint0_linear_328_56249" x1="5.91978" y1="7.65139" x2="4.1781" y2="8.91308" gradientUnits="userSpaceOnUse">
<stop stop-color="#3119FF"/>
<stop offset="1" stop-color="#21E8FF"/>
</linearGradient>
<clipPath id="clip0_328_56249">
<rect width="24" height="24" fill="white"/>
</clipPath>
</defs>
</svg>
