<svg width="24" height="24" viewBox="0 0 24 24" fill="none" xmlns="http://www.w3.org/2000/svg">
<g clip-path="url(#clip0_328_43029)">
<path d="M24 0H0V24H24V0Z" fill="#FA2714"/>
<path d="M10.5471 19.999C10.5987 19.9885 10.6494 19.9778 10.7014 19.9679C10.6311 17.1858 10.3591 14.3947 11.1058 11.6841C10.9769 11.5774 10.9174 11.5018 10.8387 11.4672C10.433 11.2894 10.0276 11.1085 9.61072 10.9538C8.87873 10.6832 8.59607 10.2174 8.72762 9.38228C8.88895 9.4565 9.0334 9.52893 9.18362 9.59073C9.6774 9.79427 10.1631 10.0237 10.6712 10.1876C11.3445 10.4054 11.4764 10.5712 11.3716 11.2543C11.3005 11.7196 11.2094 12.1832 11.1725 12.6516C11.1379 13.0792 11.5635 13.6641 11.9054 13.7334C12.2019 13.7943 12.6596 13.4303 12.8045 12.9654C12.8627 12.7787 12.8365 12.561 12.8155 12.3596C12.7671 11.8921 12.6894 11.4286 12.6414 10.961C12.5995 10.5614 12.821 10.3516 13.2112 10.2201C13.7613 10.0361 14.2943 9.80316 14.8339 9.58983C14.9814 9.53161 15.1267 9.46627 15.2916 9.39561C15.3676 10.3383 15.1156 10.6938 14.2739 10.9902C13.8191 11.1503 13.3854 11.365 12.8827 11.581C13.633 14.3991 13.3485 17.1973 13.392 20C13.6099 19.7645 13.7613 19.5169 13.896 19.2609C14.0129 19.0378 14.1063 18.804 14.2147 18.5765C14.7303 17.4938 15.2667 16.4195 15.7503 15.3244C15.9004 14.9831 15.9813 14.5854 15.9858 14.2124C16.0071 12.3757 16.0013 10.5387 15.9858 8.70139C15.9823 8.26361 15.9591 7.80317 15.8191 7.39385C15.5689 6.66185 15.3445 5.87429 14.8819 5.26674C14.0499 4.17341 12.7783 3.87431 11.4076 4.04453C10.3134 4.18053 9.3454 4.65208 8.84896 5.5983C8.32718 6.59206 7.99652 7.67517 8.00452 8.8205C8.01784 10.6285 7.99073 12.4356 8.00452 14.2431C8.00629 14.5321 8.05119 14.8431 8.16985 15.1022C8.85652 16.6089 9.56984 18.105 10.281 19.6022C10.3476 19.7435 10.4574 19.8676 10.5471 19.999Z" fill="white"/>
</g>
<defs>
<clipPath id="clip0_328_43029">
<rect width="24" height="24" fill="white"/>
</clipPath>
</defs>
</svg>
