<svg width="24" height="24" viewBox="0 0 24 24" fill="none" xmlns="http://www.w3.org/2000/svg">
<g clip-path="url(#clip0_328_43261)">
<path d="M24 0H0V24H24V0Z" fill="#24B4E6"/>
<path d="M8.22993 13.7778L6.84771 11.2533C6.6622 10.9151 6.61742 10.5174 6.72307 10.1464C6.82872 9.77536 7.07629 9.4609 7.41216 9.27112L15.3588 4.77334C15.4611 4.67112 15.6166 4.40001 15.4611 4.16446L15.7411 4L17.2432 6.63556C17.3944 7.05779 17.461 8.03556 16.5366 8.56001C15.6166 9.08002 10.941 11.6578 8.71882 12.88C8.56772 12.9644 8.30104 13.2267 8.43437 13.6133C8.38994 13.6578 8.27438 13.7466 8.22993 13.7778ZM8.22993 20L6.84771 17.4755C6.6622 17.1374 6.61742 16.7397 6.72307 16.3686C6.82872 15.9975 7.07629 15.6831 7.41216 15.4934L15.3588 10.9956C15.4611 10.8934 15.6166 10.6222 15.4611 10.3867L15.7411 10.2222L17.2432 12.8578C17.3944 13.28 17.461 14.2578 16.5366 14.7822C15.6166 15.3022 10.941 17.88 8.71882 19.1022C8.56772 19.1866 8.30104 19.4489 8.43437 19.8355C8.38994 19.88 8.27438 19.9689 8.22993 20Z" fill="white"/>
</g>
<defs>
<clipPath id="clip0_328_43261">
<rect width="24" height="24" fill="white"/>
</clipPath>
</defs>
</svg>
