<svg width="24" height="24" viewBox="0 0 24 24" fill="none" xmlns="http://www.w3.org/2000/svg">
<g clip-path="url(#clip0_328_37937)">
<path d="M24 0H0V24H24V0Z" fill="#E23C25"/>
<path d="M8.00002 9.75011V5.25L4 7.50002L8.00002 9.75011Z" fill="white"/>
<path d="M8.00002 14.25V9.75L4 11.9999L8.00002 14.25Z" fill="white"/>
<path d="M8.00002 18.75V14.25L4 16.5L8.00002 18.75Z" fill="white"/>
<path d="M20.0002 16.5V11.9999L16.0002 14.25L20.0002 16.5ZM16.0002 14.25V9.75L12 11.9999L16.0002 14.25ZM16.0002 18.75V14.25L12 16.5L16.0002 18.75Z" fill="white"/>
<path d="M12 21V16.5L8 18.7499L12 21Z" fill="white"/>
<path d="M20.0001 12V7.5L16 9.75011L20.0001 12Z" fill="white"/>
<path d="M12 7.50005V3L8 5.25002L12 7.50005Z" fill="white"/>
<path d="M8 9.75011V5.25L12 7.50002L8 9.75011Z" fill="white"/>
<path d="M8 14.25V9.75L12 11.9999L8 14.25ZM12 21V16.5L16 18.75L12 21Z" fill="white"/>
<path d="M4 12V7.5L8.00002 9.75011L4 12ZM4 16.5001V12L8.00002 14.25L4 16.5001Z" fill="white"/>
<path d="M12 7.50005V3L16.0002 5.25002L12 7.50005Z" fill="white"/>
<path d="M16 9.75011V5.25L20.0001 7.50002L16 9.75011ZM16 14.2501V9.75011L20.0001 12L16 14.2501Z" fill="white"/>
<path d="M16 18.75V14.25L20.0001 16.5L16 18.75Z" fill="white"/>
</g>
<defs>
<clipPath id="clip0_328_37937">
<rect width="24" height="24" fill="white"/>
</clipPath>
</defs>
</svg>
