<svg width="24" height="24" viewBox="0 0 24 24" fill="none" xmlns="http://www.w3.org/2000/svg">
<g clip-path="url(#clip0_328_37969)">
<path d="M24 0H0V24H24V0Z" fill="black"/>
<path fill-rule="evenodd" clip-rule="evenodd" d="M12.1343 11.6405C12.1269 11.6537 12.116 11.6646 12.1028 11.672C12.0893 11.6764 12.0803 11.672 12.0713 11.663C11.6453 10.9206 11.1606 10.2132 10.6221 9.54781C10.0428 8.79355 9.34353 8.13976 8.55199 7.61263C8.19195 7.3921 7.84992 7.2391 7.51689 7.15809C7.05502 7.03109 6.56841 7.02395 6.10301 7.13735C5.63762 7.25074 5.20883 7.48093 4.85715 7.80616C3.99548 8.58201 3.40156 9.61075 3.16049 10.7449C3.02548 11.2714 2.98047 11.753 3.00748 12.194C3.05249 12.9232 3.22801 13.6387 3.53404 14.3453C3.82326 15.042 4.25918 15.6683 4.81215 16.1815C5.09526 16.4546 5.43399 16.6637 5.80523 16.7942C6.17648 16.9247 6.57149 16.9735 6.96334 16.9374C7.95343 16.8474 8.95701 16.2443 9.96511 15.1373C10.7796 14.2373 11.4817 13.2832 12.0667 12.275C12.0758 12.257 12.0893 12.257 12.0982 12.275C12.9067 13.6796 13.9388 14.9428 15.154 16.0149C15.5748 16.373 16.0607 16.6466 16.5852 16.8204C17.2017 17.014 17.7914 16.9915 18.3584 16.7619C18.9149 16.5212 19.3944 16.132 19.7445 15.6369C20.3668 14.7865 20.7745 13.7984 20.9325 12.7565C21.117 11.6539 20.9235 10.5153 20.3475 9.33178C19.9987 8.53047 19.4129 7.85515 18.6689 7.39661C18.2883 7.17794 17.8589 7.05838 17.4202 7.04894C16.9814 7.03952 16.5473 7.14049 16.1577 7.34261C15.6537 7.57213 15.1676 7.90516 14.7041 8.3462C13.694 9.31261 12.8298 10.4208 12.1388 11.636L12.1343 11.6405ZM6.50879 7.2751C5.70772 7.42812 5.01467 7.90966 4.43861 8.72873C3.94174 9.43982 3.60124 10.2482 3.43953 11.1004C3.34713 11.5397 3.32585 11.9911 3.37652 12.437C3.46652 13.1617 3.67354 13.8502 3.98856 14.5073C4.63213 15.8304 5.47371 16.5729 6.50879 16.7395C6.5178 16.7395 6.5223 16.7395 6.5178 16.7484C6.5178 16.7574 6.5178 16.7619 6.50879 16.7619C6.05426 16.7395 5.60871 16.5684 5.18118 16.2489C4.79411 15.9603 4.46313 15.6035 4.2046 15.1958C3.62404 14.3003 3.28652 13.3192 3.18301 12.257C3.16501 12.077 3.16501 11.906 3.17851 11.7439C3.27061 10.5939 3.6873 9.49374 4.38011 8.57122C4.68045 8.16753 5.05837 7.82785 5.49171 7.57213C5.84244 7.36407 6.24065 7.24941 6.6483 7.2391C6.6573 7.2391 6.6618 7.2391 6.6618 7.2526C6.6618 7.2571 6.6618 7.26159 6.6483 7.26159C6.6033 7.26159 6.5583 7.26159 6.5133 7.2751H6.50879ZM20.514 13.0672C20.7526 11.987 20.6311 10.8754 20.1495 9.72782C19.6545 8.54421 18.9569 7.76564 18.0659 7.39661C17.9623 7.35161 17.8048 7.31111 17.5843 7.27061L17.4809 7.2526C17.4718 7.2481 17.4718 7.2481 17.4809 7.2481C17.7418 7.2436 17.9849 7.2841 18.2098 7.37411C19.1054 7.72514 19.8075 8.49921 20.316 9.70081C20.7936 10.7502 20.9275 11.9237 20.6985 13.0537C20.5831 13.5957 20.4018 14.1216 20.1585 14.6198C19.9073 15.1558 19.5595 15.6409 19.1324 16.0509C18.7142 16.4699 18.1573 16.7213 17.5663 16.7574C17.5663 16.7484 17.5663 16.744 17.5754 16.744C18.5159 16.6135 19.2944 15.9429 19.9199 14.7278C20.1874 14.2035 20.3857 13.6469 20.5094 13.0717L20.514 13.0672ZM3.60604 11.168C3.50775 11.6883 3.50775 12.2226 3.60604 12.7432C3.75005 13.6049 4.0769 14.4259 4.56463 15.1508C5.14968 16.0059 5.84723 16.4784 6.6618 16.582C7.36136 16.649 8.06048 16.4498 8.61949 16.0238V16.0059L8.61499 15.9923C8.25495 16.1994 7.88592 16.3345 7.50788 16.3975C7.04318 16.4699 6.5674 16.4041 6.13977 16.2084C5.71124 16.0142 5.33262 15.7247 5.03267 15.3624C4.42668 14.6348 4.00933 13.7693 3.81756 12.842C3.56554 11.726 3.75456 10.5739 4.39361 9.38579C4.64813 8.90381 4.98643 8.47102 5.3927 8.10767C5.79005 7.74244 6.28926 7.50696 6.82381 7.43262C6.85533 7.43262 6.85533 7.42362 6.82381 7.41462C6.78739 7.40319 6.74856 7.40163 6.71131 7.41012L6.5763 7.43712C6.33328 7.48212 6.15777 7.53612 6.04526 7.58113C5.36079 7.90049 4.79064 8.42194 4.41161 9.07526C4.01516 9.71543 3.74052 10.4234 3.60154 11.1634L3.60604 11.168ZM17.2603 7.43262C17.2971 7.41668 17.3374 7.41049 17.3773 7.41462C17.7644 7.45962 18.1019 7.57213 18.3944 7.76115C18.9344 8.10317 19.3844 8.61622 19.7534 9.29128C20.0803 9.90173 20.2995 10.564 20.4015 11.2489C20.4915 11.8384 20.469 12.4415 20.334 13.0582C20.1714 13.848 19.8531 14.5976 19.3979 15.2633C18.8624 16.0283 18.2279 16.4649 17.4943 16.582C16.8214 16.6632 16.1435 16.4792 15.6041 16.0689C15.5951 16.0644 15.5951 16.0598 15.5996 16.0509C15.8759 16.1976 16.1713 16.3051 16.4772 16.3704C17.0172 16.492 17.5483 16.4244 18.0523 16.1544C18.5383 15.8903 18.9511 15.51 19.2539 15.0473C19.8164 14.2253 20.1629 13.2752 20.2619 12.284C20.2934 12.0095 20.2934 11.7439 20.2619 11.4785C20.1527 10.3797 19.7258 9.33674 19.0334 8.47671C18.8249 8.19066 18.5601 7.95043 18.255 7.77083C17.9501 7.59125 17.6114 7.47614 17.2603 7.43262ZM17.2468 7.43262H17.2332L17.2198 7.43712H17.2153H17.2468V7.43262ZM7.00835 16.2624H7.01284V16.2443C6.28794 16.0919 5.64418 15.6788 5.20369 15.0833C4.72671 14.449 4.38651 13.7227 4.2046 12.9502C4.02592 12.236 4.03057 11.4882 4.2181 10.7764C4.43456 9.88058 4.88853 9.05974 5.53221 8.40021C5.95422 7.96805 6.50267 7.68122 7.09835 7.58113H7.09386C6.73213 7.60161 6.37907 7.69987 6.05876 7.86916C5.50363 8.18677 5.04007 8.64258 4.71313 9.19227C4.37493 9.7353 4.13145 10.3318 3.99307 10.9564C3.74105 12.0859 3.94806 13.2562 4.62313 14.4668C4.85607 14.8947 5.16049 15.2799 5.52321 15.6054C5.94175 15.9744 6.43679 16.1904 7.00835 16.2579V16.2624ZM17.0487 7.59013C17.5033 7.61263 17.9174 7.75664 18.2864 8.02667C18.7995 8.41448 19.213 8.91894 19.4924 9.4983C19.7805 10.0563 19.9695 10.6683 20.0684 11.3299C20.118 11.6764 20.1225 12.0229 20.0774 12.3651C19.9748 13.2101 19.6925 14.0234 19.2494 14.7503C18.7184 15.6099 18.0613 16.1004 17.2828 16.2354C17.0713 16.2669 17.0668 16.2534 17.2738 16.1904C17.7129 16.0806 18.1132 15.8518 18.4303 15.5288C19.2044 14.7439 19.7062 13.731 19.8614 12.6397C19.9556 12.1214 19.951 11.59 19.8479 11.0734C19.6769 10.1055 19.2442 9.20285 18.5969 8.46321C18.1935 8.00912 17.6474 7.70595 17.0487 7.60363C16.9812 7.59013 16.9812 7.58564 17.0487 7.59013ZM4.46111 11.5234C4.55112 10.9833 4.70413 10.4838 4.92017 10.0248C5.22376 9.31811 5.72949 8.71687 6.37378 8.29669C6.6981 8.09039 7.06861 7.96798 7.45198 7.94049C7.83536 7.91299 8.21955 7.98127 8.56997 8.13918C8.78601 8.22918 8.99302 8.33269 9.18653 8.45421C9.27655 8.51721 9.27655 8.51271 9.19554 8.44521C8.68152 8.01385 8.03481 7.77233 7.36387 7.76115C6.6348 7.76564 5.98226 8.11217 5.4107 8.79623C4.79077 9.55078 4.39614 10.4648 4.2721 11.4334C4.21986 12.1026 4.30119 12.7753 4.51133 13.4129C4.72148 14.0502 5.05626 14.6396 5.49621 15.1463C5.62221 15.2858 5.63121 15.2813 5.51421 15.1328C4.88415 14.2958 4.51511 13.3327 4.42511 12.257C4.40711 12.032 4.42061 11.7845 4.46111 11.5234ZM19.4564 11.0824C19.1369 9.71881 18.5294 8.77824 17.6428 8.24719C17.2971 8.0365 16.9 7.92505 16.4952 7.92505C16.0903 7.92505 15.6933 8.0365 15.3476 8.24719C15.2647 8.28856 15.1807 8.32758 15.0955 8.3642C15.4736 8.09417 15.8606 7.91416 16.2612 7.82416C16.7634 7.69971 17.2942 7.77048 17.7463 8.02216C18.1694 8.24719 18.5384 8.60722 18.8624 9.08876C19.1882 9.57665 19.4317 10.1149 19.5824 10.6819C19.7428 11.2508 19.7872 11.8462 19.713 12.4325C19.6045 13.5011 19.1493 14.5048 18.4169 15.2903C18.3269 15.3803 18.3224 15.3803 18.4034 15.2813C18.9439 14.6127 19.3117 13.8214 19.4744 12.9772C19.6094 12.3425 19.6004 11.7079 19.4564 11.0824ZM7.31437 8.17517C7.39988 8.16168 7.45838 8.14818 7.49439 8.13018H7.50339V8.12567H7.49888C7.12085 8.12567 6.74731 8.25168 6.37378 8.50371C6.03932 8.73096 5.74947 9.01774 5.51871 9.34979C5.17474 9.83705 4.91885 10.3808 4.76264 10.9564C4.59345 11.5304 4.55804 12.1353 4.65914 12.725C4.78064 13.3733 4.99215 13.9628 5.2892 14.4893C5.58317 15.0407 6.02397 15.5003 6.5628 15.8169C6.81787 15.9547 7.09783 16.0404 7.38637 16.0689L7.39087 16.0509C6.65352 15.8632 6.01973 15.3928 5.62671 14.7413C5.22168 14.1383 4.95617 13.4408 4.82565 12.6532C4.7508 12.174 4.76913 11.6851 4.87965 11.2129C5.06365 10.3347 5.48736 9.52474 6.10376 8.87274C6.39936 8.5787 6.75573 8.3529 7.14786 8.21118C7.18386 8.19768 7.23786 8.18418 7.31437 8.17517ZM16.7022 8.14817H16.6888C16.6662 8.14367 16.6662 8.13918 16.6888 8.13918C16.8237 8.13018 16.9408 8.14817 17.0487 8.18418C17.6592 8.39311 18.1801 8.80435 18.5249 9.34979C18.8714 9.84481 19.1189 10.4298 19.2764 11.0959C19.5104 12.095 19.3754 13.1302 18.8714 14.2013C18.6418 14.717 18.3042 15.1773 17.8814 15.5513C17.5574 15.8285 17.1605 16.0066 16.7382 16.0644V16.0419C16.9796 15.9815 17.2105 15.8844 17.4222 15.7538C17.9009 15.4327 18.2909 14.9962 18.5564 14.4848C18.8309 13.9853 19.0244 13.4407 19.1369 12.8512C19.2539 12.221 19.2269 11.5909 19.0649 10.9609C18.8845 10.2267 18.5363 9.54438 18.0479 8.96725C17.6983 8.55745 17.2267 8.27041 16.7022 8.14817ZM6.23877 8.98525C5.85446 9.37118 5.55147 9.8303 5.3477 10.3353C5.24868 10.5694 5.16318 10.8169 5.09117 11.078C4.82565 12.0635 4.96515 13.094 5.51421 14.1833C5.98226 15.1058 6.5943 15.6639 7.35936 15.8484C7.40778 15.8611 7.45797 15.8657 7.50788 15.8619C7.53938 15.8619 7.54389 15.8529 7.50788 15.8438C6.9153 15.6535 6.40149 15.2742 6.04526 14.7638C5.68516 14.26 5.4254 13.6915 5.28019 13.0897C5.09339 12.3961 5.09963 11.6646 5.2982 10.9744C5.4602 10.4119 5.69422 9.91231 6.00026 9.4803C6.30972 9.02404 6.7397 8.6626 7.24236 8.43621C7.38343 8.38217 7.52973 8.34296 7.67891 8.3192C7.74191 8.3057 7.74191 8.30118 7.67891 8.30118C7.16586 8.31919 6.6888 8.54421 6.23877 8.98525ZM18.8354 11.6405C18.7364 10.8799 18.4979 10.2003 18.1109 9.58381C17.6473 8.84575 17.0757 8.42271 16.4007 8.31021C16.3992 8.31058 16.3976 8.31058 16.3962 8.31021V8.29669C16.8193 8.31019 17.2062 8.45871 17.5618 8.74673C18.0104 9.12511 18.3647 9.60277 18.5969 10.1418C18.8399 10.6819 18.9839 11.2489 19.0289 11.8384C19.0469 12.05 19.0379 12.2706 19.0064 12.509C18.9164 13.2158 18.7004 13.8592 18.3764 14.4443C18.0669 15.0599 17.5437 15.5414 16.9048 15.7989C16.7697 15.8484 16.6303 15.8708 16.4907 15.8663C16.4637 15.8663 16.4637 15.8664 16.4907 15.8529L16.6077 15.8214C16.6977 15.8033 16.7697 15.7808 16.8148 15.7629C17.3699 15.5027 17.8307 15.0765 18.1334 14.5433C18.4502 14.0134 18.6698 13.4313 18.7814 12.8242C18.8624 12.401 18.8804 12.005 18.8354 11.6405ZM7.56639 8.53521C7.54907 8.54207 7.5309 8.54661 7.51239 8.54872C7.40437 8.56222 7.30086 8.59372 7.19736 8.64772C6.84633 8.84124 6.5538 9.07976 6.31977 9.36779V9.3813H6.33778C6.64682 8.96963 7.08367 8.67207 7.57989 8.53521H7.56639ZM16.5988 8.55321C16.6752 8.55771 16.7472 8.57571 16.8148 8.61172C17.3034 8.86438 17.7093 9.2517 17.9849 9.72782C17.9849 9.73682 17.9849 9.74131 17.9759 9.74582H17.9668C17.7038 9.29384 17.3225 8.92202 16.8642 8.67022C16.7581 8.60946 16.6424 8.56687 16.5222 8.54421H16.5673C16.5762 8.55321 16.5897 8.55321 16.5988 8.55321ZM6.4638 9.73682C6.64452 9.46019 6.87844 9.22226 7.15193 9.03684C7.42543 8.85142 7.73306 8.7222 8.05694 8.65673C8.14694 8.64322 8.14694 8.63872 8.05694 8.64322C7.48538 8.67022 6.97685 8.93575 6.5313 9.43529C6.0228 10.0238 5.6837 10.7393 5.55021 11.5055C5.50112 11.7452 5.48595 11.9906 5.50521 12.2345C5.56791 13.0571 5.85598 13.8466 6.33778 14.5163C6.81481 15.1778 7.38637 15.5154 8.05694 15.5378L8.06594 15.5333C8.06594 15.5243 8.06594 15.5199 8.05694 15.5154C7.78691 15.4703 7.56189 15.4028 7.38187 15.2994C6.5268 14.8088 5.98226 13.9358 5.73472 12.6712C5.65708 12.2991 5.65097 11.9157 5.71672 11.5415C5.8275 10.893 6.08283 10.2777 6.4638 9.74131V9.73682ZM16.0136 8.64772H16.0091C16.0046 8.64772 16.0046 8.64772 16.0091 8.64772C16.0991 8.63872 16.1892 8.64322 16.2881 8.66573C17.1883 8.85475 17.8544 9.55681 18.2684 10.7673C18.5339 11.5324 18.5699 12.2795 18.3809 13.004C18.2599 13.4925 18.0624 13.9589 17.7959 14.3858C17.5421 14.8124 17.17 15.1564 16.7248 15.3758C16.5019 15.4698 16.2641 15.5231 16.0227 15.5333V15.5154C16.6437 15.4433 17.1658 15.0743 17.5978 14.4038C18.3088 13.2967 18.4979 12.1715 18.1739 11.0284C18.0206 10.4695 17.7557 9.94752 17.3953 9.49381C17.0353 9.04375 16.5762 8.76473 16.0136 8.64772ZM6.01376 13.0852C6.21117 13.8154 6.62166 14.4704 7.19286 14.9663C7.57539 15.2723 7.98493 15.4028 8.42596 15.3579C9.16853 15.2903 9.85261 14.8628 10.4781 14.0978C11.0075 13.4407 11.486 12.7439 11.9092 12.014C11.9141 12.0067 11.9167 11.9981 11.9167 11.9893C11.9167 11.9805 11.9141 11.9718 11.9092 11.9644C11.5006 11.2452 11.0114 10.5749 10.4512 9.96631C10.0801 9.54649 9.62254 9.21183 9.11003 8.98525C8.85474 8.86695 8.57535 8.80982 8.2941 8.81841C8.01285 8.827 7.73748 8.90109 7.48988 9.03476C6.72031 9.4533 6.19827 10.2273 5.93275 11.3525C5.79336 11.9258 5.82147 12.5273 6.01376 13.0852ZM17.6518 13.9403C17.434 14.4155 17.0881 14.8208 16.6527 15.1103C16.4322 15.252 16.1806 15.338 15.9195 15.3606C15.6584 15.3834 15.3957 15.3422 15.154 15.2408C14.7583 15.0954 14.4 14.8632 14.1055 14.5613C13.9636 14.413 13.8284 14.2583 13.7005 14.0978C13.1699 13.4303 12.6916 12.7231 12.2693 11.9825C12.265 11.9758 12.2625 11.968 12.2625 11.9599C12.2625 11.952 12.265 11.9442 12.2693 11.9375C12.7115 11.1338 13.2662 10.3973 13.9165 9.75031C14.2219 9.44367 14.5782 9.1924 14.9695 9.00776C15.204 8.88621 15.4636 8.8209 15.7275 8.817C15.9914 8.81308 16.2527 8.87069 16.4907 8.98525C16.9558 9.23007 17.3343 9.61182 17.5754 10.0788C17.9281 10.6591 18.1209 11.3225 18.1343 12.0014C18.1478 12.6805 17.9813 13.3509 17.6518 13.9447V13.9403ZM7.21986 15.5558C7.30537 15.6008 7.37287 15.6278 7.42688 15.6414C7.56189 15.6729 7.56639 15.6639 7.43588 15.6143C6.92542 15.4169 6.4863 15.0703 6.17576 14.6198V14.6288C6.44129 15.0338 6.78783 15.3398 7.21986 15.5558ZM16.5897 15.6369C16.999 15.482 17.3626 15.2265 17.6473 14.8943V14.9078C17.3738 15.2552 17.0046 15.5148 16.5852 15.6548C16.5807 15.6458 16.5852 15.6414 16.5897 15.6369Z" fill="white"/>
</g>
<defs>
<clipPath id="clip0_328_37969">
<rect width="24" height="24" fill="white"/>
</clipPath>
</defs>
</svg>
