<svg width="24" height="24" viewBox="0 0 24 24" fill="none" xmlns="http://www.w3.org/2000/svg">
<g clip-path="url(#clip0_328_35528)">
<path d="M24 0H0V24H24V0Z" fill="#F23A2E"/>
<path fill-rule="evenodd" clip-rule="evenodd" d="M4 19.4666C4 19.3786 5.34454 15.4325 6.01706 13.4704C6.24106 13.8528 7.1088 14.4825 8.79681 14.5609C8.8217 14.5938 8.85388 14.6205 8.8908 14.6388C8.92773 14.657 8.96839 14.6666 9.00961 14.6666H13.055C13.1178 14.8445 13.2417 14.9944 13.4044 15.09C13.5672 15.1854 13.7585 15.2203 13.9445 15.1885C14.1304 15.1565 14.2992 15.0599 14.4209 14.9155C14.5425 14.7713 14.6092 14.5886 14.6092 14.4C14.6092 14.2112 14.5425 14.0286 14.4209 13.8842C14.2992 13.74 14.1304 13.6433 13.9445 13.6115C13.7585 13.5795 13.5672 13.6143 13.4044 13.7099C13.2417 13.8053 13.1178 13.9553 13.055 14.1333H9.00961C8.96153 14.1333 8.91434 14.1462 8.87303 14.1709C8.83172 14.1953 8.79783 14.2307 8.77494 14.273C7.2384 14.2249 4.81866 13.265 5.12106 9.26495C5.3392 6.37907 8.34454 4.5332 9.8758 4.5332H20L17.904 10.6218C17.3313 9.81052 15.8784 9.46707 15.0438 9.3924C14.9965 9.354 14.9372 9.33309 14.8762 9.3332H10.8309C10.7681 9.15528 10.6442 9.00533 10.4814 8.90984C10.3187 8.81436 10.1274 8.77948 9.94138 8.8114C9.75546 8.8433 9.58671 8.93995 9.46501 9.08423C9.34341 9.22852 9.2767 9.41115 9.2767 9.59983C9.2767 9.78862 9.34341 9.97118 9.46501 10.1156C9.58671 10.2598 9.75546 10.3565 9.94138 10.3884C10.1274 10.4203 10.3187 10.3855 10.4814 10.2899C10.6442 10.1945 10.7681 10.0445 10.8309 9.86652H14.8762C14.9434 9.86652 15.0043 9.842 15.0512 9.80094C16.888 10.0031 18.8358 10.9775 18.8358 14.3913C18.8358 17.9343 15.7595 19.2512 14.2214 19.4666H4Z" fill="white"/>
</g>
<defs>
<clipPath id="clip0_328_35528">
<rect width="24" height="24" fill="white"/>
</clipPath>
</defs>
</svg>
