<svg width="25" height="24" viewBox="0 0 25 24" fill="none" xmlns="http://www.w3.org/2000/svg">
<g clip-path="url(#clip0_328_33201)">
<path d="M24.5 0H0.5V24H24.5V0Z" fill="white"/>
<path d="M12.5 20C14.6218 20 16.6566 19.1571 18.1569 17.6568C19.6571 16.1566 20.5 14.1218 20.5 12C20.5 9.87828 19.6571 7.84343 18.1569 6.34314C16.6566 4.84286 14.6218 4 12.5 4C10.3783 4 8.34343 4.84286 6.84314 6.34314C5.34286 7.84343 4.5 9.87828 4.5 12C4.5 14.1218 5.34286 16.1566 6.84314 17.6568C8.34343 19.1571 10.3783 20 12.5 20Z" fill="#301748"/>
<path d="M12.8057 17.3271C12.5327 17.0777 12.2786 16.8095 12.048 16.5271C11.488 15.8071 10.2456 14.5506 9.93506 14.2306L8.86683 13.1388C8.81977 13.0871 8.73506 13.0212 8.78213 12.9364C8.83389 12.8423 8.93271 12.8565 9.01742 12.8612L9.13036 12.8895L9.8833 13.1907C10.3915 13.3976 10.8857 13.6095 11.3892 13.8023C11.695 13.9153 11.8267 13.8023 11.7656 13.4776C11.7186 13.2141 11.6527 12.9506 11.5774 12.6871C11.5614 12.6293 11.5581 12.5687 11.5676 12.5096C11.5773 12.4504 11.5997 12.3941 11.6333 12.3443C11.6668 12.2947 11.7108 12.2529 11.7621 12.2219C11.8134 12.1909 11.8708 12.1713 11.9303 12.1647C12.0339 12.1459 12.1421 12.1459 12.2457 12.1365C12.3491 12.1271 12.4574 12.1035 12.4998 11.9811C12.5184 11.928 12.5198 11.8703 12.5037 11.8161C12.4877 11.7621 12.455 11.7144 12.4103 11.6799C12.0668 11.3505 11.7279 11.0118 11.3892 10.6777C10.0332 9.34028 8.67789 8.00224 7.3233 6.66349C7.27624 6.61643 7.21977 6.56937 7.25742 6.49408C7.29978 6.41878 7.36566 6.42819 7.43154 6.44231C7.6433 6.48466 7.79389 6.63055 7.9586 6.74819C8.39624 7.04937 8.85742 7.32232 9.30447 7.60937L10.2456 8.19761C10.5515 8.39997 10.848 8.59761 11.1539 8.79054C11.5915 9.07291 12.0386 9.34113 12.4715 9.61878C12.9467 9.91997 13.4174 10.2305 13.8833 10.5317C13.9727 10.5883 14.048 10.6165 14.1374 10.5411C14.2315 10.4611 14.2175 10.3812 14.1751 10.2729C14.0809 10.0236 13.9068 9.81643 13.8409 9.5576C13.8174 9.47761 13.7939 9.39289 13.8833 9.32231C13.9166 9.29639 13.9572 9.28154 13.9994 9.27985C14.0416 9.27817 14.0832 9.28973 14.1186 9.3129C14.4386 9.46349 14.7492 9.63291 15.0503 9.82115C15.4174 10.0471 15.8033 10.2541 16.1939 10.4329C16.8339 10.7341 17.4456 11.0917 18.0527 11.4541C18.387 11.6676 18.675 11.9461 18.8998 12.2729C19.0739 12.5129 19.2245 12.7764 19.3374 13.0495C19.5939 13.6102 19.7083 14.2256 19.6706 14.8412C19.6328 15.4567 19.4439 16.0535 19.1209 16.5788C18.6083 17.3875 17.8422 18.0031 16.9421 18.3295C16.5339 18.4707 16.1031 18.5346 15.6715 18.5176C14.8197 18.4612 13.9774 18.3435 12.801 17.3271H12.8057ZM18.3162 14.7623C18.3232 14.4279 18.2628 14.0954 18.139 13.7847C18.015 13.4739 17.8299 13.1913 17.5947 12.9534C17.3595 12.7155 17.0788 12.5273 16.7695 12.3999C16.4602 12.2726 16.1283 12.2086 15.7939 12.2117C15.4625 12.2167 15.1353 12.2871 14.8312 12.4192C14.5273 12.5514 14.2524 12.7423 14.0227 12.9812C13.7931 13.2202 13.613 13.5023 13.4928 13.8112C13.3728 14.1201 13.3151 14.4499 13.3233 14.7811C13.3233 15.9765 14.4857 17.3083 15.8079 17.2235C17.1727 17.2799 18.3068 16.0471 18.3162 14.7623Z" fill="url(#paint0_linear_328_33201)"/>
<path d="M9.80386 11.5158C9.80257 11.6178 9.84123 11.7163 9.91158 11.7902C9.98193 11.8642 10.0784 11.9075 10.1803 11.9111C10.2322 11.9114 10.2836 11.9007 10.3313 11.8801C10.3788 11.8594 10.4217 11.8291 10.457 11.7911C10.4924 11.7531 10.5195 11.7082 10.5367 11.6592C10.5539 11.6102 10.5607 11.5582 10.5568 11.5065C10.552 11.4033 10.5079 11.3058 10.4335 11.234C10.3592 11.1622 10.2601 11.1216 10.1568 11.1206C10.0586 11.129 9.96737 11.1746 9.90174 11.248C9.83612 11.3216 9.8011 11.4174 9.80386 11.5158Z" fill="url(#paint1_linear_328_33201)"/>
<path d="M11.3942 6.70007C11.6202 6.70007 11.7565 6.55889 11.7565 6.3236C11.7518 6.22616 11.7105 6.13414 11.6406 6.06603C11.5707 5.99792 11.4777 5.9588 11.3801 5.95654C11.2154 5.95654 10.9849 6.17302 10.9849 6.33301C10.9909 6.43581 11.0373 6.53204 11.114 6.60079C11.1906 6.66953 11.2914 6.70522 11.3942 6.70007Z" fill="url(#paint2_linear_328_33201)"/>
<path d="M7.27655 10.0706C7.27861 10.0246 7.27096 9.9786 7.25413 9.93567C7.23729 9.89274 7.21162 9.85386 7.17881 9.82147C7.14598 9.78908 7.10673 9.76396 7.06357 9.7477C7.02042 9.73145 6.97435 9.72444 6.92832 9.72712C6.83656 9.73597 6.751 9.77737 6.68713 9.84387C6.62325 9.9103 6.58527 9.99749 6.58008 10.0895C6.58585 10.179 6.62465 10.2633 6.68899 10.3259C6.75333 10.3885 6.83861 10.425 6.92832 10.4282C6.97481 10.4297 7.02108 10.4214 7.06425 10.4041C7.10741 10.3867 7.14654 10.3607 7.17921 10.3276C7.21188 10.2945 7.23738 10.255 7.25413 10.2116C7.27088 10.1682 7.2785 10.1218 7.27655 10.0753V10.0706Z" fill="url(#paint3_linear_328_33201)"/>
<path d="M15.8081 17.2244C17.1729 17.2808 18.3071 16.0479 18.3164 14.7632C18.3234 14.4288 18.263 14.0962 18.1392 13.7855C18.0152 13.4748 17.8301 13.1921 17.5949 12.9542C17.3597 12.7164 17.079 12.5281 16.7697 12.4008C16.4604 12.2734 16.1285 12.2094 15.7941 12.2125C15.4627 12.2175 15.1355 12.288 14.8314 12.4201C14.5275 12.5522 14.2527 12.7432 14.0229 12.9821C13.7933 13.221 13.6132 13.5031 13.493 13.8121C13.373 14.1209 13.3153 14.4507 13.3235 14.782C13.3235 15.9773 14.4859 17.3044 15.8081 17.2197V17.2244Z" fill="url(#paint4_linear_328_33201)"/>
</g>
<defs>
<linearGradient id="paint0_linear_328_33201" x1="20.51" y1="11.9984" x2="4.50349" y2="11.9984" gradientUnits="userSpaceOnUse">
<stop stop-color="#E2107B"/>
<stop offset="1" stop-color="#301748"/>
</linearGradient>
<linearGradient id="paint1_linear_328_33201" x1="20.3781" y1="12.0006" x2="4.40372" y2="12.0006" gradientUnits="userSpaceOnUse">
<stop stop-color="#E2107B"/>
<stop offset="1" stop-color="#0D1126"/>
</linearGradient>
<linearGradient id="paint2_linear_328_33201" x1="20.5001" y1="11.9936" x2="4.50011" y2="11.9936" gradientUnits="userSpaceOnUse">
<stop stop-color="#E2107B"/>
<stop offset="1" stop-color="#0D1126"/>
</linearGradient>
<linearGradient id="paint3_linear_328_33201" x1="20.6006" y1="11.9512" x2="4.50009" y2="11.9512" gradientUnits="userSpaceOnUse">
<stop stop-color="#E2107B"/>
<stop offset="1" stop-color="#0D1126"/>
</linearGradient>
<linearGradient id="paint4_linear_328_33201" x1="19.6625" y1="16.2079" x2="13.4506" y2="13.8126" gradientUnits="userSpaceOnUse">
<stop stop-color="#301748"/>
<stop offset="1" stop-color="#E2107B"/>
</linearGradient>
<clipPath id="clip0_328_33201">
<rect width="24" height="24" fill="white" transform="translate(0.5)"/>
</clipPath>
</defs>
</svg>
