<svg width="24" height="24" viewBox="0 0 24 24" fill="none" xmlns="http://www.w3.org/2000/svg">
<g clip-path="url(#clip0_328_31171)">
<path d="M24 0H0V24H24V0Z" fill="white"/>
<path d="M11.6174 4.10003C11.8531 3.96666 12.1464 3.96666 12.3821 4.10003L18.7306 7.72326C18.9661 7.85662 19.1129 8.10558 19.1129 8.37677V15.6233C19.1129 15.8899 18.9661 16.1434 18.7306 16.2768L12.3821 19.8999C12.1464 20.0334 11.8531 20.0334 11.6174 19.8999L5.26905 16.2768C5.15348 16.2111 5.05727 16.1161 4.99015 16.0014C4.92302 15.8866 4.88735 15.7562 4.88672 15.6233V8.37677C4.88672 8.11003 5.03343 7.85662 5.26905 7.72326L11.6174 4.10003Z" fill="url(#paint0_linear_328_31171)"/>
<path d="M12.0176 12.0002L5.77588 8.44374L12.0176 4.88721L18.2238 8.44374L12.0176 12.0002Z" fill="url(#paint1_linear_328_31171)"/>
<path d="M11.9998 11.9781L11.9953 19.1135L5.78477 15.5347L5.77588 8.44385L11.9998 11.9781Z" fill="url(#paint2_linear_328_31171)"/>
<path d="M12 11.9781L12.0045 19.1135L18.215 15.5347L18.224 8.44385L12 11.9781Z" fill="url(#paint3_linear_328_31171)"/>
<path d="M5.56276 10.7236L12.1424 14.4002C12.378 14.5336 12.4579 14.8269 12.3202 15.0581C12.1868 15.2894 11.889 15.3693 11.6533 15.236L5.07373 11.5593L5.56276 10.7236Z" fill="url(#paint4_linear_328_31171)"/>
<path d="M18.3355 13.3653L11.7336 9.58206C11.4979 9.44869 11.418 9.15527 11.5558 8.91965C11.6891 8.69292 11.9826 8.60846 12.2182 8.74182L18.829 12.5339L18.3398 13.3653H18.3355Z" fill="url(#paint5_linear_328_31171)"/>
</g>
<defs>
<linearGradient id="paint0_linear_328_31171" x1="4.88672" y1="15.4632" x2="19.9087" y2="8.44347" gradientUnits="userSpaceOnUse">
<stop stop-color="#EBECF3"/>
<stop offset="1" stop-color="#ACB2C6"/>
</linearGradient>
<linearGradient id="paint1_linear_328_31171" x1="4.52601" y1="11.8203" x2="18.6608" y2="11.7996" gradientUnits="userSpaceOnUse">
<stop stop-color="#DD79B2"/>
<stop offset="0.5" stop-color="#D4399B"/>
<stop offset="1" stop-color="#B94299"/>
</linearGradient>
<linearGradient id="paint2_linear_328_31171" x1="5.59806" y1="14.8471" x2="16.6003" y2="5.52392" gradientUnits="userSpaceOnUse">
<stop stop-color="#DD79B2"/>
<stop offset="0.5" stop-color="#D4399B"/>
<stop offset="1" stop-color="#B94299"/>
</linearGradient>
<linearGradient id="paint3_linear_328_31171" x1="5.34422" y1="8.42038" x2="16.4155" y2="18.5064" gradientUnits="userSpaceOnUse">
<stop stop-color="#A7036C"/>
<stop offset="1" stop-color="#8C136D"/>
</linearGradient>
<linearGradient id="paint4_linear_328_31171" x1="4.88701" y1="3.99959" x2="21.0823" y2="9.45585" gradientUnits="userSpaceOnUse">
<stop stop-color="#E5E7EF"/>
<stop offset="1" stop-color="#ACB2C6"/>
</linearGradient>
<linearGradient id="paint5_linear_328_31171" x1="18.683" y1="10.889" x2="11.6454" y2="10.0799" gradientUnits="userSpaceOnUse">
<stop stop-color="#B7BDCE"/>
<stop offset="1" stop-color="#D0D3E1"/>
</linearGradient>
<clipPath id="clip0_328_31171">
<rect width="24" height="24" fill="white"/>
</clipPath>
</defs>
</svg>
