<svg width="24" height="24" viewBox="0 0 24 24" fill="none" xmlns="http://www.w3.org/2000/svg">
<g clip-path="url(#clip0_328_31171)">
<path d="M24 0H0V24H24V0Z" fill="white"/>
<path d="M11.6174 4.10003C11.8531 3.96666 12.1464 3.96666 12.3821 4.10003L18.7306 7.72327C18.9661 7.85663 19.1129 8.10559 19.1129 8.37678V15.6233C19.1129 15.8899 18.9661 16.1434 18.7306 16.2768L12.3821 19.8999C12.1464 20.0334 11.8531 20.0334 11.6174 19.8999L5.26905 16.2768C5.15348 16.2111 5.05727 16.1161 4.99015 16.0014C4.92302 15.8866 4.88735 15.7562 4.88672 15.6233V8.37678C4.88672 8.11004 5.03343 7.85663 5.26905 7.72327L11.6174 4.10003Z" fill="url(#paint0_linear_328_31171)"/>
<path d="M12.0171 12.0003L5.77539 8.44375L12.0171 4.88721L18.2233 8.44375L12.0171 12.0003Z" fill="url(#paint1_linear_328_31171)"/>
<path d="M11.9993 11.9781L11.9948 19.1135L5.78428 15.5347L5.77539 8.44385L11.9993 11.9781Z" fill="url(#paint2_linear_328_31171)"/>
<path d="M11.9995 11.9781L12.004 19.1135L18.2145 15.5347L18.2235 8.44385L11.9995 11.9781Z" fill="url(#paint3_linear_328_31171)"/>
<path d="M5.56227 10.7236L12.1419 14.4002C12.3775 14.5336 12.4574 14.8269 12.3197 15.0581C12.1863 15.2894 11.8885 15.3693 11.6528 15.236L5.07324 11.5593L5.56227 10.7236Z" fill="url(#paint4_linear_328_31171)"/>
<path d="M18.335 13.3653L11.7331 9.58206C11.4974 9.44869 11.4175 9.15527 11.5553 8.91965C11.6886 8.69292 11.9821 8.60846 12.2177 8.74182L18.8285 12.5339L18.3393 13.3653H18.335Z" fill="url(#paint5_linear_328_31171)"/>
</g>
<defs>
<linearGradient id="paint0_linear_328_31171" x1="4.88672" y1="15.4632" x2="19.9087" y2="8.44348" gradientUnits="userSpaceOnUse">
<stop stop-color="#EBECF3"/>
<stop offset="1" stop-color="#ACB2C6"/>
</linearGradient>
<linearGradient id="paint1_linear_328_31171" x1="4.52552" y1="11.8204" x2="18.6603" y2="11.7997" gradientUnits="userSpaceOnUse">
<stop stop-color="#DD79B2"/>
<stop offset="0.5" stop-color="#D4399B"/>
<stop offset="1" stop-color="#B94299"/>
</linearGradient>
<linearGradient id="paint2_linear_328_31171" x1="5.59757" y1="14.8471" x2="16.5998" y2="5.52392" gradientUnits="userSpaceOnUse">
<stop stop-color="#DD79B2"/>
<stop offset="0.5" stop-color="#D4399B"/>
<stop offset="1" stop-color="#B94299"/>
</linearGradient>
<linearGradient id="paint3_linear_328_31171" x1="5.34372" y1="8.42038" x2="16.415" y2="18.5064" gradientUnits="userSpaceOnUse">
<stop stop-color="#A7036C"/>
<stop offset="1" stop-color="#8C136D"/>
</linearGradient>
<linearGradient id="paint4_linear_328_31171" x1="4.88652" y1="3.99958" x2="21.0818" y2="9.45584" gradientUnits="userSpaceOnUse">
<stop stop-color="#E5E7EF"/>
<stop offset="1" stop-color="#ACB2C6"/>
</linearGradient>
<linearGradient id="paint5_linear_328_31171" x1="18.6825" y1="10.889" x2="11.6449" y2="10.0799" gradientUnits="userSpaceOnUse">
<stop stop-color="#B7BDCE"/>
<stop offset="1" stop-color="#D0D3E1"/>
</linearGradient>
<clipPath id="clip0_328_31171">
<rect width="24" height="24" fill="white"/>
</clipPath>
</defs>
</svg>
