<svg width="24" height="24" viewBox="0 0 24 24" fill="none" xmlns="http://www.w3.org/2000/svg">
<g clip-path="url(#clip0_328_56333)">
<path d="M24 0H0V24H24V0Z" fill="#00847B"/>
<path d="M15.1764 8.02959C15.1764 6.70605 13.8687 5.38254 12.4923 5.38254C11.116 5.38254 9.90345 6.70605 9.90345 8.02959C9.90345 8.41076 9.99885 8.77076 10.1576 9.08841L9.32117 9.90896L9.2947 9.92482C8.96257 9.34998 8.79929 8.69308 8.82352 8.02959C8.82352 5.98606 10.3589 4.3237 12.4923 4.3237C12.983 4.31595 13.47 4.40622 13.9252 4.58925C14.3804 4.77227 14.7945 5.04437 15.143 5.38954C15.4918 5.73472 15.768 6.14606 15.9554 6.5994C16.143 7.05275 16.2382 7.53899 16.2352 8.02959C16.2352 10.0731 14.34 11.7355 12.2117 11.7355H3L5.11763 10.1472V10.6767H12.2648C13.6412 10.6767 15.1764 9.35312 15.1764 8.02959ZM8.82352 15.9708C8.82352 17.2944 10.1311 18.6178 11.5076 18.6178C12.8841 18.6178 14.1177 17.2944 14.1177 15.9708C14.1177 15.5896 14.0276 15.2295 13.8634 14.9119L14.6787 14.0914L14.7053 14.0755C15.0494 14.6313 15.1764 15.2825 15.1764 15.9708C15.1764 18.0144 13.6411 19.6765 11.5076 19.6765C11.0171 19.6843 10.53 19.5941 10.0747 19.4112C9.61949 19.228 9.20548 18.9561 8.85685 18.6108C8.50822 18.2657 8.23203 17.8543 8.04448 17.401C7.85694 16.9476 7.76182 16.4614 7.7647 15.9708C7.7647 13.9271 9.49058 12.2648 11.6241 12.2648H21L18.8823 13.8531V13.3238H11.6241C10.2476 13.3238 8.82352 14.6472 8.82352 15.9708Z" fill="white"/>
</g>
<defs>
<clipPath id="clip0_328_56333">
<rect width="24" height="24" fill="white"/>
</clipPath>
</defs>
</svg>
