<svg width="24" height="24" viewBox="0 0 24 24" fill="none" xmlns="http://www.w3.org/2000/svg">
<g clip-path="url(#clip0_328_56384)">
<path d="M24 0H0V24H24V0Z" fill="url(#paint0_linear_328_56384)"/>
<path d="M11.7505 4.77758C11.8253 4.73083 11.9117 4.70605 12 4.70605C12.0882 4.70605 12.1746 4.73083 12.2494 4.77758L19.7788 9.48342C19.848 9.5267 19.9048 9.58727 19.9435 9.65917C19.9823 9.73107 20.0018 9.81184 19.9999 9.89354C19.998 9.97511 19.9749 10.055 19.9328 10.1249C19.8907 10.195 19.8312 10.2529 19.7599 10.2928L12.2306 14.528C12.1601 14.5675 12.0807 14.5884 12 14.5884C11.9191 14.5884 11.8398 14.5675 11.7694 14.528L4.94117 10.6881V11.9588L12 15.9303L19.2987 11.827C19.3703 11.7868 19.4512 11.766 19.5332 11.7666C19.6152 11.7672 19.6958 11.7895 19.7666 11.8308C19.8375 11.8722 19.8963 11.9314 19.9372 12.0026C19.9782 12.0737 19.9998 12.1543 19.9999 12.2364V14.3539C19.9999 14.4356 19.9786 14.5159 19.9382 14.5868C19.8978 14.6577 19.8396 14.717 19.7693 14.7587L12.2399 19.2292C12.1688 19.2712 12.0879 19.2937 12.0052 19.2946C11.9227 19.2954 11.8413 19.2745 11.7694 19.2339L4.24 14.9987C4.13853 14.9339 4.06572 14.8327 4.03651 14.716C4.00731 14.5993 4.02396 14.4758 4.08301 14.3709C4.14207 14.266 4.23907 14.1879 4.35404 14.1523C4.46902 14.1167 4.59323 14.1266 4.70117 14.1798L11.9952 18.2786L19.0587 14.0951V13.0364L12.2306 16.8763C12.1601 16.9159 12.0807 16.9366 12 16.9366C11.9191 16.9366 11.8398 16.9159 11.7694 16.8763L4.24 12.6411C4.16731 12.6002 4.10678 12.5408 4.06461 12.4689C4.02243 12.3968 4.00014 12.3151 4 12.2317V9.87871C3.99984 9.79875 4.02007 9.72005 4.05876 9.65006C4.09747 9.58007 4.15335 9.52111 4.22118 9.47872L11.7505 4.77286V4.77758ZM5.39293 9.85994L12 13.5775L18.6069 9.85994L12 5.73286L5.39293 9.85994Z" fill="white"/>
</g>
<defs>
<linearGradient id="paint0_linear_328_56384" x1="11.9999" y1="4.70569" x2="11.9999" y2="19.2943" gradientUnits="userSpaceOnUse">
<stop stop-color="#1B71BD"/>
<stop offset="1" stop-color="#10449E"/>
</linearGradient>
<clipPath id="clip0_328_56384">
<rect width="24" height="24" fill="white"/>
</clipPath>
</defs>
</svg>
