<svg width="24" height="24" viewBox="0 0 24 24" fill="none" xmlns="http://www.w3.org/2000/svg">
<g clip-path="url(#clip0_328_43546)">
<path d="M24 0H0V24H24V0Z" fill="#E40570"/>
<path fill-rule="evenodd" clip-rule="evenodd" d="M19.9991 12C19.9991 14.2115 19.2179 16.0936 17.6558 17.6558C16.9231 18.4119 16.0433 19.0101 15.0706 19.413C14.0978 19.816 13.0528 20.0155 12 19.9991C9.78848 19.9991 7.90635 19.2179 6.34419 17.6558C5.58799 16.9231 4.98994 16.0433 4.58692 15.0706C4.18391 14.0978 3.98447 13.0528 4.00094 12C4.00094 9.78848 4.78202 7.90635 6.34419 6.34419C7.07687 5.58799 7.9567 4.98994 8.92944 4.58692C9.90215 4.18391 10.9471 3.98447 12 4.00094C14.2115 4.00094 16.0936 4.78202 17.6558 6.34419C18.4119 7.07687 19.0101 7.9567 19.413 8.92944C19.816 9.90215 20.0155 10.9471 19.9991 12ZM17.2653 17.2653C16.586 17.9727 15.7674 18.5317 14.8611 18.9067C13.9547 19.2817 12.9806 19.4646 12 19.4439C9.94376 19.4439 8.18867 18.7192 6.73474 17.2653C6.03129 16.5829 5.4751 15.7637 5.1004 14.8581C4.72571 13.9526 4.5405 12.9799 4.55617 12C4.55617 9.94376 5.28078 8.18867 6.73474 6.73474C7.45482 6.00203 8.32035 5.42822 9.27559 5.05022C10.1448 4.71639 11.0689 4.5488 12 4.55617C14.0562 4.55617 15.8113 5.28078 17.2653 6.73474C17.9687 7.41706 18.5249 8.23628 18.8995 9.14184C19.2743 10.0474 19.4595 11.0202 19.4439 12C19.4439 14.0562 18.7145 15.8113 17.2653 17.2653ZM17.3782 10.5084L13.7739 10.3437C13.7194 10.3442 13.666 10.3269 13.622 10.2948C13.5779 10.2626 13.5454 10.217 13.5292 10.1649L12.2588 6.76767C12.242 6.71314 12.2073 6.66584 12.1603 6.63341C12.1134 6.60098 12.0569 6.58529 12 6.58887C11.943 6.58529 11.8865 6.60098 11.8396 6.63341C11.7926 6.66584 11.7579 6.71314 11.7411 6.76767L10.4707 10.1649C10.4546 10.217 10.422 10.2626 10.378 10.2948C10.334 10.3269 10.2806 10.3442 10.226 10.3437L6.6218 10.5084C6.56521 10.5075 6.50994 10.5255 6.46477 10.5597C6.41959 10.5938 6.38709 10.6419 6.37243 10.6966C6.35107 10.7503 6.34827 10.8094 6.36447 10.8649C6.38067 10.9203 6.41494 10.9688 6.46183 11.0025L9.285 13.2657C9.37912 13.341 9.40734 13.4398 9.37911 13.5574L8.41923 17.0583C8.38159 17.1805 8.41923 17.2794 8.52275 17.3547C8.62155 17.4299 8.72978 17.4299 8.8333 17.3594L11.8446 15.3596C11.8888 15.3264 11.9425 15.3083 11.9976 15.3083C12.0529 15.3083 12.1066 15.3264 12.1506 15.3596L15.162 17.3594C15.2702 17.4299 15.3784 17.4299 15.4772 17.3547C15.5807 17.2794 15.6184 17.1805 15.5807 17.0583L14.6256 13.5574C14.6074 13.5051 14.6067 13.4484 14.6237 13.3958C14.6407 13.3431 14.6743 13.2974 14.7197 13.2657L17.5428 11.0025C17.5879 10.9683 17.6206 10.9205 17.6359 10.8661C17.6512 10.8118 17.6483 10.7539 17.6276 10.7013C17.6129 10.6466 17.5804 10.5985 17.5353 10.5643C17.49 10.5302 17.4348 10.5122 17.3782 10.5131V10.5084Z" fill="white"/>
</g>
<defs>
<clipPath id="clip0_328_43546">
<rect width="24" height="24" fill="white"/>
</clipPath>
</defs>
</svg>
