<svg width="24" height="24" viewBox="0 0 24 24" fill="none" xmlns="http://www.w3.org/2000/svg">
<g clip-path="url(#clip0_328_33255)">
<path d="M24 0H0V24H24V0Z" fill="#0D4947"/>
<path d="M5.99558 13.5H4.49512C5.29537 14.5003 6.33068 14.9154 6.74581 15.0005L5.99558 13.5Z" fill="#0D4947" fill-opacity="0.53"/>
<path d="M6.54613 15.0511C7.23134 15.3762 8.0466 15.5813 8.99689 15.5014C11.9978 15.2513 13.9985 12.7504 13.9985 12.0002C14.8987 12.1502 16.9243 12.1502 18.4898 11.1349C18.4338 10.1398 18.1497 9.17082 17.6595 8.30297C17.1694 7.4351 16.4862 6.69154 15.6629 6.12975C14.8395 5.56795 13.8981 5.20297 12.9112 5.06298C11.9244 4.92299 10.9186 5.01177 9.97149 5.32243C9.02445 5.6331 8.16147 6.15735 7.44928 6.85466C6.73709 7.55197 6.19474 8.40369 5.86415 9.34399C5.53357 10.2843 5.42357 11.288 5.54269 12.2777C5.66181 13.2672 6.00685 14.2161 6.55114 15.0511H6.54613Z" fill="url(#paint0_linear_328_33255)"/>
<path d="M18.4588 10.6738C16.8783 11.3241 14.4475 11.4992 13.2571 11.4992C12.2662 13.2377 10.7694 14.6333 8.96582 15.5005H9.00583C12.0068 15.2503 14.0074 12.7495 14.0074 11.9993C14.9076 12.1493 16.9332 12.1493 18.4987 11.134C18.4909 10.9801 18.4776 10.8267 18.4588 10.6738Z" fill="url(#paint1_linear_328_33255)"/>
<path d="M11.8324 19.0011C16.3438 19.0011 20 15.5149 20 11.2187V10.9985C18.5495 12.2741 16.914 12.9592 14.7484 12.7491C14.4132 14.0495 12.9978 16.5003 10.0018 16.5003C7.43607 16.5003 5.20037 14.7898 4 13.4244C4.99531 16.6504 8.12128 19.0011 11.8274 19.0011H11.8324Z" fill="url(#paint2_linear_328_33255)"/>
</g>
<defs>
<linearGradient id="paint0_linear_328_33255" x1="16.6253" y1="6.32942" x2="4.45349" y2="16.3716" gradientUnits="userSpaceOnUse">
<stop stop-color="#D1FAFE"/>
<stop offset="0.12" stop-color="#E9FDFE"/>
<stop offset="0.28" stop-color="#A6EAED"/>
<stop offset="0.43" stop-color="#77D4D7"/>
<stop offset="0.65" stop-color="#5DC8C8"/>
<stop offset="0.84" stop-color="#439CBA"/>
<stop offset="1" stop-color="#3B7DB2"/>
</linearGradient>
<linearGradient id="paint1_linear_328_33255" x1="19.5795" y1="5.21532" x2="1.1816" y2="10.5366" gradientUnits="userSpaceOnUse">
<stop stop-color="#55A6AD"/>
<stop offset="0.16" stop-color="#9CB6BA"/>
<stop offset="0.57" stop-color="#4092A0"/>
<stop offset="1" stop-color="#35729F"/>
</linearGradient>
<linearGradient id="paint2_linear_328_33255" x1="19.5749" y1="11.484" x2="6.75586" y2="17.2907" gradientUnits="userSpaceOnUse">
<stop stop-color="#8CF2FC"/>
<stop offset="0.39" stop-color="#A6F3FB"/>
<stop offset="0.86" stop-color="#46A7BA"/>
<stop offset="1" stop-color="#3B7CB2"/>
</linearGradient>
<clipPath id="clip0_328_33255">
<rect width="24" height="24" fill="white"/>
</clipPath>
</defs>
</svg>
