<svg width="24" height="24" viewBox="0 0 24 24" fill="none" xmlns="http://www.w3.org/2000/svg">
<g clip-path="url(#clip0_328_33274)">
<path d="M24 0H0V24H24V0Z" fill="#E5661F"/>
<path d="M20.9999 12.1591C21 12.521 20.9287 12.8793 20.7902 13.2137C20.6517 13.5481 20.4488 13.8517 20.193 14.1076C19.9371 14.3635 19.6333 14.5664 19.299 14.7048C18.9648 14.8434 18.6064 14.9146 18.2445 14.9145C17.8827 14.9146 17.5244 14.8434 17.19 14.7048C16.8558 14.5664 16.5519 14.3635 16.2961 14.1076C16.0402 13.8517 15.8372 13.5481 15.6988 13.2137C15.5604 12.8793 15.4893 12.521 15.4893 12.1591C15.4893 11.7973 15.5607 11.4391 15.6992 11.105C15.8376 10.7709 16.0405 10.4671 16.2965 10.2113C16.5523 9.95556 16.8559 9.75272 17.1903 9.61432C17.5245 9.47593 17.8827 9.40473 18.2445 9.40479C18.6064 9.40473 18.9648 9.47595 19.299 9.61441C19.6333 9.75283 19.9371 9.95578 20.193 10.2116C20.4488 10.4675 20.6517 10.7713 20.7902 11.1057C20.9287 11.4399 21 11.7973 20.9999 12.1591ZM19.652 12.1591C19.652 11.3835 19.0203 10.7517 18.2442 10.7517C17.8709 10.7522 17.5131 10.9007 17.2492 11.1646C16.9854 11.4286 16.837 11.7864 16.8366 12.1597C16.8366 12.9354 17.4688 13.5671 18.2445 13.5671C19.0203 13.5671 19.652 12.9354 19.652 12.1591Z" fill="white"/>
<path d="M5.22136 14.9138C6.33514 14.9138 7.19335 14.4245 7.19335 13.2782V13.2602C7.19335 12.3146 6.37056 11.8986 5.64643 11.6549C5.09222 11.4658 4.59946 11.3254 4.59946 11.0389V11.0209C4.59946 10.8192 4.78195 10.6609 5.1411 10.6609C5.446 10.6609 5.84147 10.7892 6.25532 10.9906C6.33424 11.0334 6.43154 11.0577 6.52301 11.0577H6.53512C6.85166 11.0577 7.10725 10.7955 7.10725 10.4785C7.10725 10.2409 6.97363 10.0273 6.76065 9.92968C6.26735 9.67455 5.72107 9.53879 5.16575 9.53326C4.12553 9.53326 3.27898 10.1246 3.27898 11.1735V11.1914C3.27898 12.1975 4.10042 12.533 4.81243 12.7401C5.37875 12.9104 5.86658 13.0952 5.86658 13.4126V13.4306C5.86658 13.6625 5.67825 13.8148 5.25229 13.8148C4.83844 13.8148 4.35151 13.6625 3.85828 13.3512C3.77098 13.3022 3.67234 13.277 3.57221 13.2782H3.55428C3.40419 13.2821 3.26174 13.3452 3.15796 13.4538C3.05417 13.5622 2.99743 13.7072 3.00009 13.8575C3.00009 14.0645 3.10366 14.2538 3.27987 14.3574C3.852 14.7412 4.52772 14.9138 5.22136 14.9138ZM9.00075 16.259C9.87729 16.259 10.3091 15.8523 10.7414 14.8039L12.5246 10.5623C12.5678 10.4528 12.5855 10.331 12.5918 10.2148V10.2089C12.5883 10.0278 12.5134 9.8552 12.3837 9.72876C12.2539 9.60228 12.0794 9.53206 11.8982 9.53326C11.5269 9.53326 11.314 9.79468 11.1978 10.1054L10.1329 13.0176L8.99717 10.0875C8.87567 9.73952 8.66312 9.53326 8.2977 9.53326C7.88967 9.53326 7.57312 9.82517 7.57312 10.24C7.58522 10.3556 7.60943 10.4654 7.65248 10.5752L9.43254 14.5784L9.38413 14.6941C9.25051 14.9564 9.12855 15.0053 8.86714 15.0053C8.75728 15.0053 8.65416 14.9869 8.55686 14.9506C8.47802 14.9262 8.39595 14.9137 8.3134 14.9138H8.30757C7.98473 14.9201 7.72916 15.1883 7.73542 15.5115C7.73542 15.8711 7.98473 16.042 8.19771 16.1213C8.45328 16.2129 8.72724 16.271 9.00075 16.259ZM13.3128 14.174C13.3128 14.5766 13.5836 14.9134 13.9854 14.9134C14.3871 14.9134 14.658 14.5771 14.658 14.174V8.49213C14.658 8.08948 14.3876 7.73975 13.9854 7.73975C13.5836 7.73975 13.3128 8.08948 13.3128 8.49213V14.174Z" fill="white"/>
</g>
<defs>
<clipPath id="clip0_328_33274">
<rect width="24" height="24" fill="white"/>
</clipPath>
</defs>
</svg>
