<svg width="24" height="24" viewBox="0 0 24 24" fill="none" xmlns="http://www.w3.org/2000/svg">
<g clip-path="url(#clip0_328_56183)">
<path d="M24 0H0V24H24V0Z" fill="#000563"/>
<path d="M19.4499 6.49999C19.75 6.49999 20 6.3 20 6C20 5.7 19.75 5.5 19.4499 5.5H4.55C4.24999 5.5 4 5.7 4 6C4 6.3 4.19999 6.49999 4.5 6.49999H11.4999V18C11.4999 18.1326 11.5526 18.2598 11.6465 18.3534C11.7402 18.4473 11.8673 18.5 11.9999 18.5C12.1326 18.5 12.2598 18.4473 12.3536 18.3534C12.4473 18.2598 12.5 18.1326 12.5 18V6.49999H19.4499Z" fill="white"/>
<path d="M9.49998 7.5H4.5C4.21499 7.5 4 7.695 4 8C4 8.305 4.21499 8.49999 4.5 8.49999H8.99998V12.5H5.05499C4.78499 12.5 4.5 12.71 4.5 13C4.5 13.29 4.72999 13.5 4.99999 13.5H8.99998V17.4999H4.5C4.21499 17.4999 4 17.695 4 18C4 18.305 4.21499 18.5 4.5 18.5H9.49998C9.7 18.5 9.82495 18.3799 9.91502 18.1999C9.96495 18.11 9.99995 18 9.99995 17.8799V8.12C9.99995 7.99499 9.96495 7.875 9.89997 7.78C9.81002 7.615 9.68997 7.5 9.49998 7.5ZM19.5 8.49999C19.785 8.49999 20 8.305 20 8C20 7.695 19.785 7.5 19.5 7.5H14.5499C14.355 7.5 14.19 7.615 14.0999 7.78C14.035 7.87999 14 7.99499 14 8.12V17.8799C14 17.995 14.0299 18.105 14.085 18.1999C14.175 18.3799 14.2999 18.5 14.5 18.5H19.5C19.785 18.5 20 18.305 20 18C20 17.695 19.785 17.4999 19.5 17.4999H14.9999V13.5H18.9999C19.2699 13.5 19.5 13.29 19.5 13C19.5 12.71 19.2699 12.5 18.9999 12.5H14.9999V8.49999H19.5Z" fill="white"/>
</g>
<defs>
<clipPath id="clip0_328_56183">
<rect width="24" height="24" fill="white"/>
</clipPath>
</defs>
</svg>
