<svg width="24" height="24" viewBox="0 0 24 24" fill="none" xmlns="http://www.w3.org/2000/svg">
<g clip-path="url(#clip0_328_43682)">
<path d="M24 0H0V24H24V0Z" fill="#261C37"/>
<path d="M14.2237 17.9687C13.998 18.3591 13.6737 18.6835 13.283 18.9087C12.8925 19.1342 12.4494 19.2528 11.9985 19.2528C11.5475 19.2528 11.1045 19.1342 10.7139 18.9087C10.3233 18.6835 9.9989 18.3591 9.77324 17.9687L4.33751 8.55259C4.11471 8.16474 3.99828 7.72486 4.00002 7.27752C4.00175 6.83019 4.1216 6.39123 4.3474 6.00507C4.57322 5.6189 4.897 5.29921 5.28601 5.07832C5.67503 4.85745 6.11546 4.74322 6.56278 4.74717H17.4342C19.3994 4.74717 20.6345 6.85743 19.6594 8.54768L14.2237 17.9738V17.9687ZM12.9735 6.86743C12.8872 6.68155 12.7497 6.52421 12.5769 6.41396C12.404 6.30371 12.2034 6.24512 11.9985 6.24512C11.7934 6.24512 11.5929 6.30371 11.4201 6.41396C11.2473 6.52421 11.1097 6.68155 11.0234 6.86743L8.61305 11.513C8.46303 11.813 8.46303 12.1831 8.61305 12.4831L11.0234 17.1238C11.1097 17.3096 11.2473 17.4669 11.4201 17.5771C11.5929 17.6874 11.7934 17.746 11.9985 17.746C12.2034 17.746 12.404 17.6874 12.5769 17.5771C12.7497 17.4669 12.8872 17.3096 12.9735 17.1238L15.3838 12.4831C15.5339 12.1831 15.5339 11.813 15.3838 11.513L12.9735 6.87243V6.86743Z" fill="white"/>
</g>
<defs>
<clipPath id="clip0_328_43682">
<rect width="24" height="24" fill="white"/>
</clipPath>
</defs>
</svg>
