<svg width="24" height="24" viewBox="0 0 24 24" fill="none" xmlns="http://www.w3.org/2000/svg">
<g clip-path="url(#clip0_328_43700)">
<path d="M24 0H0V24H24V0Z" fill="#04A8F0"/>
<path d="M12 10.2491C12.7957 10.2491 13.5586 9.93289 14.1214 9.37033C14.6839 8.80773 14.9999 8.04466 14.9999 7.24902C14.9999 6.45337 14.6839 5.69031 14.1214 5.1277C13.5586 4.5651 12.7957 4.24902 12 4.24902C11.2043 4.24902 10.4413 4.5651 9.87864 5.1277C9.31607 5.69031 9 6.45337 9 7.24902C9 8.04466 9.31607 8.80773 9.87864 9.37033C10.4413 9.93289 11.2043 10.2491 12 10.2491Z" fill="white"/>
<path d="M11.995 11.7498C10.701 11.7395 9.46233 11.2239 8.54316 10.3132C7.62398 9.40243 7.09712 8.16852 7.07498 6.87473C7.18998 5.59973 6.04999 5.59973 5.73998 5.94474L5.67 6.01474C4.59307 7.33898 4.00354 8.99281 4 10.6998C4 12.2496 5.53499 13.2497 7.16498 13.2497H16.835C18.45 13.2497 20 12.2597 20 10.6998C19.9943 8.96143 19.3784 7.28037 18.2599 5.94973C17.9399 5.59973 16.8 5.59973 16.915 6.87473C16.915 9.46974 14.715 11.7498 11.995 11.7498Z" fill="white"/>
<path d="M12.9006 19.294L15.3006 15.924C15.8056 15.224 15.2906 14.249 14.4007 14.249H9.60063C8.71063 14.249 8.19563 15.2191 8.70063 15.924L11.1007 19.294C11.2041 19.4355 11.3396 19.5507 11.496 19.6301C11.6524 19.7094 11.8252 19.7509 12.0006 19.7509C12.176 19.7509 12.3488 19.7094 12.5053 19.6301C12.6616 19.5507 12.7971 19.4355 12.9006 19.294Z" fill="white"/>
</g>
<defs>
<clipPath id="clip0_328_43700">
<rect width="24" height="24" fill="white"/>
</clipPath>
</defs>
</svg>
