<svg width="24" height="24" viewBox="0 0 24 24" fill="none" xmlns="http://www.w3.org/2000/svg">
<g clip-path="url(#clip0_328_38045)">
<path d="M24 0H0V24H24V0Z" fill="url(#paint0_linear_328_38045)"/>
<path d="M11.4459 11.4347H11.4354V11.4241C12.8437 8.95675 14.2417 6.48403 15.6606 4.02192C15.6819 3.97955 15.703 3.9372 15.7136 3.89484L15.4383 3.87366L16.566 3L16.4602 4.40315L16.2219 4.18605C14.7064 6.6535 13.1136 9.07268 11.4459 11.4401V11.4347ZM14.8505 4.9644C14.6547 5.21856 14.4217 5.26621 14.1305 5.14443C12.647 4.50775 10.9963 4.37205 9.4286 4.7579C8.86735 4.89557 8.31668 5.0862 7.78719 5.32445C7.57541 5.41976 7.34241 5.4939 7.08826 5.54684C6.99296 5.56803 6.88178 5.59979 6.78645 5.6051C7.58599 7.16707 8.42786 8.72377 9.16915 10.3175C8.23196 8.63376 7.26301 6.97117 6.30462 5.30327C6.28874 5.28211 6.32051 5.27151 6.3364 5.28211C6.47406 5.35094 6.62232 5.37741 6.78117 5.36152C6.9559 5.34564 7.13063 5.31387 7.29476 5.26621C7.59658 5.18679 7.85603 5.09148 8.08369 4.99088C8.89727 4.61378 9.76 4.35353 10.6465 4.21782C11.2871 4.13311 11.8272 4.10663 12.2666 4.1384C13.1614 4.20724 14.0564 4.54611 14.8505 4.9644Z" fill="white"/>
<path d="M19.0076 11.4547C19.0129 11.9843 19.0606 12.5032 19.1029 13.0327C19.1241 13.2709 19.2247 13.7581 19.4153 13.901C17.5973 13.8595 15.7873 13.6469 14.0093 13.2656C15.6665 13.2656 17.3344 13.5834 18.9918 13.594C19.0183 13.594 19.0394 13.5674 19.0289 13.541C18.9396 13.3214 18.886 13.0891 18.8701 12.8527C18.8171 12.3973 18.8701 11.926 18.8012 11.4706C18.6046 9.88069 17.8901 8.39952 16.768 7.25595C16.6249 7.11299 16.4502 6.90119 16.4237 6.72117C16.4132 6.61527 16.3708 6.53584 16.3496 6.42995C16.3443 6.39818 16.3233 6.74234 16.3126 6.77941C16.2385 6.9912 16.1801 7.15534 16.0372 7.36184C15.7387 7.76383 15.4948 8.20359 15.3118 8.66968C15.1954 8.96618 15.0894 9.2627 14.9889 9.56981C14.6077 10.7029 13.6969 11.6347 13.4533 12.8156C13.125 13.983 13.1287 15.2188 13.4639 16.3843C13.7664 17.4543 14.4236 18.3897 15.3277 19.0371C15.4865 19.1536 15.6612 19.2752 15.8465 19.3918C15.9049 19.4288 15.9631 19.4872 16.0108 19.5665C16.1643 19.7942 15.6719 19.7625 15.5766 19.7572C15.0735 19.7307 14.5917 19.6406 14.1311 19.4924C13.9405 19.4342 13.7445 19.376 13.5751 19.2965C14.2091 19.767 14.9368 20.0957 15.7089 20.2602C14.5441 20.8426 13.3104 20.922 12.0185 20.9909C11.6902 21.012 11.3618 20.9961 11.0389 20.9537C10.7423 20.9114 10.4988 20.6944 10.5677 20.3819C10.6154 20.1701 10.6311 19.9478 10.6205 19.7148C10.5492 19.1074 10.3212 18.5289 9.9587 18.0364C9.76801 17.7451 9.53513 17.565 9.18035 17.602C8.73756 17.6809 8.32522 17.8806 7.98899 18.1793C7.44362 18.6028 6.89297 19.0265 6.27876 19.3548C5.96106 19.5242 5.59041 19.6249 5.23566 19.7148C5.0821 19.7466 4.92856 19.7572 4.76972 19.736C4.58967 19.7096 4.5738 19.4289 4.58967 19.2965C4.64263 18.767 4.80678 18.1793 5.06623 17.7081L5.76515 16.4109C6.2311 15.5531 7.13123 14.4305 8.05254 14.0917C8.15843 14.0546 8.21138 14.171 8.21668 14.2505C8.24845 14.6211 7.84604 15.0554 7.58129 15.2566C7.12593 15.6059 6.76059 15.9765 6.70764 16.5643C6.66613 16.8536 6.54722 17.1261 6.36347 17.3533C6.14108 17.671 5.93458 18.0097 5.72809 18.3382C6.17815 17.8616 6.59114 17.3162 7.00944 16.8026C7.45421 16.2519 7.7772 15.6748 8.36494 15.2406C8.59261 15.0817 8.84677 14.9758 9.09564 14.8435C9.30742 14.7377 9.81571 14.3671 9.45568 14.1023C9.24388 13.9487 8.98445 13.8586 8.67732 13.8374C8.29609 13.8004 8.01017 13.7263 7.78778 13.4034C7.56754 13.0773 7.4445 12.6953 7.43304 12.3019C7.43304 12.0902 7.47011 11.8783 7.55482 11.6878C7.66624 11.4274 7.87362 11.2201 8.13391 11.1087C8.39423 10.9972 8.68742 10.9904 8.95266 11.0894C9.30212 11.2059 9.52451 11.5289 9.90582 11.5872L10.1705 11.6401C10.2234 11.6559 10.2498 11.6931 10.2447 11.7459C10.2128 12.1379 10.5411 12.2755 10.6154 12.6408C10.6365 12.7786 10.5358 12.9109 10.4618 13.0221C10.3346 13.2233 10.5729 13.2339 10.61 13.3716C10.6788 13.6681 10.5093 14.1023 10.4564 14.3987C10.6682 14.134 10.7477 13.7157 10.8642 13.4138C11.0335 12.9586 11.2455 12.5826 11.5419 12.2119C11.8702 11.8149 12.3255 11.5183 12.6379 11.1106C13.1197 10.4647 13.644 9.861 14.041 9.16211C14.3323 8.63261 14.5812 8.12431 14.7717 7.62129C14.8935 7.31419 15.1212 7.06533 15.2854 6.77411C15.3913 6.58349 15.4972 6.36111 15.5871 6.12285C15.6454 5.97459 15.8148 5.71513 16.0108 5.84751C17.2286 6.69468 18.0757 7.79603 18.547 9.1568C18.7959 9.88215 18.9495 10.6447 19.0024 11.4547H19.0076Z" fill="white"/>
</g>
<defs>
<linearGradient id="paint0_linear_328_38045" x1="15.766" y1="8.30768" x2="8.47753" y2="18.3891" gradientUnits="userSpaceOnUse">
<stop stop-color="#0149DC"/>
<stop offset="1" stop-color="#920BBD"/>
</linearGradient>
<clipPath id="clip0_328_38045">
<rect width="24" height="24" fill="white"/>
</clipPath>
</defs>
</svg>
