<svg width="24" height="24" viewBox="0 0 24 24" fill="none" xmlns="http://www.w3.org/2000/svg">
<g clip-path="url(#clip0_328_35723)">
<path d="M24 0H0V24H24V0Z" fill="url(#paint0_linear_328_35723)"/>
<path fill-rule="evenodd" clip-rule="evenodd" d="M17.8947 11.9998C17.8947 15.2553 15.2555 17.8945 12 17.8945C11.1752 17.8954 10.3595 17.7228 9.60579 17.3879C8.8521 17.053 8.1773 16.5632 7.62523 15.9505C7.21261 16.0402 6.8324 16.1138 6.49387 16.1719C5.71872 16.257 4.13599 16.1647 4.00714 15.1172C3.89009 14.1635 5.2383 12.932 6.1124 12.2954C6.10757 12.1968 6.10518 12.0983 6.10523 11.9998C6.10523 8.74414 8.74438 6.10498 12 6.10498C13.6555 6.10498 15.1515 6.78709 16.2222 7.88603C20.3502 7.22414 20.2841 8.89866 19.7317 9.82287C19.253 10.4974 18.6206 11.1176 17.8862 11.6844C17.8918 11.7888 17.8947 11.894 17.8947 11.9998ZM12 16.2102C11.1074 16.2102 10.28 15.9324 9.59912 15.459C10.6775 15.1593 11.7411 14.8084 12.786 14.4074L12.0198 12.9661L11.7394 13.0941C10.8155 13.5261 8.30691 14.4402 5.65935 14.641C6.07745 14.2558 7.03829 13.4296 7.86818 12.9778L7.90186 12.9703C7.82696 12.6522 7.78924 12.3265 7.78944 11.9998C7.78944 9.67423 9.67448 7.78919 12 7.78919C13.9654 7.78919 15.6168 9.13614 16.0804 10.9573C15.5773 11.2732 15.0582 11.5631 14.5254 11.8258L14.0862 12.0258L14.5073 13.6785C15.0581 13.4238 15.5978 13.1462 16.1254 12.8465C15.7334 14.766 14.0354 16.2102 12 16.2102ZM17.5233 9.93571C17.4446 9.72519 17.3538 9.51938 17.2513 9.31928C17.602 9.28139 18.0766 9.23381 18.3182 9.22244C18.1671 9.38412 17.898 9.63507 17.5233 9.93571Z" fill="white"/>
<path fill-rule="evenodd" clip-rule="evenodd" d="M13.2634 14.947C13.71 14.947 14.1384 14.7696 14.4543 14.4537C14.7702 14.1379 14.9476 13.7095 14.9476 13.2628C14.9476 12.8162 14.7702 12.3877 14.4543 12.0719C14.1384 11.7561 13.71 11.5786 13.2634 11.5786C12.8166 11.5786 12.3883 11.7561 12.0724 12.0719C11.7566 12.3877 11.5791 12.8162 11.5791 13.2628C11.5791 13.7095 11.7566 14.1379 12.0724 14.4537C12.3883 14.7696 12.8166 14.947 13.2634 14.947ZM13.2634 14.1049C13.4866 14.1049 13.7009 14.0163 13.8588 13.8583C14.0167 13.7004 14.1054 13.4861 14.1054 13.2628C14.1054 13.0395 14.0167 12.8253 13.8588 12.6673C13.7009 12.5095 13.4866 12.4208 13.2634 12.4208C13.0401 12.4208 12.8258 12.5095 12.6679 12.6673C12.51 12.8253 12.4212 13.0395 12.4212 13.2628C12.4212 13.4861 12.51 13.7004 12.6679 13.8583C12.8258 14.0163 13.0401 14.1049 13.2634 14.1049Z" fill="white"/>
</g>
<defs>
<linearGradient id="paint0_linear_328_35723" x1="4.50693" y1="15.5456" x2="20.0858" y2="8.69385" gradientUnits="userSpaceOnUse">
<stop stop-color="#04D9FF"/>
<stop offset="0.782" stop-color="#445CFE"/>
<stop offset="1" stop-color="#7269EF"/>
</linearGradient>
<clipPath id="clip0_328_35723">
<rect width="24" height="24" fill="white"/>
</clipPath>
</defs>
</svg>
