<svg width="24" height="24" viewBox="0 0 24 24" fill="none" xmlns="http://www.w3.org/2000/svg">
<g clip-path="url(#clip0_328_35740)">
<path d="M24 0H0V24H24V0Z" fill="#17A84B"/>
<path fill-rule="evenodd" clip-rule="evenodd" d="M14.7103 6.73715C14.0556 6.27455 13.7107 5.34649 14.1691 4.68857C14.555 4.13466 15.2817 3.90877 15.8648 4.24997C18.0625 5.53663 19.5294 7.83557 19.5294 10.5844C19.5294 14.2599 16.8953 17.3213 13.4114 17.982V18.5844C13.4114 18.9589 13.2627 19.3179 12.9978 19.5827C12.733 19.8474 12.374 19.9962 11.9996 19.9962C11.6251 19.9962 11.266 19.8474 11.0013 19.5827C10.7365 19.3179 10.5877 18.9589 10.5877 18.5844V17.982C7.10375 17.3213 4.46973 14.2605 4.46973 10.584C4.46973 7.79839 5.98134 5.43921 8.22993 4.15537C8.82007 3.81888 9.54717 4.05466 9.93027 4.61516C10.3915 5.29001 10.0225 6.23454 9.34763 6.69575C8.71417 7.12735 8.19583 7.7073 7.83779 8.38507C7.47975 9.06285 7.29286 9.81786 7.2934 10.5844C7.2934 12.6913 8.67842 14.4754 10.5877 15.075V13.8783C10.5877 13.5038 10.7365 13.1447 11.0013 12.8799C11.266 12.6152 11.6251 12.4664 11.9996 12.4664C12.374 12.4664 12.733 12.6152 12.9978 12.8799C13.2627 13.1447 13.4114 13.5038 13.4114 13.8783V15.0746C15.3206 14.475 16.7057 12.6909 16.7057 10.584C16.7062 9.82961 16.5251 9.08625 16.1778 8.41662C15.8306 7.747 15.3273 7.17126 14.7103 6.73715ZM13.4114 10.5886C13.4114 10.9631 13.2627 11.3223 12.9978 11.587C12.733 11.8518 12.374 12.0006 11.9996 12.0006C11.6251 12.0006 11.266 11.8518 11.0013 11.587C10.7365 11.3223 10.5877 10.9631 10.5877 10.5886C10.5877 10.2142 10.7365 9.85508 11.0013 9.59033C11.266 9.32556 11.6251 9.17682 11.9996 9.17682C12.374 9.17682 12.733 9.32556 12.9978 9.59033C13.2627 9.85508 13.4114 10.2142 13.4114 10.5886Z" fill="white"/>
<path fill-rule="evenodd" clip-rule="evenodd" d="M12 20.0001C12.3745 20.0001 12.7335 19.8513 12.9983 19.5866C13.2631 19.3218 13.4119 18.9626 13.4119 18.5882V17.9877C16.8958 17.3293 19.5298 14.2807 19.5298 10.6231C19.5298 9.33659 19.2011 8.07153 18.5748 6.94782C17.9485 5.82414 17.0454 4.87913 15.9513 4.20251C15.3291 3.81848 14.5428 4.0778 14.1442 4.69053C13.6924 5.38703 14.0655 6.33391 14.7418 6.81676C15.3492 7.24844 15.8444 7.81922 16.1861 8.4814C16.5279 9.14357 16.7062 9.87795 16.7061 10.6231C16.7061 12.7197 15.3211 14.4882 13.4119 15.0826V13.884C13.4119 13.5095 13.2631 13.1504 12.9983 12.8857C12.7335 12.6209 12.3745 12.4721 12 12.4721V20.0001ZM12 12.0016C12.3745 12.0016 12.7335 11.8528 12.9983 11.588C13.2631 11.3233 13.4119 10.9641 13.4119 10.5896C13.4119 10.2152 13.2631 9.8561 12.9983 9.59135C12.7335 9.32657 12.3745 9.17784 12 9.17784V12.0016Z" fill="white"/>
</g>
<defs>
<clipPath id="clip0_328_35740">
<rect width="24" height="24" fill="white"/>
</clipPath>
</defs>
</svg>
