<svg width="24" height="24" viewBox="0 0 24 24" fill="none" xmlns="http://www.w3.org/2000/svg">
<g clip-path="url(#clip0_328_33305)">
<path d="M24 0H0V24H24V0Z" fill="#F26829"/>
<path fill-rule="evenodd" clip-rule="evenodd" d="M6.81053 15.1664C6.38027 14.5142 6.10642 13.7713 6.01029 12.9958C6.01029 12.9958 7.7058 12.9808 8.00089 12.9958V10.9951H4.0797C4.0497 10.9951 4.03469 10.9951 4.02969 11.0253C3.99967 11.4354 3.99468 11.8155 4.00468 12.1655C4.05754 14.0464 4.76647 15.8493 6.00871 17.2624C7.25097 18.6755 8.9483 19.6096 10.8068 19.9029C12.6554 20.182 14.5433 19.8037 16.1417 18.834C17.7402 17.8644 18.9478 16.3648 19.5544 14.5964C19.8295 13.8111 19.9796 12.9408 19.9995 11.9905C20.0026 11.775 19.9909 11.5593 19.9645 11.3453C19.8672 10.2534 19.548 9.1928 19.0265 8.22856C18.505 7.26434 17.7918 6.41676 16.9312 5.73778C16.0706 5.05879 15.0803 4.56271 14.0212 4.27989C12.9621 3.99709 11.8563 3.93352 10.7718 4.09309C8.0209 4.51822 5.62017 6.40879 4.60486 8.99958H6.67048C7.31698 7.91062 8.27775 7.04268 9.42657 6.50978C10.5754 5.97688 11.8585 5.80394 13.1074 6.01367C13.9932 6.15622 14.8329 6.5058 15.5582 7.03398C15.5632 7.03756 15.5668 7.04292 15.5682 7.04899V7.05899L15.5632 7.06899L12.0021 10.61C11.9988 10.6133 11.995 10.6159 11.9906 10.6176C11.9863 10.6193 11.9818 10.6202 11.9771 10.6201C11.9724 10.6202 11.9678 10.6193 11.9635 10.6176C11.9594 10.6159 11.9554 10.6133 11.9521 10.61L10.4517 9.10461L10.4492 9.1008L10.4454 9.09843L10.4408 9.098L10.4366 9.0996L9.08123 10.45C9.07773 10.4532 9.075 10.4571 9.07326 10.4614C9.07153 10.4657 9.07084 10.4703 9.07123 10.475C9.07123 10.48 9.07123 10.4901 9.08123 10.4951L10.5766 11.9805L10.5867 12.0105C10.5867 12.0205 10.5867 12.0305 10.5766 12.0356L9.07623 13.536C9.06622 13.541 9.06622 13.5509 9.07623 13.561L10.3916 14.8864C10.395 14.8896 10.3988 14.8922 10.4031 14.894C10.4074 14.8956 10.412 14.8965 10.4166 14.8964C10.422 14.8972 10.4276 14.8968 10.4328 14.895C10.438 14.8932 10.4428 14.8904 10.4466 14.8864L11.9471 13.386C11.9508 13.3837 11.9551 13.3825 11.9596 13.3825C11.964 13.3825 11.9683 13.3837 11.9721 13.386H11.9771L15.4532 16.852C15.4584 16.8567 15.4627 16.8625 15.4657 16.8689C15.4686 16.8755 15.4701 16.8824 15.4701 16.8896C15.4701 16.8966 15.4686 16.9037 15.4657 16.9101C15.4627 16.9165 15.4584 16.9224 15.4532 16.927C14.3538 17.6931 13.0418 18.0953 11.702 18.0773C10.5616 18.0373 9.51136 17.7023 8.55106 17.057C8.21032 16.834 7.90083 16.5667 7.63078 16.2618C7.33267 15.9159 7.05861 15.55 6.81053 15.1664ZM16.9436 15.5366C17.8346 14.3318 18.2367 12.8344 18.069 11.3453C17.9642 10.2948 17.5732 9.29316 16.9386 8.44941C16.929 8.44552 16.9182 8.44552 16.9086 8.44941C16.9033 8.45007 16.8982 8.45176 16.8936 8.45441L13.3875 11.9655C13.3806 11.9729 13.3766 11.9828 13.3766 11.993C13.3766 12.0032 13.3806 12.0131 13.3875 12.0205L16.9035 15.5416C16.9078 15.5448 16.9132 15.5465 16.9186 15.5465C16.924 15.5465 16.9292 15.5448 16.9337 15.5416H16.9436V15.5366Z" fill="white"/>
</g>
<defs>
<clipPath id="clip0_328_33305">
<rect width="24" height="24" fill="white"/>
</clipPath>
</defs>
</svg>
