<svg width="24" height="24" viewBox="0 0 24 24" fill="none" xmlns="http://www.w3.org/2000/svg">
<g clip-path="url(#clip0_328_56203)">
<path d="M24 0H0V24H24V0Z" fill="#FF0083"/>
<path d="M10.626 4.0908C7.74397 4.6245 5.33746 6.87576 4.44957 9.88392C4.27006 10.5886 4.1997 11.3168 4.24094 12.043C4.26035 13.6829 4.60482 15.0074 5.33746 16.201L5.77412 16.924L10.5484 13.9353V20H13.4595V14.0177L18.2822 16.7298C18.2822 16.7298 19.4951 14.6921 19.3982 14.6096C19.3739 14.5853 17.6951 13.547 15.6719 12.3098L12.0039 10.0489L9.5246 11.587C8.67219 12.1425 7.79294 12.6558 6.89006 13.1249C6.77361 13.1249 6.74934 12.8192 6.78817 11.8829C6.82698 10.8154 6.89006 10.5243 7.22968 9.78203C7.58122 8.95788 8.14007 8.23876 8.85187 7.69459C9.56368 7.15043 10.4042 6.79975 11.2918 6.67667C12.1792 6.55358 13.0834 6.66228 13.9164 6.9922C14.7495 7.3221 15.483 7.86198 16.0455 8.55934C16.6144 9.30278 17.003 10.1681 17.1808 11.0871C17.2536 11.4607 17.3264 11.781 17.341 11.7907L18.549 12.533L19.7232 13.2511L19.762 12.2031C19.8154 10.767 19.6165 9.82574 18.9809 8.47686C18.4295 7.20958 17.5208 6.1305 16.3657 5.37169C14.6802 4.24569 12.6354 3.78894 10.6308 4.0908H10.626Z" fill="white"/>
</g>
<defs>
<clipPath id="clip0_328_56203">
<rect width="24" height="24" fill="white"/>
</clipPath>
</defs>
</svg>
