<svg width="24" height="24" viewBox="0 0 24 24" fill="none" xmlns="http://www.w3.org/2000/svg">
<g clip-path="url(#clip0_328_56246)">
<path d="M24 0H0V24H24V0Z" fill="#F8CF03"/>
<path d="M5.78091 4.87695C5.30858 4.87695 4.85561 5.06459 4.52162 5.39857C4.18764 5.73255 4 6.18554 4 6.65787C4 7.13019 4.18764 7.58317 4.52162 7.91715C4.85561 8.25114 5.30858 8.43877 5.78091 8.43877H6.67136C7.14369 8.43877 7.59666 8.25114 7.93066 7.91715C8.26465 7.58317 8.45227 7.13019 8.45227 6.65787C8.45227 6.18554 8.26465 5.73255 7.93066 5.39857C7.59666 5.06459 7.14369 4.87695 6.67136 4.87695H5.78091ZM12.0849 4.8774H18.2472C18.7146 4.88479 19.1604 5.07565 19.4884 5.40879C19.8162 5.74194 20 6.19064 20 6.65809C20 7.12553 19.8162 7.57425 19.4884 7.90738C19.1604 8.24052 18.7146 8.43139 18.2472 8.43877H14.4117C14.071 8.43877 13.7946 8.71482 13.7946 9.05587V17.3384C13.7945 17.812 13.6062 18.2662 13.2712 18.601C12.9362 18.9358 12.482 19.1239 12.0083 19.1238C11.5347 19.1237 11.0806 18.9354 10.7457 18.6004C10.4109 18.2654 10.2228 17.8111 10.223 17.3375C10.2269 14.5162 10.2331 9.09909 10.2331 6.62224C10.2331 5.93927 10.5915 4.8774 12.0849 4.8774Z" fill="black"/>
</g>
<defs>
<clipPath id="clip0_328_56246">
<rect width="24" height="24" fill="white"/>
</clipPath>
</defs>
</svg>
