<svg width="24" height="24" viewBox="0 0 24 24" fill="none" xmlns="http://www.w3.org/2000/svg">
<g clip-path="url(#clip0_328_56275)">
<path d="M24 0H0V24H24V0Z" fill="#BE7C40"/>
<path fill-rule="evenodd" clip-rule="evenodd" d="M7.20185 6.41427C7.48212 6.30544 7.71376 6.09921 7.85426 5.8334C7.99475 5.56758 8.03469 5.26002 7.96676 4.96714C7.89882 4.67426 7.72755 4.4157 7.48438 4.23889C7.2412 4.06209 6.94242 3.97889 6.64286 4.00457C6.3433 4.03023 6.06305 4.16306 5.85351 4.37868C5.64397 4.59429 5.51921 4.87823 5.5021 5.1784C5.48499 5.47857 5.57669 5.77484 5.76038 6.01287C5.94406 6.2509 6.20742 6.4147 6.50213 6.47425V8.92327L11.4151 5.64458L10.6604 11.2723L4.50293 14.721L10.4306 16.9201L9.08609 17.8197C8.85986 17.6171 8.56761 17.5038 8.26396 17.501C7.96029 17.4982 7.66602 17.6062 7.43614 17.8046C7.20626 18.003 7.0565 18.2785 7.01486 18.5792C6.97322 18.88 7.04256 19.1856 7.20991 19.439C7.37725 19.6925 7.63114 19.8762 7.92412 19.956C8.21712 20.0359 8.52915 20.0062 8.8019 19.8727C9.07464 19.7392 9.28948 19.511 9.40609 19.2306C9.52283 18.9503 9.53344 18.637 9.43595 18.3494L11.72 16.6751L5.94734 14.576L10.9053 11.7722L16.833 15.6906L15.9133 9.73292L17.0729 10.3227C16.969 10.6097 16.9738 10.9246 17.0863 11.2082C17.1987 11.492 17.4111 11.7246 17.6833 11.8625C17.9555 12.0003 18.2688 12.0338 18.5639 11.9566C18.8593 11.8794 19.116 11.6968 19.286 11.4433C19.4557 11.1898 19.527 10.8829 19.4862 10.5805C19.4452 10.2781 19.2952 10.0011 19.064 9.80184C18.833 9.60243 18.5371 9.49456 18.2319 9.4984C17.9267 9.50236 17.6336 9.6177 17.4077 9.82296L15.0936 8.64338L15.9983 14.4761L11.2652 11.2723L12.1748 4.32511L7.19685 7.82371V6.41427H7.20185ZM7.3418 5.24974C7.3418 5.40615 7.27966 5.55616 7.16906 5.66676C7.05845 5.77736 6.90844 5.8395 6.75202 5.8395C6.59561 5.8395 6.4456 5.77736 6.335 5.66676C6.22439 5.55616 6.16226 5.40615 6.16226 5.24974C6.16226 5.09332 6.22439 4.94331 6.335 4.8327C6.4456 4.7221 6.59561 4.65997 6.75202 4.65997C6.90844 4.65997 7.05845 4.7221 7.16906 4.8327C7.27966 4.94331 7.3418 5.09332 7.3418 5.24974ZM18.2474 11.3373C18.4037 11.3373 18.5539 11.2751 18.6643 11.1646C18.7749 11.054 18.8371 10.9039 18.8371 10.7475C18.8371 10.5911 18.7749 10.4411 18.6643 10.3305C18.5539 10.2199 18.4037 10.1578 18.2474 10.1578C18.091 10.1578 17.941 10.2199 17.8303 10.3305C17.7198 10.4411 17.6576 10.5911 17.6576 10.7475C17.6576 10.9039 17.7198 11.054 17.8303 11.1646C17.941 11.2751 18.091 11.3373 18.2474 11.3373ZM8.84119 18.7443C8.84119 18.9007 8.77905 19.0507 8.66845 19.1613C8.55785 19.2719 8.40784 19.3341 8.25143 19.3341C8.095 19.3341 7.945 19.2719 7.8344 19.1613C7.7238 19.0507 7.66166 18.9007 7.66166 18.7443C7.66166 18.5878 7.7238 18.4378 7.8344 18.3273C7.945 18.2166 8.095 18.1545 8.25143 18.1545C8.40784 18.1545 8.55785 18.2166 8.66845 18.3273C8.77905 18.4378 8.84119 18.5878 8.84119 18.7443Z" fill="white"/>
</g>
<defs>
<clipPath id="clip0_328_56275">
<rect width="24" height="24" fill="white"/>
</clipPath>
</defs>
</svg>
