<svg width="24" height="24" viewBox="0 0 24 24" fill="none" xmlns="http://www.w3.org/2000/svg">
<g clip-path="url(#clip0_328_43854)">
<path d="M24 0H0V24H24V0Z" fill="#163DA5"/>
<path d="M10.8517 9.31752L9.81658 9.91035C9.61427 10.0326 9.46842 10.1503 9.25668 10.2679C9.23141 10.2784 9.21004 10.2966 9.19553 10.3197C9.1802 10.3451 9.17359 10.3748 9.17669 10.4044V15.4859C9.17413 15.5076 9.17814 15.5294 9.18821 15.5487C9.19829 15.568 9.21396 15.5839 9.23316 15.5942C10.1601 16.1587 11.0212 16.7327 11.948 17.3068C11.9644 17.319 11.9841 17.3256 12.0045 17.3256C12.0248 17.3256 12.0447 17.319 12.0609 17.3068L16.6295 14.5872C16.7049 14.5449 16.7049 14.5449 16.7049 14.6343V16.6151C16.7049 16.6387 16.7049 16.6622 16.6907 16.6811C16.6804 16.7012 16.6639 16.7177 16.6437 16.728L12.0892 19.5041C12.0667 19.5205 12.0394 19.5293 12.0116 19.5293C11.9836 19.5293 11.9564 19.5205 11.9339 19.5041L7.36052 16.7657C7.34047 16.7551 7.32408 16.7387 7.31347 16.7186C7.30081 16.6991 7.29425 16.6761 7.29465 16.6527V9.37866C7.29323 9.35549 7.29873 9.33234 7.31045 9.31224C7.32218 9.29214 7.3396 9.27597 7.36052 9.26577L9.00261 8.25888C9.02297 8.2436 9.04774 8.23535 9.07318 8.23535C9.09864 8.23535 9.12341 8.2436 9.14376 8.25888L10.7765 9.26107C10.8073 9.27072 10.8338 9.29064 10.8517 9.31752Z" fill="white"/>
<path d="M13.7884 5.58092L13.9955 5.45388L15.5293 4.48934C15.5441 4.47789 15.5624 4.47168 15.581 4.47168C15.5998 4.47168 15.6181 4.47789 15.6329 4.48934C17.0443 5.37861 18.4888 6.21611 19.9285 7.05362C19.952 7.06362 19.9716 7.08095 19.9844 7.10301C19.9971 7.12508 20.0022 7.15067 19.9992 7.17595V10.9542C20.0004 10.9787 19.9945 11.0029 19.9819 11.0238C19.9694 11.0447 19.9508 11.0615 19.9285 11.0718C17.3173 12.6104 14.7247 14.1866 12.1181 15.744C12.0996 15.7574 12.0774 15.7645 12.0546 15.7645C12.0317 15.7645 12.0096 15.7574 11.991 15.744C11.5488 15.4758 11.0972 15.217 10.6548 14.9535C10.6331 14.943 10.6152 14.9261 10.6034 14.9051C10.5916 14.8841 10.5866 14.8599 10.589 14.8358V12.8127C10.589 12.7139 10.589 12.7139 10.6783 12.7657C10.9794 12.9397 11.2759 13.1184 11.5817 13.2832C11.7405 13.3688 11.8989 13.455 12.0569 13.542C12.0758 13.542 12.0945 13.5373 12.1087 13.5279C14.1178 12.3327 16.0563 11.1518 18.0654 9.96135C18.1218 9.93785 18.1218 9.9002 18.1171 9.84849V8.3193C18.1218 8.27224 18.1266 8.23931 18.0748 8.21578C16.6304 7.35004 15.2658 6.47959 13.8214 5.60915L13.7884 5.58092Z" fill="white"/>
<path d="M16.7048 8.97253C16.1354 9.3207 15.5614 9.66888 14.9967 10.0264C14.9753 10.0432 14.9487 10.0523 14.9215 10.0523C14.8942 10.0523 14.8678 10.0432 14.8462 10.0264L9.10599 6.63878C9.08461 6.62381 9.05915 6.61578 9.03306 6.61578C9.00696 6.61578 8.98149 6.62381 8.96012 6.63878C7.95794 7.25046 6.95574 7.85271 5.94885 8.45967C5.9263 8.47043 5.90777 8.48807 5.89593 8.51006C5.88408 8.53206 5.87955 8.55726 5.88298 8.582V11.9979C5.84534 12.0026 5.83122 11.9838 5.8077 11.9697L4.06681 10.9534C4.04464 10.9435 4.02625 10.9267 4.01439 10.9055C4.00252 10.8843 3.99781 10.8598 4.00094 10.8358V7.49512C3.9996 7.47071 4.00561 7.44645 4.01819 7.42548C4.03077 7.40452 4.04934 7.3878 4.07151 7.37749L8.96483 4.49326C8.98519 4.47799 9.00996 4.46973 9.0354 4.46973C9.06085 4.46973 9.08563 4.47799 9.10599 4.49326L9.84942 4.93084L16.6435 8.93018L16.7048 8.97253Z" fill="white"/>
</g>
<defs>
<clipPath id="clip0_328_43854">
<rect width="24" height="24" fill="white"/>
</clipPath>
</defs>
</svg>
