<svg width="24" height="24" viewBox="0 0 24 24" fill="none" xmlns="http://www.w3.org/2000/svg">
<g clip-path="url(#clip0_328_43901)">
<path d="M24 0H0V24H24V0Z" fill="#138842"/>
<path d="M16.592 7.67287C16.0481 6.97423 15.3522 6.40868 14.5572 6.01914C13.762 5.6296 12.8886 5.4263 12.0032 5.42468C11.1178 5.42305 10.2437 5.62314 9.44713 6.00976C8.65061 6.3964 7.95263 6.95939 7.40616 7.65601C7.39352 7.66865 7.38089 7.67287 7.36825 7.66444C7.07901 7.48621 6.75399 7.37404 6.4164 7.33592C6.41455 7.33272 6.41357 7.32909 6.41357 7.32539C6.41357 7.32169 6.41455 7.31807 6.4164 7.31487C7.24826 6.12641 8.4387 5.23545 9.81349 4.77239C11.1883 4.30933 12.6752 4.2985 14.0565 4.74148C15.4789 5.19792 16.7145 6.10397 17.5776 7.32328C17.5779 7.32721 17.5773 7.33116 17.5758 7.33481C17.5744 7.33847 17.5721 7.34173 17.5692 7.34435L17.5564 7.34856C17.2277 7.39051 16.9117 7.50254 16.63 7.67708C16.6172 7.6855 16.6047 7.6855 16.592 7.67287Z" fill="white"/>
<path d="M15.8763 8.30034C15.4199 7.70201 14.8314 7.21723 14.1567 6.88382C13.482 6.55039 12.7395 6.37734 11.9868 6.37816C11.2343 6.37898 10.4921 6.55363 9.81813 6.88851C9.14416 7.22339 8.55668 7.70945 8.10149 8.30876C8.09822 8.30876 8.095 8.30799 8.09207 8.30654C8.08915 8.30507 8.08661 8.30295 8.08465 8.30034C7.95362 8.12582 7.80234 7.96748 7.63399 7.82862C7.62135 7.82019 7.62135 7.81176 7.63399 7.79914C8.15602 7.14022 8.82059 6.60817 9.57776 6.24294C10.335 5.87773 11.165 5.68882 12.0056 5.69044C12.8463 5.69206 13.6757 5.88416 14.4315 6.2523C15.1871 6.62044 15.8497 7.15506 16.3692 7.81598C16.3695 7.8199 16.3689 7.82385 16.3675 7.8275C16.3659 7.83116 16.3637 7.83442 16.3607 7.83704C16.1839 7.97054 16.0278 8.12951 15.8975 8.30876C15.8935 8.3095 15.8895 8.30911 15.8857 8.30762C15.8819 8.30612 15.8787 8.3036 15.8763 8.30034Z" fill="white"/>
<path fill-rule="evenodd" clip-rule="evenodd" d="M8.27753 9.25132C8.27369 9.24824 8.27105 9.24392 8.27006 9.23908C8.17818 8.81666 7.9617 8.43151 7.6486 8.13343C7.3355 7.83534 6.94018 7.63804 6.51375 7.56701C6.07845 7.50197 5.63366 7.5696 5.23737 7.76106C4.84105 7.95253 4.51164 8.25896 4.29205 8.6404C4.07246 9.02184 3.9729 9.46058 4.00633 9.89948C4.03976 10.3382 4.20464 10.7569 4.47948 11.1007C4.73378 11.4187 5.07294 11.6583 5.45772 11.7916C5.8425 11.9249 6.25717 11.9466 6.65374 11.854C7.05033 11.7616 7.41258 11.5586 7.69863 11.2687C7.98466 10.9789 8.18279 10.6139 8.27006 10.2162C8.27427 10.2035 8.27849 10.1994 8.29112 10.1994H9.49568C9.49961 10.1997 9.50355 10.1991 9.50721 10.1976C9.51086 10.1961 9.51413 10.1939 9.51674 10.1909C9.45845 9.89053 9.45845 9.58164 9.51674 9.2812V9.26856C9.5157 9.26566 9.51401 9.26302 9.51183 9.26084C9.50965 9.25866 9.50701 9.25697 9.5041 9.25592H8.29112C8.28619 9.25604 8.28138 9.2544 8.27753 9.25132ZM7.34252 10.5175C7.49821 10.2832 7.58189 10.0085 7.58325 9.7273C7.58325 9.53776 7.54534 9.34824 7.47375 9.17976C7.36913 8.91809 7.18832 8.69388 6.95477 8.53618C6.72122 8.37848 6.44569 8.29456 6.16389 8.29529C5.88277 8.29958 5.60911 8.38627 5.3768 8.54461C5.14449 8.70297 4.96378 8.92602 4.85705 9.18612C4.75032 9.44621 4.72227 9.73192 4.77639 10.0077C4.83051 10.2837 4.96441 10.5375 5.16149 10.7381C5.359 10.9378 5.61177 11.0738 5.88725 11.1286C6.16273 11.1834 6.4483 11.1545 6.70721 11.0456C6.96599 10.9354 7.18685 10.7518 7.34252 10.5175Z" fill="white"/>
<path fill-rule="evenodd" clip-rule="evenodd" d="M11.0834 10.1997H15.6953C15.7121 10.1997 15.7247 10.208 15.7247 10.2249C15.8362 10.7421 16.1357 11.1995 16.5653 11.5084C16.9948 11.8173 17.5238 11.9558 18.0496 11.8969C18.3433 11.8701 18.6281 11.7821 18.8855 11.6384C19.1431 11.4948 19.3677 11.2988 19.5447 11.063C19.8414 10.6776 20.0014 10.2044 20 9.71806C19.9984 9.23169 19.8354 8.75958 19.5363 8.37596C19.2849 8.05198 18.9465 7.80626 18.5606 7.6675C18.1746 7.52872 17.7573 7.50265 17.357 7.59231C16.9569 7.68197 16.5904 7.88368 16.3006 8.17384C16.0109 8.46401 15.8097 8.83066 15.7205 9.23095C15.7186 9.23836 15.7142 9.2449 15.708 9.2495C15.7019 9.2541 15.6945 9.25646 15.6868 9.25622H11.0666C11.0577 9.2555 11.049 9.25754 11.0414 9.26208C11.0338 9.26662 11.0279 9.27341 11.0244 9.2815C10.9106 9.56368 10.9106 9.85849 11.0159 10.1533C11.0206 10.1673 11.0297 10.1795 11.0418 10.1879C11.0539 10.1962 11.0686 10.2004 11.0834 10.1997ZM19.0072 10.5187C19.1637 10.2844 19.248 10.0093 19.2496 9.72759V9.72336C19.2538 9.44051 19.173 9.16291 19.0178 8.9264C18.8626 8.68988 18.6401 8.50531 18.379 8.3965C18.1178 8.2877 17.8301 8.25966 17.5528 8.316C17.2756 8.37233 17.0217 8.51046 16.8236 8.71255C16.6253 8.91356 16.4904 9.16845 16.4358 9.44552C16.3811 9.72258 16.409 10.0096 16.5162 10.2709C16.586 10.4443 16.6895 10.602 16.8208 10.7351C16.952 10.8681 17.1083 10.9737 17.2808 11.0458C17.4532 11.1179 17.6382 11.155 17.825 11.155C18.012 11.155 18.197 11.1179 18.3694 11.0458C18.629 10.9362 18.8507 10.7529 19.0072 10.5187Z" fill="white"/>
<path d="M6.27741 8.94825C6.24591 8.9425 6.21668 8.92789 6.19318 8.90613L6.18896 8.89349V8.88086H6.21423C6.23951 8.89349 6.26477 8.91035 6.28584 8.9314C6.31111 8.94825 6.30689 8.95668 6.27741 8.94825ZM18.1967 9.11673L18.1756 9.12935C18.1736 9.13011 18.1719 9.13137 18.1705 9.133C18.169 9.13464 18.1681 9.13661 18.1676 9.13871C18.1672 9.14082 18.1673 9.14301 18.168 9.14505C18.1687 9.1471 18.1699 9.14895 18.1715 9.15041L18.264 9.29782C18.264 9.30625 18.2767 9.31046 18.2809 9.30204L18.3062 9.28941C18.308 9.28825 18.3093 9.28668 18.3103 9.28485C18.3113 9.28301 18.3118 9.28096 18.3118 9.27888C18.3118 9.27678 18.3113 9.27473 18.3103 9.2729C18.3093 9.27106 18.308 9.26949 18.3062 9.26834L18.2177 9.12093C18.2166 9.11919 18.215 9.11777 18.2132 9.11678C18.2114 9.1158 18.2093 9.11528 18.2072 9.11528C18.2051 9.11528 18.2031 9.1158 18.2012 9.11678C18.1994 9.11777 18.1978 9.11919 18.1967 9.12093V9.11673Z" fill="white"/>
<path d="M18.0834 9.66931C18.1381 9.75353 18.1887 9.80837 18.2013 9.79992C18.2139 9.79146 18.1802 9.71992 18.1255 9.63982C18.0707 9.56405 18.0202 9.50508 18.0075 9.5135C17.9949 9.52193 18.0285 9.59353 18.0834 9.66931Z" fill="white"/>
<path d="M19.0313 9.80395C19.0397 9.68179 19.0313 9.53015 18.9976 9.35325C18.9968 9.40319 19.004 9.45293 19.0186 9.50066C19.0208 9.50715 19.0212 9.5141 19.0197 9.52077C19.0182 9.52744 19.0149 9.5336 19.0103 9.53856C19.0061 9.5512 18.9976 9.5512 18.9892 9.5512C18.9813 9.55271 18.9731 9.55192 18.9657 9.54893C18.9582 9.54595 18.9518 9.54088 18.9471 9.53435L18.8671 9.42906L18.8586 9.42484C18.8551 9.4236 18.8513 9.42333 18.8475 9.42407C18.8438 9.4248 18.8404 9.42653 18.8376 9.42906C18.8142 9.52128 18.8029 9.61615 18.8039 9.71128C18.8039 9.79127 18.787 9.79972 18.7492 9.72385C18.7393 9.7043 18.7308 9.68543 18.7226 9.66744C18.6885 9.59238 18.6605 9.53052 18.5723 9.4796H18.5301C18.4332 9.50066 18.349 9.48802 18.2816 9.4459C18.2521 9.42484 18.2437 9.43328 18.2605 9.46276C18.2942 9.53015 18.3448 9.5512 18.4121 9.53435C18.4219 9.53062 18.4325 9.53024 18.4425 9.5333C18.4524 9.53636 18.461 9.54267 18.4669 9.5512C18.4731 9.5598 18.4765 9.5701 18.4765 9.58068C18.4765 9.59126 18.4731 9.60157 18.4669 9.61017C18.408 9.69437 18.3237 9.76601 18.2142 9.82076C18.2016 9.82498 18.1973 9.83343 18.2058 9.84178L18.2185 9.85868C18.2226 9.86704 18.231 9.86704 18.2395 9.86704L18.328 9.82498C18.3532 9.81652 18.3617 9.82075 18.3532 9.84601C18.3221 9.96246 18.2481 10.0396 18.1708 10.1202C18.1642 10.127 18.1577 10.134 18.1511 10.1409C18.1341 10.1578 18.1258 10.1788 18.1258 10.1998C18.1243 10.2347 18.1315 10.2695 18.1469 10.301C18.1514 10.3102 18.1543 10.3201 18.1553 10.3304C18.1567 10.3479 18.1526 10.3655 18.1435 10.3807C18.1345 10.3958 18.1209 10.4076 18.1047 10.4147C18.0889 10.422 18.0747 10.4324 18.0631 10.4455C18.0515 10.4586 18.0428 10.4738 18.0373 10.4904C17.9868 10.6336 17.8941 10.701 17.7551 10.6926C17.7455 10.6922 17.7361 10.6892 17.728 10.6841C17.7198 10.6789 17.7133 10.6717 17.7089 10.6631L17.5825 10.4272C17.5781 10.4196 17.5757 10.4109 17.5757 10.402C17.5757 10.3931 17.5781 10.3844 17.5825 10.3767C17.6329 10.2883 17.5867 10.1914 17.5193 10.1283C17.5128 10.1206 17.5091 10.1109 17.5091 10.1009C17.5091 10.0908 17.5128 10.0811 17.5193 10.0734C17.5258 10.0633 17.5301 10.0518 17.5319 10.0398C17.5337 10.0314 17.5325 10.0227 17.5287 10.0151C17.5249 10.0074 17.5185 10.0013 17.5109 9.99765L17.4266 9.95548C17.414 9.94713 17.4013 9.94291 17.3845 9.94291H17.2118C17.2013 9.94389 17.1907 9.94084 17.1824 9.93445C17.0645 9.82075 17.0475 9.70705 17.0981 9.55541C17.1176 9.50169 17.157 9.4678 17.1981 9.43237C17.2279 9.4067 17.2586 9.38023 17.2834 9.34483C17.2884 9.3384 17.2948 9.33318 17.3021 9.32954C17.3094 9.32589 17.3174 9.32392 17.3256 9.32377L17.5657 9.29428C17.5825 9.29428 17.5909 9.30271 17.5909 9.31956C17.5993 9.39116 17.713 9.47118 17.7762 9.408C17.7807 9.40391 17.7864 9.40131 17.7924 9.40056C17.7985 9.3998 17.8045 9.40093 17.8098 9.4038C17.8638 9.42365 17.9221 9.42803 17.9784 9.41642C18.0121 9.41221 18.0331 9.37852 18.0289 9.34483C18.0247 9.32797 18.0162 9.31956 17.9994 9.31956H17.9362C17.9109 9.31956 17.89 9.30692 17.8815 9.28587C17.8773 9.27323 17.8773 9.2648 17.89 9.25638C17.9321 9.23259 17.9815 9.2251 18.0289 9.23532C18.1131 9.24795 18.1216 9.2269 18.0541 9.17636C18.0205 9.15108 17.9826 9.14688 17.932 9.15108C17.9241 9.15179 17.9165 9.15502 17.9104 9.16032C17.9043 9.16561 17.9001 9.17271 17.8983 9.18056C17.8929 9.20123 17.8824 9.22018 17.8677 9.23564C17.8529 9.25112 17.8345 9.2626 17.8141 9.26901C17.7973 9.27323 17.7846 9.26901 17.7804 9.24795C17.7678 9.20162 17.7468 9.1595 17.7046 9.1216H17.6961L17.6751 9.13002V9.15108C17.6909 9.16608 17.7029 9.18456 17.7102 9.20504C17.7176 9.22552 17.7199 9.24743 17.7173 9.26901V9.27744H17.7004C17.6919 9.27744 17.6919 9.27323 17.6919 9.26901C17.6878 9.22268 17.6625 9.18478 17.6204 9.1595C17.6105 9.15262 17.5988 9.14893 17.5867 9.14893C17.5746 9.14893 17.5629 9.15262 17.5529 9.1595L17.3971 9.27323C17.3895 9.27975 17.3798 9.28334 17.3698 9.28334C17.3597 9.28334 17.3501 9.27975 17.3424 9.27323C17.3129 9.23952 17.3171 9.19742 17.355 9.14688C17.3676 9.13424 17.3803 9.13424 17.3971 9.13424L17.4308 9.14688C17.4561 9.15108 17.4688 9.14266 17.4729 9.1216L17.4772 9.08369C17.4784 9.07648 17.4813 9.06967 17.4857 9.06381C17.4901 9.05796 17.4959 9.05322 17.5025 9.05L17.6541 8.96576C17.6709 8.96156 17.6878 8.95734 17.7046 8.96156C17.772 8.97419 17.8225 8.94892 17.8647 8.88996C17.873 8.87312 17.8688 8.86469 17.8562 8.85626L17.8436 8.84784C17.8268 8.83941 17.8141 8.84363 17.8015 8.85626L17.7762 8.9026C17.7636 8.91522 17.7509 8.91944 17.7341 8.91102L17.6793 8.88996L17.6709 8.88153L17.6667 8.87312V8.86468L17.6751 8.85626L17.6795 8.8524C17.7481 8.79234 17.875 8.68117 17.9615 8.7636C17.9657 8.76781 17.97 8.77624 17.9615 8.78467C17.9604 8.79022 17.9604 8.79595 17.9615 8.80151C17.9615 8.82257 17.97 8.82677 17.9826 8.80993C18.0289 8.7636 18.0837 8.73412 18.1553 8.72148C18.1721 8.72148 18.1721 8.71727 18.1595 8.70884C18.1341 8.68779 18.1258 8.66252 18.1258 8.62882C18.1264 8.623 18.1288 8.61748 18.1325 8.61298C18.1362 8.60848 18.1413 8.6052 18.1469 8.60356L18.189 8.59513C18.231 8.58671 18.231 8.57829 18.189 8.56144C17.9278 8.4772 17.6035 8.48984 17.3381 8.6162C17.2649 8.64978 17.2225 8.70332 17.176 8.76232C17.1583 8.78469 17.14 8.80784 17.1192 8.83099L17.0855 8.85205C16.9928 8.88153 16.917 8.93208 16.8581 9.00788C16.6769 9.25638 16.6137 9.51751 16.6685 9.78704C16.6817 9.84473 16.711 9.88777 16.7416 9.93229C16.7601 9.95932 16.7789 9.98693 16.7949 10.0187C16.8043 10.0338 16.8087 10.0515 16.8074 10.0693C16.7906 10.183 16.7991 10.2798 16.8286 10.3641C16.8521 10.4312 16.8911 10.4917 16.9423 10.541C17.1412 10.752 17.4081 10.8862 17.6961 10.92C17.8579 10.9387 18.0217 10.9242 18.1776 10.8776C18.3336 10.8308 18.4784 10.7529 18.6033 10.6485C18.7281 10.544 18.8305 10.4154 18.9041 10.2702C18.9777 10.125 19.021 9.9664 19.0313 9.80395Z" fill="white"/>
<path fill-rule="evenodd" clip-rule="evenodd" d="M6.37884 9.27748L6.45043 9.4291V9.4333C6.46307 9.45436 6.45885 9.45858 6.44201 9.44594C6.41377 9.42375 6.39712 9.3977 6.38097 9.37241C6.36338 9.3449 6.34638 9.31829 6.31566 9.29853C6.30302 9.29011 6.28617 9.2859 6.26933 9.29011C6.223 9.30275 6.17246 9.30695 6.1177 9.30274C6.10951 9.30257 6.10138 9.3044 6.09405 9.30807C6.08671 9.31174 6.08037 9.31714 6.07558 9.32381C6.02084 9.40383 6.01662 9.55966 6.14298 9.56809C6.15157 9.5678 6.15994 9.56534 6.16732 9.56091C6.17469 9.55649 6.18081 9.55026 6.18509 9.54282C6.19499 9.52644 6.20626 9.51094 6.21879 9.49649C6.2249 9.49181 6.2322 9.48889 6.23985 9.48806C6.2425 9.4869 6.24537 9.4863 6.24827 9.4863C6.25117 9.4863 6.25404 9.4869 6.25669 9.48806C6.27354 9.49649 6.27776 9.50912 6.27354 9.53018L6.24827 9.58494C6.23985 9.60599 6.24827 9.61864 6.26933 9.61864L6.33672 9.63122C6.34159 9.63171 6.3463 9.63318 6.35053 9.63564C6.35477 9.6381 6.35841 9.64144 6.36122 9.64547C6.36402 9.6495 6.36593 9.65412 6.36678 9.65894C6.36765 9.66375 6.36744 9.66866 6.36621 9.67338C6.36017 9.69028 6.35855 9.70845 6.36149 9.72614C6.36445 9.74383 6.37186 9.76045 6.38305 9.7745C6.38545 9.77746 6.38674 9.78118 6.38674 9.78502C6.38674 9.78886 6.38545 9.79249 6.38305 9.79554L6.37462 9.80811C6.28428 9.69746 6.15728 9.62277 6.01662 9.59757C5.97029 9.58915 5.92817 9.56809 5.88606 9.53861C5.86921 9.53018 5.86079 9.51754 5.85658 9.49649C5.83973 9.42068 5.79761 9.35329 5.73444 9.30274C5.69916 9.27389 5.68097 9.23281 5.66315 9.19254C5.65757 9.17993 5.65201 9.16738 5.64599 9.15534C5.59545 9.07531 5.63336 8.99108 5.68811 8.9279C5.70075 8.91948 5.70495 8.90263 5.70495 8.88578V8.72152C5.70149 8.71608 5.69605 8.71217 5.68978 8.71061C5.68352 8.70904 5.67689 8.70994 5.67126 8.7131L5.60809 8.72574C5.57439 8.72574 5.57439 8.71731 5.60387 8.70468C5.6365 8.68842 5.66636 8.6671 5.69232 8.6415C5.72601 8.60781 5.7218 8.60359 5.67969 8.62466C5.43136 8.7385 5.22837 8.93231 5.10315 9.1751C4.97793 9.4179 4.93773 9.69569 4.98896 9.96398C5.06904 10.251 5.25229 10.4983 5.50352 10.6584C5.75476 10.8186 6.05629 10.8803 6.35025 10.8318C6.38149 10.8266 6.41242 10.8202 6.44297 10.8127C6.5215 10.6957 6.58569 10.5591 6.62675 10.4062C6.62867 10.4006 6.62943 10.3948 6.62897 10.3889C6.62852 10.3831 6.62685 10.3774 6.62407 10.3723C6.62129 10.3672 6.61748 10.3627 6.61286 10.3591C6.60825 10.3554 6.60293 10.3529 6.59726 10.3514C6.52687 10.328 6.49324 10.2657 6.4594 10.203C6.44465 10.1757 6.42985 10.1483 6.41194 10.124C6.40753 10.118 6.40449 10.1112 6.40304 10.1039C6.40158 10.0966 6.40175 10.0891 6.40352 10.0819C6.41194 10.0313 6.42037 9.98501 6.45406 9.94285C6.48354 9.90914 6.49618 9.8713 6.49618 9.83337C6.49618 9.81657 6.49618 9.80811 6.5046 9.79966C6.56357 9.73647 6.63095 9.69864 6.71519 9.72812C6.74888 9.7407 6.78258 9.74492 6.81627 9.7407C6.83313 9.7407 6.84154 9.7407 6.84997 9.75338C6.89209 9.79966 6.9342 9.82492 6.98896 9.83759C7.0058 9.83759 7.01844 9.84182 7.03107 9.8544C7.04402 9.86737 7.05372 9.8828 7.06338 9.89814C7.07571 9.91769 7.08799 9.93714 7.10689 9.95129C7.14479 9.97655 7.18269 9.99346 7.2206 10.0018C7.22626 10.0029 7.23156 10.0054 7.23598 10.0091C7.2404 10.0127 7.24381 10.0176 7.24588 10.023C7.24847 10.0282 7.24982 10.034 7.24982 10.0398C7.24982 10.0457 7.24847 10.0514 7.24588 10.0566C7.22167 10.0965 7.20277 10.1387 7.18394 10.1808C7.14709 10.2633 7.11056 10.3448 7.03529 10.4062C7.00093 10.4356 6.97167 10.469 6.94232 10.5022C6.89605 10.5548 6.84957 10.6076 6.78258 10.6462C6.72123 10.6808 6.66197 10.719 6.60512 10.7602C6.79607 10.6833 6.96564 10.5582 7.09626 10.3953C7.28266 10.1629 7.37664 9.86983 7.36017 9.5723C7.33069 9.45438 7.28858 9.32384 7.24648 9.19328C7.15381 8.89003 6.82528 8.65834 6.54309 8.56147C6.51782 8.54885 6.51361 8.55306 6.53888 8.5699L6.57258 8.59518C6.58943 8.60561 6.60153 8.62225 6.60627 8.6415C6.60778 8.64872 6.60781 8.65618 6.60637 8.66342C6.60491 8.67066 6.60202 8.67753 6.59785 8.68362C6.59364 8.69204 6.58521 8.69204 6.57678 8.68362C6.48833 8.62044 6.39989 8.57411 6.31566 8.55306C6.31072 8.55173 6.30556 8.55142 6.30049 8.55214C6.29542 8.55286 6.29055 8.55461 6.28617 8.55727C6.27761 8.5633 6.27161 8.57231 6.26933 8.58254C6.26775 8.60486 6.26079 8.62648 6.24906 8.64555C6.23733 8.66462 6.22116 8.68056 6.20195 8.69204C6.13034 8.73416 6.13877 8.76365 6.223 8.77627C6.24292 8.77866 6.26201 8.7856 6.27881 8.79656C6.29561 8.80751 6.30966 8.82218 6.31988 8.83946L6.32829 8.84787C6.33095 8.84903 6.33382 8.84963 6.33672 8.84963C6.33962 8.84963 6.34249 8.84903 6.34514 8.84787L6.35357 8.84367C6.37041 8.82261 6.37462 8.79734 6.35778 8.76785C6.34936 8.75101 6.34936 8.72994 6.34936 8.70889C6.35357 8.69204 6.34936 8.6794 6.34093 8.66678L6.31145 8.62466C6.29881 8.60781 6.30302 8.59518 6.32408 8.59518C6.36037 8.59715 6.39476 8.6121 6.42095 8.6373L6.42517 8.64992C6.42719 8.65508 6.42745 8.66076 6.42593 8.66609C6.42441 8.67142 6.42119 8.67609 6.41674 8.6794C6.40833 8.68362 6.40833 8.69626 6.40833 8.70468C6.41037 8.71006 6.41379 8.71482 6.41821 8.7185C6.42263 8.72218 6.42793 8.72468 6.43359 8.72574C6.53888 8.74679 6.62733 8.80155 6.69893 8.88578L6.69051 8.8942H6.67787C6.63575 8.86473 6.58942 8.8563 6.5473 8.86894L6.53888 8.87315V8.88158C6.53845 8.8849 6.53901 8.88827 6.54052 8.89128C6.54202 8.89428 6.54438 8.89677 6.5473 8.89842L6.63154 8.94054C6.63528 8.94223 6.63828 8.94522 6.63997 8.94896V8.9616C6.63154 8.97422 6.62312 8.97844 6.60627 8.97422C6.58942 8.97002 6.56416 8.97422 6.5473 8.99108C6.49677 9.03319 6.46307 9.08795 6.45465 9.15954C6.4532 9.17242 6.44723 9.18436 6.43781 9.19324L6.38726 9.24378C6.37884 9.25221 6.37462 9.26484 6.37884 9.27748ZM6.50881 9.47538C6.48776 9.47116 6.48776 9.47959 6.50038 9.49222H6.5383L6.55093 9.49644C6.58041 9.5217 6.60989 9.52592 6.63517 9.51328C6.65623 9.50907 6.65201 9.50066 6.63517 9.49222C6.59305 9.47959 6.55093 9.47538 6.50881 9.47538Z" fill="white"/>
<path d="M9.11231 17.6053C8.01367 17.0856 7.07128 16.2857 6.37999 15.286C5.68868 14.2865 5.27284 13.1224 5.17432 11.9111H5.19117C5.47756 12.0374 5.79344 12.1091 6.14723 12.1216C6.15808 12.1226 6.16825 12.1273 6.17596 12.135C6.18366 12.1427 6.1884 12.1529 6.18935 12.1638C6.3317 13.1697 6.72978 14.1224 7.34552 14.9306C7.96126 15.7388 8.77404 16.3755 9.70615 16.7799C9.723 16.7883 9.73143 16.8008 9.72722 16.8178C9.64378 17.1496 9.62945 17.4951 9.6851 17.8327C9.68238 17.8337 9.67939 17.8337 9.67667 17.8327C9.48715 17.7738 9.29762 17.698 9.11231 17.6053Z" fill="white"/>
<path d="M9.74757 16.5083C8.87558 16.1137 8.1173 15.5054 7.54303 14.7397C6.96875 13.974 6.59706 13.0757 6.4624 12.1281C6.46431 12.1238 6.46723 12.1201 6.47089 12.1171C6.47456 12.1141 6.47887 12.1122 6.48346 12.1113C6.70029 12.0819 6.91255 12.0253 7.11523 11.9428C7.11813 11.9439 7.12076 11.9455 7.12295 11.9477C7.12513 11.9498 7.12682 11.9525 7.12786 11.9554C7.23258 12.8173 7.56311 13.6361 8.08601 14.3291C8.60891 15.0221 9.30559 15.5647 10.1056 15.9018C10.1225 15.9103 10.1225 15.9229 10.114 15.9356C9.98764 16.104 9.88235 16.2851 9.7939 16.4873C9.78548 16.5083 9.76863 16.5168 9.74757 16.5041V16.5083ZM17.5435 12.1407C17.4042 13.0915 17.0259 13.9913 16.4439 14.7559C15.8619 15.5205 15.0955 16.1249 14.2163 16.5125C14.2119 16.5095 14.209 16.5051 14.2078 16.5C14.1223 16.2905 14.0089 16.0937 13.8708 15.9145L13.8751 15.9061H13.8835C14.688 15.5673 15.3887 15.0219 15.9146 14.3252C16.4404 13.6285 16.7727 12.8051 16.878 11.9385H16.8949C17.0984 12.0297 17.3141 12.0906 17.5351 12.1197C17.5379 12.1225 17.54 12.1257 17.5414 12.1294C17.5428 12.133 17.5435 12.1369 17.5435 12.1407Z" fill="white"/>
<path d="M18.8245 11.9518C18.7073 13.2455 18.2292 14.4803 17.4442 15.5154C16.6594 16.5504 15.5994 17.3442 14.3853 17.8061C14.3831 17.8048 14.3811 17.8031 14.3797 17.8007C14.3781 17.7986 14.3773 17.7961 14.3769 17.7935C14.4295 17.4593 14.4109 17.1177 14.3221 16.7911C14.3137 16.7742 14.3221 16.7616 14.3391 16.7531C15.2616 16.3442 16.0641 15.7062 16.6708 14.8997C17.2775 14.0933 17.668 13.1452 17.8053 12.1455C17.8053 12.1287 17.818 12.1202 17.839 12.1202C18.1713 12.1217 18.5005 12.0572 18.8077 11.9307C18.8113 11.9311 18.8149 11.9325 18.8178 11.9348C18.8208 11.937 18.8231 11.94 18.8245 11.9433V11.9518Z" fill="white"/>
<path fill-rule="evenodd" clip-rule="evenodd" d="M10.2774 11.0497C10.5832 11.45 11.0184 11.7316 11.5088 11.8465V11.8422C11.5256 11.8465 11.5341 11.8592 11.5341 11.876V15.2412C11.5342 15.2451 11.5334 15.2489 11.532 15.2525C11.5306 15.2562 11.5284 15.2594 11.5256 15.2622C11.1425 15.3514 10.7904 15.5421 10.5062 15.8141C10.2219 16.0862 10.016 16.4297 9.91012 16.8086C9.80419 17.1875 9.8021 17.588 9.90405 17.968C10.006 18.3479 10.2082 18.6935 10.4896 18.9686C10.8401 19.3111 11.2968 19.524 11.7844 19.5722C12.2721 19.6205 12.7616 19.5012 13.1724 19.234C13.5311 19.0013 13.8136 18.6687 13.9851 18.277C14.1566 17.8855 14.2096 17.4523 14.1374 17.031C14.0652 16.6097 13.8712 16.2188 13.5791 15.9067C13.2872 15.5945 12.91 15.3749 12.4944 15.2749C12.4865 15.2731 12.4794 15.2689 12.4741 15.2628C12.4688 15.2568 12.4656 15.2492 12.4648 15.2412V11.8886C12.4648 11.8717 12.4733 11.8592 12.486 11.8592C12.821 11.7785 13.1324 11.6202 13.3952 11.397C13.6577 11.174 13.8643 10.8922 13.998 10.5745V10.5661C13.998 10.5628 13.9972 10.5597 13.9958 10.5567C13.9943 10.5537 13.9921 10.5512 13.9896 10.5492L13.9812 10.545H13.202C13.1906 10.5455 13.1795 10.5484 13.1693 10.5535C13.1592 10.5585 13.1501 10.5657 13.143 10.5745C12.9273 10.876 12.6008 11.0795 12.2351 11.1404C11.8694 11.2012 11.4946 11.1143 11.193 10.8988C11.0312 10.785 10.8947 10.6389 10.7917 10.47C10.6888 10.301 10.622 10.1126 10.5951 9.91667C10.5682 9.72071 10.582 9.52126 10.6356 9.33082C10.6892 9.14039 10.7814 8.96304 10.9065 8.80983C11.0436 8.6437 11.2168 8.51108 11.4129 8.42202C11.609 8.33297 11.8228 8.28984 12.0381 8.29594C12.2534 8.30202 12.4644 8.35718 12.6552 8.45718C12.846 8.55718 13.0114 8.6994 13.1388 8.873C13.1436 8.87966 13.15 8.88507 13.1572 8.88874C13.1646 8.89241 13.1728 8.89424 13.1809 8.89406H13.9769C13.998 8.89406 14.0022 8.88564 13.9938 8.86458C13.8396 8.49941 13.5886 8.18326 13.268 7.95021C12.9474 7.71716 12.5692 7.57605 12.1743 7.54209C11.8801 7.51851 11.5844 7.55519 11.3048 7.64989C11.0255 7.74458 10.7683 7.89531 10.549 8.09283C10.3298 8.29035 10.1532 8.53051 10.03 8.79864C9.90683 9.06676 9.83964 9.3572 9.83256 9.65222C9.81441 10.1555 9.97165 10.6495 10.2774 11.0497ZM13.0003 18.4133C13.2659 18.1453 13.4154 17.7836 13.4164 17.4063C13.4154 17.0291 13.2659 16.6674 13.0003 16.3994C12.7346 16.1314 12.3744 15.9788 11.9971 15.9744C11.6362 16.002 11.2992 16.1649 11.0532 16.4304C10.8074 16.6959 10.6708 17.0445 10.6708 17.4063C10.6708 17.7682 10.8074 18.1168 11.0532 18.3823C11.2992 18.6477 11.6362 18.8107 11.9971 18.8383C12.3744 18.8339 12.7346 18.6813 13.0003 18.4133Z" fill="white"/>
<path fill-rule="evenodd" clip-rule="evenodd" d="M12.1578 16.3881C12.1915 16.3924 12.1957 16.4092 12.1747 16.4303C12.1241 16.485 12.0736 16.5145 12.0146 16.5271C12.0077 16.5276 12.0009 16.5297 11.9952 16.5335C11.9893 16.5371 11.9844 16.5421 11.9809 16.5482C11.9641 16.5818 11.9683 16.6155 11.9978 16.6577C12.0008 16.6619 12.0053 16.6649 12.0104 16.6661H12.0231C12.1241 16.6282 12.1831 16.5735 12.2083 16.4893C12.2168 16.4639 12.221 16.4639 12.221 16.4893C12.2259 16.5266 12.2201 16.5645 12.2042 16.5987C12.1833 16.6438 12.131 16.6546 12.0849 16.6641C12.0751 16.6661 12.0657 16.6681 12.0568 16.6703C12.0521 16.6713 12.0478 16.6732 12.0442 16.6761C12.0405 16.6791 12.0377 16.6829 12.0357 16.6872C12.0314 16.6997 12.0231 16.704 12.0104 16.6957C11.9641 16.6703 11.9346 16.6408 11.9177 16.5987C11.9145 16.5874 11.9079 16.5775 11.8989 16.5699C11.8899 16.5625 11.8789 16.5578 11.8672 16.5565H11.825C11.7914 16.565 11.7872 16.5777 11.8041 16.6072C11.922 16.8009 11.6988 16.902 11.5513 16.923C11.4881 16.9273 11.4755 16.9567 11.5134 17.0073C11.5513 17.062 11.5471 17.1167 11.4966 17.1757C11.4889 17.1823 11.4793 17.1858 11.4692 17.1858C11.4592 17.1858 11.4494 17.1823 11.4418 17.1757C11.4324 17.1678 11.4246 17.1599 11.4171 17.1522C11.4046 17.1394 11.3929 17.1273 11.3745 17.1167C11.307 17.0789 11.2649 17.0115 11.2481 16.9273L11.2439 16.9104L11.227 16.902C11.2221 16.9003 11.2169 16.8999 11.2118 16.9006C11.2067 16.9014 11.2018 16.9033 11.1976 16.9061C11.1175 16.9736 11.0628 17.0494 11.0207 17.142C11.0155 17.157 11.0155 17.1733 11.0207 17.1884L11.0375 17.2516C11.0501 17.2853 11.0417 17.2853 11.0165 17.2599C10.9701 17.2094 10.9617 17.1125 10.9912 16.9777C10.9959 16.9618 10.9965 16.9449 10.9928 16.9287C10.9891 16.9124 10.9813 16.8975 10.9701 16.8851L10.9617 16.8725C10.9593 16.8705 10.9564 16.8693 10.9533 16.8693C10.9501 16.8693 10.9472 16.8705 10.9448 16.8725L10.9406 16.8766C10.925 16.9441 10.9011 17.0091 10.869 17.0705C10.7932 17.2221 10.7764 17.4073 10.7974 17.5759C10.8193 17.7641 10.8848 17.9448 10.9886 18.1034C11.0925 18.262 11.2317 18.3943 11.3955 18.4898C11.5825 18.6005 11.7922 18.6061 12.0013 18.6116C12.0465 18.6128 12.0917 18.6139 12.1368 18.6161C12.2421 18.6203 12.3389 18.6035 12.4316 18.5613C12.6556 18.4709 12.8475 18.3153 12.9826 18.115C13.1177 17.9146 13.1899 17.6785 13.1899 17.4368C13.1899 17.1953 13.1177 16.9591 12.9826 16.7587C12.8475 16.5583 12.6556 16.4029 12.4316 16.3124C12.4261 16.31 12.4201 16.3091 12.4142 16.3099C12.4082 16.3106 12.4026 16.3129 12.3979 16.3165C12.3941 16.3197 12.391 16.3234 12.3888 16.3277C12.3866 16.3321 12.3854 16.3369 12.3852 16.3418V16.3839C12.3852 16.3965 12.3769 16.4049 12.3642 16.4049H12.3432L12.3262 16.3881L12.3221 16.346L12.3137 16.3292C12.3094 16.3207 12.3053 16.3207 12.301 16.3207L12.1157 16.3292H12.1073C12.1037 16.3309 12.1007 16.3336 12.0986 16.3369C12.0965 16.3403 12.0954 16.3442 12.0954 16.3481C12.0954 16.3521 12.0965 16.356 12.0986 16.3593C12.1007 16.3627 12.1037 16.3653 12.1073 16.3671C12.1225 16.3777 12.1397 16.3849 12.1578 16.3881ZM11.7827 17.003C11.7701 17.0284 11.7785 17.0537 11.7995 17.0705C11.8158 17.0814 11.8278 17.0978 11.8332 17.1169L11.8627 17.2516C11.8669 17.2642 11.8753 17.2684 11.8838 17.2642H11.9006C11.9043 17.2637 11.9078 17.2624 11.9108 17.2601C11.9137 17.258 11.9161 17.255 11.9174 17.2516C11.9193 17.2483 11.9203 17.2448 11.9203 17.241C11.9203 17.2373 11.9193 17.2337 11.9174 17.2305C11.9105 17.2177 11.9033 17.2056 11.8964 17.1936C11.8622 17.1342 11.8318 17.0817 11.8249 17.0115C11.8164 16.9694 11.8037 16.9652 11.7827 17.003ZM11.3909 17.2768L11.332 17.1884C11.3152 17.1673 11.3152 17.1716 11.3152 17.1968C11.3211 17.2256 11.3296 17.2538 11.3405 17.281C11.3449 17.2887 11.3473 17.2974 11.3473 17.3063C11.3473 17.3152 11.3449 17.3239 11.3405 17.3316C11.332 17.34 11.3237 17.34 11.311 17.3316C11.3049 17.3249 11.2978 17.3192 11.29 17.3148C11.2605 17.3021 11.252 17.3063 11.2689 17.3358C11.3447 17.4874 11.4247 17.6096 11.6101 17.6221C11.6269 17.6264 11.6311 17.6181 11.6185 17.6053C11.5972 17.588 11.5741 17.5813 11.5514 17.5746C11.5245 17.5666 11.4981 17.5589 11.4752 17.5337C11.4162 17.4664 11.3909 17.3948 11.4037 17.3316C11.4037 17.3105 11.3994 17.2937 11.3909 17.2768ZM11.5553 17.4789L11.648 17.5127V17.5085C11.6533 17.5104 11.6593 17.5104 11.6648 17.5085C11.6704 17.506 11.6749 17.5015 11.6774 17.4959L11.7405 17.2726C11.7413 17.2679 11.7405 17.263 11.7385 17.2587C11.7367 17.2544 11.7336 17.2507 11.7295 17.2481C11.7256 17.2455 11.721 17.244 11.7163 17.2438C11.7114 17.2437 11.7067 17.2449 11.7027 17.2473L11.5258 17.3905C11.521 17.3946 11.518 17.4004 11.5172 17.4065C11.5164 17.4129 11.518 17.4191 11.5216 17.4242L11.5426 17.4664C11.5452 17.472 11.5497 17.4765 11.5553 17.4789ZM11.8206 17.5085L11.8122 17.4874C11.8078 17.4844 11.8049 17.48 11.8037 17.4748C11.8037 17.4715 11.8045 17.4682 11.806 17.4654C11.8075 17.4625 11.8095 17.4599 11.8122 17.4579L11.8544 17.4157C11.8712 17.3948 11.8712 17.3863 11.8417 17.3948C11.7995 17.3989 11.7742 17.42 11.7574 17.4579C11.7364 17.4959 11.7532 17.5211 11.7995 17.5253C11.8045 17.5254 11.8093 17.5237 11.8132 17.5207C11.817 17.5177 11.8197 17.5133 11.8206 17.5085ZM12.2039 17.5632C12.2292 17.6264 12.2671 17.639 12.3261 17.6053V17.6096C12.3337 17.6052 12.3424 17.6028 12.3513 17.6028C12.3601 17.6028 12.3689 17.6052 12.3765 17.6096C12.389 17.6169 12.4017 17.6239 12.4145 17.6306C12.465 17.6601 12.4735 17.6475 12.4397 17.6011C12.3681 17.4959 12.2671 17.4537 12.1322 17.4537C12.1154 17.4537 12.1028 17.4495 12.0902 17.4369C12.0733 17.4242 12.0607 17.4157 12.0396 17.4157H12.0313C12.0291 17.417 12.0273 17.4187 12.0259 17.4208C12.0245 17.4228 12.0237 17.4251 12.0233 17.4275C12.0229 17.4299 12.0229 17.4324 12.0237 17.4348C12.0242 17.437 12.0254 17.4393 12.027 17.4411C12.0421 17.4643 12.062 17.4841 12.0852 17.4993C12.1084 17.5145 12.1345 17.5249 12.1617 17.5296C12.1713 17.5305 12.1802 17.5343 12.1877 17.5403C12.1952 17.5463 12.2008 17.5542 12.2039 17.5632ZM12.1322 17.698C12.0817 17.6853 12.0438 17.698 12.0143 17.7401C12.0107 17.7456 12.0057 17.7501 11.9997 17.753C11.9938 17.756 11.9872 17.7573 11.9806 17.757H11.9385C11.9303 17.7568 11.9222 17.7586 11.9149 17.7623C11.9075 17.7659 11.9012 17.7713 11.8964 17.778L11.8332 17.858C11.8249 17.8707 11.8122 17.8833 11.7995 17.8833L11.7153 17.9044C11.7065 17.9057 11.6982 17.9092 11.6909 17.9143C11.6835 17.9194 11.6776 17.9261 11.6733 17.9339C11.6697 17.9418 11.6679 17.9505 11.6679 17.9591C11.6679 17.9679 11.6697 17.9765 11.6733 17.9844L11.7322 18.1445C11.749 18.1823 11.7701 18.1908 11.808 18.1865L11.9553 18.1445C12.0569 18.1172 12.1257 18.1694 12.2025 18.2275C12.2085 18.2321 12.2145 18.2367 12.2207 18.2413C12.2331 18.2498 12.2478 18.2542 12.2629 18.254C12.2844 18.2561 12.3061 18.2533 12.3265 18.2461C12.3469 18.2387 12.3653 18.2271 12.3808 18.2118C12.4229 18.1655 12.465 18.1065 12.4861 18.0518C12.491 18.0376 12.4921 18.0222 12.4892 18.0074C12.4862 17.9925 12.4793 17.9788 12.4693 17.9676C12.4145 17.9044 12.3681 17.8285 12.3386 17.7443C12.3218 17.6938 12.3007 17.6938 12.2881 17.7443C12.2859 17.7611 12.2859 17.7781 12.2881 17.7949C12.2895 17.8007 12.2894 17.8069 12.2881 17.8127C12.2865 17.8186 12.2837 17.824 12.2797 17.8285C12.2744 17.8341 12.2675 17.8379 12.2599 17.8393C12.2525 17.8408 12.2446 17.8401 12.2376 17.837C12.1828 17.816 12.1533 17.7822 12.1533 17.7275C12.1536 17.7209 12.1517 17.7145 12.1479 17.7091C12.1441 17.7038 12.1385 17.6999 12.1322 17.698Z" fill="white"/>
</g>
<defs>
<clipPath id="clip0_328_43901">
<rect width="24" height="24" fill="white"/>
</clipPath>
</defs>
</svg>
