<svg width="24" height="24" viewBox="0 0 24 24" fill="none" xmlns="http://www.w3.org/2000/svg">
<g clip-path="url(#clip0_328_38077)">
<path d="M24 0H0V24H24V0Z" fill="#82DEFF"/>
<path d="M17.1699 10.2688V11.456C17.1852 11.6514 17.3192 11.9998 17.7598 11.9998H18.8933V13.7615C18.8933 13.842 18.9546 13.9148 19.0848 13.9148C19.2304 13.9148 19.2763 13.8229 19.2763 13.7615V11.9998H20.4367C20.5885 11.993 20.7317 11.9277 20.8366 11.8179C20.9414 11.7081 20.9999 11.562 20.9998 11.4101V10.2688C20.9998 10.1807 20.9307 10.085 20.8121 10.085C20.6857 10.085 20.6167 10.1769 20.6167 10.2688V11.3564C20.6167 11.4369 20.5171 11.6016 20.3257 11.6169C20.1958 11.6246 19.4461 11.6218 18.7453 11.6192C18.4125 11.6181 18.0907 11.6169 17.8516 11.6169C17.7712 11.6016 17.5605 11.5326 17.5529 11.3564C17.5453 11.1804 17.5489 10.5942 17.5529 10.2688C17.5529 10.2075 17.5336 10.085 17.3613 10.085C17.189 10.085 17.1699 10.2075 17.1699 10.2688Z" fill="white"/>
<path fill-rule="evenodd" clip-rule="evenodd" d="M13.2177 10.085H15.7376C16.0211 10.085 16.4041 10.265 16.4041 10.7438V13.2139C16.4041 13.4667 16.2355 13.9148 15.7376 13.9148H13.2177C12.9994 13.9148 12.5819 13.6275 12.5782 13.2139C12.5729 12.9277 12.5748 12.1669 12.5766 11.5095C12.5774 11.2167 12.5782 10.9443 12.5782 10.7438C12.5819 10.5254 12.7198 10.085 13.2177 10.085ZM13.4093 10.468H15.6152C15.8374 10.468 16.0212 10.5639 16.0212 10.9468V13.1106C16.0212 13.3136 15.9829 13.532 15.5846 13.532H13.3748C13.1986 13.532 12.9612 13.4668 12.9612 13.1374C12.9558 12.9047 12.9581 12.1172 12.9598 11.4914C12.9605 11.2318 12.9612 10.9999 12.9612 10.8471C12.965 10.671 13.0071 10.468 13.4093 10.468Z" fill="white"/>
<path d="M7.97875 10.5942V13.7003C7.97875 13.8229 8.02472 13.9148 8.17025 13.9148C8.33494 13.9148 8.36174 13.7883 8.36174 13.7003V10.7283C8.36174 10.5483 8.48431 10.4641 8.53408 10.4679H11.1078C11.3298 10.4679 11.4256 10.6556 11.4256 10.7015C11.4256 10.9313 11.4332 11.1956 11.4256 11.3795C11.4179 11.5709 11.2341 11.6245 11.1843 11.6169H10.0392C9.98175 11.6169 9.84394 11.6245 9.7788 11.7279C9.71367 11.8313 9.77115 11.9538 9.8094 11.9998L11.4256 13.7999C11.5022 13.8765 11.6822 13.9683 11.7703 13.8382C11.8622 13.7118 11.7435 13.5969 11.6707 13.5164L10.3532 11.9998H11.2725C11.4057 11.9937 11.5323 11.9408 11.6305 11.8504C11.7285 11.7601 11.7916 11.638 11.8085 11.5058V10.6632C11.797 10.2113 11.4142 10.0888 11.2303 10.085H8.53408C8.12429 10.085 7.95961 10.4142 7.98259 10.5942H7.97875ZM6.97152 10.085H3.19532C3.13787 10.085 3 10.1232 3 10.2803C3 10.4028 3.13021 10.4525 3.19532 10.4679H4.91491V13.7424C4.91491 13.8189 4.98767 13.9148 5.10639 13.9148C5.22895 13.9148 5.29788 13.8342 5.29788 13.7424V10.4679H6.97152C7.05195 10.4717 7.2128 10.4601 7.2128 10.2879C7.2128 10.1194 7.05195 10.0888 6.97152 10.085Z" fill="white"/>
</g>
<defs>
<clipPath id="clip0_328_38077">
<rect width="24" height="24" fill="white"/>
</clipPath>
</defs>
</svg>
