<svg width="24" height="24" viewBox="0 0 24 24" fill="none" xmlns="http://www.w3.org/2000/svg">
<g clip-path="url(#clip0_328_52344)">
<path d="M24 0H0V24H24V0Z" fill="black"/>
<path d="M8.93332 3.53624L17.8418 13.2658L7.23488 4.35171L6.80183 4.64417L17.5213 13.6426L5.37333 5.89832C5.25523 6.02205 5.14838 6.14577 5.03588 6.28076L17.2514 14.0644L3.9842 7.87797C3.90547 8.02419 3.83797 8.17042 3.76485 8.3279L17.0376 14.5143L3.17434 10.1444L3.08435 10.6394L16.8914 14.9923L3 12.5514L3.04498 13.0633L16.8014 15.4929L3.46116 14.908C3.5174 15.0767 3.58489 15.2511 3.65239 15.4141L16.7789 15.9935L4.53535 17.062L4.8728 17.5344L16.8239 16.4884L6.13819 18.8617C6.30692 18.9966 6.47564 19.1317 6.64436 19.2554L16.9364 16.9776L8.16284 20.1722C8.3878 20.2733 8.61276 20.3689 8.84897 20.4532L17.105 17.4501L10.4856 20.8976C10.778 20.9426 11.0705 20.9763 11.3685 20.9989L17.3301 17.8943L12.9432 20.9706C13.3369 20.9313 13.7193 20.8582 14.0962 20.7738L17.6224 18.2993L15.3727 20.3633C16.0421 20.0934 16.6664 19.7446 17.24 19.3342L17.9599 18.6705L17.7068 18.9742C19.075 17.8531 20.0821 16.3535 20.6023 14.6628C21.1225 12.9722 21.1326 11.1659 20.6313 9.46951L20.5188 12.0848L20.1869 8.27165C20.0182 7.88922 19.8159 7.52366 19.5908 7.17498L20.0238 12.124L18.6516 5.94893C18.4434 5.72398 18.2243 5.49901 17.9993 5.29656L19.5347 12.2365L16.6439 4.29548C16.4302 4.16612 16.2109 4.0424 15.9802 3.92991L19.0622 12.4053L14.3324 3.30565C14.1186 3.24942 13.9051 3.20442 13.6913 3.15943L18.6179 12.6359L11.8747 3.00195C11.6778 3.00195 11.4809 3.0132 11.2841 3.03008L18.213 12.9284L9.45076 3.36752C9.27639 3.41812 9.10205 3.47437 8.93332 3.53624Z" fill="url(#paint0_linear_328_52344)"/>
</g>
<defs>
<linearGradient id="paint0_linear_328_52344" x1="19.6639" y1="17.1857" x2="4.5241" y2="6.62386" gradientUnits="userSpaceOnUse">
<stop stop-color="#7000FF"/>
<stop offset="0.49" stop-color="#00FFD1"/>
<stop offset="1" stop-color="#FFBF1C"/>
</linearGradient>
<clipPath id="clip0_328_52344">
<rect width="24" height="24" fill="white"/>
</clipPath>
</defs>
</svg>
