<svg width="24" height="24" viewBox="0 0 24 24" fill="none" xmlns="http://www.w3.org/2000/svg">
<g clip-path="url(#clip0_328_44172)">
<path d="M24 0H0V24H24V0Z" fill="#FF0A6F"/>
<path fill-rule="evenodd" clip-rule="evenodd" d="M8.47971 8.25002L8.48171 8.25153C8.63572 8.38154 8.75122 8.47853 8.82422 8.54703L8.86922 8.59103C8.88019 8.60211 8.89053 8.6138 8.90022 8.62603C9.05372 8.82804 8.99622 9.00904 8.73272 9.15104C8.58621 9.23004 8.28521 9.31004 8.13471 9.31004C7.9647 9.31004 7.90571 9.24753 7.90571 9.24753L7.87071 9.21804C7.78671 9.14953 7.6897 9.07054 7.2437 8.31953C6.92797 7.85455 6.6113 7.39021 6.2937 6.92652C6.17604 6.75157 6.05603 6.57823 5.9337 6.40651C5.89618 6.37351 5.89669 6.37451 7.1717 8.53954C7.3357 8.89854 7.2647 9.07654 7.22871 9.16704C7.2204 9.18402 7.215 9.20228 7.2127 9.22104C7.2127 9.35104 7.17521 9.42004 7.0052 9.60006C6.72219 9.90003 6.5952 10.2371 6.5037 10.9352C6.4017 11.7166 6.1137 12.2691 5.31469 13.2141C4.84718 13.7676 4.77068 13.8691 4.65268 14.0921C4.50418 14.3726 4.46319 14.5301 4.44668 14.8845C4.42918 15.2596 4.46319 15.502 4.58418 15.8605C4.68918 16.174 4.80017 16.3816 5.08168 16.7956C5.32518 17.1537 5.46518 17.4197 5.46518 17.5236C5.46518 17.6062 5.48219 17.6067 5.85919 17.5257C6.76169 17.3321 7.49421 16.9922 7.90671 16.5756C8.16171 16.3171 8.22171 16.1746 8.2237 15.8211C8.2247 15.5896 8.2162 15.5411 8.15021 15.4081C8.04321 15.1916 7.84771 15.0116 7.41771 14.7331C6.8537 14.3665 6.6127 14.0725 6.54669 13.6676C6.49169 13.3351 6.55519 13.1006 6.86669 12.4806C7.18971 11.8386 7.2697 11.5645 7.3242 10.9176C7.3592 10.4996 7.40769 10.3345 7.5342 10.2026C7.66621 10.0641 7.78471 10.0175 8.1117 9.97505C8.64472 9.9061 8.98372 9.77509 9.26271 9.53154C9.50422 9.31954 9.60572 9.11604 9.62122 8.80904L9.63273 8.57653L9.49772 8.42703C9.00772 7.88554 4.27968 4 4.24967 4C4.24366 4 4.40468 4.1915 4.60768 4.4255C6.4197 6.51302 7.81171 7.68603 8.47971 8.25002ZM5.73969 15.3091C5.79282 15.2193 5.8087 15.1124 5.78393 15.0111C5.75916 14.9097 5.69573 14.8222 5.60719 14.767C5.43219 14.657 5.16018 14.7086 5.16018 14.8521C5.16033 14.8667 5.16377 14.881 5.17019 14.8941L5.17669 14.9055C5.18367 14.9152 5.1921 14.9236 5.20169 14.9306L5.22369 14.9461L5.24369 14.956C5.34069 15.0041 5.34769 15.0571 5.27119 15.166C5.19369 15.276 5.20019 15.3736 5.28869 15.439C5.43169 15.5456 5.63369 15.4871 5.73969 15.3091Z" fill="white"/>
<path d="M8.89403 5.13709C8.86652 5.12909 8.88902 5.1241 8.94553 5.11609C9.14253 5.08709 9.60803 5.12609 9.92799 5.1986C10.6765 5.3676 11.3571 5.7996 12.0836 6.5676L12.2765 6.77161L12.5526 6.72961C13.7161 6.5521 14.8996 6.6931 15.8901 7.12712C16.1621 7.2466 16.5916 7.4841 16.6451 7.54511C16.6626 7.5646 16.6935 7.69013 16.7151 7.82362C16.7881 8.28611 16.7515 8.64063 16.6025 8.90562C16.5833 8.93853 16.5664 8.97279 16.5521 9.00812L16.5421 9.03712C16.5266 9.09562 16.5371 9.14212 16.5717 9.21863C16.615 9.31713 16.7366 9.39013 16.8565 9.38963C17.1025 9.38963 17.367 9.01212 17.49 8.48713L17.539 8.27812L17.6356 8.38212C18.1646 8.95162 18.5806 9.7281 18.652 10.2806L18.6705 10.4246L18.582 10.2936C18.4286 10.0687 18.2746 9.91465 18.0776 9.7911C17.7225 9.56813 17.3465 9.49213 16.3516 9.44213C15.453 9.39713 14.9446 9.32464 14.4406 9.16862C13.5821 8.90312 13.1501 8.54963 12.1306 7.28061C11.678 6.71661 11.398 6.4051 11.12 6.1541C10.4875 5.5831 9.86603 5.28409 9.07053 5.16709C9.01127 5.15974 8.95239 5.14973 8.89403 5.13709Z" fill="white"/>
<path d="M16.8492 6.42476C16.8722 6.04676 16.9258 5.79775 17.0342 5.56975C17.0778 5.47975 17.1178 5.40625 17.1242 5.40625C17.1302 5.40625 17.1112 5.47275 17.0822 5.55425C17.0038 5.77475 16.9902 6.07675 17.0447 6.42825C17.1142 6.87427 17.1532 6.93826 17.6498 7.41977C17.8823 7.64577 18.1538 7.93077 18.2518 8.05328L18.4302 8.27527L18.2518 8.11676C18.0333 7.92176 17.5312 7.54327 17.4203 7.48876C17.3998 7.47735 17.3777 7.46894 17.3547 7.46376C17.3488 7.46267 17.3427 7.46267 17.3367 7.46376C17.3217 7.46726 17.3087 7.47776 17.2893 7.49676C17.2467 7.53677 17.2377 7.59677 17.2318 7.88027C17.2228 8.32227 17.1592 8.60578 17.0058 8.88978C16.9233 9.04328 16.9102 9.01027 16.9848 8.83728C17.0412 8.70778 17.0467 8.65128 17.0462 8.22327C17.0452 7.36326 16.9378 7.15626 16.3067 6.80226C16.1166 6.69676 15.9213 6.60079 15.7217 6.51475C15.5597 6.44625 15.4313 6.38676 15.4357 6.38225C15.4537 6.36525 16.0687 6.53575 16.3167 6.62625C16.6847 6.76077 16.7458 6.77826 16.7903 6.76177C16.8202 6.75126 16.8352 6.66825 16.8492 6.42476ZM8.83815 5.76425C8.77865 6.42825 9.05316 7.31626 9.49666 7.89577C9.84016 8.34476 10.3726 8.69328 10.7661 8.72728C11.0236 8.74928 11.1012 8.67228 10.9846 8.51128C10.8227 8.28727 10.6236 7.94176 10.5712 7.79428C10.5103 7.59552 10.4576 7.39435 10.4132 7.19126C10.2282 6.37326 10.0466 6.05476 9.62666 5.81275C9.47366 5.72475 9.14665 5.60925 8.95715 5.57624L8.85665 5.55875L8.83815 5.76425ZM16.3117 12.2064C14.2397 11.4149 13.5101 10.7278 13.5101 9.56829C13.5101 9.39778 13.5162 9.25828 13.5236 9.25828C13.5317 9.25828 13.6116 9.31428 13.7021 9.38329C14.1222 9.70334 14.5928 9.83926 15.8952 10.0198C16.6613 10.1258 17.0927 10.2118 17.4903 10.3369C18.7552 10.7349 19.5378 11.5423 19.7242 12.6428C19.7782 12.9624 19.7462 13.5617 19.6587 13.8778C19.5887 14.1273 19.3773 14.5768 19.3213 14.5943C19.3138 14.5964 19.3062 14.5848 19.3007 14.5643C19.2924 14.5318 19.2877 14.4987 19.2862 14.4653C19.2653 14.0524 19.0452 13.6503 18.6762 13.3489C18.2562 13.0063 17.6912 12.7338 16.3117 12.2064ZM14.7573 12.1193C14.7862 12.2013 14.8312 12.3888 14.8573 12.5353C15.0233 13.4723 14.5048 14.2298 13.4961 14.5233C13.4216 14.5426 13.3464 14.5593 13.2706 14.5733C13.1764 14.5915 13.0822 14.6089 12.9876 14.6253L12.8016 14.6573L12.5616 14.6968C11.7376 14.8268 11.3696 14.9193 11.0001 15.0884C10.7376 15.2083 10.4202 15.3873 10.4397 15.4053C10.4421 15.4077 10.4552 15.4069 10.4752 15.4023C10.5001 15.3973 10.5351 15.3873 10.5721 15.3753C11.0382 15.2198 11.5571 15.1393 12.3452 15.1004C12.4586 15.0953 12.5776 15.0884 12.6896 15.0808L12.8387 15.0709L12.9896 15.0597L13.0571 15.0538L13.1356 15.0457C13.8376 14.9617 14.3248 14.7598 14.7028 14.3943C14.9137 14.1909 15.0393 14.0013 15.1403 13.7343C15.2042 13.5643 15.2127 13.5018 15.2137 13.2013C15.2137 12.8953 15.2061 12.8393 15.1368 12.6513C15.0457 12.4043 14.9388 12.2193 14.8028 12.0743L14.7043 11.9699L14.7573 12.1193Z" fill="white"/>
<path d="M15.806 14.1352C15.5309 13.5737 15.4679 13.0317 15.6184 12.5257C15.6345 12.4717 15.6604 12.4277 15.6765 12.4277C15.6988 12.433 15.72 12.442 15.7395 12.4542C15.7644 12.4671 15.7924 12.4842 15.8204 12.5017C15.9474 12.5826 16.202 12.7191 16.8795 13.0697C17.7254 13.5077 18.2075 13.8462 18.5354 14.2338C18.8225 14.5727 19.0005 14.9587 19.086 15.4297C19.1345 15.6962 19.1059 16.3382 19.034 16.6067C18.8065 17.4538 18.278 18.1187 17.5239 18.5067C17.4528 18.5459 17.3794 18.5807 17.304 18.6107C17.301 18.6107 17.3019 18.6033 17.3064 18.5898L17.3154 18.5637C17.3309 18.5237 17.3589 18.4633 17.3929 18.3953C17.647 17.8917 17.6755 17.4028 17.4839 16.8577C17.3664 16.5243 17.1269 16.1177 16.6439 15.4297C16.082 14.6298 15.9439 14.4173 15.806 14.1352ZM10.6209 15.9772C9.74991 16.1118 8.79342 16.5492 8.0244 17.1652L7.79541 17.3487L7.9964 17.3787C9.04641 17.5337 9.32942 17.6717 10.0574 18.3837C10.4763 18.7937 10.6174 18.8847 10.9655 18.9687C11.4755 19.0923 11.979 18.8652 12.1515 18.4327C12.2284 18.2398 12.2185 17.9202 12.13 17.7598C11.9195 17.3772 11.306 17.2537 11.0099 17.5337C10.7629 17.7672 10.8349 18.1187 11.1419 18.1787C11.2119 18.1927 11.2105 18.1897 11.1239 18.1527C10.9894 18.0952 10.9314 18.0153 10.9304 17.8878C10.9289 17.5897 11.2884 17.4217 11.6236 17.5652C11.8685 17.6702 11.966 17.8073 11.966 18.0477C11.966 18.4178 11.634 18.6972 11.2475 18.6512C11.0409 18.6267 10.7883 18.5012 10.6524 18.3562C10.3119 17.9908 10.4449 17.4138 10.9209 17.1922C11.283 17.0237 11.7644 17.0653 12.138 17.2972C12.5664 17.5638 12.7495 17.8073 13.1185 18.6072C13.239 18.8671 13.3935 19.1607 13.463 19.2588C13.813 19.7557 14.232 19.9998 14.7375 19.9998C15.0155 19.9998 15.2255 19.9512 15.4889 19.8262C15.6849 19.7338 15.9624 19.5572 15.9425 19.5383C15.9369 19.5332 15.8555 19.5567 15.7619 19.5917C15.2104 19.7957 14.65 19.7817 14.324 19.5553C14.119 19.4127 13.954 19.1292 13.869 18.7747C13.854 18.7131 13.8054 18.4423 13.7605 18.1717C13.6475 17.4872 13.5389 17.1797 13.2854 16.8267C13.0264 16.4652 12.5275 16.1617 11.97 16.0267C11.6224 15.9423 10.9963 15.9192 10.6209 15.9772Z" fill="white"/>
<path fill-rule="evenodd" clip-rule="evenodd" d="M9.40055 10.6855C9.47555 10.4219 9.71906 10.1704 9.969 10.0975C10.1275 10.051 10.4565 10.0805 10.611 10.155C10.9111 10.2999 11.1281 10.6289 11.0811 10.8664C11.0235 11.1565 10.528 11.3879 9.95851 11.3915C9.66756 11.394 9.56006 11.3564 9.44905 11.216C9.38055 11.1285 9.35455 10.8455 9.40055 10.6855ZM10.5346 10.2585C10.684 10.345 10.7225 10.4735 10.6346 10.5915C10.574 10.673 10.3865 10.7505 10.2496 10.7505C10.0446 10.7505 9.82006 10.612 9.82006 10.4854C9.82006 10.2305 10.25 10.0934 10.5346 10.2585Z" fill="white"/>
</g>
<defs>
<clipPath id="clip0_328_44172">
<rect width="24" height="24" fill="white"/>
</clipPath>
</defs>
</svg>
