<svg width="24" height="24" viewBox="0 0 24 24" fill="none" xmlns="http://www.w3.org/2000/svg">
<g clip-path="url(#clip0_328_38126)">
<path d="M24 0H0V24H24V0Z" fill="#009393"/>
<path d="M11.9999 18.4001L4 10.5081L7.05199 5.6001H16.948L20 10.5081L11.9999 18.4001ZM12.8 11.2001V10.2241C14.2399 10.296 15.5839 10.576 16 10.94C15.516 11.3641 13.784 11.6721 11.9999 11.6721C10.216 11.6721 8.48399 11.3641 7.99998 10.94C8.41199 10.576 9.75999 10.3001 11.2 10.2201V11.2001H12.8ZM7.99998 10.9361V11.5241C8.41199 11.8881 9.75598 12.1641 11.2 12.2441V14.4001H12.8V12.2401C14.2399 12.1681 15.5879 11.8881 16 11.5241V10.3521C15.5879 9.98805 14.2399 9.70806 12.8 9.63208V8.80009H15.2V7.6001H8.79999V8.80009H11.2V9.63208C9.75598 9.70806 8.41199 9.98805 7.99998 10.3521V10.9361Z" fill="white"/>
</g>
<defs>
<clipPath id="clip0_328_38126">
<rect width="24" height="24" fill="white"/>
</clipPath>
</defs>
</svg>
