<svg width="24" height="24" viewBox="0 0 24 24" fill="none" xmlns="http://www.w3.org/2000/svg">
<g clip-path="url(#clip0_328_33371)">
<path d="M24 0H0V24H24V0Z" fill="black"/>
<path d="M14.7978 8.99594H8.99594V14.7978C7.96457 14.7191 6.9774 14.3464 6.15152 13.7237C5.32565 13.1009 4.69574 12.2544 4.33652 11.2843C3.9773 10.3144 3.90386 9.26173 4.1249 8.25128C4.34594 7.24082 4.85219 6.31498 5.58358 5.58358C6.31498 4.85219 7.24082 4.34593 8.25128 4.1249C9.26173 3.90386 10.3144 3.9773 11.2843 4.33652C12.2544 4.69574 13.1009 5.32565 13.7236 6.15152C14.3464 6.9774 14.7191 7.96457 14.7978 8.99594Z" fill="url(#paint0_linear_328_33371)"/>
<path d="M9.18663 14.7084C9.92782 14.7088 10.6616 14.5599 11.3439 14.2705C12.0262 13.9812 12.6432 13.5573 13.1582 13.0242C13.6731 12.4911 14.0753 11.8597 14.3407 11.1677C14.6062 10.4758 14.7296 9.73729 14.7033 8.99658H20V20H8.99658V14.6984L9.18663 14.7084Z" fill="url(#paint1_linear_328_33371)"/>
</g>
<defs>
<linearGradient id="paint0_linear_328_33371" x1="18.8878" y1="11.3286" x2="3.99166" y2="14.9599" gradientUnits="userSpaceOnUse">
<stop stop-color="#C3F5E9"/>
<stop offset="0.17" stop-color="#C7C6E8"/>
<stop offset="0.45" stop-color="#D196E5"/>
<stop offset="0.69" stop-color="#7698EC"/>
<stop offset="0.95" stop-color="#5693F0"/>
</linearGradient>
<linearGradient id="paint1_linear_328_33371" x1="19.4702" y1="9.28151" x2="9.32709" y2="19.9999" gradientUnits="userSpaceOnUse">
<stop stop-color="#E9CFEB"/>
<stop offset="0.2" stop-color="#AC90F4"/>
<stop offset="0.49" stop-color="#7567F8"/>
<stop offset="1" stop-color="#3095F4"/>
</linearGradient>
<clipPath id="clip0_328_33371">
<rect width="24" height="24" fill="white"/>
</clipPath>
</defs>
</svg>
