<svg width="24" height="24" viewBox="0 0 24 24" fill="none" xmlns="http://www.w3.org/2000/svg">
<g clip-path="url(#clip0_328_44367)">
<path d="M24 0H0V24H24V0Z" fill="url(#paint0_linear_328_44367)"/>
<path d="M8.26513 8.95083C6.84799 6.82056 8.74055 4.76342 9.8651 4C6.16684 4.608 5.95656 7.30056 6.31314 8.57141C5.59999 8.42055 5.4217 6.98514 5.4217 6.2857C3.85828 9.17941 5.36228 11.0491 6.31314 11.6205C5.81599 11.4816 5.35341 11.2402 4.95505 10.9119C4.5567 10.5836 4.23139 10.1757 4 9.71426C4 12.3062 6.37256 13.5862 7.55656 13.9062C6.7017 13.9062 5.65942 13.6502 5.24342 13.5222C5.67314 15.3509 8.62627 16.448 10.0434 16.7634C9.8011 16.6308 9.1977 15.9405 8.80913 15.465C9.21141 15.881 9.99768 16.3565 10.4 16.5714C10.272 16.5714 10.1394 16.7222 9.97486 16.9188C9.68686 17.257 9.29827 17.7142 8.6217 17.7142C7.76684 17.7142 6.96227 17.0788 6.66514 16.7634C7.0217 18.0937 7.37827 18.665 8.26513 18.857C8.97827 19.008 9.74627 18.2857 10.048 17.9062C9.61827 19.1222 8.44799 19.1725 7.91313 19.049C8.02742 19.2365 8.47999 19.6205 9.33027 19.6205C10.1851 19.6205 10.7565 18.3497 10.9302 17.7142C10.9232 18.1674 10.8066 18.6121 10.5899 19.0102C10.3734 19.4083 10.0635 19.7479 9.68686 20H10.7565C12.1737 19.6937 12.0594 18.0937 11.8217 17.3348C12.5349 18.4 12.2331 19.3005 12 19.6205C13.28 19.008 13.0057 17.8377 12.7131 17.3348C12.9965 17.4857 13.184 18.1577 13.2434 18.4777C13.5269 17.5634 13.2434 16.9508 13.0651 16.7634C13.6365 16.608 14.6057 15.6845 15.0217 15.2365C14.6651 15.8433 14.1798 16.3645 13.6 16.7634C16.873 16.7634 18.281 14.6011 18.5782 13.5222C17.2982 13.9794 16.5028 13.9702 16.265 13.9062C17.2602 13.7116 18.1641 13.1963 18.8385 12.4393C19.513 11.6822 19.921 10.7251 20 9.71426C19.8326 10.2173 19.5267 10.663 19.1175 11.0002C18.7085 11.3373 18.2126 11.5523 17.6868 11.6205C20.1097 9.94286 19.177 7.36914 18.4 6.2857C18.5417 7.80799 17.865 8.57141 17.513 8.76341C18.08 5.25714 15.3782 4.128 13.9565 4C17.0834 6.2857 16.3245 8.37942 15.5565 9.14283C16.6948 12.3429 14.9622 13.5222 13.9565 13.7142C15.3737 12.8 15.3737 11.6845 15.2 11.2365C15.0582 12.4571 13.9565 12.7634 13.4217 12.7634C13.9931 11.392 13.0651 9.90626 12.5349 9.33483C12.672 9.17941 13.0651 9.27083 13.2434 9.33483C13.2434 9.17941 12.7725 9.14283 12.5349 9.14283C12.8812 9.03191 13.2536 9.03191 13.6 9.14283C13.3737 8.97297 13.1148 8.85159 12.8395 8.7863C12.5642 8.72102 12.2784 8.71322 12 8.76341C12.5669 8.60798 12.9462 8.69941 13.0651 8.76341C12.772 8.50445 12.391 8.3671 12 8.37942C11.4331 8.37942 10.6971 8.88683 10.4 9.14283L10.2217 8.95083C10.2811 9.07883 10.3269 9.40798 10.0434 9.71426C9.76002 10.0205 9.68686 10.6011 9.68686 10.8571C9.68686 10.5509 10.0434 10.4777 10.2217 10.4777L10.0434 10.6651C11.04 10.208 11.4057 11.1131 11.4651 11.6205C11.4651 12.5349 10.8709 12.8869 10.5782 12.9509C9.43998 12.8 8.79998 11.744 8.6217 11.2365C8.39313 12.4845 9.01027 13.2205 9.53598 13.5497C7.47884 12.4069 7.81713 10.0389 8.26513 8.95083ZM10.4 9.90626C10.4 9.77826 10.5417 9.4857 11.1085 9.33483V9.52227L10.4 9.90626Z" fill="white"/>
<path d="M14.1891 13.6548L14.1343 13.7142C14.4863 13.9062 15.4463 14.2857 16.4428 14.2857C17.2168 14.265 17.9644 13.9994 18.5777 13.5268C17.2977 13.984 16.5023 13.9702 16.2645 13.9062C16.9571 13.7754 17.61 13.4861 18.1724 13.061C18.7346 12.6359 19.1909 12.0866 19.5056 11.456L19.9491 10.1531L19.9856 9.90625C18.6875 12.7177 16.3743 13.2845 15.0303 13.1885C14.756 13.417 14.4588 13.5725 14.1891 13.6548Z" fill="white"/>
<path d="M15.1221 13.106C16.9781 13.106 18.7929 12.2648 19.8673 10.5048C19.9383 10.2464 19.9826 9.98136 19.9998 9.71395C19.8324 10.217 19.5266 10.6626 19.1174 10.9998C18.7083 11.337 18.2125 11.552 17.6867 11.6202C19.8809 10.1025 19.3187 7.84424 18.6193 6.63281C18.8798 8.27395 18.5507 10.5871 15.9221 11.3413C15.8912 12.0103 15.6049 12.6418 15.1221 13.106Z" fill="white"/>
<path d="M8.02276 11.5566C5.27535 10.807 4.98735 8.26525 5.26621 6.59668C3.96335 9.31211 5.39877 11.0676 6.30849 11.6206C5.39435 11.3678 4.61317 10.7717 4.12793 9.95663C4.83649 12.4436 7.42392 13.0013 8.75876 12.9556C8.39164 12.5642 8.13731 12.081 8.02276 11.5566Z" fill="white"/>
<path d="M8.77713 12.9733C5.89714 13.0647 4.59428 11.3185 4.16 10.0019C4.10079 9.90929 4.04736 9.81307 4 9.71387C4 12.3059 6.37256 13.5859 7.55656 13.9059C6.7017 13.9059 5.65942 13.6499 5.24342 13.5219L5.2617 13.5859C5.82193 14.0102 6.49791 14.2541 7.19999 14.2853C8.47999 14.2853 9.51313 13.9059 9.8651 13.7139C9.8651 13.7139 8.53941 12.9231 9.54055 13.5493C9.25896 13.3961 9.00167 13.2021 8.77713 12.9733Z" fill="white"/>
<path d="M9.82397 4.032C8.74049 4.50742 7.19993 5.52228 6.84335 7.04914C6.71355 7.61833 6.74962 8.21281 6.94732 8.76213C7.14501 9.31146 7.49603 9.79256 7.95877 10.1485C7.898 10.6163 7.91809 11.091 8.01821 11.552C5.01021 10.6742 4.92793 8.04113 5.38507 6.35884L5.42164 6.2857C5.42164 6.98514 5.59993 8.42055 6.30849 8.57141C5.95649 7.30056 6.17135 4.608 9.86503 4L9.81937 4.032H9.82397Z" fill="white"/>
</g>
<defs>
<linearGradient id="paint0_linear_328_44367" x1="12" y1="4" x2="12" y2="20" gradientUnits="userSpaceOnUse">
<stop stop-color="#FF680B"/>
<stop offset="0.37" stop-color="#DF0B1B"/>
<stop offset="0.5" stop-color="#F9580E"/>
<stop offset="0.71" stop-color="#E51E18"/>
<stop offset="1" stop-color="#DB001D"/>
</linearGradient>
<clipPath id="clip0_328_44367">
<rect width="24" height="24" fill="white"/>
</clipPath>
</defs>
</svg>
