<svg width="24" height="24" viewBox="0 0 24 24" fill="none" xmlns="http://www.w3.org/2000/svg">
<g clip-path="url(#clip0_328_38162)">
<path d="M24 0H0V24H24V0Z" fill="url(#paint0_linear_328_38162)"/>
<path fill-rule="evenodd" clip-rule="evenodd" d="M12 20.4706C16.7383 20.4706 20.4706 16.7383 20.4706 12C20.4706 7.26176 16.7383 3.5294 12 3.5294C7.26176 3.5294 3.5294 7.26176 3.5294 12C3.5294 16.7383 7.26176 20.4706 12 20.4706ZM12 21C14.387 21 16.6762 20.0517 18.3639 18.3639C20.0517 16.6762 21 14.387 21 12C21 9.61306 20.0517 7.32386 18.3639 5.63603C16.6762 3.94822 14.387 3 12 3C9.61306 3 7.32386 3.94822 5.63603 5.63603C3.94822 7.32386 3 9.61306 3 12C3 14.387 3.94822 16.6762 5.63603 18.3639C7.32386 20.0517 9.61306 21 12 21Z" fill="white"/>
<path d="M11.9101 10.941V13.5881H12.5294V10.941H11.9101ZM11.9471 10.4909C12.0214 10.5599 12.1167 10.597 12.233 10.597C12.3495 10.597 12.4448 10.5599 12.5137 10.4909C12.5479 10.4561 12.5749 10.4146 12.5931 10.3694C12.6113 10.3238 12.6203 10.2753 12.6195 10.2263C12.6217 10.1803 12.6131 10.1345 12.5948 10.0922C12.5764 10.0501 12.5488 10.0127 12.5137 9.98273C12.4372 9.91365 12.3361 9.87743 12.233 9.88227C12.1167 9.88227 12.0214 9.91928 11.9471 9.98813C11.9129 10.0197 11.8857 10.0581 11.8674 10.1011C11.8492 10.1439 11.8404 10.1903 11.8414 10.2369C11.8414 10.3376 11.8784 10.4222 11.9471 10.4909ZM14.3507 13.5881C14.0755 13.5881 13.8318 13.5351 13.6148 13.4186C13.4087 13.3053 13.237 13.1381 13.1187 12.9348C13.0002 12.7316 12.9394 12.4998 12.9425 12.2647C12.9376 12.029 12.9979 11.7966 13.1163 11.5929C13.235 11.3893 13.4074 11.2224 13.6148 11.1105C13.8265 10.9994 14.0755 10.941 14.3507 10.941C14.5995 10.941 14.8271 10.994 15.0178 11.0999C15.2083 11.1951 15.3565 11.3433 15.4571 11.5393L14.9914 11.8146C14.9247 11.7033 14.8298 11.6114 14.7164 11.5483C14.6031 11.4852 14.4752 11.4528 14.3454 11.4545C14.1919 11.4545 14.0595 11.4863 13.9377 11.5499C13.816 11.6133 13.726 11.7087 13.6571 11.8304C13.5884 11.9522 13.5514 12.0951 13.5514 12.2647C13.5514 12.4286 13.5884 12.5769 13.6571 12.6987C13.726 12.8151 13.816 12.9104 13.9377 12.974C14.0557 13.0364 14.1869 13.0701 14.3203 13.0719C14.4538 13.0738 14.5858 13.0439 14.7055 12.9846C14.8167 12.9263 14.9171 12.8363 14.9914 12.7145L15.4571 12.9793C15.3605 13.1723 15.2073 13.3312 15.0178 13.4346C14.8219 13.5404 14.5995 13.5881 14.3454 13.5881H14.3507ZM17.1301 13.5881C16.839 13.5881 16.5848 13.5351 16.3678 13.4186C16.1561 13.3023 15.9865 13.1434 15.8648 12.9422C15.7468 12.7362 15.6866 12.5021 15.6901 12.2647C15.6796 12.0311 15.7345 11.7995 15.8486 11.5954C15.9628 11.3917 16.1317 11.2236 16.336 11.1105C16.5478 10.9994 16.7755 10.941 17.0348 10.941C17.289 10.941 17.5114 10.994 17.7125 11.1051C17.9083 11.211 18.0671 11.3699 18.1784 11.571C18.3263 11.8406 18.3821 12.1509 18.3372 12.4551H16.2991C16.3148 12.5451 16.3518 12.6299 16.3942 12.704C16.463 12.8205 16.5637 12.9157 16.696 12.9793C16.8231 13.0428 16.9714 13.0746 17.1407 13.0746C17.289 13.0746 17.4213 13.0533 17.5378 13.0058C17.6542 12.9634 17.7601 12.8894 17.8502 12.794L18.1731 13.1646C18.0565 13.3023 17.9083 13.4081 17.7337 13.4823C17.5591 13.551 17.3525 13.5881 17.1301 13.5881ZM16.3784 11.788C16.336 11.8674 16.3094 11.9574 16.2937 12.0528H17.776C17.7636 11.9426 17.7248 11.8371 17.6631 11.7449C17.6014 11.6528 17.5185 11.5767 17.4213 11.5234C17.3101 11.4545 17.1831 11.4228 17.0348 11.4228C16.8867 11.4228 16.7541 11.4597 16.643 11.5234C16.5318 11.587 16.4419 11.6769 16.3784 11.788ZM10.0254 13.5881C9.76068 13.5881 9.5172 13.5351 9.31074 13.4186C9.10528 13.3045 8.93441 13.1369 8.81609 12.9339C8.69776 12.7309 8.63638 12.4996 8.63837 12.2647C8.63347 12.029 8.69363 11.7966 8.81225 11.5929C8.93088 11.3893 9.10335 11.2224 9.31074 11.1105C9.5225 10.9994 9.7554 10.941 10.0254 10.941C10.2902 10.941 10.5337 10.994 10.7402 11.1105C10.9519 11.2217 11.1108 11.3751 11.2325 11.5763C11.349 11.7723 11.4125 11.9999 11.4125 12.2647C11.4157 12.4998 11.3547 12.7316 11.2362 12.9348C11.1178 13.1381 10.9463 13.3053 10.7402 13.4186C10.5283 13.5297 10.2902 13.5881 10.0254 13.5881ZM10.0254 13.0693C10.1737 13.0693 10.306 13.0376 10.4225 12.974C10.539 12.9104 10.6344 12.8151 10.6978 12.6934C10.7614 12.5716 10.7983 12.4286 10.7983 12.2647C10.7983 12.0951 10.7614 11.9469 10.6925 11.8304C10.6291 11.7087 10.539 11.6186 10.4225 11.5499C10.3006 11.4845 10.1638 11.4516 10.0254 11.4545C9.88905 11.4458 9.75303 11.4766 9.63385 11.5433C9.51452 11.61 9.41704 11.7097 9.35309 11.8304C9.28956 11.9522 9.25249 12.0951 9.25249 12.2647C9.25249 12.4233 9.28956 12.5716 9.35839 12.6881C9.42173 12.8085 9.51816 12.9084 9.63633 12.9759C9.7545 13.0434 9.88961 13.0758 10.0254 13.0693ZM5.66838 10.941L6.78015 13.5881H7.41544L8.5272 10.941H7.94484L7.10837 12.8997L6.29838 10.941H5.66309H5.66838Z" fill="white"/>
</g>
<defs>
<linearGradient id="paint0_linear_328_38162" x1="16.7812" y1="16.2777" x2="5.07294" y2="8.06587" gradientUnits="userSpaceOnUse">
<stop stop-color="#D7B1E3"/>
<stop offset="1" stop-color="#FC0C34"/>
</linearGradient>
<clipPath id="clip0_328_38162">
<rect width="24" height="24" fill="white"/>
</clipPath>
</defs>
</svg>
