<svg width="24" height="24" viewBox="0 0 24 24" fill="none" xmlns="http://www.w3.org/2000/svg">
<g clip-path="url(#clip0_328_38178)">
<path d="M24 0H0V24H24V0Z" fill="white"/>
<path d="M15.501 3.04503L6.27148 12.5715L11.2125 13.4489L8.73748 20.955L17.733 11.64L13.386 10.7625L13.5975 8.80052L15.501 3.04053V3.04503Z" fill="#BAFE00"/>
<path d="M6.3884 12.5354L11.2934 13.4085L8.87689 20.7299L17.6159 11.676L13.3229 10.812L13.5388 8.78699L15.3614 3.2655L6.3884 12.5354ZM15.4559 3L15.5548 3.05851L13.6559 8.81398L13.4534 10.7175L17.8499 11.604L8.78239 21L8.6834 20.9415L11.1359 13.4985L6.1499 12.612L15.4559 3Z" fill="black"/>
<path d="M8.85069 6.86483C8.75168 6.78833 8.51319 6.53633 8.40518 6.42383C8.34669 6.69383 8.22518 7.23383 8.21618 7.24734C8.20719 7.26083 8.12619 7.65233 8.08569 7.84583C8.07219 7.97183 8.07219 8.30483 8.15769 8.62432C8.24768 8.94383 8.47718 9.35783 8.58518 9.52433C8.63919 9.62783 8.75619 9.86183 8.79669 9.96533C8.84169 10.0688 8.84169 10.4378 8.84169 10.6132V11.6393L8.71569 11.8958L8.73819 12.0983C8.73819 12.1838 8.72018 12.3638 8.71569 12.3863C8.71118 12.4087 8.56719 12.6518 8.49519 12.7688L8.40518 13.1513C8.41418 13.2098 8.45019 13.3628 8.49519 13.4933C8.54018 13.6283 8.85069 14.0333 8.99919 14.2268L9.08469 14.4607L9.27818 14.8748L9.59318 15.2482C9.64268 15.3203 9.77317 15.5048 9.84967 15.6623C9.94867 15.8648 10.1017 16.1257 10.2592 16.1843C10.3853 16.2293 10.4662 16.2383 10.4932 16.2293C10.5157 16.2743 10.5698 16.4003 10.6237 16.5443C10.6732 16.6793 10.9072 16.9492 11.0197 17.0618C11.1457 17.1652 11.4067 17.3678 11.4563 17.3678C11.5012 17.3678 11.8343 17.4758 11.9918 17.5253L12.3472 17.5747L12.6892 17.5298L13.1258 17.3678L13.6567 17.0392L13.9537 16.6027L14.1157 16.2877L14.3228 16.1843L14.6063 15.9143L14.7907 15.5993L15.0922 15.2122L15.5737 14.5733L15.6502 14.3573L15.8077 14.0603L16.2172 13.4212L16.2577 13.2053L16.1542 12.7193C16.1002 12.6292 15.9967 12.4493 15.9742 12.4223C15.9331 12.3048 15.9088 12.182 15.9022 12.0578C15.8752 11.8643 15.7987 11.8102 15.7672 11.7428C15.7357 11.6933 15.7088 11.5628 15.6952 11.5088C15.6682 11.2793 15.6187 10.7753 15.6322 10.5998C15.6412 10.4288 15.7492 10.1678 15.7987 10.0598L16.3388 9.04733C16.4197 8.85383 16.5772 8.41733 16.5997 8.21482C16.5992 7.95721 16.5613 7.70103 16.4872 7.45433L16.2352 6.48683C15.9382 6.74334 15.2678 7.29683 14.9707 7.45433C14.5909 7.64918 14.2371 7.89109 13.9177 8.17433C13.7287 8.35433 13.5757 8.58383 13.5217 8.67383C13.4542 8.62883 13.1482 8.52982 12.5002 8.46233C12.0278 8.41163 11.5522 8.52613 11.1547 8.78633L10.9208 8.33633C10.843 8.23081 10.7572 8.13151 10.6643 8.03933L10.1782 7.78733L9.52118 7.38233L8.84618 6.86483H8.85069Z" fill="white"/>
<path d="M10.4698 12.2696L10.2808 12.0806L10.1863 12.1975L10.1638 12.3731C10.1638 12.418 10.1863 12.544 10.2538 12.6881C10.3483 12.859 10.5958 12.8996 10.8703 12.9086C11.0953 12.9086 11.2303 12.8096 11.2663 12.76L11.0098 12.6521C10.9609 12.6212 10.9155 12.5849 10.8748 12.544L10.8118 12.5891C10.7983 12.6025 10.7398 12.6116 10.7128 12.6116L10.5013 12.4765C10.4712 12.4416 10.4469 12.4021 10.4293 12.3596C10.4158 12.319 10.4518 12.283 10.4743 12.2696H10.4698Z" fill="url(#paint0_linear_328_38178)"/>
<path d="M14.0655 12.2515L14.2905 12.0806L14.3805 12.1975L14.403 12.3731C14.403 12.418 14.3805 12.544 14.313 12.6881C14.2185 12.859 13.971 12.8996 13.6964 12.9086C13.4715 12.9086 13.3365 12.8096 13.3005 12.76L13.557 12.634C13.5885 12.6206 13.6649 12.5755 13.692 12.544L13.755 12.5891C13.7685 12.6025 13.8269 12.6116 13.8539 12.6116C13.9214 12.5665 14.0204 12.4765 14.0295 12.4676C14.034 12.4586 14.1015 12.3911 14.1195 12.3416C14.1285 12.3056 14.0834 12.2651 14.0655 12.2515Z" fill="url(#paint1_linear_328_38178)"/>
<path d="M12.252 17.6063C12.1531 17.5992 12.0551 17.5826 11.9595 17.5568L11.982 17.4668C12.0405 17.4848 12.1485 17.5118 12.261 17.5118C12.3734 17.5208 12.486 17.5118 12.576 17.4803L12.612 17.5659C12.5039 17.6108 12.3734 17.6108 12.252 17.6063Z" fill="black"/>
<path d="M11.5274 15.9234C11.5724 15.9504 11.7209 16.0134 11.8921 16.0269C12.1126 16.0449 12.3961 16.0269 12.4814 15.9819C12.5489 15.9549 12.6166 15.9053 12.6389 15.8828V15.7704C12.6166 15.7523 12.5266 15.7253 12.3734 15.7253C12.1867 15.7225 12.0007 15.753 11.8244 15.8153C11.7333 15.8414 11.6432 15.8713 11.5544 15.9053L11.5274 15.9234ZM11.5049 16.0043C11.5229 16.0134 11.6894 16.0809 11.7884 16.0854H12.5084L12.6526 16.0764C12.6841 16.0673 12.7426 16.0494 12.7426 16.0403C12.7289 16.0313 12.7379 15.8964 12.8639 15.8828C12.9676 15.8694 13.0754 15.9594 13.1159 16.0043L13.0936 16.1888C12.8774 16.2518 12.4409 16.3689 12.4139 16.3689C12.3779 16.3689 11.8064 16.3193 11.7839 16.3059C11.6821 16.2427 11.583 16.1751 11.4871 16.1033L11.5049 16.0043Z" fill="#5A5A5C"/>
<path d="M9.37672 12.279C9.39922 12.3149 9.36772 12.3239 9.3497 12.3239C9.18772 12.3239 8.96272 12.5714 8.96272 13.0889C8.96272 13.4984 9.07521 13.8404 9.13372 13.9574C9.10671 14.0159 9.0752 14.2769 9.06172 14.4029L8.96272 14.2229L8.80522 13.9529C8.70172 13.7999 8.48122 13.4579 8.44072 13.377C8.39572 13.287 8.40472 13.1069 8.41822 13.0169L8.57572 12.6479C8.61172 12.5759 8.71072 12.3959 8.78272 12.243C8.85922 12.0855 9.0662 12.0179 9.1607 11.9999C9.2237 12.0764 9.3587 12.2384 9.37672 12.279ZM15.3122 12.279C15.2897 12.3149 15.3212 12.3239 15.3392 12.3239C15.5057 12.3239 15.7262 12.5714 15.7262 13.0889C15.7262 13.4984 15.6137 13.8404 15.5597 13.9574C15.5822 14.0159 15.6137 14.2769 15.6272 14.4029L15.7262 14.2229L15.8882 13.9529C15.9917 13.7999 16.2077 13.4579 16.2527 13.377C16.2977 13.287 16.2842 13.1069 16.2752 13.0169L16.1177 12.6479L15.9062 12.243C15.8342 12.0855 15.6272 12.0179 15.5327 11.9999C15.4697 12.0764 15.3347 12.2384 15.3122 12.279ZM10.2542 12.0585C10.2632 12.1034 10.2542 12.1845 10.1462 12.2069C10.0112 12.2294 9.72322 12.1979 9.7502 12.2745C9.7772 12.3464 10.0022 12.8234 10.0742 12.8909C10.1462 12.9629 10.2542 13.1159 10.6007 13.1159C10.8752 13.1159 11.1857 12.9944 11.3072 12.9314L11.2037 12.7244C11.2622 12.747 11.4422 12.7964 11.6852 12.7964C11.9327 12.7964 12.0317 12.6749 12.0542 12.6164C12.0655 12.5914 12.0693 12.5638 12.0653 12.5367C12.0613 12.5095 12.0497 12.4841 12.0317 12.4635C11.9732 12.3914 11.8967 12.3464 11.8967 12.2249C11.8967 12.1034 11.9417 11.8829 11.8427 11.7209C11.7392 11.5589 11.4152 11.2169 11.4962 11.1899C11.5772 11.1629 11.6312 11.2574 11.7122 11.3384C11.7932 11.4149 11.9597 11.6354 11.9597 11.6984C11.9642 11.7614 11.8607 12.1485 12.2747 12.1485C12.6077 12.1485 12.6572 11.8874 12.6347 11.7569C12.6662 11.6669 12.7427 11.4689 12.8102 11.3744C12.9002 11.2529 13.0532 11.0909 13.0622 11.1405C13.0712 11.1765 12.9542 11.3295 12.8957 11.397C12.8237 11.5004 12.6752 11.7569 12.6752 11.964C12.6752 12.1754 12.6032 12.3105 12.5672 12.3554C12.5312 12.4005 12.4682 12.5265 12.4682 12.6119C12.4682 12.7019 12.6752 12.7739 12.7832 12.7964H13.2467L13.2962 12.7739C13.2557 12.81 13.1747 12.8864 13.1792 12.909C13.1837 12.9314 13.1432 12.9449 13.2872 12.9854C13.4267 13.0259 13.4807 13.0889 13.6112 13.1159C13.7372 13.1384 13.8362 13.161 13.9577 13.1565C14.0567 13.1474 14.1512 13.125 14.1827 13.1114C14.2277 13.0844 14.3132 13.0124 14.3627 12.9854C14.4077 12.9584 14.6057 12.7244 14.7002 12.6119C14.7002 12.5984 14.7092 12.5625 14.7317 12.5129C14.7587 12.468 14.7947 12.3869 14.8082 12.3554V12.2339C14.7847 12.2463 14.7575 12.2494 14.7317 12.243C14.6987 12.2349 14.6679 12.2195 14.6417 12.1979L14.3627 12.1845L14.2727 12.0944L14.2862 12.0449L14.7137 11.9099L14.3627 12.0719C14.3987 12.0764 14.4977 12.09 14.5787 12.09H14.9792L15.1322 12.0044C15.1322 12.0225 15.1457 12.0719 15.1322 12.1124C15.1142 12.1664 14.9162 12.4499 14.8307 12.5714C14.7497 12.6974 14.5022 12.999 14.4527 13.0394C14.4032 13.0844 14.3627 13.1925 14.3627 13.2195C14.3627 13.2374 14.2817 13.2779 14.2412 13.2914C14.1145 13.3317 13.9826 13.3528 13.8497 13.3544C13.6787 13.3544 13.3547 13.2825 13.2107 13.2419C13.1657 13.2419 13.0667 13.2555 13.0217 13.2914C12.9677 13.3364 12.9227 13.1834 12.7427 13.2014L12.3242 13.2464C12.1991 13.2075 12.0679 13.1922 11.9372 13.2014C11.804 13.2129 11.678 13.2664 11.5772 13.3544C11.5637 13.3185 11.4827 13.2419 11.2937 13.2419C11.0597 13.2419 10.7132 13.3364 10.6007 13.3364C10.4837 13.3364 10.1777 13.2689 10.1507 13.2195C10.1327 13.1744 10.2317 13.1789 10.1012 13.062C9.96621 12.9449 9.60171 12.4769 9.56122 12.3914C9.52972 12.3284 9.36322 12.0764 9.28671 11.964C9.31372 11.9819 9.40822 12.0225 9.56122 12.0585C9.75021 12.1034 9.96621 12.1349 9.99771 12.117C10.0247 12.1034 10.1552 12.0359 10.1012 11.9999L10.0742 11.991C10.0837 11.9925 10.0928 11.9955 10.1012 11.9999L10.2542 12.0585Z" fill="#C0C4CA"/>
<path d="M11.5231 13.6244C11.5244 13.6221 11.5262 13.6202 11.5285 13.6186C11.5305 13.6173 11.533 13.6163 11.5356 13.6158C11.5381 13.6154 11.5407 13.6155 11.5432 13.6163C11.5457 13.617 11.5482 13.6182 11.5501 13.6199L11.7301 13.7414L11.7346 13.7459C11.7581 13.8129 11.7806 13.8804 11.8021 13.9484L11.8246 13.9844L11.8741 14.0519V14.0789C11.8722 14.0816 11.8696 14.0835 11.8664 14.0847C11.8636 14.0861 11.8601 14.0865 11.857 14.0861C11.8538 14.0856 11.8507 14.0843 11.8481 14.0821C11.8456 14.0802 11.8437 14.0775 11.8426 14.0744C11.8097 14.0298 11.7797 13.9831 11.7526 13.9349L11.7031 13.7639L11.5231 13.6514C11.5212 13.6497 11.5197 13.6476 11.5186 13.6453C11.5177 13.6429 11.517 13.6405 11.517 13.6379C11.517 13.6353 11.5177 13.6328 11.5186 13.6305C11.5197 13.6281 11.5212 13.6261 11.5231 13.6244ZM11.5276 14.1914C11.5293 14.1895 11.5313 14.1879 11.5336 14.1869C11.536 14.1859 11.5386 14.1853 11.5411 14.1853C11.5437 14.1853 11.5461 14.1859 11.5485 14.1869C11.5509 14.1879 11.5529 14.1895 11.5546 14.1914C11.6062 14.2301 11.6587 14.2675 11.7121 14.3039C11.7256 14.3129 11.7346 14.3129 11.7436 14.3129H11.7526C11.7629 14.3141 11.7724 14.3188 11.7796 14.3264L11.7886 14.3579C11.7886 14.3804 11.7886 14.3984 11.7796 14.4119V14.4254L11.8156 14.4614C11.8673 14.5182 11.9155 14.5784 11.9596 14.6414C11.9641 14.6549 11.9641 14.6639 11.9551 14.6729C11.9532 14.6745 11.9508 14.6757 11.9483 14.6765C11.9457 14.677 11.9431 14.6773 11.9406 14.6768C11.938 14.6764 11.9356 14.6755 11.9335 14.6739C11.9312 14.6724 11.9294 14.6706 11.9281 14.6684C11.8673 14.5886 11.8043 14.5105 11.7391 14.4344V14.4029L11.7436 14.3939C11.7481 14.3849 11.7526 14.3759 11.7481 14.3624V14.3534H11.7391C11.7301 14.3534 11.7121 14.3534 11.6941 14.3399L11.6131 14.2859L11.5321 14.2184C11.5303 14.2167 11.5286 14.2146 11.5276 14.2123C11.5266 14.2099 11.526 14.2075 11.526 14.2049C11.526 14.2023 11.5266 14.1998 11.5276 14.1975C11.5286 14.1951 11.5303 14.1931 11.5321 14.1914H11.5276ZM11.5591 14.4569C11.5636 14.4569 11.6041 14.4569 11.6221 14.5289C11.6221 14.5379 11.6356 14.5469 11.6446 14.5424C11.6536 14.5424 11.6626 14.5289 11.6581 14.5199C11.6356 14.4299 11.5816 14.4119 11.5501 14.4164C11.5447 14.4175 11.5401 14.4209 11.5371 14.4254C11.5342 14.4301 11.5331 14.4357 11.5343 14.4411C11.5356 14.4465 11.5388 14.4511 11.5434 14.4541C11.5482 14.457 11.5537 14.4581 11.5591 14.4569ZM10.4026 12.3689C10.3801 12.3194 10.4341 12.2564 10.4611 12.2339C10.5016 12.2609 10.5781 12.3194 10.5691 12.3239L10.5016 12.3329C10.4926 12.3329 10.4611 12.3689 10.4566 12.3779C10.4476 12.3869 10.4926 12.4184 10.5016 12.4364C10.5151 12.4544 10.5646 12.4724 10.5916 12.4724C10.6231 12.4724 10.6411 12.4409 10.6411 12.4184L10.6501 12.3779L10.7446 12.4499C10.7446 12.4589 10.7311 12.4724 10.6996 12.4724C10.6546 12.4724 10.6816 12.5264 10.6861 12.5714C10.6906 12.6209 10.7446 12.5804 10.7761 12.5399C10.8031 12.5084 10.7941 12.4859 10.7806 12.4769V12.4724L10.8796 12.5534C10.8796 12.5669 10.8571 12.5984 10.7761 12.6209C10.6996 12.6434 10.6681 12.6299 10.6681 12.6209C10.5665 12.5502 10.4756 12.4654 10.3981 12.3689H10.4026ZM14.1241 12.3689C14.1421 12.3194 14.0926 12.2564 14.0611 12.2339C14.0251 12.2609 13.9486 12.3194 13.9531 12.3239L14.0206 12.3329C14.0296 12.3329 14.0656 12.3689 14.0701 12.3779C14.0791 12.3869 14.0341 12.4184 14.0251 12.4364C14.0116 12.4544 13.9576 12.4724 13.9306 12.4724C13.9036 12.4724 13.8856 12.4409 13.8856 12.4184C13.8846 12.4044 13.8815 12.3908 13.8766 12.3779L13.7821 12.4499C13.7821 12.4589 13.7956 12.4724 13.8271 12.4724C13.8721 12.4724 13.8451 12.5264 13.8361 12.5714C13.8361 12.6209 13.7821 12.5804 13.7461 12.5399C13.7236 12.5084 13.7326 12.4859 13.7461 12.4769V12.4724L13.6426 12.5534C13.6426 12.5669 13.6696 12.5984 13.7461 12.6209C13.8271 12.6434 13.8541 12.6299 13.8586 12.6209C13.9396 12.5579 14.1016 12.4229 14.1241 12.3689Z" fill="black"/>
<path d="M16.0865 7.53174L15.8164 9.55674L15.3754 9.10673L15.3214 9.80426L15.1864 9.85826H15.0829L14.6194 9.43974L14.4304 9.30474L14.5474 9.06174L14.7005 8.93574L14.5745 8.91324L15.0019 8.62074L14.7005 8.57574L15.0829 7.97274L15.4069 8.28774L16.0865 7.53174ZM8.63892 7.53174L8.9089 9.55674L9.3499 9.10673L9.4039 9.80426L9.5389 9.85826H9.6424L10.1059 9.43974L10.2994 9.30474L10.1779 9.06174L10.0294 8.93574L10.1509 8.91324L9.72342 8.62074L10.0294 8.57574L9.6424 7.97274L9.32292 8.28774L8.63892 7.53174Z" fill="url(#paint2_linear_328_38178)"/>
<path fill-rule="evenodd" clip-rule="evenodd" d="M8.4628 6.38327L8.4178 6.27979L8.0803 7.66127C7.99659 8.11814 8.05633 8.58971 8.2513 9.01127C8.3548 9.22727 8.4538 9.38927 8.53029 9.52876C8.5753 9.59627 8.6113 9.66376 8.6428 9.72227C8.7328 9.89775 8.79129 10.0508 8.79129 10.3028V11.6393C8.7688 11.6799 8.7373 11.7429 8.7148 11.8103C8.68824 11.8806 8.68049 11.9566 8.6923 12.0308C8.7238 12.1613 8.69679 12.3638 8.5888 12.5304C8.46729 12.7103 8.37279 12.9173 8.37279 13.1693C8.37279 13.2728 8.4088 13.3853 8.4538 13.4843C8.49879 13.5878 8.55279 13.6733 8.5888 13.7274L9.0073 14.3214C9.0208 14.3933 9.0523 14.5104 9.09729 14.6273C9.14229 14.7488 9.2098 14.8748 9.29529 14.9559C9.49656 15.1644 9.66908 15.399 9.80834 15.6533L9.82634 15.6938C9.87134 15.7838 9.92984 15.9279 10.0243 16.0493C10.1323 16.1844 10.2808 16.2923 10.4968 16.2789C10.5855 16.6084 10.7695 16.9045 11.0256 17.1303C11.2816 17.3558 11.5987 17.5012 11.9368 17.5478H11.9458C11.9908 17.5433 12.0628 17.5253 12.1258 17.4848C12.1933 17.4398 12.2518 17.3768 12.2743 17.2733V17.2688L12.2787 17.2598L12.2833 17.2823C12.2968 17.3363 12.3193 17.3903 12.3508 17.4308C12.4318 17.5208 12.5398 17.5568 12.6658 17.5523C12.7827 17.5523 12.9133 17.5074 13.0393 17.4398C13.0977 17.4038 13.1563 17.3768 13.2193 17.3499L13.2373 17.3363L13.3903 17.2598C13.5028 17.1968 13.6153 17.1248 13.7188 17.0123C13.894 16.8157 14.0287 16.5863 14.1148 16.3373C14.2498 16.3104 14.5018 16.1708 14.7178 15.8064C14.8528 15.5678 14.9653 15.4328 15.0688 15.3113L15.1003 15.2753C15.1903 15.1673 15.2757 15.0683 15.3702 14.9153C15.4602 14.8254 15.6583 14.5823 15.7167 14.2763C15.8203 14.1503 15.9642 13.9523 16.0858 13.7498C16.1488 13.6508 16.2028 13.5473 16.2433 13.4528C16.2792 13.3628 16.3018 13.2728 16.2973 13.2008C16.2861 12.9509 16.2015 12.7099 16.0543 12.5078C16.0151 12.4547 15.9889 12.3929 15.9778 12.3278C15.9657 12.2747 15.9597 12.2203 15.9598 12.1658V12.1613C15.9553 12.1164 15.9418 12.0353 15.9148 11.9589C15.8955 11.8784 15.862 11.8023 15.8158 11.7338C15.802 11.7128 15.7914 11.6902 15.7843 11.6663C15.7453 11.5184 15.7167 11.3681 15.6988 11.2163C15.6712 10.9954 15.6622 10.7727 15.6718 10.5503C15.6852 10.3973 15.7618 10.2128 15.8608 10.0238C15.9238 9.89775 15.9957 9.78075 16.0587 9.67276L16.1443 9.52427C16.2207 9.39376 16.3603 9.11926 16.4727 8.82227C16.5268 8.67377 16.5763 8.52076 16.6078 8.37226C16.6393 8.22377 16.6528 8.08427 16.6348 7.96727C16.5763 7.60277 16.3693 6.81529 16.2748 6.46427L16.2568 6.40579L16.2118 6.45077C16.0678 6.57677 15.8293 6.78378 15.5907 6.97277C15.3523 7.16177 15.1137 7.33727 14.9607 7.40927C14.7583 7.50377 14.4748 7.66577 14.1958 7.87729C13.9192 8.07979 13.6841 8.33335 13.5028 8.62426C13.1218 8.48681 12.7198 8.41677 12.3148 8.41727C11.7883 8.41727 11.3518 8.60176 11.1583 8.71876C11.1026 8.56971 11.0269 8.42893 10.9333 8.30027C10.8152 8.12057 10.648 7.97846 10.4517 7.89077C10.2313 7.80527 9.77684 7.53076 9.35829 7.22027C9.15809 7.07787 8.9658 6.92465 8.78229 6.76127C8.6562 6.65447 8.54962 6.52658 8.46729 6.38327H8.4628ZM12.3463 16.9043C12.4003 16.8863 12.4858 16.8459 12.5848 16.7558L12.7468 16.6298C12.9313 16.4858 13.1607 16.3104 13.2058 16.1348L13.2328 16.0088C13.3318 15.9458 13.4938 15.7478 13.3093 15.4643C13.3182 15.5814 13.3093 15.8288 13.2058 15.8694C13.1338 15.7478 12.8548 15.5093 12.3058 15.5093C11.7523 15.5093 11.4958 15.7478 11.4418 15.8694C11.3698 15.8694 11.2438 15.7973 11.3068 15.4643C11.0908 15.7343 11.2707 15.9413 11.3833 16.0088C11.3833 16.0808 11.4282 16.2518 11.5768 16.3598C11.6353 16.4049 11.6983 16.4679 11.7658 16.5398C11.9053 16.6748 12.0718 16.8413 12.2653 16.8998C12.2472 17.0123 12.2248 17.1473 12.1978 17.2598C12.1903 17.2922 12.1766 17.3228 12.1573 17.3496C12.138 17.3768 12.1135 17.3997 12.0853 17.4173C12.0429 17.4438 11.9953 17.4607 11.9458 17.4668C11.6185 17.4213 11.3122 17.2793 11.0662 17.0588C10.82 16.8384 10.6453 16.5495 10.5643 16.2293L10.5553 16.1978C10.5153 16.0175 10.4941 15.8335 10.4923 15.6489C10.4923 15.3698 10.4968 14.6724 10.3663 14.4923L10.3438 14.6003L10.2943 14.5598C10.3258 14.6138 10.3843 14.7624 10.3843 14.9514L10.1188 14.5598C10.0352 14.4305 9.93377 14.3138 9.81734 14.2133H9.79484C9.7138 14.2133 9.4708 14.2043 9.39429 14.3348C9.4078 14.3393 9.4483 14.3438 9.52029 14.3123L9.59229 14.2808C9.64629 14.2538 9.6823 14.2358 9.66879 14.2673C9.6508 14.3123 9.60579 14.5598 9.66879 14.7173L9.88484 15.1853L10.2628 15.7928L10.3843 15.9368L10.4248 16.2023C10.3576 16.1939 10.2928 16.1715 10.2346 16.1368C10.1765 16.1018 10.1264 16.0552 10.0873 15.9998C9.99734 15.8873 9.94334 15.7568 9.89834 15.6623L9.88034 15.6174C9.73649 15.3546 9.55788 15.1122 9.34929 14.8973C9.27729 14.8299 9.2188 14.7173 9.16929 14.6003C9.13842 14.5195 9.11286 14.4368 9.0928 14.3529C9.08829 14.2269 9.1153 14.0333 9.1333 13.9343L9.0208 14.2043L8.6518 13.6823C8.6203 13.6373 8.5663 13.5473 8.5258 13.4573C8.4808 13.3583 8.4493 13.2549 8.4493 13.1693C8.4493 12.9354 8.53929 12.7464 8.6518 12.5753C8.7778 12.3908 8.80479 12.1658 8.7688 12.0128C8.76081 11.9519 8.76855 11.8898 8.79129 11.8329C8.81379 11.7653 8.8408 11.7023 8.8633 11.6663L8.86779 11.6573V11.2344C8.97129 11.0993 9.09729 10.7934 9.15129 10.6493L8.86779 11.0408V10.3028C8.86779 10.0373 8.8093 9.87075 8.71029 9.68626C8.67879 9.61877 8.6383 9.55126 8.5978 9.48376C8.5168 9.34876 8.42679 9.19126 8.3233 8.97527C8.13619 8.57057 8.07806 8.11813 8.1568 7.67927L8.44479 6.50477C8.50779 6.59478 8.6068 6.70277 8.72829 6.81977C8.8948 6.96827 9.09729 7.13027 9.3133 7.28327C9.65855 7.54867 10.0312 7.77646 10.4248 7.96277C10.5958 8.02576 10.7488 8.17877 10.8658 8.34527C10.9872 8.51177 11.0683 8.68726 11.0953 8.79527L11.1088 8.84476L11.1538 8.81326C11.5049 8.60484 11.9063 8.49595 12.3148 8.49826C12.8728 8.49826 13.3408 8.63777 13.5028 8.70976L13.5387 8.72327L13.5568 8.69177C13.7337 8.39774 13.9679 8.14219 14.2453 7.94026C14.5152 7.73327 14.7943 7.57577 14.9922 7.48127C15.2224 7.35272 15.4394 7.202 15.6403 7.03127C15.8563 6.86027 16.0678 6.68028 16.2162 6.54977C16.3152 6.92327 16.5042 7.63877 16.5538 7.97627C16.5718 8.08427 16.5627 8.21476 16.5312 8.35427C16.4997 8.49826 16.4503 8.65127 16.3963 8.79527C16.2837 9.08776 16.1488 9.35777 16.0768 9.48827L15.9913 9.63226C15.9283 9.74026 15.8563 9.86175 15.7933 9.98775C15.6943 10.1768 15.6088 10.3748 15.5953 10.5459C15.5866 10.6806 15.5866 10.8159 15.5953 10.9509L15.3793 10.6493C15.4243 10.7753 15.5232 11.0093 15.6133 11.1623C15.6286 11.2966 15.6498 11.4302 15.6763 11.5628L15.7122 11.6933C15.7213 11.7248 15.7393 11.7563 15.7573 11.7833C15.7933 11.8283 15.8203 11.9048 15.8427 11.9768L15.8788 12.1658C15.8788 12.2109 15.8788 12.2739 15.8968 12.3458C15.9148 12.4178 15.9418 12.4989 15.9957 12.5574C16.0993 12.6834 16.1892 12.9039 16.2207 13.2098C16.2207 13.2593 16.2028 13.3313 16.1668 13.4213C16.1308 13.5113 16.0768 13.6103 16.0183 13.7093C15.9057 13.8983 15.7708 14.0873 15.6718 14.2088L15.5592 13.9388C15.5913 14.0972 15.602 14.259 15.5907 14.4204L15.6043 14.3933C15.5277 14.6183 15.3793 14.7939 15.3118 14.8614H15.3072L15.3027 14.8703C15.2127 15.0189 15.1273 15.1178 15.0373 15.2258L15.0192 15.2438L15.0103 15.2618C14.9068 15.3833 14.7898 15.5229 14.6503 15.7658C14.4882 16.0403 14.3038 16.1708 14.1823 16.2293L14.2273 15.9368L14.3488 15.7928L14.7268 15.1853L14.9428 14.7173C15.0058 14.5598 14.9607 14.3123 14.9428 14.2673C14.9292 14.2358 14.9653 14.2538 15.0192 14.2808L15.0913 14.3123C15.1633 14.3438 15.2038 14.3393 15.2173 14.3348C15.1408 14.2043 14.9023 14.2088 14.8123 14.2133H14.7943C14.6778 14.3138 14.5763 14.4305 14.4928 14.5598L14.2273 14.9514C14.2273 14.7624 14.2903 14.6138 14.3173 14.5598L14.2677 14.6003L14.2498 14.4923C14.1148 14.6724 14.1193 15.3698 14.1193 15.6489V15.7163C14.1193 15.8783 14.0608 16.2068 14.0338 16.3104H14.0427L14.0112 16.3913C13.9201 16.5951 13.8021 16.7857 13.6603 16.9583C13.5613 17.0664 13.4578 17.1338 13.3497 17.1924L13.1788 17.2778C13.1179 17.306 13.0578 17.336 12.9988 17.3678C12.8818 17.4353 12.7648 17.4713 12.6613 17.4759C12.6153 17.479 12.5691 17.4718 12.5262 17.4546C12.4832 17.4375 12.4449 17.4107 12.4138 17.3768C12.3873 17.344 12.3687 17.3054 12.3598 17.2643C12.3422 17.1451 12.3377 17.0244 12.3463 16.9043ZM9.3448 8.20577L8.5798 7.34176L8.9038 9.62777L9.30879 9.21376L9.3763 9.78525C9.29529 9.74026 9.2593 9.69526 9.24579 9.65927C9.23229 9.80775 9.2908 10.1183 9.61479 10.1994C9.44379 10.1453 9.37179 9.94736 9.35829 9.85275C9.57429 9.97886 9.80834 9.90675 9.89834 9.85275C9.83084 9.85725 9.77233 9.86175 9.71829 9.85725L9.79484 9.76725C9.83984 9.72227 9.89834 9.67726 9.96134 9.62326C10.0783 9.53327 10.2043 9.43426 10.2943 9.37577L10.3393 9.48376L10.3258 9.35327L10.3303 9.33527C10.337 9.23769 10.3064 9.14123 10.2448 9.06526L10.1458 8.96176L10.1638 8.95727C10.2493 8.94377 10.3663 8.93926 10.4788 8.97527C10.3974 8.90574 10.2932 8.86886 10.1863 8.87177L9.86234 8.64676L9.96584 8.62426C10.0791 8.60828 10.1941 8.60677 10.3078 8.61977C10.2264 8.56709 10.1301 8.54186 10.0333 8.54777L9.63279 7.91777L9.3448 8.20577ZM9.63279 9.85275C9.6508 9.80775 9.6913 9.76275 9.74079 9.71776C9.90351 9.5726 10.0748 9.43736 10.2538 9.31277C10.2533 9.24046 10.2277 9.17055 10.1818 9.11477C10.1368 9.05177 10.0783 9.00677 10.0378 8.97977L9.97033 8.93477H9.97934C10.01 8.91519 10.0433 8.90005 10.0783 8.88977L9.66429 8.60177L9.70929 8.59276C9.76334 8.57927 9.83984 8.56126 9.92084 8.55677L9.94334 8.55227L9.6193 8.04377L9.34029 8.31826L8.69679 7.59376L8.96229 9.45676L9.37179 9.03827L9.45729 9.80325H9.42579C9.4798 9.82575 9.54729 9.84825 9.63279 9.85275ZM15.3793 8.20577L16.1398 7.34176L15.8158 9.62777L15.4108 9.21376L15.3478 9.78525C15.4243 9.74026 15.4647 9.69526 15.4738 9.65927C15.4873 9.80775 15.4332 10.1183 15.1048 10.1994C15.2803 10.1453 15.3523 9.94736 15.3657 9.85275C15.1452 9.97886 14.9158 9.90675 14.8258 9.85275C14.8888 9.85725 14.9518 9.86175 15.0058 9.85725L14.9247 9.76725C14.8798 9.72227 14.8213 9.67726 14.7583 9.62326C14.6457 9.53327 14.5152 9.43426 14.4252 9.37577L14.3803 9.48376L14.3937 9.35327V9.33527C14.3854 9.23824 14.4144 9.14167 14.4748 9.06526L14.5782 8.96176L14.5558 8.95727C14.4508 8.93976 14.3431 8.94591 14.2408 8.97527C14.3222 8.90574 14.4262 8.86886 14.5333 8.87177L14.8573 8.64676L14.7538 8.62426C14.6418 8.60865 14.5285 8.60715 14.4163 8.61977C14.4837 8.56577 14.5827 8.54777 14.6863 8.54777L15.0913 7.91777L15.3793 8.20577ZM15.0913 9.85275C15.0733 9.80775 15.0328 9.76275 14.9833 9.71776C14.8205 9.57261 14.6492 9.43738 14.4703 9.31277C14.4703 9.24077 14.4973 9.17327 14.5423 9.11477C14.5873 9.05177 14.6457 9.00677 14.6818 8.97977L14.7538 8.93477H14.7402C14.711 8.91551 14.6792 8.90037 14.6457 8.88977L15.0552 8.60177L15.0148 8.59276C14.9607 8.57927 14.8798 8.56126 14.8032 8.55677L14.7808 8.55227L15.1003 8.04377L15.3838 8.31826L16.0228 7.59376L15.7618 9.45676L15.3478 9.03827L15.2668 9.80325H15.2983C15.2397 9.82575 15.1723 9.84825 15.0913 9.85275ZM10.6948 8.37677L10.7083 8.39027C10.7042 8.38546 10.6997 8.38095 10.6948 8.37677ZM10.7083 8.39027L10.9963 8.71876L10.8658 8.80877C10.9108 8.72327 10.9468 8.61077 10.6948 8.80877C10.7308 8.70527 10.7848 8.49377 10.7083 8.39027ZM13.9482 8.39027L13.9573 8.37677C13.9524 8.38095 13.9479 8.38546 13.9438 8.39027H13.9482ZM13.9482 8.39027C13.8673 8.48926 13.9213 8.70527 13.9573 8.80426C13.7053 8.61077 13.7368 8.72327 13.7863 8.80426L13.6513 8.71427L13.9438 8.39027H13.9482ZM9.2728 13.4258C9.2728 13.5473 9.31779 13.8128 9.5113 13.9164C9.5563 13.8804 9.64629 13.7948 9.67329 13.7229C9.6508 13.7859 9.60129 13.9208 9.53829 13.9883C9.52929 14.0064 9.5113 14.0243 9.4933 14.0424C9.42129 14.1233 9.3358 14.2133 9.32679 14.2808C9.31879 14.2237 9.32578 14.1653 9.34707 14.1118C9.36838 14.0581 9.40327 14.0109 9.4483 13.9749C9.36197 13.916 9.29781 13.8301 9.26601 13.7305C9.2342 13.6311 9.23659 13.5237 9.2728 13.4258ZM9.67779 13.7138L9.67329 13.7229V13.7138H9.67779ZM15.0598 13.9164C15.2533 13.8128 15.2983 13.5473 15.2983 13.4213C15.3433 13.5339 15.3657 13.7993 15.1182 13.9749C15.2533 14.0828 15.2578 14.2269 15.2442 14.2808C15.2353 14.2133 15.1543 14.1233 15.0778 14.0424L15.0283 13.9883C14.9698 13.9062 14.9257 13.815 14.8977 13.7183C14.9203 13.7948 15.0148 13.8804 15.0598 13.9164ZM14.8977 13.7229V13.7138V13.7183V13.7229ZM9.74979 14.7398C9.74979 14.7488 9.75434 14.7624 9.76784 14.7624C9.78584 14.7624 9.79934 14.7533 9.80834 14.7488V14.4653C9.81734 14.4383 9.82634 14.3889 9.80834 14.3844C9.78584 14.3753 9.71829 14.4113 9.71829 14.5058C9.71829 14.5868 9.73629 14.6948 9.74979 14.7398ZM9.88034 14.4204C9.89384 14.4204 9.92534 14.4338 9.92984 14.4519L9.92084 14.5058V14.7083L9.95234 14.5058L10.1593 14.8478C10.1072 14.8865 10.0495 14.9168 9.98834 14.9378C9.89834 14.9603 9.89384 14.9244 9.88934 14.9108L9.88034 14.4159V14.4204ZM9.83534 15.0278L9.77234 14.8299C9.77234 14.8208 9.77684 14.8073 9.79484 14.7984C9.82184 14.7848 9.83084 14.8118 9.83984 14.8254L9.85334 15.0053C9.86684 15.0053 9.88934 15.0144 9.89834 15.0323C9.91184 15.0504 9.89834 15.1043 9.88484 15.1313L9.83984 15.0278H9.83534ZM9.89834 15.1538C9.90734 15.1178 9.93434 15.0323 9.95684 15.0189L9.98384 15.0053C10.0108 14.9918 10.0378 14.9783 10.0603 14.9783C10.0873 14.9783 10.0828 15.0189 10.0783 15.0368V15.1988L10.1008 15.2483C10.0945 15.2533 10.0872 15.2567 10.0793 15.2584C10.0716 15.2598 10.0635 15.2595 10.0558 15.2573C10.0423 15.2573 10.0288 15.2438 10.0198 15.2349C9.99734 15.2168 9.97484 15.1988 9.95684 15.1988L9.99284 15.0819L9.92984 15.1988L9.89834 15.1538ZM10.1098 15.1719L10.1233 14.9693L10.2043 14.9153L10.3123 15.0863L10.2043 15.1853L10.3258 15.1223L10.3843 15.2034C10.3393 15.2258 10.1818 15.2258 10.1458 15.2168C10.1188 15.2168 10.1098 15.1853 10.1098 15.1719ZM10.1998 15.3609L10.0783 15.4418C10.0687 15.4159 10.064 15.3884 10.0648 15.3609V15.3383C10.0603 15.3113 10.0603 15.2933 10.1188 15.2933C10.1908 15.2933 10.2943 15.2933 10.3033 15.3113C10.3123 15.3294 10.2943 15.4284 10.2853 15.4733C10.2763 15.5318 10.2448 15.6398 10.2223 15.6353C10.179 15.5915 10.1426 15.5414 10.1143 15.4869C10.1008 15.4823 10.0873 15.4733 10.1143 15.4508C10.1368 15.4328 10.1773 15.3833 10.1953 15.3609H10.1998ZM10.3843 15.7749L10.3887 15.2843C10.3753 15.3113 10.3483 15.3654 10.3438 15.4013C10.3303 15.4373 10.3438 15.5588 10.3438 15.6174L10.3123 15.5633L10.2853 15.7028C10.2808 15.7613 10.3438 15.8379 10.3528 15.8379V15.7523L10.3843 15.7749ZM14.8393 14.7624C14.8573 14.7624 14.8617 14.7488 14.8617 14.7398C14.8753 14.6948 14.8932 14.5868 14.8932 14.5058C14.8932 14.4113 14.8258 14.3753 14.8032 14.3844C14.7853 14.3889 14.7943 14.4383 14.8032 14.4608V14.7488C14.8123 14.7488 14.8258 14.7624 14.8438 14.7624H14.8393ZM14.6818 14.4519C14.6818 14.4338 14.7178 14.4248 14.7313 14.4204L14.7223 14.9108C14.7223 14.9244 14.7133 14.9559 14.6233 14.9333C14.5622 14.9137 14.5045 14.8849 14.4522 14.8478L14.6593 14.5058L14.6908 14.7083V14.5058C14.6837 14.4887 14.6806 14.4702 14.6818 14.4519ZM14.8393 14.8299L14.7763 15.0278L14.7268 15.1313C14.7178 15.1089 14.6998 15.0504 14.7133 15.0323C14.7238 15.0166 14.7399 15.0054 14.7583 15.0008C14.7583 14.9514 14.7717 14.8433 14.7763 14.8299C14.7808 14.8118 14.7943 14.7848 14.8168 14.7984C14.8347 14.8073 14.8393 14.8208 14.8393 14.8299ZM14.6548 15.0189C14.6772 15.0323 14.7042 15.1178 14.7133 15.1538L14.6818 15.1988L14.6188 15.0819L14.6548 15.1988C14.6323 15.1988 14.6097 15.2168 14.5963 15.2349L14.5603 15.2573C14.5378 15.2664 14.5152 15.2573 14.5108 15.2483L14.5333 15.2034V15.0368C14.5288 15.0189 14.5243 14.9783 14.5512 14.9783C14.5738 14.9783 14.6008 14.9918 14.6278 15.0053L14.6548 15.0189ZM14.4882 14.9693L14.5018 15.1719C14.5018 15.1853 14.4928 15.2168 14.4658 15.2168C14.4298 15.2258 14.2723 15.2258 14.2273 15.2034L14.2858 15.1223L14.4073 15.1853L14.2993 15.0863L14.4073 14.9153L14.4882 14.9693ZM14.5333 15.4418L14.4163 15.3609C14.4343 15.3833 14.4748 15.4328 14.5018 15.4508C14.5243 15.4733 14.5108 15.4823 14.5018 15.4869C14.4703 15.5318 14.4118 15.6263 14.3892 15.6353C14.3668 15.6398 14.3353 15.5318 14.3262 15.4733C14.3173 15.4284 14.2993 15.3294 14.3083 15.3113C14.3173 15.2933 14.4252 15.2933 14.4928 15.2979C14.5512 15.2979 14.5512 15.3113 14.5512 15.3428V15.3609C14.5512 15.3969 14.5378 15.4284 14.5333 15.4418ZM14.2183 15.2843L14.2273 15.7793L14.2632 15.7523V15.8379C14.2632 15.8379 14.3307 15.7613 14.3262 15.7028L14.2993 15.5633L14.2677 15.6174C14.2677 15.5588 14.2813 15.4373 14.2677 15.4013C14.2677 15.3654 14.2362 15.3113 14.2228 15.2843H14.2183ZM11.5498 16.0943L11.5363 16.0224L11.5138 15.9773L11.5723 15.9458C11.6038 15.8423 11.7973 15.6308 12.2923 15.6308C12.7873 15.6308 13.0123 15.8423 13.0708 15.9458L13.0798 15.9818L13.1023 16.0493C13.0303 16.0943 12.7648 16.1978 12.2923 16.1978C11.8153 16.1978 11.5993 16.1258 11.5498 16.0943ZM8.8948 12.1028C8.93979 12.0668 9.0523 11.9993 9.16029 12.0128L8.9353 11.9093L8.89029 12.1028H8.8948ZM15.5323 12.0128C15.6403 11.9993 15.7573 12.0668 15.8023 12.1028L15.7573 11.9093L15.5323 12.0083V12.0128ZM11.5723 11.2433C11.5708 11.2404 11.5684 11.2381 11.5657 11.2365C11.5629 11.2348 11.5597 11.234 11.5566 11.234C11.5533 11.234 11.5502 11.2348 11.5475 11.2365C11.5445 11.2381 11.5424 11.2404 11.5408 11.2433C11.5382 11.2465 11.5368 11.2505 11.5368 11.2546C11.5368 11.2586 11.5382 11.2625 11.5408 11.2659C11.6542 11.423 11.7652 11.5821 11.8738 11.7429C11.8684 11.8956 11.8656 12.0486 11.8648 12.2018C11.8738 12.2918 11.9098 12.3729 11.9773 12.4403C12.0043 12.4718 12.0223 12.4944 12.0313 12.5213C12.0358 12.5483 12.0358 12.5798 12.0267 12.6293C12.0194 12.6547 12.0035 12.6771 11.9818 12.6923C11.9507 12.7159 11.9156 12.7342 11.8783 12.7464C11.7973 12.7733 11.6848 12.7913 11.5678 12.7779L11.2978 12.7509C11.2499 12.7448 11.203 12.7328 11.1583 12.7149L11.0773 12.6698C10.9833 12.6093 10.8932 12.5432 10.8073 12.4718C10.6299 12.3323 10.4514 12.1943 10.2718 12.0579C10.2358 12.0398 10.1368 11.9949 10.0468 11.9678C9.97484 11.9453 9.80384 11.8778 9.7228 11.8418C9.7138 11.8418 9.70479 11.8418 9.70029 11.8553C9.69579 11.8644 9.7003 11.8733 9.70929 11.8778C9.87426 11.95 10.0424 12.0144 10.2133 12.0713C10.1998 12.0849 10.1773 12.0938 10.1503 12.1073C10.1123 12.1184 10.0725 12.1214 10.0333 12.1164C9.98969 12.1151 9.94615 12.1121 9.90284 12.1073L9.85784 12.1028C9.76682 12.0907 9.6751 12.0846 9.58329 12.0849L9.47529 12.0803L9.45279 12.0668C9.42118 12.0399 9.39252 12.0097 9.3673 11.9768L9.3358 12.0038C9.36388 12.0385 9.39555 12.0701 9.4303 12.0983C9.44379 12.1073 9.45279 12.1164 9.46629 12.1164C9.51643 12.1833 9.56593 12.2508 9.61479 12.3188V12.3233H9.6193C9.64646 12.4649 9.70344 12.5991 9.78651 12.7171C9.86954 12.835 9.97664 12.9339 10.1008 13.0073C10.1908 13.0748 10.2628 13.1153 10.3348 13.1423C10.4068 13.1648 10.4698 13.1738 10.5508 13.1738C10.7727 13.1636 10.9914 13.1181 11.1988 13.0388C11.2466 13.0193 11.2933 12.9968 11.3383 12.9714C11.3483 12.9652 11.3575 12.9575 11.3652 12.9488L11.3743 12.9399L11.2843 12.7958L11.2888 12.7868H11.2978L11.4778 12.8094C11.5349 12.8122 11.5918 12.8151 11.6487 12.8183C11.6783 12.8891 11.7328 12.9467 11.8018 12.9803C11.8513 13.0029 11.8918 13.0299 11.9188 13.0568C11.9503 13.0793 11.9773 13.1018 12.0088 13.1108C12.0358 13.1153 12.0763 13.1378 12.1258 13.1559L12.2518 13.2234C12.2608 13.2278 12.2743 13.2234 12.2787 13.2143C12.2803 13.212 12.2812 13.2094 12.2816 13.2066C12.282 13.2039 12.2818 13.2012 12.281 13.1985C12.28 13.1959 12.2785 13.1937 12.2766 13.1915C12.2748 13.1897 12.2723 13.1882 12.2698 13.1874C12.163 13.128 12.0534 13.074 11.9413 13.0253C11.9042 12.9935 11.8634 12.9663 11.8198 12.9443C11.7652 12.9171 11.7208 12.8729 11.6938 12.8183C11.7658 12.8183 11.8377 12.8003 11.8918 12.7824C11.9368 12.7643 11.9773 12.7464 12.0043 12.7194C12.0321 12.6993 12.0525 12.6709 12.0628 12.6383C12.0763 12.5843 12.0808 12.5483 12.0673 12.5123C12.0546 12.4747 12.0329 12.4408 12.0043 12.4133C11.9477 12.3563 11.9129 12.2816 11.9053 12.2018V12.0983L11.9098 12.0398C11.9132 11.9393 11.9148 11.8388 11.9143 11.7384C11.913 11.7226 11.9083 11.7072 11.9007 11.6933C11.792 11.5416 11.681 11.3915 11.5678 11.2433H11.5723ZM11.2303 12.7913L11.2213 12.7779C11.1934 12.7713 11.1664 12.7623 11.1403 12.7509C11.0139 12.6763 10.8936 12.5921 10.7803 12.4989L10.4383 12.2333C10.3896 12.1933 10.3401 12.1543 10.2898 12.1164C10.1998 12.2063 10.1773 12.3278 10.1863 12.4359C10.1908 12.4898 10.2043 12.5393 10.2223 12.5798C10.2331 12.6162 10.2516 12.65 10.2763 12.6788C10.2988 12.7058 10.3348 12.7509 10.3978 12.7913C10.4743 12.8409 10.5958 12.8903 10.7893 12.8903C10.9468 12.8903 11.0593 12.8678 11.1313 12.8409L11.2303 12.7913ZM10.2538 12.0938C10.1895 12.1425 10.109 12.165 10.0288 12.1568L9.93884 12.1479C9.85817 12.1372 9.77706 12.1311 9.69579 12.1298C9.63723 12.1282 9.57872 12.1253 9.52029 12.1209C9.5659 12.1833 9.6109 12.2463 9.65529 12.3099L9.66429 12.3233C9.6859 12.3627 9.7084 12.4018 9.7318 12.4403L9.84884 12.6338C9.94694 12.8481 10.1243 13.0158 10.3438 13.1018C10.4158 13.1244 10.4788 13.1333 10.5508 13.1333C10.7678 13.1237 10.982 13.0797 11.1853 13.0029C11.2333 12.9834 11.2798 12.9608 11.3248 12.9354L11.2528 12.8228C11.2195 12.8459 11.1831 12.8642 11.1447 12.8769C11.0683 12.9084 10.9513 12.9308 10.7893 12.9308C10.5913 12.9308 10.4608 12.8813 10.3753 12.8228C10.3176 12.7859 10.2672 12.7385 10.2268 12.6834C10.2068 12.656 10.1916 12.6255 10.1818 12.5934C10.1683 12.5483 10.1548 12.4989 10.1458 12.4403C10.1369 12.378 10.142 12.3148 10.1607 12.2547C10.1795 12.1949 10.2112 12.1399 10.2538 12.0938ZM12.9717 11.2433C12.9735 11.2413 12.9754 11.2399 12.9778 11.2389C12.9803 11.2377 12.9827 11.2372 12.9853 11.2372C12.9878 11.2372 12.9903 11.2377 12.9928 11.2389C12.995 11.2399 12.997 11.2413 12.9988 11.2433C13.0078 11.2433 13.0078 11.2568 12.9988 11.2659C12.8853 11.423 12.7743 11.5821 12.6658 11.7429C12.6724 11.8956 12.6754 12.0486 12.6748 12.2018C12.6703 12.2918 12.6298 12.3729 12.5622 12.4403C12.5381 12.4626 12.5197 12.4904 12.5083 12.5213C12.5003 12.557 12.502 12.5943 12.5128 12.6293C12.5218 12.6473 12.5353 12.6743 12.5578 12.6923C12.5848 12.7103 12.6163 12.7283 12.6613 12.7464C12.7423 12.7733 12.8548 12.7913 12.9717 12.7779L13.2418 12.7509C13.3003 12.7418 13.3453 12.7328 13.3812 12.7149L13.4623 12.6698C13.5563 12.6093 13.6464 12.5432 13.7323 12.4718C13.9096 12.3325 14.0882 12.1943 14.2677 12.0579C14.3038 12.0398 14.4028 11.9949 14.4928 11.9678C14.5693 11.9453 14.7402 11.8778 14.8168 11.8418C14.8258 11.8418 14.8347 11.8418 14.8393 11.8553C14.8438 11.8644 14.8393 11.8733 14.8302 11.8778C14.6652 11.9499 14.4972 12.0144 14.3262 12.0713C14.3398 12.0849 14.3668 12.0938 14.3892 12.1073C14.4163 12.1209 14.4613 12.1209 14.5063 12.1164C14.5499 12.1151 14.5934 12.1121 14.6368 12.1073H14.6593L14.6818 12.1028C14.7727 12.0907 14.8645 12.0846 14.9562 12.0849L15.0643 12.0803L15.0867 12.0668C15.1184 12.0399 15.1471 12.0097 15.1723 11.9768L15.2038 12.0038C15.1772 12.0383 15.147 12.07 15.1137 12.0983C15.1004 12.1079 15.085 12.1141 15.0688 12.1164C15.0202 12.1833 14.9722 12.2508 14.9247 12.3188V12.3233H14.9203C14.8931 12.4649 14.8362 12.5991 14.753 12.7171C14.6701 12.835 14.5629 12.9339 14.4388 13.0073C14.3488 13.0748 14.2768 13.1153 14.2048 13.1423C14.1328 13.1648 14.0698 13.1738 13.9888 13.1738C13.767 13.1636 13.5482 13.1181 13.3408 13.0388C13.2928 13.0193 13.2462 12.9968 13.2013 12.9714C13.1912 12.9652 13.182 12.9575 13.1743 12.9488L13.1653 12.9399L13.2643 12.7868C13.1969 12.7955 13.1294 12.8031 13.0618 12.8094L12.9808 12.8139L12.7963 13.0388C12.7849 13.0505 12.771 13.0597 12.7558 13.0659C12.7411 13.0727 12.7261 13.0786 12.7108 13.0838C12.6928 13.0838 12.6748 13.0929 12.6613 13.0974H12.6567C12.6388 13.0974 12.6208 13.1063 12.6073 13.1108C12.578 13.1231 12.5506 13.1398 12.5263 13.1604L12.4498 13.2278C12.4481 13.2306 12.4459 13.2329 12.4431 13.2346C12.4404 13.2362 12.4372 13.2371 12.4341 13.2371C12.4308 13.2371 12.4277 13.2362 12.4249 13.2346C12.4222 13.2329 12.4198 13.2306 12.4183 13.2278C12.4164 13.2261 12.4147 13.224 12.4138 13.2217C12.4127 13.2193 12.4121 13.2167 12.4121 13.2143C12.4121 13.2118 12.4127 13.2091 12.4138 13.2068C12.4147 13.2046 12.4164 13.2024 12.4183 13.2008L12.4992 13.1289C12.5307 13.1063 12.5668 13.0838 12.5937 13.0748L12.6433 13.0568H12.6478C12.678 13.0485 12.708 13.0395 12.7378 13.0299C12.8006 12.9603 12.862 12.8898 12.9223 12.8183C12.8233 12.8228 12.7243 12.8094 12.6478 12.7824C12.6069 12.7679 12.569 12.7465 12.5353 12.7194C12.5075 12.6993 12.487 12.6709 12.4768 12.6383C12.4645 12.5974 12.4629 12.5539 12.4723 12.5123C12.485 12.4747 12.5066 12.4408 12.5353 12.4133C12.5937 12.3503 12.6298 12.2784 12.6343 12.2018C12.6375 12.1476 12.6359 12.0935 12.6298 12.0398L12.6252 11.9498C12.6213 11.8793 12.6213 11.8087 12.6252 11.7384C12.6252 11.7203 12.6343 11.7069 12.6388 11.6933L12.9717 11.2433ZM14.9518 12.2154C14.9698 12.1839 14.9968 12.1524 15.0192 12.1253C14.9608 12.128 14.9023 12.128 14.8438 12.1253L14.6908 12.1388C14.6309 12.1453 14.5707 12.1512 14.5108 12.1568C14.4658 12.1568 14.4118 12.1568 14.3758 12.1433C14.3651 12.1391 14.3547 12.1346 14.3443 12.1298C14.4163 12.2243 14.4343 12.3414 14.4207 12.4403C14.4163 12.4989 14.4028 12.5528 14.3848 12.5934C14.3728 12.633 14.353 12.6696 14.3262 12.7013C14.3038 12.7283 14.2632 12.7779 14.1913 12.8228C14.1102 12.8813 13.9797 12.9308 13.7773 12.9308C13.6198 12.9308 13.5028 12.9084 13.4218 12.8769C13.3758 12.8627 13.333 12.8397 13.2958 12.8094L13.2148 12.9354L13.2237 12.9399C13.4624 13.0568 13.7231 13.1227 13.9888 13.1333C14.0608 13.1333 14.1238 13.1244 14.1913 13.1018C14.4106 13.0158 14.5882 12.8481 14.6863 12.6338H14.6908C14.7526 12.529 14.8141 12.4239 14.8753 12.3188L14.8798 12.3143V12.3099L14.8932 12.2963C14.9099 12.2684 14.9279 12.2412 14.9473 12.2154H14.9518ZM14.2677 12.1073L14.2813 12.0938C14.3092 12.2082 14.3028 12.3284 14.2629 12.4391C14.2228 12.5501 14.1508 12.6466 14.0563 12.7168C13.9616 12.7869 13.8484 12.8276 13.7306 12.8336C13.613 12.8396 13.4961 12.8108 13.3948 12.7509C13.3701 12.7605 13.3444 12.7681 13.3182 12.7733C13.3363 12.7913 13.3723 12.8183 13.4353 12.8409C13.5118 12.8678 13.6198 12.8903 13.7773 12.8903C13.9708 12.8903 14.0923 12.8454 14.1733 12.7913C14.2363 12.7464 14.2677 12.7058 14.2947 12.6788C14.319 12.6513 14.3374 12.6191 14.3488 12.5843C14.3623 12.5393 14.3758 12.4944 14.3803 12.4359C14.3891 12.376 14.3835 12.3149 14.3639 12.2578C14.3443 12.2007 14.3115 12.1491 14.2677 12.1073ZM10.1278 13.1874C10.1413 13.1828 10.1503 13.1874 10.1548 13.1963C10.1548 13.2008 10.1638 13.2143 10.1773 13.2234L10.2538 13.2638C10.3258 13.2864 10.4338 13.3088 10.6092 13.3088C10.7699 13.3094 10.9298 13.2913 11.0863 13.2549H11.1043C11.1943 13.2323 11.2707 13.2189 11.3473 13.2278C11.4912 13.2458 11.5813 13.3088 11.6128 13.3403C11.6218 13.3494 11.6218 13.3583 11.6128 13.3673C11.611 13.3692 11.609 13.3707 11.6068 13.3718C11.6043 13.3729 11.6018 13.3733 11.5993 13.3733C11.5967 13.3733 11.5943 13.3729 11.5918 13.3718C11.5894 13.3707 11.5875 13.3692 11.5857 13.3673C11.5169 13.3102 11.4319 13.2757 11.3428 13.2683C11.2707 13.2549 11.2077 13.2683 11.1178 13.2908L11.0773 13.2998C10.9693 13.3223 10.8253 13.3449 10.6092 13.3449C10.4338 13.3449 10.3168 13.3268 10.2403 13.2998C10.2096 13.2892 10.1808 13.274 10.1548 13.2549C10.1387 13.2435 10.1263 13.2279 10.1188 13.2098C10.1143 13.2008 10.1188 13.1874 10.1323 13.1828L10.1278 13.1874ZM14.3848 13.1963C14.3866 13.1909 14.3903 13.1865 14.3955 13.1839C14.4006 13.1814 14.4064 13.1811 14.4118 13.1828C14.4172 13.1846 14.4216 13.1884 14.4241 13.1934C14.4267 13.1985 14.427 13.2045 14.4252 13.2098C14.4166 13.2284 14.4024 13.2442 14.3848 13.2549C14.3587 13.274 14.3299 13.2892 14.2993 13.2998C14.0109 13.358 13.7134 13.355 13.4263 13.2908C13.3363 13.2728 13.2733 13.2549 13.2013 13.2683C13.112 13.2752 13.0271 13.3099 12.9583 13.3673C12.9565 13.3692 12.9545 13.3707 12.9521 13.3718C12.9499 13.3729 12.9474 13.3733 12.9448 13.3733C12.9422 13.3733 12.9398 13.3729 12.9374 13.3718C12.935 13.3707 12.933 13.3692 12.9313 13.3673C12.9293 13.3657 12.9278 13.3634 12.9268 13.3612C12.9257 13.3589 12.9253 13.3563 12.9253 13.3538C12.9253 13.3513 12.9257 13.3487 12.9268 13.3463C12.9278 13.3441 12.9293 13.3419 12.9313 13.3403C12.9583 13.3088 13.0528 13.2458 13.1922 13.2278C13.2733 13.2189 13.3453 13.2323 13.4353 13.2504L13.4713 13.2593C13.5793 13.2819 13.7188 13.3043 13.9348 13.3043C14.1057 13.3043 14.2183 13.2864 14.2858 13.2593C14.3129 13.2513 14.3387 13.2391 14.3622 13.2234C14.3803 13.2143 14.3848 13.2008 14.3848 13.1963ZM11.7928 13.1604C11.7788 13.1735 11.7665 13.1887 11.7568 13.2053C11.7555 13.2075 11.7537 13.2095 11.7515 13.2109C11.7493 13.2122 11.7469 13.2134 11.7442 13.2138C11.7418 13.2141 11.7392 13.214 11.7366 13.2134C11.7341 13.2127 11.7317 13.2114 11.7298 13.2098C11.7271 13.2089 11.7249 13.2073 11.7229 13.2054C11.7209 13.2035 11.7195 13.201 11.7186 13.1984C11.7178 13.1959 11.7176 13.1931 11.7179 13.1903C11.7182 13.1876 11.7193 13.1851 11.7208 13.1828C11.733 13.1627 11.7483 13.1445 11.7658 13.1289C11.7838 13.1153 11.8108 13.0974 11.8423 13.1063L12.0223 13.1738C12.0313 13.1783 12.0358 13.1919 12.0313 13.2008C12.0267 13.2098 12.0133 13.2143 12.0043 13.2098L11.8288 13.1423C11.8198 13.1423 11.8108 13.1423 11.7928 13.1604ZM12.8998 13.2053C12.8899 13.1887 12.8778 13.1735 12.8638 13.1604C12.8457 13.1423 12.8368 13.1423 12.8278 13.1423L12.6523 13.2098C12.6433 13.2143 12.6298 13.2098 12.6252 13.2008C12.6252 13.1919 12.6252 13.1783 12.6388 13.1738L12.8188 13.1063C12.8457 13.0974 12.8728 13.1153 12.8908 13.1289L12.9358 13.1828C12.9402 13.1919 12.9358 13.2053 12.9268 13.2098C12.9248 13.2114 12.9224 13.2127 12.92 13.2134C12.9174 13.214 12.9148 13.2141 12.9122 13.2138C12.9097 13.2134 12.9073 13.2122 12.9051 13.2109C12.903 13.2095 12.9011 13.2075 12.8998 13.2053ZM11.5227 13.6284C11.5242 13.626 11.5259 13.6241 11.5281 13.6226C11.5301 13.6212 11.5327 13.6203 11.5352 13.6198C11.5378 13.6194 11.5405 13.6195 11.5429 13.6203C11.5453 13.6208 11.5478 13.6222 11.5498 13.6238L11.7298 13.7453L11.7343 13.7498C11.7578 13.8169 11.7802 13.8844 11.8018 13.9523L11.8243 13.9883L11.8738 14.0558V14.0828C11.8719 14.0853 11.8692 14.0875 11.8662 14.0887C11.8633 14.09 11.8599 14.0905 11.8566 14.09C11.8535 14.0896 11.8503 14.0883 11.8477 14.0861C11.8453 14.0841 11.8433 14.0814 11.8423 14.0783C11.8094 14.0337 11.7793 13.9871 11.7523 13.9388L11.7028 13.7678L11.5227 13.6553C11.5208 13.6537 11.5193 13.6514 11.5183 13.6492C11.5173 13.6469 11.5166 13.6443 11.5166 13.6418C11.5166 13.6393 11.5173 13.6367 11.5183 13.6343C11.5193 13.6321 11.5208 13.6299 11.5227 13.6284ZM11.5273 14.1954C11.5289 14.1932 11.531 14.1919 11.5333 14.1908C11.5357 14.1897 11.5382 14.1892 11.5408 14.1892C11.5433 14.1892 11.5458 14.1897 11.5481 14.1908C11.5506 14.1919 11.5525 14.1932 11.5542 14.1954C11.6059 14.234 11.6584 14.2714 11.7117 14.3078C11.7208 14.3168 11.7343 14.3168 11.7432 14.3168H11.7523C11.7626 14.318 11.7721 14.3228 11.7793 14.3303L11.7883 14.3618C11.7883 14.3844 11.7883 14.4023 11.7793 14.4159V14.4293L11.8153 14.4653C11.867 14.5223 11.915 14.5824 11.9593 14.6453C11.9637 14.6588 11.9637 14.6679 11.9548 14.6768C11.9528 14.6783 11.9504 14.6797 11.948 14.6802C11.9454 14.681 11.9428 14.6811 11.9402 14.6807C11.9377 14.6802 11.9353 14.6793 11.9331 14.6779C11.931 14.6764 11.9291 14.6745 11.9278 14.6724C11.8671 14.5925 11.8041 14.5144 11.7388 14.4383V14.4068L11.7432 14.3978C11.7478 14.3889 11.7523 14.3798 11.7478 14.3663V14.3574H11.7388C11.7298 14.3574 11.7117 14.3574 11.6938 14.3438L11.6128 14.2899L11.5318 14.2223C11.5299 14.2207 11.5282 14.2184 11.5273 14.2162C11.5262 14.2139 11.5256 14.2113 11.5256 14.2088C11.5256 14.2063 11.5262 14.2037 11.5273 14.2013C11.5282 14.1991 11.5299 14.1969 11.5318 14.1954H11.5273ZM11.5588 14.4608C11.5633 14.4608 11.6038 14.4608 11.6218 14.5328C11.6218 14.5419 11.6353 14.5508 11.6443 14.5464C11.6533 14.5464 11.6623 14.5328 11.6578 14.5238C11.6353 14.4338 11.5813 14.4159 11.5498 14.4204C11.5444 14.4215 11.5397 14.4248 11.5368 14.4294C11.5339 14.4341 11.5327 14.4396 11.5341 14.445C11.5352 14.4503 11.5385 14.4551 11.5431 14.4581C11.5478 14.461 11.5534 14.462 11.5588 14.4608ZM13.0618 13.6284C13.0605 13.626 13.0587 13.6241 13.0564 13.6226C13.0544 13.6212 13.0519 13.6203 13.0493 13.6198C13.0466 13.6194 13.0441 13.6195 13.0416 13.6203C13.0391 13.6208 13.0367 13.6222 13.0347 13.6238L12.8503 13.7453V13.7498C12.8252 13.8169 12.8013 13.8844 12.7783 13.9523C12.7561 13.9879 12.732 14.0225 12.7063 14.0558C12.7048 14.0581 12.7037 14.0607 12.7033 14.0634C12.7031 14.066 12.7032 14.0689 12.7042 14.0715C12.705 14.0741 12.7064 14.0765 12.7084 14.0785C12.7104 14.0803 12.7126 14.082 12.7153 14.0828C12.7197 14.0873 12.7333 14.0828 12.7423 14.0783C12.7752 14.0337 12.8052 13.9871 12.8323 13.9388L12.8818 13.7678L13.0573 13.6553C13.0596 13.6539 13.0614 13.6521 13.0628 13.65C13.0643 13.6478 13.0653 13.6455 13.0658 13.6429C13.0661 13.6403 13.066 13.6376 13.0654 13.6351C13.0646 13.6325 13.0635 13.6303 13.0618 13.6284ZM13.0528 14.1954C13.051 14.1932 13.049 14.1919 13.0466 14.1908C13.0444 14.1897 13.0419 14.1892 13.0393 14.1892C13.0367 14.1892 13.0343 14.1897 13.0319 14.1908C13.0295 14.1919 13.0275 14.1932 13.0258 14.1954C12.9757 14.234 12.9246 14.2714 12.8728 14.3078C12.863 14.3129 12.8524 14.3161 12.8413 14.3168H12.8323C12.822 14.318 12.8125 14.3228 12.8053 14.3303C12.7972 14.3388 12.7924 14.3499 12.7918 14.3618L12.8008 14.4159V14.4204L12.8053 14.4293C12.7401 14.4966 12.6798 14.569 12.6252 14.6453C12.6225 14.6468 12.62 14.6491 12.6186 14.6518C12.6168 14.6547 12.616 14.6579 12.616 14.661C12.616 14.6643 12.6168 14.6674 12.6186 14.6701C12.62 14.6729 12.6225 14.6752 12.6252 14.6768C12.6388 14.6813 12.6478 14.6813 12.6567 14.6724C12.7176 14.5925 12.7806 14.5144 12.8457 14.4383V14.4068L12.8368 14.3978C12.8346 14.3873 12.8346 14.3766 12.8368 14.3663V14.3574H12.8413C12.8548 14.3574 12.8728 14.3574 12.8908 14.3438L12.9717 14.2899L13.0528 14.2223C13.0546 14.2207 13.0563 14.2184 13.0573 14.2162C13.0583 14.2139 13.0589 14.2113 13.0589 14.2088C13.0589 14.2063 13.0583 14.2037 13.0573 14.2013C13.0563 14.1991 13.0546 14.1969 13.0528 14.1954ZM13.0258 14.4608C13.0213 14.4608 12.9808 14.4608 12.9628 14.5328C12.9628 14.5419 12.9493 14.5508 12.9402 14.5464C12.938 14.5458 12.9356 14.5447 12.9336 14.5433C12.9317 14.542 12.93 14.5401 12.9286 14.5379C12.9274 14.5358 12.9266 14.5334 12.9263 14.5312C12.9259 14.5286 12.926 14.5262 12.9268 14.5238C12.9493 14.4338 12.9988 14.4159 13.0347 14.4204C13.0402 14.4215 13.0447 14.4248 13.0478 14.4294C13.0507 14.4341 13.0517 14.4396 13.0505 14.445C13.0493 14.4503 13.0461 14.4551 13.0415 14.4581C13.0367 14.461 13.0312 14.462 13.0258 14.4608Z" fill="black"/>
</g>
<defs>
<linearGradient id="paint0_linear_328_38178" x1="7.05714" y1="5.05386" x2="18.8231" y2="10.6493" gradientUnits="userSpaceOnUse">
<stop stop-color="#628800"/>
<stop offset="0.5" stop-color="#B3F700"/>
<stop offset="1" stop-color="#4A6800"/>
</linearGradient>
<linearGradient id="paint1_linear_328_38178" x1="16.9426" y1="5.05386" x2="5.17668" y2="10.6493" gradientUnits="userSpaceOnUse">
<stop stop-color="#628800"/>
<stop offset="0.5" stop-color="#B3F700"/>
<stop offset="1" stop-color="#4A6800"/>
</linearGradient>
<linearGradient id="paint2_linear_328_38178" x1="16.5496" y1="3.00024" x2="16.5496" y2="21.0003" gradientUnits="userSpaceOnUse">
<stop stop-color="#A7A9AC"/>
<stop offset="1" stop-color="#424242"/>
</linearGradient>
<clipPath id="clip0_328_38178">
<rect width="24" height="24" fill="white"/>
</clipPath>
</defs>
</svg>
