<svg width="24" height="24" viewBox="0 0 24 24" fill="none" xmlns="http://www.w3.org/2000/svg">
<g clip-path="url(#clip0_328_52903)">
<path d="M24 0H0V24H24V0Z" fill="#00A6FC"/>
<path d="M13.4123 5.41174C13.4123 5.78616 13.2637 6.14524 12.9988 6.41C12.7341 6.67476 12.3751 6.82349 12.0006 6.82349C11.6262 6.82349 11.2671 6.67476 11.0023 6.41C10.7376 6.14524 10.5889 5.78616 10.5889 5.41174C10.5889 5.03733 10.7376 4.67824 11.0023 4.41349C11.2671 4.14873 11.6262 4 12.0006 4C12.3751 4 12.7341 4.14873 12.9988 4.41349C13.2637 4.67824 13.4123 5.03733 13.4123 5.41174Z" fill="white"/>
<path d="M5.88244 10.1174C6.66213 10.1174 7.29419 9.48538 7.29419 8.70569C7.29419 7.92601 6.66213 7.29395 5.88244 7.29395C5.10276 7.29395 4.4707 7.92601 4.4707 8.70569C4.4707 9.48538 5.10276 10.1174 5.88244 10.1174Z" fill="white"/>
<path d="M5.88244 16.7052C6.66213 16.7052 7.29419 16.0732 7.29419 15.2935C7.29419 14.5138 6.66213 13.8818 5.88244 13.8818C5.10276 13.8818 4.4707 14.5138 4.4707 15.2935C4.4707 16.0732 5.10276 16.7052 5.88244 16.7052Z" fill="white"/>
<path d="M12.0006 20.0003C12.7803 20.0003 13.4123 19.3682 13.4123 18.5886C13.4123 17.8088 12.7803 17.1768 12.0006 17.1768C11.2209 17.1768 10.5889 17.8088 10.5889 18.5886C10.5889 19.3682 11.2209 20.0003 12.0006 20.0003Z" fill="white"/>
<path d="M18.1179 16.7052C18.8976 16.7052 19.5297 16.0732 19.5297 15.2935C19.5297 14.5138 18.8976 13.8818 18.1179 13.8818C17.3383 13.8818 16.7061 14.5138 16.7061 15.2935C16.7061 16.0732 17.3383 16.7052 18.1179 16.7052Z" fill="white"/>
<path d="M18.1179 10.1174C18.8976 10.1174 19.5297 9.48538 19.5297 8.70569C19.5297 7.92601 18.8976 7.29395 18.1179 7.29395C17.3383 7.29395 16.7061 7.92601 16.7061 8.70569C16.7061 9.48538 17.3383 10.1174 18.1179 10.1174Z" fill="white"/>
<path d="M12.0006 13.4114C12.7803 13.4114 13.4123 12.7794 13.4123 11.9997C13.4123 11.2199 12.7803 10.5879 12.0006 10.5879C11.2209 10.5879 10.5889 11.2199 10.5889 11.9997C10.5889 12.7794 11.2209 13.4114 12.0006 13.4114Z" fill="white"/>
<path d="M14.3196 11.5903C14.2632 11.2759 14.1431 10.9765 13.9666 10.7103L16.2441 9.46798C16.3007 9.80209 16.3996 9.98564 16.696 10.2962L14.3196 11.5903ZM13.8537 13.4444C14.0466 13.1997 14.1926 12.9126 14.2772 12.6021L16.6631 13.6891C16.3619 13.9715 16.2818 14.1596 16.2771 14.5456L13.8537 13.4444ZM11.5289 14.3056C11.8395 14.3688 12.1596 14.3688 12.4702 14.3056V16.9409C12.3226 16.8729 12.1621 16.8376 11.9995 16.8376C11.837 16.8376 11.6765 16.8729 11.5289 16.9409V14.3056ZM9.73137 12.6257C9.81604 12.9361 9.96669 13.2185 10.1549 13.4632L8.00434 14.7573C7.98081 14.3903 7.84434 14.2208 7.52434 13.948L9.73137 12.6257ZM9.67491 11.6374L9.64197 11.6985L7.28906 10.2868C7.61846 9.94326 7.71257 9.76916 7.76904 9.4774L9.97614 10.7997C9.82241 11.0585 9.72016 11.3445 9.67491 11.6421V11.6374ZM12.4702 9.69386C12.1596 9.63073 11.8395 9.63073 11.5289 9.69386V7.05859C11.8348 7.18095 12.0466 7.17154 12.4702 7.05859V9.69386Z" fill="white"/>
</g>
<defs>
<clipPath id="clip0_328_52903">
<rect width="24" height="24" fill="white"/>
</clipPath>
</defs>
</svg>
