<svg width="24" height="24" viewBox="0 0 24 24" fill="none" xmlns="http://www.w3.org/2000/svg">
<g clip-path="url(#clip0_328_52903)">
<path d="M24 0H0V24H24V0Z" fill="#00A6FC"/>
<path d="M13.5884 4.58818C13.5884 5.0094 13.4212 5.41336 13.1232 5.71121C12.8254 6.00906 12.4216 6.17638 12.0002 6.17638C11.5791 6.17638 11.1751 6.00906 10.8772 5.71121C10.5794 5.41336 10.4121 5.0094 10.4121 4.58818C10.4121 4.16698 10.5794 3.76301 10.8772 3.46517C11.1751 3.16732 11.5791 3 12.0002 3C12.4216 3 12.8254 3.16732 13.1232 3.46517C13.4212 3.76301 13.5884 4.16698 13.5884 4.58818Z" fill="white"/>
<path d="M5.11748 9.88241C5.99462 9.88241 6.70567 9.17137 6.70567 8.29424C6.70567 7.41711 5.99462 6.70605 5.11748 6.70605C4.24035 6.70605 3.5293 7.41711 3.5293 8.29424C3.5293 9.17137 4.24035 9.88241 5.11748 9.88241Z" fill="white"/>
<path d="M5.11748 17.2935C5.99462 17.2935 6.70567 16.5825 6.70567 15.7053C6.70567 14.8282 5.99462 14.1172 5.11748 14.1172C4.24035 14.1172 3.5293 14.8282 3.5293 15.7053C3.5293 16.5825 4.24035 17.2935 5.11748 17.2935Z" fill="white"/>
<path d="M12.0002 20.9996C12.8774 20.9996 13.5884 20.2885 13.5884 19.4115C13.5884 18.5342 12.8774 17.8232 12.0002 17.8232C11.1231 17.8232 10.4121 18.5342 10.4121 19.4115C10.4121 20.2885 11.1231 20.9996 12.0002 20.9996Z" fill="white"/>
<path d="M18.8822 17.2935C19.7593 17.2935 20.4704 16.5825 20.4704 15.7053C20.4704 14.8282 19.7593 14.1172 18.8822 14.1172C18.0052 14.1172 17.2939 14.8282 17.2939 15.7053C17.2939 16.5825 18.0052 17.2935 18.8822 17.2935Z" fill="white"/>
<path d="M18.8822 9.88241C19.7593 9.88241 20.4704 9.17137 20.4704 8.29424C20.4704 7.41711 19.7593 6.70605 18.8822 6.70605C18.0052 6.70605 17.2939 7.41711 17.2939 8.29424C17.2939 9.17137 18.0052 9.88241 18.8822 9.88241Z" fill="white"/>
<path d="M12.0002 13.5875C12.8774 13.5875 13.5884 12.8765 13.5884 11.9994C13.5884 11.1221 12.8774 10.4111 12.0002 10.4111C11.1231 10.4111 10.4121 11.1221 10.4121 11.9994C10.4121 12.8765 11.1231 13.5875 12.0002 13.5875Z" fill="white"/>
<path d="M14.6095 11.5385C14.546 11.1848 14.4109 10.848 14.2124 10.5485L16.7745 9.15095C16.8382 9.52682 16.9494 9.73331 17.2829 10.0827L14.6095 11.5385ZM14.0853 13.6244C14.3023 13.3491 14.4666 13.0261 14.5618 12.6768L17.2459 13.8996C16.907 14.2173 16.8169 14.4289 16.8116 14.8632L14.0853 13.6244ZM11.47 14.5932C11.8194 14.6643 12.1795 14.6643 12.5289 14.5932V17.5579C12.3629 17.4814 12.1823 17.4416 11.9994 17.4416C11.8166 17.4416 11.636 17.4814 11.47 17.5579V14.5932ZM9.44775 12.7033C9.543 13.0525 9.71248 13.3702 9.92426 13.6455L7.50487 15.1013C7.4784 14.6885 7.32488 14.4978 6.96488 14.1909L9.44775 12.7033ZM9.38423 11.5915L9.34718 11.6602L6.7002 10.0721C7.07076 9.68563 7.17664 9.48977 7.24016 9.16155L9.72311 10.6491C9.55017 10.9403 9.43514 11.262 9.38423 11.5968V11.5915ZM12.5289 9.40506C12.1795 9.33404 11.8194 9.33404 11.47 9.40506V6.44043C11.8141 6.57808 12.0524 6.5675 12.5289 6.44043V9.40506Z" fill="white"/>
</g>
<defs>
<clipPath id="clip0_328_52903">
<rect width="24" height="24" fill="white"/>
</clipPath>
</defs>
</svg>
