<svg width="24" height="24" viewBox="0 0 24 24" fill="none" xmlns="http://www.w3.org/2000/svg">
<path d="M24 0H0V24H24V0Z" fill="black"/>
<path d="M5.01268 13.2651C5.01268 14.629 5.35739 15.9128 5.96188 17.0419L5.06264 17.4915C4.00687 15.5159 3.72556 13.2177 4.27368 11.0458C4.82179 8.87377 6.15995 6.9842 8.02675 5.74613C9.89355 4.50805 12.1548 4.01041 14.369 4.35044C16.583 4.69046 18.5908 5.8437 20 7.58489L19.2406 8.23436C18.2006 6.94741 16.7874 6.01445 15.1953 5.56389C13.6031 5.11333 11.9105 5.1673 10.3504 5.71841C8.79018 6.2695 7.43919 7.29062 6.48329 8.64122C5.52741 9.99185 5.01363 11.6055 5.01268 13.2601V13.2651ZM12.7662 18.7554C11.8454 18.7146 10.9498 18.4427 10.1618 17.965C9.37371 17.4874 8.71839 16.8191 8.25615 16.0219C7.79391 15.2247 7.53958 14.324 7.51658 13.4026C7.49358 12.4814 7.70263 11.5691 8.12451 10.7498C8.5464 9.93053 9.16755 9.23042 9.93084 8.71401C10.6942 8.19761 11.575 7.88145 12.4926 7.79462C13.4099 7.7078 14.3346 7.85309 15.181 8.21715C16.0277 8.58121 16.7692 9.15232 17.3372 9.87797L18.0917 9.22851C17.4145 8.37489 16.5336 7.70533 15.5298 7.28149C14.5262 6.85764 13.432 6.69313 12.348 6.80309C11.264 6.91305 10.2251 7.29396 9.32694 7.91073C8.42878 8.52752 7.70023 9.36033 7.20837 10.3326C6.7165 11.3048 6.47712 12.3851 6.51228 13.474C6.54745 14.563 6.85601 15.6256 7.40957 16.5641C7.96313 17.5026 8.74387 18.2866 9.67995 18.8442C10.616 19.4017 11.6774 19.7148 12.7662 19.7547V18.7505V18.7554ZM15.1791 15.3234C14.7688 15.7627 14.2354 16.068 13.6488 16.1994C13.0621 16.3307 12.4495 16.2821 11.891 16.0598C11.3325 15.8374 10.8539 15.4518 10.5181 14.9531C10.1823 14.4546 10.0046 13.8662 10.0085 13.2651C10.0072 12.6274 10.2093 12.0062 10.5854 11.4913C10.9615 10.9764 11.492 10.5949 12.0998 10.4022C12.7076 10.2094 13.361 10.2154 13.965 10.4194C14.5691 10.6234 15.0923 11.0149 15.4589 11.5366L16.2182 10.8871C15.7198 10.2084 15.0195 9.70465 14.2174 9.44802C13.4154 9.19138 12.5527 9.19496 11.7529 9.45826C10.953 9.72156 10.2569 10.231 9.7641 10.9139C9.27132 11.5968 9.00712 12.418 9.00931 13.2601C9.00948 14.0441 9.24023 14.8108 9.67287 15.4646C10.1055 16.1185 10.721 16.6306 11.4424 16.9374C12.1639 17.244 12.9598 17.3318 13.7307 17.1896C14.5018 17.0474 15.2139 16.6816 15.7786 16.1377L15.1791 15.3183V15.3234Z" fill="white"/>
</svg>
