<svg width="24" height="24" viewBox="0 0 24 24" fill="none" xmlns="http://www.w3.org/2000/svg">
<g clip-path="url(#clip0_328_35956)">
<path d="M24 0H0V24H24V0Z" fill="black"/>
<path d="M14.773 9.91669L13.2082 12.7305L11.6426 15.5448L10.0756 18.3528L8.51011 15.5411L10.0751 12.7268L11.6422 9.91509L9.26504 5.64697H12.3949L13.2082 7.10443L14.773 9.91669ZM6.13251 5.64697H3L6.94305 12.7283L8.51011 9.91669L6.13251 5.64697ZM19.435 7.10443L18.6225 5.64697H15.4919L17.8702 9.91669L16.3025 12.7305L14.7375 15.5448L16.3025 18.3528L17.8695 15.5411L19.435 12.7268L21 9.91509L19.435 7.10443Z" fill="white"/>
</g>
<defs>
<clipPath id="clip0_328_35956">
<rect width="24" height="24" fill="white"/>
</clipPath>
</defs>
</svg>
