<svg width="24" height="24" viewBox="0 0 24 24" fill="none" xmlns="http://www.w3.org/2000/svg">
<g clip-path="url(#clip0_328_35963)">
<path d="M24 0H0V24H24V0Z" fill="#FFD404"/>
<path fill-rule="evenodd" clip-rule="evenodd" d="M14.7894 8.59988C14.0097 9.08574 13.1699 9.59562 12.282 10.1355C12.0901 10.2494 11.8441 10.2134 11.5502 10.0334L11.4963 10.0035L9.18085 8.59386C9.12287 8.55835 9.07554 8.50783 9.04387 8.44765C9.0122 8.38747 8.99735 8.31988 9.00091 8.25196L8.9949 4.97682C8.9949 4.83285 9.05488 4.72487 9.17485 4.6529L11.7122 3.0753C11.9041 2.95533 12.1321 2.98532 12.4201 3.15927L14.7833 4.62889C14.9214 4.71287 14.9933 4.84484 14.9933 5.0188V8.21596C14.9976 8.29248 14.9809 8.36869 14.9449 8.43636C14.9089 8.50403 14.8551 8.56058 14.7894 8.59988ZM12.4921 3.95706C12.4921 4.10704 12.27 4.22699 12.0002 4.22699C11.7241 4.22699 11.5022 4.10704 11.5022 3.96307C11.5022 3.81312 11.7241 3.69314 11.9941 3.69314C12.27 3.69314 12.486 3.81312 12.4921 3.95706ZM11.0044 4.76086C11.0044 4.90483 10.7825 5.0248 10.5125 5.0248C10.2367 5.0248 10.0147 4.90483 10.0147 4.76086C10.0147 4.61091 10.2367 4.49694 10.5125 4.49694C10.7825 4.49694 11.0044 4.6169 11.0044 4.76086ZM11.9941 5.0188C12.27 5.0188 12.4921 4.89883 12.4921 4.75485C12.4921 4.61091 12.27 4.49694 11.9941 4.49694C11.7241 4.49694 11.5022 4.6169 11.5022 4.76086C11.5022 4.90483 11.7241 5.0248 11.9941 5.0188ZM13.9737 4.76086C13.9737 4.90483 13.7517 5.0248 13.4817 5.0248C13.2059 5.0248 12.9839 4.90483 12.9839 4.75485C12.9839 4.61091 13.2059 4.49093 13.4817 4.49694C13.7517 4.49694 13.9737 4.6169 13.9737 4.76086ZM11.9941 5.82259C12.27 5.82259 12.486 5.70263 12.486 5.55865C12.486 5.40869 12.264 5.29473 11.9941 5.29473C11.7241 5.29473 11.5022 5.41469 11.5022 5.55865C11.5022 5.70263 11.7241 5.82259 11.9941 5.82259ZM11.7122 6.60238C11.8022 6.65037 11.8501 6.73435 11.8562 6.85431C11.8922 7.38218 11.922 7.91605 11.9462 8.4499C11.9462 8.50988 11.9761 8.55188 12.0301 8.58188C12.048 8.59386 12.0722 8.58788 12.0961 8.57587C12.1065 8.57 12.115 8.56116 12.1202 8.55047C12.1256 8.53977 12.1277 8.52774 12.1262 8.5159L12.2041 6.84232C12.2101 6.74635 12.2521 6.66837 12.3361 6.61438L13.5658 5.84059C13.6077 5.81659 13.6198 5.78059 13.6016 5.73261L13.5958 5.70263C13.5838 5.66663 13.5597 5.65463 13.5298 5.67263L12.1441 6.36245C12.1108 6.3798 12.0737 6.38884 12.0362 6.38884C11.9985 6.38884 11.9614 6.3798 11.9281 6.36245L10.4885 5.68463C10.4524 5.66663 10.4165 5.68463 10.3926 5.72662L10.3865 5.7506C10.3745 5.77461 10.3745 5.79259 10.3987 5.81059C10.7944 6.06253 11.2384 6.32645 11.7122 6.60238ZM9.43284 6.81233C9.44472 7.08226 9.57069 7.29221 9.71472 7.29221C9.86462 7.28621 9.98466 7.06426 9.9787 6.80032C9.97262 6.5364 9.84674 6.32047 9.69666 6.32645C9.54677 6.32645 9.43284 6.5484 9.43884 6.81233H9.43284ZM13.6257 8.04202C13.4817 8.01802 13.4097 7.7301 13.4579 7.39419C13.5119 7.05826 13.6677 6.81233 13.8116 6.83632C13.9496 6.86032 14.0276 7.14824 13.9737 7.48414C13.9256 7.82007 13.7696 8.066 13.6257 8.04202ZM10.0267 7.49616C10.0506 7.76608 10.1947 7.97603 10.3445 7.96403C10.5005 7.94603 10.6025 7.7181 10.5845 7.44216C10.5605 7.17225 10.4225 6.9623 10.2666 6.98028C10.1107 6.99229 10.0086 7.22022 10.0267 7.49616ZM10.9983 8.65984C10.8424 8.68385 10.6864 8.4799 10.6565 8.20397C10.6204 7.92804 10.7164 7.6821 10.8784 7.66412C11.0345 7.64011 11.1903 7.84406 11.2263 8.12C11.2564 8.39592 11.1604 8.63586 10.9983 8.65984ZM12.0301 15.852L12.9418 18.1313C13.1218 18.6052 13.3138 19.0731 13.5058 19.5471C13.6198 19.8109 13.7218 20.0149 13.8237 20.1468C14.0456 20.4468 14.4716 20.6688 15.1074 20.8068C16.1031 21.0225 17.1048 21.0467 18.1185 20.9026C18.4665 20.8428 18.6765 20.6628 18.7424 20.3448L20.9917 10.0395C21.0398 9.81148 20.8779 9.6796 20.5119 9.64959C19.5821 9.57161 18.6704 9.58961 17.7947 9.70958C17.6326 9.73357 17.5308 9.82959 17.5008 9.97944L15.9171 17.7295C15.8991 17.8136 15.8691 17.8195 15.8331 17.7355L14.1296 13.9804L13.3917 12.3308C13.3611 12.2653 13.3142 12.2087 13.2554 12.1669C13.1964 12.1248 13.1277 12.0986 13.0558 12.0909C12.4125 11.9712 11.7537 11.9591 11.1064 12.0549C10.8424 12.0909 10.6864 12.175 10.6264 12.3129C9.80162 14.1261 8.97784 15.9396 8.15511 17.7535C8.12512 17.8195 8.10113 17.8136 8.08914 17.7474L6.48754 9.94952C6.47965 9.89754 6.45575 9.84962 6.41918 9.81193C6.38263 9.77424 6.33522 9.74898 6.2836 9.73957C6.06166 9.68559 5.81572 9.64959 5.55179 9.63159C4.83197 9.58961 4.14815 9.59562 3.48832 9.65559C3.11642 9.68558 2.96046 9.82352 3.00845 10.0575L5.26986 20.4407C5.31785 20.6688 5.45581 20.8007 5.68976 20.8547C6.68549 21.0707 7.80722 21.0406 9.04889 20.7706C9.73866 20.6207 10.1827 20.303 10.3745 19.8109C10.9146 18.4882 11.4526 17.1645 11.9881 15.84C12.0061 15.8219 12.0241 15.8219 12.0362 15.852H12.0301Z" fill="black"/>
</g>
<defs>
<clipPath id="clip0_328_35963">
<rect width="24" height="24" fill="white"/>
</clipPath>
</defs>
</svg>
