<svg width="24" height="24" viewBox="0 0 24 24" fill="none" xmlns="http://www.w3.org/2000/svg">
<g clip-path="url(#clip0_328_53187)">
<path d="M24 0H0V24H24V0Z" fill="white"/>
<path d="M7.27055 13.4451V19.9H4.20553V13.45H3.39551L5.85554 9.95996L8.03556 13.45H7.27055V13.4451Z" fill="url(#paint0_linear_328_53187)"/>
<path d="M5.86003 9.58398L8.41005 13.749H7.50004V20.1491H4V13.749H3L5.86003 9.58398ZM3.79 13.249H4.50002V19.7341H7.00004V13.249H7.66505L5.84003 10.324L3.79 13.249Z" fill="url(#paint1_linear_328_53187)"/>
<path d="M18.8498 12.4291V13.7641H17.3398V12.4291H16.5298L18.3798 8.53906L20.0699 12.4291H18.8498Z" fill="url(#paint2_linear_328_53187)"/>
<path d="M18.5692 8.01367L20.4342 12.6337H18.8043V14.0337H17.3892V12.6337H16.3892L18.5692 8.01367ZM17.1742 12.2237H17.7941V13.6237H18.3942V12.2237H19.6943L18.5492 8.74867L17.1793 12.2237H17.1742Z" fill="url(#paint3_linear_328_53187)"/>
<path d="M12.0494 3.25L13.9142 7.87006H12.2843V9.27507H10.8643V7.87505H9.86426L12.0443 3.25H12.0494ZM10.6493 7.46004H11.2693V8.86006H11.8793V7.46004H13.1793L12.0293 3.98501L10.6541 7.46004H10.6493Z" fill="#6ABD3A"/>
<path d="M19.2998 8.02518V18.3103H16.2348V8.02518H15.4248L17.8849 4.53516L20.0698 8.02518H19.2998Z" fill="url(#paint4_linear_328_53187)"/>
<path d="M17.8947 4.16895L20.4347 8.24899H19.4997V18.5141H16.0347V8.24899H15.0347L17.8947 4.16895ZM15.8197 7.74898H16.4396V18.0991H18.9997V7.74898H19.6997L17.8746 4.90395L15.8247 7.74898H15.8197Z" fill="url(#paint5_linear_328_53187)"/>
<path d="M9.86071 18.7849V20.3949H6.80072V18.7849H5.99072L8.45075 15.2949L10.6308 18.7849H9.86071Z" fill="url(#paint6_linear_328_53187)"/>
<path d="M8.45085 14.9297L11.0009 18.9897H10.0659V20.4947H6.50083V18.9947H5.59082L8.45085 14.9297ZM6.38084 18.5797H7.00084V20.0797H9.66086V18.5797H10.2609L8.43086 15.6647L6.38084 18.5797Z" fill="url(#paint7_linear_328_53187)"/>
<path d="M20.8406 18.5755V20.4855H17.7705V19.6355H16.9604L19.4205 16.1455L20.8406 18.5755Z" fill="url(#paint8_linear_328_53187)"/>
<path d="M19.4299 15.7803L20.97 18.2453L20.8299 20.5452H17.5649V19.8452H16.5649L19.4299 15.7803ZM17.3548 19.4302H17.97V20.1303H20.6348V19.4302L20.555 18.3452L19.405 16.5151L17.3548 19.4302Z" fill="url(#paint9_linear_328_53187)"/>
<path d="M18.4401 18.0147C18.7901 18.0048 20.6401 18.0798 21.0002 18.1198V20.7497H4V19.7148L7.01003 19.6049L7.33504 19.3699C7.46504 19.2999 7.73503 19.1448 7.77504 19.1098C7.83505 19.0699 8.41505 18.8848 8.44505 18.8598L8.62005 18.6498L8.75005 18.5798L9.00006 18.1649L9.13005 17.9197L9.38006 17.4298C9.43506 17.3348 9.45006 17.2299 9.49506 17.0198C9.53506 16.8498 9.51005 16.6148 9.49506 16.5199L9.63507 16.1698L9.58507 15.8698L9.39505 14.9798C9.34921 14.7368 9.27014 14.5012 9.16006 14.2798L8.74506 13.6498L8.28006 13.1797L7.96505 12.6149L7.74004 12.1797L7.55004 11.8798L7.38004 11.5397C7.33004 11.3198 7.20004 10.7847 7.13004 10.3897C7.07771 10.0709 7.06094 9.74727 7.08003 9.42474L7.13004 9.04973V8.37972L7.24504 7.86972L7.31004 7.32472L7.37005 7.04971C7.44503 6.89472 7.59005 6.57471 7.59504 6.54971L7.79504 6.14972C7.81005 6.10471 8.23505 5.86469 8.44505 5.74971C8.53005 5.7097 8.69005 5.6197 8.70505 5.59971C8.72506 5.5897 9.00506 5.33469 9.14507 5.2147L9.82511 4.7447L10.3101 4.63469L11.3101 4.37969C11.6501 4.35468 12.4352 4.30968 12.8851 4.30469C13.3351 4.30469 13.8501 4.48969 14.0551 4.57969L15.8302 5.50471C15.9901 5.60469 16.3552 5.8747 16.5651 6.1547C16.7707 6.47063 16.9308 6.81404 17.0401 7.17472L17.1751 7.63472L17.4901 7.93473C17.5701 8.06472 17.7252 8.32973 17.7252 8.35972C17.7252 8.38972 17.7751 8.60974 17.7951 8.72474L18.0152 8.97473L17.9502 9.62475L18.0152 10.0847C18.0302 10.1248 18.075 10.2097 18.0952 10.2248C18.12 10.2498 18.435 10.6798 18.5452 10.8747C18.6352 11.0247 18.6652 11.5097 18.6702 11.7248C18.6602 11.8098 18.6401 11.9849 18.6151 12.0148C18.5851 12.0597 18.5051 12.5448 18.4701 12.6098C18.4452 12.6598 18.435 12.8799 18.435 12.9798L18.1452 13.6298C18.0952 13.7798 17.9952 14.0798 17.9952 14.1048L18.0702 14.7849L17.6552 15.4748L17.4951 15.8498C17.4901 15.8797 17.4151 15.9998 17.4052 15.9998C17.3901 16.0099 17.2052 16.1297 17.1851 16.1348C17.1652 16.1398 17.0001 16.2899 16.9752 16.2998C16.9552 16.2998 16.6401 16.5598 16.4902 16.6899L16.3602 16.7298L16.2252 16.6899V16.8248L16.1452 17.1248L16.2102 17.5998C16.2702 17.7098 16.3953 17.9349 16.4151 17.9498C16.4402 17.9748 16.5051 18.0147 16.5551 18.0147L17.1351 18.0698C17.1502 18.0698 17.4752 18.0198 17.5501 18.0198C17.6201 18.0198 18.0002 18.0299 18.4401 18.0198V18.0147Z" fill="#028A08"/>
<path d="M11.5653 4.41466C10.9899 4.54648 10.4166 4.6865 9.84521 4.83466C9.81967 4.84133 9.79458 4.84968 9.77017 4.85967L9.56022 5.00966C9.36886 5.15926 9.18049 5.31263 8.99521 5.46967L8.93521 5.51967C8.88876 5.55662 8.84209 5.59328 8.7952 5.62967L8.78022 5.63968L8.6002 5.71967C8.5071 5.79542 8.41207 5.86879 8.31521 5.93969C8.2052 6.01968 8.0902 6.09968 8.0152 6.13468C7.87713 6.20113 7.76724 6.31458 7.7052 6.45468C7.66008 6.62701 7.59812 6.79449 7.5202 6.95469L7.36018 7.28469V7.79969L7.35019 7.8397C7.3252 7.8847 7.28519 7.95968 7.25019 8.0497C7.22519 8.1397 7.20019 8.2347 7.20019 8.30969V8.91471C7.20019 9.0847 7.18519 9.1847 7.17019 9.26971L7.16019 9.32971C7.14519 9.3897 7.13519 9.43971 7.13018 9.51971C7.12018 9.6197 7.14519 9.8197 7.18019 10.0498C7.20766 10.2501 7.23767 10.4501 7.27019 10.6497C7.30519 10.8748 7.44519 11.4548 7.51519 11.7297C7.5915 11.8521 7.67155 11.9722 7.7552 12.0898C7.8052 12.1397 7.8302 12.2148 7.84521 12.2647V12.2746C7.8652 12.3297 7.8752 12.3698 7.8952 12.3997C7.9652 12.4897 8.0952 12.7147 8.1602 12.8997C8.1702 12.9348 8.1952 12.9798 8.2352 13.0297C8.2702 13.0797 8.3202 13.1298 8.3652 13.1797C8.46521 13.2798 8.5652 13.3697 8.61521 13.4047C8.91243 13.6913 9.14882 14.0347 9.3102 14.4148C9.39022 14.7447 9.56022 15.4647 9.59021 15.6797C9.61521 15.8798 9.68021 16.0948 9.71522 16.1798C9.72022 16.1998 9.71522 16.2198 9.71022 16.2398C9.65015 16.3674 9.60001 16.4995 9.56022 16.6348C9.54521 16.6648 9.54022 16.7098 9.54022 16.7647L9.53522 16.8897V16.9498C9.53021 17.0748 9.52021 17.2198 9.48022 17.3348C9.42021 17.4947 9.30021 17.7447 9.24521 17.8649C9.24205 17.931 9.23028 17.9966 9.21021 18.0597C9.19881 18.0865 9.18176 18.1104 9.1602 18.1298V18.1349L9.14522 18.1497L9.1152 18.1947C9.02337 18.333 8.93989 18.4767 8.8652 18.6248C8.85878 18.6351 8.84996 18.6436 8.83949 18.6496C8.82905 18.6558 8.81728 18.6593 8.80521 18.6598C8.75822 18.6662 8.71151 18.6744 8.66521 18.6848L8.65021 18.7048C8.62531 18.737 8.60194 18.7704 8.58021 18.8048L8.8952 18.7548C8.93521 18.7548 8.97022 18.7797 8.97522 18.8197C8.97662 18.829 8.97617 18.8385 8.97391 18.8475C8.97165 18.8566 8.96761 18.8649 8.96202 18.8723C8.95643 18.8799 8.94942 18.8862 8.94137 18.8908C8.93333 18.8955 8.92445 18.8984 8.91521 18.8998C8.71472 18.9263 8.51469 18.9565 8.31521 18.9898C8.29519 18.9898 8.2452 19.0149 8.1802 19.0397L8.0252 19.1149H8.0202C7.8133 19.1965 7.6098 19.2866 7.41019 19.3848C7.35017 19.4272 7.29486 19.4757 7.24519 19.5298C7.19019 19.5799 7.12018 19.6348 7.0202 19.6748C6.89167 19.7034 6.76137 19.7234 6.63019 19.7348C6.48019 19.7449 4.20516 19.8098 4.10516 19.8048C4.08659 19.8048 4.06879 19.7974 4.05567 19.7843C4.04254 19.7712 4.03516 19.7533 4.03516 19.7348C4.03516 19.6948 4.06516 19.6648 4.10516 19.6648C5.01367 19.6383 5.92204 19.6066 6.83018 19.5699C6.89519 19.5648 6.94019 19.5548 6.97019 19.5398C7.04519 19.5099 7.1002 19.4698 7.15519 19.4198L7.1952 19.3848C7.23519 19.3448 7.28019 19.3048 7.33019 19.2697C7.38518 19.2248 7.5102 19.1698 7.6302 19.1198L7.96521 18.9848C8.06874 18.9365 8.17378 18.8914 8.28021 18.8497L8.39521 18.8298C8.45039 18.7443 8.50876 18.6608 8.57021 18.5798C8.58028 18.5695 8.59213 18.5609 8.60521 18.5547C8.6547 18.541 8.70474 18.5294 8.75522 18.5199C8.85453 18.3522 8.95789 18.1873 9.06521 18.0247H9.0702L9.0752 18.0048C9.0905 17.9529 9.09891 17.8991 9.10021 17.8447C9.19091 17.6623 9.27266 17.4753 9.3452 17.2848C9.3802 17.1948 9.38521 17.0697 9.39521 16.9448V16.8897C9.4004 16.7912 9.40873 16.6928 9.42021 16.5948C9.45021 16.4697 9.53021 16.2948 9.57022 16.2048C9.53522 16.0998 9.47022 15.8898 9.45021 15.6948C9.4252 15.4948 9.26022 14.7947 9.17521 14.4598C9.09495 14.2982 9.01161 14.1381 8.92521 13.9798C8.8053 13.818 8.67503 13.6645 8.53521 13.5198C8.38223 13.4041 8.24448 13.2697 8.1252 13.1197C8.08308 13.0688 8.04932 13.0113 8.0252 12.9497C7.9659 12.7849 7.88521 12.6286 7.7852 12.4848C7.7502 12.4348 7.73019 12.3746 7.7152 12.3248V12.3097C7.7039 12.266 7.68345 12.225 7.65519 12.1898C7.55883 12.0564 7.46712 11.9196 7.3802 11.7796C7.27358 11.3614 7.18184 10.9396 7.10518 10.5147L7.03519 10.0697C7.00519 9.84974 6.98019 9.61971 6.98519 9.50971L7.0202 9.29471L7.03019 9.24471C7.04519 9.16971 7.0602 9.07471 7.0602 8.91471V8.3147C7.0602 8.2097 7.0902 8.0947 7.12018 7.99969C7.15519 7.91468 7.19019 7.83469 7.2202 7.78469V7.23469C7.27726 7.11739 7.33559 7.00071 7.39521 6.88469C7.48899 6.70378 7.56116 6.51246 7.6102 6.31467L7.70019 6.19469C7.77019 6.11968 7.8652 6.04467 7.96019 5.99967C8.0152 5.97469 8.1202 5.90967 8.2302 5.82466C8.3324 5.74917 8.43243 5.67081 8.5302 5.58968L8.71022 5.51467L8.72021 5.50967C8.76309 5.47787 8.80476 5.44452 8.84521 5.40968L8.9052 5.35967C9.09437 5.20364 9.28436 5.04863 9.47521 4.89466C9.57523 4.82466 9.65522 4.75967 9.70022 4.73466L9.80527 4.69465L9.97526 4.64466L10.4703 4.52466C10.8294 4.43815 11.1895 4.35481 11.5503 4.27466C11.7852 4.25966 12.3602 4.22466 12.7752 4.22466C13.1459 4.21343 13.5135 4.29417 13.8452 4.45966L13.9653 4.50967C14.2834 4.63452 14.5939 4.7781 14.8952 4.93966L15.0453 5.01966L15.2353 5.10968C15.3252 5.13966 15.5003 5.23967 15.6852 5.34467C15.8653 5.45467 16.0653 5.57967 16.1953 5.67466C16.2702 5.72968 16.3453 5.81467 16.4254 5.90468C16.7134 6.26292 16.9429 6.66458 17.1053 7.0947V7.09968L17.2354 7.5847C17.3432 7.66013 17.4451 7.74371 17.5403 7.83469C17.5753 7.8747 17.6053 7.9097 17.6204 7.9447L17.6854 8.0847L17.7253 8.1747C17.7603 8.2547 17.8003 8.3297 17.8503 8.3997C17.8603 8.4147 17.8702 8.4297 17.8702 8.44969V8.7647L18.0453 8.9447C18.0603 8.95971 18.0703 8.97971 18.0703 8.99471V9.47971C18.0703 9.5447 18.0553 9.6097 18.0453 9.65971L18.0354 9.69971C18.0303 9.75467 18.0354 9.78471 18.0553 9.81475C18.0903 9.85975 18.0954 9.9097 18.0903 9.94975C18.0883 9.96989 18.085 9.98992 18.0803 10.0097L18.0703 10.0447L18.0753 10.1097C18.0803 10.1298 18.1003 10.1547 18.1453 10.1848C18.2603 10.2697 18.3403 10.3748 18.4053 10.4898L18.5254 10.7248L18.5804 10.8396C18.6152 10.9048 18.6402 10.9948 18.6604 11.0897L18.7003 11.3898L18.7253 11.6397L18.7303 11.7297V11.7497L18.7403 11.7648V11.7697L18.7604 11.8197C18.7653 11.8597 18.7604 11.9098 18.7353 11.9798L18.7003 12.0596L18.6903 12.0798L18.6753 12.1047C18.6703 12.1198 18.6654 12.1447 18.6654 12.2197C18.6628 12.3268 18.6391 12.4321 18.5953 12.5298C18.5934 12.538 18.5917 12.5463 18.5903 12.5546L18.5804 12.5947L18.5603 12.6448L18.5553 12.6697C18.5263 12.7557 18.4996 12.8424 18.4753 12.9298V12.9397C18.48 12.9612 18.48 12.9834 18.4753 13.0047L18.4702 13.0598L18.4252 13.1948L18.3154 13.4498L18.3104 13.4548C18.2754 13.5098 18.2253 13.6047 18.1804 13.7148C18.1304 13.8248 18.1003 13.9398 18.0954 14.0298C18.0954 14.2348 18.1354 14.6497 18.1603 14.8398C18.1603 14.8597 18.1603 14.8797 18.1453 14.8899C18.0954 14.9598 17.9852 15.1097 17.9352 15.2097C17.9158 15.2513 17.8905 15.29 17.8603 15.3247L17.8103 15.3747L17.7653 15.4247C17.7066 15.4835 17.6665 15.5583 17.6503 15.6397C17.6367 15.7386 17.6133 15.8357 17.5803 15.9298C17.5677 15.965 17.5509 15.9987 17.5303 16.0297C17.509 16.0636 17.4775 16.0898 17.4404 16.1048L17.2752 16.1747C17.2177 16.1998 17.1665 16.2374 17.1254 16.2849C17.1053 16.3198 17.0702 16.3498 17.0302 16.3848C16.9896 16.4176 16.9478 16.4493 16.9053 16.4797L16.8803 16.4999C16.8002 16.5598 16.7303 16.6098 16.6903 16.6497C16.6054 16.7448 16.4803 16.8048 16.4254 16.8248C16.3753 16.8448 16.3353 16.8149 16.3254 16.7748L16.2952 16.7647C16.3053 16.8092 16.312 16.8544 16.3152 16.8997C16.3152 16.9248 16.3152 16.9548 16.3003 16.9848V16.9898C16.2652 17.0549 16.2252 17.1248 16.2454 17.2047C16.2832 17.3587 16.305 17.5162 16.3103 17.6749L16.3254 17.7097C16.3704 17.7879 16.4205 17.8631 16.4753 17.9349H16.6404L16.7803 17.9247C16.8353 17.9247 16.9103 17.9448 16.9802 17.9598L17.1353 18.0098L17.6353 17.9298H17.6454L20.3804 18.0298H20.9053C20.9454 18.0298 20.9753 18.0597 20.9753 18.0998C20.9753 18.1398 20.9454 18.1699 20.9053 18.1699H20.3753L17.6503 18.0699L17.1453 18.1547H17.1053C16.9991 18.1183 16.8906 18.09 16.7803 18.0699H16.6503L16.5703 18.0798C16.5167 18.0794 16.4633 18.0762 16.4103 18.0699C16.3971 18.066 16.3852 18.0593 16.3753 18.0498C16.2953 17.9446 16.2251 17.8325 16.1653 17.7148C16.1638 17.7049 16.1638 17.6948 16.1653 17.6849V17.6798C16.1627 17.6597 16.1592 17.6396 16.1553 17.6198C16.1431 17.4942 16.1265 17.3691 16.1053 17.2448C16.0653 17.1048 16.1352 16.9848 16.1653 16.9298V16.9199L16.1703 16.9048C16.1677 16.8695 16.1627 16.8344 16.1553 16.7997C15.9353 16.8498 15.5052 16.9148 15.2202 16.9448C15.0512 16.9595 14.8811 16.9391 14.7203 16.8848C14.6203 16.8547 14.5303 16.8348 14.4353 16.8348C14.3202 16.8321 14.2073 16.8031 14.1052 16.7498C14.0629 16.7295 14.0212 16.7078 13.9802 16.6847H13.9753C13.8598 16.6333 13.7521 16.566 13.6553 16.4847C13.558 16.4106 13.4613 16.3355 13.3652 16.2597C13.2608 16.1809 13.1523 16.1075 13.0402 16.0397C12.9507 15.9819 12.853 15.9382 12.7504 15.9097C12.6653 15.8898 12.5501 15.8397 12.4252 15.7798C12.2953 15.7148 12.1553 15.6298 12.0053 15.5447C11.7152 15.3698 11.4153 15.1648 11.2252 15.0348C11.062 14.9044 10.9081 14.7622 10.7651 14.6098C10.7203 14.5598 10.6803 14.5097 10.6651 14.4598C10.6052 14.3201 10.55 14.1784 10.5002 14.0347C10.45 13.9028 10.395 13.7727 10.3353 13.6448C10.2736 13.4043 10.2169 13.1625 10.1652 12.9198V12.5748C10.1652 12.5347 10.1952 12.5048 10.2353 12.5048C10.2702 12.5048 10.3052 12.5347 10.3052 12.5748V12.9148C10.3615 13.1677 10.423 13.4194 10.4902 13.6697L10.5053 13.6898L10.5202 13.7148L10.5552 13.7847L10.6301 13.9847L10.6552 14.0597L10.7902 14.3998C10.8577 14.4942 10.9331 14.5827 11.0152 14.6647C11.1151 14.7648 11.2302 14.8648 11.3053 14.9147C11.6919 15.1812 12.0908 15.4299 12.5003 15.6598C12.6202 15.7247 12.7252 15.7648 12.7903 15.7798C12.8903 15.7999 13.0052 15.8548 13.1203 15.9248C13.2353 15.9898 13.3502 16.0748 13.4603 16.1547L13.6702 16.3148L13.7503 16.3798C13.8415 16.4547 13.9423 16.5169 14.0503 16.5648H14.0553C14.0952 16.5898 14.1353 16.6147 14.1753 16.6298C14.2553 16.6698 14.3401 16.6998 14.4452 16.6998C14.5602 16.6998 14.6653 16.7298 14.7704 16.7547L14.8203 16.7698C14.9453 16.7997 15.0702 16.8248 15.2202 16.8098C15.5353 16.7799 16.0203 16.6998 16.1953 16.6497C16.2702 16.6298 16.3353 16.6298 16.3853 16.6497C16.402 16.657 16.4173 16.6671 16.4303 16.6797C16.4803 16.6548 16.5452 16.6098 16.5953 16.5598C16.6679 16.4913 16.7467 16.4293 16.8303 16.3748C16.8963 16.3229 16.9597 16.2679 17.0203 16.2097C17.0702 16.1448 17.1453 16.0948 17.2203 16.0598C17.2903 16.0197 17.3603 15.9947 17.4003 15.9798C17.4003 15.9798 17.4103 15.9798 17.4204 15.9598C17.4349 15.938 17.4467 15.9145 17.4552 15.8898C17.4803 15.8248 17.5003 15.7348 17.5153 15.6298C17.5353 15.5048 17.6053 15.4097 17.6653 15.3399L17.7153 15.2897C17.7505 15.248 17.784 15.2045 17.8153 15.1598C17.8654 15.0548 17.9653 14.9098 18.0202 14.8347C17.9954 14.6398 17.9553 14.2448 17.9604 14.0347C17.9653 13.9197 18.0103 13.7847 18.0553 13.6697C18.1785 13.4571 18.2759 13.2304 18.3453 12.9948C18.3384 12.9755 18.3349 12.9553 18.3352 12.9348C18.3352 12.9097 18.3453 12.8848 18.3504 12.8647L18.3903 12.7246L18.4252 12.6247C18.4338 12.6031 18.442 12.5814 18.4503 12.5597V12.5546L18.4602 12.5247C18.4602 12.5147 18.4603 12.5048 18.4702 12.4947V12.4797L18.4954 12.4197C18.5103 12.3647 18.5254 12.2948 18.5254 12.2297C18.5254 12.1447 18.5353 12.0997 18.5553 12.0548L18.5702 12.0198C18.5835 11.9938 18.5952 11.967 18.6052 11.9398C18.6254 11.8797 18.6254 11.8597 18.6254 11.8548L18.6203 11.8398L18.6052 11.8048C18.5962 11.7569 18.5912 11.7084 18.5903 11.6598L18.5654 11.4098C18.5561 11.3142 18.5428 11.2191 18.5254 11.1247C18.5128 11.0507 18.4909 10.9784 18.4602 10.9097L18.4002 10.7847C18.3654 10.7097 18.3303 10.6348 18.2902 10.5696C18.2253 10.4648 18.1603 10.3748 18.0653 10.3096C18.0134 10.274 17.9733 10.2235 17.9504 10.1647C17.9354 10.1213 17.9319 10.0749 17.9402 10.0297L17.9453 9.98474V9.97473L17.9553 9.93974C17.9553 9.92467 17.9553 9.91477 17.9453 9.9097C17.8903 9.82971 17.8953 9.74972 17.9052 9.68471L17.9154 9.6197C17.9253 9.5747 17.9303 9.5347 17.9303 9.48471V9.0347L17.7554 8.8497C17.7409 8.83688 17.7319 8.81898 17.7303 8.7997V8.47469C17.6551 8.37267 17.5961 8.25968 17.5552 8.1397C17.5401 8.09751 17.5233 8.05583 17.5054 8.0147C17.4886 7.98871 17.4685 7.96515 17.4453 7.9447C17.3506 7.85318 17.2487 7.76956 17.1402 7.69468C17.126 7.68519 17.1154 7.67106 17.1103 7.6547L16.9753 7.15468L16.7953 6.71468C16.653 6.46767 16.4942 6.23047 16.3203 6.00467C16.2619 5.9287 16.1947 5.85988 16.1203 5.79968C15.7181 5.51435 15.2874 5.27137 14.8353 5.07468L14.6703 4.98967C14.4353 4.86966 14.1601 4.73966 13.9203 4.63966L13.7953 4.59467C13.6153 4.52466 13.4852 4.47465 13.3502 4.43966C13.1642 4.39209 12.9722 4.37021 12.7803 4.37466C12.3752 4.37466 11.8053 4.40466 11.5702 4.42466L11.5653 4.41466Z" fill="#070006"/>
<path d="M11.5597 17.5505C11.5626 17.5592 11.5641 17.5686 11.5633 17.5781C11.5629 17.5875 11.5603 17.5965 11.5561 17.6049C11.5519 17.6133 11.5461 17.6208 11.539 17.6269C11.5318 17.633 11.5236 17.6376 11.5146 17.6404L11.0646 17.7905C10.9929 17.8757 10.9231 17.9624 10.8547 18.0503C10.8459 18.0753 10.8374 18.1003 10.8297 18.1254L10.8146 18.1654C10.7945 18.2203 10.7696 18.2954 10.7295 18.3653L10.6496 18.5254C10.6107 18.5995 10.5707 18.6728 10.5296 18.7454C10.5164 18.7614 10.4991 18.7735 10.4795 18.7804C10.395 18.7944 10.3099 18.806 10.2246 18.8154C10.2146 18.8169 10.2044 18.816 10.1947 18.8133C10.185 18.8103 10.176 18.8055 10.1685 18.7988C10.1608 18.7922 10.1548 18.784 10.1507 18.7747C10.1466 18.7656 10.1444 18.7555 10.1445 18.7454C10.1445 18.7054 10.1695 18.6705 10.2096 18.6705C10.283 18.6639 10.3565 18.6555 10.4296 18.6454L10.4446 18.6255C10.4737 18.5758 10.4987 18.524 10.5195 18.4704C10.5497 18.4105 10.5797 18.3404 10.6096 18.2954C10.6474 18.2279 10.676 18.1554 10.6946 18.0804C10.7057 18.047 10.7173 18.0135 10.7295 17.9804L10.7746 17.9154C10.8471 17.8251 10.9238 17.7384 11.0046 17.6555L11.4696 17.5054C11.5095 17.4903 11.5496 17.5104 11.5597 17.5505ZM16.7297 14.6504C16.6308 14.6816 16.5307 14.7082 16.4297 14.7304C16.3057 14.7575 16.185 14.7977 16.0696 14.8504L16.0195 14.8754C15.9996 14.8754 15.9845 14.8854 15.9696 14.8904C15.9569 14.8955 15.9433 14.8989 15.9296 14.9004C15.9066 14.8989 15.8844 14.892 15.8647 14.8803C15.8411 14.8702 15.8193 14.8568 15.7995 14.8403C15.7581 14.838 15.7162 14.838 15.6746 14.8403C15.4971 14.8973 15.3167 14.9456 15.1347 14.9854H15.1096L15.0346 14.9753C14.9835 14.9624 14.9333 14.9457 14.8847 14.9254C14.7213 14.8977 14.5551 14.8894 14.3897 14.9004H14.3196C14.3198 14.9159 14.3164 14.9313 14.3096 14.9454C14.302 14.9632 14.2898 14.9785 14.2745 14.9904C14.2411 15.01 14.206 15.0268 14.1697 15.0403C14.1609 15.0444 14.1512 15.0465 14.1416 15.0467C14.1319 15.0469 14.1223 15.0451 14.1134 15.0412C14.1044 15.0374 14.0963 15.032 14.0897 15.0248C14.083 15.0178 14.0779 15.0095 14.0747 15.0003C14.0681 14.9832 14.0685 14.9641 14.0762 14.9471C14.0836 14.9303 14.0973 14.917 14.1146 14.9104C14.1353 14.9017 14.1553 14.8917 14.1746 14.8803V14.8654C14.1746 14.8504 14.1746 14.8154 14.1945 14.7903C14.205 14.7782 14.218 14.7686 14.2328 14.7626C14.2476 14.7565 14.2637 14.7539 14.2796 14.7552C14.313 14.7563 14.3462 14.7563 14.3796 14.7552C14.508 14.7512 14.6363 14.7512 14.7646 14.7552C14.8296 14.7552 14.8896 14.7703 14.9347 14.7903C14.9912 14.8126 15.0499 14.8293 15.1096 14.8403C15.1349 14.8371 15.16 14.8321 15.1847 14.8253C15.3557 14.7844 15.5258 14.7394 15.6946 14.6903C15.7347 14.6883 15.7748 14.6901 15.8147 14.6954H15.8346C15.8474 14.697 15.8596 14.7023 15.8697 14.7104L15.8796 14.7154L15.8845 14.7203C15.8986 14.7333 15.9137 14.745 15.9296 14.7552C15.9588 14.746 15.9872 14.7343 16.0146 14.7203L16.0747 14.6954C16.1646 14.6553 16.2747 14.6105 16.3996 14.5854C16.4871 14.567 16.5739 14.5454 16.6597 14.5205C16.6661 14.5118 16.6743 14.5045 16.6839 14.4993C16.6933 14.4942 16.7039 14.4911 16.7146 14.4903H16.7496C16.8422 14.5517 16.9323 14.6169 17.0197 14.6853C17.0447 14.7154 17.0496 14.7603 17.0245 14.7854C17.0192 14.793 17.0123 14.7997 17.0042 14.8045C16.9961 14.8096 16.9871 14.8128 16.9778 14.8142C16.9685 14.8155 16.959 14.8151 16.9497 14.8127C16.9407 14.8104 16.932 14.8061 16.9245 14.8004C16.8595 14.7483 16.7929 14.6982 16.7247 14.6504H16.7297ZM14.6097 12.8454C14.6296 12.8753 14.6246 12.9203 14.5946 12.9454C14.5346 12.9854 14.3947 13.0803 14.3295 13.1153C14.2903 13.1353 14.2481 13.1487 14.2046 13.1553H14.1646V13.1604L14.1546 13.2054L14.1595 13.3054L14.1846 13.3603L14.2696 13.4804C14.2897 13.5053 14.3396 13.5354 14.4046 13.5653C14.4646 13.5904 14.5297 13.6154 14.5697 13.6204C14.5882 13.625 14.6043 13.6369 14.6139 13.6533C14.6237 13.6696 14.6268 13.6893 14.6221 13.7078C14.6174 13.7264 14.6056 13.7424 14.5893 13.7523C14.5729 13.7622 14.5532 13.765 14.5346 13.7604C14.4847 13.7504 14.4146 13.7254 14.3446 13.6954C14.2736 13.667 14.2103 13.6225 14.1595 13.5653L14.0646 13.4354C14.043 13.4035 14.0278 13.368 14.0196 13.3303C14.0108 13.2604 14.0126 13.1898 14.0246 13.1204C14.0306 13.0884 14.0485 13.0597 14.0747 13.0404C14.0933 13.0301 14.1136 13.0234 14.1346 13.0203L14.1697 13.0153H14.1796L14.2646 12.9854C14.3247 12.9553 14.4496 12.8703 14.5146 12.8254C14.53 12.8157 14.5485 12.8124 14.5661 12.8163C14.5839 12.8199 14.5994 12.8304 14.6097 12.8454ZM15.6096 11.1203C15.6191 11.1196 15.6289 11.121 15.6379 11.1241C15.647 11.1275 15.6554 11.1324 15.6623 11.139C15.6694 11.1455 15.6751 11.1536 15.6789 11.1623C15.6826 11.1711 15.6846 11.1807 15.6846 11.1903L15.7045 11.2503C15.7147 11.2903 15.7396 11.3504 15.7746 11.4303C15.8346 11.5803 15.9047 11.6753 15.9496 11.7304L15.9845 11.7803L15.9896 11.7904L16.0195 11.8153L16.1046 11.8804L16.1147 11.8853C16.1847 11.9354 16.2696 12.0053 16.3345 12.0703C16.4247 12.1604 16.5946 12.2553 16.6746 12.2954C16.6946 12.3053 16.7097 12.3254 16.7146 12.3453C16.7247 12.3954 16.7346 12.5053 16.7146 12.6104C16.6946 12.7155 16.6247 12.9003 16.5946 12.9753C16.5879 12.9924 16.5747 13.0064 16.5579 13.0138C16.541 13.0212 16.5219 13.0219 16.5046 13.0153C16.4955 13.012 16.4872 13.007 16.4801 13.0003C16.4731 12.9936 16.4675 12.9856 16.4637 12.9766C16.4601 12.9677 16.4582 12.958 16.4583 12.9483C16.4583 12.9387 16.4605 12.9291 16.4646 12.9203C16.4947 12.8454 16.5597 12.6703 16.5746 12.5853C16.5897 12.5203 16.5846 12.4503 16.5796 12.4054C16.4897 12.3553 16.3296 12.2655 16.2396 12.1753C16.1732 12.1128 16.1031 12.0544 16.0297 12.0004L16.0195 11.9953C15.9683 11.9518 15.9183 11.9068 15.8697 11.8603L15.8446 11.8354C15.7171 11.6759 15.6236 11.4921 15.5695 11.2953C15.5576 11.2629 15.5493 11.2295 15.5447 11.1953C15.5447 11.1603 15.5746 11.1252 15.6096 11.1203Z" fill="#070006"/>
<path d="M14.6989 13.5999C14.7389 13.67 14.9788 13.6749 14.9988 13.67L15.1989 13.62C15.2838 13.5999 15.2689 13.445 15.2889 13.385C15.3039 13.3349 15.2188 13.245 15.1539 13.2101C15.0889 13.17 14.9238 13.2149 14.8438 13.245C14.7606 13.2809 14.6906 13.3422 14.6439 13.42C14.6139 13.4699 14.6538 13.5251 14.6939 13.5999H14.6989ZM15.9188 13.2849C15.9188 13.3649 16.0689 13.445 16.0889 13.445L16.2489 13.4599C16.3089 13.4699 16.3639 13.3249 16.3989 13.28C16.4338 13.23 16.4138 13.13 16.3839 13.0749C16.354 13.0199 16.2289 13.0099 16.1588 13.0099C16.0817 13.0209 16.0099 13.0559 15.9539 13.1099C15.9139 13.1499 15.9188 13.2101 15.9188 13.2849ZM13.6689 10.4999C13.7088 10.4999 13.7338 10.5349 13.7338 10.5749C13.7207 10.6804 13.704 10.7855 13.6838 10.8899C13.6689 10.9499 13.6189 10.9849 13.5789 11.0098L13.4489 11.075C13.4107 11.0911 13.3702 11.1012 13.3288 11.105C13.2148 11.1228 13.0993 11.1295 12.9838 11.1249C12.9397 11.1337 12.8963 11.1453 12.8539 11.1599C12.7664 11.1849 12.6779 11.2065 12.5888 11.2249L12.5539 11.235L12.4838 11.2649C12.4003 11.3003 12.3087 11.3125 12.2188 11.2999C12.1301 11.2724 12.0458 11.2319 11.9688 11.1799C11.8838 11.1299 11.7989 11.065 11.7488 11.0299C11.7407 11.0249 11.7337 11.0182 11.7282 11.0104C11.7229 11.0025 11.7191 10.9936 11.7172 10.9842C11.7154 10.975 11.7155 10.9652 11.7174 10.9558C11.7194 10.9466 11.7232 10.9376 11.7289 10.93C11.7343 10.9223 11.7411 10.9157 11.7492 10.9107C11.7573 10.9058 11.7663 10.9025 11.7757 10.9012C11.7849 10.8997 11.7946 10.9003 11.8037 10.9025C11.8127 10.9049 11.8214 10.9092 11.8289 10.9149L12.0439 11.055C12.1288 11.11 12.2037 11.1499 12.2489 11.155C12.2989 11.1699 12.364 11.155 12.4388 11.1299L12.4988 11.105L12.5389 11.0899C12.5708 11.0769 12.6045 11.0685 12.6389 11.065L12.7089 11.0499L12.8138 11.0249L12.9188 10.995C12.9436 10.9889 12.9688 10.984 12.994 10.9799H13.1839C13.251 10.9741 13.3179 10.9641 13.3839 10.9499C13.4233 10.9274 13.4633 10.9057 13.5038 10.885C13.5439 10.8649 13.5539 10.8499 13.5539 10.8449L13.5739 10.7199L13.5938 10.5599C13.5938 10.52 13.6288 10.4949 13.6689 10.4949V10.4999ZM17.2038 10.0149C17.2439 10.0149 17.2738 10.0449 17.2789 10.0799C17.2829 10.1916 17.2813 10.3034 17.2738 10.4149C17.2703 10.4461 17.2619 10.4764 17.2489 10.5049C17.2412 10.519 17.2305 10.5313 17.2175 10.5407C17.2045 10.5502 17.1896 10.5568 17.1739 10.5599C17.1494 10.5661 17.1242 10.5695 17.0988 10.57C17.0489 10.57 16.984 10.57 16.9187 10.5549L16.6189 10.5049H16.6088L16.5789 10.5099C16.493 10.5194 16.4079 10.5344 16.3239 10.5549L16.2238 10.5749C16.1195 10.5908 16.0142 10.6008 15.9089 10.6049C15.904 10.6049 15.859 10.5899 15.8488 10.5399C15.8488 10.5149 15.859 10.4999 15.8639 10.4899C15.8676 10.4809 15.8728 10.4725 15.8788 10.4649C15.8939 10.4549 15.8939 10.4449 15.8939 10.4449V10.4199C15.8899 10.4078 15.8849 10.3961 15.8788 10.385L15.8639 10.3649V10.3499C15.859 10.3399 15.8539 10.3299 15.859 10.3149C15.8601 10.3057 15.863 10.2968 15.8678 10.2887C15.8725 10.2807 15.8788 10.2737 15.8863 10.2681C15.8936 10.2626 15.9022 10.2586 15.9113 10.2563C15.9203 10.2539 15.9297 10.2535 15.9389 10.2549C15.9689 10.2599 15.9889 10.2849 15.9989 10.3099V10.3199L16.0288 10.3749C16.0339 10.3999 16.039 10.4249 16.0339 10.4599L16.1988 10.435L16.2988 10.4149L16.4539 10.385C16.5153 10.3757 16.5769 10.3689 16.6388 10.3649L16.7139 10.3799L16.9389 10.4149C17.0019 10.4234 17.0654 10.4267 17.1289 10.4249V10.3949L17.1388 10.295V10.0899C17.1388 10.05 17.1639 10.0149 17.2038 10.0149ZM15.2789 7.07989C15.239 7.0949 15.1889 7.11489 15.1289 7.12489C15.0089 7.1399 14.7138 7.22488 14.5788 7.26489H14.5738C14.4088 7.29989 14.0489 7.37489 13.9188 7.38989C13.7405 7.40588 13.561 7.40083 13.3839 7.37489L13.3338 7.3599L13.2938 7.34489C13.2393 7.32347 13.1822 7.31 13.1239 7.30489C13.1088 7.30489 13.0788 7.30488 13.0438 7.3149C12.918 7.33813 12.7943 7.37159 12.6739 7.4149C12.5789 7.44989 12.3438 7.52489 12.1789 7.54989C11.9989 7.57489 11.8289 7.6349 11.7187 7.6749L11.6839 7.6849L11.1439 7.8849C11.0653 7.91467 10.9852 7.93971 10.9038 7.95988C10.8938 7.95976 10.8841 7.95627 10.8763 7.94998C10.8685 7.9437 10.8629 7.93499 10.8606 7.92521C10.8583 7.91542 10.8593 7.90517 10.8635 7.89606C10.8678 7.88694 10.8749 7.8795 10.8839 7.8749C10.9339 7.8649 11.0539 7.83489 11.1138 7.8099L11.6538 7.60489L11.6888 7.59489C11.8038 7.55489 11.9789 7.49489 12.1688 7.4649C12.3239 7.4399 12.5539 7.36489 12.6488 7.33489C12.8054 7.28779 12.9638 7.24775 13.1239 7.21488C13.2369 7.23981 13.3486 7.26985 13.4588 7.30489C13.5138 7.3149 13.7489 7.32989 13.9087 7.30489C14.0338 7.28989 14.3889 7.21488 14.5538 7.18489C14.6888 7.1399 14.9889 7.05489 15.1139 7.03489C15.1639 7.03489 15.2039 7.01488 15.2439 6.99989L15.2939 6.98489C15.3614 6.95816 15.4365 6.95816 15.5039 6.98489C15.6715 7.05064 15.8383 7.11898 16.0039 7.18988L16.0538 7.21488L16.074 7.21989C16.0939 7.22989 16.1039 7.25489 16.0988 7.27489C16.0975 7.28108 16.0945 7.28683 16.0905 7.29169C16.0863 7.29655 16.0811 7.30035 16.0753 7.30278C16.0694 7.30523 16.063 7.30624 16.0567 7.30573C16.0503 7.30523 16.0442 7.30323 16.039 7.29989L16.0239 7.28989C16.0088 7.28989 15.9938 7.2799 15.9739 7.26989C15.8075 7.20077 15.6408 7.13244 15.4739 7.06489C15.4257 7.04543 15.3719 7.04543 15.3239 7.06489L15.2789 7.07989ZM15.6588 7.6799L15.8689 7.78989C15.8889 7.79989 15.8939 7.82489 15.8838 7.8449C15.8818 7.84995 15.8786 7.8545 15.8745 7.85828C15.8705 7.86206 15.8658 7.86498 15.8608 7.86687C15.8555 7.86872 15.8501 7.86953 15.8446 7.8692C15.839 7.86886 15.8339 7.86738 15.8289 7.86489L15.6489 7.76989C15.4244 7.81634 15.1995 7.85969 14.9739 7.8999L14.7389 7.9199L14.4239 7.9549C14.3839 7.97489 14.3138 8.00489 14.2388 8.0249C14.1588 8.0499 14.0739 8.0749 14.0039 8.0749C13.8367 8.07051 13.6716 8.04013 13.5138 7.98489C13.4817 7.9746 13.4499 7.96293 13.4188 7.94989H13.1538L13.0538 7.95988C12.9989 7.95988 12.9039 7.9899 12.7988 8.0249L12.5289 8.13489C12.3538 8.2199 11.9738 8.4049 11.8639 8.4749C11.7488 8.5449 11.2888 8.76491 11.0788 8.8649H11.0689L10.5937 8.9649C10.4889 8.98491 10.3889 9.01491 10.3488 9.02991C10.3288 9.03991 10.3039 9.02991 10.2989 9.00491C10.2888 8.98491 10.2989 8.9549 10.3188 8.9549C10.3588 8.93491 10.4688 8.9049 10.5789 8.87991C10.6838 8.85491 10.9289 8.8099 11.0437 8.77991C11.2638 8.6799 11.7138 8.4699 11.8188 8.39991C11.9339 8.32991 12.3188 8.1399 12.4939 8.0599L12.7688 7.9449C12.8883 7.89687 13.0151 7.86981 13.1438 7.86489L13.2938 7.85989C13.3389 7.85891 13.384 7.86058 13.4288 7.86489L13.4638 7.8749L13.4688 7.8799L13.4839 7.8849L13.5339 7.8999C13.6861 7.9416 13.8417 7.97003 13.9988 7.98489C14.0588 7.98489 14.1388 7.96989 14.2138 7.9449L14.3988 7.8749H14.4088C14.6302 7.84742 14.8519 7.82241 15.0738 7.79989C15.2652 7.76845 15.4554 7.73009 15.644 7.6849L15.6588 7.6799ZM12.9139 8.97991L12.7988 9.01491C12.6089 9.05205 12.419 9.0887 12.2288 9.12492C12.179 9.15056 12.1305 9.17893 12.0839 9.2099C12.0165 9.25002 11.9481 9.28837 11.8788 9.32491L11.6839 9.38992L11.6388 9.40991L11.5238 9.44991L11.5139 9.45491L11.4838 9.47991C11.3764 9.55491 11.2713 9.63328 11.1688 9.71491C11.1644 9.71864 11.1592 9.72135 11.1536 9.72287C11.1481 9.7244 11.1423 9.72469 11.1365 9.72375C11.1308 9.72279 11.1253 9.72062 11.1206 9.71737C11.1158 9.71412 11.1118 9.70986 11.1088 9.70491C11.1027 9.69549 11.1003 9.68408 11.1021 9.67297C11.104 9.66187 11.1099 9.65186 11.1189 9.64492C11.2395 9.55351 11.3611 9.46349 11.4838 9.37491L11.5139 9.36492L11.5489 9.34991L11.6088 9.32992L11.6588 9.30992C11.7479 9.2724 11.8379 9.23739 11.9288 9.20491L12.0439 9.13491L12.0938 9.10991L12.1538 9.07491C12.1703 9.06456 12.1871 9.05457 12.2037 9.04491L12.2239 9.03991L12.7838 8.9299C12.8038 8.9299 12.8439 8.91491 12.8889 8.89491L13.0389 8.84492C13.0889 8.8349 13.1438 8.82489 13.1888 8.8299C13.2138 8.8299 13.2389 8.8399 13.2538 8.8549C13.2739 8.8749 13.2888 8.8999 13.2888 8.92491C13.2888 8.94991 13.2788 8.97491 13.2538 8.97491C13.2479 8.97646 13.2416 8.97659 13.2355 8.9753C13.2294 8.97399 13.2237 8.9713 13.2189 8.96741C13.214 8.96353 13.2101 8.95858 13.2075 8.95293C13.205 8.94729 13.2037 8.94112 13.2039 8.93491V8.9199L13.1788 8.91491C13.1538 8.91491 13.1138 8.91491 13.0638 8.9299C13.0138 8.93991 12.9639 8.95991 12.9139 8.97991ZM16.1339 8.2449L16.9339 8.5899C16.9538 8.5999 16.9638 8.6249 16.9588 8.6449C16.9572 8.65039 16.9544 8.65548 16.9507 8.65979C16.947 8.66411 16.9422 8.66757 16.9372 8.66995C16.9319 8.67233 16.9262 8.67353 16.9205 8.67353C16.9147 8.67352 16.9092 8.6723 16.9039 8.66991L16.1488 8.34489C15.9728 8.39853 15.7943 8.4436 15.6138 8.47991C15.5888 8.49991 15.5589 8.52991 15.544 8.5599C15.5327 8.577 15.5172 8.59081 15.4988 8.5999C15.4831 8.61001 15.4664 8.61839 15.449 8.6249C15.4228 8.6338 15.396 8.64049 15.3689 8.6449L15.2738 8.7249C15.27 8.72917 15.2655 8.73257 15.2602 8.7349C15.2552 8.73723 15.2495 8.73845 15.2439 8.73845C15.2382 8.73845 15.2327 8.73723 15.2274 8.7349C15.2223 8.73257 15.2176 8.72917 15.2138 8.7249C15.2097 8.72038 15.2067 8.71506 15.2048 8.70929C15.2027 8.70353 15.2019 8.69741 15.2024 8.69133C15.203 8.68526 15.2046 8.67934 15.2075 8.67393C15.2102 8.66853 15.2142 8.66376 15.2188 8.6599L15.329 8.5599H15.3438L15.4239 8.53991C15.438 8.53492 15.4514 8.5282 15.4638 8.51989H15.4689C15.4939 8.4699 15.5439 8.4199 15.5688 8.4049L15.5739 8.39991H15.5839C15.761 8.36345 15.9361 8.31842 16.1089 8.26489H16.1138L16.1339 8.2449ZM13.3839 9.39991C13.3843 9.39412 13.3861 9.38852 13.3891 9.3835C13.392 9.37848 13.3961 9.37417 13.4008 9.37083C13.4055 9.3675 13.411 9.36523 13.4166 9.36422C13.4224 9.3632 13.4282 9.36343 13.4339 9.36492L13.5488 9.4049C13.5988 9.4249 13.6488 9.45491 13.6838 9.48991C13.7239 9.52491 13.7539 9.57492 13.7838 9.62492L13.8438 9.74991C13.8489 9.7749 13.8438 9.79988 13.8188 9.80494C13.7939 9.81495 13.7688 9.80494 13.7638 9.77996C13.7481 9.7404 13.7296 9.70198 13.7088 9.66491C13.6878 9.62456 13.6608 9.58751 13.6288 9.55491C13.5944 9.52575 13.5556 9.50214 13.5138 9.48491C13.4814 9.47072 13.448 9.45902 13.4138 9.44991C13.4038 9.44651 13.3951 9.43959 13.3896 9.43044C13.3841 9.42126 13.3822 9.41045 13.3839 9.39991ZM15.4839 9.04991C15.509 9.04491 15.5288 9.05991 15.5338 9.0849C15.5524 9.2734 15.5724 9.46173 15.5939 9.6499C15.6039 9.66491 15.5939 9.68491 15.5839 9.69991C15.5795 9.70363 15.5742 9.70635 15.5687 9.70786C15.5632 9.70939 15.5573 9.70969 15.5516 9.70875C15.5459 9.7078 15.5405 9.70561 15.5356 9.70237C15.5309 9.69912 15.5268 9.69487 15.5238 9.68991L15.5139 9.67491V9.6499C15.5 9.58389 15.4899 9.51711 15.4839 9.44991L15.449 9.0949C15.449 9.0699 15.4638 9.04491 15.4839 9.04491V9.04991ZM10.8988 15.0149C10.9239 15.0049 10.9488 15.0149 10.9588 15.03C11.0189 15.1351 11.1488 15.38 11.1887 15.53C11.2138 15.615 11.2389 15.735 11.2538 15.8601C11.2701 15.9783 11.265 16.0985 11.2389 16.215C11.1989 16.365 11.1588 16.4799 11.1389 16.5149C11.1378 16.5203 11.1355 16.5254 11.1323 16.5298C11.1291 16.5342 11.125 16.538 11.1203 16.5408C11.1157 16.5435 11.1103 16.5454 11.105 16.5461C11.0995 16.5468 11.0941 16.5464 11.0888 16.5449C11.0785 16.5405 11.0704 16.5325 11.0658 16.5224C11.0611 16.5121 11.0605 16.5006 11.0639 16.49L11.1588 16.1899C11.1838 16.105 11.1838 15.99 11.1688 15.87C11.1571 15.762 11.137 15.6549 11.1088 15.55C11.0504 15.3852 10.9767 15.2261 10.8889 15.0749C10.8831 15.0649 10.8816 15.0532 10.8844 15.042C10.8872 15.0308 10.8941 15.0212 10.9038 15.0149H10.8988ZM15.0838 19.08C15.0838 19.105 15.0738 19.1299 15.0489 19.1299C14.8434 19.1722 14.6448 19.2429 14.4589 19.34C14.4339 19.35 14.4139 19.385 14.4037 19.43C14.3923 19.4673 14.3855 19.5059 14.3839 19.5451V19.5801L14.3539 19.59C14.176 19.6343 13.9957 19.6677 13.8138 19.69H13.7489C13.7338 19.685 13.7088 19.675 13.6938 19.655C13.6487 19.584 13.615 19.5064 13.5938 19.425H13.5889C13.564 19.4202 13.539 19.4169 13.5138 19.4149L13.4938 19.41H13.4688C13.4197 19.3848 13.3714 19.3581 13.3238 19.33L13.2888 19.305C13.2347 19.27 13.1798 19.2368 13.1239 19.205H13.0788L12.9788 19.24L12.8439 19.2951L12.8038 19.315C12.7838 19.325 12.7539 19.315 12.7539 19.29C12.7388 19.27 12.7538 19.24 12.7739 19.24C12.7789 19.2301 12.7938 19.225 12.8038 19.2201L12.9539 19.1601C13.0039 19.1397 13.0558 19.1247 13.1088 19.115C13.1289 19.115 13.1438 19.115 13.1589 19.1251C13.2303 19.1657 13.3004 19.2093 13.3688 19.255L13.4789 19.32H13.5138L13.5539 19.325C13.5739 19.325 13.5988 19.33 13.6189 19.34C13.6312 19.3452 13.6424 19.3524 13.6519 19.3618C13.6613 19.3713 13.6689 19.3826 13.6738 19.395L13.6889 19.4351C13.7088 19.4901 13.7288 19.5499 13.7589 19.6H13.8138C13.8538 19.6 13.9088 19.6 13.9689 19.585L14.3038 19.5149L14.3189 19.405C14.3339 19.3551 14.3639 19.2951 14.4139 19.2651C14.6092 19.1629 14.8179 19.0888 15.0338 19.045C15.059 19.045 15.0789 19.055 15.0838 19.08ZM14.7339 17.64C14.7538 17.6299 14.7789 17.64 14.7888 17.66C14.8369 17.7446 14.8868 17.8278 14.9388 17.91V17.92C14.9489 17.93 14.9539 17.9351 14.9539 17.945L15.0038 18.02C15.0539 18.0701 15.1439 18.125 15.3138 18.165C15.3389 18.165 15.3538 18.19 15.3488 18.2151C15.3483 18.2207 15.3465 18.2264 15.3436 18.2314C15.3407 18.2365 15.3366 18.2407 15.3321 18.2441C15.3272 18.2474 15.3218 18.2497 15.316 18.2506C15.3104 18.2518 15.3045 18.2514 15.2988 18.2501C15.1139 18.21 15.0089 18.1451 14.9489 18.08C14.9152 18.0452 14.8879 18.0045 14.8688 17.96L14.8639 17.95C14.8119 17.8679 14.7619 17.7845 14.7139 17.7C14.7087 17.6893 14.7078 17.6771 14.7115 17.6658C14.7153 17.6547 14.7232 17.6454 14.7339 17.64Z" fill="#070006"/>
</g>
<defs>
<linearGradient id="paint0_linear_328_53187" x1="12.0005" y1="3.24112" x2="12.0005" y2="27.4932" gradientUnits="userSpaceOnUse">
<stop stop-color="#AFCA9A"/>
<stop offset="1" stop-color="#60C90A"/>
</linearGradient>
<linearGradient id="paint1_linear_328_53187" x1="12.0333" y1="3.86181" x2="12.0333" y2="26.679" gradientUnits="userSpaceOnUse">
<stop stop-color="#6ABD3A"/>
<stop offset="1" stop-color="#438907"/>
</linearGradient>
<linearGradient id="paint2_linear_328_53187" x1="9.17769" y1="4.58873" x2="9.17769" y2="50.7087" gradientUnits="userSpaceOnUse">
<stop stop-color="#AFCA9A"/>
<stop offset="1" stop-color="#60C90A"/>
</linearGradient>
<linearGradient id="paint3_linear_328_53187" x1="9.0288" y1="5.93759" x2="9.0288" y2="45.9671" gradientUnits="userSpaceOnUse">
<stop stop-color="#6ABD3A"/>
<stop offset="1" stop-color="#438907"/>
</linearGradient>
<linearGradient id="paint4_linear_328_53187" x1="11.9901" y1="3.25013" x2="11.9901" y2="20.7502" gradientUnits="userSpaceOnUse">
<stop stop-color="#AFCA9A"/>
<stop offset="1" stop-color="#60C90A"/>
</linearGradient>
<linearGradient id="paint5_linear_328_53187" x1="12.033" y1="3.69423" x2="12.033" y2="20.499" gradientUnits="userSpaceOnUse">
<stop stop-color="#6ABD3A"/>
<stop offset="1" stop-color="#438907"/>
</linearGradient>
<linearGradient id="paint6_linear_328_53187" x1="11.9814" y1="3.24982" x2="11.9814" y2="50.5174" gradientUnits="userSpaceOnUse">
<stop stop-color="#AFCA9A"/>
<stop offset="1" stop-color="#60C90A"/>
</linearGradient>
<linearGradient id="paint7_linear_328_53187" x1="12.0342" y1="4.39741" x2="12.0342" y2="47.7154" gradientUnits="userSpaceOnUse">
<stop stop-color="#6ABD3A"/>
<stop offset="1" stop-color="#438907"/>
</linearGradient>
<linearGradient id="paint8_linear_328_53187" x1="13.7633" y1="3.25029" x2="13.7633" y2="58.7951" gradientUnits="userSpaceOnUse">
<stop stop-color="#AFCA9A"/>
<stop offset="1" stop-color="#60C90A"/>
</linearGradient>
<linearGradient id="paint9_linear_328_53187" x1="14.094" y1="4.5906" x2="14.094" y2="55.1813" gradientUnits="userSpaceOnUse">
<stop stop-color="#6ABD3A"/>
<stop offset="1" stop-color="#438907"/>
</linearGradient>
<clipPath id="clip0_328_53187">
<rect width="24" height="24" fill="white"/>
</clipPath>
</defs>
</svg>
