<svg width="24" height="24" viewBox="0 0 24 24" fill="none" xmlns="http://www.w3.org/2000/svg">
<g clip-path="url(#clip0_328_44840)">
<path d="M24 0H0V24H24V0Z" fill="#ED1650"/>
<path d="M17.4603 7.00003H14.5122C14.4527 6.9993 14.3937 7.0104 14.3385 7.03273C14.2834 7.05504 14.2332 7.08812 14.191 7.13004L8.8044 12.4502C8.7196 12.5342 8.60199 12.601 8.48319 12.6002H7.49756C7.37875 12.601 7.26115 12.5342 7.17674 12.4502L6.53273 11.9106C6.44745 11.8227 6.40005 11.7049 6.40072 11.5826V10.5826C6.39984 10.4598 6.44725 10.3418 6.53273 10.2537L7.17674 9.53852C7.26157 9.45234 7.37667 9.40269 7.49756 9.40011H8.48319C8.60719 9.40011 8.7168 9.45811 8.804 9.53852L9.23481 9.97654C9.40762 10.1565 9.70443 10.1565 9.87724 9.97654L10.9132 8.92529C10.9986 8.83725 11.0462 8.71947 11.0462 8.59689C11.0462 8.4743 10.9986 8.35653 10.9132 8.26847L9.78322 7.13643C9.74133 7.09364 9.69138 7.05955 9.63626 7.03614C9.58113 7.01274 9.52192 7.00046 9.46202 7.00003H6.50593C6.38593 7.00123 6.26832 7.04963 6.18472 7.13604L4.10385 9.24691C4.01745 9.33611 3.99745 9.45891 4.00025 9.58294V12.5826C4.00025 12.7066 4.02344 12.8234 4.10385 12.911L6.19111 14.8866C6.27552 14.9706 6.39312 15.0011 6.51233 15.0006H9.46842C9.58843 14.9995 9.70643 14.9659 9.78963 14.8794L15.1682 9.5457C15.2502 9.45651 15.3682 9.40291 15.4894 9.39971H16.4818C16.5986 9.39971 16.7155 9.45811 16.803 9.5457L17.4962 10.2537C17.5814 10.3418 17.6007 10.4597 17.5998 10.5821V11.431C17.6007 11.5534 17.5814 11.6713 17.4962 11.7594L16.803 12.4746C16.7186 12.5586 16.601 12.601 16.4818 12.6002H15.4894C15.3699 12.6026 15.2544 12.5574 15.1682 12.4746L14.7374 12.1146C14.6541 12.0296 14.5404 11.9813 14.4214 11.98C14.3024 11.9786 14.1878 12.0247 14.1026 12.1078L12.9542 13.4506C12.8616 13.5357 12.8062 13.6538 12.7998 13.7794V16.5611C12.7998 16.8168 13.0198 17.0003 13.2678 17.0003H14.7374C14.9878 16.9963 15.2038 16.8115 15.1998 16.5611V15.4603C15.1998 15.2043 15.3942 15.0002 15.6494 15.0002H17.4598C17.5791 15.0011 17.6967 14.9526 17.7811 14.869L19.8684 12.9106C19.9536 12.8226 20.0007 12.7046 20 12.5822V9.5821C20.0008 9.45981 19.9537 9.34205 19.8688 9.2541L17.7811 7.13004C17.7389 7.08818 17.6888 7.05514 17.6338 7.03283C17.5786 7.01051 17.5197 6.99937 17.4603 7.00003Z" fill="white"/>
</g>
<defs>
<clipPath id="clip0_328_44840">
<rect width="24" height="24" fill="white"/>
</clipPath>
</defs>
</svg>
