<svg width="24" height="24" viewBox="0 0 24 24" fill="none" xmlns="http://www.w3.org/2000/svg">
<path d="M24 0H0V24H24V0Z" fill="black"/>
<path fill-rule="evenodd" clip-rule="evenodd" d="M11.9999 20C16.4185 20 20 16.4185 20 11.9999C20 7.58148 16.4185 4 11.9999 4C7.58148 4 4 7.58148 4 11.9999C4 16.4185 7.58148 20 11.9999 20ZM17.3894 14.64C17.6459 14.117 17.2945 13.5325 16.7265 13.405C16.2115 13.2899 15.7065 13.5974 15.4354 14.05C14.9934 14.791 14.3235 15.3692 13.5258 15.6982C12.7281 16.0272 11.8454 16.0894 11.0094 15.8758C10.1734 15.6619 9.42903 15.1835 8.88725 14.5119C8.34546 13.8404 8.03537 13.0116 8.00324 12.1493C7.97112 11.287 8.2187 10.4374 8.70902 9.72742C9.19934 9.01743 9.90615 8.48499 10.7238 8.2096C11.5416 7.93422 12.4265 7.93065 13.2464 8.19942C14.0663 8.46822 14.7774 8.99493 15.2735 9.70094C15.596 10.1585 16.177 10.4295 16.6965 10.221C17.201 10.0185 17.4565 9.44248 17.1814 8.97348C16.653 8.06828 15.8964 7.31739 14.9873 6.79567C14.0782 6.27395 13.0482 5.99962 11.9999 5.99998C8.68649 5.99998 5.99998 8.68649 5.99998 11.9999C5.99998 15.3135 8.68649 18 11.9999 18C13.1227 18.0002 14.223 17.6854 15.1758 17.0915C16.1284 16.4976 16.8954 15.6481 17.3894 14.64Z" fill="white"/>
</svg>
