<svg width="24" height="24" viewBox="0 0 24 24" fill="none" xmlns="http://www.w3.org/2000/svg">
<g clip-path="url(#clip0_328_38246)">
<path d="M24 0H0V24H24V0Z" fill="#25AE5F"/>
<path d="M11.9997 10.0698C15.7055 10.0698 18.7096 8.71098 18.7096 7.03486C18.7096 5.35875 15.7055 4 11.9997 4C8.29408 4 5.29004 5.35875 5.29004 7.03486C5.29004 8.71098 8.29408 10.0698 11.9997 10.0698Z" fill="white"/>
<path d="M5.29004 8.4126V10.3429C5.29004 12.0204 8.29393 13.3778 11.9997 13.3778C15.7055 13.3778 18.7096 12.0204 18.7096 10.3429V8.41777H18.6837C18.3741 9.96101 15.4991 11.1738 11.9997 11.1738C8.50039 11.1738 5.62551 9.96101 5.31585 8.4126H5.29004Z" fill="white"/>
<path d="M5.29004 11.7266V13.657C5.29004 15.3292 8.29393 16.6919 11.9997 16.6919C15.7055 16.6919 18.7096 15.3292 18.7096 13.657V11.7266H18.6837C18.3741 13.275 15.4991 14.4828 11.9997 14.4828C8.50039 14.4828 5.62551 13.2698 5.31585 11.7266H5.29004Z" fill="white"/>
<path d="M5.29004 15.0347V16.9651C5.29004 18.6425 8.29393 19.9999 11.9997 19.9999C15.7055 19.9999 18.7096 18.6425 18.7096 16.9651V15.0347H18.6837C18.3741 16.5831 15.4991 17.7908 11.9997 17.7908C8.50039 17.7908 5.62551 16.5831 5.31585 15.0347H5.29004Z" fill="white"/>
</g>
<defs>
<clipPath id="clip0_328_38246">
<rect width="24" height="24" fill="white"/>
</clipPath>
</defs>
</svg>
