<svg width="24" height="24" viewBox="0 0 24 24" fill="none" xmlns="http://www.w3.org/2000/svg">
<g clip-path="url(#clip0_328_31497)">
<path d="M24 0H0V24H24V0Z" fill="black"/>
<path d="M11.9097 3.01125C11.7197 3.04625 11.5546 3.20123 11.5096 3.3812C11.4948 3.4512 11.4948 3.56619 11.5096 3.63118C11.5313 3.71792 11.5784 3.79623 11.6446 3.85616C11.7596 3.97114 11.8596 4.00614 12.0245 4.00113C12.0703 4.00066 12.1157 3.99395 12.1597 3.98114C12.4495 3.87615 12.5845 3.5462 12.4445 3.27122C12.4057 3.20138 12.3511 3.14153 12.2853 3.09641C12.2193 3.05129 12.1437 3.02213 12.0645 3.01125C11.9846 2.99625 11.9846 2.99625 11.9097 3.01125ZM4.37044 7.01078C4.29545 7.03579 4.21047 7.08078 4.15047 7.14578C4.05047 7.23577 4.01049 7.34075 4.00049 7.47573C4.00049 7.57073 4.01049 7.63072 4.05047 7.72571C4.11047 7.8457 4.25045 7.96068 4.38545 7.99068C4.44544 8.00568 4.57042 8.00568 4.62541 7.99068C4.79539 7.93569 4.93539 7.8057 4.98039 7.64071C4.99853 7.57571 5.00359 7.50776 4.99529 7.4408C4.98698 7.37382 4.96546 7.30916 4.93198 7.25057C4.8985 7.19197 4.85372 7.1406 4.80023 7.09944C4.74675 7.05829 4.68564 7.02815 4.62041 7.01078C4.53782 6.99522 4.45304 6.99522 4.37044 7.01078ZM19.3737 7.01078C19.2867 7.03188 19.2071 7.07591 19.143 7.13825C19.079 7.20062 19.0326 7.27902 19.0092 7.36533C18.9857 7.45162 18.9858 7.54264 19.0094 7.62889C19.0331 7.71514 19.0794 7.79346 19.1438 7.8557C19.2437 7.95568 19.3588 8.00068 19.4938 8.00068C19.5734 8.00471 19.6528 7.98746 19.7236 7.95069C19.8138 7.9042 19.8877 7.83167 19.9362 7.74252C19.9845 7.65338 20.0047 7.55176 19.9945 7.45088C19.9842 7.35001 19.9439 7.25457 19.8786 7.17696C19.8134 7.09936 19.7263 7.04319 19.6286 7.01579C19.5462 7.00015 19.4618 6.99845 19.3787 7.01078H19.3737ZM9.49986 11.0003H10.5148L10.5798 10.2504H13.4145L13.4845 11.0003H14.4993V9.5005H9.49986V11.0003ZM10.4998 12.5002H13.4994V11.5003H10.4998V12.5002ZM9.49986 14.5H14.4993V13.0001H13.4994L13.4145 13.7499H10.5849L10.5148 13.0001H9.49986V14.5ZM4.41543 16.0048C4.26546 16.0297 4.11547 16.1447 4.05047 16.2897C4.01049 16.3747 4.00049 16.4397 4.00049 16.5398C4.01049 16.6647 4.05548 16.7647 4.15047 16.8597C4.22047 16.9247 4.31545 16.9746 4.40044 16.9948C4.47043 17.0047 4.60042 16.9948 4.65041 16.9797C4.81539 16.9247 4.93539 16.7997 4.98537 16.6297C5.00537 16.5596 5.00537 16.4297 4.98537 16.3548C4.9494 16.237 4.87163 16.1364 4.76665 16.0718C4.66168 16.0074 4.53678 15.9836 4.41543 16.0048ZM19.4337 15.9998C19.1888 16.0348 18.9988 16.2497 18.9988 16.4998C18.998 16.6128 19.0357 16.723 19.1055 16.8121C19.1755 16.9011 19.2736 16.9637 19.3836 16.9897C19.4657 17.0092 19.5514 17.0077 19.6326 16.9853C19.7139 16.9628 19.7882 16.9201 19.8486 16.8612C19.909 16.8023 19.9534 16.7293 19.9779 16.6485C20.0024 16.5677 20.0062 16.4822 19.9886 16.3998C19.9335 16.1498 19.6887 15.9698 19.4337 15.9998ZM11.8946 20.0093C11.7297 20.0443 11.5796 20.1744 11.5247 20.3293C11.4996 20.3942 11.4948 20.5293 11.5047 20.6042C11.5293 20.716 11.5914 20.8162 11.6805 20.8881C11.7697 20.9599 11.8805 20.9993 11.9952 21C12.1096 21.0006 12.2209 20.9623 12.3107 20.8913C12.4006 20.8202 12.4636 20.7208 12.4895 20.6092C12.5095 20.5392 12.4996 20.4093 12.4745 20.3342C12.4319 20.2203 12.3502 20.1251 12.244 20.0657C12.1378 20.0062 12.0141 19.9861 11.8946 20.0093ZM6.00025 9.00057L5.00038 8.25065V11.5003L6.00025 10.7503V9.00057ZM8.25 6.00091L5.50032 7.75071L6.50019 8.50062L8.25 7.25076L10.2497 8.50062L11.9996 7.50074L13.4994 8.25065V7.00079L11.9996 6.25088L10.2497 7.25076L8.25 6.00091Z" fill="white"/>
<path d="M11.7502 4.25195L9.00049 5.75177L10.2503 6.25172L11.7502 5.50181V4.25195ZM12.2501 5.50181V4.25195L14.9997 5.75177V7.75155L16.9995 9.0014V11.0012L15.9997 11.5012V9.75135L13.9999 8.50145V6.50169L12.2501 5.50181Z" fill="white"/>
<path d="M15.9994 7.75033V6.25049L18.499 8.00029L17.2491 8.50024L15.9994 7.75033ZM18.999 8.50024L17.999 9.00018V10.9999L15.9994 11.9997V14.2496L14.4995 14.9995L15.4993 15.7494L16.9991 14.7496V12.7498L18.999 11.7499V8.50024Z" fill="white"/>
<path d="M18.9989 15.4992V12.4995L17.9991 12.9995V14.9993L18.9989 15.4992ZM18.499 15.9992L17.4991 15.4992L15.7492 16.4991L13.7494 15.4992L11.9997 16.4991L10.5 15.4992V16.7491L11.9997 17.749L13.7494 16.7491L15.7492 17.749L18.499 15.9992Z" fill="white"/>
<path d="M14.9999 18.2489L12.2503 19.4988L12.5004 17.999L13.7502 17.499L14.9999 18.2489ZM11.5004 18.2489V19.4988L9.00074 17.999V15.9992L7.00098 14.7494V13.2495L8.00085 12.4995V13.9994L10.0006 15.2492V17.2489L11.5004 18.2489Z" fill="white"/>
<path d="M8.00063 16.2501V17.4999L5.50092 16L6.5008 15.5001L8.00063 16.2501ZM6.00085 15.0003L5.00098 15.5001V12.2505L7.00075 11.0007V9.0009L8.50057 8.25098L9.50046 9.0009L8.00063 9.75089V11.5006L6.00085 12.7505V15.0003Z" fill="white"/>
</g>
<defs>
<clipPath id="clip0_328_31497">
<rect width="24" height="24" fill="white"/>
</clipPath>
</defs>
</svg>
