<svg width="24" height="24" viewBox="0 0 24 24" fill="none" xmlns="http://www.w3.org/2000/svg">
<g clip-path="url(#clip0_328_51316)">
<path d="M24 0H0V24H24V0Z" fill="#E3232C"/>
<path d="M7.71533 19.9145C9.03018 20.6291 10.5033 21.0023 11.9999 21.0001C13.5479 21.0001 15.0076 20.6092 16.2844 19.9145L11.9999 13.5322L7.71533 19.9145Z" fill="white"/>
<path d="M6.37498 11.9999V10.3125H11.4374V9.18748H6.37498V7.49998H17.6249V9.18748H12.5625V10.3125H17.6249V11.9999H12.7424L17.5215 19.1089C18.6051 18.2678 19.4819 17.1898 20.0849 15.9576C20.6878 14.7254 21.0008 13.3718 21 11.9999C21 7.02916 16.9708 3 11.9999 3C7.02916 3 3 7.02916 3 11.9999C3 14.8883 4.36405 17.4574 6.47848 19.1089L11.2581 11.9999H6.37498Z" fill="white"/>
</g>
<defs>
<clipPath id="clip0_328_51316">
<rect width="24" height="24" fill="white"/>
</clipPath>
</defs>
</svg>
