<svg width="24" height="24" viewBox="0 0 24 24" fill="none" xmlns="http://www.w3.org/2000/svg">
<g clip-path="url(#clip0_328_38286)">
<path d="M24 0H0V24H24V0Z" fill="url(#paint0_linear_328_38286)"/>
<path d="M20.6952 7.48138L14.1004 18.7578C13.901 19.101 13.6141 19.3854 13.2692 19.5821C12.9244 19.7787 12.5336 19.8807 12.1366 19.8775C11.7403 19.8768 11.351 19.7732 11.007 19.5769C10.6627 19.3806 10.3753 19.0984 10.1728 18.7578L9.01923 16.7885C9.01685 16.7862 9.01492 16.7836 9.01362 16.7808C9.0123 16.7779 9.01162 16.7748 9.01162 16.7714C9.01162 16.7682 9.0123 16.7651 9.01362 16.7623C9.01492 16.7593 9.01685 16.7568 9.01923 16.7547L9.04174 16.749L9.05862 16.7547C9.37017 17.0601 9.77722 17.2493 10.2117 17.2902C10.6459 17.3312 11.0813 17.2215 11.4445 16.9797C11.6863 16.8222 11.889 16.6139 12.0297 16.3608L17.5497 6.91867C17.6979 6.66892 17.7854 6.38792 17.8052 6.09824C17.8249 5.80857 17.7765 5.51826 17.6638 5.25068C17.5511 4.98309 17.3772 4.74569 17.156 4.55749C16.9349 4.3693 16.6727 4.23558 16.3905 4.16708L16.3737 4.16146C16.3713 4.15935 16.3694 4.15675 16.3681 4.15384C16.3668 4.15093 16.366 4.14778 16.366 4.14458C16.366 4.14139 16.3668 4.13824 16.3681 4.13531C16.3694 4.13241 16.3713 4.12982 16.3737 4.12771L16.3905 4.12207H18.7314C19.1291 4.12249 19.5198 4.22648 19.8652 4.42381C20.2105 4.62114 20.4986 4.90501 20.701 5.24748C20.8976 5.58699 21.0009 5.97271 21 6.36518C20.9989 6.75766 20.8938 7.14284 20.6952 7.48138ZM12.8907 4.12207H10.6061C10.6011 4.12335 10.5967 4.12627 10.5935 4.13036C10.5906 4.13446 10.589 4.13946 10.5891 4.14458V4.15583L10.6061 4.16708C10.7583 4.22594 10.8964 4.31662 11.0108 4.43304C11.1254 4.54949 11.2136 4.68901 11.27 4.84233C11.3252 4.99567 11.3461 5.1592 11.3315 5.3215C11.3171 5.4838 11.2673 5.64098 11.1856 5.78203L7.85445 11.4708C7.76816 11.6162 7.65071 11.7404 7.51062 11.8349C7.37049 11.9292 7.21119 11.9914 7.04417 12.0167C6.87383 12.0435 6.69967 12.0322 6.53424 11.9836C6.36882 11.9349 6.21626 11.8502 6.08758 11.7354C6.08161 11.7354 6.07588 11.7377 6.07165 11.7419C6.06745 11.7462 6.06507 11.7519 6.06507 11.7579V11.7747L7.23549 13.778C7.36652 14.0049 7.55526 14.1932 7.78255 14.3236C8.00985 14.4541 8.26763 14.5222 8.52969 14.5206C8.79215 14.5203 9.04998 14.4515 9.27786 14.3214C9.5058 14.1911 9.69578 14.0039 9.82953 13.778L14.1904 6.33911C14.2891 6.17086 14.3534 5.98454 14.3791 5.79113C14.4049 5.59772 14.3917 5.40112 14.3402 5.21288C14.2889 5.02465 14.2004 4.84861 14.0799 4.6951C13.9595 4.54158 13.8096 4.41372 13.639 4.31901C13.414 4.18959 13.155 4.12207 12.8907 4.12207ZM4.95656 4.12207C4.16879 4.12207 3.43727 4.60036 3.13343 5.32625C3.01807 5.62721 2.97662 5.95145 3.01256 6.27175C3.04849 6.59204 3.16075 6.89905 3.33992 7.16698C3.51908 7.4349 3.75992 7.65593 4.04221 7.81144C4.32449 7.96702 4.63999 8.05263 4.96219 8.0609C5.48383 8.04658 5.9798 7.83139 6.34669 7.46026C6.71359 7.08916 6.92313 6.59078 6.93163 6.06901C6.93163 4.99988 6.01442 4.12207 4.96219 4.12207H4.95656Z" fill="white"/>
</g>
<defs>
<linearGradient id="paint0_linear_328_38286" x1="19.7942" y1="16.0814" x2="1.63273" y2="3.59207" gradientUnits="userSpaceOnUse">
<stop stop-color="#5433FF"/>
<stop offset="0.5" stop-color="#20BDFF"/>
<stop offset="1" stop-color="#5CFFA2"/>
</linearGradient>
<clipPath id="clip0_328_38286">
<rect width="24" height="24" fill="white"/>
</clipPath>
</defs>
</svg>
