<svg width="24" height="24" viewBox="0 0 24 24" fill="none" xmlns="http://www.w3.org/2000/svg">
<g clip-path="url(#clip0_328_52764)">
<path d="M24 0H0V24H24V0Z" fill="#B9FF01"/>
<path d="M14.4717 3V6.29812C14.4663 6.97045 12.2588 7.43632 11.8299 7.3675C11.2476 7.2722 10.697 7.00752 10.1465 6.78516C10.0671 6.74811 9.98763 6.72164 9.90292 6.70576C9.5694 6.62635 9.57471 6.17635 9.57471 5.89049V3H14.4717Z" fill="black"/>
<path d="M9.06083 3.32266C9.11377 3.31738 9.13495 3.36503 9.11377 3.46561C9.09789 3.51855 9.0926 3.57148 9.0926 3.60854V6.51492C9.03966 6.59962 8.99732 6.67374 8.93379 6.74785C8.33019 7.40233 7.72492 8.05525 7.11796 8.70662C7.11348 8.70818 7.10867 8.70852 7.104 8.70759C7.09935 8.70667 7.09503 8.70449 7.09149 8.70132L7.08619 8.68544C7.06503 8.42075 7.04914 8.15075 7.04384 7.88606C7.04338 7.69236 7.00751 7.50039 6.93796 7.3196C6.85326 7.11314 6.70503 6.94902 6.49857 6.82726L5.81035 6.42492C5.78861 6.41191 5.77043 6.39373 5.75742 6.37198V6.34552H5.7627L5.77858 6.34021L9.06083 3.32266ZM14.9636 3.33327C15.0165 3.35973 15.0695 3.38619 15.1012 3.42856L18.2722 6.34021C18.3041 6.37198 18.2988 6.39316 18.2618 6.41433C17.9123 6.59962 17.3248 6.8802 17.1658 7.29313C17.0547 7.579 17.0072 7.87546 17.0175 8.1931C17.0282 8.35191 17.0018 8.48955 16.9752 8.63248C16.9549 8.6274 16.9365 8.61635 16.9224 8.60074C16.5993 8.26046 16.271 7.92514 15.9375 7.59489C15.5697 7.23051 15.2332 6.83558 14.9318 6.41433L14.9584 6.12318C14.9647 5.89734 14.9683 5.67145 14.9689 5.44554C14.9759 4.73968 14.9724 4.03373 14.9584 3.32796L14.9636 3.33327ZM6.49326 14.4346C6.49326 14.4611 6.48269 14.4876 6.4668 14.5142C6.45126 14.5363 6.42901 14.553 6.40328 14.5618L5.69389 14.7735C5.68849 14.7647 5.68321 14.7558 5.67801 14.747C5.67271 14.7418 5.64624 14.7311 5.64624 14.7205V7.03903C5.65153 7.01785 5.64624 7.00197 5.64624 7.00197H5.66213L5.6833 6.99666C5.9427 7.10255 6.14388 7.24019 6.28151 7.42019C6.45092 7.62666 6.49326 7.86488 6.49326 8.13487V14.4346ZM18.3199 7.03903C18.3412 7.05489 18.3518 7.07078 18.3518 7.10255V14.6941C18.3518 14.7522 18.3199 14.7788 18.2671 14.7682C18.0965 14.7487 17.9333 14.6889 17.7905 14.5935C17.5576 14.4346 17.5206 14.0852 17.5259 13.8046V8.92896C17.5206 8.55839 17.5259 8.20368 17.5311 7.87017C17.534 7.79666 17.552 7.72455 17.5841 7.6584L17.6899 7.45724C17.8171 7.24549 18.0235 7.17137 18.2248 7.07609L18.3199 7.04432V7.03903ZM11.1201 7.74311C11.1307 7.759 11.152 7.7643 11.1731 7.759C11.1813 7.75481 11.1904 7.75263 11.1996 7.75263C11.2089 7.75263 11.2179 7.75481 11.2261 7.759C11.2578 7.77488 11.279 7.80134 11.2896 7.83841C10.3578 7.849 9.42613 7.849 8.50497 7.83841C8.49438 7.83841 8.4838 7.83311 8.47851 7.81723L9.05554 7.21901C9.07291 7.20086 9.09493 7.18781 9.1192 7.18127C9.14345 7.17474 9.16906 7.17497 9.19319 7.18196L11.1201 7.74311ZM15.5618 7.84369H13.1425C13.1318 7.82783 13.1372 7.81194 13.1478 7.79077L14.8789 7.17666C14.8949 7.17171 14.9119 7.17159 14.9279 7.1763C14.944 7.181 14.9582 7.19034 14.9689 7.20313L15.5618 7.83841V7.84369Z" fill="black"/>
<path d="M5.11827 12.5285V12.5391C5.11555 12.5423 5.11176 12.5441 5.10768 12.5444H5.09709C4.75047 12.4629 4.44442 12.2601 4.23418 11.9727C4.15174 11.8258 4.08774 11.6694 4.0436 11.5068C3.93772 11.0833 3.81596 10.6652 3.67831 10.2521C3.38185 9.3522 3.55655 8.46282 3.94301 7.61579C3.95484 7.59026 3.9725 7.56787 3.99456 7.55039C4.01665 7.53292 4.0425 7.52088 4.07006 7.51521C4.3877 7.4358 4.7424 7.45168 5.07591 7.41992C5.09709 7.41992 5.11827 7.4305 5.11827 7.45698V12.5338V12.5285ZM20.3702 10.4745L20.2907 10.771C20.1 11.4751 19.6397 12.2427 18.9036 12.5604C18.9013 12.5617 18.8986 12.5625 18.8958 12.5625C18.8931 12.5625 18.8901 12.5617 18.8878 12.5604C18.8855 12.5583 18.8838 12.556 18.8828 12.5531C18.8819 12.5504 18.8818 12.5473 18.8825 12.5444V8.37282C18.9036 8.13989 18.8455 7.86461 18.9885 7.71638C19.2796 7.40934 19.6978 7.46757 20.0895 7.49932C20.1055 7.49932 20.1213 7.50991 20.1266 7.52579C20.4813 8.48929 20.5607 9.46868 20.3702 10.4745ZM8.47992 7.81696C8.47992 7.83284 8.49579 7.83814 8.50638 7.83814C9.42754 7.84872 10.3592 7.84872 11.291 7.83814C11.7357 7.89108 12.1804 7.90695 12.6358 7.89108C12.678 7.89108 12.7627 7.87519 12.8898 7.85402C12.9744 7.83814 13.0592 7.83284 13.1439 7.84342H15.5632C15.5473 7.84342 15.5526 7.83284 15.5844 7.81696L16.3997 8.71163L15.9867 8.28812C15.9782 8.28046 15.9681 8.27463 15.9572 8.27099C15.9462 8.26735 15.9347 8.26597 15.9232 8.26694H8.08817C8.07229 8.26694 8.06699 8.26694 8.06699 8.24577L8.47992 7.81696Z" fill="black"/>
<path d="M8.08673 8.26758H15.9218C15.9482 8.26758 15.9695 8.27288 15.9854 8.29405L16.3982 8.71227C16.3982 8.72816 16.4088 8.74402 16.4247 8.75991C16.4184 8.76616 16.4114 8.7715 16.4035 8.77579C16.3965 8.7774 16.3893 8.7774 16.3822 8.77579H7.67382C7.65793 8.77579 7.63675 8.7705 7.60498 8.74933C7.61795 8.74142 7.62885 8.73052 7.63675 8.71756L8.08673 8.26758Z" fill="black"/>
<path d="M7.67962 8.75C7.71139 8.77117 7.73256 8.78176 7.75373 8.78176H16.314L16.3406 8.77647L16.3617 8.76059C16.3777 8.76059 16.3881 8.76059 16.3987 8.77117L16.7376 9.14174C16.764 9.16821 16.7693 9.1947 16.7535 9.21058H7.2667C7.2561 9.21058 7.2561 9.21058 7.2561 9.19998L7.67962 8.75Z" fill="black"/>
<path d="M16.7645 9.21094V9.68738H7.23535V9.21094H16.7645Z" fill="black"/>
<path d="M7.23535 9.6875H16.7645V10.1269H7.23535V9.6875Z" fill="black"/>
<path d="M7.23535 10.127H16.7645V10.6828H7.23535V10.127Z" fill="black"/>
<path d="M7.23535 10.6816H16.7645V11.1158H7.23535V10.6816Z" fill="black"/>
<path d="M7.23535 11.1152H10.9411L10.867 11.2211L10.5176 11.6235C10.495 11.6492 10.4674 11.67 10.4364 11.6846C10.4055 11.6992 10.3718 11.7072 10.3376 11.7082H7.23535V11.1152ZM13.0481 11.1152H16.7645V11.6975H13.8105C13.7574 11.6975 13.7099 11.6975 13.6569 11.687C13.6386 11.6836 13.6218 11.6744 13.6092 11.6605L13.2228 11.2211C13.2039 11.2174 13.186 11.2103 13.1698 11.1998C13.1521 11.1841 13.1362 11.1663 13.1222 11.1471C13.1026 11.127 13.076 11.1156 13.0481 11.1152Z" fill="black"/>
<path d="M17.0758 12.889C17.1022 13.3656 17.097 13.8259 17.0545 14.292C17.0121 14.7843 17.2664 15.0859 17.7217 15.139C17.9068 15.1602 18.0921 15.2395 18.2934 15.372C18.3041 15.3824 18.3041 15.3877 18.2934 15.3983L16.4564 17.6536C16.4352 17.6748 16.4245 17.6748 16.4298 17.6429C16.5027 17.0921 16.4046 16.5323 16.1494 16.039C15.9905 15.7424 15.8158 15.4513 15.6252 15.1654C15.3341 14.7049 15.4187 14.186 15.6887 13.736C15.7682 13.609 15.9271 13.4449 16.1652 13.2436C16.4697 12.9949 16.7697 12.7409 17.0652 12.4814L17.0705 12.4867V12.889H17.0758ZM6.4561 15.1179C6.82668 14.959 7.01727 14.6572 7.02255 14.2284C7.02255 13.9637 7.01197 13.6778 6.98021 13.3656C6.96075 13.1344 6.98042 12.9017 7.03844 12.6772C7.04167 12.6753 7.04531 12.6744 7.04902 12.6744C7.05274 12.6744 7.0564 12.6753 7.05961 12.6772C7.38254 12.836 7.68959 13.0267 7.97546 13.2436C8.4678 13.6196 8.72721 14.1384 8.54721 14.7683C8.39899 15.2978 8.08136 15.7213 7.79548 16.1659C7.66842 16.3671 7.60489 16.6213 7.5996 16.8596C7.5923 17.059 7.55112 17.2561 7.47785 17.4418C7.4729 17.4466 7.46624 17.4494 7.45932 17.4494C7.45239 17.4494 7.44573 17.4466 7.44079 17.4418L5.69378 15.3136C5.67261 15.2819 5.67789 15.2713 5.71496 15.2713C5.96907 15.2713 6.21788 15.2184 6.4561 15.1125V15.1179Z" fill="black"/>
<path d="M14.6468 13.619V15.1277L15.1339 16.5836C15.1709 16.6365 15.1762 16.6894 15.1762 16.7529V18.3517H8.82349V16.843C8.82349 16.7478 8.85524 16.6313 8.90819 16.5465L9.33171 15.0747C9.35817 15.0324 9.35288 14.9794 9.35288 14.9319V13.8043C9.35288 13.7566 9.38994 13.709 9.4164 13.672L10.2635 12.592C10.2714 12.5788 10.2822 12.5678 10.295 12.5596C10.3078 12.5513 10.3224 12.5462 10.3376 12.5443C10.4169 12.5443 10.4859 12.5283 10.56 12.5283H13.7945C13.805 12.5283 13.8104 12.5443 13.8157 12.5443L13.8262 12.5602L14.6468 13.619Z" fill="black"/>
<path d="M11.5231 14.6312L10.8454 14.2765V14.2712L10.8402 14.2607L10.8349 13.6094V13.5989C10.8349 13.5946 10.8366 13.5907 10.8396 13.5876C10.8425 13.5847 10.8466 13.583 10.8508 13.583C10.855 13.583 10.8589 13.5847 10.8621 13.5876C10.865 13.5907 10.8666 13.5946 10.8666 13.5989L11.5496 14.6046C11.5537 14.6061 11.5572 14.6091 11.5591 14.613C11.5612 14.6172 11.5616 14.6217 11.5601 14.6259C11.5587 14.6301 11.5558 14.6335 11.5518 14.6355C11.5478 14.6375 11.5432 14.6379 11.5389 14.6366H11.5283L11.5231 14.6312ZM13.2543 13.5989L13.2489 14.2607V14.2712H13.2383L12.5501 14.6312H12.5396C12.5363 14.6299 12.5335 14.6279 12.5316 14.625C12.5297 14.6222 12.5288 14.6187 12.5289 14.6153V14.6046L13.2171 13.5883H13.2277C13.2306 13.5857 13.2345 13.5842 13.2383 13.5842C13.2422 13.5842 13.2459 13.5857 13.2489 13.5883V13.5989H13.2543ZM15.0859 18.9352C14.8901 19.4274 14.7153 19.9091 14.5036 20.391C14.4454 20.5287 14.3447 20.6715 14.2018 20.7087C12.7724 21.0634 11.2743 21.1427 9.90844 20.6715C9.61197 20.5657 9.45845 20.248 9.34199 19.9516C9.20434 19.6022 9.05611 19.2581 8.90788 18.9193C8.8973 18.8981 8.90258 18.8823 8.92378 18.8823H15.0754L15.0859 18.8981C15.0888 18.9039 15.0902 18.9103 15.0902 18.9167C15.0902 18.9231 15.0888 18.9294 15.0859 18.9352Z" fill="black"/>
</g>
<defs>
<clipPath id="clip0_328_52764">
<rect width="24" height="24" fill="white"/>
</clipPath>
</defs>
</svg>
