<svg width="24" height="24" viewBox="0 0 24 24" fill="none" xmlns="http://www.w3.org/2000/svg">
<g clip-path="url(#clip0_328_45022)">
<path d="M24 0H0V24H24V0Z" fill="url(#paint0_radial_328_45022)"/>
<path d="M18.5082 7.33802L17.1999 9.36542C17.6124 10.183 17.8264 11.0864 17.825 12.0021C17.8235 12.9179 17.6064 13.8206 17.1914 14.6368C16.7763 15.4532 16.1747 16.1603 15.4356 16.7009C14.6963 17.2415 13.8403 17.6006 12.9366 17.7489C11.7271 17.9469 10.4897 17.7489 9.39324 17.199L7.36035 18.5064C8.51015 19.3297 9.85796 19.8332 11.266 19.965C12.6742 20.0968 14.0919 19.8524 15.3745 19.2566C16.6573 18.661 17.7587 17.7354 18.5664 16.5743C19.3741 15.4135 19.859 14.059 19.9716 12.6492C20.1271 10.7599 19.6087 8.87663 18.5082 7.33301H18.5132L18.5082 7.33802Z" fill="white"/>
<path d="M12.0115 16.0069C12.9517 16.0077 13.8624 15.6784 14.5847 15.0767C15.3071 14.4748 15.7953 13.6385 15.9643 12.7137C14.7116 12.4421 13.4161 12.4367 12.1611 12.6976C10.9063 12.9586 9.72022 13.4801 8.67969 14.2285C9.04704 14.7751 9.54296 15.2231 10.1238 15.533C10.7048 15.8432 11.3531 16.0059 12.0115 16.0069Z" fill="white"/>
<path d="M13.9923 11.777C14.6794 11.777 15.3573 11.8526 16.0297 11.9985C16.0297 11.1804 15.7799 10.3816 15.3139 9.70906C14.848 9.03652 14.188 8.52206 13.422 8.23438C12.6561 7.9467 11.8206 7.89949 11.0271 8.09903C10.2337 8.29857 9.5199 8.73538 8.98115 9.35116C8.60382 9.78371 8.32367 10.2921 8.15961 10.8421C7.99556 11.3921 7.95143 11.971 8.0302 12.5394C7.47486 12.9476 6.96942 13.4197 6.52428 13.946C6.23841 13.1281 6.13831 12.2569 6.23129 11.3955C6.32426 10.5342 6.60795 9.70438 7.06177 8.96638C7.51558 8.22839 8.1281 7.60079 8.85481 7.12917C9.58154 6.65753 10.4041 6.35375 11.263 6.23983C12.4109 6.08985 13.578 6.28684 14.6133 6.80481L16.6367 5.49188C15.4807 4.66456 14.1249 4.16078 12.7091 4.03257C11.2933 3.90432 9.86903 4.1563 8.58321 4.76245C7.29736 5.3686 6.19662 6.30696 5.3946 7.48066C4.59258 8.65436 4.11837 10.0208 4.02093 11.439C3.88639 13.3405 4.43554 15.2274 5.56934 16.7598C5.94625 16.0781 6.4044 15.4448 6.93376 14.8734C7.36924 14.4225 7.84133 14.0087 8.34519 13.636C9.98335 12.4309 11.9633 11.7802 13.9969 11.7781L13.9923 11.777Z" fill="white"/>
</g>
<defs>
<radialGradient id="paint0_radial_328_45022" cx="0" cy="0" r="1" gradientUnits="userSpaceOnUse" gradientTransform="translate(18.1188 3.99461) scale(17.034 17.0165)">
<stop offset="0.1" stop-color="#26DB8D"/>
<stop offset="0.26" stop-color="#23D29A"/>
<stop offset="0.56" stop-color="#1ABBBB"/>
<stop offset="0.89" stop-color="#0E9DE5"/>
</radialGradient>
<clipPath id="clip0_328_45022">
<rect width="24" height="24" fill="white"/>
</clipPath>
</defs>
</svg>
