<svg width="24" height="24" viewBox="0 0 24 24" fill="none" xmlns="http://www.w3.org/2000/svg">
<g clip-path="url(#clip0_328_45179)">
<path d="M24 0H0V24H24V0Z" fill="#1111FF"/>
<path d="M15.647 4.94141H7.5294C7.19058 4.94141 6.82352 5.20964 6.82352 5.53436V7.172C6.82352 7.50141 7.19058 7.76494 7.5294 7.76494H12.2446L4 15.2943H7.96705L16.7388 7.46376C17.6799 6.52259 16.9976 4.94141 15.647 4.94141ZM8.35293 19.059H16.7059C17.0447 19.059 17.1765 18.7907 17.1765 18.466V16.8284C17.1765 16.499 17.0447 16.2354 16.7059 16.2354H11.7553L20 8.70612H16.0329L7.26118 16.5366C6.31999 17.4778 7.00234 19.059 8.35293 19.059Z" fill="white"/>
</g>
<defs>
<clipPath id="clip0_328_45179">
<rect width="24" height="24" fill="white"/>
</clipPath>
</defs>
</svg>
