<svg width="24" height="24" viewBox="0 0 24 24" fill="none" xmlns="http://www.w3.org/2000/svg">
<path d="M24 0H0V24H24V0Z" fill="black"/>
<path d="M20 12.5H4C4.045 13.195 4.175 13.865 4.385 14.5H11L11.4999 14H19.7599C19.885 13.515 19.9699 13.015 20 12.5ZM4.78999 15.4999C5.05002 16.0337 5.36865 16.5368 5.73998 16.9999H8.98998L9.49998 16.5H18.635C18.8499 16.18 19.045 15.8499 19.215 15.4999H4.78999ZM17.3 18H6.69998C8.10998 19.245 9.96495 20 11.9999 20C14.0299 20 15.89 19.245 17.3 18ZM13.7499 11L13.2499 11.4999H4C4.045 10.805 4.175 10.1349 4.385 9.49998H19.615C19.775 9.98 19.89 10.485 19.955 11H13.7499ZM18.945 7.99998C18.6298 7.45777 18.2522 6.95434 17.82 6.49998H6.17999C5.61754 7.09199 5.1488 7.76644 4.78999 8.49998H15.505L16.005 7.99998H18.945ZM7.32499 5.49999H16.675C15.3599 4.55499 13.745 4 11.9999 4C10.255 4 8.63998 4.55499 7.32499 5.49999Z" fill="white"/>
</svg>
