<svg width="24" height="24" viewBox="0 0 24 24" fill="none" xmlns="http://www.w3.org/2000/svg">
<g clip-path="url(#clip0_328_38343)">
<path d="M24 0H0V24H24V0Z" fill="url(#paint0_linear_328_38343)"/>
<path d="M8.703 4.0887C8.5747 4.01726 8.42723 3.98783 8.28134 4.00458C8.13544 4.02132 7.99847 4.08338 7.88968 4.18203L7.03189 4.95538C6.65412 5.2976 6.72078 5.93315 7.17412 6.17316L14.0986 9.90651L9.25412 13.4621C8.91635 13.7021 8.95635 14.2266 9.32523 14.4132L17.3163 18.4532L16.2052 19.2577L6.663 13.9021L11.1652 10.7021C11.4897 10.4709 11.4763 9.97312 11.1341 9.76428L8.36967 8.0665L7.96079 8.67984L10.5253 10.2531L6.00966 13.4665C5.68078 13.7021 5.70744 14.2132 6.05855 14.4132L15.8586 19.911C16.0987 20.0444 16.3919 20.0265 16.6142 19.8665L17.7297 19.0576C17.8315 18.9817 17.9127 18.8813 17.9654 18.7658C18.0183 18.6503 18.041 18.5232 18.0318 18.3965C18.0224 18.2698 17.9814 18.1475 17.9122 18.0409C17.8431 17.9342 17.7483 17.8467 17.6363 17.7865L9.91191 13.8843L14.7564 10.3377C15.0852 10.0976 15.0497 9.58206 14.6942 9.39095L7.50746 5.51093L8.36078 4.73759L17.3431 9.71539L12.4763 13.2754C12.1518 13.5155 12.183 14.0265 12.5341 14.2221L16.9563 16.6755L17.3431 15.9955L13.1297 13.7065L17.9964 10.1465C18.3208 9.9065 18.2897 9.3954 17.9386 9.19984L8.703 4.0887ZM7.58301 8.44428L7.9919 7.83539L7.17412 7.33316L6.80522 7.96872L7.58301 8.44873V8.44428Z" fill="white"/>
</g>
<defs>
<linearGradient id="paint0_linear_328_38343" x1="6.22286" y1="5.99982" x2="16.6674" y2="19.3333" gradientUnits="userSpaceOnUse">
<stop stop-color="#02EEE4"/>
<stop offset="1" stop-color="#07A9FC"/>
</linearGradient>
<clipPath id="clip0_328_38343">
<rect width="24" height="24" fill="white"/>
</clipPath>
</defs>
</svg>
