<svg xmlns="http://www.w3.org/2000/svg" width="24" height="24" fill="none" viewBox="0 0 24 24">
    <g clip-path="url(#dogechain__a)">
        <path fill="#fff" d="M24 0H0v24h24z"/>
        <path fill="url(#dogechain__b)" d="M12 4.15a7.85 7.85 0 1 0 0 15.7 7.85 7.85 0 0 0 0-15.7"/>
        <path fill="#000" fill-rule="evenodd" d="M12 19.7a7.7 7.7 0 1 0 0-15.4 7.7 7.7 0 0 0 0 15.4m8-7.7a8 8 0 1 1-16 0 8 8 0 0 1 16 0" clip-rule="evenodd"/>
        <path fill="#000" d="m5.87 11.487-.403.402-.403-.402.403-.403zm13.057-.093-.402.403-.403-.403.403-.402zm-14.103 1.44 1.592-.397.283 1.137-.227.057.057.227-.228.057.057.227-.682.17-.057-.227-.227.056-.057-.227-.227.057zm.341.398.113.455.228-.057.056.227.683-.17-.057-.227.227-.057-.113-.455zm.425 2.071.197-.128-.127-.196.982-.638.128.196.197-.128.638.983-.197.128.128.196-.983.639-.127-.197-.197.128zm.325.069.383.59.983-.639-.383-.59zm1.262 1.943.148-.183-.182-.147.147-.182-.182-.148.442-.546.182.147.148-.182.182.148.148-.182.91.737-.147.182-.729-.59-.147.182-.182-.147-.443.546.182.148-.147.182.364.295.295-.364-.182-.148.147-.182.547.443-.59.728zm1.755 1.166.56-1.541 1.542.56-.08.22-1.101-.4-.16.44.88.321-.08.22-.88-.32-.16.44 1.1.401-.08.22zm2.667.674v-.235h-.235v-.234h-.234v-.703h.234v-.235h.235v-.234h.937v.235h.234v.234h-.468v-.235h-.469v.235h-.234v.703h.234v.234h.469v-.234h.468v.234h-.234v.235zm2.058-.166-.57-1.539.44-.162.244.66.66-.245-.245-.66.44-.162.57 1.539-.44.162-.244-.659-.66.244.244.66zm2.263-.979-.738-.91.182-.148-.147-.182.182-.147-.148-.182.547-.443.147.182.182-.147.148.182.182-.148.737.911-.364.295-.295-.364-.546.442.295.365zm-.079-.84.547-.443-.295-.364-.182.147-.148-.182-.182.147.147.182-.182.148zm1.824-.775-.196-.128.255-.393-.983-.638-.255.393-.196-.127.765-1.18.197.128-.255.393.982.638.256-.393.196.128zm1.083-1.955-1.592-.396.114-.455.227.057.057-.228.227.057.057-.227.227.056.057-.227-.682-.17.113-.455 1.592.397-.113.455-.455-.114-.057.228-.228-.057-.056.227-.228-.056-.056.227.91.227z"/>
        <path fill="url(#dogechain__c)" stroke="#000" d="m12.929 7.051-.116.125A5.5 5.5 0 0 0 11.7 7.06q-.398.001-.778.065c-.38-.113-.68-.222-1.045-.605q-.045-.045-.092-.098c-.187-.2-.431-.46-.682-.634a1.06 1.06 0 0 0-.49-.203.6.6 0 0 0-.51.203c-.264.28-.496.833-.631 1.544a8.2 8.2 0 0 0-.049 2.575 4.6 4.6 0 0 0-.358 1.789c0 .947.284 1.828.772 2.561a4.636 4.636 0 0 0 8.693-.823c.282-.51.44-1.08.44-1.68 0-1.22-.653-2.307-1.671-3.046-.293-.563-.306-.958-.32-1.39l-.01-.245-.01-.233-.005-.16a1.7 1.7 0 0 0-.042-.338.5.5 0 0 0-.174-.283.56.56 0 0 0-.353-.102.6.6 0 0 0-.256.07 2 2 0 0 0-.252.154c-.17.122-.353.282-.518.438a11 11 0 0 0-.429.431Z"/>
        <path fill="#fff" fill-rule="evenodd" d="M7.397 12.922c.129.452.327.875.581 1.256a4.473 4.473 0 0 0 8.399-.803c.276-.493.43-1.042.43-1.62s-.154-1.128-.431-1.621q-.26-.089-.437.007c-.18.1-.266.344-.267.694 0 .221-.228.396-.44.332-.617-.187-1.215-.162-1.716.117q-.189.105-.346.25c-.48.438-1.566.722-2.07.312-.976-.792-2.022-1.084-2.782-.662-.552.307-.86.94-.92 1.738" clip-rule="evenodd"/>
        <path fill="#F7ECDF" fill-rule="evenodd" d="M11.739 15.759c-1.417.13-2.837-.896-3.83-1.739a4.474 4.474 0 0 0 8.466-.632l-.094.21a.37.37 0 0 1-.549.153q-.045.235-.18.432a1.58 1.58 0 0 1-1.257.62c-.265 0-.513-.062-.727-.168.05.17-.413.994-1.83 1.124" clip-rule="evenodd"/>
        <path fill="#000" d="M8.49 8.79c-.255-.839-.19-1.865 0-2.457.334 1.116 1.142 1.773 1.142 1.773-.337.073-.818.356-1.141.683m5.239 2.963c.252-.54 1.74-.637 1.975 0 .13.354-.395 1.16-.746 1.211-.503.075-1.51-.615-1.23-1.211"/>
        <path fill="#fff" d="M12.229 9.161c-.202.157-.954.17-1.03-.06-.075-.23.41-.724.763-.568.295.13.528.425.267.628m2.351-.304c-.14.21-.516.187-.666 0s-.127-.542.264-.513c.326.024.497.372.403.513" opacity=".5"/>
        <path fill="#000" d="M13.489 14.781c-.085-.074.02-.17.123-.124.203.093.435.146.682.146.633 0 1.172-.348 1.372-.832.018-.044.083-.04.083.008 0 .633-.59 1.147-1.318 1.147-.37 0-.703-.132-.942-.345"/>
        <path fill="#000" fill-rule="evenodd" d="M17.454 8.864 8.2 9.96l.052.444 1.407-.166.052.444.444-.053.053.445.444-.053.053.444 1.48-.175-.052-.444.444-.053-.053-.444.445-.052-.053-.445 4.59-.542zm-3.65.882 3.258-.385.052.444-3.257.386zm2.866.112-2.369.28.053.444.444-.052.053.444 1.48-.175-.052-.444.444-.053z" clip-rule="evenodd"/>
        <path fill="#fff" d="m16.172 9.466.445-.053.052.445-.444.052zm-.389.496.444-.052.052.444-.444.052zm-3.756-.006.445-.053.052.444-.444.053z"/>
        <path fill="#fff" d="m11.636 10.453.444-.053.052.444-.444.053z"/>
        <path stroke="#000" stroke-linecap="round" d="M16.079 12.07c.367.484-.035 1.36-.732 1.348a.56.56 0 0 0-.412.164c-.55.585-1.71.658-2.069-.15a.4.4 0 0 0-.174-.194l-.285-.143"/>
        <path fill="#000" d="M14.16 14.079c.897.36 1.425-.333 1.379-.593l-.623.071z"/>
    </g>
    <defs>
        <linearGradient id="dogechain__b" x1="12.001" x2="12.001" y1="20" y2="4" gradientUnits="userSpaceOnUse">
            <stop stop-color="#7774F4"/>
            <stop offset=".715" stop-color="#9157F9"/>
            <stop offset="1" stop-color="#B133FF"/>
        </linearGradient>
        <linearGradient id="dogechain__c" x1="12.016" x2="12.016" y1="5.746" y2="16.766" gradientUnits="userSpaceOnUse">
            <stop stop-color="#FBF476"/>
            <stop offset=".45" stop-color="#FFA725"/>
            <stop offset="1" stop-color="#FFA725"/>
        </linearGradient>
        <clipPath id="dogechain__a">
            <path fill="#fff" d="M0 0h24v24H0z"/>
        </clipPath>
    </defs>
</svg>
