<svg xmlns="http://www.w3.org/2000/svg" width="24" height="24" fill="none" viewBox="0 0 24 24">
    <g clip-path="url(#karura__a)">
        <path fill="url(#karura__b)" d="M24 0H0v24h24z"/>
        <path fill="#fff" d="m15.483 4-4.925 4.476a2.8 2.8 0 0 1-1.863.723l-1.468.004L7.222 4H4.568v14.866h1.447c.81 0 1.565-.429 1.961-1.134l.008-.013c.263-.472.395-1.405.37-2.041-.058-1.456-.292-1.835-.292-1.835-.05.998-1.092 1.052-1.092 1.052.742-.708.338-1.244.338-1.244-1.313.935-1.641-.063-1.666-.153.04.035.414.346 1.124-.626.75-1.028 1.752-2.742 2.389-3.183.638-.442 1.243-.405 1.243-.405s.348-.472 1.27-.865c.921-.39 1.512.182 1.512.182-.942.76-2.221 2.009-2.293 3.797-.057 1.448 3.063 3.932 2.515 7.601.328-.833.46-1.668.347-2.7-.09-.834-.627-2.575-.627-2.575l2.996 4.14h3.314l-6.477-8.897L19.432 4z"/>
        <path fill="#fff" d="M9.449 10.402c-.21.347-.21.453-.21.453s.732-.124.93-.993c.002 0-.467.12-.72.54"/>
    </g>
    <defs>
        <linearGradient id="karura__b" x1="26.904" x2="14.598" y1="14.469" y2="1.093" gradientUnits="userSpaceOnUse">
            <stop stop-color="#E40C5B"/>
            <stop offset="1" stop-color="#FF4C3B"/>
        </linearGradient>
        <clipPath id="karura__a">
            <path fill="#fff" d="M0 0h24v24H0z"/>
        </clipPath>
    </defs>
</svg>
