<svg xmlns="http://www.w3.org/2000/svg" width="24" height="24" fill="none" viewBox="0 0 24 24">
    <g clip-path="url(#starknet__a)">
        <path fill="#0C0C4F" d="M24 0H0v24h24z"/>
        <path fill="#FAFAFA" fill-rule="evenodd" d="m7.824 9.683.248-.766a.5.5 0 0 1 .33-.325l.77-.237c.107-.033.107-.183.002-.218l-.767-.248a.5.5 0 0 1-.325-.33l-.237-.77c-.032-.106-.183-.108-.217-.002l-.248.767a.5.5 0 0 1-.33.325l-.77.237a.114.114 0 0 0-.002.217l.767.248c.155.05.276.174.325.33l.236.77a.114.114 0 0 0 .218.002" clip-rule="evenodd"/>
        <path fill="url(#starknet__b)" fill-rule="evenodd" d="M20 9.237c-.318-.355-.813-.555-1.295-.637a4.5 4.5 0 0 0-1.475.014c-.97.164-1.851.566-2.62 1.061-.4.243-.74.525-1.092.811-.17.145-.325.3-.486.452l-.441.438c-.48.501-.952.957-1.409 1.335-.458.377-.887.663-1.31.862a3.5 3.5 0 0 1-1.463.338c-.584.02-1.275-.085-2.014-.26-.743-.172-1.523-.419-2.395-.631.304.843.762 1.59 1.35 2.271.595.67 1.338 1.28 2.293 1.682a5.55 5.55 0 0 0 3.228.335c1.108-.213 2.081-.726 2.867-1.319a10.2 10.2 0 0 0 1.964-1.991c.148-.196.226-.306.334-.46l.297-.439c.206-.272.394-.581.598-.85.4-.565.795-1.129 1.253-1.648.231-.264.475-.515.762-.758q.213-.179.47-.338c.174-.112.357-.2.584-.268" clip-rule="evenodd"/>
        <path fill="#FAFAFA" fill-rule="evenodd" d="M20 9.237c-.341-.861-.975-1.586-1.827-2.12a4.5 4.5 0 0 0-3.186-.57 5.2 5.2 0 0 0-1.621.611 6.8 6.8 0 0 0-1.301.994c-.19.184-.36.376-.53.569l-.44.562-.682.904c-.867 1.164-1.802 2.528-3.336 2.932-1.505.397-2.158.046-3.077-.1.168.434.376.855.658 1.226.277.378.604.733 1.01 1.037.206.147.423.29.664.413.24.119.499.223.775.3a4.5 4.5 0 0 0 1.766.123 5.3 5.3 0 0 0 1.672-.521 7 7 0 0 0 1.335-.875 10.7 10.7 0 0 0 1.898-2.086c.257-.361.49-.73.707-1.098l.255-.438c.078-.128.156-.257.236-.377.323-.483.638-.87 1.021-1.16.378-.298.904-.519 1.607-.57.7-.052 1.508.044 2.396.244" clip-rule="evenodd"/>
        <path fill="#EC796B" fill-rule="evenodd" d="M16.213 16.39a1.145 1.145 0 1 0 2.29 0 1.145 1.145 0 0 0-2.29 0" clip-rule="evenodd"/>
    </g>
    <defs>
        <linearGradient id="starknet__b" x1="22.202" x2="-16.341" y1="2.883" y2="13.996" gradientUnits="userSpaceOnUse">
            <stop stop-color="#EC796B"/>
            <stop offset="1" stop-color="#D672EF"/>
        </linearGradient>
        <clipPath id="starknet__a">
            <path fill="#fff" d="M0 0h24v24H0z"/>
        </clipPath>
    </defs>
</svg>
