<svg xmlns="http://www.w3.org/2000/svg" width="24" height="24" fill="none" viewBox="0 0 24 24">
    <g clip-path="url(#status__a)">
        <path fill="#7140FD" d="M0 0h24v24H0z"/>
        <path fill="#fff" fill-rule="evenodd" d="M15.557 6.05a4 4 0 0 0-.396.718q-.078.18-.14.354c-.147.403-.239.77-.331 1.14l-.004.016c-.118.467-.236.935-.467 1.476a4.3 4.3 0 0 1-.428.77l-.004.006-.002.004c2.067.598 4.377-.197 5.216-2.146.516-1.197.229-2.696-.935-3.213-.937-.417-1.856-.075-2.508.875zM4.163 12.02q.131-.39.338-.747.1-.17.2-.323c.234-.358.472-.65.711-.942l.023-.028c.298-.366.597-.734.887-1.237a4.3 4.3 0 0 0 .364-.815c1.687 1.358 2.409 3.733 1.352 5.567-.649 1.128-2.007 1.77-3.1 1.11-.88-.53-1.147-1.49-.775-2.585M20 16.594c-2.23 0-4.04-1.844-4.04-4.119h-2.358C13.602 16.08 16.466 19 20 19zm-7.7-4.119C12.3 16.08 9.434 19 5.9 19v-2.406c2.23 0 4.04-1.844 4.04-4.119zm0 0-.002-7.283h-2.36l.002 7.283z" clip-rule="evenodd"/>
    </g>
    <defs>
        <clipPath id="status__a">
            <path fill="#fff" d="M0 0h24v24H0z"/>
        </clipPath>
    </defs>
</svg>
