<svg xmlns="http://www.w3.org/2000/svg" width="24" height="24" fill="none" viewBox="0 0 24 24">
    <g clip-path="url(#uptick__a)">
        <path fill="#7800F4" d="M24 0H0v24h24z"/>
        <path fill="url(#uptick__b)" d="m13.753 20.953-3.589-3.7a.15.15 0 0 0-.21-.005l-1.138 1.096a.15.15 0 0 1-.21-.004l-1.573-1.617a.15.15 0 0 1 .005-.21l7.348-7.081a.15.15 0 0 1 .21.004l5.363 5.533a.15.15 0 0 1-.005.21l-5.995 5.779a.14.14 0 0 1-.206-.005m-1.751-5.468 1.81 1.868a.15.15 0 0 0 .211.005l2.324-2.239a.15.15 0 0 0 .005-.21l-1.81-1.868a.15.15 0 0 0-.211-.005l-2.324 2.239a.14.14 0 0 0-.005.21"/>
        <path fill="#fff" d="m14.4 6.983-4.717 4.541a.15.15 0 0 1-.21-.004L7.661 9.65a.15.15 0 0 1 .004-.21l3.906-3.764a.149.149 0 0 0-.106-.256H8.212a.16.16 0 0 0-.106.041l-4.06 3.915a.15.15 0 0 0-.005.21l5.372 5.537c.055.06.15.06.21.005l6.55-6.314a.15.15 0 0 0 .005-.21L14.61 6.988c-.06-.06-.15-.064-.21-.005m-2.287-2.572-1.348-1.389a.073.073 0 0 0-.105 0l-1.45 1.39c-.046.045-.014.127.05.127h2.797c.064 0 .1-.082.055-.128"/>
    </g>
    <defs>
        <linearGradient id="uptick__b" x1="13.495" x2="13.495" y1="19.498" y2="9.528" gradientUnits="userSpaceOnUse">
            <stop/>
            <stop offset=".999" stop-color="#2A005A"/>
        </linearGradient>
        <clipPath id="uptick__a">
            <path fill="#fff" d="M0 0h24v24H0z"/>
        </clipPath>
    </defs>
</svg>
