<svg xmlns="http://www.w3.org/2000/svg" width="24" height="24" fill="none" viewBox="0 0 24 24">
    <g clip-path="url(#vana__a)">
        <path fill="#F0F0E9" d="M0 0h24v24H0z"/>
        <path fill="#000" d="M11.982 20H8.039c-.471 0-.583-.082-.67-.556-.178-.986-.34-1.975-.512-2.962-.252-1.44-.507-2.877-.756-4.316-.209-1.203-.41-2.408-.618-3.612L4.836 4.86a2.4 2.4 0 0 1-.036-.4c.002-.273.144-.446.412-.45a141 141 0 0 1 2.6-.002c.288.002.384.225.435.455.088.4.16.804.232 1.209q.27 1.538.537 3.074.427 2.453.86 4.907.128.734.279 1.463a1.864 1.864 0 0 0 1.804 1.513 1.89 1.89 0 0 0 1.87-1.399c.216-.813.313-1.65.463-2.477.263-1.456.518-2.912.774-4.37q.303-1.749.601-3.498c.009-.047.012-.095.02-.142.116-.67.2-.742.868-.742L18.641 4c.433.003.61.178.546.6-.162 1.046-.345 2.09-.524 3.134q-.371 2.16-.747 4.317l-.637 3.64q-.314 1.804-.626 3.61-.016.099-.036.196c-.084.39-.212.499-.606.499q-2.013.002-4.028 0z"/>
    </g>
    <defs>
        <clipPath id="vana__a">
            <path fill="#fff" d="M0 0h24v24H0z"/>
        </clipPath>
    </defs>
</svg>
