<svg width="24" height="24" viewBox="0 0 24 24" fill="none" xmlns="http://www.w3.org/2000/svg">
<path d="M13.346 6.84C13.2223 6.58854 13.0307 6.37675 12.7928 6.22864C12.5549 6.08053 12.2803 6.00203 12 6.00203C11.7198 6.00203 11.4452 6.08053 11.2073 6.22864C10.9694 6.37675 10.7777 6.58854 10.654 6.84L6.59103 14.541C6.47601 14.7701 6.42162 15.0249 6.43306 15.281C6.44451 15.5371 6.52139 15.786 6.65638 16.0039C6.79138 16.2218 6.97997 16.4015 7.20416 16.5258C7.42836 16.6501 7.68067 16.7149 7.93703 16.714H16.063C16.3194 16.7149 16.5717 16.6501 16.7959 16.5258C17.0201 16.4015 17.2087 16.2218 17.3437 16.0039C17.4787 15.786 17.5555 15.5371 17.567 15.281C17.5784 15.0249 17.524 14.7701 17.409 14.541L13.346 6.84ZM9.88703 6.454C10.0818 6.05994 10.3829 5.72819 10.7563 5.49623C11.1296 5.26428 11.5605 5.14136 12 5.14136C12.4396 5.14136 12.8704 5.26428 13.2438 5.49623C13.6172 5.72819 13.9183 6.05994 14.113 6.454L18.18 14.156C18.3612 14.5161 18.447 14.9167 18.4291 15.3195C18.4113 15.7223 18.2903 16.1137 18.0779 16.4564C17.8655 16.799 17.5687 17.0815 17.2159 17.2766C16.8631 17.4718 16.4662 17.5731 16.063 17.571H7.93703C7.5349 17.5704 7.13958 17.4672 6.78838 17.2714C6.43718 17.0755 6.14169 16.7934 5.92982 16.4516C5.71795 16.1098 5.59668 15.7197 5.57747 15.318C5.55826 14.9164 5.64174 14.5164 5.82003 14.156L9.88703 6.459V6.454Z" fill="white"/>
</svg>
