<svg width="24" height="24" viewBox="0 0 24 24" fill="none" xmlns="http://www.w3.org/2000/svg">
<path fill-rule="evenodd" clip-rule="evenodd" d="M6.62602 5.57202H18.356L12.42 19.714L11.752 18.99L5.77802 6.11202L6.62602 5.57202ZM13.672 12.282C13.8 12.356 13.8 12.432 13.8 12.582H13.804C13.739 12.866 13.785 13.164 13.933 13.414C14.066 13.487 14.066 13.564 14.002 13.714L12.232 18.488L10.136 13.564C10.1032 13.5066 10.086 13.4416 10.086 13.3755C10.086 13.3094 10.1032 13.2444 10.136 13.187C10.2212 13.051 10.2656 12.8935 10.264 12.733C10.2645 12.657 10.2823 12.5821 10.316 12.514C10.3493 12.449 10.3998 12.3944 10.462 12.356L11.906 11.151C11.9523 11.1136 12.0096 11.0925 12.069 11.091C12.1285 11.0925 12.1858 11.1136 12.232 11.151C12.466 11.346 12.719 11.54 12.972 11.734C13.211 11.917 13.449 12.1 13.672 12.283M7.35902 7.34302L11.55 10.488L9.91702 11.868C9.80998 11.931 9.68554 11.958 9.56202 11.945C9.19502 11.878 9.09001 11.638 8.97801 11.378L8.92302 11.255L7.42702 7.80502C7.40071 7.74498 7.37866 7.68316 7.36102 7.62002C7.34202 7.56002 7.32402 7.50002 7.28602 7.42002L7.35902 7.34302ZM12.187 9.92502C12.1201 9.92476 12.0549 9.90418 12 9.86602L7.51702 6.57802C7.4568 6.50969 7.38 6.45803 7.29402 6.42802H16.706V6.49702C16.706 6.54802 16.676 6.56702 16.634 6.59302C16.6058 6.60911 16.5796 6.62859 16.556 6.65102C15.704 7.34902 14.823 8.01102 13.931 8.68302C13.414 9.07202 12.893 9.46302 12.373 9.86602C12.3183 9.90363 12.2534 9.92385 12.187 9.92402M14.447 11.713L12.746 10.487L16.642 7.49602H16.714C16.7097 7.53681 16.6971 7.57629 16.677 7.61202C16.6583 7.64608 16.6465 7.68343 16.642 7.72202C16.4125 8.29714 16.1851 8.87314 15.96 9.45002C15.692 10.134 15.423 10.82 15.154 11.486C15.154 11.563 15.086 11.713 15.013 11.713C14.94 11.713 14.867 11.722 14.797 11.731C14.664 11.748 14.54 11.763 14.447 11.713Z" fill="white"/>
<path d="M9.12002 13.727C9.24841 13.7254 9.37523 13.6986 9.49323 13.648C9.61123 13.5974 9.7181 13.524 9.80772 13.432C9.89735 13.3401 9.96797 13.2314 10.0155 13.1121C10.0631 12.9929 10.0867 12.8654 10.085 12.737C10.0867 12.6086 10.0631 12.4812 10.0155 12.3619C9.96797 12.2426 9.89735 12.1339 9.80772 12.042C9.7181 11.95 9.61123 11.8767 9.49323 11.826C9.37523 11.7754 9.24841 11.7486 9.12002 11.747C8.99171 11.7487 8.865 11.7757 8.74711 11.8263C8.62922 11.877 8.52247 11.9504 8.43296 12.0423C8.34344 12.1343 8.27291 12.2429 8.22539 12.3621C8.17787 12.4813 8.1543 12.6087 8.15602 12.737C8.15602 13.284 8.58802 13.727 9.12002 13.727ZM15.009 13.727C15.1373 13.7253 15.264 13.6984 15.3819 13.6477C15.4998 13.597 15.6066 13.5236 15.6961 13.4317C15.7856 13.3397 15.8561 13.2311 15.9036 13.1119C15.9512 12.9927 15.9747 12.8653 15.973 12.737C15.9747 12.6087 15.9512 12.4813 15.9036 12.3621C15.8561 12.2429 15.7856 12.1343 15.6961 12.0423C15.6066 11.9504 15.4998 11.877 15.3819 11.8263C15.264 11.7757 15.1373 11.7487 15.009 11.747C14.8806 11.7486 14.7538 11.7754 14.6358 11.826C14.5178 11.8767 14.4109 11.95 14.3213 12.042C14.2317 12.1339 14.1611 12.2426 14.1135 12.3619C14.0659 12.4812 14.0423 12.6086 14.044 12.737C14.044 13.284 14.476 13.727 15.009 13.727ZM6.21402 7.28601C6.4982 7.28601 6.77074 7.17312 6.97168 6.97217C7.17263 6.77123 7.28552 6.49868 7.28552 6.21451C7.28552 5.93033 7.17263 5.65779 6.97168 5.45684C6.77074 5.2559 6.4982 5.14301 6.21402 5.14301C5.92984 5.14301 5.6573 5.2559 5.45635 5.45684C5.25541 5.65779 5.14252 5.93033 5.14252 6.21451C5.14252 6.49868 5.25541 6.77123 5.45635 6.97217C5.6573 7.17312 5.92984 7.28601 6.21402 7.28601ZM17.786 7.28601C18.0702 7.28601 18.3427 7.17312 18.5437 6.97217C18.7446 6.77123 18.8575 6.49868 18.8575 6.21451C18.8575 5.93033 18.7446 5.65779 18.5437 5.45684C18.3427 5.2559 18.0702 5.14301 17.786 5.14301C17.5018 5.14301 17.2293 5.2559 17.0284 5.45684C16.8274 5.65779 16.7145 5.93033 16.7145 6.21451C16.7145 6.49868 16.8274 6.77123 17.0284 6.97217C17.2293 7.17312 17.5018 7.28601 17.786 7.28601ZM12.215 20.571C12.4991 20.571 12.7715 20.4582 12.9723 20.2573C13.1732 20.0565 13.286 19.7841 13.286 19.5C13.286 19.216 13.1732 18.9435 12.9723 18.7427C12.7715 18.5418 12.4991 18.429 12.215 18.429C11.931 18.429 11.6586 18.5418 11.4577 18.7427C11.2569 18.9435 11.144 19.216 11.144 19.5C11.144 19.7841 11.2569 20.0565 11.4577 20.2573C11.6586 20.4582 11.931 20.571 12.215 20.571Z" fill="white"/>
</svg>
