<svg width="24" height="24" viewBox="0 0 24 24" fill="none" xmlns="http://www.w3.org/2000/svg">
    <path d="M16.886 8.87601C16.8005 8.95458 16.6891 8.99875 16.573 9.00001H5.58399C5.19399 9.00001 4.99699 8.55401 5.26699 8.29301L7.07199 6.55301C7.15588 6.47202 7.2674 6.42591 7.38399 6.42401H18.416C18.81 6.42401 19.003 6.87401 18.729 7.13601L16.886 8.87601ZM16.886 17.452C16.8 17.5291 16.6885 17.5718 16.573 17.572H5.58399C5.19399 17.572 4.99699 17.13 5.26699 16.869L7.07199 15.124C7.1561 15.044 7.26789 14.9995 7.38399 15H18.416C18.81 15 19.003 15.446 18.729 15.707L16.886 17.452ZM16.886 10.834C16.8 10.7569 16.6885 10.7142 16.573 10.714H5.58399C5.19399 10.714 4.99699 11.156 5.26699 11.417L7.07199 13.162C7.15718 13.2403 7.26827 13.2845 7.38399 13.286H18.416C18.81 13.286 19.003 12.84 18.729 12.579L16.886 10.834Z" fill="white"/>
</svg>