<svg width="24" height="25" viewBox="0 0 24 25" fill="none" xmlns="http://www.w3.org/2000/svg">
<path d="M15.343 10.9553C15.948 11.7313 16.275 12.6883 16.273 13.6723C16.273 14.7133 15.913 15.6693 15.317 16.4243L15.266 16.4883L15.253 16.4023C15.2405 16.3319 15.2262 16.2619 15.21 16.1923C14.91 14.8513 13.942 13.6983 12.339 12.7643C11.259 12.1383 10.637 11.3843 10.474 10.5263C10.3856 9.99241 10.4299 9.445 10.603 8.93228C10.725 8.53228 10.915 8.15428 11.164 7.81828L11.79 7.03828C11.8153 7.00696 11.8473 6.9817 11.8836 6.96435C11.92 6.947 11.9597 6.93799 12 6.93799C12.0402 6.93799 12.08 6.947 12.1163 6.96435C12.1527 6.9817 12.1847 7.00696 12.21 7.03828L15.343 10.9553ZM16.329 10.1753L12.154 4.95128C12.1355 4.92815 12.1121 4.90947 12.0854 4.89664C12.0588 4.8838 12.0296 4.87714 12 4.87714C11.9704 4.87714 11.9412 4.8838 11.9145 4.89664C11.8879 4.90947 11.8644 4.92815 11.846 4.95128L7.67198 10.1793L7.65898 10.1923C6.85895 11.2084 6.42553 12.465 6.42898 13.7583C6.42898 16.8993 8.92298 19.4493 12 19.4493C15.077 19.4493 17.572 16.8993 17.572 13.7583C17.5754 12.465 17.142 11.2084 16.342 10.1923L16.329 10.1753ZM8.66998 10.9383L9.04298 10.4713L9.05598 10.5563L9.08598 10.7623C9.32998 12.0613 10.192 13.1413 11.636 13.9763C12.892 14.7093 13.62 15.5493 13.83 16.4713C13.9119 16.8292 13.9335 17.1983 13.894 17.5633V17.5853L13.877 17.5943C13.2939 17.8845 12.6513 18.0351 12 18.0343C9.64298 18.0343 7.72698 16.0813 7.72698 13.6723C7.72698 12.6393 8.07898 11.6883 8.66998 10.9383Z" fill="white"/>
</svg>
