<svg width="24" height="24" viewBox="0 0 24 24" fill="none" xmlns="http://www.w3.org/2000/svg">
<path d="M15.0652 4.7596C15.1853 4.7596 15.3102 4.77459 15.4402 4.7846C16.1602 4.83459 17.9552 4.96959 18.2201 5.83455C18.2801 6.02453 18.3301 6.20953 18.3702 6.39952C19.0201 9.14939 19.4201 11.8492 19.985 15.2241C19.985 15.2841 20 15.3491 20 15.4142C19.85 16.994 18.0902 17.224 16.8502 17.224L13.1254 17.249C11.1954 17.209 10.4255 17.239 7.88559 17.249C6.64565 17.249 4.57574 17.239 4.06076 15.8841C4.00326 15.46 3.98651 15.0314 4.01077 14.6042C4.48574 11.4243 5.12072 8.9044 5.5857 6.13953C5.60569 6.02453 5.64069 5.90455 5.70069 5.78954C5.72068 5.73956 5.76069 5.69456 5.80068 5.65956C6.73064 4.85959 8.33557 4.7696 9.49051 4.7596H9.69053C11.4805 4.80959 13.2753 4.7196 15.0652 4.7596Z" fill="url(#paint0_linear_328_26182)"/>
<path d="M15.0102 5.48059L13.8602 5.47559L9.19538 5.4856C8.94539 5.4856 8.77539 5.49559 8.6754 5.51559C8.30042 5.58059 7.98042 5.82058 7.61045 5.91558C7.33046 5.99057 7.10546 6.05057 7.04047 6.45055C6.91992 7.23691 6.81324 8.02533 6.72049 8.81544C6.4905 10.7254 6.24551 12.6302 6.00052 14.5352C6.00052 14.6652 5.98053 14.8052 6.02552 14.9351C6.3755 15.3601 6.64049 15.5351 6.91548 15.6651C7.07547 15.7401 7.22046 15.7851 7.36546 15.8051C7.69545 15.8551 8.03042 15.8701 8.41041 15.8701C10.6054 15.8951 12.3652 15.8951 14.3402 15.8951C15.0502 15.8901 15.76 15.9151 16.465 15.8501C16.89 15.8151 17.845 15.4201 18.0299 14.9852C18.13 14.7502 18.06 14.4852 18.01 14.2452C17.6682 12.5164 17.4046 10.773 17.2201 9.02043C17.1193 8.22223 17.0193 7.42394 16.92 6.62555C16.9002 6.49857 16.8786 6.3719 16.855 6.24555C16.765 5.74558 15.545 5.4856 15.0102 5.48059Z" fill="#080210"/>
<path d="M9.56033 7.01593C9.97033 7.00093 10.3853 6.99593 10.8002 7.01093H12.9852C13.5752 7.01093 14.1751 6.97593 14.7651 7.02593C14.8651 7.03093 14.965 7.05593 15.075 7.09593C15.265 7.17092 15.45 7.26091 15.63 7.36092C15.7401 7.42092 15.87 7.50091 15.885 7.62091C15.925 7.89589 15.95 8.17588 15.955 8.45586C15.955 8.54086 15.3 8.57586 15.205 8.62585L15.1401 7.90089C15.06 7.87589 14.965 7.83089 14.8901 7.81589C14.7901 7.80089 14.1051 7.7359 14.0151 7.62091C13.935 7.5209 13.9151 7.37091 13.865 7.25092H10.0653C10.0103 7.26091 9.97033 7.4959 9.96029 7.55091C9.95738 7.56254 9.95108 7.57305 9.94221 7.58107C9.93335 7.58909 9.92215 7.59426 9.91025 7.59591L8.80537 7.90589C8.74036 8.12088 8.77536 8.35587 8.75536 8.57085C8.51037 8.57085 8.27037 8.50586 8.02539 8.49587C8.02539 8.17588 8.04039 7.89089 8.08539 7.6309C8.12539 7.40091 8.77536 7.14592 8.97535 7.08093C9.16559 7.02801 9.36311 7.00607 9.56033 7.01593ZM14.2601 7.20093C14.2351 7.30092 14.2451 7.46591 14.3701 7.4959C14.4851 7.52591 14.5851 7.4959 14.67 7.42092C14.7201 7.37592 14.7101 7.32091 14.6851 7.27093C14.6278 7.21894 14.5567 7.18466 14.4805 7.17225C14.4042 7.15983 14.3259 7.16977 14.255 7.20093H14.2601ZM9.24534 7.25092C9.14533 7.51591 9.47533 7.61089 9.63532 7.42591C9.84527 7.17092 9.31533 7.05093 9.24534 7.24593V7.25092Z" fill="url(#paint1_linear_328_26182)"/>
<path d="M14.2901 7.88501C14.5068 7.98622 14.7412 8.04396 14.9801 8.055C14.995 8.20999 15.1151 8.69497 14.9201 8.79996L14.5951 9.03495L13.0701 10.1749C13.0585 10.1551 13.0516 10.1329 13.0501 10.1099C13.0401 10.0099 13.0452 9.89492 13.0552 9.75992L13.2401 9.60493C13.3301 9.51494 13.3801 9.38995 13.4651 9.28495C13.6501 9.13995 13.8201 8.97996 13.9701 8.80497C13.9851 8.81997 13.9901 8.80997 13.9701 8.80497C13.7701 8.75497 13.5752 8.65498 13.3952 8.65997C13.1351 9.07995 12.6051 9.42494 12.2002 9.68992L12.0252 9.81491C11.9752 9.86992 11.9202 9.82992 11.8752 9.78993C11.4702 9.45994 11.0352 9.16995 10.6553 8.80997L10.6353 8.72997C10.6202 8.65997 10.4853 8.68497 10.4352 8.68497C10.2753 8.71997 10.1202 8.73497 9.97031 8.72997C10.0103 8.80497 10.0803 8.88997 10.1803 8.97996C10.2103 9.00995 10.4903 9.32995 10.5453 9.42994C10.6452 9.62494 10.7602 9.81491 10.8853 9.99992C10.9353 10.0849 10.9453 10.1499 10.8853 10.2349C10.8753 10.2149 10.8552 10.1999 10.8252 10.1849C10.1753 9.76493 9.52531 9.17495 8.96533 8.70997L8.98033 8.12499C9.24532 8.04001 9.50531 7.97001 9.77525 7.90002C9.8253 7.88501 9.86532 7.87502 9.92528 7.92001C10.0253 8.01 10.1252 8.095 10.2353 8.16999L11.1202 8.83997L12.0101 9.50494C12.5652 9.08996 13.7051 8.145 14.2901 7.88501ZM13.9051 8.30999C13.8901 8.23499 13.9251 8.19499 14.0151 8.19499L14.1452 8.215C14.1801 8.225 14.4151 8.26499 14.395 8.31499L14.3901 8.32499C14.3601 8.34999 14.3101 8.40499 14.2751 8.40499C14.2101 8.41498 14.1251 8.41498 14.0251 8.40499C13.9601 8.40499 13.9201 8.36999 13.9051 8.30999Z" fill="url(#paint2_linear_328_26182)"/>
<path d="M14.0152 8.19434L14.1453 8.21434L14.3852 8.29434C14.3897 8.2965 14.3932 8.30027 14.395 8.30489C14.3969 8.30952 14.3969 8.31467 14.3951 8.31934L14.3902 8.32433L14.2902 8.39933C14.2041 8.4109 14.117 8.41425 14.0302 8.40933C13.9602 8.40432 13.9202 8.36932 13.9052 8.30933C13.8902 8.23434 13.9252 8.19434 14.0152 8.19434Z" fill="#080210"/>
<path d="M16.1753 8.14035C16.2054 8.38034 16.3553 9.32031 16.4253 9.59528C16.6003 9.62029 16.8803 9.59528 16.9953 9.62029L16.8303 8.00537" fill="url(#paint3_linear_328_26182)"/>
<path d="M15.9495 8.58046C15.8895 8.49547 15.3246 8.53546 15.2995 8.65045C15.2596 8.88045 15.3845 9.94539 15.5495 9.9504C15.6145 9.95539 16.1945 9.9504 16.1995 9.86041C16.1145 9.58042 16.1395 8.83544 15.9495 8.58046Z" fill="url(#paint4_linear_328_26182)"/>
<path d="M8.02565 8.49939C8.10065 8.61438 7.96566 9.46934 7.93066 9.71933C8.11065 9.70433 8.29064 9.71933 8.47062 9.76932C8.65062 8.92437 8.73562 8.76937 8.73562 8.57439C8.54563 8.51439 8.26564 8.50438 8.02565 8.49438V8.49939Z" fill="url(#paint5_linear_328_26182)"/>
<path d="M10.4001 9.24438C10.7601 9.53938 11.2602 9.71938 11.5751 10.0794C11.6551 10.1744 11.4751 10.3493 11.3951 10.4193C10.8702 10.8994 10.3252 11.3393 9.84514 11.8743C9.69523 12.0443 9.57019 12.1742 9.4752 12.2643C9.46021 12.2742 9.4452 12.2643 9.4502 12.2442L9.5502 12.1093C10.0438 11.5204 10.4902 10.8934 10.8852 10.2343C10.9451 10.1543 10.9351 10.0844 10.8852 9.99936C10.7226 9.74996 10.5609 9.49998 10.4001 9.24939V9.24438Z" fill="white"/>
<path d="M9.45057 12.2458V12.2508C9.45057 12.2559 9.45057 12.2608 9.46057 12.2608H9.47557C9.37558 12.3608 9.26558 12.4608 9.30558 12.5808C9.33557 12.6658 9.40557 12.7208 9.40057 12.8407C9.39557 12.8758 9.25059 13.2507 9.22058 13.3158C9.08059 13.4257 9.0156 13.3758 8.91559 13.0158C8.9106 12.9757 8.9406 12.9258 8.96059 12.8908C9.04559 12.7158 9.14059 12.5507 9.20558 12.3908C9.21809 12.3591 9.22154 12.3244 9.21557 12.2908C9.20558 12.2908 9.17058 12.2758 9.15559 12.2908C9.21058 11.8708 9.24558 11.4508 9.30057 11.0309C9.31057 10.9159 9.32557 10.7859 9.32557 10.6709C9.34058 11.0808 9.33058 11.4859 9.30057 11.8958C9.29058 12.0159 9.30057 12.2208 9.30057 12.3807C9.28557 12.3908 9.30057 12.3758 9.30057 12.3807L9.45057 12.2407V12.2458Z" fill="#B364B4"/>
<path d="M12.385 10.7301C12.2851 10.6251 12.155 10.5401 12.0051 10.4802C12.085 10.5801 12.08 10.6751 11.9901 10.7552C11.94 10.8001 11.7951 10.8901 11.6551 11.0401L11.5801 11.1251C11.915 10.9051 11.9701 10.8952 12.2801 11.1551C12.7301 11.5301 13.195 11.8751 13.625 12.275C13.785 12.285 13.955 12.245 14.1199 12.2601C14.1899 12.2651 14.24 12.2501 14.27 12.2101C14.07 12.0201 13.86 11.8451 13.64 11.6851C13.21 11.3851 12.8401 10.9951 12.3901 10.7351L12.385 10.7301Z" fill="#4B4450"/>
<path d="M15.9897 11.6249L16.0647 12.0749C16.0647 12.1599 16.0647 12.2399 16.0796 12.3249C16.1196 12.5699 16.1446 12.8249 16.1796 13.0548L16.2196 13.1948C16.2747 13.4399 16.3397 13.6798 16.4047 13.9198C16.4147 13.9699 16.4147 14.0048 16.4047 14.0348C16.3864 14.0771 16.3611 14.1161 16.3296 14.1499C16.3146 14.1398 16.3097 14.1199 16.3196 14.0898C16.3211 14.0855 16.3215 14.081 16.3205 14.0766C16.3197 14.0723 16.3176 14.0682 16.3146 14.0648C16.1815 13.9608 16.0562 13.8472 15.9396 13.7248C15.8097 13.5647 15.6647 13.4247 15.5096 13.3099L15.3947 13.2099C15.5297 13.2248 15.6347 13.2049 15.7196 13.1349L15.7296 13.1199L15.7247 13.0999C15.6922 13.0543 15.6514 13.0153 15.6047 12.9848L15.4796 12.8949C15.3355 12.774 15.2062 12.6365 15.0947 12.4848C15.0697 12.4499 15.0797 12.4349 15.1198 12.4349C15.1296 12.4349 15.1397 12.4399 15.1596 12.4649C15.3691 12.6415 15.5759 12.8215 15.7797 13.0048C15.8396 13.0548 15.9197 13.0798 15.9147 13.1798C15.9135 13.275 15.9169 13.3701 15.9247 13.4648L15.9396 13.4849C15.9443 13.4894 15.9506 13.4919 15.9571 13.4919C15.9637 13.4919 15.9699 13.4894 15.9747 13.4849L15.9796 13.4698C15.9947 13.1948 15.9847 12.9199 15.9547 12.6499L15.8996 12.1499C15.8847 11.8999 15.8847 11.6499 15.8946 11.3999C15.8946 11.3749 15.8996 11.3649 15.9147 11.3599C15.9247 11.3599 15.9347 11.3649 15.9347 11.3749L15.9897 11.6249Z" fill="#030109"/>
<path d="M15.9804 10.3652C15.8254 11.4202 16.0305 12.4201 15.9804 13.465C15.9804 13.505 15.4454 12.9551 15.3654 12.8851C15.3554 12.0001 15.2354 10.8552 15.2354 9.98022L15.9854 10.3652H15.9804Z" fill="url(#paint6_linear_328_26182)"/>
<path d="M11.9903 10.7492C12.0802 10.6742 12.0852 10.5842 12.0053 10.4841C11.9892 10.4777 11.9719 10.4749 11.9547 10.4757C11.9374 10.4767 11.9206 10.4812 11.9052 10.4892C11.7553 10.5792 11.6103 10.6742 11.4753 10.7892C10.9353 11.2341 10.3803 11.7141 10.4753 11.6491L10.2554 11.814C10.3303 11.9041 10.4654 11.9941 10.5853 11.9941C11.0603 11.5791 11.5252 11.1742 11.9903 10.7542V10.7492Z" fill="url(#paint7_linear_328_26182)"/>
<path d="M8.90013 9.79089C8.86014 9.96588 8.74014 10.1009 8.70015 10.2709C8.56016 10.9208 8.61014 11.6458 8.63015 12.3057C8.63015 12.4058 8.58015 12.4908 8.50515 12.5557C8.39016 12.6557 8.28516 12.7508 8.18016 12.8558C8.10017 12.9308 7.89519 13.0457 7.63019 13.6807C7.6252 13.6807 7.6152 13.6807 7.60519 13.6908C7.59493 13.7022 7.58493 13.7138 7.5752 13.7257C7.64519 12.7108 7.74518 11.5659 8.02517 10.5759C8.05517 10.4908 8.13517 10.4208 8.22516 10.3709C8.62016 10.1309 8.75014 9.95587 8.91513 9.5459C8.92513 9.63089 8.92014 9.71589 8.90513 9.79588L8.90013 9.79089Z" fill="url(#paint8_linear_328_26182)"/>
<path d="M16.5854 11.5601L16.6103 11.6651C16.6603 12.3049 16.7453 12.9449 16.8052 13.585C16.8102 13.6549 16.8052 13.7149 16.8003 13.7549C16.7153 13.7749 16.5003 13.805 16.5103 13.9149L16.1654 11.89L16.1553 11.7601C16.2654 11.9851 16.6053 11.7401 16.5854 11.5601Z" fill="#500770"/>
<path d="M16.2803 9.96016C16.7752 11.1651 16.4952 12.56 16.8401 13.79C16.9103 13.82 17.4052 13.965 17.6052 14.015C17.4552 12.95 17.4202 11.3552 16.9402 10.3601C16.8702 10.3001 16.4402 9.89016 16.2803 9.96016Z" fill="url(#paint9_linear_328_26182)"/>
<path d="M7.65051 10.016C7.6005 10.3909 7.14053 13.8258 7.09553 13.8457C6.87553 13.9408 6.70054 14.1257 6.46056 14.1458C6.37056 14.1559 6.37056 14.1559 6.33057 14.0758V14.0658C6.49556 12.9358 6.63555 11.7859 6.89054 10.6659C6.90054 10.6159 6.94053 10.5359 6.99053 10.4159C7.06553 10.351 7.49551 9.94097 7.6555 10.016H7.65051Z" fill="url(#paint10_linear_328_26182)"/>
<path d="M13.465 9.28491L13.37 9.4249C13.33 9.4899 13.29 9.5549 13.24 9.6049L13.0551 9.7649C13.045 9.89489 13.04 10.0099 13.0551 10.1099C13.455 10.7799 14.3199 12.0298 14.8549 12.5098C14.8249 12.3898 14.8199 12.2747 14.8149 12.2347C14.8 11.9148 14.7249 11.5848 14.6849 11.2648L14.695 11.0599V11.0498C14.7049 11.0399 14.72 11.0448 14.7249 11.0548L14.9499 12.4198C14.97 12.5547 14.9949 12.6547 15.015 12.7198C15.0349 12.7997 15.0649 12.8697 15.1049 12.9198C15.1849 13.0247 15.2799 13.1097 15.3799 13.1998L15.5099 13.3098C15.4799 13.3597 15.4399 13.4097 15.39 13.4447C15.3188 13.5045 15.2276 13.5348 15.1349 13.5297L12.955 13.5497H12.3151L10.3252 13.5347C9.9052 13.5347 9.41018 13.5347 8.84521 13.5198C8.67522 13.5147 8.56022 13.4198 8.47021 13.3047L8.62021 13.1597C8.74521 13.0598 8.89521 12.9298 8.9302 12.7597C8.95521 12.6347 9.0102 12.5247 9.09019 12.4198C9.0952 12.4097 9.20019 12.2047 9.21518 12.2948C9.22019 12.3298 9.21518 12.3648 9.20518 12.3948C9.0452 12.7848 8.76521 13.3447 9.46517 13.3947H9.88012C11.7151 13.3847 13.02 13.3847 13.79 13.3947C14.135 13.4047 14.49 13.4347 14.8149 13.3147C14.905 13.2847 14.9499 13.2197 14.9499 13.1298C14.9499 12.9198 14.83 12.6148 14.665 12.4547C14.45 12.2398 14.24 12.0148 14.03 11.7898C13.73 11.4647 13.44 11.1399 13.1 10.8649C12.8209 10.6507 12.5735 10.3983 12.365 10.1149C12.65 9.76989 13.115 9.5549 13.465 9.28491Z" fill="url(#paint11_linear_328_26182)"/>
<path d="M14.6656 12.4553C14.8405 12.6203 14.9504 12.9003 14.9504 13.1304C14.9504 13.2203 14.9056 13.2804 14.8155 13.3154C14.8405 13.2852 14.8454 13.2603 14.8255 13.2503C14.7504 13.2131 14.6863 13.1572 14.6391 13.088C14.5917 13.0188 14.563 12.9388 14.5556 12.8554C14.5405 12.7303 14.6205 12.5754 14.6656 12.4553Z" fill="#761594"/>
<path d="M8.47023 13.3052C8.50523 13.3551 8.51523 13.3701 8.50023 13.3601C8.54523 13.4452 8.55523 13.5201 8.54023 13.5801C8.48523 13.8052 8.38524 14.2701 8.16025 14.405C7.96901 14.3256 7.79687 14.2062 7.65527 14.055L8.47023 13.3052ZM15.5099 13.3101C15.7749 13.5101 16.1949 13.845 16.3749 14.125C16.2049 14.2951 16.0848 14.475 15.7849 14.475C15.7875 14.4271 15.779 14.3791 15.7599 14.335C15.6018 14.0541 15.4776 13.7553 15.39 13.4452C15.4399 13.4101 15.4799 13.3651 15.5099 13.3101Z" fill="#7A4B90"/>
<path d="M15.9499 10.716C15.9339 10.6603 15.9155 10.6052 15.8948 10.5511C15.8749 10.5511 15.8449 10.5411 15.8399 10.566V10.5811C15.8999 10.811 15.9399 11.031 15.9499 11.2511L15.9899 11.626C16.1149 12.3959 16.205 13.1759 16.4049 13.9259C16.4149 13.9659 16.4149 14.0059 16.4049 14.0359C16.2649 14.3659 15.8049 14.4959 15.4849 14.5009C15.1299 14.5059 14.7749 14.5108 14.42 14.5059C12.54 14.4959 10.6702 14.4908 8.79025 14.4908C8.53527 14.4908 8.35027 14.4808 8.16028 14.4058C7.96904 14.3263 7.79689 14.207 7.6553 14.0558C7.6053 14.0359 7.58531 14.0109 7.6053 13.9559L7.6553 13.7059C7.63531 13.6559 7.5953 13.7059 7.57531 13.7259C7.51032 14.3908 6.87035 14.8209 6.42536 15.2658C6.41976 15.2714 6.41533 15.2779 6.4123 15.2853C6.40927 15.2925 6.40771 15.3003 6.40771 15.3083C6.40771 15.3162 6.40927 15.324 6.4123 15.3313C6.41533 15.3386 6.41976 15.3453 6.42536 15.3507L6.65536 15.5607C6.73535 15.6108 6.82035 15.6458 6.91535 15.6608L6.96533 15.5559C7.19715 15.3395 7.35169 15.0532 7.40532 14.7408C7.41531 14.6908 7.47531 14.6708 7.58531 14.6809C10.3301 14.5409 13.11 14.6659 15.855 14.6608L16.5049 14.6708L16.7048 14.6608C16.7249 14.9358 16.9049 15.5058 17.1749 15.6558C17.1849 15.6558 17.1799 15.6707 17.1648 15.6858C17.3899 15.6208 17.5848 15.5159 17.7498 15.3708L17.4548 15.1008C17.1648 14.7207 17.0148 14.5759 16.6849 14.2759C16.5846 14.1812 16.5224 14.0532 16.5099 13.9158C16.3299 12.861 16.2099 11.7559 15.9499 10.716Z" fill="url(#paint12_linear_328_26182)"/>
<path d="M19.985 15.4643C19.9801 15.4543 19.975 15.4543 19.97 15.4643C19.945 15.7294 19.825 15.9394 19.695 16.1693C19.3001 16.8542 18.1602 17.1243 17.4051 17.2042L7.8256 17.2343C6.48565 17.2392 4.55575 17.0843 4.00577 15.6693C4.00577 15.9943 3.99077 16.6943 4.04577 17.0143L4.06077 17.2343C4.05577 17.8742 4.32076 18.2843 4.66074 18.7842C5.3657 18.5742 6.18068 19.5841 6.85064 19.1341C6.89195 19.1052 6.94032 19.0879 6.99063 19.0842C7.35061 19.0641 7.73061 19.0842 8.10058 19.0991C10.5005 19.2242 13.4704 19.0892 15.8352 19.1142C15.9953 19.1341 16.1502 19.1742 16.4853 19.2391C17.0652 19.2592 18.2002 19.1142 18.7901 18.8642C18.9301 18.8042 19.0201 18.6892 19.1102 18.5791L19.1701 18.5091C19.6701 17.9092 19.8801 16.9193 19.9801 16.1093C20 15.9043 20.0101 15.6693 19.9801 15.4643H19.985Z" fill="#0C0116"/>
<path d="M7.57558 6.08472C7.53557 6.08472 7.50057 6.08472 7.47559 6.06472C7.60557 5.98972 7.87556 5.83973 7.99555 5.91473C8.01555 5.92473 8.01555 5.95973 7.99555 5.96472C7.86556 6.02972 7.72556 6.06971 7.57558 6.08472Z" fill="#E788EF"/>
<path d="M15.9499 5.96001C15.915 5.97 15.8999 5.89001 15.9449 5.88501C15.985 5.88501 16.025 5.88501 16.065 5.895C16.2627 5.94462 16.4553 6.01327 16.6399 6.1C16.4053 6.09242 16.1737 6.04507 15.955 5.96001H15.9499Z" fill="#D55BE6"/>
<path d="M16.6101 6.81046C16.7851 7.03046 16.9801 7.66042 16.8201 7.96041C16.8002 7.99541 16.7602 8.01041 16.705 8.01041C16.5051 7.99041 16.2702 8.00041 16.0701 8.01041L16.0252 7.28045C16.024 7.26402 16.0189 7.24813 16.0102 7.23418C16.0015 7.22022 15.9894 7.20864 15.9751 7.20045C15.8552 7.13545 15.7302 7.06545 15.6102 6.99046C15.4352 6.88546 15.4252 6.74046 15.4102 6.57048C15.4102 6.54548 15.4051 6.57048 15.4002 6.55548C15.4002 6.51048 15.3852 6.49047 15.3652 6.48048C15.3002 6.46048 15.1802 6.47048 15.1102 6.46549L14.0802 6.46048C12.7803 6.47048 11.4853 6.47048 10.1904 6.45547C9.68043 6.46549 9.17546 6.46549 8.66549 6.44548C8.64049 6.44548 8.57549 6.46048 8.56549 6.49548V6.51547C8.4905 6.84046 8.4205 7.09546 8.04552 7.19044C7.98051 7.21045 7.95052 7.23045 7.94052 7.30044C7.89553 7.52043 7.86053 7.75042 7.83553 7.99041C7.83553 8.02041 7.81554 8.04042 7.78553 8.03541L7.17555 7.98541C7.09056 7.98541 7.11557 7.81542 7.12056 7.77042C7.13556 7.57043 7.16555 7.37044 7.19556 7.17045C7.32055 6.46048 8.06551 6.2905 8.85547 6.25049H15.2402C15.7152 6.25049 16.315 6.45048 16.6101 6.81046Z" fill="url(#paint13_linear_328_26182)"/>
<path d="M7.75048 8.06971C7.60048 8.03971 7.20049 8.0197 7.12551 8.0297C6.98051 8.52969 6.92552 9.06466 6.89551 9.57964C7.00551 9.62464 7.44548 9.65463 7.56048 9.65463C7.63048 9.50464 7.75548 8.26469 7.75548 8.06971H7.75048Z" fill="url(#paint14_linear_328_26182)"/>
<path d="M10.0752 8.24962C10.0901 8.26462 10.1052 8.28462 10.1052 8.30462C10.1152 8.34962 10.1102 8.38962 10.0951 8.43462L10.0752 8.45461C10.0251 8.4846 9.9752 8.50461 9.91512 8.50461C9.85947 8.50946 9.80371 8.49725 9.75518 8.46962C9.68961 8.43266 9.63318 8.38139 9.59017 8.31962C9.58773 8.3151 9.5863 8.31009 9.586 8.30497C9.58569 8.29984 9.58653 8.2947 9.58845 8.28992C9.59035 8.28515 9.59329 8.28086 9.59705 8.27734C9.6008 8.27384 9.60528 8.2712 9.61018 8.26962C9.71517 8.23962 9.9801 8.18462 10.0752 8.24962Z" fill="#211427"/>
<path d="M13.8852 8.05522C13.4552 7.95022 13.0302 7.76524 12.5852 7.80024C12.1753 7.83024 11.7603 7.80524 11.3553 7.81023C10.8953 7.81524 10.4053 8.10022 10.1504 8.11023L12.0053 9.51016C12.6702 9.07518 13.2653 8.55021 13.8852 8.05522Z" fill="url(#paint15_linear_328_26182)"/>
<path d="M13.5005 12.2505C13.5405 12.2554 13.5756 12.2754 13.6105 12.3005C13.6255 12.3154 13.6156 12.3454 13.5905 12.3504L10.3407 12.3605C10.3257 12.3605 10.3057 12.2955 10.3157 12.2804C10.3257 12.2655 10.3407 12.2554 10.3656 12.2554L13.5005 12.2505Z" fill="#F2BFED"/>
<path d="M7.37549 17.5647H8.52544V18.9497H7.37549V17.5647Z" fill="#202025"/>
<path d="M8.64062 17.5647H10.3805V18.9497H8.64062V17.5647Z" fill="#333237"/>
<path d="M10.4956 17.5647H12.0605V18.9497H10.4956V17.5647Z" fill="#D9D9D9"/>
<path d="M10.4956 17.5647H12.0605V18.9497H10.4956V17.5647Z" fill="url(#paint16_linear_328_26182)"/>
<path d="M13.3652 17.5647H12.2002V18.9497H13.3652V17.5647Z" fill="url(#paint17_linear_328_26182)"/>
<path d="M13.54 17.5647H15.14V18.9497H13.54V17.5647Z" fill="#353438"/>
<path d="M15.2998 17.5647H16.6748L16.5099 18.9497H15.2998V17.5647Z" fill="#222224"/>
<path d="M16.8345 17.5651L18.2995 17.4302L18.1694 18.6551L16.7744 18.9502L16.8345 17.5651Z" fill="url(#paint18_linear_328_26182)"/>
<path d="M18.4048 17.3443L19.3348 16.9194L19.1298 18.2043L18.2998 18.6142L18.4048 17.3443Z" fill="url(#paint19_linear_328_26182)"/>
<path d="M7.20562 17.5333L6.05566 17.4333L6.19066 18.8083L7.20562 18.9483V17.5333Z" fill="url(#paint20_linear_328_26182)"/>
<path d="M5.90524 17.374L5.15527 17.124L5.32527 18.494L6.07023 18.7889L5.90524 17.374Z" fill="#D9D9D9"/>
<path d="M5.90524 17.374L5.15527 17.124L5.32527 18.494L6.07023 18.7889L5.90524 17.374Z" fill="url(#paint21_linear_328_26182)"/>
<path d="M5.01054 17.1037L4.56055 16.7537L4.64055 18.2337L5.15053 18.4086L5.01054 17.1087V17.1037Z" fill="url(#paint22_linear_328_26182)"/>
<path d="M4.456 16.6349L4.16602 16.2349L4.23601 17.6748L4.456 18.0497V16.6349Z" fill="url(#paint23_linear_328_26182)"/>
<path d="M19.515 16.8094L19.8999 16.1694L19.59 17.5193L19.2549 18.0843L19.515 16.8094Z" fill="url(#paint24_linear_328_26182)"/>
<defs>
<linearGradient id="paint0_linear_328_26182" x1="7.5156" y1="5.15573" x2="20.4952" y2="17.0877" gradientUnits="userSpaceOnUse">
<stop offset="0.2" stop-color="#FEFFFF"/>
<stop offset="1" stop-color="#89888D"/>
</linearGradient>
<linearGradient id="paint1_linear_328_26182" x1="11.9998" y1="4.76749" x2="11.9998" y2="19.2522" gradientUnits="userSpaceOnUse">
<stop stop-color="#A7A6AC"/>
<stop offset="1" stop-color="#6D7371"/>
</linearGradient>
<linearGradient id="paint2_linear_328_26182" x1="4.35592" y1="8.60643" x2="20.0001" y2="8.55003" gradientUnits="userSpaceOnUse">
<stop offset="0.17" stop-color="#80788B"/>
<stop offset="0.32" stop-color="#EDF1EE"/>
<stop offset="0.58" stop-color="#F9FFF9"/>
<stop offset="0.78" stop-color="#626260"/>
</linearGradient>
<linearGradient id="paint3_linear_328_26182" x1="12.0001" y1="4.74993" x2="12.0001" y2="19.2517" gradientUnits="userSpaceOnUse">
<stop stop-color="#48494F"/>
<stop offset="1" stop-color="#84619A"/>
</linearGradient>
<linearGradient id="paint4_linear_328_26182" x1="11.9775" y1="4.75567" x2="11.9775" y2="19.2894" gradientUnits="userSpaceOnUse">
<stop stop-color="#26272A"/>
<stop offset="1" stop-color="#82529C"/>
</linearGradient>
<linearGradient id="paint5_linear_328_26182" x1="12.0497" y1="4.74898" x2="12.0497" y2="19.2508" gradientUnits="userSpaceOnUse">
<stop stop-color="#26272A"/>
<stop offset="1" stop-color="#82529C"/>
</linearGradient>
<linearGradient id="paint6_linear_328_26182" x1="11.9676" y1="4.74989" x2="11.9676" y2="19.2638" gradientUnits="userSpaceOnUse">
<stop stop-color="#D8A6E4"/>
<stop offset="1" stop-color="#59305D"/>
</linearGradient>
<linearGradient id="paint7_linear_328_26182" x1="18.7469" y1="4.73529" x2="2.95555" y2="18.066" gradientUnits="userSpaceOnUse">
<stop offset="0.41" stop-color="#FBF5FA"/>
<stop offset="0.87" stop-color="#451066"/>
</linearGradient>
<linearGradient id="paint8_linear_328_26182" x1="6.31895" y1="4.45565" x2="6.79984" y2="19.4164" gradientUnits="userSpaceOnUse">
<stop offset="0.11" stop-color="#EDCFF5"/>
<stop offset="0.41" stop-color="#29282B"/>
</linearGradient>
<linearGradient id="paint9_linear_328_26182" x1="12.0302" y1="4.76058" x2="12.0302" y2="19.2516" gradientUnits="userSpaceOnUse">
<stop stop-color="#D8A6E4"/>
<stop offset="1" stop-color="#59305D"/>
</linearGradient>
<linearGradient id="paint10_linear_328_26182" x1="17.6452" y1="4.4851" x2="17.163" y2="19.4215" gradientUnits="userSpaceOnUse">
<stop offset="0.11" stop-color="#EDCFF5"/>
<stop offset="0.41" stop-color="#29282B"/>
</linearGradient>
<linearGradient id="paint11_linear_328_26182" x1="13.1701" y1="6.65364" x2="20.5095" y2="12.3733" gradientUnits="userSpaceOnUse">
<stop offset="0.08" stop-color="white"/>
<stop offset="0.28" stop-color="#80748D"/>
<stop offset="0.93" stop-color="#FAE7F9"/>
</linearGradient>
<linearGradient id="paint12_linear_328_26182" x1="11.9945" y1="4.74215" x2="11.9945" y2="19.2525" gradientUnits="userSpaceOnUse">
<stop stop-color="#B594B5"/>
<stop offset="0.75" stop-color="#F9FEFB"/>
<stop offset="0.84" stop-color="#97729E"/>
</linearGradient>
<linearGradient id="paint13_linear_328_26182" x1="11.9982" y1="4.34395" x2="11.9982" y2="19.2454" gradientUnits="userSpaceOnUse">
<stop stop-color="#A7A3A0"/>
<stop offset="0.23" stop-color="#3A3B3D"/>
</linearGradient>
<linearGradient id="paint14_linear_328_26182" x1="11.9998" y1="11.9895" x2="14.2048" y2="20.7153" gradientUnits="userSpaceOnUse">
<stop stop-color="#26272A"/>
<stop offset="1" stop-color="#82529C"/>
</linearGradient>
<linearGradient id="paint15_linear_328_26182" x1="11.9892" y1="4.74423" x2="11.9892" y2="19.2938" gradientUnits="userSpaceOnUse">
<stop stop-color="#020107"/>
<stop offset="0.63" stop-color="#670680"/>
</linearGradient>
<linearGradient id="paint16_linear_328_26182" x1="17.6998" y1="11.9744" x2="4.0001" y2="11.9744" gradientUnits="userSpaceOnUse">
<stop stop-color="#F2D9FD"/>
<stop offset="0.26" stop-color="#6F5874"/>
</linearGradient>
<linearGradient id="paint17_linear_328_26182" x1="6.26592" y1="11.9744" x2="19.9998" y2="11.9744" gradientUnits="userSpaceOnUse">
<stop stop-color="#F2D9FD"/>
<stop offset="0.26" stop-color="#6F5874"/>
</linearGradient>
<linearGradient id="paint18_linear_328_26182" x1="17.6911" y1="12.001" x2="3.9993" y2="12.001" gradientUnits="userSpaceOnUse">
<stop offset="0.09" stop-color="#F2D9FD"/>
<stop offset="0.6" stop-color="#A27DAA"/>
</linearGradient>
<linearGradient id="paint19_linear_328_26182" x1="12.0384" y1="4.74935" x2="12.0384" y2="19.2511" gradientUnits="userSpaceOnUse">
<stop stop-color="#FBEBFA"/>
<stop offset="0.48" stop-color="#DC69EF"/>
</linearGradient>
<linearGradient id="paint20_linear_328_26182" x1="6.36521" y1="12.0232" x2="20" y2="12.0232" gradientUnits="userSpaceOnUse">
<stop stop-color="#F2D9FD"/>
<stop offset="0.81" stop-color="#A27DAA"/>
</linearGradient>
<linearGradient id="paint21_linear_328_26182" x1="12.0433" y1="4.70547" x2="12.0433" y2="19.2508" gradientUnits="userSpaceOnUse">
<stop stop-color="#FBEBFA"/>
<stop offset="0.48" stop-color="#DC69EF"/>
</linearGradient>
<linearGradient id="paint22_linear_328_26182" x1="11.9998" y1="4.7049" x2="11.9998" y2="19.2505" gradientUnits="userSpaceOnUse">
<stop stop-color="#FBEBFA"/>
<stop offset="0.71" stop-color="#DC69EF"/>
</linearGradient>
<linearGradient id="paint23_linear_328_26182" x1="12.0004" y1="4.74979" x2="12.0004" y2="19.2516" gradientUnits="userSpaceOnUse">
<stop stop-color="#FBEBFA"/>
<stop offset="1" stop-color="#DC69EF"/>
</linearGradient>
<linearGradient id="paint24_linear_328_26182" x1="19.5753" y1="16.1694" x2="19.5753" y2="18.0843" gradientUnits="userSpaceOnUse">
<stop stop-color="#FBEBFA"/>
<stop offset="1" stop-color="#DC69EF"/>
</linearGradient>
</defs>
</svg>
