<svg width="24" height="24" viewBox="0 0 24 24" fill="none" xmlns="http://www.w3.org/2000/svg">
<path fill-rule="evenodd" clip-rule="evenodd" d="M12 19.9411C14.1061 19.9411 16.1261 19.1044 17.6153 17.6153C19.1045 16.1261 19.9412 14.1061 19.9412 12C19.9412 9.89385 19.1045 7.87399 17.6153 6.38473C16.1261 4.89547 14.1061 4.05882 12 4.05882C9.89384 4.05882 7.87399 4.89547 6.38474 6.38473C4.89547 7.87399 4.05882 9.89385 4.05882 12C4.05882 14.1061 4.89547 16.1261 6.38474 17.6153C7.87399 19.1044 9.89384 19.9411 12 19.9411ZM12 21C14.387 21 16.6761 20.0518 18.364 18.3639C20.0518 16.6761 21 14.387 21 12C21 9.61306 20.0518 7.32386 18.364 5.63603C16.6761 3.94821 14.387 3 12 3C9.61306 3 7.32386 3.94821 5.63603 5.63603C3.94821 7.32386 3 9.61306 3 12C3 14.387 3.94821 16.6761 5.63603 18.3639C7.32386 20.0518 9.61306 21 12 21Z" fill="url(#paint0_linear_328_24141)"/>
<path d="M13.5879 12.2644V13.0584H6.70557L10.6762 6.70551L12.7937 10.1467H11.735L10.6762 8.29374L8.29379 12.2644H13.5879Z" fill="#44B4AC"/>
<path d="M10.9409 11.736V10.9418H17.8234L13.8528 17.2948L11.7352 13.8536H12.7939L13.8528 15.7066L16.2352 11.736H10.9409Z" fill="#44B4AC"/>
<defs>
<linearGradient id="paint0_linear_328_24141" x1="15.9706" y1="4.05882" x2="8.02941" y2="19.6766" gradientUnits="userSpaceOnUse">
<stop stop-color="#837DBA"/>
<stop offset="0.5" stop-color="#0F67A3"/>
<stop offset="1" stop-color="#56BCAF"/>
</linearGradient>
</defs>
</svg>
