<svg width="24" height="24" viewBox="0 0 24 24" fill="none" xmlns="http://www.w3.org/2000/svg">
<path d="M10.6275 3.91465L10.5439 3.979C9.3213 5.25305 10.087 8.10357 9.41785 10.3493C8.7872 12.4726 5.5506 13.6823 4.18003 14.9821C3.83786 15.2616 3.55703 15.6085 3.3551 16.0014C3.15317 16.3943 3.03448 16.8247 3.00646 17.2656C2.97845 17.7064 3.04171 18.1483 3.19228 18.5636C3.34284 18.9788 3.5775 19.3587 3.88154 19.6791C4.18558 19.9997 4.55249 20.2539 4.9593 20.426C5.36611 20.5983 5.80408 20.6846 6.2458 20.6798C6.68753 20.675 7.1235 20.5792 7.52648 20.3981C7.92945 20.2172 8.29072 19.955 8.58773 19.6279H8.6006C8.84511 19.3898 9.03168 19.0938 9.1539 18.7721L9.18618 18.682V18.6499C9.23768 18.5213 9.28272 18.3861 9.31485 18.251C9.93253 15.986 9.54652 12.138 10.0741 10.761C10.7369 9.03015 11.9338 8.15506 12.9311 7.19629C13.6196 6.53997 14.0572 5.84502 13.9542 5.08575V5.0407C13.9256 4.76581 13.8383 4.50029 13.698 4.26206C13.558 4.02384 13.3684 3.81847 13.1421 3.65986C12.9157 3.50125 12.658 3.39308 12.3863 3.34267C12.1145 3.29227 11.8351 3.30081 11.5669 3.3677C11.2067 3.45779 10.8784 3.65084 10.6275 3.91465ZM17.1393 18.7592C17.1393 19.2711 17.3428 19.7623 17.7047 20.1243C18.0667 20.4862 18.5577 20.6897 19.0697 20.6897C19.5816 20.6897 20.0727 20.4862 20.4347 20.1243C20.7967 19.7623 21 19.2711 21 18.7592C21 18.2474 20.7967 17.7563 20.4347 17.3943C20.0727 17.0323 19.5816 16.8288 19.0697 16.8288C18.5577 16.8288 18.0667 17.0323 17.7047 17.3943C17.3428 17.7563 17.1393 18.2474 17.1393 18.7592Z" fill="url(#paint0_linear_328_26408)"/>
<defs>
<linearGradient id="paint0_linear_328_26408" x1="5.64216" y1="6.14686" x2="18.0715" y2="18.7952" gradientUnits="userSpaceOnUse">
<stop stop-color="#135554"/>
<stop offset="1" stop-color="#00A790"/>
</linearGradient>
</defs>
</svg>
