<svg width="24" height="24" viewBox="0 0 24 24" fill="none" xmlns="http://www.w3.org/2000/svg">
<mask id="mask0_328_24167" style="mask-type:luminance" maskUnits="userSpaceOnUse" x="4" y="4" width="16" height="16">
<path d="M20 4H4V20H20V4Z" fill="white"/>
</mask>
<g mask="url(#mask0_328_24167)">
<path d="M4 4H20V20H4V4Z" fill="url(#paint0_linear_328_24167)"/>
<path fill-rule="evenodd" clip-rule="evenodd" d="M12.0002 17.1435C12.6757 17.1435 13.3444 17.0105 13.9683 16.7521C14.5923 16.4936 15.1593 16.1148 15.6368 15.6373C16.1144 15.1597 16.4932 14.5927 16.7517 13.9688C17.0102 13.3448 17.1431 12.6761 17.1431 12.0006C17.1431 11.3253 17.0102 10.6565 16.7517 10.0326C16.4932 9.4086 16.1144 8.84165 15.6368 8.3641C15.1593 7.88654 14.5923 7.50772 13.9683 7.24927C13.3444 6.99081 12.6757 6.85779 12.0002 6.85779C10.6363 6.85779 9.3282 7.39963 8.36373 8.3641C7.39926 9.32857 6.85742 10.6367 6.85742 12.0006C6.85742 13.3646 7.39926 14.6727 8.36373 15.6373C9.3282 16.6017 10.6363 17.1435 12.0002 17.1435ZM12.0002 16.8577C13.2885 16.8577 14.5239 16.3461 15.4348 15.4352C16.3457 14.5243 16.8574 13.2889 16.8574 12.0006C16.8574 10.7125 16.3457 9.47702 15.4348 8.56612C14.5239 7.65524 13.2885 7.14351 12.0002 7.14351C10.7121 7.14351 9.47665 7.65524 8.56576 8.56612C7.65487 9.47702 7.14313 10.7125 7.14313 12.0006C7.14313 13.2889 7.65487 14.5243 8.56576 15.4352C9.47665 16.3461 10.7121 16.8577 12.0002 16.8577Z" fill="#ECBE9D"/>
<path d="M11.8775 8.06517V7.09375H12.1632V8.06517L15.4289 10.6652V13.2565L14.8775 13.7137L15.5318 14.8565H13.4232L12.0232 16.0109L10.5775 14.8565H8.57178L9.17178 13.7394L8.57178 13.2565V10.6623L11.8775 8.06232V8.06517ZM12.0203 8.31375L8.9432 10.7365L10.2175 11.7594L12.0232 8.70804L13.7861 11.8023L15.0603 10.7365L12.0203 8.31375ZM15.1432 11.0394L13.9318 12.0537L14.7346 13.4652L15.1432 13.1223V11.0394ZM10.4403 11.9394L12.1632 13.3252V14.5709H15.0403L12.0175 9.2766L10.4403 11.9394ZM12.1632 14.8565V15.5252L12.9746 14.8565H12.1632ZM11.8775 15.5309V13.4623L8.85749 11.0337V13.1223L11.8775 15.5309ZM9.40035 13.9194L9.04892 14.5709H10.2232L9.40035 13.9194Z" fill="#ECBE9D"/>
</g>
<defs>
<linearGradient id="paint0_linear_328_24167" x1="6.97714" y1="6.77429" x2="23.4714" y2="25.72" gradientUnits="userSpaceOnUse">
<stop stop-color="#1A1E21"/>
<stop offset="1" stop-color="#06060A"/>
</linearGradient>
</defs>
</svg>
