<svg width="24" height="24" viewBox="0 0 24 24" fill="none" xmlns="http://www.w3.org/2000/svg">
<path d="M6.72949 15.9648L9.75285 14.0707L15.1288 17.2681L12.1187 19.2023L6.72949 15.9648Z" fill="#E9595C"/>
<path d="M11.1662 5.36603L5.9585 8.52299V14.6171L11.1667 11.5862L11.1662 5.36603Z" fill="#109E92"/>
<path d="M19.5799 14.9404L16.2638 12.8655V11.0829L17.685 11.8398V8.57111L12.9476 5.49136V12.4728L11.5335 13.2805L18.2558 17.3034L12.0001 21L4.42041 16.5199V7.56016L12.0001 3L19.5799 7.56016V14.9404ZM6.31534 8.57111V14.4009L11.0512 11.5206V5.6098L6.31534 8.57111ZM9.78402 14.2805L6.98616 16.0078L12.0001 18.9705L14.8317 17.2963L9.78402 14.2805Z" fill="black"/>
</svg>
