<svg width="24" height="24" viewBox="0 0 24 24" fill="none" xmlns="http://www.w3.org/2000/svg">
<path d="M7.51716 19.8745H4.49108C3.85551 19.8745 3.54053 19.8745 3.34928 19.7564C3.14117 19.6214 3.0118 19.402 3.00056 19.1602C2.98931 18.9351 3.1468 18.6651 3.46178 18.1195L10.9314 5.13786C11.252 4.58664 11.415 4.31104 11.6175 4.2098C11.8313 4.0973 12.0956 4.0973 12.3149 4.2098C12.5174 4.31104 12.6749 4.58664 12.9899 5.13786L14.5311 7.78145L14.5367 7.7927C14.7898 8.16658 14.9905 8.57348 15.1329 9.002C15.2173 9.33948 15.2173 9.70507 15.1329 10.0482C14.9912 10.4805 14.7907 10.8912 14.5367 11.2687L10.6108 18.1083L10.5994 18.1309C10.398 18.5395 10.1405 18.9182 9.83444 19.2557C9.57012 19.5033 9.25516 19.6832 8.90644 19.7901C8.58583 19.8745 8.23148 19.8745 7.51716 19.8745ZM15.161 19.8745H19.492C20.1389 19.8745 20.4595 19.8745 20.6507 19.7508C20.8589 19.6157 20.9882 19.3964 20.9994 19.1545C21.0107 18.9351 20.8587 18.6764 20.5551 18.1645L20.5213 18.1083L18.3502 14.4523L18.3278 14.4073C18.0241 13.901 17.8666 13.6424 17.6697 13.541C17.4503 13.4285 17.1971 13.4285 16.9778 13.541C16.7753 13.6424 16.6178 13.9124 16.3028 14.4523L14.1317 18.1139V18.1252C13.8112 18.6651 13.6536 18.9351 13.6648 19.1545C13.6762 19.3964 13.8056 19.6214 14.0136 19.7564C14.1993 19.8745 14.5198 19.8745 15.161 19.8745Z" fill="#E84142"/>
</svg>
