<svg width="24" height="24" viewBox="0 0 24 24" fill="none" xmlns="http://www.w3.org/2000/svg">
<path d="M12.6228 4.38105C12.5647 4.26643 12.476 4.17014 12.3665 4.10288C12.2571 4.03562 12.131 4 12.0025 4C11.874 4 11.7481 4.03562 11.6387 4.10288C11.5292 4.17014 11.4405 4.26643 11.3824 4.38105L7.88654 11.3678L11.2074 13.1133L14.1282 7.39182L12.6228 4.38105ZM14.7933 8.71714L12.2627 13.6684L19.0493 17.2293L14.7933 8.71714ZM19.9546 19.0598L11.7125 14.7286L9.02684 20H19.3044C19.4164 19.9987 19.5264 19.9707 19.6254 19.9182C19.7242 19.8657 19.8091 19.7902 19.8728 19.6981C19.9364 19.6059 19.9771 19.4999 19.9913 19.3889C20.0056 19.2778 19.9929 19.165 19.9546 19.0598ZM7.6865 20L10.6623 14.1785L7.35141 12.4381L4.07559 18.9898C4.02314 19.0958 3.99848 19.2136 4.00391 19.3319C4.00933 19.4502 4.04468 19.5652 4.10664 19.6662C4.16857 19.767 4.25512 19.8506 4.35815 19.909C4.46118 19.9674 4.57734 19.9987 4.69575 20H7.6865Z" fill="url(#paint0_linear_328_23067)"/>
<defs>
<linearGradient id="paint0_linear_328_23067" x1="8.40168" y1="11.9979" x2="19.5145" y2="18.1495" gradientUnits="userSpaceOnUse">
<stop stop-color="#0642DE"/>
<stop offset="1" stop-color="#0F36AF"/>
</linearGradient>
</defs>
</svg>
