<svg width="24" height="24" viewBox="0 0 24 24" fill="none" xmlns="http://www.w3.org/2000/svg">
<path d="M4.00004 13.2392V10.7519C4.00004 10.5767 4.19123 10.4 4.40003 10.4C4.60883 10.4 4.80003 10.5923 4.80003 10.7519V13.2392C4.80003 13.396 4.66843 13.5991 4.40003 13.5991C4.12083 13.5991 4.00004 13.4355 4.00004 13.2392ZM11.5999 13.2295V10.7384C11.5999 10.5631 11.7907 10.4003 11.9999 10.4003C12.2087 10.4003 12.4 10.5788 12.4 10.7384V13.2295C12.4 13.3863 12.2683 13.5988 11.9999 13.5988C11.7307 13.5988 11.5999 13.4259 11.5999 13.2295ZM19.1998 13.2399V10.7279C19.1998 10.5527 19.3906 10.4003 19.5997 10.4003C19.8086 10.4003 19.9998 10.5683 19.9998 10.7283V13.2399C19.9998 13.3967 19.8682 13.5988 19.5997 13.5988C19.3314 13.5988 19.1998 13.4364 19.1998 13.2399ZM4.72322 8.4024C4.12323 8.436 3.99124 8.82399 4.00044 9.01358C4.00044 9.59118 4.54443 9.62478 4.81683 9.56918C5.9628 9.60238 7.01679 10.8515 7.39999 11.472C7.51798 11.216 7.85078 10.7636 8.00238 10.5692C6.7844 8.8192 5.47281 8.3612 4.72322 8.4024ZM19.2766 15.5974C19.8766 15.5634 20.0085 15.1718 19.9994 14.9803C19.9994 14.3971 19.4554 14.3635 19.183 14.4195C18.037 14.3859 16.983 13.1247 16.5998 12.4984C16.4818 12.7564 16.1491 13.2136 15.9974 13.41C17.2154 15.1767 18.527 15.6394 19.2766 15.5974Z" fill="url(#paint0_linear_328_26997)"/>
<path d="M4.5014 14.4449C4.1882 14.517 4.00781 14.7834 4.00781 15.0009C4.00781 15.5922 4.609 15.6218 4.84179 15.5922C6.41736 15.5922 7.79134 13.7287 8.84093 12.1119C9.72812 10.7447 10.4098 9.55228 12.0264 9.55228C13.5445 9.55228 14.4496 10.7951 14.8525 11.5239L15.4825 10.5199C14.9944 9.79747 13.6201 8.3999 12.0264 8.3999C10.4329 8.3999 9.40932 9.39828 8.91053 10.1519C7.51655 12.2607 6.66777 13.6038 5.88058 14.1046C5.14859 14.5706 4.89259 14.3553 4.5014 14.4449Z" fill="url(#paint1_linear_328_26997)"/>
<path d="M19.5069 9.55471C19.82 9.48272 20.0004 9.21632 20.0004 8.99873C20.0004 8.40753 19.3988 8.37793 19.1661 8.40754C17.5908 8.40754 16.2164 10.2711 15.167 11.8879C14.2797 13.255 13.5985 14.4474 11.9817 14.4474C10.4638 14.4474 9.55857 13.2046 9.15538 12.4759L8.52539 13.4799C9.01339 14.2022 10.3882 15.5998 11.9813 15.5998C13.5753 15.5998 14.599 14.6014 15.0973 13.8479C16.4917 11.7391 17.3404 10.3959 18.1276 9.89511C18.8596 9.42912 19.1153 9.64431 19.5069 9.55471Z" fill="url(#paint2_linear_328_26997)"/>
<defs>
<linearGradient id="paint0_linear_328_26997" x1="6.56711" y1="9.49021" x2="9.5567" y2="17.4623" gradientUnits="userSpaceOnUse">
<stop stop-color="#746EF3"/>
<stop offset="1" stop-color="#C346D5"/>
</linearGradient>
<linearGradient id="paint1_linear_328_26997" x1="6.56768" y1="9.49011" x2="9.55728" y2="17.4622" gradientUnits="userSpaceOnUse">
<stop stop-color="#746EF3"/>
<stop offset="1" stop-color="#C346D5"/>
</linearGradient>
<linearGradient id="paint2_linear_328_26997" x1="6.56774" y1="9.49015" x2="9.55733" y2="17.4623" gradientUnits="userSpaceOnUse">
<stop stop-color="#746EF3"/>
<stop offset="1" stop-color="#C346D5"/>
</linearGradient>
</defs>
</svg>
