<svg width="24" height="24" viewBox="0 0 24 24" fill="none" xmlns="http://www.w3.org/2000/svg">
<path d="M3 4.80005V19.2001H9.01201C10.3981 19.05 11.232 17.94 11.4001 16.6021V13.338C11.3399 12.4081 10.8601 11.7 9.95999 11.4361V11.2681C10.4881 11.076 10.692 10.662 10.8 10.1281V7.33205C10.8 5.98205 9.74999 4.80005 8.40601 4.80005H3ZM12.5999 4.80005V6.60005H14.3999V4.80005H12.5999ZM16.8 4.80005V9.00006H12.5999V19.2001H14.3999V10.8001H16.8V19.2001H21V17.4001H18.6V10.8001H21V9.00006H18.6V4.80005H16.8ZM8.10601 6.60005C8.54402 6.70804 8.95202 7.08604 9.00001 7.53605V10.1341C8.91601 10.542 8.50801 10.722 8.08801 10.8001H4.8V6.60005H8.10601ZM8.79602 12.6001C9.20399 12.7021 9.53999 12.924 9.60005 13.338V16.5121C9.53397 16.95 9.22205 17.292 8.79602 17.4001H4.8V12.6001H8.79602Z" fill="#ACFE00"/>
</svg>
