<svg width="24" height="24" viewBox="0 0 24 24" fill="none" xmlns="http://www.w3.org/2000/svg">
<path d="M9.07299 5.16129C9.01812 4.70859 8.79863 4.58513 8.47853 4.43881C8.04412 4.2376 7.68288 4.48453 7.39936 4.67201C7.26676 4.7589 7.09299 4.90065 7.00154 4.99668C6.72717 5.28019 6.66315 5.67345 6.64944 6.08499C6.64029 6.34564 6.68602 6.54226 6.69516 6.78005C6.41166 6.80291 4.87521 7.00869 4.66943 7.08185L5.03068 7.64429C5.15415 7.84093 5.90865 9.16701 6.02755 9.36817C6.03211 9.37276 6.21503 9.69744 6.37507 10.8224C6.46195 11.4213 6.86893 11.6957 5.83549 12.0707V16.113C5.97267 16.113 6.77747 15.8386 6.98324 15.7837C7.38107 15.6785 7.78347 15.5643 8.20874 15.4865V17.5901L9.33822 17.3248C9.67659 17.2562 10.2527 17.1419 10.5866 17.1419C10.7694 17.3705 11.7298 19.0716 11.9996 19.4831C12.0132 19.4694 13.3074 17.3705 13.3302 17.2882C13.943 17.3294 14.5374 17.2425 15.1547 17.3705C15.4611 17.4345 15.8269 17.5855 16.115 17.6403V15.7152C16.5541 15.7655 17.56 16.1221 18.0814 16.2548L18.0859 12.2308C18.0082 12.1301 17.3634 12.0249 17.2307 11.9381C17.3359 11.6134 17.4503 11.3573 17.528 11.0006C17.9578 8.83778 17.7109 9.94893 17.8801 9.45513C18.2322 9.0527 18.8222 8.02841 19.1513 7.52998C19.197 7.45224 19.3069 7.31506 19.3342 7.23732C18.5698 7.07936 17.7994 6.95122 17.025 6.85321C16.833 6.83034 16.7964 6.86235 16.705 6.72061C16.2804 6.11277 15.7471 5.58875 15.1319 5.17502C14.3918 4.69635 13.5515 4.39457 12.676 4.29307C11.8006 4.19157 10.9135 4.29307 10.0836 4.5897C9.58057 4.77261 9.44795 4.85493 9.07299 5.16129Z" fill="#021C37"/>
<path d="M9.02795 5.33066C9.40291 5.0243 9.57667 4.77737 10.0797 4.58988C10.9112 4.29242 11.7995 4.19094 12.6767 4.29325C13.554 4.39556 14.3963 4.69892 15.1371 5.17976C15.3658 5.32609 15.7042 5.57759 15.8826 5.76965C15.9602 5.84739 16.0197 5.90683 16.1111 5.98457L16.5227 6.46471C16.5867 6.54702 16.6462 6.62475 16.7056 6.72078C16.797 6.85797 16.8337 6.83052 17.0257 6.85797C17.6567 6.9357 18.7634 7.1049 19.335 7.2375C19.3075 7.31524 19.1978 7.45242 19.152 7.53016L17.9036 9.4233C17.8966 9.43429 17.8889 9.44496 17.8808 9.45531L17.8488 9.48732C17.8114 9.17886 17.7409 8.87525 17.6385 8.58189C17.4921 8.15662 17.3641 7.99658 17.2954 7.8091C17.323 7.94628 17.4052 8.12005 17.4464 8.27551C17.6979 9.19006 17.7391 10.0681 17.5286 11.0008C17.451 11.3575 17.3366 11.6136 17.2314 11.9382C17.364 12.0251 18.0088 12.1303 18.0866 12.2263V16.2503C17.5607 16.1223 16.5547 15.7199 16.1157 15.6697V17.5902C15.8276 17.5445 15.4618 17.4346 15.1554 17.3706C14.1491 17.1516 13.1215 17.0458 12.0917 17.0551C12.1511 17.0826 13.0428 17.2152 13.3309 17.293C13.3081 17.3706 12.0139 19.4696 12.0002 19.4833C11.7304 19.0718 10.7655 17.3706 10.5873 17.1375C10.1672 17.1696 9.74991 17.2322 9.3389 17.325L8.20485 17.5902V15.4867C7.78415 15.5645 7.38175 15.6787 6.98392 15.7839C6.77816 15.8388 5.96877 16.1086 5.83617 16.1132V12.0709L6.75071 11.8102C6.71871 11.6776 6.65927 11.5359 6.61354 11.4033C6.57239 11.2661 6.54037 11.1289 6.50379 10.9826C6.36297 10.3476 6.33664 9.69261 6.42606 9.0483C6.47178 8.72821 6.59525 8.30752 6.60896 8.19321L6.55866 8.1612C6.44435 8.25265 6.25229 8.99801 6.21114 9.23583L6.17455 9.37294L5.41091 8.22978C5.28743 8.02858 5.15483 7.8411 5.03136 7.64447L4.66555 7.08203C4.8759 7.01343 6.41234 6.80766 6.69584 6.78022C6.6867 6.54244 6.64097 6.34582 6.65012 6.08517C6.66383 5.67362 6.73243 5.28037 7.00223 4.99686C7.09367 4.9054 7.26744 4.75908 7.40004 4.67676C7.68356 4.4847 8.04481 4.23778 8.48379 4.43898C8.80388 4.58531 8.97307 4.88254 9.02795 5.33066ZM5.93676 9.52392C6.18827 9.90344 6.09224 9.75246 6.11967 10.2006C6.17455 10.978 6.27515 11.0374 6.40776 11.6366L5.59839 11.888V16.4607C5.73556 16.447 7.38175 15.8982 7.88476 15.8114V17.9332C7.98993 17.9286 8.41519 17.8097 8.54323 17.7731C9.17387 17.6066 9.81574 17.4858 10.4638 17.4118C10.4912 17.5033 10.7702 17.9423 10.8434 18.0658L11.232 18.715L11.991 20C12.0551 19.9543 12.0551 19.9223 12.1099 19.8309C12.5946 19.0306 13.0931 18.1754 13.5915 17.3936C14.1723 17.3524 15.7454 17.8006 16.3351 17.9423C16.3351 17.4256 16.3169 16.4379 16.3351 16.0034C16.4724 16.0218 16.7056 16.1041 16.8519 16.1406L18.4021 16.6116C18.4021 15.0798 18.4433 13.5479 18.4021 12.0206L17.579 11.792C17.7345 11.1609 17.8671 11.1564 17.9448 10.3652C17.9996 9.83942 17.8488 10.0177 18.0682 9.66561L19.7739 7.05917C19.3898 6.99514 19.0057 6.91284 18.6216 6.84424L17.1583 6.61561C16.9617 6.58817 16.9571 6.6156 16.8977 6.54244C16.7742 6.38239 16.6232 6.14004 16.4587 5.97999C16.3306 5.85654 16.4083 5.90226 16.2117 5.7285L16.1294 5.64618C15.0202 4.59172 13.549 4.00257 12.0185 4C11.1817 4 10.1529 4.16919 9.45778 4.62646C9.36633 4.6859 9.2703 4.76365 9.19256 4.8048C9.12275 4.64834 9.02067 4.5084 8.89301 4.39414C8.76535 4.27986 8.61499 4.19387 8.45179 4.14174C7.99451 4.00457 7.68356 4.18748 7.37261 4.37039C7.12568 4.52129 6.79187 4.80023 6.62726 5.0243C6.45729 5.3734 6.36819 5.75634 6.36661 6.14462L6.38033 6.54702C6.29802 6.59274 5.45663 6.68878 5.28287 6.71621C4.93991 6.7665 4.5558 6.82138 4.22656 6.89454L5.93676 9.5284V9.52392Z" fill="#ECEEED"/>
<path d="M12.3749 7.47579C12.5395 7.94679 12.3794 8.30803 12.1372 8.63727L12.1006 8.69214C12.0046 8.80646 11.8215 8.98481 11.7805 9.05797C11.6845 9.22717 11.625 9.46948 11.6433 9.68447C11.7759 9.66612 11.9131 9.62953 12.0456 9.67989C12.16 9.72097 12.2514 9.83076 12.2789 9.93137C12.3794 9.95879 12.4801 10.0366 12.5121 10.0411C11.9634 9.96797 11.7347 10.1234 11.1174 10.2561C10.8705 10.3109 10.6144 10.3383 10.3629 10.3475C10.1754 10.3567 9.75928 10.2606 9.75014 10.567C9.80502 10.599 9.70441 10.5303 9.773 10.5761C9.80958 10.6035 9.84617 10.6492 9.91476 10.6722C10.0794 10.727 10.3401 10.5258 10.6007 10.4207C10.683 10.5167 10.7058 10.6402 10.7653 10.7728C11.5381 10.8184 12.0548 11.3215 12.5167 10.9419C12.7134 10.7819 12.6722 10.8184 12.8414 10.6172C12.9922 10.4435 13.2803 10.0182 13.3443 9.79416L13.3763 9.81699C13.4083 9.66154 13.445 9.51984 13.4678 9.35521C13.486 9.16315 13.477 8.98938 13.486 8.80646C13.6004 8.9665 13.6233 9.42382 13.637 9.65246C13.6553 9.69813 13.6553 9.75298 13.669 9.80792C13.7056 9.94055 14.0119 10.4207 14.0898 10.5441L14.1948 10.6812L14.204 10.6904C14.4006 10.8963 14.2634 10.7864 14.5149 10.9511L14.6201 11.0197L15.1642 11.4952C15.1963 11.541 15.1642 11.5044 15.1963 11.5364L15.3335 11.6919C15.4982 11.8931 15.6352 12.3047 15.8365 12.3183C16.3852 12.3503 16.3394 12.2268 16.3486 12.611L16.7327 12.739L16.7785 12.3915C16.3074 12.2086 16.2206 11.3535 16.0194 10.8688C15.7725 10.2743 15.3838 10.1371 14.867 9.69813L14.4281 9.2866C13.9479 8.69214 13.7878 8.50467 13.422 7.69986C13.349 7.5261 13.1385 7.05053 13.0334 6.93164C12.9054 6.99108 12.6447 7.2243 12.5258 7.32947C12.4343 7.4072 12.3749 7.4072 12.3749 7.47579Z" fill="#BD0A30"/>
<path d="M7.62294 7.38825C7.63208 7.52544 7.68239 7.89584 7.61837 7.99643C7.5132 7.85011 7.54978 7.53916 7.62294 7.38825ZM8.05278 8.05131C7.98418 7.83182 8.15339 7.5483 8.27227 7.43856L8.57865 7.17791L8.30428 7.62146C8.22197 7.75865 8.14423 7.90955 8.05278 8.05131ZM7.33029 8.26165C7.38973 8.27537 7.38516 8.24794 7.50405 8.21135C7.57722 8.18392 7.61379 8.16562 7.6961 8.18392C7.68696 8.22964 7.64124 8.28452 7.60465 8.3211C7.57264 8.44914 7.53606 8.5223 7.50863 8.67321C7.43208 9.09867 7.41667 9.53285 7.4629 9.96273C7.49034 9.99474 7.50863 9.91695 7.48576 10.0039C7.50405 9.86211 7.60007 9.57403 7.65039 9.4094C7.67325 9.3362 7.70526 9.29512 7.72354 9.2311L7.78299 9.32254C7.85615 9.46882 8.05736 9.94438 8.12138 10.0176L8.07565 9.43223C8.10766 9.28594 8.0482 9.12133 8.13967 8.76923C8.1671 8.65949 8.22655 8.57717 8.17167 8.48572C8.12595 8.41255 8.07107 8.34853 8.04364 8.24337C8.1168 8.30281 8.13967 8.35311 8.27227 8.38054C8.39574 8.23878 8.4186 8.1702 8.60608 8.04217C8.67924 7.99186 8.75241 7.94156 8.83015 7.90498C8.90789 7.8684 8.99934 7.83182 9.06793 7.78609C9.06793 7.64891 9.0222 7.52544 8.98105 7.40654C9.09079 7.49801 9.18683 7.62605 9.24627 7.79981C9.59837 8.00101 9.25999 8.09246 9.23255 8.22508C9.52063 8.14733 9.58923 8.10161 9.90931 8.16562C9.91848 7.99643 9.96874 7.93699 10.0007 7.79981L9.84072 7.79523C9.85444 7.6672 10.0373 7.3974 10.1471 7.32424C10.3574 7.18705 10.4718 7.13218 10.7782 7.18706L10.7827 7.07731C10.4398 6.79837 9.77214 7.37911 9.45661 7.05445C9.5252 7.04074 9.61666 7.01787 9.66239 6.96299C9.30682 6.6603 8.89723 6.42757 8.45518 6.27708C8.24026 6.25879 7.87902 6.59718 7.73269 6.80753C7.45838 7.24207 7.3184 7.7479 7.33029 8.26165Z" fill="#CA0231"/>
<path d="M8.13247 10.6075C8.08216 10.4245 8.11417 10.3422 8.24221 10.2416C8.29708 10.205 8.35653 10.1684 8.40684 10.1273C8.49828 10.0404 8.48457 10.0359 8.53487 9.97637C8.54143 10.0432 8.53246 10.1105 8.50865 10.1731C8.48486 10.2359 8.44688 10.2921 8.39769 10.3376C8.27422 10.4521 8.26965 10.4062 8.16904 10.5571L8.13247 10.6075ZM8.64462 8.81951L8.65376 8.80579L9.2665 8.38967C9.5363 8.23877 9.86553 8.23421 10.0439 8.43998C9.26651 8.37596 9.3854 8.91554 8.64462 8.81951ZM9.24822 7.7998L9.2665 7.95069C9.17505 7.99641 9.12476 8.001 9.07445 8.08788C8.99214 8.24793 8.92812 8.45369 8.81381 8.49028C8.52115 8.59087 8.50286 8.49942 8.27422 8.95669C8.16904 9.16247 8.12789 9.35913 8.11417 9.38654C8.08674 9.44597 8.11417 9.40479 8.0776 9.43221L8.12332 10.0176C8.05931 9.94436 7.8581 9.46881 7.78494 9.31794L7.72549 9.23109C7.7072 9.29511 7.6752 9.33618 7.65233 9.41397C7.60203 9.57401 7.506 9.86209 7.48771 10.0039C7.506 9.92153 7.49228 9.99472 7.46484 9.95813L7.49685 10.237L7.51515 10.2828C7.6066 10.3056 7.88096 10.3514 7.89011 10.5755L7.65233 10.4841C7.7072 10.5755 7.89011 10.7172 7.97243 10.7857C8.20106 10.9686 8.16448 10.8818 8.44342 10.8406C8.55316 10.8224 8.69492 10.8498 8.75893 10.8406C8.86411 10.8178 9.15219 10.3834 9.14762 10.2965C9.12476 9.93988 9.12018 9.69746 9.38997 9.34536C9.48489 9.21381 9.60812 9.1053 9.75058 9.02774C9.89301 8.95018 10.051 8.90558 10.2131 8.89725C10.3457 8.4857 10.3502 8.20219 10.2222 7.78149C10.4052 7.82723 10.5423 7.85924 10.7389 7.81809C10.6613 7.77235 10.5332 7.75406 10.4462 7.72205C10.3457 7.67633 10.2542 7.61231 10.1719 7.58488C10.1261 7.61689 10.1079 7.63975 10.0576 7.65804C10.0941 7.52085 10.2177 7.42483 10.3365 7.36081C10.4749 7.28127 10.6355 7.24914 10.7939 7.26935L10.7801 7.18705C10.4737 7.13217 10.3594 7.18705 10.1491 7.32422C10.0023 7.44717 9.89557 7.61119 9.84267 7.79522H10.0027C9.97068 7.9324 9.92043 7.99641 9.91125 8.16104C9.59117 8.10159 9.52258 8.14732 9.23449 8.22506C9.26194 8.08788 9.60032 7.99641 9.24822 7.7998Z" fill="#A60C30"/>
<path d="M8.2418 14.3861L8.21895 14.6056C8.25552 14.633 8.2418 14.6148 8.31954 14.6284V15.1085L7.66107 15.2229C7.65192 15.0949 7.66107 14.9485 7.66107 14.8251C7.66107 14.7199 7.6382 14.7152 7.72509 14.697C7.84398 14.6742 7.83026 14.7152 7.84855 14.5964L8.04975 13.1057L8.09548 12.7399C8.16408 12.2825 8.05889 12.3832 8.63964 12.3604C8.69908 12.6804 8.89114 14.4181 8.95058 14.5416L9.1152 14.5278V15.0033L8.45672 15.0949L8.4613 14.6056L8.50703 14.5964L8.56189 14.569L8.5436 14.3632L8.2418 14.3861ZM6.18407 12.4472L7.33184 12.4016C7.56961 12.7947 7.60162 12.5844 7.60162 13.0325C7.60162 13.5859 7.66107 13.4167 7.437 13.7825C7.48274 13.874 7.58333 13.947 7.59705 14.0386V14.8433C7.58333 14.9165 7.48274 15.0445 7.437 15.1132C7.29983 15.3418 7.41872 15.264 6.8654 15.3784C6.65506 15.424 6.39442 15.5018 6.18864 15.5292V14.9897L6.36241 14.9439V13.0188H6.18407V12.4472ZM10.4093 13.7368V14.2763C10.4093 14.5461 10.4322 14.5278 10.2904 14.7016C10.0663 14.9759 10.2584 14.8983 9.43529 14.9713L9.20208 14.6924C9.16092 14.6376 9.17464 14.6788 9.17007 14.5918L9.1838 14.194L9.58619 14.162C9.58619 14.3769 9.57704 14.3175 9.64107 14.4684C9.77368 14.4729 9.91085 14.4776 9.96569 14.3861C10.0115 14.3129 9.9977 14.1575 9.99322 14.0476C9.92461 13.9836 9.70052 13.8648 9.60906 13.8053C9.47188 13.7139 9.33469 13.6453 9.20666 13.5447V12.7582C9.21124 12.6576 9.33012 12.5432 9.417 12.4244C9.48102 12.3329 9.47188 12.3421 9.60906 12.3421C9.77824 12.3421 10.0115 12.3192 10.1715 12.3375C10.2538 12.4381 10.3316 12.5204 10.4093 12.6256C10.4642 12.6942 10.4642 12.9913 10.4322 13.1012L10.0297 13.1103C10.0297 12.8953 10.0389 12.9548 9.97487 12.8084C9.79196 12.8084 9.63192 12.7811 9.6182 12.9777C9.59991 13.2978 9.59535 13.22 10.0937 13.5355C10.1715 13.5812 10.3498 13.6864 10.4093 13.7368ZM9.75081 10.5678C9.69594 10.6136 9.67765 10.705 9.65936 10.7827C9.59992 11.0434 9.57704 11.3223 9.55418 11.5921L9.50846 12.1545C9.49931 12.3375 9.4856 12.246 9.39413 12.3512L9.25696 12.5341C9.10148 12.7399 9.14721 12.7079 9.14264 13.0143C9.14264 13.1194 9.11977 13.5355 9.1655 13.5949C9.18837 13.6269 9.87425 14.0476 9.93368 14.0706C9.93368 14.2351 9.94286 14.258 9.8926 14.3907C9.86056 14.3907 9.70508 14.4135 9.67765 14.3907C9.62735 14.3312 9.66851 14.2168 9.63192 14.1163C9.51303 14.0843 9.20208 14.1163 9.11977 14.1666L9.10605 14.4684L8.99632 14.4729C8.93686 14.1666 8.75853 12.4198 8.67622 12.3101C8.5058 12.2958 8.33449 12.2958 8.16408 12.3101C7.97202 12.3557 8.11835 12.7079 7.99945 12.8451C8.03146 12.9365 7.99945 13.06 7.98116 13.1834L7.94916 13.2886C7.9583 13.4075 7.82568 14.2947 7.78911 14.5461C7.77539 14.6512 7.77996 14.6284 7.66107 14.6468V14.1483C7.66107 13.9105 7.62448 13.9425 7.51475 13.7825C7.57876 13.6681 7.66107 13.6087 7.66564 13.4578C7.66564 13.3114 7.6382 13.1148 7.67936 12.9777C7.60162 12.749 7.76624 12.8999 7.53304 12.5798C7.24952 12.1957 7.40956 12.4106 7.23123 12.3237L7.19465 12.3375L6.97516 12.3512C5.93257 12.3832 6.12005 12.3055 6.12005 12.8131C6.12005 13.0417 6.06518 13.092 6.30296 13.0783V14.9028C6.24209 14.9029 6.18227 14.9188 6.12919 14.9485C6.10811 15.1613 6.10811 15.3758 6.12919 15.5887C6.19779 15.5932 7.33184 15.3646 7.38213 15.3144C7.45529 15.2504 7.51932 15.0812 7.59248 15.0033L7.59705 15.2778C7.70222 15.2914 8.26467 15.1954 8.37442 15.1589L8.38814 14.6284C8.37442 14.5828 8.36984 14.5872 8.35156 14.569L8.31498 14.5508L8.30125 14.4501C8.3594 14.4269 8.42322 14.4221 8.48416 14.4364L8.48873 14.5141C8.45216 14.5508 8.443 14.537 8.40185 14.5598C8.39271 14.6604 8.36528 15.0765 8.42929 15.1314C8.48416 15.1772 9.10148 15.0857 9.17007 15.04L9.1838 14.7748C9.23867 14.8204 9.35298 14.9668 9.40329 15.0263C9.52217 15.0445 9.81941 14.9943 9.96121 14.9851C10.0527 14.9805 10.1441 14.9943 10.2035 14.9256C10.2218 14.9073 10.2355 14.8799 10.2629 14.8388C10.487 14.5644 10.4733 14.6101 10.4733 14.2947C10.4733 14.1575 10.4916 13.81 10.4642 13.7093C10.4322 13.6636 10.4642 13.7001 10.423 13.6681L10.0801 13.4532C9.96569 13.38 9.79655 13.2886 9.69137 13.1972C9.67765 13.0097 9.64564 12.7947 9.95204 12.8771C9.97487 12.9685 9.95204 13.0692 9.98404 13.1606C10.0847 13.188 10.4048 13.1697 10.4916 13.1424C10.5236 13.0508 10.5099 12.9319 10.5099 12.8313C10.5099 12.5798 10.4824 12.621 10.2995 12.3832C10.2309 12.2917 10.2264 12.278 10.0847 12.2689C10.0284 12.1289 10.0046 11.9781 10.015 11.8277C10.0252 11.6772 10.0694 11.5311 10.1441 11.4C10.2264 11.272 10.2995 11.176 10.4002 11.0982C10.4916 11.0252 10.551 10.8833 10.583 10.7232L10.5876 10.7371C10.5876 10.7461 10.5968 10.7461 10.5968 10.7507L10.6104 10.7964C10.6288 10.8651 10.6104 10.9793 10.5922 11.048C10.99 10.9977 11.2644 11.0845 11.6211 11.1714C11.9412 11.2492 12.2841 11.4458 12.595 11.1622L12.6682 11.0892C13.0157 10.7691 13.2626 10.2797 13.377 9.81785L13.345 9.7996C13.2194 10.0961 13.0498 10.3721 12.842 10.618C12.6728 10.8193 12.714 10.7827 12.522 10.9382C12.0555 11.3223 11.5388 10.8239 10.7659 10.7736C10.7065 10.641 10.6836 10.5176 10.6014 10.4216C10.3407 10.5266 10.0801 10.7279 9.91544 10.673C9.84684 10.6501 9.81025 10.6044 9.77368 10.5816C9.70508 10.5312 9.80569 10.5998 9.75081 10.5678ZM16.9163 14.8068C16.9208 14.8113 16.93 14.8068 16.9346 14.8159C16.9346 14.8251 16.9437 14.8251 16.9483 14.8251L16.9712 14.8388C16.9987 14.8524 16.9849 14.8388 17.0169 14.8616V15.3784L16.3631 15.2504V14.7428L16.5413 14.7702L16.8386 12.4152L17.3324 12.4336L17.6343 14.9623L17.8172 15.008V15.5659L17.1587 15.4195V14.9211C17.1816 14.8616 17.1541 14.9119 17.1998 14.8891L17.2456 14.8708H17.2593L17.2409 14.6422L16.9528 14.5781L16.9163 14.8113V14.8068ZM14.4013 13.9836C14.4013 14.0156 14.5476 14.3495 14.566 14.4409L14.502 14.5004C14.4653 14.4272 14.4653 14.4547 14.4013 14.4181V13.9791V13.9836ZM16.1755 12.9823L16.6968 13.0463L16.4773 14.6924L16.18 14.6468V12.9823H16.1755ZM14.6025 12.8588L14.726 12.9045V13.2338C14.694 13.1834 14.6666 13.1103 14.6436 13.0463C14.6116 12.9593 14.5705 12.9136 14.6025 12.8588ZM15.5171 12.3649L16.2852 12.3877V12.9045L16.107 12.8953L16.116 14.697L16.2899 14.7244L16.2944 15.2412L15.5308 15.1132L15.5216 14.6192L15.6953 14.633V12.8816L15.5262 12.8633L15.5171 12.3649ZM13.7657 12.3329L14.5522 12.3466L14.5613 12.7764C14.5293 12.8588 14.5705 12.7947 14.4973 12.8313L14.7763 13.5629L14.79 12.8679C14.7763 12.8176 14.7306 12.8404 14.6802 12.8131V12.3557L15.3432 12.3604L15.3478 12.8542L15.1696 12.8496L15.1741 14.5736L15.3478 14.5918L15.357 15.0857L14.575 14.9851L14.5705 14.5508C14.5796 14.5049 14.5934 14.5278 14.6574 14.4958L14.3419 13.6361L14.3373 14.4776L14.4379 14.5004V14.9713L13.7748 14.9165L13.7703 14.4501L13.9486 14.4592C13.9668 14.1848 13.9486 13.4395 13.9486 13.092C13.944 12.7627 13.9944 12.8084 13.7657 12.8039V12.3329ZM16.7836 12.3924L16.7334 12.7399L16.3493 12.6118C16.3401 12.2323 16.3859 12.3512 15.8372 12.3192C15.6359 12.3055 15.4988 11.894 15.3342 11.6928L15.1969 11.5372C15.1649 11.5052 15.1969 11.5372 15.1649 11.4961L14.6162 11.0205L14.5156 10.952C14.2641 10.7873 14.4013 10.8971 14.2047 10.6912L14.1955 10.6821L14.0904 10.545C14.0126 10.4216 13.7063 9.9414 13.6697 9.81337C13.656 9.75382 13.656 9.70358 13.6376 9.65332C13.6376 10.33 13.5416 10.1837 13.8572 10.7004C14.0116 10.9494 14.2156 11.1641 14.4561 11.3315C14.0812 11.3406 13.8846 11.1668 13.7245 11.0982C13.752 11.1852 13.8984 11.3635 13.9394 11.4047C14.1132 11.5601 14.3601 11.6836 14.5888 11.7796C14.7122 11.83 14.8311 11.9076 14.9455 11.9442C14.9232 11.862 14.8925 11.7824 14.854 11.7064C14.8174 11.6333 14.7763 11.5784 14.7488 11.5099C14.9088 11.6379 14.9775 11.6836 15.1009 11.8664C15.1696 11.9671 15.3296 12.1911 15.3662 12.3055C15.229 12.2917 15.0735 12.2917 14.9317 12.2917H14.5705C14.2908 12.2646 14.0091 12.2632 13.7291 12.2872C13.6743 12.3649 13.7017 12.5478 13.7017 12.653C13.7017 12.8633 13.6743 12.8588 13.8846 12.8633V14.3907C13.6788 14.3769 13.7017 14.4135 13.7063 14.6056C13.7153 15.0583 13.6376 14.9576 14.1269 15.0033C14.2459 15.0171 14.415 15.0673 14.502 14.9897C14.5522 15.0673 14.5888 15.0537 14.7076 15.0628L15.2107 15.1314C15.4164 15.1589 15.3662 15.1497 15.3982 15.1085C15.4318 14.9258 15.4333 14.7385 15.4028 14.5552C15.3616 14.5324 15.3021 14.5278 15.2381 14.5187V12.9228C15.4942 12.8451 15.3798 13.0692 15.4164 12.3832C15.5079 12.557 15.4119 12.6942 15.4712 12.8999C15.5628 12.9456 15.6176 12.8999 15.6359 12.9593V14.5324C15.6176 14.6056 15.5171 14.5187 15.4712 14.5828C15.4471 14.7756 15.4471 14.9706 15.4712 15.1634C15.7137 15.2184 16.0384 15.2549 16.2944 15.3006C16.4545 15.3234 16.9437 15.4515 17.0717 15.4378C17.0992 15.3464 17.0855 15.1772 17.0901 15.0628C17.0901 14.7428 17.0901 14.8204 16.9895 14.7702L17.0032 14.6468C17.1724 14.665 17.1861 14.6468 17.1861 14.8068C17.1221 14.8251 17.1495 14.8068 17.0992 14.8433C17.0855 14.9348 17.0672 15.415 17.1267 15.456L17.1404 15.4607C17.1953 15.4972 17.4056 15.5338 17.4834 15.5521C17.5976 15.5795 17.7577 15.6299 17.8629 15.6207C17.8857 15.52 17.8995 15.0491 17.8583 14.9713L17.7805 14.9348L17.6891 14.9119C17.6616 14.6696 17.4148 12.4198 17.3736 12.3832C17.3644 12.3741 16.8248 12.3009 16.7792 12.3924H16.7836Z" fill="#9D1030"/>
<path d="M11.5796 4.49693C11.7168 4.55637 11.8769 4.58381 12.0232 4.6524C12.1832 4.73472 12.2656 4.78959 12.3753 4.89477C12.6221 5.13254 12.6953 5.33832 12.6953 5.77273C12.8508 5.80017 13.1435 5.91449 13.2853 5.96936C13.7609 6.15684 14.7303 6.47236 15.2149 6.41749C14.8378 5.87338 14.3634 5.40365 13.8157 5.03194C13.2212 4.60021 12.4894 4.40023 11.7579 4.4695C11.6939 4.4695 11.6253 4.4695 11.5796 4.49236V4.49693Z" fill="#A40D30"/>
<path d="M6.77347 14.8648V14.3937C6.87865 14.3343 6.99296 14.2201 7.08443 14.1286C7.16216 14.1742 7.18502 14.2154 7.18502 14.3297V14.6407C7.15301 14.8419 6.98382 14.8328 6.77347 14.8694V14.8648ZM7.08443 12.9579C7.17131 13.0357 7.18502 13.0493 7.18045 13.1957C7.18045 13.3466 7.19874 13.3694 7.13472 13.4793C7.06614 13.589 7.04327 13.5707 6.96095 13.6439C6.89237 13.7125 6.86036 13.7399 6.77806 13.7947V12.9762L7.08443 12.9579ZM6.18359 13.0173H6.3665L6.36194 14.9425L6.18359 14.9882L6.18817 15.5278C6.39395 15.5004 6.65459 15.4226 6.86493 15.3769C7.41366 15.2625 7.29935 15.3404 7.43653 15.1117C7.48226 15.0431 7.58285 14.915 7.59657 14.8419V14.0372C7.58285 13.9456 7.48226 13.8725 7.43653 13.7811C7.66059 13.4152 7.60114 13.5845 7.60114 13.0311C7.60114 12.5784 7.56913 12.7933 7.33135 12.3955L6.18817 12.4457V13.0173H6.18359Z" fill="url(#paint0_linear_328_19165)"/>
<path d="M13.9805 7.92692C14.0079 8.06411 14.3737 8.62197 14.4606 8.74087C14.5978 8.9192 14.9179 9.30786 15.1008 9.40388C15.2289 9.2576 15.5581 8.183 16.1343 8.0824C16.0611 7.84461 15.8598 7.5108 15.8278 7.39648C15.5027 7.44953 15.1817 7.52595 14.8676 7.62512C14.7075 7.67085 14.0811 7.86748 13.9805 7.93149V7.92692Z" fill="#A40D30"/>
<path d="M12.2786 9.93019C12.261 9.87353 12.2309 9.82157 12.1905 9.77804C12.1501 9.73451 12.1005 9.70058 12.0453 9.6787C11.9082 9.63293 11.771 9.66494 11.643 9.68329C11.6248 9.4683 11.6842 9.22599 11.7802 9.05679C11.8213 8.98363 12.0043 8.80528 12.1003 8.69096L12.1369 8.63609C12.3793 8.30685 12.5393 7.94561 12.3746 7.47461C11.9539 7.72611 11.9219 8.14681 11.4327 7.88615C11.1811 8.0645 10.9388 8.10107 10.5729 8.05078C10.5775 8.17424 10.5821 8.28856 10.5729 8.41203C10.5409 8.76413 10.4725 8.59494 10.6369 8.81443C10.7513 8.96991 10.7559 9.07965 10.829 9.19856C10.9068 9.09794 10.9525 8.91045 11.1903 8.66353C11.2269 8.62695 11.3047 8.54006 11.3549 8.52177C11.2543 8.72297 11.1446 9.1848 11.2223 9.41346L11.2497 9.46371C11.2955 9.39521 11.3229 9.3266 11.3732 9.24423C11.4235 9.1711 11.4876 9.08879 11.5424 9.04764C11.4052 9.35861 11.3824 9.65576 11.3687 10.0079C11.707 9.97586 11.9173 9.87983 12.2832 9.93019H12.2786Z" fill="#9D1030"/>
<path d="M16.8742 12.0984C17.3207 11.2257 17.5109 10.2443 17.4228 9.26793C17.3852 8.91943 17.2128 8.59948 16.9427 8.3762C16.7781 8.25274 16.6592 8.21158 16.4077 8.21616C16.4077 8.28474 16.5129 8.54539 16.5403 8.64142C16.801 9.49199 16.8742 10.3653 16.7461 11.2479C16.7186 11.4171 16.6776 11.5817 16.6546 11.7417C16.6364 11.8927 16.7964 12.0618 16.8742 12.0984Z" fill="#BD0A30"/>
<path d="M14.3418 13.6343L14.6572 14.4939C14.5932 14.5259 14.5795 14.5031 14.5658 14.5489L14.5749 14.9832L15.3569 15.0839L15.3477 14.5899L15.174 14.5717L15.1694 12.8478H15.3523L15.3431 12.3585L14.6755 12.3539V12.8112C14.7304 12.8387 14.7761 12.8112 14.7899 12.866L14.7761 13.5657L14.4972 12.834C14.5704 12.7928 14.5292 12.8569 14.5612 12.7746L14.552 12.3447L13.7656 12.3311V12.7975C13.9943 12.802 13.9439 12.7563 13.9485 13.0855C13.9485 13.4331 13.9667 14.1784 13.9485 14.4528L13.7702 14.4437L13.7747 14.91L14.4378 14.965V14.4985L14.3371 14.4757L14.3418 13.6343Z" fill="url(#paint1_linear_328_19165)"/>
<path d="M11.341 12.7747V12.3174L10.6139 12.3311L10.6186 12.7839H10.7923V14.4026L10.6277 14.4209L10.6094 14.6404V14.8735L11.341 14.8507V14.4026C11.2907 14.3843 11.2679 14.3934 11.2039 14.3934V13.8355C11.2633 13.7898 11.4371 13.6709 11.5056 13.6435C11.62 13.7807 11.5926 13.7441 11.5926 13.9636C11.5926 14.0184 11.6063 14.3614 11.5743 14.3751C11.5376 14.3843 11.4966 14.3843 11.4554 14.3889V14.8461L12.1412 14.8371V14.3843L12.0087 14.3751C12.0041 14.2334 12.0407 13.6298 11.9721 13.5337C11.9263 13.4789 11.8807 13.4377 11.8441 13.3783C12.0544 13.0536 12.0041 13.3051 12.0087 12.7793L12.1459 12.7701V12.3174L11.4599 12.3219V12.7701L11.5743 12.7884L11.5926 12.7929C11.5926 12.9805 11.6063 13.0445 11.4828 13.1359C11.4051 13.1954 11.2862 13.2731 11.2039 13.3097V12.7747H11.341Z" fill="url(#paint2_linear_328_19165)"/>
<path d="M13.3491 6.70752L13.8795 7.75011C14.0076 7.72268 14.186 7.64951 14.314 7.60378C14.4511 7.55348 14.6249 7.49404 14.7666 7.45746C15.0822 7.366 15.3931 7.29741 15.7224 7.21509C15.64 7.04134 15.4526 6.76696 15.3566 6.59777C14.6706 6.65723 14.41 6.4926 13.8475 6.36914C13.7835 6.40572 13.7881 6.43772 13.6189 6.54748C13.5366 6.59777 13.4314 6.67094 13.3491 6.70752Z" fill="#A40D30"/>
<path d="M12.7555 14.2932C12.728 14.1971 12.7508 13.4518 12.7508 13.2871C12.7508 13.1499 12.7052 12.8984 12.7966 12.8207C12.8332 12.7842 13.1168 12.7202 13.1533 12.8939C13.1853 13.0448 13.1579 13.6895 13.1579 13.8907C13.1579 14.3023 13.2356 14.4212 12.9018 14.3937C12.8287 14.3937 12.7692 14.3572 12.7555 14.2932ZM12.3348 13.9639C12.3348 14.5401 12.2799 14.4303 12.4857 14.6955C12.5634 14.7962 12.5588 14.851 12.7326 14.8556C13.327 14.8694 13.254 14.9379 13.4094 14.7504C13.4734 14.6818 13.5695 14.5995 13.5786 14.5127V12.7018C13.5786 12.6423 13.3454 12.3817 13.295 12.3269L12.6 12.3223C12.3851 12.679 12.3348 12.4275 12.3348 13.0128V13.9639Z" fill="url(#paint3_linear_328_19165)"/>
<path d="M17.0066 14.0372C17.0021 13.9045 17.0525 13.3741 17.0982 13.2826L17.1805 14.0692L17.0066 14.0372ZM16.9518 14.5721L17.2399 14.6316L17.2582 14.8602C17.2217 14.8831 17.1805 14.8602 17.1577 14.9151V15.4136L17.8115 15.5598V15.0065L17.6332 14.9609L17.3313 12.4275L16.8375 12.4092L16.5403 14.7642L16.3574 14.7368L16.362 15.2489L17.0204 15.3769V14.8602L16.9289 14.8145C16.9106 14.755 16.9381 14.6498 16.9518 14.5721Z" fill="url(#paint4_linear_328_19165)"/>
<path d="M10.4081 13.7355C10.3486 13.6852 10.1703 13.58 10.088 13.5343C9.59411 13.2142 9.59867 13.3011 9.61696 12.9765C9.63068 12.7799 9.79073 12.8027 9.97363 12.8072C10.0377 12.9535 10.0285 12.8987 10.0285 13.1091L10.431 13.0999C10.463 12.9901 10.463 12.693 10.4081 12.6243C10.3303 12.5191 10.2525 12.4369 10.1703 12.3363C10.0102 12.3179 9.77701 12.3363 9.60782 12.3363C9.47064 12.3409 9.47979 12.3363 9.41576 12.4277C9.32431 12.542 9.21 12.6563 9.20542 12.757V13.5435C9.33346 13.6441 9.47064 13.7127 9.60782 13.8041C9.69928 13.8635 9.92796 13.9824 9.99199 14.0464C9.99199 14.1563 10.0148 14.3117 9.96446 14.3849C9.90961 14.4763 9.77244 14.4763 9.63983 14.4671C9.57581 14.3163 9.58495 14.3757 9.58495 14.1608L9.18255 14.1928L9.16883 14.5906C9.16883 14.6775 9.15969 14.6363 9.20084 14.6912L9.42949 14.9701C10.2571 14.8971 10.0697 14.9747 10.2891 14.7003C10.4858 14.4626 10.4172 14.0374 10.4081 13.7401V13.7355Z" fill="url(#paint5_linear_328_19165)"/>
<path d="M8.29965 13.8775C8.31794 13.7175 8.34538 13.2694 8.40024 13.155C8.41396 13.2923 8.49171 13.7632 8.46884 13.8638L8.29965 13.8775ZM8.542 14.3622L8.56029 14.568C8.52828 14.5908 8.4917 14.5955 8.45969 14.6046V15.0939L9.1136 15.0023V14.5268L8.94898 14.5406C8.88953 14.4217 8.69747 12.6749 8.63803 12.3594C8.05728 12.3822 8.16247 12.2771 8.09387 12.7389L8.04814 13.1047L7.84694 14.5955C7.82865 14.7143 7.84237 14.6732 7.72348 14.696C7.63202 14.7143 7.65488 14.7189 7.65488 14.8241C7.65488 14.9521 7.65032 15.0939 7.65946 15.2219L8.31793 15.1075V14.6275C8.2402 14.6138 8.25392 14.6275 8.21734 14.6046L8.2402 14.3851L8.542 14.3622Z" fill="url(#paint6_linear_328_19165)"/>
<path d="M11.8407 7.62268C11.8087 7.56324 11.8224 7.59067 11.7675 7.5541C11.6715 7.49008 11.6029 7.41234 11.5206 7.33918C11.4428 7.26602 11.292 7.12426 11.2554 6.9825C11.3834 7.04652 11.2738 7.03738 11.4749 7.17913L11.6029 7.27973C11.6533 7.32089 11.6853 7.3346 11.7401 7.36661C12.0282 7.54038 12.0144 7.49465 12.234 7.26602C12.2568 7.24316 12.2477 7.26144 12.2614 7.23858C12.1745 7.14712 11.9322 7.00995 11.8407 6.75387L12.115 6.94592C12.1974 6.99622 12.3071 7.0511 12.4123 7.09683C12.5815 7.01451 12.5906 6.91392 12.7186 6.85904C12.6822 6.74472 12.5906 6.65327 12.5449 6.50236C12.6318 6.54351 12.6181 6.57096 12.6822 6.62584C12.7095 6.64412 12.8102 6.71728 12.8466 6.731L13.0113 6.61212C13.1942 6.46579 13.3314 6.41091 13.5144 6.29202C12.6816 6.27431 11.8606 6.4914 11.1457 6.91848C10.8484 7.14255 11.1777 7.5038 11.4062 7.63183C11.5892 7.73244 11.7126 7.76902 11.8407 7.62268Z" fill="#AEAAA9"/>
<path d="M15.2749 9.5408L15.7139 9.88372C15.7641 9.92491 15.7871 9.97068 15.8967 9.95692C16.1939 9.92949 16.3266 9.66883 16.3403 9.36251C16.4272 9.44935 16.5049 9.65059 16.5369 9.79228C16.5963 10.0392 16.5552 10.1627 16.4729 10.3684L16.6101 10.3502C16.6181 9.96865 16.5781 9.58764 16.4912 9.21612C16.4455 9.01494 16.29 8.39304 16.1986 8.25586C15.8327 8.33359 15.5904 8.88232 15.4486 9.16126C15.3891 9.27096 15.3114 9.41735 15.2749 9.5408Z" fill="#A40D30"/>
<path d="M9.34365 6.36863C9.37565 6.29546 9.40766 6.2543 9.45339 6.19029L9.51741 6.10797C9.57229 6.04396 9.56771 6.09425 9.56314 6.01195C9.54028 5.98452 9.34365 5.8519 9.29334 5.81532L9.66831 5.93879C9.80092 5.72845 9.93349 5.67357 10.0661 5.50438C10.0891 5.47693 10.0845 5.49524 10.0981 5.45865C10.0067 5.40377 9.89241 5.35348 9.81921 5.30318L10.1621 5.38549L10.2079 5.40377C10.2948 5.33061 10.3908 5.25745 10.5006 5.198C10.6515 5.10655 10.7749 5.08826 10.7977 5.01509L10.6056 4.92364L10.9029 4.99223C10.9944 4.99223 11.2642 4.90992 11.4151 4.89163C11.4883 4.88249 11.9136 4.90992 11.9227 4.90077C11.6277 4.76305 11.3063 4.69128 10.9807 4.69043C10.5074 4.7044 10.049 4.8588 9.66373 5.13398C9.47168 5.26201 9.43509 5.32604 9.27962 5.47237L9.07385 5.71473C9.00526 5.80161 8.89095 5.96622 8.84521 6.06225L9.08757 6.20858C9.17445 6.25888 9.25676 6.33204 9.34365 6.36863Z" fill="#ECEEED"/>
<path d="M6.63154 10.6168C6.61325 10.1047 6.89675 10.0956 7.18027 9.97667L7.20314 8.92042L7.21685 8.68263C7.21685 8.57747 7.18027 8.56831 7.12997 8.49058C7.07052 8.39911 7.06595 8.42199 6.96077 8.38541C6.87846 8.35339 6.82817 8.31681 6.75957 8.29395C6.57666 8.95243 6.46234 9.94018 6.63154 10.6168Z" fill="#BD0A30"/>
<path d="M15.5208 12.8606L15.6946 12.879V14.6304L15.5208 14.6165L15.53 15.1105L16.2936 15.2385V14.7218L16.1107 14.6944V12.8927L16.2891 12.8973V12.3851L15.5117 12.3623L15.5255 12.8606H15.5208Z" fill="url(#paint7_linear_328_19165)"/>
<path d="M11.2686 13.8584C11.3326 13.8264 11.4332 13.735 11.5063 13.7258C11.5521 13.8219 11.5338 14.1785 11.5246 14.3112C11.3782 14.3706 11.4103 14.334 11.2686 14.3249V13.8584ZM11.2686 13.1954V12.8479C11.36 12.8205 11.3966 12.8159 11.4561 12.8296L11.5246 12.8479C11.5338 13.0445 11.4469 13.1268 11.2686 13.1954ZM11.2046 13.3097C11.2868 13.2731 11.4057 13.1954 11.4834 13.136C11.607 13.0446 11.5933 12.9805 11.5933 12.793C11.5841 12.793 11.5795 12.7839 11.5749 12.793L11.4606 12.7701V12.322L12.1465 12.3174V12.7748L12.0094 12.7793C12.0048 13.3051 12.055 13.0536 11.8447 13.3783C11.8768 13.4377 11.9316 13.4789 11.9728 13.5338C12.0414 13.6252 12.0048 14.2334 12.0094 14.3752L12.1465 14.3844V14.8416H11.4514V14.3889L11.5566 14.3798L11.5703 14.3706H11.5887V13.9636C11.5887 13.7442 11.6161 13.7808 11.5018 13.6436C11.4332 13.671 11.2594 13.7852 11.2046 13.8356L11.2 14.3934C11.264 14.3934 11.2868 14.3844 11.3372 14.4026V14.8508L10.6054 14.8736V14.645L10.6238 14.4164L10.7838 14.4026V12.7885L10.6146 12.7839V12.3266L11.3372 12.3174V12.7748H11.2V13.3097H11.2046ZM12.2105 14.5307C12.2105 14.3204 12.2379 14.3614 12.0734 14.3112C12.0597 14.1511 12.0734 13.9316 12.0734 13.7624C12.0734 13.5017 12.0414 13.5338 11.927 13.3783C11.959 13.3097 12.0505 13.2411 12.0642 13.1726C12.087 13.0811 12.0642 12.944 12.0779 12.8388C12.1328 12.8388 12.1694 12.8296 12.1969 12.8068C12.2242 12.7107 12.2334 12.3494 12.1877 12.2854C12.1328 12.226 11.7167 12.2534 11.5658 12.2534C11.5155 12.2534 11.5018 12.2534 11.4561 12.2626C11.2502 12.2992 10.8387 12.2032 10.5644 12.2764C10.546 12.3814 10.5414 12.7336 10.5644 12.8388L10.729 12.8433L10.7244 14.3524C10.5186 14.3524 10.5414 14.3614 10.546 14.5672C10.546 14.6861 10.537 14.8233 10.5598 14.924C10.697 14.9513 11.2228 14.924 11.3737 14.8965C11.4286 14.8873 11.6663 14.9056 11.7716 14.9056C12.2699 14.8965 12.2059 14.9833 12.2105 14.5307Z" fill="#A40B2D"/>
<path d="M7.37642 4.97412L7.35813 5.10673C7.4496 5.08387 7.49532 5.00613 7.61879 4.96955C7.61879 4.96955 7.60964 4.96955 7.60964 4.97869C7.60964 4.98784 7.59134 4.99698 7.58678 5.00156L7.33984 5.24849V5.60059C7.42216 5.59145 7.36271 5.60516 7.4313 5.55944C7.5319 5.49542 7.60506 5.44969 7.72852 5.42682C7.62335 5.52743 7.381 5.64174 7.35813 5.76064L7.42673 6.14475C7.58678 6.05329 7.67366 5.95269 7.91601 5.90697L7.8017 5.97556C7.71024 6.03957 7.52732 6.1859 7.48617 6.27735C7.47703 6.33223 7.49989 6.36881 7.52276 6.42825C7.54104 6.48313 7.55476 6.52886 7.59592 6.56544C7.62335 6.52429 7.62793 6.52886 7.65536 6.49685L7.71481 6.42369C7.7834 6.34137 8.08978 6.08529 8.18123 6.05786C8.08978 5.82922 8.02576 5.82922 7.90687 5.43141C7.83711 5.17197 7.82463 4.90048 7.87028 4.63574C7.71938 4.68147 7.42216 4.88725 7.37642 4.97412Z" fill="#ECEEED"/>
<path d="M8.15944 11.4443C8.06799 11.3893 8.04969 11.3071 7.94452 11.2979C7.95824 11.3803 8.35607 12.1301 8.40179 12.1713C8.66245 12.0844 8.74018 12.0249 8.87737 12.1301C9.07399 12.281 9.0557 12.2856 9.21574 12.4228L9.32092 11.5768C9.05113 11.5906 8.75847 11.5631 8.55269 11.3893L8.47953 11.3253C8.43381 11.3985 8.44296 11.4397 8.44296 11.5357C8.34235 11.5219 8.23261 11.4899 8.15944 11.4443ZM15.4209 6.37764C15.5124 6.35477 15.6817 6.24046 15.7137 6.18101C15.7457 6.12613 15.7457 6.04383 15.741 5.97981C15.7319 5.83349 15.4758 5.68258 15.3661 5.59569C15.1329 5.40364 14.7121 5.15214 14.4333 5.01953C14.201 4.89986 13.9574 4.80337 13.7062 4.73145C13.7519 4.77718 13.8617 4.83662 13.9531 4.90064L14.2001 5.08355C14.4378 5.25274 14.6665 5.45852 14.854 5.66886C14.9911 5.81976 15.3432 6.20387 15.4209 6.37764ZM7.23117 12.3222C7.41409 12.4136 7.24946 12.1942 7.53297 12.5783C7.76161 12.8983 7.60157 12.7429 7.6793 12.9761C7.71131 13.0264 7.76619 13.0858 7.80734 13.1362L7.94452 13.2871L7.98111 13.1819C7.99483 13.0584 8.02684 12.935 7.9994 12.8435C7.84393 12.7521 7.85307 12.7841 7.75705 12.6331C7.57413 12.3496 7.55585 11.906 6.95681 11.2019C6.80133 11.019 6.72817 10.9138 6.63672 10.6395C6.68701 11.1791 6.99797 11.906 7.23117 12.3222ZM16.0337 7.35621C16.0291 7.41108 16.0657 7.45681 16.0977 7.51625L16.3264 8.0284C16.5916 8.06041 16.6511 8.01468 16.898 8.129C17.1677 8.26618 17.1815 8.36677 17.2637 8.42623C17.2226 8.07869 16.9025 7.51169 16.8522 7.31963C16.5413 7.31963 16.3401 7.31963 16.0337 7.35621ZM15.5444 6.54225C15.5993 6.63371 15.6679 6.73889 15.7273 6.84864C15.7822 6.94466 15.8599 7.08184 15.9239 7.17787C16.0153 7.18701 16.2074 7.15501 16.3081 7.14129C16.4453 7.12757 16.5916 7.14129 16.7196 7.12757C16.5041 6.75149 16.238 6.40683 15.9285 6.10328C15.8645 6.41879 15.7549 6.37764 15.5444 6.54225ZM12.5584 15.5459C12.691 15.5459 12.7368 15.5277 12.7413 15.6649C12.746 15.7563 12.7413 15.8478 12.714 15.9255H12.5584V15.5459ZM12.3527 15.2944C12.3938 15.4819 12.3755 15.7883 12.3709 15.9941L12.3481 16.6618H12.5767C12.5767 16.5886 12.5127 16.2501 12.5813 16.1816C12.6728 16.1999 12.7413 16.5474 12.7185 16.6708L12.9929 16.6846C12.97 16.6023 12.906 16.4879 12.874 16.3691C12.7917 16.0856 12.819 16.1953 12.9014 16.049C12.9562 15.953 12.9242 15.7518 12.9289 15.6283C12.9289 15.4363 12.8877 15.4271 12.8054 15.3082L12.3527 15.2944ZM12.092 15.9575C12.092 16.2045 12.1286 16.4011 12.0005 16.4057C11.8817 16.4057 11.9045 16.3279 11.9091 16.2319V15.9758C11.9091 15.7746 11.8771 15.5551 11.9822 15.5323C12.1606 15.5048 12.0874 15.8523 12.0874 15.9575H12.092ZM12.1561 16.6572C12.2018 16.5428 12.2703 16.5382 12.2749 16.3827V15.9758C12.2749 15.5735 12.3343 15.5323 12.1606 15.2899L11.8497 15.2854C11.6759 15.5505 11.7261 15.5048 11.7217 15.9575L11.7171 16.3599C11.7171 16.552 11.7673 16.5199 11.8268 16.6572H12.1561ZM13.8983 15.8386C13.8937 15.6419 13.8571 15.6009 14.0583 15.6191C14.0765 15.6923 14.072 15.77 14.0765 15.857C14.1314 15.8432 14.2092 15.802 14.2594 15.7563C14.2733 15.5825 14.2594 15.5505 14.168 15.4363C14.1224 15.3723 14.1269 15.3859 14.0308 15.3768C13.9623 15.3723 13.8937 15.3631 13.8251 15.3676C13.665 15.5369 13.7017 15.7059 13.7153 15.9758C13.7519 16.0032 14.0445 16.2593 14.0583 16.2959C14.0628 16.3142 14.104 16.5199 13.9623 16.5017C13.8525 16.4879 13.8799 16.3645 13.8845 16.2593L13.697 16.3417C13.697 16.7807 13.8067 16.7623 14.1269 16.7807C14.2458 16.584 14.2778 16.6114 14.2504 16.1953C14.2458 16.1039 13.976 15.8843 13.8983 15.834V15.8386ZM10.6196 15.7975C10.6196 15.7015 10.5876 15.5643 10.7202 15.5689C10.8254 15.5689 10.8025 15.6145 10.7979 15.7975C10.8802 15.77 10.9031 15.7198 10.9854 15.6877C10.9945 15.4911 10.9854 15.4408 10.8711 15.3174C10.4137 15.2991 10.4229 15.4637 10.4321 15.9667C10.5053 16.0079 10.7568 16.1816 10.775 16.2547C10.7979 16.3462 10.775 16.4559 10.6653 16.4468C10.5693 16.4377 10.5968 16.3279 10.5968 16.2181L10.4137 16.3325C10.3909 16.5748 10.4184 16.5611 10.5144 16.7258L10.8299 16.7028C10.8802 16.6343 10.9579 16.5337 10.9671 16.4331V16.049C10.8482 15.9896 10.743 15.857 10.6196 15.7975ZM10.3315 16.68L10.3453 16.5978L10.3635 16.4377C10.2263 16.4879 10.1715 16.4926 9.98857 16.5017C9.97022 16.1267 9.97022 16.0901 10.2492 16.1633V15.8432C10.144 15.889 10.1349 15.889 9.99765 15.889L10.0068 15.6146C10.1486 15.6009 10.1989 15.5917 10.3361 15.6237L10.2949 15.3585L9.80105 15.3951C9.83764 15.738 9.81935 16.4834 9.76448 16.8263L10.3041 16.7532C10.3315 16.7075 10.3177 16.744 10.3315 16.68ZM11.2735 15.6831C11.2735 15.5917 11.2506 15.5415 11.3558 15.5459C11.4473 15.5459 11.4473 15.5825 11.4518 15.6649C11.461 15.9164 11.4518 15.9438 11.2689 15.921L11.2735 15.6831ZM11.5341 15.2944L11.0769 15.3036C11.0677 15.7243 11.1225 16.2731 11.0495 16.6846L11.2917 16.6755C11.2597 16.5246 11.246 16.3462 11.2735 16.1861L11.5113 16.1725C11.6485 16.0307 11.6347 15.9667 11.6393 15.738C11.6439 15.2991 11.6301 15.5095 11.5341 15.2944Z" fill="#BD0A30"/>
<path d="M10.1616 5.38602C10.1982 5.42259 10.5321 5.54606 10.6647 5.64666C10.7012 5.66952 10.7195 5.69239 10.7561 5.71983C10.9116 5.825 10.8201 5.79755 10.9253 5.85701C10.971 5.84329 11.2089 5.6741 11.3369 5.61008C11.282 5.37687 10.9848 5.1528 10.7972 5.01562C10.7744 5.08879 10.6509 5.10707 10.5001 5.19852C10.3949 5.25798 10.2942 5.33571 10.212 5.40431L10.1616 5.38602Z" fill="#ADAAA9"/>
<path d="M10.9023 4.99117C11.0487 5.05976 11.1493 5.09177 11.2911 5.17865C11.4283 5.26553 11.5106 5.33413 11.602 5.46673C11.7118 5.4393 11.8124 5.37528 11.9312 5.36613C11.8962 5.2625 11.8308 5.17173 11.7438 5.10549L11.4831 4.90885C11.8124 4.99117 12.0227 5.15121 12.1691 5.32955C12.2742 5.45301 12.3611 5.46673 12.3702 5.68165C12.3748 5.86456 12.3246 6.00632 12.3154 6.18008C12.4526 6.06576 12.6995 5.20609 11.9221 4.89971C11.913 4.90885 11.4877 4.88142 11.4191 4.89057C11.2636 4.90885 10.9984 4.99117 10.9023 4.99117Z" fill="#AEAAA9"/>
<path d="M12.3338 13.964V13.0129C12.3338 12.4275 12.3842 12.679 12.5991 12.3223L13.2941 12.3269C13.3399 12.3817 13.5731 12.6424 13.5731 12.7018L13.5777 14.5127C13.5685 14.6041 13.4725 14.6818 13.4085 14.7504C13.253 14.9379 13.3217 14.8693 12.7317 14.8556C12.5579 14.851 12.5625 14.7962 12.4848 14.7001C12.279 14.4303 12.3338 14.5401 12.3338 13.9685V13.964ZM12.2744 14.5127C12.279 14.5537 12.4574 14.755 12.4894 14.8053C12.6037 14.9425 12.5489 14.9105 12.8826 14.9242C13.3627 14.9379 13.2987 15.0019 13.4817 14.7688C13.6325 14.5767 13.6462 14.6316 13.6417 14.4213C13.6372 14.0416 13.66 12.8619 13.6372 12.6836C13.628 12.6058 13.4725 12.4457 13.4221 12.3817C13.2987 12.2217 13.285 12.2629 13.0336 12.2629C12.5991 12.2583 12.6219 12.1851 12.4254 12.4457C12.2287 12.6973 12.2698 12.5967 12.2698 13.0311C12.2698 13.3192 12.2516 14.3846 12.2698 14.5127H12.2744Z" fill="#A40B2D"/>
<path d="M9.66797 5.93913L10.2076 6.23178C10.267 6.26836 10.331 6.32323 10.3813 6.34152C10.4362 6.29579 10.4728 6.25007 10.5322 6.1952C10.5917 6.14032 10.6374 6.1266 10.6969 6.04887C10.6603 5.96656 10.4957 5.7745 10.4408 5.71964L10.0978 5.45898C10.0841 5.49558 10.0887 5.47727 10.0658 5.50472C9.93315 5.6739 9.80058 5.72878 9.66797 5.93913Z" fill="#ADAAA9"/>
<path d="M13.0327 15.5915C13.1242 15.5641 13.1104 15.5594 13.2293 15.5686C13.2658 15.7607 13.2064 16.6066 13.2202 16.6981L13.4489 16.7164C13.403 16.4878 13.403 15.8155 13.4305 15.5778C13.5677 15.5823 13.5311 15.5869 13.6318 15.6235C13.6318 15.5321 13.6179 15.4132 13.5859 15.3492C13.4854 15.3217 13.179 15.3034 13.0647 15.3172L13.0327 15.5915Z" fill="#BD0A30"/>
<path d="M9.34375 6.36938L9.37119 6.39224L9.94736 6.83122C10.048 6.73977 10.0754 6.64831 10.1532 6.60258C10.0362 6.43304 9.89796 6.27934 9.74158 6.14531L9.65012 6.0813L9.56325 6.0127C9.56781 6.095 9.57239 6.0447 9.51752 6.10873L9.4535 6.19103C9.40777 6.25505 9.37576 6.29622 9.34375 6.36938Z" fill="#AEAAA9"/>
<path d="M11.1503 6.35987C11.0817 6.38273 11.0862 6.35987 10.9994 6.34158C10.9354 6.32787 10.9125 6.34158 10.8805 6.30957C10.6973 6.45808 10.5397 6.63574 10.4141 6.83543C10.597 6.83543 10.7433 6.88117 10.8897 6.92689C11.004 6.808 11.1321 6.57479 11.1503 6.35987Z" fill="#A60C30"/>
<path d="M12.8506 14.3296C12.7684 14.1513 12.814 13.8084 12.814 13.5797C12.814 13.3693 12.7775 13.0081 12.8461 12.8481C12.9833 12.8389 13.093 12.8115 13.093 12.9578V13.5797C13.0976 14.4028 13.157 14.3571 12.8506 14.3296ZM12.7546 14.2931C12.7684 14.3571 12.8278 14.3891 12.9009 14.3936C13.2347 14.4211 13.157 14.3021 13.157 13.8906C13.157 13.6894 13.1845 13.0447 13.157 12.8937C13.1159 12.7201 12.8369 12.7841 12.7912 12.8207C12.7089 12.8984 12.75 13.1545 12.75 13.287C12.75 13.4517 12.7272 14.1971 12.75 14.2931H12.7546Z" fill="#A40D30"/>
<path d="M7.59793 6.56097C7.5522 6.52897 7.54305 6.48323 7.52477 6.42836C7.5019 6.36892 7.47904 6.33233 7.48818 6.27745C7.40129 6.32777 7.24582 6.60669 7.18181 6.72559C7.1498 6.77589 7.07206 6.92678 7.07206 6.98166C7.07206 7.09141 7.14065 7.18286 7.15894 7.28346L7.21381 7.19658C7.33728 6.90849 7.4333 6.79875 7.59793 6.56097ZM7.42873 6.14485L7.36014 5.76074C7.25955 5.81561 7.14065 6.00309 7.06292 6.12199C6.92573 6.34148 6.95317 6.33233 6.98975 6.61584L7.40129 6.17686L7.41501 6.16772L7.42416 6.15857L7.42873 6.14485ZM6.41359 7.56697V7.73617C6.45474 7.72245 6.48217 7.62185 6.49589 7.59441L6.69253 7.64013C6.67881 7.73159 6.66509 7.80476 6.67423 7.90536L6.73825 7.8139C6.83885 7.63557 6.94402 7.69044 7.01718 7.68586C7.00569 7.642 6.98189 7.60233 6.9486 7.57155C6.94421 7.56823 6.93962 7.56517 6.93488 7.56241L6.89373 7.54868C6.76569 7.52125 6.73368 7.53496 6.51876 7.4618C6.27641 7.37949 6.18037 7.29261 6.0249 7.20573C6.09349 7.38864 6.29927 7.48009 6.41359 7.56697Z" fill="#AEAAA9"/>
<path d="M7.06231 13.022C7.12175 13.1134 7.11718 13.0678 7.11718 13.2141C7.11718 13.3055 7.12633 13.3605 7.09432 13.4245C7.05774 13.4885 6.89769 13.6302 6.84282 13.6622V13.0358L7.06689 13.022H7.06231ZM6.77881 12.9763V13.7948C6.86111 13.74 6.89312 13.7126 6.9617 13.6439C7.03945 13.5707 7.06689 13.5891 7.1309 13.4793C7.1995 13.3695 7.18121 13.3421 7.18121 13.1958C7.18121 13.054 7.17206 13.0358 7.08974 12.958L6.77881 12.9763Z" fill="#A40B2D"/>
<path d="M7.34447 5.60015L7.3399 5.24805L7.10669 5.57729C6.9878 5.74189 6.95121 5.7419 6.9375 5.98426L7.14784 5.80135C7.2896 5.63673 7.30789 5.68245 7.34447 5.60015Z" fill="#AEAAA9"/>
<path d="M6.83745 14.791C6.83745 14.6767 6.81459 14.4891 6.86946 14.4115C6.90147 14.3657 7.05237 14.2422 7.09811 14.224C7.12554 14.297 7.13012 14.5258 7.1164 14.6218C7.10267 14.7727 6.98836 14.7727 6.83745 14.791ZM6.77344 14.8642C6.98378 14.8322 7.15297 14.8412 7.18498 14.6401V14.3291C7.18498 14.2148 7.16213 14.1736 7.08438 14.1279C6.99293 14.2194 6.87861 14.3337 6.77801 14.3931V14.8642H6.77344Z" fill="#A40B2D"/>
<path d="M17.0064 14.0378L17.1803 14.0698L17.0934 13.2832C17.0476 13.3746 17.002 13.9052 17.002 14.0378H17.0064Z" fill="#9B0F31"/>
<path d="M8.30078 13.8769L8.46997 13.8631C8.49284 13.7625 8.41509 13.2916 8.40137 13.1543C8.34651 13.2687 8.31907 13.7169 8.30078 13.8769Z" fill="#A30D31"/>
<path d="M9.33877 11.4435L9.36163 11.1554L9.07812 11.1279C9.09641 11.2651 9.23817 11.4206 9.33877 11.4435Z" fill="#BD0A30"/>
<path d="M7.3589 5.10624L7.37718 4.97363C7.24558 5.0706 7.1272 5.18436 7.02508 5.31202C6.9935 5.36983 6.97478 5.43378 6.97021 5.4995L7.3589 5.10624Z" fill="#AEAAA9"/>
<path d="M10.875 6.30885C10.9116 6.33629 10.9344 6.32714 10.9984 6.34085C11.0852 6.35915 11.0808 6.38201 11.1493 6.35915L11.1951 6.03906C11.1128 6.07564 11.0852 6.11679 11.0258 6.16252C10.9482 6.22196 10.9344 6.22653 10.875 6.30885Z" fill="#CA0231"/>
<path d="M16.4351 10.9688L16.5403 11.353V11.3439L16.5495 11.3255L16.5586 11.2981C16.5769 11.2204 16.6271 10.9003 16.5861 10.8408L16.4351 10.9688Z" fill="#A70D31"/>
<path d="M7.33465 8.26085C7.36209 8.34773 7.40781 8.37517 7.43982 8.4529C7.545 8.38888 7.56329 8.27457 7.60902 8.31572C7.64103 8.28371 7.68675 8.22427 7.69589 8.18312C7.61359 8.16939 7.57701 8.18312 7.50384 8.21055C7.38496 8.24714 7.38953 8.27457 7.33008 8.25628L7.33465 8.26085Z" fill="#A60C30"/>
<defs>
<linearGradient id="paint0_linear_328_19165" x1="12.011" y1="3.99995" x2="12.011" y2="19.9999" gradientUnits="userSpaceOnUse">
<stop offset="0.55" stop-color="#D9D9D9"/>
</linearGradient>
<linearGradient id="paint1_linear_328_19165" x1="12.0005" y1="3.99951" x2="12.0005" y2="19.9995" gradientUnits="userSpaceOnUse">
<stop offset="0.55" stop-color="#D9D9D9"/>
</linearGradient>
<linearGradient id="paint2_linear_328_19165" x1="11.9995" y1="3.99959" x2="11.9995" y2="19.9996" gradientUnits="userSpaceOnUse">
<stop offset="0.55" stop-color="#D9D9D9"/>
</linearGradient>
<linearGradient id="paint3_linear_328_19165" x1="11.9854" y1="3.99991" x2="11.9854" y2="19.9959" gradientUnits="userSpaceOnUse">
<stop offset="0.55" stop-color="#D9D9D9"/>
</linearGradient>
<linearGradient id="paint4_linear_328_19165" x1="11.9996" y1="3.99995" x2="11.9996" y2="20" gradientUnits="userSpaceOnUse">
<stop offset="0.55" stop-color="#D9D9D9"/>
</linearGradient>
<linearGradient id="paint5_linear_328_19165" x1="11.9839" y1="3.994" x2="11.9839" y2="20.0002" gradientUnits="userSpaceOnUse">
<stop offset="0.55" stop-color="#D9D9D9"/>
</linearGradient>
<linearGradient id="paint6_linear_328_19165" x1="11.9882" y1="4.00039" x2="11.9882" y2="20.0004" gradientUnits="userSpaceOnUse">
<stop offset="0.55" stop-color="#D9D9D9"/>
</linearGradient>
<linearGradient id="paint7_linear_328_19165" x1="12.0453" y1="3.99871" x2="12.0453" y2="19.9987" gradientUnits="userSpaceOnUse">
<stop offset="0.55" stop-color="#D9D9D9"/>
</linearGradient>
</defs>
</svg>
