<svg width="24" height="24" viewBox="0 0 24 24" fill="none" xmlns="http://www.w3.org/2000/svg">
<path d="M8.50001 17.4763L5.485 19.6263C3.90247 17.9704 3.01338 15.7718 3 13.4813V13.3713C3.00067 10.9844 3.94952 8.69542 5.63781 7.00805C7.3261 5.3207 9.61556 4.37312 12.0025 4.37378C14.3894 4.37445 16.6785 5.3233 18.3658 7.01159C20.0531 8.69988 21.0007 10.9894 21 13.3762V13.4762C20.9908 15.7599 20.111 17.9539 18.5399 19.6113L15.5 17.4563V12.9013L16.61 12.0812L12.03 8.61628L7.45 12.0812L8.50001 12.9013V17.4763ZM12 11.9213H12.075C13.435 11.9213 14.5751 12.9262 14.495 14.2014V16.7513L11.995 15.0013L9.5 16.7763V14.2014C9.5 12.9213 10.635 11.9213 12 11.9213Z" fill="#FF4339"/>
</svg>
