<svg width="24" height="24" viewBox="0 0 24 24" fill="none" xmlns="http://www.w3.org/2000/svg">
<path d="M21 12C21 14.3869 20.0518 16.676 18.364 18.3639C16.6761 20.0518 14.3869 20.9999 11.9999 20.9999C9.61304 20.9999 7.32385 20.0518 5.63603 18.3639C3.9482 16.676 3 14.3869 3 12C3 9.61299 3.9482 7.32386 5.63603 5.63603C7.32385 3.94821 9.61304 3 11.9999 3C14.3869 3 16.6761 3.94821 18.364 5.63603C20.0518 7.32386 21 9.61299 21 12Z" fill="url(#paint0_linear_328_27379)" fill-opacity="0.3"/>
<path fill-rule="evenodd" clip-rule="evenodd" d="M11.9999 20.3699C13.1178 20.399 14.23 20.2038 15.2712 19.796C16.3124 19.3884 17.2614 18.7762 18.0622 17.9959C18.8631 17.2155 19.4995 16.2827 19.9341 15.2524C20.3687 14.2222 20.5926 13.1154 20.5926 11.9971C20.5926 10.8791 20.3687 9.77219 19.9341 8.7419C19.4995 7.71164 18.8631 6.77884 18.0622 5.99848C17.2614 5.21813 16.3124 4.60604 15.2712 4.19829C14.23 3.79054 13.1178 3.5954 11.9999 3.62438C9.817 3.68097 7.74234 4.58792 6.21832 6.15196C4.6943 7.716 3.8414 9.81341 3.8414 11.9971C3.8414 14.1809 4.6943 16.2783 6.21832 17.8424C7.74234 19.4065 9.817 20.3134 11.9999 20.3699ZM11.9999 20.9999C14.3869 20.9999 16.6761 20.0518 18.364 18.3639C20.0518 16.676 21 14.3869 21 12C21 9.61299 20.0518 7.32386 18.364 5.63603C16.6761 3.94821 14.3869 3 11.9999 3C9.61304 3 7.32385 3.94821 5.63603 5.63603C3.9482 7.32386 3 9.61299 3 12C3 14.3869 3.9482 16.676 5.63603 18.3639C7.32385 20.0518 9.61304 20.9999 11.9999 20.9999Z" fill="url(#paint1_linear_328_27379)"/>
<path d="M6.96558 16.3257L10.56 13.0688C10.8862 13.2375 11.4712 13.6313 11.4936 14.1825L8.31557 17.6869C7.86557 17.6758 6.96558 17.3832 6.96558 16.3257ZM8.15243 16.7475C8.19232 16.7532 8.23296 16.7503 8.27161 16.7389C8.31025 16.7274 8.346 16.7079 8.37642 16.6815C8.40686 16.6552 8.43126 16.6225 8.44798 16.5859C8.46471 16.5492 8.47336 16.5095 8.47336 16.4691C8.47336 16.4288 8.46471 16.3889 8.44798 16.3523C8.43126 16.3157 8.40686 16.283 8.37642 16.2566C8.346 16.2303 8.31025 16.2107 8.27161 16.1993C8.23296 16.1879 8.19232 16.185 8.15243 16.1907C8.07785 16.1907 8.00632 16.2203 7.95357 16.273C7.90082 16.3259 7.87119 16.3973 7.87119 16.4719C7.87119 16.5464 7.90082 16.618 7.95357 16.6707C8.00632 16.7235 8.07785 16.7532 8.15243 16.7532V16.7475Z" fill="url(#paint2_linear_328_27379)"/>
<path d="M11.612 12.7261L15.3075 14.3011L16.095 13.4686L15.9601 13.2999L16.3313 13.0073L16.7139 13.5024L15.4256 14.8523L11.73 13.2886L11.145 13.9242L10.7964 13.6036L11.612 12.7261Z" fill="#737071"/>
<path d="M11.2346 6.39258C10.1096 6.55569 9.3671 7.74257 9.13647 8.30507L14.7502 13.9694C15.2728 13.978 15.7787 13.7865 16.1647 13.4341C16.5507 13.0817 16.7872 12.5951 16.8259 12.0739L11.2346 6.39258Z" fill="#B38C68"/>
<path d="M10.0812 7.42803C9.84497 7.51803 9.62001 8.32803 9.54126 8.71615L14.57 13.7899C15.5093 13.7168 15.7568 13.2499 15.7682 13.025C16.0156 12.9686 16.595 12.3386 16.8481 12.0293L11.3243 6.41553C11.1331 6.50553 10.7619 6.73616 10.7619 6.93304C10.7619 7.18054 10.3737 7.31554 10.0812 7.42803Z" fill="url(#paint3_linear_328_27379)"/>
<path d="M14.5479 3.00563L11.2798 6.48187L16.7922 12.0338L20.9548 7.85999V3H14.5479V3.00563Z" fill="url(#paint4_linear_328_27379)"/>
<defs>
<linearGradient id="paint0_linear_328_27379" x1="6.20062" y1="5.17125" x2="17.3493" y2="18.8175" gradientUnits="userSpaceOnUse">
<stop stop-color="#99817E"/>
<stop offset="0.25" stop-color="#948680"/>
<stop offset="0.51" stop-color="#7C988B"/>
<stop offset="0.77" stop-color="#7B90A1"/>
<stop offset="1" stop-color="#868A9F"/>
</linearGradient>
<linearGradient id="paint1_linear_328_27379" x1="6.33562" y1="4.75499" x2="17.0062" y2="19.2337" gradientUnits="userSpaceOnUse">
<stop stop-color="#FF413F"/>
<stop offset="0.16" stop-color="#FD9819"/>
<stop offset="0.36" stop-color="#FCC008"/>
<stop offset="0.51" stop-color="#45C391"/>
<stop offset="0.7" stop-color="#D69B70"/>
<stop offset="0.86" stop-color="#A767E5"/>
<stop offset="1" stop-color="#6A8AEF"/>
</linearGradient>
<linearGradient id="paint2_linear_328_27379" x1="8.23224" y1="9.8186" x2="14.5199" y2="16.4099" gradientUnits="userSpaceOnUse">
<stop stop-color="#D02612"/>
<stop offset="0.48" stop-color="#EB4F2E"/>
<stop offset="1" stop-color="#841F0C"/>
</linearGradient>
<linearGradient id="paint3_linear_328_27379" x1="5.27187" y1="5.88446" x2="18.4543" y2="18.9393" gradientUnits="userSpaceOnUse">
<stop stop-color="#0EBEFF"/>
<stop offset="0.28" stop-color="#46CB85"/>
<stop offset="0.51" stop-color="#FA4B4C"/>
<stop offset="0.69" stop-color="#F9CD07"/>
<stop offset="1" stop-color="#AE63E4"/>
</linearGradient>
<linearGradient id="paint4_linear_328_27379" x1="13.1135" y1="4.47937" x2="18.5698" y2="10.0875" gradientUnits="userSpaceOnUse">
<stop stop-color="#79DBFF"/>
<stop offset="0.29" stop-color="#77DC9B"/>
<stop offset="0.55" stop-color="#EB6F69"/>
<stop offset="0.73" stop-color="#FEE074"/>
<stop offset="1" stop-color="#C58FEC"/>
</linearGradient>
</defs>
</svg>
