<svg width="24" height="24" viewBox="0 0 24 24" fill="none" xmlns="http://www.w3.org/2000/svg">
<path d="M21 12C21 14.387 20.0518 16.6761 18.364 18.3639C16.6761 20.0518 14.387 21 12 21C9.61306 21 7.32386 20.0518 5.63603 18.3639C3.94821 16.6761 3 14.387 3 12C3 9.61306 3.94821 7.32386 5.63603 5.63603C7.32386 3.94821 9.61306 3 12 3C14.387 3 16.6761 3.94821 18.364 5.63603C20.0518 7.32386 21 9.61306 21 12Z" fill="url(#paint0_linear_328_27396)"/>
<path fill-rule="evenodd" clip-rule="evenodd" d="M12 20.4705C14.2465 20.4705 16.4011 19.5782 17.9896 17.9896C19.5782 16.401 20.4705 14.2465 20.4705 12C20.4705 9.75339 19.5782 7.59892 17.9896 6.01038C16.4011 4.42184 14.2465 3.52941 12 3.52941C9.75351 3.52941 7.59892 4.42184 6.01038 6.01038C4.42185 7.59892 3.52941 9.75339 3.52941 12C3.52941 14.2465 4.42185 16.401 6.01038 17.9896C7.59892 19.5782 9.75351 20.4705 12 20.4705ZM12 21C14.387 21 16.6761 20.0518 18.364 18.3639C20.0518 16.6761 21 14.387 21 12C21 9.61306 20.0518 7.32386 18.364 5.63603C16.6761 3.94821 14.387 3 12 3C9.61306 3 7.32386 3.94821 5.63603 5.63603C3.94821 7.32386 3 9.61306 3 12C3 14.387 3.94821 16.6761 5.63603 18.3639C7.32386 20.0518 9.61306 21 12 21Z" fill="url(#paint1_linear_328_27396)"/>
<path d="M12.2332 7.23462C12.3867 7.23462 12.4608 7.4305 12.3549 7.54168L8.92439 11.1575C8.81851 11.274 8.89263 11.4646 9.04616 11.4646H10.2903C10.4015 11.4646 10.4862 11.5758 10.4545 11.6922L9.57554 15.0435C9.5664 15.0803 9.54539 15.1133 9.51572 15.1372C9.4861 15.1611 9.44949 15.1745 9.41146 15.1758H6.3038C6.22969 15.1758 6.17676 15.1123 6.17676 15.0382V15.0064L6.6691 13.0529C6.67507 13.0248 6.69035 12.9996 6.71245 12.9813C6.73456 12.9631 6.7622 12.9529 6.79086 12.9522H7.37322C7.45262 12.9522 7.52146 12.8992 7.53733 12.8199L8.25733 9.84464C8.2891 9.72815 8.20439 9.61697 8.09321 9.61697H7.75969C7.72727 9.61574 7.69641 9.60276 7.67299 9.58028C7.64957 9.5578 7.6352 9.52755 7.63263 9.49521L7.63792 9.44757L8.17793 7.33521C8.18389 7.30716 8.19917 7.28196 8.22128 7.2637C8.24338 7.24543 8.27102 7.2352 8.29969 7.23462H12.2332Z" fill="white"/>
<path d="M13.4292 10.9404C13.5829 10.9404 13.6569 11.1364 13.5511 11.2475L10.1099 14.8687C10.0774 14.901 10.0584 14.9446 10.0569 14.9904C10.0569 15.0856 10.1257 15.1757 10.2317 15.1757H13.514C13.5564 15.1757 13.5988 15.1598 13.6305 15.1227L14.9858 13.7834C15.0387 13.7304 15.0811 13.6617 15.1023 13.5822L15.4464 12.3381C15.5099 12.1263 15.7746 12.0734 15.8964 12.2533L16.0023 12.3963C16.0344 12.4419 16.0559 12.494 16.065 12.5491C16.0742 12.6041 16.0708 12.6604 16.0552 12.7139L15.7058 14.0746C15.6843 14.1531 15.6423 14.2243 15.584 14.281L14.1758 15.6257C14.1295 15.6725 14.0668 15.6993 14.0011 15.6999H7.25109C7.15579 15.6999 7.07108 15.7527 7.02344 15.8375C6.9705 15.9433 6.98108 16.0387 7.0605 16.1287L7.47873 16.711C7.51051 16.7375 7.54756 16.7587 7.5952 16.7587H15.007C15.0546 16.7587 15.0969 16.7375 15.1287 16.7057L16.4946 15.2234C16.5448 15.1673 16.5811 15.1002 16.6005 15.0275L16.9976 13.5133C17.0059 13.483 17.0065 13.4512 16.999 13.4205C16.9916 13.39 16.9766 13.3618 16.9552 13.3387L16.4153 12.7933C16.3839 12.7586 16.3668 12.7132 16.3676 12.6664C16.3676 12.6187 16.3835 12.5763 16.4206 12.5393L17.4793 11.4434C17.5323 11.3904 17.5746 11.3163 17.5905 11.2422L17.8129 10.3951C17.8256 10.3493 17.8265 10.3009 17.8153 10.2545C17.8042 10.2083 17.7815 10.1655 17.7493 10.1304L17.3258 9.6804C17.1299 9.47925 16.7963 9.58515 16.7435 9.86569L16.68 10.2257C16.6656 10.2935 16.6325 10.3559 16.5846 10.4057L15.5046 11.4645C15.4893 11.4824 15.4701 11.4968 15.4486 11.5066C15.4272 11.5165 15.4038 11.5216 15.3802 11.5216C15.3566 11.5216 15.3333 11.5165 15.3118 11.5066C15.2903 11.4968 15.2712 11.4824 15.2558 11.4645L14.9805 11.147C14.9488 11.1119 14.9318 11.0661 14.9328 11.0188C14.9336 10.9716 14.9527 10.9265 14.9858 10.8928L16.0181 9.92399C16.0711 9.871 16.1135 9.79689 16.1346 9.71214L16.3516 8.84925C16.3635 8.80414 16.3639 8.75679 16.3527 8.7115C16.3416 8.66621 16.3195 8.62439 16.2881 8.58984L15.0334 7.26631C15.0216 7.25453 15.0076 7.24519 14.9922 7.23882C14.9767 7.23246 14.9601 7.22921 14.9434 7.22925H13.0269C12.9475 7.22925 12.8787 7.2822 12.8629 7.3616L12.021 10.7075C11.9946 10.8239 12.074 10.9351 12.1852 10.9351H13.4292V10.9404Z" fill="white"/>
<defs>
<linearGradient id="paint0_linear_328_27396" x1="12" y1="4.75235" x2="12" y2="21" gradientUnits="userSpaceOnUse">
<stop stop-color="#DD4076"/>
<stop offset="0.52" stop-color="#AF3466"/>
<stop offset="1" stop-color="#471840"/>
</linearGradient>
<linearGradient id="paint1_linear_328_27396" x1="12" y1="3" x2="12" y2="21" gradientUnits="userSpaceOnUse">
<stop stop-color="#F42776"/>
<stop offset="1" stop-color="#E92776"/>
</linearGradient>
</defs>
</svg>
