<svg width="24" height="24" viewBox="0 0 24 24" fill="none" xmlns="http://www.w3.org/2000/svg">
<path d="M18.2123 7.01416C17.652 7.12424 17.1266 7.27933 16.6914 7.3744C16.1304 7.4959 15.622 7.79165 15.2393 8.21939C14.8565 8.64712 14.6188 9.18494 14.56 9.75592C14.38 11.0018 14.8002 11.5371 14.615 12.988C14.2948 15.5147 11.8632 16.3902 10.7325 16.9156C10.0821 17.2157 8.48605 17.9162 7.26025 18.4516C8.82305 19.5969 10.7481 20.1365 12.6787 19.9705C14.6091 19.8044 16.4137 18.9437 17.7578 17.5482C19.1021 16.1528 19.8945 14.3172 19.9882 12.3818C20.0819 10.4465 19.4705 8.54297 18.2675 7.02417L18.2073 7.01416H18.2123Z" fill="url(#paint0_linear_328_27508)"/>
<path d="M11.1071 10.8325C11.7224 9.50171 11.5024 9.49671 11.9675 8.2459C12.089 7.87137 12.3299 7.54706 12.6536 7.32288C12.9772 7.09869 13.3655 6.98703 13.7587 7.0051C14.219 7.0051 14.6993 7.15019 14.9046 7.1752C15.74 7.29028 15.9553 6.99008 17.7213 6.70991L17.9715 6.67488C17.0933 5.69034 15.9853 4.93827 14.7462 4.48563C13.5069 4.03298 12.175 3.89381 10.869 4.08053C9.56298 4.26724 8.32342 4.77404 7.2607 5.55578C6.19798 6.33752 5.34508 7.36993 4.77795 8.56111C7.42466 9.21152 10.2765 10.6374 11.1071 10.8325ZM9.35591 5.40406C9.59107 5.43908 10.7218 6.83998 10.9319 10.4472C10.9319 10.4472 9.48099 10.097 9.16579 9.34661C8.91062 8.73622 9.24584 7.92569 9.35591 5.40406ZM18.2617 7.0051L18.2767 7.02011L18.2116 7.0151C18.2317 7.0051 18.2467 7.0051 18.2617 7.0051ZM4.00245 12.0084C4.00245 11.3679 4.0775 10.7475 4.21759 10.1572C4.50777 10.3973 4.81798 10.6674 5.14819 10.9726C7.23454 12.9039 10.6268 14.4299 11.8625 13.0139H11.8675C11.6425 13.3142 10.8269 14.1847 9.18081 13.8895L6.52909 17.8471C5.73029 17.099 5.09382 16.1946 4.65917 15.1902C4.22453 14.1859 4.001 13.1028 4.00245 12.0084Z" fill="url(#paint1_linear_328_27508)"/>
<defs>
<linearGradient id="paint0_linear_328_27508" x1="16.003" y1="6.58216" x2="13.7135" y2="19.4204" gradientUnits="userSpaceOnUse">
<stop stop-color="#FF496A"/>
<stop offset="1" stop-color="#E42648"/>
</linearGradient>
<linearGradient id="paint1_linear_328_27508" x1="7.86495" y1="15.7958" x2="12.0426" y2="4.00315" gradientUnits="userSpaceOnUse">
<stop stop-color="#1158F1"/>
<stop offset="1" stop-color="#119BED"/>
</linearGradient>
</defs>
</svg>
