<svg width="24" height="24" viewBox="0 0 24 24" fill="none" xmlns="http://www.w3.org/2000/svg">
<path d="M10.7456 5.06618C10.7933 5.07676 10.841 5.07676 10.8939 5.06618C10.9151 5.06088 10.9256 5.04499 10.9309 5.01851L11.2804 3.02783C11.2804 3.00664 11.2962 2.99605 11.3175 3.00135L13.2605 3.39314C13.2711 3.39314 13.2764 3.39843 13.2817 3.40902L13.2922 3.43549L13.2764 3.59433C13.1669 4.24584 13.0557 4.89704 12.9429 5.54796L12.9586 5.55855L14.0917 5.82326C14.1062 5.82705 14.1213 5.8276 14.1358 5.82486C14.1505 5.82211 14.1644 5.81614 14.1765 5.80739C14.2011 5.78949 14.218 5.76305 14.224 5.73326L14.5682 3.73198C14.5735 3.71079 14.5841 3.69492 14.6 3.67903C14.6076 3.67379 14.6163 3.67015 14.6254 3.66832C14.6344 3.66651 14.6438 3.66654 14.653 3.66845C15.267 3.77433 15.9024 3.92257 16.5431 4.04964C16.5801 4.06023 16.5959 4.08141 16.5906 4.11847C16.4847 4.78027 16.3683 5.45265 16.2413 6.13564C16.2148 6.27858 16.2519 6.32094 16.3736 6.37389C16.8263 6.56257 17.2317 6.84875 17.5612 7.21205C17.8907 7.57535 18.136 8.00684 18.2796 8.47577C18.3748 8.83049 18.3537 9.15345 18.3484 9.52406C18.3185 9.98247 18.1812 10.4273 17.9477 10.8228C17.7141 11.2183 17.3906 11.5532 17.0036 11.8006C16.5414 12.1089 16.029 12.3347 15.4894 12.4677C14.4517 12.7166 13.25 12.8277 12.1963 12.6214C12.0004 12.579 11.8098 12.6 11.6193 12.5843C11.1679 12.5438 10.713 12.5987 10.2844 12.7456C9.85568 12.8924 9.46261 13.128 9.13085 13.4367C8.567 14.0074 8.16974 14.7214 7.98197 15.5014V15.5545C7.99255 15.5756 8.00844 15.5915 8.02432 15.5967L8.16727 15.6391C9.61799 15.9145 11.4286 16.4121 12.7629 16.5074C14.0917 16.5973 15.0553 15.2791 14.6 13.929C14.5983 13.9228 14.598 13.9164 14.5989 13.9099C14.5997 13.9035 14.6019 13.8975 14.6053 13.8919L14.6212 13.876L14.637 13.8707C15.5107 13.8177 16.0824 13.606 16.8607 13.2619C16.9665 13.209 17.0407 13.3095 17.1254 13.4101C17.5751 13.9849 17.7992 14.7041 17.7555 15.4326C17.7427 16.1224 17.5151 16.7911 17.104 17.3455C16.693 17.8998 16.1194 18.3119 15.463 18.5245C15.1082 18.6357 14.8436 18.694 14.6687 18.6993C14.4915 18.7064 14.3146 18.7242 14.1394 18.7522C14.1129 18.7522 14.0864 18.7681 14.0653 18.7892C14.0436 18.8108 14.0287 18.8386 14.0229 18.8687L13.6734 20.9335C13.6734 20.9547 13.6577 20.9705 13.6416 20.9864C13.6326 20.9929 13.6222 20.9972 13.6111 20.999C13.6002 21.0008 13.5888 21.0002 13.5782 20.997L11.7093 20.6265C11.6952 20.6262 11.6819 20.6206 11.6722 20.6106C11.6649 20.5995 11.6612 20.5867 11.6616 20.5735L11.6775 20.3776C11.7853 19.7319 11.8911 19.0861 11.9951 18.4399L11.9899 18.4186C11.9856 18.4123 11.9802 18.407 11.9739 18.4028C11.9677 18.3977 11.9604 18.394 11.9528 18.3922L10.8568 18.2068C10.8395 18.2032 10.8216 18.2032 10.8043 18.2068C10.787 18.2104 10.7706 18.2177 10.7562 18.228C10.7298 18.2492 10.7085 18.281 10.7032 18.3234L10.375 20.2453C10.3644 20.3193 10.3222 20.3511 10.2532 20.3353L8.40023 19.9646C8.39058 19.9627 8.3814 19.959 8.37321 19.9536C8.36503 19.9482 8.35802 19.9411 8.35257 19.9328C8.34347 19.9148 8.34158 19.894 8.34729 19.8746L8.68084 17.9368C8.68516 17.9134 8.68143 17.8891 8.67024 17.868C8.66397 17.8574 8.65556 17.848 8.64554 17.8407C8.63552 17.8334 8.62411 17.8284 8.612 17.8256L5.73714 17.2539C5.66302 17.2433 5.63126 17.1851 5.65244 17.0951C5.79537 16.3379 5.99657 15.5915 6.24011 14.8661C6.48724 14.122 6.81012 13.4053 7.20369 12.7272C7.95549 11.4565 9.35322 10.8689 10.6979 10.7417C10.9998 10.7099 11.2909 10.6729 11.598 10.6942C12.2704 10.747 12.9269 10.8159 13.5993 10.9006C13.7262 10.9121 13.8537 10.9121 13.9806 10.9006C14.907 10.8371 15.5318 10.0535 15.3571 9.06873C15.193 8.14751 14.3141 7.95692 13.4828 7.76102C12.9693 7.63925 12.4663 7.53336 11.9686 7.44335C11.8839 7.42747 11.831 7.46453 11.8151 7.54925L11.5028 9.3864C11.4983 9.417 11.4834 9.44511 11.4604 9.46582C11.4491 9.4765 11.4358 9.4848 11.4213 9.49026C11.4067 9.49572 11.3912 9.49821 11.3756 9.49759C10.5285 9.46052 9.68149 9.55059 8.87672 9.87882C8.7028 9.9496 8.52807 10.0184 8.35257 10.0852L8.3367 10.0799L8.3314 10.0694V10.0535L8.83967 7.14687C8.89262 6.86627 8.78672 6.65449 8.54318 6.51155C8.28904 6.358 7.90784 6.32624 7.60607 6.26271C7.5981 6.26012 7.59073 6.25598 7.58437 6.25052C7.578 6.24507 7.57279 6.23841 7.56901 6.23093C7.55977 6.21687 7.55602 6.19992 7.55842 6.18328L7.84961 4.48908V4.4732L7.8602 4.4679C7.86315 4.46556 7.86656 4.46389 7.87022 4.46297C7.87387 4.46206 7.87768 4.46193 7.88137 4.4626C8.83524 4.6596 9.78822 4.8608 10.7403 5.06618H10.7456Z" fill="#F6931A"/>
</svg>
