<svg width="24" height="24" viewBox="0 0 24 24" fill="none" xmlns="http://www.w3.org/2000/svg">
<path d="M7.34712 11.442L5.77214 14.7722L6.50077 17.4993L8.36406 17.9942L10.6676 20.2978L9.97513 21L4.47586 19.5241L3 14.0248L8.91249 8.11238L7.34712 11.442L5.77214 14.7722L10.6676 9.86691L8.91249 8.11238L7.34712 11.442ZM9.86693 13.3316L14.7625 18.2278L17.4993 17.4993L17.9942 15.6358L20.2978 13.3324L21 14.0248L19.5241 19.5241L14.0249 21L8.11177 15.0868L9.86693 13.3316ZM14.1329 10.6684L9.23748 5.77214L6.50077 6.50077L6.0058 8.36408L3.7022 10.6676L3 9.97512L4.47586 4.47586L9.97513 3L15.8875 8.91249L14.1329 10.6684ZM15.6358 6.0058L13.3324 3.7022L14.0249 3L19.5241 4.47586L21 9.97512L15.0868 15.8881L13.3316 14.1331L18.2278 9.22779L17.4993 6.50077L15.6358 6.0058Z" fill="#6C5A5A"/>
</svg>
