<svg width="24" height="24" viewBox="0 0 24 24" fill="none" xmlns="http://www.w3.org/2000/svg">
<path fill-rule="evenodd" clip-rule="evenodd" d="M11.9999 9.74999C11.9999 10.8109 11.5786 11.8282 10.8284 12.5784C10.0782 13.3286 9.06085 13.75 7.99999 13.75C6.93913 13.75 5.92172 13.3286 5.17156 12.5784C4.42142 11.8282 4 10.8109 4 9.74999C4 8.68912 4.42142 7.6717 5.17156 6.92156C5.92172 6.17142 6.93913 5.75 7.99999 5.75C9.06085 5.75 10.0782 6.17142 10.8284 6.92156C11.5786 7.6717 11.9999 8.68912 11.9999 9.74999ZM10.5 9.74999C10.5 10.413 10.2365 11.0489 9.76778 11.5178C9.2989 11.9866 8.66302 12.25 7.99999 12.25C7.33695 12.25 6.70106 11.9866 6.23222 11.5178C5.76339 11.0489 5.49999 10.413 5.49999 9.74999C5.49999 9.08695 5.76339 8.45106 6.23222 7.98222C6.70106 7.51339 7.33695 7.24999 7.99999 7.24999C8.66302 7.24999 9.2989 7.51339 9.76778 7.98222C10.2365 8.45106 10.5 9.08695 10.5 9.74999ZM5.99999 14.75H4.5C4.5 15.2096 4.59053 15.6647 4.76642 16.0894C4.94231 16.514 5.20011 16.8998 5.52512 17.2249C5.85013 17.5498 6.23596 17.8076 6.6606 17.9835C7.08524 18.1595 7.54036 18.25 7.99999 18.25C8.45962 18.25 8.91474 18.1595 9.33938 17.9835C9.76404 17.8076 10.1499 17.5498 10.4749 17.2249C10.7998 16.8998 11.0576 16.514 11.2336 16.0894C11.4095 15.6647 11.4999 15.2096 11.4999 14.75H9.99994C9.99994 15.2804 9.78924 15.789 9.41419 16.1642C9.03913 16.5392 8.53042 16.7499 7.99999 16.7499C7.46955 16.7499 6.96086 16.5392 6.58578 16.1642C6.21071 15.789 5.99999 15.2804 5.99999 14.75ZM8.99998 9.74999C8.99966 9.93696 8.94692 10.1201 8.84777 10.2786C8.74862 10.4371 8.60702 10.5646 8.43905 10.6466C8.27107 10.7288 8.08345 10.7622 7.89749 10.743C7.7115 10.7238 7.53463 10.6528 7.38693 10.5382C7.23922 10.4237 7.12662 10.2699 7.06186 10.0946C6.99713 9.91911 6.98285 9.7291 7.02066 9.54601C7.05846 9.36291 7.14684 9.19409 7.27576 9.05868C7.40467 8.92328 7.56897 8.82673 7.74998 8.77999V8.24998H8.24999V8.77999C8.46494 8.83549 8.6553 8.96093 8.79109 9.13656C8.92688 9.31218 9.00038 9.528 8.99998 9.74999ZM16 10.25C17.0608 10.25 18.0782 10.6714 18.8284 11.4215C19.5785 12.1717 20 13.1891 20 14.25C20 15.3109 19.5785 16.3283 18.8284 17.0783C18.0782 17.8285 17.0608 18.25 16 18.25C14.9391 18.25 13.9217 17.8285 13.1715 17.0783C12.4214 16.3283 11.9999 15.3109 11.9999 14.25C11.9999 13.1891 12.4214 12.1717 13.1715 11.4215C13.9217 10.6714 14.9391 10.25 16 10.25ZM16 11.7499C16.663 11.7499 17.299 12.0134 17.7677 12.4822C18.2366 12.951 18.4999 13.587 18.4999 14.25C18.4999 14.913 18.2366 15.5489 17.7677 16.0178C17.299 16.4866 16.663 16.7499 16 16.7499C15.337 16.7499 14.701 16.4866 14.2322 16.0178C13.7634 15.5489 13.4999 14.913 13.4999 14.25C13.4999 13.587 13.7634 12.951 14.2322 12.4822C14.701 12.0134 15.337 11.7499 16 11.7499ZM16.9999 14.25C16.9997 14.063 16.947 13.8799 16.8478 13.7214C16.7486 13.563 16.607 13.4353 16.439 13.3533C16.2711 13.2712 16.0834 13.2378 15.8974 13.257C15.7114 13.2762 15.5346 13.3471 15.3869 13.4617C15.2392 13.5764 15.1266 13.73 15.0618 13.9055C14.9971 14.0808 14.9829 14.2709 15.0206 14.4539C15.0585 14.6371 15.1468 14.8059 15.2757 14.9413C15.4046 15.0767 15.5689 15.1732 15.75 15.22V15.75H16.25V15.22C16.4649 15.1644 16.6553 15.039 16.7911 14.8634C16.9269 14.6878 17.0004 14.472 16.9999 14.25ZM16 5.75C16.5893 5.75034 17.169 5.89949 17.6854 6.18362C18.2017 6.46774 18.6379 6.87766 18.9536 7.37534C19.2692 7.87302 19.4541 8.44234 19.4911 9.03053C19.528 9.61871 19.4158 10.2067 19.165 10.74C18.7856 10.3977 18.3534 10.1191 17.885 9.91499C17.9919 9.61328 18.025 9.29029 17.9812 8.97318C17.9374 8.65606 17.8182 8.3541 17.6335 8.09264C17.4487 7.83118 17.2041 7.61786 16.9198 7.47064C16.6356 7.32342 16.3201 7.24658 16 7.24658C15.6798 7.24658 15.3644 7.32342 15.0802 7.47064C14.7958 7.61786 14.5511 7.83118 14.3664 8.09264C14.1818 8.3541 14.0625 8.65606 14.0187 8.97318C13.975 9.29029 14.008 9.61328 14.115 9.91499C13.6399 10.12 13.21 10.4 12.835 10.74C12.5841 10.2067 12.4718 9.61871 12.5089 9.03053C12.5458 8.44234 12.7307 7.87302 13.0463 7.37534C13.362 6.87766 13.7982 6.46774 14.3146 6.18362C14.8309 5.89949 15.4106 5.75034 16 5.75Z" fill="#0A0000"/>
</svg>
