<svg width="24" height="24" viewBox="0 0 24 24" fill="none" xmlns="http://www.w3.org/2000/svg">
<path d="M20.7196 15.4432C20.7196 18.3513 16.8214 20.7306 12.029 20.7306C7.23649 20.7306 3.33838 18.3513 3.33838 15.4432V14.0762H20.7758V15.4432H20.7196Z" fill="#FBD984"/>
<path d="M6.6965 5.352C6.64295 5.10165 6.64592 4.84251 6.70519 4.59346C6.76446 4.3444 6.87856 4.11171 7.03914 3.91233C7.19973 3.71293 7.40277 3.55189 7.63347 3.44091C7.86418 3.32991 8.11673 3.27179 8.37274 3.27075C9.32899 3.27075 10.4033 4.047 10.4033 4.99764V8.91261C11.0052 8.85637 11.3089 8.80012 11.9671 8.80012C12.5689 8.80012 12.8784 8.73825 13.4746 8.80012L13.6266 4.78951C13.6266 3.83888 14.5433 3.27075 15.5052 3.27075C16.5796 3.27075 17.4176 4.28325 17.2434 5.352L16.7146 9.627C19.2346 10.5776 20.714 12.2371 20.714 14.1382C20.714 17.0463 16.8214 19.4201 12.029 19.4201C7.23649 19.4201 3.33838 17.0463 3.33838 14.1326C3.33838 12.2371 4.66587 10.5776 7.18587 9.627L6.6965 5.352Z" fill="#CA7D45"/>
<path d="M9.75047 13.9687C9.75047 14.7282 9.37929 15.3749 8.90674 15.3749C8.43425 15.3749 8.06299 14.7282 8.06299 13.9687C8.06299 13.2093 8.43425 12.5625 8.90674 12.5625C9.37929 12.5625 9.75047 13.2093 9.75047 13.9687ZM15.938 13.9687C15.938 14.7282 15.5666 15.3749 15.0942 15.3749C14.6217 15.3749 14.2505 14.7282 14.2505 13.9687C14.2505 13.2093 14.6217 12.5625 15.0942 12.5625C15.5666 12.5625 15.938 13.2093 15.938 13.9687Z" fill="#522D0B"/>
<path d="M6.37499 5.8125C6.09374 4.34999 7.08936 3 8.56874 3C9.86806 3 10.875 4.06875 10.875 5.36249L10.6893 8.33249H11.9718C12.3093 8.33249 12.6806 8.33249 13.125 8.38874V5.36249C13.125 4.06875 14.0137 3 15.3187 3C16.7981 3 17.85 4.34999 17.6249 5.8125L17.0625 9.24374C19.2787 10.1999 21 11.8875 21 13.9687V15.2625C21 17.0062 19.8637 18.4687 18.2156 19.4249C16.5731 20.4374 14.4188 20.9999 11.9718 20.9999C9.52497 20.9999 7.37062 20.4374 5.72812 19.4249C4.13624 18.4687 3 17.0062 3 15.2625V13.9687C3 11.8875 4.72125 10.1438 6.93749 9.18749L6.37499 5.8125ZM16.5 9.75001L17.0625 5.77313C17.2312 4.76063 16.455 3.675 15.3749 3.675C14.9351 3.67183 14.5113 3.84056 14.1939 4.14527C13.8767 4.44998 13.6908 4.86656 13.6762 5.30625V9.01874C13.2037 8.94561 12.5005 8.90623 11.9718 8.90623C11.3813 8.90623 10.6893 8.96249 10.2112 9.01874L10.3125 5.36249C10.3125 4.4625 9.46867 3.5625 8.56874 3.5625C7.54499 3.5625 6.74623 4.6875 6.97687 5.69999L7.49999 9.75001C5.115 10.65 3.5625 12.225 3.5625 14.0249V15.3187C3.5625 18.0749 7.45498 20.4374 11.9999 20.4374C16.545 20.4374 20.4375 18.0749 20.4375 15.3187V14.0249C20.4937 12.1687 18.9412 10.65 16.5 9.75001Z" fill="#522D0B"/>
</svg>
