<svg width="24" height="24" viewBox="0 0 24 24" fill="none" xmlns="http://www.w3.org/2000/svg">
<path fill-rule="evenodd" clip-rule="evenodd" d="M10.4092 3H8.29415V6.20081C7.3199 6.82279 6.51815 7.68028 5.96297 8.69406C5.40777 9.70782 5.11705 10.8451 5.11768 12.001C5.11705 13.1569 5.40777 14.2942 5.96297 15.308C6.51815 16.3218 7.3199 17.1793 8.29415 17.8013V21H10.4092V18.6986C10.9199 18.8193 11.4521 18.8839 11.9999 18.8839C12.5463 18.8839 13.0784 18.8198 13.5882 18.6992V21H15.7059V17.8019C16.0859 17.5582 16.4407 17.2788 16.7647 16.9676V18.8839H18.8824V5.64704H16.7647V7.03464C16.4397 6.72287 16.0851 6.4436 15.7059 6.20081V3H13.5882V5.30293C13.0678 5.18021 12.5347 5.11839 11.9999 5.1187C11.4527 5.1187 10.9199 5.18223 10.4092 5.30399V3ZM16.7647 12C16.7647 10.7363 16.2627 9.52439 15.3691 8.63083C14.4757 7.73728 13.2637 7.23529 11.9999 7.23529C10.7364 7.23529 9.52442 7.73728 8.63087 8.63083C7.73732 9.52439 7.23532 10.7363 7.23532 12C7.23532 13.2636 7.73732 14.4755 8.63087 15.3691C9.52442 16.2627 10.7364 16.7647 11.9999 16.7647C13.2637 16.7647 14.4757 16.2627 15.3691 15.3691C16.2627 14.4755 16.7647 13.2636 16.7647 12Z" fill="#0723A1"/>
</svg>
