<svg width="24" height="24" viewBox="0 0 24 24" fill="none" xmlns="http://www.w3.org/2000/svg">
<path d="M8.19043 14.1221C8.33892 14.3746 8.84039 15.2096 9.04138 15.3236C9.05787 16.2414 9.57634 16.961 10.2973 17.4624C12.0187 18.6578 14.5801 19.0112 16.5483 18.3159C16.9943 18.1579 17.5569 17.8519 17.8318 17.6128C17.7748 17.9659 16.6209 18.7328 16.1804 18.8977C15.097 19.3048 13.8806 19.3263 12.7522 19.1308C12.0336 19.0063 11.3457 18.7857 10.7002 18.4392C9.95033 18.0368 9.33536 17.4459 8.77689 16.8074C8.27943 15.8725 8.21843 14.9331 8.19043 14.1221Z" fill="#90BCCF"/>
<path d="M8.94254 18.0952C8.68106 17.7002 8.60306 17.2862 8.60656 16.8237C9.01953 17.1437 10.569 19.5151 14.3691 19.3761C15.5501 19.3331 16.8115 18.9861 17.639 18.0926C17.6589 18.0716 17.788 17.9296 17.788 17.9296C17.788 18.7296 17.1945 19.0976 17.022 19.218C16.2645 19.748 15.1997 19.9521 14.2858 19.9855C12.5148 20.0805 10.0215 19.73 8.94254 18.0952Z" fill="#2D5163"/>
<path d="M9.84313 15.8065C9.92164 16.1719 10.3425 17.3354 10.4976 17.4253C11.0755 17.7617 11.6655 18.0292 12.3105 18.2082C13.2999 18.4853 14.3468 18.5792 15.3663 18.4528C16.4531 18.3202 17.3261 17.9263 18.1191 17.2189C18.8765 15.5175 18.6591 13.3306 17.7851 11.7071C17.5977 11.3623 17.3803 11.0347 17.1351 10.7283C16.1716 9.95879 14.5477 10.0358 13.6524 10.2672C12.4094 10.5892 10.6585 11.7122 10.0626 12.9846C9.79857 13.829 9.61612 14.748 9.84313 15.8065Z" fill="#374D5A"/>
<path d="M10.1797 17.2041C8.85484 16.1847 9.03133 14.5664 9.80826 13.2439C9.02682 15.7512 10.1893 17.1947 10.1797 17.2041Z" fill="#ECDE69"/>
<path d="M4.45932 14.4174C4.34633 14.5263 4.25983 14.7323 4.25983 14.8923C4.17083 14.8548 4.12134 14.7833 4.09484 14.6933C4.06284 14.5839 4.06984 14.2499 4.36933 14.0908C4.36933 14.2074 4.40782 14.3138 4.45932 14.4174Z" fill="#E2F0F0"/>
<path d="M8.12745 4.91808C8.41193 4.70709 7.234 4.07813 6.79404 4.25911C6.79404 4.64558 7.11402 5.07906 7.352 5.40104C7.382 5.44203 7.4115 5.48103 7.43799 5.51853C7.44499 5.52803 7.51299 5.46254 7.61298 5.36703C7.75098 5.23555 7.94846 5.04706 8.12745 4.91808ZM13.3271 4.28311C13.0862 4.26311 12.7001 4.68009 12.5776 4.85557C12.4547 5.03007 13.0142 5.38904 13.0227 5.37803L13.0886 5.24356C13.2306 4.95907 13.4251 4.56759 13.3271 4.28311ZM19.6057 13.54C19.5047 13.547 19.4137 13.5851 19.3277 13.634C18.9227 13.8629 18.7943 14.3535 18.6928 14.7764L18.6902 15.0789L18.6982 15.0804L18.7057 15.0824C18.7076 15.0802 18.7093 15.078 18.7112 15.0759L18.7168 15.0694C18.9369 14.7668 19.1552 14.463 19.3717 14.158C19.2417 14.2085 19.0693 14.188 18.9217 14.1455L18.9522 14.1404C19.0307 14.1269 19.1088 14.114 19.1847 14.0904C19.2793 14.0604 19.3727 14.0269 19.4397 13.9475C19.5377 13.83 19.5807 13.689 19.6057 13.54ZM5.6946 14.7674C5.45713 14.3415 5.03214 14.0405 4.56268 14.3124C4.65817 14.5069 4.90116 14.5335 5.09014 14.5545H5.09415C4.84467 14.6809 4.64517 14.6024 4.45968 14.4194C4.34619 14.5294 4.2622 14.7344 4.2607 14.8944C4.41419 15.0054 4.69117 14.9695 4.86367 14.9469C4.81967 15.1169 4.3487 15.0823 4.2397 15.0434C4.2322 15.1454 4.2387 15.2475 4.24469 15.3494L4.2472 15.3934C4.3872 15.4544 4.58368 15.3674 4.73116 15.3019C4.75467 15.2919 4.77617 15.2819 4.79717 15.2733C4.73717 15.3433 4.55068 15.5474 4.55068 15.5474C4.55068 15.5474 4.95066 16.2729 5.20914 16.5853C5.44912 16.5079 5.62212 16.3488 5.73811 16.1253C5.95409 15.7099 5.91759 15.1664 5.6946 14.7674ZM19.9977 13.5485C19.8792 13.4945 19.7602 13.5016 19.6397 13.525C19.6561 13.6735 19.6557 13.82 19.5872 13.969C19.7552 13.8965 19.9942 13.762 19.9977 13.5485Z" fill="#F3968D"/>
<path d="M4.23901 15.0424C4.22951 15.1594 4.24001 15.2759 4.2465 15.3924C3.99852 15.3489 3.96202 15.0739 4.03051 14.8689C4.08301 14.951 4.15901 14.9994 4.23901 15.0424Z" fill="#E2F0F0"/>
<path fill-rule="evenodd" clip-rule="evenodd" d="M8.34689 10.9038C8.1504 10.9173 7.97291 10.9678 7.78692 11.0288C7.93592 10.6439 8.16691 9.93537 7.61694 9.76388C7.52394 9.73588 7.42703 9.72305 7.32996 9.72585C8.0094 9.93537 7.84792 10.5739 7.60844 11.0973C7.49894 11.1668 7.23246 11.4053 7.10847 11.5487C7.15697 11.5212 7.20846 11.4912 7.26346 11.4588C7.72093 11.1913 8.35839 10.8178 8.82686 11.1743C9.00184 11.2668 8.86986 11.4478 8.81536 11.3983C8.53437 11.1383 8.23539 11.2983 7.99041 11.5048C8.14891 11.4458 8.78036 11.2343 8.75536 11.6098C8.74836 11.7098 8.70537 11.7948 8.65237 11.8802C8.47938 11.6548 8.2354 11.6803 8.02241 11.8503L8.03391 11.8482C8.15241 11.8298 8.2739 11.8108 8.39289 11.8358C8.62587 11.8858 8.57188 12.2067 8.40489 12.3058C8.35039 12.3378 8.27889 12.3526 8.2069 12.3682C8.10191 12.3907 7.99591 12.4132 7.94092 12.4882C7.78443 12.6997 7.61544 12.8992 7.40995 13.0637C6.57 13.7431 6.527 11.9438 6.545 11.4973C6.58751 10.4723 6.93248 9.49341 7.40195 8.59397L7.42045 8.56046C7.46245 8.48297 7.50394 8.40548 7.54444 8.32748C7.55694 8.30298 7.56745 8.30248 7.58744 8.31847C7.93241 8.58997 8.35889 8.77645 8.78237 8.88144H8.77886C9.07184 8.95444 9.39632 9.02094 9.69976 9.02094L9.47482 8.96094C8.82736 8.79096 8.16739 8.61796 7.62443 8.17899C7.23646 7.86601 7.06398 7.45604 7.08047 6.95907C7.09697 6.4821 7.25146 6.05013 7.50294 5.65116L7.55045 5.57466C7.73292 5.28368 7.82442 5.13768 8.10591 4.9322C8.40389 4.62122 7.04097 4.09525 6.80599 4.27024C6.7915 3.96876 7.20096 3.99276 7.40245 4.00826C7.85492 4.04225 8.2894 4.15825 8.72486 4.29124C9.59131 4.16275 10.8916 4.17175 11.9181 4.47222C11.9657 4.4881 12.0176 4.48451 12.0627 4.46222L12.1156 4.43722C12.386 4.30724 13.2356 3.90176 13.3216 4.28275C13.0856 4.36274 12.7296 4.63172 12.6031 4.81371C12.526 4.9227 12.6205 5.0492 12.6636 5.10668L12.6756 5.12318C13.2855 5.99263 13.9876 7.04256 13.0296 8.06699C12.5176 8.63196 11.7917 8.82545 11.0723 8.94294C10.8737 8.97594 10.6742 9.00044 10.4738 9.01794C10.6698 9.03844 10.8667 9.04444 11.0697 9.03693L11.0443 9.04493H11.0517C10.0843 9.43891 9.28133 10.0749 8.66337 10.9107C8.66141 10.9132 8.65958 10.9158 8.65786 10.9183C8.65037 10.9293 8.64286 10.9408 8.62488 10.9359C8.54793 10.918 8.46934 10.9081 8.39039 10.9063L8.34689 10.9038ZM12.1787 8.09899C11.7712 7.99299 11.5202 7.72552 11.3702 7.34005C11.1082 7.78801 10.6877 7.95651 10.2238 8.0995C10.2378 8.08899 10.2667 8.0695 10.3067 8.04299C10.5602 7.87601 11.2442 7.42504 11.2792 7.12806C11.2103 7.07988 11.1477 7.0231 11.0932 6.95907C10.9861 6.82708 11.0262 6.71408 11.1917 6.68758C11.3317 6.66459 11.4692 6.67759 11.6027 6.72559C11.7012 6.76059 11.7672 6.85758 11.7001 6.95707C11.6502 7.03156 11.5787 7.07957 11.5052 7.12606C11.5052 7.53104 11.8746 7.87701 12.1787 8.09899ZM11.7386 5.39567C11.7036 5.48567 11.6686 5.57566 11.6627 5.67815C11.6556 5.83564 11.8061 5.82965 11.9112 5.82614C11.9311 5.82514 11.9496 5.82464 11.9652 5.82514C12.0247 5.82714 12.0846 5.82814 12.1441 5.82965C12.4692 5.83564 12.7926 5.84114 13.0831 6.02463C13.2575 6.13461 13.3156 6.28161 13.264 6.4826C13.1932 6.75908 12.8961 7.02806 12.6192 7.06606C12.1176 7.13555 11.7361 6.2996 11.6327 5.89363C11.3916 5.75615 11.6412 5.34067 11.7956 5.22968C11.7806 5.28718 11.7596 5.34117 11.7386 5.39567ZM10.5357 5.18318C10.4924 5.1162 10.4512 5.04784 10.4122 4.9782C10.5843 5.08769 10.7452 5.30768 10.8372 5.47567C10.9596 5.69515 10.8343 5.83914 10.6143 5.82914C10.5543 5.82714 10.3737 6.06962 10.2022 6.30061C10.0713 6.4766 9.9458 6.64559 9.88233 6.69409C9.38083 7.07456 8.62387 6.79908 8.40638 6.22012C8.2014 5.67166 9.01434 5.60166 9.35633 5.59315C9.66885 5.58666 9.97683 5.62466 10.2857 5.66265H10.2877L10.3317 5.66815C10.4357 5.68115 10.5397 5.69365 10.6447 5.69315C10.7678 5.69215 10.7818 5.67115 10.7368 5.55366C10.6852 5.42017 10.6103 5.30118 10.5357 5.18318ZM14.952 9.26592C14.8645 9.29891 14.685 9.27491 14.5565 9.18843C14.513 9.19592 14.4719 9.18443 14.431 9.17342C14.4159 9.16913 14.4007 9.16529 14.3855 9.16192C13.4806 9.00944 12.1981 8.98793 11.3852 9.5289C11.5887 9.6129 11.7491 9.78534 11.7801 10.0139C11.8512 10.5398 11.2796 10.9339 10.9043 11.1923L10.8868 11.2038C10.5617 11.4273 10.1392 11.7023 9.74129 11.7503C9.72507 11.7523 9.70898 11.7544 9.69276 11.7567C9.48981 11.7857 9.09984 11.8407 9.08134 11.3918C9.06334 11.4133 9.04435 11.4438 9.02434 11.4758C8.98435 11.5393 8.94036 11.6103 8.89285 11.6343C8.86836 11.7882 8.80286 11.9228 8.70286 12.0402C8.69286 12.0527 8.69137 12.0647 8.69087 12.0792C8.69046 12.1378 8.67637 12.1954 8.64971 12.2474C8.62307 12.2996 8.58459 12.3446 8.53738 12.3793L8.49388 12.4107C8.48466 12.417 8.4755 12.4234 8.46638 12.4297C8.36839 12.7877 8.1894 13.8551 8.1894 14.1196C8.2139 14.1621 8.2489 14.2321 8.29139 14.3171C8.47389 14.68 8.79637 15.3215 9.04035 15.3215C9.04035 14.6051 9.28032 13.9096 9.6263 13.2921C10.4023 11.9088 11.7141 10.7979 13.2111 10.3074C14.3235 9.94237 15.6535 9.82233 16.7433 10.3333L16.7463 10.3343C16.7514 10.3374 16.7583 10.3409 16.7643 10.3313V10.3293L16.7634 10.3238C16.7559 10.3153 16.7483 10.3068 16.7398 10.2989C16.4014 9.9629 16.0144 9.69389 15.5984 9.46291C15.562 9.44527 15.5223 9.43524 15.4819 9.43341C15.4459 9.42941 15.4094 9.42541 15.3749 9.40991L15.3639 9.40491C15.3175 9.38341 15.2714 9.36191 15.2174 9.37691C15.1364 9.39891 15.0239 9.31791 14.9599 9.27191L14.952 9.26592ZM17.3548 10.2659C17.2163 9.6409 16.9469 9.10193 16.4503 8.68595C16.3204 8.57746 16.1483 8.46498 15.9643 8.34448C15.3119 7.91851 14.5095 7.39453 14.921 6.59759C15.4684 5.53467 17.1013 6.77907 17.5118 7.29605C18.4013 8.41598 18.7692 10.0723 18.3888 11.4707C18.3462 11.6543 18.1918 12.0907 18.1462 12.1553C17.9462 11.7152 17.7197 11.2928 17.4362 10.9003C17.3886 10.6918 17.3614 10.4797 17.3548 10.2659ZM7.57544 14.7255C7.20546 14.3875 6.54 14.3856 6.09753 14.4431C6.04253 14.4496 7.08047 15.9725 7.16197 16.0919L7.16646 16.0985C6.82348 15.9549 6.49001 15.4541 6.30952 15.1455C6.23953 15.0265 6.17353 14.9026 6.10703 14.7775C5.94454 14.4726 5.77906 14.1626 5.55107 13.9111C5.33908 13.6786 5.06211 13.6077 4.78261 13.7131C4.52463 13.8111 4.42865 14.0716 4.56164 14.3106C4.75512 14.2136 4.94261 14.1776 5.15109 14.2681C5.79105 14.5441 6.04904 15.5221 5.73706 16.1234C5.62107 16.3465 5.44708 16.5045 5.20809 16.5834L5.2161 16.5944C5.22008 16.6014 5.22408 16.6079 5.22909 16.6145C5.66407 17.1904 6.26502 17.8823 6.99797 18.0384C7.32296 18.1819 7.79043 18.1183 8.09591 17.9509C8.47588 17.7409 8.47238 17.3433 8.46938 16.9793C8.46838 16.8765 8.46738 16.7759 8.47538 16.6834L8.47588 16.6784C8.47838 16.6525 8.48088 16.628 8.46787 16.6014C7.90392 15.374 7.72443 14.0977 7.92492 12.7502C7.88992 12.7866 7.85592 12.8238 7.82192 12.8607C7.77542 12.9117 7.72893 12.9622 7.68043 13.0106L7.67944 13.0097L7.65744 13.0307C7.63444 13.0522 7.61144 13.0736 7.58744 13.0942C7.47245 13.1967 7.35145 13.2897 7.20546 13.3442C7.01347 13.4146 6.85948 13.3717 6.72999 13.2116C6.71318 13.1904 6.69617 13.1691 6.679 13.1482C6.554 12.8117 6.41201 12.3122 6.40902 11.8657C6.36644 12.1338 6.3424 12.4043 6.33701 12.6757C6.32377 13.0995 6.33897 13.5249 6.38251 13.9466C6.38425 13.9638 6.38509 13.9812 6.38502 13.9986C6.38502 14.0336 6.38502 14.0675 6.39951 14.1006L6.39801 14.1011L6.46401 14.277C6.66 14.2856 7.31796 14.3796 7.57544 14.7255ZM18.6082 13.1412L18.4647 13.1716C18.5822 13.5591 18.6902 14.1631 18.6902 14.7626C18.7267 14.6891 18.7637 14.6091 18.8022 14.5256C19.0432 14.0006 19.3392 13.3571 19.9956 13.5456C20.0052 13.4822 19.9975 13.4173 19.9734 13.3578C19.9491 13.2983 19.9093 13.2464 19.8581 13.2077C19.5221 12.9402 19.0157 13.0522 18.6082 13.1412ZM14.5224 8.51297C14.5091 8.53346 14.4951 8.57946 14.4789 8.62946C14.449 8.72645 14.4124 8.84094 14.3691 8.83045C14.2201 8.79595 14.067 8.77645 13.9141 8.75695C13.7496 8.73926 13.5863 8.71172 13.4251 8.67446C13.4725 8.58097 14.5985 8.36447 14.7535 8.43847C14.9759 8.54346 15.2869 9.01444 14.891 9.11493C14.7175 9.16642 14.5749 9.07943 14.5399 8.89944C14.5195 8.79445 14.5204 8.69096 14.5219 8.58597L14.5224 8.51297ZM8.2059 18.0524C8.39088 17.9173 8.51738 17.7529 8.52238 17.5124C8.53238 17.5134 8.53238 17.5189 8.53338 17.5233L8.53388 17.5274C8.57475 17.6824 8.63382 17.8318 8.70986 17.9729C8.72436 17.9999 8.72587 18.0089 8.68986 18.0118C8.53338 18.0233 8.37688 18.0369 8.2199 18.0509L8.2059 18.0524ZM15.0704 9.17792C15.209 9.07393 15.2425 8.93644 15.2039 8.77596L15.209 8.77445C15.2115 8.77395 15.2139 8.77445 15.2139 8.77445L15.2519 8.81544C15.281 8.84595 15.3099 8.87695 15.3324 8.91194C15.3875 9.00044 15.3749 9.09194 15.3215 9.17792C15.2749 9.25391 15.1229 9.25992 15.0704 9.17792ZM15.5804 9.24143C15.6079 9.14842 15.5695 9.07744 15.5009 9.00394C15.5009 9.02893 15.4719 9.12792 15.4505 9.20142C15.4369 9.24792 15.4274 9.28542 15.4274 9.28542C15.4724 9.32291 15.5634 9.29742 15.5804 9.24143Z" fill="#E2F0F0"/>
<path d="M9.34136 6.75703C9.16637 6.75303 8.99838 6.67753 8.84589 6.56254C8.71881 6.47164 8.61641 6.35049 8.54791 6.21006C8.53869 6.18944 8.53083 6.16823 8.52442 6.14657C8.47691 5.99058 8.5489 5.91359 8.6829 5.84909C8.7059 5.83808 8.7059 5.85409 8.70541 5.86659V5.87359C8.7129 5.96658 8.7264 6.05857 8.7604 6.14606C8.8674 6.42505 9.06437 6.59254 9.36236 6.61254C9.66435 6.63253 9.89628 6.50505 10.0488 6.23906C10.1198 6.11457 10.1498 5.97708 10.1608 5.83559C10.1638 5.79409 10.1758 5.7841 10.2158 5.79159C10.2593 5.79959 10.3042 5.80409 10.3488 5.8091L10.4057 5.81509L10.4098 5.81559C10.4238 5.81709 10.4378 5.81859 10.4248 5.84159C10.2358 6.15357 10.0264 6.44654 9.7143 6.64753C9.60684 6.71504 9.48935 6.75603 9.34136 6.75703ZM14.5775 9.20536C13.8516 9.08138 13.0406 9.02838 12.2566 9.22186L12.1952 9.23687C11.9277 9.30386 11.6097 9.38285 11.3852 9.53185C11.5932 9.61884 11.7842 9.80878 11.8157 10.0393C11.9241 10.8177 10.2703 11.7677 9.58934 11.8492C9.33886 11.8797 9.08237 11.7052 9.08237 11.4622C9.07137 11.4282 9.04538 11.4677 9.01238 11.5177C8.97738 11.5717 8.93438 11.6372 8.89339 11.6372C8.89339 11.6122 8.89339 11.5866 8.89238 11.5613C8.92989 11.5372 8.97738 11.4562 9.00088 11.4157C9.02238 11.3773 9.15987 11.0442 8.78889 10.9667C9.41586 10.1399 10.2633 9.49435 11.2253 9.13038C12.2592 8.7379 13.3201 8.7254 14.3876 8.97388C14.437 8.98538 14.4765 9.05138 14.5136 9.11337C14.5312 9.14636 14.5528 9.17722 14.5775 9.20536ZM13.144 6.39705C13.1535 6.34974 13.1468 6.30064 13.1251 6.25756C13.1236 6.28056 13.1226 6.29255 13.1226 6.30556C13.0976 6.59804 12.8977 6.77552 12.6086 6.75404C12.3667 6.73503 12.2036 6.59904 12.1046 6.38005C12.0537 6.25793 12.0257 6.1274 12.0221 5.99507V5.98708C12.0221 5.97458 12.0221 5.96208 12.0022 5.96208L11.9157 5.95658C11.8851 5.95444 11.8544 5.95245 11.8237 5.95058V5.95558C11.8237 5.95908 11.8232 5.96258 11.8242 5.96508C11.8942 6.16306 11.9742 6.35555 12.0821 6.53554C12.1557 6.65904 12.2382 6.77552 12.3551 6.86203C12.4541 6.93552 12.5626 6.95202 12.6786 6.91302C12.8356 6.86052 12.9536 6.75703 13.0487 6.62354C13.0961 6.55504 13.1316 6.48055 13.144 6.39705Z" fill="#FEFEFE"/>
<path d="M8.83632 5.83153C8.84583 6.20401 9.06582 6.47999 9.45729 6.47999C9.80581 6.48248 9.99724 6.16952 10.0252 5.85653C10.0373 5.77055 10.0362 5.76954 9.9493 5.76053L9.93227 5.75854C9.90228 5.75454 9.87522 5.75103 9.87429 5.79603C9.86822 6.05451 9.72776 6.32601 9.43778 6.31601C9.14931 6.30601 9.03531 6.04602 9.03782 5.78754C9.03782 5.76103 9.03082 5.75254 9.00431 5.75854C8.95932 5.76854 8.91432 5.77853 8.86933 5.78503C8.83932 5.78903 8.83433 5.80454 8.83632 5.83153ZM12.9836 6.14001C12.9805 6.11502 12.964 6.10851 12.9375 6.10202L12.9381 6.14401C12.9385 6.16601 12.939 6.18701 12.9381 6.2085C12.9345 6.27357 12.9095 6.33563 12.8671 6.385C12.733 6.53899 12.4861 6.50449 12.3786 6.3185C12.3392 6.2449 12.3158 6.16379 12.3101 6.08052C12.3091 6.06786 12.3092 6.05514 12.3106 6.04252C12.313 6.01602 12.3152 5.98952 12.2966 5.97752C12.2786 5.96602 12.2536 5.96752 12.2281 5.96752C12.2144 5.96854 12.2005 5.96854 12.1866 5.96752C12.1571 5.96402 12.1541 5.97852 12.1556 6.00252C12.1631 6.11252 12.1821 6.22051 12.2241 6.3225C12.313 6.53999 12.5326 6.66098 12.7457 6.60749C12.7929 6.59724 12.8369 6.57544 12.8737 6.54404C12.9105 6.51262 12.939 6.47258 12.9565 6.42749C12.9941 6.33449 12.9935 6.2375 12.9836 6.14001Z" fill="#F5F818"/>
<path d="M11.5554 6.8527C11.5289 6.8887 11.3929 7.03919 11.3929 7.03919L11.21 6.8232C11.3268 6.80821 11.4434 6.80821 11.5554 6.8527Z" fill="#F3968D"/>
<path d="M12.7682 13.4847C13.3364 13.4847 13.7972 13.0239 13.7972 12.4557C13.7972 11.8875 13.3364 11.4268 12.7682 11.4268C12.2 11.4268 11.7393 11.8875 11.7393 12.4557C11.7393 13.0239 12.2 13.4847 12.7682 13.4847Z" fill="#596E78"/>
<path d="M12.7688 12.9265C13.0288 12.9265 13.2398 12.7156 13.2398 12.4556C13.2398 12.1954 13.0288 11.9846 12.7688 11.9846C12.5087 11.9846 12.2979 12.1954 12.2979 12.4556C12.2979 12.7156 12.5087 12.9265 12.7688 12.9265Z" fill="#748890"/>
</svg>
