<svg width="24" height="24" viewBox="0 0 24 24" fill="none" xmlns="http://www.w3.org/2000/svg">
<path d="M11.2293 7.18135C11.2092 7.3564 11.1742 7.52144 11.1192 7.68148C11.0893 7.75651 11.0692 7.75651 11.0442 7.67148L10.9541 7.31139C10.9335 7.22933 10.9335 7.14338 10.9541 7.06132C11.0292 6.74625 11.1692 6.52619 11.2392 6.19611C11.2443 6.1561 11.2742 6.1461 11.2943 6.1711C11.4792 6.44617 11.4943 6.85627 11.4343 7.23637C11.4193 7.34139 11.3593 7.51145 11.2542 7.74649C11.2492 7.76651 11.2243 7.72649 11.2293 7.70148C11.2943 7.52144 11.3092 7.35139 11.2793 7.17635C11.2593 7.05132 11.2392 7.05132 11.2293 7.18135ZM13.4298 7.03132L13.5298 7.30139C13.5322 7.30907 13.5328 7.31722 13.5313 7.32515C13.53 7.33308 13.5267 7.34055 13.5218 7.34694C13.5168 7.35332 13.5105 7.35842 13.5031 7.36181C13.4959 7.3652 13.4878 7.36677 13.4798 7.3664C13.4187 7.35896 13.3595 7.33915 13.3062 7.30821C13.2531 7.27726 13.2064 7.23579 13.1697 7.18637C13.1297 7.11718 13.1042 7.04062 13.0947 6.9613C13.0723 6.84801 13.03 6.73962 12.9696 6.64122C12.9645 6.62926 12.9643 6.61578 12.969 6.60364C12.9737 6.5915 12.9829 6.58167 12.9947 6.5762C13.0447 6.5512 13.1047 6.5512 13.1647 6.5712C13.4648 6.67123 13.6198 6.87129 13.6348 7.17135C13.6348 7.20636 13.6298 7.21136 13.6049 7.18135L13.4699 7.00631C13.4547 6.98631 13.4198 7.00631 13.4298 7.03132ZM12.3396 7.3514C12.2544 7.47644 12.2445 7.62146 12.1494 7.74649C12.1395 7.75651 12.1345 7.75149 12.1295 7.74649C11.8043 7.25637 12.1794 7.13134 12.2795 6.72624C12.2894 6.69123 12.3295 6.67623 12.3495 6.69623C12.4295 6.75625 12.4796 6.84127 12.5045 6.9563C12.5695 7.24137 12.5146 7.49143 12.3396 7.70648C12.3244 7.7215 12.3195 7.71649 12.3195 7.69148L12.3545 7.3614C12.3545 7.3364 12.3545 7.3364 12.3396 7.3564V7.3514ZM10.174 7.82151C10.1235 7.97166 10.0397 8.10843 9.92894 8.22162C9.92392 8.22661 9.90886 8.22162 9.90385 8.20661C9.85892 8.03658 9.86394 7.87653 9.91891 7.72649C9.99394 7.52144 10.194 7.44143 10.2939 7.23637C10.304 7.21636 10.334 7.21636 10.344 7.23637C10.404 7.37141 10.419 7.51644 10.3939 7.68148C10.344 7.98155 10.244 8.07158 10.109 8.25663C10.074 8.29663 10.069 8.29164 10.0839 8.23162L10.204 7.84152C10.209 7.82151 10.1839 7.79152 10.174 7.82151ZM14.0799 8.07158C13.9399 8.12158 13.785 8.16161 13.6198 8.1816C13.5998 8.1816 13.5898 8.1816 13.5948 8.1666C13.6148 8.03658 13.7049 7.94155 13.8598 7.87652C14.06 7.7865 14.33 7.84652 14.56 7.75651C14.595 7.74149 14.6451 7.75651 14.6501 7.7815C14.7001 7.95155 14.4851 8.10659 14.2701 8.18661C14.13 8.24162 13.9399 8.25162 13.7698 8.28663C13.7548 8.28663 13.7049 8.26663 13.7198 8.26162C13.9399 8.19661 14.0699 8.13659 14.1 8.08159C14.1099 8.06657 14.1 8.06157 14.0799 8.07158ZM12.9146 8.18661C13.0097 8.35165 12.8846 8.46167 12.9047 8.61672C12.9097 8.66173 12.8947 8.66673 12.8546 8.64671C12.6846 8.5367 12.5045 8.30664 12.5796 8.09659C12.6446 7.92153 12.6696 7.7315 12.6496 7.53144C12.6496 7.51145 12.6696 7.49643 12.6846 7.50643C13.0596 7.67148 13.2997 8.1516 13.0747 8.5467C13.0596 8.5667 13.0497 8.5667 13.0447 8.54169C13.0147 8.42666 13.0497 8.22661 12.9346 8.1666C12.9047 8.14659 12.8947 8.15659 12.9146 8.18661ZM10.744 8.42666C10.7241 8.35664 10.709 8.35664 10.7042 8.43167C10.6941 8.5567 10.6141 8.64671 10.5791 8.77176C10.574 8.80176 10.539 8.81176 10.519 8.79176C10.4091 8.67673 10.379 8.43666 10.4289 8.29164C10.439 8.25663 10.4791 8.1916 10.554 8.09158C10.6241 7.99155 10.674 7.88653 10.7042 7.76651C10.709 7.75149 10.7191 7.74649 10.7341 7.75651C10.9341 7.92154 10.9541 8.11158 10.9292 8.36665C10.9142 8.52169 10.8292 8.62672 10.744 8.76676C10.7357 8.7855 10.7218 8.80123 10.7042 8.81176C10.6841 8.81677 10.6841 8.81176 10.6891 8.79675C10.7541 8.66673 10.7691 8.54169 10.7392 8.42666H10.744ZM9.18874 8.05157L9.31873 8.23162C9.32877 8.24663 9.31873 8.27662 9.3038 8.28164C9.1787 8.29164 9.03367 8.28164 8.97866 8.1166C8.9437 8.0078 8.8895 7.90617 8.81862 7.81651C8.80362 7.80651 8.81362 7.7765 8.82863 7.7715C9.06368 7.70148 9.23378 7.80651 9.33881 8.07657C9.34873 8.09658 9.33379 8.11158 9.31873 8.10158C9.28571 8.06665 9.24685 8.03786 9.20368 8.01656C9.16371 8.00157 9.15871 8.01157 9.18874 8.04658V8.05157ZM12.3396 8.63671L12.3195 8.78176C12.3195 8.80677 12.2595 8.82176 12.2194 8.80677C11.7943 8.65672 12.1245 8.50169 12.0795 8.30664C12.0744 8.29164 12.1144 8.27662 12.1494 8.28663C12.4595 8.37665 12.5796 8.52169 12.5096 8.72174C12.5096 8.73675 12.4595 8.73675 12.4395 8.72174L12.4295 8.71174C12.4295 8.69174 12.3445 8.59671 12.3396 8.63671ZM14.395 8.64173C14.33 8.67172 14.28 8.71174 14.24 8.75675C14.215 8.78176 14.17 8.78176 14.145 8.75675C14.095 8.69674 14.1549 8.57171 14.2099 8.51668C14.2899 8.43167 14.455 8.36665 14.56 8.29164C14.5751 8.28164 14.5851 8.28164 14.595 8.29164C14.7701 8.46167 14.535 8.70673 14.36 8.80677C14.3476 8.813 14.3335 8.81476 14.32 8.81176C14.3051 8.81176 14.3 8.80176 14.31 8.79176L14.42 8.66173C14.43 8.64672 14.4101 8.63172 14.395 8.64173ZM8.46353 8.5467L8.7136 8.69674C8.76361 8.72174 8.74861 8.78176 8.68859 8.79675C8.49854 8.83677 8.3385 8.81176 8.19847 8.73175C8.05844 8.64671 7.95341 8.48167 7.76336 8.37166C7.73834 8.35165 7.74836 8.32163 7.78337 8.31163C8.16846 8.22661 8.62358 8.33164 8.79862 8.59171C8.82362 8.62672 8.81362 8.63172 8.76861 8.61171L8.51855 8.50169C8.48354 8.48167 8.42353 8.5267 8.46353 8.5467ZM13.5699 9.02682C13.5848 8.9568 13.5699 8.9518 13.5348 9.01682C13.4598 9.14185 13.3548 9.21685 13.2497 9.3369C13.2147 9.37691 13.1898 9.3719 13.1697 9.32188C12.9846 8.74174 13.5399 8.70673 13.7499 8.38666C13.7799 8.33665 13.8499 8.35165 13.8649 8.40667C13.955 8.79176 13.8649 9.12684 13.5248 9.3519C13.3948 9.43192 13.3747 9.41192 13.4648 9.29189C13.5148 9.22687 13.5447 9.14185 13.5648 9.02682H13.5699ZM14.9501 9.17184C14.9501 9.16185 14.9352 9.14684 14.9252 9.15685L14.7151 9.30689C14.7001 9.32189 14.6751 9.31689 14.6701 9.30189C14.652 9.2532 14.6494 9.20007 14.6628 9.14987C14.6764 9.09967 14.7051 9.05492 14.7451 9.02181C14.7701 9.00181 14.8201 8.97179 14.8952 8.9468C14.9752 8.91179 15.0452 8.87178 15.1053 8.82176C15.1152 8.81176 15.1352 8.81176 15.1403 8.82176C15.2903 9.03181 15.0551 9.26188 14.8201 9.34689C14.8201 9.34689 14.8101 9.3419 14.8151 9.3369L14.9451 9.17184H14.9501ZM9.67886 9.03181C9.6638 9.04682 9.66882 9.05183 9.68889 9.04181C9.95893 8.96681 9.93886 9.01682 10.1589 9.05183C10.209 9.06183 10.249 9.06682 10.264 9.06183C10.414 9.04683 10.4441 9.08183 10.349 9.16185C9.9489 9.51194 9.37872 9.26188 8.85863 9.25186C8.82863 9.25186 8.80862 9.22687 8.80862 9.20686C8.99367 8.78176 9.74888 8.76174 10.269 8.86677C10.304 8.87178 10.3191 8.9318 10.274 8.92678C10.074 8.90679 9.80384 8.91179 9.67385 9.02682L9.67886 9.03181ZM11.8393 9.09684L11.8494 9.10684C11.8994 9.13684 11.9444 9.18185 11.9794 9.24186C11.9994 9.27188 11.9895 9.32689 11.9595 9.3319C11.7194 9.40191 11.6394 9.17686 11.4792 8.96681C11.4643 8.95179 11.4643 8.9318 11.4792 8.91679C11.5793 8.71174 11.8794 8.86178 11.9794 8.98681C12.0144 9.03682 12.0044 9.06183 11.9544 9.05682C11.9194 9.05012 11.8868 9.03463 11.8594 9.01182C11.8393 9.00181 11.8344 9.07183 11.8393 9.09684ZM8.07344 9.932H8.06844V9.93702C8.10914 10.0872 8.11428 10.2447 8.08344 10.3971L8.07344 10.4072H8.04343C7.9034 10.3171 7.72835 10.1621 7.74836 9.95208C7.77335 9.75194 7.81838 9.58696 7.77335 9.38691V9.3719C7.77335 9.3619 7.77837 9.35689 7.78337 9.35689L7.79337 9.34689H7.80836C8.10845 9.43692 8.28349 9.702 8.27849 10.0571C8.27655 10.1404 8.27488 10.2238 8.27348 10.3072C8.26849 10.3171 8.26348 10.3171 8.25848 10.3171H8.24348L8.23848 10.3185L8.23348 10.3171V10.3072C8.22789 10.2242 8.20756 10.1429 8.17346 10.067C8.15346 10.0171 8.10845 9.9921 8.08344 9.94204C8.08344 9.93702 8.08344 9.932 8.07344 9.932ZM11.0391 9.3519C10.9891 9.3819 10.9941 9.40191 11.0442 9.41192C11.1042 9.42691 11.1593 9.45693 11.2042 9.49193C11.2117 9.4985 11.2176 9.50658 11.2217 9.51564C11.2258 9.52469 11.2279 9.53452 11.2279 9.54444C11.2279 9.55438 11.2258 9.56421 11.2217 9.57326C11.2176 9.58231 11.2117 9.59039 11.2042 9.59696C11.1956 9.60432 11.1853 9.60947 11.1742 9.61197C10.9341 9.65197 10.8641 9.53695 10.7141 9.3919C10.7012 9.37908 10.686 9.36888 10.6692 9.3619L10.5941 9.3319C10.569 9.32188 10.569 9.30689 10.5841 9.29189C10.7291 9.13684 10.9941 9.19186 11.1593 9.29189C11.1692 9.29189 11.1742 9.30189 11.1792 9.30689L11.1893 9.3369V9.35689C11.1893 9.3819 11.1792 9.38691 11.1593 9.37691C11.1092 9.34689 11.0692 9.3369 11.0391 9.35689V9.3519ZM12.7947 10.0771C12.7752 10.0914 12.7599 10.1103 12.7496 10.1321C12.7472 10.139 12.7432 10.1452 12.7379 10.1505C12.7328 10.1556 12.7265 10.1596 12.7196 10.1621C12.654 10.1833 12.5941 10.2192 12.5446 10.2672C12.5246 10.2871 12.4896 10.2722 12.4845 10.2471C12.4295 9.71694 12.7996 9.85697 12.9846 9.51194C12.9947 9.49694 12.9997 9.49694 13.0097 9.51194C13.1297 9.73199 13.1097 9.92699 12.9546 10.1121C12.8846 10.1921 12.7347 10.2572 12.7046 10.3821C12.6796 10.5322 12.6745 10.6923 12.6395 10.8423C12.6033 11.0065 12.5849 11.1743 12.5846 11.3424C12.5846 11.6874 12.1595 12.2276 11.9394 12.5077C11.8594 12.6077 11.8244 12.7428 11.8444 12.9077C11.8594 13.0029 11.9094 13.0478 12.0044 13.0379C12.4796 13.0077 12.6946 12.6977 12.8947 12.3377C13.0147 12.1226 13.5447 11.9275 13.7949 11.8726C13.82 11.8675 13.8349 11.8325 13.8149 11.8125L13.7598 11.7524C13.6599 11.6424 13.7799 11.3674 13.7649 11.2323C13.7649 11.2124 13.785 11.2023 13.8048 11.2074C14.0399 11.3124 14.145 11.4875 14.1199 11.7325C14.1199 11.7625 14.0849 11.7675 14.055 11.7675C14.0149 11.7675 13.9999 11.7524 14.0049 11.7174C14.0049 11.6874 13.9999 11.6675 13.9849 11.6424C13.9699 11.6174 13.9649 11.6174 13.9649 11.6424L13.9849 11.7925C13.9849 11.8026 13.995 11.8125 14.0149 11.8175C14.3751 11.8675 14.6951 11.7925 14.9652 11.5775C15.0502 11.5074 15.0752 11.5225 15.0402 11.6225C14.9702 11.8175 14.6851 11.9776 14.49 12.0375L14.0799 12.1025C13.6298 12.1725 13.2798 12.3927 13.0297 12.7728C12.9146 12.9527 12.8095 13.1328 12.6346 13.2678C12.4345 13.4279 12.1695 13.588 11.9245 13.668C11.8427 14.0777 11.8546 14.5007 11.9595 14.9051C12.0642 15.3096 12.2591 15.6851 12.5295 16.0036H16.5005C16.2224 16.4069 15.863 16.7476 15.4453 17.0037H7.31325C7.00316 16.7788 6.7181 16.3036 6.49805 16.0036H10.369C10.6361 15.6314 10.8139 15.2028 10.8884 14.7509C10.963 14.2991 10.9324 13.8361 10.7991 13.3979C10.7341 13.1579 10.6491 12.9778 10.4289 12.8327C10.1941 12.6734 9.93828 12.5471 9.66882 12.4577C9.59764 12.4375 9.53346 12.3975 9.48375 12.3426C9.24977 12.0871 8.96542 11.8828 8.64858 11.7425V11.7125H8.65858C9.12233 11.8354 9.56555 12.0258 9.97387 12.2776C10.2189 12.4176 10.404 12.5427 10.609 12.6027C10.6565 12.6173 10.7032 12.634 10.7491 12.6528C10.9292 12.5277 10.9492 12.2426 10.9341 12.0726C10.9292 11.9575 10.8092 11.8425 10.7592 11.7275C10.7392 11.6874 10.7291 11.6275 10.7241 11.5474C10.7042 11.2374 10.499 10.7122 10.109 10.6622C9.86884 10.6322 9.65879 10.5372 9.44383 10.6173C9.42376 10.6272 9.39879 10.6173 9.39378 10.5972C9.36378 10.5221 9.39378 10.4722 9.48375 10.4671C9.68889 10.4671 9.90886 10.4472 10.0939 10.5072C10.3112 10.5756 10.5088 10.6955 10.6699 10.8565C10.831 11.0175 10.9509 11.215 11.0193 11.4324C11.0591 11.5824 11.0142 11.8125 11.0842 11.9625C11.1642 12.1226 11.3192 12.2526 11.5543 12.3426H11.5993C11.8344 12.2776 11.8494 12.0926 11.9644 11.9275C12.1145 11.7225 12.2295 11.5024 12.3095 11.2774C12.3345 11.2074 12.3495 11.1074 12.3594 10.9773C12.3846 10.7273 12.5196 10.2922 12.7745 10.1571C12.7875 10.151 12.7987 10.1419 12.8075 10.1306C12.8161 10.1193 12.822 10.1061 12.8247 10.0921C12.8247 10.0621 12.8196 10.0571 12.7947 10.0771Z" fill="#FF8E3A"/>
<path d="M14.1797 10.0068C14.1047 10.1569 13.9346 10.2468 13.8296 10.3818C13.8047 10.4168 13.7296 10.4168 13.7097 10.3818C13.3246 9.89172 13.9997 9.67175 14.3948 9.35664C14.4148 9.33664 14.4648 9.34164 14.4798 9.36664C14.5749 9.49668 14.6698 9.62671 14.6549 9.77677C14.6298 10.0218 14.4748 10.2118 14.1898 10.3369C14.0898 10.3868 14.0597 10.3719 14.1047 10.2968L14.2648 10.0468C14.2798 10.0168 14.1948 9.97679 14.1797 10.0068ZM9.21348 9.6117C9.23846 9.67677 9.27347 9.71177 9.31851 9.72169C9.35854 9.73173 9.33356 9.8217 9.30848 9.83676C9.19855 9.90176 9.10847 9.88682 9.03345 9.78669C8.97843 9.71177 8.93342 9.52668 8.83341 9.53668C8.81339 9.53668 8.80339 9.49167 8.8184 9.47167C8.93844 9.24161 9.19353 9.36664 9.31349 9.51168C9.32855 9.53169 9.33858 9.56169 9.33858 9.5867V9.62171C9.34348 9.65171 9.33859 9.65672 9.32353 9.64171C9.29855 9.62171 9.25351 9.55669 9.22352 9.56169C9.21349 9.56669 9.20345 9.5917 9.21348 9.6117ZM9.9587 9.96675C9.94867 10.0568 10.0237 10.2818 9.85869 10.1969C9.77363 10.1569 9.72368 10.0818 9.71364 9.97178C9.70361 9.83676 9.77363 9.63171 9.77363 9.46167C9.77363 9.44666 9.7937 9.43666 9.80864 9.44166C10.0937 9.5667 10.1587 9.84177 10.1187 10.1218C10.1187 10.1368 10.0787 10.1418 10.0787 10.1218C10.0769 10.0892 10.0684 10.0573 10.0537 10.028C10.0391 9.99885 10.0187 9.97282 9.99371 9.95181C9.97364 9.93677 9.96372 9.94178 9.9587 9.96675ZM12.0092 9.62171C11.9942 9.63171 11.9892 9.65171 11.9993 9.66171C12.0542 9.71667 12.1192 9.7567 12.1943 9.77677C12.2243 9.79171 12.2243 9.84679 12.1943 9.85671C11.8041 9.94178 11.8391 9.76674 11.5841 9.6067C11.5441 9.58169 11.554 9.51668 11.5991 9.50668C11.7491 9.47667 12.0442 9.45166 12.1393 9.60171C12.1642 9.63671 12.1542 9.65171 12.1142 9.64171C12.0842 9.63671 12.0343 9.6117 12.0092 9.62171ZM15.1851 10.0118C15.1851 9.98181 15.1249 10.0018 15.1199 10.0269L15.095 10.1768C15.0899 10.2268 15.0349 10.2418 14.995 10.2168C14.9449 10.1768 14.8048 10.0468 14.8549 9.96675L15.0849 9.56669C15.0871 9.56093 15.0903 9.55571 15.0946 9.55142C15.099 9.54714 15.1042 9.54391 15.11 9.54198C15.1159 9.54005 15.1221 9.53947 15.1281 9.54028C15.1341 9.5411 15.1399 9.54329 15.145 9.54669C15.35 9.68668 15.37 9.90176 15.245 10.1068C15.21 10.1768 15.1899 10.1718 15.1851 10.0919V10.0118ZM16.0502 10.1718C16.1102 10.2768 16.1402 10.3919 16.1502 10.5119C16.1502 10.5319 16.1402 10.5419 16.1152 10.5319C15.9452 10.4669 15.7551 10.4669 15.6651 10.2818C15.5901 10.1319 15.6651 9.92673 15.5951 9.74176C15.575 9.6917 15.6151 9.63671 15.6702 9.64171C16.0252 9.67175 16.3603 9.90677 16.2852 10.2919C16.2803 10.3168 16.2703 10.3219 16.2553 10.3019L16.1052 10.1319C16.0802 10.1068 16.0402 10.1418 16.0553 10.1718H16.0502ZM6.96793 10.1919C6.95918 10.2628 6.93155 10.3302 6.88791 10.3868C6.86791 10.412 6.8129 10.4168 6.78789 10.3969C6.53782 10.1969 6.8129 10.0818 6.91292 9.89673C6.92793 9.87678 6.96793 9.87177 7.00294 9.8818C7.208 9.96675 7.26801 10.0919 7.17299 10.2518C7.15524 10.2795 7.12888 10.3006 7.09797 10.3118C7.07295 10.3219 7.06296 10.3168 7.05796 10.3019L7.05296 10.2019C7.05296 10.1768 6.97294 10.1669 6.96793 10.1919ZM10.9989 10.3669L11.064 10.5919C11.079 10.652 11.0589 10.672 10.9989 10.652C10.7639 10.572 10.5388 10.572 10.5589 10.2418C10.5639 10.1018 10.5488 9.97679 10.5089 9.86173C10.5053 9.84889 10.5051 9.83524 10.5082 9.82217C10.5113 9.80922 10.5176 9.79719 10.5266 9.78716C10.5355 9.77724 10.5468 9.76965 10.5594 9.76522C10.572 9.76079 10.5856 9.75962 10.5989 9.76172C10.949 9.83174 11.304 10.0418 11.199 10.4569C11.1891 10.482 11.179 10.482 11.164 10.4569C11.1384 10.4119 11.1101 10.3684 11.079 10.3269C10.9889 10.2068 10.9639 10.2168 11.0039 10.3669H10.9989ZM9.11847 10.3919L9.25351 10.852C9.25853 10.877 9.25351 10.9021 9.24347 10.917C9.21349 10.947 9.1835 10.947 9.15348 10.912C9.09477 10.8427 9.03304 10.7759 8.96843 10.712C8.93797 10.6787 8.91873 10.6367 8.91343 10.5919L8.81339 9.97679V9.93677C8.81456 9.92462 8.81795 9.91273 8.82339 9.90176C8.82976 9.893 8.83841 9.88601 8.8484 9.8818H8.87341C9.13347 9.93174 9.2835 10.1518 9.33356 10.5319C9.35854 10.747 9.33356 10.752 9.27347 10.5569L9.22352 10.4369C9.20345 10.3868 9.17346 10.3619 9.14347 10.3518C9.11847 10.3468 9.10847 10.3619 9.11847 10.3919ZM7.89817 11.012C7.85816 11.012 7.83315 11.0321 7.84816 11.052C7.93818 11.1771 7.97819 11.3021 7.97318 11.4422C7.97318 11.4671 7.94818 11.4771 7.90817 11.4671C7.57309 11.3872 7.238 11.2172 7.218 10.982C7.20299 10.787 7.38804 10.722 7.228 10.4919C7.20299 10.4569 7.24301 10.4168 7.30302 10.412C7.43305 10.4019 7.56308 10.4219 7.69312 10.4769C8.15323 10.6669 8.34329 10.9371 8.25826 11.2872C8.25325 11.3222 8.23325 11.3222 8.20824 11.2872C8.14018 11.1977 8.06123 11.117 7.97318 11.047C7.95074 11.0274 7.92281 11.0152 7.89317 11.012H7.89817ZM13.3495 11.1221L13.2495 11.4371C13.2459 11.4451 13.2404 11.4518 13.2334 11.4569C13.2266 11.462 13.2184 11.4651 13.2098 11.4662C13.2012 11.4671 13.1926 11.4659 13.1846 11.4625C13.1767 11.4593 13.1698 11.4539 13.1645 11.4471C13.0812 11.3146 13.046 11.1575 13.0645 11.0021C13.0945 10.792 13.2645 10.6669 13.3145 10.4419C13.3196 10.412 13.3596 10.3969 13.3845 10.4168C13.6596 10.6619 13.6496 11.1122 13.4346 11.3671C13.3946 11.4272 13.3795 11.4172 13.3946 11.3471C13.4045 11.2872 13.4296 11.1621 13.3845 11.117C13.3695 11.097 13.3546 11.1021 13.3495 11.1221ZM16.5203 11.052C16.4503 11.187 16.3704 11.2921 16.2703 11.3722C16.2653 11.3722 16.2553 11.3722 16.2553 11.3572C16.2353 11.087 16.2803 10.882 16.3903 10.742C16.4103 10.717 16.4603 10.677 16.5453 10.6269C16.6204 10.5769 16.6804 10.5119 16.7353 10.4168C16.7454 10.4019 16.7604 10.4069 16.7654 10.4319C16.8454 10.927 16.6454 11.3522 16.3903 11.4671C16.3704 11.4771 16.3653 11.4671 16.3803 11.4422C16.4453 11.3321 16.4803 11.2021 16.5353 11.082C16.5453 11.0671 16.5303 11.0371 16.5203 11.052ZM14.4197 10.7669C14.3398 10.817 14.2698 10.8671 14.2048 10.927C14.1898 10.942 14.1548 10.9371 14.1497 10.917C14.0697 10.7319 14.1898 10.6119 14.3998 10.5218C14.4568 10.5004 14.5081 10.4662 14.5498 10.4219C14.5698 10.3969 14.6249 10.4069 14.6348 10.4369C14.6848 10.5969 14.6498 10.727 14.5399 10.827C14.494 10.8724 14.4396 10.9081 14.3798 10.9321C14.3298 10.947 14.3248 10.9371 14.3448 10.907L14.4348 10.777C14.4547 10.752 14.4448 10.747 14.4197 10.7669ZM15.45 11.1221C15.4451 11.1571 15.44 11.1971 15.4251 11.222L15.3251 11.4072C15.3 11.4572 15.27 11.4572 15.235 11.4121C15.1501 11.2872 15.1851 10.9371 15.2851 10.8321C15.3901 10.722 15.5101 10.6119 15.5551 10.4419C15.5651 10.4019 15.6052 10.3969 15.6201 10.4269C15.8001 10.727 15.7151 11.1421 15.5301 11.3872C15.5002 11.4272 15.485 11.4623 15.44 11.4722C15.4251 11.4722 15.52 11.1822 15.4801 11.1122C15.4651 11.0921 15.4551 11.0921 15.45 11.1221ZM12.0942 10.942L12.0391 11.1421C12.036 11.1509 12.0308 11.1586 12.0237 11.1647C12.0167 11.1708 12.0083 11.1752 11.9993 11.1771C11.9899 11.18 11.98 11.1806 11.9705 11.1788C11.9608 11.1771 11.9519 11.1732 11.9442 11.1671C11.7542 10.9871 11.9542 10.787 12.0292 10.6119C12.0365 10.5952 12.0483 10.5806 12.0633 10.5701C12.0783 10.5595 12.0959 10.5532 12.1142 10.552C12.1324 10.5513 12.1503 10.5557 12.1661 10.5645C12.182 10.5732 12.1952 10.5863 12.2043 10.6019C12.2643 10.6969 12.3393 11.0421 12.1943 11.097C12.1792 11.1021 12.1693 11.097 12.1693 11.0771L12.1593 10.962C12.1593 10.942 12.1492 10.927 12.1292 10.922C12.1261 10.9206 12.1227 10.9199 12.1192 10.9199C12.1158 10.9199 12.1123 10.9206 12.1091 10.922C12.1055 10.9241 12.1022 10.9269 12.0995 10.9304C12.0969 10.9338 12.0952 10.9378 12.0942 10.942ZM6.84791 11.1771L6.8629 11.1822C6.99294 11.2172 7.11297 11.2771 7.21299 11.3572V11.3771C7.02295 11.4771 6.74288 11.5272 6.56284 11.3822C6.43781 11.2822 6.34278 11.2021 6.17773 11.152C6.15273 11.1472 6.14774 11.117 6.16273 11.1021C6.46281 10.862 6.96793 10.892 7.208 11.1822C7.218 11.1971 7.21299 11.2021 7.19799 11.1971C7.17299 11.1921 6.79288 11.097 6.84791 11.1771ZM11.3591 11.2271C11.3504 11.2918 11.3264 11.3535 11.2891 11.4072C11.2844 11.4133 11.2783 11.4184 11.2714 11.4218C11.2644 11.4254 11.2568 11.4272 11.249 11.4272C11.2412 11.4272 11.2336 11.4254 11.2266 11.4218C11.2198 11.4184 11.2136 11.4133 11.209 11.4072C11.089 11.2271 11.144 11.1071 11.279 10.942C11.304 10.907 11.314 10.857 11.329 10.817C11.329 10.7971 11.349 10.787 11.3691 10.7971C11.4941 10.847 11.5641 10.9321 11.5591 11.0721C11.5591 11.1621 11.5591 11.2971 11.4741 11.3572C11.4341 11.3822 11.4341 11.2421 11.4291 11.2271C11.4241 11.187 11.3691 11.187 11.3591 11.2271Z" fill="#FF8E3A"/>
<path d="M9.09758 11.2424L9.23266 10.9422C9.23698 10.9326 9.24398 10.9246 9.25285 10.9188C9.26172 10.9132 9.27211 10.9101 9.28261 10.9101C9.29312 10.9101 9.3035 10.9132 9.31237 10.9188C9.32124 10.9246 9.32824 10.9326 9.33267 10.9422C9.39768 11.0423 9.44271 11.1423 9.46769 11.2424C9.5027 11.4074 9.23757 11.5624 9.22263 11.7224C9.22263 11.7625 9.19765 11.8826 9.12258 11.8224C8.86252 11.5724 8.82251 11.2973 9.01256 10.9923C9.09257 10.8623 9.11758 10.8722 9.09257 11.0222C9.07996 11.0933 9.07325 11.1653 9.07257 11.2373C9.07257 11.2724 9.08257 11.2774 9.09758 11.2373V11.2424ZM14.979 11.3474C15.0041 11.3124 14.889 11.3323 14.8691 11.3574C14.859 11.3723 14.7291 11.5073 14.6989 11.4574C14.569 11.2473 14.739 11.1572 14.9691 11.0323C14.9832 11.0257 14.9954 11.0152 15.0041 11.0024L15.0341 10.9522C15.0391 10.9373 15.0641 10.9373 15.0741 10.9473C15.2641 11.0973 15.1941 11.2874 15.0191 11.4274C14.944 11.4824 14.9191 11.4774 14.949 11.4023L14.979 11.3474ZM9.97777 11.5325C9.97777 11.5024 9.92782 11.5073 9.92782 11.5325C9.90775 11.6074 9.90273 11.6824 9.90775 11.7625C9.91276 11.7975 9.89783 11.8125 9.86282 11.8174C9.84275 11.8174 9.81276 11.8075 9.7928 11.7775C9.7236 11.7003 9.6739 11.6077 9.64775 11.5073C9.64204 11.4912 9.64204 11.4735 9.64775 11.4574C9.6977 11.3474 9.72278 11.2323 9.72278 11.1073C9.72278 11.0473 9.80272 11.0073 9.85279 11.0573C10.0679 11.2573 10.1329 11.4723 10.0478 11.7075C10.0128 11.8075 9.98781 11.8075 9.97777 11.7025C9.97322 11.6459 9.97322 11.5891 9.97777 11.5325ZM16.3994 11.7824C16.1894 11.8325 15.9743 11.8475 15.7492 11.8174C15.7242 11.8174 15.7093 11.7925 15.7242 11.7775C15.8543 11.6275 16.1644 11.4373 16.4544 11.4774C16.7246 11.5124 16.9996 11.5274 17.2746 11.5174C17.2946 11.5174 17.3096 11.5274 17.3147 11.5374C17.3147 11.6275 17.2646 11.7025 17.1797 11.7674C16.8296 12.0176 16.4143 12.0325 15.9292 11.9775C15.9043 11.9775 15.9043 11.9574 15.9243 11.9574C16.0543 11.9275 16.3544 11.8874 16.4244 11.8025C16.4394 11.7824 16.4344 11.7775 16.3994 11.7824ZM11.6582 12.0576C11.6118 12.0874 11.5739 12.1288 11.5481 12.1776C11.5232 12.2176 11.4582 12.2126 11.4431 12.1626C11.3431 11.8524 11.5932 11.7425 11.7582 11.5424C11.7683 11.5274 11.7833 11.5274 11.7982 11.5424C11.9933 11.7124 11.8733 12.0275 11.7082 12.1725C11.6531 12.2176 11.6382 12.2075 11.6582 12.1375L11.6783 12.0725C11.6783 12.0526 11.6783 12.0475 11.6582 12.0576ZM12.9185 12.0125C12.9147 12.0097 12.9102 12.0077 12.9056 12.0068C12.9009 12.0058 12.8961 12.0058 12.8913 12.0068C12.8867 12.0077 12.8822 12.0095 12.8783 12.0123C12.8744 12.015 12.871 12.0185 12.8686 12.0226L12.8085 12.1826C12.7935 12.2176 12.7585 12.2327 12.7235 12.2176C12.6235 12.1725 12.6235 12.0375 12.6385 11.9475C12.6585 11.8325 12.7685 11.7824 12.7935 11.6474C12.8035 11.6124 12.8435 11.5974 12.8735 11.6074C13.0535 11.6874 13.0436 11.9075 13.0086 12.0576C12.9935 12.1325 12.9736 12.1325 12.9485 12.0576C12.9419 12.0406 12.9316 12.0253 12.9185 12.0125ZM8.13234 12.1175L8.29737 11.6874C8.29939 11.6836 8.30223 11.6801 8.30573 11.6774C8.30922 11.6747 8.31324 11.6729 8.31753 11.672C8.32183 11.671 8.32629 11.671 8.33058 11.672C8.33488 11.6729 8.3389 11.6747 8.34239 11.6774C8.56244 11.8925 8.62246 12.1976 8.42741 12.4526C8.33238 12.5777 8.26737 12.7178 8.23236 12.8727C8.23236 12.8827 8.21736 12.8928 8.20736 12.8827C7.77224 12.6528 7.77224 12.0475 8.07232 11.7224C8.10233 11.6925 8.11233 11.6975 8.10733 11.7375C8.08233 11.8625 8.08732 11.9876 8.10733 12.1175C8.11733 12.1426 8.12232 12.1426 8.13234 12.1175ZM7.2121 11.8975C7.36215 11.7775 7.53219 11.6925 7.71222 11.6424C7.73723 11.6375 7.74724 11.6423 7.74724 11.6675C7.74724 11.8574 7.69222 12.0176 7.58719 12.1526C7.36215 12.4377 7.01205 12.3526 6.73198 12.5326C6.72198 12.5377 6.70699 12.5326 6.70197 12.5176C6.67592 12.3963 6.67617 12.2705 6.70271 12.1492C6.72926 12.0278 6.78148 11.9136 6.85586 11.8141C6.93026 11.7146 7.02508 11.6321 7.13397 11.5724C7.24286 11.5125 7.3633 11.4768 7.48718 11.4674C7.53718 11.4674 7.54719 11.4875 7.50718 11.5225C7.38714 11.6324 7.25711 11.7124 7.19711 11.8874C7.18709 11.9075 7.19711 11.9125 7.2121 11.8975ZM15.014 12.3377C15.029 12.3227 14.979 12.3075 14.9641 12.3227L14.774 12.4976C14.7672 12.5048 14.7586 12.51 14.749 12.5127C14.719 12.5226 14.684 12.5077 14.6789 12.4826C14.6639 12.4326 14.6289 12.2826 14.6989 12.2327L15.049 12.0125C15.0691 11.9975 15.0991 11.9975 15.119 12.0125L15.1341 12.0226C15.2341 12.2126 15.1891 12.3727 14.984 12.4927C14.894 12.5576 14.8691 12.5427 14.924 12.4676C14.949 12.4226 14.979 12.3826 15.014 12.3377ZM10.518 12.3526L10.653 12.6677C10.653 12.6827 10.6429 12.7027 10.628 12.7027C10.559 12.7005 10.4912 12.6838 10.4292 12.6537C10.3671 12.6234 10.3122 12.5805 10.2679 12.5277C10.2269 12.4703 10.2026 12.4029 10.1979 12.3326C10.1826 12.2035 10.14 12.0789 10.0729 11.9675C10.0478 11.9275 10.0828 11.8725 10.1329 11.8826C10.3629 11.9325 10.5329 12.0325 10.633 12.1826C10.703 12.2876 10.718 12.4476 10.763 12.5777C10.773 12.5927 10.723 12.6077 10.718 12.5876C10.6928 12.4841 10.6282 12.3944 10.5379 12.3377C10.5079 12.3227 10.5029 12.3276 10.518 12.3576V12.3526ZM8.8125 12.5027C8.82251 12.5176 8.85252 12.5127 8.85252 12.4927L8.90253 12.2576C8.90753 12.2126 8.92753 12.2075 8.95254 12.2426C9.25262 12.5627 8.95254 12.6777 8.88752 12.9928C8.88252 13.0177 8.88752 13.0828 8.89252 13.1878C8.91753 13.4779 8.60245 13.588 8.48241 13.823C8.47809 13.8287 8.47261 13.8334 8.46634 13.8366C8.46007 13.84 8.45315 13.842 8.44605 13.8425C8.43894 13.8429 8.43183 13.8419 8.42517 13.8394C8.41851 13.8368 8.41245 13.833 8.40741 13.828C8.18735 13.553 8.33739 13.1528 8.56744 12.9428C8.62245 12.8928 8.61746 13.0278 8.59245 13.0578C8.56971 13.0826 8.55221 13.1119 8.54104 13.1437C8.52986 13.1754 8.52525 13.2092 8.52744 13.2429C8.52744 13.2929 8.58245 13.2779 8.59245 13.2429C8.62246 13.1228 8.69247 13.0778 8.74249 12.9827C8.74687 12.9752 8.74918 12.9665 8.74918 12.9578C8.74918 12.9491 8.74687 12.9404 8.74249 12.9329C8.66747 12.7827 8.64746 12.6327 8.67747 12.4727C8.68747 12.3926 8.73249 12.3377 8.7775 12.2677C8.7775 12.2576 8.7875 12.2576 8.7925 12.2677L8.8075 12.2976V12.3027C8.75249 12.3727 8.75249 12.4377 8.8075 12.5027H8.8125ZM15.6442 12.8628L15.2241 12.8477C15.1941 12.8477 15.1741 12.8078 15.1941 12.7777C15.3892 12.5226 15.6392 12.4727 15.9292 12.6077C16.0293 12.6528 16.0944 12.6427 16.1944 12.6427C16.2044 12.6404 16.2151 12.6413 16.2246 12.6454C16.2341 12.6494 16.2422 12.6563 16.2477 12.665C16.2532 12.6737 16.2557 12.684 16.2552 12.6944C16.2546 12.7047 16.2509 12.7146 16.2443 12.7228C16.0793 13.0478 15.6743 13.1228 15.3542 13.0278L15.3516 13.0244L15.3508 13.0203L15.3516 13.0161L15.3542 13.0128C15.3906 12.9781 15.4339 12.9512 15.4813 12.934C15.5285 12.9168 15.5789 12.9096 15.6293 12.9128C15.6592 12.9128 15.6643 12.8628 15.6442 12.8628ZM13.8488 12.9679C13.8087 12.9878 13.7838 13.0177 13.7788 13.0478C13.7788 13.0628 13.7438 13.0728 13.7287 13.0578C13.4287 12.8477 13.6937 12.7277 13.8838 12.5576C13.9188 12.5277 13.9939 12.5277 14.0238 12.5576C14.1738 12.7178 14.1539 12.8677 13.9838 13.0077C13.9637 13.0228 13.9238 13.0177 13.9238 12.9978C13.9214 12.9881 13.9161 12.9795 13.9088 12.9727C13.8937 12.9578 13.8738 12.9527 13.8538 12.9679H13.8488ZM9.55265 12.9978C9.52265 12.8477 9.51273 12.6977 9.53269 12.5477C9.53269 12.5377 9.54774 12.5277 9.55766 12.5377C9.74275 12.6727 9.89281 12.8078 9.87274 13.0778C9.8578 13.2278 9.73772 13.3629 9.82781 13.558C9.83773 13.5729 9.82781 13.588 9.81276 13.593C9.7732 13.6001 9.73248 13.593 9.6977 13.5729C9.36267 13.3928 9.3126 13.0578 9.35263 12.6926C9.36267 12.6327 9.3727 12.6277 9.39266 12.6878L9.49266 12.9878C9.5027 13.0029 9.56268 13.0379 9.55265 12.9978ZM14.4289 13.3379C14.4289 13.2528 14.4039 13.2479 14.3739 13.3179L14.2539 13.5679C14.2289 13.6179 14.1689 13.6029 14.1588 13.5479C14.0289 12.9778 14.2838 12.9628 14.4739 12.5727C14.4939 12.5326 14.5389 12.5226 14.569 12.5526C14.6639 12.6528 14.654 12.8228 14.654 13.0029C14.654 13.2628 14.5739 13.453 14.414 13.5679C14.3639 13.6029 14.3589 13.593 14.3838 13.5329C14.4188 13.4579 14.4339 13.3979 14.4339 13.3379H14.4289ZM14.844 13.488C14.7991 13.3629 14.779 13.2379 14.774 13.0978C14.774 13.0728 14.784 13.0628 14.804 13.0679C15.2541 13.1778 15.094 13.7079 15.1841 14.098C15.1891 14.1131 15.1792 14.133 15.164 14.1281C14.814 14.0381 14.6639 13.728 14.654 13.2878C14.654 13.2278 14.6639 13.2228 14.689 13.2779L14.7941 13.5079C14.804 13.5329 14.849 13.5129 14.844 13.488ZM9.98781 18.3892C9.28436 18.1936 8.61365 17.8953 7.9973 17.5039H14.9991C14.3288 17.8739 13.6988 18.224 12.9635 18.3941C12.3135 18.5442 11.5632 18.4992 10.8781 18.4892C10.5786 18.4868 10.2803 18.4533 9.98781 18.3892Z" fill="#FF8E3A"/>
<path d="M18.6406 16.6182C18.8756 16.2582 18.7107 15.783 18.3205 15.603C18.1426 15.5274 17.9436 15.5169 17.7587 15.5736C17.574 15.6303 17.4151 15.7506 17.3103 15.913C16.475 17.1623 15.2597 18.1095 13.8443 18.6144C12.4289 19.1193 10.8885 19.1549 9.45118 18.7162C8.01388 18.2775 6.75602 17.3877 5.86376 16.1785C4.97152 14.9692 4.49231 13.5049 4.49707 12.0021C4.49744 11.0512 4.69149 10.1103 5.0674 9.23694C5.4433 8.3635 5.99315 7.57579 6.68347 6.92184C7.37377 6.26788 8.19005 5.76139 9.08252 5.43324C9.97503 5.10508 10.9249 4.96216 11.8745 5.01316C12.8239 5.06417 13.7532 5.30806 14.6053 5.72995C15.4575 6.15182 16.2148 6.74287 16.831 7.46701C17.4473 8.19117 17.9097 9.03326 18.1898 9.94192C18.4699 10.8506 18.5621 11.8069 18.4605 12.7523C18.3455 12.5372 18.0555 12.4471 17.8054 12.5372C17.5504 12.6372 17.4302 12.8873 17.5403 13.1074L18.3706 14.7428C18.4306 14.8579 18.5456 14.9428 18.6807 14.9828C18.8207 15.0228 18.9757 15.0028 19.1008 14.9378L20.7561 14.0777C20.9963 13.9526 21.0712 13.6875 20.9263 13.4774C20.7812 13.2775 20.476 13.2124 20.2309 13.3374L19.8659 13.5275C20.2451 11.4515 19.8386 9.30873 18.7256 7.5158C17.6126 5.72288 15.8725 4.40796 13.8438 3.82672C11.8152 3.24548 9.64279 3.43948 7.74926 4.37097C5.85565 5.30247 4.37616 6.90489 3.59843 8.86666C2.82071 10.8285 2.80036 13.0093 3.54132 14.9853C4.28229 16.9612 5.73162 18.591 7.60749 19.5577C9.48339 20.5243 11.6517 20.7588 13.6908 20.2156C15.73 19.6722 17.4943 18.3901 18.6406 16.6182Z" fill="#FF8E3A"/>
</svg>
