<svg width="24" height="24" viewBox="0 0 24 24" fill="none" xmlns="http://www.w3.org/2000/svg">
<path d="M19.875 11.3625C20.0175 10.9876 20.4675 10.875 20.8349 10.875H21V11.625C20.79 11.625 20.5763 11.6176 20.3776 11.6812C20.2388 11.7262 20.115 11.805 20.0212 11.9138C19.8487 12.1388 19.8899 12.2925 19.875 12.4988V14.625H18.75V10.875H19.875V11.3625ZM8.01749 13.6651C7.3275 14.3138 6.735 14.625 5.75625 14.625C4.12499 14.625 3 13.5338 3 11.9925C3 10.4137 4.27499 9.375 5.77124 9.375C6.64124 9.375 7.46999 9.74251 8.04 10.3763L7.34249 11.2537C6.86999 10.77 6.35624 10.5 5.74874 10.5C4.73624 10.5 4.08374 11.1562 4.125 11.9925C4.16249 12.8287 4.74 13.5 5.77124 13.5C6.41625 13.5 6.85124 13.2487 7.34624 12.7762L8.01749 13.6651ZM12.1425 13.8038C11.73 14.3663 11.1863 14.6175 10.3763 14.6175C9.15 14.6175 8.25 13.8862 8.25 12.7312C8.25 11.58 9.12374 10.875 10.3612 10.875C11.5801 10.875 12.3749 11.6888 12.3749 12.7312V13.125H9.37499C9.46874 13.6762 9.825 13.875 10.3763 13.875C10.7888 13.875 11.1263 13.7512 11.3887 13.5L12.1463 13.8L12.1425 13.8038ZM11.2499 12.375C11.2499 12.0525 10.9124 11.625 10.3237 11.625C9.73874 11.625 9.37499 12.075 9.37499 12.375H11.2499ZM12.75 9.375H13.875V14.625H12.75V9.375ZM18.1312 13.8C17.7188 14.3663 17.175 14.6175 16.3613 14.6175C15.1387 14.6175 14.25 13.875 14.25 12.6487C14.25 11.64 15.1237 10.875 16.3613 10.875C17.58 10.875 18.375 11.7412 18.375 12.9375V13.125H15.375C15.4125 13.5975 15.8101 13.875 16.3613 13.875C16.7464 13.8895 17.1224 13.7553 17.4113 13.5L18.1312 13.8ZM17.25 12.375C17.25 12.0825 16.9313 11.625 16.3613 11.625C15.7949 11.625 15.375 12.0825 15.375 12.375H17.25Z" fill="white"/>
</svg>
