<svg width="24" height="24" viewBox="0 0 24 24" fill="none" xmlns="http://www.w3.org/2000/svg">
<path d="M17.1808 3.11541L17.8602 3.04572C18.5687 3.15026 19.2714 3.4174 19.8 3.89362C20.1368 4.20141 20.2819 4.59632 19.9161 4.95058C19.8 5.06674 19.5793 5.08997 19.5095 5.31646C19.4167 5.60684 19.405 5.8972 19.4689 6.21081C19.5793 6.72768 20.2471 6.76834 20.1078 7.442C20.0729 7.62785 19.9102 7.80207 19.6199 7.97049C19.0798 8.29571 18.1332 7.88918 17.8661 8.65578C17.5931 9.161 17.4014 9.68948 17.2852 10.2238C17.204 10.4677 17.0762 11.0136 17.3841 11.1878C17.5931 11.3098 17.7441 11.4899 17.8312 11.7279C17.9009 11.9312 17.8602 12.1345 17.9473 12.3667C18.0635 12.6223 18.1507 12.8837 18.2261 13.1392C18.3306 13.7199 18.2145 14.2136 17.8776 14.6084C17.8644 14.6173 17.8539 14.6296 17.8467 14.6438C17.8395 14.658 17.8363 14.6739 17.8369 14.6897C17.8369 14.6988 17.8349 14.7076 17.8309 14.7157C17.8268 14.7237 17.821 14.7308 17.8138 14.7362L17.2388 15.2357C17.2258 15.2474 17.2154 15.2617 17.2083 15.2777C17.2014 15.2938 17.1978 15.311 17.1981 15.3287C17.204 16.5831 17.628 19.1383 16.8149 20.2301C16.8088 20.2386 16.8011 20.2456 16.792 20.2506C16.7829 20.2556 16.7729 20.2585 16.7627 20.2592C16.7393 20.2592 16.7278 20.2477 16.722 20.2244C16.7202 20.2102 16.7163 20.1965 16.7104 20.1837C16.8846 19.8004 16.9775 19.3706 16.989 18.8886C17.0123 17.245 17.0182 16.0254 17.0182 15.2357C17.0182 15.1951 17.0356 15.166 17.0704 15.1486C18.0751 14.5272 18.3887 13.4237 17.7325 12.4017C17.7094 12.3675 17.6991 12.3264 17.7035 12.2854C17.7615 11.7396 17.5582 11.3854 17.0761 11.2111C17.0599 11.2049 17.0461 11.1936 17.0366 11.179C17.0273 11.1644 17.0228 11.1471 17.0239 11.1298C17.0239 10.4329 17.1981 9.70696 17.5467 8.96939C17.7325 8.58609 17.8661 8.16795 18.2784 8.02857C18.5338 7.93564 18.8417 7.88918 19.1959 7.88918C19.6083 7.88338 20.1019 7.54655 19.9394 7.09355C19.8548 6.94563 19.7446 6.81389 19.6141 6.70446C19.1379 6.23985 19.0857 5.67653 19.4574 5.00866C19.4644 4.99262 19.4757 4.97878 19.49 4.96858C19.5044 4.95837 19.521 4.95215 19.5387 4.95058C20.0265 4.91574 20.0786 4.3524 19.7709 4.06204C18.83 3.16768 17.3841 3.07477 16.2108 3.52774C15.7637 3.70197 14.9681 4.14914 14.5558 4.02138C14.0795 3.882 13.4291 3.69617 13.0343 4.11431C13.0102 4.14315 12.9778 4.16352 12.9413 4.17238C12.2612 4.32015 11.5517 4.249 10.9145 3.96912C10.2524 3.67873 9.75294 3.01087 8.9515 3.22576C8.74824 3.28383 8.57401 3.44064 8.39978 3.57421C7.86549 3.97492 7.08728 4.14914 6.46588 4.07365C5.64121 3.98074 4.54941 3.80069 4.12546 4.48599C3.82927 4.95058 4.17191 5.59523 4.72363 5.58941C4.78751 5.58941 4.81074 5.61845 4.78751 5.68233C4.49713 6.55346 5.42634 6.44311 5.87932 6.53603C6.20454 6.60572 6.402 6.79737 6.61687 7.03548C6.88402 7.33747 7.75515 7.55235 8.1849 7.68012C8.66112 7.8253 8.89924 8.46993 9.12572 8.87647C9.20121 9.01587 9.15477 9.22495 9.1838 9.38174C9.32899 10.1948 9.43934 11.0136 9.51482 11.844C9.43934 11.8325 9.39868 11.8557 9.39286 11.9022C9.39286 11.8616 9.38125 11.8325 9.35802 11.8092C9.32899 11.7861 9.29995 11.7861 9.2709 11.8092C9.01399 12.0034 8.80153 12.2501 8.64778 12.5331C8.49403 12.816 8.40254 13.1285 8.37945 13.4497C8.35635 13.7708 8.40218 14.0932 8.51386 14.3953C8.62553 14.6974 8.80049 14.972 9.02699 15.2009L9.06764 15.2067H9.1083C9.13733 15.2009 9.16638 15.2067 9.1896 15.2298L9.45095 15.4448C9.48579 15.468 9.4974 15.5028 9.49159 15.5434L9.20121 19.6379C9.13733 19.6727 9.1025 19.6842 9.1025 19.6669C9.11411 19.6262 9.1025 19.5913 9.05603 19.5739C9.04488 19.5691 9.03552 19.5609 9.02927 19.5505C9.02302 19.54 9.02019 19.528 9.0212 19.5159L9.29995 15.6306C9.30288 15.5919 9.29527 15.553 9.27789 15.5182C9.26049 15.4834 9.23399 15.4541 9.20121 15.4332C9.0212 15.3343 8.84116 15.2647 8.70758 15.1021C8.52109 14.8767 8.38179 14.616 8.298 14.3356C8.21418 14.0553 8.18758 13.761 8.21975 13.4702C8.23717 13.3482 8.23717 13.2204 8.21975 13.0928L8.36494 12.5584C8.56238 12.2274 8.81212 11.9545 9.11991 11.7396C9.42772 11.5944 9.29414 11.1821 9.1896 10.9556C9.17434 10.9207 9.17228 10.8814 9.1838 10.8452C9.20703 10.7522 9.21865 10.6943 9.21283 10.6651L8.99215 9.35274C8.98997 9.33391 8.98363 9.31575 8.97357 9.29963C8.96354 9.28363 8.95004 9.26994 8.93408 9.25978C8.77728 9.15517 8.75404 9.02169 8.86439 8.85323C8.88181 8.82419 8.88761 8.79516 8.87019 8.76031C8.75985 8.49897 8.61467 8.26666 8.43463 8.0576C8.33442 7.94469 8.2031 7.86388 8.05715 7.8253C7.40089 7.63365 6.73883 7.4362 6.26843 6.8961C5.91997 6.48958 5.12434 6.83803 4.71202 6.30373C4.65023 6.18819 4.60338 6.06524 4.57263 5.93786C4.51455 5.73459 4.36937 5.58941 4.14868 5.49649C3.84669 5.18288 3.78862 4.84024 3.98027 4.48018C4.10223 4.34079 4.22999 4.20143 4.36356 4.07365C4.47391 3.96912 4.60748 3.89943 4.75847 3.87039C4.96174 3.82974 5.14757 3.77747 5.35664 3.80651C5.57821 3.83656 5.80109 3.85594 6.02452 3.86457C6.77949 3.88781 7.4125 3.89942 7.92937 3.65551C8.23717 3.51033 8.54498 3.23737 8.79469 3.1038C9.25348 2.85989 9.81682 3.08638 10.2175 3.36513C10.7983 3.76585 11.3848 4.1201 12.1166 4.06204C12.3953 4.04461 12.7845 4.09108 13.0226 3.90523C13.4349 3.59163 13.8937 3.62648 14.3757 3.77747C14.9564 3.96331 15.6243 3.60325 16.1239 3.37095C16.4664 3.20834 16.8206 3.12703 17.1808 3.11541Z" fill="#458A7B"/>
<path d="M16.7049 20.1821C15.8804 21.576 14.4401 20.9835 13.72 19.9266L13.4296 19.3342C13.4172 19.309 13.3982 19.2878 13.3747 19.2725C13.3511 19.2572 13.324 19.2484 13.296 19.2471L12.3785 19.224C12.3436 19.224 12.3203 19.2355 12.303 19.2646L11.9138 19.973C11.7054 20.2805 11.4103 20.5193 11.0659 20.6589C10.7216 20.7985 10.3437 20.8326 9.97991 20.7571C9.59081 20.699 9.10878 20.5132 9.16685 20.037L9.20751 19.6363L9.49787 15.542C9.49936 15.523 9.49586 15.5037 9.48771 15.4865C9.47957 15.4691 9.46707 15.4543 9.45142 15.4433L9.19009 15.2284C9.17938 15.218 9.16658 15.2101 9.15258 15.2051C9.13855 15.2 9.12362 15.1981 9.10878 15.1994L9.06813 15.2052C9.05552 15.207 9.04263 15.2059 9.03051 15.2018C9.01841 15.1978 9.00742 15.1909 8.99843 15.1818C8.77552 14.9512 8.60428 14.6756 8.49615 14.3736C8.38799 14.0717 8.34542 13.75 8.37124 13.4303C8.39708 13.1105 8.4907 12.7999 8.64591 12.5192C8.80112 12.2383 9.01435 11.9939 9.27139 11.8019C9.30043 11.7845 9.32947 11.7845 9.35851 11.8077C9.38174 11.831 9.39335 11.8659 9.39335 11.9065C9.07974 12.1736 8.86486 12.4872 8.73711 12.8473C8.63838 13.0796 8.59191 13.306 8.60353 13.5442C8.58611 13.8055 8.62677 14.0495 8.71968 14.2875C8.84275 14.5998 9.0354 14.8799 9.283 15.1064C10.1309 15.6524 10.9439 15.6117 11.7222 14.9903C11.7802 14.9438 11.8209 14.9555 11.8673 15.0076L11.8906 15.0426C11.9033 15.0599 11.9092 15.0813 11.9072 15.1029C11.9049 15.1243 11.895 15.1442 11.8789 15.1587C11.5917 15.4235 11.2368 15.6039 10.8536 15.6796C10.4702 15.7555 10.0734 15.724 9.70695 15.5884C9.68373 15.5768 9.67211 15.5884 9.67211 15.6117L9.41077 20.159C9.41077 20.1997 9.41657 20.2403 9.43981 20.2751C9.45723 20.3099 9.48626 20.3389 9.52112 20.3565C10.2761 20.7281 10.9382 20.6351 11.5073 20.0892C11.7395 19.8686 11.8906 19.5144 12.0706 19.2298C12.088 19.1892 12.0823 19.1658 12.0416 19.1542C11.7606 19.0964 11.4875 19.0047 11.2285 18.8812C11.1007 18.8117 11.0834 18.7477 11.1879 18.6897C11.728 18.864 12.1867 18.9626 12.5701 18.9974C12.7675 19.0208 13.0695 19.0149 13.4761 18.9801C13.6793 19.5607 13.9987 20.0254 14.4459 20.3737C15.3169 21.0417 16.1765 20.9023 16.6122 19.8105C16.6992 19.5317 16.7456 19.2994 16.7572 19.1135C16.7863 18.3587 16.7979 17.3133 16.7863 15.9659V15.3852C16.7863 15.3386 16.7631 15.3271 16.7283 15.3386C15.8222 15.6697 14.5562 15.6872 13.7083 15.1354C13.6815 15.1224 13.6606 15.0995 13.6502 15.0716C13.6457 15.0571 13.6445 15.0418 13.6464 15.0268C13.6485 15.0117 13.6537 14.9971 13.6619 14.9845C13.6852 14.9496 13.72 14.938 13.7548 14.9555C14.0917 15.089 14.353 15.1818 14.5272 15.2284C15.5959 15.5013 17.0012 15.3038 17.6284 14.2817C17.9187 13.8055 17.9304 13.2945 17.6633 12.7543L17.4542 12.4058C17.4436 12.3886 17.437 12.3693 17.435 12.3492C17.433 12.3291 17.4356 12.3087 17.4426 12.2897L17.489 12.1736C17.5007 12.1388 17.5065 12.0981 17.5007 12.0575C17.4426 11.5521 17.158 11.3374 16.6585 11.4186C16.6508 11.4199 16.6429 11.4191 16.6356 11.4159C16.6284 11.4129 16.6223 11.4077 16.6178 11.4012C16.6138 11.3942 16.6116 11.3861 16.6116 11.378C16.6116 11.3698 16.6138 11.3617 16.6178 11.3547C16.6411 11.2967 16.6877 11.2676 16.7515 11.2561C16.7689 11.2561 16.7805 11.2444 16.7921 11.2328C16.8035 11.22 16.8096 11.2035 16.8096 11.1862C16.8096 10.4313 16.9663 9.70544 17.2858 9.026C17.3322 8.93301 17.3089 8.90978 17.2161 8.96205C16.9722 9.09565 16.7689 9.28726 16.6063 9.52535C16.5982 9.53863 16.586 9.54893 16.5715 9.55448H16.5192L16.4843 9.537C16.4495 9.51952 16.4437 9.49635 16.461 9.46735C16.6934 9.084 17.1174 8.86914 17.4774 8.63684C17.5238 8.60199 17.5645 8.52069 17.5935 8.39292C17.5994 8.35226 17.5935 8.34065 17.5528 8.35807C17.2528 8.48435 16.9791 8.66555 16.7456 8.89236C16.6992 8.93301 16.6528 8.95044 16.6063 8.93302C16.5972 8.92927 16.5893 8.92327 16.583 8.9156C16.5727 8.90484 16.5666 8.89083 16.5655 8.87599C16.5644 8.86114 16.5687 8.8464 16.5772 8.83429C16.7631 8.54391 17.4136 8.21869 17.7271 8.02123C18.2352 7.81043 18.775 7.68675 19.3243 7.65537C19.4171 7.64955 19.481 7.62633 19.51 7.58568C19.5391 7.55082 19.5333 7.5276 19.4868 7.5276C18.848 7.5334 18.2789 7.64375 17.7795 7.87605L17.7388 7.70182L18.1918 7.54503C18.6703 7.41441 19.165 7.35185 19.6611 7.35917C19.7133 7.35917 19.7424 7.33015 19.7366 7.27207V7.21399C19.7366 7.15592 19.7133 7.13269 19.6611 7.1443L18.1278 7.3708C17.0177 7.62127 16.0334 8.25966 15.352 9.17113C15.3397 9.17764 15.3258 9.17994 15.3122 9.17791C15.2985 9.17574 15.2861 9.16937 15.2763 9.15947L15.2531 9.13631C15.2448 9.12682 15.2395 9.11503 15.2385 9.10243C15.2376 9.08983 15.2405 9.07723 15.2473 9.06665C15.928 8.14687 16.9039 7.48877 18.0117 7.20238L19.481 6.97008C19.5449 6.95846 19.5506 6.93524 19.4985 6.90039C19.2487 6.72616 19.0919 6.48806 19.028 6.18025C19.0163 6.1396 18.9932 6.11638 18.9525 6.12218L18.302 6.1396C17.5282 6.23693 16.7914 6.52801 16.16 6.98587C15.5285 7.44371 15.0229 8.05351 14.6899 8.75879C14.5484 9.0199 14.4688 9.31003 14.4576 9.60666C14.4576 9.63578 14.4401 9.65314 14.4111 9.65896L14.3878 9.66478C14.3662 9.67075 14.3434 9.67062 14.3219 9.66438C14.3004 9.65829 14.281 9.64636 14.2658 9.62996C14.2504 9.61411 14.2391 9.5946 14.233 9.57332C14.227 9.55204 14.2262 9.52955 14.231 9.508C14.3123 9.15947 14.4284 8.85171 14.5737 8.59037C15.3635 7.1385 16.5772 6.26737 18.2149 5.97119L18.9408 5.91892C18.9815 5.91892 18.999 5.89569 18.999 5.86085C19.0117 5.43307 19.1718 5.0228 19.452 4.69934C19.632 4.71676 19.7307 4.65288 19.7424 4.50769C19.7888 4.15343 18.9874 3.78756 18.7317 3.71787C18.7317 3.73529 18.6911 3.72368 18.5983 3.68304C18.5585 3.64746 18.5111 3.62118 18.4599 3.60611C18.4087 3.59105 18.3548 3.58756 18.302 3.59591C17.8619 3.47812 17.4003 3.46619 16.9547 3.56108C16.1707 3.67722 15.5145 4.24054 14.7363 4.25797C14.4576 4.26378 14.1324 4.11858 13.7955 4.13021C13.5922 4.03728 13.4237 4.06052 13.3018 4.19988C13.2089 4.24054 13.1275 4.31605 13.0462 4.42057C13.0231 4.45543 12.994 4.46123 12.965 4.4438C12.8836 4.40315 12.843 4.38574 12.7501 4.40896C12.4191 4.49027 12.1112 4.50769 11.8383 4.46123C11.5255 4.41899 11.2166 4.35101 10.915 4.25797C10.5432 4.09536 9.96248 3.53784 9.48047 3.46235C9.24235 3.42169 8.85325 3.44491 8.66741 3.63077C7.91243 4.42057 6.84966 4.24054 5.93208 4.29862L5.20613 4.28119C4.7183 4.2057 4.21886 4.42057 4.23628 5.00133C4.23628 5.04198 4.2479 5.07102 4.27113 5.10006C4.64861 5.57046 5.1074 5.41948 5.51393 5.10006C5.66493 4.9723 5.81592 4.88518 5.95531 4.84453C6.22826 4.75741 6.43733 4.72838 6.58252 4.76322C7.22134 4.891 7.83693 5.07102 8.15054 4.49608C8.1692 4.4625 8.17537 4.42342 8.16797 4.38574C8.15054 4.29282 8.18539 4.23474 8.28412 4.21151L8.79517 4.10117C9.40496 3.98501 9.39916 4.63545 9.92764 4.75741C10.1135 4.79806 10.4039 4.81549 10.4213 5.08263C10.3807 5.18718 10.398 5.25687 10.4678 5.2859C10.5723 5.32075 10.6303 5.29751 10.6477 5.20459C11.0834 5.33816 11.5189 5.63435 11.9255 5.65758C12.3726 5.67501 12.7675 5.5182 13.116 5.17555C13.1476 5.14697 13.17 5.10961 13.1803 5.06824C13.1907 5.02688 13.1885 4.98337 13.174 4.94326L13.0579 4.56576C13.0553 4.55719 13.0556 4.54797 13.0587 4.53956C13.0618 4.53117 13.0677 4.52404 13.0754 4.51931H13.0927L13.1275 4.5135C13.1623 4.5135 13.1857 4.52512 13.1974 4.55414C13.2437 4.64708 13.3076 4.72838 13.3773 4.79806C13.4006 4.8213 13.4354 4.83292 13.4703 4.83292C14.353 4.86776 15.0209 5.29171 15.9384 4.99552C16.3566 4.86195 16.6295 4.49027 17.0593 4.37412L17.4426 4.27539C17.4774 4.26958 17.5007 4.25217 17.518 4.21731L17.5355 4.17087C17.5417 4.15752 17.5516 4.14614 17.5638 4.13796C17.5761 4.12978 17.5904 4.12509 17.6051 4.1244C17.6342 4.11858 17.6633 4.1244 17.6865 4.13601C17.7213 4.15924 17.7446 4.19409 17.7329 4.23474C17.6691 4.58319 17.8607 4.66449 18.1626 4.69353C18.3659 4.71096 18.5692 4.75161 18.7783 4.80969C18.8131 4.8271 18.8422 4.81549 18.8712 4.79226L19.3126 4.35088C19.3262 4.33724 19.3426 4.32659 19.3605 4.31959C19.3785 4.31259 19.3978 4.30941 19.4171 4.31023C19.4363 4.31166 19.4549 4.31705 19.472 4.32605C19.489 4.33504 19.5039 4.34746 19.5158 4.36251C19.632 4.49608 19.5798 4.5948 19.3591 4.64126C19.3067 4.68772 19.2139 4.78065 19.0803 4.93745C18.9061 5.14652 18.7202 5.03618 18.4995 4.98971C18.4824 4.98587 18.4646 4.98596 18.4475 4.98999C18.4304 4.99401 18.4144 5.00185 18.4009 5.01294C18.2443 5.14831 18.0599 5.24746 17.8607 5.30332C17.853 5.30356 17.8454 5.30212 17.8385 5.29912C17.8315 5.29611 17.8251 5.2916 17.82 5.2859C17.8165 5.27864 17.8146 5.27073 17.8143 5.26267L17.8026 5.22783C17.7991 5.21648 17.7991 5.20432 17.8026 5.19297C17.8095 5.18226 17.8197 5.1741 17.8318 5.16975L18.1336 5.00714L18.1569 4.98391V4.94906C18.1537 4.93966 18.1476 4.93151 18.1395 4.92583C18.1315 4.91872 18.1212 4.91462 18.1105 4.91422C17.8374 4.94326 17.6516 4.83292 17.5471 4.60062C17.5397 4.58234 17.5268 4.56686 17.5102 4.55642C17.4933 4.54598 17.4739 4.54113 17.4542 4.54253C17.1986 4.54253 16.9896 4.60641 16.8154 4.73419C16.4727 4.99552 16.1591 5.17557 15.8688 5.28009C15.6665 5.39293 15.4888 5.54496 15.3461 5.72727C15.1253 5.91311 14.9047 6.16284 14.6782 6.47643C14.0394 7.36499 13.4992 8.16643 13.267 9.35123C13.267 9.37439 13.2553 9.39187 13.238 9.40922C13.2216 9.42304 13.2012 9.43117 13.1798 9.43253H13.1451C13.1044 9.43253 13.0869 9.41504 13.0927 9.37439C13.3483 8.00962 14.0801 6.92942 14.9744 5.84342L15.4681 5.39044C15.5087 5.34978 15.5029 5.33236 15.4448 5.33236C14.9744 5.35559 14.5155 5.29171 14.0625 5.14652C14.0452 5.13984 14.0264 5.13793 14.008 5.14099C13.9895 5.14405 13.9723 5.15198 13.9581 5.16394C13.5753 5.43486 13.2837 5.81557 13.1218 6.25575C12.9253 6.94025 12.7967 7.6425 12.7385 8.35227C12.7327 8.39873 12.7095 8.41615 12.6688 8.42195H12.6107C12.6002 8.42229 12.5898 8.41902 12.5813 8.41269C12.5729 8.40636 12.5669 8.39734 12.5642 8.38712V8.36969C12.6224 7.66117 12.7385 6.9875 12.9128 6.34868C13.0656 5.86098 13.3609 5.43017 13.7606 5.11167C13.7624 5.10469 13.7625 5.09738 13.7611 5.09031C13.7595 5.08325 13.7564 5.07664 13.7518 5.07102C13.7474 5.06538 13.7416 5.06087 13.7351 5.05784C13.7285 5.05483 13.7214 5.05337 13.7142 5.0536L13.4934 5.06522C13.4586 5.06522 13.4354 5.08263 13.4237 5.11167C13.238 5.58789 12.5294 5.86085 12.0997 5.90149C12.0647 5.90149 12.0416 5.92472 12.0416 5.95957L12.0009 6.34286C11.9255 6.91781 11.6234 9.79258 12.3843 9.97835C12.6455 10.0365 12.6455 10.1061 12.3843 10.1758C12.2149 10.1063 12.0673 9.99245 11.9571 9.84637C11.8467 9.70029 11.7776 9.52724 11.757 9.34539C11.6234 8.35807 11.7164 7.34176 11.8209 6.36029L11.8906 5.95376C11.8965 5.91311 11.8789 5.89569 11.8383 5.88988C11.3736 5.84923 11.0834 5.55305 10.6362 5.47174C10.3632 5.42528 10.2296 5.33236 10.1483 5.07684C10.1439 5.05862 10.1337 5.04233 10.1193 5.03037C10.1058 5.02018 10.0897 5.01413 10.0728 5.01294C9.55016 4.98971 9.39916 4.73419 9.12039 4.39735C9.09588 4.36526 9.06099 4.34267 9.02167 4.33347C8.72548 4.26958 8.49319 4.37412 8.32477 4.65869C8.06343 5.10587 7.68014 5.16975 7.16327 5.08845C6.80043 5.03031 6.42985 5.04214 6.07145 5.12328C5.94369 5.15233 5.94369 5.18136 6.07145 5.2162C6.37925 5.29751 6.6522 5.4485 6.89611 5.66919C6.91354 5.6808 6.91935 5.69823 6.92516 5.71566V5.77373L6.91354 5.80858C6.91354 5.82019 6.90193 5.82599 6.89611 5.83761C6.89067 5.8438 6.88397 5.84874 6.87645 5.85213C6.86895 5.85552 6.8608 5.85728 6.85257 5.85728C6.84432 5.85728 6.83618 5.85552 6.82867 5.85213C6.82116 5.84874 6.81446 5.8438 6.80901 5.83761C6.50805 5.54189 6.11414 5.35929 5.69396 5.32075C5.65912 5.32075 5.61847 5.32075 5.58361 5.34397L5.11902 5.5995C5.0851 5.61692 5.05838 5.6457 5.04353 5.6808L4.95642 5.86666C4.93564 5.91524 4.9312 5.96925 4.94377 6.02056C4.95634 6.07189 4.98523 6.11773 5.02609 6.15123C5.05514 6.17445 5.08417 6.18606 5.11902 6.19188C5.49651 6.26737 6.22244 6.27318 6.46636 6.55194C6.72189 6.84812 7.00646 7.04557 7.31427 7.15011C7.43041 7.19077 7.44202 7.16172 7.37233 7.06881C6.86552 6.43232 6.12965 6.01956 5.32229 5.91892C5.31298 5.91747 5.30406 5.91416 5.29609 5.90915C5.2881 5.90417 5.28121 5.8976 5.27583 5.88988C5.26364 5.87527 5.25742 5.85661 5.2584 5.83761V5.80276C5.2584 5.7982 5.25931 5.79366 5.26106 5.78943C5.2628 5.7852 5.26538 5.78137 5.2686 5.77813C5.27184 5.77489 5.27569 5.77233 5.27992 5.77057C5.28414 5.76882 5.28867 5.76792 5.29325 5.76792C6.2631 5.77373 7.1981 6.45902 7.72659 7.26626C7.74402 7.2895 7.76725 7.31273 7.8021 7.32434L8.17958 7.46952C8.26669 7.50437 8.28412 7.48113 8.22603 7.39983C7.86016 6.93524 7.47106 6.48225 7.06453 6.05249C7.04131 6.02345 7.0355 5.99442 7.06453 5.95376L7.08776 5.93054C7.09264 5.92544 7.09851 5.92139 7.105 5.91861C7.11148 5.91585 7.11846 5.91441 7.12551 5.91441C7.13258 5.91441 7.13955 5.91585 7.14604 5.91861C7.15252 5.92139 7.15839 5.92544 7.16327 5.93054C7.91825 6.66809 8.84744 7.75409 9.31205 8.80526C9.32366 8.84591 9.32947 8.88075 9.31205 8.9214C9.28563 8.99606 9.2816 9.07681 9.30043 9.15365C9.55383 10.211 9.7036 11.2905 9.74761 12.3769C9.74761 12.3886 9.75922 12.3943 9.76503 12.4002C9.77664 12.409 9.79115 12.413 9.80569 12.4117L9.85214 12.4058C9.86375 12.4058 9.87537 12.3886 9.87537 12.3769C9.91022 11.622 9.87537 10.8669 9.76503 10.1236C9.76503 10.083 9.77665 10.0655 9.8231 10.0597H9.88699L9.89861 10.0887C10.0148 10.6985 10.0612 11.3082 10.0496 11.9355L10.0961 12.5628C10.0973 12.5795 10.0942 12.5962 10.0871 12.6116C10.0799 12.6267 10.069 12.64 10.0554 12.6498C10.0418 12.6588 10.026 12.6642 10.0097 12.6652C9.99341 12.6661 9.97712 12.6629 9.96248 12.6556C9.89458 12.6216 9.82054 12.6015 9.74474 12.5966C9.66893 12.5915 9.5929 12.6017 9.52112 12.6266C9.39916 12.6672 9.3643 12.6266 9.41657 12.4988C9.41657 12.4872 9.44562 12.4757 9.48626 12.4524C9.50081 12.4441 9.51285 12.432 9.52112 12.4175C9.53207 12.4022 9.53815 12.3841 9.53853 12.3652L9.51531 11.8426C9.44445 11.0169 9.33398 10.1952 9.18429 9.38022C9.15524 9.22343 9.2017 9.01435 9.12621 8.87495C8.89391 8.46841 8.6616 7.8296 8.18539 7.6786C7.75563 7.55082 6.8845 7.33015 6.61736 7.03396C6.40248 6.79585 6.21083 6.60421 5.8798 6.53451C5.42682 6.44159 4.49761 6.55194 4.78799 5.6808C4.81122 5.62274 4.78799 5.58789 4.72412 5.58789C4.17239 5.5937 3.82976 4.94906 4.12594 4.48447C4.55569 3.79917 5.63588 3.97921 6.46636 4.07793C7.08776 4.14763 7.86016 3.9734 8.40026 3.56687C8.5745 3.43911 8.74872 3.2823 8.95198 3.22424C9.75342 3.00935 10.2529 3.67722 10.915 3.9676C11.5596 4.24636 12.2391 4.31605 12.9476 4.16505C12.9812 4.15667 13.0114 4.13847 13.0347 4.11278C13.4296 3.69465 14.0801 3.88048 14.5562 4.01986C14.9628 4.14762 15.7641 3.69465 16.2113 3.52622C17.3845 3.07904 18.8247 3.16616 19.7773 4.06052C20.0791 4.35088 20.0269 4.91422 19.5449 4.95488C19.5264 4.95542 19.5084 4.96115 19.4929 4.9714C19.4776 4.98168 19.4654 4.99607 19.4578 5.01294C19.0861 5.67501 19.1383 6.23253 19.6146 6.69712C19.8004 6.88297 19.9107 7.01654 19.9398 7.09203C20.1025 7.54503 19.6088 7.88186 19.1964 7.88766C18.8422 7.88766 18.5343 7.93413 18.2789 8.02705C17.8723 8.16643 17.7329 8.58457 17.5528 8.96787C17.2184 9.63985 17.0379 10.3779 17.0244 11.1283C17.0233 11.1456 17.0277 11.1628 17.0371 11.1775C17.0466 11.1921 17.0604 11.2033 17.0767 11.2095C17.5587 11.3839 17.7678 11.7381 17.7039 12.2782C17.7039 12.3246 17.7098 12.3595 17.7329 12.3943C18.3892 13.4222 18.0813 14.5256 17.0708 15.1471C17.0552 15.1555 17.0418 15.1681 17.0327 15.1834C17.0234 15.1987 17.0187 15.2163 17.0187 15.2342C17.0187 16.024 17.0129 17.2436 16.9896 18.8929C16.9896 19.3377 16.8945 19.7773 16.7108 20.1821H16.7049Z" fill="#3C2718"/>
<path d="M13.3028 4.20204C13.4306 4.30659 13.6048 4.34142 13.8196 4.30659C13.8283 4.30552 13.8365 4.3023 13.8437 4.29724C13.8507 4.29217 13.8565 4.28539 13.8603 4.27754C13.8643 4.26944 13.8665 4.26049 13.8665 4.2514C13.8665 4.24233 13.8643 4.23339 13.8603 4.22528L13.8022 4.13236C14.1333 4.12073 14.4586 4.26593 14.7373 4.26012C15.5155 4.24269 16.1717 3.67937 16.9557 3.56323L16.915 3.6329C16.9267 3.64453 16.9499 3.65614 16.9847 3.66195C17.0196 3.67358 17.0603 3.67937 17.101 3.67937L18.3205 3.73745C18.3495 3.73745 18.3669 3.72583 18.3669 3.6968C18.3669 3.66195 18.3495 3.63872 18.303 3.59807C18.4192 3.58646 18.5238 3.61549 18.5993 3.68519C18.4481 3.7781 18.4832 3.8536 18.7154 3.91748C18.7274 3.91848 18.7397 3.91564 18.7499 3.90939C18.7604 3.90315 18.7687 3.89379 18.7734 3.88264C18.7799 3.8742 18.784 3.86415 18.785 3.85359C18.7773 3.80487 18.7574 3.75888 18.7271 3.72003C18.9825 3.78971 19.7897 4.15559 19.7491 4.50985C19.7317 4.65503 19.6329 4.71891 19.453 4.7015C19.4413 4.66085 19.4065 4.64342 19.36 4.64342C19.5808 4.59116 19.6329 4.49823 19.5168 4.36466C19.5049 4.34961 19.49 4.3372 19.4729 4.3282C19.456 4.3192 19.4372 4.31383 19.4181 4.31238C19.3988 4.31156 19.3795 4.31474 19.3615 4.32174C19.3436 4.32874 19.3272 4.3394 19.3136 4.35304L18.8722 4.79442C18.8606 4.80694 18.8458 4.81581 18.8292 4.81995C18.8127 4.82408 18.7954 4.82327 18.7792 4.81764C18.5759 4.75376 18.3727 4.71312 18.1636 4.69568C17.8617 4.66665 17.6701 4.58534 17.7339 4.2369C17.7398 4.19042 17.7222 4.16139 17.6816 4.13817C17.6583 4.12668 17.6319 4.12263 17.6061 4.12655C17.5771 4.12655 17.5482 4.14397 17.5365 4.17302L17.519 4.21947C17.5123 4.23474 17.5019 4.24806 17.4887 4.25821C17.4755 4.26837 17.46 4.27501 17.4436 4.27754C17.3158 4.30659 17.1879 4.33562 17.0603 4.37628C16.6304 4.49243 16.3575 4.86411 15.9394 4.99768C15.0218 5.28805 14.3539 4.86991 13.4712 4.83507C13.437 4.83525 13.4039 4.82284 13.3783 4.80022C13.3071 4.72909 13.2483 4.64667 13.204 4.55631C13.1977 4.54208 13.1869 4.53036 13.1733 4.52299C13.1596 4.51564 13.1438 4.51305 13.1285 4.51565H13.0937C13.0878 4.5163 13.0814 4.51846 13.0763 4.52146C13.0714 4.52447 13.0679 4.52825 13.0647 4.53307C13.0612 4.53808 13.0588 4.54381 13.0578 4.54984C13.0569 4.55586 13.0571 4.56205 13.0589 4.56792L13.175 4.94542C13.204 5.03252 13.1808 5.10802 13.117 5.17771C12.7685 5.52035 12.3736 5.67716 11.9206 5.65973C11.5141 5.63651 11.0844 5.34031 10.6487 5.20674C10.6487 5.11383 10.6197 5.06738 10.5559 5.05576C10.4978 5.04995 10.4512 5.05576 10.4223 5.08478C10.4048 4.81764 10.1145 4.80022 9.92862 4.75957C9.40013 4.64342 9.40594 3.98136 8.79615 4.10332C8.62192 4.13817 8.45352 4.17302 8.28508 4.21947C8.18636 4.2369 8.15152 4.29498 8.16895 4.39369C8.16895 4.42855 8.16895 4.46338 8.15152 4.49823C7.83791 5.07899 7.22231 4.89315 6.58349 4.76537C6.43829 4.73634 6.23503 4.76537 5.95628 4.84669C5.81689 4.88733 5.6659 4.97445 5.5091 5.09641C5.10837 5.42164 4.64959 5.57843 4.27209 5.09641C4.25035 5.07025 4.23807 5.0375 4.23726 5.00348C4.22564 4.42273 4.71928 4.20786 5.20711 4.28335C5.03288 4.33562 4.87609 4.40531 4.7367 4.50404C4.72509 4.51565 4.71928 4.52146 4.72508 4.53889L4.7425 4.57373C4.7425 4.59116 4.75993 4.59695 4.77154 4.59116C5.08432 4.48107 5.41928 4.44915 5.7472 4.49823C5.81689 4.50985 5.86336 4.49823 5.8982 4.48081C5.94467 4.44016 5.95628 4.38208 5.93306 4.30077C6.85064 4.24269 7.9076 4.42273 8.67419 3.6329C8.85423 3.44707 9.23753 3.42384 9.48144 3.45868C9.96346 3.53999 10.5442 4.09751 10.916 4.26012C11.0321 4.30659 11.3457 4.37628 11.8451 4.46338C12.118 4.50985 12.4201 4.49243 12.7511 4.41111C12.8439 4.39369 12.8846 4.41111 12.9659 4.44596C12.995 4.46338 13.024 4.45758 13.0472 4.42273C13.1285 4.3182 13.2098 4.24269 13.3028 4.20204Z" fill="#614B3A"/>
<path d="M18.3023 3.59692C18.3488 3.63175 18.3662 3.66079 18.3662 3.69565C18.3662 3.72468 18.3488 3.7363 18.3198 3.7363L17.1002 3.67822C17.0596 3.67822 17.0189 3.67242 16.984 3.66079C16.9588 3.65694 16.935 3.64697 16.9143 3.63175L16.9549 3.56207C17.4006 3.46719 17.8622 3.47913 18.3023 3.59692ZM9.09742 3.56207C9.41102 3.69565 9.79433 3.63756 10.0266 3.84083C10.3577 4.13121 10.6771 4.2822 10.9965 4.30544C11.0255 4.31123 11.043 4.32866 11.0372 4.36351V4.39835C11.0355 4.41164 11.0293 4.42394 11.0197 4.43319C11.0119 4.44175 11.0018 4.44783 10.9907 4.45062C10.7816 4.5087 10.2589 4.60741 10.0324 4.39254C10.0036 4.36862 9.98321 4.33603 9.97435 4.29962C9.96449 4.25181 9.94361 4.20698 9.91336 4.16866C9.88311 4.13034 9.84435 4.09963 9.80013 4.07893C9.55027 3.94957 9.29859 3.82372 9.04515 3.70144C9.0103 3.68983 8.99869 3.66079 9.01612 3.62014L9.03354 3.59111C9.03936 3.57821 9.04968 3.56789 9.06258 3.56207H9.09742ZM18.5986 3.68403C18.6914 3.72468 18.732 3.7421 18.732 3.71887C18.767 3.77695 18.7843 3.81761 18.7843 3.85244C18.7843 3.86147 18.7823 3.87036 18.7782 3.87842C18.7742 3.88648 18.7683 3.8935 18.7612 3.89891C18.754 3.90489 18.7455 3.90907 18.7364 3.91109C18.7273 3.91312 18.7178 3.91292 18.7088 3.91052C18.4825 3.85244 18.4474 3.77695 18.5986 3.67822V3.68403ZM13.8015 4.13121L13.8596 4.22413C13.8647 4.23295 13.8674 4.24296 13.8674 4.25317C13.8674 4.26336 13.8647 4.27338 13.8596 4.2822C13.8551 4.28897 13.8491 4.29459 13.842 4.29861C13.8349 4.30266 13.827 4.30499 13.8189 4.30544C13.6041 4.34027 13.4299 4.30544 13.3021 4.20089C13.424 4.06152 13.5924 4.03828 13.7958 4.13121H13.8015ZM5.20639 4.27639L5.93234 4.29962C5.95556 4.38093 5.94395 4.43901 5.89748 4.47384C5.86264 4.50289 5.81617 4.5087 5.74648 4.49708C5.41856 4.448 5.0836 4.47992 4.77082 4.59C4.75921 4.59 4.7476 4.59 4.74178 4.57258L4.72437 4.53774C4.72437 4.52031 4.72437 4.5145 4.73599 4.50289C4.87537 4.40415 5.02635 4.32866 5.20639 4.2822V4.27639Z" fill="#807352"/>
<path d="M11.8269 6.36107L10.9559 6.51207L10.7991 5.73967C10.7874 5.68741 10.7584 5.66417 10.7061 5.66998H10.6713C10.6422 5.66998 10.6249 5.69321 10.6365 5.72224C10.8223 6.55273 10.9501 7.37158 11.0255 8.19045C11.0372 8.28918 11.0836 8.32982 11.165 8.30658V8.42275L11.1417 8.45178C11.1299 8.46253 11.1217 8.47676 11.1185 8.49244C11.0603 9.09061 11.1881 9.61327 11.5017 10.0604C11.4495 10.1359 11.3391 10.1418 11.1707 10.0721C11.0603 9.96749 10.9384 9.99079 10.834 9.90949C10.5087 9.64227 10.5609 8.32982 10.3635 7.65616C10.3596 7.64391 10.3519 7.63328 10.3413 7.62594C10.3308 7.61858 10.3182 7.61491 10.3054 7.61551H10.2705C10.2125 7.62712 10.1892 7.66196 10.1951 7.71423L10.5435 9.90367C10.5319 9.90367 10.5145 9.90367 10.4854 9.92683C10.4574 9.95042 10.4387 9.98347 10.4332 10.0198L10.1428 11.6459C10.0847 11.704 10.0789 11.8027 10.1079 11.9363H10.0499C10.059 11.3091 10.0045 10.6825 9.88725 10.0663C9.88365 10.0622 9.87915 10.0591 9.87411 10.0571C9.86907 10.055 9.86362 10.0542 9.85822 10.0546H9.81756C9.77691 10.0604 9.75948 10.0838 9.76529 10.1244C9.88144 10.8677 9.91048 11.6169 9.87564 12.3776C9.87564 12.3893 9.86401 12.4009 9.8524 12.4066H9.80595C9.79913 12.4085 9.79201 12.409 9.78503 12.408C9.77804 12.4069 9.77132 12.4046 9.76529 12.4009C9.75807 12.3955 9.75222 12.3885 9.74819 12.3803C9.74416 12.3723 9.74205 12.3634 9.74205 12.3545C9.69998 11.2781 9.55412 10.2085 9.30651 9.16027C9.28767 9.08343 9.29169 9.00266 9.31812 8.928C9.33209 8.88814 9.33002 8.8444 9.3123 8.80604C8.76652 7.72345 8.03329 6.74592 7.14631 5.9194C7.13982 5.91663 7.13284 5.91519 7.12578 5.91519C7.11871 5.91519 7.11174 5.91663 7.10526 5.9194C7.09877 5.92218 7.0929 5.92623 7.08802 5.93132L7.0648 5.95455C7.03576 5.9894 7.04157 6.02424 7.0648 6.05328C7.47133 6.48303 7.86043 6.93602 8.2263 7.40061C8.28437 7.48193 8.26695 7.50516 8.17985 7.47031L7.80236 7.32512C7.77177 7.31407 7.74539 7.29377 7.72685 7.26704C7.20418 6.454 6.26336 5.77451 5.29351 5.76872C5.28427 5.76872 5.27541 5.77239 5.26886 5.77891C5.26233 5.78545 5.25866 5.79431 5.25866 5.80355V5.83841C5.25866 5.86163 5.25866 5.87906 5.27608 5.89647L5.32255 5.91971C6.14722 6.03586 6.8325 6.41334 7.36679 7.06959C7.44228 7.16252 7.42486 7.18574 7.31453 7.1509C6.98268 7.03246 6.6895 6.82564 6.46662 6.55273C6.22271 6.27397 5.49677 6.26816 5.11929 6.19267C5.08544 6.186 5.05362 6.1715 5.02638 6.15032C4.99915 6.12914 4.97726 6.10188 4.96248 6.07071C4.94747 6.03892 4.9397 6.00421 4.9397 5.96906C4.9397 5.93392 4.94747 5.89922 4.96248 5.86743L5.04378 5.6816C5.05539 5.64676 5.07863 5.62352 5.11347 5.60028L5.58388 5.34476C5.61903 5.32456 5.65982 5.3164 5.70004 5.32153C6.1299 5.35796 6.53306 5.54515 6.83831 5.85002C6.84813 5.85346 6.85872 5.8542 6.86893 5.85217C6.87915 5.85013 6.88864 5.84537 6.89638 5.83841C6.90469 5.83046 6.91072 5.82043 6.9138 5.80936L6.92541 5.76872C6.93085 5.75122 6.93099 5.73251 6.92582 5.71495C6.92064 5.69739 6.91041 5.68174 6.89638 5.66998C6.66034 5.45392 6.37534 5.29847 6.06592 5.21699C5.94396 5.18215 5.94396 5.15892 6.06592 5.12407C6.42803 5.04143 6.80272 5.02959 7.16933 5.08923C7.6804 5.17054 8.06368 5.10666 8.32503 4.65948C8.49345 4.37491 8.72574 4.27037 9.02194 4.33426C9.06044 4.34193 9.09523 4.36239 9.12066 4.39232C9.39942 4.73497 9.5446 4.9905 10.0673 5.01372C10.0905 5.01372 10.1021 5.01954 10.1196 5.03115L10.1486 5.07762C10.2357 5.33315 10.3635 5.42607 10.6365 5.47253C11.0836 5.55384 11.3739 5.85002 11.8386 5.89067C11.8792 5.89067 11.8967 5.9139 11.8909 5.95455L11.8211 6.36107H11.8269ZM19.3593 4.64206C19.4058 4.64206 19.4406 4.65948 19.4523 4.70013C19.1721 5.02359 19.012 5.43386 18.9993 5.86163C18.9993 5.89647 18.9818 5.91971 18.9411 5.91971L18.2152 5.97198C18.1107 5.7469 17.9407 5.55864 17.7274 5.43188C17.6577 5.30992 17.5938 5.26927 17.53 5.30992C17.1582 5.01954 16.6066 5.4551 16.2522 5.62352C15.9214 5.78033 15.6251 5.81517 15.3464 5.72806C15.5786 5.47253 15.7529 5.32153 15.869 5.28088C16.1594 5.17635 16.473 4.9905 16.8213 4.73497C16.9898 4.6072 17.1989 4.54332 17.4545 4.53752C17.4951 4.53752 17.53 4.56075 17.5474 4.59559C17.6519 4.8337 17.8377 4.94405 18.1107 4.91501C18.1222 4.91501 18.1281 4.915 18.1398 4.92662C18.1455 4.92662 18.1572 4.93824 18.1572 4.94985V4.9847L18.1339 5.00793L17.8319 5.17054C17.8199 5.17488 17.8098 5.18305 17.8029 5.19377C17.7994 5.20511 17.7994 5.21728 17.8029 5.22862L17.8145 5.26346C17.8176 5.27756 17.8259 5.28998 17.8377 5.29829C17.8442 5.30102 17.8511 5.30241 17.858 5.30241C17.8651 5.30241 17.872 5.30102 17.8783 5.29829C18.0759 5.24023 18.25 5.14731 18.4012 5.01372C18.4301 4.9905 18.465 4.97889 18.5056 4.9905C18.7205 5.03696 18.9005 5.14731 19.0864 4.93824C19.2142 4.78144 19.307 4.68851 19.3593 4.64785V4.64206Z" fill="#A0A782"/>
<path d="M10.2006 7.49348C10.1426 7.52253 10.1135 7.4993 10.1019 7.43542C9.93004 6.47841 9.5318 5.57641 8.94043 4.80462L8.95205 4.78718L8.96366 4.77557L8.9927 4.75235C9.00594 4.74277 9.02236 4.73863 9.03856 4.74079C9.05477 4.74296 9.06954 4.75125 9.07981 4.76396C9.70957 5.53856 10.1224 6.46645 10.2762 7.45284C10.2693 7.46356 10.2591 7.47172 10.2471 7.47607L10.2006 7.49348Z" fill="#3C2718"/>
<path d="M12.9147 6.34952H12.0029L12.0435 5.96041C12.0435 5.92556 12.0667 5.90234 12.1017 5.90234C12.5314 5.86168 13.24 5.58873 13.4258 5.11252C13.4314 5.09875 13.4412 5.087 13.4535 5.07873C13.466 5.07047 13.4805 5.06606 13.4954 5.06606L13.7161 5.05444C13.7277 5.05444 13.7335 5.05443 13.7451 5.06606C13.7521 5.07136 13.7574 5.07854 13.7606 5.08677C13.7637 5.09499 13.7644 5.10392 13.7626 5.11252C13.7626 5.12413 13.751 5.12994 13.7451 5.13576C13.3556 5.45044 13.0669 5.87243 12.9147 6.34952ZM14.9763 5.84426L14.2156 5.75134C13.7335 5.69326 13.6232 6.30305 13.1237 6.2566C13.2921 5.80942 13.5709 5.44355 13.9601 5.16477C13.9743 5.15282 13.9915 5.1449 14.0099 5.14183C14.0284 5.13877 14.0472 5.14068 14.0645 5.14737C14.5117 5.29255 14.9763 5.35643 15.4467 5.33901C15.5048 5.33901 15.5107 5.35063 15.47 5.39708L14.9763 5.84426Z" fill="#A0A782"/>
<path d="M17.5362 5.31221C16.1192 5.81746 15.0216 6.52017 14.3072 7.91399C13.9704 8.57022 13.5406 9.22652 13.8716 9.87696C13.876 9.88631 13.8822 9.89472 13.8898 9.90162C13.8975 9.90853 13.9066 9.91368 13.9164 9.91694C13.9261 9.92032 13.9365 9.92155 13.9469 9.92059C13.9571 9.91965 13.967 9.91667 13.9761 9.91179L14.0111 9.8943C14.0226 9.8943 14.0284 9.88279 14.0343 9.87113V9.83631C13.7265 9.11608 14.3072 8.25662 14.6905 7.63521C15.3765 6.53172 16.4664 5.73984 17.7278 5.42836C17.9021 5.52128 18.0646 5.70132 18.2157 5.97427C17.4464 6.0939 16.7158 6.39276 16.0834 6.84673C15.4508 7.30071 14.9339 7.89706 14.5744 8.58765C14.4291 8.85479 14.3129 9.16256 14.2317 9.51109C14.2269 9.53263 14.2276 9.55513 14.2337 9.57641C14.2398 9.59767 14.251 9.61719 14.2665 9.63305C14.2815 9.64795 14.3 9.65906 14.3201 9.66503C14.3405 9.67112 14.3619 9.67207 14.3826 9.66787L14.4118 9.66205C14.4408 9.65621 14.4525 9.63887 14.4525 9.60973C14.4525 9.37165 14.5337 9.08708 14.6905 8.76187C15.0236 8.05659 15.5292 7.44679 16.1606 6.98894C16.7921 6.53109 17.5289 6.24002 18.3028 6.14269C18.2621 6.29368 18.2505 6.43307 18.2796 6.54921C17.8962 6.6944 17.5129 6.82797 17.1296 6.95573C16.2412 7.26354 15.6604 7.89075 15.0389 8.72122C14.8881 8.96156 14.7819 9.22719 14.7254 9.50526C14.7272 9.51366 14.7308 9.52152 14.7358 9.52857C14.7407 9.53548 14.747 9.54144 14.7543 9.54591C14.7611 9.55147 14.7691 9.5554 14.7777 9.55757L14.8066 9.56325C14.8531 9.56909 14.8763 9.55174 14.8879 9.50526C15.0698 8.8544 15.4494 8.27608 15.9739 7.85009C16.5723 7.31878 17.3024 6.95777 18.0879 6.80473C18.1227 6.84539 18.0995 6.97897 18.0123 7.20547C16.8953 7.4985 15.9143 8.16959 15.2363 9.10456L15.2538 9.13938L15.277 9.16256C15.2839 9.1692 15.2921 9.17422 15.3012 9.1772C15.3102 9.18017 15.3199 9.18126 15.3293 9.18004C15.3352 9.18004 15.3468 9.18004 15.3526 9.16838C16.0341 8.25694 17.0184 7.61855 18.1285 7.36807C18.175 7.41454 18.1924 7.4668 18.1866 7.5423L17.7394 7.71072C16.9452 7.98208 16.2458 8.47595 15.7242 9.13356C15.7068 9.15674 15.7126 9.18004 15.73 9.20322L15.7649 9.23234C15.7939 9.26134 15.823 9.26134 15.8461 9.23234C16.33 8.62117 16.9821 8.16494 17.722 7.91978C17.7336 7.96625 17.7336 7.99529 17.722 8.02432C17.4142 8.22178 16.7638 8.547 16.5779 8.83736C16.5728 8.84605 16.5696 8.85574 16.5686 8.86577C16.5677 8.8758 16.5688 8.88592 16.5722 8.89544C16.5722 8.90126 16.5722 8.91287 16.5837 8.91868C16.5899 8.92635 16.598 8.93236 16.6071 8.9361C16.6535 8.95353 16.6998 8.9361 16.7463 8.89544C16.9816 8.66803 17.2574 8.48679 17.5593 8.36116C17.5885 8.34374 17.6 8.36116 17.5942 8.396C17.5652 8.52377 17.5245 8.60508 17.4781 8.63991C17.118 8.87222 16.6998 9.08708 16.4618 9.47044C16.4444 9.49943 16.4503 9.52843 16.4851 9.54009L16.5198 9.55174C16.5372 9.55757 16.5547 9.56326 16.5722 9.55174C16.5837 9.55174 16.6012 9.54009 16.6071 9.52843C16.7696 9.29034 16.9728 9.09874 17.2168 8.96514C17.3096 8.91287 17.333 8.9361 17.2864 9.02908C16.9676 9.70432 16.8049 10.4427 16.8103 11.1894C16.8103 11.2068 16.8044 11.2185 16.7928 11.2358C16.7824 11.2481 16.768 11.2563 16.7521 11.2591C16.7226 11.2626 16.6943 11.2736 16.6701 11.2908C16.6457 11.3081 16.626 11.3311 16.6128 11.3578C16.6096 11.3653 16.6084 11.3736 16.6095 11.3818C16.6104 11.39 16.6136 11.3977 16.6185 11.4043C16.623 11.4108 16.6291 11.4159 16.6363 11.4191C16.6436 11.4221 16.6514 11.423 16.6592 11.4218C17.1587 11.3404 17.4374 11.5553 17.5014 12.0606C17.5014 12.1012 17.5014 12.1418 17.4898 12.1767L17.4432 12.2928C17.4363 12.3118 17.4338 12.3321 17.4357 12.3523C17.4376 12.3723 17.4443 12.3917 17.4549 12.409L17.664 12.7575C17.4665 12.711 17.333 12.8098 17.2633 13.0479C17.0135 12.7285 16.5779 12.7458 16.2295 12.8446C16.2171 12.8479 16.2056 12.8537 16.1956 12.8616C16.1855 12.8696 16.1773 12.8797 16.1713 12.8911C16.1614 12.9152 16.1614 12.9423 16.1713 12.9666L16.3456 13.4544C16.3514 13.4776 16.3456 13.4893 16.3224 13.4776C16.2297 13.4296 16.1324 13.3907 16.0321 13.3614C15.9739 13.3497 15.9333 13.3904 15.9043 13.495C15.5848 14.0002 15.2015 14.2964 14.7543 14.3777C14.1852 14.4881 13.5929 14.3894 12.9889 14.0874C12.6986 13.9538 12.6404 13.7796 12.4198 13.6112C13.1573 12.7806 14.1737 12.3335 15.2363 12.8039C15.4106 12.8795 15.5384 13.0362 15.6952 13.1524C15.7056 13.1585 15.7172 13.1621 15.7293 13.1632C15.7414 13.1641 15.7536 13.1625 15.7649 13.1582C15.7765 13.1548 15.7872 13.1488 15.7963 13.1408C15.8054 13.1328 15.8124 13.1228 15.8171 13.1117C15.8288 13.0827 15.8171 13.0537 15.7939 13.0187C15.6835 12.8795 15.5615 12.7575 15.4223 12.6587C15.3902 12.6364 15.3641 12.6065 15.3468 12.5715C15.0389 11.9792 14.5975 12.0895 14.0923 12.3568C14.0111 12.3975 13.9239 12.4264 13.8368 12.4496C13.2851 12.5832 12.8088 12.8561 12.4081 13.2626C12.385 13.2859 12.35 13.2918 12.3268 13.2743C11.9779 13.0371 11.573 12.8951 11.1522 12.8625C10.7316 12.8299 10.3097 12.9077 9.92833 13.0885C9.90769 13.0977 9.89117 13.1143 9.88187 13.135C9.87479 13.1556 9.87479 13.1781 9.88187 13.1988L9.89348 13.2336C9.90509 13.2626 9.92252 13.2743 9.95156 13.2626C10.4162 13.0652 10.8808 13.0187 11.3512 13.1175C11.6125 13.1757 11.8854 13.3208 12.1526 13.4311C12.1874 13.4427 12.199 13.4717 12.1759 13.5009L11.868 13.948C11.0434 14.2964 10.4162 14.4415 9.50438 14.099C9.48116 14.0584 9.48695 14.0467 9.51599 14.0757C9.65537 13.8144 9.66118 13.5647 9.53342 13.3325C9.52041 13.3103 9.49974 13.2938 9.47534 13.2859C9.46266 13.2824 9.44936 13.2816 9.43634 13.2837C9.42333 13.2857 9.4109 13.2904 9.39985 13.2976L9.36499 13.3208C9.2895 13.3673 9.27789 13.4311 9.31854 13.5065C9.40565 13.6577 9.38823 13.7796 9.27208 13.8783C9.10366 13.7796 9.09785 13.5879 8.98171 13.4369C8.96744 13.4213 8.95649 13.4029 8.94951 13.383C8.94251 13.3631 8.93964 13.3419 8.94106 13.3208C8.95846 13.0594 8.88878 12.9026 8.73779 12.8561C8.86555 12.4903 9.08624 12.1767 9.39404 11.9096C9.39404 11.8573 9.4405 11.8341 9.51019 11.8456L9.53922 12.3683L9.5218 12.4264C9.51277 12.4389 9.50079 12.4488 9.48695 12.4554C9.4463 12.4787 9.42307 12.4903 9.41726 12.5019C9.3592 12.6297 9.39985 12.6704 9.5218 12.6297C9.66699 12.5774 9.81218 12.589 9.96317 12.6587C9.97781 12.666 9.99409 12.6693 10.0104 12.6683C10.027 12.6671 10.0437 12.6611 10.0574 12.6516C10.071 12.6422 10.0808 12.6297 10.0877 12.6147C10.0949 12.5993 10.0979 12.5825 10.0967 12.5659L10.0503 11.9386H10.1084C10.1664 12.0837 10.2535 12.2 10.3755 12.287C10.4046 12.3102 10.4335 12.3045 10.4568 12.2755C10.4685 12.258 10.4685 12.2348 10.4568 12.2174C10.3174 12.0257 10.2129 11.8341 10.1432 11.654L10.4335 10.0221C10.4406 9.98496 10.4613 9.95176 10.4917 9.92913C10.515 9.91179 10.5323 9.90013 10.5497 9.90596C10.8169 10.2137 11.026 10.266 11.1711 10.0802C11.3453 10.1382 11.45 10.1382 11.5021 10.0627C11.5951 10.1382 11.6764 10.1674 11.7345 10.1382C11.746 10.1382 11.7577 10.1267 11.7635 10.115C11.7715 10.1043 11.7767 10.0919 11.7787 10.0787C11.7808 10.0656 11.7795 10.052 11.7752 10.0396C11.7706 10.026 11.7626 10.0141 11.7519 10.0047C11.3453 9.67369 11.3047 9.08126 11.264 8.58765C11.2582 8.50634 11.2233 8.45408 11.1654 8.42504V8.30888C11.1793 8.29945 11.1906 8.28635 11.1978 8.27099C11.205 8.25565 11.2078 8.23862 11.2061 8.22178C11.1538 7.68168 11.0724 7.11254 10.9563 6.51437L11.8274 6.36337C11.717 7.35065 11.6241 8.36116 11.7577 9.34848C11.7983 9.65621 11.9435 9.90013 12.1874 10.0744C12.292 10.1499 12.3617 10.1847 12.385 10.1789C12.6462 10.1092 12.6462 10.0454 12.385 9.98144C11.6299 9.79565 11.9203 6.9209 12.0016 6.34595L12.9134 6.35176C12.7348 7.0191 12.6183 7.70145 12.5649 8.3902C12.5676 8.39675 12.5716 8.4027 12.5764 8.40769C12.5815 8.41267 12.5874 8.4166 12.5939 8.41922L12.6114 8.42504H12.6695C12.7102 8.42504 12.7276 8.40182 12.7392 8.35535C12.8611 7.31581 12.9889 6.6131 13.1224 6.26464C13.6219 6.30529 13.7322 5.70132 14.2143 5.75358L14.9693 5.8465C14.0807 6.93251 13.349 8.0127 13.0934 9.37165C13.0876 9.41813 13.105 9.43561 13.1457 9.43561H13.1747C13.198 9.43561 13.2212 9.42396 13.2329 9.4123C13.2509 9.39767 13.2632 9.37707 13.2677 9.3543C13.4999 8.16951 14.0343 7.36807 14.6788 6.47952C14.8706 6.20389 15.0948 5.95236 15.3468 5.73036C15.6255 5.81746 15.9274 5.78262 16.2527 5.62581C16.6071 5.45159 17.1645 5.01603 17.5303 5.31221H17.5362Z" fill="#DFCA9F"/>
<path d="M9.91651 9.13665C9.66097 7.81833 9.35899 6.29095 8.34847 5.33852C8.34277 5.33212 8.3396 5.32386 8.3396 5.31528C8.3396 5.30672 8.34277 5.29844 8.34847 5.29205L8.3659 5.26302C8.39494 5.23398 8.42398 5.22818 8.45881 5.26302C8.86746 5.61671 9.18597 6.06264 9.38802 6.5639C9.69582 7.31888 9.88748 7.92866 9.96296 8.39327C10.0733 9.04952 10.143 9.49087 10.3463 9.88574C10.416 10.0252 10.3811 10.06 10.2417 9.99036C10.2127 9.9787 10.1837 9.9207 10.143 9.82774C10.0501 9.59549 9.96878 9.38639 9.91651 9.13082V9.13665ZM17.7276 5.43144C16.4671 5.74149 15.3774 6.53119 14.6903 7.63248C14.307 8.25388 13.7263 9.11334 14.034 9.8394C14.0366 9.84943 14.0357 9.86 14.0315 9.86948C14.0272 9.87897 14.0199 9.88669 14.0109 9.89157L13.9759 9.90906C13.9668 9.91393 13.9569 9.91691 13.9466 9.91786C13.9363 9.91881 13.9259 9.91759 13.9162 9.9142C13.9064 9.91095 13.8973 9.9058 13.8896 9.89888C13.882 9.89198 13.8758 9.88357 13.8714 9.87422C13.5404 9.22378 13.9702 8.56749 14.307 7.91125C15.0214 6.51743 16.119 5.82054 17.5301 5.30949C17.594 5.26883 17.658 5.30948 17.7276 5.42562V5.43144Z" fill="#3C2718"/>
<path d="M9.68486 9.66027C9.36746 8.1163 8.59236 6.70373 7.46058 5.60662C7.44315 5.5892 7.44315 5.56598 7.46058 5.54855L7.478 5.5079C7.48961 5.48467 7.50703 5.47886 7.53027 5.5021C8.564 6.47776 9.77777 8.23162 9.85326 9.71841V9.74158L9.83586 9.75906C9.8304 9.76164 9.82445 9.76285 9.81842 9.76285C9.8124 9.76285 9.80645 9.76164 9.801 9.75906L9.76035 9.74741C9.74127 9.74063 9.72427 9.72911 9.71103 9.7138C9.69779 9.69862 9.68878 9.68005 9.68486 9.66027ZM10.9567 6.5126C11.0729 7.11077 11.1542 7.67991 11.2065 8.22001C11.2065 8.26066 11.1949 8.2897 11.1658 8.31292C11.0845 8.33035 11.0381 8.2897 11.0264 8.19678C10.9491 7.36473 10.8191 6.53842 10.6374 5.72277C10.6257 5.69373 10.6374 5.67632 10.6722 5.67051H10.707C10.7593 5.67051 10.7883 5.68794 10.7999 5.7402L10.9567 6.5126Z" fill="#3C2718"/>
<path d="M18.0125 7.20514C18.0996 6.97284 18.1227 6.84508 18.088 6.81024L18.5526 6.66505C18.5643 6.66505 18.5816 6.65343 18.5874 6.64182C18.5962 6.62801 18.6003 6.6117 18.599 6.59536V6.54889C18.5977 6.54181 18.595 6.53505 18.5911 6.52904C18.587 6.52305 18.5818 6.51795 18.5757 6.51406C18.5702 6.5094 18.5637 6.50595 18.5566 6.50394C18.5497 6.50195 18.5423 6.50144 18.5351 6.50244L18.2797 6.5547C18.2505 6.43274 18.2564 6.29337 18.3028 6.14236L18.9474 6.11914C18.994 6.11914 19.0171 6.14236 19.0287 6.17722C19.0869 6.49083 19.2495 6.72893 19.4934 6.90315C19.5514 6.938 19.5514 6.96123 19.4817 6.97284L18.0125 7.20514Z" fill="#A0A782"/>
<path d="M18.0889 6.80854C17.304 6.95988 16.5739 7.31886 15.9749 7.84808C15.4504 8.27406 15.0708 8.85239 14.8889 9.50325C14.8773 9.54973 14.8541 9.56707 14.8076 9.56124H14.7787C14.7696 9.55922 14.761 9.55488 14.754 9.54878C14.7469 9.54282 14.7401 9.53509 14.7367 9.52655C14.731 9.5191 14.7283 9.51057 14.7263 9.50162C14.7244 9.49254 14.7244 9.48319 14.7263 9.47425C14.8251 9.12572 14.9296 8.8702 15.0399 8.7192C15.6614 7.88873 16.2421 7.26733 17.1306 6.95953L18.2806 6.553L18.536 6.50075C18.5432 6.49974 18.5506 6.50025 18.5575 6.50225C18.5646 6.50426 18.5711 6.5077 18.5767 6.51236C18.5827 6.51625 18.5879 6.52135 18.592 6.52734C18.5959 6.53335 18.5986 6.54011 18.5999 6.5472V6.59366C18.5999 6.60527 18.5999 6.6227 18.5883 6.63432C18.5803 6.6476 18.568 6.65783 18.5535 6.66335L18.0889 6.80854Z" fill="#3C2718"/>
<path d="M18.1917 7.54618C18.1917 7.46487 18.1741 7.4126 18.1277 7.37195L19.661 7.13965C19.7132 7.13965 19.7365 7.15706 19.7365 7.21514V7.27322C19.7365 7.3313 19.7132 7.36032 19.661 7.36032C19.1648 7.353 18.6703 7.41556 18.1917 7.54618Z" fill="#A0A782"/>
<path d="M17.7268 8.02244C17.7359 7.9882 17.7359 7.95217 17.7268 7.91792L17.785 7.87146C18.3221 7.64097 18.9019 7.5262 19.4865 7.53461C19.533 7.53461 19.5445 7.55204 19.5097 7.59269C19.4807 7.62754 19.4169 7.65077 19.3239 7.65077C18.7664 7.68561 18.2321 7.80757 17.7268 8.02244Z" fill="#889283"/>
<path d="M11.1711 10.0731C11.026 10.2647 10.8228 10.2124 10.5499 9.8988L10.2014 7.71518C10.1898 7.6571 10.213 7.62808 10.2711 7.62227H10.3059C10.318 7.62126 10.3301 7.6241 10.3406 7.63034C10.351 7.63661 10.3592 7.64595 10.364 7.65712C10.5614 8.33079 10.5092 9.64323 10.8344 9.91046C10.9331 9.99176 11.0667 9.96845 11.1711 10.0731Z" fill="#3C2718"/>
<path d="M17.7399 7.70435L17.7805 7.87857L17.7223 7.91923C16.9832 8.1628 16.3312 8.61696 15.8465 9.22597C15.8233 9.26079 15.7885 9.26079 15.7652 9.22597L15.7304 9.20265C15.713 9.17949 15.7072 9.15617 15.7304 9.13301C16.2503 8.4763 16.9476 7.9825 17.7399 7.71016V7.70435Z" fill="#614B3A"/>
<path d="M11.1652 8.4231C11.2231 8.45214 11.258 8.50441 11.2638 8.58571C11.3044 9.07931 11.3509 9.67176 11.7516 10.0028C11.7625 10.0117 11.7711 10.0234 11.7761 10.0367C11.7813 10.0498 11.7828 10.0642 11.7806 10.0783C11.778 10.0909 11.7713 10.1029 11.7633 10.1131C11.7552 10.1231 11.7461 10.131 11.7343 10.1363C11.6761 10.1654 11.5949 10.1363 11.5019 10.0608C11.1843 9.6036 11.0478 9.04489 11.1186 8.49279C11.1186 8.47536 11.1301 8.46375 11.1418 8.45214L11.1652 8.4231ZM12.8725 9.73558C12.9306 9.81689 13.0118 9.84589 13.0758 9.9215C13.1048 9.95633 13.1048 9.98533 13.0758 10.0202C13.056 10.042 13.0293 10.0563 13.0001 10.0608C12.977 10.0608 12.948 10.0608 12.9189 10.0492C12.4833 9.82271 12.466 9.06197 12.5473 8.60893C12.5505 8.59847 12.5564 8.58911 12.5647 8.58193C12.5728 8.57473 12.583 8.57001 12.5937 8.56829C12.5995 8.56741 12.6053 8.56741 12.6111 8.56829L12.646 8.5741C12.6634 8.5741 12.6808 8.59151 12.6924 8.60893C12.7041 8.62055 12.71 8.64378 12.71 8.66702C12.6924 8.97481 12.6808 9.4685 12.8725 9.74141V9.73558ZM16.0202 9.6891C16.0175 9.69073 16.0144 9.69141 16.0114 9.69141C16.0084 9.69141 16.0054 9.69073 16.0028 9.6891L15.9911 9.68327C15.9621 9.65428 15.9563 9.6078 15.9736 9.5498C15.9853 9.49166 16.0259 9.42202 16.0725 9.3697L16.2641 9.15479C16.2885 9.12687 16.3156 9.10154 16.3454 9.07931C16.3743 9.05614 16.4035 9.04449 16.4325 9.03283C16.4556 9.02131 16.4848 9.01549 16.508 9.02132C16.5312 9.02132 16.5486 9.02714 16.5661 9.04449V9.05031C16.5689 9.05357 16.5705 9.05763 16.5705 9.06197C16.5705 9.06617 16.5689 9.07037 16.5661 9.07349L16.0202 9.6891ZM13.2151 9.61945L13.2325 9.6078H13.2558L13.488 9.79954C13.5029 9.8116 13.5166 9.82529 13.5287 9.84019L13.5578 9.88654L13.5693 9.9215C13.5693 9.93301 13.5693 9.94467 13.5578 9.95049L13.5345 9.97949C13.5292 9.98804 13.5209 9.99413 13.5113 9.99697H13.4707C13.4541 9.99129 13.4386 9.98343 13.4242 9.97367C13.4078 9.96554 13.3922 9.95579 13.3777 9.94467L13.1454 9.75306C13.1402 9.74764 13.1372 9.74033 13.1372 9.73274C13.1372 9.72515 13.1402 9.71783 13.1454 9.71241L13.2151 9.61945ZM15.5381 11.7334C15.5637 11.7162 15.5838 11.6919 15.5962 11.6637C15.6094 11.6366 15.6155 11.6067 15.6136 11.5766C15.5533 10.987 15.5965 10.3916 15.7414 9.81689C15.753 9.77041 15.782 9.75889 15.8227 9.77041L15.8634 9.78206C15.8865 9.79371 15.8982 9.81106 15.8923 9.84019C15.7762 10.3222 15.7473 10.8215 15.782 11.3385C15.8052 11.6173 15.7645 11.7508 15.5905 11.9366C15.582 11.9467 15.5712 11.9541 15.5589 11.9582C15.5465 11.9623 15.5334 11.9629 15.5206 11.9598C15.5069 11.9559 15.4948 11.9478 15.4858 11.9366C15.4771 11.9267 15.471 11.9147 15.4685 11.9018C15.4587 11.8692 15.4602 11.8342 15.4729 11.8025C15.4855 11.7709 15.5086 11.7445 15.5381 11.7275V11.7334Z" fill="#3C2718"/>
<path d="M16.3221 10.1653C16.2233 10.3976 16.1943 10.7344 16.2291 11.1524C16.2581 11.5125 16.1304 11.8204 15.8517 12.0816C15.8224 12.1063 15.7854 12.1197 15.7472 12.1197C15.709 12.1197 15.672 12.1063 15.6426 12.0816C15.631 12.0759 15.6311 12.0526 15.6542 12.0178C15.6654 11.9969 15.6813 11.9791 15.7007 11.9655C16.4266 11.5241 15.7355 10.5543 16.2117 9.99098C16.3453 9.8342 16.3976 9.8632 16.357 10.0665L16.3221 10.1653Z" fill="#3C2718"/>
<path d="M13.8248 10.9438C13.6805 11.0275 13.5152 11.0677 13.3487 11.0601C13.3323 11.0591 13.3167 11.0531 13.3041 11.0427C13.2915 11.0322 13.2827 11.0178 13.279 11.002C13.2674 10.9438 13.279 10.9149 13.337 10.9032C13.9991 10.7698 14.4812 10.2179 15.0386 10.1483C15.0967 10.1366 15.1374 10.1658 15.1433 10.2238L15.149 10.2586C15.1516 10.2685 15.152 10.2789 15.1505 10.2891C15.1489 10.2991 15.1454 10.3088 15.1399 10.3176C15.1345 10.3262 15.1273 10.3338 15.119 10.3396C15.1104 10.3455 15.1009 10.3495 15.0909 10.3516C14.7425 10.4096 14.5043 10.5838 14.2547 10.7464C14.2419 10.7545 14.2315 10.7656 14.2244 10.7789C14.2173 10.7921 14.2137 10.807 14.214 10.8219C14.214 10.851 14.2197 10.88 14.2372 10.9032C14.2604 10.9323 14.2895 10.9497 14.3301 10.9613C14.4115 10.9613 14.4695 10.9382 14.5043 10.8684C14.5043 10.8569 14.5101 10.8569 14.516 10.8684C14.574 11.0833 14.545 11.2866 14.423 11.4667C14.3998 11.5015 14.365 11.5247 14.3301 11.5363C13.9468 11.6408 13.8945 11.2691 13.8888 10.9845C13.8894 10.9762 13.8877 10.9679 13.8835 10.9605C13.8795 10.9534 13.8731 10.9475 13.8655 10.9438C13.8594 10.9403 13.8524 10.9384 13.8452 10.9384C13.838 10.9384 13.8311 10.9403 13.8248 10.9438ZM11.1359 10.973C10.8689 10.9323 10.6481 10.7987 10.474 10.5838C10.4507 10.549 10.4507 10.52 10.474 10.491L10.4972 10.4618C10.5011 10.4563 10.5063 10.4519 10.5124 10.4487C10.5184 10.4457 10.5252 10.4442 10.532 10.4445C10.5374 10.4444 10.5427 10.4453 10.5477 10.4474C10.5527 10.4494 10.5572 10.4524 10.561 10.456C10.8747 10.7581 11.2464 10.8626 11.6761 10.7698C11.7342 10.7581 11.7574 10.7813 11.7574 10.8393V10.9207C11.7581 10.9293 11.7568 10.9379 11.7538 10.9459C11.7509 10.9539 11.7462 10.9612 11.7399 10.9671C11.7292 10.9781 11.7146 10.9843 11.6993 10.9845C11.6238 10.973 11.5483 10.9845 11.4787 10.9961C11.47 10.9987 11.4624 11.0041 11.4571 11.0115C11.4519 11.0189 11.4493 11.0277 11.4496 11.0368V11.0716C11.4496 11.1181 11.4728 11.1472 11.5193 11.1529C11.5831 11.1646 11.6471 11.1529 11.7109 11.1239C11.7399 11.1123 11.7632 11.1239 11.7691 11.1588C11.8329 11.426 11.6993 11.7337 11.3857 11.6641C11.078 11.5943 11.1476 11.2807 11.1825 11.0368C11.1882 11.002 11.1766 10.9788 11.1359 10.973Z" fill="#182120"/>
<path d="M10.1431 11.6532C10.2128 11.8333 10.3173 12.025 10.4509 12.2107C10.4683 12.234 10.4683 12.2573 10.4509 12.2689C10.4335 12.3037 10.4044 12.3096 10.3754 12.2862C10.2528 12.2002 10.1596 12.0786 10.1083 11.9378C10.0792 11.8043 10.0908 11.7056 10.1431 11.6475V11.6532ZM15.4453 12.0016C15.449 12.0022 15.4524 12.0034 15.4555 12.0054C15.4584 12.0075 15.461 12.0102 15.4628 12.0133C15.4646 12.019 15.4646 12.0251 15.4628 12.0308L15.4453 12.1236C15.4395 12.1586 15.4163 12.1817 15.3815 12.1817C15.3296 12.1907 15.2763 12.1846 15.2278 12.164C15.1795 12.1434 15.138 12.1093 15.1086 12.0656C15.105 12.0584 15.103 12.0504 15.103 12.0423C15.103 12.0343 15.105 12.0263 15.1086 12.0191C15.1124 12.0113 15.1181 12.0045 15.1251 11.9995C15.1323 11.9943 15.1406 11.9912 15.1493 11.9901L15.4395 12.0016H15.4453ZM12.4255 12.3734C12.4193 12.3751 12.4129 12.3755 12.4067 12.3747C12.4003 12.3739 12.3944 12.3718 12.3889 12.3685C12.3834 12.3652 12.3787 12.3609 12.375 12.3557C12.3714 12.3506 12.3687 12.3447 12.3674 12.3385C12.3499 12.2456 12.3849 12.1876 12.4835 12.1528C12.6867 12.0946 12.8784 12.0829 13.0469 12.1295C13.105 12.1469 13.134 12.1876 13.1223 12.2514V12.292C13.12 12.3041 13.1153 12.3155 13.1082 12.3254C13.1011 12.3354 13.0922 12.3438 13.0817 12.3501C13.0644 12.3611 13.0437 12.3654 13.0236 12.3618C12.8257 12.3201 12.6207 12.326 12.4255 12.3792V12.3734ZM12.4197 13.6104C12.228 13.7847 12.0945 13.9936 12.0246 14.2144C11.8273 14.8183 12.3557 15.341 12.9075 14.9578C12.9279 14.9432 12.9529 14.9369 12.9777 14.9401C13.0025 14.9434 13.0252 14.9559 13.041 14.9751L13.0702 15.0158L13.0759 15.0564C13.08 15.0695 13.0807 15.0832 13.0776 15.0966C13.0746 15.11 13.0679 15.1221 13.0585 15.1319C12.7681 15.3874 12.3615 15.3991 12.0597 15.1435C11.7169 14.859 11.6531 14.4642 11.8679 13.9472L12.1758 13.5001C12.199 13.471 12.1873 13.4419 12.1525 13.4303C11.8854 13.3142 11.6125 13.1749 11.351 13.1167C10.8864 13.018 10.4219 13.0644 9.95726 13.2619C9.92242 13.2735 9.8992 13.2619 9.89338 13.2329L9.88177 13.198C9.8747 13.1773 9.8747 13.1548 9.88177 13.1342C9.89108 13.1135 9.90759 13.0969 9.92823 13.0878C10.3096 12.907 10.7315 12.8292 11.1521 12.8618C11.5729 12.8944 11.9778 13.0363 12.3267 13.2735C12.3557 13.291 12.3849 13.2851 12.4081 13.2619C12.8146 12.8554 13.2849 12.5825 13.8367 12.4488C13.9238 12.4257 14.0109 12.3908 14.0923 12.356C14.5974 12.0888 15.0388 11.9785 15.3466 12.5708C15.364 12.6058 15.39 12.6357 15.4222 12.6579C15.5615 12.7567 15.6835 12.8787 15.7939 13.018C15.817 13.0529 15.8287 13.0819 15.817 13.1109L15.7939 13.14C15.7848 13.149 15.7738 13.1559 15.7618 13.1599C15.7497 13.1639 15.7368 13.1652 15.724 13.1632C15.7133 13.1594 15.7034 13.1536 15.6951 13.1457C15.5383 13.0296 15.4047 12.8787 15.2305 12.8032C14.1736 12.3385 13.1573 12.7798 12.4197 13.6104ZM10.3987 12.3501L10.4509 12.356C10.4683 12.356 10.4799 12.3734 10.4916 12.385C10.4996 12.3948 10.5053 12.4061 10.5087 12.4182C10.5123 12.4304 10.5131 12.443 10.5114 12.4555C10.5098 12.4681 10.5058 12.48 10.4993 12.4908C10.4929 12.5017 10.4844 12.5112 10.4742 12.5186C10.3638 12.5941 10.2767 12.5592 10.2069 12.4198C10.2002 12.4061 10.1972 12.3908 10.1982 12.3755C10.1992 12.3602 10.2042 12.3455 10.2128 12.3327C10.2208 12.32 10.232 12.3096 10.2452 12.3024C10.2584 12.2953 10.2733 12.2917 10.2883 12.292C10.3173 12.292 10.3348 12.3037 10.3464 12.3212C10.358 12.3444 10.3754 12.3501 10.3987 12.3501Z" fill="#3C2718"/>
<path d="M14.7424 12.4425C14.8585 12.4716 14.9513 12.4658 14.9571 12.4309C14.963 12.3961 14.8817 12.3497 14.7713 12.3206C14.6611 12.2974 14.5681 12.3031 14.5564 12.338C14.5564 12.3728 14.6319 12.4192 14.7424 12.4425Z" fill="#807352"/>
<path d="M17.6624 12.755C17.7929 12.9897 17.8585 13.2549 17.8524 13.5233C17.8463 13.7919 17.7686 14.0538 17.6276 14.2824C17.0003 15.3045 15.5949 15.5019 14.5264 15.229C14.3521 15.1825 14.0908 15.0896 13.7539 14.9561C13.7133 14.9386 13.6843 14.9502 13.6609 14.9851C13.6528 14.9978 13.6475 15.0123 13.6456 15.0274C13.6437 15.0424 13.6448 15.0577 13.6493 15.0722C13.6598 15.1002 13.6807 15.123 13.7075 15.1361C14.5553 15.6937 15.8214 15.6704 16.7274 15.3393C16.7622 15.3278 16.7854 15.3393 16.7854 15.3858V15.9666C16.3264 16.1636 15.8318 16.2642 15.3324 16.2623C14.8328 16.2602 14.3391 16.1556 13.8817 15.9549C13.9455 15.8736 13.9745 15.7923 13.9745 15.7227C13.9745 15.6937 13.9572 15.6762 13.9282 15.6645H13.8759C13.8585 15.6707 13.844 15.6833 13.8352 15.6994C13.5825 16.1093 13.2063 16.4285 12.7608 16.6112C12.7447 16.6193 12.7268 16.6236 12.7087 16.6236C12.6905 16.6236 12.6725 16.6193 12.6563 16.6112C12.1648 16.3619 11.7143 16.0387 11.3206 15.653C11.2915 15.6297 11.2625 15.6297 11.2451 15.653L11.2218 15.682C11.2122 15.6913 11.2061 15.7036 11.2045 15.7168C11.2045 15.7343 11.2045 15.7458 11.216 15.7575C11.6014 16.2753 12.1565 16.6411 12.7841 16.7913C12.4589 17.1455 12.0756 17.4881 11.6225 17.8076C11.4135 17.9585 10.8618 18.4464 11.187 18.6903C11.0825 18.7483 11.0999 18.8123 11.2277 18.8819C11.4309 18.9865 11.7038 19.0793 12.0407 19.1548C12.0813 19.1664 12.0872 19.1898 12.0697 19.2304C11.8955 19.5207 11.733 19.8692 11.5063 20.0898C10.9372 20.6358 10.2752 20.7288 9.52024 20.3571C9.48539 20.3396 9.45635 20.3106 9.43894 20.2758C9.41814 20.2407 9.40804 20.2003 9.40989 20.1596L9.67124 15.6123C9.67124 15.5891 9.68285 15.5774 9.70608 15.5891C10.5191 15.8505 11.2393 15.7052 11.8781 15.1593C11.8941 15.1448 11.9041 15.1249 11.9062 15.1035C11.9083 15.082 11.9025 15.0606 11.8898 15.0432L11.8665 15.0083C11.8199 14.9502 11.7736 14.9502 11.7213 14.9909C10.9431 15.6123 10.13 15.653 9.28213 15.107C9.08707 14.9282 8.92576 14.7157 8.80591 14.4798C9.12533 14.4508 9.35764 14.323 9.50282 14.0966C10.4088 14.4392 11.0419 14.294 11.8665 13.9456C11.6516 14.4625 11.7155 14.8573 12.0582 15.1419C12.3601 15.3975 12.7666 15.3858 13.057 15.1302C13.0674 15.121 13.0752 15.1091 13.0792 15.0958C13.0835 15.0825 13.0837 15.0683 13.0802 15.0547L13.0687 15.0141C13.0633 14.9979 13.054 14.9832 13.042 14.971C13.0299 14.959 13.0151 14.9499 12.9988 14.9445C12.9835 14.9391 12.9672 14.9373 12.9511 14.9393C12.9349 14.9413 12.9195 14.947 12.9061 14.9561C12.3543 15.3393 11.8258 14.8167 12.0233 14.2127C12.093 13.9919 12.2265 13.7887 12.4182 13.6088C12.6388 13.7772 12.7028 13.9513 12.9873 14.0907C13.5914 14.387 14.1778 14.4856 14.7527 14.3811C15.2 14.294 15.5833 13.9978 15.9027 13.4927L16.1583 13.6436C16.2163 13.6726 16.2104 13.7017 16.1466 13.7074L15.9608 13.748C15.9383 13.7538 15.9182 13.7658 15.9027 13.783C15.8876 13.7991 15.8776 13.8193 15.8737 13.841L15.8678 13.8817C15.8654 13.8932 15.8669 13.9052 15.8722 13.9158C15.8775 13.9264 15.8862 13.9348 15.8969 13.9398H15.9202C16.0653 13.9398 16.2104 13.9281 16.3441 13.9165C16.3905 13.9165 16.4253 13.9165 16.4602 13.934C16.5242 13.9746 16.5415 14.0501 16.6054 14.0907C16.6461 14.1139 16.6926 14.1024 16.7389 14.0675L16.7448 14.0559L16.7796 13.9571C16.7837 13.9478 16.7901 13.9396 16.7982 13.9335C16.8064 13.9275 16.8161 13.9235 16.8261 13.9223H16.919C16.9365 13.9223 16.9596 13.9106 16.9772 13.8933C16.9895 13.8823 16.9994 13.8689 17.0062 13.854C17.0129 13.839 17.0164 13.8227 17.0164 13.8061C17.0164 13.7897 17.0129 13.7734 17.0062 13.7584C16.9994 13.7433 16.9895 13.73 16.9772 13.719C16.954 13.6997 16.927 13.6854 16.898 13.6774C16.8689 13.6693 16.8384 13.6677 16.8087 13.6726C16.7505 13.6784 16.7505 13.6726 16.7971 13.6377C16.8331 13.6131 16.874 13.5962 16.917 13.5881C16.9601 13.5801 17.0043 13.5812 17.0468 13.5913C17.0643 13.597 17.0829 13.5981 17.1011 13.5952C17.1193 13.5922 17.1365 13.5849 17.1513 13.5739C17.3603 13.4287 17.3952 13.2545 17.2674 13.0513C17.3314 12.8073 17.465 12.7086 17.6624 12.755Z" fill="#A0A782"/>
<path d="M17.2639 13.0461C17.3974 13.2552 17.3625 13.4294 17.1476 13.5688C17.1341 13.5799 17.1181 13.5878 17.101 13.5917C17.084 13.5957 17.066 13.5959 17.0489 13.5919C17.0065 13.5819 16.9623 13.5809 16.9191 13.5889C16.8762 13.5969 16.8353 13.6138 16.7993 13.6385C16.7527 13.6674 16.7586 13.6791 16.8109 13.6733C16.8688 13.6618 16.927 13.6733 16.985 13.7197C17.0001 13.7347 17.0106 13.7533 17.0156 13.7738C17.0208 13.7943 17.0202 13.8157 17.0141 13.8358C17.0084 13.8583 16.9964 13.8785 16.9793 13.894C16.9625 13.9071 16.9423 13.9152 16.9212 13.9172L16.8282 13.923C16.8182 13.9242 16.8085 13.9282 16.8003 13.9342C16.7921 13.9403 16.7858 13.9484 16.7817 13.9578L16.7469 14.0566L16.7411 14.0682C16.6948 14.1031 16.6482 14.1146 16.6076 14.0915C16.5495 14.0566 16.5263 13.9753 16.4565 13.9347C16.4221 13.9187 16.3839 13.9125 16.3463 13.9172C16.1973 13.9261 16.0482 13.9339 15.899 13.9405C15.8883 13.9355 15.8797 13.927 15.8743 13.9165C15.8691 13.906 15.8676 13.8939 15.87 13.8824L15.8759 13.8417C15.8798 13.82 15.8898 13.7998 15.9049 13.7837C15.9203 13.7664 15.9405 13.7544 15.963 13.7487L16.1488 13.7081C16.2069 13.6966 16.2126 13.6733 16.1605 13.6442L15.9049 13.4933C15.9338 13.3887 15.9804 13.348 16.0385 13.3656C16.1198 13.3828 16.2126 13.4235 16.323 13.4758C16.3463 13.4875 16.352 13.4758 16.3463 13.4527L16.1719 12.9648C16.1654 12.9469 16.1641 12.9277 16.1681 12.9091C16.1724 12.8906 16.1826 12.8733 16.1962 12.8599C16.2062 12.852 16.2177 12.8461 16.2301 12.8429C16.5785 12.7441 17.0141 12.7268 17.2639 13.0461Z" fill="#AEFFE3"/>
<path d="M8.7386 12.8496C8.88959 12.9076 8.95928 13.0585 8.94186 13.3257C8.94186 13.3664 8.95348 13.4013 8.9767 13.4361C9.09866 13.587 9.10448 13.7788 9.26709 13.8774C9.33096 13.9529 9.41227 14.0168 9.5168 14.0749C9.48776 14.0458 9.48196 14.0575 9.50519 14.0982C9.36 14.3304 9.1277 14.4524 8.80828 14.4814C8.77344 14.435 8.7444 14.3652 8.72117 14.2897C8.75601 14.2202 8.83732 14.2026 8.95348 14.2318C8.97697 14.2374 9.00168 14.2363 9.02443 14.228C9.04718 14.2197 9.06695 14.2048 9.08124 14.1853C9.09587 14.1653 9.10469 14.1418 9.10676 14.1171C9.1088 14.0926 9.10399 14.068 9.09285 14.0458C9.07278 14.0039 9.04163 13.968 9.00272 13.9426C8.96383 13.917 8.91869 13.9025 8.87217 13.9007C8.85565 13.9002 8.83941 13.8962 8.82443 13.8894C8.80946 13.8823 8.79606 13.8724 8.78505 13.86C8.77088 13.8445 8.76038 13.826 8.75433 13.806C8.7483 13.7858 8.7469 13.7646 8.75022 13.7439C8.75022 13.7148 8.7444 13.6858 8.72117 13.6683L8.60502 13.5464C8.59341 13.3083 8.63987 13.0818 8.7386 12.8496Z" fill="#7DD5BC"/>
<path d="M16.9208 13.2102H17.0369C17.0441 13.2143 17.05 13.2203 17.054 13.2273C17.0583 13.2345 17.0603 13.2426 17.0603 13.2509V13.274C17.0481 13.2911 17.0323 13.305 17.0138 13.3147C17.0063 13.3203 16.998 13.3243 16.9889 13.3262C16.9799 13.3282 16.9706 13.3282 16.9615 13.3263C16.9324 13.3206 16.9034 13.2973 16.8918 13.2683V13.2276C16.8948 13.2224 16.899 13.2182 16.904 13.2151C16.9092 13.2121 16.9149 13.2104 16.9208 13.2102Z" fill="#A0A782"/>
<path d="M9.51516 14.0748C9.41063 14.0168 9.32932 13.9529 9.27124 13.8773C9.3874 13.7787 9.40481 13.6567 9.31771 13.5056C9.27705 13.4302 9.28867 13.3664 9.36416 13.3198L9.39901 13.2967C9.41588 13.2865 9.43541 13.2817 9.45507 13.2826C9.47474 13.2837 9.49364 13.2906 9.50936 13.3024L9.53259 13.3315C9.66034 13.5638 9.65455 13.8135 9.51516 14.0748Z" fill="#AEFFE3"/>
<path d="M8.60428 13.5461L8.72043 13.6624C8.74366 13.6856 8.74948 13.7145 8.74948 13.7437C8.74948 13.7901 8.75527 13.8307 8.78432 13.8598C8.80754 13.883 8.84239 13.9005 8.87144 13.9005C8.97596 13.9064 9.04565 13.9585 9.09211 14.0456C9.10325 14.0677 9.10806 14.0924 9.10601 14.1169C9.10395 14.1415 9.09513 14.1651 9.0805 14.1851C9.06621 14.2045 9.04644 14.2195 9.02369 14.2278C9.00094 14.236 8.97623 14.2372 8.95274 14.2315C8.83658 14.2024 8.75527 14.2198 8.72043 14.2895C8.62752 14.0573 8.58687 13.8075 8.60428 13.5461Z" fill="#A0A782"/>
<path d="M11.7103 15.4565C11.7137 15.4523 11.7184 15.4495 11.7239 15.4484C11.7291 15.4474 11.7345 15.4482 11.7393 15.4508L12.4943 15.9793C12.5292 16.0083 12.5582 16.0373 12.5756 16.0663C12.5988 16.0955 12.5988 16.1245 12.593 16.1361L12.5699 16.165C12.5582 16.1826 12.535 16.1883 12.5059 16.1767C12.4662 16.1664 12.4287 16.1487 12.3955 16.1245L11.6406 15.5901L11.6348 15.5785V15.5611L11.7044 15.4565H11.7103ZM13.1273 15.5205C13.1854 15.5959 13.1738 15.6366 13.0808 15.6541C13.0678 15.6559 13.0546 15.6526 13.0438 15.645C13.0331 15.6375 13.0256 15.6262 13.0229 15.6134V15.5553C13.0245 15.542 13.0305 15.5297 13.0401 15.5205C13.0473 15.5125 13.0565 15.5066 13.0669 15.5035C13.077 15.5004 13.088 15.5003 13.0983 15.503C13.1095 15.5058 13.1195 15.512 13.1273 15.5205ZM12.7731 16.1593C13.0345 16.0141 13.2492 15.8224 13.4293 15.5785C13.4467 15.5436 13.47 15.5436 13.4931 15.5728L13.5165 15.5959C13.5296 15.6146 13.5368 15.6369 13.5368 15.6597C13.5368 15.6827 13.5296 15.705 13.5165 15.7237C13.3563 15.9751 13.1234 16.1716 12.8485 16.287C12.8378 16.2872 12.8272 16.2853 12.8173 16.2812C12.8072 16.2773 12.7981 16.2713 12.7906 16.2639C12.7808 16.2559 12.7728 16.246 12.7672 16.2347L12.7556 16.2057V16.1826C12.7556 16.1709 12.7614 16.165 12.7731 16.1593ZM12.5523 15.7817C12.6279 15.8573 12.7208 15.8921 12.7499 15.8573C12.7847 15.8224 12.7441 15.7354 12.6627 15.6597C12.5873 15.5843 12.4943 15.5436 12.4654 15.5843C12.4362 15.6192 12.471 15.7063 12.5523 15.7817Z" fill="#3C2718"/>
<path d="M13.8893 15.9561C13.6151 16.3406 13.2301 16.6324 12.7859 16.7925C12.148 16.6343 11.5876 16.2533 11.2063 15.7181C11.2079 15.7047 11.214 15.6924 11.2237 15.6832L11.247 15.6599C11.2701 15.6309 11.2932 15.6309 11.3166 15.6599C11.7106 16.0435 12.1612 16.3649 12.6523 16.6124C12.6693 16.6215 12.6882 16.6263 12.7074 16.6263C12.7267 16.6263 12.7457 16.6215 12.7626 16.6124C13.2156 16.4266 13.5757 16.1188 13.837 15.7006C13.8459 15.6844 13.8603 15.672 13.8777 15.6658C13.8946 15.6595 13.9131 15.6595 13.93 15.6658C13.959 15.6774 13.9764 15.6948 13.9764 15.7239C13.9764 15.7935 13.9474 15.8749 13.8893 15.9561Z" fill="#3C2718"/>
<path d="M13.89 15.9556C14.8598 16.3621 15.8297 16.3621 16.7878 15.9673C16.7995 17.3146 16.7878 18.3657 16.7588 19.1207C16.7472 19.3007 16.7007 19.5272 16.6137 19.8118C16.5558 19.7696 16.4896 19.7405 16.4194 19.7263C16.3492 19.7123 16.2766 19.7137 16.2071 19.7305C15.8369 19.8196 15.452 19.8268 15.0788 19.7515C14.7055 19.6764 14.3534 19.5205 14.0467 19.2949C13.8608 19.1788 13.6751 19.0741 13.4776 18.9813C13.0711 19.0162 12.769 19.022 12.5716 18.9987C12.1882 18.9639 11.7295 18.8594 11.1894 18.691C10.8642 18.4471 11.4159 17.9592 11.625 17.8083C12.078 17.4888 12.4613 17.1462 12.7865 16.7919C13.2307 16.6318 13.6157 16.34 13.89 15.9556Z" fill="#DFCA9F"/>
<path d="M13.4771 18.9817C13.6745 19.0745 13.8603 19.1791 14.0463 19.2952C14.3529 19.5208 14.705 19.6766 15.0783 19.7519C15.4515 19.8271 15.8364 19.8199 16.2066 19.7307C16.2762 19.7141 16.3486 19.7125 16.4189 19.7267C16.4891 19.7408 16.5553 19.7699 16.6132 19.8121C16.1775 20.9039 15.318 21.0433 14.4469 20.3697C13.9938 20.0103 13.6565 19.5256 13.4771 18.9758V18.9817Z" fill="#A0A782"/>
<path d="M13.7215 19.9272C13.733 19.9505 13.7388 19.9737 13.7273 19.9912L13.7099 20.0086C13.7016 20.0151 13.6914 20.0188 13.6808 20.0188C13.6702 20.0188 13.66 20.0151 13.6517 20.0086C13.5647 19.9157 13.4601 19.7762 13.344 19.5613C13.2916 19.48 13.2162 19.4452 13.1117 19.4452C12.8793 19.4452 12.3741 19.3872 12.2986 19.6078L12.2231 19.7646C12.1069 19.9215 12.0083 19.9912 11.9153 19.9737L12.3045 19.2653C12.3114 19.2516 12.3223 19.2403 12.3358 19.2331C12.3493 19.2259 12.3646 19.2229 12.3799 19.2246L13.2974 19.2478C13.3255 19.249 13.3526 19.2578 13.3762 19.2731C13.3996 19.2884 13.4186 19.3097 13.4311 19.3349L13.7215 19.9272Z" fill="#458A7B"/>
</svg>
