<svg width="24" height="24" viewBox="0 0 24 24" fill="none" xmlns="http://www.w3.org/2000/svg">
<path d="M19.416 3.49902H5.73075L4.74072 4.12903L11.7108 19.1543L12.4908 19.9993L19.416 3.49902Z" fill="white"/>
<path d="M14.1006 11.6795C14.1006 11.5044 14.1006 11.4144 13.9506 11.3295C13.4156 10.8894 12.8006 10.4494 12.2706 10.0093C12.2166 9.9657 12.1499 9.9412 12.0806 9.93934C12.0113 9.9412 11.9445 9.9657 11.8906 10.0093L10.2055 11.4144C10.1325 11.4587 10.0735 11.5229 10.0355 11.5994C9.9955 11.6744 9.97555 11.7643 9.97555 11.8544C9.97555 12.0444 9.9255 12.2295 9.82552 12.3844C9.7869 12.4513 9.7666 12.5272 9.7666 12.6044C9.7666 12.6816 9.7869 12.7575 9.82552 12.8245L12.2706 18.5696L14.3355 12.9994C14.4106 12.8245 14.4106 12.7344 14.2556 12.6494C14.0834 12.3572 14.0295 12.01 14.1056 11.6795H14.1006ZM11.4756 9.23431L6.58549 5.56428L6.50049 5.65429C6.58549 5.83429 6.58549 5.92428 6.6655 6.10429L8.41054 10.1294C8.57553 10.4844 8.66053 10.8444 9.15555 10.9344C9.30054 10.9493 9.44054 10.9193 9.57054 10.8444L11.4756 9.23431ZM12.0006 8.50934C12.0644 8.55386 12.1403 8.57774 12.218 8.57774C12.2958 8.57774 12.3718 8.55386 12.4356 8.50934C14.0906 7.22932 15.7457 6.04429 17.3157 4.75926C17.4007 4.67427 17.4906 4.67427 17.4906 4.57927V4.49927H6.51049C6.6105 4.53926 6.7005 4.58927 6.7705 4.67427L12.0006 8.50934ZM12.8706 9.23431L14.8557 10.6644C15.0206 10.7544 15.2707 10.6644 15.5157 10.6644C15.6006 10.6644 15.6806 10.4894 15.6806 10.3994C16.2606 8.96434 16.8407 7.44432 17.4157 6.00929C17.4157 5.9243 17.5007 5.83429 17.5007 5.74429H17.4157L12.8706 9.23431Z" fill="#CD0124"/>
<path d="M8.63968 13.0141C9.261 13.0141 9.76464 12.4969 9.76464 11.8591C9.76464 11.2212 9.261 10.7041 8.63968 10.7041C8.01835 10.7041 7.51465 11.2212 7.51465 11.8591C7.51465 12.4969 8.01835 13.0141 8.63968 13.0141Z" fill="white"/>
<path d="M15.5104 13.0141C16.1317 13.0141 16.6354 12.4969 16.6354 11.8591C16.6354 11.2212 16.1317 10.7041 15.5104 10.7041C14.8891 10.7041 14.3853 11.2212 14.3853 11.8591C14.3853 12.4969 14.8891 13.0141 15.5104 13.0141Z" fill="white"/>
<path d="M5.25003 5.50005C5.94039 5.50005 6.50005 4.94039 6.50005 4.25003C6.50005 3.55966 5.94039 3 5.25003 3C4.55964 3 4 3.55966 4 4.25003C4 4.94039 4.55964 5.50005 5.25003 5.50005Z" fill="white"/>
<path d="M18.7499 5.50005C19.4403 5.50005 20 4.94039 20 4.25003C20 3.55966 19.4403 3 18.7499 3C18.0596 3 17.5 3.55966 17.5 4.25003C17.5 4.94039 18.0596 5.50005 18.7499 5.50005Z" fill="white"/>
<path d="M12.2505 21C12.9408 21 13.5004 20.4403 13.5004 19.7499C13.5004 19.0596 12.9408 18.5 12.2505 18.5C11.5601 18.5 11.0005 19.0596 11.0005 19.7499C11.0005 20.4403 11.5601 21 12.2505 21Z" fill="white"/>
</svg>
