<svg width="24" height="24" viewBox="0 0 24 24" fill="none" xmlns="http://www.w3.org/2000/svg">
<path d="M15.8026 8.46163C15.7203 8.43871 15.6446 8.3968 15.5814 8.33927C15.5403 8.28535 15.4871 8.24182 15.4262 8.21222L15.4214 8.20281L15.365 8.13222C15.3561 8.12285 15.3446 8.11631 15.3321 8.11339L15.2143 8.07575H15.2096V8.06163L15.205 8.04751C15.1724 8.01235 15.1361 7.98079 15.0967 7.9534C14.965 7.87339 14.8897 7.74633 14.7626 7.67104C14.5543 7.53735 14.3337 7.42391 14.1038 7.33222C13.9532 7.27575 13.7978 7.21927 13.6474 7.15339C13.5532 7.11104 13.379 7.06869 13.1297 7.03105C13.0638 7.01693 12.9885 6.98399 12.9179 6.97458C12.8148 6.96108 12.7111 6.95166 12.6073 6.94634C12.5461 6.94634 12.4426 6.93223 12.3014 6.91811C12.0756 6.88987 11.8308 6.93223 11.6426 6.93223C11.4074 6.93692 11.172 6.96046 10.9414 7.00281C10.8661 7.02163 10.7579 7.06399 10.6544 7.06869C10.6338 7.06747 10.6135 7.07421 10.5978 7.08751C10.5902 7.09475 10.5842 7.10352 10.5802 7.11325C10.5761 7.12298 10.5742 7.13345 10.5743 7.14398C10.5743 7.20987 10.5933 7.26163 10.5367 7.31339C10.5274 7.32281 10.5179 7.32281 10.5132 7.30869C10.4943 7.27345 10.4816 7.23526 10.4755 7.19575C10.4708 7.14869 10.4426 7.13457 10.4002 7.14869C10.0991 7.2428 9.82143 7.37457 9.5626 7.52516L9.39789 7.60046C9.34142 7.62399 9.28966 7.65693 9.2426 7.70398L8.88024 7.93928C8.87204 7.94509 8.86419 7.95138 8.85671 7.9581L8.30142 8.44751L8.29855 8.45255L8.29396 8.45611L8.28836 8.45765L8.2826 8.45693L8.27755 8.45405L8.274 8.44946L8.27246 8.44386L8.27319 8.4381V8.41458C8.76202 7.9079 9.34864 7.50576 9.99755 7.23254C10.6464 6.95932 11.344 6.82072 12.0479 6.82511C12.752 6.82951 13.4478 6.97683 14.0932 7.25815C14.7386 7.53945 15.3202 7.94889 15.8026 8.46163Z" fill="#4ED0B3"/>
<path d="M15.5757 8.33871C15.5347 8.32645 15.4986 8.30178 15.4722 8.26814C15.4636 8.25742 15.4522 8.24929 15.4392 8.2446C15.3734 8.21166 15.3263 8.19754 15.2981 8.18813C15.204 8.17401 15.011 8.18342 14.7099 8.21636C14.6958 8.21636 14.677 8.21166 14.6581 8.19754C14.6492 8.18906 14.6374 8.18406 14.6251 8.18342C14.531 8.19284 14.418 8.11284 14.3334 8.06578C14.2862 8.04225 14.211 8.01873 14.1592 7.97166H14.1499L14.131 7.98578L14.1263 7.98703L14.1216 7.98578V7.98107C14.1179 7.97014 14.1117 7.96022 14.1036 7.95206C14.0954 7.9439 14.0854 7.93772 14.0746 7.93401C14.0202 7.90558 13.9599 7.89033 13.8986 7.88952C13.8373 7.8887 13.7766 7.90234 13.7217 7.92931L13.7164 7.92858L13.7124 7.92521L13.7109 7.92024L13.7122 7.91519V7.90578C13.7122 7.89166 13.7075 7.89166 13.6981 7.90107C13.6351 7.96355 13.5514 8.00044 13.4627 8.0046C13.3893 8.05901 13.3186 8.11713 13.251 8.17872C13.0958 8.3293 12.7522 8.42343 12.5451 8.36696C12.3757 8.3199 12.211 8.33402 12.0462 8.39049C11.9616 8.41872 11.891 8.46578 11.8251 8.53636C11.731 8.6399 11.6557 8.75754 11.5993 8.8799C11.5758 8.92696 11.5334 8.9599 11.5286 9.02107C11.5286 9.10107 11.5192 9.18107 11.4957 9.22813C11.4722 9.28931 11.4862 9.32695 11.4675 9.37401C11.4298 9.45402 11.3829 9.43048 11.317 9.29872C11.3134 9.28814 11.3117 9.27695 11.3122 9.26578C11.3069 9.22367 11.2958 9.1825 11.2793 9.14342C11.2322 9.01637 11.317 8.86107 11.3405 8.73401C11.3741 8.56621 11.3627 8.39247 11.3075 8.23048L11.2793 7.29872C11.2793 7.2846 11.2746 7.27519 11.2604 7.27049C11.1946 7.25637 11.091 7.22342 11.0298 7.26108C11.011 7.27049 10.9922 7.29872 10.9828 7.33637C10.9358 7.46342 10.8651 7.58107 10.8604 7.72226C10.8604 7.75049 10.851 7.77871 10.8322 7.80225C10.826 7.8121 10.8227 7.82354 10.8229 7.83518C10.8134 7.92931 10.7945 8.01402 10.7758 8.11755C10.7616 8.22107 10.7004 8.28224 10.5875 8.30578C10.5763 8.30828 10.5646 8.3066 10.5546 8.30107C10.4558 8.23048 10.4793 8.1599 10.4322 8.05637C10.4266 8.04464 10.425 8.03145 10.4275 8.01873C10.4369 7.97166 10.4275 7.92931 10.4134 7.89166C10.411 7.88517 10.4072 7.87927 10.4024 7.8744C10.3976 7.86952 10.3916 7.86577 10.3852 7.86343C10.3051 7.82578 10.1686 7.82578 10.164 7.71754V7.6846L10.1169 7.54343C10.1096 7.5297 10.0987 7.51814 10.0855 7.5099C10.0723 7.50164 10.0572 7.49697 10.0416 7.49637L9.85339 7.47754C9.8411 7.47745 9.82879 7.4799 9.81749 7.48477C9.80618 7.48963 9.79594 7.49678 9.78751 7.50578C9.77847 7.51498 9.77166 7.52612 9.76757 7.53835C9.7635 7.55058 9.76226 7.56358 9.76398 7.57637C9.77809 7.73166 9.78751 7.90107 9.7828 8.07049C9.7828 8.12696 9.79221 8.18343 9.81101 8.2446C9.84395 8.33871 9.86283 8.43284 9.87217 8.52695C9.87689 8.57402 9.87217 8.62108 9.85339 8.66813C9.82726 8.72015 9.80057 8.77193 9.77339 8.82342C9.72893 8.84474 9.69379 8.88155 9.67457 8.92696C9.66045 8.95049 9.65103 8.95049 9.63691 8.92696L9.62281 8.89871C9.6181 8.8893 9.60868 8.8893 9.60397 8.89871L9.59456 8.91754C9.58985 8.92799 9.58149 8.93635 9.57103 8.94106H9.53339C9.50515 8.90813 9.48633 8.91283 9.48633 8.95518C9.47642 9.09147 9.47642 9.22831 9.48633 9.3646L9.50986 9.71754C9.50986 9.85403 9.52868 9.99052 9.55692 10.1223C9.57103 10.2069 9.55692 10.2728 9.51456 10.3199C9.5095 10.3243 9.50342 10.3275 9.49688 10.3292C9.49034 10.3308 9.48349 10.3308 9.47692 10.3293C9.46938 10.3281 9.46236 10.3246 9.45656 10.3197C9.45075 10.3148 9.44642 10.3083 9.44398 10.301C9.38801 10.0873 9.35644 9.86786 9.34986 9.64695C9.34986 9.56696 9.32634 9.49637 9.31691 9.41166H9.2981C9.3075 9.44461 9.29809 9.46814 9.28397 9.48695C9.28112 9.4886 9.27786 9.48947 9.27456 9.48947C9.27126 9.48947 9.26802 9.4886 9.26515 9.48695C9.26171 9.48617 9.25856 9.48442 9.25607 9.48191C9.25357 9.47942 9.25183 9.47627 9.25103 9.47283C9.24633 9.08695 9.23221 8.71048 9.21809 8.34342C9.21339 8.21636 9.17104 7.99048 9.19457 7.87284C9.19927 7.83049 9.21339 7.80696 9.22751 7.79284C9.26045 7.7599 9.26515 7.73166 9.24162 7.70342C9.28868 7.65637 9.34044 7.62343 9.39691 7.5999C9.49104 7.56225 9.53809 7.53402 9.56162 7.52461C9.82045 7.37401 10.0981 7.24225 10.3992 7.14814C10.4463 7.13402 10.4698 7.14814 10.4746 7.1952C10.4793 7.23754 10.4934 7.27519 10.5122 7.30813C10.517 7.32225 10.5264 7.32225 10.5357 7.30813C10.5922 7.26108 10.5734 7.2093 10.5734 7.14342C10.5745 7.12382 10.5828 7.10532 10.5966 7.09143C10.6106 7.07755 10.629 7.06925 10.6487 7.06813C10.757 7.06343 10.8651 7.02107 10.9405 7.00225C11.1758 6.9599 11.4063 6.93637 11.637 6.93166C11.8251 6.93166 12.0746 6.8893 12.2958 6.91754L12.6062 6.94578L12.9169 6.97402C12.9922 6.98343 13.0581 7.02107 13.1334 7.03049C13.3781 7.06813 13.5522 7.11048 13.6463 7.15283C13.7969 7.21872 13.9522 7.27519 14.1075 7.33166C14.2487 7.37872 14.4651 7.49166 14.7616 7.67048C14.8886 7.74578 14.964 7.87284 15.091 7.95283L15.204 8.04695L15.2086 8.06107V8.07049H15.2134L15.331 8.11284C15.3451 8.11284 15.3546 8.12225 15.364 8.13166L15.4204 8.20225L15.4251 8.21166C15.4863 8.23989 15.538 8.28226 15.5804 8.33871H15.5757Z" fill="#2FB498"/>
<path d="M15.5766 8.33885C15.6473 8.40003 15.7226 8.44238 15.8026 8.4612C16.1319 8.80473 16.4191 9.21415 16.6638 9.68474C16.7108 9.76474 16.7296 9.81178 16.6638 9.89183C16.451 10.1449 16.2093 10.3723 15.9438 10.5694C15.9169 10.5282 15.8834 10.4917 15.845 10.4612C15.8354 10.4545 15.8286 10.4444 15.8262 10.4329L15.8026 10.2447C15.8014 10.2384 15.7986 10.2325 15.7946 10.2275C15.7903 10.2226 15.7851 10.2188 15.779 10.2165C15.7131 10.1883 15.6708 10.2071 15.6049 10.2023C15.5579 10.2023 15.5108 10.226 15.4731 10.226C15.1908 10.2447 14.9744 10.2447 14.8143 10.226C14.659 10.2071 14.4849 10.2023 14.3814 10.1883L14.2261 10.1741C14.132 10.1601 13.9908 10.1271 13.8685 10.1317C13.859 10.1317 13.8497 10.1365 13.8544 10.1506V10.1694C13.8685 10.1883 13.8638 10.193 13.845 10.1741C13.8211 10.1541 13.7914 10.1425 13.7602 10.1412C13.4494 9.82704 13.0616 9.59986 12.6356 9.48238C12.3532 9.38355 12.0379 9.4165 11.7462 9.42591C11.5767 9.43062 11.3132 9.53414 11.1343 9.60473C10.739 9.76003 10.3908 9.99537 10.1037 10.3106C10.0285 10.3341 9.96261 10.3671 9.89673 10.4047C9.89212 10.4085 9.88685 10.4113 9.88125 10.4129C9.87554 10.4145 9.86961 10.4149 9.86379 10.4141C9.83085 10.4047 9.80257 10.4141 9.78376 10.4329C9.64258 10.5741 9.48729 10.7106 9.27552 10.6306C9.27013 10.6295 9.26529 10.6265 9.26185 10.6222C9.25841 10.618 9.25659 10.6125 9.25669 10.6071V10.5694C9.25669 10.5553 9.24729 10.5506 9.23317 10.5647L9.22846 10.5741H9.21905C9.20963 10.5553 9.19553 10.5506 9.17199 10.5553C9.07787 10.5741 9.00257 10.5836 8.92729 10.6495C8.91763 10.659 8.90651 10.6669 8.89434 10.6729L8.68729 10.7765C8.67317 10.7765 8.66846 10.7765 8.66846 10.7624C8.66846 10.7483 8.66847 10.7389 8.65905 10.7341C8.65375 10.7301 8.64747 10.7276 8.64086 10.7267C8.63425 10.7259 8.62753 10.7268 8.62141 10.7294L8.51787 10.7624C8.49625 10.7684 8.47678 10.7804 8.46178 10.797C8.44677 10.8137 8.43685 10.8344 8.43317 10.8565C8.43317 10.8941 8.41905 10.9413 8.40493 10.9929L8.41435 11.0024L8.40964 11.0118H8.39552L8.3861 11.0165C8.38102 11.0429 8.38102 11.0701 8.3861 11.0965L8.38141 11.1153C8.37669 11.12 8.36729 11.1247 8.35788 11.12H8.35317V11.1529L8.33905 11.1624L8.30141 11.1106C8.29584 11.102 8.28757 11.0953 8.27787 11.0917C8.26785 11.0891 8.25851 11.0844 8.25041 11.0779C8.24232 11.0714 8.23564 11.0633 8.23081 11.0541C8.22868 11.0489 8.22551 11.044 8.22145 11.0399C8.21741 11.036 8.21259 11.0328 8.20729 11.0306C8.12729 11.0024 8.03317 10.946 7.96258 11.0118C7.95209 11.0225 7.93918 11.0306 7.92493 11.0353L7.71317 11.0965C7.69905 11.1012 7.68964 11.0965 7.68023 11.0965C7.66611 11.087 7.65199 11.0917 7.63317 11.1012C7.62689 11.1052 7.61977 11.1076 7.6124 11.1082C7.60501 11.1089 7.59758 11.1078 7.59069 11.105C7.58382 11.1023 7.57769 11.0979 7.5728 11.0923C7.56791 11.0869 7.56441 11.0801 7.56257 11.073C7.55986 11.0507 7.55152 11.0296 7.53836 11.0115C7.52517 10.9933 7.5076 10.9789 7.48729 10.9694C7.4737 10.964 7.45852 10.964 7.44493 10.9694C7.43143 10.9729 7.41969 10.9813 7.41199 10.9929C7.28494 11.2612 6.98847 11.0683 6.94141 10.8753C7.15787 9.94354 7.60023 9.09179 8.27787 8.41414V8.43767C8.27787 8.44142 8.27937 8.445 8.28201 8.44767C8.28465 8.45031 8.28825 8.45179 8.29199 8.45179H8.30141L8.85669 7.95767C8.86417 7.95095 8.87202 7.94467 8.88022 7.93885L9.24257 7.70355C9.2661 7.73179 9.26141 7.76003 9.22846 7.79297C9.21434 7.80709 9.20022 7.83062 9.19553 7.86826C9.17199 7.99062 9.21434 8.21649 9.21905 8.34826C9.23868 8.72927 9.25437 9.11046 9.26611 9.49179C9.26938 9.49279 9.27286 9.49287 9.27617 9.49205C9.27949 9.49123 9.28251 9.48951 9.28493 9.48709C9.30376 9.46827 9.30846 9.44003 9.29905 9.4165L9.30845 9.41179H9.31317C9.32729 9.4965 9.35081 9.56709 9.35081 9.64708C9.36052 9.8748 9.39685 10.1007 9.45905 10.3201C9.46681 10.327 9.47686 10.3308 9.48729 10.3308C9.4977 10.3308 9.50775 10.327 9.51552 10.3201C9.56257 10.273 9.57199 10.2071 9.55317 10.1224C9.52608 9.989 9.51034 9.85361 9.5061 9.71767C9.5061 9.62355 9.49669 9.50591 9.48729 9.36473C9.47738 9.22844 9.47738 9.09161 9.48729 8.95532C9.48729 8.91297 9.5061 8.90826 9.53435 8.94119H9.57199C9.58244 8.93649 9.59081 8.92812 9.59552 8.91767L9.60493 8.89885C9.60964 8.88943 9.61905 8.88943 9.62376 8.89885L9.63787 8.92709C9.65199 8.95062 9.6614 8.95062 9.67552 8.92709C9.69434 8.88003 9.72729 8.84708 9.77434 8.82355C9.79997 8.77047 9.82503 8.71715 9.84963 8.66356C9.87313 8.6165 9.87785 8.56943 9.87313 8.52239C9.86379 8.42826 9.8449 8.33415 9.81197 8.24473C9.79201 8.18891 9.78244 8.12989 9.78376 8.07062C9.79019 7.89315 9.78389 7.71543 9.76493 7.53885C9.76851 7.52603 9.77507 7.51424 9.78406 7.50443C9.79305 7.49462 9.80423 7.48707 9.81669 7.48238H9.85907L10.0473 7.4965C10.0619 7.49827 10.0759 7.50345 10.0882 7.51163C10.1004 7.51979 10.1106 7.53074 10.1179 7.54356C10.1419 7.599 10.1578 7.65766 10.165 7.71767C10.165 7.82591 10.3061 7.82591 10.3861 7.86356C10.3926 7.8659 10.3985 7.86966 10.4034 7.87453C10.4082 7.8794 10.4121 7.88531 10.4143 7.89179C10.4331 7.92944 10.4378 7.9765 10.4286 8.01886L10.4331 8.0565C10.4802 8.15532 10.4567 8.23061 10.5556 8.30121C10.5612 8.30455 10.5674 8.30671 10.5739 8.30752C10.5804 8.30833 10.587 8.30779 10.5932 8.30591C10.6966 8.28238 10.7626 8.2212 10.7814 8.11767L10.8238 7.83532C10.8238 7.82121 10.8238 7.81179 10.8331 7.80238C10.8502 7.7791 10.8601 7.75125 10.8613 7.72239C10.8661 7.5812 10.9367 7.46355 10.9838 7.33651C10.9931 7.29885 11.012 7.27062 11.0308 7.26121C11.0919 7.22356 11.1955 7.2565 11.2614 7.27062C11.2755 7.27532 11.2802 7.28473 11.2802 7.29885L11.3085 8.23061C11.3085 8.24474 11.3085 8.25415 11.3179 8.26355C11.3697 8.36709 11.365 8.6165 11.3414 8.73414C11.3179 8.8612 11.2332 9.0165 11.2802 9.14355C11.299 9.19062 11.3085 9.22826 11.3132 9.26591L11.3179 9.29885C11.3838 9.43062 11.4308 9.45415 11.4685 9.37415C11.4873 9.32708 11.4732 9.28944 11.4967 9.22826C11.5202 9.18121 11.5296 9.1012 11.5296 9.02591C11.5343 8.96003 11.5767 8.92709 11.6002 8.88474C11.6566 8.75767 11.732 8.64003 11.8261 8.5365C11.892 8.46591 11.9673 8.41885 12.0473 8.39062C12.2119 8.33415 12.3766 8.31533 12.5461 8.36709C12.7532 8.42356 13.0967 8.32943 13.252 8.17885C13.318 8.11736 13.3872 8.05925 13.4591 8.00474C13.5532 8.00003 13.6331 7.96239 13.6943 7.9012C13.7085 7.89179 13.7132 7.89179 13.7132 7.9012V7.91532C13.7113 7.91719 13.7102 7.91974 13.7102 7.92239C13.7102 7.92503 13.7113 7.92756 13.7132 7.92944C13.715 7.93131 13.7176 7.93236 13.7202 7.93236C13.7229 7.93236 13.7254 7.93131 13.7273 7.92944C13.845 7.87297 13.9626 7.87767 14.0802 7.93415C14.099 7.94355 14.1085 7.95767 14.1179 7.9812L14.1219 7.98499L14.1273 7.98591H14.132L14.1509 7.97179H14.1602C14.212 8.01886 14.2873 8.04238 14.3343 8.06591C14.419 8.11297 14.5273 8.19297 14.6214 8.18355C14.6355 8.18355 14.6496 8.18827 14.659 8.19767C14.6779 8.21179 14.6967 8.21649 14.7109 8.21649C14.9054 8.18701 15.1026 8.17755 15.2991 8.18826C15.3273 8.19297 15.3743 8.21179 15.4402 8.24473L15.4731 8.26827C15.4967 8.3012 15.5344 8.32474 15.5814 8.33885H15.5766Z" fill="#289E88"/>
<path d="M15.9438 10.5689C15.5957 10.823 15.2097 10.9831 14.7909 11.063C14.6713 11.0828 14.5521 11.1048 14.4333 11.1289C14.274 10.7584 14.0438 10.4228 13.7557 10.1407C13.7886 10.1407 13.8169 10.1548 13.8451 10.1736C13.8638 10.1925 13.8685 10.1878 13.8591 10.1689C13.8563 10.1631 13.8547 10.1566 13.8545 10.1501C13.8545 10.1359 13.8545 10.1312 13.8685 10.1312C13.9956 10.1312 14.1273 10.1596 14.2262 10.1736L14.3816 10.1878C14.485 10.2018 14.6639 10.2066 14.8144 10.2254C14.9745 10.2442 15.1909 10.2442 15.4733 10.2254C15.5109 10.2254 15.5627 10.1971 15.605 10.2018C15.6709 10.2018 15.7133 10.1878 15.7792 10.216C15.7858 10.2186 15.7916 10.2231 15.7957 10.2291C15.7999 10.2349 15.8023 10.2418 15.8026 10.2489L15.8262 10.4324C15.8262 10.4419 15.8356 10.456 15.845 10.4606C15.8827 10.4936 15.9204 10.5312 15.9438 10.5689ZM10.1038 10.3101C9.8638 10.5829 9.68389 10.9032 9.57604 11.2504C9.4682 11.5974 9.43478 11.9633 9.478 12.3242L9.44976 12.3148C9.43094 12.3053 9.42153 12.3148 9.42153 12.3336C9.42028 12.3478 9.41582 12.3616 9.40848 12.3737C9.40114 12.386 9.39112 12.3964 9.37918 12.4041C9.37456 12.4084 9.3709 12.4134 9.36846 12.4191C9.36602 12.4248 9.36486 12.4309 9.36506 12.4371C9.36506 12.47 9.34152 12.4936 9.29917 12.5077C9.25212 12.5219 9.20976 12.5596 9.18153 12.6254C9.175 12.6362 9.16507 12.6444 9.15329 12.6489L9.078 12.696C9.01618 12.8005 8.95809 12.9072 8.90388 13.016C8.9076 13.0086 8.90953 13.0006 8.90953 12.9925C8.90953 12.9843 8.9076 12.9762 8.90388 12.9688C8.89447 12.9548 8.88506 12.9548 8.87094 12.9688C8.84869 13.0052 8.81998 13.0371 8.78624 13.063C8.77952 13.0669 8.77385 13.0723 8.76976 13.0789C8.76565 13.0855 8.76322 13.0929 8.76271 13.1007C8.76271 13.143 8.73917 13.1572 8.69682 13.143C8.68712 13.1395 8.67886 13.1329 8.67329 13.1243L8.64035 13.063C8.63456 13.053 8.63132 13.0417 8.63094 13.0301L8.61212 12.6065C8.61007 12.5803 8.59991 12.5553 8.58305 12.5351C8.56619 12.5148 8.54346 12.5004 8.518 12.4936C8.39564 12.456 8.32976 12.4136 8.198 12.4889C8.18697 12.4951 8.1786 12.5052 8.17448 12.5172L8.12741 12.6584C8.11329 12.7053 8.08036 12.743 8.08976 12.8042L8.08506 12.8371L8.02388 12.9736C8.01785 12.9858 8.0099 12.9968 8.00035 13.0065C7.9774 13.0295 7.95689 13.0548 7.93918 13.0819C7.92976 13.1007 7.91564 13.1054 7.89212 13.1007H7.86859L7.86388 13.1148V13.1336C7.86858 13.1948 7.85448 13.2277 7.81682 13.2277C7.81212 13.2277 7.80741 13.2277 7.80741 13.2372C7.80741 13.2466 7.798 13.2513 7.78859 13.2513C7.77918 13.2516 7.76976 13.2516 7.76035 13.2513C7.70388 13.2184 7.64271 13.2277 7.59564 13.1948C7.56201 13.1747 7.53183 13.1492 7.50623 13.1196C7.49734 13.1101 7.48588 13.1036 7.47329 13.1007C7.442 13.0895 7.41436 13.0699 7.3933 13.0442C7.38312 13.0336 7.3704 13.0261 7.3564 13.0219C7.34237 13.0177 7.32752 13.0174 7.31329 13.0207C7.30023 13.0235 7.28796 13.0292 7.27736 13.0373C7.26678 13.0454 7.25815 13.0559 7.25212 13.0677L7.20976 13.1665C7.2014 13.1869 7.1854 13.2032 7.16519 13.212C7.14499 13.2208 7.12215 13.2214 7.10152 13.2136C7.06068 13.1996 7.01761 13.1932 6.97448 13.1948C6.86288 12.7168 6.81228 12.2266 6.82389 11.736C6.8333 11.4443 6.87094 11.1571 6.94153 10.8748C6.9886 11.0677 7.28507 11.2607 7.41212 10.9924C7.4171 10.9822 7.42534 10.9739 7.43555 10.9687C7.44576 10.9636 7.45738 10.962 7.46859 10.9642H7.48741C7.53448 10.9924 7.558 11.0253 7.5627 11.0724C7.5642 11.0804 7.56773 11.0878 7.57294 11.094C7.57814 11.1001 7.58485 11.1048 7.59242 11.1077C7.59998 11.1105 7.60815 11.1114 7.61613 11.1101C7.62412 11.1089 7.63165 11.1056 7.638 11.1007C7.65212 11.0912 7.66624 11.0865 7.68506 11.096H7.7133L7.92505 11.0348L7.96271 11.0113C8.03329 10.9454 8.12741 11.0019 8.20742 11.03C8.21683 11.03 8.22624 11.0395 8.23094 11.0536C8.24036 11.0724 8.25447 11.0819 8.278 11.0912C8.28769 11.0948 8.29596 11.1015 8.30153 11.1101L8.33447 11.1571H8.33917L8.34859 11.1524V11.1242H8.358C8.36741 11.1242 8.37682 11.1242 8.38153 11.1148V11.096L8.38624 11.016L8.39564 11.0113H8.40976C8.41448 11.0113 8.41917 11.0113 8.40976 11.0019C8.40506 10.9924 8.40036 10.9877 8.40976 10.9924L8.43329 10.8607C8.43612 10.8377 8.44567 10.816 8.46073 10.7985C8.4758 10.7809 8.49573 10.7682 8.518 10.7618L8.62153 10.7289H8.65917C8.6686 10.7384 8.67329 10.7478 8.6686 10.7618C8.6686 10.776 8.67329 10.7807 8.68741 10.776L8.89447 10.6724C8.90664 10.6664 8.91776 10.6585 8.92741 10.6489C9.0027 10.5831 9.0733 10.5736 9.17212 10.5548C9.19565 10.5548 9.20976 10.5548 9.21917 10.5689H9.2286L9.238 10.5642C9.25211 10.5501 9.25682 10.5548 9.25682 10.5689V10.6065C9.25682 10.616 9.26153 10.6253 9.27564 10.63C9.48741 10.7101 9.64271 10.5736 9.78388 10.4324C9.8027 10.4136 9.83097 10.4042 9.86392 10.4136L9.89686 10.4089C9.95802 10.3618 10.0286 10.3336 10.1038 10.3148V10.3101Z" fill="#1F8174"/>
<path d="M13.3132 11.3939C13.1373 11.0798 12.8604 10.8343 12.5273 10.6974C12.3345 10.6223 12.1273 10.5906 11.9208 10.6044C11.7142 10.6183 11.5132 10.6773 11.3321 10.7775C11.2049 10.8433 10.9649 11.0128 10.9085 11.1539L10.8897 11.1633H10.885L10.8803 11.1775C10.8803 11.1916 10.8756 11.2057 10.8614 11.2057C10.8535 11.21 10.8469 11.2166 10.8426 11.2245L10.7768 11.3186C10.7391 11.3799 10.7061 11.3939 10.6826 11.361C10.8367 11.0556 11.0932 10.814 11.4073 10.6787C11.492 10.6457 11.5768 10.5986 11.6661 10.5798C11.9081 10.5246 12.1598 10.5278 12.4003 10.5892C12.6027 10.6363 12.8238 10.801 12.9791 10.9187C13.1203 11.0363 13.2332 11.1963 13.3085 11.3939H13.3132Z" fill="#4ED0B3"/>
<path d="M13.3126 11.3927C13.4675 11.6703 13.5197 11.9935 13.4603 12.3056C13.401 12.6179 13.2338 12.8995 12.988 13.1008C12.5644 13.4774 11.962 13.5715 11.4068 13.3267C11.0611 13.1644 10.7904 12.8764 10.6496 12.5215C10.5089 12.1665 10.5087 11.7712 10.6491 11.4161C10.6577 11.396 10.6688 11.3771 10.682 11.3597C10.7056 11.3927 10.7385 11.3786 10.7762 11.3173L10.842 11.2232C10.8464 11.2153 10.8529 11.2087 10.8608 11.2044C10.875 11.2044 10.8797 11.1903 10.8797 11.1762V11.1667L10.8892 11.162L10.9032 11.1573L10.908 11.148C10.9644 11.0068 11.2044 10.8421 11.3315 10.7762C11.5126 10.6761 11.7136 10.617 11.9202 10.6031C12.1268 10.5893 12.3338 10.6211 12.5268 10.6962C12.8327 10.8139 13.0915 11.0444 13.3126 11.3927Z" fill="#1D7A6F"/>
<path d="M9.47715 12.3288C9.5148 12.6111 9.56657 12.8935 9.72187 13.1053C9.79716 13.2135 9.86307 13.3029 9.84418 13.4393C9.79716 13.8441 9.37363 14.2534 8.9501 14.1453C8.88854 14.1292 8.82544 14.1197 8.76186 14.1169C8.27246 14.1124 7.89127 14.1264 7.50069 14.4464C7.4949 14.4513 7.48802 14.4546 7.48066 14.4563C7.47329 14.4579 7.46563 14.4578 7.45834 14.4558C7.45098 14.4541 7.44415 14.4507 7.43842 14.4457C7.43267 14.4408 7.42822 14.4346 7.42539 14.4276C7.37833 14.2864 7.29363 14.1358 7.24657 14.0135C7.14173 13.7454 7.05063 13.4721 6.97363 13.1946C7.02069 13.1946 7.06304 13.1993 7.10068 13.2135C7.1213 13.2213 7.14414 13.2206 7.16434 13.2118C7.18455 13.2031 7.20055 13.1868 7.20891 13.1664L7.25128 13.0723C7.25965 13.052 7.27563 13.0356 7.29585 13.0269C7.31605 13.0181 7.33889 13.0175 7.35951 13.0253L7.39246 13.0441C7.41598 13.0723 7.4395 13.0912 7.47245 13.1005C7.48657 13.1005 7.49598 13.11 7.50538 13.1194C7.52892 13.1476 7.56186 13.1758 7.5948 13.1946C7.64186 13.2276 7.70303 13.2182 7.7595 13.2512H7.78774C7.79716 13.2512 7.80186 13.2512 7.80657 13.237C7.80657 13.2323 7.81128 13.2276 7.82069 13.2276C7.85363 13.2276 7.86774 13.1946 7.85833 13.1334C7.85791 13.1284 7.85851 13.1233 7.86013 13.1184C7.86174 13.1136 7.86434 13.1091 7.86774 13.1053C7.87716 13.0958 7.88186 13.0958 7.89598 13.1005C7.91011 13.1053 7.92892 13.1005 7.94303 13.0817C7.9593 13.0549 7.97822 13.0296 7.9995 13.0064C8.00906 12.9968 8.01701 12.9857 8.02303 12.9735L8.08422 12.8323C8.08683 12.823 8.08683 12.8133 8.08422 12.8041C8.0795 12.7429 8.11245 12.7005 8.12657 12.6629L8.17363 12.517C8.17774 12.505 8.18613 12.4949 8.19715 12.4888C8.32422 12.4135 8.3948 12.4558 8.52186 12.4888C8.54881 12.4961 8.57262 12.512 8.58963 12.5341C8.60664 12.5561 8.6159 12.5833 8.61598 12.6111L8.6301 13.0346C8.6301 13.0441 8.6301 13.0535 8.63951 13.0629L8.67245 13.1241C8.67802 13.1328 8.68628 13.1394 8.69598 13.1429C8.73833 13.1571 8.75715 13.1429 8.76186 13.1005C8.76308 13.0936 8.76583 13.0871 8.7699 13.0814C8.77397 13.0757 8.77926 13.0709 8.78539 13.0676C8.81914 13.0417 8.84785 13.0098 8.8701 12.9735C8.88422 12.9547 8.89362 12.9547 8.89834 12.9735V13.0111C8.9541 12.9023 9.01375 12.7956 9.07715 12.6912L9.15244 12.6488C9.16422 12.6443 9.17416 12.6361 9.18069 12.6253C9.20891 12.5594 9.24657 12.5217 9.29833 12.5076C9.34068 12.4935 9.3595 12.4699 9.36421 12.4369C9.36402 12.4309 9.36518 12.4247 9.36762 12.4189C9.37006 12.4133 9.37371 12.4082 9.37834 12.4041C9.39028 12.3962 9.4003 12.3859 9.40762 12.3736C9.41498 12.3614 9.41943 12.3477 9.42068 12.3335C9.42068 12.3146 9.4301 12.3052 9.44891 12.3146L9.47715 12.3241V12.3288Z" fill="#1A7169"/>
<path d="M16.6585 14.2725C16.5886 14.2398 16.5297 14.1875 16.4892 14.1218C16.4825 14.1115 16.4746 14.1021 16.4656 14.0936L16.1927 13.8301C16.0233 13.6889 15.8397 13.5571 15.6468 13.4442C15.5762 13.3971 15.4963 13.3783 15.4209 13.3407C15.1152 13.1972 14.7875 13.1065 14.4515 13.0724C14.4329 13.07 14.414 13.0732 14.3972 13.0815C14.3805 13.09 14.3666 13.1032 14.3574 13.1195C14.3103 13.2137 14.2445 13.2983 14.1927 13.3878C14.0798 13.5995 13.8962 13.7642 13.7315 13.9336C13.6609 14.0042 13.581 14.0701 13.4868 14.1218L13.1762 14.3102L12.668 14.5078L12.3856 14.5642C11.9951 14.6206 11.5998 14.583 11.2044 14.456C11.0821 14.4183 10.9691 14.3618 10.8421 14.3901C10.5927 14.4419 10.3809 14.6254 10.2444 14.8372C10.2376 14.8489 10.2279 14.8585 10.2162 14.8654C10.1927 14.8794 10.1786 14.8747 10.1738 14.8466C10.315 14.5972 10.5174 14.423 10.7857 14.329C10.9127 14.2818 11.0492 14.3477 11.1715 14.3854C11.6284 14.5374 12.1186 14.5593 12.5873 14.4487C13.0559 14.3382 13.4847 14.0995 13.8256 13.7594C13.9198 13.6606 14.0186 13.5713 14.0939 13.4583C14.1833 13.3313 14.268 13.1994 14.348 13.0677C14.3856 13.0018 14.4374 12.9878 14.508 13.0018C15.1197 13.1148 15.6468 13.3172 16.1456 13.7266C16.3715 13.9102 16.5409 14.0936 16.6539 14.2725H16.6585Z" fill="#4ED0B3"/>
<path d="M16.1882 13.8304L16.2164 14.2868C16.2173 14.302 16.2132 14.3172 16.2047 14.33C16.1963 14.3427 16.1838 14.3524 16.1693 14.3574C16.1589 14.3615 16.1476 14.363 16.1364 14.3621C16.0947 14.3578 16.0526 14.3643 16.014 14.3808C16.0063 14.3832 15.9996 14.3881 15.9953 14.3951L15.8259 14.7386C15.8111 14.766 15.8044 14.797 15.807 14.828L15.8259 15.0209C15.8259 15.0539 15.84 15.0586 15.8541 15.0304C15.9482 14.8704 16.0423 14.715 16.1411 14.5692C16.1788 14.5127 16.2352 14.4562 16.2776 14.3856C16.2871 14.3716 16.2964 14.3668 16.3105 14.3763L16.3247 14.3856L16.334 14.3998V14.4185L15.4683 15.7644C15.454 15.788 15.4306 15.7973 15.407 15.7833L15.3929 15.7786L15.3835 15.7739V15.7504C15.5529 15.4727 15.6659 15.2986 15.7129 15.2328C15.76 15.1715 15.76 15.115 15.7318 15.068C15.7259 15.0563 15.7227 15.0434 15.7224 15.0304L15.6941 14.7809C15.6941 14.7716 15.6941 14.7574 15.7035 14.748C15.7169 14.726 15.7345 14.7069 15.7552 14.6915C15.7599 14.6891 15.7638 14.6858 15.7672 14.6817C15.7703 14.6776 15.7728 14.6729 15.774 14.668C15.7835 14.6068 15.8306 14.5644 15.8494 14.5268C15.8684 14.4877 15.8872 14.4485 15.9058 14.4092C15.9072 14.3949 15.9032 14.3807 15.8944 14.3692C15.8856 14.358 15.8728 14.3504 15.8588 14.348C15.8262 14.3434 15.7931 14.3501 15.7647 14.3668C15.7556 14.3707 15.748 14.3774 15.743 14.3858C15.7379 14.3943 15.7356 14.404 15.7364 14.4138C15.7411 14.508 15.7364 14.5692 15.7318 14.6068C15.7082 14.7009 15.6894 14.7009 15.6705 14.6068L15.6329 14.4045C15.6315 14.3957 15.6276 14.3876 15.6219 14.3808C15.616 14.3742 15.6084 14.3693 15.6 14.3668C15.5909 14.3636 15.5811 14.3632 15.5719 14.3657C15.5626 14.3683 15.5544 14.3736 15.5482 14.3808C15.5341 14.3981 15.5274 14.42 15.5294 14.4421L15.52 14.4751L15.1624 15.1056C15.1152 15.1998 15.0493 15.2515 14.96 15.2939L14.9458 15.2986C14.9403 15.2988 14.9348 15.2976 14.9299 15.2951C14.9249 15.2927 14.9208 15.2889 14.9176 15.2844L14.9128 15.2656C14.9036 15.0304 14.9128 14.8609 14.7952 14.6444C14.7858 14.6351 14.7764 14.6304 14.767 14.6398L14.7247 14.6444C14.7164 14.6434 14.7086 14.6404 14.702 14.6354C14.6955 14.6304 14.6903 14.6238 14.687 14.6162C14.6836 14.6086 14.6821 14.6003 14.683 14.592C14.6838 14.5838 14.6868 14.5759 14.6917 14.5692C14.7341 14.5221 14.767 14.4751 14.7952 14.428C14.8038 14.4208 14.8096 14.4108 14.8114 14.3999C14.8132 14.389 14.8112 14.3777 14.8056 14.368C14.7999 14.3584 14.7911 14.3512 14.7805 14.3475C14.77 14.3439 14.7586 14.344 14.7481 14.348C14.6823 14.3527 14.6211 14.3716 14.5505 14.3716C14.0878 14.3699 13.625 14.3636 13.1624 14.3527C13.1529 14.3433 13.1529 14.3386 13.1624 14.3292L13.1717 14.3056L13.4824 14.1173C13.5764 14.0656 13.6564 13.9997 13.727 13.9292C13.8916 13.7597 14.0752 13.595 14.1881 13.3833C14.24 13.2892 14.3012 13.2139 14.3528 13.1198C14.362 13.1034 14.376 13.0903 14.3927 13.0818C14.4095 13.0735 14.4284 13.0703 14.4471 13.0727C14.7717 13.1056 15.1152 13.1856 15.4164 13.3362C15.4917 13.3739 15.5716 13.3974 15.6423 13.4397C15.8352 13.5528 16.0188 13.6845 16.1882 13.8256V13.8304Z" fill="#1A7169"/>
<path d="M16.1879 13.8297L16.4702 14.0932L16.4891 14.1215C16.5361 14.1873 16.588 14.2392 16.6538 14.2721C16.6396 14.3709 16.6067 14.4603 16.5643 14.5262C16.2491 15.0422 15.8517 15.5031 15.3879 15.8909C15.2749 15.9851 15.1526 16.0886 15.0397 16.1732C14.4286 16.6042 13.7373 16.9083 13.0067 17.0674C12.9502 17.0203 12.936 16.9262 12.9549 16.8039C12.9596 16.7474 12.9268 16.6861 12.922 16.6297L12.8844 16.2015C12.8749 16.1216 12.8844 16.0132 12.8608 15.9192C12.8188 15.7724 12.8028 15.6195 12.8137 15.4673C12.809 15.3732 12.7761 15.2651 12.7761 15.1615C12.7761 15.1473 12.7761 15.1333 12.7668 15.1239C12.7432 15.0768 12.762 15.0297 12.7432 14.9827C12.7384 14.9739 12.7352 14.9643 12.7338 14.9544L12.7196 14.6015L12.7244 14.5592L12.7291 14.545C12.7338 14.5309 12.7291 14.5215 12.7149 14.5168L12.668 14.5074L13.1761 14.3098C13.1761 14.3144 13.1761 14.3238 13.1667 14.3332C13.1526 14.3427 13.1573 14.3473 13.1667 14.3568L13.2044 14.3615C13.6562 14.3709 14.1032 14.3756 14.5549 14.3756C14.6255 14.3756 14.6867 14.3568 14.7525 14.352C14.7618 14.3514 14.771 14.3532 14.7793 14.3574C14.7876 14.3616 14.7946 14.3679 14.7996 14.3756C14.8057 14.3838 14.8091 14.3936 14.8091 14.4039C14.8091 14.414 14.8057 14.424 14.7996 14.4321C14.7715 14.4791 14.7385 14.5262 14.6961 14.5733C14.6911 14.5799 14.6879 14.5878 14.6869 14.5961C14.6859 14.6045 14.6871 14.6129 14.6905 14.6205C14.6938 14.6282 14.6992 14.6349 14.706 14.6399C14.7127 14.6447 14.7207 14.6477 14.7291 14.6485L14.7715 14.6438C14.7808 14.6344 14.7902 14.6392 14.7996 14.6485C14.9125 14.8651 14.908 15.0344 14.9172 15.2696C14.9171 15.2752 14.9183 15.2807 14.9208 15.2856C14.9232 15.2905 14.9269 15.2948 14.9314 15.298C14.9364 15.3008 14.942 15.3024 14.9479 15.3024C14.9536 15.3024 14.9593 15.3008 14.9644 15.298C15.0584 15.2556 15.1149 15.2038 15.1668 15.1097C15.2858 14.8867 15.4081 14.6656 15.5338 14.4461C15.5338 14.4227 15.5338 14.3992 15.5526 14.385C15.5582 14.3773 15.5661 14.3716 15.5751 14.3685C15.5841 14.3653 15.5939 14.3651 15.603 14.3676C15.6122 14.3702 15.6204 14.3754 15.6265 14.3828C15.6326 14.39 15.6364 14.3991 15.6372 14.4086L15.6749 14.6108C15.6938 14.7051 15.7126 14.7051 15.736 14.6108C15.7455 14.5733 15.7455 14.5074 15.7408 14.4132C15.74 14.4034 15.7424 14.3936 15.7474 14.3852C15.7524 14.3768 15.76 14.37 15.769 14.3662C15.798 14.3511 15.8311 14.3461 15.8632 14.352C15.8772 14.3544 15.89 14.362 15.8988 14.3733C15.9075 14.3848 15.9116 14.3991 15.9102 14.4132L15.9055 14.4368L15.8585 14.5309C15.8349 14.5686 15.7879 14.6108 15.7784 14.6721C15.7784 14.6815 15.769 14.6909 15.7596 14.6956C15.7389 14.711 15.7213 14.7301 15.7079 14.752C15.7007 14.7615 15.6973 14.7732 15.6985 14.785L15.7268 15.0344L15.736 15.072C15.769 15.1192 15.7644 15.1756 15.722 15.2321C15.6037 15.4092 15.4908 15.5896 15.3832 15.7732C15.3846 15.7758 15.3867 15.778 15.3891 15.7796C15.3916 15.7812 15.3944 15.7824 15.3973 15.7827L15.4114 15.7874C15.435 15.8015 15.4585 15.7921 15.4725 15.7685L16.329 14.418L16.3337 14.3992C16.3325 14.3935 16.3291 14.3884 16.3244 14.385L16.3102 14.3756C16.296 14.3662 16.2868 14.3709 16.2773 14.385C16.2396 14.4556 16.1832 14.512 16.1408 14.5686C16.042 14.7144 15.9479 14.8698 15.8585 15.0297C15.8396 15.058 15.8303 15.0532 15.8256 15.0203L15.8067 14.8274C15.8067 14.7944 15.8067 14.7662 15.8256 14.738L15.995 14.3944C15.995 14.3897 16.0043 14.3803 16.0138 14.3803C16.0523 14.3637 16.0944 14.3572 16.1361 14.3615C16.152 14.3626 16.168 14.3588 16.1814 14.3503C16.1949 14.3417 16.2055 14.3292 16.2114 14.3144V14.2862L16.1926 13.8297H16.1879Z" fill="#1D7A6F"/>
<path d="M15.4735 14.3806L15.0736 15.0348C15.0716 15.0365 15.0692 15.0376 15.0665 15.0382C15.0639 15.0387 15.0612 15.0383 15.0588 15.0373C15.0563 15.0364 15.0542 15.0347 15.0527 15.0326C15.0512 15.0305 15.0501 15.028 15.05 15.0253L14.9652 14.376V14.3712L14.97 14.3665C14.9724 14.3638 14.9757 14.3621 14.9793 14.3618H15.4641C15.4671 14.3607 15.4704 14.3607 15.4735 14.3618V14.3806ZM12.3912 14.5642C12.4099 14.663 12.4053 14.7384 12.3724 14.7948C12.3608 14.8147 12.3561 14.8377 12.3586 14.8605C12.3612 14.8834 12.3709 14.9049 12.3864 14.9218C12.4288 14.9689 12.4428 15.03 12.4428 15.096C12.4428 15.2465 12.4523 15.3972 12.4758 15.5477C12.4994 15.7029 12.5417 16.0183 12.4288 16.1453C12.377 16.2018 12.3912 16.23 12.4712 16.2253C12.4852 16.2253 12.5041 16.2348 12.5182 16.2629C12.5276 16.2771 12.5371 16.2959 12.5371 16.3195C12.5464 16.4276 12.5653 16.5312 12.4523 16.6018C12.4493 16.604 12.447 16.6068 12.4454 16.6101C12.4437 16.6133 12.4428 16.6169 12.4428 16.6206L12.4476 16.63L12.4617 16.6395C12.4758 16.6395 12.4852 16.6395 12.4947 16.63C12.5028 16.6239 12.5127 16.6206 12.5229 16.6206C12.5606 16.6206 12.5793 16.6348 12.584 16.6724C12.5858 16.8202 12.5952 16.9679 12.6123 17.1147H12.6029L12.5935 17.1194C12.4523 17.1383 12.3111 17.1288 12.17 17.1054C12.1229 17.096 12.1088 17.0583 12.1371 17.0018C12.1464 16.9784 12.1371 16.9641 12.1088 16.9547L12.09 16.95C12.0842 16.9513 12.0792 16.9547 12.0759 16.9594C12.0528 17.0004 12.037 17.045 12.0288 17.0912C12.0282 17.0949 12.0269 17.0985 12.0249 17.1017C12.023 17.1049 12.0204 17.1078 12.0172 17.11C12.0142 17.1122 12.0108 17.1137 12.0071 17.1145C12.0033 17.1153 11.9996 17.1155 11.9959 17.1147L11.6052 17.1054C11.5998 17.1055 11.5943 17.1044 11.5893 17.1019C11.5844 17.0994 11.5801 17.0957 11.5771 17.0912C11.497 16.9736 11.5488 16.8841 11.5911 16.7807C11.6005 16.7618 11.6005 16.7524 11.5911 16.743C11.5818 16.7336 11.5724 16.7288 11.5629 16.743L11.4876 16.8136C11.4849 16.8166 11.4817 16.819 11.478 16.8207C11.4744 16.8223 11.4704 16.8232 11.4665 16.8232C11.4624 16.8232 11.4584 16.8223 11.4548 16.8207C11.4511 16.819 11.448 16.8166 11.4453 16.8136C11.3982 16.7477 11.4829 16.63 11.5252 16.5783C11.5294 16.573 11.5324 16.567 11.534 16.5605C11.5356 16.554 11.5359 16.5472 11.5347 16.5407C11.5347 16.5124 11.5441 16.4842 11.5629 16.4606C11.5681 16.4538 11.5713 16.4456 11.5724 16.4371C11.5738 16.4274 11.5721 16.4176 11.5676 16.4089C11.5632 16.4012 11.5572 16.3946 11.5498 16.3896C11.5424 16.3848 11.534 16.3816 11.5252 16.3807C11.5143 16.3772 11.5044 16.3707 11.497 16.3618C11.4714 16.2298 11.4557 16.0962 11.45 15.9618C11.4406 15.7453 11.3841 15.5619 11.4735 15.3265V15.3124C11.4735 15.3029 11.4735 15.2984 11.464 15.2936C11.4453 15.2654 11.4264 15.2654 11.4171 15.2984C11.4154 15.3081 11.4122 15.3176 11.4076 15.3265C11.3605 15.4018 11.3276 15.4818 11.3136 15.5712C11.3136 15.5853 11.3041 15.59 11.2946 15.5948C11.1064 15.623 10.8946 15.59 10.7628 15.59C10.6218 15.59 10.5182 15.5853 10.3676 15.6136C10.2876 15.6277 10.217 15.6277 10.1417 15.6183C10.1182 15.3359 10.0006 15.1476 10.1746 14.8465C10.1794 14.8747 10.1935 14.8794 10.2217 14.8654C10.2316 14.8579 10.2397 14.8483 10.2452 14.8372C10.3817 14.6253 10.5936 14.4419 10.8429 14.39C10.9652 14.3665 11.0829 14.4183 11.2052 14.4559C11.6005 14.5829 11.9959 14.6206 12.3912 14.5642Z" fill="#1F8174"/>
<path d="M12.6678 14.5078L12.7148 14.5171C12.729 14.5218 12.7337 14.5313 12.729 14.5453V14.5595L12.7195 14.6019L12.7337 14.9548C12.7337 14.9642 12.7337 14.9736 12.743 14.9877C12.7618 15.0301 12.743 15.0724 12.7666 15.1242L12.7759 15.1619C12.7759 15.2654 12.8089 15.3736 12.8089 15.4677L12.823 15.7125C12.823 15.7501 12.8371 15.8207 12.8607 15.9148C12.8842 16.0089 12.8747 16.1219 12.8842 16.1971L12.9218 16.6301C12.9266 16.6865 12.9595 16.7478 12.9548 16.8042C12.9359 16.9313 12.9548 17.0159 13.0018 17.0677C12.7477 17.1148 12.5501 17.1524 12.4136 17.1618C11.9111 17.2047 11.405 17.1713 10.9125 17.063C10.6771 17.0159 10.4607 16.936 10.2301 16.8606C10.1501 16.8325 10.0418 16.7665 9.94772 16.7571C9.88656 16.7571 9.87239 16.7241 9.90072 16.6725C10.0889 16.3289 10.1689 15.976 10.1406 15.6183C10.216 15.6278 10.2866 15.6278 10.3665 15.6136C10.5171 15.5854 10.6207 15.5901 10.7618 15.5901C10.8936 15.5901 11.1101 15.6231 11.2936 15.5901C11.303 15.5901 11.3125 15.5854 11.3125 15.5713C11.3266 15.4818 11.3594 15.4018 11.4066 15.3266C11.4112 15.3177 11.4144 15.3081 11.416 15.2984C11.4254 15.2654 11.4442 15.2654 11.463 15.2984C11.4667 15.302 11.4695 15.3064 11.4711 15.3113C11.4728 15.3163 11.4732 15.3214 11.4725 15.3266C11.3783 15.5619 11.4395 15.7454 11.4442 15.9618C11.4515 16.0963 11.4688 16.23 11.4959 16.3618L11.5242 16.3807C11.5336 16.3807 11.5441 16.3804 11.5488 16.3897L11.5666 16.4089C11.5694 16.4181 11.5694 16.4279 11.5666 16.4372C11.567 16.4453 11.5654 16.4534 11.5618 16.4606C11.5424 16.4826 11.5323 16.5113 11.5336 16.5407C11.5348 16.5473 11.5346 16.554 11.533 16.5605C11.5313 16.567 11.5283 16.5731 11.5242 16.5784C11.4819 16.6301 11.3971 16.7478 11.4442 16.8137C11.449 16.819 11.4558 16.8225 11.463 16.823C11.4674 16.8234 11.4718 16.8228 11.4758 16.8211C11.48 16.8195 11.4837 16.8169 11.4865 16.8137L11.5618 16.7431C11.5713 16.7289 11.5807 16.7336 11.5901 16.7431C11.5995 16.7524 11.5995 16.7618 11.5901 16.7807C11.543 16.8841 11.4959 16.9737 11.576 17.0913C11.5807 17.1007 11.5901 17.1054 11.6042 17.1054L11.9948 17.1148C12.0015 17.1149 12.0081 17.1125 12.0132 17.1083C12.0184 17.104 12.0219 17.098 12.023 17.0913C12.0325 17.0442 12.0512 16.9972 12.0748 16.9595L12.0889 16.9501H12.1078C12.136 16.9642 12.1454 16.9784 12.136 17.0019C12.1078 17.063 12.1218 17.096 12.169 17.1054C12.3151 17.1302 12.4641 17.1334 12.6112 17.1148C12.6126 17.1118 12.6132 17.1086 12.6132 17.1054C12.6132 17.1021 12.6126 17.0989 12.6112 17.096C12.5972 16.9548 12.583 16.8137 12.583 16.6725C12.583 16.6348 12.5595 16.6206 12.5218 16.6206C12.5116 16.6206 12.5018 16.6239 12.4936 16.6301C12.4892 16.6341 12.484 16.6371 12.4782 16.6388C12.4726 16.6404 12.4665 16.6406 12.4607 16.6395C12.4561 16.6386 12.4519 16.6365 12.4485 16.6333C12.4452 16.6301 12.4429 16.6253 12.4418 16.6206C12.4408 16.6161 12.4413 16.6121 12.4429 16.6079C12.4446 16.6036 12.4475 16.5999 12.4513 16.5971C12.5642 16.5313 12.5454 16.4277 12.536 16.3149C12.5337 16.2964 12.5272 16.2786 12.5171 16.263C12.503 16.2348 12.4842 16.2253 12.4702 16.2253C12.3901 16.2301 12.3759 16.2018 12.4278 16.1454C12.5406 16.0184 12.4983 15.703 12.4747 15.5477C12.4526 15.3982 12.4417 15.2472 12.4418 15.096C12.4418 15.0301 12.4278 14.9642 12.3854 14.9218C12.3691 14.9053 12.3589 14.8837 12.3564 14.8608C12.3538 14.8377 12.359 14.8145 12.3713 14.7948C12.4042 14.7384 12.4089 14.663 12.3901 14.5642L12.6678 14.5078Z" fill="#1A7169"/>
<path d="M9.55275 15.0828L9.54333 15.111L9.53863 15.1204C9.53506 15.1226 9.53099 15.1236 9.52687 15.1236C9.52274 15.1236 9.51867 15.1226 9.51509 15.1204H9.50568C9.43039 15.0311 9.35981 14.9323 9.27039 14.8663C9.12207 14.7458 8.94559 14.6647 8.75744 14.6311C8.22569 14.5417 7.78804 14.7299 7.44922 15.1958C7.63745 14.8005 7.95275 14.5839 8.39509 14.5463C8.8751 14.4993 9.26099 14.6828 9.55275 15.0828Z" fill="#4ED0B3"/>
<path d="M13.1718 16.2347C13.1859 16.1783 13.1859 16.1218 13.2142 16.0699C13.2707 15.9523 13.3365 15.8347 13.4024 15.7218C13.4871 15.5664 13.5623 15.3923 13.6519 15.237C13.6659 15.2088 13.6801 15.2135 13.6801 15.2464C13.6801 15.2935 13.6707 15.3406 13.6424 15.3923C13.5107 15.6183 13.4353 15.8253 13.2801 16.0794C13.2613 16.1029 13.2424 16.1641 13.2236 16.2535C13.2236 16.2676 13.2142 16.2818 13.2 16.3006C13.1933 16.3088 13.1885 16.3185 13.1859 16.3288C13.1483 16.4982 13.2 16.7006 13.233 16.8653C13.2424 16.9406 13.2189 16.9829 13.1531 16.9971C13.1436 16.9971 13.1295 16.9971 13.1201 16.9876C13.0919 16.9641 13.0824 16.9359 13.0966 16.8935V16.87C13.0683 16.7617 13.0495 16.6488 13.0447 16.5406L13.0118 16.2207C12.9798 16.0229 12.9609 15.8231 12.9554 15.623C12.9554 15.5147 12.9554 15.4347 12.9319 15.3782C12.9174 15.3039 12.9127 15.2279 12.9177 15.1523C12.9177 15.0912 12.9083 15.0159 12.899 14.9265C12.88 14.8135 12.88 14.6959 12.899 14.5782C12.899 14.5641 12.9083 14.5594 12.9224 14.5594L12.9412 14.5641C12.9507 14.5641 12.9507 14.5735 12.9554 14.5829C13.0023 14.79 13.026 14.9971 13.0307 15.2041C13.0307 15.2511 13.0447 15.3265 13.0636 15.4347C13.0824 15.5382 13.0636 15.6512 13.0824 15.75C13.1112 15.9125 13.1363 16.0757 13.1578 16.2394H13.1671L13.1718 16.2347Z" fill="#1A7169"/>
<path d="M9.55297 15.0827C9.83538 15.5204 9.83538 16.1181 9.50591 16.5415C9.35185 16.7327 9.14458 16.8739 8.91029 16.9474C8.67599 17.0209 8.42519 17.0233 8.18954 16.9543C7.9539 16.8854 7.74397 16.7481 7.58629 16.5599C7.4286 16.3717 7.33021 16.1409 7.30357 15.8968C7.26592 15.6192 7.31297 15.3886 7.44474 15.1957C7.78827 14.7298 8.22592 14.5416 8.76239 14.631C8.94591 14.6639 9.11533 14.7392 9.27533 14.8662C9.36003 14.9322 9.43062 15.031 9.51062 15.1157C9.514 15.1205 9.51902 15.1238 9.52474 15.1251C9.52884 15.1246 9.53274 15.123 9.53605 15.1206C9.53935 15.1181 9.54194 15.1148 9.54357 15.111L9.55297 15.0827Z" fill="#1F8174"/>
<path d="M10.9978 15.0919V14.8472C10.9978 14.8407 10.9992 14.8342 11.0017 14.8281C11.0045 14.8221 11.0084 14.8166 11.0133 14.8122C11.0181 14.8078 11.0238 14.8044 11.0301 14.8023C11.0364 14.8003 11.0431 14.7995 11.0496 14.8003L11.1767 14.819C11.2049 14.8237 11.2236 14.8425 11.2236 14.8755L11.252 15.1343C11.2533 15.1419 11.2531 15.1496 11.2512 15.157C11.2492 15.1644 11.2456 15.1714 11.2406 15.1772C11.2356 15.183 11.2294 15.1877 11.2224 15.1909C11.2154 15.1941 11.2079 15.1956 11.2002 15.1955L10.9601 15.1767C10.9565 15.1772 10.9527 15.1765 10.9494 15.1749C10.946 15.1731 10.9432 15.1705 10.9414 15.1673V15.1531L10.9508 15.1437L10.9837 15.1202C10.9883 15.117 10.9919 15.1128 10.9944 15.1079C10.9968 15.103 10.998 15.0975 10.9978 15.0919Z" fill="#1A7169"/>
<path d="M11.8493 15.5202C11.8023 15.6237 11.7834 15.7179 11.807 15.7273C11.8353 15.7366 11.8917 15.6614 11.9341 15.5579C11.9811 15.4543 12 15.3602 11.9765 15.3508C11.9529 15.3413 11.8917 15.4167 11.8493 15.5202Z" fill="#1D7A6F"/>
<path fill-rule="evenodd" clip-rule="evenodd" d="M12 20C14.1218 20 16.1566 19.1571 17.6569 17.6568C19.1571 16.1566 20 14.1218 20 12C20 9.87828 19.1571 7.84343 17.6569 6.34314C16.1566 4.84286 14.1218 4 12 4C9.87827 4 7.84343 4.84286 6.34314 6.34314C4.84286 7.84343 4 9.87828 4 12C4 14.1218 4.84286 16.1566 6.34314 17.6568C7.84343 19.1571 9.87827 20 12 20ZM12 19.5294C13.9969 19.5294 15.9121 18.7362 17.3241 17.3241C18.7362 15.912 19.5294 13.9969 19.5294 12C19.5294 10.003 18.7362 8.08793 17.3241 6.6759C15.9121 5.26386 13.9969 4.47058 12 4.47058C10.0031 4.47058 8.08793 5.26386 6.6759 6.6759C5.26386 8.08793 4.47058 10.003 4.47058 12C4.47058 13.9969 5.26386 15.912 6.6759 17.3241C8.08793 18.7362 10.0031 19.5294 12 19.5294Z" fill="#52FDD1"/>
</svg>
