<svg width="24" height="24" viewBox="0 0 24 24" fill="none" xmlns="http://www.w3.org/2000/svg">
<path d="M10.875 3C6.43123 3.5625 3 7.37624 3 12C3 16.6237 6.43123 20.4374 10.875 20.9999V18.6544C9.30364 18.387 7.87762 17.5723 6.84941 16.3544C5.8212 15.1364 5.25715 13.5939 5.25715 12C5.25715 10.4061 5.8212 8.86358 6.84941 7.64566C7.87762 6.42774 9.30364 5.61297 10.875 5.34562V3ZM13.125 20.9999C17.5687 20.4374 21 16.6237 21 12C21 7.37624 17.5687 3.5625 13.125 3V5.34562C14.0419 5.50065 14.917 5.84349 15.6953 6.35263C16.4734 6.86177 17.1381 7.52625 17.6475 8.30437C17.7206 8.66998 17.6532 9.21562 17.1974 9.52505C16.9885 9.67271 16.7389 9.75198 16.4831 9.75198C16.2272 9.75198 15.9776 9.67271 15.7687 9.52505V9.53621C15.2424 8.73146 14.4723 8.1164 13.571 7.78121C12.6699 7.44603 11.6849 7.40834 10.7607 7.67368C9.83643 7.93903 9.02152 8.49343 8.43533 9.25565C7.84915 10.0179 7.52253 10.9478 7.50333 11.9092C7.48416 12.8705 7.77342 13.8127 8.32872 14.5978C8.88404 15.3827 9.67617 15.9693 10.5892 16.2713C11.502 16.5733 12.4877 16.5749 13.4016 16.2759C14.3154 15.9769 15.1095 15.3931 15.6675 14.6099V14.6325C15.8705 14.4091 16.1453 14.2639 16.4443 14.2216C16.7432 14.1795 17.0474 14.2433 17.3044 14.4019C17.7319 14.6832 17.8388 15.0881 17.8107 15.4424C17.3096 16.286 16.6309 17.0102 15.8218 17.5649C15.0127 18.1196 14.0923 18.4913 13.125 18.6544V20.9999ZM18.1874 12C18.1874 12.2983 18.069 12.5845 17.858 12.7955C17.647 13.0065 17.3608 13.125 17.0625 13.125C16.7641 13.125 16.4779 13.0065 16.267 12.7955C16.0559 12.5845 15.9374 12.2983 15.9374 12C15.9374 11.7016 16.0559 11.4155 16.267 11.2045C16.4779 10.9934 16.7641 10.8749 17.0625 10.8749C17.3608 10.8749 17.647 10.9934 17.858 11.2045C18.069 11.4155 18.1874 11.7016 18.1874 12Z" fill="url(#paint0_linear_328_23367)"/>
<defs>
<linearGradient id="paint0_linear_328_23367" x1="5.62687" y1="5.32312" x2="19.0537" y2="16.2075" gradientUnits="userSpaceOnUse">
<stop stop-color="#FF5300"/>
<stop offset="1" stop-color="#FBB705"/>
</linearGradient>
</defs>
</svg>
