<svg width="24" height="24" viewBox="0 0 24 24" fill="none" xmlns="http://www.w3.org/2000/svg">
<path d="M20.35 9.34999L17.49 8.895L19.675 7.995L20.165 6.06L19.59 5.05999L16.7801 4.25L18.21 6.26499L18.22 6.28L17.105 6.54999L14.3449 4.68999L12.005 4.96499L9.665 4.68999L6.90501 6.54999L5.79 6.28L5.795 6.26499L7.23001 4.25L4.41501 5.055L3.83501 6.06L4.32501 7.995L6.51 8.895L3.65001 9.34999L3 11.075L4.96 12.005L6.81001 11.3649L7.075 13.305L8.295 16.0899L8.885 17.6L11.75 19.58L12 19.745V19.7501H12.005L12.25 19.58L15.115 17.6L15.71 16.0899L16.925 13.305L17.19 11.3649L19.04 12.005L21 11.075L20.35 9.34999ZM4.60501 5.29999L6.52001 4.74999L5.48 6.20999L4.215 5.97999L4.60501 5.29499V5.29999ZM4.185 6.25999L5.3 6.46499L4.515 7.55999L4.185 6.25999ZM6.785 11.075L4.98001 11.7L3.365 10.935L3.865 9.60503L6.785 9.13498V11.075ZM6.785 8.70005L4.67501 7.82999L5.61001 6.52999L6.785 6.81499V8.70005ZM14.84 9.455L14.565 10.355H9.43501L9.16501 9.455L12 5.43499L14.84 9.455ZM10.2651 13.125L9.525 10.6349H14.4749L13.735 13.125H10.2651ZM13.65 13.41L12.73 15.795L12.005 16.385L11.275 15.795L10.355 13.41H13.65ZM7.075 8.37499V6.78L9.73501 4.98499L11.7899 5.22499H11.8051L11.8 5.23499L8.905 9.30998L7.075 8.37499ZM8.56001 15.9849L7.36 13.23L7.09 11.28L9.25001 10.725L9.99997 13.2501L9.40001 14.5L8.575 16.0151L8.56001 15.98V15.9849ZM8.71 16.3699L9.57 14.7901L11.7751 16.57L11.7 16.63L9.09 17.34L8.715 16.3699H8.71ZM12 19.4L9.34 17.5599L12 16.84L14.665 17.5649L12 19.405V19.4ZM14.91 17.335L12.3001 16.625L12.225 16.565L14.43 14.78L15.29 16.3651L14.91 17.335ZM16.645 13.225L15.445 15.975L15.43 16.0151L14.605 14.5L14 13.2501L14.75 10.72L16.915 11.27L16.6499 13.2199L16.645 13.225ZM16.9299 8.37L15.095 9.30497L12.2049 5.22999L12.2 5.22H12.21L14.27 4.97999L16.9299 6.77499V8.37ZM19.49 7.55499L18.7051 6.455L19.82 6.25499L19.49 7.55499ZM17.48 4.74999L19.395 5.29999L19.79 5.97999L18.52 6.20999L17.48 4.74999ZM17.215 6.81499L18.3949 6.52499L19.3301 7.82999L17.215 8.70005V6.81499ZM19.0249 11.7L17.215 11.075V9.13498L20.14 9.60503L20.64 10.935L19.0249 11.7Z" fill="url(#paint0_linear_328_20208)"/>
<defs>
<linearGradient id="paint0_linear_328_20208" x1="21" y1="12" x2="3" y2="12" gradientUnits="userSpaceOnUse">
<stop stop-color="#FF825D"/>
<stop offset="0.52" stop-color="#97A0D1"/>
<stop offset="1" stop-color="white"/>
</linearGradient>
</defs>
</svg>
