<svg width="24" height="24" viewBox="0 0 24 24" fill="none" xmlns="http://www.w3.org/2000/svg">
<path d="M13.43 3C11.0431 3 8.75392 3.94821 7.0661 5.63604C5.37828 7.32386 4.43005 9.61308 4.43005 12C4.43005 14.3869 5.37828 16.6761 7.0661 18.364C8.75392 20.0518 11.0431 21 13.43 21V3Z" fill="url(#paint0_linear_328_20231)"/>
<path d="M13.6866 7.88516C12.9594 7.88518 12.2451 8.07792 11.6168 8.44377C10.9883 8.80964 10.468 9.33553 10.1089 9.96785C9.74984 10.6002 9.56479 11.3166 9.57261 12.0436C9.58042 12.7708 9.78083 13.4829 10.1534 14.1074C10.526 14.732 11.0574 15.2465 11.6936 15.5988C12.3297 15.951 13.0479 16.1284 13.775 16.1128C14.502 16.0972 15.2119 15.8891 15.8324 15.5098C16.4528 15.1306 16.9618 14.5936 17.3071 13.9537L19.5701 15.188C18.8609 16.4949 17.7364 17.5281 16.3742 18.1242C15.012 18.7204 13.49 18.8454 12.0488 18.4797C10.6077 18.1138 9.32949 17.278 8.41654 16.1044C7.50359 14.9308 7.00793 13.4864 7.00793 11.9995C7.00793 10.5125 7.50359 9.06808 8.41654 7.89446C9.32949 6.72084 10.6077 5.88503 12.0488 5.51922C13.49 5.15341 15.012 5.27846 16.3742 5.87461C17.7364 6.47075 18.8609 7.50397 19.5701 8.81088L17.3071 10.0451C16.9547 9.39203 16.4319 8.84643 15.7946 8.46616C15.1572 8.08591 14.4288 7.88515 13.6866 7.88516Z" fill="white"/>
<path opacity="0.5" d="M13.43 3C11.0431 3 8.75392 3.94821 7.0661 5.63604C5.37828 7.32386 4.43005 9.61308 4.43005 12C4.43005 14.3869 5.37828 16.6761 7.0661 18.364C8.75392 20.0518 11.0431 21 13.43 21V3Z" fill="url(#paint1_linear_328_20231)"/>
<defs>
<linearGradient id="paint0_linear_328_20231" x1="13.43" y1="3.50915" x2="11.63" y2="20.2336" gradientUnits="userSpaceOnUse">
<stop stop-color="#23B77F"/>
<stop offset="0.44" stop-color="#2857B3"/>
<stop offset="0.65" stop-color="#396CC6"/>
<stop offset="0.82" stop-color="#5AA3EA"/>
<stop offset="1" stop-color="#92F5EA"/>
</linearGradient>
<linearGradient id="paint1_linear_328_20231" x1="13.43" y1="3.50915" x2="11.63" y2="20.2336" gradientUnits="userSpaceOnUse">
<stop stop-color="#23B77F"/>
<stop offset="0.44" stop-color="#2857B3"/>
<stop offset="0.65" stop-color="#396CC6"/>
<stop offset="0.82" stop-color="#5AA3EA"/>
<stop offset="1" stop-color="#92F5EA"/>
</linearGradient>
</defs>
</svg>
