<svg width="24" height="24" viewBox="0 0 24 24" fill="none" xmlns="http://www.w3.org/2000/svg">
<path d="M9.58241 12.6379L12.8415 15.9117C12.9341 16.0023 13.0078 16.1105 13.0581 16.23C13.1083 16.3494 13.1343 16.4776 13.1343 16.6073C13.1343 16.7369 13.1083 16.8652 13.0581 16.9847C13.0078 17.1041 12.9341 17.2124 12.8415 17.3029L11.1001 19.0054C10.7109 19.3946 10.0785 19.3946 9.68457 19.0054L3.29272 12.6818C3.20005 12.591 3.12642 12.483 3.07616 12.3635C3.02589 12.244 3 12.1158 3 11.9861C3 11.8565 3.02589 11.7282 3.07616 11.6087C3.12642 11.4893 3.20005 11.3812 3.29272 11.2905L9.6991 4.9911C10.0883 4.60681 10.7206 4.60681 11.1098 4.9911L12.8415 6.69364C12.9349 6.78431 13.0092 6.89283 13.0599 7.01272C13.1107 7.13263 13.1368 7.26149 13.1368 7.39168C13.1368 7.52187 13.1107 7.65072 13.0599 7.77063C13.0092 7.89054 12.9349 7.99904 12.8415 8.08972L9.58241 11.3781C9.50047 11.4597 9.43542 11.5568 9.39119 11.6635C9.34693 11.7704 9.3243 11.885 9.32458 12.0007C9.32458 12.2293 9.41214 12.4579 9.58241 12.6379ZM16.3731 10.1327C16.4658 10.0422 16.5393 9.93398 16.5896 9.81447C16.6399 9.69506 16.6658 9.56675 16.6658 9.43716C16.6658 9.30756 16.6399 9.17927 16.5896 9.05982C16.5393 8.94037 16.4658 8.83215 16.3731 8.74156L15.7116 8.08972C15.3224 7.70057 14.69 7.70057 14.296 8.08972L11.0758 11.3002C10.9824 11.3909 10.9081 11.4994 10.8574 11.6192C10.8067 11.7393 10.7806 11.8681 10.7806 11.9982C10.7806 12.1284 10.8067 12.2572 10.8574 12.3772C10.9081 12.4971 10.9824 12.6056 11.0758 12.6963L14.296 15.8971C14.6851 16.2863 15.3175 16.2863 15.7066 15.8971L16.3731 15.2452C16.4658 15.1547 16.5393 15.0465 16.5896 14.927C16.6399 14.8076 16.6658 14.6793 16.6658 14.5497C16.6658 14.42 16.6399 14.2918 16.5896 14.1723C16.5393 14.0529 16.4658 13.9446 16.3731 13.854L14.8554 12.4141C14.7434 12.3054 14.6787 12.1568 14.6754 12.0007C14.6754 11.845 14.7337 11.6894 14.8554 11.5726L16.3731 10.1327ZM17.7449 10.2155L16.4315 11.3197C16.3388 11.4103 16.2652 11.5185 16.215 11.638C16.1647 11.7574 16.1388 11.8856 16.1388 12.0153C16.1388 12.1449 16.1647 12.2732 16.215 12.3927C16.2652 12.5121 16.3388 12.6202 16.4315 12.7109L17.7449 13.7957C17.9394 13.9902 18.3139 14.0875 18.5669 14.0875C18.8247 14.0875 19.1993 13.9902 19.3939 13.7957L20.7073 12.7109C20.7999 12.6202 20.8735 12.5121 20.9239 12.3927C20.9741 12.2732 21 12.1449 21 12.0153C21 11.8856 20.9741 11.7574 20.9239 11.638C20.8735 11.5185 20.7999 11.4103 20.7073 11.3197L19.3939 10.2155C19.1631 10.0196 18.8698 9.91253 18.5669 9.91389C18.3139 9.91389 17.9345 10.0161 17.7399 10.2155H17.7449Z" fill="url(#paint0_linear_328_27887)"/>
<defs>
<linearGradient id="paint0_linear_328_27887" x1="3.01058" y1="12.0007" x2="20.9699" y2="12.0007" gradientUnits="userSpaceOnUse">
<stop offset="0.03" stop-color="#1D398C"/>
<stop offset="0.21" stop-color="#1E3D8F"/>
<stop offset="0.38" stop-color="#214997"/>
<stop offset="0.55" stop-color="#255CA4"/>
<stop offset="0.72" stop-color="#2C78B7"/>
<stop offset="0.89" stop-color="#349BCE"/>
<stop offset="1" stop-color="#3BB7E1"/>
</linearGradient>
</defs>
</svg>
