<svg width="24" height="24" viewBox="0 0 24 24" fill="none" xmlns="http://www.w3.org/2000/svg">
<path fill-rule="evenodd" clip-rule="evenodd" d="M18.2419 21H5.81659C5.32424 21 4.9166 20.6824 4.87954 20.2006L4.05894 7.97117C4.04797 7.80418 4.08377 7.63746 4.16234 7.4897C4.24089 7.34194 4.35908 7.219 4.50365 7.13471L11.5555 3.14294C11.7038 3.05295 11.8677 3.00528 12.0319 3C12.2066 3 12.3866 3.04765 12.5401 3.13765L19.4861 6.92294C19.7877 7.09765 19.9625 7.42059 19.9413 7.76471L19.1843 20.1953C19.1525 20.6718 18.7396 21 18.2419 21ZM17.3261 18.8823H6.72718L5.98601 8.77059L12.0424 5.11764L18.0089 8.59589L17.3207 18.8823H17.3261ZM8.13541 9.62295L8.35777 13.5882H13.8637L13.7524 15.1765H10.4489L10.3643 14.1177H8.38424L8.55894 17.2942H15.5101L15.8754 12H10.2107L10.1049 10.7294L12.0266 9.35294L14.1177 10.7294V11.4705H15.9125L16.0396 9.62295L12.0848 7.23529L8.13541 9.62295Z" fill="#E1AB4B"/>
</svg>
