<svg width="24" height="24" viewBox="0 0 24 24" fill="none" xmlns="http://www.w3.org/2000/svg">
<path fill-rule="evenodd" clip-rule="evenodd" d="M17.5482 20H6.50353C6.06589 20 5.70353 19.7177 5.67059 19.2894L4.94117 8.41882C4.93142 8.27038 4.96325 8.12218 5.03308 7.99084C5.1029 7.8595 5.20797 7.75022 5.33647 7.6753L11.6048 4.12706C11.7366 4.04706 11.8823 4.0047 12.0282 4C12.1835 4 12.3435 4.04235 12.48 4.12235L18.6542 7.48706C18.9223 7.64235 19.0777 7.92942 19.0588 8.2353L18.3859 19.2847C18.3577 19.7082 17.9906 20 17.5482 20ZM16.7342 18.1176H7.31294L6.65412 9.12942L12.0376 5.88234L17.3411 8.97412L16.7294 18.1176H16.7342ZM8.5647 9.88706L8.76235 13.4118H13.6565L13.5576 14.8235H10.6211L10.5459 13.8824H8.78588L8.94117 16.7059H15.12L15.4447 12H10.4094L10.3153 10.8706L12.0235 9.64706L13.8823 10.8706V11.5294H15.4777L15.5906 9.88706L12.0753 7.7647L8.5647 9.88706Z" fill="#E1AB4B"/>
</svg>
