<svg width="24" height="24" viewBox="0 0 24 24" fill="none" xmlns="http://www.w3.org/2000/svg">
<path d="M6.82739 4.68879H9.32092L11.1209 3.56116H8.83916L6.82739 4.68879ZM7.45209 7.55293L8.78621 5.19175H6.15504L4.88445 7.64292L7.45209 7.55293ZM7.32505 8.04528V10.6659H4.63562V8.04528H7.32505ZM12.8679 9.04056L14.668 10.1258H17.0239L15.2239 9.04056H12.8679ZM12.8468 20.4705H15.0968L16.9921 19.3588H14.6097L12.8468 20.4705ZM9.30504 13.9746L11.105 15.0653H8.74387L6.94386 13.9746H9.30504ZM16.6479 13.44V16.0605H19.3321V13.44H16.6479ZM15.1762 10.5865L16.5103 12.9529L19.078 13.043L17.8074 10.5865H15.1762ZM7.44681 11.153L8.78092 13.5195H6.14974L4.87916 11.0629L7.44681 11.153ZM15.1762 18.9141L16.5103 16.5476L19.078 16.4576L17.8074 18.9141H15.1762Z" fill="#7899F8"/>
<path d="M14.9805 3.52942H12.3759L13.7788 5.91707H16.41L14.9805 3.52942ZM15.8065 3.95295L16.9606 6.04942L18.9724 7.09237L17.8606 5.14414L15.8065 3.94765V3.95295ZM12.4818 8.55883L13.7895 6.30354L16.4629 6.4306L15.1606 8.55883H12.4765H12.4818ZM15.6053 8.73354L16.9976 6.56296L19.2211 7.81766L17.8765 10.0306L15.6053 8.73354ZM3 10.3747L4.23353 8.45824V10.6817L3 12.7941V10.3747ZM4.49823 11.2959L3.05823 13.6147L4.44529 15.9017L5.72647 13.6147L4.49823 11.2959ZM4.68352 16.2724L6.11294 13.9588L8.48999 15.3036L7.02882 17.5112L4.68352 16.2777V16.2724ZM6.99177 17.9241L5.05411 16.9924L6.12353 18.9194L8.04 20.0047L6.99177 17.9241ZM8.86058 20.4282L7.54765 18.0988H10.2635L11.5129 20.4282H8.86058ZM10.9253 7.90236L9.82936 9.81889L11.947 8.60119L12.8681 6.7959L10.92 7.90236H10.9253ZM9.67594 5.00119L11.8676 3.6353L13.2441 5.96471L10.9411 7.35177L9.67063 5.00119H9.67594ZM9.34235 5.40883L7.81235 7.72237L9.21 9.94057L10.5494 7.71706L9.34235 5.40883ZM7.81235 8.55354V10.867L8.98765 12.7517V10.4383L7.81235 8.55354ZM8.9347 15.4677L7.51059 17.5693H10.29L11.5606 15.4677H8.9347ZM11.0735 17.2307L12.1853 15.3778L14.0753 14.2607L12.8735 16.2459L11.0735 17.2307ZM12.9371 16.6906L10.7294 17.9824L12.1376 20.3224L14.2924 18.9776L12.9423 16.6906H12.9371ZM15.0335 11.2747L16.1983 13.2017V15.547L15.0335 13.6411V11.2747ZM14.7477 14.16L16.1242 16.3359L14.6152 18.644L13.2758 16.4101L14.7477 14.16ZM19.5971 8.13529L18.2629 10.4118L19.4912 12.8101L21 10.4118L19.5971 8.13529ZM19.687 13.3765L20.9576 11.3277V13.5724L19.687 15.4518V13.3765Z" fill="white"/>
</svg>
