<svg width="24" height="24" viewBox="0 0 24 24" fill="none" xmlns="http://www.w3.org/2000/svg">
<path d="M9.78542 9.4997H10.9556C11.0556 9.4997 11.1557 9.44968 11.2057 9.36467L12.0108 8.0394C12.1209 7.85938 12.4059 7.86437 12.511 8.04441L13.2861 9.35967C13.3361 9.44469 13.4361 9.4997 13.5362 9.4997H14.7164C14.9314 9.4997 15.0714 9.28465 14.9665 9.10462L12.5659 5.15883C12.5331 5.10932 12.4886 5.0687 12.4362 5.0406C12.3838 5.0125 12.3253 4.9978 12.2659 4.9978C12.2065 4.9978 12.1479 5.0125 12.0957 5.0406C12.0433 5.0687 11.9987 5.10932 11.9658 5.15883L9.54033 9.10962C9.43031 9.27966 9.56534 9.4997 9.79044 9.4997H9.78542ZM4.27429 19.0016H9.61534C9.86045 19.0016 9.9804 18.7065 9.8154 18.5315L8.79519 17.5013H7.03483C6.76978 17.5013 6.60975 17.1462 6.76478 16.9212L7.19986 16.281C7.25087 16.2049 7.27377 16.1133 7.26464 16.022C7.25551 15.9307 7.21494 15.8456 7.14986 15.7809L6.44972 15.0958C6.41969 15.0676 6.38373 15.0465 6.34445 15.034C6.30516 15.0215 6.26358 15.018 6.22277 15.0238C6.18195 15.0296 6.14297 15.0444 6.10867 15.0673C6.07437 15.0901 6.04566 15.1203 6.02463 15.1558L4.03924 18.5815C3.92922 18.7665 4.06424 19.0016 4.27429 19.0016ZM19.7274 19.0016H14.3862C14.1412 19.0016 14.0213 18.7065 14.1862 18.5315L15.2065 17.5013H16.9669C17.2318 17.5013 17.3918 17.1462 17.2369 16.9212L16.8018 16.281C16.7508 16.2049 16.7279 16.1133 16.737 16.022C16.7461 15.9307 16.7867 15.8456 16.8518 15.7809L17.5519 15.0958C17.677 14.9709 17.887 14.9958 17.977 15.1558L19.9624 18.5815C19.9867 18.6236 19.9997 18.6712 20 18.7197C20.0003 18.7683 19.9881 18.816 19.9643 18.8584C19.9406 18.9007 19.9063 18.9362 19.8647 18.9613C19.8232 18.9864 19.7758 19.0003 19.7274 19.0016ZM11.5008 10.2898V12.5904C11.5034 12.6957 11.4645 12.7977 11.3925 12.8745C11.3204 12.9512 11.221 12.9965 11.1157 13.0005H10.3455C10.1305 13.0005 10.0005 12.8204 10.0005 12.5953V11.9202C10.0005 11.7601 9.83536 11.5001 9.68541 11.5001H6.93481C6.68977 11.5001 6.56973 11.9502 6.74477 12.1303L9.50532 14.9808C9.67538 15.1558 10.0005 15.1459 10.0005 14.8958C10.0005 14.6757 10.1255 14.4957 10.3355 14.4957H11.1157C11.221 14.4997 11.3204 14.5448 11.3925 14.6216C11.4645 14.6984 11.5034 14.8005 11.5008 14.9057V18.6515C11.5008 18.9617 11.1507 19.1166 10.9356 18.9016L4.59935 12.2403C4.5357 12.1725 4.50026 12.0831 4.50026 11.9902C4.50026 11.8973 4.5357 11.8078 4.59935 11.7401L6.25968 9.99979H11.2258C11.3757 9.99979 11.5008 10.1298 11.5008 10.2898ZM12.5009 18.6515V10.4649C12.5009 10.2098 12.701 9.99979 12.946 9.99979H17.562C17.6819 9.99979 17.797 10.0498 17.877 10.1398L19.4074 11.7901C19.4823 11.8701 19.5074 11.9752 19.5023 12.0752C19.4874 12.1953 19.4074 12.2953 19.3323 12.3902L19.2622 12.4803L19.0273 12.8103L19.0172 12.8204C18.9573 12.9004 18.8922 12.9954 18.7872 13.0005H17.2419C17.1318 13.0005 17.0018 12.9103 17.0018 12.7904V12.7103C17.0018 12.5603 17.1018 12.4202 17.2119 12.3253L17.2269 12.3103C17.2868 12.2602 17.3618 11.9701 17.3618 11.8852C17.3618 11.7301 17.1969 11.5001 17.0468 11.5001H14.3263C14.1762 11.5001 14.0012 11.7601 14.0012 11.9202V14.7307C14.0012 15.0457 14.4114 15.2009 14.6214 14.9757L15.1365 14.5257C15.1564 14.5057 15.1864 14.5007 15.2166 14.5007H16.5118C16.8068 14.5007 16.9518 14.8658 16.7468 15.0908L13.071 18.8965C12.861 19.1217 12.5009 18.9617 12.5009 18.6515Z" fill="#E4323E"/>
</svg>
