<svg width="24" height="24" viewBox="0 0 24 24" fill="none" xmlns="http://www.w3.org/2000/svg">
<path d="M12.7117 3H3.6001V6.59999H11.4349C12.9487 6.6402 16.2 8.403 16.2 11.7719C16.2 15.81 13.0968 17.3999 11.4349 17.3999H7.2001V21H12.7117C15.2934 21 20.5165 18.426 20.3977 11.7719C20.2801 5.1192 15.1448 3 12.7117 3ZM9.00015 10.2H10.8001C11.2776 10.2 11.7353 10.3895 12.0729 10.7272C12.4104 11.0648 12.6001 11.5225 12.6001 12C12.6001 12.4774 12.4104 12.9352 12.0729 13.2727C11.7353 13.6104 11.2776 13.8 10.8001 13.8H9.00015V10.2ZM3.6001 12C3.6001 11.5225 3.78975 11.0648 4.12731 10.7272C4.46488 10.3895 4.9227 10.2 5.40011 10.2V13.8C4.9227 13.8 4.46488 13.6104 4.12731 13.2727C3.78975 12.9352 3.6001 12.4774 3.6001 12Z" fill="url(#paint0_linear_328_27999)"/>
<defs>
<linearGradient id="paint0_linear_328_27999" x1="7.251" y1="5.26221" x2="18.1131" y2="17.7096" gradientUnits="userSpaceOnUse">
<stop stop-color="#00EDEF"/>
<stop offset="1" stop-color="#0094FF"/>
</linearGradient>
</defs>
</svg>
