<svg width="24" height="24" viewBox="0 0 24 24" fill="none" xmlns="http://www.w3.org/2000/svg">
<path fill-rule="evenodd" clip-rule="evenodd" d="M11.6749 3.87109H4.74193V9.09691H3V11.4195H4.74193V12.5808H3V14.9035H4.74193V20.1291H11.6749C15.1587 20.1291 18.1258 17.9575 19.3046 14.9035H21V12.5808H19.8154C19.8429 12.1942 19.8429 11.8061 19.8154 11.4195H21V9.09691H19.3046C18.1258 6.04271 15.1529 3.87109 11.6749 3.87109ZM17.4814 12.5808C17.5206 12.1947 17.5206 11.8056 17.4814 11.4195H7.06452V12.5808H17.4872H17.4814ZM7.06452 14.9035V17.8066H11.5471C13.7535 17.8066 15.6871 16.6395 16.7149 14.9035H7.06452ZM7.06452 9.09691H16.7206C15.6871 7.36077 13.7593 6.19369 11.553 6.19369H7.06452V9.09691Z" fill="#FDC134"/>
</svg>
