<svg width="24" height="24" viewBox="0 0 24 24" fill="none" xmlns="http://www.w3.org/2000/svg">
<path d="M10.0756 2.94372C10.3363 3.69122 11.0437 4.26996 11.9037 4.26996C12.7787 4.26996 13.4937 3.66997 13.7431 2.90559C13.9075 2.40122 14.3731 1.87872 14.8837 2.02497C15.6369 2.24121 16.355 2.53997 17.0274 2.91059C17.4856 3.16308 17.4525 3.8406 17.2144 4.30559C17.0292 4.66805 16.963 5.07965 17.0251 5.48192C17.0871 5.88419 17.2745 6.25665 17.5603 6.54639C17.8461 6.83614 18.2161 7.02842 18.6174 7.09593C19.0189 7.16345 19.4313 7.10276 19.7962 6.92246C20.2649 6.69121 20.9444 6.66871 21.1899 7.12934C21.5137 7.73522 21.776 8.37191 21.9731 9.02996C22.125 9.53808 21.6063 10.0087 21.1032 10.1781C20.3463 10.4325 19.7557 11.1424 19.7557 12.0094C19.7557 12.8756 20.3463 13.5855 21.1032 13.8406C21.6069 14.0093 22.125 14.4799 21.9731 14.988C21.7514 15.7286 21.4472 16.4418 21.0663 17.1143C20.8144 17.558 20.1612 17.5331 19.7037 17.3043C19.3447 17.1242 18.9384 17.0602 18.5413 17.1211C18.1444 17.1822 17.776 17.3651 17.4877 17.6448C17.1992 17.9244 17.0048 18.2869 16.9316 18.6818C16.8584 19.0769 16.9097 19.4849 17.0788 19.8494C17.295 20.3118 17.3019 20.9656 16.8494 21.2031C16.2494 21.5193 15.6137 21.778 14.9512 21.9737C14.4581 22.1187 14.0012 21.638 13.8275 21.155C13.5607 20.4162 12.8544 19.8499 12.0057 19.8499C11.1569 19.8499 10.45 20.4162 10.1838 21.155C10.0088 21.638 9.55245 22.1187 9.05937 21.9737C8.30249 21.7509 7.57359 21.4422 6.88686 21.0537C6.47187 20.8187 6.46311 20.2319 6.64999 19.7931C6.80025 19.4399 6.84209 19.0498 6.77021 18.6726C6.69833 18.2955 6.51595 17.9483 6.24626 17.6751C5.97659 17.4018 5.63176 17.2149 5.2556 17.1382C4.87945 17.0613 4.48897 17.0981 4.13375 17.2438C3.69188 17.4249 3.10437 17.4074 2.87499 16.9893C2.51996 16.3421 2.23543 15.6586 2.02624 14.9505C1.88124 14.4581 2.36249 14.0025 2.84625 13.8286C3.58625 13.5625 4.15249 12.8568 4.15249 12.0094C4.15249 11.1612 3.58625 10.4562 2.84625 10.19C2.36249 10.0163 1.88124 9.55996 2.02624 9.06746C2.21556 8.4265 2.46675 7.80545 2.77625 7.21309C3.0075 6.77122 3.6375 6.76308 4.09499 6.96184C4.33865 7.06729 4.60138 7.12154 4.86687 7.12122C5.19505 7.12132 5.51788 7.03802 5.80504 6.87912C6.09219 6.7202 6.33424 6.49093 6.50845 6.21279C6.68267 5.93466 6.78334 5.61682 6.80098 5.2891C6.81863 4.9614 6.7527 4.63457 6.60937 4.33935C6.39062 3.89122 6.37124 3.26247 6.80311 3.01247C7.47123 2.62629 8.18042 2.31603 8.91749 2.08746C9.42499 1.93059 9.90128 2.44309 10.0756 2.94372ZM12.0057 18.425C15.5538 18.425 18.4306 15.5524 18.4306 12.0094C18.4306 8.46558 15.5538 5.59372 12.0057 5.59372C8.45686 5.59372 5.58062 8.46621 5.58062 12.0094C5.58062 15.5524 8.45686 18.425 12.0057 18.425Z" fill="#0B8BB1"/>
<path d="M14.3017 7.71254C14.3269 7.78754 14.3748 7.85286 14.4388 7.89945C14.5027 7.94604 14.5795 7.97158 14.6587 7.97253C14.739 7.97152 14.8171 7.94518 14.8815 7.89726C14.946 7.84936 14.9938 7.7823 15.018 7.70565C15.0498 7.60691 15.1411 7.50503 15.2406 7.53316C15.3874 7.57566 15.528 7.6344 15.6593 7.70691C15.7486 7.75629 15.7424 7.88815 15.6956 7.97941C15.659 8.05023 15.6458 8.13077 15.6578 8.20955C15.6698 8.28833 15.7064 8.36131 15.7622 8.41806C15.8182 8.47482 15.8905 8.51246 15.9691 8.5256C16.0478 8.53876 16.1285 8.52674 16.1999 8.49129C16.2917 8.44566 16.4236 8.44128 16.4717 8.53127C16.5343 8.64879 16.5862 8.77315 16.6248 8.90315C16.6543 9.00253 16.5531 9.09438 16.4549 9.12748C16.3792 9.15242 16.3133 9.20025 16.2662 9.26457C16.2191 9.32873 16.1933 9.40602 16.1924 9.48565C16.1924 9.65496 16.3073 9.7938 16.4549 9.84382C16.5531 9.87692 16.6549 9.9688 16.6248 10.0681C16.5811 10.2144 16.5211 10.3538 16.4481 10.4837C16.3986 10.5706 16.2712 10.565 16.1818 10.5212C16.1116 10.4861 16.0321 10.4735 15.9546 10.4855C15.877 10.4974 15.8049 10.5332 15.7486 10.5879C15.6924 10.6425 15.6544 10.7134 15.6401 10.7907C15.626 10.8679 15.6361 10.9476 15.6693 11.0188C15.7112 11.1094 15.7131 11.237 15.6243 11.2832C15.5074 11.3456 15.383 11.3956 15.2537 11.4338C15.1574 11.4626 15.0686 11.3682 15.0349 11.2737C15.0088 11.1999 14.9607 11.1358 14.897 11.0901C14.8333 11.0445 14.757 11.0195 14.6787 11.0188C14.6004 11.0198 14.5244 11.0448 14.4608 11.0904C14.3972 11.136 14.3491 11.2001 14.323 11.2737C14.2893 11.3682 14.1999 11.4626 14.1037 11.4338C13.9558 11.3902 13.8134 11.3297 13.6793 11.2537C13.598 11.2081 13.5967 11.0932 13.633 11.0076C13.6577 10.95 13.6676 10.8873 13.6621 10.825C13.6564 10.7626 13.6354 10.7026 13.601 10.6506C13.5664 10.5984 13.5194 10.5555 13.4643 10.526C13.409 10.4964 13.3475 10.4811 13.2849 10.4813C13.2358 10.4813 13.1872 10.4907 13.1417 10.5094C13.0555 10.5444 12.9405 10.5406 12.8962 10.4594C12.8273 10.3344 12.7712 10.2007 12.7305 10.0607C12.7018 9.96442 12.7961 9.87502 12.8905 9.84134C12.9644 9.81523 13.0286 9.76711 13.0742 9.70338C13.1199 9.63965 13.1447 9.56338 13.1455 9.48507C13.1445 9.4069 13.1194 9.33092 13.0738 9.26748C13.0283 9.2039 12.9643 9.15592 12.8905 9.12996C12.7961 9.09569 12.7018 9.00691 12.7305 8.91066C12.7674 8.78537 12.8164 8.66397 12.8768 8.54816C12.9218 8.46127 13.0455 8.46003 13.1343 8.49816C13.2052 8.52898 13.2838 8.53733 13.3596 8.52207C13.4354 8.50683 13.5047 8.46871 13.5581 8.41286C13.6116 8.35702 13.6466 8.28613 13.6586 8.20974C13.6705 8.13335 13.6587 8.05514 13.6249 7.98565C13.5824 7.89815 13.5787 7.77565 13.6629 7.72627C13.7924 7.65129 13.9305 7.59065 14.0755 7.54566C14.1748 7.51441 14.268 7.61441 14.3017 7.71254ZM14.6755 10.502C14.8123 10.5066 14.9485 10.4839 15.0762 10.4349C15.204 10.3859 15.3205 10.3116 15.4188 10.2167C15.5172 10.1216 15.5955 10.0077 15.6489 9.88188C15.7024 9.75602 15.73 9.62055 15.73 9.48375C15.73 9.34696 15.7024 9.21163 15.6489 9.08563C15.5955 8.95978 15.5172 8.84592 15.4188 8.75091C15.3205 8.65589 15.204 8.58167 15.0762 8.53266C14.9485 8.48366 14.8123 8.46087 14.6755 8.46565C14.4117 8.47489 14.1617 8.58622 13.9784 8.77614C13.7949 8.96606 13.6924 9.2198 13.6924 9.48375C13.6924 9.74786 13.7949 10.0015 13.9784 10.1915C14.1617 10.3814 14.4117 10.4926 14.6755 10.502ZM7.88677 9.03691C7.912 9.11173 7.9598 9.17677 8.02362 9.2233C8.08743 9.26967 8.16408 9.29519 8.24301 9.29621C8.32338 9.29534 8.40138 9.26894 8.4659 9.22096C8.53043 9.17313 8.57819 9.10605 8.60238 9.02941C8.63489 8.93065 8.72551 8.82877 8.82488 8.85753C8.97239 8.8994 9.11236 8.95753 9.24361 9.03065C9.33301 9.08003 9.32674 9.21192 9.27992 9.30321C9.24332 9.37394 9.2302 9.45459 9.24215 9.53334C9.25411 9.61209 9.29072 9.685 9.34657 9.74188C9.40257 9.79861 9.47505 9.83623 9.55351 9.84936C9.63211 9.86248 9.7129 9.85053 9.78422 9.81509C9.87609 9.76944 10.0087 9.76507 10.0562 9.85563C10.1186 9.97317 10.1705 10.0968 10.2093 10.2269C10.2392 10.3262 10.1374 10.4181 10.0393 10.4519C9.96374 10.4767 9.89767 10.5244 9.85072 10.5886C9.80361 10.6526 9.7778 10.7299 9.77678 10.8094C9.77678 10.9788 9.8917 11.1175 10.0393 11.1675C10.1374 11.2006 10.2392 11.2925 10.2093 11.3918C10.166 11.5366 10.1067 11.6761 10.0324 11.8075C9.98299 11.895 9.85553 11.8894 9.76613 11.8451C9.69599 11.8098 9.61651 11.7973 9.53892 11.8092C9.46134 11.8212 9.38945 11.8569 9.33301 11.9116C9.27672 11.9663 9.2388 12.0371 9.22451 12.1144C9.21036 12.1916 9.22043 12.2714 9.25368 12.3425C9.29611 12.4331 9.29743 12.5607 9.2092 12.6069C9.0918 12.6693 8.96739 12.7194 8.83863 12.7576C8.74238 12.7863 8.65302 12.6919 8.61863 12.5976C8.59264 12.5236 8.54458 12.4596 8.48098 12.414C8.41737 12.3685 8.34127 12.3434 8.26302 12.3425C8.18475 12.3434 8.10867 12.3685 8.04505 12.414C7.98144 12.4596 7.93339 12.5236 7.90739 12.5976C7.87364 12.6919 7.78426 12.7863 7.68801 12.7576C7.54015 12.714 7.39777 12.6536 7.26364 12.5775C7.18239 12.532 7.18114 12.4169 7.21739 12.3313C7.24204 12.2738 7.25201 12.211 7.24641 12.1487C7.24081 12.0864 7.2198 12.0265 7.18528 11.9743C7.15076 11.9221 7.1038 11.8792 7.04863 11.8498C6.99348 11.8201 6.93184 11.8048 6.86926 11.805C6.82019 11.805 6.77156 11.8146 6.72614 11.8331C6.63989 11.8681 6.52552 11.8643 6.48051 11.7831C6.41177 11.6581 6.35552 11.5244 6.31489 11.3844C6.28676 11.2881 6.38051 11.1993 6.47488 11.1656C6.54882 11.1395 6.61294 11.0914 6.65856 11.0277C6.70418 10.964 6.72908 10.8878 6.72989 10.8094C6.72908 10.7311 6.70418 10.6548 6.65856 10.5911C6.61294 10.5273 6.54882 10.4792 6.47488 10.4531C6.38051 10.42 6.28676 10.3306 6.31489 10.2344C6.35238 10.1075 6.40113 9.9863 6.46115 9.87196C6.50613 9.78505 6.62989 9.78373 6.71864 9.82252C6.78955 9.85329 6.86818 9.86175 6.94398 9.84644C7.01977 9.83113 7.08907 9.79307 7.14254 9.73721C7.196 9.68136 7.23106 9.61048 7.24299 9.53407C7.25491 9.4578 7.24315 9.37948 7.20927 9.31007C7.16676 9.22257 7.16301 9.09934 7.24739 9.05066C7.37676 8.97566 7.51489 8.91441 7.65989 8.8694C7.75989 8.83878 7.85239 8.93878 7.88677 9.03691ZM8.25988 11.8257C8.39658 11.8305 8.53287 11.8076 8.66057 11.7586C8.78828 11.7096 8.9048 11.6354 9.00321 11.5404C9.10157 11.4454 9.17988 11.3315 9.23326 11.2056C9.28678 11.0798 9.31434 10.9443 9.31434 10.8075C9.31434 10.6707 9.28678 10.5354 9.23326 10.4095C9.17988 10.2835 9.10157 10.1696 9.00321 10.0747C8.9048 9.97959 8.78828 9.90536 8.66057 9.85636C8.53287 9.80736 8.39658 9.78461 8.25988 9.78942C7.99604 9.79861 7.74608 9.91002 7.5627 10.0999C7.37931 10.2898 7.27682 10.5435 7.27682 10.8075C7.27682 11.0716 7.37931 11.3252 7.5627 11.5152C7.74608 11.7051 7.99604 11.8164 8.25988 11.8257ZM9.82111 13.6194C9.84634 13.6943 9.89417 13.7593 9.95805 13.8058C10.0218 13.8522 10.0985 13.8777 10.1774 13.8787C10.2577 13.8777 10.3358 13.8515 10.4002 13.8035C10.4648 13.7556 10.5125 13.6886 10.5367 13.6119C10.5692 13.5131 10.6599 13.4113 10.7593 13.4401C10.9067 13.4819 11.0467 13.54 11.1779 13.6132C11.2673 13.6625 11.2611 13.7944 11.2143 13.8856C11.1778 13.9565 11.1645 14.037 11.1765 14.1159C11.1886 14.1946 11.225 14.2675 11.281 14.3243C11.3369 14.3811 11.4094 14.4187 11.488 14.4319C11.5666 14.445 11.6472 14.433 11.7187 14.3975C11.8106 14.352 11.943 14.3476 11.9905 14.4376C12.0529 14.555 12.1049 14.6794 12.1437 14.8094C12.173 14.9087 12.0723 15.0006 11.9736 15.0345C11.8981 15.0591 11.8322 15.1069 11.785 15.1711C11.7379 15.2351 11.7121 15.3124 11.7111 15.3919C11.712 15.4715 11.7378 15.549 11.7849 15.6131C11.832 15.6773 11.8979 15.7253 11.9736 15.7501C12.0723 15.7832 12.1737 15.875 12.1437 15.9744C12.1003 16.1192 12.0411 16.2586 11.9668 16.39C11.9173 16.4775 11.7899 16.4719 11.7005 16.4275C11.6303 16.3919 11.5508 16.379 11.473 16.3909C11.3952 16.4025 11.323 16.4384 11.2665 16.4932C11.21 16.5481 11.1721 16.6191 11.1581 16.6965C11.144 16.774 11.1545 16.8539 11.188 16.925C11.2304 17.0156 11.2318 17.1432 11.1429 17.1894C11.0261 17.2519 10.9017 17.3019 10.7724 17.3401C10.6761 17.3688 10.5873 17.2745 10.5536 17.18C10.5275 17.1062 10.4794 17.042 10.4157 16.9964C10.3519 16.9507 10.2758 16.9258 10.1974 16.925C10.119 16.9259 10.0431 16.9509 9.97949 16.9965C9.91576 17.0421 9.86778 17.1062 9.84182 17.18C9.80799 17.2745 9.71859 17.3688 9.62234 17.3401C9.47447 17.2965 9.33213 17.2361 9.19797 17.16C9.11674 17.1143 9.11557 16.9994 9.15174 16.9138C9.17638 16.8562 9.18645 16.7935 9.18076 16.7312C9.17522 16.6688 9.15422 16.6089 9.11966 16.5568C9.08509 16.5046 9.03818 16.4617 8.98301 16.4323C8.92785 16.4027 8.86621 16.3874 8.80363 16.3875C8.75455 16.3875 8.70594 16.3971 8.66051 16.4156C8.57427 16.4506 8.45989 16.4469 8.41489 16.3656C8.34614 16.2406 8.28989 16.1069 8.24926 15.9669C8.22113 15.8707 8.31489 15.7813 8.40926 15.7482C8.48318 15.7221 8.54732 15.6739 8.59293 15.6102C8.63855 15.5465 8.66346 15.4702 8.66426 15.3919C8.66346 15.3136 8.63855 15.2373 8.59293 15.1736C8.54732 15.1099 8.48318 15.0617 8.40926 15.0356C8.31489 15.0019 8.22113 14.9131 8.24926 14.8169C8.28617 14.6916 8.33515 14.5703 8.39551 14.4543C8.44051 14.3676 8.56426 14.3662 8.65302 14.405C8.72391 14.4358 8.80256 14.4441 8.87834 14.429C8.95415 14.4136 9.02343 14.3756 9.07691 14.3197C9.1303 14.2639 9.16545 14.193 9.1774 14.1166C9.18936 14.0402 9.17755 13.962 9.14357 13.8926C9.10113 13.8051 9.09734 13.6819 9.18178 13.6331C9.31201 13.5575 9.4504 13.4968 9.5942 13.4519C9.69424 13.4212 9.7867 13.5213 9.82111 13.6194ZM10.1943 16.4082C10.3309 16.4129 10.4673 16.3901 10.5949 16.3411C10.7227 16.2921 10.8392 16.2179 10.9376 16.123C11.036 16.0279 11.1142 15.914 11.1677 15.7881C11.2211 15.6623 11.2487 15.5268 11.2487 15.39C11.2487 15.2532 11.2211 15.1179 11.1677 14.9919C11.1142 14.866 11.036 14.7521 10.9376 14.6572C10.8392 14.5621 10.7227 14.4879 10.5949 14.4389C10.4673 14.3899 10.3309 14.3671 10.1943 14.3719C9.93034 14.3811 9.68038 14.4924 9.49707 14.6824C9.31361 14.8723 9.21124 15.126 9.21124 15.39C9.21124 15.6541 9.31361 15.9077 9.49707 16.0977C9.68038 16.2876 9.93034 16.3989 10.1943 16.4082Z" fill="#888888"/>
<path d="M12.4413 9.96993L10.5576 10.3775L10.5138 10.1788L12.3981 9.7713L12.4413 9.96993ZM9.27323 13.3788L9.0188 12.8694L9.20061 12.7781L9.45567 13.2875L9.27323 13.3788ZM13.4164 11.2562L11.5332 13.7006L11.3713 13.5762L13.2551 11.1325L13.4164 11.2562Z" fill="#0B8BB1"/>
</svg>
