<svg width="24" height="24" viewBox="0 0 24 24" fill="none" xmlns="http://www.w3.org/2000/svg">
<path d="M20.3618 9.76349L20.3073 9.71449L20.0455 9.47445L19.3636 8.86354L18.7855 8.33989L18.6874 8.24717L18.311 8.31262L14.7219 8.68358L12.6655 5.84716C12.6104 5.77816 12.5334 5.73005 12.4472 5.7108L5.13818 4.51079L4.21091 4.36353L4.71273 5.02352L5.07273 5.49807H3L3.95455 6.39261L9.68186 11.7871L8.04001 19.6363L8.11637 19.5163L11.1655 14.6944L16.4401 12.1035C16.6309 12.0272 16.7892 11.8908 16.8873 11.7162L17.8801 10.3636H21L20.3618 9.76349ZM4.67454 6.16352H5.57456L7.47273 8.78718L4.67454 6.16352ZM5.72182 5.28533L11.9346 6.29443L9.9709 11.0671L5.71636 5.28533H5.72182ZM9.37093 16.3744L10.1182 12.8999L10.6254 14.3508L9.37093 16.3689V16.3744ZM11.1545 13.969L10.5 12.0054H15.1364L11.1545 13.969ZM10.5381 11.4544L12.4692 6.70353L15.8509 11.4544H10.5381ZM16.4945 11.1273L15.1582 9.29449L17.9072 9.03804L16.489 11.1326L16.4945 11.1273ZM18.2946 9.81809L18.6437 9.09263L19.4892 9.81809H18.2891H18.2946Z" fill="#5081F4"/>
</svg>
