<svg width="24" height="24" viewBox="0 0 24 24" fill="none" xmlns="http://www.w3.org/2000/svg">
<path fill-rule="evenodd" clip-rule="evenodd" d="M10.3448 7.31079H4.00024V19.9999H10.3448C11.178 19.9999 12.003 19.8358 12.7728 19.5169C13.5425 19.198 14.2419 18.7308 14.8311 18.1416C15.4202 17.5525 15.8875 16.853 16.2064 16.0833C16.5252 15.3135 16.6894 14.4885 16.6894 13.6553C16.6894 12.8222 16.5252 11.9972 16.2064 11.2274C15.8875 10.4577 15.4202 9.75817 14.8311 9.1691C14.2419 8.57991 13.5425 8.11258 12.7728 7.79374C12.003 7.4749 11.178 7.31079 10.3448 7.31079ZM10.3448 8.96589H5.65535V18.3449H10.3448C11.5885 18.3449 12.7813 17.8508 13.6608 16.9713C14.5401 16.0918 15.0342 14.899 15.0342 13.6553C15.0342 12.4117 14.5401 11.2189 13.6608 10.3394C12.7813 9.4599 11.5885 8.96589 10.3448 8.96589Z" fill="url(#paint0_linear_328_23799)"/>
<path d="M16.4019 15.5466L14.3276 16.1369C14.2338 16.2859 14.129 16.4293 14.0242 16.5618L15.1109 17.8362C15.6902 17.1797 16.1371 16.4017 16.4019 15.5466Z" fill="url(#paint1_linear_328_23799)"/>
<path fill-rule="evenodd" clip-rule="evenodd" d="M13.6552 4H7.31067V16.689H13.6552C15.3378 16.689 16.9517 16.0206 18.1414 14.8308C19.3313 13.641 19.9998 12.0272 19.9998 10.3446C19.9998 8.66187 19.3313 7.04811 18.1414 5.85828C16.9517 4.66844 15.3378 4 13.6552 4ZM13.6552 5.6551H8.96583V15.034H13.6552C14.899 15.034 16.0916 14.5399 16.9711 13.6606C17.8506 12.7811 18.3447 11.5882 18.3447 10.3446C18.3447 9.10083 17.8506 7.90805 16.9711 7.0286C16.0916 6.14916 14.899 5.6551 13.6552 5.6551Z" fill="url(#paint2_linear_328_23799)"/>
<path d="M8.96583 10.6207L7.31067 8.96558H8.96583V10.6207Z" fill="url(#paint3_linear_328_23799)"/>
<defs>
<linearGradient id="paint0_linear_328_23799" x1="6.42871" y1="6.85761" x2="17.2854" y2="17" gradientUnits="userSpaceOnUse">
<stop stop-color="#422C81"/>
<stop offset="1" stop-color="#7B368A"/>
</linearGradient>
<linearGradient id="paint1_linear_328_23799" x1="6.42821" y1="6.85654" x2="17.2849" y2="16.9989" gradientUnits="userSpaceOnUse">
<stop stop-color="#422C81"/>
<stop offset="1" stop-color="#7B368A"/>
</linearGradient>
<linearGradient id="paint2_linear_328_23799" x1="6.42893" y1="6.85702" x2="17.2857" y2="16.9994" gradientUnits="userSpaceOnUse">
<stop stop-color="#422C81"/>
<stop offset="1" stop-color="#7B368A"/>
</linearGradient>
<linearGradient id="paint3_linear_328_23799" x1="6.42893" y1="6.8573" x2="17.2857" y2="16.9997" gradientUnits="userSpaceOnUse">
<stop stop-color="#422C81"/>
<stop offset="1" stop-color="#7B368A"/>
</linearGradient>
</defs>
</svg>
