<svg width="24" height="24" viewBox="0 0 24 24" fill="none" xmlns="http://www.w3.org/2000/svg">
<path d="M19.9656 9.30117L16.3063 11.9932C16.3052 11.0799 16.0001 10.1931 15.4392 9.47237C14.008 7.62037 11.3076 7.24997 9.4084 8.64597L3 13.3599L4.0344 14.6983L7.6932 12.0068C7.69465 12.9201 7.99988 13.8068 8.5608 14.5275C9.99198 16.3795 12.6924 16.75 14.5916 15.3539L21 10.64L19.9656 9.30117ZM13.616 14.0911C13.1891 14.4039 12.6805 14.5857 12.152 14.6144C11.6231 14.644 11.0968 14.5196 10.6372 14.2563C10.1821 13.9963 9.81458 13.6069 9.5812 13.1376C9.35097 12.6727 9.26728 12.149 9.3412 11.6355C9.4162 11.1204 9.64466 10.6398 9.99683 10.2564C10.3534 9.86797 10.8161 9.59263 11.3276 9.46437C11.842 9.33478 12.383 9.35673 12.8852 9.52757C13.3838 9.69637 13.8217 10.0081 14.1443 10.424C14.3559 10.6963 14.5106 11.0085 14.5991 11.3418C14.6875 11.6752 14.7079 12.023 14.6592 12.3644C14.6087 12.7071 14.4905 13.0363 14.3114 13.3328C14.1323 13.6292 13.8958 13.8871 13.616 14.0911Z" fill="#78E6D0"/>
</svg>
