<svg width="24" height="24" viewBox="0 0 24 24" fill="none" xmlns="http://www.w3.org/2000/svg">
<path d="M9.14307 2H12.5716V5.42855H9.14307V2Z" fill="black"/>
<path d="M6.28516 3.1427H10.8565V6.57126H6.28516V3.1427Z" fill="black"/>
<path d="M5.14258 4.85718H9.71403V7.71431H5.14258V4.85718Z" fill="black"/>
<path d="M3.42871 7.14282H8.00012V10.5713H3.42871V7.14282Z" fill="black"/>
<path d="M7.4292 8.85718H12.572V10.5714H7.4292V8.85718Z" fill="black"/>
<path d="M7.42829 10H10.8568V11.7143H7.42829V10ZM5.14258 10H6.85687V14.5713H5.14258V10Z" fill="black"/>
<path d="M3.42871 11.7144H5.71441V13.4286H3.42871V11.7144ZM6.28585 12.8572H8.00012V18.5714H6.28585V12.8572Z" fill="black"/>
<path d="M7.4292 15.7143H9.14347V20.2856H7.4292V15.7143ZM9.14347 14H10.8577V22H9.14347V14Z" fill="black"/>
<path d="M10.2856 12.8571H13.7143V14.5713H10.2856V12.8571ZM10.2856 15.7143H12.5714V17.4285H10.2856V15.7143ZM10.2856 18H13.7143V22H10.2856V18ZM14.8571 2H11.4286V5.42855H14.8571V2Z" fill="black"/>
<path d="M17.714 3.1427H13.1426V6.57126H17.714V3.1427Z" fill="black"/>
<path d="M18.8566 4.85718H14.2852V7.71431H18.8566V4.85718Z" fill="black"/>
<path d="M20.5713 7.14282H16V10.5713H20.5713V7.14282Z" fill="black"/>
<path d="M16.5715 8.85718H11.4287V10.5714H16.5715V8.85718Z" fill="black"/>
<path d="M16.5711 10H13.1426V11.7143H16.5711V10ZM18.8568 10H17.1426V14.5713H18.8568V10Z" fill="black"/>
<path d="M20.5713 11.7144H18.2856V13.4286H20.5713V11.7144ZM17.7143 12.8572H16V18.5714H17.7143V12.8572Z" fill="black"/>
<path d="M16.5711 15.7143H14.8568V20.2856H16.5711V15.7143ZM14.8568 14H13.1426V22H14.8568V14Z" fill="black"/>
<path d="M13.7144 15.7142H11.4287V17.4285H13.7144V15.7142Z" fill="black"/>
</svg>
