<svg width="24" height="24" viewBox="0 0 24 24" fill="none" xmlns="http://www.w3.org/2000/svg">
<path d="M4.5 16.0474V14.9103L11.0001 18.2464V13.3558L12.4601 12.3968C12.4817 12.4658 12.5002 12.5343 12.5002 12.6738V19.064C12.5002 20.128 11.3707 20.121 10.8796 19.839C9.25011 18.9039 5.39952 16.9914 5.02951 16.8249C4.6605 16.6579 4.5065 16.2374 4.5 16.0474Z" fill="url(#paint0_linear_328_22192)"/>
<path d="M9.0001 14.225L4.5 11.7234V13.3874L9.0001 15.8465V14.225Z" fill="#4273EB"/>
<path d="M4.5 9.88484L11.0021 13.3549L12.4631 12.4059C12.4631 12.4059 12.3017 12.2323 12.1136 12.1144L4.67649 8.09375C4.5415 8.20226 4.5 8.39526 4.5 8.47427V9.88484Z" fill="url(#paint1_linear_328_22192)"/>
<path d="M11.4135 4.14307L4.67578 8.09416L6.11232 8.92768L8.46538 7.62215L14.51 11.0887L15.863 10.1537C15.7796 10.0287 15.5646 9.83823 15.43 9.76671L10.0589 6.74664L12.0709 5.63661L17.9976 9.05018L19.3817 8.12916C19.2832 7.92416 19.0457 7.77166 18.9241 7.69666L12.6339 4.14307C12.1019 3.88957 11.6205 4.02707 11.4135 4.14307Z" fill="url(#paint2_linear_328_22192)"/>
<path d="M14.5 19.6534V11.0957L15.86 10.1531C15.9711 10.2731 16 10.4731 16 10.5456V18.6838L14.5 19.6534Z" fill="url(#paint3_linear_328_22192)"/>
<path d="M18 17.5087V9.05444L19.36 8.12341C19.4711 8.24191 19.5 8.43942 19.5 8.51142V16.1551C19.5 16.1551 19.5 16.4751 19.274 16.6376L18 17.5087Z" fill="url(#paint4_linear_328_22192)"/>
<defs>
<linearGradient id="paint0_linear_328_22192" x1="17.1143" y1="5.33377" x2="12.8073" y2="18.2259" gradientUnits="userSpaceOnUse">
<stop stop-color="#7CD872"/>
<stop offset="0.796" stop-color="#4073F3"/>
</linearGradient>
<linearGradient id="paint1_linear_328_22192" x1="4.5" y1="7.13521" x2="19.1898" y2="12.1403" gradientUnits="userSpaceOnUse">
<stop stop-color="#6EC185"/>
<stop offset="1" stop-color="#4373EA"/>
</linearGradient>
<linearGradient id="paint2_linear_328_22192" x1="8.85504" y1="7.48642" x2="18.088" y2="10.2106" gradientUnits="userSpaceOnUse">
<stop stop-color="#7BDF6A"/>
<stop offset="1" stop-color="#416FF6"/>
</linearGradient>
<linearGradient id="paint3_linear_328_22192" x1="12" y1="4.00089" x2="12" y2="20.0014" gradientUnits="userSpaceOnUse">
<stop stop-color="#7CD872"/>
<stop offset="1" stop-color="#4073F3"/>
</linearGradient>
<linearGradient id="paint4_linear_328_22192" x1="18.7501" y1="8.12341" x2="18.7501" y2="17.5087" gradientUnits="userSpaceOnUse">
<stop stop-color="#7CD872"/>
<stop offset="1" stop-color="#4073F3"/>
</linearGradient>
</defs>
</svg>
