<svg width="24" height="24" viewBox="0 0 24 24" fill="none" xmlns="http://www.w3.org/2000/svg">
<path fill-rule="evenodd" clip-rule="evenodd" d="M19.8984 10.875H17.8733C17.8733 9.72177 17.5809 8.47865 17.0408 7.4999H19.6789C20.0165 7.4999 20.5677 7.51115 20.7477 7.23552C21.6421 5.78989 19.3976 5.37925 18.5314 5.35675L18.239 5.35113C16.2983 5.30613 13.8346 5.24988 11.9557 5.24988C10.2908 5.24988 6.89882 5.29487 5.0988 5.38487C4.37318 5.42424 3.04003 5.83488 3.08504 6.7349C3.11316 7.2974 3.41129 7.4999 3.94005 7.4999H6.9382C6.5107 8.45615 6.03819 9.8399 6.03819 10.875H4.03005C3.5463 10.875 3.11316 10.903 3.08504 11.488V12.5006C3.11316 13.08 3.5463 13.125 4.03005 13.125H6.04381C6.04381 14.2219 6.18445 15.4875 6.59507 16.5H3.94005C3.62505 16.5 3.32129 16.5956 3.12441 16.8937C2.82628 17.3719 3.08504 18.3056 3.67567 18.407C4.2213 18.6038 4.80067 18.6319 5.39131 18.6487C7.39382 18.6937 9.98693 18.75 11.9557 18.75C13.6264 18.75 16.3039 18.7106 18.7115 18.6656L18.9365 18.6544C19.454 18.6375 20.0896 18.6093 20.489 18.3169C20.984 17.9962 21.1584 17.1469 20.8377 16.6462C20.6802 16.4212 20.4777 16.4493 20.2471 16.4775C20.1684 16.4887 20.0896 16.5 20.0052 16.5H17.3221C17.7271 15.6056 17.8733 14.0925 17.8733 13.125H19.8984C20.3596 13.125 20.804 13.0968 20.8321 12.5118V11.4993C20.8096 11.0381 20.3259 10.875 19.8984 10.875ZM11.967 7.4999C10.2121 7.5449 8.72697 8.22553 8.64258 10.3911C8.60884 10.7736 8.60884 10.875 8.85071 10.875H14.9821C15.404 10.875 15.404 10.8412 15.3533 10.3911C15.2577 8.16927 13.7221 7.60115 11.967 7.4999ZM15.134 13.125H9.01948C8.59759 13.125 8.59759 13.1587 8.64822 13.6086C8.73822 15.9037 10.2795 16.3988 12.0064 16.5C13.7558 16.455 15.2689 15.7743 15.3589 13.6086C15.3926 13.2262 15.3926 13.1418 15.134 13.125Z" fill="#496DDB"/>
</svg>
