<svg width="24" height="24" viewBox="0 0 24 24" fill="none" xmlns="http://www.w3.org/2000/svg">
<path d="M11.0566 9.47478L8.91059 8.99377L8.74259 9.63578L10.8266 10.1253C10.2697 12.4484 9.01859 17.3669 8.47158 18.4554C7.79807 19.7959 6.92105 19.6389 6.86955 19.4334C7.05875 19.3614 7.22161 19.2335 7.3366 19.0668C7.45159 18.9001 7.5133 18.7024 7.51356 18.5C7.51356 17.9474 7.06356 17.4999 6.50905 17.4999C6.321 17.4997 6.13662 17.5521 5.9769 17.6514C5.81718 17.7506 5.68851 17.8927 5.60553 18.0614C5.56209 18.1442 5.53301 18.2338 5.51953 18.3264C5.51173 18.3692 5.50673 18.4125 5.50453 18.4559C5.42002 19.6284 6.60455 20 7.41956 20C10.9747 19.7279 13.0547 13.7813 13.6496 10.8418L15.7912 11.3647L15.9662 10.6868L13.8642 10.1253C14.7988 5.7077 15.9857 4.37118 16.6672 4.48718C16.8072 4.51118 16.9152 4.56318 16.9972 4.63069C16.8045 4.73947 16.6533 4.90921 16.5674 5.11324C16.4816 5.31727 16.466 5.54404 16.5228 5.75794C16.5799 5.97185 16.7063 6.16075 16.8824 6.29501C17.0583 6.42926 17.2739 6.50127 17.4953 6.49972C17.6404 6.5 17.7838 6.46877 17.9158 6.40817C18.0476 6.34757 18.1648 6.25907 18.2592 6.14877C18.3534 6.03846 18.4227 5.90899 18.4621 5.7693C18.5015 5.62961 18.5101 5.48304 18.4872 5.33969L18.4852 5.32569C18.4591 5.17801 18.3997 5.03817 18.3117 4.91669C17.8652 4.21768 16.8227 3.98567 16.3152 4.00068C13.1817 4.12867 11.5041 7.70374 11.0566 9.47478Z" fill="url(#paint0_linear_328_22282)"/>
<defs>
<linearGradient id="paint0_linear_328_22282" x1="7.35824" y1="6.44913" x2="17.7952" y2="16.714" gradientUnits="userSpaceOnUse">
<stop stop-color="#FF9B13"/>
<stop offset="1" stop-color="#F58D0B"/>
</linearGradient>
</defs>
</svg>
