<svg width="24" height="24" viewBox="0 0 24 24" fill="none" xmlns="http://www.w3.org/2000/svg">
<path fill-rule="evenodd" clip-rule="evenodd" d="M3.89465 11.964C3.89465 7.365 7.22466 3.57149 11.5446 3V4.926C12.5892 4.72717 13.6647 4.76097 14.6946 5.025V7.87351C14.0445 7.58983 13.3368 7.46383 12.6288 7.50577C11.9207 7.5477 11.2327 7.75639 10.6206 8.11483C10.0086 8.47326 9.49003 8.97127 9.10709 9.56826C8.72416 10.1652 8.48775 10.8443 8.41716 11.55H9.32166C9.42139 10.7565 9.78249 10.0189 10.348 9.45332C10.9134 8.88784 11.6512 8.52673 12.4447 8.42701V9.33601C11.8134 9.44016 11.2394 9.76516 10.8253 10.2531C10.4113 10.741 10.1841 11.3602 10.1841 12C10.1841 12.6399 10.4113 13.2591 10.8253 13.7469C11.2394 14.2349 11.8134 14.5598 12.4447 14.664V17.3775C11.7142 17.3232 11.0025 17.1209 10.3527 16.7828C9.70303 16.4446 9.12885 15.9781 8.66516 15.4111C8.20147 14.8441 7.85796 14.1887 7.65553 13.4848C7.45311 12.7809 7.396 12.0432 7.48768 11.3165C7.57934 10.5899 7.81789 9.8894 8.1888 9.25783C8.5597 8.62624 9.05521 8.07673 9.64519 7.64269C10.2351 7.20865 10.9072 6.89917 11.6207 6.73307C12.3339 6.56697 13.0736 6.54773 13.7947 6.67651V5.76301C12.2212 5.53848 10.6211 5.91689 9.3151 6.82243C8.00899 7.72797 7.09339 9.09368 6.75182 10.6459C6.41027 12.1981 6.66797 13.822 7.47329 15.1921C8.27862 16.5623 9.57204 17.5774 11.0943 18.0341C12.6166 18.4908 14.2552 18.3553 15.6818 17.6547C17.1084 16.9541 18.2174 15.7402 18.7867 14.2564C19.3559 12.7724 19.3433 11.1283 18.7513 9.6533C18.1593 8.17835 17.0318 6.98163 15.5947 6.303V5.32201C17.0019 5.88864 18.1942 6.88529 19.0014 8.16973C19.8087 9.45416 20.1895 10.9607 20.0898 12.4745C19.99 13.9882 19.4146 15.4317 18.4457 16.5991C17.477 17.7665 16.1641 18.598 14.6946 18.9751V20.7615C14.0422 20.9145 13.3671 21 12.6697 21C7.82316 21 3.89465 16.9546 3.89465 11.964ZM11.5446 16.2931C10.7046 16.0288 9.9603 15.5239 9.40437 14.8407C8.84843 14.1576 8.50519 13.3264 8.41716 12.4501H9.32166C9.402 13.0858 9.65032 13.6884 10.041 14.1962C10.4318 14.704 10.9507 15.0984 11.5446 15.339V16.2931ZM12.8947 19.2C13.2007 19.2 13.4976 19.182 13.7947 19.146V20.019C13.4257 20.0731 13.0521 20.1 12.6697 20.1C8.46666 20.1 5.03316 16.716 4.80815 12.4501H5.70815C5.82264 14.2782 6.62963 15.994 7.9648 17.248C9.29995 18.5021 11.0628 19.2002 12.8947 19.2ZM5.70815 11.55C5.79863 10.1137 6.31722 8.73735 7.19707 7.59843C8.07692 6.45951 9.27771 5.61021 10.6447 5.16V4.17C9.02111 4.63326 7.58416 5.59497 6.53686 6.91925C5.48955 8.24352 4.88483 9.8634 4.80815 11.55H5.70815ZM13.3446 15.5731C14.2167 15.4656 15.0193 15.043 15.6013 14.3849C16.1833 13.7268 16.5046 12.8786 16.5046 12C16.5046 11.1215 16.1833 10.2732 15.6013 9.61508C15.0193 8.95696 14.2167 8.53441 13.3446 8.42701V9.33601C13.898 9.42921 14.4086 9.69253 14.8054 10.0893C15.2022 10.4861 15.4655 10.9966 15.5587 11.55H14.6361C14.5267 11.1257 14.2661 10.7561 13.9036 10.5102C13.541 10.2643 13.1012 10.1592 12.6666 10.2144C12.2319 10.2695 11.8323 10.4814 11.5427 10.8101C11.2531 11.1388 11.0934 11.5619 11.0934 12C11.0934 12.4381 11.2531 12.8612 11.5427 13.1899C11.8323 13.5187 12.2319 13.7304 12.6666 13.7857C13.1012 13.8409 13.541 13.7356 13.9036 13.4898C14.2661 13.2439 14.5267 12.8743 14.6361 12.4501H15.5587C15.4655 13.0034 15.2022 13.5139 14.8054 13.9107C14.4086 14.3075 13.898 14.5708 13.3446 14.664V15.5731ZM12.8947 12.6751C13.0736 12.6751 13.2454 12.6039 13.372 12.4774C13.4986 12.3507 13.5697 12.179 13.5697 12C13.5697 11.821 13.4986 11.6494 13.372 11.5227C13.2454 11.3962 13.0736 11.325 12.8947 11.325C12.7157 11.325 12.5439 11.3962 12.4173 11.5227C12.2907 11.6494 12.2197 11.821 12.2197 12C12.2197 12.179 12.2907 12.3507 12.4173 12.4774C12.5439 12.6039 12.7157 12.6751 12.8947 12.6751Z" fill="#5158FA"/>
</svg>
