<svg width="24" height="24" viewBox="0 0 24 24" fill="none" xmlns="http://www.w3.org/2000/svg">
<path d="M15.6129 8.38288L11.7151 9.44954L12.0929 9.83176L9.79515 12.1295C9.73736 12.1876 9.6687 12.2338 9.5931 12.2653C9.51749 12.2968 9.43642 12.3132 9.35449 12.3134C9.27258 12.3136 9.1914 12.2976 9.11564 12.2665C9.03988 12.2353 8.97099 12.1896 8.91292 12.1318C8.85484 12.0739 8.80871 12.0053 8.77718 11.9297C8.74564 11.8541 8.7293 11.773 8.7291 11.691C8.72889 11.6091 8.74482 11.5281 8.77598 11.4522C8.80714 11.3766 8.85291 11.3076 8.9107 11.2495L13.324 6.8362C12.1916 6.54553 10.9949 6.63507 9.9182 7.09106C8.84155 7.54704 7.94458 8.3442 7.36531 9.35985C6.78606 10.3755 6.55662 11.5534 6.71228 12.7122C6.86796 13.871 7.40013 14.9466 8.2269 15.7734C9.05367 16.6001 10.1293 17.1323 11.288 17.2879C12.4468 17.4436 13.6247 17.2142 14.6404 16.635C15.656 16.0557 16.4532 15.1587 16.9092 14.0821C17.3652 13.0054 17.4547 11.8088 17.164 10.6762L12.7507 15.0895C12.6334 15.2062 12.4745 15.2715 12.3091 15.2711C12.1437 15.2707 11.9852 15.2046 11.8685 15.0874C11.7518 14.9701 11.6865 14.8112 11.6869 14.6458C11.6873 14.4803 11.7534 14.3218 11.8707 14.205L14.1684 11.9073L14.5863 12.3206L15.6129 8.38288Z" fill="url(#paint0_linear_328_22345)"/>
<path d="M7.3328 14.5862L9.79502 12.1284C9.73724 12.1865 9.66857 12.2327 9.59297 12.2642C9.51737 12.2957 9.43629 12.3121 9.35437 12.3123C9.18892 12.3127 9.03009 12.2474 8.9128 12.1307C8.85472 12.0728 8.80859 12.0042 8.77705 11.9286C8.74552 11.853 8.72917 11.7719 8.72897 11.6899C8.72856 11.5246 8.79388 11.3657 8.91057 11.2484L6.83057 13.324C6.94613 13.7595 7.11057 14.1862 7.3328 14.5862ZM11.8661 14.2084L9.41279 16.6662C9.8128 16.8884 10.2395 17.0529 10.6751 17.1684L12.8305 15.0085L12.7506 15.0884C12.6339 15.2057 12.4753 15.2719 12.31 15.2723C12.1445 15.2727 11.9856 15.2074 11.8684 15.0906C11.7511 14.9739 11.6849 14.8155 11.6845 14.6499C11.6841 14.4846 11.7494 14.3257 11.8661 14.2084Z" fill="#EA3D72"/>
<path d="M12.155 13.9196L9.41279 16.6662L9.6839 16.804L11.7017 14.7863C11.6572 14.5862 11.7105 14.3639 11.8705 14.2084L12.155 13.9196ZM6.9239 13.6439L8.74613 11.8307C8.70169 11.6262 8.75502 11.4039 8.91057 11.2484L6.83057 13.324L6.9239 13.6484V13.6439Z" fill="#730D2B"/>
<path fill-rule="evenodd" clip-rule="evenodd" d="M12 19.5555C14.0038 19.5555 15.9257 18.7595 17.3426 17.3426C18.7595 15.9257 19.5555 14.0038 19.5555 12C19.5555 9.9961 18.7595 8.07436 17.3426 6.65742C15.9257 5.24048 14.0038 4.44446 12 4.44446C9.99612 4.44446 8.07436 5.24048 6.65742 6.65742C5.24047 8.07436 4.44444 9.9961 4.44444 12C4.44444 14.0038 5.24047 15.9257 6.65742 17.3426C8.07436 18.7595 9.99612 19.5555 12 19.5555ZM12 20C13.0506 20 14.0909 19.7931 15.0614 19.391C16.0321 18.989 16.914 18.3998 17.6568 17.6569C18.3998 16.914 18.989 16.0321 19.391 15.0615C19.7931 14.0909 20 13.0506 20 12C20 10.9494 19.7931 9.90914 19.391 8.93854C18.989 7.96794 18.3998 7.08602 17.6568 6.34315C16.914 5.60028 16.0321 5.01101 15.0614 4.60897C14.0909 4.20693 13.0506 4 12 4C9.87827 4 7.84343 4.84286 6.34315 6.34315C4.84286 7.84345 4 9.87827 4 12C4 14.1218 4.84286 16.1566 6.34315 17.6569C7.84343 19.1572 9.87827 20 12 20Z" fill="url(#paint1_linear_328_22345)"/>
<defs>
<linearGradient id="paint0_linear_328_22345" x1="17.4217" y1="6.57848" x2="6.34177" y2="17.6585" gradientUnits="userSpaceOnUse">
<stop stop-color="#8F3EDA"/>
<stop offset="1" stop-color="#E73E73"/>
</linearGradient>
<linearGradient id="paint1_linear_328_22345" x1="20" y1="12" x2="4.47112" y2="12" gradientUnits="userSpaceOnUse">
<stop stop-color="#864BD0"/>
<stop offset="1" stop-color="#E54077"/>
</linearGradient>
</defs>
</svg>
