<svg width="24" height="24" viewBox="0 0 24 24" fill="none" xmlns="http://www.w3.org/2000/svg">
<path d="M11.9719 3L19.7506 7.46442V16.3917L11.9719 20.8562L4.24902 16.3917V7.46392L11.9719 3Z" fill="white"/>
<path d="M11.9679 11.8757L7.86572 9.52148V14.0298L11.9679 16.6702V11.8757Z" fill="#065198"/>
<path d="M11.9995 12.078L16.1332 9.71143V14.2431L11.9995 16.8111V12.078Z" fill="#21B1F8"/>
<path d="M11.9994 6.97095L16.1377 9.53748L11.9994 11.8359L7.90234 9.53799L11.9994 6.97095Z" fill="#E82E9D"/>
<path d="M3.94489 7.16333C3.92678 7.19444 3.91499 7.22881 3.91018 7.26449C3.90536 7.30015 3.90763 7.33642 3.91684 7.37122C3.92606 7.40601 3.94203 7.43864 3.96387 7.46725C3.98571 7.49586 4.01298 7.51989 4.04409 7.53796L11.7287 12.0117V20.7261C11.7287 20.7988 11.7576 20.8685 11.8089 20.9198C11.8602 20.9711 11.9299 21 12.0026 21C12.0752 21 12.1449 20.9711 12.1963 20.9198C12.2476 20.8685 12.2765 20.7988 12.2765 20.7261V12.0117L19.9512 7.55604C19.9831 7.53836 20.011 7.5145 20.0336 7.48587C20.0561 7.45723 20.0727 7.42438 20.0823 7.38926C20.0919 7.35414 20.0946 7.31744 20.0899 7.28132C20.0852 7.24519 20.0733 7.21037 20.0549 7.17889C20.0366 7.1474 20.0123 7.11988 19.9832 7.09795C19.954 7.07602 19.9208 7.06012 19.8855 7.05116C19.8503 7.0422 19.8135 7.04038 19.7775 7.04581C19.7414 7.05123 19.707 7.06378 19.6757 7.08274L12.0026 11.5368L4.3195 7.06465C4.28844 7.04652 4.25409 7.03469 4.21845 7.02984C4.1828 7.025 4.14654 7.02721 4.11176 7.03637C4.07696 7.04554 4.04432 7.06147 4.01569 7.08326C3.98705 7.10504 3.963 7.13225 3.94489 7.16333Z" fill="#0C0E15"/>
<path d="M11.9993 5.27385C12.2428 5.27385 12.4401 5.07652 12.4401 4.8331C12.4401 4.58967 12.2428 4.39233 11.9993 4.39233C11.7559 4.39233 11.5586 4.58967 11.5586 4.8331C11.5586 5.07652 11.7559 5.27385 11.9993 5.27385Z" fill="#0C0E15"/>
<path d="M11.9993 6.48137C12.2428 6.48137 12.4401 6.28403 12.4401 6.04061C12.4401 5.79718 12.2428 5.59985 11.9993 5.59985C11.7559 5.59985 11.5586 5.79718 11.5586 6.04061C11.5586 6.28403 11.7559 6.48137 11.9993 6.48137Z" fill="#0C0E15"/>
<path d="M6.96614 14.9911C7.20957 14.9911 7.40691 14.7938 7.40691 14.5505C7.40691 14.307 7.20957 14.1096 6.96614 14.1096C6.72273 14.1096 6.52539 14.307 6.52539 14.5505C6.52539 14.7938 6.72273 14.9911 6.96614 14.9911Z" fill="#0C0E15"/>
<path d="M5.75814 15.747C6.00157 15.747 6.1989 15.5497 6.1989 15.3063C6.1989 15.0629 6.00157 14.8655 5.75814 14.8655C5.51472 14.8655 5.31738 15.0629 5.31738 15.3063C5.31738 15.5497 5.51472 15.747 5.75814 15.747Z" fill="#0C0E15"/>
<path d="M17.1161 14.9911C16.8727 14.9911 16.6753 14.7938 16.6753 14.5505C16.6753 14.307 16.8727 14.1096 17.1161 14.1096C17.3595 14.1096 17.5568 14.307 17.5568 14.5505C17.5568 14.7938 17.3595 14.9911 17.1161 14.9911Z" fill="#0C0E15"/>
<path d="M18.3245 15.747C18.0812 15.747 17.8838 15.5497 17.8838 15.3063C17.8838 15.0629 18.0812 14.8655 18.3245 14.8655C18.568 14.8655 18.7652 15.0629 18.7652 15.3063C18.7652 15.5497 18.568 15.747 18.3245 15.747Z" fill="#0C0E15"/>
</svg>
