<svg width="24" height="24" viewBox="0 0 24 24" fill="none" xmlns="http://www.w3.org/2000/svg">
<path d="M8.23587 14.3519V9.88135L13.6477 6.82252L12.0006 5.88135L6.35352 8.94016V15.0578L12.0006 18.3519L17.6476 15.2931V13.4108L12.0006 16.4696L8.23587 14.3519Z" fill="url(#paint0_linear_328_28442)"/>
<path d="M14.5886 8.00037L15.2945 7.52979L16.7063 8.47096L16.0004 8.94155L14.5886 8.00037ZM9.64746 12.4709V10.8238L14.1181 8.23567L15.5299 9.17684L9.64746 12.4709Z" fill="url(#paint1_linear_328_28442)"/>
<path d="M16.4712 10.5874L10.8242 13.8816L12.236 14.8227L16.4712 12.2345V10.5874Z" fill="url(#paint2_linear_328_28442)"/>
<path d="M17.6472 11.5284L16.7061 11.999V10.352L17.6472 9.88135V11.5284Z" fill="url(#paint3_linear_328_28442)"/>
<path fill-rule="evenodd" clip-rule="evenodd" d="M12 19.5294C13.9969 19.5294 15.9121 18.7362 17.3241 17.3241C18.7362 15.912 19.5294 13.9969 19.5294 12C19.5294 10.003 18.7362 8.08793 17.3241 6.6759C15.9121 5.26386 13.9969 4.47058 12 4.47058C10.0031 4.47058 8.08793 5.26386 6.6759 6.6759C5.26386 8.08793 4.47058 10.003 4.47058 12C4.47058 13.9969 5.26386 15.912 6.6759 17.3241C8.08793 18.7362 10.0031 19.5294 12 19.5294ZM12 20C14.1218 20 16.1566 19.1571 17.6569 17.6568C19.1571 16.1566 20 14.1218 20 12C20 9.87828 19.1571 7.84343 17.6569 6.34314C16.1566 4.84286 14.1218 4 12 4C9.87827 4 7.84343 4.84286 6.34314 6.34314C4.84286 7.84343 4 9.87828 4 12C4 14.1218 4.84286 16.1566 6.34314 17.6568C7.84343 19.1571 9.87827 20 12 20Z" fill="url(#paint4_linear_328_28442)"/>
<defs>
<linearGradient id="paint0_linear_328_28442" x1="4.33392" y1="14.565" x2="20.3339" y2="14.565" gradientUnits="userSpaceOnUse">
<stop stop-color="#B28947"/>
<stop offset="0.16" stop-color="#F9CE97"/>
<stop offset="0.52" stop-color="#B08656"/>
<stop offset="0.83" stop-color="#F7CF89"/>
<stop offset="1" stop-color="#B68E5D"/>
</linearGradient>
<linearGradient id="paint1_linear_328_28442" x1="16.2671" y1="8.5718" x2="2.27232" y2="14.1089" gradientUnits="userSpaceOnUse">
<stop stop-color="#CAC5C1"/>
<stop offset="0.47" stop-color="#D3CDCD"/>
<stop offset="1" stop-color="#6D6D6D"/>
</linearGradient>
<linearGradient id="paint2_linear_328_28442" x1="23.3339" y1="4.88803" x2="4.23991" y2="14.0532" gradientUnits="userSpaceOnUse">
<stop stop-color="#ACACAC"/>
<stop offset="0.5" stop-color="#E5DDDA"/>
<stop offset="1" stop-color="#747474"/>
</linearGradient>
<linearGradient id="paint3_linear_328_28442" x1="20.0002" y1="11.1101" x2="-25.8613" y2="77.1508" gradientUnits="userSpaceOnUse">
<stop stop-color="#ACACAC"/>
<stop offset="0.5" stop-color="#E5DDDA"/>
</linearGradient>
<linearGradient id="paint4_linear_328_28442" x1="7.7647" y1="5.41176" x2="15.9999" y2="19.0588" gradientUnits="userSpaceOnUse">
<stop stop-color="#F4E9CD"/>
<stop offset="1" stop-color="#F4F2DA"/>
</linearGradient>
</defs>
</svg>
