<svg width="24" height="24" viewBox="0 0 24 24" fill="none" xmlns="http://www.w3.org/2000/svg">
<path d="M12.0002 4V9.91179L17.0001 12.1477L12.0002 4Z" fill="#8FFCF3"/>
<path d="M12.0001 4L7.00024 12.1477L12.0001 9.91179V4Z" fill="#CABCF8"/>
<path d="M12.0002 15.9795V19.9993L17.0001 13.0796L12.0002 15.9795Z" fill="#CBA7F5"/>
<path d="M12.0001 19.9993V15.9795L7.00024 13.0796L12.0001 19.9993Z" fill="#74A0F3"/>
<path d="M12.0002 15.0481L17.0001 12.1483L12.0002 9.91235V15.0481Z" fill="#CBA7F5"/>
<path d="M7.00024 12.1483L12.0001 15.0481V9.91235L7.00024 12.1483Z" fill="#74A0F3"/>
<path fill-rule="evenodd" clip-rule="evenodd" d="M12.0001 15.0476L7.00024 12.1477L12.0001 4L17 12.1477L12.0001 15.0476ZM7.33223 11.9117L11.9201 4.43598V9.87179L7.33223 11.9117ZM7.26423 12.1157L11.9201 10.0478V14.8156L7.26423 12.1157ZM12.0801 10.0478V14.8156L16.7319 12.1157L12.0801 10.0478ZM12.0801 9.87179L16.6679 11.9117L12.0801 4.43598V9.87179Z" fill="#202699"/>
<path fill-rule="evenodd" clip-rule="evenodd" d="M12.0001 15.9162L7.00024 13.0764L12.0001 20.0001L17 13.0764L12.0001 15.9162ZM7.56022 13.5764L11.9201 16.0562V19.6162L7.56022 13.5764ZM12.0801 16.0562V19.6162L16.44 13.5764L12.0801 16.0562Z" fill="#202699"/>
</svg>
