<svg width="24" height="24" viewBox="0 0 24 24" fill="none" xmlns="http://www.w3.org/2000/svg">
<path fill-rule="evenodd" clip-rule="evenodd" d="M12.0659 19.0588C14.993 19.0588 17.4965 17.2047 18.513 14.5882H19.6094L20 13.8823H18.7435C18.8046 13.6518 18.8565 13.4118 18.8942 13.1764H20V12.4706H18.9741C18.9994 12.0786 18.9931 11.6852 18.9554 11.2941H20L19.7365 10.5882H18.8518C18.5473 9.00785 17.705 7.58168 16.4678 6.55219C15.2308 5.52271 13.6753 4.95343 12.0659 4.94116C10.4549 4.95127 8.89719 5.51955 7.65814 6.54922C6.4191 7.5789 5.57534 9.00627 5.27058 10.5882H4.25882L4 11.2941H5.17176C5.1337 11.685 5.1274 12.0786 5.15294 12.4706H4V13.1764H5.23294C5.27058 13.4118 5.32706 13.6518 5.38823 13.8823H4L4.39058 14.5882H5.61412C6.28094 16.3195 7.60554 17.717 9.29882 18.4752C9.39294 18.7671 9.67058 18.9835 10.0047 18.9835C10.4046 18.9835 10.7294 18.6682 10.7294 18.2776C10.7294 17.8918 10.4 17.5718 10 17.5718C9.80234 17.5718 9.62353 17.6517 9.49177 17.7742C8.10377 17.1247 6.99969 15.9922 6.38587 14.5882H8.03764V14.5412C8.4637 15.2053 9.04986 15.7515 9.74225 16.1297C10.4346 16.508 11.211 16.7062 12 16.7058V19.0588H12.0659ZM18.2683 12.4706C18.2958 12.0785 18.2878 11.6847 18.2446 11.2941H16.6588C16.7171 11.6835 16.7266 12.0788 16.6871 12.4706H18.2729H18.2683ZM16.5599 13.1764C16.4941 13.4212 16.4142 13.6565 16.3153 13.8823H18.0047C18.0753 13.6518 18.1318 13.4165 18.1788 13.1764H16.5554H16.5599ZM12.9411 18.2776C15.0918 17.967 16.8847 16.5364 17.7412 14.5882H15.9624V14.5412C15.6226 15.0706 15.1802 15.5265 14.6612 15.8821C14.1424 16.2378 13.5574 16.4858 12.9411 16.6118V18.2776ZM18.127 10.5882C17.8566 9.34762 17.2162 8.21825 16.2902 7.34944C15.3643 6.48063 14.1964 5.91326 12.9411 5.72235V7.38822C14.6258 7.73175 15.9812 8.9694 16.4894 10.5882H18.127ZM6.12706 13.8823C6.05176 13.6518 5.99529 13.4165 5.95294 13.1764H7.4447C7.50587 13.4212 7.58588 13.6565 7.6847 13.8823H6.12234H6.12706ZM5.86353 12.4706H7.31765C7.27828 12.0787 7.28777 11.6835 7.34588 11.2941H5.88706C5.84386 11.6847 5.83598 12.0785 5.86353 12.4706ZM7.51058 10.5882H6C6.29801 9.21071 7.05289 7.97439 8.14209 7.07995C9.23128 6.18554 10.5908 5.68555 12 5.66117V8.08941C12.9565 8.08741 13.8805 8.43602 14.5973 9.0693C15.3141 9.70257 15.774 10.5766 15.8899 11.5261C16.0059 12.4754 15.7698 13.4345 15.2264 14.2215C14.683 15.0087 13.87 15.5694 12.9411 15.7977V14.6494H13.5341C13.7365 14.6494 13.9012 14.48 13.9012 14.273C13.9012 14.0658 13.7365 13.8964 13.5341 13.8964H12.9411V13.28C14.0377 12.9506 14.8235 12.0846 14.8235 11.0589C14.8235 9.75999 13.5577 8.70587 12 8.70587C10.4423 8.70587 9.17646 9.75999 9.17646 11.0589C9.17646 12.3576 10.4423 13.4118 12 13.4118V13.8964H11.0964C10.9987 13.899 10.9058 13.9398 10.838 14.0102C10.7702 14.0808 10.7329 14.1751 10.7341 14.273C10.7341 14.48 10.8941 14.6494 11.0964 14.6494H12V15.9106C11.1057 15.9118 10.238 15.6066 9.54144 15.0456C8.84494 14.4847 8.36174 13.7019 8.17239 12.8279C7.98306 11.9538 8.09902 11.0414 8.50095 10.2425C8.90289 9.44355 9.5665 8.80655 10.3812 8.43764L10.4753 8.44705C10.88 8.44705 11.2094 8.13176 11.2094 7.74116C11.2094 7.35058 10.88 7.03529 10.48 7.03529C10.3758 7.0334 10.2725 7.05428 10.1773 7.0965C10.082 7.13871 9.99708 7.20122 9.92857 7.27966C9.85994 7.35809 9.80932 7.45057 9.78023 7.5506C9.75112 7.65064 9.74422 7.75583 9.75999 7.85882C8.69646 8.43764 7.87765 9.41175 7.51058 10.5882ZM14.0424 11.0589C14.0424 12 13.1294 12.7576 12 12.7576C10.8706 12.7576 9.95766 12 9.95766 11.0589C9.95766 10.1176 10.8706 9.35999 12 9.35999C13.1294 9.35999 14.0424 10.1176 14.0424 11.0589Z" fill="white"/>
</svg>
