<svg width="24" height="24" viewBox="0 0 24 24" fill="none" xmlns="http://www.w3.org/2000/svg">
<path d="M13.5853 12.3383C13.1283 9.36747 12.6712 7.31071 11.9811 6.39659C11.2954 6.16806 9.27986 5.84811 8.544 6.39659C7.8127 6.94506 7.70301 9.36747 7.62988 10.5101L10.3768 11.4242L12.4381 13.938H13.1236C13.3522 13.8603 13.7636 13.4353 13.5808 12.3383H13.5853Z" fill="#B0DEDE"/>
<path d="M11.8984 9.90821L12.584 10.5939L12.7486 10.4293L12.0629 9.74365L11.8984 9.90821Z" fill="#47443D"/>
<path d="M12.5155 9.28508C12.4936 9.26474 12.4646 9.25382 12.4347 9.25469C12.4047 9.25553 12.3764 9.26809 12.3556 9.28965L11.4415 10.2952C11.3958 10.3409 11.3958 10.4139 11.4415 10.4597C11.4918 10.5009 11.5649 10.4963 11.6061 10.4505L12.5202 9.44505C12.5659 9.39934 12.5659 9.32621 12.5155 9.28508Z" fill="#47443D"/>
<path d="M15.4187 6.85474V8.1482L15.0942 8.47271C15.008 8.5571 14.9587 8.6721 14.957 8.79266V9.59709H14.043V8.31732C14.045 8.25864 14.0695 8.20299 14.1114 8.16192L15.4187 6.85474Z" fill="#A39F99"/>
<path d="M7.16797 10.5115C7.16797 9.38262 7.63874 7.40355 7.86726 6.56714L8.30604 6.69055C8.07752 7.52697 7.6296 9.45117 7.6296 10.5115H7.16797ZM9.26587 8.5462C9.40755 7.75549 9.58124 6.9922 9.70004 6.56714L10.1389 6.69055C10.0291 7.1019 9.85542 7.84691 9.7138 8.62848C9.57453 9.32463 9.49047 10.0307 9.4624 10.74H9.00535C9.00535 10.1687 9.11961 9.33234 9.26587 8.5462ZM12.7852 7.70521C12.7135 7.4527 12.6106 7.21011 12.479 6.98306L12.8584 6.73167C12.9909 6.92821 13.1143 7.22987 13.224 7.56352C13.342 7.94075 13.4412 8.32363 13.5211 8.71075C13.6947 9.52431 13.8136 10.4019 13.8136 10.9686H13.3566C13.3566 10.443 13.2423 9.60658 13.0732 8.80672C12.9955 8.435 12.8994 8.06737 12.7852 7.70521Z" fill="#47443D"/>
<path d="M7.16797 5.48324C11.2038 5.1176 13.3566 5.71177 13.5851 6.39736L13.128 7.31148C12.0266 6.763 9.30699 6.78129 8.08666 6.85442L7.54732 6.49791C7.45096 6.43406 7.38237 6.33607 7.35536 6.22367L7.17254 5.48324H7.16797Z" fill="#FFBC50"/>
<path d="M7.38309 6.35186L7.28711 5.9405C8.08696 5.71198 10.6694 5.78054 10.8339 5.9405C11.2909 6.39757 11.2909 6.90033 11.2909 6.90033C10.1392 6.78607 8.83197 6.80892 8.08696 6.85463H7.6299L7.41965 6.44327C7.40578 6.41402 7.39506 6.38338 7.38766 6.35186H7.38309Z" fill="#47443D"/>
<path d="M13.1245 9.82452C14.3494 9.74676 17.0643 9.77876 18.1659 10.51C18.8424 10.9579 19.2948 11.5156 19.5371 11.8813C19.5371 11.8813 19.6422 12.4389 19.1988 12.7954L18.6229 13.2525H15.8759L15.3275 12.5212C15.2849 12.4643 15.2298 12.4182 15.1663 12.3866C15.1027 12.3548 15.0328 12.3383 14.9619 12.3383H13.3165C13.2563 12.3409 13.1962 12.3298 13.1409 12.3062C13.0856 12.2824 13.0361 12.2466 12.9965 12.2013C12.7509 11.8798 12.5294 11.5407 12.3338 11.1865C12.2955 11.1205 12.2757 11.0452 12.2764 10.9688C12.2773 10.8923 12.2986 10.8176 12.3384 10.7523C12.5395 10.4232 12.9234 9.83816 13.1245 9.82452Z" fill="#FFBC50"/>
<path d="M14.4993 15.0816C15.4135 15.0039 17.5251 14.6702 18.6219 13.9389C18.951 13.7424 19.1476 13.482 19.3076 13.2534C19.7646 12.5678 19.7053 12.1016 19.5362 11.8822C18.6219 11.8822 18.2426 12.4902 18.165 12.7963L15.875 13.0249L15.3221 12.4764C15.2376 12.3903 15.1226 12.341 15.0021 12.3392H13.5852C13.5852 12.3392 13.3566 13.7104 13.1282 13.7104H11.9809L11.0668 11.6537L8.54386 10.511L6.25399 10.7395L4.6543 11.8822L11.2953 15.0816H14.4993Z" fill="#47443D"/>
<path d="M19.3125 13.2525C19.7697 12.5669 19.7057 12.1008 19.5411 11.8813C19.1389 11.8813 18.8373 12.0001 18.627 12.1556C18.627 12.5669 18.9561 13.056 19.3125 13.2525Z" fill="#FCFAFD"/>
<path d="M8.00912 10.7397C8.9811 10.7223 9.92523 11.0652 10.6594 11.7023C11.3937 12.3395 11.866 13.2258 11.9856 14.1906C11.9969 14.2461 12.0283 14.2955 12.074 14.3291C12.1196 14.3628 12.1761 14.3782 12.2324 14.3725C12.2888 14.3668 12.3411 14.3404 12.3791 14.2983C12.417 14.2563 12.438 14.2015 12.438 14.1449C12.2095 11.9693 10.3081 10.2828 8.00912 10.2828C7.26017 10.2781 6.52196 10.4609 5.86174 10.8145C5.20153 11.1681 4.64032 11.6815 4.22924 12.3075C4.20025 12.3584 4.19186 12.4184 4.2058 12.4752C4.21974 12.532 4.25494 12.5813 4.30417 12.613C4.35339 12.6446 4.41288 12.6562 4.47037 12.6452C4.52785 12.6344 4.57896 12.6018 4.61317 12.5544C4.98265 11.9924 5.48702 11.5318 6.08021 11.2149C6.67341 10.8979 7.33657 10.7345 8.00912 10.7397Z" fill="#FFBC50"/>
<path d="M17.4796 12.7957C17.4796 12.7351 17.4555 12.677 17.4127 12.6341C17.3698 12.5913 17.3117 12.5671 17.251 12.5671C16.4249 12.5652 15.6256 12.8613 15 13.4011C14.3746 13.941 13.9648 14.6884 13.846 15.5061C13.8374 15.5667 13.8534 15.6281 13.8902 15.677C13.9271 15.7259 13.9818 15.7581 14.0426 15.7665C14.1031 15.7751 14.1646 15.7591 14.2135 15.7223C14.2623 15.6854 14.2946 15.6307 14.303 15.5701C14.4063 14.8622 14.7611 14.2153 15.3026 13.7478C15.8441 13.2802 16.5357 13.0233 17.251 13.0243C17.3117 13.0243 17.3698 13.0002 17.4127 12.9573C17.4555 12.9144 17.4796 12.8563 17.4796 12.7957Z" fill="#A6A29C"/>
<path d="M13.5992 14.2863C13.5992 14.2258 13.5752 14.1676 13.5324 14.1247C13.4896 14.0819 13.4314 14.0579 13.3708 14.0579H12.251V14.5149H13.3753C13.4352 14.5137 13.4921 14.4891 13.534 14.4464C13.5759 14.4036 13.5994 14.3462 13.5992 14.2863ZM12.0271 14.2863C12.0271 14.4143 12.1275 14.5149 12.251 14.5149V14.0579C12.1904 14.0579 12.1322 14.0819 12.0893 14.1247C12.0466 14.1676 12.0225 14.2258 12.0225 14.2863H12.0271Z" fill="#FEBC50"/>
<path d="M15.1895 7.54031C15.1895 7.91968 15.29 8.2259 15.418 8.2259C15.5414 8.2259 15.6464 7.91968 15.6464 7.54031C15.6464 7.16553 15.5414 6.85474 15.418 6.85474C15.29 6.85474 15.1895 7.16553 15.1895 7.54031Z" fill="#A09B95"/>
<path d="M15.4187 8.13449L15.4278 8.11621C15.454 8.08013 15.474 8.03998 15.4871 7.99738C15.5237 7.88768 15.5511 7.72314 15.5511 7.54031C15.5511 7.3575 15.5237 7.19753 15.4871 7.08325C15.4735 7.04229 15.4535 7.00373 15.4278 6.969C15.424 6.96232 15.4195 6.95618 15.4141 6.95072L15.3958 6.969C15.3696 7.00513 15.3496 7.04526 15.3363 7.08783C15.2998 7.19753 15.277 7.36207 15.277 7.54489C15.277 7.72772 15.2998 7.88768 15.3363 8.00194C15.3547 8.05679 15.3775 8.09337 15.3958 8.11621C15.401 8.12314 15.4071 8.12929 15.4141 8.13449H15.4187ZM15.4141 8.2259C15.2907 8.2259 15.1855 7.91968 15.1855 7.54031C15.1855 7.16553 15.2907 6.85474 15.4141 6.85474C15.5421 6.85474 15.6427 7.16553 15.6427 7.54031C15.6427 7.91968 15.5421 8.2259 15.4141 8.2259Z" fill="#B2CCC9"/>
<path d="M4.00113 15.1173L4.02854 15.3596C4.0339 15.4127 4.05508 15.4627 4.08931 15.5035C4.12356 15.5443 4.16927 15.5738 4.22051 15.5882C4.25251 15.5972 4.28908 15.6019 4.32563 15.5972L4.61357 15.5652C4.65929 15.7664 4.72328 15.9583 4.80554 16.1458L4.55417 16.2921C4.52363 16.3095 4.49689 16.3329 4.47549 16.3608C4.4541 16.3888 4.43847 16.4206 4.42955 16.4547C4.42061 16.4888 4.41855 16.5242 4.42346 16.5591C4.42838 16.594 4.44019 16.6274 4.45819 16.6576L4.58158 16.8726C4.61853 16.9325 4.67746 16.9755 4.74579 16.9927C4.81412 17.0098 4.88643 16.9994 4.94723 16.9639L5.20319 16.8176C5.31745 16.973 5.45 17.1194 5.59169 17.2519L5.418 17.4849C5.37631 17.5414 5.35866 17.612 5.36894 17.6814C5.37922 17.7508 5.41659 17.8133 5.47285 17.8552L5.67396 18.0014C5.73077 18.0421 5.80109 18.0589 5.87013 18.0486C5.93917 18.0385 6.00156 18.0018 6.04417 17.9465L6.22242 17.7134C6.39611 17.8094 6.57893 17.8963 6.7709 17.9603L6.70234 18.2437C6.69431 18.2782 6.69327 18.314 6.69931 18.3489C6.70536 18.3839 6.71836 18.4173 6.73754 18.4471C6.75671 18.4769 6.78169 18.5026 6.81098 18.5227C6.84025 18.5426 6.87326 18.5566 6.90802 18.5637L7.15025 18.6185C7.21995 18.6334 7.29271 18.6201 7.35266 18.5817C7.41262 18.543 7.45488 18.4824 7.47019 18.4127L7.53418 18.1293C7.74838 18.1513 7.96416 18.1529 8.17864 18.134L8.2472 18.4173C8.25834 18.4692 8.28476 18.5165 8.32305 18.5532C8.36135 18.5897 8.40975 18.6142 8.46202 18.623C8.49674 18.6297 8.53243 18.6297 8.56714 18.623L8.8048 18.5682C8.87441 18.5529 8.93512 18.5106 8.97366 18.4507C9.0122 18.3906 9.02543 18.3179 9.01048 18.2483L8.9465 17.974C9.14304 17.91 9.33043 17.8277 9.50867 17.7272L9.6732 17.9465C9.71597 18.0031 9.77921 18.0406 9.84938 18.0509C9.91956 18.0611 9.9909 18.0434 10.048 18.0014L10.2445 17.8552C10.2734 17.8347 10.2979 17.8088 10.3166 17.7787C10.3353 17.7486 10.3476 17.7153 10.3532 17.6803C10.3587 17.6454 10.3572 17.6097 10.3488 17.5754C10.3404 17.541 10.3251 17.5087 10.3039 17.4804L10.1439 17.2702C10.2948 17.133 10.4319 16.9776 10.5553 16.813L10.7838 16.9502C10.845 16.9872 10.9185 16.9982 10.988 16.9812C11.0573 16.9641 11.1171 16.92 11.1541 16.8588L11.2821 16.6486C11.3003 16.6186 11.3124 16.5854 11.3176 16.5506C11.3228 16.516 11.3212 16.4806 11.3127 16.4466C11.3041 16.4126 11.289 16.3806 11.2681 16.3525C11.2471 16.3245 11.2208 16.3008 11.1907 16.2829L10.9484 16.1458C11.0307 15.9538 11.0947 15.7572 11.1404 15.5562L11.4283 15.5882C11.4985 15.5959 11.5689 15.5759 11.6245 15.5323C11.68 15.4887 11.7162 15.4251 11.7254 15.3551L11.7482 15.1083C11.7537 15.0561 11.7437 15.0035 11.7193 14.9571C11.6948 14.9109 11.6572 14.8727 11.6112 14.8477C11.5814 14.8312 11.5489 14.8204 11.5152 14.8157L11.2181 14.7837C11.2181 14.569 11.1953 14.354 11.1495 14.1439L11.4283 14.0524C11.4789 14.0354 11.5233 14.0036 11.5558 13.9614C11.5884 13.9191 11.6077 13.868 11.6112 13.8148C11.6112 13.7828 11.6112 13.7462 11.5974 13.7142L11.5197 13.4812C11.5089 13.4472 11.4914 13.4156 11.4681 13.3885C11.4449 13.3615 11.4164 13.3393 11.3844 13.3236C11.3524 13.3077 11.3175 13.2986 11.2819 13.2967C11.2461 13.2946 11.2105 13.2999 11.1769 13.3121L10.9027 13.4034C10.8158 13.2297 10.7198 13.0606 10.601 12.9007L10.8204 12.7041C10.8469 12.6807 10.8685 12.6522 10.8838 12.6202C10.8991 12.5883 10.908 12.5537 10.9097 12.5184C10.9113 12.4829 10.9059 12.4477 10.8937 12.4144C10.8816 12.3811 10.8629 12.3507 10.8388 12.3248L10.6742 12.1419C10.6256 12.0901 10.5584 12.0596 10.4873 12.057C10.4163 12.0545 10.3471 12.0801 10.2948 12.1282L10.0755 12.3202C9.92873 12.1925 9.77121 12.0778 9.60466 11.9774L9.72354 11.7123C9.73783 11.6802 9.74572 11.6457 9.74658 11.6105C9.74754 11.5754 9.74135 11.5404 9.72855 11.5077C9.71586 11.475 9.69666 11.445 9.67224 11.4197C9.64782 11.3944 9.61866 11.3742 9.58638 11.3604L9.367 11.2598C9.30211 11.2302 9.22819 11.2277 9.16139 11.2526C9.09458 11.2774 9.04034 11.3277 9.01048 11.3924L8.89165 11.6575C8.68765 11.5933 8.47796 11.549 8.26548 11.525V11.2324C8.26548 11.1622 8.23755 11.0946 8.18783 11.0449C8.13813 10.9952 8.07069 10.9673 8.00039 10.9673H7.75358C7.68284 10.9673 7.61493 10.9951 7.56449 11.0447C7.51405 11.0943 7.48511 11.1617 7.48391 11.2324V11.525C7.27367 11.5478 7.06342 11.5935 6.86232 11.6575L6.74348 11.3924C6.72962 11.3595 6.70927 11.3298 6.68365 11.305C6.65803 11.2802 6.62768 11.2608 6.59439 11.248C6.5611 11.2352 6.52558 11.2292 6.48993 11.2305C6.45429 11.2318 6.41927 11.2402 6.38697 11.2552L6.15843 11.3604C6.11088 11.3826 6.07084 11.4182 6.04324 11.4629C6.01564 11.5075 6.00167 11.5593 6.00304 11.6118C6.00304 11.6483 6.01218 11.6803 6.02589 11.7123L6.1493 11.9774C5.98019 12.0779 5.82479 12.1968 5.67396 12.3248L5.45914 12.1282C5.40628 12.0807 5.33675 12.0558 5.26569 12.0593C5.19465 12.0626 5.12782 12.094 5.07978 12.1465L4.91524 12.3293C4.8918 12.3551 4.87368 12.3853 4.86192 12.4181C4.85014 12.4509 4.84496 12.4857 4.84667 12.5205C4.84836 12.5553 4.85691 12.5895 4.87181 12.6209C4.88672 12.6525 4.90769 12.6808 4.93352 12.7041L5.14834 12.9007V12.9053C5.03408 13.0653 4.93352 13.2343 4.85125 13.408L4.57245 13.3166C4.50514 13.2961 4.43248 13.302 4.36953 13.3336C4.30656 13.365 4.25812 13.4195 4.23423 13.4856L4.15196 13.7188C4.14053 13.752 4.13585 13.7873 4.1382 13.8224C4.14055 13.8575 4.14985 13.8919 4.1656 13.9233C4.18134 13.9549 4.20319 13.9828 4.22988 14.0059C4.25658 14.0288 4.28758 14.0462 4.32107 14.0571L4.59987 14.1484C4.55417 14.3587 4.53589 14.578 4.53131 14.7929L4.2388 14.8249C4.16883 14.8329 4.10479 14.8681 4.06037 14.9227C4.01596 14.9774 3.9947 15.0473 4.00113 15.1173Z" fill="#47443D"/>
<path d="M4.93287 12.7041L5.1477 12.9007V12.9053L11.2083 16.2967C11.2008 16.2918 11.1932 16.2871 11.1855 16.2829L10.9477 16.1411C11.03 15.9538 11.094 15.7572 11.1397 15.5562L11.4276 15.5882C11.4978 15.5959 11.5683 15.5759 11.6239 15.5323C11.6793 15.4887 11.7156 15.4251 11.7247 15.3551L11.7475 15.1083C11.753 15.0561 11.743 15.0035 11.7186 14.9571C11.6942 14.9109 11.6565 14.8727 11.6105 14.8477C11.5808 14.8312 11.5483 14.8204 11.5146 14.8157L11.2175 14.7837C11.2175 14.569 11.1946 14.354 11.1488 14.1439L11.4276 14.0524C11.4783 14.0354 11.5227 14.0036 11.5552 13.9614C11.5877 13.9191 11.607 13.868 11.6105 13.8148C11.6105 13.7828 11.6105 13.7462 11.5967 13.7142L11.5191 13.4812C11.5083 13.4472 11.4908 13.4156 11.4674 13.3885C11.4442 13.3615 11.4157 13.3393 11.3837 13.3236C11.3517 13.3077 11.3168 13.2986 11.2812 13.2967C11.2455 13.2946 11.2099 13.2999 11.1763 13.3121L10.9021 13.4034C10.8152 13.2297 10.7192 13.0606 10.6004 12.9007L10.8197 12.7041C10.8463 12.6807 10.8679 12.6522 10.8832 12.6202C10.8984 12.5883 10.9073 12.5537 10.909 12.5184C10.9106 12.4829 10.9053 12.4477 10.8932 12.4144C10.881 12.3811 10.8622 12.3507 10.8381 12.3248L10.6736 12.1419C10.6249 12.0901 10.5577 12.0596 10.4867 12.057C10.4156 12.0545 10.3465 12.0801 10.2942 12.1282L10.0748 12.3202C9.92808 12.1925 9.77056 12.0778 9.60401 11.9774L9.72289 11.7123C9.73718 11.6802 9.74507 11.6457 9.74593 11.6105C9.74689 11.5754 9.7407 11.5404 9.7279 11.5077C9.71521 11.475 9.69602 11.445 9.67159 11.4197C9.64717 11.3944 9.61802 11.3742 9.58573 11.3604L9.36635 11.2598C9.30146 11.2302 9.22755 11.2277 9.16074 11.2526C9.09394 11.2774 9.03969 11.3277 9.00984 11.3924L8.891 11.6575C8.68701 11.5933 8.47732 11.549 8.26484 11.525V11.2324C8.26484 11.1622 8.2369 11.0946 8.18718 11.0449C8.13748 10.9952 8.07005 10.9673 7.99974 10.9673H7.75293C7.68219 10.9673 7.61429 10.9951 7.56385 11.0447C7.5134 11.0943 7.48446 11.1617 7.48326 11.2324V11.525C7.27302 11.5478 7.06277 11.5935 6.86167 11.6575L6.74283 11.3924C6.72897 11.3595 6.70862 11.3298 6.683 11.305C6.65739 11.2802 6.62703 11.2608 6.59374 11.248C6.56045 11.2352 6.52493 11.2292 6.48929 11.2305C6.45365 11.2318 6.41862 11.2402 6.38632 11.2552L6.15779 11.3604C6.11023 11.3826 6.0702 11.4182 6.04259 11.4629C6.01499 11.5075 6.00102 11.5593 6.0024 11.6118C6.0024 11.6483 6.01153 11.6803 6.02525 11.7123L6.14865 11.9774C5.97954 12.0779 5.82414 12.1968 5.67331 12.3248L5.45849 12.1282C5.40564 12.0807 5.33611 12.0558 5.26505 12.0593C5.194 12.0626 5.12718 12.094 5.07914 12.1465L4.91459 12.3293C4.89116 12.3551 4.87304 12.3853 4.86127 12.4181C4.8495 12.4509 4.84432 12.4857 4.84602 12.5205C4.84772 12.5553 4.85626 12.5895 4.87116 12.6209C4.88607 12.6525 4.90704 12.6808 4.93287 12.7041Z" fill="#686259"/>
<path d="M5.66895 14.7884C5.66815 15.3037 5.8485 15.8031 6.17851 16.1991C6.50851 16.5951 6.96716 16.8626 7.47433 16.9547C7.98111 17.0494 8.50504 16.9661 8.95734 16.7186C9.40963 16.4712 9.76256 16.0751 9.95613 15.5972C10.0773 15.2946 10.1294 14.9685 10.1088 14.6432C10.0882 14.3177 9.99516 14.0009 9.83668 13.716C9.67821 13.4309 9.45822 13.1849 9.19268 12.9956C8.92712 12.8064 8.62272 12.6786 8.30162 12.6218C7.81942 12.5326 7.32129 12.6042 6.88368 12.8255C6.44607 13.0468 6.09319 13.4055 5.8792 13.8468C5.74012 14.1411 5.66831 14.4628 5.66895 14.7884Z" fill="#686259"/>
<path d="M6.12207 13.4539L9.95675 15.5975C10.1547 15.1011 10.1645 14.5493 9.98448 14.046C9.80435 13.5428 9.4467 13.1225 8.97869 12.8644C8.51084 12.6042 7.96517 12.5208 7.44094 12.6288C6.91671 12.7372 6.44871 13.0299 6.12207 13.4539Z" fill="#47443D"/>
<path d="M7.87635 16.4839C7.65428 16.4845 7.43425 16.4414 7.22885 16.357C7.02344 16.2725 6.83667 16.1484 6.67922 15.9919C6.52176 15.8352 6.39669 15.6491 6.31115 15.4443C6.22561 15.2393 6.18127 15.0195 6.18066 14.7973C6.18188 14.3496 6.36059 13.9207 6.6776 13.6045C6.99462 13.2884 7.42406 13.1109 7.87179 13.1109C8.09425 13.1097 8.31477 13.1523 8.5207 13.2365C8.72664 13.3207 8.91395 13.4446 9.07189 13.6013C9.22983 13.758 9.35532 13.9443 9.44113 14.1496C9.52696 14.3548 9.57144 14.5748 9.57204 14.7973C9.57144 15.0195 9.52711 15.2393 9.44157 15.4443C9.35603 15.6491 9.23097 15.8352 9.0735 15.9919C8.91605 16.1484 8.72928 16.2725 8.52387 16.357C8.31846 16.4414 8.09844 16.4845 7.87635 16.4839Z" fill="#FFBC50"/>
<path d="M7.88643 15.1368C7.7943 15.1368 7.70594 15.1002 7.6408 15.0351C7.57566 14.9699 7.53906 14.8816 7.53906 14.7895C7.53906 14.5975 7.69447 14.4421 7.89099 14.4421C7.98313 14.4421 8.07147 14.4787 8.13662 14.5438C8.20177 14.6089 8.23836 14.6973 8.23836 14.7895C8.23836 14.8816 8.20177 14.9699 8.13662 15.0351C8.07147 15.1002 7.98313 15.1368 7.89099 15.1368H7.88643Z" fill="#47443D"/>
<path d="M7.8772 15.8253C8.0819 15.8253 8.2821 15.7652 8.45278 15.6521C8.62349 15.5393 8.75712 15.3784 8.83703 15.19C8.89626 15.0489 8.92311 14.8962 8.91559 14.7434C8.90807 14.5906 8.86639 14.4414 8.7936 14.3067C8.72081 14.1721 8.61877 14.0555 8.49498 13.9655C8.3712 13.8756 8.22882 13.8146 8.07832 13.7868C7.87733 13.7471 7.66912 13.7676 7.47971 13.8457C7.2903 13.9238 7.12809 14.0558 7.01336 14.2255C6.9078 14.3807 6.84689 14.5618 6.83728 14.7492C6.82768 14.9366 6.86974 15.123 6.95889 15.2881C7.04804 15.4532 7.18084 15.5906 7.34279 15.6853C7.50473 15.7801 7.68961 15.8285 7.8772 15.8253ZM7.8772 13.9422C8.04709 13.9431 8.21299 13.9938 8.35435 14.0881C8.49571 14.1822 8.60633 14.3158 8.67249 14.4724C8.72174 14.5894 8.7442 14.7158 8.73823 14.8425C8.73224 14.9692 8.69798 15.093 8.63793 15.2048C8.57789 15.3165 8.49359 15.4135 8.39122 15.4884C8.28885 15.5633 8.171 15.6144 8.04633 15.6379C7.87894 15.6707 7.70559 15.6537 7.54791 15.5886C7.39022 15.5236 7.25517 15.4135 7.15963 15.2723C7.07274 15.1434 7.02281 14.9933 7.01526 14.8382C7.0077 14.683 7.04282 14.5287 7.11678 14.392C7.19074 14.2554 7.30073 14.1417 7.43479 14.0632C7.56885 13.9847 7.72187 13.9444 7.8772 13.9468V13.9422Z" fill="#47443D"/>
<path d="M8.7686 13.6467L8.86915 13.7474C8.91485 13.7931 8.91485 13.8663 8.86915 13.9119C8.82344 13.9576 8.75032 13.9576 8.70461 13.9119L8.60406 13.8113C8.59299 13.8007 8.58421 13.7879 8.57819 13.7738C8.57218 13.7596 8.56908 13.7445 8.56908 13.7291C8.56908 13.7138 8.57218 13.6985 8.57819 13.6844C8.58421 13.6703 8.59299 13.6575 8.60406 13.6467C8.64976 13.6011 8.72289 13.6011 8.7686 13.6467ZM8.29783 14.2411L8.39381 14.3416C8.43951 14.3872 8.43951 14.4604 8.39381 14.5062C8.3481 14.5518 8.27497 14.5518 8.22926 14.5062L8.12872 14.4056C8.11765 14.3949 8.10886 14.3821 8.10285 14.3679C8.09684 14.3539 8.09375 14.3386 8.09375 14.3232C8.09375 14.3079 8.09684 14.2927 8.10285 14.2786C8.10886 14.2645 8.11765 14.2517 8.12872 14.2411C8.17442 14.1953 8.24756 14.1953 8.29325 14.2411H8.29783Z" fill="#FFD591"/>
<path d="M14.4865 16.1605L14.4956 16.2199C14.5001 16.2695 14.5196 16.3166 14.5515 16.355C14.5832 16.3933 14.626 16.4211 14.6739 16.4347C14.7013 16.4438 14.7379 16.4438 14.7652 16.4393L14.8932 16.4301C14.9298 16.5718 14.9755 16.7136 15.035 16.8506L14.9252 16.9146C14.897 16.9307 14.8721 16.9524 14.8522 16.9781C14.8323 17.0038 14.8176 17.0333 14.8091 17.0648C14.8006 17.0961 14.7984 17.1289 14.8027 17.1613C14.8068 17.1936 14.8176 17.2247 14.8339 17.2529L14.8659 17.3077C14.8992 17.3652 14.9541 17.4071 15.0184 17.4241C15.0825 17.4413 15.151 17.4323 15.2086 17.3991L15.3184 17.3305C15.4097 17.4403 15.5012 17.5454 15.6017 17.6414L15.524 17.7465C15.5044 17.7725 15.49 17.8022 15.4819 17.8338C15.4737 17.8655 15.472 17.8983 15.4766 17.9306C15.4813 17.9629 15.4923 17.994 15.5092 18.022C15.5259 18.05 15.548 18.0745 15.5743 18.0938L15.6245 18.1304C15.6782 18.1685 15.7445 18.1841 15.8095 18.1739C15.8743 18.1636 15.9327 18.1284 15.9719 18.0756L16.0542 17.9658C16.1822 18.0344 16.3147 18.0938 16.4518 18.1396L16.4198 18.2767C16.4124 18.3084 16.4114 18.3414 16.4168 18.3737C16.4223 18.406 16.434 18.4368 16.4515 18.4644C16.4688 18.492 16.4917 18.5159 16.5183 18.5347C16.5451 18.5535 16.5753 18.5668 16.6071 18.5737L16.6667 18.5875C16.7308 18.6012 16.7979 18.5892 16.8533 18.5543C16.9089 18.5192 16.9484 18.4639 16.9637 18.4L16.9957 18.2537C17.1493 18.2681 17.3038 18.2681 17.4574 18.2537L17.4939 18.4C17.501 18.432 17.5142 18.4621 17.533 18.4889C17.5518 18.5157 17.5756 18.5384 17.6033 18.5559C17.631 18.5732 17.6618 18.585 17.694 18.5904C17.7262 18.5959 17.7592 18.5949 17.791 18.5875L17.8505 18.5737C17.9124 18.5575 17.966 18.5181 17.9999 18.4637C18.0339 18.4095 18.0458 18.3441 18.0333 18.2812L18.0013 18.1304C18.1384 18.0848 18.2754 18.0253 18.3989 17.9521L18.4903 18.071C18.5301 18.1217 18.5878 18.1552 18.6517 18.1646C18.7155 18.174 18.7805 18.1584 18.8331 18.1213L18.8833 18.0893C18.91 18.0702 18.9325 18.0461 18.9497 18.0182C18.9669 17.9904 18.9784 17.9594 18.9835 17.9271C18.9886 17.8948 18.9872 17.8617 18.9794 17.83C18.9717 17.7981 18.9577 17.7682 18.9383 17.7419L18.8468 17.623C18.9519 17.5225 19.0479 17.4174 19.1347 17.3031L19.2673 17.3809C19.3243 17.4145 19.3924 17.4241 19.4565 17.4078C19.5208 17.3917 19.5759 17.3507 19.6101 17.294L19.6376 17.2437C19.6713 17.1879 19.6816 17.1209 19.6661 17.0576C19.6508 16.9943 19.6109 16.9396 19.5553 16.9055L19.4136 16.8232C19.4684 16.6861 19.5141 16.549 19.5416 16.4118L19.7152 16.4347C19.7805 16.4412 19.8457 16.4219 19.897 16.3808C19.9482 16.3399 19.9814 16.2805 19.9895 16.2153L19.9985 16.1559C20.0024 16.1235 19.9997 16.0906 19.9908 16.0592C19.9817 16.0278 19.9665 15.9985 19.9462 15.973C19.9258 15.9474 19.9005 15.9263 19.8719 15.9106C19.8432 15.895 19.8117 15.8851 19.7792 15.8818L19.5964 15.8634C19.5964 15.7126 19.5826 15.5662 19.5506 15.4201L19.7198 15.3652C19.7817 15.3434 19.8327 15.2982 19.8618 15.2392C19.8909 15.1803 19.8956 15.1122 19.8752 15.0499L19.8569 14.995C19.8466 14.9639 19.8303 14.9352 19.8087 14.9106C19.7873 14.8859 19.761 14.8658 19.7317 14.8513C19.7024 14.8368 19.6705 14.8283 19.6379 14.8263C19.6051 14.8243 19.5724 14.8288 19.5416 14.8395L19.377 14.8944C19.319 14.7699 19.2502 14.6505 19.1713 14.5379L19.2993 14.4236C19.3469 14.3793 19.3751 14.3179 19.3777 14.2528C19.3802 14.1877 19.3569 14.1243 19.313 14.0763L19.2718 14.0305C19.2273 13.982 19.1654 13.9529 19.0997 13.9495C19.0338 13.9461 18.9693 13.9686 18.9199 14.0123L18.7965 14.1265C18.696 14.0351 18.5863 13.9529 18.4674 13.8797L18.536 13.7335C18.5497 13.7035 18.5571 13.6712 18.558 13.6383C18.5589 13.6055 18.5533 13.5727 18.5413 13.542C18.5293 13.5114 18.5114 13.4835 18.4886 13.4598C18.4658 13.4361 18.4383 13.4173 18.408 13.4044L18.3532 13.3816C18.3236 13.3679 18.2914 13.3602 18.2587 13.3589C18.2261 13.3577 18.1934 13.3629 18.1629 13.3744C18.1322 13.386 18.1042 13.4033 18.0804 13.4257C18.0565 13.4483 18.0374 13.4752 18.0241 13.505L17.9601 13.6466C17.8174 13.5994 17.6705 13.5656 17.5214 13.5462V13.3952C17.5213 13.3461 17.5063 13.298 17.4786 13.2572C17.451 13.2165 17.4117 13.1851 17.366 13.1667C17.3369 13.155 17.3059 13.1488 17.2746 13.1484H17.2106C17.1619 13.1488 17.1145 13.1633 17.0739 13.19C17.0334 13.2168 17.0015 13.2548 16.982 13.2992C16.9695 13.3298 16.9633 13.3624 16.9637 13.3952V13.5416C16.8129 13.5598 16.6621 13.5872 16.5158 13.633L16.4563 13.505C16.4431 13.4752 16.4239 13.4483 16.4002 13.4257C16.3763 13.4033 16.3483 13.386 16.3176 13.3744C16.2871 13.3629 16.2545 13.3577 16.2218 13.3589C16.1891 13.3602 16.157 13.3679 16.1273 13.3816L16.0724 13.4044C16.0132 13.4314 15.9672 13.4806 15.944 13.5414C15.9209 13.602 15.9227 13.6695 15.9491 13.7289L16.0039 13.8569C15.8851 13.9301 15.7663 14.0123 15.6611 14.1037L15.5605 14.0123C15.5112 13.9686 15.4467 13.9461 15.3808 13.9495C15.3151 13.9529 15.2532 13.982 15.2086 14.0305L15.1675 14.0763C15.124 14.1249 15.1016 14.1887 15.1051 14.2538C15.1084 14.3188 15.1375 14.3799 15.1858 14.4236L15.2818 14.5151C15.1994 14.6294 15.1264 14.7527 15.0624 14.8807L14.939 14.8395C14.8772 14.8205 14.8103 14.826 14.7524 14.8549C14.6944 14.8839 14.65 14.9341 14.6281 14.995L14.6053 15.0543C14.5954 15.0853 14.5916 15.1179 14.5942 15.1502C14.5968 15.1826 14.606 15.2141 14.6208 15.243C14.6357 15.2719 14.656 15.2975 14.6808 15.3185C14.7056 15.3394 14.7344 15.3553 14.7652 15.3652L14.8841 15.4109C14.8521 15.5618 14.8384 15.7172 14.8384 15.8771L14.7104 15.8908C14.6444 15.8978 14.584 15.9305 14.542 15.9818C14.5 16.0332 14.4801 16.099 14.4865 16.1651V16.1605Z" fill="#47443D"/>
<path d="M15.1856 14.4236L15.2861 14.5151L19.6144 16.9604C19.5977 16.939 19.5777 16.9205 19.555 16.9055L19.4133 16.8232C19.4682 16.6906 19.514 16.5536 19.5413 16.4118L19.7149 16.4347C19.7804 16.4412 19.8455 16.4219 19.8968 16.3808C19.948 16.3399 19.9812 16.2805 19.9892 16.2153L19.9984 16.1559C20.0022 16.1235 19.9995 16.0906 19.9905 16.0592C19.9815 16.0278 19.9664 15.9985 19.946 15.973C19.9256 15.9474 19.9003 15.9263 19.8716 15.9106C19.8429 15.895 19.8115 15.8851 19.7789 15.8818L19.5961 15.8634C19.5961 15.7126 19.5824 15.5662 19.5504 15.4201L19.7196 15.3652C19.7815 15.3434 19.8325 15.2982 19.8616 15.2392C19.8906 15.1803 19.8954 15.1122 19.8749 15.0499L19.8567 14.995C19.8464 14.9639 19.8301 14.9352 19.8085 14.9106C19.7871 14.8859 19.7609 14.8658 19.7315 14.8513C19.7021 14.8368 19.6703 14.8283 19.6377 14.8263C19.6049 14.8243 19.5721 14.8288 19.5413 14.8395L19.3768 14.8944C19.3188 14.7699 19.25 14.6505 19.1711 14.5379L19.299 14.4236C19.3467 14.3793 19.3749 14.3179 19.3774 14.2528C19.38 14.1877 19.3568 14.1243 19.3128 14.0763L19.2717 14.0305C19.2271 13.982 19.1652 13.9529 19.0994 13.9495C19.0336 13.9461 18.9691 13.9686 18.9197 14.0123L18.7963 14.1265C18.6957 14.0351 18.5861 13.9529 18.4672 13.8797L18.5357 13.7335C18.5494 13.7035 18.5569 13.6712 18.5577 13.6383C18.5587 13.6055 18.553 13.5727 18.5411 13.542C18.5292 13.5114 18.5113 13.4835 18.4883 13.4598C18.4655 13.4361 18.4381 13.4173 18.4078 13.4044L18.353 13.3816C18.3234 13.3679 18.2913 13.3602 18.2585 13.3589C18.2258 13.3577 18.1932 13.3629 18.1626 13.3744C18.132 13.386 18.104 13.4033 18.0802 13.4257C18.0563 13.4483 18.0372 13.4752 18.0238 13.505L17.9599 13.6466C17.8172 13.5994 17.6702 13.5656 17.5211 13.5462V13.3952C17.521 13.3461 17.5061 13.298 17.4784 13.2572C17.4507 13.2165 17.4115 13.1851 17.3658 13.1667C17.3366 13.155 17.3057 13.1488 17.2743 13.1484H17.2103C17.1449 13.1484 17.0821 13.1745 17.0358 13.2208C16.9895 13.2671 16.9635 13.3299 16.9635 13.3952V13.5416C16.8127 13.5598 16.6619 13.5872 16.5155 13.633L16.4562 13.505C16.4428 13.4752 16.4237 13.4483 16.3999 13.4257C16.3761 13.4033 16.348 13.386 16.3174 13.3744C16.2868 13.3629 16.2543 13.3577 16.2215 13.3589C16.1889 13.3602 16.1568 13.3679 16.1271 13.3816L16.0723 13.4044C16.0131 13.4314 15.967 13.4806 15.9439 13.5414C15.9207 13.602 15.9225 13.6695 15.9488 13.7289L16.0036 13.8569C15.8848 13.9301 15.766 14.0123 15.6609 14.1037L15.5603 14.0123C15.5109 13.9686 15.4464 13.9461 15.3806 13.9495C15.3148 13.9529 15.253 13.982 15.2084 14.0305L15.1672 14.0763C15.1238 14.1249 15.1014 14.1887 15.1048 14.2538C15.1083 14.3188 15.1372 14.3799 15.1856 14.4236Z" fill="#686259"/>
<path d="M15.5508 15.8762C15.5494 16.2782 15.6918 16.6675 15.9525 16.9736C16.2133 17.2796 16.575 17.4822 16.9723 17.5444C17.3689 17.6082 17.7752 17.53 18.1198 17.3235C18.4643 17.1169 18.7248 16.7954 18.8554 16.4155C18.9835 16.0365 18.972 15.6241 18.8228 15.2527C18.6736 14.8815 18.3967 14.5758 18.0419 14.3907C17.6858 14.203 17.2748 14.1472 16.8817 14.2334C16.4885 14.3196 16.1385 14.542 15.8937 14.8614C15.6715 15.1531 15.5511 15.5095 15.5508 15.8762Z" fill="#47443D"/>
<path d="M15.5508 15.8756C15.5505 16.2679 15.6874 16.6483 15.9378 16.9504C16.1882 17.2526 16.5363 17.4576 16.922 17.5302C17.3072 17.6043 17.7061 17.5436 18.0516 17.3579C18.3972 17.1722 18.6682 16.8731 18.8187 16.5109L15.8937 14.8608C15.6715 15.1525 15.5511 15.509 15.5508 15.8756Z" fill="#686259"/>
<path d="M17.2425 17.1888C16.5111 17.1888 15.917 16.5946 15.917 15.8725C15.917 15.1457 16.5111 14.5562 17.2425 14.5562C17.9738 14.5562 18.5679 15.1502 18.5679 15.8725C18.5679 16.5992 17.9738 17.1888 17.2425 17.1888Z" fill="#FFBC50"/>
<path d="M17.2468 16.2251C17.1548 16.2251 17.0663 16.1885 17.0012 16.1234C16.9361 16.0582 16.8994 15.9699 16.8994 15.8778C16.8994 15.785 16.9363 15.6961 17.0019 15.6305C17.0674 15.565 17.1564 15.5281 17.2491 15.5281C17.3418 15.5281 17.4308 15.565 17.4964 15.6305C17.5619 15.6961 17.5987 15.785 17.5987 15.8778C17.5987 16.0697 17.4433 16.2251 17.2468 16.2251Z" fill="#47443D"/>
<path d="M17.7034 15.2827L17.804 15.3833C17.8497 15.4291 17.8497 15.5021 17.804 15.5479C17.7582 15.5936 17.6852 15.5936 17.6394 15.5479L17.5389 15.4473C17.5279 15.4367 17.519 15.4239 17.513 15.4098C17.5071 15.3956 17.5039 15.3804 17.5039 15.3651C17.5039 15.3497 17.5071 15.3345 17.513 15.3204C17.519 15.3062 17.5279 15.2934 17.5389 15.2827C17.5846 15.2371 17.6577 15.2371 17.7034 15.2827Z" fill="#FFD591"/>
<path d="M12.2826 11.0131C16.099 10.5561 17.9958 11.6667 18.5899 12.1924L18.6539 12.1237C18.0324 11.5753 16.1081 10.4646 12.2734 10.9218L12.2826 11.0131Z" fill="#FFD48F"/>
<path d="M14.957 9.59649C14.957 9.59649 14.4999 9.13941 14.043 8.91089V12.7959H14.957V9.59649Z" fill="#47443D"/>
<path d="M14.957 9.59649C14.957 9.59649 14.5594 9.19884 14.1344 8.9566C14.1042 8.94065 14.0738 8.92541 14.043 8.91089V12.7959H14.957V9.59649ZM14.8657 12.7045H14.1344V9.06629C14.4006 9.22608 14.6462 9.41797 14.8657 9.63761V12.7045Z" fill="#9F9C95"/>
<path d="M15.1892 11.4244C15.1892 11.3031 15.1411 11.1869 15.0554 11.1011C14.9696 11.0155 14.8534 10.9673 14.7322 10.9673H14.2751C14.2147 10.9668 14.1548 10.9781 14.0988 11.0008C14.0428 11.0235 13.992 11.0571 13.9489 11.0995C13.906 11.1421 13.872 11.1927 13.8487 11.2484C13.8255 11.3042 13.8135 11.3639 13.8135 11.4244V12.567C13.8135 12.6883 13.8616 12.8046 13.9473 12.8902C14.0331 12.9759 14.1493 13.0241 14.2705 13.0241H14.7275C14.8488 13.0241 14.9651 12.9759 15.0508 12.8902C15.1364 12.8046 15.1847 12.6883 15.1847 12.567V11.4244H15.1892Z" fill="#48453E"/>
<path d="M15.0933 11.4244C15.0933 11.3274 15.0547 11.2344 14.9862 11.1658C14.9176 11.0973 14.8246 11.0586 14.7275 11.0586H14.2705C14.1736 11.0586 14.0805 11.0973 14.012 11.1658C13.9434 11.2344 13.9049 11.3274 13.9049 11.4244V12.567C13.9049 12.7681 14.0695 12.9327 14.2705 12.9327H14.7275C14.8246 12.9327 14.9176 12.8942 14.9862 12.8256C15.0547 12.757 15.0933 12.6641 15.0933 12.567V11.4244ZM14.7275 10.9673C14.8488 10.9673 14.9651 11.0155 15.0508 11.1011C15.1364 11.1869 15.1847 11.3031 15.1847 11.4244V12.567C15.1847 12.6882 15.1364 12.8045 15.0508 12.8902C14.9651 12.9759 14.8488 13.0241 14.7275 13.0241H14.2705C14.1493 13.0241 14.0331 12.9759 13.9473 12.8902C13.8616 12.8045 13.8135 12.6882 13.8135 12.567V11.4244C13.8135 11.3031 13.8616 11.1869 13.9473 11.1011C14.0331 11.0155 14.1493 10.9673 14.2705 10.9673H14.7275Z" fill="#A49F98"/>
</svg>
