<svg width="24" height="24" viewBox="0 0 24 24" fill="none" xmlns="http://www.w3.org/2000/svg">
<path d="M13.8827 6.74709C13.7478 6.51041 13.5494 6.3162 13.3099 6.18646C13.0704 6.05673 12.7993 5.99664 12.5274 6.01301C12.3768 6.03185 12.1791 6.11183 12.0051 6.10713C11.7428 6.10938 11.4892 6.01286 11.2948 5.83675C11.1004 5.66065 10.9794 5.41784 10.9558 5.15659C10.8616 4.3284 11.8027 3.71666 12.5085 4.13547C12.7675 4.28605 12.9321 4.48369 12.998 4.71897C13.0968 5.0813 13.1862 5.29306 13.4827 5.52364C13.8121 5.77774 14.2214 5.9095 14.6262 5.81068C14.8143 5.76362 14.9461 5.7448 15.0166 5.7448C15.6755 5.75891 15.9202 6.18712 16.0896 6.75651C16.1978 7.12826 16.6919 7.43882 17.0167 7.54235C17.2143 7.60353 17.4119 7.58941 17.6331 7.54235C17.7743 7.5047 17.9201 7.46235 18.066 7.47647C19.073 7.57058 19.3929 8.7564 18.626 9.39637C18.5789 9.42932 18.5318 9.5046 18.4706 9.62225C18.2777 9.9893 18.2637 10.7187 18.5553 11.0481C18.6824 11.1892 18.833 11.3304 18.9177 11.4904C19.4824 12.5256 18.193 13.575 17.3036 12.7986C16.8895 12.4315 16.8331 11.7775 17.2001 11.3445C17.4684 11.0292 17.6707 10.8128 17.6801 10.3611C17.6848 9.91397 17.6189 9.65989 17.3177 9.34461C17.16 9.17726 17.0424 8.97608 16.9743 8.7564C16.9131 8.56819 16.866 8.44583 16.8331 8.39406C16.1743 7.35884 14.8849 8.10232 15.4591 9.1658C15.5767 9.37756 15.7884 9.52343 15.9107 9.73989C16.4755 10.7609 15.2332 11.8386 14.3202 11.0574C13.9438 10.7375 13.8497 10.2057 14.0803 9.76342C14.2309 9.47166 14.5226 9.33991 14.6166 8.98698C14.7202 8.60113 14.7109 8.02232 14.419 7.70705C14.3109 7.5847 14.1791 7.46706 14.0991 7.32118C13.9956 7.13295 13.9579 6.91179 13.8827 6.74709Z" fill="#2CBCB9"/>
<path d="M6.75821 10.8585C7.27113 11.0938 7.78404 10.6044 7.94403 10.1433L8.06168 9.79038C8.43342 9.07512 9.5016 8.99983 9.90163 9.7245C10.2875 10.4115 9.8498 11.2867 9.04987 11.3196C9.0028 11.3196 8.86164 11.2961 8.62635 11.2492C8.40475 11.2012 8.17471 11.2092 7.957 11.2724C7.73928 11.3357 7.54075 11.4522 7.37935 11.6115C7.05937 11.8985 7.07349 12.1997 6.93232 12.4867C6.8335 12.689 6.59822 12.8632 6.49469 13.0372C6.25941 13.4419 6.25941 14.0114 6.48059 14.4207C6.5794 14.609 6.80998 14.769 6.9182 14.9713C7.10643 15.31 7.07819 15.7336 6.86645 16.0629C6.78533 16.1806 6.68132 16.2807 6.56067 16.3573C6.44001 16.4338 6.30516 16.4853 6.16416 16.5086C6.02317 16.5319 5.87894 16.5265 5.74008 16.4928C5.60121 16.4591 5.47056 16.3977 5.35592 16.3124C5.14899 16.1525 5.00885 15.9214 4.96277 15.664C4.91668 15.4066 4.96791 15.1413 5.10654 14.9195C5.21476 14.7454 5.48299 14.5431 5.56769 14.3313C5.71356 13.9266 5.73708 13.2631 5.42181 12.9197C5.28064 12.7738 5.12535 12.6185 5.04535 12.4396C4.8336 11.9879 4.96537 11.5597 5.29946 11.2162C5.5065 10.995 5.62885 10.7739 5.66179 10.468C5.69944 10.148 5.64768 9.70568 5.42652 9.46099C5.29005 9.31041 5.13006 9.16453 5.05006 8.98101C4.7489 8.32222 5.1677 7.52226 5.9112 7.47521C6.25001 7.46109 6.59822 7.66344 6.98408 7.53638C7.35111 7.41404 7.81698 7.11287 7.92521 6.73171C8.05227 6.24703 8.24519 5.8847 8.77223 5.77176C9.64747 5.57412 10.391 6.52467 9.90163 7.33874C9.7983 7.5088 9.64877 7.64599 9.47048 7.73431C9.29217 7.82262 9.09244 7.85842 8.89457 7.83754C8.71106 7.80931 8.48989 7.73872 8.31108 7.74343C7.99515 7.75419 7.69237 7.87246 7.45278 8.07867C7.2132 8.28488 7.05117 8.56669 6.99349 8.87748C6.94643 9.12689 6.60763 9.36216 6.48528 9.57393C6.23588 10.0115 6.23588 10.6186 6.75821 10.8585Z" fill="#3291C2"/>
<path d="M13.9772 13.9698C13.9437 13.8186 13.8808 13.6756 13.7919 13.5488C13.7031 13.422 13.5901 13.3141 13.4595 13.231C12.9371 12.8828 12.6596 12.9392 12.1043 13.0522C11.902 13.0899 11.5773 12.9675 11.4032 12.9534C11.1064 12.9474 10.8152 13.0345 10.5704 13.2024C10.3257 13.3704 10.1397 13.6108 10.0385 13.8898C9.98205 14.0874 9.94439 14.2051 9.92089 14.2428C9.61502 14.7933 8.83859 14.9815 8.33979 14.5627C8.20486 14.453 8.0989 14.3118 8.03119 14.1516C7.96347 13.9914 7.93608 13.8171 7.9514 13.644C7.96673 13.4707 8.02431 13.3038 8.1191 13.1579C8.21389 13.0121 8.34298 12.8918 8.49508 12.8075C9.05036 12.4922 9.53033 12.9534 10.1138 12.6993C10.4292 12.5581 10.8009 12.3086 10.9044 11.9887C10.9891 11.7346 11.0456 11.4806 11.2479 11.2641C11.5067 10.9911 11.6337 10.8311 11.662 10.4641C11.6996 10.0123 11.6337 9.61238 11.2761 9.2971C11.0993 9.12064 10.9885 8.88892 10.9619 8.64057C10.9354 8.39223 10.9949 8.1423 11.1302 7.93246C11.9114 6.81723 13.6243 7.92305 12.8713 9.11359C12.8572 9.14181 12.7772 9.23593 12.6361 9.38651C12.2596 9.7959 12.2361 10.4641 12.4854 10.9393C12.5795 11.1229 12.7819 11.2782 12.909 11.4758C13.0031 11.6406 13.0407 11.8617 13.1207 12.0406C13.2599 12.2963 13.4748 12.5028 13.7359 12.6317C13.9972 12.7606 14.2917 12.8056 14.5795 12.7605C14.7065 12.7323 14.8288 12.6899 14.9559 12.6851C15.4171 12.6804 15.7559 12.8828 15.9582 13.2923C16.1794 13.7298 16.0147 14.3086 15.6147 14.5956C15.4737 14.6961 15.31 14.7601 15.1383 14.7819C14.9665 14.8037 14.7921 14.7828 14.6304 14.7209C14.4688 14.6588 14.3249 14.5578 14.2118 14.4268C14.0986 14.2958 14.0196 14.1388 13.9819 13.9698H13.9772Z" fill="#2FA6BD"/>
<path d="M16.0944 17.2357C16.0332 17.3674 16.0049 17.565 15.925 17.7109C15.8369 17.8818 15.7022 18.0243 15.5365 18.1218C15.3708 18.2192 15.1807 18.2677 14.9885 18.2615C14.8144 18.2615 14.6168 18.1909 14.4428 18.1674C13.9534 18.1015 13.4403 18.4356 13.1628 18.8167C13.0593 18.9579 13.0075 19.2874 12.9228 19.452C12.8348 19.6138 12.7058 19.7495 12.5488 19.8456C12.3918 19.9416 12.2122 19.9948 12.0282 19.9996C11.8442 20.0044 11.6621 19.9606 11.5002 19.8727C11.3385 19.7848 11.2027 19.656 11.1064 19.4991C11.0029 19.3343 10.9652 19.085 10.8853 18.9203C10.8053 18.7415 10.65 18.5767 10.4381 18.4309C10.09 18.1956 9.73236 18.1156 9.35591 18.2003C9.17709 18.2426 9.05474 18.2615 8.98886 18.2615C8.81437 18.261 8.64277 18.2168 8.48988 18.1327C8.337 18.0486 8.20773 17.9274 8.11399 17.7802C8.02024 17.633 7.96505 17.4647 7.95346 17.2905C7.94189 17.1164 7.9743 16.9421 8.04774 16.784C8.46182 15.8757 9.71353 15.984 10.0052 16.9439C10.09 17.2121 10.1653 17.4144 10.3817 17.6027C10.6547 17.8238 10.9652 17.998 11.3228 18.0027C11.3699 18.0027 11.5017 17.9791 11.7228 17.9368C11.9158 17.8945 12.1134 17.8945 12.3064 17.9368C12.7157 18.0215 12.9087 18.031 13.2616 17.838C13.6899 17.6027 13.7698 17.0145 13.4027 16.6851C13.2864 16.5822 13.1493 16.5058 13.0007 16.4612C12.852 16.4165 12.6953 16.4046 12.5416 16.4262C12.391 16.4404 12.1934 16.525 12.0193 16.525C11.8498 16.5293 11.6817 16.492 11.53 16.4165C11.3781 16.3409 11.2472 16.2293 11.1484 16.0916C11.0495 15.9537 10.9858 15.7939 10.963 15.6258C10.9401 15.4578 10.9586 15.2868 11.017 15.1275C11.0621 14.9904 11.1357 14.8643 11.233 14.7574C11.3301 14.6507 11.4489 14.5656 11.5813 14.5079C11.7136 14.4502 11.8566 14.421 12.0011 14.4224C12.1455 14.4237 12.2881 14.4555 12.4193 14.5157C12.7017 14.6382 12.8804 14.8169 12.9604 15.0522C13.0404 15.3063 13.1015 15.5604 13.2899 15.7721C13.4546 15.951 13.7274 16.1204 13.9298 16.1956C14.2498 16.3086 14.452 16.2569 14.7392 16.1956C14.965 16.1487 15.158 16.1674 15.3744 16.2145C15.7509 16.2944 15.9437 16.2709 16.2779 16.0922C16.6261 15.9039 16.8426 15.6875 16.9509 15.3204C16.9884 15.1934 17.0214 15.0758 17.0826 14.9675C17.6472 13.9887 19.1766 14.4358 19.0496 15.5887C18.9742 16.2709 18.3578 16.6239 17.7178 16.4875C17.4026 16.4216 17.172 16.384 16.8614 16.5297C16.5132 16.6851 16.2497 16.8828 16.0897 17.2357H16.0944Z" fill="#309CC0"/>
</svg>
