<svg width="24" height="24" viewBox="0 0 24 24" fill="none" xmlns="http://www.w3.org/2000/svg">
<path d="M14.118 6.09048C13.9663 5.82422 13.7431 5.60573 13.4736 5.45977C13.2042 5.31382 12.8992 5.24623 12.5933 5.26464C12.4238 5.28583 12.2015 5.37581 12.0058 5.37053C11.7107 5.37305 11.4254 5.26447 11.2067 5.06635C10.988 4.86823 10.8518 4.59507 10.8252 4.30116C10.7193 3.36945 11.7781 2.68124 12.5721 3.1524C12.8634 3.32181 13.0486 3.54415 13.1228 3.80884C13.234 4.21646 13.3345 4.45469 13.668 4.71409C14.0386 4.99996 14.4991 5.14819 14.9544 5.03702C15.1661 4.98407 15.3143 4.9629 15.3937 4.9629C16.1349 4.97878 16.4102 5.46051 16.6008 6.10108C16.7225 6.51929 17.2784 6.86868 17.6438 6.98515C17.8661 7.05398 18.0884 7.03809 18.3372 6.98515C18.4961 6.9428 18.6601 6.89515 18.8242 6.91104C19.9571 7.0169 20.317 8.35096 19.4542 9.07093C19.4012 9.10799 19.3483 9.19268 19.2795 9.32504C19.0624 9.73796 19.0466 10.5585 19.3748 10.9291C19.5177 11.0878 19.6871 11.2467 19.7824 11.4267C20.4177 12.5913 18.9672 13.7719 17.9666 12.8984C17.5007 12.4855 17.4372 11.7497 17.8501 11.2626C18.1519 10.9078 18.3795 10.6644 18.3901 10.1562C18.3954 9.65323 18.3212 9.36738 17.9824 9.01269C17.805 8.82443 17.6728 8.59809 17.5961 8.35096C17.5272 8.13922 17.4743 8.00157 17.4372 7.94333C16.6961 6.7787 15.2455 7.61512 15.8914 8.81153C16.0237 9.04976 16.262 9.21387 16.3996 9.45738C17.0349 10.606 15.6374 11.8185 14.6103 10.9396C14.1868 10.5797 14.081 9.98143 14.3403 9.48385C14.5097 9.15563 14.8379 9.0074 14.9437 8.61036C15.0603 8.17627 15.0497 7.52512 14.7214 7.17044C14.5997 7.03279 14.4515 6.90045 14.3615 6.73633C14.245 6.52458 14.2026 6.27577 14.118 6.09048Z" fill="#2CBCB9"/>
<path d="M6.10305 10.7159C6.68008 10.9806 7.25711 10.4301 7.4371 9.91129L7.56945 9.51427C7.98766 8.7096 9.18937 8.6249 9.6394 9.44016C10.0735 10.2131 9.58109 11.1976 8.68116 11.2347C8.62822 11.2347 8.46941 11.2082 8.2047 11.1554C7.95541 11.1014 7.69662 11.1104 7.45169 11.1816C7.20676 11.2528 6.98341 11.3838 6.80184 11.563C6.44186 11.886 6.45774 12.2247 6.29893 12.5476C6.18776 12.7753 5.92306 12.9712 5.80659 13.1669C5.5419 13.6223 5.5419 14.2629 5.79072 14.7233C5.90189 14.9352 6.16129 15.1152 6.28304 15.3428C6.4948 15.7239 6.46303 16.2004 6.22482 16.5709C6.13356 16.7033 6.01655 16.8159 5.88081 16.9021C5.74507 16.9882 5.59337 17.0461 5.43475 17.0723C5.27613 17.0985 5.11387 17.0925 4.95765 17.0545C4.80142 17.0166 4.65444 16.9476 4.52548 16.8515C4.29268 16.6717 4.13502 16.4117 4.08317 16.1222C4.03132 15.8325 4.08896 15.5341 4.24491 15.2845C4.36667 15.0887 4.66843 14.8611 4.76371 14.6228C4.92782 14.1675 4.95428 13.4211 4.59959 13.0347C4.44078 12.8706 4.26608 12.6959 4.17608 12.4946C3.93786 11.9865 4.0861 11.5047 4.46195 11.1183C4.69488 10.8695 4.83252 10.6207 4.86958 10.2765C4.91194 9.9166 4.8537 9.41899 4.60489 9.14371C4.45137 8.97431 4.27138 8.81019 4.18138 8.60373C3.84257 7.8626 4.31372 6.96264 5.15016 6.9097C5.53132 6.89382 5.92306 7.12146 6.35716 6.97852C6.77007 6.84089 7.29416 6.50208 7.41593 6.07327C7.55887 5.528 7.77591 5.12038 8.36882 4.99332C9.35347 4.77098 10.1899 5.84035 9.6394 6.75618C9.52315 6.94749 9.35494 7.10183 9.15436 7.20119C8.95376 7.30054 8.72906 7.34082 8.50646 7.31733C8.30001 7.28557 8.05119 7.20616 7.85003 7.21145C7.49461 7.22356 7.15398 7.35661 6.88444 7.58859C6.61491 7.82058 6.43263 8.13762 6.36774 8.48726C6.3148 8.76784 5.93364 9.03253 5.796 9.27076C5.51543 9.76306 5.51543 10.446 6.10305 10.7159Z" fill="#3291C2"/>
<path d="M14.2243 14.2161C14.1867 14.046 14.1159 13.8851 14.016 13.7425C13.916 13.5998 13.7889 13.4784 13.642 13.3849C13.0543 12.9932 12.7421 13.0567 12.1174 13.1837C11.8897 13.2261 11.5244 13.0884 11.3286 13.0726C10.9947 13.0658 10.6671 13.1639 10.3918 13.3528C10.1164 13.5418 9.90719 13.8121 9.7933 14.1261C9.72981 14.3484 9.68744 14.4808 9.66101 14.5231C9.3169 15.1424 8.44342 15.3542 7.88227 14.8831C7.73047 14.7597 7.61126 14.6008 7.53508 14.4206C7.45891 14.2404 7.42809 14.0442 7.44533 13.8495C7.46257 13.6545 7.52735 13.4668 7.63399 13.3027C7.74062 13.1386 7.88585 13.0033 8.05697 12.9084C8.68165 12.5538 9.22162 13.0726 9.87804 12.7867C10.2328 12.6279 10.651 12.3473 10.7674 11.9873C10.8627 11.7015 10.9263 11.4157 11.1539 11.1721C11.445 10.865 11.588 10.685 11.6197 10.2721C11.662 9.76392 11.588 9.31396 11.1857 8.95927C10.9868 8.76076 10.862 8.50007 10.8321 8.22067C10.8023 7.94129 10.8692 7.66012 11.0215 7.42405C11.9004 6.16942 13.8273 7.41347 12.9802 8.75282C12.9644 8.78457 12.8744 8.89046 12.7156 9.05986C12.2921 9.52042 12.2656 10.2721 12.5461 10.8068C12.652 11.0133 12.8797 11.188 13.0226 11.4103C13.1284 11.5957 13.1708 11.8444 13.2608 12.0457C13.4174 12.3334 13.6592 12.5657 13.9529 12.7107C14.2468 12.8557 14.5782 12.9064 14.9019 12.8556C15.0449 12.8238 15.1825 12.7761 15.3254 12.7708C15.8442 12.7655 16.2254 12.9932 16.453 13.4538C16.7019 13.9461 16.5166 14.5972 16.0666 14.9201C15.908 15.0332 15.7237 15.1052 15.5306 15.1297C15.3374 15.1542 15.1412 15.1307 14.9592 15.061C14.7774 14.9912 14.6155 14.8776 14.4883 14.7302C14.3609 14.5828 14.2721 14.4061 14.2296 14.2161H14.2243Z" fill="#2FA6BD"/>
<path d="M16.6062 17.8901C16.5373 18.0383 16.5056 18.2606 16.4157 18.4247C16.3166 18.617 16.165 18.7773 15.9785 18.887C15.7921 18.9965 15.5783 19.0511 15.3621 19.0442C15.1662 19.0442 14.9439 18.9647 14.7481 18.9382C14.1976 18.8642 13.6204 19.24 13.3082 19.6688C13.1917 19.8276 13.1334 20.1983 13.0382 20.3835C12.9392 20.5655 12.7941 20.7181 12.6174 20.8262C12.4408 20.9343 12.2387 20.994 12.0317 20.9995C11.8247 21.0048 11.6198 20.9556 11.4378 20.8567C11.2559 20.7579 11.103 20.613 10.9947 20.4364C10.8782 20.2511 10.8358 19.9705 10.7459 19.7852C10.6559 19.5841 10.4812 19.3988 10.2429 19.2347C9.85124 18.97 9.44891 18.88 9.0254 18.9753C8.82422 19.0229 8.68658 19.0442 8.61247 19.0442C8.41616 19.0436 8.22312 18.9938 8.05112 18.8993C7.87912 18.8047 7.7337 18.6682 7.62823 18.5027C7.52277 18.3371 7.46068 18.1477 7.44765 17.9518C7.43462 17.7559 7.47109 17.5599 7.5537 17.3819C8.01955 16.3601 9.42772 16.4819 9.75589 17.5618C9.85124 17.8636 9.93599 18.0911 10.1795 18.303C10.4865 18.5518 10.8358 18.7477 11.2381 18.753C11.2911 18.753 11.4394 18.7265 11.6881 18.6788C11.9052 18.6312 12.1275 18.6312 12.3447 18.6788C12.8052 18.7742 13.0222 18.7848 13.4193 18.5677C13.9011 18.303 13.991 17.6413 13.5781 17.2707C13.4472 17.1549 13.293 17.069 13.1257 17.0188C12.9585 16.9684 12.7822 16.9551 12.6093 16.9794C12.4399 16.9954 12.2176 17.0906 12.0217 17.0906C11.831 17.0954 11.642 17.0534 11.4712 16.9684C11.3004 16.8835 11.1531 16.7579 11.0419 16.603C10.9307 16.4479 10.859 16.2681 10.8334 16.079C10.8076 15.89 10.8284 15.6975 10.8941 15.5184C10.9449 15.3642 11.0277 15.2222 11.1372 15.102C11.2464 14.9819 11.38 14.8863 11.5289 14.8214C11.6778 14.7564 11.8387 14.7235 12.0013 14.7252C12.1637 14.7266 12.3241 14.7624 12.4717 14.8301C12.7894 14.9679 12.9905 15.169 13.0805 15.4336C13.1705 15.7195 13.2392 16.0054 13.4511 16.2436C13.6364 16.4448 13.9433 16.6354 14.171 16.72C14.531 16.8471 14.7586 16.789 15.0816 16.72C15.3356 16.6672 15.5527 16.6883 15.7962 16.7413C16.2197 16.8312 16.4367 16.8047 16.8127 16.6037C17.2044 16.3918 17.4479 16.1484 17.5698 15.7354C17.612 15.5925 17.6491 15.4602 17.718 15.3384C18.3531 14.2373 20.0737 14.7402 19.9308 16.0372C19.846 16.8047 19.1525 17.2018 18.4325 17.0484C18.0779 16.9742 17.8185 16.9319 17.469 17.0959C17.0774 17.2707 16.7809 17.4931 16.6009 17.8901H16.6062Z" fill="#309CC0"/>
</svg>
