<svg width="24" height="24" viewBox="0 0 24 24" fill="none" xmlns="http://www.w3.org/2000/svg">
<path d="M12.3601 4H3.66667C3.48986 4 3.32029 4.07024 3.19527 4.19526C3.07024 4.32029 3 4.48985 3 4.66667V19.3333C3 19.5103 3.07024 19.6798 3.19527 19.8048C3.32029 19.9297 3.48986 20 3.66667 20H7.00001V14.6666H9.54672L10.6 10.6667H7.00001V8.00002H11.3066L12.3601 4ZM12.5401 10.6667H14.8335C15.187 10.6667 15.5261 10.5263 15.7761 10.2761C16.0262 10.0261 16.1667 9.68701 16.1667 9.33327C16.1667 8.9797 16.0262 8.64058 15.7761 8.39054C15.5261 8.14049 15.187 8.00002 14.8335 8.00002H13.2468L14.3 4H14.6868C15.8255 4.00014 16.9345 4.36486 17.8511 5.04072C18.7677 5.7166 19.444 6.66813 19.7808 7.75606C20.1175 8.84399 20.0973 10.0112 19.7229 11.0867C19.3485 12.1622 18.6396 13.0898 17.7001 13.7333L21 20H16.54L13.7266 14.6666H11.4866L12.5401 10.6667Z" fill="url(#paint0_linear_328_23958)"/>
<defs>
<linearGradient id="paint0_linear_328_23958" x1="6.53573" y1="6.14286" x2="15.7996" y2="19.2092" gradientUnits="userSpaceOnUse">
<stop stop-color="#E752F5"/>
<stop offset="0.48" stop-color="#5C0CA9"/>
<stop offset="1" stop-color="#44019C"/>
</linearGradient>
</defs>
</svg>
