<svg width="24" height="24" viewBox="0 0 24 24" fill="none" xmlns="http://www.w3.org/2000/svg">
<path d="M10.6246 4.11877C9.7043 4.27765 8.81912 4.59808 8.01025 5.06526L12.0147 12.0007L10.6246 4.11877Z" fill="url(#paint0_linear_328_22578)"/>
<path d="M18.9325 8.00659C18.6999 7.60385 18.4328 7.22209 18.134 6.8656L12.0146 12.0005L19.521 9.26808C19.3611 8.82808 19.1635 8.40659 18.9325 8.00659Z" fill="#DADADA"/>
<path d="M19.8795 10.6128C19.7995 10.1547 19.6798 9.70416 19.521 9.26721L12.0146 11.9997H19.9995C19.9995 11.5267 19.958 11.0632 19.8795 10.6128Z" fill="url(#paint1_linear_328_22578)"/>
<path d="M12.0146 12L13.4035 19.877C14.3221 19.7141 15.2049 19.3909 16.0116 18.9225L12.0146 12Z" fill="url(#paint2_linear_328_22578)"/>
<path d="M4.48193 14.7421C4.80248 15.62 5.27483 16.4349 5.87742 17.1496L12.0149 12L4.48193 14.7421Z" fill="url(#paint3_linear_328_22578)"/>
<path d="M4.00049 12C4.00053 12.9351 4.16364 13.8629 4.48248 14.7421L12.0154 12H4.00049Z" fill="url(#paint4_linear_328_22578)"/>
<path d="M8.01043 5.06409C7.20068 5.53041 6.47879 6.13485 5.87744 6.85007L12.0149 11.9995L8.01043 5.06409Z" fill="url(#paint5_linear_328_22578)"/>
<path d="M12.0146 12L16.0116 18.9225C16.8179 18.4548 17.5358 17.8499 18.134 17.1349L12.0146 12Z" fill="url(#paint6_linear_328_22578)"/>
<path d="M12.0146 12L18.134 17.1349C18.7321 16.4206 19.2015 15.6074 19.5205 14.732L12.0146 12Z" fill="url(#paint7_linear_328_22578)"/>
<path d="M5.87789 6.84998C5.27618 7.56525 4.80409 8.37966 4.48291 9.25745L12.0154 11.9994L5.87789 6.84998Z" fill="url(#paint8_linear_328_22578)"/>
<path d="M12.0146 12L19.5205 14.732C19.6793 14.2951 19.7995 13.8449 19.8795 13.387C19.958 12.9365 19.9995 12.473 19.9995 12H12.0146Z" fill="url(#paint9_linear_328_22578)"/>
<path d="M4.48299 9.25781C4.16413 10.1369 4.00051 11.0647 4.00049 11.9998H12.0154L4.48299 9.25781Z" fill="url(#paint10_linear_328_22578)"/>
<path d="M17.1506 5.87804C16.7948 5.57829 16.4135 5.3101 16.011 5.07654L12.0146 11.999L18.134 6.86402C17.8352 6.50748 17.5065 6.17757 17.1506 5.87804Z" fill="url(#paint11_linear_328_22578)"/>
<path d="M5.87744 17.1496C6.47925 17.8641 7.20105 18.4688 8.01043 18.9355L12.0149 12L5.87744 17.1496Z" fill="url(#paint12_linear_328_22578)"/>
<path d="M14.7496 4.4854C14.3125 4.32527 13.862 4.20413 13.4035 4.12341L12.0146 12.0003L16.011 5.0779C15.6111 4.8454 15.1896 4.6464 14.7496 4.4854Z" fill="#C2C2C2"/>
<path d="M8.01025 18.9355C8.81914 19.4026 9.7043 19.7231 10.6246 19.8819L12.0147 12L8.01025 18.9355Z" fill="url(#paint13_linear_328_22578)"/>
<path d="M12.0151 4H12C11.5311 4 11.0716 4.03999 10.625 4.118L12.0151 11.9999L13.404 4.123C12.9531 4.04299 12.4891 4.00099 12.0151 4Z" fill="url(#paint14_linear_328_22578)"/>
<path d="M12.0151 12L10.625 19.8819C11.0716 19.9594 11.5311 20 12 20H12.0151C12.4807 19.9993 12.9455 19.9582 13.404 19.877L12.0151 12Z" fill="url(#paint15_linear_328_22578)"/>
<defs>
<linearGradient id="paint0_linear_328_22578" x1="12.0007" y1="11.6485" x2="16.42" y2="8.2179" gradientUnits="userSpaceOnUse">
<stop stop-color="#ACACAC"/>
<stop offset="1" stop-color="#BDBDBD"/>
</linearGradient>
<linearGradient id="paint1_linear_328_22578" x1="11.7512" y1="10.2134" x2="17.418" y2="17.1299" gradientUnits="userSpaceOnUse">
<stop stop-color="#DADADA"/>
<stop offset="1" stop-color="#FBFBFB"/>
</linearGradient>
<linearGradient id="paint2_linear_328_22578" x1="12.4219" y1="13.101" x2="8.09717" y2="16.2542" gradientUnits="userSpaceOnUse">
<stop stop-color="#373737"/>
<stop offset="1" stop-color="#3F3F3F"/>
</linearGradient>
<linearGradient id="paint3_linear_328_22578" x1="13.717" y1="11.0967" x2="11.9778" y2="7.31985" gradientUnits="userSpaceOnUse">
<stop stop-color="#686868"/>
<stop offset="1" stop-color="#787878"/>
</linearGradient>
<linearGradient id="paint4_linear_328_22578" x1="12.9925" y1="10.8593" x2="15.6172" y2="3.52135" gradientUnits="userSpaceOnUse">
<stop stop-color="#747474"/>
<stop offset="1" stop-color="#7F7F7F"/>
</linearGradient>
<linearGradient id="paint5_linear_328_22578" x1="15.3621" y1="11.7625" x2="12.317" y2="14.4296" gradientUnits="userSpaceOnUse">
<stop stop-color="#B0B0B0"/>
<stop offset="1" stop-color="#848484"/>
</linearGradient>
<linearGradient id="paint6_linear_328_22578" x1="12.7258" y1="11.3778" x2="11.2007" y2="13.9365" gradientUnits="userSpaceOnUse">
<stop stop-color="#282828"/>
<stop offset="1" stop-color="#383838"/>
</linearGradient>
<linearGradient id="paint7_linear_328_22578" x1="13.8861" y1="9.47465" x2="11.3371" y2="14.0949" gradientUnits="userSpaceOnUse">
<stop stop-color="#1A1A1A"/>
<stop offset="1" stop-color="#2D2D2D"/>
</linearGradient>
<linearGradient id="paint8_linear_328_22578" x1="13.817" y1="11.3067" x2="10.8875" y2="16.3858" gradientUnits="userSpaceOnUse">
<stop stop-color="#848484"/>
<stop offset="1" stop-color="#838383"/>
</linearGradient>
<linearGradient id="paint9_linear_328_22578" x1="13.795" y1="4.91373" x2="8.08443" y2="10.8374" gradientUnits="userSpaceOnUse">
<stop stop-color="#010101"/>
<stop offset="1" stop-color="#1C1C1C"/>
</linearGradient>
<linearGradient id="paint10_linear_328_22578" x1="12.7929" y1="10.4652" x2="7.25872" y2="16.7605" gradientUnits="userSpaceOnUse">
<stop stop-color="#888888"/>
<stop offset="1" stop-color="#7B7B7B"/>
</linearGradient>
<linearGradient id="paint11_linear_328_22578" x1="11.2219" y1="7.86119" x2="15.0254" y2="12.4671" gradientUnits="userSpaceOnUse">
<stop stop-color="#C2C2C2"/>
<stop offset="1" stop-color="#DADADA"/>
</linearGradient>
<linearGradient id="paint12_linear_328_22578" x1="14.5671" y1="12.4054" x2="11.6872" y2="9.48821" gradientUnits="userSpaceOnUse">
<stop stop-color="#515151"/>
<stop offset="0.995" stop-color="#6B6B6B"/>
</linearGradient>
<linearGradient id="paint13_linear_328_22578" x1="17.2251" y1="12.341" x2="11.3842" y2="8.67712" gradientUnits="userSpaceOnUse">
<stop stop-color="#434343"/>
<stop offset="1" stop-color="#575757"/>
</linearGradient>
<linearGradient id="paint14_linear_328_22578" x1="5.92889" y1="9.65494" x2="18.5117" y2="9.65494" gradientUnits="userSpaceOnUse">
<stop stop-color="#B9B9B9"/>
<stop offset="1" stop-color="#C1C1C1"/>
</linearGradient>
<linearGradient id="paint15_linear_328_22578" x1="12.9257" y1="16.7278" x2="11.0923" y2="16.7278" gradientUnits="userSpaceOnUse">
<stop stop-color="#3D3D3D"/>
<stop offset="1" stop-color="#464646"/>
</linearGradient>
</defs>
</svg>
