<svg width="24" height="24" viewBox="0 0 24 24" fill="none" xmlns="http://www.w3.org/2000/svg">
<path d="M18.75 5.24998H12.1631C8.28185 5.24998 5.24998 8.20873 5.24998 12.0281V21H3V12.0281C3 7.03873 7.10623 3 12.1631 3H21V11.9718C21 16.9612 16.8937 21 11.8368 21H6.93749V11.6232C7.16153 10.3137 7.84087 9.12556 8.85563 8.26827C9.87042 7.41098 11.1554 6.93967 12.4838 6.93749H16.5V9.18747H12.7481C11.0549 9.18747 9.85689 9.89064 9.3731 11.4374H16.5V13.6874H9.18747V18.75H11.8368C15.7181 18.75 18.75 15.7913 18.75 11.9718V5.24998Z" fill="black"/>
</svg>
