<svg width="24" height="24" viewBox="0 0 24 24" fill="none" xmlns="http://www.w3.org/2000/svg">
<path d="M6.50098 4.50049H20.0002V17.9996H6.50098V4.50049Z" fill="#FF0000"/>
<path d="M4 6.50049H17.9992V19.4997H4V6.50049Z" fill="#00F8FF"/>
<path d="M5.00098 5.50244H19.0001V18.5016H5.00098V5.50244Z" fill="black"/>
<path d="M8.50098 10.0005H14.5006L13.9506 10.7505H10.0009V12.0004H14.3257L13.6656 12.7504H10.0009V15.0003H8.50098V10.0005Z" fill="#00F8FF"/>
<path d="M9.50098 9.00244H15.5006L14.9507 9.75243H11.0009V11.0023H15.3257L14.6657 11.7523H11.0009V14.0021H9.50098V9.00244Z" fill="#FF0000"/>
<path d="M9 9.50049H14.9996L14.4496 10.2505H10.4999V11.5004H14.8247L14.1647 12.2504H10.4999V14.5001H9V9.50049Z" fill="white"/>
</svg>
