<svg width="24" height="24" viewBox="0 0 24 24" fill="none" xmlns="http://www.w3.org/2000/svg">
<path d="M14.6991 9.78128C14.2511 9.74395 14.0431 9.72802 13.6217 9.96262C11.6284 11.0613 9.63707 12.1636 7.64778 13.2697C7.3499 13.451 7.02869 13.591 6.69302 13.6858C5.18354 14.0003 3.84474 12.5656 4.38879 11.1681C4.66616 10.4534 5.09819 10.2347 5.86094 9.81327C9.12526 7.9998 12.3949 6.19696 15.6699 4.39945C16.6833 3.84473 17.6487 3.86606 18.5768 4.47412C19.101 4.79793 19.4824 5.30898 19.6437 5.90359C19.7077 6.14895 19.7396 6.597 19.7342 7.23706V17.7928C19.7342 18.8969 19.0036 19.953 17.8247 19.9957C17.5047 20.0062 17.1848 20.0062 16.8913 19.8889C16.4775 19.6884 16.1262 19.3787 15.8753 18.9934C15.6243 18.6081 15.4833 18.1617 15.4673 17.7021V11.0668C15.4673 10.5173 15.3926 10.1066 14.9072 9.84003C14.8427 9.80605 14.7718 9.78601 14.6991 9.78128Z" fill="url(#paint0_linear_328_22726)"/>
<path d="M10.8217 19.601C9.78694 19.3649 8.83013 18.8672 8.04273 18.1555C7.8667 17.9955 7.66936 17.8142 7.62668 17.5902C7.55201 17.2167 7.82937 17.0355 8.13339 16.8647L10.7897 15.3819C11.1203 15.1952 11.5471 15.3072 11.6965 15.6487C11.7338 15.7287 11.7339 15.8619 11.7339 16.0593V18.865C11.7339 19.1049 11.7017 19.2757 11.6378 19.377C11.4618 19.6597 11.147 19.681 10.8217 19.601Z" fill="url(#paint1_linear_328_22726)"/>
<path d="M14.6352 9.7759C14.2298 9.73857 14.0217 9.73857 13.6217 9.96259C11.6284 11.0613 9.63707 12.1636 7.64778 13.2697C7.3499 13.451 7.02869 13.591 6.69302 13.6857C5.18354 14.0003 3.84474 12.5656 4.38879 11.1681C4.58614 10.6614 4.8635 10.4053 5.27955 10.1439C8.1065 9.22122 12.6402 8.26647 14.6352 9.77055V9.7759Z" fill="url(#paint2_linear_328_22726)"/>
<path d="M14.5292 9.76585L14.6998 9.78178C14.7852 9.78713 14.8599 9.80841 14.9131 9.83518C15.3399 10.0751 15.4465 10.3899 15.4626 10.8379C15.5319 6.54948 12.1236 6.85352 10.8755 7.0402L5.86161 9.81377L5.78694 9.85645C5.60025 9.95777 5.4349 10.0485 5.29089 10.1392C8.09117 9.21641 12.5556 8.27232 14.5292 9.76585Z" fill="url(#paint3_linear_328_22726)"/>
<defs>
<linearGradient id="paint0_linear_328_22726" x1="12.0001" y1="3.99941" x2="12.0001" y2="20.0009" gradientUnits="userSpaceOnUse">
<stop stop-color="#4AF78B"/>
<stop offset="1" stop-color="#23BFEF"/>
</linearGradient>
<linearGradient id="paint1_linear_328_22726" x1="5.69369" y1="9.05918" x2="17.3493" y2="18.2194" gradientUnits="userSpaceOnUse">
<stop stop-color="#3CD1C6"/>
<stop offset="1" stop-color="#34C2D8"/>
</linearGradient>
<linearGradient id="paint2_linear_328_22726" x1="14.8811" y1="4.00721" x2="2.39766" y2="8.4585" gradientUnits="userSpaceOnUse">
<stop stop-color="#226A82"/>
<stop offset="1" stop-color="#55DEB0"/>
</linearGradient>
<linearGradient id="paint3_linear_328_22726" x1="12.4217" y1="6.94977" x2="10.5603" y2="11.6809" gradientUnits="userSpaceOnUse">
<stop stop-color="#2A687F"/>
<stop offset="1" stop-color="#6CF7B6"/>
</linearGradient>
</defs>
</svg>
