<svg width="24" height="24" viewBox="0 0 24 24" fill="none" xmlns="http://www.w3.org/2000/svg">
<path d="M15.6582 7.40025C16.0181 7.61201 16.2352 7.98789 16.2352 8.40083V15.6009C16.2352 16.2467 15.8328 16.7655 15.1764 16.7655C14.5199 16.7655 14.1176 16.2467 14.1176 15.6009V11.1167C14.1176 10.762 13.4823 10.5397 13.1645 10.7038L8.98225 12.9114C8.70566 13.0574 8.38287 13.0893 8.08305 13.0003C7.78321 12.9112 7.53019 12.7083 7.37814 12.435C7.30463 12.3006 7.25875 12.1527 7.24322 12.0003C7.22769 11.8478 7.24282 11.6938 7.28772 11.5473C7.3326 11.4008 7.40635 11.2646 7.50462 11.1472C7.60289 11.0295 7.72369 10.9329 7.8599 10.8626L14.4935 7.37379C14.8588 7.18319 15.3035 7.19378 15.6582 7.40025Z" fill="url(#paint0_linear_328_33605)"/>
<path d="M8.82324 10.3326C9.77621 10.052 10.4644 10.0255 11.2321 10.0255C12.3597 10.0255 13.1909 10.3114 13.4927 10.6609C13.6938 10.7137 14.1174 10.8885 14.1174 11.1162V15.6003C14.1174 16.2461 14.5197 16.7649 15.1762 16.7649C15.8326 16.7649 16.235 16.2461 16.235 15.6003V8.40024C16.235 7.9873 16.0127 7.60612 15.6527 7.39965C15.4756 7.29733 15.2755 7.24127 15.0711 7.23664C14.8666 7.23202 14.6641 7.27897 14.4827 7.37318L8.82324 10.3326Z" fill="url(#paint1_linear_328_33605)"/>
<path d="M12.5767 8.36848C13.1749 8.5273 14.1174 8.94553 14.1174 9.88261V11.0843C14.1174 11.0949 14.1174 11.0738 14.1174 11.0843V15.5737C14.1174 16.209 14.5197 16.7649 15.1761 16.7649C15.8325 16.7649 16.235 16.2461 16.235 15.6003V8.40024C16.235 7.9873 16.0127 7.60612 15.6526 7.39965C15.4756 7.29733 15.2754 7.24127 15.071 7.23664C14.8665 7.23202 14.664 7.27897 14.4826 7.37318L12.5767 8.36848Z" fill="url(#paint2_linear_328_33605)"/>
<path d="M10.7818 14.3563L9.45826 15.1292C9.26767 15.2403 9.17768 15.468 9.29414 15.6586C9.44768 15.9127 9.70712 16.2356 10.0777 16.474C10.4588 16.7227 10.8664 16.7757 11.1629 16.7651C11.3641 16.7493 11.47 16.5745 11.47 16.3733V14.7532C11.47 14.3986 11.0994 14.1709 10.7818 14.3616V14.3563Z" fill="url(#paint3_linear_328_33605)"/>
<path fill-rule="evenodd" clip-rule="evenodd" d="M12 19.9411C14.1061 19.9411 16.1261 19.1044 17.6153 17.6153C19.1045 16.1261 19.9412 14.1061 19.9412 12C19.9412 9.89385 19.1045 7.87399 17.6153 6.38473C16.1261 4.89547 14.1061 4.05882 12 4.05882C9.89384 4.05882 7.87399 4.89547 6.38474 6.38473C4.89547 7.87399 4.05882 9.89385 4.05882 12C4.05882 14.1061 4.89547 16.1261 6.38474 17.6153C7.87399 19.1044 9.89384 19.9411 12 19.9411ZM12 21C14.387 21 16.6761 20.0518 18.364 18.3639C20.0518 16.6761 21 14.387 21 12C21 9.61306 20.0518 7.32386 18.364 5.63603C16.6761 3.94821 14.387 3 12 3C9.61306 3 7.32386 3.94821 5.63603 5.63603C3.94821 7.32386 3 9.61306 3 12C3 14.387 3.94821 16.6761 5.63603 18.3639C7.32386 20.0518 9.61306 21 12 21Z" fill="url(#paint4_linear_328_33605)"/>
<defs>
<linearGradient id="paint0_linear_328_33605" x1="19.5808" y1="2.9977" x2="6.29576" y2="15.4143" gradientUnits="userSpaceOnUse">
<stop offset="0.45" stop-color="#266E84"/>
<stop offset="1" stop-color="#56DBAE"/>
</linearGradient>
<linearGradient id="paint1_linear_328_33605" x1="13.5811" y1="3.43878" x2="12.4344" y2="21.0586" gradientUnits="userSpaceOnUse">
<stop offset="0.18" stop-color="#2F778D"/>
<stop offset="0.27" stop-color="#43B39C"/>
</linearGradient>
<linearGradient id="paint2_linear_328_33605" x1="11.7782" y1="2.99874" x2="11.7782" y2="21.0002" gradientUnits="userSpaceOnUse">
<stop stop-color="#4CFB8F"/>
<stop offset="1" stop-color="#1FC3F1"/>
</linearGradient>
<linearGradient id="paint3_linear_328_33605" x1="11.6747" y1="7.12389" x2="17.8668" y2="21.1957" gradientUnits="userSpaceOnUse">
<stop stop-color="#34D6C1"/>
<stop offset="1" stop-color="#38BFD2"/>
</linearGradient>
<linearGradient id="paint4_linear_328_33605" x1="7.23529" y1="5.11764" x2="17.2941" y2="19.6765" gradientUnits="userSpaceOnUse">
<stop stop-color="#4CFB8F"/>
<stop offset="1" stop-color="#28CEDD"/>
</linearGradient>
</defs>
</svg>
