<svg width="24" height="24" viewBox="0 0 24 24" fill="none" xmlns="http://www.w3.org/2000/svg">
<path d="M15.1441 3.08468C15.8416 3.19718 16.3309 3.33218 16.6234 3.50654C16.9048 3.6753 17.2141 4.01278 17.5402 4.51901C17.3659 4.66526 17.2141 4.74401 17.0847 4.7665C16.7302 4.82839 16.3928 4.69339 16.0778 4.55277C15.913 4.48011 15.7267 4.47345 15.5571 4.53415C15.3876 4.59485 15.2479 4.71829 15.1666 4.87901C15.0542 5.10401 15.1159 5.3965 15.3072 5.56525C15.4927 5.72275 15.7797 5.76212 16.0047 5.8296C16.1397 5.93648 16.2015 6.08273 16.1847 6.26835C16.1677 6.4596 16.0778 6.6396 15.9148 6.81959L16.1734 7.51145C15.8641 7.57895 15.4873 7.60144 15.0485 7.57333C14.3116 7.52832 13.7772 6.80834 13.136 6.48211C12.762 6.40669 12.3813 6.37087 11.9997 6.37523C8.62486 6.37523 6.37493 9.00766 6.37493 12.0002C6.37493 14.9588 8.90611 17.625 12.0447 17.625C14.531 17.625 16.1227 16.4156 17.0623 14.8125H15.3185C14.4466 14.8125 13.676 14.3626 13.4342 13.5469L13.1416 12.4951C13.1309 12.4604 13.1252 12.4244 13.1248 12.3883C13.1263 12.2847 13.1684 12.186 13.242 12.1134C13.3157 12.0409 13.415 12 13.5186 12.0002H19.9308C20.4596 12.0002 20.9208 12.3939 20.9827 12.9058L20.9996 13.1251C21.0164 14.0476 20.5215 15.33 20.049 16.2187C19.2737 17.6666 18.1194 18.8763 16.7095 19.7185C15.2994 20.5607 13.6871 21.0035 12.0447 20.9999C9.65372 20.9999 7.35994 20.0532 5.665 18.3667C3.97008 16.6802 3.01189 14.3911 3 12.0002C3 7.3202 6.63929 3.54591 11.2686 3.15781C11.8872 3.06781 12.506 2.99467 13.1248 3.00031C13.676 3.00031 14.3454 3.03405 15.1441 3.08468ZM17.7934 4.834C18.0466 5.03088 18.2096 5.194 18.2828 5.32337C18.3502 5.44713 18.4177 5.66086 18.4852 5.95899L18.4965 6.01523L20.2065 7.5227C20.3021 7.60707 20.3697 7.71395 20.3921 7.83769L20.3978 7.87145L20.4145 7.98394C20.417 8.00675 20.4122 8.02977 20.4013 8.04988C20.3903 8.07 20.3733 8.08622 20.3527 8.09644L20.3357 8.10205L20.2458 8.13581L20.1615 8.12456C18.429 7.89957 17.3716 7.7027 16.989 7.54521C16.6515 7.40457 16.5784 7.08396 16.7697 6.58335C16.8708 6.33585 16.7697 6.1221 16.6797 5.8971C16.5898 5.68337 16.3816 5.5315 16.2241 5.374C16.0385 5.34026 15.8753 5.374 15.6952 5.3065C15.6696 5.29441 15.6466 5.27719 15.6278 5.25587C15.5153 5.14338 15.5941 4.95776 15.7292 4.89589C15.9541 4.78339 16.2522 4.95213 16.4377 5.07025C16.8034 5.14338 17.0733 5.16025 17.2478 5.13214C17.4166 5.10401 17.6022 5.00275 17.7934 4.834Z" fill="url(#paint0_linear_328_31679)"/>
<defs>
<linearGradient id="paint0_linear_328_31679" x1="4.84495" y1="7.17959" x2="17.5627" y2="20.0887" gradientUnits="userSpaceOnUse">
<stop stop-color="#5250FF"/>
<stop offset="1" stop-color="#E959FF"/>
</linearGradient>
</defs>
</svg>
