<svg width="24" height="24" viewBox="0 0 24 24" fill="none" xmlns="http://www.w3.org/2000/svg">
<path d="M3 16.9483L8.62498 10.9004L9.74998 11.4494L8.06248 13.3754L11.1585 11.9983L12.5625 12.8219L3 16.9483Z" fill="url(#paint0_linear_328_45558)"/>
<path d="M21 16.9497L15.9374 11.7253L18.7499 10.1997L15.3749 7.0498H8.62498L5.25 10.1997L21 16.9497ZM9.18748 7.9498H14.8124L16.7835 9.7993L14.8124 10.6228L13.7999 9.7498H9.74998L12.2249 10.6498H13.35L15.9374 13.3768L7.2165 9.7993L9.18748 7.9498Z" fill="white"/>
<path d="M16.361 11.5173L15.335 10.4058L14.813 10.6218L14.498 10.3203L15.9379 11.7243L16.361 11.5173Z" fill="#E9E9E9" fill-opacity="0.6"/>
<defs>
<linearGradient id="paint0_linear_328_45558" x1="16.2396" y1="7.94708" x2="6.13642" y2="17.6646" gradientUnits="userSpaceOnUse">
<stop stop-color="#FFA902"/>
<stop offset="1" stop-color="#FFF000"/>
</linearGradient>
</defs>
</svg>
