<svg width="24" height="24" viewBox="0 0 24 24" fill="none" xmlns="http://www.w3.org/2000/svg">
<path d="M11.9998 21C14.668 19.4963 17.3097 17.9983 19.9409 16.4999V7.4894L11.9998 3L10.4114 3.88412V4.99587C11.0627 4.62529 11.3432 4.47706 11.9998 4.11176C14.2975 5.4141 16.5791 6.74294 18.8822 8.04529V15.96C16.5845 17.2624 14.2975 18.5912 11.9998 19.8936C9.6703 18.5806 7.44683 17.2571 5.11742 15.9387V6.93882C4.76801 7.1347 4.40801 7.29352 4.05859 7.4894V16.5106L11.9998 21ZM11.9998 18.75C13.9534 17.6487 15.8751 16.4946 17.8232 15.3936V8.61175C15.8751 7.51587 13.9586 6.35646 11.9998 5.25529L9.3527 6.74822V4.49294C8.9927 4.70471 8.59035 5.04352 8.29389 5.20764V8.57469C9.64386 7.81235 10.6975 7.10823 11.9998 6.37236C13.6091 7.27763 15.1603 8.27822 16.7645 9.18883V14.827C15.1022 15.764 13.6675 16.7011 11.9998 17.6434C10.3374 16.6959 8.91329 15.7587 7.23506 14.8112V5.83235C6.88035 6.02822 6.4727 6.20293 6.17624 6.36706V15.3883C8.16154 16.5106 10.0145 17.6329 11.9998 18.7552V18.75ZM14.6468 10.8617V10.3059C13.6568 9.74476 13.0057 9.1941 11.9998 8.62233C11.0891 9.14116 10.2528 9.79759 9.3527 10.3059V13.7152C10.3322 14.266 10.9939 14.827 11.9998 15.3989C13.0004 14.8323 13.6515 14.2711 14.6468 13.7047V13.1436C14.9645 12.9636 15.3615 12.7887 15.7057 12.5929V14.2606C14.3821 15.0123 13.3234 15.7587 11.9998 16.5052C10.7398 15.7959 9.54863 14.9752 8.29389 14.266V9.76586C9.38447 9.14646 10.2157 8.52176 11.3275 7.89176L11.9945 7.52117C13.318 8.26234 14.3768 9.0141 15.7057 9.76058V11.4336C15.3668 11.2376 14.9803 11.0523 14.6468 10.867V10.8617ZM14.1174 10.8776V11.7777C13.4291 11.476 12.6934 11.1687 11.9998 10.8776C11.788 10.9836 11.5338 11.1424 11.3275 11.2483C12.2539 11.5129 13.2491 11.7564 14.1122 12.0053V13.1383C13.4609 13.5088 12.6562 13.874 12.005 14.2447C11.3328 13.8687 10.528 13.4983 9.8822 13.1329V12.2859C10.5757 12.4976 11.3645 12.7783 11.9998 13.1329L12.688 12.7465C11.7615 12.4817 10.7503 12.2383 9.88749 11.9947V10.867C10.5439 10.5017 11.3485 10.1312 12.005 9.76058C12.6668 10.1364 13.4715 10.5071 14.1174 10.8723V10.8776ZM14.9909 11.6188L15.0915 11.6717L15.2821 11.7777L15.1445 11.8623L14.9962 11.947C14.9716 11.9346 14.9468 11.9224 14.9222 11.91L14.6998 11.783L14.8904 11.677C14.924 11.658 14.9576 11.6385 14.9909 11.6188ZM15.2557 12.2648L15.3509 12.2117C15.3451 12.1536 15.3398 12.0954 15.3351 12.0371L15.3191 11.8941L15.1603 11.984L15.0491 12.0476V12.1217L15.0651 12.3706L15.2611 12.2648H15.2557ZM14.6468 12.2329V11.9047L14.9222 12.0424V12.3653L14.6468 12.2329Z" fill="#00ADB4"/>
</svg>
