<svg width="24" height="24" viewBox="0 0 24 24" fill="none" xmlns="http://www.w3.org/2000/svg">
<path d="M12.0003 11.5002C13.1048 11.5002 14.0001 10.6047 14.0001 9.50033C14.0001 8.39583 13.1048 7.50049 12.0003 7.50049C10.8958 7.50049 10.0005 8.39583 10.0005 9.50033C10.0005 10.6047 10.8958 11.5002 12.0003 11.5002Z" fill="#2F6EB6"/>
<path d="M19.2401 4.00049C19.0002 8.03011 15.1506 11.4047 13.2607 12.5946C14.398 12.852 15.5785 12.8522 16.7158 12.5954C17.8531 12.3385 18.9189 11.831 19.8351 11.1099C20.3152 8.03011 19.6352 5.08539 19.2353 4.00049H19.2401Z" fill="#2F6EB6"/>
<path d="M19.2392 12.5946C9.67521 16.1444 5.69054 8.34508 4.89062 4.00049C1.60592 13.7795 8.1803 18.5191 12.0649 19.9991C16.3645 18.3392 18.6392 14.3696 19.2392 12.5946Z" fill="#2F6EB6"/>
</svg>
