<svg width="24" height="24" viewBox="0 0 24 24" fill="none" xmlns="http://www.w3.org/2000/svg">
<path fill-rule="evenodd" clip-rule="evenodd" d="M12 19.5294C13.9969 19.5294 15.9121 18.7362 17.3241 17.3241C18.7362 15.912 19.5294 13.9969 19.5294 12C19.5294 10.003 18.7362 8.08793 17.3241 6.6759C15.9121 5.26386 13.9969 4.47058 12 4.47058C10.0031 4.47058 8.08793 5.26386 6.6759 6.6759C5.26386 8.08793 4.47058 10.003 4.47058 12C4.47058 13.9969 5.26386 15.912 6.6759 17.3241C8.08793 18.7362 10.0031 19.5294 12 19.5294ZM12 20C14.1218 20 16.1566 19.1571 17.6569 17.6568C19.1571 16.1566 20 14.1218 20 12C20 9.87828 19.1571 7.84343 17.6569 6.34314C16.1566 4.84286 14.1218 4 12 4C9.87827 4 7.84343 4.84286 6.34314 6.34314C4.84286 7.84343 4 9.87828 4 12C4 14.1218 4.84286 16.1566 6.34314 17.6568C7.84343 19.1571 9.87827 20 12 20Z" fill="black"/>
<path d="M11.5288 8.70605H9.64648L10.1171 9.17664V14.3531L9.64648 14.8237H11.5288L11.0582 14.3531V9.17664L11.5288 8.70605Z" fill="black"/>
<path d="M7.29395 13.4114V12.1878C7.83511 11.5855 8.84687 10.5455 9.76922 10.7055C10.3386 10.7996 10.5692 11.4913 10.5128 11.9949C10.701 11.8067 10.8893 11.6091 11.1104 11.4584C11.2752 11.3408 11.614 11.162 11.9764 11.3456C12.3104 11.5102 12.4468 11.802 12.508 12.0279L12.6398 11.9478C12.941 11.7691 13.3928 11.529 13.8822 11.529H16.7057V12.4701H13.8822C13.5339 12.4701 13.2092 12.7008 12.9269 12.8796C12.7198 13.0114 12.494 13.176 12.2352 13.176C12.0657 13.176 11.9151 13.1055 11.8116 12.9832C11.6328 12.776 11.6704 12.5125 11.5998 12.2632C11.3033 12.4937 11.0822 12.7996 10.7716 13.0161C10.6068 13.129 10.268 13.3078 9.90566 13.1244C9.78897 13.0693 9.68726 12.987 9.60923 12.8844C9.30335 12.4608 9.72218 12.0608 9.54805 11.656C8.72923 11.9478 7.85395 12.7902 7.29395 13.4114Z" fill="#3FD0C8"/>
<path d="M14.353 8.70605H12.4707L12.9413 9.17664V14.3531L12.4707 14.8237H14.353L13.8825 14.3531V9.17664L14.353 8.70605Z" fill="black"/>
</svg>
