<svg width="24" height="24" viewBox="0 0 24 24" fill="none" xmlns="http://www.w3.org/2000/svg">
<path d="M20.9993 19.7956L12.0109 4.125L3 19.8744C3.93372 19.4413 5.43551 18.9068 6.78547 18.9068C7.56167 18.9068 8.32665 19.0588 8.91163 19.1768C9.26036 19.2444 9.57538 19.3119 9.74967 19.3119C11.2909 19.3119 12.5452 18.35 13.1695 17.8775C13.372 17.7256 13.507 17.6245 13.5632 17.6245C13.9569 17.6245 14.137 17.9169 14.3114 18.1981C14.4914 18.4794 14.6657 18.755 15.0314 18.755C15.1776 18.755 15.2789 18.6425 15.3914 18.5188C15.5318 18.3613 15.6893 18.187 15.9651 18.187C16.5949 18.187 17.0169 18.9068 17.1856 19.3063C17.2306 19.1094 17.4274 18.755 17.8268 18.755C18.1251 18.755 18.3049 19.0306 18.4568 19.2613C18.5693 19.4188 18.6593 19.5594 18.7606 19.5594C18.8506 19.5594 18.9012 19.5256 18.9743 19.4863C19.0981 19.4075 19.2723 19.3063 19.8012 19.3063C20.2623 19.3063 20.6731 19.5312 20.9937 19.7956H20.9993Z" fill="url(#paint0_linear_328_45756)"/>
<path d="M21 19.8068L12.0172 4.125L3.01758 19.8518C3.95128 19.3793 5.43623 18.755 6.78617 18.755C7.56239 18.755 8.32735 18.9688 8.91233 19.1319C9.26107 19.2331 9.57609 19.3119 9.75034 19.3119C11.2916 19.3119 12.5459 18.3556 13.1702 17.8831C13.3727 17.7256 13.5077 17.6245 13.564 17.6245C13.9577 17.6245 14.1377 17.9113 14.3177 18.1981C14.4921 18.4794 14.6665 18.7494 15.0377 18.7494C15.1784 18.7494 15.2796 18.6369 15.392 18.5131C15.5326 18.3613 15.6901 18.187 15.9657 18.187C16.5956 18.187 17.0177 18.9181 17.1865 19.3119C17.2314 19.1206 17.4281 18.7494 17.8276 18.7494C18.1257 18.7494 18.3056 19.0306 18.4575 19.2555C18.57 19.4188 18.66 19.5594 18.7613 19.5594C18.8513 19.5594 18.9019 19.5256 18.975 19.4863C19.0988 19.413 19.2731 19.3175 19.8019 19.3175C20.2631 19.3175 20.6794 19.5425 21 19.8068Z" fill="url(#paint1_linear_328_45756)"/>
<defs>
<linearGradient id="paint0_linear_328_45756" x1="11.9997" y1="4.125" x2="11.9997" y2="19.8744" gradientUnits="userSpaceOnUse">
<stop stop-color="#B4386C"/>
<stop offset="1" stop-color="#F87056"/>
</linearGradient>
<linearGradient id="paint1_linear_328_45756" x1="13.8451" y1="15.8808" x2="19.4529" y2="18.9688" gradientUnits="userSpaceOnUse">
<stop stop-color="#FDC570" stop-opacity="0"/>
<stop offset="1" stop-color="#FEC574"/>
</linearGradient>
</defs>
</svg>
