<svg width="24" height="24" viewBox="0 0 24 24" fill="none" xmlns="http://www.w3.org/2000/svg">
<path d="M14.4228 4.8469C13.644 4.5581 12.8282 4.3807 11.9998 4.31994C11.0963 4.38581 10.2918 4.57402 9.5766 4.83749L10.5882 7.03948L11.9998 7.86757L13.4113 7.03948L14.4228 4.84221V4.8469ZM11.9104 4L11.9998 4.0047L12.0938 4V4.0141C13.6145 4.13568 15.0803 4.63722 16.3566 5.47268L16.1214 5.69853C15.7073 5.42564 15.2416 5.17626 14.7192 4.95983L13.6559 7.26062L12.0374 8.21575L12.0185 8.24869L11.9998 8.23927L11.981 8.24869L11.9621 8.21575L10.3435 7.26062L9.28018 4.95983C8.77674 5.16685 8.32034 5.41152 7.9157 5.67029L7.68044 5.44917C8.94311 4.61415 10.4002 4.11981 11.9104 4.0141V4ZM5.4126 7.91462V15.4051C5.41731 15.6263 5.45966 15.9839 5.58198 16.3461C5.69961 16.7037 5.89251 17.0942 6.21246 17.353L6.87117 17.8705L10.0707 19.9644C10.2118 20.0585 10.4001 19.9549 10.4001 19.7855V18.4493C10.7153 18.6469 11.2281 18.8633 11.901 18.9009C11.9668 18.9026 12.0326 18.9026 12.0986 18.9009C12.629 18.88 13.1454 18.7245 13.5994 18.4493V19.7855C13.5994 19.9549 13.7877 20.0537 13.9288 19.9644L17.1282 17.8659L17.7869 17.353C18.0875 17.0833 18.306 16.7344 18.4174 16.3461C18.5351 15.9839 18.5821 15.6263 18.5869 15.4051V7.99931L18.2669 8.41335V15.4004C18.2669 15.5886 18.2198 15.918 18.1163 16.2473C18.0081 16.5767 17.8341 16.9013 17.5846 17.1084L16.9401 17.6117L13.8818 19.5879V14.4453C14.4934 14.4453 15.3357 14.2853 15.952 13.7019C16.6342 13.0526 17.053 11.9281 16.7849 10.0602L16.7706 9.96138L16.6765 9.92845C16.3143 9.8202 15.6933 9.69314 14.9827 9.66962C14.2629 9.6508 13.4442 9.73079 12.6961 10.0413L12.602 10.079V13.5325L11.9998 13.8713L11.4022 13.5325V10.079L11.3081 10.0413C10.5803 9.75869 9.80124 9.63205 9.02139 9.66962C8.30622 9.69314 7.68516 9.8202 7.32757 9.92845L7.22877 9.96138L7.21465 10.0555C6.94645 11.9281 7.36521 13.0526 8.04744 13.7019C8.62028 14.1998 9.35891 14.4651 10.1177 14.4453V19.5926L7.05937 17.6165L6.41478 17.113C6.16001 16.8799 5.97578 16.58 5.8831 16.2473C5.77489 15.918 5.73725 15.5886 5.73254 15.4004V8.32867L5.4126 7.91462ZM13.5994 18.0588C13.1375 18.4035 12.5761 18.5884 11.9998 18.5857C11.4234 18.5889 10.8617 18.4037 10.4001 18.0588V14.1159L10.2354 14.1206C9.8802 14.1469 9.52336 14.1021 9.18568 13.9891C8.84802 13.876 8.53625 13.6968 8.26859 13.4619C7.69456 12.9256 7.28052 11.9421 7.51576 10.1965C7.85924 10.1025 8.40973 10.0036 9.0308 9.98015C9.68951 9.96138 10.3953 10.0319 11.0588 10.286V13.7113L11.9998 14.2476L12.9407 13.7113V10.286C13.5898 10.051 14.2791 9.94711 14.9686 9.98015C15.5944 10.0036 16.1449 10.1025 16.4837 10.1965C16.7189 11.9421 16.3049 12.9256 15.7309 13.4666C15.4633 13.7014 15.1514 13.8807 14.8138 13.9938C14.4761 14.1069 14.1193 14.1516 13.7641 14.1253L13.5994 14.1159V18.0588ZM8.11332 11.4717L8.07097 11.3869C8.24413 11.1861 8.45572 11.0218 8.69327 10.9039C8.93082 10.7858 9.18955 10.7166 9.45427 10.7C10.0942 10.7 10.5506 11.0623 10.6965 11.2458L10.6259 11.354C10.2897 11.0872 9.87823 10.9326 9.44955 10.9118C8.94141 10.9118 8.34857 11.2881 8.11332 11.4764V11.4717ZM8.13684 11.961L8.08979 11.8669C8.29681 11.6411 8.88024 11.0529 9.56719 11.0529C10.2541 11.0529 10.8046 11.6081 10.9599 11.7869L10.8846 11.8951C10.6227 11.704 10.3298 11.5592 10.0189 11.4669V11.5376C10.0048 11.561 9.99536 11.5563 9.9812 11.5469C9.95771 11.5329 9.92477 11.514 9.84013 11.514C9.69893 11.514 9.73187 11.7163 9.86835 11.7163C9.92949 11.7163 9.97648 11.6786 10.0094 11.6504C10.0424 11.6128 10.0613 11.5987 10.0613 11.6975C10.0613 11.8809 9.89183 12.2056 9.51073 12.2056C9.13431 12.2056 9.00728 11.9421 9.00728 11.7163C9.00728 11.6222 9.0261 11.5469 9.04492 11.4905C8.66381 11.6128 8.30622 11.8293 8.13684 11.961ZM13.1713 11.3869L13.2136 11.4764C13.4489 11.2881 14.037 10.9118 14.5499 10.9118C15.0627 10.9118 15.5426 11.2035 15.7261 11.354L15.7921 11.2458C15.6343 11.0735 15.4424 10.9359 15.2286 10.842C15.0146 10.748 14.7836 10.6996 14.5499 10.7C13.9053 10.7 13.3642 11.1564 13.1713 11.3869ZM13.1902 11.8717L13.2371 11.961C13.5127 11.7592 13.8174 11.6005 14.1406 11.4905C14.1218 11.5469 14.1076 11.6222 14.1076 11.7163C14.1076 11.9421 14.2299 12.2056 14.6111 12.2056C14.9874 12.2056 15.1615 11.8809 15.1615 11.6975C15.1615 11.5987 15.1428 11.6128 15.1051 11.6504C15.0722 11.6786 15.0251 11.7163 14.9639 11.7163C14.8274 11.7163 14.7946 11.514 14.9405 11.514C15.0204 11.514 15.058 11.5329 15.0769 11.5469C15.0957 11.5563 15.1004 11.561 15.1145 11.5376C15.1239 11.5187 15.1239 11.4905 15.1145 11.4669C15.505 11.5752 15.8485 11.7916 15.9849 11.8951L16.0602 11.7869C15.9003 11.6081 15.3545 11.0529 14.6675 11.0529C13.9806 11.0529 13.3972 11.6411 13.1902 11.8717ZM11.7598 14.9676C11.7362 14.8734 11.4915 14.6617 11.374 14.5677C11.3363 14.6288 11.2751 14.7841 11.3269 14.9205C11.3882 15.0946 11.7834 15.0899 11.7598 14.9676ZM12.9361 14.5677C12.8137 14.6617 12.5691 14.8688 12.5502 14.9676C12.5267 15.0899 12.9219 15.0946 12.9831 14.9205C13.0302 14.7793 12.9737 14.6288 12.9361 14.5677ZM12.0891 16.3697C12.0232 16.318 11.9244 16.2709 11.8069 16.2709C11.7033 16.2709 11.628 16.2943 11.5622 16.3133C11.4883 16.3405 11.4082 16.3454 11.3316 16.3273C11.2293 16.3027 11.1255 16.2839 11.0211 16.2709C11.0399 16.3225 11.134 16.459 11.3505 16.459H12.8373C13.049 16.459 13.1478 16.3225 13.1666 16.2709C13.1195 16.2756 12.9878 16.2943 12.8514 16.3273C12.762 16.3509 12.6961 16.332 12.6208 16.3133C12.555 16.2943 12.4796 16.2709 12.3762 16.2709C12.2632 16.2709 12.1644 16.318 12.0938 16.3649L12.0891 16.3697ZM11.5716 16.7177C11.6186 16.7601 11.7834 16.8402 12.0326 16.8402C12.2867 16.8402 12.5267 16.7601 12.6161 16.7177C12.5926 16.812 12.4514 17.0001 12.0609 17.0001C11.6704 17.0001 11.5716 16.812 11.5716 16.7177Z" fill="white"/>
<path d="M5.7092 4.86133C6.76785 5.106 8.89923 6.0282 8.94629 7.75966C8.85219 7.98081 8.56988 8.48896 8.16524 8.74773C7.45008 8.95005 5.89741 8.95946 5.4269 7.36444C5.46453 7.36444 5.55393 7.37855 5.59627 7.43972C5.64333 7.515 5.97269 7.81613 6.34909 7.96199C6.39613 7.98551 6.45731 7.96199 6.48553 7.91022C6.51847 7.84435 6.48553 7.76438 6.41497 7.73614C6.10425 7.62366 5.83918 7.41207 5.66062 7.13403C5.48206 6.85599 5.39994 6.52692 5.4269 6.19758L5.95386 6.38578C6.28384 6.76385 6.6831 7.07527 7.13014 7.30328C7.16157 7.32098 7.1986 7.32594 7.2336 7.3172C7.2686 7.30845 7.29893 7.28663 7.31833 7.25622C7.32961 7.23802 7.33688 7.21762 7.33964 7.19639C7.34241 7.17516 7.34062 7.15358 7.33438 7.1331C7.32815 7.11262 7.31762 7.0937 7.30349 7.0776C7.28936 7.06152 7.27197 7.04862 7.25246 7.03979C6.57023 6.71043 5.50218 5.91058 5.7092 4.86133ZM18.2953 4.86133C17.2366 5.106 15.11 6.0282 15.0629 7.75966C15.1522 7.98081 15.4393 8.48896 15.8439 8.74773C16.5592 8.95005 18.1117 8.95946 18.5823 7.36444C18.5446 7.36444 18.4553 7.37855 18.4129 7.43972C18.3659 7.515 18.0365 7.81613 17.6601 7.96199C17.6345 7.97333 17.6054 7.97427 17.5791 7.96462C17.5527 7.95496 17.5312 7.93546 17.5189 7.91022C17.4907 7.84435 17.5237 7.76438 17.5942 7.73614C17.9049 7.62366 18.1701 7.41207 18.3485 7.13403C18.5272 6.85599 18.6093 6.52692 18.5823 6.19758L18.0506 6.38578C17.7207 6.76385 17.3214 7.07527 16.8744 7.30328C16.8429 7.32098 16.8058 7.32594 16.7709 7.3172C16.7359 7.30845 16.7056 7.28663 16.6861 7.25622C16.6749 7.23802 16.6677 7.21762 16.6649 7.19639C16.6621 7.17516 16.6639 7.15358 16.6701 7.1331C16.6763 7.11262 16.6869 7.0937 16.701 7.0776C16.7152 7.06152 16.7325 7.04862 16.7521 7.03979C17.4342 6.71043 18.5069 5.91058 18.2953 4.86133Z" fill="url(#paint0_linear_328_45766)"/>
<defs>
<linearGradient id="paint0_linear_328_45766" x1="12.0041" y1="4.86123" x2="12.0041" y2="8.84172" gradientUnits="userSpaceOnUse">
<stop stop-color="#DFB579"/>
<stop offset="0.24" stop-color="#E2A761"/>
<stop offset="0.91" stop-color="#976C3F"/>
</linearGradient>
</defs>
</svg>
