<svg width="24" height="24" viewBox="0 0 24 24" fill="none" xmlns="http://www.w3.org/2000/svg">
<path d="M16.4459 16.4999C18.9609 16.4999 20.9999 14.4853 20.9999 12C20.9999 9.51463 18.9609 7.5 16.4459 7.5C14.2428 7.5 12.405 9.04618 11.9829 11.0999H16.4999C16.7386 11.0999 16.9675 11.1948 17.1363 11.3636C17.3051 11.5324 17.3999 11.7612 17.3999 12C17.3999 12.2387 17.3051 12.4676 17.1363 12.6364C16.9675 12.8052 16.7386 12.8999 16.4999 12.8999H11.9829C12.405 14.9541 14.2428 16.4999 16.4459 16.4999Z" fill="#545EFF"/>
<path fill-rule="evenodd" clip-rule="evenodd" d="M3.89999 7.5C3.66131 7.5 3.43239 7.59482 3.2636 7.7636C3.09482 7.93238 3 8.1613 3 8.39999V15.5998C3 15.8386 3.09482 16.0676 3.2636 16.2362C3.43239 16.4051 3.66131 16.4999 3.89999 16.4999H11.1C11.3385 16.4999 11.5676 16.4051 11.7363 16.2362C11.905 16.0676 12 15.8386 12 15.5998V8.39999C12 8.1613 11.905 7.93238 11.7363 7.7636C11.5676 7.59482 11.3385 7.5 11.1 7.5H3.89999ZM11.9981 11.0999H8.3194L6.59997 12.8999H11.9981V11.0999Z" fill="white"/>
</svg>
