<svg width="24" height="24" viewBox="0 0 24 24" fill="none" xmlns="http://www.w3.org/2000/svg">
<path d="M12.6812 13.9062V15.4062C12.6812 15.7812 12.375 16.0875 12 16.0875C11.9937 16.0875 11.9938 16.0875 11.9875 16.0875C11.8063 16.0812 11.6438 16.0062 11.525 15.8875C11.4063 15.7687 11.3312 15.6063 11.325 15.425C11.325 15.4188 11.325 15.4188 11.325 15.4125V12.8938C11.325 12.6688 11.5938 12.5625 11.75 12.7188L12.5 13.4688C12.6125 13.575 12.6812 13.7375 12.6812 13.9062ZM12.6812 8.61875V11.1125C12.6812 11.3375 12.4125 11.4437 12.2563 11.2875L11.5062 10.5375C11.3875 10.4187 11.3187 10.2563 11.3187 10.0875V8.61875C11.3187 8.6125 11.3187 8.6125 11.3187 8.60625C11.325 8.24375 11.6187 7.95 11.9812 7.94375C11.9875 7.94375 11.9875 7.94375 11.9938 7.94375H12C12.375 7.9375 12.6812 8.24375 12.6812 8.61875ZM9.28125 13.6125C9.65625 13.6125 9.9625 13.9187 9.9625 14.2937V17.875C9.9625 18.25 9.65625 18.5562 9.28125 18.5562C8.90625 18.5562 8.6 18.25 8.6 17.875V14.2875C8.6 13.9125 8.90625 13.6125 9.28125 13.6125ZM6.55625 17.1625C6.18125 17.1625 5.875 16.8562 5.875 16.4812V6.95C5.875 6.575 6.18125 6.26875 6.55625 6.26875C6.93125 6.26875 7.2375 6.575 7.2375 6.95V16.4812C7.2375 16.8562 6.93125 17.1625 6.55625 17.1625ZM9.28125 4.7875C9.65625 4.7875 9.9625 5.09375 9.9625 5.46875V11.5938C9.9625 11.9688 9.65625 12.275 9.28125 12.275C8.90625 12.275 8.6 11.9688 8.6 11.5938V5.46875C8.6 5.09375 8.90625 4.7875 9.28125 4.7875ZM14.7188 18.5562C14.3438 18.5562 14.0375 18.25 14.0375 17.875V11.75C14.0375 11.375 14.3438 11.0687 14.7188 11.0687C15.0938 11.0687 15.4 11.375 15.4 11.75V17.875C15.4 18.2562 15.0938 18.5562 14.7188 18.5562ZM14.7188 9.7375C14.3438 9.7375 14.0375 9.43125 14.0375 9.05625V5.46875C14.0375 5.09375 14.3438 4.7875 14.7188 4.7875C15.0938 4.7875 15.4 5.09375 15.4 5.46875V9.05625C15.4 9.43125 15.0938 9.7375 14.7188 9.7375ZM17.4438 17.1625C17.0688 17.1625 16.7625 16.8562 16.7625 16.4812V6.95C16.7625 6.575 17.0688 6.26875 17.4438 6.26875C17.8188 6.26875 18.125 6.575 18.125 6.95V16.4812C18.1187 16.8562 17.8188 17.1625 17.4438 17.1625ZM11.3313 10.3375C11.3313 10.3313 11.325 10.3188 11.325 10.3125C11.3312 10.325 11.3313 10.3313 11.3313 10.3375ZM12 17.4125C12.1688 17.4125 12.3313 17.3937 12.4875 17.3562C12.5875 17.3312 12.6812 17.4063 12.6812 17.5063V19.3188C12.6812 19.6938 12.375 20 12 20C11.625 20 11.3187 19.6938 11.3187 19.3188V17.5063C11.3187 17.4063 11.4125 17.3312 11.5125 17.3562C11.6687 17.3937 11.8312 17.4125 12 17.4125ZM12.6812 4.68125V6.49375C12.6812 6.59375 12.5875 6.66875 12.4875 6.64375C12.3313 6.60625 12.1688 6.5875 12 6.5875C11.8312 6.5875 11.6687 6.60625 11.5125 6.64375C11.4125 6.66875 11.3187 6.59375 11.3187 6.49375V4.68125C11.3187 4.30625 11.625 4 12 4H12.0063C12.375 4 12.6812 4.30625 12.6812 4.68125Z" fill="white"/>
</svg>
