<svg width="24" height="24" viewBox="0 0 24 24" fill="none" xmlns="http://www.w3.org/2000/svg">
<path d="M8.38481 10.4449L6.40479 9.54478L6.9148 8.63477L8.8948 9.53978L8.38481 10.4398V10.4449Z" fill="#282828"/>
<path d="M12.2193 8.9494C12.3643 8.9494 12.4793 8.82441 12.4793 8.67441C12.4793 8.5244 12.3643 8.39941 12.2193 8.39941C12.0742 8.39941 11.9594 8.5244 11.9594 8.67441C11.9594 8.82441 12.0742 8.9494 12.2193 8.9494ZM11.5092 8.7894C11.519 8.76038 11.5241 8.73001 11.5243 8.69941C11.5243 8.54941 11.4093 8.42441 11.2642 8.42441C11.1242 8.42441 11.0043 8.54941 11.0043 8.69941C11.0043 8.8494 11.1242 8.9744 11.2642 8.9744C11.2969 8.97402 11.3292 8.96721 11.3594 8.95441L11.4893 9.09441C11.4823 9.12048 11.4788 9.14742 11.4793 9.1744C11.4793 9.3244 11.5943 9.44941 11.7394 9.44941C11.8793 9.44941 11.9943 9.3244 11.9943 9.1744C11.9943 9.02441 11.8793 8.89941 11.7394 8.89941C11.7049 8.89898 11.6709 8.90581 11.6394 8.91941L11.5092 8.7894ZM11.0543 9.14441C11.0543 9.29441 10.9343 9.4194 10.7944 9.4194C10.781 9.42048 10.7676 9.42048 10.7543 9.4194L10.5793 9.72939C10.6072 9.77445 10.622 9.82642 10.622 9.87941C10.622 9.9324 10.6072 9.98426 10.5793 10.0295L10.6693 10.1694C10.6953 10.1618 10.7223 10.1584 10.7493 10.1594C10.8893 10.1594 11.0094 10.2793 11.0094 10.4344C11.0094 10.5844 10.8893 10.7044 10.7493 10.7044C10.6043 10.7044 10.4893 10.5844 10.4893 10.4344C10.4893 10.3944 10.4942 10.3594 10.5093 10.3294L10.3943 10.1544C10.3844 10.155 10.3743 10.155 10.3643 10.1544C10.2193 10.1544 10.1043 10.0343 10.1043 9.88447C10.1043 9.7344 10.2193 9.60941 10.3643 9.60941C10.3726 9.60898 10.381 9.60898 10.3893 9.60941L10.5693 9.28441C10.5459 9.24151 10.5338 9.1933 10.5343 9.14441C10.5343 8.99442 10.6493 8.86941 10.7944 8.86941C10.9343 8.86941 11.0543 8.99442 11.0543 9.14441ZM9.90429 9.49441C10.0493 9.49441 10.1643 9.37441 10.1643 9.22441C10.1643 9.07441 10.0493 8.9494 9.90429 8.9494C9.75928 8.9494 9.64434 9.0694 9.64434 9.22441C9.64434 9.25941 9.65425 9.29441 9.66429 9.3244L9.45429 9.61941C9.43157 9.61272 9.40799 9.60934 9.3843 9.60941C9.2443 9.60941 9.12929 9.72939 9.12929 9.88447C9.12929 10.0343 9.2443 10.1594 9.3843 10.1594C9.53429 10.1594 9.64434 10.0343 9.64434 9.88447C9.64562 9.8451 9.63885 9.80595 9.62429 9.76938L9.82431 9.48441C9.85434 9.49441 9.87426 9.49941 9.90429 9.49941V9.49441ZM11.5243 9.77445C11.5243 9.92441 11.4093 10.0494 11.2642 10.0494C11.1242 10.0494 11.0043 9.92441 11.0043 9.77445C11.0043 9.62442 11.1242 9.49941 11.2642 9.49941C11.4093 9.49941 11.5243 9.61941 11.5243 9.77445ZM11.4743 12.7744C11.4761 12.7077 11.4531 12.6425 11.4095 12.5917C11.3662 12.5409 11.3056 12.5081 11.2393 12.4994C11.0945 12.3985 10.9901 12.2498 10.9444 12.0795C10.9577 12.0409 10.9628 12.0001 10.9593 11.9593C10.9993 11.7244 11.1593 11.5644 11.2743 11.4945C11.3944 11.4694 11.4743 11.3595 11.4743 11.2243C11.4743 11.0745 11.3643 10.9545 11.2244 10.9545C11.0743 10.9545 10.9593 11.0745 10.9593 11.2243L10.9643 11.2744C10.9142 11.5245 10.7944 11.6494 10.6944 11.7094C10.5543 11.7094 10.4443 11.8344 10.4443 11.9845C10.4443 12.1144 10.5293 12.2244 10.6443 12.2544C10.7693 12.3294 10.9444 12.4795 10.9793 12.6744C10.9667 12.7063 10.96 12.7402 10.9593 12.7744C10.9593 12.9244 11.0743 13.0444 11.2193 13.0444C11.3643 13.0444 11.4793 12.9244 11.4793 12.7744H11.4743ZM9.1793 11.9845C9.1793 12.1344 9.06429 12.2595 8.9193 12.2595C8.77929 12.2595 8.66431 12.1344 8.66431 11.9845C8.66431 11.8344 8.77929 11.7094 8.9193 11.7094C9.06429 11.7094 9.1793 11.8344 9.1793 11.9845ZM9.5493 12.8044C9.57627 12.7591 9.59009 12.7072 9.5893 12.6544C9.5893 12.5044 9.4693 12.3844 9.32931 12.3844C9.18429 12.3844 9.0693 12.5044 9.0693 12.6594C9.0693 12.8094 9.18429 12.9295 9.32931 12.9295H9.3593L9.6193 13.3594C9.59915 13.3998 9.58888 13.4443 9.5893 13.4894C9.5893 13.6394 9.7043 13.7644 9.84433 13.7644C9.98934 13.7644 10.1043 13.6444 10.1043 13.4894C10.1043 13.3395 9.98934 13.2193 9.84433 13.2193C9.82937 13.2181 9.81429 13.2181 9.79922 13.2193L9.5493 12.8044ZM9.22929 13.3845C9.22929 13.5343 9.1143 13.6594 8.96931 13.6594C8.8293 13.6594 8.70931 13.5394 8.70931 13.3845C8.70931 13.2344 8.8293 13.1095 8.96931 13.1095C9.1143 13.1095 9.22929 13.2344 9.22929 13.3845ZM8.66431 12.9345C8.8043 12.9345 8.9193 12.8094 8.9193 12.6594C8.9193 12.5094 8.8043 12.3844 8.66431 12.3844C8.51929 12.3844 8.4043 12.5044 8.4043 12.6594C8.4043 12.8094 8.51929 12.9295 8.66431 12.9295V12.9345ZM9.22929 10.5544C9.22929 10.6044 9.2143 10.6544 9.19429 10.6945L9.37931 10.9545H9.4393L9.6193 10.6894C9.59837 10.6476 9.58807 10.6012 9.5893 10.5544C9.5893 10.4044 9.7043 10.2793 9.84433 10.2793C9.98934 10.2793 10.1043 10.4044 10.1043 10.5544C10.1043 10.7044 9.98934 10.8294 9.84433 10.8294H9.79922L9.6143 11.0994C9.63431 11.1394 9.64434 11.1795 9.64434 11.2294C9.64434 11.3794 9.5293 11.5044 9.3843 11.5044C9.2443 11.5044 9.12929 11.3794 9.12929 11.2294C9.12929 11.1644 9.14929 11.1044 9.1793 11.0593L9.0093 10.8244L8.97931 10.8294L8.8443 11.1194C8.8943 11.1694 8.9193 11.2394 8.9193 11.3145C8.9193 11.4644 8.8043 11.5894 8.66431 11.5894C8.51929 11.5894 8.4043 11.4644 8.4043 11.3145C8.4043 11.1694 8.5043 11.0544 8.6393 11.0395L8.77929 10.7394C8.73463 10.6881 8.7098 10.6225 8.70931 10.5544C8.70931 10.4044 8.8293 10.2793 8.96931 10.2793C9.1143 10.2793 9.22929 10.4044 9.22929 10.5544ZM10.2293 11.5044C10.3743 11.5044 10.4893 11.3794 10.4893 11.2243C10.4893 11.0745 10.3743 10.9545 10.2293 10.9545C10.0894 10.9545 9.96921 11.0745 9.96921 11.2243C9.96921 11.3743 10.0894 11.4994 10.2293 11.4994V11.5044ZM10.6994 13.8044C10.8493 13.8044 10.9593 13.6844 10.9593 13.5295C10.9593 13.3795 10.8443 13.2544 10.6994 13.2544C10.5594 13.2544 10.4443 13.3795 10.4443 13.5295C10.4443 13.6793 10.5594 13.8044 10.6994 13.8044ZM11.5092 14.2245C11.5092 14.3743 11.3944 14.4994 11.2493 14.4994C11.2203 14.4994 11.1916 14.4944 11.1643 14.4844L11.0493 14.6845C11.0593 14.7094 11.0643 14.7444 11.0643 14.7744C11.0643 14.9245 10.9492 15.0495 10.8043 15.0495C10.6643 15.0495 10.5494 14.9294 10.5494 14.7744V14.7243L10.3192 14.4594C10.2827 14.4735 10.2433 14.4786 10.2043 14.4745L10.1543 14.5944C10.1943 14.6445 10.2143 14.7044 10.2143 14.7744C10.2143 14.9245 10.0994 15.0495 9.95931 15.0495C9.81429 15.0495 9.69928 14.9294 9.69928 14.7744C9.69928 14.6243 9.80934 14.5045 9.94929 14.4994L10.0143 14.3544C9.98563 14.3097 9.96999 14.2576 9.96921 14.2044C9.96921 14.0545 10.0894 13.9294 10.2293 13.9294C10.3743 13.9294 10.4893 14.0494 10.4893 14.2044L10.4743 14.2945L10.6843 14.5344C10.7144 14.5174 10.7478 14.5069 10.7822 14.5034C10.8166 14.5 10.8514 14.5037 10.8843 14.5144L11.0043 14.3144C10.9946 14.2854 10.9895 14.255 10.9892 14.2245C10.9892 14.0744 11.1094 13.9494 11.2493 13.9494C11.3944 13.9494 11.5092 14.0744 11.5092 14.2245ZM11.9943 12.0545C11.9943 12.2043 11.8793 12.3294 11.7394 12.3294C11.5943 12.3294 11.4793 12.2043 11.4793 12.0545C11.4793 11.9044 11.5843 11.7893 11.7193 11.7794C11.8094 11.7195 11.9194 11.5894 11.9843 11.3394C11.9574 11.2761 11.9537 11.2051 11.9743 11.1394C11.9594 11.0294 11.8894 10.8294 11.7243 10.7044C11.6563 10.6993 11.5926 10.6687 11.5462 10.6186C11.4998 10.5685 11.4741 10.5027 11.4743 10.4344C11.4743 10.2844 11.5943 10.1594 11.7394 10.1594C11.8793 10.1594 11.9943 10.2793 11.9943 10.4344C11.9943 10.4795 11.9843 10.5194 11.9693 10.5594C12.0193 10.6845 12.1193 10.9045 12.2143 10.9545C12.3643 10.9545 12.4793 11.0745 12.4793 11.2243C12.4793 11.3344 12.4193 11.4245 12.3293 11.4743L12.3443 11.4794C12.2443 11.5345 12.0443 11.7195 11.9943 12.0244V12.0545ZM12.2543 13.0444C12.3993 13.0444 12.5143 12.9244 12.5143 12.7744C12.5143 12.6244 12.3993 12.4994 12.2543 12.4994C12.1142 12.4994 11.9943 12.6195 11.9943 12.7744C11.9943 12.8144 12.0043 12.8544 12.0193 12.8895L11.8043 13.2193H11.7693C11.6243 13.2193 11.5092 13.3395 11.5092 13.4894C11.5092 13.6394 11.6243 13.7644 11.7693 13.7644C11.9093 13.7644 12.0293 13.6444 12.0293 13.4894C12.0293 13.4394 12.0143 13.3894 11.9894 13.3444L12.1894 13.0394L12.2543 13.0444ZM12.4793 14.2245C12.4793 14.3743 12.3643 14.4994 12.2193 14.4994C12.0742 14.4994 11.9594 14.3794 11.9594 14.2245C11.9594 14.0744 12.0742 13.9494 12.2193 13.9494C12.3643 13.9494 12.4793 14.0744 12.4793 14.2245ZM12.6893 15.1093C12.8344 15.1093 12.9493 14.9895 12.9493 14.8344C12.9493 14.6845 12.8344 14.5594 12.6893 14.5594C12.5494 14.5594 12.4343 14.6845 12.4343 14.8344C12.4343 14.9844 12.5494 15.1093 12.6893 15.1093ZM12.9943 11.9845C12.9943 12.1344 12.8792 12.2595 12.7343 12.2595C12.5943 12.2595 12.4793 12.1344 12.4793 11.9845C12.4793 11.8344 12.5943 11.7094 12.7393 11.7094C12.8792 11.7094 12.9943 11.8344 12.9943 11.9845ZM13.2093 13.0544C13.3494 13.0544 13.4692 12.9345 13.4692 12.7794C13.4692 12.6294 13.3494 12.5044 13.2093 12.5044C13.0643 12.5044 12.9493 12.6294 12.9493 12.7794C12.9493 12.8194 12.9593 12.8594 12.9694 12.8895L12.7843 13.1894H12.7743C12.6293 13.1894 12.5143 13.3094 12.5143 13.4595C12.5143 13.6095 12.6293 13.7344 12.7743 13.7344C12.9143 13.7344 13.0344 13.6144 13.0344 13.4595C13.0336 13.4001 13.0144 13.3423 12.9793 13.2945L13.1393 13.0444C13.1593 13.0544 13.1843 13.0544 13.2093 13.0544ZM13.4692 14.2044C13.4692 14.2544 13.4494 14.3093 13.4192 14.3544L13.5143 14.5045C13.5227 14.5041 13.531 14.5041 13.5393 14.5045C13.6843 14.5045 13.7993 14.6243 13.7993 14.7744C13.7993 14.9245 13.6843 15.0495 13.5393 15.0495C13.3944 15.0495 13.2793 14.9294 13.2793 14.7744C13.2793 14.7195 13.2993 14.6644 13.3292 14.6243L13.2343 14.4745H13.2093C13.0643 14.4745 12.9493 14.3544 12.9493 14.2044C12.9493 14.0545 13.0643 13.9294 13.2093 13.9294C13.3494 13.9294 13.4692 14.0494 13.4692 14.2044ZM13.7193 13.7344C13.8692 13.7344 13.9794 13.6144 13.9794 13.4595C13.9794 13.3094 13.8643 13.1843 13.7243 13.1843C13.5793 13.1843 13.4644 13.3094 13.4644 13.4595C13.4644 13.6095 13.5793 13.7344 13.7243 13.7344H13.7193ZM14.3192 14.1544C14.3192 14.3044 14.1993 14.4294 14.0594 14.4294C13.9144 14.4294 13.7993 14.3044 13.7993 14.1544C13.7993 14.0044 13.9144 13.8795 14.0594 13.8795C14.1993 13.8795 14.3143 13.9994 14.3143 14.1544H14.3192ZM14.4992 12.2695C14.6444 12.2695 14.7593 12.1444 14.7593 11.9944C14.7593 11.8444 14.6444 11.7195 14.4992 11.7195C14.3543 11.7195 14.2393 11.8395 14.2393 11.9944C14.2393 12.1444 14.3543 12.2695 14.4992 12.2695ZM14.2993 12.8494C14.3442 12.7993 14.3693 12.7343 14.3693 12.6645C14.3693 12.5145 14.2543 12.3894 14.1093 12.3894C13.9693 12.3894 13.8494 12.5145 13.8494 12.6645C13.8494 12.8144 13.9592 12.9345 14.0992 12.9394L14.2643 13.2094C14.2488 13.2441 14.2403 13.2814 14.2393 13.3194C14.2393 13.4694 14.3543 13.5945 14.4992 13.5945C14.6444 13.5945 14.7593 13.4745 14.7593 13.3194C14.7587 13.2661 14.743 13.2142 14.7143 13.1694L14.8493 12.9043C14.9742 12.9043 15.0694 12.8044 15.0694 12.6744C15.0694 12.5444 14.9694 12.4444 14.8543 12.4444C14.7343 12.4444 14.6342 12.5444 14.6342 12.6744C14.6342 12.7144 14.6444 12.7545 14.6592 12.7845L14.5243 13.0493C14.4926 13.0448 14.4603 13.0465 14.4293 13.0544L14.3044 12.8494H14.2993ZM9.92432 12.1393C9.95436 12.0994 9.97427 12.0394 9.97427 11.9895C9.97427 11.8344 9.85434 11.7094 9.71434 11.7094C9.56431 11.7094 9.45429 11.8344 9.45429 11.9845C9.45429 12.1344 9.5693 12.2595 9.71434 12.2595H9.73428L9.99429 12.6594C9.97798 12.6956 9.96943 12.7347 9.96921 12.7744C9.96921 12.9244 10.0894 13.0444 10.2293 13.0444C10.3743 13.0444 10.4893 12.9244 10.4893 12.7744C10.4893 12.6244 10.3743 12.4994 10.2293 12.4994C10.2075 12.4983 10.1857 12.4999 10.1643 12.5044L9.92432 12.1393ZM12.0994 15.0594L11.9743 14.9393C11.9868 14.9076 11.9935 14.8737 11.9943 14.8394C11.9943 14.6845 11.8793 14.5594 11.7394 14.5594C11.5943 14.5594 11.4793 14.6845 11.4793 14.8344C11.4793 14.9844 11.5943 15.1093 11.7394 15.1093C11.7643 15.1093 11.7893 15.1093 11.8143 15.0994L11.9342 15.2144C11.9205 15.2495 11.9138 15.2868 11.9143 15.3244C11.9143 15.4744 12.0293 15.5994 12.1742 15.5994C12.3143 15.5994 12.4343 15.4744 12.4343 15.3244C12.4343 15.1744 12.3143 15.0495 12.1742 15.0495C12.1489 15.049 12.1237 15.0523 12.0994 15.0594ZM11.5843 15.3244C11.5843 15.4744 11.4694 15.5994 11.3244 15.5994C11.1794 15.5994 11.0643 15.4744 11.0643 15.3244C11.0643 15.1744 11.1794 15.0495 11.3244 15.0495C11.4694 15.0495 11.5843 15.1744 11.5843 15.3244ZM9.69928 14.0794C9.69928 14.2294 9.5843 14.3544 9.4393 14.3544C9.29431 14.3544 9.1793 14.2294 9.1793 14.0794C9.1793 13.9294 9.29431 13.8044 9.4393 13.8044C9.5843 13.8044 9.69928 13.9294 9.69928 14.0794ZM13.3893 11.2695C13.3893 11.3044 13.3844 11.3344 13.3742 11.3644L13.5994 11.7144H13.6593C13.8043 11.7144 13.9193 11.8344 13.9193 11.9845C13.9193 12.1344 13.8043 12.2595 13.6593 12.2595C13.5193 12.2595 13.3992 12.1344 13.3992 11.9845C13.3992 11.9394 13.4093 11.8995 13.4294 11.8644L13.1942 11.5044H13.1693C13.0493 11.5044 12.9493 11.4045 12.9493 11.2695C12.9493 11.1444 13.0493 11.0395 13.1693 11.0395C13.2893 11.0395 13.3893 11.1394 13.3893 11.2695ZM14.4394 11.3145C14.4394 11.4644 14.3192 11.5894 14.1793 11.5894C14.0343 11.5894 13.9193 11.4644 13.9193 11.3145C13.9193 11.1644 14.0343 11.0395 14.1793 11.0395C14.3192 11.0395 14.4394 11.1593 14.4394 11.3145ZM13.9193 10.5144C13.9193 10.6643 13.8043 10.7945 13.6593 10.7945C13.5193 10.7945 13.3992 10.6694 13.3992 10.5194C13.3992 10.3695 13.5193 10.2444 13.6593 10.2444C13.8043 10.2444 13.9193 10.3644 13.9193 10.5194V10.5144ZM12.9393 9.1744C12.9393 9.3244 12.8243 9.44941 12.6793 9.44941C12.5393 9.44941 12.4243 9.3244 12.4243 9.1744C12.4243 9.02441 12.5393 8.89941 12.6793 8.89941C12.8243 8.89941 12.9393 9.02441 12.9393 9.1744ZM13.5693 9.5244C13.7142 9.5244 13.8293 9.39942 13.8293 9.24941C13.8293 9.09941 13.7142 8.9744 13.5693 8.9744C13.4294 8.9744 13.3093 9.09941 13.3093 9.24941C13.3093 9.39942 13.4294 9.5244 13.5693 9.5244ZM12.5143 9.77445C12.5143 9.92441 12.3993 10.0494 12.2543 10.0494C12.1142 10.0494 11.9943 9.92441 11.9943 9.77445C11.9943 9.62442 12.1142 9.49941 12.2543 9.49941C12.3993 9.49941 12.5143 9.61941 12.5143 9.77445ZM13.9794 10.1594C14.1293 10.1594 14.2393 10.0343 14.2393 9.88447C14.2393 9.7344 14.1244 9.60941 13.9794 9.60941C13.8393 9.60941 13.7243 9.72939 13.7243 9.88447C13.7243 10.0343 13.8393 10.1594 13.9794 10.1594ZM13.2392 10.0995C13.2878 10.0771 13.3289 10.041 13.3573 9.99573C13.3857 9.95051 13.4003 9.89786 13.3992 9.84442C13.3992 9.69439 13.2844 9.5694 13.1443 9.5694C12.9994 9.5694 12.8843 9.68937 12.8843 9.84442C12.8843 9.87446 12.8843 9.90438 12.8943 9.92936C12.8603 10.045 12.7856 10.1443 12.6844 10.2094C12.6236 10.228 12.5708 10.266 12.5339 10.3174C12.4967 10.3689 12.4776 10.4311 12.4793 10.4944C12.4793 10.6544 12.6043 10.7894 12.7544 10.7894C12.9044 10.7894 13.0344 10.6544 13.0344 10.4944C13.0344 10.4644 13.0293 10.4344 13.0192 10.4095C13.0493 10.2844 13.1593 10.1645 13.2392 10.0995ZM14.7593 10.6344C14.7593 10.7094 14.7292 10.7844 14.6792 10.8344L14.7593 11.0344C14.9042 11.0395 15.0193 11.1644 15.0193 11.3145C15.0193 11.4644 14.8993 11.5894 14.7593 11.5894C14.6143 11.5894 14.4992 11.4644 14.4992 11.3145C14.4992 11.2444 14.5243 11.1844 14.5593 11.1345L14.4693 10.9045C14.4047 10.8947 14.346 10.8621 14.3038 10.8126C14.2614 10.7628 14.2386 10.6996 14.2393 10.6344C14.2393 10.4844 14.3543 10.3594 14.4992 10.3594C14.6444 10.3594 14.7593 10.4795 14.7593 10.6344Z" fill="#03A0DD"/>
<path d="M11.959 5.70001C12.6941 5.70001 13.294 5.1 13.294 4.35001C13.294 3.60001 12.6941 3 11.959 3C11.7826 3.00065 11.6082 3.03614 11.4455 3.10439C11.2828 3.17265 11.1352 3.27236 11.0112 3.39779C10.8871 3.5232 10.7892 3.67188 10.7227 3.8353C10.6562 3.99871 10.6227 4.17361 10.6241 4.35001C10.6241 5.1 11.2241 5.70001 11.959 5.70001ZM18.624 9.71506C18.8059 9.72614 18.9882 9.7 19.1594 9.63803C19.3308 9.57611 19.4875 9.47976 19.6203 9.35494C19.7532 9.2301 19.8588 9.07944 19.9311 8.91221C20.0034 8.74496 20.0407 8.5647 20.0407 8.38252C20.0407 8.20031 20.0034 8.02005 19.9311 7.85281C19.8588 7.68558 19.7532 7.53491 19.6203 7.41007C19.4875 7.28525 19.3308 7.1889 19.1594 7.12698C18.9882 7.06505 18.8059 7.03886 18.624 7.05001C18.2847 7.07081 17.9661 7.22025 17.7333 7.46785C17.5003 7.71546 17.3706 8.04259 17.3706 8.38252C17.3706 8.72244 17.5003 9.04956 17.7333 9.29718C17.9661 9.54478 18.2847 9.69418 18.624 9.71506ZM19.959 15.5C19.959 15.8315 19.8273 16.1494 19.593 16.3838C19.3586 16.6183 19.0406 16.75 18.709 16.75C18.3775 16.75 18.0596 16.6183 17.8251 16.3838C17.5907 16.1494 17.4589 15.8315 17.4589 15.5C17.4589 15.1686 17.5907 14.8505 17.8251 14.6161C18.0596 14.3817 18.3775 14.25 18.709 14.25C19.0406 14.25 19.3586 14.3817 19.593 14.6161C19.8273 14.8505 19.959 15.1686 19.959 15.5ZM5.29403 9.75011C6.02903 9.75011 6.62403 9.15 6.62403 8.40002C6.62403 7.65001 6.02403 7.05001 5.29403 7.05001C5.11763 7.05065 4.94309 7.08614 4.78045 7.1544C4.6178 7.22265 4.47022 7.32236 4.34619 7.44778C4.22216 7.5732 4.12412 7.72188 4.05766 7.88529C3.99123 8.04871 3.95771 8.22362 3.95902 8.40002C3.95902 9.15 4.55903 9.75011 5.29403 9.75011ZM13.294 19.6501C13.294 20.3999 12.6941 21 11.959 21C11.7826 20.9994 11.6082 20.9638 11.4455 20.8956C11.2828 20.8273 11.1352 20.7276 11.0112 20.6023C10.8871 20.4769 10.7892 20.3282 10.7227 20.1648C10.6562 20.0013 10.6227 19.8265 10.6241 19.6501C10.6241 18.9001 11.2241 18.3 11.959 18.3C12.6941 18.3 13.294 18.9001 13.294 19.6501ZM5.29403 16.95C6.02903 16.95 6.62403 16.3499 6.62403 15.6C6.62403 14.8501 6.02403 14.25 5.28903 14.25C5.11306 14.2512 4.93907 14.2872 4.77699 14.3559C4.61492 14.4244 4.46792 14.5242 4.34442 14.6496C4.22091 14.7749 4.12331 14.9234 4.05719 15.0863C3.99106 15.2496 3.95771 15.424 3.95902 15.6C3.95902 16.3499 4.55903 16.95 5.28903 16.95H5.29403ZM11.459 8.00002V6H12.459V8.00002H11.459ZM15.224 10.7901L17.4589 9.53002L16.9591 8.66001L14.729 9.9201L15.2291 10.7901H15.224ZM8.82403 13.9401L6.85902 15.08L6.45903 14.33L8.41903 13.19L8.81902 13.9401H8.82403ZM11.459 15.8301V17.83H12.459V15.8301H11.459ZM16.944 15.3451L14.6441 14.2951L15.044 13.4451L17.3441 14.5L16.944 15.3451ZM13.0839 5.44501C13.2639 5.25001 13.3941 5.01501 13.4641 4.75501L17.6941 7.14501C17.484 7.30502 17.314 7.51501 17.2041 7.76L13.0839 5.44001V5.44501ZM18.624 9.98006C18.7791 9.98006 18.929 9.95509 19.074 9.91504V14.095C18.7822 14.0073 18.4709 14.0073 18.1791 14.095V9.91504C18.3241 9.95509 18.4691 9.98006 18.6291 9.98006H18.624ZM17.2391 16.285L13.089 18.575C13.269 18.77 13.404 19.0049 13.469 19.265L17.7691 16.88C17.544 16.7301 17.3589 16.53 17.2391 16.285ZM10.4491 19.2701C10.514 19.0049 10.649 18.77 10.824 18.575L6.69403 16.2901C6.57902 16.535 6.39902 16.7401 6.18402 16.8999L10.4491 19.2701ZM5.29403 14.025C5.13902 14.025 4.98903 14.05 4.84403 14.09V9.90998C5.13578 9.99851 5.44727 9.99851 5.73902 9.90998V14.09C5.59307 14.0463 5.44141 14.0243 5.28903 14.025H5.29403ZM6.71402 7.76L10.834 5.43502C10.6518 5.24219 10.5212 5.00662 10.4541 4.75001L6.22403 7.14001C6.43402 7.30001 6.60402 7.51001 6.71402 7.76Z" fill="#282828"/>
</svg>
