<svg width="24" height="24" viewBox="0 0 24 24" fill="none" xmlns="http://www.w3.org/2000/svg">
<path d="M17.7918 6.48371C18.5167 7.24492 19.0842 8.14173 19.4619 9.12272V9.12972C19.864 10.1675 20.0443 11.2781 19.9908 12.3897C19.9595 13.0925 19.8337 13.7877 19.6168 14.4568C19.2509 15.5913 18.636 16.6297 17.8169 17.4958C16.9977 18.3618 15.9952 19.0338 14.8828 19.4624C13.7703 19.8913 12.576 20.066 11.3873 19.9739C10.1986 19.8819 9.04546 19.5254 8.01227 18.9304C7.4001 18.584 6.83738 18.1569 6.33926 17.6603C5.47506 16.7949 4.82077 15.7429 4.42669 14.5851C4.03262 13.4274 3.90922 12.1947 4.06602 10.9817C4.22279 9.76879 4.65558 8.60797 5.33111 7.58846C6.00663 6.56896 6.90692 5.71789 7.96276 5.10069C8.33048 4.88404 8.71526 4.69775 9.11327 4.54369C10.5893 3.97128 12.2021 3.85009 13.7473 4.19547C15.2923 4.54085 16.7 5.33726 17.7918 6.48371ZM9.16977 7.50271H6.49975V15.0028H7.49976V12.0028H9.16977L10.9402 15.0028H12.2954L10.3328 11.7418C11.3528 11.6513 11.7467 10.5702 11.7467 9.62272C11.7467 8.52971 11.2762 7.79271 10.2443 7.60472C9.89012 7.5361 9.53055 7.50194 9.16977 7.50271ZM10.6178 9.74219C10.6178 10.7793 9.64527 11.0028 8.93777 11.0028H7.49976V8.50272H9.05676C9.70381 8.50571 10.6178 8.84622 10.6178 9.74219ZM13.4998 9.50272H12.4998V17.0028H13.4998V13.9488C13.9203 14.4713 14.7693 14.7387 15.4288 14.7313C16.8658 14.7437 18.0138 13.5097 17.9998 12.0898C18.0173 10.6482 16.9238 9.42773 15.4288 9.45321C14.7349 9.44321 13.8653 9.70824 13.4998 10.3298V9.50272ZM15.3299 10.5028C16.0713 10.5028 16.9999 10.9587 16.9999 12.0898C16.9999 13.0248 16.4779 13.7348 15.4288 13.7497C14.3792 13.7648 13.9228 13.1462 13.7428 12.6608C13.3678 11.6493 14.1563 10.5028 15.3299 10.5028Z" fill="#BB4E42"/>
</svg>
