<svg width="24" height="24" viewBox="0 0 24 24" fill="none" xmlns="http://www.w3.org/2000/svg">
<path fill-rule="evenodd" clip-rule="evenodd" d="M12.0001 3L19.4119 9.35293V14.647L12.0001 21L4.58838 14.9224V9.35293L12.0001 3ZM5.11779 10.0306V14.2341L7.68014 12.1323L5.11779 10.0306ZM8.10366 12.4765L5.27133 14.7952L11.7354 20.0894V15.457L8.10366 12.4765ZM12.2649 15.457V20.0788L18.7237 14.5411L15.9919 12.4024L12.2649 15.457ZM16.4154 12.0529L18.8824 13.9852V10.0306L16.4154 12.0529ZM18.7342 9.4694L15.9813 11.7194L12.2649 8.80763V3.92647L18.7342 9.4694ZM11.7354 3.92647V8.81293L8.10366 11.7934L5.26602 9.46411L11.7354 3.93175V3.92647ZM12.0001 9.2788L8.52191 12.1376L12.0001 14.9805L15.5631 12.0582L12.0054 9.27352L12.0001 9.2788Z" fill="#FDB913"/>
</svg>
