<svg width="24" height="24" viewBox="0 0 24 24" fill="none" xmlns="http://www.w3.org/2000/svg">
<path d="M3 7.22437C3 6.49312 3.50624 5.18812 4.12499 4.6875V19.3125H3V7.22437Z" fill="#8799E0"/>
<path d="M13.125 4.6875H14.2499V18.1593C15.7753 18.0264 17.2015 17.3472 18.2662 16.2469C19.3013 15.1218 19.8749 13.6425 19.8749 12.5625V5.81249H17.6249V12.2811C17.6249 13.0125 17.1187 14.3119 16.5 14.8125V4.6875H21V12.5625C21 13.9912 20.3081 15.6731 19.11 16.9837C18.4918 17.6695 17.7443 18.2263 16.9102 18.6221C16.0762 19.0178 15.1721 19.2449 14.2499 19.2899V19.3125H13.125V5.835C11.4937 5.98125 10.1437 6.75748 9.18748 7.75873C8.12436 8.88372 7.49999 10.3575 7.49999 11.4375V18.1874H9.74994V11.7188C9.74994 10.9875 10.2562 9.68809 10.875 9.18747V19.3125H6.375V11.4375C6.375 10.0031 7.08375 8.32686 8.32123 7.01624C9.58128 5.68874 11.4712 4.6875 13.125 4.6875Z" fill="#5A86E7"/>
</svg>
