<svg width="25" height="24" viewBox="0 0 25 24" fill="none" xmlns="http://www.w3.org/2000/svg">
<path d="M4.5 7.75499C4.5 7.105 4.94999 5.94499 5.49999 5.5V18.5H4.5V7.75499Z" fill="#8799E0"/>
<path d="M13.5 5.5H14.4999V17.4749C15.8558 17.3568 17.1235 16.7531 18.0699 15.775C18.99 14.7749 19.4999 13.46 19.4999 12.5V6.49999H17.4999V12.2499C17.4999 12.9 17.0499 14.055 16.5 14.5V5.5H20.5V12.5C20.5 13.77 19.885 15.2649 18.82 16.43C18.2705 17.0396 17.6061 17.5345 16.8646 17.8863C16.1233 18.2381 15.3197 18.4399 14.4999 18.4799V18.5H13.5V6.52C12.05 6.65 10.8499 7.33998 9.99998 8.22998C9.05498 9.22998 8.49999 10.54 8.49999 11.5V17.4999H10.4999V11.7501C10.4999 11.1 10.9499 9.94497 11.5 9.49998V18.5H7.5V11.5C7.5 10.225 8.13 8.73498 9.22998 7.56999C10.35 6.38999 12.03 5.5 13.5 5.5Z" fill="#5A86E7"/>
</svg>
