<svg width="24" height="24" viewBox="0 0 24 24" fill="none" xmlns="http://www.w3.org/2000/svg">
<path d="M6.201 14.1879C5.92415 14.2205 5.64355 14.1939 5.37773 14.11C5.1119 14.0261 4.86691 13.8868 4.6589 13.7012C4.45089 13.5157 4.28461 13.2881 4.17103 13.0336C4.05746 12.779 3.99916 12.5032 4.00001 12.2244C3.99891 11.7044 4.20331 11.2048 4.5687 10.8348C4.9341 10.4646 5.4309 10.2536 5.95099 10.248C6.64899 7.0405 9.49248 4.64002 12.8935 4.64002C13.5285 4.64002 14.1439 4.72352 14.7294 4.88002C14.8905 4.63682 15.1036 4.43255 15.3535 4.28205C15.6033 4.13155 15.8837 4.0386 16.1739 4.00997C16.4642 3.98134 16.7571 4.01773 17.0315 4.11651C17.3061 4.21529 17.555 4.37397 17.7605 4.58102C18.1291 4.95172 18.3356 5.45366 18.3345 5.97651C18.3352 6.30503 18.2536 6.62851 18.0974 6.91751C19.3234 8.23966 20.003 9.97701 20 11.78C20.0016 12.7243 19.8158 13.6597 19.4533 14.5318C19.0907 15.4037 18.5587 16.1951 17.888 16.8599C18.1338 17.1978 18.2658 17.6051 18.265 18.023C18.2655 18.282 18.2151 18.5386 18.1166 18.7782C18.0179 19.0177 17.8732 19.2354 17.6903 19.4191C17.5077 19.6027 17.2906 19.7483 17.0515 19.8481C16.8123 19.9478 16.556 19.9993 16.297 19.9999C15.901 19.9995 15.5142 19.8795 15.1874 19.6557C14.8605 19.4321 14.6087 19.115 14.465 18.7459C13.9494 18.8624 13.4225 18.921 12.894 18.921C9.80948 18.921 7.18399 16.9464 6.201 14.1879ZM6.5575 14.112C7.50249 16.707 9.98247 18.559 12.8935 18.559C13.3984 18.559 13.891 18.503 14.3644 18.3975C14.3086 18.112 14.3166 17.8178 14.3879 17.5358C14.4592 17.2538 14.5918 16.9911 14.7765 16.7664C14.9612 16.5417 15.1932 16.3607 15.4561 16.2363C15.719 16.1118 16.0062 16.0469 16.297 16.0464C16.8205 16.0464 17.2974 16.252 17.6494 16.5874C18.2818 15.9568 18.783 15.2075 19.1246 14.3824C19.4662 13.5574 19.6414 12.6729 19.6399 11.78C19.6399 10.0275 18.9785 8.42999 17.8909 7.22751C17.6244 7.55681 17.2585 7.79085 16.8478 7.89452C16.437 7.99819 16.0038 7.96591 15.613 7.80251C15.2527 7.65233 14.9452 7.39867 14.7291 7.07363C14.5132 6.74859 14.3984 6.36678 14.3994 5.97651C14.3994 5.70451 14.4545 5.44501 14.5534 5.20852C14.0108 5.07091 13.4533 5.00154 12.8935 5.00202C9.68147 5.00202 6.99349 7.25701 6.3135 10.2785C6.76909 10.3613 7.18112 10.6016 7.47761 10.9572C7.77408 11.3128 7.93613 11.7614 7.93549 12.2244C7.93621 12.6447 7.80302 13.0542 7.55523 13.3935C7.30745 13.7331 6.95796 13.9846 6.5575 14.112Z" fill="white"/>
<path d="M12.9077 13.5909C14.0123 13.5909 14.9077 12.6954 14.9077 11.5908C14.9077 10.4862 14.0123 9.59082 12.9077 9.59082C11.8031 9.59082 10.9077 10.4862 10.9077 11.5908C10.9077 12.6954 11.8031 13.5909 12.9077 13.5909Z" fill="#55B8E3"/>
</svg>
