<svg width="24" height="24" viewBox="0 0 24 24" fill="none" xmlns="http://www.w3.org/2000/svg">
<path d="M9.97502 17.3996L3 9.29961L9.97502 16.0495L16.275 7.49962L16.9499 8.39961L18.0975 6.59961L21 12.4496L18.075 7.72461L16.9499 9.52465L16.275 8.84961L9.97502 17.3996Z" fill="url(#paint0_linear_328_53305)"/>
<path d="M13.971 12.855C16.653 12.765 19.605 12.5355 21 12.405C19.6274 12.306 16.8645 12.135 14.3715 12.0494L13.9665 12.8595L13.971 12.855ZM12.1665 12L11.6355 12.8999C10.209 12.891 8.57999 12.819 7.08599 12.7245L6.7125 12.1665C8.5287 12.063 10.3473 12.0075 12.1665 12ZM3 12.405C3.5175 12.3644 4.24649 12.315 5.08799 12.261L5.2815 12.603C4.34099 12.531 3.5445 12.4589 3 12.405Z" fill="url(#paint1_linear_328_53305)"/>
<defs>
<linearGradient id="paint0_linear_328_53305" x1="2.676" y1="9.32661" x2="20.9685" y2="9.32661" gradientUnits="userSpaceOnUse">
<stop stop-color="#E6DA88"/>
<stop offset="1" stop-color="#E15F50"/>
</linearGradient>
<linearGradient id="paint1_linear_328_53305" x1="3.12151" y1="12.4503" x2="22.4715" y2="12.4503" gradientUnits="userSpaceOnUse">
<stop offset="0.67" stop-color="#2E80BF"/>
<stop offset="0.95" stop-color="#2A3985"/>
</linearGradient>
</defs>
</svg>
