<svg width="24" height="24" viewBox="0 0 24 24" fill="none" xmlns="http://www.w3.org/2000/svg">
<path d="M14.119 5.11777C14.119 5.67945 13.8958 6.21811 13.4986 6.61527C13.1016 7.01244 12.5629 7.23556 12.0013 7.23556C11.4395 7.23556 10.901 7.01244 10.5038 6.61527C10.1065 6.21811 9.88345 5.67945 9.88345 5.11777C9.88345 4.5561 10.1065 4.01744 10.5038 3.62028C10.901 3.22312 11.4395 3 12.0013 3C12.5629 3 13.1016 3.22312 13.4986 3.62028C13.8958 4.01744 14.119 4.5561 14.119 5.11777ZM14.119 18.8823C14.119 19.4439 13.8958 19.9826 13.4986 20.3797C13.1016 20.7769 12.5629 21 12.0013 21C11.4395 21 10.901 20.7769 10.5038 20.3797C10.1065 19.9826 9.88345 19.4439 9.88345 18.8823C9.88345 18.3206 10.1065 17.7819 10.5038 17.3848C10.901 16.9876 11.4395 16.7645 12.0013 16.7645C12.5629 16.7645 13.1016 16.9876 13.4986 17.3848C13.8958 17.7819 14.119 18.3206 14.119 18.8823ZM4.05957 13.0584H19.9429V15.7055H4.05957V13.0584Z" fill="#B41514"/>
<path d="M3.52881 3.52832C3.73 7.9476 7.44564 11.4701 11.9998 11.4701C16.5543 11.4701 20.2698 7.9476 20.4711 3.52832H17.8064C17.5353 6.44026 15.0394 8.72008 12.0011 8.72008C8.96197 8.72008 6.4667 6.43973 6.19562 3.52832H3.52881Z" fill="#B41514"/>
</svg>
