<svg width="25" height="24" viewBox="0 0 25 24" fill="none" xmlns="http://www.w3.org/2000/svg">
<path d="M19.6617 15.5233C19.6093 15.6242 19.5607 15.7211 19.5092 15.8163C18.9903 16.7726 18.282 17.6131 17.4274 18.2866C16.9415 18.6698 16.4131 18.9955 15.8522 19.2573C14.7143 19.7866 13.4673 20.0394 12.2131 19.995C10.5393 19.94 8.92601 19.3567 7.60402 18.3288C6.94531 17.8189 6.37022 17.2093 5.89954 16.522C5.63982 16.1467 5.4146 15.7486 5.22662 15.3327C5.11706 15.0861 5.04773 14.8234 5.02129 14.5549C4.99476 14.3343 5.01228 14.1107 5.07284 13.8971C5.16262 13.5953 5.34618 13.3642 5.61063 13.1966C5.83686 13.053 6.08086 12.9642 6.35377 12.9744C6.61822 12.9838 6.84801 13.0846 7.05601 13.241C7.2889 13.4157 7.46046 13.6415 7.61157 13.8878C7.93054 14.412 8.29365 14.908 8.69693 15.3705C9.18717 15.9287 9.73697 16.4194 10.3676 16.815C10.8386 17.1102 11.3459 17.3434 11.8766 17.5088C12.2455 17.6243 12.6215 17.7042 13.0037 17.7563C13.4358 17.815 13.8703 17.8354 14.3055 17.8162C14.8305 17.7941 15.347 17.7097 15.8567 17.5834C16.2909 17.4763 16.715 17.3389 17.1297 17.1732C17.6284 16.9775 18.1072 16.7343 18.5595 16.447C18.9616 16.1883 19.3373 15.898 19.6457 15.5278C19.6471 15.526 19.651 15.5264 19.6617 15.5233ZM5.33995 8.47025C5.40218 8.35425 5.46174 8.23692 5.5253 8.12224C5.97342 7.31152 6.55921 6.58495 7.25645 5.97508C8.38473 4.98257 9.77213 4.33157 11.2566 4.09813C11.7991 4.01324 12.3489 3.98331 12.8975 4.0088C13.9861 4.05854 15.0527 4.33289 16.0301 4.8146C17.5381 5.55821 18.7747 6.75652 19.5652 8.24048C19.7199 8.53159 19.8626 8.82715 19.9328 9.15295C19.9928 9.43206 20.015 9.71252 19.9559 9.99388C19.9239 10.1559 19.8595 10.3097 19.7662 10.4459C19.673 10.5823 19.5531 10.6982 19.4137 10.7867C19.231 10.9072 19.0337 10.9926 18.8136 11.0179C18.5479 11.0486 18.3043 10.9854 18.0786 10.8477C17.7955 10.6752 17.5865 10.4321 17.415 10.1512C17.0212 9.50806 16.5763 8.90316 16.055 8.35603C15.4998 7.77379 14.8753 7.28178 14.1579 6.91199C13.6402 6.645 13.0884 6.44957 12.5179 6.33108C11.9135 6.20519 11.2956 6.15517 10.6788 6.18219C10.2499 6.20042 9.82675 6.26265 9.40763 6.3533C8.82757 6.47892 8.26052 6.65837 7.7138 6.88932C7.08712 7.15332 6.49154 7.47467 5.95465 7.89602C5.74003 8.06228 5.54286 8.24991 5.36618 8.45604L5.34841 8.47559C5.34558 8.47382 5.34277 8.47205 5.33995 8.47025Z" fill="#4A5EE0"/>
<path d="M12.501 8.31544C14.5252 8.31278 16.1634 9.9564 16.1785 11.9689C16.1941 14.0267 14.5305 15.7241 12.5029 15.7249C10.473 15.7259 8.83565 14.0373 8.82186 12.0226C8.8081 9.99416 10.4548 8.30967 12.501 8.31544ZM14.2713 12.0009C14.2798 11.9902 14.2837 11.9831 14.2892 11.9773C14.4913 11.764 14.6117 11.512 14.6456 11.2196C14.6834 10.9278 14.6189 10.6321 14.4629 10.3826C14.2576 10.0529 13.806 9.85193 13.425 9.77504C13.3922 9.76837 13.3877 9.75415 13.3886 9.72437C13.3909 9.64169 13.3873 9.46525 13.3886 9.38303C13.3891 9.3448 13.3745 9.33102 13.3357 9.33147C13.1109 9.3328 12.7691 9.33724 12.5446 9.33592C12.5077 9.33592 12.4989 9.35013 12.4998 9.38259C12.5016 9.45725 12.4975 9.65281 12.4998 9.72748C12.501 9.76571 12.4873 9.78082 12.4481 9.78037C12.1041 9.77948 12.0037 9.77726 11.6597 9.77771C11.6229 9.77771 11.6104 9.7626 11.6108 9.72748C11.6121 9.65281 11.6104 9.45725 11.6104 9.38259C11.6104 9.34924 11.6001 9.3328 11.5614 9.33325C11.3362 9.33503 10.9944 9.33458 10.7694 9.33325C10.7321 9.33325 10.7197 9.34747 10.7206 9.38259C10.7219 9.4537 10.7188 9.64659 10.7219 9.7177C10.7241 9.76348 10.7077 9.77859 10.6623 9.77771C10.525 9.77548 10.4655 9.77726 10.3281 9.77681C10.3006 9.77681 10.2775 9.7746 10.2779 9.81681C10.2797 10.0418 10.2801 10.3831 10.2775 10.608C10.277 10.6573 10.2952 10.6693 10.341 10.6684C10.4752 10.6657 10.5316 10.6714 10.6654 10.6693C10.709 10.6684 10.7219 10.6826 10.7219 10.7262C10.721 11.6729 10.7206 12.3266 10.7219 13.2729C10.7219 13.3227 10.7055 13.3342 10.6597 13.3334C10.5219 13.3307 10.4624 13.3325 10.325 13.3321C10.2975 13.3321 10.2775 13.3334 10.2775 13.3707C10.2775 13.6018 10.2761 13.9481 10.2748 14.1797C10.2748 14.2071 10.2837 14.2236 10.3152 14.2223C10.3584 14.2201 10.4655 14.2218 10.5081 14.2223H10.673C10.7095 14.2223 10.7245 14.2437 10.7233 14.2801C10.721 14.3508 10.7259 14.5441 10.7233 14.6152C10.7219 14.6578 10.7357 14.6672 10.7797 14.6668C11.0389 14.6649 11.2982 14.6649 11.5575 14.6668C11.5975 14.6668 11.6113 14.6525 11.6108 14.6152C11.61 14.5409 11.6125 14.3485 11.6108 14.2742C11.61 14.24 11.6197 14.2223 11.653 14.2223H12.3268L12.4415 14.2232C12.4837 14.2232 12.5037 14.2378 12.501 14.2854C12.4967 14.3596 12.5006 14.5521 12.4998 14.6263C12.4998 14.6557 12.5104 14.6668 12.5411 14.6668C12.8085 14.6659 13.0759 14.6659 13.3433 14.6668C13.3745 14.6668 13.3891 14.6569 13.3886 14.6241C13.3877 14.5396 13.3913 14.3623 13.3886 14.2783C13.3873 14.2427 13.3984 14.2302 13.4326 14.2213C13.5172 14.1991 13.7557 14.1773 13.8367 14.1454C14.5176 13.8738 14.8412 13.0805 14.5478 12.4075C14.4803 12.2568 14.3867 12.1191 14.2713 12.0009Z" fill="#4A5EE0"/>
<path d="M4.93016 11.453C4.92483 11.3361 4.91461 11.2197 4.91505 11.1028C4.91639 10.7193 4.98305 10.3473 5.11773 9.9872C5.29285 9.52054 5.57196 9.12453 5.93552 8.78496C6.4238 8.32793 6.97487 7.94301 7.57201 7.64181C8.10398 7.37465 8.66424 7.16801 9.24228 7.0258C9.63664 6.92796 10.0369 6.85565 10.4406 6.80935C11.0257 6.74121 11.6158 6.72603 12.2037 6.76402C12.3139 6.77113 12.4242 6.78446 12.5344 6.79513C12.5406 6.79557 12.5463 6.79868 12.558 6.80179C10.9899 6.93335 9.54184 7.40981 8.21292 8.24184C6.88755 9.07119 5.79774 10.1428 4.93016 11.453ZM12.4478 17.2069C14.0113 17.0674 15.4611 16.5896 16.7906 15.7567C18.1057 14.9369 19.2237 13.8369 20.0648 12.5353C20.0715 12.6157 20.0817 12.6917 20.0834 12.7682C20.103 13.4758 19.9222 14.1251 19.5137 14.7073C19.3457 14.9474 19.139 15.1518 18.9208 15.3451C18.3714 15.8317 17.7494 16.2294 17.0772 16.5238C16.4282 16.8073 15.7463 17.0084 15.0474 17.1221C14.3682 17.2345 13.679 17.276 12.9913 17.2461C12.81 17.2385 12.629 17.2203 12.4478 17.2069Z" fill="#ED9D72"/>
<path d="M11.6778 11.5552C11.612 11.5552 11.6111 11.5543 11.6111 11.4889C11.6111 11.1681 11.612 11.0472 11.6111 10.7263C11.6111 10.6845 11.6182 10.6637 11.6675 10.6641C12.2232 10.6654 12.8067 10.6623 13.3623 10.6662C13.6437 10.6685 13.8072 10.7539 13.8334 11.004C13.8677 11.3205 13.688 11.5125 13.4218 11.5494C13.3778 11.5557 13.333 11.5552 13.2885 11.5552C13.1627 11.5561 13.037 11.5552 12.9112 11.5552H11.6778ZM12.5405 12.4458L13.3641 12.4468C13.5902 12.4513 13.7606 12.5223 13.8334 12.7357C13.9392 13.0459 13.6392 13.3357 13.3445 13.3357C12.7987 13.3365 12.2244 13.3357 11.6791 13.3357C11.6107 13.3357 11.6111 13.3357 11.6111 13.2677C11.611 13.0066 11.6102 12.7456 11.6084 12.4845C11.608 12.4433 11.6307 12.4441 11.6591 12.4441C11.9436 12.4441 12.2561 12.4458 12.5405 12.4458Z" fill="#4A5EE0"/>
</svg>
