<svg width="24" height="24" viewBox="0 0 24 24" fill="none" xmlns="http://www.w3.org/2000/svg">
<path d="M16.0532 10.1981H16.9534L14.9281 14.6993H14.0277L12.0022 10.1981H12.9025L14.4779 13.799L16.0532 10.1981ZM3.90023 14.6993V9.29785H3V14.6993H3.90023ZM6.37585 14.6993L4.35034 11.9984L6.37585 9.29785H7.50112L5.47561 11.9984L7.50112 14.6993H6.37585ZM9.8552 10.1981C8.86497 10.1981 8.09527 10.7382 8.04125 11.5484H8.92348C9.00449 11.1659 9.51763 11.0983 9.8552 11.0983C10.1883 11.0983 10.6519 11.2559 10.6519 11.7194V11.9984H9.53112C8.53638 11.9984 7.95123 12.5971 7.95123 13.3578C7.95123 14.1591 8.54989 14.6993 9.4366 14.6993C9.66084 14.7124 9.88528 14.6774 10.0949 14.5967C10.3045 14.5158 10.4945 14.3912 10.6519 14.2312V14.6993H11.5522V11.6474C11.5522 10.7697 10.877 10.1981 9.8552 10.1981ZM10.6519 12.6782V12.9482C10.5934 13.5335 10.2018 13.7674 9.58965 13.799C9.23406 13.817 8.92348 13.6369 8.92348 13.3489C8.92348 13.0608 9.13503 12.7997 9.64366 12.7637L10.6519 12.6782ZM19.303 10.1981C18.3173 10.1981 17.5476 10.7382 17.4891 11.5484H18.3758C18.4569 11.1659 18.97 11.0983 19.303 11.0983C19.6361 11.0983 20.1042 11.2559 20.1042 11.7194V11.9984H18.979C17.9798 11.9984 17.4036 12.5971 17.4036 13.3578C17.4036 14.1591 18.0023 14.6993 18.8845 14.6993C19.1087 14.7124 19.3331 14.6774 19.5427 14.5967C19.7524 14.5158 19.9423 14.3912 20.0997 14.2312V14.6993H21V11.6474C21 10.7697 20.3248 10.1981 19.303 10.1981ZM20.1042 12.6782V12.9482C20.0457 13.5335 19.6542 13.7674 19.042 13.799C18.6819 13.817 18.3758 13.6369 18.3758 13.3489C18.3758 13.0608 18.5874 12.7997 19.096 12.7637L20.1042 12.6782Z" fill="#FF564F"/>
</svg>
