<svg width="24" height="24" viewBox="0 0 24 24" fill="none" xmlns="http://www.w3.org/2000/svg">
<path d="M11.9992 4.13361C7.77198 4.13361 4.1293 7.77628 4.1293 12.0036C4.1293 16.2309 7.77198 19.8735 11.9992 19.8735C16.2266 19.8735 19.8693 16.2309 19.8693 12.0036C19.8693 7.77628 16.2266 4.13361 11.9992 4.13361ZM11.9992 20.9977C10.818 21.0004 9.64768 20.7686 8.55643 20.3161C7.46515 19.8636 6.47438 19.1992 5.64146 18.3614C4.37226 17.0984 3.51032 15.4842 3.16667 13.7269C2.82304 11.9695 3.01342 10.1496 3.71332 8.50146C4.62155 6.34299 6.33869 4.62587 8.49714 3.71761C9.60454 3.24602 10.7956 3.00293 11.9992 3.00293C13.2028 3.00293 14.3941 3.24602 15.5013 3.71761C17.6595 4.62636 19.3766 6.34334 20.2853 8.50146C20.7568 9.60876 21 10.8001 21 12.0036C21 13.2072 20.7568 14.3984 20.2853 15.5057C19.3766 17.6638 17.6595 19.3808 15.5013 20.2894C14.3937 20.7589 13.2024 20.9999 11.9992 20.9977Z" fill="#E47D32"/>
<path d="M13.2806 11.7671C13.1431 11.7686 13.0089 11.7245 12.8994 11.6414C12.7899 11.5583 12.7111 11.4412 12.6758 11.3083C12.6402 11.1754 12.65 11.0347 12.7036 10.9079C12.7572 10.7813 12.8513 10.6762 12.9714 10.609L18.3117 7.55105C18.4548 7.46904 18.6247 7.44727 18.7839 7.49048C18.9429 7.53371 19.0785 7.6384 19.1605 7.78151C19.2426 7.92465 19.2643 8.09448 19.221 8.25368C19.1778 8.41286 19.0731 8.54836 18.93 8.63036L13.5897 11.6827C13.4885 11.7391 13.3817 11.7671 13.2806 11.7671Z" fill="#E47D32"/>
<path d="M13.1186 11.7675C12.8095 11.7675 12.5564 11.4864 12.5621 11.1492L12.5734 7.56269C12.5734 7.21978 12.8207 6.94434 13.1299 6.94434C13.439 6.94434 13.6919 7.22541 13.6864 7.56269L13.6752 11.1492C13.6752 11.4864 13.4278 11.7675 13.1186 11.7675Z" fill="#E47D32"/>
<path d="M16.2827 13.4651C16.1815 13.4651 16.0803 13.437 15.9903 13.392L12.8874 11.8741C12.5838 11.7223 12.4713 11.3794 12.6342 11.104C12.803 10.8286 13.1741 10.7274 13.4775 10.8792L16.5806 12.3969C16.8785 12.5487 16.991 12.8916 16.8279 13.167C16.7155 13.3527 16.5019 13.4593 16.2827 13.4593V13.4651ZM12.0103 20.7897C11.7012 20.7897 11.4539 20.5086 11.4539 20.1602L11.437 13.1952C11.437 12.8523 11.6843 12.5656 11.9879 12.5656C12.2971 12.5656 12.5445 12.8467 12.5445 13.1952L12.5613 20.1544C12.5613 20.4973 12.3138 20.7841 12.0103 20.7841V20.7897Z" fill="#E47D32"/>
<path d="M8.89082 15.6574C8.67721 15.6574 8.46922 15.5451 8.35116 15.3427C8.18252 15.039 8.28371 14.6569 8.57603 14.4826L11.6791 12.65C11.8207 12.5683 11.989 12.5461 12.1471 12.5882C12.3051 12.6304 12.4399 12.7335 12.5223 12.8749C12.6965 13.1784 12.5953 13.5662 12.2974 13.7406L9.20562 15.5674C9.10444 15.6237 8.99763 15.6518 8.89082 15.6518V15.6574Z" fill="#E47D32"/>
<path d="M14.9783 15.7585C14.8659 15.7585 14.7479 15.7247 14.6409 15.6573L11.656 13.7234C11.5177 13.6325 11.4202 13.4911 11.3845 13.3294C11.3488 13.1679 11.3778 12.9984 11.4649 12.8577C11.6505 12.5654 12.0327 12.4754 12.325 12.6667L15.3043 14.6003C15.5966 14.7858 15.681 15.1737 15.5011 15.4661C15.4459 15.5552 15.3689 15.6286 15.2775 15.6798C15.186 15.731 15.0831 15.758 14.9783 15.7585ZM11.2852 11.458C11.4537 11.1601 11.3526 10.7834 11.0602 10.6148L5.3657 7.36002C5.2952 7.31941 5.21739 7.29309 5.13672 7.28256C5.05604 7.27202 4.97409 7.27749 4.89553 7.29863C4.81698 7.31975 4.74334 7.35617 4.67886 7.40576C4.61436 7.45536 4.56027 7.51717 4.51968 7.58767C4.47907 7.65818 4.45277 7.73597 4.44222 7.81666C4.43169 7.89732 4.43715 7.97927 4.4583 8.05783C4.47944 8.1364 4.51583 8.21002 4.56543 8.27451C4.61502 8.33899 4.67684 8.39308 4.74734 8.4337L10.4419 11.6772C10.5835 11.759 10.7518 11.7811 10.9099 11.739C11.0678 11.6968 11.2028 11.5939 11.2852 11.4525V11.458Z" fill="#E47D32"/>
<path d="M10.8804 11.7675C11.1895 11.7675 11.4427 11.4864 11.4369 11.1492L11.4257 7.56269C11.4257 7.21978 11.1783 6.94434 10.8691 6.94434C10.56 6.94434 10.3069 7.22541 10.3126 7.56269L10.3238 11.1492C10.3238 11.4864 10.5712 11.7675 10.8804 11.7675Z" fill="#E47D32"/>
<path d="M7.71584 13.4427C7.81705 13.4427 7.91823 13.4202 8.00816 13.3752L11.1111 11.79C11.4148 11.6382 11.5272 11.2841 11.3643 11.0029C11.1956 10.7164 10.8245 10.6095 10.521 10.7614L7.41792 12.3409C7.11999 12.4983 7.00757 12.8469 7.17058 13.1336C7.28302 13.3302 7.49661 13.4427 7.71584 13.4427Z" fill="#E47D32"/>
</svg>
