<svg width="24" height="24" viewBox="0 0 24 24" fill="none" xmlns="http://www.w3.org/2000/svg">
<path d="M7.23226 6.21081C6.31333 5.6 5.94577 4.91351 4.49712 4.91351C3.85928 6.10811 4.04306 8.2 4.35659 9.35134L4.9728 11.3405C5.12415 11.7297 5.16739 11.6216 5.00523 12.0108C4.93496 12.1837 4.82145 12.319 4.73496 12.5513C3.32956 15.9945 3.46469 17.9242 6.81604 20.1135C10.589 22.573 13.5079 22.6432 17.1782 20.2323C18.3673 19.454 20.0971 17.9946 20.1078 16.1135C20.1078 15.7135 20.0269 14.9622 19.9565 14.5514C19.7944 13.6433 19.4593 12.854 19.0106 12.0702C18.7295 11.5729 19.3295 10.373 19.562 9.38378C19.816 8.31891 20.0484 7.42161 19.9943 6.3027C19.9565 5.49189 19.6809 5.25946 19.589 4.89731C18.9062 4.90585 18.2423 5.12273 17.6862 5.51892L17.389 5.73514C17.1458 5.9081 16.9836 6.03244 16.7728 6.2C16.816 5.87568 16.989 4.68109 17.1295 4.47027C17.27 4.25946 17.2917 4.38379 17.0323 3.98379C16.8268 3.6865 16.9242 3.74595 16.643 3.81622C16.643 4.35676 16.7133 4.23784 16.4484 4.50271C16.2862 4.64865 15.9026 4.83784 15.6377 4.9027C14.5835 4.21082 15.1295 3.4 15.1295 3.4C14.6431 3.07568 15.1295 3.1892 14.4322 3.35136C14.2377 4.16217 14.3782 3.56216 14.2377 4.02163C14.2269 4.03785 13.8593 4.72433 13.8106 4.8C13.0917 4.61081 12.6268 3.51893 12.2971 2.90271C12.5403 2.54054 12.4215 2.90271 12.2701 2.27028C12.1295 2.23784 12.1728 2.28109 11.9999 2.27028H11.8755C11.7241 2.28109 11.7998 2.10271 11.7296 2.27028C11.4593 2.90271 12.2917 2.90811 10.681 4.4C10.5566 4.51893 10.4161 4.6 10.2755 4.70271C9.56739 4.1892 9.67005 3.78919 9.56739 3.35136C9.0917 3.35136 8.81062 3.04866 8.88629 3.56757L8.92954 3.70812C8.9836 3.95136 8.97819 3.67028 8.97819 3.89189C8.97819 4.1892 8.43224 4.87028 8.24846 5C7.8809 4.91892 7.52955 4.6919 7.47549 4.37839C7.3782 3.83785 8.05386 4.01082 7.12955 3.78919C6.9782 3.91892 6.85928 4.04325 6.72414 4.1892C6.8863 4.51352 7.23226 4.47027 7.23226 6.21081Z" fill="#181B1E"/>
<path d="M14.5245 13.8216C14.7137 13.854 14.6759 13.8919 14.6434 13.7027C15.016 13.3288 15.4892 13.0715 16.0056 12.9622C16.9246 12.7189 17.0651 13.1027 17.0651 13.9243C16.3192 14.3946 15.2543 14.9405 13.9569 14.7891C13.9354 14.3405 14.2381 13.9784 14.5245 13.8216ZM10.2002 14.7406C9.6056 14.9946 8.36235 14.5999 7.87587 14.3946C6.29208 13.7027 7.32451 12.9243 7.54073 12.9243C9.12992 12.9135 10.3245 14.2594 10.2056 14.7406H10.2002ZM4.23804 16.1621L4.91912 16.0595C5.59222 16.0616 6.25649 16.213 6.86405 16.5027C7.47161 16.7925 8.00733 17.2134 8.43262 17.735C8.45425 17.7135 8.48667 17.6648 8.49208 17.6756C8.55154 17.7946 9.40019 17.1351 9.57319 16.8648C11.6434 13.7297 14.4001 15.2973 14.9786 17.9459C16.7407 16.8108 16.9246 16.1621 19.7461 16.108C19.6759 14.8 19.465 13.6 18.9191 12.5838C18.4218 11.6432 18.4705 11.8919 18.7947 10.8107C19.3623 8.94053 20.0218 7.16215 19.384 5.3081C18.6758 5.31891 18.1948 5.63242 17.7731 5.9081C16.665 6.64323 16.9083 6.66485 16.5786 6.91891C16.5245 7.89188 16.5029 7.78917 16.5353 8.04323C16.638 8.91891 16.4327 8.67025 14.3569 8.38918C12.4342 8.16687 10.4914 8.18503 8.57316 8.44323C8.28668 8.48106 7.72452 8.63241 7.52451 8.37837L7.45425 6.9081C7.12993 6.77297 7.04884 6.6 6.84343 6.39999L6.69208 6.25946C6.12451 5.78918 5.49749 5.28107 4.70831 5.22162C4.29209 6.37837 4.36236 6.87026 4.52452 8.2108C4.78938 10.4216 5.67046 11.4216 5.35695 12.1513C4.67587 13.7297 4.43803 13.9891 4.23804 16.1621Z" fill="#F07E17"/>
<path d="M12.7191 19.1135C12.5245 19.2216 12.3893 19.2918 12.2704 19.2972C11.9839 19.3027 11.8271 19.0594 11.3623 19.0919C10.8218 19.1459 10.2434 19.2648 9.83798 18.9945C10.0812 18.6918 10.0217 18.8216 10.5082 18.8649C11.2488 18.9189 11.8488 18.7351 12.0002 17.8811C11.0488 17.3999 10.9568 17.3729 11.0812 16.1243C11.5298 16.0162 11.7136 16.054 12.292 16.054C12.8811 16.054 12.9731 15.9459 13.3082 16.2215C13.7623 17.1296 13.1082 17.6108 12.5406 17.9242C12.665 18.4 12.919 18.7027 13.4056 18.8323C14.4866 19.1135 14.3353 18.454 14.7028 19.0648C13.7677 19.3513 13.4163 18.973 12.7191 19.1135ZM4.90283 16.0649C5.14608 17.2216 5.33527 18.1513 6.2704 18.8649L8.6758 20.7027C9.10823 21.1351 11.2488 21.7621 12.1839 21.7134C14.2487 21.5945 16.865 20.3027 18.2812 18.9351C18.7785 18.4487 19.9461 17.0215 19.7245 16.1134C16.8974 16.1621 17.1785 16.4 15.4163 17.5297C14.838 14.8702 11.0866 13.4594 9.01634 16.5946C8.84877 16.8648 8.44877 17.6432 8.38932 17.5243C7.6704 16.6216 6.56769 16.1189 4.90283 16.0649Z" fill="#FFFFFE"/>
<path d="M11.0812 6.30812C10.8326 6.24326 10.8326 6.34055 10.6001 5.90812C10.7839 5.55137 10.7028 5.74596 11.0271 5.43786C11.2812 5.1892 11.4326 4.8811 11.8973 4.60001C12.265 4.70813 12.4379 4.97839 12.6758 5.23786C12.9137 5.50272 13.1568 5.65947 13.2866 5.90272C13.1136 6.11893 12.8541 6.35136 12.6162 6.60541C12.3839 6.84325 12.2541 7.07028 11.9082 7.1892C11.6055 7.02704 11.1784 6.64866 11.0757 6.30812H11.0812ZM8.66495 5.41083C8.27323 5.36314 7.90354 5.20363 7.60008 4.95136C7.29738 4.71894 7.56766 4.84866 7.21631 4.6811L7.69198 7.57839C8.45954 7.64865 10.9622 7.3892 12.0001 7.41082L16.3352 7.6919C16.3893 7.02163 16.4163 6.6919 16.5082 6.07029C16.5785 5.58921 16.7406 4.91894 16.7514 4.51894C15.5136 5.14055 13.8218 6.40001 12.3514 3.65407C12.2974 3.54056 12.2541 3.41082 12.1839 3.30813C11.9299 2.89192 12.2379 3.12975 11.8595 3.02164C11.2271 4.50272 10.265 5.61082 8.66495 5.41083Z" fill="#FDEB22"/>
<path d="M16.5619 7.30809L16.5079 7.50268C16.7241 7.67025 16.5403 7.49187 16.6917 7.68106C16.9241 7.98916 18.0971 10.8918 18.0971 10.8918C18.2322 11.0919 18.1511 10.9999 18.3457 11.173C18.3998 10.6702 18.4538 10.7513 18.6376 10.2594C19.1349 8.97295 19.4593 6.96214 19.1673 5.63782C18.7998 5.70268 18.07 6.1243 17.7781 6.3189L17.47 6.51889C17.0268 6.84321 17.016 7.04862 16.5619 7.30809ZM4.86464 5.67024C4.54032 6.39997 4.85383 8.78916 5.17815 9.72969C5.28035 10.1141 5.4795 10.4659 5.75654 10.7513C5.9349 10.1405 6.28085 9.65943 6.51329 9.19998C7.20518 7.84863 7.71328 7.97835 6.59436 6.74052C6.49847 6.63646 6.39744 6.53723 6.29166 6.44322C5.91328 6.10268 5.22681 5.64863 4.86464 5.67024Z" fill="#D03E16"/>
<path d="M7.67034 7.91351C7.6325 8.64324 7.8325 8.28107 9.36223 8.19999C11.3082 8.1027 12.1298 8.04864 14.119 8.2108C14.8379 8.27026 15.6758 8.49189 16.3352 8.5135L16.346 8.02161C15.6163 7.57297 8.45952 7.38918 7.67034 7.91351Z" fill="#F7A74B"/>
<path d="M8.68634 20.7027L6.52419 18.7136C6.0936 18.4008 5.72946 18.0056 5.45293 17.5509C5.17641 17.0961 4.993 16.5911 4.91338 16.0649L4.2323 16.1622C4.15122 16.6919 4.58906 17.4919 4.81068 17.8C5.49176 18.7405 7.6323 20.5243 8.68634 20.7027Z" fill="#FEE9D7"/>
<path d="M14.9298 11.2432C14.6055 11.3352 14.0109 11.5946 14.2001 11.9946C14.3622 12.319 15.2649 12.2757 15.6865 12.254C16.9947 12.1622 16.0649 10.919 14.9298 11.2432ZM9.28116 12.0702C9.46495 11.227 7.98928 10.8973 7.36224 11.4918C6.44874 12.3568 8.53521 12.4216 9.28116 12.0702Z" fill="#FFFFFE"/>
<path d="M4.70281 15.9135C5.1893 15.6811 4.86497 15.3134 5.32983 13.6324L5.40011 13.3891L5.50282 13.0918C5.71903 12.5405 6.11903 11.9134 6.22173 11.5243C5.77308 11.5622 5.91903 11.4432 5.50282 12.2918C5.29741 12.7026 5.1893 12.9946 5.07038 13.3837L4.7893 14.5945C4.76227 14.7837 4.71903 15.0432 4.67039 15.281C4.56227 15.7837 4.54065 15.6918 4.70281 15.9135Z" fill="#F7AF67"/>
<path d="M8.34082 5.22159C9.2219 5.30808 9.21109 5.37294 9.9625 5.0216C9.91923 4.67025 9.82187 4.63241 9.66509 4.41078C9.44892 4.08105 9.557 4.04862 9.25432 3.9243C9.23271 3.94052 9.21109 3.94051 9.21109 3.97295L8.34082 5.21618V5.22159ZM13.8922 5.10808C14.649 5.2324 14.6165 5.14051 15.3355 5.10808C15.2002 4.8378 15.1084 4.78916 14.9462 4.50268C14.6759 4.01079 14.8164 4.07024 14.4813 3.90808C14.3408 4.23781 13.957 4.74051 13.8922 5.10808Z" fill="#FCC009"/>
<path d="M7.13526 4.70269C7.4338 4.70269 7.6758 4.46068 7.6758 4.16215C7.6758 3.86362 7.4338 3.62161 7.13526 3.62161C6.83674 3.62161 6.59473 3.86362 6.59473 4.16215C6.59473 4.46068 6.83674 4.70269 7.13526 4.70269Z" fill="#181B1E"/>
<path d="M9.29737 4.16219C9.5959 4.16219 9.83794 3.92018 9.83794 3.62165C9.83794 3.32311 9.5959 3.08112 9.29737 3.08112C8.99885 3.08112 8.75684 3.32311 8.75684 3.62165C8.75684 3.92018 8.99885 4.16219 9.29737 4.16219Z" fill="#181B1E"/>
<path d="M16.865 4.70269C17.1636 4.70269 17.4056 4.46068 17.4056 4.16215C17.4056 3.86362 17.1636 3.62161 16.865 3.62161C16.5665 3.62161 16.3245 3.86362 16.3245 4.16215C16.3245 4.46068 16.5665 4.70269 16.865 4.70269Z" fill="#181B1E"/>
<path d="M14.7026 4.16219C15.0011 4.16219 15.2431 3.92018 15.2431 3.62165C15.2431 3.32311 15.0011 3.08112 14.7026 3.08112C14.404 3.08112 14.1621 3.32311 14.1621 3.62165C14.1621 3.92018 14.404 4.16219 14.7026 4.16219Z" fill="#181B1E"/>
<path d="M12.0003 3.08109C12.2988 3.08109 12.5407 2.83908 12.5407 2.54055C12.5407 2.24201 12.2988 2 12.0003 2C11.7018 2 11.4597 2.24201 11.4597 2.54055C11.4597 2.83908 11.7018 3.08109 12.0003 3.08109Z" fill="#181B1E"/>
<path d="M6.52423 11C6.8918 10.8 6.62692 10.8811 7.07016 10.2486C7.18368 10.0865 7.17828 10.1027 7.27557 9.95134C7.51882 9.58921 8.08638 9.05948 7.81611 8.97298C7.54585 8.8811 7.1026 9.61083 6.96206 9.83783L6.7999 10.0918C6.4053 10.7189 6.29179 10.6433 6.52963 11H6.52423Z" fill="#F7AF67"/>
<path d="M11.5945 2.61083C11.7837 2.89192 11.6108 2.77299 12 2.8811C12.1513 2.7784 12.5243 2.58922 12.2216 2.2811C11.8865 1.92975 11.654 2.22165 11.5945 2.60542V2.61083Z" fill="#F4971C"/>
<path d="M12.7189 19.1135C12.6161 18.7838 12.5783 18.7729 12.3027 18.6107C12.1081 18.7188 12.1189 18.6648 11.8865 19.0541L11.8486 19.135L12.7135 19.1135H12.7189Z" fill="#E5232D"/>
<path d="M7.19979 3.91891C6.79439 3.92972 6.77277 4.36216 7.1079 4.40541C7.24304 4.42161 7.36195 4.31892 7.38358 4.21081C7.42682 3.97838 7.32953 4.02162 7.19979 3.91891Z" fill="#F4971C"/>
<path d="M16.6379 4.04323C16.7353 4.43242 16.6055 4.34054 17.092 4.32973C17.0811 4.19458 17.1298 4.08107 17.0217 3.99459C16.719 3.7135 16.6434 4.04323 16.6379 4.04323Z" fill="#F7A74B"/>
<path d="M14.4597 3.40541C14.4056 3.8054 14.5299 3.98919 14.7839 3.72973C15.0488 3.46486 14.865 3.35676 14.4597 3.40541ZM9.04883 3.61082C9.07045 3.62163 9.10287 3.62163 9.10828 3.64865C9.11909 3.68108 9.16234 3.68108 9.17855 3.68108C9.31369 3.70811 9.33531 3.7027 9.46504 3.70811L9.36234 3.3027C8.9299 3.35676 9.10828 3.2 9.04883 3.61082Z" fill="#F49717"/>
<path d="M11.0975 6.12972C11.1785 5.8054 11.0758 5.44864 10.7839 5.91892C10.9461 6.11892 10.8109 6.02702 11.0975 6.13512V6.12972Z" fill="#FBBE00"/>
<path d="M13.103 5.9081C12.9623 5.71891 13.0921 5.77838 12.7786 5.74054V6.04864C13.1137 6.10811 12.9138 6.15134 13.103 5.9081Z" fill="#F9BD01"/>
<path d="M9.0271 14.4324C9.17637 14.4324 9.29737 14.3113 9.29737 14.1621C9.29737 14.0128 9.17637 13.8918 9.0271 13.8918C8.87784 13.8918 8.75684 14.0128 8.75684 14.1621C8.75684 14.3113 8.87784 14.4324 9.0271 14.4324Z" fill="#F0F3FA"/>
<path d="M14.9729 14.4324C15.1223 14.4324 15.2432 14.3113 15.2432 14.1621C15.2432 14.0128 15.1223 13.8918 14.9729 13.8918C14.8237 13.8918 14.7026 14.0128 14.7026 14.1621C14.7026 14.3113 14.8237 14.4324 14.9729 14.4324Z" fill="#F0F3FA"/>
<path d="M11.0811 6.22705V6.32434L11.9081 7.13516L12.7027 6.32434C12.6947 6.29391 12.6875 6.26326 12.6811 6.23246H11.0811V6.22705ZM12.5405 5.96219C12.0648 5.35139 11.8756 5.45408 11.7297 5.52975L11.6756 5.56219L11.7459 5.41624C11.7676 5.36219 11.773 5.35678 11.8865 5.22165C12.0864 5.33517 12.0918 5.35139 12.1027 5.38381C12.1135 5.41625 12.1297 5.45408 12.254 5.573C12.3838 5.68651 12.4162 5.73516 12.4595 5.73516C12.4973 5.74057 12.5459 5.69732 12.6972 5.62706C12.6324 5.38922 12.5567 5.32436 12.4269 5.21084C12.3519 5.1456 12.2798 5.07707 12.2108 5.00543C12.0918 4.89192 12.0433 4.84327 11.8756 4.74057L11.1567 5.51894L11.1676 5.573L11.1783 5.60003C11.1783 5.61084 11.1783 5.62706 11.1891 5.63787L11.2 5.68112L11.2161 5.76219L11.2433 5.84328C11.254 5.85948 11.2594 5.87029 11.2757 5.96219H12.5405Z" fill="#F9BD01"/>
</svg>
