<svg width="24" height="24" viewBox="0 0 24 24" fill="none" xmlns="http://www.w3.org/2000/svg">
<path fill-rule="evenodd" clip-rule="evenodd" d="M15.5947 4.89465H14.6316V6.89466C13.7895 6.19992 12.3369 5.42098 10.3684 5.42098H10.279C9.04226 5.42381 7.83058 5.76967 6.77874 6.4201C5.72689 7.07054 4.87611 8.00004 4.32106 9.10519H2V10.6841H3.75263C3.63685 11.1789 3.57896 11.6947 3.57896 12.2262C3.57896 16.0262 6.61054 19.1053 10.3579 19.1053H10.6316C12.1737 19.1053 13.4211 17.8368 13.4211 16.2736V16.1052C13.4239 15.7457 13.3558 15.3894 13.2209 15.0563C13.0858 14.7231 12.8866 14.4199 12.6343 14.1637C12.3822 13.9077 12.0821 13.7037 11.751 13.5637C11.42 13.4236 11.0647 13.35 10.7053 13.3473H10.4527C10.0135 13.3493 9.58406 13.4766 9.21479 13.7144C8.84556 13.9521 8.55192 14.2905 8.36844 14.6894C8.12633 15.2051 8.61054 15.6894 9.17897 15.6894C9.4316 15.6894 9.63159 15.4683 9.7474 15.242C9.90533 14.9315 10.2263 14.7158 10.5948 14.7158H10.7159C10.8792 14.7164 11.0407 14.7494 11.1912 14.8129C11.3417 14.8764 11.4781 14.969 11.5926 15.0854C11.7072 15.2018 11.7974 15.3399 11.8583 15.4914C11.9192 15.643 11.9495 15.8051 11.9474 15.9684V16.2894C11.9474 17.0263 11.3579 17.6316 10.6316 17.6316H10.2473C8.85424 17.6135 7.52509 17.0438 6.55131 16.0474C5.57754 15.0509 5.0386 13.7089 5.05264 12.3157C5.05264 11.7525 5.13685 11.1999 5.29475 10.6841H22V9.10519H19.8896C19.7526 6.75782 17.8842 4.89465 15.5947 4.89465ZM14.8053 9.10519C13.4369 7.20519 11.4737 6.74729 10.5789 6.76835H10.479C8.65791 6.76835 7.04738 7.69466 6.05791 9.10519H14.8053ZM18.5474 9.10519H16.2106V6.48414L16.3895 6.52098C17.6526 6.76308 18.4316 7.8315 18.5474 9.10519Z" fill="url(#paint0_linear_364_1202)"/>
<defs>
<linearGradient id="paint0_linear_364_1202" x1="21.3264" y1="9.83675" x2="2.30001" y2="9.83675" gradientUnits="userSpaceOnUse">
<stop offset="0.12" stop-color="#A157FD"/>
<stop offset="1" stop-color="#0AAEF3"/>
</linearGradient>
</defs>
</svg>
