<svg width="24" height="24" viewBox="0 0 24 24" fill="none" xmlns="http://www.w3.org/2000/svg">
<path fill-rule="evenodd" clip-rule="evenodd" d="M11.9997 3.08889L4.22195 7.54446V16.4556L11.9997 20.9111L19.7775 16.4556V7.54446L11.9997 3.08889ZM20.8887 7.00001L11.9997 2L3.11084 7.00001V17.0001L11.9997 22L20.8887 17.0001V7.00001Z" fill="#6F00F6"/>
<path fill-rule="evenodd" clip-rule="evenodd" d="M12.0007 8.66662L9.22292 10.3055V13.6944L12.0007 15.3333L14.7785 13.6944V10.3055L12.0007 8.66662ZM15.8896 9.77777L12.0007 7.55551L8.11182 9.77777V14.2221L12.0007 16.4444L15.8896 14.2221V9.77777Z" fill="#6F00F6"/>
<path d="M11.4443 12.2226L3.3999 7.69476L3.88324 6.87253L11.9999 11.4448L19.9221 6.87809L20.4055 7.6892L12.5555 12.2226V21.2947H11.4443V12.2226Z" fill="#6F00F6"/>
</svg>
