<svg width="25" height="24" viewBox="0 0 25 24" fill="none" xmlns="http://www.w3.org/2000/svg">
<path d="M15.5 14.68V13.0001L17.5 12L17.5501 15.72L15.5 14.68Z" fill="#2891F9"/>
<path d="M11.3549 12.0199L16.0297 9.29987L16.3047 6.5249L8.96485 9.7749V12.0199H11.3549ZM17.5148 19.9998L19.4997 18.7497L9.47985 12.9698L7.25488 14.1198L17.5148 19.9998Z" fill="#2B6DEF"/>
<path d="M5.5 4.93498L7.49998 4V17.8198L5.5 18.7548V4.93498ZM15.4998 5.22498L17.4998 4V9.28493L15.4998 10.2499V5.22498Z" fill="#2891F9"/>
<path d="M19.4998 5.17498L17.4998 4V9.24993L19.4998 10.2499V5.17498ZM9.49997 4.93498L7.5 4V17.8198L9.49997 18.7548V4.93498Z" fill="#2BBDF7"/>
<path d="M7.49998 17.4999L5.5 18.7498L7.49498 19.9999L9.49995 18.7498L7.49998 17.4999ZM17.4998 9L15.4998 10.25L17.4998 11.4999L19.4998 10.25L17.4998 9Z" fill="#2B6DEF"/>
<path d="M7.5 9.72992L17.4998 4V6.46496L7.5 11.9999V9.72992Z" fill="#2891F9"/>
<path d="M7.5 11.9992L19.4998 18.7492V12.9993L17.4998 11.9992V15.4992L9.48496 10.8843L7.5 11.9992Z" fill="url(#paint0_linear_328_31928)"/>
<defs>
<linearGradient id="paint0_linear_328_31928" x1="8.74449" y1="13.4091" x2="19.6543" y2="13.4091" gradientUnits="userSpaceOnUse">
<stop offset="0.35" stop-color="#2B6DEF"/>
<stop offset="0.76" stop-color="#2BBCF7"/>
</linearGradient>
</defs>
</svg>
