<svg width="24" height="24" viewBox="0 0 24 24" fill="none" xmlns="http://www.w3.org/2000/svg">
<path d="M15.8034 20.1585C14.6123 20.7144 13.3137 21.0014 11.9995 20.9996C10.6259 20.9996 9.32439 20.6918 8.16009 20.1418C8.77318 20.2301 9.49142 20.2503 10.1597 20.2346C10.9787 20.2149 11.7278 20.1413 12.1249 20.0697C13.1273 20.234 14.5351 20.2745 15.8034 20.1585ZM16.096 20.0153C14.8844 20.1536 13.4973 20.1389 12.4495 20.0039C14.2875 19.5822 17.0224 18.213 18.7885 15.4963C18.8143 15.5123 18.843 15.5229 18.8729 15.5278C18.903 15.5326 18.9335 15.5316 18.9631 15.5246C18.9926 15.5177 19.0205 15.505 19.0451 15.4873C19.0698 15.4695 19.0907 15.447 19.1065 15.4212C19.1225 15.3954 19.1331 15.3668 19.1382 15.3367C19.143 15.3068 19.1419 15.2762 19.1348 15.2467C19.1279 15.2172 19.1152 15.1892 19.0975 15.1646C19.0798 15.14 19.0574 15.1191 19.0314 15.103C19.7131 13.9428 20.2188 12.5551 20.4225 10.9127C20.6565 11.6131 20.8286 12.3706 20.9186 13.1873H20.9213C20.5276 16.1724 18.672 18.6958 16.096 20.0153ZM12.1244 19.9555C13.9355 19.6265 16.862 18.2693 18.7081 15.4119C18.6884 15.3767 18.6783 15.3371 18.6788 15.2966C18.6792 15.2564 18.6902 15.217 18.7107 15.1823C18.7313 15.1476 18.7604 15.1188 18.7955 15.0989C18.8306 15.0789 18.8703 15.0686 18.9106 15.0688H18.9202C19.6328 13.8623 20.1541 12.4055 20.3364 10.6675C20.1901 10.2628 20.0189 9.86729 19.8241 9.48354C19.7831 9.48261 19.7432 9.4708 19.7083 9.44927C19.6734 9.42789 19.6449 9.39743 19.6256 9.36134C19.6064 9.32522 19.5971 9.28461 19.5988 9.2437C19.6004 9.2028 19.6128 9.16307 19.6351 9.12861C18.1062 6.38262 15.6365 4.82459 14.1363 4.3026C14.1096 4.33178 14.0759 4.35363 14.0383 4.36601C14.0008 4.3784 13.9607 4.38093 13.922 4.37336C13.8832 4.36578 13.847 4.34839 13.8168 4.32279C13.7868 4.2972 13.7636 4.2643 13.7499 4.22724C11.933 4.17268 9.0904 4.72953 6.79609 6.71055C6.81401 6.75442 6.81796 6.80276 6.80743 6.84896C6.79689 6.89516 6.77238 6.93701 6.73722 6.96878C6.70206 7.00056 6.65796 7.02074 6.61094 7.02656C6.5639 7.0324 6.51621 7.02359 6.47437 7.00134C5.42986 7.98903 4.52091 9.29509 3.90726 11.0017C3.92497 11.0289 3.93666 11.0598 3.94158 11.0919C3.94651 11.1241 3.94454 11.1569 3.93583 11.1882C3.9271 11.2196 3.91183 11.2489 3.891 11.2738C3.87017 11.2989 3.84427 11.3193 3.815 11.3335C4.16093 13.54 5.63179 17.0459 8.9931 18.8885C9.02738 18.8516 9.07284 18.8268 9.12253 18.8182C9.17222 18.8093 9.22339 18.8173 9.2682 18.8405C9.313 18.8636 9.34898 18.9009 9.37061 18.9464C9.39221 18.992 9.39837 19.0433 9.388 19.0928C10.1952 19.4865 11.104 19.7862 12.1244 19.9555ZM6.73029 6.61942C6.68766 6.5833 6.63336 6.56386 6.5775 6.56475C6.52163 6.56563 6.46797 6.58677 6.42653 6.62424C6.38507 6.66171 6.35862 6.71295 6.35211 6.76845C6.34561 6.82396 6.35947 6.87992 6.39112 6.92597C5.34662 7.91479 4.43653 9.21971 3.81782 10.9201C3.79829 10.9103 3.77746 10.9032 3.75595 10.8992C3.68734 10.2491 3.6412 9.13591 3.80657 8.27365C4.74891 6.20847 6.43321 4.57387 8.52625 3.69515L8.5268 3.69909C9.02347 3.6344 9.9139 3.58772 10.91 3.64677C11.7886 3.69909 12.7458 3.83407 13.5862 4.11137C11.7475 4.0945 8.98016 4.68171 6.73029 6.61942ZM3.63221 8.68031C3.54334 9.46726 3.58551 10.3502 3.64402 10.9054C3.59484 10.9207 3.55219 10.9522 3.52285 10.9944C3.49351 11.0368 3.47914 11.0877 3.48206 11.1392C3.48496 11.1906 3.50497 11.2395 3.5389 11.2784C3.57282 11.3171 3.61873 11.3435 3.66933 11.3532C3.44365 12.0801 3.26573 12.8213 3.13666 13.5715C2.84748 11.9266 3.01935 10.2339 3.63221 8.68031ZM8.93854 18.9869C8.92918 19.0212 8.92787 19.0573 8.93471 19.092C8.94155 19.127 8.95635 19.1598 8.97796 19.188C8.99958 19.2162 9.02743 19.2391 9.05932 19.2547C9.09121 19.2704 9.12631 19.2784 9.16183 19.2783C9.19582 19.2783 9.22936 19.2709 9.26009 19.2563C9.29081 19.2418 9.31795 19.2207 9.33958 19.1945C10.0692 19.55 10.8808 19.8302 11.7807 20.0079C11.3673 20.0602 10.7834 20.1069 10.1568 20.1221C9.3497 20.1413 8.47675 20.1069 7.80854 19.9663C6.6433 19.3522 5.62678 18.4902 4.83051 17.4409C4.03425 16.3918 3.47757 15.1808 3.19966 13.8933C3.31216 13.1283 3.52197 12.216 3.73402 11.5241C4.13055 13.7577 5.6256 17.1708 8.93854 18.9869ZM20.9708 12.7178C21.0698 11.4921 20.9164 10.2593 20.5198 9.09541C20.5272 9.61557 20.5046 10.1358 20.4523 10.6534C20.6812 11.2924 20.8595 11.9803 20.9708 12.7178ZM20.3994 8.76355C19.8229 7.27187 18.8603 5.96022 17.6101 4.96295C17.0904 4.71602 16.3553 4.53997 15.6555 4.42299C15.2223 4.35039 14.7861 4.29597 14.3483 4.25986C15.8755 4.84371 18.2327 6.39443 19.7199 9.04929C19.7468 9.03504 19.776 9.02619 19.8062 9.02327C19.8364 9.02033 19.867 9.0234 19.896 9.03224C19.925 9.0411 19.9519 9.05558 19.9754 9.07486C19.9988 9.09415 20.0181 9.11785 20.0324 9.14462C20.0466 9.1714 20.0555 9.20072 20.0584 9.23092C20.0613 9.2611 20.0583 9.29158 20.0493 9.32059C20.0406 9.34961 20.0261 9.37657 20.0069 9.40006C19.9876 9.42343 19.9638 9.44285 19.937 9.45702C20.0911 9.7619 20.2335 10.0798 20.3617 10.4115C20.4061 9.88737 20.4196 9.33785 20.3994 8.76355ZM17.2631 4.69971C16.7862 4.52986 16.2169 4.40273 15.6742 4.31161C15.185 4.2296 14.6924 4.17103 14.1976 4.13613C14.1959 4.08388 14.1766 4.03376 14.1426 3.99398C14.1087 3.9542 14.0624 3.92711 14.0111 3.91717C13.9596 3.90724 13.9065 3.91504 13.8601 3.93927C13.8139 3.96353 13.7771 4.00279 13.756 4.05062C12.8708 3.7379 11.8471 3.58996 10.9168 3.53427C10.2458 3.49366 9.57293 3.49817 8.90254 3.54778C9.89461 3.18462 10.943 2.99936 11.9995 3.00049C13.9647 3.00049 15.7832 3.63102 17.2631 4.69971ZM18.7492 11.9999C18.7492 15.7276 15.727 18.7497 11.9995 18.7497C8.27201 18.7497 5.24987 15.7276 5.24987 11.9999C5.24987 8.27252 8.27201 5.25038 11.9995 5.25038C15.727 5.25038 18.7492 8.27252 18.7492 11.9999Z" fill="#106BBE"/>
<path fill-rule="evenodd" clip-rule="evenodd" d="M11.9998 15.3751C12.4429 15.3751 12.8819 15.2878 13.2913 15.1182C13.7008 14.9486 14.0728 14.7001 14.3861 14.3867C14.6995 14.0732 14.9481 13.7013 15.1177 13.2918C15.2874 12.8823 15.3747 12.4435 15.3747 12.0002C15.3747 11.5572 15.2874 11.1183 15.1177 10.7088C14.9481 10.2993 14.6995 9.92727 14.3861 9.61399C14.0728 9.30057 13.7008 9.05198 13.2913 8.88238C12.8819 8.71277 12.4429 8.62549 11.9998 8.62549C11.1048 8.62549 10.2464 8.98105 9.61351 9.61399C8.98056 10.2469 8.625 11.1053 8.625 12.0002C8.625 12.8953 8.98056 13.7538 9.61351 14.3867C10.2464 15.0196 11.1048 15.3751 11.9998 15.3751ZM11.1561 11.4379C11.3799 11.4379 11.5945 11.3489 11.7527 11.1908C11.911 11.0325 11.9998 10.8179 11.9998 10.5941C11.9998 10.3703 11.911 10.1558 11.7527 9.99748C11.5945 9.83934 11.3799 9.75049 11.1561 9.75049C10.9324 9.75049 10.7178 9.83934 10.5595 9.99748C10.4014 10.1558 10.3124 10.3703 10.3124 10.5941C10.3124 10.8179 10.4014 11.0325 10.5595 11.1908C10.7178 11.3489 10.9324 11.4379 11.1561 11.4379Z" fill="#106BBE"/>
</svg>
