<svg width="25" height="24" viewBox="0 0 25 24" fill="none" xmlns="http://www.w3.org/2000/svg">
<path d="M17.5571 7.26043L16.2494 4.40706C16.1167 4.09613 15.9567 4.00467 15.8104 4.00011C15.6184 3.99553 15.4628 4.14185 15.4628 4.14185C15.4628 4.14185 7.81272 11.0146 6.86617 11.9977C6.45464 12.423 6.31745 12.8803 6.3266 13.2598C6.33574 13.7491 6.51865 14.0554 6.51865 14.0554C7.34174 15.7108 8.05051 17.4621 8.8553 19.1403C9.31258 20.0183 10.4146 20 10.4146 20H18.2156C18.4442 20 18.6729 19.7348 18.6729 19.5748C18.6729 19.3917 18.5769 19.2227 18.5769 19.2227C18.5769 19.2227 17.3239 16.2505 16.9307 15.5737C16.6426 14.9701 15.975 14.9701 15.975 14.9701H10.8993C12.9798 12.8345 16.8758 9.78457 17.3926 9.24042C18.1607 8.44935 17.5571 7.26043 17.5571 7.26043Z" fill="#00B7FF"/>
<path d="M6.51953 14.0562C6.51953 14.0562 7.18714 14.9708 7.93706 14.9708H11.3575C10.4749 15.8853 9.23571 16.5529 9.23571 16.5529C9.23571 16.5529 8.42177 17.2754 8.61382 18.6289L6.51953 14.0562Z" fill="#0061E7"/>
</svg>
