<svg width="24" height="24" viewBox="0 0 24 24" fill="none" xmlns="http://www.w3.org/2000/svg">
<path d="M20.0002 12.3325L18.9335 11.377L17.6637 12.8471C17.4957 12.9862 16.9899 13.2391 16.3095 13.1414C15.6291 13.0435 15.2593 13.264 15.1593 13.3862L10.9482 18.1222L12.0002 19.1111C13.482 17.4489 16.5371 14.0111 16.8726 13.6679C17.2922 13.2391 17.6637 13.4844 18.2628 13.5578C18.7419 13.6169 19.0055 13.468 19.0775 13.3862L20.0002 12.3325Z" fill="url(#paint0_linear_328_53576)"/>
<path d="M9.67059 16.903L8.62793 15.9475L11.8275 12.3569C12.199 11.9405 12.7142 12.2467 13.2892 12.2467C13.7492 12.2467 14.1359 12.0097 14.2715 11.8911L16.6684 9.23242L17.699 10.2004C17.0609 10.9202 16.4218 11.6389 15.7817 12.3569C15.3861 12.7981 14.8951 12.6021 14.3799 12.4795C13.9675 12.3818 13.5688 12.635 13.4212 12.7738L9.67059 16.903Z" fill="url(#paint1_linear_328_53576)"/>
<path d="M12.0116 4.88867L7.38488 10.0687C7.09244 10.3967 6.29422 10.3762 5.80533 10.2735C5.41423 10.1918 5.08222 10.4362 4.96534 10.5687L4 11.6327L5.06578 12.5944C5.50044 12.0686 6.44489 10.9611 6.74577 10.7353C7.12177 10.4532 7.69866 10.5687 8.04978 10.7353C8.33066 10.8687 8.69333 10.6798 8.83955 10.5687L13.0898 5.87578L12.0116 4.88867Z" fill="url(#paint2_linear_328_53576)"/>
<path d="M7.3755 14.7775L6.33105 13.793C6.90038 13.149 8.14306 11.748 8.44305 11.4316C8.81816 11.0356 9.49505 11.2823 9.99152 11.2716C10.3888 11.2632 10.7524 11.0095 10.8848 10.8841L14.355 7.06543L15.3799 8.06898C14.4915 9.01209 12.6506 10.989 12.3928 11.3481C12.135 11.7076 11.7483 11.7276 11.5875 11.6926C11.3526 11.6395 11.1182 11.5848 10.8844 11.5281C10.4862 11.4321 10.123 11.6877 9.991 11.8271L7.3755 14.7775Z" fill="url(#paint3_linear_328_53576)"/>
<defs>
<linearGradient id="paint0_linear_328_53576" x1="18.3551" y1="7.06365" x2="7.09182" y2="18.3652" gradientUnits="userSpaceOnUse">
<stop offset="0.205" stop-color="#00C967"/>
<stop offset="0.325" stop-color="#15E882"/>
<stop offset="1" stop-color="#16EA84"/>
</linearGradient>
<linearGradient id="paint1_linear_328_53576" x1="17.3199" y1="8.47428" x2="6.4135" y2="18.8154" gradientUnits="userSpaceOnUse">
<stop offset="0.232" stop-color="#00C969"/>
<stop offset="0.416" stop-color="#09F183"/>
</linearGradient>
<linearGradient id="paint2_linear_328_53576" x1="15.0111" y1="14.4286" x2="9.30479" y2="20.2345" gradientUnits="userSpaceOnUse">
<stop stop-color="#1BC775"/>
<stop offset="0.715" stop-color="#0DD976"/>
</linearGradient>
<linearGradient id="paint3_linear_328_53576" x1="13.8395" y1="8.99207" x2="7.80846" y2="14.7934" gradientUnits="userSpaceOnUse">
<stop offset="0.401" stop-color="#1BD27F"/>
<stop offset="0.609" stop-color="#2FE18B"/>
</linearGradient>
</defs>
</svg>
