<svg width="24" height="24" viewBox="0 0 24 24" fill="none" xmlns="http://www.w3.org/2000/svg">
<path d="M12.0249 5.44C12.01 5.38 11.995 5.38 11.975 5.44C11.7525 6.2375 11.4264 7.00235 11.005 7.715C11.0002 7.71695 10.9948 7.71695 10.99 7.715L10.5451 7.375C10.5451 7.375 10.535 7.37 10.535 7.36V7.345C11.2946 6.0299 11.6963 4.5387 11.7 3.02001C11.7 3.005 11.7051 3 11.72 3H12.28C12.29 3 12.3001 3.005 12.3001 3.02001C12.3049 4.555 12.695 5.99501 13.4649 7.345C13.47 7.355 13.4649 7.365 13.46 7.375L13.0049 7.72C12.995 7.725 12.985 7.72001 12.98 7.715C12.55 6.96501 12.23 6.21 12.0249 5.44ZM5.425 12.0201C7.15221 12.4911 8.7074 13.4492 9.905 14.78V14.785L9.44501 15.1351H9.42001C8.60561 14.2413 7.61443 13.5264 6.50929 13.0358C5.40413 12.5453 4.20913 12.2895 3 12.285V11.71C3 11.7051 3 11.7 3.015 11.7C4.22153 11.6972 5.41432 11.4437 6.51776 10.9557C7.62118 10.4677 8.61118 9.75577 9.42501 8.86501C9.42501 8.86001 9.43501 8.85501 9.44501 8.86501L9.89998 9.21501C8.7054 10.5456 7.15396 11.5052 5.43 11.98C5.38 11.99 5.38 12.0049 5.43 12.0201H5.425ZM18.5699 11.98C18.62 11.99 18.62 12.0049 18.5699 12.0201C16.8447 12.4923 15.2914 13.4503 14.0949 14.78C14.2441 14.9154 14.4086 15.0328 14.585 15.13C15.3984 14.2416 16.3869 13.5315 17.4885 13.0444C18.59 12.5573 19.7806 12.3039 20.985 12.3001C20.995 12.3001 21 12.29 21 12.28V11.71C21 11.7051 21 11.7 20.99 11.7C19.7834 11.6978 18.5903 11.4446 17.4869 10.9566C16.3834 10.4685 15.3934 9.75624 14.5799 8.86501C14.57 8.85501 14.565 8.85501 14.555 8.86501L14.1 9.21501C14.0978 9.21601 14.096 9.21778 14.0949 9.22V9.23C15.2927 10.5561 16.8459 11.5106 18.5699 11.98ZM17.02 6.865C17.0601 6.85 17.105 6.84 17.15 6.83501C17.175 6.83 17.185 6.84 17.175 6.865C16.8856 7.72441 16.4801 8.54026 15.97 9.29C15.9624 9.3 15.9588 9.31249 15.96 9.325C15.96 9.34 15.97 9.35 15.98 9.35501L16.4349 9.69499C16.4409 9.69907 16.4479 9.70128 16.455 9.70128C16.4621 9.70128 16.4691 9.69907 16.475 9.69499L16.485 9.68997C17.215 8.6 17.865 7.335 17.985 6.05501C17.9854 6.05034 17.9847 6.04566 17.983 6.04132C17.9812 6.03699 17.9784 6.0331 17.9749 6.03001C17.9719 6.02651 17.9681 6.02377 17.9637 6.02204C17.9594 6.0203 17.9547 6.01962 17.95 6.02001C17.4499 6.06 16.935 6.19 16.405 6.4C14.7751 7.05 13.31 8.14001 12.0249 9.38001C12.0217 9.38324 12.0178 9.38579 12.0135 9.3875C12.0092 9.38923 12.0047 9.39006 12 9.39001C11.9899 9.39001 11.98 9.39001 11.975 9.38001C10.7093 8.09918 9.20411 7.07983 7.54501 6.38001C7.05937 6.19139 6.54915 6.07353 6.03001 6.03001C6.02651 6.0331 6.02377 6.03699 6.02204 6.04132C6.0203 6.04566 6.0196 6.05034 6.01999 6.05501C6.055 6.48 6.14 6.88001 6.28001 7.28001C6.59152 8.1393 7.01339 8.95444 7.53501 9.70502C7.53816 9.70642 7.54156 9.70712 7.54501 9.70712C7.54845 9.70712 7.55186 9.70642 7.55501 9.70502L8.02501 9.35501C8.03353 9.34895 8.03933 9.33982 8.04121 9.32954C8.04308 9.31926 8.04085 9.30867 8.035 9.3C7.51851 8.54069 7.11121 7.7126 6.825 6.84L6.84 6.82501H6.85501C8.605 7.405 10.2049 8.55001 11.52 9.84502V9.85506C11.5216 9.85984 11.5216 9.86508 11.52 9.86999V9.88002L9.88003 11.52C9.87676 11.5242 9.87256 11.5276 9.86778 11.5298C9.86299 11.5322 9.85775 11.5333 9.8525 11.5333C9.84724 11.5333 9.842 11.5322 9.83722 11.5298C9.83243 11.5276 9.82823 11.5242 9.82496 11.52L9.16501 10.8C9.15769 10.7932 9.14832 10.789 9.13836 10.7881C9.1284 10.7873 9.11843 10.7896 9.11001 10.7951L8.65501 11.13C8.65086 11.1329 8.64736 11.1365 8.64477 11.1409C8.64219 11.1452 8.64057 11.15 8.64 11.155C8.63994 11.1596 8.64079 11.1642 8.64251 11.1685C8.64422 11.1728 8.64677 11.1767 8.65 11.18L9.36501 11.975C9.37108 11.9829 9.37438 11.9925 9.37438 12.0025C9.37438 12.0124 9.37108 12.0221 9.36501 12.03L8.65 12.82C8.63 12.84 8.635 12.86 8.65501 12.875L9.11001 13.21C9.13001 13.225 9.14501 13.225 9.16 13.21L9.835 12.475C9.85005 12.46 9.85996 12.46 9.87502 12.475L11.515 14.115C11.53 14.135 11.53 14.15 11.515 14.165C10.2049 15.455 8.61 16.595 6.85501 17.18C6.85019 17.1836 6.84423 17.1854 6.83823 17.185C6.83224 17.1845 6.82658 17.1819 6.82233 17.1776C6.81807 17.1735 6.81549 17.1678 6.81507 17.1618C6.81464 17.1558 6.81639 17.1499 6.82 17.1449C7.10981 16.2706 7.52046 15.4408 8.04 14.68C8.03925 14.6737 8.03705 14.6678 8.03357 14.6626C8.03011 14.6574 8.02546 14.6531 8.02 14.65L7.55501 14.3C7.55186 14.2987 7.54845 14.298 7.54501 14.298C7.54156 14.298 7.53816 14.2987 7.53501 14.3C7.53112 14.3 7.5273 14.3008 7.52382 14.3026C7.52036 14.3044 7.51733 14.307 7.515 14.3099C6.99297 15.0685 6.5727 15.8922 6.265 16.76C6.13257 17.1445 6.05023 17.5444 6.01999 17.95C6.01999 17.975 6.03001 17.985 6.055 17.985C6.59501 17.935 7.14 17.795 7.685 17.57C9.29646 16.8631 10.7602 15.8589 12 14.61C12.01 14.61 12.0201 14.61 12.0249 14.62C13.375 15.935 14.995 17.12 16.735 17.72C17.1386 17.859 17.559 17.9431 17.985 17.9701C17.8749 16.6849 17.21 15.375 16.485 14.315C16.475 14.295 16.455 14.29 16.4349 14.305L15.975 14.6549C15.967 14.6611 15.9616 14.6701 15.96 14.68L15.965 14.71C16.4818 15.4655 16.8892 16.2904 17.175 17.1601C17.1727 17.1657 17.1684 17.1705 17.1629 17.1733C17.1574 17.176 17.151 17.1767 17.1449 17.1749C15.4 16.6149 13.81 15.455 12.4849 14.17C12.4701 14.15 12.465 14.135 12.4849 14.12L14.115 12.4849C14.1191 12.4813 14.1238 12.4786 14.129 12.4769C14.1342 12.4751 14.1396 12.4746 14.1451 12.475C14.1504 12.4746 14.1559 12.4751 14.161 12.4769C14.1662 12.4786 14.1709 12.4813 14.175 12.4849L14.845 13.2151L14.8599 13.225L14.88 13.2199L15.345 12.8699C15.3494 12.8678 15.3532 12.8644 15.356 12.8603C15.3588 12.8561 15.3606 12.8513 15.361 12.8464C15.3615 12.8414 15.3608 12.8364 15.3588 12.8318C15.3569 12.8271 15.3539 12.8231 15.35 12.82L14.63 12.03C14.6149 12.01 14.6149 11.995 14.63 11.98L15.35 11.18C15.3535 11.1769 15.3563 11.1731 15.358 11.1688C15.3598 11.1644 15.3604 11.1596 15.36 11.155C15.3604 11.1504 15.3598 11.1456 15.358 11.1413C15.3563 11.137 15.3535 11.1331 15.35 11.13L14.875 10.78C14.8724 10.778 14.8694 10.7766 14.8662 10.7758C14.863 10.775 14.8598 10.7747 14.8564 10.7752C14.8532 10.7756 14.8501 10.7768 14.8472 10.7784C14.8444 10.7802 14.842 10.7825 14.84 10.785L14.165 11.5351C14.1619 11.5368 14.1586 11.5378 14.155 11.5378C14.1515 11.5378 14.148 11.5368 14.1451 11.5351C14.1402 11.537 14.1349 11.537 14.1299 11.5351L12.48 9.88504C12.475 9.87955 12.4724 9.87244 12.4724 9.86498C12.4724 9.85762 12.475 9.8505 12.48 9.84502C13.775 8.57501 15.32 7.46 17.02 6.865ZM10.335 11.98L11.98 10.335C11.9863 10.3298 11.9942 10.3268 12.0025 10.3268C12.0107 10.3268 12.0186 10.3298 12.0249 10.335L13.6651 11.98C13.6799 11.99 13.6799 12.01 13.6651 12.025L12.0249 13.665C12.0218 13.6683 12.0178 13.671 12.0135 13.6727C12.0094 13.6746 12.0047 13.6755 12 13.6755C11.9953 13.6755 11.9907 13.6746 11.9864 13.6727C11.9821 13.671 11.9783 13.6683 11.975 13.665L10.335 12.025C10.3317 12.0218 10.3291 12.0178 10.3273 12.0136C10.3255 12.0093 10.3246 12.0047 10.3246 12C10.3246 11.9953 10.3255 11.9907 10.3273 11.9864C10.3291 11.9821 10.3317 11.9783 10.335 11.975V11.98ZM12.98 16.2951C12.5617 17.0039 12.2406 17.7657 12.0249 18.56C12.01 18.6199 11.995 18.6199 11.975 18.56C11.7551 17.7657 11.4342 17.0027 11.02 16.29C11.015 16.28 11.005 16.275 11 16.285L10.54 16.625L10.535 16.64V16.655C11.3008 17.9753 11.706 19.4738 11.7099 21H12.285C12.295 21 12.3001 21 12.3001 20.9851C12.2984 19.4577 12.7003 17.9571 13.4649 16.635L13.455 16.625L13.0049 16.29C13.0017 16.2891 12.9983 16.2891 12.995 16.29C12.9923 16.2898 12.9895 16.2901 12.9869 16.2909C12.9844 16.2918 12.9821 16.2932 12.98 16.2951Z" fill="#E5D345"/>
</svg>
