<svg width="24" height="24" viewBox="0 0 24 24" fill="none" xmlns="http://www.w3.org/2000/svg">
<path fill-rule="evenodd" clip-rule="evenodd" d="M12.0534 3.00098C11.7305 3.00098 11.4082 3.0184 11.087 3.05384C6.54122 3.53306 3 7.35664 3 12.002C3 16.9713 7.05195 21.0002 12.0534 20.9997H12.0736C13.5138 20.9989 14.933 20.6543 16.2133 19.9945C16.5789 19.8055 16.4208 19.2565 16.0096 19.2684H15.9928C12.3723 19.3595 8.9958 17.7981 7.67177 14.9774C6.99233 13.5341 6.74259 12.3602 7.31799 10.502C7.50753 9.74033 7.95694 9.03278 8.48059 8.48607C8.52049 8.43773 8.56372 8.39225 8.60996 8.34995C8.63976 8.31902 8.67125 8.29032 8.70445 8.26446C8.71675 8.25126 8.7297 8.23867 8.74325 8.22677C8.75507 8.21778 8.7635 8.20877 8.77589 8.19977C8.79918 8.17674 8.82482 8.1562 8.85237 8.13847C9.74499 7.4157 10.8513 6.93424 12.0021 6.93818C14.7024 6.93818 17.0626 9.14302 17.0626 11.7326C17.0626 12.6224 16.6537 13.5578 16.1587 14.3002C18.318 13.5594 19.8479 11.4964 19.8474 9.17058C19.8474 7.84711 19.3456 6.63613 18.512 5.69907C18.1625 5.34279 17.7837 5.01637 17.3798 4.72322L17.3765 4.72041C15.8326 3.6022 13.9749 3.00041 12.0685 3.00098H12.0534Z" fill="url(#paint0_linear_328_38385)"/>
<path fill-rule="evenodd" clip-rule="evenodd" d="M19.8018 9.19438C19.8038 10.2966 19.466 11.3726 18.8342 12.2758C18.2023 13.179 17.3073 13.8653 16.2714 14.2414C15.6923 14.4519 15.0807 14.5589 14.4646 14.5574C12.4838 14.5574 10.7564 13.4737 9.83558 11.8605C9.61063 11.4673 9.43398 10.7991 9.31424 10.231C9.20176 9.69221 8.4953 9.55152 8.18426 10.006C7.71517 10.6837 7.71743 11.7013 7.79897 12.4803C7.79816 12.4883 7.79912 12.4963 7.80178 12.5039C7.82991 12.7868 7.88053 13.0664 7.95365 13.3408C8.0414 13.702 8.16346 14.054 8.31701 14.3926C9.44304 16.9085 11.9798 18.5093 15.3028 18.2404C15.6311 18.2133 15.9429 18.1127 16.2657 18.0469C19.007 17.4709 20.983 14.9945 20.9999 12.0787C20.9999 9.7388 20.1291 7.4384 18.5218 5.72852C19.3473 6.69458 19.8013 7.92355 19.8018 9.19438Z" fill="url(#paint1_linear_328_38385)"/>
<defs>
<linearGradient id="paint0_linear_328_38385" x1="3.00541" y1="21.0739" x2="21.0041" y2="21.0739" gradientUnits="userSpaceOnUse">
<stop stop-color="#2D2D4B"/>
<stop offset="1" stop-color="#1D1D3A"/>
</linearGradient>
<linearGradient id="paint1_linear_328_38385" x1="7.76955" y1="18.2165" x2="20.9997" y2="18.2165" gradientUnits="userSpaceOnUse">
<stop stop-color="#858EB7"/>
<stop offset="1" stop-color="#705E94"/>
</linearGradient>
</defs>
</svg>
