<svg width="24" height="24" viewBox="0 0 24 24" fill="none" xmlns="http://www.w3.org/2000/svg">
<path fill-rule="evenodd" clip-rule="evenodd" d="M12 21C14.387 21 16.6761 20.0518 18.364 18.3639C20.0518 16.6761 21 14.387 21 12C21 9.61306 20.0518 7.32386 18.364 5.63603C16.6761 3.94821 14.387 3 12 3C9.61306 3 7.32386 3.94821 5.63603 5.63603C3.94821 7.32386 3 9.61306 3 12C3 14.387 3.94821 16.6761 5.63603 18.3639C7.32386 20.0518 9.61306 21 12 21ZM12 20.6505C13.136 20.6505 14.2608 20.4268 15.3105 19.9921C16.36 19.5573 17.3136 18.9201 18.1169 18.1168C18.9201 17.3136 19.5574 16.36 19.9921 15.3104C20.4268 14.2609 20.6505 13.136 20.6505 12C20.6505 10.8639 20.4268 9.73906 19.9921 8.68955C19.5574 7.64002 18.9201 6.68638 18.1169 5.8831C17.3136 5.07983 16.36 4.44263 15.3105 4.00789C14.2608 3.57316 13.136 3.3494 12 3.3494C9.7057 3.3494 7.5054 4.2608 5.8831 5.8831C4.2608 7.5054 3.3494 9.70571 3.3494 12C3.3494 14.2942 4.2608 16.4945 5.8831 18.1168C7.5054 19.7391 9.7057 20.6505 12 20.6505Z" fill="#FDDF04"/>
<path d="M7.23513 9.90868C7.23513 10.6763 7.22983 15.0811 11.9998 17.8234C16.7698 15.0811 16.7645 10.6763 16.7645 9.90868V9.88224C16.7645 9.21516 16.685 8.37341 16.5581 8.08222C15.5258 6.6634 13.0904 6.22399 11.9998 6.18164C10.9092 6.22399 8.47396 6.6581 7.4416 8.08753C7.28692 8.67273 7.21738 9.27717 7.23513 9.88224V9.90868Z" fill="#0060A4"/>
<path d="M10.9409 10.4106H13.0586V16.7635H10.9409V10.4106Z" fill="#FDDF04"/>
<path d="M11.2534 10.6655H12.7993V16.6902H11.2534V10.6655Z" fill="#FEFEF7"/>
<path d="M9.52766 10.7517L8.59059 11.8635L8.17236 11.5299L9.10942 10.413L9.52766 10.7517ZM14.4936 10.7517L15.383 11.8635L15.8011 11.5299L14.9118 10.413L14.4936 10.7517ZM11.1901 14.2352L10.1471 15.4424L9.75526 15.0982L10.9412 13.8542L11.1901 14.2352ZM12.7835 14.2352L13.8 15.4371L14.1177 15.1776L13.0588 13.8542L12.7835 14.2352ZM11.1371 10.7466L8.91354 13.3671L8.49531 13.0282L10.7188 10.4077L11.1424 10.7466H11.1371ZM12.8365 10.7466L15.06 13.3671L15.4835 13.0282L13.2441 10.413L12.8312 10.7517L12.8365 10.7466ZM11.2535 12.3982L9.37413 14.5529L8.96119 14.2141L10.9412 12.0012L11.2535 12.3982ZM12.7941 12.5305L14.6048 14.5582L15.0124 14.2088L13.0588 12.0012L12.7941 12.5305Z" fill="#FDDF04"/>
<path d="M8.29443 10.4106H15.7062V10.9399H8.29443V10.4106Z" fill="#FDDF04"/>
<path fill-rule="evenodd" clip-rule="evenodd" d="M12.0478 7.7377L12.0107 7.56299L11.9789 7.7377C11.492 7.75358 11.0843 8.07122 10.9466 8.50534L10.7295 8.47887L10.9254 8.58475C10.8749 8.79247 10.8872 9.01051 10.9608 9.21127C11.0342 9.41199 11.1657 9.58647 11.3384 9.71235L11.2166 9.95594L11.423 9.76534C11.6008 9.8738 11.8051 9.93124 12.0133 9.93124C12.2216 9.93124 12.4258 9.8738 12.6037 9.76534L12.8101 9.95594L12.6883 9.71235C12.8615 9.5856 12.9932 9.41022 13.0667 9.20856C13.1402 9.00689 13.1522 8.78796 13.1013 8.57946L13.2972 8.47357L13.0855 8.50534C13.0132 8.28574 12.8745 8.09398 12.6887 7.95648C12.5028 7.81898 12.2789 7.74255 12.0478 7.7377ZM12.0478 7.7377C12.0249 7.73713 12.0019 7.73713 11.9789 7.7377L11.8149 8.61652L10.9413 8.50534L10.9201 8.57946L11.6877 8.9871L11.3331 9.71235L11.4178 9.76534L12.0054 9.21475L12.5984 9.76534L12.683 9.71235L12.3283 8.9871L13.096 8.57946C13.096 8.55299 13.0855 8.52651 13.0749 8.50534L12.2066 8.61652L12.0425 7.7377H12.0478Z" fill="#FEFEF7"/>
<path d="M12.4128 8.87591C12.4128 9.09826 12.2275 9.27825 11.9999 9.27825C11.9463 9.27895 11.8932 9.2691 11.8435 9.24926C11.7937 9.22942 11.7484 9.19997 11.7101 9.16262C11.6717 9.12525 11.6412 9.0807 11.6199 9.0315C11.5988 8.98231 11.5876 8.92944 11.5869 8.87591C11.5869 8.64825 11.7722 8.46826 11.9999 8.46826C12.2275 8.46826 12.4128 8.64825 12.4128 8.87591Z" fill="#DAD777"/>
<path fill-rule="evenodd" clip-rule="evenodd" d="M12.0005 16.4469C9.7981 14.9751 8.29461 12.5715 8.29461 9.90861C8.29528 9.47455 8.32713 9.04109 8.38991 8.61156C8.86958 8.15026 9.44937 7.806 10.0841 7.60569C10.8093 7.36215 11.5505 7.25627 12.0005 7.2351C12.4506 7.25627 13.1917 7.36215 13.9169 7.60569C14.5516 7.806 15.1314 8.15026 15.611 8.61156L15.6587 8.95568C15.6905 9.27333 15.7064 9.59101 15.7064 9.90861V9.91392C15.7064 10.5651 15.5846 14.0434 12.0005 16.4522V16.4469ZM16.7652 9.90861C16.7652 10.6762 16.7705 15.081 12.0005 17.8234C7.2252 15.081 7.23578 10.6762 7.23578 9.90861C7.23578 9.33685 7.20401 8.61156 7.44225 8.07686C8.47461 6.65803 10.9098 6.21862 12.0005 6.17627C13.091 6.21862 15.5264 6.65275 16.5587 8.08215C16.7969 8.61156 16.7652 9.33685 16.7652 9.90861Z" fill="#FDDF04"/>
<path d="M12.2383 13.7892H12.4025C12.4712 13.7892 12.5296 13.7417 12.5296 13.6834C12.5296 13.6305 12.4765 13.5882 12.4025 13.5882L12.1483 13.5935C11.9366 13.604 11.7935 13.6252 11.7036 13.6569C11.6598 13.6701 11.6197 13.6936 11.5872 13.7258C11.5554 13.7628 11.5448 13.8158 11.5712 13.8582C11.5978 13.9111 11.6773 13.9323 11.7301 13.9111C11.7473 13.9068 11.7629 13.8981 11.7759 13.8861C11.7889 13.8741 11.7985 13.8591 11.8042 13.8422L11.9366 13.8105L11.8836 13.874C11.8149 13.9588 11.7301 14.0328 11.6506 14.0752C11.5978 14.1017 11.5819 14.1493 11.6031 14.1969C11.6296 14.2393 11.6877 14.2659 11.746 14.2552L11.9313 14.2235L11.8572 14.2869C11.7884 14.3399 11.6824 14.4405 11.5819 14.4458C11.513 14.4512 11.4654 14.4987 11.476 14.557C11.476 14.6098 11.5395 14.6522 11.6083 14.6469C11.6877 14.6416 11.7672 14.6045 11.8359 14.5674C12.0249 14.4411 12.1974 14.2918 12.3495 14.1228C12.3615 14.1078 12.3681 14.0892 12.3681 14.0699C12.3681 14.0507 12.3615 14.0319 12.3495 14.0169C12.3338 13.9979 12.3131 13.9833 12.2899 13.9749C12.2666 13.9665 12.2415 13.9646 12.2172 13.9694L12.0849 13.9905L12.2383 13.7892ZM11.9366 14.6999C12.1271 14.6258 12.323 14.6416 12.4502 14.684C12.5136 14.7052 12.5454 14.7634 12.5189 14.8217C12.4925 14.8746 12.4184 14.901 12.3548 14.8799C12.2536 14.8502 12.1454 14.8559 12.0478 14.8959C11.9366 14.9381 11.8042 15.0492 11.7301 15.2982C11.7142 15.3617 11.7619 15.4358 11.8465 15.4728C11.8889 15.4888 11.9366 15.494 11.9788 15.4835C12.0434 15.4663 12.1008 15.4292 12.143 15.3776C12.1907 15.3352 12.2702 15.3246 12.323 15.3617C12.3813 15.3987 12.3919 15.4675 12.3495 15.5152C12.2596 15.6105 12.1589 15.6688 12.0478 15.6951C11.9434 15.7184 11.8343 15.7092 11.7354 15.6688C11.5607 15.5946 11.4336 15.4251 11.4813 15.2505C11.5712 14.954 11.7407 14.7846 11.9366 14.6999ZM12.4449 11.5075C12.4622 11.5294 12.4704 11.5572 12.4675 11.5848C12.4643 11.6127 12.4506 11.6381 12.4289 11.6558L12.2383 11.8093C12.1695 11.8728 12.1113 11.9363 12.0796 12.0052C12.0478 12.0741 12.0372 12.1535 12.0054 12.2223C12.0478 12.2698 12.1007 12.3017 12.1483 12.3175H12.2383C12.2824 12.297 12.3192 12.2639 12.3442 12.2223C12.376 12.1693 12.4396 12.164 12.4872 12.1958C12.5348 12.2328 12.5401 12.2964 12.5083 12.344C12.4598 12.4147 12.3917 12.47 12.3124 12.5028C12.2431 12.5298 12.167 12.5334 12.0954 12.5135C12.01 12.4881 11.932 12.4428 11.8677 12.381C11.7935 12.434 11.7036 12.4499 11.6242 12.4975C11.6123 12.5048 11.5988 12.5095 11.5849 12.5113C11.571 12.5132 11.5567 12.5121 11.5433 12.508C11.5298 12.504 11.5173 12.4973 11.5067 12.4883C11.496 12.4791 11.4874 12.4678 11.4813 12.4551C11.4697 12.4312 11.4676 12.4037 11.4755 12.378C11.4833 12.3525 11.5006 12.3309 11.5236 12.3175L11.6031 12.2805C11.6773 12.2487 11.7831 12.2223 11.8202 12.1375C11.8572 12.0635 11.8625 11.984 11.8996 11.9151C11.9525 11.8093 12.0319 11.7193 12.106 11.6505L12.3019 11.4916C12.3442 11.4598 12.4078 11.4651 12.4449 11.5075ZM11.7778 12.7569C11.7195 12.7782 11.6506 12.7569 11.6189 12.7041C11.5978 12.6511 11.6242 12.5875 11.6877 12.5663C11.755 12.5397 11.8272 12.5271 11.8996 12.5292C11.9366 12.5292 11.9948 12.5451 12.0372 12.5822C12.0796 12.6246 12.0901 12.6774 12.0901 12.7305C12.0787 12.7987 12.0495 12.8626 12.0054 12.9158C11.926 13.0216 11.8255 13.1275 11.7513 13.2334C11.7195 13.2864 11.7089 13.3128 11.7089 13.3288C11.7089 13.3605 11.7407 13.3711 11.7725 13.3764C11.9592 13.1495 12.1357 12.9147 12.3019 12.6723C12.3389 12.6193 12.4078 12.6034 12.4712 12.6352C12.5242 12.6617 12.5454 12.7251 12.5136 12.7728C12.4184 12.9264 12.2859 13.0958 12.1695 13.2493C12.1939 13.2937 12.2261 13.3332 12.2649 13.3658L12.2753 13.3551C12.3124 13.3023 12.3813 13.2917 12.4396 13.3235C12.4925 13.3551 12.5083 13.4187 12.4712 13.4664C12.4494 13.4974 12.421 13.5235 12.3882 13.5428C12.3552 13.562 12.3186 13.5738 12.2806 13.5775C12.2131 13.5803 12.147 13.5576 12.0954 13.514C12.066 13.4907 12.0392 13.4641 12.0159 13.4346L11.9207 13.5458C11.8989 13.5702 11.8686 13.5855 11.8359 13.5882C11.7635 13.5921 11.691 13.5793 11.6242 13.5511C11.5448 13.514 11.4707 13.4399 11.4707 13.3288C11.476 13.2577 11.5018 13.1896 11.5448 13.1328C11.6189 13.0163 11.7248 12.9211 11.8096 12.8046L11.8465 12.7411C11.8231 12.7439 11.8 12.7492 11.7778 12.7569Z" fill="#025DA7"/>
</svg>
