<svg width="24" height="24" viewBox="0 0 24 24" fill="none" xmlns="http://www.w3.org/2000/svg">
<path d="M11.5003 20.9998C15.9186 20.9998 19.5004 17.4181 19.5004 12.9999C19.5004 8.58167 15.9186 5 11.5003 5C7.08216 5 3.50049 8.58167 3.50049 12.9999C3.50049 17.4181 7.08216 20.9998 11.5003 20.9998Z" fill="#F2E373"/>
<path d="M14.0006 3C13.3305 3.99998 12.0355 4.69498 11.1405 5.00497C10.0141 5.05556 8.91113 5.34369 7.90386 5.85047C6.89661 6.35724 6.00786 7.07123 5.29591 7.94559C4.58396 8.81995 4.06488 9.83495 3.77271 10.924C3.48056 12.0131 3.42192 13.1516 3.60065 14.2648C4.32064 16.4648 5.81561 17.9649 7.87561 18.0798C10.0255 18.2048 12.1205 17.4349 13.1005 15.0698C13.8905 13.1699 15.2805 12.6149 15.8754 12.5H20.5004L19.3754 11.6999C17.7105 10.2749 15.1355 10.4349 14.4555 11.025C13.8681 11.5298 13.1371 11.8375 12.3655 11.905C9.81051 11.905 9.58559 9.96992 9.58559 9.51493V9.46493C9.58057 8.94494 9.57054 7.44995 11.9706 6.64497C12.7045 6.43547 13.3351 5.9617 13.7405 5.31498H13.7354C14.2456 4.52498 14.1355 3.415 14.0006 3Z" fill="url(#paint0_linear_328_34147)"/>
<path d="M18.0402 17.6104C17.1314 18.8991 15.8622 19.8904 14.3918 20.4599C12.9214 21.0295 11.3155 21.1517 9.77572 20.8115C8.23608 20.4712 6.8313 19.6834 5.73791 18.5473C4.64454 17.411 3.91131 15.977 3.63037 14.4255C4.11538 15.8454 5.55535 18.1304 8.24032 18.0803C11.1553 18.0304 12.6003 16.2104 12.9903 15.2005C13.3852 14.2004 14.3652 12.8604 15.8651 12.5005C15.2503 12.8805 14.1302 13.9254 14.2452 15.2005C14.3802 16.7554 15.6352 17.7854 18.0402 17.6104Z" fill="url(#paint1_linear_328_34147)"/>
<defs>
<linearGradient id="paint0_linear_328_34147" x1="7.1006" y1="5.89803" x2="16.8123" y2="14.1547" gradientUnits="userSpaceOnUse">
<stop stop-color="#F5C859"/>
<stop offset="1" stop-color="#DE3633"/>
</linearGradient>
<linearGradient id="paint1_linear_328_34147" x1="8.6902" y1="16.09" x2="11.5251" y2="21.045" gradientUnits="userSpaceOnUse">
<stop stop-color="#F3BE56"/>
<stop offset="1" stop-color="#E04437"/>
</linearGradient>
</defs>
</svg>
