<svg width="24" height="24" viewBox="0 0 24 24" fill="none" xmlns="http://www.w3.org/2000/svg">
<path d="M8.10637 6.78809C6.74663 6.79436 5.445 7.34021 4.4875 8.30569C3.53001 9.27118 2.995 10.5773 3.00004 11.937V16.025C3.00004 16.339 3.12481 16.6403 3.34689 16.8623C3.56897 17.0844 3.87018 17.2092 4.18425 17.2092C4.49833 17.2092 4.79954 17.0844 5.02163 16.8623C5.24371 16.6403 5.36847 16.339 5.36847 16.025V12.0697C5.36847 10.4592 6.51006 9.15652 8.10637 9.15652C9.70744 9.15652 10.579 10.4639 10.579 12.0697V15.8924C10.579 16.2422 10.7179 16.5777 10.9654 16.8252C11.2128 17.0725 11.5484 17.2116 11.8983 17.2116C12.2481 17.2116 12.5836 17.0725 12.831 16.8252C13.0785 16.5777 13.2174 16.2422 13.2174 15.8924V11.937C13.2174 9.09494 10.9295 6.78809 8.10637 6.78809Z" fill="#252060"/>
<path d="M15.8936 6.78809C13.0705 6.78809 10.5789 9.09494 10.5789 11.937V15.7882C10.5789 16.165 10.7286 16.5264 10.9951 16.7929C11.2616 17.0595 11.623 17.2092 11.9999 17.2092C12.3768 17.2092 12.7382 17.0595 13.0047 16.7929C13.2713 16.5264 13.4209 16.165 13.4209 15.7882V12.0697C13.4209 10.4592 14.2926 9.15651 15.8936 9.15651C17.49 9.15651 18.6315 10.4639 18.6315 12.0697V16.025C18.6315 16.339 18.7563 16.6403 18.9784 16.8623C19.2005 17.0844 19.5017 17.2092 19.8157 17.2092C20.1298 17.2092 20.431 17.0844 20.6531 16.8623C20.8752 16.6403 21 16.339 21 16.025V11.937C21 9.09494 18.7121 6.78809 15.8936 6.78809Z" fill="#252060"/>
</svg>
