<svg width="24" height="24" viewBox="0 0 24 24" fill="none" xmlns="http://www.w3.org/2000/svg">
<path d="M10.1845 4.96881C10.9909 3.57029 13.0085 3.57029 13.8149 4.96881L20.7165 16.9377C21.5224 18.3344 20.5142 20.0796 18.9013 20.0796H5.09868C3.48581 20.0796 2.47764 18.3344 3.28346 16.9377L10.1845 4.96881Z" stroke="#E1CA7D"/>
<path d="M10.911 6.91531C11.8397 5.59521 13.85 5.77662 14.5271 7.24158L18.816 16.5176C19.4926 17.9807 18.3323 19.6283 16.7261 19.4835L6.55799 18.5669C4.95173 18.4221 4.10458 16.5936 5.03195 15.2741L10.911 6.91531Z" stroke="#E1CA7D"/>
<path d="M11.8793 7.99595C12.6277 7.11828 14.0447 7.3811 14.4291 8.46772L17.3735 16.7967C17.7578 17.8821 16.8227 18.9764 15.69 18.7668L7.01264 17.1594C5.87992 16.9498 5.39919 15.5933 6.14633 14.7167L11.8793 7.99595Z" stroke="#E1CA7D"/>
<path d="M12.6713 9.08901C12.7848 8.97942 12.9251 8.90165 13.0782 8.86353C13.2313 8.82541 13.3917 8.82829 13.5432 8.87186C13.695 8.91544 13.8322 8.99818 13.9417 9.11177C14.0513 9.22534 14.1289 9.36576 14.1668 9.51886L16.0168 16.9802C16.0548 17.1332 16.0517 17.2934 16.0082 17.445C15.9647 17.5964 15.882 17.7337 15.7686 17.8431C15.6551 17.9525 15.5149 18.03 15.3619 18.068C15.209 18.1061 15.0487 18.1032 14.8973 18.0597L7.51606 15.9367C7.3647 15.8931 7.22748 15.8104 7.11817 15.6972C7.00886 15.5837 6.93129 15.4435 6.89327 15.2906C6.85524 15.1378 6.85808 14.9777 6.90151 14.8263C6.94493 14.6748 7.02741 14.5375 7.14068 14.428L12.6713 9.08901Z" stroke="#E1CA7D"/>
<path d="M13.0276 10.579C13.1133 10.518 13.2134 10.4805 13.318 10.4704C13.4228 10.4605 13.5283 10.4783 13.6238 10.5218C13.7195 10.5656 13.8019 10.6338 13.8629 10.7194C13.9239 10.8052 13.9612 10.9053 13.9712 11.0101L14.5015 16.5784C14.5116 16.6831 14.4939 16.7884 14.4502 16.884C14.4066 16.9797 14.3385 17.0621 14.2529 17.1232C14.1673 17.1841 14.0671 17.2215 13.9624 17.2314C13.8578 17.2415 13.7524 17.2238 13.6568 17.18L8.57276 14.8596C8.47728 14.8159 8.39494 14.748 8.33402 14.6625C8.27311 14.577 8.23574 14.477 8.22566 14.3725C8.21559 14.268 8.23318 14.1627 8.27666 14.0671C8.32014 13.9716 8.38799 13.889 8.47339 13.828L13.0276 10.579Z" stroke="#E1CA7D"/>
</svg>
