<svg width="24" height="24" viewBox="0 0 24 24" fill="none" xmlns="http://www.w3.org/2000/svg">
<path d="M9.98279 4.18783C10.8788 2.63392 13.1206 2.63392 14.0165 4.18783L21.685 17.4866C22.5804 19.0385 21.4602 20.9776 19.6681 20.9776H4.33186C2.53979 20.9776 1.4196 19.0385 2.31496 17.4866L9.98279 4.18783Z" stroke="#E1CA7D"/>
<path d="M10.7897 6.3511C11.8216 4.88433 14.0553 5.08589 14.8076 6.71363L19.5731 17.0203C20.3248 18.646 19.0356 20.4766 17.251 20.3157L5.95307 19.2973C4.16834 19.1364 3.22707 17.1048 4.25748 15.6386L10.7897 6.3511Z" stroke="#E1CA7D"/>
<path d="M11.8663 7.55185C12.6978 6.57667 14.2723 6.86869 14.6994 8.07604L17.9709 17.3304C18.3979 18.5364 17.3589 19.7523 16.1004 19.5195L6.45886 17.7334C5.20029 17.5006 4.66614 15.9933 5.4963 15.0194L11.8663 7.55185Z" stroke="#E1CA7D"/>
<path d="M12.7457 8.76582C12.8718 8.64406 13.0277 8.55765 13.1978 8.51529C13.3679 8.47293 13.5461 8.47613 13.7145 8.52454C13.8831 8.57297 14.0356 8.6649 14.1573 8.79111C14.279 8.9173 14.3652 9.07332 14.4074 9.24343L16.4629 17.5338C16.5051 17.7038 16.5017 17.8818 16.4534 18.0502C16.405 18.2185 16.3131 18.371 16.1871 18.4926C16.061 18.6141 15.9052 18.7002 15.7352 18.7425C15.5653 18.7848 15.3872 18.7816 15.219 18.7333L7.01765 16.3744C6.84948 16.3259 6.69701 16.234 6.57555 16.1082C6.4541 15.9821 6.36791 15.8264 6.32566 15.6565C6.28341 15.4867 6.28656 15.3088 6.33482 15.1406C6.38306 14.9723 6.47471 14.8197 6.60056 14.698L12.7457 8.76582Z" stroke="#E1CA7D"/>
<path d="M13.142 10.4222C13.2372 10.3544 13.3485 10.3128 13.4647 10.3016C13.5811 10.2906 13.6983 10.3103 13.8045 10.3587C13.9108 10.4073 14.0024 10.4831 14.0701 10.5782C14.1379 10.6735 14.1793 10.7848 14.1904 10.9012L14.7797 17.0882C14.7909 17.2045 14.7712 17.3216 14.7227 17.4278C14.6742 17.5341 14.5986 17.6257 14.5034 17.6935C14.4083 17.7612 14.297 17.8028 14.1807 17.8138C14.0645 17.825 13.9473 17.8053 13.8411 17.7567L8.1922 15.1784C8.08611 15.1299 7.99462 15.0544 7.92693 14.9594C7.85925 14.8644 7.81773 14.7533 7.80653 14.6372C7.79534 14.5211 7.81489 14.4041 7.8632 14.2979C7.91151 14.1918 7.98689 14.1 8.08178 14.0322L13.142 10.4222Z" stroke="#E1CA7D"/>
</svg>
