<svg width="24" height="24" viewBox="0 0 24 24" fill="none" xmlns="http://www.w3.org/2000/svg">
<path d="M16.5406 11.9305C16.5507 12.3005 16.2507 12.6106 15.8657 12.6206C15.4807 12.6307 15.1657 12.3406 15.1506 11.9706C15.1486 11.8797 15.1647 11.7895 15.198 11.7049C15.2311 11.6205 15.2808 11.5434 15.3441 11.4782C15.4074 11.413 15.483 11.3611 15.5665 11.3256C15.6501 11.2898 15.7398 11.2711 15.8307 11.2706C16.2107 11.2655 16.5307 11.5555 16.5406 11.9305ZM8.15024 12.6505C8.52526 12.6505 8.83028 12.3456 8.83028 11.9755C8.83028 11.6005 8.53026 11.3005 8.15024 11.3005C7.77522 11.3005 7.47021 11.6005 7.47021 11.9755C7.47021 12.3456 7.77022 12.6456 8.15024 12.6456V12.6505Z" fill="#5B0B0B"/>
<path fill-rule="evenodd" clip-rule="evenodd" d="M16.5861 5.84909C16.5361 6.00409 16.4359 6.05411 16.2861 5.99909C14.846 5.49907 13.3958 5.41907 11.8857 5.41907C10.5857 5.41907 9.23564 5.43907 8.01558 5.90909C7.37054 6.15911 6.85551 4.49902 4.93041 4.49902C4.40039 4.50902 3.84037 4.60903 3.62035 4.91404C3.38034 5.24907 3.12032 5.57407 3.04532 5.9941C2.94531 6.60913 3.01032 7.24417 3.24533 7.8842C3.37034 8.20421 3.49035 8.53423 3.61034 8.87425C3.68035 9.06426 3.81036 9.20921 3.94037 9.35925C4.01537 9.44431 4.09037 9.52924 4.15538 9.61932C4.19426 9.67579 4.2102 9.74486 4.2 9.81265C4.18977 9.88043 4.15417 9.9418 4.10037 9.98428C3.03032 10.8243 3.00032 12.4844 3.26033 13.6945C3.64035 15.4346 4.37039 16.7897 5.98547 17.7647C7.21553 18.5048 8.60561 18.6297 10.0207 18.7647C10.057 18.7687 10.0917 18.7825 10.1207 18.8048C10.6426 19.2565 11.3106 19.5033 12.0007 19.4997C12.5809 19.5048 13.5859 19.4398 13.8909 18.8598C13.9158 18.8048 13.9709 18.7647 14.0359 18.7598C15.2209 18.6297 16.4961 18.5597 17.5711 17.9897C18.4564 17.5446 19.2157 16.884 19.7793 16.0689C20.3427 15.2536 20.6924 14.31 20.7963 13.3245C20.8684 12.76 20.8684 12.1888 20.7963 11.6244C20.6863 10.8394 19.9663 10.4093 19.8011 9.77927C19.796 9.76096 19.7947 9.74171 19.7973 9.72269C19.7999 9.70379 19.8063 9.68559 19.8162 9.66926C20.4662 8.53423 21.1863 7.52917 20.9562 6.05411C20.8863 5.60407 20.4813 4.75403 19.9462 4.62402C19.2728 4.45815 18.5695 4.45815 17.8961 4.62402C17.6038 4.72588 17.3361 4.88799 17.1105 5.0999C16.8847 5.3118 16.706 5.56875 16.5861 5.85409V5.84909ZM18.7561 11.0993C18.7074 11.1339 18.6512 11.1564 18.5921 11.165C18.533 11.1737 18.4727 11.1684 18.4161 11.1494L17.491 10.8543C17.4311 10.8394 17.3711 10.9044 17.3961 10.9643C17.596 11.4044 17.741 12.4293 17.311 12.8645C16.861 13.3145 16.411 13.5945 15.8661 13.6146C15.586 13.6245 15.2809 13.6295 14.946 13.4245C14.6959 13.2744 14.3309 12.6945 13.9709 12.9894C13.9541 13.0019 13.9402 13.0175 13.9299 13.0356C13.9194 13.0537 13.913 13.0737 13.911 13.0944L13.8359 13.6595C13.8309 13.7145 13.8509 13.7595 13.8959 13.7995C14.2459 14.0646 14.3309 14.1996 14.3359 14.4196C14.3459 15.1295 13.0758 15.7646 12.5558 16.0496C12.4308 16.1196 12.4058 16.2996 12.5158 16.3996L12.9008 16.7496C13.3859 17.1696 14.1059 17.0997 14.606 16.7447C14.8259 16.5897 14.956 16.3447 15.0809 16.1096L15.171 15.9447C15.226 15.8447 15.3009 15.7846 15.3909 15.7496C15.541 15.6996 15.7009 15.7796 15.741 15.9295C15.8409 16.2996 15.7709 16.6396 15.5259 16.9496C15.2859 17.2497 15.0209 17.4497 14.7209 17.5597C14.6709 17.5797 14.6359 17.6097 14.611 17.6547C14.5874 17.6974 14.5803 17.7472 14.5909 17.7947C14.606 17.8597 14.641 17.8947 14.7059 17.9097C15.446 18.0297 16.8711 17.5897 17.5311 17.1848C19.7112 15.8346 21.3963 12.2344 19.1011 10.1393C18.6111 9.68933 18.0412 8.99925 17.7262 8.41922C17.491 7.9892 17.5361 7.28917 17.5761 6.80413C17.6111 6.38411 17.946 6.01911 18.2112 5.72909L18.2461 5.68909C18.4361 5.48407 18.9311 5.40907 18.9561 5.81909C18.9661 5.97411 18.9412 6.11911 18.8762 6.26411C18.8462 6.32911 18.8861 6.40911 18.9612 6.41911C19.2811 6.48413 20.0762 6.54413 20.1212 6.08911C20.1712 5.65408 19.6211 5.21905 19.1811 5.17906C18.1661 5.08905 17.4661 5.61407 17.0161 6.44412L16.8711 6.69913C16.741 6.90914 16.5711 6.95415 16.3611 6.83415C15.1509 6.1391 13.2608 6.0941 11.8808 6.11411C10.5507 6.13411 8.67561 6.18911 7.48055 6.85415C7.43904 6.8764 7.39347 6.89006 7.34656 6.89429C7.29965 6.89852 7.25238 6.89325 7.20757 6.87877C7.16274 6.86431 7.12129 6.84093 7.08572 6.81006C7.05015 6.77919 7.02118 6.74147 7.00053 6.69913C6.65051 5.91909 6.07048 5.25907 5.16543 5.16907C4.7388 5.13315 4.31511 5.266 3.98537 5.53907C3.81536 5.66909 3.73536 5.83909 3.74035 6.04411C3.76037 6.54413 4.6054 6.48413 4.93041 6.41911C4.94636 6.41593 4.96139 6.40925 4.97445 6.39954C4.98749 6.38984 4.99823 6.37737 5.00588 6.36303C5.01352 6.34868 5.01789 6.33281 5.01869 6.31658C5.01947 6.30034 5.01665 6.28412 5.01041 6.26911C4.91041 6.01911 4.84041 5.78908 5.04542 5.57407C5.07039 5.54697 5.10394 5.5293 5.14043 5.52407C5.62045 5.47407 6.27549 6.30911 6.32549 6.78915C6.37549 7.29917 6.42549 7.98419 6.14548 8.42923C5.73513 9.04192 5.26985 9.61593 4.75541 10.1443C4.41091 10.5029 4.14773 10.9314 3.98379 11.4008C3.81984 11.8702 3.75899 12.3694 3.80537 12.8645C3.86711 13.7906 4.1676 14.6849 4.67758 15.4605C5.18756 16.2358 5.88966 16.8661 6.71551 17.2897C7.49555 17.6947 8.56561 17.7897 9.43066 17.9047C9.51565 17.9148 9.55566 17.8797 9.56065 17.7947C9.57066 17.6897 9.52066 17.6147 9.41565 17.5797C9.13572 17.4995 8.87919 17.3532 8.66771 17.153C8.45624 16.9529 8.29602 16.7047 8.20059 16.4296C8.14058 16.2546 8.10059 15.8097 8.3456 15.7296C8.4956 15.6796 8.68561 15.7046 8.77562 15.8547C8.94063 16.1346 9.06063 16.5046 9.33064 16.6897C10.0207 17.1597 10.6807 17.0947 11.3158 16.4896C11.3858 16.4196 11.6157 16.1646 11.4657 16.0696C11.0258 15.7945 9.42565 15.1095 9.43066 14.4196C9.43066 14.2095 9.60566 13.9996 9.9807 13.7995C9.99984 13.7912 10.0161 13.7771 10.0268 13.7591C10.0375 13.7413 10.0424 13.7204 10.0407 13.6995C10.0306 13.5445 10.0057 13.3696 9.97067 13.1745C9.91069 12.8095 9.45565 12.7794 9.29064 13.0594C9.03063 13.4945 8.5456 13.6095 8.15058 13.6146C7.55056 13.6245 6.99053 13.3145 6.56051 12.9045C6.16547 12.5295 6.30049 11.4244 6.4305 10.9794C6.4555 10.9044 6.38049 10.8344 6.30549 10.8593C6.00048 10.9494 5.70546 11.0443 5.41545 11.1544C5.08543 11.2793 4.7304 10.9293 5.00543 10.6493C5.19543 10.4544 5.46045 10.2443 5.73545 10.1643C6.63551 9.91426 7.54555 9.89933 8.4706 10.1193C9.85072 10.4593 10.4807 12.1694 10.7908 13.3945C10.8157 13.4945 10.9107 13.5645 11.0157 13.5544C11.6358 13.5095 12.2508 13.5145 12.8658 13.5695C12.8959 13.5695 12.9258 13.5494 12.9309 13.5194C13.3009 12.3694 13.8808 10.4943 15.2559 10.1443C15.8483 9.97389 16.4673 9.91625 17.0811 9.97436C17.8561 10.0743 18.2561 10.1543 18.7962 10.6443C18.9361 10.7694 18.9162 11.0044 18.7561 11.0993ZM16.796 12.0694V11.8194C16.8011 11.3694 16.426 10.9943 15.976 10.9943L15.6709 10.9894C15.2209 10.9894 14.8359 11.3544 14.8359 11.7993V12.0494C14.8259 12.4994 15.2009 12.8745 15.651 12.8795H15.961C16.411 12.8795 16.791 12.5144 16.796 12.0694ZM9.14564 12.1194C9.14063 12.5445 8.77062 12.9095 8.33559 12.9045H7.98557C7.55056 12.8994 7.18553 12.5295 7.19553 12.0994V11.7844C7.19553 11.3544 7.56555 10.9993 8.00057 11.0044H8.35059C8.78562 11.0093 9.15064 11.3745 9.14564 11.8044V12.1194Z" fill="#5B0B0B"/>
</svg>
