<svg width="24" height="24" viewBox="0 0 24 24" fill="none" xmlns="http://www.w3.org/2000/svg">
<path d="M6.41596 8.71996L7.21714 8.20117L7.96953 8.71996L7.21714 9.17716L6.41596 8.71996ZM5.05598 9.47355L4.2552 9.99273L5.05638 10.4495L5.80917 9.99273L5.05598 9.47355ZM4 10.1996V13.9491L7.19994 15.7995V12.0987L4 10.1996ZM7.21714 9.47355L6.41596 9.99273L7.21714 10.4495L7.96953 9.99273L7.21714 9.47355ZM6.41596 11.2655L7.21714 10.7463L7.96953 11.2651L7.21714 11.7222L6.41596 11.2655ZM6.12397 10.1144L5.32318 10.6331L6.12436 11.0903L6.87716 10.6331L6.12397 10.1144ZM7.48514 10.6331L8.28633 10.1144L9.03912 10.6331L8.28673 11.0903L7.48514 10.6331ZM9.37791 9.47355L8.57673 9.99273L9.37791 10.4495L10.1307 9.99273L9.37791 9.47355Z" fill="url(#paint0_linear_328_54267)"/>
<path d="M10.4004 14.1992V10.1992H11.2005L12.4005 12.8536L13.6004 10.1992H16.4003V10.9992H14.3916V11.7992H16.4003V12.5992H14.3916V13.3992H16.4003V13.9483L17.6467 12.1192L16.4027 10.1992H17.3763L18.1427 11.394L18.8731 10.1992H19.919L18.6567 12.1192L20.0002 14.1992H18.9903L18.1427 12.8536L17.3039 14.1992H13.6004V12.1192L12.8005 14.1992H12.0004L11.2005 12.1192V14.1992H10.4004Z" fill="url(#paint1_linear_328_54267)"/>
<defs>
<linearGradient id="paint0_linear_328_54267" x1="7.06535" y1="8.20117" x2="7.06535" y2="15.7995" gradientUnits="userSpaceOnUse">
<stop stop-color="#213973"/>
<stop offset="1" stop-color="#02094B"/>
</linearGradient>
<linearGradient id="paint1_linear_328_54267" x1="15.2004" y1="10.1992" x2="15.2004" y2="14.1992" gradientUnits="userSpaceOnUse">
<stop stop-color="#213973"/>
<stop offset="1" stop-color="#02094B"/>
</linearGradient>
</defs>
</svg>
