<svg width="24" height="24" viewBox="0 0 24 24" fill="none" xmlns="http://www.w3.org/2000/svg">
<path d="M7.17936 3H16.8206C19.1043 3 21 4.93498 21 7.3481V16.6518C21 19.0256 19.1437 21 16.8206 21H7.17936C4.89562 21 3 19.065 3 16.6518V7.3481C3 4.92937 4.85624 3 7.17936 3Z" fill="#F0F3FA"/>
<path d="M8.77076 9.48577C8.36936 9.40649 8.01435 9.17454 7.7804 8.83884C7.54647 8.50314 7.45182 8.0898 7.51639 7.68577C7.54451 7.48516 7.61235 7.29215 7.71591 7.11806C7.81948 6.94396 7.95671 6.79225 8.11959 6.6718C8.28245 6.55134 8.46771 6.46457 8.6645 6.41652C8.8613 6.36848 9.06569 6.36017 9.26575 6.39202L16.9156 7.76452C17.3172 7.84384 17.6721 8.07574 17.9061 8.41144C18.14 8.74713 18.2346 9.16046 18.1701 9.56452C18.142 9.76506 18.0741 9.95813 17.9705 10.1322C17.8669 10.3063 17.7298 10.4581 17.567 10.5784C17.4041 10.6989 17.2188 10.7857 17.022 10.8337C16.8251 10.8817 16.6208 10.8902 16.4207 10.8582L8.77076 9.48577Z" fill="url(#paint0_linear_328_54285)"/>
<path d="M8.15731 13.8723C7.76665 13.7973 7.42169 13.5705 7.19812 13.2414C6.97455 12.9124 6.89065 12.5081 6.96482 12.1172C6.99675 11.9238 7.06683 11.7387 7.17094 11.5725C7.27506 11.4065 7.41113 11.2628 7.57129 11.1496C7.73144 11.0367 7.91247 10.9566 8.10384 10.9141C8.29521 10.8715 8.49312 10.8676 8.68607 10.9022L13.5854 11.8136C14.4123 11.9654 14.9354 12.7698 14.7836 13.5685C14.7515 13.7619 14.6815 13.947 14.5774 14.1132C14.4734 14.2792 14.3372 14.423 14.1771 14.5361C14.017 14.649 13.8359 14.7292 13.6445 14.7716C13.4531 14.8142 13.2552 14.8182 13.0622 14.7835L8.15731 13.8723Z" fill="url(#paint1_linear_328_54285)"/>
<path d="M7.61154 17.8892C7.21569 17.8127 6.86599 17.5831 6.63847 17.2503C6.41096 16.9174 6.32402 16.5081 6.39655 16.1117C6.5428 15.2622 7.27968 14.6828 8.08967 14.8348L9.63651 15.1103C10.0324 15.1868 10.3821 15.4164 10.6096 15.7493C10.8372 16.0822 10.924 16.4912 10.8515 16.8878C10.7052 17.7372 9.96844 18.3167 9.15842 18.1648L7.61154 17.8892Z" fill="url(#paint2_linear_328_54285)"/>
<defs>
<linearGradient id="paint0_linear_328_54285" x1="2.53103" y1="7.50433" x2="22.5452" y2="9.14927" gradientUnits="userSpaceOnUse">
<stop stop-color="#FF5B5D"/>
<stop offset="1" stop-color="#FE38A3"/>
</linearGradient>
<linearGradient id="paint1_linear_328_54285" x1="2.99514" y1="8.13257" x2="23.4887" y2="10.1119" gradientUnits="userSpaceOnUse">
<stop stop-color="#2FF3F9"/>
<stop offset="1" stop-color="#0ABCFE"/>
</linearGradient>
<linearGradient id="paint2_linear_328_54285" x1="6.37505" y1="15.937" x2="11.4375" y2="16.7807" gradientUnits="userSpaceOnUse">
<stop stop-color="#BA74FF"/>
<stop offset="1" stop-color="#6D6BFA"/>
</linearGradient>
</defs>
</svg>
