<svg width="24" height="24" viewBox="0 0 24 24" fill="none" xmlns="http://www.w3.org/2000/svg">
<path d="M10.9398 17.7945C10.9398 17.6597 10.6577 17.5756 10.5187 17.5503C9.83237 17.5503 9.9545 17.925 9.9545 17.9797C9.87187 18.1509 9.81783 18.3343 9.79445 18.5229C9.20922 18.5229 8.86816 18.9524 8.86816 19.3103C8.86816 19.664 9.18817 19.925 10.0134 19.925C10.8387 19.925 11.0787 19.5334 11.0787 19.2724C11.0787 18.8387 10.944 18.2282 10.8766 17.9797C10.8977 17.9629 10.9398 17.8956 10.9398 17.7945Z" fill="url(#paint0_linear_328_36766)"/>
<path d="M10.5271 17.4736C10.6071 17.4863 10.7208 17.5158 10.8134 17.562C10.8639 17.5831 10.9103 17.6126 10.9481 17.6463C10.9902 17.6842 11.0197 17.7304 11.0197 17.7936C11.0208 17.8648 11.0018 17.9349 10.965 17.9957C11.0323 18.2652 11.1586 18.8464 11.1586 19.2716C11.1586 19.4232 11.0871 19.6085 10.9061 19.7516C10.7249 19.8989 10.4387 20 10.0134 20C9.59231 20 9.28915 19.9327 9.08703 19.8105C8.88072 19.6885 8.78809 19.5116 8.78809 19.3053C8.78809 18.9263 9.13336 18.4842 9.71862 18.4505C9.72973 18.3937 9.74378 18.3374 9.76078 18.2821C9.7818 18.181 9.82385 18.0631 9.87022 17.9663V17.9536L9.86599 17.8905C9.86599 17.84 9.87022 17.7726 9.90815 17.7094C9.98389 17.5705 10.1607 17.4736 10.5145 17.4736H10.5271ZM9.95442 17.9789C9.87179 18.15 9.81776 18.3335 9.79438 18.5221C9.20915 18.5221 8.86809 18.9516 8.86809 19.3095C8.86809 19.6632 9.18809 19.9242 10.0134 19.9242C10.8386 19.9242 11.0786 19.5326 11.0786 19.2716C11.0786 18.8379 10.9439 18.2274 10.8765 17.9789C10.8976 17.9621 10.9397 17.8948 10.9397 17.7936C10.9397 17.6589 10.6576 17.5748 10.5186 17.5495C9.89547 17.5495 9.93762 17.8568 9.95019 17.9536C9.95068 17.9621 9.95068 17.9704 9.95019 17.9789H9.95442Z" fill="black"/>
<path d="M11.0745 19.3091C10.8724 19.4776 10.5145 19.646 9.93347 19.646C9.42396 19.646 9.05764 19.4355 8.86816 19.2754V19.3091C8.86816 19.6628 9.18817 19.9239 10.0134 19.9239C10.8008 19.9239 11.0535 19.566 11.0787 19.3091H11.0745Z" fill="url(#paint1_linear_328_36766)"/>
<path d="M13.0661 17.7945C13.0661 17.6597 13.344 17.5756 13.4871 17.5503C14.1693 17.5503 14.0471 17.925 14.0471 17.9797C14.1482 18.165 14.2072 18.4681 14.2072 18.5229C14.7924 18.5229 15.1334 18.9524 15.1334 19.3103C15.1334 19.664 14.8134 19.925 13.9881 19.925C13.1629 19.925 12.9229 19.5334 12.9229 19.2724C12.9229 18.8387 13.0577 18.2282 13.1249 17.9797C13.104 17.9629 13.0661 17.8956 13.0661 17.7945Z" fill="url(#paint2_linear_328_36766)"/>
<path d="M13.4745 17.4736C13.3944 17.4863 13.2807 17.5158 13.1881 17.562C13.139 17.5829 13.0935 17.6113 13.0533 17.6463C13.0315 17.6644 13.014 17.6868 13.0016 17.7122C12.9892 17.7376 12.9825 17.7654 12.9817 17.7936C12.9817 17.8778 13.0069 17.9495 13.0365 17.9957C12.9261 18.4128 12.8612 18.8405 12.8428 19.2716C12.8428 19.4232 12.9144 19.6085 13.0954 19.7516C13.2765 19.8989 13.5586 20 13.9881 20C14.4091 20 14.7123 19.9327 14.9144 19.8105C15.1207 19.6885 15.2092 19.5116 15.2092 19.3053C15.2092 18.9263 14.8681 18.4842 14.2828 18.4505C14.2717 18.3937 14.2577 18.3374 14.2408 18.2821C14.2148 18.1735 14.1781 18.0676 14.1312 17.9663V17.9536L14.1354 17.8905C14.1376 17.8276 14.123 17.765 14.0933 17.7094C14.0175 17.5705 13.8407 17.4736 13.487 17.4736H13.4745ZM14.047 17.9789C14.1481 18.1642 14.207 18.4673 14.207 18.5221C14.7923 18.5221 15.1334 18.9516 15.1334 19.3095C15.1334 19.6632 14.8134 19.9242 13.9881 19.9242C13.1628 19.9242 12.9228 19.5326 12.9228 19.2716C12.9228 18.8379 13.0576 18.2274 13.1249 17.9789C13.1038 17.9621 13.0618 17.8948 13.0618 17.7936C13.0618 17.6589 13.3438 17.5748 13.4828 17.5495C14.106 17.5495 14.0639 17.8568 14.0513 17.9536C14.0507 17.9621 14.0507 17.9704 14.0513 17.9789H14.047Z" fill="black"/>
<path d="M12.9272 19.3091C13.1293 19.4776 13.4873 19.646 14.0683 19.646C14.5778 19.646 14.9441 19.4355 15.1336 19.2754V19.3091C15.1336 19.6628 14.8136 19.9239 13.9883 19.9239C13.2009 19.9239 12.9483 19.566 12.9272 19.3091Z" fill="url(#paint3_linear_328_36766)"/>
<path d="M10.1561 17.5417C10.013 17.1797 10.0172 16.0891 10.0382 15.5923L10.514 15.748C10.4678 15.8238 10.3751 16.0429 10.3751 16.3586C10.3751 16.7545 10.5308 17.3649 10.5519 17.5208C10.573 17.6765 10.455 17.6765 10.3751 17.6765C10.2909 17.6765 10.2151 17.6175 10.1561 17.5417Z" fill="url(#paint4_linear_328_36766)"/>
<path d="M10.0217 15.5674L10.5438 15.7358L10.5312 15.7611C10.4891 15.8284 10.3922 16.0474 10.3922 16.359C10.3922 16.5568 10.4344 16.8053 10.4764 17.0242C10.5062 17.1889 10.5384 17.3532 10.5733 17.5169C10.5776 17.5589 10.5733 17.5927 10.5606 17.6221C10.5504 17.6455 10.5326 17.6648 10.5101 17.6768C10.4675 17.6944 10.4213 17.7015 10.3754 17.698C10.287 17.698 10.2028 17.6348 10.1396 17.5548V17.5506C10.096 17.4224 10.0677 17.2896 10.0554 17.1548C10.0343 16.9948 10.0217 16.8096 10.0133 16.62C10.0006 16.2411 10.0091 15.8411 10.0175 15.5927V15.5674H10.0217ZM10.0554 15.6179C10.0418 16.1291 10.0558 16.6408 10.0975 17.1505C10.1144 17.3106 10.1396 17.4453 10.1733 17.5295C10.2323 17.6053 10.3038 17.6558 10.3754 17.6558C10.4175 17.6558 10.4596 17.6558 10.4933 17.6432C10.5093 17.6337 10.5213 17.6188 10.527 17.6011C10.5354 17.5884 10.5396 17.5589 10.5312 17.5252C10.5312 17.4832 10.5144 17.42 10.4976 17.3316L10.4891 17.2979L10.4386 17.0327C10.3965 16.8096 10.3543 16.5611 10.3543 16.359C10.3543 16.0642 10.4344 15.8537 10.4807 15.7611L10.0596 15.6179H10.0554Z" fill="black"/>
<path d="M7.57965 13.3056C7.86176 13.3056 8.1186 12.8887 8.21124 12.6782C8.36282 12.6908 8.64072 12.7792 8.53124 13.0149C8.3923 13.3097 8.09334 13.6466 7.6765 13.6466C7.34386 13.6466 7.04912 13.474 6.94385 13.3898L7.06175 13.0109C7.11649 13.1118 7.29333 13.3056 7.57965 13.3056Z" fill="url(#paint5_linear_328_36766)"/>
<path d="M8.19897 12.6582H8.21581C8.29159 12.6665 8.40528 12.6918 8.48107 12.7466C8.52318 12.776 8.55266 12.8139 8.56528 12.8603C8.58213 12.9023 8.57792 12.9612 8.54844 13.0244C8.40949 13.3192 8.10633 13.6645 7.67685 13.6645C7.40743 13.6565 7.14708 13.5653 6.93158 13.4034L6.91895 13.395L7.05789 12.9655L7.07895 13.0076C7.12948 13.1003 7.30211 13.2897 7.58001 13.2897C7.71053 13.2897 7.84106 13.1928 7.95476 13.0624C8.06422 12.9318 8.14844 12.776 8.19475 12.6708L8.19897 12.6582ZM8.22422 12.7002C8.17791 12.8056 8.09369 12.957 7.98423 13.0876C7.87054 13.2182 7.73159 13.3319 7.58001 13.3319C7.31474 13.3319 7.1421 13.1676 7.07053 13.0624L6.96526 13.3824C7.07895 13.4665 7.36105 13.6266 7.68106 13.6266C8.08107 13.6266 8.37581 13.2981 8.51055 13.0076C8.54002 12.9529 8.54002 12.9065 8.5316 12.8686C8.51813 12.832 8.49297 12.801 8.46002 12.7802C8.38888 12.7353 8.30806 12.7078 8.22422 12.7002Z" fill="black"/>
<path d="M7.14154 12.9567C7.14154 13.083 7.19628 13.2052 7.22154 13.2514C7.15418 13.2389 7.01944 13.2473 7.00259 13.3905C6.98154 13.5673 6.8847 13.601 6.74575 13.601C6.6068 13.601 6.54785 13.3694 6.54785 13.0536C6.54785 12.801 6.80049 12.7168 6.9268 12.6999C6.90154 12.561 7.06154 12.3252 7.14154 12.3252C7.22154 12.3252 7.33944 12.3672 7.33944 12.502C7.33944 12.641 7.14154 12.7968 7.14154 12.9567Z" fill="#B9BDC0"/>
<path d="M7.09938 12.32C7.11172 12.3109 7.12623 12.3051 7.14149 12.3032C7.18359 12.3032 7.23834 12.3158 7.28043 12.3453C7.32676 12.3747 7.36044 12.4295 7.36044 12.5011C7.36044 12.5431 7.3436 12.5811 7.32675 12.619L7.26359 12.7242L7.25939 12.7327C7.23412 12.7706 7.20886 12.8084 7.19202 12.8463C7.17416 12.8802 7.1641 12.9175 7.16254 12.9558C7.16254 13.0779 7.21307 13.1958 7.23834 13.238L7.25939 13.28L7.21728 13.2674C7.17758 13.2603 7.13666 13.2647 7.09938 13.28C7.0615 13.2927 7.02781 13.3264 7.02359 13.3896C7.01097 13.4822 6.98149 13.5412 6.93096 13.5789C6.87509 13.612 6.81032 13.6267 6.7457 13.6211C6.66148 13.6211 6.60675 13.5537 6.57727 13.4527C6.54059 13.3226 6.52355 13.1877 6.52675 13.0527C6.52662 12.9968 6.5404 12.9417 6.56687 12.8924C6.59332 12.8431 6.63163 12.8013 6.67833 12.7706C6.7499 12.7159 6.83832 12.6905 6.90149 12.6822C6.90149 12.6484 6.90569 12.6105 6.91833 12.5768C6.94668 12.4915 6.99421 12.4136 7.05728 12.3495C7.07011 12.3381 7.08424 12.3282 7.09938 12.32ZM6.95622 12.5895C6.94462 12.6233 6.9403 12.6591 6.94359 12.6947V12.7159H6.92675C6.84525 12.725 6.76721 12.7539 6.69937 12.8C6.65729 12.8271 6.62285 12.8647 6.59927 12.9089C6.57569 12.9531 6.56377 13.0025 6.56463 13.0527C6.56463 13.2084 6.58147 13.3474 6.61095 13.44C6.64464 13.5369 6.69096 13.5832 6.7457 13.5832C6.81307 13.5832 6.8678 13.5748 6.90569 13.5452C6.9478 13.52 6.97306 13.4695 6.98149 13.3853C6.98345 13.3539 6.99442 13.3236 7.01309 13.2983C7.03174 13.2729 7.05732 13.2534 7.08675 13.2422C7.11883 13.2293 7.1533 13.2236 7.18781 13.2252C7.15834 13.1664 7.12043 13.0611 7.12043 12.9558C7.12043 12.9137 7.13728 12.8715 7.15412 12.8295C7.17518 12.7874 7.19623 12.7453 7.22571 12.7116V12.7031L7.29307 12.5979C7.30871 12.568 7.31735 12.5349 7.31833 12.5011C7.3205 12.4767 7.3162 12.4522 7.30584 12.4299C7.2955 12.4079 7.27947 12.3888 7.25939 12.3747C7.22375 12.3538 7.18281 12.3436 7.14149 12.3453C7.13728 12.3453 7.12886 12.3453 7.12043 12.3537C7.10824 12.3608 7.09693 12.3692 7.08675 12.379C7.02925 12.4387 6.98606 12.5106 6.96044 12.5895H6.95622Z" fill="black"/>
<path d="M14.5605 15.9082C14.5605 16.5061 13.3816 16.603 12.7921 16.5778C9.12464 16.5778 7.9541 12.6029 7.9541 10.8514C7.9541 9.44922 8.40463 8.29551 8.6278 7.89551H14.1605C14.3795 8.18603 14.8174 9.0829 14.8174 10.3587C14.8174 11.9503 14.1605 13.9588 14.1605 14.5272C14.1605 15.0999 14.5605 15.3567 14.5605 15.9082Z" fill="url(#paint6_linear_328_36766)"/>
<path d="M8.58182 7.81885H14.203L14.224 7.84832C14.4555 8.15148 14.8977 9.06939 14.8977 10.3579C14.8977 11.1621 14.7293 12.0715 14.5651 12.8421L14.4472 13.3978C14.405 13.5663 14.3714 13.7305 14.3419 13.8778C14.2787 14.1726 14.2409 14.3958 14.2409 14.5305C14.2409 14.7958 14.3334 14.9853 14.4303 15.1916L14.4346 15.2C14.5356 15.4021 14.6367 15.6168 14.6367 15.9074C14.6367 16.0842 14.5483 16.2274 14.4135 16.3284C14.2642 16.4348 14.0954 16.5107 13.9166 16.5516C13.5377 16.6484 13.0914 16.6695 12.7925 16.6527C10.9229 16.6527 9.69343 15.6421 8.93129 14.4084C8.28024 13.3327 7.91767 12.1073 7.87864 10.8504C7.87864 9.43151 8.32917 8.26938 8.56076 7.86095L8.58182 7.81885ZM8.67444 7.97464C8.45129 8.3957 8.03443 9.5073 8.03443 10.8504C8.03443 11.7094 8.32497 13.1285 9.06604 14.3284C9.80709 15.5242 10.9945 16.4968 12.7925 16.4968H12.7966C13.0872 16.5096 13.5209 16.4926 13.8787 16.4001C14.0556 16.3537 14.2114 16.2905 14.3166 16.2063C14.4218 16.1221 14.4808 16.0252 14.4808 15.9074C14.4808 15.6547 14.3882 15.4652 14.2914 15.2589C14.163 15.0369 14.0908 14.7869 14.0809 14.5305C14.0809 14.3747 14.123 14.1347 14.1861 13.8442C14.2579 13.4981 14.3338 13.1528 14.4135 12.8084C14.5735 12.0379 14.7377 11.1453 14.7377 10.3579C14.7377 9.14097 14.3377 8.28201 14.123 7.97464H8.67444ZM6.71231 13.3094C6.62811 13.2758 6.56494 13.2 6.53125 13.141L6.56494 13.12C6.59442 13.1747 6.65336 13.2463 6.72495 13.2758C6.76284 13.2926 6.80073 13.2969 6.83863 13.2926C6.88885 13.2812 6.93439 13.2548 6.96916 13.2169L6.99863 13.2421C6.95786 13.285 6.90497 13.3143 6.84705 13.3263C6.80146 13.3342 6.75454 13.3284 6.71231 13.3094ZM6.71652 13.499C6.65332 13.4838 6.59611 13.4501 6.55231 13.4021L6.58178 13.3726C6.61125 13.4105 6.666 13.4484 6.72073 13.4568C6.7502 13.4652 6.77968 13.4652 6.80495 13.4526C6.84009 13.4366 6.86948 13.4101 6.88916 13.3768L6.91863 13.3978C6.89639 13.4378 6.86264 13.4701 6.82179 13.4905C6.78837 13.5039 6.75165 13.5069 6.71652 13.499Z" fill="black"/>
<path d="M14.8978 14.1739C14.9737 14.0476 14.9568 13.677 14.9358 13.5087L15.1926 13.3486C15.2138 13.4034 15.3022 13.5592 15.4874 13.7613C15.6811 13.9676 15.6558 14.1234 15.6222 14.1739C15.6305 14.2876 15.5379 14.3634 15.479 14.3929C15.441 14.5108 15.34 14.5908 15.2727 14.6287C15.2221 14.8098 15.1421 14.8645 15.1126 14.8645C15.0747 14.8645 15.0369 14.8434 15.0369 14.7466C15.0369 14.6497 15.1548 14.4307 15.1548 14.1992C14.9568 14.6076 14.7168 14.5318 14.7168 14.4518C14.7168 14.3718 14.8011 14.3339 14.8978 14.1739Z" fill="#B9BDC0"/>
<path d="M15.2006 13.3188L15.2133 13.3441C15.2301 13.3905 15.3143 13.5462 15.508 13.7485C15.6932 13.9505 15.6807 14.1147 15.6428 14.1821C15.6428 14.2957 15.5585 14.3757 15.4954 14.4052C15.4532 14.5231 15.3607 14.6032 15.2891 14.641C15.2725 14.7082 15.2425 14.7713 15.2006 14.8263C15.1874 14.8426 15.1717 14.8567 15.1544 14.8685C15.1424 14.8781 15.1276 14.8841 15.1122 14.8853C15.0994 14.8857 15.0868 14.8833 15.0752 14.8782C15.0635 14.8732 15.0531 14.8655 15.0448 14.8557C15.0238 14.8347 15.0153 14.7968 15.0153 14.7463C15.0279 14.6898 15.0419 14.6336 15.0575 14.5778L15.0743 14.5148C15.0954 14.4473 15.1164 14.3673 15.129 14.2873C15.0406 14.4389 14.9438 14.5063 14.868 14.5273C14.829 14.5389 14.7871 14.5359 14.75 14.5189C14.7206 14.5063 14.6953 14.481 14.6953 14.4516C14.6953 14.4052 14.7206 14.3673 14.7543 14.3294L14.7712 14.3085C14.8007 14.2747 14.8385 14.2284 14.8807 14.1652C14.9011 14.1259 14.914 14.083 14.9186 14.0389C14.9355 13.8625 14.9355 13.6849 14.9186 13.5084L14.9144 13.4957L15.2048 13.3188H15.2006ZM15.3017 14.5863C15.3648 14.5442 15.428 14.4768 15.4575 14.3841C15.4694 14.3445 15.4734 14.3029 15.4691 14.2617C15.4647 14.2204 15.4521 14.1805 15.4322 14.1441L15.4701 14.1273C15.5122 14.2116 15.5206 14.2831 15.508 14.3505C15.5585 14.3168 15.6048 14.2578 15.6006 14.1778C15.5967 14.1324 15.5808 14.0888 15.5543 14.0515L15.588 14.0263L15.626 14.1021C15.63 14.0305 15.6091 13.9168 15.4744 13.7737C15.3059 13.5926 15.2174 13.4452 15.1838 13.3778L14.9564 13.5168C14.9728 13.6918 14.9728 13.8681 14.9564 14.0432C14.9516 14.0931 14.9374 14.1417 14.9144 14.1863C14.8722 14.2536 14.8301 14.3 14.8007 14.3337L14.7838 14.3547C14.7543 14.3969 14.7375 14.4179 14.7375 14.4516C14.7375 14.4599 14.7459 14.4726 14.767 14.4853C14.788 14.4936 14.8175 14.4978 14.8554 14.4853C14.9312 14.4684 15.0364 14.3926 15.1375 14.1905L15.1754 14.1946C15.1754 14.3168 15.1417 14.4305 15.1122 14.5316L15.0954 14.5905L15.07 14.6579C15.0608 14.6865 15.055 14.7162 15.0532 14.7463C15.0532 14.7926 15.066 14.8178 15.0743 14.8305C15.0828 14.8389 15.0954 14.8431 15.1164 14.8431L15.1332 14.8347C15.146 14.8251 15.1574 14.8138 15.1669 14.801C15.1964 14.7673 15.2301 14.7126 15.2512 14.6242C15.2764 14.54 15.2932 14.4263 15.2932 14.2747H15.3353C15.3353 14.4009 15.3185 14.5063 15.3017 14.5863Z" fill="black"/>
<path d="M13.866 17.5999C14.0091 17.2378 14.0049 16.1472 13.9838 15.6504L13.508 15.8062C13.5544 15.8819 13.647 16.101 13.647 16.4167C13.647 16.8126 13.4912 17.4231 13.4702 17.5789C13.4491 17.7346 13.5712 17.7346 13.647 17.7346C13.7312 17.7346 13.807 17.6756 13.866 17.5999Z" fill="url(#paint7_linear_328_36766)"/>
<path d="M14.0056 15.6215L13.4792 15.7983L13.492 15.8193C13.5341 15.8868 13.6308 16.1057 13.6308 16.4172C13.6308 16.6152 13.5888 16.8636 13.5467 17.0825L13.4962 17.3477C13.4813 17.4249 13.4672 17.502 13.454 17.5794C13.4456 17.6215 13.4498 17.6509 13.4624 17.6805C13.4709 17.7057 13.492 17.7226 13.513 17.7352C13.5551 17.7563 13.6098 17.7563 13.6477 17.7563C13.7362 17.7563 13.8204 17.6931 13.8836 17.613V17.6047C13.9256 17.5121 13.9508 17.3773 13.9677 17.2131C13.9888 17.053 14.0015 16.8678 14.0098 16.6783C14.0224 16.2994 14.014 15.8994 14.0098 15.6509L14.0056 15.6257V15.6215ZM13.9677 15.6762C13.9813 16.1875 13.9672 16.6992 13.9256 17.2088C13.9088 17.3689 13.8836 17.5036 13.8499 17.5878C13.7909 17.6637 13.7193 17.7141 13.6477 17.7141C13.6056 17.7141 13.5636 17.7141 13.5341 17.7014C13.5164 17.6929 13.5028 17.6778 13.4962 17.6594C13.4885 17.6349 13.487 17.6088 13.492 17.5836C13.5032 17.5073 13.5172 17.4315 13.5341 17.3562L13.5888 17.0909C13.6308 16.872 13.673 16.6193 13.673 16.4172C13.673 16.1225 13.5888 15.912 13.5382 15.8193L13.9677 15.6762ZM6.67076 12.9478C6.6548 12.8987 6.64628 12.8477 6.64551 12.7962H6.68762C6.68762 12.8341 6.69182 12.8804 6.70867 12.9351C6.72551 12.9814 6.74656 13.0278 6.78025 13.0614C6.84761 13.0025 6.90656 12.9856 6.9613 12.9982C7.02026 13.011 7.05814 13.0487 7.0792 13.0825L7.04551 13.1035C7.02463 13.0698 6.99138 13.0456 6.95289 13.0362C6.9192 13.0278 6.86867 13.0362 6.80972 13.0909C6.83077 13.1119 6.85604 13.1246 6.88972 13.133L6.8813 13.1709C6.83875 13.1596 6.79968 13.1378 6.76761 13.1077C6.72232 13.0635 6.68901 13.0084 6.67076 12.9478ZM11.5466 12.3036C10.8283 12.2626 10.135 12.0252 9.5424 11.6172C9.77819 12.2487 10.4856 13.5078 11.4077 13.5078C12.3256 13.5078 12.9319 12.2446 13.134 11.6761C12.9614 11.8656 12.3719 12.3077 11.5466 12.3077V12.3036Z" fill="black"/>
<path d="M9.43604 11.5034L9.57499 11.5666C9.73494 11.6803 10.0256 11.8487 10.375 11.9918C10.7288 12.1349 11.1413 12.2445 11.5456 12.2445C12.2361 12.2445 12.6824 11.9329 13.2171 11.5877C13.1204 11.8739 12.8803 12.4466 12.5856 12.8382C12.2909 13.2298 11.895 13.5666 11.4066 13.5666C10.9181 13.5666 10.4972 13.2298 10.1729 12.834C9.88497 12.4724 9.65349 12.0692 9.48656 11.6381L9.43604 11.5034ZM9.66765 11.7687C9.79389 12.0634 10.0044 12.4424 10.2655 12.7582C10.5813 13.1498 10.9728 13.4487 11.4024 13.4487C11.836 13.4487 12.2025 13.154 12.4929 12.7708C12.6942 12.4961 12.8611 12.1977 12.9897 11.8824C12.5725 12.1934 12.066 12.3618 11.5456 12.3624C11.1244 12.3624 10.695 12.2486 10.3329 12.1013C10.0676 11.9961 9.83604 11.8739 9.66765 11.7687Z" fill="black"/>
<path d="M11.4067 13.4497C11.0698 13.4497 10.792 13.277 10.6909 13.1927C10.7161 13.1002 10.8172 12.9149 11.0067 12.9149C11.2004 12.9149 11.3267 13.0622 11.3646 13.1338C11.3898 13.0496 11.5077 12.877 11.7604 12.877C12.013 12.877 12.1983 12.9823 12.2573 13.0328C12.1141 13.1717 11.7393 13.4497 11.4067 13.4497Z" fill="#C92327"/>
<path d="M11.5457 12.3045C12.0257 12.3045 12.4131 12.1782 12.6867 12.0308C12.6994 12.0434 12.6994 12.0561 12.6952 12.0729C12.5772 12.3255 12.2572 12.7382 11.4236 12.7382C10.3625 12.7382 10.0172 12.1613 9.9751 11.8877C10.4635 12.1403 10.9815 12.3087 11.5457 12.3087V12.3045Z" fill="#F1F5FF"/>
<path d="M14.4009 11.9331C14.2746 11.9331 14.1062 12.1142 14.043 12.2069C14.4726 12.5454 14.7788 13.0159 14.9147 13.5458C14.9903 13.5122 15.1462 13.4278 15.1925 13.3479C15.0156 12.5606 14.561 11.9331 14.4009 11.9331Z" fill="url(#paint8_linear_328_36766)"/>
<path d="M14.0718 12.202C14.4904 12.5376 14.7912 12.9977 14.9308 13.5157L15.0529 13.4483C15.1034 13.4146 15.1498 13.3767 15.1708 13.343C15.09 12.9944 14.9551 12.6605 14.7708 12.3536C14.695 12.2272 14.6192 12.1262 14.5519 12.0588C14.5242 12.0274 14.4931 11.9992 14.4592 11.9746C14.434 11.9577 14.4172 11.9494 14.4003 11.9494C14.3674 11.9512 14.3356 11.9612 14.3076 11.9788L14.2108 12.0504C14.1599 12.0964 14.1133 12.1472 14.0718 12.202ZM14.2908 11.9452C14.324 11.9251 14.3616 11.9135 14.4003 11.9115C14.4256 11.9115 14.455 11.924 14.4844 11.9452C14.514 11.962 14.5434 11.9914 14.5813 12.0293C14.6488 12.1008 14.7287 12.2062 14.8044 12.3325C14.9645 12.5936 15.1245 12.9473 15.213 13.343V13.3599C15.1835 13.402 15.1287 13.4441 15.074 13.4821L14.9224 13.5662L14.9013 13.5746L14.8971 13.5493C14.7614 13.024 14.4567 12.5579 14.0298 12.223L14.0171 12.2104L14.0256 12.1935C14.0592 12.1515 14.1182 12.0799 14.1855 12.0209C14.2192 11.9914 14.2529 11.962 14.2908 11.9452ZM9.44442 11.5283C9.36442 11.5325 9.29283 11.5578 9.25073 11.5746L9.23389 11.5408C9.28021 11.5199 9.3602 11.4946 9.44442 11.4861C9.52863 11.482 9.62546 11.4861 9.70966 11.5408L9.68864 11.5746C9.61402 11.5342 9.52866 11.518 9.44442 11.5283ZM13.1539 11.6209C13.0697 11.6209 13.0024 11.6462 12.9603 11.663L12.9435 11.6293C12.9855 11.6083 13.0655 11.5872 13.1539 11.5788C13.2382 11.5704 13.335 11.5788 13.4191 11.6335L13.3982 11.6672C13.3239 11.6254 13.2386 11.6076 13.1539 11.6167V11.6209ZM11.0992 11.4399C11.0654 11.3472 11.0697 11.2293 11.0866 11.1577L11.1286 11.1661C11.1118 11.2378 11.1034 11.343 11.1371 11.4272C11.1497 11.4693 11.1791 11.5072 11.2128 11.5325C11.2466 11.5578 11.297 11.5746 11.3644 11.5746C11.4318 11.5708 11.4956 11.544 11.5455 11.4988C11.6045 11.4524 11.655 11.3809 11.6844 11.2968L11.7223 11.3093C11.6886 11.3977 11.6339 11.4778 11.5707 11.5283C11.5136 11.579 11.4408 11.6087 11.3644 11.6125C11.3021 11.6162 11.2402 11.6 11.1876 11.5662C11.1462 11.5339 11.1153 11.4899 11.0992 11.4399Z" fill="black"/>
<path d="M16.3413 9.63007C16.0592 8.76269 15.0739 8.18583 14.6991 8.11426L13.8823 8.19425C14.0507 8.40479 14.4423 8.98164 14.695 9.62586C15.0319 11.7311 16.7792 12.0091 17.0361 12.0091C17.2929 12.0091 17.234 11.9922 17.4571 11.9122C16.4424 11.8323 16.6992 10.7122 16.3413 9.63007Z" fill="url(#paint9_linear_328_36766)"/>
<path d="M14.6991 8.05469H14.7075C14.9096 8.09678 15.2549 8.26521 15.5918 8.52628C15.9286 8.79154 16.2527 9.16207 16.4001 9.60838C16.4886 9.88629 16.5433 10.1642 16.5855 10.421L16.6107 10.5852C16.6402 10.7831 16.6696 10.9642 16.7118 11.1326C16.7623 11.3432 16.8339 11.5116 16.9475 11.6336C17.057 11.7558 17.2171 11.8357 17.457 11.8527L17.4739 11.9663L17.356 12.0126L17.3433 12.0211L17.2801 12.0463C17.2004 12.0665 17.118 12.0737 17.036 12.0674C16.6175 12.0324 16.2148 11.8919 15.8654 11.6589C15.5275 11.4314 15.2429 11.1332 15.0314 10.785C14.8198 10.4368 14.6864 10.0469 14.6402 9.64207C14.4353 9.13811 14.1664 8.66261 13.8402 8.22731L13.7686 8.14311L14.6991 8.05469ZM13.9959 8.23995C14.1854 8.501 14.5265 9.02734 14.7538 9.60838V9.62103C14.7982 10.0101 14.9264 10.3848 15.13 10.7192C15.3337 11.0537 15.6076 11.3399 15.9328 11.5579C16.4296 11.8864 16.9181 11.9495 17.036 11.9495C17.1623 11.9495 17.2044 11.9495 17.2381 11.9368C17.078 11.8947 16.956 11.8189 16.8591 11.7137C16.7243 11.5705 16.6486 11.3768 16.5939 11.162C16.5517 10.9895 16.5223 10.8 16.4928 10.5979L16.4675 10.4421C16.4254 10.1811 16.3749 9.91156 16.2865 9.64629C16.1328 9.23736 15.8655 8.88089 15.5159 8.6189C15.2754 8.41588 14.9961 8.26401 14.6949 8.17259L13.9959 8.23995Z" fill="black"/>
<path d="M14.5863 8.93459C14.7546 8.82091 15.0999 8.70722 15.5042 8.91354L15.5589 8.80828C15.385 8.70939 15.1856 8.66459 14.9861 8.67959C14.7866 8.69458 14.5961 8.76871 14.4389 8.89248L14.3252 8.99775H14.4684L14.5104 9.02723C14.6924 9.13724 14.8655 9.26112 15.0284 9.39776C15.0284 9.62092 15.0704 10.1009 15.2599 10.442L15.3652 10.3873C15.2336 10.1119 15.1606 9.81226 15.1505 9.50724C15.2262 9.58303 15.2852 9.65461 15.3189 9.71776C15.366 9.80581 15.4096 9.89571 15.4494 9.98725L15.5505 10.2104C15.6346 10.3831 15.74 10.5599 15.8874 10.6946L15.9715 10.6104C15.8408 10.4808 15.7351 10.328 15.6599 10.1598C15.6221 10.0883 15.5926 10.0125 15.5589 9.94093L15.542 9.89882L15.4705 9.74723C15.5884 9.75566 15.782 9.80198 15.9926 9.95356L16.06 9.85672C15.8707 9.71244 15.641 9.63143 15.4031 9.62514C15.3442 9.52829 15.2347 9.42302 15.1253 9.33039C14.9552 9.18581 14.7751 9.05356 14.5863 8.93459Z" fill="black"/>
<path d="M7.93251 5.96729C7.18724 5.96729 7.05671 6.49361 7.08196 6.75466C7.08196 7.23047 8.19356 9.33575 11.562 9.33575C14.9347 9.33575 15.9453 7.18835 15.9453 6.64098C15.9453 6.42203 15.8274 5.96729 15.0358 5.96729C14.24 5.96729 12.6947 6.64098 11.562 6.64098C10.4336 6.64098 8.86726 5.96729 7.93251 5.96729Z" fill="url(#paint10_linear_328_36766)"/>
<path d="M7.28473 6.31169C7.17525 6.45484 7.14998 6.63168 7.15841 6.74958V6.75379C7.15841 6.85064 7.22156 7.05696 7.37735 7.31802C7.52894 7.57065 7.76894 7.87382 8.11 8.16013C8.79211 8.73278 9.89529 9.25488 11.5627 9.25488C13.2301 9.25488 14.308 8.72434 14.9649 8.13487C15.2479 7.88338 15.4845 7.58408 15.6638 7.25064C15.8111 6.98116 15.8658 6.75801 15.8658 6.6359C15.8658 6.54326 15.8406 6.39589 15.7312 6.27379C15.6218 6.15589 15.4154 6.04641 15.0365 6.04641C14.8469 6.04641 14.6069 6.08852 14.3332 6.14747L13.6133 6.33273L13.4449 6.37485C12.8216 6.54327 12.1396 6.7159 11.5627 6.7159C10.9859 6.7159 10.2995 6.54747 9.65527 6.37905L9.57107 6.358C9.03844 6.19334 8.48905 6.08883 7.93316 6.04641C7.58368 6.04641 7.38578 6.17273 7.28051 6.31169H7.28473ZM7.15841 6.21484C7.29735 6.02957 7.53736 5.89062 7.93316 5.89062C8.38789 5.89062 8.98581 6.0422 9.59634 6.2022L9.69319 6.22748C10.3458 6.3959 11.0111 6.56011 11.5627 6.56011C12.246 6.52348 12.9214 6.39605 13.5711 6.18115C13.8238 6.11378 14.0721 6.04641 14.2996 5.99588C14.5407 5.93464 14.7878 5.89935 15.0365 5.89062C15.4449 5.89062 15.6974 6.00852 15.8449 6.16852C15.9922 6.32852 16.0259 6.518 16.0259 6.6359C16.0259 6.79169 15.9585 7.04432 15.807 7.32644C15.6189 7.67576 15.3709 7.9893 15.0743 8.25276C14.3838 8.86751 13.268 9.41068 11.5627 9.41068C9.86159 9.41068 8.72054 8.88015 8.00894 8.28224C7.70446 8.03266 7.44399 7.73377 7.2384 7.39801C7.11084 7.20606 7.03008 6.98685 7.00261 6.75801C6.98553 6.56455 7.03941 6.37149 7.1542 6.21484H7.15841Z" fill="black"/>
<path fill-rule="evenodd" clip-rule="evenodd" d="M8.77152 9.54968L8.03467 8.84229L8.41362 9.54968V10.0423L10.4684 10.9687L11.4452 10.316L12.4221 10.9687L14.4769 10.0423V9.54968L14.8558 8.84229L14.119 9.54968L11.862 9.70547L11.8031 9.86546H11.0874L11.0284 9.70547L8.77152 9.54968ZM11.1169 9.94547L11.2053 10.1813L11.4452 10.0423L11.6852 10.1813L11.7736 9.94547H11.1169Z" fill="url(#paint11_linear_328_36766)"/>
<path d="M10.729 4.08086C9.7942 4.08086 9.49529 6.03458 9.46582 7.01144C9.6763 7.2346 10.3753 7.68513 11.4869 7.68513C12.5942 7.68513 13.3395 7.26407 13.5669 7.05355L13.5458 6.22406C13.529 4.23665 12.7754 4.07666 12.5143 4.07666C12.2617 4.07666 12.0974 4.27455 11.6427 4.27455C11.188 4.27455 11.3269 4.08086 10.7332 4.08086H10.729Z" fill="url(#paint12_linear_328_36766)"/>
<path d="M10.729 4.08086C9.7942 4.08086 9.49529 6.03458 9.46582 7.01144C9.6763 7.2346 10.3753 7.68513 11.4869 7.68513C12.5942 7.68513 13.3395 7.26407 13.5669 7.05355L13.5458 6.22406C13.529 4.23665 12.7754 4.07666 12.5143 4.07666C12.2617 4.07666 12.0974 4.27455 11.6427 4.27455C11.188 4.27455 11.3269 4.08086 10.7332 4.08086H10.729Z" fill="url(#paint13_linear_328_36766)"/>
<path d="M9.54136 6.98111C9.76447 7.19163 10.434 7.60006 11.4824 7.60006C12.535 7.60006 13.2425 7.2211 13.4867 7.01479L13.4657 6.22319C13.4572 5.23792 13.2677 4.72423 13.0573 4.45475C12.8551 4.18948 12.6277 4.16 12.5141 4.16C12.4213 4.16 12.3457 4.18948 12.2362 4.22737L12.1813 4.25264C11.9229 4.35436 11.6404 4.3778 11.3688 4.32001C11.3102 4.30231 11.2537 4.27831 11.2004 4.24843C11.15 4.22063 11.0961 4.1994 11.0403 4.18527C10.9729 4.16843 10.872 4.15579 10.733 4.15579C10.5267 4.15579 10.354 4.26106 10.2025 4.45053C10.0351 4.67776 9.90968 4.93299 9.83187 5.20424C9.64245 5.79372 9.56241 6.49688 9.54136 6.98111ZM10.0803 4.34948C10.2487 4.13895 10.4635 4 10.7288 4C10.8845 4 10.994 4.01263 11.0782 4.03369C11.1624 4.05474 11.2256 4.08 11.2761 4.10527L11.2972 4.1179C11.3392 4.13895 11.3688 4.15579 11.415 4.16843C11.4656 4.18527 11.5329 4.1979 11.6424 4.1979C11.8572 4.1979 12.0004 4.15159 12.1266 4.10527L12.1773 4.08422C12.2825 4.04211 12.3877 4 12.5141 4C12.6614 4 12.9436 4.04632 13.1835 4.35791C13.4235 4.66528 13.6173 5.22108 13.6256 6.22319L13.6467 7.08636L13.6214 7.10742C13.373 7.33058 12.6109 7.76007 11.4824 7.76007C10.354 7.76007 9.62977 7.30532 9.4024 7.06531L9.38135 7.04005V7.01058C9.3982 6.51372 9.4824 5.77267 9.68028 5.15792C9.76408 4.86663 9.89956 4.59278 10.0803 4.34948Z" fill="black"/>
<path d="M11.3141 4.76301C11.1597 4.66018 10.9774 4.60727 10.792 4.61142V4.56933C10.8846 4.56511 11.1288 4.58617 11.3394 4.73354C11.4026 4.77563 11.4488 4.81354 11.4825 4.84301L11.5162 4.87249L11.5583 4.90617C11.5794 4.923 11.5962 4.93144 11.6173 4.93564C11.6426 4.94406 11.672 4.94406 11.7226 4.94406C11.7646 4.94406 11.8152 4.923 11.8741 4.88933L12.0005 4.80091L12.0552 4.75879C12.1857 4.67038 12.3414 4.57354 12.5183 4.57354V4.61142C12.3542 4.61142 12.2109 4.69985 12.0804 4.79248L12.0299 4.83038L11.8951 4.923C11.8541 4.95201 11.8071 4.97158 11.7577 4.98032C11.7082 4.98905 11.6574 4.98674 11.6089 4.97353C11.5814 4.96804 11.5555 4.95654 11.533 4.93986C11.5186 4.92628 11.5045 4.91224 11.491 4.89775L11.4573 4.87249C11.4114 4.83351 11.3638 4.79696 11.3141 4.76301Z" fill="black"/>
<path d="M10.1771 14.8043C8.92238 14.4127 8.54344 13.7601 8.50975 13.4863C8.45401 13.6042 8.4198 13.7311 8.40869 13.8611C8.40869 14.8043 9.77714 15.2927 10.5561 15.3559C11.3266 15.4148 11.7014 15.5707 11.7814 15.6716C11.7814 16.2401 11.2845 17.0275 11.2087 17.1875C11.2087 17.8485 11.3013 18.2612 11.3477 18.3875C11.4319 18.2276 11.6003 17.8401 11.6003 17.5412C11.6003 17.1623 11.7014 16.9096 11.7814 16.7117C12.0972 17.8907 12.6151 18.1686 12.775 18.2485C12.775 17.4023 12.1603 16.1012 12.0804 15.9075C12.2993 15.8064 12.3751 15.6296 12.3751 15.5328C14.3794 15.3179 14.2994 14.3116 14.2994 14.2148C14.2994 14.1138 14.2994 14.0548 14.2404 13.9791C13.7772 14.8127 12.7667 15.1538 12.3161 15.217C12.3119 15.1748 12.2529 15.0991 12.0804 15.0991C11.9035 15.0991 11.6887 15.2295 11.6045 15.2969C11.4909 15.2507 11.0488 15.0864 10.173 14.8043H10.1771Z" fill="url(#paint14_linear_328_36766)"/>
<path d="M8.5311 13.3423L8.54794 13.4813C8.58162 13.7339 8.94373 14.3739 10.1901 14.7655C11.0153 15.0349 11.4532 15.1949 11.5964 15.2497C11.6428 15.2161 11.7143 15.1739 11.7901 15.136C11.8785 15.0939 11.9838 15.0602 12.0807 15.0602C12.2322 15.0602 12.3122 15.1149 12.3417 15.1739C12.6614 15.1144 12.9696 15.005 13.2554 14.8497C13.6516 14.6496 13.9819 14.3397 14.207 13.957L14.2365 13.9065L14.2743 13.9529C14.308 13.9949 14.3249 14.0371 14.3333 14.0792C14.3417 14.1213 14.3417 14.1633 14.3417 14.2097V14.2223C14.3417 14.2981 14.3459 14.5677 14.1228 14.8539C13.8828 15.1486 13.3985 15.4561 12.4133 15.5697C12.397 15.6466 12.363 15.7185 12.314 15.7799C12.2651 15.8413 12.2024 15.8904 12.1312 15.9234L12.1648 15.9992C12.2364 16.1676 12.3669 16.4708 12.4932 16.8202C12.6575 17.275 12.8132 17.8181 12.8132 18.2477V18.3108L12.7543 18.2814C12.6701 18.2392 12.5017 18.1508 12.308 17.9192C12.0592 17.5986 11.8785 17.2302 11.7775 16.8371C11.71 17.014 11.6428 17.2371 11.6428 17.5403C11.6428 17.6961 11.6006 17.873 11.5459 18.0287C11.4912 18.1845 11.4238 18.3234 11.3775 18.4076L11.3353 18.4792L11.3101 18.3992C11.202 18.0044 11.1538 17.5957 11.1669 17.1866V17.1739L11.1711 17.1656L11.2301 17.0602L11.2974 16.9423C11.3523 16.8371 11.4238 16.7066 11.4869 16.5634C11.6175 16.2854 11.7396 15.9571 11.7396 15.6834C11.712 15.6581 11.6807 15.6367 11.647 15.6202C11.5724 15.5854 11.4949 15.5573 11.4153 15.5361C11.2175 15.4771 10.9354 15.4224 10.548 15.3929C10.065 15.3484 9.59633 15.205 9.17111 14.9718C8.72899 14.7192 8.37109 14.3529 8.37109 13.8602C8.38608 13.7256 8.42011 13.5937 8.47215 13.4686L8.5311 13.3423ZM8.48899 13.6623C8.46793 13.7296 8.44688 13.8013 8.44688 13.8602C8.44688 14.3107 8.77531 14.6603 9.21321 14.9044C9.64273 15.1486 10.1733 15.2833 10.5564 15.317C10.9437 15.3465 11.2343 15.4013 11.4407 15.4602C11.5416 15.4897 11.6216 15.5191 11.6848 15.5529C11.7437 15.5823 11.7901 15.6118 11.8112 15.6455L11.8238 15.6539V15.6707C11.8238 15.9655 11.6975 16.3108 11.5586 16.5971C11.4912 16.7445 11.4238 16.875 11.3648 16.9802L11.2974 17.1024L11.2469 17.195C11.2469 17.7297 11.3101 18.1003 11.3564 18.2814C11.39 18.2055 11.4322 18.1087 11.4701 18.0035C11.5248 17.8476 11.5627 17.6835 11.5627 17.5403C11.5627 17.1614 11.6638 16.8961 11.7437 16.6981L11.7859 16.5886L11.8196 16.7023C11.9796 17.2918 12.1859 17.6455 12.3669 17.8687C12.5143 18.0414 12.6448 18.134 12.7333 18.1803C12.7164 17.7761 12.5732 17.2792 12.4174 16.8454C12.2912 16.5002 12.1648 16.2013 12.0932 16.0329L12.0427 15.9192L12.0301 15.8855L12.0637 15.8687C12.27 15.7761 12.3375 15.616 12.3375 15.5318V15.4981L12.3712 15.4939C13.3691 15.3845 13.8364 15.0813 14.0554 14.8034C14.266 14.5424 14.266 14.2939 14.2617 14.2223V14.2139C14.2617 14.1633 14.2617 14.1297 14.2533 14.0961C14.2506 14.0816 14.2464 14.0674 14.2407 14.0539C14.0088 14.4231 13.6814 14.7228 13.2933 14.9213C12.9227 15.1192 12.5522 15.2244 12.3249 15.2581H12.2828L12.2785 15.2244C12.2785 15.2118 12.2448 15.1402 12.0807 15.1402C12.0007 15.1402 11.9123 15.1697 11.828 15.2076C11.7437 15.2497 11.668 15.2918 11.6259 15.3255L11.6091 15.3423L11.588 15.3339C11.4785 15.2876 11.0363 15.1234 10.1648 14.8413C9.05741 14.496 8.61952 13.9445 8.50162 13.616C8.49574 13.6313 8.49012 13.6468 8.48478 13.6623H8.48899Z" fill="black"/>
<defs>
<linearGradient id="paint0_linear_328_36766" x1="11.9903" y1="4.00057" x2="11.9903" y2="20.0008" gradientUnits="userSpaceOnUse">
<stop stop-color="#732417"/>
<stop offset="0.14" stop-color="#9F201D"/>
<stop offset="0.4" stop-color="#76100C"/>
<stop offset="0.63" stop-color="#AF2120"/>
<stop offset="0.88" stop-color="#691306"/>
</linearGradient>
<linearGradient id="paint1_linear_328_36766" x1="11.9903" y1="3.99944" x2="11.9903" y2="19.9996" gradientUnits="userSpaceOnUse">
<stop offset="0.49" stop-color="#D8D4D3"/>
<stop offset="1" stop-color="#A1A299"/>
</linearGradient>
<linearGradient id="paint2_linear_328_36766" x1="12.011" y1="4.00057" x2="12.011" y2="20.0008" gradientUnits="userSpaceOnUse">
<stop stop-color="#732417"/>
<stop offset="0.14" stop-color="#9F201D"/>
<stop offset="0.4" stop-color="#76100C"/>
<stop offset="0.63" stop-color="#AF2120"/>
<stop offset="0.88" stop-color="#691306"/>
</linearGradient>
<linearGradient id="paint3_linear_328_36766" x1="12.0008" y1="3.99944" x2="12.0008" y2="19.9996" gradientUnits="userSpaceOnUse">
<stop offset="0.49" stop-color="#D8D4D3"/>
<stop offset="1" stop-color="#A1A299"/>
</linearGradient>
<linearGradient id="paint4_linear_328_36766" x1="15.4111" y1="12.0167" x2="3.86603" y2="12.0167" gradientUnits="userSpaceOnUse">
<stop stop-color="#B78806"/>
<stop offset="0.4" stop-color="#EBB80B"/>
<stop offset="1" stop-color="#BA8E0B"/>
</linearGradient>
<linearGradient id="paint5_linear_328_36766" x1="12.7309" y1="9.56545" x2="17.7689" y2="26.1949" gradientUnits="userSpaceOnUse">
<stop stop-color="#B78806"/>
<stop offset="0.4" stop-color="#EBB80B"/>
</linearGradient>
<linearGradient id="paint6_linear_328_36766" x1="12.0003" y1="4.0007" x2="12.0003" y2="20.0021" gradientUnits="userSpaceOnUse">
<stop stop-color="#C7451D"/>
<stop offset="0.33" stop-color="#DCB127"/>
<stop offset="0.71" stop-color="#DBAD27"/>
<stop offset="1" stop-color="#BC3319"/>
</linearGradient>
<linearGradient id="paint7_linear_328_36766" x1="8.58835" y1="12.0159" x2="20.135" y2="12.0159" gradientUnits="userSpaceOnUse">
<stop stop-color="#B78806"/>
<stop offset="0.4" stop-color="#EBB80B"/>
<stop offset="1" stop-color="#BA8E0B"/>
</linearGradient>
<linearGradient id="paint8_linear_328_36766" x1="15.3894" y1="11.9796" x2="11.3605" y2="14.5842" gradientUnits="userSpaceOnUse">
<stop stop-color="#B78806"/>
<stop offset="0.4" stop-color="#EBB80B"/>
<stop offset="1" stop-color="#BA8E0B"/>
</linearGradient>
<linearGradient id="paint9_linear_328_36766" x1="13.9407" y1="10.3833" x2="9.2808" y2="13.1161" gradientUnits="userSpaceOnUse">
<stop stop-color="#114F0B"/>
<stop offset="0.51" stop-color="#298C0C"/>
<stop offset="1" stop-color="#154A01"/>
</linearGradient>
<linearGradient id="paint10_linear_328_36766" x1="12.0145" y1="5.78096" x2="11.7838" y2="19.9977" gradientUnits="userSpaceOnUse">
<stop stop-color="#743F1E"/>
<stop offset="0.53" stop-color="#AB6946"/>
<stop offset="1" stop-color="#552D17"/>
</linearGradient>
<linearGradient id="paint11_linear_328_36766" x1="17.1572" y1="10.8122" x2="6.52097" y2="10.7573" gradientUnits="userSpaceOnUse">
<stop offset="0.09" stop-color="#0C0B09"/>
<stop offset="0.27" stop-color="#5D635F"/>
<stop offset="0.43" stop-color="#020308"/>
<stop offset="0.58" stop-color="#030408"/>
<stop offset="0.73" stop-color="#5D625E"/>
<stop offset="0.9" stop-color="#05060A"/>
</linearGradient>
<linearGradient id="paint12_linear_328_36766" x1="6.82993" y1="12.7384" x2="17.5377" y2="12.9484" gradientUnits="userSpaceOnUse">
<stop stop-color="#743F1E"/>
<stop offset="0.41" stop-color="#A86644"/>
<stop offset="0.63" stop-color="#A96744"/>
<stop offset="1" stop-color="#552D17"/>
</linearGradient>
<linearGradient id="paint13_linear_328_36766" x1="12.0229" y1="6.27861" x2="11.8678" y2="18.5063" gradientUnits="userSpaceOnUse">
<stop stop-color="#743F1E"/>
<stop offset="0.47" stop-color="#A96744" stop-opacity="0"/>
<stop offset="0.66" stop-color="#9E603E" stop-opacity="0.13"/>
<stop offset="1" stop-color="#552D17"/>
</linearGradient>
<linearGradient id="paint14_linear_328_36766" x1="7.33998" y1="0.975812" x2="20.9835" y2="12.5258" gradientUnits="userSpaceOnUse">
<stop offset="0.3" stop-color="#DC0E11"/>
<stop offset="0.47" stop-color="#A0030D"/>
<stop offset="0.58" stop-color="#DD0E11"/>
<stop offset="0.69" stop-color="#9D020C"/>
<stop offset="0.75" stop-color="#DC0E11"/>
<stop offset="0.81" stop-color="#9A010B"/>
<stop offset="0.85" stop-color="#D40C10"/>
<stop offset="0.89" stop-color="#970007"/>
<stop offset="0.94" stop-color="#B50A35"/>
</linearGradient>
</defs>
</svg>
