<svg width="24" height="24" viewBox="0 0 24 24" fill="none" xmlns="http://www.w3.org/2000/svg">
<path d="M8.92522 19.1598C8.92522 19.1598 9.8052 18.5748 11.6853 18.5748C13.5603 18.5748 14.4403 19.1598 14.4403 19.1598C14.4403 19.1598 14.1852 19.4798 13.8753 19.5699C13.5652 19.6699 13.1553 19.5798 12.6402 19.9348C12.1252 20.2848 11.6853 20.2498 11.6853 20.2498C11.6853 20.2498 11.2402 20.2848 10.7252 19.9348C10.2153 19.5798 9.80018 19.6649 9.4902 19.5699C9.18021 19.4798 8.92522 19.1598 8.92522 19.1598ZM11.0302 6.4098C10.4952 6.37979 9.74022 6.43979 9.29022 6.28479C8.51523 6.01979 8.39022 5.75479 7.74022 5.88479C7.26022 5.98479 7.14521 6.34479 7.10022 6.71479C8.25522 6.51479 8.92022 6.77479 8.92022 6.77479C7.25522 6.9448 6.69522 7.37979 6.66022 7.4098C6.61617 7.4463 6.57892 7.4903 6.55021 7.53979C6.50022 7.6548 6.54021 7.6898 6.55021 7.90979C8.86021 7.22979 10.7003 7.7048 10.7003 7.7048C9.05838 7.70591 7.43564 8.05704 5.94022 8.7348L6.16021 9.4848C7.54521 8.99979 8.32522 9.3448 8.32522 9.3448C7.50021 9.53979 6.70022 9.83979 5.95521 10.2348L6.09521 10.5848C5.77522 10.8198 5.51022 11.7098 5.51022 11.7098C5.43021 11.2298 5.74521 10.5648 5.74521 10.5648C5.09521 10.6048 4.84521 11.2049 4.84521 11.6998C4.84521 12.1998 5.18021 12.7648 5.58022 13.1299C5.98021 13.4948 6.07022 13.8998 6.07022 13.8998C6.37022 13.0997 5.78521 13.0298 5.94521 12.0748C6.10522 11.1249 7.29022 10.6147 7.29022 10.6147C7.04522 10.5648 6.80022 10.5248 6.55021 10.5147C7.06022 10.4348 7.41522 9.6448 10.5702 11.6298C13.7252 13.6198 15.6802 11.6098 16.7302 10.9998C17.0403 11.2498 17.3652 11.6098 17.4452 12.0748C17.6052 13.0298 17.0152 13.0949 17.3203 13.8998C17.3203 13.8998 17.4102 13.4998 17.8103 13.1299C18.2102 12.7648 18.5453 12.1998 18.5453 11.6998C18.5453 11.1998 18.2953 10.5998 17.6452 10.5648C17.6452 10.5648 17.9602 11.2298 17.8803 11.7148C17.8803 11.7148 17.6052 10.7848 17.2803 10.5648L17.4503 10.1448L17.2902 10.0298C15.0402 8.7098 11.6853 8.7598 11.6853 8.7598C14.9353 8.4848 17.2353 9.49981 17.2353 9.49981L17.4253 8.7348L16.8352 8.4598C16.8352 8.4598 16.8603 7.90979 16.7652 7.7098C16.7103 7.59479 16.5403 7.47979 16.4152 7.40479C15.1902 6.88479 13.0853 6.77479 13.0853 6.77479C14.9602 6.60479 15.8902 6.71478 16.2653 6.78979C16.2003 6.4098 16.0302 5.83979 15.6102 5.75978C15.3996 5.7052 15.178 5.71039 14.9703 5.77479C14.8083 5.58585 14.6022 5.43985 14.3703 5.34978C14.0303 5.24979 13.5703 5.34479 13.0053 4.94979C12.4402 4.55979 11.9503 4.59979 11.9503 4.59979C11.9503 4.59979 11.4602 4.55979 10.8952 4.94979C10.3251 5.34479 9.87018 5.24979 9.53021 5.34978C9.19024 5.45478 8.90523 5.79979 8.90523 5.79979C8.90523 5.79979 9.59018 6.25979 11.0302 6.4098Z" fill="#03F5AE"/>
<path d="M11.6855 18.2709C11.6855 18.2709 10.0854 18.2759 9.31039 18.5409C8.53543 18.8059 8.41043 19.0759 7.76044 18.941C7.28043 18.8408 7.18042 18.4359 7.13542 18.0659C8.28543 18.2659 8.92043 17.9259 8.92043 17.9259C7.25543 17.7558 6.69543 17.3209 6.66043 17.2909C6.61592 17.2528 6.57865 17.2071 6.55042 17.1559C6.50043 17.0459 6.51542 16.9709 6.52543 16.7558C8.83542 17.4359 10.7004 16.9959 10.7004 16.9959C9.0586 16.9948 7.43585 16.6436 5.94043 15.9659L6.17043 15.1308C7.61043 15.4808 8.32043 15.3559 8.32043 15.3559C7.49549 15.1622 6.69893 14.8631 5.95043 14.4658L6.13542 14.0259C8.46543 14.9459 14.8954 14.9459 17.2305 14.0259L17.4504 14.5559L17.2904 14.6659C15.0405 15.9908 11.6855 15.9408 11.6855 15.9408C14.9355 16.2208 17.2354 15.2008 17.2354 15.2008L17.4255 15.9659L16.8354 16.2409C16.8354 16.2409 16.9104 16.9558 16.8155 17.1559C16.7555 17.2759 16.5904 17.3909 16.4655 17.4659C15.2405 17.9859 13.0855 17.9259 13.0855 17.9259C14.9604 18.0959 15.8754 18.1108 16.2505 18.0409C16.1855 18.4208 16.0355 18.8559 15.6104 18.941C14.9604 19.0759 14.8305 18.8108 14.0605 18.5409C13.2854 18.2759 11.6855 18.2709 11.6855 18.2709Z" fill="#03F5AE"/>
<path d="M8.19996 12.1748C8.19996 12.1748 7.89996 12.8698 8.48496 13.1447C9.06995 13.4247 10.535 13.2848 10.535 13.2848C10.535 13.2848 9.265 12.3748 8.19996 12.1748ZM15.4699 12.8897C15.4699 12.8897 15.585 13.4648 15.09 13.5897C14.5999 13.7098 13.5 13.3748 13.5 13.3748C13.5 13.3748 14.625 12.8748 15.4699 12.8897Z" fill="#03F5AE"/>
<path d="M17.5601 8.76952C17.5601 8.76952 19.16 8.83952 19.8401 9.20952C20.4301 9.52453 21 10.2596 21 10.2596C21 10.2596 20.16 10.5145 19.9 10.8095C19.6601 11.0845 19.61 11.2095 19.61 11.2095C19.61 11.2095 18.5001 9.99953 17.38 9.54952L17.5601 8.77453V8.76952ZM15.715 18.8296C15.715 18.8296 16.2651 19.2995 16.7601 19.4345C17.185 19.5495 17.8 19.4695 17.8 19.4695C17.8 19.4695 17.535 18.9695 17.5551 18.7196C17.575 18.4796 17.615 18.3996 17.615 18.3996C17.1451 18.3395 16.685 18.2145 16.25 18.0395L15.715 18.8296ZM5.83001 13.9246C5.83001 13.9246 5.48 14.6346 4.685 14.8396C3.995 15.0196 3 14.8895 3 14.8895C3 14.8895 3.43 14.1346 3.4 13.7445C3.36499 13.3895 3.305 13.2645 3.305 13.2645C3.305 13.2645 4.715 13.6995 5.365 13.2495L5.83001 13.9246ZM8.83001 5.73451C8.83001 5.73451 8.21001 5.29451 7.95501 4.83452C7.73501 4.43451 7.685 3.80451 7.685 3.80451C7.685 3.80451 8.27001 3.95451 8.53501 3.87951C8.78501 3.80451 8.86001 3.74951 8.86001 3.74951C8.86001 3.74951 8.755 4.6845 9.23506 5.34452L8.83501 5.73451H8.83001Z" fill="#03F5AE"/>
</svg>
