<svg width="24" height="24" viewBox="0 0 24 24" fill="none" xmlns="http://www.w3.org/2000/svg">
<path d="M11.6659 3H12.317C14.1302 3.06764 15.8816 3.67603 17.3462 4.74697C16.7665 4.98212 16.2666 5.37907 15.9062 5.89047C15.9025 5.89113 15.8988 5.89101 15.8951 5.89009C15.8914 5.88918 15.888 5.8875 15.8851 5.88517C15.6521 5.6734 15.3928 5.49342 15.0962 5.35578C14.4933 5.07922 13.8499 4.90052 13.1906 4.82639C12.7406 4.77345 12.3806 4.75227 12.1106 4.76286C11.8565 4.77874 11.5653 4.8052 11.2318 4.85286C10.9724 4.88991 10.7553 4.93756 10.57 5.00638L10.0194 5.18637C9.94001 5.21283 9.88715 5.26577 9.80772 5.27108C9.58538 5.28695 9.36832 5.28695 9.15128 5.324C8.49483 5.42459 7.86486 5.64164 7.25606 5.97516C7.11842 6.04927 6.9649 6.07575 6.81667 6.11809C6.71609 6.14456 6.6155 6.14986 6.50963 6.13398C6.34175 6.10957 6.18365 6.04005 6.0522 5.93283C5.92073 5.82561 5.82084 5.68472 5.76318 5.52518C5.94318 5.33989 6.14965 5.1546 6.38786 4.95873C7.7378 3.89995 9.26774 3.26469 10.9776 3.06881C11.2052 3.04234 11.4329 3.01588 11.6659 3Z" fill="#F2DB5A"/>
<path d="M5.76328 5.5253C5.90621 5.8747 6.15502 6.07587 6.50442 6.13409C6.61029 6.14999 6.71618 6.14469 6.82205 6.11821C6.965 6.07587 7.11851 6.0494 7.25615 5.97529C7.84513 5.64945 8.48652 5.42908 9.15137 5.32413C9.36841 5.28707 9.58547 5.28707 9.8025 5.2712C9.88724 5.2712 9.94011 5.21295 10.0142 5.1865C10.2048 5.13355 10.3848 5.07002 10.5701 5.00649C10.7849 4.93182 11.0066 4.87863 11.2319 4.84769C11.5654 4.80533 11.8566 4.77887 12.1106 4.76298C12.3807 4.7524 12.7406 4.77357 13.1907 4.83179C13.8947 4.9165 14.53 5.0912 15.0964 5.3559C15.3928 5.4882 15.6662 5.66691 15.9063 5.88528C15.91 5.88597 15.9139 5.88583 15.9176 5.88492C15.9212 5.88401 15.9246 5.88233 15.9276 5.87998C16.2982 5.36648 16.7693 4.98533 17.3464 4.7471C17.521 4.69945 17.7221 4.67828 17.7857 4.87944L17.8652 5.17589C17.8916 5.4406 17.8969 5.68411 17.8703 5.92764C17.8493 6.17645 17.738 7.18229 17.394 7.19817C17.3093 7.20346 17.2352 7.19817 17.1716 7.18229C17.087 7.16111 17.0075 7.16111 16.9281 7.12935C16.8993 7.11953 16.8685 7.11592 16.8381 7.11876C16.7746 7.13465 16.7746 7.15581 16.8327 7.18229C17.7116 7.58462 18.2622 8.50576 18.601 9.37396C19.0033 10.4063 19.231 11.5391 19.3315 12.6402C19.4056 13.4344 19.4374 14.2126 19.4268 14.9748C19.4216 15.1972 19.395 15.4091 19.3897 15.626C19.3739 15.986 19.3368 16.3459 19.3104 16.7113C19.2998 16.8066 19.2627 16.9018 19.2785 17.0024C19.2785 17.013 19.2892 17.0289 19.2998 17.0342L19.4056 17.1084C19.6332 17.1454 19.8397 17.0766 20.0303 16.9178C20.2103 16.7642 20.348 16.5895 20.4379 16.3936C20.4474 16.3727 20.462 16.3546 20.4803 16.3408C20.5068 16.3249 20.5333 16.3249 20.5545 16.3512C20.5641 16.3598 20.5715 16.3704 20.5761 16.3824C20.5807 16.3943 20.5823 16.4073 20.5808 16.4201C20.4862 17.1667 20.1793 17.8704 19.6968 18.4477C19.4956 18.6805 19.2574 18.8448 18.9873 18.9453C18.6168 19.0777 18.1934 18.9983 17.897 18.7388C17.6322 18.5165 17.4256 18.2412 17.2933 17.9183C17.0071 17.2328 16.8978 16.4865 16.9757 15.7478C17.0021 15.4141 17.0552 15.083 17.1345 14.7578C17.1398 14.7314 17.1345 14.7261 17.1188 14.7473C17.0657 14.8001 17.0393 14.8796 16.9863 14.9378C16.298 15.7838 15.3894 16.4233 14.3605 16.7855C14.143 16.8621 13.92 16.9224 13.6935 16.9655L13.6829 16.9865V17.0924C13.6829 17.1137 13.6935 17.1241 13.7094 17.1294C14.1275 17.2936 14.3288 17.3889 14.3447 17.876C14.3712 18.5323 14.4981 19.1993 14.6888 19.8082C14.7258 19.9247 14.8158 20.1576 14.9694 20.4964L14.7575 20.5653L14.5829 20.1523C14.5793 20.1432 14.5724 20.1359 14.5634 20.132C14.5545 20.128 14.5443 20.1277 14.5352 20.1311C14.5291 20.1332 14.5236 20.1369 14.5194 20.1417L13.8841 20.7876C13.7465 20.8405 13.593 20.8669 13.4288 20.8882C13.3653 20.8882 13.36 20.8776 13.413 20.8458C13.8155 20.6019 14.1634 20.2776 14.4346 19.8929C14.4448 19.8764 14.451 19.8579 14.4528 19.8386C14.4547 19.8193 14.4521 19.7998 14.4453 19.7818C14.4082 19.6706 14.3765 19.5594 14.3552 19.4536C14.3499 19.4112 14.3341 19.4059 14.3023 19.4377C13.8801 19.9903 13.3485 20.4498 12.7406 20.7876C12.6135 20.8669 12.4812 20.941 12.3436 20.9994H11.8142C12.718 20.6663 13.5141 20.0936 14.1171 19.3424C14.2229 19.2047 14.2864 19.0671 14.2494 18.9082C14.1725 18.5605 14.1317 18.2056 14.1275 17.8495C14.1275 17.6007 14.0006 17.4472 13.757 17.3889C13.7412 17.3889 13.7306 17.3889 13.7359 17.4101C13.757 17.5266 13.9212 17.7013 13.7889 17.8018C13.697 17.8733 13.6086 17.9493 13.5241 18.0295C12.5289 18.9824 11.523 19.93 10.5172 20.8776L10.3213 20.8511C10.3583 20.7453 10.353 20.6711 10.3002 20.6234C10.189 20.5176 10.0513 20.4752 9.89255 20.4805C9.76014 20.4805 9.6119 20.5335 9.45312 20.6341L9.23077 20.5653C9.37371 20.4328 9.53248 20.3482 9.70726 20.3005C9.84672 20.2547 9.99668 20.2515 10.138 20.2911C10.2794 20.3307 10.4058 20.4114 10.5013 20.5229C10.5066 20.5335 10.5172 20.5335 10.5226 20.5229L11.3271 18.7759C11.3695 18.6964 11.3801 18.6065 11.3642 18.5112C11.3642 18.4901 11.3536 18.4901 11.3377 18.5112C11.1736 18.8236 10.9619 19.1465 10.6761 19.3582C10.4056 19.5593 10.149 19.7787 9.90836 20.0146L9.90231 20.0135L9.89712 20.01L9.89367 20.0048L9.89255 19.9988V19.9935C9.98247 19.8612 10.0832 19.7394 10.1678 19.6018L10.3901 19.2417C10.5784 18.9247 10.721 18.5823 10.8137 18.2254C9.96531 18.7115 8.99492 18.9429 8.01847 18.8924C7.30413 18.8733 6.61665 18.6161 6.06503 18.1618C5.96302 18.0766 5.87229 17.9788 5.79503 17.8706C5.51665 17.5397 5.37135 17.117 5.3874 16.6848C5.35852 16.0785 5.55036 15.4822 5.92739 15.0067C6.08621 14.7948 6.26619 14.5832 6.45678 14.3714C6.47367 14.3545 6.48319 14.3316 6.48325 14.3078C6.49912 13.9956 6.48325 13.6884 6.44619 13.3867C6.44361 13.3723 6.43614 13.3591 6.42501 13.3497C6.20796 13.1432 6.05444 12.9049 5.95915 12.6297C5.95387 12.6085 5.94327 12.6085 5.93268 12.6297C5.8374 12.7991 5.78445 12.9738 5.77387 13.1538C5.76328 13.2491 5.73681 13.3391 5.69446 13.4237C5.67328 13.4661 5.64152 13.4768 5.59917 13.4503C5.26108 13.204 5.00622 12.8605 4.8686 12.4656V12.4709C4.84836 12.508 4.83918 12.5503 4.84214 12.5927C4.8686 12.8732 4.8845 13.175 4.95861 13.4503C4.98508 13.5561 4.96919 13.5561 4.90566 13.4714C4.82097 13.3443 4.70979 13.2331 4.63039 13.1008C4.49803 12.8839 4.37099 12.6402 4.24923 12.3703C4.1668 12.1934 4.10807 12.0066 4.07453 11.8145C3.98434 11.2538 3.97899 10.6826 4.05864 10.1203C3.89983 10.5069 3.77277 10.888 3.69866 11.2691C3.59279 11.7774 3.53984 12.5503 3.96336 12.8996C4.01629 12.942 4.03218 12.995 4.011 13.0584L4.00042 13.0849C3.98453 13.1432 3.94747 13.1538 3.89454 13.122C3.74102 13.0161 3.63513 12.8892 3.5769 12.7463C3.45482 12.4699 3.39863 12.1691 3.41279 11.8673C3.48013 10.9485 3.77484 10.0607 4.27041 9.28397C4.3551 9.14632 4.42922 8.99809 4.50863 8.83928C4.9861 7.84576 5.71408 6.99371 6.62089 6.36703C6.65795 6.34055 6.65265 6.32997 6.60501 6.33527C6.16032 6.37232 5.79503 6.05998 5.59387 5.67353C5.50388 5.46177 5.45623 5.2659 5.45623 5.08062C5.45623 4.58298 5.62563 4.16477 5.95387 3.82067C6.21326 3.55068 6.54676 3.39715 6.94911 3.37598C7.00734 3.37598 7.04969 3.40245 7.06558 3.46068L7.08675 3.50833C7.11322 3.57185 7.08675 3.60362 7.01792 3.59832C6.79267 3.59122 6.56978 3.64624 6.3737 3.75734C6.1776 3.86847 6.01588 4.0314 5.90621 4.2283C5.75269 4.48241 5.67328 4.74181 5.6574 5.00121C5.6574 5.16003 5.68916 5.32943 5.76328 5.5253Z" fill="#010101"/>
<path d="M16.4989 6.79C16.4618 6.50414 16.3401 6.22357 16.0754 6.08061C16.0721 6.08023 16.069 6.07907 16.0662 6.07722C16.0634 6.07539 16.061 6.07291 16.0595 6.07003C16.0576 6.06681 16.0566 6.06316 16.0566 6.05945C16.0566 6.05573 16.0576 6.05208 16.0595 6.04886C16.3846 5.57131 16.8378 5.19515 17.3671 4.96362C17.4201 4.94243 17.4677 4.92656 17.5206 4.92126C17.5735 4.91067 17.6001 4.93715 17.6106 4.98478C17.7165 5.56711 17.6847 6.15474 17.5047 6.75295C17.4783 6.83235 17.4412 6.90117 17.3882 6.96999C17.3813 6.98005 17.3717 6.98788 17.3604 6.99257C17.3492 6.99726 17.3367 6.99862 17.3248 6.99646L16.5572 6.84824C16.5442 6.84547 16.5322 6.83898 16.5228 6.82959C16.5135 6.8202 16.507 6.80829 16.5042 6.79529L16.4989 6.79Z" fill="#A31B1F"/>
<path d="M14.7098 10.766C14.6967 10.766 14.6837 10.7632 14.6719 10.7578C14.6599 10.7523 14.6494 10.7443 14.641 10.7343C14.6304 10.7183 14.6144 10.7183 14.5986 10.7343C14.5616 10.766 14.5192 10.7924 14.5139 10.8507C14.5086 10.9353 14.4928 11.0201 14.4609 11.1049L14.2492 11.6554C14.0651 12.0081 13.8816 12.361 13.6986 12.7141C13.5981 12.8836 13.4763 13.0529 13.3174 13.2118C13.1904 13.3441 13.021 13.4235 12.8727 13.5347C12.8714 13.5376 12.869 13.5396 12.866 13.5406C12.863 13.5416 12.8597 13.5413 12.8569 13.54C12.8541 13.5386 12.852 13.5361 12.8511 13.5332C12.8501 13.5303 12.8502 13.5269 12.8516 13.5242C12.9443 12.9656 12.9974 12.4014 13.0105 11.8354V10.4855L12.9945 10.1678L12.9628 9.83958C12.9364 9.45842 12.8622 8.97138 12.7405 8.38905C12.7034 8.19848 12.6346 8.00789 12.571 7.82261C12.5022 7.61084 12.3857 7.38851 12.2216 7.17146C12.1953 7.1344 12.1582 7.12382 12.1158 7.14499C12.1097 7.1493 12.1042 7.15467 12.0999 7.16087C12.0522 7.21381 12.047 7.27204 12.0892 7.33557C12.2852 7.62674 12.4122 7.94966 12.5022 8.29905C12.6677 8.97929 12.7634 9.67468 12.7882 10.3743C12.7987 10.6759 12.8199 10.9724 12.8199 11.2637C12.8205 12.1964 12.7319 13.1271 12.5551 14.043C12.4917 14.3712 12.3963 14.6623 12.3116 14.9694C12.2799 15.0646 12.264 15.0646 12.2693 14.9641C12.2693 14.5829 12.3222 14.2017 12.2958 13.8206L12.264 13.2277C12.264 13.0318 12.2323 12.8359 12.211 12.6453C12.0146 10.4038 11.2929 8.24016 10.1041 6.32973C10.0777 6.28738 10.0406 6.27679 9.99824 6.29796C9.98884 6.29998 9.97995 6.30356 9.9718 6.30856C9.91881 6.36149 9.9135 6.41443 9.95056 6.46738C10.9344 8.05132 11.5881 9.81784 11.8723 11.6607C11.9516 12.1583 12.0046 12.5871 12.0311 12.9577C12.047 13.1853 12.0787 13.4182 12.0787 13.6458V14.5776L12.0628 14.874L12.0364 15.1812C11.9569 16.0122 11.8193 16.7323 11.6181 17.3411C11.4487 17.8599 11.2211 18.3417 10.93 18.781C10.9124 18.806 10.8887 18.8261 10.8611 18.8392C10.8452 18.8498 10.8399 18.8392 10.8452 18.8233C11.0041 18.4104 11.1364 17.9763 11.2264 17.5315C11.3731 16.8468 11.4618 16.1508 11.4911 15.4512C11.5282 15.1017 11.4911 14.7522 11.5229 14.403C11.5334 14.3182 11.5282 14.2334 11.5229 14.1382C11.4858 13.7994 11.5282 13.4605 11.4911 13.1166C11.4758 12.9971 11.4688 12.8768 11.4699 12.7565C11.4699 12.6506 11.4381 12.55 11.4328 12.4442V12.3171C11.3653 11.6173 11.2539 10.9225 11.0994 10.2366C10.9404 9.51135 10.7023 8.75962 10.3371 8.10848C10.3053 8.05553 10.2576 8.03436 10.1993 8.06084L10.1835 8.06612C10.1723 8.06995 10.162 8.07625 10.1535 8.08457C10.145 8.09289 10.1384 8.10301 10.1344 8.11419C10.1303 8.12537 10.1288 8.13732 10.1299 8.14917C10.1311 8.161 10.135 8.17242 10.1412 8.18259C10.4692 8.79968 10.7115 9.45869 10.8611 10.1414C11.0199 10.7924 11.1257 11.4648 11.2052 12.1531C11.2158 12.2536 11.2105 12.3489 11.2318 12.4442L11.2423 12.5659C11.2476 12.7247 11.2582 12.8889 11.2793 13.0582C11.2899 13.1377 11.2899 13.2171 11.2793 13.3019C11.2793 13.3229 11.2688 13.3282 11.2476 13.3176C11.0954 13.2324 10.9578 13.1233 10.8399 12.9948C10.5339 12.6669 10.3061 12.2742 10.1729 11.846C10.1623 11.8142 10.1412 11.8036 10.1094 11.8195L10.0194 11.8618C9.99824 11.8778 9.98761 11.8937 9.99292 11.9147C10.0564 12.2483 10.2417 12.5765 10.4482 12.8359C10.4588 12.8519 10.4588 12.8572 10.4376 12.8465C10.3992 12.8311 10.3634 12.8097 10.3318 12.783C9.82357 12.3435 9.46352 11.5919 9.2306 10.9566C8.98005 10.2757 8.79741 9.57178 8.68533 8.85491C8.63239 8.53728 8.59534 8.21965 8.56356 7.9232C8.54239 7.70085 8.55298 7.49967 8.53709 7.28792C8.52122 7.10264 8.53709 6.92264 8.55298 6.73736V6.72147L8.54239 6.70559C8.53756 6.70281 8.53209 6.70134 8.52651 6.70134C8.52094 6.70134 8.51545 6.70281 8.51063 6.70559C8.07031 7.18497 7.71574 7.73652 7.46244 8.33612C7.10843 9.16721 6.87319 10.044 6.76364 10.9407C6.71624 11.3714 6.70738 11.8055 6.73717 12.2377L6.77423 12.5553C6.77423 12.5818 6.76894 12.5871 6.74776 12.5765C6.43659 12.4514 6.1609 12.2518 5.94492 11.9951C5.72892 11.7385 5.57924 11.4328 5.509 11.1049C5.2443 9.98781 5.73134 8.77551 6.43013 7.89142C6.4566 7.85967 6.4566 7.83319 6.43543 7.79614C6.42289 7.77659 6.4043 7.76172 6.38249 7.7538C6.35806 7.74249 6.33046 7.74001 6.3044 7.74676C6.27833 7.75352 6.25541 7.76909 6.23955 7.79085C5.92332 8.19042 5.67147 8.63697 5.49311 9.11431C5.43488 9.26784 5.37135 9.41606 5.29194 9.56424C4.88073 10.3752 4.66328 11.2704 4.65668 12.1795C4.65138 12.2854 4.66727 12.3912 4.68314 12.4971C4.70433 12.6295 4.68314 12.6348 4.61962 12.5237C4.35557 12.055 4.21697 11.5261 4.21729 10.9883C4.21729 10.6072 4.24905 10.2366 4.34963 9.86602C4.66331 8.79115 5.26441 7.82225 6.08816 7.0638C6.9119 6.30536 7.92704 5.78614 9.02413 5.56211L9.65941 5.47742C9.75464 5.46683 9.91881 5.51976 9.98761 5.4827C10.427 5.24449 10.8876 5.10155 11.3694 5.04331C11.5387 5.02215 11.7082 4.99567 11.8776 4.99038C12.5235 4.95862 13.1745 5.01156 13.8204 5.1492C14.3339 5.26037 14.8104 5.43506 15.2444 5.668C15.4139 5.76329 15.5833 5.89034 15.7421 6.04386C15.7579 6.05975 15.7579 6.07563 15.7421 6.08622C15.5992 6.19209 15.4668 6.31915 15.3398 6.46738C15.3292 6.48324 15.3186 6.48324 15.3027 6.46738C15.1442 6.34137 14.9534 6.26248 14.7521 6.23973C14.1813 6.13357 13.5913 6.24702 13.1004 6.55737C13.0853 6.56604 13.0726 6.57831 13.0634 6.59309C13.0541 6.60786 13.0487 6.62468 13.0475 6.64207C13.0369 6.80089 13.058 6.93854 13.1057 7.06558C13.2964 7.54203 13.6139 7.94436 14.0322 8.23024C14.1274 8.29376 14.2334 8.33082 14.3498 8.33612C14.3571 8.33535 14.3642 8.33307 14.3705 8.32943C14.3769 8.32578 14.3824 8.32085 14.3868 8.31493C14.4609 8.23554 14.535 8.15612 14.6198 8.0873L15.308 7.48909L15.3292 7.49439C15.3325 7.49685 15.335 7.50005 15.3369 7.50373C15.3388 7.50739 15.3398 7.51145 15.3398 7.51557C15.308 7.70615 15.2497 7.88613 15.1703 8.04495C14.8294 8.72019 14.3409 9.31005 13.741 9.77077C13.6139 9.86602 13.4763 9.93482 13.3333 10.0089C13.307 10.0249 13.3017 10.046 13.3227 10.0726L13.4022 10.1625C13.4233 10.1837 13.4499 10.189 13.4763 10.1784C13.5822 10.1254 13.6775 10.0726 13.7675 10.0037C14.369 9.5535 14.8733 8.98627 15.2497 8.33612C15.2868 8.27259 15.3027 8.27788 15.2921 8.35199C15.2497 8.62728 15.218 8.91315 15.1969 9.19902C15.1916 9.32607 15.1757 9.45312 15.1598 9.57487C15.1386 9.74434 15.1492 9.90838 15.1386 10.0779C15.1015 10.5543 15.0962 10.9936 15.1174 11.4013C15.1456 11.917 15.181 12.4323 15.2233 12.9471C15.2729 13.4312 15.3667 13.9096 15.5038 14.3765C15.5568 14.5406 15.6256 14.6994 15.7262 14.8476C15.7315 14.8583 15.7474 14.8634 15.7632 14.8634C15.8639 14.8423 15.9751 14.8423 16.1127 14.8634C16.2185 14.8846 16.3244 14.89 16.4302 14.8846C16.4885 14.8846 16.515 14.8583 16.5097 14.7999C16.4938 14.6411 16.4569 14.477 16.4198 14.3182C16.3985 14.2547 16.4198 14.223 16.4832 14.2177C16.692 14.1935 16.9035 14.2059 17.1079 14.2547C17.1238 14.2547 17.129 14.2654 17.1238 14.2864C16.9783 14.6124 16.7736 14.9085 16.5203 15.1599C15.8529 15.8411 15.0299 16.3499 14.1222 16.6422C14.1018 16.6495 14.0797 16.6502 14.059 16.6445C14.0381 16.6388 14.0196 16.627 14.0057 16.6104L13.688 16.2399C13.6814 16.232 13.6765 16.2227 13.6738 16.2125C13.6712 16.2025 13.671 16.1921 13.673 16.1818C13.6751 16.1717 13.6794 16.162 13.6857 16.1538C13.6919 16.1455 13.7 16.1387 13.7093 16.134C13.7202 16.1271 13.7332 16.1233 13.7463 16.1233C13.9739 16.1286 14.2915 15.9329 14.4345 15.8058C14.6636 15.6044 14.8475 15.357 14.9743 15.0797C15.1011 14.8024 15.1679 14.5013 15.1703 14.1964C15.1703 14.0377 15.1439 13.8682 15.0857 13.6935C14.8581 13.0476 14.2385 12.8465 13.6722 13.1853C13.6456 13.1958 13.6405 13.1906 13.6456 13.1641C13.6563 13.1113 13.7093 13.0742 13.7463 13.0318C13.7992 12.9683 13.8362 12.9047 13.8575 12.8306C13.8629 12.8162 13.8721 12.8034 13.8839 12.7936C13.8932 12.7849 13.9005 12.7741 13.9051 12.7622C13.9096 12.7503 13.9115 12.7375 13.9104 12.7247C13.9104 12.7089 13.9157 12.6929 13.9263 12.6823C13.9792 12.6242 14.0057 12.5765 14.0215 12.5553C14.1751 12.2642 14.3498 11.973 14.4609 11.6765L14.6992 11.0943C14.7415 10.9989 14.7309 10.9036 14.7468 10.8084C14.7468 10.782 14.7362 10.766 14.7098 10.766Z" fill="#F2EBD8"/>
<path d="M17.866 5.1748C18.811 5.98835 19.5775 6.98877 20.1167 8.11309C20.6562 9.23739 20.9568 10.4611 20.9999 11.7075V12.3162C20.9297 13.9417 20.4313 15.5196 19.5547 16.8902L19.4118 17.102L19.3059 17.0331C19.2994 17.0301 19.2935 17.0257 19.289 17.0202C19.2844 17.0148 19.2811 17.0083 19.2794 17.0013C19.2636 16.9007 19.3006 16.8055 19.3113 16.7102C19.3376 16.3448 19.3747 15.9849 19.3905 15.6249C19.3959 15.4133 19.4224 15.1961 19.4276 14.9737C19.4382 14.2115 19.4065 13.4386 19.3323 12.6444C19.2318 11.5327 19.0042 10.4052 18.6018 9.37287C18.2577 8.50467 17.7125 7.58353 16.8336 7.18119C16.7807 7.15472 16.7807 7.13884 16.8336 7.12296C16.8658 7.11917 16.8985 7.12278 16.929 7.13356C17.0083 7.16002 17.0878 7.16002 17.1724 7.18649C17.236 7.19708 17.3101 7.20237 17.3895 7.20237C17.7389 7.1812 17.8501 6.17536 17.8765 5.92655C17.9009 5.67635 17.8974 5.42421 17.866 5.1748Z" fill="#F2DB5A"/>
<path d="M10.8147 5.51435C11.0398 5.61725 11.2415 5.76525 11.4072 5.94917C11.573 6.1331 11.6992 6.34907 11.7782 6.58372C11.7835 6.61549 11.7782 6.63665 11.7464 6.65254L11.6406 6.69488C11.6086 6.71078 11.5876 6.69488 11.5769 6.66842C11.4657 6.3455 11.2647 6.07551 10.9786 5.85316C10.8357 5.74728 10.6611 5.68376 10.5023 5.59376C10.4908 5.5881 10.4815 5.57878 10.4758 5.5673C10.4652 5.52494 10.4705 5.50377 10.497 5.49847C10.5976 5.47729 10.7193 5.472 10.8147 5.51435Z" fill="white"/>
<path d="M5.594 5.67424C5.79516 6.06069 6.16045 6.37303 6.60514 6.33598C6.65808 6.33068 6.65808 6.34126 6.62102 6.36773C5.71226 6.99375 4.98241 7.84583 4.50346 8.83998C4.43464 8.99879 4.35523 9.14703 4.27053 9.28467C3.77497 10.0614 3.48027 10.9492 3.41291 11.8681C3.40233 12.1857 3.45527 12.4769 3.57173 12.747C3.63526 12.8899 3.74643 13.0115 3.89996 13.1175C3.9529 13.1546 3.98466 13.1439 4.00584 13.0856V13.0592C4.01771 13.0319 4.01999 13.0013 4.01231 12.9725C4.00461 12.9436 3.98741 12.9182 3.96348 12.9003C3.53997 12.551 3.59291 11.7781 3.69879 11.2698C3.78283 10.877 3.907 10.4938 4.06936 10.1264L4.0376 10.3647C4.02702 10.444 4.01642 10.5235 4.01642 10.5976C3.99524 11.021 4.00054 11.4075 4.06936 11.8151C4.10642 12.0057 4.16464 12.1911 4.24936 12.371C4.37111 12.6409 4.49816 12.8846 4.63052 13.1015C4.70992 13.2338 4.82109 13.345 4.90579 13.4721C4.96932 13.5621 4.9852 13.5515 4.95873 13.451C4.88462 13.1757 4.87403 12.8739 4.84227 12.5934C4.83792 12.5493 4.84717 12.505 4.86873 12.4663H4.87403V12.4716C5.02756 12.8422 5.26049 13.2445 5.59929 13.451C5.64164 13.4775 5.6734 13.4668 5.69459 13.4245C5.73693 13.3399 5.76341 13.2498 5.77399 13.1546C5.78458 12.9745 5.84282 12.7998 5.93281 12.6251C5.94339 12.6092 5.95399 12.6092 5.95928 12.6304C6.05457 12.9056 6.20809 13.1439 6.42513 13.3503L6.44632 13.3874C6.48338 13.6891 6.49925 13.9963 6.48338 14.3085C6.48338 14.3297 6.47808 14.3509 6.4622 14.3668C6.26632 14.5786 6.09162 14.7902 5.92752 15.0074C5.55238 15.4837 5.36245 16.0799 5.39283 16.6855C5.37529 17.1169 5.51868 17.5396 5.79516 17.8714C5.87457 17.9825 5.96458 18.0832 6.07045 18.1625C6.62063 18.6157 7.30608 18.8727 8.01859 18.8931C8.99754 18.949 9.97185 18.721 10.8245 18.2366C10.7274 18.5906 10.5813 18.9292 10.3902 19.2424L10.1679 19.6025C10.0833 19.7401 9.9826 19.8619 9.89268 19.9942C9.89119 19.9967 9.89045 19.9994 9.89045 20.0021C9.89045 20.005 9.89119 20.0077 9.89268 20.0101H9.90849C9.92443 20.0101 9.93505 20.0101 9.94555 19.9942C10.1785 19.7613 10.422 19.5548 10.6761 19.3589C10.9621 19.1472 11.1737 18.8243 11.3379 18.5119C11.3537 18.4908 11.359 18.4908 11.3643 18.5119C11.3803 18.6072 11.3643 18.6972 11.3273 18.7766L10.5226 20.5236C10.5173 20.5342 10.5067 20.5342 10.4961 20.5236C10.4008 20.4121 10.2742 20.3314 10.1329 20.2918C9.9915 20.2522 9.84154 20.2554 9.70208 20.3013C9.53261 20.3489 9.37384 20.4335 9.2309 20.566C7.57543 20.0302 6.11078 19.0259 5.01431 17.6748C3.91784 16.3237 3.23655 14.6837 3.05293 12.9533L3 12.4398V11.6034L3.06353 10.9629C3.29588 8.9662 4.18615 7.10369 5.594 5.66895V5.67424Z" fill="#F2DB5A"/>
<path d="M15.9862 6.26644C16.1557 6.37762 16.2933 6.59996 16.288 6.81171C16.288 6.8276 16.2827 6.83818 16.2721 6.85407C16.1504 6.9917 16.0074 7.06582 15.8486 7.07641C15.7057 7.087 15.5838 6.89642 15.5415 6.78524C15.4886 6.65819 15.5151 6.55761 15.6209 6.4835C15.7317 6.40701 15.8429 6.33113 15.9544 6.25586C15.966 6.25586 15.977 6.25958 15.9862 6.26644ZM15.3932 7.13993L14.3239 8.07166C14.3076 8.08655 14.2869 8.09565 14.2648 8.09756C14.2429 8.09948 14.2207 8.09409 14.2021 8.08224C13.7768 7.8091 13.4531 7.40356 13.281 6.92819C13.2657 6.87634 13.2657 6.8212 13.281 6.76936C13.281 6.75349 13.2863 6.74288 13.2969 6.7323C13.3764 6.66349 13.4558 6.61054 13.551 6.57348C14.0592 6.37762 14.5463 6.36173 15.0174 6.53643C15.1233 6.57348 15.2027 6.6529 15.2397 6.75877C15.2821 6.87524 15.3457 6.9917 15.4356 7.09759C15.4515 7.11347 15.4462 7.12405 15.425 7.12935H15.4092L15.3932 7.13993Z" fill="#A31B1F"/>
<path d="M16.0659 7.4048C16.4408 8.55472 16.6459 9.75316 16.6748 10.9624C16.6959 11.3964 16.6853 11.8782 16.6482 12.4129C16.6111 12.8894 16.5318 13.3657 16.3995 13.8211C16.3836 13.8739 16.3677 13.8739 16.3624 13.8211C16.2988 13.3815 16.2565 12.9739 16.2248 12.614C16.2088 12.3175 16.1771 12.0211 16.14 11.7193C16.0915 11.3504 16.0614 10.9795 16.0501 10.6076C16.0501 10.4382 16.0395 10.2741 16.0235 10.11C15.9918 9.79763 15.9812 9.4853 15.9495 9.17825C15.923 8.9665 15.9494 8.75475 15.9177 8.5324C15.8667 8.14463 15.8525 7.75289 15.8753 7.36244C15.8753 7.33598 15.8859 7.3201 15.9071 7.30952C15.9601 7.26716 15.9971 7.27246 16.0235 7.3148C16.0448 7.34128 16.0553 7.37305 16.0659 7.4048Z" fill="#F2EBD8"/>
<path d="M18.1195 11.6613C18.1195 11.7037 18.146 11.7194 18.1884 11.7141L18.273 11.6984C18.326 11.6878 18.3472 11.6613 18.3366 11.6083C18.2191 10.552 17.9199 9.52406 17.4526 8.56964C17.2667 8.1335 17.005 7.7338 16.6797 7.3891C16.6267 7.33617 16.632 7.33087 16.7007 7.35734C17.2089 7.5691 17.5848 7.96084 17.8813 8.4267C18.2999 9.11415 18.6038 9.86513 18.7813 10.6501C19.0478 11.7439 19.1881 12.8648 19.1995 13.9906V15.2876C19.1995 15.5311 19.1519 15.7587 19.1572 15.9917C19.1572 16.0975 19.0883 16.1505 19.0883 16.2457C19.0883 16.3623 19.0883 16.4787 19.0724 16.5899C19.0565 16.6958 19.0459 16.8016 19.0459 16.9287C19.0459 17.0186 19.0724 17.0981 19.1254 17.1616C19.2206 17.2781 19.3529 17.3364 19.5224 17.3364C19.7712 17.3364 19.967 17.2357 20.1577 17.0875C20.2106 17.0452 20.2265 17.0557 20.2053 17.1193C19.9777 17.7545 19.5965 18.4639 18.9772 18.718C18.4689 18.9299 18.0031 18.6545 17.7172 18.2363C17.5133 17.9349 17.3695 17.597 17.2936 17.241C17.1161 16.4773 17.1251 15.6819 17.3201 14.9223C17.3413 14.8322 17.3518 14.7476 17.3518 14.6683C17.3518 14.5623 17.3625 14.4564 17.3784 14.3612C17.4728 13.6719 17.5083 12.976 17.4842 12.2807C17.4683 12.0795 17.4842 11.8783 17.4683 11.6719C17.3784 10.5072 17.1931 9.3796 16.8012 8.29436C16.706 8.02966 16.5949 7.78614 16.4837 7.5638C16.4149 7.44204 16.4307 7.43146 16.526 7.53204C16.7219 7.7332 16.886 7.95554 17.0236 8.20436C17.5199 9.1047 17.8683 10.0788 18.0559 11.0895C18.093 11.2748 18.1089 11.4654 18.1195 11.6613Z" fill="#F2EBD8"/>
<path d="M8.39947 9.54795L8.48946 9.45264C8.49841 9.44385 8.50427 9.4324 8.50617 9.42C8.50809 9.40759 8.50594 9.39491 8.50004 9.38383C8.42593 9.26736 8.33064 9.17207 8.21419 9.10854C7.9389 8.94972 7.68479 8.95501 7.43598 9.12971C7.38305 9.16148 7.37245 9.1509 7.39363 9.09265L7.66362 8.40445C7.79068 8.10799 7.97596 7.82212 8.21947 7.53625C8.23006 7.52566 8.24065 7.52566 8.24065 7.54684L8.33594 7.98094C8.3677 8.108 8.38887 8.24564 8.41006 8.40445C8.51164 9.28018 8.71232 10.1415 9.00826 10.9719C9.23368 11.6924 9.62125 12.3517 10.1412 12.8989C10.3105 13.0578 10.5118 13.1636 10.7394 13.2113C10.7552 13.2113 10.7711 13.2219 10.7817 13.2324C10.914 13.3648 11.0676 13.4707 11.2369 13.5501C11.2549 13.5578 11.2702 13.5703 11.2814 13.5862C11.2926 13.602 11.2992 13.6207 11.3006 13.64L11.327 13.9736C11.327 14.2753 11.327 14.5771 11.311 14.8949L11.2793 15.4612C11.2793 15.6254 11.2423 15.9852 11.1787 16.5305C11.1364 16.9487 11.0516 17.3934 10.9353 17.8594C10.9315 17.878 10.9239 17.8954 10.9128 17.911C10.902 17.9265 10.8879 17.9395 10.8717 17.9493C9.95674 18.5233 8.87533 18.7732 7.80126 18.6587C7.39443 18.6184 7.00003 18.4959 6.6419 18.2988C6.37854 18.1636 6.14988 17.9696 5.9736 17.7318C5.79733 17.494 5.67822 17.2189 5.62547 16.9277C5.60504 16.7839 5.60148 16.6381 5.61488 16.4935C5.67123 15.9258 5.90882 15.3911 6.2925 14.9689L6.65248 14.5454C6.71601 14.4712 6.7266 14.3495 6.7266 14.2596C6.71601 14.0266 6.71071 13.7936 6.71071 13.5554C6.71071 13.3065 6.67896 13.0684 6.67366 12.8143C6.67366 12.7931 6.68424 12.7825 6.71071 12.7931L6.9013 12.8514C6.91345 12.8554 6.92631 12.8571 6.93909 12.8559C6.95188 12.8549 6.96432 12.8514 6.9757 12.8455C6.98706 12.8395 6.99711 12.8313 7.00526 12.8214C7.01339 12.8116 7.01945 12.8001 7.02306 12.7878C7.00108 12.6505 6.98166 12.5129 6.96482 12.375C6.91719 12.0996 6.93836 11.819 6.93306 11.5331C6.93306 11.3902 6.94365 11.2367 6.95953 11.0673C7.02835 10.485 7.14482 9.90259 7.32481 9.33088C7.32481 9.30442 7.34068 9.29911 7.36187 9.30971L7.40421 9.33088C7.4233 9.3388 7.44414 9.3415 7.46461 9.33871C7.48507 9.33592 7.50441 9.32773 7.52069 9.315C7.81184 9.09265 8.193 9.23029 8.34653 9.53733C8.36241 9.56908 8.37829 9.56908 8.39947 9.54795Z" fill="#FBE6D5"/>
<path d="M15.4937 8.42642C15.5202 8.16173 15.5626 7.9288 15.6101 7.74352C15.642 7.63234 15.6631 7.63764 15.6737 7.74352L15.6631 7.80704V7.87056C15.6737 8.21467 15.7108 8.54817 15.7161 8.89229C15.7266 9.20992 15.7636 9.52755 15.7849 9.8452C15.8113 10.2157 15.8484 10.5599 15.859 10.9623C15.8695 11.2692 15.9014 11.6292 15.9649 12.0422C16.0178 12.4498 16.0231 12.8786 16.0707 13.3022C16.1237 13.7627 16.1819 14.202 16.2454 14.6362C16.2454 14.6573 16.2401 14.6626 16.2189 14.6626C16.1237 14.6626 16.0284 14.6626 15.9278 14.652C15.8643 14.652 15.822 14.6149 15.7954 14.5462C15.6573 14.1985 15.5596 13.8361 15.5043 13.4662C15.4619 13.1697 15.4197 12.8309 15.3826 12.4392C15.3667 12.2486 15.3667 12.0581 15.3455 11.8674L15.3296 11.6292V10.3005C15.3296 10.1734 15.3349 10.0463 15.3507 9.914C15.372 9.73403 15.3614 9.55406 15.3826 9.36343C15.4199 9.05134 15.4552 8.739 15.4884 8.42642H15.4937Z" fill="#A31B1F"/>
<path d="M6.66822 8.30472C6.54116 8.62235 6.53058 8.92411 6.64703 8.97175C6.7635 9.0141 6.96467 8.79176 7.09172 8.47412C7.21878 8.15649 7.22408 7.85474 7.1076 7.80709C6.99115 7.75945 6.79526 7.98709 6.66822 8.30472ZM11.5651 8.10885C11.6073 8.01356 11.7609 7.98179 11.8192 8.09296C11.9515 8.33119 12.031 8.55882 12.0679 8.76529C12.084 8.84999 12.105 9.04056 12.0203 9.10409C11.8933 9.20468 11.7027 9.08822 11.6603 8.95058C11.6073 8.79176 11.5651 8.62235 11.5333 8.44766C11.5068 8.33119 11.5227 8.21472 11.5651 8.10885ZM13.2167 8.82352C13.2064 8.82763 13.1952 8.82952 13.184 8.82903C13.1729 8.82856 13.1619 8.82571 13.152 8.82073C13.142 8.81572 13.1331 8.80869 13.1261 8.80004C13.119 8.7914 13.1139 8.78136 13.1109 8.77057L13.0845 8.68588C13.0423 8.55896 13.0157 8.42743 13.0051 8.29413C12.9945 8.18296 13.0155 8.11413 13.0526 8.10355L13.1003 8.08767C13.1374 8.07708 13.1903 8.11943 13.2485 8.21472C13.3068 8.30472 13.365 8.43707 13.4127 8.58001L13.4391 8.66999C13.4423 8.68007 13.4435 8.69071 13.4426 8.70126C13.4418 8.71181 13.4388 8.72207 13.4338 8.73144C13.4289 8.74082 13.4222 8.74911 13.4139 8.75583C13.4057 8.76255 13.3964 8.76757 13.3861 8.77057L13.2167 8.82352Z" fill="white"/>
<path d="M16.5743 8.29331C16.7649 8.80682 16.9131 9.33091 17.019 9.87088C17.1771 10.6431 17.2657 11.428 17.2837 12.2161C17.3037 12.8153 17.279 13.4151 17.2096 14.0106C17.2037 14.0208 17.1943 14.0283 17.1831 14.0319H17.1621C16.9697 13.9995 16.7743 13.9888 16.5796 14.0002V13.9736C16.6273 13.7566 16.6961 13.5396 16.7385 13.3172C16.8073 12.9572 16.8496 12.5867 16.8708 12.2055L16.8867 11.7237C16.8993 10.9698 16.8568 10.2163 16.7596 9.46856C16.6983 9.06113 16.6278 8.65516 16.5479 8.25095C16.5479 8.24037 16.5479 8.24037 16.5532 8.24567L16.5743 8.29331Z" fill="#A31B1F"/>
<path d="M9.21993 9.05059C9.15182 8.82188 9.14272 8.57966 9.19346 8.34649C9.19322 8.33411 9.19732 8.32202 9.20505 8.31235C9.2128 8.30268 9.22368 8.29602 9.23582 8.29355L9.3417 8.27767C9.35296 8.27512 9.36475 8.27633 9.37527 8.28112C9.38578 8.2859 9.39444 8.29399 9.39993 8.30414C9.52169 8.56353 9.59585 8.83352 9.62228 9.1194C9.6329 9.25704 9.66465 9.35233 9.58522 9.47938C9.57842 9.48922 9.56929 9.49725 9.55866 9.50279C9.54804 9.50833 9.53631 9.51123 9.52434 9.51123C9.51237 9.51123 9.50058 9.50833 9.48998 9.50279C9.47938 9.49725 9.47028 9.48922 9.46345 9.47938C9.36817 9.34174 9.26758 9.21469 9.21993 9.05059ZM9.80756 8.98176C9.80756 8.97895 9.80868 8.97626 9.81065 8.97427C9.81263 8.97228 9.81535 8.97116 9.81818 8.97116L9.83931 8.96588C9.86204 8.96084 9.88551 8.96084 9.90812 8.96588C9.93467 8.96588 9.96111 8.97647 9.97692 8.99234C9.99816 9.00822 10.0193 9.02411 10.0299 9.04529C10.051 9.07175 10.0616 9.09822 10.067 9.1247L10.0776 9.15117C10.0934 9.20409 10.0881 9.26234 10.067 9.30998C10.0573 9.3326 10.0428 9.35283 10.0245 9.36929C10.0062 9.38575 9.98458 9.39803 9.96111 9.40527L9.93467 9.41057L9.92899 9.41204L9.92331 9.41026L9.9196 9.40578L9.91874 9.39997L9.80756 8.98705V8.98176ZM14.9585 9.1247C14.9688 9.12599 14.9783 9.13103 14.9851 9.13883C14.9919 9.14663 14.9957 9.15666 14.9956 9.16704C14.9956 9.25704 14.9797 9.34174 14.9532 9.43174C14.8474 9.78119 14.6727 10.1199 14.4238 10.4482C14.2227 10.7023 13.9526 10.967 13.6351 11.0516C13.5749 11.066 13.5118 11.0604 13.4551 11.0359C13.3544 10.9935 13.365 10.8876 13.4233 10.8188C13.4297 10.8115 13.4382 10.8062 13.4476 10.8034C13.4568 10.8005 13.4668 10.8004 13.4762 10.8029C13.6986 10.877 13.9156 10.6706 14.0585 10.5223C14.4228 10.162 14.6793 9.70732 14.7997 9.20939C14.8156 9.14056 14.9004 9.1141 14.9585 9.1247Z" fill="white"/>
<path d="M7.60057 10.3745C7.63234 10.3109 7.68527 10.2899 7.75938 10.3005C7.77527 10.3005 7.78586 10.3109 7.79116 10.3215C7.81233 10.3745 7.81763 10.4168 7.79116 10.4538C7.70645 10.634 7.69587 10.8086 7.75938 10.9727C7.76998 10.9992 7.76998 11.0257 7.7541 11.0521L7.67999 11.158C7.6767 11.1616 7.6726 11.1646 7.668 11.1665C7.66341 11.1683 7.65844 11.169 7.65351 11.1686C7.64859 11.169 7.64362 11.1683 7.63902 11.1665C7.63443 11.1646 7.63033 11.1616 7.62704 11.158C7.46822 10.9092 7.46822 10.6391 7.60057 10.3745ZM8.75993 13.1379C8.74131 13.0011 8.73247 12.863 8.73347 12.725C8.73347 12.5503 8.71229 12.3861 8.69111 12.2115C8.6616 11.9222 8.59028 11.6385 8.47936 11.3698C8.43701 11.2691 8.29407 11.0521 8.15643 11.0944C8.05696 11.1248 7.97217 11.1908 7.91822 11.2797L7.67999 11.6239C7.59528 11.6239 7.54764 11.5974 7.53175 11.5498C7.52645 11.5392 7.52645 11.5285 7.53175 11.5127C7.64293 11.248 7.80704 11.0045 8.07702 10.9039C8.1415 10.8791 8.2125 10.8773 8.27818 10.8986C8.64876 11.0204 8.74934 11.4703 8.82875 11.7986C8.89251 12.0339 8.93154 12.2751 8.94522 12.5185C9.03521 12.6138 9.18874 12.5503 9.23109 12.4391C9.23548 12.429 9.24296 12.4203 9.25245 12.4147C9.26194 12.409 9.27298 12.4064 9.28403 12.4074H9.41108C9.44814 12.4074 9.46402 12.4232 9.45343 12.4603C9.37931 12.6932 9.2205 12.7937 8.97699 12.7621C8.97191 12.7611 8.96668 12.7614 8.96176 12.7629C8.95683 12.7645 8.95235 12.7672 8.94868 12.7708C8.94504 12.7745 8.94234 12.779 8.94081 12.7839C8.93929 12.7889 8.93898 12.794 8.93993 12.799L8.9664 13.032C8.96678 13.0389 8.96493 13.0457 8.96111 13.0515C8.9573 13.0571 8.95172 13.0615 8.94522 13.0638L8.75993 13.1379Z" fill="#010101"/>
<path d="M14.758 11.0734C14.758 11.0151 14.7846 10.9833 14.8374 10.9675H14.864C14.9222 10.9515 14.954 10.978 14.954 11.0363C14.9687 11.2966 14.9328 11.5573 14.848 11.8039C14.7414 12.14 14.5746 12.4538 14.3557 12.7303C14.3234 12.768 14.2838 12.7986 14.2392 12.8204C14.2258 12.8275 14.2104 12.8304 14.1952 12.8284C14.1801 12.8265 14.1659 12.82 14.1546 12.8098C14.1474 12.802 14.142 12.793 14.1387 12.7833C14.0858 12.6773 14.2763 12.5026 14.3346 12.4179C14.3874 12.3438 14.4298 12.2592 14.4722 12.1745C14.5887 11.8991 14.6787 11.645 14.7369 11.4069C14.758 11.301 14.7633 11.1951 14.758 11.0734ZM8.76008 13.1379L8.70715 13.4767C8.66113 13.9097 8.51229 14.3252 8.27305 14.689C8.25693 14.7115 8.23727 14.7312 8.21482 14.7473C8.09305 14.832 7.97659 14.8955 7.85483 14.9378C7.94482 14.8426 8.00307 14.7525 8.02423 14.6732C8.11952 14.3555 8.18835 13.9956 8.236 13.588C8.25716 13.3443 8.24658 13.1115 8.26246 12.8679C8.26776 12.7727 8.24658 12.6773 8.19894 12.5821C8.18823 12.5628 8.17177 12.5472 8.15184 12.5377C8.1319 12.5283 8.10951 12.5253 8.08776 12.5291C8.06962 12.5333 8.05081 12.5336 8.03256 12.5298C8.01432 12.5263 7.99705 12.5187 7.98188 12.5079C7.91836 12.455 7.89718 12.4021 7.92365 12.328C7.96601 12.1955 8.0613 12.0686 8.01365 11.915C8.01199 11.9086 8.00865 11.9028 8.004 11.8983C7.99935 11.8935 7.99354 11.8902 7.98718 11.8887C7.91306 11.8726 7.85483 11.9097 7.81777 12.0102C7.72248 12.2697 7.65897 12.4762 7.63249 12.6455C7.60045 12.4459 7.59688 12.2428 7.62191 12.0422C7.65897 11.825 7.67484 11.6821 7.68013 11.6186L7.91836 11.2797C7.97232 11.1908 8.05712 11.1249 8.15658 11.0944C8.29422 11.0521 8.43716 11.2691 8.47423 11.3698C8.59068 11.6557 8.66479 11.9362 8.69127 12.2168C8.70715 12.3862 8.73362 12.5503 8.73362 12.725C8.73362 12.8626 8.73891 13.0003 8.76008 13.1379Z" fill="white"/>
<path d="M7.85424 14.9385C7.73777 14.9226 7.66365 14.875 7.63718 14.8009C7.58425 14.6633 7.55778 14.4991 7.54719 14.2926C7.52601 13.7315 7.54719 13.181 7.63189 12.6463C7.66365 12.4769 7.72188 12.2703 7.81718 12.011C7.85424 11.9104 7.91247 11.8734 7.98658 11.8893C8.00246 11.8946 8.00775 11.9051 8.01305 11.9158C8.06599 12.0746 7.96541 12.1963 7.92305 12.3287C7.89658 12.4028 7.92305 12.461 7.98658 12.5087C8.01834 12.5297 8.05011 12.535 8.08717 12.5297C8.10808 12.527 8.12932 12.5306 8.14818 12.5402C8.16706 12.5495 8.18267 12.5644 8.19304 12.5827C8.24598 12.678 8.26715 12.7733 8.26187 12.8685C8.24598 13.1069 8.26187 13.345 8.2301 13.5886C8.19547 13.9556 8.12815 14.3187 8.02894 14.6739C8.00246 14.7532 7.94423 14.8432 7.85424 14.9385Z" fill="#010101"/>
<path d="M17.9983 15.8168C18.0194 16.1343 18.0935 16.4679 18.1942 16.7643C18.2524 16.9443 18.3478 17.1138 18.4694 17.2725C18.5912 17.4314 18.7341 17.5108 18.8929 17.5108C18.9724 17.5108 19.0199 17.5478 19.0465 17.6167L19.0518 17.6431C19.0783 17.7121 19.0518 17.7491 18.9829 17.7491C18.39 17.7491 18.1041 17.225 17.9665 16.7273C17.8925 16.4679 17.8236 16.1979 17.7918 15.9333C17.691 14.8613 17.7626 13.7799 18.0036 12.7304C18.0248 12.6246 18.0617 12.4234 18.2154 12.4657C18.234 12.4728 18.2496 12.4863 18.2592 12.5038C18.2688 12.5212 18.2721 12.5414 18.2683 12.561C18.0089 13.6273 17.916 14.7273 17.993 15.8222L17.9983 15.8168Z" fill="white"/>
<path d="M7.99135 13.8314C7.95958 14.0803 7.91193 14.3238 7.84311 14.5621C7.83252 14.6043 7.81665 14.6043 7.79546 14.5621C7.78123 14.5283 7.77231 14.4925 7.76901 14.456C7.73723 14.1278 7.73723 13.7996 7.75841 13.4714C7.77429 13.2703 7.85371 13.138 7.98075 12.995C8.03369 12.942 8.05487 12.9527 8.05487 13.0267L8.03899 13.2226C8.01781 13.3603 8.03369 13.5032 8.01252 13.6461L7.99135 13.8314Z" fill="#A31B1F"/>
<path d="M12.8208 16.7115L11.8149 17.4526C11.9579 16.955 12.0744 16.4732 12.1485 16.0022C12.1749 15.8644 12.2067 15.7427 12.2543 15.6421L12.4237 15.2397C12.5719 14.9168 12.6567 14.5463 12.7414 14.2021C12.751 14.1641 12.7546 14.1248 12.752 14.0857C12.752 14.0328 12.7731 14.0168 12.8155 14.0381C12.895 14.0752 12.9744 14.091 13.0432 14.0963C13.0517 14.0974 13.0605 14.0965 13.0688 14.0938C13.077 14.091 13.0845 14.0864 13.0907 14.0805L13.1861 13.9534C13.472 13.461 14.1654 12.9475 14.679 13.4239C14.8961 13.6199 14.9966 14.0381 14.9595 14.3239C14.9065 14.7739 14.7425 15.1551 14.4671 15.478C14.2343 15.7427 13.9166 15.9385 13.5566 15.9385C13.5188 15.9393 13.4818 15.9283 13.4508 15.9068C13.4439 15.9044 13.4365 15.9044 13.4296 15.9068C13.4222 15.906 13.4146 15.9078 13.4084 15.9121L12.8208 16.7115Z" fill="#FBE6D5"/>
<path d="M13.8148 13.8951C13.7406 13.9479 13.6929 13.9903 13.6613 14.038C13.603 14.1279 13.529 14.2497 13.5394 14.3662C13.55 14.5515 13.6453 14.6733 13.8254 14.7314C13.8676 14.7474 13.91 14.7421 13.9471 14.7155C13.9534 14.7112 13.9607 14.709 13.9683 14.709C13.9758 14.709 13.9833 14.7112 13.9894 14.7155L14.0424 14.7632C14.1059 14.8427 14.1219 14.9379 14.0953 15.0597C14.0529 15.2556 13.9153 15.4144 13.6929 15.5308H13.6772L13.6666 15.5256L13.5447 15.3561C13.5341 15.3455 13.5394 15.3404 13.5553 15.335C13.7459 15.3085 13.8729 15.1762 13.9153 14.9274C13.9206 14.9008 13.9153 14.8903 13.8889 14.885C13.3118 14.8321 13.1424 14.255 13.5712 13.8792C13.6453 13.8262 13.7565 13.784 13.8148 13.8951Z" fill="#010101"/>
<path d="M14.0431 14.7638L13.9901 14.7215C13.9838 14.7172 13.9765 14.7147 13.9689 14.7147C13.9613 14.7147 13.954 14.7172 13.9477 14.7215C13.9297 14.7325 13.9091 14.7392 13.888 14.7411C13.8668 14.7428 13.8456 14.7398 13.826 14.7321C13.7444 14.71 13.6722 14.6619 13.6206 14.5949C13.569 14.528 13.5406 14.446 13.5401 14.3615C13.5295 14.2557 13.6036 14.1285 13.6618 14.0386C13.6936 13.9909 13.7413 13.9486 13.8154 13.8957C13.9053 13.8744 14.0113 13.8638 14.133 13.8797C14.2759 13.8957 14.3499 13.9698 14.3606 14.1021C14.3766 14.3986 14.2707 14.6156 14.0431 14.7638Z" fill="#EDB8A0"/>
<path d="M10.639 14.9645C10.745 15.1762 10.7396 15.3668 10.6231 15.5362C10.4749 15.7639 10.2155 15.9809 9.93497 16.0179C9.80256 16.0392 9.68076 16.0709 9.54846 16.0709C9.19377 16.0709 8.97673 15.8221 8.95555 15.478C8.94496 15.3085 8.9132 15.1656 9.00319 15.012C9.03495 14.9539 9.0826 14.9009 9.14083 14.8534C9.46905 14.578 9.85555 14.4828 10.2896 14.5622C10.4378 14.5886 10.5754 14.8428 10.639 14.9698V14.9645Z" fill="#FFBDAD"/>
<path d="M17.8971 18.739C17.8971 18.7761 17.8865 18.8025 17.8601 18.8238C17.0109 19.5591 16.0302 20.1267 14.9696 20.4965C14.8161 20.1578 14.726 19.9249 14.6889 19.8084C14.4903 19.1821 14.3746 18.5326 14.345 17.8761C14.329 17.3891 14.1278 17.2938 13.7097 17.135C13.7018 17.1326 13.6948 17.1277 13.69 17.121C13.6852 17.1143 13.6829 17.1062 13.6831 17.0979V16.9868C13.6823 16.9825 13.6825 16.9783 13.6833 16.9741C13.6843 16.97 13.6861 16.9661 13.6885 16.9627C13.691 16.9591 13.6942 16.9562 13.6978 16.954C13.7014 16.9518 13.7055 16.9503 13.7097 16.9497C13.9849 16.8968 14.2019 16.8438 14.3607 16.7856C15.3931 16.415 16.309 15.7903 16.9865 14.9379C17.0395 14.8798 17.0659 14.8056 17.1189 14.7475C17.1348 14.7262 17.1401 14.7316 17.1401 14.758L17.0765 15.0333C16.987 15.5024 16.9515 15.9802 16.9707 16.4573C17.0078 16.9867 17.0924 17.4368 17.2936 17.9185C17.4312 18.236 17.6271 18.5167 17.8971 18.739Z" fill="#F2DB5A"/>
<path d="M11.8084 17.4528L12.8142 16.7116L13.4388 16.2193C13.4548 16.2033 13.4653 16.2086 13.4653 16.2299V17.0028C13.4706 17.1615 13.5183 17.3838 13.5978 17.6591C13.5978 17.6751 13.5978 17.6856 13.5818 17.7015L11.6071 19.565L11.6019 19.5663L11.5966 19.565L11.5913 19.5597C11.5754 19.2208 11.5807 18.8556 11.5542 18.5009C11.5386 18.3778 11.5386 18.2533 11.5542 18.1303C11.5807 18.0086 11.6602 17.7863 11.8084 17.4528Z" fill="#EDB8A0"/>
<path d="M6.9598 17.2563L6.97039 17.1609C6.97039 17.1398 6.98627 17.1345 7.00745 17.1345C7.27743 17.1398 7.49977 17.0392 7.67447 16.817C7.72742 16.764 7.72742 16.6898 7.76977 16.6263C7.77633 16.6164 7.7849 16.6079 7.79493 16.6016C7.80498 16.5952 7.81624 16.591 7.828 16.5893C7.86022 16.5832 7.89086 16.5706 7.918 16.5522C7.93387 16.5416 7.94446 16.5469 7.94976 16.568C8.03976 16.9916 7.3939 17.4152 7.01803 17.3357C7.00029 17.3319 6.98455 17.3217 6.97381 17.3071C6.96309 17.2924 6.95809 17.2743 6.9598 17.2563Z" fill="#010101"/>
<path d="M11.8146 21.0001H11.5499L10.5176 20.8783L13.5298 18.0302C13.6091 17.9561 13.6939 17.8767 13.7944 17.8026C13.9216 17.6967 13.7574 17.5273 13.7416 17.4109C13.731 17.395 13.7416 17.3896 13.7574 17.3896C14.001 17.4479 14.128 17.6015 14.128 17.8449C14.1333 18.2155 14.1757 18.5701 14.2497 18.9037C14.2868 19.0678 14.218 19.2054 14.1174 19.3431C13.5145 20.0943 12.7184 20.667 11.8146 21.0001ZM14.7527 20.5661C14.488 20.6613 14.2021 20.7354 13.8898 20.7884L14.5251 20.1425C14.5293 20.1385 14.5344 20.1357 14.5398 20.1341C14.5454 20.1325 14.5511 20.1322 14.5569 20.1332C14.5624 20.1344 14.5679 20.1365 14.5724 20.14C14.577 20.1434 14.5806 20.1479 14.5833 20.1531L14.7527 20.5661Z" fill="#28407E"/>
<path d="M10.3213 20.8515L9.45312 20.6344C9.61191 20.5338 9.76014 20.4809 9.89256 20.4756C10.0513 20.4756 10.189 20.5233 10.3002 20.6238C10.3531 20.6715 10.3584 20.7456 10.3213 20.8515Z" fill="#A31B1F"/>
</svg>
