<svg width="24" height="24" viewBox="0 0 24 24" fill="none" xmlns="http://www.w3.org/2000/svg">
<path d="M13.2775 5.27835C13.9721 5.27646 14.6627 5.38224 15.3248 5.59193C14.2318 7.58095 12.4085 9.52517 11.6066 10.2688C11.5678 10.3102 11.5462 10.3649 11.5462 10.4216C11.5461 10.4784 11.5675 10.533 11.6062 10.5746C11.6449 10.6161 11.6978 10.6414 11.7546 10.6453C11.8112 10.6493 11.8671 10.6315 11.9112 10.5959C12.7355 9.83427 14.6304 7.81837 15.7504 5.74872C16.1401 5.90104 16.5119 6.08919 16.8569 6.3087C14.1242 11.0662 9.85948 13.8482 7.27018 15.0129C6.56581 13.6146 6.374 12.0134 6.72812 10.4883L8.63202 11.5858L8.11685 9.16231L9.95803 7.50032L8.43491 7.33904C9.06128 6.68655 9.81323 6.1676 10.6455 5.81345C11.4778 5.4593 12.3731 5.27728 13.2775 5.27835ZM17.2286 6.55957C14.4513 11.3754 10.1417 14.2021 7.48521 15.407C8.11525 16.4734 9.02653 17.3461 10.1193 17.9292C11.5842 17.4589 14.1466 16.3434 16.0237 14.547C16.2341 14.3454 16.4358 14.1394 16.6285 13.9198C16.4921 13.762 16.415 13.5616 16.4106 13.3531C16.4061 13.1446 16.4745 12.9412 16.6041 12.7777C16.7335 12.6142 16.916 12.501 17.1199 12.4576C17.324 12.4142 17.5367 12.4434 17.7215 12.5401C18.413 11.5452 18.9957 10.4788 19.4596 9.35942C18.9819 8.24214 18.2111 7.27476 17.2286 6.55957ZM19.6836 9.96422C19.2341 10.9738 18.6896 11.9382 18.0574 12.8447C18.1617 13.0022 18.2134 13.1886 18.2053 13.3773C18.1973 13.5659 18.1299 13.7472 18.0126 13.8953C17.8953 14.0433 17.7343 14.1506 17.5525 14.2015C17.3707 14.2526 17.1774 14.245 17.0002 14.1796C16.7853 14.4171 16.5657 14.65 16.3282 14.874C14.5722 16.554 12.2472 17.6515 10.7017 18.207C11.8849 18.6986 13.1839 18.8418 14.4458 18.6195C15.7077 18.3973 16.8797 17.819 17.8237 16.9526C18.7678 16.0863 19.4444 14.9682 19.774 13.7299C20.1035 12.4917 20.0721 11.1851 19.6836 9.96422Z" fill="url(#paint0_linear_328_36925)"/>
<path d="M6.55795 5.89258L7.3016 7.55904L9.1159 7.75167L7.75853 8.97017L8.1393 10.7576L6.55795 9.84373L4.97659 10.7576L5.35737 8.97017L4 7.75167L5.81431 7.55904L6.55795 5.89258Z" fill="url(#paint1_linear_328_36925)"/>
<defs>
<linearGradient id="paint0_linear_328_36925" x1="4.19035" y1="13.212" x2="19.9789" y2="13.5101" gradientUnits="userSpaceOnUse">
<stop stop-color="#FFAF02"/>
<stop offset="1" stop-color="#FF5E1C"/>
</linearGradient>
<linearGradient id="paint1_linear_328_36925" x1="4.11647" y1="8.35668" x2="8.1841" y2="8.58068" gradientUnits="userSpaceOnUse">
<stop stop-color="#EF6A37"/>
<stop offset="1" stop-color="#F29725"/>
</linearGradient>
</defs>
</svg>
