<svg width="24" height="24" viewBox="0 0 24 24" fill="none" xmlns="http://www.w3.org/2000/svg">
<path d="M2.40606 3.40339L10.1585 7.74714L8.33358 8.77215C8.19607 8.84778 8.02107 8.8034 7.94982 8.77215L4.40357 6.7709C4.09732 6.63777 3.87482 6.85215 3.87482 6.97653V17.1715C3.87482 17.4878 4.29794 17.414 4.43669 17.3372C8.06357 15.2834 15.3724 11.1496 15.5948 11.0472C15.8167 10.9453 16.0024 11.0046 16.0667 11.0472L17.4486 11.8359C17.6824 12.0672 17.5085 12.2603 17.3923 12.3278L2.56481 20.6403C2.07044 20.919 1.98356 20.6009 2.00232 20.4065V3.55465C2.01856 3.27277 2.27794 3.3359 2.40606 3.40339Z" fill="#8AE2D8"/>
<path d="M21.5938 20.5967L13.8413 16.2529L15.6663 15.228C15.8038 15.1529 15.9788 15.1967 16.05 15.228L19.5963 17.2293C19.9026 17.3623 20.125 17.1479 20.125 17.0237V6.82858C20.125 6.51234 19.7019 6.58609 19.5638 6.66296C15.9369 8.71672 8.6275 12.8505 8.40501 12.953C8.18251 13.0555 7.9975 12.9954 7.93251 12.953L6.55126 12.1648C6.3175 11.9329 6.49126 11.7398 6.60751 11.6723L21.435 3.35983C21.9294 3.08108 22.0163 3.3992 21.9975 3.59358V20.4461C21.9813 20.7274 21.7219 20.6637 21.5938 20.5967Z" fill="#2C5FF3"/>
</svg>
