<svg width="24" height="24" viewBox="0 0 24 24" fill="none" xmlns="http://www.w3.org/2000/svg">
<path d="M12 21C14.387 21 16.6761 20.0518 18.364 18.3639C20.0518 16.6761 21 14.387 21 12C21 9.61306 20.0518 7.32386 18.364 5.63603C16.6761 3.94821 14.387 3 12 3C9.61306 3 7.32386 3.94821 5.63603 5.63603C3.94821 7.32386 3 9.61306 3 12C3 14.387 3.94821 16.6761 5.63603 18.3639C7.32386 20.0518 9.61306 21 12 21Z" fill="url(#paint0_linear_328_29780)"/>
<path d="M20.1208 12.0001C20.1208 14.1539 19.2651 16.2196 17.7421 17.7426C16.2192 19.2656 14.1535 20.1213 11.9996 20.1213C9.84575 20.1213 7.78007 19.2656 6.25706 17.7426C4.73404 16.2196 3.87842 14.1539 3.87842 12.0001C3.87842 9.84627 4.73404 7.78057 6.25706 6.25755C7.78007 4.73454 9.84575 3.87891 11.9996 3.87891C14.1535 3.87891 16.2192 4.73454 17.7421 6.25755C19.2651 7.78057 20.1208 9.84627 20.1208 12.0001Z" fill="url(#paint1_linear_328_29780)"/>
<path fill-rule="evenodd" clip-rule="evenodd" d="M11.9996 19.9731C13.0642 20.0005 14.1236 19.8145 15.1153 19.426C16.1068 19.0374 17.0107 18.4544 17.7734 17.7111C18.5361 16.9677 19.1424 16.0793 19.5562 15.0979C19.9701 14.1167 20.1833 13.0625 20.1833 11.9974C20.1833 10.9325 19.9701 9.87814 19.5562 8.89689C19.1424 7.9156 18.5361 7.0271 17.7734 6.28378C17.0107 5.54046 16.1068 4.95738 15.1153 4.56891C14.1236 4.18043 13.0642 3.99442 11.9996 4.02185C9.91987 4.07544 7.94341 4.93923 6.49143 6.42911C5.03946 7.91897 4.22686 9.91704 4.22686 11.9974C4.22686 14.0778 5.03946 16.0759 6.49143 17.5657C7.94341 19.0556 9.91987 19.9194 11.9996 19.9731ZM11.9996 20.1213C14.1535 20.1213 16.2192 19.2656 17.7421 17.7426C19.2651 16.2196 20.1208 14.1539 20.1208 12.0001C20.1208 9.84627 19.2651 7.78057 17.7421 6.25755C16.2192 4.73454 14.1535 3.87891 11.9996 3.87891C9.84575 3.87891 7.78007 4.73454 6.25705 6.25755C4.73404 7.78057 3.87842 9.84627 3.87842 12.0001C3.87842 14.1539 4.73404 16.2196 6.25705 17.7426C7.78007 19.2656 9.84575 20.1213 11.9996 20.1213Z" fill="url(#paint2_linear_328_29780)"/>
<path d="M9.38992 20.5567L17.8075 12.1549L14.9487 9.32784L11.984 9.44432L8.99816 6.72314L3.06875 12.8538C2.87817 12.949 3.8311 15.5325 5.91699 18.2326C7.99757 20.9325 8.10346 20.8479 9.38992 20.5567Z" fill="url(#paint3_linear_328_29780)"/>
<path d="M11.9995 17.8866L17.8231 12.169V9.38428L11.9995 15.1072V17.8866Z" fill="url(#paint4_linear_328_29780)"/>
<path d="M12.0003 17.8866L6.17676 12.169V9.38428L12.0003 15.1072V17.8866Z" fill="url(#paint5_linear_328_29780)"/>
<path d="M12.0103 9.42139L9.05615 12.3172V15.0067L12.0103 12.2008V9.42139Z" fill="url(#paint6_linear_328_29780)"/>
<path d="M11.9995 9.42139L14.943 12.3172V15.0067L11.9995 12.2008V9.42139Z" fill="url(#paint7_linear_328_29780)"/>
<path d="M17.8239 12.1593L14.9438 9.33222V6.55811L17.8239 9.37987V12.1593Z" fill="url(#paint8_linear_328_29780)"/>
<path d="M6.17676 12.1593L9.06204 9.33222V6.55811L6.17676 9.37987V12.1593Z" fill="url(#paint9_linear_328_29780)"/>
<path d="M11.9902 12.2282L14.9443 9.33222V6.55811L11.9902 9.44869V12.2282Z" fill="#D28A1C"/>
<path d="M11.9998 12.2282L9.06152 9.33222V6.55811L11.9998 9.44869V12.2282Z" fill="#FFAA27"/>
<defs>
<linearGradient id="paint0_linear_328_29780" x1="23.1971" y1="-0.181769" x2="12" y2="22.9377" gradientUnits="userSpaceOnUse">
<stop offset="0.14" stop-color="#FDEBEE"/>
<stop offset="0.5" stop-color="#4D259B"/>
<stop offset="0.71" stop-color="#291D99"/>
<stop offset="1" stop-color="#120C40"/>
</linearGradient>
<linearGradient id="paint1_linear_328_29780" x1="19.1339" y1="4.17935" x2="4.07912" y2="18.9349" gradientUnits="userSpaceOnUse">
<stop stop-color="#CABFFF"/>
<stop offset="0.5" stop-color="#4D259B"/>
<stop offset="0.71" stop-color="#291D99"/>
<stop offset="1" stop-color="#120C40"/>
</linearGradient>
<linearGradient id="paint2_linear_328_29780" x1="17.418" y1="3.00009" x2="3.70195" y2="19.8162" gradientUnits="userSpaceOnUse">
<stop stop-color="#7D51A3"/>
<stop offset="1" stop-color="#3A28EE"/>
</linearGradient>
<linearGradient id="paint3_linear_328_29780" x1="14.4997" y1="8.37524" x2="7.55996" y2="17.2165" gradientUnits="userSpaceOnUse">
<stop stop-opacity="0.71"/>
<stop offset="0.98" stop-opacity="0"/>
</linearGradient>
<linearGradient id="paint4_linear_328_29780" x1="46.8049" y1="-5.80989" x2="15.5959" y2="38.6158" gradientUnits="userSpaceOnUse">
<stop offset="0.49" stop-color="#FFAA27"/>
<stop offset="0.85" stop-color="#5547BF"/>
<stop offset="1" stop-color="#180D65"/>
</linearGradient>
<linearGradient id="paint5_linear_328_29780" x1="-14.4597" y1="-8.63434" x2="5.5693" y2="26.3304" gradientUnits="userSpaceOnUse">
<stop offset="0.49" stop-color="#FFAA27"/>
<stop offset="1" stop-color="#8679E8"/>
</linearGradient>
<linearGradient id="paint6_linear_328_29780" x1="2.58035" y1="18.1503" x2="8.64385" y2="7.63916" gradientUnits="userSpaceOnUse">
<stop stop-color="white"/>
<stop offset="1" stop-color="#FFC772" stop-opacity="0.63"/>
</linearGradient>
<linearGradient id="paint7_linear_328_29780" x1="23.9456" y1="16.8536" x2="17.1902" y2="5.25238" gradientUnits="userSpaceOnUse">
<stop stop-color="white"/>
<stop offset="1" stop-color="#FFC772" stop-opacity="0.63"/>
</linearGradient>
<linearGradient id="paint8_linear_328_29780" x1="-53.8121" y1="7.61103" x2="-50.8476" y2="26.1985" gradientUnits="userSpaceOnUse">
<stop stop-color="white"/>
<stop offset="1" stop-color="#FFC772" stop-opacity="0.47"/>
</linearGradient>
<linearGradient id="paint9_linear_328_29780" x1="21.3966" y1="6.06284" x2="11.9119" y2="22.3005" gradientUnits="userSpaceOnUse">
<stop stop-color="white"/>
<stop offset="1" stop-color="#FFC772" stop-opacity="0.63"/>
</linearGradient>
</defs>
</svg>
