<svg width="24" height="24" viewBox="0 0 24 24" fill="none" xmlns="http://www.w3.org/2000/svg">
<path fill-rule="evenodd" clip-rule="evenodd" d="M14.15 2L11.9999 3.22223L9.84991 2L7.46664 3.32222V4.46667L5.31664 5.63334V8.16112L3.11108 9.38889V14.5945L5.31664 15.8167V18.3167L7.46664 19.5167V20.7111L9.84991 22L11.9999 20.7889L14.15 22L16.5334 20.7055V19.5111L18.6833 18.3111V15.8111L20.8889 14.5889V9.38889L18.6833 8.16668V5.6389L16.5334 4.46667V3.32222L14.15 2ZM11.8167 3.51112L9.84447 2.39445L7.81664 3.52223V4.46667L10.0222 5.63334V8.13334C10.1846 8.18487 10.3231 8.29297 10.4125 8.43798C10.5018 8.583 10.5363 8.75529 10.5093 8.92351C10.4824 9.09173 10.396 9.2447 10.2658 9.35458C10.1356 9.46442 9.97034 9.52392 9.8 9.52223C9.41111 9.52223 9.08887 9.20557 9.08887 8.81668C9.08887 8.46668 9.33886 8.17779 9.67219 8.11668V5.83889L7.81664 4.85556V6.30001C7.97709 6.3498 8.11495 6.45439 8.20613 6.59548C8.29732 6.73658 8.33603 6.90523 8.31552 7.07197C8.29502 7.23871 8.21658 7.39295 8.09391 7.50775C7.97124 7.62253 7.81216 7.69059 7.64442 7.70001C7.24442 7.70001 6.9222 7.38334 6.9222 6.99445C6.9222 6.66112 7.15553 6.38334 7.46664 6.30001V4.85556L5.66108 5.83889V8.16668L7.81664 9.38889V14.5889L5.66108 15.8111V18.1111L7.46664 19.1111V17.7111C7.31094 17.6736 7.17249 17.5846 7.07367 17.4586C6.97487 17.3326 6.92148 17.1769 6.9222 17.0166C6.9222 16.6278 7.24442 16.3056 7.64442 16.3056C8.03331 16.3056 8.36109 16.6278 8.36109 17.0166C8.36109 17.3501 8.12775 17.6278 7.81664 17.7111V19.1166L9.66662 18.1111V15.8611C9.50587 15.8291 9.361 15.7425 9.25673 15.6159C9.15244 15.4893 9.0951 15.3307 9.09442 15.1667C9.09442 14.7722 9.41669 14.4556 9.81102 14.4556C10.2055 14.4556 10.5277 14.7722 10.5277 15.1667C10.5277 15.489 10.3111 15.7612 10.0166 15.8444V18.3111L7.81108 19.5111V20.5056L9.83889 21.6055L11.8111 20.4945V14.5112H12.1555V20.4889L14.15 21.6111L16.1778 20.5111V19.5111L13.9721 18.3167V15.85C13.8254 15.8071 13.6965 15.7179 13.6044 15.5958C13.5123 15.4737 13.462 15.3251 13.4611 15.1723C13.4611 14.7778 13.7833 14.4611 14.1833 14.4611C14.5722 14.4611 14.8945 14.7778 14.8945 15.1723C14.8945 15.5167 14.65 15.8001 14.3223 15.8667V18.1111L16.1778 19.1166V17.7111C16.0221 17.6736 15.8837 17.5846 15.7847 17.4586C15.686 17.3326 15.6326 17.1769 15.6333 17.0166C15.6333 16.6278 15.9555 16.3056 16.3555 16.3056C16.7444 16.3056 17.0722 16.6278 17.0722 17.0166C17.0722 17.3501 16.8389 17.6278 16.5278 17.7111V19.1166L18.3333 18.1111V15.8111L16.1778 14.5889V9.38889L18.3333 8.16668V5.83335L16.5278 4.85001V6.29445C16.6883 6.34426 16.8261 6.44883 16.9172 6.58993C17.0085 6.73103 17.0472 6.89968 17.0266 7.06642C17.0061 7.23317 16.9277 7.3874 16.8051 7.50219C16.6823 7.61699 16.5233 7.68503 16.3555 7.69445C15.9555 7.69445 15.6333 7.37779 15.6333 6.9889C15.6333 6.65556 15.8667 6.37779 16.1778 6.29445V4.85001L14.3333 5.83335V8.11112C14.6667 8.16668 14.9166 8.46112 14.9166 8.81112C14.9166 9.20001 14.5944 9.52223 14.2 9.52223C13.8056 9.52223 13.4833 9.20001 13.4833 8.81112C13.4833 8.4889 13.6945 8.22223 13.9833 8.12779V5.62779L16.1888 4.46112V3.51667L14.1611 2.38889L12.1611 3.52223V9.50007H11.8222V3.51112H11.8167ZM18.5111 8.46112L20.5445 9.58886V11.8889L19.0833 12.7223C18.9863 12.6158 18.8597 12.5409 18.7198 12.507C18.5798 12.4731 18.4331 12.4818 18.2981 12.532C18.1632 12.5821 18.0463 12.6715 17.9624 12.7885C17.8787 12.9056 17.8317 13.045 17.8277 13.1889C17.8277 13.5834 18.1444 13.9055 18.5444 13.9055C18.6518 13.9057 18.7578 13.8816 18.8546 13.8351C18.9515 13.7887 19.0365 13.7212 19.1038 13.6375C19.1709 13.5537 19.2185 13.456 19.2429 13.3514C19.2673 13.2469 19.2678 13.1381 19.2444 13.0334L20.5445 12.2833V14.3889L18.5111 15.5111L16.5334 14.3889V12.0833L18.0222 11.1945C18.122 11.2966 18.2497 11.3669 18.3893 11.3964C18.5289 11.426 18.6741 11.4135 18.8067 11.3606C18.9392 11.3078 19.0531 11.2168 19.134 11.0992C19.2149 10.9816 19.2591 10.8428 19.261 10.7C19.261 10.3112 18.9389 9.9889 18.5389 9.9889C18.4288 9.98929 18.3204 10.015 18.2219 10.064C18.1234 10.1131 18.0376 10.1841 17.971 10.2716C17.9043 10.3593 17.8587 10.4609 17.8378 10.569C17.8168 10.677 17.821 10.7883 17.85 10.8945L16.5334 11.6833V9.58886L18.5111 8.46112ZM3.45552 9.58886L5.48886 8.46112L7.46664 9.58886V11.6833L6.14997 10.8945C6.16664 10.8333 6.1722 10.7667 6.1722 10.7C6.1722 10.3112 5.85553 9.9889 5.45553 9.9889C5.06108 9.9889 4.73886 10.3112 4.73886 10.7C4.73886 11.0945 5.06108 11.4111 5.46109 11.4111C5.66108 11.4111 5.84998 11.3278 5.97775 11.1889L7.46664 12.0833V14.3889L5.48886 15.5111L3.45552 14.3889V12.2778L4.75553 13.0278C4.73112 13.1327 4.73086 13.2418 4.75476 13.3468C4.77868 13.4518 4.82612 13.5501 4.89354 13.6341C4.96095 13.7181 5.04657 13.7856 5.14392 13.8316C5.24128 13.8778 5.34783 13.9011 5.45553 13.9C5.55637 13.9127 5.65875 13.9037 5.75587 13.8738C5.85299 13.8437 5.94261 13.7935 6.01882 13.7263C6.09502 13.659 6.15605 13.5763 6.19784 13.4836C6.23965 13.391 6.26125 13.2906 6.26125 13.1889C6.26125 13.0873 6.23965 12.9868 6.19784 12.8942C6.15605 12.8015 6.09502 12.7188 6.01882 12.6516C5.94261 12.5843 5.85299 12.534 5.75587 12.5041C5.65875 12.4742 5.55637 12.4652 5.45553 12.4778C5.23887 12.4778 5.04442 12.5723 4.91664 12.7223L3.45552 11.8833V9.58329V9.58886ZM9.77771 13.6666V10.3333L13.6666 12.5945V10.3333H14.2222V13.6666L10.3333 11.4278V13.6666H9.77771Z" fill="url(#paint0_linear_364_11817)"/>
<defs>
<linearGradient id="paint0_linear_364_11817" x1="3.11108" y1="11.2445" x2="21.7222" y2="11.4" gradientUnits="userSpaceOnUse">
<stop stop-color="#350B69"/>
<stop offset="0.81" stop-color="#329FB3"/>
<stop offset="1" stop-color="#83D3D7"/>
</linearGradient>
</defs>
</svg>
