<svg width="24" height="24" viewBox="0 0 24 24" fill="none" xmlns="http://www.w3.org/2000/svg">
<path fill-rule="evenodd" clip-rule="evenodd" d="M14.088 8.63091L14.5413 9.60423L14.1325 9.94641C13.8836 10.1998 14.0791 10.1375 13.8658 10.342L13.368 10.2798C13.208 9.95533 13.528 10.0975 13.0569 9.96871C12.3547 9.94641 11.9547 9.65757 11.288 9.86645C11.128 9.91978 10.728 10.1375 10.6125 10.1776C10.2836 10.2798 10.248 10.1465 9.91917 10.1908L9.76807 10.6575C9.96366 10.5064 9.92809 10.542 10.0525 10.3775L10.417 10.4753L10.408 10.5509H10.8347C11.137 10.6931 10.7636 10.862 11.5235 10.3732C12.1236 10.6665 13.4702 10.3065 13.5103 11.342C13.8481 12.6087 13.9014 10.9997 13.8747 12.1864C14.3991 13.1864 14.4524 11.3331 13.8747 12.662C13.9813 12.662 14.328 12.6797 14.4257 12.6442C14.9058 12.4664 14.6657 12.2308 15.0302 12.222C14.9947 11.7775 15.9902 11.0353 15.9457 10.4753C15.9457 10.3598 15.6969 9.11091 15.5547 8.70647C14.7635 8.57313 15.4835 8.63091 14.8702 8.45313C14.4524 8.33758 14.4347 8.28424 14.0169 8.35535C14.088 8.53313 14.0435 8.46202 14.088 8.63091Z" fill="#722D14"/>
<path d="M14.4084 16.8575L13.2972 16.6131L13.0839 16.5153L12.9506 16.462C13.1105 16.0441 13.3417 16.3153 13.3417 15.8042L12.7284 15.7509C12.604 16.2975 12.675 16.182 12.8973 16.5242C12.7728 16.4797 12.7461 16.4709 12.6128 16.413L12.3551 16.2531C12.5862 16.1553 12.3994 16.3686 12.5595 16.0441C12.6839 15.7865 12.6395 15.7109 12.6395 15.6753C12.0174 15.4353 12.0084 15.8219 12.1862 16.2797C11.8395 16.413 11.555 16.2886 11.2795 16.2709C11.4129 15.8841 11.4306 15.9731 11.3329 15.5775C10.7729 15.742 10.915 15.9197 11.084 16.342H10.8084C10.7817 16.5419 10.6751 16.4486 10.8618 16.6308C11.6084 16.5597 11.9906 16.4087 12.7372 16.6308L13.4395 16.8308C13.7683 17.1064 13.4217 17.3686 13.3061 17.4976L13.1105 17.853C13.6439 17.9908 14.1061 18.2975 14.3106 18.853L14.435 18.9597L14.7639 18.9686L14.6128 19.3996C14.1951 19.7331 13.9639 19.6264 13.6973 19.7552C13.4751 19.8707 13.6528 19.7508 13.4928 19.9152C13.8484 19.9152 14.2128 19.9775 14.5505 19.8352C14.6573 19.7908 15.1017 19.5019 15.1994 19.4086C15.8395 18.7864 15.1639 18.6176 15.235 17.7641C15.3151 16.7864 15.4395 15.9731 16.1061 15.5597C16.346 15.4087 16.5461 15.2887 16.5372 15.0042C16.195 14.8487 16.4083 14.8664 16.1061 15.013C15.9194 15.1109 15.9906 15.182 15.7773 15.2353C15.8039 14.733 16.0261 14.0753 15.8483 13.7598C15.4039 13.7509 15.4839 13.8487 15.4395 14.2576C15.2883 15.4709 15.2084 15.0753 15.1906 16.693C14.9061 16.8264 14.5772 17.2264 14.4084 16.8575Z" fill="#B99548"/>
<path d="M11.0391 4.84467C10.4701 4.51134 9.71466 4.93801 8.968 4.96467C8.75468 5.36467 8.79023 5.24022 8.52357 5.46689C8.37246 5.60022 8.24801 5.88021 8.11468 5.73355L7.99023 5.69355C8.04357 6.02243 8.10579 6.23132 8.12357 6.62687C8.53245 6.49354 8.2569 6.62687 8.55912 6.39132C9.27023 5.82688 9.91021 5.64466 10.728 6.02243L11.1369 6.16021L11.1991 6.18688C11.1013 6.31133 11.048 6.39132 10.9502 6.54687C11.2524 6.75131 11.3057 6.67132 11.0924 7.0802C11.1901 7.20464 11.1369 7.01353 11.1546 7.24908C11.1635 7.41798 11.1546 7.24908 11.1369 7.42686C11.119 7.60908 11.1013 7.57353 11.119 7.84019L11.2969 7.34687C11.4035 7.07576 11.3947 7.23131 11.4657 6.95132L11.608 6.21355C11.9191 6.30243 12.2569 6.03133 12.4879 6.50243C13.1636 6.45798 13.0569 6.11576 13.2435 6.39132C13.6968 6.23132 14.9413 6.12466 15.1457 5.68466C13.8836 4.59579 13.5546 4.93801 12.3813 4.74689L11.9901 4.71135C11.7769 4.5469 11.9191 4.43135 11.4924 4.60468C11.1901 4.738 11.288 4.76467 11.0391 4.84467Z" fill="#8F332C"/>
<path d="M11.0306 19.8658C11.0306 19.5725 10.9862 19.6081 10.8262 19.3769C10.6661 19.1414 10.6572 19.3325 10.7373 18.9947C9.24395 18.7458 9.45728 17.5947 10.6751 17.8525L10.8172 17.7459C11.2084 17.5548 11.3683 17.5859 11.4483 17.0792C11.2439 16.9724 9.85727 16.9636 9.94614 16.7992L8.98617 17.168C8.65729 16.7547 8.36395 15.5769 8.26618 14.9459C8.15951 14.2926 8.23062 14.3281 7.9284 14.1548L7.90175 14.497C7.52841 14.5948 7.86619 14.3637 7.56396 14.697C8.28396 15.0214 8.37284 17.5369 8.1684 18.4304C7.74174 20.2747 10.8795 19.8259 11.0306 19.8614V19.8658Z" fill="#573928"/>
<path d="M15.5457 8.73362C15.3946 9.00918 15.7413 9.04473 15.359 8.95585L15.5457 10.0536L15.4035 10.147C15.3946 10.1559 15.368 10.1736 15.368 10.1825L15.3057 10.2536L15.2791 10.2891L15.1457 10.4402L15.0924 10.4758L14.8879 10.5957C14.8524 9.88472 14.9501 10.2625 14.6746 10.2181L14.6835 10.7381C14.8169 12.2225 14.9324 12.338 15.0213 12.2403C15.1101 12.1425 15.1724 11.8269 15.9013 12.0358L16.6079 12.1692C17.1146 12.2047 16.6791 12.2047 16.7501 12.1602L16.528 10.7558C16.5634 10.7381 16.5902 10.7025 16.599 10.7202L17.0257 10.5514C16.9546 10.2181 16.8479 10.2447 16.8568 9.97356C17.079 9.92918 16.8924 10.018 16.9724 9.8225C16.6079 9.49806 16.919 9.65806 16.7057 9.07585L16.1857 8.72474L15.9813 9.09362V9.13806C15.9813 9.12917 15.9813 9.16473 15.9901 9.17362C15.9901 8.73363 15.9991 8.7514 15.5457 8.73362ZM8.12359 8.17808C8.11471 8.48029 7.92804 8.46251 7.74138 8.66695C7.30583 8.53363 7.4125 8.51585 6.84361 8.4003L6.99472 8.71585C7.05694 8.92918 6.98584 9.80473 6.76362 9.76917C6.71029 9.9914 6.71029 10.0447 6.59473 10.2181C7.1725 11.0537 6.86139 11.3425 6.87917 11.6936C7.0036 11.8091 8.0436 11.8892 8.2836 11.8892C8.41692 11.0358 8.51471 11.3113 9.10136 10.7336C9.09247 8.68918 9.19025 9.11141 8.71026 8.28919C9.15469 8.30252 8.76359 8.31141 8.92358 8.21808L8.65692 8.14697C8.31026 8.30252 8.57693 8.27141 8.12359 8.18252V8.17808Z" fill="#271914"/>
<path d="M9.9722 7.98525C10.23 8.20748 10.1589 7.96748 10.2033 8.20748C9.89224 8.24303 9.47446 9.1408 9.14558 9.443C9.27002 9.15413 9.34113 9.21634 8.89669 8.91858C8.43447 9.36301 8.58558 9.29635 8.65669 9.60301C8.53226 9.70079 8.58558 9.65635 8.48781 9.54968C8.4967 9.57635 8.54113 9.70968 8.54113 9.72745L8.55002 9.78523C8.63003 10.3586 8.40781 9.70968 8.60336 10.123C8.8878 10.7363 8.73669 9.70079 8.97669 10.4785L8.75448 10.7007C8.69225 10.7719 7.86559 11.1675 7.76782 11.4651C7.72337 11.6075 7.75004 11.6207 7.72337 11.7807C7.48337 11.7807 7.33227 11.7896 7.20783 11.6741C6.9856 11.9852 6.95006 11.9985 6.96783 12.3763C7.10116 12.3586 7.63449 12.123 7.81226 12.0519L8.00782 11.9763C8.31002 12.1675 8.68336 12.483 8.89669 12.6075C8.98557 12.4651 9.33224 11.6741 9.5189 11.363C9.71446 11.0341 9.69668 11.203 9.72334 10.7986C8.97669 10.9008 9.45669 10.2518 9.52779 10.1363L9.67001 9.92747C9.99885 9.50523 9.56335 9.56745 10.1411 9.32301C9.77668 9.1808 10.1322 8.63858 10.4967 7.77637C10.2567 8.00303 10.2211 7.98525 10.1233 7.96748C10.1056 7.96748 10.0611 8.00303 10.0523 7.97637C10.0433 7.94969 9.99885 7.97637 9.9722 7.98525Z" fill="#573928"/>
<path d="M11.4742 16.9902L10.6831 17.8613L11.0031 18.4835C10.8609 18.7635 10.8431 18.6523 10.7365 19.0035C10.6565 19.3457 10.6653 19.1413 10.8254 19.3902C10.9765 19.6167 11.0298 19.5901 11.0298 19.8701L11.2965 19.8435C11.6165 19.5368 11.5276 19.5458 11.5276 19.2746C11.5631 18.7413 11.652 19.2391 11.7853 18.6079L11.9187 18.8302C12.0698 19.0791 12.1321 19.0968 12.1231 19.3279C12.2565 19.3813 12.9942 19.4391 13.1009 19.4391C13.4387 19.4479 13.412 19.5457 13.7676 19.5012C14.2209 19.4479 14.3364 19.2924 14.4342 18.9679L14.3098 18.8613C14.3098 18.8701 13.5276 18.7635 13.1898 18.4391L13.1097 17.8613L13.3053 17.5057C12.7986 17.2968 13.3942 17.3857 12.2032 17.6301C12.6921 16.5947 11.9543 16.7546 11.4742 16.9902Z" fill="#786757"/>
<path d="M9.94607 16.8082C9.76832 17.1415 9.83942 16.9103 9.52832 17.177C9.54609 17.177 10.2216 16.8749 10.7016 17.3148C10.675 17.0882 10.5861 17.0926 10.755 17.0703C10.755 17.0703 10.755 17.0882 10.8616 17.1504C10.9239 17.186 11.0127 17.2259 11.0927 17.2615L11.3505 17.3859C11.5994 17.3326 11.5016 17.4926 11.5639 17.2438L11.6705 17.306C11.9905 17.2794 11.5105 17.2704 11.955 17.1682C11.8927 17.7192 12.0083 17.1592 12.0527 17.457C12.0705 17.577 12.0527 17.6126 12.0439 17.6348C12.0439 17.6393 11.9283 17.8126 11.9105 17.8704C13.1016 17.6215 12.7905 17.297 13.306 17.5148C13.4305 17.3859 13.7682 17.1238 13.4394 16.8482L12.6883 16.5414C9.87942 16.1726 11.6305 16.457 9.94607 16.8082Z" fill="#372718"/>
<path d="M13.048 8.03088C13.1992 8.38643 13.2436 8.2442 13.1903 8.73309C12.417 9.00863 12.5503 9.02197 12.097 8.57753C11.9992 8.83975 12.088 8.66642 11.9459 8.81308C11.6437 9.13753 11.1726 9.18197 10.9414 8.95531C10.7637 8.67086 10.9325 8.37753 11.0036 8.11976L10.6126 8.08421C10.4348 8.7242 10.3814 8.75976 10.2393 9.30641C10.808 9.28864 10.6392 9.13753 10.8703 9.28863C11.3859 9.62196 12.1947 9.93756 12.9059 9.56863C13.2347 9.30196 13.4747 9.28863 13.8747 9.18197C13.9726 8.75976 13.7147 8.40864 13.5547 8.03976L13.5281 7.89309C12.9681 7.90643 13.3503 7.76865 13.048 8.03088Z" fill="#AE2917"/>
<path d="M10.497 7.77653C10.2304 8.39874 9.91039 8.65208 9.67928 9.18985L10.1415 9.32318C9.56374 9.56761 9.99924 9.50095 9.67039 9.92763L9.52818 10.1365C9.45706 10.2609 8.96819 10.901 9.72373 10.7988L9.76818 10.6564L9.91928 10.1898C10.257 10.1543 10.2926 10.2788 10.6127 10.1721C10.7282 10.1365 11.1282 9.91873 11.2882 9.8654C11.9549 9.65651 12.3548 9.93655 13.057 9.97201L12.7015 9.81206L12.897 9.56761C12.6038 9.71872 11.1993 9.50539 10.8615 9.28762C10.6303 9.13651 10.7993 9.28762 10.2304 9.3054C10.4171 8.6032 10.5238 9.01652 10.7192 8.82097C10.4703 8.72319 10.3459 8.99874 10.6037 8.0832L10.9948 8.12763L11.1104 7.81653C11.0838 7.55431 11.1015 7.59431 11.1282 7.40765C11.146 7.23876 11.1548 7.39876 11.146 7.22988C11.1282 6.99433 11.1814 7.19432 11.0838 7.06543L10.7548 7.77653H10.497Z" fill="#EB8E73"/>
<path d="M11.4742 6.93262C12.5586 6.92372 12.3453 7.16817 13.0474 8.03038C13.3498 7.77705 12.9764 7.90594 13.5186 7.8926C13.4386 7.16817 12.7986 7.25706 13.643 6.73706C14.6208 6.14152 14.1942 6.69262 15.1097 6.8615L14.7719 6.43929C14.4964 6.15041 14.1052 6.08374 13.7142 6.17706C13.4653 6.23929 13.3764 6.39041 13.4742 6.50151L13.2609 6.36818C13.1631 5.64375 13.3142 6.2304 12.6208 6.27485C12.5764 6.17706 12.5497 5.83041 12.5409 5.7993C12.4164 5.7993 12.1942 5.80819 11.9986 5.79041C11.572 5.73708 11.8386 5.77263 11.5986 5.67041C11.3053 5.99485 11.5809 5.69263 11.4297 6.06152L11.4742 6.93262Z" fill="#370B07"/>
<path d="M6.9678 12.3783C6.95002 11.9918 6.98558 11.9873 7.2078 11.6762C7.24334 11.3783 7.31445 11.2984 7.2078 11.0361L6.93224 10.5918L6.82558 10.4318C6.74558 10.3161 6.73669 10.3251 6.67447 10.2184C6.79002 10.0406 6.7989 10.0806 6.85224 9.86286C7.08335 9.89397 6.93224 9.89396 7.23446 9.97392C7.2078 9.72064 7.09224 9.2273 7.16335 9.03175L7.3589 8.82287L6.99446 8.7251C6.99446 9.32509 6.89669 9.25397 6.63891 9.60508C6.22114 10.174 5.99003 11.685 6.56779 12.1962C6.68335 12.2761 6.81668 12.4184 6.9678 12.3783Z" fill="#B99548"/>
<path d="M12.1142 19.3199L11.5276 19.2577L11.1987 19.4399C11.3498 19.5287 11.3142 19.5999 11.3054 19.8266C11.4298 19.9687 11.0032 19.9332 11.652 19.9155C12.061 19.9065 11.7587 19.7599 12.212 19.9332C12.6032 20.0843 12.6565 19.9332 13.4831 19.9243C13.6521 19.7599 13.4654 19.8799 13.6876 19.7688C13.9542 19.6265 14.1854 19.742 14.6031 19.4087L14.7543 18.9777L14.4254 18.9688C14.3276 19.2932 14.1943 19.2221 13.732 19.2754C13.3676 19.3199 13.4298 19.311 13.0921 19.3022C12.9854 19.3022 12.2476 19.3821 12.1142 19.3199Z" fill="#463619"/>
<path d="M13.2612 6.36313L13.4745 6.49646C13.3767 6.38091 13.4656 6.22979 13.7145 6.16757C13.8986 6.11415 14.0936 6.11068 14.2795 6.15754C14.4654 6.20441 14.6355 6.2999 14.7723 6.43425L15.11 6.852C15.4833 6.87868 15.43 6.8698 15.6967 6.98534C15.9011 7.07424 15.9278 7.08312 16.0655 7.35423C16.2967 7.18534 16.1234 7.39867 16.1989 7.05646C16.104 6.61294 15.9245 6.19192 15.67 5.81647C15.5279 5.59425 15.5367 5.61647 15.3145 5.5498L15.1279 5.60758C14.9679 5.94979 14.7989 5.76313 14.6301 5.76313C14.4789 5.76313 14.3367 5.77202 14.1767 5.78092C13.4833 5.82535 13.6967 5.63425 13.6167 5.64314C13.5101 6.08758 13.83 6.15869 13.2612 6.36313Z" fill="#90150D"/>
<path d="M16.7543 12.1599C17.4343 12.4754 17.8344 11.9331 17.7721 11.1821C17.7454 10.8532 17.2921 10.1821 17.2032 10.0976C17.0343 9.92878 17.1321 9.94651 16.8743 9.97317C16.8655 10.2443 16.972 10.2088 17.0432 10.551L16.6166 10.7198C16.6076 10.7021 16.581 10.7376 16.5454 10.7554L16.7588 12.1599H16.7543Z" fill="#C79949"/>
<path d="M10.773 4.16889C10.5508 4.86221 10.8975 4.43555 11.013 4.89777C11.2529 4.81778 11.1908 4.72888 11.4841 4.60444C11.9108 4.42222 11.7685 4.54667 11.9819 4.71111L12.3819 4.74666C12.8351 4.82667 13.3951 5.07999 13.6263 4.95555C13.7418 4.89777 13.5996 4.6 13.6619 4.41333C13.4573 4.32445 13.5019 4.32445 13.3151 4.26222C13.2084 4.22667 12.9595 4.17333 12.9595 4.17333C12.6663 4.08001 12.9151 4.07112 12.3995 4.01778L11.0307 4C10.6218 4.08001 10.844 3.92 10.773 4.16889Z" fill="#B0B0AB"/>
<path d="M12.8971 9.55972L12.7017 9.80417L13.0571 9.96419C13.5282 10.0886 13.2171 9.94636 13.3682 10.2753L13.866 10.3331C14.0705 10.133 13.8838 10.1997 14.1327 9.93754L14.5415 9.59528L14.0882 8.61751C13.9193 8.41751 13.866 8.16419 13.546 8.02197C13.706 8.39085 13.9638 8.74196 13.866 9.16418C13.4571 9.28861 13.2261 9.29751 12.8971 9.55972Z" fill="#F1CE90"/>
<path d="M10.648 19.0124C10.4436 18.9857 10.0881 19.0124 9.90136 18.9591L9.45693 18.7369C9.02138 18.5146 9.59914 19.0124 9.30581 18.648L9.89248 18.008C10.2392 17.8524 10.168 17.8613 10.1414 17.6525L10.4169 17.6391C10.1769 17.0525 9.67025 17.528 9.45693 17.6035C9.33248 17.648 8.63916 17.6924 8.85249 18.368C8.96804 18.7457 9.27026 19.0346 9.6347 19.159C10.2036 19.3546 10.5413 19.3813 10.648 19.0124Z" fill="#B78837"/>
<path d="M7.92822 14.1642C8.23044 14.3464 8.07044 14.3198 8.1771 14.9686C8.28377 15.6041 8.6571 16.7641 8.98598 17.1774L9.94595 16.8085L10.7105 16.6485C10.6393 16.5774 10.6749 16.5953 10.5593 16.4975C10.5127 16.4653 10.4618 16.4399 10.4082 16.4219L10.106 16.5996C9.8393 16.4885 9.19931 16.8397 8.98598 17.0085C8.91488 16.6085 8.76376 16.653 8.66599 16.2618C8.60377 15.9953 8.59488 15.5953 8.5771 15.3153C8.55043 14.9552 8.45266 14.6619 8.44377 14.3464C8.43488 13.9241 8.54154 13.7953 8.27488 13.4531C7.65267 13.5286 7.96378 13.7774 7.92822 14.1642Z" fill="#D8C688"/>
<path d="M10.6485 19.0136L10.7374 18.9957C10.844 18.6402 10.8619 18.7557 11.004 18.4757L10.6839 17.8536L10.4174 17.6313L10.1418 17.6402C10.1685 17.8536 10.2396 17.8446 9.89293 18.0001L9.30626 18.6535C9.59959 19.0225 9.02183 18.5202 9.45738 18.7425L9.90182 18.9602C10.0973 19.0225 10.444 18.9869 10.6485 19.0136Z" fill="#E6C779"/>
<path d="M14.3015 18.8623C14.0971 18.3111 13.6438 18 13.1016 17.8623L12.666 18.3867L12.826 18.7289C13.0482 19.1511 13.0749 19.2312 13.7771 19.1157C14.2393 19.0489 14.2482 19.0133 14.3015 18.8623Z" fill="#E8D898"/>
<path d="M10.319 4.48541C10.0968 4.6943 10.0612 4.81874 9.74124 4.84096L9.32347 4.90763C9.12792 4.93428 9.19014 4.90763 8.96791 4.9654C9.16347 5.13428 9.20791 4.70318 9.09236 5.2854C9.0657 5.30318 8.95014 5.34318 8.94126 5.36095C8.72791 5.54762 8.9057 5.25873 8.78125 5.57429L10.2301 5.53873L10.1768 5.26762C10.1323 4.86763 10.079 5.19651 10.2301 4.9254L10.479 5.05873L10.4879 5.01873C11.0301 4.58763 10.6746 4.75652 10.8434 5.2854C10.8434 5.17873 10.7901 5.17873 11.0123 5.23207L11.039 4.86318C10.8789 4.26318 10.7545 4.73873 10.7724 4.18763C10.8879 3.98319 10.8613 4.16097 10.6746 4.04541C10.4701 4.18764 10.6301 4.00987 10.4434 4.24541C10.3546 4.34318 10.3635 4.35208 10.319 4.48541Z" fill="#D0534A"/>
<path d="M7.20748 7.25722C6.99415 7.39944 7.13636 7.275 6.98526 7.47055C6.97637 7.47944 6.83416 7.76832 6.82527 7.76832C6.70972 8.10165 6.73638 8.12388 6.84305 8.39942C7.41192 8.52387 7.29637 8.68831 7.73192 8.82165L7.95414 8.59497L8.0697 8.4261C8.07858 8.39942 8.12302 8.32832 8.12302 8.18164C7.96303 8.04832 7.78526 7.98609 7.66081 7.92388C7.76748 7.53277 7.97192 7.59943 7.9097 7.24833C7.85636 6.98611 7.93636 7.20389 7.79414 7.04834C7.68747 7.20389 7.74081 7.18611 7.65192 7.31943C7.54526 7.47055 7.61636 7.38166 7.48303 7.49722L7.1186 7.82166C7.35859 7.47944 7.26081 7.6261 7.20748 7.25722Z" fill="#CAA659"/>
<path d="M8.93226 8.22126C8.77227 8.32793 9.16338 8.31015 8.71894 8.29237C8.75449 8.54126 8.8256 8.55015 8.79893 8.7857C8.79893 8.80348 8.7545 8.8657 8.73671 8.89237C8.8256 8.41682 8.79893 8.52348 8.35449 8.61237C8.46116 8.92347 8.39894 8.70571 8.5145 8.83015L8.67449 8.99903C8.62115 9.32347 8.60338 9.23459 8.48783 9.55902C8.5856 9.66569 8.53227 9.71014 8.65671 9.61235C8.5856 9.30125 8.43449 9.3768 8.89671 8.92792C9.34115 9.2168 9.27004 9.16347 9.1456 9.45236C9.47448 9.14126 9.89225 8.24348 10.2034 8.20794C10.2123 7.83016 10.1501 8.03015 9.97222 7.98571C9.19893 8.40793 9.43893 8.06571 8.93226 8.22571V8.22126Z" fill="#90746C"/>
<path d="M16.2077 8.72533L16.7232 9.08089C16.9276 9.65865 16.6254 9.49865 16.9899 9.82309C17.0521 9.62309 17.0165 8.832 16.981 8.552C16.9188 8.13866 16.572 7.85867 16.5454 7.52979C16.2433 7.68979 16.4743 7.43646 16.421 7.69868C16.3232 8.13866 16.6254 8.11201 16.1587 8.46311L16.2033 8.72977L16.2077 8.72533Z" fill="#D8B976"/>
<path d="M13.5459 4.66701L13.6349 5.00923C14.017 5.32033 14.7193 5.25812 14.8082 5.61811H15.1193L15.306 5.56479L15.2793 5.32479C14.9853 5.23793 14.7208 5.07188 14.5148 4.84479C14.2304 4.56924 14.7904 4.76479 13.9815 4.52034L13.8216 4.46701L13.626 4.40479L13.5459 4.67146V4.66701Z" fill="#B5AC93"/>
<path d="M14.408 16.858C14.408 16.6802 14.4703 16.6046 14.4969 16.2891C14.0969 16.2624 14.2747 16.4047 14.1413 16.0224C13.7324 16.1558 13.9992 15.9336 13.768 16.2358L13.3324 15.8047C13.3324 16.3158 13.1014 16.0447 12.9414 16.4624L13.0748 16.5158L13.288 16.6136L14.408 16.858Z" fill="#494329"/>
<path d="M8.11475 5.73317C8.24807 5.87984 8.37251 5.59984 8.52363 5.46651C8.78141 5.23985 8.75474 5.36873 8.96807 4.96429C9.19029 4.89763 9.13696 4.93318 9.32362 4.90652L9.74138 4.84429C10.0525 4.80873 10.0881 4.69319 10.3191 4.4843C10.4703 4.27986 10.3903 4.45763 10.4436 4.14209C9.83917 4.30653 9.96365 4.28875 9.75029 4.7643C9.7325 4.61318 9.77694 4.54208 9.83028 4.38652C9.46707 4.47946 9.12708 4.64673 8.83178 4.87776C8.5365 5.10878 8.29235 5.39855 8.11475 5.72873V5.73317Z" fill="#ECEEE8"/>
<path d="M11.3147 11.1106L11.8214 11.1327C11.857 10.7106 11.8303 10.4572 11.5192 10.3062C11.0481 10.6172 11.1191 10.6839 11.0658 10.9283C11.0925 10.9461 11.1191 10.9461 11.1281 10.9906C11.1281 10.9817 11.3147 11.1151 11.3147 11.1151V11.1106ZM10.5548 15.8038L10.0481 15.7861C10.0125 16.2083 10.0392 16.4616 10.3503 16.6127C10.8258 16.3016 10.7502 16.2349 10.808 15.9905C10.7814 15.9728 10.7547 15.9728 10.7458 15.9283C10.7458 15.9372 10.5548 15.8038 10.5548 15.8038ZM9.697 16.1682L9.19034 16.1505C9.15478 16.5727 9.18144 16.8261 9.49254 16.9726C9.96369 16.666 9.89255 16.5949 9.94586 16.3505C9.9192 16.3327 9.89255 16.3327 9.88366 16.2882C9.88366 16.2971 9.697 16.1682 9.697 16.1682ZM12.6081 15.5994L12.1014 15.5861C12.0658 16.0082 12.0925 16.2616 12.4036 16.4126C12.8747 16.1016 12.8036 16.0349 12.857 15.7905C12.8302 15.7682 12.8036 15.7682 12.7948 15.7239C12.7948 15.7327 12.6081 15.6038 12.6081 15.6038V15.5994ZM14.2481 16.1238L13.7413 16.106C13.7058 16.5283 13.7325 16.786 14.0436 16.9327C14.5147 16.6261 14.4437 16.5549 14.4969 16.3105C14.4703 16.2927 14.4437 16.2927 14.4347 16.2483C14.4347 16.2571 14.2481 16.1238 14.2481 16.1238Z" fill="#E6C779"/>
<path d="M10.7642 11.0669C10.9064 10.8625 10.942 10.7513 10.8354 10.4937H10.4086L10.373 11.0848L10.7642 11.0669ZM13.822 11.378C13.9641 11.178 13.9997 11.0669 13.893 10.8092H13.4664L13.4308 11.4003L13.822 11.3824V11.378ZM14.3641 12.1647C14.5065 11.9647 14.5419 11.8491 14.4353 11.5958H14.0086L13.9731 12.1824L14.3641 12.1647Z" fill="#E8D589"/>
<path d="M11.3947 16.2007L11.9102 16.094C11.9369 15.5963 11.8925 15.6585 11.3857 15.5874L11.3947 16.2007Z" fill="#8F332C"/>
<path d="M11.5283 19.2667L12.115 19.3289C12.1238 19.0978 12.0616 19.08 11.9106 18.8267L11.7772 18.6045C11.6439 19.2311 11.555 18.72 11.5283 19.2667Z" fill="#ECEEE8"/>
<path d="M12.2485 10.272C12.0796 10.4942 12.0884 10.5431 12.0441 10.9119L12.524 10.8675C12.5774 10.5164 12.6129 10.2809 12.2485 10.272ZM9.71518 10.5431C9.54629 10.7653 9.55518 10.8186 9.51074 11.1875L9.99076 11.1431C10.0441 10.7875 10.0796 10.5519 9.71518 10.5431ZM12.9551 10.4009C12.7863 10.6231 12.7952 10.6719 12.7507 11.0408L13.2307 10.9964C13.284 10.6453 13.3196 10.4097 12.9551 10.4009Z" fill="#D8C688"/>
</svg>
