<svg width="24" height="24" viewBox="0 0 24 24" fill="none" xmlns="http://www.w3.org/2000/svg">
<path d="M6.57909 8.2716C8.10538 6.95369 11.8957 5.34292 14.8357 9.47128C13.2587 10.8061 9.38384 12.4393 6.57909 8.2716ZM8.90512 21C7.57596 19.4794 5.92014 15.6833 9.95826 12.6421C11.31 14.219 12.9884 18.1052 8.90512 21ZM12.3069 15.3566C12.459 13.3292 13.9965 9.4881 18.9696 10.2879C18.795 12.3604 17.2123 16.2804 12.3069 15.3566ZM13.8444 3C13.1348 4.25031 12.5265 7.12266 15.7536 8.60388C16.4238 7.29161 16.9758 4.33479 13.8444 3ZM12.3407 16.6352C12.7068 18.0263 14.2725 20.5045 17.5954 19.271C17.1617 17.863 15.5002 15.368 12.3407 16.6352ZM3.55469 13.7573C4.79374 14.4782 7.64355 15.1033 9.11914 11.8536C7.82377 11.1777 4.89511 10.6033 3.5603 13.7573H3.55469ZM9.26558 3.50688C9.18673 4.50939 9.69359 6.46934 12.3463 6.3398C12.3463 5.33166 11.7436 3.35482 9.26558 3.51251V3.50688ZM16.2831 15.8241C16.9252 16.5901 18.6485 17.6208 20.4451 15.6496C19.7468 14.9287 17.9333 13.9544 16.2831 15.8241ZM4.09536 18.229C5.08097 18.3248 7.02965 17.8404 6.94518 15.1652C5.94267 15.1427 3.97708 15.7284 4.09536 18.229Z" fill="#24397D"/>
</svg>
