<svg width="24" height="24" viewBox="0 0 24 24" fill="none" xmlns="http://www.w3.org/2000/svg">
<path d="M8.2859 10.2855V5.67427C8.2874 5.45243 8.33266 5.23305 8.41912 5.02874C8.50557 4.82444 8.63149 4.6392 8.78968 4.48366C8.94789 4.32812 9.13522 4.20534 9.34097 4.12236C9.54672 4.03938 9.76681 3.99782 9.98866 4.00009H19.7138V5.18287C19.6989 5.63505 19.5075 6.06343 19.1807 6.37634C18.854 6.68924 18.4177 6.86178 17.9654 6.85705H12.137C11.9028 6.85705 11.7143 7.03991 11.7143 7.26846V10.2855H17.9996V11.4967C17.9959 11.7166 17.949 11.9337 17.8614 12.1354C17.7738 12.337 17.6472 12.5195 17.4892 12.6723C17.331 12.825 17.1444 12.9454 16.9398 13.026C16.7352 13.1066 16.5168 13.1461 16.2968 13.1424H5.98889C5.76902 13.1461 5.55057 13.1066 5.346 13.026C5.14142 12.9454 4.95475 12.825 4.79663 12.6723C4.6385 12.5195 4.51203 12.337 4.42445 12.1354C4.33685 11.9337 4.28985 11.7166 4.28613 11.4967V10.2855H8.2859Z" fill="#00E9B3"/>
<path d="M11.7146 14.8574V16.6402C11.7146 16.9202 11.943 17.143 12.2117 17.143H18.0057C18.2313 17.1438 18.4544 17.189 18.6625 17.2762C18.8705 17.3634 19.0593 17.4908 19.2181 17.6511C19.3767 17.8115 19.5023 18.0015 19.5874 18.2104C19.6726 18.4193 19.7155 18.6431 19.7141 18.8686V20H9.99465C9.76904 19.9992 9.54582 19.954 9.33776 19.8668C9.12969 19.7796 8.9409 19.6522 8.78217 19.4918C8.62345 19.3315 8.49794 19.1414 8.41282 18.9325C8.3277 18.7235 8.28467 18.4999 8.28617 18.2744V14.8574H11.7146Z" fill="white"/>
</svg>
