<svg width="24" height="24" viewBox="0 0 24 24" fill="none" xmlns="http://www.w3.org/2000/svg">
<path d="M4.24999 7.375C6.69519 5.91697 9.14018 4.45864 11.585 3C11.59 3 11.585 3.015 11.5699 3.035L10.4599 4.94501L10.45 4.95501L9.85996 5.975C8.22501 8.775 8.16501 8.87501 8.14501 8.87001C8.02303 8.85831 7.89998 8.86505 7.78001 8.89001C7.64001 8.92502 7.52501 8.99001 7.40501 9.09L7.355 9.13501L5.79 8.26001C4.34 7.445 4.23 7.38502 4.24999 7.375ZM14.14 5.965L12.425 3.02001C12.405 2.995 12.42 2.995 12.59 3.10001L14.1249 4.015L16.275 5.3L19.77 7.39001C19.77 7.39501 16.67 9.13001 16.655 9.13001C16.6314 9.11607 16.6096 9.09928 16.59 9.08C16.4343 8.94154 16.2334 8.86502 16.025 8.86501H15.875L15.835 8.87001L14.14 5.965ZM11.75 3.71001L8.58 9.06502L8.64501 9.13501C8.75001 9.25001 8.815 9.36 8.86 9.51001C8.88001 9.58001 8.885 9.61501 8.89001 9.72999C8.89001 9.82496 8.89001 9.88002 8.88001 9.92005L8.865 9.98001L11.75 11.5901V3.71001ZM15.1399 9.98001L12.25 11.56V3.69L15.43 9.07L15.3801 9.12001C15.2718 9.22715 15.1922 9.35975 15.1486 9.50563C15.1048 9.65151 15.0985 9.80606 15.13 9.95504L15.1399 9.98001ZM4 11.9V16C4 16 4.765 14.71 5.67 13.16L7.31501 10.335L7.265 10.255C7.13548 10.0686 7.08348 9.83907 7.12 9.61501C7.13001 9.57501 7.13501 9.53501 7.13001 9.53001L4 7.79001V11.9ZM16.87 9.53001L18.4301 8.66001L20 7.785V16L18.3349 13.1651L16.685 10.34L16.73 10.285C16.8043 10.1823 16.8562 10.0651 16.8819 9.94104C16.9078 9.81691 16.9071 9.68881 16.88 9.56501L16.87 9.53501V9.53001ZM8.595 10.4299C8.49501 10.51 8.38 10.5801 8.275 10.61L8.22501 10.6299V13.36L8.3 13.385C8.40001 13.42 8.5 13.4801 8.585 13.55L8.65 13.61L10.09 12.805L11.53 11.995L8.65501 10.3849L8.595 10.425V10.4299ZM12.4799 11.995C13.4299 11.4449 14.3867 10.9065 15.3501 10.3801L15.405 10.425C15.495 10.505 15.62 10.575 15.7301 10.61L15.78 10.6299V13.36L15.7301 13.375C15.6151 13.4151 15.49 13.485 15.405 13.5651L15.355 13.61L13.92 12.805L12.4799 11.995ZM7.67501 10.615C7.615 10.71 4.62001 15.855 4.625 15.86C5.46605 15.3974 6.30111 14.924 7.13001 14.4401L7.12 14.355V14.3251C7.07001 13.915 7.32 13.515 7.715 13.385L7.77501 13.3649V10.6251L7.73501 10.615C7.7214 10.6107 7.70805 10.6058 7.695 10.6L7.67501 10.615ZM16.2251 10.6299L16.27 10.615C16.2848 10.6093 16.2998 10.6043 16.315 10.6C16.32 10.6 19.39 15.855 19.385 15.86L16.88 14.46V14.395C16.9192 14.1813 16.88 13.9606 16.7698 13.7733C16.6597 13.5861 16.4858 13.4447 16.28 13.375L16.2299 13.36V10.6299H16.2251ZM8.865 14L8.88001 14.065C8.9 14.1649 8.89001 14.3701 8.86 14.47C8.82 14.615 8.74501 14.7401 8.64 14.85L8.58 14.915L11.75 20.265V12.4L8.865 14.005V14ZM15.425 14.915L12.25 20.2801V12.43L15.1399 14.0101L15.13 14.035C15.0699 14.335 15.16 14.645 15.365 14.86L15.425 14.92V14.915ZM5.80001 15.725C4.945 16.205 4.24501 16.6 4.24999 16.605L11.595 20.99C10.4571 19.0293 9.31206 17.0725 8.16 15.12L8.06001 15.13C7.82 15.145 7.59501 15.065 7.41001 14.9L7.36001 14.85L5.80001 15.725ZM16.3649 15.055C16.473 15.0064 16.5713 14.9387 16.655 14.8551C16.845 14.9551 19.7551 16.59 19.765 16.595C19.775 16.605 18.9801 17.08 16.16 18.765L12.7999 20.765L12.475 20.965L12.41 21L12.43 20.97L12.67 20.555L14.145 18.025C15.825 15.145 15.845 15.115 15.8651 15.125H16.0149C16.155 15.125 16.25 15.1051 16.3649 15.055Z" fill="url(#paint0_linear_328_34618)"/>
<defs>
<linearGradient id="paint0_linear_328_34618" x1="6.90286" y1="5.22751" x2="17.7645" y2="17.6225" gradientUnits="userSpaceOnUse">
<stop stop-color="#5566FE"/>
<stop offset="1" stop-color="#B370FF"/>
</linearGradient>
</defs>
</svg>
