<svg width="24" height="24" viewBox="0 0 24 24" fill="none" xmlns="http://www.w3.org/2000/svg">
<path d="M6.04999 11.7C6.04999 12.1701 5.66 12.55 5.18499 12.55C4.71 12.55 4.325 12.1701 4.325 11.7C4.325 11.2301 4.71 10.85 5.18499 10.85C5.66 10.85 6.045 11.2301 6.045 11.7H6.04999ZM19.72 11.7C19.72 12.1701 19.335 12.55 18.8599 12.55C18.385 12.55 18 12.1701 18 11.7C18 11.2301 18.385 10.85 18.8599 10.85C19.335 10.85 19.72 11.2301 19.72 11.7ZM12.885 15.055C12.885 15.525 12.5 15.905 12.025 15.905C11.55 15.905 11.165 15.525 11.165 15.055C11.165 14.5901 11.55 14.205 12.025 14.205C12.5 14.205 12.885 14.5901 12.885 15.055ZM9.43999 13.405C9.43999 13.87 9.05499 14.255 8.57998 14.255C8.10499 14.255 7.71999 13.87 7.71999 13.405C7.71999 12.93 8.10499 12.555 8.57998 12.555C9.05499 12.555 9.43999 12.93 9.43999 13.405ZM16.28 13.405C16.28 13.87 15.895 14.255 15.4199 14.255C14.945 14.255 14.56 13.87 14.56 13.405C14.56 12.93 14.945 12.555 15.4199 12.555C15.895 12.555 16.28 12.93 16.28 13.405ZM5.765 14.275C5.765 14.595 5.505 14.85 5.18499 14.85C4.865 14.85 4.605 14.595 4.605 14.275C4.605 13.9601 4.865 13.7 5.18499 13.7C5.505 13.7 5.765 13.9601 5.765 14.275ZM19.44 14.275C19.44 14.595 19.1799 14.85 18.8599 14.85C18.5399 14.85 18.28 14.595 18.28 14.275C18.28 13.9601 18.5399 13.7 18.8599 13.7C19.1799 13.7 19.44 13.9601 19.44 14.275ZM12.605 17.675C12.605 17.995 12.345 18.255 12.025 18.255C11.705 18.255 11.4399 17.995 11.4399 17.68C11.4399 17.3599 11.705 17.105 12.025 17.105C12.345 17.105 12.605 17.3599 12.605 17.68V17.675ZM9.16498 15.975C9.16498 16.295 8.90498 16.5501 8.57998 16.5501C8.25999 16.5501 7.99999 16.295 7.99999 15.975C7.99999 15.66 8.25999 15.3999 8.57998 15.3999C8.90498 15.3999 9.16498 15.66 9.16498 15.975ZM16 15.975C16 16.295 15.7399 16.5501 15.4199 16.5501C15.1 16.5501 14.835 16.295 14.835 15.975C14.835 15.66 15.1 15.3999 15.4199 15.3999C15.7399 15.3999 16 15.66 16 15.975ZM5.48999 16.3001C5.48999 16.3796 5.45839 16.4559 5.40213 16.5122C5.34586 16.5684 5.26956 16.6 5.19 16.6C5.15018 16.6007 5.11063 16.5934 5.07366 16.5786C5.03667 16.5638 5.00302 16.5419 4.97462 16.5139C4.94623 16.486 4.92368 16.4527 4.9083 16.416C4.89292 16.3793 4.885 16.3398 4.885 16.3001C4.885 16.135 5.01999 16 5.18499 16C5.355 16 5.485 16.135 5.485 16.3001H5.48999ZM19.165 16.3001C19.165 16.3796 19.1334 16.4559 19.077 16.5122C19.0208 16.5684 18.9446 16.6 18.865 16.6C18.8252 16.6007 18.7856 16.5934 18.7486 16.5786C18.7117 16.5638 18.6779 16.5419 18.6496 16.5139C18.6212 16.486 18.5986 16.4527 18.5834 16.416C18.5679 16.3793 18.56 16.3398 18.56 16.3001C18.56 16.2205 18.5916 16.1442 18.6478 16.0878C18.7041 16.0316 18.7804 16 18.8599 16C18.9395 16 19.0158 16.0316 19.072 16.0878C19.1284 16.1442 19.16 16.2205 19.16 16.3001H19.165ZM12.325 19.7001C12.325 19.7796 12.2934 19.8559 12.2371 19.9122C12.1809 19.9684 12.1045 20 12.025 20C11.9454 20 11.869 19.9684 11.8128 19.9122C11.7566 19.8559 11.725 19.7796 11.725 19.7001C11.725 19.535 11.855 19.4 12.025 19.4C12.19 19.4 12.325 19.535 12.325 19.7001ZM8.88498 18C8.88498 18.0795 8.85337 18.1558 8.79712 18.2121C8.74085 18.2684 8.66455 18.3001 8.58499 18.3001C8.54517 18.3006 8.50562 18.2934 8.46865 18.2786C8.43166 18.2639 8.39801 18.2418 8.36961 18.2139C8.34122 18.1859 8.31867 18.1527 8.3033 18.1159C8.28791 18.0792 8.27997 18.0398 8.27998 18C8.27998 17.9204 8.31159 17.8441 8.36786 17.7879C8.42412 17.7317 8.50041 17.7 8.57998 17.7C8.65955 17.7 8.73586 17.7317 8.79212 17.7879C8.84837 17.8441 8.87999 17.9204 8.87999 18H8.88498ZM15.72 18C15.72 18.0795 15.6884 18.1558 15.6322 18.2121C15.5759 18.2684 15.4994 18.3001 15.4199 18.3001C15.3405 18.3001 15.2641 18.2684 15.2078 18.2121C15.1516 18.1558 15.12 18.0795 15.12 18C15.12 17.835 15.2499 17.7 15.4199 17.7C15.585 17.7 15.72 17.835 15.72 18ZM13.165 5.15003C13.165 5.78504 12.64 6.30003 11.9999 6.30003C11.8479 6.30135 11.697 6.27261 11.556 6.21547C11.4151 6.15834 11.2868 6.07392 11.1786 5.96707C11.0703 5.86021 10.9842 5.73303 10.9254 5.59282C10.8663 5.45261 10.8356 5.30214 10.835 5.15003C10.835 4.51503 11.3599 4.00004 11.9999 4.00004C12.1521 3.99873 12.303 4.02746 12.4438 4.08459C12.5848 4.14174 12.7131 4.22615 12.8214 4.33301C12.9297 4.43987 13.0157 4.56704 13.0747 4.70725C13.1336 4.84747 13.1643 4.99794 13.165 5.15003ZM13.165 8.55003C13.165 9.18503 12.64 9.69999 11.9999 9.69999C11.8479 9.70139 11.697 9.67258 11.556 9.61547C11.4151 9.55832 11.2868 9.47391 11.1786 9.36705C11.0703 9.2602 10.9842 9.13302 10.9254 8.99281C10.8663 8.85259 10.8356 8.70213 10.835 8.55003C10.835 7.91503 11.3599 7.40003 11.9999 7.40003C12.1521 7.39871 12.303 7.42745 12.4438 7.48459C12.5848 7.54173 12.7131 7.62615 12.8214 7.73301C12.9297 7.83987 13.0157 7.96704 13.0747 8.10725C13.1336 8.24746 13.1643 8.39792 13.165 8.55003ZM13.165 11.91C13.165 12.545 12.64 13.06 11.9999 13.06C11.8479 13.0614 11.697 13.0326 11.556 12.9755C11.4151 12.9183 11.2868 12.8339 11.1786 12.727C11.0703 12.6202 10.9842 12.493 10.9254 12.3527C10.8663 12.2126 10.8356 12.0622 10.835 11.91C10.835 11.275 11.3599 10.76 11.9999 10.76C12.1521 10.7587 12.303 10.7874 12.4438 10.8446C12.5848 10.9018 12.7131 10.9861 12.8214 11.093C12.9297 11.1998 13.0157 11.327 13.0747 11.4673C13.1336 11.6075 13.1643 11.7578 13.165 11.91ZM20 8.55003C20 9.18503 19.4799 9.69999 18.835 9.69999C18.6833 9.70069 18.533 9.67141 18.3926 9.61402C18.2522 9.55659 18.1245 9.47206 18.0168 9.36527C17.9091 9.25849 17.8234 9.13152 17.7648 8.99165C17.7061 8.85177 17.6757 8.7017 17.675 8.55003C17.675 7.91503 18.195 7.40003 18.835 7.40003C18.9871 7.39871 19.1379 7.42745 19.2789 7.48459C19.4198 7.54173 19.5482 7.62615 19.6564 7.73301C19.7646 7.83987 19.8506 7.96704 19.9097 8.10725C19.9686 8.24746 19.9993 8.39792 20 8.55003ZM6.325 8.55003C6.325 9.18503 5.80499 9.69999 5.16499 9.69999C5.0129 9.70139 4.86204 9.67258 4.72108 9.61547C4.58012 9.55832 4.45184 9.47391 4.34358 9.36705C4.23534 9.2602 4.14926 9.13302 4.0903 8.99281C4.03134 8.85259 4.00066 8.70213 4 8.55003C4 7.91503 4.51999 7.40003 5.16499 7.40003C5.31667 7.39938 5.467 7.4286 5.60737 7.48603C5.74775 7.54347 5.87545 7.62799 5.98317 7.73478C6.09088 7.84157 6.17652 7.96853 6.23517 8.1084C6.29382 8.24829 6.32434 8.39835 6.325 8.55003ZM9.76497 6.85003C9.76497 7.48503 9.24498 8.00003 8.60498 8.00003C8.45289 8.00135 8.30204 7.97262 8.16107 7.91547C8.02011 7.85833 7.89182 7.77391 7.78358 7.66706C7.67533 7.5602 7.58926 7.43303 7.53029 7.29282C7.47133 7.1526 7.44064 7.00213 7.43999 6.85003C7.43999 6.21504 7.95998 5.70003 8.60498 5.70003C8.75666 5.69937 8.90698 5.72859 9.04736 5.78603C9.18774 5.84348 9.31545 5.928 9.42315 6.03479C9.53087 6.14157 9.6165 6.26853 9.67514 6.40841C9.73382 6.5483 9.76427 6.69835 9.76497 6.85003ZM9.76497 10.205C9.76497 10.8401 9.24498 11.355 8.60498 11.355C8.45289 11.3563 8.30204 11.3276 8.16107 11.2704C8.02011 11.2133 7.89182 11.1289 7.78358 11.0221C7.67533 10.9152 7.58926 10.788 7.53029 10.6478C7.47133 10.5075 7.44064 10.3572 7.43999 10.205C7.43999 9.57003 7.95998 9.05503 8.60498 9.05503C8.75666 9.05437 8.90698 9.08359 9.04736 9.14103C9.18774 9.19847 9.31545 9.28299 9.42315 9.38978C9.53087 9.49657 9.6165 9.62353 9.67514 9.76346C9.73382 9.90334 9.76427 10.0534 9.76497 10.205ZM16.605 6.85503C16.605 7.48503 16.085 8.00003 15.44 8.00003C15.2883 8.00069 15.1379 7.97147 14.9976 7.91403C14.8572 7.85659 14.7295 7.77207 14.6218 7.66528C14.5141 7.55849 14.4285 7.43153 14.3698 7.29165C14.3111 7.15178 14.2806 7.00171 14.28 6.85003C14.28 6.21504 14.7999 5.70003 15.44 5.70003C15.5921 5.69872 15.743 5.72746 15.8839 5.78459C16.0248 5.84174 16.1532 5.92616 16.2614 6.033C16.3696 6.13986 16.4557 6.26705 16.5147 6.40724C16.5736 6.54746 16.6043 6.69793 16.605 6.85003V6.85503ZM16.605 10.205C16.605 10.8401 16.085 11.355 15.44 11.355C15.2883 11.3557 15.1379 11.3264 14.9976 11.269C14.8572 11.2116 14.7295 11.127 14.6218 11.0203C14.5141 10.9134 14.4285 10.7865 14.3698 10.6466C14.3111 10.5067 14.2806 10.3567 14.28 10.205C14.28 9.57003 14.7999 9.05503 15.44 9.05503C15.5921 9.05371 15.743 9.08244 15.8839 9.13959C16.0248 9.19673 16.1532 9.28115 16.2614 9.388C16.3696 9.49486 16.4557 9.62203 16.5147 9.76229C16.5736 9.90241 16.6043 10.0529 16.605 10.205Z" fill="white"/>
</svg>
