<svg width="24" height="24" viewBox="0 0 24 24" fill="none" xmlns="http://www.w3.org/2000/svg">
<path d="M3 8.71018V15.5851L4.49999 16.595V7.7002L3 8.71518V8.71018Z" fill="url(#paint0_linear_328_53850)"/>
<path d="M4.5 7.7002V16.6001L5.99997 15.5851V8.71018L4.5 7.7002Z" fill="url(#paint1_linear_328_53850)"/>
<path d="M6.00049 5.94932V18.3341L7.50047 19.3441V4.94434L6.00049 5.95432V5.94932Z" fill="url(#paint2_linear_328_53850)"/>
<path d="M7.50049 19.3493L9.00046 18.3394V5.94955L7.50049 4.93457V19.3493Z" fill="url(#paint3_linear_328_53850)"/>
<path d="M20.9999 8.71018V15.5851L19.5 16.595V7.7002L20.9999 8.71518V8.71018Z" fill="url(#paint4_linear_328_53850)"/>
<path d="M19.5005 7.7002V16.6001L18.0005 15.5851V8.71018L19.5005 7.7002Z" fill="url(#paint5_linear_328_53850)"/>
<path d="M18.0004 5.94932V18.3341L16.5005 19.3441V4.94434L18.0004 5.95432V5.94932Z" fill="url(#paint6_linear_328_53850)"/>
<path d="M16.5001 19.3493L15 18.3394V5.94955L16.5001 4.93457V19.3493Z" fill="url(#paint7_linear_328_53850)"/>
<path d="M9 4.00999V19.9897L10.495 20.9997H10.5V3L9 4.00999Z" fill="url(#paint8_linear_328_53850)"/>
<path d="M10.4995 20.9997H10.5045L11.9994 19.9897V4.00999L10.4995 3V20.9997Z" fill="url(#paint9_linear_328_53850)"/>
<path d="M12 4.00999V19.9897L13.495 20.9997H13.5V3L12 4.00999Z" fill="url(#paint10_linear_328_53850)"/>
<path d="M13.5 20.9997H13.505L15 19.9897V4.00999L13.5 3V20.9997Z" fill="url(#paint11_linear_328_53850)"/>
<defs>
<linearGradient id="paint0_linear_328_53850" x1="11.9998" y1="3.00026" x2="11.9998" y2="21" gradientUnits="userSpaceOnUse">
<stop stop-color="#670057"/>
<stop offset="1" stop-color="#230059"/>
</linearGradient>
<linearGradient id="paint1_linear_328_53850" x1="11.9999" y1="3.00026" x2="11.9999" y2="20.9898" gradientUnits="userSpaceOnUse">
<stop stop-color="#CC1B99"/>
<stop offset="1" stop-color="#471288"/>
</linearGradient>
<linearGradient id="paint2_linear_328_53850" x1="12.0004" y1="2.99312" x2="12.0004" y2="20.999" gradientUnits="userSpaceOnUse">
<stop stop-color="#670057"/>
<stop offset="1" stop-color="#230059"/>
</linearGradient>
<linearGradient id="paint3_linear_328_53850" x1="12.0004" y1="3.00585" x2="12.0004" y2="20.9931" gradientUnits="userSpaceOnUse">
<stop stop-color="#CC1B99"/>
<stop offset="1" stop-color="#471288"/>
</linearGradient>
<linearGradient id="paint4_linear_328_53850" x1="12.0001" y1="3.00026" x2="12.0001" y2="21" gradientUnits="userSpaceOnUse">
<stop stop-color="#CC1B99"/>
<stop offset="1" stop-color="#471288"/>
</linearGradient>
<linearGradient id="paint5_linear_328_53850" x1="12.0006" y1="3.00026" x2="12.0006" y2="20.9898" gradientUnits="userSpaceOnUse">
<stop stop-color="#670057"/>
<stop offset="1" stop-color="#230059"/>
</linearGradient>
<linearGradient id="paint6_linear_328_53850" x1="12.0005" y1="2.99312" x2="12.0005" y2="20.999" gradientUnits="userSpaceOnUse">
<stop stop-color="#CC1B99"/>
<stop offset="1" stop-color="#471288"/>
</linearGradient>
<linearGradient id="paint7_linear_328_53850" x1="12.0001" y1="3.00585" x2="12.0001" y2="20.9931" gradientUnits="userSpaceOnUse">
<stop stop-color="#670057"/>
<stop offset="1" stop-color="#230059"/>
</linearGradient>
<linearGradient id="paint8_linear_328_53850" x1="11.9999" y1="3" x2="11.9999" y2="21.0047" gradientUnits="userSpaceOnUse">
<stop stop-color="#670057"/>
<stop offset="1" stop-color="#230059"/>
</linearGradient>
<linearGradient id="paint9_linear_328_53850" x1="14.2494" y1="3" x2="14.2494" y2="21.0047" gradientUnits="userSpaceOnUse">
<stop stop-color="#CC1B99"/>
<stop offset="1" stop-color="#471288"/>
</linearGradient>
<linearGradient id="paint10_linear_328_53850" x1="12" y1="3" x2="12" y2="21.0047" gradientUnits="userSpaceOnUse">
<stop stop-color="#670057"/>
<stop offset="1" stop-color="#230059"/>
</linearGradient>
<linearGradient id="paint11_linear_328_53850" x1="14.25" y1="3" x2="14.25" y2="21.0047" gradientUnits="userSpaceOnUse">
<stop stop-color="#CC1B99"/>
<stop offset="1" stop-color="#471288"/>
</linearGradient>
</defs>
</svg>
