<svg width="24" height="24" viewBox="0 0 24 24" fill="none" xmlns="http://www.w3.org/2000/svg">
<path d="M12 21C16.9706 21 21 16.9706 21 12C21 7.02943 16.9706 3 12 3C7.02943 3 3 7.02943 3 12C3 16.9706 7.02943 21 12 21Z" fill="#0074F0"/>
<path d="M17.6111 17.6112C18.3446 16.8698 18.9249 15.9911 19.3188 15.0253C19.7127 14.0596 19.9125 13.0258 19.9068 11.9829C19.9013 10.94 19.6901 9.90828 19.2858 8.94695C18.8816 7.98557 18.2918 7.11325 17.5504 6.37977C16.8089 5.64629 15.9302 5.06605 14.9644 4.67216C13.9988 4.27828 12.965 4.07845 11.922 4.0841C10.879 4.08975 9.84745 4.30077 8.88603 4.70512C7.92465 5.10945 7.05232 5.69918 6.31885 6.44065L17.6164 17.6112H17.6111Z" fill="#3390F3"/>
<path d="M6.70592 12.0002C6.70503 10.6286 7.23657 9.31 8.18855 8.32245C9.14054 7.33492 10.4387 6.75543 11.8095 6.70605L10.6818 8.53781C9.97987 8.80497 9.37563 9.27915 8.94923 9.89748C8.52283 10.5157 8.29439 11.249 8.29415 12.0002C8.28694 12.523 8.39205 13.0413 8.60238 13.52C8.81271 13.9986 9.12337 14.4267 9.51334 14.7749C9.90328 15.1233 10.3635 15.3838 10.8629 15.539C11.3622 15.6941 11.889 15.7403 12.4077 15.6743L11.2589 17.2943C9.98593 17.1167 8.82127 16.481 7.98319 15.5066C7.1451 14.532 6.691 13.2854 6.70592 12.0002Z" fill="white"/>
<path d="M12.1004 17.2943C13.487 17.268 14.8079 16.6985 15.7791 15.7085C16.7502 14.7186 17.2942 13.387 17.2939 12.0002C17.3113 10.6964 16.8438 9.43275 15.9819 8.45442C15.1201 7.4761 13.9252 6.85299 12.6299 6.70605L11.6504 8.32075C11.788 8.30487 11.8569 8.29428 11.9999 8.29428C12.8517 8.29427 13.6776 8.58776 14.3383 9.12534C14.9992 9.6629 15.4547 10.4118 15.6281 11.2458C15.8016 12.0799 15.6822 12.9483 15.2904 13.7047C14.8987 14.4611 14.2581 15.0594 13.4769 15.399L12.1004 17.2943Z" fill="white"/>
<path d="M12.0006 13.5885V10.9414L9.35352 12.0003L12.0006 13.5885Z" fill="#CEE5FD"/>
<path d="M12.001 13.5885V10.9414L14.648 12.0003L12.001 13.5885Z" fill="#E5F1FE"/>
<path d="M12.0006 10.941V7.76465L9.35352 12L12.0006 10.941Z" fill="#E5F1FE"/>
<path d="M12.001 10.941V7.76465L14.648 12L12.001 10.941Z" fill="white"/>
<path d="M12.001 16.2351V14.1547L14.648 12.5293L12.001 16.2351Z" fill="#E5F1FE"/>
<path d="M12.0006 16.2351V14.1547L9.35352 12.5293L12.0006 16.2351Z" fill="white"/>
</svg>
