<svg width="24" height="24" viewBox="0 0 24 24" fill="none" xmlns="http://www.w3.org/2000/svg">
<path d="M5.06603 7.46509C3.37862 10.8061 4.33481 14.9346 5.06603 16.4985L7.85026 13.6861C7.57464 12.6116 7.6309 10.9862 7.97401 9.64752C8.37898 8.04442 9.77386 6.43576 11.9226 6.40763C13.4355 6.39077 14.4986 7.10509 14.7348 7.46509L5.31351 17.027C5.70724 17.6851 6.85469 19.3444 8.57022 20.2669C10.1845 21.1331 12.6707 21.1613 14.2624 20.7168C15.5624 20.2891 16.7299 19.5333 17.6521 18.5223C18.5744 17.5113 19.2202 16.2795 19.5272 14.946C20.3596 11.5092 19.5046 8.42128 18.931 7.46509L16.1973 10.2493C16.3829 11.318 16.3548 13.7254 15.7248 15.244C15.1062 16.7627 13.8237 17.6064 11.9226 17.6064C10.9349 17.5525 9.99593 17.1613 9.26205 16.4985L18.6553 6.88574C16.4054 3.07219 12.4401 2.81345 11.0057 3.07219C9.73462 3.26828 8.52998 3.76994 7.49541 4.53412C6.46084 5.29828 5.62718 6.30213 5.06603 7.45945V7.46509Z" fill="#007CFF"/>
</svg>
