<svg width="24" height="24" viewBox="0 0 24 24" fill="none" xmlns="http://www.w3.org/2000/svg">
<path fill-rule="evenodd" clip-rule="evenodd" d="M15.2558 14.1065H16.4047L16.7876 12.5747H17.5535L17.8599 11.4259H17.048L17.1246 10.8514H18.0666L18.2505 9.89404H16.0217L15.2558 14.1065ZM12.5752 9.89404L12.1041 13.0955C12.0391 13.4325 12.1961 14.1065 13.3487 14.1065C14.4976 14.1065 14.8461 13.4325 14.8729 13.0955L15.4474 9.89404H14.2984L13.8581 12.7508C13.8465 12.8428 13.7968 12.95 13.5325 12.9576C13.2645 12.9653 13.3104 12.7662 13.3411 12.6283L13.7432 9.89404H12.5752ZM8.93719 14.1065L9.70308 9.89404H11.0281C11.411 9.88255 12.1616 10.0702 12.085 10.9089C12.0085 11.7513 11.4494 11.9198 11.1813 11.9007C11.4301 11.9504 11.8859 12.2491 11.8093 12.9576C11.7327 13.6661 11.0663 14.0107 10.7295 14.1065H8.93719ZM10.3694 11.5637L10.4651 10.7251C10.672 10.7251 11.0663 10.8054 10.963 11.131C10.8635 11.4526 10.5264 11.5522 10.3694 11.5637ZM10.086 13.3406L10.2775 12.3832C10.5073 12.3832 10.8903 12.4943 10.7754 12.8428C10.6643 13.1951 10.2545 13.3291 10.086 13.3406ZM6.63951 9.89404L5.87362 14.1065H6.63951L7.02245 12.1917L7.50114 14.1065H8.36277L9.12868 9.89404H8.1713L7.78836 11.8088L7.4054 9.89404H6.63951ZM3.15469 11.2037C2.93641 12.0079 2.7794 13.7081 3.91676 14.0759C4.37246 14.1984 5.37579 13.9993 5.75107 12.2262C5.91574 11.579 5.98084 10.2119 4.89327 9.91701C4.69792 9.88592 4.49889 9.88592 4.30353 9.91701L3.15469 11.2037ZM4.08526 11.9504C4.11589 11.5867 4.25374 10.8591 4.56776 10.8514C4.88178 10.8437 4.83199 11.579 4.7669 11.9504C4.70945 12.3028 4.5333 13.038 4.26524 13.1376C3.99717 13.2449 4.03548 12.3909 4.08526 11.9504ZM18.4458 14.1065L19.3075 13.3406L19.5027 12.5747H20.2877L20.6018 11.4259H19.7746L19.8511 10.8514H20.82L21 9.89404H18.7215L17.9365 14.1065H18.4419H18.4458Z" fill="#3662AF"/>
</svg>
