<svg width="24" height="24" viewBox="0 0 24 24" fill="none" xmlns="http://www.w3.org/2000/svg">
<path d="M7.98201 6.07506C7.92199 6.1804 7.84159 6.27272 7.7455 6.34665C7.64941 6.42057 7.53956 6.47464 7.42236 6.50565C7.30517 6.53669 7.18296 6.54405 7.06289 6.52735C6.9428 6.51064 6.82726 6.47019 6.72298 6.40836C6.6187 6.34651 6.52778 6.26453 6.45552 6.16717C6.38327 6.06982 6.33113 5.95906 6.30214 5.84134C6.27314 5.72362 6.26789 5.60129 6.28668 5.48153C6.30546 5.36176 6.3479 5.24693 6.41154 5.14373C6.53722 4.93994 6.7379 4.79368 6.97037 4.73643C7.20285 4.67917 7.44851 4.71553 7.65444 4.83765C7.86037 4.95977 8.0101 5.15789 8.07137 5.38933C8.13264 5.62079 8.10055 5.86705 7.98201 6.07506ZM5.27478 6.18919C5.22861 6.26653 5.16767 6.33402 5.09543 6.38781C5.02318 6.44159 4.94105 6.48062 4.85373 6.50266C4.7664 6.52471 4.67557 6.52933 4.58645 6.51629C4.49734 6.50322 4.41167 6.47275 4.33433 6.42659C4.25699 6.38042 4.1895 6.31948 4.13571 6.24724C4.08193 6.17499 4.0429 6.09285 4.02086 6.00553C3.97634 5.82915 4.00371 5.64233 4.09694 5.48613C4.19017 5.32994 4.34162 5.21718 4.51799 5.17265C4.69437 5.12814 4.8812 5.15551 5.03738 5.24873C5.19358 5.34197 5.30633 5.49343 5.35086 5.66979C5.39537 5.84617 5.36801 6.033 5.27478 6.18919ZM13.5334 19.2551C14.4922 19.1444 15.4197 18.8448 16.262 18.3735C17.1044 17.9021 17.8449 17.2686 18.4409 16.5094C19.0371 15.7501 19.4767 14.8804 19.7345 13.9502C19.9924 13.02 20.0633 12.048 19.9433 11.0903C19.8232 10.1326 19.5145 9.20812 19.035 8.3704C18.5556 7.53268 17.9149 6.79829 17.1499 6.20969C16.3849 5.62108 15.5108 5.18993 14.5782 4.94113C13.6456 4.69235 12.6729 4.63088 11.7164 4.76025C10.7486 4.83786 9.93597 5.20765 9.93597 5.20765C9.26943 5.52722 8.84028 6.07049 8.84028 6.79638C8.84028 7.73684 9.5753 8.31662 10.5158 8.31662C10.6756 8.31662 11.2189 8.14314 11.3467 8.10205C11.8418 7.92973 12.3666 7.85832 12.8897 7.89205C15.4509 7.89205 16.7839 9.99207 16.7839 12.2474C16.7839 14.5026 15.1678 16.1097 12.3784 16.1097C9.93139 16.1097 8.65768 13.6763 8.56637 11.4529C8.53441 10.5399 8.00027 9.82774 7.07808 9.82774C6.70314 9.82767 6.3386 9.95106 6.04073 10.1787C5.74287 10.4065 5.52825 10.7259 5.43001 11.0877C5.29139 12.1877 5.40501 13.3049 5.76225 14.3545C6.11949 15.4041 6.71098 16.3587 7.49188 17.1456C8.27278 17.9328 9.22261 18.5317 10.2694 18.8972C11.3161 19.2626 12.4324 19.385 13.5334 19.2551Z" fill="#5F45BA"/>
<path d="M7.03793 8.70521C6.96119 8.8341 6.85981 8.94662 6.73959 9.03634C6.61936 9.12606 6.48264 9.19122 6.33724 9.2281C6.04357 9.30259 5.73234 9.25736 5.47203 9.10238C5.21171 8.9474 5.02361 8.69535 4.94913 8.4017C4.87465 8.10803 4.91986 7.7968 5.07485 7.53648C5.22983 7.27617 5.48187 7.08807 5.77554 7.01359C6.0692 6.93909 6.38042 6.98432 6.64075 7.13931C6.90107 7.29429 7.08916 7.54633 7.16364 7.84C7.23813 8.13366 7.19291 8.44488 7.03793 8.70521Z" fill="#5F45BA"/>
</svg>
