<svg width="24" height="24" viewBox="0 0 24 24" fill="none" xmlns="http://www.w3.org/2000/svg">
<path d="M20.9815 12.4764C21.0501 11.2982 20.8852 10.1181 20.4961 9.00396C20.1071 7.88978 19.5018 6.86348 18.7148 5.98406C17.9279 5.10462 16.9749 4.38942 15.9106 3.87954C14.8463 3.36966 13.6916 3.07516 12.5132 3.01299C7.54863 2.74836 3.29859 6.5591 3.01807 11.5236C2.94948 12.7017 3.11442 13.8819 3.50341 14.9961C3.89241 16.1103 4.49779 17.1365 5.28474 18.0159C6.07171 18.8953 7.02473 19.6106 8.08902 20.1204C9.15332 20.6303 10.3079 20.9248 11.4863 20.987C16.4509 21.2516 20.701 17.4409 20.9815 12.4764Z" fill="#FD0001"/>
<path d="M19.9291 12.4242C19.9898 11.384 19.8442 10.342 19.5007 9.35839C19.1572 8.37469 18.6224 7.46866 17.9275 6.69241C17.2324 5.91616 16.3906 5.28504 15.4507 4.83539C14.5106 4.38573 13.4911 4.12641 12.4505 4.07235C10.3449 3.96258 8.28146 4.69103 6.71141 6.09843C5.14138 7.50582 4.19248 9.47762 4.0722 11.5827C4.01221 12.6224 4.15834 13.6639 4.50221 14.6469C4.84607 15.6301 5.38088 16.5354 6.07589 17.3111C6.7709 18.0867 7.61239 18.7174 8.55198 19.1667C9.49156 19.616 10.5107 19.8752 11.5508 19.9293C13.6564 20.039 15.7199 19.3106 17.2899 17.9032C18.8599 16.4958 19.8089 14.524 19.9291 12.4189V12.4242Z" fill="#FF0F2B"/>
<path d="M19.8235 12.4566C19.8822 11.4309 19.7375 10.4037 19.3981 9.43407C19.0586 8.4644 18.531 7.57133 17.8455 6.80612C17.1599 6.04093 16.3301 5.41865 15.4033 4.97505C14.4766 4.53146 13.4715 4.27527 12.4456 4.22117C10.368 4.11285 8.33206 4.8315 6.78288 6.22003C5.23367 7.60855 4.29727 9.55391 4.17838 11.631C4.11907 12.6571 4.26313 13.6849 4.60225 14.655C4.94139 15.6254 5.46891 16.5191 6.15452 17.2849C6.84013 18.0506 7.67029 18.6733 8.59732 19.1173C9.52435 19.5612 10.5299 19.8176 11.5565 19.8717C13.6339 19.9799 15.6698 19.2613 17.2191 17.8729C18.7682 16.4843 19.7047 14.5388 19.8235 12.4619V12.4566ZM12.4508 4.11532C16.8278 4.3482 20.1782 8.08485 19.9295 12.4619C19.8105 14.5679 18.8622 16.541 17.292 17.9495C15.7218 19.3581 13.6576 20.0873 11.5512 19.9775C10.5106 19.9235 9.49094 19.6641 8.551 19.2145C7.61105 18.7649 6.76931 18.1337 6.07424 17.3575C5.37916 16.5812 4.84447 15.6752 4.50092 14.6915C4.15739 13.7079 4.01179 12.6659 4.07251 11.6257C4.19279 9.52059 5.14168 7.54878 6.71173 6.14139C8.28177 4.734 10.3452 4.00555 12.4508 4.11532Z" fill="black"/>
<path d="M17.1876 13.8372C17.6091 13.3864 17.8417 12.7909 17.8378 12.1737C17.8339 11.5565 17.5937 10.9642 17.1664 10.5188C16.8804 10.2123 16.527 9.97671 16.1343 9.83061C16.2155 9.45121 16.2031 9.0577 16.0979 8.68421C15.9928 8.31069 15.7981 7.96845 15.5309 7.68711C15.065 7.19459 14.4293 6.89756 13.7526 6.85615C13.1638 6.82811 12.5843 7.01006 12.1171 7.36953C11.6487 6.9448 11.0388 6.70997 10.4066 6.71094C9.77435 6.71192 9.1651 6.94864 8.69805 7.37483C8.41027 7.63787 8.1913 7.9674 8.0603 8.33461C7.92928 8.70181 7.89021 9.09553 7.94648 9.48133C7.4384 9.64007 6.99381 9.94176 6.68154 10.344C6.31547 10.8334 6.14323 11.4407 6.19794 12.0495C6.25266 12.6582 6.53045 13.2252 6.97792 13.6413C7.26902 13.996 7.50719 14.3876 7.68714 14.8057C8.00471 15.6156 8.97327 17.2033 11.8155 17.2774C14.6523 17.4627 15.732 15.9701 16.0972 15.1921C16.3604 14.6697 16.73 14.2081 17.1823 13.8372H17.1876Z" fill="#FD9F01"/>
<path d="M10.8513 10.5714C11.497 10.4127 11.8568 9.66648 11.6451 8.89371C11.4389 8.12626 10.7454 7.62346 10.1051 7.78224C9.45932 7.94101 9.09942 8.68199 9.31113 9.45472C9.51754 10.2274 10.2109 10.725 10.8513 10.5661V10.5714ZM9.32171 13.112C9.87746 12.7574 9.95687 11.9369 9.48049 11.286C9.02003 10.635 8.18908 10.3968 7.62805 10.7567C7.07761 11.1113 7.00352 11.9265 7.46927 12.5774C7.93502 13.2283 8.76598 13.4666 9.32171 13.112ZM14.011 7.94631C14.6568 8.11568 14.9955 8.86724 14.7733 9.62943C14.5457 10.3915 13.8417 10.8678 13.1959 10.6985C12.5503 10.5238 12.2115 9.77231 12.4391 9.01015C12.6614 8.25329 13.3654 7.77165 14.011 7.94631ZM16.3821 12.9585C16.8797 12.3445 16.8479 11.5294 16.308 11.1325C15.7629 10.7409 14.9214 10.9208 14.4239 11.54C13.9264 12.1592 13.9581 12.969 14.498 13.366C15.0431 13.7577 15.8847 13.5777 16.3821 12.9585ZM12.9578 11.7941C13.1292 12.4064 13.4793 12.9537 13.9634 13.366C14.0914 13.4652 14.193 13.5943 14.2595 13.742C14.3259 13.8896 14.355 14.0514 14.3444 14.2128C14.3444 14.3717 14.3074 14.5199 14.2333 14.6521C14.1128 14.8598 13.924 15.0191 13.6992 15.103C13.4743 15.187 13.2272 15.1903 13.0002 15.1127C12.2721 14.874 11.4928 14.8374 10.7454 15.0067C10.6506 15.0316 10.5524 15.0422 10.4544 15.0386C10.2427 15.0173 10.031 14.938 9.86153 14.8057C9.69641 14.6777 9.57452 14.5022 9.51225 14.3027C9.45403 14.1017 9.45932 13.8901 9.52284 13.6942C9.59169 13.4983 9.71864 13.3237 9.89327 13.202L9.93031 13.1755L9.95156 13.1649C10.6925 12.6568 10.9466 11.7147 10.9466 11.7147C10.989 11.4819 11.1159 11.2754 11.3065 11.1325C11.5012 10.9861 11.7405 10.9113 11.9839 10.9208C12.2274 10.9313 12.4603 11.0267 12.6349 11.1855C12.815 11.3442 12.9312 11.5559 12.9578 11.7888V11.7941Z" fill="#FF8300"/>
<path d="M11.6456 8.89281C11.8573 9.66558 11.4974 10.4117 10.8517 10.5706C10.6469 10.6105 10.4352 10.5962 10.2375 10.5295C10.0399 10.4627 9.86302 10.3454 9.72433 10.1895C10.259 10.0625 11.1216 9.66027 11.6138 8.77637L11.6456 8.89281ZM9.54971 11.3803C9.1792 12.4284 8.46467 12.8623 7.89307 12.9946C8.34824 13.3122 8.90927 13.3757 9.32209 13.1111C9.85141 12.7723 9.94663 12.0154 9.54971 11.3803ZM16.4142 12.9153C15.7491 12.482 15.28 11.8057 15.1071 11.0311C14.853 11.137 14.6148 11.3062 14.4242 11.5392C13.9268 12.1584 13.9585 12.9681 14.5036 13.3652C15.0434 13.7568 15.885 13.5769 16.3826 12.9577L16.4142 12.9153ZM14.5248 10.1366C13.3868 9.88257 12.757 9.32682 12.4766 8.90339L12.4395 9.00925C12.212 9.77142 12.5559 10.5229 13.1963 10.6977C13.6833 10.8246 14.2019 10.5865 14.5248 10.1366ZM13.5297 14.4767C13.8632 14.4767 14.1438 14.3708 14.3449 14.2544C14.3396 14.3919 14.3025 14.5295 14.2337 14.6513C14.1124 14.8581 13.9236 15.0168 13.6989 15.1006C13.4743 15.1846 13.2277 15.1885 13.0005 15.1118C12.2724 14.873 11.4931 14.8365 10.7458 15.0058C10.6509 15.0306 10.5527 15.0412 10.4547 15.0376C10.243 15.0164 10.0313 14.937 9.86722 14.8047C9.70038 14.6773 9.57663 14.5018 9.51264 14.3019C9.46499 14.1432 9.4597 13.9844 9.48617 13.8308C9.55502 14.0638 9.76138 14.3602 10.259 14.3602C10.6399 14.3602 10.8464 14.3284 11.0528 14.2967C11.2644 14.2701 11.4762 14.2384 11.8943 14.2384C12.3177 14.2384 12.5559 14.3019 12.7835 14.3655C12.9952 14.4184 13.1963 14.4767 13.5244 14.4767H13.5297Z" fill="#D55B03"/>
<path fill-rule="evenodd" clip-rule="evenodd" d="M10.1427 7.93043C9.61338 8.05746 9.26936 8.69788 9.46519 9.41238C9.65574 10.1322 10.2803 10.5451 10.8149 10.418C11.344 10.291 11.6881 9.65055 11.4922 8.93603C11.3017 8.21624 10.6772 7.8034 10.1427 7.93043ZM11.6458 8.89371C11.8575 9.66648 11.4976 10.4127 10.8519 10.5714C10.2061 10.725 9.51811 10.2274 9.31171 9.46002C9.09999 8.68729 9.4599 7.93573 10.1056 7.78224C10.7513 7.62346 11.4394 8.12626 11.6458 8.89371ZM7.60216 12.4927C8.03616 13.0961 8.77185 13.2813 9.2376 12.985C9.69279 12.6886 9.79332 11.9793 9.35404 11.3759C8.92005 10.7727 8.18435 10.5821 7.7186 10.8837C7.26343 11.1749 7.16816 11.8841 7.60216 12.4874V12.4927ZM9.48636 11.286C9.95213 11.9369 9.87803 12.7574 9.32758 13.112C8.76655 13.4666 7.9356 13.2283 7.47514 12.5828C7.00409 11.9265 7.07819 11.1113 7.63392 10.7514C8.18965 10.3968 9.0206 10.635 9.48636 11.286ZM13.8581 13.4825C13.3504 13.0493 12.9836 12.4741 12.8049 11.8312V11.81C12.7784 11.6195 12.6831 11.4395 12.5296 11.3018C12.3814 11.1696 12.1857 11.0848 11.9739 11.069C11.7622 11.069 11.5663 11.1272 11.4023 11.2543C11.2436 11.3759 11.1377 11.5506 11.1007 11.7413V11.7517L10.9418 11.7147C10.9895 11.4819 11.1165 11.2754 11.307 11.1325C11.5018 10.9861 11.7411 10.9113 11.9845 10.9208C12.2279 10.9313 12.4608 11.0267 12.6354 11.1855C12.8155 11.3442 12.9319 11.5559 12.9584 11.7888C13.1288 12.403 13.4791 12.9524 13.964 13.366C14.2181 13.5724 14.3663 13.8901 14.3451 14.2128C14.3451 14.3717 14.308 14.5199 14.2339 14.6521C14.1133 14.8598 13.9247 15.0191 13.6998 15.103C13.4749 15.187 13.2277 15.1903 13.0007 15.1127C12.2726 14.874 11.4933 14.8374 10.746 15.0067C10.6511 15.0316 10.5529 15.0422 10.4549 15.0386C10.2432 15.0173 10.0315 14.938 9.8621 14.8057C9.69699 14.6777 9.57509 14.5022 9.51283 14.3027C9.4546 14.1017 9.4599 13.8901 9.52342 13.6942C9.59227 13.4983 9.71922 13.3237 9.89384 13.202L9.93089 13.1755L9.95213 13.1649C10.6931 12.6568 10.9471 11.7147 10.9471 11.7147L11.1007 11.7517L11.0953 11.7623C11.0803 11.816 11.0625 11.8691 11.0423 11.9212C11.0053 12.0217 10.9471 12.1592 10.8677 12.3181C10.7089 12.6304 10.4444 13.0166 10.042 13.292L10.0156 13.3078L9.98387 13.329C9.83567 13.4349 9.72984 13.583 9.67155 13.7471C9.61869 13.9112 9.61338 14.0911 9.66636 14.2552C9.71922 14.4245 9.81974 14.5727 9.96275 14.6839C10.1056 14.795 10.2803 14.8691 10.4655 14.885C10.5502 14.885 10.6243 14.8797 10.7038 14.8585C11.482 14.6796 12.2945 14.7161 13.0537 14.9645C13.1821 15.0083 13.3189 15.0225 13.4536 15.006C13.5883 14.9894 13.7175 14.9427 13.8316 14.8691C13.9428 14.795 14.0329 14.6945 14.0963 14.5834M14.0963 14.5834C14.1544 14.4669 14.1863 14.3451 14.1863 14.2128V14.2075C14.2075 13.9323 14.0804 13.6572 13.8634 13.4825M14.6203 9.58708C14.832 8.88312 14.5038 8.23212 13.9745 8.09451C13.4347 7.9516 12.7996 8.34855 12.5879 9.05248C12.3761 9.76169 12.7044 10.4075 13.2389 10.5451C13.7735 10.6879 14.4138 10.291 14.6203 9.58708ZM12.4397 9.01015C12.2122 9.77231 12.5508 10.5238 13.1965 10.6985C13.8422 10.8678 14.5462 10.3915 14.7738 9.62943C14.9961 8.86724 14.6574 8.11568 14.0116 7.94631C13.366 7.77165 12.662 8.25329 12.4397 9.01015ZM16.2611 12.8632C16.7214 12.2916 16.6633 11.5824 16.2134 11.2596C15.7581 10.9313 15.0119 11.0637 14.5462 11.6352C14.0857 12.2069 14.1493 12.9162 14.599 13.2389C15.0489 13.5671 15.8005 13.4349 16.2611 12.8632ZM16.3086 11.1325C16.8485 11.5241 16.8803 12.3445 16.3827 12.9585C15.8852 13.5724 15.0436 13.7524 14.4985 13.366C13.9587 12.9743 13.927 12.1592 14.4244 11.54C14.922 10.9261 15.7635 10.7461 16.3086 11.1325Z" fill="#301409"/>
<path d="M17.4518 13.4764C17.3 13.7183 17.1085 13.933 16.8856 14.1115C16.568 14.4291 16.2981 14.7995 16.0916 15.1912C15.7318 15.9691 14.652 17.4618 11.8152 17.2765C8.97824 17.2024 8.00439 15.6146 7.68682 14.8048C7.50735 14.3847 7.2685 13.9926 6.97761 13.6404C6.74713 13.4308 6.55855 13.1794 6.42188 12.8994C6.83636 13.3525 7.359 13.693 7.94087 13.8892C8.04672 13.9633 8.31137 14.175 8.49131 14.4397L8.51249 14.4714C8.76653 14.8419 9.65572 16.1651 12.0162 16.1651C13.9534 16.1651 15.0806 15.0165 15.3983 14.4397C15.6121 14.1075 15.9458 13.8704 16.3298 13.7781C16.7091 13.6984 17.0838 13.5976 17.4518 13.4764Z" fill="#B97405"/>
<path d="M6.19482 11.5137C6.43829 10.9738 7.09987 10.1958 8.43893 10.0846C8.38601 9.4231 8.48127 7.99937 9.26459 7.58654C10.249 7.06256 10.9106 7.38542 11.911 7.95703C12.4296 7.48068 13.6046 6.95141 14.769 7.95703C15.0245 8.20986 15.2137 8.5218 15.3199 8.86524C15.4261 9.20867 15.4459 9.57301 15.3776 9.92596C15.9863 9.8836 17.2831 10.4552 17.6005 13.1015L17.754 12.7627C17.8519 12.3691 17.8488 11.9571 17.7451 11.5648C17.6415 11.1725 17.4407 10.8128 17.1613 10.5188C16.8768 10.213 16.5253 9.97746 16.1345 9.83061C16.2158 9.45121 16.2033 9.0577 16.098 8.68421C15.993 8.31069 15.7983 7.96845 15.5311 7.68711C15.0652 7.19459 14.4295 6.89755 13.7527 6.85615C13.164 6.82811 12.5844 7.01006 12.1173 7.36953C11.649 6.9448 11.039 6.70997 10.4067 6.71094C9.77457 6.71192 9.16531 6.94864 8.69828 7.37483C8.41049 7.63787 8.19153 7.9674 8.06051 8.33461C7.9295 8.70181 7.89042 9.09553 7.9467 9.48133C7.43861 9.64007 6.99402 9.94176 6.68175 10.344C6.41711 10.6881 6.24775 11.0903 6.19482 11.5084V11.5137Z" fill="#FDC082"/>
<path d="M15.9544 9.92507L15.9756 9.79799C16.0519 9.44198 16.0401 9.07274 15.9414 8.72227C15.8428 8.37181 15.6601 8.0507 15.4093 7.78678C14.9731 7.32731 14.3796 7.04944 13.7473 7.00875C13.1954 6.98037 12.6514 7.14922 12.2125 7.4851L12.1066 7.56978L12.0113 7.4798C11.6889 7.18911 11.2932 6.99205 10.8669 6.90996C10.4406 6.82787 9.99992 6.86386 9.59263 7.01405C9.01457 7.22923 8.54229 7.65979 8.27471 8.21549C8.1521 8.48489 8.0872 8.77695 8.08416 9.0729V9.0782C8.08416 9.20523 8.08416 9.33225 8.10535 9.45927L8.12121 9.58632L7.9942 9.62338C7.51784 9.77157 7.10502 10.0573 6.80863 10.4385C6.46549 10.897 6.3038 11.4661 6.3546 12.0366C6.40539 12.607 6.66509 13.1387 7.08384 13.5293L7.09442 13.54V13.5453C7.3978 13.9081 7.64735 14.3127 7.8354 14.7466C7.9942 15.1384 8.29588 15.7099 8.90982 16.1968C9.5132 16.6784 10.4342 17.086 11.8207 17.123H11.826C13.2128 17.2131 14.1549 16.8903 14.79 16.4668C15.2932 16.1352 15.6959 15.6721 15.9544 15.1277C16.1661 14.7096 16.4414 14.3339 16.7748 14.0056L16.7853 13.9952C17.0344 13.7981 17.2401 13.5517 17.3892 13.2713C17.5385 12.991 17.628 12.6827 17.6523 12.3661C17.6768 12.0495 17.6353 11.7312 17.5308 11.4313C17.4263 11.1315 17.2607 10.8565 17.0447 10.6237C16.7768 10.3344 16.4452 10.1116 16.0762 9.97262L15.9544 9.91976V9.92507ZM17.7539 12.7725C17.6188 13.3017 17.3139 13.7721 16.886 14.1116C16.5683 14.4291 16.2985 14.7996 16.092 15.1912C15.7321 15.9692 14.6524 17.4618 11.8156 17.2766C8.97333 17.2025 8.00478 15.6146 7.68721 14.8049C7.50773 14.3848 7.26889 13.9927 6.97799 13.6405C6.52737 13.2261 6.24732 12.6588 6.19251 12.0491C6.1377 11.4394 6.31209 10.8311 6.6816 10.3431C7.00591 9.93384 7.4471 9.63288 7.94655 9.48044C7.88818 9.02903 7.95216 8.57021 8.1318 8.15198C8.26412 7.86087 8.45995 7.59625 8.69812 7.37396C9.16572 6.94887 9.77466 6.71289 10.4066 6.71192C11.0385 6.71094 11.6483 6.94503 12.1172 7.36866C12.5857 7.00797 13.1674 6.82597 13.758 6.85527C14.4354 6.9029 15.0758 7.19929 15.5256 7.68623C15.793 7.9665 15.9882 8.30763 16.0942 8.68016C16.2002 9.05269 16.2141 9.44542 16.1343 9.82443C16.5257 9.97287 16.8773 10.2102 17.1611 10.5178C17.4415 10.8135 17.6423 11.1754 17.745 11.5696C17.8477 11.9638 17.849 12.3776 17.7486 12.7725H17.7539Z" fill="#41100A"/>
</svg>
