<svg width="24" height="24" viewBox="0 0 24 24" fill="none" xmlns="http://www.w3.org/2000/svg">
<path d="M21 10.4251C21 10.9023 20.8104 11.3602 20.4728 11.6978C20.1353 12.0353 19.6774 12.2251 19.2001 12.2251C18.7226 12.2251 18.2648 12.0353 17.9273 11.6978C17.5897 11.3602 17.4001 10.9023 17.4001 10.4251C17.4001 9.94761 17.5897 9.48977 17.9273 9.1522C18.2648 8.81464 18.7226 8.625 19.2001 8.625C19.6774 8.625 20.1353 8.81464 20.4728 9.1522C20.8104 9.48977 21 9.94761 21 10.4251ZM3 13.3231C3.495 12.9585 4.94401 12.2251 6.77101 12.2251C7.95902 12.2251 9.55202 12.81 11.082 13.3635C12.4815 13.872 13.827 14.3626 14.7495 14.3626C16.221 14.3626 16.8061 14.1691 16.9365 14.061C16.473 14.5111 15.1366 15.3751 13.3726 15.3751C12.2026 15.3751 10.353 14.7721 8.58902 14.1961C6.98701 13.6741 5.45701 13.179 4.584 13.179C3.83251 13.179 3.216 13.2735 3 13.3231ZM16.95 14.0431L16.9365 14.061C16.9414 14.0568 16.9459 14.0522 16.95 14.0476V14.0431ZM10.371 10.4251C8.54402 10.4251 7.09501 11.1585 6.60001 11.5231C6.816 11.478 7.43252 11.379 8.18401 11.379C9.05702 11.379 10.587 11.8741 12.189 12.396C13.953 12.9721 15.807 13.5751 16.9725 13.5751C18.286 13.5773 19.556 13.106 20.5501 12.2476L20.5365 12.261C20.406 12.369 19.8211 12.5626 18.3496 12.5626C17.4271 12.5626 16.0816 12.072 14.682 11.5636C13.1521 11.0055 11.559 10.4251 10.371 10.4251Z" fill="#E0077D"/>
</svg>
