<svg width="24" height="24" viewBox="0 0 24 24" fill="none" xmlns="http://www.w3.org/2000/svg">
<path d="M18.6103 8.46201L18.3892 8.17969H19.0385L19.1797 8.46201H18.6103Z" fill="#DDC6B8"/>
<path d="M19.1845 8.4624H18.6104L18.761 8.65062H19.2692L19.1845 8.4624Z" fill="#503B20"/>
<path d="M18.9024 8.84282L18.7612 8.6499H19.2695L19.3541 8.83812H18.9024V8.84282Z" fill="#FFF7D6"/>
<path d="M19.7165 9.87281L18.9072 8.84229H19.3542C19.4954 8.99287 19.6554 9.59517 19.7212 9.87281H19.7165Z" fill="#1B1306"/>
<path d="M14.9868 5.38875L15.2692 4.67822C15.9045 4.85702 16.6103 5.39816 16.8785 5.64285V7.36978L15.528 8.70613L14.9915 5.39346L14.9868 5.38875Z" fill="#DDE18C"/>
<path d="M4.48924 9.17752C4.33178 9.67888 4.20605 10.1896 4.11279 10.7069L8.8983 10.8339L9.74529 10.9938V13.1773L10.8888 12.1372L10.7523 10.2692L11.7262 9.15871L11.8534 8.09526L11.4392 6.71184L11.6228 5.41312L11.3969 4.00146C11.0816 4.02029 10.1594 4.21321 9.74059 4.30262V8.14702L9.62296 9.17752H4.48924Z" fill="url(#paint0_linear_328_34835)"/>
<path d="M12.1401 8.18325C11.7636 7.5386 11.8671 5.97167 11.9707 5.26584C12.573 4.70117 13.6035 4.90822 14.0411 5.08233C14.3799 5.35524 15.1328 6.04224 15.4856 6.65867C15.8387 7.27038 15.6316 7.60918 15.4856 7.69859V8.475C14.9209 9.03965 13.74 10.1784 13.5093 10.169C13.2177 10.1501 12.6059 8.9926 12.1354 8.18325H12.1401Z" fill="#EEE7CB"/>
<path d="M12.6344 5.92918C12.4838 5.61391 12.8837 5.1763 13.1049 5.00219C12.8273 4.87985 12.1309 5.2657 11.9991 5.83037C11.8674 6.39502 12.5074 6.68677 12.7332 6.79029C12.9167 6.87028 13.0297 7.10556 13.0626 7.21379C13.0249 7.07263 13.2743 7.02557 13.3543 7.17614C13.439 7.31731 13.3967 7.93372 13.4014 7.99019C13.4014 8.03254 13.6649 7.93372 13.7967 7.87726C13.806 7.67963 13.8342 7.25613 13.8626 7.17144C13.9001 7.07263 14.3706 7.00204 14.6247 7.03027C14.8789 7.05851 14.7378 7.4914 14.5636 7.59493C14.3849 7.68904 14.4413 7.70787 14.5636 8.02784C14.6577 8.28664 14.2954 8.54544 14.1024 8.64897L14.8271 8.94541L14.9636 8.17842C15.0624 7.77375 15.2695 6.95028 15.2742 6.89851C15.2039 6.52289 15.1001 6.15437 14.9636 5.79743C14.725 5.56162 14.4685 5.34453 14.1966 5.14807L13.5096 5.05866C14.0837 5.48215 13.8202 6.10329 13.6178 6.3668C13.3356 6.39502 12.8178 6.32445 12.6344 5.92918Z" fill="#DAB98C"/>
<path d="M12.4085 7.8218C12.319 7.59124 12.7002 7.15833 12.8979 6.9654C12.6202 7.2289 12.3803 7.37478 12.3002 7.41713L11.8579 7.77004L12.3002 8.4947L13.1848 9.83105C13.3026 9.85454 13.5425 9.87815 13.5425 9.7746C13.5425 9.64285 14.2107 9.28522 14.413 9.3464C14.6107 9.40285 15.6694 8.43353 15.5706 8.23119C15.467 7.85287 15.4414 7.45745 15.4953 7.06893C15.5424 6.73483 15.707 6.9654 15.533 6.80071C15.3918 6.65954 15.2271 6.83836 15.1564 6.94188C15.0388 7.21009 14.7941 7.79828 14.8271 7.9912C14.86 8.22648 14.7894 8.54645 14.6247 8.72057C14.4929 8.86173 14.2389 8.77702 14.126 8.72057C14.173 8.79585 14.1919 8.98407 13.9237 9.15346C13.5848 9.3605 13.2178 9.03112 13.3308 8.88525C13.4436 8.74408 14.2389 8.69703 13.9614 8.68291C13.7354 8.6641 13.726 8.16531 13.7448 7.91592L13.1379 8.04296C13.1237 8.02885 13.0391 8.04296 12.7896 8.23119C12.4744 8.46647 12.5166 8.10884 12.4085 7.8218Z" fill="#D89C78"/>
<path d="M12.2534 6.2604C12.0088 5.82749 12.3522 5.37107 12.5593 5.20166C12.2065 5.35224 11.4959 5.78044 11.4488 6.2604C11.4332 6.4325 11.4698 6.6053 11.5537 6.75636C11.6376 6.90742 11.7651 7.02973 11.9194 7.10739L12.6911 6.74978C12.6441 6.76859 12.4981 6.69331 12.2534 6.2604Z" fill="#BC855C"/>
<path d="M12.0043 20.0001C13.0635 19.9997 14.1121 19.7887 15.0893 19.3796C16.0663 18.9707 16.9525 18.3716 17.6962 17.6174C18.44 16.8632 19.0265 15.9686 19.4217 14.9859C19.817 14.0032 20.0132 12.9517 19.9988 11.8925L17.392 8.50928L6.15527 17.4498C6.90162 18.2552 7.80652 18.8976 8.81308 19.3365C9.81962 19.7754 10.9061 20.0014 12.0043 20.0001Z" fill="url(#paint1_linear_328_34835)"/>
<path d="M11.9333 7.80359C11.6604 7.5589 11.8063 7.78477 11.731 7.65771C12.0932 8.35989 12.4856 9.04597 12.9074 9.71402C13.1662 10.0904 13.505 9.9869 13.6414 9.88809C13.5755 9.93519 13.3921 9.98228 13.2132 9.81759C12.9921 9.61521 12.2721 8.10475 11.9333 7.80359Z" fill="#572F23"/>
<path d="M11.8252 12.9652L11.5664 12.4334L17.486 7.78906L19.8622 10.4713C19.9517 10.7629 19.9704 11.544 19.9704 11.9017L17.3447 8.61724L15.8814 9.74656L11.8252 12.9652Z" fill="url(#paint2_linear_328_34835)"/>
<path d="M14.2577 11.0208L6.16421 17.4579L5.94776 17.2132L5.74072 16.9638L13.8436 10.4702L14.2577 11.0208Z" fill="url(#paint3_linear_328_34835)"/>
<path d="M8.98757 19.3981C8.52173 19.2098 8.26292 19.0734 7.91943 18.8522L18.9115 10.4858L19.3586 11.0881L8.98757 19.3981Z" fill="#E6D399"/>
<path d="M18.29 16.9271L15.7256 13.8639C15.9514 13.6051 16.4031 13.0874 16.4314 13.0874C16.4549 13.0874 18.0925 15.0355 18.9111 16.0095L18.29 16.9271Z" fill="#E6D399"/>
<path d="M16.3044 14.3537C16.7073 14.3537 17.0338 14.0439 17.0338 13.6619C17.0338 13.2799 16.7073 12.9702 16.3044 12.9702C15.9017 12.9702 15.5752 13.2799 15.5752 13.6619C15.5752 14.0439 15.9017 14.3537 16.3044 14.3537Z" fill="#EAE9CD"/>
<path d="M12.2249 6.91841C11.9426 6.94194 11.6932 6.42433 11.6038 6.16553L11.5332 7.1725L11.9896 8.0289C11.8721 7.76069 12.1309 7.53012 12.2768 7.44543L12.3097 7.1725C12.4038 7.0784 12.5073 6.89017 12.2249 6.91841Z" fill="#361822"/>
<path d="M12.9354 8.56527C13.006 8.55586 13.0765 8.17942 13.1001 7.9912C13.1942 7.97238 13.3542 7.98179 13.2788 8.14177C13.1847 8.33941 13.6035 8.74407 13.4153 8.75819C13.3558 8.76581 13.2988 8.78721 13.249 8.8207C13.1991 8.85419 13.1579 8.89886 13.1283 8.95113C13.1707 9.07346 13.3024 9.32756 13.5188 9.3558C13.7353 9.38402 13.9941 9.3699 14.0976 9.3558L13.7683 9.54402C13.6647 9.66165 13.4153 9.88286 13.2506 9.83104C13.0812 9.77929 12.7471 9.21933 12.6012 8.95113L11.8813 7.87826L12.0508 7.45947C12.0366 7.50653 12.0413 7.68534 12.1918 8.01473C12.3895 8.42881 12.8413 8.58409 12.9354 8.56997V8.56527Z" fill="#9A634E"/>
<path d="M12.9307 7.29473C12.8459 7.16297 12.5307 7.49707 12.3848 7.68059C12.5024 7.37944 12.893 6.8477 13.0106 6.99358C13.1283 7.13475 13.1377 7.73705 13.1565 8.01938L13.0153 8.05232C13.02 7.85468 13.02 7.42179 12.9307 7.29473Z" fill="#CCB98E"/>
<path d="M13.3965 9.08309C13.2506 9.08309 13.2459 8.97015 13.2553 8.91368C13.2366 8.92309 13.2506 8.90897 13.4907 8.83368C14.1118 8.64546 14.1542 8.73958 14.3094 8.76311C14.0882 8.85721 13.5471 9.08309 13.3965 9.08309Z" fill="#A2776E"/>
<path d="M13.7355 9.12914C13.5614 9.19972 13.3686 9.11503 13.3262 9.11032C13.3403 9.16678 13.4202 9.28442 13.6274 9.30795C13.839 9.33148 14.1402 9.03973 14.2625 8.88916C14.1449 8.95033 13.8767 9.07738 13.7355 9.13385V9.12914Z" fill="#A2776E"/>
<path d="M13.0673 9.12513C13.0527 9.04015 13.0687 8.95272 13.1127 8.87854C13.1567 8.80437 13.2257 8.74831 13.3072 8.72046C13.6037 8.61694 14.1213 8.48047 14.4648 8.81457C14.2295 8.64517 13.9001 8.76751 13.6555 8.86162C13.5473 8.89926 13.4531 8.9322 13.392 8.93691C13.232 8.93691 13.1096 9.06396 13.0626 9.12513H13.0673ZM13.2367 9.21924C13.4108 9.26629 13.8108 9.28983 14.0131 9.06396C13.6979 9.72273 13.3638 9.4404 13.2367 9.21924Z" fill="#390800"/>
<path d="M9.34473 9.17676H4.49805L4.67215 8.85208H9.26943C9.43883 8.85208 9.44354 8.75797 9.42471 8.7109V4.4336L9.8341 4.27832V8.84737L9.65058 9.17205H9.34473V9.17676Z" fill="url(#paint4_linear_328_34835)"/>
<path d="M9.49568 8.8578H4.67725L4.79487 8.55665H9.17571V4.50521L9.49568 4.39697V8.8578Z" fill="#CFBB96"/>
<path d="M9.17539 8.56378H4.78516C4.81809 8.46967 4.86044 8.38497 4.87926 8.36144H8.8366V4.64409C8.96835 4.5688 9.10011 4.53116 9.17539 4.50293V8.56378Z" fill="#401D07"/>
<path d="M5.03973 8.06166C4.99268 8.13696 4.92209 8.29694 4.88916 8.36753L8.84179 8.37222V4.63135L8.70532 4.66899V8.06166H5.03973Z" fill="#D8C19E"/>
<path d="M7.76424 5.11084C7.02077 5.4214 5.96203 6.55073 5.47266 7.29419H7.76424V5.11084Z" fill="#DDB963"/>
<path d="M5.48223 7.2943C5.38342 7.40724 5.14814 7.8872 5.04932 8.07072H8.7055V4.67334C8.55022 4.71099 7.97614 4.98861 7.7644 5.11566V7.2943H5.48223Z" fill="#301617"/>
<path d="M9.53332 11.0591H4.07022C4.0561 11.1532 4.04669 11.2944 4.04199 11.3602H9.17569V13.6707L9.53332 13.5342V11.0591Z" fill="#E7D0B1"/>
<path d="M4.04709 11.3452C4.01887 11.5664 4.01416 11.8911 4.01416 12.0229H8.62556V14.0274L9.1761 13.6462V11.3499H4.04709V11.3452Z" fill="#3B2323"/>
<path d="M4.30078 11.5293H8.22988V11.6657H4.30078V11.5293Z" fill="#71524D"/>
<path d="M8.70557 11.7046H8.95025V13.7185H8.70557V11.7046Z" fill="#AC8F71"/>
<path d="M9.66518 13.0908L5.39258 16.4788L5.60431 16.7894L5.83019 17.0716L8.65819 14.6719L17.5234 7.8489L19.8384 10.4981L19.7209 9.877L17.3869 6.88428L9.66518 13.0908Z" fill="url(#paint5_linear_328_34835)"/>
<path d="M4.11737 10.6968L4.07031 11.0496L9.5287 11.0591V13.3648L9.9145 13.2141V11.1437L9.46753 10.6968H4.11737Z" fill="#301900"/>
<path d="M4.79501 12.5781L4.0092 12.0229C3.93861 12.6863 4.30565 14.5263 4.79501 15.4296V12.5781Z" fill="#4A1F0F"/>
<path d="M4.78098 12.5781L4.00928 12.0229H8.65831L7.99013 12.5781H4.78098Z" fill="#EAD697"/>
<path d="M7.98535 14.5173V12.5693L8.64412 12.0093V13.995L7.98535 14.5173Z" fill="#59301E"/>
<path d="M4.78125 12.5732V15.4107C4.80478 15.4813 4.92242 15.6742 4.98359 15.7635H6.38583L8.00453 14.5401V12.5732H4.78125Z" fill="#D09F52"/>
<path d="M5.39726 16.4836C5.34079 16.413 5.08199 15.9708 4.96436 15.7637H6.39013L5.39726 16.4836Z" fill="#2C1608"/>
<path d="M11.9237 4.80611V4.00146H11.4014L11.5896 5.38959L11.919 4.80611H11.9237Z" fill="#1C0D0A"/>
<path d="M9.61342 10.1701C9.51931 9.90189 9.62283 9.61956 9.80637 9.42193C9.90047 9.32781 10.004 9.25253 10.1075 9.21018C10.2157 9.17253 10.3052 9.16783 10.3757 9.20077C10.6439 9.3184 10.7663 9.59132 10.7898 9.71838L10.9451 9.68073C10.912 9.54528 10.8493 9.41888 10.7614 9.31064C10.6736 9.20241 10.5626 9.11505 10.4369 9.05489C10.3135 9.00794 10.1766 9.01133 10.0557 9.0643C9.92397 9.11136 9.79694 9.20547 9.69341 9.3184C9.48166 9.54427 9.34521 9.88311 9.46756 10.2266C9.57107 10.5042 9.8111 10.6642 10.0557 10.7583C10.3052 10.8524 10.564 10.8806 10.7334 10.8759V10.7206C10.5781 10.7206 10.3381 10.6972 10.1122 10.6124C9.8863 10.5277 9.69341 10.3912 9.61342 10.1701ZM10.6816 10.5325C10.6628 10.5419 10.1593 10.5277 9.97579 10.2595C9.78752 9.99126 9.90047 9.38899 10.2722 9.39369C10.6486 9.39369 10.898 10.0289 10.6816 10.5325Z" fill="#1B1107"/>
<path d="M10.3338 11.6001C10.3102 10.9038 10.1455 10.6638 10.0703 10.6309C11.6277 10.8991 11.0585 11.7837 11.0302 11.8119L10.5926 12.5178C10.5173 12.4989 10.3573 12.2966 10.3338 11.6001Z" fill="#39201B"/>
<path d="M11.5236 8.89301C11.853 8.62479 11.6976 7.78721 11.5753 7.40137C12.0125 8.17215 12.477 8.92707 12.9681 9.66471C13.2693 10.0741 13.5375 10.0505 13.6363 9.98464L10.6954 12.4834L10.7848 11.9657C11.0153 11.2128 10.2954 10.3846 10.2954 9.77765C10.2954 9.16593 11.1047 9.2271 11.5189 8.89301H11.5236Z" fill="#141416"/>
<path d="M14.794 4.49008C13.9329 4.0713 12.3801 3.9913 11.7119 4.00071L11.8625 4.8477C11.9942 4.81947 12.4131 4.75359 13.0577 4.69242C13.707 4.63125 14.4835 5.13004 14.794 5.38413V4.49008Z" fill="#BC8F65"/>
<path d="M14.7754 5.37353V4.47949C14.9071 4.50772 15.1659 4.63006 15.2743 4.68653L15.1283 5.15708L15.3259 5.62763L14.7754 5.37353Z" fill="#1B0000"/>
<path d="M16.8643 7.39902V5.63916L17.2126 5.9215V7.1167L16.8643 7.39902Z" fill="#100000"/>
<path d="M17.2036 5.90137L17.4202 6.10841V6.94129L17.2036 7.11068V5.90137Z" fill="#D6BD9E"/>
<path d="M17.415 6.10449L17.7115 6.37741V7.32321L17.415 6.94677V6.10449Z" fill="#4F2D11"/>
<path d="M17.7114 7.31756V6.37646L17.9185 6.59763V7.57638L17.7114 7.31756Z" fill="#B38971"/>
<path d="M17.9191 7.58483L17.9189 6.59668C18.3142 6.94959 18.832 7.79658 19.0436 8.17773H18.3943L17.9237 7.58483H17.9191Z" fill="#240C00"/>
<path d="M13.6178 6.7766C13.632 6.71543 13.6978 6.58838 13.8907 6.55544C14.0789 6.5272 14.2107 6.54603 14.2531 6.55544C14.2248 6.64014 14.1307 6.81895 13.9943 6.84718L13.9471 6.85659C13.7872 6.88952 13.6178 6.92247 13.6178 6.7766ZM12.2814 7.21422C12.3803 7.12481 12.6109 6.95071 12.719 6.93659C12.8602 6.92247 12.7896 7.43066 12.3755 7.45419C12.3338 7.45151 12.294 7.43496 12.2626 7.40714C12.2296 7.37891 12.2626 7.26597 12.2814 7.21422Z" fill="#E4DAB6"/>
<path fill-rule="evenodd" clip-rule="evenodd" d="M11.6699 6.66922C11.8581 6.99391 11.8581 7.64797 11.8299 7.93501C11.2182 7.3327 11.1993 6.42924 11.19 6.12809V6.10456C11.1852 5.82224 11.8299 4.76821 11.9005 4.73526L11.9616 4.68821C12.164 4.53292 12.804 4.04355 13.5474 4.18942C14.1451 4.30706 14.4414 4.62703 14.6438 4.84819C14.7285 4.9423 14.7991 5.01288 14.8697 5.05053C15.1097 5.17758 15.3403 5.45991 15.5332 5.80341C15.6744 6.0575 15.6884 6.73509 15.6744 7.09272C15.6696 7.02213 15.6225 6.92332 15.4768 6.83862C15.2555 6.70687 15.2414 7.0739 15.2414 7.29976V7.53504C15.2414 7.64797 15.2414 7.71855 15.2038 7.69502C15.152 7.66679 15.1332 7.45034 15.1332 7.34682C15.1567 6.67864 14.9732 6.41513 14.8885 6.29279L14.8697 6.26925L14.8226 6.17514C14.6908 5.87869 14.305 5.05053 13.5474 5.05053C12.9909 5.04756 12.4511 5.24083 12.0228 5.59637C11.9616 5.66225 11.4299 6.26925 11.6699 6.66922ZM13.4156 6.73509L13.2181 6.48101C13.3592 6.50924 13.505 6.43395 13.6556 6.35867C13.7639 6.3022 13.8721 6.24573 13.9851 6.22691C14.2109 6.17985 14.3898 6.29279 14.4556 6.35396L14.3332 6.33513C14.0603 6.32572 13.9239 6.43865 13.8298 6.53747C13.9144 6.50924 14.032 6.49041 14.1921 6.49983L14.3379 6.55629H14.291C14.2623 6.64763 14.2064 6.72807 14.1309 6.78687C14.1075 6.805 14.0823 6.82077 14.0556 6.83391L14.0839 6.80568C14.0643 6.81355 14.0437 6.81831 14.0227 6.8198C13.9286 6.8198 13.858 6.75863 13.858 6.69275C13.858 6.65981 13.8721 6.63158 13.9003 6.60805C13.8203 6.62687 13.7498 6.65511 13.698 6.70216C13.6604 6.79156 13.6651 6.92803 13.6697 6.9986L13.6415 6.90921C13.6039 6.72569 13.4768 6.72099 13.4156 6.73509ZM14.0744 6.5704L14.2533 6.55629C14.2391 6.60335 14.2156 6.6504 14.1827 6.69275C14.1827 6.63628 14.1403 6.58923 14.0791 6.5704H14.0744ZM12.2393 6.8198C11.9663 6.95626 11.8911 7.1633 11.8864 7.25271C12.0135 7.06448 12.3099 6.97038 12.437 6.94215C12.371 6.9845 12.2346 7.09742 12.1922 7.25271C12.1754 7.30219 12.1755 7.35588 12.1926 7.4053C12.2095 7.45471 12.2426 7.49706 12.2863 7.52562V7.46446C12.404 7.51151 12.5827 7.40329 12.6628 7.34211C12.5075 7.43151 12.3522 7.41739 12.2863 7.39387V7.29506C12.2958 7.21976 12.3946 7.13978 12.5216 7.08331L12.5122 7.09272C12.4886 7.13978 12.4651 7.23388 12.5452 7.27623C12.6534 7.32329 12.8509 7.22918 12.7993 7.09272C12.7929 7.07601 12.7828 7.06096 12.7697 7.04873C12.7566 7.03651 12.7411 7.0274 12.7239 7.02213C12.771 7.01272 12.8228 7.00803 12.8651 7.01272C12.9545 7.02213 12.9969 7.05038 13.0204 7.0786C13.027 7.10521 13.0333 7.13188 13.0393 7.1586C13.0769 7.31858 13.1052 7.48798 13.1052 7.62915C13.1005 7.91147 13.0628 7.97265 13.0486 7.96794C13.0109 8.05263 12.9874 8.23616 13.1569 8.27851C13.2744 8.31145 13.3216 8.25969 13.3732 8.19851C13.4156 8.15145 13.4628 8.095 13.5568 8.08088L13.6744 8.07147C13.8062 8.06206 13.8815 8.05263 13.8815 7.91147C13.8815 7.73267 13.505 7.72325 13.4392 7.83619C13.3687 7.94441 13.1898 8.00088 13.1569 7.87383C13.1474 7.8409 13.1474 7.78913 13.1427 7.71855C13.1391 7.47599 13.1011 7.23518 13.0298 7.00331L13.0157 6.78687C13.0063 6.52805 12.5922 6.6504 12.244 6.8198H12.2393Z" fill="#390800"/>
<path d="M12.724 4.42374C12.4041 4.54138 12.2252 4.81429 12.1782 4.93664C12.6204 4.55078 13.8062 4.65431 14.3427 4.74842L13.8345 4.41903C13.4714 4.3167 13.0871 4.3167 12.724 4.41903V4.42374Z" fill="#5D3E2C"/>
<defs>
<linearGradient id="paint0_linear_328_34835" x1="5.73174" y1="13.8877" x2="16.8049" y2="14.6244" gradientUnits="userSpaceOnUse">
<stop stop-color="#E8D394"/>
<stop offset="0.52" stop-color="#E4E1B3"/>
<stop offset="1" stop-color="#E2D07A"/>
</linearGradient>
<linearGradient id="paint1_linear_328_34835" x1="9.38969" y1="10.7425" x2="17.1118" y2="18.3373" gradientUnits="userSpaceOnUse">
<stop stop-color="#B69961"/>
<stop offset="0.17" stop-color="#90703F"/>
<stop offset="0.36" stop-color="#CFB885"/>
<stop offset="0.5" stop-color="#95713A"/>
<stop offset="0.71" stop-color="#E0D792"/>
<stop offset="1" stop-color="#DBC07D"/>
</linearGradient>
<linearGradient id="paint2_linear_328_34835" x1="12.0001" y1="4.00043" x2="12.0001" y2="19.8107" gradientUnits="userSpaceOnUse">
<stop stop-color="#664F41"/>
<stop offset="0.33" stop-color="#745A37"/>
<stop offset="0.74" stop-color="#948149"/>
</linearGradient>
<linearGradient id="paint3_linear_328_34835" x1="5.48535" y1="18.9322" x2="18.7151" y2="11.3061" gradientUnits="userSpaceOnUse">
<stop stop-color="#12140D"/>
<stop offset="0.83" stop-color="#4A3D25"/>
<stop offset="1" stop-color="#846E40"/>
</linearGradient>
<linearGradient id="paint4_linear_328_34835" x1="9.99594" y1="20.6757" x2="21.3883" y2="7.81466" gradientUnits="userSpaceOnUse">
<stop stop-color="#23150A"/>
<stop offset="1" stop-color="#241500"/>
</linearGradient>
<linearGradient id="paint5_linear_328_34835" x1="12.0207" y1="3.99909" x2="0.841176" y2="15.1311" gradientUnits="userSpaceOnUse">
<stop stop-color="#2F2218"/>
<stop offset="1" stop-color="#12140D"/>
</linearGradient>
</defs>
</svg>
