<svg width="24" height="24" viewBox="0 0 24 24" fill="none" xmlns="http://www.w3.org/2000/svg">
<path fill-rule="evenodd" clip-rule="evenodd" d="M21 12C21 14.387 20.0518 16.6761 18.364 18.3639C16.6761 20.0518 14.387 21 12 21C9.61306 21 7.32386 20.0518 5.63603 18.3639C3.94821 16.6761 3 14.387 3 12C3 9.61306 3.94821 7.32386 5.63603 5.63603C7.32386 3.94821 9.61306 3 12 3C14.387 3 16.6761 3.94821 18.364 5.63603C20.0518 7.32386 21 9.61306 21 12ZM19.4118 12C19.4118 13.9658 18.6308 15.8509 17.2409 17.2409C15.8509 18.6308 13.9657 19.4118 12 19.4118C10.0343 19.4118 8.14906 18.6308 6.75908 17.2409C5.36911 15.8509 4.58823 13.9658 4.58823 12C4.58823 10.0343 5.36911 8.14906 6.75908 6.75908C8.14906 5.36911 10.0343 4.58823 12 4.58823C13.9657 4.58823 15.8509 5.36911 17.2409 6.75908C18.6308 8.14906 19.4118 10.0343 19.4118 12ZM13.5882 15.0071V6.17646L15.1765 7.04999V15.7482L13.5882 15.0071ZM8.82351 15.0335V6.19765L10.4118 7.07117V15.7694L8.82351 15.0282V15.0335ZM6.70588 11.1159V14.2553L8.29411 14.9541V11.947L6.70588 11.1212V11.1159ZM15.7059 11.1159V14.2553L17.2941 14.9541V11.947L15.7059 11.1212V11.1159ZM11.2058 8.25175V17.0824L12.7941 17.8235V9.12528L11.2058 8.25175Z" fill="#009BA0"/>
</svg>
