<svg width="24" height="24" viewBox="0 0 24 24" fill="none" xmlns="http://www.w3.org/2000/svg">
<path d="M11.9863 14.3622C12.0021 14.3307 12.0375 14.3487 12.0538 14.3622L12.3805 18.186L12.0201 18.5252L11.6421 18.186C11.7501 16.9245 11.9706 14.3934 11.9863 14.3622Z" fill="#E61E28"/>
<path d="M11.2485 11.573L11.5929 11.1455L12.0105 12.032L12.4347 11.1455L12.7791 11.573L12.0105 13.2282L11.2485 11.573Z" fill="url(#paint0_linear_328_30088)"/>
<path d="M11.6475 10.6676L12.0165 10.2896L12.3913 10.6676L12.016 11.3552L11.6475 10.6676Z" fill="url(#paint1_linear_328_30088)"/>
<path d="M4.97395 10.9602L4.63916 9.98193L11.4405 12.843L11.8734 13.599L11.282 17.8704L10.7646 17.3908L11.6196 13.599L4.97395 10.9602Z" fill="url(#paint2_linear_328_30088)"/>
<path d="M19.0265 10.9602L19.3617 9.98193L12.5603 12.843L12.1274 13.599L12.7188 17.8704L13.2362 17.3908L12.3808 13.599L19.0265 10.9602Z" fill="url(#paint3_linear_328_30088)"/>
<path d="M10.1627 10.4827L3 5.4751L3.71326 7.42947L10.5894 11.2846L10.1627 10.4827Z" fill="url(#paint4_linear_328_30088)"/>
<path d="M13.8372 10.4827L21 5.4751L20.2867 7.42947L13.4106 11.2846L13.8372 10.4827Z" fill="url(#paint5_linear_328_30088)"/>
<path d="M4.44994 9.46182L3.91309 7.97461L10.7883 11.6664L11.2117 12.4535L4.44994 9.46182Z" fill="url(#paint6_linear_328_30088)"/>
<path d="M19.5508 9.46182L20.0876 7.97461L13.2125 11.6664L12.7891 12.4535L19.5508 9.46182Z" fill="url(#paint7_linear_328_30088)"/>
<defs>
<linearGradient id="paint0_linear_328_30088" x1="11.9974" y1="5.47549" x2="11.9974" y2="18.5255" gradientUnits="userSpaceOnUse">
<stop stop-color="#E9231E"/>
<stop offset="1" stop-color="#E42021"/>
</linearGradient>
<linearGradient id="paint1_linear_328_30088" x1="11.9997" y1="5.47461" x2="11.9997" y2="18.5247" gradientUnits="userSpaceOnUse">
<stop stop-color="#E53A2D"/>
<stop offset="1" stop-color="#E82620"/>
</linearGradient>
<linearGradient id="paint2_linear_328_30088" x1="3.00025" y1="5.47513" x2="15.2884" y2="18.7739" gradientUnits="userSpaceOnUse">
<stop stop-color="#F0341E"/>
<stop offset="1" stop-color="#E31D26"/>
</linearGradient>
<linearGradient id="paint3_linear_328_30088" x1="21.0002" y1="5.47513" x2="8.71099" y2="18.7743" gradientUnits="userSpaceOnUse">
<stop stop-color="#F0341E"/>
<stop offset="1" stop-color="#E31D26"/>
</linearGradient>
<linearGradient id="paint4_linear_328_30088" x1="3.31165" y1="5.47511" x2="20.3849" y2="19.286" gradientUnits="userSpaceOnUse">
<stop stop-color="#F7691F"/>
<stop offset="1" stop-color="#E9342A"/>
</linearGradient>
<linearGradient id="paint5_linear_328_30088" x1="20.6894" y1="5.4751" x2="3.61495" y2="19.2861" gradientUnits="userSpaceOnUse">
<stop stop-color="#F7691F"/>
<stop offset="1" stop-color="#E9342A"/>
</linearGradient>
<linearGradient id="paint6_linear_328_30088" x1="3.00003" y1="5.4753" x2="22.4929" y2="15.1537" gradientUnits="userSpaceOnUse">
<stop stop-color="#EE511F"/>
<stop offset="1" stop-color="#EE1B21"/>
</linearGradient>
<linearGradient id="paint7_linear_328_30088" x1="20.0876" y1="7.97469" x2="12.7576" y2="12.2745" gradientUnits="userSpaceOnUse">
<stop stop-color="#EE511F"/>
<stop offset="1" stop-color="#EE1B21"/>
</linearGradient>
</defs>
</svg>
