<svg width="24" height="24" viewBox="0 0 24 24" fill="none" xmlns="http://www.w3.org/2000/svg">
<path d="M6.41404 20.61C6.32676 20.4846 7.38508 20.3808 7.47236 20.3645C7.5651 20.37 7.60329 20.2881 7.58146 20.1135C7.55418 19.9882 7.59237 19.9009 7.69057 19.8626C7.71239 19.8517 7.71785 19.8409 7.71785 19.819L7.70148 19.7972C7.69437 19.795 7.68678 19.795 7.67966 19.7972C7.55418 19.8081 7.42871 19.8027 7.30871 19.7698C5.98853 19.3879 5.14297 18.5915 4.77202 17.3696C4.56533 16.719 4.59236 16.0167 4.84839 15.3838C4.99905 14.9651 5.24897 14.589 5.57674 14.2877C5.90451 13.9866 6.30037 13.7693 6.73045 13.6547C6.76318 13.6437 6.79591 13.6547 6.82318 13.6764C6.86137 13.7036 6.87774 13.7473 6.86683 13.7909C6.86683 13.8346 6.87774 13.8456 6.92137 13.8456C7.22823 13.7968 7.5404 13.7912 7.84876 13.8292C8.09972 13.8564 8.48158 13.8946 8.55249 14.1783C8.61249 14.4292 8.47613 14.5656 8.27973 14.6802C7.31415 15.2421 6.64862 16.044 6.6268 17.1896C6.61663 17.5724 6.70391 17.9513 6.88044 18.291C7.05698 18.6308 7.31698 18.9199 7.63601 19.1316C7.65784 19.1589 7.6742 19.1535 7.69057 19.1206C7.71785 19.0389 7.70148 18.9571 7.63601 18.8807C7.44509 17.8605 7.89241 16.6332 8.80889 16.1039C8.96164 16.0167 9.07074 15.8312 9.09257 15.6566C9.15802 15.111 9.26713 14.5438 9.27258 13.9709C9.27258 13.4363 9.28895 12.9672 9.03802 12.4708L8.53068 11.4344C8.08855 10.4651 7.79257 9.43548 7.65238 8.37936C7.65238 8.36845 7.66329 8.35753 7.6742 8.34662L8.11607 8.00293C8.14335 7.98112 8.14335 7.9593 8.11607 7.93748C8.03766 7.87436 7.98051 7.78866 7.95242 7.69199C7.63056 6.61731 7.58693 5.55355 7.82149 4.50613C7.92514 4.05335 8.44339 3.95515 8.77071 4.24974C9.29441 4.71888 9.72537 5.18258 10.0581 5.64083C10.0909 5.68446 10.1127 5.67901 10.1127 5.62446C10.1345 5.4117 10.0309 5.12258 10.1127 4.94801C10.2163 4.73526 10.1672 4.38612 10.1291 4.157C10.1018 3.97152 10.3527 3.73694 10.4837 3.62784C10.7128 3.4369 10.6527 3.02776 11.051 3.01141C11.351 3.00048 11.6947 2.99504 12.082 3.00595C12.3821 3.01141 13.0095 3.09869 13.2604 3.28417L13.2986 3.32781C13.3095 3.35509 13.3312 3.37145 13.3585 3.37145C13.7131 3.3769 14.0678 3.37145 14.4224 3.34417C14.7661 3.32235 15.1151 3.35508 15.4587 3.3769C15.497 3.3769 15.5244 3.39872 15.5406 3.43145C15.6115 3.57874 15.7917 4.16246 15.7752 4.26065C15.7697 4.28793 15.7807 4.30974 15.8079 4.3152C15.9552 4.38066 16.0262 4.49522 16.0316 4.65342V5.03529C16.0208 5.21532 16.059 5.54264 15.988 5.69539C15.9552 5.77176 15.9334 5.84812 15.9334 5.91359C15.9225 6.07725 15.9771 6.10452 16.0971 5.98996C16.4408 5.64627 16.7953 5.25896 17.1609 4.83345C17.2809 4.6916 17.4445 4.56069 17.6409 4.4243C17.9137 4.24974 18.2901 4.40794 18.3938 4.6807C18.6338 5.30805 18.7211 5.98996 18.6392 6.7155C18.6065 6.9719 18.5301 7.31558 18.4156 7.76291C18.3991 7.82837 18.3719 7.88838 18.3447 7.94293C18.3227 7.97566 18.3119 8.01384 18.2955 8.05205C18.2846 8.09023 18.2955 8.12296 18.3337 8.15024L18.5738 8.30843C18.6175 8.33571 18.6392 8.37936 18.6283 8.4339C18.431 9.8646 17.9526 11.242 17.2209 12.4871C16.9373 12.9618 16.7844 13.4418 16.8936 14.0037C16.9427 14.2164 16.9644 14.4401 16.9699 14.6583C16.9838 15.1153 17.0498 15.5691 17.1663 16.0112L17.2101 16.0495C18.4265 16.704 18.5356 17.8497 18.4156 19.0935C18.3991 19.2898 18.2901 19.4481 18.301 19.639C18.301 19.6827 18.3174 19.7154 18.3447 19.748C18.4809 19.9009 18.5628 20.0754 18.5955 20.2827C18.6338 20.5664 19.1193 20.5228 19.3156 20.5228C19.463 20.5282 19.2447 20.7737 19.1576 20.7737C18.0719 20.7737 16.9754 20.9918 15.8789 20.9918C14.3733 21.0027 12.453 21.0027 10.1182 20.9918C9.62172 20.9918 9.15802 20.9701 8.71615 20.9264C8.01788 20.8555 6.95956 20.9264 6.41404 20.61Z" fill="#020202"/>
<path d="M12.8399 3.34978L13.1017 3.38797C13.1564 3.39888 13.1672 3.42069 13.1127 3.45888C13.0036 3.52435 12.9162 3.61163 12.7853 3.61709H12.2507C12.0871 3.61163 11.907 3.628 11.7053 3.66619C11.3997 3.72074 11.0833 3.75347 10.7561 3.75347C10.6797 3.75347 10.6578 3.72074 10.7014 3.64982L10.9524 3.26794C10.9772 3.22509 11.013 3.18977 11.0562 3.16575C11.0995 3.14172 11.1485 3.1299 11.1979 3.13157C11.6179 3.13157 12.4144 3.06066 12.78 3.32797C12.7957 3.34008 12.8145 3.34763 12.8344 3.34978H12.8399ZM15.2292 3.50253C15.2659 3.50627 15.3004 3.52148 15.3278 3.54597C15.3552 3.57046 15.3742 3.60299 15.382 3.63891C15.4311 3.84075 15.5075 4.04259 15.6111 4.23898C15.6929 4.38082 15.6548 4.41901 15.502 4.35901C14.7819 4.08624 13.9691 3.688 13.1727 3.72619C13.1509 3.72619 13.1017 3.66619 13.1345 3.64982C13.3418 3.5789 13.5327 3.63346 13.7564 3.58435C14.2409 3.48616 14.7369 3.45859 15.2292 3.50253Z" fill="#6703BF"/>
<path d="M15.7642 4.68641C15.8006 4.68465 15.8365 4.69653 15.8647 4.71972C15.893 4.7429 15.9115 4.77574 15.9169 4.81188C15.9169 4.83916 15.9169 4.86644 15.906 4.88279C15.8633 5.01102 15.8448 5.14605 15.8515 5.28103C15.8624 5.40105 15.8405 5.52651 15.8023 5.65745C15.7478 5.8211 15.7478 5.99567 15.8023 6.17023C15.8023 6.20296 15.7696 6.2357 15.7369 6.22479C15.4915 6.11023 15.246 6.00658 14.995 5.90839C14.0676 5.55924 14.0349 5.49924 12.7584 5.28103C12.611 5.23739 11.8528 5.15556 11.6892 5.16102H10.3744C10.2217 5.16102 10.3417 4.99735 10.3417 4.92644C10.3655 4.63931 10.3599 4.35052 10.3254 4.06452C10.3962 3.85721 11.089 3.86267 11.2419 3.85721C11.951 3.8463 12.7038 3.8463 13.4948 3.86267C14.1003 3.87903 15.0386 4.69185 15.7642 4.68095V4.68641Z" fill="#6703BF"/>
<path d="M9.45251 7.08063C8.71604 6.23507 8.71604 6.59512 8.9288 7.44613L8.46511 7.8171C8.4051 7.86619 8.356 7.86074 8.3069 7.79527C8.26216 7.72979 8.22724 7.65811 8.20325 7.58251C7.98505 6.9279 7.89776 6.2569 7.9305 5.55317C7.94687 5.24222 8.01232 4.68032 8.26327 4.46758C8.29055 4.45121 8.31781 4.4403 8.35055 4.44575C8.98882 4.55486 9.83437 5.86957 10.1508 6.46419C10.1835 6.51875 10.1726 6.5624 10.1235 6.59512L9.45251 7.08063ZM17.4226 7.48978C17.6789 6.74787 17.4226 6.38237 16.9426 7.17337L16.2552 6.70422C16.2318 6.68861 16.2154 6.66459 16.2092 6.63715C16.2032 6.60971 16.2079 6.58098 16.2224 6.55693C16.5566 5.97102 16.9757 5.43789 17.4663 4.97491C17.619 4.82762 17.9191 4.71306 18.0827 4.88763C18.2028 5.01856 18.3009 5.44952 18.3009 5.63499C18.3063 6.05505 18.3009 6.426 18.2845 6.74787C18.2627 7.07518 18.1864 7.45704 18.0553 7.87165C18.0445 7.90438 18.0227 7.90983 17.9954 7.89892C17.7819 7.79714 17.588 7.65866 17.4226 7.48978Z" fill="#4CC326"/>
<path d="M14.3189 5.827C14.428 5.87609 14.5481 5.91428 14.679 5.93611C14.7063 5.94702 14.6845 6.00703 14.6627 6.00703C14.3081 6.00703 13.9589 5.99612 13.6098 5.96884C13.1625 5.93611 12.7205 6.00158 12.2732 6.00703C11.7932 6.01249 11.3186 6.18159 10.8604 6.31252C10.2931 6.47618 10.2876 5.79972 10.3694 5.46696C10.3803 5.43423 10.4076 5.41241 10.4458 5.40695C11.1331 5.33604 11.7769 5.42877 12.4642 5.41241C12.9715 5.4015 13.839 5.61971 14.3189 5.827Z" fill="#6703BF"/>
<path d="M9.45171 7.08122L8.928 7.44672C8.69089 7.06411 8.55916 6.62559 8.54614 6.17565C8.55264 6.15664 8.56637 6.14097 8.58433 6.132L8.61706 6.12109C8.808 6.12109 8.95528 6.21384 9.05348 6.39387C9.1735 6.61207 9.30987 6.84664 9.45171 7.08122Z" fill="white"/>
<path d="M12.9818 6.16442C13.0091 7.28274 13.2109 7.49004 13.3092 6.15351C13.95 6.09413 14.5959 6.12165 15.2293 6.23533C15.4257 6.25714 15.5458 6.32261 15.7204 6.38808C15.7476 6.39898 15.7749 6.42082 15.7858 6.44263C15.8731 6.60629 15.8949 6.75358 16.0694 6.87359C16.4241 7.12453 17.1224 7.6046 18.1697 8.31923C18.2679 8.39016 18.3171 8.45562 18.3117 8.52108C18.2298 8.53744 18.1534 8.59745 18.0825 8.69564C17.4823 9.51939 16.9095 10.4414 16.2113 11.1614C15.9823 11.4015 15.6822 11.6251 15.3385 11.5268C13.32 10.9268 12.5891 11.9032 10.8379 11.4178C10.8056 11.4082 10.7756 11.3915 10.7507 11.3686C9.85597 10.5886 9.13042 9.58484 8.39395 8.66836C8.32304 8.58108 8.16483 8.51563 7.90845 8.46653L10.096 6.94996C10.2596 6.84087 10.3688 6.71539 10.4342 6.57901C10.4415 6.56378 10.4521 6.55045 10.4654 6.54005C10.4787 6.52964 10.4941 6.52243 10.5106 6.51901C10.6634 6.48627 10.8216 6.49719 10.9798 6.45354C11.4653 6.31716 11.9289 6.21351 12.3762 6.14805C12.5399 6.12623 12.7418 6.13167 12.9872 6.15895L12.9818 6.16442Z" fill="#4CC326"/>
<path d="M12.9819 6.16423L13.3094 6.15332L13.2275 7.22799C13.2261 7.23952 13.2219 7.25052 13.2151 7.26003C13.2086 7.26954 13.1996 7.27728 13.1893 7.28255C13.1779 7.28983 13.1646 7.29371 13.1511 7.29371C13.1376 7.29371 13.1242 7.28983 13.1129 7.28255C13.0857 7.25527 13.0692 7.21709 13.0583 7.16253C13.0201 6.83522 12.9929 6.50245 12.9874 6.15877L12.9819 6.16423Z" fill="#006413"/>
<path d="M17.4224 7.49075L16.9424 7.17434C17.0678 6.86884 17.1768 6.65609 17.2696 6.53608C17.3624 6.41607 17.4551 6.32879 17.5533 6.27423C17.5816 6.25811 17.6151 6.25365 17.6466 6.26179C17.6782 6.26994 17.7055 6.29005 17.7224 6.31788L17.7388 6.38334C17.7443 6.83612 17.6405 7.20162 17.4224 7.49075ZM7.90845 8.46724C8.16483 8.51633 8.32304 8.5818 8.39395 8.66908C9.13042 9.58556 9.85597 10.5894 10.7507 11.3694C11.0234 11.6094 11.2361 11.0803 11.3617 10.9494C11.7762 10.4966 11.9617 9.80372 12.4254 9.39462C12.6982 9.15459 12.971 9.07277 13.271 9.14914C13.5546 9.22006 13.762 9.37825 13.9037 9.61284C14.0729 9.91293 14.3839 10.3056 14.6675 10.6929L15.2622 11.4731C15.284 11.5003 15.3056 11.5168 15.3385 11.5276C15.6822 11.6259 15.9823 11.4022 16.2113 11.1621C16.9095 10.4366 17.4878 9.52556 18.0825 8.69636C18.1534 8.59817 18.2298 8.53815 18.3117 8.52179C18.2897 8.86548 18.2352 9.21461 18.1479 9.56919C17.8284 10.8668 17.2555 12.0887 16.4622 13.1642C16.3749 13.2841 16.1677 13.5078 15.8349 13.8407C15.2327 14.448 14.4966 14.9057 13.6856 15.1772C13.4674 15.2481 13.2491 15.2863 13.0527 15.2863C12.8999 15.2863 12.5781 15.1772 12.098 14.959C12.1254 14.839 12.0708 14.7353 11.9344 14.6426C11.3642 14.2257 10.879 13.7036 10.5051 13.1042C9.81004 12.0729 9.19543 10.9895 8.66673 9.8638C8.48876 9.43341 8.2439 9.03389 7.94117 8.67999C7.95754 8.62543 7.94117 8.55452 7.90845 8.46724Z" fill="white"/>
<path d="M7.94092 8.67383C8.19732 8.95749 8.43735 9.35027 8.66647 9.86309C9.19518 10.9889 9.80979 12.0722 10.5049 13.1035C10.8595 13.6491 11.3777 14.2709 11.9287 14.6419C12.0705 14.7346 12.1251 14.8383 12.0977 14.9582L11.4268 14.571C11.085 14.3843 10.7696 14.1531 10.4886 13.8836C10.3084 13.698 10.1176 13.5125 9.95391 13.3054C8.90414 11.9573 8.21176 10.3661 7.94092 8.67928V8.67383Z" fill="#D5D0D1"/>
<path d="M10.0477 13.8342L10.1405 14.4452L9.58402 14.0851C9.57057 14.0762 9.55954 14.064 9.55194 14.0498C9.54432 14.0354 9.54035 14.0195 9.54037 14.0032L9.51855 13.2505C9.51855 13.196 9.53493 13.1795 9.58402 13.2232C9.76949 13.3977 9.92224 13.5997 10.0477 13.8342ZM16.0376 14.5488L15.9885 14.0361L16.5339 13.4633C16.5886 13.4032 16.6213 13.4087 16.6213 13.496L16.6267 14.1506C16.6267 14.2271 16.594 14.287 16.5176 14.3197L16.0376 14.5488Z" fill="#4CC326"/>
<path d="M10.0471 13.835L10.3635 14.0913C10.4726 14.3641 10.9145 14.5332 11.1435 14.6968C11.3564 14.8495 11.5364 14.9696 11.6891 15.0459C12.1091 15.2641 12.5456 15.4388 12.9984 15.5696C13.0529 15.586 13.1348 15.5805 13.2438 15.5533C14.2913 15.2915 15.2077 14.7896 15.9879 14.0368L16.0369 14.5495L13.4621 15.8588C13.2547 15.8261 12.8074 15.9352 12.6984 15.8861L10.1398 14.4459L10.0471 13.835ZM8.30143 14.2822C7.8578 14.2295 7.40944 14.3296 7.03036 14.5659C6.73031 14.7568 6.59938 15.1442 6.35391 15.4006C6.2448 15.5206 6.16842 15.4987 6.13569 15.3405L6.12478 15.2696C6.124 15.259 6.12066 15.2489 6.11507 15.24C6.10948 15.2309 6.10181 15.2234 6.0927 15.2181C6.08358 15.2127 6.07329 15.2096 6.06274 15.2091C6.05218 15.2086 6.04164 15.2106 6.03205 15.2151C5.93386 15.2588 5.86839 15.3352 5.8302 15.4333C5.56148 16.1697 5.53662 16.9728 5.75927 17.7245C5.86839 18.1064 6.16842 18.5755 6.45756 18.8373L6.92125 19.241C6.94853 19.2629 6.9758 19.2738 7.00308 19.2846C7.134 19.3174 7.21583 19.3719 7.24856 19.4484C6.96476 19.4128 6.69258 19.3141 6.4521 19.1592L6.05386 18.8536C5.73508 18.603 5.47093 18.2899 5.27767 17.9334C5.08442 17.577 4.96613 17.1847 4.93009 16.7808C4.85299 16.1993 4.97002 15.6088 5.26299 15.1008C5.55597 14.5928 6.00849 14.1957 6.55029 13.9712C6.60484 13.9494 6.61575 13.9604 6.57212 14.004C6.49573 14.0913 6.47391 14.2004 6.51756 14.3259C6.5218 14.338 6.52902 14.3488 6.53855 14.3574C6.54809 14.366 6.55963 14.3721 6.57212 14.375C6.58528 14.377 6.59876 14.3755 6.61121 14.3708C6.62364 14.366 6.63462 14.358 6.64303 14.3476C6.98671 13.9003 7.78863 14.004 8.24687 14.1731C8.27415 14.1841 8.29052 14.2004 8.30143 14.2331V14.2822Z" fill="white"/>
<path d="M12.4259 15.8745C12.4477 15.891 12.4531 15.9127 12.4422 15.9401L12.2404 16.3055C12.2297 16.3268 12.2114 16.3432 12.1891 16.3513C12.1667 16.3594 12.1421 16.3586 12.1204 16.3492L10.4402 15.7273L10.1128 15.6237C9.85099 15.5528 9.62188 15.4054 9.3491 15.3673C9.33697 15.3654 9.32536 15.3609 9.31506 15.3543C9.30474 15.3477 9.29595 15.3389 9.28926 15.3286C9.28256 15.3183 9.27812 15.3067 9.27621 15.2945C9.2743 15.2824 9.27497 15.2701 9.27819 15.2582C9.36548 14.8926 9.40913 14.538 9.40913 14.1998C9.40913 14.1507 9.43094 14.1453 9.46367 14.1725C10.2984 14.8272 11.5257 15.3728 12.4259 15.88V15.8745Z" fill="#6703BF"/>
<path d="M8.3011 14.2813C8.28473 14.3467 8.25201 14.3904 8.21382 14.4123C7.65196 14.719 7.1742 15.1592 6.82273 15.6942C6.41904 16.3161 6.19538 17.1889 6.44086 17.8599C6.64817 18.4109 7.06822 19.2892 7.74466 19.3765C7.79377 19.3873 7.82103 19.4147 7.82649 19.4638V19.4911C7.82938 19.5049 7.82775 19.5191 7.82186 19.532C7.81596 19.5447 7.80612 19.5553 7.79377 19.562C7.78475 19.5638 7.77549 19.5638 7.76649 19.562C7.59191 19.5674 7.41735 19.5293 7.24823 19.453C7.21551 19.3711 7.13367 19.3164 7.00276 19.2838C6.97238 19.276 6.94433 19.261 6.92092 19.2401C6.7632 19.1092 6.60859 18.9747 6.45723 18.8365C6.13847 18.5269 5.89896 18.1453 5.75896 17.7236C5.5363 16.9719 5.56115 16.1688 5.82988 15.4324C5.8626 15.3342 5.93353 15.2579 6.03172 15.2142C6.04131 15.2097 6.05185 15.2077 6.06241 15.2082C6.07298 15.2087 6.08326 15.2118 6.09237 15.2171C6.10149 15.2225 6.10917 15.23 6.11475 15.2391C6.12034 15.248 6.12367 15.2581 6.12447 15.2687L6.14082 15.3396C6.1681 15.4978 6.24447 15.5197 6.35903 15.3996C6.59906 15.1433 6.72999 14.7559 7.03004 14.5651C7.40913 14.3286 7.85747 14.2286 8.3011 14.2813Z" fill="#4CC326"/>
<path d="M16.8004 15.5151L13.9092 16.3989C13.8997 16.4025 13.8893 16.4021 13.8802 16.398C13.871 16.3939 13.8637 16.3864 13.86 16.377L13.6582 15.9951C13.6554 15.9905 13.6536 15.9855 13.6529 15.9801C13.6522 15.9748 13.6527 15.9695 13.6542 15.9642C13.6557 15.9591 13.6584 15.9543 13.6618 15.9502C13.6654 15.9462 13.6698 15.9429 13.6745 15.9407L16.7841 14.3259C16.8168 14.3095 16.8495 14.3314 16.8441 14.364L16.8168 15.477C16.8172 15.4854 16.8146 15.4937 16.8097 15.5007C16.8047 15.5076 16.7977 15.5127 16.7896 15.5151H16.8004Z" fill="#6703BF"/>
<path d="M10.003 15.7274C10.003 15.9729 9.96479 16.3658 9.89932 16.9004C9.80749 17.8058 9.97793 18.7185 10.3903 19.5297C9.86114 19.2024 9.53928 18.6733 9.42472 17.9314C9.38271 17.5846 9.28315 17.2471 9.13013 16.933L9.32653 15.6675C9.3429 15.5584 9.4029 15.5201 9.51201 15.5584L10.003 15.7219V15.7274ZM17.0729 17.2713C17.0729 17.3803 17.0402 17.435 16.9748 17.4458C16.9598 17.4494 16.9456 17.4561 16.9334 17.4655C16.9212 17.4749 16.9112 17.4868 16.9039 17.5004C16.8384 17.6095 16.8493 17.7458 16.8221 17.8495C16.7293 18.1877 16.6202 18.5151 16.4946 18.8315C16.3529 19.1806 16.0801 19.4043 15.8565 19.6933C15.7419 19.8461 15.5674 19.9225 15.4254 20.0644C15.3818 20.1081 15.2672 20.157 15.0872 20.2117C15.0501 20.1696 15.0306 20.1149 15.0328 20.0589C15.0762 20.1026 15.1419 20.0971 15.2018 20.0479C15.5428 19.7883 15.7991 19.4332 15.9383 19.0279C16.1942 18.2986 16.2873 17.5222 16.2111 16.753C16.1962 16.4577 16.1487 16.165 16.0691 15.8801L16.7839 15.6892C16.8221 15.6783 16.8384 15.6892 16.8438 15.7274L17.0675 17.2713H17.0729Z" fill="#4CC326"/>
<path d="M10.003 15.7275L12.0978 16.464C12.1251 16.475 12.1469 16.4913 12.1524 16.5186L12.2833 16.7913C12.2942 16.9222 12.3379 17.0313 12.4033 17.1187V18.8643C12.4033 19.0607 12.4362 19.2898 12.4961 19.5462C12.5724 19.8571 12.4961 20.059 12.2615 20.1627L12.087 20.4082C11.956 20.4137 11.8578 20.3808 11.7978 20.3099C11.8033 20.25 11.7541 20.0645 11.6614 20.179C11.5524 20.3209 11.476 20.49 11.4433 20.6755C11.4268 20.7464 11.2414 20.8063 11.2141 20.7136C11.165 20.5282 11.1813 20.3754 11.2523 20.2554C11.4486 19.939 11.7269 19.9008 12.0706 19.8189C12.1688 19.7972 12.1797 19.7535 12.087 19.6989C12.0106 19.6552 11.9015 19.6717 11.8523 19.6008C11.7685 19.4877 11.7022 19.3627 11.656 19.2299C11.3669 18.3951 11.1813 17.5387 11.0887 16.6495C11.0887 16.6167 11.0178 16.464 10.9576 16.4967C10.9543 16.4993 10.9515 16.5025 10.9496 16.5064C10.9477 16.5101 10.9468 16.5143 10.9468 16.5186C10.9135 17.5903 11.1184 18.6561 11.5469 19.6389C11.5469 19.6662 11.525 19.6935 11.5032 19.7044C11.3068 19.7808 11.1541 19.9225 11.0395 20.1299L10.3958 19.5299C9.98345 18.7185 9.81301 17.8059 9.90484 16.9005C9.96484 16.3658 9.99758 15.9731 10.003 15.7275Z" fill="white"/>
<path d="M13.3416 15.8145C13.3688 15.8362 13.4125 15.8472 13.4616 15.8581C13.3306 15.8744 13.3743 15.9235 13.587 16.0108C13.6143 16.0163 13.6306 16.0381 13.6416 16.06L13.8543 16.4746C13.8598 16.4909 13.8652 16.5128 13.8598 16.5291L13.7671 16.9437L13.6689 17.0855L13.4507 17.1947C13.2542 17.3255 12.7087 17.3911 12.5506 17.1293C12.5342 17.1073 12.5124 17.0964 12.4851 17.1073C12.4633 17.1073 12.4523 17.1293 12.4523 17.151L12.3979 17.1238C12.3378 17.031 12.2941 16.9219 12.2833 16.7964C12.1687 16.4418 12.3051 16.1417 12.6979 15.8854C12.7688 15.918 12.8124 15.9018 12.8232 15.8417C13.0034 15.8581 13.1779 15.8526 13.3416 15.8145Z" fill="#D59828"/>
<path d="M16.0694 15.875C16.135 16.0824 16.1839 16.3769 16.2168 16.7533C16.2931 17.5225 16.2 18.299 15.944 19.0282C15.7804 19.4646 15.5622 19.7592 15.202 20.0483C15.1366 20.1029 15.0766 20.1029 15.0275 20.0593L14.602 19.6774C14.5748 19.6555 14.5693 19.6228 14.5801 19.5955C14.962 18.6573 15.1694 17.648 15.1803 16.5678C15.1857 16.5189 15.1639 16.5079 15.1257 16.5352L15.0984 16.5515C15.0765 16.5665 15.0578 16.5858 15.0437 16.6083C15.0296 16.6309 15.0204 16.6561 15.0166 16.6824C14.8748 17.6316 14.7166 18.5373 14.3729 19.4428C14.3075 19.6065 14.1875 19.6937 14.0128 19.6829C14.002 19.6829 13.9911 19.6829 13.9856 19.6937C13.9583 19.7211 13.9691 19.7865 13.9856 19.8083C14.002 19.8247 14.0237 19.8356 14.0402 19.8411C14.3292 19.8683 14.6511 19.9502 14.8039 20.2065C14.8366 20.2665 14.913 20.3975 14.9347 20.4629C14.9784 20.6102 14.7438 20.7739 14.6238 20.7629C14.5856 20.7629 14.5693 20.7411 14.5693 20.703V20.5011C14.5694 20.469 14.5579 20.4379 14.5366 20.4139C14.4917 20.362 14.4648 20.2968 14.4602 20.2283C14.4548 20.1847 14.4274 20.1629 14.3838 20.1629C14.2529 20.1629 14.0729 20.2502 14.2638 20.392C14.291 20.4084 14.3075 20.4302 14.3128 20.4629C14.3347 20.5502 14.3402 20.6375 14.3292 20.7139C14.3279 20.7259 14.3221 20.7371 14.3131 20.7451C14.304 20.7531 14.2923 20.7576 14.2802 20.7576H14.0074C13.9746 20.7521 13.9583 20.7356 13.9638 20.703C13.9965 20.5175 13.9528 20.3539 13.8329 20.201C13.7888 20.1134 13.723 20.0382 13.6419 19.9829C13.6292 19.9743 13.6186 19.9631 13.6111 19.9498C13.6034 19.9365 13.5991 19.9218 13.5982 19.9066C13.5872 19.4919 13.7401 19.1101 13.7401 18.7173C13.7455 18.1717 13.7238 17.6316 13.6691 17.0862L13.7674 16.9443C13.8219 16.6879 13.9364 16.5297 14.1219 16.4752L16.0694 15.875Z" fill="white"/>
<path d="M8.81499 17.2009C8.61555 17.5093 8.48754 17.8585 8.44036 18.2229C8.39316 18.5872 8.42797 18.9575 8.54224 19.3066C8.5968 19.4866 8.53133 19.6067 8.35131 19.6666C8.34837 19.6387 8.35348 19.6104 8.36604 19.5854C8.37861 19.5602 8.39811 19.5392 8.42222 19.5248C8.43062 19.5201 8.43696 19.5126 8.43999 19.5034C8.44302 19.4943 8.44253 19.4844 8.43859 19.4757C8.43335 19.4666 8.42582 19.4592 8.41678 19.4539C8.40472 19.4432 8.38919 19.4374 8.37313 19.4375L8.13856 19.4594C8.01307 19.4647 7.95307 19.4048 7.94762 19.2902C7.94762 19.0992 7.93125 18.8866 7.90397 18.6628C7.833 18.2233 7.88572 17.7726 8.05624 17.3612C8.22677 16.9498 8.50837 16.594 8.86955 16.3335C8.94592 16.2789 8.9732 16.3007 8.95683 16.388L8.81499 17.2009ZM17.6525 19.443C17.7343 18.9356 17.7453 18.4229 17.6907 17.9046C17.658 17.6045 17.5434 17.3591 17.3415 17.1572C17.2547 16.9233 17.2104 16.6757 17.2107 16.4262C17.2119 16.4183 17.2147 16.4109 17.2191 16.4043C17.2234 16.3977 17.2292 16.3921 17.236 16.3879C17.2427 16.3839 17.2503 16.3812 17.2581 16.3803C17.266 16.3793 17.274 16.3802 17.2816 16.3826C17.347 16.4098 17.407 16.448 17.4615 16.4971C17.8688 16.8546 18.129 17.3501 18.1926 17.8883C18.247 18.3355 18.2307 18.7993 18.1598 19.2738C18.1434 19.3993 18.0725 19.4593 17.9416 19.4539L17.6525 19.443Z" fill="#4CC326"/>
<path d="M9.13099 16.9331C9.26191 17.1731 9.36012 17.5115 9.42557 17.9315C9.53468 18.6733 9.862 19.208 10.3966 19.5298L11.0403 20.1299C10.9858 20.228 10.9585 20.3426 10.953 20.4736C10.953 20.5172 10.9258 20.5335 10.882 20.5282C10.7621 20.5227 10.653 20.55 10.5439 20.479C10.4184 20.4026 10.293 20.4026 10.1784 20.3098C9.84688 20.0452 9.57388 19.7147 9.37668 19.339C9.1795 18.9634 9.06239 18.551 9.0328 18.1278C9.01724 17.7253 9.05021 17.3223 9.131 16.9277L9.13099 16.9331Z" fill="#4AA223"/>
<path d="M13.6692 17.0859C13.7238 17.6314 13.7456 18.1769 13.7401 18.717C13.7401 19.1099 13.5874 19.4917 13.5983 19.9063C13.5983 19.939 13.6147 19.9608 13.642 19.9827C13.7293 20.0481 13.7947 20.119 13.8329 20.2008C13.7456 20.1517 13.7019 20.1846 13.7019 20.2881C13.7019 20.3264 13.7019 20.3646 13.7129 20.3972C13.7401 20.5009 13.7456 20.61 13.7293 20.7246C13.7238 20.7627 13.7019 20.7791 13.6638 20.7791C13.5001 20.7574 13.2055 20.7627 13.2055 20.5609C13.222 19.5462 13.2055 18.5261 13.1455 17.4896C13.1455 17.4569 13.1565 17.4351 13.1892 17.4187C13.2983 17.3641 13.3911 17.2877 13.4456 17.1896L13.6638 17.0859H13.6692ZM12.4036 17.1242L12.4582 17.1514C12.6382 17.2113 12.7964 17.3096 12.9274 17.4404C12.9492 17.4678 12.9601 17.4951 12.9547 17.5277C12.9329 17.7077 12.9164 17.8933 12.9109 18.0733C12.8841 18.8696 12.8751 19.6662 12.8837 20.4627C12.8829 20.5259 12.8611 20.5873 12.8216 20.6367C12.782 20.6861 12.727 20.7209 12.6656 20.7354C12.5563 20.7682 12.4472 20.7791 12.3272 20.7682C12.3158 20.7685 12.3048 20.7649 12.2959 20.7579C12.2869 20.7508 12.2806 20.741 12.2782 20.73C12.2346 20.55 12.2617 20.4245 12.36 20.3481C12.3928 20.3209 12.3928 20.2936 12.3654 20.2663L12.2563 20.1627C12.4964 20.0591 12.5728 19.8571 12.4964 19.5462C12.4387 19.3234 12.4075 19.0945 12.4036 18.8643V17.1187V17.1242Z" fill="#D5D0D1"/>
<path d="M17.6508 19.443C17.6126 19.4976 17.6344 19.552 17.7107 19.6175C17.8526 19.7266 18.0491 19.6993 18.1637 19.874C18.289 20.0649 18.3927 20.4904 18.1308 20.605C18.0926 20.6212 18.0763 20.605 18.0763 20.5668C18.0763 20.3268 18.0873 20.0649 17.7818 20.0103C17.7327 19.9993 17.7107 20.0212 17.7054 20.0649C17.6999 20.1739 17.7381 20.283 17.82 20.3921C17.678 20.5122 17.558 20.5013 17.4653 20.3758C17.4762 20.2176 17.4162 20.1085 17.2854 20.0485C17.259 20.0353 17.2293 20.0304 17.2 20.0344C17.1709 20.0381 17.1437 20.0507 17.1216 20.0704C17.1216 20.0976 17.1326 20.1358 17.0998 20.1576C17.0924 20.1619 17.0838 20.1641 17.0753 20.1641C17.0666 20.1641 17.0581 20.1619 17.0507 20.1576C16.9266 20.0968 16.8239 19.9999 16.7561 19.8795C17.1143 19.3831 17.3124 18.7893 17.3235 18.1773L17.3398 17.1572C17.5417 17.3591 17.6562 17.6045 17.689 17.9045C17.7435 18.4229 17.7327 18.9355 17.6508 19.443ZM8.81329 17.2009C8.75913 17.6064 8.75913 18.0174 8.81329 18.4229C8.94968 18.9575 9.05878 19.312 9.14061 19.4921L9.36973 19.8303C9.27083 19.9563 9.12914 20.0417 8.9715 20.0704C8.93331 20.0267 8.88422 20.0212 8.82966 20.0485C8.80784 20.054 8.64963 20.1902 8.65509 20.2176C8.69328 20.3649 8.58416 20.4522 8.32778 20.4904C8.29505 20.3812 8.31141 20.294 8.38232 20.2339C8.43143 20.1902 8.43688 20.1194 8.42597 20.0594C8.41506 20.0212 8.39324 20.0048 8.3496 20.0048C8.18594 20.0212 8.02774 20.2231 8.06047 20.4086C8.01137 20.5067 7.95136 20.5503 7.87499 20.5394C7.73861 20.0485 7.89681 19.7539 8.3496 19.6666C8.52962 19.6067 8.59509 19.4866 8.54598 19.3066C8.43171 18.9575 8.39691 18.5871 8.4441 18.2229C8.4913 17.8584 8.6193 17.5093 8.81875 17.2009H8.81329Z" fill="white"/>
<path d="M17.0731 17.2715C17.1616 17.7204 17.1539 18.183 17.0506 18.6288C16.9471 19.0745 16.7502 19.4932 16.473 19.8573C16.2418 20.1487 15.9339 20.3697 15.5838 20.4955C15.4747 20.5336 15.3601 20.5391 15.2238 20.5228C15.191 20.5228 15.1692 20.4955 15.1802 20.4628C15.191 20.3536 15.1582 20.2663 15.0874 20.2119C15.2673 20.1572 15.3819 20.1028 15.4255 20.0646C15.5675 19.9227 15.742 19.8463 15.862 19.6936C16.0802 19.4045 16.353 19.1808 16.4948 18.8316C16.6203 18.5152 16.7294 18.188 16.8222 17.8497C16.8494 17.7461 16.8384 17.6097 16.9041 17.5006C16.9113 17.487 16.9213 17.4752 16.9336 17.4657C16.9458 17.4563 16.9599 17.4496 16.9749 17.446C17.0403 17.4352 17.0676 17.3751 17.0676 17.2715H17.0731Z" fill="#4AA223"/>
<path d="M9.3704 19.8301C9.49587 19.9446 9.60497 20.0809 9.70862 20.2336C9.73044 20.2664 9.75227 20.2883 9.77955 20.3046C9.79046 20.3155 9.80681 20.321 9.82318 20.321C9.87774 20.3264 9.87774 20.3482 9.83409 20.3756C9.80217 20.3936 9.77577 20.42 9.75771 20.452C9.75042 20.4655 9.74033 20.4774 9.72811 20.4868C9.71589 20.4962 9.70182 20.5029 9.6868 20.5064L9.3704 20.5992C9.15219 20.5392 9.04308 20.5447 9.03763 20.6155C8.99945 20.6811 8.96126 20.6701 8.92852 20.5938C8.86851 20.452 8.88488 20.2774 8.97217 20.0701C9.13582 20.0373 9.26676 19.9609 9.3704 19.8301ZM16.7567 19.8792C17.0405 20.261 17.3133 19.8081 17.2096 20.5719C17.2041 20.6101 17.1822 20.6265 17.1441 20.6265C16.8932 20.6538 16.6531 20.6047 16.4185 20.4955C16.4059 20.4895 16.3947 20.4808 16.3859 20.4699C16.3772 20.459 16.3711 20.4462 16.3678 20.4326C16.3647 20.4189 16.3647 20.4047 16.3677 20.3911C16.3709 20.3774 16.377 20.3647 16.3858 20.3537L16.7567 19.8792Z" fill="#D5D0D1"/>
<path d="M8.65604 20.2178L8.66695 20.5723C8.66695 20.6051 8.65057 20.6268 8.61239 20.6323C8.35599 20.6815 8.26326 20.6323 8.32326 20.4906C8.58511 20.4523 8.69422 20.365 8.65604 20.2178Z" fill="#ACC8A1"/>
<path d="M11.7983 20.3105C11.8529 20.3815 11.9565 20.4196 12.0874 20.4088C12.0395 20.505 12.026 20.6147 12.0493 20.7198C12.0548 20.747 12.0493 20.7633 12.0166 20.7633L11.7438 20.7743C11.711 20.7743 11.6892 20.7579 11.6837 20.7198C11.6717 20.6478 11.6753 20.5739 11.6941 20.5034C11.7128 20.4328 11.7466 20.3671 11.7928 20.3105H11.7983Z" fill="#D5D0D1"/>
<path d="M17.4658 20.376C17.5584 20.5068 17.6785 20.5123 17.8204 20.3923L17.8095 20.5778C17.8095 20.6159 17.7876 20.6324 17.7549 20.6324L17.5203 20.6379C17.4821 20.6379 17.4658 20.6214 17.4658 20.5832V20.376ZM8.06097 20.4032C8.07189 20.4905 8.07733 20.5451 8.06097 20.5778C8.05484 20.5943 8.04462 20.6089 8.03125 20.6204C8.01789 20.6318 8.00184 20.6398 7.98459 20.6433C7.96631 20.6462 7.94756 20.6444 7.93029 20.6376C7.91301 20.6309 7.89785 20.6196 7.8864 20.6051L7.87549 20.5396C7.95186 20.5505 8.01187 20.5068 8.06097 20.4087V20.4032ZM9.37023 20.5996C9.26307 20.6363 9.1477 20.642 9.03746 20.6159C9.04291 20.5451 9.15747 20.5396 9.36477 20.5996H9.37023Z" fill="#ACC8A1"/>
<path d="M10.5278 7.87177C10.3531 8.37365 10.4787 8.70642 10.9097 8.87554C11.1006 8.95191 11.3133 8.93554 11.5642 8.83189C11.7279 8.93009 11.7006 9.02282 11.4878 9.09919C11.4114 9.12647 11.3405 9.15375 11.2697 9.19739C11.177 9.25194 11.0569 9.26831 10.9097 9.2574C10.5823 9.23557 10.4514 9.001 10.2877 8.77188C10.1319 8.54795 10.0499 8.28094 10.0531 8.00815C10.0519 7.97749 10.0576 7.94693 10.0696 7.91872C10.0816 7.89048 10.0998 7.86529 10.1228 7.84494C10.1457 7.82459 10.1729 7.80957 10.2024 7.80102C10.2319 7.79245 10.2628 7.79052 10.2932 7.7954C10.3804 7.81175 10.4568 7.83359 10.5331 7.87177H10.5278ZM14.6138 8.87554L15.2902 8.88644C15.3229 8.88644 15.3556 8.87554 15.3829 8.85372L15.7212 8.51548C15.7484 8.49366 15.7593 8.46092 15.7647 8.43365L15.7976 7.83903C15.8378 7.83076 15.8765 7.81602 15.9122 7.7954C15.9885 7.74084 16.0867 7.7954 16.0976 7.87722C16.1795 8.47729 15.9666 8.91917 15.4647 9.2083C15.4102 9.24103 15.3556 9.25194 15.3011 9.25194C15.1811 9.25194 15.061 9.26831 14.9465 9.21921C14.7174 9.11556 14.6028 9.00101 14.6138 8.87554Z" fill="#006413"/>
<path d="M15.797 7.83881L15.7642 8.43343C15.7642 8.46617 15.7479 8.49344 15.7206 8.51526L15.3823 8.8535C15.3701 8.86518 15.3555 8.87415 15.3395 8.8798C15.3235 8.88543 15.3066 8.88762 15.2897 8.88622L14.6132 8.87531L14.9569 8.62437C15.2023 8.67892 15.3169 8.6571 15.3006 8.54799C15.3114 8.43889 15.2842 8.25887 15.355 8.17159C15.4806 8.03521 15.5951 7.92609 15.6987 7.84427C15.7206 7.82244 15.7534 7.82246 15.797 7.83881ZM10.5272 7.87155L10.8763 8.17159L10.8381 8.38979C10.9145 8.60801 11.04 8.68982 11.22 8.64073C11.3619 8.62438 11.4765 8.69529 11.5637 8.83166C11.3128 8.93532 11.1001 8.95169 10.9091 8.87531C10.4781 8.71166 10.3526 8.37343 10.5272 7.87155Z" fill="#020202"/>
<path d="M10.9641 8.35788C11.0624 8.4288 11.1496 8.527 11.2151 8.64155C11.0405 8.69065 10.9149 8.60883 10.8386 8.39607C10.866 8.35788 10.9096 8.34152 10.9586 8.35788H10.9641ZM15.3011 8.54882C15.3174 8.65792 15.1973 8.6852 14.9574 8.62519L15.1374 8.4288C15.181 8.38516 15.2192 8.38516 15.2682 8.41789C15.3011 8.44517 15.3119 8.4888 15.3011 8.54882Z" fill="white"/>
<path d="M13.0031 12.6393V12.4756C13.0044 12.4527 13.0001 12.4298 12.9907 12.4089C12.9811 12.3881 12.9668 12.3697 12.9485 12.3557C12.5122 12.0174 11.5193 11.4118 12.3431 10.7954C12.6049 10.5936 13.1613 10.6972 13.4996 10.6701C13.9196 10.6427 14.2688 11.0192 14.2142 11.4228C14.165 11.7937 13.5923 12.1648 13.2977 12.3557C13.2104 12.4102 13.2486 12.5739 13.2486 12.6557C13.2486 12.6884 13.2649 12.7102 13.3032 12.7102C13.554 12.7266 13.7941 12.7648 14.0287 12.8193C14.9015 13.0211 14.9561 12.312 15.4634 11.9083C15.518 11.8701 15.5889 11.8538 15.6489 11.8756C15.7743 11.9138 15.8126 11.9684 15.7743 12.0502C15.7199 12.1593 15.5617 12.0938 15.4907 12.1811C15.3161 12.3992 15.1853 12.6884 14.9669 12.8466C14.6507 13.0649 14.3451 13.1303 14.0614 13.0431C13.6359 12.9066 13.0413 12.9558 12.6049 12.9775C12.0812 12.9994 11.4375 13.2285 11.0884 12.6393C11.001 12.492 10.9084 12.3503 10.8046 12.2029C10.792 12.1855 10.7756 12.1712 10.7567 12.1608C10.7379 12.1504 10.717 12.1443 10.6955 12.1429L10.5647 12.1211C10.4719 12.1101 10.4337 11.892 10.5373 11.881C10.6464 11.8701 10.7938 11.881 10.8755 11.9574C11.301 12.4047 11.4211 12.9994 12.2285 12.8193C12.463 12.7648 12.7032 12.7266 12.9376 12.7102C12.9813 12.7047 13.0031 12.683 13.0031 12.6393Z" fill="#020202"/>
<path d="M12.382 11.5756C12.4911 11.6847 12.6548 11.7066 12.7312 11.6192C12.8075 11.5374 12.7803 11.3847 12.6658 11.2756C12.5457 11.1665 12.393 11.1446 12.3111 11.221C12.2293 11.3083 12.2619 11.4665 12.3765 11.5756H12.382ZM13.5822 11.2919C13.473 11.4011 13.4567 11.5647 13.5331 11.6355C13.6149 11.7119 13.7676 11.6792 13.8767 11.5647C13.9859 11.4446 14.0076 11.2919 13.9259 11.2155C13.8441 11.1446 13.6913 11.1773 13.5822 11.2919Z" fill="white"/>
</svg>
