<svg width="24" height="24" viewBox="0 0 24 24" fill="none" xmlns="http://www.w3.org/2000/svg">
<path d="M5.76866 7.13708C5.27097 7.11908 4.77489 7.2035 4.31116 7.38507C3.84741 7.56664 3.42591 7.84151 3.07275 8.19264C2.71958 8.54379 2.44229 8.96371 2.25805 9.4264C2.07381 9.88908 1.98656 10.3847 2.00168 10.8824V16.7464C2.00168 16.8545 2.01248 16.8653 2.11517 16.8653H4.05002C4.1473 16.8653 4.16351 16.8545 4.16351 16.7464V14.7035H5.693C8.01697 14.7035 9.56807 13.0389 9.56807 10.9094C9.58169 10.4081 9.49241 9.90926 9.30602 9.44367C9.11947 8.97796 8.83965 8.55548 8.48372 8.20209C8.12779 7.84869 7.70329 7.5719 7.23636 7.38873C6.76943 7.20557 6.26995 7.11993 5.76866 7.13708ZM5.76866 9.2989C6.80093 9.2989 7.40625 10.0014 7.40625 10.9311C7.40625 11.8552 6.80094 12.5416 5.70922 12.5416H4.16351V10.9203C4.16351 10.0069 4.72558 9.2989 5.77407 9.2989H5.76866ZM18.1992 7.13708C17.7015 7.11908 17.2055 7.2035 16.7417 7.38507C16.278 7.56664 15.8564 7.84151 15.5033 8.19264C15.1501 8.54379 14.8729 8.96371 14.6886 9.4264C14.5044 9.88908 14.4171 10.3847 14.4323 10.8824V16.7464C14.4323 16.8545 14.443 16.8653 14.5458 16.8653H16.4805C16.5778 16.8653 16.594 16.8545 16.594 16.7464V14.7035H18.1235C20.4476 14.7035 21.9987 13.0389 21.9987 10.9094C22.0122 10.4081 21.923 9.90926 21.7365 9.44367C21.55 8.97796 21.2701 8.55548 20.9143 8.20209C20.5583 7.84869 20.1338 7.5719 19.6668 7.38873C19.2 7.20557 18.7005 7.11993 18.1992 7.13708ZM18.1992 9.2989C19.2315 9.2989 19.8368 10.0014 19.8368 10.9311C19.8368 11.8552 19.2315 12.5416 18.1398 12.5416H16.594V10.9203C16.594 10.0069 17.1562 9.2989 18.2046 9.2989H18.1992ZM10.7679 9.8394C10.703 9.8394 10.6491 9.88265 10.6491 9.93662V14.6062C10.6491 14.6602 10.703 14.7035 10.7679 14.7035H12.692C12.7568 14.7035 12.8108 14.6602 12.8108 14.6062V9.93662C12.8108 9.88265 12.7568 9.8394 12.692 9.8394H10.7679ZM10.6491 8.21799C10.6491 7.93131 10.7629 7.65639 10.9656 7.45367C11.1684 7.25095 11.4433 7.13708 11.7299 7.13708C12.0166 7.13708 12.2915 7.25095 12.4943 7.45367C12.6969 7.65639 12.8108 7.93131 12.8108 8.21799C12.8108 8.50467 12.6969 8.77961 12.4943 8.98237C12.2915 9.18503 12.0166 9.2989 11.7299 9.2989C11.4433 9.2989 11.1684 9.18503 10.9656 8.98237C10.7629 8.77961 10.6491 8.50467 10.6491 8.21799Z" fill="#073DE8"/>
</svg>
