<svg width="24" height="24" viewBox="0 0 24 24" fill="none" xmlns="http://www.w3.org/2000/svg">
<path fill-rule="evenodd" clip-rule="evenodd" d="M11.8553 7.42871C8.50289 7.42871 5.67238 9.63445 4.30094 11.2002C4.12408 11.3978 4.0189 11.6492 4.00231 11.9138C3.98573 12.1785 4.05871 12.4411 4.2095 12.6592C5.08418 13.8691 6.23311 14.8545 7.56213 15.5345C8.89114 16.2146 10.3624 16.57 11.8553 16.5716C15.8173 16.5716 18.5715 14.1946 19.8058 12.5602C20.0915 12.1792 20.0574 11.6574 19.7335 11.3145C18.2706 9.74111 15.2839 7.42871 11.8553 7.42871ZM11.8743 8.19062C8.45337 8.19062 5.65334 10.6706 4.7619 11.9164C5.23809 12.8497 6.65906 14.4687 8.91432 15.2916C7.5505 14.065 7.48574 12.1487 7.63431 11.3182L8.37337 10.823C8.12931 11.8042 8.1891 12.8366 8.54479 13.783C8.87623 14.6974 9.83243 15.345 10.6743 15.7259C11.0553 15.7831 11.4553 15.8098 11.8743 15.8098C15.8554 15.8098 18.4382 13.2192 19.2382 11.924C18.6097 11.1621 17.2763 9.93922 15.5543 9.10111C16.6097 10.3202 16.6515 11.9926 16.5182 12.7507L15.7791 13.2459C16.0233 12.2646 15.9634 11.2323 15.6077 10.2859C15.2915 9.4135 14.4039 8.78492 13.5886 8.39253C13.0268 8.25998 12.4517 8.19224 11.8743 8.19062Z" fill="#87DD3A"/>
<path d="M16.7392 11.1122C17.1582 11.417 17.4935 11.7141 17.7144 11.9504C17.0897 12.8304 15.0554 14.5979 11.9239 14.5979C10.861 14.5979 9.93533 14.3922 9.15437 14.0875C9.42866 14.4533 9.72961 14.7733 9.99246 15.0246C10.583 15.1617 11.223 15.238 11.9086 15.238C15.101 15.238 17.3182 13.5617 18.3202 12.4075C18.5487 12.1409 18.5221 11.7484 18.2669 11.5122C17.7374 11.02 17.1606 10.5809 16.5449 10.2017C16.644 10.5103 16.7049 10.8379 16.7354 11.1122H16.7392ZM14.1106 9.09315C13.3964 8.87713 12.6548 8.7655 11.9086 8.76172C9.10865 8.76172 6.75814 10.4341 5.69908 11.5465C5.59638 11.6517 5.53458 11.79 5.52481 11.9367C5.51502 12.0833 5.55792 12.2287 5.64575 12.3465C6.18766 13.0383 6.85442 13.6224 7.61149 14.0684C7.4972 13.737 7.38291 13.3561 7.28386 12.9904C6.82672 12.6094 6.50672 12.2284 6.33909 11.9427C7.04006 11.0932 9.23817 9.40173 11.9277 9.40173C13.1086 9.40173 14.2135 9.72934 15.1544 10.1713C14.8638 9.76049 14.5118 9.39688 14.1106 9.09315Z" fill="#0447AF"/>
<path d="M12.3808 11.2379C12.4306 11.2373 12.4798 11.2269 12.5256 11.2075C12.6627 11.4283 12.7466 11.6912 12.7466 11.996C12.7466 12.2094 12.7122 12.4036 12.655 12.5788C12.3389 12.7391 11.9821 12.8015 11.6303 12.7579C11.4609 12.6648 11.3046 12.5495 11.1655 12.4151C11.2221 12.3375 11.2472 12.2414 11.2359 12.1459C11.2246 12.0506 11.1778 11.9631 11.1046 11.9008C11.3023 11.508 11.6311 11.1967 12.0341 11.0208C12.0653 11.0862 12.1145 11.1413 12.1758 11.1799C12.2373 11.2183 12.3083 11.2384 12.3808 11.2379ZM12.9484 11.9999C12.949 12.2295 12.9102 12.4575 12.8341 12.6742C12.8989 12.7388 12.9446 12.8265 12.9484 12.9217C13.2851 12.8154 13.5955 12.6388 13.8589 12.4036C13.9234 12.1068 13.9162 11.7989 13.838 11.5055C13.7599 11.212 13.613 10.9414 13.4094 10.716C13.2189 10.7275 12.9904 10.7541 12.7579 10.796C12.7654 10.8469 12.7626 10.8988 12.7494 10.9485C12.7364 10.9983 12.7134 11.0449 12.6818 11.0855C12.8456 11.337 12.9484 11.6417 12.9484 11.9999ZM13.2151 10.5293C13.0513 10.5445 12.8722 10.5675 12.6932 10.6055L12.6704 10.6093C12.6096 10.5381 12.5248 10.4917 12.432 10.4791C12.3393 10.4665 12.245 10.4884 12.1674 10.5408C11.9534 10.3858 11.7187 10.2614 11.4703 10.1712C11.7678 10.0849 12.0818 10.0724 12.3851 10.1348C12.6885 10.1972 12.9721 10.3326 13.2113 10.5293H13.2151ZM11.1732 10.2817C10.9827 10.377 10.8074 10.4988 10.6589 10.6475C10.5941 10.9445 10.5827 11.3865 10.7655 11.8208C10.818 11.8082 10.8726 11.8068 10.9255 11.817C11.1504 11.3639 11.5322 11.0078 11.9998 10.815C12.0044 10.7728 12.0159 10.7315 12.0341 10.6931C11.773 10.5052 11.4799 10.3659 11.1694 10.2817H11.1732ZM10.4189 10.937C10.4037 11.2303 10.4417 11.577 10.5903 11.9199C10.5484 11.961 10.5165 12.0112 10.4972 12.0667C10.4779 12.1223 10.4717 12.1815 10.479 12.2396C10.4864 12.2979 10.5072 12.3538 10.5398 12.4027C10.5722 12.4515 10.6156 12.4923 10.6666 12.5217C10.6094 12.7808 10.575 13.0322 10.5674 13.2531C10.2898 12.9379 10.1245 12.5395 10.0976 12.1204C10.0708 11.7012 10.1837 11.285 10.4189 10.937ZM10.7618 13.4512C10.9712 13.6265 11.2189 13.7599 11.4932 13.836C11.7103 13.7255 12.0303 13.5237 12.2932 13.2112C12.2837 13.2003 12.2747 13.1889 12.2666 13.177C12.0076 13.1457 11.7575 13.0627 11.5313 12.9331C11.3218 12.8151 11.1503 12.6817 11.0094 12.5408C10.9623 12.5608 10.9118 12.5711 10.8607 12.5712C10.7846 12.8912 10.7579 13.2075 10.7618 13.4475V13.4512ZM11.7979 13.8932C12.203 13.9367 12.6115 13.8493 12.9634 13.6436C13.3151 13.4379 13.5916 13.1248 13.7522 12.7503C13.4954 12.9319 13.2074 13.0649 12.9027 13.1427C12.86 13.2169 12.7936 13.2745 12.7141 13.3063C12.6346 13.3381 12.5467 13.3422 12.4646 13.3179C12.2744 13.5439 12.0494 13.7381 11.7979 13.8932Z" fill="#0447AF"/>
</svg>
