<svg width="24" height="24" viewBox="0 0 24 24" fill="none" xmlns="http://www.w3.org/2000/svg">
<path d="M15.9937 3H8.05123L3.04499 9.31129L3 9.35617L4.7325 17.3325L11.9493 20.9493L11.9999 21L19.2675 17.3832L21 9.40684L15.9937 3ZM17.2481 14.1993L19.4587 11.415L18.5024 15.8137L17.2481 14.1993ZM7.42687 15.0374L10.6499 19.0988L6.03187 16.798L7.42687 15.0374ZM9.4012 4.08H14.6493L11.9999 7.59562L9.4012 4.07437V4.08ZM11.9999 9.31129L15.9488 14.2499L11.9999 19.2392L8.05123 14.2499L11.9999 9.31129ZM7.38187 13.3724L4.24875 9.46314L8.29873 4.42312L11.3249 8.43374L7.38187 13.3724ZM16.5731 15.0881L17.9682 16.798L13.395 19.0988L16.5731 15.0881ZM19.7962 9.51367L16.6687 13.4231L12.72 8.43374L15.7575 4.42312L19.7962 9.51367ZM6.75187 14.1599L5.50312 15.7238L4.54124 11.3699L6.75187 14.1599Z" fill="#FC2952"/>
</svg>
