<svg width="24" height="24" viewBox="0 0 24 24" fill="none" xmlns="http://www.w3.org/2000/svg">
<path fill-rule="evenodd" clip-rule="evenodd" d="M12.0007 4.00098L20 11.9984L12.0007 19.999L4 11.9984L12.0007 4.00098ZM12.0477 4.66253L19.3421 11.9984L12.0477 19.2495L4.66155 11.9984L12.0477 4.66253Z" fill="#0A3957"/>
<path d="M10.187 16.8026L11.2702 17.8629L11.6443 17.4534L10.9568 16.7693L12.0028 15.7181L13.0348 16.8022L12.369 17.4529L12.783 17.8624L13.7942 16.8022L12.0028 14.9473L10.187 16.8026ZM12.4711 13.4114L11.9925 13.882L11.5299 13.4114H12.4711ZM12.7134 7.69336L11.624 8.76338L11.9916 9.1577L12.713 8.40106L13.0753 8.76338L12.4042 9.47485L12.7713 9.8057L13.4314 9.08759L14.9184 10.552L15.6162 9.87574L16.7026 10.9203L17.0833 10.552L15.6162 9.08759L14.9184 9.8057L12.7134 7.69336ZM6.57557 10.9877L6.22266 11.3509L7.24045 12.4256L8.75091 10.9317L8.38011 10.544L7.24045 11.6497L6.57557 10.9877ZM14.8694 11.2931L14.5137 10.9326L13.4362 11.9467L14.8995 13.4872L15.2882 13.1183L14.205 11.956L14.8694 11.2931Z" fill="#0A3957"/>
<path d="M17.3645 11.0037L17.6938 11.389L16.6102 12.3961L15.1792 10.8462L15.5816 10.4668L16.6808 11.6352L17.3645 11.0037Z" fill="#0A3957"/>
<path d="M17.3758 12.4938L17.7052 12.8788L16.6216 13.8856L14.8983 12.0572L15.3209 11.6751L16.6704 13.1116L17.3758 12.4938ZM9.17981 11.3673L9.54966 11.0215L10.5873 12.0773L9.065 13.5587L8.69092 13.1748L9.81836 12.0561L9.17981 11.3673Z" fill="#0A3957"/>
<path d="M6.57612 12.4431L6.22321 12.8063L7.241 13.8811L9.09402 12.0695L8.7237 11.6812L7.24147 13.1052L6.57612 12.4431ZM11.6175 5.84316L12.0138 5.46484L12.4105 5.84316L12.0138 6.22195L11.6175 5.84316ZM5.44775 11.9993L5.84395 11.6205L6.24063 11.9993L5.84395 12.3776L5.44775 11.9993ZM17.7459 11.9988L18.1422 11.6205L18.5383 11.9988L18.1422 12.3772L17.7459 11.9988ZM11.6175 18.2228L12.0138 17.8444L12.4099 18.2228L12.0138 18.6016L11.6175 18.2228ZM11.6175 16.7829L12.0138 16.4041L12.4099 16.7824L12.0138 17.1608L11.6175 16.7829ZM11.2496 6.22242L8.70628 8.72715L9.04979 9.11111L11.2496 6.90896L11.6303 7.27268L9.16695 9.81836L8.36608 9.11111L6.93891 10.5651L7.26924 10.92L8.36561 9.81792L9.16695 10.5651L10.5485 9.11111L11.2496 9.81792L11.6303 9.41414L10.9691 8.72715L12.7115 6.90896L14.8945 9.11111L15.2346 8.72715L12.7115 6.22242L11.9704 6.90943L11.2496 6.22242Z" fill="#0A3957"/>
<path d="M9.84816 16.4082L9.12354 15.687L9.4708 15.3166L9.84816 15.687L10.9205 14.5953L10.5512 14.2274L10.9205 13.8447L11.6649 14.5957L9.84816 16.4082ZM14.1184 16.4082L14.8431 15.687L14.4958 15.3166L14.1184 15.687L13.046 14.5953L13.4154 14.2274L13.046 13.8447L12.3016 14.5957L14.1184 16.4082Z" fill="#0A3957"/>
<path d="M11.0598 10.1152H10.4617L10.1187 10.5858H11.0598V10.1152Z" fill="#0A3957"/>
<path d="M12.9419 10.1152H13.5405L13.8831 10.5858H12.9419V10.1152Z" fill="#0A3957"/>
<path fill-rule="evenodd" clip-rule="evenodd" d="M11.7281 10.1152V10.8056L10.9329 11.6672L11.2702 11.9753L8.75048 14.5487L8.4451 14.2086L8.7886 13.8429L8.41593 13.4712L7.67529 14.2086L8.75048 15.3464L11.2025 12.9386H12.8245L15.2543 15.3464L16.3931 14.209L15.6623 13.4656L15.2813 13.8302L15.6129 14.2086L15.2549 14.5493L12.7247 11.9753L13.0936 11.6666L12.2923 10.8056V10.1152H11.7281ZM12.0084 11.9977L11.5299 12.4682H12.4709L12.0084 11.9977ZM11.999 11.2411L11.6028 11.6194L11.999 11.9977L12.3957 11.6194L11.999 11.2411Z" fill="#0A3957"/>
</svg>
