<svg width="24" height="24" viewBox="0 0 24 24" fill="none" xmlns="http://www.w3.org/2000/svg">
<path d="M6.24334 10.686C6.28346 10.9668 6.38374 11.5786 6.474 11.7892C6.49907 11.8544 6.56427 11.9746 6.6495 12.1251C6.93032 12.6266 7.40168 13.469 7.20612 13.7347C7.00554 14.0106 6.88018 14.161 6.84508 14.2011L7.90313 14.2964C8.48851 13.9357 8.97593 13.4363 9.32222 12.8423C9.73839 12.0048 12.1103 10.1244 13.6898 10.1144C15.2744 10.0993 16.5831 9.46248 16.5831 9.35215C16.5831 9.25187 16.3575 8.31417 15.861 7.86287C15.3647 7.41157 14.7077 6.51899 14.6276 6.17299C14.6075 6.07271 14.5974 5.96741 14.5925 5.87213C14.5724 5.63645 14.5623 5.44089 14.3367 5.38572C14.0759 5.32054 11.3531 6.58919 10.0242 7.24107L10.4755 8.20887L10.0242 8.86074L9.16175 8.99614L8.73553 8.4596L8.50987 8.20887L7.20612 9.10144C6.85008 9.4023 6.15308 10.1445 6.24334 10.686ZM10.0944 17.641L9.71335 19.5064L9.63311 20.6046L11.5286 20.9306H12.9828C13.1432 20.8804 13.4692 20.7701 13.5093 20.6948C13.5444 20.6246 13.5243 18.1375 13.5093 16.9039L11.0974 17.4455L10.0944 17.6461V17.641Z" fill="#FFE3BB"/>
<path d="M13.2387 17.0201C12.2815 17.6968 11.1503 18.0849 9.97918 18.1383L10.3604 16.7744H9.13179L7.6074 16.6439L6.92041 15.7012L6.65967 14.2971H8.01356L8.60527 13.8609L9.37749 12.7577L10.4706 11.5693L12.5016 10.5112L14.793 9.87438L16.2322 9.69385L16.0216 10.6716V12.0055L16.6084 13.0986L17.1198 13.7305V14.0564L16.4329 14.4777L14.793 14.9991L14.417 16.007L14.1412 17.3108V18.5645H14.417L15.8713 18.1383L16.0216 18.3688H16.2322L17.2652 18.0128H17.6263L17.4257 18.8252L16.4329 19.7529L14.9586 20.2744C14.7579 20.3646 14.3367 20.5502 14.2716 20.5502C14.2064 20.5502 13.3589 20.7206 12.9428 20.811C12.5516 19.758 12.9779 17.8423 13.2436 17.0201H13.2387Z" fill="#F6C582"/>
<path fill-rule="evenodd" clip-rule="evenodd" d="M20.5247 12.5254C20.5247 17.2339 16.7088 20.9998 12.0002 20.9998C9.73931 20.9998 7.57104 20.1017 5.97236 18.503C4.37371 16.9043 3.47559 14.7362 3.47559 12.4753C3.47559 10.2144 4.37371 8.04614 5.97236 6.44746C7.57104 4.8488 9.73931 3.95068 12.0002 3.95068C16.7088 3.95068 20.5247 7.81682 20.5247 12.5254ZM20.0232 12.5755C20.0232 17.0084 16.433 20.5485 12.0002 20.5485C9.87234 20.5485 7.83157 19.7033 6.32695 18.1987C4.82233 16.694 3.97703 14.6533 3.97703 12.5254C3.97703 10.3975 4.82233 8.35682 6.32695 6.8522C7.83157 5.34756 9.87234 4.50228 12.0002 4.50228C16.433 4.50228 20.0232 8.14277 20.0232 12.5755Z" fill="black"/>
<path d="M8.01268 5.48638C7.68674 3.90682 8.7147 3.23487 8.87015 3.15967L9.03061 5.53651C9.03061 5.57161 9.61229 7.72783 9.89815 8.80092L9.11586 8.97141C8.88519 8.46997 8.33861 7.07093 8.01268 5.48638Z" fill="white"/>
<path d="M18.067 7.56733C17.6458 8.04872 16.6829 8.34457 16.2568 8.42982L16.5776 9.07166C18.2625 9.06665 19.4559 7.76791 19.5612 7.51718C19.6415 7.3166 19.5513 6.5895 19.496 6.24854C19.1953 6.48922 18.4932 7.09096 18.067 7.56733Z" fill="#C7FED4"/>
<path d="M18.5838 10.3462C17.9269 11.3791 16.6281 11.3641 16.0665 11.2288L16.0415 12.021L16.4627 12.8233L17.0795 13.5454C17.7163 13.1192 17.611 12.352 17.4807 12.021C17.3753 12.0361 17.265 11.9808 17.6762 11.67C18.0696 11.2985 18.3791 10.8471 18.5838 10.3462Z" fill="#85DC94"/>
<path d="M9.32676 5.80729C9.11348 4.94069 9.0024 4.0521 8.99581 3.15967C8.06311 4.88464 9.19136 7.66265 9.86837 8.83101L10.435 8.38472C9.99298 7.56105 9.6238 6.7003 9.33177 5.81231L9.32676 5.80729Z" fill="#DEDFE1"/>
<path d="M18.8999 9.09562C19.3613 8.58415 19.5519 7.6314 19.587 7.22021C18.91 8.60421 17.3204 8.97527 16.5934 8.99534L16.5734 9.47673L16.1822 10.4696L16.0317 11.2769C17.9272 11.8135 18.6893 10.4847 18.7946 9.57199C18.6694 9.59206 18.4337 9.6071 18.8949 9.09562H18.8999Z" fill="#93F4A5"/>
<path d="M11.6841 13.6297L11.8746 11.8646C12.005 11.7393 12.351 11.5135 12.7121 11.5989C13.1634 11.7042 13.0631 12.8123 12.9979 13.2637C12.9477 13.6297 12.1003 13.6598 11.6841 13.6297Z" fill="#91F2A1"/>
<path d="M13.0281 13.3292C13.2888 12.3914 12.9779 11.7898 12.7974 11.6042C13.1434 11.4036 13.69 11.5039 13.9206 11.584C14.1312 12.3865 13.4142 13.0835 13.0281 13.3292Z" fill="#FFFCFF"/>
<path fill-rule="evenodd" clip-rule="evenodd" d="M9.11627 3.31965C9.1263 3.39485 9.1313 3.47008 9.1263 3.54028C9.24663 5.10479 9.61269 6.31829 9.96876 7.13565C10.1879 6.99277 10.4137 6.86057 10.6456 6.73951C11.6824 6.22495 12.7453 5.76466 13.8299 5.36052C13.9653 5.3154 14.0807 5.2803 14.1557 5.27027C14.2177 5.25881 14.2816 5.26049 14.3428 5.27517C14.4041 5.28985 14.4617 5.31722 14.5118 5.35551C14.6021 5.43073 14.6423 5.53102 14.6724 5.63131C14.6974 5.7316 14.7075 5.8369 14.7224 5.93218C14.7274 6.03748 14.7375 6.12774 14.7575 6.20295C14.9482 6.65812 15.2278 7.07067 15.5799 7.41646C15.7353 7.56187 16.0211 7.90285 16.2618 8.26891C16.7733 8.21696 17.2598 8.02236 17.6658 7.7073C18.1072 7.39639 18.4683 7.04538 18.6337 6.87489L19.3608 6.16285L19.3908 6.14278C19.4305 6.12059 19.4763 6.1118 19.5213 6.11771C19.5714 6.12774 19.6166 6.15282 19.6466 6.18792C19.7068 6.2531 19.7368 6.3584 19.7469 6.48878C19.777 6.74452 19.7368 7.20083 19.5714 7.96303C19.4477 8.46022 19.1992 8.91762 18.8494 9.29186C19.0098 10.1192 18.6186 10.8614 18.0822 11.4381C17.9267 11.6086 17.7512 11.769 17.5807 11.9144C17.7129 12.2065 17.7477 12.5333 17.6801 12.8466C17.6123 13.1598 17.4457 13.443 17.2047 13.6544C17.2347 13.7296 17.2547 13.8048 17.2547 13.8801C17.2446 14.0405 17.1294 14.176 17.004 14.2763C16.8686 14.3765 16.6931 14.4718 16.5176 14.547C16.1615 14.7025 15.7605 14.8127 15.5648 14.8478C15.4847 14.8579 15.279 14.918 14.9933 15.0184L14.933 15.0384L14.9681 15.0634C14.8077 15.3344 14.4266 16.2268 14.216 17.5707C14.1718 17.8733 14.1718 18.1808 14.216 18.4834L15.585 18.0622C15.6752 18.0371 15.8206 18.0119 15.9509 18.0622C16.0161 18.0821 16.0764 18.1273 16.1214 18.1925C16.337 18.0922 16.6229 17.9768 16.8787 17.8917C17.0292 17.8415 17.1795 17.8064 17.3049 17.7864C17.3701 17.7763 17.4302 17.7713 17.4855 17.7763C17.5355 17.7763 17.6007 17.7914 17.6509 17.8265C17.7411 17.8967 17.7612 18.0119 17.7612 18.0973C17.7612 18.1925 17.7461 18.2978 17.7211 18.3981C17.6658 18.6087 17.5706 18.8293 17.5004 18.9698C17.4863 18.9995 17.461 19.0225 17.4299 19.0337C17.3991 19.0451 17.365 19.0437 17.335 19.0299C17.3195 19.023 17.3057 19.013 17.2944 19.0005C17.2829 18.988 17.2742 18.9734 17.2685 18.9575C17.2629 18.9416 17.2606 18.9247 17.2616 18.9078C17.2628 18.891 17.2672 18.8745 17.2749 18.8594C17.34 18.7291 17.4252 18.5235 17.4754 18.3379C17.5004 18.2427 17.5155 18.1624 17.5105 18.1023C17.5105 18.0521 17.5004 18.0321 17.5004 18.0271H17.4653L17.3451 18.0321C17.2398 18.047 17.1042 18.0821 16.959 18.1324C16.6981 18.2175 16.4072 18.3329 16.1966 18.4332V18.4733C16.1904 18.7591 16.1035 19.0373 15.9459 19.2756C15.9364 19.2899 15.9241 19.302 15.9098 19.3114C15.8952 19.3208 15.8791 19.327 15.8623 19.3298C15.8453 19.3326 15.828 19.332 15.8113 19.3278C15.7946 19.3237 15.779 19.3162 15.7655 19.3056C15.7523 19.2958 15.7411 19.2834 15.7328 19.2693C15.7244 19.2552 15.7189 19.2395 15.7166 19.2232C15.7142 19.2069 15.7152 19.1903 15.7192 19.1742C15.7232 19.1584 15.7305 19.1434 15.7403 19.1301C15.8006 19.05 15.941 18.7892 15.941 18.4683C15.9452 18.4233 15.9365 18.3781 15.9158 18.3379C15.9046 18.3178 15.8869 18.3019 15.8658 18.2927C15.7995 18.2756 15.7294 18.2791 15.6651 18.3028H15.6602L14.2562 18.7291C14.3824 19.3236 14.6645 19.8739 15.0734 20.3236L14.8929 20.4991C14.5312 20.1041 14.261 19.6342 14.1016 19.1228C13.9421 18.6114 13.8972 18.0713 13.9703 17.5407C14.1458 16.3973 14.4466 15.5649 14.6471 15.1437L14.0153 15.3794C13.442 15.5873 12.8826 15.8318 12.3406 16.1114C11.8943 16.3874 11.0218 16.7033 10.6507 16.8235H10.6357L10.6256 16.8286L10.5003 16.8387C10.4701 16.8687 10.4251 16.9188 10.3799 17.0142C10.3297 17.1044 10.2847 17.2248 10.2395 17.3652C10.1391 17.6994 10.0587 18.0392 9.99883 18.3831C9.86568 19.1171 9.76529 19.8565 9.6979 20.5995L9.45224 20.5743C9.50239 20.0028 9.60267 19.1202 9.75313 18.3379C9.82333 17.9518 9.90359 17.5857 10.0039 17.2849C10.0488 17.1416 10.1058 17.0024 10.1743 16.8687C9.79829 16.8937 9.34693 16.9188 8.9207 16.9139C8.60479 16.9139 8.30393 16.8988 8.04317 16.8637C7.8217 16.846 7.60559 16.7865 7.40634 16.6882C7.24231 16.5747 7.11231 16.4187 7.03025 16.2369C7.01535 16.2257 7.00311 16.2114 6.99443 16.1949C6.98575 16.1784 6.98087 16.1602 6.9801 16.1417C6.84835 15.8111 6.74273 15.4707 6.66419 15.1237C6.64624 15.1056 6.63423 15.0824 6.62975 15.0574C6.62527 15.0323 6.62854 15.0065 6.63912 14.9833C6.58898 14.6874 6.54886 14.4167 6.52881 14.2061H6.55889L6.55388 14.201C6.64414 14.1409 6.78454 14.0306 6.90489 13.9001C7.03025 13.7597 7.12051 13.6144 7.13053 13.4839C7.13053 13.4538 7.13053 13.4038 7.10547 13.3336C7.0794 13.2463 7.04758 13.1609 7.0102 13.0778C6.92996 12.8872 6.81462 12.6667 6.69429 12.446L6.53381 12.1601L6.34328 11.8091C6.24298 11.6235 6.15773 11.4531 6.12765 11.3377C5.99135 10.8754 6.03064 10.379 6.23797 9.94374C6.26805 9.88356 6.3182 9.81838 6.37838 9.74817C6.64471 9.47723 6.92419 9.2195 7.21578 8.97595C7.637 8.61992 8.11839 8.24886 8.45937 7.99813C7.96795 6.69437 7.83758 5.72658 7.88773 4.99447C7.94789 4.08184 8.28387 3.56033 8.5045 3.25947C8.59476 3.13912 8.68001 3.05889 8.76525 3.01878C8.81539 2.99871 8.86554 2.99371 8.9207 3.00874C8.97586 3.02379 9.01598 3.05889 9.04105 3.09399C9.08618 3.15919 9.10623 3.24442 9.11627 3.31965ZM6.97008 15.3142L7.0804 15.3844C7.13555 15.4245 7.21578 15.4046 7.25088 15.3493C7.26026 15.3355 7.2668 15.32 7.27011 15.3037C7.27342 15.2874 7.27345 15.2705 7.27018 15.2542C7.26691 15.2379 7.26042 15.2224 7.25107 15.2085C7.24174 15.1948 7.22974 15.1829 7.21578 15.1738L6.89486 14.9733C6.85475 14.7727 6.82465 14.5821 6.8046 14.4217H7.82755L7.83758 14.4167C8.0883 14.3866 8.6449 14.1107 9.11125 13.3235C9.39206 12.8521 9.82333 12.125 10.8764 11.443C11.9044 10.7712 13.534 10.1393 16.2017 9.84345C16.2017 9.86351 16.1916 9.87855 16.1867 9.8936C16.1165 10.1042 16.0512 10.345 16.0012 10.5957C15.8958 11.097 15.8406 11.6586 15.9209 12.0498C16.0012 12.4409 16.2969 12.822 16.5476 13.1379L16.5827 13.1781C16.6981 13.3235 16.8034 13.4538 16.8837 13.5743C16.9689 13.7096 17.004 13.8048 16.9989 13.87C16.9989 13.9202 16.959 13.9904 16.8486 14.0806C16.7153 14.1784 16.5705 14.2592 16.4173 14.3213C16.0764 14.4718 15.6953 14.572 15.5198 14.5972C15.4194 14.6172 15.1888 14.6874 14.908 14.7826C14.054 15.0841 13.2141 15.4237 12.3908 15.8006C12.5762 15.595 12.7317 15.3493 12.8219 15.0634C12.832 15.0317 12.8288 14.997 12.8133 14.9674C12.7978 14.9378 12.7711 14.9156 12.7392 14.9055C12.7072 14.8956 12.6728 14.8987 12.6431 14.9141C12.6135 14.9297 12.5912 14.9564 12.5812 14.9882C12.418 15.4527 12.0847 15.8379 11.6486 16.0664C11.2374 16.3071 10.786 16.4324 10.4852 16.4675C10.3499 16.4826 10.1542 16.4675 9.9236 16.4174C9.52411 16.341 9.13038 16.2372 8.74519 16.1066L8.49447 16.0313C8.29389 15.9761 8.11337 15.926 8.00306 15.9109C7.7297 15.8925 7.45516 15.9195 7.19071 15.9912C7.09652 15.7728 7.02267 15.5462 6.97008 15.3142ZM10.5905 8.21876C10.3875 7.95541 10.2159 7.66934 10.0791 7.36631C10.1092 7.33623 10.1794 7.28608 10.2946 7.21588C10.8756 6.90358 11.4677 6.61254 12.0698 6.34335C12.6756 6.07597 13.2894 5.82682 13.91 5.59621C14.0504 5.54606 14.1408 5.526 14.186 5.52099C14.2862 5.50595 14.3264 5.526 14.3514 5.54606C14.3815 5.57113 14.4065 5.61627 14.4266 5.6965C14.4466 5.77171 14.4567 5.85696 14.4716 5.96226V5.97229C14.4817 6.06757 14.4918 6.17287 14.5168 6.26313C14.567 6.46371 14.7125 6.72446 14.8779 6.96515C15.0484 7.21086 15.2439 7.45156 15.4145 7.60199C15.5648 7.73737 15.8708 8.11346 16.1165 8.5096C16.2368 8.71018 16.337 8.90575 16.3873 9.07123C16.4423 9.24673 16.4373 9.35203 16.4022 9.40218C16.3721 9.45232 16.337 9.5125 16.307 9.5827C13.534 9.87354 11.8292 10.5255 10.741 11.2374C9.97099 11.7258 9.3364 12.4 8.89562 13.198C8.46438 13.9253 7.97798 14.1409 7.8125 14.171H6.99013L7.09043 14.0657C7.23083 13.9152 7.36121 13.7147 7.38126 13.5091C7.38126 13.4288 7.37124 13.3485 7.34616 13.2583C7.31885 13.1626 7.28535 13.0688 7.24587 12.9775C7.10208 12.6532 6.93794 12.3383 6.75445 12.0348C6.69009 11.9215 6.62658 11.808 6.56391 11.6937C6.46361 11.4983 6.3884 11.3528 6.36333 11.2725C6.24496 10.868 6.28069 10.4339 6.46361 10.0541C6.47866 10.024 6.51376 9.97383 6.56391 9.91365C6.81918 9.65185 7.08693 9.40251 7.36621 9.16649C7.77239 8.83554 8.21868 8.48955 8.55465 8.23882C8.65494 8.48955 8.76024 8.74028 8.89062 9.01606L8.91569 9.07123L8.98087 9.08626C9.33189 9.14143 10.1342 9.08627 10.5956 8.36419L10.6456 8.28897L10.5905 8.21876ZM9.12128 16.4776C9.33691 16.5377 9.56254 16.598 9.77313 16.643C9.49736 16.6581 9.20151 16.6682 8.9207 16.6632C8.61481 16.6632 8.31897 16.648 8.07326 16.6129C7.82254 16.5829 7.637 16.5377 7.53672 16.4776C7.45648 16.4273 7.38126 16.3422 7.30605 16.2167C7.49158 16.1768 7.75735 16.1366 7.97297 16.1617C8.05822 16.1717 8.21366 16.2119 8.42427 16.272L8.67499 16.3472L9.1263 16.4776H9.12128ZM16.6279 8.99601C16.5777 8.84557 16.4976 8.67508 16.4072 8.5096C16.9087 8.45947 17.4052 8.19369 17.8113 7.90788C18.1693 7.65278 18.5048 7.36759 18.8143 7.05542C19.0499 6.81472 19.3257 6.54394 19.4812 6.39853L19.5012 6.50883C19.5213 6.72947 19.4911 7.1557 19.3257 7.91288C19.1752 8.62995 18.6087 9.27682 17.9418 9.79832C17.4088 10.2071 16.8279 10.549 16.2118 10.8162C16.2632 10.5311 16.3336 10.2496 16.4224 9.97383C16.4926 9.77325 16.5577 9.62282 16.6128 9.53757C16.7133 9.38714 16.6881 9.18154 16.6279 8.99601ZM16.1666 11.9947C16.1165 11.7639 16.1264 11.443 16.1666 11.1071C16.6782 10.9015 17.4252 10.5154 18.0971 9.99388C18.2834 9.84737 18.4609 9.68998 18.6287 9.52253C18.6838 10.1744 18.363 10.7662 17.9017 11.2675C17.4533 11.7383 16.9276 12.1285 16.3471 12.421C16.2618 12.2806 16.1966 12.1351 16.1666 11.9947ZM16.7433 12.9826L16.4774 12.6316C16.7433 12.496 17.0592 12.3106 17.3751 12.0748C17.6158 12.6766 17.33 13.1781 17.0842 13.4288C16.9989 13.2985 16.8888 13.1629 16.7835 13.0276L16.7433 12.9775V12.9826ZM8.71009 3.39987C8.77529 3.31462 8.82042 3.2695 8.84549 3.24944L8.87056 3.34972C8.87557 3.4049 8.88059 3.4751 8.87557 3.53526V3.5503C9.06612 6.06255 9.88347 7.70227 10.3348 8.29899C10.189 8.48701 9.99813 8.63521 9.77992 8.72987C9.56167 8.82455 9.32305 8.8626 9.08618 8.84056C8.27384 7.07547 8.08328 5.85194 8.13343 5.00951C8.19361 4.15705 8.50451 3.67566 8.71009 3.4049V3.39987ZM8.40923 14.8478C8.41587 14.8153 8.40931 14.7814 8.39098 14.7537C8.37264 14.7259 8.34403 14.7066 8.31144 14.6999C8.27886 14.6933 8.24497 14.6998 8.21724 14.7182C8.1895 14.7366 8.17016 14.7651 8.16352 14.7978C8.1585 14.8329 8.11839 14.918 8.06825 15.0283C8.0181 15.1286 7.96795 15.2339 7.92784 15.2993C7.91989 15.3137 7.9149 15.3295 7.91312 15.3461C7.91134 15.3624 7.91283 15.379 7.91748 15.3948C7.92213 15.4108 7.92988 15.4254 7.94026 15.4383C7.95066 15.4511 7.96346 15.4617 7.97798 15.4697C8.04317 15.4998 8.11839 15.4796 8.14847 15.4195L8.2989 15.1336C8.34905 15.0334 8.3992 14.918 8.40923 14.8478ZM12.9524 11.6136C13.1178 11.5834 13.2683 11.5735 13.3936 11.5785C13.5441 11.5834 13.6595 11.6086 13.7297 11.6286L13.7999 11.6637C13.8148 11.754 13.835 12.0649 13.7246 12.3958C13.6262 12.7143 13.4206 12.9889 13.1428 13.173C13.2633 12.8722 13.2683 12.5713 13.2181 12.2955C13.1701 12.0544 13.0801 11.8236 12.9524 11.6136ZM12.6766 11.4129C12.486 11.4632 12.2804 11.5334 12.0648 11.6336C11.3742 11.9872 10.8411 12.5865 10.5705 13.3134L10.5403 13.3988L10.6156 13.4488C10.9115 13.6695 11.7338 13.9804 12.812 13.6094C13.0823 13.5278 13.3286 13.3814 13.5297 13.1831C13.7306 12.9847 13.8802 12.7404 13.9653 12.471C14.1007 12.0548 14.0656 11.6687 14.0456 11.5884C14.0306 11.5361 13.9966 11.4914 13.9502 11.4632C13.9088 11.4344 13.863 11.4125 13.8148 11.398C13.7145 11.3629 13.5691 11.3377 13.4037 11.3278C13.1581 11.3231 12.9134 11.3535 12.6766 11.418V11.4129ZM12.6916 11.6687C12.7969 11.8291 12.9173 12.0699 12.9673 12.3457C13.0051 12.5206 13.0059 12.7016 12.9697 12.8769C12.9334 13.0522 12.8609 13.2179 12.7567 13.3637L12.7317 13.3736C12.4416 13.4762 12.1367 13.5303 11.8292 13.5341C11.9795 13.3687 12.1651 13.0828 12.2002 12.7468C12.2164 12.6076 12.2025 12.4666 12.1592 12.3333C12.1159 12.2 12.0444 12.0776 11.9494 11.9745L12.1701 11.8593C12.3557 11.774 12.5312 11.7089 12.6916 11.6687Z" fill="black"/>
<path d="M12.5317 12.4251C12.4614 12.1544 12.1806 12.1443 12.0552 12.1143C12.0552 12.1143 12.1806 12.2748 12.2208 12.5155C12.2607 12.7511 12.1706 12.9768 12.1706 12.9768C12.3309 12.8766 12.5968 12.6759 12.5317 12.4251Z" fill="#FFFCFF"/>
<path d="M7.16076 7.22029C7.06047 7.22029 6.98023 7.30053 6.98023 7.40082V7.54624H6.83983C6.79774 7.55332 6.75953 7.57509 6.73198 7.60768C6.70441 7.64028 6.6893 7.68156 6.6893 7.72425C6.6893 7.76692 6.70441 7.80822 6.73198 7.84081C6.75953 7.8734 6.79774 7.89517 6.83983 7.90226H6.98023V8.04769C6.98023 8.07139 6.9849 8.09486 6.99399 8.11676C7.00306 8.13867 7.01634 8.15857 7.03311 8.17532C7.04988 8.19209 7.06978 8.20539 7.09167 8.21446C7.11357 8.22352 7.13705 8.2282 7.16076 8.2282C7.18447 8.2282 7.20794 8.22352 7.22984 8.21446C7.25174 8.20539 7.27164 8.19209 7.2884 8.17532C7.30517 8.15857 7.31846 8.13867 7.32754 8.11676C7.33661 8.09486 7.34128 8.07139 7.34128 8.04769V7.90226H7.4867C7.51258 7.90662 7.5391 7.90527 7.56441 7.89834C7.58971 7.89141 7.61321 7.87903 7.63325 7.86209C7.65329 7.84513 7.66939 7.82403 7.68044 7.80022C7.69148 7.77642 7.69721 7.7505 7.69721 7.72425C7.69721 7.69801 7.69148 7.67208 7.68044 7.64826C7.66939 7.62447 7.65329 7.60335 7.63325 7.5864C7.61321 7.56946 7.58971 7.55709 7.56441 7.55015C7.5391 7.54321 7.51258 7.54188 7.4867 7.54624H7.33627V7.3958C7.33627 7.30053 7.26105 7.22029 7.16076 7.22029ZM4.97947 11.0212C4.87919 11.0212 4.79896 11.1015 4.79896 11.2017V11.3421H4.65856C4.61067 11.3421 4.56475 11.3612 4.5309 11.3951C4.49704 11.429 4.47803 11.4748 4.47803 11.5227C4.47803 11.5706 4.49704 11.6166 4.5309 11.6503C4.56475 11.6841 4.61067 11.7032 4.65856 11.7032H4.79896V11.8436C4.79896 11.8915 4.81797 11.9374 4.85183 11.9713C4.88568 12.0051 4.93159 12.0242 4.97947 12.0242C5.02735 12.0242 5.07326 12.0051 5.10712 11.9713C5.14097 11.9374 5.16 11.8915 5.16 11.8436V11.7032H5.3004C5.34827 11.7032 5.39419 11.6841 5.42803 11.6503C5.4619 11.6166 5.48091 11.5706 5.48091 11.5227C5.48091 11.4748 5.4619 11.429 5.42803 11.3951C5.39419 11.3612 5.34827 11.3421 5.3004 11.3421H5.16V11.2017C5.16 11.1015 5.07977 11.0212 4.97947 11.0212ZM5.98235 12.5257C5.88207 12.5257 5.80184 12.6058 5.80184 12.706V12.8464H5.66144C5.61356 12.8464 5.56765 12.8655 5.53379 12.8994C5.49994 12.9333 5.48091 12.9791 5.48091 13.027C5.48091 13.075 5.49994 13.1209 5.53379 13.1546C5.56765 13.1885 5.61356 13.2075 5.66144 13.2075H5.80184V13.3479C5.80184 13.3958 5.82086 13.4418 5.85472 13.4756C5.88857 13.5094 5.93449 13.5285 5.98235 13.5285C6.03024 13.5285 6.07616 13.5094 6.11 13.4756C6.14387 13.4418 6.16288 13.3958 6.16288 13.3479V13.2075H6.30329C6.35117 13.2075 6.39708 13.1885 6.43094 13.1546C6.46479 13.1209 6.48381 13.075 6.48381 13.027C6.48381 12.9791 6.46479 12.9333 6.43094 12.8994C6.39708 12.8655 6.35117 12.8464 6.30329 12.8464H6.16288V12.706C6.16288 12.6058 6.08265 12.5257 5.98235 12.5257ZM5.48091 15.0328C5.38063 15.0328 5.3004 15.1131 5.3004 15.2133V15.3537H5.16C5.11212 15.3537 5.0662 15.3728 5.03235 15.4067C4.9985 15.4404 4.97947 15.4864 4.97947 15.5343C4.97947 15.5822 4.9985 15.6281 5.03235 15.6619C5.0662 15.6958 5.11212 15.7148 5.16 15.7148H5.3004V15.8552C5.3004 15.903 5.31941 15.9489 5.35327 15.9829C5.38712 16.0167 5.43304 16.0358 5.48091 16.0358C5.52879 16.0358 5.57471 16.0167 5.60856 15.9829C5.64241 15.9489 5.66144 15.903 5.66144 15.8552V15.7148H5.80184C5.84973 15.7148 5.89564 15.6958 5.92949 15.6619C5.96334 15.6281 5.98235 15.5822 5.98235 15.5343C5.98235 15.4864 5.96334 15.4404 5.92949 15.4067C5.89564 15.3728 5.84973 15.3537 5.80184 15.3537H5.66144V15.2133C5.66144 15.1131 5.58121 15.0328 5.48091 15.0328ZM8.48959 18.0414C8.38931 18.0414 8.30907 18.1217 8.30907 18.222V18.3624H8.16867C8.14495 18.3624 8.12148 18.367 8.09958 18.3762C8.07767 18.3852 8.05778 18.3985 8.04102 18.4153C8.02425 18.432 8.01096 18.452 8.00188 18.4739C7.99281 18.4957 7.98815 18.5193 7.98815 18.5429C7.98815 18.5667 7.99281 18.5901 8.00188 18.612C8.01096 18.634 8.02425 18.6539 8.04102 18.6705C8.05778 18.6873 8.07767 18.7007 8.09958 18.7098C8.12148 18.7188 8.14495 18.7234 8.16867 18.7234H8.30907V18.8639C8.30907 18.9117 8.32809 18.9577 8.36194 18.9915C8.3958 19.0253 8.44171 19.0444 8.48959 19.0444C8.53746 19.0444 8.58338 19.0253 8.61724 18.9915C8.65109 18.9577 8.67012 18.9117 8.67012 18.8639V18.7234H8.81052C8.83422 18.7234 8.85769 18.7188 8.8796 18.7098C8.9015 18.7007 8.92141 18.6873 8.93816 18.6705C8.95492 18.6539 8.96823 18.634 8.9773 18.612C8.98636 18.5901 8.99103 18.5667 8.99103 18.5429C8.99103 18.5193 8.98636 18.4957 8.9773 18.4739C8.96823 18.452 8.95492 18.432 8.93816 18.4153C8.92141 18.3985 8.9015 18.3852 8.8796 18.3762C8.85769 18.367 8.83422 18.3624 8.81052 18.3624H8.67012V18.222C8.67012 18.1217 8.58988 18.0414 8.48959 18.0414ZM16.0114 16.0358C15.9109 16.0358 15.8308 16.1159 15.8308 16.2161V16.3566H15.6904C15.6425 16.3566 15.5966 16.3756 15.5627 16.4095C15.5288 16.4434 15.5099 16.4893 15.5099 16.5371C15.5099 16.5851 15.5288 16.631 15.5627 16.6647C15.5966 16.6987 15.6425 16.7176 15.6904 16.7176H15.8308V16.858C15.8308 16.9059 15.8497 16.9519 15.8837 16.9857C15.9175 17.0195 15.9634 17.0386 16.0114 17.0386C16.0592 17.0386 16.1051 17.0195 16.1389 16.9857C16.1728 16.9519 16.1917 16.9059 16.1917 16.858V16.7176H16.3321C16.3801 16.7176 16.426 16.6987 16.4598 16.6647C16.4937 16.631 16.5127 16.5851 16.5127 16.5371C16.5127 16.4893 16.4937 16.4434 16.4598 16.4095C16.426 16.3756 16.3801 16.3566 16.3321 16.3566H16.1917V16.2161C16.1917 16.1159 16.1116 16.0358 16.0114 16.0358ZM18.5185 15.5343C18.4182 15.5343 18.3379 15.6146 18.3379 15.7148V15.8552H18.1975C18.1497 15.8552 18.1039 15.8741 18.0699 15.9081C18.0361 15.9419 18.017 15.9878 18.017 16.0358C18.017 16.0836 18.0361 16.1295 18.0699 16.1634C18.1039 16.1972 18.1497 16.2161 18.1975 16.2161H18.3379V16.3566C18.3379 16.4045 18.357 16.4504 18.3909 16.4843C18.4246 16.5182 18.4706 16.5371 18.5185 16.5371C18.5664 16.5371 18.6124 16.5182 18.6461 16.4843C18.68 16.4504 18.699 16.4045 18.699 16.3566V16.2161H18.8394C18.8873 16.2161 18.9332 16.1972 18.9671 16.1634C19.0009 16.1295 19.02 16.0836 19.02 16.0358C19.02 15.9878 19.0009 15.9419 18.9671 15.9081C18.9332 15.8741 18.8873 15.8552 18.8394 15.8552H18.699V15.7148C18.699 15.6146 18.6188 15.5343 18.5185 15.5343ZM19.02 12.0242C18.9197 12.0242 18.8394 12.1045 18.8394 12.2047V12.3451H18.699C18.6512 12.3451 18.6052 12.364 18.5714 12.398C18.5376 12.4318 18.5185 12.4777 18.5185 12.5257C18.5185 12.5735 18.5376 12.6194 18.5714 12.6533C18.6052 12.6871 18.6512 12.706 18.699 12.706H18.8394V12.8464C18.8394 12.8944 18.8583 12.9403 18.8923 12.9742C18.9261 13.0081 18.9721 13.027 19.02 13.027C19.0678 13.027 19.1137 13.0081 19.1476 12.9742C19.1815 12.9403 19.2005 12.8944 19.2005 12.8464V12.706H19.3409C19.3887 12.706 19.4346 12.6871 19.4686 12.6533C19.5024 12.6194 19.5215 12.5735 19.5215 12.5257C19.5215 12.4777 19.5024 12.4318 19.4686 12.398C19.4346 12.364 19.3887 12.3451 19.3409 12.3451H19.2005V12.2047C19.2005 12.1045 19.1203 12.0242 19.02 12.0242ZM16.5127 6.50824C16.4124 6.50824 16.3321 6.58847 16.3321 6.68375V6.83418H16.1917C16.1653 6.82779 16.1376 6.82751 16.1109 6.83335C16.0842 6.83918 16.0593 6.85099 16.0377 6.86788C16.0163 6.88478 15.999 6.90632 15.9871 6.93088C15.9752 6.95544 15.969 6.98239 15.969 7.00968C15.969 7.03699 15.9752 7.06394 15.9871 7.0885C15.999 7.11305 16.0163 7.1346 16.0377 7.15149C16.0593 7.16839 16.0842 7.18019 16.1109 7.18603C16.1376 7.19187 16.1653 7.19159 16.1917 7.18519H16.3321V7.33563C16.3321 7.3835 16.3512 7.42942 16.3851 7.46327C16.419 7.49713 16.4648 7.51615 16.5127 7.51615C16.5606 7.51615 16.6066 7.49713 16.6403 7.46327C16.6742 7.42942 16.6932 7.3835 16.6932 7.33563V7.18519H16.8336C16.8602 7.19159 16.8878 7.19187 16.9145 7.18603C16.9412 7.18019 16.9662 7.16839 16.9876 7.15149C17.0091 7.1346 17.0263 7.11305 17.0383 7.0885C17.0502 7.06394 17.0564 7.03699 17.0564 7.00968C17.0564 6.98239 17.0502 6.95544 17.0383 6.93088C17.0263 6.90632 17.0091 6.88478 16.9876 6.86788C16.9662 6.85099 16.9412 6.83918 16.9145 6.83335C16.8878 6.82751 16.8602 6.82779 16.8336 6.83418H16.6932V6.68375C16.6932 6.58346 16.613 6.50824 16.5127 6.50824ZM10.7511 5.00391C10.6508 5.00391 10.5706 5.08413 10.5706 5.18443V5.3499H10.4302C10.3822 5.3499 10.3364 5.36892 10.3026 5.40277C10.2687 5.43663 10.2497 5.48255 10.2497 5.53042C10.2497 5.5783 10.2687 5.62421 10.3026 5.65807C10.3364 5.69192 10.3822 5.71094 10.4302 5.71094H10.5706V5.82628C10.5706 5.87414 10.5896 5.92007 10.6234 5.95392C10.6574 5.98778 10.7032 6.0068 10.7511 6.0068C10.799 6.0068 10.8449 5.98778 10.8787 5.95392C10.9126 5.92007 10.9316 5.87414 10.9316 5.82628V5.71094H11.0771C11.1249 5.71094 11.1708 5.69192 11.2047 5.65807C11.2385 5.62421 11.2576 5.5783 11.2576 5.53042C11.2576 5.48255 11.2385 5.43663 11.2047 5.40277C11.1708 5.36892 11.1249 5.3499 11.0771 5.3499H10.9266V5.18443C10.9266 5.08413 10.8514 5.00391 10.7511 5.00391Z" fill="#FEFFFF"/>
</svg>
