<svg width="24" height="24" viewBox="0 0 24 24" fill="none" xmlns="http://www.w3.org/2000/svg">
<path d="M3 9.32247V12.9787C3 13.755 3.63 14.25 4.40062 14.25H5.24998V15.7968C5.24998 16.5787 5.55373 17.0625 6.32437 17.0625H6.93749V19.588C6.93749 20.3643 7.43248 21 8.2031 21H10.1719C10.9481 21 11.4374 20.3643 11.4374 19.588V4.41187C11.4374 3.63562 10.9481 3 10.1774 3H8.07373C7.30311 3 6.93749 3.63562 6.93749 4.40623V5.24998H5.52561C5.14811 5.26174 4.79019 5.42076 4.52844 5.69302C4.26668 5.96528 4.12187 6.32918 4.12499 6.70686V8.06248C3.43312 8.14686 3 8.6081 3 9.32247ZM3.5625 9.32247C3.5625 8.93435 3.91687 8.62497 4.29937 8.62497H5.17687C5.55937 8.62497 6.07686 8.93435 6.07686 9.32247V9.62618C5.86873 9.74995 5.68874 9.97504 5.68874 10.2338C5.68874 10.6275 5.96999 10.8807 6.36374 10.8807C6.74623 10.8807 7.02748 10.6218 7.02748 10.2338C7.02748 9.97504 6.88123 9.74995 6.67311 9.62618V9.32247C6.67311 8.54622 5.94748 8.06248 5.17687 8.06248H4.68749V6.70686C4.68749 6.31311 5.13749 5.81248 5.52561 5.81248H7.37623C7.76436 5.81248 8.06248 6.31874 8.06248 6.70686V7.15686C7.85436 7.2806 7.72498 7.5056 7.72498 7.76436C7.72498 8.15811 8.02873 8.41122 8.34373 8.40561C8.65873 8.39997 8.99623 8.15248 8.99623 7.76436C8.99623 7.5056 8.8331 7.2806 8.62497 7.15686V6.70686C8.62497 5.92499 8.2706 5.24437 7.49998 5.24437V4.40623C7.49998 4.01248 7.69122 3.55687 8.07373 3.55687H10.1774C10.56 3.55687 10.875 4.01812 10.875 4.40062V19.5937C10.875 19.9874 10.56 20.4431 10.1774 20.4431H8.20873C7.81498 20.4431 7.49998 19.9817 7.49998 19.5937V17.0625H8.34373C8.46747 17.2706 8.6531 17.4113 8.95122 17.4113C9.24936 17.4113 9.58678 17.2312 9.58678 16.8431C9.58678 16.4493 9.33936 16.1512 8.95122 16.1512C8.69247 16.1512 8.46747 16.2918 8.34935 16.5H6.39749C6.00937 16.5 5.81249 16.185 5.81249 15.7968V14.25H7.37623C8.14686 14.25 8.62497 13.755 8.62497 12.9787V12.6075C8.8331 12.4838 8.99623 12.2587 8.99623 11.9999C8.99623 11.6062 8.7431 11.3532 8.35498 11.3532C7.96685 11.3532 7.72498 11.6062 7.72498 11.9999C7.72498 12.2587 7.85436 12.4838 8.06248 12.6075V12.9787C8.06248 13.3668 7.75873 13.6874 7.37623 13.6874H4.40062C4.0125 13.6874 3.5625 13.3668 3.5625 12.9787V9.32247ZM8.00622 11.9999C8.00622 11.8031 8.16372 11.6456 8.35498 11.6456C8.54622 11.6456 8.70372 11.8031 8.70372 11.9999C8.70372 12.1912 8.54622 12.3543 8.35498 12.3543C8.3087 12.3543 8.26289 12.3451 8.2202 12.3273C8.17752 12.3094 8.13883 12.2832 8.10637 12.2503C8.07391 12.2172 8.04834 12.178 8.03115 12.1352C8.01395 12.0922 8.00549 12.0463 8.00622 11.9999ZM8.95122 16.438C9.14248 16.438 9.29998 16.5955 9.29998 16.7924C9.29998 16.9837 9.14248 17.1412 8.95122 17.1412C8.85919 17.1397 8.77132 17.1025 8.70623 17.0375C8.64114 16.9723 8.60392 16.8846 8.60248 16.7924C8.60248 16.5955 8.75998 16.438 8.95122 16.438ZM8.69811 7.76436C8.7073 7.81539 8.7052 7.86784 8.69192 7.91796C8.67864 7.9681 8.65452 8.0147 8.62126 8.0545C8.588 8.0943 8.54641 8.12631 8.49943 8.14826C8.45245 8.17024 8.40122 8.18161 8.34935 8.18161C8.2975 8.18161 8.24625 8.17024 8.19928 8.14826C8.15229 8.12631 8.11071 8.0943 8.07744 8.0545C8.04419 8.0147 8.02007 7.9681 8.00679 7.91796C7.99351 7.86784 7.99141 7.81539 8.00061 7.76436C8.00061 7.56748 8.15248 7.40998 8.34373 7.40998C8.54061 7.40998 8.69811 7.56748 8.69811 7.76436ZM6.71248 10.2393C6.69775 10.3211 6.65474 10.395 6.591 10.4483C6.52725 10.5016 6.44681 10.5308 6.36374 10.5308C6.28066 10.5308 6.20022 10.5016 6.13647 10.4483C6.07274 10.395 6.02972 10.3211 6.01498 10.2393C6.01498 10.0425 6.16686 9.87936 6.35812 9.87936C6.55498 9.87936 6.71248 10.0425 6.71248 10.2338V10.2393ZM21 9.32247V12.9787C21 13.755 20.37 14.25 19.5993 14.25H18.75V15.7968C18.75 16.5787 18.4462 17.0625 17.6756 17.0625H17.0625V19.588C17.0625 20.3643 16.5674 21 15.7968 21H13.8281C13.0463 21 12.5625 20.3643 12.5625 19.588V4.41187C12.5625 3.63562 13.0517 3 13.8225 3H15.9262C16.6968 3 17.0625 3.63562 17.0625 4.40623V5.24998H18.4743C19.2449 5.24998 19.8749 5.92499 19.8749 6.70686V8.06248C20.5668 8.14686 21 8.6081 21 9.32247ZM20.4374 9.32247C20.4374 8.93435 20.0831 8.62497 19.7006 8.62497H18.8231C18.4406 8.62497 17.9231 8.93435 17.9231 9.32247V9.62618C18.1312 9.74995 18.3113 9.97504 18.3113 10.2338C18.3113 10.6275 18.0299 10.8807 17.6362 10.8807C17.2537 10.8807 16.9725 10.6218 16.9725 10.2338C16.9725 9.97504 17.1187 9.74995 17.3268 9.62618V9.32247C17.3268 8.54622 18.0524 8.06248 18.8231 8.06248H19.3124V6.70686C19.3124 6.31311 18.8624 5.81248 18.4743 5.81248H16.6238C16.2357 5.81248 15.9374 6.31874 15.9374 6.70686V7.15686C16.1456 7.2806 16.275 7.5056 16.275 7.76436C16.275 8.15811 15.9712 8.41122 15.6562 8.40561C15.3412 8.39997 15.0037 8.15248 15.0037 7.76436C15.0037 7.5056 15.1668 7.2806 15.3749 7.15686V6.70686C15.3749 5.92499 15.7292 5.24437 16.5 5.24437V4.40623C16.5 4.01248 16.3088 3.55687 15.9262 3.55687H13.8225C13.44 3.55687 13.125 4.01812 13.125 4.40062V19.5937C13.125 19.9874 13.44 20.4431 13.8225 20.4431H15.7912C16.185 20.4431 16.5 19.9817 16.5 19.5937V17.0625H15.6562C15.5324 17.2706 15.3468 17.4113 15.0487 17.4113C14.7506 17.4113 14.4131 17.2312 14.4131 16.8431C14.4131 16.4493 14.6607 16.1512 15.0487 16.1512C15.3074 16.1512 15.5325 16.2918 15.6507 16.5H17.6025C17.9906 16.5 18.1874 16.185 18.1874 15.7968V14.25H16.6238C15.853 14.25 15.3749 13.755 15.3749 12.9787V12.6075C15.2656 12.5471 15.1741 12.4594 15.109 12.3527C15.0439 12.2463 15.0076 12.1247 15.0037 11.9999C15.0037 11.6062 15.2567 11.3532 15.645 11.3532C16.0331 11.3532 16.275 11.6062 16.275 11.9999C16.275 12.2587 16.1456 12.4838 15.9374 12.6075V12.9787C15.9374 13.3668 16.2413 13.6874 16.6238 13.6874H19.5993C19.9874 13.6874 20.4374 13.3668 20.4374 12.9787V9.32247ZM15.9937 11.9999C15.9937 11.9069 15.9571 11.8177 15.8919 11.7513C15.8266 11.6851 15.738 11.647 15.645 11.6456C15.5519 11.647 15.4632 11.6851 15.398 11.7513C15.3328 11.8177 15.2962 11.9069 15.2963 11.9999C15.2963 12.1912 15.4537 12.3543 15.645 12.3543C15.8362 12.3543 15.9937 12.1968 15.9937 11.9999ZM15.0487 16.438C14.9557 16.4396 14.867 16.4775 14.8017 16.5438C14.7364 16.6101 14.7 16.6994 14.7 16.7924C14.7 16.9837 14.8575 17.1412 15.0487 17.1412C15.1419 17.1412 15.2313 17.1041 15.2973 17.0382C15.3632 16.9723 15.4002 16.8829 15.4002 16.7896C15.4002 16.6965 15.3632 16.6069 15.2973 16.541C15.2313 16.4752 15.1419 16.438 15.0487 16.438ZM15.3018 7.76436C15.2926 7.81539 15.2947 7.86784 15.308 7.91796C15.3214 7.9681 15.3454 8.0147 15.3787 8.0545C15.4119 8.0943 15.4535 8.12631 15.5005 8.14826C15.5474 8.17024 15.5986 8.18161 15.6507 8.18161C15.7025 8.18161 15.7537 8.17024 15.8007 8.14826C15.8477 8.12631 15.8893 8.0943 15.9225 8.0545C15.9558 8.0147 15.9798 7.9681 15.9932 7.91796C16.0064 7.86784 16.0086 7.81539 15.9994 7.76436C15.9994 7.67229 15.9635 7.58381 15.8995 7.51766C15.8354 7.45153 15.7481 7.4129 15.6562 7.40998C15.5622 7.40998 15.4721 7.44731 15.4056 7.51378C15.3392 7.58023 15.3018 7.67037 15.3018 7.76436ZM17.2875 10.2393C17.3022 10.3211 17.3452 10.395 17.409 10.4483C17.4726 10.5016 17.5531 10.5308 17.6362 10.5308C17.7192 10.5308 17.7997 10.5016 17.8635 10.4483C17.9271 10.395 17.9702 10.3211 17.9849 10.2393C17.9865 10.1463 17.9513 10.0564 17.8872 9.98908C17.823 9.92175 17.7349 9.88224 17.6418 9.87936C17.5952 9.87936 17.5491 9.88854 17.5063 9.90626C17.4632 9.92411 17.4241 9.95023 17.3913 9.98317C17.3583 10.016 17.3322 10.0551 17.3144 10.0981C17.2967 10.1411 17.2875 10.1871 17.2875 10.2338V10.2393Z" fill="#F1396D"/>
</svg>
