<svg width="24" height="24" viewBox="0 0 24 24" fill="none" xmlns="http://www.w3.org/2000/svg">
<path d="M5.42164 9.01617L5.15137 10.1946L6.40001 9.89188L5.42164 9.01617Z" fill="#FBF9DC"/>
<path d="M5.12427 11.7892L5.79995 13.7568L6.50265 11.8702V11.4379L5.1513 10.1946L5.12427 11.7892Z" fill="#FCF6BB"/>
<path d="M5.15137 10.1892L6.4865 11.4702L6.52434 10.4756L5.15137 10.1892Z" fill="#FCF9D3"/>
<path d="M6.40022 9.89191L5.15698 10.1892L6.51914 10.481L6.40022 9.89191Z" fill="#F8F7F0"/>
<path d="M6.39435 9.89193L5.42139 9.02704L6.57273 9.43786L6.39435 9.89193Z" fill="#F4F2E9"/>
<path d="M6.51858 10.4865L6.39966 9.89193L6.56182 9.42703L7.12399 9.88651L6.51858 10.4865Z" fill="#312E21"/>
<path d="M7.20012 11.1891L6.51904 10.4865L7.10823 9.87564L7.20012 11.1838V11.1891Z" fill="#38382D"/>
<path d="M7.19475 11.1838L6.47583 11.454L6.50286 10.481L7.19475 11.1838Z" fill="#FAE8CD"/>
<path d="M7.09717 9.89191L7.19987 11.1891L8.09716 10.8324L7.09717 9.89191Z" fill="#313126"/>
<path d="M7.08145 9.90803L6.55713 9.4324L7.65441 9.18915L7.08686 9.90803H7.08145Z" fill="#AE7F59"/>
<path d="M6.81066 8.78381L6.56201 9.43247L7.67553 9.20004L7.77282 9.01084L6.81066 8.78381Z" fill="#FBF17E"/>
<path d="M6.55652 9.43782L5.42139 9.027L6.81597 8.77295L6.55652 9.43782Z" fill="#FFF6C0"/>
<path d="M6.17814 8.11893L5.81597 7.93515L5.42139 9.02703L6.80516 8.80001L6.2376 8.3892L6.17814 8.11893Z" fill="#FFF2DB"/>
<path d="M5.81592 7.94589L5.91862 7.45941L6.08619 8.12427L5.81592 7.94048V7.94589Z" fill="#E7DCA8"/>
<path d="M7.22692 14.5081L5.78369 13.7459L6.4918 11.8702L7.0864 12.3729L7.22692 14.5081Z" fill="#FBE38E"/>
<path d="M4.97314 16.054L5.80018 13.7405L7.24341 14.4973L4.97314 16.054Z" fill="#F9EFC5"/>
<path d="M4.97314 17.6756V16.054L6.59477 16.4918V17.2107L4.97314 17.6756Z" fill="#F9EEC6"/>
<path d="M6.25963 15.1568L4.97314 16.054L6.45423 16.5568L7.36233 16.5026L6.25963 15.1513V15.1568Z" fill="#FDF39F"/>
<path d="M7.24836 14.4324L6.23755 15.1351L7.18349 16.2919H7.45917L7.24836 14.4324Z" fill="#F3E27B"/>
<path d="M7.17824 11.1784L7.08636 11.7188L6.48096 11.4487L7.17824 11.1784Z" fill="#443F33"/>
<path d="M7.67554 11.7297L7.16743 11.1513L7.05933 11.7027L7.67554 11.7297Z" fill="#3A3416"/>
<path d="M7.08095 11.6973V12.3729L6.48096 11.8595L7.07554 11.6973H7.08095Z" fill="#2A2122"/>
<path d="M8.09175 12.3783L7.05933 12.3675L7.61067 11.6864L8.09175 12.3783Z" fill="#3D371F"/>
<path d="M9.04892 12.2918L7.61108 11.6973L8.08136 12.4216L9.04892 12.2918Z" fill="#37321D"/>
<path d="M9.68072 12.1729L7.56177 11.6757L9.04825 12.2918L9.68072 12.1729Z" fill="#56421E"/>
<path d="M9.94085 12.5027L9.03271 12.2864L9.67056 12.1729L9.94085 12.4972V12.5027Z" fill="#563918"/>
<path d="M10.7569 12.0324L9.66504 12.1729L9.89749 12.5082L10.7623 12.0324H10.7569Z" fill="#3D371F"/>
<path d="M8.05427 12.3838L7.0813 12.3621L7.21643 14.5135L9.00022 15.2918L8.05427 12.3838Z" fill="#E4C568"/>
<path d="M7.44877 16.2702L7.21094 14.4431L9.00012 15.281L8.13525 16.308L7.44877 16.2756V16.2702Z" fill="#EDBC69"/>
<path d="M9.02693 12.2864L8.05396 12.3837L8.9999 15.281L9.88093 12.4918L9.03233 12.2864H9.02693Z" fill="#CCAD5B"/>
<path d="M10.6974 15.6108L8.98389 15.281L9.87584 12.4756L10.6974 15.6108Z" fill="#BF9F5E"/>
<path d="M10.7568 12.027L9.87036 12.5027L10.6811 15.5837L10.7568 12.027Z" fill="#BB9C5F"/>
<path d="M9.91354 16.3676L8.97836 15.2649L8.1189 16.308L9.91354 16.3676Z" fill="#C19E5C"/>
<path d="M10.6703 15.6L8.9729 15.2595L9.9135 16.3729L10.6703 16.4648V15.6Z" fill="#97764B"/>
<path d="M13.3674 15.2649L10.6648 15.5891V16.454L11.908 16.4972L13.3674 15.2649Z" fill="#A67E40"/>
<path d="M10.7407 12.0215L10.6704 15.5891L13.3947 15.2756L10.7407 12.0215Z" fill="#C6AC61"/>
<path d="M8.08675 10.8107L7.18945 11.1838L7.60567 11.6918L8.42729 11.881L8.08675 10.8054V10.8107Z" fill="#E1BD5F"/>
<path d="M10.0702 10.1784L8.42163 11.8756L8.07568 10.8162L8.46487 10.1297L10.0702 10.1838V10.1784Z" fill="#FADA7C"/>
<path d="M10.038 10.1838L8.39478 9.66486L8.48126 10.1513L10.038 10.1838Z" fill="#FBE88D"/>
<path d="M8.39436 9.65405L7.65381 9.19459L7.82138 8.89189L10.3781 7.30811L10.5619 8.02162L9.86464 8.98379L8.40516 9.65405H8.39436Z" fill="#FBDA50"/>
<path d="M10.054 10.1892L8.35669 9.65944L9.87024 8.97836L10.3783 9.50268L10.054 10.1892Z" fill="#FFD243"/>
<path d="M10.4755 9.29727L10.0215 10.1783L11.0053 9.79452L10.4755 9.29727Z" fill="#FAAA26"/>
<path d="M9.6756 12.1892L10.0377 10.1892L8.3999 11.8756L9.6756 12.1892Z" fill="#FCE273"/>
<path d="M10.9785 10.6163L9.66504 12.2L10.0326 10.1783L11.0056 9.78912L10.9785 10.6163Z" fill="#FBDA66"/>
<path d="M10.7459 12.027L9.67017 12.1838L10.9458 10.5837L11.9998 10.119L12.5296 10.1675L10.7459 12.027Z" fill="#F9DD80"/>
<path d="M11.0054 9.7135L10.9675 10.5891L12.0107 10.1189L12.0918 10.0487L11.0054 9.7135Z" fill="#FBE88D"/>
<path d="M13.0268 9.5838L10.7241 12.0324L13.389 15.2756L13.0268 9.5838Z" fill="#E8CE70"/>
<path d="M6.13531 18.8864L4.97314 17.6215L6.18395 17.2757L6.13531 18.8864Z" fill="#FFEDA5"/>
<path d="M12.8428 16.4972H11.9238L13.3725 15.254L12.8428 16.4972Z" fill="#AB8E4D"/>
<path d="M15.2214 16.3783L13.335 15.2756L12.8376 16.4648L15.216 16.3783H15.2214Z" fill="#D3B053"/>
<path d="M15.849 14.1081L13.3571 15.2756L13.0327 9.5892L15.849 14.1081Z" fill="#E1B857"/>
<path d="M15.4052 16.5189L13.2971 15.2756L15.8322 14.108L16.1025 16.5189H15.3999H15.4052Z" fill="#F69026"/>
<path d="M18.6213 15.5188L15.7834 14.054L16.097 16.508L17.2051 16.4215L18.6213 15.5188Z" fill="#E88429"/>
<path d="M19.0268 15.7296L15.7834 14.0541L18.2159 12L19.0268 15.7296Z" fill="#AE6328"/>
<path d="M16.5349 11.1729L15.7834 14.054L18.2159 12L16.5349 11.1729Z" fill="#F5871F"/>
<path d="M16.5624 11.1838L12.9246 9.48648L15.784 14.0541L16.5624 11.1838Z" fill="#EFBF61"/>
<path d="M18.562 12.1783L16.5242 11.1946L17.2431 8.45407L18.562 12.1838V12.1783Z" fill="#E88429"/>
<path d="M15.486 8.52432L13.1077 9.61081L16.5726 11.2108L15.486 8.52432Z" fill="#FCDB69"/>
<path d="M17.2645 8.45407L15.4646 8.56217L16.5456 11.2L17.2645 8.45407Z" fill="#F69026"/>
<path d="M15.5026 8.55672L12.9458 9.68645L14 8.27023L15.5026 8.55672Z" fill="#FCD756"/>
<path d="M15.8484 6.45403L15.4916 8.59457L14.0051 8.25943L13.8159 7.70267L15.2376 5.85403L15.8484 6.44863V6.45403Z" fill="#FAAE32"/>
<path d="M15.8485 6.44324L15.4756 8.65405L16.7458 6.9027L15.8485 6.44324Z" fill="#F58A1F"/>
<path d="M17.2648 8.46485L15.5027 8.59459L16.7135 6.89188L17.2648 8.45944V8.46485Z" fill="#F5863C"/>
<path d="M16.3673 6.1081L15.8591 6.44864L16.7348 6.9135L16.3673 6.10269V6.1081Z" fill="#CE7637"/>
<path d="M16.8759 5.69183L16.3569 6.10264L16.7192 6.91345L16.8759 5.69183Z" fill="#D96D27"/>
<path d="M16.3673 6.10808L15.2375 5.86484L15.8484 6.45943L16.3673 6.10808Z" fill="#494341"/>
<path d="M16.108 4.92973L15.2432 5.86486L16.3837 6.11351L16.1134 4.92432L16.108 4.92973Z" fill="#49352E"/>
<path d="M16.6645 4.02161L16.3672 6.11349L16.8753 5.7135L16.6645 4.02161Z" fill="#AC6E32"/>
<path d="M16.1083 4.93518L16.3732 6.10274L16.6813 4.07031L15.6704 4.50816L16.1137 4.93518H16.1083Z" fill="#885C30"/>
<path d="M15.6701 5.41622L14.7026 4.43243L15.6701 4.48109L16.1242 4.93515L15.6701 5.41622Z" fill="#E07726"/>
<path d="M14.7026 5.62162V4.43243L15.6864 5.40001L15.2324 5.88649L14.7026 5.62162Z" fill="#F89D1C"/>
<path d="M15.243 5.85945L14.7024 5.62161L13.2754 6.15134L13.9132 7.58378L15.243 5.85945Z" fill="#FBC244"/>
<path d="M15.0594 3.13514L14.7026 4.43243L15.6918 4.51352L16.0378 2.50272L15.0647 3.12974L15.0594 3.13514Z" fill="#E68025"/>
<path d="M16.6703 4.07027L15.6865 4.51893L16.0271 2.50272L16.6757 4.07027H16.6703Z" fill="#DC8226"/>
<path d="M13.9622 4.21622L15.0595 3.13513L14.7081 4.45945L13.9622 4.21622Z" fill="#F9A943"/>
<path d="M14.7023 5.62164L13.9834 4.19461L14.7023 4.43245V5.62164Z" fill="#FBB544"/>
<path d="M14.0001 4.19458L12.6487 4.09729L14.719 5.64864L13.9947 4.18919L14.0001 4.19458Z" fill="#F9DF65"/>
<path d="M11.4918 4.43779L10.2432 4.2486L10.7026 5.91887L13.2054 6.21077L14.7026 5.62157L12.6594 4.10266L11.4918 4.43779Z" fill="#FDE54B"/>
<path d="M9.40538 5.37297L10.2487 4.25406L10.7621 6.06486L9.39997 7.58918L9.00537 6.41081L9.39997 5.37297H9.40538Z" fill="#FDD94D"/>
<path d="M9.47564 4.25406L8.31348 4.84324L9.41618 5.37837L10.2487 4.25406H9.47564Z" fill="#EBE96E"/>
<path d="M8.57849 3.54053L8.40552 4.8162L9.04335 4.47566L8.57849 3.54053Z" fill="#49352E"/>
<path d="M8.7459 2L8.58374 3.54054L9.0486 4.48648L9.11887 2.52973L8.7459 2Z" fill="#E68025"/>
<path d="M9.55649 4.27029L9.11325 2.52975L9.04297 4.4757L9.55649 4.27029Z" fill="#AE6328"/>
<path d="M10.2435 4.25406L9.11914 2.51892L9.54072 4.27027L10.2435 4.25406Z" fill="#B76F3F"/>
<path d="M7.0759 4.63243L5.74618 5.96215C5.60022 6.1081 5.54077 6.3243 5.60022 6.52432L6.12455 8.32431C6.17861 8.51891 6.32996 8.66485 6.52455 8.71891L8.6813 9.25944L10.3678 7.49728L10.5462 7.97296L9.80028 8.73511L10.0002 9.41619C10.0543 9.61079 10.2165 9.76212 10.4164 9.8108L12.2272 10.2107C12.4111 10.254 12.6056 10.1946 12.7462 10.0648L14.0651 8.75133C14.211 8.60539 14.2704 8.39457 14.2164 8.19458L13.7246 6.38917C13.6704 6.19458 13.5137 6.04323 13.3192 5.98918L11.503 5.5189C11.3084 5.46486 11.1029 5.52431 10.9624 5.67025L9.43806 7.2216L9.09212 6.94053L10.011 6.07566L9.78401 5.34052C9.7299 5.15133 9.57855 5.00539 9.38941 4.95675L7.61645 4.48647C7.42185 4.43242 7.21644 4.48647 7.0759 4.63243Z" fill="#8247E5"/>
<path d="M6.43213 6.41081L7.52942 5.30811L9.02673 5.7081L9.42672 7.21621L8.32943 8.31891L6.83754 7.91351L6.43754 6.41081H6.43213ZM10.3456 7.49189L11.4375 6.38918L12.9349 6.79459L13.3348 8.29729L12.2429 9.39999L10.7457 8.99999L10.3456 7.48648V7.49189Z" fill="black"/>
<path d="M6.74024 6.10806L6.43213 6.42157L7.4051 7.08102L7.12403 7.27562L8.44835 8.19454L8.77267 7.8486L7.85376 7.27562L8.15105 7.05401L6.74024 6.10806ZM10.6862 7.14589L10.378 7.46481L11.3511 8.12427L11.07 8.31886L12.3943 9.23238L12.7186 8.89184L11.7997 8.31886L12.097 8.09724L10.6862 7.14589Z" fill="#C1C1C1"/>
<path d="M6.05382 16.6053C6.05239 16.5343 6.06496 16.4638 6.0908 16.3977C6.11666 16.3315 6.15528 16.2711 6.20446 16.22C6.25367 16.1688 6.31245 16.1277 6.37751 16.0993C6.44255 16.0708 6.51257 16.0554 6.58355 16.054H17.4159C17.4869 16.0554 17.5569 16.0708 17.622 16.0993C17.6871 16.1277 17.7459 16.1688 17.7951 16.22C17.8443 16.2711 17.8828 16.3315 17.9087 16.3977C17.9346 16.4638 17.9472 16.5343 17.9457 16.6053V21.4486C17.9472 21.5196 17.9346 21.5902 17.9087 21.6563C17.8828 21.7224 17.8443 21.7828 17.7951 21.834C17.7459 21.8852 17.6871 21.9262 17.622 21.9547C17.5569 21.9832 17.4869 21.9986 17.4159 22H6.58355C6.51257 21.9986 6.44255 21.9832 6.37751 21.9547C6.31245 21.9262 6.25367 21.8852 6.20446 21.834C6.15528 21.7828 6.11666 21.7224 6.0908 21.6563C6.06496 21.5902 6.05239 21.5196 6.05382 21.4486V16.6053Z" fill="#D92F85"/>
<path fill-rule="evenodd" clip-rule="evenodd" d="M13.0812 16.054V19.8378H13.892V16.054H13.0812ZM9.56773 18.7567C9.56735 18.9761 9.50025 19.1904 9.37531 19.3708C9.25035 19.5511 9.07344 19.6892 8.8681 19.7667C8.66276 19.8441 8.43871 19.8572 8.22575 19.8043C8.01277 19.7513 7.82096 19.6349 7.6758 19.4703V20.9188H6.86499V17.6756H7.6758V18.0432C7.82096 17.8786 8.01277 17.7622 8.22575 17.7092C8.43871 17.6562 8.66276 17.6693 8.8681 17.7468C9.07344 17.8242 9.25035 17.9623 9.37531 18.1427C9.50025 18.3231 9.56735 18.5372 9.56773 18.7567ZM7.6758 18.7567C7.6758 18.9001 7.73275 19.0376 7.83412 19.139C7.9355 19.2404 8.07299 19.2972 8.21634 19.2972C8.3597 19.2972 8.49719 19.2404 8.59857 19.139C8.69993 19.0376 8.75688 18.9001 8.75688 18.7567C8.75688 18.6134 8.69993 18.4759 8.59857 18.3745C8.49719 18.2731 8.3597 18.2162 8.21634 18.2162C8.07299 18.2162 7.9355 18.2731 7.83412 18.3745C7.73275 18.4759 7.6758 18.6134 7.6758 18.7567ZM11.1893 19.8378C11.9352 19.8378 12.5406 19.3514 12.5406 18.7567C12.5406 18.1621 11.9352 17.6756 11.1893 17.6756C10.4434 17.6756 9.83802 18.1621 9.83802 18.7567C9.83802 19.3514 10.4434 19.8378 11.1893 19.8378ZM11.1893 19.2972C11.3326 19.2972 11.4702 19.2404 11.5715 19.139C11.6729 19.0376 11.7299 18.9001 11.7299 18.7567C11.7299 18.6134 11.6729 18.4759 11.5715 18.3745C11.4702 18.2731 11.3326 18.2162 11.1893 18.2162C11.0459 18.2162 10.9084 18.2731 10.807 18.3745C10.7058 18.4759 10.6488 18.6134 10.6488 18.7567C10.6488 18.9001 10.7058 19.0376 10.807 19.139C10.9084 19.2404 11.0459 19.2972 11.1893 19.2972ZM15.146 19.5243L14.1622 17.6756H14.9947L15.5298 18.7567L16.0326 17.6756H16.865L15.265 20.9188H14.4704L15.146 19.5243ZM10.811 21.4594C11.1676 21.4594 11.4596 21.2161 11.4596 20.9188C11.4596 20.6216 11.1676 20.3784 10.811 20.3784C10.4541 20.3784 10.1623 20.6216 10.1623 20.9188C10.1623 21.2161 10.4541 21.4594 10.811 21.4594ZM10.811 21.2648C10.9893 21.2648 11.1352 21.108 11.1352 20.9188C11.1352 20.7297 10.9893 20.5729 10.811 20.5729C10.6326 20.5729 10.4866 20.7297 10.4866 20.9188C10.4866 21.108 10.6326 21.2648 10.811 21.2648ZM8.9731 20.5622H8.75688V20.3784H9.44877C9.77848 20.3784 10.0433 20.6216 10.0433 20.9188C10.0433 21.2161 9.77848 21.4594 9.44877 21.4594H8.75688V21.2648H8.9731V20.5622ZM9.29742 21.2702H9.35147C9.56231 21.2702 9.7298 21.108 9.7298 20.9134C9.72841 20.8652 9.71757 20.8177 9.69776 20.7737C9.67796 20.7295 9.64971 20.6898 9.61465 20.6566C9.57946 20.6236 9.53809 20.5977 9.49294 20.5806C9.44783 20.5634 9.39974 20.5552 9.35147 20.5567H9.29742V21.2702ZM12.946 20.9188C12.946 20.9567 12.9407 20.9945 12.9299 21.0269V21.0865H12.9136C12.8272 21.3026 12.5785 21.4594 12.2866 21.4594C11.9244 21.4594 11.6271 21.2161 11.6271 20.9188C11.6271 20.6216 11.9244 20.3784 12.2866 20.3784C12.3893 20.3784 12.4867 20.3945 12.5676 20.4324V20.4162H12.8542V20.7675H12.5676V20.7459C12.5406 20.6946 12.5003 20.6515 12.4508 20.6211C12.4014 20.5905 12.3446 20.574 12.2866 20.5729C12.1083 20.5729 11.9622 20.7297 11.9622 20.9188C11.9622 21.108 12.1083 21.2648 12.2866 21.2648C12.3462 21.2643 12.4043 21.2473 12.4549 21.2159C12.5055 21.1843 12.5463 21.1396 12.5731 21.0865H12.3623V20.9188H12.946ZM13.1515 20.5837H13.3137V21.2702H13.1515V21.4594H14.1622V21.1189H13.9731V21.2702H13.6218V20.9945H13.9028V20.8325H13.6218V20.5837H13.9731V20.7242H14.1622V20.3784H13.1515V20.5837Z" fill="white"/>
<path d="M8.08095 10.827L7.09717 9.9026L8.39986 9.65402L8.49716 10.1622L8.08095 10.827Z" fill="#312F32"/>
<path d="M7.65406 9.18915L7.07568 9.9026L8.42164 9.66483L7.65406 9.18915Z" fill="#715421"/>
<path d="M7.60548 11.6973H7.06494V12.3621L7.60548 11.6973Z" fill="#37321D"/>
</svg>
