<svg width="24" height="24" viewBox="0 0 24 24" fill="none" xmlns="http://www.w3.org/2000/svg">
<path d="M19.9409 16.4946V7.4947L11.9998 3L4.05859 7.4947V16.4946L6.70566 17.9823V8.99822L11.9998 5.98057L17.2939 8.99822V15.0018L11.9998 18.0088V21L19.9409 16.4946Z" fill="url(#paint0_linear_328_30333)"/>
<path d="M15.7058 9.91801L11.9999 7.8374L8.29395 9.91801V18.918L10.4115 20.0615V11.0774L11.9999 10.151L13.5881 11.0774V12.9197L11.9999 13.8462V16.1492L15.7058 14.0792V9.91801Z" fill="url(#paint1_linear_328_30333)"/>
<path d="M19.9409 7.4947L11.9998 3L4.05859 7.4947L6.69505 8.99822L11.9998 5.98057L17.3044 8.99822L19.9409 7.4947Z" fill="white"/>
<path d="M11.9989 7.8374L8.32471 9.91801L10.3683 11.0774L11.9989 10.1457L13.6295 11.0721L15.7047 9.91801L11.9989 7.8374Z" fill="white"/>
<defs>
<linearGradient id="paint0_linear_328_30333" x1="15.9703" y1="5.24999" x2="8.25153" y2="18.8717" gradientUnits="userSpaceOnUse">
<stop stop-color="#4E4AFF"/>
<stop offset="1" stop-color="#A873FF"/>
</linearGradient>
<linearGradient id="paint1_linear_328_30333" x1="15.925" y1="4.53432" x2="9.38083" y2="21.3457" gradientUnits="userSpaceOnUse">
<stop stop-color="#4E4AFF"/>
<stop offset="1" stop-color="#A873FF"/>
</linearGradient>
</defs>
</svg>
