<svg width="24" height="24" viewBox="0 0 24 24" fill="none" xmlns="http://www.w3.org/2000/svg">
<path d="M21 3H3V21H21V3Z" fill="white"/>
<path d="M3 3H21V21H3V3Z" fill="#337243"/>
<path d="M9.69537 11.7111C10.7335 12.5725 12.4918 13.2025 13.2375 13.4115L14.1375 12.6915C14.086 12.6271 13.9832 12.4665 13.9832 12.3282C13.9832 11.7915 14.6968 10.959 14.6968 10.4961C14.6968 10.0332 14.3175 9.78893 14.3175 9.49C14.3175 9.19107 14.43 9.08178 14.43 8.8182C14.43 8.6125 13.7454 7.9375 13.4047 7.62893C13.501 7.49393 13.6843 7.16928 13.6843 6.93464C13.6843 6.64535 13.35 6.25 13.0447 6.25C12.7393 6.25 12.4597 6.49107 12.4597 6.78678C12.4597 7.02143 12.6525 7.30428 12.749 7.41678C12.4701 7.35815 12.1852 7.33227 11.9004 7.33964C11.4343 7.33964 10.8557 7.5325 10.6275 7.62893C10.6372 7.5775 10.6597 7.4425 10.6597 7.28178C10.6597 6.9475 10.274 6.67107 9.98466 6.67107C9.69858 6.67107 9.36108 6.87678 9.36108 7.33964C9.36108 7.8025 9.77251 8.04678 9.90751 8.19143C9.42537 8.8825 9.69537 11.1421 9.69537 11.7111Z" fill="#FAC736"/>
<path d="M11.5115 12.7773C10.8685 12.488 10.1968 12.1248 9.69537 11.7101C9.69537 11.5943 9.68251 11.408 9.66966 11.1798C9.61501 10.2862 9.52501 8.74012 9.90751 8.19047C9.8818 8.16154 9.84323 8.12939 9.80466 8.09404C9.62787 7.94297 9.36108 7.71154 9.36108 7.33868C9.36108 7.18762 9.39644 7.06226 9.45751 6.96582C9.44466 7.18439 9.48323 7.45118 9.65037 7.67939C9.75644 7.81762 9.84323 7.92689 9.91716 8.01368C10.0779 8.21297 10.155 8.30939 10.1422 8.43797C10.1197 8.62762 10.1004 9.42797 10.3125 9.83297C10.3125 9.90689 10.2996 9.96797 10.2836 10.0387C10.2643 10.1415 10.2386 10.2637 10.2386 10.4694C10.2386 10.8133 10.3896 11.6393 11.5115 12.7773Z" fill="#E39F2E"/>
<path d="M13.045 6.28878C12.7556 6.28878 12.4985 6.51378 12.4985 6.78699C12.4985 6.89628 12.5435 7.01842 12.6013 7.13092C12.6625 7.24342 12.7331 7.33984 12.7813 7.39449C12.791 7.40734 12.791 7.42663 12.7813 7.43949C12.7768 7.44501 12.7707 7.44914 12.7639 7.45142C12.7571 7.45368 12.7498 7.45401 12.7428 7.45234C12.4658 7.395 12.1832 7.37019 11.9006 7.37842C11.4442 7.37842 10.872 7.56484 10.6406 7.66128C10.6342 7.66374 10.6272 7.66445 10.6205 7.66331C10.6136 7.66218 10.6073 7.65926 10.602 7.65484C10.5968 7.65077 10.5928 7.64528 10.5906 7.63902C10.5882 7.63277 10.5878 7.626 10.5892 7.61949C10.5988 7.57449 10.6213 7.43949 10.6213 7.28199C10.6213 7.13092 10.5345 6.98628 10.406 6.87699C10.2774 6.77092 10.1167 6.70663 9.98811 6.70663C9.85311 6.70663 9.70525 6.75484 9.59275 6.8577C9.48025 6.96056 9.3999 7.11806 9.3999 7.33984C9.3999 7.55842 9.49633 7.72878 9.61204 7.86056C9.67817 7.93481 9.7502 8.00361 9.8274 8.06628L9.93668 8.16592C9.94633 8.17878 9.94954 8.19806 9.93668 8.21092C9.80615 8.43945 9.72819 8.69419 9.70848 8.95663C9.66668 9.27163 9.65383 9.63484 9.65704 9.99484C9.66025 10.3581 9.67954 10.7149 9.69883 11.017C9.69883 11.0717 9.70525 11.1262 9.70848 11.1777C9.72133 11.3962 9.73098 11.5762 9.73098 11.692C10.7595 12.5374 12.476 13.1577 13.2281 13.3699L14.0863 12.6852C14.0606 12.653 14.0317 12.6049 14.0092 12.5567C13.977 12.486 13.945 12.4055 13.945 12.3285C13.945 12.187 13.9931 12.0295 14.0606 11.8655C14.1281 11.7049 14.2213 11.5345 14.3081 11.3674L14.3275 11.332C14.411 11.1777 14.4881 11.0267 14.5525 10.8885C14.6167 10.7374 14.6585 10.6024 14.6585 10.4962C14.6585 10.2712 14.5685 10.1041 14.4753 9.94985L14.4431 9.90163C14.4071 9.84428 14.3739 9.78529 14.3435 9.72484C14.305 9.65092 14.2792 9.57378 14.2792 9.4902C14.2792 9.33592 14.3113 9.22984 14.337 9.13021L14.3403 9.12056C14.3692 9.02735 14.395 8.94056 14.395 8.81842C14.3909 8.7899 14.3811 8.76253 14.366 8.73806C14.3436 8.6933 14.3178 8.65032 14.2888 8.60949C14.2213 8.51306 14.125 8.40378 14.0188 8.28806C13.8147 8.06805 13.6012 7.85679 13.3792 7.65484C13.3721 7.64916 13.3676 7.64099 13.3664 7.63202C13.3652 7.62305 13.3674 7.61397 13.3728 7.60663C13.421 7.54234 13.4885 7.42984 13.5463 7.30449C13.6042 7.17913 13.646 7.04734 13.646 6.93484C13.646 6.79984 13.5688 6.63913 13.4531 6.50734C13.3342 6.37878 13.1831 6.28878 13.045 6.28878ZM12.4213 6.78699C12.4213 6.46878 12.7203 6.21484 13.045 6.21484C13.2153 6.21484 13.3825 6.32092 13.5078 6.45913C13.6363 6.59734 13.7231 6.77734 13.7231 6.93484C13.7231 7.06342 13.6717 7.20806 13.6138 7.33342C13.5625 7.44913 13.5013 7.55199 13.4531 7.6227C13.6235 7.77699 13.871 8.01484 14.0735 8.23663C14.1828 8.35556 14.2792 8.46806 14.35 8.56771C14.382 8.61913 14.4142 8.66413 14.4335 8.70592C14.456 8.74449 14.4656 8.78628 14.4656 8.81842C14.4656 8.95021 14.44 9.04342 14.4142 9.13984L14.411 9.14949C14.382 9.24592 14.3563 9.34556 14.3563 9.4902C14.3563 9.5577 14.3756 9.62521 14.411 9.69271C14.4492 9.7692 14.4922 9.84326 14.5395 9.91449C14.636 10.0688 14.7325 10.252 14.7325 10.4931C14.7325 10.6217 14.6875 10.763 14.62 10.9174C14.5556 11.0587 14.4753 11.2099 14.395 11.3674L14.3756 11.3995C14.2856 11.5667 14.1956 11.7337 14.1313 11.8945C14.067 12.0552 14.022 12.1999 14.022 12.3285C14.022 12.3895 14.0445 12.457 14.0767 12.5212C14.1088 12.5855 14.141 12.6402 14.1667 12.6692C14.1795 12.6852 14.1763 12.7077 14.1603 12.7205L13.2603 13.4405C13.2557 13.4439 13.2504 13.4463 13.2449 13.4473C13.2394 13.4485 13.2336 13.4483 13.2281 13.447C12.4792 13.238 10.7178 12.6049 9.6699 11.7402C9.66565 11.7367 9.66228 11.7323 9.66006 11.7273C9.65781 11.7222 9.65679 11.7167 9.65704 11.7112C9.64546 11.4809 9.63475 11.2506 9.6249 11.0202C9.60561 10.718 9.58633 10.3581 9.58311 9.99806C9.5799 9.63484 9.58954 9.26842 9.63454 8.94699C9.67311 8.64163 9.74383 8.37484 9.85954 8.19484C9.83333 8.17062 9.80654 8.14704 9.77918 8.12413L9.74061 8.09199C9.6744 8.0352 9.61211 7.97399 9.55418 7.90878C9.40897 7.75451 9.32646 7.55168 9.32275 7.33984C9.32275 7.09878 9.41275 6.92199 9.54133 6.80306C9.6699 6.68734 9.83383 6.6327 9.98811 6.6327C10.1424 6.6327 10.3191 6.70663 10.4541 6.82556C10.5925 6.93806 10.6985 7.10199 10.6985 7.28199C10.6985 7.3977 10.6856 7.50056 10.676 7.56806C10.9395 7.4652 11.4667 7.30449 11.8975 7.30449C12.251 7.30449 12.5113 7.33663 12.6592 7.35913C12.613 7.29784 12.5711 7.2334 12.5338 7.16628C12.4728 7.04734 12.4213 6.91234 12.4213 6.78699Z" fill="black"/>
<path d="M7.95322 15.683C7.84715 15.5512 7.60607 15.2748 7.5 15.1558C7.71619 14.5129 8.01206 13.8995 8.38072 13.3301C7.64143 15.3455 8.4 15.6155 8.65071 15.7891C8.40643 15.7248 8.13643 15.683 7.95322 15.683ZM11.6818 17.4541C10.7175 16.6023 10.2225 14.9501 10.0939 14.2301C9.8817 14.881 9.77111 15.5608 9.76607 16.2455L9.33215 16.2905C9.31928 16.3869 9.345 16.6344 9.525 16.8433C10.7785 17.4444 11.566 17.4926 11.6818 17.4541Z" fill="#49573E"/>
<path d="M9.37742 16.0826C9.40956 16.3076 9.56386 16.7287 9.63778 16.912C9.0132 16.6099 8.45151 16.1921 7.98242 15.6809C8.44528 15.6712 9.25206 15.9991 9.37742 16.0826Z" fill="#FAC736"/>
<path d="M16.4839 15.0118C16.41 14.0604 15.6996 13.0833 15.3557 12.7168C15.4939 13.5364 15.7478 14.8608 15.8571 15.4233L16.426 15.3364C16.4453 15.2883 16.4839 15.1597 16.4839 15.015V15.0118Z" fill="#49573E"/>
<path d="M16.7569 15.4204C16.5271 15.7356 16.2444 16.0086 15.9213 16.2271C15.9213 15.7707 15.8408 15.5168 15.8408 15.4204C15.9823 15.369 16.413 15.1151 16.6123 14.9961C16.6605 15.0926 16.7538 15.3176 16.7538 15.4204H16.7569Z" fill="#FAC736"/>
<path d="M10.6334 7.5869C10.6527 7.59333 10.6656 7.61262 10.6592 7.6319C10.6431 7.69619 10.5948 7.85047 10.5402 7.96619C10.5381 7.97086 10.5352 7.97506 10.5315 7.97856C10.5277 7.98207 10.5234 7.98479 10.5186 7.98659C10.5137 7.98838 10.5087 7.98921 10.5036 7.98902C10.4984 7.98882 10.4934 7.98762 10.4888 7.98547C10.484 7.98347 10.4799 7.98047 10.4764 7.97667C10.473 7.97287 10.4704 7.96836 10.4688 7.96348C10.4674 7.95858 10.4669 7.95341 10.4676 7.94834C10.4682 7.94325 10.47 7.93838 10.4727 7.93405C10.5273 7.82476 10.5692 7.6769 10.5884 7.61262C10.5917 7.59655 10.6142 7.58047 10.6334 7.5869ZM12.7292 7.42297C12.7356 7.40369 12.7548 7.39083 12.7742 7.39405L13.0442 7.45512C13.0634 7.45833 13.0763 7.48083 13.0731 7.50012C13.0701 7.50923 13.0638 7.51691 13.0555 7.52166C13.0472 7.52641 13.0374 7.52789 13.0281 7.52583L12.7581 7.46476C12.7534 7.46399 12.7489 7.46228 12.7449 7.45976C12.7409 7.45722 12.7375 7.4539 12.7348 7.45C12.7321 7.4461 12.7302 7.4417 12.7292 7.43706C12.7282 7.43241 12.7282 7.42763 12.7292 7.42297ZM14.5131 12.1062C14.5227 12.0869 14.5452 12.0805 14.5613 12.0901C14.7704 12.1888 14.9677 12.3106 15.1495 12.4534C15.9222 13.0623 16.5027 13.8817 16.8209 14.8126C16.8209 14.8255 16.8177 14.8384 16.8113 14.848C16.8049 14.8595 16.7974 14.8702 16.7888 14.8801L16.7181 14.9476C16.6634 14.9959 16.5831 15.0537 16.4931 15.1148C16.3098 15.2337 16.0752 15.3623 15.8759 15.4523C15.8709 15.4546 15.8654 15.4558 15.8598 15.4558C15.8542 15.4558 15.8488 15.4546 15.8438 15.4523C15.8378 15.4499 15.8325 15.446 15.8285 15.4409C15.8245 15.4359 15.822 15.4298 15.8213 15.4234C15.5995 14.0155 15.2459 12.8969 15.0948 12.5048C14.8698 12.3376 14.677 12.2187 14.5323 12.1544C14.5278 12.1527 14.5236 12.1501 14.5202 12.1466C14.5168 12.1431 14.514 12.1391 14.5122 12.1345C14.5104 12.13 14.5096 12.1251 14.5096 12.1203C14.5098 12.1154 14.511 12.1106 14.5131 12.1062ZM15.2073 12.598C15.5133 13.4982 15.7413 14.423 15.8888 15.3622C16.1636 15.2312 16.4252 15.0742 16.6698 14.893C16.6971 14.8699 16.7218 14.844 16.7438 14.8159C16.4421 13.951 15.911 13.1843 15.2073 12.598Z" fill="black"/>
<path d="M9.69531 11.3378C9.70496 11.3571 9.70174 11.3796 9.68246 11.3892C9.58948 11.4462 9.49837 11.5064 9.40924 11.5692C9.40257 11.576 9.39364 11.5801 9.38415 11.5807C9.37465 11.5812 9.36527 11.5784 9.35781 11.5724C9.35387 11.5695 9.35055 11.5659 9.34807 11.5618C9.34558 11.5577 9.34399 11.553 9.34339 11.5481C9.34278 11.5434 9.34318 11.5384 9.34457 11.5337C9.34593 11.529 9.34826 11.5247 9.35139 11.521C9.44299 11.4482 9.54087 11.3837 9.64389 11.3282C9.6521 11.3229 9.66195 11.3211 9.67149 11.3229C9.68102 11.3247 9.68953 11.3301 9.69531 11.3378ZM14.2114 11.6014C14.215 11.5978 14.2192 11.5949 14.224 11.5929C14.2286 11.5911 14.2336 11.5901 14.2387 11.5901C14.2438 11.5901 14.2488 11.5911 14.2535 11.5929C14.2582 11.5949 14.2625 11.5978 14.266 11.6014C14.3142 11.6624 14.3882 11.7621 14.4492 11.8714C14.5135 11.9807 14.5617 12.106 14.5617 12.2217C14.5617 12.6074 14.295 12.9289 13.996 13.1539C13.8566 13.2587 13.7056 13.347 13.546 13.4174C13.4046 13.4785 13.2792 13.5139 13.1989 13.5139C12.6224 13.4518 12.0588 13.3021 11.5275 13.0703C10.9617 12.8453 10.4506 12.5882 10.1646 12.4371C9.71461 12.196 9.38674 12.2185 9.28711 12.2539C9.27811 12.2572 9.26818 12.2571 9.25926 12.2535C9.25034 12.2499 9.24308 12.2432 9.23889 12.2346C9.23685 12.23 9.23584 12.225 9.23589 12.22C9.23594 12.2149 9.23707 12.2099 9.2392 12.2054C9.24133 12.2009 9.24441 12.1968 9.24824 12.1935C9.25206 12.1902 9.25655 12.1878 9.26139 12.1864C9.38674 12.1414 9.73711 12.1253 10.2 12.3728C10.6387 12.6061 11.0893 12.8164 11.55 13.0028C12.1125 13.2278 12.72 13.4174 13.1989 13.4399C13.2632 13.4399 13.3789 13.4078 13.5139 13.3499C13.6521 13.2921 13.8032 13.2053 13.951 13.0928C14.2403 12.8742 14.4878 12.5721 14.4878 12.2217C14.4878 12.1253 14.4428 12.0128 14.385 11.9035C14.3271 11.8007 14.2564 11.7042 14.2082 11.6528C14.2049 11.6493 14.2024 11.6451 14.2007 11.6406C14.199 11.6361 14.1983 11.6312 14.1987 11.6264C14.199 11.6216 14.2002 11.6169 14.2024 11.6126C14.2046 11.6082 14.2077 11.6045 14.2114 11.6014ZM16.68 14.5714C16.696 14.5874 16.696 14.6099 16.68 14.6228C16.6478 14.6646 16.5835 14.7064 16.516 14.7482C16.285 14.8743 16.0467 14.987 15.8025 15.0857C15.7935 15.089 15.7836 15.089 15.7747 15.0854C15.7657 15.0818 15.7585 15.075 15.7542 15.0664C15.7522 15.062 15.751 15.0571 15.7508 15.0523C15.7507 15.0474 15.7515 15.0426 15.7533 15.0381C15.7551 15.0336 15.7579 15.0294 15.7614 15.026C15.7648 15.0226 15.769 15.0199 15.7735 15.0182C16.0134 14.9203 16.2473 14.8086 16.4742 14.6839C16.545 14.6453 16.5964 14.6067 16.6253 14.5746C16.6289 14.571 16.6332 14.5682 16.6379 14.5662C16.6425 14.5643 16.6476 14.5633 16.6526 14.5633C16.6577 14.5633 16.6627 14.5643 16.6675 14.5662C16.6721 14.5682 16.6764 14.571 16.68 14.5746V14.5714ZM9.74354 15.8635C9.09785 15.4763 8.35554 15.2801 7.60281 15.2978C7.59308 15.2987 7.58334 15.296 7.57558 15.29C7.56782 15.284 7.56262 15.2753 7.56104 15.2657C7.56104 15.2432 7.57711 15.2271 7.59639 15.2239C7.99174 15.2014 8.97854 15.2882 9.78211 15.8024C9.80139 15.8153 9.80461 15.8346 9.79496 15.8539C9.78917 15.8616 9.78067 15.867 9.77113 15.8688C9.7616 15.8706 9.75174 15.8687 9.74354 15.8635Z" fill="black"/>
<path d="M11.5435 13.042C10.7947 12.8941 9.30001 12.9134 8.64429 12.9391C8.77761 12.6416 8.99563 12.3901 9.27107 12.2159C9.22929 12.2062 9.1425 12.1484 9.1425 11.9845C9.1425 11.7787 9.39001 11.4637 9.48001 11.5441C9.77893 12.338 11.7943 13.0291 12.765 13.2734C12.3639 13.1672 11.9557 13.0898 11.5435 13.042Z" fill="#49573E"/>
<path d="M8.6376 12.868C8.64403 12.8519 8.66332 12.839 8.68582 12.8455C9.01725 12.9641 9.31557 13.1601 9.55596 13.4173C9.79636 13.6745 9.9719 13.9853 10.068 14.324C10.07 14.3288 10.0709 14.3341 10.0706 14.3392C10.0704 14.3445 10.069 14.3495 10.0665 14.3541C10.064 14.3588 10.0606 14.3628 10.0564 14.3659C10.0522 14.3691 10.0474 14.3711 10.0422 14.3722C10.0329 14.3742 10.0231 14.3729 10.0148 14.368C10.0065 14.3633 10.0002 14.3556 9.99724 14.3465C9.90477 14.0192 9.73548 13.7186 9.50348 13.4698C9.27147 13.221 8.98344 13.0312 8.66332 12.9162C8.65858 12.915 8.65413 12.913 8.65022 12.9101C8.64632 12.9072 8.64306 12.9035 8.64065 12.8992C8.63823 12.8951 8.63671 12.8904 8.63619 12.8855C8.63567 12.8807 8.63615 12.8757 8.6376 12.8712V12.868Z" fill="black"/>
<path d="M8.77302 12.6623C8.77664 12.6531 8.78366 12.6456 8.79264 12.6414C8.8016 12.6372 8.81185 12.6366 8.82124 12.6398C9.01731 12.7105 9.31624 12.868 9.58302 13.1219C9.88396 13.3964 10.0805 13.7668 10.1391 14.1698C10.1391 14.1891 10.1262 14.2084 10.107 14.2116C10.1019 14.2125 10.0967 14.2125 10.0916 14.2113C10.0866 14.2102 10.0819 14.208 10.0777 14.205C10.0735 14.202 10.0699 14.1982 10.0672 14.1938C10.0645 14.1895 10.0627 14.1846 10.062 14.1794C10.006 13.7924 9.81744 13.4367 9.52839 13.1734C9.31745 12.9717 9.06826 12.8144 8.79552 12.7105C8.79069 12.7091 8.7862 12.7068 8.78238 12.7034C8.77855 12.7001 8.77547 12.696 8.77333 12.6915C8.77121 12.687 8.77008 12.682 8.77002 12.677C8.76997 12.6719 8.77099 12.6669 8.77302 12.6623ZM13.4949 10.123C13.0255 10.123 12.8326 10.3802 12.7974 10.5088C12.7974 10.7788 13.2184 11.0166 13.4241 11.0166C13.6299 11.0166 13.8999 10.5602 13.8999 10.4027C13.8999 10.2419 13.7005 10.123 13.4949 10.123ZM13.1862 11.8138C13.1991 11.8266 13.2024 11.8491 13.1862 11.8652C13.141 11.9103 13.0824 11.9397 13.0191 11.9488C12.958 11.9616 12.9034 11.9584 12.868 11.9519C12.8631 11.9517 12.8583 11.9502 12.8538 11.9478C12.8495 11.9454 12.8457 11.9422 12.8426 11.9382C12.8396 11.9343 12.8374 11.9298 12.8362 11.9249C12.8351 11.9202 12.835 11.9151 12.8359 11.9102C12.8359 11.8909 12.8584 11.878 12.8776 11.878C12.9099 11.8844 12.9549 11.8877 13.0062 11.878C13.0549 11.8712 13.1001 11.8487 13.1349 11.8138C13.1419 11.8074 13.1511 11.804 13.1605 11.804C13.17 11.804 13.1791 11.8074 13.1862 11.8138ZM11.8524 11.0905C11.8074 11.1355 11.7751 11.1869 11.7559 11.2223C11.7517 11.2309 11.7444 11.2377 11.7355 11.2413C11.7265 11.2448 11.7166 11.245 11.7076 11.2416C11.7031 11.2398 11.699 11.2371 11.6955 11.2338C11.692 11.2304 11.6893 11.2263 11.6875 11.2218C11.6857 11.2172 11.6848 11.2124 11.685 11.2074C11.6851 11.2026 11.6863 11.1978 11.6884 11.1934C11.7076 11.1516 11.7462 11.0905 11.7976 11.0391C11.8491 10.9877 11.9166 10.9427 12.0001 10.9491C12.0195 10.9491 12.0355 10.9652 12.0324 10.9877C12.0324 11.0069 12.0162 11.0198 11.997 11.0198C11.9455 11.0198 11.8941 11.0455 11.8524 11.0905Z" fill="black"/>
<path d="M13.035 9.88119C13.035 9.8619 13.0543 9.84582 13.0768 9.84905C13.3018 9.85869 13.5558 9.8844 13.7518 9.96797C13.8548 10.013 13.9448 10.0708 14.0058 10.148C14.07 10.2283 14.1054 10.3248 14.1054 10.4469C14.1085 10.7176 14.0444 10.9849 13.919 11.2248C13.8493 11.3599 13.7431 11.4728 13.6123 11.5507C13.4817 11.6285 13.3318 11.6681 13.1798 11.6651C12.8873 11.6651 12.6043 11.5591 12.3698 11.4305C12.1785 11.3261 12.0022 11.1964 11.8458 11.0448C11.8423 11.0415 11.8395 11.0375 11.8376 11.0331C11.8356 11.0287 11.8347 11.0238 11.8347 11.0191C11.8347 11.0143 11.8356 11.0094 11.8376 11.005C11.8395 11.0006 11.8423 10.9966 11.8458 10.9933C11.8528 10.987 11.862 10.9835 11.8715 10.9835C11.881 10.9835 11.8901 10.987 11.8973 10.9933C11.9936 11.0898 12.18 11.2441 12.4083 11.3662C12.6333 11.4948 12.9065 11.5912 13.1798 11.5912C13.3186 11.5943 13.4556 11.5584 13.575 11.4873C13.6944 11.4163 13.7913 11.3131 13.8548 11.1893C13.9833 10.958 14.0315 10.6687 14.0315 10.4469C14.0315 10.3408 13.9993 10.2604 13.9479 10.193C13.8933 10.1287 13.8193 10.0773 13.7229 10.0355C13.5133 9.96111 13.2928 9.922 13.0704 9.91975C13.0613 9.91822 13.0531 9.9135 13.0472 9.90642C13.0413 9.89934 13.0381 9.89039 13.0383 9.88119H13.035Z" fill="black"/>
<path d="M13.4242 10.9388C13.4467 10.9357 13.466 10.9517 13.466 10.9709C13.4787 11.1092 13.4337 11.4403 13.167 11.6492C13.163 11.6524 13.1584 11.6548 13.1535 11.6562C13.1485 11.6576 13.1435 11.6581 13.1384 11.6575C13.1332 11.6568 13.1284 11.6552 13.1239 11.6527C13.1195 11.6502 13.1155 11.6468 13.1124 11.6428C13.1093 11.639 13.1069 11.6347 13.1056 11.6301C13.1042 11.6253 13.1038 11.6205 13.1043 11.6157C13.105 11.6108 13.1066 11.6062 13.109 11.6019C13.1115 11.5978 13.1149 11.5942 13.1187 11.5913C13.3631 11.4017 13.4017 11.1028 13.392 10.9774C13.392 10.9582 13.4049 10.9388 13.4242 10.9357V10.9388ZM11.9585 9.83313C11.9585 9.95206 11.8942 10.0485 11.8137 10.0485C11.7335 10.0485 11.6692 9.95206 11.6692 9.83313C11.6692 9.71099 11.7335 9.61456 11.8137 9.61456C11.8942 9.61456 11.9585 9.71099 11.9585 9.83313ZM13.9802 9.54706C13.9802 9.6692 13.916 9.76563 13.8356 9.76563C13.7552 9.76563 13.691 9.6692 13.691 9.54706C13.691 9.42813 13.7552 9.3317 13.8356 9.3317C13.916 9.3317 13.9802 9.42813 13.9802 9.54706ZM11.9231 8.80134C11.6917 8.84313 11.4281 9.09706 11.4024 9.11313C11.4024 8.95241 11.7367 8.69206 11.8331 8.68884C11.9295 8.68241 11.9231 8.77884 11.9231 8.80134ZM13.7262 8.70491C13.8935 8.67599 14.112 8.77884 14.1312 8.78206C14.1087 8.68563 13.842 8.5892 13.7745 8.6117C13.7037 8.63099 13.7231 8.68884 13.7262 8.70491ZM7.91809 15.6542C7.91809 15.6349 7.93738 15.6221 7.95988 15.6221C8.59438 15.6996 9.20963 15.8912 9.77595 16.1878C9.79202 16.1974 9.79845 16.2199 9.7888 16.2392C9.7835 16.2476 9.77521 16.2535 9.76565 16.2558C9.75608 16.2583 9.74596 16.2569 9.73738 16.2521C9.17994 15.9607 8.57454 15.7724 7.95023 15.6959C7.94527 15.6956 7.94044 15.6941 7.93605 15.6919C7.93168 15.6895 7.92785 15.6862 7.92481 15.6823C7.92178 15.6784 7.91961 15.6738 7.91845 15.6689C7.91729 15.6641 7.91717 15.659 7.91809 15.6542Z" fill="black"/>
<path d="M14.7001 15.3751C14.6985 15.5043 14.6713 15.6317 14.6203 15.7505C14.5693 15.8692 14.4955 15.9767 14.4029 16.0669C14.3104 16.1569 14.2011 16.228 14.0811 16.2759C13.961 16.3237 13.8329 16.3475 13.7036 16.3458C13.4439 16.3475 13.194 16.2464 13.0086 16.0645C12.8231 15.8827 12.717 15.6349 12.7136 15.3751C12.717 15.1153 12.8231 14.8675 13.0086 14.6856C13.194 14.5038 13.4439 14.4027 13.7036 14.4043C14.2533 14.4043 14.7001 14.8383 14.7001 15.3751Z" fill="#FAC736"/>
<path d="M11.4277 12.7327C11.4457 12.7235 11.4665 12.7218 11.4857 12.7278C11.5049 12.7338 11.5209 12.7471 11.5306 12.7647C11.6656 13.0122 11.8938 13.4077 12.1573 13.8095C12.3959 14.1894 12.681 14.5382 13.0059 14.8477C13.0381 14.8766 13.0381 14.9216 13.0123 14.9505C12.9866 14.9827 12.9384 14.9827 12.9063 14.957C12.5714 14.6391 12.2778 14.2806 12.0321 13.8897C11.8061 13.5453 11.5948 13.1914 11.3988 12.8291C11.3908 12.812 11.3896 12.7924 11.3957 12.7745C11.4017 12.7566 11.4143 12.7416 11.4309 12.7327H11.4277ZM11.4952 12.7809C11.4904 12.7728 11.4831 12.7667 11.4741 12.7638C11.4652 12.7608 11.4557 12.7611 11.4471 12.7647C11.4427 12.7669 11.4389 12.7697 11.4358 12.7733C11.4326 12.7769 11.4302 12.7809 11.4287 12.7854C11.4273 12.7899 11.4266 12.7948 11.427 12.7995C11.4273 12.8043 11.4287 12.8088 11.4309 12.813C11.5659 13.0637 11.7941 13.4655 12.0641 13.8672C12.308 14.2557 12.5996 14.612 12.9321 14.928C12.9481 14.9441 12.9706 14.9441 12.9834 14.928C12.987 14.9247 12.9897 14.9207 12.9916 14.9163C12.9935 14.9119 12.9945 14.9072 12.9945 14.9022C12.9945 14.8975 12.9935 14.8928 12.9916 14.8883C12.9897 14.8839 12.987 14.8799 12.9834 14.8766C12.6547 14.5646 12.3664 14.2125 12.1252 13.8287C11.9006 13.4884 11.6904 13.1389 11.4952 12.7809ZM14.192 14.7705C14.1833 14.7661 14.1756 14.76 14.1693 14.7526C14.163 14.7452 14.1582 14.7366 14.1552 14.7274C14.1523 14.7181 14.1512 14.7083 14.1519 14.6987C14.1527 14.6889 14.1554 14.6795 14.1598 14.6709C14.327 14.3559 14.3848 13.9059 14.3881 13.4655C14.3881 13.0252 14.3366 12.6041 14.2852 12.3534C14.2834 12.3436 14.2835 12.3336 14.2856 12.324C14.2876 12.3143 14.2917 12.3052 14.2974 12.2971C14.3031 12.289 14.3104 12.2821 14.3188 12.2769C14.3271 12.2716 14.3365 12.2681 14.3463 12.2666C14.3848 12.2602 14.4266 12.2859 14.4331 12.3245C14.4846 12.5847 14.5391 13.0155 14.5391 13.4655C14.5391 13.9155 14.4781 14.3912 14.2948 14.7384C14.2853 14.7561 14.2692 14.7694 14.25 14.7753C14.2308 14.7814 14.21 14.7797 14.192 14.7705ZM14.3977 12.3341C14.3969 12.329 14.3951 12.3241 14.3924 12.3197C14.3897 12.3153 14.3862 12.3115 14.382 12.3084C14.3778 12.3055 14.373 12.3034 14.3681 12.3022C14.363 12.3012 14.3577 12.3011 14.3527 12.302C14.3474 12.3022 14.3423 12.3037 14.3376 12.3062C14.3329 12.3088 14.3289 12.3124 14.3258 12.3167C14.3226 12.321 14.3207 12.326 14.3198 12.3312C14.3189 12.3364 14.319 12.3418 14.3206 12.347C14.3721 12.6009 14.4266 13.022 14.4266 13.4655C14.4432 13.885 14.364 14.3027 14.1952 14.687C14.1856 14.7062 14.1921 14.7255 14.2113 14.7352C14.2273 14.7447 14.2531 14.7384 14.2627 14.7191C14.4396 14.3816 14.4973 13.9122 14.5006 13.4655C14.5006 13.0187 14.4491 12.5912 14.3977 12.3341Z" fill="black"/>
<path fill-rule="evenodd" clip-rule="evenodd" d="M12.9614 15.3782L12.9903 15.5067C13.0141 15.4991 13.0369 15.4883 13.0578 15.4747C13.0701 15.4666 13.0801 15.4556 13.0867 15.4424V15.4103C13.0739 15.3814 13.0514 15.3717 13.0225 15.3717C13.0008 15.3703 12.979 15.3724 12.9581 15.3782H12.9614ZM13.0064 15.5807C13.0385 15.5678 13.0739 15.5517 13.1028 15.5292C13.1265 15.5132 13.1454 15.491 13.1575 15.4649C13.163 15.4511 13.1657 15.4362 13.1651 15.4212C13.1646 15.4063 13.1608 15.3916 13.1542 15.3782C13.1426 15.354 13.1244 15.3335 13.1016 15.3193C13.0788 15.3051 13.0524 15.2976 13.0256 15.2978C12.9775 15.2978 12.9292 15.3107 12.9003 15.3236L12.8745 15.3364L12.955 15.6836L13.0256 15.6674L13.0064 15.5807ZM13.4306 15.4874C13.4432 15.49 13.4562 15.4895 13.4685 15.4864C13.481 15.4832 13.4925 15.4774 13.5024 15.4693C13.5123 15.4612 13.5203 15.4509 13.5258 15.4393C13.5312 15.4278 13.534 15.4151 13.534 15.4023C13.534 15.3895 13.5312 15.3768 13.5258 15.3653C13.5203 15.3536 13.5123 15.3434 13.5024 15.3353C13.4925 15.3272 13.481 15.3213 13.4685 15.3182C13.4562 15.315 13.4432 15.3146 13.4306 15.3172C13.4082 15.3172 13.3866 15.3258 13.3704 15.3414C13.3542 15.3569 13.3447 15.3783 13.3439 15.4007C13.3439 15.4489 13.3825 15.4874 13.4306 15.4874ZM13.4306 15.5582C13.4727 15.5582 13.5131 15.5417 13.5432 15.5123C13.5732 15.4828 13.5905 15.4427 13.5914 15.4007C13.5914 15.3581 13.5744 15.3172 13.5443 15.287C13.5141 15.2569 13.4733 15.2399 13.4306 15.2399C13.388 15.2399 13.3471 15.2569 13.317 15.287C13.2868 15.3172 13.27 15.3581 13.27 15.4007C13.27 15.4874 13.3406 15.5614 13.4306 15.5614V15.5582ZM13.8967 15.3911C13.9481 15.3911 13.9867 15.3524 13.9867 15.3042C13.9859 15.2818 13.9764 15.2606 13.9602 15.245C13.944 15.2294 13.9224 15.2207 13.9 15.2207C13.8775 15.2207 13.8559 15.2294 13.8397 15.245C13.8235 15.2606 13.814 15.2818 13.8131 15.3042C13.8131 15.3524 13.8517 15.3911 13.9 15.3911H13.8967ZM13.8967 15.4617C13.9178 15.4622 13.9388 15.4585 13.9585 15.4508C13.9781 15.4431 13.9961 15.4316 14.0113 15.417C14.0265 15.4023 14.0387 15.3848 14.0472 15.3655C14.0557 15.3461 14.0603 15.3254 14.0606 15.3042C14.0606 15.2616 14.0437 15.2208 14.0136 15.1906C13.9834 15.1605 13.9425 15.1436 13.9 15.1436C13.8573 15.1436 13.8164 15.1605 13.7862 15.1906C13.7561 15.2208 13.7392 15.2616 13.7392 15.3042C13.7392 15.3911 13.81 15.4649 13.9 15.4649L13.8967 15.4617Z" fill="black"/>
<path d="M14.4176 15.1504L14.3887 15.009L14.4626 14.9961L14.498 15.1696L14.5365 15.3432L14.4626 15.3593L14.4305 15.2243L14.2569 15.2757L14.289 15.4171L14.2151 15.4332L14.1348 15.0829L14.2087 15.0668L14.2408 15.2051L14.4176 15.1536V15.1504Z" fill="black"/>
</svg>
