<svg width="24" height="24" viewBox="0 0 24 24" fill="none" xmlns="http://www.w3.org/2000/svg">
<path d="M11.0525 20.6883V6.3158H15.5005C15.6706 6.3158 15.7894 6.45412 15.7894 6.61801V14.5403C15.7894 14.7043 15.6706 14.8435 15.509 14.8435H12.9492V20.6883C12.9492 20.8522 12.8213 21 12.6517 21H11.3036C11.0975 20.9896 11.0521 20.8636 11.0525 20.6883ZM10.1052 14.8421H8.52497C8.36203 14.8383 8.21897 14.7072 8.21045 14.5503V6.61801C8.21045 6.45412 8.35492 6.3158 8.52497 6.3158H10.1052V14.8421ZM10.1052 4.42011C10.1052 5.1998 11.0544 5.8407 12.2367 5.8407C13.4192 5.8407 14.3684 5.1998 14.3684 4.42011C14.3684 3.63238 13.4192 3 12.2367 3C11.0544 3 10.1052 3.6409 10.1052 4.42011Z" fill="#1E375E"/>
</svg>
