<svg width="24" height="24" viewBox="0 0 24 24" fill="none" xmlns="http://www.w3.org/2000/svg">
<mask id="mask0_328_37293" style="mask-type:luminance" maskUnits="userSpaceOnUse" x="4" y="4" width="16" height="16">
<path d="M20 4H4V20H20V4Z" fill="white"/>
</mask>
<g mask="url(#mask0_328_37293)">
<path d="M4 4H20V20H4V4Z" fill="#333333"/>
<path d="M20 4L4 20V4H20Z" fill="#5901F6"/>
<path fill-rule="evenodd" clip-rule="evenodd" d="M9.6082 14.4117C9.59779 14.4014 9.58741 14.391 9.57707 14.3808C7.44335 12.2465 6.78849 9.44076 8.11478 8.11447C9.44107 6.7879 12.2462 7.44276 14.38 9.57705L14.3988 9.59618L13.6276 10.3713L13.6068 10.3502C11.9088 8.65162 9.80307 8.00418 8.90391 8.90362C8.00449 9.80305 8.65191 11.9094 10.3502 13.6077L10.3793 13.6368L9.6082 14.4117Z" fill="url(#paint0_linear_328_37293)"/>
<path fill-rule="evenodd" clip-rule="evenodd" d="M14.3916 9.5874L14.4227 9.61826C16.5565 11.7526 17.2114 14.5582 15.8851 15.8846C14.5587 17.2111 11.7536 16.5562 9.61993 14.422L9.60107 14.4028L10.3719 13.6277L10.3931 13.6488C12.0911 15.3474 14.1967 15.9948 15.0959 15.0954C15.9954 14.196 15.3479 12.0897 13.6496 10.3914C13.6399 10.3817 13.6303 10.372 13.6205 10.3623L14.3916 9.5874Z" fill="url(#paint1_linear_328_37293)"/>
</g>
<defs>
<linearGradient id="paint0_linear_328_37293" x1="15.7108" y1="10.3189" x2="10.5783" y2="15.4229" gradientUnits="userSpaceOnUse">
<stop stop-color="#FBFCFA"/>
<stop offset="0.817" stop-color="#9359FD" stop-opacity="0.07"/>
</linearGradient>
<linearGradient id="paint1_linear_328_37293" x1="10.0796" y1="14.3549" x2="14.0493" y2="11.0649" gradientUnits="userSpaceOnUse">
<stop stop-color="#01FDFE"/>
<stop offset="1" stop-color="#01FDFE" stop-opacity="0.06"/>
</linearGradient>
</defs>
</svg>
