<svg width="24" height="24" viewBox="0 0 24 24" fill="none" xmlns="http://www.w3.org/2000/svg">
<path d="M14.6689 3H9.33094C8.69517 3.0081 8.06721 3.14136 7.48293 3.39217C6.89864 3.64299 6.36948 4.00643 5.92568 4.46177C5.48187 4.91711 5.13209 5.45542 4.89634 6.04593C4.6606 6.63647 4.54347 7.26764 4.55167 7.90342V21H7.65511V7.90342C7.65511 6.78618 8.23235 6.10344 9.33094 6.10344H14.6689C15.7675 6.10344 16.3447 6.77999 16.3447 7.90342V21H19.4481V7.90342C19.4564 7.26764 19.3392 6.63647 19.1036 6.04593C18.8678 5.45542 18.5181 4.91711 18.0742 4.46177C17.6304 4.00643 17.1012 3.64299 16.517 3.39217C15.9325 3.14136 15.3046 3.0081 14.6689 3Z" fill="url(#paint0_linear_328_32894)"/>
<defs>
<linearGradient id="paint0_linear_328_32894" x1="6.3827" y1="9.46756" x2="21.0372" y2="17.6731" gradientUnits="userSpaceOnUse">
<stop stop-color="#0A68F4"/>
<stop offset="1" stop-color="#3DFFB9"/>
</linearGradient>
</defs>
</svg>
