<svg width="24" height="24" viewBox="0 0 24 24" fill="none" xmlns="http://www.w3.org/2000/svg">
<path fill-rule="evenodd" clip-rule="evenodd" d="M9.65462 5.3252H13.993L17.496 7.88817L18.8259 12.018L17.5414 15.9361L19.1135 17.3831L18.8121 17.7105L17.2688 16.2886L13.9578 18.676H9.6195L6.11637 16.1098L4.78662 11.9806L6.13861 7.85793L9.65462 5.3252ZM17.3733 15.0212L16.9495 11.9819L17.3876 9.00221L18.3584 12.0166L17.3733 15.0212ZM16.8446 7.96244L14.3576 6.14306L15.1892 8.58996L16.8446 7.96244ZM15.0701 9.38024L13.8897 11.9806L15.0701 14.544L16.4719 11.9806L15.0701 9.38024ZM16.5973 12.678L15.3654 14.9313L17.0109 15.6417L16.5973 12.678ZM16.8375 16.0512L15.1857 15.3383L14.322 17.8648L16.8375 16.0512ZM13.8177 17.9666L14.7271 15.3049L12.1887 15.6305L13.8177 17.9666ZM12.1944 15.1813L14.7246 14.8566L13.6309 12.4818L12.1944 15.1813ZM13.6327 11.4713L14.7285 9.05648L12.1931 8.68111L13.6327 11.4713ZM13.3944 11.9797L11.7853 8.8608L9.98373 11.9793L11.7848 15.0034L13.3944 11.9797ZM11.4006 15.6335L9.74269 17.9946L8.62864 15.3041L11.4006 15.6335ZM8.6113 14.8545L9.74891 12.4533L11.3743 15.1826L8.6113 14.8545ZM9.48073 11.9806L8.26797 14.5409L6.9231 11.9806L8.26797 9.38336L9.48073 11.9806ZM8.16434 8.58416L9.20011 6.20042L6.76878 7.95177L8.16434 8.58416ZM6.19953 9.09916L5.25404 11.9819L6.18352 14.8691L6.44902 11.9806L6.19953 9.09916ZM6.82481 12.7504L7.97355 14.9371L6.56288 15.6055L6.82481 12.7504ZM6.82749 11.1979L6.58111 8.35513L7.97311 8.98576L6.82749 11.1979ZM6.73854 16.0143L9.18277 17.8047L8.16212 15.3401L6.73854 16.0143ZM10.1203 18.2312H13.4601L11.7959 15.8448L10.1203 18.2312ZM9.77515 5.99318L8.63975 8.60552L11.3984 8.2275L9.77515 5.99318ZM10.1625 5.76992L11.7991 8.02204L13.4771 5.76992H10.1625ZM13.8457 6.01942L12.1971 8.23195L14.7254 8.6064L13.8457 6.01942ZM11.3771 8.67935L8.60729 9.05915L9.74713 11.5007L11.3771 8.67935ZM16.6026 11.2855L15.3694 8.99777L17.0318 8.36714L16.6026 11.2855Z" fill="#2E9AD0"/>
<path d="M10.6696 5.77422C10.6696 6.01012 10.5759 6.23636 10.409 6.40316C10.2423 6.56997 10.0161 6.66367 9.78014 6.66367C9.54424 6.66367 9.31801 6.56997 9.1512 6.40316C8.98439 6.23636 8.89069 6.01012 8.89069 5.77422C8.89069 5.53832 8.98439 5.31208 9.1512 5.14528C9.31801 4.97847 9.54424 4.88477 9.78014 4.88477C10.0161 4.88477 10.2423 4.97847 10.409 5.14528C10.5759 5.31208 10.6696 5.53832 10.6696 5.77422ZM14.6633 5.77422C14.6633 6.01012 14.5696 6.23636 14.4027 6.40316C14.236 6.56997 14.0097 6.66367 13.7738 6.66367C13.5379 6.66367 13.3117 6.56997 13.1449 6.40316C12.9781 6.23636 12.8844 6.01012 12.8844 5.77422C12.8844 5.53832 12.9781 5.31208 13.1449 5.14528C13.3117 4.97847 13.5379 4.88477 13.7738 4.88477C14.0097 4.88477 14.236 4.97847 14.4027 5.14528C14.5696 5.31208 14.6633 5.53832 14.6633 5.77422ZM6.21342 8.88732C6.44932 8.88732 6.67554 8.79361 6.84236 8.62681C7.00917 8.46 7.10287 8.23376 7.10287 7.99787C7.10287 7.76197 7.00917 7.53573 6.84236 7.36893C6.67554 7.20212 6.44932 7.1084 6.21342 7.1084C5.97751 7.1084 5.75128 7.20212 5.58448 7.36893C5.41766 7.53573 5.32396 7.76197 5.32396 7.99787C5.32396 8.23376 5.41766 8.46 5.58448 8.62681C5.75128 8.79361 5.97751 8.88732 6.21342 8.88732ZM16.4422 7.99787C16.4422 8.23376 16.5358 8.46 16.7027 8.62681C16.8694 8.79361 17.0958 8.88732 17.3317 8.88732C17.5675 8.88732 17.7938 8.79361 17.9606 8.62681C18.1274 8.46 18.221 8.23376 18.221 7.99787C18.221 7.76197 18.1274 7.53573 17.9606 7.36893C17.7938 7.20212 17.5675 7.1084 17.3317 7.1084C17.0958 7.1084 16.8694 7.20212 16.7027 7.36893C16.5358 7.53573 16.4422 7.76197 16.4422 7.99787ZM8.44462 9.77677C8.68052 9.77677 8.90676 9.68307 9.07356 9.51626C9.24037 9.34946 9.33407 9.12322 9.33407 8.88732C9.33407 8.65142 9.24037 8.42518 9.07356 8.25838C8.90676 8.09157 8.68052 7.99787 8.44462 7.99787C8.20872 7.99787 7.98249 8.09157 7.81568 8.25838C7.64887 8.42518 7.55516 8.65142 7.55516 8.88732C7.55516 9.12322 7.64887 9.34946 7.81568 9.51626C7.98249 9.68307 8.20872 9.77677 8.44462 9.77677ZM14.2114 8.88732C14.2114 9.12322 14.3051 9.34946 14.4719 9.51626C14.6387 9.68307 14.865 9.77677 15.1009 9.77677C15.3368 9.77677 15.563 9.68307 15.7298 9.51626C15.8966 9.34946 15.9903 9.12322 15.9903 8.88732C15.9903 8.65142 15.8966 8.42518 15.7298 8.25838C15.563 8.09157 15.3368 7.99787 15.1009 7.99787C14.865 7.99787 14.6387 8.09157 14.4719 8.25838C14.3051 8.42518 14.2114 8.65142 14.2114 8.88732ZM11.7725 9.33205C12.0085 9.33205 12.2346 9.23833 12.4014 9.07153C12.5683 8.90473 12.662 8.67849 12.662 8.4426C12.662 8.20669 12.5683 7.98045 12.4014 7.81365C12.2346 7.64685 12.0085 7.55314 11.7725 7.55314C11.5366 7.55314 11.3104 7.64685 11.1435 7.81365C10.9768 7.98045 10.883 8.20669 10.883 8.4426C10.883 8.67849 10.9768 8.90473 11.1435 9.07153C11.3104 9.23833 11.5366 9.33205 11.7725 9.33205ZM9.78014 17.3372C10.0161 17.3372 10.2423 17.4309 10.409 17.5976C10.5759 17.7645 10.6696 17.9908 10.6696 18.2266C10.6696 18.4625 10.5759 18.6888 10.409 18.8556C10.2423 19.0224 10.0161 19.1161 9.78014 19.1161C9.54424 19.1161 9.31801 19.0224 9.1512 18.8556C8.98439 18.6888 8.89069 18.4625 8.89069 18.2266C8.89069 17.9908 8.98439 17.7645 9.1512 17.5976C9.31801 17.4309 9.54424 17.3372 9.78014 17.3372ZM13.7738 17.3372C14.0097 17.3372 14.236 17.4309 14.4027 17.5976C14.5696 17.7645 14.6633 17.9908 14.6633 18.2266C14.6633 18.4625 14.5696 18.6888 14.4027 18.8556C14.236 19.0224 14.0097 19.1161 13.7738 19.1161C13.5379 19.1161 13.3117 19.0224 13.1449 18.8556C12.9781 18.6888 12.8844 18.4625 12.8844 18.2266C12.8844 17.9908 12.9781 17.7645 13.1449 17.5976C13.3117 17.4309 13.5379 17.3372 13.7738 17.3372ZM7.10287 16.003C7.10287 15.7671 7.00917 15.5408 6.84236 15.3741C6.67554 15.2072 6.44932 15.1136 6.21342 15.1136C5.97751 15.1136 5.75128 15.2072 5.58448 15.3741C5.41766 15.5408 5.32396 15.7671 5.32396 16.003C5.32396 16.2389 5.41766 16.4652 5.58448 16.6319C5.75128 16.7988 5.97751 16.8924 6.21342 16.8924C6.44932 16.8924 6.67554 16.7988 6.84236 16.6319C7.00917 16.4652 7.10287 16.2389 7.10287 16.003ZM17.3317 15.1136C17.0958 15.1136 16.8694 15.2072 16.7027 15.3741C16.5358 15.5408 16.4422 15.7671 16.4422 16.003C16.4422 16.2389 16.5358 16.4652 16.7027 16.6319C16.8694 16.7988 17.0958 16.8924 17.3317 16.8924C17.5675 16.8924 17.7938 16.7988 17.9606 16.6319C18.1274 16.4652 18.221 16.2389 18.221 16.003C18.221 15.7671 18.1274 15.5408 17.9606 15.3741C17.7938 15.2072 17.5675 15.1136 17.3317 15.1136ZM18.221 17.8122C18.221 17.5763 18.3148 17.35 18.4816 17.1832C18.6484 17.0164 18.8746 16.9227 19.1106 16.9227C19.3465 16.9227 19.5726 17.0164 19.7395 17.1832C19.9063 17.35 20 17.5763 20 17.8122C20 18.048 19.9063 18.2743 19.7395 18.4411C19.5726 18.6079 19.3465 18.7016 19.1106 18.7016C18.8746 18.7016 18.6484 18.6079 18.4816 18.4411C18.3148 18.2743 18.221 18.048 18.221 17.8122ZM8.44418 14.2241C8.68007 14.2241 8.90631 14.3178 9.07311 14.4846C9.23992 14.6514 9.33364 14.8776 9.33364 15.1136C9.33364 15.3494 9.23992 15.5757 9.07311 15.7424C8.90631 15.9092 8.68007 16.003 8.44418 16.003C8.20827 16.003 7.98204 15.9092 7.81523 15.7424C7.64843 15.5757 7.55472 15.3494 7.55472 15.1136C7.55472 14.8776 7.64843 14.6514 7.81523 14.4846C7.98204 14.3178 8.20827 14.2241 8.44418 14.2241ZM14.2114 15.1136C14.2114 14.8776 14.3051 14.6514 14.4719 14.4846C14.6387 14.3178 14.865 14.2241 15.1009 14.2241C15.3368 14.2241 15.563 14.3178 15.7298 14.4846C15.8966 14.6514 15.9903 14.8776 15.9903 15.1136C15.9903 15.3494 15.8966 15.5757 15.7298 15.7424C15.563 15.9092 15.3368 16.003 15.1009 16.003C14.865 16.003 14.6387 15.9092 14.4719 15.7424C14.3051 15.5757 14.2114 15.3494 14.2114 15.1136ZM13.5514 11.111C13.3155 11.111 13.0894 11.2047 12.9225 11.3715C12.7557 11.5384 12.662 11.7645 12.662 12.0004C12.662 12.2363 12.7557 12.4626 12.9225 12.6294C13.0894 12.7961 13.3155 12.89 13.5514 12.89C13.7874 12.89 14.0136 12.7961 14.1804 12.6294C14.3472 12.4626 14.441 12.2363 14.441 12.0004C14.441 11.7645 14.3472 11.5384 14.1804 11.3715C14.0136 11.2047 13.7874 11.111 13.5514 11.111ZM10.6798 12.0004C10.6798 11.7645 10.5861 11.5384 10.4194 11.3715C10.2525 11.2047 10.0262 11.111 9.79038 11.111C9.55447 11.111 9.32823 11.2047 9.16143 11.3715C8.99462 11.5384 8.90092 11.7645 8.90092 12.0004C8.90092 12.2363 8.99462 12.4626 9.16143 12.6294C9.32823 12.7961 9.55447 12.89 9.79038 12.89C10.0262 12.89 10.2525 12.7961 10.4194 12.6294C10.5861 12.4626 10.6798 12.2363 10.6798 12.0004ZM16.629 11.111C16.393 11.111 16.1668 11.2047 16.0001 11.3715C15.8332 11.5384 15.7395 11.7645 15.7395 12.0004C15.7395 12.2363 15.8332 12.4626 16.0001 12.6294C16.1668 12.7961 16.393 12.89 16.629 12.89C16.8649 12.89 17.0911 12.7961 17.2578 12.6294C17.4247 12.4626 17.5185 12.2363 17.5185 12.0004C17.5185 11.7645 17.4247 11.5384 17.2578 11.3715C17.0911 11.2047 16.8649 11.111 16.629 11.111ZM7.78464 12.0004C7.78464 11.7645 7.69094 11.5384 7.52413 11.3715C7.35731 11.2047 7.13109 11.111 6.89518 11.111C6.65929 11.111 6.43305 11.2047 6.26625 11.3715C6.09943 11.5384 6.00573 11.7645 6.00573 12.0004C6.00573 12.2363 6.09943 12.4626 6.26625 12.6294C6.43305 12.7961 6.65929 12.89 6.89518 12.89C7.13109 12.89 7.35731 12.7961 7.52413 12.6294C7.69094 12.4626 7.78464 12.2363 7.78464 12.0004ZM18.6347 11.111C18.3988 11.111 18.1726 11.2047 18.0058 11.3715C17.839 11.5384 17.7453 11.7645 17.7453 12.0004C17.7453 12.2363 17.839 12.4626 18.0058 12.6294C18.1726 12.7961 18.3988 12.89 18.6347 12.89C18.8706 12.89 19.0968 12.7961 19.2637 12.6294C19.4304 12.4626 19.5241 12.2363 19.5241 12.0004C19.5241 11.7645 19.4304 11.5384 19.2637 11.3715C19.0968 11.2047 18.8706 11.111 18.6347 11.111ZM5.77891 12.0004C5.77891 11.7645 5.68521 11.5384 5.51839 11.3715C5.35159 11.2047 5.12535 11.111 4.88946 11.111C4.65355 11.111 4.42733 11.2047 4.26051 11.3715C4.0937 11.5384 4 11.7645 4 12.0004C4 12.2363 4.0937 12.4626 4.26051 12.6294C4.42733 12.7961 4.65355 12.89 4.88946 12.89C5.12535 12.89 5.35159 12.7961 5.51839 12.6294C5.68521 12.4626 5.77891 12.2363 5.77891 12.0004ZM11.7725 14.6688C12.0085 14.6688 12.2346 14.7624 12.4014 14.9293C12.5683 15.0961 12.662 15.3224 12.662 15.5583C12.662 15.7941 12.5683 16.0204 12.4014 16.1872C12.2346 16.354 12.0085 16.4477 11.7725 16.4477C11.5366 16.4477 11.3104 16.354 11.1435 16.1872C10.9768 16.0204 10.883 15.7941 10.883 15.5583C10.883 15.3224 10.9768 15.0961 11.1435 14.9293C11.3104 14.7624 11.5366 14.6688 11.7725 14.6688Z" fill="#2E9AD0"/>
</svg>
