<svg width="24" height="24" viewBox="0 0 24 24" fill="none" xmlns="http://www.w3.org/2000/svg">
<path fill-rule="evenodd" clip-rule="evenodd" d="M20.0277 15.3239C20.033 13.1396 19.0246 9.83512 14.8756 8.77794C16.2235 9.1088 18.7318 9.83461 19.7196 10.5302C18.9626 9.49473 16.682 7.4227 13.6142 7.4227C14.1854 6.94785 15.2383 5.87636 15.5899 4.86257C17.0525 5.55613 18.2879 6.65115 19.1519 8.01997C20.016 9.38879 20.4733 10.9751 20.4703 12.5938C20.4713 13.5217 20.3218 14.4438 20.0277 15.3239ZM3.52979 12.6409V12.5938C3.52979 7.88116 7.32181 4.06055 12 4.06055C12.9979 4.06055 13.9556 4.23419 14.8445 4.55341C14.6221 4.91444 14.0239 5.58942 12.799 6.37451C12.7846 6.17175 12.6973 5.6863 12.4654 5.36814C12.4194 5.58889 12.0889 6.1437 11.1419 6.5958C10.9058 6.70855 10.674 6.8102 10.4537 6.90602C9.57434 7.29141 8.89621 7.58787 8.95921 8.16755C9.02274 8.74723 9.45313 8.8981 9.66068 8.90076C9.47643 8.95635 9.06668 9.01351 8.89834 8.79488C8.64105 9.09186 8.02166 9.68107 7.6008 9.65991C7.07459 9.63343 6.98671 9.07757 7.16246 8.79488C6.45256 9.24486 5.20056 10.5736 5.87394 12.2831C6.59972 11.8415 8.47165 11.0326 10.1493 11.3259C10.6342 11.4106 11.0175 11.463 11.3288 11.5054C12.3627 11.6457 12.6014 11.6784 13.1478 12.4434C13.8588 13.4387 13.1758 17.0708 8.89834 17.3852C5.83423 17.6103 4.15077 14.6325 3.52979 12.6409Z" fill="#4289C7"/>
<path d="M4.50244 12.2996C4.50244 8.24455 7.7656 4.95703 11.7906 4.95703C25.1931 5.51236 7.72007 24.2962 4.50244 12.2996Z" fill="url(#paint0_linear_328_40782)"/>
<path fill-rule="evenodd" clip-rule="evenodd" d="M6.40716 11.8612C6.38875 11.8844 6.37111 11.9083 6.35422 11.9327C8.00062 11.6627 11.5317 11.3731 12.4508 12.4249C13.3697 13.4769 13.0944 14.253 12.8334 14.8829C12.105 16.6406 6.36428 19.1075 3.53311 12.5509C3.42616 15.4277 5.89049 21.4187 12.6492 20.9763C21.2412 20.414 18.5911 9.25026 11.2453 9.76324L11.1827 9.77647C11.9452 10.1274 12.4232 10.7082 12.5974 11.0353C9.66712 10.3233 7.40189 11.2333 6.40716 11.8612Z" fill="#191E44"/>
<path d="M12.2216 12.1907C13.7812 13.2267 13.5715 14.853 13.2714 15.5363C13.6228 15.1563 14.1745 14.9033 14.407 14.8238C14.7817 14.9535 15.2211 15.7327 13.9781 17.8133C12.7356 19.8938 10.1401 20.1622 8.99707 20.0367L9.74726 20.5438L15.3175 19.1945L16.4741 14.1869L12.2216 12.1367V12.1907Z" fill="#0C1D63"/>
<path d="M8.48015 13.0669C7.94124 13.0172 6.76228 12.7207 6.35889 11.9307C7.25461 11.3442 9.76546 10.4697 12.6464 11.6645C12.6067 11.4983 12.4558 11.1208 12.1663 10.9372C12.2664 10.9541 12.4929 10.9992 12.603 11.0399C12.5109 10.8869 12.2647 10.5322 12.0134 10.3389C13.9075 10.602 17.6952 12.088 17.6952 15.9304C17.6952 19.7727 14.7253 20.8569 13.2409 20.9188C12.0148 21.1237 9.03812 21.0607 6.75116 19.2248C6.69686 19.1864 6.64554 19.1439 6.59765 19.0976L6.75116 19.2248C7.22549 19.5657 8.39122 20.0691 10.3257 20.0691C13.0679 20.0691 16.421 17.3168 15.1033 14.3061C15.0854 14.5905 14.7863 15.2945 13.7322 15.8382C14.1039 14.5608 13.9381 11.971 10.3044 11.8344C9.34517 11.7746 7.63789 11.9372 8.48015 13.0669Z" fill="#262F72"/>
<path d="M17.413 9.90297C16.3192 9.18512 15.3198 8.86061 14.7549 8.74414C16.6061 8.96649 17.4971 9.36353 17.7115 9.534C17.6262 9.35329 17.5262 9.17979 17.413 9.01518C18.2314 9.30423 19.3118 10.1639 19.7502 10.5574C19.1287 10.2079 17.9328 9.97549 17.413 9.90297Z" fill="#161A3D"/>
<path d="M12.7163 7.29442C12.5994 7.79204 12.223 8.25896 12.0498 8.42995C15.5528 6.89578 16.0367 4.17049 15.8408 3C15.5814 3.99526 14.8682 5.07256 14.5438 5.48708L15.1304 5.34891C14.3972 6.46434 13.2155 7.11072 12.7163 7.29442Z" fill="#18214A"/>
<path d="M10.4367 7.80173C9.91306 8.05213 9.83265 8.41795 9.85747 8.56988C11.3493 8.63075 11.8416 7.59262 11.901 7.06641C11.6749 7.2607 11.091 7.48833 10.4367 7.80173Z" fill="#253155"/>
<path fill-rule="evenodd" clip-rule="evenodd" d="M10.1025 8.57026C10.3672 8.49191 10.659 8.34632 10.8517 8.09274C11.0184 7.87359 11.1216 7.64912 11.1821 7.45801C11.1185 7.48765 11.0523 7.5173 10.984 7.54853C10.8125 7.62688 10.6273 7.71053 10.4367 7.80211C9.91306 8.05251 9.83265 8.41833 9.85747 8.57026C9.94221 8.57397 10.0237 8.57344 10.1025 8.57026Z" fill="#5D98CE"/>
<path d="M7.1235 9.95329C6.83603 9.94217 6.55546 10.5012 6.45117 10.7823C6.96944 10.2624 7.17802 10.4112 7.21773 10.5505C7.3056 10.3562 7.41042 9.9644 7.1235 9.95329Z" fill="#54A2CC"/>
<path fill-rule="evenodd" clip-rule="evenodd" d="M6.75293 10.2101C6.87893 10.1311 7.00967 10.0804 7.09808 10.12C7.17802 10.1555 7.24366 10.234 7.29396 10.3202C7.33207 10.1429 7.31778 9.96124 7.1235 9.95331C6.9938 9.94801 6.86462 10.0597 6.75293 10.2101Z" fill="#3A415A"/>
<defs>
<linearGradient id="paint0_linear_328_40782" x1="7.17207" y1="5.40099" x2="11.918" y2="10.4997" gradientUnits="userSpaceOnUse">
<stop stop-color="white" stop-opacity="0.41"/>
<stop offset="1" stop-color="white" stop-opacity="0"/>
</linearGradient>
</defs>
</svg>
