<svg width="24" height="24" viewBox="0 0 24 24" fill="none" xmlns="http://www.w3.org/2000/svg">
<path d="M12.0033 21C13.9229 20.9992 15.7917 20.3849 17.3373 19.2465C18.8828 18.1082 20.0239 16.5056 20.594 14.6727C21.164 12.8398 21.133 10.8727 20.5058 9.05871C19.8784 7.24462 18.6875 5.67863 17.1071 4.58941C15.5267 3.50018 13.6394 2.94478 11.7207 3.00433C9.80224 3.06388 7.95296 3.73524 6.44306 4.92041C4.93317 6.10555 3.84174 7.74239 3.32814 9.59191C2.81457 11.4414 2.90573 13.4065 3.58835 15.2006L12.1383 6.93749L17.6282 12.2418L12.0596 17.6249L11.2552 16.8487L16.0195 12.2418L12.1383 8.48997L4.08334 16.275C5.60208 19.0874 8.58332 21 12.0033 21Z" fill="#E73558"/>
</svg>
