<svg width="24" height="24" viewBox="0 0 24 24" fill="none" xmlns="http://www.w3.org/2000/svg">
<path d="M6.49716 4.73834L3 13.8617L8.7703 20.2287L17.9864 19.7967L21 10.5756L15.6823 3.77148L6.49716 4.73834Z" fill="#00309D"/>
<path d="M6.72862 5.03145L3.38062 13.7847L8.91433 19.8995L17.76 19.4829L20.6452 10.632L15.5435 4.10059L6.72862 5.03145Z" fill="#062682"/>
<path d="M7.47474 6.01881L4.59473 13.5274L9.35188 18.7732L16.9479 18.4183L19.4319 10.8274L15.0502 5.22168L7.47474 6.01881Z" fill="#0541D6"/>
<path d="M8.09168 6.83174L5.60767 13.3271L9.71682 17.858L16.2741 17.5495L18.4186 10.982L14.6334 6.14258L8.09168 6.83174Z" fill="#409BEA"/>
<path d="M8.65162 7.59286L6.51733 13.1318L10.0402 16.9992L15.6665 16.7369L17.5076 11.1414L14.2625 7.01172L8.65162 7.59801V7.59286Z" fill="#58C5F5"/>
<path d="M9.20741 8.31279L7.42798 12.9414L10.3698 16.1814L15.06 15.9602L16.5926 11.2802L13.8874 7.82422L9.20741 8.31279Z" fill="#BAFCFD"/>
<path d="M11.8252 11.2031L6.46118 4.81575L6.57947 4.71289L12.0001 11.1724L8.8629 20.2135L8.7189 20.162L11.8252 11.2084V11.2031Z" fill="#E1FFFE"/>
<path d="M15.5802 4.02441L20.7335 10.6124L17.8122 19.5558L8.88424 19.9777L3.29395 13.8062L6.67795 4.96042L15.5802 4.02441ZM6.78595 5.10442L3.4688 13.7702L8.95109 19.8182L17.6991 19.4067L20.5636 10.6484L15.5135 4.18384L6.78595 5.10442Z" fill="#E1FFFE"/>
<path d="M13.209 11.0236L15.729 3.84929L15.585 3.79785L12.2884 13.1784L3.11865 13.8111L3.12895 13.9654L12.309 13.3276L17.9302 19.8694L18.0432 19.7716L12.4272 13.2351L13.1472 11.1779L20.9798 10.6738L20.9695 10.5196L13.2038 11.0236H13.209Z" fill="#E1FFFE"/>
</svg>
