<svg width="24" height="24" viewBox="0 0 24 24" fill="none" xmlns="http://www.w3.org/2000/svg">
<path d="M17.387 7.58103L17.2459 7.92925C17.2177 7.98572 17.1941 7.98572 17.1612 7.93396L17.0906 7.81631C17.0718 7.78338 17.053 7.78338 17.0294 7.81631C17.0171 7.83718 17.0009 7.85542 16.9814 7.86996C16.9621 7.8845 16.94 7.89505 16.9166 7.90101C16.3095 8.02336 15.6977 8.1363 15.0812 8.23042L14.4271 8.35747C14.1731 8.41394 13.9801 8.45158 13.8484 8.47511H11.3779L11.3732 7.6375C11.3732 7.59514 11.3544 7.57632 11.3121 7.57632L10.5874 7.5622C10.5167 7.5622 10.4791 7.59986 10.4791 7.67043L10.4696 8.4704L6.91689 8.48452L6.9216 7.62338C6.9216 7.59514 6.90748 7.58103 6.87925 7.58103L6.10282 7.58574C6.06516 7.58574 6.05104 7.56691 6.04635 7.53397L6.03223 6.80458C6.03223 6.7293 6.06987 6.69164 6.14517 6.69164H7.75921C7.79216 6.69164 7.81098 6.67283 7.81098 6.63519V4.96936C7.81098 4.92702 7.83451 4.9082 7.87215 4.9082H8.64388C8.68154 4.9082 8.70035 4.92232 8.70035 4.96467L8.71447 5.73639C8.71447 5.78345 8.73801 5.80227 8.78505 5.80227H9.52385C9.57091 5.80227 9.59443 5.77875 9.59443 5.73639L9.58032 4.98349C9.58032 4.91289 9.61326 4.87996 9.68855 4.87996L10.3755 4.9082C10.4367 4.9082 10.4696 4.87996 10.4696 4.81878L10.4885 4.0894C10.4885 4.02823 10.5167 4 10.5779 4H13.9472C14.0084 4 14.0413 4.02823 14.0413 4.09411V4.80466C14.0413 4.85173 14.0648 4.87996 14.112 4.87996L14.8648 4.90348C14.9119 4.90348 14.9354 4.88467 14.9354 4.83761L14.9213 4.05176C14.9213 4.02352 14.9354 4.0047 14.9636 4.0047L15.7495 4.00941C15.8013 4.00941 15.8295 4.03764 15.8248 4.0894V4.81878C15.8248 4.86113 15.8013 4.87996 15.7637 4.87996L14.9683 4.91289C14.9402 4.91289 14.9213 4.93172 14.9213 4.95995L14.9354 5.71757C14.9354 5.76463 14.9636 5.79286 15.0107 5.79757L15.7824 5.80698C15.8106 5.80698 15.8248 5.8211 15.8248 5.84933L15.8295 6.60695C15.8295 6.65401 15.853 6.67754 15.9001 6.67754H16.6671C16.7047 6.67754 16.7236 6.65871 16.7236 6.62107L16.7142 5.86815C16.7142 5.8211 16.733 5.80227 16.7706 5.80227H17.5517C17.5846 5.80227 17.5989 5.8211 17.5989 5.84933L17.5847 6.61636C17.5847 6.65401 17.5612 6.66813 17.5282 6.66813L16.7941 6.65871C16.7377 6.65871 16.7095 6.68224 16.7095 6.73871V7.49163C16.7095 7.54808 16.7424 7.57632 16.8035 7.57632L17.387 7.58103ZM18.5023 8.16453L17.9376 8.02336C17.8944 8.01386 17.8501 8.01068 17.8059 8.01395L17.6694 8.02336C17.6694 7.99042 17.66 7.96689 17.6505 7.95279C17.6317 7.92454 17.613 7.92454 17.5989 7.95279C17.5565 8.00924 17.5188 8.02807 17.4813 8.00454C17.4953 7.95279 17.5188 7.89632 17.5517 7.83985C17.6036 7.75515 17.5846 7.73161 17.4905 7.76455C17.4698 7.77128 17.4513 7.78365 17.4372 7.80026C17.4231 7.81689 17.4139 7.8371 17.4106 7.85866C17.4106 7.87749 17.3917 7.88219 17.3729 7.87278L17.3494 7.86337V7.85866C17.3762 7.82082 17.3948 7.77796 17.4046 7.73268C17.4142 7.68739 17.4147 7.64061 17.4059 7.59514L17.5377 7.5622C17.5706 7.55279 17.5847 7.53397 17.5847 7.50104V6.76223C17.5847 6.70576 17.613 6.67754 17.6647 6.67754H18.4176C18.4647 6.67754 18.4882 6.70107 18.4882 6.74811L18.5023 8.16453Z" fill="white"/>
<path d="M11.379 8.4707H10.4707L10.4801 7.67073C10.4801 7.60015 10.5178 7.5625 10.5884 7.5625L11.3131 7.57662C11.3555 7.57662 11.3742 7.59544 11.3742 7.63779L11.379 8.4707Z" fill="#AB8A67"/>
<path d="M17.3876 7.58105L17.4065 7.59517C17.4253 7.6893 17.4065 7.774 17.3501 7.85869L17.3736 7.87282C17.3924 7.88223 17.4065 7.87751 17.4112 7.854C17.4206 7.80693 17.4489 7.77869 17.4912 7.75988C17.5853 7.73165 17.6042 7.75987 17.5524 7.83988C17.5194 7.89635 17.496 7.95282 17.4819 8.00457C16.9736 8.07045 16.4607 8.15515 15.9525 8.25397C15.8208 8.28221 15.6231 8.31515 15.3548 8.3575L14.9266 8.42338C14.8043 8.44692 14.649 8.49867 14.4654 8.58337C14.2067 8.70101 13.9479 8.75748 13.6796 8.75278C13.4725 8.74807 13.2702 8.77631 13.0725 8.83748C13.0464 8.84447 13.0189 8.84447 12.9926 8.83748L12.8749 8.80925C12.8639 8.80629 12.8524 8.8056 12.8411 8.80721C12.8297 8.80884 12.8188 8.81272 12.809 8.81866L12.7102 8.88454C12.4985 9.01159 12.3338 9.09629 12.2115 9.13394C11.5809 9.32687 10.9551 9.52922 10.3292 9.74098C10.2963 9.75038 10.2727 9.76921 10.2633 9.78802C10.2444 9.81627 10.2586 9.8492 10.2963 9.88215C10.2727 9.88215 10.2586 9.88687 10.2492 9.89631C9.71506 9.73891 9.15837 9.67211 8.60219 9.69863C8.56453 9.69863 8.54571 9.68921 8.54102 9.67039C8.54102 9.64686 8.54102 9.62333 8.56453 9.58097C8.65866 9.50569 8.72454 9.40687 8.75277 9.28923C8.75277 9.27982 8.75747 9.27511 8.76689 9.27982L8.79041 9.28452V9.29393C8.72454 9.38805 8.72454 9.47275 8.79041 9.54804C8.80924 9.56687 8.82805 9.57157 8.85159 9.56687C8.9457 9.54804 9.03981 9.54334 9.12922 9.55745C9.38803 9.59509 9.64685 9.64216 9.91507 9.69391C9.9386 9.69391 9.96213 9.69391 9.98095 9.68451C9.99661 9.67764 10.0109 9.66809 10.0233 9.65627C10.0393 9.64103 10.0587 9.62974 10.0797 9.62333C10.8281 9.36923 11.5291 9.14335 12.1832 8.93159C12.235 8.91748 12.3103 8.88454 12.4044 8.82807L12.5597 8.74337C12.5879 8.73395 12.6068 8.71513 12.6161 8.6869L12.6538 8.6069C12.6679 8.57396 12.6867 8.56926 12.715 8.58808C12.8279 8.66807 12.9502 8.69631 13.082 8.66337C13.2561 8.61631 13.4772 8.59278 13.7456 8.57867C13.8396 8.57396 13.8726 8.53631 13.8491 8.47514C13.9808 8.45161 14.1737 8.41397 14.4278 8.3575L15.0773 8.23044C15.6984 8.13634 16.3101 8.0234 16.9125 7.90104C16.9594 7.89163 17.0018 7.8634 17.0301 7.81635C17.0537 7.78341 17.0772 7.78341 17.0912 7.81635L17.1618 7.93398C17.1948 7.98576 17.2184 7.98105 17.2419 7.93398L17.3831 7.58105H17.3876Z" fill="#E32262"/>
<path d="M17.6697 8.02291C17.6367 8.06997 17.632 8.10761 17.6603 8.13114C17.6744 8.14526 17.7027 8.15467 17.7403 8.15467C17.9238 8.15467 18.0555 8.16408 18.1356 8.18291L19.0155 8.43231L19.5379 9.03934C19.6461 9.78284 19.4437 10.3475 18.9261 10.7429C18.6344 10.9169 18.3614 11.091 18.112 11.2746C18.0696 11.3071 18.0316 11.3451 17.9991 11.3875L17.9709 11.4251C17.9375 11.4652 17.8958 11.4972 17.8485 11.5192L17.1991 11.8157C17.0439 11.9804 16.8839 12.0886 16.7145 12.145L16.4038 12.2628C16.291 12.3239 16.2062 12.4039 16.1545 12.4981C16.0557 12.6674 16.0086 12.851 16.0133 13.0392C15.8815 13.2086 15.8251 13.392 15.8391 13.5897C15.7451 13.5897 15.6933 13.5098 15.6933 13.3356L15.7921 12.9498C15.7999 12.9236 15.7999 12.8959 15.7921 12.8697C15.7652 12.7937 15.7652 12.7106 15.7921 12.6345C15.8062 12.5969 15.7921 12.5874 15.7592 12.6015C15.6603 12.6486 15.6133 12.7097 15.618 12.7898C15.5992 12.8228 15.5663 12.8368 15.5191 12.832L15.4768 12.6109C15.4722 12.578 15.4533 12.564 15.4203 12.5733L13.5946 13.1898C13.3311 13.2133 13.1993 13.1709 13.1946 13.0627C13.3264 13.0156 13.4581 12.978 13.5946 12.9639C13.6418 12.9619 13.6875 12.9467 13.7266 12.92C13.7657 12.8935 13.7965 12.8564 13.8158 12.8133C13.83 12.7809 13.8548 12.7544 13.8863 12.738C13.9428 12.705 13.9992 12.6674 14.051 12.6251C14.1922 12.5074 14.1828 12.4839 14.0134 12.564C13.9662 12.5827 13.8957 12.5827 13.7923 12.564L13.9757 12.4228C14.0369 12.4228 14.1217 12.3757 14.2345 12.2816C14.371 12.1593 14.6393 12.0133 15.0486 11.8534C15.2462 11.7734 15.4251 11.6416 15.5851 11.458C15.6133 11.4251 15.6086 11.4016 15.571 11.3827C15.538 11.3687 15.5239 11.3404 15.5286 11.3075C15.5945 10.8652 15.6886 10.5028 15.8203 10.2205C15.9967 9.84082 16.1507 9.45113 16.2815 9.05346C16.2815 9.02522 16.2674 9.00641 16.2344 9.00641C16.1121 8.99229 15.9898 9.00641 15.8815 9.05346L15.4345 9.1664L15.2792 9.15699C15.2509 9.15699 15.2509 9.14287 15.2698 9.12875C15.4047 9.01644 15.5574 8.92738 15.7215 8.86522C15.5803 8.87465 15.4392 8.91229 15.3028 8.96876C15.2698 8.98287 15.2274 9.01582 15.1757 9.06286C15.1312 9.10612 15.0784 9.13976 15.0204 9.16168C14.9404 9.18993 14.8134 9.22287 14.644 9.26993C14.1922 9.39227 13.8722 9.4958 13.6698 9.5852C13.5287 9.65109 13.3734 9.71225 13.2181 9.77344C13.138 9.80167 13.0958 9.85345 13.0864 9.92877C13.0864 9.95699 13.0769 9.9852 13.0676 10.0134L13.011 10.1546C13.0017 10.1876 12.9875 10.1876 12.9733 10.1546L12.9546 10.1217C12.9404 10.0887 12.9264 10.084 12.9028 10.1122C12.8828 10.1329 12.8698 10.1592 12.8652 10.1876C12.8604 10.2205 12.8745 10.244 12.9075 10.2487C13.0628 10.2864 13.1899 10.2628 13.2981 10.1734L13.9615 10.131C14.2016 10.1876 14.4416 10.2252 14.6817 10.2393C14.6957 10.2393 14.7051 10.2487 14.7098 10.2582C14.7239 10.2769 14.7192 10.2864 14.6957 10.2911L14.4133 10.3193C14.3496 10.3025 14.2822 10.3058 14.2205 10.3287L14.0322 10.3899C13.9114 10.4268 13.7935 10.4724 13.6793 10.5263C13.8674 10.5075 14.0463 10.4698 14.2205 10.4229C14.2674 10.4087 14.2863 10.4558 14.2722 10.564C14.1546 10.6017 14.1169 10.6345 14.1546 10.6581C13.7687 10.8181 13.3687 10.9545 12.9593 11.0675C12.9028 11.0863 12.8228 11.124 12.724 11.1851C12.6534 11.2322 12.5922 11.2699 12.5498 11.2887C12.5388 11.292 12.5287 11.2981 12.5205 11.3063C12.5123 11.3145 12.5061 11.3247 12.5029 11.3357L12.3946 11.6792C12.3899 11.7075 12.3946 11.7263 12.4133 11.7498C12.4746 11.811 12.484 11.8815 12.4417 11.9616C12.4312 11.9829 12.4148 12.0008 12.3946 12.0133C12.3682 12.0244 12.3463 12.0436 12.3318 12.0682C12.3174 12.0928 12.3114 12.1214 12.3145 12.1498C12.3287 12.3098 12.2676 12.4275 12.1453 12.4933C12.1251 12.5039 12.1088 12.5204 12.0982 12.5404C12.0228 12.6957 11.957 12.8463 11.9099 13.0015C11.9069 13.0144 11.901 13.0267 11.893 13.0372C11.8848 13.0477 11.8746 13.0564 11.8628 13.0627C11.7782 13.1145 11.7123 13.1898 11.6605 13.2887C11.6511 13.3121 11.6605 13.3262 11.6747 13.3356C11.6611 13.3459 11.6444 13.3509 11.6275 13.3498H11.5946C11.5792 13.3537 11.563 13.3537 11.5476 13.3498L11.5617 13.2463C11.5711 13.0956 11.5382 13.0863 11.4628 13.2133C11.3783 13.3462 11.2921 13.4779 11.204 13.6086L11.1852 13.5991C11.1711 13.5897 11.1711 13.5756 11.1852 13.5615C11.2135 13.5192 11.237 13.4674 11.2464 13.4157C11.2605 13.3686 11.2464 13.3686 11.2135 13.3967C11.1466 13.4631 11.1023 13.5487 11.0864 13.6415C11.0864 13.6745 11.0912 13.6979 11.1147 13.7168L11.2559 13.8439C11.2559 13.8768 11.237 13.905 11.2088 13.938C11.1563 13.9006 11.0972 13.8733 11.0346 13.8579C10.9876 13.8579 10.95 13.8626 10.9076 13.8768C10.8966 13.8822 10.8845 13.885 10.8724 13.885C10.86 13.885 10.848 13.8822 10.837 13.8768C10.79 13.8486 10.7947 13.8203 10.837 13.7827C10.8088 13.6321 10.6723 13.5475 10.437 13.5192C10.3702 13.5112 10.306 13.4887 10.2488 13.4533C10.2253 13.4344 10.2018 13.4391 10.1782 13.4579C10.15 13.4863 10.1453 13.5239 10.1735 13.5615C10.1782 13.5851 10.1547 13.5991 10.0935 13.6086C10.07 13.5803 10.037 13.5615 9.98528 13.5567C9.86764 13.5756 9.74058 13.538 9.59941 13.4344C9.53824 13.2792 9.43942 13.2133 9.29354 13.2321L9.02062 13.0251C8.76216 12.7554 8.43258 12.5645 8.07006 12.4745C7.88184 12.4275 7.75008 12.4886 7.6842 12.6628C7.58539 12.9263 7.48657 13.1332 7.38303 13.2932L7.28421 13.4063C7.29362 13.3074 7.28421 13.2321 7.25127 13.1898C7.20421 13.1285 7.17128 13.1332 7.14304 13.1992C7.07245 13.3827 6.98304 13.5286 6.87481 13.6463L6.63954 14.0933C6.65836 13.8721 6.71012 13.6603 6.79952 13.4579C6.81365 13.4344 6.80423 13.4204 6.77599 13.4297C6.76188 13.4297 6.75247 13.4391 6.74776 13.4533L6.43718 14.0086L6.16426 14.4368H6.15955L6.13603 14.4273C6.1266 14.4273 6.1266 14.4179 6.1266 14.4086L6.23954 13.9662L6.54072 12.978L6.56895 12.8368C6.57366 12.8133 6.56895 12.7992 6.54072 12.8039C6.35248 12.8039 6.17367 12.8416 6.02309 12.9074C5.91956 12.9545 5.77839 13.0297 5.59957 13.138L5.39723 13.1568C5.37841 13.1568 5.36899 13.1474 5.36899 13.1332L5.36429 13.1098C5.36429 13.0956 5.36429 13.091 5.37841 13.0863C5.41168 13.075 5.44684 13.0701 5.48193 13.0721C5.51017 13.0721 5.52899 13.058 5.52899 13.0297L5.53369 12.9404H5.55722L5.60428 12.9216C5.84898 12.7333 6.10779 12.5593 6.38071 12.4039C6.51841 12.3318 6.64047 12.2331 6.73982 12.1137C6.83916 11.9941 6.91384 11.8561 6.95952 11.7075C7.03951 11.4063 7.13833 11.1192 7.25598 10.8511C7.2662 10.8254 7.2662 10.7968 7.25598 10.771L7.20892 10.6298C7.23715 10.5969 7.24656 10.5687 7.24656 10.5499C7.24186 10.5357 7.22304 10.5263 7.19011 10.5217C6.88775 10.5065 6.58577 10.5579 6.30543 10.6722L6.19249 10.6957C6.15378 10.6748 6.1213 10.6439 6.09838 10.6064C6.09176 10.5953 6.08183 10.5867 6.07001 10.5815C6.05818 10.5765 6.04505 10.5753 6.0325 10.5781H5.98544C5.97059 10.5844 5.95419 10.5861 5.93839 10.5829L4.98313 10.8275C4.97371 10.8275 4.96431 10.8275 4.9596 10.8087L4.9502 10.771C4.9502 10.7569 4.9502 10.7476 4.96431 10.7429L5.35488 10.5969L5.43487 10.5452L5.51487 10.4981C6.18127 10.2343 6.86526 10.0174 7.56185 9.84873C7.57905 9.84477 7.59479 9.83598 7.60727 9.82358C7.61975 9.81107 7.62846 9.79534 7.63243 9.77813L7.75478 9.37344L8.0983 8.69112C8.0983 8.68642 8.10771 8.68171 8.11242 8.68642L8.13124 8.69583C8.14536 8.69583 8.15006 8.70995 8.14065 8.71936C8.05124 8.917 7.99948 9.11933 7.98536 9.33109C7.98536 9.40639 7.99948 9.41579 8.04183 9.34992C8.14065 9.20875 8.21594 9.05817 8.27241 8.89347C8.27241 8.88405 8.28182 8.87935 8.29123 8.88405C8.30535 8.88405 8.30535 8.89347 8.30535 8.90288L8.20182 9.31697C8.15947 9.45814 8.16888 9.53815 8.23006 9.55227C8.1762 9.60999 8.13317 9.67694 8.103 9.74991C8.08889 9.77813 8.0983 9.78755 8.12653 9.77813C8.18771 9.75932 8.25359 9.69343 8.32888 9.58049L8.39946 9.48167C8.4324 9.50992 8.46064 9.52873 8.48417 9.52402C8.5077 9.51933 8.5124 9.50521 8.49828 9.48638L8.4324 9.39698C8.42671 9.38882 8.42329 9.37929 8.42245 9.36937C8.42163 9.35946 8.42344 9.3495 8.4277 9.34051C8.44652 9.29345 8.48887 9.26993 8.55475 9.26522C8.61122 9.26522 8.62534 9.28404 8.59239 9.32639C8.5124 9.42991 8.50299 9.51461 8.56416 9.58049C8.54534 9.61815 8.53592 9.64638 8.54064 9.6699C8.54064 9.68873 8.56417 9.69814 8.60181 9.69814C8.79945 9.70756 8.99709 9.71225 9.19472 9.70756C9.38765 9.70756 9.74058 9.76872 10.2488 9.89583L10.3241 9.98993C10.5688 10.1828 10.6441 10.3805 10.55 10.5829C10.4653 10.7569 10.2817 10.9452 9.99 11.1476C9.85352 11.2416 9.7547 11.3168 9.69353 11.3734L9.35001 11.6746C9.22059 11.7813 9.07832 11.8714 8.92649 11.9427C8.89356 11.9616 8.89356 11.9851 8.92649 12.004C9.0065 12.0604 9.0912 12.0934 9.19472 12.1074L10.3194 12.9074L10.757 13.3591C10.79 13.3875 10.8182 13.4063 10.8417 13.4063C10.8699 13.4063 10.8888 13.392 10.8936 13.3639L11.3028 11.8768C11.3118 11.8423 11.3084 11.8058 11.2934 11.7734C11.2794 11.7405 11.2888 11.7168 11.3218 11.6981C11.3417 11.6858 11.3593 11.6698 11.3735 11.651C11.4064 11.6087 11.397 11.5945 11.3452 11.5993C11.2729 11.6073 11.2052 11.6387 11.1524 11.6887L10.4465 11.9239C10.4182 11.9286 10.3994 11.9239 10.3853 11.8957C10.3758 11.8722 10.3805 11.8298 10.4041 11.7734H10.5312C10.5234 11.7834 10.517 11.7945 10.5123 11.8063C10.4982 11.8346 10.5123 11.8439 10.5358 11.8393C10.5781 11.8294 10.6179 11.811 10.6528 11.7851C10.6876 11.7591 10.7166 11.7263 10.7381 11.6887C10.8182 11.5898 10.9264 11.5145 11.0535 11.4627C11.0676 11.4627 11.0723 11.4533 11.0676 11.4393L11.0535 11.4016C11.0488 11.3875 11.0393 11.3827 11.0206 11.3875L10.6629 11.5287C10.6375 11.5383 10.6099 11.5416 10.5829 11.5381C10.5013 11.5248 10.4177 11.5296 10.3382 11.5522C10.2912 11.5192 10.2912 11.4769 10.3523 11.4251C10.3711 11.4111 10.3711 11.4016 10.3476 11.3922C10.3419 11.3889 10.3354 11.3871 10.3288 11.3871C10.3221 11.3871 10.3157 11.3889 10.3099 11.3922C10.2206 11.4393 10.1265 11.4675 10.0276 11.4863C10.037 11.4722 10.0323 11.458 10.0276 11.4393C10.0276 11.4157 10.0323 11.3969 10.0559 11.3875L10.1547 11.331C10.6566 11.1549 11.1469 10.9475 11.6228 10.7099C11.6982 10.6722 11.7405 10.6251 11.7546 10.5687C11.7875 10.4417 11.8252 10.3099 11.877 10.1734C11.9052 10.1405 11.924 10.0887 11.924 10.0181C11.924 9.95699 11.9382 9.90989 11.9617 9.87694V9.84873C11.9552 9.84302 11.9468 9.83961 11.9382 9.83928C11.9288 9.83631 11.9186 9.83709 11.9098 9.84148C11.901 9.84587 11.8943 9.85355 11.891 9.86289C11.8441 9.96171 11.7499 10.004 11.6087 9.98048C11.6366 9.93085 11.6794 9.89121 11.7311 9.8675C11.7242 9.86377 11.7178 9.85905 11.7123 9.85345C11.7087 9.85136 11.7047 9.85026 11.7006 9.85026C11.6964 9.85026 11.6923 9.85136 11.6887 9.85345L11.3311 9.96171L10.9547 10.0746L10.6959 10.0981L10.6488 10.0746C10.7122 10.0515 10.7678 10.0107 10.8088 9.95699C10.8229 9.93338 10.8182 9.90989 10.79 9.90516C10.6959 9.87222 10.5877 9.87222 10.4606 9.90044L10.2912 9.88638C10.2582 9.84872 10.2441 9.81579 10.263 9.78755C10.2723 9.76872 10.2959 9.74991 10.3336 9.74049C10.9547 9.52873 11.5806 9.32639 12.2111 9.13346C12.4247 9.05841 12.6261 8.95216 12.8087 8.81818C12.8323 8.80877 12.8557 8.80406 12.8745 8.80877L12.9922 8.837H13.0722C13.2698 8.77583 13.4722 8.74289 13.684 8.7523C13.9428 8.7523 14.2063 8.70053 14.4651 8.58289C14.6533 8.49819 14.804 8.44172 14.9263 8.4229L15.3497 8.35702C15.6227 8.30996 15.8203 8.28173 15.9521 8.25349C16.4604 8.15467 16.9732 8.06526 17.4815 8.00409C17.5191 8.02762 17.5567 8.00879 17.5991 7.95233C17.6133 7.92409 17.632 7.92409 17.6508 7.95233C17.6603 7.96644 17.6697 7.98997 17.6697 8.02291Z" fill="#E645F4"/>
<path d="M17.6706 8.02357C17.713 8.02357 17.7552 8.02357 17.807 8.01416C17.8493 8.01416 17.8917 8.01416 17.9341 8.02357L18.4988 8.16474C18.7152 8.2165 18.8846 8.30591 19.0163 8.43297L18.1364 8.18357C18.0064 8.15731 17.8736 8.14782 17.7411 8.15533C17.7035 8.15533 17.6753 8.14591 17.6611 8.1318C17.6329 8.10827 17.6376 8.07063 17.6706 8.02357Z" fill="#E32262"/>
<path d="M6.91831 8.48433L10.4711 8.47021H13.8498C13.8734 8.53609 13.8404 8.57374 13.7463 8.57845C13.478 8.59256 13.2569 8.6208 13.0875 8.66315C13.0231 8.68039 12.9557 8.68257 12.8905 8.66952C12.8252 8.65646 12.7638 8.62851 12.711 8.58786C12.6875 8.56903 12.664 8.57374 12.6545 8.60668L12.6169 8.68668C12.6117 8.69937 12.604 8.71088 12.5944 8.72057C12.5846 8.73027 12.5731 8.73793 12.5604 8.74315L12.4052 8.82785C12.3111 8.87961 12.2357 8.91726 12.184 8.93137C11.5251 9.14313 10.8288 9.36901 10.0805 9.62311C10.0594 9.62952 10.0401 9.64081 10.0241 9.65605C10.0117 9.66787 9.99739 9.67742 9.98172 9.68429C9.96121 9.69397 9.93825 9.69725 9.91584 9.69369C9.65506 9.64174 9.39303 9.59624 9.12999 9.55723C9.03588 9.54312 8.94177 9.54782 8.85235 9.56665C8.82883 9.57135 8.80531 9.56665 8.79119 9.54782C8.7253 9.47253 8.7253 9.38783 8.79119 9.29371V9.2843L8.76765 9.2796C8.75825 9.27489 8.75353 9.2796 8.74884 9.28901C8.7253 9.40665 8.65943 9.50547 8.56061 9.58075C8.50414 9.51488 8.51354 9.43018 8.59355 9.32664C8.62648 9.28429 8.61236 9.26548 8.55589 9.26548C8.49002 9.27019 8.44767 9.29371 8.42885 9.34076C8.42459 9.34976 8.42278 9.35972 8.4236 9.36963C8.42444 9.37955 8.42786 9.38908 8.43355 9.39723L8.49942 9.49135C8.51354 9.50547 8.50885 9.51959 8.48532 9.52428C8.46179 9.52428 8.43355 9.51018 8.4006 9.47724C8.33944 9.41136 8.3065 9.38783 8.28768 9.41606L8.20297 9.31724L8.3065 8.90314C8.3065 8.89373 8.3065 8.88432 8.29238 8.88432C8.28297 8.87961 8.27356 8.88432 8.27356 8.89373C8.21709 9.05843 8.1418 9.21372 8.04298 9.35018C8.00063 9.41606 7.98181 9.40665 7.98651 9.33136C8.00063 9.1196 8.05239 8.91726 8.1418 8.71962C8.15121 8.71021 8.1418 8.70079 8.13239 8.69609L8.11357 8.68668L8.09945 8.69138L7.75593 9.37371C7.82358 9.10315 7.89417 8.83334 7.96769 8.56433H7.96298C7.94887 8.56433 7.93945 8.56433 7.93945 8.57845C7.86416 8.77609 7.78887 8.9549 7.70417 9.1149C7.61008 9.28773 7.52832 9.46699 7.45947 9.65134C7.4553 9.66279 7.4484 9.67305 7.43939 9.68125C7.43037 9.68945 7.41951 9.69533 7.40772 9.69841L6.01953 10.0748L6.02423 9.34076L6.03365 8.52198C6.03365 8.49374 6.04777 8.47963 6.076 8.47963H6.91831V8.48433Z" fill="black"/>
<path d="M7.75472 9.37512L7.63238 9.77981C7.62841 9.79702 7.61969 9.81274 7.60721 9.82526C7.59474 9.83766 7.57899 9.84645 7.5618 9.8504C6.83686 10.0307 6.12599 10.2635 5.43482 10.5469L5.35483 10.5986C5.26541 10.5563 5.15248 10.5656 5.0113 10.6315C4.97366 10.6457 4.94543 10.6457 4.9266 10.6315C4.90308 10.6127 4.90777 10.5938 4.93131 10.5845L5.55246 10.2504C5.71245 10.2269 5.86774 10.1704 6.01832 10.0763L7.40651 9.69982C7.43003 9.6904 7.44886 9.67629 7.45826 9.65276L7.49121 9.56806C7.5712 9.37512 7.63709 9.22454 7.69825 9.11632C7.78767 8.96103 7.86295 8.7775 7.93354 8.57986C7.93824 8.56575 7.94766 8.56104 7.96177 8.56104L7.96648 8.56575V8.58457L7.75472 9.37512Z" fill="#E32262"/>
<path d="M14.7851 8.96026C14.8933 8.93674 14.9781 8.89908 14.9734 8.88027C14.9687 8.86144 14.8792 8.86615 14.7663 8.88968C14.658 8.9132 14.5781 8.95086 14.5781 8.96967C14.5874 8.99321 14.6769 8.9885 14.7851 8.96026Z" fill="#AB8A67"/>
<path d="M15.4353 9.16689L15.1906 9.35982C15.1674 9.37981 15.14 9.39428 15.1107 9.40218C14.4801 9.53864 13.9907 9.69393 13.6519 9.86338C13.5812 9.89632 13.5107 9.91982 13.4353 9.93859C13.411 9.9431 13.3891 9.95649 13.3742 9.97625C13.3648 9.99042 13.3648 9.99975 13.3695 10.0045C13.3224 10.0798 13.3036 10.1362 13.3036 10.1739C13.2488 10.2175 13.1841 10.2471 13.1152 10.2603C13.0464 10.2734 12.9754 10.2696 12.9083 10.2492C12.8753 10.2445 12.8613 10.221 12.8613 10.1881C12.8672 10.1591 12.882 10.1328 12.9036 10.1127C12.9272 10.0845 12.946 10.0892 12.9554 10.1222L12.9742 10.1551C12.9884 10.1881 13.0025 10.1881 13.0118 10.1551L13.0684 10.0139C13.0784 9.98669 13.0848 9.95814 13.0872 9.92926C13.0966 9.85394 13.1388 9.80216 13.2189 9.77393C13.3742 9.71275 13.5248 9.65158 13.6707 9.5857C13.873 9.49158 14.193 9.38806 14.6401 9.27042C14.8142 9.22336 14.9412 9.19042 15.0212 9.16218C15.0636 9.15277 15.1152 9.11513 15.1765 9.06807C15.2236 9.01631 15.2706 8.98337 15.3036 8.97396C15.437 8.91245 15.5805 8.87578 15.7271 8.86572C15.5576 8.9269 15.4071 9.01631 15.2706 9.12924C15.2517 9.14336 15.2517 9.15277 15.28 9.15748L15.4353 9.16689ZM18.3717 9.12454L18.3669 9.16218C18.3669 9.1763 18.3528 9.19042 18.3388 9.19512C18.3199 9.20454 18.3104 9.19512 18.3104 9.18101L17.7175 9.14807C17.6893 9.14807 17.6705 9.16218 17.6611 9.19512L17.6187 9.34571C17.6141 9.36453 17.6047 9.36453 17.5952 9.35041C17.5896 9.34678 17.5847 9.34195 17.5811 9.3363C17.5811 9.32688 17.5717 9.32218 17.5623 9.32218C17.5246 9.32218 17.4963 9.341 17.4823 9.36924C17.4729 9.40218 17.454 9.40688 17.4352 9.37865C17.4267 9.36007 17.4138 9.34389 17.3975 9.33159C17.3506 9.29865 17.3317 9.30806 17.3506 9.36924L17.3599 9.38806C17.3646 9.41628 17.3835 9.4257 17.407 9.421C17.454 9.40688 17.5011 9.41159 17.5435 9.43982C17.5717 9.45864 17.5811 9.48688 17.5717 9.5151C17.5647 9.54595 17.5463 9.57293 17.5199 9.5904C17.5095 9.59721 17.5007 9.60623 17.4943 9.61681C17.4878 9.62738 17.4836 9.63924 17.4823 9.65158C17.476 9.70575 17.4601 9.75837 17.4352 9.80684C17.3646 9.86338 17.3082 9.93387 17.2705 10.0186C17.2596 10.0389 17.2532 10.0615 17.2517 10.0845C17.2517 10.1127 17.2423 10.1315 17.2188 10.1362C17.1717 10.1504 17.167 10.1739 17.2047 10.1974C17.2376 10.221 17.2611 10.2257 17.2752 10.221L17.1246 10.6162C17.1152 10.6398 17.1011 10.6492 17.0776 10.6492C17.0305 10.6492 17.0023 10.668 16.9788 10.7104C16.9552 10.7574 16.9646 10.7574 16.9976 10.7244C17.0541 10.668 17.1011 10.6586 17.134 10.6915C17.0824 10.7668 17.04 10.8609 17.0117 10.9739C16.9646 11.0303 16.9269 11.068 16.894 11.068C16.872 11.0721 16.8492 11.07 16.8284 11.0617C16.8075 11.0533 16.7895 11.0393 16.7765 11.0209C16.7624 11.0022 16.7541 10.9798 16.7524 10.9565C16.7507 10.933 16.7558 10.9097 16.767 10.8891C16.8611 10.6822 16.9505 10.4656 17.0258 10.2351C17.0405 10.1953 17.0668 10.1609 17.1011 10.1362C17.1293 10.1127 17.1293 10.0892 17.1011 10.0704L17.0212 10.0139C17.2517 9.92926 17.3176 9.79275 17.2188 9.61393C17.2752 9.54805 17.2893 9.48217 17.2658 9.41629C17.2517 9.39276 17.247 9.36924 17.247 9.35982C17.2517 9.33159 17.2705 9.31277 17.294 9.31747C17.3411 9.31747 17.3506 9.30336 17.3412 9.26571L17.3364 9.23277C17.3364 9.18571 17.3599 9.15277 17.3928 9.12924C17.4399 9.0963 17.4682 9.05866 17.4869 9.0069C17.4916 8.99146 17.5009 8.97781 17.5135 8.96774C17.5261 8.95766 17.5415 8.95163 17.5575 8.95043C17.8493 8.92219 18.1222 8.97866 18.3717 9.12454ZM16.2306 9.20454L15.9858 9.26571C15.7748 9.29671 15.5646 9.3328 15.3553 9.37394V9.36453C15.3553 9.35512 15.36 9.34571 15.3742 9.341C15.5482 9.26571 15.7176 9.16689 15.8823 9.05866C15.9906 9.0116 16.1129 8.99278 16.2399 9.0069C16.2682 9.0069 16.2823 9.02572 16.2823 9.05395C16.2823 9.10101 16.2635 9.15277 16.2306 9.20454Z" fill="#DBF127"/>
<path d="M15.8827 9.05469C15.718 9.16763 15.5486 9.26645 15.3745 9.34173C15.3604 9.34644 15.3556 9.35585 15.3556 9.36527V9.37467C15.3604 9.38408 15.3651 9.38408 15.3745 9.38408C15.5722 9.33704 15.7791 9.30409 15.9863 9.26645C15.9533 9.44055 15.9109 9.57231 15.8687 9.66173C15.6663 10.0476 15.5109 10.4382 15.3886 10.8382C15.3745 10.8946 15.3651 10.9464 15.3698 11.0029C15.3698 11.0734 15.3556 11.1394 15.3228 11.2005C15.2851 11.257 15.2992 11.2946 15.3698 11.304C15.3886 11.3087 15.4075 11.304 15.4263 11.2851C15.4451 11.2711 15.4498 11.2758 15.4451 11.2993V11.3275C15.2333 11.5393 14.9557 11.7041 14.6075 11.8169C14.4996 11.8588 14.3982 11.916 14.3063 11.9863C14.2122 12.0522 14.1369 12.0993 14.0805 12.1276C14.0544 12.1392 14.033 12.1591 14.0193 12.184C13.9535 12.2875 13.798 12.3769 13.5439 12.4522C13.497 12.4616 13.497 12.4757 13.5439 12.4851C13.5772 12.4982 13.6143 12.4982 13.6475 12.4851C13.7651 12.4239 13.8781 12.4005 13.9769 12.4239L13.7935 12.5652L13.6334 12.6216C13.6004 12.6311 13.6004 12.6451 13.6334 12.6546C13.6523 12.664 13.671 12.664 13.6899 12.6546C13.7275 12.6357 13.7369 12.6499 13.7322 12.6875C13.7322 12.7063 13.7181 12.7204 13.6992 12.7299C13.5111 12.8193 13.2993 12.8851 13.0688 12.9228L12.2217 12.9086C12.2453 12.7534 12.3111 12.6546 12.4146 12.6216C12.429 12.617 12.442 12.6091 12.4527 12.5984C12.4634 12.5878 12.4712 12.5747 12.4758 12.5605C12.5134 12.4569 12.5229 12.3534 12.4899 12.2499C12.4873 12.2403 12.4876 12.2302 12.491 12.221C12.4943 12.2116 12.5005 12.2036 12.5088 12.1981C12.5181 12.1909 12.5298 12.1876 12.5417 12.1887C12.5557 12.1887 12.5652 12.1981 12.5652 12.2122C12.5652 12.2216 12.5652 12.2311 12.5746 12.2358C12.5887 12.2593 12.6029 12.2546 12.6076 12.2311C12.7017 11.9346 12.8098 11.6522 12.9463 11.3746C12.9605 11.3464 12.9792 11.3275 13.0122 11.3181C13.3199 11.2107 13.629 11.1071 13.9392 11.0076C14.0899 10.9605 14.231 10.8946 14.3722 10.8194C14.3816 10.8194 14.3816 10.8099 14.3722 10.8005L14.358 10.7817H14.3534C14.3223 10.8051 14.284 10.8167 14.2451 10.8146C14.1981 10.8146 14.1981 10.8052 14.2404 10.7911C14.4992 10.697 14.7487 10.6311 14.9886 10.5794C15.0404 10.5699 15.0404 10.5605 14.9886 10.5559C14.7066 10.5391 14.4242 10.5759 14.1558 10.664C14.1181 10.6358 14.1558 10.6028 14.2734 10.5652C14.4051 10.5417 14.5227 10.4946 14.6262 10.4335C14.6499 10.4194 14.6499 10.4099 14.6262 10.4052C14.5463 10.3864 14.4805 10.3582 14.4146 10.3206L14.6969 10.2923C14.7204 10.2923 14.7251 10.2782 14.711 10.2594C14.7063 10.25 14.6969 10.2452 14.6828 10.2405C14.4402 10.2234 14.1996 10.1873 13.9627 10.1322L14.1181 10.0382C14.1463 10.0146 14.1416 10.0052 14.1086 10.0052H13.3652C13.3605 10.0005 13.3652 9.99115 13.3698 9.97699C13.3848 9.95723 13.4066 9.94383 13.4311 9.93933C13.5063 9.92056 13.5769 9.89233 13.6428 9.86412C13.9863 9.69466 14.4758 9.53468 15.1016 9.40291C15.1328 9.39569 15.1617 9.38118 15.1862 9.36056L15.431 9.16763L15.878 9.05469H15.8827Z" fill="black"/>
<path d="M19.5382 9.03418C19.6981 9.14241 19.7734 9.33534 19.764 9.61297C19.7584 9.98299 19.6365 10.3418 19.4159 10.6389C19.4047 10.6526 19.3967 10.6687 19.3923 10.6859L19.3876 10.7518H19.3405L18.9452 11.1141C18.7381 11.2223 18.5828 11.3493 18.4793 11.4905C18.3873 11.5057 18.302 11.5483 18.2347 11.6128C18.2089 11.6431 18.1767 11.6672 18.1406 11.6835C17.7311 11.8435 17.3971 12.0176 17.1383 12.2058C17.0347 12.2811 16.9312 12.3235 16.823 12.3375C16.8088 12.3375 16.8041 12.3375 16.8041 12.3235V12.2906C16.8041 12.2717 16.7947 12.267 16.7806 12.2623C16.7712 12.2623 16.7617 12.2623 16.7524 12.2717C16.7383 12.2811 16.7336 12.2953 16.743 12.3093L16.7617 12.333C16.7994 12.3611 16.7947 12.3799 16.7524 12.3894C16.5548 12.4458 16.423 12.5305 16.3759 12.6529C16.2301 12.9776 16.1029 13.3116 15.9995 13.6551L15.9053 13.6316C15.9948 13.4105 16.0277 13.2128 16.0136 13.0387C16.0089 12.8505 16.056 12.6669 16.1548 12.4976C16.2065 12.4034 16.2913 12.3235 16.4041 12.2623C16.4136 12.2576 16.5171 12.2152 16.7148 12.1494C16.8842 12.0882 17.0441 11.9799 17.1994 11.8199C17.2606 11.8294 17.2935 11.8859 17.2842 11.9799C17.2842 12.0505 17.2842 12.0505 17.303 11.9799L17.3264 11.9329C17.3369 11.9142 17.3514 11.8981 17.3688 11.8858C17.51 11.7917 17.6653 11.7164 17.83 11.6552C17.9712 11.6035 18.0747 11.5235 18.1359 11.4152C18.1474 11.3959 18.1636 11.3797 18.1829 11.3682C18.4653 11.1988 18.7146 10.9917 18.9217 10.7424C19.4393 10.3471 19.6464 9.78238 19.5382 9.03889V9.03418Z" fill="#DBF127"/>
<path d="M8.49373 9.12913C8.50512 9.11504 8.51962 9.10376 8.53608 9.09619C8.58314 9.08208 8.58784 9.09619 8.55961 9.13383C8.55204 9.14365 8.5424 9.15168 8.53137 9.15737C8.45139 9.19501 8.38079 9.23737 8.31491 9.29383C8.25375 9.34089 8.23962 9.32676 8.26785 9.26089C8.30079 9.1809 8.35726 9.14325 8.43255 9.14796C8.45608 9.14796 8.47961 9.14325 8.49373 9.12443V9.12913ZM18.371 9.12443C18.5122 9.46795 18.4651 9.79263 18.2251 10.0938C17.9063 10.4891 17.4869 10.7914 17.0111 10.969C17.0393 10.8608 17.0817 10.7667 17.1334 10.6914C17.5537 10.4839 17.9171 10.177 18.1922 9.79734C18.2486 9.71735 18.2862 9.515 18.3098 9.1856C18.3098 9.19972 18.3192 9.20442 18.3381 9.19501C18.3452 9.19258 18.3517 9.18823 18.3566 9.18243C18.3617 9.17662 18.365 9.1696 18.3663 9.16207V9.12443H18.371Z" fill="#E32262"/>
<path d="M19.3741 9.27558C19.3741 9.36028 19.3835 9.43087 19.4023 9.43087C19.4212 9.43087 19.4447 9.36499 19.4494 9.28029C19.4494 9.19558 19.44 9.125 19.4212 9.125C19.4023 9.125 19.3788 9.19089 19.3741 9.27558ZM17.2659 9.20029C17.2659 9.23794 17.2471 9.25205 17.2095 9.24735C17.1813 9.24264 17.1718 9.22852 17.1813 9.20029C17.186 9.18397 17.195 9.16921 17.2074 9.15761C17.2198 9.14601 17.2352 9.13799 17.2518 9.13442C17.2612 9.13442 17.2706 9.13442 17.2801 9.14382C17.2989 9.16735 17.2942 9.18147 17.2706 9.19088L17.2659 9.20029Z" fill="#AB8A67"/>
<path d="M18.3108 9.18064C18.2874 9.51003 18.2497 9.71708 18.1932 9.79237C17.9187 10.1737 17.5553 10.4823 17.1344 10.6911C17.1015 10.6581 17.0545 10.6676 16.9932 10.7241C16.965 10.757 16.9556 10.7524 16.9792 10.71C17.0027 10.6629 17.0356 10.6441 17.0827 10.6489C17.1015 10.6489 17.1156 10.6394 17.125 10.6159L17.2756 10.2206C17.3697 10.1029 17.4215 9.96182 17.4403 9.80646C17.4591 9.75943 17.478 9.71237 17.4827 9.6512C17.4827 9.62296 17.4967 9.60414 17.5203 9.59002C17.5439 9.57121 17.5674 9.54298 17.5721 9.51473C17.5815 9.48179 17.5721 9.45826 17.5439 9.43944C17.5247 9.42642 17.503 9.41794 17.4802 9.41468C17.4574 9.41142 17.4339 9.41345 17.4121 9.42062C17.3839 9.42532 17.365 9.42062 17.3603 9.38769L17.351 9.36886C17.332 9.30768 17.351 9.29827 17.3979 9.33122C17.4168 9.34062 17.4309 9.35945 17.4403 9.37827C17.4543 9.4065 17.4733 9.40179 17.4873 9.37357C17.4967 9.34062 17.525 9.3265 17.5627 9.3265C17.5721 9.3265 17.5815 9.3265 17.5815 9.33592C17.5815 9.34062 17.5862 9.35003 17.5956 9.35003C17.6051 9.36415 17.6145 9.36415 17.6191 9.35003L17.6615 9.19005C17.6709 9.16181 17.6897 9.14298 17.7179 9.14769L18.3108 9.18064Z" fill="black"/>
<path d="M16.23 9.20459C16.1109 9.55015 15.9744 9.88945 15.8206 10.221C15.6889 10.5034 15.5948 10.8657 15.5289 11.3033C15.5289 11.341 15.5383 11.3693 15.5759 11.3833C15.6088 11.4021 15.6135 11.4304 15.5854 11.4586C15.4254 11.6422 15.2465 11.774 15.0488 11.8539C14.6395 12.0139 14.3712 12.1598 14.2348 12.2774C14.1219 12.3762 14.0372 12.4233 13.976 12.4233C13.8772 12.3998 13.7642 12.4233 13.6466 12.4845C13.6133 12.4975 13.5763 12.4975 13.543 12.4845C13.4961 12.4751 13.4961 12.461 13.543 12.4515C13.7971 12.3762 13.9525 12.2868 14.0137 12.1833C14.0325 12.1551 14.0513 12.1363 14.0796 12.1268C14.136 12.0986 14.2113 12.0515 14.3054 11.9856C14.4277 11.8963 14.5265 11.8444 14.6066 11.8162C14.9211 11.7184 15.2082 11.5474 15.4442 11.3174C15.442 11.3113 15.442 11.3047 15.4442 11.2986C15.4489 11.2751 15.4442 11.2704 15.4254 11.2845C15.4174 11.2922 15.4077 11.298 15.397 11.3013C15.3864 11.3045 15.3752 11.3052 15.3642 11.3033C15.2983 11.2939 15.2842 11.2562 15.3171 11.1998C15.3521 11.1401 15.3685 11.0712 15.3642 11.0022C15.3642 10.9458 15.3736 10.8939 15.3877 10.8327C15.51 10.4375 15.6701 10.0469 15.8677 9.65632C15.9147 9.57162 15.9524 9.43987 15.9853 9.26576L16.23 9.20459Z" fill="#E32262"/>
<path d="M6.02335 9.34082L6.01864 10.0749C5.86806 10.169 5.71277 10.2255 5.55278 10.249L5.18573 10.2114C5.1575 10.2114 5.13867 10.1926 5.13867 10.1643V9.44435C5.13867 9.38317 5.17161 9.35494 5.22808 9.35023L6.02335 9.34082Z" fill="white"/>
<path d="M8.20177 9.31738L8.28648 9.4162L8.23001 9.55737C8.16883 9.53856 8.15942 9.45855 8.20177 9.31738Z" fill="#E32262"/>
<path d="M8.40059 9.48231L8.33001 9.58113C8.25473 9.69407 8.18885 9.75995 8.12767 9.77877C8.09944 9.78818 8.09003 9.77877 8.10413 9.75054C8.12767 9.68466 8.17002 9.62348 8.23119 9.5576L8.28766 9.41643C8.30177 9.3882 8.33943 9.41173 8.40059 9.48231Z" fill="#DBF127"/>
<path d="M17.2188 9.61426C17.3129 9.79307 17.2517 9.92959 17.0211 10.0142L16.9129 9.96714C16.8564 9.94836 16.8564 9.92959 16.9176 9.92015L17.0117 9.9107C17.0446 9.90598 17.0634 9.88721 17.0681 9.86371C17.0916 9.75543 17.1387 9.67544 17.2188 9.61426Z" fill="#AB8A67"/>
<path d="M19.3643 9.83027C19.3785 9.78317 19.3879 9.7267 19.3832 9.67023C19.3832 9.65142 19.3927 9.642 19.4114 9.64671H19.4396C19.4443 9.65142 19.4491 9.65611 19.4443 9.66554C19.3787 9.92361 19.2636 10.1665 19.1055 10.3808C19.0962 10.3903 19.082 10.3949 19.0679 10.3808L19.0491 10.3666C19.0396 10.3619 19.0396 10.3526 19.0491 10.3432C19.1526 10.2161 19.2232 10.0796 19.2609 9.93371C19.2702 9.90549 19.2891 9.88671 19.3079 9.87255L19.3361 9.86322C19.3429 9.86003 19.3489 9.85553 19.3539 9.84983C19.3587 9.84411 19.3623 9.83741 19.3643 9.83027Z" fill="#DBF127"/>
<path d="M17.44 9.80615C17.4254 9.95702 17.3684 10.1006 17.2753 10.2203C17.2612 10.225 17.2376 10.2203 17.2048 10.1967C17.1671 10.1732 17.1671 10.1497 17.2189 10.1355C17.2424 10.1308 17.2518 10.1121 17.2518 10.0886C17.2518 10.0603 17.2612 10.0415 17.2706 10.018C17.3083 9.93319 17.3647 9.8627 17.44 9.80615ZM11.6144 9.9803C11.5228 9.97579 11.4321 10.0005 11.3556 10.0509C11.3649 10.0085 11.3556 9.98029 11.332 9.96151L11.6896 9.84853L11.7132 9.85325L11.732 9.86731C11.682 9.89191 11.6408 9.93132 11.6144 9.9803Z" fill="#AB8A67"/>
<path d="M11.8774 10.1736L11.628 10.3054V10.263C11.628 10.2301 11.6139 10.2301 11.5903 10.2537C11.5573 10.3007 11.5198 10.3007 11.4727 10.2772C11.4445 10.263 11.4445 10.249 11.4727 10.2348C11.4853 10.229 11.4989 10.2259 11.5127 10.2259C11.5265 10.2259 11.5402 10.229 11.5528 10.2348C11.5606 10.2377 11.5693 10.2382 11.5776 10.2366C11.5858 10.2349 11.5935 10.2311 11.5997 10.2255C11.6106 10.2158 11.6174 10.2023 11.6186 10.1878C11.6233 10.1549 11.6092 10.1407 11.5809 10.1407C11.5009 10.1407 11.435 10.1502 11.3786 10.1736C11.207 10.2422 11.0262 10.2849 10.8422 10.3007C10.8202 10.3022 10.7983 10.2955 10.781 10.2819C10.7433 10.249 10.748 10.2348 10.7951 10.2348L10.9269 10.2255C10.9504 10.2255 10.9692 10.2113 10.9739 10.1831C10.9881 10.1549 10.9786 10.1219 10.9598 10.0748L11.3315 9.96195C11.3551 9.98073 11.3645 10.009 11.3551 10.0513C11.4962 10.0748 11.5762 10.0513 11.6139 9.98074C11.7504 10.0042 11.8445 9.96196 11.8962 9.86314C11.8994 9.85479 11.9053 9.84788 11.9131 9.84359C11.9208 9.83931 11.9299 9.83789 11.9386 9.83953L11.9573 9.84897C11.9668 9.85841 11.9668 9.86775 11.9573 9.87719C11.933 9.92001 11.9215 9.9691 11.9244 10.0184C11.9244 10.089 11.9056 10.1407 11.8774 10.1736ZM13.0444 9.97601C13.035 9.9949 13.0209 10.0042 12.9974 10.0042C12.9832 10.0042 12.9692 9.9949 12.9597 9.97601C12.9492 9.94878 12.9492 9.91859 12.9597 9.89136C12.9692 9.87247 12.9832 9.86314 13.0067 9.86314C13.0538 9.86775 13.0633 9.91013 13.0444 9.97601Z" fill="#DBF127"/>
<path d="M10.2961 9.88281L10.4608 9.90159L10.3243 9.99579L10.249 9.90159C10.2625 9.89148 10.2792 9.88643 10.2961 9.88753V9.88281Z" fill="#696868"/>
<path d="M10.6446 10.0752C10.6258 10.0799 10.607 10.0657 10.5882 10.0375C10.5762 10.0209 10.5607 10.0073 10.5428 9.99756C10.525 9.98778 10.505 9.98219 10.4846 9.98109C10.4375 9.98109 10.4329 9.99526 10.4752 10.0235L10.5976 10.1034C10.5834 10.1505 10.5834 10.1882 10.5976 10.2022C10.8328 10.4375 10.8328 10.687 10.6117 10.9646L10.3199 11.2516C10.2964 11.2751 10.2728 11.2704 10.2588 11.2516C10.2526 11.2454 10.2479 11.2381 10.2446 11.23C10.2414 11.222 10.2398 11.2132 10.2399 11.2046C10.2399 11.1716 10.2588 11.1434 10.2964 11.1245C10.4422 11.0022 10.5647 10.8704 10.6588 10.7245C10.7058 10.6493 10.7058 10.6446 10.6352 10.7057C10.5223 10.814 10.4 10.9458 10.2728 11.1058C10.1552 11.1669 10.1129 11.2423 10.1552 11.3316L10.0564 11.388C10.0329 11.3975 10.0282 11.4163 10.0329 11.4351V11.4916L9.92466 11.5246C9.90069 11.5332 9.87841 11.5459 9.85878 11.5622L9.19527 12.108C9.09175 12.094 9.00705 12.061 8.92704 12.0046C8.89411 11.9857 8.89411 11.9622 8.92704 11.9433L9.03058 11.8869C9.17646 11.8022 9.28469 11.7316 9.35056 11.6752L9.69409 11.374C9.75525 11.3175 9.85407 11.2423 9.99055 11.1481C10.2208 11.0087 10.413 10.8148 10.5505 10.5834C10.6446 10.3811 10.5693 10.1834 10.3247 9.99526L10.4611 9.90104C10.5882 9.87283 10.6965 9.87283 10.7906 9.90104C10.8188 9.91521 10.8235 9.93399 10.8094 9.95759C10.767 10.012 10.7098 10.0529 10.6446 10.0752Z" fill="#DBF127"/>
<path d="M10.6453 10.0761L10.6971 10.0996C10.65 10.109 10.617 10.1138 10.6029 10.1043L10.4758 10.0244C10.4289 9.99617 10.4336 9.98201 10.4853 9.98673C10.5053 9.98729 10.5249 9.99211 10.5428 10.0011C10.5607 10.01 10.5764 10.0227 10.5888 10.0385C10.6076 10.0667 10.6265 10.0808 10.6453 10.0761Z" fill="#696868"/>
<path d="M11.6143 9.98145C11.5767 10.052 11.4919 10.0755 11.3555 10.052C11.4119 10.0049 11.4966 9.98617 11.6143 9.98145Z" fill="#E645F4"/>
<path d="M13.9625 10.1319L13.3037 10.1743C13.3037 10.1366 13.3273 10.0802 13.3695 10.0049H14.1084C14.1414 10.0049 14.1461 10.0143 14.1178 10.0331L13.9625 10.1319Z" fill="#E32262"/>
<path d="M11.6938 10.0939C11.7233 10.0795 11.7553 10.0715 11.788 10.0703C11.8021 10.0703 11.8116 10.075 11.8116 10.0892V10.1174C11.8116 10.1269 11.8069 10.1315 11.7927 10.1362L11.7081 10.1503C11.6139 10.1551 11.6045 10.1362 11.6938 10.0939Z" fill="#696868"/>
<path d="M10.9597 10.0752C10.9785 10.1223 10.9879 10.1552 10.9785 10.1835C10.9763 10.1955 10.9698 10.2063 10.9604 10.2141C10.9509 10.2219 10.9389 10.2259 10.9268 10.2258L10.795 10.2305C10.7479 10.2352 10.7432 10.2493 10.7809 10.2823C10.7996 10.2963 10.8185 10.301 10.842 10.301C11.0261 10.2852 11.2068 10.2425 11.3784 10.174C11.4349 10.1505 11.5008 10.1411 11.5808 10.1411C11.6091 10.1411 11.6278 10.1552 11.6185 10.1882C11.6185 10.2022 11.6091 10.2164 11.5996 10.2258C11.5929 10.2307 11.585 10.2336 11.5768 10.2345C11.5684 10.2353 11.5601 10.234 11.5526 10.2305C11.5396 10.2253 11.5258 10.2231 11.512 10.2239C11.4983 10.2247 11.4848 10.2286 11.4726 10.2352C11.4444 10.2493 11.4444 10.2634 11.4726 10.2776C11.5196 10.3058 11.5572 10.2963 11.5902 10.2541C11.6138 10.2304 11.6231 10.2304 11.6325 10.2634V10.3058C11.6231 10.447 11.5856 10.5364 11.5102 10.5693C11.2278 10.7011 10.9221 10.8328 10.6114 10.9646C10.8373 10.6823 10.8325 10.4328 10.602 10.2022C10.5832 10.1882 10.5832 10.1552 10.602 10.1034C10.6161 10.1128 10.649 10.1081 10.6961 10.0987L10.9597 10.0752Z" fill="black"/>
<path d="M11.878 10.1733C11.8309 10.3145 11.7839 10.4416 11.7556 10.5733C11.7416 10.6251 11.6992 10.6722 11.6238 10.7146C11.1533 10.9499 10.6592 11.1568 10.1557 11.331C10.1133 11.2369 10.1557 11.1662 10.2733 11.1051C10.2451 11.1051 10.2498 11.1098 10.2969 11.1238C10.2592 11.1427 10.2451 11.171 10.2403 11.2039C10.2403 11.218 10.2451 11.2369 10.2592 11.2509C10.278 11.2698 10.2969 11.2745 10.3204 11.2509L10.6122 10.9639C10.9227 10.8322 11.2239 10.7003 11.5062 10.5686C11.5863 10.5357 11.6238 10.4463 11.6285 10.3051L11.878 10.1733Z" fill="#E32262"/>
<path d="M14.4146 10.3201C14.4805 10.3624 14.5464 10.386 14.6217 10.4048C14.65 10.4048 14.65 10.4189 14.6264 10.433C14.5228 10.4941 14.4052 10.5413 14.2734 10.5648C14.2876 10.4566 14.2734 10.4095 14.2263 10.4237C14.0459 10.4717 13.8618 10.5049 13.6758 10.5225C13.7511 10.4849 13.8687 10.4425 14.0334 10.3907L14.2218 10.3295C14.2834 10.3066 14.3509 10.3033 14.4146 10.3201Z" fill="#AB8A67"/>
<path d="M7.20935 10.6301L7.04935 10.7102L6.18822 10.9455C6.15528 10.9502 6.14116 10.9407 6.15528 10.9078C6.1741 10.8702 6.21645 10.8372 6.28704 10.7996C6.30586 10.7619 6.31527 10.7196 6.30586 10.6725C6.58819 10.5596 6.88465 10.5078 7.19054 10.522C7.22347 10.522 7.2423 10.536 7.24699 10.5502C7.24699 10.569 7.23758 10.5972 7.20935 10.6301ZM9.19515 10.7102L8.83753 10.729C8.65871 10.682 8.56459 10.7479 8.55518 10.9172C8.50813 10.9502 8.47989 11.0114 8.47048 11.0866C8.47048 11.1102 8.45636 11.1243 8.43754 11.1337C8.41401 11.1431 8.39989 11.1337 8.39989 11.1102V11.0207C8.4046 10.9831 8.39048 10.9737 8.35284 10.9972C8.34344 11.0031 8.33584 11.0115 8.33087 11.0215C8.32589 11.0315 8.32373 11.0426 8.3246 11.0536C8.3246 11.0819 8.3199 11.1102 8.30107 11.1337C8.27845 11.1588 8.26233 11.1891 8.25413 11.2219C8.24593 11.2548 8.2459 11.2891 8.25402 11.3219C8.22108 11.4066 8.17402 11.4396 8.12226 11.4349C8.08461 11.4254 8.0752 11.4067 8.09402 11.3784C8.1458 11.2796 8.18814 11.1761 8.23049 11.0725V11.0443C8.21167 11.0254 8.19755 11.0254 8.18343 11.0443L8.10343 11.1195C8.06579 11.1524 8.05167 11.1431 8.05638 11.096C8.06661 11.0336 8.09625 10.976 8.14108 10.9313C8.14735 10.9315 8.15363 10.9315 8.1599 10.9313C8.19284 10.9595 8.23049 10.9595 8.26813 10.9313C8.29166 10.9125 8.30578 10.8844 8.31049 10.856C8.33872 10.649 8.41401 10.536 8.54107 10.5266C8.77811 10.5106 9.01617 10.5184 9.25162 10.5502C9.28926 10.5502 9.30809 10.5737 9.3128 10.6114C9.31751 10.6443 9.30338 10.6678 9.26574 10.682L9.19044 10.7102H9.19515ZM12.2162 12.9077C12.1692 12.9736 12.1315 13.0583 12.1128 13.1618C12.1111 13.1753 12.1065 13.1883 12.0992 13.1997C12.0918 13.2111 12.0819 13.2207 12.0704 13.2277C11.9527 13.303 11.8256 13.4866 11.6938 13.7877L11.6751 13.8347C11.6751 13.8442 11.6657 13.8442 11.6609 13.8442C11.6516 13.8394 11.6469 13.8347 11.6516 13.8253C11.6798 13.7124 11.7081 13.5994 11.7268 13.4818C11.7409 13.416 11.7268 13.3689 11.6798 13.3359C11.6562 13.3265 11.6516 13.3124 11.6609 13.289C11.7081 13.1947 11.7786 13.1148 11.868 13.063C11.8795 13.0565 11.8896 13.0477 11.8977 13.0371C11.9059 13.0267 11.9117 13.0147 11.9151 13.0018C11.9621 12.8465 12.0232 12.696 12.0939 12.5454C12.1045 12.5252 12.1208 12.5089 12.141 12.4984C12.2728 12.4278 12.3291 12.3101 12.315 12.1501C12.315 12.0889 12.3386 12.0418 12.3903 12.0136C12.4123 12.0018 12.4303 11.9838 12.4421 11.9619C12.4844 11.8818 12.4751 11.8113 12.4138 11.7501C12.4046 11.7412 12.3979 11.7299 12.3946 11.7175C12.3913 11.705 12.3914 11.6919 12.3951 11.6795L12.5033 11.336C12.5066 11.325 12.5127 11.3148 12.5209 11.3067C12.5291 11.2984 12.5392 11.2923 12.5503 11.289C12.5927 11.2702 12.6491 11.2372 12.7291 11.1854C12.8233 11.1243 12.9033 11.0866 12.9645 11.0678C13.369 10.9548 13.7691 10.8184 14.155 10.6631C14.4373 10.5737 14.7196 10.5408 14.9831 10.5549C15.0397 10.5596 15.0397 10.569 14.9831 10.5784C14.7479 10.6254 14.4984 10.7008 14.2396 10.7901C14.1926 10.8043 14.1926 10.8137 14.2396 10.8137C14.2868 10.8137 14.3197 10.8043 14.3527 10.7808H14.3572L14.3714 10.7996C14.3808 10.809 14.3808 10.8137 14.3714 10.8184C14.2302 10.8936 14.0892 10.9595 13.9384 11.0067C13.6138 11.1102 13.3079 11.2137 13.0114 11.3171C12.9973 11.3218 12.9842 11.3291 12.9729 11.3389C12.9616 11.3486 12.9522 11.3604 12.9456 11.3737C12.809 11.6513 12.6962 11.9384 12.6068 12.2301C12.6021 12.2537 12.5879 12.2584 12.5739 12.2349C12.5681 12.2283 12.5648 12.2199 12.5644 12.2113C12.5644 12.1972 12.555 12.1877 12.541 12.1877C12.5291 12.1866 12.5174 12.19 12.508 12.1972C12.4998 12.2027 12.4935 12.2107 12.4903 12.2201C12.4868 12.2293 12.4865 12.2393 12.4891 12.2489C12.5174 12.3525 12.5127 12.456 12.4751 12.5596C12.4705 12.5738 12.4626 12.5868 12.4519 12.5976C12.4412 12.6082 12.4282 12.6161 12.4138 12.6207C12.3103 12.6536 12.2445 12.7524 12.2162 12.903V12.9077ZM5.94352 10.5879L5.99058 10.5832C6.03764 10.5737 6.05646 10.5879 6.05646 10.6301C6.05646 10.649 6.05175 10.6584 6.03764 10.6631C5.7647 10.8325 5.46824 10.9548 5.13884 11.0301C5.12767 11.0327 5.11595 11.031 5.1059 11.0254C5.0918 11.0161 5.0918 11.0067 5.0918 11.0019C5.36759 10.8508 5.65023 10.7127 5.93882 10.5879H5.94352Z" fill="#DBF127"/>
<path d="M7.21004 10.6313L7.25709 10.7725C7.26651 10.8008 7.26651 10.8242 7.25709 10.8525C7.13945 11.1207 7.04063 11.4078 6.96064 11.709C6.9144 11.8567 6.83948 11.9939 6.74016 12.1125C6.64083 12.2312 6.51906 12.3291 6.38183 12.4007C6.1089 12.5607 5.85009 12.7348 5.60539 12.9184C5.59216 12.9296 5.57564 12.9361 5.55833 12.9371L5.5348 12.9418C5.49716 12.9513 5.46422 12.9465 5.44069 12.9278C5.47363 12.8807 5.46892 12.8336 5.42188 12.8053L6.0289 12.3631C6.25107 12.2598 6.45213 12.1162 6.62182 11.9396C6.66887 11.8925 6.71122 11.8219 6.73946 11.7372C6.87123 11.3513 6.97474 11.0078 7.05003 10.7113L7.21004 10.6313Z" fill="#E32262"/>
<path d="M10.2969 11.1249C10.2498 11.1109 10.2451 11.1062 10.2733 11.1062C10.4005 10.9462 10.5228 10.8145 10.6357 10.7062C10.7015 10.645 10.7109 10.6498 10.6593 10.725C10.5652 10.8709 10.4427 11.0073 10.2969 11.1249Z" fill="black"/>
<path d="M6.30532 10.6733C6.31474 10.7204 6.30532 10.7627 6.28651 10.8004C6.23944 10.7816 6.20181 10.7533 6.19238 10.7345C6.20181 10.7204 6.20181 10.7109 6.19238 10.6968L6.30532 10.6733Z" fill="#AB8A67"/>
<path d="M7.04932 10.7109C6.97403 11.0074 6.87051 11.3509 6.73875 11.7368C6.71051 11.8215 6.67287 11.8874 6.6211 11.9392C6.44229 12.1226 6.24466 12.2638 6.02819 12.3627L6.02348 11.1392C6.0329 11.078 6.0329 10.998 6.02348 10.8992C6.00936 10.7909 6.07054 10.7392 6.19288 10.7345C6.20231 10.758 6.23995 10.7816 6.287 10.8004C6.21641 10.838 6.17406 10.8709 6.15524 10.9086C6.14113 10.9416 6.15524 10.9556 6.18819 10.9416L7.04932 10.7109ZM8.83749 10.7297C8.75278 10.8051 8.65867 10.8709 8.55514 10.918C8.56456 10.7486 8.65867 10.6828 8.83749 10.7297Z" fill="black"/>
<path d="M8.83759 10.7297L9.19051 10.7109V10.7392C9.18581 10.7533 9.1764 10.7674 9.16228 10.7769C8.92698 10.9368 8.6823 11.0874 8.43289 11.238C8.40937 11.252 8.39525 11.2475 8.38584 11.2145C8.38584 11.2098 8.38113 11.2051 8.37172 11.2098C8.36607 11.2112 8.3609 11.2142 8.35677 11.2184C8.35263 11.2224 8.34967 11.2276 8.34819 11.2333C8.33407 11.2992 8.30113 11.3274 8.25408 11.3274C8.24512 11.2939 8.24475 11.2587 8.25296 11.2249C8.26119 11.1912 8.27775 11.16 8.30113 11.1344C8.31996 11.111 8.32937 11.0828 8.32466 11.0544C8.32466 11.0262 8.33407 11.0074 8.3576 10.998C8.39054 10.9745 8.40466 10.984 8.40466 11.0215V11.111C8.40466 11.1392 8.41407 11.1439 8.4376 11.1344C8.4468 11.1303 8.45471 11.1237 8.46051 11.1155C8.46629 11.1072 8.46976 11.0975 8.47054 11.0874C8.47995 11.0074 8.50819 10.951 8.55054 10.918C8.65877 10.8709 8.75288 10.8098 8.83759 10.7297Z" fill="#E32262"/>
<path d="M18.9225 10.7437C18.7154 10.993 18.4708 11.2001 18.1884 11.3648C18.169 11.3763 18.1529 11.3926 18.1414 11.4119C18.0755 11.5248 17.972 11.6001 17.8307 11.6566C17.6661 11.7177 17.5108 11.7978 17.3696 11.8918C17.3504 11.9036 17.3343 11.9198 17.3225 11.939C17.3145 11.9538 17.3081 11.9696 17.3037 11.9859C17.2896 12.0518 17.2802 12.0518 17.2849 11.9812C17.2896 11.8871 17.2613 11.8307 17.2002 11.8166L17.8495 11.5201C17.9114 11.4916 17.9638 11.4459 18.0002 11.3883C18.0472 11.3319 18.0849 11.2942 18.113 11.2755C18.3625 11.0919 18.6308 10.9178 18.9225 10.7437Z" fill="#AB8A67"/>
<path d="M19.3877 10.7529L19.3688 11.0682C19.3688 11.0964 19.35 11.1152 19.3219 11.1199C19.1973 11.1429 19.0697 11.1429 18.9453 11.1199L19.3406 10.7576C19.3443 10.7556 19.3483 10.7544 19.3523 10.7544C19.3565 10.7544 19.3606 10.7556 19.3641 10.7576L19.3877 10.7529Z" fill="white"/>
<path d="M8.16042 10.9268H8.1416C8.1416 10.8892 8.15101 10.8516 8.17925 10.8187C8.19336 10.7998 8.20748 10.7951 8.2263 10.8045C8.23235 10.8064 8.23796 10.8094 8.24281 10.8135C8.24767 10.8175 8.25165 10.8224 8.25454 10.828C8.25867 10.8352 8.26084 10.8433 8.26084 10.8516C8.26084 10.8599 8.25867 10.868 8.25454 10.8752C8.23101 10.9081 8.20277 10.9221 8.16042 10.9268Z" fill="#AB8A67"/>
<path d="M6.02351 11.1392V12.3627L5.42118 12.8049C5.38353 12.7533 5.34118 12.8049 5.30353 12.9603L4.26829 12.932C4.24476 12.932 4.23535 12.918 4.23535 12.8944L4.27769 12.1038C4.27769 12.071 4.29652 12.0521 4.33416 12.0521H5.07295C5.1106 12.0521 5.12942 12.0333 5.12942 11.9956L5.14355 11.1956C5.14355 11.1627 5.16236 11.1439 5.19531 11.1439L6.02351 11.1392Z" fill="white"/>
<path d="M8.04708 11.3406C8.03766 11.3783 8.00943 11.3971 7.97178 11.4159C7.93414 11.43 7.92474 11.4159 7.93884 11.3829C7.95298 11.3534 7.97396 11.3276 8.00002 11.3077C8.06119 11.2606 8.07531 11.2748 8.04708 11.3453V11.3406ZM12.7058 11.2936C12.7151 11.2983 12.7198 11.3077 12.7151 11.3124L12.5646 11.6511C12.5316 11.7265 12.5034 11.7641 12.4845 11.7499C12.461 11.7407 12.4705 11.703 12.5034 11.6229L12.6539 11.2841C12.6539 11.2748 12.6634 11.2748 12.6681 11.2795L12.7104 11.2983L12.7058 11.2936Z" fill="#AB8A67"/>
<path d="M12.7199 11.543C12.748 11.474 12.7998 11.4174 12.8658 11.3829C12.894 11.3688 12.8987 11.3735 12.8798 11.3971C12.8213 11.4625 12.785 11.545 12.7763 11.6324C12.7763 11.6606 12.7623 11.6841 12.748 11.703C12.6916 11.7736 12.6539 11.8535 12.621 11.9429C12.6115 11.957 12.6023 11.9618 12.5881 11.957L12.5693 11.9523C12.5551 11.9476 12.5504 11.9383 12.5551 11.9241C12.6188 11.8011 12.6739 11.6737 12.7199 11.543ZM9.41174 11.7876C9.44468 11.7407 9.48703 11.6935 9.53409 11.6653C9.6767 11.5827 9.81207 11.4883 9.93877 11.3829L9.95289 11.3971C9.96701 11.4112 9.96231 11.4253 9.94819 11.4395C9.77408 11.5571 9.60467 11.6747 9.43998 11.7971C9.43193 11.8022 9.42519 11.8091 9.42028 11.8173C9.41539 11.8255 9.41245 11.8347 9.41174 11.8441C9.41174 11.877 9.39763 11.8912 9.36939 11.8959C9.27057 11.9146 9.17175 11.957 9.07293 12.023C9.06352 12.0277 9.05411 12.0277 9.0447 12.0182L9.03529 11.9994C9.02117 11.9758 9.02587 11.9618 9.0494 11.9523L9.3788 11.8206C9.39281 11.8131 9.40427 11.8017 9.41174 11.7876ZM10.3387 11.5523L9.73644 11.8065C9.72703 11.8065 9.72232 11.8159 9.72701 11.8253L9.73644 11.8488C9.99995 11.7547 10.2635 11.67 10.5363 11.5853C10.5647 11.5759 10.5693 11.5853 10.5505 11.6135C10.5363 11.6419 10.5081 11.6606 10.4752 11.6747C10.4235 11.6935 10.3953 11.7265 10.4046 11.7736C10.3811 11.83 10.3764 11.8677 10.3858 11.8959C10.4 11.9194 10.4187 11.9288 10.4423 11.9194L11.1482 11.6841C11.0446 11.7547 10.9129 11.8159 10.7717 11.863C10.7294 11.877 10.7105 11.9054 10.7152 11.9383C10.708 11.9386 10.7008 11.9404 10.6943 11.9437C10.6879 11.9469 10.6822 11.9514 10.6775 11.957C10.6023 11.9429 10.5599 11.957 10.5505 12.0088C10.5363 12.0701 10.5599 12.103 10.6211 12.103C10.6681 12.103 10.7152 12.0841 10.7482 12.0559L10.8611 11.9947L11.1105 11.9476L10.814 12.917L10.3199 12.9123L9.19057 12.1076L9.85878 11.5618L9.92467 11.5241L10.0329 11.4911C10.127 11.4677 10.2211 11.4395 10.3152 11.3923C10.3204 11.3899 10.326 11.3887 10.3317 11.3887C10.3374 11.3887 10.343 11.3899 10.3482 11.3923C10.3717 11.4018 10.3717 11.4112 10.3529 11.4253C10.2917 11.4771 10.287 11.5194 10.3387 11.5523Z" fill="black"/>
<path d="M10.7393 11.6903L10.5322 11.7797H10.4051C10.3958 11.7327 10.424 11.6951 10.4757 11.6763C10.5069 11.6647 10.5334 11.6432 10.551 11.6151C10.5698 11.5868 10.5652 11.5775 10.5322 11.5868C10.2638 11.6694 9.99714 11.7572 9.73225 11.8503L9.72754 11.8268C9.72754 11.8174 9.72755 11.8081 9.73696 11.8081L10.3392 11.5539C10.4146 11.5304 10.4946 11.5256 10.584 11.5398C10.6122 11.5398 10.6357 11.5398 10.664 11.5304L11.0217 11.3892C11.0404 11.3892 11.0499 11.3892 11.0546 11.4033L11.0686 11.441C11.0686 11.4551 11.0686 11.4598 11.0546 11.4645C10.9276 11.5162 10.8193 11.5916 10.7393 11.6903Z" fill="#DBF127"/>
<path d="M18.4806 11.4922L18.4947 12.918L16.7629 12.9275C16.7394 12.9275 16.7254 12.9368 16.7254 12.965V16.4097C16.7254 16.4708 16.6925 16.499 16.6312 16.499L15.9254 16.4896C15.8643 16.4896 15.8313 16.5179 15.8313 16.579L15.8171 17.3178C15.8171 17.3649 15.7983 17.3836 15.7559 17.3836L14.9937 17.4025C14.956 17.4025 14.9419 17.4213 14.9419 17.4543L14.9277 18.2119C14.9277 18.2401 14.9137 18.2542 14.8853 18.2542H14.1184C14.0713 18.2542 14.0431 18.2778 14.0431 18.3296L14.0573 19.0918C14.0573 19.1389 14.0337 19.1577 13.9914 19.1577H13.2054C13.1725 19.1624 13.1584 19.1766 13.1584 19.2048V19.9247C13.1584 19.9719 13.1349 19.9907 13.0925 19.9954L12.2831 20.0001C12.2738 20.0001 12.2643 19.9906 12.2502 19.9671L12.2643 19.1953C12.2643 19.1719 12.2549 19.1577 12.2266 19.1577L11.4267 19.1389C11.3984 19.1389 11.3844 19.1201 11.3844 19.0918L11.375 18.273H13.9867C14.0149 18.273 14.0243 18.259 14.0289 18.2354L14.0573 17.4448C14.0573 17.4166 14.076 17.3978 14.1043 17.3978H14.8853C14.9183 17.3978 14.9325 17.3789 14.9325 17.3508V16.5509C14.9325 16.5179 14.9513 16.5037 14.9796 16.5037H15.7936C15.8266 16.5037 15.8407 16.4849 15.8407 16.4566V14.1745C15.8407 14.0709 15.883 13.925 15.9631 13.7415L16.0007 13.6567C16.1042 13.3133 16.2313 12.9792 16.3771 12.6545C16.4242 12.5321 16.556 12.4474 16.7536 12.391C16.8006 12.3815 16.8006 12.3627 16.7629 12.3346C16.7548 12.3284 16.7483 12.3202 16.7441 12.311C16.7347 12.2969 16.7441 12.2827 16.7536 12.2733C16.7615 12.2669 16.7716 12.2635 16.7818 12.2639C16.7959 12.2639 16.8053 12.2733 16.8053 12.2922V12.3251C16.8053 12.3391 16.8101 12.3438 16.8242 12.3391C16.9324 12.3251 17.0359 12.2827 17.1394 12.2074C17.3983 12.0192 17.7323 11.8451 18.1371 11.6851C18.175 11.6695 18.2088 11.6453 18.2359 11.6145C18.3032 11.5499 18.3886 11.5073 18.4806 11.4922Z" fill="black"/>
<path d="M11.303 11.8775C11.246 11.9177 11.1795 11.9421 11.1101 11.9481L10.8608 11.9952C10.8419 11.9481 10.7948 11.9294 10.7148 11.9388C10.7148 11.9058 10.729 11.8775 10.7712 11.8634C10.9124 11.8163 11.0442 11.7552 11.1478 11.6893C11.2012 11.6367 11.2708 11.6035 11.3454 11.5952C11.3924 11.5952 11.4066 11.6094 11.3736 11.6517C11.3595 11.6704 11.3419 11.6865 11.3219 11.6987C11.289 11.7175 11.2795 11.7458 11.2935 11.7741C11.3077 11.807 11.3124 11.84 11.303 11.8775Z" fill="#DBF127"/>
<path d="M10.7391 11.6893C10.7176 11.727 10.6885 11.7598 10.6537 11.7857C10.6189 11.8116 10.5791 11.8301 10.5367 11.8399C10.5086 11.8446 10.4992 11.8352 10.5133 11.807C10.5184 11.7968 10.5247 11.7874 10.5322 11.7786L10.7391 11.6846V11.6893Z" fill="black"/>
<path d="M10.8938 11.882C10.9172 11.8538 10.9407 11.8538 10.9737 11.882C11.0019 11.9102 10.9971 11.9291 10.9643 11.9385C10.9339 11.9478 10.9019 11.9509 10.8701 11.9479C10.8467 11.9479 10.8372 11.9338 10.8514 11.9102C10.8539 11.9048 10.8579 11.9002 10.8629 11.8969C10.8679 11.8936 10.8736 11.8918 10.8796 11.8914C10.8796 11.8914 10.8891 11.8914 10.8938 11.882Z" fill="#696868"/>
<path d="M11.3033 11.8765L10.894 13.3635C10.8892 13.3917 10.8704 13.4058 10.8468 13.4058C10.8187 13.4058 10.7904 13.3871 10.7575 13.3588C10.7433 13.1988 10.7622 13.053 10.8139 12.9165L11.1103 11.9471C11.1763 11.9471 11.2374 11.9189 11.3033 11.8765Z" fill="#E32262"/>
<path d="M10.7163 11.9384C10.7964 11.929 10.8433 11.9478 10.8575 11.9948L10.7493 12.0607C10.7493 12.0278 10.7257 11.9948 10.6787 11.9572C10.6833 11.9516 10.689 11.947 10.6955 11.9438C10.702 11.9405 10.7091 11.9387 10.7163 11.9384Z" fill="#696868"/>
<path d="M9.02137 13.0254L8.74373 12.856C8.61237 12.7914 8.47723 12.7348 8.33905 12.6866C8.02847 12.5783 7.84966 12.7242 7.8073 13.1195L7.49202 13.5571C7.46849 13.59 7.45908 13.5854 7.46849 13.543C7.47571 13.4976 7.47176 13.4512 7.457 13.4078C7.44224 13.3644 7.41712 13.3252 7.38379 13.2935C7.48732 13.1336 7.58614 12.9265 7.68496 12.663C7.75084 12.4889 7.87789 12.4278 8.07082 12.4747C8.44727 12.5736 8.76255 12.7572 9.02137 13.0254Z" fill="#DBF127"/>
<path d="M13.1959 13.0619C13.051 13.0488 12.9052 13.0731 12.7724 13.1326C12.7452 13.1423 12.7166 13.1471 12.6877 13.1467L12.6407 13.1514C12.5936 13.1562 12.5888 13.142 12.6171 13.1138C12.6312 13.0949 12.6453 13.0855 12.6642 13.0855C12.8524 13.0855 12.9889 13.0244 13.0689 12.9209C13.2995 12.8832 13.5065 12.8173 13.6993 12.7279C13.7083 12.7246 13.716 12.7188 13.7217 12.7114C13.7276 12.7039 13.7312 12.6949 13.7323 12.6855C13.7417 12.6479 13.7277 12.6384 13.6853 12.6527C13.6772 12.6563 13.6684 12.6583 13.6594 12.6583C13.6505 12.6583 13.6416 12.6563 13.6335 12.6527C13.6005 12.6432 13.6005 12.6291 13.6335 12.6197L13.7936 12.5585C13.897 12.582 13.9676 12.582 14.0147 12.5585C14.1841 12.488 14.1982 12.5114 14.0524 12.6244C14.0005 12.6714 13.9441 12.7043 13.8876 12.7373C13.8561 12.7536 13.8313 12.7802 13.8171 12.8126C13.7794 12.902 13.704 12.9538 13.596 12.9631C13.4594 12.9773 13.3277 13.0103 13.1959 13.0619Z" fill="#E32262"/>
<path d="M15.5204 12.8327C15.468 12.8318 15.4165 12.8483 15.3746 12.8799C14.9604 12.9881 14.5557 13.1151 14.1511 13.2564C14.0286 13.3034 13.8264 13.3316 13.544 13.3505C13.4687 13.3598 13.3558 13.3787 13.224 13.421C13.1017 13.454 13.0122 13.4728 12.9511 13.4822C12.937 13.4822 12.9323 13.4822 12.9229 13.4728V13.4493C12.9276 13.4398 12.937 13.4351 12.9464 13.4351C13.0312 13.4257 13.0876 13.4163 13.1158 13.4022C13.2664 13.3269 13.4264 13.2564 13.5959 13.1905L15.4216 12.5787C15.4545 12.5646 15.4687 12.5787 15.478 12.6116L15.5204 12.8327ZM15.6945 13.3363C15.6663 13.4257 15.6192 13.501 15.5533 13.5622C15.5346 13.581 15.5299 13.581 15.5393 13.5528C15.6334 13.3269 15.6898 13.101 15.7039 12.8751L15.7227 12.8045C15.7322 12.7669 15.718 12.7575 15.6756 12.7716L15.6239 12.7952C15.6145 12.7104 15.6616 12.6493 15.7651 12.6069C15.7934 12.5881 15.8074 12.5976 15.7934 12.6305C15.7664 12.7066 15.7664 12.7896 15.7934 12.8657C15.802 12.8934 15.802 12.9229 15.7934 12.9505L15.6945 13.3363Z" fill="#DBF127"/>
<path d="M8.74334 12.8554C8.7171 12.8983 8.701 12.9465 8.69628 12.9965V16.413C8.69628 16.4694 8.72452 16.4976 8.78099 16.4976L9.5339 16.4882C9.56684 16.4882 9.58096 16.5023 9.58096 16.5353V19.9468C9.59508 19.9751 9.58096 19.9939 9.53861 19.9939H8.75275C8.72922 19.9939 8.71982 19.9845 8.71982 19.9657L8.7104 16.5588C8.7104 16.5118 8.68687 16.4929 8.64452 16.4882H7.85867C7.82103 16.4882 7.80221 16.4694 7.80221 16.4318L7.78809 14.7094L7.80691 13.1189C7.85396 12.7237 8.02808 12.5777 8.33866 12.686C8.47512 12.733 8.61158 12.7896 8.74334 12.8554ZM15.7031 12.8742C15.6418 12.9119 15.5854 12.9213 15.543 12.8884C15.533 12.8825 15.5217 12.8795 15.5101 12.8795C15.4985 12.8795 15.4873 12.8825 15.4772 12.8884C15.4301 12.9072 15.3925 12.9072 15.3737 12.8789C15.4157 12.8474 15.467 12.8309 15.5195 12.8318C15.5666 12.8318 15.5996 12.8225 15.6231 12.7943L15.6795 12.7707C15.7172 12.7519 15.7313 12.766 15.7219 12.8036L15.7031 12.8742Z" fill="black"/>
<path d="M5.42135 12.7989C5.46841 12.8317 5.46841 12.8741 5.43547 12.926C5.39718 12.9529 5.3502 12.9646 5.30371 12.9589C5.34136 12.8036 5.38371 12.7518 5.42135 12.8036V12.7989Z" fill="#E645F4"/>
<path d="M6.54047 12.9788L6.30518 13.0729C6.21107 13.0824 6.11695 13.1248 6.02284 13.2C5.89282 13.2241 5.76936 13.2755 5.6605 13.3507C5.64498 13.3616 5.62739 13.3694 5.60879 13.3735C5.59019 13.3775 5.57096 13.3778 5.55228 13.3741C5.52875 13.3647 5.52404 13.3554 5.54287 13.3365C5.59932 13.2895 5.61815 13.2189 5.60403 13.1388C5.77815 13.0306 5.91932 12.9506 6.02755 12.9083C6.17342 12.8424 6.34753 12.8094 6.54517 12.8047C6.564 12.8047 6.57341 12.8141 6.5687 12.8376L6.54047 12.9788Z" fill="#DBF127"/>
<path d="M9.02099 13.0259L9.29391 13.2376C9.37391 13.4164 9.47273 13.4823 9.59978 13.4352C9.74095 13.5388 9.86801 13.5764 9.98565 13.5575C9.93859 13.5483 9.91977 13.5575 9.91977 13.5859C9.91977 13.68 9.96683 13.7646 10.061 13.8399C10.0845 13.8634 10.1033 13.854 10.108 13.821C10.1127 13.8118 10.108 13.8023 10.108 13.7882C10.0797 13.7552 10.0892 13.7317 10.1316 13.7223C10.1598 13.7223 10.188 13.7223 10.2115 13.7411L10.3527 13.8258C10.5456 13.8634 10.5598 13.8305 10.3856 13.7317C10.3056 13.6847 10.2115 13.6471 10.0939 13.6094C10.1551 13.5999 10.1786 13.5859 10.1738 13.5623L10.8373 13.7788C10.7951 13.821 10.7904 13.8494 10.8373 13.8729C10.861 13.887 10.8844 13.8917 10.908 13.8776C10.9485 13.8623 10.9919 13.856 11.035 13.8587L10.9973 14.207C10.988 14.254 10.9973 14.254 11.0209 14.2164L11.0962 14.094C11.1043 14.08 11.1159 14.0682 11.1299 14.06C11.144 14.0518 11.1599 14.0473 11.1762 14.047C11.3079 14.0423 11.4585 14.1222 11.6186 14.2964C11.6845 14.367 11.6985 14.3576 11.6515 14.2729C11.6232 14.2118 11.5103 14.1222 11.3174 14.0046L11.2091 13.9341C11.2374 13.9058 11.2563 13.8776 11.2563 13.8399L11.548 13.3506C11.5634 13.3545 11.5796 13.3545 11.595 13.3506C11.5714 13.3975 11.562 13.4352 11.5714 13.4635C11.5809 13.5106 11.5997 13.5106 11.6232 13.4682C11.6374 13.4447 11.6374 13.407 11.6232 13.3506C11.6468 13.3506 11.6609 13.3506 11.675 13.3364C11.722 13.3694 11.7409 13.4164 11.7267 13.4871C11.7079 13.5999 11.6798 13.7129 11.6515 13.8258C11.6515 13.8352 11.6515 13.8399 11.6609 13.8446C11.6656 13.8446 11.6703 13.8446 11.675 13.8352L11.6985 13.7882C11.8255 13.4871 11.9526 13.3035 12.0703 13.2236C12.0821 13.2175 12.0925 13.2088 12.1007 13.1983C12.1089 13.1876 12.1145 13.1753 12.1173 13.1623C12.1314 13.0588 12.1644 12.974 12.2161 12.9082L13.0679 12.9224C12.9879 13.0259 12.8514 13.0824 12.6585 13.0871C12.6444 13.0871 12.6303 13.0964 12.6114 13.1153C12.5879 13.1435 12.5926 13.1623 12.635 13.1529H12.682C12.7196 13.1529 12.7479 13.1435 12.7761 13.134C12.9079 13.0729 13.0491 13.0494 13.1997 13.0635C13.1997 13.1717 13.3315 13.2141 13.595 13.1906C13.4255 13.2565 13.2655 13.327 13.1149 13.4023C13.0867 13.4164 13.0303 13.4258 12.9455 13.4352C12.9407 13.4348 12.9357 13.436 12.9315 13.4385C12.9273 13.4411 12.924 13.4449 12.922 13.4494V13.4729C12.9315 13.4823 12.9362 13.4823 12.9502 13.4823C13.0114 13.4729 13.1009 13.4541 13.2232 13.4212C13.3597 13.3788 13.4679 13.3599 13.5431 13.3506C13.8255 13.3317 14.0278 13.3035 14.1549 13.2565C14.5548 13.1153 14.9596 12.9883 15.3737 12.88C15.3925 12.9082 15.4302 12.9082 15.4771 12.8894C15.5007 12.8752 15.5242 12.88 15.543 12.8894C15.5902 12.9176 15.6372 12.9129 15.7031 12.8752C15.689 13.1012 15.6325 13.327 15.5384 13.553C15.529 13.5811 15.5337 13.5811 15.5525 13.5623C15.6183 13.5011 15.6654 13.4258 15.6937 13.3364C15.6937 13.5106 15.7406 13.5952 15.8349 13.5905L15.8254 13.7788C15.8254 13.7929 15.8254 13.7976 15.8442 13.8023H15.8631C15.8724 13.807 15.8724 13.8023 15.8771 13.7976L15.9054 13.6329L15.9996 13.6564L15.9619 13.7411C15.8818 13.9294 15.8395 14.0706 15.8395 14.1741V16.4562C15.8395 16.4846 15.8254 16.5033 15.7925 16.5033H14.9784C14.9501 16.5033 14.9313 16.5175 14.9313 16.5505V17.3503C14.9313 17.3786 14.9172 17.3975 14.8843 17.3975H14.1031C14.0749 17.3975 14.0561 17.4163 14.0561 17.4444L14.0278 18.235C14.0278 18.2586 14.0137 18.2727 13.9808 18.2727H11.3739L11.3456 17.4491C11.3456 17.4163 11.3267 17.4022 11.2938 17.4022H10.5316C10.4986 17.4022 10.4844 17.4115 10.4844 17.4444V18.188C10.4844 18.235 10.508 18.2634 10.5598 18.2634L11.3739 18.2727L11.3833 19.0915C11.3833 19.1198 11.3973 19.1385 11.4303 19.1385L12.2256 19.1573C12.2537 19.1573 12.2632 19.1715 12.2632 19.195L12.249 19.9668C12.2445 19.9808 12.2303 19.9902 12.2115 19.9902H9.62331C9.60919 19.9902 9.59508 19.9762 9.58097 19.9433V16.5316C9.58097 16.5033 9.56685 16.4846 9.5339 16.4846L8.781 16.4986C8.72453 16.4986 8.69629 16.4705 8.69629 16.414V12.9976C8.70101 12.9476 8.7171 12.8993 8.74334 12.8564L9.02099 13.0259Z" fill="#AB8A67"/>
<path d="M10.3203 12.9126L10.8145 12.9173C10.7627 13.0539 10.7438 13.1996 10.758 13.3596L10.3203 12.9126Z" fill="#AB8A67"/>
<path d="M18.494 12.917L19.3127 12.95C19.3551 12.95 19.3739 12.9687 19.3739 13.0111V13.7358C19.3739 13.7922 19.3457 13.8205 19.2892 13.8205H17.6423C17.6187 13.8205 17.6046 13.8346 17.6046 13.8581L17.5811 14.6723C17.5811 14.7005 17.5669 14.7098 17.5387 14.7145L16.7246 14.7287V12.964C16.7246 12.9358 16.7387 12.9264 16.7622 12.9264L18.494 12.917Z" fill="white"/>
<path d="M6.54159 12.978L6.24042 13.9662L6.08513 14.1733C6.04749 14.1357 6.03809 14.1027 6.03809 14.0745L6.3063 13.0674L6.54159 12.978Z" fill="#E32262"/>
<path d="M15.9063 13.6319L15.8781 13.7966C15.8781 13.8061 15.8734 13.8061 15.8641 13.8061L15.8452 13.8014C15.8311 13.8014 15.8217 13.7919 15.8264 13.7778L15.8405 13.5896C15.8264 13.3919 15.8875 13.2131 16.0146 13.0391C16.0287 13.2131 15.9959 13.4155 15.9063 13.6319Z" fill="black"/>
<path d="M6.30648 13.0688L6.04296 14.0759C6.03559 14.0789 6.02911 14.0838 6.02414 14.09C6.01002 14.1136 6.00061 14.1089 6.00061 14.0806C6.00061 14.0618 6.00061 14.043 6.01002 14.0242C6.01871 14.0049 6.02351 13.9841 6.02414 13.963V13.2006C6.11825 13.1254 6.21237 13.083 6.30648 13.0688ZM7.8076 13.1207L7.78877 14.7112L6.0712 14.7253C6.04296 14.7253 6.02884 14.7395 6.02884 14.7724L6.01473 15.5253C6.01473 15.5723 5.9912 15.5959 5.94414 15.5959L5.19593 15.6099C5.15358 15.6099 5.13477 15.5912 5.13477 15.5488V14.7488C5.13477 14.7206 5.14889 14.7018 5.1724 14.7018L5.93002 14.6971C6.01473 14.6971 6.04767 14.65 6.02884 14.5701C6.01161 14.5036 6.00774 14.4346 6.01743 14.3667C6.02712 14.2989 6.05019 14.2336 6.08531 14.1748L6.2406 13.9677L6.12766 14.4101C6.12766 14.4194 6.12766 14.4242 6.13708 14.4289L6.1606 14.443H6.16531L6.43823 14.0101C6.41471 14.2077 6.38176 14.363 6.34413 14.4713C6.29707 14.6312 6.3206 14.6453 6.42411 14.5135C6.51824 14.3818 6.59352 14.2454 6.64059 14.0947L6.87586 13.6477C6.93233 13.7747 6.92293 13.93 6.84292 14.1182C6.82882 14.1466 6.83823 14.1559 6.86646 14.1371C6.88064 14.1298 6.89217 14.1183 6.89939 14.1042C6.9794 13.9442 7.0735 13.803 7.19116 13.6807C7.24762 13.6148 7.28055 13.5253 7.28526 13.4077L7.38408 13.2995C7.45467 13.37 7.47819 13.4501 7.46879 13.5442C7.45938 13.5866 7.46879 13.5912 7.49231 13.5583L7.8076 13.1207Z" fill="white"/>
<path d="M11.5487 13.3497L11.2523 13.8439L11.1158 13.7168C11.1048 13.7078 11.0964 13.6962 11.0916 13.6829C11.0866 13.6697 11.0852 13.6554 11.0876 13.6415C11.1064 13.5474 11.1488 13.4673 11.2146 13.3968C11.2476 13.3638 11.2616 13.3685 11.2476 13.4156C11.2373 13.4688 11.2148 13.5188 11.1816 13.5615C11.1722 13.5756 11.1722 13.5896 11.1864 13.5991L11.2052 13.6085H11.2146L11.4639 13.2133C11.5393 13.0862 11.5723 13.0956 11.5581 13.2462L11.5487 13.3497ZM7.28535 13.4109C7.28063 13.5238 7.24769 13.6132 7.19124 13.6744C7.07359 13.8015 6.97947 13.9427 6.89947 14.1027C6.89225 14.1168 6.88072 14.1283 6.86653 14.1356C6.83831 14.1543 6.82889 14.1451 6.843 14.1121C6.92301 13.9332 6.93713 13.7732 6.87595 13.6415C6.98417 13.5285 7.07359 13.3827 7.14418 13.1991C7.17241 13.1333 7.21005 13.1285 7.2524 13.1898C7.28063 13.2368 7.29475 13.3074 7.28535 13.4062V13.4109ZM9.29467 13.2368C9.43584 13.2133 9.53938 13.2792 9.60054 13.4344C9.47349 13.4815 9.37467 13.4156 9.29467 13.2321V13.2368ZM11.5957 13.3497H11.6287C11.6381 13.4062 11.6381 13.4439 11.6239 13.4673C11.6004 13.5097 11.5817 13.505 11.5723 13.4626C11.5628 13.4344 11.5723 13.3968 11.5957 13.3497ZM6.64067 14.0932C6.59361 14.2439 6.52302 14.3802 6.4242 14.512C6.32068 14.6438 6.29243 14.6297 6.3489 14.465C6.38185 14.3614 6.41479 14.2062 6.43832 14.0086C6.54185 13.8344 6.64536 13.6462 6.7489 13.4533C6.75359 13.4392 6.76301 13.4297 6.77713 13.4297C6.80537 13.4204 6.81477 13.4297 6.80065 13.4579C6.71125 13.6603 6.65948 13.8721 6.64067 14.0932ZM10.8381 13.7779L10.1746 13.5615C10.1464 13.5238 10.1511 13.4862 10.1793 13.4579C10.2029 13.4392 10.2264 13.4344 10.2546 13.4533C10.3252 13.4908 10.3864 13.5144 10.4381 13.5192C10.6734 13.5427 10.8099 13.632 10.8381 13.7779ZM9.98641 13.5521C10.0335 13.5615 10.0712 13.5804 10.0947 13.6085C10.2123 13.6462 10.3064 13.6885 10.3864 13.7308C10.5605 13.8297 10.5464 13.8626 10.3535 13.825C10.344 13.825 10.297 13.7967 10.2123 13.7403C10.1891 13.7237 10.1604 13.717 10.1323 13.7214C10.0899 13.7308 10.0852 13.7543 10.1041 13.7873C10.1134 13.8015 10.1134 13.8109 10.1087 13.8203C10.1041 13.8531 10.0852 13.8626 10.0617 13.8391C9.96759 13.7638 9.92053 13.6792 9.92053 13.5851C9.92053 13.5568 9.94406 13.5474 9.98641 13.5568V13.5521Z" fill="#DBF127"/>
<path d="M13.1147 13.8203H12.3101C12.3013 13.8203 12.293 13.8238 12.2868 13.83C12.2806 13.8362 12.2772 13.8446 12.2772 13.8533L12.2725 14.658C12.2725 14.6815 12.2865 14.6956 12.3054 14.6956H13.1053C13.1289 14.6956 13.143 14.6815 13.143 14.6627L13.1477 13.858C13.1483 13.8533 13.148 13.8486 13.1467 13.8439C13.1454 13.8394 13.143 13.8351 13.1399 13.8316C13.1367 13.828 13.1328 13.8251 13.1286 13.8233C13.1242 13.8213 13.1195 13.8203 13.1147 13.8203Z" fill="black"/>
<path d="M11.0354 13.8594C11.0966 13.8735 11.1531 13.8971 11.2095 13.9347L11.3178 14.0053C11.506 14.1229 11.6236 14.2124 11.6519 14.2735C11.6989 14.3582 11.6849 14.3676 11.6189 14.297C11.4542 14.1229 11.3083 14.043 11.1766 14.0477C11.1603 14.0479 11.1444 14.0524 11.1303 14.0606C11.1163 14.0689 11.1046 14.0806 11.0966 14.0946L11.0213 14.217C10.9977 14.2546 10.9884 14.2499 10.9977 14.2077L11.0354 13.8594Z" fill="#DBF127"/>
<path d="M18.4185 14.7111H17.6798C17.6701 14.7105 17.6603 14.7118 17.6512 14.715C17.6421 14.7183 17.6338 14.7235 17.6267 14.73C17.6197 14.7367 17.614 14.7447 17.6102 14.7535C17.6064 14.7624 17.6045 14.772 17.6045 14.7816V15.5205C17.6045 15.5629 17.6374 15.5958 17.6798 15.5958H18.4185C18.4561 15.5958 18.4891 15.5629 18.4891 15.5205V14.7816C18.4891 14.763 18.4817 14.745 18.4685 14.7318C18.4552 14.7185 18.4373 14.7111 18.4185 14.7111Z" fill="white"/>
<path d="M14.0052 15.6045H11.4172C11.4072 15.6045 11.3976 15.6085 11.3904 15.6156C11.3835 15.6227 11.3795 15.6322 11.3795 15.6422V16.4562C11.3795 16.4751 11.3983 16.4892 11.4172 16.4892H14.0052C14.0241 16.4892 14.0429 16.4751 14.0429 16.4562V15.6422C14.0429 15.6322 14.039 15.6227 14.0319 15.6156C14.0248 15.6085 14.0152 15.6045 14.0052 15.6045ZM11.3748 18.2726L10.5607 18.2633C10.5136 18.2633 10.4854 18.2397 10.4854 18.188V17.4444C10.4854 17.4115 10.4996 17.3975 10.5325 17.3975H11.2948C11.3276 17.3975 11.3465 17.4162 11.3465 17.4491L11.3748 18.2726Z" fill="black"/>
</svg>
