<svg width="24" height="24" viewBox="0 0 24 24" fill="none" xmlns="http://www.w3.org/2000/svg">
<path fill-rule="evenodd" clip-rule="evenodd" d="M12 17.8823C15.2489 17.8823 17.8824 15.2488 17.8824 12C17.8824 8.75114 15.2489 6.11761 12 6.11761C8.7512 6.11761 6.11768 8.75114 6.11768 12C6.11768 15.2488 8.7512 17.8823 12 17.8823ZM12 17.2941C12.6952 17.2941 13.3837 17.1571 14.0259 16.8911C14.6683 16.6251 15.2519 16.235 15.7435 15.7435C16.2352 15.2518 16.6251 14.6682 16.8911 14.0259C17.1573 13.3837 17.2941 12.6952 17.2941 12C17.2941 11.3047 17.1573 10.6163 16.8911 9.97398C16.6251 9.33163 16.2352 8.74806 15.7435 8.25646C15.2519 7.76485 14.6683 7.37488 14.0259 7.10883C13.3837 6.84277 12.6952 6.70585 12 6.70585C10.5959 6.70585 9.24935 7.26361 8.25652 8.25646C7.26368 9.24929 6.70591 10.5959 6.70591 12C6.70591 13.404 7.26368 14.7506 8.25652 15.7435C9.24935 16.7362 10.5959 17.2941 12 17.2941Z" fill="url(#paint0_linear_364_6546)"/>
<path fill-rule="evenodd" clip-rule="evenodd" d="M8.17823 18.6236C11.8359 20.7354 16.513 19.4824 18.6247 15.8247C20.7365 12.1671 19.4829 7.49063 15.8254 5.37887C12.1677 3.2671 7.49118 4.52005 5.37941 8.17768C3.26765 11.8354 4.5206 16.5118 8.17823 18.6236ZM12.0006 19.0588C15.8988 19.0588 19.0594 15.8983 19.0594 12.0001C19.0594 8.10181 15.8988 4.94121 12.0006 4.94121C8.10236 4.94121 4.94176 8.10181 4.94176 12.0001C4.94176 15.8983 8.10236 19.0588 12.0006 19.0588Z" fill="url(#paint1_linear_364_6546)"/>
<path fill-rule="evenodd" clip-rule="evenodd" d="M12 22C17.5229 22 22 17.5229 22 12C22 6.47705 17.5229 2 12 2C6.47705 2 2 6.47705 2 12C2 17.5229 6.47705 22 12 22ZM12 21.4117C17.1983 21.4117 21.4117 17.1983 21.4117 12C21.4117 6.80175 17.1983 2.58823 12 2.58823C6.80176 2.58823 2.58823 6.80175 2.58823 12C2.58823 17.1983 6.80176 21.4117 12 21.4117Z" fill="url(#paint2_linear_364_6546)"/>
<defs>
<linearGradient id="paint0_linear_364_6546" x1="1.90003" y1="12.2609" x2="22.1001" y2="12" gradientUnits="userSpaceOnUse">
<stop stop-color="#F9F9F9"/>
<stop offset="1" stop-color="#F9F9F9" stop-opacity="0"/>
</linearGradient>
<linearGradient id="paint1_linear_364_6546" x1="22.2784" y1="11.9984" x2="1.71913" y2="11.9984" gradientUnits="userSpaceOnUse">
<stop stop-color="#F0F0F0"/>
<stop offset="1" stop-color="#F0F0F0" stop-opacity="0"/>
</linearGradient>
<linearGradient id="paint2_linear_364_6546" x1="2" y1="12" x2="22" y2="12" gradientUnits="userSpaceOnUse">
<stop stop-color="#F0F0F0"/>
<stop offset="1" stop-color="#F0F0F0" stop-opacity="0"/>
</linearGradient>
</defs>
</svg>
