<svg width="24" height="24" viewBox="0 0 24 24" fill="none" xmlns="http://www.w3.org/2000/svg">
<path d="M16.2123 15.6291L15.9629 15.3703C16.5355 14.6809 16.921 13.8557 17.0818 12.9741C17.2426 12.0924 17.1737 11.1842 16.8814 10.3372C16.589 9.49 16.0832 8.73251 15.413 8.1377C14.7427 7.54291 13.9303 7.13091 13.0544 6.94144C12.0696 6.73324 11.0455 6.81693 10.1075 7.18225C9.16964 7.54756 8.35869 8.17861 7.77413 8.99805C7.33636 9.61111 7.03677 10.3118 6.89598 11.0518C6.7552 11.7918 6.77658 12.5538 6.95866 13.2846C7.14074 14.0157 7.47916 14.6985 7.95063 15.286C8.42209 15.8736 9.01536 16.3519 9.68954 16.688C10.5904 17.1355 11.6021 17.3107 12.6011 17.1919C13.5999 17.0733 14.5426 16.666 15.3134 16.0197L15.5393 16.2408L16.9841 17.6903L17.6289 17.0456L16.2123 15.6244V15.6291ZM15.0075 15.0644C14.4857 15.5888 13.8365 15.9686 13.1237 16.1666C12.4108 16.3646 11.6587 16.3738 10.9411 16.1936C10.2236 16.0132 9.56525 15.6494 9.03067 15.1379C8.49609 14.6265 8.10363 13.9849 7.89178 13.276C7.60594 12.3273 7.65635 11.3091 8.0345 10.3933C8.41265 9.47753 9.09533 8.72037 9.96718 8.24976C10.6188 7.89731 11.351 7.72074 12.0917 7.73742C12.8324 7.75411 13.5559 7.96348 14.191 8.34493C14.8261 8.72636 15.3509 9.2667 15.7135 9.91266C16.0762 10.5587 16.2644 11.288 16.2594 12.0288C16.2594 13.1677 15.8123 14.2595 15.0075 15.0644Z" fill="url(#paint0_linear_328_30629)"/>
<path style="mix-blend-mode:multiply" d="M17.662 17.0121L17.0125 17.6615L15.563 16.212L16.2407 15.5908L17.662 17.0121Z" fill="url(#paint1_linear_328_30629)"/>
<path d="M16.3106 5.25143C14.7708 4.27498 12.9452 3.85031 11.1325 4.04696C9.31997 4.2436 7.62789 5.04992 6.3334 6.33385C4.978 7.70108 4.15765 9.50891 4.02122 11.4293C3.88479 13.3497 4.44132 15.2552 5.58983 16.8004L6.31928 16.2498C6.12144 15.9865 5.94218 15.7097 5.78277 15.4215C5.20116 14.339 4.90922 13.1245 4.93525 11.8959C4.96127 10.6674 5.30441 9.46635 5.93136 8.40945C6.55831 7.35256 7.44777 6.47563 8.51348 5.86377C9.57918 5.25191 10.7849 4.92586 12.0137 4.91729C13.308 4.91729 14.6021 5.26555 15.7316 5.97147C15.591 6.29265 15.5508 6.64878 15.6159 6.99326C15.6811 7.33773 15.8487 7.65451 16.0969 7.90216C16.345 8.1498 16.6622 8.31677 17.0068 8.38123C17.3513 8.44568 17.7073 8.40461 18.0283 8.26339C17.9153 8.08456 17.7976 7.91043 17.6705 7.74571L18.4001 7.19509C18.5224 7.35509 18.6353 7.51981 18.7437 7.68923C18.9951 7.35392 19.1172 6.93913 19.0875 6.52102C19.0578 6.10293 18.8783 5.70957 18.5819 5.41318C18.2855 5.1168 17.8921 4.93727 17.474 4.90756C17.0559 4.87785 16.6411 4.99994 16.3058 5.25143H16.3106ZM17.9248 7.24685C17.849 7.3306 17.757 7.39808 17.6544 7.44519C17.5518 7.4923 17.4407 7.51805 17.3278 7.5209C17.2149 7.52373 17.1026 7.50359 16.9978 7.46168C16.893 7.4198 16.7977 7.35701 16.7178 7.27717C16.638 7.19733 16.5752 7.10209 16.5334 6.99724C16.4914 6.89239 16.4713 6.78011 16.4742 6.66724C16.477 6.55436 16.5027 6.44325 16.5498 6.34062C16.597 6.23801 16.6645 6.14604 16.7482 6.07031C16.9067 5.92699 17.1142 5.85005 17.3278 5.85543C17.5414 5.8608 17.7448 5.94805 17.8959 6.09914C18.047 6.25024 18.1343 6.45362 18.1396 6.66724C18.1449 6.88085 18.0681 7.08836 17.9248 7.24685Z" fill="#01FDFE"/>
<path d="M17.6755 7.74594C18.733 9.16104 19.2248 10.9197 19.0545 12.678C18.8665 14.4224 18.0437 16.0368 16.7431 17.2143C15.4424 18.3918 13.7543 19.0502 11.9998 19.0643C10.7057 19.0643 9.42092 18.7537 8.26319 18.0289C8.43123 17.6421 8.45318 17.2074 8.32494 16.8057C8.1967 16.4038 7.92701 16.0623 7.56595 15.8444C7.20489 15.6264 6.77699 15.5469 6.36173 15.6207C5.94648 15.6944 5.5721 15.9163 5.30812 16.2452C5.04413 16.5741 4.90848 16.9876 4.92637 17.409C4.94425 17.8303 5.11446 18.2309 5.40537 18.5363C5.69628 18.8416 6.08812 19.031 6.50812 19.0692C6.92813 19.1075 7.34774 18.992 7.68904 18.7443C9.26943 19.7521 11.1534 20.1735 13.0125 19.9348C14.8717 19.6962 16.5882 18.8127 17.8628 17.4384C19.1374 16.0641 19.8893 14.286 19.9876 12.4142C20.0858 10.5424 19.5241 8.69548 18.4003 7.19531L17.6708 7.74594H17.6755ZM7.25136 17.9254C7.1741 18.0026 7.08239 18.064 6.98146 18.1057C6.88053 18.1476 6.77234 18.1691 6.66309 18.1691C6.55384 18.1691 6.44565 18.1476 6.34471 18.1057C6.24378 18.064 6.15207 18.0026 6.07481 17.9254C5.99755 17.8481 5.93628 17.7564 5.89447 17.6555C5.85266 17.5546 5.83114 17.4464 5.83114 17.3372C5.83114 17.2279 5.85266 17.1198 5.89447 17.0188C5.93628 16.9178 5.99755 16.8261 6.07481 16.7489C6.23084 16.5929 6.44245 16.5052 6.66309 16.5052C6.88373 16.5052 7.09533 16.5929 7.25136 16.7489C7.40738 16.905 7.49503 17.1166 7.49503 17.3372C7.49503 17.5577 7.40738 17.7693 7.25136 17.9254Z" fill="#01FDFE"/>
<path d="M9.64648 9.82984C9.64648 9.71686 9.68414 9.60392 9.75003 9.50509C9.81121 9.41096 9.90532 9.32625 10.0136 9.26978C10.1251 9.21127 10.2489 9.17992 10.3749 9.17829C10.5007 9.17665 10.6253 9.20478 10.7384 9.26036L11.2325 9.5192L14.9315 11.4394C15.0397 11.4958 15.1338 11.5806 15.195 11.6746C15.259 11.7726 15.2931 11.887 15.2931 12.0041C15.2931 12.121 15.259 12.2356 15.195 12.3335C15.1338 12.4277 15.0397 12.5123 14.9315 12.5689L11.9572 14.1077L11.2325 14.4842L10.7384 14.7384C10.663 14.776 10.5877 14.7996 10.503 14.8136L10.376 14.8278C10.1865 14.8284 10.003 14.7616 9.85821 14.6396C9.7922 14.5788 9.73933 14.5051 9.70296 14.423C9.66636 14.3449 9.6471 14.2598 9.64648 14.1736V9.82984Z" fill="#01FDFE"/>
<defs>
<linearGradient id="paint0_linear_328_30629" x1="23.9077" y1="24.0145" x2="4.33631" y2="4.26943" gradientUnits="userSpaceOnUse">
<stop stop-color="#8E40A3"/>
<stop offset="0.65" stop-color="#30BEE0"/>
<stop offset="1" stop-color="#01FDFE"/>
</linearGradient>
<linearGradient id="paint1_linear_328_30629" x1="15.8743" y1="15.4542" x2="6.79685" y2="7.35987" gradientUnits="userSpaceOnUse">
<stop stop-color="#2284C6"/>
<stop offset="1" stop-color="#2284C6" stop-opacity="0"/>
</linearGradient>
</defs>
</svg>
