<svg width="24" height="24" viewBox="0 0 24 24" fill="none" xmlns="http://www.w3.org/2000/svg">
<path fill-rule="evenodd" clip-rule="evenodd" d="M12.0004 4.49999C13.6862 4.49958 15.3231 5.06716 16.6468 6.11117C17.9705 7.15518 18.9039 8.61472 19.2963 10.2543C19.6887 11.8938 19.5173 13.6178 18.8097 15.148C18.1021 16.6782 16.8995 17.9253 15.3961 18.6881C13.8928 19.451 12.1761 19.6852 10.5234 19.3528C8.87065 19.0203 7.37809 18.1407 6.28655 16.8559C5.19502 15.5711 4.5682 13.956 4.50722 12.2712C4.44624 10.5865 4.95465 8.93033 5.95043 7.56999C6.1604 7.77912 6.42778 7.92114 6.71863 7.978C7.00948 8.03486 7.31065 8.004 7.58392 7.88933C7.85719 7.77467 8.09022 7.58137 8.2534 7.334C8.41658 7.08663 8.50256 6.79633 8.50043 6.49998C8.50094 6.27484 8.45076 6.05247 8.35362 5.84937C8.25648 5.64626 8.11486 5.46764 7.93927 5.32672C7.76368 5.18581 7.55862 5.08623 7.3393 5.03537C7.11997 4.98451 6.89202 4.98367 6.67232 5.03291C6.45264 5.08216 6.24685 5.18023 6.07023 5.31985C5.89361 5.45947 5.75068 5.63706 5.65205 5.83944C5.55341 6.04183 5.5016 6.26381 5.50046 6.48896C5.49932 6.7141 5.54886 6.93661 5.64544 7.13999C4.54868 8.57402 3.96922 10.3369 4.00126 12.142C4.03329 13.947 4.67493 15.6881 5.8219 17.0825C6.96884 18.4766 8.55366 19.4419 10.3187 19.8212C12.0837 20.2007 13.9252 19.972 15.5438 19.1723C17.1623 18.3725 18.4628 17.0489 19.2338 15.4163C20.0048 13.7839 20.2009 11.9386 19.7904 10.1806C19.3798 8.42254 18.3866 6.85505 16.9723 5.73295C15.5581 4.61084 13.8058 4.00009 12.0004 4V4.49999ZM7.00043 7.49999C7.26566 7.49999 7.52 7.39463 7.70754 7.20709C7.89507 7.01956 8.00043 6.7652 8.00043 6.49998C8.00043 6.23477 7.89507 5.98042 7.70754 5.79288C7.52 5.60535 7.26566 5.49999 7.00043 5.49999C6.73522 5.49999 6.48087 5.60535 6.29333 5.79288C6.10579 5.98042 6.00043 6.23477 6.00043 6.49998C6.00043 6.7652 6.10579 7.01956 6.29333 7.20709C6.48087 7.39463 6.73522 7.49999 7.00043 7.49999ZM12.0004 15.5C12.9287 15.5 13.8189 15.1312 14.4753 14.4748C15.1317 13.8185 15.5004 12.9283 15.5004 12C15.5004 11.0717 15.1317 10.1815 14.4753 9.52511C13.8189 8.86873 12.9287 8.49999 12.0004 8.49999C11.0722 8.49999 10.1819 8.86873 9.52555 9.52511C8.86918 10.1815 8.50043 11.0717 8.50043 12C8.50043 12.9283 8.86918 13.8185 9.52555 14.4748C10.1819 15.1312 11.0722 15.5 12.0004 15.5Z" fill="url(#paint0_linear_328_55684)"/>
<defs>
<linearGradient id="paint0_linear_328_55684" x1="12" y1="4" x2="12" y2="20" gradientUnits="userSpaceOnUse">
<stop stop-color="#E92121"/>
<stop offset="1" stop-color="#9C0403"/>
</linearGradient>
</defs>
</svg>
