<svg width="24" height="24" viewBox="0 0 24 24" fill="none" xmlns="http://www.w3.org/2000/svg">
<path d="M11.4267 14.6814V14.9656H11.1426V14.6814H11.4267ZM11.711 14.6814H11.4267V14.3973H11.711V14.6814ZM10.754 14.1083V14.3925H10.4699V14.1083H10.754ZM10.754 14.1083V13.8193H11.4267V14.1035H10.754V14.1083ZM10.4699 13.4357V13.8193H10.181V13.4403H10.4651L10.4699 13.4357ZM11.1378 12.8625H11.422V13.1466H11.1378V12.8625ZM10.4699 13.4357V13.1514H9.89197V12.8625H10.754V13.4357H10.4699ZM12.862 11.0436H13.1462V11.4225H12.862V11.0436ZM14.9699 9.89244H14.3968V10.1815H14.1078V10.4656H13.8189V10.7545H12.2888V11.0388H12.5731V12.0004H12.2888V12.2845H11.9999V12.5736H11.1426V12.2893H10.754V12.0004H10.4699V11.7162H10.181V11.4272H9.89672V11.0436H9.6078V10.7593H9.02991V11.0436H8.74569V10.7593L8.35254 10.7214V11.0767L8.36201 11.4177L9.02991 11.4272H9.31884V11.7115H9.89197V12.5736H9.6078V12.8577H9.31884V13.1514H9.89197V13.4357H8.74569V13.8193C8.93516 13.8382 8.90675 13.8241 9.15305 14.0798L9.34253 14.2741C9.44201 14.3498 9.35202 14.3687 9.6078 14.3925V15.5388H9.89197V14.9704H10.1762V14.3925H10.4699V14.9704H10.754V15.2546H11.711V14.6814H12.2841V14.3973H11.9999V13.8193H11.7157V13.1514H12.2841V13.4357H13.1462V13.1514H12.862V12.8625H12.5778V12.5782H13.5299V11.7115H13.8189V12.0004H14.103V12.2845H14.392V12.5736H14.681V12.8577H15.2541V13.1514H15.5384V12.5782H14.9699V12.2893H14.681V12.0004H14.3968V11.7162H14.1078V11.0436H14.392V10.7593H14.6762V10.4704H14.9699V10.1815H15.2541V9.89719H15.5384V10.1815H15.9267V9.31934H15.543V9.60354H14.9699V9.89244Z" fill="#141013"/>
<path d="M10.1809 8.65223V9.60908H9.3188L9.07722 9.62328L9.02986 9.89323H8.74564V10.187H8.3667L8.37143 10.4616H8.74564V10.7553H9.02986V10.4712H9.60775V10.7553H10.1809V11.0396H10.4651V11.428H10.754V11.7123H11.1378V12.0012H11.4219V12.2854H11.9999V12.0012H12.284V11.428H11.9999V11.0444H11.7156V10.7601H11.4267V10.4712H11.1425V10.1823H10.754V9.89798L10.4603 9.90273L10.4699 9.60908V9.03118H10.754V8.65223H10.4699V8.36328H10.1809V8.65223Z" fill="#141013"/>
<path d="M7.78461 12.0016C7.74198 12.5178 7.80357 12.0775 7.67567 12.2716C7.5525 12.4611 7.5004 12.5322 7.21619 12.5795H6.93197L6.92725 12.8637H7.50515V13.1574L7.78935 13.1526V13.4369H8.07356V13.8206H8.35777V14.1047H8.74619V14.3937C9.47094 14.4742 8.59461 14.6021 9.31935 14.6826V15.2558H9.60357V14.3937C9.3525 14.3654 9.4425 14.3463 9.34304 14.2753L9.15356 14.0858C8.90725 13.8253 8.93567 13.8395 8.74619 13.8206V13.4415H9.89247V13.1526H9.31935V12.8637H9.03514V13.1478H8.06882V12.8637H7.78461V12.5795H8.06882V12.2905H8.35304V12.0016H8.74146V11.7174H9.02567V11.4284L8.3625 11.4189V11.7174H8.07356V12.0064L7.77988 11.9968L7.78461 12.0016Z" fill="#E3E6FF"/>
<path d="M9.31865 7.78421V8.06842L9.03445 8.07316V8.35738H8.35234L8.36181 8.65106V9.32369H7.78391L7.49023 9.31421V9.58422L8.74077 9.60791L9.07235 9.62211L9.12445 9.31896L9.31392 9.3379L9.88713 9.31896V9.03474H9.60287V8.65106H9.88713V7.5H9.60287V7.78421H9.31392H9.31865Z" fill="#2E4A84"/>
<path d="M12.2842 15.8289V16.2079H12.0001V15.8337H12.2842V15.8289ZM11.7111 15.2558L11.711 15.54H10.7542L10.7495 15.8384H11.138V17.6526H11.4221V15.8384H11.7064V16.2173L11.711 16.5016L11.7158 16.7858V17.3541H12.0001L11.9905 16.5063H12.2937V16.7763L12.5685 16.7811L12.559 16.5016L12.5826 15.8289H12.289V14.9668H12.0001V15.251H11.711L11.7111 15.2558Z" fill="#18181C"/>
<path d="M18.9061 11.0432L18.8919 11.4221L18.3945 11.4269L18.3471 11.0527H17.8781L17.9066 11.4269L17.9444 11.7111H17.6508V12.0001H17.3619V12.2842H17.0776V12.5732H18.3186V12.289H18.603V12.0001H18.8919V11.7158H19.1808V11.4269L19.2092 11.0432L19.2375 10.7637L18.9155 10.778L18.9061 11.0432Z" fill="#333941"/>
<path d="M11.4268 9.03118V9.89323H11.7111V10.1823H12V10.4664H12.2842V10.7553H13.151V10.4712H13.819V10.1823H12.5732V9.89798H12.2889V9.60908H12V8.36328H11.7157V9.03118H11.4268Z" fill="#E3E6FF"/>
<path d="M14.6811 13.4354V13.819H14.397V14.1032H15.2543V13.819H15.5385V13.44H15.9269V13.819H16.7842V14.1032H17.0733V13.44H17.3622V13.1464H16.5001L16.2159 13.1416L15.5432 13.1511H15.2591V13.4354H14.6811Z" fill="#747A8A"/>
<path d="M11.9998 5.10828V5.39249H11.7155V5.68144H11.4266V5.96565H11.1425V6.25459L11.1377 7.21144H11.4219V6.92723H11.7109V6.63828L11.9998 6.61934H12.3171V6.22618L11.995 6.17881C12.1135 5.8567 11.7914 6.02249 12.2887 5.97039V5.39249H12.573V4.81934H12.2887V5.10354H11.9998V5.10828Z" fill="#333941"/>
<path d="M12.2842 17.0739V17.3629L12 17.3582V17.6518H11.7157V17.9361H11.4268V19.1818H11.7111V18.8977H12.0141L12 18.2203H12.2889V17.9361L12.8762 17.955L12.8668 16.7897L12.5732 16.7803L12.5778 17.0739H12.2842Z" fill="#1B2025"/>
<path d="M14.3921 7.49981V8.07296H14.681V9.02982H15.2542V8.65086H14.9699V8.06823H15.5431L15.5526 7.49981L15.2542 7.49507V7.21086H14.9699V6.92192H14.681V6.6377H14.3969V7.49507L14.3921 7.49981Z" fill="#357952"/>
<path d="M5.68081 14.6826L5.10764 14.6779H4.81396V14.9716L5.09817 14.9762V15.2605H5.38239L5.39186 15.5447H6.63764V15.2605H6.92186V14.9716H6.63764V14.6826H6.35344V14.3984H5.96975V14.6826H5.68081Z" fill="#692027"/>
<path d="M15.9126 8.36331L15.9268 8.64753H16.211V9.32016H15.9268V10.1823H16.7888V9.89801H17.3573C17.2816 9.16857 17.1536 10.0449 17.0731 9.32016C16.3485 9.23963 17.2247 9.11174 16.4999 9.03594V8.36331H16.1968L16.211 8.0791H15.9126V8.36331Z" fill="#357952"/>
<path d="M4.81396 12.0003V12.2939H5.10764V12.8624H5.68081V12.5781H5.96502V12.2892H6.35817L6.3487 12.005L6.65186 12.0098L6.64712 11.7066L5.38712 11.6924L5.10291 11.7114V11.9955H4.81871L4.81396 12.0003Z" fill="#1B2025"/>
<path d="M6.35851 12.2907V12.575H6.63325L6.63799 12.8591H5.68115V13.1528L6.92694 13.1575H7.5001V12.8591H6.93168V12.575C6.97431 12.575 7.19693 12.5843 7.22062 12.5796C7.50484 12.5323 7.55694 12.4612 7.6801 12.2718C7.80799 12.0822 7.74642 12.5181 7.78904 11.9971L7.21589 12.0207H6.93168L6.65693 12.0113L6.65221 12.2954H6.36325L6.35851 12.2907Z" fill="#18181C"/>
<path d="M12.2847 14.1082V14.3925H12.5737V14.6814H12.8579V14.9656H12.5737L12.5831 15.8277H12.8626V15.5103H13.1468V14.1082H13.5305V13.8193H12.5737V14.1035H12.2894L12.2847 14.1082Z" fill="#141013"/>
<path d="M17.0732 9.31938C17.1537 10.0441 17.2818 9.16779 17.3575 9.89248L17.9354 9.90198L18.319 9.89248V9.60833H18.6033V9.31938H18.8922V9.03516H17.3622V9.31938H17.0732Z" fill="#6E9759"/>
<path d="M11.427 7.21668V7.50089H11.1381V7.79458L10.7591 7.76142H10.4702V8.13089H10.7543V8.363H11.427V8.07879H11.7111V7.78984H12.0002V6.92773H11.7159V7.21195H11.427V7.21668Z" fill="#333941"/>
<path d="M14.1074 5.39253H14.3917V6.25464H14.6759V6.63832H14.9695V5.10832H14.3965V4.53516H14.1074V5.39253ZM15.5427 6.63832H15.9217V7.21148H16.4996L16.4854 7.48621H17.1107V7.22095L16.7885 7.23043V6.92727H16.4996V6.64307H16.2154V6.25464H15.9264V5.97043H15.5427V6.63832Z" fill="#357952"/>
<path d="M5.68115 13.4357V13.8193H5.96536V14.1035H6.35379V13.8193H6.9222V13.1561L5.68115 13.1514V13.4357Z" fill="#481C29"/>
<path d="M7.21568 14.3926H7.49989V15.2547H8.07305V14.6816H8.74568V14.3974H8.07779V14.1084H7.21094V14.3926H7.21568Z" fill="#692027"/>
<path d="M9.60791 16.7842H9.89209V17.0731H11.1379V16.5047L10.759 16.4999V16.7888H10.1764V16.4999H9.89209V16.211H10.1764V15.832H9.60791V16.7888V16.7842Z" fill="#884B17"/>
<path d="M16.7837 8.63802L17.3616 8.65223V9.03118H18.6075V8.65223H18.3185V8.36328H16.7885V8.63802H16.7837Z" fill="#357952"/>
<path d="M8.36282 12.2841V12.5732H8.07861V13.151H8.74178V12.8621H9.03072V12.5778H9.31966V12H8.7465V12.2841H8.36282Z" fill="#141013"/>
<path d="M13.5303 9.03032V9.31927H14.3924V9.89237H14.6813V9.60822H15.5434V9.31927H14.6813V9.03505H14.1081V8.65137H13.8239V9.03032H13.5303Z" fill="#E3E6FF"/>
<path d="M13.5294 12.5736V12.8577H13.1504V13.1514H13.5294V13.4357H13.8183V13.1514H14.6804V12.8625H14.3963V12.5782H14.1072V12.2893H13.8183V12.5736H13.5342H13.5294ZM13.5294 9.60828H13.1504V9.89244H12.5679V10.1815H13.8136V9.89719H14.0979V9.60828H14.3868V9.31934H13.8183V9.60354H13.5247L13.5294 9.60828Z" fill="#141013"/>
<path d="M3.95215 13.4563L4.26952 13.4752L4.24583 14.1148V14.399L4.53005 14.3943H4.81426V14.1148L4.52058 14.1195V13.8068L4.81426 13.8163L4.80478 13.4421H5.10794V13.1484H3.95215V13.4563Z" fill="#28131C"/>
<path d="M14.3929 11.0444V11.7123H14.9659V11.428H15.255V11.7123H15.5391V11.428L15.5818 11.0254L14.9659 11.0537V10.7507L14.6818 10.7553V11.0396H14.3975L14.3929 11.0444ZM10.7549 8.65223H11.1386V9.03118H10.7596V9.60908H11.1386V9.89323H11.4228V8.36328H10.7596V8.6475L10.7549 8.65223Z" fill="#141013"/>
<path d="M5.68115 11.0387V11.4366L6.63799 11.4271V11.0434H7.21115V10.7591H6.92694L6.34904 10.7402L5.97009 10.7545L5.96536 11.0387H5.68115Z" fill="#2C282A"/>
<path d="M13.5302 15.8282L13.5254 16.2119V17.0787H13.8238L13.8286 16.7945H14.1127L14.108 15.5439H13.8191V15.8282H13.5349H13.5302Z" fill="#696E7D"/>
<path d="M9.8916 15.8328H10.1759V16.2119H10.7537V16.5008H11.1374V15.8376H10.7491V15.5439H9.8916V15.8282V15.8328Z" fill="#8E732B"/>
<path d="M13.1465 6.92645H13.8191V5.68066H13.535V5.96488H13.1465V6.92645Z" fill="#6E9759"/>
<path d="M16.2153 11.043L17.8778 11.0523H18.3467L18.3184 10.7539H15.9263V11.043H16.2153Z" fill="#736E68"/>
<path d="M8.07309 15.2558H8.3573V14.9716H8.74573V15.2558H9.31888V14.6826C8.59415 14.602 9.47047 14.4741 8.74573 14.3984V14.6826H8.06836V15.2558H8.07309Z" fill="#141013"/>
<path d="M10.4699 18.8925V18.6084H10.181V18.2246H9.31885V18.8925H10.4699Z" fill="#481C29"/>
<path d="M16.2158 11.4276H17.9069L17.8784 11.0534L16.2158 11.0439V11.4276Z" fill="#24242A"/>
<path d="M13.8189 13.8194H14.103V14.1035H13.5347V14.3926H14.392V13.4404H13.8236V13.8194H13.8189Z" fill="#141013"/>
<path d="M8.06836 18.2293H9.0252L9.31888 18.2246H9.892V17.9404H8.06836V18.2293Z" fill="#692027"/>
<path d="M16.7837 10.4696H18.6075V10.1807H16.7837V10.4696Z" fill="#736E68"/>
<path d="M16.7837 10.7539H18.6027V10.4697H16.7837V10.7539Z" fill="#4F4B4E"/>
<path d="M18.6074 11.0382H18.9013L18.9154 10.7777L19.2374 10.7634L19.7586 10.7539H20.0427V10.4697H18.6076L18.6074 11.0382Z" fill="#736E68"/>
<path d="M12.2847 9.60915H12.5737V9.89331H13.1468V9.60915H12.8626V9.03125H12.2847V9.60915ZM15.9272 12.2855V12.5745H16.7847V12.2901H17.0689V12.0012H16.5005H16.2163V12.2855H15.9272Z" fill="#333941"/>
<path d="M12.2847 13.8194H13.5305V13.4404H12.2894V13.8194H12.2847Z" fill="#FFFC40"/>
<path d="M10.4702 17.6522V18.6092H10.7543V17.9412H11.1381V17.6522H10.7591V17.3633H10.4702V17.6522Z" fill="#18181C"/>
<path d="M7.21094 9.8928H8.74568V9.60864L7.49041 9.58496L7.21094 9.60391V9.8928Z" fill="#182A45"/>
<path d="M8.36182 16.2158H8.74076V16.4999H9.02972V16.2158H9.31865V15.832H8.36182V16.2158Z" fill="#8D6320"/>
<path d="M13.5302 7.50003V7.78424H12.8623V8.07319H13.8191V7.21582H13.535V7.50477L13.5302 7.50003Z" fill="#141013"/>
<path d="M14.9702 6.63948V6.9237H15.2544V5.39844H14.9702V6.63948Z" fill="#2C555D"/>
<path d="M12.5732 5.96962V6.25382H12.8575V6.92645H13.1511V5.68066H12.8622V5.96488H12.5779L12.5732 5.96962Z" fill="#24242A"/>
<path d="M12.5734 7.21668H12.2891V7.50089H13.1512V7.21668H13.5302V6.92773H12.8623V7.21195H12.5781L12.5734 7.21668Z" fill="#141013"/>
<path d="M9.89197 9.03032V9.31452L9.31885 9.33821V9.60822H10.181V8.65137H9.89672V9.03032H9.89197Z" fill="#243752"/>
<path d="M14.1074 15.5433L14.1122 16.7986L14.3965 16.7938V16.5001L14.387 16.2539V15.7801L14.3917 15.5433L14.368 15.278L14.1074 15.2686V15.5433Z" fill="#454B5A"/>
<path d="M17.0732 9.31884V9.03462H17.3573V8.65094L16.7889 8.63672L16.5 8.65094V9.02988C17.2247 9.11041 16.3484 9.23831 17.0732 9.31884Z" fill="#6E9759"/>
<path d="M7.21533 11.7174H7.77428L7.78375 12.0016L8.07744 12.0064V11.7174H8.36165V11.4189L8.07744 11.4284L7.78375 11.4332L7.49954 11.4284H7.21533V11.7174Z" fill="#18181C"/>
<path d="M16.5 8.36204H17.9353V8.07783H17.0732L16.5048 8.06836V8.36204H16.5Z" fill="#2E3858"/>
<path d="M16.5 12.0001H17.0732V12.2843H17.3621V12.0001H17.6462V11.7158H16.5V12.0001Z" fill="#6D748D"/>
<path d="M14.6812 14.6826V14.9668H14.9653V15.2558H15.2544V14.9716H15.5433V14.6826H15.259V14.3984H14.9701V14.6826H14.6812Z" fill="#9B9D41"/>
<path d="M6.6333 10.4743L6.92699 10.4696L7.50015 10.4601L7.78436 10.4648H8.06857L8.0733 10.1807H7.50015L7.21593 10.1901L6.92699 10.1854L6.63803 10.1807V10.4743H6.6333Z" fill="#18181C"/>
<path d="M18.6074 10.4696H20.0426V10.1854H19.7584L18.8916 10.1996L18.6074 10.1807V10.4696Z" fill="#4F4B4E"/>
<path d="M15.9175 7.78377H16.2301L16.2112 8.07272L16.5001 8.06799L17.0733 8.07272V7.78852L16.4716 7.8122L16.4859 7.48535L16.2112 7.49956L15.9175 7.50904V7.78377Z" fill="#357952"/>
<path d="M7.21533 10.7546V11.0389H7.49954V11.4273L7.78375 11.432L7.81218 11.0341V10.7641L7.78375 10.4657L7.49954 10.4609V10.7546H7.21533Z" fill="#4F4B4E"/>
<path d="M13.1518 8.64601V9.02971H13.5308V8.07285H13.1518V8.64601ZM10.7549 6.63759V7.21075H11.1386V6.25391H10.7596V6.63759H10.7549Z" fill="#24242A"/>
<path d="M4.81396 13.8146V14.1131L5.68081 14.1083V13.8194H5.39659V13.4404H5.10764V13.8194L4.81396 13.8146Z" fill="#481C29"/>
<path d="M14.1074 8.3622H14.3917V9.0301H14.6759V8.07324H14.1074V8.3622Z" fill="#141013"/>
<path d="M8.36171 17.6522H9.31854V17.3633H8.07275V17.6475H8.35697L8.36171 17.6522Z" fill="#692027"/>
<path d="M14.6816 9.03118V9.32013H15.5437V8.65223H15.2595V9.03118H14.6816ZM12.2847 9.60908V8.36328H12.0005V9.60908H12.2847Z" fill="#141013"/>
<path d="M15.543 10.4696H16.7839V10.1807H15.543V10.4696Z" fill="#24242A"/>
<path d="M15.5809 11.0246L15.543 11.4273H16.2156V11.0436H15.922V10.7593L15.5809 10.7168V11.0246Z" fill="#4F4B4E"/>
<path d="M12.3127 6.61865L12.2891 6.92654V7.21075H12.5734V6.92654H12.8575V6.25391H12.5734V6.64233L12.3127 6.61865Z" fill="#333941"/>
<path d="M5.38721 11.6919L6.64721 11.7061L6.63773 11.4219L5.67615 11.4361L5.39195 11.4219V11.6919H5.38721Z" fill="#453F40"/>
<path d="M8.36182 18.6095H8.74076V18.8937H9.02497V18.2305H8.36182V18.6095Z" fill="#441320"/>
<path d="M16.7837 12.8633H17.9348V12.5791H16.7885V12.8633H16.7837Z" fill="#986F2E"/>
<path d="M12.2847 7.78421V8.07316H12.8626V7.78895H13.1468V7.5H12.5783V7.78421H12.2894H12.2847Z" fill="#E3E6FF"/>
<path d="M13.5303 12.5733H13.8192V12.289H14.1033V12.0001H13.8192V11.7158H13.535V12.5733H13.5303Z" fill="#FFFC40"/>
<path d="M16.5 13.1522H17.6462V12.8633H16.5V13.1474V13.1522Z" fill="#24242A"/>
<path d="M12.2847 8.36331V8.64753L13.1515 8.64751V8.0791H12.8626V8.36331H12.2847ZM16.5005 11.7169H17.6515V11.428H16.5005V11.7169Z" fill="#333941"/>
<path d="M16.7837 10.1827H17.9348V9.89844H16.7885V10.1827H16.7837Z" fill="#24242A"/>
<path d="M4.81396 14.3926H5.96975V14.1084H5.68081L4.81396 14.1132V14.3926Z" fill="#692027"/>
<path d="M12.8718 17.956L13.156 17.9419L13.1512 17.6577V16.7861H12.8623L12.8718 17.9514V17.956Z" fill="#8D6320"/>
<path d="M13.1458 16.7843V17.0733L13.5249 17.0779V16.2158H13.1553L13.1458 16.7937V16.7843ZM9.8916 7.50003H10.4648L10.4695 7.76056H10.7537V7.21582H9.89635V7.50003H9.8916Z" fill="#24242A"/>
<path d="M10.4702 17.3632H10.7543V17.6475H11.1381V17.0791H10.4702V17.3632Z" fill="#6A2620"/>
<path d="M7.21533 13.4368V13.8204H7.78375V13.4414H7.49954V13.1572H7.21533V13.4414V13.4368Z" fill="#481C29"/>
<path d="M10.7549 20.0428H11.1386V19.7587H11.4228V19.4697L11.1386 19.4792H10.7643L10.7549 20.0428Z" fill="#895B17"/>
<path d="M7.78418 9.03032V9.324H8.36682V8.65137H8.07313V9.03032H7.78892H7.78418Z" fill="#141013"/>
<path d="M12.853 16.4999L12.8626 16.7842H13.1467L13.1562 16.2158L13.1515 15.832H12.8626L12.8578 16.4999H12.853Z" fill="#986F2E"/>
<path d="M5.67627 15.8376H5.96995L6.63311 15.8282L6.63785 15.5439H5.67627V15.8376Z" fill="#481C29"/>
<path d="M9.02972 18.8925V19.1814H9.31865V18.2245L9.02972 18.234V18.8971V18.8925ZM8.36182 17.9404H9.31865V17.6514H8.36182V17.9404Z" fill="#2B1C25"/>
<path d="M9.31885 16.2175V16.786H9.60307V15.8291H9.31885V16.2175Z" fill="#6A2620"/>
<path d="M15.543 12.8633H16.4998V12.5791H15.543V12.8633Z" fill="#986F2E"/>
<path d="M13.1512 9.60833V9.31938H13.5302V9.03516H12.8623V9.60359H13.1464L13.1512 9.60833Z" fill="#141013"/>
<path d="M15.2534 6.63751H15.5376V5.68066H15.2534V6.63751Z" fill="#6E9759"/>
<path d="M8.07275 17.3632H9.02961V17.0791H8.07275V17.3632Z" fill="#481C29"/>
<path d="M15.2534 14.3926V14.6816H15.5376V14.3974H15.926V14.1084H15.2582V14.3926H15.2534Z" fill="#888E97"/>
<path d="M11.9996 13.8193V13.4403H12.2838V13.1514H11.7153V13.8193H11.9996Z" fill="#FFFC40"/>
<path d="M11.1377 18.6084V19.1814H11.4219V18.2246H11.1377V18.6084Z" fill="#8D6320"/>
<path d="M13.1465 4.53127H13.5302V4.82023H13.8144V4.53601L13.8191 4.24707H13.1465V4.53127Z" fill="#2C555D"/>
<path d="M13.8193 6.92654V7.21075H14.1035V6.25391H13.8193V6.92654Z" fill="#357952"/>
<path d="M18.8921 10.2011L19.7542 10.1822V9.89794L19.47 9.88379L18.8921 9.89318V10.2011Z" fill="#736E68"/>
<path d="M14.3687 15.2782L14.3924 15.5435H14.6765V15.2593L14.9609 15.2545L14.9654 14.9703H14.6813L14.3687 14.9609V15.2782Z" fill="#7C828A"/>
<path d="M13.1465 4.24697H13.8191V3.86328H13.1465V4.24697Z" fill="#357952"/>
<path d="M15.543 9.31927H15.922V8.65137H15.543V9.31927Z" fill="#E3E6FF"/>
<path d="M7.78418 17.6522V17.9365L8.0684 17.9459H8.36208V17.6522H8.07788V17.3633H7.78892L7.78418 17.6475V17.6522Z" fill="#481C29"/>
<path d="M12.0003 17.3538L12.2844 17.3633V17.0791L12.2892 16.7759L12.2939 16.5059H11.9907L11.9955 17.3585L12.0003 17.3538Z" fill="#6D748D"/>
<path d="M12.2847 15.8271H12.5831L12.5737 14.9697H12.2894V15.8271H12.2847Z" fill="#F9A31B"/>
<path d="M11.4268 17.6529H11.7111V17.3545L11.7157 16.7861H11.4268V17.6529Z" fill="#8D6320"/>
<path d="M10.1812 19.1827V19.4669H10.4653L10.7637 19.4763L10.7542 19.1827V18.8984H10.47V19.1827H10.1812Z" fill="#18181C"/>
<path d="M14.3872 16.255L14.6809 16.2359L14.965 16.217V15.8334L14.6809 15.8049L14.3872 15.7812V16.255Z" fill="#7C828A"/>
<path d="M5.96973 16.2165L6.34867 16.2021H6.63288V15.8232L5.96973 15.8375V16.2165Z" fill="#895B17"/>
<path d="M6.6377 14.6826H6.92191V14.9668H7.21085V14.3984H6.64244V14.6826H6.6377Z" fill="#692027"/>
<path d="M8.74561 15.8282H9.60298V15.5439H8.74561V15.8282Z" fill="#141013"/>
<path d="M13.8193 8.07319H14.1035V7.21582H13.8193V8.07319Z" fill="#6E9759"/>
<path d="M13.8193 13.4357H14.6814V13.1514H13.8193V13.4357Z" fill="#24242A"/>
<path d="M9.60791 17.6522H10.4701V17.3633H9.60791V17.6522Z" fill="#692027"/>
<path d="M7.21533 16.7843H7.78375V16.5H7.49954V16.2158H7.21533V16.7843Z" fill="#5D8034"/>
<path d="M8.74561 16.5V16.7843H9.31876V16.2158H9.03455V16.5H8.74561Z" fill="#909132"/>
<path d="M9.8916 8.3621H10.1806V7.5H9.89635V8.3621H9.8916Z" fill="#243752"/>
<path d="M14.9702 12.0012V12.2854H15.5387V12.0012H15.2544V11.7169H14.9702V12.0012ZM15.2544 8.65226V8.36331H15.5387V8.0791H14.9702V8.64753H15.2544V8.65226Z" fill="#141013"/>
<path d="M7.5 15.544H8.35737V15.2598H7.5V15.544Z" fill="#481C29"/>
<path d="M15.9263 14.1082H16.7836V13.8193H15.9263V14.1082Z" fill="#888E97"/>
<path d="M9.60289 19.7587H10.4698V19.4697H9.8918L9.59814 19.4792L9.60289 19.7587Z" fill="#453F40"/>
<path d="M9.31885 19.1827H10.181V18.8984H9.32359V19.1827H9.31885Z" fill="#8D6320"/>
<path d="M15.9263 11.7149H16.2105V11.9991H16.4947V11.4307H15.9263V11.7149Z" fill="#141013"/>
<path d="M10.4702 19.7539L10.4797 20.3318H10.7543V20.0428L10.7639 19.4744L10.4702 19.4697V19.7539Z" fill="#909132"/>
<path d="M3.94775 13.1426H4.81934V12.8584H3.9525V13.1426H3.94775Z" fill="#8D6320"/>
<path d="M10.1859 15.2539L10.1953 15.5382H10.7542V15.2539H10.47V14.9697H10.1812L10.1859 15.2539Z" fill="#141013"/>
<path d="M13.1465 15.506V15.8329H13.5302V15.2598H13.1465V15.5108V15.506Z" fill="#696E7D"/>
<path d="M15.543 7.21559H15.922V6.6377H15.543V7.21086V7.21559Z" fill="#6E9759"/>
<path d="M13.1513 17.6521H13.5302V17.3632L13.5255 17.0791H13.1465V17.6521H13.1513Z" fill="#18181C"/>
<path d="M20.3276 10.7537H20.7113V10.1807H20.3324V10.7537H20.3276Z" fill="#E86973"/>
<path d="M6.6377 11.4276H7.21085V11.0439H6.64244V11.4228L6.6377 11.4276Z" fill="#453F40"/>
<path d="M10.7542 20.6211H10.1812V21H10.7542V20.6211Z" fill="#141013"/>
<path d="M13.1465 4.81938V5.10359H13.5302V4.53516H13.1513V4.81938H13.1465Z" fill="#6E9759"/>
<path d="M13.1465 5.68264V5.96685H13.5302V5.39844H13.1513V5.68264H13.1465Z" fill="#2C555D"/>
<path d="M15.543 8.07247L15.9124 8.08195V7.78352L15.9172 7.50879H15.5524L15.543 8.07721V8.07247Z" fill="#523C3E"/>
<path d="M18.9015 11.0439H18.6077L18.3472 11.0534L18.3946 11.4324L18.8919 11.4276L18.9015 11.0439Z" fill="#24242A"/>
<path d="M3.95215 13.8208V14.1097L4.2411 14.1145L4.26952 13.475L3.95215 13.4561V13.8208Z" fill="#481C29"/>
<path d="M5.96973 12.862H6.63763L6.63288 12.5684H6.36289L5.96973 12.5731V12.862Z" fill="#8D6320"/>
<path d="M15.5764 11.0246V10.7168H15.2543L14.9653 10.7499V11.0529L15.5812 11.0246H15.5764Z" fill="#453F40"/>
<path d="M3.28467 13.8193H3.57361V13.1514H3.28941V13.8193H3.28467Z" fill="#E86973"/>
<path d="M13.1465 3.86331H13.8191V3.5791H13.1465V3.86331Z" fill="#5F8342"/>
<path d="M12.5591 16.5018H12.8575V15.8291H12.5828L12.5591 16.5018Z" fill="#333941"/>
<path d="M12.8623 12.8633H13.5302V12.5791H12.8623V12.8633Z" fill="#FFFC40"/>
<path d="M13.1465 3.57327H13.8191V3.28906H13.1465V3.57327Z" fill="#E86973"/>
<path d="M8.07275 17.0734H8.74539V16.7891H8.0775V17.0734H8.07275Z" fill="#8D6320"/>
<path d="M13.1462 10.7553H13.819V10.4712H13.1462V10.7553ZM11.4268 9.03118H11.7111V8.36328H11.4268V9.03118Z" fill="#B9BFFB"/>
<path d="M10.7549 14.1082H11.4275V13.8193H10.7549V14.1035V14.1082Z" fill="#FFFC40"/>
<path d="M15.9263 9.31927H16.2105V8.65137H15.9263V9.31927Z" fill="#141013"/>
<path d="M11.4224 12.2841V12H10.7593V12.2841H11.4224Z" fill="#F9A31B"/>
<path d="M13.1464 14.6826H13.8143V14.3984H13.1416L13.1464 14.6826Z" fill="#9097AF"/>
<path d="M13.1465 3.28422H13.8191V3H13.1465V3.28422Z" fill="#141013"/>
<path d="M14.3917 11.7165V11.0439H14.1074V11.7119H14.3917V11.7165Z" fill="#FFFC40"/>
<path d="M3.28421 13.8193V13.1514H3V13.8193H3.28421Z" fill="#141013"/>
<path d="M12.0147 18.8971H12.2942V18.6082L12.2847 18.2197H12.0005L12.0147 18.8971Z" fill="#383124"/>
<path d="M17.0728 7.78377L17.1107 7.48535H16.4855L16.4712 7.8122L17.0728 7.78852V7.78377Z" fill="#6E9759"/>
<path d="M15.543 13.1521L16.2109 13.1426V12.8584H15.543V13.1521Z" fill="#24242A"/>
<path d="M15.5809 10.7207L15.922 10.7539H16.2109V10.4697H15.543L15.5809 10.7161V10.7207Z" fill="#383539"/>
<path d="M14.9653 15.5617H15.2591L15.5432 15.5428V15.2587H15.2591L14.9653 15.2539V15.5617Z" fill="#797981"/>
<path d="M7.8125 11.0353L8.07302 11.059L8.34776 11.078V10.7227H8.06355L7.8125 10.7653V11.0353Z" fill="#333235"/>
<path d="M10.1812 8.36232H10.4653L10.47 8.13021V7.76074L10.1812 7.78916V8.36232Z" fill="#FA6A0A"/>
<path d="M10.181 20.3318H10.4794L10.4699 19.7539H10.181V20.3318ZM9.31885 19.4697L9.60307 19.4791L9.88732 19.4743V19.1807H9.31885V19.4697Z" fill="#18181C"/>
<path d="M7.21094 17.3669H7.49989L7.78409 17.3622V17.078L7.21094 17.0732V17.3669Z" fill="#6A2620"/>
<path d="M14.0985 14.6815H14.6811V14.3973L14.397 14.3926H14.0938L14.0985 14.6767V14.6815Z" fill="#747A8A"/>
<path d="M18.3193 10.1816H18.6036L18.8925 10.2005V9.89258H18.3193V10.1816Z" fill="#24242A"/>
<path d="M6.92725 10.7546H7.5004V10.4609L6.92725 10.4705V10.7546Z" fill="#736E68"/>
<path d="M13.8193 15.2545L14.1035 15.2687L14.3688 15.2782V14.9609H14.1082L13.8241 14.9703V15.2545H13.8193Z" fill="#696E7D"/>
<path d="M7.21094 12.0197L7.77937 11.9961V11.7119H7.21094V12.0197Z" fill="#4A5462"/>
<path d="M10.7542 16.5H10.1812V16.7889H10.759V16.5H10.7542Z" fill="#8E732B"/>
<path d="M12.2847 18.2253H12.8721V17.9553L12.2847 17.9316V18.2253Z" fill="#383124"/>
<path d="M13.5303 15.2539V15.5382H13.8144L13.8192 15.2539V14.9697H13.535V15.2539H13.5303Z" fill="#7C828A"/>
<path d="M10.4653 6.92401V7.21295H10.7542V6.64453H10.4701V6.92874L10.4653 6.92401Z" fill="#785744"/>
<path d="M7.21094 17.0734H7.78884V16.7891H7.21094V17.0734Z" fill="#186129"/>
<path d="M13.8193 5.10941V5.39362H14.1035V4.8252H13.8193V5.10941ZM14.1082 5.39362H14.3925V7.50151H14.1082V5.39362Z" fill="#2E3858"/>
<path d="M9.02979 12.0001H9.60294V11.7158H9.03452V12.0001H9.02979Z" fill="#E3E6FF"/>
<path d="M9.02979 17.0734H9.60294V16.7891H9.03452V17.0734H9.02979Z" fill="#8D6320"/>
<path d="M12.2847 12.0009H12.5737V11.4277H12.2894V12.0009H12.2847Z" fill="#F9A31B"/>
<path d="M13.5303 8.65226H13.8192V8.0791H13.535V8.64753L13.5303 8.65226Z" fill="#6E9759"/>
<path d="M9.02979 10.7539H9.60767V10.4697H9.02979V10.7539Z" fill="#F9A31B"/>
<path d="M6.92725 14.3925H7.21145V13.8193H6.92725V14.3925Z" fill="#909132"/>
<path d="M10.1812 14.9704H10.4653V14.3926H10.1812V14.9704Z" fill="#FFFC40"/>
<path d="M12 10.7539V10.4697H11.4268V10.7539H12Z" fill="#FA6A0A"/>
<path d="M12.2847 14.3925V13.8193H12.0005V14.3925H12.2847Z" fill="#FFFC40"/>
<path d="M6.92725 16.7843H7.21145V16.2158H6.92725V16.7843Z" fill="#186129"/>
<path d="M7.21533 14.1082H7.78375V13.8193H7.21533V14.1082Z" fill="#8D6320"/>
<path d="M12.2847 5.97159H12.5737V5.39844H12.2894V5.96685L12.2847 5.97159Z" fill="#24242A"/>
<path d="M12.2847 8.36331H12.8626V8.0791H12.2847V8.36331Z" fill="#141013"/>
<path d="M9.31885 17.3632H9.89197V17.0791H9.31885V17.3632Z" fill="#481C29"/>
<path fill-rule="evenodd" clip-rule="evenodd" d="M9.8916 17.3632H10.4695V17.0791H9.8916V17.3632Z" fill="#18181C"/>
<path fill-rule="evenodd" clip-rule="evenodd" d="M11.4268 12.5734H12V12.2891H11.4268V12.5734Z" fill="#F9A31B"/>
<path fill-rule="evenodd" clip-rule="evenodd" d="M12.5732 5.39362H12.8575V4.8252H12.5732V5.39362Z" fill="#24242A"/>
<path fill-rule="evenodd" clip-rule="evenodd" d="M7.21533 14.9704H7.49954V14.3926H7.21533V14.9704Z" fill="#909132"/>
<path fill-rule="evenodd" clip-rule="evenodd" d="M9.89187 17.9361H10.465V17.6518H9.89662V17.9361H9.89187ZM6.6377 15.544H7.21085V15.2598H6.64244V15.544H6.6377Z" fill="#481C29"/>
<path fill-rule="evenodd" clip-rule="evenodd" d="M15.2534 6.92874V7.21295H15.5376V6.64453H15.2534V6.92874Z" fill="#357952"/>
<path fill-rule="evenodd" clip-rule="evenodd" d="M8.74561 15.544H9.31876V15.2598H8.74561V15.544Z" fill="#E3E6FF"/>
<path fill-rule="evenodd" clip-rule="evenodd" d="M14.1074 8.07316H14.3917V7.5H14.1074V8.07316Z" fill="#2C555D"/>
<path fill-rule="evenodd" clip-rule="evenodd" d="M14.6812 13.4357H15.2544V13.1514H14.6812V13.4357Z" fill="#141013"/>
<path fill-rule="evenodd" clip-rule="evenodd" d="M17.0732 8.07327H17.6511V7.78906H17.078V8.07327H17.0732Z" fill="#6E9759"/>
<path fill-rule="evenodd" clip-rule="evenodd" d="M9.60791 12.5732H9.89209V12H9.60791V12.5732Z" fill="#E3E6FF"/>
<path fill-rule="evenodd" clip-rule="evenodd" d="M10.4702 9.60915H10.7543V9.03125H10.4702V9.60915Z" fill="#F9A31B"/>
<path fill-rule="evenodd" clip-rule="evenodd" d="M13.8193 10.1827H14.3925V9.89844H13.8193V10.1827Z" fill="#E3E6FF"/>
<path fill-rule="evenodd" clip-rule="evenodd" d="M20.7158 10.7537H21V10.1807H20.7158V10.7537Z" fill="#141013"/>
<path fill-rule="evenodd" clip-rule="evenodd" d="M14.6812 13.1522H15.2544V12.8633H14.6812V13.1522Z" fill="#F9A31B"/>
<path fill-rule="evenodd" clip-rule="evenodd" d="M6.35352 14.1082H6.92193V13.8193H6.35352V14.1035V14.1082Z" fill="#692027"/>
<path fill-rule="evenodd" clip-rule="evenodd" d="M15.5433 12.5734V12.2891H14.9702V12.5734H15.5433Z" fill="#F9A31B"/>
<path fill-rule="evenodd" clip-rule="evenodd" d="M15.9263 14.3926H16.4994V14.1084H15.9263V14.3926Z" fill="#986F2E"/>
<path fill-rule="evenodd" clip-rule="evenodd" d="M20.043 10.7537H20.3272V10.1807H20.043V10.7537Z" fill="#141013"/>
<path fill-rule="evenodd" clip-rule="evenodd" d="M10.1812 16.5H10.7542V16.2158H10.1812V16.5Z" fill="#884B17"/>
<path fill-rule="evenodd" clip-rule="evenodd" d="M10.1812 20.6209H10.7542V20.332H10.1812V20.6162V20.6209Z" fill="#BC4A9B"/>
<path fill-rule="evenodd" clip-rule="evenodd" d="M5.10791 14.6767H5.67634V14.3926H5.10791V14.6767Z" fill="#909132"/>
<path fill-rule="evenodd" clip-rule="evenodd" d="M4.81885 12.5724V12.8566H5.10305V12.2976L4.81885 12.293V12.5771V12.5724Z" fill="#8D6320"/>
<path fill-rule="evenodd" clip-rule="evenodd" d="M11.1377 15.538H11.7061L11.7109 15.2539H11.1425V15.538H11.1377Z" fill="#F9A31B"/>
<path fill-rule="evenodd" clip-rule="evenodd" d="M18.8921 9.89256L19.47 9.88316V9.6084H18.8969V9.89256H18.8921Z" fill="#24242A"/>
<path fill-rule="evenodd" clip-rule="evenodd" d="M13.8193 14.6767V14.9704L14.1035 14.961V14.6767L14.0941 14.3926H13.8193V14.6767Z" fill="#454B5A"/>
<path fill-rule="evenodd" clip-rule="evenodd" d="M8.06836 10.4648V10.7206H8.35257L8.37152 10.4601V10.1807H8.07309V10.4648H8.06836Z" fill="#444249"/>
<path fill-rule="evenodd" clip-rule="evenodd" d="M6.34912 10.7398L6.92702 10.7539V10.4697H6.34912V10.7398Z" fill="#453F40"/>
<path fill-rule="evenodd" clip-rule="evenodd" d="M19.2096 11.0432H19.7544V10.759L19.2333 10.7636L19.2096 11.0432ZM10.4702 8.36213V8.64635H10.7543V8.13477H10.4702V8.36688V8.36213Z" fill="#24242A"/>
<path fill-rule="evenodd" clip-rule="evenodd" d="M15.543 13.8194H15.922V13.4404H15.543V13.8194Z" fill="#9097AF"/>
<path fill-rule="evenodd" clip-rule="evenodd" d="M10.7549 9.03032H11.1386V8.65137H10.7596V9.03032H10.7549Z" fill="#F9A31B"/>
<path fill-rule="evenodd" clip-rule="evenodd" d="M10.7549 18.6084H11.1386V18.2246H10.7596V18.6036L10.7549 18.6084Z" fill="#B48C53"/>
<path fill-rule="evenodd" clip-rule="evenodd" d="M13.1561 16.2158H13.5257L13.5304 15.832H13.1514V16.211L13.1561 16.2158Z" fill="#40424F"/>
<path fill-rule="evenodd" clip-rule="evenodd" d="M3.57324 13.8182H3.9522V13.4535L3.57324 13.4346V13.8182Z" fill="#141013"/>
<path fill-rule="evenodd" clip-rule="evenodd" d="M3.57324 13.4354L3.9522 13.4543V13.1416L3.57324 13.1511V13.4354Z" fill="#895B17"/>
<path fill-rule="evenodd" clip-rule="evenodd" d="M6.62842 16.2033L6.92684 16.2129V15.8338L6.62842 15.8291V16.2081V16.2033Z" fill="#909132"/>
<path fill-rule="evenodd" clip-rule="evenodd" d="M5.96973 16.4996H6.34867V16.2012L5.96973 16.2107V16.4996Z" fill="#BC4A9B"/>
<path fill-rule="evenodd" clip-rule="evenodd" d="M4.81416 13.8146L5.10783 13.8194V13.4404H4.80469L4.81416 13.8146Z" fill="#544558"/>
<path fill-rule="evenodd" clip-rule="evenodd" d="M11.1383 19.4743V19.1807H10.7593L10.764 19.4743H11.1383Z" fill="#909132"/>
<path fill-rule="evenodd" clip-rule="evenodd" d="M13.1416 14.3926H13.5301V14.1084H13.1416V14.3926Z" fill="#7C828A"/>
<path fill-rule="evenodd" clip-rule="evenodd" d="M7.21533 11.4275H7.49954V11.0391H7.21533V11.4275Z" fill="#6D6973"/>
<path fill-rule="evenodd" clip-rule="evenodd" d="M5.96973 12.5734H6.36289L6.35341 12.2891H5.96973V12.5734Z" fill="#4A5462"/>
<path fill-rule="evenodd" clip-rule="evenodd" d="M5.39209 11.4227L5.6763 11.437V11.0391H5.39209V11.4227Z" fill="#E86973"/>
<path fill-rule="evenodd" clip-rule="evenodd" d="M13.1513 14.9697H13.5302V14.6807H13.1465V14.9649L13.1513 14.9697Z" fill="#696E7D"/>
<path fill-rule="evenodd" clip-rule="evenodd" d="M15.5524 7.51033H15.9172L15.9265 7.21191H15.543L15.5524 7.51033Z" fill="#357952"/>
<path fill-rule="evenodd" clip-rule="evenodd" d="M10.7549 19.1827H11.1386V18.8984H10.7596V19.1827H10.7549Z" fill="#B8BA65"/>
<path fill-rule="evenodd" clip-rule="evenodd" d="M12.2847 9.03032H12.5737V8.65137H12.2894V9.03032H12.2847ZM12.8626 9.03032H13.1468V8.65137H12.8626V9.03032Z" fill="#6D748D"/>
<path fill-rule="evenodd" clip-rule="evenodd" d="M15.543 14.9697H15.922V14.6854L15.543 14.6807V14.9697Z" fill="#888E97"/>
<path fill-rule="evenodd" clip-rule="evenodd" d="M13.1465 15.2539H13.5302V14.9697H13.1513L13.1465 15.2539Z" fill="#8D6320"/>
<path fill-rule="evenodd" clip-rule="evenodd" d="M15.543 14.6826H15.922V14.3984H15.543V14.6826Z" fill="#986F2E"/>
<path fill-rule="evenodd" clip-rule="evenodd" d="M5.96973 14.3926H6.34867V14.1084H5.96973V14.3926Z" fill="#B8BA65"/>
<path fill-rule="evenodd" clip-rule="evenodd" d="M12.5732 18.6095H12.8575L12.8717 18.2305H12.5732V18.6095Z" fill="#BC4A9B"/>
<path fill-rule="evenodd" clip-rule="evenodd" d="M8.07275 16.2158H8.35697L8.36171 15.832H8.0775V16.211L8.07275 16.2158Z" fill="#909132"/>
<path fill-rule="evenodd" clip-rule="evenodd" d="M8.37128 10.1816L8.7455 10.1864V9.89258H8.36182L8.37128 10.1816Z" fill="#B5704A"/>
<path fill-rule="evenodd" clip-rule="evenodd" d="M13.1465 13.4357H13.5302V13.1514H13.1513V13.4357H13.1465Z" fill="#FED541"/>
<path fill-rule="evenodd" clip-rule="evenodd" d="M8.36182 16.5H8.74076V16.2158H8.36182V16.5Z" fill="#909132"/>
<path fill-rule="evenodd" clip-rule="evenodd" d="M7.78418 9.02962H8.07313V8.65067H7.78892V9.02962H7.78418ZM10.1811 6.63751H10.4652V6.25855H10.1811V6.63751ZM10.7541 5.96962H11.1379V5.68066H10.7589V5.96488L10.7541 5.96962Z" fill="#E86973"/>
<path fill-rule="evenodd" clip-rule="evenodd" d="M18.6074 9.03032H18.8916V8.65137H18.6074V9.03032Z" fill="#5F8342"/>
<path fill-rule="evenodd" clip-rule="evenodd" d="M14.1074 4.24697H14.3917V3.86328H14.1074V4.24697Z" fill="#E86973"/>
<path fill-rule="evenodd" clip-rule="evenodd" d="M8.36182 8.07327H8.74076V7.78906H8.36182V8.07327Z" fill="#141013"/>
<path fill-rule="evenodd" clip-rule="evenodd" d="M12.8623 4.24697H13.1464V3.86328H12.8623V4.24697ZM16.5001 6.63907V6.26013H16.216V6.63907H16.5001Z" fill="#5F8342"/>
<path fill-rule="evenodd" clip-rule="evenodd" d="M15.543 5.68264H15.922V5.39844H15.543V5.68264ZM17.9351 8.07474H18.3187V7.79054H17.9399V8.07474H17.9351Z" fill="#E86973"/>
<path fill-rule="evenodd" clip-rule="evenodd" d="M14.9702 16.2158H15.2544V15.832H14.9702V16.2158Z" fill="#BC4A9B"/>
<path fill-rule="evenodd" clip-rule="evenodd" d="M12.5732 4.24697H12.8575V3.86328H12.5732V4.24697ZM16.5 6.63907H16.7843V6.26012L16.5 6.26013V6.63907ZM18.8921 9.03118H19.1811V8.65223H18.8969V9.03118H18.8921Z" fill="#E86973"/>
<path fill-rule="evenodd" clip-rule="evenodd" d="M8.36182 16.7842H8.74076V16.5H8.36182V16.7842Z" fill="#A6AA51"/>
<path fill-rule="evenodd" clip-rule="evenodd" d="M17.9351 8.36172H18.3187V8.07751H17.9399V8.36172H17.9351ZM15.543 5.96962H15.922V5.68066H15.543V5.96962Z" fill="#26653C"/>
<path fill-rule="evenodd" clip-rule="evenodd" d="M15.543 14.1082H15.922V13.8193H15.543V14.1082Z" fill="#747A8A"/>
<path fill-rule="evenodd" clip-rule="evenodd" d="M6.92725 16.2158H7.21145V15.832H6.92725V16.211V16.2158Z" fill="#884B17"/>
<path fill-rule="evenodd" clip-rule="evenodd" d="M15.543 12.0001H15.922V11.7158H15.543V12.0001Z" fill="#141013"/>
<path fill-rule="evenodd" clip-rule="evenodd" d="M10.7549 12.0001H11.1386V11.7158H10.7596V12.0001H10.7549Z" fill="#FA6A0A"/>
<path fill-rule="evenodd" clip-rule="evenodd" d="M14.3921 13.8194H14.681V13.4404H14.3969V13.8194H14.3921Z" fill="#5B6478"/>
<path fill-rule="evenodd" clip-rule="evenodd" d="M13.1465 5.39261H13.5302V5.1084H13.1513V5.39261H13.1465Z" fill="#8AB47F"/>
<path fill-rule="evenodd" clip-rule="evenodd" d="M17.9351 12.8633H18.3187V12.5791H17.9398V12.8633H17.9351Z" fill="#141013"/>
<path fill-rule="evenodd" clip-rule="evenodd" d="M12.2842 11.4276H12.5732L12.5731 11.0439H12.289V11.4228L12.2842 11.4276ZM10.1812 11.4276H10.4653V11.0439H10.1812V11.4228V11.4276Z" fill="#FA6A0A"/>
<path fill-rule="evenodd" clip-rule="evenodd" d="M19.7539 11.4276H20.038V11.0439H19.7539V11.4276Z" fill="#BC4A9B"/>
<path fill-rule="evenodd" clip-rule="evenodd" d="M6.92725 13.8194H7.21145V13.4404H6.92725V13.8194Z" fill="#8D6320"/>
<path fill-rule="evenodd" clip-rule="evenodd" d="M10.47 18.6084V18.2246H10.1812V18.6036H10.4653L10.47 18.6084Z" fill="#5F3547"/>
<path fill-rule="evenodd" clip-rule="evenodd" d="M10.7549 18.2246H11.1386V17.9404H10.7596V18.2246H10.7549Z" fill="#8D6320"/>
<path fill-rule="evenodd" clip-rule="evenodd" d="M13.5303 9.03032H13.8192V8.65137H13.535V9.03032H13.5303Z" fill="#141013"/>
<path fill-rule="evenodd" clip-rule="evenodd" d="M10.47 13.4354H10.1812V13.8189H10.4653V13.44L10.47 13.4354ZM13.1464 7.50003H13.5301V7.21582H13.1511V7.50003H13.1464Z" fill="#E3E6FF"/>
<path fill-rule="evenodd" clip-rule="evenodd" d="M10.7549 9.89256H11.1386V9.6084H10.7596V9.89256H10.7549Z" fill="#F9A31B"/>
<path fill-rule="evenodd" clip-rule="evenodd" d="M9.8916 6.63872H10.1806V6.25977H9.89635V6.63872H9.8916ZM11.9995 13.8197H12.2838V13.4408H11.9995V13.8197Z" fill="#141013"/>
<path fill-rule="evenodd" clip-rule="evenodd" d="M15.543 12.2841H15.922V12H15.543V12.2841Z" fill="#F9A31B"/>
<path fill-rule="evenodd" clip-rule="evenodd" d="M15.5429 12.5744H15.9218V12.2901H15.5429V12.5744ZM6.34867 16.7854V16.5012H5.96973V16.7854H6.34867ZM12.2839 4.24697H12.5729V3.86328H12.2887V4.24223L12.2839 4.24697Z" fill="#141013"/>
<path fill-rule="evenodd" clip-rule="evenodd" d="M13.5303 13.8194H13.8192V13.4404H13.535V13.8194H13.5303Z" fill="#F9A31B"/>
<path fill-rule="evenodd" clip-rule="evenodd" d="M10.4702 6.63872H10.7543V6.25977H10.4702V6.63872Z" fill="#69432D"/>
<path fill-rule="evenodd" clip-rule="evenodd" d="M11.1383 10.1827V9.89844H10.7593V10.1827H11.1383Z" fill="#FA6A0A"/>
<path fill-rule="evenodd" clip-rule="evenodd" d="M13.1512 11.4276V11.0439H12.8623V11.4228H13.1464L13.1512 11.4276Z" fill="#E3E6FF"/>
<path fill-rule="evenodd" clip-rule="evenodd" d="M8.36182 12.2841H8.74076V12H8.36182V12.2841Z" fill="#B9BFFB"/>
<path fill-rule="evenodd" clip-rule="evenodd" d="M10.1812 11.4276V11.0439H9.89697V11.4228H10.1812V11.4276ZM12.2843 11.4276V11.0439H12.0002V11.4228H12.2843V11.4276Z" fill="#F9A31B"/>
<path fill-rule="evenodd" clip-rule="evenodd" d="M8.36182 15.544H8.74076V15.2598H8.36182V15.544Z" fill="#141013"/>
<path fill-rule="evenodd" clip-rule="evenodd" d="M8.36182 15.2539H8.74076V14.9697H8.36182V15.2539Z" fill="#E3E6FF"/>
<path fill-rule="evenodd" clip-rule="evenodd" d="M10.7549 6.25393H11.1386V5.96973H10.7596V6.25393H10.7549Z" fill="#141013"/>
<path fill-rule="evenodd" clip-rule="evenodd" d="M13.1465 9.60828H13.5302V9.31934H13.1513V9.60354L13.1465 9.60828Z" fill="#E3E6FF"/>
<path fill-rule="evenodd" clip-rule="evenodd" d="M19.4698 11.4276H19.7539V11.0439H19.4698V11.4276ZM20.0428 11.4276H20.3272V11.0439H20.0428V11.4276ZM8.36182 14.3929H8.74076V14.1086H8.36182V14.3929ZM8.7455 19.1818V18.8976H8.36182V19.1818H8.7455Z" fill="#141013"/>
<path fill-rule="evenodd" clip-rule="evenodd" d="M13.1465 7.78421H13.5302V7.5H13.1513V7.78421H13.1465Z" fill="#B9BFFB"/>
<path fill-rule="evenodd" clip-rule="evenodd" d="M9.89209 9.03032V8.65137H9.60791V9.03032H9.89209Z" fill="#4A69A9"/>
<path fill-rule="evenodd" clip-rule="evenodd" d="M8.36182 15.8282H8.74076V15.5439H8.36182V15.8282Z" fill="#692027"/>
<path fill-rule="evenodd" clip-rule="evenodd" d="M14.3917 9.03032V8.65137H14.1074V9.03032H14.3917Z" fill="#B9BFFB"/>
<path fill-rule="evenodd" clip-rule="evenodd" d="M17.9351 13.1522H18.3187V12.8633H17.9398V13.1474L17.9351 13.1522Z" fill="#BC4A9B"/>
<path fill-rule="evenodd" clip-rule="evenodd" d="M5.6807 13.8194V13.4404H5.39648V13.8194H5.6807Z" fill="#70455C"/>
<path fill-rule="evenodd" clip-rule="evenodd" d="M7.78418 13.8193H8.07313V13.4403H7.78892V13.8193H7.78418ZM17.9353 13.4357H18.3189V13.1514H17.94V13.4357H17.9353Z" fill="#141013"/>
<path fill-rule="evenodd" clip-rule="evenodd" d="M8.36182 18.8925H8.74076V18.6084H8.36182V18.8925Z" fill="#BC4A9B"/>
<path fill-rule="evenodd" clip-rule="evenodd" d="M20.3322 10.1823H20.711V9.89798H20.3322V10.1823ZM7.5 9.03118H7.78421V8.65223H7.5V9.03118ZM10.7541 5.68224H11.1379V5.39802H10.7589V5.68224H10.7541ZM20.3274 11.0444H20.711V10.7601H20.3322V11.0444H20.3274ZM15.5432 5.39328H15.922V5.10908H15.5432V5.39328ZM14.3921 4.24697H14.6811V3.86328H14.3969V4.24223L14.3921 4.24697ZM17.9353 7.78538H18.3189V7.50117H17.94V7.78538H17.9353ZM19.181 9.03118H19.4653V8.65223H19.181V9.03118ZM17.6462 13.8201H17.9353V13.4411H17.651V13.8201H17.6462Z" fill="#141013"/>
<path fill-rule="evenodd" clip-rule="evenodd" d="M13.8193 4.24697H14.1035V3.86328H13.8193V4.24697Z" fill="#1E2342"/>
<path fill-rule="evenodd" clip-rule="evenodd" d="M16.7837 6.63872H17.0727V6.25977H16.7885V6.63872H16.7837Z" fill="#141013"/>
<path fill-rule="evenodd" clip-rule="evenodd" d="M10.7549 7.50003H11.1386V7.21582H10.7596V7.50003H10.7549Z" fill="#333941"/>
<path fill-rule="evenodd" clip-rule="evenodd" d="M7.21533 16.2158H7.49954V15.832H7.21533V16.2158Z" fill="#3A722D"/>
<path fill-rule="evenodd" clip-rule="evenodd" d="M7.5 16.2158H7.78421V15.832H7.5V16.2158Z" fill="#5D8034"/>
<path fill-rule="evenodd" clip-rule="evenodd" d="M10.7549 20.3329H11.1386V20.0439H10.7596V20.3282L10.7549 20.3329Z" fill="#BC4A9B"/>
<path fill-rule="evenodd" clip-rule="evenodd" d="M14.3921 6.63872H14.681V6.25977H14.3969V6.63872H14.3921Z" fill="#529678"/>
<path fill-rule="evenodd" clip-rule="evenodd" d="M15.2534 16.2166H15.5376V15.8328H15.2534V16.2166ZM15.5423 15.8282H15.9213V15.5439H15.5423V15.8282Z" fill="#141013"/>
<path fill-rule="evenodd" clip-rule="evenodd" d="M15.543 15.2539H15.922V14.9697H15.543V15.2539Z" fill="#797981"/>
<path fill-rule="evenodd" clip-rule="evenodd" d="M10.7549 18.8925H11.1386V18.6084H10.7596V18.8925H10.7549Z" fill="#909132"/>
<path fill-rule="evenodd" clip-rule="evenodd" d="M7.78418 16.2158H8.07313V15.832H7.78892V16.211L7.78418 16.2158Z" fill="#B07449"/>
<path fill-rule="evenodd" clip-rule="evenodd" d="M15.543 11.7166H15.922V11.4277H15.543V11.7166Z" fill="#24242A"/>
<path fill-rule="evenodd" clip-rule="evenodd" d="M15.5433 15.5435H15.9223V15.2593H15.5433V15.5435ZM3.57324 14.1082H3.9522V13.8193H3.57324V14.1082Z" fill="#BC4A9B"/>
<path fill-rule="evenodd" clip-rule="evenodd" d="M10.7549 15.544H11.1386V15.2598H10.7596L10.7549 15.544Z" fill="#FED541"/>
<path fill-rule="evenodd" clip-rule="evenodd" d="M17.3618 13.8194H17.6459L17.646 13.4404H17.3618V13.8194Z" fill="#BC4A9B"/>
<path fill-rule="evenodd" clip-rule="evenodd" d="M12.5732 9.03032H12.8575V8.65137H12.5732V9.03032Z" fill="#4A5462"/>
<path fill-rule="evenodd" clip-rule="evenodd" d="M10.7549 20.6209H11.1386V20.332H10.7596V20.6162L10.7549 20.6209Z" fill="#141013"/>
<path fill-rule="evenodd" clip-rule="evenodd" d="M17.0732 13.8194H17.3575L17.3622 13.4404H17.078V13.8194H17.0732Z" fill="#656574"/>
<path fill-rule="evenodd" clip-rule="evenodd" d="M5.97002 10.4696H6.34897V10.1807H5.97002V10.4696ZM5.10791 11.4264H5.39213V11.0427H5.10791V11.4264ZM13.1463 18.2238H13.5301V17.9396H13.1511V18.2238H13.1463Z" fill="#141013"/>
<path fill-rule="evenodd" clip-rule="evenodd" d="M12.2891 18.6084H12.5734V18.2294L12.2891 18.2246V18.6084Z" fill="#8C892A"/>
<path fill-rule="evenodd" clip-rule="evenodd" d="M8.07325 18.609H8.35747V18.23H8.07325V18.609ZM5.68115 16.2169H5.96536V15.8379H5.68115V16.2169Z" fill="#793A80"/>
<path fill-rule="evenodd" clip-rule="evenodd" d="M8.35742 8.35746H8.74584V8.07324H8.36216L8.35742 8.35746Z" fill="#E86973"/>
<path fill-rule="evenodd" clip-rule="evenodd" d="M3.95659 14.3926V14.1084H3.57764V14.3926H3.95659Z" fill="#141013"/>
<path fill-rule="evenodd" clip-rule="evenodd" d="M13.1514 17.9404H13.5304L13.5351 17.6514H13.1514V17.9404Z" fill="#BC4A9B"/>
<path fill-rule="evenodd" clip-rule="evenodd" d="M3.57324 12.8633H3.9522L3.95694 12.5791H3.57799V12.8633H3.57324Z" fill="#141013"/>
<path fill-rule="evenodd" clip-rule="evenodd" d="M17.9351 10.1827H18.3187V9.89844H17.9398V10.1827H17.9351Z" fill="#40424F"/>
<path fill-rule="evenodd" clip-rule="evenodd" d="M5.6807 16.217V15.838L5.39648 15.8285V16.2123H5.6807V16.217ZM8.0728 18.6091V18.2302L7.7886 18.2254V18.6044H8.0728V18.6091ZM15.5428 8.65223H15.9218L15.9124 8.36328H15.5428V8.65223ZM12.8618 18.6091H13.1459V18.2254H12.8666L12.8618 18.6044V18.6091Z" fill="#141013"/>
<path fill-rule="evenodd" clip-rule="evenodd" d="M3.57324 13.1521L3.9522 13.1426V12.8584H3.57324V13.1521Z" fill="#E86973"/>
<path fill-rule="evenodd" clip-rule="evenodd" d="M12.2847 15.832H12.0005V16.211H12.2847V15.832Z" fill="#F9A31B"/>
<path fill-rule="evenodd" clip-rule="evenodd" d="M8.35254 10.7215L8.74569 10.7546V10.4609H8.37148L8.35254 10.7215Z" fill="#67615A"/>
<path fill-rule="evenodd" clip-rule="evenodd" d="M11.4268 16.2169H11.7111V15.8379H11.4268V16.2169Z" fill="#909132"/>
<path fill-rule="evenodd" clip-rule="evenodd" d="M5.96533 10.7538L6.34429 10.7396V10.4648H5.96533V10.7538Z" fill="#E86973"/>
<path fill-rule="evenodd" clip-rule="evenodd" d="M7.78418 11.4328L8.07313 11.4282V11.0539L7.81261 11.0303L7.78418 11.4282V11.4328Z" fill="#736E68"/>
<path fill-rule="evenodd" clip-rule="evenodd" d="M10.7549 7.76053L11.1386 7.79369V7.5H10.7596V7.76053H10.7549Z" fill="#6D748D"/>
<path fill-rule="evenodd" clip-rule="evenodd" d="M15.543 8.3622H15.9124V8.08272L15.543 8.07324V8.3622Z" fill="#333235"/>
<path fill-rule="evenodd" clip-rule="evenodd" d="M19.1807 11.4276H19.4649V11.0439H19.209L19.1807 11.4228V11.4276Z" fill="#4A5462"/>
<path fill-rule="evenodd" clip-rule="evenodd" d="M12.3174 6.61874L12.5733 6.64242V6.254L12.3174 6.22559V6.61874Z" fill="#24242A"/>
<path fill-rule="evenodd" clip-rule="evenodd" d="M8.07275 11.4281L8.36171 11.4186L8.34749 11.0777L8.07275 11.0586V11.4281Z" fill="#4F4B4E"/>
<path fill-rule="evenodd" clip-rule="evenodd" d="M12.0005 6.92801H12.2847L12.3178 6.62012H12.0005V6.92801Z" fill="#4A5462"/>
<path fill-rule="evenodd" clip-rule="evenodd" d="M12.8623 15.829H13.1464V15.5117H12.8623V15.829Z" fill="#24242A"/>
<path fill-rule="evenodd" clip-rule="evenodd" d="M17.1113 7.22141L17.0734 6.92773H16.7891V7.2309L17.1113 7.22141Z" fill="#5F8342"/>
<path fill-rule="evenodd" clip-rule="evenodd" d="M4.81419 14.1126V13.8141L4.52051 13.8047V14.1173H4.81419V14.1126Z" fill="#544558"/>
<path fill-rule="evenodd" clip-rule="evenodd" d="M15.9126 8.08275L16.211 8.07327L16.2299 7.78906H15.9174L15.9126 8.08275Z" fill="#4B557D"/>
<path fill-rule="evenodd" clip-rule="evenodd" d="M7.21145 12.0237V11.7158H6.92725V12.0237H7.21145Z" fill="#2E3239"/>
<path fill-rule="evenodd" clip-rule="evenodd" d="M16.4999 8.36204V8.06836L16.2158 8.07309L16.1968 8.36204H16.4999Z" fill="#4B557D"/>
<path fill-rule="evenodd" clip-rule="evenodd" d="M8.74561 9.89256H9.02983L9.07718 9.6226L8.74561 9.6084V9.89256Z" fill="#405478"/>
<path fill-rule="evenodd" clip-rule="evenodd" d="M6.64746 12.0102L6.93167 12.0196V11.7164L6.64746 11.707V12.0102Z" fill="#40424F"/>
<path fill-rule="evenodd" clip-rule="evenodd" d="M11.7153 6.92801H11.9996V6.62012L11.7153 6.63906V6.92801Z" fill="#6D748D"/>
<path fill-rule="evenodd" clip-rule="evenodd" d="M6.63789 16.4996H6.92211V16.2154L6.62842 16.2012L6.63789 16.4996Z" fill="#884B17"/>
<path fill-rule="evenodd" clip-rule="evenodd" d="M14.3687 14.9602L14.6813 14.9697V14.6807H14.3972L14.3687 14.9649V14.9602Z" fill="#B8BA65"/>
<path fill-rule="evenodd" clip-rule="evenodd" d="M9.8916 15.544H10.1948L10.1854 15.2598H9.8916V15.544Z" fill="#481C29"/>
<path fill-rule="evenodd" clip-rule="evenodd" d="M10.4609 9.90206L10.7546 9.89256V9.6084H10.4704L10.4609 9.90206Z" fill="#FA6A0A"/>
<path fill-rule="evenodd" clip-rule="evenodd" d="M15.552 7.51033L15.5425 7.21191H15.2583V7.49613L15.552 7.51033Z" fill="#497383"/>
<path fill-rule="evenodd" clip-rule="evenodd" d="M14.6812 15.5428L14.9653 15.5617V15.2539H14.6812V15.5428Z" fill="#8D6320"/>
<path fill-rule="evenodd" clip-rule="evenodd" d="M9.8916 19.4743L10.1806 19.4649V19.1807H9.8916V19.4743Z" fill="#2E3239"/>
<path fill-rule="evenodd" clip-rule="evenodd" d="M6.34912 16.4996H6.63807L6.6286 16.2012H6.34912V16.4996Z" fill="#8C892A"/>
<path fill-rule="evenodd" clip-rule="evenodd" d="M15.9175 7.50951L16.2112 7.50003V7.21582H15.9268L15.9175 7.50951Z" fill="#523C3E"/>
<path fill-rule="evenodd" clip-rule="evenodd" d="M7.21568 10.191L7.49989 10.1864V9.89258H7.21094V10.191H7.21568Z" fill="#FA6A0A"/>
<path fill-rule="evenodd" clip-rule="evenodd" d="M11.7155 19.1827H11.9998L12.014 18.8984H11.7109V19.1827H11.7155Z" fill="#141013"/>
<path fill-rule="evenodd" clip-rule="evenodd" d="M6.92725 10.1864H7.21145V9.89258H6.92725V10.1864Z" fill="#895B17"/>
<path fill-rule="evenodd" clip-rule="evenodd" d="M12.5681 16.7842H12.8618L12.857 16.5H12.5585L12.5681 16.7842ZM11.7153 17.651H11.9996V17.3573L11.7153 17.3526V17.651Z" fill="#4A5462"/>
<path fill-rule="evenodd" clip-rule="evenodd" d="M11.1377 19.4743L11.4219 19.4697V19.1807H11.1377V19.4791V19.4743Z" fill="#A37C3E"/>
<path fill-rule="evenodd" clip-rule="evenodd" d="M6.35386 12.2902L6.64281 12.295L6.65228 12.0107H6.34912L6.35386 12.295V12.2902Z" fill="#6D748D"/>
<path fill-rule="evenodd" clip-rule="evenodd" d="M8.07275 10.1827H8.37118L8.36171 9.89844H8.0775V10.1827H8.07275Z" fill="#FA6A0A"/>
<path fill-rule="evenodd" clip-rule="evenodd" d="M10.1806 16.5008V16.2166L9.8916 16.2119V16.5008H10.1759H10.1806Z" fill="#8E732B"/>
<path fill-rule="evenodd" clip-rule="evenodd" d="M9.8916 15.2539H10.1854L10.1806 14.9697H9.89635V15.2539H9.8916Z" fill="#692027"/>
<path fill-rule="evenodd" clip-rule="evenodd" d="M13.5303 14.9714H13.8192V14.6777H13.535V14.9714H13.5303Z" fill="#8D6320"/>
<path fill-rule="evenodd" clip-rule="evenodd" d="M12.2847 17.0739H12.5737L12.569 16.7803H12.2894V17.0739H12.2847Z" fill="#4A5462"/>
<path fill-rule="evenodd" clip-rule="evenodd" d="M13.8193 4.81938H14.1035V4.53516H13.8193V4.81938Z" fill="#4B557D"/>
<path fill-rule="evenodd" clip-rule="evenodd" d="M16.2109 10.7539H16.4998V10.4697H16.2109V10.7539Z" fill="#4F4B4E"/>
<path fill-rule="evenodd" clip-rule="evenodd" d="M6.62842 15.8282H6.92684V15.5439H6.64264L6.62842 15.8282Z" fill="#692027"/>
<path fill-rule="evenodd" clip-rule="evenodd" d="M15.9263 14.6826H16.2105V14.3984H15.9263V14.6826Z" fill="#888E97"/>
<path fill-rule="evenodd" clip-rule="evenodd" d="M11.4268 16.7842H11.7157V16.5H11.4268V16.7842Z" fill="#909132"/>
<path fill-rule="evenodd" clip-rule="evenodd" d="M6.6377 10.1827H6.92191V9.89844H6.6377V10.1827Z" fill="#E86973"/>
<path fill-rule="evenodd" clip-rule="evenodd" d="M19.7539 10.1827H20.038V9.89844H19.7539V10.1827Z" fill="#645B51"/>
<path fill-rule="evenodd" clip-rule="evenodd" d="M8.07275 8.65208H8.36644L8.35697 8.3584H8.07275V8.65208Z" fill="#E86973"/>
<path fill-rule="evenodd" clip-rule="evenodd" d="M10.1812 7.21555H10.4653V6.92188H10.1812V7.21555Z" fill="#523C3E"/>
<path fill-rule="evenodd" clip-rule="evenodd" d="M7.5 9.31546L7.78421 9.32493V9.03125H7.5V9.31546Z" fill="#E86973"/>
<path fill-rule="evenodd" clip-rule="evenodd" d="M4.24561 14.6815H4.52982V14.3926H4.24561V14.6815Z" fill="#BC4A9B"/>
<path fill-rule="evenodd" clip-rule="evenodd" d="M12.0005 7.21668H12.2847V6.92773H12.0005V7.21668Z" fill="#6D748D"/>
<path fill-rule="evenodd" clip-rule="evenodd" d="M17.0732 14.3926H17.3575V14.1084H17.0732V14.3926Z" fill="#141013"/>
<path fill-rule="evenodd" clip-rule="evenodd" d="M6.34912 10.4648L6.63332 10.4743V10.1807H6.34912V10.4648Z" fill="#E86973"/>
<path fill-rule="evenodd" clip-rule="evenodd" d="M15.2534 15.2539H15.5423V14.9697H15.2582V15.2539H15.2534Z" fill="#888E97"/>
<path fill-rule="evenodd" clip-rule="evenodd" d="M7.78418 15.8328H8.07313V15.5439H7.78892V15.8282L7.78418 15.8328Z" fill="#909132"/>
<path fill-rule="evenodd" clip-rule="evenodd" d="M5.10791 13.4403H5.39213V13.1514H5.10791V13.4403Z" fill="#40424F"/>
<path fill-rule="evenodd" clip-rule="evenodd" d="M7.5 10.1875L7.78421 10.1827V9.89844H7.5V10.1827V10.1875Z" fill="#8D6320"/>
<path fill-rule="evenodd" clip-rule="evenodd" d="M11.4268 7.21668H11.7111V6.92773H11.4268V7.21195V7.21668Z" fill="#6D748D"/>
<path fill-rule="evenodd" clip-rule="evenodd" d="M13.5303 15.8328H13.8192V15.5439H13.535V15.8282L13.5303 15.8328Z" fill="#9097AF"/>
<path fill-rule="evenodd" clip-rule="evenodd" d="M16.7837 12.5734H17.0727V12.2891H16.7885V12.5734H16.7837Z" fill="#6D748D"/>
<path fill-rule="evenodd" clip-rule="evenodd" d="M4.52979 12.2858L4.814 12.2953V11.9969L4.52979 12.0016V12.2858ZM20.0429 10.1827H20.3272V9.89844H20.0429V10.1827Z" fill="#E86973"/>
<path fill-rule="evenodd" clip-rule="evenodd" d="M11.1377 7.50003H11.4219V7.21582H11.1377V7.50003ZM11.4266 17.9353H11.7109V17.6511H11.4266V17.9353Z" fill="#6D748D"/>
<path fill-rule="evenodd" clip-rule="evenodd" d="M14.6806 12.8623V12.5781H14.3965V12.8623H14.6806ZM14.3917 12.5734V12.2891H14.1074V12.5734H14.3917Z" fill="#FED541"/>
<path fill-rule="evenodd" clip-rule="evenodd" d="M4.81396 14.6767H5.10764V14.3926H4.81396V14.6767Z" fill="#8D6320"/>
<path fill-rule="evenodd" clip-rule="evenodd" d="M8.07275 15.8328H8.36171V15.5439H8.0775V15.8282L8.07275 15.8328Z" fill="#803A46"/>
<path fill-rule="evenodd" clip-rule="evenodd" d="M4.52979 14.9714H4.814V14.6777H4.52979V14.9714Z" fill="#BC4A9B"/>
<path fill-rule="evenodd" clip-rule="evenodd" d="M12.8619 12.8633V12.5791H12.5776V12.8633H12.8619Z" fill="#FED541"/>
<path fill-rule="evenodd" clip-rule="evenodd" d="M16.7837 14.3926H17.0727V14.1084H16.7885V14.3926H16.7837Z" fill="#BC4A9B"/>
<path fill-rule="evenodd" clip-rule="evenodd" d="M9.60791 7.50003H9.89209V7.21582H9.60791V7.50003Z" fill="#141013"/>
<path fill-rule="evenodd" clip-rule="evenodd" d="M9.02979 19.4697H9.314L9.31872 19.1807H9.02979V19.4649V19.4697Z" fill="#BC4A9B"/>
<path fill-rule="evenodd" clip-rule="evenodd" d="M14.9701 12.2843V12.0001H14.6812V12.2843H14.9701ZM14.6812 12.0001V11.7158H14.3971V12.0001H14.6812ZM13.1512 13.1511V12.8622H12.8623V13.1464H13.1464L13.1512 13.1511Z" fill="#FED541"/>
<path fill-rule="evenodd" clip-rule="evenodd" d="M14.6812 12.0001H14.9653V11.7158H14.6812V12.0001Z" fill="#FFFC40"/>
<path fill-rule="evenodd" clip-rule="evenodd" d="M12.2847 14.1082H12.5737V13.8193H12.2894V14.1035L12.2847 14.1082ZM13.5305 14.1082H13.8194V13.8193H13.5353V14.1035L13.5305 14.1082Z" fill="#FED541"/>
<path fill-rule="evenodd" clip-rule="evenodd" d="M11.4268 5.39338H11.7111V5.10917H11.4268V5.39338ZM12.2842 4.53127H12.5732V4.24707H12.2889V4.53127H12.2842Z" fill="#E86973"/>
<path fill-rule="evenodd" clip-rule="evenodd" d="M15.2534 10.4696H15.5423V10.1807H15.2582V10.4648L15.2534 10.4696Z" fill="#141013"/>
<path fill-rule="evenodd" clip-rule="evenodd" d="M19.7543 9.89244H20.0384V9.60829H19.7543V9.89244ZM9.60791 7.21618H9.89209V6.92723H9.60791V7.21618ZM10.4701 6.25459H10.7542V5.97039H10.4701V6.25459ZM11.7157 5.10828H12.0001V4.82406L11.7157 4.81934V5.10828Z" fill="#E86973"/>
<path fill-rule="evenodd" clip-rule="evenodd" d="M14.3921 4.81938H14.681V4.53516H14.3969V4.81938H14.3921Z" fill="#5F8342"/>
<path fill-rule="evenodd" clip-rule="evenodd" d="M8.74561 7.78421H9.02983V7.5H8.74561V7.78421Z" fill="#141013"/>
<path fill-rule="evenodd" clip-rule="evenodd" d="M11.9999 4.81938H12.284V4.53516H11.9999V4.81938ZM11.1378 5.68148H11.4219V5.39728H11.1378V5.68148ZM4.24561 12.5736H4.52982V12.2893H4.24561V12.5736ZM19.4699 9.60833H19.7541V9.31938H19.4699V9.60833Z" fill="#E86973"/>
<path fill-rule="evenodd" clip-rule="evenodd" d="M9.02979 7.50003H9.31872V7.21582H9.03452V7.50003H9.02979Z" fill="#141013"/>
<path fill-rule="evenodd" clip-rule="evenodd" d="M19.1807 9.31938H19.4649V9.03516H19.1807V9.31938Z" fill="#E86973"/>
<path fill-rule="evenodd" clip-rule="evenodd" d="M13.5349 17.3632H13.8191L13.8238 17.0791H13.5254L13.5349 17.3632Z" fill="#895B17"/>
<path fill-rule="evenodd" clip-rule="evenodd" d="M16.7841 6.92874V6.64453H16.5V6.92874H16.7841Z" fill="#5F8342"/>
<path fill-rule="evenodd" clip-rule="evenodd" d="M17.3622 7.5012H17.6464V7.217H17.3622V7.5012ZM17.6464 7.78542H17.9354V7.5012H17.6511V7.78542H17.6464ZM15.2544 5.39331H15.5385V5.10911H15.2544V5.39331ZM13.8191 3.86331H14.1032V3.5791H13.8191V3.86331ZM14.9701 5.10911H15.2544V4.82016H14.9701V5.10911ZM18.3191 8.36332H18.6033V8.0791H18.3191V8.36332ZM15.927 5.97121H16.2112V5.68227H15.927V5.97121ZM18.6081 8.65226H18.8922V8.36332H18.6081V8.65226ZM14.3923 4.53121H14.6812V4.247H14.3971V4.53121H14.3923ZM16.216 6.25542H16.5001V5.97121H16.216V6.25542ZM14.6812 4.82016H14.9653V4.53594H14.6812V4.82016ZM12.8623 3.86331H13.1464V3.5791H12.8623V3.86331Z" fill="#E86973"/>
<path fill-rule="evenodd" clip-rule="evenodd" d="M17.6465 8.07366H17.9355V7.78945H17.6512V8.07366H17.6465ZM18.8923 9.31946H19.1812V9.03524H18.8971V9.31946H18.8923ZM14.9702 5.39261H15.2544V5.1084H14.9702V5.39261Z" fill="#26653C"/>
<path fill-rule="evenodd" clip-rule="evenodd" d="M17.0684 14.1035H17.362V13.8193H17.0779L17.0731 14.1035H17.0684Z" fill="#BC4A9B"/>
<path fill-rule="evenodd" clip-rule="evenodd" d="M16.7837 6.92874H17.0727V6.64453H16.7885V6.92874H16.7837Z" fill="#E86973"/>
<path fill-rule="evenodd" clip-rule="evenodd" d="M15.2534 5.68264H15.5376V5.39844H15.2534V5.68264ZM17.3613 7.7858H17.6454V7.50159H17.3613V7.7858Z" fill="#26653C"/>
<path fill-rule="evenodd" clip-rule="evenodd" d="M7.78421 16.5V16.2158H7.5V16.5H7.78421Z" fill="#7B8B45"/>
<path fill-rule="evenodd" clip-rule="evenodd" d="M17.6465 13.4357H17.9355V13.1514H17.6513V13.4357H17.6465Z" fill="#BC4A9B"/>
<path fill-rule="evenodd" clip-rule="evenodd" d="M12.5732 9.89256V9.6084H12.2889V9.89256H12.5732ZM11.4268 19.4705H11.7111V19.1815H11.4268V19.4705Z" fill="#141013"/>
<path fill-rule="evenodd" clip-rule="evenodd" d="M9.31885 12.8633H9.60307V12.5791H9.31885V12.8633Z" fill="#E3E6FF"/>
<path fill-rule="evenodd" clip-rule="evenodd" d="M8.07275 14.1082H8.35697V13.8193H8.07275V14.1082Z" fill="#141013"/>
<path fill-rule="evenodd" clip-rule="evenodd" d="M10.1812 18.2246H10.4653V17.9404H10.1812V18.2246Z" fill="#692027"/>
<path fill-rule="evenodd" clip-rule="evenodd" d="M13.5303 5.39261H13.8192V5.1084H13.535V5.39261H13.5303Z" fill="#2C555D"/>
<path fill-rule="evenodd" clip-rule="evenodd" d="M18.8921 12.0001H19.181V11.7158H18.8969V12.0001H18.8921Z" fill="#141013"/>
<path fill-rule="evenodd" clip-rule="evenodd" d="M14.6811 5.10941V4.8252H14.397V5.10941H14.6811Z" fill="#6E9759"/>
<path fill-rule="evenodd" clip-rule="evenodd" d="M11.1377 17.9356H11.4219V17.6514H11.1377V17.9356Z" fill="#8D6320"/>
<path fill-rule="evenodd" clip-rule="evenodd" d="M16.2153 6.25393V5.96973H15.9263V6.25393H16.2153ZM18.6074 8.65077V8.36183H18.3184V8.64603H18.6026L18.6074 8.65077Z" fill="#26653C"/>
<path fill-rule="evenodd" clip-rule="evenodd" d="M15.2534 14.1082H15.5376V13.8193H15.2534V14.1035V14.1082Z" fill="#A37C3E"/>
<path fill-rule="evenodd" clip-rule="evenodd" d="M11.4272 14.6807H11.1431V14.9649H11.4272V14.6807Z" fill="#FFFC40"/>
<path fill-rule="evenodd" clip-rule="evenodd" d="M9.60791 17.0734H9.89209V16.7891H9.60791V17.0734Z" fill="#6A2620"/>
<path fill-rule="evenodd" clip-rule="evenodd" d="M8.74561 12.0001H9.02983V11.7158H8.74561V12.0001Z" fill="#B9BFFB"/>
<path fill-rule="evenodd" clip-rule="evenodd" d="M19.7539 11.7166H20.038V11.4277H19.7539V11.7166Z" fill="#141013"/>
<path fill-rule="evenodd" clip-rule="evenodd" d="M14.1074 9.89256H14.3917V9.6084H14.1074V9.89256Z" fill="#B9BFFB"/>
<path fill-rule="evenodd" clip-rule="evenodd" d="M14.3921 11.0441H14.681V10.7598H14.3969V11.0441H14.3921Z" fill="#FFFC40"/>
<path fill-rule="evenodd" clip-rule="evenodd" d="M14.6812 9.89256H14.9653V9.6084H14.6812V9.89256Z" fill="#B9BFFB"/>
<path fill-rule="evenodd" clip-rule="evenodd" d="M9.8916 18.2246H10.1806V17.9404H9.89635V18.2246H9.8916Z" fill="#914A5B"/>
<path fill-rule="evenodd" clip-rule="evenodd" d="M18.6074 9.89256H18.8917V9.6084H18.6074V9.89256Z" fill="#2C555D"/>
<path fill-rule="evenodd" clip-rule="evenodd" d="M12.2847 7.78421H12.5737V7.5H12.2894V7.78421H12.2847Z" fill="#B9BFFB"/>
<path fill-rule="evenodd" clip-rule="evenodd" d="M18.3193 9.89256H18.6036V9.6084H18.3193V9.89256Z" fill="#357952"/>
<path fill-rule="evenodd" clip-rule="evenodd" d="M18.3193 12.8633H18.6036V12.5791H18.3193V12.8633Z" fill="#BC4A9B"/>
<path fill-rule="evenodd" clip-rule="evenodd" d="M7.78418 14.1082H8.07313V13.8193H7.78892V14.1035L7.78418 14.1082Z" fill="#909132"/>
<path fill-rule="evenodd" clip-rule="evenodd" d="M15.2534 8.65223H15.5376V8.36328H15.2534V8.6475V8.65223Z" fill="#E3E6FF"/>
<path fill-rule="evenodd" clip-rule="evenodd" d="M19.7538 11.0441H20.038V10.7598H19.7538V11.0441ZM18.6074 12.863H18.8917V12.5788H18.6074V12.863Z" fill="#141013"/>
<path fill-rule="evenodd" clip-rule="evenodd" d="M14.1074 8.65223H14.3917V8.36328H14.1074V8.65223Z" fill="#E3E6FF"/>
<path fill-rule="evenodd" clip-rule="evenodd" d="M13.8193 8.65223H14.1035V8.36328H13.8193V8.65223Z" fill="#141013"/>
<path fill-rule="evenodd" clip-rule="evenodd" d="M9.8916 8.65223H10.1806V8.36328H9.89635V8.6475L9.8916 8.65223Z" fill="#405478"/>
<path fill-rule="evenodd" clip-rule="evenodd" d="M9.60791 12.0001H9.89209V11.7158H9.60791V12.0001Z" fill="#B9BFFB"/>
<path fill-rule="evenodd" clip-rule="evenodd" d="M19.4702 12.0001H19.7543V11.7158H19.4702V12.0001Z" fill="#141013"/>
<path fill-rule="evenodd" clip-rule="evenodd" d="M19.1807 12.0001H19.4649V11.7158H19.1807V12.0001Z" fill="#BC4A9B"/>
<path fill-rule="evenodd" clip-rule="evenodd" d="M12.5732 14.9697H12.8575V14.6807H12.5732V14.9649V14.9697Z" fill="#F9A31B"/>
<path fill-rule="evenodd" clip-rule="evenodd" d="M11.1377 20.3282H11.4219V20.0439H11.1377V20.3282Z" fill="#141013"/>
<path fill-rule="evenodd" clip-rule="evenodd" d="M13.5303 9.60828H13.8192V9.31934H13.535V9.60354L13.5303 9.60828Z" fill="#B9BFFB"/>
<path fill-rule="evenodd" clip-rule="evenodd" d="M8.36282 18.8925V18.6084H8.07861V18.8925H8.36282Z" fill="#141013"/>
<path fill-rule="evenodd" clip-rule="evenodd" d="M7.78418 17.0734H8.07313V16.7891H7.78892V17.0734H7.78418Z" fill="#6A2620"/>
<path fill-rule="evenodd" clip-rule="evenodd" d="M9.31885 17.9356H9.60307V17.6514H9.31885V17.9356Z" fill="#481C29"/>
<path fill-rule="evenodd" clip-rule="evenodd" d="M18.8921 12.2841H19.181V12H18.8969V12.2841H18.8921Z" fill="#BC4A9B"/>
<path fill-rule="evenodd" clip-rule="evenodd" d="M10.1812 6.25393H10.4653V5.96973H10.1812V6.25393Z" fill="#141013"/>
<path fill-rule="evenodd" clip-rule="evenodd" d="M6.92725 15.8282H7.21145V15.5439H6.92725V15.8282Z" fill="#909132"/>
<path fill-rule="evenodd" clip-rule="evenodd" d="M12.0005 19.4697H12.2847V19.1807H12.0005V19.4697Z" fill="#141013"/>
<path fill-rule="evenodd" clip-rule="evenodd" d="M13.5303 5.68264H13.8192V5.39844H13.535V5.68264H13.5303Z" fill="#529678"/>
<path fill-rule="evenodd" clip-rule="evenodd" d="M8.36282 14.3926V14.1084H8.07861V14.3926H8.36282Z" fill="#909132"/>
<path fill-rule="evenodd" clip-rule="evenodd" d="M11.4268 19.7539H11.7111V19.4697H11.4268V19.7539ZM11.7157 19.4697H12V19.1807H11.7157V19.4697Z" fill="#BC4A9B"/>
<path fill-rule="evenodd" clip-rule="evenodd" d="M6.63772 17.0734V16.7891H6.35352V17.0734H6.63772Z" fill="#141013"/>
<path fill-rule="evenodd" clip-rule="evenodd" d="M15.9263 12.0001H16.2105V11.7158H15.9263V12.0001Z" fill="#F9A31B"/>
<path fill-rule="evenodd" clip-rule="evenodd" d="M15.5425 12.0001V11.7158H15.2583V12.0001H15.5425Z" fill="#4A5462"/>
<path fill-rule="evenodd" clip-rule="evenodd" d="M12.0005 10.7539H12.2847V10.4697H12.0005V10.7539Z" fill="#141013"/>
<path fill-rule="evenodd" clip-rule="evenodd" d="M9.31885 17.6522H9.60307V17.3633H9.31885V17.6522Z" fill="#914A5B"/>
<path fill-rule="evenodd" clip-rule="evenodd" d="M8.07275 12.5734H8.35697V12.2891H8.07275V12.5734Z" fill="#B9BFFB"/>
<path fill-rule="evenodd" clip-rule="evenodd" d="M10.7543 12.0001V11.7158H10.4702V12.0001H10.7543Z" fill="#F9A31B"/>
<path fill-rule="evenodd" clip-rule="evenodd" d="M4.52982 14.9697V14.6807H4.24561V14.9649H4.52982V14.9697ZM9.89188 20.3271V20.0428H9.60771V20.3271H9.89188Z" fill="#141013"/>
<path fill-rule="evenodd" clip-rule="evenodd" d="M8.74561 17.0734H9.02983V16.7891H8.74561V17.0734Z" fill="#A37C3E"/>
<path fill-rule="evenodd" clip-rule="evenodd" d="M9.31885 15.544H9.60307V15.2598H9.31885V15.544Z" fill="#B9BFFB"/>
<path fill-rule="evenodd" clip-rule="evenodd" d="M6.92678 14.9697V14.6807H6.64258V14.9649H6.92678V14.9697Z" fill="#803A46"/>
<path fill-rule="evenodd" clip-rule="evenodd" d="M18.8925 12.5734H19.1814V12.2891H18.8972V12.5734H18.8925ZM4.24613 14.6813V14.397H3.96191V14.6813H4.24613Z" fill="#141013"/>
<path fill-rule="evenodd" clip-rule="evenodd" d="M6.92725 15.2539H7.21145V14.9697H6.92725V15.2539Z" fill="#914A5B"/>
<path fill-rule="evenodd" clip-rule="evenodd" d="M10.47 11.7166V11.4277H10.1812V11.712H10.4653L10.47 11.7166Z" fill="#F9A31B"/>
<path fill-rule="evenodd" clip-rule="evenodd" d="M12.8623 5.39261H13.1464V5.1084H12.8623V5.39261Z" fill="#6E9759"/>
<path fill-rule="evenodd" clip-rule="evenodd" d="M9.02979 12.8633H9.31872V12.5791H9.03452V12.8633H9.02979Z" fill="#B9BFFB"/>
<path fill-rule="evenodd" clip-rule="evenodd" d="M11.4268 10.1827H11.7111V9.89844H11.4268V10.1827Z" fill="#141013"/>
<path fill-rule="evenodd" clip-rule="evenodd" d="M12.2847 14.6826H12.5737V14.3984H12.2894V14.6826H12.2847Z" fill="#F9A31B"/>
<path fill-rule="evenodd" clip-rule="evenodd" d="M13.5303 7.21668H13.8192V6.92773H13.535V7.21195L13.5303 7.21668Z" fill="#2C555D"/>
<path fill-rule="evenodd" clip-rule="evenodd" d="M11.4268 20.0439H11.7111V19.7598H11.4268V20.0439Z" fill="#141013"/>
<path fill-rule="evenodd" clip-rule="evenodd" d="M5.68115 12.8633H5.96536V12.5791H5.68115V12.8633Z" fill="#B48C53"/>
<path fill-rule="evenodd" clip-rule="evenodd" d="M11.4268 10.4696H11.7111V10.1807H11.4268V10.4648V10.4696Z" fill="#F9A31B"/>
<path fill-rule="evenodd" clip-rule="evenodd" d="M6.6377 17.0734H6.92191V16.7891H6.6377V17.0734Z" fill="#793A80"/>
<path fill-rule="evenodd" clip-rule="evenodd" d="M11.4268 8.36331H11.7111L11.711 8.0791H11.4268V8.36331Z" fill="#141013"/>
<path fill-rule="evenodd" clip-rule="evenodd" d="M8.07327 12.8633V12.5791H7.78906V12.8633H8.07327Z" fill="#B9BFFB"/>
<path fill-rule="evenodd" clip-rule="evenodd" d="M14.6812 5.10941H14.9653V4.8252H14.6812V5.10941Z" fill="#26653C"/>
<path fill-rule="evenodd" clip-rule="evenodd" d="M12.0005 14.9649H12.2847V14.6807H12.0005V14.9649Z" fill="#F9A31B"/>
<path fill-rule="evenodd" clip-rule="evenodd" d="M12.8623 4.53127H13.1464V4.24707H12.8623V4.53127Z" fill="#357952"/>
<path fill-rule="evenodd" clip-rule="evenodd" d="M11.7159 5.39338H12.0002V5.10917H11.7159V5.39338ZM12.2843 4.82023H12.5734V4.53601H12.2891V4.82023H12.2843ZM12.0002 5.10917H12.2843V4.82495H12.0002V5.10917ZM11.1381 5.39338H11.4222V5.10917H11.1381V5.39338ZM19.7544 9.60917H20.0386V9.32023H19.7544V9.60917ZM7.7844 8.65233H8.07335V8.36338H7.78913V8.6476L7.7844 8.65233ZM12.0002 4.53127H12.2843V4.24707H12.0002V4.53127ZM11.1381 5.97128H11.4222V5.68233H11.1381V5.97128ZM11.427 5.10917H11.7113V4.82023H11.427V5.10917ZM3.95703 12.5745H4.24124V12.2902H3.95703V12.5745ZM9.31913 7.21706H9.60335V6.92812H9.31913V7.21706Z" fill="#141013"/>
<path fill-rule="evenodd" clip-rule="evenodd" d="M13.8193 14.1082H14.1035V13.8193H13.8193V14.1082Z" fill="#F9A31B"/>
<path fill-rule="evenodd" clip-rule="evenodd" d="M3.57327 14.1094V13.8252H3.28906V14.1094H3.57327Z" fill="#141013"/>
<path fill-rule="evenodd" clip-rule="evenodd" d="M16.5 14.6826H16.7841V14.3984H16.5V14.6826Z" fill="#BC4A9B"/>
<path fill-rule="evenodd" clip-rule="evenodd" d="M13.8193 10.4696H14.1035V10.1807H13.8193V10.4648V10.4696Z" fill="#B9BFFB"/>
<path fill-rule="evenodd" clip-rule="evenodd" d="M19.4702 11.7166H19.7543V11.4277H19.4702V11.7166Z" fill="#BC4A9B"/>
<path fill-rule="evenodd" clip-rule="evenodd" d="M8.74561 13.1522H9.02983V12.8633H8.74561V13.1522Z" fill="#B9BFFB"/>
<path fill-rule="evenodd" clip-rule="evenodd" d="M11.7153 10.4696H11.9996V10.1807H11.7153V10.4696Z" fill="#141013"/>
<path fill-rule="evenodd" clip-rule="evenodd" d="M9.8916 11.0427H10.1806V10.7585H9.89635V11.0427H9.8916ZM11.4263 10.4696V10.1807H11.1422V10.4648H11.4263V10.4696Z" fill="#FA6A0A"/>
<path fill-rule="evenodd" clip-rule="evenodd" d="M12.5732 7.21668H12.8575V6.92773H12.5732V7.21195V7.21668Z" fill="#24242A"/>
<path fill-rule="evenodd" clip-rule="evenodd" d="M5.39209 13.1522H5.68104V12.8633H5.39682V13.1474L5.39209 13.1522Z" fill="#B48C53"/>
<path fill-rule="evenodd" clip-rule="evenodd" d="M11.7153 8.36331H11.9996V8.0791H11.7153V8.36331Z" fill="#B9BFFB"/>
<path fill-rule="evenodd" clip-rule="evenodd" d="M11.4272 12.8633H11.1431V13.1474H11.4272V12.8633Z" fill="#E3E6FF"/>
<path fill-rule="evenodd" clip-rule="evenodd" d="M7.21533 15.2539H7.49954V14.9697H7.21533V15.2539Z" fill="#8D6320"/>
<path fill-rule="evenodd" clip-rule="evenodd" d="M19.1807 11.7166H19.4649V11.4277H19.1807V11.7166ZM11.7153 19.7551H11.9996V19.4709H11.7153V19.7551Z" fill="#141013"/>
<path fill-rule="evenodd" clip-rule="evenodd" d="M14.9702 11.7166H15.2544V11.4277H14.9702V11.7166Z" fill="#FFFC40"/>
<path fill-rule="evenodd" clip-rule="evenodd" d="M17.0732 9.31938H17.3575V9.03516H17.0732V9.31938Z" fill="#8AB47F"/>
<path fill-rule="evenodd" clip-rule="evenodd" d="M10.4702 11.7166H10.7543V11.4277H10.4702V11.7166Z" fill="#FA6A0A"/>
<path fill-rule="evenodd" clip-rule="evenodd" d="M15.2544 7.21668V6.92773H14.9702V7.21195H15.2544V7.21668Z" fill="#497383"/>
<path fill-rule="evenodd" clip-rule="evenodd" d="M11.1377 20.0439H11.4219V19.7598H11.1377V20.0439Z" fill="#BC4A9B"/>
<path fill-rule="evenodd" clip-rule="evenodd" d="M15.2534 10.1827H15.5376V9.89844H15.2534V10.1827Z" fill="#FFFC40"/>
<path fill-rule="evenodd" clip-rule="evenodd" d="M11.4268 5.68264H11.7111V5.39844H11.4268V5.68264Z" fill="#141013"/>
<path fill-rule="evenodd" clip-rule="evenodd" d="M12.8623 4.81938H13.1464V4.53516H12.8623V4.81938Z" fill="#2C555D"/>
<path fill-rule="evenodd" clip-rule="evenodd" d="M6.92678 17.3632V17.0791H6.64258V17.3632H6.92678Z" fill="#141013"/>
<path fill-rule="evenodd" clip-rule="evenodd" d="M18.6074 9.60828H18.8917V9.31934H18.6074V9.60828Z" fill="#357952"/>
<path fill-rule="evenodd" clip-rule="evenodd" d="M6.6377 16.7842H6.92191V16.5H6.6377V16.7842Z" fill="#661E17"/>
<path fill-rule="evenodd" clip-rule="evenodd" d="M18.3193 13.1522H18.6036V12.8633H18.3193V13.1522Z" fill="#141013"/>
<path fill-rule="evenodd" clip-rule="evenodd" d="M7.78418 17.3632H8.07313V17.0791H7.78892V17.3632H7.78418Z" fill="#8D6320"/>
<path fill-rule="evenodd" clip-rule="evenodd" d="M9.02979 17.3632H9.31872V17.0791H9.03452V17.3632H9.02979Z" fill="#70455C"/>
<path fill-rule="evenodd" clip-rule="evenodd" d="M6.34912 16.7842H6.63807V16.5H6.35386V16.7842H6.34912Z" fill="#BC4A9B"/>
<path fill-rule="evenodd" clip-rule="evenodd" d="M12.0005 8.36331H12.2847V8.0791H12.0005V8.36331Z" fill="#E3E6FF"/>
<path fill-rule="evenodd" clip-rule="evenodd" d="M14.1074 17.3632H14.3917V17.0791H14.1074V17.3632Z" fill="#141013"/>
<path fill-rule="evenodd" clip-rule="evenodd" d="M18.6074 12.5734H18.8917V12.2891H18.6074V12.5734Z" fill="#BC4A9B"/>
<path fill-rule="evenodd" clip-rule="evenodd" d="M9.02979 11.7166H9.31872V11.4277H9.03452V11.712L9.02979 11.7166Z" fill="#B9BFFB"/>
<path fill-rule="evenodd" clip-rule="evenodd" d="M18.3193 12.5734H18.6036V12.2891H18.3193V12.5734Z" fill="#141013"/>
<path fill-rule="evenodd" clip-rule="evenodd" d="M14.9702 14.3926H15.2544V14.1084H14.9702V14.3926Z" fill="#B48C53"/>
<path fill-rule="evenodd" clip-rule="evenodd" d="M12.8623 5.68264H13.1464V5.39844H12.8623V5.68264Z" fill="#8AB47F"/>
<path fill-rule="evenodd" clip-rule="evenodd" d="M5.39209 13.4357H5.68104V13.1514H5.39682V13.4357H5.39209Z" fill="#18181C"/>
<path fill-rule="evenodd" clip-rule="evenodd" d="M12.8623 5.10941H13.1464V4.8252H12.8623V5.10941Z" fill="#8AB47F"/>
<path fill-rule="evenodd" clip-rule="evenodd" d="M11.4272 12.5734V12.2891H11.1431V12.5734H11.4272Z" fill="#FA6A0A"/>
<path fill-rule="evenodd" clip-rule="evenodd" d="M13.8193 8.36331H14.1035V8.0791H13.8193V8.36331Z" fill="#357952"/>
<path fill-rule="evenodd" clip-rule="evenodd" d="M14.6812 14.3926H14.9653V14.1084H14.6812V14.3926Z" fill="#986F2E"/>
<path fill-rule="evenodd" clip-rule="evenodd" d="M12.5728 18.8922H12.857V18.608H12.5728V18.8922ZM11.7153 8.07327H11.9996V7.78906H11.7153V8.07327Z" fill="#141013"/>
<path fill-rule="evenodd" clip-rule="evenodd" d="M10.4702 14.3926H10.7543V14.1084H10.4702V14.3926Z" fill="#FFFC40"/>
<path fill-rule="evenodd" clip-rule="evenodd" d="M13.8193 17.6522H14.1035V17.3633H13.8193V17.6522Z" fill="#141013"/>
<path fill-rule="evenodd" clip-rule="evenodd" d="M6.6377 14.3926H6.92191V14.1084H6.6377V14.3926Z" fill="#8D6320"/>
<path fill-rule="evenodd" clip-rule="evenodd" d="M7.5001 17.9353V17.651H7.21589V17.9353H7.5001ZM12.0002 7.78421H12.2843V7.5H12.0002V7.78421ZM5.97009 16.5V16.2158H5.68115V16.5H5.97009ZM19.1812 12.2842H19.4654V12H19.1812V12.2842Z" fill="#141013"/>
<path fill-rule="evenodd" clip-rule="evenodd" d="M13.8193 5.68264H14.1035V5.39844H13.8193V5.68264Z" fill="#2C555D"/>
<path fill-rule="evenodd" clip-rule="evenodd" d="M18.6074 12.2841H18.8916V12H18.6074V12.2841ZM15.9263 12.2841H16.2105V12H15.9263V12.2841Z" fill="#141013"/>
<path fill-rule="evenodd" clip-rule="evenodd" d="M12.5732 5.96962H12.8575V5.68066H12.5732V5.96962Z" fill="#8AB47F"/>
<path fill-rule="evenodd" clip-rule="evenodd" d="M12.0005 12.2841H12.2847V12H12.0005V12.2841Z" fill="#F9A31B"/>
<path fill-rule="evenodd" clip-rule="evenodd" d="M9.60791 17.9356H9.89209V17.6514H9.60791V17.9356Z" fill="#70455C"/>
<path fill-rule="evenodd" clip-rule="evenodd" d="M9.60791 6.92874H9.89209V6.64453H9.60791V6.92874Z" fill="#141013"/>
<path fill-rule="evenodd" clip-rule="evenodd" d="M11.1379 10.1827H11.4221V9.89844H11.1379V10.1827ZM9.89209 11.0448V10.7605H9.60791V11.0448H9.89209Z" fill="#F9A31B"/>
<path fill-rule="evenodd" clip-rule="evenodd" d="M12.5732 5.68264H12.8575V5.39844H12.5732V5.68264Z" fill="#6E9759"/>
<path fill-rule="evenodd" clip-rule="evenodd" d="M12.0005 8.07327H12.2847V7.78906H12.0005V8.07327Z" fill="#B9BFFB"/>
<path fill-rule="evenodd" clip-rule="evenodd" d="M14.9701 6.92874V6.64453H14.6812V6.92874H14.9701Z" fill="#529678"/>
<path fill-rule="evenodd" clip-rule="evenodd" d="M12.0005 11.0441H12.2847V10.7598H12.0005V11.0441Z" fill="#FA6A0A"/>
<path fill-rule="evenodd" clip-rule="evenodd" d="M11.9996 11.0441V10.7598H11.7153V11.0441H11.9996Z" fill="#F9A31B"/>
<path fill-rule="evenodd" clip-rule="evenodd" d="M9.31885 7.50003H9.60307V7.21582H9.31885V7.50003Z" fill="#E86973"/>
<path fill-rule="evenodd" clip-rule="evenodd" d="M4.24561 12.2854H4.52982V12.0012H4.24561V12.2854ZM19.4699 9.32017H19.7541V9.03595H19.4699V9.32017ZM10.4699 5.97121H10.754V5.68227H10.4699V5.97121ZM14.1077 3.86331H14.392V3.5791H14.1077V3.86331ZM11.7156 4.82016H11.9999V4.53594H11.7156V4.82016ZM6.63772 9.89326H6.92192V9.60911H6.63772V9.89326ZM20.043 9.89326H20.3272V9.60911H20.043V9.89326Z" fill="#141013"/>
<path fill-rule="evenodd" clip-rule="evenodd" d="M18.8921 9.60828H19.181V9.31934H18.8969V9.60354L18.8921 9.60828Z" fill="#2C555D"/>
<path fill-rule="evenodd" clip-rule="evenodd" d="M7.5 15.8282H7.78421V15.5439H7.5V15.8282Z" fill="#B07449"/>
<path fill-rule="evenodd" clip-rule="evenodd" d="M19.1807 9.60828H19.4649V9.31934H19.1807V9.60828Z" fill="#1E2342"/>
<path fill-rule="evenodd" clip-rule="evenodd" d="M3.28467 13.1522H3.57361V12.8633H3.28941V13.1474L3.28467 13.1522Z" fill="#141013"/>
<path fill-rule="evenodd" clip-rule="evenodd" d="M4.52979 12.8633H4.81874V12.5791H4.53452V12.8633H4.52979Z" fill="#B48C53"/>
<path fill-rule="evenodd" clip-rule="evenodd" d="M12.5732 4.53127H12.8575V4.24707H12.5732V4.53127Z" fill="#141013"/>
<path fill-rule="evenodd" clip-rule="evenodd" d="M5.68115 14.1082H5.96536V13.8193H5.68115V14.1082Z" fill="#70455C"/>
<path fill-rule="evenodd" clip-rule="evenodd" d="M12.5732 4.81938H12.8575V4.53516H12.5732V4.81938Z" fill="#40424F"/>
<path fill-rule="evenodd" clip-rule="evenodd" d="M17.6465 7.50042H17.9355V7.21622H17.6512V7.50042H17.6465ZM18.6082 8.36253H18.8923V8.07832H18.6082V8.36253ZM16.2161 5.97043H16.5002V5.68148H16.2161V5.97043ZM14.9702 4.81938H15.2544V4.53516H14.9702V4.81938Z" fill="#141013"/>
<path fill-rule="evenodd" clip-rule="evenodd" d="M20.043 11.0441H20.3272V10.7598H20.043V11.0441Z" fill="#BC4A9B"/>
<path fill-rule="evenodd" clip-rule="evenodd" d="M17.3613 7.21618H17.6454V6.92723H17.3613V7.21144V7.21618ZM15.926 5.68144H16.2103V5.39724H15.926V5.68144ZM18.3181 8.07354H18.6024V7.78934H18.3181V8.07354ZM15.2534 5.10828H15.5376V4.82406L15.2534 4.81934V5.10828Z" fill="#141013"/>
<path fill-rule="evenodd" clip-rule="evenodd" d="M5.68115 14.6826H5.96536V14.3984H5.68115V14.6826Z" fill="#8D6320"/>
<path fill-rule="evenodd" clip-rule="evenodd" d="M11.1377 18.2254H11.4219V17.9413H11.1377V18.2254ZM16.4998 12.8633H16.7839V12.5791H16.4998V12.8633Z" fill="#B48C53"/>
<path fill-rule="evenodd" clip-rule="evenodd" d="M11.4268 14.6826H11.7111V14.3984H11.4268V14.6826Z" fill="#FFFC40"/>
<path fill-rule="evenodd" clip-rule="evenodd" d="M18.8921 8.65223H19.181V8.36328H18.8969V8.6475L18.8921 8.65223Z" fill="#141013"/>
<path fill-rule="evenodd" clip-rule="evenodd" d="M7.78418 16.7842H8.07313V16.5H7.78892V16.7842H7.78418Z" fill="#3A722D"/>
<path fill-rule="evenodd" clip-rule="evenodd" d="M10.7543 15.2539V14.9697H10.4702V15.2539H10.7543Z" fill="#FFFC40"/>
<path fill-rule="evenodd" clip-rule="evenodd" d="M17.3622 14.1092H17.6464V13.8203H17.3622V14.1044V14.1092ZM14.6812 4.53127H14.9653V4.24707H14.6812V4.53127Z" fill="#141013"/>
<path fill-rule="evenodd" clip-rule="evenodd" d="M9.60791 15.8282H9.89209V15.5439H9.60791V15.8282Z" fill="#6A2620"/>
<path fill-rule="evenodd" clip-rule="evenodd" d="M16.5 14.3926H16.7841V14.1084H16.5V14.3926Z" fill="#797981"/>
<path fill-rule="evenodd" clip-rule="evenodd" d="M16.5 6.25433H16.7843V5.97013H16.5V6.25433ZM12.5732 3.86222H12.8575V3.57802H12.5732V3.86222ZM13.819 3.57327H14.1032V3.28906H13.819V3.57327ZM17.0732 6.92696H17.3574V6.64276H17.0732V6.92696ZM12.8622 3.57327H13.1464V3.28906H12.8622V3.57327ZM17.651 13.1512H17.9354V12.8622H17.651V13.1512Z" fill="#141013"/>
<path fill-rule="evenodd" clip-rule="evenodd" d="M9.02983 10.7539H8.74561V11.0382H9.02983V10.7539Z" fill="#F9A31B"/>
<path fill-rule="evenodd" clip-rule="evenodd" d="M13.8193 6.25393H14.1035V5.96973H13.8193V6.25393Z" fill="#2C555D"/>
<path fill-rule="evenodd" clip-rule="evenodd" d="M14.6812 14.6826H14.9653V14.3984H14.6812V14.6826Z" fill="#A4ABBC"/>
<path fill-rule="evenodd" clip-rule="evenodd" d="M6.63772 14.6826V14.3984H6.35352V14.6826H6.63772Z" fill="#914A5B"/>
<path fill-rule="evenodd" clip-rule="evenodd" d="M13.8193 4.53127H14.1035V4.24707H13.8193V4.53127Z" fill="#2E3858"/>
<path fill-rule="evenodd" clip-rule="evenodd" d="M10.4702 18.8925H10.7543V18.6084H10.4702V18.8925Z" fill="#40424F"/>
<path fill-rule="evenodd" clip-rule="evenodd" d="M8.74619 8.07316H9.03041V7.78895H8.74619V8.07316ZM9.03041 7.78421H9.31935V7.5H9.03514V7.78421H9.03041ZM6.92725 9.89206H7.21145V9.60791H6.92725V9.89206Z" fill="#E86973"/>
<path fill-rule="evenodd" clip-rule="evenodd" d="M14.9702 10.4696H15.2544V10.1807H14.9702V10.4696Z" fill="#FFFC40"/>
<path fill-rule="evenodd" clip-rule="evenodd" d="M7.21533 15.8328H7.49954V15.5439H7.21533V15.8328Z" fill="#884B17"/>
<path fill-rule="evenodd" clip-rule="evenodd" d="M7.21533 15.544H7.49954V15.2598H7.21533V15.544Z" fill="#B48C53"/>
<path fill-rule="evenodd" clip-rule="evenodd" d="M15.9263 15.5447H16.2105V15.2605H15.9263V15.5447ZM16.7836 14.6826H17.0726V14.3984H16.7884V14.6826H16.7836Z" fill="#141013"/>
<path fill-rule="evenodd" clip-rule="evenodd" d="M7.78418 16.5H8.07313V16.2158H7.78892V16.5H7.78418Z" fill="#5D8034"/>
<path fill-rule="evenodd" clip-rule="evenodd" d="M15.9263 14.9707H16.2105V14.6865H15.9263V14.9707Z" fill="#797981"/>
<path fill-rule="evenodd" clip-rule="evenodd" d="M12.0005 7.50003H12.2847V7.21582H12.0005V7.50003Z" fill="#4A5462"/>
<path fill-rule="evenodd" clip-rule="evenodd" d="M16.2158 14.6826H16.5V14.3984H16.2158V14.6826Z" fill="#797981"/>
<path fill-rule="evenodd" clip-rule="evenodd" d="M6.35352 14.3926H6.63772V14.1084H6.35352V14.3926Z" fill="#909132"/>
<path fill-rule="evenodd" clip-rule="evenodd" d="M6.92725 17.3622L7.21145 17.3669V17.0732H6.92725V17.3622Z" fill="#BC4A9B"/>
<path fill-rule="evenodd" clip-rule="evenodd" d="M17.3618 13.4357H17.6459V13.1514H17.3618V13.4357Z" fill="#656574"/>
<path fill-rule="evenodd" clip-rule="evenodd" d="M10.1812 19.1827H10.4653V18.8984H10.1812V19.1827Z" fill="#B48C53"/>
<path fill-rule="evenodd" clip-rule="evenodd" d="M16.5 14.9697H16.7841V14.6807H16.5V14.9697Z" fill="#141013"/>
<path fill-rule="evenodd" clip-rule="evenodd" d="M14.1074 4.53127H14.3917V4.24707H14.1074V4.53127Z" fill="#26653C"/>
<path fill-rule="evenodd" clip-rule="evenodd" d="M14.9702 16.4997H15.2544V16.2156H14.9702V16.4997ZM16.2161 15.2539H16.5002V14.9697H16.2161V15.2539Z" fill="#141013"/>
<path fill-rule="evenodd" clip-rule="evenodd" d="M5.39209 15.8327H5.6763V15.5391L5.39209 15.5486V15.8327Z" fill="#BC4A9B"/>
<path fill-rule="evenodd" clip-rule="evenodd" d="M8.07275 16.5H8.35697V16.2158H8.07275V16.5Z" fill="#B07449"/>
<path fill-rule="evenodd" clip-rule="evenodd" d="M9.8916 6.92874H10.1759L10.1806 6.64453H9.89635V6.92874H9.8916Z" fill="#E86973"/>
<path fill-rule="evenodd" clip-rule="evenodd" d="M8.07275 16.7842H8.35697V16.5H8.07275V16.7842Z" fill="#6A2620"/>
<path fill-rule="evenodd" clip-rule="evenodd" d="M9.8916 7.21668H10.1759V6.92773H9.8916V7.21668Z" fill="#432927"/>
<path fill-rule="evenodd" clip-rule="evenodd" d="M13.5303 5.10941H13.8192V4.8252H13.535V5.10941H13.5303ZM13.8192 5.97152H14.1033V5.68257H13.8192V5.97152Z" fill="#497383"/>
<path fill-rule="evenodd" clip-rule="evenodd" d="M6.93197 11.7166H7.21619V11.4277H6.92725V11.712L6.93197 11.7166Z" fill="#55525E"/>
<path fill-rule="evenodd" clip-rule="evenodd" d="M14.6812 16.7842H14.9653V16.5H14.6812V16.7842Z" fill="#141013"/>
<path fill-rule="evenodd" clip-rule="evenodd" d="M11.7153 14.9697H11.9996V14.6807H11.7153V14.9697Z" fill="#FED541"/>
<path fill-rule="evenodd" clip-rule="evenodd" d="M15.9263 15.2539H16.2105V14.9697H15.9263V15.2539Z" fill="#BC4A9B"/>
<path fill-rule="evenodd" clip-rule="evenodd" d="M7.78418 10.1827H8.07313V9.89844H7.78892V10.1827H7.78418Z" fill="#8D4618"/>
<path fill-rule="evenodd" clip-rule="evenodd" d="M10.1812 6.92874H10.4653V6.64453H10.1812V6.92874Z" fill="#432927"/>
<path fill-rule="evenodd" clip-rule="evenodd" d="M9.8916 20.3286L10.1759 20.3334V20.0443H9.8916V20.3286ZM13.5343 17.6522H13.8184V17.3633H13.5343V17.6522Z" fill="#BC4A9B"/>
<path fill-rule="evenodd" clip-rule="evenodd" d="M14.3921 14.3926H14.681V14.1084H14.3969V14.3926H14.3921Z" fill="#888E97"/>
<path fill-rule="evenodd" clip-rule="evenodd" d="M8.74561 19.1827H9.02983V18.8984H8.74561V19.1827Z" fill="#BC4A9B"/>
<path fill-rule="evenodd" clip-rule="evenodd" d="M12.2847 14.9649H12.5737V14.6807H12.2894V14.9649H12.2847Z" fill="#141013"/>
<path fill-rule="evenodd" clip-rule="evenodd" d="M9.60791 20.0439H9.89209V19.7598H9.60791V20.0439Z" fill="#BC4A9B"/>
<path fill-rule="evenodd" clip-rule="evenodd" d="M3.95215 12.8575H4.24583V12.5732H3.96163L3.95215 12.8575Z" fill="#E86973"/>
<path fill-rule="evenodd" clip-rule="evenodd" d="M7.5 17.9356H7.78421V17.6514H7.5V17.9356Z" fill="#BC4A9B"/>
<path fill-rule="evenodd" clip-rule="evenodd" d="M9.02979 8.07327H9.314V7.78906H9.02979V8.07327Z" fill="#1D376D"/>
<path fill-rule="evenodd" clip-rule="evenodd" d="M6.92725 9.60828H7.21145V9.31934H6.92725V9.60828Z" fill="#141013"/>
<path fill-rule="evenodd" clip-rule="evenodd" d="M5.10791 13.1474H5.39213V12.8633H5.10791V13.1474Z" fill="#8D6320"/>
<path fill-rule="evenodd" clip-rule="evenodd" d="M5.68087 10.7558H5.96508V10.4716H5.68087V10.7558ZM5.39193 11.0448H5.67613L5.68087 10.7605H5.39665V11.0448H5.39193ZM4.24561 12.859H4.52982V12.5748H4.24561V12.859ZM6.34876 10.1827H6.63297L6.63772 9.89844H6.35351V10.1827H6.34876Z" fill="#141013"/>
<path fill-rule="evenodd" clip-rule="evenodd" d="M16.2158 14.9707H16.5V14.6865H16.2158V14.9707Z" fill="#793A80"/>
<path fill-rule="evenodd" clip-rule="evenodd" d="M12.2939 18.8973H12.5782V18.6084H12.2939V18.8973Z" fill="#BC4A9B"/>
<path fill-rule="evenodd" clip-rule="evenodd" d="M9.31885 7.78421H9.60307V7.5H9.31885V7.78421Z" fill="#1D376D"/>
<path fill-rule="evenodd" clip-rule="evenodd" d="M6.92725 17.0734H7.21145V16.7891H6.92725V17.0734Z" fill="#661E17"/>
<path fill-rule="evenodd" clip-rule="evenodd" d="M10.1809 20.6214V20.3325H9.89663V20.6167H10.1809V20.6214ZM13.5298 17.9356H13.8187V17.6514H13.5346V17.9356H13.5298ZM9.31876 19.7546V19.4704H9.03455V19.7546H9.31876ZM9.02983 19.4704V19.1861L8.74561 19.1814V19.4656H9.02983V19.4704Z" fill="#141013"/>
<path fill-rule="evenodd" clip-rule="evenodd" d="M9.8916 20.0439H10.1759L10.1806 19.7598H9.89635V20.0439H9.8916Z" fill="#8C892A"/>
<path fill-rule="evenodd" clip-rule="evenodd" d="M11.4268 16.5H11.711L11.7111 16.2158H11.4268V16.5Z" fill="#8D6320"/>
<path fill-rule="evenodd" clip-rule="evenodd" d="M14.397 16.7948L14.6811 16.7901V16.5059H14.397V16.7901V16.7948Z" fill="#793A80"/>
<path fill-rule="evenodd" clip-rule="evenodd" d="M11.7109 15.2539H11.9951V14.9697H11.7109V15.2539Z" fill="#F9A31B"/>
<path fill-rule="evenodd" clip-rule="evenodd" d="M9.60789 20.0436L9.60317 19.7593H9.31895V20.0436H9.60789ZM7.78421 18.2246V17.9404H7.5V18.2246H7.78421Z" fill="#141013"/>
<path fill-rule="evenodd" clip-rule="evenodd" d="M4.81885 13.1427L5.10778 13.1474V12.8633H4.81885V13.1474V13.1427Z" fill="#B48C53"/>
<path fill-rule="evenodd" clip-rule="evenodd" d="M16.5 10.7539H16.7841V10.4697H16.5V10.7539Z" fill="#383539"/>
<path fill-rule="evenodd" clip-rule="evenodd" d="M4.52979 14.6815L4.814 14.6767V14.3926H4.52979V14.6767V14.6815Z" fill="#8C892A"/>
<path fill-rule="evenodd" clip-rule="evenodd" d="M5.10778 15.544L5.10305 15.2598H4.81885V15.544H5.10305H5.10778Z" fill="#141013"/>
<path fill-rule="evenodd" clip-rule="evenodd" d="M7.21568 17.6514H7.49989V17.3672H7.21094V17.6514H7.21568Z" fill="#793A80"/>
<path fill-rule="evenodd" clip-rule="evenodd" d="M5.3919 15.8282V15.5441H5.10768V15.8282H5.3919ZM4.81874 15.2551V14.9709H4.53452V15.2551H4.81874ZM4.52979 12.0009H4.814L4.81874 11.7166H4.53452V12.0009H4.52979ZM4.81874 11.7166L5.10294 11.712V11.4277H4.81874V11.712V11.7166Z" fill="#141013"/>
<path fill-rule="evenodd" clip-rule="evenodd" d="M14.6812 10.7539H14.9653V10.4697H14.6812V10.7539Z" fill="#FFFC40"/>
<path fill-rule="evenodd" clip-rule="evenodd" d="M5.68115 11.043H5.96536V10.7539H5.68115V11.0382V11.043Z" fill="#E86973"/>
<path fill-rule="evenodd" clip-rule="evenodd" d="M16.2158 13.1427L16.5 13.1522V12.8633H16.2158V13.1427Z" fill="#40424F"/>
<path fill-rule="evenodd" clip-rule="evenodd" d="M3.95703 14.3918H4.24124V14.1123H3.95703V14.3966V14.3918Z" fill="#BC4A9B"/>
<path fill-rule="evenodd" clip-rule="evenodd" d="M8.74561 8.35384L9.02983 8.36331V8.0791H8.74561V8.35858V8.35384Z" fill="#1D376D"/>
<path fill-rule="evenodd" clip-rule="evenodd" d="M7.784 13.4355V13.1512H7.49979V13.4355H7.784ZM4.52979 12.5734H4.81874V12.2891H4.53452V12.5734H4.52979Z" fill="#141013"/>
<path fill-rule="evenodd" clip-rule="evenodd" d="M7.5 17.6522H7.78421V17.3633L7.5 17.3681V17.6522Z" fill="#895B17"/>
<path fill-rule="evenodd" clip-rule="evenodd" d="M8.07356 8.3622L8.35777 8.35746V8.07324H8.07356V8.35746V8.3622ZM7.21619 9.31904H7.5004V9.03482H7.21619V9.31904ZM7.21619 17.6511L7.21145 17.367L6.92725 17.3622V17.6464H7.21145L7.21619 17.6511ZM14.3925 17.0733H14.6815V16.789H14.3973V17.0733H14.3925ZM12.2846 19.1811H12.5736V18.897H12.2893V19.1811H12.2846ZM19.4705 9.88275L19.7546 9.89214V9.608H19.4705V9.88275Z" fill="#141013"/>
<path fill-rule="evenodd" clip-rule="evenodd" d="M13.8193 17.3632H14.1035V17.0791H13.8241L13.8193 17.3632Z" fill="#BC4A9B"/>
<path fill-rule="evenodd" clip-rule="evenodd" d="M13.8193 15.5428H14.1035V15.268L13.8193 15.2539V15.5428Z" fill="#9097AF"/>
<path fill-rule="evenodd" clip-rule="evenodd" d="M7.78418 18.2246L8.0684 18.2293V17.9452L7.78418 17.9404V18.2246Z" fill="#BC4A9B"/>
<path fill-rule="evenodd" clip-rule="evenodd" d="M16.5 8.65223L16.7841 8.63802V8.36328H16.5V8.65223Z" fill="#529678"/>
<path fill-rule="evenodd" clip-rule="evenodd" d="M6.6473 11.7072L6.93151 11.7166L6.92678 11.4277H6.64258V11.7072H6.6473Z" fill="#2C282A"/>
<path fill-rule="evenodd" clip-rule="evenodd" d="M4.81396 12.0007L5.09817 11.9912V11.707L4.81871 11.7118V11.9959L4.81396 12.0007Z" fill="#E86973"/>
<path fill-rule="evenodd" clip-rule="evenodd" d="M4.81885 15.2561L5.10305 15.2609V14.9766H4.81885V15.2609V15.2561ZM5.10778 15.545H5.392L5.38726 15.2609H5.10305V15.545H5.10778Z" fill="#BC4A9B"/>
<path fill-rule="evenodd" clip-rule="evenodd" d="M18.3478 11.0534L18.6082 11.0441V10.7598H18.3193L18.3478 11.0534Z" fill="#8F8C8D"/>
<path fill-rule="evenodd" clip-rule="evenodd" d="M14.1074 17.0734H14.3917L14.3965 16.7891L14.1122 16.7986L14.1074 17.0734Z" fill="#793A80"/>
<path fill-rule="evenodd" clip-rule="evenodd" d="M9.31885 19.7539H9.60307V19.4792L9.31885 19.4697V19.7539Z" fill="#BC4A9B"/>
<path fill-rule="evenodd" clip-rule="evenodd" d="M6.92725 13.4368H7.21145V13.1572H6.92725V13.4414V13.4368Z" fill="#909132"/>
<path fill-rule="evenodd" clip-rule="evenodd" d="M12.0005 19.1827H12.2847L12.2942 18.8984H12.0147L12.0005 19.1827Z" fill="#BC4A9B"/>
<path fill-rule="evenodd" clip-rule="evenodd" d="M17.6465 11.7166H17.9402L17.9071 11.4277H17.6465V11.7166Z" fill="#6D748D"/>
<path fill-rule="evenodd" clip-rule="evenodd" d="M17.0732 7.78377H17.3575V7.49956L17.1112 7.48535L17.0732 7.78852V7.78377Z" fill="#357952"/>
<path fill-rule="evenodd" clip-rule="evenodd" d="M14.6812 16.5H14.9653V16.2158L14.6812 16.2347V16.5Z" fill="#793A80"/>
<path fill-rule="evenodd" clip-rule="evenodd" d="M13.8237 17.0791H14.1079L14.1126 16.7949H13.8284V17.0791H13.8237Z" fill="#895B17"/>
<path fill-rule="evenodd" clip-rule="evenodd" d="M15.2534 15.8328H15.5376V15.5439L15.2534 15.5628V15.8328Z" fill="#793A80"/>
<path fill-rule="evenodd" clip-rule="evenodd" d="M16.2158 7.50086L16.4859 7.48665L16.5 7.21191H16.2158V7.50086Z" fill="#6E9759"/>
<path fill-rule="evenodd" clip-rule="evenodd" d="M5.10352 11.7109L5.38772 11.6919V11.4219H5.10352V11.7109Z" fill="#E86973"/>
<path fill-rule="evenodd" clip-rule="evenodd" d="M10.1812 7.78421L10.47 7.76053V7.5H10.1812V7.78421Z" fill="#986F2E"/>
<path fill-rule="evenodd" clip-rule="evenodd" d="M17.1108 7.22141L17.3619 7.21195V6.92773H17.0776L17.1108 7.22141Z" fill="#E86973"/>
<path fill-rule="evenodd" clip-rule="evenodd" d="M12.8711 18.2293L13.1505 18.2246V17.9404L12.8711 17.9546V18.2293Z" fill="#793A80"/>
<path fill-rule="evenodd" clip-rule="evenodd" d="M14.108 14.9602H14.3685L14.3923 14.6807H14.0986L14.108 14.9649V14.9602Z" fill="#8D6320"/>
<path fill-rule="evenodd" clip-rule="evenodd" d="M7.21094 9.60242L7.49515 9.58348V9.31348L7.21094 9.31822V9.60242Z" fill="#E86973"/>
<path fill-rule="evenodd" clip-rule="evenodd" d="M14.9701 15.8315H15.2543V15.5615H14.9653V15.8315H14.9701Z" fill="#656574"/>
<path fill-rule="evenodd" clip-rule="evenodd" d="M14.9653 10.7493L15.2543 10.7161V10.4697H14.9701L14.9653 10.7539V10.7493Z" fill="#141013"/>
<path fill-rule="evenodd" clip-rule="evenodd" d="M15.2534 10.7161H15.5803L15.5423 10.4697H15.2582V10.7161H15.2534Z" fill="#4F4B4E"/>
<path fill-rule="evenodd" clip-rule="evenodd" d="M14.6812 15.8045L14.9653 15.8328V15.5628L14.6812 15.5439V15.8045Z" fill="#909132"/>
<path fill-rule="evenodd" clip-rule="evenodd" d="M14.3967 16.5006H14.6809V16.2354L14.3872 16.2543L14.3967 16.5006Z" fill="#656574"/>
<path fill-rule="evenodd" clip-rule="evenodd" d="M7.81261 10.7634L8.0684 10.7207V10.4697H7.78418L7.81261 10.7634Z" fill="#6D6973"/>
<path fill-rule="evenodd" clip-rule="evenodd" d="M12.3175 6.22552L12.5734 6.25393V5.96973H12.2891L12.3175 6.22552Z" fill="#8AB47F"/>
<path fill-rule="evenodd" clip-rule="evenodd" d="M14.3872 15.7808L14.6809 15.8045V15.5439H14.3967L14.3872 15.7808Z" fill="#696E7D"/>
<path fill-rule="evenodd" clip-rule="evenodd" d="M17.1108 7.48582L17.3618 7.50003V7.21582L17.1108 7.22055V7.48582Z" fill="#26653C"/>
<path fill-rule="evenodd" clip-rule="evenodd" d="M12.3176 6.22552L12.2892 5.96973C11.7918 6.02183 12.114 5.85604 11.9956 6.17815L12.3176 6.22552Z" fill="#24242A"/>
<path fill-rule="evenodd" clip-rule="evenodd" d="M9.07715 9.62248L9.31873 9.60828V9.33828L9.12927 9.31934L9.07715 9.62248Z" fill="#395894"/>
</svg>
