<svg width="25" height="24" viewBox="0 0 25 24" fill="none" xmlns="http://www.w3.org/2000/svg">
<path d="M12.4988 4.00098C11.289 4.00098 9.39929 4.61088 8.6194 5.17581V4.94084C8.13447 5.33578 7.11962 6.21065 6.91964 6.5906V6.12067C6.51971 6.5106 5.70983 7.57545 5.70983 8.70529L5.46987 8.47033C5.18835 8.83465 5.0159 9.27132 4.97254 9.72969C4.92919 10.188 5.01669 10.6494 5.2249 11.0599L4.73996 10.5899C4.57998 11.4499 4.40502 13.3646 4.98493 14.1195L4.73996 13.8795C4.65998 14.1195 4.59498 14.6795 4.98493 15.0594L4.5 14.8243C4.82495 15.6843 5.66483 17.459 6.43972 17.644H5.95479C6.19476 17.879 6.77967 18.354 7.16461 18.354L6.92465 18.5889C7.89451 19.0588 10.4142 19.9988 12.7387 19.9988C15.0685 19.9988 17.2682 19.0588 18.0731 18.5889H17.8331C18.1531 18.4288 18.8479 18.024 19.0429 17.644H18.5579C19.0429 17.3341 20.1078 16.3292 20.4977 14.8243L20.0127 15.0594C20.0927 14.9794 20.2577 14.6795 20.2577 14.1195L19.7727 14.3545C20.269 13.7623 20.5274 13.0068 20.4977 12.2347C20.4977 11.105 20.3377 10.665 20.2577 10.5851L20.0127 11.0599C20.0927 10.43 20.1128 9.03525 19.5278 8.47033V8.94026C19.3679 8.15536 18.8479 6.49061 18.0781 6.12067V6.35564C17.9931 6.04068 17.5381 5.32079 16.3783 4.94084V5.17581C15.6483 4.78586 13.8586 4.00098 12.4988 4.00098ZM7.49957 13.7495C7.58455 13.6647 7.84952 13.4995 8.24945 13.4995C8.74939 13.4995 9.9992 13.7495 9.9992 14.7495C9.9992 14.9993 9.84922 15.4993 9.24932 15.4993C8.49942 15.4993 8.49942 14.9993 8.49942 14.7495C8.49942 14.6244 8.5644 14.4995 8.6244 14.3744C8.6894 14.2495 8.74939 14.1244 8.74939 13.9995C8.74939 13.7495 7.99949 13.5247 7.49957 13.7495ZM12.4988 18.9988C11.8339 18.5589 10.4991 17.554 10.4991 17.0291C10.4991 16.3742 11.609 15.4993 12.4988 15.4993C13.3887 15.4993 14.4986 16.3742 14.4986 17.0291C14.4986 17.529 13.2337 18.4589 12.5988 18.9288L12.4988 18.9988ZM17.2481 13.4995C17.6481 13.4995 17.913 13.6647 17.998 13.7495C17.2631 13.4995 16.7483 13.7495 16.7483 13.9995C16.7483 14.1244 16.8132 14.2495 16.8732 14.3744C16.9382 14.4995 16.9983 14.6244 16.9983 14.7495C16.9983 14.9993 16.9983 15.4993 16.2483 15.4993C15.6483 15.4993 15.4983 14.9993 15.4983 14.7495C15.4983 13.7495 16.7483 13.4995 17.2481 13.4995Z" fill="#7328FF"/>
</svg>
