<svg width="24" height="24" viewBox="0 0 24 24" fill="none" xmlns="http://www.w3.org/2000/svg">
<path d="M18.2414 16.9421C19.7649 16.9421 20.9999 15.6951 20.9999 14.1567C20.9999 12.6186 19.7649 11.3716 18.2414 11.3716C16.7179 11.3716 15.4829 12.6186 15.4829 14.1567C15.4829 15.6951 16.7179 16.9421 18.2414 16.9421Z" fill="#000300"/>
<path d="M7.55321 12.108C7.03587 12.0812 6.84817 12.7096 6.81885 13.0269L8.54265 14.131C9.75368 14.8088 12.1065 15.535 14.2746 14.8088C16.2468 14.149 16.616 12.2787 16.7472 11.965C16.852 11.7135 16.8783 10.9124 16.8783 10.543C17.2059 10.3996 17.8147 9.99438 17.6317 9.51812C17.4481 9.04192 16.7908 8.96683 16.4848 8.98843C15.9778 8.11265 13.7336 5.84734 10.4259 7.26927C7.77948 8.40681 7.40819 10.9683 7.55321 12.108Z" fill="#F5E0CD"/>
<path d="M14.7487 11.373C13.6287 12.1666 11.5398 12.5219 10.6357 12.6001C10.7041 12.9637 11.8416 14.7599 13.4847 14.1613C14.7991 13.682 14.8754 12.1028 14.7487 11.373Z" fill="url(#paint0_linear_328_30702)"/>
<path d="M12.8592 12.6295C12.4488 12.7231 12.1032 12.52 11.9824 12.4068L13.6332 11.9194C13.5458 12.1173 13.2691 12.5364 12.8592 12.6295Z" fill="#F2F6F9"/>
<path fill-rule="evenodd" clip-rule="evenodd" d="M12.7483 12.1388C11.2126 12.5779 10.4993 12.4802 10.0174 12.4139L9.96094 12.4061L10.5488 12.6843C10.6655 13.1487 11.5412 14.7219 13.3905 14.274C14.8196 13.9284 15.0063 12.1928 14.8736 11.3L15.209 10.8809C14.8346 11.1452 13.8369 11.8276 12.7483 12.1388ZM12.0848 14.0714C11.3494 13.7798 10.8496 13.0783 10.646 12.6319C10.8752 12.6216 11.3618 12.5752 11.9357 12.4694C12.0596 12.5723 12.3847 12.7358 12.8253 12.6771C13.0604 12.6463 13.2563 12.5095 13.4049 12.3552C13.5309 12.2241 13.625 12.0776 13.6821 11.966C14.183 11.751 14.5553 11.5216 14.7183 11.4003C14.7955 11.8821 14.7749 12.7167 14.3707 13.3535C14.1635 13.2007 13.6919 13.0108 13.0475 13.1688C12.3861 13.3312 12.1388 13.7988 12.0848 14.0714ZM12.1681 14.1022C12.5383 14.2299 12.9391 14.2395 13.3149 14.1294C13.7779 14.0008 14.1008 13.7422 14.3219 13.427C14.1378 13.2907 13.6919 13.1019 13.068 13.2552C12.4319 13.4111 12.2097 13.863 12.1681 14.1022ZM13.5511 12.0204C13.3293 12.1104 13.0856 12.1953 12.8259 12.2673C12.5641 12.3393 12.3033 12.398 12.0556 12.4463C12.1943 12.5327 12.4633 12.636 12.8141 12.5896C13.0223 12.5619 13.2012 12.4395 13.3416 12.2936C13.428 12.204 13.4985 12.1064 13.5511 12.0204Z" fill="black"/>
<path d="M12.3493 10.3816C12.0037 10.3698 11.8942 10.7314 11.8828 10.9139C11.9379 10.6444 12.1471 10.5462 12.3426 10.5375C12.538 10.5287 12.6748 10.6326 12.6903 10.7364C12.7026 10.8198 12.5818 10.9098 12.5195 10.9447C12.7381 10.9078 12.7746 10.7458 12.7659 10.6691C12.771 10.5786 12.6949 10.394 12.3493 10.3816Z" fill="#0C0000"/>
<path d="M4.75824 9.97407C4.59213 9.63989 4.31187 9.51746 4.19256 9.49843C3.88554 9.39559 3.271 10.0713 3.271 13.6027C3.271 18.0176 8.08858 20.607 11.6143 20.607C14.3476 20.607 16.9195 18.0408 17.8636 16.7577L16.1769 13.6027C16.0293 13.8454 15.55 14.4142 14.8115 14.7505C14.073 15.0869 12.8264 15.2705 12.2957 15.3204C6.39718 15.3204 4.96548 10.3928 4.75824 9.97407Z" fill="#FDA925"/>
<path fill-rule="evenodd" clip-rule="evenodd" d="M3.41396 14.8936C3.37128 13.795 3.36459 12.5619 3.4947 12.059C3.73949 11.1107 4.06656 10.08 4.23008 10.059C4.36019 10.0425 4.71966 10.9317 4.8832 11.3786C5.5363 12.8906 7.84738 15.8932 11.8659 15.8104C14.8002 15.7503 15.9603 14.748 16.3116 13.8562L16.1769 13.6027C16.0293 13.8454 15.55 14.4142 14.8115 14.7505C14.2108 15.0241 13.2518 15.0864 12.629 15.127C12.5063 15.1343 12.3837 15.1433 12.2613 15.1537C6.83892 15.1537 5.21283 10.9507 4.82509 9.94744C4.80205 9.8848 4.77683 9.82312 4.74949 9.76228C4.61681 9.49483 4.41676 9.49843 4.281 9.50101C4.24707 9.50203 4.21672 9.50255 4.19256 9.49843C3.88554 9.39559 3.271 10.0713 3.271 13.6027C3.271 14.0522 3.32088 14.4826 3.41396 14.8936Z" fill="#FFFFE0"/>
<path fill-rule="evenodd" clip-rule="evenodd" d="M17.599 16.2647H17.2966C14.716 18.6395 11.5934 19.1229 10.355 19.0679C6.47239 19.0417 4.3305 16.6951 3.40381 14.8535C4.20605 18.5022 8.43584 20.6071 11.6145 20.6071C14.3477 20.6071 16.9196 18.0409 17.8638 16.7579L17.599 16.2647Z" fill="#BF6A0F"/>
<path d="M5.11652 15.134C5.69649 15.134 6.16664 14.594 6.16664 13.9276C6.16664 13.2614 5.69649 12.7212 5.11652 12.7212C4.53655 12.7212 4.06641 13.2614 4.06641 13.9276C4.06641 14.594 4.53655 15.134 5.11652 15.134Z" fill="#1C0000"/>
<path d="M4.9261 15.2801C5.50606 15.2801 5.97621 14.7399 5.97621 14.0736C5.97621 13.4074 5.50606 12.8672 4.9261 12.8672C4.34613 12.8672 3.87598 13.4074 3.87598 14.0736C3.87598 14.7399 4.34613 15.2801 4.9261 15.2801Z" fill="#BF6A0F"/>
<path d="M6.69529 16.751C7.04225 16.8669 7.4211 16.663 7.54145 16.2957C7.66181 15.9284 7.47809 15.5366 7.13111 15.4207C6.78414 15.3048 6.40529 15.5086 6.28495 15.8759C6.1646 16.2434 6.34831 16.635 6.69529 16.751Z" fill="#1C0000"/>
<path d="M6.60397 16.8193C6.95096 16.9351 7.32979 16.7314 7.45015 16.3639C7.5705 15.9966 7.38679 15.6049 7.03981 15.489C6.69284 15.3731 6.314 15.5771 6.19364 15.9443C6.07329 16.3116 6.25699 16.7034 6.60397 16.8193Z" fill="#BF6A0F"/>
<path d="M8.00714 19.0414C8.39345 19.1704 8.81529 18.9434 8.94934 18.5342C9.0834 18.125 8.87891 17.6887 8.4926 17.5596C8.10631 17.4306 7.68446 17.6578 7.5504 18.0669C7.41634 18.4761 7.62083 18.9124 8.00714 19.0414Z" fill="#1C0000"/>
<path d="M7.88213 19.0819C8.26844 19.2109 8.69028 18.9837 8.82434 18.5746C8.95841 18.1655 8.75392 17.7292 8.36761 17.6001C7.98129 17.4711 7.55946 17.6983 7.4254 18.1074C7.29134 18.5166 7.49584 18.9529 7.88213 19.0819Z" fill="#BF6A0F"/>
<path d="M14.3136 17.2388C14.6999 17.3677 15.1113 17.1723 15.2326 16.8023C15.3538 16.4323 15.1389 16.0277 14.7526 15.8986C14.3662 15.7696 13.9548 15.965 13.8336 16.3351C13.7124 16.7052 13.9273 17.1096 14.3136 17.2388Z" fill="#1C0000"/>
<path d="M14.2109 17.3319C14.5974 17.4609 15.0088 17.2656 15.13 16.8955C15.2512 16.5256 15.0364 16.121 14.65 15.9919C14.2637 15.8629 13.8523 16.0583 13.7311 16.4284C13.6098 16.7983 13.8247 17.2029 14.2109 17.3319Z" fill="#BF6A0F"/>
<path d="M11.8776 19.9089C12.5645 20.1383 13.2971 19.7879 13.5138 19.1264C13.7305 18.4648 13.3494 17.7426 12.6624 17.5132C11.9755 17.2838 11.2429 17.6341 11.0261 18.2955C10.8094 18.9571 11.1906 19.6794 11.8776 19.9089Z" fill="#1C0000"/>
<path d="M11.7481 20.0616C12.4351 20.291 13.1677 19.9407 13.3844 19.2792C13.6011 18.6177 13.22 17.8954 12.533 17.666C11.8461 17.4366 11.1135 17.7869 10.8968 18.4484C10.6799 19.11 11.0612 19.8322 11.7481 20.0616Z" fill="#BF6A0F"/>
<path d="M10.5179 11.1318C10.7037 10.9834 10.695 10.6597 10.4982 10.4089C10.3017 10.1582 9.99176 10.0751 9.80613 10.2235C9.62038 10.372 9.62914 10.6956 9.82581 10.9464C10.0224 11.1972 10.3323 11.2802 10.5179 11.1318Z" fill="#02050A"/>
<path d="M14.0763 10.1088C14.3056 10.0493 14.4276 9.75018 14.349 9.4405C14.2702 9.13083 14.0205 8.92795 13.7912 8.98739C13.5618 9.04681 13.4398 9.34601 13.5186 9.65574C13.5973 9.96533 13.847 10.1682 14.0763 10.1088Z" fill="#000005"/>
<path d="M10.2198 10.3303C10.1607 10.2447 10.0597 10.2128 9.99415 10.2589C9.92863 10.305 9.92347 10.4116 9.98251 10.4972C10.0415 10.5827 10.1425 10.6147 10.208 10.5687C10.2735 10.5226 10.2788 10.4159 10.2198 10.3303Z" fill="#FEFDF9"/>
<path d="M14.1843 9.27312C14.1501 9.17495 14.0615 9.11701 13.9862 9.14371C13.911 9.17041 13.8777 9.27162 13.9119 9.3698C13.9461 9.46797 14.0348 9.5259 14.1101 9.49922C14.1851 9.47251 14.2185 9.37129 14.1843 9.27312Z" fill="#FEFDF9"/>
<path d="M12.6444 14.0767C12.7236 14.1377 12.8281 14.1338 12.8777 14.0681C12.9273 14.0024 12.9033 13.8996 12.824 13.8386C12.7448 13.7777 12.6404 13.7817 12.5907 13.8474C12.5412 13.9131 12.5652 14.0158 12.6444 14.0767Z" fill="#FFF6FD"/>
<path d="M11.9838 4.24761C7.40633 4.51142 5.92937 8.32518 5.76277 10.1992C5.12559 6.77314 9.1975 2.26153 13.8819 3.68604C17.8171 4.88271 18.5863 9.15108 18.3097 10.4203C18.3097 8.03822 16.5628 6.1658 15.6891 5.52708C15.5357 5.93437 15.1455 6.72274 13.0396 6.01204C11.506 5.49417 11.6829 4.66724 11.9838 4.24761Z" fill="white"/>
<path d="M20.5348 14.1564C20.5348 12.8832 19.5126 11.8511 18.2515 11.8511C16.9905 11.8511 15.9683 12.8832 15.9683 14.1564C15.9683 15.4297 16.9905 16.4618 18.2515 16.4618C19.5126 16.4618 20.5348 15.4297 20.5348 14.1564Z" fill="#C37600"/>
<path fill-rule="evenodd" clip-rule="evenodd" d="M18.2416 16.7275C19.648 16.7275 20.7886 15.5762 20.7886 14.1557C20.7886 12.7353 19.648 11.584 18.2416 11.584C16.8345 11.584 15.6938 12.7353 15.6938 14.1552C15.6938 15.5762 16.835 16.7275 18.2416 16.7275ZM18.2369 16.3038C19.4115 16.3038 20.3639 15.3422 20.3639 14.1563C20.3639 12.9699 19.4115 12.0081 18.2369 12.0081C17.0618 12.0081 16.1098 12.9699 16.1098 14.1563C16.1098 15.3422 17.0623 16.3038 18.2369 16.3038Z" fill="#F9C813"/>
<path d="M15.7825 15.9436C16.1503 15.7214 16.1914 15.1076 15.8745 14.5724C15.5574 14.0373 15.0022 13.7835 14.6343 14.0058C14.2665 14.2279 14.2253 14.8418 14.5424 15.3769C14.8594 15.9121 15.4146 16.1658 15.7825 15.9436Z" fill="#F3E0CF"/>
<path d="M20.2602 14.1562C20.2602 13.0358 19.3606 12.1274 18.2509 12.1274C17.1413 12.1274 16.2417 13.0358 16.2417 14.1562C16.2417 15.2767 17.1413 16.1851 18.2509 16.1851C19.3606 16.1851 20.2602 15.2767 20.2602 14.1562Z" fill="url(#paint1_linear_328_30702)"/>
<path fill-rule="evenodd" clip-rule="evenodd" d="M18.7516 12.741L19.1116 12.8315L19.0297 13.1642C19.1305 13.2169 19.2165 13.2938 19.28 13.388C19.3435 13.4822 19.3825 13.5908 19.3934 13.704C19.4043 13.8171 19.3869 13.931 19.3426 14.0358C19.2982 14.1405 19.2285 14.2324 19.1397 14.3033C19.2848 14.4792 19.348 14.7204 19.2889 14.9595C19.2453 15.1406 19.135 15.2986 18.9796 15.4015C18.8244 15.5045 18.636 15.5448 18.4522 15.5144L18.3612 15.8847L18.0013 15.7947L18.0917 15.426L17.9236 15.3843L17.8325 15.7525L17.4725 15.6625L17.563 15.2943L16.9639 15.1441L17.0513 14.7873L17.3753 14.8685L17.7821 13.2126L17.4586 13.1309L17.5461 12.7739L18.1457 12.9241L18.2228 12.6089L18.5828 12.6993L18.5057 13.0146L18.6738 13.0562L18.7516 12.741ZM18.3396 13.4492L18.7582 13.554C18.8713 13.5824 18.9345 13.7177 18.9006 13.856C18.8668 13.9942 18.748 14.0832 18.6353 14.0549L18.2161 13.95L18.3396 13.4492ZM18.0156 14.3449L18.6054 14.4932C18.7093 14.5188 18.7654 14.6525 18.7314 14.7913C18.697 14.9302 18.5854 15.0228 18.482 14.9965L17.8922 14.8485L18.0156 14.3449Z" fill="#BF6E00"/>
<path fill-rule="evenodd" clip-rule="evenodd" d="M18.5021 12.5407L18.1422 12.4507L18.0651 12.7659L17.7889 12.6965L17.4649 12.6156L17.3775 12.9727L17.7015 13.0534L17.2941 14.7098L16.9702 14.6291L16.8828 14.9855L17.4819 15.1356L17.3919 15.5038L17.7519 15.5938L17.8424 15.2256L18.0105 15.2678L17.9196 15.6359L18.2796 15.7265L18.3711 15.3563C18.5549 15.3867 18.7435 15.3464 18.8989 15.2433C19.0544 15.1403 19.1649 14.9821 19.2083 14.8008C19.2363 14.6874 19.2372 14.5691 19.2113 14.4552C19.1852 14.3413 19.1329 14.2351 19.0587 14.1452C19.1476 14.0742 19.2173 13.9823 19.2617 13.8775C19.3061 13.7728 19.3236 13.6586 19.3127 13.5455C19.3018 13.4322 19.2626 13.3237 19.1992 13.2293C19.1355 13.135 19.0494 13.0581 18.9485 13.0055L19.0303 12.6728L18.6703 12.5828L18.5932 12.8981L18.4245 12.8559L18.5021 12.5407ZM18.1833 13.291L18.6024 13.3958C18.7151 13.4242 18.7783 13.5588 18.7444 13.6972C18.7104 13.8356 18.5916 13.925 18.4796 13.8968L18.0604 13.7918L18.1833 13.291ZM17.8599 14.1867L18.4497 14.3343C18.5536 14.3602 18.6096 14.4938 18.5757 14.6331C18.5412 14.772 18.4297 14.8642 18.3264 14.8379L17.736 14.6903L17.8599 14.1867Z" fill="#FFEE81"/>
<path fill-rule="evenodd" clip-rule="evenodd" d="M18.706 12.6707L19.066 12.7607L18.9842 13.0934C19.0851 13.146 19.1713 13.2229 19.2348 13.3172C19.2984 13.4116 19.3374 13.5201 19.3484 13.6334C19.3593 13.7465 19.3417 13.8606 19.2974 13.9654C19.253 14.0702 19.1833 14.162 19.0943 14.233C19.2398 14.4089 19.3031 14.6495 19.244 14.8892C19.2003 15.0703 19.0897 15.2282 18.9344 15.331C18.779 15.4339 18.5905 15.4741 18.4068 15.4436L18.3157 15.8138L17.9557 15.7238L18.0462 15.3557L17.8781 15.3134L17.7876 15.6817L17.4276 15.5917L17.5181 15.2234L16.9185 15.0733L17.0058 14.7164L17.3298 14.7977L17.7372 13.1417L17.4133 13.0606L17.5006 12.7035L18.1002 12.8537L18.1778 12.5386L18.5378 12.6286L18.4608 12.9437L18.6289 12.9859L18.706 12.6707ZM18.2946 13.3788L18.7132 13.4837C18.8258 13.512 18.8891 13.6467 18.8552 13.785C18.8212 13.9234 18.7024 14.0129 18.5898 13.9846L18.1712 13.8797L18.2946 13.3788ZM17.9706 14.2746L18.5605 14.4222C18.6638 14.4479 18.7199 14.5817 18.686 14.7205C18.652 14.8598 18.5405 14.9519 18.4365 14.9262L17.8472 14.7776L17.9706 14.2746Z" fill="#F9C813"/>
<path fill-rule="evenodd" clip-rule="evenodd" d="M6.92451 6.25903C5.98496 7.68609 5.71136 9.25357 5.72474 9.80594C5.74428 10.6441 6.005 11.6059 6.16339 12.0069C6.3331 12.2435 6.52081 12.4811 6.72805 12.7115C6.75736 12.6075 6.8052 12.4955 6.87822 12.39C7.01488 12.1922 7.22441 12.0567 7.46087 12.0131C7.42231 11.6758 7.423 11.3352 7.46293 10.9979C7.71595 8.83238 9.54571 7.23047 11.3733 6.90289C12.2795 6.74038 13.2628 6.67866 14.2039 6.99647C15.1475 7.31531 16.0408 8.01266 16.7716 9.35333L16.7742 9.35744L16.7757 9.36259C16.8667 9.60998 16.9747 10.0363 17.0061 10.5156C17.0374 10.9953 17.0435 11.5353 16.8239 12.0038L16.5175 12.2516C16.7238 11.8111 16.9053 10.9917 16.8743 10.5248C16.8508 10.146 16.7764 9.7721 16.6538 9.41299C15.9375 8.10059 15.0694 7.42897 14.1622 7.12247C13.252 6.81494 12.2944 6.87254 11.3965 7.03351C9.61711 7.35234 7.83938 8.91415 7.59356 11.0139C7.43105 12.4055 7.96897 13.454 8.40196 13.9863C8.80618 14.1894 9.24691 14.3669 9.6855 14.5145C10.5927 14.8199 11.4649 14.9886 11.9524 14.9891C12.2244 14.9798 12.6683 14.9485 13.1147 14.8847C13.5441 14.8235 13.958 14.7346 14.2255 14.6147C14.2234 14.299 14.3386 14.0285 14.5659 13.8906C14.713 13.8022 14.8867 13.7811 15.0652 13.8187C15.1167 13.7302 15.1974 13.6211 15.2977 13.5327C15.417 13.4278 15.5754 13.343 15.7522 13.3779L15.7271 13.5086C15.6078 13.4849 15.49 13.5394 15.3846 13.6325C15.3075 13.7003 15.2427 13.7842 15.1969 13.8562C15.4767 13.957 15.7548 14.1926 15.9519 14.5247C16.3055 15.1229 16.2604 15.8089 15.849 16.0573C15.4375 16.3056 14.8179 16.0222 14.4636 15.4237C14.3726 15.2716 14.3053 15.1064 14.264 14.9341C13.9591 15.0539 13.5496 15.1362 13.1579 15.1922C12.6976 15.2575 12.2413 15.2899 11.9596 15.2993H11.9545C11.4206 15.2993 10.5109 15.1193 9.58891 14.8091C8.66578 14.498 7.7036 14.048 7.07621 13.4915C5.53343 12.1236 4.79443 10.2096 4.64942 9.77138C4.6362 9.72386 4.6116 9.6803 4.57772 9.64442C4.54385 9.60866 4.50173 9.58159 4.45503 9.56571C4.37825 9.54025 4.29613 9.53547 4.21692 9.55184L4.18812 9.55851L4.1583 9.55338C4.14081 9.5508 4.05286 9.55338 3.9351 9.67838C3.81888 9.80126 3.68158 10.0363 3.58129 10.4636C3.45273 11.0113 3.1915 12.3314 3.3653 13.8398C3.5381 15.3455 4.1439 17.0312 5.74479 18.3293C7.69229 19.908 9.93809 20.6208 12.0702 20.3898C14.2008 20.16 16.2331 18.987 17.7553 16.7654L18.0083 16.9418C16.4394 19.2312 14.3293 20.4578 12.1032 20.6984C9.87941 20.9391 7.55447 20.1945 5.55245 18.5709C3.87237 17.2081 3.23982 15.4381 3.05984 13.8758C2.87984 12.3155 3.15086 10.9547 3.28251 10.3927C3.3905 9.93192 3.54684 9.63974 3.71295 9.4639C3.86671 9.30191 4.03641 9.233 4.17681 9.2438C4.27709 9.2258 4.41799 9.22425 4.55634 9.27311C4.71473 9.32916 4.86746 9.45104 4.94101 9.67322C5.00322 9.86245 5.18372 10.3437 5.49949 10.9363C5.45188 10.5636 5.42441 10.1887 5.4172 9.81313C5.4028 9.197 5.6949 7.5668 6.66892 6.08727C7.64909 4.59796 9.3266 3.25781 12.0717 3.25781C14.8158 3.25781 16.4594 4.56917 17.4097 6.04716C18.3544 7.51485 18.6157 9.14402 18.6157 9.80954V9.94632C18.5945 10.2753 18.5098 10.9557 18.3381 11.542L18.0433 11.4547C18.2042 10.9043 18.287 10.1293 18.3086 9.80437C18.3071 9.18722 18.0577 7.62284 17.1522 6.21583C16.2506 4.81447 14.6986 3.5679 12.0712 3.5679C9.4454 3.5679 7.85839 4.84173 6.92451 6.25903ZM6.83656 12.8282C6.97542 12.9758 7.12352 13.1203 7.27882 13.2587C7.51589 13.4684 7.80851 13.6649 8.13249 13.8449C7.78968 13.3346 7.56613 12.7537 7.47836 12.1452C7.2418 12.1951 7.08649 12.3227 6.98622 12.4667C6.91169 12.5754 6.86072 12.6985 6.83656 12.8282ZM16.0125 15.4098C16.0176 15.3306 16.014 15.2453 16.0006 15.1573L15.6864 15.4273L15.6299 15.3599L15.9811 15.0575C15.9571 14.9557 15.9227 14.8566 15.8782 14.7618L15.5851 15.0046L15.5302 14.9362L15.8386 14.6806C15.7928 14.5943 15.7393 14.5124 15.6787 14.4358L15.4159 14.6579L15.3594 14.5901L15.6217 14.3679C15.5466 14.2824 15.4613 14.2066 15.3676 14.1422L15.0174 14.423L14.9629 14.3535L15.2884 14.0927C15.2624 14.0778 15.2355 14.0642 15.2082 14.0516C14.9932 13.9534 14.7988 13.957 14.6569 14.0429C14.5144 14.1287 14.4193 14.3 14.4034 14.5381C14.388 14.7751 14.4532 15.0606 14.6142 15.3326C14.7757 15.6052 14.9938 15.7985 15.2077 15.8968C15.4227 15.9945 15.6171 15.9914 15.7594 15.9054C15.9015 15.819 15.9966 15.6479 16.0125 15.4098Z" fill="#000300"/>
<path fill-rule="evenodd" clip-rule="evenodd" d="M11.3843 5.39772C11.8477 5.69085 11.7967 6.79137 10.5856 7.95875C10.921 7.62704 11.425 6.93845 11.2351 6.33934C10.9791 5.53195 10.5934 5.45327 10.2247 5.52372C10.4638 5.36841 11.0063 5.1586 11.3843 5.39772ZM10.2982 7.98034C10.4386 7.52778 10.561 6.68133 10.114 6.2442C9.51081 5.65434 9.1339 5.7685 8.8418 6.00609C8.98065 5.75565 9.3679 5.26196 9.81272 5.29281C10.3574 5.32985 10.8207 6.37226 10.2982 7.98034ZM10.7199 8.16497C10.7455 8.16445 10.7743 8.16342 10.8052 8.16137C12.187 8.09142 12.8073 7.43111 12.6746 6.99605C12.5655 6.64069 12.1141 6.4751 11.8816 6.44167C12.1501 6.59853 12.349 6.85823 12.077 7.5026C11.8759 7.98086 11.1925 8.13718 10.8052 8.16137C10.777 8.16342 10.7491 8.16393 10.7199 8.16497Z" fill="#C19C58"/>
<defs>
<linearGradient id="paint0_linear_328_30702" x1="5.48569" y1="14.4675" x2="19.6413" y2="10.8032" gradientUnits="userSpaceOnUse">
<stop stop-color="#C08695"/>
<stop offset="1" stop-color="#FAC5D5"/>
</linearGradient>
<linearGradient id="paint1_linear_328_30702" x1="11.9994" y1="3.25805" x2="11.9994" y2="20.7429" gradientUnits="userSpaceOnUse">
<stop stop-color="#F99501"/>
<stop offset="1" stop-color="#FEA201"/>
</linearGradient>
</defs>
</svg>
