<svg width="24" height="24" viewBox="0 0 24 24" fill="none" xmlns="http://www.w3.org/2000/svg">
<path d="M14.4631 3.01721C14.2108 3.05054 13.9611 3.09938 13.715 3.16345L13.3831 3.23095C13.0345 3.30887 12.6838 3.37639 12.3313 3.43343C12.185 3.46156 12.0388 3.48407 11.8869 3.48968C11.6163 3.50988 11.3505 3.57253 11.0994 3.6753C10.7717 3.79376 10.4291 3.8657 10.0814 3.88904C10.0251 3.88904 9.96893 3.90029 9.91827 3.92278C9.88454 3.93966 9.80015 3.96779 9.72705 3.98465C9.46404 4.0475 9.20779 4.13605 8.96207 4.24901C8.67089 4.36478 8.39045 4.50594 8.124 4.67087C7.91026 4.81148 7.8765 4.8396 7.6684 5.03085C7.6009 5.08708 7.53903 5.14333 7.46591 5.18834C7.09951 5.41978 6.75161 5.67929 6.42534 5.96455C6.31285 6.07704 6.20035 6.20079 6.15536 6.23453C6.08787 6.30202 5.99787 6.44827 5.86288 6.71263C5.8235 6.79138 5.76725 6.89262 5.73351 6.93761C5.67165 7.02198 5.66601 7.03322 5.69975 7.0951C5.71664 7.12885 5.72788 7.20197 5.72788 7.33697C5.72788 7.69693 5.756 8.03442 5.78413 8.10192C5.81788 8.18629 5.88537 8.22004 6.05974 8.2369C6.26785 8.25941 6.35784 8.31004 6.35784 8.40003C6.35784 8.43377 6.38597 8.47877 6.44783 8.54627C6.56034 8.67001 6.56596 8.67564 6.60532 8.66439C6.63345 8.66439 6.66157 8.66439 6.69533 8.68127C6.75157 8.70376 6.77407 8.75439 6.7797 8.85C6.78532 8.97937 6.78532 8.97937 6.84157 9.00187L6.98219 9.02999C7.11156 9.04687 7.17906 9.06937 7.22967 9.11998C7.26341 9.15936 7.30279 9.17623 7.38716 9.18748C7.50529 9.20997 7.56715 9.23248 7.7134 9.33372C7.83713 9.41804 7.86525 9.45742 7.86525 9.55874C7.86525 9.63184 7.87652 9.65429 7.9215 9.71059C7.97775 9.78933 8.00588 9.79497 8.10149 9.7556C8.17462 9.72188 8.33773 9.71623 8.38836 9.74431C8.41086 9.7556 8.45023 9.81178 8.47835 9.87372C8.50648 9.92989 8.55147 10.003 8.58523 10.0369C8.67522 10.1211 8.81583 10.2112 8.88895 10.2338L9.08019 10.2899C9.18143 10.3125 9.22081 10.318 9.23768 10.3012C9.26018 10.2786 9.65395 10.2786 9.76078 10.3012C9.91827 10.3847 10.0899 10.4381 10.267 10.4587C10.4414 10.4924 10.627 10.5374 10.6663 10.5598C10.7394 10.5881 11.0713 10.7006 11.2626 10.7567C11.3133 10.7737 11.4032 10.7849 11.4708 10.7849C11.5495 10.7849 11.6057 10.7961 11.6676 10.8298L11.8926 10.9086L12.0951 10.9649C12.1288 10.9818 12.2019 10.9986 12.2469 11.0042C12.2919 11.0099 12.3594 11.0267 12.3931 11.0437L12.5449 11.1054L12.725 11.1787C12.77 11.2011 12.8599 11.2348 12.9275 11.2517C13.103 11.298 13.2758 11.3544 13.4449 11.4204C13.6575 11.4826 13.8659 11.5578 14.0693 11.6455C14.3337 11.7747 14.5642 11.8761 14.5756 11.8761C14.7372 11.946 14.8901 12.0347 15.0311 12.1404C15.273 12.326 15.363 12.433 15.4305 12.5904C15.4474 12.6242 15.4698 12.641 15.5148 12.6467C15.6273 12.6692 15.6386 12.6748 15.723 12.8041C15.8522 13.0067 15.8467 13.1867 15.7061 13.4229C15.5486 13.6872 15.3742 13.8167 14.7387 14.1371C14.6542 14.1821 14.5586 14.2385 14.5362 14.2609C14.5021 14.2918 14.4643 14.3181 14.4237 14.3396C14.2506 14.4247 14.078 14.511 13.9062 14.5985L13.7824 14.6546L13.6417 14.7222L12.7081 15.099L12.4381 15.2058C12.3313 15.2452 12.2075 15.2902 12.1568 15.3015C12.1045 15.3151 12.0549 15.3378 12.0107 15.369C11.9881 15.3916 11.8982 15.4309 11.8138 15.459L11.5101 15.5602L11.1388 15.6783C10.8598 15.7577 10.5824 15.8421 10.3063 15.9315L9.40642 16.2127C9.0577 16.3252 8.84396 16.3983 7.96651 16.719C7.34614 16.9413 6.74743 17.2199 6.17786 17.5514C5.66864 17.8157 5.21734 18.179 4.85043 18.6201C4.69294 18.7663 4.52983 18.9688 4.52983 19.0139C4.52983 19.042 4.48483 19.115 4.41733 19.1938C4.39257 19.2196 4.37342 19.2502 4.36108 19.2838C4.27202 19.4273 4.19489 19.5776 4.13048 19.7337C4.11923 19.773 4.12484 19.7844 4.16985 19.8068C4.2261 19.8406 4.2261 19.8631 4.19798 19.9362C4.18673 19.9643 4.27109 20.0037 4.35547 20.0037C4.42858 20.0037 4.45671 20.043 4.45108 20.1556C4.45108 20.2005 4.45109 20.2512 4.46233 20.2569C4.49607 20.2738 4.4792 20.3131 4.42296 20.3525C4.38653 20.3756 4.36036 20.4119 4.34983 20.4537L4.32734 20.5268L4.41172 20.5155C4.50733 20.5044 4.5467 20.5325 4.5467 20.6281L4.55232 20.7743V20.8587L4.64232 20.8699C4.7267 20.8811 4.85607 20.8418 5.0248 20.7574C5.08125 20.7319 5.14296 20.7204 5.20479 20.7237C5.31729 20.7237 5.32854 20.7237 5.42415 20.645C5.4804 20.6055 5.5254 20.5662 5.5254 20.5605C5.5254 20.5381 5.64914 20.4875 5.69414 20.4875C5.73913 20.4875 5.73913 20.5044 5.69414 20.5494L5.66038 20.5888L5.71664 20.6169C5.756 20.6336 5.80101 20.645 5.81787 20.6393H5.87975C5.91349 20.6675 5.891 20.718 5.7785 20.8644C5.64352 21.0443 5.66601 21.0443 5.891 20.8699C5.98663 20.7968 6.08787 20.7462 6.08787 20.78C6.08143 20.7966 6.07188 20.8119 6.05974 20.825C6.02599 20.8699 6.02599 20.8868 6.05974 20.8868C6.07662 20.8868 6.09348 20.8699 6.10474 20.853C6.12723 20.808 6.21724 20.7687 6.29034 20.7687C6.33535 20.7687 6.3466 20.7687 6.33535 20.8025C6.31848 20.8418 6.31847 20.8418 6.43098 20.7911C6.52097 20.7518 6.70095 20.6336 6.77407 20.5662C6.80457 20.5422 6.83876 20.5231 6.87532 20.51C6.98728 20.4709 7.09632 20.4239 7.20155 20.3693C7.23529 20.3693 7.20718 20.4256 7.16217 20.4537C7.12281 20.4818 7.11717 20.4987 7.12843 20.5155C7.1453 20.5381 7.16218 20.5325 7.24092 20.493C7.39278 20.4143 7.46591 20.4087 7.38716 20.4818C7.36465 20.4987 7.35341 20.5211 7.35341 20.5381C7.35341 20.5549 7.29717 20.6225 7.21843 20.69L7.09468 20.825C7.10592 20.8361 7.25217 20.7687 7.28592 20.7406C7.47546 20.6078 7.67695 20.4929 7.88776 20.3974C8.06775 20.33 8.21961 20.2569 8.28149 20.2005C8.31523 20.1612 8.34898 20.15 8.42773 20.1444C8.49522 20.1444 8.52334 20.133 8.51772 20.1163C8.51772 20.105 8.51773 20.088 8.53459 20.0769C8.59084 20.0375 8.93958 19.9362 9.04082 19.9362C9.07456 19.9362 9.07456 19.9362 9.06331 19.9643C9.04082 20.0037 9.05206 20.0206 9.09707 20.0206C9.13644 20.0206 9.13644 20.043 9.09707 20.0769C9.0577 20.1163 8.82708 20.2231 8.75397 20.2399C8.68083 20.2512 8.5121 20.3356 8.5121 20.3525C8.5121 20.375 8.6246 20.3525 8.74272 20.3075C8.93958 20.2344 9.23206 20.1556 9.24893 20.1668C9.26018 20.1837 9.22644 20.2118 9.17019 20.2399C9.09144 20.2793 9.09144 20.3075 9.18143 20.3075C9.26018 20.3075 9.26018 20.33 9.19268 20.3806C9.14769 20.4143 9.14769 20.42 9.17019 20.42C9.24893 20.42 9.41771 20.3693 9.46273 20.3356C9.50761 20.3075 9.55827 20.285 9.60893 20.2738C9.7214 20.2399 9.85081 20.1725 9.85081 20.15C9.85081 20.1387 9.8058 20.133 9.74949 20.1275C9.71104 20.1266 9.67285 20.119 9.63702 20.105C9.59252 20.096 9.54659 20.096 9.5021 20.105C9.41771 20.105 9.38949 20.105 9.38949 20.0937C9.38949 20.06 9.49081 20.0206 9.60329 20.015C9.67074 20.015 9.70447 20.0037 9.69897 19.9925C9.68767 19.9643 9.86761 19.9025 10.0139 19.88C10.0982 19.8744 10.1545 19.8575 10.1826 19.835C10.2219 19.79 10.3233 19.762 10.4245 19.762C10.4695 19.762 10.5033 19.7506 10.5258 19.728C10.5707 19.6775 10.672 19.6381 10.8069 19.6156L11.032 19.5594C11.0882 19.5369 11.1669 19.5088 11.2119 19.5031C11.3188 19.475 11.3019 19.447 11.1838 19.447C11.1275 19.4581 11.0882 19.447 11.0825 19.4356C11.077 19.4187 11.1558 19.385 11.347 19.3232C11.4088 19.3062 11.4763 19.2838 11.4932 19.2669L11.6226 19.2107C11.66 19.2032 11.6961 19.1899 11.7294 19.1713C11.8621 19.1105 12.0055 19.0761 12.1513 19.07C12.2243 19.07 12.3143 19.0587 12.3481 19.0475L12.6013 19.0194C12.7081 19.0082 12.7981 18.9913 12.8094 18.9856C12.8252 18.9722 12.8449 18.9644 12.8656 18.9632C12.8882 18.9632 12.8825 18.9575 12.8432 18.9463C12.8177 18.9383 12.7906 18.9363 12.7644 18.9406C12.725 18.9406 12.6913 18.9406 12.6519 18.9295C12.6052 18.9191 12.5583 18.9097 12.5113 18.9012C12.4718 18.9012 12.4438 18.8845 12.4438 18.8788C12.4438 18.8564 12.6407 18.8 12.7531 18.7831L13.0007 18.7156C13.0905 18.682 13.1862 18.6539 13.2032 18.6539C13.4059 18.5569 13.622 18.4905 13.8442 18.457C13.9567 18.44 14.0412 18.412 14.0693 18.4007C14.1255 18.3556 14.2268 18.322 14.5756 18.2375C14.8346 18.152 15.1024 18.0953 15.3742 18.0689C15.42 18.0563 15.4676 18.0525 15.5148 18.0576C15.571 18.0689 15.5936 18.0463 15.5542 18.0182C15.5148 17.9956 15.571 17.9508 15.7567 17.8607C15.9873 17.7483 16.1054 17.7146 16.246 17.7146C16.3023 17.7146 16.3811 17.7089 16.4147 17.6976C16.6701 17.612 16.9184 17.5067 17.1572 17.3826C17.196 17.3707 17.2323 17.3517 17.2641 17.3263C17.408 17.2265 17.5468 17.1195 17.6803 17.0058C17.6917 17.0058 17.7478 16.972 17.8041 16.9326C17.8828 16.8764 17.9166 16.8483 17.9222 16.809C17.9446 16.7133 18.1359 16.6065 18.3046 16.6065C18.3891 16.6065 18.4284 16.6008 18.4621 16.5727L18.5016 16.5389H18.3777C18.2822 16.5446 18.2484 16.5389 18.2428 16.5221C18.2316 16.494 18.3777 16.3533 18.4509 16.3252C18.4902 16.3083 18.5071 16.2858 18.5071 16.2689C18.5071 16.2465 18.5296 16.2127 18.5466 16.2015L18.6366 16.1114C18.6646 16.0833 18.7096 16.0552 18.7321 16.044C18.7715 16.0326 18.7771 16.0046 18.7434 15.9876C18.7041 15.9765 18.7096 15.9371 18.7491 15.9089C18.7709 15.8896 18.7867 15.8642 18.7941 15.8358C18.805 15.8003 18.8201 15.7665 18.839 15.7346C18.8728 15.6671 18.8952 15.5377 18.8671 15.4984C18.8446 15.459 18.8671 15.3521 18.9066 15.3183L18.9853 15.2621C19.1146 15.1834 19.1652 15.1441 19.1933 15.0821C19.2099 15.0523 19.2213 15.02 19.2271 14.9866C19.2567 14.9178 19.2847 14.8483 19.3114 14.7784C19.3621 14.6828 19.4858 14.5197 19.5365 14.4971C19.5702 14.4803 19.5816 14.4803 19.5926 14.4971C19.6096 14.5197 19.5983 14.6266 19.5759 14.6996C19.5702 14.7277 19.5759 14.739 19.5871 14.7277C19.5983 14.7277 19.604 14.6996 19.604 14.6828C19.604 14.6602 19.6264 14.6266 19.6602 14.5985C19.7051 14.5534 19.7277 14.4691 19.7277 14.3396C19.7165 14.0584 19.7277 13.9909 19.7671 13.9121C19.8233 13.811 19.8233 13.7997 19.7671 13.7434C19.7334 13.7041 19.7277 13.6872 19.7446 13.6592C19.7727 13.5972 19.7446 13.5466 19.6884 13.5521C19.6096 13.5692 19.5759 13.5354 19.5476 13.4117L19.514 13.2992L19.559 13.2428C19.6096 13.1867 19.6152 13.1754 19.604 13.1135C19.604 13.091 19.6264 13.0403 19.6546 13.001C19.6735 12.9776 19.6873 12.9506 19.6951 12.9214C19.7029 12.8924 19.7043 12.862 19.6996 12.8323C19.699 12.7896 19.6894 12.7473 19.6714 12.7086C19.652 12.6802 19.6404 12.6471 19.6377 12.6129C19.6332 12.5711 19.6198 12.5308 19.5983 12.4947C19.5773 12.464 19.5619 12.4298 19.5533 12.3936C19.5533 12.3654 19.5196 12.2922 19.4689 12.2079L19.4352 12.1236C19.4147 12.079 19.3882 12.0373 19.3565 11.9998L19.154 11.7299C18.8689 11.338 18.5211 10.996 18.1247 10.7173C18.0909 10.6612 17.9334 10.5431 17.7928 10.4643C17.7141 10.4137 17.6296 10.3573 17.5509 10.2955C17.4171 10.1921 17.2761 10.0981 17.1292 10.0143L16.9042 9.87372L16.4935 9.63184C15.7369 9.18683 14.9557 8.78496 14.1536 8.42815C13.7423 8.25996 13.3169 8.12821 12.8825 8.03442C12.6334 7.98512 12.3859 7.92884 12.1401 7.86569C11.8982 7.82068 11.7632 7.75881 11.7632 7.68569C11.7632 7.66882 11.7858 7.64631 11.8138 7.62945L11.87 7.5957L11.8138 7.53946C11.7858 7.51133 11.7575 7.47196 11.7575 7.46072C11.7575 7.41008 11.8532 7.34821 12.0781 7.22447C12.3109 7.10995 12.5382 6.98418 12.7588 6.84761L13.04 6.67888C13.2033 6.57561 13.3723 6.48172 13.5462 6.39764C13.6306 6.35828 13.715 6.31889 13.7881 6.2739C13.8892 6.21765 13.9793 6.17828 14.013 6.17828C14.1255 6.17828 14.2156 6.12765 14.6206 5.85768C14.8792 5.68894 14.9299 5.66081 15.1098 5.59893C15.3123 5.52581 15.3573 5.50332 15.4698 5.43019C15.5092 5.39645 15.6837 5.29521 15.8579 5.20521L16.2517 4.98023C16.3642 4.88461 16.4766 4.72712 16.606 4.46275L16.7297 4.27152C16.7692 4.22652 16.8142 4.13652 16.8366 4.08027C16.8592 4.02402 16.8929 3.93403 16.9267 3.88904C16.9884 3.77654 16.9829 3.7203 16.9042 3.50093C16.8254 3.29845 16.7804 3.24782 16.6623 3.21407C16.5216 3.1747 16.4935 3.15782 16.4711 3.10158L16.4317 3.04533C16.2854 3.11845 16.2179 3.12971 16.0154 3.10158C15.9335 3.08992 15.8505 3.08615 15.7679 3.09034C15.6837 3.09596 15.5992 3.09033 15.5205 3.05097C15.1688 2.9973 14.8117 2.98596 14.4574 3.01721H14.4631ZM8.97332 9.91873C8.99581 9.93554 9.0577 9.96363 9.10831 9.98055C9.2208 10.0199 9.26018 10.0593 9.18706 10.0593C9.14018 10.0508 9.0959 10.0315 9.0577 10.003C9.00714 9.97097 8.9522 9.9463 8.89457 9.92989C8.84957 9.91874 8.8102 9.9018 8.80458 9.89052C8.79896 9.8568 8.91707 9.87937 8.97332 9.91873ZM10.2783 10.9705C10.2219 10.9818 10.2276 11.083 10.2951 11.1111C10.3851 11.1561 10.6777 11.1842 10.8576 11.173L11.0263 11.1617L10.9138 11.1223C10.8556 11.1025 10.8006 11.0741 10.7508 11.038C10.7247 11.0136 10.6941 10.9945 10.6607 10.9818C10.5337 10.9681 10.4058 10.9642 10.2783 10.9705ZM18.7265 11.7523C18.7828 11.7804 18.8109 11.8254 18.8728 12.0055C18.8896 12.0617 18.9177 12.118 18.929 12.1292C19.0471 12.2023 19.0977 12.3092 19.0921 12.4667C19.0808 12.5904 19.0415 12.6016 18.9346 12.5004C18.8934 12.4625 18.8502 12.4268 18.8052 12.3936C18.7798 12.3761 18.7586 12.353 18.7434 12.326C18.7096 12.2755 18.6646 12.2304 18.6253 12.1854C18.5633 12.118 18.5128 12.056 18.5128 12.0448C18.5051 12.0063 18.4938 11.9686 18.4791 11.9322C18.4397 11.8311 18.4341 11.7523 18.4621 11.7242C18.5185 11.6849 18.6253 11.696 18.7265 11.7523ZM19.0641 12.7985C19.0641 12.8378 19.0077 12.8547 18.974 12.8378C18.9459 12.8154 18.9459 12.7423 18.974 12.7254C19.0021 12.7086 19.0584 12.7591 19.0584 12.7985H19.0641ZM19.8121 13.1811C19.7784 13.2147 19.7896 13.2597 19.8289 13.2542C19.8683 13.2428 19.8852 13.2204 19.8683 13.1867C19.8571 13.1528 19.8402 13.1528 19.8121 13.1811ZM19.4746 13.5241C19.4971 13.5466 19.4746 13.6535 19.4408 13.6816C19.4015 13.7153 19.3508 13.6816 19.3284 13.6142C19.3114 13.5466 19.3284 13.5128 19.3621 13.5017C19.3958 13.4904 19.4521 13.5017 19.4746 13.5241ZM19.1371 13.5804C19.1878 13.6366 19.1821 13.6366 19.154 13.7153C19.1315 13.7884 19.0977 13.8391 19.0696 13.8278C19.0471 13.8278 18.9909 13.6592 18.9909 13.6085C18.9909 13.5128 19.0641 13.496 19.1315 13.5747L19.1371 13.5804ZM18.9459 14.0303L18.9346 14.1428C18.9346 14.1878 18.9177 14.2104 18.8952 14.2271C18.8334 14.2666 18.8165 14.2441 18.8278 14.1428C18.8446 14.036 18.884 13.9742 18.9233 13.9742C18.9571 13.9742 18.9571 13.9796 18.9459 14.0303ZM18.7602 16.2296C18.7317 16.2476 18.7084 16.2728 18.6927 16.3026C18.6712 16.3408 18.6488 16.3782 18.6253 16.4152L18.5916 16.4771L18.6477 16.4433C18.6921 16.4088 18.7302 16.367 18.7602 16.3196C18.839 16.2071 18.839 16.1901 18.7602 16.2296ZM15.4698 17.5401C15.4698 17.5625 15.4135 17.5739 15.3687 17.5682C15.3461 17.5625 15.3347 17.5514 15.3404 17.5401C15.3573 17.5232 15.4698 17.5232 15.4698 17.5401ZM15.1436 17.7539C15.1267 17.7988 14.9523 17.8438 14.8062 17.8438C14.6542 17.8438 14.6092 17.8271 14.6937 17.7876C14.8117 17.737 15.1548 17.7146 15.1436 17.7539ZM14.3843 17.8045C14.373 17.8271 14.2717 17.8438 14.2156 17.8326L14.1818 17.8271L14.2212 17.81C14.2773 17.782 14.4011 17.782 14.3898 17.8045H14.3843ZM13.1918 17.8945C13.1862 17.9225 13.1018 17.9395 13.0568 17.9282C13.0231 17.9169 13.0231 17.9169 13.0568 17.8945C13.0905 17.8664 13.2032 17.8664 13.1918 17.8945ZM13.7655 17.8832C13.7992 17.8888 13.8274 17.9058 13.8274 17.9169C13.8274 17.9282 13.8442 17.9395 13.8612 17.9451L13.7488 17.962C13.6893 17.9744 13.6281 17.9744 13.5687 17.962C13.5328 17.9486 13.494 17.9449 13.4562 17.9508C13.3662 17.962 13.2987 17.9282 13.3213 17.8945C13.3381 17.8721 13.653 17.8664 13.7655 17.8832ZM14.6317 17.9001C14.6092 17.9282 14.5136 17.9339 14.5136 17.9114C14.5136 17.8888 14.553 17.8775 14.6149 17.8721C14.6487 17.8721 14.6487 17.8721 14.6317 17.9001ZM14.4462 17.9058C14.4462 17.9508 14.1818 17.9845 14.0412 17.962L13.9567 17.9451L14.0581 17.9339L14.2268 17.9058C14.3056 17.8888 14.4462 17.8888 14.4462 17.9058ZM13.1468 18.0632C13.2819 18.0632 12.68 18.2882 12.4438 18.3332C12.2868 18.3512 12.1283 18.3512 11.9713 18.3332C11.9263 18.322 11.9263 18.322 11.9543 18.2995C11.9911 18.2783 12.031 18.2631 12.0725 18.2545L12.3538 18.1925C12.8488 18.08 12.9893 18.0463 13.04 18.0576L13.1468 18.0632ZM13.2763 18.2825L13.1749 18.3163C13.0117 18.3613 12.8375 18.3389 12.9724 18.2939C13.0174 18.2713 13.293 18.2657 13.2763 18.2825ZM11.8194 18.3051C11.8194 18.3163 11.7968 18.322 11.7858 18.322C11.7688 18.322 11.7632 18.3163 11.7688 18.3051C11.7744 18.2939 11.7913 18.2882 11.8082 18.2882C11.8194 18.2882 11.8251 18.2939 11.8194 18.3051ZM11.3244 18.4964C11.2963 18.5245 11.1108 18.5807 11.0544 18.5807C10.9813 18.5807 11.0094 18.5581 11.1275 18.5131C11.2288 18.4795 11.3526 18.4681 11.3244 18.4964ZM11.5719 18.53C11.5156 18.5751 10.8463 18.7831 10.8126 18.7663C10.7788 18.755 10.9926 18.6706 11.1613 18.6256C11.2569 18.6032 11.3526 18.5695 11.3863 18.5581C11.4368 18.53 11.5438 18.502 11.5888 18.502C11.6057 18.502 11.6 18.5075 11.5719 18.53ZM12.5619 18.5131C12.5619 18.5414 12.4999 18.5863 12.4157 18.6088C12.3741 18.621 12.3358 18.6422 12.3031 18.6706C12.2919 18.6875 12.1906 18.7382 12.0894 18.7831C11.8982 18.8619 11.8813 18.8619 11.6394 18.8788C11.3807 18.8957 11.3019 18.8845 11.3019 18.8338C11.3019 18.817 11.3188 18.8 11.347 18.7888C11.6169 18.6763 12.0894 18.5414 12.2693 18.5131C12.4044 18.4964 12.5619 18.4907 12.5619 18.5131ZM10.6101 19.2331C10.5835 19.2511 10.5521 19.2609 10.5202 19.2612C10.4751 19.2612 10.4695 19.2612 10.5032 19.2331C10.5313 19.2162 10.5595 19.205 10.5876 19.205C10.6439 19.205 10.6439 19.205 10.6101 19.2331Z" fill="url(#paint0_linear_328_55886)"/>
<defs>
<linearGradient id="paint0_linear_328_55886" x1="12.0001" y1="3" x2="12.0001" y2="21.0001" gradientUnits="userSpaceOnUse">
<stop stop-color="#4E4E4E"/>
<stop offset="1" stop-color="#0C0C0C"/>
</linearGradient>
</defs>
</svg>
