<svg width="24" height="24" viewBox="0 0 24 24" fill="none" xmlns="http://www.w3.org/2000/svg">
<path fill-rule="evenodd" clip-rule="evenodd" d="M6.34807 3.00059C5.46011 3.00059 4.60852 3.35333 3.98064 3.98122C3.35275 4.60911 3 5.4607 3 6.34866V17.652C3 18.54 3.35275 19.3915 3.98064 20.0194C4.60852 20.6473 5.46011 21 6.34807 21H17.6513C18.5394 21 19.3909 20.6473 20.0189 20.0194C20.6468 19.3915 20.9995 18.54 20.9995 17.652V6.34926C20.9996 5.90949 20.9132 5.47399 20.745 5.06765C20.5768 4.6613 20.3303 4.29207 20.0193 3.98104C19.7084 3.67002 19.3393 3.42329 18.9329 3.25496C18.5267 3.08663 18.0912 3 17.6513 3L6.34807 3.00059ZM10.7981 12C10.7981 12 10.818 11.9662 10.7981 15.9376V19.2291H13.2069V15.9382C13.2061 15.1126 13.2104 14.3315 13.214 13.6861C13.2188 12.7516 13.2224 12.0994 13.2069 12.0031C13.7776 11.7959 14.3737 11.52 14.8729 11.2865C15.5914 10.9493 16.314 10.2423 16.6193 9.57627C17.0564 8.62186 17.0878 7.90166 16.7427 6.73646C16.4405 5.71517 16.432 5.36412 16.7006 4.93235C16.788 4.79086 16.8541 4.71196 16.8403 4.65235C16.8175 4.55359 16.5807 4.50541 15.8751 4.31633C15.25 4.14893 15.25 4.14893 15.1385 4.29707C14.7647 4.79265 14.746 5.71037 15.0885 6.778C15.4655 7.95285 15.3553 8.82539 14.7442 9.50223C14.4701 9.80516 13.9348 10.0995 13.3802 10.2519C12.8304 10.403 11.2727 10.4048 10.6536 10.2549C9.5083 9.97672 8.86032 9.3391 8.72062 8.35088C8.64835 7.84144 8.70558 7.45546 8.97534 6.6383C9.24387 5.82418 9.26733 5.06363 9.03978 4.55781C8.82299 4.07727 8.7158 4.11039 8.06908 4.31032L7.93359 4.35187L7.14957 4.61863L7.34467 4.99137C7.60059 5.47912 7.59156 5.7784 7.29529 6.65937C7.00625 7.51928 6.95385 8.107 7.10501 8.78564C7.32479 9.77382 7.87157 10.5458 8.75194 11.1119L8.86273 11.1835C9.46249 11.5701 9.92672 11.8688 10.7981 12ZM10.1959 17.4226H7.18508V18.6269H10.1959V17.4226ZM16.8198 17.4226H13.8089V18.6269H16.8198V17.4226ZM10.1959 15.0138H7.18508V16.2183H10.1959V15.0138ZM16.8198 15.0138H13.8089V16.2183H16.8198V15.0138ZM10.1959 12.6052H7.18508V13.8096H10.1959V12.6052ZM16.8198 12.6052H13.8089V13.8096H16.8198V12.6052ZM10.8311 10.0201C11.2124 10.0412 11.8749 7.96187 11.9995 7.50061C12.0199 7.55662 12.0585 7.69631 12.1097 7.8842C12.3114 8.62004 12.7137 10.0869 12.9901 10.0869C13.0201 10.0869 14.3316 9.4005 14.3774 9.36017C14.3887 9.35048 13.9926 8.58814 13.4983 7.66621L12.5625 5.81272H11.4365L10.3092 7.67765L9.41247 9.36186L10.0882 9.68896C10.4597 9.86951 10.7945 10.0183 10.8311 10.0201Z" fill="#C44536"/>
</svg>
