<svg width="24" height="24" viewBox="0 0 24 24" fill="none" xmlns="http://www.w3.org/2000/svg">
<path d="M14.86 7.40925C14.8537 7.40372 14.8485 7.3969 14.8449 7.38926L12.3347 3.04901C12.2948 2.979 12.2748 2.984 12.2748 3.06401V7.51426C12.9755 7.59835 13.6202 7.93943 14.0838 8.47151C14.5476 9.00357 14.7974 9.68875 14.7849 10.3944L17.1151 11.4195C17.1205 11.4216 17.1264 11.4217 17.1318 11.4199C17.1373 11.418 17.142 11.4144 17.1451 11.4094C17.1495 11.4019 17.1517 11.3932 17.1517 11.3845C17.1517 11.3758 17.1495 11.3671 17.1451 11.3595L16.0399 9.44936C16.025 9.42937 16.03 9.40937 16.045 9.38937L18.4752 6.81922C18.5102 6.77922 18.5102 6.74422 18.4752 6.70921L17.1001 5.24914C17.0907 5.2393 17.0795 5.23146 17.067 5.22612C17.0546 5.22076 17.0411 5.21801 17.0276 5.21801C17.0139 5.21801 17.0005 5.22076 16.9881 5.22612C16.9757 5.23146 16.9643 5.2393 16.9551 5.24914L14.93 7.39925C14.924 7.40496 14.9168 7.40926 14.9092 7.41185C14.9014 7.41446 14.8931 7.41527 14.8849 7.41426C14.8762 7.41478 14.8678 7.41305 14.86 7.40925ZM11.7397 3.05401L11.7448 7.50926C11.0395 7.58882 10.3894 7.92864 9.92138 8.46225C9.45345 8.99585 9.20143 9.68478 9.21461 10.3944L6.90448 11.4145C6.89801 11.4168 6.89096 11.4168 6.88448 11.4145H6.87947L6.86947 11.4045C6.86539 11.3986 6.8632 11.3916 6.8632 11.3845C6.8632 11.3774 6.86539 11.3704 6.86947 11.3645L7.97954 9.43937C7.98418 9.4325 7.98621 9.4242 7.98529 9.41596C7.98439 9.40771 7.98057 9.40006 7.97455 9.39437L5.5094 6.79422C5.5055 6.79036 5.50255 6.78562 5.50082 6.78041C5.49908 6.7752 5.49859 6.76965 5.4994 6.76422C5.49933 6.7596 5.50019 6.75501 5.5019 6.75072C5.50362 6.74643 5.50617 6.74252 5.5094 6.73922L6.96949 5.20412C6.97352 5.19954 6.9787 5.1961 6.98449 5.19412H6.99949L7.00949 5.20412L9.09961 7.42426L9.1096 7.42926C9.11416 7.43189 9.11935 7.43327 9.12461 7.43327C9.12987 7.43327 9.13505 7.43189 9.13962 7.42926C9.14359 7.42663 9.14699 7.42324 9.14961 7.41926L11.6748 3.03399C11.6802 3.02858 11.6871 3.02506 11.6947 3.024H11.7148C11.7231 3.02637 11.7302 3.03171 11.7347 3.03901V3.05401H11.7397ZM6.85948 12.0395L9.26962 10.9795C9.3802 11.5775 9.6808 12.1238 10.1267 12.5373C10.5726 12.9509 11.1402 13.2093 11.7448 13.2746V15.1748C11.7448 15.1847 11.7448 15.1946 11.7347 15.2047C11.7316 15.2126 11.7263 15.2194 11.7198 15.2247C11.7122 15.2291 11.7036 15.2315 11.6947 15.2315C11.6859 15.2315 11.6773 15.2291 11.6697 15.2247L6.85447 12.1346C6.84603 12.1299 6.83908 12.123 6.83447 12.1145C6.83039 12.1058 6.8287 12.096 6.82958 12.0864C6.83045 12.0767 6.83387 12.0675 6.83948 12.0596C6.84408 12.051 6.85103 12.0442 6.85948 12.0395ZM12.2748 15.1748V13.2746C12.8754 13.2033 13.4373 12.9415 13.8782 12.5275C14.3191 12.1136 14.6159 11.5693 14.725 10.9745L17.1501 12.0395C17.1534 12.039 17.1568 12.039 17.16 12.0395C17.1661 12.0435 17.1712 12.0485 17.1751 12.0545C17.1798 12.0606 17.183 12.0676 17.1847 12.0751C17.1865 12.0825 17.1866 12.0904 17.1853 12.0978C17.1838 12.1054 17.181 12.1125 17.1766 12.1188C17.1721 12.1251 17.1666 12.1305 17.16 12.1346L12.3548 15.2197C12.3472 15.2241 12.3386 15.2264 12.3298 15.2264C12.321 15.2264 12.3124 15.2241 12.3048 15.2197C12.2969 15.2165 12.2901 15.2114 12.2849 15.2047C12.2786 15.1958 12.2752 15.1855 12.2748 15.1748ZM9.67462 18.1199C9.6836 18.1094 9.69597 18.1023 9.70962 18.0998C9.72969 18.0998 9.74462 18.0998 9.75466 18.1199C10.4147 19.1199 11.0447 20.06 11.6497 20.9501C11.6647 20.9751 11.6798 20.9901 11.6997 21H11.7148L11.7347 20.995L11.7397 20.9851L11.7448 20.965V16.9649C11.745 16.9492 11.7416 16.9338 11.7347 16.9198C11.7265 16.9051 11.7145 16.8929 11.6997 16.8848L6.94948 13.8296C6.92447 13.8096 6.90948 13.8195 6.91447 13.8545C6.91447 13.8797 6.92447 13.9046 6.93948 13.9246L8.44957 16.1747C8.4574 16.1859 8.46118 16.1995 8.46027 16.2131C8.45936 16.2268 8.45382 16.2397 8.44456 16.2498L6.14443 18.6848C6.13495 18.6951 6.12967 18.7085 6.12967 18.7225C6.12967 18.7363 6.13495 18.7497 6.14443 18.7599L7.56453 20.2599C7.57015 20.2662 7.57695 20.2714 7.58452 20.275C7.59575 20.2809 7.60856 20.2831 7.62115 20.2814C7.63374 20.2796 7.64541 20.2738 7.65453 20.265L9.67462 18.1149V18.1199ZM14.3249 18.1099H14.3299L16.33 20.23C16.3801 20.28 16.43 20.28 16.48 20.23L17.8551 18.7749C17.8901 18.7399 17.8901 18.7049 17.8551 18.6749L15.5849 16.2747C15.568 16.2579 15.5577 16.2355 15.5559 16.2116C15.554 16.1878 15.5608 16.164 15.575 16.1448L17.1251 13.8497C17.1277 13.8461 17.1295 13.8419 17.1304 13.8376C17.1312 13.8333 17.1311 13.8289 17.13 13.8246C17.1288 13.8185 17.1252 13.8131 17.12 13.8096H17.0901L12.3448 16.8598C12.3286 16.8716 12.3149 16.8866 12.3047 16.9037C12.2944 16.9208 12.2877 16.94 12.2849 16.9598L12.2798 16.9898L12.2748 20.965L12.2798 20.9851L12.3048 20.995C12.313 20.9972 12.3216 20.9972 12.3298 20.995C12.3381 20.9902 12.3451 20.9833 12.3499 20.9751L14.2599 18.1199C14.2641 18.1143 14.2692 18.1096 14.2753 18.1061C14.2813 18.1027 14.288 18.1006 14.2948 18.0998H14.31C14.3156 18.1021 14.3208 18.1054 14.3249 18.1099ZM12.5047 10.9894C12.5199 11.0294 12.5299 11.0795 12.5299 11.1294C12.5299 11.1944 12.5098 11.2495 12.4798 11.3045C12.443 11.3587 12.3908 11.4004 12.3298 11.4245C12.2648 11.4545 12.1798 11.4695 12.0748 11.4695C11.9798 11.4695 11.8999 11.4595 11.8248 11.4444C11.756 11.4301 11.6913 11.4011 11.6347 11.3595C11.5816 11.3173 11.5403 11.2622 11.5148 11.1995C11.4897 11.1345 11.4748 11.0495 11.4748 10.9594H10.7596C10.7596 11.1394 10.7997 11.2945 10.8748 11.4295C10.9497 11.5595 11.0497 11.6645 11.1747 11.7495C11.2997 11.8345 11.4448 11.8995 11.5997 11.9395C11.9114 12.02 12.2383 12.02 12.5498 11.9395C12.6948 11.9045 12.8148 11.8445 12.9197 11.7695C13.0213 11.6971 13.1035 11.6008 13.1593 11.4893C13.2151 11.3777 13.2427 11.2542 13.2398 11.1294C13.2423 11.0116 13.2189 10.8945 13.1715 10.7865C13.1239 10.6786 13.0534 10.5823 12.9648 10.5044C12.8748 10.4195 12.7648 10.3445 12.6298 10.2795C12.4845 10.2097 12.3341 10.1511 12.1798 10.1045C12.0241 10.0557 11.8733 9.9921 11.7297 9.91439C11.6833 9.88347 11.6425 9.8445 11.6098 9.79936C11.5838 9.7591 11.5698 9.71232 11.5697 9.66438C11.5697 9.59939 11.5848 9.54438 11.6198 9.48938C11.6548 9.43937 11.7098 9.39437 11.7798 9.36437C11.8497 9.33436 11.9397 9.31436 12.0448 9.31436C12.1547 9.31436 12.2448 9.33436 12.3148 9.37437C12.3849 9.40937 12.4398 9.46437 12.4748 9.52438C12.5098 9.59438 12.5299 9.66938 12.5299 9.75443H13.2398C13.2398 9.55938 13.1899 9.38937 13.0899 9.24937C12.9898 9.09935 12.8498 8.98935 12.6748 8.90935C12.3256 8.77253 11.9418 8.7515 11.5798 8.84933C11.4298 8.88935 11.3048 8.94934 11.1997 9.02435C11.0898 9.09935 11.0047 9.18936 10.9497 9.29936C10.8897 9.40437 10.8596 9.52438 10.8596 9.65938C10.8596 9.79936 10.8847 9.91941 10.9447 10.0194C10.9997 10.1194 11.0797 10.2144 11.1797 10.2894C11.2797 10.3694 11.3948 10.4394 11.5247 10.4944C11.6548 10.5544 11.7898 10.6044 11.9348 10.6495C12.0598 10.6894 12.1598 10.7244 12.2347 10.7645C12.3148 10.7995 12.3748 10.8345 12.4148 10.8695C12.4598 10.9095 12.4898 10.9445 12.5047 10.9894Z" fill="white"/>
</svg>
