<svg width="24" height="24" viewBox="0 0 24 24" fill="none" xmlns="http://www.w3.org/2000/svg">
<path d="M12 21C16.9706 21 21 16.9706 21 12C21 7.02943 16.9706 3 12 3C7.02943 3 3 7.02943 3 12C3 16.9706 7.02943 21 12 21Z" fill="url(#paint0_linear_328_56105)"/>
<path d="M12 21C16.9706 21 21 16.9706 21 12C21 7.02943 16.9706 3 12 3C7.02943 3 3 7.02943 3 12C3 16.9706 7.02943 21 12 21Z" fill="url(#paint1_linear_328_56105)"/>
<path d="M10.4801 7.44151C10.9141 7.30916 11.3959 7.22974 11.9254 7.21916V7.11328C11.3588 7.12387 10.8506 7.21386 10.39 7.3568C9.203 7.71999 8.19822 8.52042 7.57885 9.59626C7.55183 9.59404 7.52464 9.59751 7.49901 9.60627C7.47337 9.61516 7.44987 9.62925 7.42997 9.64765C7.41005 9.66606 7.39419 9.68842 7.38337 9.71325C7.37255 9.73808 7.367 9.76501 7.36709 9.79206C7.36733 9.82554 7.37607 9.85827 7.39254 9.88731C7.40899 9.91633 7.4326 9.94067 7.46112 9.95808C7.48965 9.9755 7.52212 9.98526 7.55548 9.9865C7.58885 9.98773 7.62199 9.98045 7.65175 9.96537C7.68151 9.95018 7.70692 9.9277 7.72554 9.90002C7.74417 9.87236 7.75541 9.84036 7.75817 9.80701C7.76095 9.77378 7.75517 9.7403 7.74139 9.70992C7.72762 9.67952 7.70629 9.65309 7.67945 9.63333C8.27881 8.60195 9.24171 7.83163 10.3795 7.47327L10.6018 8.00269C10.39 8.09268 10.2313 8.19327 10.1359 8.26739L10.2047 8.3521C10.7123 8.00404 11.31 7.81091 11.9254 7.79621V7.69033C11.4436 7.70092 11.0253 7.82268 10.6971 7.95503L10.4854 7.44151H10.4801ZM7.68473 11.9044C7.63816 11.9127 7.59615 11.9376 7.56645 11.9744C7.53676 12.0112 7.52139 12.0574 7.52318 12.1048C7.52497 12.1519 7.5438 12.197 7.5762 12.2315C7.60859 12.266 7.65237 12.2875 7.69944 12.2922C7.7465 12.297 7.79368 12.2845 7.83225 12.2571C7.87083 12.2297 7.8982 12.1893 7.90933 12.1433C7.92044 12.0974 7.91454 12.049 7.89272 12.007C7.8709 11.9649 7.83463 11.9323 7.79062 11.9151C7.83297 11.4015 8.00239 10.5175 8.46297 9.85037L8.37298 9.78675C8.1665 10.0885 8.01826 10.4274 7.91239 10.7609C7.68757 10.6903 7.46165 10.6233 7.23474 10.5598H7.19239L7.18709 10.602C6.99384 11.359 6.92941 12.1427 6.9965 12.9209C6.79927 12.9788 6.60162 13.0353 6.40356 13.0903C6.38626 13.0464 6.35359 13.01 6.31163 12.9882C6.26967 12.9664 6.22122 12.9605 6.17524 12.9716C6.12926 12.9827 6.08887 13.0101 6.06151 13.0487C6.03413 13.0873 6.02166 13.1344 6.02636 13.1815C6.03107 13.2285 6.05265 13.2724 6.08711 13.3048C6.12157 13.3372 6.16659 13.356 6.21386 13.3578C6.26112 13.3596 6.30744 13.3442 6.34425 13.3145C6.38106 13.2849 6.40589 13.2427 6.41415 13.1961C6.61282 13.1453 6.81051 13.0906 7.00708 13.0321C7.08121 13.6144 7.23474 14.0485 7.37768 14.3028C7.34472 14.3367 7.32522 14.3815 7.32278 14.4289C7.32035 14.4762 7.33516 14.5229 7.36446 14.5601C7.39376 14.5973 7.43557 14.6227 7.48213 14.6314C7.52871 14.6403 7.57688 14.6318 7.61772 14.6078C7.65857 14.5837 7.68932 14.5458 7.70428 14.5008C7.71924 14.4558 7.71738 14.407 7.69907 14.3632C7.68074 14.3195 7.64721 14.284 7.60467 14.2631C7.56211 14.2422 7.51345 14.2375 7.46768 14.2498C7.37768 14.0751 7.2718 13.821 7.19769 13.4821L7.66356 13.3127C7.82461 13.8028 8.0922 14.2512 8.44709 14.6257L8.5318 14.5568C8.16976 14.1847 7.9028 13.7305 7.75356 13.2332L7.74298 13.1644L7.17121 13.3763C7.04415 12.7304 7.01239 11.825 7.27708 10.6761L7.32474 10.6921C7.51238 10.7425 7.69785 10.8008 7.88062 10.8667C7.78028 11.2051 7.71464 11.5528 7.68473 11.9044ZM6.52532 14.2975C6.56352 14.2695 6.59034 14.2289 6.60086 14.1828C6.61139 14.1367 6.6049 14.0883 6.58259 14.0466C6.56028 14.005 6.52366 13.9728 6.47947 13.956C6.4353 13.9392 6.38654 13.939 6.34218 13.9554C6.29783 13.9717 6.26089 14.0034 6.23815 14.0449C6.21543 14.0863 6.20844 14.1346 6.2185 14.1808C6.22856 14.227 6.25498 14.268 6.29288 14.2962C6.33078 14.3245 6.37761 14.338 6.42473 14.3344C6.68945 14.9962 7.37239 16.1979 8.44709 16.865L8.50003 16.7697C8.0837 16.5031 7.71505 16.1684 7.40945 15.7798L7.9018 15.3668L8.40474 15.9227L8.48416 15.8486L7.91239 15.2186L7.34062 15.6951C7.00814 15.2674 6.73398 14.7973 6.52532 14.2975ZM15.3083 7.3621C15.5941 7.55797 16.0653 7.96563 16.5153 8.5268L15.9965 8.95033C15.843 8.77563 15.5358 8.44738 15.2764 8.24092L15.213 8.32562C15.4777 8.54269 15.8165 8.90797 15.9541 9.06151L15.9859 9.09856L16.5788 8.6168C16.8965 9.02445 17.193 9.50621 17.3888 10.0462C17.3508 10.0738 17.3238 10.1142 17.313 10.1601C17.3023 10.2058 17.3084 10.2539 17.3302 10.2956C17.352 10.3374 17.388 10.3697 17.4318 10.387C17.4757 10.4042 17.5241 10.4052 17.5686 10.3897C17.6129 10.3742 17.6502 10.3431 17.6737 10.3024C17.6972 10.2616 17.705 10.2138 17.6962 10.1676C17.6871 10.1214 17.6619 10.08 17.6249 10.0509C17.5879 10.0218 17.5417 10.007 17.4948 10.0091C17.0506 8.91699 16.3142 7.96821 15.3665 7.2668L15.3083 7.3568V7.3621ZM15.1759 9.5115C15.615 9.91609 15.943 10.4264 16.1288 10.9939L16.1448 11.0467L16.7377 10.9356C16.8278 11.2427 16.8965 11.5709 16.8965 11.8621C16.8965 12.561 16.7059 13.3233 16.5948 13.6675L16.0282 13.4504C16.1236 13.1433 16.1978 12.7885 16.2294 12.4075C16.2751 12.3946 16.3143 12.3658 16.3403 12.3262C16.3662 12.2866 16.377 12.239 16.3706 12.1921C16.3641 12.1452 16.3409 12.1022 16.3052 12.0712C16.2695 12.0401 16.2238 12.0229 16.1765 12.0229C16.1292 12.0229 16.0835 12.0401 16.0477 12.0712C16.0121 12.1022 15.9889 12.1452 15.9824 12.1921C15.976 12.239 15.9867 12.2866 16.0127 12.3262C16.0386 12.3658 16.0781 12.3946 16.1236 12.4075C16.0685 13.1722 15.8109 13.9086 15.3771 14.5409L15.4617 14.6097C15.6924 14.2866 15.871 13.9293 15.9912 13.5509L16.6635 13.8104L16.6795 13.7574C16.7854 13.4398 16.9971 12.6191 16.9971 11.8621C16.9971 11.7033 16.9811 11.5285 16.9494 11.3591L17.553 11.1738C17.5786 11.2134 17.6178 11.2421 17.6631 11.2552C17.7083 11.2682 17.7568 11.2645 17.7995 11.2447C17.8422 11.2248 17.8764 11.1902 17.8958 11.1472C17.9151 11.1043 17.9182 11.0557 17.9046 11.0107C17.8912 10.9655 17.8618 10.9268 17.822 10.9015C17.7822 10.8763 17.7347 10.8663 17.6881 10.8732C17.6415 10.8802 17.5991 10.9037 17.5683 10.9394C17.5377 10.9752 17.5209 11.0208 17.5212 11.068L16.9283 11.2533C16.8394 10.8235 16.6953 10.4071 16.4994 10.0144C16.5361 9.98477 16.5608 9.94276 16.569 9.89632C16.5772 9.84988 16.5685 9.80207 16.5443 9.76155C16.5199 9.72116 16.4818 9.69076 16.437 9.67607C16.3923 9.66137 16.3437 9.66334 16.3001 9.68175C16.2566 9.70003 16.2212 9.73339 16.2005 9.77575C16.1796 9.81801 16.1747 9.86643 16.1867 9.91213C16.1988 9.95771 16.2267 9.99749 16.2658 10.0241C16.3047 10.0506 16.352 10.0622 16.3988 10.0568C16.5178 10.3076 16.6203 10.5657 16.7059 10.8298L16.2188 10.9198C16.0244 10.3483 15.6894 9.83493 15.2447 9.42679L15.1759 9.5115ZM12.0524 17.2621V18.0351H11.9411V15.8963H12.0471V16.4786C12.3436 16.4362 12.8094 16.341 13.2171 16.1928C13.4659 16.1027 13.6829 15.9915 13.8311 15.8592L13.9001 15.9438C13.7518 16.0762 13.54 16.1821 13.3124 16.2721L13.5665 16.7962C14.5459 16.4415 15.7211 15.7532 16.293 14.4457L16.3988 14.4881C15.7953 15.8592 14.5618 16.558 13.5559 16.9127C13.0681 17.0868 12.5618 17.2041 12.0471 17.2621H12.0524ZM12.0524 17.1563C12.2376 17.135 12.7935 17.0609 13.4606 16.8332L13.2064 16.3091C12.7988 16.4574 12.3383 16.5474 12.0471 16.5844V17.151L12.0524 17.1563Z" fill="white"/>
<path d="M10.5117 7.34679C10.9405 7.21444 11.4222 7.13503 11.9517 7.12445V7.01855C11.3852 7.02914 10.877 7.11915 10.4164 7.26209C9.22937 7.62528 8.22458 8.42571 7.60522 9.50149C7.55837 9.49604 7.5111 9.50766 7.47213 9.53422C7.43316 9.56078 7.40509 9.60056 7.39308 9.64626C7.38108 9.69184 7.38593 9.74026 7.40677 9.78263C7.4276 9.82488 7.46301 9.85823 7.5065 9.87664C7.54998 9.89492 7.5986 9.8969 7.64345 9.8822C7.68827 9.8675 7.72631 9.83724 7.75055 9.79672C7.77479 9.7562 7.78361 9.70839 7.77539 9.66194C7.76718 9.6155 7.74246 9.5735 7.70582 9.54386C8.30417 8.51054 9.2672 7.73822 10.4058 7.37855L10.6282 7.90797C10.4164 7.99797 10.2576 8.09856 10.1622 8.17268L10.2311 8.25738C10.7386 7.90931 11.3364 7.7162 11.9517 7.7015V7.59563C11.4699 7.60621 11.0517 7.72797 10.7234 7.86032L10.5117 7.34679ZM7.7111 11.8098C7.66452 11.818 7.62251 11.8429 7.59282 11.8797C7.56312 11.9165 7.54776 11.9628 7.54955 12.01C7.55134 12.0573 7.57017 12.1023 7.60257 12.1367C7.63496 12.1712 7.67873 12.1928 7.7258 12.1975C7.77287 12.2022 7.82003 12.1897 7.85862 12.1624C7.89719 12.135 7.92457 12.0946 7.93568 12.0486C7.94679 12.0027 7.94089 11.9543 7.91909 11.9123C7.89727 11.8702 7.861 11.8377 7.81698 11.8204C7.85934 11.3068 8.02875 10.4226 8.48933 9.75558L8.39935 9.69209C8.19286 9.99387 8.04463 10.3327 7.93875 10.6662C7.71571 10.5956 7.49156 10.5285 7.26639 10.465H7.21874L7.21346 10.5074C7.02019 11.2641 6.95576 12.048 7.02287 12.8261C6.82564 12.8841 6.62798 12.9405 6.42993 12.9956C6.41261 12.9517 6.37996 12.9153 6.338 12.8935C6.29602 12.8718 6.24758 12.8658 6.20161 12.8769C6.15563 12.8881 6.11524 12.9154 6.08788 12.954C6.0605 12.9925 6.04802 13.0397 6.05273 13.0868C6.05744 13.1338 6.07902 13.1776 6.11347 13.2101C6.14793 13.2425 6.19296 13.2612 6.24022 13.2631C6.28749 13.2648 6.33381 13.2495 6.37062 13.2198C6.40743 13.1901 6.43226 13.1481 6.44051 13.1015C6.63907 13.0501 6.83675 12.9954 7.03345 12.9373C7.10757 13.5198 7.26111 13.9538 7.40405 14.2079C7.37813 14.2363 7.36106 14.2714 7.355 14.3093C7.34894 14.3471 7.35411 14.3861 7.36989 14.421C7.38568 14.4559 7.41137 14.4856 7.44379 14.5059C7.47622 14.5264 7.51394 14.5369 7.55228 14.5361C7.5795 14.5351 7.60619 14.5281 7.63062 14.5161C7.65506 14.504 7.67668 14.487 7.69415 14.466C7.71162 14.4451 7.72453 14.4208 7.73205 14.3946C7.73958 14.3684 7.74156 14.3408 7.73786 14.3139C7.73417 14.2869 7.72487 14.2609 7.71058 14.2377C7.69628 14.2147 7.6773 14.1946 7.65486 14.1792C7.63241 14.1637 7.60698 14.1531 7.58019 14.1481C7.55343 14.1429 7.52588 14.1436 7.49933 14.1498C7.40405 13.9803 7.29816 13.7262 7.22405 13.3874L7.68992 13.218C7.85097 13.7081 8.11855 14.1564 8.47346 14.5308L8.55816 14.4621C8.19613 14.0898 7.92917 13.6359 7.77993 13.1385L7.76935 13.0751L7.19758 13.2761C7.07051 12.6408 7.03875 11.7303 7.30345 10.5868C7.38402 10.6034 7.46357 10.6246 7.54169 10.6503L7.90697 10.7721C7.80663 11.1105 7.74101 11.458 7.7111 11.8098ZM6.55169 14.2026C6.58987 14.1749 6.61671 14.1341 6.62723 14.088C6.63775 14.0419 6.63125 13.9936 6.60896 13.952C6.58665 13.9103 6.55003 13.8781 6.50584 13.8613C6.46166 13.8445 6.41289 13.8443 6.36854 13.8606C6.3242 13.8769 6.28725 13.9087 6.26452 13.9502C6.24179 13.9916 6.23481 14.04 6.24486 14.0861C6.25492 14.1322 6.28133 14.1733 6.31925 14.2015C6.35715 14.2297 6.40397 14.2433 6.4511 14.2397C6.71581 14.9014 7.39875 16.1032 8.47346 16.7703L8.52639 16.6751C8.11006 16.4084 7.74141 16.0737 7.43582 15.685L7.92816 15.2721L8.4311 15.8279L8.51051 15.7538L7.93875 15.1238L7.36698 15.6004C7.03457 15.1726 6.7604 14.7025 6.55169 14.2026ZM15.3347 7.26738C15.7875 7.59959 16.1935 7.99136 16.5417 8.43209L16.0228 8.85563C15.8693 8.68092 15.5623 8.35267 15.3029 8.1462L15.2393 8.23091C15.504 8.44797 15.8428 8.81326 15.9804 8.96679L16.0124 9.00386L16.6053 8.52209C16.9229 8.92974 17.2194 9.4115 17.4153 9.9515C17.377 9.97905 17.3503 10.0194 17.3395 10.0653C17.3286 10.1111 17.3348 10.1591 17.3566 10.2009C17.3783 10.2425 17.4145 10.275 17.4582 10.2923C17.502 10.3096 17.5506 10.3105 17.5948 10.2951C17.6392 10.2795 17.6766 10.2484 17.7 10.2077C17.7234 10.1669 17.7314 10.119 17.7225 10.0728C17.7135 10.0266 17.6883 9.98522 17.6514 9.95619C17.6143 9.92704 17.568 9.91222 17.5211 9.91444C17.0769 8.82228 16.3405 7.8735 15.3928 7.17209L15.3347 7.26209V7.26738ZM15.2075 9.42209C15.6467 9.82661 15.9747 10.337 16.1606 10.9044L16.1763 10.9574L16.7694 10.8462C16.8594 11.1533 16.9282 11.4815 16.9282 11.7727C16.9282 12.4715 16.7376 13.2338 16.6264 13.5779L16.0599 13.3609C16.1553 13.0538 16.2294 12.6991 16.2611 12.3179C16.3067 12.3052 16.3461 12.2763 16.372 12.2368C16.3978 12.1971 16.4086 12.1496 16.4022 12.1026C16.3958 12.0558 16.3725 12.0128 16.3368 11.9817C16.3012 11.9506 16.2555 11.9335 16.2081 11.9335C16.1608 11.9335 16.1151 11.9506 16.0794 11.9817C16.0437 12.0128 16.0206 12.0558 16.0141 12.1026C16.0076 12.1496 16.0184 12.1971 16.0443 12.2368C16.0702 12.2763 16.1097 12.3052 16.1553 12.3179C16.1017 13.0822 15.846 13.8186 15.414 14.4515L15.4935 14.5204C15.724 14.1971 15.9027 13.8398 16.0228 13.4614L16.6952 13.7209L16.7111 13.668C16.817 13.3503 17.0287 12.5297 17.0287 11.7727C17.0287 11.6138 17.0129 11.4391 16.981 11.2697L17.5846 11.0844C17.6103 11.1239 17.6495 11.1529 17.6946 11.1658C17.74 11.1788 17.7884 11.1751 17.8312 11.1552C17.8739 11.1354 17.9081 11.1008 17.9274 11.0578C17.9466 11.0148 17.9499 10.9663 17.9363 10.9212C17.9228 10.8761 17.8935 10.8373 17.8537 10.8121C17.8139 10.7868 17.7663 10.7768 17.7198 10.7837C17.6731 10.7908 17.6307 10.8142 17.6001 10.85C17.5693 10.8859 17.5526 10.9315 17.5529 10.9785L16.9599 11.1638C16.8712 10.7341 16.7271 10.3177 16.5311 9.92506C16.5678 9.8953 16.5924 9.85342 16.6007 9.80697C16.6089 9.76052 16.6001 9.7126 16.5759 9.6722C16.5516 9.63169 16.5136 9.60129 16.4688 9.5866C16.4239 9.57202 16.3752 9.574 16.3318 9.59228C16.2883 9.61055 16.2528 9.64403 16.2321 9.68628C16.2112 9.72865 16.2064 9.77707 16.2184 9.82266C16.2303 9.86824 16.2584 9.90801 16.2974 9.9347C16.3364 9.96126 16.3836 9.97287 16.4305 9.96743C16.5494 10.2181 16.6521 10.4762 16.7376 10.7404L16.2505 10.8303C16.056 10.2588 15.7212 9.74546 15.2763 9.33739L15.2075 9.42209ZM12.0841 17.1727V17.9456H11.9729V15.8121H12.0788V16.3945C12.3753 16.3521 12.8411 16.2568 13.2487 16.1085C13.4975 16.0185 13.7147 15.9074 13.8629 15.7751L13.9317 15.8598C13.7835 15.9921 13.5717 16.0979 13.3441 16.188L13.5982 16.7122C14.5828 16.3574 15.7529 15.6691 16.3246 14.3615L16.4305 14.4038C15.8271 15.7751 14.5935 16.4738 13.5876 16.8285C13.0998 17.0028 12.5934 17.12 12.0788 17.178L12.0841 17.1727ZM12.0841 17.0668C12.5639 17.0109 13.036 16.9026 13.4924 16.7439L13.2381 16.2198C12.8305 16.368 12.37 16.4579 12.0788 16.495V17.0614L12.0841 17.0668Z" fill="url(#paint2_linear_328_56105)"/>
<path fill-rule="evenodd" clip-rule="evenodd" d="M20.8087 12.0692C20.8087 14.4056 19.8806 16.6464 18.2286 18.2984C16.5765 19.9504 14.3358 20.8785 11.9993 20.8785C9.66294 20.8785 7.42224 19.9504 5.77016 18.2984C4.11808 16.6464 3.18994 14.4056 3.18994 12.0692C3.18994 9.73275 4.11808 7.49205 5.77016 5.83997C7.42224 4.18789 9.66294 3.25977 11.9993 3.25977C14.3358 3.25977 16.5765 4.18789 18.2286 5.83997C19.8806 7.49205 20.8087 9.73275 20.8087 12.0692ZM20.56 12.0692C20.5602 13.8893 19.9804 15.6621 18.9044 17.1303C17.8286 18.5985 16.3128 19.6855 14.5772 20.2336C12.8415 20.7817 10.9763 20.7623 9.25244 20.1782C7.52855 19.5942 6.03569 18.4759 4.99058 16.9857C3.94548 15.4955 3.40256 13.711 3.44065 11.8913C3.47872 10.0715 4.09582 8.31129 5.20234 6.8661C6.30886 5.42094 7.84721 4.36606 9.59401 3.85465C11.3408 3.34323 13.2052 3.40188 14.9164 4.02211C14.9164 4.66269 13.8363 5.11799 13.2647 5.27153C13.3706 5.27153 14.4029 5.65799 14.9058 5.85387C15.3731 5.41838 15.9009 5.05283 16.4729 4.76858C17.0023 5.09152 17.4893 5.47269 17.9341 5.89623C17.6534 6.42563 16.8434 6.7221 16.4623 6.80153L17.6163 7.93976C18.1613 7.7169 18.7493 7.61921 19.337 7.65387C19.4535 7.85506 19.5647 8.05623 19.6705 8.26799C19.5116 8.358 19.2416 8.49034 18.871 8.58563C18.3946 8.69681 18.1299 8.65975 18.0135 8.64388C17.9764 8.64388 17.9552 8.63328 17.9446 8.64388L18.347 9.44858C18.5568 9.27769 18.7881 9.13529 19.0352 9.02505C19.3053 8.90329 19.6705 8.80269 19.8929 8.76034C20.3216 9.77685 20.56 10.8939 20.56 12.0692Z" fill="url(#paint3_linear_328_56105)" fill-opacity="0.5"/>
<path fill-rule="evenodd" clip-rule="evenodd" d="M12 21C14.387 21 16.6761 20.0518 18.364 18.3639C20.0518 16.6761 21 14.387 21 12C21 9.61306 20.0518 7.32386 18.364 5.63603C16.6761 3.94821 14.387 3 12 3C9.61306 3 7.32386 3.94821 5.63603 5.63603C3.94821 7.32386 3 9.61306 3 12C3 14.387 3.94821 16.6761 5.63603 18.3639C7.32386 20.0518 9.61306 21 12 21ZM12 20.6823C14.3027 20.6823 16.5111 19.7675 18.1393 18.1394C19.7675 16.5111 20.6824 14.3027 20.6824 12C20.6824 9.69731 19.7675 7.48889 18.1393 5.86064C16.5111 4.23239 14.3027 3.31765 12 3.31765C9.6973 3.31765 7.48889 4.23239 5.86064 5.86064C4.23239 7.48889 3.31765 9.69731 3.31765 12C3.31765 14.3027 4.23239 16.5111 5.86064 18.1394C7.48889 19.7675 9.6973 20.6823 12 20.6823Z" fill="url(#paint4_linear_328_56105)"/>
<path fill-rule="evenodd" clip-rule="evenodd" d="M11.9996 18.8828C13.8248 18.8828 15.5754 18.1578 16.8662 16.8671C18.1568 15.5763 18.8819 13.8258 18.8819 12.0005C18.8819 10.1752 18.1568 8.42465 16.8662 7.13395C15.5754 5.84327 13.8248 5.11816 11.9996 5.11816C10.1742 5.11816 8.42367 5.84327 7.13299 7.13395C5.84229 8.42465 5.11719 10.1752 5.11719 12.0005C5.11719 13.8258 5.84229 15.5763 7.13299 16.8671C8.42367 18.1578 10.1742 18.8828 11.9996 18.8828ZM11.9996 18.5229C13.3906 18.5232 14.7452 18.0787 15.8658 17.2545C16.9863 16.4302 17.814 15.2692 18.228 13.9412C18.6418 12.6132 18.6203 11.1876 18.1664 9.87263C17.7127 8.55775 16.8503 7.42234 15.7054 6.63229V10.4123H12.063L15.7054 13.7741V16.0823C16.6796 15.1929 17.3361 13.9647 17.479 12.5775C17.3693 12.5248 17.2794 12.438 17.223 12.3303C17.1664 12.2224 17.1462 12.0992 17.1651 11.9789C17.184 11.8588 17.2413 11.7477 17.3282 11.6626C17.4153 11.5773 17.5272 11.5223 17.6479 11.506C17.7685 11.4894 17.8913 11.5123 17.9979 11.5709C18.1045 11.6297 18.1893 11.7212 18.24 11.8319C18.2905 11.9427 18.304 12.0668 18.2785 12.1858C18.253 12.3049 18.1899 12.4125 18.0984 12.4928C18.0298 13.3355 17.7873 14.1549 17.3863 14.8991C16.9852 15.6434 16.4343 16.2965 15.7683 16.8173C15.1023 17.3381 14.3356 17.7152 13.5165 17.925C12.6975 18.1346 11.8439 18.1724 11.0096 18.0358V18.0305H10.9407V16.2357H8.82307V17.697C9.76541 18.2264 10.8454 18.5229 11.9996 18.5229ZM8.29366 17.3687V13.5887H11.7666L8.29366 10.0576V7.92404C7.2519 8.86798 6.61151 10.1753 6.50425 11.577C6.60973 11.6388 6.69236 11.7332 6.7398 11.8459C6.78724 11.9586 6.79692 12.0836 6.76742 12.2023C6.73792 12.321 6.6708 12.4268 6.57612 12.5043C6.48143 12.5816 6.36425 12.6264 6.24207 12.6315C6.11991 12.6368 5.99931 12.6023 5.89832 12.5334C5.79733 12.4646 5.72135 12.3647 5.68174 12.2491C5.64214 12.1334 5.64104 12.008 5.67859 11.8916C5.71616 11.7752 5.79036 11.6742 5.89013 11.6034C5.94486 10.7445 6.18013 9.90685 6.5806 9.14501C6.98106 8.38318 7.5377 7.7144 8.21417 7.18232C8.89064 6.65023 9.67178 6.26681 10.5065 6.0571C11.3412 5.84736 12.2106 5.81606 13.0584 5.96523V7.76522H15.176V6.30404C13.712 5.48556 11.9892 5.26245 10.365 5.6811C8.74094 6.09972 7.34051 7.12791 6.45467 8.55208C5.56883 9.97627 5.26565 11.6869 5.60811 13.3287C5.95057 14.9707 6.91235 16.4174 8.29366 17.3687ZM12.529 7.76522V6.51581C11.8039 6.44458 11.072 6.51837 10.3758 6.73287C9.67943 6.94737 9.0329 7.29831 8.47367 7.76522H12.529ZM11.4701 16.2357V17.4852C12.9338 17.6201 14.3914 17.1711 15.5254 16.2357H11.4701ZM10.4114 13.0593H8.29366V10.9417L10.4114 13.0593ZM13.5877 10.9417H15.7054V13.0593L13.5877 10.9417Z" fill="url(#paint5_linear_328_56105)"/>
<path d="M13.0431 14.1175L8.82373 9.89802V8.29395H15.1767V9.8822H10.9943L15.1767 14.1016V15.7058H8.82373V14.1175H13.0431Z" fill="url(#paint6_linear_328_56105)"/>
<path d="M15.4415 11.3535V12.2641L14.5309 11.3535H15.4415ZM8.55908 12.6452V11.7347L9.46967 12.6452H8.55908Z" fill="#9DFFFF"/>
<defs>
<linearGradient id="paint0_linear_328_56105" x1="4.70471" y1="7.33588" x2="18.6388" y2="17.8553" gradientUnits="userSpaceOnUse">
<stop stop-color="#24348A"/>
<stop offset="0.47" stop-color="#EC4DEC"/>
<stop offset="0.61" stop-color="#CD3B62"/>
<stop offset="1" stop-color="#F6CE3A"/>
</linearGradient>
<linearGradient id="paint1_linear_328_56105" x1="12" y1="12" x2="20.4494" y2="13.9218" gradientUnits="userSpaceOnUse">
<stop offset="0.05" stop-color="#F6CE3A" stop-opacity="0"/>
<stop offset="1" stop-color="#F9E76D"/>
</linearGradient>
<linearGradient id="paint2_linear_328_56105" x1="4.65343" y1="12.2445" x2="20.4874" y2="12.517" gradientUnits="userSpaceOnUse">
<stop stop-color="#31226D"/>
<stop offset="1" stop-color="#CE3358"/>
</linearGradient>
<linearGradient id="paint3_linear_328_56105" x1="18.5277" y1="5.80202" x2="11.8316" y2="9.53943" gradientUnits="userSpaceOnUse">
<stop stop-color="white"/>
<stop offset="1" stop-color="white" stop-opacity="0"/>
</linearGradient>
<linearGradient id="paint4_linear_328_56105" x1="3.22235" y1="12" x2="21.2012" y2="10.2688" gradientUnits="userSpaceOnUse">
<stop offset="0.19" stop-color="#0E0E0D"/>
<stop offset="1" stop-color="#B9501D"/>
</linearGradient>
<linearGradient id="paint5_linear_328_56105" x1="3.69186" y1="12.6029" x2="20.8264" y2="12.6789" gradientUnits="userSpaceOnUse">
<stop offset="0.29" stop-color="#281E6C"/>
<stop offset="0.72" stop-color="#8F5099"/>
<stop offset="1" stop-color="#F5622A"/>
</linearGradient>
<linearGradient id="paint6_linear_328_56105" x1="3.63021" y1="11.9998" x2="21.7352" y2="11.9998" gradientUnits="userSpaceOnUse">
<stop stop-color="#85FBF9"/>
<stop offset="1" stop-color="#EBFFFF"/>
</linearGradient>
</defs>
</svg>
