<svg width="24" height="24" viewBox="0 0 24 24" fill="none" xmlns="http://www.w3.org/2000/svg">
<path fill-rule="evenodd" clip-rule="evenodd" d="M3.2221 17.1764C3.12857 16.99 3.12152 16.4869 3.83447 15.9647C3.93917 15.8881 4.08388 15.7882 4.25918 15.667C5.57508 14.7593 8.63041 12.6499 9.77752 10.0187C10.7434 7.80275 11.0293 4.6027 11.1222 3.55681C11.1357 3.40975 11.1451 3.30505 11.1516 3.2521C11.2075 2.82269 11.5234 2.05915 11.8946 2.00327C12.2664 1.94738 12.7122 2.61797 12.7493 3.2521C12.9593 6.84098 13.3281 8.64747 14.0728 10.0187C14.657 11.0934 18.1041 14.5164 20.1035 15.9647C20.4071 16.1264 20.9687 16.5952 20.7906 17.1764C20.6123 17.7582 19.7259 17.5429 19.3046 17.3629C17.8799 16.5634 14.4035 14.9917 11.8946 15.0964C9.38634 15.2011 6.25156 16.527 4.9986 17.1764C4.50154 17.3717 3.45093 17.6453 3.2221 17.1764ZM5.52801 10.8233C6.15206 10.8233 6.75056 10.5754 7.19182 10.1342C7.63309 9.69288 7.88099 9.09446 7.88099 8.4704C7.88099 7.84635 7.63309 7.24787 7.19182 6.80661C6.75056 6.36534 6.15206 6.11744 5.52801 6.11744C4.90398 6.11744 4.30548 6.36534 3.86421 6.80661C3.42295 7.24787 3.17505 7.84635 3.17505 8.4704C3.17505 9.09446 3.42295 9.69288 3.86421 10.1342C4.30548 10.5754 4.90398 10.8233 5.52801 10.8233ZM18.4693 10.8233C19.0934 10.8233 19.6918 10.5754 20.1331 10.1342C20.5744 9.69288 20.8223 9.09446 20.8223 8.4704C20.8223 7.84635 20.5744 7.24787 20.1331 6.80661C19.6918 6.36534 19.0934 6.11744 18.4693 6.11744C17.8453 6.11744 17.2469 6.36534 16.8056 6.80661C16.3643 7.24787 16.1164 7.84635 16.1164 8.4704C16.1164 9.09446 16.3643 9.69288 16.8056 10.1342C17.2469 10.5754 17.8453 10.8233 18.4693 10.8233ZM14.3516 19.647C14.3516 20.2711 14.1037 20.8696 13.6624 21.3108C13.2213 21.7521 12.6227 22 11.9987 22C11.3746 22 10.7762 21.7521 10.3349 21.3108C9.89364 20.8696 9.64575 20.2711 9.64575 19.647C9.64575 19.023 9.89364 18.4245 10.3349 17.9832C10.7762 17.5419 11.3746 17.294 11.9987 17.294C12.6227 17.294 13.2213 17.5419 13.6624 17.9832C14.1037 18.4245 14.3516 19.023 14.3516 19.647Z" fill="#5999E9"/>
</svg>
