<svg width="24" height="24" viewBox="0 0 24 24" fill="none" xmlns="http://www.w3.org/2000/svg">
<path d="M5.53076 6.92276V4.07178L5.27771 5.83748L4.68727 7.40075C4.47358 7.95181 4.05186 9.17207 4.04622 9.66686C4.03498 10.2855 4.47358 11.0165 4.6423 11.337C4.81099 11.6576 5.48577 12.3154 5.57574 12.8553C5.66572 13.3895 5.14838 13.6932 4.9853 13.8675C4.81661 14.0361 4.16994 14.2218 3.557 14.5535C2.93844 14.8853 2.97781 15.2957 3.15213 15.8357C3.28709 16.2687 3.97874 17.1346 4.31052 17.5169L5.32832 17.5732C5.25523 17.5676 5.03029 17.4382 4.73788 17.0446C4.36113 16.5498 4.23179 16.3473 4.31052 15.6106C4.36675 15.0202 5.28896 14.2385 5.74444 13.9236C6.0256 13.6987 6.61604 13.2321 6.75662 13.1364C6.93657 13.024 6.93657 12.7597 6.89721 12.6135C6.86346 12.5009 6.48108 12.203 6.28989 12.0679L5.38456 11.2358C5.21756 10.9952 5.06726 10.7434 4.93469 10.4823C4.83957 10.2969 4.81175 10.0842 4.85596 9.8806L5.03029 9.44197C5.09214 9.25079 5.25523 8.72782 5.37331 8.14863C5.49702 7.56381 5.53076 7.08583 5.53076 6.92276Z" fill="#83D3E3"/>
<path d="M5.54763 4.4634C5.53077 4.63773 5.54763 4.18225 5.44641 5.15507C5.30188 5.94404 5.06207 6.71256 4.73227 7.44372C4.57481 7.85983 4.42298 8.27034 4.30489 8.64709C4.19634 8.97423 4.13389 9.3149 4.11933 9.65934C4.11933 10.2215 4.36113 10.7502 4.65915 11.2339C4.80537 11.47 4.96281 11.6893 5.10902 11.8973H5.11465C5.26084 12.1053 5.39581 12.291 5.4914 12.4596C5.69383 12.8139 5.63198 13.157 5.45204 13.4381C5.2721 13.7192 4.97406 13.9442 4.70415 14.0734C4.59168 14.1298 4.46234 14.186 4.32176 14.2366L4.22055 14.2759C4.03919 14.3448 3.86261 14.4255 3.69197 14.5178C3.35458 14.7089 3.10153 14.9564 3.10715 15.3387C3.10715 15.4961 3.16337 15.6762 3.25335 15.8786C3.34333 16.0755 3.46142 16.2834 3.60199 16.4915C3.8465 16.8535 4.11913 17.1957 4.41737 17.5149L4.34989 17.5824C4.12495 17.3462 3.79881 16.9583 3.52327 16.5422C3.38815 16.3422 3.26965 16.1316 3.16901 15.9124C3.08116 15.733 3.02957 15.538 3.01717 15.3387C3.01155 14.9057 3.29834 14.6302 3.64698 14.439C3.85282 14.3269 4.06716 14.2309 4.28803 14.1522L4.66479 13.9948C4.92345 13.8655 5.20462 13.6518 5.37331 13.3875C5.54201 13.1288 5.59825 12.8251 5.41268 12.5102C5.31707 12.3415 5.18775 12.1617 5.03593 11.9479C4.88972 11.7456 4.73227 11.5205 4.58043 11.2732C4.25109 10.7944 4.06039 10.2339 4.02936 9.6537C4.02936 9.36125 4.10808 9.00698 4.22055 8.6246C4.33301 8.2366 4.49046 7.8261 4.64791 7.40998L4.71539 7.24129C5.0059 6.56991 5.2209 5.8683 5.35644 5.14944L5.54763 3.41748V4.46903V4.4634ZM5.21024 8.82141C5.35644 8.30969 5.49702 7.15694 5.54763 6.64522V7.32002C5.49702 7.8261 5.44641 8.32657 5.29459 8.84953C5.22148 9.10258 5.13151 9.29939 5.05842 9.46804L5.00218 9.61998C4.91784 9.8223 4.86721 9.98539 4.88972 10.1654C4.9122 10.351 5.00218 10.5759 5.14275 10.8009C5.2721 11.0258 5.44641 11.2506 5.62637 11.4307C5.85831 11.6503 6.10236 11.8567 6.35738 12.0492C6.51918 12.1789 6.67672 12.3139 6.82974 12.4541L6.90846 12.5552C6.97031 12.6677 6.99843 12.7971 6.94782 12.9432C6.89158 13.0894 6.76788 13.2414 6.5317 13.4043L6.49795 13.4269C6.25054 13.6011 5.72195 13.9667 5.24399 14.4223C4.99656 14.6584 4.766 14.917 4.59731 15.1869C4.42861 15.4568 4.31614 15.7267 4.32176 15.9855C4.3274 16.4071 4.51858 16.7614 4.75476 17.0313C4.99656 17.3012 5.28334 17.4868 5.46891 17.5767L5.43516 17.6555C5.23274 17.5656 4.93469 17.3744 4.68728 17.0933C4.4071 16.7912 4.2471 16.3972 4.23742 15.9855C4.2318 15.7043 4.34425 15.4118 4.51858 15.1419C4.68728 14.8607 4.92908 14.5965 5.18212 14.3547C5.6601 13.8992 6.19431 13.528 6.44735 13.3538L6.48109 13.3312C6.70601 13.1681 6.81849 13.0332 6.86347 12.9096C6.88812 12.8418 6.8922 12.7683 6.87519 12.6982C6.85818 12.6282 6.82083 12.5647 6.76788 12.5159C6.59021 12.3534 6.40639 12.1976 6.21681 12.0492C5.98063 11.8637 5.72758 11.6612 5.5645 11.4981C5.36976 11.3041 5.19978 11.087 5.05842 10.8514C4.93008 10.645 4.84228 10.4159 4.79975 10.1766C4.77163 9.97424 4.82786 9.78858 4.9122 9.58613L4.97969 9.43432C5.04717 9.26565 5.1315 9.06883 5.20462 8.82141H5.21024Z" fill="#235863"/>
<path d="M13.2231 6.74874C12.1876 7.21277 11.2284 7.83083 10.3777 8.58193L12.4359 8.70001C13.0319 8.58755 14.3028 8.36262 14.6401 8.36262C15.0562 8.36262 15.8884 8.44698 16.2147 8.91369C16.4732 9.27921 16.4958 10.2858 16.4678 10.7412L20.9944 8.06459V3.16113C18.9869 4.09458 14.6289 6.11895 13.2344 6.74874H13.2231Z" fill="url(#paint0_linear_328_37799)"/>
<path d="M11.3055 8.63804C10.5014 8.49184 9.57919 8.41312 9.22492 8.39625C8.80318 8.36251 8.10591 8.67179 7.8135 8.82925L7.04873 9.4928L6.93628 10.3475L7.12746 11.967L8.224 13.3335L8.79756 14.1207C9.12934 14.3906 9.92221 14.981 10.4621 15.1329C11.1369 15.3242 11.6149 15.1047 12.9081 14.6999C13.3557 14.5431 13.7666 14.2967 14.1156 13.9757C14.4647 13.6548 14.7446 13.2659 14.9381 12.833C15.0507 12.5744 15.8604 11.8208 16.2484 11.4833C16.3327 11.2134 16.4732 10.4712 16.3665 9.62768C16.2653 8.7955 15.5341 8.45811 15.1856 8.39062L13.8529 8.55932C13.3411 8.64368 12.1096 8.78426 11.3055 8.63804Z" fill="url(#paint1_linear_328_37799)"/>
<path fill-rule="evenodd" clip-rule="evenodd" d="M10.8273 8.513L10.3886 8.19811L10.445 8.125L10.9173 8.47365V8.61423L11.4402 8.81104L11.682 8.66483L11.7326 8.73794L11.4738 8.89537V9.00785L12.0082 9.24966L12.6211 8.87288L12.1262 8.68732L12.1543 8.60298L12.7166 8.81665L13.1103 8.57486L13.1665 8.65358L12.7391 8.90663V9.00785L13.279 9.24966V9.289L13.8469 8.946L13.3352 8.71544V8.50176H13.4252V8.65358L13.9426 8.88976L14.6004 8.49613V8.46239H14.6511L14.7917 8.37804L14.8367 8.45677L14.6905 8.54113V8.61423L15.1346 8.81665L15.6801 8.47926L15.7307 8.55237L15.2246 8.86164V9.03034L15.7307 9.25527L16.0681 9.05845L16.1131 9.13719L15.7982 9.32837V9.42954L16.4055 9.68264V9.85137H16.3154V9.77829L15.652 10.1831V10.2844L16.0625 10.5093L16.2649 10.3855L16.3099 10.4643L16.1525 10.5655L16.2087 10.5993V10.723H16.1187V10.6554L16.0625 10.6217L15.5282 10.9592V11.0491L16.1187 11.3472V11.5271H16.0288V11.4821C15.8809 11.5793 15.731 11.673 15.5789 11.7632C15.5675 11.7632 15.5676 11.7689 15.5621 11.7745L15.6182 11.8306C15.6632 11.887 15.7139 11.9432 15.742 11.9881L15.7644 12.022L15.0615 12.618L14.6679 12.23L14.2293 12.753L14.6905 13.0903L13.8132 13.6076H14.398L14.0043 14.1869L13.3128 14.0688L13.0315 14.6873L12.4861 14.3331L11.9688 15.019L11.1141 14.5861L10.6417 15.0247L9.96694 14.5073L9.71385 14.7661L9.65199 14.7041L10.1018 14.2374L10.428 14.0295L10.445 13.8775L10.0344 13.6133L9.60139 13.8775L9.07842 14.305L9.0222 14.2374L9.54516 13.7988L9.95001 13.5571L9.88254 13.5121L9.88817 13.4109L9.55077 13.169L9.19089 13.3828L9.1459 13.304L9.46642 13.1072L9.35959 13.0341L9.37083 12.916L9.06155 12.6799C8.78643 12.8493 8.5109 13.018 8.23494 13.1859L8.2237 13.1915L8.19558 13.1072L8.20682 13.0959C8.27917 13.0547 8.35043 13.0115 8.42051 12.9667C8.56109 12.888 8.75227 12.7699 8.98283 12.6235L8.88723 12.5505L8.90411 12.4156L8.5892 12.2469C8.3425 12.4006 8.09695 12.5561 7.85256 12.7135V12.708L7.86381 12.6855H7.77384V12.663L7.80195 12.6349L7.84693 12.6068L8.49924 12.1962L8.31928 12.1007L8.33053 11.9487L8.03813 11.7802L7.34646 12.2019L7.30148 12.1231L7.94815 11.7295L7.79071 11.6395L7.80757 11.4596L7.5489 11.3078L7.15528 11.5496L7.09904 11.4709L7.45894 11.2515L7.29023 11.156L7.31272 10.9703L7.0147 10.8242L6.95284 10.8578L6.90785 10.7792H6.9191L6.80664 10.723L6.84601 10.6386L7.0147 10.7174L7.40832 10.4924V10.4812L6.96971 10.1606L7.02594 10.0876L7.49829 10.4362L8.13372 10.0706L7.6445 9.8851V9.72201L7.61076 9.69957L6.95284 10.065L6.90785 9.98062L7.52641 9.64328L7.20589 9.40146L7.26212 9.32837L7.61638 9.59264L8.2012 9.26651L7.77384 8.95162L7.83007 8.87852L8.29117 9.21591L8.92097 8.86727L8.51048 8.56362L8.5667 8.4905L9.01095 8.82228L9.86567 8.3443L9.91066 8.42302L9.78695 8.49613L10.1918 8.78855V8.87288L10.7542 8.54113L10.7992 8.61984L10.2368 8.95162L10.7429 9.13719V9.2384L11.3446 8.87288L10.8273 8.67607V8.513ZM10.0962 8.92349V8.83353L9.70261 8.54113L9.03905 8.90663V8.98536L9.59576 9.19342V9.22153L10.1018 8.92349H10.0962ZM9.59013 9.32275L10.1355 9.00785L10.6529 9.20466V9.29463L10.1244 9.62084L9.59576 9.37902V9.32275H9.59013ZM9.50016 9.27215V9.25527L8.94908 9.04721V8.95724L8.30242 9.31712V9.37336L8.85912 9.57584V9.64892L9.50016 9.27215ZM8.85912 9.75009L9.50016 9.37902V9.43518L10.0287 9.677L9.39332 10.0706V10.0032L8.85912 9.76137V9.75009ZM8.76351 9.69957V9.64328L8.21244 9.42954V9.36773L7.69511 9.64892L7.73447 9.677V9.82317L8.23494 10.0088L8.76351 9.69957ZM8.29117 10.0819L8.76351 9.80073V9.81766L9.30334 10.065V10.1213L8.78602 10.4418L8.29117 10.2168V10.0819ZM8.2012 10.1381L7.49829 10.5374V10.571L8.05498 10.7792V10.8804L8.69042 10.4868L8.2012 10.2674V10.1326V10.1381ZM7.40832 10.5936L7.11029 10.7678L7.40832 10.9199L7.39146 11.1053L7.5489 11.2008L7.9594 10.9423V10.8466L7.40832 10.6443V10.5936ZM10.7654 9.334L11.384 8.95162V9.06409L11.9125 9.30588L11.2827 9.69393V9.5702L10.7654 9.334ZM11.3333 9.76701L11.9182 9.41275V9.48583L12.4805 9.73893V9.76701L11.862 10.1437H11.8507V9.9919L11.3333 9.76701ZM11.9688 10.1887L12.4861 9.87381V9.8851L13.0429 10.11L12.458 10.4699V10.3912L11.9688 10.1887ZM12.5761 9.82317L13.1384 10.0482L13.6894 9.71072L13.1834 9.48583V9.45211L12.5761 9.82317ZM12.4973 10.5543L13.0934 10.1887V10.2674L13.5994 10.571L12.9753 10.9535V10.8411L12.4973 10.5599V10.5543ZM13.189 10.2168L13.6894 10.5149L14.3306 10.1213L13.7514 9.8851V9.77265C13.5657 9.89638 13.3802 10.0088 13.189 10.1269V10.2168ZM13.0653 11.004L13.6051 10.6724V10.6892L14.145 10.9929L13.532 11.3639V11.2684L13.0653 11.004ZM13.7008 10.6386L14.2349 10.9366L14.8536 10.5599L14.3643 10.2674V10.2113L13.7008 10.6161V10.6386ZM13.6277 11.4146L14.1674 11.0884V11.1053L14.6905 11.3696L14.1281 11.7238V11.6677L13.6277 11.4146ZM14.2574 11.0491L14.7803 11.3134L15.3483 10.9592L14.876 10.6892V10.6554L14.2574 11.0323V11.0491ZM14.7636 11.5552V11.4371L14.1393 11.8306L14.4206 11.9432L14.3812 12.0331L14.0438 11.887L13.5827 12.1738V12.3086L14.1393 12.5842V12.7305L14.6398 12.1344L14.6454 12.1288C14.9046 11.991 15.167 11.8598 15.4327 11.7352C15.4399 11.7325 15.4476 11.7306 15.4551 11.7295L15.4721 11.7182C15.6551 11.6243 15.8302 11.5152 15.995 11.3922L15.4327 11.111V11.0153L14.8536 11.3809V11.5046L15.1402 11.6283L15.1065 11.7126L14.7579 11.5664L14.7636 11.5552ZM14.0324 11.7802L13.4926 12.1175L12.9696 11.8701V11.8139L13.5377 11.4709L14.0324 11.7182V11.7802ZM12.8798 11.9263L13.3971 12.1738L12.8235 12.5337L12.25 12.2581L12.8798 11.8701V11.9263ZM12.1543 12.32L12.7335 12.5899L12.1712 12.9441L11.6652 12.708V12.6124L12.1543 12.3143V12.32ZM12.7561 12.6855L12.2612 12.9948H12.2781V13.1409L12.8348 13.4109L13.3071 13.1129V13.0172L12.7561 12.7416V12.6855ZM11.5752 12.7642L12.0756 13.0004L11.4345 13.4052V13.3097L10.9341 13.0622L11.5752 12.6685V12.7642ZM12.1712 13.0454L11.4738 13.4839L12.0419 13.7539V13.8944L12.0532 13.9001C12.2821 13.7582 12.5108 13.6158 12.7391 13.4728L12.1881 13.1915V13.0565L12.1712 13.0509V13.0454ZM11.339 13.3659V13.4614L10.5236 13.9675L10.5405 13.827L10.1187 13.5571L10.844 13.1184L11.339 13.3659ZM11.384 13.5402L10.5967 14.0295L11.0803 14.3274L11.0297 14.4062L10.5124 14.0856L10.1581 14.3105L10.0287 14.4399L10.6361 14.901L11.0859 14.4849H11.0972L11.1141 14.4736L11.1872 14.4342C11.4512 14.2838 11.7099 14.1244 11.9632 13.9562H11.9518V13.8101L11.3896 13.5402H11.384ZM11.4795 14.3668L12.0588 14.0069L12.5311 14.2374L12.5705 14.1587L12.1487 13.9508L12.2667 13.8775L12.7447 13.5795V13.6189L13.071 13.8494L13.1271 13.7763L12.8348 13.5683V13.5233L13.3521 13.1915L13.6389 13.3997L13.6951 13.3209L13.4365 13.1409L14.0438 12.7473V12.7585H14.1112L14.1 12.7699L14.5273 13.0848L13.4702 13.6977H14.2238L13.965 14.0856L13.2565 13.9675L12.9922 14.5523L12.4636 14.215L11.9408 14.9065L11.2096 14.5299L11.2322 14.513L11.4795 14.3668ZM13.4026 12.961V13.0509L14.0438 12.6461V12.6518V12.6349L13.4926 12.3536V12.2243L12.8461 12.6292V12.6855L13.4026 12.961ZM10.7485 13.0679L10.0344 13.5064L9.97809 13.4671L9.98373 13.3659L9.62949 13.1129L10.2875 12.7135L10.7485 12.9722V13.0679ZM10.1975 12.6573L9.55077 13.0565L9.45518 12.9891L9.46642 12.871L9.1459 12.6292L9.73634 12.2693L10.1862 12.5392V12.6518L10.1975 12.6573ZM9.67448 12.1962L9.06717 12.573L8.98283 12.5111L8.9997 12.3593L8.67917 12.1906L9.17402 11.8926L9.68012 12.0951V12.1962H9.67448ZM9.06717 11.8476L8.5892 12.1401L8.41488 12.0501L8.42612 11.8982L8.1281 11.7295L8.54421 11.4709L9.06717 11.6957V11.8476ZM8.49924 11.3922L8.03813 11.6732L7.88629 11.589L7.90316 11.409L7.63887 11.2515L7.9819 11.0379L8.49924 11.2741V11.3922ZM8.5892 11.2122L8.07749 10.9816L8.73541 10.5767V10.6892L9.26399 10.9253L8.5892 11.3359V11.2122ZM8.82538 10.633V10.5205L9.30334 10.2281V10.2394L9.86567 10.4924V10.5543L9.35959 10.8692L8.82538 10.633ZM9.39332 10.1831V10.1719L10.04 9.77829V9.85702L10.6024 10.1043L9.96129 10.4979V10.4305L9.39895 10.1831H9.39332ZM10.13 9.79509V9.72201L10.6698 9.38466L11.1929 9.62636V9.74445L10.6979 10.0482L10.1355 9.79509H10.13ZM10.6923 10.155L11.2377 9.82317L11.7607 10.0482V10.2H11.7663L11.3053 10.4812V10.4418L10.6979 10.1944V10.155H10.6923ZM11.3109 10.588L11.8732 10.2506L12.3681 10.4474V10.5317L11.8057 10.8804L11.3109 10.588ZM11.817 10.9816L12.4131 10.6104L12.8798 10.8916V11.004H12.8854L12.3792 11.3189L11.817 11.004V10.976V10.9816ZM12.3848 11.4202L12.9753 11.0603L13.442 11.3246V11.4202L12.9641 11.7126L12.3848 11.4202ZM12.295 11.4764L12.8741 11.7689L12.2387 12.1625V12.1062L11.7101 11.8363L12.295 11.4764ZM12.1431 12.1569V12.2131L11.6258 12.5337L11.0747 12.2525V12.23L11.6202 11.8926L12.1431 12.1569ZM10.9847 12.3143L11.5358 12.5899L10.8385 13.0115V12.916L10.3774 12.6573L10.9847 12.2862V12.3143ZM10.9566 12.1962L10.2875 12.6068L10.2818 12.6011V12.4887L9.8207 12.2131L10.4224 11.842V11.8982L10.9566 12.1962ZM10.383 11.7576L9.76446 12.1401V12.0331L9.26961 11.8306L9.91066 11.4371V11.4764L10.383 11.7576ZM9.90504 11.3359L9.16278 11.7858H9.15714V11.6395L8.63981 11.4146L9.30334 11.0097V11.0884L9.90504 11.3359ZM9.39895 11.0323V10.9535L9.89378 10.6443L10.4786 10.8859V10.9873L10.4224 11.0266L10.0007 11.2796L9.39332 11.0323H9.39895ZM10.5685 10.8242L9.98937 10.588L10.6079 10.2113V10.2506L11.2153 10.5036V10.5374L10.5685 10.9309V10.8242ZM10.6248 11.004L11.2209 10.6443L11.7157 10.9366C11.5021 11.066 11.2884 11.1953 11.0859 11.3303V11.2741L10.6248 11.004ZM11.1196 11.409L11.727 11.0323V11.0603L12.2893 11.3753L11.6426 11.7689V11.7071L11.1196 11.409ZM11.5526 11.7576V11.8306L11.0465 12.1401L10.518 11.842V11.7858L11.0297 11.4652L11.5526 11.7576ZM10.9904 11.3809L10.473 11.7014L10.0063 11.4202V11.3809L10.4674 11.0997L10.5405 11.0547L10.9904 11.3246V11.3809ZM15.9725 10.571L15.4383 10.9028L14.966 10.6386V10.5993L15.5565 10.2394V10.3349L15.9725 10.571ZM15.4834 10.1774L14.9434 10.5093L14.4543 10.2168V10.155L15.0447 9.78945V9.91318L15.4834 10.1774ZM14.9491 9.73893L14.4318 10.0593L13.8469 9.82317V9.72201L14.4093 9.37336L14.4373 9.38466V9.53083L14.9491 9.73893ZM14.308 9.32837L13.7851 9.64892L13.279 9.42403V9.39582L13.8695 9.04158V9.13155L14.308 9.32837ZM13.9593 9.07533V8.98536L14.6004 8.59735V8.67607L15.0391 8.87288L14.4037 9.26651L13.9593 9.07533ZM14.5048 9.31151L15.1346 8.91788V9.09219L15.6408 9.31712L15.0504 9.68264L14.5273 9.4689V9.32275L14.5048 9.31151ZM15.1402 9.73329L15.7026 9.38466V9.49711L16.2424 9.71072L15.5676 10.1213L15.1402 9.86253V9.73329ZM12.5761 9.71637L13.189 9.34524V9.31151L12.6492 9.06409V8.96286L12.0082 9.35649V9.42954L12.5761 9.677V9.71637ZM15.4551 11.8139L15.4327 11.8195L15.3596 11.8532L15.1459 11.9544L14.741 12.1738L15.0671 12.4943L15.6408 12.0051C15.595 11.9429 15.5442 11.8846 15.4889 11.8306C15.4785 11.8235 15.4672 11.8178 15.4551 11.8139Z" fill="#150E73"/>
<path d="M4.38359 17.6341C5.13148 17.5947 5.48574 17.814 5.56447 17.9266C5.81189 18.039 5.78378 18.3033 5.73316 18.427C5.70519 18.6304 5.68456 18.8349 5.67131 19.0398C5.67694 19.0905 5.75567 19.1298 5.99746 19.1748C6.19427 19.2086 6.49231 18.9611 6.61602 18.8374C7.06588 18.8768 7.37515 19.4898 7.47638 19.7934L7.33017 20.187C6.92021 20.5058 6.44948 20.7371 5.94685 20.8675C5.38453 20.9405 4.79409 20.9629 4.32736 20.6594C3.97128 20.3694 3.68331 20.0046 3.48387 19.5909C3.43459 19.4333 3.37447 19.2792 3.30394 19.1298C3.21396 18.9444 3.16335 18.6799 3.1521 18.5788C3.25331 18.2808 3.6357 17.6791 4.38922 17.6341H4.38359Z" fill="#0032A7"/>
<path d="M5.36173 20.5188C4.79842 20.5268 4.23889 20.4256 3.71411 20.2207C5.23239 21.6434 7.58289 20.4175 7.59415 19.9227C7.61101 19.5235 7.22301 19.1412 7.03182 19.0005C7.07118 19.3716 6.75627 19.6585 6.63819 19.782C6.50886 19.9058 6.37391 20.5188 5.36173 20.5188Z" fill="#002786"/>
<path d="M9.32078 11.4373C9.06773 11.6904 8.4042 11.5837 7.95996 11.1393C7.51572 10.6951 7.45386 10.0822 7.71254 9.82911C7.96558 9.57614 8.62912 9.64358 9.07336 10.0879C9.51759 10.532 9.57944 11.1843 9.32078 11.4373Z" fill="black"/>
<path d="M9.16313 10.9302L7.93726 10.143C7.98225 10.0305 8.16219 9.83935 8.53895 10.0305C8.91571 10.2273 9.11252 10.7053 9.1575 10.9302H9.16313Z" fill="#2F028A"/>
<path d="M9.16887 11.2127L8.06672 10.6055C8.05546 10.6729 8.10045 10.8697 8.39847 11.1284C8.69651 11.3814 9.03953 11.2914 9.16887 11.2127Z" fill="#AB0D00"/>
<path d="M8.54977 11.1846C8.63052 11.1846 8.69596 11.1191 8.69596 11.0384C8.69596 10.9576 8.63052 10.8921 8.54977 10.8921C8.46902 10.8921 8.40356 10.9576 8.40356 11.0384C8.40356 11.1191 8.46902 11.1846 8.54977 11.1846Z" fill="#D39338"/>
<path d="M13.8192 11.1554C14.0721 11.414 14.7357 11.3072 15.1799 10.8629C15.6299 10.413 15.686 9.80576 15.4331 9.55266C15.1799 9.29965 14.5164 9.3615 14.0721 9.80576C13.6224 10.2556 13.566 10.9079 13.8192 11.1554Z" fill="black"/>
<path d="M13.9824 10.6505L15.2083 9.86322C15.1633 9.75078 14.9833 9.56524 14.6009 9.75642C14.2242 9.94759 14.0329 10.4312 13.9824 10.6505Z" fill="#2F028A"/>
<path d="M13.9707 10.9312L15.0729 10.3296C15.0898 10.3971 15.0448 10.5939 14.7467 10.8468C14.4488 11.1056 14.1058 11.0156 13.9707 10.9312Z" fill="#AB0D00"/>
<path d="M14.595 10.9082C14.5143 10.9082 14.4487 10.8427 14.4487 10.7621C14.4487 10.6812 14.5143 10.6157 14.595 10.6157C14.6758 10.6157 14.7411 10.6812 14.7411 10.7621C14.7411 10.8427 14.6758 10.9082 14.595 10.9082Z" fill="#D39338"/>
<path d="M9.3036 13.6252L9.12928 13.1978C8.75815 13.5407 7.92029 14.2943 7.52667 14.5361C7.04306 14.8454 6.81814 15.7508 6.9081 16.8696C6.96984 17.529 6.87545 18.1937 6.63257 18.8097L7.6335 19.7938L7.74033 19.7038L7.96527 18.2137C7.8528 17.82 7.61663 16.9316 7.62788 16.5717C7.65037 16.1217 7.7797 15.5033 7.96527 15.0309C8.11147 14.6542 8.92121 13.9401 9.3036 13.6252Z" fill="#1C1C1C"/>
<path fill-rule="evenodd" clip-rule="evenodd" d="M20.9945 3.61495H20.9831L20.3364 3.55871L20.359 3.52498L20.2914 3.46875L20.224 3.54747L19.9091 3.51936L19.8978 3.61495L20.1566 3.63744L19.791 4.10418C19.5885 4.09293 19.3974 4.08167 19.2175 4.08167L19.3637 3.89612L19.2962 3.83989L19.0994 4.07606H18.762V4.16603H19.0263L18.5764 4.72835L17.9185 4.72274L18.284 4.256L18.2109 4.19977L17.8061 4.72274H17.3955V4.81832H17.7328L17.3899 5.26256C17.1576 5.25546 16.9252 5.25171 16.6926 5.25131L16.9008 4.9814L16.8332 4.92516L16.5745 5.25131C16.344 5.25131 16.1529 5.26819 16.0235 5.29068L16.0403 5.38065C16.1529 5.36378 16.3046 5.35254 16.5015 5.34691L16.0628 5.89799L15.4331 5.8755L15.6748 5.55497L15.6017 5.49873L15.3206 5.86987L15.0057 5.85863V5.9486L15.253 5.95984L14.8819 6.44907L14.2689 6.42657L14.4039 6.24662L14.3309 6.1904L14.1621 6.42657H13.8248V6.52216L14.089 6.51655L13.656 7.10135L12.9476 7.09011L13.1163 6.86518L13.0487 6.80895L12.8351 7.09011H12.4415V7.18008H12.7677L12.4582 7.58495H11.6936V7.68055H12.3908L11.9972 8.18664L11.3393 8.16414L11.6655 7.65806L11.5868 7.61307L11.2325 8.16414L10.8276 8.1529V8.24288L11.1762 8.25412L10.985 8.54092L11.0638 8.59714L11.283 8.25975L11.9354 8.27099L11.6542 8.6365L11.7329 8.69274L12.0478 8.27662L12.762 8.29348L12.4582 8.69835L12.5315 8.75459L12.8688 8.29911L13.4817 8.31598C13.4256 8.39094 13.3692 8.46591 13.3131 8.54092L13.3861 8.59714L13.5943 8.31598L14.134 8.33285L14.2015 8.38908L14.2465 8.33285L14.4546 8.33847V8.2485H14.3196L14.6908 7.77615L15.3937 7.83239L15.0562 8.26538L15.1294 8.3216L15.5005 7.83801L16.0066 7.883L15.6017 8.38908L15.6692 8.44532L16.119 7.89424L16.777 7.95046L16.3271 8.52966C16.196 8.52509 16.0647 8.52321 15.9335 8.52404V8.61401H16.254L16.1416 8.76022L16.2146 8.81645L16.3665 8.62526L17.0694 8.67586C16.9203 8.86399 16.7703 9.05144 16.6195 9.23819L16.3834 9.21008L16.3665 9.30005L16.5519 9.32254C16.5117 9.37017 16.4705 9.417 16.4284 9.46318L16.4845 9.53626C16.5441 9.47184 16.6023 9.40624 16.659 9.33941C16.8725 9.37315 17.12 9.40689 17.3674 9.4519L16.5071 10.6215L16.5802 10.6778L17.4686 9.46318L18.2728 9.59807C18.2581 9.61526 18.2431 9.63218 18.2278 9.64871L18.2728 9.73308C18.3077 9.69661 18.3414 9.65908 18.374 9.62063L18.6101 9.65999L18.6271 9.56999L18.4359 9.53626C18.5839 9.34029 18.7282 9.14156 18.8689 8.94015C19.1105 8.99076 19.3186 9.03013 19.4704 9.06949L19.493 8.97952L18.9307 8.86143L19.3637 8.24288L20.0328 8.33285L19.9991 8.38345C19.9509 8.46335 19.9041 8.54394 19.8584 8.62526L19.9484 8.64775L19.9541 8.6365L19.9822 8.59152C20.0315 8.50822 20.082 8.42573 20.134 8.3441L20.5896 8.41157L20.6063 8.3216L20.1847 8.26538C20.3019 8.08305 20.42 7.90122 20.5389 7.71992L20.9945 7.79302V7.70304L20.5896 7.63556L20.9551 7.07324L20.9945 7.07887V6.85394L20.9101 6.98326L20.2914 6.91579L20.7189 6.29725C20.813 6.31399 20.9066 6.33273 21 6.35347V6.25225C20.9253 6.2389 20.8504 6.22764 20.7751 6.21851L21 5.89799V5.74054C20.8931 5.88112 20.7863 6.03856 20.6739 6.20165C20.4272 6.1688 20.1796 6.14255 19.9317 6.12292L20.3758 5.52124L20.9945 5.57184V5.47625L20.4378 5.43688L20.8088 4.9308L20.9945 4.9589V4.86331C20.9533 4.85701 20.912 4.85137 20.8707 4.84644L20.9945 4.67775V4.54842L20.9831 4.54278L20.7694 4.8352C20.5809 4.80991 20.3914 4.79116 20.2016 4.77896L20.5952 4.26724C20.7413 4.28412 20.8764 4.30661 20.9945 4.33472V4.24476C20.8828 4.21986 20.7702 4.19923 20.657 4.1829L20.9945 3.74428V3.61495ZM17.1369 8.59152C16.9063 8.56341 16.6701 8.54653 16.4339 8.53528L16.8838 7.96733L17.5699 8.03482L17.1369 8.59152ZM17.6373 7.95046L16.9513 7.883L17.3505 7.36565L18.0477 7.42189L17.6373 7.95046ZM18.1153 7.33753C17.8829 7.31726 17.6506 7.29852 17.418 7.28131L17.8229 6.76396L18.509 6.82582L18.2109 7.21944L18.1153 7.33753ZM17.3112 7.27005L17.7161 6.75272L17.1537 6.70773L17.0863 6.70212L16.659 7.23069L17.3112 7.27005ZM18.5764 6.74147L17.8903 6.67962L18.3402 6.10043C18.5727 6.11432 18.8051 6.12932 19.0375 6.14541L18.5764 6.74147ZM17.7835 6.66837L18.2334 6.0948L17.6093 6.06107L17.1594 6.61214L17.7778 6.66837H17.7835ZM18.5708 6.0217L18.4133 6.01608L18.8744 5.42001L19.5604 5.465L19.105 6.05544L18.5764 6.0217H18.5708ZM18.3009 6.00483L18.7675 5.41439C18.5652 5.40218 18.3628 5.39094 18.1603 5.38065L17.6823 5.97109L18.3009 6.00483ZM19.6279 5.37503L18.9476 5.33003L19.3356 4.8352C19.5643 4.84191 19.793 4.85129 20.0215 4.86331L19.6279 5.37503ZM18.835 5.32442L19.2231 4.82957L18.6158 4.81832L18.2334 5.29068L18.3065 5.2963L18.835 5.32442ZM19.4649 4.74523H19.4087L19.836 4.19977C20.0538 4.21396 20.2713 4.23271 20.4882 4.256L20.0946 4.77334L19.4649 4.74523ZM19.2962 4.74523L19.7236 4.18852L19.1444 4.17164L18.6945 4.72835L19.2905 4.73959L19.2962 4.74523ZM19.9822 4.11542L19.9034 4.1098L20.269 3.64307L20.9157 3.69929L20.5558 4.17164C20.3652 4.1477 20.1739 4.12895 19.9822 4.11542ZM17.8454 4.81271H18.4976L18.1153 5.29068C17.9092 5.27979 17.7029 5.27042 17.4967 5.26256L17.851 4.81271H17.8454ZM17.4293 5.35254L18.0477 5.37503L17.5643 5.96547L16.9794 5.93735L17.4293 5.35254ZM16.9119 6.02732L17.4967 6.05544L17.0469 6.60652L16.4958 6.56152L16.9119 6.02732ZM16.4284 6.64588L16.9794 6.69086L16.5465 7.21944L16.0066 7.19132L16.4284 6.64588ZM15.9391 7.27568L16.4789 7.30941L16.0853 7.79864L15.5679 7.75366L15.9391 7.27568ZM16.8388 7.87175L16.1922 7.80988L16.5859 7.31505L17.2437 7.36004L16.8444 7.86612L16.8388 7.87175ZM15.8266 7.27005L15.4612 7.74241L14.7583 7.68618L15.1182 7.23632L15.8266 7.27005ZM15.0057 7.23632L14.6514 7.68618L14.1004 7.64682L14.4264 7.21383L15.0057 7.23632ZM14.3139 7.2082L13.9879 7.64119L13.3861 7.61307L13.701 7.19132L14.3139 7.2082ZM13.9204 7.73116L13.3187 7.69743L12.9362 8.20914L13.5493 8.22601L13.9204 7.73116ZM13.583 7.19132L13.2737 7.60745L12.5708 7.58495L12.8801 7.18008L13.5886 7.19132H13.583ZM13.2061 7.69743L12.5032 7.67493L12.1097 8.18664L12.8295 8.20351L13.2061 7.69743ZM14.0328 7.73679L13.6617 8.22601L14.2071 8.24288L14.5784 7.77052L14.0328 7.73679ZM14.3815 7.11823C14.1678 7.11823 13.9597 7.10699 13.7629 7.10135L14.2071 6.51655C14.3815 6.51655 14.5895 6.52779 14.82 6.53904L14.3815 7.11823ZM14.4939 7.12386L14.9269 6.54466L15.5231 6.57839L15.0732 7.14072C14.8763 7.14072 14.6795 7.12948 14.4939 7.12386ZM15.1856 7.15196L15.6355 6.58964L16.3215 6.63463L15.8941 7.18571L15.1856 7.15196ZM15.7029 6.49967L16.389 6.55591L16.7994 6.0217L16.1078 5.98795L15.7029 6.49967ZM17.3168 5.34691L16.8669 5.93172L16.1753 5.90362L16.6195 5.34128C16.8519 5.3375 17.0845 5.33937 17.3168 5.34691ZM15.5905 6.49405L15.9954 5.98795L15.3656 5.95984L14.9944 6.45468L15.5905 6.49405ZM19.7404 5.38065L20.134 4.87456C20.3255 4.88564 20.5167 4.90065 20.7077 4.91955L20.3308 5.42564L19.7404 5.38065ZM19.6729 5.47061L20.269 5.50998L19.8248 6.11168L19.2119 6.06669L19.6729 5.47061ZM19.1444 6.15103L19.7629 6.20165L19.313 6.81457L18.6832 6.75834L19.1444 6.15103ZM18.6158 6.83706L19.2455 6.89893L18.8689 7.41064L18.2222 7.34878L18.2784 7.27005L18.6158 6.83706ZM19.3467 6.91018L18.9757 7.42189C19.24 7.45 19.5042 7.47812 19.7629 7.51748L20.1285 6.9889L19.3524 6.91018H19.3467ZM18.1547 7.43313L18.807 7.49498L18.4133 8.04045L17.7385 7.96172L18.1547 7.43313ZM18.9137 7.50623L18.5147 8.05169L19.3186 8.14728L19.3356 8.12479L19.701 7.60183L18.9137 7.50623ZM17.6767 8.04607L18.3459 8.12479L17.9297 8.6871L17.2437 8.60276L17.6767 8.04607ZM18.4526 8.13603L18.031 8.70398L18.8295 8.83894L19.2569 8.23163L18.4526 8.13603ZM17.1763 8.6871C17.4124 8.70961 17.643 8.74334 17.8679 8.77146L17.4293 9.36751L16.7207 9.25506L17.0582 8.83332L17.1763 8.6871ZM17.9691 8.78833L17.5305 9.38445L18.3346 9.51933C18.4832 9.32378 18.6276 9.12506 18.7675 8.92329C18.5314 8.87831 18.2615 8.8277 17.9691 8.78833ZM20.0891 8.2485L19.42 8.16414L19.8023 7.61307L20.4378 7.70304C20.3208 7.88443 20.2046 8.06625 20.0891 8.2485ZM20.4939 7.6187L19.8641 7.52873L20.2297 7.00014L20.8482 7.06762L20.4939 7.6187ZM19.4143 6.82582L20.1903 6.90454L20.6177 6.28599C20.3691 6.25322 20.1197 6.22697 19.8698 6.20726L19.42 6.82582H19.4143Z" fill="url(#paint2_linear_328_37799)"/>
<path fill-rule="evenodd" clip-rule="evenodd" d="M15.4892 5.42091C17.3031 4.56752 19.1388 3.76125 20.9944 3.00293V3.39656C19.6561 3.94763 17.626 4.81923 15.6523 5.75832C13.9428 6.52852 12.2894 7.41728 10.7038 8.4181L10.805 8.44623L10.85 8.45747C11.2212 8.54744 11.5529 8.62616 11.9747 8.62616C12.4077 8.62616 12.9588 8.53619 13.5155 8.44059H13.5436C14.0834 8.345 14.6345 8.25502 15.0675 8.25502C15.5342 8.25502 15.9278 8.43498 16.2033 8.79486C16.5392 9.29334 16.683 9.89668 16.6082 10.493C16.9853 10.2637 17.3639 10.0368 17.7441 9.81271L18.8519 9.15475C19.7066 8.6374 20.5389 8.15381 20.9944 7.94012V8.345C20.5389 8.57556 19.8136 8.9973 19.0431 9.4696L17.941 10.122C17.4124 10.4368 16.9062 10.7348 16.5464 10.9598C16.4684 11.3077 16.3179 11.6354 16.1047 11.9211C15.8916 12.207 15.6205 12.4446 15.3093 12.6186C15.1968 12.6862 15.1012 12.793 15 12.9335C14.9044 13.0742 14.8145 13.2373 14.7188 13.4058L14.7019 13.4398C14.6121 13.5972 14.5276 13.7602 14.432 13.9008C14.3252 14.0582 14.2072 14.1987 14.0666 14.3001C13.8022 14.4856 13.3187 14.7331 12.7731 14.9355C12.2277 15.1379 11.5979 15.3009 11.0581 15.3009C10.5127 15.3009 9.97839 15.1041 9.56794 14.8792C9.31797 14.7411 9.0857 14.5729 8.87628 14.3788C8.84538 14.3474 8.81717 14.3136 8.79193 14.2775C8.64572 14.4238 8.50514 14.57 8.3983 14.6937C8.2296 14.8905 8.07778 15.1154 7.9597 15.4134C7.84722 15.7114 7.77413 16.0882 7.77413 16.6055C7.77413 16.8587 7.791 17.0329 7.81911 17.1566C7.84161 17.286 7.87534 17.376 7.9147 17.4715C7.95407 17.5728 7.99906 17.6796 8.02718 17.8258C8.06091 17.9776 8.0834 18.1632 8.0834 18.4331C8.0834 18.9729 7.94845 19.614 7.54357 20.12C7.12745 20.6374 6.44141 20.9974 5.37862 20.9974C4.51827 20.9974 3.97282 20.7162 3.66354 20.3337C3.41853 20.0423 3.28325 19.6743 3.28116 19.2935C3.2293 19.2498 3.18219 19.2007 3.14058 19.1473C3.0567 19.054 3.00711 18.935 3 18.8098C3 18.6749 3.02249 18.5006 3.13494 18.3038C3.25303 18.1126 3.45548 17.9101 3.80412 17.719C4.50703 17.3366 5.14244 17.4265 5.59231 17.7302C5.79475 17.8594 5.87909 18.0451 5.90721 18.2194C5.93532 18.3881 5.90721 18.5399 5.86784 18.6411C5.85097 18.6974 5.83411 18.793 5.82849 18.8829C5.82849 18.9786 5.83411 19.0517 5.85097 19.0797H5.88472C5.95286 19.075 6.01955 19.0578 6.08153 19.0293C6.25022 18.9617 6.44141 18.8211 6.58762 18.6356C6.64949 18.5623 6.69446 18.4499 6.72257 18.2981C6.7507 18.1576 6.76194 17.9889 6.76194 17.809L6.74507 17.2579V17.224C6.73382 17.0555 6.72257 16.8811 6.72257 16.7237V16.5437C6.69594 16.1732 6.73013 15.801 6.8238 15.4416C6.98124 14.9242 7.34114 14.3844 8.13401 13.9064H8.13963V13.9008H8.14526L8.16776 13.8838C8.23472 13.8315 8.29857 13.7751 8.35894 13.7152C8.24192 13.5649 8.13486 13.407 8.03842 13.2429C7.98875 13.1684 7.93227 13.0987 7.86972 13.0348L7.59419 12.7424L7.58293 12.7255L7.31301 12.4444C7.23931 12.3665 7.1734 12.2818 7.1162 12.1913C7.05281 12.0286 7.00206 11.8613 6.96438 11.6908L6.88566 11.1847C6.82646 10.8961 6.79632 10.6022 6.79567 10.3075C6.79567 9.97017 6.84066 9.59897 7.01499 9.35156C7.40862 8.76674 8.31958 8.25502 9.4386 8.25502C9.73102 8.25502 9.98403 8.27753 10.2145 8.31689C11.3617 7.4734 13.4086 6.40498 15.4892 5.42655V5.42091ZM16.3157 10.673L16.254 10.7124L16.3046 10.7855C16.2487 11.1211 16.1175 11.4397 15.9208 11.7174C15.724 11.995 15.4669 12.2243 15.1687 12.3881C15.0113 12.4837 14.8875 12.6243 14.7751 12.7817C14.6625 12.928 14.5726 13.1079 14.477 13.271L14.4602 13.3047C14.3758 13.4678 14.2915 13.614 14.2015 13.7546C14.106 13.8952 14.0103 14.0076 13.9092 14.0751C13.6729 14.2437 13.2118 14.48 12.6719 14.6767C12.1433 14.8735 11.5529 15.0254 11.0581 15.0254C10.3211 14.9815 9.62104 14.6881 9.07309 14.1931C9.04925 14.1697 9.02847 14.1431 9.01124 14.1144L8.89877 14.1706L9.30927 13.7771C9.54025 14.0477 9.82739 14.2649 10.1508 14.4136C10.4741 14.5621 10.826 14.6385 11.1818 14.6374C12.0604 14.6325 12.9157 14.3533 13.6279 13.8388C13.6841 13.794 13.7517 13.7152 13.8078 13.6309L13.999 13.3328C14.1284 13.1135 14.2522 12.8774 14.3365 12.7199V12.7086L14.3422 12.6974C14.384 12.5551 14.4445 12.4189 14.522 12.2925C14.6176 12.1407 14.7357 12.0057 14.8706 11.9326C15.374 11.6731 15.7656 11.2394 15.9728 10.7124C16.0741 10.7237 16.164 10.6898 16.2033 10.6168C16.2709 10.5043 16.2033 10.3525 16.0628 10.2738C15.9222 10.1894 15.7592 10.2175 15.6973 10.3188C15.6523 10.3975 15.6692 10.493 15.7309 10.5718C15.5553 11.0552 15.2039 11.4546 14.7469 11.6908C14.5445 11.792 14.3926 11.9721 14.2858 12.1519C14.1847 12.3206 14.1171 12.4894 14.0834 12.6074C13.9298 12.9035 13.7627 13.1925 13.5829 13.4734C13.5267 13.5578 13.4817 13.6083 13.4593 13.6252C12.7953 14.1026 11.9996 14.3619 11.1818 14.3675C10.8441 14.3691 10.5107 14.2909 10.2088 14.1394C9.90687 13.988 9.64493 13.7676 9.44423 13.4958L9.20243 13.1697C9.03373 12.8211 8.85379 12.6749 8.47141 12.3825C8.25772 12.2138 8.05528 11.9888 7.92595 11.8202C7.99906 11.7415 8.02155 11.6346 7.97094 11.5558C7.9147 11.449 7.74601 11.4266 7.60543 11.511C7.46484 11.5896 7.40299 11.7471 7.46484 11.8483C7.5042 11.9214 7.58856 11.9607 7.68415 11.9495C7.81911 12.1295 8.04967 12.3994 8.30272 12.5962C8.65135 12.8604 8.79193 12.9785 8.91564 13.2147L8.56699 13.5353C8.4607 13.401 8.36303 13.2601 8.27459 13.1135C8.23524 13.0348 8.16212 12.9448 8.07778 12.8493L7.79662 12.5512L7.77974 12.5399L7.51546 12.2589C7.45508 12.1964 7.40049 12.1287 7.35238 12.0564C7.30348 11.9206 7.26403 11.7815 7.23429 11.6402C7.20056 11.4603 7.17806 11.2692 7.1612 11.1511V11.1397C7.1162 10.9429 7.07121 10.6224 7.0656 10.3075C7.0656 9.9758 7.12184 9.67769 7.23429 9.50345C7.57168 9.00854 8.39268 8.52495 9.4386 8.52495C9.96158 8.52495 10.3552 8.61492 10.7376 8.71052L10.7938 8.72176C11.1592 8.81173 11.5248 8.9017 11.9747 8.9017C12.4358 8.9017 13.0093 8.8061 13.5604 8.71052H13.5717C14.1284 8.61492 14.6571 8.52495 15.0675 8.52495C15.4611 8.52495 15.7704 8.67677 15.9841 8.96355C16.209 9.25035 16.3383 9.69462 16.3383 10.3131C16.3383 10.4425 16.3327 10.5606 16.3157 10.673ZM9.14619 13.5522C8.88752 13.794 8.4489 14.2156 8.19025 14.5136C8.0103 14.7331 7.83598 14.9804 7.70664 15.3179C7.57732 15.6495 7.49858 16.0601 7.49858 16.6055C7.49858 16.8754 7.52107 17.0611 7.55482 17.2129C7.58293 17.3647 7.62229 17.4715 7.66165 17.5728C7.70102 17.6683 7.73476 17.7583 7.76288 17.882C7.78537 18.0113 7.80786 18.18 7.80786 18.4331C7.80786 18.9336 7.68415 19.5016 7.32989 19.9514C6.97563 20.39 6.37394 20.7218 5.37862 20.7218C4.58013 20.7218 4.12464 20.463 3.8716 20.1595C3.66325 19.9107 3.55146 19.5953 3.55669 19.2709C3.86598 19.3272 4.35519 19.3497 4.80505 19.1697C5.15932 19.0236 5.40674 18.8886 5.56419 18.7818L5.55857 18.8661C5.55294 18.9786 5.55857 19.1247 5.62043 19.2316C5.64854 19.2766 5.68791 19.3047 5.72726 19.3216C5.82849 19.4677 6.00842 19.6084 6.30084 19.6084C6.81818 19.6084 6.73945 19.2935 6.2671 19.2485C6.45267 19.1528 6.64949 19.001 6.80131 18.8098C6.90252 18.6805 6.95875 18.523 6.99249 18.36C7.02623 18.1914 7.03748 18.0001 7.03748 17.809C7.03748 17.6233 7.02623 17.4265 7.01499 17.2466V17.2129L6.99812 16.7237V16.5212C6.98688 16.2288 6.97563 15.8857 7.08809 15.5203C7.18981 15.2128 7.35223 14.9291 7.56571 14.6857C7.77917 14.4423 8.03936 14.2442 8.33082 14.1032L8.41517 14.0356C8.64077 13.8482 8.8584 13.6511 9.06747 13.4453L9.14619 13.5578V13.5522ZM5.58106 18.658L5.60355 18.5623V18.5568L5.60918 18.5512C5.63167 18.4893 5.65416 18.3768 5.6373 18.2588C5.62777 18.2052 5.60872 18.1538 5.58106 18.1069C5.43143 18.3067 5.23563 18.4674 5.01041 18.5751C4.78518 18.6828 4.53721 18.7345 4.28773 18.7255C4.00646 18.7368 3.72492 18.7122 3.44985 18.6524C3.3991 18.6394 3.35004 18.6205 3.30366 18.5963C3.28116 18.6749 3.27554 18.748 3.27554 18.8098C3.27554 18.8548 3.29802 18.9111 3.34864 18.9786L3.49484 19.1079L3.56232 19.1528V19.181C3.85473 19.2372 4.33833 19.2597 4.77132 19.0854C5.05693 18.9749 5.32869 18.8315 5.58106 18.658ZM3.33739 18.5062C3.3655 18.523 3.41049 18.5456 3.47235 18.5623C3.62417 18.6018 3.8716 18.6356 4.28209 18.6356C4.96813 18.6356 5.36176 18.2814 5.53045 18.0282C5.50354 18.0003 5.47332 17.9757 5.44048 17.9551C5.08059 17.7133 4.552 17.6233 3.93346 17.9608C3.68489 18.0817 3.47756 18.2734 3.33739 18.5118V18.5062ZM3.7985 18.2364C3.65792 18.4443 4.23149 18.3994 4.37769 18.3881H4.41143C4.74882 18.3712 5.15932 18.0957 5.19307 18.0169C5.22117 17.9439 5.08622 17.8484 4.7432 17.8484C4.40581 17.8484 3.95594 18.0001 3.7985 18.2364Z" fill="black"/>
<defs>
<linearGradient id="paint0_linear_328_37799" x1="11.4852" y1="10.1186" x2="17.7718" y2="16.5588" gradientUnits="userSpaceOnUse">
<stop stop-color="#9D35B8"/>
<stop offset="0.54" stop-color="#3B3299"/>
<stop offset="1" stop-color="#1A5994"/>
</linearGradient>
<linearGradient id="paint1_linear_328_37799" x1="12.0009" y1="3.00357" x2="12.0009" y2="20.9914" gradientUnits="userSpaceOnUse">
<stop offset="0.04" stop-color="#6C34AA"/>
<stop offset="0.17" stop-color="#46319D"/>
<stop offset="0.72" stop-color="#129BD2"/>
</linearGradient>
<linearGradient id="paint2_linear_328_37799" x1="11.4876" y1="8.30769" x2="15.8546" y2="14.0292" gradientUnits="userSpaceOnUse">
<stop stop-color="#610C8B"/>
<stop offset="1" stop-color="#231C81"/>
</linearGradient>
</defs>
</svg>
