<svg width="24" height="24" viewBox="0 0 24 24" fill="none" xmlns="http://www.w3.org/2000/svg">
<path d="M12.0003 20L11.9699 19.9957C10.0759 19.5026 6.81104 17.8681 6.81104 15.5675V7.19568C6.81104 6.85838 7.09644 6.59027 7.44672 6.59459H16.5537C16.8997 6.59459 17.1851 6.8627 17.1894 7.19568V15.5675C17.1894 17.8897 13.9462 19.52 12.0305 19.9957L12.0003 20ZM7.24347 7.02702V15.5026C7.24347 17.613 10.2835 19.1265 12.0003 19.5806C12.3894 19.4854 16.757 18.0065 16.757 15.5114V7.02702H7.24347ZM10.9192 4.82594H11.7407L12.0003 4L12.2596 4.82594H13.0813L12.4154 5.33622L12.6662 6.16216L12.0003 5.6519L11.3343 6.16216L11.5851 5.33622L10.9192 4.82594Z" fill="#FFC908"/>
<path d="M10.0364 17.4056L10.1747 17.2629L10.1574 17.2327L10.1357 17.2586L10.1228 17.2716L10.1098 17.2803C10.1055 17.2803 10.0926 17.2716 10.0839 17.2542C10.0814 17.2497 10.0784 17.2454 10.0752 17.2413L10.0666 17.2283V16.6618L10.0493 16.61C10.0398 16.5939 10.0264 16.5806 10.0103 16.571C10.0029 16.5657 9.99559 16.5599 9.98873 16.5538C9.98177 16.5491 9.97452 16.5448 9.96712 16.5407L9.8374 16.6705L9.85469 16.7008L9.89794 16.6575L9.91091 16.6662L9.93686 16.6878L9.94983 16.7527V17.2024C9.94983 17.237 9.93686 17.2673 9.91523 17.2888L10.0364 17.4056ZM10.6417 17.1721C10.6806 17.09 10.7023 16.9991 10.7023 16.9083C10.7066 16.8315 10.6853 16.7554 10.6417 16.6921C10.5954 16.6279 10.5305 16.5797 10.4558 16.5538C10.3866 16.597 10.326 16.6619 10.2829 16.7267C10.2478 16.7808 10.2298 16.844 10.2309 16.9083C10.2309 17.0078 10.2785 17.0856 10.3736 17.1331L10.6028 16.943V16.9862C10.6115 17.0987 10.5769 17.211 10.5164 17.2975L10.3434 17.1895L10.2568 17.2888L10.4601 17.4056C10.5336 17.3408 10.5941 17.2629 10.6417 17.1721ZM10.525 16.7527C10.5639 16.7959 10.5856 16.8522 10.5941 16.9126L10.4861 16.9991C10.4861 17.0079 10.4774 17.0121 10.4687 17.0121H10.4558C10.4367 17.0103 10.4184 17.0044 10.4019 16.9947C10.3855 16.985 10.3713 16.9717 10.3607 16.9559C10.3314 16.9159 10.3162 16.8672 10.3174 16.8175C10.3131 16.7527 10.3391 16.6965 10.3866 16.6618C10.4385 16.6791 10.4861 16.7051 10.525 16.7483V16.7527ZM13.6557 17.1895C13.6861 17.1159 13.699 17.0338 13.699 16.9515C13.7033 16.8651 13.6861 16.7786 13.6557 16.7094C13.6125 16.6359 13.5563 16.5797 13.4957 16.5407C13.4325 16.5982 13.3821 16.6682 13.3477 16.7465C13.3134 16.8248 13.2961 16.9094 13.2969 16.9948C13.2969 17.09 13.3141 17.1808 13.3531 17.2542C13.3877 17.3278 13.4439 17.3797 13.5088 17.4056C13.5649 17.3494 13.6168 17.2759 13.6557 17.1895ZM13.578 16.7873C13.6168 16.8478 13.6341 16.9256 13.6341 17.0035C13.6341 17.1072 13.6168 17.2067 13.578 17.2845C13.5444 17.2734 13.5136 17.2554 13.4875 17.2315C13.4614 17.2077 13.4406 17.1786 13.4266 17.1462C13.3833 17.0684 13.3661 16.9775 13.3661 16.8867C13.3617 16.8072 13.3829 16.7284 13.4266 16.6618C13.4872 16.6791 13.539 16.7224 13.578 16.7873ZM14.1141 17.1764C14.1445 17.09 14.1574 17.0035 14.1574 16.9083C14.162 16.8299 14.1439 16.7519 14.1055 16.6835C14.0685 16.623 14.0143 16.5748 13.9498 16.5451C13.8936 16.5883 13.8417 16.6532 13.8028 16.7181C13.7732 16.7739 13.7583 16.8365 13.7596 16.8997C13.7596 17.0035 13.8028 17.0813 13.8807 17.1289L14.0796 16.9387V16.9818C14.0796 17.1159 14.0536 17.2239 14.0017 17.2975L13.859 17.1895L13.7855 17.2888L13.9585 17.4056C14.019 17.3451 14.0709 17.2629 14.1141 17.1721V17.1764ZM14.0103 16.744C14.0406 16.7873 14.058 16.8478 14.0709 16.9083L13.9757 16.9948C13.9757 17.0035 13.9715 17.0035 13.9672 17.0079H13.9498C13.9152 17.0079 13.8849 16.9818 13.8677 16.9515C13.8433 16.9097 13.8313 16.8616 13.833 16.8132C13.8287 16.7526 13.8546 16.6921 13.8893 16.6575C13.9325 16.6749 13.9758 16.7008 14.0103 16.744ZM13.0806 16.9732C13.0806 17.2599 12.9667 17.535 12.764 17.7377C12.5613 17.9403 12.2862 18.0542 11.9996 18.0542C11.7129 18.0542 11.4379 17.9403 11.2352 17.7377C11.0324 17.535 10.9185 17.2599 10.9185 16.9732C10.9185 16.6865 11.0324 16.4115 11.2352 16.2088C11.4379 16.006 11.7129 15.8921 11.9996 15.8921C12.2862 15.8921 12.5613 16.006 12.764 16.2088C12.9667 16.4115 13.0806 16.6865 13.0806 16.9732ZM11.9996 16.0089C11.7438 16.0089 11.4985 16.1105 11.3177 16.2914C11.1369 16.4722 11.0353 16.7175 11.0353 16.9732C11.0353 17.2289 11.1369 17.4742 11.3177 17.6551C11.4985 17.8359 11.7438 17.9375 11.9996 17.9375C12.2553 17.9375 12.5005 17.8359 12.6815 17.6551C12.8623 17.4742 12.9639 17.2289 12.9639 16.9732C12.9639 16.7175 12.8623 16.4722 12.6815 16.2914C12.5005 16.1105 12.2553 16.0089 11.9996 16.0089Z" fill="#FFC908"/>
<path d="M11.5496 16.7865V16.9248H11.4458V16.501H11.7139C11.7627 16.4966 11.8114 16.5088 11.8524 16.5356C11.8682 16.5486 11.8808 16.5652 11.8891 16.5839C11.8973 16.6027 11.9011 16.6232 11.8999 16.6438C11.8999 16.6741 11.8956 16.7043 11.8783 16.7302C11.8639 16.7496 11.8445 16.7646 11.8221 16.7734L11.9172 16.9248H11.7875L11.7139 16.7865H11.5496ZM11.7139 16.5918H11.5496V16.6957H11.7053C11.7269 16.6957 11.7485 16.6957 11.7701 16.6826C11.777 16.6778 11.7825 16.6712 11.7863 16.6638C11.7901 16.6562 11.7919 16.6478 11.7918 16.6394C11.7924 16.6314 11.7912 16.6233 11.7883 16.6158C11.7852 16.6082 11.7805 16.6015 11.7744 16.5962C11.7552 16.5887 11.7341 16.5873 11.7139 16.5918ZM12.1464 16.9248V16.4966H12.5832V16.5918H12.2588V16.6697H12.5529V16.7562H12.2588V16.9248H12.1464ZM12.1464 17.5691V17.1497H12.5832V17.2362H12.2588V17.3226H12.5529V17.4091H12.2588V17.5691H12.1464ZM11.4458 17.1454H11.9042V17.2362H11.5582V17.3098H11.8609V17.3962H11.5582V17.4826H11.9042V17.5691H11.4458V17.1454ZM12.1939 15.1475C12.1304 15.1609 12.0727 15.1942 12.0296 15.2426V15.2254C12.0286 15.199 12.0243 15.1729 12.0166 15.1475C12.1118 15.1432 12.181 15.0826 12.181 15.0005C12.181 14.9356 12.1377 14.8794 12.0772 14.8621V14.8362L12.0858 14.8146L12.0599 14.8232C12.0485 14.8265 12.0382 14.8324 12.0296 14.8405L12.0209 14.8189C12.0153 14.8102 12.008 14.8029 11.9994 14.7973L11.9734 14.8146L11.956 14.8405C11.9489 14.8328 11.94 14.827 11.9301 14.8232H11.887L11.9085 14.8448L11.9172 14.8664C11.848 14.8707 11.8177 14.94 11.8177 15.0005C11.8177 15.0783 11.8912 15.1432 11.982 15.1475L11.9907 15.2254V15.234C11.9648 15.2167 11.8609 15.1475 11.8177 15.1345C11.7485 15.1216 11.6664 15.1345 11.6361 15.1302C11.6534 15.1475 11.6793 15.1606 11.6924 15.1822C11.7269 15.2081 11.7616 15.2297 11.8048 15.2426C11.8652 15.2599 11.9345 15.2556 11.995 15.234L11.9734 15.3205L12.0253 15.3032L12.0296 15.2426H12.0599C12.0728 15.234 12.1464 15.2426 12.2156 15.2426C12.2588 15.2426 12.3064 15.2254 12.3452 15.1908L12.3928 15.1648C12.3287 15.1441 12.2607 15.1382 12.1939 15.1475ZM11.9517 15.0005C11.9514 14.9761 11.9564 14.952 11.966 14.9297C11.9757 14.9073 11.99 14.8872 12.008 14.8707C12.0815 14.9443 12.0815 15.0567 12.008 15.1302C11.9729 15.0961 11.9528 15.0494 11.9517 15.0005ZM12.142 12.8902L12.1248 12.9162C12.1507 12.9162 12.1767 12.9334 12.1939 12.9594H12.1982V12.955C12.2156 12.9334 12.2416 12.9206 12.2718 12.9162L12.2502 12.8902H12.142ZM11.7053 12.661C11.6708 12.661 11.6404 12.6913 11.6404 12.7216C11.6404 12.7346 11.6404 12.7432 11.649 12.7562L11.6708 12.7951C11.6751 12.7778 11.6924 12.7692 11.7096 12.7692C11.7312 12.7692 11.7528 12.7821 11.7528 12.8037H11.8264C11.8299 12.7938 11.8363 12.7853 11.8448 12.7791C11.8532 12.773 11.8635 12.7694 11.874 12.7692C11.8956 12.7692 11.9085 12.7778 11.9172 12.7951L11.9345 12.7518C11.9398 12.7426 11.9428 12.7322 11.9432 12.7216C11.9438 12.7135 11.9427 12.7054 11.9398 12.6977C11.937 12.69 11.9326 12.6831 11.9268 12.6774C11.9211 12.6716 11.9141 12.6672 11.9065 12.6644C11.8988 12.6615 11.8907 12.6604 11.8826 12.661C11.8567 12.661 11.835 12.6784 11.8264 12.7C11.8416 12.6661 11.849 12.629 11.848 12.5918C11.848 12.5356 11.7918 12.4707 11.7918 12.4707C11.7918 12.4707 11.7356 12.5356 11.7356 12.5918C11.7356 12.6308 11.7442 12.6654 11.7572 12.7C11.7572 12.6784 11.7269 12.661 11.7053 12.661ZM12.0728 12.7994C12.0815 12.7821 12.0945 12.7734 12.1161 12.7734C12.1377 12.7734 12.1551 12.7865 12.1594 12.8081H12.2328C12.236 12.7989 12.2418 12.7907 12.2495 12.7846C12.2572 12.7784 12.2664 12.7746 12.2761 12.7734C12.2977 12.7734 12.315 12.7821 12.3193 12.7994L12.3367 12.7562C12.3443 12.7462 12.3488 12.7342 12.3496 12.7216C12.3497 12.7134 12.348 12.7054 12.3447 12.6978C12.3413 12.6904 12.3364 12.6838 12.3302 12.6785C12.324 12.673 12.3168 12.6691 12.3089 12.6669C12.3011 12.6646 12.2928 12.6642 12.2847 12.6654C12.2588 12.6654 12.2416 12.6784 12.2285 12.7V12.7043C12.2439 12.6703 12.2512 12.6334 12.2502 12.5962C12.2502 12.5356 12.1939 12.475 12.1939 12.475C12.1939 12.475 12.1377 12.5356 12.1377 12.5962C12.1377 12.6351 12.1507 12.6654 12.1594 12.7V12.7043C12.1507 12.6697 12.1118 12.6567 12.0815 12.6697C12.0701 12.6741 12.0603 12.6817 12.0533 12.6918C12.0464 12.7018 12.0427 12.7137 12.0425 12.7259C12.0425 12.739 12.0425 12.7475 12.0512 12.7605L12.0728 12.7994ZM11.9604 13.0978C11.9539 13.0837 11.942 13.0727 11.9276 13.067C11.9131 13.0615 11.8969 13.0616 11.8826 13.0676C11.8712 13.0719 11.8613 13.0796 11.8544 13.0897C11.8475 13.0997 11.8438 13.1115 11.8436 13.1238C11.8436 13.1325 11.8436 13.1454 11.8524 13.1584L11.8696 13.1972C11.8783 13.18 11.8956 13.1713 11.9129 13.1713C11.9345 13.1713 11.956 13.1843 11.956 13.2059H12.0296C12.0331 13.196 12.0396 13.1874 12.048 13.1813C12.0564 13.175 12.0667 13.1716 12.0772 13.1713C12.0945 13.1713 12.1118 13.18 12.1204 13.1972L12.1377 13.154C12.1431 13.1447 12.146 13.1343 12.1464 13.1238C12.1472 13.1152 12.146 13.1066 12.1428 13.0986C12.1398 13.0906 12.135 13.0835 12.1287 13.0777C12.1224 13.0718 12.115 13.0674 12.1068 13.065C12.0987 13.0624 12.09 13.0619 12.0815 13.0632C12.0599 13.0632 12.0383 13.0805 12.0253 13.1022C12.042 13.0686 12.0509 13.0315 12.0512 12.994C12.0512 12.9334 11.995 12.873 11.995 12.873C11.995 12.873 11.9388 12.9334 11.9388 12.994C11.9388 13.0286 11.9475 13.0632 11.9604 13.0978ZM11.9432 13.288L11.9258 13.3141C11.9517 13.3183 11.9778 13.3357 11.995 13.3573H11.9994V13.3529C12.0166 13.3313 12.0425 13.3183 12.0728 13.3141L12.0512 13.288H11.9432ZM11.8696 12.9162L11.8524 12.8902H11.7442L11.7269 12.9162C11.7528 12.9162 11.7788 12.9334 11.7961 12.9594L11.8048 12.955C11.8123 12.9446 11.822 12.9356 11.8332 12.929C11.8443 12.9222 11.8567 12.9179 11.8696 12.9162ZM12.9593 10.9918C13.0372 11.0221 13.1064 11.0783 13.1625 11.1475C13.1972 11.1216 13.262 11.1043 13.3053 11.1216H13.3096C13.3182 11.1173 13.2967 11.087 13.2836 11.087H13.2794L13.262 11.1V11.0826C13.2577 11.0741 13.2448 11.0741 13.2361 11.0826C13.2361 11.0826 13.2274 11.087 13.2274 11.0957L13.2404 11.1086H13.2361C13.2274 11.1086 13.2102 11.1129 13.2058 11.1043C13.2015 11.1043 13.1972 11.0957 13.2015 11.087L13.1886 11.0826C13.1799 11.0741 13.1886 11.0654 13.1928 11.0567H13.1972V11.0698C13.2102 11.0783 13.2231 11.0698 13.2274 11.061V11.048H13.2102V11.0438L13.2274 11.0308H13.2318C13.2318 11.0221 13.2318 11.0092 13.2188 11.0092H13.2058L13.1928 11.0308L13.1886 11.0178C13.1799 11.0092 13.1669 11.0178 13.1625 11.0265V11.0438H13.1799V11.048C13.1712 11.0567 13.1625 11.0654 13.1496 11.0567C13.1409 11.0567 13.1409 11.0438 13.1409 11.0394H13.1237C13.1064 11.0221 13.1237 11.0092 13.1237 11.0005H13.128L13.1366 11.0092V11.0135C13.1496 11.0135 13.1625 11.0135 13.1625 11.0005V10.9875H13.1583L13.1409 10.9833L13.1625 10.9659C13.1669 10.953 13.1625 10.9443 13.1496 10.94H13.1366V10.9443L13.128 10.9659L13.1194 10.953V10.9486C13.1064 10.9486 13.0934 10.9486 13.0934 10.9659V10.9789H13.115V10.9875C13.1064 10.9962 13.0934 11.0092 13.0848 11.0005C13.076 10.9962 13.076 10.9875 13.076 10.9833H13.0588C13.0458 10.9746 13.0501 10.9616 13.0588 10.953V10.9486L13.0675 10.9616C13.0804 10.9616 13.0891 10.9616 13.0934 10.9443L13.0891 10.9313H13.0717L13.0848 10.9184H13.0891C13.0891 10.9097 13.0891 10.901 13.0804 10.8967H13.0588V10.9227H13.0501L13.0458 10.9097V10.9054C13.043 10.9047 13.04 10.9046 13.0372 10.9053C13.0343 10.9058 13.0316 10.9069 13.0292 10.9085C13.0268 10.9101 13.0247 10.9122 13.0231 10.9146C13.0215 10.917 13.0204 10.9198 13.0199 10.9227V10.9313H13.0415V10.94C13.0372 10.9486 13.0329 10.9572 13.0199 10.953L13.0156 10.9443H12.994C12.9852 10.94 12.9852 10.9227 12.9852 10.914H12.9983C13.0112 10.914 13.0156 10.901 13.0156 10.8925L13.0069 10.8838H13.0026L12.9896 10.8881V10.8707C12.9896 10.8535 12.9507 10.8448 12.9464 10.8535C12.9767 10.8794 12.9724 10.9486 12.9593 10.9918ZM12.8426 11.9432C12.8036 11.9309 12.7612 11.9345 12.7249 11.953C12.6885 11.9717 12.6608 12.0038 12.648 12.0427C12.6375 12.0767 12.6391 12.1134 12.6523 12.1464C12.6523 12.1335 12.6523 12.1205 12.661 12.1118C12.6666 12.0996 12.6756 12.0891 12.6869 12.0815C12.6826 12.0989 12.6782 12.1118 12.6826 12.1249C12.6826 12.1464 12.6912 12.168 12.7043 12.1767L12.7085 12.1508L12.7172 12.1464L12.7259 12.1508L12.7345 12.1767V12.207C12.7311 12.2182 12.7255 12.2286 12.7178 12.2378C12.7102 12.2467 12.7009 12.2541 12.6904 12.2594C12.6798 12.2646 12.6684 12.2676 12.6566 12.2683C12.6448 12.269 12.6332 12.2672 12.622 12.2632C12.6139 12.2607 12.6065 12.2563 12.6004 12.2502C12.5832 12.2373 12.5615 12.2329 12.5399 12.2243C12.5156 12.2166 12.4896 12.2182 12.4664 12.2286C12.4576 12.2325 12.4499 12.2386 12.4438 12.246C12.4378 12.2536 12.4336 12.2624 12.4318 12.2718C12.4381 12.2648 12.4464 12.2598 12.4557 12.2574C12.465 12.2551 12.4747 12.2556 12.4837 12.2589C12.4924 12.2589 12.4924 12.2675 12.4924 12.2718C12.4966 12.2891 12.5183 12.3022 12.5356 12.3022L12.5745 12.2891L12.5832 12.2934C12.5874 12.3022 12.5832 12.3065 12.5788 12.3065L12.5442 12.3151C12.5206 12.3269 12.5021 12.347 12.4924 12.3714C12.488 12.3886 12.4924 12.4146 12.5009 12.4275C12.5009 12.4102 12.5096 12.3886 12.5268 12.3842H12.5442C12.5526 12.3888 12.5622 12.3903 12.5716 12.3888C12.5809 12.3872 12.5896 12.3826 12.5961 12.3757L12.6177 12.3324L12.6264 12.3281C12.6307 12.3281 12.635 12.3324 12.635 12.341L12.6264 12.367C12.6264 12.393 12.6394 12.4189 12.648 12.4405C12.661 12.4578 12.6826 12.4622 12.7043 12.4622C12.6958 12.4583 12.6885 12.4522 12.6832 12.4446C12.6778 12.437 12.6747 12.4282 12.674 12.4189L12.6826 12.4016C12.7043 12.393 12.7085 12.3714 12.7043 12.3583L12.6956 12.3454L12.6912 12.3324L12.6956 12.3238H12.7043C12.7734 12.3626 12.8599 12.3497 12.9075 12.2891L12.8728 12.2849C12.8599 12.2849 12.8512 12.2762 12.8383 12.2675C12.8728 12.2675 12.9075 12.2459 12.9248 12.2157C12.9194 12.2177 12.9136 12.2187 12.9079 12.2185C12.9021 12.2182 12.8964 12.217 12.8912 12.2146C12.886 12.2122 12.8812 12.2087 12.8773 12.2043C12.8735 12.2001 12.8704 12.1952 12.8685 12.1898C12.8665 12.1842 12.8655 12.1786 12.8657 12.1728C12.8659 12.167 12.8672 12.1614 12.8696 12.1562C12.872 12.1509 12.8755 12.1462 12.8798 12.1423C12.884 12.1384 12.889 12.1354 12.8944 12.1335C12.9043 12.1298 12.9149 12.1298 12.9248 12.1335C12.9291 12.1335 12.9377 12.1335 12.942 12.1249C12.9516 12.0876 12.9468 12.0481 12.9283 12.0143C12.9098 11.9806 12.8791 11.9552 12.8426 11.9432ZM12.5615 11.1865C12.5701 11.1994 12.5874 11.2081 12.6048 11.2124L12.6307 11.2167H12.8036C12.7518 11.2038 12.6912 11.1951 12.6437 11.1778C12.6305 11.1737 12.6186 11.1662 12.6091 11.1562C12.5944 11.1416 12.5751 11.1326 12.5544 11.131C12.5338 11.1294 12.5133 11.1353 12.4966 11.1475H12.5226C12.5399 11.1562 12.5486 11.1691 12.5658 11.1865H12.5615Z" fill="#FFC908"/>
<path d="M12.704 11.1561C12.704 11.1648 12.7083 11.1821 12.717 11.1907C12.7256 11.1648 12.7559 11.1474 12.7819 11.1605C12.7928 11.1652 12.8018 11.1737 12.8072 11.1844C12.8128 11.195 12.8144 11.2073 12.8118 11.2191C12.8093 11.2308 12.8028 11.2413 12.7933 11.2486C12.784 11.2561 12.7723 11.2601 12.7603 11.2598C12.753 11.2578 12.7468 11.2532 12.7427 11.2468C12.7387 11.2404 12.7372 11.2327 12.7386 11.2253C12.7326 11.2313 12.728 11.2387 12.7256 11.2469L12.7083 11.3161C12.704 11.3334 12.691 11.329 12.6824 11.3421C12.7559 11.3204 12.7688 11.3421 12.7819 11.3377L12.877 11.3031C12.8813 11.3031 12.8899 11.2901 12.8856 11.2858V11.2513L12.8943 11.2339H12.9029V11.2469C12.8943 11.2598 12.8943 11.2729 12.9029 11.2815L12.9072 11.2901L12.9202 11.3118V11.3161L12.8683 11.3334C12.8596 11.3377 12.8554 11.3421 12.8596 11.3549C12.8596 11.3637 12.8596 11.368 12.8511 11.3767C12.8468 11.3809 12.838 11.3896 12.8294 11.3896L12.6997 11.4026C12.6821 11.4081 12.6669 11.419 12.656 11.4337C12.6452 11.4485 12.6392 11.4664 12.6392 11.4847C12.6738 11.4761 12.704 11.4847 12.7386 11.4977L12.7603 11.5107L12.7386 11.528C12.7263 11.5387 12.7163 11.5519 12.7096 11.5669C12.7028 11.5819 12.6995 11.5981 12.6997 11.6145C12.7147 11.6078 12.7309 11.6043 12.7472 11.6043C12.7637 11.6043 12.7798 11.6078 12.7948 11.6145L12.8164 11.6231L12.7991 11.6405C12.7874 11.6511 12.7796 11.6656 12.7772 11.6814C12.7749 11.6971 12.778 11.7132 12.7862 11.7269C12.8006 11.7139 12.818 11.7048 12.8369 11.7002C12.8558 11.6957 12.8755 11.6959 12.8943 11.7009L12.9072 11.7053V11.7182C12.9072 11.7441 12.916 11.7658 12.9332 11.7831C12.9592 11.7572 12.9937 11.7399 13.0284 11.7313C13.0629 11.7225 13.0845 11.688 13.0932 11.6533C13.0284 11.688 13.0327 11.6448 13.05 11.6317C13.0845 11.5885 13.0932 11.5453 13.1105 11.4891V11.4631C13.1025 11.4561 13.0965 11.4472 13.0932 11.4372C13.1364 11.4675 13.171 11.4198 13.1667 11.3939C13.1408 11.4198 13.132 11.4069 13.132 11.3939C13.132 11.3809 13.1451 11.2641 13.1148 11.2037C13.1451 11.2123 13.171 11.1993 13.1797 11.169V11.1605C13.1624 11.169 13.1364 11.1605 13.1235 11.1474L13.0932 11.1172C13.0527 11.074 13.0022 11.0413 12.9462 11.022C12.9392 11.0282 12.9308 11.0331 12.922 11.0361C12.9131 11.0389 12.9036 11.0401 12.8943 11.0393H12.8164C12.7991 11.0307 12.7819 11.0393 12.7732 11.0523C12.7516 11.0666 12.7284 11.0782 12.704 11.0869C12.6954 11.0912 12.691 11.0999 12.691 11.1085L12.6954 11.1172C12.6998 11.1225 12.7029 11.1288 12.7044 11.1356C12.706 11.1424 12.7058 11.1493 12.704 11.1561ZM12.8252 11.0912L12.8943 11.1085C12.877 11.1345 12.838 11.1388 12.8078 11.1215V11.1085L12.8252 11.0912Z" fill="#FFC908"/>
<path d="M12.2163 11.312C12.2292 11.3292 12.2509 11.3335 12.2682 11.3205L12.2941 11.3076H12.3071V11.3163C12.2985 11.3508 12.3157 11.3854 12.346 11.3941H12.3634C12.372 11.4157 12.3849 11.433 12.4022 11.446H12.3936C12.3837 11.4455 12.3741 11.4425 12.3658 11.4373C12.3574 11.4319 12.3506 11.4245 12.346 11.4157C12.346 11.433 12.346 11.4589 12.3634 11.4677C12.3849 11.4849 12.4065 11.4936 12.4324 11.4936C12.4222 11.4979 12.4113 11.5002 12.4001 11.5002C12.389 11.5002 12.3778 11.4979 12.3677 11.4936C12.3774 11.5136 12.3944 11.529 12.4152 11.5368L12.545 11.5541C12.5795 11.5585 12.5795 11.5887 12.6098 11.5801C12.6323 11.572 12.654 11.5617 12.6746 11.5497C12.679 11.5368 12.6833 11.5238 12.6963 11.5109C12.6734 11.5043 12.649 11.5059 12.627 11.5152L12.6011 11.5238V11.4979C12.6011 11.4762 12.6011 11.4546 12.6098 11.433C12.5838 11.433 12.5666 11.4287 12.5406 11.42L12.5146 11.4113C12.493 11.3984 12.4714 11.3897 12.4542 11.3681L12.4498 11.3638L12.4454 11.3551V11.3422L12.4324 11.3249C12.419 11.2995 12.4117 11.2714 12.4109 11.2427L12.4065 11.2081L12.4152 11.1562C12.4155 11.1314 12.4079 11.1072 12.3936 11.087C12.3885 11.0805 12.3819 11.0751 12.3744 11.0714C12.367 11.0677 12.3586 11.0656 12.3503 11.0654H12.3418C12.359 11.0741 12.372 11.0913 12.372 11.1086C12.372 11.1173 12.3677 11.1217 12.3634 11.1217C12.3418 11.1347 12.333 11.1519 12.3374 11.1692L12.346 11.1778L12.3503 11.1994V11.2037C12.3503 11.2125 12.346 11.2168 12.3374 11.2125H12.333L12.3244 11.1994C12.3114 11.1865 12.3157 11.1822 12.2985 11.1562C12.2833 11.1359 12.2621 11.1207 12.2379 11.1129C12.2163 11.1129 12.199 11.1217 12.186 11.1303C12.2033 11.1303 12.2249 11.1347 12.2379 11.1519V11.1649C12.2292 11.1865 12.2379 11.2081 12.2508 11.2168H12.2595C12.2725 11.2211 12.2811 11.2297 12.2854 11.2384C12.2898 11.2384 12.2941 11.2427 12.2898 11.2514L12.2811 11.2557H12.2466C12.221 11.2605 12.1979 11.2743 12.1817 11.2946C12.1762 11.3012 12.1723 11.3088 12.1701 11.317C12.1678 11.3253 12.1674 11.3338 12.1687 11.3422V11.3508C12.1717 11.341 12.1773 11.3322 12.185 11.3253C12.1925 11.3185 12.2019 11.3139 12.212 11.312C12.212 11.3033 12.212 11.3076 12.2163 11.312ZM13.2411 11.3681C13.1762 11.5109 13.2887 11.6578 13.3406 11.7833C13.3708 11.8568 13.3838 11.9346 13.3751 12.0081L13.3708 12.0341C13.3633 12.0561 13.3484 12.0749 13.3288 12.0873C13.3092 12.1 13.2859 12.1055 13.2627 12.1033C13.2584 12.1033 13.2541 12.1033 13.2541 12.0946C13.2541 12.0513 13.2325 12.0167 13.2022 11.9908C13.1286 11.9259 13.1027 11.9173 13.0638 11.8654C13.0502 11.8515 13.0405 11.834 13.0359 11.8149C13.0313 11.796 13.032 11.776 13.0378 11.7573C13.0207 11.7578 13.0039 11.7624 12.9889 11.7706C12.9738 11.7789 12.961 11.7906 12.9514 11.8049L12.9428 11.8179L12.9298 11.8092C12.9138 11.8009 12.9 11.7886 12.8902 11.7735C12.8803 11.7583 12.8746 11.7408 12.8736 11.7227C12.859 11.7199 12.844 11.7212 12.8303 11.7265C12.8165 11.7319 12.8045 11.7411 12.7957 11.753L12.7828 11.766L12.7741 11.753C12.7684 11.7467 12.764 11.7393 12.7612 11.7314H12.7266C12.7134 11.7562 12.6975 11.7795 12.679 11.8006L12.9082 11.9173C12.9817 11.9605 13.0162 12.0557 12.9946 12.1378C12.9903 12.1509 12.9601 12.2633 12.973 12.3237C12.973 12.3584 12.9946 12.393 13.0206 12.4189L13.0162 12.3757C13.0162 12.3671 13.0162 12.3541 13.025 12.3455C13.025 12.3584 13.025 12.3757 13.0378 12.3886C13.0466 12.4017 13.0638 12.4146 13.0811 12.4233C13.0773 12.4091 13.0773 12.3942 13.0811 12.38C13.0834 12.3707 13.0876 12.362 13.0935 12.3545C13.0996 12.3471 13.1072 12.341 13.1158 12.3368C13.1503 12.3237 13.1806 12.2935 13.1892 12.2589C13.1978 12.2892 13.1935 12.3237 13.1762 12.3497C13.1935 12.3671 13.2022 12.393 13.1935 12.4102C13.1918 12.4225 13.1874 12.4344 13.1807 12.4449C13.1739 12.4553 13.165 12.4641 13.1547 12.4708C13.1547 12.4708 13.1286 12.4838 13.0638 12.4579C13.0378 12.4505 13.0098 12.4535 12.986 12.4665C12.9772 12.4705 12.9695 12.4765 12.9634 12.4839C12.9574 12.4915 12.9533 12.5004 12.9514 12.5097C12.958 12.5017 12.9672 12.4961 12.9773 12.4938C12.9875 12.4915 12.9981 12.4925 13.0076 12.4969C13.0119 12.4969 13.0162 12.5011 13.0162 12.5097C13.0162 12.5271 13.0379 12.54 13.0595 12.5357H13.0725C13.0794 12.5309 13.0866 12.5266 13.0942 12.5228C13.1027 12.5228 13.107 12.5313 13.107 12.5357L13.0985 12.5444L13.0638 12.553C13.0418 12.5657 13.025 12.5855 13.0162 12.6093C13.0077 12.6265 13.0119 12.6524 13.0206 12.6654C13.0206 12.6438 13.0293 12.6265 13.0509 12.6179H13.0638C13.0718 12.6229 13.0811 12.6252 13.0905 12.6244C13.0999 12.6237 13.1086 12.6198 13.1158 12.6136L13.1201 12.6005L13.1374 12.5703L13.1503 12.5659L13.1547 12.5789C13.1515 12.5943 13.1457 12.6089 13.1374 12.6221C13.1256 12.6449 13.1212 12.6705 13.1244 12.6957C13.1287 12.7129 13.1417 12.7303 13.1633 12.739C13.1503 12.7217 13.1503 12.7001 13.159 12.6827C13.159 12.6785 13.1676 12.6741 13.1719 12.6785C13.1935 12.6785 13.2152 12.6611 13.2152 12.6438C13.2152 12.6265 13.1978 12.6179 13.2022 12.6093C13.2022 12.6005 13.2066 12.6005 13.2109 12.6005C13.2219 12.6025 13.2333 12.6013 13.2437 12.5973C13.2541 12.5932 13.2631 12.5862 13.2699 12.5773C13.2766 12.5684 13.2807 12.5577 13.2818 12.5465C13.2828 12.5353 13.2807 12.5241 13.2758 12.5141C13.2455 12.4492 13.3622 12.3973 13.3622 12.3541C13.3664 12.3403 13.3652 12.3255 13.3587 12.3125C13.3522 12.2997 13.3411 12.2897 13.3276 12.2849H13.2974C13.2843 12.2849 13.2714 12.2762 13.2671 12.2589C13.2602 12.2291 13.2468 12.2011 13.2282 12.1768L13.2411 12.1595C13.319 12.1681 13.3925 12.1162 13.4141 12.0428C13.4214 12.0248 13.4258 12.0058 13.4271 11.9865C13.4271 11.9043 13.4141 11.8265 13.3838 11.753C13.332 11.6233 13.1978 11.4677 13.3104 11.3335C13.3536 11.2773 13.4184 11.286 13.4444 11.3076C13.466 11.3205 13.4877 11.3508 13.5093 11.42C13.5222 11.4719 13.5611 11.5065 13.613 11.5152C13.5937 11.4981 13.5801 11.4754 13.5742 11.4503L13.5827 11.433L13.6001 11.4373C13.6346 11.4893 13.7038 11.4979 13.7514 11.4633C13.767 11.4526 13.779 11.4376 13.786 11.42C13.7745 11.4276 13.7613 11.4319 13.7477 11.4326C13.7339 11.4334 13.7203 11.4305 13.7082 11.4244C13.665 11.4113 13.665 11.3551 13.6346 11.3205C13.6086 11.2811 13.5708 11.2508 13.5265 11.2341C13.4708 11.2187 13.4114 11.2237 13.359 11.2483C13.3066 11.2729 13.2649 11.3153 13.2411 11.3681Z" fill="#FFC908"/>
<path d="M12.419 11.9572C12.4321 11.9702 12.4493 11.9789 12.4665 11.9789H12.4709C12.4537 11.9659 12.4406 11.953 12.4406 11.9313C12.4406 11.9227 12.445 11.9183 12.4493 11.9183C12.4665 11.9097 12.4753 11.8881 12.4665 11.8664L12.4623 11.8578C12.4581 11.8527 12.4552 11.8468 12.4537 11.8404V11.8319L12.4665 11.8232C12.4969 11.8404 12.5358 11.8275 12.5488 11.8016L12.5532 11.7843C12.5714 11.7759 12.5888 11.7658 12.605 11.754L12.6093 11.7627C12.6093 11.7799 12.592 11.7973 12.5704 11.8059C12.592 11.8059 12.6137 11.8059 12.6266 11.7929C12.6482 11.7799 12.6612 11.7496 12.6612 11.728C12.6699 11.7496 12.6699 11.7713 12.6569 11.7929C12.67 11.7863 12.6813 11.7766 12.6897 11.7645C12.698 11.7523 12.7031 11.7383 12.7045 11.7237C12.7045 11.7151 12.7131 11.7108 12.7174 11.7108L12.7217 11.7151H12.7521C12.7474 11.7008 12.7457 11.6858 12.7473 11.671C12.7488 11.656 12.7533 11.6415 12.7607 11.6286C12.7493 11.6261 12.7374 11.6264 12.7262 11.6294C12.7149 11.6324 12.7045 11.638 12.6958 11.6459L12.6785 11.6588L12.6742 11.6372C12.6656 11.62 12.6612 11.5939 12.6656 11.5767C12.5791 11.6459 12.5704 11.6847 12.4883 11.7108C12.4607 11.7216 12.4312 11.726 12.4018 11.7237H12.3672L12.3239 11.7021C12.2979 11.6947 12.2699 11.6978 12.2461 11.7108C12.2382 11.7155 12.2316 11.7217 12.2263 11.7291C12.2211 11.7367 12.2176 11.7451 12.2158 11.754V11.7583C12.2288 11.7453 12.2461 11.7367 12.2677 11.7411L12.2807 11.754C12.2849 11.7713 12.3066 11.7843 12.3239 11.7799H12.3369L12.3541 11.7755H12.3629C12.3715 11.7755 12.3715 11.7843 12.3672 11.7886V11.7929L12.3066 11.8232C12.283 11.835 12.2645 11.855 12.2547 11.8794C12.2505 11.8924 12.2547 11.914 12.259 11.9269L12.2633 11.9356C12.2633 11.914 12.2721 11.8924 12.2893 11.8837H12.3066C12.3196 11.8924 12.3413 11.8881 12.3541 11.8751C12.3615 11.8627 12.3721 11.8522 12.3845 11.8448L12.3931 11.8404C12.3974 11.8404 12.4018 11.8448 12.4018 11.8535C12.4018 11.8664 12.4018 11.8751 12.3931 11.8881C12.3931 11.914 12.4018 11.9356 12.419 11.9572Z" fill="#FFC908"/>
<path d="M9.83734 14.2047C9.83734 14.6934 10.0795 15.0826 10.5292 15.3421C10.9098 15.5582 11.4287 15.675 11.9995 15.675C13.046 15.675 14.1616 15.2858 14.1616 14.2047V10.4858H9.83734V14.2047ZM10.7022 15.2426C10.6805 15.2339 10.6287 15.2253 10.6114 15.2123C10.5465 15.1777 10.4816 15.1388 10.4298 15.0956V12.9593H10.7022V15.2426ZM10.8621 15.3118V12.9593H11.1346V15.3074C11.0914 15.3161 11.0135 15.3161 10.9703 15.3161L10.8621 15.3118ZM12.0039 15.5237C11.6624 15.5266 11.3226 15.477 10.9963 15.3766C11.1382 15.3707 11.2774 15.3345 11.4041 15.2703C11.5309 15.2062 11.6425 15.1157 11.7314 15.0048C11.8611 14.8534 11.9476 14.6762 11.9952 14.4815C12.0384 14.6804 12.1249 14.862 12.2589 15.0177C12.4492 15.2339 12.726 15.368 13.02 15.3766C12.6914 15.4761 12.3454 15.5237 12.0039 15.5237ZM11.2946 15.2513V12.9593H11.3205C11.3292 13.1496 11.4373 13.3312 11.5671 13.4782V15.1085C11.4936 15.1647 11.3768 15.2123 11.2946 15.2513ZM11.7271 14.914V13.6253C11.8005 13.6598 11.8828 13.6814 11.9649 13.6858V14.2047C11.9649 14.4642 11.8828 14.7064 11.7271 14.914ZM14.006 14.2004C14.006 14.6458 13.7984 14.9874 13.392 15.2166C13.34 15.247 13.2881 15.2729 13.2319 15.2945C13.0631 15.3273 12.8888 15.315 12.7263 15.2587C12.5637 15.2026 12.4189 15.1045 12.3065 14.9745C12.1254 14.7591 12.0273 14.4862 12.0298 14.2047V13.6858C12.1206 13.6772 12.2114 13.6512 12.2892 13.608V13.8458C12.269 13.8518 12.2503 13.8617 12.2339 13.8749C12.2176 13.8881 12.204 13.9045 12.194 13.9229C12.1839 13.9414 12.1776 13.9617 12.1754 13.9826C12.1732 14.0034 12.1752 14.0246 12.1812 14.0447C12.1984 14.0966 12.2373 14.1355 12.2892 14.1486V14.3129C12.2892 14.3907 12.3022 14.4642 12.3281 14.5377C12.3118 14.551 12.2983 14.5676 12.2886 14.5862C12.2788 14.6049 12.2728 14.6254 12.2712 14.6465C12.2696 14.6674 12.2724 14.6886 12.2791 14.7086C12.286 14.7285 12.2968 14.7469 12.3108 14.7626C12.3411 14.7972 12.3844 14.8188 12.432 14.8188C12.4536 14.8188 12.4752 14.8188 12.4924 14.8102C12.5919 14.914 12.7173 14.9831 12.86 15.0134C12.873 15.0999 12.9595 15.1605 13.046 15.1431C13.0785 15.1381 13.1087 15.1227 13.132 15.0994C13.1553 15.0761 13.1706 15.0459 13.1757 15.0134C13.3184 14.9789 13.4438 14.9096 13.5433 14.8058C13.6298 14.8361 13.7206 14.7972 13.7552 14.715C13.7682 14.6848 13.771 14.6511 13.7632 14.6191C13.7555 14.5871 13.7374 14.5586 13.7119 14.5377C13.7335 14.4642 13.7465 14.3863 13.7465 14.3129V14.1486C13.7781 14.1378 13.8054 14.1174 13.8248 14.0902C13.8442 14.063 13.8547 14.0306 13.8547 13.9972C13.8547 13.9639 13.8442 13.9313 13.8248 13.9042C13.8054 13.877 13.7781 13.8566 13.7465 13.8458V13.4005C13.833 13.3746 13.8806 13.2879 13.8589 13.2014C13.8451 13.1611 13.8164 13.1274 13.7786 13.1074C13.7409 13.0874 13.697 13.0823 13.6557 13.0934C13.6304 13.1002 13.6072 13.1133 13.5883 13.1314C13.5694 13.1496 13.5554 13.1722 13.5476 13.1971H13.1757C13.1628 13.1573 13.1347 13.124 13.0975 13.1046C13.0603 13.0851 13.0169 13.0812 12.9768 13.0934C12.951 13.1002 12.9273 13.1133 12.9077 13.1314C12.8881 13.1495 12.8733 13.1721 12.8644 13.1971H12.6265C12.6524 13.1194 12.6698 13.0372 12.674 12.9507H14.0103V14.2047L14.006 14.2004ZM12.5011 14.5161C12.4708 14.5031 12.4405 14.4987 12.4103 14.5031C12.3906 14.443 12.3803 14.3804 12.38 14.3171V14.1529C12.4054 14.145 12.4285 14.131 12.4474 14.1121C12.4663 14.0934 12.4802 14.0702 12.4882 14.0447H12.834L12.8644 14.1096L12.5011 14.5161ZM12.5227 14.6631C12.5227 14.7106 12.4795 14.7496 12.4362 14.7496C12.4245 14.7502 12.4128 14.7484 12.4018 14.7443C12.3908 14.7402 12.3808 14.7339 12.3722 14.7259C12.3637 14.7178 12.357 14.708 12.3524 14.6972C12.3478 14.6864 12.3454 14.6748 12.3454 14.6631C12.3454 14.6156 12.3844 14.5766 12.432 14.5766C12.4838 14.5723 12.5184 14.6156 12.5184 14.6631H12.5227ZM12.5703 14.5766L12.9379 14.1658C12.9466 14.1745 12.9595 14.1745 12.9768 14.1788V14.8361C12.9292 14.8491 12.8903 14.8794 12.873 14.9226C12.7582 14.8937 12.6536 14.8338 12.5703 14.7496C12.5868 14.7238 12.5957 14.6938 12.5957 14.6631C12.5957 14.6325 12.5868 14.6025 12.5703 14.5766ZM12.912 14.0015C12.912 13.941 12.9595 13.8977 13.02 13.8977C13.0805 13.8977 13.1282 13.9453 13.1282 14.0058C13.1282 14.0621 13.0762 14.1096 13.02 14.1096C12.9914 14.1096 12.9638 14.0982 12.9436 14.078C12.9233 14.0578 12.912 14.0302 12.912 14.0015ZM13.0156 14.901C13.0676 14.901 13.1065 14.9399 13.1065 14.9874C13.1065 15.035 13.0633 15.0739 13.02 15.0739C13.0083 15.0745 12.9966 15.0727 12.9856 15.0686C12.9746 15.0645 12.9645 15.0582 12.956 15.0502C12.9476 15.0421 12.9408 15.0323 12.9362 15.0216C12.9316 15.0108 12.9292 14.9992 12.9292 14.9874C12.9292 14.9442 12.9681 14.901 13.0156 14.901ZM13.0633 14.8361V14.1831L13.1021 14.1702L13.4654 14.5766C13.4308 14.6285 13.4352 14.7021 13.474 14.7496C13.3876 14.8361 13.2838 14.8966 13.1714 14.9226C13.1482 14.8806 13.1093 14.8495 13.0633 14.8361ZM13.1714 14.1096C13.1844 14.0923 13.2016 14.0664 13.206 14.0447H13.5476C13.5649 14.0966 13.6038 14.1355 13.6557 14.1529V14.3171C13.6557 14.382 13.647 14.4426 13.6254 14.5031H13.6082C13.5822 14.5031 13.5605 14.5118 13.5389 14.5205L13.1714 14.1096ZM13.6038 14.5723C13.6557 14.5723 13.6946 14.6113 13.6946 14.6588C13.6946 14.6823 13.6852 14.7049 13.6686 14.7214C13.652 14.7381 13.6295 14.7474 13.606 14.7474C13.5824 14.7474 13.56 14.7381 13.5433 14.7214C13.5267 14.7049 13.5173 14.6823 13.5173 14.6588C13.5173 14.6156 13.5605 14.5723 13.6038 14.5723ZM13.6082 14.0015C13.6082 13.9497 13.6513 13.915 13.699 13.915C13.7465 13.915 13.7855 13.9539 13.7855 14.0015C13.7855 14.049 13.7465 14.088 13.699 14.088C13.676 14.088 13.654 14.0789 13.6378 14.0626C13.6216 14.0464 13.6124 14.0244 13.6124 14.0015H13.6082ZM13.6082 13.2491C13.6082 13.2058 13.6513 13.1626 13.699 13.1626C13.7465 13.1626 13.7855 13.2058 13.7855 13.2491C13.7855 13.301 13.7465 13.3356 13.699 13.3356C13.676 13.3356 13.654 13.3265 13.6378 13.3102C13.6216 13.294 13.6124 13.272 13.6124 13.2491H13.6082ZM13.6341 13.3918L13.6557 13.4048V13.8458C13.6303 13.8537 13.6072 13.8678 13.5883 13.8866C13.5696 13.9054 13.5555 13.9285 13.5476 13.9539H13.206C13.2008 13.9338 13.192 13.9147 13.18 13.8977L13.6341 13.3918ZM13.1108 13.8371L13.0676 13.8199V13.4005C13.0923 13.392 13.1144 13.3777 13.1325 13.3589C13.1506 13.3401 13.1639 13.3173 13.1714 13.2923H13.5433C13.5433 13.3053 13.552 13.3182 13.5649 13.3356L13.1108 13.8371ZM13.0156 13.3399C12.9928 13.3399 12.9708 13.3307 12.9545 13.3146C12.9383 13.2983 12.9292 13.2763 12.9292 13.2534C12.9292 13.2014 12.9681 13.1669 13.0156 13.1669C13.0676 13.1669 13.1065 13.2014 13.1065 13.2534C13.1065 13.2966 13.0633 13.3399 13.02 13.3399H13.0156ZM12.9725 13.4048V13.8199C12.9569 13.8246 12.9424 13.8319 12.9292 13.8415L12.527 13.3961L12.5833 13.301H12.8644C12.8773 13.3442 12.9205 13.3874 12.9725 13.4048ZM12.86 13.8977C12.8479 13.9146 12.8391 13.9337 12.834 13.9539H12.4882C12.4806 13.929 12.4673 13.9062 12.4493 13.8874C12.4312 13.8686 12.409 13.8543 12.3844 13.8458V13.5474C12.4146 13.5215 12.4449 13.4956 12.4708 13.461L12.86 13.8977ZM12.4276 14.0015C12.4276 14.049 12.3844 14.088 12.3368 14.088C12.3138 14.088 12.2918 14.0789 12.2756 14.0626C12.2594 14.0464 12.2503 14.0244 12.2503 14.0015C12.2503 13.9497 12.2892 13.915 12.3368 13.915C12.3844 13.915 12.4233 13.9539 12.4233 14.0015H12.4276ZM12.0298 10.6372H14.006V12.8902H12.6698C12.6524 12.501 12.3756 12.1853 12.0298 12.1637V10.6372ZM12.5487 12.9247C12.5487 13.2794 12.3022 13.569 11.9952 13.569C11.6924 13.569 11.4416 13.2794 11.4416 12.9205C11.4416 12.5658 11.6881 12.2761 11.9952 12.2761C12.3022 12.2761 12.5531 12.5658 12.5531 12.9247H12.5487ZM11.9649 10.6372V12.1594C11.8222 12.1679 11.6838 12.2242 11.5844 12.3237H11.4113V11.7182H11.4892V11.4588H11.4157V11.2858H11.4676V11.1346H11.4244V11.195H11.3724V11.1346H11.286V11.195H11.234V11.1346H11.1908V11.2858H11.2428V11.4588H11.0828V11.0826H11.1476V10.901H11.1V10.9615H11.0222V10.901H10.9357V10.9615H10.8492V10.901H10.806V11.0826H10.8708V11.4588H10.7022V11.2858H10.7541V11.1346H10.7108V11.195H10.6632V11.1346H10.5681V11.195H10.5249V11.1346H10.4816V11.2858H10.5292V11.4588H10.46V11.7182H10.5292V12.3237H10.3995V12.648H10.8492V12.4101C10.8492 12.341 10.9055 12.289 10.9703 12.289C11.0396 12.289 11.1304 12.3454 11.1304 12.4101V12.648H11.3682C11.3379 12.7345 11.3205 12.7994 11.3162 12.8858H9.98866V10.6372H11.9649ZM11.234 11.7962V11.969H11.0957V11.7962C11.0957 11.7615 11.1303 11.7313 11.1648 11.7313C11.2038 11.7313 11.234 11.7615 11.234 11.7962ZM10.8536 11.7962V11.969H10.7152V11.7962C10.7152 11.7615 10.7497 11.7313 10.7844 11.7313C10.8233 11.7313 10.8536 11.7615 10.8536 11.7962ZM9.98866 12.955H10.2698V14.901C10.0981 14.7072 10.0002 14.4592 9.993 14.2004V12.955H9.98866ZM9.50004 10.8663C9.50004 10.855 9.49548 10.8439 9.48737 10.8358C9.47926 10.8277 9.46827 10.8231 9.4568 10.8231H8.92922C8.91775 10.8231 8.90676 10.8277 8.89865 10.8358C8.89054 10.8439 8.88598 10.855 8.88598 10.8663C8.88598 10.8794 8.89896 10.8924 8.91193 10.901C8.93787 10.9183 8.95517 10.9486 8.95517 10.9788C8.95517 11.0091 8.93787 11.0437 8.91193 11.061C8.89896 11.0697 8.89031 11.0869 8.89464 11.1042C8.89031 11.1302 8.9076 11.1474 8.93355 11.1474H9.46544C9.47691 11.1474 9.48791 11.1429 9.49602 11.1348C9.50413 11.1266 9.50869 11.1157 9.50869 11.1042C9.50885 11.0953 9.50649 11.0865 9.50192 11.0788C9.49733 11.0713 9.49069 11.065 9.48273 11.061C9.46995 11.0526 9.45961 11.041 9.45278 11.0273C9.44594 11.0137 9.44285 10.9984 9.44382 10.9832C9.44382 10.9529 9.45246 10.9226 9.48273 10.9053C9.48833 10.8996 9.49274 10.8929 9.49571 10.8854C9.49868 10.8779 9.50015 10.8701 9.50004 10.8621V10.8663ZM9.53463 14.6545H8.75625V14.875H9.53463V14.6545ZM9.13247 11.8221C9.21895 11.809 9.31409 11.8005 9.4049 11.8005V11.221H8.97247V11.8566L9.13247 11.8221ZM9.3703 13.2663C9.20598 13.3572 9.11517 13.4393 8.97247 13.4998V14.3129C8.97247 14.421 8.9249 14.4902 8.89464 14.5377C8.89031 14.5507 8.89031 14.5636 8.90329 14.5723H9.42653C9.44382 14.5723 9.45246 14.555 9.4395 14.5377C9.41355 14.4946 9.4049 14.4253 9.4049 14.3129V13.2577L9.3703 13.2663ZM9.4568 12.5312V12.7864C9.52598 12.7431 9.58653 12.6912 9.64706 12.6307L9.67734 12.6004C9.61063 12.5595 9.53488 12.5358 9.4568 12.5312ZM9.79409 15.0566C9.72923 15.0739 9.66436 15.0782 9.5995 15.0697C9.54791 15.0596 9.49728 15.045 9.44815 15.0264C9.28172 14.959 9.09565 14.959 8.92922 15.0264C8.88166 15.048 8.82977 15.061 8.77787 15.0697C8.71733 15.0782 8.65679 15.0739 8.59626 15.061L8.54004 15.0523V15.1302L8.58328 15.1344C8.65431 15.1496 8.72718 15.1539 8.79949 15.1474C8.85139 15.1344 8.90761 15.1215 8.95949 15.0999C9.03213 15.0697 9.11002 15.0541 9.18868 15.0541C9.26735 15.0541 9.34524 15.0697 9.41788 15.0999C9.55045 15.1563 9.69803 15.167 9.83734 15.1302V15.0523L9.79409 15.0566Z" fill="#FFC908"/>
<path d="M9.79409 15.235C9.72923 15.248 9.66436 15.2524 9.5995 15.2436C9.54791 15.2336 9.49728 15.2192 9.44815 15.2004C9.28172 15.1331 9.09565 15.1331 8.92922 15.2004C8.88166 15.2221 8.82977 15.235 8.77787 15.2436C8.71733 15.2524 8.65679 15.248 8.59626 15.235L8.54004 15.2263V15.3042L8.58328 15.3129C8.65453 15.3264 8.72739 15.3293 8.79949 15.3215C8.85139 15.3129 8.90761 15.2956 8.95949 15.2783C9.03213 15.248 9.11002 15.2324 9.18868 15.2324C9.26735 15.2324 9.34524 15.248 9.41788 15.2783C9.47409 15.2956 9.52598 15.3129 9.58653 15.3215C9.67046 15.3322 9.75566 15.3263 9.83734 15.3042V15.2263L9.79409 15.235Z" fill="#FFC908"/>
<path d="M9.79409 15.3995C9.72923 15.4167 9.66436 15.4167 9.5995 15.408C9.54791 15.3979 9.49728 15.3835 9.44815 15.3648C9.28172 15.2976 9.09565 15.2976 8.92922 15.3648C8.88166 15.3864 8.82977 15.4038 8.77787 15.408C8.71733 15.4167 8.65679 15.4167 8.59626 15.4038L8.54004 15.3908V15.4686L8.58328 15.4772C8.65453 15.4908 8.72739 15.4938 8.79949 15.4859C8.85139 15.4772 8.90761 15.46 8.95949 15.4426C9.03213 15.4124 9.11002 15.3969 9.18868 15.3969C9.26735 15.3969 9.34524 15.4124 9.41788 15.4426C9.47409 15.46 9.52598 15.4772 9.58653 15.4859C9.67046 15.4965 9.75566 15.4907 9.83734 15.4686V15.3908L9.79409 15.3995ZM9.4049 12.2945C9.25741 12.296 9.11121 12.3223 8.97247 12.3724V13.0686C9.1022 13.0124 9.21895 12.9389 9.33571 12.8611L9.4049 12.8178V12.2945ZM8.69571 13.4535L8.68274 13.514C9.05914 13.3821 9.41343 13.194 9.73354 12.9561L9.69896 12.6837C9.42066 12.9118 9.1025 13.0863 8.76058 13.1983L8.69571 13.4535ZM8.76058 12.0697L8.74329 12.074L8.77356 12.1562L8.79085 12.1475C8.81247 12.1346 8.81679 12.1129 8.80814 12.0913C8.80443 12.0833 8.79814 12.0769 8.79029 12.0729C8.78244 12.069 8.77349 12.0679 8.7649 12.0697H8.76058Z" fill="#FFC908"/>
<path d="M9.094 11.8879C8.7394 11.9397 8.47562 12.078 8.39346 12.1906C8.38419 12.2003 8.37708 12.2119 8.37261 12.2246C8.36814 12.2372 8.3664 12.2507 8.36751 12.264L8.49724 12.5538L8.51454 12.5236C8.61399 12.3938 8.89075 12.277 9.17616 12.2381C9.41683 12.2067 9.66112 12.2169 9.89832 12.2684V11.9095C9.63277 11.8616 9.36135 11.8558 9.094 11.8922V11.8879ZM8.87778 12.1127C8.86913 12.1386 8.83455 12.1603 8.78265 12.1776L8.82157 12.277L8.7567 12.303L8.66589 12.0738L8.76535 12.0348C8.83455 12.0089 8.86481 12.0348 8.87346 12.0608C8.88211 12.078 8.88211 12.0997 8.87346 12.1127H8.87778ZM8.99021 12.2252L8.93832 11.9916L8.94697 11.9872H8.97292C8.98078 11.9864 8.98826 11.9834 8.99455 11.9787L9.00751 11.9744L9.05075 12.1776C9.08967 12.1732 9.11563 12.1646 9.14156 12.156L9.15454 12.1906L8.99021 12.2252ZM9.40535 11.957C9.37075 12.0262 9.34048 12.0997 9.31887 12.1732V12.1776L9.27562 12.1819L9.14589 11.9528V11.944L9.2194 11.9397L9.27994 12.0564C9.29291 12.0695 9.29724 12.0824 9.30589 12.0997C9.32751 12.0521 9.34914 11.9916 9.36643 11.9267H9.41399L9.40535 11.957ZM9.46156 12.1516C9.46887 12.1379 9.47467 12.1234 9.47887 12.1084H9.49183C9.50049 12.1344 9.51779 12.1516 9.54372 12.1516C9.56535 12.1516 9.58697 12.1472 9.58697 12.1213C9.58697 12.0997 9.56967 12.0911 9.54372 12.078C9.50914 12.0608 9.47022 12.0436 9.47887 11.9916C9.47887 11.957 9.51346 11.9181 9.58264 11.9224C9.60859 11.9224 9.63022 11.9354 9.64751 11.9484H9.65184V11.957C9.64489 11.9664 9.63909 11.9765 9.63454 11.9872H9.62157C9.61871 11.9782 9.61292 11.9703 9.60511 11.9648C9.59727 11.9593 9.58786 11.9566 9.57832 11.957C9.55237 11.9528 9.53507 11.9613 9.53507 11.9787C9.53507 12.0003 9.5567 12.0089 9.57832 12.0219C9.61291 12.0392 9.65616 12.0652 9.65184 12.1084C9.65184 12.1516 9.60859 12.1776 9.54805 12.1776H9.52643C9.50211 12.1753 9.47852 12.168 9.45724 12.156L9.46156 12.1516Z" fill="#FFC908"/>
<path d="M8.84268 12.7702V12.4545C8.79943 12.4545 8.76484 12.4545 8.72592 12.4458C8.6697 12.4718 8.61348 12.515 8.57024 12.567L8.55727 12.5842L8.53564 12.6274C8.54862 12.7097 8.66537 12.7572 8.83835 12.7702H8.84268ZM11.9735 8.16913H12.0254V8.08697H12.0816V8.0394H12.0254V7.97021H11.9735V8.0394H11.9172V8.08697H11.9735V8.17345V8.16913ZM10.1486 9.57886C10.153 9.58318 10.1486 9.58751 10.1443 9.58751C10.1148 9.60574 10.092 9.63305 10.0794 9.66534C10.0751 9.67399 10.0794 9.67832 10.0837 9.68264H10.0924C10.1616 9.65237 10.2438 9.68264 10.274 9.75183C10.2827 9.76481 10.2827 9.77345 10.2827 9.78642L10.2956 9.79507H10.3043C10.3224 9.78263 10.3444 9.7775 10.3661 9.7807C10.3878 9.78393 10.4075 9.79524 10.4211 9.81237C10.43 9.82473 10.4355 9.83925 10.437 9.85445C10.4385 9.86964 10.436 9.88496 10.4297 9.89886V9.91182C10.6157 10.0286 10.7324 10.2232 10.754 10.4351C10.754 10.4437 10.7583 10.4437 10.7671 10.4437C11.4805 10.2318 12.5054 10.2318 13.2231 10.4437C13.2275 10.4437 13.2362 10.4437 13.2405 10.4351C13.2621 10.2189 13.3789 10.0329 13.5605 9.91616V9.89886C13.5432 9.85561 13.5605 9.80372 13.6038 9.78209C13.6177 9.77578 13.6329 9.77325 13.6482 9.77477C13.6633 9.77629 13.6779 9.78181 13.6903 9.79074H13.7075V9.78209C13.7128 9.74606 13.7322 9.7136 13.7614 9.69174C13.7905 9.66988 13.8271 9.66039 13.8632 9.66534L13.8978 9.67832C13.9065 9.67832 13.9108 9.67832 13.9151 9.66966V9.66101C13.9103 9.64425 13.902 9.62865 13.8908 9.61525C13.8797 9.60186 13.8659 9.59093 13.8503 9.58318C13.8459 9.58318 13.8416 9.57453 13.8459 9.57021C13.8849 9.49237 13.9065 9.41021 13.9194 9.3194C13.9714 8.88697 13.5648 8.66643 12.9681 8.75291C12.8383 8.53237 12.4967 8.45453 12.0643 8.54968C12.06 8.50643 12.0643 8.43724 11.9951 8.43724C11.9303 8.43724 11.9259 8.50643 11.9259 8.54968C11.4935 8.45453 11.1563 8.53237 11.0265 8.75291C10.4297 8.6621 10.0232 8.88697 10.0751 9.3194C10.0881 9.41453 10.114 9.50102 10.1486 9.57886ZM10.8923 10.2621C10.8803 10.263 10.8682 10.2601 10.8576 10.2541C10.8471 10.2479 10.8387 10.2388 10.8335 10.2278C10.8282 10.217 10.8263 10.2046 10.8282 10.1926C10.83 10.1806 10.8355 10.1694 10.8437 10.1605C10.852 10.1516 10.8627 10.1454 10.8746 10.1427C10.8864 10.14 10.8988 10.1409 10.9101 10.1453C10.9215 10.1498 10.9312 10.1575 10.9381 10.1675C10.9449 10.1776 10.9486 10.1894 10.9486 10.2015C10.9486 10.2361 10.927 10.2621 10.8923 10.2621ZM11.3984 10.1324L11.2471 10.2318H11.234L11.0654 10.167C11.0611 10.167 11.0567 10.1583 11.0611 10.154L11.0654 10.1453L11.2167 10.0502H11.2253L11.3984 10.1108V10.1324ZM11.6103 10.1886C11.5919 10.1886 11.5743 10.1813 11.5613 10.1683C11.5483 10.1554 11.5411 10.1378 11.5411 10.1194C11.5411 10.0805 11.5713 10.0502 11.6103 10.0502C11.6491 10.0502 11.6794 10.0805 11.6794 10.1194C11.6794 10.154 11.6491 10.1886 11.6103 10.1886ZM12.1724 10.1108C12.1127 10.1382 12.0535 10.1671 11.9951 10.1972L11.8222 10.1108V10.0934L11.8265 10.0891L11.9995 10.0026H12.0081C12.0643 10.0286 12.1205 10.0545 12.1767 10.0891L12.1811 10.0978L12.1724 10.1108ZM12.3887 10.1886C12.3703 10.1886 12.3527 10.1813 12.3397 10.1683C12.3267 10.1554 12.3194 10.1378 12.3194 10.1194C12.3194 10.0805 12.3497 10.0502 12.3887 10.0502C12.4275 10.0502 12.4579 10.0805 12.4579 10.1194C12.4579 10.154 12.4275 10.1886 12.3887 10.1886ZM12.9335 10.167L12.7649 10.2318H12.7519L12.6005 10.1324V10.1151L12.7735 10.0459L12.7821 10.0502L12.9335 10.1453C12.9379 10.1497 12.9422 10.1583 12.9335 10.167ZM13.1064 10.2621C13.0987 10.2622 13.091 10.2605 13.0839 10.2574C13.0767 10.2544 13.0704 10.2498 13.0651 10.2441C13.0598 10.2384 13.0558 10.2317 13.0532 10.2244C13.0507 10.217 13.0496 10.2093 13.0503 10.2015C13.0503 10.167 13.0719 10.1453 13.1064 10.1453C13.1411 10.1453 13.167 10.167 13.167 10.2015C13.167 10.2361 13.1411 10.2621 13.1064 10.2621ZM12.9335 9.49237C12.9335 9.45778 12.9594 9.43183 12.994 9.43183C13.0027 9.43183 13.0071 9.43183 13.0071 9.42318L13.0027 9.41885C12.9897 9.41021 12.9767 9.39723 12.9638 9.39723C12.9422 9.38858 12.9291 9.37129 12.9335 9.354C13.0156 9.18967 13.0719 8.97345 12.9897 8.79183C13.3573 8.75724 13.6297 8.83507 13.7248 9.05561C13.7811 9.17669 13.7811 9.3194 13.7335 9.48805V9.50101L13.768 9.56589V9.57886H13.7638C13.7448 9.58115 13.7269 9.58864 13.7119 9.60048H13.6946C13.6865 9.57148 13.6717 9.5448 13.6513 9.52264C13.6383 9.50966 13.6297 9.52697 13.6211 9.53129C13.5822 9.57453 13.5605 9.6221 13.5605 9.67832L13.5519 9.68697H13.5389C13.5255 9.66963 13.5071 9.65696 13.4861 9.65074C13.4651 9.64453 13.4427 9.6451 13.4222 9.65237L13.4178 9.66101V9.71291C13.4222 9.72156 13.4178 9.72589 13.4135 9.72589H13.4048C13.3869 9.71415 13.3652 9.70986 13.3443 9.71389C13.3233 9.71793 13.3046 9.72998 13.2924 9.74751V9.75616C13.3054 9.78642 13.3357 9.81237 13.3616 9.81669C13.3703 9.81669 13.3745 9.82101 13.3745 9.82967H13.3703L13.3529 9.86426C13.3529 9.86859 13.3529 9.87724 13.3616 9.87724H13.3745C13.3848 9.87107 13.3963 9.86712 13.4083 9.86563C13.4201 9.86414 13.4323 9.86515 13.4438 9.86859C13.4477 9.88193 13.4489 9.89594 13.4473 9.90975C13.4456 9.92357 13.4413 9.93692 13.4344 9.94903C13.4276 9.96113 13.4184 9.97172 13.4073 9.9802C13.3963 9.98866 13.3837 9.99482 13.3703 9.99832C13.3569 10.0022 13.343 10.0034 13.3291 10.0018C13.3153 10.0003 13.3019 9.99589 13.2898 9.98905C13.2776 9.98218 13.2671 9.97296 13.2586 9.96193C13.2501 9.9509 13.2439 9.93827 13.2405 9.9248L13.2362 9.90318C13.2621 9.89022 13.2795 9.85994 13.2621 9.82967C13.2449 9.7994 13.2146 9.78642 13.1843 9.80372C13.1583 9.81669 13.1497 9.84697 13.1584 9.87724C13.0632 9.95507 12.8686 9.92913 12.8945 9.79074C12.8945 9.75616 12.9291 9.72589 12.9724 9.73453H12.9767C13.0113 9.73886 13.033 9.76481 13.0373 9.7994C13.0373 9.80372 13.0373 9.80805 13.0459 9.80805H13.0503C13.0674 9.79225 13.0782 9.77072 13.0805 9.74751L13.0848 9.73453H13.0979C13.1323 9.73886 13.1713 9.72589 13.1929 9.69994L13.1972 9.68697C13.1898 9.67162 13.1787 9.6582 13.1654 9.64771C13.1519 9.63721 13.1362 9.62994 13.1195 9.62643H13.1064V9.60913C13.1107 9.58751 13.1064 9.56589 13.1021 9.54426L13.0891 9.53993L13.0848 9.54426C13.0676 9.58318 13.0243 9.60048 12.9854 9.58318C12.9422 9.55724 12.9248 9.52697 12.9291 9.4967L12.9335 9.49237ZM12.9163 9.59616C12.9335 9.63074 12.9205 9.67832 12.8859 9.69561C12.8687 9.70479 12.8485 9.70676 12.8299 9.70107C12.8113 9.69541 12.7956 9.68255 12.7865 9.66534C12.7802 9.65086 12.7786 9.63485 12.7816 9.61941C12.7847 9.60397 12.7924 9.58983 12.8037 9.57886C12.8106 9.57176 12.8187 9.56619 12.8279 9.56252C12.8371 9.55885 12.8468 9.55716 12.8566 9.55757C12.8664 9.55797 12.8761 9.56047 12.8848 9.56489C12.8936 9.56931 12.9014 9.57554 12.9075 9.58318C12.9075 9.58318 12.9163 9.58751 12.9163 9.59616ZM12.1031 9.12048C12.1162 9.12048 12.1292 9.11183 12.1335 9.09454V9.07724C12.0989 8.99075 12.0816 8.90426 12.0816 8.80913C12.0816 8.73561 12.0816 8.66643 12.0729 8.58859C12.4189 8.51941 12.687 8.55399 12.8081 8.71832C12.9291 8.86534 12.873 9.08588 12.8037 9.25021V9.2675L12.8686 9.31075C12.8859 9.33237 12.8514 9.36696 12.8255 9.37129C12.8081 9.37129 12.7951 9.37129 12.7821 9.37993C12.7735 9.37993 12.7735 9.38858 12.7735 9.39291L12.7821 9.39723C12.8167 9.41453 12.834 9.45777 12.8167 9.4967C12.8083 9.51355 12.7937 9.52654 12.7761 9.53298C12.7583 9.53942 12.7388 9.53881 12.7216 9.53129C12.6957 9.52264 12.6783 9.50102 12.6783 9.47075C12.6783 9.46643 12.6783 9.4621 12.6697 9.4621H12.6611C12.6455 9.47855 12.6363 9.50002 12.6351 9.52264C12.6351 9.52697 12.6351 9.53129 12.6264 9.53561H12.6178C12.6 9.53228 12.5816 9.53329 12.5644 9.53857C12.5471 9.54383 12.5313 9.55321 12.5184 9.56589V9.57886C12.5313 9.60913 12.5615 9.63508 12.5962 9.64372H12.6048V9.66101C12.6048 9.68264 12.6048 9.70426 12.6135 9.72156C12.6135 9.73021 12.6178 9.73021 12.6264 9.73021L12.6308 9.72156C12.6345 9.71282 12.6399 9.70493 12.6468 9.6984C12.6537 9.69186 12.6619 9.68682 12.6708 9.68357C12.6797 9.68033 12.6892 9.67896 12.6987 9.67954C12.7082 9.68012 12.7175 9.68265 12.7259 9.68697C12.7562 9.69993 12.7735 9.73021 12.7691 9.76481C12.7475 9.89886 12.5399 9.87291 12.4707 9.75616C12.5011 9.74318 12.514 9.71291 12.4967 9.68264C12.4838 9.65669 12.4535 9.63939 12.4232 9.65669C12.393 9.67399 12.3799 9.70426 12.3973 9.73453L12.4059 9.74751C12.3065 9.87291 12.0254 9.84264 12.06 9.67832C12.0651 9.65685 12.0783 9.63818 12.0968 9.62612C12.1153 9.61405 12.1377 9.60953 12.1595 9.61345C12.176 9.61635 12.1915 9.62404 12.2037 9.63556C12.216 9.64708 12.2247 9.66194 12.2286 9.67832L12.2373 9.68697L12.2459 9.67832C12.2589 9.65669 12.2675 9.63508 12.2675 9.60913C12.2675 9.59616 12.2675 9.58751 12.2848 9.58751C12.3238 9.58751 12.3627 9.56589 12.3843 9.53129V9.51831C12.3734 9.50174 12.3587 9.48801 12.3413 9.47822C12.324 9.46845 12.3047 9.46293 12.2848 9.4621C12.2632 9.4621 12.2675 9.45345 12.2675 9.44048C12.2686 9.41561 12.2609 9.39117 12.2459 9.37129H12.2286L12.2243 9.37562C12.2113 9.42318 12.1637 9.45345 12.1205 9.44048C12.0772 9.4275 12.047 9.37994 12.06 9.3367C12.0643 9.30642 12.0903 9.28481 12.1205 9.27616C12.1292 9.27616 12.1291 9.2675 12.1291 9.26318L12.1249 9.25453C12.1088 9.24537 12.0911 9.23949 12.0729 9.23723C12.0513 9.23723 12.0297 9.21129 12.0297 9.18534C12.0297 9.15507 12.0556 9.13345 12.0859 9.13345C12.0946 9.12048 12.0989 9.12048 12.1031 9.12048ZM12.0816 9.50966C12.0842 9.53133 12.0784 9.55317 12.0656 9.57081C12.0528 9.58845 12.0338 9.6006 12.0123 9.60481C11.9901 9.60728 11.9678 9.601 11.95 9.58728C11.9323 9.57357 11.9204 9.55349 11.9172 9.53129V9.50535C11.9204 9.48315 11.9323 9.46307 11.95 9.44936C11.9678 9.43564 11.9901 9.42936 12.0123 9.43183C12.0513 9.44481 12.0772 9.47075 12.0816 9.50966ZM11.1907 8.71832C11.3118 8.55833 11.58 8.52373 11.9259 8.58859L11.9172 8.81345C11.913 8.90426 11.8956 8.99507 11.8697 9.07724L11.8654 9.09454C11.8654 9.11183 11.8783 9.12048 11.8956 9.1248C11.9259 9.12048 11.9562 9.13777 11.9605 9.16805V9.17669C11.9605 9.20265 11.9432 9.22859 11.9172 9.23292C11.9005 9.23571 11.8843 9.24157 11.8697 9.25021C11.861 9.25021 11.861 9.25885 11.8654 9.2675L11.8697 9.27183C11.9173 9.28481 11.9476 9.33237 11.9346 9.37562C11.9215 9.41885 11.874 9.44913 11.8307 9.43616C11.8005 9.43183 11.7789 9.40589 11.7702 9.37562C11.7702 9.36696 11.7616 9.36696 11.7573 9.36696L11.7486 9.37129C11.7354 9.39202 11.7279 9.41591 11.727 9.44048C11.727 9.45345 11.7314 9.4621 11.714 9.4621C11.6708 9.4621 11.6319 9.48373 11.6103 9.51831V9.53129C11.6319 9.56589 11.6708 9.58751 11.714 9.58751C11.7314 9.58751 11.727 9.59616 11.727 9.60913C11.727 9.63508 11.7356 9.66101 11.7486 9.67832C11.753 9.68697 11.7616 9.68697 11.7659 9.68264L11.7702 9.67832C11.7728 9.66724 11.7775 9.65678 11.7841 9.64752C11.7907 9.63826 11.7991 9.63039 11.8087 9.62437C11.8183 9.61834 11.8291 9.61428 11.8403 9.61241C11.8515 9.61053 11.8629 9.61089 11.874 9.61345C11.8899 9.61709 11.9043 9.6251 11.9158 9.63657C11.9272 9.64805 11.9353 9.66251 11.9389 9.67832C11.9691 9.84264 11.6837 9.87291 11.5886 9.74751C11.5943 9.74225 11.5987 9.73589 11.6018 9.72882C11.6048 9.72175 11.6064 9.71413 11.6064 9.70642C11.6064 9.69873 11.6048 9.69109 11.6018 9.68403C11.5987 9.67697 11.5943 9.6706 11.5886 9.66534C11.5833 9.65972 11.577 9.65522 11.5699 9.65216C11.5628 9.64909 11.5553 9.6475 11.5475 9.6475C11.5399 9.6475 11.5322 9.64909 11.5251 9.65216C11.518 9.65522 11.5117 9.65972 11.5064 9.66534C11.5001 9.67062 11.495 9.67723 11.4915 9.68471C11.488 9.69217 11.4862 9.70033 11.4862 9.70859C11.4862 9.71685 11.488 9.725 11.4915 9.73248C11.495 9.73994 11.5001 9.74655 11.5064 9.75183L11.5238 9.75616C11.4589 9.87724 11.2471 9.90318 11.2253 9.76481C11.2235 9.7557 11.2235 9.74632 11.2253 9.73721C11.2271 9.7281 11.2308 9.71945 11.236 9.71179C11.2413 9.70412 11.248 9.69759 11.2558 9.69258C11.2637 9.68758 11.2724 9.68419 11.2816 9.68264H11.2859C11.3162 9.67832 11.3507 9.69561 11.3638 9.72589H11.3811C11.3923 9.70623 11.3955 9.68294 11.3897 9.66101V9.64372H11.4027C11.4199 9.64009 11.4361 9.63228 11.4496 9.62097C11.4633 9.60967 11.4739 9.59521 11.4805 9.57886V9.56589C11.4678 9.55289 11.4521 9.54329 11.4347 9.53801C11.4172 9.53272 11.3988 9.53189 11.3811 9.53561H11.3723C11.3638 9.53561 11.3681 9.52697 11.3638 9.52264C11.3638 9.50101 11.3507 9.4794 11.3379 9.46643H11.3248L11.3205 9.47075C11.3205 9.514 11.2815 9.53993 11.2427 9.53993C11.1994 9.53993 11.1735 9.50101 11.1735 9.4621C11.1735 9.43183 11.1951 9.41021 11.2167 9.39723C11.2253 9.39723 11.2253 9.39291 11.2253 9.38858L11.2167 9.37993C11.2031 9.37385 11.1884 9.37089 11.1735 9.37129C11.1475 9.37129 11.1129 9.32805 11.1303 9.31075L11.1951 9.2675V9.25021C11.1259 9.08588 11.0696 8.86534 11.1907 8.71832ZM11.0827 9.59616C11.0919 9.57895 11.1075 9.5661 11.1262 9.56042C11.1448 9.55475 11.1649 9.55672 11.1822 9.56589L11.1994 9.57453C11.2297 9.60048 11.2297 9.64373 11.2038 9.67832C11.1778 9.70859 11.1345 9.70859 11.1043 9.68264C11.0698 9.66101 11.0654 9.6221 11.0827 9.59616ZM10.2308 9.55724L10.2654 9.49237V9.4794C10.2222 9.31508 10.2222 9.16805 10.2697 9.04697C10.3692 8.83076 10.6416 8.75291 11.0091 8.78751C10.9227 8.9648 10.9831 9.18535 11.0654 9.34967C11.0698 9.36697 11.0567 9.38426 11.0351 9.39291C11.0211 9.39604 11.0079 9.40193 10.9962 9.41021V9.42318L11.0049 9.4275C11.0437 9.4275 11.0698 9.46643 11.0698 9.50535C11.0654 9.54858 11.0308 9.57453 10.9919 9.57021C10.9783 9.56933 10.965 9.56489 10.9536 9.55729C10.9422 9.5497 10.9331 9.53924 10.927 9.52697L10.914 9.52264L10.9097 9.52697C10.901 9.54596 10.8995 9.56747 10.9054 9.58751V9.60481H10.8923C10.8748 9.60765 10.8583 9.61517 10.8447 9.62658C10.8309 9.63799 10.8205 9.65287 10.8146 9.66966V9.68264C10.8405 9.70859 10.8751 9.72156 10.914 9.71291H10.927L10.9313 9.73021C10.9313 9.75183 10.9443 9.77345 10.9616 9.78642H10.9703L10.9746 9.77778C10.9746 9.73886 11.0135 9.70859 11.0524 9.71291C11.087 9.71291 11.1173 9.74318 11.1173 9.77345C11.1432 9.91182 10.9443 9.93777 10.8535 9.85994L10.8579 9.83832C10.8579 9.82412 10.8525 9.81045 10.8429 9.80001C10.8332 9.78959 10.82 9.7832 10.8059 9.78209C10.7925 9.78095 10.7791 9.78464 10.7683 9.79251C10.7572 9.80038 10.7496 9.8119 10.7465 9.82499C10.7432 9.83808 10.745 9.85186 10.7511 9.86383C10.7572 9.87579 10.7675 9.88516 10.7799 9.89021C10.779 9.90425 10.775 9.91795 10.7684 9.93044C10.762 9.94293 10.7529 9.95397 10.742 9.96287C10.7311 9.97177 10.7185 9.97835 10.7049 9.98222C10.6914 9.98608 10.6771 9.98715 10.6632 9.98534C10.6492 9.98428 10.6355 9.98037 10.623 9.97386C10.6104 9.96733 10.5995 9.95833 10.5906 9.94741C10.5817 9.93649 10.5751 9.92386 10.5712 9.91031C10.5674 9.89676 10.5663 9.88257 10.5681 9.86859V9.85129C10.5799 9.84655 10.5926 9.84449 10.6053 9.84524C10.618 9.84599 10.6304 9.84953 10.6416 9.85561H10.6589V9.84264L10.6416 9.81237V9.7994L10.6502 9.79507C10.6658 9.7913 10.6802 9.78381 10.6923 9.77328C10.7043 9.76273 10.7135 9.74945 10.7195 9.73453V9.72589C10.7065 9.7092 10.688 9.69778 10.6672 9.69381C10.6466 9.68982 10.6252 9.69355 10.607 9.70426H10.594V9.63941L10.5897 9.63074C10.5465 9.61345 10.4988 9.63074 10.4686 9.66534H10.4557V9.65669C10.4515 9.60298 10.4285 9.55245 10.3908 9.514C10.3821 9.50966 10.3692 9.49237 10.3605 9.50535C10.3427 9.52769 10.3281 9.55244 10.3172 9.57886C10.313 9.58751 10.3043 9.58751 10.3 9.58318C10.2835 9.57399 10.2662 9.56673 10.2481 9.56156C10.2308 9.57453 10.2264 9.56589 10.2308 9.56156V9.55724ZM11.9735 8.19508C11.9303 8.1994 11.8956 8.23832 11.8871 8.28156H11.9735V8.19508ZM12.0254 8.19508V8.28156H12.1119C12.1078 8.2601 12.0975 8.24035 12.082 8.22492C12.0666 8.20948 12.0469 8.19908 12.0254 8.19508ZM11.9995 8.41129C12.0513 8.41129 12.0989 8.3767 12.1075 8.32481H11.8913C11.8999 8.3767 11.9475 8.41129 11.9995 8.41129ZM15.1561 10.8674C15.1561 10.8618 15.155 10.8562 15.1529 10.8509C15.1507 10.8457 15.1475 10.8409 15.1435 10.8369C15.1395 10.833 15.1347 10.8297 15.1295 10.8276C15.1243 10.8254 15.1186 10.8242 15.113 10.8242H14.5853C14.5739 10.8242 14.5629 10.8288 14.5547 10.8369C14.5467 10.845 14.5422 10.8561 14.5422 10.8674C14.5422 10.8805 14.5507 10.8978 14.5681 10.9021C14.594 10.9238 14.6113 10.9497 14.6071 10.9799C14.6079 10.9952 14.6049 11.0104 14.598 11.0242C14.5912 11.0378 14.5809 11.0494 14.5681 11.0578C14.5601 11.0618 14.5535 11.0681 14.5489 11.0757C14.5443 11.0833 14.5419 11.0921 14.5422 11.101C14.5422 11.127 14.5594 11.1486 14.5853 11.1486H15.1173C15.1287 11.1486 15.1397 11.144 15.1479 11.1359C15.1559 11.1278 15.1605 11.1168 15.1605 11.1054C15.1599 11.0966 15.1571 11.0882 15.1527 11.0806C15.1482 11.0731 15.1419 11.0668 15.1345 11.0621C15.1203 11.053 15.1091 11.04 15.1022 11.0246C15.0953 11.0093 15.093 10.9922 15.0956 10.9756C15.0951 10.96 15.0988 10.9444 15.1065 10.9307C15.114 10.917 15.1252 10.9056 15.1389 10.8978C15.1475 10.8978 15.1561 10.8805 15.1561 10.8674ZM15.2254 14.6556H14.4513V14.8762H15.2254V14.6556ZM14.8708 11.8275L15.0265 11.8578V11.2221H14.594V11.8016C14.6891 11.8016 14.7799 11.8102 14.8708 11.8232V11.8275ZM14.6286 13.2674L14.594 13.2588V14.314C14.594 14.4221 14.5897 14.4913 14.5637 14.5345C14.5508 14.5518 14.5594 14.5778 14.5724 14.5778H15.0611C15.074 14.5778 15.0827 14.5604 15.0827 14.5475V14.5345C15.0439 14.4661 15.0243 14.3882 15.0265 14.3097V13.4924C14.8795 13.4404 14.7887 13.3626 14.6286 13.2674ZM14.5422 12.5366C14.4557 12.541 14.3605 12.5713 14.3259 12.6015L14.3519 12.6362C14.4102 12.6939 14.4739 12.746 14.5422 12.7918V12.5323V12.5366ZM15.221 15.0708C15.1695 15.0607 15.1188 15.0462 15.0696 15.0275C14.9832 14.9929 14.8967 14.98 14.8103 14.9756C14.7238 14.9756 14.6373 14.9929 14.5508 15.0275L14.3994 15.0708C14.3389 15.075 14.2697 15.0708 14.2135 15.0578L14.1615 15.0534V15.1313C14.2429 15.1554 14.3285 15.1612 14.4124 15.1486C14.4729 15.1355 14.5248 15.1226 14.5811 15.101C14.6536 15.0708 14.7315 15.0552 14.8103 15.0552C14.889 15.0552 14.9668 15.0708 15.0394 15.101C15.0914 15.1183 15.1475 15.1355 15.2038 15.1442C15.2757 15.1558 15.3491 15.1529 15.42 15.1355L15.4589 15.1313V15.0534C15.4372 15.0534 15.42 15.0534 15.4027 15.0621C15.3464 15.075 15.2815 15.0794 15.221 15.0708Z" fill="#FFC908"/>
<path d="M15.2211 15.2436C15.1695 15.2339 15.1188 15.2195 15.0698 15.2003C14.9833 15.17 14.8968 15.1528 14.8103 15.1484C14.7239 15.1484 14.6374 15.17 14.5509 15.2003C14.5033 15.2176 14.4515 15.2349 14.3996 15.2436C14.3391 15.248 14.2699 15.2436 14.2136 15.2349L14.1616 15.2263V15.3041C14.243 15.3281 14.3287 15.3341 14.4125 15.3214C14.4731 15.3128 14.5249 15.2955 14.5812 15.2782C14.6503 15.248 14.7282 15.2263 14.806 15.2263C14.8882 15.2263 14.9617 15.2436 15.0395 15.2739C15.0915 15.2912 15.1477 15.3084 15.2039 15.3171C15.2755 15.3302 15.3491 15.3287 15.4201 15.3128L15.4591 15.3041V15.2263L15.4027 15.2349C15.3438 15.252 15.2819 15.2565 15.2211 15.248V15.2436Z" fill="#FFC908"/>
<path d="M15.2211 15.4119C15.1695 15.4023 15.1188 15.3878 15.0698 15.3687C14.9833 15.3341 14.8968 15.3167 14.8103 15.3125C14.7239 15.3125 14.6374 15.3341 14.5509 15.3643C14.5033 15.3816 14.4515 15.399 14.3996 15.4075C14.3391 15.4162 14.2699 15.4075 14.2136 15.399L14.1616 15.3903V15.4681C14.243 15.4922 14.3287 15.498 14.4125 15.4855C14.4731 15.4767 14.5249 15.4595 14.5812 15.4421C14.6503 15.4119 14.7282 15.3903 14.806 15.3903C14.8882 15.3903 14.9617 15.4075 15.0395 15.4378C15.0915 15.4595 15.1477 15.4724 15.2039 15.4855C15.2758 15.4971 15.3493 15.4941 15.4201 15.4767L15.4591 15.4681V15.3903C15.4374 15.3903 15.4201 15.3946 15.4027 15.4033C15.3465 15.4162 15.2816 15.4162 15.2211 15.4119ZM15.0266 13.0725V12.3763C14.9477 12.3438 14.8647 12.322 14.7801 12.3114C14.7183 12.3036 14.6563 12.2993 14.5941 12.2983V12.8173L14.6633 12.8691C14.7801 12.9427 14.9011 13.0119 15.0266 13.0725Z" fill="#FFC908"/>
<path d="M14.2704 12.951C14.3094 13.0245 14.9191 13.379 15.3212 13.5088C15.3169 13.4916 15.3084 13.4699 15.3084 13.4483L15.2478 13.1932C14.9052 13.0827 14.5867 12.9081 14.3094 12.6786L14.2661 12.9553L14.2704 12.951ZM15.0921 12.0602V12.0429C15.0921 12.0213 15.0704 12.0169 15.0488 12.0127L15.0272 12.0905C15.0401 12.0991 15.0575 12.0991 15.0704 12.0905C15.0805 12.0827 15.088 12.0722 15.0921 12.0602Z" fill="#FFC908"/>
<path d="M15.606 12.1903C15.5237 12.0777 15.26 11.9437 14.9054 11.8919C14.6379 11.8568 14.3664 11.8642 14.1011 11.9135V12.2767C14.2048 12.2421 14.3606 12.2291 14.5422 12.2291C14.6373 12.2291 14.7281 12.2334 14.8232 12.2464C15.1087 12.2767 15.3854 12.4021 15.4849 12.5318L15.5021 12.5578L15.6319 12.268C15.6319 12.2378 15.6232 12.2118 15.606 12.1903ZM14.4514 11.9524C14.4255 12.0215 14.3994 12.0994 14.3822 12.1772H14.3735L14.339 12.1859H14.3346C14.2913 12.1167 14.2482 12.0475 14.1876 11.9653V11.9567L14.2611 11.9481H14.2654C14.2827 11.9912 14.3086 12.0259 14.3303 12.0605L14.3606 12.1038L14.4081 11.9307H14.4124L14.4514 11.9221L14.4557 11.9178L14.4514 11.9524ZM14.6892 12.1685V12.1729H14.5206L14.5292 11.9263H14.594L14.5897 12.1426C14.6244 12.1426 14.6503 12.1426 14.6762 12.134H14.6848V12.1426L14.6892 12.1685ZM14.9141 11.9869L14.8449 11.974L14.8232 12.1859C14.8019 12.1814 14.7802 12.1784 14.7584 12.1772L14.7756 11.9653H14.6979L14.7022 11.9567V11.9221L14.9314 11.9437V11.9524L14.927 11.9783V11.9869H14.9141ZM15.1389 12.2551L15.0697 12.2378L15.0265 12.1297C15.0265 12.1297 15.0265 12.121 15.0178 12.1167L14.9963 12.2205H14.9919L14.9314 12.2031L14.9876 11.9653L15.0871 11.9869C15.1087 11.9869 15.126 11.9999 15.1432 12.0086C15.1648 12.0215 15.1736 12.0432 15.1692 12.0691C15.1644 12.0847 15.1547 12.0982 15.1413 12.1076C15.128 12.117 15.112 12.1217 15.0956 12.121L15.1302 12.1988L15.1389 12.2248L15.152 12.2594H15.1389V12.2551ZM15.407 12.3891H15.4027C15.3832 12.3764 15.363 12.3648 15.3421 12.3545H15.3379V12.3502L15.3421 12.2767L15.2644 12.2378L15.1995 12.2896L15.1648 12.268H15.1562L15.3854 12.0994V12.1038L15.3984 12.1123L15.4157 12.121L15.407 12.3891Z" fill="#FFC908"/>
<path d="M15.4284 12.5662C15.3851 12.5186 15.3289 12.4754 15.2684 12.4451L15.156 12.4582V12.7738C15.3333 12.7609 15.4457 12.7132 15.4587 12.6354V12.6311L15.4369 12.5879C15.4369 12.5792 15.4369 12.5749 15.4284 12.5662ZM14.7969 10.4257V10.0798C14.7902 10.076 14.7829 10.0731 14.7753 10.0711H14.7494C14.7316 10.0708 14.7141 10.0755 14.6988 10.0846C14.6834 10.0938 14.671 10.1071 14.6629 10.123V10.136L14.7797 10.4257H14.7969ZM14.4424 10.2181L14.4511 10.2268L14.6153 10.4862L14.6586 10.4646L14.5505 10.1835L14.5462 10.1749H14.5203C14.505 10.1764 14.4902 10.181 14.4769 10.1885C14.4635 10.1959 14.4518 10.206 14.4424 10.2181ZM15.117 10.4819L15.2813 10.2268L15.2857 10.2181C15.2769 10.2053 15.2653 10.1948 15.2518 10.1873C15.2383 10.1798 15.2233 10.1755 15.2078 10.1749H15.1862L15.1819 10.1835L15.0694 10.4603L15.117 10.4819ZM14.8402 9.86353C14.847 9.86043 14.8544 9.85882 14.8618 9.85882C14.8693 9.85882 14.8767 9.86043 14.8835 9.86353V9.78137H14.9441V9.73813H14.8835V9.66895H14.8402V9.73813H14.7841V9.78137H14.8402V9.86353Z" fill="#FFC908"/>
<path d="M14.551 10.5379L14.5726 10.5207L14.5854 10.5119L14.4169 10.2482V10.2439L14.4125 10.2395C14.3779 10.179 14.3779 10.1185 14.4125 10.0795C14.423 10.0672 14.4364 10.0575 14.4514 10.0515C14.4665 10.0455 14.4829 10.0432 14.499 10.0449L14.5336 10.0493V10.006C14.525 9.99737 14.512 9.99737 14.499 9.99737C14.4558 9.99737 14.4125 10.019 14.3779 10.0536C14.3304 10.1098 14.3304 10.2006 14.3779 10.2785L14.551 10.5379ZM14.5638 10.0666V10.0795C14.5638 10.1098 14.5726 10.1444 14.5854 10.1704L14.698 10.4558L14.7411 10.4427C14.7066 10.3606 14.6547 10.2439 14.6287 10.1574L14.6244 10.1531C14.613 10.1254 14.6058 10.0963 14.6028 10.0666V10.0104L14.6071 10.006C14.6113 9.98462 14.6235 9.96559 14.6412 9.95277C14.6587 9.93993 14.6806 9.93424 14.7023 9.93684C14.7411 9.93684 14.7758 9.95413 14.806 9.97575V9.91521C14.7746 9.89704 14.7386 9.88805 14.7023 9.88927C14.6714 9.88863 14.6412 9.8977 14.6158 9.91521C14.5942 9.9325 14.5726 9.95845 14.5638 9.98873V10.006C14.5595 10.0233 14.5552 10.0493 14.5595 10.0666H14.5638ZM15.2342 10.0449C15.2688 10.0406 15.299 10.0536 15.3206 10.0752C15.3552 10.1185 15.3552 10.179 15.3206 10.2395L15.3163 10.2439L15.152 10.5033L15.1606 10.5119L15.1909 10.5335L15.3552 10.2741C15.4071 10.192 15.4071 10.1012 15.3552 10.0449C15.3402 10.0289 15.3222 10.0161 15.3021 10.0072C15.2821 9.99827 15.2604 9.99347 15.2385 9.99305H15.1995V10.0449H15.2342ZM15.0698 10.1314C15.0632 10.1134 15.0515 10.0977 15.0362 10.0862C15.0209 10.0747 15.0025 10.0679 14.9833 10.0666L14.953 10.0709L14.9314 10.0795V10.4255H14.953L15.0655 10.1401V10.1314H15.0698Z" fill="#FFC908"/>
<path d="M14.923 9.96823C14.9539 9.94763 14.9897 9.93568 15.0269 9.93363C15.0701 9.92931 15.109 9.95958 15.1177 9.9985L15.122 10.0072V10.0547C15.122 10.085 15.1177 10.1153 15.1047 10.1412L15.096 10.1542C15.0605 10.2472 15.0229 10.3394 14.9836 10.4309L15.0312 10.4439L15.1436 10.1628V10.1585C15.1556 10.1296 15.1629 10.0989 15.1652 10.0677V9.97688L15.1609 9.97256C15.1516 9.9433 15.1331 9.91782 15.1082 9.8999C15.0833 9.88198 15.0532 9.87259 15.0225 9.8731C14.9862 9.87188 14.9502 9.88087 14.9187 9.89905V9.9639H14.923V9.96823ZM14.8928 9.9077C14.8841 9.89472 14.8625 9.8904 14.8496 9.89472C14.8454 9.89806 14.8425 9.90258 14.8409 9.9077V10.4309H14.8928V9.9077ZM15.1349 10.5433L15.1262 10.539H15.1177L15.1133 10.5347V10.5304L15.0398 10.5002L15.0356 10.4958H15.0269C15.0086 10.4886 14.9898 10.4828 14.9707 10.4784L14.9577 10.4741C14.9446 10.4741 14.9317 10.4741 14.9145 10.4656H14.8106L14.7761 10.4741H14.7588C14.7396 10.4784 14.7207 10.4842 14.7025 10.4915L14.6896 10.5002L14.6204 10.5304L14.6031 10.5433L14.5901 10.5477C14.5857 10.5564 14.5685 10.5607 14.5641 10.5649L14.6506 10.6947H14.6593C14.673 10.6864 14.6876 10.6791 14.7025 10.6731H14.7155C14.763 10.6516 14.8149 10.6385 14.8712 10.6385C14.9187 10.6385 14.9707 10.6472 15.0138 10.6688H15.0269L15.0701 10.6904H15.0831L15.1696 10.5607C15.1565 10.5607 15.1393 10.552 15.1306 10.5433H15.1349ZM9.27551 10.418H9.28849L9.33172 10.2925C9.36632 10.2017 9.41821 10.1109 9.4874 10.0418H9.49605C9.49662 10.0236 9.49361 10.0055 9.48719 9.98846C9.48076 9.97144 9.47105 9.95586 9.4586 9.94262C9.44614 9.92935 9.43121 9.91869 9.41463 9.91122C9.39805 9.90374 9.38017 9.8996 9.36199 9.89905C9.32988 9.89947 9.29906 9.9118 9.27551 9.93363V10.418ZM9.33605 10.4309L9.39226 10.4482C9.40957 10.3877 9.42686 10.353 9.43551 10.3315C9.46145 10.232 9.51767 10.1455 9.58686 10.072H9.54361L9.52199 10.0763C9.45713 10.1455 9.40957 10.2234 9.37929 10.3099C9.36729 10.351 9.35285 10.3915 9.33605 10.4309ZM9.43984 10.4656C9.47442 10.4784 9.50469 10.5002 9.53497 10.5218C9.58686 10.4353 9.64307 10.3488 9.68632 10.2622V10.2537C9.69765 10.2255 9.69911 10.1944 9.69048 10.1653C9.68184 10.1363 9.66361 10.111 9.63875 10.0936L9.63442 10.098C9.54794 10.1672 9.50469 10.2709 9.47875 10.3445C9.47011 10.3747 9.45281 10.4309 9.43551 10.4656H9.43984ZM9.05929 10.2925L9.10253 10.4136H9.11551V9.93363C9.10202 9.9225 9.08643 9.91421 9.06966 9.90926C9.05289 9.9043 9.03529 9.90279 9.01793 9.90482C9.00056 9.90683 8.98377 9.91234 8.96859 9.92101C8.95341 9.92968 8.94013 9.94134 8.92956 9.95526C8.90995 9.97982 8.89927 10.0103 8.89929 10.0418H8.90362C8.97713 10.1109 9.03335 10.2017 9.06361 10.2925H9.05929ZM8.71335 10.258C8.75659 10.3488 8.80848 10.4353 8.8647 10.5174L8.9555 10.4656L8.91227 10.3445C8.88677 10.2503 8.8359 10.1651 8.76524 10.098L8.75659 10.0936C8.73249 10.1116 8.71512 10.1371 8.70728 10.1662C8.69944 10.1952 8.70157 10.226 8.71335 10.2537V10.258ZM9.17173 9.84715C9.18836 9.84042 9.20697 9.84042 9.22361 9.84715V9.78661H9.28416V9.73472H9.22361V9.66553H9.17173V9.73472H9.11118V9.78661H9.17173V9.84715ZM9.22794 9.91202C9.22794 9.90399 9.22476 9.89629 9.21908 9.89061C9.2134 9.88494 9.20569 9.88175 9.19768 9.88175C9.17605 9.88175 9.16741 9.89472 9.16741 9.91202V10.4136H9.22361V9.91202H9.22794ZM8.882 10.5649L8.96848 10.6947C8.96848 10.7034 8.97713 10.7034 8.98578 10.7034H8.99443C9.05929 10.6688 9.13281 10.6472 9.20199 10.6472C9.27551 10.6472 9.34469 10.6688 9.40957 10.6991C9.42253 10.7034 9.43118 10.7034 9.43551 10.6947L9.51767 10.5564C9.42519 10.4884 9.31309 10.4527 9.19838 10.4541C9.08368 10.4558 8.97261 10.4946 8.882 10.5649ZM8.96416 10.3271L9.0074 10.4439L9.05497 10.4309L9.01605 10.3099C8.98563 10.2228 8.93697 10.1431 8.87335 10.0763L8.85173 10.072H8.80848C8.882 10.1455 8.93389 10.232 8.96416 10.3271Z" fill="#FFC908"/>
</svg>
