<svg width="24" height="24" viewBox="0 0 24 24" fill="none" xmlns="http://www.w3.org/2000/svg">
<path d="M6.10021 18.3493L15.2101 5.67436C15.6401 4.91436 17.2902 5.09936 17.9801 5.36936L9.04521 17.7943C8.6802 18.3694 6.87521 18.4094 6.09521 18.3444L6.10021 18.3493Z" fill="#1B1230" fill-opacity="0.45"/>
<path d="M12.9653 10.75C13.4604 10.765 13.8853 11.485 13.8853 11.9999C13.8853 12.515 13.4604 13.235 12.9653 13.2499H10.5204C8.17037 13.2199 6.00537 10.89 6.00537 8.49498C6.00537 6.09499 8.17037 4.02999 10.5204 4H16.8253C17.3204 4.01499 18.0003 4.43 18.0003 5.22499C18.0003 6.01499 17.5853 6.47498 16.8253 6.49998H10.5204C9.99092 6.5063 9.4845 6.71775 9.10775 7.08984C8.731 7.46191 8.51327 7.96562 8.50037 8.49498C8.50037 9.84502 9.19036 10.75 10.5204 10.75H12.9704H12.9653Z" fill="#1B1230"/>
<path d="M11.0349 13.2499C10.5399 13.235 10.115 12.515 10.115 12C10.115 11.485 10.5399 10.765 11.0349 10.75H13.4799C15.8299 10.78 17.9999 13.1099 17.9999 15.505C17.9999 17.9049 15.8299 19.9699 13.4799 20H7.17494C6.43994 19.9799 6.01994 19.5999 5.99995 18.795C5.9914 18.4694 6.1088 18.153 6.32766 17.9118C6.54654 17.6706 6.85004 17.523 7.17494 17.5H13.4799C14.5299 17.5 15.4999 16.7 15.4999 15.505C15.4999 14.155 14.8098 13.2499 13.4799 13.2499H11.0349Z" fill="#1B1230"/>
</svg>
