<svg width="25" height="24" viewBox="0 0 25 24" fill="none" xmlns="http://www.w3.org/2000/svg">
<path fill-rule="evenodd" clip-rule="evenodd" d="M19.8933 12.0034C19.894 13.3839 19.5084 14.737 18.78 15.9097C18.0516 17.0823 17.0096 18.0277 15.7717 18.6389C14.534 19.25 13.1498 19.5026 11.7759 19.3681C10.402 19.2334 9.09323 18.7172 7.99757 17.8773C8.05416 17.6863 8.05825 17.4835 8.00943 17.2904C7.96061 17.0971 7.86068 16.9206 7.72011 16.7794C7.57955 16.6382 7.40355 16.5374 7.21061 16.4877C7.01766 16.4379 6.81487 16.4411 6.62356 16.4969C5.53673 15.0731 5.00348 13.3032 5.12285 11.516C5.24223 9.72883 6.00611 8.04562 7.27264 6.77902C8.53918 5.51242 10.2223 4.74848 12.0095 4.62902C13.7968 4.50956 15.5665 5.04271 16.9904 6.12948C16.9331 6.32128 16.9286 6.52504 16.9777 6.71913C17.0267 6.91324 17.1273 7.09046 17.2689 7.23202C17.4104 7.37358 17.5876 7.4742 17.7817 7.52322C17.9759 7.57225 18.1796 7.56785 18.3714 7.51048C19.3605 8.79942 19.8956 10.3788 19.8933 12.0034ZM17.3232 5.60566C17.426 5.50048 17.5487 5.41673 17.6841 5.35927C17.8194 5.30182 17.9648 5.27179 18.1119 5.27093C18.259 5.27009 18.4048 5.29843 18.5408 5.35431C18.6768 5.4102 18.8004 5.49252 18.9044 5.59651C19.0084 5.70049 19.0908 5.82408 19.1466 5.96011C19.2024 6.09614 19.2308 6.2419 19.23 6.38897C19.2291 6.53604 19.1991 6.68145 19.1416 6.81683C19.0842 6.9522 19.0004 7.07483 18.8952 7.17761C20.0535 8.72053 20.6161 10.6295 20.4797 12.5541C20.3434 14.4786 19.5172 16.2891 18.1529 17.6534C16.7888 19.0176 14.978 19.8437 13.0536 19.98C11.1291 20.1162 9.22006 19.5535 7.67719 18.3952C7.5744 18.5004 7.45179 18.5841 7.3164 18.6416C7.18104 18.6989 7.03561 18.729 6.88854 18.7299C6.74149 18.7307 6.59572 18.7023 6.45969 18.6465C6.32367 18.5906 6.20007 18.5083 6.09609 18.4042C5.9921 18.3003 5.90977 18.1767 5.85389 18.0407C5.798 17.9046 5.76967 17.7589 5.77053 17.6119C5.77137 17.4649 5.8014 17.3194 5.85885 17.184C5.9163 17.0486 6.00005 16.926 6.10524 16.8232C4.94663 15.2803 4.38375 13.371 4.52002 11.4464C4.65629 9.52164 5.48254 7.71078 6.84697 6.34647C8.21141 4.98215 10.0224 4.15606 11.9471 4.01997C13.8717 3.88386 15.7804 4.44692 17.3232 5.60566ZM12.4976 15.3322C13.3787 15.3322 14.2238 14.9822 14.8468 14.3591C15.47 13.736 15.8201 12.8909 15.8201 12.0097C15.8201 11.1285 15.47 10.2834 14.8468 9.66023C14.2238 9.03714 13.3787 8.68708 12.4976 8.68708C11.6163 8.68708 10.7713 9.0371 10.1483 9.66016C9.52519 10.2833 9.17516 11.1282 9.17516 12.0094C9.17516 12.8906 9.52519 13.7356 10.1483 14.3586C10.7713 14.9817 11.6163 15.3322 12.4976 15.3322ZM12.4976 17.7973C14.0248 17.7832 15.4847 17.1665 16.5596 16.0815C17.6345 14.9966 18.2376 13.531 18.2376 12.0036C18.2376 10.4763 17.6345 9.01077 16.5596 7.92578C15.4847 6.84079 14.0248 6.22413 12.4976 6.20995C11.7311 6.19987 10.9704 6.34213 10.2593 6.62846C9.54828 6.91479 8.90123 7.33948 8.3557 7.8779C7.81016 8.41632 7.377 9.05772 7.08135 9.76487C6.7857 10.4721 6.63346 11.231 6.63346 11.9974C6.63346 12.7639 6.7857 13.5228 7.08135 14.2299C7.377 14.9371 7.81016 15.5785 8.3557 16.1169C8.90123 16.6553 9.54828 17.08 10.2593 17.3664C10.9704 17.6527 11.7311 17.7949 12.4976 17.7849V17.7973ZM14.2788 12.0034C14.2788 12.4758 14.0912 12.929 13.7571 13.263C13.4231 13.597 12.97 13.7849 12.4976 13.7849C12.0251 13.7849 11.5719 13.597 11.2379 13.263C10.9037 12.929 10.7161 12.4758 10.7161 12.0034C10.7161 11.531 10.9037 11.0778 11.2379 10.7438C11.5719 10.4097 12.0251 10.222 12.4976 10.222C12.97 10.222 13.4231 10.4097 13.7571 10.7438C14.0912 11.0778 14.2788 11.531 14.2788 12.0034Z" fill="#43266B"/>
</svg>
