<svg width="24" height="24" viewBox="0 0 24 24" fill="none" xmlns="http://www.w3.org/2000/svg">
<path d="M17.1367 13.2849C18.1587 13.2823 19.14 13.6859 19.8645 14.4068C20.589 15.1277 20.9975 16.1069 21 17.1289C21.0025 18.151 20.5989 19.1322 19.878 19.8568C19.1572 20.5813 18.178 20.9898 17.1559 20.9923H17.1367C16.1146 20.9923 15.1343 20.5863 14.4117 19.8635C13.6889 19.1409 13.2829 18.1607 13.2829 17.1385C13.2829 17.0358 13.2829 16.9395 13.2958 16.8431C13.3023 16.6633 13.3152 16.4899 13.2958 16.3036C13.112 14.8769 12.4567 13.5526 11.4337 12.5411C10.4108 11.5298 9.07887 10.8896 7.65012 10.7222C7.45744 10.703 7.28403 10.7093 7.09777 10.7093L6.86012 10.7157C5.83806 10.7175 4.85717 10.313 4.13326 9.59157C3.40934 8.87006 3.0017 7.89054 3.00001 6.86846C2.9983 5.84641 3.40267 4.86552 4.12418 4.14161C4.84568 3.4177 5.8252 3.01006 6.84728 3.00835H6.86012C7.39273 3.00835 7.91954 3.11874 8.40734 3.33257C8.89512 3.5464 9.33335 3.85902 9.69422 4.2507C10.0551 4.64239 10.3309 5.10462 10.5043 5.60824C10.6775 6.11187 10.7445 6.64595 10.701 7.17677C10.6945 7.37588 10.6882 7.57498 10.7138 7.78694C10.9272 9.2163 11.6119 10.5335 12.6591 11.5295C13.7063 12.5255 15.0561 13.1434 16.4944 13.2849C16.6422 13.2978 16.7833 13.2913 16.9247 13.2849H17.1367ZM17.2009 10.7157C18.2229 10.6988 19.1963 10.2763 19.907 9.54166C20.6177 8.80685 21.0073 7.81989 20.9904 6.79782C20.9733 5.77577 20.551 4.80233 19.8162 4.09166C19.0815 3.38099 18.0945 2.99131 17.0724 3.00835C16.0503 3.02539 15.077 3.44773 14.3663 4.18249C13.6556 4.91724 13.266 5.90421 13.2829 6.92629C13.3 7.94835 13.7223 8.92179 14.4571 9.63248C15.1919 10.3432 16.1788 10.7328 17.2009 10.7157ZM6.86012 13.2849C7.88219 13.2849 8.86239 13.6909 9.58512 14.4137C10.3078 15.1363 10.7138 16.1166 10.7138 17.1385C10.7138 18.1607 10.3078 19.1409 9.58512 19.8635C8.86239 20.5863 7.88219 20.9923 6.86012 20.9923C5.83806 20.9923 4.85785 20.5863 4.13515 19.8635C3.41243 19.1409 3.00641 18.1607 3.00641 17.1385C3.00641 16.1166 3.41243 15.1363 4.13515 14.4137C4.85785 13.6909 5.83806 13.2849 6.86012 13.2849Z" fill="#4FD6CF"/>
</svg>
