<svg width="24" height="24" viewBox="0 0 24 24" fill="none" xmlns="http://www.w3.org/2000/svg">
<path d="M16.5454 8.54253L15.0387 14.0521L13.7944 13.9647L14.7327 8.28418L16.5454 8.54253ZM15.2314 14.6265L14.8395 16.5732L13.1846 16.0914L13.5637 14.2237L15.2314 14.6265Z" fill="#FF3B81"/>
<path d="M5.92113 17.0241V17.1405H4.73155V14.9578L4.69449 15.0785L3.55626 14.7306L4.1995 12.6279L4.12008 12.7454L3.13379 12.0799L4.36626 10.2525L4.24873 10.3477L3.50013 9.4228L5.27367 7.98599L5.04708 8.07335L4.6209 6.96211L6.7396 6.14894L6.49184 6.1664L6.40872 4.97894L8.62696 4.82381L8.42684 4.77776L8.69473 3.61835L10.814 4.10752L10.6801 4.03075L11.2751 3L13.1232 4.06729L13.0512 3.98999L13.9216 3.1784L15.3611 4.72164L15.3303 4.65864L16.3998 4.13718L17.3231 6.03035L17.3146 5.9774L18.4898 5.79104L18.8367 7.97751L18.8611 7.82187L20.0363 8.00822L19.6848 10.227L19.7716 10.0491L20.841 10.5705L19.851 12.6008L19.9955 12.4457L20.8659 13.2573L19.3274 14.907L19.5138 14.7995L20.1088 15.8303L18.1748 16.9468L18.3691 16.9018L18.6371 18.0612L16.5004 18.5546L16.6645 18.5662L16.5819 19.7532L14.443 19.6034L14.5516 19.6458L14.1255 20.7564L12.0777 19.9702L12.2069 20.0752L11.4583 21L9.76842 19.6315L9.85143 19.7549L8.8652 20.4203L7.65708 18.6292L7.69308 18.7468L6.55431 19.0951L5.92113 17.0241ZM5.92113 15.6105L6.66443 15.3828L7.24203 17.2728L7.88473 16.8388L8.98326 18.4673L9.47348 17.8616L10.9965 19.0941L11.2687 18.3846L13.1031 19.0888L13.1566 18.3211L15.1191 18.4582L14.9428 17.6932L16.8667 17.2485L16.4681 16.5582L18.186 15.5667L17.5973 15.0182L18.9541 13.5633L18.2305 13.2102L19.1029 11.4208L18.3115 11.2959L18.6222 9.33175L17.8651 9.45141L17.5545 7.48729L16.8726 7.82028L16.0064 6.04411L15.4505 6.5624L14.1106 5.12505L13.7268 5.78894L12.03 4.80952L11.8549 5.56922L9.94568 5.12822L10.0013 5.92075L8.04144 6.0584L8.33155 6.81281L6.48603 7.52117L6.98208 8.13422L5.43356 9.38841L6.08684 9.82937L4.97032 11.4849L5.72261 11.7152L5.13973 13.6226H5.92113V15.6105Z" fill="#FF3B81"/>
<path d="M11.7666 13.2036C11.7666 12.9076 11.6622 12.6815 11.4536 12.5249C11.2446 12.3649 10.8686 12.1977 10.3259 12.0235C9.78233 11.8461 9.35241 11.6719 9.03582 11.5014C8.17288 11.0351 7.74089 10.4066 7.74089 9.61678C7.74089 9.20544 7.85576 8.84015 8.085 8.51985C8.31847 8.19586 8.65147 7.94386 9.08294 7.7628C9.51811 7.58173 10.0052 7.49121 10.5446 7.49121C11.0878 7.49121 11.5716 7.59021 11.9963 7.78873C12.421 7.98356 12.7501 8.26044 12.9831 8.61886C13.2203 8.9778 13.3383 9.38492 13.3383 9.84074H11.7718C11.7718 9.49292 11.6622 9.22291 11.443 9.03126C11.224 8.83644 10.9157 8.73902 10.5187 8.73902C10.136 8.73902 9.83841 8.82109 9.62606 8.98468C9.5249 9.05664 9.44296 9.15236 9.38738 9.2634C9.33182 9.37444 9.30436 9.49743 9.30741 9.6216C9.30741 9.86878 9.43076 10.0758 9.67795 10.2431C9.92896 10.4098 10.2959 10.5666 10.7797 10.7128C11.6713 10.9811 12.3203 11.3136 12.7279 11.7102C13.1346 12.1071 13.3383 12.6016 13.3383 13.193C13.3383 13.851 13.0896 14.3682 12.5919 14.7441C12.0942 15.1163 11.424 15.3027 10.5812 15.3027C9.99666 15.3027 9.46412 15.1968 8.98342 14.984C8.50323 14.7684 8.13635 14.4742 7.88224 14.102C7.63129 13.7293 7.50635 13.2972 7.50635 12.8071H9.07765C9.07765 13.6456 9.579 14.0654 10.5812 14.0654C10.9539 14.0654 11.2446 13.9902 11.4536 13.8404C11.6622 13.6874 11.7666 13.4751 11.7666 13.2036Z" fill="#FF3B81"/>
</svg>
