<svg width="24" height="24" viewBox="0 0 24 24" fill="none" xmlns="http://www.w3.org/2000/svg">
<path d="M7.75879 14L6.20379 11.1599C5.9951 10.7795 5.94472 10.3321 6.06357 9.91467C6.18243 9.49728 6.46095 9.14351 6.8388 8.93001L15.7788 3.87001C15.8938 3.75501 16.0688 3.45001 15.8938 3.18501L16.2088 3L17.8988 5.965C18.0689 6.44002 18.1437 7.54 17.1038 8.13001C16.0688 8.71502 10.8088 11.615 8.30879 12.99C8.1388 13.085 7.8388 13.3801 7.98879 13.8149C7.9388 13.865 7.8088 13.965 7.75879 14ZM7.75879 21L6.20379 18.16C5.9951 17.7795 5.94472 17.3321 6.06357 16.9147C6.18243 16.4972 6.46095 16.1435 6.8388 15.93L15.7788 10.87C15.8938 10.755 16.0688 10.45 15.8938 10.185L16.2088 9.99996L17.8988 12.9651C18.0689 13.44 18.1437 14.5401 17.1038 15.13C16.0688 15.715 10.8088 18.615 8.30879 19.99C8.1388 20.085 7.8388 20.38 7.98879 20.815C7.9388 20.865 7.8088 20.965 7.75879 21Z" fill="#24B4E6"/>
</svg>
