<svg width="24" height="24" viewBox="0 0 24 24" fill="none" xmlns="http://www.w3.org/2000/svg">
<path fill-rule="evenodd" clip-rule="evenodd" d="M12.1193 11.6806C12.1128 11.6924 12.1031 11.702 12.0913 11.7086C12.0794 11.7125 12.0714 11.7086 12.0633 11.7005C11.6847 11.0406 11.2539 10.4119 10.7752 9.82037C10.2603 9.14992 9.63868 8.56877 8.93509 8.10021C8.61505 7.9042 8.31103 7.76819 8.01501 7.69618C7.60446 7.58329 7.17191 7.57694 6.75823 7.67774C6.34455 7.77853 5.96339 7.98315 5.65079 8.27224C4.88486 8.96188 4.35693 9.87632 4.14266 10.8844C4.02265 11.3524 3.98265 11.7805 4.00665 12.1726C4.04666 12.8207 4.20266 13.4567 4.47469 14.0848C4.73177 14.7041 5.11926 15.2608 5.61079 15.7169C5.86244 15.9598 6.16354 16.1456 6.49354 16.2616C6.82353 16.3776 7.17465 16.421 7.52296 16.3889C8.40304 16.3089 9.29511 15.7728 10.1912 14.7888C10.9152 13.9888 11.5393 13.1406 12.0594 12.2445C12.0674 12.2286 12.0794 12.2286 12.0874 12.2445C12.8059 13.4931 13.7234 14.6159 14.8036 15.5689C15.1775 15.8872 15.6095 16.1304 16.0757 16.2849C16.6238 16.4569 17.1479 16.437 17.6519 16.2329C18.1466 16.019 18.5729 15.673 18.884 15.2328C19.4371 14.477 19.7995 13.5987 19.94 12.6726C20.104 11.6925 19.932 10.6804 19.42 9.62835C19.1099 8.91607 18.5892 8.31579 17.9279 7.9082C17.5896 7.71382 17.2079 7.60755 16.8179 7.59917C16.4279 7.59078 16.042 7.68053 15.6957 7.8602C15.2477 8.06421 14.8156 8.36024 14.4036 8.75227C13.5057 9.6113 12.7376 10.5964 12.1234 11.6765L12.1193 11.6806ZM7.11892 7.80019C6.40686 7.9362 5.79081 8.36424 5.27876 9.09231C4.8371 9.72439 4.53442 10.4429 4.39068 11.2005C4.30855 11.591 4.28965 11.9921 4.33468 12.3886C4.41468 13.0326 4.5987 13.6447 4.87873 14.2288C5.45077 15.4049 6.19884 16.0649 7.11892 16.2129C7.12692 16.2129 7.13092 16.2129 7.12692 16.2209C7.12692 16.2289 7.12692 16.2329 7.11892 16.2329C6.71489 16.2129 6.31885 16.0609 5.93882 15.7768C5.59477 15.5204 5.30056 15.2032 5.07075 14.8408C4.5547 14.0448 4.25466 13.1726 4.16266 12.2286C4.14666 12.0686 4.14666 11.9165 4.15866 11.7725C4.24054 10.7504 4.61092 9.77231 5.22675 8.95229C5.49374 8.59346 5.82967 8.29153 6.21484 8.06421C6.5266 7.87928 6.88057 7.77736 7.24293 7.76819C7.25093 7.76819 7.25493 7.76819 7.25493 7.78019C7.25493 7.78419 7.25493 7.78819 7.24293 7.78819C7.20293 7.78819 7.16292 7.78819 7.12292 7.80019H7.11892ZM19.568 12.9486C19.78 11.9886 19.6721 11.0005 19.244 9.98039C18.804 8.92829 18.1839 8.23622 17.3919 7.9082C17.2998 7.8682 17.1598 7.8322 16.9638 7.7962L16.8718 7.78019C16.8638 7.77619 16.8638 7.77619 16.8718 7.77619C17.1038 7.77219 17.3199 7.80819 17.5199 7.8882C18.3159 8.20022 18.94 8.88829 19.392 9.95638C19.8165 10.8892 19.9355 11.9322 19.7321 12.9367C19.6294 13.4185 19.4682 13.886 19.252 14.3288C19.0287 14.8052 18.7195 15.2365 18.3399 15.6009C17.9683 15.9733 17.4731 16.1968 16.9478 16.2289C16.9478 16.2209 16.9478 16.217 16.9559 16.217C17.7919 16.1009 18.4839 15.5048 19.0399 14.4248C19.2777 13.9588 19.4539 13.464 19.5641 12.9526L19.568 12.9486ZM4.5387 11.2605C4.45133 11.7232 4.45133 12.198 4.5387 12.6607C4.6667 13.4266 4.95724 14.1564 5.39077 14.8008C5.91082 15.5608 6.53088 15.9809 7.25493 16.0729C7.87676 16.1326 8.49821 15.9554 8.9951 15.5768V15.5608L8.99109 15.5488C8.67105 15.7329 8.34303 15.8529 8.00701 15.9089C7.59393 15.9733 7.17102 15.9149 6.7909 15.7409C6.40999 15.5683 6.07344 15.311 5.8068 14.9888C5.26815 14.3422 4.89717 13.5728 4.72671 12.7486C4.50269 11.7565 4.6707 10.7325 5.23875 9.67636C5.46499 9.24793 5.76571 8.86323 6.12683 8.54026C6.48004 8.2156 6.92378 8.00628 7.39895 7.9402C7.42696 7.9402 7.42696 7.9322 7.39895 7.9242C7.36656 7.91404 7.33204 7.91267 7.29893 7.9202L7.17892 7.9442C6.96291 7.9842 6.80689 8.0322 6.70689 8.07221C6.09847 8.35609 5.59167 8.81961 5.25475 9.40033C4.90236 9.96937 4.65822 10.5987 4.53469 11.2565L4.5387 11.2605ZM16.6758 7.9402C16.7085 7.92604 16.7443 7.92053 16.7798 7.9242C17.1239 7.96421 17.4239 8.06421 17.6839 8.23223C18.1639 8.53625 18.5639 8.99229 18.892 9.59235C19.1825 10.135 19.3773 10.7237 19.468 11.3325C19.548 11.8565 19.528 12.3926 19.408 12.9407C19.2634 13.6428 18.9806 14.3091 18.5759 14.9008C18.0999 15.5808 17.5359 15.9688 16.8838 16.0729C16.2857 16.1452 15.6831 15.9816 15.2036 15.6168C15.1957 15.6128 15.1957 15.6088 15.1996 15.6009C15.4452 15.7313 15.7078 15.8269 15.9798 15.8848C16.4597 15.9929 16.9319 15.9329 17.3799 15.6928C17.8118 15.4582 18.1788 15.1201 18.4479 14.7088C18.9479 13.9782 19.2559 13.1336 19.3439 12.2526C19.3719 12.0086 19.3719 11.7725 19.3439 11.5365C19.2469 10.5599 18.8674 9.63276 18.2519 8.86829C18.0666 8.61402 17.8312 8.40048 17.56 8.24084C17.289 8.08121 16.988 7.97889 16.6758 7.9402ZM16.6638 7.9402H16.6518L16.6398 7.9442H16.6358H16.6638V7.9402ZM7.56297 15.7889H7.56697V15.7728C6.92261 15.6374 6.35038 15.2702 5.95882 14.7408C5.53484 14.177 5.23245 13.5313 5.07075 12.8446C4.91193 12.2098 4.91607 11.5452 5.08275 10.9124C5.27516 10.1162 5.67868 9.38654 6.25085 8.80028C6.62596 8.41614 7.11348 8.16118 7.64297 8.07221H7.63897C7.31744 8.09043 7.00361 8.17776 6.71888 8.32824C6.22544 8.61056 5.81339 9.01572 5.52279 9.50434C5.22216 9.98703 5.00573 10.5172 4.88272 11.0724C4.6587 12.0765 4.84272 13.1166 5.44277 14.1928C5.64983 14.5732 5.92042 14.9155 6.24284 15.2048C6.61488 15.5328 7.05492 15.7248 7.56297 15.7849V15.7889ZM16.4877 8.08021C16.8918 8.10021 17.2599 8.22823 17.5879 8.46825C18.044 8.81297 18.4115 9.26139 18.6599 9.77636C18.916 10.2724 19.084 10.8164 19.172 11.4044C19.216 11.7125 19.22 12.0205 19.1799 12.3246C19.0887 13.0757 18.8378 13.7987 18.4439 14.4448C17.9719 15.2089 17.3878 15.6449 16.6958 15.7649C16.5078 15.7929 16.5038 15.7808 16.6878 15.7248C17.0781 15.6273 17.4339 15.4239 17.7159 15.1368C18.4039 14.4391 18.8498 13.5388 18.9879 12.5686C19.0716 12.108 19.0675 11.6356 18.976 11.1765C18.8239 10.3161 18.4393 9.51374 17.8639 8.85629C17.5053 8.45265 17.0199 8.18317 16.4877 8.09222C16.4278 8.08021 16.4278 8.07622 16.4877 8.08021ZM5.29877 11.5765C5.37877 11.0964 5.51478 10.6524 5.7068 10.2444C5.97667 9.6162 6.42621 9.08176 6.99891 8.70827C7.28718 8.52489 7.61653 8.41608 7.95731 8.39164C8.29809 8.3672 8.63959 8.42789 8.95108 8.56826C9.1431 8.64826 9.32712 8.74027 9.49914 8.84829C9.57914 8.90429 9.57914 8.90029 9.50714 8.84029C9.05023 8.45685 8.47538 8.24217 7.87899 8.23223C7.23094 8.23622 6.65088 8.54425 6.14284 9.15231C5.59179 9.82301 5.24101 10.6356 5.13075 11.4965C5.08431 12.0912 5.15661 12.6893 5.3434 13.2559C5.53019 13.8225 5.82779 14.3463 6.21884 14.7968C6.33085 14.9208 6.33885 14.9168 6.23484 14.7848C5.67479 14.0407 5.34676 13.1847 5.26676 12.2286C5.25076 12.0285 5.26275 11.8085 5.29877 11.5765ZM18.6279 11.1844C18.3439 9.97238 17.8039 9.13631 17.0159 8.66427C16.7085 8.47699 16.3555 8.37792 15.9957 8.37792C15.6359 8.37792 15.283 8.47699 14.9756 8.66427C14.9019 8.70104 14.8273 8.73573 14.7515 8.76827C15.0876 8.52825 15.4316 8.36824 15.7876 8.28824C16.2341 8.17762 16.7059 8.24052 17.1078 8.46424C17.4839 8.66427 17.8119 8.98429 18.0999 9.41233C18.3895 9.84602 18.6059 10.3245 18.7399 10.8284C18.8825 11.3342 18.9219 11.8633 18.8559 12.3845C18.7595 13.3344 18.3549 14.2265 17.7039 14.9248C17.6239 15.0048 17.6199 15.0048 17.6919 14.9168C18.1723 14.3225 18.4993 13.6191 18.6439 12.8686C18.7639 12.3046 18.7559 11.7405 18.6279 11.1844ZM7.83499 8.60025C7.911 8.58826 7.963 8.57626 7.99501 8.56026H8.00301V8.55625H7.999C7.66297 8.55625 7.33094 8.66827 6.99891 8.89229C6.7016 9.09428 6.44396 9.3492 6.23884 9.64436C5.9331 10.0775 5.70563 10.5608 5.56679 11.0724C5.41639 11.5827 5.38492 12.1204 5.47478 12.6446C5.58279 13.2207 5.7708 13.7448 6.03483 14.2128C6.29616 14.703 6.68796 15.1114 7.16692 15.3928C7.39365 15.5154 7.64252 15.5916 7.89899 15.6168L7.903 15.6009C7.24757 15.4341 6.6842 15.0159 6.33486 14.4368C5.97482 13.9007 5.73879 13.2808 5.62279 12.5807C5.55626 12.1548 5.57255 11.7201 5.67079 11.3005C5.83435 10.5199 6.21097 9.79986 6.75889 9.22032C7.02164 8.95894 7.33842 8.75823 7.68697 8.63226C7.71897 8.62026 7.76698 8.60827 7.83499 8.60025ZM16.1797 8.57626H16.1678C16.1478 8.57225 16.1478 8.56826 16.1678 8.56826C16.2878 8.56026 16.3918 8.57626 16.4877 8.60827C17.0304 8.79398 17.4934 9.15953 17.7999 9.64436C18.1079 10.0844 18.3279 10.6044 18.4679 11.1965C18.6759 12.0845 18.5559 13.0046 18.1079 13.9567C17.9038 14.4152 17.6037 14.8244 17.2279 15.1568C16.9399 15.4032 16.5871 15.5614 16.2117 15.6128V15.5929C16.4264 15.5392 16.6315 15.4528 16.8199 15.3368C17.2452 15.0514 17.5919 14.6634 17.8279 14.2088C18.0719 13.7647 18.2439 13.2806 18.3439 12.7566C18.4479 12.1966 18.4239 11.6365 18.2799 11.0764C18.1195 10.4239 17.81 9.81732 17.3759 9.30433C17.0651 8.94006 16.646 8.68491 16.1797 8.57626ZM6.8789 9.32032C6.53728 9.66337 6.26796 10.0715 6.08683 10.5204C5.99883 10.7285 5.92282 10.9485 5.85882 11.1805C5.62279 12.0565 5.7468 12.9726 6.23484 13.9408C6.65088 14.7608 7.19492 15.2568 7.875 15.4208C7.91802 15.4321 7.96263 15.4363 8.00701 15.4329C8.035 15.4329 8.03901 15.4248 8.00701 15.4168C7.48026 15.2477 7.02354 14.9104 6.70689 14.4568C6.3868 14.009 6.1559 13.5037 6.02683 12.9687C5.86079 12.3522 5.86632 11.702 6.04283 11.0885C6.18684 10.5884 6.39486 10.1444 6.66688 9.76036C6.94196 9.3548 7.32416 9.03353 7.77098 8.83228C7.89637 8.78425 8.02641 8.74939 8.15901 8.72828C8.21502 8.71627 8.21502 8.71227 8.15901 8.71227C7.70297 8.72828 7.27893 8.92829 6.8789 9.32032ZM18.0759 11.6806C17.9879 11.0045 17.7759 10.4004 17.4319 9.85237C17.0198 9.19632 16.5118 8.82029 15.9117 8.72028C15.9104 8.72061 15.909 8.72061 15.9077 8.72028V8.70827C16.2838 8.72028 16.6277 8.85228 16.9438 9.10831C17.3427 9.44465 17.6575 9.86922 17.8639 10.3484C18.0799 10.8284 18.2079 11.3325 18.2479 11.8565C18.2639 12.0446 18.2559 12.2406 18.2279 12.4526C18.1479 13.0807 17.9559 13.6527 17.6679 14.1728C17.3928 14.72 16.9279 15.148 16.3598 15.3769C16.2397 15.4208 16.1158 15.4408 15.9917 15.4368C15.9677 15.4368 15.9677 15.4369 15.9917 15.4248L16.0957 15.3968C16.1758 15.3808 16.2397 15.3608 16.2798 15.3449C16.7732 15.1136 17.1828 14.7348 17.4519 14.2607C17.7335 13.7898 17.9287 13.2724 18.0279 12.7326C18.0999 12.3565 18.1159 12.0046 18.0759 11.6806ZM8.05901 8.92029C8.04361 8.92638 8.02747 8.93042 8.01101 8.93229C7.91499 8.94429 7.82298 8.97229 7.73097 9.02029C7.41895 9.19231 7.15892 9.40433 6.95092 9.66036V9.67236H6.96691C7.24161 9.30643 7.62992 9.04194 8.07101 8.92029H8.05901ZM16.0878 8.93629C16.1557 8.94029 16.2197 8.95629 16.2798 8.98829C16.7141 9.21289 17.0751 9.55716 17.3199 9.98039C17.3199 9.98838 17.3199 9.99238 17.3119 9.99638H17.3038C17.07 9.59462 16.7311 9.26411 16.3237 9.04029C16.2294 8.98629 16.1266 8.94843 16.0197 8.92829H16.0598C16.0677 8.93629 16.0797 8.93629 16.0878 8.93629ZM7.07892 9.98838C7.23957 9.74249 7.44749 9.53099 7.6906 9.36618C7.93371 9.20136 8.20716 9.0865 8.49505 9.0283C8.57505 9.0163 8.57505 9.01229 8.49505 9.0163C7.98701 9.04029 7.53496 9.27632 7.13892 9.72036C6.68693 10.2435 6.38551 10.8795 6.26685 11.5605C6.2232 11.7736 6.20973 11.9918 6.22684 12.2086C6.28259 12.9397 6.53864 13.6415 6.96691 14.2368C7.39094 14.8248 7.89899 15.1248 8.49505 15.1448L8.50305 15.1408C8.50305 15.1328 8.50305 15.1289 8.49505 15.1248C8.25502 15.0848 8.05501 15.0248 7.89499 14.9328C7.13492 14.4968 6.65088 13.7208 6.43086 12.5966C6.36184 12.266 6.3564 11.9252 6.41486 11.5925C6.51332 11.016 6.74028 10.4692 7.07892 9.99238V9.98838ZM15.5676 9.02029H15.5636C15.5597 9.02029 15.5597 9.02029 15.5636 9.02029C15.6437 9.01229 15.7237 9.0163 15.8117 9.0363C16.6118 9.20432 17.2039 9.82837 17.5719 10.9044C17.8079 11.5845 17.8399 12.2485 17.6719 12.8926C17.5644 13.3268 17.3888 13.7414 17.1519 14.1207C16.9263 14.5 16.5955 14.8057 16.1998 15.0008C16.0017 15.0844 15.7903 15.1318 15.5757 15.1408V15.1248C16.1277 15.0608 16.5918 14.7328 16.9758 14.1368C17.6078 13.1527 17.7759 12.1526 17.4879 11.1365C17.3516 10.6397 17.1162 10.1757 16.7958 9.77237C16.4758 9.37233 16.0677 9.1243 15.5676 9.02029ZM6.67888 12.9647C6.85437 13.6138 7.21925 14.196 7.72697 14.6368C8.06701 14.9088 8.43104 15.0248 8.82307 14.9848C9.48313 14.9248 10.0912 14.5448 10.6472 13.8648C11.1178 13.2806 11.5431 12.6614 11.9194 12.0126C11.9237 12.006 11.9259 11.9984 11.9259 11.9906C11.9259 11.9827 11.9237 11.9751 11.9194 11.9685C11.5561 11.3292 11.1212 10.7333 10.6233 10.1924C10.2934 9.81921 9.8867 9.52173 9.43113 9.32032C9.2042 9.21517 8.95586 9.16438 8.70586 9.17202C8.45586 9.17965 8.21109 9.24551 7.991 9.36433C7.30693 9.73637 6.8429 10.4244 6.60688 11.4245C6.48298 11.9342 6.50797 12.4688 6.67888 12.9647ZM17.0238 13.7248C16.8302 14.1472 16.5227 14.5074 16.1357 14.7648C15.9397 14.8908 15.7161 14.9672 15.484 14.9873C15.2519 15.0076 15.0184 14.9709 14.8036 14.8808C14.4518 14.7515 14.1333 14.5452 13.8715 14.2768C13.7454 14.145 13.6252 14.0075 13.5115 13.8648C13.0399 13.2715 12.6147 12.6429 12.2394 11.9846C12.2355 11.9786 12.2333 11.9717 12.2333 11.9645C12.2333 11.9574 12.2355 11.9505 12.2394 11.9445C12.6325 11.2302 13.1255 10.5755 13.7035 10.0004C13.975 9.72781 14.2917 9.50445 14.6395 9.34033C14.848 9.23228 15.0787 9.17423 15.3133 9.17076C15.5479 9.16729 15.7803 9.21849 15.9917 9.32032C16.405 9.53795 16.7416 9.87727 16.9559 10.2924C17.2694 10.8082 17.4408 11.3979 17.4527 12.0014C17.4647 12.6049 17.3167 13.2009 17.0238 13.7287V13.7248ZM7.75098 15.1608C7.82699 15.2008 7.88699 15.2248 7.935 15.2369C8.05501 15.2649 8.05901 15.2568 7.94299 15.2128C7.48927 15.0374 7.09893 14.7293 6.82289 14.3288V14.3368C7.05892 14.6968 7.36694 14.9688 7.75098 15.1608ZM16.0797 15.2328C16.4435 15.0951 16.7667 14.8681 17.0198 14.5728V14.5848C16.7767 14.8936 16.4485 15.1244 16.0757 15.2488C16.0717 15.2408 16.0757 15.2369 16.0797 15.2328Z" fill="white"/>
</svg>
