<svg width="24" height="24" viewBox="0 0 24 24" fill="none" xmlns="http://www.w3.org/2000/svg">
<path d="M3.06187 10.6275C3.33247 10.2539 3.72401 9.98567 4.17 9.86807C5.37374 9.56436 7.17936 8.35498 7.78124 7.75311C8.38311 7.14561 9.58678 4.72687 9.89062 4.11937L9.92436 4.05186C10.0256 3.82687 10.2507 3.34312 10.7232 3C8.79575 3.27867 7.00957 4.17121 5.6295 5.54516C4.24945 6.91914 3.34906 8.70137 3.06187 10.6275ZM3 12.8156C3.18396 14.8793 4.06997 16.8176 5.51025 18.3069C6.95053 19.7963 8.85797 20.7468 10.9143 21C10.6105 20.7355 10.4306 20.3643 10.2787 20.0381L10.1887 19.8525L10.0538 19.5542C9.6994 18.7331 8.8106 16.6968 7.78124 15.9207C6.57748 15.015 5.37374 14.1037 4.46812 13.7999C3.90562 13.6143 3.34312 13.3106 3 12.8156ZM13.2037 20.9831C15.2518 20.7016 17.1421 19.728 18.5603 18.2238C19.9785 16.7196 20.8394 14.7755 21 12.7143C20.6977 13.0908 20.2875 13.3656 19.8242 13.5018C18.9242 13.7999 16.815 15.3131 16.2131 15.9207C15.235 17.1184 14.4233 18.4428 13.8 19.8582C13.6965 20.2763 13.4917 20.6627 13.2037 20.9831ZM20.9381 10.7006C20.6647 8.75961 19.7692 6.95967 18.3858 5.57111C17.0023 4.18256 15.2056 3.28035 13.2656 3C13.6197 3.27563 13.8967 3.63793 14.07 4.05186L14.1037 4.11937L14.3231 4.61437C14.6718 5.42998 15.2456 6.78561 16.2131 7.75311C17.1693 8.72061 18.5193 9.29998 19.3349 9.64875C19.5375 9.73879 19.7062 9.80625 19.8242 9.87371C20.1731 10.0425 20.6231 10.3237 20.9381 10.7006Z" fill="#8E8E8E"/>
<path d="M12.6476 7.37609C12.6081 7.2519 12.5304 7.14335 12.4256 7.0659C12.3208 6.98847 12.1942 6.9461 12.0639 6.94485C11.9335 6.94361 11.8062 6.98354 11.6999 7.05896C11.5935 7.13437 11.5139 7.24142 11.472 7.36484C11.1671 8.31418 10.6347 9.17447 9.9208 9.87068C9.20703 10.5669 8.33368 11.0776 7.377 11.3585C7.25481 11.3994 7.1484 11.4773 7.07258 11.5814C6.99678 11.6856 6.95537 11.8109 6.95413 11.9396C6.9529 12.0683 6.99188 12.1943 7.06568 12.3C7.13947 12.4055 7.24437 12.4854 7.36575 12.5286C8.31509 12.8333 9.17538 13.366 9.87158 14.0798C10.5677 14.7936 11.0786 15.6669 11.3594 16.6236C11.4002 16.7458 11.4782 16.8521 11.5823 16.928C11.6865 17.0039 11.8117 17.0452 11.9405 17.0465C12.0692 17.0477 12.1952 17.0087 12.3009 16.9349C12.4064 16.8612 12.4863 16.7562 12.5295 16.6348C12.8343 15.6854 13.3669 14.8252 14.0806 14.1291C14.7945 13.4329 15.6678 12.922 16.6245 12.6411C16.7467 12.6002 16.8531 12.5225 16.9288 12.4183C17.0047 12.3141 17.0461 12.1889 17.0474 12.0601C17.0485 11.9313 17.0096 11.8053 16.9358 11.6996C16.862 11.5941 16.7571 11.5142 16.6357 11.4711C15.6863 11.1663 14.8262 10.6337 14.13 9.9199C13.4339 9.20611 12.9228 8.33275 12.642 7.37609H12.6476Z" fill="white"/>
</svg>
