<svg width="24" height="24" viewBox="0 0 24 24" fill="none" xmlns="http://www.w3.org/2000/svg">
<path d="M11.7505 4.77758C11.8254 4.73084 11.9118 4.70605 11.9999 4.70605C12.0882 4.70605 12.1746 4.73084 12.2493 4.77758L19.7788 9.48343C19.848 9.52671 19.9048 9.58728 19.9436 9.65918C19.9824 9.73108 20.0018 9.81186 19.9999 9.89354C19.998 9.97513 19.9749 10.055 19.9328 10.1249C19.8908 10.195 19.8312 10.2528 19.7599 10.2928L12.2306 14.5281C12.1602 14.5677 12.0807 14.5885 11.9999 14.5885C11.9191 14.5885 11.8398 14.5677 11.7694 14.5281L4.94117 10.6881V11.9587L11.9999 15.9304L19.2987 11.8269C19.3703 11.7868 19.4511 11.7659 19.5332 11.7665C19.6152 11.7673 19.6958 11.7894 19.7666 11.8308C19.8375 11.8722 19.8963 11.9314 19.9372 12.0025C19.9782 12.0737 19.9998 12.1543 19.9999 12.2363V14.354C19.9999 14.4357 19.9786 14.5159 19.9382 14.5869C19.8978 14.6578 19.8396 14.7171 19.7693 14.7587L12.24 19.2293C12.1688 19.2713 12.0879 19.2938 12.0052 19.2947C11.9227 19.2954 11.8413 19.2746 11.7694 19.234L4.24 14.9987C4.13853 14.934 4.06572 14.8329 4.03652 14.7161C4.00731 14.5993 4.02396 14.4758 4.08302 14.371C4.14207 14.2661 4.23907 14.188 4.35404 14.1524C4.46902 14.1168 4.59323 14.1267 4.70117 14.1798L11.9952 18.2787L19.0587 14.0952V13.0363L12.2306 16.8764C12.1602 16.9159 12.0807 16.9366 11.9999 16.9366C11.9191 16.9366 11.8398 16.9159 11.7694 16.8764L4.24 12.641C4.16731 12.6002 4.10679 12.5408 4.06461 12.4689C4.02245 12.3969 4.00014 12.315 4 12.2317V9.87872C3.99984 9.79875 4.02007 9.72006 4.05876 9.65007C4.09747 9.58008 4.15335 9.52111 4.22118 9.47873L11.7505 4.77287V4.77758ZM5.39293 9.85994L11.9999 13.5776L18.6069 9.85994L11.9999 5.73287L5.39293 9.85994Z" fill="url(#paint0_linear_328_56375)"/>
<defs>
<linearGradient id="paint0_linear_328_56375" x1="11.9999" y1="4.70605" x2="11.9999" y2="19.2947" gradientUnits="userSpaceOnUse">
<stop stop-color="#1B71BD"/>
<stop offset="1" stop-color="#10449E"/>
</linearGradient>
</defs>
</svg>
