<svg width="24" height="24" viewBox="0 0 24 24" fill="none" xmlns="http://www.w3.org/2000/svg">
<path fill-rule="evenodd" clip-rule="evenodd" d="M20.9989 12C20.9989 14.4879 20.1202 16.6053 18.3628 18.3627C17.5384 19.2134 16.5486 19.8864 15.4544 20.3396C14.3601 20.793 13.1843 21.0175 11.9999 20.9989C9.51204 20.9989 7.39465 20.1202 5.63721 18.3627C4.78649 17.5384 4.11368 16.5487 3.66028 15.4544C3.2069 14.3601 2.98253 13.1844 3.00106 12C3.00106 9.51205 3.87977 7.39465 5.63721 5.63721C6.46148 4.78649 7.4513 4.11368 8.54563 3.66028C9.63994 3.2069 10.8155 2.98253 11.9999 3.00106C14.4879 3.00106 16.6053 3.87978 18.3628 5.63721C19.2134 6.46147 19.8864 7.4513 20.3397 8.54563C20.7931 9.63993 21.0174 10.8155 20.9989 12ZM17.9235 17.9235C17.1593 18.7193 16.2382 19.3482 15.2188 19.77C14.1991 20.1919 13.1031 20.3976 11.9999 20.3743C9.68675 20.3743 7.71226 19.5591 6.07656 17.9235C5.28521 17.1558 4.65947 16.2342 4.23795 15.2154C3.81643 14.1966 3.60806 13.1024 3.62569 12C3.62569 9.68674 4.44088 7.71226 6.07656 6.07658C6.88669 5.25229 7.8604 4.60675 8.93506 4.1815C9.91291 3.80594 10.9525 3.6174 11.9999 3.62569C14.3133 3.62569 16.2878 4.44088 17.9235 6.07658C18.7148 6.84421 19.3405 7.76583 19.762 8.78458C20.1835 9.80334 20.3919 10.8977 20.3742 12C20.3742 14.3132 19.5538 16.2877 17.9235 17.9235ZM18.0504 10.322L13.9957 10.1367C13.9342 10.1372 13.8743 10.1178 13.8248 10.0816C13.7752 10.0454 13.7385 9.99417 13.7204 9.9355L12.2912 6.11363C12.2723 6.05228 12.2333 5.99907 12.1804 5.96259C12.1276 5.9261 12.064 5.90845 11.9999 5.91247C11.9359 5.90845 11.8724 5.9261 11.8196 5.96259C11.7667 5.99907 11.7277 6.05228 11.7088 6.11363L10.2797 9.9355C10.2615 9.99417 10.2248 10.0454 10.1753 10.0816C10.1257 10.1178 10.0657 10.1372 10.0043 10.1367L5.94953 10.322C5.88586 10.321 5.82368 10.3412 5.77286 10.3796C5.72204 10.418 5.68547 10.4722 5.66898 10.5336C5.64496 10.5941 5.64181 10.6606 5.66002 10.723C5.67826 10.7854 5.71681 10.8399 5.76955 10.8778L8.94564 13.4239C9.05152 13.5087 9.08327 13.6198 9.05152 13.7521L7.97164 17.6905C7.92929 17.8281 7.97164 17.9393 8.0881 18.024C8.19926 18.1087 8.32101 18.1087 8.43746 18.0293L11.8253 15.7796C11.8748 15.7422 11.9352 15.7219 11.9973 15.7219C12.0595 15.7219 12.1197 15.7422 12.1694 15.7796L15.5572 18.0293C15.6789 18.1087 15.8007 18.1087 15.9119 18.024C16.0284 17.9393 16.0707 17.8281 16.0284 17.6905L14.9538 13.7521C14.9333 13.6933 14.9326 13.6295 14.9516 13.5703C14.9707 13.511 15.0086 13.4596 15.0597 13.4239L18.2357 10.8778C18.2863 10.8394 18.3231 10.7855 18.3403 10.7243C18.3575 10.6632 18.3543 10.5982 18.3311 10.5389C18.3145 10.4775 18.278 10.4233 18.227 10.3849C18.1763 10.3465 18.1142 10.3263 18.0504 10.3273V10.322Z" fill="#E40570"/>
</svg>
