<svg width="24" height="24" viewBox="0 0 24 24" fill="none" xmlns="http://www.w3.org/2000/svg">
<path d="M4.77001 6.25H3L5.145 11.9549L3 17.75H4.77001L6.895 11.9549L4.77001 6.25ZM19.2301 6.25H21L18.8549 11.9549L21 17.75H19.2301L17.0999 11.9549L19.2301 6.25ZM15.385 10.75H13.86C13.86 10.25 13.12 9.75 12.145 9.75C11.17 9.75 10.27 9.95997 10.27 11.065C10.27 12.165 11.305 11.9849 13.52 12.49C15.2899 12.895 15.5 14.115 15.5 14.8549C15.5 15.9049 15.0551 17.25 12.145 17.25C9.055 17.25 8.43001 15.49 8.50499 14.75H10.175C10.175 15.6349 11.09 16.25 12.145 16.25C13.195 16.25 14.055 15.7501 14.055 14.8501C14.055 13.955 13.335 13.7449 10.9449 13.36C9.035 13.055 8.71 11.7001 8.785 11.065C8.71 10.29 9.255 8.75001 12.03 8.75001C14.805 8.75001 15.4249 10.05 15.385 10.75Z" fill="#B9B9FF"/>
</svg>
