<svg width="24" height="24" viewBox="0 0 24 24" fill="none" xmlns="http://www.w3.org/2000/svg">
<path d="M7.60953 10.347C7.44716 10.1844 7.35596 9.96414 7.35596 9.73439C7.35596 9.50466 7.44716 9.2843 7.60953 9.12178L12.4721 4.25363C12.5524 4.17322 12.6479 4.10944 12.7529 4.06592C12.8578 4.0224 12.9704 4 13.0841 4C13.1977 4 13.3103 4.0224 13.4154 4.06592C13.5203 4.10944 13.6158 4.17322 13.6961 4.25363C13.8585 4.41623 13.9497 4.63665 13.9497 4.86644C13.9497 5.09625 13.8585 5.31667 13.6961 5.47927L8.83316 10.347C8.75284 10.4275 8.65744 10.4913 8.55241 10.5348C8.4474 10.5784 8.33483 10.6008 8.22114 10.6008C8.10745 10.6008 7.99488 10.5784 7.88986 10.5348C7.78485 10.4913 7.68985 10.4275 7.60953 10.347Z" fill="#38276D"/>
<path d="M16.3903 13.6537C16.5527 13.8163 16.6439 14.0366 16.6439 14.2664C16.6439 14.4961 16.5527 14.7165 16.3903 14.879L11.5275 19.7463C11.4471 19.8267 11.3517 19.8905 11.2467 19.934C11.1416 19.9775 11.029 19.9999 10.9154 19.9999C10.8017 19.9999 10.6892 19.9775 10.5842 19.934C10.4792 19.8905 10.3837 19.8267 10.3034 19.7463C10.1411 19.5838 10.05 19.3634 10.05 19.1337C10.05 18.904 10.1411 18.6837 10.3034 18.5211L15.1667 13.6533C15.2471 13.573 15.3424 13.5092 15.4474 13.4656C15.5524 13.4221 15.665 13.3997 15.7786 13.3997C15.8922 13.3997 16.0047 13.4221 16.1097 13.4656C16.2147 13.5092 16.3101 13.5733 16.3903 13.6537ZM7.29491 14.693C7.13264 14.5304 7.0415 14.3101 7.0415 14.0804C7.0415 13.8507 7.13264 13.6303 7.29491 13.4677L10.3726 10.3864C10.4529 10.306 10.5484 10.2423 10.6533 10.1987C10.7584 10.1552 10.871 10.1328 10.9846 10.1328C11.0983 10.1328 11.2109 10.1552 11.3158 10.1987C11.4209 10.2423 11.5163 10.306 11.5967 10.3864C11.7589 10.549 11.85 10.7694 11.85 10.9991C11.85 11.2288 11.7589 11.4491 11.5967 11.6117L8.51895 14.693C8.43862 14.7734 8.34321 14.8372 8.2382 14.8808C8.13319 14.9243 8.02062 14.9468 7.90692 14.9468C7.79324 14.9468 7.68067 14.9243 7.57564 14.8808C7.47063 14.8372 7.37524 14.7734 7.29491 14.693Z" fill="#38276D"/>
<path d="M16.7049 9.30702C16.8673 9.46955 16.9585 9.6899 16.9585 9.91964C16.9585 10.1494 16.8673 10.3697 16.7049 10.5323L13.6268 13.6131C13.5465 13.6936 13.4511 13.7574 13.3461 13.801C13.2411 13.8445 13.1284 13.8669 13.0147 13.8669C12.901 13.8669 12.7885 13.8445 12.6835 13.801C12.5785 13.7574 12.4831 13.6936 12.4028 13.6131C12.2405 13.4506 12.1494 13.2304 12.1494 13.0007C12.1494 12.7711 12.2405 12.5509 12.4028 12.3882L15.4809 9.30702C15.5611 9.22656 15.6567 9.16274 15.7616 9.11918C15.8667 9.07563 15.9792 9.05322 16.0929 9.05322C16.2066 9.05322 16.3192 9.07563 16.4241 9.11918C16.5292 9.16274 16.6246 9.22656 16.7049 9.30702Z" fill="#A674FF"/>
</svg>
