<svg width="24" height="24" viewBox="0 0 24 24" fill="none" xmlns="http://www.w3.org/2000/svg">
<path d="M8.00005 9.88123V10.8001L10.8001 8.80003L8.00005 7V7.81801C5.75723 8.02001 4 9.90484 4 12.2001C4 14.6301 5.97003 16.6001 8.40005 16.6001C9.40766 16.6001 10.8001 16.2457 11.6001 15.4001C12.6001 14.2457 13.7921 11.3385 13.7921 11.3385L10.2213 13.6529C9.98056 13.9241 9.6791 14.1347 9.34149 14.2673C9.00387 14.4 8.63969 14.4508 8.27867 14.4157C7.91765 14.3808 7.57003 14.2609 7.2642 14.0658C6.95836 13.8709 6.70297 13.6063 6.5189 13.2938C6.33483 12.9812 6.22727 12.6297 6.20501 12.2676C6.18277 11.9055 6.24647 11.5434 6.39089 11.2107C6.53532 10.8779 6.75639 10.5841 7.03604 10.3531C7.3157 10.1222 7.64603 9.96016 8.00005 9.88123Z" fill="url(#paint0_linear_328_38002)"/>
<path d="M16.0001 14.1188V13.2L13.2001 15.1999L16.0001 17V16.182C18.2425 15.9801 20.0002 14.0951 20.0002 11.8C20.0002 9.36993 18.0302 7.3999 15.6001 7.3999C14.5925 7.3999 13.2001 7.75431 12.4 8.59992C11.4 9.75434 10.208 12.6615 10.208 12.6615L13.7789 10.3475C14.0196 10.0762 14.3211 9.86566 14.6587 9.73307C14.9963 9.60047 15.3604 9.54961 15.7215 9.58463C16.0824 9.61964 16.4301 9.73955 16.736 9.93459C17.0417 10.1296 17.2972 10.3941 17.4812 10.7066C17.6653 11.0191 17.7728 11.3708 17.7952 11.7329C17.8174 12.0949 17.7537 12.457 17.6092 12.7898C17.4648 13.1224 17.2437 13.4163 16.9641 13.6474C16.6844 13.8782 16.3542 14.0398 16.0001 14.1188Z" fill="url(#paint1_linear_328_38002)"/>
<defs>
<linearGradient id="paint0_linear_328_38002" x1="5.9608" y1="8.66669" x2="10.5816" y2="19.0214" gradientUnits="userSpaceOnUse">
<stop stop-color="#0076EF"/>
<stop offset="0.13" stop-color="#007FF6"/>
<stop offset="0.258" stop-color="#0084F6"/>
<stop offset="0.376" stop-color="#008BF9"/>
<stop offset="0.492" stop-color="#009DF9"/>
<stop offset="0.612" stop-color="#00AEF9"/>
<stop offset="0.731" stop-color="#00B9FA"/>
<stop offset="0.829" stop-color="#00C5FB"/>
<stop offset="1" stop-color="#00CCFC"/>
</linearGradient>
<linearGradient id="paint1_linear_328_38002" x1="18.9924" y1="15.4002" x2="13.3924" y2="7.40003" gradientUnits="userSpaceOnUse">
<stop stop-color="#0076EF"/>
<stop offset="0.13" stop-color="#007FF6"/>
<stop offset="0.258" stop-color="#0084F6"/>
<stop offset="0.376" stop-color="#008BF9"/>
<stop offset="0.492" stop-color="#009DF9"/>
<stop offset="0.612" stop-color="#00AEF9"/>
<stop offset="0.731" stop-color="#00B9FA"/>
<stop offset="0.829" stop-color="#00C5FB"/>
<stop offset="1" stop-color="#00CCFC"/>
</linearGradient>
</defs>
</svg>
