<svg width="24" height="24" viewBox="0 0 24 24" fill="none" xmlns="http://www.w3.org/2000/svg">
<path d="M7.49999 9.61634V10.65L10.65 8.4L7.49999 6.375V7.29525C4.97685 7.5225 3 9.6429 3 12.225C3 14.9587 5.21625 17.1749 7.95 17.1749C9.08354 17.1749 10.65 16.7762 11.55 15.8249C12.675 14.5264 14.016 11.2557 14.016 11.2557L9.99885 13.8594C9.72805 14.1646 9.3889 14.4014 9.0091 14.5507C8.62928 14.6999 8.21958 14.757 7.81344 14.7176C7.4073 14.6783 7.01623 14.5434 6.67218 14.3239C6.32812 14.1046 6.0408 13.807 5.83373 13.4555C5.62665 13.1037 5.50564 12.7083 5.48061 12.3009C5.45559 11.8936 5.52724 11.4863 5.68972 11.112C5.85219 10.7376 6.1009 10.4071 6.41551 10.1472C6.73012 9.88742 7.10173 9.70514 7.49999 9.61634Z" fill="url(#paint0_linear_328_38002)"/>
<path d="M16.4999 14.3838V13.3502L13.35 15.6001L16.4999 17.6252V16.7049C19.0226 16.4778 21 14.3572 21 11.7752C21 9.04145 18.7837 6.8252 16.0499 6.8252C14.9164 6.8252 13.35 7.2239 12.4499 8.1752C11.3249 9.4739 9.98389 12.7444 9.98389 12.7444L14.0011 10.1412C14.2718 9.83596 14.611 9.59913 14.9908 9.44997C15.3706 9.30081 15.7803 9.24358 16.1865 9.28298C16.5925 9.32237 16.9837 9.45726 17.3277 9.67668C17.6717 9.89602 17.9592 10.1936 18.1662 10.5452C18.3733 10.8967 18.4942 11.2924 18.5193 11.6997C18.5443 12.107 18.4727 12.5144 18.3102 12.8887C18.1477 13.2629 17.899 13.5936 17.5844 13.8535C17.2698 14.1132 16.8983 14.295 16.4999 14.3838Z" fill="url(#paint1_linear_328_38002)"/>
<defs>
<linearGradient id="paint0_linear_328_38002" x1="5.20587" y1="8.25" x2="10.4042" y2="19.8989" gradientUnits="userSpaceOnUse">
<stop stop-color="#0076EF"/>
<stop offset="0.13" stop-color="#007FF6"/>
<stop offset="0.258" stop-color="#0084F6"/>
<stop offset="0.376" stop-color="#008BF9"/>
<stop offset="0.492" stop-color="#009DF9"/>
<stop offset="0.612" stop-color="#00AEF9"/>
<stop offset="0.731" stop-color="#00B9FA"/>
<stop offset="0.829" stop-color="#00C5FB"/>
<stop offset="1" stop-color="#00CCFC"/>
</linearGradient>
<linearGradient id="paint1_linear_328_38002" x1="19.8663" y1="15.8254" x2="13.5662" y2="6.82534" gradientUnits="userSpaceOnUse">
<stop stop-color="#0076EF"/>
<stop offset="0.13" stop-color="#007FF6"/>
<stop offset="0.258" stop-color="#0084F6"/>
<stop offset="0.376" stop-color="#008BF9"/>
<stop offset="0.492" stop-color="#009DF9"/>
<stop offset="0.612" stop-color="#00AEF9"/>
<stop offset="0.731" stop-color="#00B9FA"/>
<stop offset="0.829" stop-color="#00C5FB"/>
<stop offset="1" stop-color="#00CCFC"/>
</linearGradient>
</defs>
</svg>
