<svg width="24" height="24" viewBox="0 0 24 24" fill="none" xmlns="http://www.w3.org/2000/svg">
<path d="M20.2429 13.9059L20.2218 13.9323C20.2112 13.943 20.2006 13.9536 20.19 13.964L13.9535 20.1846C13.4314 20.7056 12.7241 20.998 11.9868 20.998C11.2493 20.998 10.542 20.7056 10.02 20.1846L8.29941 18.4694C8.26144 18.4313 8.2339 18.3843 8.21944 18.3325C8.20499 18.2809 8.2041 18.2263 8.21687 18.1742C8.22964 18.122 8.25563 18.0741 8.29234 18.0348C8.32906 17.9957 8.37526 17.9667 8.42646 17.9506C10.0086 17.498 11.5224 16.8338 12.9265 15.9759C15.6742 14.2023 18.1147 13.514 20.2429 13.9112V13.9059ZM18.9353 8.78644C21.2383 9.51172 20.9682 11.2059 21 11.873C18.48 10.5493 15.4465 11.0364 11.9047 13.3236C9.25765 15.0335 7.05 15.7376 5.26588 15.4411C3.48176 15.1394 3.07941 12.9582 3 12.3812C4.95881 13.3711 7.58471 12.8047 10.8829 10.6764C13.9535 8.69113 16.6324 8.06113 18.9353 8.78644ZM13.9588 3.80996L15.5734 5.42995C15.6126 5.46997 15.6403 5.51977 15.6536 5.57413C15.667 5.6285 15.6655 5.68546 15.6492 5.73903C15.633 5.79259 15.6026 5.84081 15.5614 5.87866C15.5201 5.91649 15.4695 5.94253 15.4148 5.95408C13.0747 6.43055 11.2005 7.11879 9.79761 8.01879C7.38881 9.5753 5.33999 10.2953 3.64588 10.1894L10.02 3.81526C10.542 3.29444 11.2493 3.00195 11.9868 3.00195C12.7241 3.00195 13.4314 3.29444 13.9535 3.81526L13.9588 3.80996Z" fill="url(#paint0_linear_328_35647)"/>
<defs>
<linearGradient id="paint0_linear_328_35647" x1="12" y1="2.99996" x2="11.8253" y2="33.3511" gradientUnits="userSpaceOnUse">
<stop stop-color="#3068EF"/>
<stop offset="1" stop-color="#1322AC"/>
</linearGradient>
</defs>
</svg>
