<svg width="24" height="24" viewBox="0 0 24 24" fill="none" xmlns="http://www.w3.org/2000/svg">
<path d="M20.3812 5.81249C20.7188 5.81249 21 5.58751 21 5.25C21 4.9125 20.7188 4.6875 20.3812 4.6875H3.61875C3.28124 4.6875 3 4.9125 3 5.25C3 5.58751 3.225 5.81249 3.5625 5.81249H11.4374V18.75C11.4374 18.8992 11.4967 19.0422 11.6023 19.1476C11.7077 19.2532 11.8509 19.3125 11.9999 19.3125C12.1492 19.3125 12.2922 19.2532 12.3978 19.1476C12.5032 19.0422 12.5625 18.8992 12.5625 18.75V5.81249H20.3812Z" fill="#000563"/>
<path d="M9.18748 6.9375H3.5625C3.24187 6.9375 3 7.15688 3 7.5C3 7.84313 3.24187 8.06249 3.5625 8.06249H8.62498V12.5625H4.18687C3.88312 12.5625 3.5625 12.7988 3.5625 13.125C3.5625 13.4512 3.82124 13.6874 4.12499 13.6874H8.62498V18.1874H3.5625C3.24187 18.1874 3 18.4068 3 18.75C3 19.0931 3.24187 19.3124 3.5625 19.3124H9.18748C9.41249 19.3124 9.55306 19.1775 9.65438 18.9749C9.71056 18.8738 9.74994 18.75 9.74994 18.6149V7.63499C9.74994 7.49437 9.71056 7.35937 9.63746 7.2525C9.53626 7.06687 9.4012 6.9375 9.18748 6.9375ZM20.4375 8.06249C20.7581 8.06249 21 7.84313 21 7.5C21 7.15688 20.7581 6.9375 20.4375 6.9375H14.8687C14.6493 6.9375 14.4637 7.06687 14.3624 7.2525C14.2893 7.36499 14.25 7.49437 14.25 7.63499V18.6149C14.25 18.7444 14.2837 18.8681 14.3457 18.9749C14.4468 19.1775 14.5874 19.3124 14.8125 19.3124H20.4375C20.7581 19.3124 21 19.0931 21 18.75C21 18.4068 20.7581 18.1874 20.4375 18.1874H15.3749V13.6874H19.8749C20.1787 13.6874 20.4375 13.4512 20.4375 13.125C20.4375 12.7988 20.1787 12.5625 19.8749 12.5625H15.3749V8.06249H20.4375Z" fill="#000563"/>
</svg>
