<svg width="24" height="24" viewBox="0 0 24 24" fill="none" xmlns="http://www.w3.org/2000/svg">
<path fill-rule="evenodd" clip-rule="evenodd" d="M12.3458 20C10.3058 19.6 6.26187 17.784 6.39788 13.744H6.40588C6.36588 12.944 6.73388 10.932 8.52987 9.30399C10.7778 7.26799 11.2859 6.588 11.1939 4C12.0138 4.48 13.6539 5.924 13.6938 7.84C13.6859 8.15599 13.6058 8.97999 13.3498 9.73999C13.0259 10.692 13.5619 11.492 14.3618 11.532C15.1698 11.568 15.7618 11.008 15.8138 10.02C16.4539 10.66 17.7099 12.388 17.5979 14.196C17.4539 16.4559 16.3299 17.2639 15.6299 17.692C15.4143 17.8246 15.1278 17.9334 14.8104 18.0538C13.9501 18.3805 12.8631 18.7932 12.3458 20ZM15.5698 5.81599V6.392C15.5658 6.488 15.4778 6.76399 15.1698 7.07599C14.8658 7.392 14.7899 7.87599 14.7899 8.07599C14.7884 8.36684 14.879 8.6507 15.0484 8.88703C15.218 9.12338 15.458 9.3001 15.7338 9.39198C15.8369 9.11382 16.0226 8.87378 16.2658 8.70399C16.5859 8.52799 16.5939 8.13599 16.5859 7.944C16.4798 7.14534 16.1242 6.40059 15.5698 5.81599ZM8.79805 12.4V14H11.198V16.8H12.798V14H15.198V12.4H8.79805Z" fill="url(#paint0_linear_328_43705)"/>
<defs>
<linearGradient id="paint0_linear_328_43705" x1="14.7903" y1="5.13143" x2="6.34821" y2="16.6862" gradientUnits="userSpaceOnUse">
<stop stop-color="#EE6833"/>
<stop offset="1" stop-color="#F2A23E"/>
</linearGradient>
</defs>
</svg>
