<svg width="24" height="24" viewBox="0 0 24 24" fill="none" xmlns="http://www.w3.org/2000/svg">
<path d="M11.508 11.4968H11.4985V11.4874C12.7503 9.29432 13.9928 7.09659 15.254 4.90827C15.2729 4.87063 15.2917 4.83298 15.3011 4.79533L15.0563 4.77651L16.0588 4L15.9646 5.24711L15.7529 5.05416C14.4058 7.2472 12.9902 9.39736 11.508 11.5015V11.4968ZM14.5339 5.74595C14.36 5.97185 14.1528 6.0142 13.894 5.90596C12.5754 5.34008 11.1083 5.21947 9.71499 5.56241C9.21615 5.68478 8.72673 5.85419 8.25611 6.06596C8.06788 6.15068 7.86081 6.21657 7.63492 6.26361C7.55021 6.28244 7.45139 6.31068 7.36667 6.31539C8.07729 7.70367 8.82554 9.08725 9.48439 10.5038C8.65142 9.00724 7.79022 7.52955 6.93841 6.04714C6.92431 6.02832 6.95254 6.01891 6.96666 6.02832C7.08901 6.08949 7.22079 6.11303 7.36197 6.09891C7.51726 6.08479 7.67257 6.05655 7.81845 6.0142C8.0867 5.9436 8.31729 5.8589 8.51965 5.76948C9.24274 5.43432 10.0096 5.20302 10.7974 5.0824C11.3668 5.0071 11.8468 4.98358 12.2375 5.01181C13.0328 5.07299 13.8281 5.37417 14.5339 5.74595Z" fill="url(#paint0_linear_328_38039)"/>
<path d="M18.2285 11.5161C18.2332 11.9868 18.2756 12.4479 18.3132 12.9186C18.332 13.1302 18.4213 13.5633 18.5908 13.6903C16.975 13.6534 15.3663 13.4644 13.786 13.1255C15.2589 13.1255 16.7413 13.408 18.2144 13.4174C18.2379 13.4174 18.2567 13.3938 18.2473 13.3703C18.1679 13.1752 18.1203 12.9687 18.1062 12.7586C18.059 12.3538 18.1062 11.935 18.045 11.5303C17.8702 10.117 17.2351 8.80063 16.2378 7.78423C16.1107 7.65717 15.9554 7.46892 15.9319 7.30891C15.9225 7.2148 15.8848 7.1442 15.8661 7.05008C15.8613 7.02184 15.8425 7.32774 15.8331 7.36067C15.7672 7.54892 15.7154 7.69481 15.5883 7.87834C15.323 8.23563 15.1062 8.62648 14.9436 9.04074C14.8401 9.30428 14.746 9.56781 14.6566 9.84078C14.3177 10.8479 13.5082 11.6761 13.2918 12.7256C13.0001 13.7632 13.0034 14.8616 13.3013 15.8974C13.5701 16.8484 14.1542 17.6799 14.9577 18.2552C15.0989 18.3588 15.2542 18.4669 15.4189 18.5705C15.4707 18.6034 15.5225 18.6553 15.5648 18.7257C15.7013 18.9281 15.2636 18.8999 15.179 18.8952C14.7319 18.8717 14.3036 18.7917 13.8942 18.6599C13.7248 18.6081 13.5506 18.5565 13.4001 18.4858C13.9635 18.904 14.6103 19.196 15.2966 19.3424C14.2613 19.8599 13.1648 19.9306 12.0165 19.9917C11.7248 20.0105 11.4329 19.9965 11.1458 19.9588C10.8823 19.9211 10.6658 19.7282 10.727 19.4505C10.7694 19.2623 10.7834 19.0646 10.774 18.8575C10.7106 18.3177 10.5079 17.8036 10.1858 17.3658C10.0163 17.107 9.80935 16.9468 9.49402 16.9798C9.10048 17.0499 8.73398 17.2273 8.43515 17.4928C7.95042 17.8693 7.461 18.2458 6.91511 18.5376C6.63273 18.6882 6.30331 18.7776 5.988 18.8575C5.85152 18.8859 5.71506 18.8952 5.57387 18.8765C5.41386 18.8529 5.39975 18.6034 5.41386 18.4858C5.46092 18.0152 5.60681 17.4928 5.83741 17.074L6.45861 15.921C6.87274 15.1587 7.67278 14.1609 8.49163 13.8597C8.58575 13.8268 8.63281 13.9303 8.63752 14.0009C8.66575 14.3304 8.30809 14.7162 8.07279 14.8951C7.66806 15.2056 7.34335 15.535 7.29629 16.0574C7.25941 16.3145 7.15371 16.5569 6.9904 16.7587C6.79274 17.0411 6.6092 17.3422 6.42567 17.634C6.82568 17.2104 7.19275 16.7257 7.56453 16.2693C7.95984 15.7798 8.24691 15.2668 8.76928 14.8809C8.97164 14.7397 9.19754 14.6456 9.41873 14.528C9.60696 14.4339 10.0587 14.1045 9.73872 13.8692C9.5505 13.7327 9.3199 13.6526 9.04694 13.6338C8.7081 13.6009 8.45397 13.535 8.25632 13.248C8.06056 12.9582 7.95121 12.6187 7.94101 12.2691C7.94101 12.0808 7.97396 11.8926 8.04925 11.7232C8.14829 11.4918 8.33261 11.3076 8.56395 11.2086C8.79531 11.1095 9.05591 11.1034 9.29165 11.1914C9.60226 11.2949 9.79991 11.582 10.1388 11.6338L10.3741 11.6808C10.4211 11.6949 10.4446 11.7279 10.44 11.7749C10.4117 12.1232 10.7035 12.2456 10.7694 12.5703C10.7882 12.6927 10.6988 12.8103 10.6329 12.9091C10.5199 13.088 10.7318 13.0974 10.7647 13.2198C10.8258 13.4833 10.6752 13.8692 10.6282 14.1327C10.8164 13.8974 10.887 13.5256 10.9905 13.2573C11.1411 12.8527 11.3294 12.5185 11.593 12.1891C11.8848 11.8362 12.2894 11.5726 12.5671 11.2103C12.9954 10.6361 13.4613 10.0996 13.8141 9.47841C14.073 9.00779 14.2943 8.55602 14.4636 8.10894C14.5719 7.83599 14.7742 7.61481 14.9202 7.35598C15.0143 7.18655 15.1083 6.9889 15.1883 6.77713C15.2402 6.64537 15.3906 6.41477 15.5648 6.53242C16.6472 7.28538 17.4002 8.26424 17.8191 9.4737C18.0402 10.1184 18.1767 10.7961 18.2237 11.5161H18.2285Z" fill="url(#paint1_linear_328_38039)"/>
<defs>
<linearGradient id="paint0_linear_328_38039" x1="15.7661" y1="8.30768" x2="8.47765" y2="18.3891" gradientUnits="userSpaceOnUse">
<stop stop-color="#0149DC"/>
<stop offset="1" stop-color="#920BBD"/>
</linearGradient>
<linearGradient id="paint1_linear_328_38039" x1="15.7663" y1="8.30823" x2="8.47785" y2="18.3897" gradientUnits="userSpaceOnUse">
<stop stop-color="#0149DC"/>
<stop offset="1" stop-color="#920BBD"/>
</linearGradient>
</defs>
</svg>
