<svg width="24" height="24" viewBox="0 0 24 24" fill="none" xmlns="http://www.w3.org/2000/svg">
<path fill-rule="evenodd" clip-rule="evenodd" d="M17.455 17.4565C16.008 18.9034 14.0454 19.7164 11.9991 19.7164C9.95265 19.7164 7.99013 18.9034 6.54313 17.4565C5.09612 16.0095 4.2832 14.0469 4.2832 12.0006C4.2832 9.95412 5.09612 7.9916 6.54313 6.5446C7.99013 5.09759 9.95265 4.28467 11.9991 4.28467C14.0454 4.28467 16.008 5.09759 17.455 6.5446C18.9019 7.9916 19.7149 9.95412 19.7149 12.0006C19.7149 14.0469 18.9019 16.0095 17.455 17.4565ZM14.163 13.8913C15.1576 13.6781 16.1301 13.5634 17.081 13.5306C17.5133 13.5213 17.9424 13.6071 18.3379 13.782C18.4472 13.8257 18.4472 13.8803 18.3542 13.9405C17.3998 14.5614 16.338 14.9987 15.2231 15.2302C14.6766 15.3394 14.6439 15.5252 15.1521 15.7874C15.6493 16.0443 16.0973 16.3503 16.4853 16.711C16.5783 16.7985 16.5618 16.8476 16.4307 16.864C14.9771 17.0443 13.764 16.5853 12.529 15.8694C12.4253 15.8147 12.3651 15.8367 12.3433 15.9514C12.223 16.5198 11.9061 17.8203 11.3542 18.0825C11.3419 18.0891 11.3279 18.0914 11.3141 18.0896C11.3004 18.0877 11.2877 18.0813 11.2777 18.0716C11.2693 18.0617 11.2645 18.0491 11.2645 18.0362C11.2645 18.0231 11.2693 18.0105 11.2777 18.0005C11.7073 17.3947 11.9763 16.6896 12.0591 15.9514C12.0621 15.9282 12.0585 15.9048 12.0488 15.8837C12.0392 15.8623 12.0239 15.8442 12.0044 15.8312C11.9854 15.818 11.9634 15.81 11.9403 15.8081C11.9174 15.8063 11.8942 15.8104 11.8734 15.8202C10.5345 16.4978 9.30501 17.0553 7.74215 16.875C7.7211 16.872 7.70128 16.8634 7.68489 16.8498C7.66847 16.8363 7.65616 16.8185 7.64927 16.7985C7.64347 16.7794 7.64295 16.7592 7.64776 16.7399C7.65258 16.7207 7.66254 16.7031 7.67658 16.6891C8.04502 16.3488 8.46334 16.0668 8.91702 15.8531C9.51812 15.5689 9.49631 15.3612 8.84052 15.2355C7.68441 15.0215 6.58606 14.5672 5.61647 13.9022C5.60463 13.8952 5.59449 13.8857 5.58677 13.8742C5.57908 13.8629 5.57398 13.8499 5.5719 13.8364C5.56981 13.8227 5.57076 13.8089 5.57469 13.7957C5.57862 13.7826 5.58542 13.7704 5.59462 13.7601C5.60799 13.7465 5.62509 13.737 5.6438 13.7328C6.97713 13.3339 8.51813 13.6236 9.87883 13.9022C10.0646 13.9405 10.0864 13.9022 9.93888 13.7766C8.62078 12.6562 7.58546 11.2409 6.91703 9.64543C6.67112 9.04428 6.82412 8.90767 7.38151 9.241C8.75334 10.0496 9.96323 11.1057 10.9499 12.3558C11.0754 12.5196 11.1137 12.5033 11.0591 12.3011C10.8917 11.7474 10.8395 11.1653 10.9061 10.5908C10.9523 10.3035 10.9946 10.0205 11.0365 9.74029C11.2177 8.52791 11.3912 7.36772 11.8351 6.14264C11.8673 6.04898 11.9337 5.97093 12.0209 5.92405C12.0368 5.91586 12.0545 5.91108 12.0725 5.90998C12.0904 5.90886 12.1084 5.91146 12.1254 5.91763C12.1422 5.92378 12.1577 5.93333 12.1707 5.94573C12.1837 5.95811 12.1942 5.97305 12.2012 5.98963C12.5673 6.86394 12.846 7.76013 13.0373 8.70001C13.197 9.47202 13.1873 10.2811 13.1777 11.0847C13.1735 11.4359 13.1694 11.7861 13.1793 12.1317C13.1848 12.2793 13.234 12.2956 13.327 12.1864C14.3994 10.8896 15.7133 9.81335 17.1957 9.01697C17.469 8.87488 17.5509 8.94592 17.4362 9.23553C16.8995 10.5745 16.1422 11.8138 15.1958 12.9021C14.9103 13.2481 14.564 13.5389 14.1739 13.7601C14.159 13.7686 14.1463 13.7804 14.1369 13.7946C14.1273 13.8089 14.1213 13.8252 14.1192 13.8421C14.117 13.8511 14.117 13.8605 14.1192 13.8695C14.1302 13.8913 14.1465 13.8967 14.163 13.8913Z" fill="#62850B"/>
<path fill-rule="evenodd" clip-rule="evenodd" d="M18.364 18.364C16.6762 20.0518 14.387 21 12.0001 21C9.61304 21 7.32387 20.0518 5.63604 18.364C3.9482 16.6762 3 14.387 3 12.0001C3 9.61304 3.9482 7.32387 5.63604 5.63604C7.32387 3.9482 9.61304 3 12.0001 3C14.387 3 16.6762 3.9482 18.364 5.63604C20.0518 7.32387 21 9.61304 21 12.0001C21 14.387 20.0518 16.6762 18.364 18.364ZM17.8693 17.8693C16.3128 19.4261 14.2014 20.3006 12.0001 20.3006C9.79855 20.3006 7.68729 19.4261 6.13063 17.8693C4.57397 16.3128 3.69945 14.2014 3.69945 12.0001C3.69945 9.79855 4.57397 7.68729 6.13063 6.13063C7.68729 4.57397 9.79855 3.69945 12.0001 3.69945C14.2014 3.69945 16.3128 4.57397 17.8693 6.13063C19.4261 7.68729 20.3006 9.79855 20.3006 12.0001C20.3006 14.2014 19.4261 16.3128 17.8693 17.8693Z" fill="#62850B"/>
</svg>
