<svg width="24" height="24" viewBox="0 0 24 24" fill="none" xmlns="http://www.w3.org/2000/svg">
<path d="M4.22614 3.09573C3.63573 3.09573 3.06951 3.33027 2.65203 3.74775C2.23454 4.16523 2 4.73146 2 5.32187C2 5.91227 2.23454 6.4785 2.65203 6.89598C3.06951 7.31346 3.63573 7.548 4.22614 7.548H5.3392C5.92961 7.548 6.49583 7.31346 6.91331 6.89598C7.3308 6.4785 7.56534 5.91227 7.56534 5.32187C7.56534 4.73146 7.3308 4.16523 6.91331 3.74775C6.49583 3.33027 5.92961 3.09573 5.3392 3.09573H4.22614ZM12.1061 3.09629H19.809C20.3933 3.10553 20.9505 3.3441 21.3603 3.76053C21.7703 4.17696 22 4.73784 22 5.32215C22 5.90645 21.7703 6.46735 21.3603 6.88376C20.9505 7.30019 20.3933 7.53876 19.809 7.548H15.0146C14.5888 7.548 14.2432 7.89305 14.2432 8.31938V18.6725C14.2431 19.2646 14.0076 19.8323 13.589 20.2508C13.1702 20.6694 12.6025 20.9044 12.0103 20.9043C11.4183 20.9042 10.8507 20.6687 10.4321 20.2501C10.0136 19.8313 9.77857 19.2634 9.7787 18.6714C9.78363 15.1447 9.79143 8.3734 9.79143 5.27734C9.79143 4.42362 10.2394 3.09629 12.1061 3.09629Z" fill="#F8CF03"/>
</svg>
