<svg width="24" height="24" viewBox="0 0 24 24" fill="none" xmlns="http://www.w3.org/2000/svg">
<path d="M11.9999 3V7.47747C11.2399 7.47757 10.4921 7.66922 9.82578 8.0347C9.15942 8.40018 8.5959 8.92771 8.18727 9.56855C7.77867 10.2094 7.53816 10.9429 7.48795 11.7012C7.43776 12.4595 7.5795 13.2185 7.90007 13.9075C8.22065 14.5966 8.70973 15.1939 9.32213 15.6439C9.93446 16.0941 10.6504 16.3826 11.4039 16.4829C12.1573 16.5832 12.9238 16.492 13.6325 16.2177C14.3414 15.9434 14.9697 15.495 15.4592 14.9137L18.8849 17.7936C18.0421 18.7997 16.9886 19.6083 15.799 20.1624C14.6092 20.7163 13.3123 21.0023 11.9999 21C9.61302 21 7.32384 20.0517 5.63603 18.3638C3.94819 16.6761 3 14.3869 3 11.9999C3 9.61304 3.94819 7.32384 5.63603 5.63603C7.32384 3.94819 9.61302 3 11.9999 3ZM16.2467 13.5637L20.4487 15.1162C20.263 15.6057 20.0436 16.0782 19.7737 16.5336L15.9093 14.2781C16.0425 14.0503 16.1554 13.8113 16.2467 13.5637ZM20.8592 10.4362C20.9549 10.9425 21 11.4657 21 11.9999H16.5224C16.5224 11.73 16.4999 11.4712 16.4549 11.2124L20.8649 10.4362H20.8592ZM17.8106 5.13186C18.2155 5.46936 18.5811 5.8406 18.9186 6.2456L15.4762 9.10871C15.309 8.90566 15.1246 8.71746 14.925 8.54622L17.8106 5.13186Z" fill="url(#paint0_linear_328_43823)"/>
<defs>
<linearGradient id="paint0_linear_328_43823" x1="4.86106" y1="7.11104" x2="19.2449" y2="16.2492" gradientUnits="userSpaceOnUse">
<stop stop-color="#4CCB88"/>
<stop offset="1" stop-color="#30C7B4"/>
</linearGradient>
</defs>
</svg>
