<svg width="24" height="24" viewBox="0 0 24 24" fill="none" xmlns="http://www.w3.org/2000/svg">
<path d="M5.81348 5.95154L5.86884 9.84928C13.7345 6.37183 17.7789 12.1676 18.8184 15.5005L20.7655 15.7365C20.578 14.9638 20.1843 14.1815 20.0109 13.8866H20.9999C20.7638 12.8997 19.8487 11.7349 19.4207 11.2761L20.2565 10.9265C19.6611 9.89053 18.3908 8.98049 17.8298 8.65567L18.5439 8.13089C17.5649 7.16097 16.1651 6.68533 15.5872 6.56897L16.0255 6.03459C15.3896 5.74649 13.4893 5.73293 12.6182 5.76231V4.78223C11.4957 4.81781 9.86034 5.57646 9.18305 5.95154L9.1164 4.83814C8.3391 5.19402 7.29745 6.21873 6.87435 6.68647L5.81348 5.95154Z" fill="#8A71EA"/>
<path d="M8.48316 8.46418C8.56393 8.28624 8.44983 8.20545 8.38317 8.18738C9.85524 7.66938 10.7896 7.64339 11.0726 7.69535C10.4236 8.82175 8.41651 9.27366 8.24929 9.14543C8.08208 9.0172 8.38317 8.68674 8.48316 8.46418ZM12.6469 8.63364C15.146 8.73419 17.2367 10.5853 17.97 11.4982L18.4134 12.3597C15.9674 12.6851 14.4179 11.6049 13.9485 11.0243C13.7356 10.7605 13.8332 10.6599 13.9485 10.6277C14.9206 10.3565 15.7035 10.6503 15.9736 10.831C16.9147 11.5117 17.5361 11.7598 17.7288 11.7982C17.5485 11.6981 17.0304 11.3649 16.3978 10.8305C15.7651 10.2967 15.0676 10.234 14.7975 10.2696C13.5169 10.4446 12.3866 10.2905 11.9815 10.1922C11.1619 9.93741 9.70392 9.35218 10.4293 9.04997C11.154 8.74832 12.2097 8.64664 12.6469 8.63364ZM17.3022 13.045C18.1722 13.4324 18.7094 14.7791 18.9008 15.5541C18.8314 15.5541 17.8683 15.5858 17.3954 15.6016C15.9776 15.0552 15.0387 13.2719 14.9201 13.045C14.7053 12.6347 14.9648 12.5455 15.1206 12.5522C16.0414 12.5794 16.9588 12.8918 17.3022 13.045ZM15.08 15.4795C15.1561 15.5982 15.1811 15.8965 15.1839 16.0309C15.4342 15.8626 16.0522 15.762 16.33 15.7331C15.6911 15.2502 15.2748 15.11 15.1833 15.1993C15.1173 15.2428 15.0031 15.3609 15.08 15.4795Z" fill="#8A71EA"/>
<path fill-rule="evenodd" clip-rule="evenodd" d="M3 8.78711L6.4108 12.6102C6.49384 12.6927 6.64524 12.8746 6.59326 12.9436C6.54072 13.0125 6.19502 12.8622 6.02894 12.7781C6.0617 13.1593 6.04871 14.0321 5.73406 14.471C5.41885 14.9098 4.8003 15.8759 4.52972 16.3041C4.50148 16.3509 4.44837 16.4894 4.46532 16.6668C4.46876 16.7023 4.47172 16.7463 4.47518 16.7978C4.49328 17.0671 4.52492 17.5377 4.70991 18.049C4.86617 18.4822 5.08319 18.3875 5.48779 18.211C5.53809 18.1891 5.59129 18.1658 5.64764 18.1422C6.15659 17.9281 11.1558 14.679 11.4609 14.471C11.766 14.2626 12.3332 13.6326 12.158 12.7781C11.94 11.7104 11.3259 11.3115 10.556 11.3115C9.9402 11.3115 9.0511 11.4235 8.68392 11.48C8.25404 11.5387 7.19713 11.5195 6.4108 10.9659C5.62505 10.4123 3.81005 9.28252 3 8.78711ZM8.46416 12.6615C8.94093 12.4458 9.27873 12.922 9.19005 12.9356C8.81835 12.9904 8.46416 13.1039 8.19584 13.3653C8.12241 13.4365 8.00773 12.8678 8.46416 12.6615Z" fill="#8A71EA"/>
<path d="M10.3304 15.8121C10.7473 17.2548 10.1282 18.6835 9.7661 19.2173C12.0313 17.1938 13.7796 16.4414 14.371 16.3182C15.3624 12.6249 13.1 11.102 12.7012 10.9794C12.3815 10.8812 12.3883 11.0551 12.4318 11.1546C13.3695 13.809 11.4218 15.3652 10.3304 15.8121ZM8.00701 9.72541C6.9631 9.73104 6.46487 9.4695 6.34623 9.33789L6.21631 9.4328C6.57163 9.98807 6.86876 10.3536 7.3252 10.6168C7.84545 10.9162 8.62783 10.8286 9.05093 10.7411C10.7038 10.566 11.4432 11.1359 11.632 11.1506C11.7828 11.1619 11.7427 10.9992 11.7042 10.9162C11.0151 9.73218 9.31191 9.71807 8.00701 9.72541Z" fill="#8A71EA"/>
</svg>
