<svg width="24" height="24" viewBox="0 0 24 24" fill="none" xmlns="http://www.w3.org/2000/svg">
<path d="M5.17641 11.2939L4 12.235C4 8.94105 6.32459 4.4707 11.5008 4.4707C14.1877 4.4707 16.1499 5.50123 17.6181 6.91763L18.0651 6.82822L17.8205 7.12467C19.2476 8.63099 20.0294 10.6355 19.9992 12.7103C19.9992 16.2865 18.9028 18.7429 18.3522 19.5288C15.764 18.5876 15.2935 16.2348 15.2935 15.2936C15.2935 14.7572 15.4394 14.3666 15.6041 13.9431C15.7923 13.4443 15.9852 12.9409 15.9852 11.9997C15.9852 11.5291 15.8818 10.3527 15.1711 9.14338L10.5879 12.6397V12.7103C10.5876 13.1675 10.4394 13.6124 10.1653 13.9784C9.8912 14.3444 9.506 14.6119 9.06728 14.7408C8.62857 14.8697 8.1599 14.8532 7.7314 14.6936C7.30288 14.534 6.93753 14.24 6.68997 13.8555C6.44243 13.4711 6.32597 13.0168 6.35804 12.5607C6.39008 12.1045 6.56893 11.6711 6.86784 11.325C7.16673 10.9789 7.56962 10.7389 8.01624 10.6408C8.46287 10.5428 8.92923 10.592 9.3456 10.7809L14.583 8.33402C13.8112 7.48701 12.5971 6.82351 10.7949 6.82351C7.03043 6.82351 5.49168 9.80691 5.17641 11.2939Z" fill="url(#paint0_linear_328_43916)"/>
<defs>
<linearGradient id="paint0_linear_328_43916" x1="4.65409" y1="9.17633" x2="19.4768" y2="9.64689" gradientUnits="userSpaceOnUse">
<stop stop-color="#101BAB"/>
<stop offset="1" stop-color="#111B38"/>
</linearGradient>
</defs>
</svg>
