<svg width="24" height="24" viewBox="0 0 24 24" fill="none" xmlns="http://www.w3.org/2000/svg">
<path d="M4.5912 3.75186C4.28916 4.10532 4.28916 4.60014 4.28916 5.58335C4.28916 6.56658 4.28916 7.05497 4.5912 7.40842L4.71974 7.53694C5.06674 7.8454 5.568 7.88397 6.57049 7.95464C10.1863 8.20675 13.8151 8.20675 17.431 7.95464C18.4335 7.88397 18.9346 7.8454 19.2817 7.53694L19.4102 7.40842C19.7122 7.05497 19.7122 6.56658 19.7122 5.57693C19.7122 4.5937 19.7122 4.09888 19.4102 3.74544C19.3704 3.69976 19.3273 3.65683 19.2817 3.61691C18.9283 3.30846 18.4206 3.2699 17.4116 3.19921C15.9979 3.10282 14.0571 3 12.0008 3C9.94425 3 8.00997 3.10282 6.58977 3.19279C5.57443 3.2699 5.07318 3.30846 4.71974 3.61691C4.67404 3.65683 4.6311 3.69976 4.5912 3.74544V3.75186ZM19.5129 12.7358C19.4359 12.0931 19.4038 11.7654 19.1018 11.5341C18.8061 11.3091 18.4591 11.3414 17.7844 11.4119C17.476 11.4441 17.1225 11.4826 16.7112 11.5405C16.3578 11.5855 16.03 11.6562 15.7345 11.7397C15.1368 11.9132 14.8347 11.9968 14.3849 12.5816C13.9286 13.1663 13.9286 13.6356 13.9286 14.5737V19.6826C13.9286 20.2994 13.9286 20.6143 14.1342 20.8071C14.3335 21 14.6611 21 15.3167 21H17.0453C18.1249 21 18.6584 21 19.0568 20.653C19.4552 20.3059 19.5001 19.824 19.5901 18.8664C19.7758 16.8256 19.75 14.7712 19.5129 12.7358ZM4.89967 11.5341C4.59763 11.7654 4.56549 12.0868 4.48838 12.7358C4.24955 14.7711 4.22371 16.8258 4.41126 18.8664C4.50123 19.8304 4.5398 20.3059 4.94466 20.653C5.34308 21 5.87645 21 6.95607 21H8.68474C9.34027 21 9.6679 21 9.86719 20.8071C10.0728 20.6143 10.0728 20.2994 10.0728 19.6826V14.5737C10.0728 13.6291 10.0728 13.1599 9.62292 12.5816C9.16034 11.9903 8.86467 11.9068 8.26703 11.7333C7.97143 11.6498 7.64368 11.579 7.29024 11.5276L6.21706 11.4119C5.53587 11.3477 5.19527 11.3091 4.89967 11.5405V11.5341Z" fill="#178DD0"/>
</svg>
