<svg width="24" height="24" viewBox="0 0 24 24" fill="none" xmlns="http://www.w3.org/2000/svg">
<path fill-rule="evenodd" clip-rule="evenodd" d="M5.21191 6.54743C5.22355 9.52391 5.24779 14.5538 6.41191 16.0621C7.66816 17.6902 9.43736 18.6667 10.6466 19.3334C11.0451 19.553 11.3825 19.7397 11.6212 19.9045C11.7932 20.0238 12.0454 20.0354 12.2175 19.9162C12.552 19.6845 13.0305 19.4168 13.5688 19.1152C14.9627 18.3346 16.7536 17.3319 17.4562 16.1644C18.506 14.4205 18.712 9.64993 18.7876 6.59397C18.7955 6.27398 18.5273 6.01798 18.2088 6.01992C15.6876 6.0335 13.4713 5.09871 12.3708 4.16488C12.1283 3.95882 11.7588 3.93991 11.513 4.1421C9.65556 5.67325 7.3947 5.95107 5.75591 5.99277C5.61083 5.9958 5.47269 6.05548 5.37103 6.15905C5.26937 6.26261 5.21227 6.40231 5.21191 6.54743ZM6.90888 7.59615C6.92052 9.70232 7.1227 14.1853 7.8398 15.2679C8.41337 16.1344 9.78163 16.8354 10.7973 17.3566C11.3685 17.649 11.8282 17.8846 11.9736 18.0606C12.203 17.8463 12.683 17.5883 13.2439 17.2873C14.2412 16.7521 15.4945 16.0786 16.0498 15.2679C16.6785 14.3492 17.0428 9.79881 17.0907 7.59615C14.7547 7.74695 12.7062 6.55471 11.9736 5.93943C10.4933 7.18307 7.9804 7.56222 6.90888 7.59615Z" fill="#3274C0"/>
</svg>
