<svg width="24" height="24" viewBox="0 0 24 24" fill="none" xmlns="http://www.w3.org/2000/svg">
<path fill-rule="evenodd" clip-rule="evenodd" d="M20.4705 12C20.4705 14.2465 19.5782 16.401 17.9896 17.9896C16.4011 19.5782 14.2465 20.4705 12 20.4705C9.75351 20.4705 7.59892 19.5782 6.01038 17.9896C4.42185 16.401 3.52941 14.2465 3.52941 12C3.52941 9.75339 4.42185 7.59892 6.01038 6.01038C7.59892 4.42184 9.75351 3.52941 12 3.52941C14.2465 3.52941 16.4011 4.42184 17.9896 6.01038C19.5782 7.59892 20.4705 9.75339 20.4705 12ZM21 12C21 14.387 20.0518 16.6761 18.364 18.3639C16.6761 20.0518 14.387 21 12 21C9.61306 21 7.32386 20.0518 5.63603 18.3639C3.94821 16.6761 3 14.387 3 12C3 9.61306 3.94821 7.32386 5.63603 5.63603C7.32386 3.94821 9.61306 3 12 3C14.387 3 16.6761 3.94821 18.364 5.63603C20.0518 7.32386 21 9.61306 21 12ZM12.5295 16.7647V15.7059H11.4705C10.1999 15.7059 9.88234 14.647 9.88234 14.1177V9.35293C9.88234 8.50588 10.9412 8.29411 11.4705 8.29411H12.5295C13.8 8.29411 14.1177 9.35293 14.1177 9.88236V10.4118H15.7059V9.35293C15.7059 7.65881 13.5882 7.23529 12.5295 7.23529H11.4705C8.92941 7.23529 8.29411 8.64881 8.29411 9.35293V14.1177C8.29411 16.2352 10.4118 16.7647 11.4705 16.7647H12.5295ZM15.7059 12H12V13.0588H14.1177V16.7647H15.7059V12Z" fill="#E3BA4F"/>
</svg>
