<svg width="24" height="24" viewBox="0 0 24 24" fill="none" xmlns="http://www.w3.org/2000/svg">
<path d="M12.4594 9.5127C12.284 9.5127 12.068 9.80069 11.9781 9.94914C11.9061 9.84573 11.7261 9.63417 11.5866 9.59816C11.4112 9.55322 11.1501 9.68824 11.0196 9.46325C10.8891 9.24724 10.6732 8.68029 10.3672 8.5948C10.1197 8.5228 9.21979 9.03125 8.79233 9.29224C8.76533 9.36423 8.71134 9.57118 8.71134 9.81864C8.71134 10.1247 8.92732 11.0381 8.92732 11.1686C8.92732 11.3035 8.62135 11.6095 8.71134 11.956C8.76355 12.1567 8.76355 12.3673 8.71134 12.5679C8.62135 12.8469 8.45486 13.4679 8.49085 13.7469C8.53585 14.0979 8.88232 14.5792 9.05781 15.0156C9.23329 15.4522 9.10281 16.0641 9.27379 16.5456C9.45378 17.0226 10.4977 18.2914 10.5832 18.3769C10.6732 18.4669 10.8891 18.3769 11.1952 18.5974C11.4381 18.7729 11.2401 19.8663 11.1051 20.3883C11.4201 20.2127 11.5551 19.8798 11.5866 19.7314L11.4966 21.0002C11.8476 20.7572 12.023 20.0553 12.068 19.7314L12.5 20.0824C12.4071 19.7117 12.3631 19.3304 12.3694 18.9484C12.4145 18.5524 12.9364 18.4669 13.2874 18.3769C13.6339 18.2914 14.6373 16.5456 14.6373 16.4151C14.6373 16.2801 14.5924 15.8436 14.6373 15.4072C14.6824 14.9707 15.3348 14.0574 15.3798 13.7469C15.4247 13.4408 15.3798 13.5759 15.2448 13.1349C15.1188 12.6984 15.0738 12.352 15.2448 12.0864C15.4247 11.8255 15.0738 11.6095 15.0288 11.173C14.9973 10.8221 15.0468 10.3541 15.0738 10.1651C15.0738 9.94914 15.1638 9.72866 15.0738 9.29224C15.0064 8.94127 13.9713 8.68029 13.463 8.5948C12.9815 8.6398 12.896 9.29224 12.896 9.5127C12.896 9.72866 12.6755 9.5127 12.4594 9.5127Z" fill="#4E5069"/>
<path d="M11.9869 10.1104L11.906 9.99795C11.8745 9.95291 11.816 9.87648 11.7485 9.80897C11.6765 9.74146 11.6135 9.6919 11.5685 9.68297C11.4756 9.67804 11.3825 9.67804 11.2896 9.68297C11.231 9.68297 11.168 9.68298 11.1095 9.65149C11.0402 9.6246 10.9816 9.57557 10.9431 9.51195L10.8441 9.32299C10.79 9.22403 10.736 9.12503 10.6821 9.02601C10.6325 8.93601 10.574 8.85952 10.5155 8.79653C10.4689 8.74107 10.4083 8.69911 10.3401 8.67504C10.3134 8.66982 10.2858 8.66982 10.259 8.67504C10.0628 8.73071 9.87166 8.80297 9.68764 8.89102C9.39067 9.03952 9.0757 9.21948 8.86871 9.34998C8.84172 9.43097 8.79672 9.61096 8.79672 9.81789C8.81714 10.1214 8.86381 10.4225 8.93621 10.7179L8.98121 10.9293C8.99372 11.01 9.00422 11.0911 9.01271 11.1723C9.01271 11.2038 9.0037 11.2309 8.9947 11.2624C8.9766 11.3094 8.95401 11.3545 8.92721 11.3973L8.86421 11.5187C8.80123 11.6538 8.75623 11.7888 8.79223 11.9373C8.86872 12.2298 8.82822 12.4908 8.79223 12.5942C8.74723 12.7292 8.68873 12.9542 8.63923 13.1791C8.59423 13.4041 8.56273 13.6156 8.57624 13.7371C8.59874 13.8946 8.68873 14.0881 8.80123 14.3085L8.87771 14.448C8.96771 14.6235 9.06669 14.808 9.1387 14.9834C9.22868 15.213 9.24218 15.4919 9.25567 15.7484V15.7575C9.26468 16.0274 9.27817 16.2884 9.35918 16.5133C9.39967 16.6213 9.49417 16.7833 9.61564 16.9722C9.93338 17.441 10.279 17.8903 10.6506 18.3177C10.6506 18.3177 10.6596 18.3267 10.6911 18.3312L10.7541 18.3402L10.8215 18.3536C10.9341 18.3717 11.078 18.4077 11.2445 18.5247C11.294 18.5607 11.3255 18.6147 11.348 18.6731C11.3705 18.7272 11.3795 18.7946 11.3885 18.8666C11.402 19.0107 11.3975 19.1861 11.3795 19.3706C11.3526 19.6406 11.2985 19.933 11.2445 20.1715C11.4065 20.014 11.483 19.8116 11.501 19.7171L11.6719 19.7396L11.6 20.7745C11.69 20.6619 11.7575 20.518 11.816 20.365C11.906 20.1265 11.9599 19.8745 11.978 19.7216L12.0005 19.5686L12.3649 19.8611L12.3154 19.5506C12.284 19.3346 12.266 19.1052 12.284 18.9387C12.3109 18.6957 12.4864 18.5562 12.6798 18.4662C12.8679 18.3879 13.0641 18.3305 13.2648 18.2952C13.3111 18.2758 13.3525 18.2467 13.3863 18.2097C13.4403 18.1557 13.5078 18.0837 13.5753 17.9982C13.7192 17.8227 13.8723 17.5933 14.0208 17.3683C14.2111 17.0619 14.3868 16.7464 14.5472 16.4234V16.2794C14.5338 16.0859 14.5157 15.7394 14.5472 15.3974C14.5653 15.276 14.6192 15.1275 14.6868 14.97C14.7543 14.817 14.8442 14.646 14.9342 14.4885L14.9927 14.3761L15.1727 14.0341C15.2402 13.8991 15.2852 13.7955 15.2941 13.7371C15.3167 13.5796 15.3122 13.5571 15.2941 13.5211L15.2807 13.476C15.235 13.3737 15.196 13.2685 15.1637 13.1611C15.0332 12.7247 14.9748 12.3377 15.1772 12.0363C15.2042 11.9985 15.2153 11.9518 15.2087 11.9058C15.1996 11.8608 15.1772 11.8022 15.1412 11.7348L15.1142 11.6762C15.0255 11.524 14.9675 11.3559 14.9433 11.1813C14.9072 10.8214 14.9567 10.3533 14.9882 10.1599C14.9894 10.0891 14.9954 10.0184 15.0063 9.94839L15.0197 9.80445C15.0287 9.67395 15.0287 9.51646 14.9882 9.30949C14.9792 9.25999 14.9252 9.19249 14.8173 9.1205C14.6868 9.04093 14.5479 8.97603 14.4033 8.92701C14.0838 8.81002 13.7103 8.72454 13.4583 8.67954C13.2693 8.70204 13.1523 8.84152 13.0803 9.02151C13.0038 9.20149 12.9813 9.40847 12.9813 9.51195C12.9813 9.57043 12.9678 9.64697 12.8914 9.68297C12.8627 9.69422 12.8317 9.69737 12.8014 9.6919C12.7557 9.67888 12.7107 9.66387 12.6664 9.64697H12.6618C12.6381 9.63889 12.614 9.63142 12.5898 9.6245C12.5466 9.60822 12.501 9.59909 12.4549 9.59742C12.4222 9.60098 12.391 9.61348 12.3649 9.63342C12.3289 9.65599 12.2885 9.6919 12.2479 9.73243C12.167 9.82241 12.095 9.92141 12.0544 9.99344L11.9869 10.1059V10.1104ZM13.4628 8.59405C13.9712 8.68404 15.0063 8.94052 15.0736 9.29149C15.1366 9.59742 15.1097 9.79543 15.0917 9.96194C15.0827 10.034 15.0736 10.097 15.0736 10.1644C15.0467 10.3533 14.9972 10.8214 15.0287 11.1723C15.0512 11.3613 15.1277 11.5098 15.1907 11.6358C15.2807 11.8067 15.3482 11.9373 15.2492 12.0857C15.0736 12.3512 15.1142 12.6977 15.2492 13.1341C15.2941 13.2961 15.3301 13.377 15.3571 13.4356C15.4022 13.5345 15.4067 13.5526 15.3797 13.7506C15.3616 13.8855 15.2222 14.1375 15.0647 14.421C14.8757 14.772 14.6598 15.1635 14.6372 15.411C14.6057 15.7394 14.6238 16.0679 14.6327 16.2659L14.6372 16.4144C14.6372 16.5448 13.6338 18.2906 13.2873 18.3762L13.1883 18.4032C12.8463 18.4842 12.4099 18.5877 12.3694 18.9432C12.3587 19.3271 12.4044 19.7107 12.5044 20.0815L12.068 19.7306L12.0499 19.834C11.9938 20.2293 11.8357 20.6031 11.591 20.9184C11.564 20.9499 11.5325 20.9769 11.501 20.9994L11.5865 19.7306C11.5731 19.7981 11.5416 19.897 11.4786 20.0005C11.3906 20.1605 11.2618 20.2939 11.105 20.3875L11.1365 20.266C11.2625 19.7126 11.42 18.7587 11.1951 18.5967C11.0105 18.4617 10.8575 18.4437 10.7451 18.4302C10.673 18.4212 10.6191 18.4122 10.5831 18.3762C10.4931 18.2906 9.44917 17.0263 9.27817 16.5448C9.18819 16.3019 9.17919 16.0319 9.16569 15.7665C9.15669 15.4964 9.14319 15.2354 9.0577 15.0149C8.99021 14.844 8.89571 14.6641 8.80123 14.493C8.65783 14.2625 8.55296 14.0103 8.49075 13.7461C8.45476 13.4671 8.62573 12.8462 8.71123 12.5672C8.73823 12.4772 8.77873 12.2343 8.71123 11.9553C8.65273 11.7258 8.76522 11.5098 8.84622 11.3569C8.89121 11.2803 8.92721 11.2128 8.92721 11.1723C8.92721 11.1183 8.89121 10.9474 8.85072 10.7313C8.78772 10.4074 8.71123 10.0025 8.71123 9.81789C8.71123 9.57042 8.76522 9.36798 8.79672 9.29149C9.21968 9.03051 10.1196 8.52655 10.3671 8.59405C10.6055 8.66155 10.79 9.02601 10.925 9.28699L11.0195 9.46701C11.1095 9.61096 11.2536 9.60192 11.393 9.59301C11.4605 9.58849 11.528 9.58397 11.5865 9.59742C11.699 9.6245 11.834 9.76393 11.9239 9.87196L11.978 9.94839L12.0275 9.86745C12.1355 9.71447 12.3109 9.50744 12.4594 9.50744C12.5404 9.50744 12.6258 9.54344 12.6979 9.57042C12.8103 9.61547 12.8959 9.64697 12.8959 9.51195C12.8959 9.29149 12.9813 8.63454 13.4628 8.59405Z" fill="black"/>
<path d="M8.97156 8.06718C9.07506 8.27866 8.97156 8.92659 8.88158 9.24607C9.34789 8.96849 9.84659 8.74937 10.3664 8.59363C10.4204 8.40464 10.5464 7.86019 10.4114 7.54522C10.2314 7.14926 9.57902 6.80279 9.49352 6.53731C9.42153 6.33033 9.46203 5.02544 9.49352 4.39999C9.723 4.79146 10.2314 5.52489 10.407 5.31792C10.6275 5.05243 10.146 3.69805 9.97043 3.52257C9.7995 3.35158 9.40352 2.73964 8.5756 3.22111C7.74767 3.69805 8.00865 6.93327 8.18413 7.27974C8.35962 7.63072 8.83658 7.80619 8.97156 8.06718Z" fill="#B77539"/>
<path fill-rule="evenodd" clip-rule="evenodd" d="M9.57001 4.53048C9.82649 4.93544 10.2539 5.5024 10.407 5.31792C10.6275 5.05244 10.146 3.69806 9.97043 3.52257L9.90744 3.45508C9.7095 3.2301 9.31353 2.78914 8.5756 3.2211C7.74767 3.69806 8.00865 6.93327 8.18413 7.27974C8.27413 7.46873 8.45861 7.60821 8.62959 7.7297C8.77358 7.8422 8.90857 7.94569 8.97156 8.06717C9.06156 8.25616 8.98956 8.78712 8.91308 9.12908L8.88158 9.24608L8.98956 9.18758C9.42602 8.93559 10.056 8.66113 10.3664 8.59363C10.4204 8.40465 10.5464 7.8602 10.4114 7.54523C10.2755 7.31655 10.0949 7.11761 9.88049 6.96028C9.7005 6.8028 9.53402 6.6633 9.49352 6.53731C9.43053 6.34382 9.45752 5.21892 9.48453 4.55748L9.49352 4.4L9.57452 4.53499L9.57001 4.53048ZM10.2944 8.51714C10.3214 8.42264 10.3574 8.26966 10.3755 8.10767C10.3934 7.90969 10.3889 7.71621 10.3304 7.58121C10.2828 7.48277 10.2188 7.39302 10.1415 7.31574C10.0418 7.21402 9.93674 7.11788 9.82649 7.02777C9.7365 6.95127 9.6555 6.88378 9.58802 6.81179C9.51075 6.74514 9.44927 6.66214 9.40803 6.56881C9.39 6.4495 9.37797 6.32936 9.37203 6.20883V5.62389C9.37203 5.19192 9.39003 4.70597 9.40352 4.3955L9.41703 4.10303L9.56552 4.35501C9.6825 4.54848 9.86699 4.82746 10.0379 5.02994C10.1279 5.12894 10.2044 5.20543 10.2674 5.24142C10.2989 5.25943 10.3214 5.26392 10.3304 5.26392H10.3395C10.3529 5.24592 10.3664 5.21892 10.371 5.16044C10.3799 5.10644 10.3799 5.03895 10.371 4.95795C10.297 4.51612 10.1638 4.08628 9.97495 3.68006C9.95752 3.64773 9.93642 3.61754 9.91195 3.59007L9.83549 3.50458C9.7455 3.40559 9.63751 3.2841 9.48002 3.2031C9.28654 3.10412 9.01207 3.06812 8.62509 3.2931C8.53511 3.34259 8.45861 3.42809 8.39112 3.55858C8.32362 3.68457 8.26963 3.84205 8.22464 4.02653C8.13914 4.3955 8.09865 4.84996 8.08964 5.29992C8.08272 5.87192 8.12033 6.4436 8.20214 7.00977C8.22464 7.13576 8.24713 7.21225 8.26063 7.24375C8.34161 7.39674 8.48561 7.51373 8.64759 7.63971L8.67909 7.66221C8.74659 7.71621 8.81408 7.76571 8.87258 7.8197C8.94457 7.8782 9.00756 7.95018 9.04806 8.03118C9.08406 8.09867 9.09306 8.19317 9.09755 8.29216C9.09146 8.55361 9.06287 8.81405 9.01207 9.07059C9.20105 8.96709 9.41703 8.86361 9.62401 8.76911C9.87599 8.65662 10.119 8.56214 10.2989 8.51714H10.2944Z" fill="black"/>
<path d="M14.9741 8.03155C14.8707 8.23853 14.8886 8.84147 14.9741 9.15644C14.3757 8.76948 13.7952 8.66149 13.4623 8.594C13.392 8.2306 13.4184 7.85511 13.5387 7.5051C13.7097 7.11363 14.3667 6.76265 14.4522 6.50168C14.5242 6.2902 14.4837 4.98532 14.4522 4.35987C14.2226 4.75584 13.7097 5.48477 13.5387 5.27779C13.3182 5.01681 13.7997 3.65793 13.9752 3.48695C14.1462 3.31146 14.5421 2.69951 15.37 3.18098C16.198 3.66243 15.937 6.89315 15.7615 7.24413C15.586 7.59509 15.1091 7.77057 14.9741 8.03155Z" fill="#B77539"/>
<path fill-rule="evenodd" clip-rule="evenodd" d="M14.3712 4.49442C14.1192 4.89939 13.6962 5.46634 13.5387 5.27736C13.3182 5.01639 13.7997 3.6575 13.9752 3.48651L14.0382 3.41451C14.2362 3.18954 14.6321 2.75307 15.37 3.18055C16.198 3.66201 15.937 6.89271 15.7615 7.24369C15.6715 7.43267 15.487 7.56766 15.3161 7.69365C15.1721 7.80613 15.0371 7.90962 14.9741 8.03112C14.8741 8.39941 14.8741 8.78771 14.9741 9.15601L14.8707 9.09302C14.458 8.85622 14.0073 8.6933 13.5387 8.61156L13.4623 8.59356C13.392 8.23016 13.4184 7.85468 13.5387 7.50466C13.6287 7.29767 13.8582 7.09969 14.0651 6.91971C14.2452 6.76672 14.4116 6.62274 14.4522 6.50124C14.5152 6.30777 14.4882 5.18286 14.4612 4.51692L14.4522 4.35944L14.3712 4.49442ZM13.5342 8.51706C13.512 8.37877 13.5044 8.2385 13.5117 8.09861C13.5208 7.89612 13.5568 7.68465 13.6153 7.54065C13.6557 7.45516 13.7187 7.36968 13.8042 7.27968C13.8897 7.18969 13.9842 7.10419 14.0832 7.01871L14.1237 6.98721C14.2092 6.91521 14.2901 6.84322 14.3577 6.77572C14.4342 6.69923 14.5061 6.61374 14.5376 6.52825L14.5602 6.38426L14.5736 6.16827V5.58333C14.5736 5.15586 14.5557 4.66992 14.5421 4.35494L14.5287 4.06696L14.3801 4.31445C14.2632 4.51243 14.0787 4.7869 13.9077 4.98938C13.8177 5.08837 13.7412 5.16936 13.6783 5.20536C13.6594 5.21786 13.6377 5.22557 13.6153 5.22787L13.6062 5.22336C13.5927 5.20986 13.5792 5.17836 13.5747 5.12436C13.5675 5.05706 13.5675 4.98919 13.5747 4.92189C13.6487 4.48006 13.7819 4.05022 13.9707 3.644L14.0336 3.5495L14.1102 3.46851C14.2002 3.36952 14.3082 3.24354 14.4657 3.16704C14.6592 3.06804 14.9337 3.03205 15.3206 3.25703C15.4106 3.30203 15.487 3.39201 15.5545 3.52251C15.622 3.6485 15.676 3.80598 15.721 3.99047C15.8065 4.35494 15.847 4.80939 15.856 5.26386C15.8629 5.83587 15.8253 6.40754 15.7435 6.9737C15.721 7.0952 15.6986 7.17168 15.685 7.20318C15.6041 7.36067 15.46 7.47765 15.298 7.59915L15.2665 7.62615L15.0731 7.77914C15.0011 7.84213 14.9382 7.91413 14.8976 7.99061C14.8637 8.06926 14.8424 8.15279 14.8347 8.2381C14.8109 8.4854 14.817 8.73466 14.8526 8.98053C14.4482 8.7596 14.0106 8.60611 13.5568 8.52606L13.5342 8.51706Z" fill="black"/>
<path d="M12.1529 9.90221C12.1619 9.8662 12.1799 9.81224 12.2249 9.7672C12.2789 9.67722 12.3464 9.59617 12.4139 9.59617C12.5489 9.59617 12.6748 9.59617 12.7648 9.64121C12.8503 9.68624 12.8953 9.59617 12.9358 9.55123C12.9808 9.50619 12.9808 8.89877 13.2418 8.76829C13.4532 8.6603 13.6198 8.6918 13.6782 8.7233C13.6062 8.75029 13.4172 8.83578 13.2418 8.93927C13.0257 9.07426 13.0662 9.68174 12.9358 9.68174H12.4139C12.3239 9.68174 12.2654 9.71774 12.2249 9.76268C12.1975 9.80741 12.1735 9.85402 12.1529 9.90221ZM8.84117 9.33523C9.01215 9.16425 9.24612 9.08776 9.35412 9.07426C9.11565 9.11026 8.97165 9.33523 8.92666 9.44323V10.0731L8.83666 9.98768V9.33523H8.84117ZM12.9358 13.0024V13.2229C12.7918 13.1195 12.4994 12.863 12.4994 12.6559C12.4994 12.3905 12.8053 12.0844 12.9808 11.999C13.1202 11.9269 13.1562 11.7064 13.1562 11.6076C13.1562 11.0136 13.5027 10.3972 13.6782 10.1676C13.6198 10.3387 13.3722 11.6525 13.3273 11.8685C13.2822 12.0844 12.9808 12.1745 12.8053 12.4354C12.6704 12.647 12.8368 12.9034 12.9403 13.0024H12.9358ZM9.97504 11.6076C9.83109 11.4275 9.74108 11.4186 9.70959 11.4275L9.66459 11.6076C9.88957 11.6076 10.1055 12.2194 10.1461 12.3905C10.191 12.5704 10.191 12.7864 10.164 12.962C10.137 13.1329 10.3665 13.3534 10.452 13.3534C10.542 13.3534 10.6275 13.3534 10.6275 13.2634C10.6275 13.1779 10.452 13.0924 10.3665 12.962C10.2765 12.8269 10.3665 12.6964 10.3215 12.3905C10.2771 12.1027 10.1558 11.8323 9.97052 11.6076H9.97504ZM9.18764 11.432L9.01215 11.2115C8.94015 11.3465 8.78717 11.63 8.75117 11.7379C8.70618 11.8685 8.79617 12.26 8.79617 12.3905C8.79617 12.5254 8.75117 12.6964 8.66118 12.9169C8.57568 13.1329 8.57568 13.5289 8.57568 13.7898C8.57568 14.0509 8.88166 14.5772 9.01215 14.7527L9.40812 15.2747V15.0992L8.70618 13.7044C8.62068 13.5244 8.88616 13.3984 8.88616 13.0474C8.88616 12.6964 9.05714 12.3049 8.97165 12.044C8.89965 11.8324 9.08415 11.549 9.18764 11.432ZM11.415 13.9654C11.0726 13.8701 10.7212 13.8112 10.3665 13.7898C10.5374 13.8798 10.9425 14.0688 11.1495 14.1408C11.3609 14.2083 11.5859 14.1993 11.6714 14.1859C11.6265 14.1408 11.5139 14.0329 11.4105 13.9609L11.415 13.9654ZM11.1495 14.5323C11.0459 14.4963 10.7264 14.5457 10.5825 14.5772C10.6725 14.6042 10.8795 14.6717 11.019 14.7077C11.1585 14.7437 11.4239 14.7527 11.541 14.7527C11.4509 14.6943 11.253 14.5683 11.1495 14.5323ZM11.3699 15.1442C11.2155 15.0903 11.0502 15.0749 10.8884 15.0992L11.6714 15.4952C11.6444 15.4052 11.541 15.2162 11.3654 15.1442H11.3699ZM10.8435 16.2377C10.668 16.1296 10.3935 15.4367 10.2765 15.0992C10.2765 15.2612 10.2945 15.6257 10.3665 15.8011C10.434 15.9721 10.713 16.1611 10.8435 16.2377ZM10.1055 15.7111L9.92558 15.6662L10.0156 15.8462L10.1055 16.7191L10.2765 16.5391L10.497 17.3716L10.713 16.8901L10.9335 17.6325C10.925 17.2908 10.8643 16.9524 10.7535 16.6291C10.6545 16.4537 10.5374 16.6741 10.497 16.8046C10.497 16.6876 10.488 16.4267 10.452 16.3231C10.416 16.2196 10.263 16.2781 10.191 16.3231L10.101 15.7111H10.1055Z" fill="#EBC630"/>
<path d="M9.53906 16.5449L9.49407 15.7125L9.35908 15.6676C9.35008 15.9015 9.33659 16.4144 9.40407 16.5855C9.49407 16.806 10.367 17.8094 10.4075 17.9399C10.4525 18.0748 10.5425 18.2458 10.5875 18.2458C10.9744 18.2908 11.2354 18.5113 11.3253 18.6418C11.3928 18.7453 11.3524 19.5867 11.3253 19.9916C11.3974 19.6317 11.5143 18.8308 11.4154 18.5518C11.3074 18.2728 10.817 18.1468 10.583 18.1153C10.4795 17.6249 9.84054 16.8644 9.53906 16.5404V16.5449ZM12.8103 15.7576C12.6303 15.8251 12.5853 16.0771 12.5853 16.194C12.6618 16.122 12.8238 15.9511 12.8958 15.843C12.9813 15.7125 13.1567 15.843 13.2872 15.6721C13.3908 15.5281 13.5032 15.2311 13.5483 15.1006C13.4658 15.2727 13.3631 15.4344 13.2423 15.582C13.1118 15.717 13.0262 15.6721 12.8057 15.7576H12.8103Z" fill="#EBC630"/>
<path d="M10.7584 10.996C10.7234 10.793 10.6424 10.6006 10.5214 10.4337C10.4006 10.2668 10.2429 10.1298 10.061 10.0332C10.2959 10.3247 10.487 10.6492 10.628 10.996C10.673 11.2571 10.7179 11.914 10.9744 12.13C11.2353 12.3505 11.3253 12.481 11.3253 12.6969C11.3253 12.8769 11.0914 13.147 10.9744 13.2684C11.7619 13.3539 11.8473 13.7048 11.6314 13.8353C11.4513 13.9388 10.6865 13.7903 10.322 13.7003C10.4975 13.8803 11.1949 13.9658 11.4109 13.9658C11.5863 13.9658 11.8023 14.2267 11.8923 14.3572C11.9283 14.1503 11.7574 14.0107 11.6718 13.9658C11.7438 13.9298 11.8204 13.7768 11.8518 13.7048C11.8518 13.3539 11.4109 13.2099 11.1949 13.1784C11.2668 13.1064 11.4198 12.9084 11.4558 12.6969C11.5009 12.4359 11.3209 12.2605 11.1048 12.0849C10.8889 11.914 10.8439 11.6485 10.7584 10.996ZM13.2423 11.0815C13.3142 10.8025 13.5932 10.2671 13.7237 10.0332C13.4709 10.3442 13.2786 10.6998 13.1567 11.0815C13.0848 11.4325 13.1567 11.6081 13.1118 11.6935C12.4998 12.3054 12.4143 12.4359 12.4143 12.6564C12.4143 12.8275 12.5897 13.0749 12.6753 13.1784C12.1983 13.3539 12.0228 13.5744 12.0678 13.7048C12.0993 13.8083 12.1488 13.9208 12.1713 13.9658C12.0093 14.0692 12.0048 14.2718 12.0228 14.3572C12.0678 14.2267 12.2387 13.9658 12.5897 13.9658C12.9362 13.9658 13.3457 13.7903 13.5032 13.7048C13.1118 13.7948 12.3017 13.9118 12.1983 13.7048C12.0903 13.4934 12.6482 13.2954 12.9362 13.2234C12.8057 13.1515 12.5358 12.9354 12.4998 12.6564C12.4548 12.3054 13.0262 11.9995 13.1567 11.824C13.2872 11.6485 13.1567 11.4325 13.2467 11.0815H13.2423ZM11.1048 14.5328C10.8979 14.4653 10.673 14.5328 10.583 14.5777C10.673 14.5058 10.9069 14.3662 11.1499 14.4023C11.3928 14.4383 11.6314 14.7082 11.7168 14.8387C11.5999 14.7667 11.3119 14.6047 11.1048 14.5328ZM11.5863 15.1043C11.4809 15.0417 11.3603 15.0086 11.2377 15.0086C11.1149 15.0086 10.9945 15.0417 10.8889 15.1043C11.0059 15.1043 11.2804 15.1177 11.4558 15.1897C11.6314 15.2572 11.7619 15.5047 11.8023 15.6262C11.8473 15.5226 11.8653 15.2752 11.5863 15.0997V15.1043ZM12.7653 14.4023C12.4143 14.4383 12.2118 14.7082 12.1533 14.8387C12.2838 14.7487 12.5897 14.5688 12.7653 14.5328C12.923 14.504 13.0823 14.4845 13.2423 14.4743C13.2287 14.4338 13.1118 14.3662 12.7653 14.4023ZM12.3693 15.0592C12.1263 15.1627 12.0678 15.4777 12.0678 15.6262C12.1398 15.4911 12.3108 15.2167 12.4143 15.1447C12.5178 15.0728 12.8643 15.0547 13.0262 15.0547C12.9092 15.0098 12.6167 14.9512 12.3693 15.0547V15.0592ZM11.1499 15.6262C11.4288 15.7297 11.4424 16.0762 11.4109 16.2382C11.3209 15.8421 11.0193 15.7116 10.7584 15.6262C10.547 15.5541 10.3535 15.2482 10.277 15.0997C10.1735 15.6937 10.6145 16.1931 10.8439 16.3686C10.1105 16.0536 10.1599 15.0997 10.277 14.6633C10.322 15.2752 10.8034 15.4957 11.1499 15.6262ZM12.7653 15.6262C12.4863 15.7297 12.4458 16.0762 12.4592 16.2382C12.6753 15.6712 13.0262 15.6262 13.1972 15.5362C13.3277 15.4732 13.5167 15.2302 13.5932 15.0592C13.6607 15.8242 13.2423 16.2246 13.0262 16.3236C13.7912 16.0087 13.7507 15.1177 13.6337 14.7037C13.5437 15.2302 13.1118 15.4957 12.7653 15.6262Z" fill="black"/>
<path d="M10.1907 12.9173C10.2583 13.2323 10.4833 13.3403 10.5823 13.3538C10.2763 13.4438 10.1907 13.3088 10.0603 13.1783C9.92532 13.0478 9.79932 13.0028 9.62383 12.9173C9.48434 12.8453 9.47984 12.4224 9.48884 12.2198C9.38986 12.2649 9.16037 12.4179 9.05688 12.6968C8.95339 12.9758 9.10188 13.2817 9.19186 13.3988C9.79932 13.6147 9.75432 13.8757 9.75432 13.9657C9.75432 14.0557 9.70932 14.2266 9.66432 14.4471C9.62383 14.6632 9.53833 15.1896 9.53833 15.365C9.53833 15.5361 9.79932 15.581 9.92984 15.6711C10.0603 15.7566 10.0603 15.932 10.0603 16.1076C10.0603 16.2425 10.0873 16.571 10.1053 16.7195L10.2763 16.5395L10.4968 17.3719L10.7127 16.8905L10.9332 17.6328L11.1041 16.8905L11.3696 17.7228L11.5002 16.805L11.8016 17.5023L11.8916 17.0254L12.0671 17.4619L12.3281 16.805L12.4585 17.7678L12.6971 16.805L12.9355 17.6779L13.156 16.805L13.372 17.3269L13.5925 16.499L13.7635 16.634C13.7635 16.5125 13.7725 16.247 13.8085 16.1076C13.8535 15.9275 14.1999 15.6261 14.3304 15.365C14.4654 15.0996 14.1999 14.5776 14.1594 14.2266C14.1144 13.8757 14.2044 13.7902 14.4204 13.5743C14.6363 13.3538 14.8568 13.1783 14.8568 12.8273C14.8568 12.5484 14.5914 12.3324 14.4609 12.2604C14.5509 12.4809 14.4609 12.6114 14.4158 12.6968C14.3754 12.7868 14.1999 12.8319 14.029 12.9624C13.849 13.0928 13.633 13.3988 13.4621 13.3988C13.3225 13.3988 13.255 13.3403 13.2416 13.3088C13.5475 13.3538 13.723 13.0028 13.678 12.7419C13.633 12.4809 13.768 12.1749 13.8535 11.9994C13.9118 11.8743 13.9556 11.743 13.984 11.6079V11.9994C13.984 12.0893 13.849 12.1344 13.8085 12.3909C13.7725 12.6023 13.822 12.8273 13.8535 12.9173C14.029 12.8453 14.3754 12.6474 14.3754 12.4358C14.3754 12.2244 14.1999 12.0578 14.1144 11.9994C14.5914 12.0444 15.0279 12.5663 15.0279 12.7419C15.0279 12.9173 15.0728 13.0928 14.9424 13.3538C14.8074 13.6147 14.3304 13.7047 14.2899 14.0512C14.2449 14.4021 14.5058 15.0996 14.4609 15.365C14.4294 15.5721 14.1009 16.004 13.9389 16.193L13.849 17.0659L13.633 16.76L13.3316 17.7678L13.1515 17.3719L12.9355 18.0289L12.7196 17.3719L12.4136 18.1143L12.238 17.3269L12.0221 18.1818L11.9321 17.5068L11.7612 18.2043L11.6262 17.3269L11.3696 18.1143L11.1492 17.3719L10.9332 18.0289L10.7127 17.3269L10.5372 17.7678L10.2358 16.805L10.0153 17.0659L9.92532 16.193C9.92532 16.1795 9.98832 15.833 9.8848 15.8015C9.75432 15.7566 9.49334 15.6666 9.40786 15.4056C9.31785 15.1446 9.57884 14.3167 9.62383 13.9657C9.66883 13.6147 9.36285 13.6597 9.14237 13.4843C8.92639 13.3088 8.8409 13.0028 8.9714 12.6114C9.07489 12.2964 9.47985 12.1029 9.66883 12.0444C9.65083 12.0714 9.62383 12.1929 9.62383 12.4358C9.62383 12.6789 9.8848 12.8858 10.0153 12.9624V12.2604C9.97424 12.0397 9.88515 11.8307 9.75432 11.6484C10.1053 11.8284 10.1053 12.5258 10.1907 12.9173Z" fill="black"/>
<path d="M7.3119 8.02583C7.1049 7.74236 7.10941 7.29689 7.1409 7.10791C6.39847 7.41389 6.48396 8.02583 6.61445 8.89876C6.74943 9.7717 6.83493 10.0776 6.79443 10.3836C6.74943 10.6897 6.31298 10.7301 6.18249 11.1261C6.0475 11.5174 6.65945 12.3499 6.70444 12.6559C6.74943 12.962 6.35347 12.8269 6.39847 13.5738C6.44346 14.3163 7.53237 14.2713 7.88334 14.4873C8.22981 14.7077 8.22981 15.0992 8.66628 15.1892C9.10273 15.2792 9.27372 15.6256 9.53919 15.8416C9.74617 16.0216 10.2366 16.0891 10.4526 16.1072C10.2187 16.0621 9.69218 15.8686 9.4492 15.4502C9.065 14.8798 8.55753 14.4032 7.96433 14.0554C7.35689 13.6593 7.96433 12.9169 7.87884 12.5704C7.79335 12.2194 6.83493 11.9989 6.92043 11.432C7.01042 10.8651 7.87884 10.0776 7.96883 9.37571C8.05882 8.67828 7.57736 8.3723 7.3119 8.02583Z" fill="white"/>
<path fill-rule="evenodd" clip-rule="evenodd" d="M7.14079 7.10791L7.04629 7.14842C6.40735 7.46339 6.49285 8.06184 6.61434 8.89876L6.71333 9.50617C6.78532 9.94262 6.82131 10.1631 6.78981 10.3836C6.76731 10.5322 6.65483 10.6176 6.52435 10.7167C6.38935 10.8157 6.24537 10.9236 6.18237 11.1216C6.09687 11.3735 6.31286 11.7965 6.49285 12.1564C6.59634 12.359 6.68632 12.5434 6.70432 12.6514C6.72232 12.7774 6.66833 12.8314 6.60084 12.8944C6.50185 12.9935 6.37586 13.1238 6.39836 13.5693C6.42985 14.0914 6.97431 14.2263 7.41526 14.3343C7.60425 14.3793 7.77523 14.4243 7.87873 14.4873C8.02721 14.5773 8.1127 14.7032 8.1937 14.8202C8.30619 14.9821 8.41418 15.1352 8.66616 15.1892C8.97212 15.2477 9.15211 15.4412 9.3231 15.6256C9.39059 15.7022 9.45808 15.7786 9.53907 15.8416C9.63807 15.9316 9.80905 15.9901 9.98905 16.0351C10.1645 16.0757 10.34 16.0981 10.4525 16.1072C10.3489 16.0846 10.1825 16.0351 10.016 15.9497C9.78337 15.8404 9.58667 15.6672 9.44908 15.4502C9.06488 14.8798 8.55742 14.4032 7.96421 14.0554C7.56376 13.7943 7.69423 13.3803 7.80223 13.0339C7.86072 12.8539 7.91023 12.6874 7.87873 12.5659C7.84723 12.4265 7.66724 12.3049 7.47376 12.1745C7.18579 11.981 6.87082 11.7694 6.92031 11.432C6.96531 11.1621 7.17229 10.8517 7.39726 10.5231C7.65375 10.1452 7.91922 9.74923 7.96872 9.37571C8.03621 8.83126 7.75723 8.52529 7.50976 8.25082C7.44027 8.17896 7.37422 8.10389 7.31178 8.02583C7.13179 7.78736 7.11378 7.42288 7.13179 7.20691C7.13179 7.16642 7.13179 7.13492 7.14079 7.10791ZM7.0373 7.25191C6.93094 7.30571 6.83882 7.38388 6.76844 7.48007C6.69806 7.57624 6.65142 7.68771 6.63233 7.80536C6.60176 8.16689 6.62604 8.53098 6.70432 8.88526C6.73582 9.10125 6.76282 9.28573 6.79432 9.43871L6.79881 9.49274C6.82131 9.62765 6.84381 9.7402 6.85281 9.83921C6.88881 10.0642 6.89781 10.2306 6.87531 10.3972C6.84832 10.5816 6.70882 10.6897 6.58734 10.7796L6.56934 10.7931C6.43885 10.8921 6.31736 10.9866 6.26336 11.1531C6.24087 11.225 6.24537 11.333 6.28586 11.4635C6.32186 11.594 6.38485 11.7379 6.45685 11.8865L6.56034 12.1025L6.56934 12.1159L6.65933 12.3049C6.72232 12.4265 6.77632 12.548 6.78981 12.6425C6.79734 12.682 6.79683 12.7228 6.78833 12.7621C6.77982 12.8016 6.76351 12.8389 6.74032 12.8719L6.67732 12.9439L6.66383 12.9574L6.61884 13.0069C6.57833 13.0519 6.54234 13.1014 6.51534 13.1868C6.49285 13.2679 6.47484 13.3894 6.48384 13.5648C6.50185 13.8798 6.73582 14.0373 7.05079 14.1453C7.20743 14.1957 7.36666 14.2378 7.52775 14.2713C7.67624 14.3119 7.82473 14.3523 7.92822 14.4153C8.0902 14.5188 8.18469 14.6582 8.26569 14.7752L8.31068 14.8382C8.40067 14.9642 8.49517 15.0632 8.68415 15.1037C8.92263 15.1487 9.08911 15.2701 9.2241 15.4052L9.38609 15.5672C9.45429 15.637 9.52329 15.706 9.59307 15.7741L9.65157 15.8192C9.54808 15.7292 9.44908 15.6211 9.37259 15.4951C8.99652 14.9363 8.49988 14.4689 7.91922 14.1274C7.84493 14.0833 7.78032 14.0248 7.72928 13.9553C7.67823 13.8856 7.64183 13.8064 7.62225 13.7223C7.59075 13.5739 7.60875 13.4164 7.64475 13.2724C7.66274 13.1824 7.68974 13.0879 7.72124 13.0024L7.76173 12.8675C7.79773 12.7415 7.81123 12.6514 7.79772 12.5884C7.77973 12.5299 7.72573 12.4669 7.62675 12.3905L7.42876 12.2509L7.28478 12.1519C7.16329 12.0665 7.04179 11.972 6.95181 11.8505C6.86181 11.7335 6.80782 11.5895 6.83481 11.4185C6.85732 11.2611 6.93831 11.0901 7.03279 10.9236C7.11829 10.7796 7.22178 10.6267 7.32527 10.4737L7.37026 10.4062C7.49175 10.2261 7.60875 10.0461 7.70323 9.8707C7.79323 9.69516 7.86072 9.52874 7.88322 9.36671C7.92224 9.10383 7.85771 8.83605 7.70323 8.61978C7.63314 8.52314 7.55646 8.43142 7.47376 8.3453L7.44226 8.30931C7.37266 8.23445 7.30659 8.15637 7.24428 8.07533C7.13565 7.91769 7.06906 7.73494 7.05079 7.54438C7.03867 7.44889 7.03416 7.3526 7.0373 7.25641V7.25191Z" fill="black"/>
<path d="M16.689 8.02583C16.896 7.74236 16.8915 7.29689 16.86 7.10791C17.6024 7.41389 17.5169 8.02583 17.3864 8.89876C17.2514 9.7717 17.1659 10.0776 17.2065 10.3836C17.2514 10.6897 17.6879 10.7301 17.8184 11.1261C17.9534 11.5174 17.3414 12.3499 17.2965 12.6559C17.2514 12.962 17.6474 12.8269 17.6024 13.5738C17.5575 14.3163 16.4686 14.2713 16.1176 14.4873C15.7711 14.7077 15.7711 15.0992 15.3346 15.1892C14.8982 15.2792 14.7271 15.6256 14.4617 15.8416C14.2547 16.0216 13.7642 16.0891 13.5483 16.1072C13.7822 16.0621 14.3087 15.8686 14.5517 15.4502C14.9359 14.8798 15.4434 14.4032 16.0366 14.0554C16.6441 13.6593 16.0366 12.9169 16.1221 12.5704C16.2075 12.2194 17.1659 11.9989 17.0805 11.432C16.9905 10.8651 16.1221 10.0776 16.0321 9.37571C15.9421 8.67828 16.4236 8.3723 16.689 8.02583Z" fill="white"/>
<path fill-rule="evenodd" clip-rule="evenodd" d="M16.86 7.10791L16.9545 7.14842C17.5934 7.46339 17.5079 8.06184 17.3864 8.89876L17.2874 9.50617C17.2182 9.79322 17.1926 10.089 17.211 10.3836C17.2335 10.5322 17.3459 10.6176 17.4764 10.7167C17.6114 10.8157 17.7554 10.9236 17.8184 11.1216C17.904 11.3735 17.6879 11.7965 17.5079 12.1564C17.4044 12.359 17.3144 12.5434 17.2965 12.6514C17.2784 12.7774 17.3325 12.8314 17.4 12.8944C17.4989 12.9935 17.6249 13.1238 17.6024 13.5693C17.5709 14.0914 17.0264 14.2263 16.5855 14.3343C16.3965 14.3793 16.2256 14.4243 16.1221 14.4873C15.9736 14.5773 15.8882 14.7032 15.8071 14.8202C15.6947 14.9821 15.5866 15.1352 15.3346 15.1892C15.0287 15.2477 14.8487 15.4412 14.6777 15.6256C14.6105 15.7023 14.5384 15.7745 14.4617 15.8416C14.3582 15.9316 14.1917 15.9901 14.0117 16.0351C13.8363 16.0757 13.6607 16.0981 13.5483 16.1072C13.6518 16.0846 13.8182 16.0351 13.9847 15.9497C14.2174 15.8404 14.4142 15.6672 14.5517 15.4502C14.9359 14.8798 15.4434 14.4032 16.0366 14.0554C16.4371 13.7943 16.3066 13.3803 16.1986 13.0339C16.1402 12.8539 16.0906 12.6874 16.1221 12.5659C16.1536 12.4265 16.3335 12.3049 16.527 12.1745C16.815 11.981 17.1299 11.7694 17.0805 11.432C17.0354 11.1621 16.8285 10.8517 16.6036 10.5231C16.3471 10.1452 16.0816 9.74923 16.0321 9.37571C15.9646 8.83126 16.2436 8.52529 16.491 8.25082L16.689 8.02583C16.869 7.78736 16.887 7.42288 16.869 7.20691C16.869 7.16642 16.869 7.13492 16.86 7.10791ZM16.9634 7.25191C17.0698 7.30571 17.162 7.38388 17.2324 7.48007C17.3028 7.57624 17.3494 7.68771 17.3685 7.80536C17.399 8.16689 17.3747 8.53098 17.2965 8.88526C17.265 9.10125 17.238 9.28573 17.2065 9.43871L17.202 9.49274C17.1795 9.62765 17.1569 9.7402 17.148 9.83921C17.112 10.0642 17.1029 10.2306 17.1254 10.3972C17.1524 10.5816 17.2919 10.6897 17.4134 10.7796L17.4315 10.7931C17.5619 10.8921 17.6835 10.9866 17.7374 11.1531C17.7599 11.225 17.7554 11.333 17.715 11.4635C17.6789 11.594 17.616 11.7379 17.5439 11.8865L17.4404 12.1025L17.4315 12.1159L17.3414 12.3049C17.2784 12.4265 17.2244 12.548 17.211 12.6425C17.1974 12.7415 17.2199 12.8134 17.2604 12.8719L17.3234 12.9439L17.337 12.9574L17.3819 13.0069C17.4224 13.0519 17.4585 13.1014 17.4854 13.1868C17.5079 13.2679 17.526 13.3894 17.5169 13.5648C17.4989 13.8798 17.265 14.0373 16.95 14.1453C16.7934 14.1957 16.6341 14.2378 16.4731 14.2713C16.3246 14.3119 16.1761 14.3523 16.0726 14.4153C15.9106 14.5188 15.8161 14.6582 15.7351 14.7752L15.6901 14.8382C15.6002 14.9642 15.5057 15.0632 15.3167 15.1037C15.0781 15.1487 14.9117 15.2701 14.7767 15.4052L14.6147 15.5672C14.5465 15.637 14.4775 15.706 14.4078 15.7741L14.3492 15.8192C14.4527 15.7292 14.5517 15.6211 14.6282 15.4951C15.0042 14.9363 15.5009 14.4689 16.0816 14.1274C16.2526 14.0148 16.3426 13.8754 16.3786 13.7223C16.4101 13.5739 16.3921 13.4164 16.3561 13.2724C16.3381 13.1824 16.3111 13.0879 16.2796 13.0024L16.239 12.8675C16.2052 12.7785 16.1929 12.683 16.2031 12.5884C16.2211 12.5299 16.2751 12.4669 16.3741 12.3905L16.5721 12.2509L16.716 12.1519C16.8375 12.0665 16.959 11.972 17.049 11.8505C17.139 11.7335 17.1929 11.5895 17.1659 11.4185C17.1306 11.243 17.0635 11.0751 16.9679 10.9236C16.8825 10.7796 16.779 10.6267 16.6755 10.4737L16.6306 10.4062C16.5091 10.2261 16.3921 10.0461 16.2976 9.8707C16.2075 9.69516 16.1402 9.52874 16.1176 9.36671C16.0772 9.04274 16.1671 8.81327 16.2976 8.61978C16.3696 8.5208 16.4461 8.43079 16.527 8.3453L16.5585 8.30931L16.7565 8.07533C16.8735 7.91785 16.9275 7.71986 16.95 7.53988C16.9634 7.43639 16.9634 7.3374 16.9634 7.25191Z" fill="black"/>
<path d="M6.44311 7.76172L8.75141 10.2545C8.76491 10.5424 8.9314 11.1004 8.97189 11.1724C9.01689 11.2579 8.71092 11.5639 8.71092 11.8249C8.71092 12.0364 8.73791 12.3198 8.75591 12.4368C8.76491 12.4818 8.67493 12.5763 8.18446 12.6124C7.69851 12.6484 6.87958 12.3919 6.52861 12.2614C7.05316 12.2517 7.55964 12.0682 7.96849 11.7393C7.20355 11.6674 6.13714 10.9519 5.70068 10.601C6.08315 10.7809 6.76259 10.79 7.05055 10.7809L6.74909 10.2545C6.99207 10.3534 7.48703 10.5424 7.48703 10.4705C7.48703 10.403 6.84808 9.74156 6.52861 9.42208C6.70409 9.1071 6.54211 8.18469 6.43862 7.76172H6.44311Z" fill="#6C6E7A"/>
<path fill-rule="evenodd" clip-rule="evenodd" d="M7.86499 11.8159C7.54052 12.0473 7.1658 12.1984 6.77159 12.2568C6.69059 12.2659 6.6096 12.2659 6.52861 12.2614C7.05316 12.4828 7.61519 12.6018 8.18446 12.6124C8.67493 12.5763 8.76941 12.4773 8.75141 12.4368C8.73791 12.3198 8.70642 12.0318 8.70642 11.8249C8.70642 11.6763 8.8054 11.5188 8.8819 11.3884C8.94039 11.2894 8.9899 11.2084 8.97189 11.1724C8.86306 10.876 8.78907 10.5679 8.75141 10.2545L6.44311 7.76172L6.47911 7.93271C6.5781 8.39617 6.6816 9.1476 6.52861 9.42208C6.79858 9.69201 7.29354 10.205 7.44653 10.3984C7.47352 10.4345 7.49152 10.4614 7.49152 10.4705C7.49152 10.4884 7.45553 10.4884 7.40153 10.4794H7.39702C7.17501 10.4232 6.95824 10.3479 6.74909 10.2545C6.84822 10.4292 6.94871 10.6032 7.05055 10.7764H6.95158C6.61771 10.7862 6.28387 10.7559 5.95717 10.6864C5.86717 10.664 5.77718 10.6369 5.70068 10.601C5.76367 10.6504 5.83567 10.7089 5.92117 10.7674C6.39812 11.1184 7.20355 11.6133 7.847 11.7214L7.96849 11.7393L7.86499 11.8159ZM6.13264 10.8124C6.31263 10.9384 6.52861 11.0735 6.75359 11.1995C7.16755 11.4289 7.60851 11.6178 7.97748 11.6493L8.18896 11.6719L8.02248 11.8068C7.70938 12.0511 7.3471 12.2245 6.96057 12.3153L7.32504 12.4143C7.60327 12.492 7.89111 12.5298 8.17997 12.5268C8.34468 12.5196 8.50721 12.4861 8.66142 12.4279C8.64792 12.2974 8.62093 12.0273 8.62093 11.8249C8.62093 11.6674 8.71091 11.5054 8.7829 11.3884L8.80991 11.3434C8.83771 11.2951 8.86323 11.2456 8.88641 11.1949C8.78732 10.9003 8.71357 10.5977 8.66593 10.2904L6.6006 8.05419C6.6321 8.22968 6.6636 8.42767 6.6816 8.62564C6.69509 8.78764 6.70409 8.94961 6.69509 9.0936C6.68609 9.2106 6.6726 9.31858 6.63661 9.40408C6.91541 9.68645 7.18843 9.97453 7.45553 10.2679C7.49786 10.3211 7.53692 10.3767 7.57252 10.4345L7.58152 10.4705C7.58152 10.5065 7.56352 10.538 7.53652 10.5559C7.51888 10.5669 7.49874 10.5731 7.47803 10.5739C7.45075 10.5745 7.42353 10.5715 7.39702 10.565C7.24676 10.5244 7.09815 10.4778 6.95158 10.4254L7.13156 10.7314L7.20805 10.8574L7.05956 10.8664C6.75107 10.8777 6.44221 10.8596 6.13714 10.8124H6.13264Z" fill="black"/>
<path d="M15.1184 10.0779C15.7708 9.59646 17.1207 8.47161 17.2962 7.80566C17.2063 8.15663 17.1163 8.97557 17.4312 9.46606C17.2242 9.72696 16.7293 10.3029 16.3828 10.5144L17.2108 10.339C17.1973 10.4559 17.1118 10.7169 16.9047 10.8205C17.2512 10.8339 18.0161 10.8114 18.2996 10.6044C17.7866 10.9824 16.6078 11.7383 15.9464 11.7383C16.0633 11.9273 16.4953 12.3052 17.2962 12.3052C16.8732 12.5077 15.8743 12.8362 15.2489 12.5213C15.1904 12.4762 14.9609 12.4087 15.0284 12.3052C15.1184 12.1703 15.3344 12.0848 15.2489 11.9138C15.1442 11.6456 15.0702 11.3663 15.0284 11.0814C14.9969 10.8744 15.0733 10.3254 15.1184 10.0779Z" fill="#6C6E7D"/>
<path fill-rule="evenodd" clip-rule="evenodd" d="M16.5577 10.3884C16.8769 10.1103 17.1677 9.8013 17.4263 9.46606C17.1922 9.10156 17.1877 8.5526 17.2328 8.15213C17.2507 8.01715 17.2777 7.89565 17.2958 7.80566C17.263 7.917 17.2145 8.02306 17.1517 8.12064C16.7422 8.78658 15.6758 9.66848 15.1179 10.0779C15.0728 10.3254 14.9964 10.8744 15.0279 11.0814C15.0728 11.3424 15.1629 11.7383 15.2484 11.9138C15.3069 12.0308 15.2214 12.1118 15.1358 12.1927C15.0954 12.2287 15.0549 12.2648 15.0279 12.3052C14.9783 12.3862 15.0954 12.4402 15.1809 12.4852C15.2078 12.4987 15.2348 12.5122 15.2484 12.5257C15.7973 12.7957 16.6298 12.5797 17.1113 12.3862C17.1832 12.3593 17.2462 12.3323 17.2958 12.3052C17.2282 12.3052 17.1607 12.3052 17.0977 12.2963C16.688 12.2822 16.299 12.1134 16.0088 11.8239C15.9852 11.7957 15.9641 11.7655 15.9459 11.7339H16.0493C16.6028 11.6753 17.4352 11.1939 17.9842 10.8249C18.1056 10.7439 18.2091 10.6674 18.2991 10.6C18.2136 10.663 18.0921 10.7079 17.9482 10.7439C17.6047 10.8127 17.254 10.8385 16.9042 10.8205C16.9476 10.7984 16.9872 10.7695 17.0213 10.7349C17.1247 10.6264 17.1908 10.4876 17.2103 10.339L16.3823 10.5144L16.5623 10.3884H16.5577ZM17.0932 10.4514L16.4003 10.6L16.3373 10.438C16.4993 10.339 16.7018 10.15 16.8953 9.94744C17.0617 9.76749 17.2192 9.58754 17.3227 9.45703C17.187 9.1864 17.1189 8.88681 17.1247 8.5841C17.1247 8.4896 17.1247 8.39512 17.1337 8.30512L17.0438 8.42661C16.8772 8.63809 16.6703 8.85857 16.4453 9.07455C16.0499 9.45042 15.6322 9.80203 15.1944 10.1275C15.1763 10.249 15.1494 10.4289 15.1314 10.6044C15.1088 10.7979 15.0999 10.978 15.1133 11.0679C15.1358 11.1984 15.1673 11.3559 15.2033 11.5089C15.2484 11.6619 15.2844 11.7969 15.3248 11.8688C15.3563 11.9318 15.3608 11.9948 15.3474 12.0488C15.3318 12.0997 15.304 12.146 15.2663 12.1837L15.1088 12.3412L15.1358 12.3638L15.2169 12.4087H15.2214L15.2933 12.4492C15.5813 12.5887 15.9593 12.5887 16.3327 12.5213C16.5443 12.4852 16.7513 12.4268 16.9223 12.3638C16.3283 12.2737 15.9819 11.9678 15.8693 11.7788L15.7884 11.6483H15.9459C16.0943 11.6483 16.2833 11.6034 16.4858 11.5314C16.6973 11.4548 16.9178 11.3514 17.1337 11.2343C17.3587 11.1174 17.5702 10.9869 17.7637 10.8654L17.6332 10.8835C17.3633 10.9104 17.0753 10.915 16.8997 10.9059L16.8638 10.7394C16.9493 10.6989 17.0078 10.627 17.0528 10.5414L17.0932 10.4514Z" fill="black"/>
<path d="M9.83969 12.0453C10.1187 12.2882 10.0737 12.7561 10.0197 12.9632C9.88521 12.9258 9.753 12.8807 9.62371 12.8281C9.53372 12.7831 9.27275 12.7831 8.97127 12.7427C8.7238 12.7067 8.52131 12.3197 8.44482 12.1307C8.5933 12.2027 8.91727 12.3557 9.05676 12.3917C9.23224 12.4366 9.01178 12.1757 8.79578 12.0003C8.62031 11.8608 8.48981 11.2713 8.44482 10.9968C8.51681 11.1273 8.7013 11.4333 8.84078 11.6088C9.01178 11.8248 9.18725 11.9148 9.27275 12.0453C9.36274 12.1757 9.49323 11.9103 9.27275 11.5188C9.05676 11.1273 8.97127 10.9968 8.66531 10.5153C8.47761 10.1674 8.41564 9.76527 8.48981 9.37695C8.53481 9.8584 9.18725 10.3399 9.27275 10.6909C9.36274 11.0374 9.36274 11.2128 9.62371 11.3884C9.83069 11.5278 9.85769 11.8833 9.83969 12.0453ZM13.9388 12.0453C13.6598 12.2882 13.7094 12.7561 13.7678 12.9632C13.8669 12.9317 14.0873 12.8642 14.1593 12.8281C14.2494 12.7831 14.5057 12.7831 14.8118 12.7427C15.0548 12.7067 15.2617 12.3197 15.3337 12.1307C15.1898 12.2027 14.8658 12.3557 14.7262 12.3917C14.5463 12.4366 14.7713 12.1757 14.9872 12.0003C15.1628 11.8608 15.2932 11.2713 15.3337 10.9968C15.2617 11.1273 15.0817 11.4333 14.9423 11.6088C14.7668 11.8248 14.5958 11.9148 14.5057 12.0453C14.4158 12.1757 14.2898 11.9103 14.5057 11.5188C14.7262 11.1273 14.8118 10.9968 15.1178 10.5153C15.3607 10.1284 15.3337 9.59739 15.2932 9.37695C15.2483 9.8584 14.5958 10.3399 14.5057 10.6909C14.4158 11.0374 14.4158 11.2128 14.1593 11.3884C13.9478 11.5278 13.9253 11.8833 13.9388 12.0453Z" fill="#18F5EE"/>
<path d="M11.2894 10.7864C11.6359 10.7458 11.8698 10.9169 11.9418 11.0069C12.0273 10.9303 12.2703 10.7819 12.5493 10.7819C12.8958 10.7819 12.9362 11.1418 12.9362 11.4524C12.9362 11.7673 12.2748 12.3298 11.9418 12.6132C11.5954 12.3432 10.9879 11.8078 10.9429 11.4524C10.9339 11.3623 10.8574 10.8268 11.2894 10.7819V10.7864Z" fill="#836877"/>
<path d="M11.9277 11.1308L11.8737 11.0587C11.7991 10.9844 11.7082 10.9287 11.6082 10.896C11.5082 10.8631 11.402 10.8542 11.2977 10.8697C11.2078 10.8788 11.1538 10.9103 11.1178 10.9507C11.0768 10.9982 11.0488 11.0555 11.0368 11.1172C11.0053 11.2477 11.0233 11.3873 11.0278 11.4322V11.4412C11.0368 11.5087 11.0728 11.5987 11.1403 11.6977C11.2078 11.7967 11.2932 11.9001 11.3922 12.0037C11.5678 12.1881 11.7747 12.3681 11.9367 12.4985C12.0988 12.3591 12.3192 12.1702 12.4992 11.9812C12.6027 11.8732 12.6927 11.7696 12.7557 11.6751C12.8187 11.5762 12.8457 11.4997 12.8457 11.4502C12.8457 11.2928 12.8366 11.1442 12.7917 11.0317C12.7736 10.9836 12.7425 10.9415 12.7017 10.9103C12.6568 10.8794 12.6032 10.8637 12.5488 10.8652C12.2968 10.8652 12.0718 11.0002 11.9952 11.0723L11.9277 11.1308ZM11.9413 12.6111C11.5948 12.3411 10.9873 11.8056 10.9424 11.4502V11.4457C10.9288 11.3377 10.8659 10.8247 11.2888 10.7798C11.4076 10.7639 11.5285 10.7758 11.6416 10.8149C11.7549 10.8541 11.8575 10.9189 11.9413 11.0048L11.9592 10.9867C12.0627 10.9103 12.2877 10.7798 12.5442 10.7798C12.8952 10.7798 12.9357 11.1397 12.9357 11.4502C12.9357 11.7652 12.2742 12.3276 11.9413 12.6111Z" fill="black"/>
</svg>
