<svg width="24" height="24" viewBox="0 0 24 24" fill="none" xmlns="http://www.w3.org/2000/svg">
<path d="M12 4.85352C12.4077 4.85352 12.7412 5.14998 12.8206 5.54175C14.4723 5.70057 16.013 6.35175 17.2942 7.41588C17.3834 7.33423 17.4895 7.27308 17.6049 7.23668C17.7203 7.20027 17.8423 7.18952 17.9623 7.20516C18.0822 7.22079 18.1974 7.26243 18.2996 7.32717C18.4018 7.39191 18.4886 7.47819 18.5542 7.57998C18.6541 7.73722 18.701 7.92251 18.6876 8.10842C18.6743 8.29433 18.6016 8.47101 18.48 8.61234C19.5288 9.91352 20.1697 11.4957 20.3223 13.16C20.5129 13.197 20.6876 13.2976 20.8094 13.4512C20.9365 13.61 21 13.8007 21 13.9964C21 14.4676 20.6241 14.8435 20.1582 14.8435C20.0344 14.8445 19.912 14.8173 19.8 14.764C19.6882 14.7109 19.5899 14.6331 19.5123 14.5365C19.4329 14.4373 19.3766 14.3218 19.3473 14.1981C19.318 14.0746 19.3165 13.946 19.343 13.8217L17.04 12.6889C16.9641 12.7801 16.8696 12.8544 16.7628 12.9064C16.656 12.9584 16.5393 12.9871 16.4206 12.9905C16.3018 12.9954 16.1834 12.9742 16.0737 12.9285C15.964 12.8828 15.8655 12.8136 15.7853 12.7259L12.8311 13.8906C12.8524 14.1022 12.8047 14.3088 12.6882 14.4782C12.578 14.6507 12.4054 14.774 12.2065 14.8223V17.4271C12.3918 17.4694 12.5559 17.5807 12.6724 17.734C12.8028 17.9031 12.8677 18.1135 12.8551 18.3268C12.8424 18.5398 12.753 18.7412 12.6036 18.8935C12.5248 18.9735 12.4307 19.0371 12.3271 19.0805C12.2235 19.1239 12.1123 19.1462 12 19.1462C11.8878 19.1462 11.7764 19.1239 11.6729 19.0805C11.5693 19.0371 11.4753 18.9735 11.3965 18.8935C11.2376 18.7294 11.1424 18.5018 11.1424 18.2741C11.1424 17.8612 11.4229 17.5223 11.7934 17.4271V14.8223C11.5977 14.7693 11.4229 14.653 11.3065 14.4782C11.1926 14.3067 11.1438 14.1002 11.1688 13.8959L8.28355 12.747C8.2096 12.8539 8.11177 12.9421 7.99783 13.0046C7.88388 13.0671 7.75694 13.1022 7.62707 13.107C7.49702 13.1116 7.36774 13.0852 7.24993 13.0299C7.1321 12.9747 7.0291 12.8923 6.94942 12.7894L4.66237 13.8429C4.68422 13.9655 4.67946 14.0913 4.64841 14.212C4.61735 14.3326 4.56073 14.445 4.48236 14.5418C4.40812 14.6311 4.31608 14.704 4.2121 14.7559C4.10812 14.8077 3.99448 14.8373 3.87844 14.8427C3.7624 14.8482 3.64648 14.8295 3.53807 14.7876C3.42967 14.7458 3.33116 14.682 3.24883 14.5999C3.16951 14.5208 3.10667 14.4268 3.06394 14.3231C3.02124 14.2195 2.9995 14.1085 3.00001 13.9964C3.00001 13.8007 3.06884 13.61 3.1906 13.4565C3.31236 13.2976 3.48707 13.197 3.67766 13.16C3.83649 11.487 4.47177 9.92526 5.52001 8.62293C5.43283 8.52202 5.37008 8.4024 5.33659 8.27332C5.30312 8.14425 5.29981 8.00919 5.32696 7.87864C5.35408 7.74808 5.41093 7.62554 5.49306 7.52049C5.57521 7.41546 5.68043 7.33074 5.8006 7.27292C5.94845 7.20583 6.11288 7.18409 6.27309 7.21048C6.43329 7.23687 6.58207 7.31018 6.7006 7.42116C7.96985 6.35736 9.53116 5.70222 11.1794 5.54175C11.2218 5.34587 11.3223 5.17116 11.4706 5.0494C11.6188 4.92234 11.8041 4.85352 12 4.85352ZM11.5711 5.70057C11.5711 5.82235 11.6135 5.93352 11.6982 6.01822C11.7377 6.05906 11.7851 6.09152 11.8374 6.11369C11.8896 6.13586 11.9458 6.14729 12.0026 6.14729C12.0594 6.14729 12.1156 6.13586 12.168 6.11369C12.2203 6.09152 12.2676 6.05906 12.3071 6.01822C12.3681 5.95638 12.4098 5.87799 12.4267 5.79275C12.4437 5.70752 12.4353 5.61916 12.4027 5.53862C12.3701 5.45808 12.3145 5.38888 12.2429 5.33957C12.1714 5.29026 12.0868 5.26301 12 5.26116C11.9426 5.26153 11.8858 5.27345 11.833 5.29618C11.7802 5.31891 11.7327 5.35202 11.6929 5.39352C11.6117 5.47722 11.5662 5.58922 11.5659 5.70587L11.5711 5.70057ZM14.6206 9.1841L17.0294 8.20998C16.9976 7.99821 17.0294 7.84998 17.0665 7.75999C15.8592 6.74097 14.3715 6.11156 12.7994 5.95469C12.7888 5.98645 12.7465 6.1294 12.63 6.26175L14.6259 9.1841H14.6206ZM9.42707 9.16822L11.37 6.27234C11.293 6.17879 11.2354 6.0708 11.2005 5.95469C9.63358 6.10821 8.14589 6.73821 6.93354 7.75999C6.9653 7.84998 6.99177 8.0141 6.9759 8.16234L9.42707 9.16822ZM12.2011 9.60763C12.413 9.64998 12.5983 9.78234 12.7199 9.9517L14.2394 9.34293L12.2965 6.49999L12.2065 6.53175V9.60234H12.2011V9.60763ZM11.333 9.9517C11.4388 9.79292 11.6082 9.67116 11.7934 9.61821V6.53175L11.7142 6.49999L9.80824 9.33233L11.333 9.9517ZM17.8553 8.48528C18.0934 8.48528 18.2894 8.2894 18.2894 8.04587C18.2897 7.92911 18.244 7.81691 18.1624 7.73352C18.1228 7.69186 18.0752 7.65871 18.0223 7.63604C17.9696 7.61337 17.9127 7.60168 17.8553 7.60168C17.7979 7.60168 17.741 7.61337 17.6882 7.63604C17.6354 7.65871 17.5877 7.69186 17.5482 7.73352C17.5071 7.77546 17.4747 7.82512 17.453 7.87963C17.4311 7.93415 17.4203 7.99245 17.4212 8.05116C17.4212 8.2894 17.617 8.48528 17.8553 8.48528ZM6.14472 8.48528C6.38296 8.48528 6.57884 8.2894 6.57884 8.04587C6.57914 7.92911 6.53349 7.81691 6.45178 7.73352C6.41229 7.69269 6.36498 7.66023 6.31268 7.63805C6.26039 7.61588 6.20416 7.60446 6.14736 7.60446C6.09056 7.60446 6.03433 7.61588 5.98204 7.63805C5.92974 7.66023 5.88244 7.69269 5.84295 7.73352C5.80185 7.77546 5.76946 7.82512 5.74765 7.87963C5.72585 7.93415 5.71505 7.99245 5.7159 8.05116C5.7159 8.2894 5.90648 8.48528 6.14472 8.48528ZM6.14472 8.89822C6.04886 8.89659 5.95399 8.87868 5.86413 8.84529C4.8521 10.0834 4.23106 11.5945 4.08001 13.1864C4.14883 13.2023 4.33942 13.2712 4.49296 13.4671L6.78001 12.4082C6.75481 12.2608 6.76787 12.1095 6.81792 11.9685C6.86797 11.8276 6.95336 11.7019 7.06589 11.6035C7.17722 11.5082 7.3119 11.4443 7.45611 11.4183C7.60031 11.3922 7.74885 11.405 7.88649 11.4553L9.18883 9.52292L6.82236 8.5594C6.70588 8.72881 6.45178 8.90882 6.15001 8.90882V8.90352L6.14472 8.89822ZM16.1029 11.3441C16.2435 11.2867 16.3971 11.2698 16.5469 11.295C16.6965 11.3202 16.8361 11.3868 16.95 11.487C17.0654 11.5875 17.1514 11.7173 17.199 11.8627C17.2465 12.0081 17.2537 12.1637 17.22 12.313L19.5176 13.4459C19.6658 13.2659 19.8511 13.197 19.92 13.1811C19.7669 11.5929 19.1459 10.0857 18.1358 8.85057C18.0459 8.88234 17.58 9.03058 17.2041 8.58587L14.8642 9.53352L16.1029 11.3441ZM8.2306 11.6883L8.28355 11.7571L11.1794 10.5817C11.1583 10.4758 11.1741 10.3753 11.1794 10.3329L9.58057 9.67646L8.2253 11.6883H8.2306ZM15.6635 11.7305C15.6945 11.6783 15.73 11.6286 15.7694 11.5822L14.4776 9.69234L12.8735 10.3382C12.8788 10.3753 12.8895 10.4865 12.8735 10.587L15.6635 11.7305ZM12.0265 10.9153C12.1486 10.9153 12.2658 10.8668 12.3522 10.7803C12.4386 10.6939 12.4871 10.5769 12.4871 10.4547C12.4871 10.3325 12.4386 10.2154 12.3522 10.129C12.2658 10.0426 12.1486 9.99406 12.0265 9.99406C11.91 9.99406 11.7934 10.0471 11.7088 10.1318C11.6245 10.2181 11.5771 10.334 11.5765 10.4547C11.5765 10.7194 11.7883 10.9153 12.0265 10.9153ZM11.317 13.5042C11.4919 13.2553 11.7142 13.1864 11.7934 13.1707V11.2911C11.6082 11.2383 11.4442 11.1218 11.333 10.9629L8.43178 12.1382C8.44765 12.2442 8.43178 12.3235 8.43178 12.3605L11.317 13.5042ZM12.2065 13.1707C12.2858 13.1917 12.5029 13.2499 12.6829 13.5042L15.5894 12.3553C15.5577 12.2493 15.5577 12.1276 15.5577 12.1276L12.7199 10.9629C12.5983 11.1376 12.413 11.2594 12.2065 11.307V13.1707ZM16.3994 12.5776C16.4845 12.5775 16.5675 12.5516 16.6377 12.5036C16.7094 12.4552 16.7653 12.3866 16.7983 12.3066C16.8313 12.2265 16.8397 12.1384 16.823 12.0536C16.8048 11.9692 16.7624 11.8918 16.7011 11.8312C16.642 11.7704 16.5659 11.7289 16.4829 11.712C16.3997 11.6949 16.3135 11.7033 16.2353 11.7358C16.1557 11.7683 16.0876 11.8235 16.0395 11.8947C15.9934 11.9674 15.9695 12.052 15.9706 12.1382C15.9706 12.3818 16.1612 12.5776 16.3994 12.5776ZM7.6006 12.694C7.84412 12.694 8.03472 12.4983 8.03472 12.2599C8.03556 12.2013 8.02476 12.1429 8.00296 12.0885C7.98114 12.0339 7.94876 11.9843 7.90765 11.9423C7.86816 11.9015 7.82087 11.869 7.76856 11.8468C7.71627 11.8246 7.66006 11.8133 7.60324 11.8133C7.54644 11.8133 7.49023 11.8246 7.43793 11.8468C7.38564 11.869 7.33832 11.9015 7.29883 11.9423C7.25773 11.9843 7.22534 12.0339 7.20354 12.0885C7.18172 12.1429 7.17094 12.2013 7.17178 12.2599C7.17178 12.4983 7.36236 12.694 7.6006 12.694ZM20.1582 14.4358C20.4018 14.4358 20.5924 14.24 20.5924 13.9964C20.5921 13.8798 20.5465 13.7678 20.4652 13.6841C20.4253 13.6432 20.3776 13.6105 20.3249 13.5883C20.2722 13.566 20.2155 13.5547 20.1582 13.5547C20.101 13.5547 20.0444 13.566 19.9916 13.5883C19.9389 13.6105 19.8911 13.6432 19.8511 13.6841C19.7686 13.7692 19.723 13.8833 19.7241 14.0017C19.7241 14.24 19.9253 14.4358 20.1582 14.4358ZM12 14.4358C12.2382 14.4358 12.4288 14.24 12.4288 13.9964C12.4278 13.8816 12.3822 13.7715 12.3018 13.6894C12.2624 13.6495 12.2154 13.6175 12.1636 13.5959C12.1118 13.5742 12.0562 13.5631 12 13.5631C11.9438 13.5631 11.8882 13.5742 11.8365 13.5959C11.7846 13.6175 11.7376 13.6495 11.6982 13.6894C11.6179 13.7715 11.5722 13.8816 11.5711 13.9964C11.5711 14.24 11.7618 14.4358 12 14.4358ZM3.84178 14.4358C4.07472 14.4358 4.26531 14.24 4.26531 13.9964C4.26703 13.8804 4.22332 13.7683 4.14354 13.6841C4.10405 13.6432 4.05675 13.6108 4.00445 13.5886C3.95216 13.5664 3.89593 13.555 3.83913 13.555C3.78233 13.555 3.7261 13.5664 3.67381 13.5886C3.62151 13.6108 3.57421 13.6432 3.53472 13.6841C3.49362 13.726 3.46123 13.7756 3.43942 13.8303C3.41761 13.8847 3.40682 13.943 3.40765 14.0017C3.40765 14.24 3.59825 14.4358 3.84178 14.4358ZM12 18.7241C12.2488 18.7241 12.45 18.5229 12.45 18.2741C12.4508 18.1516 12.4032 18.0336 12.3176 17.9459C12.2761 17.9038 12.2267 17.8705 12.1721 17.8477C12.1176 17.8249 12.059 17.8133 12 17.8135C11.9368 17.8043 11.8722 17.809 11.811 17.8273C11.7497 17.8456 11.6932 17.8769 11.6452 17.9193C11.5962 17.9633 11.5572 18.0172 11.5306 18.0775C11.5042 18.1378 11.491 18.203 11.4919 18.2688C11.4929 18.334 11.5078 18.3982 11.5351 18.4575C11.5623 18.5167 11.6017 18.5698 11.6505 18.613C11.6978 18.655 11.7532 18.6866 11.8135 18.7057C11.8736 18.7249 11.9373 18.7312 12 18.7241Z" fill="#0E92DF"/>
</svg>
