<svg width="24" height="24" viewBox="0 0 24 24" fill="none" xmlns="http://www.w3.org/2000/svg">
<path d="M5.93929 6.66699H4V13.4545C4 14.4832 4.40863 15.4697 5.13601 16.1971C5.8634 16.9245 6.84994 17.3332 7.87859 17.3332H8.36342C9.39208 17.3332 10.3786 16.9245 11.106 16.1971C11.8334 15.4697 12.242 14.4832 12.242 13.4545V6.66699H10.3027V13.2121C10.3027 13.7907 10.0728 14.3457 9.66366 14.7548C9.25456 15.164 8.69963 15.3938 8.12102 15.3938C7.54239 15.3938 6.98746 15.164 6.5783 14.7548C6.16916 14.3457 5.93929 13.7907 5.93929 13.2121V6.66699ZM13.2116 9.57594H15.151V16.8483H13.2116V9.57594Z" fill="url(#paint0_linear_328_44277)"/>
<path d="M17.3335 9.33203C16.6263 9.33203 15.948 9.61297 15.448 10.1131C14.9479 10.6131 14.667 11.2914 14.667 11.9985V16.8468H15.1519V12.4834C15.1519 12.0976 15.305 11.7277 15.5778 11.4548C15.8506 11.1821 16.2206 11.0289 16.6063 11.0289C16.9921 11.0289 17.362 11.1821 17.6347 11.4548C17.9075 11.7277 18.0607 12.0976 18.0607 12.4834V16.8468H20.0001V11.9985C20.0001 11.2914 19.719 10.6131 19.219 10.1131C18.7189 9.61297 18.0407 9.33203 17.3335 9.33203Z" fill="url(#paint1_linear_328_44277)"/>
<defs>
<linearGradient id="paint0_linear_328_44277" x1="9.57542" y1="6.66699" x2="9.57542" y2="17.3332" gradientUnits="userSpaceOnUse">
<stop stop-color="#5079DD"/>
<stop offset="1" stop-color="#3E3BAC"/>
</linearGradient>
<linearGradient id="paint1_linear_328_44277" x1="17.3335" y1="9.33203" x2="17.3335" y2="16.8468" gradientUnits="userSpaceOnUse">
<stop stop-color="#5079DD"/>
<stop offset="1" stop-color="#3E3BAC"/>
</linearGradient>
</defs>
</svg>
