<svg width="24" height="24" viewBox="0 0 24 24" fill="none" xmlns="http://www.w3.org/2000/svg">
<path d="M12 21C16.9706 21 21 16.9706 21 12C21 7.02943 16.9706 3 12 3C7.02943 3 3 7.02943 3 12C3 16.9706 7.02943 21 12 21Z" fill="#0B53BF"/>
<path d="M13.6201 5.45V6.60874C15.9319 7.30624 17.625 9.45495 17.625 12.003C17.625 14.5511 15.9319 16.6999 13.6201 17.3973V18.5561C16.5675 17.8361 18.75 15.1755 18.75 12.003C18.75 8.83059 16.5675 6.16999 13.6201 5.45Z" fill="white"/>
<path d="M6.37499 12.003C6.37499 9.45495 8.06809 7.30624 10.3799 6.60874V5.45C7.43247 6.16999 5.25 8.83059 5.25 12.003C5.25 15.1755 7.43247 17.8361 10.3799 18.5561V17.3973C8.06809 16.7055 6.37499 14.5511 6.37499 12.003Z" fill="white"/>
<path d="M14.4188 13.2575C14.4188 10.9569 10.8132 11.9019 10.8132 10.6306C10.8132 10.175 11.1788 9.8825 11.8763 9.8825C12.7088 9.8825 12.9957 10.2875 13.0857 10.8331H14.2331C14.1308 9.80916 13.5431 9.16262 12.5626 8.97002V8.06565H11.4376V8.93774C10.3634 9.07454 9.6882 9.70009 9.6882 10.6306C9.6882 12.9425 13.2994 12.0762 13.2994 13.325C13.2994 13.7974 12.8438 14.1124 12.0732 14.1124C11.0663 14.1124 10.7344 13.6681 10.6107 13.055H9.49133C9.56385 14.1765 10.2554 14.8784 11.4376 15.0536V15.9405H12.5626V15.0654C13.7163 14.9164 14.4188 14.2452 14.4188 13.2575Z" fill="white"/>
</svg>
