<svg width="24" height="24" viewBox="0 0 24 24" fill="none" xmlns="http://www.w3.org/2000/svg">
<path d="M9.37501 6.35352C9.20562 6.35352 9.06445 6.52292 9.06445 6.72996V6.91818C9.06445 7.12522 9.20562 7.29462 9.37501 7.29462H15.2475C15.4169 7.29462 15.5579 7.12522 15.5579 6.91818V6.72996C15.5579 6.52292 15.4169 6.35352 15.2475 6.35352H9.37501ZM11.7654 7.52988V17.8113C11.7654 17.9807 11.6383 18.1219 11.4831 18.1219H11.3419C11.1866 18.1219 11.0596 17.9807 11.0596 17.8113V7.52988H11.7654ZM13.1771 7.52988V17.8113C13.1771 17.9807 13.0499 18.1219 12.8947 18.1219H12.7535C12.5983 18.1219 12.4712 17.9807 12.4712 17.8113V7.52988H13.1771Z" fill="#216C58"/>
<path d="M11.3405 9.95821C11.6044 9.87037 11.8813 9.82898 12.1592 9.8359C12.6487 9.8359 13.0156 9.92999 13.2745 10.0994C13.4627 10.2217 13.585 10.3817 13.6509 10.5699C13.7215 10.7581 13.8956 10.9369 14.1356 10.9369H15.5613C15.8154 10.9369 16.046 10.7253 16.0084 10.4476C15.9508 10.0288 15.7836 9.63278 15.5236 9.29942C15.1943 8.87593 14.7426 8.54656 14.1684 8.31598C13.5944 8.08071 12.9263 7.96777 12.1734 7.96777C11.43 7.96777 10.7618 8.08071 10.1736 8.31598C9.62636 8.51478 9.14 8.85198 8.76192 9.29472C8.41603 9.7174 8.23246 10.2497 8.24433 10.7957C8.23321 11.1177 8.29914 11.4377 8.43664 11.7291C8.57413 12.0205 8.77923 12.2748 9.03484 12.4709C9.54304 12.8756 10.23 13.1673 11.0864 13.3509L12.1687 13.5909C12.658 13.699 13.7403 13.8637 13.7403 14.5461C13.7403 15.3083 12.6957 15.4777 12.131 15.4777C11.4582 15.4777 10.5782 15.2848 10.376 14.5413C10.3194 14.339 10.1407 14.1461 9.89593 14.1461H8.46078C8.39855 14.1451 8.33684 14.1573 8.27965 14.1819C8.22246 14.2064 8.17109 14.2427 8.12889 14.2884C8.08671 14.3341 8.05464 14.3883 8.0348 14.4473C8.01496 14.5062 8.00779 14.5688 8.01376 14.6307C8.07493 15.1577 8.24903 15.6094 8.54077 15.9953C8.9206 16.4668 9.42642 16.8209 9.99948 17.0165C10.6159 17.2423 11.3358 17.3505 12.1546 17.3505C12.978 17.3505 13.6885 17.2423 14.2862 17.021C14.8302 16.8337 15.311 16.4979 15.6743 16.0518C16.0053 15.6221 16.1812 15.0931 16.1731 14.5507C16.1771 14.1947 16.0975 13.8427 15.9405 13.5233C15.7836 13.2036 15.5537 12.9254 15.2696 12.7109C14.9706 12.4788 14.6392 12.2917 14.2862 12.1557C13.4532 11.8262 11.4016 11.8309 10.8041 10.9981C10.7429 10.9087 10.71 10.8052 10.7194 10.6781V10.6734C10.7194 10.5181 10.7665 10.3817 10.87 10.2594C10.9735 10.137 11.1288 10.0335 11.3405 9.95821Z" fill="#216C58"/>
<path d="M11.7644 9.35059H11.0586V10.4328H11.7644V9.35059ZM11.7644 13.1996H11.0586V14.2725H11.7644V13.1996ZM11.7644 16.4276H11.0586V17.5052H11.7644V16.4276ZM13.1761 9.35059H12.4702V10.4328H13.1761V9.35059ZM13.1761 13.1996H12.4702V14.2725H13.1761V13.1996ZM13.1761 16.4276H12.4702V17.5052H13.1761V16.4276Z" fill="#216C58"/>
<path d="M19.7685 12.4609C19.6463 12.4609 19.538 12.5551 19.5287 12.6774C19.3558 14.5532 18.4875 16.2966 17.0942 17.5644C15.7009 18.8323 13.8837 19.5329 11.9998 19.5285C8.04729 19.5285 4.81464 16.5218 4.47115 12.6774C4.46428 12.6183 4.43614 12.5637 4.39197 12.5239C4.3478 12.4841 4.29064 12.4617 4.23116 12.4609C4.0947 12.4609 3.99119 12.5738 4.00059 12.7056C4.18166 14.701 5.10316 16.5562 6.58366 17.9059C8.06417 19.2559 9.99634 20.0026 11.9998 19.9991C16.1972 19.9991 19.6416 16.7947 19.9992 12.7056C20.0019 12.674 19.9978 12.6422 19.9874 12.6123C19.9769 12.5823 19.9603 12.5549 19.9385 12.5319C19.9167 12.5087 19.8903 12.4905 19.8611 12.4783C19.8318 12.4661 19.8003 12.4602 19.7685 12.4609ZM4.23587 11.5387C4.35821 11.5387 4.46643 11.4446 4.47585 11.3222C4.64851 9.44715 5.51626 7.7045 6.90854 6.43674C8.30081 5.16898 10.1169 4.4678 11.9998 4.47104C15.9525 4.47104 19.1851 7.47784 19.5287 11.3222C19.538 11.4446 19.6463 11.5387 19.7685 11.5387C19.905 11.5387 20.0086 11.4257 19.9992 11.294C19.8181 9.29867 18.8966 7.44344 17.4161 6.09356C15.9357 4.7437 14.0034 3.997 11.9998 4.0005C9.99634 3.997 8.06417 4.7437 6.58366 6.09356C5.10316 7.44344 4.18166 9.29867 4.00059 11.294C3.99119 11.4257 4.0947 11.5387 4.23116 11.5387H4.23587Z" fill="#216C58"/>
</svg>
