<svg width="24" height="24" viewBox="0 0 24 24" fill="none" xmlns="http://www.w3.org/2000/svg">
<path fill-rule="evenodd" clip-rule="evenodd" d="M11.3219 7.5C13.9019 7.5 16.0004 9.68099 16.0004 12.362C16.0004 15.0425 13.9019 16.9999 11.3219 16.9999H10.503V14.9999H11.3219C12.8 14.9999 14.0025 13.904 14.0025 12.362C14.0025 10.8195 12.8 9.49998 11.3224 9.49998H6.50049V18H4.50049V7.5H11.3219Z" fill="#FA9B00"/>
<path fill-rule="evenodd" clip-rule="evenodd" d="M11.7125 4C16.0065 4 19.4995 7.58848 19.4995 11.9999C19.4995 16.411 16.0065 20 11.7125 20H7.49951V10.5H9.49946V18H11.7125C14.9159 18 17.4995 15.298 17.4995 11.9999C17.4995 8.70198 14.9159 5.99998 11.7125 5.99998H6.99951V4H11.7125Z" fill="#242A47"/>
</svg>
