<svg width="24" height="24" viewBox="0 0 24 24" fill="none" xmlns="http://www.w3.org/2000/svg">
<path fill-rule="evenodd" clip-rule="evenodd" d="M11.1523 6.375C14.3773 6.375 17.0004 9.10124 17.0004 12.4525C17.0004 15.8031 14.3773 18.2499 11.1523 18.2499H10.1286V15.7499H11.1523C12.9999 15.7499 14.503 14.38 14.503 12.4525C14.503 10.5244 12.9999 8.87498 11.1529 8.87498H5.12549V19.5H2.62549V6.375H11.1523Z" fill="#FA9B00"/>
<path fill-rule="evenodd" clip-rule="evenodd" d="M11.6407 2C17.0083 2 21.3745 6.4856 21.3745 11.9999C21.3745 17.5137 17.0083 22 11.6407 22H6.37451V10.125H8.87445V19.5H11.6407C15.645 19.5 18.8745 16.1225 18.8745 11.9999C18.8745 7.87747 15.645 4.49998 11.6407 4.49998H5.74951V2H11.6407Z" fill="#242A47"/>
</svg>
