<svg width="25" height="24" viewBox="0 0 25 24" fill="none" xmlns="http://www.w3.org/2000/svg">
<path d="M8.51974 6.29556L11.972 9.6718C12.0022 9.70157 12.0262 9.73704 12.0426 9.77624C12.059 9.81536 12.0674 9.85736 12.0674 9.89983C12.0674 9.9422 12.059 9.9843 12.0426 10.0234C12.0262 10.0625 12.0022 10.0981 11.972 10.1279L8.51574 13.5121C8.45304 13.5729 8.3691 13.6069 8.28172 13.6069C8.19434 13.6069 8.11041 13.5729 8.04771 13.5121L4.59546 10.1319C4.56523 10.1021 4.54122 10.0665 4.52483 10.0274C4.50844 9.98822 4.5 9.94621 4.5 9.90384C4.5 9.86137 4.50844 9.81936 4.52483 9.78026C4.54122 9.74105 4.56523 9.70559 4.59546 9.67581L8.0517 6.29556C8.11441 6.23471 8.19835 6.20068 8.28573 6.20068C8.3731 6.20068 8.45703 6.23471 8.51974 6.29556ZM12.736 10.4879L16.1882 13.8681C16.2185 13.8978 16.2425 13.9333 16.259 13.9725C16.2753 14.0117 16.2838 14.0537 16.2838 14.0961C16.2838 14.1385 16.2753 14.1805 16.259 14.2197C16.2425 14.2589 16.2185 14.2944 16.1882 14.3241L12.732 17.7043C12.6694 17.7652 12.5854 17.7993 12.498 17.7993C12.4106 17.7993 12.3267 17.7652 12.264 17.7043L8.81176 14.3281C8.78152 14.2984 8.75751 14.2628 8.74112 14.2237C8.72473 14.1846 8.71629 14.1425 8.71629 14.1001C8.71629 14.0577 8.72473 14.0157 8.74112 13.9765C8.75751 13.9373 8.78152 13.9019 8.81176 13.8721L12.268 10.4879C12.3307 10.427 12.4146 10.3929 12.502 10.3929C12.5894 10.3929 12.6733 10.427 12.736 10.4879ZM16.9523 6.29556L20.4045 9.6718C20.4347 9.70157 20.4588 9.73704 20.4752 9.77624C20.4916 9.81536 20.5 9.85736 20.5 9.89983C20.5 9.9422 20.4916 9.9843 20.4752 10.0234C20.4588 10.0625 20.4347 10.0981 20.4045 10.1279L16.9483 13.5121C16.8856 13.5729 16.8017 13.6069 16.7143 13.6069C16.627 13.6069 16.543 13.5729 16.4803 13.5121L13.0281 10.1319C12.9978 10.1021 12.9738 10.0665 12.9574 10.0274C12.941 9.98822 12.9326 9.94621 12.9326 9.90384C12.9326 9.86137 12.941 9.81936 12.9574 9.78026C12.9738 9.74105 12.9978 9.70559 13.0281 9.67581L16.4842 6.29556C16.547 6.23471 16.6309 6.20068 16.7183 6.20068C16.8057 6.20068 16.8896 6.23471 16.9523 6.29556Z" fill="url(#paint0_linear_328_33415)"/>
<defs>
<linearGradient id="paint0_linear_328_33415" x1="19.2725" y1="7.70766" x2="10.0998" y2="16.3002" gradientUnits="userSpaceOnUse">
<stop stop-color="#5C84F9"/>
<stop offset="0.28" stop-color="#5D70F8"/>
<stop offset="0.57" stop-color="#5F5BF6"/>
<stop offset="1" stop-color="#6349F4"/>
</linearGradient>
</defs>
</svg>
