<svg width="24" height="24" viewBox="0 0 24 24" fill="none" xmlns="http://www.w3.org/2000/svg">
<path d="M5.4751 10.2001H18.525C18.4531 9.75009 18.3135 9.28659 18.0751 8.8501H5.92511C5.6866 9.28659 5.54711 9.75009 5.4751 10.2001Z" fill="#0094D3"/>
<path d="M16.9507 10.1997V16.0496C17.7608 14.4971 18.3818 12.3011 18.3818 10.7216C18.3798 10.5467 18.3648 10.3723 18.3367 10.1997H16.9507Z" fill="#FBDE13"/>
<path d="M15.6001 18.0746C16.1104 17.3624 16.5619 16.61 16.9501 15.8246V10.1997H15.6001V18.0746Z" fill="#E1221C"/>
<path d="M14.2499 19.4246C14.7178 18.9746 15.1364 18.6866 15.5998 18.0746V10.1997H14.2499V19.4246ZM8.3999 17.8766C8.87689 18.4976 9.2729 19.0466 9.74989 19.4921V10.1997H8.3999V17.8766Z" fill="#FBDE13"/>
<path d="M7.05078 15.6716C7.44051 16.4419 7.89198 17.1792 8.40078 17.8766V10.1997H7.05078V15.6716Z" fill="#E1221C"/>
<path d="M5.6333 11.1716C5.73231 12.6611 6.29031 14.2406 7.0508 15.6716V10.1997H5.66931C5.66043 10.2811 5.64842 10.3621 5.6333 10.4426V11.1716ZM11.1008 10.1997V20.5496C11.4023 20.6486 11.7577 20.9996 12.0008 20.9996C12.2887 20.9996 12.5407 20.6846 12.9008 20.5496V10.1997H11.1008Z" fill="#FBDE13"/>
<path d="M12.8998 10.1997V20.5496C13.3317 20.3381 13.7503 19.9016 14.2498 19.4246V10.1997H12.8998ZM11.0998 10.1997H9.74976L9.71826 19.4921C10.2313 19.969 10.6633 20.3606 11.0998 20.5496V10.1997Z" fill="#E1221C"/>
<path d="M12 16.0503C12.5968 16.0503 13.169 15.8131 13.591 15.3913C14.013 14.9693 14.25 14.3969 14.25 13.8002C14.25 13.2035 14.013 12.6313 13.591 12.2093C13.169 11.7873 12.5968 11.5503 12 11.5503C11.4032 11.5503 10.831 11.7873 10.409 12.2093C9.98709 12.6313 9.75 13.2035 9.75 13.8002C9.75 14.3969 9.98709 14.9693 10.409 15.3913C10.831 15.8131 11.4032 16.0503 12 16.0503Z" fill="#A43316"/>
<path d="M12 15.9028C12.5573 15.9028 13.0918 15.6813 13.4859 15.2872C13.88 14.8931 14.1014 14.3586 14.1014 13.8012C14.1014 13.2438 13.88 12.7093 13.4859 12.3152C13.0918 11.9212 12.5573 11.6997 12 11.6997C11.4425 11.6997 10.9081 11.9212 10.5139 12.3152C10.1198 12.7093 9.89844 13.2438 9.89844 13.8012C9.89844 14.3586 10.1198 14.8931 10.5139 15.2872C10.9081 15.6813 11.4425 15.9028 12 15.9028Z" fill="#D48E09"/>
<path d="M13.575 13.9813V13.9362C13.575 13.0678 13.2824 12.5323 12.9359 12.3612C12.9507 12.335 12.9705 12.312 12.9944 12.2937C13.0754 12.2262 13.2059 12.1722 13.3274 12.1722C13.2895 12.1409 13.2505 12.1108 13.2104 12.0823C13.1025 12.1092 12.9989 12.1632 12.9359 12.2173C12.8986 12.2446 12.8678 12.2799 12.846 12.3207C12.7937 12.3035 12.739 12.2944 12.6839 12.2937C12.405 12.2937 12.2429 12.5817 12.1619 12.7213L12.1304 12.7707C12.0854 12.8383 11.9414 12.8743 11.7165 12.8743C11.4779 12.8743 11.3924 12.8292 11.3924 12.6762C11.3924 12.4333 11.7254 11.8752 12.189 11.7088C12.1261 11.7029 12.0631 11.6999 12 11.6997H11.9774C11.5634 11.9427 11.2934 12.4333 11.2934 12.6762C11.2934 12.6987 11.2934 12.7213 11.3025 12.7392C11.2214 12.7843 11.055 12.8698 10.9245 12.8698C10.6184 12.8698 10.3845 12.6357 10.3169 12.5457L10.2539 12.6312C10.3664 12.7662 10.6184 12.9688 10.9245 12.9688C11.0684 12.9688 11.2395 12.8877 11.334 12.8337C11.4194 12.9688 11.6129 12.9733 11.7165 12.9733C11.9459 12.9733 12.0945 12.9373 12.1799 12.8652C12.287 12.9476 12.3743 13.0532 12.435 13.1739C12.4958 13.2947 12.5286 13.4276 12.531 13.5628C12.531 13.8012 12.531 13.9677 12.4634 14.0083C11.6028 14.2161 10.697 14.1206 9.89844 13.7382V13.8463C10.7077 14.2315 11.626 14.3222 12.4949 14.1028C12.5355 14.1837 12.6029 14.3952 12.6029 14.5662C12.6029 14.8137 12.5084 15.1378 12.0585 15.2817C11.8786 15.1811 11.6789 15.1212 11.4734 15.1063C11.3385 15.1063 11.1719 15.1647 11.082 15.2323C10.9875 15.1512 10.6995 14.9218 10.488 14.9218C10.4114 14.9218 10.3079 14.9488 10.2494 14.9622L10.3079 15.0523C10.362 15.0342 10.4339 15.0208 10.488 15.0208C10.6589 15.0208 10.92 15.2232 11.019 15.3087L11.0145 15.3358C11.0145 15.4077 11.0954 15.6012 11.2125 15.7497L11.3924 15.8127L11.397 15.8038C11.2599 15.6797 11.1615 15.5187 11.1135 15.3402C11.1359 15.3043 11.2979 15.2053 11.4734 15.2053C11.649 15.2053 11.901 15.3087 12 15.3628C12.0044 15.4797 12.216 15.7227 12.4365 15.8577L12.5759 15.8217H12.567C13.5839 15.3177 13.5794 14.3503 13.575 13.9768V13.9813ZM12.4589 15.7587C12.3078 15.6626 12.184 15.5294 12.0989 15.3717C12.594 15.2053 12.7019 14.8452 12.7019 14.5662C12.7019 14.3863 12.63 14.1388 12.5714 14.0353C12.6255 13.9453 12.63 13.7833 12.63 13.5628C12.63 13.1352 12.3465 12.8698 12.2384 12.7843L12.2475 12.7707C12.3194 12.6493 12.4634 12.3927 12.6839 12.3927C13.0665 12.3927 13.476 12.9328 13.476 13.9362V13.9813C13.476 14.3412 13.4849 15.2907 12.4589 15.7587Z" fill="#A43316"/>
<path d="M14.1779 3.414C13.9664 3.414 13.7414 4.0125 13.1565 4.0125C12.819 4.0125 12.6255 3.7605 12.6029 3.74249C12.6029 3.6255 12.7649 3.3825 12.7649 3.1575C12.7649 3.099 12.7425 3 12.5535 3C12.369 3 12.2655 3.1485 12.2475 3.18C12.234 3.2025 12.1619 3.144 12 3.144C11.838 3.144 11.766 3.2025 11.7524 3.1755C11.7345 3.1485 11.6309 3 11.4465 3C11.262 3 11.2395 3.099 11.2395 3.1575C11.2395 3.3825 11.397 3.6255 11.397 3.74249C11.3744 3.7605 11.181 4.0125 10.8434 4.0125C10.2585 4.0125 10.0335 3.414 9.82198 3.414C9.17398 3.414 5.25 6.13199 5.25 10.434C5.25 15.6584 10.0829 21 12 21C13.917 21 18.7499 15.6495 18.7499 10.434C18.7499 6.13199 14.826 3.414 14.1779 3.414ZM14.3354 3.7245C14.448 3.7245 15.78 5.22299 15.6899 6.41549C15.519 4.8855 14.3084 3.819 14.3084 3.747C14.3084 3.729 14.322 3.7245 14.3354 3.7245ZM9.72748 3.7245C9.73649 3.7245 9.74998 3.729 9.74998 3.747C9.74998 3.819 8.53949 4.8855 8.36849 6.41549C8.27848 5.22299 9.61049 3.7245 9.72748 3.7245ZM12 20.6714C10.0829 20.6714 5.619 15.1814 5.619 10.722C5.619 9.05698 7.28399 6.87899 8.22899 6.87899C8.31899 6.87899 8.43598 6.90599 8.43598 6.90599C8.43598 6.90599 8.80949 6.59099 9.33599 6.59099C10.326 6.59099 10.8434 7.54498 10.8434 7.89148C10.8434 8.07148 10.7804 8.03548 10.7804 8.13448C10.7804 8.19298 10.8615 8.27399 10.9155 8.27399C10.9875 8.27399 11.2214 8.04898 11.271 7.94548C11.5994 7.94548 11.9099 8.31448 12 8.60249C12.09 8.31448 12.4005 7.94548 12.7334 7.94548C12.7785 8.04898 13.0124 8.27399 13.0845 8.27399C13.1384 8.27399 13.2195 8.19298 13.2195 8.13899C13.2195 8.03548 13.1565 8.06699 13.1565 7.89148C13.1565 7.54498 13.6739 6.59099 14.664 6.59099C15.1904 6.59099 15.5639 6.90599 15.5639 6.90599C15.5639 6.90599 15.681 6.87899 15.771 6.87899C16.716 6.87899 18.3809 9.05698 18.3809 10.722C18.3809 15.1814 13.917 20.6714 12 20.6714Z" fill="black"/>
<path d="M6.36621 9.10107L6.73971 10.1135H6.9782L7.35171 9.10107H7.09971C7.09971 9.10107 6.87471 9.83457 6.86571 9.83457C6.85671 9.83457 6.6407 9.10107 6.6407 9.10107H6.36621ZM8.0717 10.109H8.3327L7.92771 9.10107H7.68471L7.27971 10.1135H7.53171L7.6172 9.88857H7.99071L8.0717 10.1135V10.109ZM7.68471 9.71307L7.8107 9.37557L7.92771 9.71307H7.68471ZM14.0702 10.109H14.3312L13.9262 9.10107H13.6832L13.2827 10.1135H13.5347L13.6157 9.88857H13.9937L14.0747 10.1135L14.0702 10.109ZM13.6832 9.71307L13.8092 9.37557L13.9307 9.71307H13.6832ZM8.4587 9.10107V10.1135H9.2507V9.89757H8.7107V9.10107H8.4587ZM9.4622 9.10107V10.1135H10.2497V9.90207H9.6917V9.67257H10.1732V9.49707H9.6917V9.30357H10.2497V9.10107H9.4622ZM16.6172 9.10107V10.1135H16.8467V9.67257H17.3281V9.49707H16.8467V9.30357H17.4002V9.10107H16.6127H16.6172ZM10.5287 9.10107V10.1135H10.7403V9.45207L11.1722 10.1135H11.4197V9.10107H11.1813V9.78957L10.7718 9.10107H10.5287ZM12.3692 9.46107H12.6303C12.6303 9.24957 12.3872 9.10107 12.1532 9.10107C11.8202 9.10107 11.6492 9.39807 11.6492 9.63657C11.6492 9.92906 11.8382 10.1135 12.1352 10.1135C12.4862 10.1135 12.6303 9.91562 12.6303 9.74457H12.3602C12.3602 9.80307 12.3332 9.95153 12.1578 9.95153C11.9777 9.95153 11.8877 9.79857 11.8877 9.63657C11.8877 9.47007 11.9777 9.28557 12.1578 9.28557C12.3153 9.28557 12.3692 9.36657 12.3692 9.46557V9.46107ZM15.6047 9.46107H15.8702C15.8702 9.24957 15.6271 9.10107 15.3932 9.10107C15.0601 9.10107 14.8892 9.39807 14.8892 9.63657C14.8892 9.92906 15.0782 10.1135 15.3751 10.1135C15.7262 10.1135 15.8702 9.91562 15.8702 9.74457H15.6002C15.6002 9.80307 15.5732 9.95153 15.3977 9.95153C15.2176 9.95153 15.1277 9.79857 15.1277 9.63657C15.1277 9.47007 15.2176 9.28557 15.3977 9.28557C15.5507 9.28557 15.6047 9.36657 15.6047 9.46557V9.46107ZM13.1207 9.10107H12.8777V10.1135H13.1207V9.10107ZM16.3562 9.87507H16.0996V10.1135H16.3562V9.87507ZM17.6477 9.87507H17.3911V10.1135H17.6477V9.87507Z" fill="#F4F2F2"/>
</svg>
