<svg width="24" height="24" viewBox="0 0 24 24" fill="none" xmlns="http://www.w3.org/2000/svg">
<path d="M12 22C17.5229 22 22 17.5229 22 12C22 6.47714 17.5229 2 12 2C6.47714 2 2 6.47714 2 12C2 17.5229 6.47714 22 12 22Z" fill="#2B2D78"/>
<path d="M11.9997 20.5411C16.7169 20.5411 20.5408 16.7172 20.5408 12C20.5408 7.28279 16.7169 3.45877 11.9997 3.45877C7.28251 3.45877 3.4585 7.28279 3.4585 12C3.4585 16.7172 7.28251 20.5411 11.9997 20.5411Z" fill="#434487"/>
<path d="M12.0001 18.9705C15.8499 18.9705 18.9708 15.8497 18.9708 12C18.9708 8.15019 15.8499 5.02936 12.0001 5.02936C8.15037 5.02936 5.02954 8.15019 5.02954 12C5.02954 15.8497 8.15037 18.9705 12.0001 18.9705Z" fill="#5C5D96"/>
<path d="M11.9998 17.3705C14.9658 17.3705 17.3703 14.9661 17.3703 12C17.3703 9.03389 14.9658 6.62939 11.9998 6.62939C9.03365 6.62939 6.62915 9.03389 6.62915 12C6.62915 14.9661 9.03365 17.3705 11.9998 17.3705Z" fill="#7373A5"/>
<path d="M12.0001 15.8235C14.1117 15.8235 15.8236 14.1117 15.8236 12C15.8236 9.88835 14.1117 8.17645 12.0001 8.17645C9.8884 8.17645 8.17651 9.88835 8.17651 12C8.17651 14.1117 9.8884 15.8235 12.0001 15.8235Z" fill="#898BB4"/>
<path d="M12.0003 14.4353C13.3452 14.4353 14.4356 13.345 14.4356 12C14.4356 10.6551 13.3452 9.5647 12.0003 9.5647C10.6553 9.5647 9.56494 10.6551 9.56494 12C9.56494 13.345 10.6553 14.4353 12.0003 14.4353Z" fill="#9F9FC1"/>
<path d="M12.0003 13.1412C12.6305 13.1412 13.1414 12.6303 13.1414 12C13.1414 11.3698 12.6305 10.8588 12.0003 10.8588C11.37 10.8588 10.8591 11.3698 10.8591 12C10.8591 12.6303 11.37 13.1412 12.0003 13.1412Z" fill="#B1B1CD"/>
<path d="M12.0063 17.8824L6.78271 6.70602H8.92389L12.0063 13.3296L15.1827 6.70602H17.2298L12.0063 17.8824Z" fill="white"/>
</svg>
