<svg width="24" height="24" viewBox="0 0 24 24" fill="none" xmlns="http://www.w3.org/2000/svg">
<path d="M11.9034 17.0985L11.9682 16.7045C11.9917 16.581 11.9976 16.4456 11.9976 16.3044V3.2701C11.9976 2.95248 11.9741 2.63485 11.9976 2.32311C12.0094 2.1937 11.9623 2.10548 11.8506 2.05842C11.9211 1.9996 11.9858 1.98783 12.0387 2.01136L20.2264 5.62287C20.2441 5.63463 20.25 5.6464 20.2382 5.66404L12.0269 17.1927C12.0153 17.2102 11.9976 17.2161 11.98 17.2043C11.9446 17.1927 11.9211 17.1574 11.9034 17.0985Z" fill="#C474E7"/>
<path d="M11.8509 2.05841C11.9627 2.10547 12.0097 2.19369 11.9979 2.3231V16.3044C11.9979 16.4456 11.992 16.5809 11.9686 16.7045L11.9038 17.0985L3.7515 5.65227C3.75015 5.64847 3.75015 5.64431 3.7515 5.64051V5.63462L11.8509 2.05841Z" fill="#AC8BFE"/>
<path d="M11.998 18.4866V21.4276C11.998 21.6099 12.0157 21.757 12.0803 21.8628C12.0685 21.9276 12.045 21.9688 12.0157 21.9922C11.9921 22.0041 11.9745 22.0041 11.9627 21.9804C8.84229 16.497 5.71898 11.015 2.59277 5.53464H2.61042L11.998 18.4925V18.4866Z" fill="#93D0FE"/>
<path d="M12.0802 21.8628C12.0094 21.7293 11.9788 21.5782 11.992 21.4276C12.0097 20.8983 12.0097 19.916 11.992 18.4866C15.1271 14.1752 18.2504 9.86377 21.3737 5.5464C21.3796 5.53463 21.3914 5.53464 21.3973 5.54051C21.4091 5.54051 21.4091 5.55227 21.4032 5.56405L12.292 21.5334C12.2331 21.6511 12.1567 21.7629 12.0861 21.8628H12.0802Z" fill="#8694E8"/>
</svg>
