<svg width="24" height="24" viewBox="0 0 24 24" fill="none" xmlns="http://www.w3.org/2000/svg">
<path d="M2 12C2 6.47715 6.47715 2 12 2C17.5228 2 22 6.47715 22 12C22 17.5228 17.5228 22 12 22C6.47715 22 2 17.5228 2 12Z" fill="#00B488"/>
<path d="M11.7458 18.2564C11.2632 18.1797 10.8568 17.8214 10.2981 17.2586C8.62191 15.6721 6.89491 11.4246 6.66634 7.84237H8.69809C9.2314 11.6038 10.0695 14.1625 11.8727 16.2351C12.7616 15.3907 13.4981 14.2137 14.006 13.2669C13.0156 12.8063 12.4568 11.9363 12.1521 11.1431C11.2124 8.68673 12.0251 6.07679 14.6918 6.00004C16.6473 6.00004 17.3077 7.48411 17.333 8.89143C17.3076 9.7358 17.1806 10.3243 16.9267 11.0408C16.3679 11.1687 15.7838 11.0152 15.4283 10.7593C15.1489 10.5547 15.0473 10.657 15.2251 10.094C15.4283 9.3776 15.5044 7.81676 14.5394 7.79117C13.8791 7.84234 13.7013 8.66113 13.7013 9.22407C13.8791 11.5269 15.3521 12.5504 17.3077 12.0387V13.5228C16.6728 13.6763 16.6473 13.6763 15.86 13.7019C15.4028 14.7766 12.914 18.4868 11.7203 18.2564H11.7458Z" fill="white"/>
</svg>
