<svg width="24" height="24" viewBox="0 0 24 24" fill="none" xmlns="http://www.w3.org/2000/svg">
<path d="M19.883 7.74885C19.9675 7.74885 20.0219 7.84937 19.9915 7.92939L19.6983 8.6831C19.6888 8.70399 19.6731 8.7215 19.6537 8.73363C19.634 8.74577 19.6113 8.75183 19.5883 8.75102H18.5401C18.4971 8.75102 18.4551 8.78206 18.4371 8.82453L18.2661 9.14963C18.249 9.18662 18.295 9.2487 18.3361 9.24917H19.2618C19.3462 9.24917 19.4008 9.35221 19.3708 9.42573L19.0647 10.1668C19.0442 10.2069 19.0007 10.2479 18.9546 10.2484H17.907C17.8609 10.2464 17.7979 10.2584 17.7794 10.2999L14.5498 17.689C14.5429 17.7074 14.5304 17.7234 14.5142 17.7345C14.4978 17.7456 14.4785 17.7513 14.4588 17.751H9.61424C9.56823 17.7525 9.52371 17.717 9.50521 17.675L6.77213 10.9354C6.73712 10.8654 6.79714 10.7494 6.87515 10.7494H11.2721C11.3146 10.7494 11.3571 10.7934 11.3756 10.8366L11.9982 12.2498L14.9214 6.32405C14.9419 6.28404 14.9854 6.24903 15.031 6.24854H19.4213C19.4993 6.24854 19.5583 6.35256 19.5243 6.42257L18.9012 7.67684C18.8831 7.71384 18.9142 7.74885 18.9553 7.74885H19.883ZM12.6378 8.67902C12.6288 8.69979 12.6139 8.71741 12.595 8.72978C12.5761 8.74226 12.5539 8.74891 12.5314 8.74903H4.56318C4.54058 8.7488 4.51853 8.74203 4.49965 8.72966C4.48076 8.7173 4.46585 8.69967 4.45665 8.67902L4.00855 7.94038C3.97705 7.86888 4.03707 7.74986 4.11508 7.74885H5.04227C5.08478 7.74885 5.11229 7.73085 5.09528 7.69134L4.55767 6.41457C4.52567 6.34306 4.58567 6.24953 4.6642 6.24854H9.05462C9.10062 6.24854 9.14214 6.27604 9.16064 6.31755L9.74622 7.70534C9.76582 7.74735 9.80678 7.74885 9.85229 7.74885H12.9209C13.004 7.74885 13.0605 7.86238 13.0259 7.94089L12.6378 8.67902ZM11.7917 10.1723C11.7738 10.2143 11.7306 10.2484 11.6851 10.2484H5.27683C5.23182 10.2484 5.18931 10.2139 5.1718 10.1723L4.71171 9.42573C4.67871 9.35466 4.73871 9.2487 4.81672 9.24812H12.0573C12.1422 9.24812 12.1982 9.34719 12.1638 9.42573L11.7917 10.1723Z" fill="url(#paint0_linear_328_35908)"/>
<defs>
<linearGradient id="paint0_linear_328_35908" x1="5.46515" y1="8.91894" x2="15.0682" y2="18.9553" gradientUnits="userSpaceOnUse">
<stop stop-color="#F82B1E"/>
<stop offset="1" stop-color="#531685"/>
</linearGradient>
</defs>
</svg>
