<svg width="24" height="24" viewBox="0 0 24 24" fill="none" xmlns="http://www.w3.org/2000/svg">
<path d="M13.5874 4.5882C13.5874 5.0094 13.4201 5.41338 13.1222 5.71123C12.8244 6.00908 12.4205 6.17639 11.9993 6.17639C11.578 6.17639 11.1741 6.00908 10.8762 5.71123C10.5783 5.41338 10.4111 5.0094 10.4111 4.5882C10.4111 4.16698 10.5783 3.76301 10.8762 3.46516C11.1741 3.16732 11.578 3 11.9993 3C12.4205 3 12.8244 3.16732 13.1222 3.46516C13.4201 3.76301 13.5874 4.16698 13.5874 4.5882Z" fill="#00A6FC"/>
<path d="M5.11652 9.88246C5.99366 9.88246 6.70472 9.17138 6.70472 8.29424C6.70472 7.4171 5.99366 6.70605 5.11652 6.70605C4.23938 6.70605 3.52832 7.4171 3.52832 8.29424C3.52832 9.17138 4.23938 9.88246 5.11652 9.88246Z" fill="#00A6FC"/>
<path d="M5.11652 17.2936C5.99366 17.2936 6.70472 16.5825 6.70472 15.7054C6.70472 14.8282 5.99366 14.1172 5.11652 14.1172C4.23938 14.1172 3.52832 14.8282 3.52832 15.7054C3.52832 16.5825 4.23938 17.2936 5.11652 17.2936Z" fill="#00A6FC"/>
<path d="M11.9993 20.9996C12.8764 20.9996 13.5874 20.2886 13.5874 19.4114C13.5874 18.5343 12.8764 17.8232 11.9993 17.8232C11.1221 17.8232 10.4111 18.5343 10.4111 19.4114C10.4111 20.2886 11.1221 20.9996 11.9993 20.9996Z" fill="#00A6FC"/>
<path d="M18.8831 17.2936C19.7602 17.2936 20.4714 16.5825 20.4714 15.7054C20.4714 14.8282 19.7602 14.1172 18.8831 14.1172C18.0061 14.1172 17.2949 14.8282 17.2949 15.7054C17.2949 16.5825 18.0061 17.2936 18.8831 17.2936Z" fill="#00A6FC"/>
<path d="M18.8831 9.88246C19.7602 9.88246 20.4714 9.17138 20.4714 8.29424C20.4714 7.4171 19.7602 6.70605 18.8831 6.70605C18.0061 6.70605 17.2949 7.4171 17.2949 8.29424C17.2949 9.17138 18.0061 9.88246 18.8831 9.88246Z" fill="#00A6FC"/>
<path d="M11.9993 13.5874C12.8764 13.5874 13.5874 12.8764 13.5874 11.9992C13.5874 11.1221 12.8764 10.4111 11.9993 10.4111C11.1221 10.4111 10.4111 11.1221 10.4111 11.9992C10.4111 12.8764 11.1221 13.5874 11.9993 13.5874Z" fill="#00A6FC"/>
<path d="M14.6104 11.5385C14.547 11.1849 14.4118 10.848 14.2134 10.5485L16.7756 9.15095C16.8392 9.52682 16.9503 9.73328 17.2839 10.0827L14.6104 11.5385ZM14.0862 13.6244C14.3033 13.3491 14.4675 13.0261 14.5627 12.6768L17.2468 13.8997C16.908 14.2173 16.818 14.429 16.8127 14.8632L14.0862 13.6244ZM11.4711 14.5931C11.8204 14.6642 12.1805 14.6642 12.5298 14.5931V17.5579C12.3639 17.4814 12.1832 17.4417 12.0005 17.4417C11.8177 17.4417 11.6371 17.4814 11.4711 17.5579V14.5931ZM9.44877 12.7032C9.54407 13.0526 9.71342 13.3703 9.92527 13.6456L7.50586 15.1014C7.47939 14.6885 7.32588 14.4979 6.96588 14.1909L9.44877 12.7032ZM9.38524 11.5915L9.34818 11.6603L6.70117 10.0721C7.07176 9.6856 7.17764 9.48977 7.24116 9.16155L9.72404 10.6491C9.55123 10.9402 9.43616 11.262 9.38524 11.5968V11.5915ZM12.5298 9.40506C12.1805 9.33405 11.8204 9.33405 11.4711 9.40506V6.44043C11.8152 6.57807 12.0534 6.56749 12.5298 6.44043V9.40506Z" fill="#00A6FC"/>
</svg>
