<svg width="24" height="24" viewBox="0 0 24 24" fill="none" xmlns="http://www.w3.org/2000/svg">
<path fill-rule="evenodd" clip-rule="evenodd" d="M12 22C14.6522 22 17.1957 20.9464 19.0711 19.071C20.9464 17.1957 22 14.6522 22 12C22 9.34785 20.9464 6.80429 19.0711 4.92892C17.1957 3.05357 14.6522 2 12 2C9.34784 2 6.80429 3.05357 4.92892 4.92892C3.05357 6.80429 2 9.34785 2 12C2 14.6522 3.05357 17.1957 4.92892 19.071C6.80429 20.9464 9.34784 22 12 22ZM12 20.8235C14.3401 20.8235 16.5845 19.8938 18.2392 18.2392C19.8939 16.5845 20.8236 14.3401 20.8236 12C20.8236 9.65983 19.8939 7.41554 18.2392 5.76081C16.5845 4.10608 14.3401 3.17647 12 3.17647C9.65982 3.17647 7.41555 4.10608 5.76082 5.76081C4.10608 7.41554 3.17647 9.65983 3.17647 12C3.17647 14.3401 4.10608 16.5845 5.76082 18.2392C7.41555 19.8938 9.65982 20.8235 12 20.8235Z" fill="#00D8FF"/>
<path d="M6.86507 9.64697H5.52979L8.68272 16.7057H9.64743L12.018 11.3234L14.3356 16.7057H15.3887L18.471 9.64697H17.2121L14.8591 14.9999L12.5298 9.64697H11.5297L9.13566 14.9999L6.85919 9.64697H6.86507Z" fill="white"/>
<path d="M5.52979 7.8822V8.47044H10.1004L10.4769 8.15279H18.471V7.8822H5.52979Z" fill="#FD124D"/>
</svg>
