<svg width="24" height="24" viewBox="0 0 24 24" fill="none" xmlns="http://www.w3.org/2000/svg">
<path d="M7.84115 17.4543C7.51673 17.2321 7.19231 17.3507 7.02965 17.5352C6.79234 17.8035 6.89989 18.132 7.02965 18.2729C8.88595 19.7515 11.0271 19.9874 12.1093 19.9994C14.1296 20.0216 16.3978 18.9506 17.2791 18.4128C17.4666 18.2982 17.6941 17.976 17.4444 17.6099C17.1946 17.2441 16.7645 17.3538 16.5814 17.4543C15.8587 17.9045 13.9531 18.8048 12.1097 18.8048C9.8121 18.8048 8.25667 17.7391 7.8447 17.4569L7.84115 17.4543Z" fill="white"/>
<path d="M7.77806 6.66644C8.51438 6.66644 9.11128 6.06954 9.11128 5.33322C9.11128 4.5969 8.51438 4 7.77806 4C7.04173 4 6.44482 4.5969 6.44482 5.33322C6.44482 6.06954 7.04173 6.66644 7.77806 6.66644Z" fill="white"/>
<path d="M16.8446 4.06742C17.1055 3.94254 17.3802 4.00476 17.4611 4.14297C17.6094 4.39628 17.4712 4.55715 17.3841 4.60871L15.9389 5.31709C16.3344 5.51263 17.1681 5.92504 17.3433 6.01036C17.5628 6.11703 17.6215 6.32012 17.4722 6.53478C17.3708 6.68143 17.0802 6.69831 16.9441 6.62098L15.1519 5.73217C15.0319 5.67218 14.8954 5.54507 14.8884 5.33398C14.8817 5.12289 15.035 4.9509 15.1519 4.89402C15.6079 4.67048 16.5839 4.19274 16.8446 4.06742Z" fill="white"/>
<path d="M11.3254 15.608L12.3475 12.4092L13.6115 15.6804C13.7253 15.9732 13.9496 16.2094 14.2359 16.3384C14.5222 16.4674 14.8478 16.4788 15.1425 16.3702C15.3464 16.2952 15.5251 16.1643 15.6584 15.9925C15.7917 15.821 15.874 15.6153 15.8962 15.3991L17.5121 9.50009C17.5532 9.35103 17.5643 9.19529 17.5447 9.04191C17.5252 8.88855 17.4754 8.74059 17.3981 8.60665C17.3208 8.47271 17.2178 8.35547 17.0948 8.26173C16.9718 8.168 16.8315 8.09963 16.6819 8.06063C16.378 7.98147 16.0553 8.02501 15.7834 8.18183C15.5115 8.33868 15.3123 8.5962 15.2287 8.89877L14.5194 11.4866L13.4684 8.76546C13.372 8.51825 13.1965 8.30995 12.9692 8.17317C12.7418 8.03638 12.4755 7.97884 12.212 8.00951C11.9486 7.99609 11.688 8.07 11.471 8.21979C11.2538 8.36958 11.0922 8.58686 11.0112 8.8379L10.1069 11.6674L9.20248 8.83834C9.10614 8.5394 8.89614 8.29032 8.61779 8.14483C8.33944 7.99933 8.01505 7.96908 7.7146 8.06063C7.56685 8.1056 7.42952 8.17953 7.31064 8.27811C7.19174 8.3767 7.09366 8.49796 7.02211 8.63483C6.95055 8.7717 6.90694 8.92144 6.89385 9.07533C6.88074 9.22921 6.89839 9.38417 6.94577 9.5312L8.88872 15.6075C8.97058 15.8613 9.13475 16.0805 9.35523 16.2304C9.57572 16.3803 9.83991 16.4523 10.106 16.435C10.3723 16.4528 10.637 16.3811 10.8579 16.2312C11.0788 16.0814 11.2433 15.862 11.3254 15.608Z" fill="#D1AA11"/>
</svg>
