<svg width="24" height="24" viewBox="0 0 24 24" fill="none" xmlns="http://www.w3.org/2000/svg">
<path fill-rule="evenodd" clip-rule="evenodd" d="M14.4795 8.97751C13.7864 9.4094 13.0399 9.86261 12.2507 10.3425C12.0801 10.4438 11.8614 10.4118 11.6002 10.2518L11.5522 10.2252L9.49409 8.97217C9.44256 8.9406 9.40049 8.89569 9.37233 8.8422C9.34418 8.78872 9.33098 8.72862 9.33413 8.66826L9.32881 5.75701C9.32881 5.62903 9.38212 5.53306 9.48876 5.46908L11.7442 4.06677C11.9148 3.96013 12.1174 3.98679 12.3733 4.14141L14.4741 5.44774C14.5968 5.52239 14.6607 5.6397 14.6607 5.79433V8.63626C14.6646 8.70426 14.6497 8.77202 14.6177 8.83217C14.5857 8.89232 14.5379 8.94259 14.4795 8.97751ZM12.4374 4.85056C12.4374 4.98387 12.2401 5.0905 12.0001 5.0905C11.7548 5.0905 11.5575 4.98387 11.5575 4.8559C11.5575 4.72261 11.7548 4.61596 11.9948 4.61596C12.2401 4.61596 12.432 4.72261 12.4374 4.85056ZM11.115 5.56505C11.115 5.69302 10.9177 5.79966 10.6778 5.79966C10.4325 5.79966 10.2353 5.69302 10.2353 5.56505C10.2353 5.43175 10.4325 5.33045 10.6778 5.33045C10.9177 5.33045 11.115 5.43708 11.115 5.56505ZM11.9948 5.79433C12.2401 5.79433 12.4374 5.68768 12.4374 5.55971C12.4374 5.43175 12.2401 5.33045 11.9948 5.33045C11.7548 5.33045 11.5575 5.43708 11.5575 5.56505C11.5575 5.69302 11.7548 5.79966 11.9948 5.79433ZM13.7543 5.56505C13.7543 5.69302 13.5571 5.79966 13.3171 5.79966C13.0719 5.79966 12.8746 5.69302 12.8746 5.55971C12.8746 5.43175 13.0719 5.32511 13.3171 5.33045C13.5571 5.33045 13.7543 5.43708 13.7543 5.56505ZM11.9948 6.50881C12.2401 6.50881 12.432 6.40217 12.432 6.2742C12.432 6.1409 12.2347 6.0396 11.9948 6.0396C11.7548 6.0396 11.5575 6.14623 11.5575 6.2742C11.5575 6.40217 11.7548 6.50881 11.9948 6.50881ZM11.7442 7.20195C11.8242 7.24462 11.8668 7.31927 11.8722 7.4259C11.9042 7.89512 11.9307 8.36967 11.9522 8.8442C11.9522 8.89752 11.9788 8.93484 12.0268 8.96151C12.0427 8.97217 12.0642 8.96684 12.0854 8.95617C12.0946 8.95096 12.1022 8.94309 12.107 8.93359C12.1117 8.92408 12.1134 8.91339 12.112 8.90286L12.1814 7.41523C12.1866 7.32993 12.224 7.26062 12.2986 7.21263L13.3918 6.5248C13.4291 6.50348 13.4398 6.47148 13.4237 6.42883L13.4183 6.40217C13.4078 6.37018 13.3864 6.35951 13.3598 6.37551L12.1281 6.98869C12.0985 7.00411 12.0655 7.01215 12.0322 7.01215C11.9987 7.01215 11.9657 7.00411 11.9361 6.98869L10.6564 6.38617C10.6244 6.37017 10.5925 6.38617 10.5712 6.4235L10.5658 6.44482C10.5551 6.46615 10.5551 6.48214 10.5766 6.49814C10.9284 6.72209 11.323 6.95669 11.7442 7.20195ZM9.71809 7.38858C9.72866 7.62851 9.84064 7.81514 9.96865 7.81514C10.1019 7.80981 10.2085 7.61251 10.2033 7.37791C10.198 7.14331 10.086 6.95136 9.95261 6.95669C9.81937 6.95669 9.7181 7.15397 9.72332 7.38858H9.71809ZM13.4451 8.48163C13.3171 8.4603 13.2531 8.20437 13.2959 7.90578C13.3437 7.60719 13.4824 7.38858 13.6103 7.40991C13.733 7.43123 13.8023 7.68716 13.7543 7.98575C13.7117 8.28435 13.573 8.50296 13.4451 8.48163ZM10.2458 7.99643C10.2672 8.23636 10.3951 8.42298 10.5285 8.41231C10.6671 8.39631 10.7578 8.19371 10.7418 7.94843C10.7205 7.7085 10.5978 7.52188 10.4592 7.53787C10.3205 7.54855 10.2299 7.75115 10.2458 7.99643ZM11.1096 9.03082C10.971 9.05216 10.8325 8.87086 10.8057 8.6256C10.7738 8.38033 10.859 8.16171 11.003 8.14572C11.1416 8.12439 11.2803 8.30568 11.3123 8.55095C11.339 8.79621 11.2536 9.00949 11.1096 9.03082ZM12.0268 15.4239L12.8372 17.4499C12.9972 17.8712 13.1678 18.2871 13.3385 18.7084C13.4398 18.9429 13.5303 19.1242 13.6211 19.2415C13.8183 19.5081 14.197 19.7055 14.762 19.8281C15.6472 20.0199 16.5376 20.0414 17.4387 19.9133C17.7479 19.8601 17.9345 19.7001 17.9933 19.4175L19.9927 10.2572C20.0354 10.0545 19.8915 9.93726 19.5662 9.9106C18.7397 9.84128 17.9293 9.85728 17.1507 9.96391C17.0068 9.98525 16.9163 10.0706 16.8895 10.2038L15.4819 17.0927C15.4659 17.1675 15.4392 17.1727 15.4072 17.0981L13.893 13.7602L13.2371 12.2939C13.21 12.2357 13.1682 12.1854 13.1158 12.1481C13.0635 12.1108 13.0025 12.0875 12.9385 12.0807C12.3667 11.9743 11.7811 11.9635 11.2057 12.0487C10.971 12.0807 10.8325 12.1554 10.779 12.278C10.0459 13.8896 9.31364 15.5017 8.58233 17.114C8.55567 17.1727 8.53434 17.1675 8.52367 17.1087L7.10004 10.1772C7.09303 10.131 7.07178 10.0883 7.03928 10.0549C7.00679 10.0214 6.96464 9.99893 6.91875 9.99057C6.72147 9.94259 6.50287 9.9106 6.26826 9.8946C5.62842 9.85728 5.02058 9.86261 4.43406 9.91592C4.10348 9.94259 3.96485 10.0652 4.00751 10.2732L6.01766 19.5027C6.06031 19.7055 6.18295 19.8227 6.39089 19.8707C7.276 20.0627 8.27308 20.036 9.37679 19.796C9.98993 19.6627 10.3846 19.3802 10.5551 18.9429C11.0352 17.7672 11.5134 16.5905 11.9895 15.4132C12.0054 15.3971 12.0214 15.3971 12.0322 15.4239H12.0268Z" fill="#FFD404"/>
</svg>
