<svg width="24" height="24" viewBox="0 0 24 24" fill="none" xmlns="http://www.w3.org/2000/svg">
<path d="M3.12122 10.6228C3.0431 10.5341 3 10.4201 3 10.3019C3 10.1838 3.0431 10.0698 3.12122 9.98117C3.15757 9.93897 3.20261 9.90511 3.25324 9.88191C3.30388 9.85869 3.35893 9.84668 3.41463 9.84668C3.47034 9.84668 3.52538 9.85869 3.57602 9.88191C3.62665 9.90511 3.6717 9.93897 3.70805 9.98117L6.79869 13.377C6.95518 13.5531 6.95518 13.8425 6.79869 14.0186C6.76233 14.0608 6.7173 14.0946 6.66667 14.1178C6.61602 14.1411 6.56097 14.153 6.50527 14.153C6.44957 14.153 6.39453 14.1411 6.34389 14.1178C6.29326 14.0946 6.24822 14.0608 6.21185 14.0186L3.12122 10.6228ZM11.4934 9.98117C11.6498 10.1573 11.6498 10.4467 11.4934 10.6228L8.40269 14.0186C8.36633 14.0608 8.32131 14.0946 8.27066 14.1178C8.22003 14.1411 8.16499 14.153 8.10928 14.153C8.05357 14.153 7.99853 14.1411 7.9479 14.1178C7.89725 14.0946 7.85223 14.0608 7.81587 14.0186C7.73775 13.93 7.69465 13.8159 7.69465 13.6977C7.69465 13.5796 7.73775 13.4656 7.81587 13.377L10.9065 9.98117C10.9429 9.93897 10.9879 9.90511 11.0386 9.88191C11.0891 9.85869 11.1442 9.84668 11.2 9.84668C11.2556 9.84668 11.3107 9.85869 11.3613 9.88191C11.4119 9.90511 11.457 9.93897 11.4934 9.98117ZM12.5106 10.6228C12.4324 10.5341 12.3893 10.4201 12.3893 10.3019C12.3893 10.1838 12.4324 10.0698 12.5106 9.98117C12.5468 9.93897 12.5918 9.90511 12.6425 9.88191C12.6932 9.85869 12.7482 9.84668 12.804 9.84668C12.8596 9.84668 12.9147 9.85869 12.9653 9.88191C13.016 9.90511 13.061 9.93897 13.0974 9.98117L16.188 13.377C16.3445 13.5531 16.3445 13.8425 16.188 14.0186C16.1516 14.0608 16.1066 14.0946 16.0559 14.1178C16.0053 14.1411 15.9503 14.153 15.8946 14.153C15.8388 14.153 15.7839 14.1411 15.7332 14.1178C15.6826 14.0946 15.6375 14.0608 15.6012 14.0186L12.5106 10.6228ZM20.8826 10.6228C21.0391 10.4467 21.0391 10.1573 20.8826 9.98117C20.8463 9.93897 20.8012 9.90511 20.7507 9.88191C20.7 9.85869 20.6449 9.84668 20.5892 9.84668C20.5336 9.84668 20.4785 9.85869 20.4278 9.88191C20.3772 9.90511 20.3322 9.93897 20.2957 9.98117L17.2051 13.377C17.1271 13.4656 17.0839 13.5796 17.0839 13.6977C17.0839 13.8159 17.1271 13.93 17.2051 14.0186C17.2416 14.0608 17.2866 14.0946 17.3373 14.1178C17.3878 14.1411 17.4428 14.153 17.4986 14.153C17.5543 14.153 17.6093 14.1411 17.66 14.1178C17.7106 14.0946 17.7557 14.0608 17.792 14.0186L20.8826 10.6228Z" fill="white"/>
</svg>
