<svg width="24" height="24" viewBox="0 0 24 24" fill="none" xmlns="http://www.w3.org/2000/svg">
<path d="M12 12.0002C14.7338 12.0002 16.95 11.5972 16.95 11.1001C16.95 10.603 14.7338 10.2002 12 10.2002C9.26624 10.2002 7.05005 10.603 7.05005 11.1001C7.05005 11.5972 9.26624 12.0002 12 12.0002Z" fill="white"/>
<path fill-rule="evenodd" clip-rule="evenodd" d="M17.6313 3.90039H6.3435L3 11.2375L11.9999 20.1004L21 11.2375L17.6313 3.90039ZM12.9 12.4319C15.4546 12.3248 17.4018 11.7695 17.4018 11.1003C17.4018 10.3547 14.9839 9.75036 12.0018 9.75036C9.01964 9.75036 6.6018 10.3547 6.6018 11.1003C6.6018 11.7691 8.54714 12.3243 11.1 12.4314V16.5004H12.9V12.4319Z" fill="white"/>
<path d="M16.05 6.60059H7.94995V8.40058H11.0999V11.5506H12.9V8.40058H16.05V6.60059Z" fill="#DDA85B"/>
</svg>
