<svg width="24" height="24" viewBox="0 0 24 24" fill="none" xmlns="http://www.w3.org/2000/svg">
<path d="M14.2998 3.44643C14.0912 3.01371 13.7647 2.64861 13.3578 2.3931C12.9511 2.13761 12.4804 2.00208 11.9999 2.00208C11.5196 2.00208 11.049 2.13761 10.6421 2.3931C10.2353 2.64861 9.90887 3.01371 9.70013 3.44643L2.30763 17.985C1.38772 19.8048 2.64093 21.9979 4.60739 21.9979C5.07401 21.9979 5.52064 21.8512 5.89394 21.578L10.4402 18.2382C10.9074 17.892 11.4752 17.7084 12.0567 17.7157C12.6383 17.7229 13.2013 17.9204 13.6599 18.2782L17.7726 21.4447C18.2393 21.8046 18.8059 21.9979 19.3926 21.9979C21.3591 21.9979 22.6123 19.8048 21.6924 17.985L14.2998 3.44643Z" fill="url(#paint0_linear_364_7605)"/>
<path d="M5.41455 11.8855C6.08115 12.2188 7.12104 12.8788 8.43423 13.992C10.854 16.0384 14.2869 15.0185 15.2802 13.892C16.24 12.7988 16.8134 12.1922 18.5066 11.7256L14.3003 3.44643C14.0917 3.01371 13.7653 2.64861 13.3584 2.3931C12.9516 2.13761 12.481 2.00208 12.0005 2.00208C11.5202 2.00208 11.0495 2.13761 10.6426 2.3931C10.2359 2.64861 9.90943 3.01371 9.70069 3.44643L5.41455 11.8855Z" fill="url(#paint1_linear_364_7605)"/>
<path d="M6.67432 9.39915C7.1076 9.6858 7.64087 10.0924 8.19416 10.6256C9.13707 11.546 10.3963 12.0707 11.7137 12.0922C12.407 12.0922 14.0401 11.7589 15.5668 10.3391C16.0517 9.86086 16.5832 9.43213 17.1533 9.05919L14.3002 3.44643C14.0916 3.01371 13.7652 2.64861 13.3583 2.3931C12.9515 2.13761 12.4809 2.00208 12.0004 2.00208C11.5201 2.00208 11.0494 2.13761 10.6425 2.3931C10.2358 2.64861 9.90932 3.01371 9.70059 3.44643L6.67432 9.39915Z" fill="url(#paint2_linear_364_7605)"/>
<path d="M7.8335 7.11272L9.69989 3.44643C9.90863 3.01371 10.2351 2.64861 10.6418 2.3931C11.0487 2.13761 11.5194 2.00208 11.9997 2.00208C12.4802 2.00208 12.9508 2.13761 13.3576 2.3931C13.7645 2.64861 14.0909 3.01371 14.2995 3.44643L15.9461 6.69276C15.4614 7.35564 14.826 7.89362 14.0922 8.26223C13.3585 8.63085 12.5475 8.81947 11.7264 8.81255C10.1667 8.81255 8.76673 8.15261 7.8335 7.11272Z" fill="#FF4746"/>
<defs>
<linearGradient id="paint0_linear_364_7605" x1="12.2067" y1="14.2587" x2="11.98" y2="21.9979" gradientUnits="userSpaceOnUse">
<stop stop-color="#FF7153"/>
<stop offset="1" stop-color="#FF2F45"/>
</linearGradient>
<linearGradient id="paint1_linear_364_7605" x1="12.0005" y1="1.99878" x2="12.0005" y2="21.995" gradientUnits="userSpaceOnUse">
<stop offset="0.69" stop-color="#FF6C58"/>
<stop offset="1" stop-color="#FF4746"/>
</linearGradient>
<linearGradient id="paint2_linear_364_7605" x1="12.0004" y1="1.99778" x2="12.0004" y2="22.0111" gradientUnits="userSpaceOnUse">
<stop offset="0.55" stop-color="#FF8368"/>
<stop offset="0.94" stop-color="#FF4746"/>
</linearGradient>
</defs>
</svg>
