<svg width="24" height="24" viewBox="0 0 24 24" fill="none" xmlns="http://www.w3.org/2000/svg">
<path fill-rule="evenodd" clip-rule="evenodd" d="M7.49998 3H16.5C18.9852 3 21 5.0147 21 7.49998V16.5C21 18.9852 18.9852 21 16.5 21H7.49998C5.0147 21 3 18.9852 3 16.5V7.49998C3 5.0147 5.0147 3 7.49998 3ZM5.46363 11.8195C5.46363 7.35883 9.10863 5.45195 11.938 5.45195C16.8712 5.45195 18.6092 9.30508 18.6092 12.0107C18.6092 13.3586 18.2887 14.1064 18.151 14.4281L18.1312 14.4744C18.0298 14.7163 17.6811 15.1495 17.1973 14.9019C16.8091 14.705 16.8767 14.0863 17.0567 13.777C17.3548 13.2707 17.383 12.4156 17.3548 12.0107C17.3548 8.01695 13.7942 6.66133 11.938 6.66133C10.3967 6.66133 6.70677 7.7132 6.67863 12.0107C6.66176 15.4531 9.81175 17.0281 11.3474 17.3263C11.6624 17.3488 12.2249 17.495 12.1573 17.9788C12.0955 18.4625 11.6061 18.4625 11.3474 18.4625C9.71672 18.2838 8.21099 17.5046 7.12336 16.2766C6.03574 15.0487 5.44409 13.4597 5.46363 11.8195ZM7.87676 11.8532C7.87676 9.4625 10.0761 7.80319 12.1462 7.90444C15.2174 8.04507 16.0837 10.5706 16.0837 11.977C16.0837 12.8544 15.8191 12.9669 15.4648 12.9669C15.1161 12.9669 15.0149 12.4439 15.0149 11.977C15.0104 11.219 14.7062 10.4938 14.1687 9.95929C13.6311 9.42496 12.904 9.12505 12.1462 9.12507C11.1729 9.12507 9.05237 9.65387 9.0355 11.977C9.02988 13.4957 9.95796 14.5812 10.9199 14.7613C11.1842 14.8174 11.4431 15.0988 11.3698 15.397C11.2911 15.7007 11.0548 15.757 10.768 15.757C9.44044 15.6894 7.87676 14.2495 7.87676 11.8532ZM12.5737 14.9469C13.2397 14.7176 13.8454 14.3408 14.3455 13.8444C14.4637 13.732 14.8348 13.6475 15.1049 13.9851C15.3692 14.3282 15.2174 14.66 15.1049 14.7894C14.5276 15.3426 13.8547 15.7867 13.1192 16.1C12.9111 16.2013 12.5567 16.0774 12.4048 15.7795C12.2473 15.4814 12.3205 15.02 12.5737 14.9469Z" fill="#3377F8"/>
</svg>
