<svg width="24" height="24" viewBox="0 0 24 24" fill="none" xmlns="http://www.w3.org/2000/svg">
<path fill-rule="evenodd" clip-rule="evenodd" d="M12.95 4.41012C12.59 4.45012 12.3301 4.83008 12.2 5.15005C12.1951 5.16189 12.1868 5.172 12.1761 5.17912C12.1655 5.18625 12.1529 5.19004 12.1401 5.19004L11.3152 5.16005C11.299 5.16007 11.2829 5.15649 11.2682 5.14957C11.2535 5.14265 11.2406 5.13258 11.2302 5.12004C10.9006 4.71753 10.4271 4.45929 9.91033 4.40012C8.55045 4.35513 7.17559 4.38512 5.77574 4.5001C5.63676 4.50474 5.49347 4.52655 5.34191 4.54962C5.32992 4.55143 5.31789 4.55326 5.30578 4.55511C5.04428 4.59925 4.79848 4.70978 4.59189 4.8761C4.38533 5.04241 4.22488 5.25896 4.12592 5.505C4.08093 5.60999 4.05092 5.73498 4.05092 5.86997C4.01093 6.81487 3.99593 7.71977 4.00093 8.56968C3.99824 8.85385 4.02845 9.13737 4.09093 9.4146C4.19591 9.82455 4.49588 10.0896 4.85584 10.3295C4.87583 10.3395 4.88583 10.3645 4.87084 10.3895C4.45089 11.5094 4.17091 12.7692 4.2209 13.9292C4.2509 14.6341 4.39089 15.329 4.64085 15.9989C5.27579 17.7437 6.71565 18.7987 8.49045 19.2985C9.61033 19.6185 10.8602 19.7685 12.24 19.7484C14.9347 19.7086 17.3195 18.5686 18.9344 16.4788C19.2716 16.0474 19.5506 15.5732 19.7642 15.069C19.8393 14.884 19.8943 14.6991 19.9193 14.5191C20.0542 13.4892 20.0343 12.3843 19.7493 11.3794C19.5893 10.8294 19.3393 10.3495 18.9994 9.9496C18.9844 9.93455 18.9844 9.9146 18.9994 9.90457C19.3294 9.61959 19.5142 9.22962 19.5493 8.72967C19.6043 8.01475 19.6443 7.35981 19.6693 6.75988C19.6794 6.40992 19.6642 6.05995 19.6242 5.70999C19.5343 4.92507 19.1094 4.43011 18.2845 4.32513C17.8595 4.27014 17.4195 4.24514 16.9695 4.25014C15.5548 4.27014 14.3649 4.31513 13.405 4.37012C13.2499 4.37512 13.1 4.39013 12.95 4.41012ZM13.3001 5.17027C12.8001 5.43523 12.9602 6.73511 13.0501 7.18505H13.0551C13.0558 7.18742 13.0571 7.18957 13.0588 7.19131C13.0606 7.19306 13.0627 7.19434 13.0651 7.19506H13.07L13.0801 7.19006L15.0849 5.09027C14.6093 5.02323 14.1273 5.01651 13.65 5.07028C13.5282 5.08191 13.4096 5.11581 13.3001 5.17027ZM5.55587 5.36025C5.43087 5.37025 5.31089 5.39524 5.18091 5.44524C4.70096 5.61022 4.73595 6.57512 4.78595 6.96008L4.85594 7.48503C4.85749 7.48775 4.85964 7.49008 4.86224 7.49181C4.86485 7.49355 4.86783 7.49465 4.87093 7.49503C4.87575 7.49698 4.88113 7.49698 4.88593 7.49503L6.88573 5.40524C6.88829 5.40267 6.89012 5.39946 6.89101 5.39593C6.89188 5.39241 6.89178 5.38871 6.89073 5.38525C6.44783 5.33076 6.00049 5.32239 5.55587 5.36025Z" fill="#231F20"/>
<path d="M10.9256 9.45843C11.0104 9.2685 11.0704 9.06352 11.1054 8.84354C11.1858 8.37202 11.2392 7.8963 11.2655 7.41869C11.2688 7.41546 11.2727 7.4129 11.2769 7.41119C11.2812 7.40947 11.2859 7.40862 11.2904 7.4087H12.3753C12.3853 7.4087 12.3904 7.4087 12.4003 7.41869L12.4103 7.44369C12.4284 7.9878 12.4617 8.53128 12.5103 9.07352C12.6004 9.57846 12.8902 10.1234 13.3403 10.3634C13.4752 10.4334 13.6402 10.4784 13.8352 10.4884C14.3052 10.5184 14.7851 10.5234 15.275 10.5034C16.2349 10.4684 17.1499 10.4033 18.0198 10.3134C18.2297 10.2884 18.4297 10.2284 18.6248 10.1334C18.6344 10.1283 18.6455 10.1264 18.6564 10.1283C18.6672 10.13 18.6772 10.1354 18.6847 10.1434C19.0691 10.6027 19.332 11.151 19.4496 11.7382C19.6545 12.6632 19.6746 13.623 19.5146 14.6129C19.4896 14.7529 19.4396 14.9129 19.3496 15.0928C19.0996 15.6129 18.7897 16.0928 18.4097 16.5428C17.1236 18.0779 15.2992 19.0634 13.3102 19.2974C12.2404 19.4424 11.1655 19.3974 10.1056 19.2574C8.68572 19.0725 7.25588 18.6275 6.20599 17.6926C5.44945 16.9916 4.93775 16.0664 4.74613 15.0529C4.58985 14.3474 4.55269 13.6208 4.63614 12.9031C4.73614 12.0932 4.92112 11.3132 5.20609 10.5684C5.21608 10.5484 5.23108 10.5433 5.25108 10.5484L5.43106 10.5934C5.79102 10.6434 6.20098 10.6684 6.66593 10.6684C7.44085 10.6633 8.23577 10.6334 9.05568 10.5833C9.38565 10.5584 9.67558 10.5284 9.93059 10.4784C10.3805 10.3934 10.7456 9.87838 10.9304 9.45843H10.9256Z" fill="#79C928"/>
<path d="M11.6499 15.0675C11.6499 15.5426 11.9848 15.9324 12.3949 15.9324C12.8048 15.9324 13.1346 15.5426 13.1346 15.0675C13.1346 14.5876 12.8048 14.2026 12.3949 14.2026C11.9848 14.2026 11.6499 14.5876 11.6499 15.0675Z" fill="#231F20"/>
</svg>
