<svg width="24" height="24" viewBox="0 0 24 24" fill="none" xmlns="http://www.w3.org/2000/svg">
<path fill-rule="evenodd" clip-rule="evenodd" d="M7.44487 4.125H16.4814L21 11.9877L16.4814 19.875H7.44487L3 11.9877L7.44487 4.125ZM8.15197 5.4375H14.6264L9.38165 7.30217L8.15197 5.4375ZM7.78803 5.77836L4.69316 11.0619L8.82584 7.62167L7.78803 5.77836ZM16.9562 11.8416L15.6849 5.73394L9.60884 7.59411L16.9562 11.8416ZM4.12505 12.2718L9.02383 8.12157V16.526L4.12505 12.2718ZM9.5864 16.5626V7.9423L16.9961 12.2521L9.5864 16.5626ZM16.3319 6.60862L19.519 12.0064H17.4968L16.3319 6.60862ZM16.2935 18.0262L19.551 12.5306H17.3854L16.2935 18.0262ZM9.66908 16.971L16.8211 12.84L15.6383 18.9364L9.66908 16.971ZM4.75616 13.5094L7.75091 18.7445L8.7409 16.9395L4.75616 13.5094ZM8.19303 18.9364H14.3557L9.10204 17.2276L8.19303 18.9364Z" fill="#313B59"/>
<path d="M9.37447 8.89309C10.186 8.89309 10.8438 8.23528 10.8438 7.42384C10.8438 6.6124 10.186 5.95459 9.37447 5.95459C8.56308 5.95459 7.90527 6.6124 7.90527 7.42384C7.90527 8.23528 8.56308 8.89309 9.37447 8.89309Z" fill="#313B59"/>
<path d="M17.3537 13.8502C18.3309 13.8502 19.1232 13.0579 19.1232 12.0805C19.1232 11.1032 18.3309 10.311 17.3537 10.311C16.3762 10.311 15.584 11.1032 15.584 12.0805C15.584 13.0579 16.3762 13.8502 17.3537 13.8502Z" fill="#313B59"/>
<path d="M9.37591 8.46141C9.94817 8.46141 10.4121 7.99752 10.4121 7.42529C10.4121 6.85306 9.94817 6.38916 9.37591 6.38916C8.80373 6.38916 8.33984 6.85306 8.33984 7.42529C8.33984 7.99752 8.80373 8.46141 9.37591 8.46141Z" fill="#313B59"/>
<path d="M10.8454 16.8015C10.8454 17.6799 10.1335 18.3918 9.25521 18.3918C8.37698 18.3918 7.66504 17.6799 7.66504 16.8015C7.66504 15.9233 8.37698 15.2114 9.25521 15.2114C10.1335 15.2114 10.8454 15.9233 10.8454 16.8015Z" fill="#313B59"/>
<path d="M17.3531 13.3277C18.0422 13.3277 18.6007 12.7691 18.6007 12.0801C18.6007 11.3911 18.0422 10.8325 17.3531 10.8325C16.6641 10.8325 16.1055 11.3911 16.1055 12.0801C16.1055 12.7691 16.6641 13.3277 17.3531 13.3277Z" fill="#313B59"/>
</svg>
