<svg width="24" height="24" viewBox="0 0 24 24" fill="none" xmlns="http://www.w3.org/2000/svg">
<path d="M4 7.33711C4.0553 6.76276 4.18501 6.19803 4.38588 5.65712C4.39028 5.65504 4.39511 5.65395 4.39999 5.65395C4.40487 5.65395 4.4097 5.65504 4.41411 5.65712L4.44234 5.67594L4.45176 5.69006C4.43764 7.22887 4.89411 8.90885 6.40468 9.53C6.84702 9.70887 7.32232 9.81713 7.82584 9.85469C8.57878 9.90651 9.34111 9.90179 10.1176 9.88301C10.1882 9.88301 10.2588 9.92529 10.3105 9.96767C10.3669 10.0101 10.4046 10.0665 10.4235 10.1371L10.8281 11.4548C10.8291 11.4607 10.8319 11.466 10.8362 11.4703C10.8403 11.4745 10.8458 11.4773 10.8517 11.4782H10.8705L10.8799 11.4688L11.2329 10.97C11.2392 10.9627 11.2481 10.9582 11.2578 10.9573C11.2675 10.9564 11.277 10.9593 11.2847 10.9653L11.2987 10.9747L11.967 12.33C11.9905 12.3771 12.014 12.3771 12.0329 12.33L12.7011 10.97C12.7152 10.9417 12.7341 10.9417 12.7481 10.97L13.1294 11.4876C13.1323 11.489 13.1355 11.4896 13.1387 11.4896C13.142 11.4896 13.1452 11.489 13.1482 11.4876C13.1518 11.4876 13.1554 11.4868 13.1587 11.4852C13.162 11.4835 13.1647 11.4812 13.1669 11.4782L13.5811 10.0947C13.5951 10.0383 13.6281 9.99118 13.6705 9.95351C13.7176 9.92529 13.7646 9.88301 13.8258 9.88301C14.4752 9.89235 15.1246 9.91124 15.7787 9.88301C16.9081 9.83591 18.0705 9.55361 18.7715 8.64062C19.3504 7.88769 19.5245 6.74417 19.5481 5.78889C19.5528 5.60536 19.5858 5.60065 19.6516 5.77006C20.1598 7.10652 20.1598 8.84768 19.3316 10.09C18.541 11.2665 17.1293 11.8218 15.7739 12.0242C15.5431 12.0508 15.3226 12.1354 15.1333 12.2705C14.9439 12.4054 14.792 12.5861 14.6916 12.7959C14.3293 13.5111 13.9482 14.2405 13.5951 14.9747C13.5011 15.1676 13.4493 15.3605 13.4351 15.5581C13.407 16.0241 13.4023 16.5134 13.4164 17.017C13.4164 17.0641 13.407 17.1111 13.3835 17.1441L12.7434 18.3065C12.7247 18.3393 12.6964 18.3534 12.6635 18.3534H11.327C11.312 18.353 11.2975 18.3484 11.2849 18.3401C11.2725 18.3318 11.2626 18.3201 11.2563 18.3065C11.0541 17.9488 10.8705 17.5817 10.6541 17.2052C10.6023 17.1158 10.5787 17.0217 10.5787 16.9229C10.5787 16.2359 10.6494 15.5017 10.3387 14.8665C9.90116 13.9723 9.53876 13.243 9.24229 12.6923C8.97877 12.1982 8.50349 12.0712 7.98113 11.9771C5.83528 11.6005 4.1647 10.3912 4 8.05709V7.33711Z" fill="#43B763"/>
</svg>
