<svg width="25" height="24" viewBox="0 0 25 24" fill="none" xmlns="http://www.w3.org/2000/svg">
<path d="M12.4979 9.00504C12.8955 9.00504 13.2769 8.84706 13.5581 8.56588C13.8392 8.2847 13.9972 7.90333 13.9972 7.50568C13.9972 7.10804 13.8392 6.72667 13.5581 6.44549C13.2769 6.16431 12.8955 6.00635 12.4979 6.00635C12.1002 6.00635 11.7189 6.16431 11.4376 6.44549C11.1565 6.72667 10.9985 7.10804 10.9985 7.50568C10.9985 7.90333 11.1565 8.2847 11.4376 8.56588C11.7189 8.84706 12.1002 9.00504 12.4979 9.00504Z" fill="url(#paint0_linear_328_33545)"/>
<path d="M12.4977 8.50546C12.7628 8.50546 13.017 8.40015 13.2045 8.21269C13.3918 8.02525 13.4972 7.771 13.4972 7.5059C13.4972 7.2408 13.3918 6.98656 13.2045 6.7991C13.017 6.61165 12.7628 6.50635 12.4977 6.50635C12.2326 6.50635 11.9783 6.61165 11.7909 6.7991C11.6033 6.98656 11.498 7.2408 11.498 7.5059C11.498 7.771 11.6033 8.02525 11.7909 8.21269C11.9783 8.40015 12.2326 8.50546 12.4977 8.50546Z" fill="url(#paint1_linear_328_33545)"/>
<path d="M4.92145 8.29811L4.89146 8.33809C4.73507 8.54021 4.6224 8.77264 4.5606 9.02061C4.4988 9.26859 4.4892 9.52671 4.53244 9.77858C4.57567 10.0305 4.67078 10.2706 4.81173 10.4838C4.95269 10.697 5.13642 10.8785 5.35126 11.0169L9.21455 13.6357C9.65923 13.9351 10.1999 14.057 10.73 13.9773C11.26 13.8978 11.7411 13.6225 12.0783 13.2059L12.1083 13.166C12.2646 12.9638 12.3774 12.7314 12.4391 12.4835C12.501 12.2354 12.5105 11.9774 12.4674 11.7255C12.4241 11.4735 12.329 11.2335 12.1881 11.0203C12.0471 10.8071 11.8633 10.6255 11.6484 10.4871L7.78518 7.8683C7.34051 7.56901 6.79986 7.44713 6.26979 7.52668C5.73971 7.60624 5.25867 7.88147 4.92145 8.29811Z" fill="url(#paint2_linear_328_33545)"/>
<path d="M15.4066 20.0002C15.1816 20.0002 14.9668 19.9403 14.7819 19.8353C14.5977 19.7291 14.447 19.5732 14.3471 19.3855L12.5478 15.937C12.4145 15.6839 12.3461 15.4016 12.3487 15.1155C12.3513 14.8294 12.4249 14.5484 12.5628 14.2977L16.656 6.81104C14.6169 10.5394 14.457 12.4336 15.8564 15.1124L17.0908 17.4714C17.7056 18.6358 16.791 20.0002 15.4066 20.0002Z" fill="url(#paint3_linear_328_33545)"/>
<path d="M20.4942 8.79388C20.4944 8.83114 20.4843 8.86774 20.4649 8.89953C20.4455 8.93131 20.4175 8.95704 20.3842 8.97381C20.3495 8.99231 20.3105 9.00157 20.2711 9.0007C20.2318 8.99982 20.1933 8.98884 20.1594 8.96881L19.4697 8.50401L15.8613 15.1061C14.4619 12.4273 14.6118 10.5332 16.6559 6.80476L16.7259 6.68481L16.1361 6.29499C16.1232 6.27147 16.115 6.24558 16.1124 6.21887C16.1097 6.19215 16.1124 6.16516 16.1203 6.13951C16.1282 6.11385 16.1412 6.09007 16.1585 6.06954C16.1758 6.04903 16.1971 6.03222 16.221 6.0201L20.0894 4.02598C20.1217 4.00892 20.1577 4 20.1944 4C20.2308 4 20.2669 4.00892 20.2993 4.02598C20.3693 4.06597 20.4942 4.12594 20.4942 4.20091V8.79388Z" fill="url(#paint4_linear_328_33545)"/>
<defs>
<linearGradient id="paint0_linear_328_33545" x1="12.5" y1="4.00123" x2="12.5" y2="20.0001" gradientUnits="userSpaceOnUse">
<stop stop-color="#EB508F"/>
<stop offset="1" stop-color="#FBAB1F"/>
</linearGradient>
<linearGradient id="paint1_linear_328_33545" x1="12.4997" y1="4.00144" x2="12.4997" y2="20.0004" gradientUnits="userSpaceOnUse">
<stop stop-color="#CE427F"/>
<stop offset="1" stop-color="#642F1E"/>
</linearGradient>
<linearGradient id="paint2_linear_328_33545" x1="5.99792" y1="5.84602" x2="20.4093" y2="15.2188" gradientUnits="userSpaceOnUse">
<stop stop-color="#E1479A"/>
<stop offset="1" stop-color="#54459C"/>
</linearGradient>
<linearGradient id="paint3_linear_328_33545" x1="8.22581" y1="11.2096" x2="9.87122" y2="19.9952" gradientUnits="userSpaceOnUse">
<stop stop-color="#FCB415"/>
<stop offset="1" stop-color="#F3785F"/>
</linearGradient>
<linearGradient id="paint4_linear_328_33545" x1="19.7445" y1="4.75567" x2="14.9966" y2="15.0011" gradientUnits="userSpaceOnUse">
<stop stop-color="#E0479A"/>
<stop offset="1" stop-color="#5A459C"/>
</linearGradient>
</defs>
</svg>
