<svg width="24" height="24" viewBox="0 0 24 24" fill="none" xmlns="http://www.w3.org/2000/svg">
<path d="M3.34657 13.1631C2.55155 12.3032 3.22156 10.9031 4.37158 11.0031L19.8519 12.3782C20.8619 12.4681 21.3569 13.6781 20.7068 14.4782L17.8018 18.0382L17.4769 17.7633L17.7967 18.0382C17.6805 18.1808 17.5341 18.296 17.3682 18.3756C17.2022 18.4551 17.0207 18.497 16.8368 18.4982H8.79665C8.44664 18.4982 8.11664 18.3482 7.88163 18.0932L3.34657 13.1581V13.1631ZM4.29659 11.8631C3.91657 11.8282 3.69658 12.2932 3.95658 12.5782L8.49164 17.5133C8.57164 17.5981 8.68165 17.6482 8.79665 17.6482H16.8368C16.9568 17.6482 17.0768 17.5933 17.1568 17.4982L20.0669 13.9332C20.2818 13.6682 20.1168 13.2631 19.7819 13.2331L4.29659 11.8581V11.8631Z" fill="url(#paint0_linear_328_51698)"/>
<path d="M6.24131 6.75401C6.48631 5.85899 7.47134 5.31898 8.43134 5.559L18.0165 7.96403C18.2911 8.02536 18.5372 8.17684 18.7158 8.39432C18.8943 8.61179 18.9949 8.88276 19.0015 9.16405V9.26404C19.0015 9.9991 18.3166 10.5741 17.5265 10.499L7.59132 9.50406C6.51631 9.39905 5.79131 8.43403 6.05631 7.45402L6.24131 6.75401ZM8.19634 6.35901C7.71633 6.239 7.22632 6.509 7.10632 6.95902L6.91632 7.65903C6.78632 8.14903 7.14632 8.62904 7.68633 8.68404L17.6214 9.67407C17.8815 9.69903 18.1115 9.50905 18.1115 9.26404V9.16405C18.1115 8.97405 17.9765 8.81404 17.7815 8.76404L8.19634 6.36401V6.35901Z" fill="url(#paint1_linear_328_51698)"/>
<defs>
<linearGradient id="paint0_linear_328_51698" x1="2.99156" y1="8.8804" x2="19.6756" y2="10.5734" gradientUnits="userSpaceOnUse">
<stop stop-color="#45C1CB"/>
<stop offset="0.82" stop-color="#A274BF"/>
<stop offset="1" stop-color="#6A66B2"/>
</linearGradient>
<linearGradient id="paint1_linear_328_51698" x1="5.67113" y1="7.28902" x2="18.9214" y2="10.1341" gradientUnits="userSpaceOnUse">
<stop stop-color="#45C1CB"/>
<stop offset="0.72" stop-color="#A991CB"/>
<stop offset="1" stop-color="#6A66B2"/>
</linearGradient>
</defs>
</svg>
