<svg width="24" height="24" viewBox="0 0 24 24" fill="none" xmlns="http://www.w3.org/2000/svg">
<g clip-path="url(#clip0_328_60761)">
<path d="M24 0H0V24H24V0Z" fill="black"/>
<path d="M7.80738 12.7682L8.22996 9.58571L4.55885 7.03706L7.91303 8.17273L8.70536 6.95782L11.5974 5.16187L17.9756 8.67453L18.3057 14.036L15.4666 17.9844L13.2216 18.3277L14.3837 16.2016V14.1548L13.5386 12.5569L12.6802 11.9891L11.3597 13.3493V14.7887L10.3296 15.7527L9.02229 15.9111L8.44125 16.2413L7.49045 15.9375L7.09429 14.5113L7.80738 13.5077V12.7682Z" fill="white"/>
<path d="M13.6706 7.01063C12.9708 6.86537 12.2048 6.90498 12.2048 6.90498C12.2048 6.90498 11.9539 8.06707 10.3957 8.37079C10.4089 8.37079 12.4557 9.07068 13.6706 7.01063Z" fill="#94A6C3"/>
<path d="M14.3045 17.5486C15.1496 16.8883 15.7835 15.9772 16.074 14.9471C16.0872 14.9075 16.2061 14.8415 16.2853 14.7887C16.4174 14.7094 16.5494 14.6434 16.5758 14.5378C16.6287 14.234 16.6551 13.9171 16.6551 13.6002C16.6551 13.4813 16.5362 13.3625 16.4174 13.2436C16.3249 13.1644 16.2325 13.072 16.2325 13.0059C16.1004 11.8042 15.5458 10.6818 14.661 9.86303L14.5686 9.95546C15.427 10.761 15.9816 11.8571 16.1004 13.0191C16.1136 13.1248 16.2193 13.2304 16.3249 13.3361C16.4174 13.4153 16.523 13.5341 16.523 13.587C16.523 13.8907 16.4966 14.1944 16.4438 14.4981C16.4306 14.551 16.3117 14.6038 16.2193 14.6566C16.0872 14.7226 15.9684 14.7887 15.942 14.8943C15.625 16.0168 14.8987 16.994 13.9347 17.6278C14.1064 17.2581 14.6478 16.0564 14.9384 15.4489L14.8855 13.4945L13.2084 11.8703L12.2576 12.0023L11.2144 13.6926C11.2144 13.6926 11.703 14.3133 11.0163 15.0396C10.3429 15.7527 9.81463 15.9111 9.81463 15.9111L9.32603 15.647C9.47129 15.4621 9.76181 15.1848 9.9863 15C10.3693 14.683 10.7522 14.6566 10.7522 14.3133C10.7654 13.6002 9.99951 13.7983 9.99951 13.7983L9.72219 14.0624L9.60334 15.0396L9.0223 15.7659L8.95628 15.7527L8.00548 15.5414C8.00548 15.5414 8.58652 15.2377 8.67896 14.8943C8.7714 14.5642 8.49408 13.4681 8.48088 13.4021C8.49408 13.4153 8.75819 13.6398 8.87704 14.0095C9.08833 13.4285 9.36565 12.8739 9.44488 12.821C9.52411 12.7682 10.5938 12.2004 10.5938 12.2004L10.2372 13.138L10.5013 12.9927L11.1352 11.4345C11.1352 11.4345 11.7558 11.1308 12.218 11.1308C13.05 11.1175 14.2781 10.1007 13.7234 8.27837C13.8819 8.3444 16.6287 9.71777 17.104 12.4117C17.4606 14.4849 16.2853 16.4261 14.3045 17.5486Z" fill="#94A6C3"/>
<path d="M11.1616 7.30116C11.4653 6.94462 11.3465 6.4164 11.3465 6.4164L10.4617 7.72374C10.4485 7.72374 10.7786 7.73695 11.1616 7.30116Z" fill="#1B314F"/>
<path d="M8.19036 14.4454L8.296 13.9171C8.296 13.9171 7.86022 14.6831 7.82061 14.7887C7.78099 14.9075 7.84702 15.1188 8.01869 15.1056C8.19036 15.0924 8.40165 14.8415 8.40165 14.6566C8.40165 14.4189 8.19036 14.4454 8.19036 14.4454Z" fill="#1B314F"/>
<path d="M16.0344 6.04666C16.0344 6.04666 16.6947 6.07307 17.3814 6.15231C15.8363 4.9374 14.3705 4.58085 13.182 4.58085C11.5445 4.58085 10.4353 5.25433 10.3693 5.29395L10.8843 4.47521C10.8843 4.47521 8.82422 4.27713 8.09792 6.45603C7.91304 5.99384 7.74137 5.32036 7.74137 5.32036C7.74137 5.32036 6.67173 6.25795 7.17354 7.81619C5.94543 7.36721 4.1891 6.74655 4.12307 6.73335C4.03064 6.72014 4.00423 6.75976 4.00423 6.75976C4.00423 6.75976 3.97781 6.79937 4.05705 6.8654C4.20231 6.98425 6.97546 9.0311 7.58291 9.42726C7.45085 9.90266 7.45085 10.1272 7.58291 10.3516C7.76778 10.6554 7.78099 10.8138 7.75458 11.0383C7.72817 11.2628 7.49047 13.204 7.43765 13.4417C7.38483 13.6794 6.8302 14.5246 6.85661 14.7755C6.88302 15.0264 7.22636 16.096 7.53009 16.2149C7.75458 16.2941 8.30921 16.4658 8.67896 16.4658C8.81102 16.4658 8.92986 16.4394 8.98269 16.3865C9.20718 16.1885 9.27321 16.1488 9.43167 16.1488C9.44488 16.1488 9.45808 16.1488 9.47129 16.1488C9.53732 16.1488 9.61655 16.162 9.70899 16.162C9.92027 16.162 10.1976 16.1224 10.3957 15.9376C10.6862 15.647 11.188 15.2509 11.3465 15.066C11.5445 14.8151 11.6502 14.4718 11.5974 14.1284C11.5578 13.8115 11.7294 13.5342 11.9275 13.2568C12.1784 12.9267 12.6406 12.3325 12.6406 12.3325C13.5518 13.0191 14.1196 14.0624 14.1196 15.2245C14.1196 17.2845 12.3237 18.9484 10.1052 18.9484C9.76181 18.9484 9.43167 18.9088 9.10154 18.8296C10.1184 19.1861 10.9767 19.305 11.6766 19.305C13.1688 19.305 13.9611 18.7635 13.9611 18.7635C13.9611 18.7635 13.6838 19.1201 13.2348 19.5294C13.2481 19.5294 13.2481 19.5294 13.2481 19.5294C15.7175 19.1861 16.9192 17.1525 16.9192 17.1525C16.9192 17.1525 16.8267 17.8127 16.7079 18.2617C19.996 15.7923 19.4414 12.7022 19.4282 12.5966C19.4546 12.6362 19.7848 13.0324 19.9564 13.2436C20.4847 7.80299 16.0344 6.04666 16.0344 6.04666ZM10.9767 14.7359C10.9239 14.8019 10.6994 15 10.5409 15.1452C10.3825 15.2905 10.2108 15.4357 10.0787 15.5678C10.0259 15.6206 9.92028 15.647 9.76181 15.647C9.70899 15.647 9.65617 15.647 9.61655 15.647C9.59014 15.647 9.56373 15.647 9.53732 15.647C9.51091 15.647 9.4977 15.647 9.48449 15.647C9.44488 15.647 9.40526 15.647 9.36565 15.647C9.56373 15.3829 10.1448 14.7755 10.3429 14.6434C10.5805 14.485 10.6994 14.3265 10.5541 14.0492C10.4089 13.7719 10.0259 13.8379 10.0259 13.8379C10.0259 13.8379 10.2504 13.7454 10.4485 13.7454C10.1976 13.6794 9.88066 13.7454 9.7354 13.8907C9.57693 14.036 9.60334 14.551 9.53732 14.8811C9.47129 15.2245 9.2468 15.3961 8.90345 15.7131C8.71858 15.8847 8.58652 15.9376 8.48088 15.9376C8.25639 15.8979 7.99228 15.8319 7.8074 15.7659C7.67535 15.5942 7.47726 15.0264 7.42444 14.7887C7.46406 14.6566 7.62252 14.3793 7.70176 14.2208C7.86022 13.9171 7.95266 13.7454 7.97907 13.587C8.03189 13.3625 8.20356 11.9759 8.26959 11.3949C8.44126 11.6194 8.67896 11.9891 8.62614 12.2268C9.0091 11.6854 8.73178 11.1572 8.59973 10.9459C8.48088 10.7346 8.32241 10.312 8.45447 9.86304C8.58652 9.41406 9.06192 8.17274 9.06192 8.17274C9.06192 8.17274 9.22039 8.45006 9.44488 8.39724C9.66937 8.34441 11.4785 5.62409 11.4785 5.62409C11.4785 5.62409 11.9671 6.69373 11.4521 7.47285C10.9239 8.25198 10.4089 8.39724 10.4089 8.39724C10.4089 8.39724 11.1352 8.52929 11.8087 8.04069C12.086 8.68776 12.3501 9.36123 12.3633 9.45367C12.3237 9.54611 11.7955 10.8138 11.7426 10.8931C11.7162 10.9195 11.5313 10.9723 11.3993 10.9987C11.1748 11.0647 11.0427 11.1044 10.9899 11.144C10.8975 11.2232 10.4749 12.3853 10.2768 12.9531C10.0391 13.0191 9.80143 13.1512 9.62975 13.4153C9.72219 13.3493 10.0127 13.3097 10.224 13.2833C10.4089 13.2701 10.9767 13.5738 11.122 14.1416C11.122 14.1548 11.122 14.1548 11.122 14.168C11.1484 14.3793 11.0824 14.5774 10.9767 14.7359ZM9.7354 14.8943C9.85425 14.7227 9.84104 14.4321 9.85425 14.3397C9.86745 14.2473 9.89386 14.0756 9.99951 14.0492C10.1052 14.0228 10.3561 14.0624 10.3561 14.2473C10.3561 14.4189 10.1712 14.4585 10.0391 14.5774C9.94669 14.6698 9.76181 14.8679 9.7354 14.8943ZM15.0044 12.3721C15.1364 11.6986 15.1496 11.1176 15.11 10.6422C15.625 11.3288 15.942 12.1608 16.0344 13.0191C16.0476 13.1248 16.1533 13.2304 16.2589 13.3361C16.3513 13.4153 16.457 13.521 16.457 13.587C16.457 13.8907 16.4306 14.1944 16.3777 14.4982C16.3645 14.5378 16.2457 14.6038 16.1533 14.6566C16.0212 14.7227 15.9024 14.7887 15.8759 14.8943C15.5854 15.9111 14.9648 16.8091 14.1328 17.443C15.3609 16.1621 15.9552 14.0492 15.0044 12.3721ZM14.1724 17.5618C15.0308 16.9016 15.6911 15.9772 15.9816 14.9339C15.9948 14.8943 16.1136 14.8283 16.1929 14.7755C16.3249 14.7094 16.457 14.6302 16.4834 14.5246C16.5362 14.2208 16.5626 13.9039 16.5626 13.587C16.5626 13.4681 16.4438 13.3493 16.3249 13.2304C16.2589 13.1512 16.1533 13.0588 16.1533 12.9927C16.0476 12.0287 15.6647 11.1176 15.0704 10.3648C14.8063 8.78019 13.7499 8.29159 13.7234 8.27839C13.7499 8.318 14.4365 9.30841 13.9611 10.4705C13.4725 11.6458 12.218 11.4609 12.1124 11.4741C12.0067 11.4741 11.5974 12.0023 11.0824 12.9795C11.0163 12.9531 10.739 12.8871 10.4221 12.9399C10.6598 12.2796 11.0163 11.3421 11.0824 11.2628C11.1088 11.2364 11.3068 11.1836 11.4389 11.144C11.6898 11.0779 11.8087 11.0383 11.8483 10.9855C11.8747 10.9459 12.0067 10.6422 12.1388 10.3252C12.2576 10.3252 12.5614 10.2988 12.5878 10.2856C12.6142 10.2592 12.8651 9.61214 12.8651 9.53291C12.8651 9.46688 12.3501 8.18595 12.152 7.69735C12.2444 7.5917 12.3369 7.45965 12.4293 7.31439C15.1364 7.60491 17.2493 9.90266 17.2493 12.689C17.2493 14.8283 15.9948 16.6903 14.1724 17.5618Z" fill="#1B314F"/>
<path d="M10.6598 10.4309C10.9107 10.1403 10.7786 9.59892 10.3164 9.50648C10.4353 9.22916 10.607 8.67453 10.607 8.67453C10.607 8.67453 9.26 10.7874 9.14115 10.827C9.0223 10.8666 8.90345 10.4045 8.90345 10.4045C8.65255 11.3684 9.32603 11.5005 9.40526 11.1968C9.77501 11.1043 10.4089 10.7082 10.6598 10.4309Z" fill="#1B314F"/>
<path d="M9.51089 10.9459L10.1976 9.77062C10.1976 9.77062 10.5937 9.9687 10.3957 10.2856C10.1448 10.6554 9.51089 10.9459 9.51089 10.9459Z" fill="#FFD923"/>
<path d="M18.002 16.3865C17.8039 16.6507 17.5794 16.928 17.3153 17.1921C19.0188 13.9171 17.3946 10.9195 17.3285 10.8006C17.4474 10.9195 17.5662 11.0515 17.6719 11.1704C18.9792 12.623 19.1377 14.8019 18.002 16.3865Z" fill="#D82122"/>
<path d="M19.5867 12.174C18.9924 10.5761 18.1473 9.21596 16.2853 7.98785C14.4894 6.79936 12.5614 6.8918 12.4557 6.905C12.4425 6.905 12.4293 6.905 12.4293 6.905C12.4953 6.87859 12.5614 6.86538 12.6274 6.85218C13.0368 6.72012 13.565 6.61448 14.0932 6.54845C15.493 6.35037 16.906 6.82577 17.87 7.84259C17.8832 7.85579 17.8832 7.85579 17.8964 7.869C18.9924 9.03108 19.5603 10.4837 19.5867 12.174Z" fill="#D82122"/>
<path d="M15.8627 5.63731C13.8951 5.26756 12.6274 5.45243 11.7162 5.79577C11.6898 5.69013 11.5974 5.47884 11.5181 5.30717C11.2408 5.63731 10.9503 6.03347 10.7654 6.28438C10.2636 6.62772 10.0523 6.95786 10.0523 6.95786C10.3429 5.96745 11.188 5.22794 12.218 5.04307C12.5085 4.99025 12.8255 4.96384 13.1688 4.96384C14.08 4.97704 14.9912 5.20153 15.8627 5.63731Z" fill="#D82122"/>
<path d="M8.58654 8.17276C7.0415 8.11994 7.55651 6.32399 7.58292 6.21835C7.58292 6.23156 7.68857 7.63134 8.58654 8.17276Z" fill="#D82122"/>
<path d="M10.1052 4.93741C8.91666 5.6505 9.15436 7.354 9.15436 7.354C8.01869 5.62409 10.0127 4.97702 10.1052 4.93741Z" fill="#D82122"/>
<path d="M8.15076 8.64814C8.22999 8.71417 8.30922 8.83302 8.21679 9.00469C8.16396 9.09713 8.08473 9.08392 7.96588 9.0311C7.80742 8.95186 6.85662 8.39724 5.99827 7.8294C6.97547 8.17274 7.96588 8.5425 8.12435 8.62173C8.12435 8.62173 8.13755 8.63493 8.15076 8.64814Z" fill="white"/>
</g>
<defs>
<clipPath id="clip0_328_60761">
<rect width="24" height="24" fill="white"/>
</clipPath>
</defs>
</svg>
