<svg width="24" height="24" viewBox="0 0 24 24" fill="none" xmlns="http://www.w3.org/2000/svg">
<g clip-path="url(#clip0_328_60789)">
<path d="M24 0H0V24H24V0Z" fill="black"/>
<path d="M7.06791 12L5.03779 14.0301L3.00256 12L5.03268 9.96994L7.06791 12ZM12.0026 7.06534L15.4849 10.5477L17.5151 8.51762L12.0026 3L6.48496 8.51762L8.51506 10.5477L12.0026 7.06534ZM18.9674 9.96994L16.9372 12L18.9674 14.0301L20.9974 12L18.9674 9.96994ZM12.0026 16.9347L8.52018 13.4523L6.49006 15.4824L12.0026 21L17.5151 15.4824L15.4849 13.4523L12.0026 16.9347ZM12.0026 14.0301L14.0327 12L12.0026 9.96994L9.96736 12L12.0026 14.0301Z" fill="#F0B90B"/>
</g>
<defs>
<clipPath id="clip0_328_60789">
<rect width="24" height="24" fill="white"/>
</clipPath>
</defs>
</svg>
