<svg width="24" height="24" viewBox="0 0 24 24" fill="none" xmlns="http://www.w3.org/2000/svg">
<rect x="0" y="0" width="24" height="24" fill="#0052FF"/>
<path d="M12.134,7.307C9.534,7.307 7.741,9.304 7.74,12.015C7.74,14.696 9.562,16.693 12.164,16.693C14.047,16.693 15.542,15.501 16.08,13.773L19.847,13.773C19.159,17.497 16.05,20 12.165,20C7.562,20 4.124,16.604 4.124,12.015C4.124,7.427 7.651,4 12.165,4C16.14,4 19.188,6.503 19.876,10.197L16.08,10.197C15.512,8.469 14.018,7.307 12.134,7.307Z" fill="white"/>
</svg>
