<svg width="24" height="24" viewBox="0 0 24 24" fill="none" xmlns="http://www.w3.org/2000/svg">
<g clip-path="url(#clip0_453_7)">
<path d="M20.7843 5.0272H3.21997C3.13097 5.0272 3.05883 5.09934 3.05883 5.18834V18.5831C3.05883 18.6721 3.13097 18.7442 3.21997 18.7442H20.7843C20.8733 18.7442 20.9454 18.6721 20.9454 18.5831V5.18834C20.9454 5.09934 20.8733 5.0272 20.7843 5.0272Z" stroke="#0054FA" stroke-width="2.25597"/>
<path d="M7.1914 8.18073H8.61459L9.53245 15.8124H8.32583L8.19176 14.1519H7.55235L7.41828 15.8124H6.27354L7.1914 8.18073ZM7.75862 11.5737L7.63485 13.1413H8.10925L7.97519 11.5737L7.88237 10.2536H7.85143L7.75862 11.5737ZM12.0614 15.8124H10.8342V8.18073H12.443C13.3196 8.18073 13.8559 8.69638 13.8559 9.62455V11.5015C13.8559 12.4194 13.3196 12.935 12.443 12.935H12.0614V15.8124ZM12.0717 12.0172H12.3398C12.5461 12.0172 12.6286 11.8315 12.6286 11.5015V9.62455C12.6286 9.28422 12.5461 9.09859 12.3398 9.09859H12.0717V12.0172ZM15.2695 15.8124V8.18073H17.6621V9.1914H16.4968V11.4499H17.5384V12.4606H16.4968V14.8017H17.6621V15.8124H15.2695Z" fill="#0054FA"/>
</g>
<defs>
<clipPath id="clip0_453_7">
<rect width="18" height="13.7606" fill="white" transform="translate(3 5)"/>
</clipPath>
</defs>
</svg>
