<svg width="24" height="24" viewBox="0 0 24 24" fill="none" xmlns="http://www.w3.org/2000/svg">
<path d="M9.55063 6.4H8.08528C7.98409 6.4 7.89376 6.46515 7.85904 6.56299L4.00739 17.4336C3.97875 17.5144 4.03691 17.6 4.12051 17.6H5.58586C5.68706 17.6 5.77738 17.5348 5.8121 17.4371L9.66375 6.56645C9.69239 6.48557 9.63423 6.4 9.55063 6.4ZM11.3329 10.9548C11.2945 10.8462 11.1453 10.8462 11.1067 10.9548L10.347 13.0992C10.3276 13.154 10.3276 13.2142 10.347 13.2691L11.8238 17.437C11.8585 17.5348 11.9489 17.5999 12.05 17.5999H13.5154C13.599 17.5999 13.6572 17.5143 13.6285 17.4335L11.3329 10.9548ZM15.0685 13.0537C15.107 13.1624 15.2562 13.1624 15.2947 13.0537L17.5932 6.56645C17.6218 6.48557 17.5637 6.4 17.4801 6.4H16.0147C15.9135 6.4 15.8232 6.46507 15.7885 6.56299L14.3088 10.7394C14.2893 10.7943 14.2893 10.8544 14.3088 10.9092L15.0685 13.0537ZM12.1793 6.56184C12.1449 6.46465 12.0552 6.4 11.9548 6.4H10.4845C10.3833 6.4 10.293 6.46507 10.2583 6.56291L6.40673 17.4336C6.37809 17.5144 6.43626 17.6 6.51985 17.6H7.98528C8.08649 17.6 8.1768 17.5349 8.21152 17.4371L11.1605 9.11394C11.1798 9.05933 11.2548 9.05933 11.2741 9.11394L14.2231 17.4371C14.2577 17.5349 14.3481 17.6 14.4493 17.6H15.9147C15.9983 17.6 16.0565 17.5144 16.0279 17.4336L12.1793 6.56184ZM19.8794 6.4H18.4139C18.3128 6.4 18.2224 6.46507 18.1878 6.56291L15.5083 14.1252C15.4889 14.1801 15.4889 14.2402 15.5083 14.295L16.2682 16.4395C16.3067 16.5482 16.4559 16.5482 16.4943 16.4395L19.1466 8.95359L19.9926 6.56637C20.0213 6.48557 19.9631 6.4 19.8794 6.4Z" fill="#EF8220"/>
</svg>
