<svg width="24" height="24" viewBox="0 0 24 24" fill="none" xmlns="http://www.w3.org/2000/svg">
  <path d="M2 3.895C2 3.245 2 2.92 2.122 2.671C2.239 2.432 2.433 2.238 2.672 2.121C2.921 1.999 3.246 1.999 3.895 1.999H20.105C20.755 1.999 21.079 1.999 21.329 2.121C21.568 2.238 21.761 2.433 21.878 2.671C22.001 2.921 22.001 3.246 22.001 3.895V20.105C22.001 20.755 22.001 21.079 21.878 21.329C21.761 21.568 21.567 21.761 21.329 21.878C21.079 22.001 20.754 22.001 20.105 22.001H3.895C3.245 22.001 2.921 22.001 2.671 21.878C2.432 21.761 2.239 21.567 2.122 21.329C1.999 21.079 1.999 20.754 1.999 20.105V3.895Z" fill="#0000FF"/>
</svg>
