<svg width="24" height="24" viewBox="0 0 24 24" fill="none" xmlns="http://www.w3.org/2000/svg">
<path d="M11.8078 4.93279C12.1562 4.75441 12.5856 5.16095 12.3969 5.50215C12.2952 5.77283 11.8887 5.84439 11.6688 5.63698C11.451 5.43786 11.5236 5.03961 11.814 4.92553L11.8078 4.93279ZM8.05972 5.32378C8.27751 5.23873 8.53886 5.42437 8.51812 5.64527C8.53886 5.88691 8.23395 6.07152 8.01616 5.95018C7.732 5.84439 7.76727 5.39533 8.05972 5.32378ZM15.7446 5.95847C15.4106 5.91492 15.3588 5.41711 15.672 5.31755C15.9271 5.20347 16.1521 5.41711 16.1895 5.64527C16.1377 5.83714 15.9717 6.01551 15.7446 5.95847ZM8.91015 6.85556C9.26691 6.64192 9.76989 6.96134 9.71182 7.35337C9.6973 7.75991 9.15179 7.99429 8.83755 7.72361C8.53264 7.50997 8.58346 7.01838 8.91015 6.85556ZM14.3185 7.08994C14.4783 6.69896 15.1192 6.68444 15.3007 7.06194C15.476 7.36062 15.2572 7.73087 14.9377 7.83043C14.5229 7.90199 14.1225 7.4747 14.3185 7.08994ZM11.3566 7.80243C11.3566 7.46745 11.6761 7.21854 12.011 7.19677C12.2289 7.23929 12.4705 7.33159 12.5649 7.54626C12.7391 7.83769 12.5856 8.24319 12.2661 8.38631C12.1209 8.45684 11.9458 8.4278 11.786 8.42157C11.5454 8.30749 11.3422 8.07933 11.3566 7.80969V7.80243ZM5.78123 8.30023C6.10169 8.10837 6.53831 8.45787 6.41385 8.79908C6.34852 9.08324 5.94094 9.20458 5.70863 9.01997C5.46077 8.8416 5.49707 8.42157 5.78123 8.30023ZM17.7607 8.30023C18.0376 8.08763 18.4887 8.32927 18.4525 8.657C18.4742 8.96293 18.0894 9.19836 17.8125 9.04072C17.5139 8.90589 17.4765 8.47135 17.7607 8.30023ZM12.9278 8.90589C13.156 8.83226 13.3997 8.8333 13.6269 8.90901C13.8529 8.98472 14.0479 9.13094 14.1806 9.32592C14.5157 9.79572 14.3404 10.5217 13.8093 10.7924C13.2628 11.1201 12.4621 10.8422 12.259 10.2583C12.0266 9.73142 12.3605 9.06976 12.9289 8.90589M10.2729 8.95568C10.7749 8.72752 11.4521 8.92041 11.6916 9.412C11.983 9.89528 11.758 10.5653 11.2488 10.8142C10.7386 11.0983 10.0105 10.8847 9.77093 10.3651C9.48677 9.86728 9.73463 9.1828 10.2729 8.95568ZM7.60963 9.83098C7.64592 9.51882 7.95187 9.31866 8.26404 9.29792C8.4217 9.31226 8.56975 9.38001 8.68366 9.48996C8.79758 9.59992 8.87052 9.74548 8.89043 9.90254C8.86762 10.223 8.61353 10.5435 8.26404 10.5435C7.86994 10.5725 7.536 10.194 7.60963 9.83098ZM15.4697 9.36118C15.8701 9.14857 16.4156 9.468 16.4011 9.90254C16.4301 10.3724 15.8193 10.7011 15.4262 10.4294C15.0113 10.2013 15.0404 9.56134 15.4697 9.36118ZM9.18808 11.006C9.42039 10.9469 9.66514 10.9635 9.88605 11.0538C10.1069 11.1429 10.2905 11.3027 10.4108 11.5049C10.5324 11.7139 10.575 11.9595 10.531 12.1974C10.487 12.4351 10.3595 12.6495 10.1712 12.8012C9.67552 13.2493 8.75872 13.0647 8.49738 12.459C8.19144 11.9031 8.55546 11.1554 9.18808 11.006ZM14.2325 11.006C14.6837 10.8785 15.2146 11.0486 15.4553 11.4416C15.7829 11.8959 15.6222 12.5803 15.1493 12.8645C14.6401 13.2067 13.8685 13.0283 13.5916 12.4943C13.2566 11.9467 13.5916 11.1699 14.2325 10.9988V11.006ZM6.18985 11.5122C6.59017 11.3701 7.03404 11.7963 6.87433 12.1811C6.77165 12.5306 6.26245 12.6581 6.00109 12.3947C5.68789 12.1593 5.80405 11.619 6.18985 11.5122ZM17.0856 12.0743C17.0818 11.996 17.0937 11.9179 17.1204 11.8444C17.147 11.7709 17.1881 11.7035 17.2411 11.6459C17.35 11.5284 17.5001 11.4574 17.6601 11.4479C17.9297 11.4903 18.1994 11.704 18.1776 11.9965C18.2056 12.3739 17.7254 12.6374 17.3905 12.4528C17.2308 12.3802 17.1519 12.2247 17.0856 12.0743ZM4.21003 11.704C4.4579 11.6044 4.75658 11.8035 4.69746 12.0597C4.68295 12.3522 4.23907 12.4663 4.0721 12.2247C3.92691 12.0535 4.01403 11.7963 4.2173 11.704H4.21003ZM19.4585 11.704C19.6326 11.5837 19.9013 11.6625 19.9666 11.8534C20.0838 12.067 19.8733 12.3522 19.6326 12.3159C19.2904 12.3449 19.1742 11.8461 19.4585 11.6967V11.704ZM10.4979 13.0999C11.1316 12.9433 11.815 13.4557 11.8234 14.0821C11.8597 14.723 11.1907 15.2934 10.5353 15.144C10.2879 15.1006 10.0634 14.9722 9.90057 14.7811C9.73996 14.5921 9.65239 14.3518 9.65374 14.1039C9.65374 13.6403 10.0188 13.1995 10.499 13.1072L10.4979 13.0999ZM13.017 13.0999C13.6641 12.9288 14.3632 13.4484 14.3559 14.0966C14.3922 14.7157 13.7378 15.2643 13.0969 15.1368C12.5006 15.0652 12.0557 14.4315 12.2237 13.8684C12.3108 13.4982 12.6313 13.1923 13.017 13.0999ZM8.15514 13.4909C8.60627 13.4194 9.02837 13.8975 8.83962 14.303C8.70791 14.7375 8.05247 14.8588 7.76104 14.5021C7.4188 14.1599 7.67496 13.5335 8.15514 13.4909ZM15.5496 13.5127C15.9427 13.3488 16.4373 13.6839 16.4011 14.0966C16.4229 14.5529 15.8193 14.8734 15.4262 14.6016C14.9896 14.36 15.0621 13.6559 15.5496 13.5127ZM17.6093 15.5071C17.4569 15.2219 17.74 14.8516 18.0604 14.9014C18.2212 14.9014 18.3373 15.0227 18.4389 15.1295C18.4607 15.2934 18.497 15.4852 18.3518 15.6201C18.1548 15.8555 17.7192 15.785 17.6093 15.5071ZM5.77501 14.9781C6.07369 14.7863 6.50305 15.0777 6.43668 15.4137C6.40141 15.7196 6.00732 15.8907 5.75219 15.7196C5.47633 15.562 5.48255 15.1212 5.77501 14.9781ZM11.7362 15.6118C12.1293 15.4407 12.6313 15.7756 12.5949 16.1895C12.624 16.651 12.0048 16.9724 11.6201 16.6945C11.1824 16.4591 11.255 15.7549 11.7362 15.6118ZM8.97029 16.2319C9.31254 16.0608 9.76367 16.3533 9.72737 16.7163C9.74189 17.015 9.43595 17.2711 9.13727 17.2214C8.88318 17.2214 8.71517 17.0004 8.63531 16.7941C8.63531 16.5659 8.73799 16.317 8.97755 16.2247L8.97029 16.2319ZM14.5748 16.2319C14.917 16.0246 15.4044 16.3253 15.3744 16.709C15.3816 17.1218 14.8289 17.3779 14.5011 17.1145C14.4309 17.0618 14.3752 16.9922 14.3392 16.9122C14.3033 16.8321 14.2882 16.7443 14.2954 16.6567C14.3027 16.5693 14.3321 16.4851 14.3807 16.4121C14.4293 16.339 14.4958 16.2795 14.5737 16.2392L14.5748 16.2319ZM15.5424 18.5457C15.3899 18.3321 15.5714 18.0542 15.8193 18.0054C16.0225 18.0469 16.2341 18.19 16.1822 18.4098C16.1615 18.7168 15.7021 18.8091 15.5424 18.553V18.5457ZM7.82016 18.3538C7.87824 18.1765 8.02343 17.9981 8.24225 18.0469C8.56272 18.0686 8.65709 18.5312 8.38019 18.6743C8.1261 18.8298 7.84194 18.61 7.82016 18.3538ZM11.5465 18.5602C11.6046 18.2968 11.9613 18.1692 12.1946 18.3114C12.3398 18.3756 12.3917 18.5395 12.4269 18.6816L12.3689 18.8942C12.2745 19.0082 12.151 19.115 11.9976 19.1078C11.6999 19.1441 11.4303 18.8237 11.5465 18.5602Z" fill="#246DD3"/>
</svg>
