<svg width="24" height="24" viewBox="0 0 24 24" fill="none" xmlns="http://www.w3.org/2000/svg">
<path d="M12.0005 22C17.5236 22 22.001 17.5228 22.001 12C22.001 6.47715 17.5236 2 12.0005 2C6.47738 2 2 6.47715 2 12C2 17.5228 6.47738 22 12.0005 22Z" fill="#F5911A"/>
<path d="M8.41152 13.0255C9.26769 12.0008 8.89797 10.6096 8.6061 10.0421C9.54291 10.1826 10.1793 10.8799 10.5197 11.8754C10.86 12.8709 10.7076 14.2185 10.6747 14.662C10.8431 14.4115 11.2744 14.0666 11.8945 13.6477C12.5147 13.2288 13.3937 13.0357 13.562 13.0151C13.7305 12.9946 14.1659 13.0357 14.4163 13.3068C14.6109 13.5172 14.558 13.8686 14.5034 14.0317C14.5055 14.0383 14.5032 14.043 14.4985 14.046C14.5001 14.0414 14.5018 14.0366 14.5034 14.0317C14.4949 14.0035 14.4082 13.9414 14.103 13.8362C13.7268 13.7065 13.514 13.9443 13.4545 14.0794C13.3517 14.3119 13.127 14.8707 13.0491 15.2469C12.9712 15.623 12.6599 16.1279 12.514 16.3332L11.7843 16.8035H11.2816C11.2384 16.8143 11.0092 16.8002 10.4384 16.6575C10.6817 17.1278 11.2005 17.0954 11.6059 17.1927C11.5151 17.8152 11.1249 18.0682 10.9411 18.1168C10.6546 18.1817 9.94548 18.2141 9.40065 17.825C8.85581 17.4358 9.04391 16.8521 9.20606 16.6089L8.65474 15.7658C8.21694 15.2794 7.55535 14.0503 8.41152 13.0255Z" fill="white"/>
<path d="M11.1578 13.594L11.2344 13.0581L11.7279 13.2112L11.1578 13.594Z" fill="white"/>
<path d="M14.2975 12.7177C13.9572 12.5339 13.6338 12.5674 13.5147 12.6071C13.5895 12.3348 13.3984 12.1533 13.2935 12.0966C13.3899 12.1249 13.627 12.197 13.804 12.2582C14.0252 12.3348 14.2805 12.5305 14.2975 12.7177Z" fill="white"/>
<path d="M12.8935 12.6922L12.2469 12.9219C12.0115 12.8368 11.4658 12.6428 11.1663 12.5475C11.2208 12.1663 11.0188 11.6116 10.9111 11.3819L11.2429 11.3479C11.6542 11.4273 12.5464 11.6507 12.8255 11.9094C13.1046 12.168 12.9872 12.539 12.8935 12.6922Z" fill="white"/>
<path d="M10.8343 10.7647L10.8638 10.7737C10.8536 10.7712 10.8438 10.7682 10.8343 10.7647L10.4689 10.6527C10.4074 10.5253 10.19 10.2299 9.81298 10.0668C9.82572 9.74844 9.96583 9.38545 10.4626 9.41092C10.8294 9.50262 11.1291 9.61045 11.2331 9.65291C11.1228 9.61682 10.8701 9.6198 10.7428 9.92038C10.5898 10.2814 10.6014 10.6778 10.8343 10.7647Z" fill="white"/>
<path d="M11.0803 10.2197C10.9988 10.6374 11.2289 10.865 11.3542 10.9265C11.7299 11.0836 12.5451 11.4016 12.7998 11.4169C13.1182 11.436 13.2902 11.4296 13.4685 11.0221C13.6112 10.696 13.4005 10.4235 13.2775 10.3279L11.8318 9.83122C11.6153 9.78664 11.1618 9.80193 11.0803 10.2197Z" fill="white"/>
<path d="M14.0353 11.8117L13.3602 11.5888C13.4728 11.5973 13.7347 11.5162 13.8825 11.1239C14.0302 10.7317 13.8378 10.5232 13.7232 10.468L14.5129 10.7419C14.6276 10.8565 14.8236 11.1647 14.6913 11.4806C14.5588 11.7964 14.1987 11.8329 14.0353 11.8117Z" fill="white"/>
<path d="M14.3792 10.2324L13.7296 10.0286C13.8336 10.0414 14.0837 9.9726 14.2518 9.5956C14.4199 9.21862 14.2157 8.98851 14.0926 8.92058L14.8441 9.1753C14.9799 9.2687 15.2134 9.54848 15.0606 9.92038C14.9078 10.2923 14.5426 10.2834 14.3792 10.2324Z" fill="white"/>
<path d="M11.7044 8.75502C11.5923 9.1422 11.8742 9.40032 12.0292 9.48098C12.3476 9.60197 13.0316 9.84906 13.2201 9.86944C13.4558 9.89491 13.6787 9.80576 13.8443 9.43004C13.9766 9.12947 13.7424 8.86328 13.6086 8.76776L12.3986 8.36019C12.2139 8.33048 11.8165 8.36783 11.7044 8.75502Z" fill="white"/>
<path d="M10.8256 9.06705L11.5579 9.31541C11.4359 9.27401 11.2281 9.08488 11.3733 8.6595C11.5185 8.2341 11.8159 8.17658 11.9464 8.20099L11.1631 7.95901C10.9848 7.92715 10.6078 7.97301 10.5263 8.41113C10.4447 8.84926 10.6918 9.03097 10.8256 9.06705Z" fill="white"/>
<path d="M13.894 8.40185C13.8909 8.40093 13.8879 8.39996 13.885 8.39894L13.894 8.40185C14.0156 8.43828 14.2722 8.39837 14.396 7.9585C14.5228 7.50749 14.3446 7.31756 14.2396 7.27898L14.8917 7.48605C15.087 7.56829 15.4292 7.83499 15.2354 8.24385C15.0414 8.65271 14.6964 8.66094 14.548 8.61395L13.894 8.40185Z" fill="white"/>
<path d="M11.6312 7.64467L12.345 7.8958C12.2407 7.83559 12.063 7.61559 12.1864 7.2173C12.3097 6.81901 12.5961 6.75469 12.7239 6.77231L12.0233 6.53881C11.828 6.5153 11.4179 6.57493 11.3404 7.00141C11.2628 7.4279 11.5019 7.60795 11.6312 7.64467Z" fill="white"/>
<path d="M13.1513 6.92209C12.7741 6.85161 12.5594 7.18057 12.4992 7.35387C12.4005 7.65699 12.6226 7.91781 12.746 8.01034C12.9118 8.0823 13.2755 8.22798 13.4025 8.23504C13.5611 8.24384 13.9003 8.25266 14.0589 7.8297C14.1859 7.49133 13.9591 7.23344 13.8298 7.14679C13.7608 7.10126 13.5284 6.99259 13.1513 6.92209Z" fill="white"/>
<path d="M13.2438 6.56524C12.9266 6.40309 12.9383 6.05122 12.9839 5.89555C13.1566 5.46201 13.5111 5.43293 13.6668 5.47258L14.3277 5.7105C14.4643 5.82064 14.6934 6.122 14.5171 6.44627C14.341 6.77054 14.0472 6.80755 13.9224 6.78553C13.8283 6.77965 13.5611 6.72737 13.2438 6.56524Z" fill="white"/>
</svg>
