<svg width="24" height="24" viewBox="0 0 24 24" fill="none" xmlns="http://www.w3.org/2000/svg">
<path d="M6.86239 8C7.39692 8 7.83027 8.43135 7.83027 8.96347C7.83027 9.38008 7.56458 9.73501 7.19268 9.86939L7.19273 14.8604C7.88508 14.8299 8.52891 14.7038 9.10092 14.4948L9.1009 10.6685C8.729 10.534 8.46331 10.1791 8.46331 9.76252C8.46331 9.23044 8.89666 8.79908 9.43119 8.79908C9.96573 8.79908 10.3991 9.23044 10.3991 9.76252C10.3991 10.1791 10.1334 10.534 9.76152 10.6685V14.1996C10.3975 13.8573 10.907 13.3942 11.2449 12.8347C11.0157 12.629 10.8716 12.3312 10.8716 12C10.8716 11.3796 11.3768 10.8767 12 10.8767C12.0512 10.8767 12.1015 10.8801 12.1509 10.8867C13.0104 9.39909 14.8533 8.4981 17.0521 8.47533L17.1377 8.47489H20.6697C20.8521 8.47489 21 8.62208 21 8.80365C21 8.97874 20.8625 9.12186 20.6891 9.13187L20.6697 9.13242H20.0367V14.1306C20.4086 14.265 20.6743 14.6199 20.6743 15.0365C20.6743 15.5686 20.2409 16 19.7064 16C19.1719 16 18.7386 15.5686 18.7386 15.0365C18.7386 14.6199 19.0042 14.265 19.3762 14.1306L19.3761 9.13242H17.4679L17.468 14.1306C17.8398 14.265 18.1055 14.6199 18.1055 15.0365C18.1055 15.5686 17.6722 16 17.1377 16C16.6031 16 16.1697 15.5686 16.1697 15.0365C16.1697 14.6199 16.4354 14.265 16.8073 14.1306L16.8073 9.13962C16.1149 9.17005 15.4711 9.29616 14.8991 9.50518V13.3315C15.2711 13.4659 15.5367 13.8208 15.5367 14.2375C15.5367 14.7695 15.1033 15.2009 14.5688 15.2009C14.0343 15.2009 13.6009 14.7695 13.6009 14.2375C13.6009 13.8208 13.8666 13.4659 14.2385 13.3315V9.80045C13.6025 10.1427 13.093 10.6058 12.7551 11.1653C12.9843 11.3709 13.1284 11.6687 13.1284 12C13.1284 12.6203 12.6232 13.1233 12 13.1233C11.9488 13.1233 11.8985 13.1199 11.8491 13.1133C10.9896 14.6009 9.14672 15.5019 6.94791 15.5247L6.86239 15.5251H3.33027C3.14787 15.5251 3 15.3779 3 15.1963C3 15.0213 3.13749 14.8781 3.31087 14.8681L3.33027 14.8676L3.96331 14.8675V9.86939C3.59139 9.73501 3.32569 9.38009 3.32569 8.96347C3.32569 8.43135 3.75904 8 4.29358 8C4.82812 8 5.26147 8.43135 5.26147 8.96347C5.26147 9.38004 4.99581 9.73492 4.62396 9.8693L4.62385 14.8675H6.53208L6.5321 9.86939C6.16019 9.73501 5.8945 9.38008 5.8945 8.96347C5.8945 8.43135 6.32785 8 6.86239 8Z" fill="#FF0083"/>
</svg>
