<svg width="24" height="24" viewBox="0 0 24 24" fill="none" xmlns="http://www.w3.org/2000/svg">
<path d="M7.32311 11.1004V14.7011L5.76409 15.6001V10.2002L7.32311 11.1004Z" fill="#FFA534"/>
<path d="M19.7946 7.50031V16.5003L18.2356 17.4005L18.235 10.2002L16.6766 11.0998V18.3007L11.9996 21V12.0006L13.5586 11.1004V18.3007L15.1176 17.4005V10.2002L19.7946 7.50031Z" fill="#FFA534"/>
<path d="M8.88213 6.59951L7.32311 7.4997L8.88213 8.39988V6.59951Z" fill="#FFA534"/>
<path d="M11.9996 4.79976L10.4405 5.69994L11.9996 6.59951V4.79976Z" fill="#FFA534"/>
<path d="M19.7946 7.50031L18.2356 8.39988L11.9996 4.79976L10.4405 5.69994L10.4405 5.70055L11.9996 6.59951L16.6766 9.30006L15.1182 10.2002L15.1176 10.2002L15.1176 10.1996L8.88213 6.59951L7.32311 7.4997L13.5586 11.1004L11.9996 12.0006L4.20508 7.49969L11.9989 3H11.9996L19.7946 7.50031Z" fill="white"/>
<path d="M10.4405 16.5003V18.3007L5.76409 15.6001L7.32311 14.7011L10.4405 16.5003Z" fill="white"/>
<path d="M13.5586 18.3007L15.1176 17.4005L13.5586 16.5003L13.5586 18.3007Z" fill="white"/>
<path d="M4.20508 7.49969V16.5003L11.9996 21L11.9996 11.9994L4.20508 7.49969ZM10.4405 18.3007L5.76348 15.6001V10.2002L10.4405 12.9008L10.4405 18.3007Z" fill="#FF6C2D"/>
<path d="M18.2356 17.4005L16.6766 16.5003L16.6766 11.0998L18.235 10.2002L18.2356 17.4005Z" fill="#FF6C2D"/>
<path d="M18.2356 8.39988L16.6766 9.30006L11.9996 6.59951V4.79976L18.2356 8.39988Z" fill="#FF6C2D"/>
<path d="M8.88213 6.59951V8.39988L13.5586 11.1004L13.5586 16.5003L15.1176 17.4005V10.2002L8.88213 6.59951Z" fill="#FF6C2D"/>
</svg>
