<svg width="24" height="24" viewBox="0 0 24 24" fill="none" xmlns="http://www.w3.org/2000/svg">
<path d="M12 2C6.47709 2 2 6.47709 2 12C2 17.5229 6.47709 22 12 22C17.5229 22 22 17.5229 22 12C22 6.47709 17.5229 2 12 2ZM12 20.23C7.45482 20.23 3.77005 16.5454 3.77005 12C3.77005 7.45459 7.45459 3.77005 12 3.77005C16.5454 3.77005 20.23 7.45459 20.23 12C20.23 16.5454 16.5454 20.23 12 20.23Z" fill="url(#paint0_linear_376_10575)"/>
<path d="M11.9453 6.50149C8.91951 6.53118 6.4674 9.03795 6.50132 12.0638C6.51005 12.8375 6.6785 13.5728 6.97559 14.2384C7.02011 14.338 7.15181 14.3601 7.22767 14.2819L8.44007 13.0306C8.51924 12.9491 8.55175 12.8336 8.52866 12.7223C8.4806 12.4893 8.45539 12.248 8.45539 12.0006C8.45539 10.0423 10.0426 8.45508 12.0002 8.45508C12.2004 8.45508 12.3967 8.47156 12.5881 8.50361C12.7159 8.52505 12.8464 8.48453 12.9369 8.39123L14.1427 7.14726C14.2134 7.07446 14.1887 6.95266 14.0949 6.91403C13.4333 6.64144 12.7073 6.49395 11.9453 6.50149Z" fill="url(#paint1_linear_376_10575)"/>
<path d="M12.0545 17.5053C15.0804 17.4756 17.5325 14.9688 17.4985 11.9431C17.4899 11.1693 17.3214 10.4341 17.0242 9.76847C16.9797 9.66884 16.848 9.64672 16.7722 9.72484L15.5597 10.9762C15.4806 11.0577 15.4481 11.1731 15.4712 11.2846C15.5192 11.5176 15.5445 11.7588 15.5445 12.0062C15.5445 13.9645 13.9572 15.5517 11.9996 15.5517C11.7994 15.5517 11.6031 15.5352 11.4119 15.5032C11.2839 15.4817 11.1534 15.5222 11.0629 15.6156L9.85712 16.8596C9.78649 16.9323 9.81112 17.0541 9.90499 17.0927C10.5665 17.3653 11.2926 17.5128 12.0545 17.5053Z" fill="url(#paint2_linear_376_10575)"/>
<path d="M9.16689 13.0879L6.8574 15.3974C6.38871 15.866 6.38867 16.6259 6.85731 17.0945C7.32596 17.5632 8.08581 17.5632 8.55449 17.0944L10.8639 14.7849C11.3327 14.3163 11.3327 13.5564 10.864 13.0878C10.3954 12.6192 9.63555 12.6192 9.16689 13.0879Z" fill="url(#paint3_linear_376_10575)"/>
<path d="M15.3944 6.87303L13.0849 9.18251C12.6163 9.65118 12.6162 10.411 13.0849 10.8797C13.5535 11.3483 14.3133 11.3483 14.782 10.8795L17.0915 8.57011C17.5602 8.10142 17.5603 7.34157 17.0915 6.87294C16.6229 6.4043 15.8632 6.40434 15.3944 6.87303Z" fill="url(#paint4_linear_376_10575)"/>
<defs>
<linearGradient id="paint0_linear_376_10575" x1="2" y1="12" x2="29.9183" y2="12" gradientUnits="userSpaceOnUse">
<stop stop-color="#38FF9C"/>
<stop offset="1" stop-color="#171717"/>
</linearGradient>
<linearGradient id="paint1_linear_376_10575" x1="6.50109" y1="10.415" x2="17.0038" y2="10.415" gradientUnits="userSpaceOnUse">
<stop stop-color="#38FF9C"/>
<stop offset="1" stop-color="#171717"/>
</linearGradient>
<linearGradient id="paint2_linear_376_10575" x1="9.81637" y1="13.5916" x2="20.2621" y2="13.5916" gradientUnits="userSpaceOnUse">
<stop stop-color="#38FF9C"/>
<stop offset="1" stop-color="#171717"/>
</linearGradient>
<linearGradient id="paint3_linear_376_10575" x1="6.50584" y1="15.0912" x2="14.4274" y2="15.0912" gradientUnits="userSpaceOnUse">
<stop stop-color="#38FF9C"/>
<stop offset="1" stop-color="#171717"/>
</linearGradient>
<linearGradient id="paint4_linear_376_10575" x1="12.7333" y1="8.87652" x2="20.042" y2="8.87652" gradientUnits="userSpaceOnUse">
<stop stop-color="#38FF9C"/>
<stop offset="1" stop-color="#171717"/>
</linearGradient>
</defs>
</svg>
