<svg width="24" height="24" viewBox="0 0 24 24" fill="none" xmlns="http://www.w3.org/2000/svg">
<path d="M10.3966 12.1448C10.1103 12.4131 10.1103 12.8586 10.3966 13.1324L12.5035 15.1076C12.7955 15.3814 13.265 15.3814 13.557 15.1076C13.8433 14.8393 13.8433 14.3938 13.557 14.12L11.4501 12.1448C11.1638 11.8764 10.6886 11.8764 10.3966 12.1448Z" fill="url(#paint0_linear_239_84)"/>
<path d="M17.559 11.3559C17.851 11.0822 17.851 10.642 17.559 10.3683C17.2728 10.0999 16.7976 10.0999 16.5056 10.3683L13.557 13.1326C13.265 13.4063 13.3165 13.358 13.0302 13.6264C12.3775 14.2383 11.4844 14.1417 11.1924 13.8733L12.5035 15.1025C12.7898 15.3709 13.265 15.3709 13.557 15.1025L17.559 11.3559Z" fill="url(#paint1_linear_239_84)"/>
<path d="M21.7846 10.3844C21.4983 10.116 21.0231 10.116 20.7311 10.3844L18.6299 12.3597C18.3379 12.6334 18.3379 13.0736 18.6299 13.3473C18.9162 13.6157 19.3914 13.6157 19.6834 13.3473L21.7903 11.372C22.0709 11.0983 22.0709 10.6528 21.7846 10.3844Z" fill="url(#paint2_linear_239_84)"/>
<path d="M13.5741 11.1682C13.8604 10.8998 13.8604 10.4543 13.5741 10.1806L11.4671 8.20531C11.1751 7.93156 10.7057 7.93156 10.4137 8.20531C10.1274 8.47369 10.1274 8.9192 10.4137 9.19295L12.5206 11.1682C12.8126 11.4366 13.2821 11.4366 13.5741 11.1682Z" fill="url(#paint3_linear_239_84)"/>
<path d="M6.41138 11.9626C6.11938 12.2364 6.11938 12.6765 6.41138 12.9503C6.69765 13.2186 7.17288 13.2186 7.46488 12.9503L10.4135 10.1806C10.7054 9.90684 10.6539 9.95515 10.9402 9.68677C11.5929 9.07486 12.4861 9.17148 12.7781 9.43986L11.4669 8.21068C11.1807 7.9423 10.7054 7.9423 10.4135 8.21068L6.41138 11.9626Z" fill="url(#paint4_linear_239_84)"/>
<path d="M2.2147 12.9392C2.50098 13.2076 2.97619 13.2076 3.26818 12.9392L5.37514 10.9639C5.66714 10.6902 5.66714 10.2501 5.37514 9.97631C5.08886 9.70793 4.61366 9.70793 4.32166 9.97631L2.2147 11.9516C1.92843 12.2253 1.92843 12.6655 2.2147 12.9392Z" fill="url(#paint5_linear_239_84)"/>
<defs>
<linearGradient id="paint0_linear_239_84" x1="8.41553" y1="10.327" x2="13.5396" y2="15.728" gradientUnits="userSpaceOnUse">
<stop offset="0.1173" stop-color="#6978FF"/>
<stop offset="0.1876" stop-color="#6087FF"/>
<stop offset="0.3484" stop-color="#4DA5FF"/>
<stop offset="0.5073" stop-color="#40BAFF"/>
<stop offset="0.6622" stop-color="#39C7FF"/>
<stop offset="0.8083" stop-color="#36CBFF"/>
<stop offset="1" stop-color="#67FFFC"/>
</linearGradient>
<linearGradient id="paint1_linear_239_84" x1="7.24294" y1="19.4904" x2="22.3947" y2="2.87691" gradientUnits="userSpaceOnUse">
<stop offset="0.386" stop-color="#6978FF"/>
<stop offset="0.4432" stop-color="#6284FF"/>
<stop offset="0.6461" stop-color="#4AABFF"/>
<stop offset="0.8086" stop-color="#3BC2FF"/>
<stop offset="0.9094" stop-color="#36CBFF"/>
<stop offset="1" stop-color="#67FFFC"/>
</linearGradient>
<linearGradient id="paint2_linear_239_84" x1="21.3991" y1="10.8231" x2="9.51764" y2="22.589" gradientUnits="userSpaceOnUse">
<stop offset="0.0470588" stop-color="#6978FF"/>
<stop offset="0.1245" stop-color="#6087FF"/>
<stop offset="0.3016" stop-color="#4DA5FF"/>
<stop offset="0.4767" stop-color="#40BAFF"/>
<stop offset="0.6473" stop-color="#39C7FF"/>
<stop offset="0.8083" stop-color="#36CBFF"/>
<stop offset="1" stop-color="#67FFFC"/>
</linearGradient>
<linearGradient id="paint3_linear_239_84" x1="11.173" y1="8.66169" x2="12.9499" y2="11.1889" gradientUnits="userSpaceOnUse">
<stop offset="0.1173" stop-color="#6978FF"/>
<stop offset="0.1876" stop-color="#6087FF"/>
<stop offset="0.3484" stop-color="#4DA5FF"/>
<stop offset="0.5073" stop-color="#40BAFF"/>
<stop offset="0.6622" stop-color="#39C7FF"/>
<stop offset="0.8083" stop-color="#36CBFF"/>
<stop offset="1" stop-color="#67FFFC"/>
</linearGradient>
<linearGradient id="paint4_linear_239_84" x1="3.89767" y1="16.9826" x2="11.0224" y2="8.0418" gradientUnits="userSpaceOnUse">
<stop offset="0.3128" stop-color="#6978FF"/>
<stop offset="0.3633" stop-color="#6087FF"/>
<stop offset="0.4785" stop-color="#4DA5FF"/>
<stop offset="0.5925" stop-color="#40BAFF"/>
<stop offset="0.7035" stop-color="#39C7FF"/>
<stop offset="0.8083" stop-color="#36CBFF"/>
<stop offset="1" stop-color="#67FFFC"/>
</linearGradient>
<linearGradient id="paint5_linear_239_84" x1="11.3608" y1="3.32793" x2="3.71183" y2="12.6808" gradientUnits="userSpaceOnUse">
<stop offset="0.00761283" stop-color="#6978FF"/>
<stop offset="0.0891092" stop-color="#6087FF"/>
<stop offset="0.2754" stop-color="#4DA5FF"/>
<stop offset="0.4596" stop-color="#40BAFF"/>
<stop offset="0.639" stop-color="#39C7FF"/>
<stop offset="0.8083" stop-color="#36CBFF"/>
<stop offset="1" stop-color="#67FFFC"/>
</linearGradient>
</defs>
</svg>
