<svg width="24" height="24" viewBox="0 0 24 24" fill="none" xmlns="http://www.w3.org/2000/svg">
<path fill-rule="evenodd" clip-rule="evenodd" d="M13.4753 3.40071L18.6245 6.40643C19.5392 6.94072 20.0999 7.92571 20.0999 8.99129V15.0057C20.0999 16.0713 19.5363 17.0563 18.6245 17.5906L13.4753 20.5993C12.5635 21.1336 11.4363 21.1336 10.5245 20.5993L5.37531 17.5906C4.46351 17.0563 3.8999 16.0713 3.8999 15.0057V8.99129C3.8999 7.92571 4.46351 6.94072 5.37531 6.40643L10.5245 3.40071C11.4363 2.86643 12.5635 2.86643 13.4753 3.40071ZM14.5553 15.2803L16.0868 12.597C16.113 12.5507 16.1359 12.5031 16.1555 12.4546C16.2929 12.1147 16.2694 11.7269 16.0809 11.403L14.5494 8.71967C14.3399 8.34956 13.9504 8.12271 13.5284 8.12271H10.4655C10.0435 8.12271 9.654 8.34956 9.44449 8.71967L7.91302 11.403C7.70351 11.7732 7.70351 12.2268 7.91302 12.597L9.44744 15.2803C9.47363 15.3266 9.50263 15.3706 9.53416 15.4122C9.75484 15.7036 10.0992 15.8773 10.4684 15.8773H13.5343C13.5607 15.8773 13.5869 15.8764 13.613 15.8747C14.0043 15.8484 14.3589 15.6273 14.5553 15.2803Z" fill="#FE005B"/>
</svg>
