<svg width="24" height="24" viewBox="0 0 24 24" fill="none" xmlns="http://www.w3.org/2000/svg">
<path d="M7.94531 9.73046C7.9524 8.9212 8.11882 8.12125 8.43509 7.37632C8.75134 6.63137 9.21124 5.95602 9.7885 5.38882C10.3657 4.82162 11.0491 4.37368 11.7995 4.07058C12.5499 3.76748 13.3527 3.61516 14.1619 3.62231C14.9711 3.61516 15.7738 3.76749 16.5241 4.0706C17.2745 4.37372 17.9577 4.82168 18.5349 5.38889C19.112 5.95611 19.5718 6.63147 19.8879 7.37641C20.2041 8.12134 20.3703 8.92125 20.3773 9.73046C20.3773 9.78014 20.3674 9.82933 20.3485 9.87524C20.3295 9.92115 20.3016 9.96289 20.2664 9.99796C20.2313 10.0331 20.1896 10.061 20.1437 10.0801C20.0978 10.0991 20.0486 10.1088 19.9989 10.1088H8.32368C8.27399 10.1088 8.22479 10.0991 8.17888 10.0801C8.13297 10.061 8.09126 10.0331 8.05612 9.99796C8.021 9.96289 7.99313 9.92115 7.97411 9.87524C7.9551 9.82933 7.94531 9.78014 7.94531 9.73046Z" fill="#53CBC9"/>
<path d="M6.32414 11.7296C6.32414 11.4332 6.52467 11.1898 6.77314 11.1898H21.0112C21.2597 11.1898 21.4589 11.4332 21.4589 11.7296C21.4589 12.0272 21.2597 12.2706 21.0112 12.2706H6.77314C6.52467 12.2706 6.32414 12.0272 6.32414 11.7296ZM3.62132 13.3515C3.62132 13.0539 3.8269 12.8117 4.07536 12.8117H14.5184C14.7681 12.8117 14.9724 13.0539 14.9724 13.3515C14.9724 13.6492 14.7681 13.8926 14.5184 13.8926H4.07536C3.8269 13.8926 3.62132 13.6492 3.62132 13.3515ZM6.77818 14.4324C6.52972 14.4324 6.32414 14.6758 6.32414 14.9735C6.32414 15.2711 6.52972 15.5133 6.77818 15.5133H19.3842C19.6327 15.5133 19.8382 15.2711 19.8382 14.9735C19.8382 14.6758 19.6327 14.4324 19.3842 14.4324H6.77818ZM4.16238 16.5941C4.16238 16.2978 4.37301 16.0543 4.62778 16.0543H9.6437C9.89721 16.0543 10.1078 16.2978 10.1078 16.5941C10.1078 16.8918 9.89721 17.1365 9.6437 17.1365H4.62778C4.37301 17.1365 4.16238 16.8918 4.16238 16.5941ZM13.2483 17.6763C13.0049 17.6763 12.8107 17.9184 12.8107 18.2161C12.8107 18.5137 13.0049 18.7572 13.2483 18.7572H19.4056C19.6491 18.7572 19.8433 18.5137 19.8433 18.2161C19.8433 17.9197 19.6491 17.6763 19.4056 17.6763H13.2433H13.2483ZM9.02696 19.838C9.02696 19.5404 9.22119 19.297 9.46461 19.297H15.6219C15.8654 19.297 16.0596 19.5404 16.0596 19.838C16.0596 20.1357 15.8654 20.3778 15.6219 20.3778H9.45956C9.21614 20.3778 9.02191 20.1357 9.02191 19.838H9.02696ZM11.108 16.0543C10.8545 16.0543 10.6489 16.2978 10.6489 16.5941C10.6489 16.8918 10.8545 17.1365 11.108 17.1365H21.5409C21.7944 17.1365 22 16.8918 22 16.5941C22 16.2978 21.7944 16.0543 21.5409 16.0543H11.108ZM4.70345 11.7283C4.69991 11.6552 4.71127 11.582 4.73684 11.5134C4.7624 11.4448 4.80164 11.382 4.85216 11.329C4.9027 11.2759 4.96348 11.2337 5.03081 11.2049C5.09814 11.176 5.17064 11.1611 5.24389 11.1611C5.31714 11.1611 5.38963 11.176 5.45696 11.2049C5.5243 11.2337 5.58507 11.2759 5.6356 11.329C5.68614 11.382 5.72538 11.4448 5.75095 11.5134C5.7765 11.582 5.78786 11.6552 5.78433 11.7283C5.77762 11.8672 5.71775 11.9981 5.61713 12.0939C5.51652 12.1898 5.38287 12.2433 5.24389 12.2433C5.1049 12.2433 4.97126 12.1898 4.87064 12.0939C4.77002 11.9981 4.71016 11.8672 4.70345 11.7283ZM2.54044 12.8092C2.46947 12.8092 2.39919 12.8232 2.33362 12.8503C2.26805 12.8775 2.20847 12.9173 2.15828 12.9675C2.1081 13.0177 2.0683 13.0772 2.04113 13.1428C2.01397 13.2084 2 13.2786 2 13.3496C2 13.4206 2.01397 13.4909 2.04113 13.5565C2.0683 13.622 2.1081 13.6816 2.15828 13.7318C2.20847 13.782 2.26805 13.8218 2.33362 13.8489C2.39919 13.8761 2.46947 13.8901 2.54044 13.8901C2.68377 13.8901 2.82123 13.8332 2.92258 13.7318C3.02393 13.6304 3.08088 13.493 3.08088 13.3496C3.08088 13.2063 3.02393 13.0689 2.92258 12.9675C2.82123 12.8662 2.68377 12.8092 2.54044 12.8092ZM4.70345 14.9722C4.69991 14.899 4.71127 14.8259 4.73684 14.7573C4.7624 14.6887 4.80164 14.6259 4.85216 14.5729C4.9027 14.5198 4.96348 14.4775 5.03081 14.4488C5.09814 14.4199 5.17064 14.405 5.24389 14.405C5.31714 14.405 5.38963 14.4199 5.45696 14.4488C5.5243 14.4775 5.58507 14.5198 5.6356 14.5729C5.68614 14.6259 5.72538 14.6887 5.75095 14.7573C5.7765 14.8259 5.78786 14.899 5.78433 14.9722C5.77762 15.1111 5.71775 15.242 5.61713 15.3378C5.51652 15.4337 5.38287 15.4872 5.24389 15.4872C5.1049 15.4872 4.97126 15.4337 4.87064 15.3378C4.77002 15.242 4.71016 15.1111 4.70345 14.9722ZM3.08151 16.0543C2.938 16.0543 2.80038 16.1113 2.69891 16.2129C2.59745 16.3143 2.54044 16.4519 2.54044 16.5954C2.54044 16.7389 2.59745 16.8765 2.69891 16.9781C2.80038 17.0795 2.938 17.1365 3.08151 17.1365C3.22501 17.1365 3.36262 17.0795 3.4641 16.9781C3.56557 16.8765 3.62258 16.7389 3.62258 16.5954C3.62258 16.4519 3.56557 16.3143 3.4641 16.2129C3.36262 16.1113 3.22501 16.0543 3.08151 16.0543ZM11.1887 18.2161C11.1887 18.0728 11.2456 17.9353 11.347 17.8339C11.4484 17.7327 11.5859 17.6757 11.7292 17.6757C11.8724 17.6757 12.0099 17.7327 12.1113 17.8339C12.2127 17.9353 12.2696 18.0728 12.2696 18.2161C12.2696 18.3595 12.2127 18.4968 12.1113 18.5982C12.0099 18.6996 11.8724 18.7565 11.7292 18.7565C11.5859 18.7565 11.4484 18.6996 11.347 18.5982C11.2456 18.4968 11.1887 18.3595 11.1887 18.2161ZM7.94608 19.297C7.87291 19.2934 7.79979 19.3048 7.73114 19.3304C7.66249 19.3559 7.59975 19.3952 7.54671 19.4457C7.49369 19.4962 7.45147 19.557 7.42262 19.6244C7.39378 19.6917 7.37889 19.7641 7.37889 19.8374C7.37889 19.9107 7.39378 19.9832 7.42262 20.0506C7.45147 20.1178 7.49369 20.1786 7.54671 20.2291C7.59975 20.2797 7.66249 20.3189 7.73114 20.3444C7.79979 20.37 7.87291 20.3814 7.94608 20.3778C8.08489 20.3712 8.21581 20.3113 8.31168 20.2106C8.40756 20.1101 8.46103 19.9764 8.46103 19.8374C8.46103 19.6984 8.40756 19.5647 8.31168 19.4642C8.21581 19.3636 8.08489 19.3037 7.94608 19.297Z" fill="#CB1F7A"/>
</svg>
