<svg width="24" height="24" viewBox="0 0 24 24" fill="none" xmlns="http://www.w3.org/2000/svg">
<path d="M13.2809 17.4075C12.3593 17.6289 11.3965 17.6103 10.4842 17.3533C9.57189 17.0964 8.74062 16.6097 8.06971 15.9398C7.1814 15.0906 6.61046 13.9625 6.4519 12.7433C6.29334 11.5242 6.55673 10.2874 7.19822 9.23891C7.61932 8.5554 8.12679 7.92914 8.70807 7.37564C10.5521 5.53681 13.9381 2.19082 13.9381 2.19082C11.4206 1.69066 8.8074 2.17923 6.64013 3.55525C4.47287 4.93127 2.91781 7.0892 2.29734 9.58167C1.67613 12.0739 2.03625 14.7098 3.30315 16.9437C4.57006 19.1776 6.64673 20.8384 9.10329 21.5824L13.2809 17.4075Z" fill="black"/>
<path d="M10.7092 6.59512C11.6306 6.37327 12.5935 6.39171 13.5058 6.64868C14.4181 6.90565 15.2493 7.39256 15.9198 8.06284C17.7472 9.89222 18.1041 12.6071 16.7846 14.7537C16.3628 15.4377 15.8554 16.065 15.2748 16.6203C13.4302 18.4564 10.0442 21.8046 10.0442 21.8046C12.5639 22.3097 15.1812 21.8238 17.3523 20.4478C19.5234 19.0718 21.0812 16.9116 21.7022 14.416C22.324 11.9205 21.9618 9.28123 20.691 7.04586C19.4201 4.8105 17.338 3.15067 14.8768 2.41082L10.7092 6.59512Z" fill="black"/>
</svg>
