<svg width="24" height="24" viewBox="0 0 24 24" fill="none" xmlns="http://www.w3.org/2000/svg">
<path fill-rule="evenodd" clip-rule="evenodd" d="M16.0011 5.20031C15.8266 5.45724 15.677 5.73048 15.5563 6.02005C15.4985 6.15872 15.4447 6.29331 15.3988 6.42517C15.2335 6.88602 15.1299 7.3061 15.0262 7.72753L15.0214 7.74667C14.8892 8.28 14.7567 8.81434 14.4961 9.43364C14.3753 9.72189 14.2271 9.99914 14.0538 10.2589C14.0473 10.2697 14.0394 10.2806 14.0315 10.29C14.0263 10.2981 14.0206 10.3062 14.0154 10.3135L14.0104 10.3204L14.0079 10.3241C16.3331 11.0079 18.9326 10.0998 19.8761 7.87163C20.4561 6.50402 20.1333 4.7911 18.8237 4.19975C17.77 3.72394 16.736 4.11411 16.0025 5.20031H16.0011ZM3.1835 12.0233C3.28192 11.7256 3.4092 11.4401 3.56404 11.1695C3.63884 11.039 3.71233 10.9167 3.78843 10.7998C4.05219 10.3906 4.31988 10.0575 4.58888 9.7231L4.61395 9.69179C4.94945 9.27266 5.28593 8.85233 5.61241 8.278C5.76725 8.00747 5.89716 7.72063 5.99819 7.42426C6.00017 7.41814 6.00213 7.41169 6.0041 7.40524C6.00607 7.39877 6.00804 7.39232 6.01 7.3862C6.01394 7.37125 6.01788 7.35765 6.02182 7.34678C7.91927 8.89791 8.73153 11.6127 7.54267 13.709C6.81307 14.9978 5.28435 15.7305 4.05481 14.9774C3.0654 14.3724 2.76491 13.2753 3.1835 12.0233ZM21 17.2506C18.4903 17.2506 16.4561 15.1431 16.4561 12.5431H13.8023C13.8023 16.6615 17.0248 20 21 20V17.2506ZM12.3365 12.5431C12.3365 16.6615 9.11404 20 5.13874 20V17.2506C7.64838 17.2506 9.68265 15.1431 9.68265 12.5431H12.3365ZM12.3365 12.5431L12.3349 4.21934H9.68102L9.68265 12.5431H12.3365Z" fill="#7140FD"/>
</svg>
