<svg width="24" height="24" viewBox="0 0 24 24" fill="none" xmlns="http://www.w3.org/2000/svg">
<path d="M9.68602 6.93003C9.4846 6.66943 9.19511 6.49116 8.87174 6.4286H12.0046C12.506 6.4286 12.836 6.90003 12.9389 7.13146L16.286 13.2429V15.9215C16.2132 16.4486 15.8832 16.7186 15.5103 16.7186C15.2103 16.7186 14.7603 16.2257 14.6532 15.9815L10.3289 7.72289L9.69031 6.93003H9.68602Z" fill="url(#paint0_linear_59_60547)"/>
<path d="M11.3275 14.5715H6.61317C6.47174 14.64 6.16745 14.7857 6.12888 14.8157C6.0946 14.8457 5.84174 16.0929 5.72174 16.7143H12.1417C12.3003 16.7143 12.3989 16.5386 12.3217 16.3972L11.3275 14.5715Z" fill="url(#paint1_linear_59_60547)"/>
<path d="M6.67317 14.64C5.85888 16.2086 7.39317 16.7057 7.43174 16.7143H4.55602C3.25745 16.7143 3.34317 15.6686 3.54888 15.1457C4.90745 12.5786 7.64602 7.3886 7.74031 7.17003C7.85602 6.89574 8.18602 6.4286 8.74317 6.4286C9.18888 6.4286 9.49745 6.67289 9.59174 6.79289L10.3203 7.71432C9.37745 9.50146 7.32031 13.3843 6.67317 14.64Z" fill="url(#paint2_linear_59_60547)"/>
<path d="M18.8575 16.08C18.8575 16.4315 18.5789 16.7143 18.236 16.7143H15.4546C16.0246 16.7143 16.2346 16.2 16.286 15.9429V6.91717C16.286 6.64717 16.5346 6.42432 16.8003 6.42432H18.3732C18.6432 6.42432 18.8575 6.64717 18.8575 6.91717V16.08Z" fill="url(#paint3_linear_59_60547)"/>
<defs>
<linearGradient id="paint0_linear_59_60547" x1="5.30242" y1="6.98598" x2="12.8079" y2="19.1944" gradientUnits="userSpaceOnUse">
<stop stop-color="#06A9EE"/>
<stop offset="1" stop-color="#00529B"/>
</linearGradient>
<linearGradient id="paint1_linear_59_60547" x1="4.43742" y1="11.1597" x2="18.5457" y2="11.1597" gradientUnits="userSpaceOnUse">
<stop stop-color="#134491"/>
<stop offset="1" stop-color="#00ADF0"/>
</linearGradient>
<linearGradient id="paint2_linear_59_60547" x1="11.1427" y1="6.42432" x2="11.1427" y2="16.7186" gradientUnits="userSpaceOnUse">
<stop stop-color="#0458A0"/>
<stop offset="1" stop-color="#00ACE8"/>
</linearGradient>
<linearGradient id="paint3_linear_59_60547" x1="17.1474" y1="6.4286" x2="17.1474" y2="16.7143" gradientUnits="userSpaceOnUse">
<stop stop-color="#05599F"/>
<stop offset="1" stop-color="#00ADF0"/>
</linearGradient>
</defs>
</svg>
