<svg width="24" height="24" viewBox="0 0 24 24" fill="none" xmlns="http://www.w3.org/2000/svg">
<path d="M13.4023 12.8627C13.0101 13.3504 12.1839 13.7074 11.571 13.7074C10.9817 13.7074 10.2853 13.4031 10.2853 12.6908C10.2853 12.0124 10.8489 11.7694 11.4184 11.6533C12.0891 11.514 13.0894 11.4313 13.7139 11.1291C13.7139 11.6957 13.7631 12.3741 13.4023 12.8627ZM11.9996 7.33711C13.077 7.33711 13.7139 7.67225 13.7139 8.43854C13.7139 9.28111 12.444 9.30339 11.841 9.34625C10.5244 9.51468 9.50614 9.63468 8.83585 9.80268C8.14028 9.94711 7.59428 10.1391 7.22142 10.4275C6.43199 10.9367 6.00428 11.9108 6.00428 12.8297C5.95499 13.6705 6.25285 14.3914 6.87428 14.9678C7.49442 15.5687 8.43814 15.8571 9.75385 15.8571C10.5489 15.8571 11.2196 15.7371 11.8401 15.5207C12.4572 15.2741 13.0282 14.9249 13.5287 14.4878L13.7139 15.8571H17.9996C17.6267 15.5927 17.571 14.7522 17.571 14.2954V9.13068C17.571 6.03254 15.1294 5.14282 12.213 5.14282C9.73928 5.14282 6.65699 5.69225 6.42814 8.57139H10.2853C10.3496 7.76782 10.9221 7.33711 11.9996 7.33711ZM17.571 17.5714H6.42814V18.8571H17.571V17.5714Z" fill="url(#paint0_linear_59_60728)"/>
<defs>
<linearGradient id="paint0_linear_59_60728" x1="8.23155" y1="7.52127" x2="22.5049" y2="21.8665" gradientUnits="userSpaceOnUse">
<stop stop-color="#1A1E21"/>
<stop offset="1" stop-color="#06060A"/>
</linearGradient>
</defs>
</svg>
