<svg width="24" height="24" viewBox="0 0 24 24" fill="none" xmlns="http://www.w3.org/2000/svg">
<path fill-rule="evenodd" clip-rule="evenodd" d="M12.1067 4.28564L19.2853 17.1428H4.71387L12.1067 4.28564ZM11.6482 5.90993L14.7424 9.8485L12.1024 5.12136L11.6482 5.90993ZM13.8767 9.41136L11.4296 6.29564L11.1896 6.71136L13.8724 9.41136H13.8767ZM10.9753 7.07993L10.9196 7.1785L12.0767 8.18564L10.9753 7.07993ZM13.4182 9.89564L10.7139 7.5385L10.5082 7.90707L13.4224 9.89564H13.4182ZM9.52672 9.60422L5.4253 16.7356H7.39672L9.52672 9.60422ZM7.82958 16.7356H9.0253L9.75815 10.2642L7.82958 16.7356ZM10.101 10.9114L10.2382 15.9685L9.46672 16.5085L10.101 10.9114ZM11.6739 16.7356H18.5867L17.9953 15.6814L11.6739 16.7356ZM17.7853 15.2999L17.1853 14.2199L11.3224 16.3756L17.7853 15.2999ZM11.7124 15.7971L16.9839 13.8599L16.5767 13.1314L11.7124 15.7971ZM16.3796 12.7756L16.1353 12.3385L12.3853 14.9614L16.3796 12.7756ZM10.6453 15.6856L11.1767 15.3171L10.5253 11.1599L10.6453 15.6856ZM10.5082 8.4085L11.5539 15.0514L15.8396 12.0514L10.5082 8.4085Z" fill="url(#paint0_linear_59_60747)"/>
<defs>
<linearGradient id="paint0_linear_59_60747" x1="11.9996" y1="4.28564" x2="11.9996" y2="17.1428" gradientUnits="userSpaceOnUse">
<stop stop-color="#BDDC78"/>
<stop offset="1" stop-color="#5AD9E6"/>
</linearGradient>
</defs>
</svg>
