<svg width="24" height="24" viewBox="0 0 24 24" fill="none" xmlns="http://www.w3.org/2000/svg">
<path d="M7.47999 7.47999L2 2V22H21.9999L18 17.9999H5.99999V10.94C5.99999 9.80665 6.39999 8.47332 7.47999 7.47332V7.47999Z" fill="#373737"/>
<path d="M6 10.94C6 9.80662 6.39999 8.4733 7.48 7.4733L12 12L6 17.9999V10.94Z" fill="#FCFEFB"/>
<path d="M18 17.9999H6L12 12L18 17.9999Z" fill="#D3DDFF"/>
<path d="M18 17.9999L21.9999 22V2H2L7.47999 7.47999C8.41332 6.61333 9.8666 5.99999 12 5.99999C16.5866 5.99999 18 8.82665 18 10.94V17.9999Z" fill="#FCFEFB"/>
</svg>
