<svg width="24" height="24" viewBox="0 0 24 24" fill="none" xmlns="http://www.w3.org/2000/svg">
<path d="M15.4583 15.4071L11.9997 18.8571L10.2854 17.1428C12.1335 17.0351 13.9193 16.4359 15.4583 15.4071ZM18.3126 11.4428L11.9997 5.14282L5.68686 11.4428L5.14258 12C5.43401 12.2271 5.71686 12.4628 6.02115 12.6771C7.23228 13.5351 8.6146 14.121 10.0734 14.3947C11.5321 14.6684 13.0328 14.6234 14.4726 14.2628C15.6383 13.98 16.744 13.4957 17.7469 12.8314C18.1349 12.5791 18.5057 12.3014 18.8569 12L18.3126 11.4428ZM13.6669 13.4485C11.7823 12.2917 9.61246 11.6832 7.40115 11.6914C10.2811 10.4443 13.8169 10.2728 17.0569 12.1328C16.0233 12.788 14.8718 13.2349 13.6669 13.4485Z" fill="#2B71FF"/>
</svg>
