<svg width="24" height="24" viewBox="0 0 24 24" fill="none" xmlns="http://www.w3.org/2000/svg">
<path d="M21.9756 11.3203C21.6012 5.81296 16.8314 1.64897 11.3216 2.0234C8.57822 2.20947 6.16833 3.48704 4.48685 5.40451L4.48232 5.40224C4.47097 5.41813 4.45962 5.434 4.44828 5.44989C2.77815 7.37418 1.83869 9.9339 2.02476 12.6773C2.04293 12.9383 2.07242 13.1969 2.111 13.4511C2.111 13.4625 2.11327 13.4738 2.11553 13.4851C2.14049 13.6531 2.16999 13.821 2.20404 13.9843V13.9935C2.23354 14.1432 2.26757 14.2907 2.30388 14.4382C3.45891 19.0425 7.77266 22.3056 12.6764 21.972C18.186 21.5975 22.3478 16.8276 21.9733 11.318L21.9756 11.3203ZM19.7995 11.4678C19.8449 12.1464 19.804 12.8112 19.6814 13.4489C19.6814 13.4443 19.6791 13.442 19.6769 13.4375C18.9531 11.6653 17.5189 10.3854 16.2573 9.67967C16.5114 6.67754 15.4947 5.41359 14.342 5.20708C14.3103 5.20028 14.2784 5.19575 14.2467 5.19121C13.3322 5.07321 12.4949 5.71993 12.3769 6.63441C12.2588 7.54891 12.9056 8.38624 13.8201 8.50425C13.8996 8.51332 13.9789 8.51786 14.0561 8.51558C14.0607 8.6177 14.0652 8.72436 14.0652 8.83781C12.9986 8.57459 12.0025 8.5224 11.0948 8.60409C10.7544 8.62678 10.414 8.6699 10.0759 8.73343C10.1894 7.71909 10.5706 6.58223 11.3081 5.74943C12.0206 4.94387 13.0826 4.48321 14.2399 4.60122C14.46 4.6239 14.6938 4.67836 14.9047 4.74871C14.9139 4.75098 14.9252 4.75552 14.9342 4.75779C17.6142 5.84927 19.5861 8.39306 19.7971 11.47L19.7995 11.4678ZM12.8308 12.995V12.9973C12.5924 13.3421 12.3088 13.6802 11.9752 14.0093C11.476 13.4784 11.0744 12.9066 10.7703 12.3142C10.7544 12.2825 10.7386 12.253 10.7227 12.2212V12.2166C10.5433 11.8378 10.3913 11.4224 10.2733 10.9686C10.9835 10.8007 11.6802 10.7395 12.3451 10.7735C12.3814 10.7757 12.4154 10.7757 12.4494 10.7802H12.4541C12.8715 10.8143 13.305 10.8915 13.7566 11.0139C13.5455 11.7129 13.2505 12.346 12.8898 12.9066C12.8693 12.9361 12.8512 12.9656 12.833 12.995H12.8308ZM9.4133 4.6239C9.4133 4.6239 9.40876 4.62844 9.40649 4.63071C8.23557 6.14428 7.843 8.02317 7.86117 9.46865C5.13358 10.7485 4.54813 12.2644 4.94523 13.3649C4.95658 13.3944 4.96792 13.4239 4.97927 13.4556C5.33554 14.3066 6.31357 14.7083 7.16452 14.3519C8.01547 13.9957 8.41711 13.0177 8.06085 12.1667C8.02908 12.0919 7.99278 12.0237 7.95193 11.9558C8.03816 11.899 8.13119 11.8423 8.22877 11.7855C8.53285 12.8407 8.98214 13.7325 9.50865 14.4791C9.69689 14.7604 9.9035 15.0328 10.1281 15.2938C9.19319 15.7022 8.01774 15.9427 6.92625 15.7203C5.87106 15.5047 4.94296 14.8172 4.46643 13.7552C4.37566 13.5533 4.30532 13.324 4.2622 13.1062C4.23497 12.9156 4.21228 12.7249 4.19866 12.5298C3.95586 8.949 6.17742 5.7585 9.41102 4.6239H9.4133ZM12.5312 19.798C10.405 19.9433 8.41711 19.2172 6.91264 17.9283C8.80969 18.1869 10.6318 17.5856 11.8754 16.8459C14.3488 18.5681 15.9532 18.3208 16.7087 17.4245C16.7292 17.3995 16.7496 17.3746 16.7701 17.3496C17.3283 16.6167 17.1876 15.5682 16.4546 15.01C15.7217 14.4518 14.6733 14.5926 14.1128 15.3255C14.0652 15.389 14.0221 15.4571 13.9834 15.5251C13.8927 15.4797 13.7975 15.4276 13.6998 15.3709C14.4623 14.5789 15.0069 13.7416 15.3903 12.9133C15.5402 12.607 15.6741 12.2916 15.7874 11.967C16.609 12.573 17.4054 13.4715 17.7594 14.5267C18.0998 15.5479 17.9681 16.696 17.2874 17.6401C17.1581 17.8193 16.9947 17.994 16.8291 18.1415C16.8291 18.1415 16.8245 18.146 16.8222 18.1484C15.6309 19.0856 14.1559 19.6869 12.5334 19.7958L12.5312 19.798Z" fill="url(#paint0_linear_364_8088)"/>
<path style="mix-blend-mode:overlay" opacity="0.9" d="M14.3417 5.20941C14.3099 5.2026 14.278 5.19806 14.2463 5.19352C14.0852 5.1731 13.9263 5.17764 13.7721 5.20034C14.7296 5.71998 15.4263 7.17 15.0587 10.0314C14.9361 10.9777 14.6548 11.8809 14.2485 12.7068C13.9196 13.4172 13.4702 14.1365 12.8689 14.8263C13.1594 15.0442 13.4407 15.2257 13.6995 15.3709C14.4619 14.579 15.0065 13.7416 15.39 12.9133C15.7962 12.0851 16.0775 11.1842 16.2001 10.2379C16.6359 6.83189 15.5647 5.42498 14.3439 5.20714L14.3417 5.20941Z" fill="url(#paint1_radial_364_8088)"/>
<g style="mix-blend-mode:overlay" opacity="0.8">
<path d="M15.0609 10.0314C15.4285 7.17226 14.7296 5.72224 13.7743 5.20032C13.7379 5.20713 13.6994 5.21394 13.663 5.22302C14.6002 5.76081 15.2741 7.21084 14.9112 10.0314C14.7886 10.9777 14.5072 11.8809 14.101 12.7069C13.7834 13.3944 13.3522 14.0888 12.7781 14.7582C12.8076 14.7809 12.8393 14.8036 12.8688 14.8263C13.4724 14.1365 13.9195 13.4194 14.2485 12.7069C14.6547 11.8785 14.936 10.9777 15.0587 10.0314H15.0609Z" fill="white"/>
</g>
<path style="mix-blend-mode:overlay" opacity="0.5" d="M11.4233 16.5192C11.3326 16.4511 11.2463 16.3784 11.1601 16.3081C9.74868 16.8982 7.7926 17.2658 5.8479 16.8164C6.16559 17.2226 6.52185 17.597 6.91216 17.9306C8.8092 18.1893 10.6314 17.588 11.8749 16.8482C11.7274 16.746 11.5777 16.6372 11.4233 16.5192Z" fill="url(#paint2_radial_364_8088)"/>
<path style="mix-blend-mode:overlay" opacity="0.6" d="M11.1621 16.3058C11.1191 16.2694 11.076 16.2354 11.0329 16.1968C9.61 16.7641 7.64492 17.1045 5.70703 16.6212C5.75468 16.6848 5.80234 16.7483 5.85226 16.8118C7.7947 17.2634 9.75299 16.8935 11.1645 16.3035L11.1621 16.3058Z" fill="url(#paint3_linear_364_8088)"/>
<path style="mix-blend-mode:overlay" opacity="0.9" d="M4.94936 13.3672C4.96071 13.3967 4.97206 13.4262 4.98341 13.458C5.04694 13.6078 5.12863 13.7439 5.22847 13.8642C5.20124 12.775 6.10892 11.4475 8.76843 10.3333C9.64887 9.96572 10.5702 9.75923 11.4915 9.69561C12.272 9.62537 13.1185 9.65486 14.0172 9.83185C14.0602 9.47328 14.0762 9.13744 14.0738 8.84018C13.0074 8.57468 12.0111 8.52476 11.1011 8.60644C10.1822 8.66771 9.26085 8.87421 8.37813 9.2441C5.21033 10.5693 4.52729 12.2009 4.94936 13.3672Z" fill="url(#paint4_radial_364_8088)"/>
<g style="mix-blend-mode:overlay" opacity="0.8">
<path d="M8.76589 10.3333C6.10638 11.4452 5.1987 12.7748 5.22593 13.8641C5.24862 13.8936 5.27586 13.9209 5.30082 13.9481C5.30082 12.8679 6.2153 11.5609 8.84077 10.4626C9.72123 10.0949 10.6425 9.88841 11.5638 9.82491C12.3194 9.75679 13.1341 9.78404 14.0009 9.94515C14.0055 9.90666 14.01 9.87029 14.0145 9.83166C13.116 9.65468 12.2695 9.62518 11.489 9.69555C10.5699 9.75679 9.64861 9.96328 8.76589 10.3333Z" fill="white"/>
</g>
<path style="mix-blend-mode:overlay" opacity="0.4" d="M16.2023 10.2403C16.1886 10.3514 16.1683 10.4626 16.1501 10.5739C17.3664 11.5019 18.6643 13.011 19.2453 14.9193C19.4382 14.4406 19.5834 13.9459 19.6788 13.4422C18.9548 11.6722 17.5207 10.3923 16.2613 9.68433C16.2454 9.86356 16.2273 10.0474 16.2023 10.2403Z" fill="url(#paint5_radial_364_8088)"/>
<path style="mix-blend-mode:overlay" opacity="0.5" d="M16.1499 10.5739C16.1407 10.6283 16.1317 10.685 16.1204 10.7395C17.323 11.6881 18.6006 13.2197 19.152 15.1394C19.1838 15.0668 19.2155 14.9943 19.245 14.9193C18.6642 13.011 17.3661 11.502 16.1499 10.5739Z" fill="url(#paint6_linear_364_8088)"/>
<path style="mix-blend-mode:overlay" opacity="0.9" d="M16.7105 17.4224C16.7308 17.3974 16.7513 17.3724 16.7717 17.3475C16.8716 17.2181 16.9465 17.0774 17.0032 16.9322C16.0751 17.4995 14.4708 17.3793 12.1766 15.6319C11.4164 15.0533 10.7765 14.359 10.2637 13.5919C9.81211 12.952 9.41499 12.2031 9.11773 11.3363C8.78415 11.4793 8.48689 11.6313 8.23047 11.7834C8.53453 12.8386 8.98837 13.728 9.51251 14.4746C10.0253 15.2394 10.6653 15.936 11.4255 16.5147C14.1554 18.5955 15.9094 18.3709 16.7105 17.4224Z" fill="url(#paint7_radial_364_8088)"/>
<g style="mix-blend-mode:overlay" opacity="0.8">
<path d="M12.1747 15.6318C14.469 17.3792 16.0733 17.4995 17.0014 16.9321C17.015 16.8959 17.0264 16.8618 17.0376 16.8255C16.1028 17.3678 14.5121 17.2271 12.2496 15.5026C11.4894 14.9239 10.8496 14.2296 10.3368 13.4625C9.90104 12.8431 9.51532 12.1237 9.22254 11.2909C9.18623 11.3045 9.1522 11.3204 9.11816 11.3363C9.41543 12.2031 9.81255 12.9497 10.2641 13.5919C10.777 14.3566 11.4168 15.0533 12.177 15.6318H12.1747Z" fill="white"/>
</g>
<path style="mix-blend-mode:overlay" opacity="0.3" d="M8.37567 9.24187C8.48005 9.19876 8.58443 9.16017 8.69109 9.11933C8.88625 7.6035 9.54655 5.72233 10.9081 4.2655C10.3975 4.33812 9.89602 4.45839 9.41043 4.62858C8.23952 6.14214 7.84695 8.02103 7.8651 9.46653C8.02849 9.38937 8.1964 9.31449 8.37567 9.2396V9.24187Z" fill="url(#paint8_radial_364_8088)"/>
<path style="mix-blend-mode:overlay" opacity="0.4" d="M8.68921 9.1193C8.74139 9.09888 8.79359 9.08073 8.84805 9.0603C9.06589 7.54447 9.75574 5.67238 11.1423 4.2337C11.0628 4.24278 10.9834 4.25185 10.9063 4.2632C9.54476 5.72003 8.88663 7.59894 8.68921 9.11704V9.1193Z" fill="url(#paint9_linear_364_8088)"/>
<path style="mix-blend-mode:multiply" opacity="0.4" d="M11.3212 2.02344C8.57771 2.20952 6.16781 3.48708 4.48633 5.40456C4.47271 5.41817 4.46137 5.43406 4.44775 5.44767C4.77452 5.77217 5.84559 6.41209 6.279 6.67985C7.12995 5.7631 8.20102 5.05056 9.41277 4.62395C9.49674 4.51503 9.58522 4.40611 9.67821 4.30172C10.8084 3.02643 12.3491 2.35248 14.1395 2.35248C14.3392 2.35248 14.7431 2.38425 14.7522 2.38425C13.6698 2.07564 12.5125 1.94402 11.3212 2.02344Z" fill="url(#paint10_linear_364_8088)"/>
<path style="mix-blend-mode:multiply" opacity="0.4" d="M12.5305 19.7981C10.4043 19.9433 8.41639 19.2173 6.91191 17.9284C6.77122 17.9101 6.6328 17.8875 6.49211 17.858C4.82424 17.5176 3.46952 16.5191 2.57546 14.9693C2.47561 14.7968 2.38711 14.6221 2.30542 14.4429C3.46045 19.047 7.77421 22.3102 12.678 21.9766C12.7007 21.4706 12.5508 20.2997 12.5305 19.8005V19.7981Z" fill="url(#paint11_linear_364_8088)"/>
<path style="mix-blend-mode:multiply" opacity="0.4" d="M21.9754 11.3205C21.6691 11.2887 20.1668 11.4067 19.7992 11.4679C19.8446 12.1464 19.8037 12.8113 19.6812 13.4489C19.7335 13.576 19.7811 13.7054 19.8265 13.837C20.3666 15.4526 20.1782 17.1251 19.2841 18.6749C19.1865 18.8451 19.0799 19.0063 18.9687 19.1629C18.9687 19.1629 18.9642 19.1696 18.9619 19.1719C18.9619 19.1719 18.9664 19.1674 18.9687 19.1651C20.9996 17.1886 22.1819 14.368 21.9754 11.3205Z" fill="url(#paint12_linear_364_8088)"/>
<path style="mix-blend-mode:multiply" opacity="0.5" d="M14.2437 4.60134C14.4638 4.62403 14.6976 4.67849 14.9087 4.74885C14.9177 4.75111 14.929 4.75565 14.9382 4.75792C15.8003 5.10964 16.59 5.61114 17.2709 6.2329C17.2709 6.2329 17.2731 6.2329 17.2754 6.23743C17.6045 5.86303 18.2353 5.45002 18.2353 5.45002C18.2353 5.45002 17.2686 4.46065 15.7891 4.1543C14.7543 3.93873 12.417 3.72997 10.9443 6.23743C10.9443 6.23743 10.9511 6.2329 10.958 6.22382C11.0668 6.05817 11.1826 5.89932 11.3142 5.75183C12.0268 4.94626 13.0887 4.48562 14.246 4.60361L14.2437 4.60134Z" fill="url(#paint13_linear_364_8088)"/>
<path style="mix-blend-mode:multiply" opacity="0.5" d="M17.2872 17.6424C17.1578 17.8216 16.9945 17.9963 16.8289 18.1438C16.822 18.1507 16.813 18.1575 16.8061 18.1643C16.0709 18.7362 15.2403 19.1673 14.3622 19.4464H14.3577C14.5188 19.9184 14.5597 20.6718 14.5597 20.6718C14.5597 20.6718 15.9007 20.3292 16.906 19.2014C17.6094 18.4117 18.9596 16.492 17.5232 13.964C17.5232 13.964 17.5232 13.9708 17.5277 13.9821C17.6162 14.1591 17.6957 14.3385 17.7592 14.5267C18.0995 15.5479 17.9679 16.6962 17.2872 17.6401V17.6424Z" fill="url(#paint14_linear_364_8088)"/>
<path style="mix-blend-mode:multiply" opacity="0.5" d="M4.47281 13.7598C4.38204 13.5578 4.3117 13.3286 4.26859 13.1107C4.26859 13.1017 4.26405 13.0903 4.26178 13.0812C4.1347 12.1576 4.17554 11.2251 4.37297 10.3241V10.3197C3.88509 10.222 3.21114 9.88168 3.21114 9.88168C3.21114 9.88168 2.83898 11.2137 3.31098 12.6501C3.64228 13.6554 4.62938 15.7816 7.5385 15.8042C7.5385 15.8042 7.53171 15.802 7.52036 15.7975C7.32293 15.7861 7.12551 15.7657 6.93262 15.7249C5.87745 15.5093 4.94935 14.8217 4.47281 13.7598Z" fill="url(#paint15_linear_364_8088)"/>
<path style="mix-blend-mode:multiply" opacity="0.6" d="M13.8223 8.50668C13.9018 8.51576 13.9811 8.5203 14.0583 8.51803C14.0583 8.51803 14.0061 7.47873 13.879 6.94547C13.7519 6.41221 13.5637 6.06047 13.3571 5.86079C13.2096 5.71782 12.7421 5.53856 12.3791 6.63685C12.2611 7.55135 12.9078 8.38869 13.8223 8.50668Z" fill="url(#paint16_linear_364_8088)"/>
<path style="mix-blend-mode:multiply" opacity="0.5" d="M8.0649 12.1691C8.03313 12.0942 7.99683 12.0261 7.95599 11.958C7.95599 11.958 7.08234 12.5231 6.68523 12.8998C6.28811 13.2764 6.07482 13.6169 6.00673 13.896C5.95681 14.0956 6.03623 14.5903 7.16857 14.3543C8.01952 13.9981 8.42116 13.0201 8.0649 12.1691Z" fill="url(#paint17_linear_364_8088)"/>
<path style="mix-blend-mode:multiply" opacity="0.6" d="M14.115 15.3232C14.0673 15.3867 14.0242 15.4548 13.9856 15.5228C13.9856 15.5228 14.9115 15.9972 15.438 16.1537C15.9644 16.3103 16.3638 16.3239 16.6406 16.2445C16.838 16.1878 17.2261 15.8723 16.4568 15.0077C15.7238 14.4495 14.6754 14.5903 14.115 15.3232Z" fill="url(#paint18_linear_364_8088)"/>
<path style="mix-blend-mode:multiply" opacity="0.3" d="M13.7538 11.0164C13.5429 11.7153 13.2479 12.3484 12.887 12.909C12.8667 12.9385 12.8485 12.968 12.8303 12.9975V12.9997C12.5921 13.3446 12.3085 13.6827 11.9749 14.0118C12.2041 14.2545 12.4513 14.4906 12.7237 14.7152C13.064 14.9852 13.3999 15.2008 13.7017 15.3733C14.4642 14.5813 15.0088 13.744 15.3922 12.9157C15.5421 12.6094 15.676 12.2939 15.7893 11.9694C15.4376 11.7108 15.0814 11.5043 14.7524 11.3636C14.4119 11.2183 14.0807 11.1049 13.7562 11.0164H13.7538Z" fill="url(#paint19_linear_364_8088)"/>
<path style="mix-blend-mode:multiply" opacity="0.3" d="M6.91232 17.9283C8.80937 18.1869 10.6315 17.5856 11.875 16.8459C11.7275 16.7438 11.5778 16.6348 11.4234 16.5168C10.9447 16.1514 10.5113 15.7407 10.13 15.2938C9.19514 15.7022 8.01969 15.9427 6.9282 15.7204C5.87303 15.5047 4.94492 14.8172 4.46838 13.7552C4.37761 13.5533 4.30727 13.324 4.26416 13.1062C4.53873 15.0395 5.51449 16.7279 6.91232 17.9283Z" fill="url(#paint20_linear_364_8088)"/>
<path style="mix-blend-mode:multiply" opacity="0.3" d="M11.9726 14.0116C11.4734 13.4807 11.0716 12.9088 10.7677 12.3165C10.7517 12.2848 10.7358 12.2553 10.7199 12.2235V12.219C10.5407 11.84 10.3887 11.4247 10.2707 10.9709C9.94611 11.0481 9.61938 11.1433 9.29036 11.266C8.88644 11.4271 8.53245 11.6086 8.23291 11.7833C8.53699 12.8385 8.98629 13.7303 9.51276 14.4768C9.70113 14.7582 9.90761 15.0306 10.1322 15.2915C10.5339 15.1168 10.8902 14.9103 11.176 14.6947C11.4711 14.4723 11.7343 14.2431 11.9748 14.0071L11.9726 14.0116Z" fill="url(#paint21_linear_364_8088)"/>
<path style="mix-blend-mode:multiply" opacity="0.3" d="M9.40848 4.63081C8.23757 6.14438 7.845 8.02327 7.86315 9.46875C8.02653 9.39161 8.19672 9.31673 8.37598 9.24183C8.93194 9.01037 9.50374 8.84246 10.0802 8.73353C10.1936 7.7192 10.5749 6.58233 11.3124 5.74953C12.0249 4.94397 13.0868 4.48331 14.2441 4.60132C14.4642 4.624 14.698 4.67846 14.9091 4.74881C14.9181 4.75108 14.9295 4.75562 14.9386 4.75789C13.872 4.32447 12.6942 4.11797 11.4712 4.20193C10.7519 4.25186 10.0643 4.39708 9.41528 4.62628C9.41528 4.62628 9.41074 4.63081 9.40848 4.63308V4.63081Z" fill="url(#paint22_linear_364_8088)"/>
<path style="mix-blend-mode:multiply" opacity="0.3" d="M19.6791 13.4399C18.9552 11.6676 17.5211 10.3877 16.2594 9.68204C16.2436 9.86127 16.2253 10.0474 16.2004 10.2402C16.1232 10.8371 15.9826 11.4158 15.7874 11.9694C16.6089 12.5753 17.4054 13.4739 17.7593 14.529C18.0997 15.5502 17.9681 16.6984 17.2874 17.6424C17.158 17.8217 16.9946 17.9964 16.829 18.1439C16.829 18.1439 16.8244 18.1484 16.8222 18.1508C18.2903 16.998 19.3273 15.3346 19.6837 13.4513C19.6837 13.4466 19.6813 13.4444 19.6791 13.4399Z" fill="url(#paint23_linear_364_8088)"/>
<path style="mix-blend-mode:multiply" opacity="0.3" d="M10.0733 9.93619C10.1187 10.3015 10.1846 10.6465 10.2685 10.971C10.9787 10.8031 11.6754 10.7418 12.3403 10.7759C12.3766 10.7781 12.4106 10.7781 12.4446 10.7826H12.4493C12.8667 10.8167 13.3002 10.8939 13.7518 11.0164C13.847 10.6964 13.9288 10.3652 13.9855 10.0179C14.049 9.58684 14.0694 9.1874 14.0649 8.84021C12.9983 8.57698 12.0022 8.52479 11.0945 8.60649C10.7541 8.62917 10.4138 8.6723 10.0757 8.73583C10.0279 9.17152 10.0257 9.58222 10.0688 9.93856L10.0733 9.93619Z" fill="url(#paint24_linear_364_8088)"/>
<defs>
<linearGradient id="paint0_linear_364_8088" x1="5.17669" y1="18.8246" x2="17.9274" y2="6.07393" gradientUnits="userSpaceOnUse">
<stop stop-color="#E6007A"/>
<stop offset="0.21" stop-color="#703AC2"/>
<stop offset="0.46" stop-color="#0070EB"/>
<stop offset="0.77" stop-color="#0297FB"/>
<stop offset="1" stop-color="#0AE2FF"/>
</linearGradient>
<radialGradient id="paint1_radial_364_8088" cx="0" cy="0" r="1" gradientUnits="userSpaceOnUse" gradientTransform="translate(14.85 9.97468) scale(3.80091 3.80092)">
<stop stop-color="white"/>
<stop offset="1" stop-color="white" stop-opacity="0"/>
</radialGradient>
<radialGradient id="paint2_radial_364_8088" cx="0" cy="0" r="1" gradientUnits="userSpaceOnUse" gradientTransform="translate(9.23128 17.0274) scale(2.21247)">
<stop stop-color="white"/>
<stop offset="1" stop-color="white" stop-opacity="0"/>
</radialGradient>
<linearGradient id="paint3_linear_364_8088" x1="5.91125" y1="16.6553" x2="8.04431" y2="16.6258" gradientUnits="userSpaceOnUse">
<stop stop-color="white" stop-opacity="0"/>
<stop offset="1" stop-color="white"/>
</linearGradient>
<radialGradient id="paint4_radial_364_8088" cx="0" cy="0" r="1" gradientUnits="userSpaceOnUse" gradientTransform="translate(8.8244 10.5433) rotate(-120) scale(3.80092)">
<stop stop-color="white"/>
<stop offset="1" stop-color="white" stop-opacity="0"/>
</radialGradient>
<radialGradient id="paint5_radial_364_8088" cx="0" cy="0" r="1" gradientUnits="userSpaceOnUse" gradientTransform="translate(17.7414 11.8827) rotate(-120) scale(2.21247)">
<stop stop-color="white"/>
<stop offset="1" stop-color="white" stop-opacity="0"/>
</radialGradient>
<linearGradient id="paint6_linear_364_8088" x1="19.0769" y1="14.945" x2="17.9847" y2="13.1125" gradientUnits="userSpaceOnUse">
<stop stop-color="white" stop-opacity="0"/>
<stop offset="1" stop-color="white"/>
</linearGradient>
<radialGradient id="paint7_radial_364_8088" cx="0" cy="0" r="1" gradientUnits="userSpaceOnUse" gradientTransform="translate(12.1481 15.3028) rotate(120) scale(3.80092)">
<stop stop-color="white"/>
<stop offset="1" stop-color="white" stop-opacity="0"/>
</radialGradient>
<radialGradient id="paint8_radial_364_8088" cx="0" cy="0" r="1" gradientUnits="userSpaceOnUse" gradientTransform="translate(9.02919 7.08514) rotate(120) scale(2.21247)">
<stop stop-color="white"/>
<stop offset="1" stop-color="white" stop-opacity="0"/>
</radialGradient>
<linearGradient id="paint9_linear_364_8088" x1="11.0138" y1="4.39725" x2="9.97273" y2="6.25928" gradientUnits="userSpaceOnUse">
<stop stop-color="white" stop-opacity="0"/>
<stop offset="1" stop-color="white"/>
</linearGradient>
<linearGradient id="paint10_linear_364_8088" x1="11.4777" y1="3.45305" x2="8.21917" y2="4.3993" gradientUnits="userSpaceOnUse">
<stop stop-color="#231F20"/>
<stop offset="1" stop-color="white"/>
</linearGradient>
<linearGradient id="paint11_linear_364_8088" x1="5.32119" y1="15.877" x2="8.04424" y2="18.7203" gradientUnits="userSpaceOnUse">
<stop stop-color="#231F20"/>
<stop offset="1" stop-color="white"/>
</linearGradient>
<linearGradient id="paint12_linear_364_8088" x1="19.9422" y1="15.4481" x2="20.8908" y2="12.5662" gradientUnits="userSpaceOnUse">
<stop stop-color="#231F20"/>
<stop offset="1" stop-color="white"/>
</linearGradient>
<linearGradient id="paint13_linear_364_8088" x1="12.9617" y1="5.10057" x2="17.3276" y2="6.10128" gradientUnits="userSpaceOnUse">
<stop stop-color="#231F20"/>
<stop offset="1" stop-color="white"/>
</linearGradient>
<linearGradient id="paint14_linear_364_8088" x1="17.4956" y1="16.2815" x2="14.4478" y2="19.5634" gradientUnits="userSpaceOnUse">
<stop stop-color="#231F20"/>
<stop offset="1" stop-color="white"/>
</linearGradient>
<linearGradient id="paint15_linear_364_8088" x1="5.54513" y1="14.6188" x2="4.2288" y2="10.3374" gradientUnits="userSpaceOnUse">
<stop stop-color="#231F20"/>
<stop offset="1" stop-color="white"/>
</linearGradient>
<linearGradient id="paint16_linear_364_8088" x1="13.9154" y1="6.71174" x2="12.5334" y2="8.09368" gradientUnits="userSpaceOnUse">
<stop stop-color="#231F20"/>
<stop offset="1" stop-color="white"/>
</linearGradient>
<linearGradient id="paint17_linear_364_8088" x1="6.46387" y1="12.9856" x2="8.35165" y2="13.4914" gradientUnits="userSpaceOnUse">
<stop stop-color="#231F20"/>
<stop offset="1" stop-color="white"/>
</linearGradient>
<linearGradient id="paint18_linear_364_8088" x1="15.6205" y1="16.301" x2="15.1146" y2="14.4133" gradientUnits="userSpaceOnUse">
<stop stop-color="#231F20"/>
<stop offset="1" stop-color="white"/>
</linearGradient>
<linearGradient id="paint19_linear_364_8088" x1="12.7487" y1="14.6222" x2="13.5769" y2="13.4784" gradientUnits="userSpaceOnUse">
<stop stop-color="#231F20"/>
<stop offset="1" stop-color="white"/>
</linearGradient>
<linearGradient id="paint20_linear_364_8088" x1="9.89405" y1="14.1273" x2="8.23526" y2="14.917" gradientUnits="userSpaceOnUse">
<stop stop-color="#231F20"/>
<stop offset="1" stop-color="white"/>
</linearGradient>
<linearGradient id="paint21_linear_364_8088" x1="9.29263" y1="11.3657" x2="9.80549" y2="12.4322" gradientUnits="userSpaceOnUse">
<stop stop-color="#231F20"/>
<stop offset="1" stop-color="white"/>
</linearGradient>
<linearGradient id="paint22_linear_364_8088" x1="11.6799" y1="8.07319" x2="11.3237" y2="6.8501" gradientUnits="userSpaceOnUse">
<stop stop-color="#231F20"/>
<stop offset="1" stop-color="white"/>
</linearGradient>
<linearGradient id="paint23_linear_364_8088" x1="15.5106" y1="13.6781" x2="16.5363" y2="13.9163" gradientUnits="userSpaceOnUse">
<stop stop-color="#231F20"/>
<stop offset="1" stop-color="white"/>
</linearGradient>
<linearGradient id="paint24_linear_364_8088" x1="13.8993" y1="10.2108" x2="12.5945" y2="9.97256" gradientUnits="userSpaceOnUse">
<stop stop-color="#231F20"/>
<stop offset="1" stop-color="white"/>
</linearGradient>
</defs>
</svg>
