<svg width="24" height="24" viewBox="0 0 24 24" fill="none" xmlns="http://www.w3.org/2000/svg">
<path d="M11.6028 2.16255C11.709 2.05837 11.8519 2 12.0008 2C12.1496 2 12.2925 2.05837 12.3989 2.16255L16.4134 6.17715C16.4666 6.23001 16.509 6.29291 16.5379 6.36221C16.5667 6.43149 16.5815 6.50582 16.5815 6.58088C16.5815 6.65595 16.5667 6.73028 16.5379 6.79957C16.509 6.86887 16.4666 6.93176 16.4134 6.98462L12.4044 10.9936C12.3516 11.0468 12.2887 11.0891 12.2195 11.118C12.1502 11.1468 12.0758 11.1617 12.0008 11.1617C11.9257 11.1617 11.8514 11.1468 11.782 11.118C11.7128 11.0891 11.6499 11.0468 11.5971 10.9936L7.58812 6.98462C7.53483 6.93176 7.49251 6.86887 7.46365 6.79957C7.43478 6.73028 7.41992 6.65595 7.41992 6.58088C7.41992 6.50582 7.43478 6.43149 7.46365 6.36221C7.49251 6.29291 7.53483 6.23001 7.58812 6.17715L11.6028 2.16255Z" fill="#FEFEFE"/>
<path d="M17.0154 7.58739C17.0682 7.53409 17.1311 7.49178 17.2004 7.46292C17.2698 7.43405 17.3441 7.41919 17.4191 7.41919C17.4942 7.41919 17.5685 7.43405 17.6379 7.46292C17.7071 7.49178 17.77 7.53409 17.8228 7.58739L21.8318 11.5962C21.885 11.6492 21.9273 11.7121 21.9563 11.7813C21.9851 11.8506 21.9999 11.925 21.9999 12C21.9999 12.0751 21.9851 12.1494 21.9563 12.2187C21.9273 12.288 21.885 12.3509 21.8318 12.4037L17.8228 16.4126C17.77 16.466 17.7071 16.5083 17.6379 16.5372C17.5685 16.566 17.4942 16.5809 17.4191 16.5809C17.3441 16.5809 17.2698 16.566 17.2004 16.5372C17.1311 16.5083 17.0682 16.466 17.0154 16.4126L13.0064 12.4037C12.9532 12.3509 12.9109 12.288 12.882 12.2187C12.8532 12.1494 12.8383 12.0751 12.8383 12C12.8383 11.925 12.8532 11.8506 12.882 11.7813C12.9109 11.7121 12.9532 11.6492 13.0064 11.5962L17.0154 7.58739ZM11.602 13.0065C11.7083 12.9024 11.8512 12.844 12 12.844C12.1488 12.844 12.2917 12.9024 12.3981 13.0065L16.4127 17.0154C16.4659 17.0683 16.5082 17.1312 16.5371 17.2005C16.5659 17.2697 16.5808 17.344 16.5808 17.4191C16.5808 17.4942 16.5659 17.5685 16.5371 17.6378C16.5082 17.7072 16.4659 17.7701 16.4127 17.8229L12.4037 21.8318C12.3508 21.8851 12.288 21.9274 12.2187 21.9562C12.1494 21.9852 12.075 22 12 22C11.9249 22 11.8506 21.9852 11.7812 21.9562C11.712 21.9274 11.6491 21.8851 11.5963 21.8318L7.58734 17.8229C7.53405 17.7701 7.49173 17.7072 7.46287 17.6378C7.434 17.5685 7.41914 17.4942 7.41914 17.4191C7.41914 17.344 7.434 17.2697 7.46287 17.2005C7.49173 17.1312 7.53405 17.0683 7.58734 17.0154L11.5963 13.0065H11.602ZM6.17711 7.58739C6.22997 7.53409 6.29287 7.49178 6.36217 7.46292C6.43145 7.43405 6.50578 7.41919 6.58084 7.41919C6.65591 7.41919 6.73024 7.43405 6.79953 7.46292C6.86883 7.49178 6.93172 7.53409 6.98458 7.58739L10.9935 11.5962C11.0468 11.6492 11.089 11.7121 11.118 11.7813C11.1469 11.8506 11.1617 11.925 11.1617 12C11.1617 12.0751 11.1469 12.1494 11.118 12.2187C11.089 12.288 11.0468 12.3509 10.9935 12.4037L6.98458 16.4126C6.93172 16.466 6.86883 16.5083 6.79953 16.5372C6.73024 16.566 6.65591 16.5809 6.58084 16.5809C6.50578 16.5809 6.43145 16.566 6.36217 16.5372C6.29287 16.5083 6.22997 16.466 6.17711 16.4126L2.1682 12.4037C2.1149 12.3509 2.0726 12.288 2.04373 12.2187C2.01486 12.1494 2 12.0751 2 12C2 11.925 2.01486 11.8506 2.04373 11.7813C2.0726 11.7121 2.1149 11.6492 2.1682 11.5962L6.17711 7.58739Z" fill="#00A0E1"/>
</svg>
