<svg width="24" height="24" viewBox="0 0 24 24" fill="none" xmlns="http://www.w3.org/2000/svg">
<path d="M17.087 17.9975C15.153 17.8999 13.6292 16.3925 13.6292 14.582C13.6292 14.4633 13.7054 14.3446 13.8074 14.2734C14.4692 13.8937 14.902 13.229 14.902 12.4456C14.902 11.2584 13.8837 10.2856 12.6109 10.2856H10.3956C9.86116 10.2856 9.4283 10.6893 9.4283 11.2113V17.9998H7.00815C5.99115 17.9998 5.14258 17.177 5.14258 16.1364V9.48199C5.14258 8.85285 5.45758 8.27213 5.96629 7.93356L10.9583 4.59413C11.2685 4.39279 11.6304 4.28564 12.0001 4.28564C12.3699 4.28564 12.7318 4.39279 13.042 4.59413L18.0336 7.93356C18.2875 8.10414 18.4954 8.33467 18.639 8.60474C18.7826 8.87481 18.8574 9.17612 18.8569 9.48199V16.112C18.8569 17.1213 18.0831 17.9475 17.087 17.9975Z" fill="url(#paint0_linear_101_6540)"/>
<defs>
<linearGradient id="paint0_linear_101_6540" x1="9.39866" y1="4.76736" x2="14.2001" y2="17.9999" gradientUnits="userSpaceOnUse">
<stop stop-color="#28D0FA"/>
<stop offset="1" stop-color="#635BD7"/>
</linearGradient>
</defs>
</svg>
