<svg width="24" height="24" viewBox="0 0 24 24" fill="none" xmlns="http://www.w3.org/2000/svg">
<path d="M13.7139 4.54704L11.9996 3.42847L10.2853 4.54704V6.62132L11.571 7.52989V8.38704L8.57101 9.97275V13.6156L8.11672 13.9542L7.65815 10.6885L7.20387 14.2799L7.71387 14.7513V15.8442L6.64244 16.4999L5.57101 15.8442V14.8028L6.30815 14.4599L6.5353 15.5485L6.85672 14.1213V8.90132L9.73244 7.21704L9.25672 6.44561L5.99958 8.39132V13.5599L4.71387 14.2413V16.3713L6.64244 17.5713L8.57101 16.3713V14.747L9.29958 14.3828L11.9996 15.9556L14.7296 14.3699L15.2953 14.7085L13.821 16.6713L15.8567 15.4285V15.0428L17.4424 14.1428L18.4282 14.7642V15.8656L17.6182 16.4485L16.9196 16.0028L17.121 15.047L16.3496 15.5485L12.2267 18.1928L9.74958 16.637L9.24387 17.3956L12.2267 19.2856L16.2982 16.6713L17.571 17.5713L19.2853 16.3499V14.2799L17.4853 13.0799L15.8739 13.997L15.4282 13.5813V9.97275L12.4282 8.38704V7.71418L15.8653 8.90132L12.681 6.83132L12.4539 7.04561L11.1424 6.13275V5.02704L11.9996 4.54275L12.8567 5.02704V5.9999H12.4539L12.8567 6.42847L17.1424 8.90132V12.707L17.9996 12.4799V8.39132L13.7139 5.89704V4.54275V4.54704ZM9.42815 10.6885L11.9996 9.17132L14.571 10.4999V13.3928L11.9996 14.9013L9.42815 13.3928V10.6885ZM10.7139 11.0999L11.9996 10.4313L13.2853 11.0999L11.9996 11.7728L10.7139 11.0999ZM10.7139 12.7456V11.5628L11.7853 12.2699V13.4528L10.7139 12.7456ZM13.2853 11.5628V12.7456L12.2139 13.4528V12.2699L13.2853 11.5628Z" fill="#0094D9"/>
</svg>
