<svg width="24" height="24" viewBox="0 0 24 24" fill="none" xmlns="http://www.w3.org/2000/svg">
<path fill-rule="evenodd" clip-rule="evenodd" d="M11.9996 18.0001C13.5909 18.0001 15.117 17.3679 16.2422 16.2427C17.3674 15.1175 17.9996 13.5914 17.9996 12.0001C17.9996 10.4088 17.3674 8.88265 16.2422 7.75743C15.117 6.63221 13.5909 6.00007 11.9996 6.00007C10.4083 6.00007 8.88216 6.63221 7.75694 7.75743C6.63172 8.88265 5.99958 10.4088 5.99958 12.0001C5.99958 13.5914 6.63172 15.1175 7.75694 16.2427C8.88216 17.3679 10.4083 18.0001 11.9996 18.0001ZM11.7853 12.4029V10.6886L9.21387 8.3315C9.07244 8.19007 8.69958 7.98864 8.35672 8.3315C8.01387 8.67436 8.2153 9.04721 8.35672 9.18864L11.7853 12.4029ZM12.2139 13.0715V11.3572L15.6424 14.5715C15.7839 14.7129 15.9853 15.0858 15.6424 15.4286C15.2996 15.7715 14.9267 15.5701 14.7853 15.4286L12.2139 13.0715ZM9.92958 7.39721C9.84438 7.32879 9.73626 7.2955 9.62733 7.30415C9.51839 7.31279 9.41688 7.36272 9.34353 7.44373C9.27019 7.52473 9.23056 7.63069 9.23275 7.73995C9.23493 7.8492 9.27877 7.95349 9.3553 8.0315L11.7124 10.1744C11.7912 10.2454 11.8935 10.2848 11.9996 10.2848C12.1057 10.2848 12.208 10.2454 12.2867 10.1744L14.6439 8.0315C14.6894 7.99492 14.727 7.94942 14.7543 7.89779C14.7816 7.84615 14.7981 7.78948 14.8027 7.73125C14.8074 7.67301 14.8 7.61445 14.7812 7.55915C14.7624 7.50386 14.7324 7.453 14.6932 7.40969C14.654 7.36639 14.6064 7.33156 14.5532 7.30734C14.5 7.28312 14.4425 7.27002 14.3841 7.26885C14.3257 7.26768 14.2677 7.27847 14.2136 7.30054C14.1595 7.32261 14.1105 7.35551 14.0696 7.39721L11.9996 9.27864L9.92958 7.39721ZM16.4782 9.47578C16.4234 9.44795 16.3633 9.43221 16.3019 9.42965C16.2405 9.42708 16.1793 9.43774 16.1224 9.46091C16.0655 9.48408 16.0142 9.51921 15.9721 9.56392C15.9299 9.60864 15.8979 9.66189 15.8782 9.72007L15.3339 11.3572H13.9282C13.8458 11.3573 13.7652 11.3812 13.696 11.4259C13.6269 11.4706 13.572 11.5343 13.5381 11.6093C13.5042 11.6844 13.4927 11.7676 13.5048 11.8491C13.517 11.9305 13.5524 12.0068 13.6067 12.0686L15.1067 13.7829C15.1832 13.8626 15.2875 13.9096 15.3978 13.9142C15.5082 13.9189 15.616 13.8807 15.6989 13.8078C15.7818 13.7348 15.8334 13.6327 15.8428 13.5227C15.8523 13.4126 15.8189 13.3032 15.7496 13.2172L14.871 12.2144H15.6424C15.7323 12.2146 15.8199 12.1866 15.893 12.1343C15.9661 12.082 16.0208 12.008 16.0496 11.9229L16.4953 10.5772C16.6239 10.7401 16.7139 10.9286 16.7139 11.1429V12.4286C16.7139 12.5423 16.759 12.6513 16.8394 12.7317C16.9198 12.8121 17.0288 12.8572 17.1424 12.8572C17.2561 12.8572 17.3651 12.8121 17.4455 12.7317C17.5259 12.6513 17.571 12.5423 17.571 12.4286V11.1429C17.565 10.7339 17.4164 10.3399 17.151 10.0286C16.9667 9.79937 16.7378 9.60985 16.4782 9.4715V9.47578ZM7.40958 9.55293C7.44942 9.51276 7.49682 9.48087 7.54905 9.45912C7.60127 9.43736 7.65729 9.42616 7.71387 9.42616C7.77044 9.42616 7.82646 9.43736 7.87869 9.45912C7.93091 9.48087 7.97831 9.51276 8.01815 9.55293L10.161 11.6958C10.2387 11.7738 10.2835 11.8788 10.2858 11.9889C10.2882 12.099 10.2481 12.2059 10.1739 12.2872L8.03101 14.6444C7.98713 14.6923 7.93291 14.7297 7.87246 14.7536C7.812 14.7776 7.74689 14.7874 7.68206 14.7825C7.61723 14.7775 7.55437 14.7579 7.49825 14.725C7.44214 14.6922 7.39423 14.647 7.35815 14.5929C7.19958 14.3572 6.97244 13.9586 6.78387 13.5044C6.57072 13.0301 6.45 12.5196 6.42815 12.0001C6.44855 11.093 6.79901 10.2244 7.41387 9.55721L7.40958 9.55293ZM8.82387 11.5715L7.74815 10.4958C7.5402 10.824 7.39759 11.1892 7.32815 11.5715H8.82387ZM7.32815 12.4286C7.37958 12.6686 7.4653 12.9258 7.56815 13.1744C7.63672 13.3415 7.71387 13.4958 7.78244 13.6372L8.89244 12.4286H7.32815Z" fill="#203A49"/>
<path fill-rule="evenodd" clip-rule="evenodd" d="M11.9996 18.8572C13.8182 18.8572 15.5624 18.1348 16.8483 16.8488C18.1343 15.5628 18.8567 13.8187 18.8567 12.0001C18.8567 10.1814 18.1343 8.4373 16.8483 7.15134C15.5624 5.86537 13.8182 5.14293 11.9996 5.14293C10.181 5.14293 8.43681 5.86537 7.15085 7.15134C5.86489 8.4373 5.14244 10.1814 5.14244 12.0001C5.14244 13.8187 5.86489 15.5628 7.15085 16.8488C8.43681 18.1348 10.181 18.8572 11.9996 18.8572ZM11.9996 19.2858C13.9319 19.2858 15.785 18.5182 17.1514 17.1518C18.5177 15.7855 19.2853 13.9324 19.2853 12.0001C19.2853 10.0678 18.5177 8.21463 17.1514 6.84829C15.785 5.48196 13.9319 4.71436 11.9996 4.71436C10.0673 4.71436 8.21414 5.48196 6.8478 6.84829C5.48147 8.21463 4.71387 10.0678 4.71387 12.0001C4.71387 13.9324 5.48147 15.7855 6.8478 17.1518C8.21414 18.5182 10.0673 19.2858 11.9996 19.2858Z" fill="#459B6E"/>
<path d="M12.2139 10.7144V12.4286L15.6424 9.21435C15.7839 9.07293 15.9853 8.70007 15.6424 8.35721C15.2996 8.01436 14.9267 8.21578 14.7853 8.35721L12.2139 10.7144ZM11.7853 13.0458V11.3315L8.35672 14.5458C8.2153 14.6915 8.01387 15.0601 8.35672 15.4029C8.69958 15.7458 9.07244 15.5486 9.21387 15.4029L11.7853 13.0458Z" fill="#459B6E"/>
</svg>
