<svg width="24" height="24" viewBox="0 0 24 24" fill="none" xmlns="http://www.w3.org/2000/svg">
<path d="M5.70527 5.66668C5.67692 5.65031 5.65331 5.62686 5.63675 5.59861C5.6202 5.57037 5.61127 5.5383 5.61084 5.50557V3.89445C5.61084 3.39202 5.81043 2.91016 6.16571 2.55488C6.52098 2.1996 7.00284 2 7.50527 2H7.7275C8.16084 2 8.58866 2.11667 8.96082 2.33889L17.6165 7.4889C17.8499 7.62758 18.0437 7.82419 18.1791 8.05973C18.3144 8.29526 18.3865 8.56173 18.3887 8.83334V9.22223C18.3887 10.0166 17.9665 10.75 17.2775 11.15L5.94417 17.7222C5.91065 17.7417 5.87265 17.7519 5.83395 17.752C5.79523 17.7522 5.75715 17.7422 5.72347 17.7231C5.6898 17.7041 5.66168 17.6765 5.64193 17.6433C5.62217 17.61 5.61145 17.5721 5.61084 17.5334V6.73334C5.61113 6.68473 5.62418 6.63704 5.64868 6.59504C5.67318 6.55305 5.70827 6.51822 5.75045 6.49403C5.79262 6.46986 5.84041 6.45716 5.88903 6.45724C5.93765 6.45731 5.98539 6.47014 6.0275 6.49446L11.6886 9.7334C11.7568 9.77216 11.8135 9.82842 11.8527 9.89622C11.8921 9.96401 11.913 10.041 11.913 10.1194C11.913 10.1979 11.8921 10.2749 11.8527 10.3428C11.8135 10.4106 11.7568 10.4667 11.6886 10.5056L9.79979 11.5945C9.73212 11.6335 9.65551 11.654 9.57747 11.654C9.49944 11.654 9.42282 11.6335 9.35529 11.5945L8.55528 11.1278C8.53811 11.1178 8.5186 11.1127 8.49877 11.1129C8.47894 11.1131 8.45951 11.1185 8.4425 11.1287C8.42549 11.1388 8.41152 11.1535 8.40204 11.1709C8.39258 11.1884 8.38794 11.2079 8.38861 11.2278V12.8834C8.38861 12.9722 8.48306 13.0222 8.55528 12.9833L14.8997 9.31668C14.9171 9.30707 14.9316 9.29298 14.9417 9.27589C14.9518 9.25879 14.9571 9.2393 14.9571 9.21946C14.9571 9.19961 14.9518 9.18013 14.9417 9.16303C14.9316 9.14593 14.9171 9.13184 14.8997 9.12224L8.55528 5.45557C8.53811 5.44564 8.5186 5.44049 8.49877 5.44065C8.47894 5.4408 8.45951 5.44627 8.4425 5.45647C8.42549 5.46668 8.41152 5.48125 8.40204 5.49868C8.39258 5.5161 8.38794 5.53574 8.38861 5.55556V6.42779C8.38933 6.50614 8.3693 6.58329 8.33058 6.65141C8.29186 6.71953 8.23582 6.77621 8.16814 6.81569C8.10044 6.85517 8.02354 6.87606 7.94517 6.87623C7.86681 6.8764 7.7898 6.85585 7.72195 6.81668L5.70527 5.66668Z" fill="url(#paint0_linear_364_11416)"/>
<path d="M5.63908 18.5333C5.62945 18.5388 5.62165 18.5469 5.6167 18.5569C5.61175 18.5668 5.60987 18.5779 5.61131 18.5889V20.1056C5.61131 20.3544 5.66031 20.6006 5.75551 20.8306C5.85071 21.0604 5.99026 21.2693 6.16618 21.4452C6.3421 21.6211 6.55093 21.7606 6.78078 21.8559C7.01062 21.951 7.25697 22 7.50575 22H7.73353C8.16686 22 8.58913 21.8889 8.96687 21.6667L17.2891 16.8112C17.6244 16.6149 17.9026 16.3341 18.0957 15.9968C18.2887 15.6595 18.3898 15.2775 18.3891 14.8889C18.388 14.5096 18.2847 14.1377 18.0902 13.8122C17.8956 13.4867 17.6169 13.2195 17.2835 13.039L16.6002 12.6389C16.5047 12.5838 16.3965 12.5548 16.2863 12.5548C16.1761 12.5548 16.0679 12.5838 15.9724 12.6389L13.8058 13.8889C13.7759 13.9066 13.751 13.9317 13.7337 13.9619C13.7165 13.9921 13.7074 14.0263 13.7074 14.0611C13.7074 14.096 13.7165 14.13 13.7337 14.1603C13.751 14.1905 13.7759 14.2156 13.8058 14.2334L14.939 14.8889C14.9551 14.8989 14.9685 14.9128 14.9777 14.9293C14.9869 14.9458 14.9917 14.9645 14.9917 14.9834C14.9917 15.0023 14.9869 15.0209 14.9777 15.0375C14.9685 15.0539 14.9551 15.0678 14.939 15.0778L8.55575 18.7C8.53899 18.7097 8.51999 18.7148 8.50064 18.7149C8.48129 18.7151 8.46224 18.71 8.44541 18.7005C8.42857 18.6909 8.41451 18.6772 8.40464 18.6605C8.39476 18.6439 8.38939 18.625 8.38908 18.6055V17.6223C8.38849 17.5542 8.37008 17.4876 8.3357 17.429C8.30132 17.3704 8.25218 17.3218 8.19316 17.2881C8.13414 17.2543 8.06732 17.2366 7.99934 17.2368C7.93136 17.237 7.86461 17.2549 7.80575 17.2889L5.63908 18.5333Z" fill="url(#paint1_linear_364_11416)"/>
<defs>
<linearGradient id="paint0_linear_364_11416" x1="18.3887" y1="11.8753" x2="5.61037" y2="11.8753" gradientUnits="userSpaceOnUse">
<stop stop-color="#3710DC"/>
<stop offset="1" stop-color="#8109EA"/>
</linearGradient>
<linearGradient id="paint1_linear_364_11416" x1="18.3891" y1="16.1667" x2="5.61131" y2="16.1667" gradientUnits="userSpaceOnUse">
<stop stop-color="#10DBB7"/>
<stop offset="1" stop-color="#7E0CE9"/>
</linearGradient>
</defs>
</svg>
