<svg width="24" height="24" viewBox="0 0 24 24" fill="none" xmlns="http://www.w3.org/2000/svg">
<path d="M11.9997 18.8571C13.8183 18.8571 15.5625 18.1347 16.8485 16.8487C18.1344 15.5627 18.8569 13.8186 18.8569 12C18.8569 10.1813 18.1344 8.4372 16.8485 7.15123C15.5625 5.86527 13.8183 5.14282 11.9997 5.14282C10.1811 5.14282 8.43695 5.86527 7.15099 7.15123C5.86502 8.4372 5.14258 10.1813 5.14258 12C5.14258 13.8186 5.86502 15.5627 7.15099 16.8487C8.43695 18.1347 10.1811 18.8571 11.9997 18.8571ZM9.85686 12C9.85686 10.7743 10.1526 8.23711 11.9997 5.99997C13.8469 8.23711 14.1426 10.7743 14.1426 12C14.1426 13.2257 13.8469 15.7628 11.9997 18C10.6242 16.3017 9.86834 14.1854 9.85686 12Z" fill="#4EFFAF"/>
</svg>
