<svg width="24" height="24" viewBox="0 0 24 24" fill="none" xmlns="http://www.w3.org/2000/svg">
<path d="M20.047 9.41182C20.047 6.15882 15.0824 3.67648 12.7647 3.67648C4.98824 3.67648 2 10.9706 2 14.047C2 17.1235 5.02942 18.9648 6.65883 19.6882C8.29412 20.4117 11.5294 22 13.7411 22C19.6235 22 19.4588 15.8411 19.3941 14.647C19.3352 13.4471 20.047 11.8765 20.047 9.41758V9.41182Z" fill="url(#paint0_linear_364_9703)"/>
<path d="M12.7649 2C19.2767 2 22.0001 8.15881 22.0001 11.5647C22.0001 17.9941 17.2001 19.7883 14.7766 19.3529C11.7883 18.8235 11.1531 18.8588 7.92369 18.2823C5.25311 17.8059 3.89429 15.2235 3.89429 10.0588C3.89429 4.41763 9.0178 2 12.7649 2Z" fill="#CED4CC"/>
<path d="M4.08839 8.21742C5.04503 6.80697 6.34111 5.65987 7.85734 4.8817C9.37358 4.10355 11.0612 3.71934 12.7649 3.76447C15.0824 3.76447 20.0472 6.15859 20.0472 9.41743C20.0472 10.7997 19.8236 11.8998 19.6355 12.8115C19.4883 13.5174 19.3707 14.1175 19.4002 14.6468C19.4237 15.1821 19.4708 16.735 18.9766 18.2704C17.8355 19.0703 16.5648 19.6468 15.5296 19.6468C14.1884 19.6527 12.8177 19.2527 11.4884 19.0703C10.5355 18.941 9.56486 18.5762 7.92369 18.2822C5.25311 17.8056 3.89429 15.2233 3.89429 10.0586C3.89429 9.39973 3.96486 8.788 4.08839 8.21742Z" fill="url(#paint1_linear_364_9703)"/>
<path d="M14.9405 8.97053C14.9405 6.20584 11.8345 5.12936 10.2875 4.94113C6.09342 4.94113 3.17578 7.92936 3.17578 11.9412C3.17578 15.9412 7.66401 16.7058 10.5346 16.7058C13.411 16.7058 14.9405 12.4235 14.9405 8.97053Z" fill="#6D7B55"/>
<path d="M13.1761 9.14116C13.1761 7.0647 10.8466 6.25881 9.68195 6.11765C6.54078 6.11765 4.35254 8.35881 4.35254 11.3647C4.35254 14.3647 7.71724 14.9411 9.87608 14.9411C12.0291 14.9411 13.1761 11.7294 13.1761 9.14116Z" fill="#525344"/>
<path d="M11.9991 9.3057C11.9991 7.92338 10.4462 7.38809 9.66975 7.29397C9.20201 7.27269 8.73492 7.34825 8.29775 7.51592C7.86057 7.68357 7.46275 7.93973 7.12919 8.26832C6.79562 8.59691 6.53353 8.99084 6.35933 9.42539C6.18511 9.86008 6.10255 10.3259 6.11681 10.794C6.11681 12.794 8.35799 13.1763 9.79917 13.1763C11.2345 13.1763 11.9991 11.0351 11.9991 9.3057Z" fill="#31302D"/>
<path d="M14.9401 10.3177C14.6245 9.91953 14.2218 9.5989 13.7628 9.38067C13.304 9.16249 12.8012 9.05239 12.2931 9.05887C11.193 9.05887 10.2284 9.55882 9.64601 10.3177C9.32917 9.91788 8.92453 9.59643 8.46347 9.37806C8.0024 9.15981 7.49726 9.05058 6.9872 9.05887C5.21072 9.05887 3.76367 10.3766 3.76367 12H4.91661C4.91661 10.9588 5.84602 10.0413 6.99308 10.0413C8.13425 10.0413 9.06367 10.9588 9.06367 12H10.2225C10.2225 10.9588 11.1461 10.0413 12.2931 10.0413C13.4401 10.0413 14.3636 10.9588 14.3636 12H15.5283C15.5283 10.9588 16.4578 10.0413 17.599 10.0413C18.746 10.0413 19.6696 10.9588 19.6696 12H20.8225C20.8225 10.3766 19.3755 9.05887 17.5931 9.05887C16.499 9.05887 15.5283 9.55882 14.946 10.3177H14.9401Z" fill="#FFFFFE"/>
<path d="M14.9401 13.6822C14.6245 14.0804 14.2218 14.401 13.7628 14.6193C13.304 14.8375 12.8012 14.9476 12.2931 14.9411C11.785 14.9476 11.2822 14.8375 10.8232 14.6193C10.3644 14.401 9.9617 14.0804 9.64601 13.6822C9.32917 14.082 8.92453 14.4035 8.46347 14.6219C8.0024 14.8401 7.49726 14.9494 6.9872 14.9411C5.21072 14.9411 3.76367 13.6235 3.76367 11.9999H4.91661C4.91661 13.0411 5.84602 13.9587 6.99308 13.9587C8.13425 13.9587 9.06367 13.0411 9.06367 11.9999H10.2225C10.2225 13.0411 11.1461 13.9587 12.2931 13.9587C13.4401 13.9587 14.3636 13.0411 14.3636 11.9999H15.5283C15.5283 13.0411 16.4578 13.9587 17.599 13.9587C18.746 13.9587 19.6696 13.0411 19.6696 11.9999H20.8225C20.8225 13.6235 19.3755 14.9411 17.5931 14.9411C17.0849 14.9476 16.5822 14.8375 16.1232 14.6193C15.6644 14.401 15.2617 14.0804 14.946 13.6822H14.9401Z" fill="url(#paint2_linear_364_9703)"/>
<defs>
<linearGradient id="paint0_linear_364_9703" x1="11.0353" y1="15.8235" x2="9.27647" y2="20.8235" gradientUnits="userSpaceOnUse">
<stop stop-color="#A6BEA7"/>
<stop offset="1" stop-color="#CBD8C8"/>
</linearGradient>
<linearGradient id="paint1_linear_364_9703" x1="7.37074" y1="9.68796" x2="19.7708" y2="16.5057" gradientUnits="userSpaceOnUse">
<stop stop-color="#89A682"/>
<stop offset="1" stop-color="#BFD2AD"/>
</linearGradient>
<linearGradient id="paint2_linear_364_9703" x1="9.94015" y1="12.9647" x2="9.81072" y2="11.4" gradientUnits="userSpaceOnUse">
<stop stop-color="#21AD4C"/>
<stop offset="1" stop-color="#3B493E"/>
</linearGradient>
</defs>
</svg>
