<svg width="24" height="24" viewBox="0 0 24 24" fill="none" xmlns="http://www.w3.org/2000/svg">
<path d="M8.57185 12.8571C8.78613 16.0714 10.9033 18.0985 12.1804 18.6128C10.6804 19.2728 7.21756 19.0199 7.21756 12.6599C7.21756 6.26993 11.0533 4.94564 13.0847 4.72707L15.1118 5.1685L16.7147 4.72707L17.1433 5.1685C16.6033 5.33993 15.8061 6.34279 15.429 6.85707C14.889 5.7985 13.6076 5.57136 13.0847 5.57136C10.599 5.57136 8.30613 8.89279 8.57185 12.8571Z" fill="url(#paint0_linear_101_7020)"/>
<path d="M16.7147 4.72707C16.0161 4.9285 15.339 5.75564 15.1118 6.26993C14.9036 5.91686 14.6045 5.62606 14.2457 5.42782C13.887 5.22959 13.4816 5.13116 13.0718 5.14279C11.2547 5.14279 7.7147 7.78707 7.7147 12.6428C7.7147 17.4685 10.5904 18.6428 13.0718 18.6428C14.5718 18.6428 15.4933 17.6699 15.339 17.0699C15.2618 16.7742 15.2961 16.1871 16.0161 16.1871C16.7361 16.1871 16.7833 16.6285 16.6933 17.0699C16.4661 18.1714 14.7218 19.7142 11.7861 19.7142C8.8547 19.7142 6.54042 16.1871 5.86328 14.6442C5.32328 13.4099 4.58613 12.9556 4.28613 12.8828C4.64613 12.1756 5.48613 12.1456 5.86328 12.2185C5.77008 10.2114 6.47657 8.24915 7.82786 6.76208C9.17915 5.27502 11.065 4.38446 13.0718 4.28564C13.9718 4.28564 14.6618 4.58136 14.889 4.72707C15.1998 4.44977 15.5997 4.29314 16.0161 4.28564C16.2861 4.28564 16.5004 4.49993 16.7147 4.72707Z" fill="url(#paint1_linear_101_7020)"/>
<defs>
<linearGradient id="paint0_linear_101_7020" x1="10.7147" y1="4.28564" x2="10.7147" y2="19.7151" gradientUnits="userSpaceOnUse">
<stop stop-color="#7C4F14"/>
<stop offset="0.17" stop-color="#CF8C21"/>
<stop offset="0.28" stop-color="#F0B035"/>
<stop offset="0.43" stop-color="#734A08"/>
<stop offset="0.67" stop-color="#BC7908"/>
<stop offset="1" stop-color="#3E1E05"/>
</linearGradient>
<linearGradient id="paint1_linear_101_7020" x1="10.5047" y1="4.28564" x2="10.5047" y2="19.7142" gradientUnits="userSpaceOnUse">
<stop stop-color="#EFDF58"/>
<stop offset="0.47" stop-color="#C67D16"/>
<stop offset="1" stop-color="#8B4102"/>
</linearGradient>
</defs>
</svg>
