<svg width="24" height="24" viewBox="0 0 24 24" fill="none" xmlns="http://www.w3.org/2000/svg">
<path d="M12.4286 4.28564V6.37707L7.96714 9.03422C7.81714 9.11993 7.71429 9.27422 7.71429 9.44993V14.5285C7.71429 14.6999 7.76571 14.8028 7.91143 14.8928L12.3129 17.5114C12.4629 17.6014 12.6471 17.6014 12.7971 17.5114L16.6971 15.1328L18.4286 16.4271L13.0414 19.5856C12.7414 19.7571 12.3729 19.7571 12.0729 19.5771L6.47143 16.1785C6.32817 16.0909 6.20967 15.9681 6.12716 15.8219C6.04466 15.6756 6.00089 15.5107 6 15.3428V8.59279C6 8.24564 6.18 7.92422 6.47143 7.7485L12.4286 4.28564ZM12.4286 6.7885V8.2585L9.55714 9.99422C9.46286 10.0542 9.42857 10.2042 9.42857 10.3156V13.6499L9.42429 13.7314C9.41571 13.8128 9.41143 13.8814 9.48429 13.9242L12.2786 15.6042C12.3771 15.6642 12.4971 15.6599 12.5957 15.6042L15.15 14.0442L16.2771 14.8885L12.7543 16.9585C12.5571 17.0742 12.3171 17.0699 12.1243 16.9542L8.46 14.7256C8.36482 14.6688 8.28573 14.5885 8.23024 14.4925C8.17474 14.3965 8.14466 14.2879 8.14286 14.1771V9.7585C8.14286 9.53136 8.27143 9.32136 8.46 9.20136L12.4286 6.79279V6.7885ZM12.6429 13.7142C13.0407 13.7142 13.4222 13.5562 13.7035 13.2749C13.9848 12.9936 14.1429 12.612 14.1429 12.2142C14.1429 11.8164 13.9848 11.4349 13.7035 11.1536C13.4222 10.8723 13.0407 10.7142 12.6429 10.7142C12.245 10.7142 11.8635 10.8723 11.5822 11.1536C11.3009 11.4349 11.1429 11.8164 11.1429 12.2142C11.1429 12.612 11.3009 12.9936 11.5822 13.2749C11.8635 13.5562 12.245 13.7142 12.6429 13.7142ZM17.3571 9.53564C17.3571 9.79139 17.2555 10.0367 17.0747 10.2175C16.8939 10.3983 16.6486 10.4999 16.3929 10.4999C16.1371 10.4999 15.8918 10.3983 15.711 10.2175C15.5302 10.0367 15.4286 9.79139 15.4286 9.53564C15.4286 9.2799 15.5302 9.03463 15.711 8.85379C15.8918 8.67295 16.1371 8.57136 16.3929 8.57136C16.6486 8.57136 16.8939 8.67295 17.0747 8.85379C17.2555 9.03463 17.3571 9.2799 17.3571 9.53564ZM15 10.7142C15.1137 10.7142 15.2227 10.6691 15.303 10.5887C15.3834 10.5083 15.4286 10.3993 15.4286 10.2856C15.4286 10.172 15.3834 10.063 15.303 9.9826C15.2227 9.90223 15.1137 9.85707 15 9.85707C14.8863 9.85707 14.7773 9.90223 14.697 9.9826C14.6166 10.063 14.5714 10.172 14.5714 10.2856C14.5714 10.3993 14.6166 10.5083 14.697 10.5887C14.7773 10.6691 14.8863 10.7142 15 10.7142Z" fill="#39B0F4"/>
</svg>
