<svg width="24" height="24" viewBox="0 0 24 24" fill="none" xmlns="http://www.w3.org/2000/svg">
<path d="M13.2126 17.5714C15.3769 17.5714 17.3011 15.8314 17.5711 13.7443V13.7143H18.8569C18.719 15.1179 18.0657 16.4206 17.0232 17.3705C15.9806 18.3204 14.6229 18.8501 13.2126 18.8571H10.8126C7.68401 18.8571 5.14258 16.32 5.14258 13.2V10.8C5.14258 7.67997 7.68829 5.14282 10.8126 5.14282H13.2126C14.6229 5.14986 15.9806 5.67953 17.0232 6.62944C18.0657 7.57935 18.719 8.88204 18.8569 10.2857H17.5711C17.3011 8.19854 15.3769 6.42854 13.2126 6.42854H10.8126C9.65952 6.45249 8.56014 6.92035 7.74343 7.73467C6.92672 8.54898 6.45563 9.64698 6.42829 10.8V13.2C6.42829 15.54 8.46401 17.5714 10.8126 17.5714H13.2126ZM11.9997 9.42854C12.7069 9.42854 13.2854 10.0328 13.2854 10.7785C13.2854 11.3014 13.0026 11.7557 12.5911 11.9785L13.0669 14.1428H10.9326L11.4083 11.9785C11.1955 11.8593 11.0187 11.6849 10.8966 11.4738C10.7744 11.2626 10.7113 11.0225 10.714 10.7785C10.7059 10.4291 10.8368 10.0908 11.0778 9.83776C11.3188 9.58468 11.6504 9.43752 11.9997 9.42854Z" fill="#FF6B4D"/>
</svg>
