<svg width="24" height="24" viewBox="0 0 24 24" fill="none" xmlns="http://www.w3.org/2000/svg">
<path d="M8.33651 4.5H14.0115C13.8991 4.60624 13.6803 4.95 13.6803 5.475C13.6803 6 13.7739 6.21875 13.824 6.37499H8.24901V13.6L12.3678 16.0812L16.374 13.6V8.61878C16.5241 8.64999 16.6302 8.72495 16.8741 8.72495C17.6553 8.72495 18.1177 8.42497 18.249 8.28118V13.7313C18.249 14.375 17.9241 14.9812 17.374 15.3375L13.449 17.925C12.7928 18.3562 11.9427 18.3625 11.2802 17.9312L7.26152 15.3312C6.99069 15.1579 6.76758 14.9196 6.61256 14.6379C6.45753 14.3563 6.37553 14.0403 6.37402 13.7187V6.43124C6.37402 5.36874 7.24902 4.5 8.33651 4.5Z" fill="url(#paint0_linear_364_1819)"/>
<path d="M16.3739 8.24997C17.4094 8.24997 18.2489 7.41052 18.2489 6.37499C18.2489 5.33946 17.4094 4.5 16.3739 4.5C15.3383 4.5 14.4989 5.33946 14.4989 6.37499C14.4989 7.41052 15.3383 8.24997 16.3739 8.24997Z" fill="#52BEC1"/>
<path d="M3.56141 2.7C3.56141 2.49375 3.74265 2.31251 3.98639 2.31251H20.0114C20.2551 2.31251 20.4364 2.5 20.4364 2.7V6.99999C20.3731 7.00044 20.3114 7.02013 20.2595 7.05642C20.2077 7.09271 20.168 7.1439 20.1459 7.20321C20.1237 7.26254 20.1202 7.32717 20.1355 7.38858C20.151 7.44999 20.1847 7.50526 20.2322 7.54709C20.2797 7.58891 20.3388 7.61531 20.4017 7.6228C20.4645 7.63028 20.5282 7.61849 20.5842 7.58898C20.6402 7.5595 20.686 7.51368 20.7153 7.4576C20.7448 7.40153 20.7565 7.33784 20.7489 7.27499V2.7C20.7489 2.30625 20.4114 2 20.0114 2H3.98639C3.5864 2 3.2489 2.30625 3.2489 2.7V7.48124C3.25471 7.55998 3.29154 7.63319 3.35132 7.68475C3.4111 7.73633 3.48891 7.76204 3.56765 7.75624C3.64638 7.75044 3.71959 7.7136 3.77116 7.65382C3.82274 7.59404 3.84845 7.51623 3.84265 7.43749C3.84265 7.28125 3.71765 7.15 3.56141 7.14374V2.7ZM5.2364 3.24999C4.8364 3.24999 4.4989 3.55624 4.4989 3.94999V10.675C4.4989 10.7875 4.4614 10.8875 4.40515 10.9562C4.34265 11.0188 4.26141 11.0625 4.14265 11.0625H3.98639C3.73641 11.0625 3.56141 10.875 3.56141 10.675V9.17499C3.59998 9.17383 3.63793 9.16493 3.6731 9.14903C3.70828 9.13314 3.73997 9.11053 3.76636 9.08239C3.79277 9.05424 3.81338 9.02114 3.827 8.98497C3.84063 8.94895 3.84701 8.91045 3.84578 8.87181C3.84454 8.83331 3.83573 8.79539 3.81982 8.7601C3.80393 8.72495 3.78125 8.69331 3.7531 8.66691C3.72496 8.64051 3.69188 8.61995 3.65578 8.60624C3.61967 8.59268 3.58123 8.58626 3.54265 8.58743C3.39265 8.58743 3.2614 8.70628 3.2489 8.8562V10.675C3.2489 11.0688 3.5864 11.375 3.98639 11.375H4.14265C4.34891 11.375 4.51765 11.2938 4.64264 11.1626C4.75515 11.0313 4.8114 10.85 4.8114 10.675V3.94999C4.8114 3.74374 4.9989 3.5625 5.2364 3.5625H11.0176C11.0548 3.61382 11.1076 3.65174 11.1681 3.67061C11.2286 3.68946 11.2935 3.68827 11.3533 3.66718C11.4131 3.64609 11.4644 3.60624 11.4997 3.55358C11.5348 3.50093 11.5522 3.43828 11.5488 3.375C11.5521 3.30648 11.5311 3.23901 11.4896 3.18433C11.4482 3.12964 11.389 3.09117 11.3222 3.07558C11.2554 3.05999 11.1853 3.06827 11.1239 3.09898C11.0626 3.12971 11.0139 3.18091 10.9864 3.24375H5.2364V3.24999ZM13.2364 3.5625C13.2003 3.6169 13.1472 3.65773 13.0853 3.67857C13.0235 3.69939 12.9564 3.69904 12.8947 3.67755C12.8332 3.65604 12.7804 3.61464 12.745 3.55985C12.7095 3.50507 12.6933 3.44003 12.6989 3.375C12.6974 3.30704 12.7195 3.24068 12.7615 3.18718C12.8033 3.13369 12.8625 3.0964 12.9289 3.08166C12.9952 3.06692 13.0646 3.07564 13.1252 3.10633C13.1858 3.13703 13.234 3.1878 13.2614 3.24999H18.7176C18.9114 3.24999 19.1052 3.325 19.2488 3.44375C19.3926 3.56874 19.4989 3.74374 19.4989 3.94375V10.6688C19.4989 10.9001 19.6489 11.0625 19.8739 11.0625H20.0114C20.2551 11.0625 20.4364 10.875 20.4364 10.6688V9.50006C20.3783 9.50006 20.3214 9.48387 20.2722 9.45339C20.2227 9.42276 20.1828 9.37916 20.1569 9.32724C20.131 9.27533 20.1199 9.21728 20.1252 9.15939C20.1304 9.10164 20.1515 9.04637 20.1864 8.99999C20.2213 8.95362 20.2682 8.91774 20.3223 8.8966C20.3763 8.87531 20.4352 8.86962 20.4922 8.87997C20.5494 8.89047 20.6025 8.91643 20.6456 8.95537C20.6887 8.99416 20.7202 9.04433 20.7363 9.10003H20.7489V9.15005C20.7519 9.17485 20.7519 9.20008 20.7489 9.22501V10.6688C20.7489 11.0688 20.4114 11.375 20.0114 11.375H19.8739C19.4552 11.375 19.1864 11.05 19.1864 10.6688V3.94999C19.1864 3.85625 19.1364 3.7625 19.0489 3.68125C18.9563 3.60249 18.8392 3.5583 18.7176 3.55624H13.2302L13.2364 3.5625ZM19.5113 14.025C19.5113 13.9023 19.5601 13.7846 19.6468 13.698C19.7336 13.6112 19.8513 13.5625 19.9739 13.5625C20.0966 13.5625 20.2141 13.6112 20.3009 13.698C20.3877 13.7846 20.4364 13.9023 20.4364 14.025V15.8875C20.4364 16.1375 20.3114 16.3749 20.0989 16.5124L16.2989 19.0125C16.2559 18.9678 16.2006 18.9371 16.1401 18.9239C16.0796 18.9108 16.0166 18.9159 15.959 18.9387C15.9014 18.9614 15.8518 19.0008 15.8167 19.0518C15.7815 19.1027 15.7623 19.1631 15.7614 19.2249C15.7636 19.2963 15.79 19.3645 15.8363 19.4186C15.8827 19.4727 15.9462 19.5093 16.0162 19.5224C16.0862 19.5356 16.1586 19.5245 16.2213 19.4908C16.2842 19.4571 16.3335 19.403 16.3613 19.3375L20.2739 16.7749C20.5676 16.575 20.7489 16.2437 20.7489 15.8875V14.025C20.7489 13.8195 20.6672 13.6223 20.5218 13.4769C20.3766 13.3317 20.1794 13.25 19.9739 13.25C19.7683 13.25 19.5713 13.3317 19.4259 13.4769C19.2805 13.6223 19.1988 13.8195 19.1988 14.025V15.35C19.1988 15.525 19.1176 15.6937 18.9739 15.7938L17.6864 16.7312C17.6419 16.7128 17.5936 16.7055 17.5458 16.7102C17.498 16.7147 17.4519 16.731 17.4118 16.7576C17.3717 16.7841 17.3387 16.8202 17.3157 16.8624C17.2928 16.9046 17.2805 16.9518 17.2801 17C17.2801 17.1624 17.4176 17.2937 17.5801 17.2937C17.6203 17.2938 17.6601 17.2856 17.697 17.2698C17.7339 17.2539 17.7672 17.2305 17.7947 17.2012C17.8223 17.1719 17.8436 17.1372 17.8572 17.0994C17.8707 17.0617 17.8764 17.0214 17.8739 16.9813L19.1551 16.0437C19.3801 15.8875 19.5113 15.625 19.5113 15.35V14.025ZM4.03014 13.6C3.90584 13.6 3.7866 13.6494 3.69869 13.7372C3.61079 13.8252 3.56141 13.9445 3.56141 14.0687V15.5562C3.56097 15.7687 3.61469 15.9777 3.71749 16.1636C3.82029 16.3495 3.96876 16.5062 4.1489 16.6188L7.8489 18.925C7.89586 18.9102 7.94563 18.9067 7.9942 18.9149C8.04274 18.9229 8.0887 18.9425 8.12829 18.9718C8.16788 19.0009 8.20002 19.0391 8.22206 19.0832C8.24411 19.1271 8.25544 19.1758 8.25515 19.2249C8.25511 19.2687 8.2459 19.3119 8.22816 19.3517C8.21041 19.3916 8.18451 19.4274 8.1521 19.4565C8.1197 19.4858 8.08152 19.508 8.04005 19.5216C7.99856 19.5353 7.95467 19.5399 7.91125 19.5356C7.8678 19.5312 7.82576 19.5178 7.78784 19.4962C7.74991 19.4745 7.71694 19.4451 7.69104 19.41C7.66515 19.3749 7.64691 19.3346 7.63749 19.292C7.62808 19.2494 7.6277 19.2053 7.63639 19.1625L3.98639 16.8813C3.7611 16.7411 3.57516 16.546 3.44614 16.3143C3.31711 16.0824 3.24924 15.8215 3.2489 15.5562V14.0624C3.2489 13.8552 3.33121 13.6566 3.47773 13.51C3.62423 13.3636 3.82294 13.2812 4.03014 13.2812C4.23734 13.2812 4.43607 13.3636 4.58257 13.51C4.72909 13.6566 4.8114 13.8552 4.8114 14.0624V15.0624C4.8114 15.3749 4.96765 15.6688 5.23015 15.8438L6.19265 16.4812C6.23689 16.4564 6.28683 16.4435 6.33758 16.4436C6.38831 16.4438 6.43814 16.4572 6.4822 16.4823C6.52627 16.5075 6.56305 16.5437 6.58898 16.5873C6.61491 16.6309 6.62908 16.6804 6.63015 16.7312C6.63139 16.7703 6.62492 16.8091 6.61114 16.8455C6.59736 16.882 6.57652 16.9155 6.54982 16.944C6.52313 16.9724 6.49109 16.9953 6.45554 17.0113C6.42 17.0274 6.38163 17.0363 6.34265 17.0374C6.30367 17.0388 6.26482 17.0322 6.22833 17.0185C6.19183 17.0046 6.15842 16.9839 6.12998 16.9572C6.10154 16.9304 6.07865 16.8985 6.06258 16.8629C6.04652 16.8273 6.03763 16.7889 6.0364 16.75L5.05515 16.1C4.88484 15.987 4.745 15.8339 4.64798 15.6539C4.55096 15.4741 4.49976 15.2732 4.4989 15.0687V14.0624C4.4989 13.9382 4.44952 13.8189 4.36161 13.731C4.2737 13.6432 4.15447 13.5937 4.03014 13.5937V13.6ZM16.6052 17.6625L12.6239 20.2749C12.3364 20.4625 11.9677 20.4625 11.6801 20.2749L7.78014 17.7125C7.7359 17.7373 7.68596 17.7503 7.63523 17.7501C7.58448 17.7498 7.53465 17.7366 7.49059 17.7113C7.44653 17.6863 7.40974 17.6501 7.38383 17.6065C7.3579 17.5629 7.34371 17.5131 7.34264 17.4625C7.341 17.3838 7.37067 17.3075 7.42518 17.2508C7.47968 17.1939 7.55454 17.161 7.63327 17.1594C7.71201 17.1578 7.78818 17.1874 7.84502 17.2419C7.90187 17.2964 7.93474 17.3713 7.9364 17.45L11.8488 20.0124C12.0364 20.1374 12.2677 20.1374 12.4552 20.0124L16.4739 17.3874C16.4789 17.3096 16.5146 17.2368 16.5732 17.1853C16.6317 17.1337 16.7084 17.1074 16.7864 17.1125C16.8643 17.1175 16.9371 17.1532 16.9886 17.2117C17.0402 17.2703 17.0663 17.347 17.0613 17.4249C17.0616 17.4776 17.0476 17.5293 17.0211 17.5747C16.9946 17.62 16.9563 17.6575 16.9103 17.683C16.8643 17.7086 16.8123 17.7213 16.7598 17.7199C16.7071 17.7185 16.6559 17.703 16.6114 17.675L16.6052 17.6625ZM11.6677 21.8813L9.30521 20.3187C9.26014 20.3398 9.21056 20.3493 9.16098 20.346C9.11125 20.3428 9.06331 20.327 9.02147 20.3002C8.97962 20.2733 8.94528 20.2363 8.92165 20.1925C8.89803 20.1488 8.88589 20.0996 8.88639 20.0499C8.88639 19.8875 9.02389 19.7562 9.18635 19.7562C9.22602 19.7562 9.26525 19.7642 9.30171 19.7797C9.33831 19.7953 9.37127 19.818 9.39869 19.8466C9.4261 19.8752 9.44754 19.9092 9.46154 19.9462C9.47554 19.9833 9.48181 20.0229 9.48021 20.0625L11.8427 21.6249C11.9465 21.6917 12.0679 21.7261 12.1914 21.7238C12.3149 21.7216 12.4349 21.6828 12.5364 21.6125L14.7177 20.1125C14.7042 20.0505 14.7112 19.9858 14.7376 19.9281C14.764 19.8704 14.8084 19.8229 14.8641 19.7925C14.9198 19.762 14.9838 19.7505 15.0467 19.7596C15.1094 19.7686 15.1676 19.7978 15.2125 19.8427C15.2574 19.8875 15.2864 19.9456 15.2955 20.0085C15.3045 20.0712 15.293 20.1354 15.2626 20.1909C15.2323 20.2466 15.1846 20.2911 15.127 20.3175C15.0693 20.3439 15.0047 20.3509 14.9427 20.3375L12.7114 21.8688C12.5614 21.9749 12.3864 21.9937 12.2114 22C12.0238 22 11.8364 21.9875 11.6677 21.875V21.8813Z" fill="black"/>
<defs>
<linearGradient id="paint0_linear_364_1819" x1="4.98082" y1="4.81786" x2="20.7144" y2="8.21191" gradientUnits="userSpaceOnUse">
<stop stop-color="#2F6FAD"/>
<stop offset="1" stop-color="#4FABC0"/>
</linearGradient>
</defs>
</svg>
