<svg width="24" height="24" viewBox="0 0 24 24" fill="none" xmlns="http://www.w3.org/2000/svg">
<path d="M2.32104 8.98169L2.88469 14.909L5.93926 20.1455L7.83624 17.7999L5.3938 10.1696L2.32104 8.98169Z" fill="#46B5E0"/>
<path d="M21.6545 8.98169L21.0969 14.909L18.0424 20.1455L16.1211 17.7818L18.5878 10.1696L21.6545 8.98169Z" fill="#0196DA"/>
<path d="M16.0366 17.8787H8.04259L6.15771 20.2363L12.1033 21.9999L17.8609 20.2363L16.0366 17.8787Z" fill="#87C9EB"/>
<path d="M5.37574 9.93348L2.30298 8.82431L6.39999 4.33941L11.9152 2V5.33336L5.36968 9.93348H5.37574Z" fill="#E3F4FC"/>
<path d="M18.6242 9.93348L21.697 8.82431L17.5999 4.33941L12.0847 2V5.33336L18.6303 9.93348H18.6242Z" fill="#82CEF0"/>
<path fill-rule="evenodd" clip-rule="evenodd" d="M18.4604 10.2668L12.0118 5.63635L5.56323 10.2668L8.02386 17.7577H15.9997L18.4664 10.2668H18.4604ZM7.09052 13.9092L12.0118 17.5214L16.9331 13.9092L15.0542 8.06063H8.96933L7.09052 13.9092Z" fill="#B9E2FE"/>
</svg>
