<svg width="24" height="24" viewBox="0 0 24 24" fill="none" xmlns="http://www.w3.org/2000/svg">
<path d="M8.97628 18.8572L9.36971 17.79L8.73242 17.85L8.45171 18.5649C8.39042 18.7037 8.33042 18.8499 8.15171 18.8499L6.68942 18.8576L6.99371 18H5.37756C5.38485 17.895 8.47742 10.0899 8.59742 9.85717H11.2297C11.4697 9.87946 11.6047 10.065 11.5297 10.305L11.1624 11.25L9.57242 15.5023C11.7766 15.5023 13.8616 14.2093 14.8074 12.21C15.521 10.8622 15.716 8.57146 13.6147 8.57146H5.35742L6.44471 6.75774C6.49337 6.66085 6.56855 6.57977 6.66149 6.52393C6.75443 6.46809 6.86131 6.43979 6.96971 6.44232H11.3647L11.8606 5.1416H13.3006C13.3906 5.1566 13.4506 5.2316 13.436 5.32932L13.3983 5.44932L13.0747 6.30732L13.0297 6.43503H13.6297L13.6747 6.33732L14.096 5.2466C14.1333 5.1416 14.1333 5.1416 14.231 5.1416H15.5056C15.6783 5.1416 15.7456 5.23932 15.6783 5.4116L15.3324 6.34503L15.2797 6.47232L15.3924 6.49503C15.9774 6.57003 16.5547 6.69774 17.0947 6.94503C17.5074 7.13274 17.8824 7.37274 18.1897 7.71774C18.6097 8.18274 18.8197 8.73003 18.8497 9.35274C18.8874 9.95274 18.7747 10.5373 18.5724 11.1C18.1266 12.4252 17.4029 13.6399 16.4497 14.6627C15.05 16.1092 13.1934 16.9685 11.2597 17.445C11.1697 17.4677 11.1247 17.505 11.0947 17.595L10.7163 18.6099C10.6413 18.7976 10.5663 18.8572 10.379 18.8572H8.97628Z" fill="#006AD2"/>
</svg>
