<svg width="24" height="24" viewBox="0 0 24 24" fill="none" xmlns="http://www.w3.org/2000/svg">
<path d="M18.773 10.6277C18.6765 10.1502 18.5054 9.69082 18.266 9.26655C17.7735 8.42569 16.7 7.20212 15.3572 6.23869C15.3572 6.23869 14.3432 5.56584 13.8658 5.33655C12.1211 4.51069 10.1672 4.34269 8.49667 5.85641C5.69253 8.41069 4.29067 11.9734 5.69253 15.5207C5.72253 15.5978 6.49824 17.769 11.1517 19.2218C13.1947 19.2827 14.3878 19.1606 15.7005 18.3806C17.4157 17.3713 18.4151 15.5366 18.773 13.6706C18.8775 13.1048 18.8921 11.1934 18.773 10.6277Z" fill="#98F7D2"/>
<path d="M13.2474 5.62369V8.98541L9.65681 9.21427L8.24038 10.9024L7.68238 13.4773L9.1991 15.8807L11.1161 16.725H13.7197L15.851 16.3097V6.62141C15.851 6.62141 14.345 5.41284 13.3605 5.12269" fill="#AFF3F9"/>
<path d="M17.8481 14.0528C17.3115 14.0228 17.6098 13.1507 17.3711 12.1568C17.0874 11.0558 17.5052 10.2913 18.0568 10.3217C18.3169 10.3639 18.5627 10.469 18.773 10.6277C18.6765 10.1502 18.5054 9.69082 18.266 9.26655C17.7735 8.42569 16.7707 7.20212 15.4284 6.23869V15.3506C15.4284 15.7521 15.023 16.1743 14.648 16.2604C14.2327 16.3556 13.8037 16.1327 13.6275 15.7483C13.0973 16.0841 12.4858 16.2698 11.8584 16.2857C9.93024 16.3393 8.13924 14.9228 8.14224 12.8267C8.14524 10.7306 9.82653 9.14912 11.7538 9.14441C12.3804 9.14269 12.7434 9.23955 13.2851 9.56184V6.02184C13.2825 5.88469 13.3245 5.74841 13.3815 5.62369C13.438 5.49969 13.522 5.3902 13.6271 5.30355C11.882 4.47769 10.1672 4.34269 8.49667 5.85641C5.69253 8.41069 4.29067 11.9734 5.69253 15.5207C5.72253 15.5978 5.7521 15.6741 5.7821 15.735C5.82195 15.6493 5.87767 15.5713 5.94581 15.5057C6.67652 14.7411 7.48181 16.3011 9.19738 17.2028C10.286 17.769 10.913 18.519 11.1517 19.2218C12.7472 19.4211 14.3878 19.1606 15.7005 18.3806C17.4157 17.3713 18.4151 15.5366 18.773 13.6706C18.5178 13.9005 18.1912 14.0353 17.8481 14.0528ZM12.0032 6.80527C12.4061 6.78984 12.779 7.27927 12.7935 7.50855C12.8085 7.73784 12.4507 7.64612 12.0628 7.78369C11.63 7.9367 11.3171 7.79912 11.3021 7.56941C11.2871 7.34012 11.5841 6.82027 12.0032 6.80527Z" fill="#2F3D86"/>
<path d="M11.1332 13.9903C12.0011 14.4583 13.049 14.274 13.2431 13.2244C13.3481 12.6146 13.2881 11.6644 12.7194 11.3666C10.8337 10.3453 9.24753 12.9694 11.1332 13.9903Z" fill="#2F3D86"/>
</svg>
