<svg width="24" height="24" viewBox="0 0 24 24" fill="none" xmlns="http://www.w3.org/2000/svg">
<path fill-rule="evenodd" clip-rule="evenodd" d="M12.5275 5.14282H7.74031C7.56527 5.14561 7.3925 5.18286 7.23186 5.25243C7.07121 5.32201 6.92585 5.42255 6.80407 5.54831C6.68229 5.67407 6.58647 5.82259 6.5221 5.98539C6.45772 6.14819 6.42605 6.32207 6.42889 6.49711V17.5243C6.42773 17.8744 6.56485 18.2109 6.81043 18.4604C7.05601 18.71 7.39019 18.8526 7.74031 18.8571H12.5275C16.256 18.8571 19.286 15.7628 19.286 12C19.286 8.21568 16.2346 5.14282 12.5275 5.14282ZM12.4289 16.2857C13.5655 16.2857 14.6556 15.8342 15.4593 15.0304C16.2631 14.2267 16.7146 13.1366 16.7146 12C16.7146 10.8633 16.2631 9.77323 15.4593 8.96951C14.6556 8.16578 13.5655 7.71425 12.4289 7.71425C11.2922 7.71425 10.2022 8.16578 9.39843 8.96951C8.5947 9.77323 8.14317 10.8633 8.14317 12C8.14317 13.1366 8.5947 14.2267 9.39843 15.0304C10.2022 15.8342 11.2922 16.2857 12.4289 16.2857Z" fill="#131519"/>
<path d="M12.4289 14.1428C13.6203 14.1428 14.5717 13.2471 14.5717 12.12C14.5717 10.9971 13.526 10.3071 12.7203 9.54854C12.6426 9.47211 12.5379 9.42928 12.4289 9.42928C12.3199 9.42928 12.2152 9.47211 12.1375 9.54854C11.3317 10.3071 10.286 10.9714 10.286 12.12C10.286 13.2471 11.2589 14.1428 12.4289 14.1428Z" fill="#FF7A15"/>
</svg>
