<svg width="24" height="24" viewBox="0 0 24 24" fill="none" xmlns="http://www.w3.org/2000/svg">
<path d="M5.81184 7.66289L5.14327 8.80717C4.69205 9.5886 4.39919 10.4513 4.28142 11.3459C4.16365 12.2405 4.22328 13.1496 4.45689 14.0212C4.69051 14.8927 5.09353 15.7098 5.64296 16.4255C6.19238 17.1413 6.87743 17.7419 7.65898 18.1929L8.80327 18.8529C9.58469 19.3041 10.4474 19.597 11.342 19.7147C12.2366 19.8325 13.1457 19.7729 14.0173 19.5393C14.8888 19.3056 15.7058 18.9026 16.4216 18.3532C17.1374 17.8038 17.738 17.1187 18.189 16.3372L18.849 15.1929C19.3002 14.4115 19.5931 13.5488 19.7108 12.6542C19.8286 11.7595 19.769 10.8505 19.5354 9.9789C19.3017 9.10733 18.8987 8.29031 18.3493 7.57451C17.7999 6.85872 17.1148 6.25817 16.3333 5.80717L15.189 5.14717C14.4076 4.69595 13.5449 4.4031 12.6503 4.28533C11.7556 4.16756 10.8466 4.22718 9.975 4.4608C9.10342 4.69441 8.2864 5.09744 7.57061 5.64686C6.85481 6.19628 6.25427 6.88133 5.80327 7.66289H5.81184Z" fill="#FFE1A5"/>
<path d="M12.9733 4.75717H11.0276C10.2036 4.75661 9.38772 4.91854 8.62647 5.23371C7.86522 5.54887 7.17361 6.01108 6.59122 6.59387C6.00883 7.17666 5.54709 7.86859 5.23245 8.63005C4.9178 9.39151 4.75643 10.2076 4.75755 11.0315V12.9772C4.75755 16.44 7.56041 19.2429 11.0233 19.2429H12.969C16.4318 19.2429 19.2347 16.44 19.2347 12.9772V11.0315C19.2347 7.5686 16.4318 4.76574 12.969 4.76574L12.9733 4.75717Z" fill="#F69D88"/>
<path d="M12.0004 19.0972C13.8827 19.0972 15.6879 18.3494 17.0188 17.0185C18.3498 15.6875 19.0976 13.8823 19.0976 12C19.0976 10.1178 18.3498 8.31256 17.0188 6.98159C15.6879 5.65062 13.8827 4.90289 12.0004 4.90289C10.1181 4.90289 8.31294 5.65062 6.98197 6.98159C5.651 8.31256 4.90327 10.1178 4.90327 12C4.90327 13.8823 5.651 15.6875 6.98197 17.0185C8.31294 18.3494 10.1181 19.0972 12.0004 19.0972Z" fill="#2196F3"/>
<path d="M15.0004 6.85717L12.8147 10.5943L14.9618 11.8886L9.00041 17.1429L11.1604 13.3843L9.00041 12.1286L15.0004 6.85717Z" fill="#F0F3FA"/>
</svg>
