<svg width="24" height="24" viewBox="0 0 24 24" fill="none" xmlns="http://www.w3.org/2000/svg">
<path d="M7.32815 12.1501C6.71101 12.0729 6.4753 11.9015 6.43672 11.8286C6.38101 12.5101 6.6253 13.8686 8.0353 13.8686C9.44101 13.8686 9.84387 12.7286 9.86958 12.1544H9.95958C10.0882 12.3772 10.0753 12.6644 10.0496 12.7758C10.4403 12.8902 10.7845 13.1257 11.0325 13.4485C11.2806 13.7713 11.4196 14.1645 11.4296 14.5715H12.0724C12.0724 13.4144 11.6439 12.7501 11.4296 12.5744L11.4939 12.4544C11.8367 12.6376 12.1082 12.9303 12.2653 13.2858L12.381 13.3286C13.2724 13.7272 13.941 13.4444 14.1682 13.2515C14.0367 13.0337 13.9561 12.7891 13.9324 12.5358H14.1082C14.1167 12.5872 14.1939 12.7929 14.4424 13.2215C14.661 13.6029 15.0639 13.6801 15.4582 13.7572C15.6167 13.7872 15.7753 13.8172 15.9167 13.8644C16.311 14.0058 16.3282 14.3958 16.2896 14.5715H16.7139V14.2286C16.7139 13.8429 16.491 13.5129 16.2853 13.2129C16.1096 12.9558 15.9424 12.7201 15.9424 12.4844C15.9424 12.0686 16.1739 11.7601 16.2853 11.6572C16.1867 11.6272 16.1053 11.5115 16.0067 11.3701C15.861 11.1601 15.6767 10.8901 15.3082 10.7701C15.1292 10.7089 14.9395 10.6856 14.751 10.7015C14.5624 10.7058 14.2967 10.7144 13.7782 10.6586C13.2982 10.6029 13.0067 10.3586 12.6939 10.1015C12.3082 9.7715 11.8924 9.42864 11.0653 9.42864C9.87815 9.42864 9.47958 10.4272 9.42387 10.9286C9.29913 10.7283 9.10802 10.5782 8.88387 10.5044C8.88815 11.0358 8.76387 11.6872 8.24101 11.9058C7.81244 12.0858 7.45672 11.7858 7.32815 11.6144C7.16101 11.7944 7.25958 12.0429 7.32815 12.1501ZM10.5424 14.5715C10.6289 14.1778 10.6022 13.7677 10.4653 13.3886L10.5467 13.3458C11.0096 13.6972 11.0782 14.3229 11.0524 14.5715H10.5424ZM14.2924 13.4444C14.3739 13.5558 14.6353 13.8044 15.021 13.9072C14.9661 14.1546 14.8479 14.3834 14.6782 14.5715H14.0739C14.2282 14.4001 14.4639 13.9201 14.1939 13.5472L14.2924 13.4444Z" fill="url(#paint0_linear_101_7308)"/>
<path fill-rule="evenodd" clip-rule="evenodd" d="M11.9996 19.2858C13.9319 19.2858 15.785 18.5182 17.1514 17.1518C18.5177 15.7855 19.2853 13.9324 19.2853 12.0001C19.2853 10.0678 18.5177 8.21463 17.1514 6.84829C15.785 5.48196 13.9319 4.71436 11.9996 4.71436C10.0673 4.71436 8.21414 5.48196 6.8478 6.84829C5.48147 8.21463 4.71387 10.0678 4.71387 12.0001C4.71387 13.9324 5.48147 15.7855 6.8478 17.1518C8.21414 18.5182 10.0673 19.2858 11.9996 19.2858ZM11.9996 18.8572C13.8182 18.8572 15.5624 18.1348 16.8483 16.8488C18.1343 15.5628 18.8567 13.8187 18.8567 12.0001C18.8567 10.1814 18.1343 8.4373 16.8483 7.15134C15.5624 5.86537 13.8182 5.14293 11.9996 5.14293C10.181 5.14293 8.43681 5.86537 7.15085 7.15134C5.86489 8.4373 5.14244 10.1814 5.14244 12.0001C5.14244 13.8187 5.86489 15.5628 7.15085 16.8488C8.43681 18.1348 10.181 18.8572 11.9996 18.8572Z" fill="url(#paint1_linear_101_7308)"/>
<defs>
<linearGradient id="paint0_linear_101_7308" x1="5.41627" y1="18.0715" x2="20.0504" y2="14.9381" gradientUnits="userSpaceOnUse">
<stop stop-color="#FCDEA0"/>
<stop offset="0.5" stop-color="#ED5F5E"/>
<stop offset="0.88" stop-color="#67C9CB"/>
</linearGradient>
<linearGradient id="paint1_linear_101_7308" x1="16.8296" y1="7.42721" x2="6.17101" y2="15.8915" gradientUnits="userSpaceOnUse">
<stop stop-color="#6FC3CE"/>
<stop offset="1" stop-color="#F96962"/>
</linearGradient>
</defs>
</svg>
