<svg width="24" height="24" viewBox="0 0 24 24" fill="none" xmlns="http://www.w3.org/2000/svg">
<path d="M14.1426 9.88706L12.4283 10.8599V14.7985L5.14258 10.5256V12.3599C5.14258 12.8142 5.38258 13.2299 5.77258 13.4613L14.1426 18.4285V9.88706Z" fill="#99BCE3"/>
<path d="M12.4283 14.7985V12.6599L9.21401 10.7399L16.2854 6.46706L14.7597 5.70849C14.5707 5.61328 14.3611 5.5662 14.1495 5.57144C13.938 5.57667 13.7309 5.63405 13.5469 5.73849L5.14258 10.5256L12.4283 14.7985Z" fill="#5892CD"/>
<path d="M10.9283 11.8071L9.21401 10.7356L16.2854 6.47135V16.2685C16.2854 16.6885 16.0797 17.0828 15.7369 17.3185L14.1426 18.4285V9.88706L10.9283 11.8071Z" fill="#2A5789"/>
</svg>
