<svg width="24" height="24" viewBox="0 0 24 24" fill="none" xmlns="http://www.w3.org/2000/svg">
<path d="M21.3695 4.6375C21.2613 6.18872 19.232 8.53996 18.2707 9.65433L18.0801 9.87556C17.7733 10.2343 17.4826 10.6005 17.2264 10.925C16.767 11.5055 16.4151 11.9499 16.2658 11.9674C16.1908 11.9716 16.1157 11.9722 16.0408 11.9693C15.5358 11.963 14.432 11.9506 14.2101 12.5123C14.0757 12.8249 15.8726 12.7449 15.8726 12.7449C15.8726 12.7449 12.9677 16.8561 12.7889 16.8829C12.7451 16.8892 12.5882 16.8861 12.3576 16.8804C11.6552 16.8637 10.2683 16.8304 9.31209 17.0261C8.05206 17.2848 7.57831 17.9911 7.57831 17.9911C7.57831 17.9911 9.36576 18.1429 10.6257 18.2055C11.8777 18.2593 13.8082 18.2867 13.8082 18.2867C13.8082 18.2867 12.4227 19.028 10.224 18.9117C8.02519 18.7955 7.14894 18.6167 7.14894 18.6167C7.14894 18.6167 7.45332 19.4211 8.06144 19.8054C8.4308 20.0399 8.9533 20.2436 9.30145 20.3798C9.52515 20.4673 9.67638 20.5267 9.67011 20.5474C8.91639 20.5591 8.16909 20.4067 7.4802 20.1004C6.9402 19.8417 6.68021 19.4843 6.53207 19.2817C6.44458 19.1617 6.39708 19.0955 6.35395 19.1354C6.22896 19.2423 6.56833 20.0648 6.86333 20.3418C6.98583 20.4605 7.1877 20.6204 7.37457 20.7673C7.63582 20.9742 7.86832 21.1573 7.81081 21.1736C7.72145 21.2092 6.02334 20.5474 5.71021 20.163C5.55834 20.4848 3.95836 22.1654 3.89586 21.9867C3.86523 21.8992 4.1496 21.5417 4.45834 21.1536C4.78209 20.7473 5.13271 20.306 5.17397 20.1099C5.26334 19.7342 5.15584 19.1442 4.87022 19.1623C4.58398 19.1798 4.08335 20.2079 4.08335 20.2079C4.08335 20.2079 3.90461 19.8054 3.97649 19.3766C4.04773 18.9479 4.35148 18.6348 4.35148 18.6348C4.35148 18.6348 3.75274 17.9911 3.47586 17.7142C3.38285 17.6242 3.2874 17.5367 3.18961 17.4517C2.89711 17.1924 2.56775 16.8998 2.62712 16.7754C2.69837 16.6149 3.63648 17.1424 3.96711 17.3748C4.28898 17.5979 4.99522 18.2949 4.99522 18.2949C4.99522 18.2949 4.72647 17.428 4.52148 16.8473C4.44335 16.6274 4.34836 16.3973 4.26273 16.193C4.12335 15.8574 4.01273 15.5898 4.05648 15.5512C4.12836 15.4886 4.7446 16.3018 5.00397 16.7043C5.27271 17.106 5.69208 17.8842 5.69208 17.8842C5.69208 17.8842 5.62084 16.7937 5.71021 16.0874C5.79959 15.3724 6.10396 14.6574 6.24646 14.7024C6.31833 14.7293 6.35896 14.8879 6.42146 15.1343C6.48271 15.3762 6.56521 15.7017 6.7202 16.0699C7.0327 16.8024 7.2477 17.1424 7.38144 17.053C7.52458 16.9636 7.6502 16.0248 7.56894 14.6486C7.52 13.8431 7.45458 13.0385 7.37269 12.2356C7.37269 12.2356 8.21268 11.3418 8.26644 11.3855C8.30393 11.4099 8.31019 11.8131 8.31582 12.273C8.32082 12.6793 8.32643 13.1299 8.35582 13.4061C8.41831 13.9962 8.5883 14.568 8.66831 14.568C8.74956 14.5592 9.12456 13.9424 9.36576 12.468C9.61586 10.9931 9.72334 10.2512 9.72334 10.2512C9.72334 10.2512 11.3145 8.76745 11.3771 8.78495C11.4083 8.79433 11.4408 9.00745 11.477 9.25242C11.5127 9.48808 11.5521 9.75306 11.6002 9.89364C11.6896 10.1887 11.869 10.3224 11.869 10.3224C11.869 10.3224 12.2439 9.93812 12.3508 9.04433C12.382 8.78495 12.4052 8.57121 12.4239 8.39433C12.4701 7.96183 12.4927 7.74746 12.5564 7.61433C12.6458 7.40871 15.0058 5.5406 16.2751 4.57562C17.5439 3.61939 20.2613 1.94753 20.4488 2.00126C20.6364 2.06377 21.4857 2.96564 21.3695 4.6375ZM9.40149 16.0437C9.40149 16.0437 12.682 12.7724 14.1027 11.083C15.5333 9.39373 18.1426 5.61311 18.1426 5.61311C18.1426 5.61311 14.8538 9.22369 13.2269 11.1361C11.905 12.7317 10.6295 14.365 9.40207 16.0342L9.40149 16.0437Z" fill="#A1A1A1"/>
</svg>
