<svg width="24" height="24" viewBox="0 0 24 24" fill="none" xmlns="http://www.w3.org/2000/svg">
<path d="M7.15323 6.85693H16.2047L18.2494 10.9468L13.6118 17.5712H10.8175L6.18038 10.9468L7.79609 7.71408H15.5618L17.1775 10.9459L13.1845 16.7141H11.2457L7.2518 10.9459L8.43895 8.57122H14.9189L16.1061 10.9451L12.7559 15.8569H11.6725L8.32323 10.9451L9.08223 9.42836H14.2757L15.0334 10.9438L12.2147 15.1712L9.39595 10.9434L9.72466 10.2855H13.6324L13.9628 10.9468L12.2039 13.4595L10.7567 11.1426H12.4289V11.5712H11.5298L12.2245 12.6829L13.4657 10.9099L13.3679 10.7141H9.98995L9.89052 10.9129L12.2147 14.3998L14.5388 10.9134L14.0104 9.85693H9.34709L8.81995 10.9116L11.8988 15.4284H12.5297L15.6089 10.9116L14.6537 8.99979H8.70423L7.74852 10.9108L11.4698 16.2855H12.9595L16.6804 10.9108L15.2961 8.14265H8.0618L6.67795 10.9099L11.0404 17.1426H13.3889L17.7518 10.9099L15.9389 7.28551H7.41895L5.60566 10.9121L10.3997 17.9998H14.0297L18.8241 10.9121L16.9512 7.16722L17.3348 6.97522L19.3191 10.9446L14.2572 18.4284H10.1729L5.10938 10.9446L7.15323 6.85693Z" fill="url(#paint0_linear_59_65277)"/>
<defs>
<linearGradient id="paint0_linear_59_65277" x1="19.3191" y1="10.473" x2="6.41989" y2="18.3931" gradientUnits="userSpaceOnUse">
<stop stop-color="#3F59A1"/>
<stop offset="1" stop-color="#3B8DCE"/>
</linearGradient>
</defs>
</svg>
