<svg width="24" height="24" viewBox="0 0 24 24" fill="none" xmlns="http://www.w3.org/2000/svg">
<path d="M15.4003 21.4112C18.0414 21.4112 20.9001 18.8996 22 17.6468C20.8 17.9997 18.1061 18.7233 16.665 18.7233C14.865 18.7233 10.4653 16.7057 8.66541 16.7057C6.8655 16.7057 5.50088 17.6468 4.60092 17.3762C3.70097 17.1116 10.6653 5.27685 11.3359 5.27685C12.0005 5.27685 14.5004 10.9236 16.0004 13.0765C17.5002 15.2292 17.5002 15.7645 17.2003 15.7645C16.9003 15.7645 15.7003 15.494 15.1004 14.9587C14.5004 14.4175 12.1005 9.8472 11.2005 9.8472C10.4771 9.8472 8.49484 13.9705 7.60077 16.0351C8.60071 14.6882 10.7182 12 11.2005 12C11.8006 12 13.0005 14.9587 13.6004 16.2997C14.2004 17.6468 17.5002 17.6468 19.0002 17.3762C20.5 17.1116 19.6001 15.494 19.0002 14.6882C18.4001 13.8823 14.2004 6.35326 13.6004 5.27685C13.0005 4.20043 12.8358 2.58875 11.3359 2.58875C9.83587 2.58875 6.10084 7.96494 4.9009 10.6531C3.70097 13.347 1.3011 19.2585 2.19517 20.0643C3.10101 20.876 4.23624 19.3937 6.33613 19.3937C8.43602 19.3937 12.1005 21.4112 15.3944 21.4112H15.4003Z" fill="#FF5757"/>
</svg>
