<svg width="24" height="24" viewBox="0 0 24 24" fill="none" xmlns="http://www.w3.org/2000/svg">
<path d="M17.4554 17.4559C18.1719 16.7395 18.7402 15.8889 19.128 14.9528C19.5157 14.0167 19.7153 13.0134 19.7153 12.0002C19.7153 10.987 19.5157 9.98369 19.128 9.0476C18.7402 8.11151 18.1719 7.26095 17.4554 6.5445C16.739 5.82804 15.8884 5.25972 14.9523 4.87198C14.0162 4.48424 13.0129 4.28467 11.9997 4.28467C10.9865 4.28467 9.98321 4.48424 9.04711 4.87198C8.11102 5.25972 7.26047 5.82804 6.54401 6.5445C5.09707 7.99144 4.28418 9.95392 4.28418 12.0002C4.28418 14.0465 5.09707 16.009 6.54401 17.4559C7.99096 18.9029 9.95343 19.7158 11.9997 19.7158C14.046 19.7158 16.0085 18.9029 17.4554 17.4559ZM16.8212 7.17878C18.0999 8.45751 18.8182 10.1918 18.8182 12.0002C18.8182 13.8086 18.0999 15.5429 16.8212 16.8216C15.5464 18.111 13.8128 18.8429 11.9997 18.8574C10.1866 18.8429 8.4531 18.111 7.1783 16.8216C5.89958 15.5429 5.18121 13.8086 5.18121 12.0002C5.18121 10.1918 5.89958 8.45751 7.1783 7.17878C8.4531 5.88947 10.1866 5.15753 11.9997 5.14307C13.8128 5.15753 15.5464 5.88947 16.8212 7.17878ZM16.354 13.8002C16.6059 13.2258 16.7406 12.607 16.7502 11.9799C16.7599 11.3527 16.6444 10.73 16.4104 10.1481C16.1763 9.56625 15.8286 9.03691 15.3874 8.59111C14.9463 8.14531 14.4206 7.79203 13.8412 7.55194C13.2618 7.31185 12.6403 7.18979 12.0131 7.1929C11.3859 7.19602 10.7657 7.32424 10.1887 7.57007C9.61172 7.8159 9.08958 8.17439 8.65287 8.62454C8.21616 9.07469 7.87366 9.60746 7.64544 10.1916C7.19652 11.3407 7.21591 12.62 7.69946 13.7549C8.183 14.8899 9.09217 15.7901 10.2319 16.2623C11.3715 16.7346 12.6509 16.7413 13.7955 16.281C14.9401 15.8207 15.8586 14.93 16.354 13.8002ZM10.3454 11.5074C10.3797 10.4616 10.7012 9.09021 11.5154 8.37021C11.5412 8.34878 11.5712 8.35307 11.5712 8.38736V11.5031C11.5712 11.5288 11.5283 11.5674 11.5069 11.5674H10.3926C10.3626 11.5674 10.3497 11.5374 10.3497 11.5074H10.3454ZM12.4283 10.3502C12.4287 9.75164 12.4301 9.15307 12.4326 8.5545C12.4369 8.50736 12.4412 8.45164 12.4326 8.39593C12.4283 8.3445 12.4412 8.33593 12.4797 8.36593C13.3069 9.05164 13.5897 10.4445 13.6712 11.4859C13.6712 11.5202 13.6454 11.5674 13.6154 11.5674H12.5012C12.4712 11.5674 12.4283 11.5331 12.4283 11.5074V10.3502ZM9.40258 11.5716H8.26258C8.23687 11.5716 8.21544 11.5245 8.21972 11.4945C8.298 10.9074 8.51134 10.3464 8.843 9.85556C9.17465 9.36477 9.61558 8.95757 10.1312 8.66593C10.1569 8.65307 10.1612 8.66164 10.1483 8.68736C9.7167 9.57036 9.47438 10.5338 9.43687 11.5159C9.43687 11.5416 9.42401 11.5716 9.40258 11.5716ZM13.8897 8.68307C14.4021 8.97668 14.8397 9.38475 15.1683 9.87542C15.4969 10.3661 15.7076 10.9261 15.784 11.5116C15.784 11.5416 15.7712 11.5716 15.7412 11.5716H14.6183C14.5754 11.5716 14.5583 11.5331 14.554 11.4945C14.5225 10.5269 14.2889 9.57652 13.8683 8.7045C13.8512 8.67021 13.8597 8.66164 13.8897 8.68307ZM10.1012 15.3174C9.59227 15.0226 9.15771 14.6152 8.83082 14.1263C8.50393 13.6375 8.29342 13.0802 8.21544 12.4974C8.21115 12.4716 8.23258 12.4288 8.2583 12.4288H9.40258C9.4283 12.4288 9.44544 12.4674 9.44544 12.4888C9.47972 13.4745 9.70687 14.4045 10.1312 15.2874C10.1526 15.3302 10.144 15.3388 10.1012 15.3174ZM11.5712 12.5102V15.5831C11.5712 15.6516 11.5283 15.6602 11.4854 15.6131C10.6797 14.7988 10.4226 13.6374 10.3369 12.5145C10.3326 12.4716 10.354 12.4288 10.3969 12.4288H11.494C11.5283 12.4288 11.5712 12.4759 11.5712 12.5145V12.5102ZM12.4283 15.5959V12.4545C12.4283 12.4545 12.4326 12.4288 12.4412 12.4288H13.6154C13.6454 12.4288 13.6669 12.4674 13.6626 12.4931C13.6197 13.5645 13.3069 14.8374 12.5054 15.6216C12.4669 15.6602 12.4283 15.6516 12.4283 15.5959ZM13.8512 15.3131C14.314 14.5245 14.524 13.3674 14.5583 12.4802C14.5583 12.4545 14.5754 12.4288 14.6012 12.4288H15.7412C15.7669 12.4288 15.7883 12.4716 15.784 12.4931C15.6169 13.6716 14.9269 14.7474 13.8683 15.3345C13.8383 15.3474 13.834 15.3431 13.8512 15.3131Z" fill="#0000FF"/>
</svg>
