<svg width="24" height="24" viewBox="0 0 24 24" fill="none" xmlns="http://www.w3.org/2000/svg">
<path d="M9.67328 5.14307L11.5718 6.24021V17.2631L9.69899 18.8574L6.00042 16.4574V15.1159L4.28613 13.9674V9.38592L6.15899 8.55878L6.52756 6.78449L9.67328 5.14307ZM7.24756 7.31164L6.87042 9.12021L5.14328 9.90021V13.5431L6.85756 14.6874V16.0245L9.64328 17.7816L10.7147 16.8945V6.69449L9.65613 6.05164L7.24756 7.30735V7.31164ZM14.3276 5.14307L12.429 6.24021V17.2631L14.3018 18.8574L18.0004 16.4574V15.1159L19.7147 13.9674V9.38592L17.8418 8.55878L17.4733 6.78449L14.3276 5.14307ZM16.7533 7.31164L17.1304 9.12021L18.8576 9.90021V13.5431L17.1433 14.6874V16.0245L14.3704 17.8545L13.2861 16.8988V6.69878L14.3447 6.05592L16.7533 7.31164Z" fill="#CFEFFC"/>
</svg>
