<svg width="24" height="24" viewBox="0 0 24 24" fill="none" xmlns="http://www.w3.org/2000/svg">
<path d="M18.2499 12C18.2499 13.236 17.8834 14.4444 17.1967 15.4723C16.5098 16.5001 15.5338 17.3011 14.3918 17.7742C13.2497 18.2473 11.9931 18.371 10.7806 18.1299C9.56833 17.8887 8.45464 17.2934 7.58058 16.4194C6.7065 15.5453 6.11124 14.4317 5.87009 13.2193C5.62893 12.007 5.7527 10.7502 6.22575 9.60816C6.6988 8.46619 7.49988 7.49007 8.52768 6.80332C9.55549 6.11656 10.7639 5.74999 11.9999 5.74999V2.00002C10.0222 2.00002 8.08878 2.5865 6.44429 3.6853C4.79981 4.78413 3.51808 6.34591 2.76121 8.17315C2.00434 10.0005 1.8063 12.0111 2.19215 13.9509C2.578 15.8906 3.53041 17.6726 4.92893 19.071C6.32745 20.4695 8.10928 21.4219 10.0491 21.8078C11.9889 22.1937 13.9996 21.9957 15.8267 21.2388C17.654 20.4819 19.2159 19.2002 20.3146 17.5556C21.4135 15.9112 22 13.9778 22 12H18.2499ZM18.2499 7.625V12H13.8749V7.625H18.2499ZM18.2499 7.625V5.125H20.7499V7.625H18.2499Z" fill="#24ABCD"/>
</svg>
