<svg width="24" height="24" viewBox="0 0 24 24" fill="none" xmlns="http://www.w3.org/2000/svg">
<path fill-rule="evenodd" clip-rule="evenodd" d="M7.31594 6.85693L5.08737 9.89122L5.00165 10.0026C4.54308 10.6284 4.09308 11.2326 3.93022 12.0255C3.87451 12.3126 3.8488 12.6041 3.86165 12.8912C3.92165 14.6484 5.24165 16.2855 7.33308 16.2855C9.76308 16.2855 11.1217 14.0698 10.7017 12.0255C10.5388 11.2326 10.0931 10.6284 9.63022 10.0026L9.54451 9.89122L7.31594 6.85693ZM9.64737 10.4526C8.9188 9.3255 7.43165 7.45265 7.43165 7.45265C7.05605 8.26791 6.64128 9.06455 6.1888 9.83979C5.8288 10.4484 5.41737 10.9112 5.06165 11.3184C4.30308 12.1841 3.75022 12.8141 4.24308 14.0826C4.92022 15.8226 6.72451 16.4612 8.16023 15.7326C9.91737 14.8412 10.7317 12.1241 9.64737 10.4526Z" fill="#4393EA"/>
<path d="M12.0002 11.1426V11.5712H12.4288V14.5712H12.8574V13.0712H14.5717V14.5712H15.0002V11.1426H14.5717V12.6426H12.8574V11.1426H12.0002Z" fill="#4393EA"/>
<path fill-rule="evenodd" clip-rule="evenodd" d="M18.4288 14.5712C19.1402 14.5712 19.7145 13.7998 19.7145 12.8569C19.7145 11.9141 19.1402 11.1426 18.4288 11.1426C17.7174 11.1426 17.1431 11.9141 17.1431 12.8569C17.1431 13.7998 17.7174 14.5712 18.4288 14.5712ZM18.4288 14.1426C18.9002 14.1426 19.2859 13.5684 19.2859 12.8569C19.2859 12.1455 18.9002 11.5712 18.4288 11.5712C17.9574 11.5712 17.5717 12.1455 17.5717 12.8569C17.5717 13.5684 17.9574 14.1426 18.4288 14.1426Z" fill="#4393EA"/>
<path d="M15.6602 14.5712V14.4598L16.0717 14.0012L16.1917 13.8598C16.2217 13.8212 16.2474 13.7826 16.2602 13.7484C16.2764 13.7134 16.2852 13.6755 16.2859 13.6369C16.2859 13.5941 16.2731 13.5512 16.2517 13.5212C16.231 13.4879 16.2013 13.4611 16.1659 13.4441C16.1284 13.4266 16.0874 13.4178 16.0459 13.4184C15.9988 13.4184 15.9559 13.4312 15.9174 13.4484C15.8824 13.4683 15.8541 13.4982 15.8359 13.5341C15.8168 13.5741 15.8079 13.6183 15.8102 13.6626H15.6645C15.6645 13.5855 15.6817 13.5212 15.7159 13.4655C15.7487 13.4095 15.7961 13.3636 15.8531 13.3326C15.9138 13.3007 15.9816 13.2845 16.0502 13.2855C16.1231 13.2855 16.1874 13.3026 16.2431 13.3326C16.2988 13.3626 16.3459 13.4055 16.3759 13.4612C16.4102 13.5126 16.4274 13.5726 16.4274 13.6369C16.4272 13.6838 16.4185 13.7303 16.4017 13.7741C16.3845 13.8169 16.3588 13.8684 16.3159 13.9241C16.2731 13.9755 16.2174 14.0441 16.1445 14.1212L15.8659 14.4212V14.4341H16.4488V14.5712H15.6602Z" fill="#4393EA"/>
<path opacity="0.4" d="M9.64309 14.203L9.70309 13.6287C9.49588 14.0314 9.18207 14.3695 8.79588 14.606C8.40969 14.8426 7.96596 14.9686 7.51309 14.9702C5.68737 14.9873 4.81737 13.0673 5.74309 11.6359C6.30904 10.84 7.00439 10.1447 7.80023 9.57874L6.97309 8.3916C6.72644 8.88311 6.46344 9.36624 6.18452 9.84017C5.82452 10.4487 5.41737 10.9116 5.05737 11.3187C4.81737 11.593 4.5988 11.8416 4.42737 12.0945C4.19657 12.726 4.1302 13.4059 4.23452 14.0702L4.2388 14.083C4.91595 15.823 6.72452 16.4616 8.16023 15.733C8.79934 15.3881 9.31588 14.8536 9.6388 14.203H9.64309Z" fill="#4393EA"/>
</svg>
