<svg width="24" height="24" viewBox="0 0 24 24" fill="none" xmlns="http://www.w3.org/2000/svg">
<path d="M11.6226 19.6158C11.7375 19.6812 11.8675 19.7156 11.9997 19.7156C12.132 19.7156 12.2619 19.6812 12.3769 19.6158L18.4797 16.1316C18.5935 16.0659 18.6881 15.9716 18.7543 15.8581C18.8204 15.7446 18.8558 15.6158 18.8569 15.4844V8.51584C18.8563 8.38493 18.8212 8.25649 18.7549 8.14358C18.6887 8.03067 18.5937 7.93731 18.4797 7.87299L12.3769 4.38442C12.2619 4.31904 12.132 4.28467 11.9997 4.28467C11.8675 4.28467 11.7375 4.31904 11.6226 4.38442L5.51972 7.8687C5.40594 7.93439 5.3113 8.02865 5.24515 8.14215C5.179 8.25566 5.14364 8.38447 5.14258 8.51584V15.4844C5.14309 15.6153 5.17826 15.7438 5.2445 15.8567C5.31074 15.9696 5.4057 16.063 5.51972 16.1273L11.6226 19.6158ZM11.6569 6.00013C11.764 5.93927 11.8851 5.90727 12.0083 5.90727C12.1315 5.90727 12.2526 5.93927 12.3597 6.00013L17.224 8.68727C17.3354 8.75156 17.4212 8.83727 17.4811 8.94442C17.5454 9.05156 17.5669 9.17156 17.5669 9.29156V14.683C17.5666 14.8052 17.534 14.9251 17.4723 15.0305C17.4105 15.1359 17.3219 15.223 17.2154 15.283L12.3426 18.0001C12.2355 18.061 12.1144 18.093 11.9911 18.093C11.8679 18.093 11.7468 18.061 11.6397 18.0001L6.77972 15.313C6.67313 15.2525 6.58471 15.1645 6.52366 15.0582C6.46261 14.952 6.43116 14.8313 6.43258 14.7087V9.31727C6.4341 9.19486 6.46776 9.075 6.53019 8.9697C6.59262 8.8644 6.68163 8.77735 6.78829 8.71727L11.6611 6.00013H11.6569ZM11.6226 16.1873C11.7297 16.2481 11.8508 16.2801 11.974 16.2801C12.0972 16.2801 12.2183 16.2481 12.3254 16.1873L15.4969 14.3873C15.6028 14.3292 15.6917 14.2445 15.7548 14.1415C15.8179 14.0385 15.8531 13.9209 15.8569 13.8001V10.2001C15.8572 10.0784 15.8248 9.95885 15.7629 9.85402C15.7011 9.74919 15.6121 9.66296 15.5054 9.60442L14.5711 8.98727V13.5001L12.8569 14.4387V12.4244L11.1426 12.8101V15.9387L11.6269 16.1958L11.6226 16.1873ZM8.45115 14.3873L9.42829 15.0087V10.393L11.1426 9.45013V11.2201L12.8569 10.8558V8.04442L12.3297 7.8087C12.2226 7.74784 12.1015 7.71584 11.9783 7.71584C11.8551 7.71584 11.734 7.74784 11.6269 7.8087L8.45544 9.6087C8.34401 9.6687 8.25829 9.75442 8.19829 9.85727C8.14258 9.95156 8.14258 10.0544 8.14258 10.1573V13.843C8.14258 13.9458 8.14258 14.0487 8.19401 14.143C8.25829 14.2458 8.34401 14.3358 8.45115 14.3958V14.3873Z" fill="url(#paint0_linear_59_65984)"/>
<defs>
<linearGradient id="paint0_linear_59_65984" x1="11.9911" y1="4.36299" x2="11.9911" y2="19.6287" gradientUnits="userSpaceOnUse">
<stop stop-color="#F7F5F6"/>
<stop offset="0.88" stop-color="#A69696"/>
</linearGradient>
</defs>
</svg>
