<svg width="24" height="24" viewBox="0 0 24 24" fill="none" xmlns="http://www.w3.org/2000/svg">
<path d="M16.6154 6.36022C17.4586 7.05373 18.1361 7.92709 18.598 8.91633C19.06 9.90556 19.2949 10.9856 19.2854 12.0774L19.2168 12.9045C19.0037 14.6192 18.188 16.2024 16.9154 17.3713C15.6429 18.5402 13.9963 19.2188 12.2697 19.2859C10.8133 19.3274 9.37716 18.9375 8.14182 18.165C6.90648 17.3925 5.9271 16.2721 5.32682 14.9445C4.86471 13.894 4.65683 12.7493 4.72008 11.6034C4.78332 10.4575 5.1159 9.34268 5.69082 8.34941C6.26573 7.35615 7.06678 6.51246 8.02892 5.88685C8.99105 5.26123 10.0872 4.87133 11.2283 4.74879C13.2554 4.56879 15.0511 5.1045 16.6197 6.36022H16.6154ZM5.60111 12.0774C5.60111 12.5059 5.64397 12.9345 5.73397 13.3674C6.06252 14.7985 6.86645 16.0759 8.01453 16.9913C9.16262 17.9066 10.5871 18.4058 12.0554 18.4074C13.7238 18.3704 15.3138 17.692 16.495 16.5131C17.6763 15.3343 18.3579 13.7457 18.3983 12.0774C18.4008 10.3771 17.735 8.74403 16.5444 7.53022C15.3538 6.31641 13.7339 5.61915 12.034 5.58879C8.51968 5.56307 5.56254 8.54593 5.59682 12.0774H5.60111ZM12.7925 8.7945C12.8954 8.86307 12.994 8.94022 13.0797 9.03022L14.974 10.9802L14.9825 10.9888C15.1648 11.1515 15.3159 11.3461 15.4283 11.5631L15.424 11.5674H14.4125C14.4046 11.5677 14.3966 11.5664 14.3892 11.5634C14.3819 11.5605 14.3752 11.556 14.3697 11.5502L14.2111 11.3831L13.1397 10.2774C12.9983 10.1402 12.8611 9.9945 12.7197 9.84879C12.4111 9.52736 12.1625 9.29164 11.7468 9.47164C11.644 9.5145 11.5283 9.6045 11.3911 9.74593L9.64682 11.5459C9.64132 11.5517 9.63465 11.5562 9.62725 11.5591C9.61986 11.5621 9.61192 11.5634 9.60397 11.5631L9.46254 11.5716H8.60539L8.58825 11.5674C8.58475 11.5652 8.58181 11.5623 8.57968 11.5588C8.57705 11.5542 8.57566 11.5491 8.57566 11.5438C8.57566 11.5385 8.57705 11.5333 8.57968 11.5288C8.63978 11.4275 8.71015 11.3328 8.78968 11.2459C9.42397 10.5774 10.0625 9.91307 10.7097 9.24879C10.9497 9.0045 11.1297 8.84164 11.254 8.77736C11.4889 8.64108 11.7562 8.57074 12.0278 8.57376C12.2993 8.57677 12.565 8.65304 12.7968 8.7945H12.7925ZM9.57825 12.4288H8.59254C8.58921 12.4288 8.58593 12.4296 8.58295 12.431C8.57998 12.4325 8.57739 12.4347 8.57539 12.4374C8.57351 12.4406 8.57252 12.4443 8.57252 12.4481C8.57252 12.4518 8.57351 12.4555 8.57539 12.4588C8.69111 12.6859 8.88397 12.8788 9.05968 13.0588L9.08539 13.0802L10.6411 14.6831C10.8335 14.8971 11.0524 15.0858 11.2925 15.2445C11.7211 15.4845 12.1925 15.4888 12.7025 15.2616C12.844 15.1759 12.9597 15.0945 13.0368 15.0131C13.7579 14.2712 14.4779 13.5284 15.1968 12.7845C15.2889 12.6858 15.3668 12.5747 15.4283 12.4545C15.4281 12.4501 15.4269 12.4459 15.4246 12.4421C15.4224 12.4384 15.4192 12.4353 15.4154 12.4331H14.4254C14.4095 12.4323 14.3936 12.435 14.3788 12.4409C14.364 12.4468 14.3507 12.4559 14.3397 12.4674L12.9383 13.9116L12.8525 14.0059C12.6811 14.1988 12.4668 14.4431 12.274 14.5245C11.9954 14.6445 11.704 14.5674 11.4854 14.3488L10.8725 13.7145L9.65539 12.4588C9.64488 12.4478 9.63223 12.4391 9.61822 12.4332C9.60422 12.4273 9.58916 12.4244 9.57397 12.4245L9.57825 12.4288Z" fill="url(#paint0_linear_59_66157)"/>
<defs>
<linearGradient id="paint0_linear_59_66157" x1="4.70898" y1="7.23408" x2="15.7669" y2="19.2909" gradientUnits="userSpaceOnUse">
<stop stop-color="#4A5DCD"/>
<stop offset="0.11" stop-color="#4A53C4"/>
<stop offset="0.47" stop-color="#3D065D"/>
<stop offset="1" stop-color="#C772AD"/>
</linearGradient>
</defs>
</svg>
