<svg width="24" height="24" viewBox="0 0 24 24" fill="none" xmlns="http://www.w3.org/2000/svg">
<path d="M12.4434 2.00043C15.8807 2.00043 18.6931 4.23781 19.6743 5.35652L18.7368 6.37522L18.6681 6.30646C16.3495 4.19406 15.2432 3.19412 11.8435 2.78789C9.09361 2.45664 6.2187 4.17532 5.125 5.08152C5.47498 4.53155 8.14985 2.00043 12.4434 2.00043Z" fill="#02FD05"/>
<path d="M12.0255 21.9995C8.53185 21.9995 5.66949 19.787 4.67578 18.6871L5.62574 17.6746C8.03187 19.8058 9.13813 20.8183 12.638 21.2244C15.4316 21.5495 18.3876 19.8496 19.5001 18.9558C19.1439 19.4996 16.3877 21.9995 12.0255 21.9995Z" fill="#FF00C8"/>
<path d="M8.52468 12.1562L5.71232 7.44388L5.42483 8.14384L8.03721 12.1562L2 21.9995L8.52468 12.1562Z" fill="#02FD05"/>
<path d="M12.7307 9.09393L15.7493 6.37524L12.1807 10.375L10.7308 8.25015H8.60593L10.8746 11.9499L2 21.9996L9.6247 11.9499L6.67477 7.00021H11.387L12.7369 9.09393H12.7307Z" fill="#02FD05"/>
<path d="M15.5361 12.4562L21.9984 2.6254L15.8861 12.4562L18.636 16.731L18.436 17.4935L15.5361 12.4562Z" fill="#FF00C8"/>
<path d="M13.2564 12.5L21.9999 2.6254L14.469 12.5L17.5188 17.6247H12.8315L11.4941 15.5873L8.25049 18.2496L11.9253 14.0686L13.5315 16.3747H15.6627L13.2564 12.5Z" fill="#FF00C8"/>
</svg>
