<svg width="24" height="24" viewBox="0 0 24 24" fill="none" xmlns="http://www.w3.org/2000/svg">
<path d="M11.0021 2C7.34582 2.31249 4.75208 4.82499 3.90209 6.04998L5.33334 5.92499C6.68705 4.38203 8.54172 3.36615 10.5708 3.05624L11.0083 2H11.0021ZM11.0021 22C7.34582 21.6875 4.67083 19.1812 3.87708 17.8438L5.03959 17.7186C6.55833 19.6687 9.15203 20.7811 10.1896 20.8625L11.0021 22ZM13.0146 2C16.6395 2.24999 19.1707 4.78124 20.1208 6.11873L18.9457 6.28123C17.1957 4.11873 14.927 3.24999 13.8209 3.1375L13.0146 2ZM13.0146 22C16.6395 21.7499 19.1707 19.2187 20.1208 17.8812L18.727 17.9999C17.371 19.563 15.5079 20.5985 13.4646 20.9249L13.0146 22ZM2.87709 16.1312C1.2896 12.4875 2.21459 9.07496 2.87709 7.83123L3.57709 8.74998C2.87267 10.7198 2.82881 12.8655 3.45208 14.8625L2.87709 16.1312ZM21.1271 16.1312C22.7208 12.4875 21.7708 9.10619 21.1083 7.85622L20.5583 9.13127C21.452 11.525 20.7708 14.1937 20.4146 15.1937L21.1332 16.1312H21.1271Z" fill="url(#paint0_linear_364_3511)"/>
<path fill-rule="evenodd" clip-rule="evenodd" d="M11.9578 2.0686L10.1329 6.22484L3.46411 7.01859L6.17036 10.7998L3.46411 17.0123L8.04535 16.4873L12.0579 21.9123L13.8891 17.6748L20.5828 16.9123L17.8328 13.181L20.5203 7.01234L15.9579 7.48734L11.9578 2.0686ZM12.196 4.16211L10.6335 7.68709C10.6086 7.74334 10.546 7.91834 10.546 8.15584L14.3273 7.76833L12.6148 11.9058L14.2022 14.0621L15.6836 10.7933C15.817 10.4516 15.8696 10.0837 15.8371 9.71819C15.8046 9.35274 15.6878 8.99984 15.496 8.6871C15.0159 7.9467 13.3475 5.70744 12.4079 4.44641L12.196 4.16211ZM16.6084 8.48709L18.8147 8.23084H18.821L17.1085 12.2246C17.021 12.112 16.7585 11.8371 16.4397 11.6496C16.7336 11.237 17.1711 10.012 16.6084 8.48709ZM9.63981 7.36834L5.32729 7.85583L6.70227 9.73088C7.0193 9.28609 7.4372 8.92281 7.92173 8.67076C8.40625 8.41872 8.94362 8.28509 9.48975 8.28083C9.48975 7.79959 9.58979 7.46834 9.63981 7.36834ZM12.6648 8.99334L8.95852 9.40582C8.61322 9.46299 8.28771 9.60561 8.01154 9.82071C7.73539 10.0357 7.51736 10.3164 7.37727 10.6371C6.97103 11.5433 5.72103 14.4308 5.14603 15.7621L8.60227 15.3809C8.77727 15.3558 9.19604 15.2808 9.42733 15.1683L7.17728 12.0746L11.6148 11.5058L12.6648 8.99334ZM11.7398 12.5621L9.096 12.9058C9.80446 13.8878 10.517 14.8671 11.2335 15.8433C11.8897 16.7309 13.046 16.7183 13.6397 16.6558L18.6586 16.0495L16.4835 13.1059C16.2961 12.8558 16.0773 12.6933 15.9959 12.6433L14.4647 16.1121L11.7398 12.5621ZM9.27727 16.3495C9.54167 16.277 9.79892 16.1808 10.046 16.0621V16.0683C10.3442 16.5242 10.7368 16.9107 11.1972 17.2019C11.6576 17.493 12.1751 17.6818 12.7147 17.7558L11.8397 19.8183L9.27727 16.3495Z" fill="url(#paint1_linear_364_3511)"/>
<defs>
<linearGradient id="paint0_linear_364_3511" x1="3.88235" y1="17.8678" x2="19.8107" y2="8.51453" gradientUnits="userSpaceOnUse">
<stop stop-color="#1190D4"/>
<stop offset="0.34" stop-color="#5060AE"/>
<stop offset="0.69" stop-color="#AC4179"/>
<stop offset="1" stop-color="#E0375C"/>
</linearGradient>
<linearGradient id="paint1_linear_364_3511" x1="3.88217" y1="17.8678" x2="19.8105" y2="8.51448" gradientUnits="userSpaceOnUse">
<stop stop-color="#1190D4"/>
<stop offset="0.34" stop-color="#5060AE"/>
<stop offset="0.69" stop-color="#AC4179"/>
<stop offset="1" stop-color="#E0375C"/>
</linearGradient>
</defs>
</svg>
