<svg width="24" height="24" viewBox="0 0 24 24" fill="none" xmlns="http://www.w3.org/2000/svg">
<path d="M2.12695 10.5483H13.3754V10.2787H2.18481C2.16436 10.3682 2.14506 10.4581 2.12695 10.5483Z" fill="#2B2A29"/>
<path d="M2.41992 9.42109H15.7829V8.90042H2.60212C2.53683 9.07225 2.47607 9.24587 2.41992 9.42109Z" fill="#2B2A29"/>
<path d="M2.89307 8.20823H15.7881V7.68143H3.15637C3.06363 7.85457 2.97582 8.03025 2.89307 8.20823Z" fill="#2B2A29"/>
<path d="M3.77881 6.66457H19.2309V6.14391H4.16439C4.03027 6.31371 3.90169 6.48737 3.77881 6.66457Z" fill="#2B2A29"/>
<path d="M4.76221 5.4517H9.41143V4.9249H5.2965C5.21817 4.99675 5.14085 5.0699 5.06454 5.14432C4.96145 5.24489 4.86066 5.34737 4.76221 5.4517Z" fill="#2B2A29"/>
<path d="M5.48242 4.75951H13.719V4.41647H5.89574C5.75532 4.52702 5.61749 4.64139 5.48242 4.75951Z" fill="#2B2A29"/>
<path d="M4.95306 4.41647C4.88667 4.47633 4.82092 4.53706 4.75586 4.59865V4.41647H4.95306Z" fill="#2B2A29"/>
<path d="M7.5127 3.36964V3.38739H10.9614V2.69519H9.11718C8.56461 2.87481 8.02788 3.1004 7.5127 3.36964Z" fill="#2B2A29"/>
<path d="M15.5559 2.69519H11.6543V3.38739H17.1674V3.37327C16.65 3.10243 16.111 2.87561 15.5559 2.69519Z" fill="#2B2A29"/>
<path d="M22.0001 16.4779H2.67188C2.70899 16.5704 2.74741 16.6623 2.78713 16.7535H9.58284V17.17H18.5446V16.7535H21.8848C21.9245 16.6623 21.963 16.5704 22.0001 16.4779Z" fill="#2B2A29"/>
<path d="M6.62215 21.3048H11.6532V20.6126H5.68604C5.98508 20.8607 6.29762 21.0918 6.62215 21.3048Z" fill="#2B2A29"/>
<path d="M4.54665 19.51H9.58303V19.9265H15.7884V19.2343H4.31055C4.3876 19.3275 4.46631 19.4194 4.54665 19.51Z" fill="#2B2A29"/>
<path d="M3.51397 18.1317H10.9183V17.856H3.38379V17.9185C3.42633 17.9901 3.46973 18.0611 3.51397 18.1317Z" fill="#2B2A29"/>
<path d="M2.0826 14.4135H14.4046V13.7213H2.00635V13.9117C2.02769 14.0795 2.05311 14.2469 2.0826 14.4135Z" fill="#2B2A29"/>
<path d="M4.42571 4.9249C4.42149 4.92923 4.41729 4.93357 4.41309 4.93792V4.9249H4.42571Z" fill="#2B2A29"/>
<path d="M14.9369 5.00452V5.45169H10.269V5.00452H14.9369Z" fill="#2B2A29"/>
<path d="M2.00635 11.657H13.0325V11.9265H2.00635V11.657Z" fill="#2B2A29"/>
<path d="M15.0966 12.343V13.0353H2V12.343H15.0966Z" fill="#2B2A29"/>
<path d="M2.34863 15.0996H9.58294V15.3752H2.34863V15.0996Z" fill="#2B2A29"/>
<path d="M10.2749 15.0996H14.4098V15.7918H10.2749V15.0996Z" fill="#2B2A29"/>
<path d="M17.8533 17.856V18.5482H11.6479V17.856H17.8533Z" fill="#2B2A29"/>
</svg>
