<svg width="24" height="24" viewBox="0 0 24 24" fill="none" xmlns="http://www.w3.org/2000/svg">
<path d="M4.28613 6.85693H6.00042V11.9569L8.32328 9.42836H10.2861L7.5347 12.4284L10.2861 15.4284H8.32328L6.00042 12.8955V15.4284H4.28613V6.85693Z" fill="#621EFD"/>
<path d="M19.2861 15.8569C19.9962 15.8569 20.5718 15.2813 20.5718 14.5712C20.5718 13.8611 19.9962 13.2855 19.2861 13.2855C18.5761 13.2855 18.0004 13.8611 18.0004 14.5712C18.0004 15.2813 18.5761 15.8569 19.2861 15.8569Z" fill="#621EFD"/>
<path fill-rule="evenodd" clip-rule="evenodd" d="M17.1433 15.8569V12.6426C17.1433 11.5712 16.5261 9.42836 14.0576 9.42836C11.3018 9.42836 10.7147 11.8669 10.7147 12.6426C10.7147 13.5684 11.229 15.8569 13.6161 15.8569C15.0133 15.8569 15.3904 14.8241 15.429 14.6741V15.8569H17.1433ZM13.929 14.1426C14.3268 14.1426 14.7083 13.9846 14.9896 13.7033C15.271 13.422 15.429 13.0405 15.429 12.6426C15.429 12.2448 15.271 11.8633 14.9896 11.582C14.7083 11.3007 14.3268 11.1426 13.929 11.1426C13.5312 11.1426 13.1496 11.3007 12.8683 11.582C12.587 11.8633 12.429 12.2448 12.429 12.6426C12.429 13.0405 12.587 13.422 12.8683 13.7033C13.1496 13.9846 13.5312 14.1426 13.929 14.1426Z" fill="#621EFD"/>
</svg>
