<svg width="24" height="24" viewBox="0 0 24 24" fill="none" xmlns="http://www.w3.org/2000/svg">
<path d="M5.34408 16.367C4.77408 15.3899 4.8255 14.4041 5.02693 13.3884C5.1255 12.9041 5.14265 12.3727 5.22408 11.8541C5.2455 11.7084 5.2455 11.567 5.2155 11.4256C5.0655 10.7313 4.95836 10.0284 4.89836 9.32557C4.87693 9.107 4.84265 8.88843 4.79979 8.66129C4.67122 8.01843 4.72265 7.39272 4.73122 6.74986C4.73979 6.34272 5.10836 5.96986 5.48122 5.84986C6.16693 5.63557 7.6455 6.48415 8.25408 6.81843C8.28158 6.83339 8.31226 6.84158 8.34356 6.84232C8.37486 6.84307 8.40589 6.83635 8.43408 6.82272C9.48296 6.33394 10.6212 6.06612 11.778 6.03589C12.9347 6.00566 14.0854 6.21368 15.1584 6.647C15.3298 6.71557 15.4155 6.66843 15.5569 6.57843C16.1325 6.21807 16.7518 5.9329 17.3998 5.72986C17.6998 5.62272 17.9269 5.57129 18.0855 5.57129C18.5955 5.57129 19.1569 5.88843 19.2726 6.42415C19.3241 6.677 19.1998 6.98986 19.2212 7.28986C19.2341 7.49557 19.2384 7.64129 19.2341 7.71843C19.1655 8.64843 19.0284 9.56986 18.9255 10.4956C18.8998 10.7656 18.8612 11.0313 18.8098 11.2927C18.7326 11.6999 18.8955 12.0941 18.9169 12.4927C18.9255 12.6899 18.9169 12.8699 18.9684 13.0584C19.1655 13.7956 19.3498 14.6656 19.0969 15.407C18.7943 16.3358 18.1735 17.1281 17.3441 17.6441C16.1919 18.3776 14.9128 18.8893 13.5726 19.1527C13.0412 19.2556 12.2184 19.3199 11.5626 19.2684C11.1984 19.2384 10.8426 19.2341 10.4912 19.1656C9.50745 19.0073 8.54907 18.7191 7.64122 18.3084C7.42693 18.2056 7.07979 17.9999 6.59122 17.687C6.07595 17.353 5.64827 16.9004 5.34408 16.367Z" fill="white"/>
<path d="M18.8355 6.11557C18.8226 6.17129 18.7584 6.19272 18.6384 6.17986C18.6244 6.17841 18.6103 6.17996 18.597 6.18439C18.5837 6.18883 18.5715 6.19605 18.5612 6.20557C18.3555 6.38129 18.2312 6.38557 18.0084 6.42843C17.9184 6.44986 17.8241 6.48415 17.7255 6.53557C17.4641 6.67272 17.2198 6.73272 16.9584 6.827C16.4012 7.02843 15.9084 7.56843 15.5741 8.07415L14.6955 7.61129C14.6226 7.57272 14.6141 7.52557 14.6655 7.46129C14.8498 7.247 15.0812 7.14415 15.3084 6.97272C16.3541 6.38557 17.0055 6.02557 17.9355 5.85843C18.2484 5.80272 18.5441 5.88843 18.8355 6.11557Z" fill="#B97332"/>
<path d="M15.3041 6.97272C15.0812 7.14415 14.8498 7.25129 14.6655 7.46129C14.6141 7.52557 14.6226 7.577 14.6955 7.61129L15.5741 8.07415C15.6255 8.16843 15.6812 8.22843 15.7369 8.24986L16.3798 8.96129L16.2426 8.92272C16.2169 8.91843 16.2041 8.90129 16.2084 8.87986C16.2084 8.86272 16.2084 8.84986 16.1955 8.837C16.1636 8.79634 16.1178 8.76888 16.0669 8.75986L15.7798 8.70843C15.7607 8.70451 15.743 8.69564 15.7284 8.68272C15.6897 8.65122 15.6411 8.6345 15.5912 8.63557C15.5655 8.635 15.5403 8.6276 15.5184 8.61415C15.4112 8.55415 15.3341 8.57986 15.2912 8.69129C15.1798 8.987 15.1669 9.32129 15.2569 9.70272C15.2655 9.73272 15.2569 9.76272 15.2484 9.78843C15.2226 9.83557 15.2055 9.887 15.2055 9.94272C15.2044 9.95841 15.1991 9.97351 15.19 9.98636C15.1809 9.99921 15.1685 10.0093 15.1541 10.0156L14.9055 10.1527C14.8798 10.1656 14.8626 10.1613 14.8455 10.1356C14.8126 10.0866 14.7721 10.0432 14.7255 10.007C14.6141 9.92129 14.4126 9.917 14.2669 9.83557C14.2444 9.82333 14.2252 9.80566 14.2112 9.78415L13.9455 9.36843C13.9026 9.30415 13.8598 9.30415 13.8255 9.377L13.8041 9.42843C13.7784 9.47986 13.7912 9.527 13.8341 9.56129C13.9284 9.63843 13.9798 9.74557 13.9969 9.86986C13.9969 9.89986 13.9884 9.91272 13.9584 9.90843C13.9112 9.89557 13.8726 9.90843 13.8426 9.94272C13.8347 9.95202 13.8248 9.95951 13.8138 9.96468C13.8027 9.96985 13.7906 9.9726 13.7784 9.97272L13.2598 9.96843C13.2161 9.9675 13.1733 9.98022 13.1371 10.0048C13.101 10.0294 13.0735 10.0646 13.0584 10.1056C13.0483 10.133 13.0439 10.1621 13.0455 10.1913C13.0669 10.547 12.9726 10.8684 12.9426 11.2327C12.9298 11.3913 12.8398 11.657 12.7541 11.7899C12.5441 12.1241 12.4026 12.407 12.0984 12.6813C12.0808 12.6976 12.0601 12.7102 12.0375 12.7184C12.015 12.7266 11.991 12.7302 11.9671 12.729C11.9431 12.7278 11.9197 12.7218 11.898 12.7114C11.8764 12.701 11.8571 12.6864 11.8412 12.6684C11.7737 12.5882 11.6906 12.5226 11.5969 12.4756C11.5851 12.4701 11.5745 12.4624 11.5656 12.4529C11.5568 12.4433 11.55 12.4321 11.5455 12.4199C11.5026 12.3127 11.3998 12.2313 11.3784 12.1413C11.3718 12.1184 11.3711 12.0942 11.3763 12.071C11.3816 12.0478 11.3926 12.0263 11.4084 12.0084C11.4193 11.9972 11.4277 11.9837 11.4329 11.9689C11.4381 11.9541 11.4399 11.9383 11.4384 11.9227C11.4358 11.9069 11.4299 11.8919 11.4211 11.8785C11.4122 11.8652 11.4005 11.854 11.3869 11.8456C11.2584 11.7599 11.1641 11.6441 11.1598 11.4727C11.1598 11.3013 11.1941 11.1727 11.2712 11.087C11.3226 11.0699 11.3441 11.0313 11.3312 10.9713C11.3144 10.8896 11.284 10.8114 11.2412 10.7399C11.3698 10.8127 11.3569 10.9327 11.3655 11.0656C11.3655 11.1213 11.3398 11.1599 11.2798 11.1813C11.2677 11.1862 11.2572 11.1944 11.2496 11.205C11.242 11.2157 11.2376 11.2282 11.2369 11.2413C11.2284 11.3313 11.2541 11.4127 11.3141 11.4856C11.3269 11.4984 11.3312 11.5113 11.3355 11.5284C11.3698 11.687 11.4555 11.8113 11.5884 11.9013C11.6013 11.9097 11.6165 11.9139 11.6319 11.9131C11.6473 11.9123 11.6621 11.9067 11.6741 11.897C11.7087 11.8703 11.7329 11.8324 11.7426 11.7899C11.7492 11.7604 11.7628 11.733 11.7822 11.7099C11.8016 11.6867 11.8262 11.6686 11.8541 11.657C11.8816 11.6456 11.9118 11.6419 11.9412 11.6465C11.9707 11.651 11.9984 11.6635 12.0212 11.6827C12.0469 11.7041 12.0941 11.7041 12.1626 11.6913C12.3469 11.6484 12.6769 11.5156 12.7498 11.327C12.8698 11.0184 12.9169 10.7227 12.8912 10.4313C12.8912 10.3884 12.8955 10.3113 12.9169 10.2041C12.927 10.1288 12.927 10.0524 12.9169 9.977C12.8741 9.66843 13.1312 9.63843 13.2255 9.44557C13.3541 9.17986 13.1912 8.85843 13.1141 8.63129C13.0841 8.54557 13.0241 8.477 12.9855 8.36557C12.9169 8.18986 12.8055 7.97986 12.6469 7.74415C12.5526 7.60272 12.4455 7.62415 12.3255 7.57272C12.1191 7.48289 11.8947 7.44182 11.6698 7.45272C11.5584 7.46129 11.4298 7.517 11.2798 7.61986C11.2557 7.63581 11.2364 7.65804 11.2241 7.68415C11.1169 7.91129 10.9498 8.06986 10.7184 8.16843C10.6893 8.18003 10.6651 8.2012 10.6498 8.22843C10.6405 8.24478 10.6276 8.25873 10.6119 8.26915C10.5963 8.27957 10.5784 8.28617 10.5598 8.28843C10.5341 8.29272 10.5169 8.30129 10.4955 8.32272C10.3455 8.48129 10.1526 8.55415 9.93408 8.54986C9.90591 8.54843 9.87785 8.55433 9.85265 8.567C9.53979 8.72129 9.04693 8.90986 9.13693 9.26557C9.21408 9.56557 9.40693 9.76272 9.72408 9.85272C9.72836 9.85272 9.73265 9.857 9.73265 9.86557V9.87415C9.72408 9.87843 9.72408 9.88272 9.73265 9.88272H9.8355C9.8655 9.88272 9.8955 9.87415 9.92122 9.85272C9.98817 9.79989 10.0717 9.77256 10.1569 9.77557C10.1826 9.77557 10.2041 9.77557 10.2298 9.767L10.4441 9.69415C10.457 9.69002 10.4708 9.68903 10.4842 9.69126C10.4976 9.6935 10.5103 9.69889 10.5212 9.707C10.5426 9.71986 10.5512 9.737 10.5512 9.75843C10.5512 9.78843 10.5598 9.80986 10.5812 9.82272C10.6755 9.89557 10.7526 9.98129 10.8126 10.0884C10.5726 9.947 10.4055 9.87415 10.1698 10.0456C10.1588 10.0537 10.1459 10.0588 10.1324 10.0603C10.1188 10.0618 10.1051 10.0597 10.0926 10.0541C9.99592 10.0164 9.89174 10.0018 9.78836 10.0113C9.75814 10.0153 9.73056 10.0306 9.71122 10.0541L9.35979 10.4399C9.34363 10.4561 9.33311 10.4772 9.32979 10.4999C9.28693 10.8256 9.13265 11.1084 9.04265 11.4813C9.03914 11.5003 9.04216 11.5199 9.05122 11.537L9.13693 11.687C9.15144 11.7132 9.15883 11.7428 9.15836 11.7727C9.15836 12.0256 9.2655 12.2313 9.47979 12.3984C9.52693 12.4199 9.55265 12.4713 9.54836 12.5484C9.0255 12.5313 8.53265 12.6899 8.0055 12.7799C7.97482 12.7849 7.94687 12.8005 7.92651 12.824C7.90615 12.8475 7.89467 12.8773 7.89408 12.9084C7.89408 12.9299 7.89408 12.9513 7.90693 12.9727C7.94979 13.0584 8.00979 13.1227 8.10408 13.157C8.12979 13.1656 8.15979 13.1656 8.18979 13.157C8.22836 13.1399 8.2755 13.1313 8.31836 13.1313C8.35265 13.1313 8.3655 13.1484 8.36122 13.1827C8.31836 13.337 8.30979 13.4784 8.33979 13.6113C8.21096 13.5477 8.07598 13.4974 7.93693 13.4613C7.71836 13.427 7.25122 13.4184 7.06693 13.5641C7.04507 13.5821 7.01804 13.5926 6.98979 13.5941C6.79693 13.607 6.6555 13.6799 6.56122 13.8084L6.52265 13.8513C6.36408 13.967 6.16693 14.0399 6.04265 14.1813C5.93122 14.3099 5.81122 14.4984 5.79408 14.6784C5.79408 14.7213 5.77265 14.7513 5.74693 14.7727C5.72251 14.7892 5.70082 14.8095 5.68265 14.8327C5.65693 14.867 5.65693 14.9013 5.67836 14.9313C5.6955 14.9613 5.68693 14.9827 5.66122 14.9999C5.5755 15.0427 5.55408 15.1199 5.58836 15.2141L5.60122 15.2784C5.60122 15.2827 5.60122 15.2827 5.60122 15.2784L5.58836 15.257H5.5455C5.51979 15.2613 5.50693 15.2741 5.5155 15.287V15.2999C5.51443 15.3028 5.51273 15.3055 5.51051 15.3077C5.50828 15.3099 5.5056 15.3116 5.50265 15.3127L5.49408 15.317C5.45025 15.3174 5.40771 15.3022 5.37408 15.2741C5.27979 15.0513 5.31836 14.8027 5.28836 14.5927C5.26693 14.417 5.2755 14.237 5.30979 14.0613L5.35265 13.9927C5.3955 13.9284 5.3955 13.6541 5.43836 13.5299C5.48122 13.3884 5.46408 13.2427 5.53265 13.097C5.5455 13.0713 5.56265 13.0541 5.58836 13.0541C5.62265 13.0413 5.63122 13.0199 5.61408 12.9856C5.60973 12.9769 5.60716 12.9674 5.60654 12.9577C5.60591 12.948 5.60723 12.9382 5.61043 12.9291C5.61362 12.9199 5.61863 12.9114 5.62514 12.9042C5.63166 12.897 5.63955 12.8911 5.64836 12.887C5.75979 12.8356 5.81979 12.857 5.84122 12.947C5.84122 12.9684 5.85408 12.9727 5.87122 12.9641C5.87633 12.9615 5.88087 12.9579 5.88455 12.9535C5.88823 12.949 5.89098 12.9439 5.89265 12.9384C5.94408 12.8184 6.07265 12.6299 5.96122 12.5099C5.95164 12.4997 5.94468 12.4874 5.94094 12.4739C5.93721 12.4605 5.93681 12.4463 5.93979 12.4327L6.15408 11.2713C6.18318 11.2551 6.21524 11.2449 6.24836 11.2413C6.28265 11.2413 6.30836 11.2456 6.33408 11.2713C6.37693 11.3141 6.41979 11.3441 6.47979 11.3656C6.5055 11.3741 6.53122 11.3656 6.54836 11.3441C6.61693 11.2456 6.65122 11.1813 6.65979 11.147C6.72408 10.787 6.84836 10.5084 7.03693 10.3113C7.1655 10.1827 7.2855 9.98986 7.40979 9.73272C7.64122 9.25272 8.19408 8.84557 8.55408 8.40415C8.57122 8.38272 8.58407 8.36129 8.59265 8.33557C8.59445 8.32824 8.59462 8.3206 8.59314 8.31319C8.59166 8.30578 8.58856 8.29879 8.58408 8.29272C8.57921 8.28594 8.57276 8.28044 8.5653 8.27671C8.55783 8.27297 8.54956 8.27111 8.54122 8.27129L8.19836 8.28415C7.97238 8.06714 7.70388 7.89932 7.40979 7.79129C7.28979 7.74843 7.24265 7.61986 7.1355 7.55986C6.81408 7.367 6.48408 7.187 6.14979 7.01986C5.98804 6.92966 5.84538 6.80885 5.72979 6.66415C5.66979 6.42843 5.64408 6.17129 5.33122 6.20986C5.96122 5.71272 7.68836 6.74557 8.23693 7.13557C8.25533 7.14908 8.2772 7.15706 8.29997 7.15858C8.32274 7.1601 8.34548 7.15509 8.3655 7.14415C9.43655 6.59904 10.6161 6.30071 11.8175 6.27105C13.0189 6.24138 14.2117 6.48114 15.3084 6.97272L15.3041 6.97272Z" fill="#F1A64D"/>
<path d="M18.8355 6.11557C19.0069 6.29129 19.0712 6.54415 19.0369 6.857C18.9941 7.20843 18.9384 7.79986 18.8698 8.63129L18.8526 8.46415C18.8484 8.42986 18.8312 8.42129 18.7969 8.43415L18.6598 8.507C18.6341 8.52415 18.6126 8.51557 18.5912 8.49415C18.5484 8.43843 18.4798 8.43415 18.3855 8.48129C18.5355 8.00558 18.6041 7.52557 18.5998 7.04557C18.5998 6.84843 18.6341 6.66843 18.6426 6.47129C18.643 6.4576 18.6396 6.44407 18.633 6.4321C18.6263 6.42012 18.6166 6.41013 18.6049 6.40315C18.5931 6.39617 18.5796 6.39245 18.5659 6.39237C18.5523 6.3923 18.5388 6.39587 18.5269 6.40272C18.4683 6.4407 18.3996 6.46012 18.3298 6.45843C18.2678 6.45639 18.2061 6.46935 18.1502 6.49621C18.0942 6.52307 18.0456 6.56304 18.0084 6.61272C17.9912 6.63351 17.9691 6.64971 17.9441 6.65986C17.7598 6.74557 17.6012 6.86986 17.4641 7.02415C17.4462 7.04364 17.4218 7.05585 17.3955 7.05843C17.2712 7.07557 17.1726 7.127 17.0955 7.21272C17.0862 7.22474 17.0746 7.23474 17.0614 7.24211C17.0481 7.24948 17.0335 7.25406 17.0184 7.25557L16.8041 7.26415C16.775 7.26479 16.7468 7.27469 16.7237 7.29242C16.7006 7.31014 16.6837 7.33476 16.6755 7.36272C16.6679 7.39041 16.6692 7.41977 16.6792 7.44669C16.6892 7.4736 16.7074 7.49669 16.7312 7.51272C16.7741 7.547 16.8126 7.58986 16.8384 7.637C16.8512 7.66272 16.8726 7.67986 16.9026 7.68415C16.9455 7.69272 16.9626 7.68415 16.9669 7.66272C16.7784 7.88557 16.5641 8.03557 16.3284 8.117L15.7369 8.24986C15.6812 8.22843 15.6255 8.16843 15.5741 8.07843C15.9084 7.56415 16.4012 7.02843 16.9584 6.827C17.2155 6.73272 17.4641 6.67272 17.7298 6.53557C17.8241 6.48415 17.9184 6.44986 18.0084 6.42843C18.2312 6.38557 18.3555 6.38557 18.5612 6.20557C18.5715 6.19605 18.5837 6.18883 18.597 6.18439C18.6103 6.17996 18.6244 6.17841 18.6384 6.17986C18.7584 6.19272 18.8269 6.17129 18.8355 6.11557Z" fill="#F8CD81"/>
<path d="M5.33122 6.20986C5.64408 6.17129 5.66979 6.42843 5.72979 6.66415C5.51122 6.77557 5.39979 6.93415 5.39122 7.13557C5.38693 7.457 5.38693 7.75272 5.43836 8.08272C5.52407 8.597 5.56693 9.10272 5.69979 9.59986C5.80265 9.97272 5.87122 10.3541 6.01265 10.7141C6.01624 10.7209 6.02199 10.7263 6.02898 10.7294C6.03597 10.7325 6.0438 10.7331 6.05122 10.7313L6.06407 10.727C6.27836 10.5556 6.43265 10.3456 6.51408 10.1013L6.57408 10.1784C6.57782 10.1844 6.58286 10.1894 6.58881 10.1932C6.59476 10.1969 6.60147 10.1993 6.60846 10.2001C6.61544 10.2009 6.62252 10.2002 6.62918 10.1979C6.63584 10.1957 6.6419 10.1919 6.64693 10.187L6.67265 10.1613C6.69836 10.1313 6.7155 10.1356 6.72836 10.1741C6.73265 10.1956 6.72836 10.2256 6.7155 10.2599L6.67265 10.217C6.64693 10.1999 6.6255 10.1999 6.60408 10.2299C6.49265 10.397 6.42408 10.517 6.40693 10.5941C6.3555 10.8384 6.26979 11.0656 6.14979 11.2713L5.9355 12.4327C5.93307 12.4467 5.93414 12.4611 5.93863 12.4745C5.94312 12.488 5.95088 12.5001 5.96122 12.5099C6.07265 12.6299 5.94408 12.8184 5.89265 12.9384C5.89098 12.9439 5.88823 12.949 5.88455 12.9535C5.88087 12.9579 5.87633 12.9615 5.87122 12.9641C5.85408 12.9727 5.8455 12.9641 5.84122 12.947C5.82408 12.8613 5.7555 12.8356 5.64836 12.887C5.63524 12.8929 5.62417 12.9026 5.61655 12.9148C5.60892 12.927 5.60508 12.9412 5.6055 12.9556C5.6055 12.9684 5.6055 12.977 5.61408 12.9856C5.63122 13.0199 5.62265 13.0413 5.58836 13.0499C5.57634 13.0521 5.56503 13.0571 5.55534 13.0646C5.54565 13.072 5.53787 13.0817 5.53265 13.0927C5.46408 13.2427 5.48122 13.3927 5.43408 13.5299C5.3955 13.6584 5.39122 13.9284 5.35265 13.9927L5.30979 14.0613C5.2755 14.237 5.26693 14.417 5.29265 14.5927C5.31836 14.807 5.27979 15.0513 5.37408 15.2784C5.44693 15.5313 5.4255 15.6599 5.31407 15.6641C5.09522 14.9655 5.06858 14.2209 5.23693 13.5084C5.29265 13.2641 5.34408 13.0113 5.39122 12.7627C5.39604 12.7381 5.39304 12.7127 5.38265 12.6899C5.2755 12.4841 5.4855 11.8627 5.53265 11.6184C5.53849 11.5896 5.53551 11.5598 5.52408 11.5327C5.30979 11.0227 5.23265 10.3499 5.18979 9.78843C5.1527 9.27111 5.08833 8.75611 4.99693 8.24557C4.94979 7.97986 4.91979 7.757 4.91122 7.577C4.8855 7.037 4.83836 6.527 5.33122 6.20557L5.33122 6.20986Z" fill="#966232"/>
<path d="M18.3855 8.48557C18.3426 8.72557 18.3084 8.96986 18.2698 9.21843C18.2104 9.64309 18.0723 10.0529 17.8626 10.427C17.8467 10.4405 17.827 10.4486 17.8062 10.4501C17.7854 10.4517 17.7646 10.4466 17.7469 10.4356C17.6504 10.3824 17.5657 10.3101 17.4979 10.2232C17.4301 10.1362 17.3807 10.0365 17.3526 9.92986L17.6826 8.84557L17.7469 8.60129C17.7551 8.57482 17.7682 8.55011 17.7855 8.52843C17.8369 8.45557 17.8669 8.357 17.8712 8.237C17.8755 7.937 17.9269 7.577 18.0212 7.13986C18.0255 7.10986 18.0169 7.097 17.9869 7.08843C17.7769 7.03272 17.3184 7.30272 17.1726 7.46557C17.1084 7.54272 17.0441 7.607 16.9669 7.66272C16.9669 7.68843 16.9412 7.69272 16.9026 7.68415C16.889 7.68175 16.8761 7.67626 16.865 7.66808C16.8539 7.6599 16.8447 7.64927 16.8384 7.637C16.812 7.58586 16.7738 7.54177 16.7269 7.50843C16.7055 7.49159 16.6895 7.46873 16.6811 7.44277C16.6727 7.41681 16.6723 7.38894 16.6798 7.36272C16.6877 7.33544 16.704 7.3113 16.7262 7.29364C16.7485 7.27598 16.7757 7.26568 16.8041 7.26415L17.0184 7.25129C17.0484 7.25129 17.0784 7.23843 17.0998 7.21272C17.1726 7.127 17.2712 7.07557 17.3955 7.05843C17.4212 7.05843 17.4426 7.04557 17.4641 7.02415C17.5969 6.86986 17.7598 6.74986 17.9441 6.65986C17.9698 6.65129 17.9869 6.63415 18.0084 6.61272C18.0456 6.56304 18.0942 6.52307 18.1502 6.49621C18.2061 6.46935 18.2678 6.45639 18.3298 6.45843C18.4069 6.45843 18.4712 6.437 18.5269 6.40272C18.5388 6.39587 18.5523 6.3923 18.5659 6.39237C18.5796 6.39245 18.5931 6.39617 18.6049 6.40315C18.6166 6.41013 18.6263 6.42012 18.633 6.4321C18.6396 6.44407 18.643 6.4576 18.6426 6.47129C18.6341 6.66843 18.5998 6.84843 18.5998 7.04557C18.6041 7.52557 18.5355 8.00558 18.3855 8.48129V8.48557ZM5.72979 6.66415C5.87122 6.83557 6.01265 6.95129 6.14979 7.01986C6.48408 7.19129 6.81408 7.367 7.1355 7.55986C7.24265 7.62415 7.28979 7.74843 7.40979 7.79129C7.70979 7.90272 7.9755 8.06986 8.19836 8.28415C7.52122 8.51129 7.15693 8.52415 6.76693 7.92843C6.67693 7.757 6.5355 7.58557 6.33836 7.41843C6.2355 7.33272 6.12408 7.28129 5.9955 7.25557C5.98087 7.25237 5.96565 7.25306 5.95136 7.25757C5.93707 7.26208 5.92422 7.27026 5.91408 7.28129L5.75122 7.45272C5.73971 7.46355 5.73098 7.477 5.72576 7.49191C5.72054 7.50683 5.71898 7.52279 5.72122 7.53843C5.76408 7.82129 5.75979 8.10415 5.6955 8.38272C5.69122 8.417 5.6955 8.447 5.71265 8.477L5.92693 8.81986L5.95693 8.837L6.21408 8.91843C6.23979 8.927 6.25265 8.94415 6.24836 8.97415C6.24836 9.02558 6.25265 9.05986 6.2655 9.08986C6.27836 9.45415 6.36407 9.78843 6.51408 10.1013C6.42531 10.3535 6.2625 10.5731 6.04693 10.7313C6.04016 10.7322 6.03328 10.731 6.02717 10.728C6.02106 10.7249 6.016 10.7201 6.01265 10.7141C5.87122 10.3541 5.80265 9.97272 5.69979 9.59986C5.56265 9.10272 5.52408 8.59272 5.44265 8.08272C5.39482 7.76942 5.3776 7.45221 5.39122 7.13557C5.3955 6.93415 5.51122 6.77557 5.73408 6.66415L5.72979 6.66415Z" fill="#FCE0BD"/>
<path d="M17.6826 8.84557C17.6741 8.63129 17.6612 7.667 17.2284 7.78272C17.1624 7.80623 17.1034 7.84603 17.0569 7.89843C16.8555 8.09558 16.6155 8.16843 16.3284 8.117C16.5786 8.02653 16.7994 7.86946 16.9669 7.66272C17.0398 7.607 17.1084 7.54272 17.1769 7.46557C17.3184 7.30272 17.7769 7.037 17.9912 7.08843C18.0169 7.09272 18.0255 7.10986 18.0212 7.13986C17.9377 7.50021 17.8875 7.86747 17.8712 8.237C17.8712 8.357 17.8369 8.45557 17.7855 8.52843C17.7682 8.55011 17.7551 8.57482 17.7469 8.60129L17.6826 8.84557Z" fill="#D89C8A"/>
<path d="M6.76693 7.92843C6.49452 8.25945 6.32075 8.66045 6.2655 9.08558C6.25133 9.05024 6.24547 9.01211 6.24836 8.97415C6.24836 8.94415 6.23979 8.927 6.20979 8.91843L5.95265 8.837C5.94208 8.83267 5.9331 8.82518 5.92693 8.81557L5.71265 8.477C5.70347 8.46331 5.6972 8.44787 5.69425 8.43165C5.69131 8.41542 5.69173 8.39877 5.6955 8.38272C5.75979 8.10415 5.76408 7.82129 5.72122 7.53843C5.71898 7.52279 5.72054 7.50683 5.72576 7.49191C5.73098 7.477 5.73971 7.46355 5.75122 7.45272L5.91408 7.28129C5.92461 7.26952 5.93819 7.2609 5.95331 7.25636C5.96844 7.25182 5.98452 7.25155 5.99979 7.25557C6.12408 7.28129 6.2355 7.337 6.33408 7.41843C6.5355 7.58986 6.67693 7.757 6.76265 7.92843H6.76693Z" fill="#EEBFB5"/>
<path d="M11.2412 10.7399L11.0698 10.3841C11.0579 10.3576 11.042 10.333 11.0226 10.3113L10.8084 10.0884C10.7513 9.98547 10.674 9.89509 10.5812 9.82272C10.5712 9.81545 10.5631 9.80572 10.5579 9.79447C10.5526 9.78322 10.5503 9.77081 10.5512 9.75843C10.5512 9.737 10.5426 9.71986 10.5212 9.707C10.5103 9.69889 10.4976 9.6935 10.4842 9.69126C10.4708 9.68903 10.457 9.69002 10.4441 9.69415L10.2298 9.767C10.2076 9.77397 10.1844 9.77687 10.1612 9.77557C10.0755 9.77557 9.98979 9.797 9.92122 9.85272C9.89688 9.87216 9.86665 9.88274 9.8355 9.88272H9.72836V9.86557C9.73265 9.857 9.72836 9.857 9.72408 9.85272C9.58128 9.81914 9.45069 9.74641 9.34697 9.64268C9.24324 9.53896 9.17051 9.40837 9.13693 9.26557C9.04693 8.90986 9.53979 8.72129 9.85265 8.567C9.87785 8.55433 9.90591 8.54843 9.93408 8.54986C10.1569 8.55415 10.3455 8.48129 10.4955 8.32272C10.5126 8.30129 10.5384 8.29272 10.5598 8.28843C10.6026 8.28843 10.6284 8.26272 10.6498 8.22843C10.6651 8.2012 10.6893 8.18003 10.7184 8.16843C10.9498 8.06986 11.1169 7.91129 11.2241 7.68415C11.2364 7.65804 11.2557 7.63581 11.2798 7.61986C11.4298 7.517 11.5626 7.46129 11.6698 7.45272C11.8669 7.43986 12.0855 7.47843 12.3255 7.57272C12.4455 7.62415 12.5526 7.60272 12.6469 7.74415C12.8098 7.97986 12.9212 8.18986 12.9812 8.36557C13.0241 8.477 13.0884 8.54557 13.1141 8.627C13.1912 8.85843 13.3498 9.17986 13.2255 9.44557C13.1312 9.63843 12.8784 9.66843 12.9126 9.977C12.9227 10.0524 12.9227 10.1288 12.9126 10.2041C12.8955 10.3113 12.8912 10.3884 12.8955 10.4313C12.9169 10.7227 12.8698 11.0184 12.7498 11.327C12.6769 11.5156 12.3469 11.6527 12.1626 11.6913C12.0941 11.7041 12.0469 11.7041 12.0212 11.6784C11.998 11.66 11.9701 11.6482 11.9406 11.6444C11.9112 11.6406 11.8812 11.645 11.8541 11.657C11.8262 11.6686 11.8016 11.6867 11.7822 11.7099C11.7628 11.733 11.7492 11.7604 11.7426 11.7899C11.734 11.8318 11.7113 11.8696 11.6784 11.897C11.6655 11.9071 11.6497 11.9126 11.6334 11.9126C11.617 11.9126 11.6012 11.9071 11.5884 11.897C11.4555 11.8113 11.3741 11.687 11.3355 11.5241C11.3319 11.5096 11.3245 11.4963 11.3141 11.4856C11.2848 11.4524 11.2625 11.4137 11.2486 11.3717C11.2346 11.3297 11.2292 11.2854 11.2326 11.2413C11.2328 11.2281 11.237 11.2153 11.2446 11.2045C11.2523 11.1938 11.2631 11.1857 11.2755 11.1813C11.3398 11.1599 11.3698 11.1213 11.3612 11.0656C11.3569 10.9327 11.3698 10.8127 11.2412 10.7399Z" fill="#D9913B"/>
<path d="M17.6826 8.84557L17.3526 9.92986C17.3055 9.95129 17.2669 9.95557 17.2455 9.93415C17.0312 9.75415 16.8426 9.47557 16.6498 9.26986L16.3798 8.96129L15.7369 8.24986L16.3326 8.12129C16.6155 8.16843 16.8555 8.09557 17.0612 7.89843C17.1077 7.84603 17.1667 7.80623 17.2326 7.78272C17.6612 7.667 17.6741 8.627 17.6826 8.84557Z" fill="#AF6548"/>
<path d="M6.76693 7.92843C7.15693 8.52415 7.5255 8.51129 8.20265 8.28415L8.54122 8.27129C8.5535 8.27112 8.56543 8.27534 8.57486 8.2832C8.58429 8.29106 8.5906 8.30204 8.59265 8.31415L8.59265 8.33557C8.58464 8.36084 8.57151 8.38418 8.55408 8.40415C8.19408 8.84557 7.64122 9.25272 7.40979 9.73272C7.2855 9.98986 7.16122 10.187 7.03693 10.3113C6.98371 10.3326 6.92571 10.339 6.86912 10.33C6.81252 10.3209 6.75943 10.2967 6.7155 10.2599C6.72838 10.2333 6.73287 10.2034 6.72836 10.1741C6.71979 10.1356 6.69836 10.1313 6.67265 10.1613L6.64693 10.187C6.64241 10.1928 6.63645 10.1974 6.62964 10.2002C6.62284 10.2031 6.61541 10.2041 6.60809 10.2033C6.60076 10.2024 6.59378 10.1997 6.58782 10.1953C6.58186 10.191 6.57713 10.1851 6.57408 10.1784L6.51408 10.1013C6.36097 9.78539 6.27626 9.44074 6.2655 9.08986C6.31693 8.66557 6.48408 8.27557 6.76693 7.92843Z" fill="#9A553A"/>
<path d="M18.8698 8.63129C18.8141 9.27415 18.7498 9.917 18.6769 10.5684C18.6384 10.9113 18.5312 11.2841 18.4841 11.657C18.3255 11.8156 18.1284 11.9227 17.8841 11.987C17.8728 11.9898 17.8624 11.9951 17.8535 12.0026C17.8446 12.01 17.8374 12.0193 17.8326 12.0299C17.6826 12.3513 17.4555 12.3641 17.1341 12.2784C16.9626 12.2356 16.7826 12.257 16.5898 12.3513L16.5726 12.3556C16.569 12.3548 16.5656 12.3532 16.5627 12.351C16.5597 12.3488 16.5573 12.346 16.5555 12.3427C16.5512 12.3341 16.5426 12.3341 16.5384 12.3384L16.2255 12.5441C16.2066 12.5568 16.184 12.5629 16.1612 12.5613L16.0755 12.5527C16.0669 12.5527 16.0626 12.557 16.0669 12.5656C16.08 12.5923 16.0872 12.6215 16.0884 12.6513C15.9006 12.588 15.7067 12.5449 15.5098 12.5227C14.9698 12.4541 14.5541 12.407 14.0698 12.6384C13.7698 12.7884 13.7569 13.037 13.7826 13.3627C13.8169 13.7656 14.0269 14.0313 14.4084 14.147C14.9698 14.3227 15.3512 14.1041 15.7284 13.6799C15.7069 13.8084 15.6512 13.9199 15.5698 14.0056C15.5497 14.0242 15.5349 14.0479 15.5269 14.0741C15.4798 14.2541 15.1412 14.4299 14.9569 14.4684C14.7004 14.5204 14.446 14.5819 14.1941 14.6527C14.0698 14.7599 14.0141 14.8156 13.8941 14.9656C13.8474 15.0286 13.7784 15.0716 13.7012 15.0856C13.8898 14.8799 13.8598 14.6699 13.6155 14.4599C13.3186 14.2627 12.9955 14.1083 12.6555 14.0013C12.0212 13.7613 10.8126 14.027 10.2984 14.4813C10.1184 14.6313 10.0069 14.8927 9.86979 15.0984C9.85242 15.1237 9.82658 15.142 9.79693 15.1499C9.68122 15.1884 9.64693 15.2656 9.68122 15.3856C9.6855 15.3984 9.68122 15.407 9.66836 15.407H9.63836C9.63407 15.407 9.62979 15.407 9.62979 15.4156L9.6255 15.4541C9.60836 15.4413 9.59979 15.4499 9.5955 15.4713C9.5955 15.4927 9.58693 15.4927 9.56979 15.4841C9.55265 15.467 9.54836 15.4413 9.56122 15.4113C9.68122 15.1027 9.56122 14.9356 9.28265 14.8027C9.11276 14.7222 8.9413 14.645 8.76836 14.5713C8.76358 14.5654 8.7603 14.5584 8.75881 14.5509C8.75732 14.5434 8.75765 14.5357 8.75979 14.5284L8.77265 14.5027C8.78122 14.4941 8.78122 14.4899 8.78122 14.4813C8.78122 14.4641 8.7855 14.4513 8.80265 14.447C8.85408 14.4341 8.89693 14.4041 8.93122 14.3656C8.94836 14.3484 8.94407 14.3313 8.92693 14.3184C8.88019 14.2843 8.84324 14.2385 8.81979 14.1856C8.83485 14.1548 8.84359 14.1212 8.8455 14.087C8.87979 14.1856 8.91836 14.2456 8.95693 14.2584C9.23122 14.3356 9.53979 14.3056 9.88693 14.1727C10.3841 13.9713 10.4141 13.5127 10.3926 13.0799C10.3798 12.8056 10.2298 12.6599 9.95122 12.6427C10.0112 12.6041 10.0155 12.5313 9.96408 12.4284C9.95853 12.4215 9.95528 12.413 9.95477 12.4042C9.95426 12.3953 9.95651 12.3865 9.96121 12.379C9.96592 12.3714 9.97284 12.3656 9.98103 12.3621C9.98922 12.3587 9.99827 12.3579 10.0069 12.3599H10.0712C10.1055 12.3599 10.1226 12.3427 10.1269 12.3084C10.1312 12.257 10.1441 12.2056 10.1569 12.1584C10.1784 12.0941 10.2169 12.0684 10.2684 12.0856C10.2941 12.0941 10.3026 12.1156 10.2898 12.1413C10.2482 12.2298 10.2406 12.3304 10.2684 12.4241C10.2769 12.4541 10.2941 12.4756 10.3284 12.4799C10.4012 12.497 10.4698 12.497 10.5298 12.4713C10.9155 12.317 10.9584 12.2441 11.1384 11.8713C11.1507 11.846 11.1537 11.8172 11.1469 11.7899L11.1041 11.6141L11.1212 11.4213C11.1212 11.3956 11.1298 11.3656 11.1426 11.3356C11.1726 11.2713 11.1855 11.2027 11.1684 11.1256C11.1641 11.0999 11.1726 11.0913 11.1984 11.0913H11.2712C11.1941 11.177 11.1555 11.3056 11.1598 11.4727C11.1598 11.6441 11.2584 11.7556 11.3912 11.8456C11.4106 11.8591 11.4252 11.8784 11.4329 11.9007C11.4406 11.9231 11.441 11.9473 11.4341 11.9699C11.4297 11.9841 11.4224 11.9972 11.4126 12.0084C11.3969 12.0263 11.3858 12.0478 11.3806 12.071C11.3754 12.0942 11.3761 12.1184 11.3826 12.1413C11.4041 12.227 11.5026 12.3127 11.5455 12.4199C11.5541 12.4456 11.5712 12.4627 11.5969 12.4756C11.6826 12.5184 11.7684 12.5827 11.8412 12.6684C11.8571 12.6864 11.8764 12.701 11.898 12.7114C11.9197 12.7218 11.9431 12.7278 11.9671 12.729C11.991 12.7302 12.015 12.7266 12.0375 12.7184C12.0601 12.7102 12.0808 12.6976 12.0984 12.6813C12.3984 12.407 12.5441 12.1241 12.7541 11.7899C12.8398 11.657 12.9298 11.3913 12.9426 11.2327C12.9726 10.8684 13.0712 10.547 13.0455 10.1913C13.0436 10.148 13.0549 10.1052 13.0779 10.0685C13.1008 10.0318 13.1344 10.0029 13.1741 9.98557C13.2011 9.97391 13.2303 9.96807 13.2598 9.96843L13.7741 9.97272C13.787 9.97323 13.7999 9.97079 13.8118 9.9656C13.8237 9.9604 13.8342 9.95258 13.8426 9.94272C13.8726 9.90843 13.9112 9.89557 13.9584 9.90843C13.9884 9.91272 14.0012 9.89986 14.0012 9.86986C13.9798 9.74129 13.9284 9.63843 13.8298 9.56129C13.7869 9.527 13.7784 9.47986 13.8041 9.43272L13.8255 9.377C13.8598 9.30415 13.9026 9.30415 13.9455 9.36843L14.2112 9.78415C14.2241 9.80986 14.2455 9.827 14.2669 9.83986C14.4126 9.917 14.6141 9.92129 14.7255 10.007C14.7684 10.0413 14.8112 10.0841 14.8455 10.1356C14.8626 10.1613 14.8841 10.1656 14.9055 10.1527L15.1541 10.0156C15.1677 10.0087 15.1793 9.99836 15.1875 9.98555C15.1958 9.97274 15.2006 9.95796 15.2012 9.94272C15.2098 9.887 15.2226 9.83557 15.2441 9.78843C15.2582 9.76221 15.2627 9.73192 15.2569 9.70272C15.165 9.36996 15.1769 9.01705 15.2912 8.69129C15.3341 8.57986 15.4112 8.55415 15.5184 8.61415C15.5441 8.627 15.5655 8.63557 15.5912 8.63557C15.6426 8.63557 15.6855 8.65272 15.7284 8.68272C15.7412 8.69557 15.7626 8.70415 15.7798 8.70843L16.0712 8.75986C16.1184 8.76843 16.1612 8.79843 16.1955 8.837C16.2041 8.84986 16.2084 8.86272 16.2084 8.87986C16.2084 8.90129 16.2169 8.91843 16.2426 8.92272L16.3798 8.96129L16.6498 9.26986C16.8426 9.47557 17.0269 9.75415 17.2455 9.93415C17.2669 9.95557 17.3055 9.95129 17.3526 9.92986C17.3955 10.1313 17.5284 10.2984 17.7469 10.4356C17.759 10.4423 17.7723 10.4465 17.786 10.4479C17.7997 10.4494 17.8135 10.4481 17.8267 10.4441C17.8399 10.4401 17.8522 10.4335 17.8628 10.4247C17.8733 10.4158 17.8821 10.405 17.8884 10.3927C18.0855 10.0241 18.2055 9.66843 18.2741 9.21843L18.3855 8.48129C18.4798 8.43415 18.5484 8.43843 18.5912 8.49415C18.6126 8.51557 18.6341 8.52415 18.6641 8.507L18.7969 8.43415C18.8312 8.42129 18.8484 8.42986 18.8526 8.46415L18.8698 8.63129Z" fill="#F8B95F"/>
<path d="M10.8126 10.0884L11.0226 10.3113C11.0398 10.3327 11.0569 10.3541 11.0655 10.3841L11.2412 10.7399C11.2755 10.7913 11.3055 10.8684 11.3269 10.9713C11.3441 11.0313 11.3269 11.0699 11.2712 11.0913H11.1984C11.1726 11.0913 11.1641 11.0999 11.1684 11.1256C11.1812 11.2027 11.1726 11.2713 11.1426 11.3399C11.1299 11.3667 11.1226 11.3959 11.1212 11.4256L11.1084 11.6141C11.0989 11.4929 11.0989 11.3711 11.1084 11.2499C11.1126 11.1427 11.0955 11.0699 11.0526 11.0356C10.8654 10.899 10.7308 10.7024 10.6712 10.4784C10.6642 10.4507 10.6475 10.4264 10.6241 10.4099C10.5598 10.367 10.5084 10.3156 10.4655 10.2513C10.4523 10.2327 10.4337 10.2187 10.4122 10.211C10.3908 10.2034 10.3675 10.2025 10.3455 10.2084C10.1291 10.2682 9.9119 10.3253 9.69408 10.3799C9.67881 10.3924 9.66701 10.4086 9.65979 10.427C9.65406 10.4489 9.64384 10.4693 9.62979 10.487C9.4155 10.7356 9.28693 11.0227 9.24836 11.3527C9.22265 11.5799 9.31693 11.7599 9.39836 11.9699C9.44979 12.1113 9.42836 12.2484 9.48408 12.3984C9.2655 12.2313 9.15836 12.0256 9.15836 11.7727C9.15883 11.7428 9.15144 11.7132 9.13693 11.687L9.05122 11.537C9.04216 11.5199 9.03914 11.5003 9.04265 11.4813C9.12836 11.1084 9.29122 10.8256 9.32979 10.4956C9.32979 10.4741 9.34265 10.4527 9.35979 10.4356L9.71122 10.0499C9.73265 10.0284 9.75408 10.0156 9.78836 10.0113C9.89122 10.0027 9.99408 10.0156 10.0884 10.0541C10.1184 10.0627 10.1484 10.0584 10.1741 10.0413C10.4055 9.87415 10.5726 9.947 10.8126 10.0884Z" fill="#F8CD81"/>
<path d="M13.2126 12.2527C13.1226 12.167 13.0841 12.0813 13.0841 11.9827L13.1569 11.0913C13.1698 10.9027 13.2041 10.7441 13.2641 10.6113C13.3412 10.4227 13.4784 10.1056 13.7012 10.1141C13.9069 10.1227 14.1084 10.1141 14.3141 10.0799C14.3398 10.0799 14.3612 10.0799 14.3869 10.097L14.5755 10.2213C14.5969 10.2341 14.6141 10.2556 14.6269 10.277C14.7212 10.4613 14.7812 10.6627 14.7984 10.8684C14.7984 10.8813 14.8069 10.8899 14.8112 10.8984L14.8326 10.9241V10.9327C14.8412 11.177 14.8798 11.5156 14.7898 11.747L14.7341 11.9184C14.7293 11.946 14.7139 11.9706 14.6912 11.987L14.0441 12.3899C14.0284 12.3988 14.0106 12.4032 13.9926 12.4027H13.9669C13.9455 12.4027 13.9326 12.4027 13.9198 12.4199C13.7226 12.5913 13.3712 12.5913 13.2598 12.317C13.2506 12.2926 13.2359 12.2706 13.2169 12.2527H13.2126Z" fill="white"/>
<path d="M6.7155 10.2599C6.80979 10.337 6.91693 10.3541 7.03693 10.3113C6.83253 10.5472 6.70145 10.8377 6.65979 11.147C6.65122 11.1813 6.61693 11.2456 6.54836 11.3441C6.53122 11.3699 6.5055 11.3741 6.47979 11.3656C6.42393 11.3446 6.3729 11.3125 6.32979 11.2713C6.31922 11.2607 6.30646 11.2525 6.29239 11.2473C6.27833 11.2421 6.2633 11.2401 6.24836 11.2413C6.21377 11.2443 6.18019 11.2545 6.14979 11.2713C6.26979 11.0656 6.3555 10.8384 6.40693 10.5941C6.42408 10.517 6.49265 10.397 6.60408 10.2299C6.6255 10.1999 6.64693 10.1999 6.66836 10.2213L6.7155 10.2641L6.7155 10.2599Z" fill="#D9913B"/>
<path d="M11.1084 11.6141L11.1512 11.7899C11.1512 11.8199 11.1512 11.8456 11.1384 11.8756C10.9541 12.2441 10.9198 12.317 10.5298 12.4713C10.4651 12.4945 10.3948 12.4975 10.3284 12.4799C10.3141 12.4771 10.301 12.4705 10.2904 12.4606C10.2797 12.4508 10.2721 12.4381 10.2684 12.4241C10.2406 12.3304 10.2482 12.2298 10.2898 12.1413C10.3026 12.1156 10.2941 12.0984 10.2684 12.0856C10.2169 12.0684 10.1826 12.0941 10.1569 12.1584C10.1441 12.2013 10.1312 12.257 10.1269 12.3084C10.1226 12.3427 10.1055 12.3599 10.0712 12.3599H10.0026C9.99702 12.3599 9.99145 12.361 9.98625 12.3631C9.98105 12.3653 9.97632 12.3684 9.97234 12.3724C9.96836 12.3764 9.96521 12.3811 9.96305 12.3863C9.9609 12.3915 9.95979 12.3971 9.95979 12.4027V12.4284C10.0155 12.5313 10.0112 12.6041 9.95122 12.6427L9.54836 12.5484C9.54836 12.4713 9.52693 12.4199 9.47979 12.3984C9.42836 12.2484 9.45408 12.1113 9.39836 11.9699C9.31693 11.7556 9.22693 11.5841 9.25265 11.3527C9.29122 11.0227 9.4155 10.7356 9.62979 10.487C9.64384 10.4693 9.65406 10.4489 9.65979 10.427C9.66634 10.4071 9.67819 10.3893 9.69408 10.3756C9.91334 10.3211 10.1319 10.264 10.3498 10.2041C10.3716 10.1995 10.3943 10.2016 10.4149 10.21C10.4355 10.2184 10.4531 10.2328 10.4655 10.2513C10.5084 10.3156 10.5598 10.367 10.6241 10.4099C10.6455 10.427 10.6669 10.4527 10.6712 10.4784C10.7355 10.7099 10.8598 10.8941 11.0526 11.0356C11.0955 11.0699 11.1126 11.1427 11.1084 11.2499C11.0955 11.3741 11.0998 11.4941 11.1084 11.6141Z" fill="#FDF1ED"/>
<path d="M13.6369 11.8456C13.6584 12.1241 13.7784 12.3384 13.9026 12.3299C14.0269 12.317 14.1041 12.0856 14.0826 11.807C14.0569 11.5327 13.9369 11.3184 13.8169 11.327C13.6884 11.3399 13.6112 11.5713 13.6369 11.8456Z" fill="#E2D0BC"/>
<path d="M10.0969 11.6999C10.0369 11.7856 10.0112 11.8756 10.0412 11.9013C10.0712 11.9227 10.1484 11.8713 10.2126 11.7856C10.2726 11.6999 10.2984 11.6141 10.2684 11.5884C10.2384 11.5627 10.1612 11.6141 10.0969 11.7041V11.6999Z" fill="#382B2B"/>
<path d="M18.4841 11.657C18.5698 11.8541 18.6212 11.9999 18.6298 12.0899C18.6684 12.5356 18.7326 12.9984 18.8312 13.4784C18.5912 13.5513 18.3169 13.547 18.0169 13.4613C17.9901 13.4548 17.966 13.4397 17.9484 13.4184C17.9331 13.4024 17.9143 13.3902 17.8935 13.3827C17.8726 13.3753 17.8503 13.3728 17.8284 13.3756C17.6466 13.3924 17.4634 13.3674 17.2926 13.3027C16.9541 13.1784 16.8341 13.1313 16.5255 13.2299C16.5011 13.2366 16.475 13.2337 16.4526 13.2218C16.4303 13.2098 16.4134 13.1897 16.4055 13.1656C16.401 13.1487 16.401 13.131 16.4055 13.1141C16.4141 13.0584 16.4055 13.0199 16.3626 12.9984C16.5555 12.7713 16.2512 12.6684 16.0884 12.6556C16.0879 12.6244 16.0805 12.5937 16.0669 12.5656C16.0626 12.557 16.0669 12.5527 16.0712 12.5527L16.1569 12.5613C16.1826 12.5613 16.2041 12.5613 16.2255 12.5441L16.5384 12.3384C16.5426 12.3341 16.5512 12.3384 16.5555 12.3427C16.5555 12.3513 16.5641 12.3556 16.5726 12.3556L16.5898 12.3513C16.7784 12.257 16.9626 12.2356 17.1341 12.2784C17.4555 12.3641 17.6826 12.3513 17.8326 12.0299C17.8374 12.0193 17.8446 12.01 17.8535 12.0026C17.8624 11.9951 17.8728 11.9898 17.8841 11.987C18.1284 11.9227 18.3255 11.8156 18.4841 11.657Z" fill="#F8CD81"/>
<path d="M9.87408 12.1841C9.85265 12.2356 9.86122 12.2913 9.8955 12.3041C9.92979 12.3213 9.97265 12.2913 9.99408 12.2399C10.0155 12.1841 10.0069 12.1327 9.97265 12.1156C9.93836 12.1027 9.8955 12.1327 9.87408 12.1841Z" fill="#382B2B"/>
<path d="M16.0884 12.6556C16.2512 12.6684 16.5555 12.7713 16.3626 12.9984C16.2084 13.0156 16.0498 12.9984 15.8912 12.9299C15.8612 12.917 15.8484 12.9299 15.8569 12.9599C15.9084 13.2513 15.9255 13.4441 15.7284 13.6799C15.3469 14.1084 14.9698 14.3227 14.4084 14.1513C14.2322 14.1063 14.0756 14.0049 13.9626 13.8625C13.8496 13.72 13.7864 13.5445 13.7826 13.3627C13.7569 13.037 13.7698 12.7884 14.0698 12.6384C14.5541 12.407 14.9698 12.4541 15.5098 12.5184C15.7069 12.5441 15.8955 12.5913 16.0884 12.6556ZM9.54836 12.5484L9.95122 12.6427C10.2298 12.6599 10.3798 12.8056 10.3926 13.0799C10.4141 13.5084 10.3841 13.9713 9.88693 14.1684C9.54408 14.3056 9.23122 14.3399 8.95693 14.2541C8.91836 14.2456 8.87979 14.1856 8.8455 14.087L8.49408 13.7956L8.3355 13.6113C8.30979 13.4784 8.31408 13.337 8.35693 13.1827C8.3655 13.1484 8.35693 13.1313 8.31836 13.1313C8.2755 13.1313 8.22836 13.1399 8.18979 13.157C8.16227 13.168 8.13159 13.168 8.10408 13.157C8.06046 13.1412 8.0205 13.1167 7.98661 13.0851C7.95272 13.0534 7.92562 13.0152 7.90693 12.9727C7.89272 12.9437 7.88923 12.9105 7.89707 12.8792C7.90491 12.8478 7.92358 12.8202 7.94979 12.8013C7.9665 12.79 7.98555 12.7827 8.0055 12.7799C8.53265 12.6899 9.0255 12.5313 9.54836 12.5484Z" fill="#241F1D"/>
<path d="M15.1112 13.0027C15.2312 12.9899 15.3169 12.8913 15.3041 12.7841C15.2912 12.677 15.1798 12.6041 15.0598 12.617C14.9398 12.6341 14.8541 12.7327 14.8669 12.8399C14.8798 12.947 14.9869 13.0199 15.1112 13.0027ZM9.5055 12.857C9.58265 12.6041 9.8055 12.6856 9.93408 12.8056C9.94837 12.8193 9.95888 12.8365 9.9646 12.8555C9.97033 12.8745 9.97108 12.8947 9.96677 12.914C9.96247 12.9334 9.95326 12.9513 9.94003 12.9661C9.9268 12.9809 9.90999 12.992 9.89122 12.9984C9.82911 13.0219 9.76166 13.0275 9.69653 13.0146C9.63139 13.0018 9.57116 12.9709 9.52265 12.9256C9.5134 12.9171 9.50685 12.906 9.50381 12.8939C9.50076 12.8817 9.50135 12.8689 9.5055 12.857Z" fill="white"/>
<path d="M16.3626 12.9984C16.4055 13.0199 16.4141 13.0584 16.4055 13.1141C16.4021 13.1304 16.4029 13.1473 16.4079 13.1632C16.4128 13.1791 16.4216 13.1935 16.4336 13.2051C16.4456 13.2166 16.4603 13.225 16.4764 13.2293C16.4924 13.2336 16.5093 13.2338 16.5255 13.2299C16.8341 13.1313 16.9541 13.1784 17.2926 13.3027C17.4641 13.367 17.6441 13.3884 17.8284 13.3713C17.8712 13.3713 17.9226 13.3884 17.9484 13.4184C17.9649 13.439 17.9873 13.4539 18.0126 13.4613C18.3169 13.547 18.5912 13.5513 18.8269 13.4784C19.0004 14.142 18.978 14.8416 18.7626 15.4927C18.7558 15.4998 18.7467 15.5044 18.7369 15.5056H18.7155C18.7069 15.5056 18.7026 15.5013 18.7026 15.4927C18.7198 15.137 18.4198 14.7384 18.1884 14.4899C18.1241 14.417 18.0212 14.2756 17.8884 14.0656C17.8626 14.0227 17.8112 13.967 17.7426 13.907C17.6055 13.787 17.4812 13.5556 17.2712 13.757C17.0269 13.9841 16.7312 14.2199 16.5598 14.5113C16.4869 14.6313 16.4226 14.7213 16.3669 14.777C16.2469 14.9013 16.0798 14.8884 15.9469 14.9913L15.8141 15.0941C15.6898 15.1841 15.5484 15.1841 15.4112 15.2656C15.3892 15.2804 15.3644 15.2906 15.3384 15.2956C15.1876 15.3129 15.0426 15.3634 14.9137 15.4435C14.7847 15.5235 14.6751 15.6311 14.5926 15.7584C14.5284 15.857 14.4384 15.887 14.3269 15.8441C14.2326 15.8099 14.1341 15.8013 14.0269 15.8313C14.0012 15.8399 13.9841 15.8313 13.9712 15.8099C13.9553 15.7778 13.9466 15.7427 13.9455 15.707C13.9439 15.6925 13.9393 15.6785 13.9319 15.666C13.9245 15.6534 13.9145 15.6426 13.9026 15.6341C13.7312 15.4841 13.4998 15.3556 13.2769 15.4499C13.0755 15.5313 12.9255 15.6384 12.8269 15.7756C12.3035 15.6772 11.7655 15.686 11.2455 15.8013C11.2798 15.7027 11.2026 15.6727 11.0098 15.7113C10.9969 15.7456 10.9669 15.7541 10.9241 15.7413C10.8041 15.767 10.5812 15.7799 10.4955 15.8527C10.4749 15.8704 10.4518 15.8848 10.4269 15.8956C10.2341 15.9813 10.0541 16.097 9.8955 16.2427C9.86345 16.2715 9.82401 16.2907 9.78161 16.2983C9.73921 16.3059 9.69553 16.3015 9.6555 16.2856C9.62122 16.157 9.55693 16.0713 9.45836 16.0413C9.49265 16.0156 9.50122 15.9813 9.48836 15.947C9.47979 15.9256 9.45836 15.9084 9.42408 15.8956C9.23979 15.8184 9.07693 15.707 8.89265 15.6599C8.72122 15.617 8.54979 15.5999 8.3955 15.5227C8.26693 15.4541 8.18122 15.407 8.15122 15.3727C7.88122 15.1113 7.59408 14.8713 7.28122 14.657C7.25784 14.6421 7.23866 14.6214 7.2255 14.597C7.17159 14.4953 7.1038 14.4015 7.02408 14.3184C6.9616 14.2514 6.90429 14.1798 6.85265 14.1041C6.79903 14.0277 6.73724 13.9572 6.66836 13.8941C6.64693 13.877 6.6255 13.8727 6.59979 13.8856L6.47979 13.9627C6.47979 13.9284 6.49693 13.8899 6.52265 13.8513L6.56122 13.8084C6.76265 13.8213 6.91693 13.9156 7.03265 14.0913C7.13122 14.2413 7.2255 14.3484 7.31979 14.4256L7.43979 14.5284C7.54693 14.6356 7.5855 14.6999 7.73979 14.7684C7.91122 14.8499 8.05265 14.9699 8.15979 15.1327C8.17456 15.1541 8.19548 15.1706 8.21979 15.1799C8.32693 15.2227 8.38265 15.2827 8.48979 15.3084L9.3255 15.4799C9.47979 15.5141 9.55693 15.6213 9.54836 15.8013C9.54836 15.8441 9.5655 15.8656 9.60408 15.8699L10.0884 15.9384C10.1098 15.9384 10.1226 15.9299 10.1226 15.9084C10.1226 15.8956 10.1226 15.8827 10.1312 15.8699C10.1398 15.8533 10.1533 15.8398 10.1698 15.8313C10.2426 15.7884 10.3112 15.737 10.3755 15.677C10.3955 15.6581 10.421 15.6461 10.4484 15.6427C10.7741 15.6084 11.2626 15.7156 11.4984 15.6299C11.6055 15.587 11.7126 15.5656 11.8284 15.557C12.1198 15.527 12.3555 15.4499 12.6512 15.4799C12.6795 15.4833 12.7082 15.4773 12.7326 15.4627C12.7755 15.437 12.8269 15.4284 12.8826 15.4413C12.8963 15.4443 12.9104 15.4439 12.9239 15.4401C12.9373 15.4364 12.9496 15.4294 12.9598 15.4199C13.1741 15.2356 13.4141 15.1541 13.6755 15.1756C13.7912 15.1841 13.8598 15.1456 13.8855 15.0556C13.8941 15.0127 13.8855 15.0127 13.8555 15.0384C13.7955 15.0984 13.7269 15.1241 13.6626 15.1241C13.6541 15.1241 13.6626 15.1113 13.7055 15.0813C13.7805 15.0674 13.8477 15.0261 13.8941 14.9656C13.9853 14.845 14.0919 14.737 14.2112 14.6441C14.4555 14.5756 14.7084 14.5156 14.9569 14.4684C15.1455 14.4256 15.4798 14.2541 15.5269 14.0741C15.5349 14.0479 15.5497 14.0242 15.5698 14.0056C15.6555 13.9199 15.7069 13.8127 15.7284 13.6799C15.9255 13.4441 15.9084 13.2513 15.8569 12.9599C15.8484 12.9256 15.8612 12.917 15.8955 12.9299C16.0498 12.9941 16.2084 13.0156 16.3669 12.9984L16.3626 12.9984Z" fill="#FCE4A4"/>
<path d="M8.33979 13.6113L8.49408 13.7956L8.10836 14.4127C8.0655 14.477 8.08265 14.5156 8.15122 14.5327C8.26693 14.5584 8.37836 14.5627 8.49408 14.5327C8.50265 14.5327 8.5155 14.5284 8.52408 14.5156C8.53293 14.506 8.53888 14.4941 8.54122 14.4813C8.56265 14.3827 8.61836 14.3356 8.72122 14.3399C8.74693 14.3399 8.76408 14.3313 8.77693 14.3056C8.79756 14.2681 8.81203 14.2276 8.81979 14.1856C8.84122 14.2327 8.8755 14.2799 8.92693 14.3141C8.94408 14.3313 8.94836 14.3484 8.93122 14.3656C8.89722 14.4047 8.85253 14.433 8.80265 14.447C8.7855 14.4513 8.78122 14.4641 8.78122 14.4813C8.78122 14.4899 8.78122 14.4941 8.77265 14.5027C8.766 14.5085 8.76094 14.5158 8.75794 14.5241C8.75494 14.5323 8.7541 14.5412 8.7555 14.5499C8.7572 14.5576 8.76084 14.5649 8.76609 14.5709C8.77133 14.5769 8.77801 14.5814 8.7855 14.5841C8.9526 14.6538 9.11835 14.7267 9.28265 14.8027C9.56122 14.9356 9.68122 15.1027 9.56122 15.4113C9.54836 15.4413 9.55265 15.467 9.56979 15.4841C9.58693 15.4927 9.5955 15.4927 9.5955 15.4713C9.59979 15.4499 9.60836 15.4413 9.6255 15.4541C9.8655 15.617 9.99408 15.4756 10.2255 15.4499C10.4226 15.4284 10.5769 15.3727 10.7698 15.3899C11.0441 15.4113 11.3141 15.4499 11.5841 15.5056C11.7298 15.5313 11.9141 15.5056 12.1412 15.4284C12.2226 15.4027 12.3126 15.3856 12.4069 15.377C12.5569 15.3684 12.7026 15.317 12.8484 15.317C13.0155 15.317 13.1184 15.2227 13.2598 15.167C13.287 15.1561 13.3167 15.1531 13.3455 15.1584C13.4569 15.1799 13.5598 15.167 13.6626 15.1284C13.7312 15.1284 13.7912 15.0984 13.8555 15.0384C13.8855 15.0084 13.8984 15.017 13.8855 15.0556C13.8598 15.1456 13.7912 15.1841 13.6755 15.1756C13.5458 15.1649 13.4153 15.1812 13.2922 15.2232C13.1691 15.2652 13.0559 15.3322 12.9598 15.4199C12.9496 15.4294 12.9373 15.4364 12.9239 15.4401C12.9104 15.4439 12.8963 15.4443 12.8826 15.4413C12.8575 15.4348 12.8312 15.4333 12.8055 15.437C12.7798 15.4407 12.755 15.4494 12.7326 15.4627C12.707 15.4783 12.6766 15.4843 12.6469 15.4799C12.3555 15.4499 12.1198 15.527 11.8284 15.557C11.7169 15.5656 11.6055 15.5913 11.4984 15.6299C11.2584 15.7156 10.7698 15.6084 10.4484 15.6427C10.421 15.6461 10.3955 15.6581 10.3755 15.677C10.3112 15.737 10.2469 15.7884 10.1698 15.8313C10.151 15.8402 10.1358 15.8553 10.1269 15.8741C10.1232 15.8852 10.1217 15.8968 10.1226 15.9084C10.1226 15.9299 10.1098 15.9427 10.0884 15.9384L9.60408 15.8699C9.56122 15.8656 9.54408 15.8399 9.54836 15.8013C9.55693 15.6213 9.47979 15.5141 9.3255 15.4841L8.48979 15.3041C8.38265 15.2827 8.32693 15.2184 8.21979 15.1799C8.19548 15.1706 8.17456 15.1541 8.15979 15.1327C8.05576 14.9735 7.90861 14.8472 7.7355 14.7684C7.5855 14.6999 7.54693 14.6356 7.4355 14.5284C7.3983 14.4926 7.3597 14.4583 7.31979 14.4256C7.2073 14.3297 7.11042 14.217 7.03265 14.0913C6.91693 13.9156 6.76265 13.8213 6.56122 13.8084C6.6555 13.6799 6.79693 13.607 6.98979 13.5941C7.01979 13.5941 7.0455 13.5813 7.06693 13.5641C7.25122 13.4184 7.71836 13.427 7.93693 13.4613C8.00122 13.4699 8.13408 13.5213 8.33979 13.6113Z" fill="#F8CD81"/>
<path d="M8.49408 13.7956L8.8455 14.087C8.84359 14.1212 8.83485 14.1548 8.81979 14.1856C8.81122 14.2284 8.79836 14.2713 8.77693 14.3056C8.77196 14.3161 8.76405 14.3249 8.75416 14.331C8.74427 14.3371 8.73283 14.3401 8.72122 14.3399C8.61836 14.3356 8.56265 14.3827 8.54122 14.4813C8.54122 14.4941 8.53265 14.507 8.52408 14.5156C8.51506 14.526 8.50311 14.5335 8.48979 14.537C8.37836 14.5627 8.26693 14.5584 8.1555 14.5327C8.08265 14.5156 8.06979 14.477 8.10836 14.4127L8.49408 13.7956Z" fill="#E7CFDD"/>
<path d="M6.52693 13.8513C6.50068 13.8826 6.4856 13.9218 6.48408 13.9627C6.43693 13.9927 6.42836 14.0056 6.45836 14.0056C6.3941 14.0255 6.33734 14.0643 6.2955 14.117C6.28755 14.1263 6.2777 14.1338 6.26661 14.139C6.25552 14.1441 6.24345 14.1469 6.23122 14.147C6.18408 14.147 6.14979 14.1684 6.13693 14.2113C6.12751 14.2357 6.10912 14.2557 6.0855 14.267C6.05979 14.2799 6.04265 14.2927 6.03408 14.3099C5.99122 14.3956 5.9355 14.4813 5.8755 14.5584C5.85698 14.58 5.8464 14.6072 5.8455 14.6356C5.8455 14.7684 5.71693 14.8156 5.71693 14.9784C5.71693 15.0041 5.71265 15.0299 5.6955 15.047C5.63979 15.1156 5.62693 15.1884 5.66979 15.2613C5.74693 15.4113 5.7855 15.5484 5.77693 15.6727C5.77693 15.6984 5.77693 15.7241 5.79408 15.7413C5.84122 15.8056 5.86265 15.9127 5.88408 15.9599C5.93122 16.0499 5.98265 16.1356 6.04265 16.217C6.13693 16.3627 6.15836 16.5813 6.41122 16.607C6.43693 16.607 6.46265 16.6199 6.48408 16.637L6.72408 16.817C6.7455 16.8341 6.7755 16.8427 6.80979 16.8384C6.88693 16.8256 6.93407 16.8641 6.94693 16.9456C6.94965 16.9619 6.95609 16.9773 6.96575 16.9907C6.97542 17.0041 6.98805 17.015 7.00265 17.0227C7.06693 17.0527 7.11408 17.0999 7.14836 17.1641C7.16122 17.1899 7.18265 17.207 7.20836 17.2113C7.31122 17.2413 7.39693 17.297 7.4655 17.3784C7.48265 17.3999 7.50836 17.417 7.53408 17.4213L9.11979 17.687C9.07693 17.7341 9.07265 17.7899 9.10265 17.8456C9.20122 18.0384 9.34693 18.2013 9.53122 18.3256C10.0026 18.6427 10.7184 18.5227 11.2069 18.2999C11.3269 18.2441 11.4212 18.257 11.5455 18.227C11.7598 18.1799 11.9569 18.2441 12.1455 18.2056C12.5521 18.1251 12.9738 18.1809 13.3455 18.3641H12.9255C12.9133 18.3643 12.9012 18.367 12.8901 18.3722C12.879 18.3774 12.8692 18.3848 12.8612 18.3941L12.8355 18.4241C12.8172 18.4424 12.7927 18.4531 12.7669 18.4541C12.6384 18.4627 12.5226 18.5056 12.4241 18.5827C12.4141 18.5909 12.4024 18.5968 12.3898 18.5999L11.9612 18.6941H11.9355C11.8241 18.6684 11.7426 18.707 11.7041 18.8141C11.7017 18.8197 11.7008 18.8258 11.7016 18.8319C11.7023 18.8379 11.7047 18.8436 11.7084 18.8484C11.7123 18.8536 11.7176 18.8575 11.7236 18.8598C11.7297 18.8621 11.7363 18.8626 11.7426 18.8613C11.7641 18.8613 11.7769 18.8656 11.7855 18.8827C11.7881 18.8873 11.7895 18.8925 11.7895 18.8977C11.7895 18.903 11.7881 18.9082 11.7855 18.9127C11.7831 18.9163 11.7799 18.9193 11.7762 18.9215C11.7725 18.9237 11.7684 18.9251 11.7641 18.9256C11.7011 18.926 11.6392 18.9422 11.5841 18.9727C10.2984 18.9299 9.00836 18.6727 7.84265 18.1113C7.12265 17.7684 6.49693 17.4127 6.03836 16.8984C5.69679 16.5522 5.44646 16.1266 5.30979 15.6599C5.4255 15.6599 5.44693 15.5313 5.37408 15.2741C5.40836 15.3041 5.44693 15.317 5.49408 15.317C5.4974 15.317 5.50068 15.3162 5.50366 15.3147C5.50663 15.3133 5.50922 15.3111 5.51122 15.3084C5.5131 15.3052 5.51409 15.3015 5.51409 15.2977C5.51409 15.294 5.5131 15.2903 5.51122 15.287C5.51122 15.2741 5.51979 15.2613 5.5455 15.257H5.58836L5.59693 15.2784L5.60122 15.2784C5.60026 15.2565 5.59592 15.2348 5.58836 15.2141C5.55408 15.1199 5.57979 15.0427 5.66122 14.9999C5.68693 14.9827 5.6955 14.957 5.67836 14.9313C5.65693 14.9013 5.66122 14.867 5.68693 14.8327C5.69979 14.8113 5.72122 14.7899 5.74693 14.7727C5.77265 14.7513 5.78979 14.7213 5.79408 14.6784C5.81122 14.4984 5.93122 14.3141 6.04265 14.1813C6.16693 14.0399 6.36408 13.967 6.52693 13.8513Z" fill="#CCB099"/>
<path d="M9.45836 16.0413C9.44232 16.0566 9.43051 16.0758 9.42408 16.097L9.38122 16.2127C9.19693 16.3199 9.10265 16.457 9.09408 16.6199C9.09408 16.6927 9.11979 16.7056 9.18408 16.6627C9.22036 16.6311 9.25082 16.5934 9.27408 16.5513C9.29979 16.5213 9.33407 16.5084 9.38979 16.5084C9.4155 16.5084 9.43265 16.4913 9.43265 16.4656C9.43496 16.4543 9.43496 16.4426 9.43265 16.4313C9.42408 16.397 9.43693 16.3884 9.47122 16.397C9.5055 16.4099 9.53122 16.4056 9.55693 16.3841C9.59979 16.367 9.62979 16.3327 9.6555 16.2856C9.74979 16.3156 9.82693 16.3027 9.8955 16.2427C9.88794 16.2667 9.87519 16.2888 9.85816 16.3073C9.84112 16.3258 9.82022 16.3403 9.79693 16.3499C9.77979 16.3584 9.77979 16.3627 9.79693 16.3713C9.85693 16.397 9.89979 16.4356 9.91693 16.4999C9.9255 16.517 9.91693 16.5256 9.89979 16.5299L9.78836 16.5599C9.8055 16.5384 9.81408 16.517 9.80979 16.4999C9.8055 16.4527 9.77979 16.4356 9.73265 16.457C9.57836 16.5256 9.20122 16.8084 9.23122 17.0056L9.22265 16.9713C9.21836 16.9284 9.20979 16.9284 9.19265 16.9713L9.17122 17.0399C9.1666 17.053 9.15783 17.0643 9.14623 17.072C9.13464 17.0798 9.12085 17.0835 9.10693 17.0827C8.92693 17.0699 8.76408 17.0613 8.57979 17.0227C8.30982 16.9626 8.03169 16.9481 7.75693 16.9799C7.61122 16.997 7.47836 16.8813 7.30265 16.9284C7.29074 16.9321 7.27806 16.9324 7.26598 16.9294C7.2539 16.9264 7.24287 16.9201 7.23408 16.9113C7.19883 16.8755 7.1543 16.8503 7.1055 16.8384C7.07598 16.8325 7.04903 16.8175 7.02836 16.7956C6.87675 16.6296 6.68908 16.5005 6.47979 16.4184C6.39836 16.3884 6.35122 16.3284 6.2655 16.2813C6.07693 16.1784 6.12836 15.9556 5.97408 15.8099C5.93122 15.7713 5.88836 15.7241 5.85836 15.677C5.84323 15.6558 5.83568 15.6302 5.83693 15.6041C5.88836 14.9356 6.20122 14.5456 6.45836 14.0013C6.42836 14.0056 6.43693 13.9927 6.48408 13.9584L6.59979 13.8856C6.6255 13.8727 6.64693 13.877 6.66836 13.8941C6.73748 13.9586 6.79928 14.0304 6.85265 14.1084C6.90408 14.1813 6.95979 14.2499 7.02408 14.3227C7.1055 14.3999 7.16979 14.4941 7.2255 14.597C7.23836 14.6227 7.2555 14.6399 7.28122 14.657C7.58979 14.8713 7.88122 15.1113 8.15122 15.3727C8.1855 15.407 8.26693 15.4584 8.3955 15.5227C8.54979 15.5999 8.72122 15.617 8.89265 15.6599C9.07693 15.707 9.23979 15.8184 9.42408 15.8956C9.45836 15.9084 9.47979 15.9256 9.48836 15.947C9.5055 15.9813 9.49265 16.0156 9.45836 16.0413Z" fill="#F3EADD"/>
<path d="M13.7012 15.0856C13.6669 15.107 13.6541 15.1241 13.6584 15.1284C13.5641 15.167 13.4569 15.1799 13.3412 15.1584C13.3124 15.1531 13.2827 15.1561 13.2555 15.167C13.1184 15.2227 13.0155 15.3127 12.8441 15.317C12.6984 15.317 12.5569 15.3684 12.4069 15.377C12.3084 15.3856 12.2226 15.4027 12.1412 15.4284C11.9141 15.5056 11.7298 15.5313 11.5841 15.5056C11.3141 15.4499 11.0441 15.4113 10.7698 15.3899C10.5769 15.3727 10.4226 15.4284 10.2255 15.4499C9.99408 15.4756 9.86122 15.617 9.6255 15.4499L9.62979 15.4156C9.62979 15.4113 9.62979 15.407 9.63836 15.407L9.66408 15.407C9.68122 15.407 9.6855 15.3984 9.68122 15.3856C9.64693 15.2656 9.68122 15.1884 9.79693 15.1499C9.825 15.1411 9.8492 15.1229 9.8655 15.0984C10.0069 14.8927 10.1184 14.6313 10.2941 14.4813C10.8169 14.027 12.0212 13.7613 12.6555 14.0013C13.1612 14.1899 13.4784 14.3441 13.6155 14.4599C13.8598 14.6741 13.8898 14.8799 13.7012 15.0856Z" fill="#D9913B"/>
<path d="M6.45836 14.0013C6.20122 14.5456 5.88836 14.9356 5.83693 15.6041C5.83693 15.6299 5.84122 15.6556 5.85836 15.677C5.88836 15.7284 5.93122 15.7713 5.97408 15.8141C6.12836 15.9556 6.07693 16.1784 6.2655 16.2813C6.35122 16.3241 6.39836 16.3884 6.47979 16.4184C6.69408 16.5041 6.87408 16.6284 7.02836 16.7956C7.0455 16.817 7.07122 16.8341 7.10122 16.8384C7.15265 16.8513 7.1955 16.8727 7.23408 16.9113C7.24287 16.9201 7.2539 16.9264 7.26598 16.9294C7.27806 16.9324 7.29074 16.9321 7.30265 16.9284C7.47408 16.8813 7.61122 16.997 7.75693 16.9799C8.0355 16.9456 8.30979 16.9627 8.57979 17.0227C8.76836 17.0656 8.92265 17.0699 9.10693 17.0827C9.12098 17.0843 9.13513 17.0809 9.14689 17.073C9.15865 17.0652 9.16727 17.0534 9.17122 17.0399L9.19265 16.967C9.20979 16.9284 9.21836 16.9327 9.22265 16.9713L9.23122 17.0056C9.25265 17.027 9.27836 17.0184 9.30836 16.9841C9.35979 16.9156 9.4155 16.8641 9.47122 16.8299C9.49647 16.814 9.51715 16.7919 9.53122 16.7656C9.55821 16.7159 9.59486 16.6721 9.63902 16.6368C9.68318 16.6014 9.73395 16.5753 9.78836 16.5599L9.89979 16.5299C9.91693 16.5256 9.9255 16.517 9.91693 16.4999C9.90825 16.4706 9.89289 16.4438 9.87206 16.4215C9.85124 16.3991 9.82552 16.382 9.79693 16.3713C9.77979 16.3627 9.77979 16.3584 9.79693 16.3499C9.82022 16.3403 9.84112 16.3258 9.85816 16.3073C9.87519 16.2888 9.88794 16.2667 9.8955 16.2427C10.0541 16.097 10.2341 15.9856 10.4269 15.8999L10.4955 15.857C10.5812 15.7799 10.8041 15.767 10.9241 15.737C10.9669 15.7584 10.9969 15.7456 11.0098 15.7113C11.2026 15.6727 11.2798 15.7027 11.2455 15.8013C11.1726 15.8656 11.0998 15.9041 11.0312 15.917C10.9841 15.9255 10.9412 15.9496 10.9094 15.9853C10.8775 16.021 10.8586 16.0664 10.8555 16.1141C10.8212 16.4656 10.7869 16.6284 11.0355 16.9113C11.0441 17.0099 11.0698 17.1084 11.1126 17.1984C11.1255 17.2241 11.1255 17.2499 11.1126 17.2713L10.8426 17.7856C10.8332 17.804 10.8182 17.819 10.7998 17.8284C10.6584 17.897 10.5598 17.9356 10.3926 18.0256C10.1998 18.1284 9.94265 18.0856 9.72836 18.0899C9.5355 17.9956 9.40265 17.8327 9.31693 17.6056C9.31448 17.5965 9.31016 17.5879 9.30426 17.5806C9.29836 17.5732 9.29101 17.5671 9.28265 17.5627C9.27454 17.5592 9.26578 17.5574 9.25693 17.5574C9.24808 17.5574 9.23933 17.5592 9.23122 17.5627C9.19693 17.5799 9.16265 17.6184 9.12408 17.687L7.53836 17.4213C7.50814 17.4173 7.48056 17.402 7.46122 17.3784C7.39693 17.2927 7.31122 17.2413 7.20408 17.2113C7.19189 17.208 7.18058 17.2021 7.17095 17.1939C7.16132 17.1858 7.15361 17.1756 7.14836 17.1641C7.1166 17.1023 7.06541 17.0526 7.00265 17.0227C6.98805 17.015 6.97542 17.0041 6.96575 16.9907C6.95609 16.9773 6.94965 16.9619 6.94693 16.9456C6.93407 16.8599 6.88693 16.8256 6.8055 16.8384C6.7755 16.8384 6.7455 16.8341 6.71979 16.817L6.48408 16.637C6.46312 16.6203 6.43786 16.6099 6.41122 16.607C6.15408 16.5813 6.13693 16.3627 6.04265 16.2213C5.98265 16.1356 5.93122 16.0499 5.88408 15.9641C5.86265 15.9127 5.84122 15.8056 5.79836 15.7413C5.78321 15.7218 5.7756 15.6974 5.77693 15.6727C5.7855 15.5441 5.74693 15.4113 5.66979 15.2613C5.62693 15.1884 5.63979 15.1156 5.6955 15.047C5.71265 15.0299 5.72122 15.0041 5.72122 14.9784C5.72122 14.8156 5.8455 14.7684 5.84979 14.6356C5.84979 14.6056 5.85836 14.5799 5.8755 14.5584C5.9355 14.4813 5.99122 14.3956 6.03408 14.3099C6.04265 14.2927 6.05979 14.2799 6.0855 14.267C6.11122 14.2541 6.12836 14.237 6.13693 14.2113C6.14979 14.1684 6.17979 14.1513 6.23122 14.147C6.24345 14.1469 6.25552 14.1441 6.26661 14.139C6.2777 14.1338 6.28755 14.1263 6.2955 14.117C6.33836 14.0613 6.38979 14.0227 6.45836 14.0013Z" fill="#E2D0BC"/>
<path d="M12.8226 15.7713C13.1184 15.8656 13.3712 16.157 13.3669 16.487C13.3669 16.517 13.3541 16.5427 13.3284 16.5599C13.2384 16.6327 13.1741 16.7313 13.1398 16.8556C13.1348 16.8573 13.1303 16.8601 13.1266 16.8638C13.1229 16.8675 13.1201 16.872 13.1184 16.877L12.8698 17.0013C12.8558 17.0076 12.8435 17.0171 12.8338 17.029C12.8241 17.0409 12.8174 17.0549 12.8141 17.0699L12.7798 17.2284C12.7755 17.2456 12.7669 17.2584 12.7541 17.2713L12.3041 17.597C12.2784 17.6141 12.2612 17.6399 12.2612 17.6699C12.2312 17.9356 12.4969 17.9741 12.7026 17.9613H12.7284C12.7345 17.9648 12.7396 17.9698 12.7434 17.9757C12.7471 17.9817 12.7493 17.9885 12.7498 17.9956C12.7541 18.0127 12.7669 18.0213 12.7884 18.0213C12.9598 17.9956 13.1055 18.0127 13.2426 18.0641C13.5212 18.1841 13.7998 18.2184 14.0826 18.167L14.2155 18.1584C14.5284 18.197 14.6312 17.8927 14.7984 17.7127C14.8798 17.657 14.9398 17.6313 14.9784 17.6399C14.8541 17.9056 14.6869 18.3384 14.3826 18.377C14.1341 18.4113 13.7912 18.407 13.3455 18.3641C12.9738 18.1809 12.5521 18.1251 12.1455 18.2056C11.9569 18.2441 11.7598 18.1799 11.5455 18.227C11.4212 18.2527 11.3312 18.2441 11.2069 18.2999C10.7184 18.5227 10.0069 18.6427 9.5355 18.3256C9.34693 18.197 9.20122 18.0384 9.10265 17.8456C9.07265 17.7899 9.07693 17.7341 9.12408 17.687C9.16265 17.6184 9.19693 17.5799 9.23122 17.567C9.23935 17.5636 9.24809 17.5619 9.25691 17.562C9.26572 17.5621 9.27442 17.564 9.28246 17.5677C9.2905 17.5713 9.2977 17.5765 9.30363 17.583C9.30957 17.5896 9.31409 17.5972 9.31693 17.6056C9.40265 17.8327 9.5355 17.9913 9.72408 18.0899C10.0241 18.227 10.2855 18.2784 10.5084 18.2356L11.6269 18.0427C11.6526 18.0384 11.6698 18.0256 11.6826 18.0127L11.8412 17.8284C11.8674 17.8 11.8823 17.7629 11.8831 17.7242C11.8839 17.6856 11.8705 17.6479 11.8455 17.6184C11.7169 17.4684 11.5584 17.3484 11.3569 17.2627C11.1726 17.1813 11.0998 17.0913 11.0355 16.9113C10.7869 16.6284 10.8212 16.4656 10.8512 16.1099C10.8543 16.0621 10.8733 16.0167 10.9051 15.981C10.9369 15.9453 10.9798 15.9212 11.0269 15.9127C11.0998 15.9041 11.1726 15.8656 11.2455 15.8013C11.7641 15.6866 12.3006 15.6778 12.8226 15.7756V15.7713Z" fill="#382B2B"/>
<path d="M9.45836 16.0413C9.55693 16.0713 9.6255 16.157 9.6555 16.2856C9.63334 16.3276 9.59898 16.362 9.55693 16.3841L9.53122 16.3841C9.50979 16.3799 9.49693 16.3627 9.49693 16.3413V16.2684C9.49765 16.2534 9.49398 16.2386 9.48637 16.2256C9.47876 16.2127 9.46753 16.2022 9.45407 16.1956C9.41979 16.1784 9.41122 16.1484 9.42408 16.097C9.43051 16.0758 9.44232 16.0566 9.45836 16.0413Z" fill="#846859"/>
<path d="M9.42408 16.097C9.41122 16.1484 9.41979 16.1827 9.45407 16.1956C9.46753 16.2022 9.47876 16.2127 9.48637 16.2256C9.49398 16.2386 9.49765 16.2534 9.49693 16.2684V16.337C9.49693 16.3627 9.50979 16.3799 9.53122 16.3841L9.55693 16.3841C9.53122 16.4056 9.5055 16.4099 9.47122 16.397C9.43693 16.3884 9.42836 16.397 9.43265 16.4313C9.43496 16.4426 9.43496 16.4543 9.43265 16.4656C9.43265 16.4913 9.4155 16.5084 9.38979 16.5084C9.33408 16.5084 9.2955 16.5213 9.27408 16.5513C9.25235 16.5213 9.24038 16.4854 9.23979 16.4484C9.23979 16.4227 9.24836 16.4184 9.27408 16.427C9.28693 16.4313 9.2955 16.4441 9.30408 16.4613C9.30408 16.4699 9.31265 16.4784 9.31693 16.4827L9.33836 16.4956C9.3555 16.4956 9.36836 16.4913 9.37693 16.4784L9.40265 16.4184L9.37693 16.2127L9.41979 16.097H9.42408Z" fill="#CCB099"/>
<path d="M14.5112 16.1141C14.521 16.1095 14.5321 16.1086 14.5424 16.1118C14.5528 16.115 14.5615 16.1219 14.5669 16.1313L14.5841 16.1613C14.5867 16.1682 14.5867 16.1758 14.5841 16.1827L14.5798 16.1913L14.5712 16.1999C14.427 16.2574 14.2958 16.3434 14.1855 16.4527C14.1341 16.4999 14.1126 16.4913 14.1298 16.4227C14.1512 16.2984 14.2798 16.1956 14.5155 16.1099L14.5112 16.1141ZM9.37693 16.2127L9.40265 16.4184L9.37693 16.4784C9.36836 16.4913 9.3555 16.4956 9.33836 16.4956C9.33019 16.4933 9.32279 16.4889 9.31693 16.4827C9.31061 16.477 9.30614 16.4696 9.30408 16.4613C9.2955 16.4441 9.28693 16.4313 9.27408 16.427C9.24836 16.4184 9.23979 16.427 9.23979 16.4484C9.23979 16.4784 9.24836 16.5127 9.27408 16.5513C9.25124 16.5949 9.22076 16.6341 9.18408 16.667C9.11979 16.7099 9.08979 16.6927 9.09408 16.6241C9.10265 16.4527 9.19693 16.3241 9.37693 16.2127ZM9.78836 16.5599C9.73395 16.5753 9.68318 16.6014 9.63902 16.6368C9.59486 16.6721 9.55821 16.7159 9.53122 16.7656C9.51715 16.7919 9.49647 16.814 9.47122 16.8299C9.4155 16.8641 9.35979 16.9156 9.30836 16.9841C9.27836 17.0184 9.25265 17.027 9.23122 17.0056C9.20122 16.8084 9.57836 16.5256 9.73265 16.457C9.7755 16.4356 9.8055 16.4527 9.80979 16.4999C9.80979 16.5213 9.8055 16.5384 9.78836 16.5599Z" fill="#846859"/>
<path d="M14.1255 16.8856C14.1244 16.8863 14.1232 16.8868 14.1219 16.8869C14.1206 16.8871 14.1193 16.887 14.118 16.8866C14.1168 16.8862 14.1157 16.8855 14.1147 16.8846C14.1138 16.8836 14.1131 16.8825 14.1126 16.8813C14.1054 16.8619 14.1054 16.8406 14.1126 16.8213C14.1169 16.7999 14.1298 16.7784 14.1469 16.7527L14.2198 16.6841C14.2498 16.667 14.2798 16.6456 14.3184 16.6327L14.3998 16.5941C14.4341 16.5813 14.4684 16.5684 14.5026 16.5641C14.535 16.5569 14.5681 16.554 14.6012 16.5556C14.6312 16.5556 14.6569 16.5641 14.6784 16.5727C14.6974 16.5813 14.7126 16.5965 14.7212 16.6156V16.6241L14.7126 16.6327L14.1255 16.8899V16.8856Z" fill="#CCB099"/>
<path d="M13.1398 16.8556C13.1226 17.0013 13.1955 17.0699 13.3541 17.057C13.3701 17.0539 13.3868 17.0555 13.4019 17.0616C13.4171 17.0677 13.4303 17.078 13.4398 17.0913C13.4526 17.1127 13.4612 17.1427 13.4569 17.1727C13.4548 17.1847 13.4552 17.197 13.4581 17.2089C13.4611 17.2207 13.4665 17.2317 13.4741 17.2413C13.5598 17.3484 13.6712 17.4341 13.7998 17.4899C13.8255 17.4984 13.8426 17.5156 13.8598 17.5327C13.9412 17.6099 14.0312 17.657 14.1384 17.6656C14.1641 17.6699 14.1898 17.6784 14.2112 17.6956C14.4469 17.8456 14.5926 17.7041 14.7984 17.7127C14.6355 17.8927 14.5326 18.197 14.2155 18.1584C14.1726 18.0984 14.0998 18.0727 14.0055 18.0899C13.9919 18.0925 13.9778 18.0919 13.9644 18.0882C13.951 18.0845 13.9387 18.0777 13.9284 18.0684L13.7312 17.9056C13.7184 17.8927 13.7098 17.8713 13.7098 17.8413C13.7115 17.8166 13.7039 17.7921 13.6884 17.7727C13.6198 17.6956 13.5598 17.6141 13.4998 17.5327C13.3669 17.3484 13.1612 17.2627 13.1141 16.9756L13.1226 16.877C13.1226 16.8684 13.1269 16.8599 13.1398 16.8556Z" fill="#E2D0BC"/>
<path d="M13.1184 16.877V16.9756L13.0926 16.9799C13.0841 16.9799 13.0798 16.9841 13.0755 16.9927C12.9512 17.2584 12.7241 17.4041 12.8912 17.7341C12.9041 17.7599 12.9255 17.777 12.9555 17.7899C12.9941 17.8027 13.0198 17.8284 13.0369 17.8627C13.0498 17.8884 13.0669 17.9056 13.0969 17.9141C13.1655 17.9399 13.2084 17.9999 13.2598 18.0299C13.5726 18.197 13.7741 18.1499 14.0826 18.167C13.7998 18.2184 13.5255 18.1841 13.2426 18.0684C13.0982 18.0121 12.9413 17.9958 12.7884 18.0213C12.7669 18.0213 12.7541 18.0127 12.7498 17.9956C12.7487 17.9893 12.7462 17.9833 12.7425 17.9782C12.7388 17.973 12.7339 17.9687 12.7284 17.9656C12.7241 17.9613 12.7155 17.957 12.7026 17.9613C12.4969 17.9741 12.2312 17.9356 12.2612 17.6699C12.2612 17.6399 12.2784 17.6141 12.3041 17.597L12.7541 17.267C12.7671 17.2578 12.7763 17.244 12.7798 17.2284L12.8184 17.0699C12.8212 17.0553 12.8273 17.0416 12.8362 17.0297C12.8451 17.0178 12.8566 17.0081 12.8698 17.0013L13.1184 16.877ZM11.0355 16.9113C11.0998 17.0913 11.1726 17.1813 11.3569 17.2627C11.5584 17.3484 11.7212 17.4684 11.8455 17.6184C11.8711 17.6474 11.8852 17.6848 11.8852 17.7234C11.8852 17.7621 11.8711 17.7994 11.8455 17.8284L11.6826 18.0127C11.6692 18.028 11.6512 18.0385 11.6312 18.0427C11.2541 18.1027 10.8812 18.167 10.5084 18.2356C10.2396 18.2676 9.96745 18.2168 9.72836 18.0899C9.94265 18.0899 10.1998 18.1284 10.3969 18.0256C10.5598 17.9399 10.6541 17.897 10.7955 17.8327C10.8155 17.824 10.8321 17.809 10.8426 17.7899L11.1126 17.2756C11.1194 17.2638 11.123 17.2505 11.123 17.237C11.123 17.2235 11.1194 17.2102 11.1126 17.1984C11.0698 17.1084 11.0441 17.0099 11.0355 16.9113Z" fill="#846859"/>
<path d="M13.1141 16.9756C13.1612 17.2627 13.3669 17.3484 13.4998 17.5327C13.5598 17.6184 13.6198 17.6956 13.6884 17.7727C13.7012 17.7941 13.7098 17.8156 13.7098 17.8413C13.7098 17.8713 13.7184 17.8927 13.7312 17.9056L13.9284 18.0684C13.9498 18.0856 13.9755 18.0941 14.0055 18.0899C14.0998 18.0727 14.1684 18.0984 14.2155 18.1584L14.0826 18.167C13.7741 18.1499 13.5726 18.197 13.2598 18.0299C13.2084 18.0041 13.1655 17.9399 13.0969 17.9141C13.0839 17.9102 13.0719 17.9036 13.0616 17.8947C13.0512 17.8859 13.0428 17.875 13.0369 17.8627C13.0293 17.8455 13.0181 17.8301 13.0041 17.8175C12.99 17.805 12.9735 17.7955 12.9555 17.7899C12.9276 17.7805 12.9044 17.7605 12.8912 17.7341C12.7241 17.4041 12.9512 17.2584 13.0755 16.9927C13.0755 16.9841 13.0841 16.9799 13.0926 16.9799L13.1141 16.9799L13.1141 16.9756Z" fill="#CCB099"/>
<path d="M9.24836 17.1599L9.3855 17.0827C9.43693 17.057 9.44979 17.0699 9.42408 17.1256C9.3855 17.2027 9.33408 17.2499 9.26122 17.2584C9.20979 17.267 9.18408 17.2456 9.18408 17.1984C9.18408 17.177 9.19265 17.1684 9.21408 17.1641H9.24836V17.1599Z" fill="#382B2B"/>
<path d="M9.43265 17.357C9.40693 17.3399 9.40693 17.3227 9.43265 17.3056C9.47645 17.2737 9.52589 17.2504 9.57836 17.237C9.66408 17.2156 9.69408 17.2456 9.67265 17.327C9.65122 17.4299 9.56979 17.4384 9.43265 17.3527V17.357Z" fill="#846859"/>
<path d="M14.9784 17.6399L14.9869 17.7256C14.9869 17.7513 15.0041 17.7684 15.0298 17.7813C15.4669 17.9827 15.7412 17.9441 16.2169 17.897C16.2555 17.897 16.2598 17.9056 16.2341 17.9356C16.1441 18.0341 16.0626 18.1027 15.9941 18.1327C14.6084 18.7534 13.0966 19.041 11.5798 18.9727C11.6366 18.943 11.7 18.9283 11.7641 18.9299L11.7762 18.9215C11.7828 18.9178 11.7885 18.9117 11.7909 18.9045C11.7933 18.8974 11.7929 18.8896 11.7898 18.8827C11.7769 18.8656 11.7641 18.857 11.7426 18.8613C11.7363 18.8626 11.7297 18.8621 11.7236 18.8598C11.7176 18.8575 11.7123 18.8536 11.7084 18.8484C11.7047 18.8436 11.7023 18.8379 11.7016 18.8319C11.7008 18.8258 11.7017 18.8197 11.7041 18.8141C11.7469 18.707 11.8241 18.6684 11.9355 18.6941H11.9655L12.3898 18.5999C12.4024 18.5968 12.4141 18.5909 12.4241 18.5827C12.5226 18.5056 12.6384 18.4627 12.7669 18.4541C12.7926 18.4541 12.8184 18.4413 12.8355 18.4241L12.8612 18.3941C12.8696 18.3856 12.8796 18.3789 12.8906 18.3745C12.9017 18.3701 12.9136 18.368 12.9255 18.3684L13.3455 18.3641C13.7912 18.407 14.1341 18.407 14.3826 18.377C14.6826 18.3384 14.8541 17.9056 14.9784 17.6399Z" fill="#E2D0BC"/>
</svg>
