<svg width="24" height="24" viewBox="0 0 24 24" fill="none" xmlns="http://www.w3.org/2000/svg">
<path d="M11.9999 21.4115C17.1978 21.4115 21.4117 17.1978 21.4117 11.9998C21.4117 6.80179 17.1978 2.58801 11.9999 2.58801C6.80193 2.58801 2.58813 6.80179 2.58813 11.9998C2.58813 17.1978 6.80193 21.4115 11.9999 21.4115Z" fill="url(#paint0_linear_364_950)"/>
<path d="M21.4117 11.9998C21.4117 6.80179 17.1978 2.58801 11.9999 2.58801C6.80193 2.58801 2.58813 6.80179 2.58813 11.9998C2.58813 17.1978 6.80193 21.4115 11.9999 21.4115C17.1978 21.4115 21.4117 17.1978 21.4117 11.9998Z" fill="url(#paint1_linear_364_950)"/>
<path d="M10.2346 6.11764H11.9993V17.2941H10.2346V6.11764ZM17.7581 3.17647L16.717 2.08235L16.6522 2C14.4133 4.83568 13.1893 8.33992 13.1759 11.9529C13.1759 15.7647 14.4993 19.2646 16.7052 22L17.8816 20.8353C15.927 18.2881 14.8738 15.1637 14.8876 11.9529C14.8876 8.67058 15.9522 5.58822 17.7581 3.17647Z" fill="#181B1E"/>
<defs>
<linearGradient id="paint0_linear_364_950" x1="17.4881" y1="3.24977" x2="6.36367" y2="20.571" gradientUnits="userSpaceOnUse">
<stop offset="0.16" stop-color="#FFA3A3"/>
<stop offset="0.59" stop-color="#C50000"/>
<stop offset="1" stop-color="#C50101"/>
</linearGradient>
<linearGradient id="paint1_linear_364_950" x1="14.9411" y1="2.62477" x2="12.3665" y2="6.86521" gradientUnits="userSpaceOnUse">
<stop offset="0.07" stop-color="#FF5353"/>
<stop offset="1" stop-color="#C50101" stop-opacity="0"/>
</linearGradient>
</defs>
</svg>
