<svg width="24" height="24" viewBox="0 0 24 24" fill="none" xmlns="http://www.w3.org/2000/svg">
<path d="M3.9125 6.34373L7.66247 2L13.3375 3.19374L15.0812 8.23748L20.2561 9.33121L22 14.7375L18.3437 19.0812L12.9375 18.05L9.48125 22L3.9125 20.9375L2 15.3999L5.56249 11.2874L3.9125 6.34998V6.34373Z" fill="#2AB643"/>
<path d="M9.63755 7.7125L7.95634 2.80626L12.7563 3.75002L14.275 8.51249L11.1064 12.0062L6.32509 11.1938L9.63755 7.7125ZM16.5438 13.8625L14.8563 8.94999L19.6625 9.89998L21.175 14.6624L18.0063 18.1562L13.2313 17.3437L16.5438 13.8625ZM7.72509 16.9062L6.04384 12L10.8439 12.9499L12.3626 17.7125L9.19379 21.2L4.4126 20.3874L7.72509 16.9062Z" fill="#068210"/>
<path d="M7.98183 12.7062L5.85059 6.26872L8.94433 4.22498L10.7755 9.46245L12.3005 7.62497L12.8818 9.1562L11.2819 11.0937L12.3005 13.8562L17.5256 10.5874L18.3631 12.8375L9.86306 18.1249L8.48808 14.375L7.01933 16.1062L6.45683 14.5L7.98183 12.7062Z" fill="white"/>
</svg>
