<svg width="24" height="24" viewBox="0 0 24 24" fill="none" xmlns="http://www.w3.org/2000/svg">
<path d="M2.00195 13.1766L10.8239 21.9987C10.8239 21.9987 8.35378 17.7758 7.17752 16.5819C6.00125 15.4057 2.00195 13.1766 2.00195 13.1766Z" fill="#5496F8"/>
<path d="M9.05957 10.2361L2.17842 12.0241C2.08432 12.0475 2.03139 12.1182 2.00198 12.2063C1.99022 12.3004 2.03139 12.3828 2.10784 12.4358L6.75409 15.4117C6.94817 15.5469 7.17166 15.5587 7.40103 15.4823C7.62453 15.3999 7.76568 15.2294 7.81861 14.9883L9.05957 10.2361Z" fill="#126BF9"/>
<path d="M13.7641 14.941L12.0291 21.8222C12.0195 21.8663 11.9968 21.9063 11.964 21.9372C11.9313 21.9682 11.8899 21.9885 11.8453 21.9955C11.8009 22.0025 11.7553 21.9958 11.7146 21.9765C11.6739 21.9571 11.64 21.9258 11.6174 21.8868L8.59437 17.2818C8.52759 17.1893 8.48599 17.081 8.47361 16.9677C8.46124 16.8543 8.47853 16.7396 8.52381 16.6349C8.60615 16.4172 8.7767 16.2703 9.00606 16.2055L13.7641 14.941Z" fill="#0037D1"/>
<path d="M9.35335 9.64761L11.4118 2.20179C11.4181 2.16872 11.4148 2.13452 11.4023 2.10326C11.3897 2.07199 11.3686 2.04496 11.3413 2.02535C11.2706 1.98418 11.206 1.99594 11.153 2.05476L2.04872 11.1473C1.98991 11.2002 1.98991 11.2649 2.01931 11.3355C2.06048 11.4002 2.12518 11.4296 2.19576 11.4002L9.35335 9.64761Z" fill="#5496F8"/>
<path d="M14.3525 14.9411L12.5881 21.7987C12.5818 21.8318 12.5851 21.8661 12.5976 21.8972C12.6102 21.9285 12.6313 21.9556 12.6588 21.9752C12.7293 22.0164 12.7939 22.0046 12.8469 21.9458L21.9512 12.8533C22.0099 12.8003 22.0099 12.7357 21.9806 12.665C21.9394 12.6004 21.8748 12.571 21.8041 12.6004L14.3525 14.9411Z" fill="#0127AF"/>
<path d="M14.3525 14.3529L21.2337 12.0475C21.2768 12.0376 21.316 12.0158 21.3473 11.9846C21.3785 11.9535 21.4003 11.9141 21.4102 11.8711C21.4166 11.8308 21.4098 11.7895 21.3907 11.7534C21.3716 11.7173 21.3413 11.6885 21.3044 11.671L16.5875 9.15976C16.4896 9.10559 16.3816 9.07238 16.2702 9.06227C16.1588 9.05214 16.0465 9.06532 15.9406 9.10094C15.717 9.17152 15.5701 9.33618 15.5171 9.54793L14.3525 14.3529Z" fill="#2C4FF9"/>
<path d="M9.94141 9.64824L11.8234 2.19066C11.8469 2.09067 11.9116 2.01422 11.9999 2.00246C12.088 1.99069 12.1762 2.03185 12.2115 2.12008L14.8287 7.26624C14.9464 7.48385 14.9816 7.72499 14.8875 7.972C14.8051 8.21902 14.6523 8.37781 14.4346 8.44839L9.94141 9.64824Z" fill="#78A8F9"/>
<path d="M9.64802 10.2362L14.3941 9.08351C14.3941 9.08351 15.0883 8.88943 14.9118 9.64818C14.7353 10.4009 13.7649 14.3531 13.7649 14.3531L9.05983 15.5177C9.05983 15.5177 8.37173 15.6706 8.48346 14.8708C8.6011 14.0886 9.64802 10.2362 9.64802 10.2362Z" fill="#126BF9"/>
<path d="M12.5879 2.00232L21.9981 11.4125C21.9981 11.4125 17.3283 9.29514 16.158 8.03067C14.9993 6.76031 12.5879 2.00232 12.5879 2.00232Z" fill="#0037D1"/>
</svg>
