<svg width="24" height="24" viewBox="0 0 24 24" fill="none" xmlns="http://www.w3.org/2000/svg">
<path d="M14.0166 3.27776L12.1111 5.2222L12.5 5.6222C12.6031 5.72533 12.743 5.78328 12.8889 5.78328C13.0348 5.78328 13.1747 5.72533 13.2777 5.6222L15.1833 3.67775L14.7944 3.27776C14.6919 3.17308 14.5521 3.11318 14.4055 3.11109C14.3329 3.11152 14.2611 3.12648 14.1942 3.1551C14.1275 3.18372 14.0671 3.22543 14.0166 3.27776ZM9.20001 3.27776L8.81112 3.67221L10.7166 5.6222C10.768 5.67496 10.8293 5.71688 10.897 5.74552C10.9648 5.77415 11.0376 5.7889 11.1111 5.7889C11.1846 5.7889 11.2575 5.77415 11.3253 5.74552C11.3929 5.71688 11.4542 5.67496 11.5056 5.6222L11.8889 5.22776L9.98333 3.28332C9.93304 3.23047 9.87276 3.18807 9.806 3.15851C9.73924 3.12897 9.66742 3.11285 9.59444 3.11109C9.52172 3.11152 9.44991 3.12648 9.38315 3.1551C9.31636 3.18372 9.25598 3.22543 9.20555 3.27776H9.20001ZM15.8111 5.82775L12.2111 9.51105L12.9389 10.2555C13.0356 10.3542 13.151 10.4325 13.2784 10.486C13.4057 10.5394 13.5424 10.567 13.6805 10.567C13.8187 10.567 13.9554 10.5394 14.0827 10.486C14.2102 10.4325 14.3255 10.3542 14.4222 10.2555L18.0166 6.5722L17.2944 5.82775C17.1976 5.72812 17.082 5.6488 16.9542 5.59442C16.8264 5.54004 16.6889 5.51172 16.55 5.51109C16.4109 5.51045 16.2731 5.5382 16.1451 5.59264C16.0171 5.6471 15.9016 5.7271 15.8055 5.82775H15.8111ZM6.71112 5.82775L5.98334 6.5722L9.57772 10.2555C9.67455 10.3542 9.78992 10.4325 9.91722 10.486C10.0446 10.5394 10.1813 10.567 10.3195 10.567C10.4575 10.567 10.5943 10.5394 10.7217 10.486C10.849 10.4325 10.9644 10.3542 11.0611 10.2555L11.7889 9.51105L8.19444 5.82775C8.09766 5.72812 7.98195 5.6488 7.85413 5.59442C7.7263 5.54004 7.58892 5.51172 7.45001 5.51109C7.31183 5.5112 7.17513 5.53931 7.04813 5.59375C6.92113 5.64816 6.80649 5.72778 6.71112 5.82775ZM11.6055 6.05554L11.2222 6.44443L12 6.99998L12.7778 6.44443L12.3889 6.05554C12.2863 5.95086 12.1466 5.89096 12 5.88887C11.8535 5.89096 11.7136 5.95086 11.6111 6.05554H11.6055ZM18.3277 9.41111L12.35 15.5333L13.5611 16.7723C13.7215 16.936 13.9129 17.0661 14.1242 17.1549C14.3355 17.2437 14.5625 17.2895 14.7917 17.2895C15.0209 17.2895 15.2479 17.2437 15.4591 17.1549C15.6704 17.0661 15.8619 16.936 16.0223 16.7723L22 10.65L20.7889 9.41111C20.6289 9.24725 20.438 9.11672 20.2273 9.02714C20.0165 8.93744 19.7901 8.89051 19.5611 8.88883C19.3309 8.88818 19.103 8.93407 18.8911 9.0239C18.6791 9.1136 18.4874 9.24531 18.3277 9.41111ZM3.21112 9.41111L2 10.65L7.97778 16.7667C8.13814 16.9304 8.3296 17.0606 8.5409 17.1493C8.7522 17.2383 8.97912 17.284 9.20834 17.284C9.43759 17.284 9.66444 17.2383 9.87574 17.1493C10.087 17.0606 10.2785 16.9304 10.4389 16.7667L11.65 15.5278L5.67223 9.41668C5.51203 9.25114 5.32045 9.11918 5.10869 9.02857C4.89692 8.93796 4.66923 8.89051 4.43889 8.88883C4.20965 8.88896 3.98278 8.93523 3.77182 9.02494C3.56087 9.11464 3.37017 9.24596 3.21112 9.41111ZM11.2555 10.65L10.5334 11.3944L12 12.5555L13.4722 11.4L12.7444 10.65C12.6476 10.5503 12.532 10.471 12.4042 10.4166C12.2764 10.3623 12.1389 10.3339 12 10.3333C11.7222 10.3333 11.45 10.45 11.2555 10.65ZM10.7667 17.5222L9.56113 18.761L12 20.8889L14.4444 18.761L13.2333 17.5222C12.9111 17.1889 12.4555 17 12 17C11.5445 17 11.0889 17.1889 10.7667 17.5222Z" fill="url(#paint0_linear_364_10046)"/>
<defs>
<linearGradient id="paint0_linear_364_10046" x1="2" y1="11.4699" x2="21.9999" y2="11.5823" gradientUnits="userSpaceOnUse">
<stop stop-color="#7CB7FF"/>
<stop offset="1" stop-color="#BA6DF6"/>
</linearGradient>
</defs>
</svg>
