<svg width="24" height="24" viewBox="0 0 24 24" fill="none" xmlns="http://www.w3.org/2000/svg">
<path fill-rule="evenodd" clip-rule="evenodd" d="M11.9654 20.1426L5.14258 16.0669V7.93693L11.9654 3.85693L18.8569 7.93693V16.0712L11.9654 20.1426ZM13.0754 5.37408L8.92686 7.90265L11.9183 9.66836L16.0497 7.18265L13.0754 5.37408ZM6.85686 13.1869V9.04265L8.43401 8.14693L11.3911 9.93408L9.85686 10.8341V14.8369L6.85686 13.1869ZM6.85686 16.2384V13.6926L9.85686 15.4969V18.0255L6.85686 16.2384ZM12.8569 12.5269V18.6426L13.714 18.0212V13.1784L14.9997 12.4069V17.3998L15.8569 16.7784V11.8798L17.1426 11.0998V16.2384L17.9997 15.5955V9.4155L12.8569 12.5269ZM8.00544 6.93836L8.63972 6.51408L9.20972 6.98979L8.57115 7.40979L8.00544 6.93836ZM13.3454 9.41122L12.7111 9.83122L13.2769 10.3026L13.9111 9.88265L13.3454 9.41122ZM9.63401 5.96551L10.2683 5.5455L10.834 6.01693L10.1997 6.44122L9.63401 5.96979V5.96551ZM14.9697 8.43836L14.3354 8.85836L14.9011 9.33408L15.5354 8.91408L14.9697 8.44265V8.43836ZM11.254 5.00551L11.8883 4.58551L12.454 5.05693L11.8197 5.48122L11.254 5.00551ZM16.5897 7.47836L15.9554 7.89836L16.5211 8.36979L17.1554 7.95408L16.5897 7.48265V7.47836ZM6.41544 7.87693L7.05401 7.45693L7.61972 7.92836L6.98115 8.35265L6.41544 7.88122V7.87693ZM5.57115 9.10265L6.42829 9.52693V10.2812L5.57115 9.85265V9.10265ZM5.57115 11.0141L6.42829 11.4341V12.1884L5.57115 11.7598V11.0141ZM6.42829 13.3455L5.57115 12.9212V13.6712L6.42829 14.0998V13.3455ZM5.57115 14.8326L6.42829 15.2526V16.0069L5.57115 15.5784V14.8326ZM11.1426 12.1669L10.2854 11.7384V12.4926L11.1426 12.9212V12.1669ZM11.1426 14.0741L10.2854 13.6498V14.3998L11.1426 14.8284V14.0741ZM10.2854 15.5612L11.1426 15.9855V16.7398L10.2854 16.3112V15.5569V15.5612ZM11.1426 17.8926L10.2854 17.4684V18.2184L11.1426 18.6469V17.8926ZM11.7554 10.3498L11.1212 10.7741L11.6869 11.2455L12.3211 10.8255L11.7554 10.3541V10.3498Z" fill="url(#paint0_linear_59_68310)"/>
<defs>
<linearGradient id="paint0_linear_59_68310" x1="11.9997" y1="3.85693" x2="11.9997" y2="20.1426" gradientUnits="userSpaceOnUse">
<stop offset="0.16" stop-color="#C09124"/>
<stop offset="1" stop-color="#FDDC03"/>
</linearGradient>
</defs>
</svg>
