<svg width="24" height="24" viewBox="0 0 24 24" fill="none" xmlns="http://www.w3.org/2000/svg">
<path d="M15.8911 12.3686C15.8997 12.6857 15.6426 12.9514 15.3126 12.96C14.9826 12.9686 14.7126 12.72 14.6997 12.4029C14.698 12.325 14.7118 12.2477 14.7403 12.1752C14.7687 12.1028 14.8113 12.0367 14.8656 11.9809C14.9198 11.925 14.9846 11.8805 15.0562 11.85C15.1278 11.8194 15.2047 11.8034 15.2826 11.8029C15.6083 11.7986 15.8826 12.0471 15.8911 12.3686ZM8.69971 12.9857C9.02114 12.9857 9.28257 12.7243 9.28257 12.4071C9.28257 12.0857 9.02543 11.8286 8.69971 11.8286C8.37828 11.8286 8.11686 12.0857 8.11686 12.4071C8.11686 12.7243 8.374 12.9814 8.69971 12.9814V12.9857Z" fill="#5B0B0B"/>
<path fill-rule="evenodd" clip-rule="evenodd" d="M15.9297 7.15714C15.8869 7.29 15.8011 7.33286 15.6726 7.28571C14.4383 6.85714 13.1954 6.78857 11.9011 6.78857C10.7869 6.78857 9.62971 6.80571 8.584 7.20857C8.03114 7.42286 7.58971 6 5.93971 6C5.48543 6.00857 5.00543 6.09429 4.81686 6.35571C4.61114 6.64286 4.38828 6.92143 4.324 7.28143C4.23828 7.80857 4.294 8.35286 4.49543 8.90143C4.60257 9.17571 4.70543 9.45857 4.80828 9.75C4.86828 9.91286 4.97971 10.0371 5.09114 10.1657C5.15543 10.2386 5.21971 10.3114 5.27543 10.3886C5.30875 10.437 5.32242 10.4962 5.31367 10.5543C5.30491 10.6124 5.27439 10.665 5.22828 10.7014C4.31114 11.4214 4.28543 12.8443 4.50828 13.8814C4.834 15.3729 5.45971 16.5343 6.844 17.37C7.89828 18.0043 9.08971 18.1114 10.3026 18.2271C10.3337 18.2305 10.3634 18.2424 10.3883 18.2614C10.8356 18.6486 11.4082 18.8602 11.9997 18.8571C12.4969 18.8614 13.3583 18.8057 13.6197 18.3086C13.6411 18.2614 13.6883 18.2271 13.744 18.2229C14.7597 18.1114 15.8526 18.0514 16.774 17.5629C17.5328 17.1813 18.1836 16.6151 18.6666 15.9165C19.1496 15.2178 19.4493 14.409 19.5383 13.5643C19.6002 13.0805 19.6002 12.5909 19.5383 12.1071C19.444 11.4343 18.8269 11.0657 18.6854 10.5257C18.681 10.51 18.6799 10.4935 18.6821 10.4772C18.6843 10.461 18.6898 10.4454 18.6983 10.4314C19.2554 9.45857 19.8726 8.59714 19.6754 7.33286C19.6154 6.94714 19.2683 6.21857 18.8097 6.10714C18.2326 5.96497 17.6297 5.96497 17.0526 6.10714C16.802 6.19444 16.5726 6.33339 16.3792 6.51501C16.1857 6.69663 16.0326 6.91686 15.9297 7.16143V7.15714ZM17.7897 11.6571C17.7479 11.6867 17.6998 11.706 17.6491 11.7134C17.5985 11.7208 17.5468 11.7163 17.4983 11.7L16.7054 11.4471C16.654 11.4343 16.6026 11.49 16.624 11.5414C16.7954 11.9186 16.9197 12.7971 16.5511 13.17C16.1654 13.5557 15.7797 13.7957 15.3126 13.8129C15.0726 13.8214 14.8111 13.8257 14.524 13.65C14.3097 13.5214 13.9969 13.0243 13.6883 13.2771C13.6739 13.2878 13.662 13.3012 13.6531 13.3167C13.6442 13.3322 13.6387 13.3494 13.6369 13.3671L13.5726 13.8514C13.5683 13.8986 13.5854 13.9371 13.624 13.9714C13.924 14.1986 13.9969 14.3143 14.0011 14.5029C14.0097 15.1114 12.9211 15.6557 12.4754 15.9C12.3683 15.96 12.3469 16.1143 12.4411 16.2L12.7711 16.5C13.1869 16.86 13.804 16.8 14.2326 16.4957C14.4211 16.3629 14.5326 16.1529 14.6397 15.9514L14.7169 15.81C14.764 15.7243 14.8283 15.6729 14.9054 15.6429C15.034 15.6 15.1711 15.6686 15.2054 15.7971C15.2911 16.1143 15.2311 16.4057 15.0211 16.6714C14.8154 16.9286 14.5883 17.1 14.3311 17.1943C14.2883 17.2114 14.2583 17.2371 14.2369 17.2757C14.2167 17.3123 14.2106 17.355 14.2197 17.3957C14.2326 17.4514 14.2626 17.4814 14.3183 17.4943C14.9526 17.5971 16.174 17.22 16.7397 16.8729C18.6083 15.7157 20.0526 12.63 18.0854 10.8343C17.6654 10.4486 17.1769 9.85714 16.9069 9.36C16.7054 8.99143 16.744 8.39143 16.7783 7.97571C16.8083 7.61571 17.0954 7.30286 17.3226 7.05429L17.3526 7.02C17.5154 6.84429 17.9397 6.78 17.9611 7.13143C17.9697 7.26429 17.9483 7.38857 17.8926 7.51286C17.8669 7.56857 17.9011 7.63714 17.9654 7.64571C18.2397 7.70143 18.9211 7.75286 18.9597 7.36286C19.0026 6.99 18.5311 6.61714 18.154 6.58286C17.284 6.50571 16.684 6.95571 16.2983 7.66714L16.174 7.88571C16.0626 8.06571 15.9169 8.10429 15.7369 8.00143C14.6997 7.40571 13.0797 7.36714 11.8969 7.38429C10.7569 7.40143 9.14971 7.44857 8.12543 8.01857C8.08985 8.03765 8.05079 8.04936 8.01059 8.05298C7.97038 8.05661 7.92986 8.05209 7.89145 8.03968C7.85303 8.02728 7.81751 8.00725 7.78702 7.98079C7.75653 7.95433 7.7317 7.922 7.714 7.88571C7.414 7.21714 6.91686 6.65143 6.14114 6.57429C5.77548 6.54351 5.41233 6.65737 5.12971 6.89143C4.984 7.00286 4.91543 7.14857 4.91971 7.32429C4.93686 7.75286 5.66114 7.70143 5.93971 7.64571C5.95338 7.64298 5.96626 7.63725 5.97745 7.62893C5.98863 7.62062 5.99783 7.60993 6.00439 7.59764C6.01094 7.58534 6.01469 7.57174 6.01537 7.55783C6.01604 7.54391 6.01362 7.53001 6.00828 7.51714C5.92257 7.30286 5.86257 7.10571 6.03828 6.92143C6.05968 6.89819 6.08844 6.88305 6.11971 6.87857C6.53114 6.83571 7.09257 7.55143 7.13543 7.96286C7.17828 8.4 7.22114 8.98714 6.98114 9.36857C6.62943 9.89371 6.23064 10.3857 5.78971 10.8386C5.49445 11.1459 5.26888 11.5132 5.12836 11.9155C4.98784 12.3178 4.93568 12.7457 4.97543 13.17C5.02835 13.9638 5.2859 14.7303 5.72301 15.395C6.16011 16.0596 6.76188 16.5998 7.46971 16.9629C8.13828 17.31 9.05543 17.3914 9.79686 17.49C9.86971 17.4986 9.904 17.4686 9.90828 17.3957C9.91686 17.3057 9.874 17.2414 9.784 17.2114C9.54407 17.1427 9.3242 17.0173 9.14294 16.8457C8.96169 16.6742 8.82436 16.4615 8.74257 16.2257C8.69114 16.0757 8.65686 15.6943 8.86686 15.6257C8.99543 15.5829 9.15828 15.6043 9.23543 15.7329C9.37686 15.9729 9.47971 16.29 9.71114 16.4486C10.3026 16.8514 10.8683 16.7957 11.4126 16.2771C11.4726 16.2171 11.6697 15.9986 11.5411 15.9171C11.164 15.6814 9.79257 15.0943 9.79686 14.5029C9.79686 14.3229 9.94686 14.1429 10.2683 13.9714C10.2847 13.9643 10.2986 13.9522 10.3078 13.9368C10.317 13.9215 10.3212 13.9036 10.3197 13.8857C10.3111 13.7529 10.2897 13.6029 10.2597 13.4357C10.2083 13.1229 9.81828 13.0971 9.67686 13.3371C9.454 13.71 9.03828 13.8086 8.69971 13.8129C8.18543 13.8214 7.70543 13.5557 7.33686 13.2043C6.99828 12.8829 7.114 11.9357 7.22543 11.5543C7.24686 11.49 7.18257 11.43 7.11828 11.4514C6.85686 11.5286 6.604 11.61 6.35543 11.7043C6.07257 11.8114 5.76828 11.5114 6.004 11.2714C6.16686 11.1043 6.394 10.9243 6.62971 10.8557C7.40114 10.6414 8.18114 10.6286 8.974 10.8171C10.1569 11.1086 10.6969 12.5743 10.9626 13.6243C10.984 13.71 11.0654 13.77 11.1554 13.7614C11.6869 13.7229 12.214 13.7271 12.7411 13.7743C12.7669 13.7743 12.7926 13.7571 12.7969 13.7314C13.114 12.7457 13.6111 11.1386 14.7897 10.8386C15.2974 10.6925 15.828 10.6431 16.354 10.6929C17.0183 10.7786 17.3611 10.8471 17.824 11.2671C17.944 11.3743 17.9269 11.5757 17.7897 11.6571ZM16.1097 12.4886V12.2743C16.114 11.8886 15.7926 11.5671 15.4069 11.5671L15.1454 11.5629C14.7597 11.5629 14.4297 11.8757 14.4297 12.2571V12.4714C14.4211 12.8571 14.7426 13.1786 15.1283 13.1829H15.394C15.7797 13.1829 16.1054 12.87 16.1097 12.4886ZM9.55257 12.5314C9.54828 12.8957 9.23114 13.2086 8.85828 13.2043H8.55828C8.18543 13.2 7.87257 12.8829 7.88114 12.5143V12.2443C7.88114 11.8757 8.19828 11.5714 8.57114 11.5757H8.87114C9.244 11.58 9.55686 11.8929 9.55257 12.2614V12.5314Z" fill="#5B0B0B"/>
</svg>
