<svg width="24" height="24" viewBox="0 0 24 24" fill="none" xmlns="http://www.w3.org/2000/svg">
<path d="M8.58363 19.955C8.58363 19.955 9.56138 19.305 11.6504 19.305C13.7337 19.305 14.7115 19.955 14.7115 19.955C14.7115 19.955 14.4281 20.3106 14.0837 20.4107C13.7392 20.5218 13.2837 20.4217 12.7114 20.8161C12.1392 21.205 11.6504 21.1661 11.6504 21.1661C11.6504 21.1661 11.1558 21.205 10.5836 20.8161C10.017 20.4217 9.55581 20.5162 9.21138 20.4107C8.86695 20.3106 8.58363 19.955 8.58363 19.955ZM10.9225 5.78835C10.3281 5.75501 9.48918 5.82167 8.98919 5.64945C8.12808 5.35501 7.98919 5.06056 7.26696 5.20501C6.73363 5.31612 6.60584 5.71612 6.55585 6.12723C7.83918 5.90501 8.57807 6.19389 8.57807 6.19389C6.72807 6.38279 6.10585 6.86612 6.06696 6.89946C6.01802 6.94002 5.97663 6.98891 5.94473 7.0439C5.88918 7.17168 5.93362 7.21057 5.94473 7.45501C8.5114 6.69945 10.5559 7.22724 10.5559 7.22724C8.73159 7.22847 6.92854 7.61862 5.26696 8.37168L5.5114 9.20502C7.05029 8.66612 7.91696 9.04946 7.91696 9.04946C7.00029 9.26612 6.11141 9.59945 5.28362 10.0383L5.43917 10.4272C5.08363 10.6884 4.78918 11.6772 4.78918 11.6772C4.70028 11.1439 5.05028 10.405 5.05028 10.405C4.32806 10.4495 4.05029 11.1162 4.05029 11.6661C4.05029 12.2217 4.42251 12.8495 4.86696 13.2551C5.3114 13.6606 5.41141 14.1106 5.41141 14.1106C5.74474 13.2216 5.09473 13.1439 5.27251 12.0828C5.4503 11.0273 6.76696 10.4605 6.76696 10.4605C6.49474 10.405 6.22252 10.3606 5.94473 10.3494C6.51141 10.2606 6.90585 9.38279 10.4114 11.5883C13.9169 13.7995 16.0892 11.5661 17.2558 10.8883C17.6004 11.1661 17.9614 11.5661 18.0503 12.0828C18.2281 13.1439 17.5725 13.2162 17.9115 14.1106C17.9115 14.1106 18.0114 13.6661 18.4559 13.2551C18.9003 12.8495 19.2726 12.2217 19.2726 11.6661C19.2726 11.1106 18.9948 10.4439 18.2725 10.405C18.2725 10.405 18.6225 11.1439 18.5337 11.6828C18.5337 11.6828 18.2281 10.6495 17.867 10.405L18.0559 9.93837L17.8781 9.81056C15.3781 8.3439 11.6504 8.39946 11.6504 8.39946C15.2615 8.09391 17.817 9.22169 17.817 9.22169L18.0282 8.37168L17.3725 8.06613C17.3725 8.06613 17.4004 7.45501 17.2947 7.23279C17.2337 7.10501 17.0448 6.97723 16.9058 6.8939C15.5447 6.31612 13.2059 6.19389 13.2059 6.19389C15.2892 6.00501 16.3225 6.12722 16.7393 6.21056C16.667 5.78835 16.478 5.155 16.0114 5.06611C15.7774 5.00546 15.5312 5.01123 15.3004 5.08278C15.1204 4.87285 14.8914 4.71063 14.6337 4.61055C14.2559 4.49945 13.7448 4.60501 13.117 4.16612C12.4892 3.73278 11.9448 3.77723 11.9448 3.77723C11.9448 3.77723 11.4003 3.73278 10.7725 4.16612C10.1391 4.60501 9.63358 4.49945 9.25584 4.61055C8.8781 4.72722 8.56142 5.11056 8.56142 5.11056C8.56142 5.11056 9.32247 5.62167 10.9225 5.78835Z" fill="#03F5AE"/>
<path d="M11.6505 18.9662C11.6505 18.9662 9.87262 18.9718 9.01149 19.2662C8.15042 19.5606 8.01154 19.8606 7.28932 19.7107C6.75598 19.5994 6.64486 19.1495 6.59486 18.7384C7.87265 18.9606 8.5782 18.5829 8.5782 18.5829C6.7282 18.3939 6.10598 17.9106 6.06709 17.8773C6.01763 17.835 5.97622 17.7842 5.94486 17.7273C5.88931 17.6051 5.90597 17.5217 5.91709 17.2828C8.48375 18.0384 10.556 17.5495 10.556 17.5495C8.73172 17.5483 6.92867 17.1581 5.26709 16.4051L5.52264 15.4772C7.12265 15.8661 7.91154 15.7273 7.91154 15.7273C6.99493 15.5121 6.10987 15.1797 5.2782 14.7383L5.48375 14.2495C8.07265 15.2717 15.2171 15.2717 17.8116 14.2495L18.056 14.8384L17.8782 14.9606C15.3783 16.4328 11.6505 16.3772 11.6505 16.3772C15.2616 16.6883 17.8171 15.555 17.8171 15.555L18.0283 16.4051L17.3726 16.7106C17.3726 16.7106 17.456 17.505 17.3505 17.7273C17.2838 17.8606 17.1004 17.9884 16.9616 18.0718C15.6005 18.6495 13.2061 18.5829 13.2061 18.5829C15.2893 18.7718 16.306 18.7883 16.7227 18.7106C16.6505 19.1328 16.4838 19.6162 16.0115 19.7107C15.2893 19.8606 15.1449 19.5661 14.2894 19.2662C13.4282 18.9718 11.6505 18.9662 11.6505 18.9662Z" fill="#03F5AE"/>
<path d="M7.77735 12.194C7.77735 12.194 7.44402 12.9662 8.09402 13.2717C8.74401 13.5828 10.3718 13.4273 10.3718 13.4273C10.3718 13.4273 8.96073 12.4162 7.77735 12.194ZM15.8551 12.9883C15.8551 12.9883 15.9829 13.6273 15.4329 13.7661C14.8884 13.8995 13.6663 13.5273 13.6663 13.5273C13.6663 13.5273 14.9163 12.9718 15.8551 12.9883Z" fill="#03F5AE"/>
<path d="M18.1779 8.41055C18.1779 8.41055 19.9556 8.48832 20.7112 8.89944C21.3668 9.24945 22 10.0662 22 10.0662C22 10.0662 21.0667 10.3494 20.7778 10.6772C20.5112 10.9828 20.4556 11.1216 20.4556 11.1216C20.4556 11.1216 19.2223 9.77722 17.9778 9.27721L18.1779 8.41611V8.41055ZM16.1278 19.5884C16.1278 19.5884 16.739 20.1105 17.289 20.2605C17.7611 20.3883 18.4445 20.2994 18.4445 20.2994C18.4445 20.2994 18.15 19.7439 18.1723 19.4662C18.1945 19.1995 18.2389 19.1106 18.2389 19.1106C17.7168 19.0439 17.2056 18.905 16.7222 18.7105L16.1278 19.5884ZM5.14445 14.1384C5.14445 14.1384 4.75556 14.9273 3.87222 15.1551C3.10555 15.3551 2 15.2105 2 15.2105C2 15.2105 2.47778 14.3717 2.44444 13.9383C2.40555 13.5439 2.33889 13.405 2.33889 13.405C2.33889 13.405 3.90556 13.8883 4.62778 13.3883L5.14445 14.1384ZM8.47779 5.03831C8.47779 5.03831 7.7889 4.54943 7.50557 4.03832C7.26112 3.59387 7.20556 2.89387 7.20556 2.89387C7.20556 2.89387 7.85557 3.06054 8.15001 2.9772C8.42779 2.89387 8.51112 2.83276 8.51112 2.83276C8.51112 2.83276 8.39445 3.87164 8.92785 4.60499L8.48335 5.03831H8.47779Z" fill="#03F5AE"/>
</svg>
