<svg width="24" height="24" viewBox="0 0 24 24" fill="none" xmlns="http://www.w3.org/2000/svg">
<path d="M9.00039 17.1001V13.8001L6.33468 11.1258L8.73468 8.67012C8.75795 8.64724 8.78906 8.63406 8.82169 8.63327C8.85432 8.63247 8.88603 8.64411 8.91039 8.66584L9.85753 9.37298V17.9916C9.85753 18.0258 9.87039 18.0601 9.90039 18.0858L11.3575 19.6801C11.4347 19.7573 11.5718 19.6973 11.5718 19.5901V7.95012C11.5204 6.38584 10.6032 6.00012 10.0847 6.00012H8.37896C7.91611 5.98298 7.46182 6.33012 7.29039 6.50584L3.76325 10.0501C3.54798 10.3377 3.43164 10.6873 3.43164 11.0466C3.43164 11.4058 3.54798 11.7554 3.76325 12.043L8.73468 17.1858C8.81182 17.2673 9.00039 17.2158 9.00039 17.1001Z" fill="url(#paint0_linear_59_68798)"/>
<path d="M15.0432 17.1001V13.8001L17.6661 11.1258L15.2661 8.67012C15.2428 8.64724 15.2117 8.63406 15.1791 8.63327C15.1465 8.63247 15.1148 8.64411 15.0904 8.66584L14.1432 9.37298V17.9444C14.143 17.9622 14.1391 17.9798 14.1317 17.9961C14.1244 18.0123 14.1137 18.0268 14.1004 18.0387L12.6432 19.6801C12.5575 19.7573 12.4247 19.7016 12.4247 19.5901V7.13155L13.2604 6.00012H16.1661L20.2375 10.0501C20.8418 10.8773 20.4904 11.7216 20.2375 12.043L15.2661 17.1858C15.189 17.2673 15.0475 17.2116 15.0475 17.1001H15.0432Z" fill="#27B4FB"/>
<path d="M3.45896 10.7316L6.57468 11.3658L6.33468 11.1258L7.60753 9.82298L5.85039 7.95441L3.76325 10.0544C3.59182 10.2816 3.50182 10.5087 3.45896 10.7316Z" fill="url(#paint1_linear_59_68798)"/>
<path d="M5.84611 7.95441L7.60753 9.82298L8.73468 8.67012C8.75795 8.64724 8.78906 8.63406 8.82169 8.63327C8.85432 8.63247 8.88603 8.64411 8.91039 8.66584L9.85753 9.37298V12.0387L11.5718 12.3516V7.95012C11.5204 6.38584 10.6032 6.00012 10.0847 6.00012H8.37896C7.91611 5.98298 7.46182 6.33012 7.29039 6.50584L5.84611 7.95441Z" fill="url(#paint2_linear_59_68798)"/>
<path d="M11.5718 12.3516L9.85753 12.0344V12.4201L11.5718 14.1087V12.3516Z" fill="#40B7F9"/>
<path d="M11.5718 14.1087L9.85753 12.4158V18.0087C9.85753 18.043 9.87468 18.0773 9.90039 18.0987L11.349 19.6801C11.4304 19.7573 11.5718 19.6973 11.5718 19.5901V14.1001V14.1087Z" fill="url(#paint3_linear_59_68798)"/>
<path d="M12.429 14.7858V12.5487L14.1432 12.9773V16.543L12.429 14.7858Z" fill="#2FADF7"/>
<path d="M14.1432 12.9773L12.429 12.5487V7.14012L13.2604 6.00012H16.1661L20.2375 10.0501C20.8418 10.8773 20.4904 11.7216 20.2375 12.043L18.4075 13.9373L15.5061 13.2858L17.6661 11.1216L15.2661 8.66584C15.2428 8.64295 15.2117 8.62978 15.1791 8.62898C15.1465 8.62818 15.1148 8.63983 15.0904 8.66155L14.1432 9.37298V12.9773Z" fill="url(#paint4_linear_59_68798)"/>
<path d="M15.0004 17.1001C15.0004 17.2116 15.189 17.2673 15.2661 17.1858L18.4118 13.933L15.5104 13.2901L15.0004 13.7916V17.1001Z" fill="#2EAEF7"/>
<path d="M7.54325 9.88727L5.78611 8.01441L5.91896 7.87727L7.67611 9.75012L7.54753 9.88727H7.54325ZM6.69896 11.5073L3.44182 10.8301L3.47611 10.6416L6.48039 11.2716L6.69896 11.5073ZM11.5718 12.4716L9.85753 12.1116V11.9058L11.5718 12.2787V12.4716ZM11.5718 14.3787L9.85753 12.4287V12.1673L11.5718 14.1301V14.383V14.3787ZM14.1432 13.1058L12.429 12.613V12.4158L14.1432 12.913V13.1058ZM18.3132 14.0316L15.4633 13.3758L15.6218 13.2044L18.4675 13.8687L18.3132 14.0316ZM14.1432 16.8001L12.429 14.7858V14.5287L14.1432 16.5344V16.8001Z" fill="#369BF3"/>
<defs>
<linearGradient id="paint0_linear_59_68798" x1="7.04461" y1="11.2119" x2="8.56095" y2="17.7931" gradientUnits="userSpaceOnUse">
<stop stop-color="#5DD8FA"/>
<stop offset="0.39" stop-color="#39B3F6"/>
<stop offset="1" stop-color="#29B6FE"/>
</linearGradient>
<linearGradient id="paint1_linear_59_68798" x1="17.225" y1="10.204" x2="10.0123" y2="18.4978" gradientUnits="userSpaceOnUse">
<stop offset="0.04" stop-color="#85AEEC"/>
<stop offset="0.48" stop-color="#7C98EC"/>
<stop offset="1" stop-color="#569AED"/>
</linearGradient>
<linearGradient id="paint2_linear_59_68798" x1="12.0016" y1="6.00083" x2="12.4025" y2="18.1733" gradientUnits="userSpaceOnUse">
<stop stop-color="#B86BF1"/>
<stop offset="0.42" stop-color="#9B73ED"/>
<stop offset="1" stop-color="#459FF7"/>
</linearGradient>
<linearGradient id="paint3_linear_59_68798" x1="12.0016" y1="5.99951" x2="12.0016" y2="19.7148" gradientUnits="userSpaceOnUse">
<stop stop-color="#3DBEF8"/>
<stop offset="1" stop-color="#1EADFB"/>
</linearGradient>
<linearGradient id="paint4_linear_59_68798" x1="12.0019" y1="5.99951" x2="9.76017" y2="18.2533" gradientUnits="userSpaceOnUse">
<stop stop-color="#B56DED"/>
<stop offset="0.67" stop-color="#5396F1"/>
<stop offset="1" stop-color="#3DA3F2"/>
</linearGradient>
</defs>
</svg>
