<svg width="24" height="24" viewBox="0 0 24 24" fill="none" xmlns="http://www.w3.org/2000/svg">
<path d="M3.85672 13.7141V13.577C4.02815 13.5684 4.10958 13.5555 4.10958 13.3413V11.4341L3.34244 13.7141H3.11958C2.87101 12.9427 2.61815 12.1713 2.34815 11.3998V12.947C2.34815 13.247 2.40387 13.5684 2.77672 13.5684V13.7141H1.71387V13.5684C2.09958 13.547 2.14244 13.3113 2.14244 12.9684V11.6998C2.14244 11.4341 1.97101 11.3055 1.71387 11.2884V11.1427H2.87958L3.38101 12.857L3.89101 11.4598C3.9253 11.3741 3.95101 11.2713 3.96815 11.1427H5.05672V11.2798C4.89387 11.297 4.71387 11.3098 4.71387 11.507V13.3241C4.71387 13.5127 4.90244 13.5341 5.05672 13.5513V13.7141H3.85672ZM7.12244 13.6284C6.99387 13.6884 6.87815 13.7141 6.77101 13.7141C6.54815 13.7141 6.48387 13.6412 6.4453 13.4827H6.43672C6.2953 13.6412 6.05101 13.7141 5.83672 13.7141C5.59672 13.7141 5.40815 13.5427 5.40815 13.3027C5.40815 12.8398 6.08101 12.7627 6.42815 12.6384V12.4841C6.42815 12.2527 6.28244 12.1413 6.13672 12.1413C6.06939 12.1381 6.00297 12.1577 5.94815 12.197C5.94815 12.2698 5.99958 12.3427 5.99958 12.4198C5.99958 12.5484 5.91387 12.6213 5.73387 12.6213C5.56244 12.6213 5.46815 12.5398 5.46815 12.3855C5.46815 12.0984 5.9353 11.9998 6.15387 11.9998C6.41101 11.9998 6.59958 12.0427 6.70244 12.1284C6.80101 12.2227 6.85672 12.3598 6.85672 12.5398V13.3027C6.85672 13.487 6.95101 13.4998 7.1053 13.4998L7.12244 13.6284ZM6.42815 12.7927C6.21387 12.8655 5.92672 12.9727 5.92672 13.2255C5.92672 13.3841 5.98672 13.4655 6.11101 13.4655C6.19672 13.4655 6.36815 13.4227 6.42815 13.3413V12.7927ZM8.7853 13.7141V13.5855C8.91387 13.5855 8.99958 13.5427 8.99958 13.4098V12.6213C8.99958 12.3898 8.93958 12.2698 8.7853 12.2698C8.57101 12.2698 8.22815 12.3384 8.14244 12.4841V13.3841C8.14244 13.5213 8.22815 13.5641 8.35672 13.5855V13.7141H7.46958V13.5855C7.59815 13.577 7.71387 13.5513 7.71387 13.4013V12.4241C7.71387 12.287 7.62815 12.2055 7.44387 12.1884V12.0684L8.11672 11.9998L8.14244 12.0255V12.2955H8.15101C8.31387 12.1241 8.67387 11.9998 9.00815 11.9998C9.34244 11.9998 9.42815 12.2355 9.42815 12.557V13.3927C9.42815 13.5341 9.51387 13.5727 9.64244 13.5855V13.7141H8.7853ZM21.6424 13.7141V13.5855C21.771 13.5855 21.8567 13.5427 21.8567 13.4098V12.6213C21.8567 12.3898 21.7967 12.2698 21.6424 12.2698C21.4282 12.2698 21.0853 12.3384 20.9996 12.4841V13.3841C20.9996 13.5213 21.0853 13.5641 21.2139 13.5855V13.7141H20.3267V13.5855C20.4553 13.577 20.571 13.5513 20.571 13.4013V12.4241C20.571 12.287 20.4853 12.2055 20.301 12.1884V12.0684L20.9739 11.9998L20.9996 12.0255V12.2955H21.0082C21.171 12.1241 21.531 11.9998 21.8653 11.9998C22.1996 11.9998 22.2853 12.2355 22.2853 12.557V13.3927C22.2853 13.5341 22.371 13.5727 22.4996 13.5855V13.7141H21.6424ZM11.571 13.2684C11.4917 13.4076 11.3761 13.5227 11.2364 13.6012C11.0967 13.6797 10.9383 13.7188 10.7782 13.7141C10.4867 13.7141 10.2553 13.6284 10.101 13.4827C10.0183 13.3998 9.95391 13.3006 9.91185 13.1913C9.86978 13.0821 9.851 12.9653 9.85672 12.8484C9.85781 12.7344 9.88165 12.6217 9.92683 12.517C9.97201 12.4123 10.0376 12.3176 10.1199 12.2386C10.2021 12.1596 10.2992 12.0978 10.4057 12.0568C10.5121 12.0158 10.6256 11.9964 10.7396 11.9998C11.1467 11.9998 11.571 12.2484 11.571 12.6984V12.857H10.2853C10.2853 13.3113 10.6153 13.4913 10.9667 13.4913C11.1553 13.4913 11.3096 13.3927 11.4467 13.1913L11.571 13.2684ZM11.1424 12.6513C11.1424 12.3084 10.8767 12.1241 10.7139 12.1241C10.5339 12.1241 10.2939 12.2955 10.2853 12.6513H11.1424ZM16.7139 13.0327C16.4739 13.487 16.0839 13.7141 15.5396 13.7141C14.7939 13.7141 14.1424 13.2341 14.1424 12.4498C14.1424 11.6484 14.8324 11.1427 15.5953 11.1427C15.8524 11.1427 16.0924 11.1941 16.311 11.3013L16.4267 11.2027H16.5896L16.6067 12.0941H16.4482C16.3496 11.8241 16.2339 11.6227 16.1096 11.4941C15.981 11.3613 15.8139 11.3013 15.6253 11.3013C15.1667 11.3013 14.7853 11.6741 14.7853 12.3898C14.7853 12.917 15.1024 13.4613 15.711 13.4613C16.0453 13.4613 16.3324 13.2898 16.5596 12.9384L16.7139 13.0327ZM12.9939 13.5984C12.8096 13.6713 12.6467 13.7141 12.4924 13.7141C12.171 13.7141 11.9996 13.5555 11.9996 13.2341V12.2141H11.7082V11.9998H11.9996V11.5713H12.4282V11.9998H12.8567V12.2141H12.4282V13.1055C12.4282 13.277 12.531 13.4913 12.7496 13.4913C12.8353 13.4913 12.9124 13.4827 12.9767 13.4741L12.9939 13.6027V13.5984Z" fill="#181B1E"/>
<path d="M17.7724 8.99982L18.3596 9.52268L19.0967 9.23554L18.7796 9.95125L19.2853 10.5555L18.501 10.4741L18.0724 11.1427L17.9096 10.3755L17.1424 10.1827L17.8282 9.78411L17.7724 8.99982Z" fill="#38A632"/>
<path d="M15.8739 7.28554L16.3539 7.91554L17.1424 7.77839L16.6839 8.40839L17.0567 9.09839L16.2982 8.86268L15.7282 9.42839L15.7196 8.65696L14.9953 8.30554L15.7582 8.06125L15.8696 7.28554H15.8739Z" fill="#B2E0AF"/>
<path d="M13.6153 7.28554L13.9924 7.58554L14.4124 7.37554L14.2496 7.82982L14.571 8.17268L14.0996 8.15554L13.8724 8.57125L13.7482 8.11268L13.2853 8.01411L13.6753 7.75696L13.6153 7.28125V7.28554Z" fill="#A4E3A0"/>
<path d="M12.2139 7.71411L12.471 7.91125L12.7496 7.78268L12.6382 8.07411L12.8567 8.30125L12.5396 8.29268L12.3896 8.57125L12.3039 8.26268L11.9996 8.20268L12.2567 8.03125L12.2139 7.71411Z" fill="#8FE68B"/>
<path d="M17.9824 13.7141C17.8704 13.7165 17.759 13.696 17.6551 13.6538C17.5513 13.6117 17.4571 13.5487 17.3785 13.4689C17.2998 13.389 17.2383 13.2939 17.1977 13.1894C17.1571 13.0849 17.1383 12.9733 17.1424 12.8613C17.1424 12.3641 17.4939 11.9998 17.9996 11.9998C18.4967 11.9998 18.8567 12.3427 18.8567 12.8441C18.8567 13.3541 18.4882 13.7141 17.9824 13.7141ZM17.9953 12.1284C17.7853 12.1284 17.571 12.3598 17.571 12.827C17.571 13.0413 17.6739 13.5727 17.9996 13.5727C18.2139 13.5727 18.4282 13.3284 18.4282 12.8355C18.4196 12.3684 18.2053 12.1327 17.9996 12.1327L17.9953 12.1284ZM19.4567 11.7555C19.3024 11.7555 19.1996 11.597 19.1996 11.4555C19.1996 11.3141 19.2939 11.1427 19.4482 11.1427C19.611 11.1427 19.7139 11.3055 19.7139 11.4513C19.7139 11.597 19.6153 11.7513 19.4567 11.7513V11.7555ZM19.0796 13.5813C19.1653 13.5813 19.221 13.5555 19.2467 13.5298C19.2724 13.4955 19.2853 13.4527 19.2853 13.4013V12.3941C19.2853 12.2655 19.2082 12.1841 19.0539 12.1584V12.0427L19.6967 11.9998L19.7139 12.0255V13.3884C19.7139 13.4441 19.7267 13.487 19.7567 13.5213C19.7782 13.5555 19.8339 13.5727 19.911 13.5898V13.7141H19.0796V13.5813Z" fill="#181B1E"/>
</svg>
