<svg width="24" height="24" viewBox="0 0 24 24" fill="none" xmlns="http://www.w3.org/2000/svg">
<path d="M5.14258 9.42857L11.9997 16.2857V19.7143L5.14258 12.8571V9.42857Z" fill="url(#paint0_linear_112_4933)"/>
<path d="M5.14258 12.8571L8.57115 9.42857V6L5.14258 9.42857V12.8571Z" fill="url(#paint1_linear_112_4933)"/>
<path d="M6.85686 11.1429L5.14258 12.8571V9.42857L6.85686 11.1429Z" fill="#C58F3C"/>
<path d="M11.9997 12.8571L8.57115 9.42857V6L11.9997 9.48857V12.8571Z" fill="#FFAA27"/>
<path d="M18.8569 9.42857L11.9997 16.2857V19.7143L18.8569 12.8571V9.42857Z" fill="url(#paint2_linear_112_4933)"/>
<path d="M18.8569 12.8571L15.4283 9.42857V6L18.8569 9.42857V12.8571Z" fill="url(#paint3_linear_112_4933)"/>
<path d="M17.1426 11.1429L18.8569 12.8571V9.42857L17.1426 11.1429Z" fill="#D79B3F"/>
<path d="M11.9997 12.8571L15.4283 9.42857V6L11.9997 9.48857V12.8571Z" fill="#D28A1C"/>
<defs>
<linearGradient id="paint0_linear_112_4933" x1="5.14258" y1="7.44571" x2="12.7461" y2="22.7502" gradientUnits="userSpaceOnUse">
<stop stop-color="#955A00"/>
<stop offset="0.79" stop-color="#F29F20"/>
</linearGradient>
<linearGradient id="paint1_linear_112_4933" x1="7.83401" y1="14.5371" x2="13.1167" y2="3.6088" gradientUnits="userSpaceOnUse">
<stop stop-color="#9E877A"/>
<stop offset="1" stop-color="white"/>
</linearGradient>
<linearGradient id="paint2_linear_112_4933" x1="9.83115" y1="11.7771" x2="12.4576" y2="15.5967" gradientUnits="userSpaceOnUse">
<stop stop-color="#B06E07"/>
<stop offset="1" stop-color="#C77E0C"/>
</linearGradient>
<linearGradient id="paint3_linear_112_4933" x1="16.1654" y1="14.5371" x2="10.8827" y2="3.6088" gradientUnits="userSpaceOnUse">
<stop stop-color="#9E877A"/>
<stop offset="1" stop-color="white"/>
</linearGradient>
</defs>
</svg>
