<svg width="24" height="24" viewBox="0 0 24 24" fill="none" xmlns="http://www.w3.org/2000/svg">
<path d="M13.2229 5.57129H10.7209L5.14258 15.347L6.40258 17.5713H17.5412L18.8569 15.347L13.2229 5.57129ZM6.32115 14.9999L11.1833 6.42843H12.2543L7.97715 14.1427H12.8929L13.4629 14.9999H6.32115ZM9.45401 13.2856L13.0129 6.87543L17.8626 15.2896L17.3221 16.2869L13.0124 8.85586L10.5876 13.2856H9.45401ZM11.5711 13.2856L11.9997 12.4284L12.4283 13.2856H11.5711ZM13.0257 10.5444L16.5974 16.712H6.88386L6.35672 15.857H15.0284L12.526 11.4543L13.0257 10.5444Z" fill="url(#paint0_linear_112_4975)"/>
<defs>
<linearGradient id="paint0_linear_112_4975" x1="8.48005" y1="6.35986" x2="13.2877" y2="17.0496" gradientUnits="userSpaceOnUse">
<stop stop-color="#18DBEB"/>
<stop offset="1" stop-color="#4AF2CF"/>
</linearGradient>
</defs>
</svg>
