<svg width="24" height="24" viewBox="0 0 24 24" fill="none" xmlns="http://www.w3.org/2000/svg">
<path d="M7.19061 3.66766L16.9868 9.17996V14.8051L2 6.37492L6.80561 3.6749C6.86504 3.64388 6.93108 3.62769 6.99811 3.62769C7.06514 3.62769 7.13119 3.64388 7.19061 3.6749V3.66766Z" fill="#3CA9E5"/>
<path d="M16.9949 3.55524L11.9966 6.36805L16.9949 9.18031V3.55524Z" fill="#2853C3"/>
<path d="M16.9944 3.55524L21.8001 6.25527C21.8578 6.28918 21.9057 6.33734 21.9393 6.39514C21.973 6.45293 21.9913 6.51841 21.9923 6.58527V17.6176L16.9944 14.8125V3.55524Z" fill="#1A4199"/>
<path d="M22.0001 17.6213L17.1866 20.3253C17.1245 20.3602 17.0544 20.3786 16.9831 20.3786C16.9117 20.3786 16.8416 20.3602 16.7795 20.3253L6.98267 14.8124V9.17291L22.0001 17.6213Z" fill="#2853C3"/>
<path d="M2.00009 6.36737V17.4002C1.99862 17.4696 2.01566 17.538 2.04944 17.5986C2.08323 17.6591 2.13254 17.7095 2.19232 17.7447L6.99793 20.4448V9.18074L2.00009 6.36737Z" fill="#60BEFF"/>
<path d="M6.99854 20.4375L11.9969 17.6252L6.99854 14.8052V20.4375Z" fill="#3CA9E5"/>
</svg>
