<svg width="24" height="24" viewBox="0 0 24 24" fill="none" xmlns="http://www.w3.org/2000/svg">
<path d="M14.0267 5.9015L14.2667 6.3215C14.271 6.34722 14.2538 6.36007 14.2153 6.36436C14.1539 6.26392 14.0896 6.1653 14.0224 6.06865C13.821 5.78579 13.4353 5.96579 13.5081 6.31293C13.3795 6.3515 13.3453 6.45007 13.3967 6.60436C13.4395 6.73293 13.5381 6.86579 13.6924 7.00293C13.4438 6.9215 13.3367 6.67293 13.2853 6.52722C13.2762 6.50396 13.2615 6.48334 13.2424 6.46722C13.2176 6.44339 13.1846 6.43007 13.1503 6.43007C13.1159 6.43007 13.0829 6.44339 13.0581 6.46722C12.9562 6.56951 12.8354 6.65102 12.7024 6.70722C12.591 6.75007 12.4881 6.81007 12.3895 6.87865C12.1624 7.0415 11.9181 7.09293 11.661 7.03722C11.4595 6.99436 11.2924 6.9515 11.1467 6.82293C10.9753 6.67293 11.0438 6.49293 10.9667 6.31293C10.8724 6.09436 10.731 5.73007 10.4481 6.39436C10.401 6.4715 10.371 6.5615 10.3624 6.66865C10.3538 6.75007 10.2938 6.81436 10.1824 6.8615C10.1395 6.87865 10.1138 6.86579 10.0967 6.82293C10.0868 6.79227 10.0868 6.7593 10.0967 6.72865L10.281 6.3215C10.3881 6.0815 10.1481 5.94865 9.95954 5.98722C9.93811 5.98722 9.91669 5.95722 9.90811 5.89293C10.2902 5.53422 10.79 5.32701 11.3138 5.31008C11.5004 5.19994 11.7134 5.14256 11.93 5.14407C12.1467 5.14558 12.3588 5.20592 12.5438 5.31865C12.5781 5.33579 12.6167 5.34436 12.6553 5.34436C12.9099 5.33738 13.1633 5.38328 13.3994 5.47918C13.6354 5.57508 13.849 5.71888 14.0267 5.9015Z" fill="#FFE8AD"/>
<path d="M13.6924 7.00293L13.9667 7.1915L13.461 7.3715C13.401 7.39293 13.3324 7.34579 13.3195 7.27722C13.3084 7.19471 13.2708 7.11803 13.2124 7.05865C13.2009 7.04518 13.1863 7.03466 13.1699 7.02796C13.1535 7.02125 13.1358 7.01855 13.1181 7.02007C13.0024 7.03293 12.891 7.06293 12.7795 7.11436C12.6724 7.15722 12.5653 7.18293 12.4538 7.18722L12.0124 7.1915C11.8667 7.1915 11.7295 7.16579 11.6053 7.11436C11.2349 6.99321 10.9222 6.73996 10.7267 6.40293C10.6538 6.28722 10.5595 6.28293 10.4481 6.39436C10.4781 6.07722 10.5981 5.8115 10.7995 5.59722C10.8141 5.58153 10.8322 5.56948 10.8523 5.56204C10.8724 5.5546 10.894 5.55197 10.9153 5.55436H10.9453C10.9881 5.55865 11.0053 5.58436 10.9881 5.62722C10.9367 5.76436 10.9281 5.9615 10.9881 6.09865C11.0138 6.16293 11.0224 6.22722 11.0095 6.29579C10.9624 6.56579 11.4853 6.99865 11.6567 7.03722C11.9181 7.09722 12.1624 7.0415 12.3895 6.87865C12.4881 6.81007 12.591 6.75007 12.7024 6.70722C12.831 6.65579 12.951 6.57865 13.0581 6.4715C13.131 6.39865 13.251 6.42865 13.2853 6.52722C13.3367 6.67293 13.4438 6.9215 13.6924 7.00293Z" fill="#F8D397"/>
<path d="M9.90811 5.89293C9.91669 5.95722 9.93811 5.98722 9.95954 5.98722C9.80255 6.15465 9.68535 6.35535 9.61668 6.57436C9.58668 6.79293 9.6424 6.90865 9.78811 6.91722C9.77526 6.95579 9.73668 6.97293 9.67668 6.96865C9.60811 6.96865 9.59954 6.99436 9.6424 7.05436C9.65097 7.06293 9.65526 7.07579 9.65097 7.09293C9.63811 7.1315 9.65097 7.15293 9.69383 7.16579L10.2938 7.3115C10.3495 7.32436 10.3881 7.30293 10.4095 7.2515L10.4953 6.99436C10.5295 6.90865 10.6367 6.8915 10.6967 6.9515C10.8338 7.10579 11.0181 7.17865 11.241 7.17436C11.2838 7.17436 11.3267 7.18722 11.361 7.21293C11.4638 7.29865 11.5795 7.34579 11.7038 7.36293C12.0167 7.40579 12.6038 7.46579 12.9295 7.32865C12.9651 7.31215 13.0039 7.3036 13.0431 7.3036C13.0823 7.3036 13.1211 7.31215 13.1567 7.32865C13.2424 7.3715 13.311 7.42722 13.3624 7.50007L13.4053 7.54293L13.4567 7.5515C13.6954 7.55281 13.9276 7.47437 14.1167 7.32865C14.2453 7.23865 14.3224 7.11865 14.361 6.97722C14.3695 6.94722 14.391 6.93436 14.4295 6.94293C14.451 7.20008 14.4338 7.43579 14.3867 7.65865L14.1595 7.8515C14.1317 7.87781 14.0979 7.89693 14.061 7.90722C13.7653 7.98436 13.3238 8.01865 13.1095 7.7615C13.0881 7.73579 13.0581 7.72722 13.0238 7.73579C12.9253 7.77007 12.8224 7.77865 12.7067 7.75722C12.5353 7.7315 12.4153 7.71436 12.3595 7.71865C12.1312 7.73762 11.9016 7.73475 11.6738 7.71007C11.3653 7.64579 11.0438 7.60722 10.7224 7.60293C10.6795 7.60293 10.6453 7.61579 10.6195 7.65436L10.4824 7.83865C10.4737 7.85142 10.4619 7.86175 10.4481 7.86865C10.4344 7.8737 10.4197 7.87517 10.4053 7.87293C10.2652 7.85717 10.1236 7.86295 9.98526 7.89007C9.96796 7.89393 9.95 7.89361 9.93286 7.88914C9.91572 7.88467 9.89989 7.87617 9.88668 7.86436C9.69754 7.70435 9.56152 7.49061 9.49668 7.2515L9.48811 6.96436C9.51352 6.63724 9.60694 6.31902 9.7624 6.03007C9.77954 5.9915 9.80526 5.96579 9.83954 5.94436C9.86526 5.93579 9.8824 5.91865 9.90811 5.89293Z" fill="#B9AA88"/>
<path d="M14.2153 6.36436C14.2367 6.51007 14.2367 6.6515 14.2153 6.79293C14.2067 6.83579 14.181 6.8615 14.1424 6.87008C13.791 6.95579 13.5981 6.64722 13.5081 6.31293C13.4781 6.1715 13.4867 6.0815 13.5338 6.03436C13.5664 6.00072 13.6059 5.9745 13.6495 5.95749C13.6931 5.94047 13.7399 5.93307 13.7867 5.93579C13.8334 5.93888 13.8789 5.95242 13.9196 5.97542C13.9604 5.99841 13.9956 6.03027 14.0224 6.06865C14.0781 6.14579 14.1424 6.24436 14.2153 6.36865L14.2153 6.36436Z" fill="#050325"/>
<path d="M9.95954 5.98722C10.041 5.97008 10.0881 5.9615 10.0967 5.96579C10.1344 5.974 10.1698 5.99059 10.2002 6.01433C10.2306 6.03807 10.2553 6.06835 10.2724 6.10293C10.2895 6.13658 10.2992 6.17355 10.3006 6.21128C10.3021 6.24901 10.2954 6.28661 10.281 6.3215L10.101 6.72865C10.0195 6.83579 9.91669 6.90007 9.78811 6.91293C9.6424 6.90865 9.58668 6.79293 9.61668 6.57007C9.63811 6.44579 9.74954 6.24865 9.95954 5.98722Z" fill="#020113"/>
<path d="M13.971 7.1915C14.1938 7.14865 14.3395 6.99436 14.4081 6.72007C14.4253 6.78865 14.4338 6.8615 14.4295 6.94293C14.391 6.93436 14.3695 6.94722 14.361 6.97722C14.3224 7.11865 14.2453 7.23436 14.1167 7.32865C13.5895 7.72722 13.6024 7.71865 13.2167 7.54293C13.1395 7.50436 13.0067 7.29436 12.9295 7.32865C12.5995 7.46579 12.0167 7.41007 11.7038 7.36293C11.5781 7.34484 11.4596 7.293 11.361 7.21293C11.3275 7.18449 11.2849 7.16925 11.241 7.17007C11.1401 7.1767 11.0389 7.16093 10.9448 7.12388C10.8507 7.08683 10.766 7.02943 10.6967 6.95579C10.6828 6.94007 10.6651 6.92824 10.6453 6.9215C10.6157 6.91331 10.5842 6.91674 10.5571 6.93109C10.53 6.94543 10.5094 6.96961 10.4995 6.99865L10.4095 7.2515C10.3881 7.30293 10.1953 7.42722 10.1395 7.41436C10.0453 7.39293 9.30811 7.1015 9.67668 6.96865C9.73668 6.96865 9.77526 6.95579 9.78811 6.91293C9.91669 6.90007 10.0195 6.83579 10.101 6.72865C10.0897 6.75886 10.0882 6.79183 10.0967 6.82293C10.1138 6.86579 10.1395 6.87865 10.1824 6.86579C10.2938 6.81436 10.3538 6.75007 10.3624 6.66865C10.371 6.5615 10.401 6.4715 10.4481 6.39436C10.5595 6.28293 10.6538 6.28722 10.7267 6.40293L10.8553 6.60007C11.0544 6.8359 11.3135 7.01358 11.6053 7.11436C11.7295 7.16579 11.8624 7.1915 12.0124 7.1915L12.4538 7.18722C12.5653 7.18722 12.6724 7.1615 12.7795 7.11436C12.891 7.06293 13.0024 7.03293 13.1181 7.02007C13.1567 7.02007 13.1867 7.02865 13.2124 7.05865C13.5553 7.42293 13.2767 7.43579 13.9667 7.1915H13.971Z" fill="#E4C093"/>
<path d="M13.5081 6.31293C13.5981 6.64722 13.791 6.95579 14.1424 6.87008C14.1853 6.8615 14.2067 6.83579 14.211 6.79722C14.2367 6.6515 14.2367 6.51007 14.2153 6.36865C14.2581 6.36007 14.271 6.34722 14.2667 6.32579C14.361 6.42865 14.4081 6.5615 14.4081 6.72436C14.3395 6.99436 14.1938 7.15293 13.9667 7.19579L13.6924 7.00293C13.5381 6.86579 13.4353 6.73293 13.3924 6.60436C13.3453 6.45007 13.3795 6.3515 13.5081 6.31293Z" fill="#FCE2E5"/>
<path d="M17.3181 6.66865L17.6695 6.48007C17.6962 6.46709 17.7266 6.46405 17.7553 6.4715C17.7865 6.47846 17.814 6.49679 17.8324 6.52293C17.8838 6.60865 17.901 6.69436 17.8753 6.78436C17.8637 6.82293 17.8432 6.8582 17.8153 6.88722C17.7767 6.93007 17.751 6.97293 17.7381 7.01579C17.751 7.07579 17.7467 7.12722 17.7295 7.17007C17.7235 7.18514 17.7142 7.1987 17.7024 7.2098C17.6905 7.22091 17.6764 7.22929 17.661 7.23436C17.3781 7.3415 17.1681 7.54293 16.9453 7.7915C16.9024 7.83865 16.5381 7.90722 16.4738 7.90293C16.4353 7.89865 16.401 7.9115 16.3667 7.93293C16.131 8.13007 15.8653 8.22007 15.5738 8.20722C15.3424 8.19865 15.1238 8.26293 14.8924 8.29293C14.8495 8.29722 14.8281 8.27579 14.8367 8.22865C14.8367 8.20293 14.8495 8.17722 14.8753 8.14722L16.0195 7.42293C16.1824 7.36722 16.2595 7.25579 16.2424 7.09293L16.8338 6.49293C16.8489 6.47888 16.8671 6.46864 16.8869 6.46309C16.9068 6.45754 16.9276 6.45684 16.9478 6.46104C16.968 6.46524 16.9868 6.47422 17.0028 6.48723C17.0187 6.50024 17.0314 6.51689 17.0395 6.53579L17.1167 6.73722C17.1381 6.78865 17.1681 6.79722 17.211 6.76293L17.3181 6.66865Z" fill="#FFE8AD"/>
<path d="M7.76954 7.14007L7.74811 7.30293C7.74811 7.34579 7.75668 7.38008 7.78668 7.41008C7.83383 7.45293 7.89811 7.47865 7.97954 7.48722L9.05097 8.16436C9.0424 8.2715 9.00811 8.31865 8.9524 8.30579L8.13811 8.1215C8.0524 8.10008 7.96668 8.06579 7.88526 8.01865C7.68383 7.90722 7.48668 7.92007 7.28526 7.77007C6.97788 7.54755 6.69102 7.29799 6.42811 7.02436C6.39946 6.99153 6.35987 6.97021 6.31668 6.96436L6.23097 6.95579C6.11954 6.91722 6.08954 6.81007 6.14526 6.62579C6.15811 6.57436 6.18811 6.55722 6.23526 6.5615C6.4324 6.58722 6.58668 6.66007 6.70668 6.77579C6.8224 6.8915 6.89097 6.86579 6.9124 6.70293C6.91919 6.65398 6.93676 6.60714 6.96383 6.56579C6.99383 6.51436 7.0324 6.50579 7.08383 6.5315C7.34954 6.6815 7.58097 6.88293 7.76954 7.14007Z" fill="#FEDEA5"/>
<path d="M6.23526 6.95579L6.31668 6.96436C6.35954 6.96865 6.4024 6.99007 6.4324 7.02436C6.67668 7.2815 6.96383 7.53007 7.28954 7.77007C7.48668 7.92007 7.68383 7.90722 7.88954 8.01865C7.97097 8.06579 8.0524 8.10008 8.1424 8.1215L8.95668 8.30579C9.0124 8.31865 9.0424 8.2715 9.05097 8.16436L9.39383 8.3615C9.45811 8.44722 9.47954 8.51579 9.4624 8.56722C9.45383 8.61007 9.42811 8.62722 9.38526 8.61865C9.13668 8.56293 8.91383 8.46865 8.65669 8.50722C8.54097 8.52008 8.42954 8.52865 8.3224 8.52865C8.21526 8.52865 8.10811 8.5115 8.00526 8.46865C7.70954 8.35293 7.40526 8.25436 7.09668 8.16865C7.07782 8.16407 7.06024 8.15528 7.04526 8.14293L6.08526 7.30293C6.05526 7.18722 6.1024 7.09722 6.22668 7.03293C6.23526 7.02862 6.24232 7.0218 6.24691 7.01338C6.25151 7.00496 6.25342 6.99533 6.2524 6.98579C6.25178 6.97987 6.24994 6.97415 6.24698 6.96898C6.24403 6.96382 6.24004 6.95933 6.23526 6.95579Z" fill="#C9E9AD"/>
<path d="M17.7381 7.01579C17.9738 7.05436 18.0295 7.17865 17.8967 7.39722C17.871 7.44007 17.8753 7.47436 17.9095 7.50865C17.9781 7.5815 18.0167 7.65865 18.0253 7.74865C18.0253 7.76579 18.0253 7.78722 18.0167 7.80436C18.0073 7.82279 17.9923 7.83779 17.9738 7.84722L16.5381 8.70865L14.3395 8.68293C14.301 8.68293 14.2838 8.6615 14.2838 8.61865C14.2838 8.58008 14.2967 8.55007 14.3224 8.52007C14.3579 8.49112 14.3986 8.46929 14.4424 8.45579C14.511 8.43007 14.5453 8.37007 14.541 8.28865L14.8753 8.14722C14.8534 8.16968 14.8386 8.19795 14.8324 8.22865C14.8281 8.27579 14.8453 8.29722 14.8924 8.28865C15.1238 8.26293 15.411 8.0915 15.6424 8.10436C16.4053 8.13436 16.9795 7.4915 17.661 7.23436C17.6764 7.22929 17.6905 7.22091 17.7024 7.2098C17.7142 7.1987 17.7235 7.18514 17.7295 7.17007C17.7467 7.12722 17.751 7.07579 17.7381 7.01579Z" fill="#B5EFBB"/>
<path d="M9.49668 7.2515C9.56526 7.50007 9.69811 7.7015 9.88668 7.86436C9.91668 7.88579 9.95097 7.89865 9.98526 7.89007C10.3624 7.81722 10.3924 7.95865 10.6195 7.65436C10.6304 7.63725 10.6457 7.62341 10.6638 7.61435C10.6819 7.60529 10.7022 7.60134 10.7224 7.60293C11.0438 7.60722 11.3653 7.64579 11.6781 7.71007C11.7853 7.7315 12.0124 7.73579 12.3595 7.71865C12.4153 7.71865 12.531 7.7315 12.7067 7.7615C12.8224 7.77865 12.9253 7.77007 13.0281 7.73579C13.0581 7.72722 13.0881 7.73579 13.1138 7.7615C13.3281 8.01865 13.7653 7.98436 14.0567 7.90722C14.0951 7.89758 14.1305 7.87842 14.1595 7.8515L14.3867 7.65865C14.3181 7.91579 14.2067 8.13007 14.0524 8.28865C13.7468 8.26107 13.4433 8.21383 13.1438 8.14722C13.0548 8.12125 12.9766 8.06712 12.921 7.99293C12.9079 7.97766 12.8913 7.96578 12.8727 7.95832C12.854 7.95085 12.8338 7.94802 12.8138 7.95007C12.0553 7.99293 11.3824 7.96722 10.791 7.86865C10.7481 7.86008 10.7224 7.87722 10.7053 7.91579C10.6324 8.10865 10.491 8.1815 10.2767 8.14293C10.2606 8.14037 10.2442 8.14221 10.2291 8.14825C10.214 8.15428 10.2008 8.1643 10.191 8.17722C10.1629 8.21524 10.1247 8.24463 10.0808 8.26205C10.0368 8.27947 9.9889 8.28423 9.9424 8.27579C9.92163 8.27324 9.90179 8.26567 9.88462 8.25372C9.86744 8.24177 9.85344 8.22581 9.84383 8.20722C9.7924 8.1215 9.72811 8.04436 9.65097 7.98008L9.48383 7.50865L9.49668 7.2515Z" fill="#779879"/>
<path d="M6.08526 7.30293L7.04526 8.14293C7.05811 8.15579 7.07954 8.16436 7.09668 8.16865C7.40954 8.25436 7.70954 8.35293 8.00526 8.46865C8.10811 8.5115 8.21526 8.53293 8.3224 8.52865C8.42954 8.52865 8.54097 8.52007 8.6524 8.50722C8.91383 8.46865 9.13668 8.56293 9.38526 8.61865C9.42811 8.62722 9.45383 8.61007 9.4624 8.56722C9.47954 8.51579 9.45811 8.44722 9.39383 8.3615C9.51383 8.40865 9.65097 8.5115 9.81383 8.67007L7.55097 8.79865L6.02954 7.86436C5.99097 7.83865 5.97811 7.80865 5.98668 7.7615C5.99886 7.6903 6.03704 7.62615 6.09383 7.5815C6.12811 7.55579 6.14097 7.51722 6.12811 7.47865L6.08526 7.30293Z" fill="#9EF2B8"/>
<path d="M14.0567 8.28865C13.9415 8.46339 13.79 8.61125 13.6125 8.72218C13.435 8.83312 13.2357 8.90451 13.0281 8.9315C12.9853 8.94008 12.9681 8.96579 12.9638 9.00436C12.9553 9.0515 12.9724 9.0815 13.0067 9.10293C13.0581 9.12007 13.1224 9.12436 13.2081 9.1115C12.5653 9.26579 11.6695 9.0215 10.8767 9.12008C10.911 9.07722 10.9281 9.0215 10.9281 8.96579C10.9281 8.92293 10.911 8.91436 10.8767 8.92293C10.8338 8.93579 10.791 8.92722 10.731 8.90579C10.2679 8.7431 9.88257 8.41282 9.65097 7.98008C9.90811 8.19436 10.3153 8.22865 10.7095 7.91579C10.7224 7.87722 10.7524 7.86008 10.7953 7.86865C11.3824 7.96722 12.0553 7.99722 12.8095 7.94579C12.8524 7.94579 12.8953 7.95865 12.921 7.99293C12.9766 8.06712 13.0548 8.12125 13.1438 8.14722C13.2981 8.19007 13.6024 8.23722 14.0524 8.28865L14.0567 8.28865Z" fill="#068F61"/>
<path d="M14.541 8.28865C15.4067 8.47722 15.081 8.6915 16.5381 8.70865L15.861 9.08579L13.3324 9.11579L14.541 8.28865Z" fill="#9EF2B8"/>
<path d="M12.6124 8.87579L12.5995 8.88865C12.5995 8.83722 12.5824 8.79865 12.5438 8.76865C12.5181 8.7515 12.4795 8.74293 12.4324 8.74722C12.021 8.79007 11.6138 8.79436 11.2153 8.76865C11.1595 8.59293 11.301 8.5415 11.6438 8.61436C11.7938 8.64436 11.9181 8.65722 12.0081 8.64007C12.1238 8.62293 12.2438 8.59293 12.3681 8.55007C12.402 8.53791 12.4389 8.53675 12.4735 8.54675C12.5082 8.55675 12.5388 8.57741 12.561 8.60579C12.5781 8.62722 12.591 8.64865 12.5995 8.67436C12.6124 8.7215 12.6167 8.79007 12.6124 8.87579ZM9.81383 8.67007L10.971 9.22722C10.2553 9.21436 9.12811 9.08579 8.39526 9.09865C8.26886 9.081 8.14013 9.09124 8.01811 9.12865C7.9324 8.9915 7.77811 8.88007 7.54668 8.79436L9.81383 8.66579L9.81383 8.67007Z" fill="#6BF0A9"/>
<path d="M18.9081 9.64293C18.951 9.84865 18.8138 10.0501 18.6081 10.0372C18.0424 10.0029 17.5624 10.0458 16.9838 9.94293C16.7267 9.90008 16.5124 9.90007 16.3281 9.94722C15.8267 10.0715 15.2695 10.1486 14.6567 10.1786C13.6324 10.2301 13.8553 10.7615 12.771 10.1786C12.4599 10.059 12.126 10.0107 11.7938 10.0372C11.6224 10.0801 11.4424 10.1058 11.2667 10.1229C11.0953 10.1358 10.9153 10.2558 10.731 10.4829C10.6753 10.4615 10.6453 10.4572 10.6324 10.4701L10.6753 10.4186C10.6967 10.3886 10.6967 10.3544 10.6753 10.3244C10.5767 10.1915 10.461 10.1401 10.3153 10.1786C10.1953 10.2044 10.0795 10.2129 9.95954 10.1915C9.70592 10.1512 9.46011 10.0717 9.23097 9.95579C9.14526 9.91293 9.05954 9.88722 8.96954 9.87008C8.72526 9.83579 8.52811 9.76722 8.26668 9.79293C7.51668 9.8615 6.77954 9.87008 6.05526 9.82293C5.75954 9.8015 5.47668 9.8615 5.18954 9.81865L5.18526 9.81436C5.1845 9.81306 5.18411 9.81158 5.18411 9.81008C5.18411 9.80857 5.1845 9.80709 5.18526 9.80579C5.18954 9.78865 5.18526 9.7715 5.1724 9.76293C5.14668 9.73722 5.12097 9.73722 5.09097 9.76293C4.98811 9.84865 4.94097 9.9515 4.95383 10.0715C4.89811 9.99865 4.89811 9.90865 4.9624 9.8015C4.98383 9.76293 4.97526 9.73722 4.93669 9.72008C4.75669 9.64293 4.68811 9.50579 4.7224 9.30436C4.72837 9.27606 4.74342 9.25048 4.76526 9.2315C4.7866 9.21267 4.81394 9.20204 4.8424 9.2015L5.49383 9.19293C5.55811 9.19293 5.57954 9.15865 5.55383 9.09436C5.51097 8.9915 5.51097 8.8715 5.56668 8.74293C6.02526 8.77722 6.48383 8.88008 6.9424 9.04722C7.2925 9.14287 7.65794 9.16908 8.01811 9.12436C8.10383 9.09436 8.2324 9.08579 8.39526 9.10293C8.93526 9.09436 9.46668 9.1415 10.0067 9.13722C10.2253 9.13722 10.4438 9.15007 10.6581 9.1715C10.8553 9.19722 11.0738 9.18008 11.3181 9.12008C11.7161 9.0422 12.1235 9.02486 12.5267 9.06865C12.5695 9.06865 12.5867 9.0515 12.591 9.01293L12.5995 8.88436L12.6124 8.87579C12.6038 8.95293 12.6167 9.00865 12.6553 9.04722C12.6631 9.05482 12.6731 9.05974 12.6839 9.06128C12.6946 9.06282 12.7056 9.0609 12.7153 9.05579C12.7453 9.03865 12.7581 9.01722 12.7581 8.99579C12.7453 8.95722 12.7581 8.95293 12.7838 8.97865C12.9124 9.10722 13.0538 9.15008 13.2124 9.1115C13.311 9.08579 13.3495 9.08579 13.3324 9.1115L15.861 9.08579C16.281 9.1115 16.6924 9.13293 17.0824 8.98722C17.4124 8.86293 17.7681 8.76436 18.1538 8.69579C18.1967 8.68722 18.2395 8.69579 18.2824 8.71722C18.4195 8.8115 18.4453 8.93579 18.3553 9.10293C18.3486 9.11504 18.3466 9.1292 18.3498 9.14267C18.3529 9.15614 18.361 9.16794 18.3724 9.17579L18.3981 9.18008L19.1267 9.18865C19.1867 9.18865 19.2295 9.21865 19.2553 9.27436C19.3024 9.39436 19.2981 9.49293 19.2295 9.57436C19.1695 9.63436 19.0667 9.66008 18.9081 9.64293Z" fill="#FEDEA5"/>
<path d="M12.5995 8.88865L12.591 9.01293C12.591 9.05579 12.5695 9.07293 12.5267 9.06865C12.1235 9.02486 11.7161 9.0422 11.3181 9.12008C10.731 9.3515 11.1467 9.12008 10.8767 9.12008C11.121 9.09008 11.2324 8.97436 11.2195 8.76865C11.6138 8.79436 12.021 8.78579 12.4324 8.74722C12.4795 8.74293 12.5181 8.74722 12.5438 8.76865C12.5824 8.79865 12.6038 8.83722 12.5995 8.88865Z" fill="#B5EFBB"/>
<path d="M18.9081 9.64293C19.0881 9.90436 19.0795 10.0715 18.8781 10.1572C18.0938 10.1786 17.3567 10.4272 16.5895 10.3972C15.981 10.3715 15.3681 10.3972 14.7381 10.3972C14.601 10.3972 14.4681 10.4272 14.3438 10.4915C14.2238 10.5515 14.1038 10.6201 13.9881 10.6929C13.8253 10.7872 13.641 10.8044 13.4267 10.7358L12.771 10.1786C13.8553 10.7615 13.6324 10.2301 14.6567 10.1786C15.2695 10.1486 15.8267 10.0715 16.3281 9.94722C16.5124 9.90436 16.731 9.90436 16.9838 9.94722C17.3481 10.0072 17.7038 9.99008 18.0724 9.99008C18.1067 9.99008 18.201 9.97293 18.3595 9.94722C18.4453 9.92579 18.5481 9.92579 18.6595 9.93008C18.8738 9.94293 18.951 9.84865 18.9081 9.64293Z" fill="#C9E9AD"/>
<path d="M10.6324 10.4701C10.5081 10.5772 10.341 10.5944 10.1395 10.5215C9.73668 10.3844 9.33811 10.2644 8.9524 10.1529C8.5624 10.0415 8.07383 10.1101 7.64954 10.0929L6.05526 10.0244C5.78378 10.0101 5.51203 10.0465 5.25383 10.1315C5.23647 10.1382 5.21783 10.1409 5.19928 10.1394C5.18074 10.1379 5.16276 10.1323 5.14668 10.1229C5.08827 10.0886 5.02159 10.0708 4.95383 10.0715C4.94097 9.9515 4.98811 9.84436 5.09097 9.75865C5.12097 9.73722 5.14668 9.73722 5.17668 9.75865C5.18526 9.7715 5.18954 9.78865 5.18526 9.80579C5.18428 9.80856 5.18428 9.81159 5.18526 9.81436L5.18954 9.81436C5.47668 9.8615 5.75954 9.8015 6.05526 9.82293C6.77954 9.87008 7.51668 9.8615 8.26668 9.79293C8.52383 9.76722 8.72526 9.83579 8.96954 9.87436C9.06383 9.88722 9.14954 9.91722 9.22668 9.95579C9.45383 10.0672 9.69811 10.1486 9.95954 10.1915C10.0795 10.2129 10.1953 10.2044 10.3153 10.1786C10.4567 10.1401 10.5767 10.1915 10.6753 10.3244C10.6967 10.3544 10.6967 10.3886 10.6753 10.4186L10.6324 10.4701Z" fill="#E7E4AA"/>
<path d="M10.6324 10.4701C10.641 10.4572 10.6753 10.4615 10.731 10.4829C10.5424 10.6672 10.2424 10.8644 10.1438 11.1258C9.93383 10.8129 10.0881 10.8172 9.30811 10.5986C8.04346 10.2676 6.73462 10.1374 5.42954 10.2129C5.36954 10.2129 5.24097 10.2044 5.04383 10.1701C5.00526 10.1615 4.97526 10.1272 4.95811 10.0715C5.0224 10.0715 5.08668 10.0844 5.14668 10.1229C5.18097 10.1401 5.21526 10.1444 5.25383 10.1315C5.50668 10.0458 5.76811 10.0115 6.05526 10.0244L7.64954 10.0929C8.07811 10.1101 8.5624 10.0415 8.9524 10.1529C9.33811 10.2601 9.73668 10.3844 10.1395 10.5215C10.341 10.5944 10.5081 10.5772 10.6324 10.4701Z" fill="#C9E9AD"/>
<path d="M12.771 10.1744L13.4267 10.7315C13.6924 11.0529 13.8467 11.4344 13.8981 11.8844C13.7481 14.5329 10.7267 15.1844 10.101 12.2829C10.071 12.1544 10.0581 12.0215 10.0581 11.8886C10.071 11.5672 10.2338 11.2544 10.2724 10.9329L10.731 10.4829C10.9153 10.2558 11.0953 10.1358 11.2667 10.1229C11.4424 10.1058 11.6181 10.0801 11.7938 10.0372C11.991 9.99436 12.3124 10.0372 12.771 10.1744Z" fill="#0C363C"/>
<path d="M18.8781 10.1572L18.7838 10.2215C18.7453 10.2515 18.741 10.2858 18.7667 10.3244C18.8095 10.3972 18.8095 10.4829 18.7667 10.5729C18.751 10.6031 18.7273 10.6283 18.6981 10.6458C18.6711 10.6625 18.6399 10.6714 18.6081 10.6715L15.1924 10.6544L14.6224 10.6672C14.5753 10.6672 14.5495 10.6929 14.5495 10.7401L14.5281 11.0872L14.5495 12.1501L14.5195 12.8744C14.4467 12.9429 14.4038 13.0458 14.391 13.1872C14.391 13.2386 14.3653 13.2686 14.3181 13.2815L13.8938 13.4058C13.8782 13.4097 13.8635 13.4171 13.851 13.4272C13.6795 13.5944 13.5724 13.5644 13.5253 13.3458C13.8467 12.9172 13.971 12.4286 13.8981 11.8844C13.8596 11.4616 13.6954 11.0601 13.4267 10.7315C13.641 10.8044 13.8253 10.7872 13.9838 10.6886C14.1038 10.6201 14.2238 10.5515 14.3438 10.4915C14.4724 10.4272 14.601 10.3972 14.7381 10.3972C15.3681 10.3972 15.9467 10.1229 16.5553 10.1444C17.3267 10.1744 18.0981 10.1786 18.8781 10.1572ZM5.04811 10.1744C5.24097 10.2044 5.36954 10.2172 5.43383 10.2129C5.91768 10.1871 6.40245 10.1829 6.88668 10.2001C7.08383 10.2001 7.2724 10.2129 7.44811 10.2386C7.64526 10.2644 7.83811 10.2772 8.03097 10.2686C8.4724 10.2558 8.90954 10.3115 9.34668 10.4315C10.1267 10.6458 9.93383 10.8129 10.1438 11.1258C9.99779 11.3887 9.91169 11.6806 9.89169 11.9807C9.87168 12.2808 9.91827 12.5815 10.0281 12.8615C10.0753 12.9986 10.191 13.0501 10.1995 13.2044C10.2081 13.2472 10.221 13.2858 10.2467 13.3201L10.461 13.5986C10.3153 13.7529 10.161 13.7744 9.98954 13.6672C9.95456 13.6452 9.91378 13.6343 9.87251 13.6358C9.83123 13.6374 9.79137 13.6513 9.75811 13.6758C9.5524 13.8301 9.56954 13.9844 9.80954 14.1386C9.8524 14.1686 9.89097 14.1986 9.92097 14.2329C10.0153 14.3358 10.041 14.4258 10.1781 14.4944C10.4353 14.6229 10.6967 14.7301 10.971 14.8115C11.2367 14.8886 11.5024 14.7944 11.7938 14.8758V15.0986L10.0795 15.0044C10.1353 14.8929 10.1095 14.8115 10.0024 14.7686C9.84383 14.7001 9.73668 14.6829 9.6724 14.7172C9.68526 14.7001 9.68097 14.6744 9.6724 14.6358C9.66363 14.6112 9.64891 14.5891 9.62954 14.5715C9.39811 14.3401 9.2824 14.1086 9.27811 13.8772C9.26954 13.4786 9.25668 13.0801 9.23526 12.6858L9.26954 10.9929C9.26954 10.8944 9.25668 10.8129 9.22668 10.7529C9.20097 10.6886 9.14097 10.6544 9.05097 10.6415C8.9123 10.6221 8.77119 10.6293 8.63526 10.6629C7.52097 10.6415 6.40668 10.6544 5.31383 10.6972C5.24954 10.6972 5.18954 10.6544 5.13383 10.5686C5.16383 10.3629 5.13383 10.2301 5.04811 10.1744Z" fill="#9EF2B8"/>
<path d="M12.9081 11.1429C12.7881 10.9758 12.6338 10.8644 12.4495 10.8172C12.2953 10.8044 12.2095 10.7401 12.1838 10.6244C12.171 10.5472 12.2481 10.4829 12.3124 10.5172L12.4795 10.5944C12.5181 10.6115 12.5481 10.6029 12.5781 10.5686L12.6638 10.4401C12.6895 10.4101 12.7195 10.3972 12.7538 10.3972C12.831 10.4058 12.9038 10.4401 12.9638 10.4915C13.0453 10.5644 13.0495 10.6415 12.9767 10.7229C12.9638 10.739 12.9475 10.752 12.929 10.7609C12.9104 10.7698 12.8901 10.7744 12.8695 10.7744H12.8567V10.7786C12.8546 10.781 12.8534 10.7841 12.8534 10.7872C12.8534 10.7904 12.8546 10.7934 12.8567 10.7958C12.9853 10.9544 13.0024 11.0701 12.8995 11.1429H12.9081Z" fill="#01AAAC"/>
<path d="M9.26954 10.9929C9.21383 11.1858 9.19669 11.3872 9.21383 11.5972C9.21383 11.6401 9.20954 11.6829 9.18811 11.7258C9.14954 11.8072 9.05097 12.0044 9.04669 11.9829C8.96954 11.4772 8.74669 11.1729 8.39526 11.0829L8.63526 10.6629C8.76811 10.6286 8.90954 10.6201 9.05097 10.6415C9.14097 10.6544 9.20097 10.6886 9.22668 10.7529C9.25668 10.8129 9.26954 10.8944 9.26954 10.9929ZM15.1924 10.6544C15.2438 10.7786 15.3167 10.8944 15.4153 10.9972L15.1153 11.1729C14.9095 11.3015 14.6138 11.2886 14.601 11.2715C14.5639 11.2159 14.5391 11.1531 14.5281 11.0872L14.5495 10.7401C14.5495 10.6929 14.5753 10.6672 14.6224 10.6672L15.1924 10.6544Z" fill="#03E08B"/>
<path d="M12.4495 10.8172C12.6338 10.8644 12.7881 10.9758 12.9081 11.1429C12.8224 11.1301 12.7795 11.1644 12.7838 11.2415C12.7838 11.2586 12.7924 11.2758 12.8053 11.2886C12.9638 11.4601 12.9167 11.5886 13.0367 11.7729C13.0581 11.8072 13.0924 11.8201 13.131 11.8158L13.2895 11.8029C13.3624 11.7944 13.401 11.8244 13.4181 11.8972C13.4224 11.9401 13.4267 11.9829 13.4181 12.0258C13.401 12.1244 13.3453 12.1715 13.2467 12.1672C13.2172 12.1652 13.1876 12.1692 13.1597 12.1787C13.1317 12.1883 13.1059 12.2033 13.0838 12.2229C12.9724 12.3172 12.9253 12.2915 12.9424 12.1415C12.9767 11.8072 12.8267 11.4986 12.6338 11.2458C12.6064 11.2107 12.5665 11.1877 12.5224 11.1815C12.4737 11.1731 12.428 11.1524 12.3895 11.1215C12.3553 11.0915 12.3467 11.0615 12.3724 11.0229C12.4153 10.9544 12.441 10.8858 12.4495 10.8172Z" fill="#01848A"/>
<path d="M10.2681 10.9286C10.2467 11.1301 10.2081 11.3229 10.1481 11.5072C10.0924 11.6744 10.0624 11.7986 10.0624 11.8886C10.0581 12.0172 10.071 12.1544 10.101 12.2829C10.1053 12.3129 10.1267 12.3215 10.1567 12.3086C10.1653 12.3729 10.1824 12.4072 10.2124 12.4158C10.1567 12.6001 10.1953 12.7458 10.341 12.8529C10.3324 12.9472 10.3667 13.0072 10.4438 13.0415C10.4438 13.2129 10.5467 13.3415 10.7524 13.4144C10.7824 13.4144 10.7953 13.4315 10.7953 13.4572C10.791 13.4701 10.7824 13.4786 10.7695 13.4786L10.7567 13.4829C10.7536 13.4864 10.7512 13.4905 10.7498 13.4949C10.7483 13.4993 10.7477 13.504 10.7481 13.5086C10.7567 13.5686 10.7824 13.5986 10.8338 13.6072C10.7181 13.5944 10.6495 13.6201 10.6238 13.6886C10.6238 13.6972 10.6238 13.7229 10.641 13.7572C10.5961 13.6877 10.5321 13.6326 10.4567 13.5986C10.2853 13.3758 10.1224 13.1272 10.0281 12.8658C9.90379 12.5491 9.86063 12.2064 9.90254 11.8689C9.94446 11.5313 10.0701 11.2096 10.2681 10.9329V10.9286Z" fill="#068F61"/>
<path d="M9.26954 10.9929L9.23526 12.6858L9.22668 12.3215C9.22668 12.1972 9.19668 12.1929 9.13668 12.3001L8.93097 12.6772C8.90094 12.6982 8.87483 12.7243 8.85383 12.7544C8.80668 12.3429 8.6824 11.9144 8.49811 11.4729C8.45526 11.3615 8.39097 11.2886 8.31383 11.2501L8.39526 11.0786C9.20954 11.3015 8.93954 12.2658 9.18811 11.7215C9.20954 11.6829 9.21811 11.6444 9.21383 11.5972C9.19669 11.3872 9.21383 11.1858 9.26954 10.9929ZM15.4153 11.0015L15.6595 11.3872C15.3867 11.4772 15.1535 11.6589 14.9995 11.9015C14.9672 11.9504 14.9466 12.0061 14.9395 12.0644C14.931 12.1244 14.9224 12.1844 14.9224 12.2444C14.9095 12.4286 15.0081 12.5829 15.0124 12.7801L14.7467 12.3815C14.691 12.2101 14.6267 12.1286 14.5495 12.1501L14.5281 11.0872C14.5453 11.1729 14.571 11.2372 14.5967 11.2715C14.6095 11.2844 14.6224 11.2886 14.6395 11.2886C14.6738 11.2886 14.6824 11.2715 14.6738 11.2372V11.2329C14.8238 11.2501 14.9738 11.2586 15.1153 11.1729L15.4153 11.0015Z" fill="#6BF0A9"/>
<path d="M12.6767 11.6915L11.8067 11.3529C11.7897 11.3459 11.771 11.3438 11.7528 11.3468C11.7346 11.3498 11.7177 11.3579 11.7038 11.3701L11.3438 11.6658C11.2667 11.6658 11.2924 11.5672 11.4295 11.3786C11.451 11.3486 11.4767 11.3272 11.5067 11.3101C11.5357 11.2942 11.568 11.2854 11.601 11.2844C11.6953 11.2801 11.7853 11.2415 11.8667 11.1772C11.8831 11.1635 11.9024 11.1536 11.9232 11.1484C11.944 11.1432 11.9657 11.1428 11.9867 11.1472C12.3124 11.2072 12.5438 11.3872 12.6767 11.6915Z" fill="#01AAAC"/>
<path d="M8.31383 11.2501C8.39097 11.2886 8.45097 11.3615 8.49811 11.4729C8.68668 11.9144 8.80668 12.3429 8.85383 12.7586L8.53668 13.2129C8.43383 13.3586 8.33954 13.5129 8.25383 13.6844C8.15502 13.8699 8.02448 14.0367 7.86811 14.1772C7.85973 14.1853 7.84944 14.1911 7.83819 14.1941C7.82694 14.1971 7.81512 14.1972 7.80383 14.1944L7.76954 14.1986C7.61954 14.1344 7.37097 14.1044 7.25526 14.0015C7.16954 13.9244 7.04097 13.8729 6.89097 13.8558C7.04954 13.7915 7.25526 13.6758 7.50811 13.5044C7.74811 13.3329 7.9024 13.1315 7.97097 12.9001C8.03954 12.6429 7.9624 12.3858 7.73097 12.1201L8.31383 11.2501Z" fill="#C9DA91"/>
<path d="M10.7138 12.0686L10.6967 12.3215C10.6838 12.4201 10.7138 12.5272 10.7781 12.6386C10.8595 12.7844 10.9924 12.9472 11.1853 13.1272L11.0267 13.3029C10.9838 13.3458 10.9924 13.3801 11.0524 13.3929C11.1338 13.4144 11.2153 13.4572 11.2924 13.5129C11.3867 13.5815 11.4124 13.5601 11.3695 13.4486C11.3634 13.4335 11.3591 13.4177 11.3567 13.4015C11.354 13.3812 11.3575 13.3605 11.3667 13.3422C11.3758 13.3239 11.3903 13.3087 11.4081 13.2986C11.601 13.1744 11.7338 13.0029 11.8153 12.7844C11.8281 12.7415 11.8581 12.7244 11.8967 12.7201C11.9395 12.7201 11.9824 12.7244 12.021 12.7415L11.9953 12.9515C11.991 12.9944 12.0081 13.0158 12.0553 13.0029C12.2481 12.9601 12.3724 12.9986 12.4324 13.1229C12.4281 13.1486 12.411 13.1701 12.3767 13.1872C12.1881 13.2086 12.0724 13.3115 12.0295 13.4872C12.0268 13.5053 12.0189 13.5223 12.0067 13.536C11.9946 13.5497 11.9787 13.5596 11.961 13.5644C11.7981 13.6072 11.7338 13.7144 11.7595 13.8729L11.5067 13.8944C11.271 13.9072 11.0181 13.7401 10.8338 13.6072C10.6795 13.5858 10.8124 13.2515 10.8553 13.2044C10.8694 13.1889 10.8783 13.1694 10.8806 13.1486C10.8829 13.1278 10.8785 13.1068 10.8681 13.0886C10.7953 12.9258 10.6667 12.8144 10.6024 12.6472C10.5532 12.5257 10.5173 12.3993 10.4953 12.2701C10.4929 12.2695 10.4905 12.2696 10.4882 12.2704C10.4859 12.2711 10.4839 12.2725 10.4824 12.2744C10.3967 12.3986 10.3067 12.4458 10.2124 12.4158C10.1824 12.4072 10.1653 12.3729 10.1567 12.3086L10.1867 12.2744C10.2038 12.2529 10.2081 12.2315 10.1995 12.2101C10.1481 12.0601 10.1567 11.9058 10.2295 11.7386C10.251 11.7001 10.2424 11.6658 10.2081 11.6401C10.1653 11.6058 10.1695 11.5758 10.221 11.5544C10.2724 11.5329 10.3324 11.5158 10.3967 11.5115C10.5424 11.4944 10.3753 11.4686 10.6624 11.4129C10.6765 11.4093 10.6912 11.4093 10.7053 11.4129C10.7524 11.4344 10.7781 11.4901 10.7653 11.5415C10.7103 11.7114 10.6913 11.891 10.7095 12.0686H10.7138Z" fill="#01AAAC"/>
<path d="M15.6595 11.3915C15.6981 11.4558 15.7281 11.4986 15.7581 11.5201C15.4924 11.6144 15.3467 11.7858 15.3295 12.0344C15.3167 12.2015 15.3295 12.4201 15.3724 12.6901C15.4024 12.8958 15.471 13.0586 15.5824 13.1872C15.7795 13.4186 16.0238 13.6415 16.311 13.8644C16.371 13.9158 16.3838 13.9586 16.3453 13.9929C16.2724 14.0358 16.1995 14.1044 16.131 14.1901C16.1095 14.2244 16.0795 14.2329 16.041 14.2158C15.995 14.1945 15.9529 14.1655 15.9167 14.1301L15.0167 12.7801C15.0038 12.5829 14.9095 12.4286 14.9224 12.2444C14.9224 12.1844 14.931 12.1244 14.9395 12.0644C14.9466 12.0061 14.9672 11.9504 14.9995 11.9015C15.1624 11.6529 15.3853 11.4858 15.6595 11.3872V11.3915Z" fill="#AFE89F"/>
<path d="M15.7581 11.5158L15.9167 11.8072C15.8446 11.7884 15.7685 11.7914 15.6981 11.8158C15.6595 11.8329 15.6424 11.8586 15.6424 11.9015C15.6424 12.0815 15.6724 12.2444 15.7367 12.3815C15.7538 12.4244 15.7538 12.4672 15.741 12.5058C15.6724 12.7286 15.651 12.8829 15.6853 12.9729C15.7548 13.1919 15.8791 13.3894 16.0463 13.5469C16.2136 13.7044 16.4183 13.8166 16.641 13.8729C16.6924 13.9415 16.6453 14.0186 16.5081 14.1044C16.4567 14.1344 16.4053 14.0958 16.3453 13.9929C16.3881 13.9586 16.371 13.9158 16.3067 13.8644C16.0435 13.6631 15.8009 13.4363 15.5824 13.1872C15.471 13.0586 15.4024 12.8915 15.3681 12.6901C15.33 12.4737 15.3157 12.2538 15.3253 12.0344C15.3467 11.7858 15.4924 11.6144 15.7581 11.5201L15.7581 11.5158Z" fill="#C9DA91"/>
<path d="M12.7795 11.8158C12.8138 12.0429 12.8053 12.2186 12.7538 12.3558C12.6981 12.4972 12.6167 12.5358 12.4967 12.4758C12.5395 12.2701 12.561 12.0729 12.5695 11.8758C12.5695 11.7815 12.6424 11.7601 12.7795 11.8158Z" fill="#01AAAC"/>
<path d="M15.9167 11.8072C16.041 12.0558 16.1438 12.1972 16.221 12.2358C16.4995 12.3644 16.7653 12.5572 17.0138 12.8101C17.091 12.8829 17.0824 12.9515 16.9967 13.0115L16.8895 13.0886C16.791 13.1615 16.7867 13.2344 16.8767 13.3158C17.0053 13.4315 17.0867 13.5686 17.1167 13.7272C17.0738 13.8901 16.9881 13.9458 16.8638 13.8944C16.761 13.8429 16.6838 13.8386 16.641 13.8729C16.4183 13.8166 16.2136 13.7044 16.0463 13.5469C15.8791 13.3894 15.7548 13.1919 15.6853 12.9729C15.651 12.8872 15.6724 12.7286 15.741 12.5015C15.7538 12.4629 15.7538 12.4244 15.7367 12.3815C15.6724 12.2444 15.6424 12.0815 15.6424 11.8972C15.6424 11.8586 15.6595 11.8329 15.6981 11.8158C15.7685 11.7914 15.8446 11.7884 15.9167 11.8072Z" fill="#F8D397"/>
<path d="M13.8981 11.8844C13.9371 12.1405 13.9242 12.4019 13.8601 12.6529C13.7961 12.904 13.6822 13.1396 13.5253 13.3458C13.3484 13.6443 13.0872 13.8837 12.7745 14.034C12.4618 14.1842 12.1116 14.2385 11.7681 14.1901C11.358 14.163 10.9654 14.0137 10.641 13.7615C10.6281 13.7186 10.6195 13.6972 10.6238 13.6886C10.6495 13.6201 10.7181 13.5944 10.8338 13.6072C11.0224 13.7358 11.271 13.9072 11.5067 13.8944L11.7595 13.8729C11.8195 13.9586 11.8967 13.9801 11.9953 13.9372C12.0295 13.9244 12.0553 13.8944 12.0638 13.8558C12.0938 13.7101 12.1924 13.6286 12.3467 13.6115C12.4367 13.6029 12.4753 13.5515 12.4453 13.4572L12.3767 13.1872C12.411 13.1701 12.4281 13.1486 12.4324 13.1229C12.5138 13.2086 12.5738 13.3072 12.6081 13.4186C12.621 13.4615 12.6467 13.4915 12.681 13.5172C12.7667 13.5729 12.7795 13.6458 12.7281 13.7315C12.7067 13.7744 12.7153 13.7786 12.7538 13.7529L12.9981 13.6244C13.0281 13.6115 13.0453 13.5858 13.0538 13.5515C13.0624 13.5129 13.0324 13.4444 12.9553 13.3372C13.2151 13.1207 13.3885 12.818 13.4438 12.4844C13.4481 12.3858 13.461 12.3258 13.4781 12.3044C13.6195 12.1158 13.6838 12.1372 13.671 12.3815C13.6468 12.6379 13.5616 12.8848 13.4224 13.1015C13.4181 13.1144 13.4181 13.1272 13.431 13.1358L13.4524 13.1529C13.4695 13.1658 13.4867 13.1658 13.4953 13.1486C13.7824 12.7801 13.9153 12.3601 13.8981 11.8844Z" fill="#07C793"/>
<path d="M7.73097 12.1201C7.9624 12.3815 8.03954 12.6429 7.97097 12.9001C7.89318 13.1489 7.72902 13.3617 7.50811 13.5001C7.31682 13.6421 7.10973 13.7614 6.89097 13.8558C6.83954 13.9201 6.7924 13.8901 6.74097 13.7572C6.7245 13.7171 6.71899 13.6734 6.72501 13.6304C6.73104 13.5875 6.74838 13.5469 6.77526 13.5129L7.0324 13.1958C7.07526 13.1529 7.06669 13.1101 7.01526 13.0801C6.62526 12.8444 6.98097 12.6515 7.21668 12.4372C7.28954 12.3686 7.37954 12.3172 7.49097 12.2786C7.6324 12.2358 7.70954 12.1844 7.73097 12.1201Z" fill="#F8D397"/>
<path d="M11.1853 13.1272C11.0269 12.9847 10.8898 12.8201 10.7781 12.6386C10.7171 12.5446 10.6886 12.4333 10.6967 12.3215L11.2324 12.2186C11.2753 12.2101 11.3095 12.2186 11.331 12.2615L11.5795 12.6129C11.601 12.6472 11.6053 12.6815 11.5881 12.7201C11.4938 12.9215 11.361 13.0544 11.1853 13.1272Z" fill="#01848A"/>
<path d="M14.7467 12.3858L15.0124 12.7801L15.9167 14.1258C15.9381 14.1944 15.9295 14.2458 15.8995 14.2801C15.8567 14.3272 15.7795 14.3229 15.7367 14.2801C15.4624 13.9372 15.2781 13.5258 15.0338 13.1701C14.9095 12.9944 14.8024 12.8058 14.7038 12.6086C14.6836 12.5736 14.6746 12.5332 14.6781 12.4929C14.6867 12.4501 14.7081 12.4115 14.7467 12.3815V12.3858Z" fill="#15684C"/>
<path d="M13.4395 12.4844C13.3967 12.8015 13.2338 13.0844 12.9553 13.3372L12.6381 12.8572C12.6254 12.8393 12.6179 12.8182 12.6164 12.7963C12.6149 12.7744 12.6195 12.7524 12.6295 12.7329C12.6981 12.6044 12.801 12.5529 12.9338 12.5958C12.9493 12.6012 12.966 12.6021 12.982 12.5983C12.9979 12.5945 13.0124 12.5862 13.0238 12.5744C13.1267 12.4758 13.2681 12.4458 13.4395 12.4801V12.4844Z" fill="#01848A"/>
<path d="M8.93097 12.6772C9.00811 12.7886 9.0124 12.8786 8.94383 12.9558C8.64383 13.2772 8.39954 13.7658 8.1424 14.1815C8.13042 14.2006 8.11431 14.2167 8.09526 14.2286C8.07725 14.2409 8.05667 14.2488 8.03512 14.2518C8.01356 14.2547 7.99161 14.2527 7.97097 14.2458C7.61526 14.1215 8.03526 14.0958 8.25383 13.6801C8.33954 13.5172 8.43383 13.3586 8.53668 13.2129C8.64383 13.0629 8.75097 12.9129 8.85383 12.7544C8.86668 12.7329 8.8924 12.7115 8.93097 12.6772Z" fill="#15684C"/>
<path d="M10.4438 13.0415C10.3667 13.0072 10.3324 12.9472 10.3367 12.8529C10.401 12.7844 10.4653 12.7544 10.5167 12.7629C10.5595 12.7629 10.5853 12.7886 10.5981 12.8315C10.6238 12.9429 10.5724 13.0158 10.4438 13.0415Z" fill="#01AAAC"/>
<path d="M14.5195 12.8744C14.5624 13.2601 14.541 13.6329 14.4595 13.9929C14.4381 14.0915 14.3867 14.2115 14.3053 14.3572C14.2453 14.4644 14.1895 14.5844 14.1338 14.7215L12.1324 14.9101C12.1193 14.9117 12.106 14.9098 12.094 14.9046C12.0819 14.8993 12.0715 14.8908 12.0638 14.8801C12.0467 14.8586 12.021 14.8629 11.9867 14.8844C11.9246 14.8626 11.8576 14.8596 11.7938 14.8758C11.5024 14.7944 11.2367 14.8886 10.971 14.8115C10.6967 14.7258 10.431 14.6229 10.1738 14.4944C10.0453 14.4258 10.0153 14.3358 9.92097 14.2372C9.88855 14.1994 9.85105 14.1662 9.80954 14.1386C9.56954 13.9844 9.5524 13.8301 9.75811 13.6758C9.79137 13.6513 9.83123 13.6374 9.87251 13.6358C9.91378 13.6343 9.95456 13.6452 9.98954 13.6672C10.161 13.7744 10.3153 13.7529 10.461 13.5986C10.5348 13.6333 10.5973 13.6883 10.641 13.7572C10.9453 14.0015 11.3181 14.1429 11.7681 14.1858C12.1112 14.2346 12.4611 14.181 12.7737 14.0315C13.0864 13.882 13.3478 13.6435 13.5253 13.3458C13.5724 13.5644 13.6838 13.5944 13.8553 13.4315C13.8674 13.4198 13.8821 13.411 13.8981 13.4058L14.3181 13.2815C14.361 13.2686 14.3867 13.2386 14.391 13.1872C14.4038 13.0501 14.4467 12.9429 14.5195 12.8744Z" fill="#78FBC0"/>
<path d="M10.0795 15.0044L10.0924 17.0744L10.0753 17.6744C10.1095 16.8001 9.45811 17.4386 9.15383 17.3915C9.13678 17.3894 9.12049 17.3833 9.10632 17.3736C9.09215 17.3639 9.08051 17.3509 9.0724 17.3358C9.02954 17.2672 9.00811 17.1858 9.00811 17.0958L9.6724 14.7172C9.73668 14.6872 9.84383 14.7001 10.0024 14.7686C10.1095 14.8115 10.131 14.8929 10.0795 15.0044Z" fill="#D3CE9A"/>
<path d="M14.1338 14.7215C14.2024 14.7644 14.241 14.9186 14.2495 15.1758C14.0738 15.0901 13.9495 15.1501 13.8681 15.3472C13.8553 15.3815 13.8253 15.4072 13.7867 15.4158C13.7571 15.4229 13.7263 15.4229 13.6967 15.4158C13.6624 15.2572 13.5338 15.1715 13.3024 15.1715C12.7924 15.1715 12.3595 15.1972 12.0038 15.2572L11.9867 14.8844C12.021 14.8629 12.0467 14.8586 12.0638 14.8801C12.081 14.9015 12.1067 14.9101 12.1324 14.9101L14.1338 14.7215Z" fill="#A2DEA7"/>
<path d="M11.7938 14.8715C11.858 14.8567 11.9251 14.8612 11.9867 14.8844L12.0038 15.2572V16.7872L11.9995 17.8929C11.9337 17.9084 11.8646 17.9024 11.8024 17.8758L11.7938 17.2029V14.8715Z" fill="#181E26"/>
<path d="M10.0795 15.0044L11.7938 15.0986V17.1986C11.2453 17.2501 10.6795 17.2072 10.0924 17.0701L10.0795 15.0044Z" fill="#EFE0A0"/>
<path d="M13.6967 15.4158C13.6667 15.4286 13.6538 15.4458 13.6538 15.4672C13.6538 15.9815 13.6453 16.5258 13.6281 17.0958C13.3281 17.1301 13.0624 17.1386 12.831 17.1044C12.5333 17.0687 12.2491 16.9597 12.0038 16.7872V15.2572C12.4333 15.1902 12.8679 15.1615 13.3024 15.1715C13.5338 15.1715 13.6624 15.2572 13.6967 15.4158Z" fill="#FEDEA5"/>
<path d="M14.2495 15.1758L14.7553 17.3486C14.6793 17.3707 14.612 17.4156 14.5624 17.4772C14.5324 17.5029 14.5024 17.5115 14.4681 17.4986C14.211 17.4001 13.9281 17.4644 13.9281 17.6529C13.9281 17.7086 13.6881 17.7301 13.6495 17.7901L13.6281 17.0915C13.6324 16.9329 13.2167 14.9058 14.2495 15.1758Z" fill="#E4D5AC"/>
<path d="M12.0038 16.7872C12.2395 16.9586 12.5181 17.0615 12.831 17.1044C13.0624 17.1344 13.3238 17.1301 13.6281 17.0915L13.6495 17.7901L13.8081 18.0901C13.8295 18.1244 13.821 18.1501 13.7781 18.1586C13.1895 18.2588 12.5865 18.234 12.0081 18.0858L11.9995 17.8929L12.0038 16.7872Z" fill="#C9E9AD"/>
<path d="M9.00811 17.0958C9.00811 17.1858 9.02954 17.2672 9.0724 17.3358C9.08954 17.3658 9.11526 17.3872 9.15383 17.3915C9.45811 17.4386 10.1095 16.8001 10.0753 17.6744C10.1053 17.7301 10.101 17.7986 10.0667 17.8758L9.7624 18.2058C9.55668 18.1586 9.34668 18.2486 9.02954 18.1329C8.87954 18.0772 8.73383 18.0044 8.60097 17.9186L8.91811 17.4901C8.93954 17.4558 8.95668 17.4215 8.96097 17.3829L9.00811 17.0958Z" fill="#A2DEA7"/>
<path d="M11.7938 17.2029L11.8024 17.8758C11.8024 17.9015 11.8024 17.9272 11.7895 17.9615C11.7681 17.9615 11.7553 17.9744 11.7467 18.0001C11.7467 18.0258 11.7338 18.0386 11.7081 18.0386C11.2067 18.0686 10.7053 18.0386 10.2081 17.9529C10.1818 17.9487 10.1569 17.9385 10.1353 17.9229C10.1122 17.9089 10.0894 17.8946 10.0667 17.8801C10.101 17.7986 10.1053 17.7301 10.0753 17.6744L10.0924 17.0744C10.6795 17.2072 11.2495 17.2501 11.7938 17.2029Z" fill="#C9E9AD"/>
<path d="M14.7553 17.3486L15.1238 17.9744C15.0295 18.0815 14.9267 18.1458 14.8153 18.1629C14.7081 18.1844 14.5324 18.1972 14.2795 18.2058C14.2398 18.2051 14.2017 18.1898 14.1724 18.1629C13.9974 18.0338 13.8683 17.8521 13.8038 17.6444L13.8724 17.4429C13.881 17.4086 14.2967 17.4301 14.4681 17.4986C14.5024 17.5115 14.5324 17.5029 14.5624 17.4729C14.6126 17.4129 14.6799 17.3696 14.7553 17.3486Z" fill="#B5EFBB"/>
<path d="M13.8038 17.6444C13.8638 17.8458 13.9881 18.0215 14.1724 18.1672C14.2067 18.1929 14.241 18.2058 14.2795 18.2015C14.5324 18.1972 14.7081 18.1844 14.8153 18.1629C14.9267 18.1458 15.0295 18.0772 15.1238 17.9744C15.2824 18.1672 15.2653 18.3515 15.0724 18.5272C15.0581 18.5404 15.0411 18.5503 15.0226 18.5563C15.0041 18.5622 14.9845 18.564 14.9653 18.5615C14.4553 18.5015 14.0738 18.6044 13.821 18.8572H12.2781C12.2418 18.8569 12.206 18.8491 12.1728 18.8343C12.1396 18.8196 12.1098 18.7982 12.0853 18.7715C12.0351 18.7165 12.0076 18.6445 12.0081 18.5701V18.0858C12.6081 18.2358 13.1953 18.2572 13.7781 18.1586C13.821 18.1501 13.8295 18.1286 13.8081 18.0901L13.6495 17.7901C13.6857 17.7383 13.7065 17.6774 13.7095 17.6144C13.7095 17.5672 13.7267 17.5544 13.7653 17.5758C13.7867 17.5886 13.7995 17.6101 13.8081 17.6444L13.8038 17.6444Z" fill="#78FBC0"/>
<path d="M10.071 17.8758L10.1353 17.9229C10.1567 17.9401 10.1781 17.9486 10.2081 17.9529C10.7053 18.0386 11.2067 18.0686 11.7081 18.0386C11.7338 18.0386 11.7467 18.0258 11.751 17.9958C11.751 17.9744 11.7681 17.9615 11.7895 17.9615V18.5186L9.81811 18.5144C9.77526 18.5144 9.75383 18.4929 9.74526 18.4501C9.72811 18.3772 9.7324 18.2958 9.7624 18.2058L10.0667 17.8758L10.071 17.8758Z" fill="#9EF2B8"/>
<path d="M8.60097 17.9144C8.73383 18.0044 8.87954 18.0772 9.02954 18.1329C9.34668 18.2486 9.55668 18.1586 9.75811 18.2058C9.7324 18.2958 9.72811 18.3772 9.74526 18.4501C9.75383 18.4929 9.77526 18.5144 9.81811 18.5144L11.7895 18.5229C11.8067 18.7115 11.7038 18.8144 11.4981 18.8315C11.211 18.8572 10.7438 18.8486 10.0881 18.8101C9.89097 18.8015 9.75811 18.7372 9.69383 18.6215C9.68485 18.6053 9.67149 18.5919 9.65526 18.5829C9.64094 18.5746 9.62468 18.5701 9.60811 18.5701C9.33811 18.5829 8.89668 18.5958 8.66526 18.4544C8.6286 18.4338 8.60105 18.4001 8.58811 18.3601C8.53668 18.2144 8.54526 18.0644 8.60097 17.9144Z" fill="#78FBC0"/>
<path d="M12.4153 6.0215C12.4324 6.2615 12.3724 6.45007 12.2224 6.58722C12.0938 6.70293 11.9353 6.7415 11.7381 6.70722C11.3267 6.63007 11.241 6.33007 11.481 5.80722C11.8453 5.59293 12.1581 5.66579 12.4153 6.0215Z" fill="#050325"/>
<path d="M11.481 5.80722C11.241 6.33007 11.3267 6.63007 11.7381 6.70722C11.931 6.7415 12.0938 6.70293 12.2224 6.58722C12.3681 6.45007 12.4367 6.2615 12.4153 6.0215C12.6895 6.23579 12.6424 6.50579 12.2695 6.82722C12.1667 6.91293 12.0381 6.96865 11.8795 6.99007C11.7854 7.00634 11.6886 6.98969 11.6053 6.94293C11.3053 6.7715 11.1553 6.52293 11.1467 6.19722C11.1451 6.15159 11.1526 6.10611 11.1688 6.06342C11.1849 6.02074 11.2095 5.98172 11.241 5.94865C11.3095 5.8715 11.391 5.82436 11.481 5.80722Z" fill="#FCE2E5"/>
<path d="M11.6138 10.4744C11.5867 10.4438 11.5713 10.4046 11.5705 10.3637C11.5697 10.3229 11.5836 10.2831 11.6095 10.2515C11.6365 10.2195 11.675 10.1995 11.7167 10.1958C11.9095 10.1744 12.0938 10.1872 12.261 10.2344C12.3338 10.2558 12.4024 10.4444 12.2953 10.4658H12.2695L12.0124 10.3929C11.9567 10.3758 11.9267 10.4015 11.9267 10.4615V10.5901C11.9267 10.6458 11.9053 10.6801 11.8581 10.7015C11.7767 10.7358 11.6953 10.7444 11.6138 10.7358C11.5949 10.7342 11.5759 10.7369 11.5581 10.7435C11.5403 10.7502 11.5242 10.7607 11.511 10.7744C11.4167 10.8644 11.3095 10.8558 11.2153 10.9329C11.1947 10.9495 11.1798 10.9719 11.1724 10.9972C11.1595 11.0444 11.1295 11.0701 11.0824 11.0701C11.0449 11.0724 11.0076 11.0634 10.9753 11.0444C10.9608 11.0358 10.9493 11.023 10.9424 11.0076C10.9354 10.9923 10.9335 10.9752 10.9367 10.9586C10.9495 10.8601 10.9967 10.8001 11.091 10.7872C11.1295 10.7829 11.1638 10.7615 11.1938 10.7358C11.3053 10.6201 11.4381 10.5558 11.5924 10.5386C11.601 10.5386 11.6053 10.5386 11.6095 10.5301C11.6152 10.5255 11.6196 10.5196 11.6224 10.5129C11.6242 10.5063 11.6243 10.4993 11.6228 10.4926C11.6213 10.4859 11.6182 10.4796 11.6138 10.4744Z" fill="#01AAAC"/>
<path d="M11.0695 10.7058C11.0267 10.7486 10.9753 10.7529 10.9195 10.7272C10.9001 10.7172 10.8841 10.7017 10.8735 10.6827C10.8628 10.6636 10.8579 10.6418 10.8595 10.6201C10.8595 10.6029 10.8638 10.5901 10.8724 10.5772C10.8936 10.525 10.9255 10.4778 10.9661 10.4386C11.0067 10.3995 11.0551 10.3693 11.1081 10.3501C11.1306 10.3435 11.1545 10.3432 11.1772 10.3493C11.1998 10.3553 11.2204 10.3675 11.2367 10.3844C11.2581 10.4015 11.271 10.4272 11.2795 10.4486V10.5258C11.2367 10.6586 11.1724 10.7186 11.0695 10.7058ZM10.3153 11.2415C10.4053 11.0572 10.5295 10.8986 10.6795 10.7786C10.7138 10.7529 10.7395 10.7615 10.7567 10.8001C10.7695 10.8429 10.7653 10.8772 10.7395 10.9115C10.6624 11.0272 10.5938 11.1386 10.5424 11.2544C10.5124 11.3101 10.4653 11.3401 10.4053 11.3358C10.3624 11.3358 10.311 11.3315 10.3067 11.2715C10.3067 11.2629 10.3067 11.2501 10.3153 11.2415ZM11.5195 10.9072C11.6867 10.9072 11.8538 10.8944 12.0338 10.8729C12.1195 10.8601 12.1881 10.8815 12.2481 10.9286C12.2867 10.9586 12.2824 10.9886 12.2353 11.0058C12.1238 11.0486 12.0124 11.0486 11.901 11.0015C11.8806 10.9926 11.8584 10.9884 11.8362 10.9892C11.814 10.9899 11.7922 10.9956 11.7724 11.0058L11.3524 11.2158C11.3053 11.2415 11.2838 11.2244 11.2967 11.1686C11.3093 11.0963 11.3403 11.0284 11.3867 10.9715C11.4032 10.9522 11.4235 10.9365 11.4464 10.9255C11.4693 10.9144 11.4942 10.9082 11.5195 10.9072ZM13.3795 11.4858C13.3795 11.3658 13.3667 11.2715 13.3324 11.2029C13.2038 11.1386 13.1695 11.0572 13.2381 10.9586C13.2487 10.942 13.265 10.9299 13.2839 10.9243C13.3028 10.9188 13.3231 10.9204 13.341 10.9286C13.3528 10.9348 13.3631 10.9436 13.371 10.9544C13.5724 11.2115 13.671 11.4858 13.671 11.7686L13.6581 11.8072C13.652 11.8191 13.6432 11.8294 13.6324 11.8372C13.6214 11.8453 13.6085 11.8504 13.595 11.8519C13.5814 11.8534 13.5677 11.8513 13.5553 11.8458C13.4953 11.8158 13.4695 11.7686 13.4867 11.7001C13.4953 11.6572 13.4867 11.6229 13.461 11.5886L13.3795 11.4858Z" fill="#01AAAC"/>
<path d="M13.3281 11.2029C13.3667 11.2715 13.3838 11.3658 13.3795 11.4858C13.2381 11.5415 13.1353 11.5415 13.0667 11.4858C13.0281 11.4558 13.0324 11.4258 13.0667 11.4001L13.3324 11.2029H13.3281Z" fill="#01848A"/>
</svg>
