<svg width="24" height="24" viewBox="0 0 24 24" fill="none" xmlns="http://www.w3.org/2000/svg">
<path fill-rule="evenodd" clip-rule="evenodd" d="M12.8402 5.30984C12.8638 5.19304 12.8628 5.0726 12.8373 4.95621C12.8118 4.83981 12.7622 4.73002 12.6919 4.63384C12.6215 4.53766 12.5319 4.4572 12.4287 4.39761C12.3255 4.33801 12.2111 4.30059 12.0926 4.28772C11.9741 4.27486 11.8543 4.28684 11.7407 4.3229C11.6271 4.35895 11.5223 4.4183 11.433 4.49714C11.3436 4.57598 11.2717 4.67258 11.2218 4.78078C11.1718 4.88898 11.145 5.00641 11.143 5.12555C9.85732 5.16412 8.66589 5.5927 7.69304 6.29555C7.67118 6.22919 7.63343 6.16918 7.58307 6.12074C7.53272 6.07231 7.47128 6.03692 7.40412 6.01766C7.33696 5.9984 7.26611 5.99585 7.19773 6.01024C7.12936 6.02462 7.06554 6.05551 7.01184 6.1002C6.95813 6.14489 6.91617 6.20204 6.8896 6.26666C6.86303 6.33128 6.85266 6.40141 6.8594 6.47096C6.86614 6.5405 6.88978 6.60734 6.92826 6.66566C6.96674 6.72398 7.01889 6.772 7.08018 6.80555C6.40569 7.43885 5.88334 8.21665 5.5523 9.08061C5.22126 9.94457 5.09014 10.8723 5.16875 11.7941C5.14112 11.9033 5.1353 12.0169 5.15161 12.1284L5.14304 12.4798C5.14586 13.981 5.69574 15.4297 6.68972 16.5546C7.68371 17.6795 9.05364 18.4036 10.543 18.5913C11.8694 18.9922 13.2914 18.9402 14.585 18.4436C15.8786 17.947 16.97 17.0339 17.6873 15.8484L17.7859 15.857C17.9119 15.8569 18.0352 15.8198 18.1403 15.7502C18.2454 15.6806 18.3278 15.5817 18.3771 15.4657C18.4264 15.3497 18.4406 15.2217 18.4177 15.0977C18.3949 14.9738 18.3362 14.8592 18.2488 14.7684C18.9368 13.5345 19.1761 12.1003 18.9259 10.7098C19.0361 10.682 19.1308 10.6115 19.1891 10.5138C19.2474 10.4162 19.2645 10.2994 19.2366 10.1891C19.2088 10.0789 19.1383 9.98419 19.0406 9.92592C18.9429 9.86765 18.8261 9.85056 18.7159 9.87841C18.4432 9.04296 17.9946 8.27571 17.4002 7.62841C17.451 7.5913 17.4929 7.54348 17.5232 7.48832C17.5534 7.43317 17.5711 7.37204 17.575 7.30927C17.579 7.2465 17.5691 7.18364 17.546 7.12513C17.5229 7.06663 17.4873 7.01392 17.4415 6.97075C17.3958 6.92757 17.3411 6.89499 17.2814 6.87532C17.2216 6.85565 17.1583 6.84936 17.0959 6.85691C17.0334 6.86446 16.9734 6.88566 16.9201 6.919C16.8668 6.95234 16.8214 6.99701 16.7873 7.04984C15.9936 6.3923 15.0476 5.94435 14.0359 5.74698C13.6588 5.5627 13.2559 5.4127 12.8402 5.30984ZM16.7273 7.1827C16.08 6.63726 15.325 6.23423 14.5116 5.99984C14.6145 6.05984 14.7173 6.12841 14.8202 6.19698C16.2241 6.92727 17.2924 8.1706 17.803 9.66841C18.5637 11.0377 18.7737 12.6454 18.3902 14.1641C18.8626 13.0746 18.9999 11.8691 18.7845 10.7013C18.7029 10.6872 18.6271 10.6498 18.5664 10.5936C18.5056 10.5374 18.4624 10.4648 18.442 10.3845C18.4216 10.3043 18.4249 10.2199 18.4514 10.1415C18.478 10.0631 18.5267 9.99403 18.5916 9.9427C18.3204 9.1047 17.8683 8.33657 17.2673 7.6927C17.1948 7.71468 17.1177 7.71702 17.0439 7.69949C16.9702 7.68195 16.9024 7.64516 16.8475 7.59288C16.7926 7.5406 16.7525 7.47469 16.7314 7.40187C16.7103 7.32906 16.7089 7.25195 16.7273 7.17841V7.1827ZM7.28589 6.85698H7.23446C6.63763 7.403 6.15754 8.06421 5.82314 8.80078C5.48875 9.53734 5.30696 10.334 5.28875 11.1427C5.54589 9.99841 6.11589 8.97412 6.91732 8.16412C7.89018 6.74984 9.45018 5.76412 11.2459 5.54984C11.203 5.46412 11.1645 5.36555 11.1516 5.2627C9.86589 5.30127 8.67875 5.73841 7.71446 6.45841C7.70686 6.5668 7.65837 6.66825 7.57881 6.74224C7.49924 6.81624 7.39455 6.85725 7.28589 6.85698ZM18.0988 14.6527C18.5796 13.2794 18.5476 11.7786 18.0088 10.427C18.1922 11.3467 18.1624 12.2961 17.9217 13.2025C17.6809 14.1089 17.2357 14.9481 16.6202 15.6556C16.3802 16.0541 16.093 16.427 15.7673 16.7613C15.8059 16.8384 15.8316 16.9198 15.8488 17.0098C16.4359 16.667 16.963 16.2384 17.4045 15.7284C17.2783 15.6295 17.1937 15.487 17.1671 15.329C17.1406 15.1709 17.174 15.0086 17.261 14.8739C17.3479 14.7392 17.482 14.6418 17.637 14.6009C17.792 14.56 17.9567 14.5785 18.0988 14.6527ZM17.5245 15.8013C17.0512 16.3497 16.4855 16.8109 15.853 17.1641C15.8478 17.3246 15.7975 17.4803 15.708 17.6136C15.6185 17.7469 15.4934 17.8524 15.3469 17.9181C15.2004 17.9837 15.0384 18.0069 14.8794 17.985C14.7203 17.9631 14.5706 17.897 14.4473 17.7941C13.5134 18.3406 12.4522 18.6318 11.3702 18.6384C12.5649 18.8363 13.7914 18.6728 14.8926 18.1688C15.9937 17.6648 16.9191 16.8434 17.5502 15.8098C17.5415 15.8072 17.533 15.8043 17.5245 15.8013ZM12.7502 5.55841L12.8016 5.4427C13.0416 5.5027 13.273 5.57555 13.5002 5.66555L13.2688 5.64412C13.0973 5.60984 12.9259 5.57984 12.7545 5.55841H12.7502ZM11.593 5.90127C11.7503 5.98493 11.9298 6.01751 12.1064 5.99447C12.2831 5.97143 12.4482 5.89391 12.5788 5.7727C12.803 5.76336 13.0276 5.76622 13.2516 5.78127C13.7788 5.89698 14.2802 6.08127 14.7473 6.32127L14.9188 6.44127C14.7865 6.41421 14.6491 6.42946 14.5261 6.48484C14.403 6.54022 14.3005 6.63294 14.233 6.74984C13.7353 6.59293 13.2198 6.49933 12.6988 6.47127C11.8263 6.27352 10.9214 6.26621 10.0459 6.44984C10.5339 6.19558 11.0544 6.00956 11.593 5.89698V5.90127ZM15.4288 7.07127C15.4288 6.98127 15.4116 6.89555 15.3773 6.81412C15.7245 7.13127 16.0373 7.4827 16.303 7.8727C16.0217 7.64106 15.7205 7.43455 15.403 7.25555C15.4202 7.19555 15.4288 7.13555 15.4288 7.07127ZM16.5688 8.2927C16.2012 7.94001 15.7908 7.63478 15.3473 7.38412C15.2916 7.4827 15.2188 7.55984 15.1202 7.61984C16.2589 8.50268 17.0521 9.75686 17.3616 11.1641C17.344 10.1554 17.0712 9.16754 16.5688 8.2927ZM13.4873 6.70698C13.7188 6.74984 13.9502 6.80984 14.173 6.87841C14.1607 6.9175 14.152 6.95768 14.1473 6.99841C13.933 6.88698 13.7145 6.7927 13.4873 6.70698ZM12.6773 6.6127C13.1959 6.72841 13.6888 6.9127 14.1473 7.15698C14.1598 7.24996 14.1925 7.33907 14.2431 7.41807C14.2937 7.49706 14.361 7.56403 14.4402 7.61426C14.5195 7.6645 14.6087 7.69678 14.7017 7.70885C14.7948 7.72092 14.8893 7.71248 14.9788 7.68412C16.093 8.52841 16.8988 9.74555 17.2159 11.147C17.1542 11.1363 17.0909 11.1393 17.0305 11.1558C16.9701 11.1722 16.914 11.2017 16.8662 11.2421C16.8184 11.2826 16.78 11.333 16.7538 11.3899C16.7276 11.4467 16.7142 11.5087 16.7145 11.5713C16.7147 11.6435 16.7331 11.7146 16.7682 11.7778C16.8032 11.841 16.8536 11.8943 16.9148 11.9328C16.9759 11.9713 17.0458 11.9937 17.1179 11.9979C17.1901 12.0021 17.2621 11.9881 17.3273 11.957C17.2322 12.7835 16.9672 13.5814 16.5489 14.3005C16.1307 15.0197 15.5682 15.6446 14.8969 16.136C14.2256 16.6274 13.4599 16.9747 12.648 17.1561C11.836 17.3374 10.9954 17.3489 10.1788 17.1898C9.66446 16.937 9.19304 16.6156 8.77304 16.2341C8.83163 16.2031 8.88224 16.159 8.92089 16.1051C8.95954 16.0513 8.98516 15.9892 8.99576 15.9238C9.00635 15.8583 9.00163 15.7913 8.98195 15.728C8.96227 15.6647 8.92818 15.6069 8.88235 15.559C8.83653 15.5111 8.78022 15.4745 8.71785 15.452C8.65548 15.4296 8.58876 15.4219 8.52292 15.4296C8.45708 15.4373 8.39393 15.4602 8.33842 15.4964C8.28292 15.5326 8.23658 15.5812 8.20304 15.6384C7.42304 14.7084 6.91732 13.5384 6.81875 12.2527C6.87429 12.0716 6.86826 11.8772 6.80161 11.6998C6.81875 10.7656 7.04161 9.88698 7.43589 9.1027C7.77018 8.64841 8.16446 8.23698 8.61018 7.88984C8.63526 7.94752 8.67274 7.99898 8.71995 8.04055C8.76715 8.08213 8.82293 8.1128 8.88333 8.13039C8.94372 8.14799 9.00725 8.15207 9.0694 8.14235C9.13154 8.13264 9.19079 8.10936 9.24293 8.07417C9.29507 8.03899 9.33883 7.99275 9.3711 7.93875C9.40336 7.88475 9.42334 7.82431 9.42963 7.76173C9.43591 7.69914 9.42833 7.63593 9.40744 7.5766C9.38655 7.51727 9.35286 7.46326 9.30875 7.41841C10.3295 6.82831 11.5 6.54833 12.6773 6.6127ZM9.18446 7.32841C9.98161 6.85698 10.8902 6.55698 11.863 6.48412C11.1029 6.41745 10.3369 6.49302 9.60447 6.70698C8.91875 7.13555 8.33589 7.70127 7.87304 8.36555C8.08732 8.13841 8.32304 7.9327 8.57161 7.73984V7.71412C8.57181 7.64187 8.59028 7.57084 8.6253 7.50764C8.66032 7.44443 8.71074 7.39111 8.7719 7.35262C8.83305 7.31413 8.90294 7.29173 8.97507 7.2875C9.0472 7.28327 9.11923 7.29734 9.18446 7.32841ZM8.14732 15.7927C7.34574 14.8625 6.8425 13.7127 6.70304 12.4927C6.59864 12.6406 6.45012 12.7516 6.27875 12.8098C6.28732 13.1656 6.32589 13.5127 6.39446 13.847C6.89962 15.1078 7.81647 16.1605 8.99589 16.8341C9.21018 16.9241 9.43304 17.0056 9.66018 17.0656C9.28515 16.843 8.93464 16.5816 8.61446 16.2856H8.57161C8.50984 16.2856 8.44879 16.2724 8.39264 16.2467C8.33648 16.2209 8.28654 16.1834 8.24625 16.1366C8.20595 16.0898 8.17625 16.0348 8.15918 15.9755C8.1421 15.9161 8.13806 15.8538 8.14732 15.7927ZM17.4773 11.837V11.8798C17.5761 12.9229 17.4095 13.9741 16.993 14.9356C17.4992 14.1776 17.8243 13.3134 17.9432 12.4097C18.0621 11.5061 17.9716 10.5872 17.6788 9.72412C17.4645 9.33841 17.2073 8.9827 16.9159 8.6527C17.3131 9.49221 17.5139 10.4112 17.503 11.3398C17.551 11.4151 17.5744 11.5034 17.5698 11.5925C17.5652 11.6816 17.5328 11.7671 17.4773 11.837ZM11.3359 5.6827C11.3659 5.72127 11.4002 5.75555 11.4388 5.78984C10.753 5.94841 10.1188 6.21841 9.54447 6.57841C8.81115 6.79849 8.12519 7.15309 7.52161 7.62412C8.51115 6.5301 9.86904 5.83895 11.3359 5.6827ZM6.98161 9.8227C6.81018 10.3456 6.69875 10.8941 6.67304 11.4641C6.60864 11.3836 6.53024 11.3154 6.44161 11.2627C6.55909 10.7615 6.74058 10.2775 6.98161 9.8227ZM7.31589 9.02984C6.84275 9.68158 6.50203 10.4198 6.31304 11.2027C6.21342 11.1633 6.1073 11.143 6.00018 11.1427H5.99161C6.07732 10.0756 6.44589 9.08555 7.02018 8.25412C7.61591 7.65225 8.33133 7.18212 9.12018 6.87412C8.36135 7.44477 7.74399 8.18237 7.31589 9.02984ZM6.14161 12.8441L6.09875 12.8527C6.11161 12.9384 6.13304 13.0241 6.15446 13.1056L6.14161 12.8484V12.8441ZM6.50161 8.85841C6.13459 9.57347 5.91317 10.3543 5.85018 11.1556C5.66955 11.1886 5.50429 11.2787 5.37875 11.4127C5.55018 10.4613 5.94018 9.59127 6.50161 8.85412V8.85841ZM5.95304 12.857C5.76506 12.8463 5.58583 12.774 5.44304 12.6513C5.56732 13.1784 5.76018 13.6798 6.01304 14.1427C6.08794 14.1448 6.16099 14.1664 6.22491 14.2055C6.28883 14.2446 6.34138 14.2998 6.37732 14.3656C6.33447 14.207 6.29161 14.0484 6.25732 13.8856C6.12875 13.5556 6.02589 13.2127 5.95304 12.857ZM5.28446 12.5784C5.40446 13.1356 5.60161 13.6713 5.86304 14.1641C5.80401 14.1841 5.75004 14.2166 5.70489 14.2596C5.65974 14.3025 5.6245 14.3548 5.60161 14.4127C5.40098 13.8215 5.29397 13.2026 5.28446 12.5784ZM6.00018 14.9998C5.93633 14.9995 5.87336 14.9848 5.81589 14.957C6.55732 16.5856 8.00589 17.8284 9.77161 18.2998C8.5076 17.7221 7.47283 16.7386 6.83161 15.5056C6.64304 15.3041 6.46732 15.0941 6.30447 14.8713C6.26477 14.9118 6.21744 14.944 6.16521 14.966C6.11297 14.9881 6.05688 14.9996 6.00018 14.9998ZM6.42875 14.5713C6.42908 14.6334 6.41592 14.6948 6.39018 14.7513L6.61732 15.0513C6.54778 14.894 6.48486 14.7338 6.42875 14.5713ZM16.0502 16.2256C15.9388 16.367 15.8188 16.5041 15.6902 16.637C15.6729 16.6117 15.6543 16.5874 15.6345 16.5641C15.7759 16.457 15.9173 16.3456 16.0502 16.2256ZM11.9788 17.6227C12.7416 17.6227 13.4745 17.4813 14.1473 17.2241C14.13 17.0401 14.1721 16.8554 14.2673 16.697C13.1668 17.2922 11.9113 17.5388 10.6673 17.4041C10.8259 17.4641 10.9888 17.5198 11.1559 17.567C11.4259 17.6056 11.7002 17.6227 11.9788 17.6227ZM16.5088 15.5698C16.2173 15.9041 15.8873 16.2041 15.5273 16.4698C15.355 16.3342 15.1372 16.2698 14.9188 16.2898C16.163 15.4039 17.0336 14.0873 17.3616 12.5956C17.3445 13.6798 17.0316 14.6956 16.5045 15.5698H16.5088ZM14.293 17.627C14.2373 17.5498 14.1988 17.4556 14.173 17.3613C13.5302 17.6056 12.8359 17.747 12.1116 17.7598C12.842 17.8486 13.5824 17.8051 14.2973 17.6313L14.293 17.627ZM14.1302 17.8113C13.0381 18.3843 11.7966 18.6086 10.573 18.4541C9.15875 18.0213 7.95875 17.0827 7.19161 15.857C7.70597 16.3188 8.29413 16.6911 8.93161 16.9584C9.59589 17.3356 10.3373 17.597 11.1259 17.7041C12.1034 17.9857 13.1351 18.0225 14.1302 17.8113ZM10.1316 17.3227L10.0373 17.3056L10.2088 17.3613L10.1316 17.3227ZM6.59589 14.5927C6.95393 15.2403 7.42576 15.8181 7.98875 16.2984C7.60732 16.0456 7.26018 15.7541 6.94732 15.4241C6.81018 15.1584 6.69018 14.8798 6.59589 14.5927ZM15.7159 6.94698C16.0887 7.32412 16.4145 7.74841 16.6802 8.20698C16.9373 8.45127 17.1688 8.72127 17.3745 9.00412C16.9809 8.20399 16.4143 7.50133 15.7159 6.94698Z" fill="#353535"/>
</svg>
