<svg width="24" height="24" viewBox="0 0 24 24" fill="none" xmlns="http://www.w3.org/2000/svg">
<path d="M7.75006 14.7932C7.74672 14.8391 7.72934 14.883 7.70029 14.9188C7.67123 14.9545 7.63188 14.9804 7.58757 14.9931C7.54352 15.0061 7.49655 15.0052 7.45298 14.9908C7.40941 14.9762 7.37132 14.9487 7.34385 14.9119L4.10041 11.8748C4.06219 11.8471 4.0326 11.8092 4.01503 11.7653C3.99747 11.7215 3.99266 11.6737 4.00116 11.6273C4.00966 11.5808 4.03111 11.5378 4.06305 11.5031C4.095 11.4684 4.1361 11.4433 4.18164 11.431L8.72496 9.60611C8.9312 9.52489 9.06243 9.63119 9.00619 9.85619L7.75006 14.7932Z" fill="#404A72"/>
<path d="M5.06343 17.6803C4.89469 17.8302 4.7197 17.7678 4.68221 17.5428L3.7948 12.6058C3.75729 12.3808 3.85728 12.3245 4.02603 12.4808L7.10698 15.3681C7.14705 15.4035 7.1789 15.4474 7.20032 15.4964C7.22175 15.5455 7.23222 15.5986 7.23104 15.6521C7.22985 15.7056 7.21701 15.7583 7.19343 15.8064C7.16986 15.8544 7.13608 15.8968 7.09448 15.9305L5.06967 17.6803H5.06343ZM8.78184 8.6249C8.81642 8.65892 8.84164 8.70131 8.85501 8.74794C8.86836 8.79459 8.86944 8.84389 8.85813 8.89106C8.8468 8.93825 8.82347 8.98169 8.79038 9.01718C8.75731 9.05267 8.7156 9.07901 8.66934 9.09359L4.15726 10.906C3.94477 10.9935 3.83229 10.8872 3.91353 10.6747L5.76961 5.66268C5.77661 5.61647 5.79782 5.5736 5.8303 5.54001C5.86277 5.50641 5.9049 5.48375 5.95085 5.47519C5.99625 5.46807 6.04277 5.47504 6.08411 5.49515C6.12545 5.51526 6.15965 5.54756 6.18207 5.58769L8.78184 8.6249ZM4.05102 16.8429C4.09476 17.0679 4.02603 17.0928 3.90728 16.9054L2.15119 14.1807C2.089 14.076 2.05775 13.956 2.06107 13.8342C2.06438 13.7126 2.10214 13.5943 2.16994 13.4933L2.95111 12.4434C3.08861 12.2558 3.2386 12.2933 3.27609 12.5183L4.05102 16.8429ZM3.50107 10.3685C3.41982 10.581 3.30108 10.581 3.2261 10.3685L2.6324 8.55616C2.60004 8.43818 2.59916 8.31378 2.62987 8.19536C2.66057 8.07692 2.72177 7.96862 2.80738 7.88122L4.93219 5.93766C5.10718 5.78767 5.18216 5.83141 5.10092 6.05014L3.50107 10.3622V10.3685ZM2.93862 11.0622C2.97133 11.1845 2.97765 11.3124 2.95718 11.4374C2.93671 11.5623 2.88991 11.6816 2.81988 11.7872L2.21369 12.6245C2.0762 12.812 1.98246 12.7745 2.00746 12.5432L2.29493 9.67483C2.31993 9.44983 2.39493 9.43729 2.46991 9.65602L2.93862 11.0684V11.0622ZM5.34464 4.60653C5.4259 4.69402 5.34464 4.894 5.17592 5.05024L4.21351 5.92516C4.04476 6.06889 4.01353 6.05014 4.15101 5.86266L4.95093 4.78151C5.09467 4.59403 5.26965 4.52529 5.34464 4.60653ZM11.4003 19.8614C11.3825 19.9055 11.3525 19.9438 11.3138 19.9713C11.275 19.999 11.2291 20.0151 11.1816 20.0175C11.1349 20.0187 11.0888 20.0063 11.0489 19.982C11.0091 19.9575 10.977 19.9222 10.9566 19.8802L8.45686 16.2116C8.42347 16.1799 8.40066 16.1386 8.39152 16.0934C8.38238 16.0482 8.38736 16.0012 8.40577 15.9589C8.42418 15.9166 8.45514 15.8811 8.49447 15.857C8.53378 15.8329 8.57955 15.8214 8.62559 15.8242L13.6688 15.2992C13.8938 15.2743 13.9813 15.4181 13.8689 15.6117L11.4003 19.8614ZM10.3504 19.8676C10.4754 20.0552 10.4129 20.1488 10.1879 20.0801L5.47588 18.4552C5.25715 18.3928 5.2259 18.2053 5.39465 18.0552L7.4132 16.3054C7.45155 16.2694 7.49732 16.242 7.54731 16.2253C7.59731 16.2087 7.65033 16.2032 7.70268 16.2092C7.75503 16.2151 7.80546 16.2323 7.85044 16.2598C7.89543 16.2872 7.93389 16.3241 7.96316 16.368L10.3504 19.8676Z" fill="#556195"/>
<path d="M13.7687 14.4494C13.9187 14.6181 13.8562 14.7806 13.6249 14.8056L8.50669 15.3367C8.47135 15.344 8.43492 15.344 8.39958 15.3369C8.36421 15.3297 8.33068 15.3154 8.30093 15.295C8.27118 15.2746 8.24585 15.2485 8.22646 15.218C8.20705 15.1877 8.19397 15.1536 8.18798 15.118C8.17927 15.0699 8.18359 15.0203 8.20047 14.9744L9.48159 9.96851C9.53787 9.74351 9.70659 9.70603 9.85664 9.88101L13.7687 14.4431V14.4494Z" fill="#6ECCE0"/>
<path d="M17.4437 18.7365C17.4822 18.7648 17.5106 18.8046 17.525 18.8501C17.5393 18.8958 17.5389 18.9446 17.5236 18.9898C17.5083 19.0352 17.4789 19.0744 17.4399 19.1018C17.4008 19.1292 17.354 19.1437 17.3062 19.1426L12.1067 20.2426C11.8817 20.2863 11.7942 20.1676 11.9067 19.9677L14.3628 15.743C14.3838 15.7 14.4156 15.6629 14.4549 15.6357C14.4943 15.6083 14.54 15.5915 14.5876 15.5868C14.6356 15.582 14.6839 15.5899 14.7278 15.6097C14.7715 15.6294 14.8094 15.6603 14.8377 15.6992L17.4437 18.7365ZM9.07571 21.5612C8.96701 21.6127 8.84594 21.6325 8.72651 21.6181C8.60707 21.6036 8.49415 21.5558 8.40078 21.48L5.98226 19.3302C5.81351 19.1864 5.85102 19.1177 6.06349 19.1864L10.1881 20.5988C10.4068 20.6737 10.4194 20.8175 10.2193 20.9301L9.07571 21.5549V21.5612ZM14.6877 21.7613C14.59 21.8333 14.4748 21.8782 14.354 21.8915C14.2333 21.9046 14.1112 21.8855 14.0003 21.8362L12.3191 20.9738C12.1129 20.8675 12.1317 20.7426 12.3566 20.6988L16.8375 19.749C17.0625 19.6989 17.1 19.7802 16.925 19.9239L14.6877 21.7613ZM9.99431 21.8737C9.76319 21.8612 9.74438 21.7613 9.94444 21.655L10.8443 21.1612C10.9593 21.1065 11.0849 21.0777 11.2123 21.0766C11.3396 21.0756 11.4658 21.1023 11.5817 21.155L12.9004 21.83C13.1065 21.93 13.0879 22.0112 12.8566 21.9987L9.99431 21.8737ZM18.2811 19.7176C18.3561 19.8051 18.2562 19.9677 18.0561 20.0738L16.8687 20.7114C16.6625 20.8175 16.6437 20.7863 16.8187 20.6488L17.8187 19.8176C17.9998 19.6739 18.2062 19.6301 18.2811 19.7176Z" fill="#556195"/>
<path d="M15.2808 14.3931C15.0682 14.4806 14.937 14.3681 14.9995 14.1431L16.2556 9.20611C16.2599 9.16032 16.2775 9.11686 16.3065 9.08133C16.3354 9.0457 16.3743 9.01951 16.4182 9.00606C16.4631 8.99169 16.5114 8.9918 16.5563 9.00638C16.6011 9.02096 16.6403 9.04926 16.6682 9.08726L19.9054 12.1308C19.9358 12.1502 19.9615 12.1762 19.9807 12.2068C19.9998 12.2374 20.012 12.272 20.0162 12.3078C20.0203 12.3437 20.0165 12.3802 20.005 12.4143C19.9933 12.4486 19.9742 12.4798 19.9491 12.5057C19.9144 12.5384 19.8709 12.5601 19.8241 12.5683L15.2808 14.3931Z" fill="#404A72"/>
<path d="M20.2049 11.3996C20.2487 11.6246 20.1424 11.6809 19.9799 11.5247L16.8991 8.6312C16.8597 8.59614 16.8282 8.55305 16.8069 8.50483C16.7856 8.45662 16.775 8.40439 16.7755 8.35167C16.7761 8.29896 16.7879 8.24699 16.8104 8.19926C16.8327 8.15154 16.8651 8.10916 16.9052 8.075L18.93 6.32516C19.105 6.17518 19.28 6.23142 19.3175 6.4564L20.2049 11.3935V11.3996ZM18.2301 18.3428C18.2219 18.3879 18.2002 18.4293 18.1678 18.4617C18.1355 18.4942 18.0939 18.5159 18.0488 18.5241C18.0041 18.5317 17.9581 18.5257 17.9169 18.5067C17.8755 18.4878 17.8409 18.4567 17.8177 18.4178L15.2179 15.3744C15.1817 15.3404 15.1552 15.2977 15.1409 15.2503C15.1266 15.2028 15.125 15.1524 15.1365 15.1042C15.1479 15.0561 15.1718 15.0117 15.2059 14.9757C15.2399 14.9397 15.2829 14.9134 15.3303 14.8993L19.8487 13.0871C20.0549 12.9996 20.1612 13.1057 20.0862 13.3244L18.2301 18.3428ZM21.8485 9.81865C21.91 9.92349 21.9408 10.0435 21.9376 10.165C21.9342 10.2864 21.8969 10.4047 21.8298 10.506L21.0424 11.5559C20.9111 11.7435 20.7611 11.7059 20.7236 11.481L19.9487 7.16259C19.905 6.9376 19.9737 6.91261 20.0925 7.10009L21.8485 9.81865ZM21.3735 15.4431C21.4059 15.561 21.4068 15.6854 21.3762 15.8038C21.3454 15.9222 21.2841 16.0306 21.1985 16.1181L19.0613 18.0616C18.8926 18.2116 18.8239 18.1679 18.8988 17.9554L20.4986 13.6369C20.5737 13.4182 20.6987 13.4182 20.7736 13.6369L21.3735 15.4493V15.4431ZM21.6986 14.3306C21.6798 14.5556 21.5985 14.5681 21.5299 14.3494L21.061 12.937C21.0284 12.8147 21.0221 12.6868 21.0425 12.5618C21.0631 12.4368 21.1097 12.3176 21.1799 12.2121L21.7923 11.381C21.9236 11.1997 22.0173 11.2372 21.9922 11.4622L21.6986 14.3306ZM19.0363 19.2178C18.9051 19.4051 18.7301 19.4802 18.655 19.3927C18.5738 19.3052 18.655 19.1052 18.8239 18.949L19.78 18.0741C19.9487 17.924 19.9799 17.9491 19.8424 18.1304L19.0363 19.2178Z" fill="#556195"/>
<path d="M15.55 7.79348C15.5816 7.82604 15.6026 7.86738 15.6103 7.91209C15.6179 7.95679 15.612 8.00276 15.593 8.04399C15.574 8.08521 15.5431 8.11974 15.5043 8.14307C15.4654 8.1664 15.4203 8.17743 15.375 8.1747L10.3381 8.69965C10.1068 8.72466 10.0193 8.58091 10.1318 8.38719L12.6003 4.13758C12.6178 4.09411 12.6474 4.05659 12.6858 4.02955C12.724 4.0025 12.7693 3.98706 12.8162 3.98508C12.863 3.98311 12.9093 3.99467 12.9497 4.01838C12.9903 4.04211 13.0229 4.07699 13.0441 4.11882L15.55 7.79348Z" fill="#404A72"/>
<path d="M16.5931 7.69983C16.5539 7.73535 16.5073 7.76188 16.4569 7.77754C16.4063 7.79319 16.3529 7.7976 16.3006 7.79044C16.2482 7.7833 16.1979 7.76478 16.1534 7.73617C16.109 7.70756 16.0713 7.66956 16.043 7.62484L13.6433 4.13142C13.5183 3.94392 13.587 3.85019 13.8057 3.92519L18.5179 5.53753C18.7366 5.61252 18.7678 5.79376 18.5991 5.94374L16.5931 7.69358V7.69983ZM14.5119 14.0367C14.4556 14.2555 14.2932 14.2929 14.137 14.1242L10.2311 9.55597C10.0811 9.38099 10.1436 9.2184 10.3812 9.19346L15.4932 8.66224C15.5284 8.65503 15.5649 8.65501 15.6002 8.66219C15.6356 8.66934 15.6692 8.68356 15.6989 8.70398C15.7287 8.72439 15.754 8.75058 15.7734 8.78099C15.7928 8.81139 15.8058 8.84539 15.8118 8.88097C15.8243 8.93096 15.818 8.98096 15.7994 9.02471L14.5119 14.0367ZM9.63747 8.25603C9.62187 8.28978 9.6 8.32013 9.57273 8.34535C9.54546 8.37054 9.51338 8.39011 9.47853 8.40289C9.44368 8.41568 9.40664 8.42142 9.3696 8.41982C9.33242 8.41821 9.29611 8.40928 9.26242 8.39351C9.21955 8.37184 9.1831 8.33957 9.15627 8.29978L6.55645 5.26256C6.52052 5.23352 6.49439 5.19414 6.48161 5.14974C6.46884 5.10535 6.47003 5.05809 6.48505 5.0144C6.50007 4.97071 6.52817 4.93271 6.56555 4.90555C6.60292 4.8784 6.64774 4.86339 6.69394 4.86259L11.8935 3.7627C12.1185 3.7127 12.2059 3.83769 12.0934 4.03142L9.63747 8.25603ZM13.7995 3.40023C13.587 3.32524 13.5746 3.17525 13.7745 3.06276L14.9245 2.44407C15.0338 2.39126 15.1562 2.37085 15.2769 2.38524C15.3975 2.39963 15.5117 2.44824 15.6056 2.52532L18.0179 4.66887C18.1866 4.81886 18.1491 4.8876 17.9367 4.81884L13.7995 3.40023ZM7.16889 4.25015C6.95016 4.30015 6.90641 4.22515 7.08765 4.07516L9.31244 2.23783C9.41014 2.16572 9.52534 2.12078 9.64608 2.10762C9.76681 2.09443 9.88887 2.11349 9.99984 2.16285L11.6873 3.03151C11.8935 3.1315 11.8746 3.2565 11.6559 3.30025L7.16889 4.25015ZM13.1558 2.83778C13.0408 2.89245 12.9152 2.92132 12.7878 2.9224C12.6605 2.92348 12.5343 2.89673 12.4184 2.84403L11.0935 2.16909C10.9061 2.0691 10.9185 1.99411 11.1498 2.00036L14.0121 2.1316C14.2369 2.15034 14.262 2.24409 14.0558 2.35033L13.1558 2.83778ZM6.17523 4.18141C6.00025 4.3314 5.80027 4.36889 5.71903 4.28765C5.64404 4.20016 5.74403 4.03767 5.944 3.92519L7.1314 3.28773C7.33762 3.18151 7.35637 3.21275 7.18139 3.35649L6.18149 4.18141H6.17523ZM4.65662 18.6926C4.74411 18.6175 4.93785 18.6926 5.09408 18.8613L5.969 19.83C6.11275 19.9987 6.09399 20.0299 5.90651 19.8924L4.8316 19.08C4.64412 18.9488 4.56289 18.7676 4.65662 18.6926ZM19.6677 5.68126C19.7552 5.60627 19.9178 5.70627 20.0239 5.9125L20.6615 7.09989C20.7676 7.30612 20.7364 7.32487 20.5926 7.14989L19.774 6.14373C19.6302 5.96249 19.5865 5.75626 19.6677 5.68126ZM19.1741 4.91885C19.3615 5.05632 19.4366 5.23131 19.3491 5.3063C19.2616 5.3813 19.0615 5.3063 18.9053 5.13758L18.0304 4.16891C17.8866 4.00018 17.9055 3.97517 18.0928 4.10641L19.1741 4.91885ZM4.22541 17.8552C4.3754 18.0364 4.4129 18.2426 4.33166 18.3176C4.24417 18.3927 4.08168 18.2926 3.97544 18.0926L3.338 16.8927C3.23176 16.6927 3.263 16.674 3.40674 16.849L4.22541 17.8552Z" fill="#556195"/>
</svg>
