<svg width="24" height="24" viewBox="0 0 24 24" fill="none" xmlns="http://www.w3.org/2000/svg">
<path d="M7.59459 6.43728C7.53824 6.53616 7.46277 6.62283 7.37256 6.69223C7.28236 6.76163 7.17924 6.81238 7.06922 6.8415C6.9592 6.87063 6.84448 6.87755 6.73176 6.86187C6.61903 6.84618 6.51056 6.80821 6.41267 6.75016C6.31477 6.6921 6.22942 6.61514 6.16159 6.52375C6.09376 6.43236 6.04481 6.32838 6.0176 6.21787C5.99038 6.10736 5.98545 5.99253 6.00308 5.8801C6.02072 5.76766 6.06056 5.65986 6.1203 5.56299C6.23828 5.37168 6.42667 5.23437 6.64491 5.18063C6.86315 5.12688 7.09376 5.16101 7.28708 5.27565C7.4804 5.39029 7.62096 5.57628 7.67848 5.79355C7.73599 6.01083 7.70587 6.242 7.59459 6.43728ZM5.05316 6.54442C5.00982 6.61702 4.95261 6.68038 4.88479 6.73087C4.81697 6.78136 4.73987 6.818 4.65789 6.83869C4.57591 6.85939 4.49065 6.86373 4.40699 6.85148C4.32333 6.83922 4.24291 6.81061 4.1703 6.76728C4.0977 6.72394 4.03435 6.66673 3.98385 6.59891C3.93336 6.53109 3.89672 6.45398 3.87603 6.372C3.83424 6.20643 3.85993 6.03105 3.94745 5.88442C4.03497 5.73779 4.17715 5.63194 4.34272 5.59014C4.50829 5.54835 4.68368 5.57404 4.8303 5.66156C4.97693 5.74908 5.08278 5.89127 5.12458 6.05683C5.16637 6.2224 5.14068 6.39779 5.05316 6.54442ZM12.806 18.8101C13.7061 18.7062 14.5768 18.4249 15.3675 17.9825C16.1583 17.54 16.8535 16.9453 17.413 16.2326C17.9726 15.5198 18.3853 14.7033 18.6273 13.8301C18.8694 12.9569 18.936 12.0444 18.8233 11.1454C18.7106 10.2463 18.4208 9.37846 17.9707 8.59205C17.5206 7.80563 16.9191 7.11622 16.201 6.56366C15.4829 6.0111 14.6623 5.60635 13.7868 5.3728C12.9113 5.13925 11.9982 5.08154 11.1003 5.20299C10.1917 5.27585 9.42888 5.62299 9.42888 5.62299C8.80316 5.92299 8.4003 6.43299 8.4003 7.11442C8.4003 7.99728 9.0903 8.54156 9.97316 8.54156C10.1232 8.54156 10.6332 8.3787 10.7532 8.34013C11.218 8.17836 11.7106 8.11132 12.2017 8.14299C14.606 8.14299 15.8574 10.1144 15.8574 12.2316C15.8574 14.3487 14.3403 15.8573 11.7217 15.8573C9.42459 15.8573 8.22888 13.573 8.14316 11.4858C8.11316 10.6287 7.61173 9.96013 6.74602 9.96013C6.39404 9.96007 6.05182 10.0759 5.7722 10.2896C5.49258 10.5034 5.29111 10.8033 5.19888 11.143C5.06875 12.1756 5.17541 13.2244 5.51078 14.2097C5.84614 15.195 6.4014 16.0911 7.13448 16.8299C7.86755 17.5688 8.75921 18.1311 9.74186 18.4741C10.7245 18.8172 11.7724 18.9321 12.806 18.8101Z" fill="#5F45BA"/>
<path d="M6.70745 8.90585C6.63541 9.02685 6.54024 9.13248 6.42738 9.21671C6.31452 9.30093 6.18617 9.3621 6.04967 9.39672C5.77399 9.46665 5.48182 9.42419 5.23745 9.2787C4.99307 9.13321 4.8165 8.8966 4.74657 8.62093C4.67665 8.34525 4.7191 8.05308 4.86459 7.8087C5.01008 7.56433 5.24669 7.38775 5.52237 7.31783C5.79805 7.2479 6.09021 7.29036 6.33459 7.43585C6.57897 7.58134 6.75554 7.81795 6.82546 8.09363C6.89539 8.36931 6.85294 8.66147 6.70745 8.90585Z" fill="#5F45BA"/>
</svg>
