<svg width="24" height="24" viewBox="0 0 24 24" fill="none" xmlns="http://www.w3.org/2000/svg">
    <path
        d="M18.4006 10.4002C18.4006 13.9349 15.5352 16.8004 12.0004 16.8004C8.46566 16.8004 5.60019 13.9349 5.60019 10.4002C5.60019 6.86549 8.46566 4 12.0004 4C15.5352 4 18.4006 6.86549 18.4006 10.4002Z"
        fill="white" />
    <path
        d="M9.12109 20C11.0657 20 12.6421 18.4236 12.6421 16.479C12.6421 14.5344 11.0657 12.958 9.12109 12.958C7.1765 12.958 5.6001 14.5344 5.6001 16.479C5.6001 18.4236 7.1765 20 9.12109 20Z"
        fill="#152E51" />
    <path d="M8.7334 4.89531V13.7993H9.5183V4.49902C9.2466 4.61341 8.98446 4.74602 8.7334 4.89531Z"
        fill="#152E51" />
</svg>
    