<svg width="24" height="24" viewBox="0 0 24 24" fill="none" xmlns="http://www.w3.org/2000/svg">
<path d="M17.1891 8.99423L18.1113 13.022L19.539 10.1053L18.6669 6.52201L17.1891 8.99423ZM4.49463 13.7942L5.33351 18.0165L6.73908 14.7775L5.88907 10.9664L4.49463 13.7997V13.7942ZM8.66685 19.1442L9.64466 19.0609L10.3335 16.0499V7.63312L8.66685 11.3276V19.1442ZM13.6668 16.922L14.6446 16.1998L15.3335 13.1998V4.85535L13.6668 8.46645V16.922Z" fill="#4D4D4D"/>
<path d="M8.66667 19.1445C9.94444 19.4612 11.2667 18.7668 11.6111 17.5889L15.3333 4.8556C14.0555 4.53893 12.7333 5.23337 12.3889 6.41115L8.66667 19.1445ZM7.98334 16.4889C7.91101 16.7645 7.78503 17.0231 7.61264 17.25C7.44024 17.4767 7.2248 17.6674 6.97866 17.8107C6.73252 17.9542 6.46049 18.0477 6.17817 18.0859C5.89584 18.1242 5.60876 18.1063 5.33334 18.0333L7.68334 9.17781C7.75567 8.90225 7.88165 8.64366 8.05404 8.41685C8.22644 8.19002 8.44187 7.99943 8.68802 7.85598C8.93416 7.71252 9.20618 7.61902 9.48854 7.58083C9.77087 7.54263 10.0579 7.56048 10.3333 7.63337L7.98334 16.4889ZM16.3166 15.3778C16.2443 15.6534 16.1183 15.9119 15.9459 16.1388C15.7736 16.3656 15.5582 16.5562 15.312 16.6997C15.0659 16.843 14.7939 16.9366 14.5116 16.9748C14.2292 17.013 13.9421 16.9951 13.6666 16.9223L16.0167 8.06671C16.089 7.79114 16.215 7.53256 16.3874 7.30573C16.5598 7.07892 16.7751 6.88832 17.0213 6.74487C17.2675 6.60141 17.5396 6.50791 17.8219 6.46971C18.1041 6.43152 18.3912 6.44937 18.6667 6.52226L16.3166 15.3778ZM20.8722 11.5444C20.5555 12.6722 19.3167 13.3389 18.1111 13.0389L19.2333 9.12226C19.5556 7.99448 20.7944 7.32782 22 7.62782L20.8778 11.5444H20.8722ZM2 16.3722C3.20556 16.6722 4.44445 16.0056 4.76667 14.8779L5.88889 10.9611C4.68333 10.6611 3.44445 11.3278 3.12223 12.4556L2 16.3722Z" fill="url(#paint0_linear_364_2512)"/>
<defs>
<linearGradient id="paint0_linear_364_2512" x1="1.98889" y1="7.7667" x2="22" y2="7.7667" gradientUnits="userSpaceOnUse">
<stop stop-color="#F8A8FD"/>
<stop offset="1" stop-color="#00E2B0"/>
</linearGradient>
</defs>
</svg>
