<svg width="24" height="24" viewBox="0 0 24 24" fill="none" xmlns="http://www.w3.org/2000/svg">
<path d="M13.8643 17.1431C10.8557 17.0788 8.57574 16.1445 7.80859 15.6859C9.75043 16.193 11.7774 16.2851 13.7572 15.9559C14.2715 15.8488 15.6172 15.6859 17.28 14.5416C17.8686 14.1496 18.3389 13.6044 18.6403 12.9646C18.9416 12.3249 19.0626 11.615 18.99 10.9116C19.5257 12.8402 19.2129 14.1988 18.99 14.6402C18.5357 15.4973 16.8772 17.2031 13.8643 17.1431Z" fill="#265AA3"/>
<path d="M13.4876 7.72286C11.8333 7.65001 9.97327 7.97572 9.2447 8.14286C9.69898 8.14286 11.0018 8.22001 12.9604 8.89715C14.919 9.57001 15.5576 10.8557 15.609 11.6357C15.6364 12.2248 15.4714 12.8068 15.139 13.2939C14.8066 13.7809 14.3247 14.1466 13.7661 14.3357C12.1847 14.8757 8.7347 15.1714 7.20898 15.2529C7.80898 15.5014 9.93041 15.8743 12.1204 15.8743C13.9043 15.8799 15.648 15.345 17.1218 14.34C17.6638 13.9833 18.105 13.4932 18.4029 12.9168C18.7009 12.3404 18.8456 11.697 18.8233 11.0486C18.7547 8.80286 15.5618 7.81715 13.4876 7.72286Z" fill="#265AA3"/>
<path d="M15.3731 11.7217C15.4047 12.2359 15.2528 12.7446 14.9446 13.1574C14.9446 12.7631 14.0103 11.3659 10.5303 11.4774C6.80172 11.5931 6.40315 11.9102 5.98743 12.1717C5.35315 12.5659 5.19457 13.5259 5.29743 13.9802C4.21315 12.2531 4.68029 10.9545 5.726 9.84451C6.55743 8.96165 7.69743 8.5588 8.16886 8.4688C13.9974 8.31451 15.3431 10.7959 15.3731 11.7217Z" fill="#265AA3"/>
<path d="M10.2087 11.7086C6.2358 11.6786 5.41723 12.81 5.50294 13.38C6.13294 12.8443 7.24294 12.7372 9.33866 12.7372C10.8387 12.7372 12.0987 12.9129 12.7972 13.1957C13.4529 13.4615 13.3244 14.04 13.1401 14.31C14.2329 14.0443 14.6615 13.5814 14.7429 13.38C14.8887 12.8357 14.1858 11.7429 10.2087 11.7086Z" fill="#265AA3"/>
<path d="M3.8576 12.3256C3.90046 11.1513 4.95903 10.127 5.48189 9.7627C4.6676 10.7184 4.4276 11.1684 4.37189 12.3256C4.32903 13.247 5.1476 14.297 5.56332 14.7041C4.97189 14.3998 3.81475 13.4956 3.8576 12.3256ZM4.50903 14.237C4.62046 14.3998 4.9376 14.7727 5.33189 14.9398C5.09782 14.6622 4.81985 14.4248 4.50903 14.237Z" fill="#265AA3"/>
</svg>
