<svg width="24" height="24" viewBox="0 0 24 24" fill="none" xmlns="http://www.w3.org/2000/svg">
<path d="M11.7856 18.4286C15.2176 18.4286 17.9999 15.7423 17.9999 12.4286C17.9999 9.11493 15.2176 6.42864 11.7856 6.42864C8.35352 6.42864 5.57129 9.11493 5.57129 12.4286C5.57129 15.7423 8.35352 18.4286 11.7856 18.4286Z" fill="#C000A3"/>
<path d="M16.7141 10.2858C18.371 10.2858 19.7141 9.03858 19.7141 7.50007C19.7141 5.96156 18.371 4.71436 16.7141 4.71436C15.0573 4.71436 13.7141 5.96156 13.7141 7.50007C13.7141 9.03858 15.0573 10.2858 16.7141 10.2858Z" fill="#630655"/>
<path fill-rule="evenodd" clip-rule="evenodd" d="M9.857 10.2858H6.95686C6.79186 10.2858 6.65815 10.4135 6.65815 10.5708C6.65815 10.7281 6.79186 10.8558 6.95686 10.8558C7.15615 10.8558 7.28557 10.9531 7.28557 11.1429V13.6025C7.28557 13.6874 7.26929 13.8181 7.15657 13.8588L7.13257 13.8674C6.944 13.9346 6.857 13.9659 6.857 14.1429C6.857 14.5316 7.74543 14.5715 8.14272 14.5715C8.59272 14.5715 9.42843 14.4528 9.42843 14.1429C9.42843 13.9586 9.34615 13.9286 9.12415 13.8588C9.02129 13.8266 8.99986 13.6874 8.99986 13.6025V12.8572H9.857C10.198 12.8572 10.525 12.7218 10.7661 12.4806C11.0073 12.2395 11.1427 11.9125 11.1427 11.5715C11.1427 11.2305 11.0073 10.9035 10.7661 10.6624C10.525 10.4212 10.198 10.2858 9.857 10.2858ZM8.99986 11.0988C8.99986 11.0045 9.08 10.9286 9.17943 10.9286C9.55357 10.9286 9.857 11.2166 9.857 11.5715C9.857 11.9264 9.55357 12.2144 9.17943 12.2144C9.15647 12.215 9.1336 12.2111 9.11215 12.2029C9.09069 12.1947 9.07107 12.1823 9.05439 12.1665C9.03771 12.1507 9.02431 12.1318 9.01496 12.1108C9.0056 12.0898 9.00047 12.0672 8.99986 12.0442V11.0988ZM16.7056 12.2212C16.82 13.3989 15.7653 14.4468 14.3497 14.5612C12.9341 14.6761 11.6943 13.8142 11.5799 12.6361C11.4654 11.4584 12.5201 10.4105 13.9357 10.2961C15.3513 10.1812 16.5911 11.0431 16.7056 12.2212ZM14.852 12.1861C15.113 12.8259 15.0003 13.4551 14.6004 13.5909C14.2006 13.7272 13.6649 13.3184 13.4039 12.6781C13.1433 12.0378 13.256 11.4086 13.6559 11.2724C14.0557 11.1369 14.5914 11.5462 14.852 12.1861Z" fill="#F0F1F6"/>
<path d="M14.7427 6.65964C14.7427 6.53193 14.8739 6.42864 14.9999 6.42864H15.857C15.983 6.42864 16.1339 6.53193 16.1339 6.65964C16.1339 6.78693 16.0319 6.85807 15.9059 6.85807H15.857V7.87378C15.857 8.0195 15.89 8.14721 16.034 8.14721H16.1189C16.1994 8.12578 16.4171 8.06964 16.4197 7.89178C16.424 7.64407 16.7141 7.69036 16.7141 7.87378C16.7141 8.14721 16.598 8.62593 16.3571 8.56636C16.2714 8.54493 16.2509 8.4905 16.0541 8.43821H14.9956C14.976 8.4381 14.9566 8.43413 14.9386 8.42653C14.9205 8.41893 14.9041 8.40785 14.8904 8.39392C14.8766 8.38 14.8657 8.36349 14.8583 8.34535C14.8509 8.32721 14.8472 8.3078 14.8473 8.28821C14.8473 8.20507 14.918 8.14678 14.9999 8.14678V6.85807H14.9707C14.8447 6.85807 14.7427 6.78693 14.7427 6.65964ZM18.7421 7.84121C18.6179 7.77821 18.503 7.86693 18.461 7.91964C18.4293 7.95907 18.3864 8.0345 18.0886 8.0345C17.7166 8.0345 17.4821 7.37021 17.4967 7.23135C17.5113 7.0925 17.5494 6.86921 17.822 6.85721C18.0946 6.84521 18.1794 6.99307 18.2999 7.23135C18.3959 7.42207 18.5411 7.41564 18.6016 7.38821C18.6984 7.33893 18.8844 7.2005 18.8536 7.04107C18.8154 6.84221 18.7421 6.5735 18.6427 6.5405C18.563 6.51393 18.4177 6.5615 18.3556 6.5885C18.245 6.47021 17.9814 6.4325 17.8627 6.42864C17.2181 6.42864 16.7141 6.92364 16.7141 7.45164C16.7141 7.98007 17.2066 8.5715 17.8627 8.5715C18.3881 8.5715 18.6684 8.34607 18.7421 8.23336C18.794 8.12878 18.8664 7.90378 18.7421 7.84121Z" fill="#F0F3FA"/>
</svg>
