<svg width="24" height="24" viewBox="0 0 24 24" fill="none" xmlns="http://www.w3.org/2000/svg">
<path d="M21.963 7.97087C21.9203 7.85249 21.8428 7.74983 21.7406 7.6764C21.6383 7.60299 21.5163 7.56226 21.3905 7.55961C21.2742 7.55904 21.16 7.59167 21.0616 7.65368C20.9632 7.71571 20.8845 7.80453 20.8348 7.90973C20.6736 8.2543 20.5013 8.58774 20.3012 8.91008C19.5354 6.83262 18.0211 5.11618 16.0553 4.09729C14.0934 3.07887 11.8203 2.83531 9.6872 3.41491C7.55414 3.99452 5.71691 5.35494 4.5402 7.22616C3.356 9.09903 2.91033 11.3452 3.28976 13.5284C2.81305 14.1603 2.4033 14.8402 2.06712 15.5569C2.02047 15.6479 1.99748 15.7493 2.00022 15.8516C2.00295 15.954 2.03135 16.0541 2.0828 16.1425C2.13424 16.2311 2.20709 16.3053 2.29465 16.3583C2.38222 16.4113 2.48169 16.4414 2.58396 16.4461C2.70683 16.4506 2.82824 16.4182 2.93235 16.3527C3.03645 16.2872 3.1184 16.1919 3.1675 16.0792C3.32866 15.7403 3.50651 15.4067 3.70657 15.0845C4.46943 17.1633 5.98188 18.8819 7.94694 19.9028C9.90881 20.9212 12.1819 21.1648 14.315 20.5852C16.4481 20.0055 18.2853 18.6451 19.4621 16.7739C20.6487 14.902 21.0964 12.6556 20.7181 10.4717C21.196 9.83824 21.6073 9.16017 21.9407 8.44325C21.9756 8.36993 21.9955 8.2904 21.9993 8.20929C22.0032 8.12819 21.9907 8.04713 21.963 7.97087ZM19.6289 12C19.6289 13.8674 18.9452 15.6791 17.7115 17.0795C16.7908 18.1256 15.6009 18.8989 14.2711 19.3153C12.9414 19.7317 11.5229 19.7751 10.1701 19.4409C8.81735 19.1067 7.58225 18.4077 6.59934 17.4201C5.61643 16.4323 4.92341 15.1939 4.59578 13.8396C6.12747 12.102 8.15398 10.8745 10.4034 10.3217C11.6483 9.98827 12.9209 9.78818 14.2103 9.73813L12.3818 11.5721L13.2488 12.4447L16.5556 9.1157L12.7875 5.33105L11.9262 6.19802L14.2214 8.50994C12.8319 8.55439 11.4538 8.76558 10.1088 9.13238C8.53047 9.54919 7.04107 10.2439 5.70171 11.1775C5.23488 11.511 4.79029 11.8833 4.37903 12.2891L4.37348 11.9945C4.35137 10.1205 5.02115 8.30438 6.25458 6.89349C7.48802 5.48262 9.19847 4.57619 11.0585 4.34772C12.9186 4.11925 14.7976 4.58481 16.3358 5.65527C17.874 6.72572 18.9634 8.32585 19.3954 10.1495C17.8689 11.8916 15.8433 13.1219 13.5934 13.6729C12.3485 14.0062 11.0758 14.2063 9.78653 14.2564L11.6094 12.4224L10.7424 11.5499L7.44121 14.8733L11.2203 18.6691L12.0818 17.8021L9.78653 15.4901C11.1759 15.4402 12.5541 15.2345 13.899 14.8677C15.4717 14.4509 16.9668 13.7562 18.3006 12.8226C18.773 12.4891 19.2175 12.1168 19.6289 11.711V12Z" fill="#4155FF"/>
</svg>
