<svg width="24" height="24" viewBox="0 0 24 24" fill="none" xmlns="http://www.w3.org/2000/svg">
<path d="M13.1442 2.64737L12.7238 2.57046L12.2111 2.4628L12.288 2.05779C12.2898 2.04845 12.2935 2.03956 12.2988 2.03163C12.3041 2.02371 12.3109 2.01692 12.3188 2.01165C12.3262 2.00658 12.3346 2.00305 12.3434 2.00129C12.3521 1.99953 12.3612 1.99957 12.3701 2.0014L13.1596 2.16545C13.1749 2.17058 13.1903 2.18084 13.2006 2.20134C13.2108 2.21672 13.2159 2.23211 13.2159 2.25261L13.1442 2.64737ZM12.1701 2.46793L12.0676 2.96522L11.9855 3.45739L11.965 3.46764C11.9577 3.47346 11.9488 3.47665 11.9394 3.47665C11.9301 3.47665 11.921 3.47346 11.9137 3.46764C11.8266 3.4215 11.7293 3.39586 11.6266 3.39075C11.5548 3.38561 11.5241 3.34461 11.5395 3.27283L11.6779 2.50382C11.6831 2.47818 11.6984 2.45768 11.719 2.4423C11.7394 2.42669 11.765 2.41937 11.7907 2.42179L12.1701 2.47306V2.46793Z" fill="#070324"/>
<path d="M12.1701 2.46793L12.206 2.4628L12.7187 2.57046C12.6572 2.70889 12.6162 2.84219 12.5956 2.97548C12.5942 2.98963 12.5898 3.00332 12.5827 3.01568C12.5757 3.02803 12.5661 3.03879 12.5546 3.04726C12.5429 3.05543 12.5294 3.06101 12.5152 3.06367C12.5011 3.06631 12.4867 3.06597 12.4727 3.06263L12.0728 2.96522L12.1701 2.46793Z" fill="#FFF2AE"/>
<path d="M12.719 2.57046L13.1445 2.64736C13.1701 2.65762 13.1855 2.68325 13.1804 2.72427L13.0778 3.1908C12.9291 3.13953 12.7805 3.10876 12.6318 3.10364C12.6227 3.10413 12.6139 3.10733 12.6066 3.11281C12.5993 3.11827 12.5938 3.1258 12.5908 3.1344C12.5191 3.2677 12.4882 3.4215 12.4985 3.59581L11.9909 3.49327C11.9756 3.4779 11.9705 3.46251 11.9858 3.45738L12.073 2.96522L12.4729 3.0575C12.4929 3.06301 12.5141 3.06199 12.5334 3.05462C12.5528 3.04724 12.5693 3.03388 12.5806 3.01649C12.5886 3.00408 12.5938 2.9901 12.5959 2.97548C12.6113 2.84218 12.6575 2.70889 12.7241 2.57046H12.719Z" fill="#FFDE39"/>
<path d="M7.80694 3.19592L7.35579 3.11389C7.34553 3.11389 7.33527 3.11389 7.32502 3.12414C7.31685 3.13045 7.31136 3.1396 7.30964 3.14978L7.21224 3.63682L7.14047 4.09823C7.13897 4.10496 7.13886 4.11194 7.14013 4.11873C7.1414 4.12551 7.14403 4.13197 7.14786 4.13772C7.1517 4.14347 7.15665 4.14837 7.16242 4.15217C7.1682 4.15595 7.17468 4.15853 7.18147 4.15975L7.63262 4.2469L7.34553 5.75415V5.77979C7.35579 5.79004 7.36091 5.79517 7.37116 5.79517L7.84795 5.8977L7.64289 6.90767L7.53523 7.5075L7.45319 7.90226C7.41218 7.92276 7.36604 7.91763 7.32502 7.88688C7.30621 7.87575 7.28524 7.86875 7.2635 7.86637L7.06869 7.83049C7.04753 7.82576 7.0291 7.81287 7.01742 7.7946C7.0105 7.7851 7.00557 7.7743 7.00292 7.76284C7.00028 7.75139 6.99998 7.73952 7.00204 7.72794L7.25838 6.37449C7.26363 6.35045 7.26155 6.32539 7.25241 6.30254C7.24327 6.2797 7.22749 6.26011 7.20711 6.24632C7.19143 6.23734 7.17388 6.23207 7.15584 6.23094L6.80722 6.17455C6.79478 6.17177 6.78381 6.16446 6.77646 6.15404C6.7668 6.14458 6.76127 6.13167 6.76108 6.11816C6.76108 6.06177 6.77133 6.00024 6.7816 5.94384C6.89951 5.40553 7.00717 4.86211 7.1097 4.31867C7.1302 4.20076 7.10458 4.10848 6.97128 4.08284C6.89218 4.06813 6.81352 4.05104 6.73545 4.03157C6.72073 4.02776 6.70794 4.01863 6.69956 4.00594C6.69141 3.99392 6.68778 3.97938 6.68931 3.96493C6.73159 3.67427 6.7846 3.38526 6.84824 3.09851C6.8567 3.08707 6.86745 3.07752 6.87981 3.07046C6.89216 3.06339 6.90586 3.05899 6.92001 3.0575L6.9559 3.06262C7.05843 3.09851 7.16097 3.11389 7.2635 3.10364C7.28402 3.10364 7.29939 3.09851 7.30964 3.08826C7.32078 3.07719 7.32799 3.06279 7.33015 3.04725L7.41218 2.673C7.4173 2.65761 7.42756 2.64223 7.44294 2.63198C7.44957 2.62731 7.45706 2.62401 7.46498 2.62225C7.4729 2.62048 7.4811 2.62031 7.48907 2.62173L7.79669 2.67812C7.81719 2.67812 7.83257 2.6935 7.84795 2.70888C7.85821 2.71913 7.86333 2.73964 7.86333 2.76015L7.83257 3.1344L7.81719 3.18054L7.80694 3.19592ZM10.8419 3.79575L10.3908 3.70347C10.385 3.70227 10.3797 3.69904 10.3759 3.69437C10.3722 3.68968 10.3701 3.68383 10.3703 3.67783L10.4575 3.20105C10.4575 3.1908 10.4575 3.18567 10.442 3.18054L9.96019 3.09339C9.95684 3.09222 9.95325 3.09222 9.9499 3.09339V3.10364L9.85762 3.57529L9.84225 3.59581C9.83561 3.59815 9.82837 3.59815 9.82173 3.59581L9.37059 3.50865C9.36585 3.50858 9.36115 3.50945 9.35675 3.51121C9.35234 3.51297 9.34834 3.51559 9.34495 3.5189C9.33748 3.52362 9.33201 3.53091 9.32958 3.53941L9.25267 3.97518C9.12963 3.99057 9.0066 3.96493 8.87842 3.90341C8.85427 3.89154 8.83466 3.87208 8.82263 3.848C8.81058 3.82392 8.80678 3.79656 8.81178 3.77011L8.85792 3.52403C8.86817 3.46251 8.90919 3.44201 8.96558 3.45738C9.08349 3.4984 9.2014 3.50865 9.3142 3.48815C9.32349 3.48846 9.33269 3.48623 9.34081 3.48172C9.34895 3.4772 9.35569 3.47056 9.36033 3.46251C9.41161 3.34972 9.44749 3.23694 9.46287 3.11389C9.47313 3.04725 9.51414 3.01648 9.57566 3.02674C9.65768 3.04212 9.73971 3.0575 9.81662 3.08314C9.84384 3.09157 9.87322 3.08938 9.89894 3.07702C9.92466 3.06466 9.94464 3.04303 9.95504 3.01648C9.99608 2.91395 10.0165 2.82166 10.0217 2.73452C10.0268 2.65761 10.0627 2.62686 10.1396 2.63711L10.3857 2.673C10.4729 2.68838 10.5087 2.73964 10.4882 2.8268C10.456 2.93311 10.4491 3.04542 10.4678 3.15491C10.4678 3.17028 10.4779 3.18054 10.4882 3.1908L10.5138 3.2113C10.6164 3.24206 10.7291 3.26257 10.8419 3.26257C10.8553 3.26181 10.8685 3.26541 10.8796 3.2728C10.8906 3.28019 10.8991 3.291 10.9034 3.30358V3.33435L10.8419 3.79575ZM13.0003 3.62656L13.0824 3.1908L13.1849 2.72427L13.5335 2.77041C13.5469 2.77226 13.5597 2.77687 13.5711 2.78392C13.5826 2.79098 13.5924 2.80035 13.6001 2.81141C13.6085 2.82221 13.6147 2.8346 13.6182 2.84779C13.6216 2.861 13.6225 2.87478 13.6207 2.88832L13.4668 3.68809C13.4641 3.69707 13.4594 3.70536 13.4533 3.71243C13.4471 3.7195 13.4394 3.72518 13.4309 3.72911C13.4237 3.73446 13.4153 3.73817 13.4064 3.73994C13.3976 3.74171 13.3885 3.74151 13.3796 3.73936L13.0003 3.62656Z" fill="#070324"/>
<path d="M10.8423 3.79575C10.8578 3.806 10.8629 3.83164 10.868 3.87266L10.7808 4.29817C10.7705 4.3238 10.7603 4.33406 10.7449 4.33406L10.263 4.23153L10.1861 4.20589C10.263 4.14437 10.3092 4.04696 10.3297 3.91366C10.3656 3.65733 10.1246 3.66758 9.96572 3.63682C9.94132 3.63139 9.91584 3.63504 9.89395 3.64707C9.87146 3.65773 9.85329 3.67584 9.84264 3.69834C9.78112 3.85214 9.77087 3.99057 9.82212 4.11873C9.79361 4.12659 9.7635 4.12659 9.73498 4.11873L9.36072 4.05209C9.27357 4.05721 9.24281 4.03158 9.2582 3.97519L9.32997 3.53941C9.33157 3.53325 9.3348 3.52763 9.33931 3.52313C9.34381 3.51862 9.34943 3.51539 9.35559 3.51378H9.37098L9.82212 3.60093L9.84264 3.59581C9.85012 3.5911 9.85558 3.5838 9.85801 3.5753L9.94515 3.10364C9.94586 3.10123 9.94718 3.09901 9.94897 3.09723C9.95077 3.09544 9.95304 3.09412 9.95543 3.09339H9.96058L10.4424 3.18054C10.4527 3.18054 10.4579 3.1908 10.4579 3.20105L10.3706 3.67784C10.3705 3.68383 10.3726 3.68968 10.3763 3.69437C10.3801 3.69905 10.3854 3.70228 10.3912 3.70347L10.8423 3.79575Z" fill="#FFDE39"/>
<path d="M13.0774 3.1908L13.0004 3.62657C13.0107 3.6522 13.0004 3.66759 12.9594 3.67784L12.498 3.59581C12.4877 3.4215 12.5186 3.2677 12.5904 3.1344C12.5934 3.1258 12.5989 3.11828 12.6062 3.11281C12.6135 3.10733 12.6222 3.10414 12.6313 3.10365C12.78 3.10365 12.9287 3.1344 13.0825 3.1908H13.0774Z" fill="#FEBD3D"/>
<path d="M7.80637 3.19592C7.81663 3.20617 7.82688 3.22155 7.83201 3.24719L7.72947 3.73422C7.55516 3.66245 7.38085 3.63169 7.2168 3.63681L7.30907 3.14978C7.30907 3.13953 7.31421 3.12928 7.32446 3.12414C7.32862 3.12044 7.33349 3.11761 7.33879 3.11585C7.34408 3.11408 7.34966 3.11343 7.35523 3.11389L7.80637 3.19592Z" fill="#FFF2AE"/>
<path d="M7.83251 3.24207L8.21702 3.31384C8.23239 3.31384 8.25291 3.32922 8.26316 3.34461C8.27341 3.35998 8.27853 3.37536 8.27341 3.39587C8.23311 3.67634 8.1818 3.95509 8.11961 4.23153C8.12411 4.23932 8.12648 4.24816 8.12648 4.25716C8.12648 4.26616 8.12411 4.275 8.11961 4.28279C8.10936 4.31356 8.08372 4.32381 8.04784 4.31868L7.6377 4.24178L7.72997 3.73423L7.83251 3.24207ZM11.9903 3.49328L12.503 3.59582L12.9644 3.68296L12.8105 4.37508C12.797 4.4363 12.7959 4.49964 12.8073 4.5613C12.8188 4.62296 12.8426 4.68168 12.8773 4.73395C12.8874 4.74932 12.9029 4.75958 12.9285 4.76984L13.2003 4.84673C13.2121 4.84969 13.2229 4.85616 13.2311 4.8653C13.2394 4.87444 13.2446 4.88583 13.2463 4.898L13.2412 4.92876C13.1985 5.0522 13.1811 5.18296 13.19 5.31327L12.7387 5.23124C12.7131 5.23124 12.7029 5.21586 12.708 5.19022L12.7849 4.76471C12.7849 4.74932 12.7849 4.73395 12.7746 4.72369C12.7707 4.71723 12.7655 4.71163 12.7593 4.70723C12.7532 4.70281 12.7462 4.6997 12.7387 4.69806L11.8057 4.51863C11.8025 4.51722 11.799 4.51649 11.7955 4.51649C11.7919 4.51649 11.7885 4.51722 11.7852 4.51863C11.782 4.52101 11.7795 4.52411 11.7777 4.52767C11.7759 4.53123 11.7749 4.53515 11.7749 4.53913L11.6879 5.00053C11.6844 5.00714 11.679 5.01251 11.6724 5.01592C11.6649 5.02079 11.6557 5.02262 11.6468 5.02105L11.1649 4.92364C11.1604 4.91925 11.157 4.91402 11.1547 4.90826V4.88775C11.1584 4.87652 11.1645 4.86617 11.1724 4.85736C11.1803 4.84854 11.19 4.84143 11.2007 4.83648C11.2077 4.83365 11.2139 4.82947 11.2193 4.82418C11.2246 4.81891 11.2287 4.81263 11.2315 4.80573C11.2478 4.77228 11.2548 4.73512 11.2521 4.69806C11.2469 4.67755 11.2521 4.65705 11.2572 4.63654L11.37 4.41097C11.384 4.38062 11.4073 4.3555 11.4366 4.33919C11.468 4.32235 11.5042 4.31691 11.5392 4.32381L11.7955 4.3597C11.8027 4.361 11.81 4.36076 11.817 4.35899C11.8241 4.35722 11.8308 4.35397 11.8365 4.34945C11.8422 4.34521 11.847 4.33984 11.8505 4.33365C11.854 4.32748 11.8563 4.32063 11.857 4.31356L11.9903 3.49328ZM15.4098 4.6878L14.9484 4.59552C14.9399 4.59309 14.9326 4.58762 14.9279 4.58014C14.9245 4.57665 14.9212 4.57323 14.9177 4.56989L15.0202 4.09824C15.0202 4.08798 15.0202 4.08285 15.0048 4.07772L14.5229 3.99057C14.5075 3.99057 14.5024 3.99057 14.5024 4.00083L14.405 4.50325L13.9487 4.4007L14.0307 3.95469C14.0324 3.94728 14.0355 3.9403 14.0399 3.93414C14.0443 3.92796 14.0499 3.92275 14.0564 3.9188C14.0635 3.91307 14.0718 3.90916 14.0807 3.90738C14.0897 3.90558 14.0989 3.90599 14.1076 3.90855C14.2358 3.94444 14.364 3.96494 14.5024 3.96494C14.5229 3.96494 14.5382 3.95981 14.5382 3.9393L14.6203 3.62145C14.6459 3.53429 14.6972 3.50353 14.7793 3.52404L14.974 3.5753C15.0561 3.59068 15.092 3.64708 15.0714 3.73423C15.0458 3.83677 15.0407 3.93417 15.0458 4.02646C15.0469 4.04004 15.0518 4.05303 15.0599 4.06392C15.0682 4.07481 15.0792 4.08316 15.092 4.08798C15.1945 4.13412 15.3022 4.15976 15.4201 4.15976L15.4509 4.17513L15.4611 4.20077C15.4611 4.30331 15.4509 4.39558 15.4201 4.48786C15.4165 4.50476 15.4165 4.52223 15.4201 4.53913C15.4251 4.59552 15.4201 4.64166 15.4098 4.69293V4.6878Z" fill="#070324"/>
<path d="M7.73042 3.73423L7.64328 4.2469H7.63301L7.18187 4.15976C7.17507 4.15854 7.16859 4.15595 7.16281 4.15217C7.15704 4.14838 7.15209 4.14347 7.14825 4.13772C7.14442 4.13198 7.14179 4.12552 7.14052 4.11874C7.13926 4.11194 7.13936 4.10497 7.14086 4.09823L7.21263 3.63682C7.38181 3.6317 7.55612 3.66246 7.7253 3.73936L7.73042 3.73423Z" fill="#FEBD3D"/>
<path d="M10.1859 4.20588L9.82197 4.11872C9.77071 3.99056 9.78096 3.85213 9.8476 3.69833C9.85825 3.67583 9.87633 3.65772 9.89893 3.64706C9.91927 3.63623 9.94284 3.63262 9.96557 3.63681C10.1244 3.66757 10.3655 3.65732 10.3244 3.91365C10.309 4.04695 10.2628 4.14436 10.1859 4.20588Z" fill="#FFF2AE"/>
<path d="M10.7808 4.29817L10.8628 3.87266L11.2268 3.88803C11.2418 3.88913 11.2563 3.89335 11.2695 3.90041C11.2828 3.90747 11.2944 3.91723 11.3036 3.92905C11.3138 3.941 11.3212 3.95492 11.3256 3.96992C11.3301 3.98494 11.3313 4.00069 11.3294 4.01621L11.2883 4.34431C11.2877 4.34944 11.2861 4.35438 11.2834 4.35881C11.2808 4.36323 11.2772 4.36703 11.2729 4.36995C11.2654 4.37481 11.2561 4.37664 11.2473 4.37508L10.7808 4.29817Z" fill="#070324"/>
<path d="M14.918 4.56988L14.4053 4.50324L14.5026 4.00082C14.5026 3.99057 14.5078 3.98544 14.5232 3.99057L15.0051 4.07772C15.0154 4.07772 15.0205 4.08798 15.0205 4.09823L14.918 4.56988Z" fill="#FFF2AE"/>
<path d="M9.36105 4.0521L9.7353 4.11874L9.65327 4.64679L9.46358 5.63113C9.46358 5.65163 9.4482 5.66188 9.43282 5.65675L8.49976 5.4722C8.47925 5.46707 8.47412 5.45681 8.47412 5.43631L8.54589 5.03642C8.64844 5.02105 8.78172 5.0313 8.93553 5.07231C9.03806 5.09794 9.09445 5.05694 9.11497 4.95953L9.26877 4.11874C9.27902 4.06747 9.30978 4.04183 9.36105 4.0521Z" fill="#070324"/>
<path d="M9.73486 4.11874C9.76561 4.12899 9.79638 4.12387 9.822 4.11874L10.1859 4.20589L10.2629 4.23665L10.1706 4.72882L9.65283 4.64679L9.73486 4.11874Z" fill="#FEBD3D"/>
<path d="M10.2581 4.23664L10.7451 4.33405L10.6733 4.57501C10.6426 4.66729 10.6785 4.72881 10.6579 4.82109L10.1709 4.72881L10.2631 4.23664H10.2581Z" fill="#070324"/>
<path d="M7.63289 4.2469H7.64316L8.05329 4.31868C8.10456 4.31868 8.13532 4.34944 8.13019 4.41609L8.06354 4.82623V4.84673L8.08405 4.85698L8.49931 4.94414C8.52495 4.92364 8.54033 4.95439 8.55059 5.03642L8.47368 5.43631C8.47368 5.45681 8.47881 5.46706 8.49931 5.4722L9.43238 5.65675C9.44776 5.65675 9.45802 5.65675 9.46314 5.63113L9.65283 4.64679L10.1655 4.72882L10.6576 4.8211C10.6833 4.8211 10.6935 4.83648 10.6782 4.84673L10.591 5.32865C10.591 5.3389 10.591 5.34403 10.6013 5.34915L11.0627 5.44656C11.0781 5.44656 11.0832 5.44656 11.0832 5.43118L11.16 4.93901C11.1447 4.93901 11.1447 4.93901 11.1652 4.92364L11.6472 5.02617C11.6518 5.0269 11.6567 5.02667 11.6613 5.02551C11.6659 5.02435 11.6702 5.02227 11.6741 5.01941C11.6779 5.01654 11.6811 5.01295 11.6835 5.00882C11.6859 5.00471 11.6875 5.00014 11.6882 4.99541L11.7753 4.53913C11.7767 4.53291 11.7803 4.52742 11.7856 4.52375L11.7958 4.51863H11.806L12.7391 4.69806C12.7545 4.69806 12.7648 4.70831 12.775 4.72369C12.7853 4.73395 12.7853 4.74932 12.7853 4.76471L12.7083 5.19022C12.7083 5.21585 12.7135 5.23124 12.7391 5.23124L13.1903 5.31326C13.2006 5.32352 13.2056 5.34403 13.2006 5.36453L13.1134 5.81056C13.1134 5.83107 13.1134 5.84645 13.139 5.84645L13.5748 5.93873C13.5796 5.9388 13.5842 5.93793 13.5886 5.93617C13.5931 5.9344 13.597 5.93179 13.6004 5.92848C13.6079 5.92376 13.6134 5.91647 13.6158 5.90796L13.6876 5.45681C13.6824 5.43631 13.6876 5.42606 13.708 5.42092L14.2104 5.51833L14.7232 5.64138L14.5386 6.63597C14.5386 6.65134 14.5386 6.65647 14.554 6.66159L15.5178 6.85129L15.4409 7.35371L15.2512 8.35341L15.241 8.37905C15.2359 8.39443 15.2204 8.39955 15.2051 8.39443C15.1026 8.36367 15 8.33291 14.877 8.30728C14.8001 8.28677 14.7693 8.2355 14.7796 8.15347C14.7924 8.05028 14.8095 7.94765 14.8308 7.84586C14.8288 7.83129 14.8235 7.81735 14.8156 7.80495C14.8076 7.79257 14.7971 7.78204 14.7846 7.77409C14.7742 7.76489 14.762 7.75792 14.7488 7.75359L14.3335 7.68181L14.4207 7.21016C14.4213 7.2001 14.4194 7.19004 14.4149 7.18102C14.4103 7.172 14.4035 7.16436 14.395 7.15889C14.389 7.15396 14.3821 7.15045 14.3746 7.14864L13.9132 7.07686L13.4825 6.99484C13.4624 6.99234 13.4421 6.99786 13.4261 7.01021C13.4169 7.01576 13.4088 7.0232 13.4027 7.03203C13.3965 7.04086 13.3922 7.05089 13.3902 7.06148L13.3287 7.47162L13.2262 7.95866C13.2159 7.99454 13.2262 8.00993 13.2621 8.02018L14.2618 8.18936L14.6361 8.27139C14.6609 8.27693 14.6828 8.29156 14.6976 8.3124C14.7129 8.33803 14.718 8.36367 14.7129 8.3893L14.6617 8.71228C14.6514 8.77381 14.6206 8.79944 14.5591 8.78919L11.6728 8.22525C11.6623 8.22256 11.6515 8.22209 11.6409 8.22386C11.6303 8.22562 11.6202 8.22959 11.6113 8.2355C11.6029 8.24155 11.596 8.24922 11.5907 8.25803C11.5854 8.26683 11.582 8.2766 11.5805 8.28677L11.5189 8.66615C11.5171 8.67633 11.5121 8.68569 11.5048 8.69301C11.4975 8.70034 11.4882 8.70526 11.478 8.70715C11.4712 8.70854 11.4642 8.70854 11.4574 8.70715L7.95589 8.02018L7.48422 7.93815C7.46372 7.94327 7.45346 7.93302 7.45346 7.90227L7.5355 7.50751C7.57138 7.47162 7.61239 7.46137 7.65341 7.47674C7.66879 7.48187 7.68416 7.48699 7.70468 7.47674C7.77284 7.46337 7.84325 7.4669 7.90974 7.48699C8.07892 7.53826 8.25324 7.57928 8.43267 7.61004C8.5352 7.63054 8.60185 7.5844 8.61723 7.47674L8.74539 6.65134C8.74788 6.63439 8.74532 6.61709 8.73802 6.60159C8.73073 6.58608 8.71903 6.57308 8.70439 6.56419C8.69533 6.55694 8.68485 6.5517 8.67363 6.54881C8.53326 6.53248 8.39743 6.48895 8.27374 6.42064L8.35577 6.03614C8.3576 6.02733 8.35765 6.01826 8.35588 6.00945C8.35412 6.00064 8.35059 5.99228 8.34552 5.98487C8.335 5.973 8.3203 5.96565 8.3045 5.96436L7.84822 5.89771L7.37143 5.79518C7.36282 5.79276 7.35541 5.78722 7.35068 5.77964C7.34593 5.77204 7.34419 5.76296 7.3458 5.75416L7.63289 4.2469Z" fill="#FFDE39"/>
<path d="M13.8881 4.46221L13.801 4.89286L13.4215 4.81596C13.4079 4.8132 13.395 4.80769 13.3835 4.79976C13.372 4.79182 13.3623 4.78163 13.3549 4.76983C13.3416 4.74652 13.3379 4.7189 13.3447 4.69292L13.3959 4.44684C13.4165 4.38019 13.4574 4.34943 13.519 4.35455C13.6471 4.35455 13.7702 4.39044 13.8881 4.45709V4.46221ZM8.49991 4.94413L8.08465 4.85697C8.07843 4.85558 8.07294 4.85194 8.06927 4.84672C8.06519 4.8407 8.06337 4.83344 8.06414 4.82622L8.13079 4.41607C8.2487 4.39044 8.38712 4.40582 8.54093 4.46735C8.56655 4.4776 8.58194 4.49298 8.59219 4.51862C8.60244 4.53399 8.60757 4.55962 8.60244 4.58013L8.49991 4.939V4.94413Z" fill="#070324"/>
<path d="M13.949 4.4007L14.4104 4.50324L14.9179 4.56988L14.9281 4.58014L14.9487 4.59552L15.4101 4.6878L15.4204 4.71343L15.3331 5.17484C15.3229 5.2056 15.3024 5.21585 15.2717 5.21585L14.8154 5.12357C14.6543 5.05583 14.4824 5.01762 14.3079 5.01078L13.8259 4.92363C13.8156 4.93901 13.8054 4.92363 13.8003 4.89287L13.8874 4.46222C13.8977 4.41608 13.9182 4.39558 13.949 4.4007Z" fill="#FFDE39"/>
<path d="M16.1841 9.14806C16.1462 9.23195 16.112 9.31748 16.0816 9.40439C16.0304 9.53769 15.9791 9.55819 15.8407 9.54282C15.7023 9.52743 15.6099 9.49155 15.5689 9.45053L15.7535 8.48671L15.9586 7.46137L16.4252 7.55364C16.4456 7.55876 16.4611 7.55364 16.4611 7.53314L16.7482 6.02588L17.1993 6.11816C17.2351 6.12328 17.2506 6.10791 17.2607 6.07202L17.4453 5.11844C17.4453 5.09794 17.4402 5.08255 17.4197 5.08255L16.9685 5.00053C16.948 4.99541 16.9327 5.00053 16.9276 5.0313L16.7482 5.98486C16.7224 6.00537 16.6865 6.0105 16.6353 6.00025C16.5071 5.96948 16.379 5.94898 16.2457 5.92847L16.4559 4.98516C16.4595 4.97205 16.4676 4.96069 16.479 4.95316C16.4902 4.94562 16.5039 4.94242 16.5174 4.94414L16.8404 4.99541C16.8711 4.99541 16.8967 4.99541 16.9224 4.97489C16.9471 4.95974 16.9654 4.93602 16.9736 4.90825L17.066 4.56476C17.0763 4.51349 17.107 4.49811 17.1531 4.50836L17.4659 4.57502C17.5171 4.58527 17.5377 4.61602 17.5222 4.66729C17.4915 4.79546 17.4709 4.92363 17.4709 5.0518C17.4709 5.07743 17.4864 5.09794 17.5069 5.10307C17.5889 5.15433 17.6812 5.17484 17.7837 5.17484C17.8708 5.17484 17.9067 5.22098 17.8914 5.30814L17.753 6.12841C17.7514 6.14116 17.7469 6.15337 17.7397 6.16406C17.7327 6.17474 17.7231 6.18361 17.712 6.18993C17.7016 6.19493 17.6902 6.19753 17.6786 6.19753C17.6671 6.19753 17.6557 6.19493 17.6453 6.18993C17.5222 6.1438 17.4197 6.12328 17.3377 6.12328C17.2607 6.12328 17.2197 6.15917 17.2095 6.23094C17.1582 6.62058 17.0967 6.96407 17.0301 7.2563C16.9649 7.539 16.9136 7.82472 16.8763 8.11245C16.871 8.11988 16.8641 8.12604 16.8561 8.13047C16.8482 8.13491 16.8393 8.1375 16.8301 8.13809H16.8045L16.4302 8.05606C16.4119 8.05094 16.3923 8.05283 16.3753 8.06136C16.3582 8.06989 16.3449 8.08444 16.338 8.1022L16.2918 8.256C16.2406 8.55335 16.2047 8.8507 16.1893 9.14806H16.1841ZM15.4203 4.71856L15.7945 4.80572C15.8458 4.81597 15.8714 4.84673 15.8611 4.90312L15.8099 5.19022C15.7997 5.24149 15.7689 5.26199 15.7227 5.25174L15.3331 5.16971L15.4203 4.71343V4.71856ZM11.1599 4.93901L11.0831 5.43117C11.0831 5.44143 11.078 5.44656 11.0677 5.44656L10.6012 5.34403C10.5909 5.34403 10.5857 5.34403 10.5909 5.32864L10.6781 4.84673C10.7148 4.84437 10.7512 4.85529 10.7806 4.8775C10.796 4.88262 10.8114 4.89287 10.8318 4.89287L11.1599 4.93901Z" fill="#070324"/>
<path d="M14.8205 5.12871L14.718 5.64138L14.2104 5.51833L14.3079 5.01078C14.4617 5.01078 14.6361 5.0518 14.8205 5.12357V5.12871Z" fill="#FEBD3D"/>
<path d="M16.748 6.02589C16.7685 6.02076 16.7685 6.00538 16.748 5.98487L16.9275 5.03131C16.9275 5.00567 16.9479 4.99542 16.9684 5.00054L17.4196 5.08256C17.4401 5.08256 17.4452 5.09795 17.4452 5.11845L17.2606 6.07203C17.2555 6.10792 17.235 6.12329 17.1991 6.11817L16.748 6.02589Z" fill="#FFDE39"/>
<path d="M14.8205 5.12871L15.2717 5.21585L15.1179 6.19506C15.1179 6.22069 15.1282 6.23608 15.1487 6.24633C15.2922 6.3181 15.4409 6.33861 15.5896 6.3181C15.61 6.3181 15.6306 6.30272 15.6459 6.28735C15.6815 6.24538 15.7069 6.19583 15.7202 6.14249C15.7336 6.08917 15.7345 6.03348 15.7228 5.97973C15.7214 5.96739 15.723 5.95486 15.7275 5.94326C15.7319 5.93166 15.7391 5.9213 15.7486 5.91309C15.7572 5.90467 15.7678 5.89841 15.7794 5.89485C15.7909 5.89128 15.8032 5.89051 15.8152 5.89259L16.0202 5.94385H16.092C16.1382 5.94385 16.1792 5.95411 16.2151 5.98487L16.1483 6.39501C16.1433 6.42576 16.1279 6.43602 16.0972 6.4309L15.6511 6.33861L15.6306 6.34374C15.6267 6.34584 15.6233 6.34877 15.6207 6.35231C15.6181 6.35586 15.6161 6.35992 15.6152 6.36424L15.5127 6.85129L14.554 6.66159C14.5437 6.66159 14.5386 6.65134 14.5386 6.63597L14.718 5.64138L14.8205 5.12871Z" fill="#070324"/>
<path d="M11.4163 6.54368C11.3958 6.55906 11.3855 6.56931 11.3855 6.57956C11.1061 6.49943 10.8192 6.44789 10.5294 6.42576C10.4372 6.41551 10.3961 6.36424 10.4063 6.27196L10.432 6.0105C10.4372 5.91822 10.4884 5.8772 10.5857 5.89259L10.9139 5.94385C10.9652 5.95411 11.0011 5.92847 11.0114 5.8772L11.0677 5.52858C11.078 5.47731 11.1139 5.45169 11.1702 5.46194L12.0623 5.64138C12.088 5.64138 12.1033 5.63625 12.1084 5.61061L12.1546 5.25174C12.1648 5.16971 12.2058 5.13896 12.2827 5.14921L12.6006 5.21585C12.6672 5.2261 12.6929 5.26712 12.6826 5.33377L12.616 5.64138C12.6132 5.65972 12.6063 5.67717 12.5957 5.6923C12.5849 5.70745 12.5708 5.71986 12.5545 5.72852C12.5386 5.73663 12.521 5.74086 12.5032 5.74086C12.4854 5.74086 12.4678 5.73663 12.4519 5.72852C12.3596 5.67727 12.2468 5.65675 12.1187 5.66188C12.093 5.66188 12.0828 5.67213 12.0777 5.69777L12.0162 6.08228C12.0138 6.09554 12.0077 6.10786 11.9986 6.11784C11.9895 6.12782 11.9778 6.13503 11.9649 6.13867H11.9341L11.5753 6.07714C11.5621 6.07418 11.5485 6.07399 11.5352 6.07658C11.5219 6.07918 11.5093 6.0845 11.4982 6.09222C11.4871 6.09993 11.4778 6.10987 11.4707 6.12139C11.4637 6.13292 11.4591 6.14578 11.4573 6.15917L11.4163 6.54368Z" fill="#FFF2AE"/>
<path d="M13.2003 5.36964L13.6411 5.42091C13.6482 5.42166 13.6551 5.42386 13.6612 5.4274C13.6675 5.43093 13.6728 5.4357 13.677 5.44142L13.6873 5.4568L13.6155 5.90795C13.6153 5.91318 13.6139 5.91829 13.6111 5.92277C13.6085 5.92726 13.6047 5.93098 13.6001 5.93359C13.5919 5.93674 13.5828 5.93674 13.5745 5.93359L13.1387 5.85156C13.1183 5.84644 13.108 5.83106 13.1131 5.81055L13.2003 5.36964Z" fill="#070324"/>
<path d="M7.84813 5.89771L8.30441 5.96436C8.31262 5.96564 8.3205 5.96857 8.32754 5.97297C8.33459 5.97737 8.34068 5.98316 8.34542 5.98999C8.3508 5.99726 8.35449 6.00562 8.35626 6.01448C8.35804 6.02335 8.35784 6.03248 8.35568 6.04125L8.27365 6.42064L8.17112 6.9692C8.17049 6.97392 8.16892 6.97849 8.16652 6.98261C8.1641 6.98673 8.16089 6.99032 8.15707 6.99319C8.15325 6.99605 8.1489 6.99813 8.14427 6.9993C8.13964 7.00046 8.13481 7.00068 8.1301 6.99995L7.64307 6.90768L7.84813 5.89771Z" fill="#FB6439"/>
<path d="M16.2459 5.92847C16.3791 5.94385 16.5072 5.96948 16.6355 6.00025C16.6867 6.0105 16.7226 6.00537 16.7483 5.98487C16.7687 6.00537 16.7687 6.02075 16.7483 6.02588L16.4612 7.53314C16.4612 7.55364 16.4458 7.55877 16.4253 7.55365L15.9639 7.46649L15.4409 7.35371L15.5178 6.85129L15.6204 6.36424C15.6204 6.35399 15.6204 6.34887 15.6306 6.34374H15.6511L16.1023 6.43089C16.1279 6.43601 16.1433 6.42576 16.1484 6.40013L16.2151 5.99C16.2151 5.96948 16.2253 5.94898 16.2459 5.92847Z" fill="#FEBD3D"/>
<path d="M9.86354 6.28221L9.78151 6.74362C9.78151 6.75388 9.78151 6.75899 9.77126 6.76413C9.76524 6.76821 9.75798 6.77002 9.75075 6.76925L9.26884 6.6821C9.26371 6.57444 9.27396 6.45653 9.30473 6.33348C9.32523 6.25146 9.37137 6.21557 9.44314 6.21557C9.58669 6.21557 9.73024 6.2412 9.86354 6.28221Z" fill="#FDB199"/>
<path d="M10.2778 6.88716L10.2112 7.32293C10.2089 7.33545 10.2041 7.34739 10.197 7.35798C10.19 7.36857 10.1808 7.37757 10.1701 7.38445C10.1602 7.3905 10.1493 7.39452 10.1378 7.39628C10.1264 7.39804 10.1147 7.39751 10.1035 7.3947L9.69334 7.31268L9.21655 7.21015C9.19605 7.20502 9.19092 7.18963 9.19092 7.16913L9.26782 6.68209L9.74974 6.76924H9.77024L9.78049 6.74362L9.86252 6.2822L10.3547 6.36936C10.3752 6.36936 10.3803 6.38475 10.3752 6.40525L10.2727 6.88716H10.2778Z" fill="#FB6439"/>
<path d="M8.2734 6.42065C8.40157 6.49242 8.53486 6.53343 8.67329 6.54881C8.68515 6.54991 8.69662 6.55357 8.70692 6.55955C8.71722 6.56553 8.72609 6.57369 8.73292 6.58345C8.73976 6.5932 8.74438 6.60433 8.74648 6.61606C8.74857 6.62779 8.74809 6.63982 8.74505 6.65134L8.61689 7.47674C8.60151 7.5844 8.53999 7.63054 8.43233 7.61004C8.2529 7.57929 8.07858 7.53827 7.9094 7.487C7.84249 7.4686 7.77208 7.46684 7.70433 7.48188H7.65307C7.61205 7.46137 7.57104 7.47162 7.53516 7.50751L7.63769 6.90768L8.12985 6.99996C8.13801 7.00186 8.14657 7.00086 8.15407 6.99711C8.16155 6.99337 8.1675 6.98712 8.17086 6.97946L8.17087 6.9692L8.2734 6.42065Z" fill="#FEBD3D"/>
<path d="M11.4164 6.54368C11.5548 6.61033 11.7087 6.65134 11.8728 6.66159L11.806 7.13326C11.8054 7.13933 11.8037 7.14522 11.8007 7.15058C11.7978 7.15594 11.7938 7.16066 11.7891 7.16448C11.7843 7.16829 11.7788 7.17112 11.7729 7.1728C11.767 7.17448 11.7608 7.17498 11.7548 7.17427L11.2935 7.08198L11.3857 6.57957C11.3857 6.56931 11.396 6.55906 11.4164 6.54368Z" fill="#FDB199"/>
<path d="M11.8728 6.66158L12.365 6.74362C12.3906 6.74362 12.406 6.76412 12.4009 6.79488L12.3085 7.29218L12.2266 7.80485L11.2268 7.61516C11.2196 7.61279 11.2135 7.60781 11.2097 7.60118C11.2058 7.59454 11.2046 7.58673 11.2063 7.57928L11.2935 7.08198L11.7549 7.17427C11.766 7.17467 11.7769 7.17104 11.7856 7.164C11.796 7.15666 11.8033 7.1457 11.8061 7.13325L11.8728 6.66158Z" fill="#FB6439"/>
<path d="M9.69351 7.31269L10.1037 7.39472C10.1149 7.39753 10.1265 7.39806 10.138 7.3963C10.1495 7.39454 10.1604 7.39052 10.1703 7.38447C10.1809 7.37759 10.1902 7.36858 10.1972 7.35799C10.2043 7.34741 10.2091 7.33547 10.2113 7.32294L10.278 6.88718C10.4318 6.87692 10.5753 6.89743 10.724 6.95382C10.7394 6.96407 10.7599 6.97946 10.765 6.99484C10.7752 7.01534 10.7804 7.03585 10.7752 7.05635C10.7072 7.36093 10.6559 7.66899 10.6214 7.97916C10.6161 7.9871 10.6094 7.9939 10.6014 7.99919C10.5935 8.00446 10.5847 8.00811 10.5753 8.00993H10.5496L9.64223 7.84075C9.62936 7.83873 9.61746 7.83268 9.60825 7.82346C9.59904 7.81425 9.59299 7.80235 9.59098 7.78948C9.57046 7.59466 9.65762 7.48188 9.69351 7.31269Z" fill="#FEBD3D"/>
<path d="M13.9126 7.07686L13.8408 7.52801C13.8388 7.54214 13.8314 7.55496 13.8203 7.5639C13.8138 7.56884 13.8063 7.57232 13.7984 7.57409C13.7904 7.57586 13.7821 7.57588 13.7742 7.57415L13.3281 7.47162L13.3896 7.06148C13.3922 7.04556 13.3994 7.03073 13.4103 7.01888C13.4213 7.00702 13.4354 6.99866 13.4512 6.99483H13.482L13.9126 7.07686Z" fill="#FDB199"/>
<path d="M13.913 7.07686L14.3744 7.14863C14.3846 7.15052 14.3939 7.15546 14.4012 7.16277C14.4086 7.17009 14.4136 7.17946 14.4155 7.18964V7.21016L14.3334 7.68181L14.2616 8.18936L13.2619 8.02018C13.226 8.01504 13.2106 7.99454 13.2209 7.95865L13.3234 7.47162L13.7746 7.57415C13.7824 7.57663 13.7908 7.57718 13.7989 7.57575C13.8071 7.5743 13.8147 7.57093 13.8213 7.56589C13.8279 7.56086 13.833 7.55432 13.8365 7.54684C13.84 7.53935 13.8416 7.53113 13.8413 7.52288L13.913 7.07686Z" fill="#FB6439"/>
<path d="M12.308 7.29218L12.7182 7.30243C12.7951 7.30243 12.831 7.34857 12.8207 7.42547L12.7644 7.77408C12.7489 7.85612 12.7028 7.88687 12.6208 7.87662L12.2261 7.80997L12.308 7.29218Z" fill="#FEBD3D"/>
<path d="M15.4412 7.3537L15.959 7.46648L15.7539 8.49182C15.5643 8.4662 15.4104 8.44056 15.2925 8.40468C15.272 8.40468 15.2618 8.38416 15.2515 8.35341L15.4412 7.3537Z" fill="#FB6439"/>
<path d="M14.3337 7.68181L14.7439 7.75358C14.7588 7.75625 14.7731 7.76223 14.7855 7.77111C14.798 7.77997 14.8084 7.7916 14.8158 7.80495C14.8308 7.82753 14.8362 7.8551 14.831 7.88175L14.7798 8.15347C14.7695 8.2355 14.8002 8.28677 14.8771 8.30727C14.9951 8.33291 15.1078 8.35854 15.2053 8.39443C15.2206 8.39443 15.236 8.39443 15.2412 8.37905L15.2513 8.35341C15.2616 8.38417 15.2719 8.40468 15.2872 8.40468C15.4103 8.44057 15.5641 8.4662 15.7537 8.48671L15.5692 9.45053C15.5743 9.48641 15.5693 9.51205 15.5384 9.52743L15.0976 9.44028C15.0719 9.43002 15.0566 9.44028 15.0463 9.47104L14.9642 9.90682C14.9642 9.93242 14.9438 9.94271 14.9182 9.93756L7.90989 8.5636C7.89745 8.56084 7.88648 8.55353 7.87913 8.5431C7.87132 8.53285 7.86766 8.52004 7.86888 8.50721L7.95604 8.02018L11.4576 8.70715C11.4672 8.70898 11.4771 8.70802 11.4862 8.7044C11.4953 8.70076 11.5032 8.6946 11.5089 8.68665C11.5138 8.68068 11.5173 8.67367 11.5191 8.66614L11.5807 8.28677C11.584 8.26641 11.595 8.24811 11.6114 8.2355C11.6204 8.22959 11.6304 8.22562 11.6411 8.22386C11.6516 8.22209 11.6625 8.22256 11.6729 8.22525L14.5593 8.78919C14.6208 8.79944 14.6515 8.77381 14.6618 8.71228L14.713 8.3893C14.713 8.36366 14.713 8.33803 14.6977 8.31239C14.683 8.29155 14.6611 8.27693 14.6362 8.27139L14.2619 8.18936L14.3337 7.68181Z" fill="#FEBD3D"/>
<path d="M7.48925 7.93814L7.95579 8.02017L7.86863 8.5072C7.86863 8.51745 7.86863 8.53284 7.87888 8.54309C7.88623 8.55352 7.8972 8.56083 7.90964 8.56359L14.9179 9.93755C14.9435 9.93755 14.959 9.93241 14.9691 9.90681L15.0512 9.47103C15.0512 9.4454 15.0716 9.43001 15.1024 9.44027L15.5382 9.52742C15.4715 9.71198 15.4357 9.90167 15.4357 10.0914L15.3639 10.4604C15.3663 10.4696 15.3662 10.4792 15.3634 10.4883C15.3608 10.4974 15.3555 10.5054 15.3486 10.5117C15.3428 10.5198 15.3349 10.5259 15.3258 10.5295C15.3167 10.5332 15.3068 10.5341 15.2972 10.5322L14.3232 10.3272L8.85809 9.26083L7.85325 9.06089L7.59691 9.01987C7.5764 9.01475 7.56615 9.01987 7.56615 9.04039L7.58666 11.1731C7.52513 11.3526 7.5354 11.5114 7.59691 11.655L7.3252 11.6653C7.35083 10.9475 7.35596 10.2298 7.35083 9.51204C7.35083 9.34286 7.38159 9.15317 7.35083 8.97887C7.33393 8.90133 7.33218 8.82124 7.3457 8.74303C7.38672 8.54309 7.4226 8.3534 7.44824 8.16372C7.45911 8.10764 7.45737 8.04985 7.44311 7.99453C7.43799 7.97915 7.43799 7.96378 7.44311 7.95864C7.45484 7.94846 7.46895 7.94142 7.48413 7.93814H7.48925Z" fill="#070324"/>
<path d="M7.84788 9.0609C7.90429 9.15318 7.82226 9.19932 7.82738 9.28648C7.83462 9.79913 7.83462 10.3119 7.82738 10.8245L7.81713 10.8399C7.81288 10.9424 7.81117 11.0449 7.812 11.1474C7.82226 11.1629 7.83251 11.1629 7.84276 11.1577L7.85301 11.168L7.58642 11.1732L7.56592 9.0404C7.56592 9.02502 7.57617 9.01477 7.59667 9.01989L7.85301 9.0609H7.84788Z" fill="#E35E74"/>
<path d="M7.84814 9.06091L8.85811 9.26084C8.7812 9.39927 8.75558 9.58896 8.7607 9.84017C8.7607 9.87094 8.75045 9.90168 8.72994 9.92728C8.71157 9.95336 8.68415 9.97166 8.65304 9.9786C8.60176 9.98374 8.57101 10.0145 8.56588 10.0657C8.53322 10.3364 8.5315 10.6099 8.56076 10.8809C8.56588 10.9321 8.54025 10.9578 8.48898 10.9629C8.35055 10.9629 8.20189 10.9475 8.06859 10.9783L7.88916 11.0245C7.8796 11.0255 7.87043 11.029 7.86242 11.0343C7.8544 11.0397 7.84776 11.0468 7.84302 11.0552C7.82763 11.086 7.82763 11.1167 7.84302 11.1577C7.83276 11.1629 7.82251 11.1577 7.81225 11.1526L7.80713 11.127C7.80833 11.0312 7.81175 10.9355 7.81738 10.8399L7.82763 10.8245C7.83487 10.3119 7.83487 9.79913 7.82763 9.28648C7.82763 9.19932 7.90454 9.15318 7.85327 9.06091H7.84814Z" fill="#E6704E"/>
<path d="M16.1837 9.14805C16.2043 9.30185 16.2351 9.4454 16.2351 9.5992V10.845C16.2351 10.8911 16.2555 10.9219 16.2914 10.9373C16.4863 11.0142 16.6247 11.1629 16.6964 11.3833C16.6964 11.6806 16.7119 11.9831 16.7375 12.2907C16.7529 12.4958 16.7478 12.7009 16.717 12.9059C16.7648 13.1594 16.7752 13.4185 16.7478 13.675C16.7067 14.3004 16.6964 14.9259 16.7272 15.5514C16.7323 16.0179 16.676 16.469 16.5426 16.8945C16.5017 17.0381 16.4657 17.1816 16.4401 17.3252C16.4127 17.5011 16.3645 17.6733 16.2965 17.8379C16.2196 18.0224 16.2095 18.2172 16.1171 18.4018C16.035 18.5709 15.9787 18.7402 15.8762 18.9093C15.8147 19.0016 15.7634 19.0991 15.7224 19.2067C15.7135 19.2242 15.7013 19.2398 15.6865 19.2528L15.4148 19.5091L15.1584 19.7091C15.0918 19.7603 15.0302 19.8168 14.9739 19.8783C14.9534 19.9039 14.9072 19.9245 14.8355 19.9296C14.8265 19.9307 14.818 19.934 14.8108 19.9394C14.8036 19.9448 14.798 19.9521 14.7944 19.9603C14.789 19.9731 14.7807 19.9845 14.7699 19.9935C14.7593 20.0023 14.7466 20.0086 14.7329 20.0115C14.7022 20.0167 14.6816 20.0064 14.6816 19.9705C14.6816 19.9346 14.6868 19.8987 14.7073 19.8731L14.7585 19.8373C14.7684 19.83 14.7765 19.8206 14.7827 19.8101C14.7888 19.7996 14.7929 19.7878 14.7944 19.7758C14.9431 19.6322 15.0867 19.4835 15.2302 19.3297C15.343 19.2169 15.4353 19.0888 15.5122 18.9452C15.7378 18.5197 15.9531 18.0994 16.0402 17.6174C16.0864 17.4738 16.1428 17.3354 16.2095 17.2072C16.2402 17.156 16.2607 17.0791 16.2709 16.9714C16.312 16.6792 16.4248 16.4024 16.4401 16.1101C16.4607 15.8026 16.4863 15.4949 16.4708 15.1874V14.8951C16.4914 14.6695 16.4811 14.403 16.4555 14.1005C16.4489 14.0414 16.4316 13.9841 16.4042 13.9313C16.3964 13.9154 16.393 13.8977 16.3939 13.88L16.4145 13.598L16.4452 13.1264C16.4863 12.5676 16.4914 12.0498 16.4607 11.5628C16.4547 11.4996 16.4316 11.4394 16.3939 11.3885C16.3939 11.3423 16.3939 11.3167 16.3735 11.3064C16.1736 11.1936 16.035 11.2192 15.9531 11.3935C15.9121 11.4807 15.9224 11.5628 15.8762 11.6447C15.8454 11.7063 15.8197 11.8344 15.8147 11.9062C15.789 12.2139 15.7531 12.5163 15.7634 12.8188C15.7737 13.029 15.789 13.2033 15.8916 13.3417C15.9172 13.3776 15.9172 13.4135 15.8813 13.4442C15.8659 13.4648 15.8506 13.4648 15.83 13.4545C15.7326 13.3879 15.5737 13.3724 15.5481 13.5314L15.4969 14.2337C15.4969 14.2696 15.4814 14.2953 15.4455 14.3106C15.4351 14.3164 15.4233 14.3189 15.4114 14.3179C15.3996 14.317 15.3884 14.3127 15.3789 14.3055C15.261 14.2081 15.1226 14.1518 15.0405 14.0235C14.9843 13.9422 14.9034 13.8812 14.8099 13.8492C14.7913 13.8415 14.7766 13.8268 14.7688 13.8082C14.7329 13.7416 14.6663 13.7057 14.6356 13.6544C14.6157 13.6181 14.5985 13.5805 14.5843 13.5417C14.5484 13.3109 14.5022 12.7931 14.6765 12.6394C14.6963 12.6216 14.7106 12.5983 14.7175 12.5727L14.7329 12.4958C14.7841 12.2036 14.7996 11.9113 14.774 11.6243L14.7534 11.2705C14.7533 11.2607 14.7503 11.2511 14.7448 11.2429C14.7394 11.2348 14.7316 11.2283 14.7227 11.2243L14.5638 11.1629L14.5125 10.7732C14.5119 10.7648 14.5092 10.7566 14.5048 10.7494C14.5003 10.7424 14.4942 10.7364 14.4869 10.7322C14.4356 10.7066 14.3844 10.7116 14.3279 10.7475L14.3228 10.3272L15.2968 10.5322C15.3059 10.5347 15.3156 10.5345 15.3246 10.5318C15.3337 10.5291 15.3418 10.524 15.3482 10.5169C15.3551 10.5106 15.3604 10.5024 15.363 10.4934C15.3658 10.4844 15.3659 10.4748 15.3635 10.4656L15.7378 10.4604C15.7478 10.4611 15.7579 10.4592 15.7669 10.4547C15.7759 10.4501 15.7836 10.4433 15.789 10.4348C15.7935 10.4272 15.7963 10.4187 15.7972 10.4098C15.7981 10.401 15.797 10.392 15.7941 10.3836C15.7843 10.3463 15.7669 10.3114 15.7429 10.281C15.7377 10.272 15.7302 10.2644 15.7213 10.259C15.7123 10.2536 15.702 10.2506 15.6916 10.2503C15.6386 10.2491 15.5868 10.2337 15.5418 10.2058C15.4967 10.1778 15.4599 10.1383 15.4353 10.0914C15.4353 9.90167 15.4711 9.71198 15.5378 9.52743C15.5635 9.51204 15.5737 9.48641 15.5685 9.45052C15.6095 9.49666 15.7019 9.52743 15.8403 9.54281C15.9736 9.55306 16.0249 9.53768 16.0761 9.39926L16.1837 9.14292V9.14805Z" fill="#241618"/>
<path d="M8.85792 9.26084L14.323 10.3272V10.7475L14.3178 11.0705C14.3178 11.0911 14.3178 11.1064 14.3384 11.1218C14.3743 11.1732 14.4255 11.2039 14.482 11.2346C14.5332 11.2602 14.5486 11.3064 14.564 11.3576C14.5691 11.3885 14.5896 11.4089 14.6255 11.4244C14.7126 11.4551 14.7639 11.5217 14.7792 11.6294C14.8033 11.9452 14.7826 12.2627 14.7177 12.5728C14.7108 12.5984 14.6966 12.6216 14.6767 12.6394C14.5024 12.7931 14.5486 13.3058 14.5793 13.5417C14.567 13.6027 14.5688 13.6659 14.5845 13.7262C14.6049 13.8031 14.6101 13.8595 14.6101 13.9006C14.6101 13.9569 14.6204 14.0133 14.6307 14.0749C14.646 14.1466 14.6819 14.2337 14.7229 14.3312C14.8254 14.5363 14.7895 14.8541 14.7895 15.0848C14.7895 15.2078 14.7742 15.3411 14.7536 15.4796L14.6819 15.8845C14.6767 15.9307 14.6563 15.9922 14.6307 16.0794C14.6101 16.1306 14.5948 16.1973 14.5742 16.2793C14.4665 16.7202 14.2769 17.1457 14.0103 17.5508L13.5642 18.0326C13.4054 18.1762 13.2567 18.33 13.1131 18.4941C13.0773 18.53 13.0358 18.5594 12.99 18.5812C12.8875 18.6325 12.8516 18.6837 12.785 18.7606C12.7721 18.7776 12.7541 18.7902 12.7338 18.7965C12.5902 18.8478 12.4415 18.899 12.2929 18.9657C12.2314 18.9965 12.2005 19.0426 12.1287 19.0683C12.0724 19.0836 12.0262 19.1092 11.9802 19.1503C11.9391 19.1861 11.893 19.222 11.8416 19.2478C11.6981 19.3246 11.5495 19.4015 11.406 19.499C11.3802 19.5091 11.3854 19.5194 11.406 19.5246H11.4572C11.0368 19.6066 10.6523 19.6066 10.2935 19.5246C10.1264 19.4858 9.96905 19.413 9.83146 19.3107C9.69384 19.2083 9.57883 19.0787 9.49364 18.9298C9.47313 18.7862 9.38085 18.4838 9.50902 18.3915C9.6013 18.33 9.68846 18.2582 9.77048 18.1865C9.81149 18.1557 9.87299 18.1198 9.95505 18.0839C9.92503 18.1735 9.92323 18.2702 9.94991 18.3607C9.97551 18.4633 10.032 18.53 10.1037 18.5505C10.3601 18.6325 10.4626 18.4018 10.6369 18.289C10.6676 18.2634 10.6882 18.2378 10.7087 18.2019C10.7291 18.1506 10.7035 18.1095 10.6318 18.0839L11.042 17.9866C11.0561 17.9832 11.0692 17.9769 11.0807 17.968C11.0922 17.9592 11.1016 17.948 11.1086 17.9352L11.1189 17.925C11.1207 17.9218 11.1215 17.9184 11.1215 17.9148C11.1215 17.9112 11.1207 17.9076 11.1189 17.9045H11.1137L11.1034 17.8994L10.1242 17.8379C10.0217 17.8327 9.97048 17.7764 9.98065 17.6737V17.52C9.99094 17.4175 10.0423 17.3662 10.1396 17.361C10.4164 17.3457 10.7035 17.3149 11.0112 17.2688C11.0513 17.2606 11.0896 17.2449 11.1239 17.2226C11.1649 17.2022 11.206 17.1816 11.247 17.1713C11.4161 17.1201 11.5854 17.0688 11.7597 17.0381C11.8315 17.0176 11.8674 16.9663 11.8622 16.8842C11.8597 16.8689 11.8513 16.855 11.839 16.8455C11.8266 16.836 11.8111 16.8315 11.7956 16.833C11.6213 16.8433 11.4879 16.9048 11.406 17.0125C11.3959 17.0259 11.3813 17.035 11.3649 17.0381C11.2214 17.0637 11.0931 17.0945 10.9445 17.0894C10.765 17.0894 10.5856 17.074 10.4113 17.0586C10.3395 17.0484 10.2677 17.0228 10.196 17.0073C10.1601 16.997 10.1345 16.9817 10.1191 16.9611C10.0986 16.9304 10.0935 16.8997 10.1089 16.8586C10.1121 16.8506 10.1179 16.8438 10.1252 16.8391C10.1326 16.8346 10.1412 16.8324 10.1499 16.833H10.3139C10.642 16.8586 10.9803 16.8279 11.3136 16.7305C11.6239 16.6412 11.9245 16.5209 12.2108 16.3716C12.3902 16.2332 12.5697 16.0794 12.744 15.9153C12.867 15.8076 12.8875 15.6795 12.8157 15.5411C12.7102 15.3283 12.5627 15.1392 12.3821 14.985C12.2015 14.8308 11.9915 14.7147 11.7648 14.6439C11.6622 14.5516 11.5648 14.4593 11.4777 14.3568C11.4161 14.2902 11.406 14.2184 11.3649 14.1415C11.3552 14.1204 11.3402 14.1023 11.3213 14.0887C11.3024 14.0752 11.2804 14.067 11.2573 14.0646H11.2162C11.207 14.0622 11.1975 14.0623 11.1884 14.0651C11.1794 14.0678 11.1713 14.073 11.1649 14.08C11.1601 14.0875 11.157 14.096 11.1562 14.105C11.1554 14.1139 11.1566 14.1228 11.1598 14.1312C11.1957 14.2748 11.2008 14.4132 11.1752 14.5516C11.1723 14.575 11.1615 14.5968 11.1445 14.6132L10.6318 15.1002C10.3652 15.136 10.1037 15.1412 9.84226 15.1053C9.79546 15.0632 9.7359 15.0378 9.67307 15.0335C9.65493 15.0331 9.63723 15.0278 9.6218 15.0181C9.58592 14.9976 9.57053 14.9822 9.52952 14.972C9.43501 14.9521 9.34477 14.9157 9.26293 14.8644C9.25404 14.8594 9.24685 14.8518 9.24228 14.8426C9.23772 14.8335 9.23598 14.8232 9.2373 14.8131L9.27832 14.5055C9.27832 14.4798 9.2937 14.4593 9.31932 14.449C9.47826 14.3465 9.48339 14.2953 9.52439 14.1209C9.53978 14.08 9.55516 14.0338 9.5808 13.9928C9.68846 13.8031 9.7346 13.6032 9.7346 13.393C9.7267 13.2342 9.7267 13.0751 9.7346 12.9162C9.7326 12.9096 9.72931 12.9035 9.72491 12.8982C9.7205 12.893 9.71507 12.8886 9.70896 12.8854C9.70219 12.884 9.69522 12.884 9.68846 12.8854C9.64037 12.888 9.5933 12.9002 9.55003 12.9213C9.52358 12.8279 9.51832 12.7298 9.53466 12.6342C9.53978 12.6137 9.55516 12.5984 9.57566 12.5984L9.86785 12.5778C9.87347 12.5778 9.87885 12.576 9.88328 12.5728L9.88842 12.5625V12.5522L9.82687 11.8652C9.8268 11.8605 9.82768 11.8557 9.82943 11.8514C9.83119 11.847 9.83381 11.8429 9.83713 11.8396C9.84266 11.8341 9.84987 11.8304 9.85763 11.8293L10.5344 11.7729C10.56 11.7729 10.5703 11.7832 10.5703 11.8037L10.6318 12.4753C10.6324 12.4858 10.6361 12.4957 10.6425 12.504C10.6489 12.5122 10.6577 12.5183 10.6676 12.5214H10.6882C10.7805 12.501 10.8727 12.4958 10.9547 12.501C10.9803 12.506 10.9906 12.5163 10.9958 12.5419C11.0009 12.5881 10.9958 12.6291 10.9753 12.665C10.9137 12.706 10.8574 12.7163 10.8009 12.7009C10.76 12.6854 10.7343 12.7009 10.7241 12.7522L10.719 12.7829C10.7167 12.7937 10.7167 12.8048 10.7188 12.8156C10.721 12.8265 10.7253 12.8366 10.7315 12.8457C10.7377 12.8548 10.7458 12.8626 10.7551 12.8686C10.7643 12.8744 10.7747 12.8785 10.7856 12.8803L10.965 12.9059H11.3701C11.3957 12.9059 11.411 12.9213 11.4161 12.9521L11.4264 13.1571C11.4259 13.1685 11.4292 13.1796 11.4356 13.1889C11.4421 13.1981 11.4515 13.2051 11.4623 13.2084C12.0598 13.1301 12.6601 13.0736 13.2618 13.0393C13.268 13.0321 13.2717 13.0231 13.2721 13.0136L13.2515 12.7163C13.2508 12.7091 13.2516 12.7018 13.2539 12.695C13.2561 12.6882 13.2598 12.682 13.2646 12.6766C13.2695 12.6713 13.2753 12.6671 13.2819 12.6641C13.2885 12.6613 13.2957 12.6598 13.3028 12.6598L13.5642 12.6394C13.5796 12.6369 13.5935 12.6285 13.6031 12.6162C13.6125 12.6037 13.6171 12.5883 13.6155 12.5728L13.5951 12.3061C13.5951 12.2958 13.5951 12.2857 13.6052 12.2805C13.61 12.273 13.6173 12.2675 13.6258 12.2651L13.9129 12.2292C13.9228 12.228 13.9321 12.2231 13.9386 12.2156C13.9452 12.208 13.9488 12.1982 13.9488 12.1882L13.9231 11.8909C13.9228 11.8816 13.925 11.8724 13.9295 11.8642C13.9341 11.8561 13.9407 11.8494 13.9488 11.8447H13.9693L14.2564 11.8344L14.2718 11.8293C14.2792 11.8246 14.2847 11.8173 14.2871 11.8088V11.7934L14.241 11.1474C14.2394 11.1277 14.2302 11.1094 14.2153 11.0962C14.2014 11.0833 14.1831 11.0759 14.1641 11.0757L13.6001 11.127C13.4549 11.1075 13.3073 11.1144 13.1644 11.1474V11.1526H13.1695L13.3746 11.1577C12.662 11.209 11.9544 11.2244 11.2418 11.209C11.1772 11.2072 11.1129 11.2177 11.0521 11.2398C10.9702 11.2705 10.9137 11.291 10.8727 11.2961C10.6472 11.3423 10.4113 11.3986 10.1807 11.4244L9.05786 11.5166L8.98609 11.4089C8.97228 11.3878 8.9668 11.3622 8.97072 11.3372C8.97485 11.3168 8.97485 11.2959 8.97072 11.2757C8.96045 11.2449 8.94508 11.2295 8.91431 11.2295H8.66824L8.2786 11.1988L7.84795 11.168L7.8377 11.1577C7.82233 11.1167 7.82233 11.086 7.8377 11.0552C7.84245 11.0468 7.8491 11.0397 7.85712 11.0343C7.86513 11.029 7.87428 11.0255 7.88384 11.0245L8.06327 10.9783C8.19657 10.9424 8.34525 10.9629 8.48367 10.9629C8.53494 10.9629 8.56057 10.9321 8.55544 10.8809C8.52619 10.6098 8.5279 10.3364 8.56057 10.0657C8.56571 10.0145 8.59646 9.98374 8.64773 9.9786C8.67865 9.97118 8.70593 9.953 8.72463 9.92728C8.74495 9.90287 8.75586 9.87201 8.75539 9.84017C8.74513 9.58896 8.7759 9.39927 8.85279 9.26084H8.85792Z" fill="#FB8A4E"/>
<path d="M15.4355 10.0914C15.4869 10.1939 15.5791 10.2451 15.6919 10.2503C15.7175 10.2503 15.7329 10.2605 15.7432 10.281C15.7688 10.3119 15.7842 10.3478 15.7944 10.3836C15.7966 10.3924 15.7968 10.4015 15.795 10.4103C15.7932 10.4193 15.7895 10.4275 15.7842 10.4348C15.7792 10.4426 15.7723 10.449 15.7643 10.4534C15.7563 10.4579 15.7473 10.4603 15.7381 10.4604H15.3638L15.4304 10.0914H15.4355Z" fill="#743940"/>
<path d="M12.0877 11.2039C11.6672 11.1987 11.2314 11.1936 10.8008 11.2192C10.7886 11.2196 10.7764 11.2175 10.7649 11.2131C10.7535 11.2087 10.743 11.2021 10.7341 11.1936C10.7163 11.1778 10.7053 11.1558 10.7034 11.1321C10.6982 11.0193 10.6316 10.9475 10.5137 10.9168C10.4919 10.9103 10.4735 10.8956 10.4625 10.8758C10.4558 10.8642 10.4518 10.8512 10.4509 10.8378C10.45 10.8246 10.4522 10.8112 10.4573 10.7988C10.524 10.645 10.8983 10.7015 11.0418 10.7168C11.1289 10.7271 11.1853 10.7732 11.2058 10.8655C11.2101 10.88 11.2188 10.8928 11.2308 10.902C11.2428 10.9112 11.2574 10.9163 11.2724 10.9168L12.0415 10.9424C12.1081 10.9424 12.1543 10.9783 12.1696 11.0501L12.1799 11.0859C12.2004 11.168 12.1696 11.209 12.0877 11.2039Z" fill="#FCA471"/>
<path d="M14.565 11.1629C14.5547 11.2449 14.5752 11.332 14.6265 11.4192C14.5906 11.4089 14.5752 11.3885 14.565 11.3576C14.5496 11.3064 14.5393 11.2602 14.483 11.2346C14.4278 11.2074 14.379 11.169 14.3394 11.1218C14.3265 11.1078 14.3191 11.0896 14.3188 11.0705L14.3291 10.7475C14.3906 10.7116 14.4419 10.7066 14.483 10.7322C14.4922 10.735 14.5004 10.7403 14.5068 10.7475C14.5131 10.7548 14.5173 10.7637 14.5189 10.7732L14.565 11.1629Z" fill="#CD5540"/>
<path d="M15.5892 10.9424C15.6405 10.9886 15.7224 10.9834 15.7634 10.9321C15.7993 10.8809 15.7839 10.804 15.7224 10.7578C15.6609 10.7066 15.584 10.7168 15.543 10.7681C15.5071 10.8193 15.5225 10.8962 15.584 10.9424H15.5892Z" fill="#B39976"/>
<path d="M10.9651 12.9059C10.9344 12.8854 10.919 12.8547 10.9293 12.8188L10.9805 12.665C10.9979 12.6265 11.0032 12.5835 10.9959 12.5419C10.9959 12.5163 10.9805 12.506 10.9549 12.501C10.8728 12.4958 10.7806 12.501 10.6883 12.5214C10.6812 12.5231 10.6736 12.5231 10.6666 12.5213C10.6594 12.5195 10.6528 12.5161 10.6473 12.5111C10.6423 12.5067 10.6382 12.5011 10.6356 12.495C10.633 12.4888 10.6316 12.4821 10.6319 12.4753L10.5704 11.8088C10.5704 11.7832 10.5601 11.7678 10.5345 11.773L9.85774 11.8241C9.85342 11.8251 9.84936 11.827 9.84581 11.8297C9.84227 11.8323 9.83936 11.8358 9.83724 11.8396L9.82699 11.8499V11.8652L9.88853 12.5522C9.88865 12.5582 9.88662 12.564 9.88291 12.5687C9.8792 12.5735 9.87382 12.5766 9.86796 12.5778L9.57578 12.5984C9.55527 12.5984 9.53989 12.6137 9.53477 12.6342C9.51939 12.7316 9.52451 12.824 9.55014 12.9213C9.55014 12.9725 9.53477 12.9931 9.49375 12.9983L9.21691 13.0136C9.21217 13.0136 9.20747 13.0144 9.20307 13.0162C9.19866 13.0179 9.19466 13.0205 9.19127 13.0239V13.0393L9.18615 13.0546L9.21177 13.3314C9.21691 13.3724 9.20152 13.393 9.16051 13.3982L7.81218 13.516L7.57123 13.5417C7.50986 13.5449 7.44855 13.5345 7.3918 13.5108C7.38099 13.5075 7.37162 13.5007 7.36512 13.4913C7.35862 13.4821 7.35538 13.4709 7.35591 13.4596L7.34564 13.2289C7.34436 13.2136 7.33732 13.1991 7.32592 13.1887C7.31452 13.1783 7.29959 13.1724 7.28413 13.1725L7.01754 13.1879C7.00472 13.1892 6.99191 13.1855 6.98165 13.1777C6.97594 13.1734 6.97115 13.168 6.96762 13.1619C6.96409 13.1557 6.96189 13.1489 6.96115 13.1418L6.94064 12.9316C6.93552 12.9008 6.92013 12.8803 6.89963 12.8599C6.87988 12.8424 6.85418 12.8332 6.82785 12.8341L6.62278 12.8496L6.57664 12.8341C6.56907 12.8278 6.5629 12.82 6.55849 12.8112C6.55407 12.8024 6.55154 12.7927 6.55101 12.7829L6.53051 12.5522C6.52845 12.5381 6.52113 12.5253 6.50999 12.5163C6.50454 12.5111 6.49809 12.5071 6.49104 12.5044C6.484 12.5018 6.4765 12.5006 6.46898 12.501L6.23828 12.506C6.2199 12.5072 6.20171 12.5018 6.18701 12.4907C6.17068 12.478 6.15968 12.4597 6.15625 12.4394L6.10498 11.8447C6.10498 11.8293 6.10498 11.814 6.12036 11.8088C6.16695 11.7814 6.22012 11.7672 6.27416 11.7678L7.32514 11.6653L7.59685 11.655L8.04802 11.6038L8.96056 11.491L9.06311 11.5166L10.1808 11.4244C10.4166 11.3986 10.6422 11.3423 10.8728 11.2961C10.9138 11.291 10.9754 11.2705 11.0522 11.2449C11.1126 11.221 11.177 11.2088 11.242 11.209C11.9546 11.2244 12.6621 11.209 13.3696 11.1577L13.6054 11.127L14.1591 11.0757C14.1691 11.0751 14.1793 11.0763 14.1889 11.0795C14.1985 11.0828 14.2074 11.0879 14.215 11.0946C14.2226 11.1013 14.2288 11.1093 14.2334 11.1184C14.2378 11.1275 14.2404 11.1374 14.2412 11.1474L14.2924 11.7934C14.292 11.803 14.2884 11.8119 14.2821 11.8191C14.2792 11.8233 14.2763 11.8267 14.2719 11.8293C14.2675 11.832 14.2616 11.8338 14.2565 11.8344L13.9694 11.8447C13.9627 11.8445 13.956 11.8458 13.9498 11.8484C13.9435 11.8511 13.938 11.855 13.9335 11.86C13.9264 11.8688 13.9228 11.8797 13.9232 11.8909L13.9489 12.1882C13.9489 12.1982 13.9453 12.208 13.9388 12.2156C13.9322 12.2231 13.923 12.228 13.913 12.2292L13.6259 12.2651C13.6174 12.2675 13.6101 12.273 13.6054 12.2805C13.602 12.2839 13.5995 12.2879 13.5977 12.2922C13.5959 12.2967 13.5951 12.3013 13.5952 12.3061L13.6208 12.5728C13.6214 12.584 13.6188 12.5952 13.6134 12.6053C13.6079 12.6152 13.5999 12.6235 13.59 12.6291C13.5824 12.6344 13.5735 12.6379 13.5643 12.6394L13.303 12.6598C13.2916 12.6594 13.2805 12.6626 13.2711 12.6691C13.2619 12.6755 13.255 12.685 13.2516 12.6957C13.2503 12.7025 13.2503 12.7095 13.2516 12.7163L13.2722 13.0136C13.2722 13.0209 13.2703 13.028 13.2667 13.0344C13.2631 13.0406 13.258 13.0459 13.2516 13.0495H13.2363C12.6432 13.0812 12.0516 13.1341 11.4624 13.2084C11.4517 13.2051 11.4422 13.1981 11.4357 13.1889C11.4293 13.1796 11.4261 13.1685 11.4265 13.1571L11.4162 12.9521C11.4162 12.9213 11.3958 12.9059 11.3702 12.9059H10.9651Z" fill="#010000"/>
<path d="M13.6056 11.127L13.3698 11.1577H13.1698L13.1644 11.1555L13.1621 11.1501L13.1644 11.1446L13.1698 11.1423C13.3083 11.1116 13.4517 11.1064 13.6056 11.127Z" fill="#CD5540"/>
<path d="M14.5644 11.1629L14.7233 11.2244C14.7331 11.2287 14.7413 11.2358 14.7469 11.2451C14.7524 11.2543 14.755 11.2649 14.754 11.2757L14.7746 11.6243C14.7643 11.5217 14.713 11.4551 14.6207 11.4192C14.577 11.3412 14.5573 11.252 14.5644 11.1629Z" fill="#743940"/>
<path d="M7.59219 11.1782L7.84852 11.168L8.28429 11.1988C8.18176 11.1833 8.11511 11.1988 8.06897 11.2346C8.06086 11.2405 8.05428 11.2482 8.04982 11.2571C8.04536 11.266 8.04313 11.2759 8.04333 11.2858L8.04847 11.5987L7.59731 11.655C7.53066 11.5115 7.52553 11.3475 7.58705 11.1732L7.59219 11.1782Z" fill="#4F0E4F"/>
<path d="M8.28368 11.1988L8.6733 11.2346C8.70919 11.2449 8.73996 11.2602 8.76559 11.2858C8.76759 11.2909 8.76759 11.2964 8.76559 11.3013V11.3116L8.76046 11.3167L8.72971 11.332C8.72347 11.3356 8.71639 11.3375 8.70919 11.3375C8.702 11.3375 8.69492 11.3356 8.68869 11.332C8.66055 11.3142 8.62921 11.302 8.59641 11.2961C8.57077 11.2961 8.55539 11.3064 8.56052 11.332V11.3576C8.56565 11.3782 8.58103 11.3935 8.60154 11.3986L8.9604 11.491L8.04785 11.5987V11.2858C8.04785 11.2654 8.04785 11.25 8.06835 11.2346C8.11449 11.1936 8.18627 11.1833 8.28368 11.1988Z" fill="#241618"/>
<path d="M8.6684 11.2295H8.91447C8.94524 11.2295 8.96574 11.2449 8.96574 11.2808C8.97033 11.2974 8.97206 11.3148 8.97088 11.332C8.97088 11.3628 8.97088 11.3833 8.98625 11.4089L9.05802 11.5166L8.96061 11.491L8.60175 11.3986C8.58124 11.3986 8.56585 11.3782 8.56585 11.3576V11.332C8.5556 11.3064 8.56587 11.291 8.59662 11.2961C8.62226 11.2961 8.64789 11.3116 8.6889 11.332H8.72992L8.76067 11.3167C8.76347 11.315 8.76585 11.3129 8.76763 11.3102C8.76942 11.3075 8.77054 11.3045 8.77092 11.3013C8.77201 11.2977 8.77211 11.294 8.77121 11.2903C8.7703 11.2867 8.76844 11.2835 8.7658 11.2808C8.73931 11.2569 8.70776 11.2394 8.67352 11.2295H8.6684ZM16.3943 11.3833C16.3573 11.3819 16.3216 11.3693 16.2918 11.3474L16.2047 11.2808C16.1431 11.2551 16.0868 11.2757 16.0509 11.332C15.9842 11.4345 15.9484 11.5628 15.9381 11.7268C15.9296 11.7885 15.9086 11.8477 15.8766 11.9011C15.857 11.9392 15.8464 11.9813 15.8458 12.0242C15.8443 12.1439 15.8476 12.2636 15.8561 12.383C15.8586 12.3881 15.8623 12.3925 15.8668 12.3959C15.8712 12.3995 15.8762 12.4021 15.8817 12.4035H15.897C15.9535 12.3933 15.9842 12.3574 15.9894 12.301C15.9894 12.2702 15.9997 12.2498 16.015 12.2241C16.0457 12.1933 16.0868 12.2036 16.1431 12.2651C16.1585 12.2805 16.1637 12.2958 16.1688 12.3164C16.2332 12.5859 16.2761 12.8602 16.2969 13.1367C16.3044 13.1483 16.3157 13.1568 16.329 13.1605C16.3422 13.1643 16.3563 13.1631 16.3687 13.1571L16.4456 13.1264L16.4149 13.598L16.3534 13.7416C16.3472 13.7552 16.3363 13.7662 16.3225 13.7723C16.3069 13.7794 16.2937 13.791 16.2845 13.8056C16.2754 13.8202 16.2709 13.8372 16.2713 13.8544C16.2713 14.0902 16.2047 14.2799 16.0663 14.4183C15.9022 14.5926 15.7842 14.9003 15.7792 15.1207L15.7433 16.0076C15.733 16.1922 15.7074 16.3972 15.6407 16.5767L15.4254 17.2278C15.4069 17.2863 15.3829 17.343 15.3537 17.3969C15.2768 17.5353 15.2409 17.6789 15.1588 17.8123C15.0768 17.9507 15.0409 18.0994 15.046 18.2634C15.0463 18.2733 15.0487 18.283 15.0531 18.292C15.0575 18.3008 15.0639 18.3086 15.0716 18.3147C15.0804 18.3213 15.0904 18.3256 15.1012 18.3274C15.1118 18.3292 15.1228 18.3283 15.1332 18.3249C15.2768 18.2737 15.4664 17.925 15.5023 17.7917C15.5587 17.6071 15.692 17.5097 15.733 17.3149C15.7519 17.2287 15.7988 17.1512 15.8663 17.0945C15.8786 17.0852 15.8929 17.079 15.908 17.0763C15.9232 17.0736 15.9388 17.0745 15.9535 17.0791C15.9683 17.0844 15.9817 17.0932 15.9925 17.1048C16.0031 17.1164 16.0109 17.1305 16.015 17.1457C16.0509 17.2944 16.0612 17.4534 16.0406 17.6174C15.9366 18.0869 15.7584 18.5369 15.5126 18.9504C15.4356 19.0888 15.3434 19.2169 15.2306 19.3297C15.0871 19.4835 14.9435 19.6322 14.7948 19.7758C14.5744 19.9296 14.4462 20.0833 14.1591 20.1858C13.954 20.2526 13.7746 20.3756 13.5644 20.4422C13.0159 20.6319 12.4878 20.837 11.9239 20.7806C11.8278 20.77 11.7352 20.7384 11.6528 20.6878C11.5704 20.6373 11.5002 20.5692 11.447 20.4884C11.3958 20.4115 11.3856 20.2782 11.5086 20.2679L11.7957 20.2372C11.815 20.2355 11.8335 20.2283 11.849 20.2165C11.8644 20.2047 11.8761 20.1887 11.8828 20.1705V20.1346C11.8828 20.0936 11.8572 20.0732 11.8162 20.0782C11.647 20.0782 11.5291 20.0526 11.4522 19.9911C11.4359 19.9777 11.4235 19.9601 11.4163 19.9403C11.4091 19.9205 11.4073 19.8991 11.4112 19.8783C11.415 19.8569 11.4247 19.8369 11.4391 19.8205C11.4536 19.8042 11.4724 19.7923 11.4932 19.7861C11.6316 19.7502 11.765 19.7245 11.8828 19.6425C12.0212 19.545 12.1802 19.5143 12.3135 19.4118C12.4467 19.3041 12.5954 19.1554 12.6979 19.0632L13.0671 18.735C13.0978 18.7043 13.1184 18.6633 13.1184 18.6171C13.119 18.6108 13.1179 18.6044 13.1153 18.5986C13.1127 18.5928 13.1085 18.5878 13.1032 18.5842C13.0981 18.5805 13.092 18.5783 13.0856 18.5779C13.0792 18.5773 13.0728 18.5785 13.0671 18.5812C12.985 18.6222 12.9184 18.6684 12.8672 18.7299C12.8262 18.7812 12.7749 18.8223 12.7134 18.8683C12.616 18.9299 12.5288 18.9965 12.4417 19.0683C12.3515 19.1365 12.2511 19.1902 12.1443 19.2272L11.5394 19.4681C11.5342 19.4681 11.5291 19.4784 11.5394 19.4887L11.4573 19.5246H11.4061C11.3856 19.5194 11.3804 19.5091 11.4061 19.499C11.5497 19.4066 11.6982 19.3246 11.8418 19.2426C11.8931 19.222 11.9444 19.1913 11.9803 19.1503C12.0228 19.1117 12.0736 19.0837 12.1289 19.0683C12.2007 19.0426 12.2315 18.9965 12.293 18.9657C12.4469 18.8991 12.5904 18.8427 12.739 18.7965C12.7575 18.7894 12.7735 18.7769 12.7851 18.7606C12.8518 18.6786 12.8877 18.6325 12.9902 18.5812C13.0466 18.5505 13.0928 18.5197 13.1184 18.489C13.2568 18.33 13.4055 18.1762 13.5644 18.0326C13.5542 18.0685 13.5542 18.0839 13.5695 18.0994C13.5901 18.1095 13.6106 18.1147 13.631 18.1095C13.6545 18.1067 13.6762 18.0959 13.6926 18.0788L14.0105 17.7302L14.0618 17.6481C14.0771 17.5867 14.0617 17.5559 14.0105 17.5456C14.312 17.1031 14.5212 16.6045 14.6257 16.0794C14.6564 15.9922 14.6769 15.9256 14.682 15.8845L14.7538 15.4796C14.7744 15.3361 14.7897 15.2078 14.7897 15.0848C14.7897 14.8541 14.8256 14.5363 14.7231 14.3312C14.6821 14.2498 14.6512 14.1636 14.6308 14.0749C14.6175 14.0177 14.6106 13.9592 14.6102 13.9006C14.6102 13.8595 14.6051 13.7979 14.5846 13.7262C14.5706 13.6655 14.5706 13.6024 14.5846 13.5417C14.5949 13.5826 14.6154 13.6185 14.6358 13.6494C14.6667 13.7057 14.7385 13.7416 14.7692 13.8082C14.7744 13.8288 14.7897 13.8441 14.8103 13.8493C14.9128 13.8851 14.9897 13.9415 15.0409 14.0235C15.1281 14.1466 15.2614 14.2081 15.3793 14.3055C15.3888 14.3127 15.4 14.317 15.4118 14.3179C15.4237 14.3189 15.4355 14.3164 15.4459 14.3106C15.4818 14.2953 15.4973 14.2696 15.4973 14.2337C15.5177 14.4132 15.6715 14.4593 15.9535 14.3824C15.9725 14.3762 15.9888 14.3635 15.9996 14.3465C16.0304 14.2953 16.0713 14.2594 16.1175 14.2236C16.1688 14.1825 16.1996 14.1312 16.22 14.08C16.2713 13.9415 16.2765 13.7929 16.2509 13.6339C16.2488 13.621 16.2427 13.6092 16.2335 13.6C16.2243 13.5908 16.2125 13.5847 16.1996 13.5826H16.174C16.1222 13.6006 16.0764 13.6326 16.0419 13.6752C16.0074 13.7178 15.9857 13.7692 15.9791 13.8237C15.9688 13.8697 15.9432 13.8954 15.9022 13.9056C15.8882 13.9087 15.8737 13.9088 15.8596 13.9062C15.8456 13.9036 15.8321 13.8982 15.8201 13.8903C15.8072 13.8824 15.7961 13.872 15.7872 13.8597C15.7784 13.8472 15.7721 13.8333 15.7689 13.8185L15.7074 13.5211C15.7023 13.5007 15.6869 13.4904 15.6664 13.4852C15.6305 13.4852 15.5895 13.5007 15.5485 13.5366C15.5741 13.3724 15.733 13.3879 15.8304 13.4545C15.851 13.4648 15.8663 13.4648 15.8817 13.4494C15.9176 13.4135 15.9176 13.3776 15.892 13.3417C15.7894 13.2033 15.7741 13.029 15.7638 12.8188C15.7535 12.5111 15.7894 12.2087 15.8151 11.9062C15.8151 11.8344 15.8407 11.7063 15.8766 11.6447C15.9279 11.5628 15.9125 11.4807 15.9535 11.3935C16.0356 11.2192 16.174 11.1885 16.3739 11.3064C16.3893 11.3167 16.3995 11.3423 16.3943 11.3885V11.3833Z" fill="#CD5540"/>
<path d="M16.3939 11.3833C16.4349 11.4448 16.4555 11.5012 16.4607 11.5628C16.4914 12.0498 16.4863 12.5676 16.4452 13.1264L16.3683 13.1571C16.3603 13.1608 16.3516 13.1627 16.3427 13.1627C16.3339 13.1627 16.3251 13.1608 16.3171 13.1571C16.3086 13.1517 16.3018 13.1441 16.2973 13.135C16.2927 13.126 16.2908 13.116 16.2914 13.1059C16.2658 12.829 16.2299 12.5676 16.1684 12.3164C16.1642 12.2974 16.1554 12.2798 16.1427 12.2651C16.0915 12.2036 16.0453 12.1933 16.0146 12.2241C15.9976 12.2441 15.9885 12.2696 15.989 12.2958C15.989 12.3574 15.9531 12.3983 15.8966 12.4035C15.8911 12.404 15.8855 12.4034 15.8802 12.4016C15.875 12.3998 15.8701 12.397 15.8659 12.3933C15.8578 12.387 15.8523 12.3778 15.8506 12.3676C15.846 12.2532 15.846 12.1386 15.8506 12.0242C15.8506 11.9831 15.8557 11.9421 15.8762 11.9011C15.9082 11.8477 15.9292 11.7885 15.9377 11.7268C15.948 11.5628 15.989 11.4294 16.0505 11.332C16.0864 11.2757 16.1427 11.2551 16.2043 11.2808L16.2914 11.3474C16.3171 11.3679 16.353 11.3833 16.3939 11.3885V11.3833Z" fill="#FB8A4E"/>
<path d="M12.1141 12.0139L12.4216 11.9831C12.4264 11.983 12.4311 11.984 12.4355 11.9856C12.4399 11.9874 12.4439 11.9901 12.4473 11.9934C12.4506 11.9968 12.4532 12.0008 12.455 12.0051C12.4568 12.0096 12.4576 12.0142 12.4575 12.019L12.4832 12.3215L12.4934 12.342C12.5037 12.3523 12.514 12.3523 12.5191 12.3523L12.8164 12.3317C12.8215 12.3317 12.8318 12.3317 12.8421 12.342L12.8523 12.3625L12.883 12.6701C12.8838 12.6753 12.8834 12.6804 12.8819 12.6854C12.8805 12.6903 12.878 12.695 12.8745 12.6988C12.8712 12.7028 12.8669 12.7059 12.8622 12.708C12.8574 12.7101 12.8524 12.7112 12.8471 12.7112L12.5447 12.7368C12.5399 12.7368 12.5353 12.7358 12.531 12.734C12.5266 12.7322 12.5227 12.7296 12.5194 12.7262C12.516 12.7229 12.5134 12.7189 12.5116 12.7146C12.5098 12.7102 12.5088 12.7055 12.5088 12.7009L12.4883 12.3983C12.4883 12.3882 12.4832 12.383 12.4729 12.3727C12.4653 12.3678 12.4562 12.366 12.4473 12.3676L12.1397 12.383C12.1294 12.383 12.1192 12.383 12.1141 12.3727C12.1098 12.3699 12.1062 12.366 12.1035 12.3616C12.1009 12.3572 12.0992 12.3523 12.0986 12.3471L12.0782 12.0549C12.0771 12.0471 12.0735 12.04 12.0679 12.0344C12.0645 12.0311 12.0605 12.0285 12.0562 12.0267C12.0517 12.025 12.047 12.024 12.0423 12.0242L11.7449 12.0446L11.7193 12.0395C11.715 12.0366 11.7114 12.0328 11.7088 12.0283C11.7062 12.0239 11.7045 12.019 11.7039 12.0139L11.6783 11.696C11.6767 11.6872 11.6785 11.678 11.6834 11.6704C11.6868 11.6671 11.6908 11.6645 11.6951 11.6627C11.6996 11.661 11.7042 11.66 11.709 11.6601L12.0167 11.6499C12.0269 11.6499 12.0372 11.6499 12.0423 11.6601C12.0526 11.6601 12.0526 11.6704 12.0576 11.6806L12.073 11.978L12.0782 11.9934C12.0828 12.0008 12.0901 12.0063 12.0986 12.0087H12.1141V12.0139Z" fill="#FDFDFD"/>
<path d="M14.861 13.152C14.8354 13.1008 14.8354 12.9675 14.8509 12.7675C14.8509 12.747 14.861 12.7265 14.8765 12.7112C14.9482 12.6291 14.9994 12.6137 15.0097 12.4855C15.0328 12.2346 15.0534 11.9834 15.0712 11.7319C15.0777 11.7215 15.0864 11.7127 15.0969 11.7063C15.1328 11.6857 15.1636 11.6909 15.1892 11.7165C15.2148 11.7371 15.2251 11.7678 15.2353 11.7934C15.2661 11.9472 15.2712 12.1062 15.2558 12.2548C15.2405 12.3727 15.2405 12.4907 15.2558 12.5983C15.2968 12.8444 15.3071 13.0853 15.3071 13.3161C15.3071 13.352 15.2917 13.3879 15.2609 13.4186C15.2046 13.4955 15.1071 13.4904 15.0303 13.4494C14.9948 13.4238 14.968 13.388 14.9534 13.3468L14.861 13.152Z" fill="#743940"/>
<path d="M11.2779 11.7063L10.9652 11.7319C10.9606 11.7319 10.9562 11.7327 10.952 11.7347C10.948 11.7365 10.9442 11.7392 10.9414 11.7427C10.9384 11.746 10.9362 11.7501 10.935 11.7544C10.9338 11.7588 10.9336 11.7634 10.9344 11.7678L10.96 12.0805C10.96 12.1011 10.9805 12.1112 10.9959 12.1112L11.3086 12.0805C11.3292 12.0805 11.3394 12.0652 11.3394 12.0446L11.3138 11.7371C11.3139 11.7325 11.3129 11.7281 11.311 11.724C11.3092 11.7198 11.3065 11.7162 11.303 11.7132C11.2996 11.7104 11.2956 11.7082 11.2913 11.707C11.2868 11.7057 11.2823 11.7055 11.2779 11.7063ZM8.40179 12.7163L8.0788 12.7419C8.0583 12.7419 8.04805 12.7572 8.04805 12.7778L8.07368 13.07C8.07473 13.078 8.07335 13.0863 8.06969 13.0936C8.06604 13.1009 8.06028 13.107 8.05317 13.111L8.03779 13.1161L7.72506 13.1469C7.70455 13.1469 7.6943 13.1366 7.6943 13.1161L7.67379 12.8085C7.67315 12.8006 7.66947 12.7933 7.66354 12.7881C7.66068 12.7858 7.65738 12.7841 7.65384 12.7833C7.6503 12.7823 7.64661 12.7822 7.64304 12.7829L7.34568 12.8034C7.33542 12.8034 7.32005 12.8034 7.31492 12.7931C7.31028 12.7894 7.30651 12.7847 7.30386 12.7795C7.3012 12.7742 7.29973 12.7683 7.29954 12.7623L7.26878 12.4701C7.26878 12.4445 7.2534 12.4292 7.22776 12.4342L6.93555 12.4548C6.91504 12.4548 6.89966 12.4445 6.89966 12.424L6.87402 12.1164C6.87402 12.0908 6.88428 12.0805 6.90991 12.0753L7.19188 12.0652C7.22264 12.0652 7.23801 12.0805 7.24315 12.1062L7.26365 12.4035C7.26365 12.4138 7.26878 12.424 7.27903 12.4189L7.62252 12.3983C7.63277 12.3983 7.63277 12.3933 7.63277 12.383L7.61227 12.0395V12.0241L7.63277 12.019L7.96089 11.9934C7.97114 11.9934 7.97627 11.9985 7.97627 12.0087L8.00703 12.3215C8.00703 12.3471 8.02241 12.3574 8.04805 12.3574L8.33001 12.342C8.34026 12.342 8.35565 12.342 8.36078 12.3523C8.37103 12.3574 8.37615 12.3727 8.37615 12.383L8.40179 12.7163ZM11.6778 12.0497L11.3702 12.0805C11.3654 12.0812 11.3609 12.0828 11.3567 12.0852C11.3526 12.0875 11.349 12.0908 11.3462 12.0946C11.3433 12.0984 11.3413 12.1027 11.3401 12.1074C11.3389 12.112 11.3386 12.1169 11.3394 12.1215L11.3651 12.4189C11.3651 12.4394 11.3855 12.4548 11.4061 12.4548L11.7085 12.4292C11.7291 12.4292 11.7444 12.4086 11.7393 12.3882L11.7137 12.0908C11.7137 12.0812 11.7098 12.0721 11.7031 12.0654C11.6964 12.0587 11.6872 12.0549 11.6778 12.0549V12.0497Z" fill="#FDFDFD"/>
<path d="M7.98186 12.3676L7.67426 12.3882C7.66975 12.3881 7.66528 12.389 7.66117 12.3909C7.65705 12.3927 7.65341 12.3955 7.65047 12.3989C7.64753 12.4023 7.64539 12.4064 7.64418 12.4107C7.64297 12.415 7.64275 12.4196 7.6435 12.4241L7.66912 12.7419C7.66912 12.7624 7.68451 12.7726 7.70501 12.7726L8.01262 12.747C8.02799 12.747 8.04338 12.7316 8.04338 12.7163L8.01774 12.3933C8.01713 12.3892 8.0157 12.3853 8.01354 12.3818C8.01139 12.3782 8.00857 12.3753 8.00522 12.3729C8.00187 12.3705 7.99808 12.3688 7.99407 12.3678C7.99006 12.367 7.98591 12.3669 7.98186 12.3676Z" fill="#010000"/>
<path d="M12.0777 12.3882L11.7751 12.4138C11.7675 12.416 11.7608 12.4208 11.7562 12.4273C11.7516 12.4339 11.7492 12.4416 11.7495 12.4497L11.77 12.7675C11.77 12.7829 11.7906 12.7982 11.8059 12.7982L12.1033 12.7726C12.1238 12.7726 12.1392 12.7572 12.134 12.7368L12.1136 12.4189C12.1136 12.4144 12.1127 12.4099 12.1108 12.4058C12.109 12.4017 12.1063 12.3981 12.1028 12.3951C12.0993 12.3922 12.0954 12.3901 12.091 12.3889C12.0866 12.3876 12.0821 12.3873 12.0777 12.3882Z" fill="#FDFDFD"/>
<path d="M10.9761 12.665L10.9299 12.8188C10.9196 12.8599 10.9299 12.8855 10.9658 12.9111L10.7864 12.8803C10.7652 12.8756 10.7468 12.8627 10.735 12.8444C10.7286 12.8357 10.7238 12.8258 10.7212 12.8152C10.7185 12.8047 10.7181 12.7937 10.7197 12.7829V12.747C10.735 12.7009 10.7608 12.6854 10.8017 12.6957C10.8581 12.7213 10.9145 12.706 10.9761 12.665Z" fill="#CD5540"/>
<path d="M8.40234 12.7163L8.74071 12.6854C8.74629 12.6847 8.75197 12.6852 8.75731 12.687C8.76266 12.6888 8.76751 12.6918 8.77147 12.6957C8.77611 12.6994 8.77989 12.7041 8.78254 12.7095C8.7852 12.7147 8.78667 12.7206 8.78685 12.7265L8.80735 13.0187C8.80735 13.0443 8.7971 13.0597 8.7766 13.0597L8.47412 13.0802C8.44848 13.0802 8.43823 13.07 8.43311 13.0443L8.40234 12.7163Z" fill="#FDFDFD"/>
<path d="M9.84273 15.1053C9.63253 15.1156 9.42747 15.0438 9.22752 14.9003C9.15574 14.8489 9.04808 14.8336 8.89941 14.8489C8.93017 14.7977 8.95067 14.7464 8.97631 14.6849C8.99169 14.6592 9.00194 14.6183 9.00708 14.567C9.02758 14.4696 9.09935 14.3927 9.17625 14.3414C9.18864 14.3335 9.19918 14.323 9.20715 14.3105C9.2151 14.2982 9.2203 14.2842 9.2224 14.2696L9.29929 13.757C9.29929 13.7416 9.31468 13.7262 9.32493 13.716L9.44284 13.6288C9.44857 13.6246 9.45334 13.6192 9.45687 13.613C9.4604 13.6069 9.46261 13.6 9.46334 13.5929L9.49411 12.9982C9.53512 12.9931 9.5505 12.9675 9.54538 12.9213C9.59022 12.8996 9.63911 12.8872 9.68893 12.8854C9.70245 12.8857 9.71534 12.8912 9.72482 12.9008C9.73447 12.9103 9.74 12.9231 9.74019 12.9366C9.73121 13.0886 9.72949 13.2408 9.73507 13.393C9.73507 13.6032 9.68893 13.8031 9.58127 13.9928C9.55563 14.0338 9.54025 14.08 9.53 14.1209C9.47873 14.3004 9.47873 14.3465 9.3198 14.449C9.30901 14.4545 9.29966 14.4626 9.29253 14.4724C9.2854 14.4822 9.2807 14.4935 9.27879 14.5055L9.23777 14.8131C9.23645 14.8232 9.23819 14.8335 9.24276 14.8426C9.24733 14.8518 9.25452 14.8594 9.26341 14.8644C9.35056 14.9156 9.43772 14.9566 9.53 14.972C9.571 14.9822 9.58639 14.9976 9.62228 15.0181C9.63771 15.0278 9.6554 15.033 9.67355 15.0335C9.73507 15.0387 9.79146 15.0643 9.84273 15.1053Z" fill="#CD5540"/>
<path d="M9.48866 12.9983L9.46302 13.5929C9.46229 13.6 9.46008 13.6069 9.45655 13.613C9.45302 13.6192 9.44825 13.6246 9.44252 13.6288L9.32461 13.716C9.31742 13.7215 9.31143 13.7284 9.30702 13.7365C9.30262 13.7443 9.29988 13.7531 9.29897 13.7621L9.22208 14.2696C9.21998 14.2842 9.21478 14.2982 9.20682 14.3105C9.19886 14.323 9.18832 14.3335 9.17592 14.3414C9.09903 14.3927 9.02212 14.4696 9.00675 14.567C9.00162 14.6183 8.99137 14.6592 8.97599 14.6849L8.89909 14.849C8.7094 15.0591 8.59661 15.2078 8.56584 15.3002C8.51459 15.4386 8.50433 15.577 8.52996 15.7102C8.56072 15.8692 8.74528 15.8641 8.86833 15.8948C8.98112 15.9204 9.04776 16.0435 9.13492 16.1204C9.2477 16.2229 9.31435 16.3358 9.44252 16.428C9.51429 16.5203 9.58607 16.5818 9.66297 16.6126C9.87314 16.6998 10.0732 16.8227 10.3141 16.8279L10.1501 16.833C10.1407 16.8327 10.1315 16.8357 10.1241 16.8412C10.1167 16.8468 10.1113 16.8548 10.109 16.8638C10.0936 16.8997 10.0988 16.9304 10.1192 16.9663C10.1346 16.9817 10.1602 16.997 10.1961 17.0073C10.2679 17.0228 10.3397 17.0484 10.4114 17.0586C10.5857 17.074 10.7652 17.0842 10.9446 17.0894C11.0933 17.0945 11.2215 17.0637 11.3651 17.0381L11.4061 17.0125C11.4932 16.9048 11.6214 16.8433 11.7957 16.833C11.811 16.833 11.8265 16.833 11.8368 16.8433C11.8469 16.8535 11.8572 16.8689 11.8572 16.8842C11.8675 16.9663 11.8316 17.0176 11.7547 17.0381C11.5856 17.0739 11.4163 17.1201 11.242 17.1713L11.124 17.2226C11.0897 17.2449 11.0514 17.2606 11.0114 17.2688C10.7037 17.32 10.4166 17.3457 10.1398 17.361C10.0373 17.361 9.98594 17.4124 9.98594 17.5149L9.97566 17.6737C9.97566 17.7764 10.027 17.8276 10.1243 17.8379L11.1036 17.8994C11.1063 17.8988 11.1093 17.8989 11.112 17.8997C11.1147 17.9007 11.1171 17.9023 11.119 17.9045V17.925L11.1087 17.9404C11.1013 17.9522 11.0916 17.9624 11.0801 17.9703C11.0687 17.9783 11.0557 17.9838 11.0421 17.9866L10.6319 18.0839H9.95006C9.868 18.1198 9.80652 18.1557 9.7655 18.1865C9.68348 18.2582 9.59632 18.33 9.50917 18.3915C9.37588 18.4838 9.46815 18.7862 9.48866 18.9298L9.32974 18.7043C9.2272 18.5608 9.17593 18.4069 9.10415 18.2429C9.07191 18.1701 9.04618 18.0946 9.02726 18.0173C8.97599 17.802 8.91446 17.5918 8.84782 17.3866C8.82391 17.315 8.80674 17.2412 8.79655 17.1663C8.7658 16.9048 8.60686 16.7664 8.44281 16.5767C8.39154 16.5152 8.35565 16.4486 8.34027 16.3716C8.30797 16.2524 8.25219 16.1409 8.17622 16.0435C8.14288 16.0003 8.12165 15.949 8.1147 15.8948C8.07546 15.626 7.99956 15.3638 7.88912 15.1156C7.8809 15.098 7.87737 15.0785 7.87887 15.0591C7.88912 14.9362 7.87887 14.8234 7.85837 14.7157C7.83734 14.6284 7.82701 14.5389 7.8276 14.449C7.8276 14.3055 7.8276 14.162 7.81222 14.0184C7.79684 13.8493 7.81222 13.6903 7.8071 13.516L9.15542 13.3982C9.19644 13.3982 9.21181 13.3724 9.20669 13.3314L9.18106 13.0546C9.18036 13.0473 9.18195 13.0399 9.18563 13.0334C9.1893 13.027 9.19486 13.0218 9.20156 13.0187H9.21181L9.48866 12.9983Z" fill="#E6704E"/>
<path d="M11.8673 13.4289C12.0569 13.4135 12.2517 13.4083 12.4415 13.4186C12.5747 13.4238 12.7183 13.6083 12.8105 13.7006C12.8311 13.7211 12.8414 13.7519 12.8464 13.7775C12.8464 13.8031 12.8362 13.8288 12.8208 13.8544C12.6978 14.0031 12.5799 14.1568 12.3594 14.1518L11.9492 14.1466C11.7032 14.1364 11.6262 14.0133 11.4468 13.8647C11.4359 13.855 11.4272 13.8432 11.4212 13.8299C11.4152 13.8167 11.4121 13.8022 11.4121 13.7878C11.4121 13.7732 11.4152 13.7588 11.4212 13.7455C11.4272 13.7323 11.4359 13.7204 11.4468 13.7109C11.5647 13.6032 11.7032 13.4442 11.8673 13.4289Z" fill="#FCA471"/>
<path d="M15.4976 14.2337L15.5488 13.5314C15.5898 13.5007 15.6308 13.4801 15.6667 13.4852C15.6872 13.4852 15.7026 13.5007 15.7077 13.5211L15.7744 13.8185C15.7795 13.8493 15.7948 13.8697 15.8256 13.8903C15.8461 13.9056 15.8769 13.9107 15.9025 13.9056C15.9435 13.8954 15.9691 13.8697 15.9794 13.8237C15.9869 13.7702 16.0091 13.7198 16.0435 13.6782C16.0779 13.6366 16.1232 13.6052 16.1743 13.5878C16.1822 13.5837 16.1909 13.5826 16.1999 13.5826C16.2087 13.5826 16.2176 13.5837 16.2255 13.5878C16.2332 13.5928 16.2396 13.5996 16.244 13.6077C16.2486 13.6157 16.2509 13.6247 16.2512 13.6339C16.2768 13.7878 16.2665 13.9415 16.2203 14.08C16.1999 14.1312 16.1691 14.1825 16.1178 14.2236C16.0731 14.2588 16.0334 14.3002 15.9999 14.3465C15.9879 14.3645 15.9696 14.3773 15.9487 14.3824C15.6719 14.4593 15.518 14.4132 15.4976 14.2337Z" fill="#FB8A4E"/>
<path d="M7.8122 13.516C7.8122 13.6903 7.80195 13.8493 7.8122 14.0184C7.83271 14.162 7.83783 14.3055 7.83271 14.4491C7.83271 14.5414 7.84296 14.6285 7.86347 14.7157C7.88398 14.8234 7.89423 14.9362 7.88397 15.0591C7.88397 15.0746 7.88398 15.095 7.89423 15.1105C8.0019 15.3668 8.07879 15.6232 8.11981 15.8948C8.12493 15.9461 8.14544 15.9973 8.18133 16.0435C8.25311 16.1409 8.3095 16.2486 8.34025 16.3716C8.36077 16.4486 8.39665 16.5152 8.44791 16.5767C8.61198 16.7664 8.7709 16.9048 8.80678 17.1663C8.81192 17.2431 8.8273 17.32 8.85293 17.3867C8.91958 17.5918 8.9811 17.802 9.03236 18.0173C9.05287 18.0994 9.07851 18.1711 9.10926 18.2429C9.18104 18.4069 9.23231 18.5608 9.33484 18.7043L9.49377 18.9349C9.69371 19.2478 9.95518 19.4476 10.2936 19.5246C10.6525 19.6066 11.0369 19.6066 11.4573 19.5246L11.5342 19.4887C11.5598 19.4887 11.6111 19.4784 11.6881 19.4476C11.8879 19.3656 12.0828 19.3144 12.2776 19.2836C12.3392 19.2734 12.3442 19.2836 12.3033 19.3348C12.2149 19.4232 12.1025 19.4838 11.9803 19.5091C11.9131 19.5213 11.8497 19.5494 11.7957 19.5912C11.7907 19.5947 11.7867 19.5992 11.7841 19.6046C11.7814 19.61 11.78 19.616 11.7803 19.6219C11.7803 19.6425 11.7803 19.6578 11.765 19.6733C11.7547 19.6937 11.7444 19.6989 11.7239 19.6937C11.4343 19.7673 11.1348 19.7932 10.8369 19.7706C10.6729 19.7502 10.5294 19.745 10.4013 19.745C10.2474 19.745 10.0833 19.7245 9.92444 19.7296C9.90901 19.7296 9.88855 19.7296 9.87312 19.7193L9.60655 19.545C9.586 19.5335 9.5618 19.5302 9.53892 19.5359C9.51603 19.5417 9.49621 19.5559 9.48352 19.5758C9.47517 19.5881 9.46989 19.6021 9.46814 19.6168C9.463 19.6681 9.46814 19.7245 9.48864 19.7758C9.4989 19.8065 9.48864 19.8168 9.45788 19.8168H9.41174C9.40219 19.8176 9.39258 19.8162 9.38368 19.8126C9.37478 19.809 9.36683 19.8034 9.36047 19.7962C9.34167 19.7752 9.31906 19.7577 9.29383 19.745C9.27717 19.737 9.26299 19.7246 9.25281 19.7091C9.20154 19.6374 9.14515 19.5707 9.07338 19.5143C9.056 19.4996 9.04348 19.4799 9.03749 19.4579C9.01186 19.3554 8.94521 19.2734 8.90419 19.1708C8.85292 19.0529 8.79653 18.9452 8.71451 18.8427L8.31462 17.9917L8.28899 17.761C8.26336 17.5559 8.18645 17.3508 8.12493 17.1612C8.05829 16.9407 8.05316 16.6998 8.00702 16.469C7.99288 16.4008 7.96869 16.3353 7.93524 16.2742C7.90462 16.2124 7.87724 16.1491 7.85322 16.0845L7.80194 15.8179C7.81733 15.6641 7.79169 15.5257 7.71992 15.3976C7.61373 14.7847 7.56227 14.1636 7.56612 13.5417L7.8122 13.516Z" fill="#241618"/>
<path d="M9.81696 13.5776C9.81949 13.5705 9.82386 13.5643 9.82964 13.5596C9.83543 13.5549 9.84238 13.5519 9.84976 13.5508C9.85714 13.5497 9.86472 13.5507 9.87153 13.5537C9.87835 13.5565 9.88433 13.5612 9.88876 13.5673C9.92465 13.6288 9.92465 13.6903 9.93996 13.762C9.98099 13.9621 10.0426 14.5926 9.7298 14.6336L9.60677 14.6592C9.58891 14.6641 9.57009 14.6644 9.55214 14.6599C9.53417 14.6554 9.51768 14.6464 9.50423 14.6336C9.4901 14.6209 9.47941 14.6049 9.47313 14.587C9.46686 14.569 9.46521 14.5499 9.46834 14.5311L9.50423 14.362C9.52183 14.2658 9.57489 14.1798 9.65291 14.1209C9.66721 14.1087 9.67785 14.0928 9.68367 14.0749C9.71955 13.9825 9.74519 13.8954 9.76057 13.8031L9.81183 13.5776H9.81696Z" fill="#FCA471"/>
<path d="M17.6805 15.0797L17.6292 15.5308C17.6289 15.5443 17.6234 15.5572 17.6139 15.5667L17.583 15.5974C17.5705 15.6093 17.5601 15.6231 17.5522 15.6385C17.5165 15.7136 17.457 15.7748 17.3831 15.8127C17.3626 15.8228 17.3394 15.8257 17.3172 15.821C17.2949 15.8163 17.2748 15.8045 17.26 15.7871C17.1678 15.659 17.0294 15.6077 16.8499 15.6333C16.7986 15.6436 16.7576 15.618 16.7268 15.5514C16.6961 14.9259 16.7064 14.3003 16.7474 13.6698C16.7562 13.6381 16.774 13.6095 16.7986 13.5877C16.8141 13.5776 16.8294 13.5776 16.8448 13.5929C16.896 13.6544 16.932 13.716 16.9729 13.7775C17.0345 13.88 17.1422 13.9107 17.2088 14.0082C17.2857 14.1209 17.3625 14.244 17.4394 14.3773C17.5112 14.5055 17.5933 14.7361 17.6805 15.0797Z" fill="#D8C5A9"/>
<path d="M16.4096 13.598L16.3942 13.8749C16.3942 13.8954 16.3943 13.9159 16.4045 13.9313C16.4302 13.9825 16.4506 14.039 16.4558 14.1005C16.4814 14.403 16.4917 14.6644 16.4762 14.8951C16.4661 15.0079 16.4661 15.1002 16.4711 15.1925C16.4865 15.4949 16.4609 15.8076 16.4403 16.1101C16.425 16.4024 16.3122 16.6792 16.2712 16.9714C16.2609 17.0791 16.2405 17.156 16.2097 17.2072C16.1393 17.3378 16.0826 17.4753 16.0404 17.6174C16.061 17.4483 16.0507 17.2944 16.0148 17.1457C16.0108 17.1305 16.003 17.1164 15.9924 17.1048C15.9816 17.0932 15.9682 17.0844 15.9534 17.0791C15.9386 17.0745 15.9231 17.0736 15.9079 17.0763C15.8927 17.079 15.8785 17.0852 15.8662 17.0945C15.7987 17.1512 15.7518 17.2287 15.7329 17.3149C15.6919 17.5097 15.5586 17.6071 15.5021 17.7917C15.4663 17.925 15.2766 18.2788 15.1331 18.3249C15.1227 18.3283 15.1117 18.3292 15.101 18.3274C15.0903 18.3256 15.0802 18.3213 15.0715 18.3147C15.0637 18.3086 15.0574 18.3008 15.0529 18.292C15.0485 18.283 15.0461 18.2733 15.0459 18.2634C15.0407 18.0994 15.0766 17.9507 15.1587 17.8123C15.2408 17.6789 15.2766 17.5353 15.3536 17.3969C15.3843 17.3457 15.4048 17.2841 15.4252 17.2278L15.6405 16.5767C15.7073 16.3972 15.7329 16.1922 15.7432 16.0076L15.7791 15.1207C15.7841 14.9003 15.902 14.5926 16.0662 14.4183C16.2046 14.2799 16.2712 14.0902 16.2712 13.8544C16.2712 13.8185 16.2917 13.7878 16.3224 13.7723C16.3293 13.7696 16.3357 13.7654 16.3409 13.76C16.3462 13.7548 16.3504 13.7485 16.3533 13.7416L16.4147 13.598H16.4096Z" fill="#743940"/>
<path d="M8.68382 13.6544L8.40698 13.6391C8.37977 13.6391 8.3537 13.6498 8.33447 13.6691C8.31524 13.6884 8.30443 13.7144 8.30443 13.7416L8.28906 14.0491C8.28906 14.1005 8.33007 14.1518 8.38647 14.1518L8.65819 14.1671C8.71458 14.1671 8.76072 14.1261 8.76072 14.0646L8.78122 13.757C8.78122 13.7298 8.77042 13.7037 8.75119 13.6845C8.73197 13.6653 8.70588 13.6544 8.67869 13.6544H8.68382Z" fill="#FCA471"/>
<path d="M11.7644 14.6439C11.6531 14.6269 11.5395 14.6339 11.4312 14.6644C11.4125 14.6686 11.396 14.6796 11.385 14.6951C11.3402 14.77 11.2688 14.8249 11.1851 14.849C11.0312 14.89 10.9646 14.9413 10.8518 15.0181C10.7955 15.0591 10.7237 15.0848 10.6313 15.1002L11.1441 14.6132C11.161 14.5968 11.1719 14.575 11.1748 14.5516C11.2004 14.4132 11.1953 14.2748 11.1594 14.1364C11.1569 14.1276 11.1565 14.1184 11.1583 14.1094C11.16 14.1006 11.1639 14.0922 11.1697 14.085C11.1758 14.0776 11.1837 14.0718 11.1926 14.0682C11.2016 14.0646 11.2114 14.0633 11.221 14.0646H11.2569C11.3081 14.0697 11.3439 14.0953 11.3645 14.1415C11.4056 14.2184 11.4157 14.2953 11.4773 14.3568C11.5644 14.4593 11.6618 14.5516 11.7644 14.6439Z" fill="#CD5540"/>
<path d="M11.7651 14.6439C12.2469 14.8028 12.5955 15.1053 12.8159 15.5411C12.8877 15.6795 12.8673 15.8076 12.7442 15.9153C12.5699 16.0794 12.3853 16.2332 12.211 16.3768C12.1341 16.3665 12.1085 16.3409 12.1188 16.2947C12.1353 16.2518 12.1636 16.2143 12.2007 16.1871L12.3187 16.1256C12.3853 16.0947 12.411 16.0384 12.4059 15.9614C12.4036 15.9405 12.3943 15.9209 12.3793 15.9059C12.3644 15.891 12.3448 15.8817 12.3238 15.8794C11.9649 15.8692 11.6317 15.8744 11.3087 15.8948C11.2899 15.8963 11.2721 15.9034 11.2575 15.9153L11.0267 16.0845L10.2116 16.1357L9.93469 16.1512C9.81965 16.13 9.70181 16.1282 9.58613 16.146C9.56888 16.1475 9.55263 16.1548 9.54 16.1665C9.52745 16.1807 9.5202 16.1989 9.51949 16.2178C9.51949 16.2434 9.52974 16.2691 9.5605 16.2896C9.52461 16.3921 9.4836 16.4434 9.44772 16.428C9.31442 16.3357 9.24777 16.2229 9.14011 16.1204C9.04783 16.0435 8.98631 15.9204 8.86839 15.8948C8.74535 15.8589 8.56079 15.8692 8.53003 15.7051C8.5045 15.5676 8.5169 15.4259 8.56591 15.295C8.59668 15.2078 8.70947 15.0591 8.89916 14.8489C9.04783 14.8336 9.15549 14.8489 9.2324 14.9003C9.4272 15.0438 9.63227 15.1156 9.84248 15.1053C10.104 15.1412 10.3655 15.136 10.632 15.1002C10.7243 15.0848 10.7961 15.0591 10.8524 15.0181C10.9653 14.9413 11.0319 14.89 11.1857 14.8489C11.2728 14.8233 11.3394 14.772 11.3908 14.6951C11.4004 14.6805 11.4149 14.6696 11.4318 14.6644C11.5343 14.6336 11.6471 14.6233 11.7651 14.6439Z" fill="#241618"/>
<path d="M12.0528 15.1053C12.2117 15.136 12.3193 15.2078 12.3758 15.3103C12.4117 15.377 12.4117 15.4539 12.3758 15.5514C12.3758 15.5718 12.3552 15.5821 12.3348 15.577C12.2834 15.577 12.2322 15.6077 12.1809 15.6129C12.0374 15.6232 11.94 15.5564 11.8887 15.4078C11.8819 15.3876 11.8693 15.3699 11.8528 15.3565L11.4939 15.0848C11.465 15.065 11.4433 15.0362 11.4324 15.0028C11.4119 14.9413 11.4324 14.9003 11.4991 14.8848C11.6529 14.8387 11.781 14.8695 11.8784 14.972L12.0066 15.0797C12.0209 15.0929 12.0387 15.1018 12.0578 15.1053H12.0528Z" fill="#743940"/>
<path d="M17.7118 16.1153C17.6329 16.4947 17.5628 16.8759 17.5016 17.2585C17.4811 17.3508 17.4606 17.4739 17.4452 17.6328C17.4196 17.8686 17.3171 18.1403 17.1479 18.4531L17.0145 18.5249C16.8198 18.6478 16.6505 18.7914 16.4968 18.9555C16.3122 19.1554 16.179 19.2887 16.0045 19.4374C15.8098 19.6015 15.6149 19.6271 15.415 19.5091L15.6867 19.2528C15.7002 19.2379 15.7107 19.2205 15.7174 19.2016L15.8713 18.9093C15.9789 18.7402 16.0354 18.5709 16.1173 18.3966C16.2097 18.2172 16.2199 18.0225 16.2968 17.8379C16.3634 17.6737 16.4147 17.4995 16.4403 17.3252C16.4659 17.1816 16.5019 17.0381 16.5429 16.8945C16.6762 16.469 16.7326 16.0229 16.7274 15.5514C16.7582 15.618 16.7992 15.6436 16.8557 15.6333C17.03 15.6077 17.1632 15.659 17.2657 15.7872C17.2797 15.804 17.2989 15.8158 17.3203 15.8204C17.3417 15.8251 17.3639 15.8225 17.3837 15.8128C17.4576 15.7748 17.5171 15.7136 17.5528 15.6385C17.5607 15.6232 17.5711 15.6093 17.5836 15.5974L17.6144 15.5667C17.6256 15.5577 17.6329 15.5449 17.6349 15.5308L17.6811 15.0797V15.0232H17.6912L17.7118 16.1153Z" fill="#B39976"/>
<path d="M7.72002 15.3975C7.7918 15.5257 7.81743 15.6692 7.79693 15.8179C7.76616 15.7667 7.72002 15.7513 7.66875 15.7717C7.54572 15.8179 7.57647 15.9614 7.48933 16.0435L7.38679 16.1256C7.37113 16.1387 7.3603 16.1568 7.35603 16.1768C7.29963 16.3613 7.34577 16.5612 7.34065 16.7202L7.28938 16.1973C7.28687 16.1778 7.27782 16.1598 7.26374 16.146C7.24945 16.136 7.23874 16.1215 7.23321 16.105C7.22768 16.0884 7.2276 16.0704 7.23299 16.0538C7.25349 15.9717 7.28938 15.9 7.34065 15.8282C7.39192 15.7564 7.39192 15.6743 7.39192 15.5923C7.39192 15.5718 7.39704 15.5514 7.41242 15.5308C7.49445 15.4128 7.59698 15.3719 7.72002 15.3975Z" fill="#E35E74"/>
<path d="M10.1345 15.4846C10.2846 15.587 10.451 15.6634 10.6266 15.7102C10.6329 15.7161 10.6375 15.7234 10.6402 15.7314C10.6429 15.7394 10.6435 15.748 10.6421 15.7564C10.6418 15.7635 10.64 15.7705 10.6369 15.7769C10.6296 15.7918 10.6189 15.8047 10.6055 15.8146C10.5921 15.8244 10.5764 15.8308 10.56 15.8333C10.3135 15.8772 10.0599 15.8595 9.82176 15.782C9.81472 15.7758 9.80957 15.7677 9.80685 15.7586C9.80414 15.7495 9.80397 15.7399 9.80639 15.7308C9.80885 15.7209 9.81421 15.7119 9.82176 15.7051L10.0268 15.4898C10.0627 15.459 10.0986 15.4539 10.1345 15.4796V15.4846Z" fill="#CD5540"/>
<path d="M7.79735 15.8179L7.85374 16.0845C7.85374 16.2383 7.86912 16.5971 7.64867 16.6177C7.57177 16.628 7.53075 16.6689 7.52562 16.751C7.52562 16.7817 7.51025 16.8023 7.48973 16.8227C7.45385 16.8483 7.41796 16.8483 7.37182 16.8227C7.38207 16.8176 7.38207 16.8124 7.37182 16.8023C7.36157 16.792 7.35645 16.792 7.35132 16.8124L7.34619 16.9304L7.34107 16.7202C7.34619 16.5664 7.30005 16.3613 7.35645 16.1716C7.36244 16.151 7.37505 16.1331 7.39234 16.1204L7.48975 16.0435C7.57689 15.9614 7.54614 15.8179 7.66917 15.7717C7.72044 15.7513 7.76658 15.7717 7.79735 15.823V15.8179Z" fill="#D8C5A9"/>
<path d="M16.0001 20.3859C15.8565 20.4576 15.749 20.5704 15.6104 20.6422C15.4926 20.6986 15.3747 20.7703 15.2619 20.8472C15.1952 20.8986 15.1183 20.9036 15.0362 20.919C15.0053 20.9227 14.9756 20.9331 14.9492 20.9498C14.7953 21.0523 14.6415 21.1343 14.4775 21.1958L14.2211 21.3241C14.1596 21.36 14.0879 21.3804 14.0058 21.3907C13.934 21.401 13.8674 21.4214 13.8008 21.4522C13.5957 21.5547 13.3753 21.6471 13.1342 21.7393C13.0573 21.7649 12.9907 21.7599 12.9189 21.7906C12.5649 21.9486 12.1781 22.019 11.7911 21.9956C11.6424 21.9853 11.4834 21.9495 11.3246 21.888C11.1092 21.8008 10.9503 21.729 10.8426 21.6726L10.4478 21.447C10.3153 21.3742 10.1915 21.2865 10.0788 21.1857C9.71988 20.8575 9.43791 20.5857 9.23284 20.3704C9.07904 20.2064 8.91498 20.0474 8.74579 19.8937C8.54256 19.7017 8.3604 19.4886 8.20237 19.2579C8.16648 19.2067 8.12546 19.1657 8.07932 19.1247C8.03328 19.0814 7.99663 19.029 7.97166 18.9708C7.95116 18.9196 7.92039 18.8683 7.88963 18.8223L7.81786 18.6889C7.78486 18.6184 7.73973 18.5542 7.68456 18.4992C7.67273 18.4866 7.66551 18.4703 7.66406 18.4531C7.64828 18.2909 7.58396 18.1372 7.47949 18.0122V17.9917H7.50001C7.51538 18.0225 7.54101 18.0429 7.56665 18.0583C7.5974 18.0737 7.62304 18.0942 7.64356 18.1198C7.66406 18.1506 7.67944 18.1865 7.68456 18.2223C7.68456 18.2737 7.7102 18.3096 7.74095 18.3403C7.81273 18.4018 7.86913 18.4838 7.87425 18.5709C7.87425 18.6171 7.89477 18.653 7.9409 18.6786C7.95635 18.6889 7.96874 18.703 7.97679 18.7196C8.04343 18.858 8.13059 18.9811 8.25364 19.0939C8.33566 19.181 8.41256 19.2734 8.48946 19.3707C8.58174 19.4784 8.65865 19.5758 8.73042 19.6425L9.79165 20.7088C10.0223 20.9396 10.2121 21.0985 10.3658 21.1857C10.4786 21.2523 10.6017 21.3292 10.7298 21.4214C10.8785 21.524 11.0169 21.5547 11.1759 21.6163C11.5245 21.7547 11.8988 21.7803 12.2781 21.7547C12.3909 21.7547 12.5037 21.7188 12.6114 21.6675C12.7293 21.6163 12.837 21.5701 12.9395 21.5496C13.206 21.4881 13.4162 21.4163 13.5649 21.3394C13.77 21.3241 13.9751 21.2523 14.1852 21.1343C14.3494 21.037 14.5954 20.9087 14.9337 20.7447C15.2926 20.6371 15.6003 20.4781 15.8617 20.2782C16.1283 20.0732 16.3949 19.8065 16.6563 19.4784C16.805 19.2938 16.9127 19.0733 17.0152 18.8632C17.0459 18.8068 17.0665 18.7351 17.0921 18.6581L17.1434 18.4531C17.3177 18.1403 17.4202 17.8635 17.4458 17.6328C17.4654 17.4307 17.4997 17.2302 17.5483 17.0329C17.5997 16.7254 17.6509 16.4177 17.7125 16.1102C17.7051 16.0033 17.7281 15.8967 17.7791 15.8026C17.7823 15.7985 17.7864 15.7954 17.7912 15.7935C17.7958 15.7915 17.801 15.7908 17.8061 15.7912C17.8112 15.7917 17.8161 15.7935 17.8204 15.7964C17.8246 15.7992 17.828 15.8032 17.8303 15.8076C17.8765 15.9461 17.8919 16.0897 17.8765 16.2332C17.856 16.4895 17.8253 16.7458 17.7996 16.997L17.7637 17.1509C17.7432 17.2124 17.7381 17.2893 17.7125 17.3406C17.6714 17.4328 17.6458 17.5303 17.6356 17.6328C17.6151 17.8276 17.5586 18.0225 17.4613 18.2172C17.4355 18.2685 17.4202 18.3197 17.4099 18.3813C17.4003 18.4429 17.383 18.5032 17.3587 18.5608L17.1127 19.1144C17.0459 19.2426 16.964 19.3707 16.8563 19.4835C16.5845 19.8014 16.3589 20.0833 16.0001 20.3859Z" fill="#241618"/>
<path d="M12.2059 16.3716C11.9342 16.5152 11.642 16.633 11.3139 16.7305C10.9756 16.8279 10.6474 16.8586 10.3142 16.833C10.0733 16.8227 9.87324 16.6998 9.66308 16.6126C9.57523 16.5727 9.50053 16.5087 9.44775 16.428C9.48364 16.4383 9.52465 16.3921 9.56054 16.2896C9.67845 16.3409 9.80663 16.3665 9.93485 16.3511C9.94466 16.3509 9.95423 16.348 9.96236 16.3425C9.97062 16.3371 9.97696 16.3294 9.9809 16.3203C10.0066 16.2691 9.99119 16.2075 9.93485 16.146L10.2117 16.1357C10.1603 16.2691 10.1962 16.3409 10.3296 16.3562C10.5757 16.3818 10.8217 16.3716 11.0575 16.3306C11.0869 16.3246 11.1133 16.3085 11.132 16.285C11.1507 16.2617 11.1606 16.2324 11.16 16.2024C11.16 16.1204 11.114 16.0794 11.0268 16.0845L11.2575 15.9153C11.2721 15.9034 11.2899 15.8963 11.3087 15.8948C11.6317 15.8744 11.965 15.8692 12.3239 15.8794C12.3443 15.8794 12.3649 15.8897 12.3802 15.9051C12.3956 15.9204 12.4059 15.941 12.4059 15.9615C12.4111 16.0384 12.3853 16.0947 12.3187 16.1256L12.2008 16.1871C12.1645 16.213 12.136 16.2484 12.1188 16.2896C12.1034 16.3409 12.1341 16.3665 12.211 16.3716H12.2059Z" fill="#572624"/>
<path d="M7.85374 16.0845L7.93577 16.2742C7.97166 16.3459 7.99729 16.4075 8.00754 16.469C8.05368 16.7048 8.05881 16.9407 8.12546 17.1612C8.18186 17.3559 8.26388 17.5559 8.28952 17.761L8.31514 17.9917C8.36129 18.207 8.36641 18.3607 8.34078 18.4531C8.28439 18.6222 8.04856 18.6377 7.9614 18.4941C7.9409 18.4582 7.91013 18.4274 7.8845 18.3915C7.84706 18.3484 7.81115 18.3039 7.77684 18.2582L7.67431 17.9608C7.62304 17.8379 7.58203 17.7405 7.56151 17.6687C7.48462 17.4225 7.40771 17.1765 7.34619 16.9304L7.35132 16.8125C7.35132 16.792 7.36158 16.792 7.37696 16.8023C7.38208 16.8125 7.37696 16.8176 7.37183 16.8176V16.8227C7.41797 16.8483 7.45385 16.8483 7.48974 16.8227C7.50074 16.8143 7.50968 16.8034 7.5159 16.791C7.52211 16.7786 7.52544 16.7648 7.52563 16.751C7.52563 16.6689 7.5769 16.628 7.6538 16.6177C7.86913 16.5971 7.85887 16.2383 7.85374 16.0845Z" fill="#B39976"/>
<path d="M11.0268 16.0845C11.114 16.0845 11.16 16.1204 11.16 16.2024C11.16 16.2332 11.1499 16.264 11.1344 16.2896C11.1152 16.3137 11.0879 16.3301 11.0575 16.3358C10.8217 16.3716 10.5757 16.387 10.3296 16.3562C10.1962 16.3459 10.1552 16.2691 10.2117 16.1357L11.0319 16.0845H11.0268Z" fill="#743940"/>
<path d="M14.6559 16.6125C14.784 16.4639 14.7738 16.2743 14.8866 16.1307C14.8934 16.1227 14.9022 16.1166 14.9121 16.113C14.9219 16.1094 14.9326 16.1085 14.943 16.1101C14.9549 16.1131 14.9657 16.1196 14.9738 16.1287C14.9821 16.1379 14.9875 16.1492 14.9891 16.1614C15.0352 16.3768 15.0403 16.6125 15.0096 16.8689C14.984 17.0636 14.825 17.2175 14.6918 17.3303C14.681 17.3405 14.6676 17.3474 14.653 17.35C14.6384 17.3528 14.6235 17.3512 14.6097 17.3457C14.5379 17.3149 14.5072 17.2585 14.5278 17.1765C14.5534 17.0483 14.5687 16.9201 14.579 16.7971C14.5829 16.7287 14.6101 16.6636 14.6559 16.6125Z" fill="#E6704E"/>
<path d="M9.93522 16.1512C9.98654 16.2075 10.0071 16.264 9.98139 16.3203C9.97744 16.3294 9.9711 16.3371 9.96285 16.3425C9.95472 16.348 9.94515 16.3509 9.93534 16.3511C9.80711 16.3665 9.67894 16.3459 9.56102 16.2896C9.53027 16.2691 9.51488 16.2434 9.52002 16.2127C9.52002 16.1974 9.53027 16.1819 9.54052 16.1665C9.55315 16.1548 9.56941 16.1475 9.58666 16.146C9.69945 16.1256 9.81736 16.1256 9.93534 16.146L9.93522 16.1512Z" fill="#D8C5A9"/>
<path d="M14.0103 17.5508C14.0616 17.5508 14.0769 17.5867 14.0616 17.6533C14.0501 17.6822 14.0327 17.7084 14.0103 17.7302C13.8975 17.8481 13.7898 17.9608 13.6924 18.0788C13.6761 18.0959 13.6543 18.1067 13.6308 18.1095C13.6104 18.1147 13.5899 18.1095 13.5694 18.0994C13.554 18.0891 13.554 18.0685 13.5642 18.0326L14.0103 17.5508Z" fill="#743940"/>
<path d="M8.31467 17.9967L8.71456 18.8427C8.7607 18.9708 8.81709 19.0939 8.88375 19.2016C8.97704 19.3554 9.05762 19.5165 9.1247 19.6834C9.13496 19.7244 9.16059 19.7552 9.20673 19.7758C9.22211 19.7861 9.23749 19.8014 9.24774 19.8219C9.26825 19.868 9.29389 19.9039 9.31951 19.9296L9.65276 20.2526C9.84245 20.4473 10.0167 20.6268 10.2423 20.7755C10.3449 20.8421 10.4474 20.919 10.5449 20.9908C10.6217 21.0523 10.714 21.0933 10.8011 21.1446C10.9446 21.2368 11.1139 21.2676 11.2728 21.3241C11.4062 21.3753 11.4932 21.4932 11.6368 21.5035H12.1546C12.2725 21.4932 12.3494 21.4522 12.4519 21.401C12.5185 21.3753 12.5955 21.3497 12.6775 21.3342C12.8825 21.2882 13.0774 21.2164 13.2723 21.1139C13.2107 21.1856 13.2055 21.2523 13.2569 21.3138C13.2671 21.3292 13.2825 21.3394 13.3081 21.3394H13.5644C13.4107 21.4163 13.2055 21.4881 12.939 21.5445C12.8365 21.5701 12.734 21.6112 12.6109 21.6675C12.5032 21.7188 12.3904 21.7496 12.2776 21.7547C11.8983 21.7803 11.524 21.7547 11.1754 21.6163C11.0216 21.5547 10.878 21.5239 10.7293 21.4214C10.6012 21.3292 10.473 21.2523 10.3653 21.1856C10.2116 21.0984 10.0219 20.9396 9.79118 20.7088L8.72995 19.6425C8.65817 19.5707 8.57615 19.4784 8.48899 19.3707C8.41208 19.2733 8.33519 19.181 8.25316 19.0939C8.17626 18.9811 8.0891 18.8889 8.03271 18.7658L7.77637 18.2582L7.88403 18.3915L7.96093 18.4941C8.04809 18.6377 8.28392 18.6222 8.34031 18.4479C8.36594 18.3607 8.36082 18.207 8.31467 17.9917V17.9967Z" fill="#8A6E4C"/>
<path d="M10.6323 18.0839C10.704 18.1095 10.7296 18.1454 10.7092 18.2019C10.6949 18.2376 10.6698 18.2682 10.6374 18.289C10.4631 18.4018 10.3656 18.6325 10.1094 18.5505C10.0325 18.53 9.97601 18.4633 9.95041 18.3607C9.92374 18.2702 9.92553 18.1735 9.95556 18.0839H10.6323Z" fill="#FCA471"/>
<path d="M17.1486 18.4582C17.1229 18.5249 17.1076 18.5966 17.0922 18.6633C17.0717 18.735 17.046 18.8068 17.0153 18.8683C16.9127 19.0733 16.8051 19.2938 16.6564 19.4784C16.4236 19.7751 16.157 20.0435 15.8617 20.2782C15.6054 20.4832 15.2927 20.6371 14.9338 20.7447C14.98 20.6268 15.0722 20.4628 15.2158 20.2526C15.2875 20.1449 15.2671 20.0474 15.1646 19.9501C15.1577 19.9438 15.1495 19.9392 15.1406 19.9365C15.1318 19.9338 15.1224 19.9332 15.1132 19.9346C15.0372 19.9504 14.9665 19.9857 14.9082 20.0373C15.0107 19.9346 15.0928 19.8321 15.1594 19.7091L15.4158 19.504C15.6157 19.6271 15.8105 19.6066 16.0053 19.4374C16.1797 19.2836 16.3129 19.1554 16.4975 18.9555C16.6859 18.7539 16.9058 18.5842 17.1486 18.4531V18.4582Z" fill="#8A6E4C"/>
<path d="M14.7951 19.7758C14.7936 19.7878 14.7895 19.7996 14.7834 19.8101C14.7772 19.8206 14.7691 19.83 14.7592 19.8373C14.7412 19.8478 14.7241 19.8597 14.708 19.8731C14.6863 19.9026 14.6769 19.9395 14.6823 19.9757C14.6823 20.0064 14.7029 20.0167 14.7336 20.0115C14.7592 20.0014 14.7848 19.9859 14.7951 19.9603C14.7987 19.9521 14.8043 19.9448 14.8115 19.9394C14.8187 19.934 14.8272 19.9307 14.8362 19.9296C14.9079 19.9245 14.9541 19.9039 14.9746 19.8783C15.0309 19.8168 15.0925 19.7603 15.1591 19.7091C15.0925 19.8321 15.0105 19.9398 14.9079 20.0321C14.7848 20.1449 14.6619 20.2628 14.5388 20.391C14.4876 20.4422 14.4363 20.4935 14.3851 20.5242C14.2312 20.6268 14.098 20.7191 13.9236 20.7909C13.775 20.8524 13.6467 20.96 13.4879 21.0215L13.2726 21.1139C13.0777 21.2164 12.8828 21.2882 12.6778 21.3342C12.6005 21.3508 12.5249 21.3749 12.4522 21.406C12.3497 21.447 12.2728 21.4932 12.1549 21.4983C11.9805 21.5086 11.8062 21.5086 11.6422 21.4983C11.4935 21.4983 11.4064 21.3753 11.2782 21.3241C11.1142 21.2727 10.9449 21.2368 10.7964 21.1446C10.7143 21.0933 10.6219 21.0523 10.54 20.9908C10.4425 20.919 10.3451 20.8421 10.2426 20.7755C10.017 20.6216 9.84273 20.4473 9.65304 20.2526L9.31979 19.9296C9.28886 19.8989 9.26444 19.8623 9.24802 19.8219C9.24043 19.8021 9.22585 19.7856 9.20701 19.7758C9.18676 19.7669 9.16883 19.7535 9.1546 19.7366C9.14038 19.7198 9.13024 19.6998 9.12499 19.6784C9.04516 19.5192 8.96485 19.3602 8.88403 19.2016C8.81551 19.088 8.75882 18.9678 8.71484 18.8427C8.79687 18.9452 8.85839 19.0529 8.90453 19.1708C8.94555 19.2733 9.01219 19.3503 9.03783 19.4528C9.04808 19.4784 9.05833 19.499 9.07371 19.5143C9.14549 19.5656 9.20188 19.6374 9.25315 19.7091C9.264 19.7227 9.2781 19.7333 9.29417 19.7399L9.36594 19.7962C9.3762 19.8117 9.39157 19.8168 9.4172 19.8168H9.45822C9.48898 19.8168 9.49924 19.8065 9.48898 19.7758C9.47132 19.7265 9.46433 19.6741 9.46847 19.6219C9.46859 19.6048 9.47345 19.5882 9.48249 19.5737C9.49155 19.5592 9.50444 19.5475 9.51974 19.5399C9.53356 19.5335 9.54875 19.5307 9.56396 19.5315C9.57917 19.5324 9.59392 19.5371 9.60689 19.545L9.87346 19.7193C9.88889 19.7296 9.90935 19.7347 9.92478 19.7296C10.0836 19.7244 10.2426 19.745 10.4016 19.745C10.5297 19.745 10.6733 19.7502 10.8373 19.7655C11.1496 19.7877 11.4634 19.7565 11.7653 19.6732C11.7762 19.6581 11.7833 19.6405 11.7858 19.6219C11.7856 19.6173 11.7866 19.6125 11.7883 19.6081C11.7901 19.6037 11.7927 19.5997 11.7961 19.5963C11.8472 19.5502 11.9139 19.5246 11.9806 19.5091C12.1041 19.4839 12.2168 19.4212 12.3036 19.3297C12.3445 19.2887 12.3395 19.2733 12.2779 19.2785C12.0831 19.3144 11.8883 19.3656 11.6935 19.4476C11.6451 19.4705 11.593 19.4845 11.5397 19.4887C11.5294 19.4784 11.5346 19.4732 11.5397 19.4681L12.1446 19.2272C12.2677 19.181 12.3702 19.1247 12.442 19.0683C12.5291 18.9965 12.6163 18.9298 12.7137 18.8632C12.7752 18.8221 12.8265 18.7761 12.8675 18.7299C12.9187 18.6684 12.9853 18.6222 13.0674 18.5812C13.0717 18.5786 13.0765 18.5769 13.0815 18.5762C13.0866 18.5756 13.0917 18.5759 13.0965 18.5775C13.1014 18.5789 13.1058 18.5813 13.1096 18.5847C13.1135 18.5879 13.1166 18.5921 13.1187 18.5966V18.6171C13.1187 18.6684 13.0982 18.7043 13.0674 18.735L12.6983 19.0632C12.5957 19.1503 12.447 19.3041 12.3138 19.4117C12.1805 19.5143 12.0215 19.545 11.8831 19.6425C11.7653 19.7244 11.6319 19.745 11.4935 19.7861C11.4727 19.7923 11.4539 19.8042 11.4395 19.8205C11.425 19.8369 11.4153 19.8569 11.4115 19.8783C11.4076 19.8991 11.4094 19.9205 11.4166 19.9402C11.4238 19.9601 11.4362 19.9777 11.4525 19.9911C11.5294 20.0526 11.6474 20.0833 11.8165 20.0782C11.8575 20.0782 11.878 20.0936 11.8883 20.1295L11.8831 20.1705C11.8764 20.1887 11.8647 20.2047 11.8493 20.2165C11.8339 20.2283 11.8153 20.2355 11.7961 20.2372C11.7007 20.2511 11.605 20.2614 11.509 20.2679C11.3859 20.2782 11.391 20.4114 11.4473 20.4884C11.5704 20.6627 11.7344 20.76 11.9242 20.7806C12.4881 20.8369 13.0162 20.6268 13.5647 20.4473C13.7749 20.3756 13.9493 20.2526 14.1595 20.1808C14.4466 20.0782 14.5747 19.9245 14.7951 19.7758Z" fill="#743940"/>
<path d="M13.5693 19.1503C13.5027 19.2272 13.4515 19.3041 13.3797 19.3759C13.1848 19.5553 13.0054 19.6834 12.8311 19.7603C12.749 19.7962 12.6773 19.8424 12.6106 19.8937C12.503 19.9808 12.3543 20.0218 12.1748 20.027C12.1287 20.027 12.1185 20.0064 12.139 19.9655C12.1903 19.8731 12.3133 19.8629 12.3953 19.8321C12.5337 19.7911 12.6517 19.6784 12.7746 19.6015C12.867 19.5502 12.9132 19.4476 13.0105 19.3963C13.1848 19.2938 13.3335 19.1964 13.4463 19.0888C13.4771 19.0683 13.5078 19.0426 13.5437 19.0273C13.5693 19.017 13.5847 19.0273 13.595 19.0529C13.595 19.0888 13.595 19.1247 13.5693 19.1503ZM14.3076 19.499C14.2204 19.586 14.1641 19.6732 14.1845 19.6937C14.2 19.7091 14.287 19.6527 14.3691 19.5604C14.4563 19.4681 14.5127 19.381 14.4922 19.3656C14.4768 19.3451 14.3896 19.4066 14.3076 19.499Z" fill="#743940"/>
<path d="M14.9331 20.7447C14.5948 20.9087 14.3487 21.037 14.1846 21.1343C13.9795 21.2523 13.7744 21.3241 13.5642 21.3394H13.3079C13.2979 21.3396 13.288 21.3373 13.2792 21.3329C13.2702 21.3285 13.2625 21.3219 13.2567 21.3138C13.2053 21.2523 13.2105 21.1857 13.2721 21.1139L13.4874 21.0215C13.6411 20.96 13.7745 20.8524 13.9282 20.7909C14.0975 20.7191 14.2359 20.6268 14.3846 20.5243C14.4358 20.4884 14.4871 20.4422 14.5383 20.391C14.6614 20.2628 14.7844 20.1449 14.9075 20.0321C14.9792 19.9808 15.0459 19.9449 15.1125 19.9346C15.1279 19.9346 15.1484 19.9346 15.1638 19.9501C15.2663 20.0423 15.2868 20.1449 15.215 20.2526C15.0715 20.4576 14.9792 20.6268 14.9331 20.7447Z" fill="#B39976"/>
</svg>
