<svg width="24" height="24" viewBox="0 0 24 24" fill="none" xmlns="http://www.w3.org/2000/svg">
<path d="M12 18.7509C15.7549 18.7509 18.7989 15.707 18.7989 11.9521C18.7989 8.19716 15.7549 5.15321 12 5.15321C8.2451 5.15321 5.20115 8.19716 5.20115 11.9521C5.20115 15.707 8.2451 18.7509 12 18.7509Z" fill="url(#paint0_linear_59_72221)"/>
<path fill-rule="evenodd" clip-rule="evenodd" d="M11.9996 18.8469C15.7813 18.8469 18.8464 15.7818 18.8464 12.0001C18.8464 8.21878 15.7817 5.15321 12 5.15321C8.2183 5.15321 5.15272 8.21878 5.15272 12.0001C5.15272 15.7818 8.21787 18.8469 11.9996 18.8469ZM11.9996 18.4286C15.5499 18.4286 18.4282 15.5504 18.4282 12.0001C18.4282 8.44978 15.5499 5.5715 11.9996 5.5715C8.4493 5.5715 5.57101 8.44978 5.57101 12.0001C5.57101 15.5504 8.4493 18.4286 11.9996 18.4286Z" fill="#FF7534"/>
<path fill-rule="evenodd" clip-rule="evenodd" d="M11.9996 19.2858C16.0234 19.2858 19.2853 16.0239 19.2853 12.0001C19.2853 7.97621 16.0234 4.71436 11.9996 4.71436C7.97572 4.71436 4.71387 7.97621 4.71387 12.0001C4.71387 16.0239 7.97572 19.2858 11.9996 19.2858ZM11.9996 18.8572C15.7869 18.8572 18.8567 15.7874 18.8567 12.0001C18.8567 8.21278 15.7869 5.14293 11.9996 5.14293C8.2123 5.14293 5.14244 8.21278 5.14244 12.0001C5.14244 15.7874 8.2123 18.8572 11.9996 18.8572Z" fill="#FFD58D"/>
<path fill-rule="evenodd" clip-rule="evenodd" d="M10.1035 11.3265L9.40405 12.1639L10.3876 12.5325C10.4005 12.9036 10.4896 13.0583 10.5325 13.0896L10.1583 13.4359L10.5325 13.8182L10.9011 13.4359C11.1056 13.5111 11.3248 13.5375 11.5413 13.513L11.8863 14.518L12.7529 13.7295L12.9698 12.7648C14.9712 10.9442 15.1958 9.49132 15.0578 8.99204C13.2848 8.86604 11.699 10.3249 11.1278 11.0706L10.1035 11.3265ZM10.1463 14.17L7.17591 16.9103L6.86219 16.5705L9.83262 13.8298L10.1468 14.17H10.1463ZM9.19405 14.2335L6.75676 16.4616L6.44434 16.12L8.88162 13.8915L9.19405 14.2335ZM10.0748 15.0863L7.61648 17.3462L7.30362 17.0055L9.76148 14.746L10.0743 15.0868L10.0748 15.0863ZM12.7276 11.7876C12.8795 11.7876 13.0252 11.7273 13.1326 11.6198C13.2401 11.5124 13.3004 11.3667 13.3004 11.2148C13.3004 11.0629 13.2401 10.9172 13.1326 10.8098C13.0252 10.7024 12.8795 10.642 12.7276 10.642C12.5757 10.642 12.43 10.7024 12.3226 10.8098C12.2152 10.9172 12.1548 11.0629 12.1548 11.2148C12.1548 11.3667 12.2152 11.5124 12.3226 11.6198C12.43 11.7273 12.5757 11.7876 12.7276 11.7876Z" fill="white"/>
<defs>
<linearGradient id="paint0_linear_59_72221" x1="5.88866" y1="16.8838" x2="19.2853" y2="7.01939" gradientUnits="userSpaceOnUse">
<stop stop-color="#FB9533"/>
<stop offset="0.261" stop-color="#FEBA67"/>
<stop offset="0.747" stop-color="#FF9976"/>
<stop offset="1" stop-color="#FF6350"/>
</linearGradient>
</defs>
</svg>
