<svg width="24" height="24" viewBox="0 0 24 24" fill="none" xmlns="http://www.w3.org/2000/svg">
<path d="M7.71387 10.8513C7.70958 11.6099 7.14815 12.2227 6.37244 12.2142L7.63244 14.1427H8.14244V14.5713H6.42815V14.1427H6.9853L5.79387 12.2142H4.71387V14.1427H5.14244V14.5713H3.85672V14.1427H4.2853V9.85701H3.85672V9.42844H6.26958C7.08387 9.42844 7.7053 10.0242 7.71387 10.8513ZM6.23958 9.85701H4.71387V11.7856H6.34244C6.58766 11.7773 6.82077 11.677 6.99545 11.5047C7.17013 11.3324 7.2736 11.1007 7.2853 10.8556C7.30672 10.3284 6.77101 9.85701 6.23958 9.85701ZM10.671 11.6442C11.1982 11.777 11.8967 11.9827 12.2139 12.4242C12.2996 12.5484 12.3596 12.6856 12.3853 12.8356C12.4282 12.977 12.4367 13.127 12.4196 13.277C12.3939 13.4484 12.3339 13.607 12.2482 13.7527C12.1624 13.8984 12.0596 14.0227 11.931 14.1299C11.5563 14.4332 11.0842 14.5901 10.6024 14.5713H10.5682C9.99648 14.5532 9.44611 14.3501 8.99958 13.9927V14.5713H8.57101V12.857H8.99958V13.277C9.34672 13.8342 10.131 14.1427 10.7396 14.1427C11.3053 14.1342 12.1196 13.6584 11.9996 13.0027C11.8796 12.4542 11.0353 12.2013 10.5682 12.0899L10.3196 12.0213L10.2724 12.0084C9.57815 11.8284 8.75958 11.6184 8.7853 10.7227C8.76815 9.81844 9.58672 9.42844 10.3582 9.42844C10.8724 9.4413 11.1596 9.60416 11.571 9.90416V9.42844H11.9996V11.1427H11.571V10.5856C11.2024 10.0713 10.8553 9.86558 10.3582 9.85701C9.87815 9.85701 9.25672 10.1613 9.21387 10.7227C9.24815 11.2584 9.78815 11.3999 10.2639 11.5199C10.4139 11.5627 10.5553 11.597 10.671 11.6442ZM19.371 11.8156C19.8553 11.9827 20.1424 12.4242 20.1424 13.0713C20.1424 13.9927 19.341 14.5713 18.381 14.5713C18.0694 14.5695 17.7613 14.5052 17.475 14.3823C17.1886 14.2593 16.9298 14.0802 16.7139 13.8556L17.0353 13.4484L17.0653 13.4827C17.2278 13.678 17.429 13.8374 17.6562 13.951C17.8834 14.0646 18.1316 14.1299 18.3853 14.1427C19.0882 14.1427 19.6882 13.6842 19.7182 13.037C19.7182 12.4584 19.1867 11.9999 18.5439 11.9999H17.9996V11.5713H18.5096C19.0239 11.5713 19.4996 11.2713 19.4996 10.757C19.4996 10.2127 19.0196 9.85701 18.3467 9.85701C17.8024 9.85701 17.5153 10.1442 17.3224 10.4142L16.9367 10.1784C17.0824 9.937 17.2909 9.73967 17.54 9.60757C17.7891 9.47547 18.0694 9.41355 18.351 9.42844C19.2767 9.42844 19.9282 9.82701 19.9282 10.7142C19.9282 11.1213 19.791 11.5713 19.371 11.8113V11.8156ZM16.4996 12.4242C16.1824 11.9827 15.4839 11.7813 14.9567 11.6442C14.841 11.597 14.6996 11.5584 14.5496 11.5199C14.0782 11.3999 13.5339 11.2584 13.4996 10.7227C13.5424 10.1656 14.1639 9.85701 14.6439 9.85701C15.141 9.86558 15.4882 10.0713 15.8567 10.5856V11.1427H16.2853V9.42844H15.8567V9.90416C15.4453 9.60416 15.1582 9.4413 14.6439 9.42844C13.8724 9.42844 13.0582 9.81416 13.071 10.7227C13.0453 11.6184 13.8639 11.8284 14.5582 12.0084L14.6053 12.0213L14.8539 12.0899C15.3253 12.2013 16.1653 12.4542 16.2853 13.0027C16.4053 13.6584 15.591 14.1342 15.0253 14.1427C14.4167 14.1427 13.6324 13.8299 13.2853 13.277V12.857H12.8567V14.5713H13.2853V13.9927C13.7318 14.3501 14.2822 14.5532 14.8539 14.5713H14.8882C15.1667 14.5713 15.7624 14.537 16.2167 14.1299C16.3453 14.0227 16.4524 13.8984 16.5339 13.7527C16.6196 13.607 16.6796 13.4442 16.7053 13.277C16.7224 13.127 16.7096 12.977 16.671 12.8356C16.6453 12.6856 16.5853 12.5484 16.4996 12.4242ZM1.71387 11.5713H2.99958V12.4284H1.71387V11.5713ZM20.9996 11.5713H22.2853V12.4284H20.9996V11.5713Z" fill="#0B70FF"/>
</svg>
