<svg width="24" height="24" viewBox="0 0 24 24" fill="none" xmlns="http://www.w3.org/2000/svg">
<path d="M9.88244 10.1228L10.5853 9.82707C10.5853 9.45421 10.7139 9.08564 10.9753 8.72135C11.7039 7.65875 12.7774 6.88056 14.0139 6.51849C14.211 6.46278 14.3567 6.38992 14.4553 6.31278C14.9396 5.90564 14.5582 5.15564 13.9539 5.19849C13.8424 5.20707 13.7096 5.24992 13.551 5.32278C11.8255 6.15019 10.2757 7.30267 8.98672 8.71707C8.64218 9.09833 8.34303 9.51828 8.0953 9.96849C7.84054 10.3928 7.68066 10.8673 7.62666 11.3592C7.57265 11.8512 7.62579 12.349 7.78244 12.8185C7.79101 12.4628 7.80815 12.2356 7.84244 12.1328C8.01186 11.5973 8.34453 11.1283 8.79387 10.7914C9.13053 10.5284 9.49568 10.3041 9.88244 10.1228Z" fill="url(#paint0_linear_59_73907)"/>
<path d="M7.21672 8.93564C7.08815 8.78135 6.96815 8.67421 6.85672 8.60564C6.51387 8.40421 6.07672 8.55421 5.80244 8.79849C5.77244 8.82421 5.75101 8.81564 5.73387 8.76849C6.15266 8.04402 6.69852 7.40089 7.3453 6.86992C8.17666 6.19685 9.09313 5.63631 10.071 5.20278C10.4824 5.02278 11.001 5.26278 10.9839 5.74707C10.971 6.13278 10.7396 6.30421 10.3967 6.44992C9.13974 6.98979 8.04412 7.8462 7.21672 8.93564Z" fill="#15BDE8"/>
<path d="M14.8496 8.39135C15.5482 8.42564 16.2124 8.66564 16.8467 9.11135C17.1966 9.35552 17.4943 9.667 17.7225 10.0276C17.9506 10.3882 18.1045 10.7906 18.1753 11.2114C18.2053 11.3528 18.2953 11.4728 18.4496 11.5714C18.7239 11.7428 19.101 11.6142 19.2296 11.3314C19.281 11.2114 19.2982 11.0699 19.2724 10.9028C19.1063 9.88397 18.5857 8.95657 17.8024 8.28421C17.2473 7.75217 16.5659 7.37018 15.8224 7.17421C15.3115 7.06544 14.7875 7.0308 14.2667 7.07135C13.9539 7.08849 13.6796 7.20421 13.5682 7.50849C13.4739 7.77421 13.5253 8.00135 13.7139 8.19421C13.8467 8.33135 13.9924 8.39564 14.1467 8.39135C14.4124 8.38278 14.6482 8.38278 14.8496 8.39135ZM15.8782 7.79992C15.8782 7.92849 15.771 8.03992 15.6382 8.03992C15.6063 8.04049 15.5746 8.03471 15.545 8.0229C15.5154 8.01109 15.4884 7.99351 15.4657 7.97116C15.4429 7.94882 15.4249 7.92217 15.4125 7.89277C15.4002 7.86337 15.3939 7.8318 15.3939 7.79992C15.3939 7.66707 15.501 7.55564 15.6382 7.55564C15.771 7.55564 15.8782 7.66707 15.8782 7.79992Z" fill="url(#paint1_linear_59_73907)"/>
<path d="M9.85672 9.42849C9.97039 9.42849 10.0794 9.38334 10.1598 9.30297C10.2401 9.2226 10.2853 9.11359 10.2853 8.99992C10.2853 8.88626 10.2401 8.77725 10.1598 8.69688C10.0794 8.6165 9.97039 8.57135 9.85672 8.57135C9.74306 8.57135 9.63405 8.6165 9.55368 8.69688C9.47331 8.77725 9.42815 8.88626 9.42815 8.99992C9.42815 9.11359 9.47331 9.2226 9.55368 9.30297C9.63405 9.38334 9.74306 9.42849 9.85672 9.42849ZM13.1439 9.05564L13.7267 9.06421C14.2753 9.07278 14.8067 9.16707 15.321 9.34278C15.3682 9.35992 15.4196 9.40278 15.4624 9.42849C15.1496 9.76707 15.1067 10.1271 14.6096 10.1571C14.4082 10.1656 14.1896 10.1828 13.9582 10.2085C13.3753 10.2685 13.0239 10.5856 12.9082 11.1556C12.5653 11.1385 12.2139 11.1256 11.8624 11.1299C11.0482 11.1299 10.1824 11.2885 9.4453 11.6099C8.93101 11.8371 8.28815 12.2999 8.18958 12.8956C8.14672 13.1442 8.20244 13.3714 8.35672 13.5856L8.56244 13.8771C8.20151 13.6111 7.92958 13.242 7.78244 12.8185C7.79101 12.4628 7.80815 12.2356 7.84244 12.1328C8.01186 11.5973 8.34453 11.1283 8.79387 10.7914C9.13053 10.5284 9.49568 10.3041 9.88244 10.1228L10.5853 9.82707C10.6496 10.0842 10.7867 10.2556 11.0053 10.3542C11.3053 10.4828 11.6353 10.4142 11.8196 10.1356C11.9182 9.98135 12.0082 9.77564 12.0767 9.52278C12.5996 9.71564 12.9553 9.56135 13.1482 9.05564H13.1439Z" fill="#FF0B46"/>
<path d="M7.4053 9.35564C7.62387 9.86992 7.50815 10.2556 7.05387 10.5171C6.80529 10.6628 6.56101 10.6328 6.30815 10.4314C6.26101 9.97707 6.43672 9.61707 6.83101 9.35992C7.06244 9.21421 7.1953 9.33849 7.4053 9.35564Z" fill="#069EF5"/>
<path d="M17.7296 11.8585L17.721 11.9142C17.7124 11.9571 17.7039 11.9571 17.6867 11.9142C17.6588 11.8364 17.6229 11.7618 17.5796 11.6914C17.3224 11.2714 16.7396 10.6885 16.191 10.6714C16.0496 10.6671 15.921 10.6714 15.7967 10.7014C15.711 10.7185 15.6167 10.7571 15.5139 10.8171C15.453 10.8512 15.4015 10.8997 15.3639 10.9585C15.321 11.0271 15.2782 11.0871 15.2224 11.1428C15.1839 11.1856 15.1539 11.2285 15.1282 11.2799C15.0724 11.3828 15.0853 11.4428 15.1539 11.4599L14.4982 11.4985C14.3824 11.5071 14.3053 11.5028 14.271 11.4899C13.7353 11.3014 13.3796 11.2456 12.9082 11.1556C13.0239 10.5856 13.3753 10.2685 13.9582 10.2085C14.1896 10.1828 14.4082 10.1656 14.6096 10.1571C15.1067 10.1271 15.1496 9.76707 15.4624 9.42849L15.4967 9.42849C16.1879 9.71965 16.7865 10.1938 17.2282 10.7999C17.451 11.1085 17.6182 11.4599 17.7296 11.8585Z" fill="#15BDE8"/>
<path d="M17.7296 11.8585L17.721 11.9142C17.7124 11.9571 17.7039 11.9571 17.6867 11.9142C17.6588 11.8364 17.6229 11.7618 17.5796 11.6914C17.3224 11.2714 16.7396 10.6885 16.191 10.6714C16.0496 10.6671 15.9167 10.6714 15.7967 10.7014C15.711 10.7185 15.6167 10.7571 15.5139 10.8171C15.453 10.8512 15.4015 10.8997 15.3639 10.9585C15.321 11.0271 15.2782 11.0871 15.2224 11.1428C15.1839 11.1856 15.1539 11.2285 15.1282 11.2799C15.0724 11.3828 15.0853 11.4428 15.1539 11.4599C15.9982 11.5628 16.521 11.9956 16.7224 12.7585L16.7396 12.8871C16.7567 12.9985 16.7696 13.1014 16.7482 13.2256C16.687 13.5928 16.5293 13.937 16.2914 14.2232C16.0534 14.5093 15.7437 14.7271 15.3939 14.8542C15.3339 14.8799 15.2739 14.8971 15.2096 14.9185C15.0339 14.9785 14.8582 15.0342 14.721 15.1585C14.3782 15.4714 14.6867 16.0585 15.141 15.9685C15.6423 15.8809 16.1169 15.6797 16.5285 15.3803C16.94 15.081 17.2776 14.6913 17.5153 14.2414C17.716 13.8814 17.8389 13.4832 17.8758 13.0727C17.9127 12.6622 17.8629 12.2485 17.7296 11.8585Z" fill="url(#paint2_linear_59_73907)"/>
<path d="M7.21672 8.93564L7.4053 9.35564C7.34728 9.34914 7.28992 9.33767 7.23387 9.32135C7.1053 9.28707 6.99387 9.25707 6.83101 9.36421C6.64632 9.46962 6.49767 9.62821 6.40441 9.81932C6.31115 10.0104 6.27761 10.2252 6.30815 10.4356C6.27815 10.4314 6.26101 10.4442 6.25672 10.4785C6.21387 10.8642 6.21387 11.2628 6.2653 11.6785C6.61672 13.3199 7.63672 14.4899 9.18387 15.0556C9.44101 15.1499 9.56958 15.3985 9.4753 15.6556C9.35958 15.9642 9.05101 16.0328 8.75958 15.9428C6.83958 15.3642 5.14244 13.4142 5.14244 11.3571C5.1253 10.8599 5.12958 10.4399 5.2153 9.98564C5.2453 9.84849 5.30101 9.67707 5.38672 9.47135L5.72958 8.76849C5.75101 8.81135 5.77244 8.82421 5.80244 8.79849C6.07672 8.55421 6.51815 8.40421 6.85672 8.60564C6.96815 8.67421 7.08815 8.78135 7.21672 8.93564Z" fill="url(#paint3_linear_59_73907)"/>
<path d="M4.92815 14.9999C4.98499 14.9999 5.03949 14.9773 5.07968 14.9372C5.11986 14.897 5.14244 14.8425 5.14244 14.7856C5.14244 14.7288 5.11986 14.6743 5.07968 14.6341C5.03949 14.5939 4.98499 14.5714 4.92815 14.5714C4.87132 14.5714 4.81682 14.5939 4.77663 14.6341C4.73644 14.6743 4.71387 14.7288 4.71387 14.7856C4.71387 14.8425 4.73644 14.897 4.77663 14.9372C4.81682 14.9773 4.87132 14.9999 4.92815 14.9999Z" fill="#055FC9"/>
<path d="M19.071 14.5714C19.1278 14.5714 19.1823 14.5488 19.2225 14.5086C19.2627 14.4684 19.2853 14.4139 19.2853 14.3571C19.2853 14.3002 19.2627 14.2457 19.2225 14.2055C19.1823 14.1654 19.1278 14.1428 19.071 14.1428C19.0142 14.1428 18.9597 14.1654 18.9195 14.2055C18.8793 14.2457 18.8567 14.3002 18.8567 14.3571C18.8567 14.4139 18.8793 14.4684 18.9195 14.5086C18.9597 14.5488 19.0142 14.5714 19.071 14.5714ZM5.7853 17.1428C5.95579 17.1428 6.11931 17.0751 6.23986 16.9545C6.36042 16.8339 6.42815 16.6704 6.42815 16.4999C6.42815 16.3294 6.36042 16.1659 6.23986 16.0454C6.11931 15.9248 5.95579 15.8571 5.7853 15.8571C5.6148 15.8571 5.45129 15.9248 5.33073 16.0454C5.21017 16.1659 5.14244 16.3294 5.14244 16.4999C5.14244 16.6704 5.21017 16.8339 5.33073 16.9545C5.45129 17.0751 5.6148 17.1428 5.7853 17.1428Z" fill="#091B4B"/>
<path d="M18.6424 17.1428C18.8129 17.1428 18.9764 17.0751 19.097 16.9545C19.2176 16.8339 19.2853 16.6704 19.2853 16.4999C19.2853 16.3294 19.2176 16.1659 19.097 16.0454C18.9764 15.9248 18.8129 15.8571 18.6424 15.8571C18.4719 15.8571 18.3084 15.9248 18.1879 16.0454C18.0673 16.1659 17.9996 16.3294 17.9996 16.4999C17.9996 16.6704 18.0673 16.8339 18.1879 16.9545C18.3084 17.0751 18.4719 17.1428 18.6424 17.1428Z" fill="#FFC302"/>
<path d="M16.4996 16.7142C16.5564 16.7142 16.6109 16.6916 16.6511 16.6514C16.6913 16.6113 16.7139 16.5568 16.7139 16.4999C16.7139 16.4431 16.6913 16.3886 16.6511 16.3484C16.6109 16.3082 16.5564 16.2856 16.4996 16.2856C16.4428 16.2856 16.3882 16.3082 16.3481 16.3484C16.3079 16.3886 16.2853 16.4431 16.2853 16.4999C16.2853 16.5568 16.3079 16.6113 16.3481 16.6514C16.3882 16.6916 16.4428 16.7142 16.4996 16.7142Z" fill="#0171E5"/>
<path d="M7.49958 16.7142C7.55641 16.7142 7.61092 16.6916 7.6511 16.6514C7.69129 16.6113 7.71387 16.5568 7.71387 16.4999C7.71387 16.4431 7.69129 16.3886 7.6511 16.3484C7.61092 16.3082 7.55641 16.2856 7.49958 16.2856C7.44275 16.2856 7.38824 16.3082 7.34806 16.3484C7.30787 16.3886 7.2853 16.4431 7.2853 16.4999C7.2853 16.5568 7.30787 16.6113 7.34806 16.6514C7.38824 16.6916 7.44275 16.7142 7.49958 16.7142Z" fill="#FEA805"/>
<path d="M15.4282 17.5714C15.5418 17.5714 15.6508 17.5262 15.7312 17.4458C15.8116 17.3655 15.8567 17.2564 15.8567 17.1428C15.8567 17.0291 15.8116 16.9201 15.7312 16.8397C15.6508 16.7594 15.5418 16.7142 15.4282 16.7142C15.3145 16.7142 15.2055 16.7594 15.1251 16.8397C15.0447 16.9201 14.9996 17.0291 14.9996 17.1428C14.9996 17.2564 15.0447 17.3655 15.1251 17.4458C15.2055 17.5262 15.3145 17.5714 15.4282 17.5714Z" fill="#FF0B46"/>
<path d="M8.99958 17.9999C9.11325 17.9999 9.22225 17.9548 9.30263 17.8744C9.383 17.794 9.42815 17.685 9.42815 17.5714C9.42815 17.4577 9.383 17.3487 9.30263 17.2683C9.22225 17.1879 9.11325 17.1428 8.99958 17.1428C8.88592 17.1428 8.77691 17.1879 8.69653 17.2683C8.61616 17.3487 8.57101 17.4577 8.57101 17.5714C8.57101 17.685 8.61616 17.794 8.69653 17.8744C8.77691 17.9548 8.88592 17.9999 8.99958 17.9999Z" fill="#15BDE8"/>
<path d="M10.7139 17.9999V12.8571H11.571V17.1428C11.571 17.3701 11.4807 17.5881 11.32 17.7489C11.1592 17.9096 10.9412 17.9999 10.7139 17.9999Z" fill="#FFA404"/>
<path d="M10.7139 12.8571V11.9999H11.571V12.8571H10.7139Z" fill="#FF0B46"/>
<path d="M12.4282 12.8571V11.9999H13.2853V12.8571H12.4282Z" fill="#0171E5"/>
<path d="M13.2853 18.8571H11.9996C12.351 18.0385 12.4024 17.2971 12.4282 15.8571L12.4282 12.8571H13.2853V18.8571Z" fill="#15BDE8"/>
<path d="M12.9082 11.1556C13.3796 11.2456 13.7353 11.3014 14.271 11.4899C14.4896 11.5714 15.1967 11.8499 15.591 12.2956C15.8996 12.6471 15.9767 13.0242 15.8224 13.4142C15.5439 14.1428 14.6824 14.3656 14.001 14.5842C13.9667 14.5928 13.9282 14.6271 13.9282 14.6656V18.8571H13.2853V17.5714C13.2767 16.5685 13.2767 13.6928 13.2853 13.0714C13.6496 12.6685 14.2624 12.7714 14.4982 13.2771C14.5017 13.2847 14.5069 13.2915 14.5133 13.297C14.5197 13.3026 14.5272 13.3067 14.5353 13.3091C14.5433 13.3115 14.5519 13.3122 14.5602 13.3111C14.5686 13.31 14.5767 13.3072 14.5839 13.3028C14.5927 13.2976 14.6001 13.2902 14.6053 13.2814C14.7167 13.0799 14.7039 12.8956 14.5624 12.7156C14.4561 12.576 14.3046 12.4775 14.1339 12.4371C13.843 12.2854 13.5285 12.184 13.2039 12.1371L12.4239 12.0514H11.6567L10.9367 12.1328C10.5767 12.1842 10.2339 12.2914 9.91244 12.4414C9.72815 12.5056 9.57815 12.6214 9.46244 12.7842C9.43103 12.8268 9.40874 12.8755 9.39694 12.9271C9.38514 12.9787 9.3841 13.0322 9.39387 13.0842C9.40244 13.1571 9.42387 13.2214 9.46244 13.2771C9.5053 13.3542 9.54387 13.3499 9.57387 13.2685C9.7153 12.9256 9.85672 12.8571 10.2853 12.8571C10.7139 12.8571 10.7139 13.5428 10.7139 14.1428C10.7139 14.7856 10.7053 15.9514 10.7139 17.9999L10.071 18.8571V14.6999C10.071 14.6356 10.1139 14.5756 10.0539 14.5628C9.50971 14.4547 8.99873 14.2197 8.56244 13.8771L8.35672 13.5856C8.28246 13.4893 8.22889 13.3787 8.19939 13.2607C8.16989 13.1427 8.16509 13.0199 8.1853 12.8999C8.29244 12.2999 8.9353 11.8371 9.4453 11.6142C10.2104 11.2924 11.0324 11.1277 11.8624 11.1299C12.2139 11.1299 12.5653 11.1385 12.9082 11.1556Z" fill="#091B4B"/>
<path d="M12.6424 9.85707C12.9975 9.85707 13.2853 9.56925 13.2853 9.21421C13.2853 8.85917 12.9975 8.57135 12.6424 8.57135C12.2874 8.57135 11.9996 8.85917 11.9996 9.21421C11.9996 9.56925 12.2874 9.85707 12.6424 9.85707Z" fill="#0E80DB"/>
<defs>
<linearGradient id="paint0_linear_59_73907" x1="18.2663" y1="5.91737" x2="6.58558" y2="18.8678" gradientUnits="userSpaceOnUse">
<stop stop-color="#FFCA02"/>
<stop offset="1" stop-color="#FF9404"/>
</linearGradient>
<linearGradient id="paint1_linear_59_73907" x1="6.38013" y1="6.63787" x2="18.5818" y2="14.1454" gradientUnits="userSpaceOnUse">
<stop stop-color="#FF0D47"/>
<stop offset="1" stop-color="#FE9A04"/>
</linearGradient>
<linearGradient id="paint2_linear_59_73907" x1="12.0116" y1="5.13563" x2="12.0116" y2="18.8553" gradientUnits="userSpaceOnUse">
<stop stop-color="#0E8EEF"/>
<stop offset="1" stop-color="#061B4A"/>
</linearGradient>
<linearGradient id="paint3_linear_59_73907" x1="11.9544" y1="5.14229" x2="11.9544" y2="18.8606" gradientUnits="userSpaceOnUse">
<stop stop-color="#0175EA"/>
<stop offset="1" stop-color="#091D50"/>
</linearGradient>
</defs>
</svg>
