<svg width="24" height="24" viewBox="0 0 24 24" fill="none" xmlns="http://www.w3.org/2000/svg">
<path fill-rule="evenodd" clip-rule="evenodd" d="M18.8567 12.0001C18.8567 13.8187 18.1343 15.5628 16.8483 16.8488C15.5624 18.1348 13.8182 18.8572 11.9996 18.8572C10.181 18.8572 8.43681 18.1348 7.15085 16.8488C5.86489 15.5628 5.14244 13.8187 5.14244 12.0001C5.14244 10.1814 5.86489 8.4373 7.15085 7.15134C8.43681 5.86537 10.181 5.14293 11.9996 5.14293C13.8182 5.14293 15.5624 5.86537 16.8483 7.15134C18.1343 8.4373 18.8567 10.1814 18.8567 12.0001ZM19.2853 12.0001C19.2853 13.9324 18.5177 15.7855 17.1514 17.1518C15.785 18.5182 13.9319 19.2858 11.9996 19.2858C10.0673 19.2858 8.21414 18.5182 6.8478 17.1518C5.48147 15.7855 4.71387 13.9324 4.71387 12.0001C4.71387 10.0678 5.48147 8.21463 6.8478 6.84829C8.21414 5.48196 10.0673 4.71436 11.9996 4.71436C13.9319 4.71436 15.785 5.48196 17.1514 6.84829C18.5177 8.21463 19.2853 10.0678 19.2853 12.0001ZM12.4282 15.8572V15.0001H11.571C10.5424 15.0001 10.2853 14.1429 10.2853 13.7144V9.85721C10.2853 9.1715 11.1424 9.00007 11.571 9.00007H12.4282C13.4567 9.00007 13.7139 9.85721 13.7139 10.2858V10.7144H14.9996V9.85721C14.9996 8.48578 13.2853 8.14293 12.4282 8.14293H11.571C9.51387 8.14293 8.99958 9.28721 8.99958 9.85721V13.7144C8.99958 15.4286 10.7139 15.8572 11.571 15.8572H12.4282ZM14.9996 12.0001H11.9996V12.8572H13.7139V15.8572H14.9996V12.0001Z" fill="#E3BA4F"/>
</svg>
