<svg width="24" height="24" viewBox="0 0 24 24" fill="none" xmlns="http://www.w3.org/2000/svg">
<path d="M9.66401 5.55021L16.4526 12.9645L8.36972 6.17164L8.03972 6.3945L16.2083 13.2516L6.95115 7.35021C6.86115 7.44449 6.77972 7.53878 6.69401 7.64164L16.0026 13.5731L5.89258 8.85878C5.83258 8.97021 5.78115 9.08164 5.72544 9.20164L15.8397 13.9159L5.27544 10.5859L5.20686 10.9631L15.7283 14.2802L5.14258 12.4202L5.17686 12.8102L15.6597 14.6616L5.49401 14.2159C5.53686 14.3445 5.58829 14.4774 5.63972 14.6016L15.6426 15.0431L6.31258 15.8574L6.56972 16.2174L15.6769 15.4202L7.53401 17.2288C7.66258 17.3316 7.79115 17.4345 7.91972 17.5288L15.7626 15.7931L9.07686 18.2274C9.24829 18.3045 9.41972 18.3774 9.59972 18.4416L15.8912 16.1531L10.8469 18.7802C11.0697 18.8145 11.2926 18.8402 11.5197 18.8574L16.0626 16.4916L12.7197 18.8359C13.0197 18.8059 13.3111 18.7502 13.5983 18.6859L16.2854 16.8002L14.5711 18.3731C15.0812 18.1674 15.5569 17.9016 15.994 17.5888L16.5426 17.0831L16.3497 17.3145C17.3923 16.4602 18.1598 15.3174 18.5562 14.0291C18.9526 12.7408 18.9603 11.3643 18.5783 10.0716L18.4926 12.0645L18.2397 9.15878C18.1112 8.86735 17.9569 8.58878 17.7854 8.32307L18.1154 12.0945L17.0697 7.38878C16.9111 7.21735 16.744 7.04592 16.5726 6.89164L17.7426 12.1802L15.5397 6.12878C15.3769 6.03021 15.2097 5.93592 15.034 5.85021L17.3826 12.3088L13.7783 5.37449C13.6154 5.33164 13.4526 5.29735 13.2897 5.26307L17.044 12.4845L11.9054 5.14307C11.7554 5.14307 11.6054 5.15164 11.4554 5.1645L16.7354 12.7074L10.0583 5.42164C9.92544 5.46021 9.79258 5.50307 9.66401 5.55021Z" fill="url(#paint0_linear_59_74877)"/>
<defs>
<linearGradient id="paint0_linear_59_74877" x1="17.8411" y1="15.9516" x2="6.30401" y2="7.90307" gradientUnits="userSpaceOnUse">
<stop stop-color="#7000FF"/>
<stop offset="0.49" stop-color="#00FFD1"/>
<stop offset="1" stop-color="#FFBF1C"/>
</linearGradient>
</defs>
</svg>
