<svg width="24" height="24" viewBox="0 0 24 24" fill="none" xmlns="http://www.w3.org/2000/svg">
<path d="M12.5404 18.0002C11.8705 17.9844 11.2804 17.7615 10.8012 17.2837C9.02994 15.4999 7.24237 13.7321 5.45522 11.9479C4.13094 10.6262 4.65722 8.39679 6.44437 7.83922C7.38594 7.55251 8.2478 7.75951 8.95022 8.46065C10.7215 10.2122 12.4611 11.9642 14.2165 13.7162C14.6952 14.1937 14.9665 14.7671 14.9982 15.4519C15.0462 16.5829 14.2324 17.6497 13.1151 17.9047C12.9394 17.9522 12.7319 17.9685 12.5404 18.0002ZM16.9439 7.71451C17.2518 7.71332 17.5569 7.77307 17.8415 7.89033C18.1262 8.00758 18.3849 8.18002 18.6026 8.3977C18.8203 8.61538 18.9928 8.874 19.1101 9.15865C19.2274 9.4433 19.2872 9.74835 19.2861 10.0562C19.2861 11.3642 18.2519 12.4134 16.9439 12.4288C15.6514 12.4438 14.5868 11.3642 14.5718 10.0717C14.5868 8.76365 15.6364 7.71451 16.9439 7.71451Z" fill="#DB2264"/>
</svg>
