<svg width="24" height="24" viewBox="0 0 24 24" fill="none" xmlns="http://www.w3.org/2000/svg">
<path d="M11.9317 16.1442L11.9789 15.8571C11.996 15.7671 12.0003 15.6685 12.0003 15.5656V6.06849C12.0003 5.83706 11.9832 5.60563 12.0003 5.37849C12.0089 5.2842 11.9746 5.21992 11.8932 5.18563C11.9446 5.14277 11.9917 5.1342 12.0303 5.15134L17.996 7.78277C18.0089 7.79134 18.0132 7.79992 18.0046 7.81277L12.0217 16.2128C12.0132 16.2256 12.0003 16.2299 11.9875 16.2213C11.9617 16.2128 11.9446 16.1871 11.9317 16.1442Z" fill="#C474E7"/>
<path d="M11.8932 5.18563C11.9746 5.21992 12.0089 5.2842 12.0003 5.37849V15.5656C12.0003 15.6685 11.996 15.7671 11.9789 15.8571L11.9317 16.1442L5.99175 7.8042C5.99077 7.80143 5.99077 7.7984 5.99175 7.79563V7.79134L11.8932 5.18563Z" fill="#AC8BFE"/>
<path d="M12.0003 17.1556V19.2985C12.0003 19.4313 12.0132 19.5385 12.0603 19.6156C12.0517 19.6628 12.0346 19.6928 12.0132 19.7099C11.996 19.7185 11.9832 19.7185 11.9746 19.7013C9.70101 15.7059 7.42529 11.7116 5.14746 7.71849H5.16032L12.0003 17.1599V17.1556Z" fill="#93D0FE"/>
<path d="M12.0603 19.6156C12.0087 19.5183 11.9864 19.4082 11.996 19.2985C12.0089 18.9128 12.0089 18.1971 11.996 17.1556C14.2803 14.0142 16.556 10.8728 18.8317 7.72706C18.836 7.71849 18.8446 7.71849 18.8489 7.72277C18.8575 7.72277 18.8575 7.73134 18.8532 7.73992L12.2146 19.3756C12.1717 19.4613 12.116 19.5428 12.0646 19.6156H12.0603Z" fill="#8694E8"/>
</svg>
