<svg width="24" height="24" viewBox="0 0 24 24" fill="none" xmlns="http://www.w3.org/2000/svg">
<path d="M12 22C17.5229 22 22 17.5229 22 12C22 6.47714 17.5229 2 12 2C6.47714 2 2 6.47714 2 12C2 17.5229 6.47714 22 12 22Z" fill="#28014A"/>
<path d="M12.0001 20.8235C12.2354 19.8824 11.706 18.2765 11.4119 17.5883L15.8236 13.1765L17.8825 19.0588L15.8236 20.2354L13.1765 21.1177L12.0001 20.8235Z" fill="url(#paint0_linear_364_3602)"/>
<path fill-rule="evenodd" clip-rule="evenodd" d="M12.0001 20.8235C12.2354 19.8824 11.706 18.2765 11.4119 17.5883L15.8236 13.1765L17.8825 19.0588L15.8236 20.2354L13.1765 21.1177L12.0001 20.8235ZM12.0707 20.7824C12.1707 20.3 12.0943 19.6824 11.959 19.0941C11.8236 18.506 11.6296 17.953 11.4824 17.6001L15.8002 13.2825L17.8119 19.0295L15.8002 20.1824L13.1765 21.0589L12.0707 20.7824Z" fill="#1F5A65"/>
<path d="M6.70569 9.94129V9.35302L7.58804 6.11773L11.1174 5.82361L14.3528 8.76479L14.0586 14.6471C12.5881 18.1766 9.64687 18.7647 8.47039 18.4707C7.29392 18.1766 6.41156 12.2943 6.70569 11.4118C6.94098 10.7059 6.80569 10.1354 6.70569 9.94129Z" fill="url(#paint1_linear_364_3602)"/>
<path fill-rule="evenodd" clip-rule="evenodd" d="M6.76452 9.92949C6.87039 10.1472 6.9998 10.7236 6.76452 11.4295C6.72066 11.6024 6.70087 11.7805 6.70569 11.9589C6.70569 12.2001 6.72334 12.5001 6.75274 12.8412C6.81157 13.5177 6.92922 14.3413 7.09393 15.1471C7.25863 15.959 7.47039 16.7413 7.71157 17.3471C7.82922 17.6472 7.95863 17.9 8.09392 18.0824C8.22333 18.2706 8.35863 18.3766 8.48216 18.4118C9.62916 18.7001 12.541 18.1295 13.9998 14.6354L14.2939 8.78831L11.0939 5.88244L7.6351 6.17654L6.76452 9.35892V9.92949ZM7.58804 6.11773L6.70569 9.35302V9.94129C6.80569 10.1354 6.94098 10.7059 6.70569 11.4118C6.41156 12.2943 7.29392 18.1766 8.47039 18.4707C9.64687 18.7647 12.5881 18.1766 14.0586 14.6471L14.3528 8.76479L11.1174 5.82361L7.58804 6.11773Z" fill="#1F5A65"/>
<path d="M8.76458 11.1765C8.30575 11.1765 8.26457 11.3059 8.17635 11.394L8.09399 11.3059C8.19987 11.1999 8.27634 11.0588 8.76458 11.0588C8.91752 11.0588 9.09399 11.1 9.27635 11.1529L9.66464 11.2823L9.88219 11.3587C10.3235 11.5 10.8292 11.647 11.4116 11.647C12.3411 11.647 13.3528 11.2588 13.7352 11.0646L13.794 11.1706C13.394 11.3705 12.3646 11.7646 11.4116 11.7646C10.7975 11.7551 10.1907 11.6294 9.62347 11.394C9.48813 11.3471 9.3646 11.3 9.24105 11.2647C9.06458 11.2058 8.89987 11.1765 8.76458 11.1765Z" fill="#6004C7"/>
<path d="M8.80581 11.5294C8.35287 11.5294 8.12346 11.6295 8.04111 11.7178L7.95874 11.6354C8.06463 11.5235 8.31756 11.4118 8.80581 11.4118C8.96462 11.4118 9.13522 11.453 9.31758 11.506L9.71163 11.6354L9.92932 11.7119C10.3647 11.853 10.8705 12.0001 11.4588 12.0001C12.3823 12.0001 13.394 11.6118 13.7823 11.4177L13.8352 11.5235C13.4352 11.7235 12.4058 12.1177 11.4528 12.1177C10.8529 12.1177 10.3352 11.9706 9.88814 11.8236C9.81169 11.7942 9.74114 11.7647 9.67046 11.7471L9.2882 11.6177C9.10581 11.5588 8.94699 11.5294 8.80581 11.5294ZM8.76463 9.94127C8.05874 8.52947 8.47051 7.10005 8.76463 6.70594C9.70587 6.47064 10.1352 6.60594 10.2353 6.70594L8.76463 9.94127Z" fill="#6004C7"/>
<path d="M7.00006 6.41178C6.29419 7.58824 6.51183 8.86471 6.70595 9.35295C7.29419 7.00001 9.35299 6.7059 11.1177 7.00001C12.8824 7.29413 13.7648 9.94123 13.7648 10.8235C13.7648 11.7059 13.1765 12.5882 13.1765 13.4706C13.1765 14.353 13.7648 15.8236 13.7648 16.4118C13.7648 17 12.8824 18.7647 12.8824 19.3529C12.8824 19.8236 13.0766 20.5295 13.1765 20.8235C14.7471 20.8824 15.5647 20.4941 17 19.6471L19.0588 17.8824C19.453 17.2941 20.2354 16.0588 20.2354 15.8236C20.2354 15.5294 19.6471 14.353 19.353 13.7647C19.0588 13.1765 19.353 11.1176 18.7648 9.94123C18.1766 8.76472 17.8824 8.17649 17.8824 7.58824C17.8824 7.11766 17.1001 6.41178 16.706 6.11767C16.1177 4.35295 14.9412 3.76472 12.2942 3.4706C9.64713 3.17649 7.88242 4.94119 7.00006 6.41178Z" fill="url(#paint2_linear_364_3602)"/>
<path fill-rule="evenodd" clip-rule="evenodd" d="M16.706 6.11767C16.1177 4.35295 14.9411 3.76472 12.2942 3.4706C9.64708 3.17649 7.88237 4.94119 7.00001 6.41178C6.74384 6.8526 6.58505 7.34317 6.53432 7.85049C6.48359 8.35783 6.54209 8.87013 6.7059 9.35295L6.72943 9.25295C7.35296 6.99413 9.37655 6.71177 11.1176 7.00001C12.8823 7.29413 13.7647 9.94123 13.7647 10.8235C13.7647 11.2648 13.6177 11.7059 13.4706 12.147C13.3236 12.5882 13.1765 13.0295 13.1765 13.4706C13.1765 13.9588 13.353 14.6176 13.5177 15.2177C13.6471 15.7059 13.7647 16.1471 13.7647 16.4118C13.7647 16.7058 13.5411 17.2941 13.3236 17.8824C13.1 18.4707 12.8823 19.0588 12.8823 19.3529C12.8823 19.8236 13.0765 20.5295 13.1765 20.8235L17 19.6471L19.0588 17.8824C19.453 17.2941 20.2353 16.0588 20.2353 15.8236C20.2353 15.5294 19.6471 14.353 19.3529 13.7647C19.2353 13.5236 19.2118 13.0236 19.1882 12.4412C19.1529 11.6177 19.1118 10.6294 18.7648 9.94123C18.1765 8.76472 17.8824 8.17649 17.8824 7.58824C17.8824 7.11766 17.1 6.41178 16.706 6.11767ZM19.0118 17.8412C19.3782 17.2846 19.7254 16.7157 20.0529 16.1353C20.1015 16.0344 20.1427 15.9302 20.1764 15.8236C20.1532 15.7077 20.1218 15.5937 20.0824 15.4823C20.0235 15.3235 19.9412 15.1295 19.847 14.9295C19.6707 14.5235 19.4471 14.0882 19.3001 13.7882C19.2235 13.6294 19.1823 13.3823 19.1588 13.0882L19.1295 12.4412L19.1118 12.0765C19.1161 11.3533 18.9804 10.6361 18.7118 9.9647C18.4177 9.37642 18.1941 8.9353 18.0471 8.56471C17.9098 8.25684 17.8339 7.92517 17.8235 7.58824C17.8235 7.48825 17.7823 7.36472 17.7059 7.2353C17.6182 7.08804 17.5156 6.95007 17.4001 6.82354C17.153 6.55883 16.8648 6.31177 16.6705 6.16472L16.6589 6.15295L16.653 6.1353C16.4395 5.36142 15.9332 4.70105 15.2412 4.29413C14.553 3.89414 13.6118 3.67648 12.2883 3.52942C9.67645 3.23532 7.92943 4.98236 7.05297 6.44119C6.81718 6.84609 6.66451 7.29395 6.60391 7.75857C6.54331 8.2232 6.57598 8.69523 6.70002 9.14707C6.8128 8.69741 7.02967 8.28054 7.33313 7.93007C7.6366 7.57961 8.01817 7.30536 8.44708 7.12943C9.30738 6.8238 10.2348 6.75873 11.1294 6.94119C12.0353 7.09412 12.7118 7.84706 13.153 8.66472C13.5293 9.3277 13.758 10.0641 13.8236 10.8235C13.8236 11.2764 13.6765 11.7235 13.5295 12.1589V12.1648C13.3628 12.5816 13.2635 13.0225 13.2353 13.4706C13.2725 14.059 13.3852 14.6403 13.5706 15.2C13.6294 15.4177 13.6883 15.6295 13.7294 15.8118C13.7882 16.047 13.8236 16.2588 13.8236 16.4118C13.8236 16.5706 13.7647 16.8 13.6824 17.0588C13.6 17.3118 13.4883 17.6059 13.3764 17.8999C13.2706 18.1941 13.1589 18.4882 13.0765 18.7471C12.9942 19.0059 12.9412 19.2176 12.9412 19.3529C12.9412 19.7883 13.1177 20.4294 13.2117 20.7529L16.9765 19.5941L19.0118 17.8412Z" fill="#1F5A65"/>
<path d="M8.17614 8.76467C5.82319 8.99996 4.84085 7.68819 4.64673 6.99996C4.88202 8.88231 7.09966 9.3529 8.17614 9.3529V8.76467ZM9.64673 9.3529V8.76467C11.9997 9.23525 13.9584 7.19408 14.6468 6.11761C14.2551 7.11116 13.5625 7.9573 12.6658 8.53746C11.7692 9.11762 10.7135 9.40273 9.64673 9.3529Z" fill="#FFFF01"/>
<path fill-rule="evenodd" clip-rule="evenodd" d="M4.64673 6.99996C4.65849 7.10585 4.68202 7.21173 4.70556 7.31173C5.12319 8.89996 7.08201 9.3352 8.11731 9.3529H8.17614V8.76467H8.11731C6.10555 8.9529 5.11732 7.98819 4.76437 7.29408C4.71606 7.19992 4.67666 7.10146 4.64673 6.99996ZM4.85261 7.55879C5.10285 8.12254 5.55357 8.57324 6.11732 8.82348C6.74228 9.11592 7.42157 9.27425 8.11142 9.28825V8.82348C6.29966 8.98231 5.29379 8.22938 4.84672 7.5529L4.85261 7.55879ZM9.70561 9.29992C10.6392 9.33094 11.5632 9.10273 12.3752 8.64069C13.1871 8.17866 13.8552 7.50083 14.3056 6.68231C13.8755 7.21538 13.3702 7.68302 12.8055 8.07054C11.9135 8.72419 10.7993 8.99903 9.70561 8.83526V9.29992ZM9.70561 8.77054L9.64673 8.76467V9.3529C10.7135 9.40273 11.7692 9.11762 12.6658 8.53746C13.5625 7.9573 14.2551 7.11116 14.6468 6.11761L14.4585 6.3882C13.6526 7.49407 11.8468 9.16467 9.70561 8.77643V8.77054Z" fill="#1F5A65"/>
<path d="M10.5292 9.64709C9.82325 9.64709 9.64674 10.2354 9.64674 10.5294C9.84082 10.6294 10.235 10.8235 10.5292 10.8235C11.282 10.8235 11.9997 10.2354 12.588 9.94123C12.1938 9.84117 11.2349 9.64709 10.5292 9.64709ZM7.2938 9.64709C7.0585 9.64709 6.80557 9.84117 6.70557 9.94123C6.70557 10.1765 6.89969 10.6294 6.99968 10.8235C7.47027 11.0589 7.98204 10.9236 8.17616 10.8235V9.94123C7.98204 9.84117 7.52909 9.64709 7.2938 9.64709Z" fill="#FBFFFF"/>
<path fill-rule="evenodd" clip-rule="evenodd" d="M9.70563 10.4941C9.79965 10.5412 9.93498 10.606 10.0703 10.6588C10.2291 10.7177 10.3938 10.7648 10.5292 10.7648C10.8938 10.7648 11.2467 10.6235 11.5879 10.4413C11.7585 10.353 11.9173 10.2647 12.0703 10.1647L12.0939 10.153L12.4233 9.9647C11.9703 9.85888 11.1468 9.70584 10.5292 9.70584C10.1938 9.70584 9.99386 9.84117 9.87033 10.0118C9.75257 10.1706 9.71139 10.3589 9.70563 10.4941ZM12.4997 9.91762C11.8535 9.76184 11.1933 9.67111 10.5292 9.64709C9.82325 9.64709 9.64674 10.2354 9.64674 10.5294C9.84082 10.6294 10.235 10.8235 10.5292 10.8235C11.082 10.8235 11.6232 10.5059 12.0996 10.2177C12.2597 10.1208 12.4226 10.0287 12.588 9.94123L12.4997 9.91762ZM6.76439 9.9647C6.77027 10.0707 6.81144 10.2236 6.87027 10.3765C6.9291 10.5294 6.9938 10.6824 7.04674 10.7823C7.2158 10.8552 7.39795 10.8928 7.58203 10.8928C7.76612 10.8928 7.94827 10.8552 8.11733 10.7823V9.97651C7.9906 9.91543 7.86103 9.86053 7.72909 9.8118C7.59026 9.75443 7.44345 9.71874 7.2938 9.70584C7.1938 9.70584 7.08203 9.74702 6.97615 9.8059C6.88792 9.86478 6.81144 9.92353 6.76439 9.9647ZM8.17616 9.94123V10.8235C7.98204 10.9236 7.47027 11.0589 6.99968 10.8235C6.89969 10.6294 6.70557 10.1765 6.70557 9.94123C6.80557 9.84117 7.0585 9.64709 7.2938 9.64709C7.52909 9.64709 7.98204 9.84117 8.17616 9.94123Z" fill="#1F5A65"/>
<path d="M10.5296 4.64716C10.3353 5.04127 9.82366 5.82362 9.35301 5.82362C8.88243 5.82362 9.15891 5.04127 9.35301 4.64716C8.76479 5.23539 8.47067 6.70598 9.35301 6.70598C10.0589 6.70598 10.4295 5.33539 10.5296 4.64716Z" fill="#93907D"/>
<path fill-rule="evenodd" clip-rule="evenodd" d="M9.74117 5.74127C9.62354 5.82951 9.48821 5.88245 9.35288 5.88245C9.29139 5.88518 9.23035 5.87093 9.17642 5.84127C9.13236 5.8126 9.09762 5.77171 9.07642 5.72362C9.03303 5.61122 9.02283 5.48872 9.047 5.37068C9.05877 5.27657 9.08231 5.17656 9.11759 5.07656C8.97641 5.3295 8.8823 5.6295 8.85877 5.90009C8.84112 6.11773 8.87054 6.30598 8.94701 6.43538C9.02348 6.5648 9.1529 6.64715 9.35288 6.64715C9.50578 6.64715 9.64701 6.57067 9.77644 6.44127C9.90587 6.30598 10.0176 6.12362 10.1177 5.91186C10.247 5.61774 10.347 5.27068 10.4117 4.97657C10.3176 5.12362 10.2117 5.28244 10.0881 5.42362C9.98233 5.54127 9.8647 5.65892 9.74117 5.74127ZM10.4471 4.80597C10.2117 5.21774 9.76464 5.82362 9.35288 5.82362C8.95289 5.82362 9.09407 5.25304 9.26462 4.84128L9.35288 4.64716C9.30182 4.6985 9.25466 4.75356 9.21171 4.81186C8.72348 5.47068 8.54112 6.70598 9.35288 6.70598C9.9999 6.70598 10.3705 5.54715 10.4999 4.82362L10.5294 4.64716L10.4471 4.80597Z" fill="#1F5A65"/>
<path d="M7.58856 14.9411C7.35326 14.9411 7.29443 15.1353 7.29443 15.2352C7.29443 15.4705 7.48855 15.5294 7.58856 15.5294C7.58856 15.8235 7.7062 16.4118 8.17679 16.4118C8.64737 16.4118 9.74744 15.6294 10.2357 15.2352C9.35324 15.2352 8.76502 14.9411 8.4709 14.9411C8.2356 14.9411 8.17679 15.1353 8.17679 15.2352C8.07679 15.1353 7.82384 14.9411 7.58856 14.9411Z" fill="#6004C7"/>
<path fill-rule="evenodd" clip-rule="evenodd" d="M11.9999 20.8236C14.34 20.8236 16.5844 19.894 18.2391 18.2394C19.8938 16.5846 20.8235 14.3402 20.8235 12.0002C20.8235 9.65998 19.8938 7.41569 18.2391 5.76095C16.5844 4.10622 14.34 3.17661 11.9999 3.17661C9.65972 3.17661 7.41545 4.10622 5.76071 5.76095C4.10598 7.41569 3.17637 9.65998 3.17637 12.0002C3.17637 14.3402 4.10598 16.5846 5.76071 18.2394C7.41545 19.894 9.65972 20.8236 11.9999 20.8236ZM11.9999 21.4119C14.496 21.4119 16.89 20.4203 18.655 18.6552C20.4201 16.8902 21.4116 14.4963 21.4116 12.0002C21.4116 9.50392 20.4201 7.11006 18.655 5.34502C16.89 3.57996 14.496 2.58838 11.9999 2.58838C9.5038 2.58838 7.10981 3.57996 5.34477 5.34502C3.57973 7.11006 2.58813 9.50392 2.58813 12.0002C2.58813 14.4963 3.57973 16.8902 5.34477 18.6552C7.10981 20.4203 9.5038 21.4119 11.9999 21.4119Z" fill="#4EDCF7"/>
<path d="M8.82355 17.353C8.68557 16.9526 8.64524 16.5251 8.7059 16.1059L8.82355 16.1294C8.77649 16.4118 8.77649 16.8764 8.92943 17.3177C9.00982 17.5662 9.14439 17.7939 9.32344 17.9841C9.50242 18.1742 9.72147 18.3224 9.96469 18.4177C9.35294 18.1706 8.98237 17.8294 8.81767 17.3589L8.82355 17.353ZM8.42355 17.5882C8.27061 17.1765 8.11178 16.4412 8.05884 16.1471L8.17649 16.1294C8.22354 16.4235 8.38238 17.1471 8.52943 17.553C8.60589 17.7589 8.69414 17.947 8.78825 18.1001C8.88237 18.2589 9.07649 18.4764 9.17649 18.5235C9.04707 18.4589 8.78825 18.3235 8.68825 18.1647C8.58142 17.9837 8.49276 17.7926 8.42355 17.5941V17.5882Z" fill="#6004C7"/>
<path d="M15.2354 7C15.2354 7.47059 14.059 8.76471 13.4707 9.35294C13.706 9.11765 15.3354 8.8647 16.1178 8.76471C16.3531 8.29412 17.1943 7.39411 17.5883 7H15.2354Z" fill="#184F59"/>
<path d="M16.0823 7.80597C16.1587 8.1236 16.1058 8.42361 15.9647 8.46479C15.8234 8.51184 15.641 8.28831 15.5646 7.9589C15.4881 7.64126 15.5411 7.34125 15.6822 7.30007C15.8234 7.25302 16.0058 7.47655 16.0823 7.80597ZM14.9999 12.5883C15.0293 12.9177 14.9293 13.2001 14.7822 13.2236C14.6352 13.2471 14.4881 12.9943 14.4646 12.6648C14.4352 12.3354 14.5352 12.053 14.6823 12.0295C14.8293 12.006 14.9764 12.2588 14.9999 12.5883ZM15.7704 19.2001C15.6528 19.5118 15.4469 19.7295 15.2999 19.6883C15.1646 19.6412 15.1411 19.353 15.2529 19.0413C15.3705 18.7353 15.5764 18.5177 15.7234 18.5588C15.8646 18.6059 15.8881 18.8882 15.7704 19.206V19.2001Z" fill="#7B03FF"/>
<path d="M21.1178 7.29419C20.2355 7.88242 17.5884 8.76478 16.1178 9.05889C14.9413 9.29413 14.8414 9.94129 14.9413 10.2354C15.1767 10.7059 15.0413 11.6059 14.9413 12.0001L15.2354 12.2942C15.6296 12.2942 16.5296 12.1765 17.0001 11.706L19.9413 8.76478C20.3991 8.33081 20.7949 7.83598 21.1178 7.29419Z" fill="url(#paint3_linear_364_3602)"/>
<path fill-rule="evenodd" clip-rule="evenodd" d="M18.8589 8.34125C17.9661 8.65642 17.0546 8.91575 16.1296 9.11772C15.5532 9.23536 15.2472 9.44717 15.1002 9.65895C14.9531 9.8706 14.9531 10.0824 14.9943 10.2118C15.1178 10.4648 15.1414 10.8177 15.1237 11.153C15.108 11.4304 15.0687 11.7058 15.0061 11.9765L15.259 12.2354C15.5333 12.2278 15.8057 12.1883 16.0708 12.1177C16.4002 12.0354 16.7355 11.8882 16.9532 11.6648L19.8943 8.7236C20.4355 8.19418 20.7767 7.73537 20.953 7.46477C20.4648 7.74124 19.6884 8.05302 18.8589 8.34713V8.34125ZM21.0119 7.35889C20.0472 7.94712 17.5354 8.77065 16.1178 9.05889C14.9413 9.29413 14.8414 9.94129 14.9413 10.2354C15.1767 10.7059 15.0413 11.6059 14.9413 12.0001L15.2354 12.2942C15.6296 12.2942 16.5296 12.1765 17.0001 11.706L19.9413 8.76478C20.3926 8.32492 20.7878 7.83098 21.1178 7.29419L21.0119 7.35889Z" fill="#3A6E78"/>
<path d="M19.1527 8.61778C18.8174 8.7472 18.2057 8.93543 17.3057 9.11779C16.7859 9.19782 16.2911 9.39494 15.8586 9.6943C15.7175 9.80012 15.6056 9.91185 15.5174 10.006L15.4175 10.1236L15.2762 10.2767C15.2234 10.3354 15.2057 10.4178 15.2175 10.5413C15.2292 10.6295 15.2528 10.7296 15.2939 10.8295C15.3351 10.7708 15.3939 10.706 15.4527 10.6473C15.5528 10.5531 15.688 10.4707 15.8233 10.4707C15.9587 10.4707 16.1645 10.4002 16.2997 10.2942C16.3704 10.2472 16.4175 10.1943 16.4292 10.1413C16.441 10.1002 16.4292 10.0472 16.3704 9.98253L16.4528 9.90018C16.541 9.98253 16.5704 10.0766 16.541 10.1707C16.5108 10.2623 16.4507 10.341 16.3704 10.3943C16.2174 10.5119 15.9821 10.5884 15.8233 10.5884C15.7292 10.5884 15.6293 10.6473 15.5292 10.7296C15.4527 10.8061 15.3881 10.8943 15.3469 10.959C15.4175 11.1178 15.5057 11.2707 15.5822 11.3766L15.4821 11.4472C15.3998 11.3296 15.3057 11.153 15.2234 10.9767C15.1645 10.8354 15.1174 10.6825 15.0999 10.5531C15.0822 10.4178 15.0999 10.2824 15.1939 10.1943L15.3233 10.0472L15.4293 9.92955C15.5233 9.82373 15.6352 9.71187 15.7881 9.60014C16.2341 9.28953 16.7451 9.08438 17.2822 9.00014C18.4586 8.76485 19.1352 8.5119 19.3292 8.41779L19.3998 8.50603C18.9116 9.09426 17.8703 10.3295 17.6351 10.5707C17.5409 10.6589 17.3998 10.7001 17.241 10.7237L16.941 10.7531L16.7469 10.7708C16.5822 10.7884 16.4351 10.8177 16.3352 10.8707C16.2878 10.8932 16.2473 10.9277 16.2174 10.9708C16.1893 11.0146 16.1748 11.0657 16.1762 11.1178C16.1762 11.5766 16.3645 11.6472 16.4116 11.6472V11.7648C16.2645 11.7648 16.0586 11.6001 16.0586 11.1178C16.0586 11.0354 16.0822 10.9649 16.1175 10.9001C16.1586 10.8413 16.2174 10.8002 16.2763 10.7649C16.4057 10.706 16.5704 10.6707 16.7351 10.653L16.9351 10.6355L17.2292 10.6061C17.3762 10.5825 17.4881 10.5472 17.5468 10.4883C17.7586 10.2767 18.6233 9.25308 19.1527 8.61778ZM8.11745 11.1178V9.64722H8.23509V11.1178C8.23509 11.2295 8.18804 11.4296 8.05275 11.6883C7.91745 11.9472 7.6998 12.2707 7.34686 12.6237C7.26451 12.7942 7.24098 13.2707 7.91157 13.7178L7.85274 13.8119C7.12333 13.3295 7.12921 12.7884 7.24098 12.5648V12.553L7.25274 12.5471C7.60568 12.1943 7.81745 11.8825 7.94685 11.6355C8.07627 11.3825 8.11745 11.2001 8.11745 11.1178ZM9.02333 12.9177C8.94687 12.7825 8.82921 12.6825 8.7351 12.6413L8.79392 12.5355C8.8998 12.5942 9.04098 12.7002 9.12333 12.8649C9.21156 13.0296 9.24098 13.2471 9.11157 13.4942L9.00568 13.4473C9.11745 13.2237 9.08803 13.0472 9.02333 12.9177Z" fill="#1F5A65"/>
<defs>
<linearGradient id="paint0_linear_364_3602" x1="2.90921" y1="14.5927" x2="18.507" y2="7.67769" gradientUnits="userSpaceOnUse">
<stop stop-color="#12A0BA"/>
<stop offset="1" stop-color="#4BE2FE"/>
</linearGradient>
<linearGradient id="paint1_linear_364_3602" x1="2.14779" y1="12.6422" x2="21.1838" y2="13.8988" gradientUnits="userSpaceOnUse">
<stop stop-color="#12A0BA"/>
<stop offset="1" stop-color="#4BE2FE"/>
</linearGradient>
<linearGradient id="paint2_linear_364_3602" x1="7.42332" y1="2.37555" x2="13.9514" y2="21.4432" gradientUnits="userSpaceOnUse">
<stop stop-color="#FFFF05"/>
<stop offset="0.2" stop-color="#F6F67F"/>
<stop offset="0.49" stop-color="#FFFF60"/>
<stop offset="1" stop-color="#FFFF5F"/>
</linearGradient>
<linearGradient id="paint3_linear_364_3602" x1="21.0523" y1="2.00008" x2="-0.285927" y2="17.3823" gradientUnits="userSpaceOnUse">
<stop stop-color="#AFF0FD"/>
<stop offset="0.46" stop-color="#6DE9FF"/>
<stop offset="0.99" stop-color="#44B7C9"/>
</linearGradient>
</defs>
</svg>
