<svg width="24" height="24" viewBox="0 0 24 24" fill="none" xmlns="http://www.w3.org/2000/svg">
<path d="M11.9998 15.8574C12.7099 15.8574 13.2855 15.2817 13.2855 14.5717C13.2855 13.8616 12.7099 13.286 11.9998 13.286C11.2897 13.286 10.7141 13.8616 10.7141 14.5717C10.7141 15.2817 11.2897 15.8574 11.9998 15.8574Z" fill="white"/>
<path d="M15.2398 16.5345C14.7341 16.2431 14.0998 16.406 13.6026 16.7102C13.1759 16.9721 12.6847 17.11 12.1841 17.1088C11.8441 17.1156 11.5061 17.0554 11.1895 16.9316C10.8728 16.8078 10.5836 16.6228 10.3385 16.3872C10.0933 16.1515 9.89696 15.8699 9.76066 15.5584C9.62435 15.2469 9.55075 14.9116 9.54407 14.5717C9.55075 14.2317 9.62435 13.8964 9.76066 13.5849C9.89696 13.2734 10.0933 12.9918 10.3385 12.7562C10.5836 12.5206 10.8728 12.3356 11.1895 12.2118C11.5061 12.0879 11.8441 12.0277 12.1841 12.0345C12.6881 12.033 13.1824 12.1725 13.6112 12.4374C14.1384 12.7674 14.8326 12.9302 15.3426 12.5788C15.8441 12.236 15.9769 11.5331 15.5226 11.1217C14.603 10.3015 13.412 9.85109 12.1798 9.85738C9.48407 9.85738 7.2855 11.966 7.2855 14.5717C7.2855 17.1774 9.47978 19.286 12.1841 19.286C13.4569 19.286 14.6141 18.8188 15.4841 18.0517C15.9769 17.6231 15.8055 16.8645 15.2398 16.5345Z" fill="white"/>
<path d="M18.6426 8.01453C18.9298 7.74024 18.9298 7.29453 18.6212 7.04167C16.7335 5.52261 14.3799 4.70073 11.9569 4.71453C9.57171 4.70153 7.25258 5.49774 5.37835 6.9731C5.3057 7.03052 5.2464 7.10306 5.20458 7.18569C5.16275 7.26831 5.1394 7.35904 5.13614 7.45159C5.13288 7.54414 5.14978 7.6363 5.18569 7.72166C5.22159 7.80702 5.27563 7.88356 5.34407 7.94596C5.6355 8.22881 6.1155 8.2331 6.44121 7.98453C7.94121 6.8231 9.86121 6.12453 11.9569 6.12453C14.0869 6.12453 16.0369 6.84453 17.5455 8.04024C17.8669 8.29738 18.3469 8.29738 18.6384 8.01453H18.6426ZM16.7998 9.77595C17.0912 9.50167 17.0912 9.06024 16.7784 8.81595C15.3997 7.74959 13.7041 7.17484 11.9612 7.1831C10.1612 7.1831 8.50264 7.77453 7.20835 8.76453C6.89121 9.00453 6.88692 9.45024 7.16978 9.72453C7.46121 10.0117 7.94121 10.0117 8.2755 9.76738C9.34933 8.99675 10.6395 8.5857 11.9612 8.5931C13.3712 8.5931 14.6698 9.04738 15.6941 9.81024C16.0284 10.0545 16.5084 10.0588 16.8041 9.77595H16.7998ZM14.7041 12.0688C14.9869 11.7945 14.9912 11.3574 14.6698 11.1302C13.8742 10.5758 12.9266 10.2809 11.9569 10.286C10.9584 10.286 10.0369 10.586 9.28692 11.1002C8.96121 11.3274 8.96121 11.7645 9.24407 12.0388C9.5355 12.326 10.0241 12.3174 10.3884 12.1074C10.8708 11.8303 11.4179 11.6859 11.9742 11.689C12.5305 11.692 13.0761 11.8423 13.5555 12.1245C13.9155 12.3388 14.4041 12.3517 14.6998 12.0688H14.7041Z" fill="#E5B909"/>
</svg>
