<svg width="24" height="24" viewBox="0 0 24 24" fill="none" xmlns="http://www.w3.org/2000/svg">
<path d="M8.4851 2.24445C5.92695 2.77172 3.3203 3.85655 2.33606 4.33231C2.08879 7.90809 3.29848 11.3752 3.93423 12.662C5.933 10.1505 9.59606 7.38924 10.5318 6.74864C11.1674 6.3135 10.933 5.73047 10.762 5.41836C10.1293 4.26079 8.98085 2.82019 8.4851 2.24445Z" fill="#F3A91D"/>
<path d="M21.0887 4.04078C17.028 2.09353 12.3905 1.89354 10.5796 2.03657C12.2026 2.98625 13.1409 4.22564 13.5814 4.54382C13.9348 4.79836 14.4239 4.72563 14.6244 4.65714C16.7753 3.75654 19.8304 3.87109 21.0887 4.04078Z" fill="#EF6622"/>
<path d="M21.6894 5.03348C21.8379 9.49825 19.6602 14.0031 18.5524 15.6976C18.5524 15.3861 16.7985 9.97099 16.2204 8.76799C15.758 7.80497 15.9258 7.29347 16.2204 7.0874C18.5651 5.4444 20.8433 5.03348 21.6894 5.03348Z" fill="#79B6E2"/>
<path d="M11.9022 9.22378C9.04165 10.3486 5.67015 12.7529 4.34229 13.8146C6.28591 18.0339 10.2956 21.0298 12.0573 22C14.7313 20.3121 16.8767 17.9625 17.6149 16.9988C16.4882 14.0485 13.8452 10.0638 13.3009 9.41893C12.8658 8.9032 12.241 9.08987 11.9022 9.22378Z" fill="#1FB4AC"/>
</svg>
