<svg width="24" height="24" viewBox="0 0 24 24" fill="none" xmlns="http://www.w3.org/2000/svg">
<path d="M14.3746 5.61881C13.2059 5.17229 11.9353 5.06331 10.7077 5.30429C9.48005 5.54526 8.34489 6.1265 7.43175 6.98166C6.93148 7.44499 6.50383 7.981 6.16318 8.57166H5.64032V8.56738C6.43306 7.06628 7.72873 5.89198 9.30032 5.25023C10.4325 4.78682 11.6646 4.62187 12.8788 4.77121C14.093 4.92054 15.2485 5.37914 16.2346 6.10309C17.1216 6.75491 17.8497 7.5988 18.3646 8.57166H17.8503C17.8459 8.57203 17.8414 8.57099 17.8375 8.56868C17.8337 8.56637 17.8307 8.56292 17.8289 8.55881C17.0497 7.21248 15.8318 6.17459 14.3789 5.61881H14.3746ZM6.23175 11.5717C6.00204 11.5758 5.77928 11.4928 5.60831 11.3394C5.43735 11.1859 5.33087 10.9733 5.31032 10.7445C5.25752 10.4485 5.20323 10.1528 5.14746 9.85738H6.42889C6.43318 9.85738 6.43746 9.85738 6.43746 9.86595L6.75889 11.5674L6.23175 11.5717Z" fill="#1048E5"/>
<path d="M7.58544 11.2969C7.76544 11.0698 7.85115 10.8041 7.90258 10.5298C7.94722 10.3058 7.99008 10.0816 8.03115 9.85693H9.31686L9.32115 9.86122V9.86551L9.14972 10.7869C9.12401 10.9498 9.08115 11.1084 8.99115 11.2498C8.86258 11.4512 8.66115 11.6012 8.44686 11.7212L7.45686 12.2484C7.36807 12.2945 7.28219 12.346 7.19972 12.4026C6.93829 12.5869 6.75401 12.8312 6.65115 13.1269C6.61686 13.2298 6.58686 13.3412 6.56544 13.4441C6.52686 13.6412 6.47544 13.8769 6.42829 14.1426H5.14258V14.1384C5.21544 13.7698 5.27115 13.4398 5.32258 13.1526C5.37401 12.8526 5.52829 12.6169 5.78972 12.4326C5.87544 12.3726 5.96115 12.3212 6.04686 12.2741L7.07544 11.7169C7.27458 11.6148 7.44985 11.4717 7.58972 11.2969H7.58544ZM11.5026 12.4926L10.8683 12.2184C10.5426 12.0726 10.3111 11.7898 10.2726 11.4126C10.2469 11.0998 10.3583 10.8126 10.5769 10.6069C10.7212 10.4791 10.8925 10.3854 11.0779 10.3327C11.2634 10.2801 11.4583 10.2698 11.6483 10.3026C11.9691 10.3452 12.2656 10.4965 12.4883 10.7312L12.0811 11.2712H12.0683C12.0126 11.2284 11.9483 11.1855 11.8711 11.1469C11.7083 11.0612 11.5454 11.0269 11.374 11.0398C11.2497 11.0526 11.1169 11.1084 11.1126 11.2541C11.1126 11.3269 11.1426 11.3826 11.1983 11.4212C11.2411 11.4469 11.284 11.4726 11.3397 11.4941L11.9954 11.7641C12.184 11.8369 12.3811 11.9998 12.4797 12.1841C12.5856 12.394 12.6158 12.6341 12.565 12.8637C12.5142 13.0933 12.3857 13.2984 12.2011 13.4441C11.7383 13.8084 11.074 13.7741 10.564 13.5298C10.4139 13.4546 10.2765 13.3562 10.1569 13.2384V13.2298L10.624 12.6469H10.6369C10.864 12.8355 11.1511 12.9769 11.4469 12.9598C11.5626 12.9512 11.704 12.9041 11.7254 12.7584C11.7312 12.7246 11.7275 12.6898 11.7146 12.658C11.7018 12.6262 11.6803 12.5986 11.6526 12.5784C11.6097 12.5398 11.5583 12.5141 11.5026 12.4926ZM14.8969 12.4412H14.4512C14.4469 12.4412 14.4426 12.4412 14.4426 12.4326V11.7341H15.6426L15.6511 11.7384V13.2898C15.651 13.2948 15.6498 13.2996 15.6475 13.3041C15.6453 13.3085 15.6422 13.3124 15.6383 13.3155C15.4141 13.508 15.1426 13.6372 14.8519 13.69C14.5611 13.7427 14.2615 13.717 13.984 13.6155C13.7575 13.5406 13.5541 13.4085 13.3935 13.2321C13.2328 13.0557 13.1203 12.8409 13.0669 12.6084C12.9366 12.1084 12.982 11.5789 13.1954 11.1084C13.3078 10.8876 13.473 10.6981 13.6764 10.5567C13.8798 10.4154 14.1151 10.3266 14.3611 10.2984C14.5849 10.2649 14.8134 10.2864 15.027 10.3611C15.2406 10.4358 15.4327 10.5613 15.5869 10.7269V10.7312L15.1583 11.2755H15.1454C15.0169 11.1598 14.8712 11.0698 14.6954 11.0484C14.5632 11.0295 14.4283 11.0489 14.3068 11.1044C14.1852 11.1598 14.0821 11.249 14.0097 11.3612C13.8383 11.6269 13.8211 11.9869 13.8683 12.2912C13.9154 12.5998 14.0697 12.8441 14.3611 12.9298C14.494 12.9684 14.6269 12.9769 14.7597 12.9641C14.8096 12.958 14.8577 12.942 14.9011 12.9169L14.9097 12.9084V12.4541C14.9097 12.4455 14.9097 12.4412 14.9011 12.4412H14.8969Z" fill="#1048E5"/>
<path fill-rule="evenodd" clip-rule="evenodd" d="M18.759 11.2714C18.7036 11.0794 18.6055 10.9026 18.4718 10.7541C18.3382 10.6056 18.1726 10.4894 17.9876 10.4142C17.7433 10.3285 17.5161 10.2856 17.3018 10.2856C16.9633 10.2878 16.6247 10.2907 16.2861 10.2942V13.7014C16.2861 13.7056 16.2861 13.7099 16.2947 13.7099H16.3418L17.2076 13.7142C17.4518 13.7142 17.6876 13.6885 17.919 13.6071C18.2747 13.4785 18.5361 13.2385 18.6904 12.8785C18.8944 12.3675 18.9186 11.8022 18.759 11.2756V11.2714ZM17.5376 12.9299C17.8504 12.8228 17.9661 12.4928 17.9918 12.1585C18.009 11.9656 18.0004 11.7685 17.9576 11.5714C17.8933 11.2799 17.7176 11.0828 17.4347 11.0356C17.3413 11.0197 17.2466 11.0125 17.1518 11.0142C17.1476 11.0142 17.1433 11.0142 17.1433 11.0228V12.9771L17.1518 12.9856C17.2847 12.9899 17.4133 12.9728 17.5376 12.9299Z" fill="#1048E5"/>
<path d="M8.6486 12.5144C8.85565 12.6072 9.01747 12.7783 9.0986 12.9901C9.12003 13.0459 9.14146 13.1359 9.16288 13.2687C9.21375 13.5605 9.26661 13.8519 9.32146 14.143H8.04003L8.03574 14.1387L7.71003 12.4373V12.4287H8.28003C8.4086 12.4287 8.5286 12.4587 8.6486 12.5144ZM9.17574 18.7073C7.65666 18.0497 6.40773 16.893 5.63574 15.4287H6.15431C7.00628 16.9057 8.38347 18.0075 10.0115 18.5144C11.0443 18.8316 12.0943 18.9001 13.1572 18.7159C14.1309 18.5439 15.055 18.1605 15.8644 17.5925C16.6738 17.0246 17.3486 16.2859 17.8415 15.4287H18.36C18.3686 15.4287 18.3686 15.4287 18.3643 15.4373C17.8562 16.39 17.1427 17.2179 16.2756 17.8613C15.4084 18.5046 14.4092 18.9473 13.35 19.1573C11.9449 19.4279 10.4909 19.2712 9.17574 18.7073Z" fill="#1048E5"/>
</svg>
