<svg width="24" height="24" viewBox="0 0 24 24" fill="none" xmlns="http://www.w3.org/2000/svg">
<path d="M11.5711 5.15571C10.9797 5.22857 10.2854 5.37428 9.87829 5.51143C9.39829 5.67 8.63544 6.02571 8.58401 6.11143C8.54115 6.17143 8.71258 6.23143 8.99972 6.25286C9.18829 6.27 9.23544 6.26143 9.21401 6.21429C9.20544 6.18429 9.21401 6.15428 9.23972 6.15428C9.26972 6.15428 9.28258 6.19714 9.26544 6.24857C9.25258 6.30429 9.26544 6.35143 9.30401 6.36429C9.39829 6.39857 9.67258 6.29571 9.80544 6.17571C9.94258 6.04714 10.0454 6.09 10.0454 6.27429C10.0454 6.40286 9.93829 6.45857 9.84401 6.38143C9.79258 6.33857 9.74115 6.33857 9.63401 6.37286C9.46258 6.43286 9.26972 6.43714 9.20972 6.38571C9.09679 6.34496 8.97826 6.32183 8.85829 6.31714C8.55829 6.29143 8.54972 6.29571 8.62258 6.37286C8.66544 6.41571 8.69544 6.48429 8.69544 6.51857C8.69544 6.55286 8.72972 6.63 8.76829 6.69C8.82829 6.77571 8.83258 6.79714 8.78115 6.83143C8.72972 6.86143 8.73829 6.89143 8.81544 6.99428C8.86686 7.06286 8.93115 7.11429 8.95686 7.11429L9.21401 7.10143C9.38115 7.09714 9.40686 7.08428 9.38544 7.02C9.35972 6.96 9.37258 6.95143 9.44115 6.97714C9.61686 7.05429 9.68544 7.06286 9.68544 7.00714C9.68544 6.96857 9.73686 6.95571 9.84401 6.96857C9.92972 6.98143 9.99829 6.96857 10.0026 6.93857C10.0026 6.91286 10.0283 6.85714 10.0626 6.81C10.1226 6.73714 10.1354 6.73714 10.294 6.84857C10.5169 6.99857 10.5683 7.08 10.5769 7.30286C10.5854 7.48714 10.5854 7.49143 10.4054 7.51714C10.204 7.55143 10.1354 7.61571 10.2469 7.65857C10.3026 7.68 10.3069 7.69714 10.264 7.72286C10.2211 7.75286 10.2211 7.77429 10.264 7.82571C10.294 7.86 10.3111 7.91571 10.3069 7.95C10.2983 7.98428 10.3369 8.01428 10.3926 8.02286C10.4526 8.03571 10.5083 8.1 10.5597 8.21571C10.6454 8.44286 10.6454 8.45571 10.5383 8.34428C10.4354 8.24143 10.2897 8.22857 10.2554 8.32286C10.2254 8.39571 10.3069 8.45143 10.5126 8.49857C10.6411 8.53286 10.7826 8.46 10.7354 8.38286C10.7226 8.36143 10.7354 8.34428 10.7697 8.35286C10.804 8.35714 10.9711 8.31857 11.1383 8.26714C11.5113 8.15076 11.9089 8.13793 12.2886 8.23002C12.6683 8.32212 13.0158 8.51567 13.294 8.79C13.5509 9.04028 13.7346 9.3559 13.8254 9.70286C13.8683 9.88286 13.8683 9.94714 13.804 10.1143C13.7311 10.2943 13.4697 10.5857 13.324 10.6414C13.2726 10.6586 13.2811 10.68 13.3497 10.7357C13.4226 10.7914 13.4269 10.8043 13.3712 10.8043C13.3269 10.8028 13.2846 10.7862 13.2512 10.7571C13.1954 10.7057 12.9511 10.74 12.9854 10.8C12.429 10.8499 11.8692 10.7539 11.3611 10.5214C11.1469 10.4014 11.104 10.4443 11.2797 10.6029C11.3569 10.6714 11.4297 10.6971 11.5026 10.6886C11.6526 10.6543 12.004 10.8771 12.0726 11.0443C12.1026 11.1171 12.1754 11.2029 12.2312 11.2414C12.2912 11.28 12.3254 11.3271 12.3126 11.3486C12.2697 11.4171 12.1197 11.3914 12.0554 11.31C11.9954 11.2243 11.8797 11.1471 11.7297 11.0786C11.6732 11.0531 11.6222 11.0167 11.5797 10.9714C11.5283 10.9114 11.3569 10.8429 11.2711 10.8557C11.2111 10.86 11.2626 11.0057 11.3826 11.1643C11.4597 11.2629 11.4811 11.3229 11.4469 11.3357C11.4169 11.3443 11.3954 11.3786 11.3954 11.4171C11.3954 11.5157 11.3311 11.4857 11.2369 11.3314C11.1854 11.2543 11.0869 11.16 11.0226 11.13C10.8554 11.0486 10.594 10.7871 10.5383 10.6457C10.5126 10.5814 10.4954 10.4829 10.4954 10.4186C10.4954 10.3414 10.4097 10.2171 10.2169 10.02C9.93401 9.72857 9.78829 9.66857 9.80972 9.85714C9.81829 9.91286 9.80544 9.95571 9.77972 9.95571C9.74972 9.95571 9.72829 9.92571 9.72829 9.88714C9.72829 9.84429 9.66829 9.79286 9.59544 9.76286C9.50972 9.73286 9.46686 9.69 9.47972 9.65143C9.49686 9.61714 9.45401 9.53143 9.39401 9.45857C9.34363 9.40704 9.30426 9.3458 9.27829 9.27857C9.27829 9.25714 9.26115 9.24857 9.23544 9.26143C9.21829 9.27429 9.20972 9.24857 9.22258 9.19714C9.23972 9.13714 9.22258 9.11143 9.17115 9.11143C9.10686 9.11143 9.07686 9.05571 9.09829 8.95714C9.09829 8.93571 9.07686 8.92714 9.03829 8.94429C9.00401 8.95714 8.95258 8.94428 8.92686 8.91428C8.88829 8.88 8.86258 8.88 8.82829 8.91428C8.79401 8.94857 8.81115 8.97 8.89258 8.99143C8.95686 9.00857 9.00829 9.03857 9.00829 9.06428C9.00829 9.12 8.92258 9.12 8.83686 9.06428C8.73829 9.00857 8.60115 9.10714 8.65258 9.19714C8.68258 9.25714 8.66972 9.26571 8.55829 9.25286C8.40401 9.22714 8.39972 9.24857 8.49829 9.39857C8.54115 9.46714 8.54972 9.51 8.51972 9.51C8.50684 9.50892 8.49483 9.50303 8.4861 9.4935C8.47736 9.48397 8.47253 9.4715 8.47258 9.45857C8.47258 9.42857 8.42972 9.45857 8.38258 9.51429C8.07401 9.88286 7.95829 10.0029 7.90258 10.0029C7.82115 10.0029 7.82544 9.93857 7.90686 9.87C7.94754 9.83379 7.9722 9.78293 7.97544 9.72857C7.97544 9.68571 8.01829 9.62571 8.06544 9.6C8.11686 9.57428 8.15544 9.52286 8.15544 9.48428C8.15544 9.45 8.18115 9.38143 8.21115 9.33C8.25401 9.26143 8.25401 9.23143 8.21115 9.18857C8.16829 9.14571 8.13829 9.15857 8.07829 9.22714C8.03544 9.27857 7.94115 9.33 7.87258 9.34714C7.79972 9.36428 7.75258 9.40714 7.75258 9.45428C7.75258 9.50571 7.73544 9.51429 7.70544 9.48C7.67972 9.45429 7.60686 9.44571 7.54258 9.45428L7.43115 9.47571L7.57686 9.59571C7.66258 9.66857 7.70544 9.74143 7.68829 9.76714C7.64544 9.84429 7.57258 9.83571 7.57258 9.75428C7.57258 9.67714 7.49544 9.66857 7.46972 9.74571C7.45686 9.78857 7.43115 9.78857 7.37115 9.73714C7.30258 9.68143 7.28544 9.68143 7.25544 9.73714C7.23458 9.76674 7.22 9.80028 7.21258 9.83571C7.21258 9.85714 7.17829 9.87 7.13544 9.86143C7.09258 9.85286 7.06686 9.82714 7.07115 9.81C7.07972 9.78857 7.02829 9.71571 6.96401 9.64286C6.83544 9.51 6.62544 9.44143 6.62544 9.53571C6.62544 9.56571 6.58258 9.6 6.53115 9.61286C6.34258 9.66428 6.10686 9.25286 6.28258 9.18429C6.31686 9.17143 6.36829 9.18 6.38972 9.20143C6.41544 9.22714 6.47544 9.21 6.54829 9.15429C6.71972 9.01714 6.83972 9.03857 6.80972 9.21C6.79686 9.29571 7.02829 9.32571 7.23829 9.26571C7.52544 9.18857 8.02686 8.93143 7.99686 8.88C7.98401 8.86286 7.94543 8.85429 7.91115 8.86714C7.87686 8.88 7.83829 8.86714 7.82115 8.84143C7.80401 8.81571 7.73972 8.79857 7.67972 8.79857C7.61544 8.79857 7.57258 8.76857 7.57258 8.72571C7.57258 8.69143 7.58972 8.66143 7.61544 8.66143C7.64115 8.66143 7.65829 8.55857 7.65829 8.43857C7.65829 8.31 7.67972 8.21143 7.70544 8.21143C7.73115 8.21143 7.74829 8.24571 7.74829 8.28429C7.74829 8.32286 7.76972 8.34 7.79544 8.32714C7.86829 8.28 7.84686 8.19857 7.73115 8.07C7.67115 8.00571 7.63258 7.94143 7.64544 7.92857C7.66258 7.91143 7.61115 7.87714 7.53401 7.85143C7.36258 7.79143 7.28972 7.68 7.34972 7.58571C7.38829 7.53 7.40115 7.53 7.45686 7.60286C7.49115 7.64571 7.52544 7.66714 7.53829 7.64571C7.56829 7.59 7.48258 7.32 7.43544 7.32C7.41401 7.32 7.40544 7.34571 7.41829 7.38C7.43115 7.41 7.40972 7.46571 7.37543 7.49143C7.30686 7.54714 7.16544 7.51714 7.16544 7.44857C7.16544 7.42286 7.14401 7.41429 7.11829 7.43143C7.08829 7.45286 7.09686 7.49143 7.14829 7.54714C7.19972 7.60286 7.21686 7.67143 7.19115 7.77C7.17401 7.86428 7.19115 7.92857 7.23401 7.97571C7.30258 8.04 7.30258 8.05286 7.23401 8.11714C7.17401 8.17286 7.14829 8.17714 7.13544 8.13428C7.12258 8.10428 7.07972 8.07857 7.04115 8.07857C6.98544 8.07857 6.98115 8.06571 7.02401 8.02714C7.05644 7.98566 7.07314 7.93404 7.07115 7.88143C7.07115 7.83 7.05829 7.81286 7.04544 7.84286C7.03258 7.87286 6.95544 7.89857 6.86972 7.89857C6.74544 7.89857 6.70686 7.92429 6.67258 8.01C6.62544 8.13857 6.58258 8.15143 6.50115 8.07C6.45829 8.02714 6.43686 8.05286 6.38972 8.16C6.35544 8.24143 6.31258 8.28857 6.29972 8.27143C6.28258 8.25857 6.26544 8.29714 6.26544 8.36143C6.26544 8.43429 6.24401 8.48143 6.20115 8.48143C6.08544 8.48143 6.10258 8.58429 6.24401 8.72143C6.32972 8.80714 6.35972 8.85857 6.32115 8.87143C6.25686 8.89714 6.24829 8.97429 6.31258 8.97429C6.33829 8.97429 6.38115 8.92286 6.41115 8.86286C6.43686 8.79857 6.47972 8.75143 6.50115 8.75143C6.52258 8.75143 6.52686 8.77714 6.50544 8.80714C6.48721 8.83357 6.47278 8.86242 6.46258 8.89286C6.45932 8.91348 6.45356 8.93363 6.44544 8.95286C6.43634 8.9777 6.43058 9.00364 6.42829 9.03C6.41972 9.12428 6.26115 9.12 6.19258 9.02143C6.15829 8.97 6.09829 8.92714 6.06401 8.92714C6.02544 8.92714 5.99544 8.90571 5.99544 8.87143C5.99544 8.7 5.65258 9.46714 5.48115 10.0286C5.33544 10.5086 5.14258 11.6314 5.14258 12C5.14258 12.2657 5.30972 13.32 5.41686 13.7314C5.72544 14.9314 6.38544 16.0329 7.33686 16.9457C8.28548 17.851 9.47655 18.4615 10.7654 18.7029C11.0011 18.7371 11.2883 18.7886 11.4083 18.8143C11.6869 18.87 12.3597 18.87 12.6383 18.8143L13.2811 18.6986C14.394 18.4907 15.4378 18.0094 16.3184 17.2978C17.199 16.5863 17.8889 15.667 18.3258 14.6226C18.7628 13.5782 18.9332 12.4415 18.8217 11.3149C18.7101 10.1882 18.3201 9.10702 17.6869 8.16857C17.1704 7.45521 16.5407 6.83124 15.8226 6.32143C15.0184 5.784 14.1102 5.42187 13.1569 5.25857C12.6335 5.16745 12.1019 5.13296 11.5711 5.15571ZM13.0111 5.57571C13.0111 5.59714 12.9897 5.61857 12.9683 5.61857C12.9383 5.61857 12.9297 5.59714 12.9469 5.57571C12.9597 5.55 12.9811 5.53286 12.9897 5.53286C13.0026 5.53286 13.0111 5.55 13.0111 5.57571ZM10.4654 5.77714C10.3669 5.85 10.2683 5.86286 10.2683 5.79857C10.2683 5.74286 10.5126 5.62714 10.534 5.67428C10.5426 5.69571 10.5126 5.74286 10.4654 5.77714ZM8.96544 5.99143C8.96544 6.00428 8.93544 6.03428 8.89686 6.06428C8.84115 6.11143 8.82829 6.10714 8.82829 6.04714C8.82829 6.00857 8.86258 5.97857 8.89686 5.97857C8.93544 5.97857 8.96544 5.98286 8.96544 5.99571V5.99143ZM9.59544 6.13286C9.59544 6.17571 9.56115 6.21857 9.52258 6.23143C9.43686 6.26143 9.35115 6.18429 9.39401 6.11571C9.43686 6.04286 9.59544 6.05571 9.59544 6.13286ZM13.7097 6.29143C13.6926 6.31286 13.6411 6.33429 13.594 6.33429C13.5426 6.33429 13.5126 6.31286 13.5297 6.29143C13.5469 6.26571 13.5983 6.24857 13.6497 6.24857C13.6969 6.24857 13.7269 6.26571 13.7097 6.29143ZM10.7911 6.50143C10.7483 6.54429 10.7054 6.48 10.7483 6.41571C10.774 6.37286 10.7826 6.37286 10.7997 6.41571C10.8083 6.45 10.8083 6.48857 10.7911 6.50143ZM11.0269 6.87C11.0354 6.9 11.0183 6.91714 10.984 6.90857C10.9667 6.90146 10.9509 6.89098 10.9377 6.87774C10.9245 6.86449 10.914 6.84875 10.9069 6.83143C10.8983 6.79714 10.9111 6.78 10.9497 6.78857C10.9797 6.80143 11.014 6.83571 11.0269 6.87ZM13.174 6.98143C13.1311 7.02 13.0711 7.03714 13.0497 7.02428C12.9854 6.98143 13.0583 6.91714 13.1611 6.91714C13.2554 6.91714 13.2554 6.91714 13.174 6.98143ZM7.40115 7.12286C7.32401 7.15714 7.33258 7.23 7.41401 7.23C7.45258 7.23 7.48258 7.2 7.48258 7.16143C7.48258 7.12714 7.47401 7.09714 7.46972 7.09714L7.40115 7.12286ZM6.94686 7.42286C6.93214 7.44295 6.9225 7.46631 6.91877 7.49094C6.91504 7.51557 6.91732 7.54073 6.92544 7.56429C6.95115 7.62857 6.93829 7.64143 6.86544 7.62429C6.84011 7.61652 6.81292 7.61735 6.78811 7.62665C6.7633 7.63595 6.74227 7.6532 6.72829 7.67571C6.66401 7.77428 6.71115 7.82571 6.79258 7.75714C6.84401 7.71429 6.86544 7.71429 6.89544 7.76143C6.96401 7.87286 7.02829 7.76143 7.02401 7.56429C7.02169 7.49672 7.01453 7.4294 7.00258 7.36286L6.94686 7.42286ZM10.8469 7.55571C10.8554 7.65 10.8469 7.67143 10.7911 7.65C10.744 7.63286 10.7183 7.65 10.7183 7.69286C10.7183 7.73571 10.6883 7.76571 10.6497 7.76571C10.6154 7.76571 10.5854 7.74 10.5854 7.71C10.5854 7.62 10.6626 7.53 10.714 7.56C10.7397 7.57714 10.744 7.55143 10.7312 7.49143C10.714 7.42286 10.7226 7.40571 10.7697 7.41857C10.804 7.42714 10.8383 7.49143 10.8469 7.55571ZM8.24544 7.58571C8.24544 7.66286 8.32686 7.67571 8.38258 7.60714C8.42544 7.55143 8.42115 7.54286 8.33972 7.54286C8.28829 7.54286 8.24544 7.56 8.24544 7.58571ZM9.59544 7.58571C9.59544 7.60286 9.62543 7.63286 9.66401 7.65C9.76686 7.68857 9.77543 7.68429 9.77543 7.60714C9.77543 7.57286 9.73258 7.54286 9.68544 7.54286C9.63401 7.54286 9.59544 7.56 9.59544 7.58571ZM12.0597 7.59428C12.0297 7.68 11.9311 7.69286 11.9311 7.61143C11.9311 7.57286 11.9654 7.54286 12.004 7.54286C12.0469 7.54286 12.0683 7.56428 12.0597 7.59428ZM11.0697 7.75714C11.0783 7.78714 11.0526 7.80857 11.014 7.80857C10.9962 7.80755 10.9793 7.8 10.9667 7.78735C10.954 7.77471 10.9465 7.75785 10.9454 7.74C10.9454 7.66286 11.0397 7.67571 11.0697 7.75714ZM9.50544 7.80428C9.50544 7.88143 9.61686 7.94143 9.68544 7.89857C9.74544 7.86 9.74544 7.85143 9.68544 7.81286C9.59972 7.75714 9.50544 7.75286 9.50544 7.80428ZM8.15972 7.85143C8.10401 7.88571 8.10401 7.90714 8.15115 7.96286C8.26686 8.1 8.36972 8.04428 8.30972 7.88143C8.27544 7.8 8.24972 7.79571 8.15972 7.85143ZM11.3097 7.87714C11.3097 7.90286 11.2883 7.92857 11.2626 7.93714C11.2369 7.94571 11.2154 7.92 11.2154 7.87714C11.2154 7.83428 11.2369 7.80857 11.2583 7.81714C11.2883 7.83 11.3097 7.85571 11.3097 7.87714ZM9.85258 7.90714C9.89544 7.95 9.93401 7.95 10.0111 7.90714C10.1054 7.86429 10.1011 7.86429 9.95544 7.86C9.83972 7.86 9.81401 7.86857 9.85258 7.90714ZM10.7869 7.89857C10.8169 7.95 10.7354 8.00143 10.6754 7.96714C10.624 7.93714 10.6583 7.85571 10.7183 7.85571C10.7397 7.85571 10.7697 7.87286 10.7826 7.89857H10.7869ZM10.4826 7.92857C10.4654 7.94143 10.4269 7.94143 10.3969 7.92857C10.3583 7.91571 10.3711 7.90714 10.4226 7.90286C10.4697 7.90286 10.4954 7.91143 10.4826 7.92857ZM11.9354 7.94571C11.9354 7.97143 11.9011 7.98857 11.8626 7.98857C11.824 7.98857 11.8069 7.97143 11.8197 7.94571C11.8369 7.92 11.8669 7.90286 11.8926 7.90286C11.914 7.90286 11.9354 7.92 11.9354 7.94571ZM9.97686 7.97571C9.92972 7.98857 9.84829 8.03571 9.79686 8.07857C9.74972 8.12143 9.67686 8.16429 9.63829 8.18143C9.58686 8.19857 9.59115 8.20714 9.65544 8.21143C9.73258 8.21143 10.1783 8.08286 10.2211 8.04857C10.2469 8.02714 10.1269 7.94143 10.0926 7.95L9.97686 7.97571ZM11.3911 8.1C11.3911 8.14286 11.3054 8.16428 11.2797 8.12571C11.2669 8.1 11.284 8.08286 11.3226 8.08286C11.3654 8.08286 11.3954 8.08714 11.3954 8.1H11.3911ZM6.74972 8.22429C6.77544 8.25429 6.80544 8.34 6.81829 8.41714C6.84401 8.54571 6.83972 8.55429 6.71544 8.53714C6.62972 8.52429 6.58258 8.53714 6.58258 8.56714C6.58258 8.59714 6.62544 8.61 6.68115 8.61C6.80972 8.58857 6.83972 8.67857 6.71115 8.69571C6.60401 8.71286 6.52686 8.62714 6.56115 8.53286C6.57401 8.49857 6.54401 8.46428 6.49258 8.44714C6.38972 8.42571 6.37258 8.30571 6.45401 8.22C6.52686 8.15143 6.69401 8.15143 6.74972 8.22429ZM7.43544 8.21143C7.43544 8.27143 7.35401 8.31428 7.30258 8.28C7.27686 8.26286 7.26829 8.23286 7.28115 8.21143C7.31544 8.15571 7.43544 8.15571 7.43544 8.21143ZM7.21258 8.39143C7.26401 8.42571 7.25544 8.43429 7.17829 8.43429C7.12258 8.43429 7.07544 8.41714 7.07544 8.39143C7.07544 8.33571 7.12258 8.33571 7.21258 8.39143ZM13.9583 8.43429C13.9583 8.46 13.9283 8.48143 13.8897 8.48143C13.8511 8.48143 13.8211 8.46 13.8211 8.43857C13.8211 8.41286 13.8511 8.39571 13.8897 8.39571C13.9283 8.39571 13.9583 8.41286 13.9583 8.43857V8.43429ZM7.43115 8.47714C7.46544 8.49857 7.47829 8.53714 7.46115 8.56286C7.43972 8.60571 7.40972 8.59714 7.36686 8.55C7.25972 8.44286 7.30258 8.39571 7.43115 8.47714ZM6.44544 8.52428C6.44544 8.55 6.40258 8.56714 6.34686 8.56714C6.26115 8.56714 6.26115 8.56286 6.31258 8.52428C6.39829 8.46857 6.44544 8.46857 6.44544 8.52428ZM7.13972 8.52428C7.15686 8.54571 7.14829 8.61 7.12258 8.66571C7.07972 8.75571 7.07972 8.76 7.07972 8.68286C7.09258 8.52429 7.07972 8.51143 7.01115 8.59714C6.95544 8.67 6.94258 8.67428 6.94258 8.61C6.94258 8.50714 7.09258 8.43857 7.13972 8.52428ZM8.93972 8.57571C8.88829 8.66143 8.96544 8.67857 9.04258 8.60143C9.11544 8.53286 9.11544 8.52428 9.04258 8.52428C9.00401 8.52428 8.95686 8.54571 8.93972 8.57571ZM9.36829 8.61857C9.36829 8.63051 9.37303 8.64195 9.38147 8.65039C9.38991 8.65883 9.40136 8.66357 9.41329 8.66357C9.42523 8.66357 9.43667 8.65883 9.44511 8.65039C9.45355 8.64195 9.45829 8.63051 9.45829 8.61857C9.45829 8.6072 9.45378 8.5963 9.44574 8.58827C9.4377 8.58023 9.4268 8.57571 9.41543 8.57571C9.40407 8.57571 9.39317 8.58023 9.38513 8.58827C9.37709 8.5963 9.37258 8.6072 9.37258 8.61857H9.36829ZM6.41115 8.71286C6.37686 8.74714 6.35544 8.75143 6.35544 8.72143C6.35544 8.66143 6.41115 8.61 6.44115 8.63571C6.45401 8.65286 6.44115 8.68714 6.41115 8.71286ZM9.14544 8.64C9.14544 8.66571 9.16686 8.70857 9.19686 8.73857C9.23972 8.78143 9.23544 8.80714 9.19258 8.85857C9.13258 8.92714 9.19258 8.96143 9.25258 8.89714C9.27401 8.87571 9.32972 8.86286 9.38115 8.86286C9.43258 8.86286 9.48401 8.83286 9.49686 8.80286C9.50972 8.76 9.48829 8.74714 9.41972 8.77286C9.34686 8.79428 9.29972 8.77286 9.23544 8.69571C9.18829 8.64 9.14972 8.61428 9.14972 8.64H9.14544ZM6.98115 8.99143C6.98115 9.02143 6.97258 9.02143 6.95544 8.98286C6.92115 8.89714 6.85258 8.91857 6.87829 9.00857C6.88686 9.05143 6.86972 9.02571 6.83544 8.95286C6.80115 8.87571 6.77972 8.79857 6.79258 8.77714C6.82686 8.73 6.98972 8.91428 6.98115 8.99143ZM7.16544 8.84143C7.16544 8.85279 7.16092 8.86369 7.15288 8.87173C7.14485 8.87977 7.13394 8.88428 7.12258 8.88428C7.11121 8.88428 7.10031 8.87977 7.09227 8.87173C7.08424 8.86369 7.07972 8.85279 7.07972 8.84143C7.07972 8.83006 7.08424 8.81916 7.09227 8.81112C7.10031 8.80309 7.11121 8.79857 7.12258 8.79857C7.13394 8.79857 7.14485 8.80309 7.15288 8.81112C7.16092 8.81916 7.16544 8.83006 7.16544 8.84143ZM10.2769 8.88C10.234 8.90571 10.234 8.92286 10.264 8.94857C10.3197 8.98286 10.4054 8.94428 10.4054 8.88C10.4054 8.82857 10.354 8.82857 10.2769 8.88ZM7.32829 8.94857C7.41401 9.03428 7.40544 9.10714 7.30258 9.10714C7.23401 9.10714 7.21258 9.07714 7.21258 8.99571C7.21258 8.86714 7.23829 8.85857 7.32829 8.94857ZM7.16544 8.97429C7.16544 9 7.14401 9.01714 7.12258 9.01714C7.09258 9.01714 7.07972 9 7.09686 8.97429C7.11401 8.94857 7.13972 8.93143 7.14829 8.93143C7.15686 8.93143 7.16544 8.94857 7.16544 8.97429ZM9.75401 8.97429C9.72401 9.01714 9.79686 9.07286 9.83972 9.03C9.88258 8.98714 9.86972 8.92714 9.82258 8.92714C9.80115 8.92714 9.76686 8.94857 9.75401 8.97V8.97429ZM14.0912 9.01714C14.0912 9.04286 14.0826 9.06 14.074 9.06C14.0611 9.06 14.0397 9.04286 14.0226 9.01714C14.0097 8.99571 14.0183 8.97429 14.044 8.97429C14.0697 8.97429 14.0912 8.99571 14.0912 9.01714ZM9.50544 9.08571C9.50544 9.12429 9.52258 9.15429 9.54829 9.15429C9.57401 9.15429 9.57829 9.12429 9.56544 9.08571C9.55258 9.04714 9.53115 9.01714 9.52258 9.01714C9.51401 9.01714 9.50544 9.04714 9.50544 9.08571ZM9.36829 9.19714C9.36829 9.24428 9.38972 9.28286 9.41115 9.28286C9.44115 9.28286 9.45829 9.24428 9.45829 9.19714C9.45829 9.15 9.44115 9.11143 9.41543 9.11143C9.38972 9.11143 9.37258 9.15 9.37258 9.19714H9.36829ZM9.92544 9.19714C9.92544 9.25714 9.95544 9.28286 9.99829 9.27428C10.0369 9.27 10.0669 9.23143 10.0669 9.19714C10.0669 9.16286 10.0369 9.12429 9.99829 9.12C9.95544 9.11143 9.92972 9.13714 9.92972 9.19714H9.92544ZM10.0883 9.32571C10.0883 9.35571 10.054 9.37714 10.0111 9.37714C9.95972 9.37714 9.95115 9.39 9.98544 9.42428C10.0111 9.45 10.0711 9.46714 10.1183 9.45857C10.2126 9.44143 10.234 9.33 10.144 9.29571C10.114 9.28714 10.0883 9.3 10.0883 9.32571ZM10.3154 9.44143C10.3154 9.48 10.3326 9.51 10.3583 9.51C10.384 9.51 10.4011 9.49286 10.4011 9.46714C10.4011 9.44571 10.384 9.41571 10.3583 9.39857C10.3326 9.38143 10.3154 9.39857 10.3154 9.44143ZM8.69544 9.60428C8.69544 9.63 8.67401 9.63857 8.65258 9.62143C8.62686 9.60857 8.60544 9.57429 8.60544 9.54857C8.60544 9.52714 8.62686 9.51857 8.64829 9.53143C8.67401 9.54857 8.69544 9.57857 8.69544 9.60428ZM10.384 9.64714C10.3969 9.66857 10.4183 9.69 10.4269 9.69C10.4397 9.69 10.4483 9.66857 10.4483 9.64714C10.4483 9.62143 10.4269 9.6 10.4054 9.6C10.3754 9.6 10.3626 9.62143 10.384 9.64286V9.64714ZM6.13258 9.73286C6.13258 9.75857 6.10258 9.77571 6.06401 9.77571C5.99544 9.77571 5.97829 9.72428 6.02544 9.67714C6.05972 9.63857 6.13258 9.67714 6.13258 9.73714V9.73286ZM8.96544 9.75857C8.96544 9.79714 8.94401 9.81429 8.92258 9.80143C8.89686 9.78429 8.87543 9.75428 8.87543 9.73286C8.87543 9.70714 8.89686 9.69 8.91829 9.69C8.94401 9.69 8.96544 9.72 8.96544 9.75857ZM6.71544 9.84857C6.71544 9.88714 6.69829 9.90429 6.67258 9.89143C6.64686 9.87429 6.62972 9.84428 6.62972 9.82286C6.62972 9.79714 6.64686 9.78 6.67258 9.78C6.69829 9.78 6.71544 9.81 6.71544 9.84857ZM8.65258 9.79714C8.65258 9.80571 8.61829 9.82714 8.57972 9.84C8.53686 9.85714 8.52401 9.84857 8.53686 9.82286C8.56686 9.78 8.65258 9.75857 8.65258 9.79714ZM9.62115 9.94714C9.60829 9.96 9.59544 9.94714 9.59544 9.92571C9.59544 9.9 9.55258 9.88714 9.50544 9.9C9.45401 9.91286 9.41543 9.9 9.41543 9.87857C9.41543 9.80571 9.56972 9.79286 9.60829 9.85714C9.62972 9.89143 9.63401 9.93 9.62115 9.94286V9.94714ZM7.76115 9.96857C7.72686 9.99857 7.70544 10.0029 7.70544 9.97286C7.70544 9.91286 7.76115 9.86143 7.79115 9.89143C7.80401 9.90429 7.79115 9.93428 7.76115 9.96857ZM6.44544 9.98143C6.44544 10.0157 6.42829 10.0457 6.40258 10.0457C6.34686 10.0457 6.30829 9.97714 6.34258 9.94286C6.39401 9.89143 6.44544 9.91286 6.44544 9.98143ZM10.5854 9.93857C10.5854 10.0157 10.6711 10.11 10.7011 10.08C10.7226 10.0586 10.7011 10.0114 10.6583 9.96857C10.6154 9.92571 10.5854 9.91286 10.5854 9.93857ZM8.15544 10.0457C8.15544 10.0571 8.15092 10.068 8.14288 10.076C8.13485 10.0841 8.12394 10.0886 8.11258 10.0886C8.10121 10.0886 8.09031 10.0841 8.08227 10.076C8.07424 10.068 8.06972 10.0571 8.06972 10.0457C8.06972 10.0343 8.07424 10.0234 8.08227 10.0154C8.09031 10.0074 8.10121 10.0029 8.11258 10.0029C8.12394 10.0029 8.13485 10.0074 8.14288 10.0154C8.15092 10.0234 8.15544 10.0343 8.15544 10.0457ZM7.79544 10.1143C7.79544 10.1529 7.76544 10.1829 7.72686 10.1829C7.65829 10.1829 7.64115 10.1271 7.69258 10.0757C7.74401 10.0243 7.79544 10.0457 7.79544 10.1143ZM7.20401 10.2214C7.22544 10.3629 7.14401 10.4357 7.05401 10.3629C6.96829 10.2943 6.96829 10.1486 7.04115 10.1229C7.13544 10.08 7.18686 10.1143 7.20401 10.2214ZM8.83258 10.1357C8.83258 10.1476 8.82784 10.1591 8.8194 10.1675C8.81096 10.176 8.79951 10.1807 8.78758 10.1807C8.77564 10.1807 8.7642 10.176 8.75576 10.1675C8.74732 10.1591 8.74258 10.1476 8.74258 10.1357C8.74258 10.1243 8.74709 10.1134 8.75513 10.1054C8.76317 10.0974 8.77407 10.0929 8.78544 10.0929C8.7968 10.0929 8.8077 10.0974 8.81574 10.1054C8.82378 10.1134 8.82829 10.1243 8.82829 10.1357H8.83258ZM6.02544 10.26C5.98258 10.3029 5.93972 10.2343 5.97829 10.1743C6.00829 10.1314 6.02115 10.1314 6.03401 10.1743C6.04258 10.2043 6.03829 10.2429 6.02544 10.26ZM9.59544 10.2729C9.59544 10.3243 9.57401 10.3543 9.55258 10.3371C9.52686 10.3243 9.50544 10.2814 9.50544 10.2471C9.50544 10.2086 9.52686 10.1829 9.54829 10.1829C9.57401 10.1829 9.59115 10.2257 9.59115 10.2729H9.59544ZM7.70972 10.2729C7.70972 10.2842 7.70521 10.2951 7.69717 10.3032C7.68913 10.3112 7.67823 10.3157 7.66686 10.3157C7.64115 10.3157 7.60686 10.2943 7.59401 10.2729C7.57686 10.2471 7.59401 10.23 7.63686 10.23C7.67544 10.23 7.70544 10.2471 7.70544 10.2729H7.70972ZM7.66258 10.47C7.66258 10.4882 7.65535 10.5056 7.64249 10.5185C7.62963 10.5313 7.61219 10.5386 7.59401 10.5386C7.57582 10.5386 7.55838 10.5313 7.54552 10.5185C7.53266 10.5056 7.52543 10.4882 7.52543 10.47C7.52543 10.4518 7.53266 10.4344 7.54552 10.4215C7.55838 10.4087 7.57582 10.4014 7.59401 10.4014C7.61219 10.4014 7.62963 10.4087 7.64249 10.4215C7.65535 10.4344 7.66258 10.4518 7.66258 10.47ZM6.67258 10.4957C6.67258 10.5076 6.66784 10.5191 6.6594 10.5275C6.65096 10.536 6.63951 10.5407 6.62758 10.5407C6.61564 10.5407 6.6042 10.536 6.59576 10.5275C6.58732 10.5191 6.58258 10.5076 6.58258 10.4957C6.58258 10.4843 6.58709 10.4734 6.59513 10.4654C6.60317 10.4574 6.61407 10.4529 6.62544 10.4529C6.6368 10.4529 6.6477 10.4574 6.65574 10.4654C6.66378 10.4734 6.66829 10.4843 6.66829 10.4957H6.67258ZM9.25686 10.4957C9.27401 10.5171 9.26544 10.5386 9.23972 10.5386C9.21401 10.5386 9.18401 10.5171 9.16686 10.4957C9.15401 10.47 9.15829 10.4529 9.18401 10.4529C9.20972 10.4529 9.24401 10.47 9.25686 10.4957ZM6.76258 10.7357C6.76258 10.7914 6.67686 10.8986 6.62544 10.8986C6.60401 10.8986 6.59972 10.6757 6.62115 10.6414C6.63829 10.6114 6.76258 10.6929 6.76258 10.7357ZM15.1197 10.7614C15.1283 10.7914 15.1111 10.8086 15.0769 10.8C15.0595 10.7929 15.0438 10.7824 15.0306 10.7692C15.0173 10.7559 15.0068 10.7402 14.9997 10.7229C14.9869 10.6886 15.004 10.6714 15.0426 10.68C15.0726 10.6929 15.1069 10.7271 15.1197 10.7614ZM6.93401 10.8129C6.83972 10.8729 6.79686 10.8557 6.86115 10.7914C6.89115 10.7571 6.93829 10.7357 6.95544 10.7486C6.97686 10.7614 6.96829 10.7914 6.93401 10.8129ZM7.34544 10.7829C7.34544 10.8171 7.32401 10.86 7.30258 10.8729C7.27686 10.89 7.25972 10.98 7.25972 11.0743C7.25972 11.1729 7.23401 11.2629 7.21258 11.2757C7.18686 11.2929 7.16972 11.2886 7.16972 11.2671C7.16972 11.2457 7.12686 11.1814 7.07544 11.13C6.95972 11.0057 6.98972 10.8771 7.16115 10.7871C7.31972 10.7057 7.34544 10.7057 7.34544 10.7829ZM7.58972 10.8257C7.56401 10.89 7.48258 10.9286 7.48258 10.8686C7.48258 10.8429 7.58972 10.7229 7.60686 10.74C7.61115 10.7443 7.60686 10.7829 7.58972 10.8257ZM16.264 10.8686C16.3754 10.9543 16.3583 10.9971 16.2211 10.98C16.144 10.9714 16.0883 10.9329 16.0797 10.8857C16.0626 10.7914 16.1526 10.7871 16.264 10.8686ZM17.7297 10.9543C18.0983 11.1986 18.3511 11.7 18.3983 12.27C18.4883 13.47 17.5283 13.95 16.6883 13.1271C16.5477 12.9889 16.4292 12.8299 16.3369 12.6557C16.2211 12.3986 16.1783 11.8843 16.2469 11.6271C16.324 11.34 16.5597 11.0271 16.7912 10.9071C17.0697 10.7614 17.464 10.7786 17.7297 10.9543ZM9.48401 11.0314C9.46258 11.0657 9.43686 11.07 9.40686 11.04C9.39474 11.0269 9.38699 11.0104 9.38469 10.9928C9.38238 10.9751 9.38564 10.9572 9.39401 10.9414C9.41544 10.9071 9.43686 10.9029 9.47115 10.9329C9.48327 10.9459 9.49102 10.9624 9.49333 10.9801C9.49563 10.9978 9.49237 11.0157 9.48401 11.0314ZM6.80544 11.0743C6.80544 11.13 6.68972 11.2157 6.65544 11.1814C6.59544 11.1171 6.62972 11.0314 6.71544 11.0314C6.76686 11.0314 6.80544 11.0486 6.80544 11.0743ZM9.99829 11.1257C9.99829 11.1514 9.98115 11.16 9.95544 11.1429C9.92972 11.1257 9.91258 11.0957 9.91258 11.07C9.91258 11.0443 9.92972 11.04 9.95544 11.0529C9.98115 11.07 9.99829 11.1 9.99829 11.1257ZM12.784 11.1686C12.784 11.19 12.7583 11.2114 12.724 11.2114C12.6511 11.2114 12.5526 11.1 12.5954 11.0614C12.6297 11.0271 12.7883 11.1129 12.7883 11.1686H12.784ZM6.49258 11.1214C6.49258 11.1334 6.48784 11.1448 6.4794 11.1532C6.47096 11.1617 6.45951 11.1664 6.44758 11.1664C6.43564 11.1664 6.4242 11.1617 6.41576 11.1532C6.40732 11.1448 6.40258 11.1334 6.40258 11.1214C6.40258 11.1101 6.40709 11.0992 6.41513 11.0911C6.42317 11.0831 6.43407 11.0786 6.44544 11.0786C6.4568 11.0786 6.4677 11.0831 6.47574 11.0911C6.48378 11.0992 6.48829 11.1101 6.48829 11.1214H6.49258ZM9.61686 11.3014C9.59115 11.3443 9.45829 11.3057 9.45829 11.2586C9.45829 11.2414 9.47544 11.2157 9.48829 11.1943C9.53115 11.1557 9.64686 11.2543 9.61686 11.3014ZM12.4026 11.2114C12.4197 11.2329 12.4111 11.2543 12.3854 11.2543C12.3597 11.2543 12.3383 11.2329 12.3383 11.2114C12.3383 11.1857 12.3469 11.1686 12.3597 11.1686C12.3683 11.1686 12.3897 11.1857 12.4026 11.2114ZM6.97686 11.4129C6.97686 11.4729 6.96401 11.5243 6.94686 11.5243C6.92972 11.5243 6.91258 11.4729 6.90401 11.4129C6.90401 11.3486 6.91686 11.3014 6.93829 11.3014C6.95972 11.3014 6.97686 11.3486 6.97686 11.4129ZM7.22972 11.4557C7.28972 11.55 7.29401 11.5671 7.23829 11.5671C7.20401 11.5671 7.16544 11.5929 7.15258 11.6229C7.10972 11.7343 7.01972 11.58 7.04972 11.46C7.08401 11.3143 7.13544 11.3143 7.22972 11.46V11.4557ZM7.61544 11.4343C7.61544 11.5286 7.55115 11.5543 7.50401 11.4771C7.46972 11.4257 7.51258 11.3443 7.57258 11.3443C7.59829 11.3443 7.61544 11.3871 7.61544 11.43V11.4343ZM8.42972 11.4129C8.42972 11.4343 8.41258 11.46 8.38686 11.4686C8.35686 11.4771 8.33544 11.4514 8.33544 11.4129C8.33544 11.37 8.35686 11.3443 8.38258 11.3529C8.41258 11.3614 8.43401 11.3871 8.43401 11.4129H8.42972ZM9.97258 11.4429L10.0669 11.9443C10.1737 12.5882 10.4339 13.1969 10.8255 13.7191C11.2171 14.2412 11.7286 14.6615 12.3169 14.9443C13.4911 15.5143 15.2183 15.6086 16.2126 15.1586C16.5812 14.9871 16.774 14.8243 16.8983 14.5671C16.9711 14.4086 17.0183 14.3614 17.1169 14.3529C17.284 14.3314 17.314 14.43 17.2197 14.6743C16.9797 15.3 16.0969 15.7071 14.8669 15.7586C13.1183 15.8357 11.6097 15.2357 10.6883 14.0957C10.3626 13.6929 9.95972 12.9343 9.83972 12.4843C9.77544 12.2486 9.74543 12.1929 9.66829 12.1886C9.58258 12.1843 9.58258 12.18 9.65544 12.1629C9.72401 12.1457 9.73258 12.1157 9.71115 12C9.65544 11.7386 9.65115 11.4557 9.69401 11.4C9.77544 11.3014 9.95115 11.3314 9.97258 11.4429ZM12.8997 11.4343C12.9169 11.46 12.9083 11.4771 12.8826 11.4771C12.8526 11.4771 12.8312 11.46 12.8312 11.4343C12.8312 11.4086 12.8397 11.3914 12.8526 11.3914C12.8654 11.3914 12.8869 11.4086 12.8997 11.4343ZM9.57401 11.4771C9.58686 11.5029 9.57829 11.52 9.55258 11.52C9.52686 11.52 9.50544 11.5029 9.50544 11.4771C9.50544 11.4557 9.51401 11.4343 9.52686 11.4343C9.53544 11.4343 9.55686 11.4557 9.56972 11.4771H9.57401ZM8.11258 11.52C8.11258 11.5457 8.09115 11.5671 8.06115 11.5671C8.03544 11.5671 8.02686 11.5457 8.04401 11.5243C8.05686 11.4986 8.07829 11.4814 8.09115 11.4814C8.10401 11.4814 8.11258 11.4986 8.11258 11.5243V11.52ZM6.92544 11.6314C6.95544 11.7171 6.86544 11.88 6.78401 11.88C6.70686 11.88 6.69829 11.7771 6.76258 11.6529C6.81829 11.5543 6.89115 11.5414 6.92544 11.6314ZM9.00829 11.7514C9.00829 11.7729 8.99115 11.7943 8.96544 11.7943C8.93972 11.7943 8.92258 11.76 8.92258 11.7214C8.92258 11.6829 8.93972 11.6657 8.96544 11.6786C8.99115 11.6957 9.00829 11.7257 9.00829 11.7514ZM12.7197 11.7471C12.7369 11.7729 12.7283 11.79 12.7026 11.79C12.6769 11.79 12.6469 11.7729 12.6297 11.7471C12.6169 11.7214 12.6211 11.7043 12.6469 11.7043C12.6726 11.7043 12.7069 11.7214 12.7197 11.7471ZM9.23544 11.8329C9.23544 11.8448 9.23069 11.8562 9.22226 11.8647C9.21382 11.8731 9.20237 11.8779 9.19044 11.8779C9.1785 11.8779 9.16705 11.8731 9.15862 11.8647C9.15018 11.8562 9.14544 11.8448 9.14544 11.8329C9.14544 11.8215 9.14995 11.8106 9.15799 11.8026C9.16603 11.7945 9.17693 11.79 9.18829 11.79C9.19966 11.79 9.21056 11.7945 9.2186 11.8026C9.22663 11.8106 9.23115 11.8215 9.23115 11.8329H9.23544ZM14.2883 12.0257C14.314 12.0686 14.3226 12.1157 14.3011 12.1329C14.254 12.1843 14.1169 12.09 14.0997 11.9957C14.0783 11.8971 14.2197 11.9186 14.2883 12.0257ZM12.6297 12.1886C12.5954 12.2229 12.4712 12.0943 12.4754 12.0171C12.4754 11.9657 12.4969 11.9743 12.5611 12.06C12.6083 12.12 12.6383 12.18 12.6297 12.1886ZM9.49258 12.1757C9.44972 12.2186 9.32115 12.1029 9.35544 12.0471C9.36829 12.0257 9.41115 12.0343 9.44972 12.0771C9.49258 12.1157 9.50972 12.1629 9.49258 12.1757ZM6.82258 12.1329C6.85686 12.2143 6.81401 12.4157 6.76258 12.4157C6.68544 12.4157 6.61686 12.2786 6.64686 12.1714C6.67686 12.0429 6.78401 12.0214 6.82258 12.1286V12.1329ZM6.53544 12.39C6.53544 12.4629 6.45401 12.5314 6.41544 12.4929C6.37686 12.4543 6.43686 12.33 6.48829 12.33C6.51401 12.33 6.53544 12.3557 6.53544 12.3943V12.39ZM14.3912 12.51C14.3912 12.5957 14.374 12.6386 14.3311 12.6386C14.254 12.6386 14.194 12.4971 14.2626 12.4714C14.2926 12.4629 14.3183 12.4243 14.3183 12.3857C14.3183 12.2571 14.3826 12.3729 14.3912 12.5143V12.51ZM13.0583 12.5529C13.0583 12.5786 13.0497 12.5957 13.0369 12.5957C13.0283 12.5957 13.0069 12.5786 12.994 12.5529C12.9769 12.5271 12.9854 12.51 13.0111 12.51C13.0369 12.51 13.054 12.5271 13.054 12.5529H13.0583ZM13.7783 12.5743C13.8083 12.6171 13.8126 12.6429 13.7869 12.6429C13.7611 12.6429 13.7526 12.6857 13.7654 12.7371C13.7954 12.8529 13.6969 12.8357 13.624 12.7114C13.5854 12.6514 13.5897 12.6257 13.6326 12.6086C13.6626 12.6 13.6754 12.57 13.6626 12.5486C13.6197 12.48 13.7183 12.5057 13.7783 12.5743ZM6.80544 12.6171C6.80544 12.6514 6.78829 12.6943 6.76258 12.7071C6.73686 12.7243 6.71972 12.6943 6.71972 12.6429C6.71972 12.5914 6.73686 12.5529 6.76258 12.5529C6.78829 12.5529 6.80544 12.5829 6.80544 12.6171ZM8.47258 12.5957C8.47258 12.6076 8.46784 12.6191 8.4594 12.6275C8.45096 12.636 8.43951 12.6407 8.42758 12.6407C8.41564 12.6407 8.4042 12.636 8.39576 12.6275C8.38732 12.6191 8.38258 12.6076 8.38258 12.5957C8.38258 12.5843 8.38709 12.5734 8.39513 12.5654C8.40317 12.5574 8.41407 12.5529 8.42544 12.5529C8.4368 12.5529 8.4477 12.5574 8.45574 12.5654C8.46378 12.5734 8.46829 12.5843 8.46829 12.5957H8.47258ZM8.82829 12.7329C8.82829 12.78 8.81115 12.8186 8.78544 12.8186C8.75972 12.8186 8.74258 12.78 8.74258 12.7329C8.74258 12.6814 8.75972 12.6429 8.78544 12.6429C8.81115 12.6429 8.82829 12.6814 8.82829 12.7286V12.7329ZM9.41543 13.02C9.41543 13.0586 9.40686 13.0886 9.39829 13.0886C9.38972 13.0886 9.36829 13.0586 9.35544 13.02C9.33829 12.9857 9.34686 12.9557 9.37258 12.9557C9.39401 12.9557 9.41543 12.9857 9.41543 13.02ZM15.1926 13.1786C15.2097 13.2043 15.2011 13.2214 15.1754 13.2214C15.1497 13.2214 15.1283 13.2043 15.1283 13.1786C15.1283 13.1529 15.1369 13.1357 15.1454 13.1357C15.1583 13.1357 15.1797 13.1529 15.1926 13.1786ZM14.7897 13.4486C14.8026 13.47 14.794 13.4914 14.7683 13.4914C14.7426 13.4914 14.7254 13.47 14.7254 13.4486C14.7254 13.4229 14.7297 13.4057 14.7426 13.4057C14.7511 13.4057 14.7726 13.4229 14.7854 13.4486H14.7897ZM12.1797 13.4914C12.1969 13.5171 12.1883 13.5343 12.1626 13.5343C12.1369 13.5343 12.1154 13.5171 12.1154 13.4914C12.1154 13.4657 12.124 13.4486 12.1326 13.4486C12.1454 13.4486 12.1669 13.4657 12.1797 13.4914ZM12.694 13.7186C12.694 13.7443 12.6769 13.7529 12.6511 13.7357C12.6297 13.7229 12.6083 13.6929 12.6083 13.6629C12.6083 13.6414 12.6297 13.6329 12.6511 13.6457C12.6769 13.6629 12.694 13.6971 12.694 13.7186ZM11.9997 13.7614C12.0169 13.7829 12.0083 13.8043 11.9826 13.8043C11.9569 13.8043 11.9354 13.7829 11.9354 13.7614C11.9354 13.7357 11.944 13.7186 11.9526 13.7186C11.9654 13.7186 11.9869 13.7357 11.9997 13.7614ZM8.80258 14.1386C8.81544 14.1729 8.80686 14.2157 8.78544 14.2286C8.75972 14.2457 8.74258 14.2157 8.74258 14.1643C8.74258 14.0571 8.76401 14.0443 8.80258 14.1386ZM17.1726 14.16C17.1897 14.1857 17.1769 14.2029 17.1511 14.2029C17.1254 14.2029 17.1083 14.1857 17.1083 14.16C17.1083 14.1386 17.1126 14.1171 17.1254 14.1171C17.134 14.1171 17.1554 14.1386 17.1726 14.16ZM12.6511 14.34C12.6511 14.3657 12.6426 14.3829 12.634 14.3829C12.6211 14.3829 12.5997 14.3657 12.5869 14.34C12.5697 14.3186 12.5783 14.2971 12.604 14.2971C12.6297 14.2971 12.6511 14.3186 12.6511 14.34ZM16.0669 14.3957C16.1097 14.5071 16.084 14.61 16.024 14.61C15.964 14.61 15.8826 14.43 15.9083 14.3614C15.9469 14.2629 16.024 14.2843 16.0669 14.3957ZM14.6526 14.5671C14.6697 14.5886 14.6612 14.61 14.6354 14.61C14.6097 14.61 14.5883 14.5886 14.5883 14.5671C14.5883 14.5414 14.5969 14.52 14.6054 14.52C14.6183 14.52 14.6397 14.5414 14.6526 14.5629V14.5671ZM7.97544 14.7814C7.97544 14.8371 7.92401 14.88 7.87686 14.85C7.83401 14.8243 7.87258 14.7429 7.93258 14.7429C7.95829 14.7429 7.97544 14.76 7.97544 14.7814ZM9.63829 15.0814C9.63829 15.12 9.62115 15.1371 9.59544 15.1243C9.56972 15.1071 9.55258 15.0771 9.55258 15.0557C9.55258 15.03 9.56972 15.0129 9.59544 15.0129C9.62115 15.0129 9.63829 15.0429 9.63829 15.0814ZM11.9097 15.8186C11.9269 15.84 11.9183 15.8614 11.8926 15.8614C11.8669 15.8614 11.8454 15.84 11.8454 15.8186C11.8454 15.7929 11.854 15.7757 11.8626 15.7757C11.8754 15.7757 11.8969 15.7929 11.9097 15.8186Z" fill="#FFF100"/>
<path d="M12.9426 5.57143C12.9297 5.59714 12.9426 5.61857 12.964 5.61857C12.9897 5.61857 13.0111 5.59714 13.0111 5.57571C13.0111 5.55 13.0026 5.53286 12.994 5.53286C12.9811 5.53286 12.9597 5.55 12.9469 5.57571L12.9426 5.57143ZM10.3926 5.7C10.264 5.76 10.2254 5.84571 10.324 5.84143C10.4054 5.84143 10.5511 5.72143 10.534 5.67428C10.5254 5.65286 10.4611 5.66571 10.3926 5.69571V5.7ZM8.83258 6.04714C8.83258 6.10714 8.84115 6.11143 8.89686 6.06428C8.93544 6.03428 8.96544 6.00428 8.96544 5.99571C8.96544 5.98286 8.93544 5.97857 8.89686 5.97857C8.86258 5.97857 8.83258 6.00857 8.83258 6.04714ZM9.38972 6.11571C9.34686 6.18428 9.44115 6.26143 9.52258 6.23143C9.56543 6.21429 9.59544 6.17143 9.59544 6.13286C9.59544 6.05571 9.43686 6.04286 9.38972 6.11571ZM9.80544 6.17571C9.67686 6.29571 9.39829 6.39857 9.30401 6.36429C9.26544 6.35143 9.25258 6.30429 9.26544 6.24857C9.27829 6.19714 9.26544 6.15428 9.24401 6.15428C9.21401 6.15428 9.20115 6.18428 9.21829 6.21428C9.24401 6.29143 8.81972 6.26571 8.63972 6.18C8.52829 6.12428 8.49829 6.13714 8.14686 6.37286C7.94544 6.51 7.60258 6.78857 7.39258 6.99C7.01544 7.34571 7.01115 7.35428 7.01972 7.55571C7.02829 7.76143 6.96401 7.87286 6.89115 7.76143C6.86544 7.71857 6.84401 7.71857 6.79686 7.75714C6.75829 7.78714 6.71544 7.79571 6.69829 7.77857C6.68115 7.76143 6.62115 7.80857 6.56115 7.88143C6.48401 7.97571 6.46686 8.02714 6.50115 8.06571C6.57401 8.15143 6.62544 8.13429 6.67258 8.01C6.70686 7.92429 6.74544 7.89857 6.86972 7.89857C6.95544 7.89857 7.03258 7.87286 7.04544 7.84286C7.05829 7.81286 7.07115 7.83 7.07115 7.88143C7.07115 7.92857 7.05401 7.99714 7.02401 8.02714C6.98115 8.07 6.98115 8.07857 7.04115 8.07857C7.08401 8.07857 7.12686 8.10428 7.13544 8.13428C7.15258 8.17714 7.17829 8.17286 7.23401 8.11714C7.30258 8.05286 7.30258 8.04 7.23401 7.97571C7.19115 7.93286 7.17401 7.86428 7.19544 7.77C7.21686 7.67143 7.19972 7.60286 7.14829 7.54714C7.09686 7.49143 7.08829 7.45286 7.11829 7.43143C7.14401 7.41429 7.16544 7.42286 7.16544 7.44428C7.16544 7.51714 7.30686 7.54714 7.37972 7.48714C7.40972 7.46143 7.43115 7.41 7.41829 7.38C7.40544 7.34571 7.41401 7.32 7.43544 7.32C7.48258 7.32 7.56829 7.59 7.53829 7.64571C7.52544 7.66714 7.49115 7.64571 7.45258 7.60286C7.40115 7.53 7.38829 7.53 7.34972 7.58571C7.28972 7.68 7.36686 7.79143 7.53401 7.85143C7.61115 7.87714 7.66258 7.91143 7.64972 7.92857C7.63258 7.94143 7.67115 8.00571 7.73544 8.07428C7.84686 8.19857 7.86829 8.28 7.79544 8.32714C7.76972 8.34 7.75258 8.32286 7.75258 8.28428C7.75258 8.24143 7.73115 8.21143 7.70972 8.21143C7.67972 8.21143 7.66258 8.31428 7.66258 8.43857C7.66258 8.55857 7.64115 8.66143 7.61972 8.66143C7.58972 8.66143 7.57258 8.69143 7.57258 8.72571C7.57258 8.76857 7.61544 8.79428 7.67972 8.79428C7.73972 8.79428 7.80401 8.81571 7.82115 8.84143C7.83829 8.86714 7.87686 8.88 7.91115 8.86714C7.94543 8.85429 7.98401 8.86286 7.99686 8.88428C8.02686 8.93143 7.52544 9.18857 7.24258 9.27C7.02829 9.32571 6.79686 9.29143 6.81401 9.21C6.83972 9.03857 6.72401 9.01714 6.54829 9.15429C6.47544 9.21 6.41972 9.22714 6.38972 9.20143C6.36401 9.18 6.31686 9.17143 6.28258 9.18429C6.11115 9.25286 6.34258 9.66428 6.53115 9.61286C6.58258 9.6 6.62544 9.56571 6.62544 9.53571C6.62544 9.44143 6.83544 9.51 6.96829 9.64286C7.03258 9.71571 7.07972 9.78857 7.07115 9.81C7.06686 9.82714 7.09258 9.85286 7.13544 9.86143C7.17829 9.87 7.21258 9.86143 7.21258 9.83571C7.21258 9.81857 7.22972 9.77143 7.25544 9.73714C7.28972 9.68143 7.30686 9.68143 7.37115 9.73714C7.43115 9.78428 7.45686 9.78857 7.46972 9.74571C7.49544 9.66857 7.57258 9.67714 7.57258 9.75428C7.57258 9.84 7.64115 9.84428 7.68829 9.77143C7.70972 9.74143 7.66258 9.66857 7.57686 9.6L7.43115 9.47571L7.54258 9.45428C7.60686 9.44571 7.67972 9.45429 7.70544 9.48C7.73544 9.51429 7.74829 9.50571 7.74829 9.45428C7.74829 9.41143 7.79972 9.36857 7.87686 9.34714C7.94115 9.33 8.03544 9.27857 8.07829 9.22714C8.13829 9.15857 8.16829 9.15 8.21115 9.18857C8.25401 9.23143 8.25401 9.26143 8.21115 9.33C8.18109 9.37652 8.16204 9.42929 8.15544 9.48428C8.15544 9.52286 8.11258 9.57 8.06972 9.6C8.01829 9.62571 7.97544 9.68571 7.97544 9.72857C7.97544 9.77143 7.94544 9.83571 7.90686 9.87C7.82115 9.93857 7.82115 9.99857 7.90686 9.99857C7.95829 9.99857 8.07829 9.88286 8.37829 9.51428C8.42972 9.45428 8.47258 9.42857 8.47258 9.45857C8.47258 9.48857 8.49401 9.51 8.51972 9.51C8.54972 9.51 8.54115 9.46714 8.49829 9.39857C8.39972 9.24857 8.40401 9.22714 8.55829 9.25286C8.66972 9.26571 8.68686 9.25714 8.65258 9.19714C8.60115 9.10714 8.73829 9.00857 8.83258 9.06857C8.91829 9.12 9.00829 9.12 9.00829 9.06428C9.00829 9.03857 8.95686 9.00857 8.89258 8.99143C8.81115 8.97 8.79401 8.94857 8.82829 8.91428C8.86258 8.88 8.88829 8.88 8.92686 8.91428C8.95258 8.94428 9.00401 8.95714 9.03829 8.94429C9.07686 8.92714 9.10258 8.93571 9.09829 8.95714C9.07686 9.05571 9.10686 9.10714 9.17115 9.10714C9.22258 9.10714 9.23972 9.13714 9.22258 9.19714C9.20972 9.24857 9.21829 9.27428 9.23972 9.26143C9.26115 9.24857 9.28258 9.25714 9.28258 9.27857C9.28258 9.30428 9.32972 9.38571 9.39401 9.45857C9.45401 9.53143 9.49686 9.61714 9.47972 9.65143C9.46686 9.69429 9.50972 9.73286 9.59544 9.76286C9.66829 9.79286 9.72829 9.84857 9.72829 9.88714C9.72829 9.92571 9.74972 9.95571 9.77972 9.95571C9.80544 9.95571 9.82258 9.91286 9.80972 9.85714C9.78401 9.66857 9.93829 9.72857 10.2169 10.02C10.4054 10.2171 10.4954 10.3414 10.4954 10.4186C10.4954 10.4829 10.5126 10.5814 10.5383 10.6457C10.5897 10.7829 10.8554 11.0486 11.0183 11.13C11.0869 11.16 11.1897 11.2543 11.2326 11.3314C11.3311 11.4857 11.3954 11.5157 11.3954 11.4171C11.3954 11.3786 11.4169 11.3443 11.4469 11.3314C11.4811 11.3229 11.4597 11.2629 11.3826 11.16C11.2583 11.0014 11.2111 10.8771 11.2711 10.86C11.3397 10.8386 11.5283 10.9071 11.5797 10.9714C11.614 11.01 11.6783 11.0571 11.7297 11.0786C11.8797 11.1471 11.9954 11.2286 12.0597 11.31C12.124 11.3957 12.274 11.4171 12.3126 11.3529C12.3254 11.3271 12.2912 11.28 12.2312 11.2414C12.1754 11.2029 12.1026 11.1129 12.0726 11.0443C12.004 10.8771 11.6526 10.6586 11.5069 10.6843C11.4297 10.6971 11.3569 10.6714 11.2797 10.5986C11.1383 10.47 11.134 10.38 11.2711 10.47C11.3997 10.5557 11.5069 10.4957 11.464 10.3671C11.4424 10.3083 11.4017 10.2585 11.3483 10.2257C11.2797 10.1871 11.2497 10.1957 11.2069 10.2686C11.1511 10.3543 11.1469 10.3543 11.0483 10.26C10.9883 10.2086 10.9454 10.1314 10.9454 10.0886C10.9454 9.99428 10.8297 9.89571 10.7654 9.93428C10.7397 9.95143 10.7226 9.99 10.7226 10.0286C10.7226 10.1143 10.6454 10.11 10.6111 10.02C10.5683 9.90857 10.5811 9.87 10.654 9.87C10.6883 9.87 10.7183 9.84857 10.7183 9.82714C10.7183 9.76286 10.5897 9.68143 10.5383 9.71143C10.4697 9.75428 10.3583 9.65143 10.3883 9.57428C10.4011 9.54 10.3883 9.51 10.3626 9.51C10.3369 9.51 10.3154 9.48428 10.3154 9.45C10.3154 9.36428 10.4826 9.22714 10.5554 9.25714C10.594 9.27 10.6326 9.25286 10.6454 9.21428C10.6711 9.15 10.4183 8.94428 10.3283 8.96571C10.3129 8.96793 10.2972 8.96591 10.2828 8.95987C10.2685 8.95383 10.256 8.944 10.2469 8.93143C10.2169 8.88428 10.2554 8.87143 10.4483 8.86714C10.534 8.86286 10.5597 8.84143 10.5469 8.78143C10.5447 8.72465 10.558 8.66835 10.5854 8.61857C10.6283 8.54143 10.6154 8.52428 10.5083 8.49857C10.3069 8.45143 10.2254 8.39571 10.2511 8.32714C10.2897 8.22857 10.4354 8.24143 10.5383 8.34857C10.6497 8.45571 10.6497 8.44286 10.5597 8.22C10.5126 8.1 10.4526 8.03571 10.3883 8.02286C10.3369 8.01428 10.2983 7.98 10.3026 7.95C10.3111 7.91571 10.294 7.86428 10.2597 7.82143C10.2169 7.77428 10.2169 7.75286 10.264 7.72286C10.3069 7.69714 10.3069 7.68 10.2469 7.65857C10.1354 7.61571 10.204 7.55143 10.4054 7.52143C10.5854 7.49143 10.5854 7.48714 10.5769 7.30714C10.5683 7.08 10.5169 6.99857 10.294 6.84857C10.1354 6.73714 10.1226 6.73714 10.0626 6.81428C10.0329 6.8519 10.0123 6.89592 10.0026 6.94286C10.0026 6.96857 9.93401 6.98143 9.84401 6.96857C9.73686 6.95571 9.68544 6.96857 9.68544 7.00714C9.68544 7.05857 9.61686 7.05 9.44115 6.98143C9.37258 6.95143 9.35972 6.96 9.38544 7.02C9.40686 7.08428 9.38115 7.09714 9.21401 7.10571L8.95686 7.11429C8.93115 7.11429 8.86686 7.06286 8.81544 6.99C8.73829 6.89143 8.72972 6.86143 8.78115 6.83143C8.83258 6.79714 8.82829 6.77571 8.76829 6.68571C8.73066 6.63521 8.70568 6.57643 8.69544 6.51428C8.69544 6.48428 8.66115 6.41571 8.62258 6.37286C8.55401 6.29571 8.56258 6.29143 8.85829 6.31714C9.02972 6.33428 9.18829 6.36 9.20972 6.38571C9.26972 6.43714 9.46686 6.43286 9.63829 6.37286C9.74115 6.33857 9.79258 6.33857 9.84401 6.38143C9.93829 6.45857 10.0454 6.40286 10.0454 6.27429C10.0454 6.09429 9.94258 6.05143 9.80544 6.17571ZM13.534 6.29143C13.5169 6.31286 13.5426 6.33429 13.594 6.33429C13.6411 6.33429 13.6926 6.31286 13.7097 6.29143C13.7269 6.26571 13.6969 6.24857 13.6497 6.24857C13.5983 6.24857 13.5469 6.26571 13.5297 6.29143L13.534 6.29143ZM10.7483 6.42C10.7269 6.45 10.7226 6.48857 10.7354 6.50143C10.7783 6.54428 10.8211 6.48429 10.7997 6.41571C10.7826 6.37286 10.774 6.37286 10.744 6.41571L10.7483 6.42ZM10.9069 6.83143C10.9197 6.86143 10.954 6.89571 10.9883 6.90857C11.0183 6.91714 11.0354 6.9 11.0269 6.86571C11.0193 6.84798 11.0081 6.83199 10.9941 6.81872C10.9801 6.80546 10.9636 6.7952 10.9454 6.78857C10.9154 6.78 10.8983 6.79714 10.9069 6.83143ZM13.0369 6.96C12.994 7.03286 13.0883 7.04571 13.174 6.98143C13.2597 6.92143 13.2597 6.91714 13.1611 6.91714C13.1054 6.91714 13.0497 6.93428 13.0369 6.96ZM7.48258 7.16143C7.48258 7.2 7.45258 7.23 7.41401 7.23C7.29829 7.23 7.33686 7.14428 7.46972 7.10143C7.47829 7.09714 7.48258 7.12714 7.48258 7.16143ZM10.7312 7.49143C10.7483 7.55143 10.7397 7.57714 10.7097 7.56C10.6626 7.53 10.5854 7.62 10.5811 7.71C10.5811 7.74 10.6154 7.76571 10.654 7.76571C10.6883 7.76571 10.7183 7.73143 10.7183 7.69286C10.7183 7.65 10.744 7.63286 10.7911 7.65C10.8426 7.67143 10.8554 7.65 10.8469 7.55571C10.8383 7.49143 10.804 7.42714 10.7697 7.41857C10.7269 7.40143 10.714 7.42286 10.7269 7.49143L10.7312 7.49143ZM6.83544 7.53C6.78401 7.57714 6.80543 7.63286 6.87829 7.63286C6.91258 7.63286 6.94258 7.61143 6.94258 7.59C6.94258 7.53428 6.86972 7.49143 6.83544 7.53ZM8.37829 7.60714C8.32686 7.67571 8.24972 7.66286 8.24972 7.58571C8.24972 7.56 8.29258 7.54286 8.33972 7.54286C8.42115 7.54286 8.42544 7.55143 8.38258 7.60714L8.37829 7.60714ZM9.77543 7.60714C9.77543 7.68429 9.76686 7.68857 9.66829 7.65C9.56543 7.60714 9.57829 7.54286 9.68544 7.54286C9.73686 7.54286 9.77115 7.57286 9.77115 7.61143L9.77543 7.60714ZM11.9354 7.61143C11.9354 7.69286 12.0297 7.68 12.0597 7.59428C12.0683 7.56428 12.0426 7.54286 12.004 7.54286C11.9654 7.54286 11.9354 7.57286 11.9354 7.61143ZM10.9454 7.74C10.9454 7.77857 10.9754 7.80857 11.014 7.80857C11.0954 7.80857 11.0826 7.71428 10.9969 7.68857C10.9669 7.67571 10.9454 7.70143 10.9454 7.74ZM9.68544 7.81286C9.74544 7.85143 9.74544 7.86 9.68544 7.89857C9.64258 7.92429 9.59972 7.92428 9.56115 7.89C9.43686 7.78714 9.54401 7.71857 9.68544 7.81286ZM8.30972 7.88143C8.36972 8.04428 8.26686 8.09571 8.15115 7.96714C8.10829 7.90714 8.10829 7.88571 8.15972 7.85143C8.24972 7.79571 8.27544 7.8 8.30972 7.88143ZM11.2154 7.88143C11.2154 7.92 11.2369 7.94571 11.2583 7.93714C11.2883 7.92857 11.3097 7.90286 11.3097 7.87714C11.3097 7.85571 11.2883 7.83 11.2626 7.81714C11.2369 7.80857 11.2154 7.83857 11.2154 7.87714L11.2154 7.88143ZM10.0111 7.91143C9.93401 7.94571 9.89115 7.94571 9.85258 7.91143C9.81401 7.86857 9.83972 7.85571 9.95544 7.86C10.1011 7.86 10.1054 7.86428 10.0111 7.91143ZM10.654 7.89857C10.6197 7.95 10.7054 8.00143 10.7654 7.96714C10.8169 7.93714 10.7826 7.85571 10.7226 7.85571C10.6969 7.85571 10.6669 7.87286 10.654 7.89857ZM10.3969 7.92857C10.4269 7.94143 10.4654 7.94143 10.4826 7.92857C10.4954 7.91143 10.4697 7.90286 10.4226 7.90286C10.3711 7.90286 10.3583 7.91571 10.3969 7.92857ZM11.8197 7.94571C11.8069 7.97143 11.824 7.98857 11.8626 7.98857C11.9054 7.98857 11.9354 7.97143 11.9354 7.94571C11.9354 7.93435 11.9309 7.92345 11.9229 7.91541C11.9148 7.90737 11.9039 7.90286 11.8926 7.90286C11.8669 7.90286 11.8369 7.92 11.8197 7.94571ZM10.1783 7.98857C10.264 8.04 10.2511 8.04857 9.96829 8.13857C9.75401 8.20714 9.46686 8.24571 9.63829 8.18143C9.68115 8.16857 9.74972 8.12143 9.79686 8.07857C9.87401 8.01 9.94686 7.98 10.0883 7.95C10.1011 7.95 10.144 7.96286 10.1783 7.98857ZM11.284 8.12571C11.2969 8.15143 11.3269 8.16 11.3526 8.14286C11.4126 8.10428 11.404 8.07857 11.3226 8.07857C11.284 8.07857 11.2669 8.1 11.2797 8.12143L11.284 8.12571ZM6.45401 8.22C6.37258 8.30571 6.39401 8.42571 6.49258 8.45143C6.54401 8.46428 6.57401 8.49857 6.56115 8.53714C6.52686 8.62714 6.60401 8.71286 6.71115 8.7C6.83972 8.67857 6.81401 8.58857 6.68115 8.60571C6.62544 8.61428 6.58258 8.59714 6.58258 8.56714C6.58258 8.53714 6.63401 8.52428 6.71115 8.53714C6.83972 8.55428 6.84401 8.55 6.81829 8.41714C6.80544 8.34 6.77544 8.25429 6.74972 8.22429C6.69401 8.15143 6.52686 8.15143 6.45401 8.22428L6.45401 8.22ZM7.28115 8.21143C7.26829 8.23286 7.27686 8.26286 7.30258 8.28C7.35401 8.31428 7.43544 8.27143 7.43544 8.21143C7.43544 8.15571 7.31544 8.15571 7.28115 8.21143ZM6.20972 8.41286C6.19258 8.45143 6.20115 8.48143 6.22258 8.48143C6.24829 8.48143 6.26544 8.45143 6.26544 8.41286C6.26544 8.37857 6.26115 8.34857 6.24829 8.34857C6.23972 8.34857 6.21829 8.37857 6.20544 8.41286H6.20972ZM7.07544 8.39143C7.07544 8.41714 7.11829 8.43429 7.17829 8.43429C7.25972 8.43429 7.26401 8.42571 7.21258 8.39143C7.12686 8.33571 7.07544 8.33571 7.07544 8.39143ZM10.7397 8.39143C10.7569 8.41714 10.7826 8.43428 10.7911 8.43428C10.7997 8.43428 10.8083 8.41714 10.8083 8.39143C10.8083 8.36571 10.7869 8.34857 10.7654 8.34857C10.7354 8.34857 10.7226 8.36571 10.7397 8.39143ZM13.8254 8.43428C13.8254 8.46 13.8511 8.48143 13.8897 8.48143C13.9283 8.48143 13.9583 8.46 13.9583 8.43857C13.9583 8.41286 13.9283 8.39571 13.8897 8.39571C13.8511 8.39571 13.8211 8.41286 13.8211 8.43857L13.8254 8.43428ZM7.30258 8.46428C7.30258 8.47714 7.33258 8.51571 7.36686 8.55C7.40972 8.59714 7.43972 8.60143 7.46115 8.56714C7.47829 8.53714 7.46115 8.49857 7.43115 8.47714C7.35829 8.43429 7.30258 8.42571 7.30258 8.46428ZM6.31258 8.52428C6.25686 8.56286 6.26544 8.56714 6.34686 8.56714C6.40258 8.56714 6.44544 8.55 6.44544 8.52428C6.44544 8.46857 6.40258 8.46857 6.31258 8.52428ZM6.99829 8.51143C6.96829 8.52428 6.94258 8.56714 6.94258 8.61C6.94258 8.67428 6.95544 8.67 7.01115 8.59714C7.07972 8.51143 7.09258 8.52428 7.08401 8.68286C7.07972 8.76 7.08401 8.75571 7.12258 8.66571C7.18686 8.51571 7.13972 8.45143 6.99401 8.51143H6.99829ZM9.04258 8.60143C8.99972 8.64428 8.95686 8.66571 8.93972 8.64857C8.89686 8.60571 8.96115 8.52428 9.04686 8.52428C9.11544 8.52428 9.11544 8.53286 9.04686 8.60143L9.04258 8.60143ZM9.45829 8.61428C9.45829 8.62565 9.45378 8.63655 9.44574 8.64459C9.4377 8.65263 9.4268 8.65714 9.41543 8.65714C9.40407 8.65714 9.39317 8.65263 9.38513 8.64459C9.37709 8.63655 9.37258 8.62565 9.37258 8.61428C9.37258 8.60292 9.37709 8.59202 9.38513 8.58398C9.39317 8.57594 9.40407 8.57143 9.41543 8.57143C9.4268 8.57143 9.4377 8.57594 9.44574 8.58398C9.45378 8.59202 9.45829 8.60292 9.45829 8.61428ZM12.1669 8.61857C12.1754 8.64428 12.1969 8.66571 12.214 8.66143H12.3169C12.3597 8.66143 12.3769 8.64 12.3597 8.61857C12.3254 8.55428 12.1454 8.55857 12.1669 8.61857ZM6.03401 8.71714C5.95686 8.82857 5.97401 8.93143 6.06401 8.93143C6.09829 8.93143 6.15829 8.97428 6.19258 9.02143C6.26115 9.12 6.41972 9.12428 6.42829 9.03C6.43058 9.00364 6.43634 8.9777 6.44544 8.95286C6.45324 8.93499 6.45899 8.9163 6.46258 8.89714C6.4724 8.86521 6.48684 8.83489 6.50544 8.80714C6.52686 8.77714 6.52258 8.75143 6.50544 8.75143C6.47972 8.75143 6.43686 8.79857 6.41115 8.86286C6.38115 8.92286 6.33829 8.97429 6.31258 8.97429C6.24829 8.97429 6.25686 8.89714 6.32115 8.87571C6.35115 8.86286 6.33401 8.81143 6.26544 8.73428C6.13686 8.58857 6.11544 8.58857 6.03401 8.71714ZM6.38544 8.64428C6.36691 8.66582 6.35633 8.69304 6.35544 8.72143C6.35544 8.75143 6.37686 8.74714 6.41115 8.71286C6.44115 8.68714 6.45401 8.65286 6.44115 8.64C6.42829 8.62714 6.40258 8.62714 6.38544 8.64428ZM9.41972 8.77286C9.48829 8.74714 9.50972 8.75571 9.49686 8.80286C9.48401 8.83286 9.43258 8.86286 9.38115 8.86286C9.32972 8.86286 9.27401 8.87571 9.25258 8.89714C9.18829 8.96143 9.13258 8.92714 9.19258 8.85857C9.23544 8.80714 9.23544 8.77714 9.19686 8.73857C9.16686 8.70857 9.14544 8.66571 9.14544 8.64C9.14544 8.61428 9.18829 8.64 9.23544 8.69571C9.29972 8.77286 9.34686 8.79428 9.41972 8.77286ZM6.79686 8.77286C6.78401 8.79857 6.79686 8.87571 6.83544 8.95286C6.86972 9.02571 6.88686 9.05143 6.87829 9.00857C6.85258 8.91857 6.92115 8.89714 6.95544 8.98286C6.97258 9.02143 6.98115 9.02571 6.98115 8.99143C6.98972 8.91428 6.82686 8.73 6.79686 8.77714V8.77286ZM12.3383 8.79428C12.3383 8.82 12.3683 8.83714 12.4069 8.83714C12.4497 8.83714 12.4669 8.82 12.4497 8.79428C12.4369 8.76857 12.4069 8.75143 12.3811 8.75143C12.3755 8.75143 12.3699 8.75254 12.3647 8.75469C12.3595 8.75684 12.3548 8.76 12.3508 8.76398C12.3469 8.76796 12.3437 8.77268 12.3416 8.77788C12.3394 8.78308 12.3383 8.78866 12.3383 8.79428ZM7.07544 8.83714C7.07544 8.84908 7.08018 8.86052 7.08862 8.86896C7.09705 8.8774 7.1085 8.88214 7.12044 8.88214C7.13237 8.88214 7.14382 8.8774 7.15226 8.86896C7.16069 8.86052 7.16544 8.84908 7.16544 8.83714C7.16544 8.82578 7.16092 8.81487 7.15288 8.80684C7.14485 8.7988 7.13394 8.79428 7.12258 8.79428C7.11121 8.79428 7.10031 8.7988 7.09227 8.80684C7.08424 8.81487 7.07972 8.82578 7.07972 8.83714H7.07544ZM7.21258 8.99571C7.21258 9.08143 7.23401 9.10714 7.29829 9.10714C7.40544 9.10714 7.41829 9.03857 7.32829 8.94857C7.23829 8.85857 7.21258 8.86714 7.21258 8.99571ZM7.10115 8.97428C7.08401 9 7.09258 9.01714 7.11829 9.01714C7.14401 9.01714 7.16544 9 7.16544 8.97429C7.16544 8.94857 7.15686 8.93143 7.14829 8.93143C7.13544 8.93143 7.11401 8.94857 7.10115 8.97428ZM9.86544 8.96571C9.86544 9.02571 9.80972 9.06428 9.76686 9.03428C9.72401 9.00857 9.76258 8.92714 9.82258 8.92714C9.84401 8.92714 9.86544 8.94428 9.86544 8.97V8.96571ZM10.6283 8.97428C10.6283 9 10.6497 9.01714 10.6754 9.01714C10.7011 9.01714 10.714 9 10.6969 8.97428C10.6797 8.94857 10.6583 8.93143 10.6497 8.93143C10.6369 8.93143 10.6283 8.94857 10.6283 8.97428ZM11.4169 9.01714C11.434 9.04286 11.464 9.05143 11.4854 9.03857C11.5497 9 11.5369 8.97428 11.4597 8.97428C11.4169 8.97428 11.3997 8.99571 11.4169 9.01714ZM14.0269 9.01714C14.0397 9.04286 14.0611 9.06 14.0697 9.06C14.0826 9.06 14.0912 9.04286 14.0912 9.01714C14.0912 8.99571 14.0697 8.97428 14.0483 8.97428C14.0183 8.97428 14.0097 8.99571 14.0269 9.01714ZM9.56972 9.08571C9.58258 9.12428 9.56972 9.15429 9.54829 9.15429C9.52686 9.15429 9.50544 9.12429 9.50544 9.08571C9.50544 9.04714 9.51401 9.01714 9.52258 9.01714C9.53115 9.01714 9.55258 9.04714 9.56544 9.08571L9.56972 9.08571ZM9.45829 9.19714C9.45829 9.24428 9.44115 9.28286 9.41543 9.28286C9.38972 9.28286 9.37258 9.24428 9.37258 9.19714C9.37258 9.15 9.38972 9.11143 9.41543 9.11143C9.44115 9.11143 9.45829 9.15 9.45829 9.19714ZM10.0669 9.19714C10.0669 9.23143 10.0369 9.27 9.99829 9.27428C9.95544 9.28286 9.92972 9.25714 9.92972 9.19714C9.92972 9.13714 9.95544 9.11143 9.99829 9.12C10.0369 9.12429 10.0669 9.16286 10.0669 9.19714ZM10.204 9.37714C10.204 9.45857 10.0497 9.48857 9.98972 9.42428C9.94686 9.39 9.95972 9.37714 10.0111 9.37714C10.054 9.37714 10.0883 9.35571 10.0883 9.32571C10.0883 9.3 10.114 9.28714 10.144 9.29571C10.1783 9.30857 10.204 9.34286 10.204 9.38143V9.37714ZM10.7397 9.33428C10.7569 9.35571 10.7826 9.37714 10.7911 9.37714C10.7997 9.37714 10.8083 9.35571 10.8083 9.33428C10.8083 9.30857 10.7869 9.28714 10.7654 9.28714C10.7354 9.28714 10.7226 9.30857 10.7397 9.33V9.33428ZM8.60544 9.54857C8.60544 9.57429 8.62686 9.60857 8.64829 9.62143C8.67401 9.63857 8.69544 9.63 8.69544 9.60428C8.69544 9.57857 8.67401 9.54857 8.65258 9.53143C8.62686 9.51857 8.60972 9.52714 8.60972 9.54857L8.60544 9.54857ZM11.014 9.63428C11.0011 9.66428 11.0097 9.69857 11.0354 9.71143C11.104 9.75428 11.1511 9.69857 11.0911 9.63857C11.0611 9.60857 11.0354 9.60857 11.014 9.63857V9.63428ZM6.02544 9.67714C5.97401 9.72428 5.99544 9.78 6.06829 9.78C6.10258 9.78 6.13258 9.75857 6.13258 9.73714C6.13258 9.68143 6.06401 9.63857 6.02544 9.67714ZM12.8526 9.69428C12.8183 9.74571 12.9083 9.82286 13.0026 9.82286C13.0883 9.82286 13.0711 9.76286 12.9683 9.70286C12.9083 9.66 12.874 9.66 12.8526 9.69428ZM8.87543 9.73286C8.87543 9.75428 8.89686 9.78428 8.91829 9.80143C8.94401 9.81428 8.96544 9.79714 8.96544 9.75857C8.96544 9.72 8.94401 9.69 8.92258 9.69C8.89686 9.69 8.87543 9.70714 8.87543 9.73286ZM6.62544 9.81857C6.62544 9.84428 6.64686 9.87428 6.66829 9.89143C6.69829 9.90428 6.71544 9.88714 6.71544 9.84857C6.71544 9.81 6.69829 9.78 6.67258 9.78C6.64686 9.78 6.62972 9.79714 6.62972 9.82286L6.62544 9.81857ZM8.53686 9.82286C8.52401 9.84857 8.53686 9.85714 8.57972 9.84C8.65686 9.81 8.67401 9.78 8.60972 9.78C8.58401 9.78 8.55401 9.79714 8.53686 9.82286ZM9.49258 9.81428C9.44972 9.82286 9.41543 9.85286 9.41543 9.87857C9.41543 9.90428 9.45829 9.91286 9.50115 9.9C9.55258 9.88714 9.59544 9.9 9.59544 9.92571C9.59544 9.95143 9.60829 9.96 9.62115 9.94714C9.67258 9.89571 9.57401 9.79714 9.49258 9.81428ZM13.6669 9.87C13.6797 9.89143 13.7011 9.91286 13.7097 9.91286C13.7226 9.91286 13.7311 9.89143 13.7311 9.87C13.7311 9.84428 13.7097 9.82714 13.6883 9.82714C13.6583 9.82714 13.6497 9.84428 13.6669 9.87ZM7.73544 9.9C7.7178 9.92039 7.70727 9.94596 7.70544 9.97286C7.70544 10.0029 7.72686 9.99857 7.76115 9.96857C7.78686 9.93857 7.80401 9.90429 7.79115 9.89143C7.77829 9.87857 7.75258 9.88286 7.73544 9.9ZM6.34258 9.94286C6.30829 9.97714 6.34686 10.0457 6.40258 10.0457C6.42829 10.0457 6.44544 10.0157 6.44544 9.98143C6.44544 9.91286 6.39401 9.89143 6.34258 9.93857L6.34258 9.94286ZM8.06544 10.0457C8.06544 10.0576 8.07018 10.0691 8.07862 10.0775C8.08705 10.086 8.0985 10.0907 8.11044 10.0907C8.12237 10.0907 8.13382 10.086 8.14226 10.0775C8.15069 10.0691 8.15544 10.0576 8.15544 10.0457C8.15544 10.0343 8.15092 10.0234 8.14288 10.0154C8.13485 10.0074 8.12394 10.0029 8.11258 10.0029C8.10121 10.0029 8.09031 10.0074 8.08227 10.0154C8.07424 10.0234 8.06972 10.0343 8.06972 10.0457L8.06544 10.0457ZM7.69258 10.0757C7.64115 10.1271 7.65829 10.1829 7.72686 10.1829C7.76972 10.1829 7.79544 10.1529 7.79544 10.1143C7.79544 10.0457 7.74401 10.0286 7.69258 10.0757ZM11.5926 10.0929C11.6097 10.1143 11.6354 10.1357 11.644 10.1357C11.6569 10.1357 11.6654 10.1143 11.6654 10.0929C11.6654 10.0671 11.644 10.05 11.6183 10.05C11.5883 10.05 11.5797 10.0671 11.5969 10.0929H11.5926ZM12.4926 10.0929C12.5097 10.1143 12.544 10.1357 12.5697 10.1357C12.5911 10.1357 12.5997 10.1143 12.5869 10.0929C12.5697 10.0671 12.5397 10.05 12.514 10.05C12.4883 10.05 12.4797 10.0671 12.4969 10.0929H12.4926ZM7.04115 10.1229C6.96401 10.1529 6.97258 10.2943 7.05401 10.3629C7.14401 10.4357 7.22544 10.3629 7.20401 10.2214C7.18686 10.1143 7.13544 10.0843 7.04115 10.1229ZM8.74258 10.1357C8.74258 10.1471 8.74709 10.158 8.75513 10.166C8.76317 10.1741 8.77407 10.1786 8.78544 10.1786C8.7968 10.1786 8.8077 10.1741 8.81574 10.166C8.82378 10.158 8.82829 10.1471 8.82829 10.1357C8.82829 10.1243 8.82378 10.1134 8.81574 10.1054C8.8077 10.0974 8.7968 10.0929 8.78544 10.0929C8.77407 10.0929 8.76317 10.0974 8.75513 10.1054C8.74709 10.1134 8.74258 10.1243 8.74258 10.1357ZM5.97829 10.1786C5.96115 10.2086 5.95686 10.2429 5.96972 10.26C6.01258 10.2986 6.05544 10.2386 6.03401 10.1743C6.01686 10.1314 6.00829 10.1314 5.97829 10.1743L5.97829 10.1786ZM13.3069 10.1786C13.2897 10.2043 13.3069 10.2257 13.3497 10.2257C13.3926 10.2257 13.4097 10.2043 13.3926 10.1829C13.3797 10.1571 13.3583 10.14 13.3497 10.14C13.3411 10.14 13.3197 10.1571 13.3069 10.1829V10.1786ZM9.50544 10.2471C9.50544 10.2814 9.52686 10.3243 9.54829 10.3371C9.57401 10.3543 9.59115 10.3243 9.59115 10.2729C9.59115 10.2214 9.57401 10.1829 9.54829 10.1829C9.52686 10.1829 9.50544 10.2086 9.50544 10.2471ZM7.59401 10.2686C7.61115 10.2943 7.63686 10.3114 7.66258 10.3114C7.67394 10.3114 7.68485 10.3069 7.69288 10.2989C7.70092 10.2908 7.70544 10.2799 7.70544 10.2686C7.70544 10.2471 7.67544 10.2257 7.63686 10.2257C7.59401 10.2257 7.57686 10.2471 7.59401 10.2686ZM7.52543 10.47C7.52543 10.4882 7.53266 10.5056 7.54552 10.5185C7.55838 10.5313 7.57582 10.5386 7.59401 10.5386C7.61219 10.5386 7.62963 10.5313 7.64249 10.5185C7.65535 10.5056 7.66258 10.4882 7.66258 10.47C7.66258 10.4518 7.65535 10.4344 7.64249 10.4215C7.62963 10.4087 7.61219 10.4014 7.59401 10.4014C7.57582 10.4014 7.55838 10.4087 7.54552 10.4215C7.53266 10.4344 7.52543 10.4518 7.52543 10.47ZM6.58258 10.4957C6.58258 10.5071 6.58709 10.518 6.59513 10.526C6.60317 10.5341 6.61407 10.5386 6.62544 10.5386C6.6368 10.5386 6.6477 10.5341 6.65574 10.526C6.66378 10.518 6.66829 10.5071 6.66829 10.4957C6.66829 10.4843 6.66378 10.4734 6.65574 10.4654C6.6477 10.4574 6.6368 10.4529 6.62544 10.4529C6.61407 10.4529 6.60317 10.4574 6.59513 10.4654C6.58709 10.4734 6.58258 10.4843 6.58258 10.4957ZM9.16686 10.4957C9.18401 10.5171 9.21401 10.5386 9.23972 10.5386C9.26544 10.5386 9.27401 10.5171 9.25686 10.4957C9.24401 10.47 9.20972 10.4529 9.18401 10.4529C9.15829 10.4529 9.15401 10.47 9.16686 10.4957ZM6.62115 10.6414C6.59972 10.6757 6.60401 10.8986 6.62544 10.8986C6.67258 10.8986 6.76258 10.7914 6.76258 10.7357C6.76258 10.6929 6.63829 10.6071 6.62115 10.6414ZM13.2383 10.7186C13.2383 10.77 13.3669 10.83 13.4011 10.7957C13.414 10.7829 13.384 10.7486 13.3326 10.7186C13.2683 10.6843 13.2383 10.6843 13.2383 10.7186ZM14.9997 10.7143C15.0126 10.7486 15.0426 10.7829 15.0769 10.7957C15.1111 10.8043 15.1283 10.7871 15.1197 10.7529C15.1121 10.7351 15.101 10.7191 15.087 10.7059C15.073 10.6926 15.0564 10.6823 15.0383 10.6757C15.004 10.6671 14.9869 10.6843 14.9997 10.7186V10.7143ZM6.86115 10.7871C6.79686 10.8557 6.83972 10.8686 6.93401 10.8086C6.96829 10.7871 6.97686 10.7571 6.95972 10.7443C6.93829 10.7357 6.89115 10.7529 6.86115 10.7871ZM7.16115 10.7871C6.98972 10.8729 6.95972 11.0014 7.07544 11.1257C7.12686 11.1771 7.16544 11.2414 7.16544 11.2629C7.16544 11.2843 7.18686 11.2886 7.20829 11.2714C7.23829 11.2586 7.25544 11.1686 7.25544 11.07C7.25544 10.9757 7.27686 10.8857 7.29829 10.8686C7.35401 10.8386 7.36258 10.71 7.31115 10.7186C7.29401 10.7186 7.22544 10.7529 7.15686 10.7871L7.16115 10.7871ZM7.53829 10.7871C7.46972 10.8557 7.46543 10.8943 7.52115 10.8943C7.55972 10.8943 7.63258 10.7571 7.60686 10.7357C7.59829 10.7271 7.56829 10.7486 7.53829 10.7829V10.7871ZM12.9211 10.8043C12.9211 10.8257 12.9426 10.8471 12.9726 10.8471C12.9983 10.8471 13.0069 10.8257 12.9897 10.8043C12.9769 10.7786 12.9554 10.7614 12.9469 10.7614C12.9297 10.7614 12.9211 10.7786 12.9211 10.8043ZM16.0797 10.8814C16.0883 10.9286 16.144 10.9671 16.2169 10.9757C16.3583 10.9886 16.3754 10.95 16.2597 10.8643C16.1526 10.7786 16.0626 10.7871 16.0797 10.8814ZM9.39401 10.9371C9.38564 10.9529 9.38238 10.9708 9.38469 10.9885C9.38699 11.0061 9.39474 11.0227 9.40686 11.0357C9.43686 11.0657 9.46258 11.0614 9.48401 11.0271C9.49237 11.0114 9.49563 10.9935 9.49333 10.9758C9.49102 10.9581 9.48327 10.9416 9.47115 10.9286C9.44115 10.8986 9.41544 10.9029 9.39401 10.9371ZM6.62544 11.0871C6.62544 11.1771 6.68115 11.2114 6.74544 11.1557C6.83115 11.0829 6.82258 11.0271 6.71544 11.0271C6.66829 11.0271 6.62972 11.0529 6.62972 11.0871H6.62544ZM9.90829 11.0657C9.90829 11.0914 9.92972 11.1214 9.95115 11.1386C9.98115 11.1557 9.99829 11.1471 9.99829 11.1214C9.99829 11.0957 9.98115 11.0657 9.95544 11.0486C9.92972 11.0357 9.91258 11.04 9.91258 11.0657H9.90829ZM12.5911 11.0571C12.5526 11.1 12.6511 11.2071 12.724 11.2071C12.7583 11.2071 12.7883 11.1857 12.7883 11.1643C12.7883 11.1086 12.6297 11.0229 12.5911 11.0571ZM6.40258 11.1171C6.40258 11.1285 6.40709 11.1394 6.41513 11.1474C6.42317 11.1555 6.43407 11.16 6.44544 11.16C6.4568 11.16 6.4677 11.1555 6.47574 11.1474C6.48378 11.1394 6.48829 11.1285 6.48829 11.1171C6.48829 11.1058 6.48378 11.0949 6.47574 11.0868C6.4677 11.0788 6.4568 11.0743 6.44544 11.0743C6.43407 11.0743 6.42317 11.0788 6.41513 11.0868C6.40709 11.0949 6.40258 11.1058 6.40258 11.1171ZM9.48829 11.19C9.47099 11.2072 9.46035 11.23 9.45829 11.2543C9.45829 11.3014 9.58686 11.34 9.61686 11.2971C9.64686 11.2543 9.53115 11.1514 9.48829 11.19ZM12.3383 11.2071C12.3383 11.2286 12.3597 11.25 12.3854 11.25C12.4111 11.25 12.4197 11.2286 12.4069 11.2071C12.3897 11.1814 12.3683 11.1643 12.3597 11.1643C12.3469 11.1643 12.3383 11.1814 12.3383 11.2071ZM6.90829 11.4086C6.90829 11.4686 6.92972 11.52 6.94686 11.52C6.96401 11.52 6.97686 11.4686 6.97686 11.4086C6.97686 11.3443 6.95972 11.2971 6.93401 11.2971C6.91686 11.2971 6.90401 11.3443 6.90829 11.4086ZM7.04972 11.4514C7.01972 11.58 7.11401 11.73 7.15258 11.6229C7.16544 11.5886 7.20401 11.5629 7.23829 11.5629C7.29401 11.5629 7.28972 11.5457 7.22972 11.4514C7.13544 11.31 7.08401 11.31 7.04972 11.4514ZM7.50401 11.3829C7.46972 11.4386 7.51258 11.52 7.57258 11.52C7.59829 11.52 7.61544 11.4771 7.61544 11.43C7.61544 11.3357 7.55115 11.31 7.50401 11.3871V11.3829ZM8.33544 11.4086C8.33544 11.4514 8.35686 11.4729 8.38258 11.4643C8.41258 11.4557 8.43401 11.43 8.43401 11.4086C8.43401 11.3829 8.41258 11.3571 8.38258 11.3486C8.35686 11.34 8.33972 11.3657 8.33972 11.4086H8.33544ZM12.8354 11.43C12.8354 11.4557 12.8526 11.4729 12.8783 11.4729C12.9083 11.4729 12.9169 11.4557 12.8997 11.43C12.8869 11.4043 12.8654 11.3871 12.8569 11.3871C12.844 11.3871 12.8311 11.4043 12.8311 11.43H12.8354ZM9.50544 11.4729C9.50544 11.4986 9.52686 11.5157 9.55258 11.5157C9.57829 11.5157 9.58686 11.4986 9.57401 11.4729C9.55686 11.4514 9.53544 11.43 9.52686 11.43C9.51401 11.43 9.50544 11.4514 9.50544 11.4729ZM8.04401 11.5157C8.02686 11.5414 8.03544 11.5629 8.06544 11.5629C8.09115 11.5629 8.10829 11.5414 8.10829 11.52C8.10829 11.4943 8.10401 11.4771 8.09115 11.4771C8.07829 11.4771 8.05686 11.4943 8.04401 11.52V11.5157ZM6.76258 11.6486C6.69829 11.7771 6.70686 11.8757 6.78401 11.8757C6.86544 11.8757 6.95544 11.7129 6.92544 11.6271C6.89115 11.5414 6.81829 11.55 6.76258 11.6486ZM8.92258 11.7171C8.92258 11.7557 8.93972 11.7857 8.96544 11.7857C8.99115 11.7857 9.00829 11.7686 9.00829 11.7429C9.00829 11.7214 8.99115 11.6914 8.96544 11.6743C8.93972 11.6614 8.92258 11.6786 8.92258 11.7171ZM9.63829 11.76C9.63829 11.8029 9.65972 11.8329 9.68115 11.8329C9.71115 11.8329 9.72829 11.8114 9.72829 11.79C9.72829 11.7686 9.71115 11.7343 9.68544 11.7214C9.65972 11.7043 9.64258 11.7214 9.64258 11.7643L9.63829 11.76ZM12.6297 11.7429C12.6469 11.7686 12.6769 11.7857 12.7026 11.7857C12.7283 11.7857 12.7369 11.7686 12.7197 11.7429C12.7069 11.7171 12.6726 11.7 12.6469 11.7C12.6211 11.7 12.6169 11.7171 12.6297 11.7429ZM9.14544 11.8286C9.14544 11.8405 9.15018 11.852 9.15862 11.8604C9.16705 11.8688 9.1785 11.8736 9.19043 11.8736C9.20237 11.8736 9.21382 11.8688 9.22226 11.8604C9.23069 11.852 9.23544 11.8405 9.23544 11.8286C9.23544 11.8166 9.23069 11.8052 9.22226 11.7968C9.21382 11.7883 9.20237 11.7836 9.19043 11.7836C9.1785 11.7836 9.16705 11.7883 9.15862 11.7968C9.15018 11.8052 9.14544 11.8166 9.14544 11.8286ZM9.76258 11.9486C9.74544 11.9657 9.72829 12.0171 9.72829 12.06C9.72829 12.1029 9.69401 12.1457 9.65115 12.1629C9.60829 12.1714 9.64258 12.18 9.72829 12.1714C9.85686 12.1629 9.88258 12.1414 9.87401 12.0729C9.85258 11.97 9.80115 11.91 9.76258 11.9486ZM14.0997 11.9914C14.1169 12.0857 14.254 12.18 14.3011 12.1286C14.3483 12.0857 14.2583 11.9486 14.164 11.9271C14.1083 11.9186 14.0869 11.9357 14.0997 11.9914ZM12.4711 12.0171C12.4711 12.09 12.5954 12.2186 12.6297 12.1843C12.6383 12.1757 12.6083 12.1157 12.5611 12.0557C12.4969 11.97 12.4754 11.9614 12.4754 12.0129L12.4711 12.0171ZM9.35544 12.0471C9.32115 12.0986 9.44972 12.2186 9.49258 12.1757C9.50972 12.1543 9.49258 12.1114 9.44972 12.0729C9.40686 12.03 9.36829 12.0214 9.35544 12.0471ZM6.64686 12.1671C6.61686 12.2743 6.68544 12.4114 6.76258 12.4114C6.81401 12.4114 6.85686 12.21 6.82258 12.1243C6.77972 12.0171 6.67686 12.0386 6.64686 12.1671ZM6.41544 12.3943C6.40258 12.4329 6.40258 12.4714 6.41544 12.4886C6.45829 12.5271 6.53544 12.4586 6.53544 12.39C6.53544 12.3043 6.44972 12.3043 6.41544 12.39V12.3943ZM14.3183 12.3814C14.3183 12.42 14.2926 12.4586 14.2626 12.4671C14.194 12.4929 14.254 12.6386 14.3311 12.6386C14.374 12.6386 14.3954 12.5957 14.3912 12.51C14.3826 12.3686 14.3183 12.2529 14.3183 12.3814ZM12.9897 12.5486C13.0069 12.5743 13.0283 12.5914 13.0369 12.5914C13.0497 12.5914 13.0583 12.5743 13.0583 12.5486C13.0583 12.5229 13.0369 12.5057 13.0111 12.5057C12.9854 12.5057 12.9769 12.5229 12.9897 12.5486ZM13.6626 12.5443C13.6754 12.5657 13.6626 12.5957 13.6326 12.6043C13.5897 12.6214 13.5897 12.6471 13.624 12.7071C13.6969 12.8314 13.7954 12.8486 13.7654 12.7329C13.7526 12.6814 13.7654 12.6386 13.7869 12.6386C13.8126 12.6386 13.8126 12.6086 13.7783 12.57C13.7183 12.4971 13.6197 12.4757 13.6626 12.5443ZM6.71972 12.6386C6.71972 12.69 6.73686 12.72 6.76258 12.7029C6.78829 12.69 6.80544 12.6471 6.80544 12.6129C6.80544 12.5786 6.78829 12.5486 6.76258 12.5486C6.73686 12.5486 6.71972 12.5914 6.71972 12.6386ZM8.38258 12.5957C8.38258 12.6071 8.38709 12.618 8.39513 12.626C8.40317 12.6341 8.41407 12.6386 8.42544 12.6386C8.4368 12.6386 8.4477 12.6341 8.45574 12.626C8.46378 12.618 8.46829 12.6071 8.46829 12.5957C8.46829 12.5843 8.46378 12.5734 8.45574 12.5654C8.4477 12.5574 8.4368 12.5529 8.42544 12.5529C8.41407 12.5529 8.40317 12.5574 8.39513 12.5654C8.38709 12.5734 8.38258 12.5843 8.38258 12.5957ZM8.74258 12.7243C8.74258 12.7757 8.75972 12.8143 8.78544 12.8143C8.81115 12.8143 8.82829 12.7757 8.82829 12.7286C8.82829 12.6771 8.81115 12.6386 8.78544 12.6386C8.75972 12.6386 8.74258 12.6771 8.74258 12.7243ZM9.35544 13.0157C9.36829 13.0543 9.38972 13.0843 9.39829 13.0843C9.40686 13.0843 9.41543 13.0543 9.41543 13.0157C9.41543 12.9814 9.39401 12.9514 9.37258 12.9514C9.34686 12.9514 9.33829 12.9814 9.35544 13.0157ZM15.1283 13.1743C15.1283 13.2 15.1497 13.2171 15.1711 13.2171C15.2011 13.2171 15.2097 13.2 15.1926 13.1743C15.1797 13.1486 15.1583 13.1314 15.1497 13.1314C15.1369 13.1314 15.1283 13.1486 15.1283 13.1743ZM14.7211 13.4443C14.7211 13.4657 14.7426 13.4871 14.7683 13.4871C14.794 13.4871 14.8026 13.4657 14.7897 13.4443C14.7726 13.4186 14.7511 13.4014 14.7426 13.4014C14.7297 13.4014 14.7211 13.4186 14.7211 13.4443ZM12.1154 13.4871C12.1154 13.5129 12.1369 13.53 12.1583 13.53C12.1883 13.53 12.1969 13.5129 12.1797 13.4871C12.1669 13.4614 12.1454 13.4443 12.1369 13.4443C12.124 13.4443 12.1154 13.4614 12.1154 13.4871ZM12.6083 13.6586C12.6083 13.6843 12.6297 13.7186 12.6511 13.7314C12.6769 13.7486 12.6983 13.74 12.6983 13.7143C12.6983 13.6929 12.6769 13.6586 12.6554 13.6414C12.6297 13.6286 12.6083 13.6371 12.6083 13.6586ZM11.9354 13.7571C11.9354 13.7786 11.9569 13.8 11.9783 13.8C12.0083 13.8 12.0169 13.7786 11.9997 13.7571C11.9869 13.7314 11.9654 13.7143 11.9569 13.7143C11.944 13.7143 11.9354 13.7314 11.9354 13.7571ZM8.74258 14.16C8.74258 14.2114 8.75972 14.2414 8.78544 14.2243C8.80686 14.2114 8.81544 14.1686 8.80258 14.1343C8.76401 14.04 8.74258 14.0486 8.74258 14.16ZM17.104 14.16C17.104 14.1814 17.1254 14.2029 17.1511 14.2029C17.1811 14.2029 17.1897 14.1814 17.1726 14.16C17.1554 14.1343 17.134 14.1171 17.1254 14.1171C17.1126 14.1171 17.104 14.1343 17.104 14.16ZM12.5869 14.3357C12.5997 14.3614 12.6211 14.3786 12.6297 14.3786C12.6426 14.3786 12.6511 14.3614 12.6511 14.3357C12.6511 14.3143 12.6297 14.2929 12.6083 14.2929C12.5783 14.2929 12.5697 14.3143 12.5869 14.3357ZM15.9083 14.3571C15.8826 14.4257 15.964 14.6057 16.024 14.6057C16.084 14.6057 16.1097 14.5029 16.0669 14.3914C16.024 14.28 15.9469 14.2629 15.9083 14.3571ZM14.5883 14.5586C14.5883 14.5843 14.6097 14.6014 14.6311 14.6014C14.6611 14.6014 14.6697 14.5843 14.6526 14.5586C14.6397 14.5371 14.6183 14.5157 14.6097 14.5157C14.5969 14.5157 14.5883 14.5371 14.5883 14.5586ZM7.86401 14.7814C7.83401 14.8286 7.90686 14.8843 7.94972 14.8414C7.99258 14.7986 7.98401 14.7386 7.93258 14.7386C7.91115 14.7386 7.88115 14.76 7.86401 14.7814ZM11.5497 14.9186C11.5669 14.9443 11.5883 14.9614 11.5969 14.9614C11.6097 14.9614 11.6183 14.9443 11.6183 14.9186C11.6183 14.8929 11.5969 14.8757 11.5711 14.8757C11.5454 14.8757 11.5369 14.8929 11.5497 14.9186ZM9.54829 15.0471C9.54829 15.0729 9.56972 15.1029 9.59115 15.12C9.62115 15.1329 9.63829 15.1157 9.63829 15.0771C9.63829 15.0386 9.62115 15.0086 9.59544 15.0086C9.56972 15.0086 9.55258 15.0257 9.55258 15.0514L9.54829 15.0471ZM11.8454 15.8143C11.8454 15.8357 11.8669 15.8571 11.8883 15.8571C11.9183 15.8571 11.9269 15.8357 11.9097 15.8143C11.8969 15.7886 11.8754 15.7714 11.8669 15.7714C11.854 15.7714 11.8454 15.7886 11.8454 15.8143Z" fill="#EC1C24"/>
<path d="M11.134 8.26286C10.804 8.36571 10.5683 8.55857 10.5597 8.73428C10.5554 8.82 10.5297 8.86286 10.4783 8.85428C10.3583 8.84571 10.3926 8.95714 10.5383 9.06C10.6754 9.15857 10.6797 9.29143 10.5426 9.25714C10.4097 9.22286 10.3583 9.33428 10.414 9.54857C10.4483 9.69 10.4783 9.73286 10.5297 9.71143C10.5983 9.68571 10.7183 9.75857 10.7183 9.82714C10.7183 9.84857 10.6883 9.87 10.6454 9.87C10.5854 9.87 10.5811 9.87857 10.6283 9.93428C10.6711 9.98571 10.7011 9.99 10.7483 9.95143C10.8254 9.89143 10.9454 9.97286 10.9454 10.0886C10.9454 10.1314 10.9883 10.2086 11.0483 10.26C11.1469 10.3586 11.1511 10.3586 11.2069 10.2686C11.2497 10.1957 11.2797 10.1871 11.3483 10.2257C11.4554 10.2814 11.5111 10.4486 11.434 10.4957C11.3611 10.5429 11.4854 10.6029 11.8926 10.7143C12.7969 10.9671 13.6369 10.68 13.8254 10.0543C13.8854 9.85286 13.8083 9.52286 13.6197 9.18857C13.4068 8.86651 13.1222 8.59809 12.7883 8.40428C12.2714 8.16146 11.6847 8.1113 11.134 8.26286ZM12.3597 8.61428C12.3769 8.64 12.3597 8.65714 12.3169 8.65714L12.214 8.66571C12.1969 8.66571 12.1754 8.64428 12.1669 8.62286C12.1454 8.55857 12.3211 8.55428 12.3597 8.61428ZM12.4497 8.79428C12.4669 8.82 12.4497 8.83714 12.4069 8.83714C12.3683 8.83714 12.3383 8.82 12.3383 8.79428C12.3383 8.76857 12.3554 8.75143 12.3811 8.75143C12.4026 8.75143 12.4369 8.76857 12.4497 8.79428ZM10.6926 8.97428C10.714 9 10.7011 9.01714 10.6754 9.01714C10.6497 9.01714 10.6326 9 10.6326 8.97428C10.6326 8.94857 10.6369 8.93143 10.6497 8.93143C10.6583 8.93143 10.6797 8.94857 10.6926 8.97428ZM11.5283 8.99143C11.5283 9.03857 11.4426 9.06 11.4169 9.01714C11.3997 8.99571 11.4169 8.97428 11.4597 8.97428C11.4983 8.97428 11.5283 8.98286 11.5283 8.99143ZM10.8083 9.33428C10.8083 9.35571 10.7997 9.37714 10.7911 9.37714C10.7783 9.37714 10.7569 9.35571 10.7397 9.33428C10.7269 9.30857 10.7354 9.28714 10.7611 9.28714C10.7869 9.28714 10.8083 9.30857 10.8083 9.33V9.33428ZM11.1126 9.71571C11.0697 9.75857 10.984 9.69 11.014 9.63857C11.0354 9.60857 11.0569 9.60857 11.0911 9.63857C11.1169 9.66428 11.1297 9.69857 11.1126 9.71571ZM13.0583 9.78857C13.0583 9.83143 12.9597 9.83143 12.8869 9.78428C12.8483 9.76286 12.8354 9.72 12.8526 9.69857C12.8826 9.64286 13.0583 9.72428 13.0583 9.78857ZM13.7311 9.87C13.7311 9.89143 13.7226 9.91286 13.714 9.91286C13.7011 9.91286 13.6797 9.89143 13.6669 9.87C13.6497 9.84428 13.6583 9.82714 13.684 9.82714C13.7097 9.82714 13.7311 9.84428 13.7311 9.87ZM11.6654 10.0929C11.6654 10.1143 11.6526 10.1357 11.644 10.1357C11.6311 10.1357 11.6097 10.1143 11.5969 10.0929C11.5797 10.0671 11.5883 10.05 11.614 10.05C11.644 10.05 11.6654 10.0671 11.6654 10.0929ZM12.5869 10.0929C12.5997 10.1143 12.5911 10.1357 12.5697 10.1357C12.544 10.1357 12.5097 10.1143 12.4969 10.0929C12.4797 10.0671 12.4883 10.05 12.514 10.05C12.5354 10.05 12.5697 10.0671 12.5869 10.0929ZM13.3969 10.1786C13.4097 10.2043 13.3883 10.2257 13.354 10.2257C13.3111 10.2257 13.2897 10.2043 13.3069 10.1829C13.3197 10.1571 13.3411 10.14 13.3497 10.14C13.3583 10.14 13.3797 10.1571 13.3926 10.1829L13.3969 10.1786ZM16.7912 10.9071C16.5276 11.0723 16.3339 11.3285 16.2469 11.6271C16.1783 11.8843 16.2212 12.3986 16.3326 12.6557C16.3883 12.7757 16.5469 12.9857 16.6883 13.1271C17.0869 13.5129 17.5026 13.6286 17.9011 13.4486C18.6511 13.11 18.5397 11.4857 17.7297 10.9543C17.5895 10.867 17.4293 10.8169 17.2644 10.8087C17.0994 10.8004 16.9351 10.8343 16.7869 10.9071L16.7912 10.9071ZM9.68544 11.4086C9.65544 11.4471 9.64258 11.5157 9.66401 11.5757C9.68115 11.6271 9.69829 11.7343 9.70686 11.8114C9.70686 11.8971 9.73258 11.9486 9.77115 11.9486C9.80543 11.9486 9.84829 11.9914 9.86544 12.0343C9.90401 12.1414 9.87829 12.2057 9.81829 12.1714C9.74543 12.1286 9.77115 12.2743 9.89115 12.6343C10.054 13.1229 10.3626 13.6843 10.6711 14.0743C10.9369 14.4086 11.4554 14.8757 11.554 14.8757C11.584 14.8757 11.6183 14.9057 11.6311 14.94C11.674 15.0471 12.5654 15.45 13.0111 15.5657C14.2711 15.8871 15.6083 15.8271 16.4611 15.4114C16.7888 15.2567 17.0557 14.9974 17.2197 14.6743C17.314 14.43 17.284 14.3314 17.1169 14.3486C17.0183 14.3614 16.9711 14.4086 16.894 14.5671C16.774 14.8243 16.5811 14.9871 16.2083 15.1586C14.9611 15.7243 12.8054 15.4286 11.6226 14.5286C11.3097 14.2971 10.7226 13.6886 10.7226 13.6029C10.7226 13.59 10.6583 13.4871 10.5854 13.3671C10.3415 12.9218 10.1667 12.4421 10.0669 11.9443L9.97258 11.4429C9.95115 11.3271 9.77115 11.3057 9.68544 11.4086Z" fill="#333333"/>
</svg>
