<svg width="24" height="24" viewBox="0 0 24 24" fill="none" xmlns="http://www.w3.org/2000/svg">
<path d="M4.71387 8.40008C4.76423 7.87701 4.88236 7.3627 5.0653 6.87008C5.06931 6.86818 5.07371 6.86719 5.07815 6.86719C5.0826 6.86719 5.08699 6.86818 5.09101 6.87008L5.11672 6.88722L5.1253 6.90008C5.11244 8.30151 5.52815 9.83151 6.90387 10.3972C7.30672 10.5601 7.73958 10.6587 8.19815 10.6929C8.88387 10.7401 9.57815 10.7358 10.2853 10.7187C10.3496 10.7187 10.4139 10.7572 10.461 10.7958C10.5124 10.8344 10.5467 10.8858 10.5639 10.9501L10.9324 12.1501C10.9333 12.1555 10.9358 12.1604 10.9397 12.1643C10.9435 12.1681 10.9485 12.1707 10.9539 12.1715H10.971L10.9796 12.1629L11.301 11.7087C11.3068 11.702 11.3149 11.6979 11.3237 11.6971C11.3325 11.6963 11.3412 11.6989 11.3482 11.7044L11.361 11.7129L11.9696 12.9472C11.991 12.9901 12.0124 12.9901 12.0296 12.9472L12.6382 11.7087C12.651 11.6829 12.6682 11.6829 12.681 11.7087L13.0282 12.1801C13.0309 12.1813 13.0338 12.1819 13.0367 12.1819C13.0397 12.1819 13.0426 12.1813 13.0453 12.1801C13.0486 12.1801 13.0519 12.1793 13.0549 12.1778C13.0579 12.1763 13.0604 12.1742 13.0624 12.1715L13.4396 10.9115C13.4524 10.8601 13.4824 10.8172 13.521 10.7829C13.5639 10.7572 13.6067 10.7187 13.6624 10.7187C14.2539 10.7272 14.8453 10.7444 15.441 10.7187C16.4696 10.6758 17.5282 10.4187 18.1667 9.58722C18.6939 8.90151 18.8524 7.86008 18.8739 6.99008C18.8782 6.82294 18.9082 6.81865 18.9682 6.97294C19.431 8.19008 19.431 9.7758 18.6767 10.9072C17.9567 11.9787 16.671 12.4844 15.4367 12.6687C15.2264 12.6929 15.0256 12.77 14.8532 12.893C14.6808 13.0159 14.5424 13.1805 14.451 13.3715C14.121 14.0229 13.7739 14.6872 13.4524 15.3558C13.3667 15.5315 13.3196 15.7072 13.3067 15.8872C13.281 16.3115 13.2767 16.7572 13.2896 17.2158C13.2896 17.2587 13.281 17.3015 13.2596 17.3315L12.6767 18.3901C12.6596 18.4201 12.6339 18.4329 12.6039 18.4329H11.3867C11.3731 18.4325 11.3598 18.4283 11.3484 18.4207C11.3371 18.4132 11.3281 18.4025 11.3224 18.3901C11.1382 18.0644 10.971 17.7301 10.7739 17.3872C10.7267 17.3058 10.7053 17.2201 10.7053 17.1301C10.7053 16.5044 10.7696 15.8358 10.4867 15.2572C10.0882 14.4429 9.75815 13.7787 9.48815 13.2772C9.24815 12.8272 8.8153 12.7115 8.33958 12.6258C6.3853 12.2829 4.86387 11.1815 4.71387 9.05579V8.40008Z" fill="#43B763"/>
</svg>
