<svg width="24" height="24" viewBox="0 0 24 24" fill="none" xmlns="http://www.w3.org/2000/svg">
<path d="M14.001 4.71436V7.38436C13.9967 7.92864 12.2096 8.30578 11.8624 8.25007C11.391 8.17293 10.9453 7.95864 10.4996 7.77864C10.4353 7.74864 10.371 7.72721 10.3024 7.71436C10.0324 7.65007 10.0367 7.28578 10.0367 7.05436V4.71436H14.001Z" fill="#B9FF01"/>
<path d="M9.62101 4.97578C9.66386 4.9715 9.68101 5.01007 9.66386 5.0915C9.65101 5.13436 9.64672 5.17721 9.64672 5.20721V7.56007C9.60386 7.62864 9.56958 7.68864 9.51815 7.74864C9.02951 8.27847 8.53951 8.80705 8.04815 9.33436C8.04452 9.33563 8.04062 9.3359 8.03685 9.33515C8.03308 9.3344 8.02958 9.33264 8.02672 9.33007L8.02243 9.31721C8.00529 9.10293 7.99243 8.88436 7.98815 8.67007C7.98778 8.51326 7.95873 8.35785 7.90244 8.2115C7.83386 8.04436 7.71386 7.9115 7.54672 7.81293L6.98958 7.48721C6.97197 7.47668 6.95725 7.46196 6.94672 7.44436V7.42293H6.95101L6.96386 7.41864L9.62101 4.97578ZM14.3996 4.98436C14.4424 5.00578 14.4853 5.02721 14.511 5.0615L17.0781 7.41864C17.1039 7.44436 17.0996 7.4615 17.0696 7.47864C16.7867 7.62864 16.311 7.85578 16.1824 8.19007C16.0924 8.4215 16.0539 8.6615 16.0624 8.91864C16.071 9.04721 16.0496 9.15864 16.0281 9.27435C16.0116 9.27023 15.9967 9.26128 15.9853 9.24864C15.7237 8.97317 15.458 8.70171 15.1881 8.43436C14.8902 8.13938 14.6178 7.81966 14.3739 7.47864L14.3953 7.24293C14.4005 7.06011 14.4034 6.87724 14.4039 6.69436C14.4096 6.12292 14.4067 5.55142 14.3953 4.98007L14.3996 4.98436ZM7.54243 13.9715C7.54243 13.9929 7.53386 14.0144 7.52101 14.0358C7.50842 14.0538 7.4904 14.0673 7.46958 14.0744L6.89529 14.2458C6.89093 14.2387 6.88665 14.2315 6.88243 14.2244C6.87815 14.2201 6.85672 14.2115 6.85672 14.2029V7.98436C6.86101 7.96721 6.85672 7.95436 6.85672 7.95436H6.86958L6.88672 7.95007C7.09672 8.03578 7.25958 8.14721 7.37101 8.29293C7.50815 8.46007 7.54243 8.65293 7.54243 8.8715V13.9715ZM17.1167 7.98436C17.1339 7.99721 17.1424 8.01007 17.1424 8.03578V14.1815C17.1424 14.2286 17.1167 14.2501 17.0739 14.2415C16.9358 14.2258 16.8036 14.1773 16.6881 14.1001C16.4996 13.9715 16.4696 13.6886 16.4739 13.4615V9.51436C16.4696 9.21436 16.4739 8.92721 16.4781 8.65721C16.4804 8.59771 16.495 8.53933 16.521 8.48578L16.6067 8.32293C16.7096 8.1515 16.8767 8.0915 17.0396 8.01436L17.1167 7.98864V7.98436ZM11.2881 8.55435C11.2967 8.56721 11.3139 8.5715 11.331 8.56721C11.3376 8.56383 11.345 8.56206 11.3524 8.56206C11.3599 8.56206 11.3672 8.56383 11.3739 8.56721C11.3996 8.58007 11.4167 8.6015 11.4253 8.6315C10.671 8.64007 9.91672 8.64007 9.17101 8.6315C9.16243 8.6315 9.15386 8.62721 9.14958 8.61436L9.61672 8.13007C9.63079 8.11537 9.64861 8.10481 9.66825 8.09952C9.68789 8.09423 9.70861 8.09442 9.72815 8.10007L11.2881 8.55435ZM14.8839 8.63578H12.9253C12.9167 8.62293 12.921 8.61007 12.9296 8.59293L14.331 8.09578C14.3439 8.09178 14.3577 8.09168 14.3707 8.09549C14.3836 8.0993 14.3952 8.10686 14.4039 8.11721L14.8839 8.6315V8.63578Z" fill="black"/>
<path d="M6.42815 12.4286V12.4372C6.42595 12.4397 6.42288 12.4412 6.41958 12.4415H6.41101C6.1304 12.3755 5.88264 12.2113 5.71243 11.9786C5.6457 11.8597 5.59388 11.7331 5.55815 11.6015C5.47243 11.2586 5.37386 10.9201 5.26243 10.5858C5.02243 9.85721 5.16386 9.13721 5.47672 8.4515C5.48631 8.43083 5.5006 8.4127 5.51847 8.39855C5.53633 8.38441 5.55726 8.37466 5.57958 8.37007C5.83672 8.30578 6.12386 8.31864 6.39386 8.29293C6.41101 8.29293 6.42815 8.3015 6.42815 8.32293V12.4329V12.4286ZM18.7753 10.7658L18.711 11.0058C18.5567 11.5758 18.1839 12.1972 17.5881 12.4544C17.5862 12.4555 17.584 12.4561 17.5817 12.4561C17.5795 12.4561 17.5772 12.4555 17.5753 12.4544C17.5734 12.4528 17.5721 12.4508 17.5713 12.4485C17.5706 12.4463 17.5705 12.4438 17.571 12.4415V9.06435C17.5881 8.87578 17.541 8.65293 17.6567 8.53293C17.8924 8.28436 18.231 8.3315 18.5481 8.35721C18.561 8.35721 18.5739 8.36578 18.5781 8.37864C18.8653 9.15864 18.9296 9.9515 18.7753 10.7658ZM9.14958 8.61436C9.14958 8.62721 9.16243 8.6315 9.17101 8.6315C9.91672 8.64007 10.671 8.64007 11.4253 8.6315C11.7853 8.67436 12.1453 8.68721 12.5139 8.67436C12.5481 8.67436 12.6167 8.6615 12.7196 8.64436C12.7881 8.6315 12.8567 8.62721 12.9253 8.63578H14.8839C14.871 8.63578 14.8753 8.62721 14.901 8.61436L15.561 9.33864L15.2267 8.99578C15.2198 8.98958 15.2116 8.98486 15.2028 8.98191C15.1939 8.97897 15.1846 8.97785 15.1753 8.97864H8.83243C8.81958 8.97864 8.81529 8.97864 8.81529 8.9615L9.14958 8.61436Z" fill="#B9FF01"/>
<path d="M8.83243 8.97864H15.1753C15.1967 8.97864 15.2139 8.98293 15.2267 9.00007L15.561 9.33864C15.561 9.3515 15.5696 9.36435 15.5824 9.37721C15.5773 9.38227 15.5716 9.3866 15.5653 9.39007C15.5597 9.39136 15.5538 9.39136 15.5481 9.39007H8.49815C8.48529 9.39007 8.46815 9.38578 8.44244 9.36864C8.45293 9.36224 8.46175 9.35342 8.46815 9.34293L8.83243 8.97864Z" fill="black"/>
<path d="M8.50244 9.36864C8.52815 9.38578 8.54529 9.39435 8.56243 9.39435H15.4924L15.5139 9.39007L15.531 9.37721C15.5439 9.37721 15.5524 9.37721 15.561 9.38578L15.8353 9.68578C15.8567 9.70721 15.861 9.72864 15.8481 9.7415H8.16815C8.15958 9.7415 8.15958 9.7415 8.15958 9.73293L8.50244 9.36864Z" fill="#B9FF01"/>
<path d="M15.8567 9.7415V10.1272H8.14244V9.7415H15.8567Z" fill="black"/>
<path d="M8.14244 10.1272H15.8567V10.4829H8.14244V10.1272Z" fill="#B9FF01"/>
<path d="M8.14244 10.4829H15.8567V10.9329H8.14244V10.4829Z" fill="black"/>
<path d="M8.14244 10.9329H15.8567V11.2844H8.14244V10.9329Z" fill="#B9FF01"/>
<path d="M8.14244 11.2844L11.1424 11.2844L11.0824 11.3701L10.7996 11.6958C10.7813 11.7166 10.7589 11.7335 10.7339 11.7453C10.7088 11.7571 10.6816 11.7636 10.6539 11.7644H8.14244V11.2844ZM12.8481 11.2844L15.8567 11.2844V11.7558H13.4653C13.4224 11.7558 13.3839 11.7558 13.341 11.7472C13.3261 11.7445 13.3126 11.737 13.3024 11.7258L12.9896 11.3701C12.9743 11.3671 12.9598 11.3613 12.9467 11.3529C12.9324 11.3401 12.9194 11.3257 12.9081 11.3101C12.8923 11.2939 12.8708 11.2847 12.8481 11.2844Z" fill="black"/>
<path d="M16.1096 12.7201C16.131 13.1058 16.1267 13.4786 16.0924 13.8558C16.0581 14.2544 16.2639 14.4986 16.6324 14.5415C16.7824 14.5586 16.9324 14.6229 17.0953 14.7301C17.1039 14.7386 17.1039 14.7429 17.0953 14.7515L15.6081 16.5772C15.591 16.5944 15.5824 16.5944 15.5867 16.5686C15.6456 16.1227 15.5663 15.6695 15.3596 15.2701C15.231 15.0301 15.0896 14.7944 14.9353 14.5629C14.6996 14.1901 14.7681 13.7701 14.9867 13.4058C15.051 13.3029 15.1796 13.1701 15.3724 13.0072C15.6189 12.8058 15.8618 12.6001 16.101 12.3901L16.1053 12.3944V12.7201H16.1096ZM7.51244 14.5244C7.81244 14.3958 7.96672 14.1515 7.97101 13.8044C7.97101 13.5901 7.96244 13.3586 7.93672 13.1058C7.92096 12.9187 7.9369 12.7304 7.98386 12.5486C7.98647 12.5471 7.98943 12.5463 7.99243 12.5463C7.99544 12.5463 7.9984 12.5471 8.00101 12.5486C8.26243 12.6772 8.51101 12.8315 8.74243 13.0072C9.14101 13.3115 9.35101 13.7315 9.20529 14.2415C9.08529 14.6701 8.82815 15.0129 8.59672 15.3729C8.49386 15.5358 8.44244 15.7415 8.43815 15.9344C8.43224 16.0959 8.3989 16.2554 8.33958 16.4058C8.33557 16.4097 8.33019 16.4119 8.32458 16.4119C8.31897 16.4119 8.31358 16.4097 8.30958 16.4058L6.89529 14.6829C6.87815 14.6572 6.88243 14.6486 6.91243 14.6486C7.11815 14.6486 7.31958 14.6058 7.51244 14.5201V14.5244Z" fill="#B9FF01"/>
<path d="M14.1424 13.3115V14.5329L14.5367 15.7115C14.5667 15.7544 14.571 15.7972 14.571 15.8486V17.1429H9.42815V15.9215C9.42815 15.8444 9.45386 15.7501 9.49672 15.6815L9.83958 14.4901C9.86101 14.4558 9.85672 14.4129 9.85672 14.3744V13.4615C9.85672 13.4229 9.88672 13.3844 9.90815 13.3544L10.5939 12.4801C10.6003 12.4695 10.609 12.4605 10.6194 12.4539C10.6298 12.4472 10.6416 12.443 10.6539 12.4415C10.7181 12.4415 10.7739 12.4286 10.8339 12.4286H13.4524C13.461 12.4286 13.4653 12.4415 13.4696 12.4415L13.4781 12.4544L14.1424 13.3115Z" fill="black"/>
<path d="M11.6139 14.1301L11.0653 13.8429V13.8386L11.061 13.8301L11.0567 13.3029V13.2944C11.0567 13.2909 11.0581 13.2877 11.0605 13.2853C11.0629 13.2829 11.0662 13.2815 11.0696 13.2815C11.073 13.2815 11.0763 13.2829 11.0787 13.2853C11.0811 13.2877 11.0824 13.2909 11.0824 13.2944L11.6353 14.1086C11.6387 14.1098 11.6415 14.1122 11.6431 14.1154C11.6447 14.1187 11.645 14.1224 11.6439 14.1258C11.6427 14.1292 11.6403 14.132 11.6371 14.1336C11.6339 14.1352 11.6301 14.1355 11.6267 14.1344H11.6181L11.6139 14.1301ZM13.0153 13.2944L13.011 13.8301V13.8386H13.0024L12.4453 14.1301H12.4367C12.4341 14.1291 12.4318 14.1274 12.4303 14.1251C12.4287 14.1228 12.428 14.12 12.4281 14.1172V14.1086L12.9853 13.2858H12.9939C12.9962 13.2837 12.9993 13.2825 13.0024 13.2825C13.0056 13.2825 13.0086 13.2837 13.011 13.2858V13.2944H13.0153ZM14.4981 17.6144C14.3396 18.0129 14.1981 18.4029 14.0267 18.7929C13.9796 18.9044 13.8981 19.0201 13.7824 19.0501C12.6253 19.3372 11.4124 19.4015 10.3067 19.0201C10.0667 18.9344 9.94243 18.6772 9.84815 18.4372C9.73672 18.1544 9.61672 17.8758 9.49672 17.6015C9.48815 17.5844 9.49243 17.5715 9.50958 17.5715H14.4896L14.4981 17.5844C14.5004 17.589 14.5016 17.5942 14.5016 17.5994C14.5016 17.6046 14.5004 17.6097 14.4981 17.6144Z" fill="#B9FF01"/>
</svg>
