<svg width="24" height="24" viewBox="0 0 24 24" fill="none" xmlns="http://www.w3.org/2000/svg">
<path d="M2 6.5H3.5C11.232 6.5 17.5 12.768 17.5 20.5V22H20.5C21.3284 22 22 21.3284 22 20.5C22 10.2827 13.7173 2 3.5 2C2.67157 2 2 2.67157 2 3.5V6.5Z" fill="url(#paint0_radial_134_396)"/>
<path d="M18 20.5H22C22 21.3284 21.3284 22 20.5 22H18V20.5Z" fill="url(#paint1_linear_134_396)"/>
<path d="M3.5 2L3.5 6H2L2 3.5C2 2.67157 2.67157 2 3.5 2Z" fill="url(#paint2_linear_134_396)"/>
<path d="M2 6H3.5C11.5081 6 18 12.4919 18 20.5V22H13.5V20.5C13.5 14.9771 9.02285 10.5 3.5 10.5H2V6Z" fill="url(#paint3_radial_134_396)"/>
<path d="M14 20.5H18V22H14V20.5Z" fill="url(#paint4_linear_134_396)"/>
<path d="M2 10L2 6L3.5 6L3.5 10H2Z" fill="url(#paint5_linear_134_396)"/>
<path d="M2 12.5C2 13.3284 2.67157 14 3.5 14C7.08985 14 10 16.9101 10 20.5C10 21.3284 10.6716 22 11.5 22H14V20.5C14 14.701 9.29899 9.99999 3.5 9.99999H2V12.5Z" fill="url(#paint6_radial_134_396)"/>
<path d="M10 20.5H14V22H11.5C10.6716 22 10 21.3284 10 20.5Z" fill="url(#paint7_radial_134_396)"/>
<path d="M3.5 14C2.67157 14 2 13.3284 2 12.5L2 9.99999L3.5 9.99999L3.5 14Z" fill="url(#paint8_radial_134_396)"/>
<defs>
<radialGradient id="paint0_radial_134_396" cx="0" cy="0" r="1" gradientUnits="userSpaceOnUse" gradientTransform="translate(3.5 20.5) rotate(-90) scale(18.5)">
<stop offset="0.770277" stop-color="#FF4000"/>
<stop offset="1" stop-color="#8754C9"/>
</radialGradient>
<linearGradient id="paint1_linear_134_396" x1="17.75" y1="21.25" x2="22" y2="21.25" gradientUnits="userSpaceOnUse">
<stop stop-color="#FF4000"/>
<stop offset="1" stop-color="#8754C9"/>
</linearGradient>
<linearGradient id="paint2_linear_134_396" x1="2.75" y1="2" x2="2.75" y2="6.25" gradientUnits="userSpaceOnUse">
<stop stop-color="#8754C9"/>
<stop offset="1" stop-color="#FF4000"/>
</linearGradient>
<radialGradient id="paint3_radial_134_396" cx="0" cy="0" r="1" gradientUnits="userSpaceOnUse" gradientTransform="translate(3.5 20.5) rotate(-90) scale(14.5)">
<stop offset="0.723929" stop-color="#FFF700"/>
<stop offset="1" stop-color="#FF9901"/>
</radialGradient>
<linearGradient id="paint4_linear_134_396" x1="14" y1="21.25" x2="18" y2="21.25" gradientUnits="userSpaceOnUse">
<stop stop-color="#FFF700"/>
<stop offset="1" stop-color="#FF9901"/>
</linearGradient>
<linearGradient id="paint5_linear_134_396" x1="2.75" y1="10" x2="2.75" y2="6" gradientUnits="userSpaceOnUse">
<stop stop-color="#FFF700"/>
<stop offset="1" stop-color="#FF9901"/>
</linearGradient>
<radialGradient id="paint6_radial_134_396" cx="0" cy="0" r="1" gradientUnits="userSpaceOnUse" gradientTransform="translate(3.5 20.5) rotate(-90) scale(10.5)">
<stop offset="0.59513" stop-color="#00AAFF"/>
<stop offset="1" stop-color="#01DA40"/>
</radialGradient>
<radialGradient id="paint7_radial_134_396" cx="0" cy="0" r="1" gradientUnits="userSpaceOnUse" gradientTransform="translate(9.75 21.25) scale(4.25 11.3333)">
<stop stop-color="#00AAFF"/>
<stop offset="1" stop-color="#01DA40"/>
</radialGradient>
<radialGradient id="paint8_radial_134_396" cx="0" cy="0" r="1" gradientUnits="userSpaceOnUse" gradientTransform="translate(2.75 14.25) rotate(-90) scale(4.25 80.5926)">
<stop stop-color="#00AAFF"/>
<stop offset="1" stop-color="#01DA40"/>
</radialGradient>
</defs>
</svg>
